0, 0, Header, 1, 30, 120
1, 0, Start_track
1, 0, Time_signature, 3, 3, 12, 8
1, 0, Key_signature, 2, "major"
1, 0, Tempo, 923077
1, 0, Marker_t, "Coro: Jauchzet, frohlocket, auf, preiset die Tage!"
1, 35818, Tempo, 916031
1, 35826, Tempo, 923077
1, 35832, Tempo, 930233
1, 35838, Tempo, 937500
1, 35844, Tempo, 944882
1, 35850, Tempo, 952381
1, 35856, Tempo, 960000
1, 35862, Tempo, 967742
1, 35868, Tempo, 975610
1, 35874, Tempo, 983607
1, 35882, Tempo, 991736
1, 35888, Tempo, 1000000
1, 35894, Tempo, 1008403
1, 35900, Tempo, 1016949
1, 35906, Tempo, 1025641
1, 35912, Tempo, 1034483
1, 35918, Tempo, 1043478
1, 35924, Tempo, 1052632
1, 35930, Tempo, 1061947
1, 35936, Tempo, 1071429
1, 35944, Tempo, 1081081
1, 35950, Tempo, 1090909
1, 35956, Tempo, 1100917
1, 35962, Tempo, 1111111
1, 35968, Tempo, 1121495
1, 35974, Tempo, 1132075
1, 35980, Tempo, 1142857
1, 35986, Tempo, 1153846
1, 35992, Tempo, 1165049
1, 35998, Tempo, 1176471
1, 36180, Time_signature, 2, 3, 12, 8
1, 36300, Time_signature, 3, 3, 12, 8
1, 36300, Tempo, 923077
1, 61140, Time_signature, 4, 2, 24, 8
1, 61140, Marker_t, "Recit Evangelist"
1, 69780, Marker_t, "Recit Alto"
1, 75060, Time_signature, 3, 3, 12, 8
1, 75240, Key_signature, 0, "major"
1, 75240, Tempo, 1000000
1, 75240, Marker_t, "Aria Alto: Bereitr dich Zion"
1, 116100, Time_signature, 4, 2, 24, 8
1, 116100, Marker_t, "Choral"
1, 117300, Tempo, 1500000
1, 117420, Tempo, 1000000
1, 119220, Tempo, 1500000
1, 119340, Tempo, 1000000
1, 121140, Tempo, 1500000
1, 121260, Tempo, 1000000
1, 123060, Tempo, 1500000
1, 123180, Tempo, 1000000
1, 123778, Tempo, 1000000
1, 123820, Tempo, 1008403
1, 123840, Tempo, 1016949
1, 123850, Tempo, 1025641
1, 123868, Tempo, 1034483
1, 123874, Tempo, 1043478
1, 123878, Tempo, 1052632
1, 123882, Tempo, 1061947
1, 123894, Tempo, 1071429
1, 123902, Tempo, 1081081
1, 123908, Tempo, 1090909
1, 123914, Tempo, 1100917
1, 123918, Tempo, 1111111
1, 123922, Tempo, 1121495
1, 123930, Tempo, 1132075
1, 123932, Tempo, 1142857
1, 123940, Tempo, 1153846
1, 123946, Tempo, 1165049
1, 123950, Tempo, 1176471
1, 123954, Tempo, 1188119
1, 123968, Tempo, 1200000
1, 123972, Tempo, 1212121
1, 123976, Tempo, 1224490
1, 123980, Tempo, 1237113
1, 123992, Tempo, 1250000
1, 123996, Tempo, 1263158
1, 124006, Tempo, 1276596
1, 124008, Tempo, 1290323
1, 124014, Tempo, 1304348
1, 124022, Tempo, 1318681
1, 124026, Tempo, 1348315
1, 124042, Tempo, 1363636
1, 124046, Tempo, 1379310
1, 124050, Tempo, 1395349
1, 124054, Tempo, 1411765
1, 124060, Tempo, 1428571
1, 124064, Tempo, 1445783
1, 124070, Tempo, 1463415
1, 124074, Tempo, 1481481
1, 124078, Tempo, 1500000
1, 124090, Tempo, 1518987
1, 124094, Tempo, 1558442
1, 124106, Tempo, 1578947
1, 124118, Tempo, 1621622
1, 124130, Tempo, 1666667
1, 124142, Tempo, 1714286
1, 124146, Tempo, 1764706
1, 124150, Tempo, 1791045
1, 124260, Key_signature, 1, "major"
1, 124260, Tempo, 1000000
1, 124260, Marker_t, "Recit Evangelist"
1, 126660, Time_signature, 3, 2, 24, 8
1, 126660, Tempo, 857143
1, 126660, Marker_t, "Choral"
1, 132360, Tempo, 857143
1, 132364, Tempo, 863309
1, 132368, Tempo, 869565
1, 132370, Tempo, 875912
1, 132374, Tempo, 882353
1, 132376, Tempo, 888889
1, 132380, Tempo, 895522
1, 132382, Tempo, 902256
1, 132386, Tempo, 909091
1, 132388, Tempo, 916031
1, 132392, Tempo, 923077
1, 132394, Tempo, 930233
1, 132398, Tempo, 937500
1, 132400, Tempo, 944882
1, 132404, Tempo, 952381
1, 132406, Tempo, 960000
1, 132410, Tempo, 967742
1, 132412, Tempo, 975610
1, 132416, Tempo, 983607
1, 132418, Tempo, 991736
1, 132420, Time_signature, 4, 2, 24, 8
1, 132420, Marker_t, "Recit Bass"
1, 132422, Tempo, 1000000
1, 132424, Tempo, 1008403
1, 133380, Time_signature, 3, 2, 24, 8
1, 133380, Tempo, 857143
1, 133380, Marker_t, "Andante"
1, 136910, Tempo, 857143
1, 136914, Tempo, 863309
1, 136918, Tempo, 869565
1, 136922, Tempo, 875912
1, 136924, Tempo, 882353
1, 136928, Tempo, 888889
1, 136932, Tempo, 895522
1, 136934, Tempo, 902256
1, 136938, Tempo, 909091
1, 136942, Tempo, 916031
1, 136944, Tempo, 923077
1, 136948, Tempo, 930233
1, 136952, Tempo, 937500
1, 136956, Tempo, 944882
1, 136958, Tempo, 952381
1, 136962, Tempo, 960000
1, 136966, Tempo, 967742
1, 136968, Tempo, 975610
1, 136972, Tempo, 983607
1, 136976, Tempo, 991736
1, 136978, Tempo, 1000000
1, 136980, Time_signature, 4, 2, 24, 8
1, 136980, Tempo, 1000000
1, 136980, Marker_t, "Recit Bass"
1, 137940, Time_signature, 3, 2, 24, 8
1, 137940, Tempo, 857143
1, 137940, Marker_t, "Andante"
1, 141830, Tempo, 857143
1, 141834, Tempo, 863309
1, 141838, Tempo, 869565
1, 141842, Tempo, 875912
1, 141846, Tempo, 882353
1, 141850, Tempo, 888889
1, 141854, Tempo, 895522
1, 141858, Tempo, 902256
1, 141862, Tempo, 909091
1, 141866, Tempo, 916031
1, 141870, Tempo, 923077
1, 141874, Tempo, 930233
1, 141878, Tempo, 937500
1, 141882, Tempo, 944882
1, 141886, Tempo, 952381
1, 141890, Tempo, 960000
1, 141894, Tempo, 967742
1, 141898, Tempo, 975610
1, 141900, Time_signature, 4, 2, 24, 8
1, 141900, Tempo, 1000000
1, 141900, Marker_t, "Recit Bass"
1, 142860, Time_signature, 3, 2, 24, 8
1, 142860, Tempo, 857143
1, 142860, Marker_t, "Andante"
1, 146032, Tempo, 851064
1, 146036, Tempo, 857143
1, 146040, Tempo, 863309
1, 146042, Tempo, 869565
1, 146046, Tempo, 875912
1, 146050, Tempo, 882353
1, 146052, Tempo, 888889
1, 146056, Tempo, 895522
1, 146060, Tempo, 902256
1, 146062, Tempo, 909091
1, 146066, Tempo, 916031
1, 146070, Tempo, 923077
1, 146072, Tempo, 930233
1, 146076, Tempo, 937500
1, 146080, Tempo, 944882
1, 146082, Tempo, 952381
1, 146086, Tempo, 960000
1, 146090, Tempo, 967742
1, 146092, Tempo, 975610
1, 146096, Tempo, 983607
1, 146098, Tempo, 991736
1, 146100, Time_signature, 4, 2, 24, 8
1, 146100, Tempo, 1000000
1, 146100, Marker_t, "Recit Bass"
1, 147060, Time_signature, 3, 2, 24, 8
1, 147060, Tempo, 857143
1, 147060, Marker_t, "Andante"
1, 151380, Time_signature, 2, 2, 24, 8
1, 151620, Key_signature, 2, "major"
1, 151620, Tempo, 666667
1, 151620, Marker_t, "Aria Basso: Grosser Herr und starker König"
1, 199620, Time_signature, 4, 2, 24, 8
1, 199620, Tempo, 1000000
1, 199620, Marker_t, "Choral: Ach, mein herzliebes Jesulein!"
1, 199620, End_track
2, 0, Start_track
2, 0, MIDI_port, 0
2, 0, Title_t, "Tromba I"
2, 0, Program_c, 0, 56
2, 2, Control_c, 0, 91, 92
2, 720, Note_on_c, 0, 62, 90
2, 749, Note_on_c, 0, 62, 0
2, 750, Note_on_c, 0, 62, 90
2, 764, Note_on_c, 0, 62, 0
2, 765, Note_on_c, 0, 62, 90
2, 779, Note_on_c, 0, 62, 0
2, 780, Note_on_c, 0, 66, 90
2, 809, Note_on_c, 0, 66, 0
2, 810, Note_on_c, 0, 62, 90
2, 839, Note_on_c, 0, 62, 0
2, 840, Note_on_c, 0, 66, 90
2, 869, Note_on_c, 0, 66, 0
2, 870, Note_on_c, 0, 69, 90
2, 899, Note_on_c, 0, 69, 0
2, 900, Note_on_c, 0, 74, 90
2, 929, Note_on_c, 0, 74, 0
2, 930, Note_on_c, 0, 69, 90
2, 959, Note_on_c, 0, 69, 0
2, 960, Note_on_c, 0, 74, 90
2, 989, Note_on_c, 0, 74, 0
2, 990, Note_on_c, 0, 78, 90
2, 1019, Note_on_c, 0, 78, 0
2, 1020, Note_on_c, 0, 74, 90
2, 1049, Note_on_c, 0, 74, 0
2, 1050, Note_on_c, 0, 78, 90
2, 1079, Note_on_c, 0, 78, 0
2, 1080, Note_on_c, 0, 81, 90
2, 1139, Note_on_c, 0, 81, 0
2, 1260, Note_on_c, 0, 78, 90
2, 1319, Note_on_c, 0, 78, 0
2, 1440, Note_on_c, 0, 74, 90
2, 1499, Note_on_c, 0, 74, 0
2, 1740, Note_on_c, 0, 76, 90
2, 1769, Note_on_c, 0, 76, 0
2, 1770, Note_on_c, 0, 78, 90
2, 1799, Note_on_c, 0, 78, 0
2, 1800, Note_on_c, 0, 79, 90
2, 1829, Note_on_c, 0, 79, 0
2, 1860, Note_on_c, 0, 79, 90
2, 1889, Note_on_c, 0, 79, 0
2, 1920, Note_on_c, 0, 79, 90
2, 1949, Note_on_c, 0, 79, 0
2, 1980, Note_on_c, 0, 79, 90
2, 2039, Note_on_c, 0, 79, 0
2, 2040, Note_on_c, 0, 78, 90
2, 2069, Note_on_c, 0, 78, 0
2, 2070, Note_on_c, 0, 76, 90
2, 2099, Note_on_c, 0, 76, 0
2, 2100, Note_on_c, 0, 78, 90
2, 2159, Note_on_c, 0, 78, 0
2, 2460, Note_on_c, 0, 79, 90
2, 2519, Note_on_c, 0, 79, 0
2, 2520, Note_on_c, 0, 78, 90
2, 2549, Note_on_c, 0, 78, 0
2, 2550, Note_on_c, 0, 80, 90
2, 2579, Note_on_c, 0, 80, 0
2, 2580, Note_on_c, 0, 81, 90
2, 2594, Note_on_c, 0, 81, 0
2, 2595, Note_on_c, 0, 80, 90
2, 2609, Note_on_c, 0, 80, 0
2, 2610, Note_on_c, 0, 81, 90
2, 2624, Note_on_c, 0, 81, 0
2, 2625, Note_on_c, 0, 80, 90
2, 2639, Note_on_c, 0, 80, 0
2, 2640, Note_on_c, 0, 81, 90
2, 2654, Note_on_c, 0, 81, 0
2, 2655, Note_on_c, 0, 80, 90
2, 2669, Note_on_c, 0, 80, 0
2, 2670, Note_on_c, 0, 78, 90
2, 2684, Note_on_c, 0, 78, 0
2, 2685, Note_on_c, 0, 80, 90
2, 2699, Note_on_c, 0, 80, 0
2, 2700, Note_on_c, 0, 81, 90
2, 2819, Note_on_c, 0, 81, 0
2, 4290, Note_on_c, 0, 74, 90
2, 4304, Note_on_c, 0, 74, 0
2, 4305, Note_on_c, 0, 76, 90
2, 4319, Note_on_c, 0, 76, 0
2, 4320, Note_on_c, 0, 78, 90
2, 4349, Note_on_c, 0, 78, 0
2, 4350, Note_on_c, 0, 76, 90
2, 4364, Note_on_c, 0, 76, 0
2, 4365, Note_on_c, 0, 78, 90
2, 4379, Note_on_c, 0, 78, 0
2, 4380, Note_on_c, 0, 80, 90
2, 4409, Note_on_c, 0, 80, 0
2, 4410, Note_on_c, 0, 78, 90
2, 4424, Note_on_c, 0, 78, 0
2, 4425, Note_on_c, 0, 80, 90
2, 4439, Note_on_c, 0, 80, 0
2, 4440, Note_on_c, 0, 81, 90
2, 4469, Note_on_c, 0, 81, 0
2, 4470, Note_on_c, 0, 80, 90
2, 4484, Note_on_c, 0, 80, 0
2, 4485, Note_on_c, 0, 81, 90
2, 4499, Note_on_c, 0, 81, 0
2, 4500, Note_on_c, 0, 83, 90
2, 4559, Note_on_c, 0, 83, 0
2, 4560, Note_on_c, 0, 76, 90
2, 4709, Note_on_c, 0, 76, 0
2, 4710, Note_on_c, 0, 74, 90
2, 4724, Note_on_c, 0, 74, 0
2, 4725, Note_on_c, 0, 76, 90
2, 4739, Note_on_c, 0, 76, 0
2, 4740, Note_on_c, 0, 78, 90
2, 4769, Note_on_c, 0, 78, 0
2, 4770, Note_on_c, 0, 76, 90
2, 4784, Note_on_c, 0, 76, 0
2, 4785, Note_on_c, 0, 78, 90
2, 4799, Note_on_c, 0, 78, 0
2, 4800, Note_on_c, 0, 79, 90
2, 4829, Note_on_c, 0, 79, 0
2, 4830, Note_on_c, 0, 78, 90
2, 4844, Note_on_c, 0, 78, 0
2, 4845, Note_on_c, 0, 79, 90
2, 4859, Note_on_c, 0, 79, 0
2, 4860, Note_on_c, 0, 81, 90
2, 4919, Note_on_c, 0, 81, 0
2, 4920, Note_on_c, 0, 74, 90
2, 5069, Note_on_c, 0, 74, 0
2, 5070, Note_on_c, 0, 73, 90
2, 5084, Note_on_c, 0, 73, 0
2, 5085, Note_on_c, 0, 74, 90
2, 5099, Note_on_c, 0, 74, 0
2, 5100, Note_on_c, 0, 76, 90
2, 5129, Note_on_c, 0, 76, 0
2, 5130, Note_on_c, 0, 74, 90
2, 5144, Note_on_c, 0, 74, 0
2, 5145, Note_on_c, 0, 76, 90
2, 5159, Note_on_c, 0, 76, 0
2, 5160, Note_on_c, 0, 78, 90
2, 5189, Note_on_c, 0, 78, 0
2, 5190, Note_on_c, 0, 76, 90
2, 5204, Note_on_c, 0, 76, 0
2, 5205, Note_on_c, 0, 78, 90
2, 5219, Note_on_c, 0, 78, 0
2, 5220, Note_on_c, 0, 79, 90
2, 5279, Note_on_c, 0, 79, 0
2, 5280, Note_on_c, 0, 83, 90
2, 5309, Note_on_c, 0, 83, 0
2, 5310, Note_on_c, 0, 81, 90
2, 5339, Note_on_c, 0, 81, 0
2, 5340, Note_on_c, 0, 79, 90
2, 5399, Note_on_c, 0, 79, 0
2, 5400, Note_on_c, 0, 79, 90
2, 5579, Note_on_c, 0, 79, 0
2, 5610, Note_on_c, 0, 78, 90
2, 5624, Note_on_c, 0, 78, 0
2, 5625, Note_on_c, 0, 79, 90
2, 5639, Note_on_c, 0, 79, 0
2, 5640, Note_on_c, 0, 81, 90
2, 5669, Note_on_c, 0, 81, 0
2, 5670, Note_on_c, 0, 83, 90
2, 5684, Note_on_c, 0, 83, 0
2, 5685, Note_on_c, 0, 81, 90
2, 5699, Note_on_c, 0, 81, 0
2, 5700, Note_on_c, 0, 79, 90
2, 5729, Note_on_c, 0, 79, 0
2, 5730, Note_on_c, 0, 81, 90
2, 5744, Note_on_c, 0, 81, 0
2, 5745, Note_on_c, 0, 79, 90
2, 5759, Note_on_c, 0, 79, 0
2, 5760, Note_on_c, 0, 78, 90
2, 5819, Note_on_c, 0, 78, 0
2, 6840, Note_on_c, 0, 62, 90
2, 6869, Note_on_c, 0, 62, 0
2, 6870, Note_on_c, 0, 62, 90
2, 6884, Note_on_c, 0, 62, 0
2, 6885, Note_on_c, 0, 62, 90
2, 6899, Note_on_c, 0, 62, 0
2, 6900, Note_on_c, 0, 66, 90
2, 6929, Note_on_c, 0, 66, 0
2, 6930, Note_on_c, 0, 62, 90
2, 6959, Note_on_c, 0, 62, 0
2, 6960, Note_on_c, 0, 66, 90
2, 6989, Note_on_c, 0, 66, 0
2, 6990, Note_on_c, 0, 69, 90
2, 7019, Note_on_c, 0, 69, 0
2, 7020, Note_on_c, 0, 74, 90
2, 7049, Note_on_c, 0, 74, 0
2, 7050, Note_on_c, 0, 69, 90
2, 7079, Note_on_c, 0, 69, 0
2, 7080, Note_on_c, 0, 74, 90
2, 7109, Note_on_c, 0, 74, 0
2, 7110, Note_on_c, 0, 78, 90
2, 7139, Note_on_c, 0, 78, 0
2, 7140, Note_on_c, 0, 74, 90
2, 7169, Note_on_c, 0, 74, 0
2, 7170, Note_on_c, 0, 78, 90
2, 7199, Note_on_c, 0, 78, 0
2, 7200, Note_on_c, 0, 81, 90
2, 7259, Note_on_c, 0, 81, 0
2, 7380, Note_on_c, 0, 78, 90
2, 7439, Note_on_c, 0, 78, 0
2, 7560, Note_on_c, 0, 74, 90
2, 7619, Note_on_c, 0, 74, 0
2, 7860, Note_on_c, 0, 76, 90
2, 7889, Note_on_c, 0, 76, 0
2, 7890, Note_on_c, 0, 78, 90
2, 7919, Note_on_c, 0, 78, 0
2, 7920, Note_on_c, 0, 79, 90
2, 7949, Note_on_c, 0, 79, 0
2, 7980, Note_on_c, 0, 79, 90
2, 8009, Note_on_c, 0, 79, 0
2, 8040, Note_on_c, 0, 79, 90
2, 8069, Note_on_c, 0, 79, 0
2, 8100, Note_on_c, 0, 79, 90
2, 8159, Note_on_c, 0, 79, 0
2, 8160, Note_on_c, 0, 78, 90
2, 8189, Note_on_c, 0, 78, 0
2, 8190, Note_on_c, 0, 76, 90
2, 8219, Note_on_c, 0, 76, 0
2, 8220, Note_on_c, 0, 78, 90
2, 8279, Note_on_c, 0, 78, 0
2, 8580, Note_on_c, 0, 79, 90
2, 8639, Note_on_c, 0, 79, 0
2, 8640, Note_on_c, 0, 78, 90
2, 8669, Note_on_c, 0, 78, 0
2, 8670, Note_on_c, 0, 80, 90
2, 8699, Note_on_c, 0, 80, 0
2, 8700, Note_on_c, 0, 81, 90
2, 8714, Note_on_c, 0, 81, 0
2, 8715, Note_on_c, 0, 80, 90
2, 8729, Note_on_c, 0, 80, 0
2, 8730, Note_on_c, 0, 81, 90
2, 8744, Note_on_c, 0, 81, 0
2, 8745, Note_on_c, 0, 80, 90
2, 8759, Note_on_c, 0, 80, 0
2, 8760, Note_on_c, 0, 81, 90
2, 8774, Note_on_c, 0, 81, 0
2, 8775, Note_on_c, 0, 80, 90
2, 8789, Note_on_c, 0, 80, 0
2, 8790, Note_on_c, 0, 78, 90
2, 8804, Note_on_c, 0, 78, 0
2, 8805, Note_on_c, 0, 80, 90
2, 8819, Note_on_c, 0, 80, 0
2, 8820, Note_on_c, 0, 81, 90
2, 8939, Note_on_c, 0, 81, 0
2, 14400, Note_on_c, 0, 85, 90
2, 14429, Note_on_c, 0, 85, 0
2, 14460, Note_on_c, 0, 85, 90
2, 14489, Note_on_c, 0, 85, 0
2, 14520, Note_on_c, 0, 85, 90
2, 14549, Note_on_c, 0, 85, 0
2, 14580, Note_on_c, 0, 85, 90
2, 14639, Note_on_c, 0, 85, 0
2, 14640, Note_on_c, 0, 83, 90
2, 14669, Note_on_c, 0, 83, 0
2, 14670, Note_on_c, 0, 81, 90
2, 14699, Note_on_c, 0, 81, 0
2, 14700, Note_on_c, 0, 83, 90
2, 14759, Note_on_c, 0, 83, 0
2, 15420, Note_on_c, 0, 78, 90
2, 15449, Note_on_c, 0, 78, 0
2, 15450, Note_on_c, 0, 79, 90
2, 15479, Note_on_c, 0, 79, 0
2, 15480, Note_on_c, 0, 81, 90
2, 15539, Note_on_c, 0, 81, 0
2, 15540, Note_on_c, 0, 83, 90
2, 15569, Note_on_c, 0, 83, 0
2, 15570, Note_on_c, 0, 81, 90
2, 15599, Note_on_c, 0, 81, 0
2, 15600, Note_on_c, 0, 79, 90
2, 15629, Note_on_c, 0, 79, 0
2, 15630, Note_on_c, 0, 78, 90
2, 15659, Note_on_c, 0, 78, 0
2, 15660, Note_on_c, 0, 76, 90
2, 15719, Note_on_c, 0, 76, 0
2, 15720, Note_on_c, 0, 81, 90
2, 15749, Note_on_c, 0, 81, 0
2, 15750, Note_on_c, 0, 83, 90
2, 15779, Note_on_c, 0, 83, 0
2, 15780, Note_on_c, 0, 81, 90
2, 15809, Note_on_c, 0, 81, 0
2, 15810, Note_on_c, 0, 79, 90
2, 15839, Note_on_c, 0, 79, 0
2, 15840, Note_on_c, 0, 78, 90
2, 15869, Note_on_c, 0, 78, 0
2, 15870, Note_on_c, 0, 79, 90
2, 15899, Note_on_c, 0, 79, 0
2, 15900, Note_on_c, 0, 81, 90
2, 15929, Note_on_c, 0, 81, 0
2, 15930, Note_on_c, 0, 79, 90
2, 15959, Note_on_c, 0, 79, 0
2, 15960, Note_on_c, 0, 78, 90
2, 15989, Note_on_c, 0, 78, 0
2, 15990, Note_on_c, 0, 76, 90
2, 16019, Note_on_c, 0, 76, 0
2, 16020, Note_on_c, 0, 74, 90
2, 16079, Note_on_c, 0, 74, 0
2, 16920, Note_on_c, 0, 62, 90
2, 16949, Note_on_c, 0, 62, 0
2, 16950, Note_on_c, 0, 62, 90
2, 16964, Note_on_c, 0, 62, 0
2, 16965, Note_on_c, 0, 62, 90
2, 16979, Note_on_c, 0, 62, 0
2, 16980, Note_on_c, 0, 66, 90
2, 17009, Note_on_c, 0, 66, 0
2, 17010, Note_on_c, 0, 62, 90
2, 17039, Note_on_c, 0, 62, 0
2, 17040, Note_on_c, 0, 66, 90
2, 17069, Note_on_c, 0, 66, 0
2, 17070, Note_on_c, 0, 69, 90
2, 17099, Note_on_c, 0, 69, 0
2, 17100, Note_on_c, 0, 74, 90
2, 17129, Note_on_c, 0, 74, 0
2, 17130, Note_on_c, 0, 69, 90
2, 17159, Note_on_c, 0, 69, 0
2, 17160, Note_on_c, 0, 74, 90
2, 17189, Note_on_c, 0, 74, 0
2, 17190, Note_on_c, 0, 78, 90
2, 17219, Note_on_c, 0, 78, 0
2, 17220, Note_on_c, 0, 74, 90
2, 17249, Note_on_c, 0, 74, 0
2, 17250, Note_on_c, 0, 78, 90
2, 17279, Note_on_c, 0, 78, 0
2, 17280, Note_on_c, 0, 81, 90
2, 17339, Note_on_c, 0, 81, 0
2, 17460, Note_on_c, 0, 78, 90
2, 17519, Note_on_c, 0, 78, 0
2, 17640, Note_on_c, 0, 74, 90
2, 17699, Note_on_c, 0, 74, 0
2, 17940, Note_on_c, 0, 76, 90
2, 17969, Note_on_c, 0, 76, 0
2, 17970, Note_on_c, 0, 78, 90
2, 17999, Note_on_c, 0, 78, 0
2, 18000, Note_on_c, 0, 79, 90
2, 18029, Note_on_c, 0, 79, 0
2, 18060, Note_on_c, 0, 79, 90
2, 18089, Note_on_c, 0, 79, 0
2, 18120, Note_on_c, 0, 79, 90
2, 18149, Note_on_c, 0, 79, 0
2, 18180, Note_on_c, 0, 79, 90
2, 18239, Note_on_c, 0, 79, 0
2, 18240, Note_on_c, 0, 78, 90
2, 18269, Note_on_c, 0, 78, 0
2, 18270, Note_on_c, 0, 76, 90
2, 18299, Note_on_c, 0, 76, 0
2, 18300, Note_on_c, 0, 78, 90
2, 18359, Note_on_c, 0, 78, 0
2, 18660, Note_on_c, 0, 79, 90
2, 18719, Note_on_c, 0, 79, 0
2, 18720, Note_on_c, 0, 78, 90
2, 18749, Note_on_c, 0, 78, 0
2, 18750, Note_on_c, 0, 80, 90
2, 18779, Note_on_c, 0, 80, 0
2, 18780, Note_on_c, 0, 81, 90
2, 18794, Note_on_c, 0, 81, 0
2, 18795, Note_on_c, 0, 80, 90
2, 18809, Note_on_c, 0, 80, 0
2, 18810, Note_on_c, 0, 81, 90
2, 18824, Note_on_c, 0, 81, 0
2, 18825, Note_on_c, 0, 80, 90
2, 18839, Note_on_c, 0, 80, 0
2, 18840, Note_on_c, 0, 81, 90
2, 18854, Note_on_c, 0, 81, 0
2, 18855, Note_on_c, 0, 80, 90
2, 18869, Note_on_c, 0, 80, 0
2, 18870, Note_on_c, 0, 78, 90
2, 18884, Note_on_c, 0, 78, 0
2, 18885, Note_on_c, 0, 80, 90
2, 18899, Note_on_c, 0, 80, 0
2, 18900, Note_on_c, 0, 81, 90
2, 19019, Note_on_c, 0, 81, 0
2, 21300, Note_on_c, 0, 78, 90
2, 21329, Note_on_c, 0, 78, 0
2, 21330, Note_on_c, 0, 80, 90
2, 21359, Note_on_c, 0, 80, 0
2, 21360, Note_on_c, 0, 81, 90
2, 21374, Note_on_c, 0, 81, 0
2, 21375, Note_on_c, 0, 80, 90
2, 21389, Note_on_c, 0, 80, 0
2, 21390, Note_on_c, 0, 78, 90
2, 21404, Note_on_c, 0, 78, 0
2, 21405, Note_on_c, 0, 80, 90
2, 21419, Note_on_c, 0, 80, 0
2, 21420, Note_on_c, 0, 81, 90
2, 21479, Note_on_c, 0, 81, 0
2, 23010, Note_on_c, 0, 74, 90
2, 23024, Note_on_c, 0, 74, 0
2, 23025, Note_on_c, 0, 76, 90
2, 23039, Note_on_c, 0, 76, 0
2, 23040, Note_on_c, 0, 78, 90
2, 23069, Note_on_c, 0, 78, 0
2, 23070, Note_on_c, 0, 76, 90
2, 23084, Note_on_c, 0, 76, 0
2, 23085, Note_on_c, 0, 78, 90
2, 23099, Note_on_c, 0, 78, 0
2, 23100, Note_on_c, 0, 80, 90
2, 23129, Note_on_c, 0, 80, 0
2, 23130, Note_on_c, 0, 78, 90
2, 23144, Note_on_c, 0, 78, 0
2, 23145, Note_on_c, 0, 80, 90
2, 23159, Note_on_c, 0, 80, 0
2, 23160, Note_on_c, 0, 81, 90
2, 23189, Note_on_c, 0, 81, 0
2, 23190, Note_on_c, 0, 80, 90
2, 23204, Note_on_c, 0, 80, 0
2, 23205, Note_on_c, 0, 81, 90
2, 23219, Note_on_c, 0, 81, 0
2, 23220, Note_on_c, 0, 83, 90
2, 23279, Note_on_c, 0, 83, 0
2, 23280, Note_on_c, 0, 76, 90
2, 23429, Note_on_c, 0, 76, 0
2, 23430, Note_on_c, 0, 74, 90
2, 23444, Note_on_c, 0, 74, 0
2, 23445, Note_on_c, 0, 76, 90
2, 23459, Note_on_c, 0, 76, 0
2, 23460, Note_on_c, 0, 78, 90
2, 23489, Note_on_c, 0, 78, 0
2, 23490, Note_on_c, 0, 76, 90
2, 23504, Note_on_c, 0, 76, 0
2, 23505, Note_on_c, 0, 78, 90
2, 23519, Note_on_c, 0, 78, 0
2, 23520, Note_on_c, 0, 79, 90
2, 23549, Note_on_c, 0, 79, 0
2, 23550, Note_on_c, 0, 78, 90
2, 23564, Note_on_c, 0, 78, 0
2, 23565, Note_on_c, 0, 79, 90
2, 23579, Note_on_c, 0, 79, 0
2, 23580, Note_on_c, 0, 81, 90
2, 23639, Note_on_c, 0, 81, 0
2, 23640, Note_on_c, 0, 74, 90
2, 23789, Note_on_c, 0, 74, 0
2, 23790, Note_on_c, 0, 73, 90
2, 23804, Note_on_c, 0, 73, 0
2, 23805, Note_on_c, 0, 74, 90
2, 23819, Note_on_c, 0, 74, 0
2, 23820, Note_on_c, 0, 76, 90
2, 23849, Note_on_c, 0, 76, 0
2, 23850, Note_on_c, 0, 74, 90
2, 23864, Note_on_c, 0, 74, 0
2, 23865, Note_on_c, 0, 76, 90
2, 23879, Note_on_c, 0, 76, 0
2, 23880, Note_on_c, 0, 78, 90
2, 23909, Note_on_c, 0, 78, 0
2, 23910, Note_on_c, 0, 76, 90
2, 23924, Note_on_c, 0, 76, 0
2, 23925, Note_on_c, 0, 78, 90
2, 23939, Note_on_c, 0, 78, 0
2, 23940, Note_on_c, 0, 79, 90
2, 23999, Note_on_c, 0, 79, 0
2, 24000, Note_on_c, 0, 83, 90
2, 24029, Note_on_c, 0, 83, 0
2, 24030, Note_on_c, 0, 81, 90
2, 24059, Note_on_c, 0, 81, 0
2, 24060, Note_on_c, 0, 79, 90
2, 24119, Note_on_c, 0, 79, 0
2, 24120, Note_on_c, 0, 81, 90
2, 24135, Note_on_c, 0, 81, 0
2, 24135, Note_on_c, 0, 79, 90
2, 24150, Note_on_c, 0, 79, 0
2, 24150, Note_on_c, 0, 81, 90
2, 24160, Note_on_c, 0, 81, 0
2, 24160, Note_on_c, 0, 79, 90
2, 24170, Note_on_c, 0, 79, 0
2, 24170, Note_on_c, 0, 81, 90
2, 24180, Note_on_c, 0, 81, 0
2, 24180, Note_on_c, 0, 79, 90
2, 24190, Note_on_c, 0, 79, 0
2, 24190, Note_on_c, 0, 81, 90
2, 24200, Note_on_c, 0, 81, 0
2, 24200, Note_on_c, 0, 79, 90
2, 24210, Note_on_c, 0, 79, 0
2, 24210, Note_on_c, 0, 81, 90
2, 24220, Note_on_c, 0, 81, 0
2, 24220, Note_on_c, 0, 79, 90
2, 24230, Note_on_c, 0, 79, 0
2, 24230, Note_on_c, 0, 81, 90
2, 24240, Note_on_c, 0, 81, 0
2, 24240, Note_on_c, 0, 79, 90
2, 24250, Note_on_c, 0, 79, 0
2, 24250, Note_on_c, 0, 81, 90
2, 24260, Note_on_c, 0, 81, 0
2, 24260, Note_on_c, 0, 79, 90
2, 24270, Note_on_c, 0, 79, 0
2, 24270, Note_on_c, 0, 81, 90
2, 24280, Note_on_c, 0, 81, 0
2, 24280, Note_on_c, 0, 79, 90
2, 24290, Note_on_c, 0, 79, 0
2, 24290, Note_on_c, 0, 81, 90
2, 24300, Note_on_c, 0, 81, 0
2, 24330, Note_on_c, 0, 78, 90
2, 24344, Note_on_c, 0, 78, 0
2, 24345, Note_on_c, 0, 79, 90
2, 24359, Note_on_c, 0, 79, 0
2, 24360, Note_on_c, 0, 81, 90
2, 24389, Note_on_c, 0, 81, 0
2, 24390, Note_on_c, 0, 83, 90
2, 24404, Note_on_c, 0, 83, 0
2, 24405, Note_on_c, 0, 81, 90
2, 24419, Note_on_c, 0, 81, 0
2, 24420, Note_on_c, 0, 79, 90
2, 24449, Note_on_c, 0, 79, 0
2, 24450, Note_on_c, 0, 81, 90
2, 24464, Note_on_c, 0, 81, 0
2, 24465, Note_on_c, 0, 79, 90
2, 24479, Note_on_c, 0, 79, 0
2, 24480, Note_on_c, 0, 78, 90
2, 24659, Note_on_c, 0, 78, 0
2, 30420, Note_on_c, 0, 66, 90
2, 30449, Note_on_c, 0, 66, 0
2, 30450, Note_on_c, 0, 66, 90
2, 30479, Note_on_c, 0, 66, 0
2, 30480, Note_on_c, 0, 66, 90
2, 30509, Note_on_c, 0, 66, 0
2, 30510, Note_on_c, 0, 66, 90
2, 30539, Note_on_c, 0, 66, 0
2, 30540, Note_on_c, 0, 66, 90
2, 30569, Note_on_c, 0, 66, 0
2, 30570, Note_on_c, 0, 66, 90
2, 30599, Note_on_c, 0, 66, 0
2, 30600, Note_on_c, 0, 66, 90
2, 30629, Note_on_c, 0, 66, 0
2, 30630, Note_on_c, 0, 66, 90
2, 30659, Note_on_c, 0, 66, 0
2, 30660, Note_on_c, 0, 66, 90
2, 30689, Note_on_c, 0, 66, 0
2, 30690, Note_on_c, 0, 66, 90
2, 30719, Note_on_c, 0, 66, 0
2, 30720, Note_on_c, 0, 66, 90
2, 30749, Note_on_c, 0, 66, 0
2, 30750, Note_on_c, 0, 66, 90
2, 30779, Note_on_c, 0, 66, 0
2, 30780, Note_on_c, 0, 66, 90
2, 30809, Note_on_c, 0, 66, 0
2, 30810, Note_on_c, 0, 66, 90
2, 30839, Note_on_c, 0, 66, 0
2, 30840, Note_on_c, 0, 66, 90
2, 30869, Note_on_c, 0, 66, 0
2, 30870, Note_on_c, 0, 66, 90
2, 30899, Note_on_c, 0, 66, 0
2, 30900, Note_on_c, 0, 66, 90
2, 30929, Note_on_c, 0, 66, 0
2, 30930, Note_on_c, 0, 66, 90
2, 30959, Note_on_c, 0, 66, 0
2, 30960, Note_on_c, 0, 66, 90
2, 30989, Note_on_c, 0, 66, 0
2, 30990, Note_on_c, 0, 66, 90
2, 31019, Note_on_c, 0, 66, 0
2, 31020, Note_on_c, 0, 66, 90
2, 31049, Note_on_c, 0, 66, 0
2, 31050, Note_on_c, 0, 66, 90
2, 31079, Note_on_c, 0, 66, 0
2, 31080, Note_on_c, 0, 66, 90
2, 31139, Note_on_c, 0, 66, 0
2, 36302, Control_c, 0, 91, 92
2, 37020, Note_on_c, 0, 62, 90
2, 37049, Note_on_c, 0, 62, 0
2, 37050, Note_on_c, 0, 62, 90
2, 37064, Note_on_c, 0, 62, 0
2, 37065, Note_on_c, 0, 62, 90
2, 37079, Note_on_c, 0, 62, 0
2, 37080, Note_on_c, 0, 66, 90
2, 37109, Note_on_c, 0, 66, 0
2, 37110, Note_on_c, 0, 62, 90
2, 37139, Note_on_c, 0, 62, 0
2, 37140, Note_on_c, 0, 66, 90
2, 37169, Note_on_c, 0, 66, 0
2, 37170, Note_on_c, 0, 69, 90
2, 37199, Note_on_c, 0, 69, 0
2, 37200, Note_on_c, 0, 74, 90
2, 37229, Note_on_c, 0, 74, 0
2, 37230, Note_on_c, 0, 69, 90
2, 37259, Note_on_c, 0, 69, 0
2, 37260, Note_on_c, 0, 74, 90
2, 37289, Note_on_c, 0, 74, 0
2, 37290, Note_on_c, 0, 78, 90
2, 37319, Note_on_c, 0, 78, 0
2, 37320, Note_on_c, 0, 74, 90
2, 37349, Note_on_c, 0, 74, 0
2, 37350, Note_on_c, 0, 78, 90
2, 37379, Note_on_c, 0, 78, 0
2, 37380, Note_on_c, 0, 81, 90
2, 37439, Note_on_c, 0, 81, 0
2, 37560, Note_on_c, 0, 78, 90
2, 37619, Note_on_c, 0, 78, 0
2, 37740, Note_on_c, 0, 74, 90
2, 37799, Note_on_c, 0, 74, 0
2, 38040, Note_on_c, 0, 76, 90
2, 38069, Note_on_c, 0, 76, 0
2, 38070, Note_on_c, 0, 78, 90
2, 38099, Note_on_c, 0, 78, 0
2, 38100, Note_on_c, 0, 79, 90
2, 38129, Note_on_c, 0, 79, 0
2, 38160, Note_on_c, 0, 79, 90
2, 38189, Note_on_c, 0, 79, 0
2, 38220, Note_on_c, 0, 79, 90
2, 38249, Note_on_c, 0, 79, 0
2, 38280, Note_on_c, 0, 79, 90
2, 38339, Note_on_c, 0, 79, 0
2, 38340, Note_on_c, 0, 78, 90
2, 38369, Note_on_c, 0, 78, 0
2, 38370, Note_on_c, 0, 76, 90
2, 38399, Note_on_c, 0, 76, 0
2, 38400, Note_on_c, 0, 78, 90
2, 38459, Note_on_c, 0, 78, 0
2, 38760, Note_on_c, 0, 79, 90
2, 38819, Note_on_c, 0, 79, 0
2, 38820, Note_on_c, 0, 78, 90
2, 38849, Note_on_c, 0, 78, 0
2, 38850, Note_on_c, 0, 80, 90
2, 38879, Note_on_c, 0, 80, 0
2, 38880, Note_on_c, 0, 81, 90
2, 38894, Note_on_c, 0, 81, 0
2, 38895, Note_on_c, 0, 80, 90
2, 38909, Note_on_c, 0, 80, 0
2, 38910, Note_on_c, 0, 81, 90
2, 38924, Note_on_c, 0, 81, 0
2, 38925, Note_on_c, 0, 80, 90
2, 38939, Note_on_c, 0, 80, 0
2, 38940, Note_on_c, 0, 81, 90
2, 38954, Note_on_c, 0, 81, 0
2, 38955, Note_on_c, 0, 80, 90
2, 38969, Note_on_c, 0, 80, 0
2, 38970, Note_on_c, 0, 78, 90
2, 38984, Note_on_c, 0, 78, 0
2, 38985, Note_on_c, 0, 80, 90
2, 38999, Note_on_c, 0, 80, 0
2, 39000, Note_on_c, 0, 81, 90
2, 39119, Note_on_c, 0, 81, 0
2, 40590, Note_on_c, 0, 74, 90
2, 40604, Note_on_c, 0, 74, 0
2, 40605, Note_on_c, 0, 76, 90
2, 40619, Note_on_c, 0, 76, 0
2, 40620, Note_on_c, 0, 78, 90
2, 40649, Note_on_c, 0, 78, 0
2, 40650, Note_on_c, 0, 76, 90
2, 40664, Note_on_c, 0, 76, 0
2, 40665, Note_on_c, 0, 78, 90
2, 40679, Note_on_c, 0, 78, 0
2, 40680, Note_on_c, 0, 80, 90
2, 40709, Note_on_c, 0, 80, 0
2, 40710, Note_on_c, 0, 78, 90
2, 40724, Note_on_c, 0, 78, 0
2, 40725, Note_on_c, 0, 80, 90
2, 40739, Note_on_c, 0, 80, 0
2, 40740, Note_on_c, 0, 81, 90
2, 40769, Note_on_c, 0, 81, 0
2, 40770, Note_on_c, 0, 80, 90
2, 40784, Note_on_c, 0, 80, 0
2, 40785, Note_on_c, 0, 81, 90
2, 40799, Note_on_c, 0, 81, 0
2, 40800, Note_on_c, 0, 83, 90
2, 40859, Note_on_c, 0, 83, 0
2, 40860, Note_on_c, 0, 76, 90
2, 41009, Note_on_c, 0, 76, 0
2, 41010, Note_on_c, 0, 74, 90
2, 41024, Note_on_c, 0, 74, 0
2, 41025, Note_on_c, 0, 76, 90
2, 41039, Note_on_c, 0, 76, 0
2, 41040, Note_on_c, 0, 78, 90
2, 41069, Note_on_c, 0, 78, 0
2, 41070, Note_on_c, 0, 76, 90
2, 41084, Note_on_c, 0, 76, 0
2, 41085, Note_on_c, 0, 78, 90
2, 41099, Note_on_c, 0, 78, 0
2, 41100, Note_on_c, 0, 79, 90
2, 41129, Note_on_c, 0, 79, 0
2, 41130, Note_on_c, 0, 78, 90
2, 41144, Note_on_c, 0, 78, 0
2, 41145, Note_on_c, 0, 79, 90
2, 41159, Note_on_c, 0, 79, 0
2, 41160, Note_on_c, 0, 81, 90
2, 41219, Note_on_c, 0, 81, 0
2, 41220, Note_on_c, 0, 74, 90
2, 41369, Note_on_c, 0, 74, 0
2, 41370, Note_on_c, 0, 73, 90
2, 41384, Note_on_c, 0, 73, 0
2, 41385, Note_on_c, 0, 74, 90
2, 41399, Note_on_c, 0, 74, 0
2, 41400, Note_on_c, 0, 76, 90
2, 41429, Note_on_c, 0, 76, 0
2, 41430, Note_on_c, 0, 74, 90
2, 41444, Note_on_c, 0, 74, 0
2, 41445, Note_on_c, 0, 76, 90
2, 41459, Note_on_c, 0, 76, 0
2, 41460, Note_on_c, 0, 78, 90
2, 41489, Note_on_c, 0, 78, 0
2, 41490, Note_on_c, 0, 76, 90
2, 41504, Note_on_c, 0, 76, 0
2, 41505, Note_on_c, 0, 78, 90
2, 41519, Note_on_c, 0, 78, 0
2, 41520, Note_on_c, 0, 79, 90
2, 41579, Note_on_c, 0, 79, 0
2, 41580, Note_on_c, 0, 83, 90
2, 41609, Note_on_c, 0, 83, 0
2, 41610, Note_on_c, 0, 81, 90
2, 41639, Note_on_c, 0, 81, 0
2, 41640, Note_on_c, 0, 79, 90
2, 41699, Note_on_c, 0, 79, 0
2, 41700, Note_on_c, 0, 79, 90
2, 41879, Note_on_c, 0, 79, 0
2, 41910, Note_on_c, 0, 78, 90
2, 41924, Note_on_c, 0, 78, 0
2, 41925, Note_on_c, 0, 79, 90
2, 41939, Note_on_c, 0, 79, 0
2, 41940, Note_on_c, 0, 81, 90
2, 41969, Note_on_c, 0, 81, 0
2, 41970, Note_on_c, 0, 83, 90
2, 41984, Note_on_c, 0, 83, 0
2, 41985, Note_on_c, 0, 81, 90
2, 41999, Note_on_c, 0, 81, 0
2, 42000, Note_on_c, 0, 79, 90
2, 42029, Note_on_c, 0, 79, 0
2, 42030, Note_on_c, 0, 81, 90
2, 42044, Note_on_c, 0, 81, 0
2, 42045, Note_on_c, 0, 79, 90
2, 42059, Note_on_c, 0, 79, 0
2, 42060, Note_on_c, 0, 78, 90
2, 42119, Note_on_c, 0, 78, 0
2, 43140, Note_on_c, 0, 62, 90
2, 43169, Note_on_c, 0, 62, 0
2, 43170, Note_on_c, 0, 62, 90
2, 43184, Note_on_c, 0, 62, 0
2, 43185, Note_on_c, 0, 62, 90
2, 43199, Note_on_c, 0, 62, 0
2, 43200, Note_on_c, 0, 66, 90
2, 43229, Note_on_c, 0, 66, 0
2, 43230, Note_on_c, 0, 62, 90
2, 43259, Note_on_c, 0, 62, 0
2, 43260, Note_on_c, 0, 66, 90
2, 43289, Note_on_c, 0, 66, 0
2, 43290, Note_on_c, 0, 69, 90
2, 43319, Note_on_c, 0, 69, 0
2, 43320, Note_on_c, 0, 74, 90
2, 43349, Note_on_c, 0, 74, 0
2, 43350, Note_on_c, 0, 69, 90
2, 43379, Note_on_c, 0, 69, 0
2, 43380, Note_on_c, 0, 74, 90
2, 43409, Note_on_c, 0, 74, 0
2, 43410, Note_on_c, 0, 78, 90
2, 43439, Note_on_c, 0, 78, 0
2, 43440, Note_on_c, 0, 74, 90
2, 43469, Note_on_c, 0, 74, 0
2, 43470, Note_on_c, 0, 78, 90
2, 43499, Note_on_c, 0, 78, 0
2, 43500, Note_on_c, 0, 81, 90
2, 43559, Note_on_c, 0, 81, 0
2, 43680, Note_on_c, 0, 78, 90
2, 43739, Note_on_c, 0, 78, 0
2, 43860, Note_on_c, 0, 74, 90
2, 43919, Note_on_c, 0, 74, 0
2, 44160, Note_on_c, 0, 76, 90
2, 44189, Note_on_c, 0, 76, 0
2, 44190, Note_on_c, 0, 78, 90
2, 44219, Note_on_c, 0, 78, 0
2, 44220, Note_on_c, 0, 79, 90
2, 44249, Note_on_c, 0, 79, 0
2, 44280, Note_on_c, 0, 79, 90
2, 44309, Note_on_c, 0, 79, 0
2, 44340, Note_on_c, 0, 79, 90
2, 44369, Note_on_c, 0, 79, 0
2, 44400, Note_on_c, 0, 79, 90
2, 44459, Note_on_c, 0, 79, 0
2, 44460, Note_on_c, 0, 78, 90
2, 44489, Note_on_c, 0, 78, 0
2, 44490, Note_on_c, 0, 76, 90
2, 44519, Note_on_c, 0, 76, 0
2, 44520, Note_on_c, 0, 78, 90
2, 44579, Note_on_c, 0, 78, 0
2, 44880, Note_on_c, 0, 79, 90
2, 44939, Note_on_c, 0, 79, 0
2, 44940, Note_on_c, 0, 78, 90
2, 44969, Note_on_c, 0, 78, 0
2, 44970, Note_on_c, 0, 80, 90
2, 44999, Note_on_c, 0, 80, 0
2, 45000, Note_on_c, 0, 81, 90
2, 45014, Note_on_c, 0, 81, 0
2, 45015, Note_on_c, 0, 80, 90
2, 45029, Note_on_c, 0, 80, 0
2, 45030, Note_on_c, 0, 81, 90
2, 45044, Note_on_c, 0, 81, 0
2, 45045, Note_on_c, 0, 80, 90
2, 45059, Note_on_c, 0, 80, 0
2, 45060, Note_on_c, 0, 81, 90
2, 45074, Note_on_c, 0, 81, 0
2, 45075, Note_on_c, 0, 80, 90
2, 45089, Note_on_c, 0, 80, 0
2, 45090, Note_on_c, 0, 78, 90
2, 45104, Note_on_c, 0, 78, 0
2, 45105, Note_on_c, 0, 80, 90
2, 45119, Note_on_c, 0, 80, 0
2, 45120, Note_on_c, 0, 81, 90
2, 45239, Note_on_c, 0, 81, 0
2, 50700, Note_on_c, 0, 85, 90
2, 50729, Note_on_c, 0, 85, 0
2, 50760, Note_on_c, 0, 85, 90
2, 50789, Note_on_c, 0, 85, 0
2, 50820, Note_on_c, 0, 85, 90
2, 50849, Note_on_c, 0, 85, 0
2, 50880, Note_on_c, 0, 85, 90
2, 50939, Note_on_c, 0, 85, 0
2, 50940, Note_on_c, 0, 83, 90
2, 50969, Note_on_c, 0, 83, 0
2, 50970, Note_on_c, 0, 81, 90
2, 50999, Note_on_c, 0, 81, 0
2, 51000, Note_on_c, 0, 83, 90
2, 51059, Note_on_c, 0, 83, 0
2, 51720, Note_on_c, 0, 78, 90
2, 51749, Note_on_c, 0, 78, 0
2, 51750, Note_on_c, 0, 79, 90
2, 51779, Note_on_c, 0, 79, 0
2, 51780, Note_on_c, 0, 81, 90
2, 51839, Note_on_c, 0, 81, 0
2, 51840, Note_on_c, 0, 83, 90
2, 51869, Note_on_c, 0, 83, 0
2, 51870, Note_on_c, 0, 81, 90
2, 51899, Note_on_c, 0, 81, 0
2, 51900, Note_on_c, 0, 79, 90
2, 51929, Note_on_c, 0, 79, 0
2, 51930, Note_on_c, 0, 78, 90
2, 51959, Note_on_c, 0, 78, 0
2, 51960, Note_on_c, 0, 76, 90
2, 52019, Note_on_c, 0, 76, 0
2, 52020, Note_on_c, 0, 81, 90
2, 52049, Note_on_c, 0, 81, 0
2, 52050, Note_on_c, 0, 83, 90
2, 52079, Note_on_c, 0, 83, 0
2, 52080, Note_on_c, 0, 81, 90
2, 52109, Note_on_c, 0, 81, 0
2, 52110, Note_on_c, 0, 79, 90
2, 52139, Note_on_c, 0, 79, 0
2, 52140, Note_on_c, 0, 78, 90
2, 52169, Note_on_c, 0, 78, 0
2, 52170, Note_on_c, 0, 79, 90
2, 52199, Note_on_c, 0, 79, 0
2, 52200, Note_on_c, 0, 81, 90
2, 52229, Note_on_c, 0, 81, 0
2, 52230, Note_on_c, 0, 79, 90
2, 52259, Note_on_c, 0, 79, 0
2, 52260, Note_on_c, 0, 78, 90
2, 52289, Note_on_c, 0, 78, 0
2, 52290, Note_on_c, 0, 76, 90
2, 52319, Note_on_c, 0, 76, 0
2, 52320, Note_on_c, 0, 74, 90
2, 52379, Note_on_c, 0, 74, 0
2, 53220, Note_on_c, 0, 62, 90
2, 53249, Note_on_c, 0, 62, 0
2, 53250, Note_on_c, 0, 62, 90
2, 53264, Note_on_c, 0, 62, 0
2, 53265, Note_on_c, 0, 62, 90
2, 53279, Note_on_c, 0, 62, 0
2, 53280, Note_on_c, 0, 66, 90
2, 53309, Note_on_c, 0, 66, 0
2, 53310, Note_on_c, 0, 62, 90
2, 53339, Note_on_c, 0, 62, 0
2, 53340, Note_on_c, 0, 66, 90
2, 53369, Note_on_c, 0, 66, 0
2, 53370, Note_on_c, 0, 69, 90
2, 53399, Note_on_c, 0, 69, 0
2, 53400, Note_on_c, 0, 74, 90
2, 53429, Note_on_c, 0, 74, 0
2, 53430, Note_on_c, 0, 69, 90
2, 53459, Note_on_c, 0, 69, 0
2, 53460, Note_on_c, 0, 74, 90
2, 53489, Note_on_c, 0, 74, 0
2, 53490, Note_on_c, 0, 78, 90
2, 53519, Note_on_c, 0, 78, 0
2, 53520, Note_on_c, 0, 74, 90
2, 53549, Note_on_c, 0, 74, 0
2, 53550, Note_on_c, 0, 78, 90
2, 53579, Note_on_c, 0, 78, 0
2, 53580, Note_on_c, 0, 81, 90
2, 53639, Note_on_c, 0, 81, 0
2, 53760, Note_on_c, 0, 78, 90
2, 53819, Note_on_c, 0, 78, 0
2, 53940, Note_on_c, 0, 74, 90
2, 53999, Note_on_c, 0, 74, 0
2, 54240, Note_on_c, 0, 76, 90
2, 54269, Note_on_c, 0, 76, 0
2, 54270, Note_on_c, 0, 78, 90
2, 54299, Note_on_c, 0, 78, 0
2, 54300, Note_on_c, 0, 79, 90
2, 54329, Note_on_c, 0, 79, 0
2, 54360, Note_on_c, 0, 79, 90
2, 54389, Note_on_c, 0, 79, 0
2, 54420, Note_on_c, 0, 79, 90
2, 54449, Note_on_c, 0, 79, 0
2, 54480, Note_on_c, 0, 79, 90
2, 54539, Note_on_c, 0, 79, 0
2, 54540, Note_on_c, 0, 78, 90
2, 54569, Note_on_c, 0, 78, 0
2, 54570, Note_on_c, 0, 76, 90
2, 54599, Note_on_c, 0, 76, 0
2, 54600, Note_on_c, 0, 78, 90
2, 54659, Note_on_c, 0, 78, 0
2, 54960, Note_on_c, 0, 79, 90
2, 55019, Note_on_c, 0, 79, 0
2, 55020, Note_on_c, 0, 78, 90
2, 55049, Note_on_c, 0, 78, 0
2, 55050, Note_on_c, 0, 80, 90
2, 55079, Note_on_c, 0, 80, 0
2, 55080, Note_on_c, 0, 81, 90
2, 55094, Note_on_c, 0, 81, 0
2, 55095, Note_on_c, 0, 80, 90
2, 55109, Note_on_c, 0, 80, 0
2, 55110, Note_on_c, 0, 81, 90
2, 55124, Note_on_c, 0, 81, 0
2, 55125, Note_on_c, 0, 80, 90
2, 55139, Note_on_c, 0, 80, 0
2, 55140, Note_on_c, 0, 81, 90
2, 55154, Note_on_c, 0, 81, 0
2, 55155, Note_on_c, 0, 80, 90
2, 55169, Note_on_c, 0, 80, 0
2, 55170, Note_on_c, 0, 78, 90
2, 55184, Note_on_c, 0, 78, 0
2, 55185, Note_on_c, 0, 80, 90
2, 55199, Note_on_c, 0, 80, 0
2, 55200, Note_on_c, 0, 81, 90
2, 55319, Note_on_c, 0, 81, 0
2, 57600, Note_on_c, 0, 78, 90
2, 57629, Note_on_c, 0, 78, 0
2, 57630, Note_on_c, 0, 80, 90
2, 57659, Note_on_c, 0, 80, 0
2, 57660, Note_on_c, 0, 81, 90
2, 57674, Note_on_c, 0, 81, 0
2, 57675, Note_on_c, 0, 80, 90
2, 57689, Note_on_c, 0, 80, 0
2, 57690, Note_on_c, 0, 78, 90
2, 57704, Note_on_c, 0, 78, 0
2, 57705, Note_on_c, 0, 80, 90
2, 57719, Note_on_c, 0, 80, 0
2, 57720, Note_on_c, 0, 81, 90
2, 57779, Note_on_c, 0, 81, 0
2, 59310, Note_on_c, 0, 74, 90
2, 59324, Note_on_c, 0, 74, 0
2, 59325, Note_on_c, 0, 76, 90
2, 59339, Note_on_c, 0, 76, 0
2, 59340, Note_on_c, 0, 78, 90
2, 59369, Note_on_c, 0, 78, 0
2, 59370, Note_on_c, 0, 76, 90
2, 59384, Note_on_c, 0, 76, 0
2, 59385, Note_on_c, 0, 78, 90
2, 59399, Note_on_c, 0, 78, 0
2, 59400, Note_on_c, 0, 80, 90
2, 59429, Note_on_c, 0, 80, 0
2, 59430, Note_on_c, 0, 78, 90
2, 59444, Note_on_c, 0, 78, 0
2, 59445, Note_on_c, 0, 80, 90
2, 59459, Note_on_c, 0, 80, 0
2, 59460, Note_on_c, 0, 81, 90
2, 59489, Note_on_c, 0, 81, 0
2, 59490, Note_on_c, 0, 80, 90
2, 59504, Note_on_c, 0, 80, 0
2, 59505, Note_on_c, 0, 81, 90
2, 59519, Note_on_c, 0, 81, 0
2, 59520, Note_on_c, 0, 83, 90
2, 59579, Note_on_c, 0, 83, 0
2, 59580, Note_on_c, 0, 76, 90
2, 59729, Note_on_c, 0, 76, 0
2, 59730, Note_on_c, 0, 74, 90
2, 59744, Note_on_c, 0, 74, 0
2, 59745, Note_on_c, 0, 76, 90
2, 59759, Note_on_c, 0, 76, 0
2, 59760, Note_on_c, 0, 78, 90
2, 59789, Note_on_c, 0, 78, 0
2, 59790, Note_on_c, 0, 76, 90
2, 59804, Note_on_c, 0, 76, 0
2, 59805, Note_on_c, 0, 78, 90
2, 59819, Note_on_c, 0, 78, 0
2, 59820, Note_on_c, 0, 79, 90
2, 59849, Note_on_c, 0, 79, 0
2, 59850, Note_on_c, 0, 78, 90
2, 59864, Note_on_c, 0, 78, 0
2, 59865, Note_on_c, 0, 79, 90
2, 59879, Note_on_c, 0, 79, 0
2, 59880, Note_on_c, 0, 81, 90
2, 59939, Note_on_c, 0, 81, 0
2, 59940, Note_on_c, 0, 74, 90
2, 60089, Note_on_c, 0, 74, 0
2, 60090, Note_on_c, 0, 73, 90
2, 60104, Note_on_c, 0, 73, 0
2, 60105, Note_on_c, 0, 74, 90
2, 60119, Note_on_c, 0, 74, 0
2, 60120, Note_on_c, 0, 76, 90
2, 60149, Note_on_c, 0, 76, 0
2, 60150, Note_on_c, 0, 74, 90
2, 60164, Note_on_c, 0, 74, 0
2, 60165, Note_on_c, 0, 76, 90
2, 60179, Note_on_c, 0, 76, 0
2, 60180, Note_on_c, 0, 78, 90
2, 60209, Note_on_c, 0, 78, 0
2, 60210, Note_on_c, 0, 76, 90
2, 60224, Note_on_c, 0, 76, 0
2, 60225, Note_on_c, 0, 78, 90
2, 60239, Note_on_c, 0, 78, 0
2, 60240, Note_on_c, 0, 79, 90
2, 60299, Note_on_c, 0, 79, 0
2, 60300, Note_on_c, 0, 83, 90
2, 60329, Note_on_c, 0, 83, 0
2, 60330, Note_on_c, 0, 81, 90
2, 60359, Note_on_c, 0, 81, 0
2, 60360, Note_on_c, 0, 79, 90
2, 60419, Note_on_c, 0, 79, 0
2, 60420, Note_on_c, 0, 81, 90
2, 60435, Note_on_c, 0, 81, 0
2, 60435, Note_on_c, 0, 79, 90
2, 60450, Note_on_c, 0, 79, 0
2, 60450, Note_on_c, 0, 81, 90
2, 60460, Note_on_c, 0, 81, 0
2, 60460, Note_on_c, 0, 79, 90
2, 60470, Note_on_c, 0, 79, 0
2, 60470, Note_on_c, 0, 81, 90
2, 60480, Note_on_c, 0, 81, 0
2, 60480, Note_on_c, 0, 79, 90
2, 60490, Note_on_c, 0, 79, 0
2, 60490, Note_on_c, 0, 81, 90
2, 60500, Note_on_c, 0, 81, 0
2, 60500, Note_on_c, 0, 79, 90
2, 60510, Note_on_c, 0, 79, 0
2, 60510, Note_on_c, 0, 81, 90
2, 60520, Note_on_c, 0, 81, 0
2, 60520, Note_on_c, 0, 79, 90
2, 60530, Note_on_c, 0, 79, 0
2, 60530, Note_on_c, 0, 81, 90
2, 60540, Note_on_c, 0, 81, 0
2, 60540, Note_on_c, 0, 79, 90
2, 60550, Note_on_c, 0, 79, 0
2, 60550, Note_on_c, 0, 81, 90
2, 60560, Note_on_c, 0, 81, 0
2, 60560, Note_on_c, 0, 79, 90
2, 60570, Note_on_c, 0, 79, 0
2, 60570, Note_on_c, 0, 81, 90
2, 60580, Note_on_c, 0, 81, 0
2, 60580, Note_on_c, 0, 79, 90
2, 60590, Note_on_c, 0, 79, 0
2, 60590, Note_on_c, 0, 81, 90
2, 60600, Note_on_c, 0, 81, 0
2, 60630, Note_on_c, 0, 78, 90
2, 60644, Note_on_c, 0, 78, 0
2, 60645, Note_on_c, 0, 79, 90
2, 60659, Note_on_c, 0, 79, 0
2, 60660, Note_on_c, 0, 81, 90
2, 60689, Note_on_c, 0, 81, 0
2, 60690, Note_on_c, 0, 83, 90
2, 60704, Note_on_c, 0, 83, 0
2, 60705, Note_on_c, 0, 81, 90
2, 60719, Note_on_c, 0, 81, 0
2, 60720, Note_on_c, 0, 79, 90
2, 60749, Note_on_c, 0, 79, 0
2, 60750, Note_on_c, 0, 81, 90
2, 60764, Note_on_c, 0, 81, 0
2, 60765, Note_on_c, 0, 79, 90
2, 60779, Note_on_c, 0, 79, 0
2, 60780, Note_on_c, 0, 78, 90
2, 60959, Note_on_c, 0, 78, 0
2, 151620, Note_on_c, 0, 74, 90
2, 151620, Control_c, 0, 91, 114
2, 151650, Note_on_c, 0, 74, 0
2, 151740, Note_on_c, 0, 69, 90
2, 151770, Note_on_c, 0, 69, 0
2, 151860, Note_on_c, 0, 66, 90
2, 151890, Note_on_c, 0, 66, 0
2, 151980, Note_on_c, 0, 69, 90
2, 152010, Note_on_c, 0, 69, 0
2, 152100, Note_on_c, 0, 74, 90
2, 152129, Note_on_c, 0, 74, 0
2, 152130, Note_on_c, 0, 76, 90
2, 152159, Note_on_c, 0, 76, 0
2, 152160, Note_on_c, 0, 78, 90
2, 152279, Note_on_c, 0, 78, 0
2, 152280, Note_on_c, 0, 76, 90
2, 152339, Note_on_c, 0, 76, 0
2, 152340, Note_on_c, 0, 78, 90
2, 152399, Note_on_c, 0, 78, 0
2, 152400, Note_on_c, 0, 81, 90
2, 152429, Note_on_c, 0, 81, 0
2, 152430, Note_on_c, 0, 79, 90
2, 152459, Note_on_c, 0, 79, 0
2, 152460, Note_on_c, 0, 81, 90
2, 152489, Note_on_c, 0, 81, 0
2, 152490, Note_on_c, 0, 79, 90
2, 152519, Note_on_c, 0, 79, 0
2, 152520, Note_on_c, 0, 78, 90
2, 152549, Note_on_c, 0, 78, 0
2, 152550, Note_on_c, 0, 76, 90
2, 152579, Note_on_c, 0, 76, 0
2, 152580, Note_on_c, 0, 74, 90
2, 152639, Note_on_c, 0, 74, 0
2, 152640, Note_on_c, 0, 69, 90
2, 152759, Note_on_c, 0, 69, 0
2, 152760, Note_on_c, 0, 66, 90
2, 152879, Note_on_c, 0, 66, 0
2, 152880, Note_on_c, 0, 69, 90
2, 152999, Note_on_c, 0, 69, 0
2, 153000, Note_on_c, 0, 74, 90
2, 153089, Note_on_c, 0, 74, 0
2, 153090, Note_on_c, 0, 76, 90
2, 153119, Note_on_c, 0, 76, 0
2, 153120, Note_on_c, 0, 78, 90
2, 153239, Note_on_c, 0, 78, 0
2, 153240, Note_on_c, 0, 76, 90
2, 153299, Note_on_c, 0, 76, 0
2, 153300, Note_on_c, 0, 78, 90
2, 153359, Note_on_c, 0, 78, 0
2, 153360, Note_on_c, 0, 81, 90
2, 153479, Note_on_c, 0, 81, 0
2, 153480, Note_on_c, 0, 86, 90
2, 153539, Note_on_c, 0, 86, 0
2, 153540, Note_on_c, 0, 83, 90
2, 153599, Note_on_c, 0, 83, 0
2, 153600, Note_on_c, 0, 79, 90
2, 153719, Note_on_c, 0, 79, 0
2, 153720, Note_on_c, 0, 83, 90
2, 153779, Note_on_c, 0, 83, 0
2, 153780, Note_on_c, 0, 81, 90
2, 153839, Note_on_c, 0, 81, 0
2, 153840, Note_on_c, 0, 78, 90
2, 153959, Note_on_c, 0, 78, 0
2, 153960, Note_on_c, 0, 81, 90
2, 154019, Note_on_c, 0, 81, 0
2, 154020, Note_on_c, 0, 79, 90
2, 154050, Note_on_c, 0, 79, 0
2, 154140, Note_on_c, 0, 78, 90
2, 154170, Note_on_c, 0, 78, 0
2, 154260, Note_on_c, 0, 76, 90
2, 154319, Note_on_c, 0, 76, 0
2, 154320, Note_on_c, 0, 81, 90
2, 154439, Note_on_c, 0, 81, 0
2, 154440, Note_on_c, 0, 79, 90
2, 154499, Note_on_c, 0, 79, 0
2, 154500, Note_on_c, 0, 78, 90
2, 154559, Note_on_c, 0, 78, 0
2, 154560, Note_on_c, 0, 76, 90
2, 154589, Note_on_c, 0, 76, 0
2, 154590, Note_on_c, 0, 78, 90
2, 154619, Note_on_c, 0, 78, 0
2, 154620, Note_on_c, 0, 79, 90
2, 154679, Note_on_c, 0, 79, 0
2, 154680, Note_on_c, 0, 78, 90
2, 154739, Note_on_c, 0, 78, 0
2, 154740, Note_on_c, 0, 76, 90
2, 154979, Note_on_c, 0, 76, 0
2, 155040, Note_on_c, 0, 62, 90
2, 155099, Note_on_c, 0, 62, 0
2, 155100, Note_on_c, 0, 66, 90
2, 155159, Note_on_c, 0, 66, 0
2, 155160, Note_on_c, 0, 69, 90
2, 155219, Note_on_c, 0, 69, 0
2, 155220, Note_on_c, 0, 74, 90
2, 155279, Note_on_c, 0, 74, 0
2, 155280, Note_on_c, 0, 69, 90
2, 155339, Note_on_c, 0, 69, 0
2, 155340, Note_on_c, 0, 74, 90
2, 155399, Note_on_c, 0, 74, 0
2, 155400, Note_on_c, 0, 69, 90
2, 155459, Note_on_c, 0, 69, 0
2, 155460, Note_on_c, 0, 66, 90
2, 155489, Note_on_c, 0, 66, 0
2, 155490, Note_on_c, 0, 62, 90
2, 155519, Note_on_c, 0, 62, 0
2, 155520, Note_on_c, 0, 69, 90
2, 155579, Note_on_c, 0, 69, 0
2, 155580, Note_on_c, 0, 69, 90
2, 155609, Note_on_c, 0, 69, 0
2, 155610, Note_on_c, 0, 66, 90
2, 155639, Note_on_c, 0, 66, 0
2, 155640, Note_on_c, 0, 69, 90
2, 155699, Note_on_c, 0, 69, 0
2, 155700, Note_on_c, 0, 69, 90
2, 155939, Note_on_c, 0, 69, 0
2, 156000, Note_on_c, 0, 62, 90
2, 156059, Note_on_c, 0, 62, 0
2, 156060, Note_on_c, 0, 66, 90
2, 156119, Note_on_c, 0, 66, 0
2, 156120, Note_on_c, 0, 69, 90
2, 156179, Note_on_c, 0, 69, 0
2, 156180, Note_on_c, 0, 74, 90
2, 156239, Note_on_c, 0, 74, 0
2, 156240, Note_on_c, 0, 69, 90
2, 156299, Note_on_c, 0, 69, 0
2, 156300, Note_on_c, 0, 74, 90
2, 156359, Note_on_c, 0, 74, 0
2, 156360, Note_on_c, 0, 69, 90
2, 156419, Note_on_c, 0, 69, 0
2, 156420, Note_on_c, 0, 66, 90
2, 156449, Note_on_c, 0, 66, 0
2, 156450, Note_on_c, 0, 62, 90
2, 156479, Note_on_c, 0, 62, 0
2, 156480, Note_on_c, 0, 69, 90
2, 156539, Note_on_c, 0, 69, 0
2, 156540, Note_on_c, 0, 69, 90
2, 156569, Note_on_c, 0, 69, 0
2, 156570, Note_on_c, 0, 66, 90
2, 156599, Note_on_c, 0, 66, 0
2, 156600, Note_on_c, 0, 69, 90
2, 156659, Note_on_c, 0, 69, 0
2, 156660, Note_on_c, 0, 69, 90
2, 156899, Note_on_c, 0, 69, 0
2, 157680, Note_on_c, 0, 69, 90
2, 157709, Note_on_c, 0, 69, 0
2, 157710, Note_on_c, 0, 69, 90
2, 157739, Note_on_c, 0, 69, 0
2, 157740, Note_on_c, 0, 69, 90
2, 157799, Note_on_c, 0, 69, 0
2, 157800, Note_on_c, 0, 69, 90
2, 157859, Note_on_c, 0, 69, 0
2, 157860, Note_on_c, 0, 69, 90
2, 157919, Note_on_c, 0, 69, 0
2, 157920, Note_on_c, 0, 69, 90
2, 157949, Note_on_c, 0, 69, 0
2, 157950, Note_on_c, 0, 69, 90
2, 157979, Note_on_c, 0, 69, 0
2, 157980, Note_on_c, 0, 69, 90
2, 158009, Note_on_c, 0, 69, 0
2, 158010, Note_on_c, 0, 69, 90
2, 158039, Note_on_c, 0, 69, 0
2, 158040, Note_on_c, 0, 69, 90
2, 158069, Note_on_c, 0, 69, 0
2, 158070, Note_on_c, 0, 69, 90
2, 158099, Note_on_c, 0, 69, 0
2, 158100, Note_on_c, 0, 69, 90
2, 158219, Note_on_c, 0, 69, 0
2, 159360, Note_on_c, 0, 62, 90
2, 159419, Note_on_c, 0, 62, 0
2, 159420, Note_on_c, 0, 66, 90
2, 159479, Note_on_c, 0, 66, 0
2, 159480, Note_on_c, 0, 69, 90
2, 159539, Note_on_c, 0, 69, 0
2, 159540, Note_on_c, 0, 74, 90
2, 159599, Note_on_c, 0, 74, 0
2, 159600, Note_on_c, 0, 69, 90
2, 159659, Note_on_c, 0, 69, 0
2, 159660, Note_on_c, 0, 66, 90
2, 159719, Note_on_c, 0, 66, 0
2, 159720, Note_on_c, 0, 62, 90
2, 159779, Note_on_c, 0, 62, 0
2, 159780, Note_on_c, 0, 62, 90
2, 159809, Note_on_c, 0, 62, 0
2, 159810, Note_on_c, 0, 57, 90
2, 159839, Note_on_c, 0, 57, 0
2, 159840, Note_on_c, 0, 62, 90
2, 159899, Note_on_c, 0, 62, 0
2, 159900, Note_on_c, 0, 62, 90
2, 159929, Note_on_c, 0, 62, 0
2, 159930, Note_on_c, 0, 57, 90
2, 159959, Note_on_c, 0, 57, 0
2, 159960, Note_on_c, 0, 62, 90
2, 160019, Note_on_c, 0, 62, 0
2, 160020, Note_on_c, 0, 62, 90
2, 160259, Note_on_c, 0, 62, 0
2, 161520, Note_on_c, 0, 79, 90
2, 161639, Note_on_c, 0, 79, 0
2, 161640, Note_on_c, 0, 76, 90
2, 161699, Note_on_c, 0, 76, 0
2, 161700, Note_on_c, 0, 69, 90
2, 161759, Note_on_c, 0, 69, 0
2, 162000, Note_on_c, 0, 79, 90
2, 162119, Note_on_c, 0, 79, 0
2, 162120, Note_on_c, 0, 76, 90
2, 162179, Note_on_c, 0, 76, 0
2, 162180, Note_on_c, 0, 69, 90
2, 162239, Note_on_c, 0, 69, 0
2, 163440, Note_on_c, 0, 62, 90
2, 163499, Note_on_c, 0, 62, 0
2, 163500, Note_on_c, 0, 66, 90
2, 163559, Note_on_c, 0, 66, 0
2, 163560, Note_on_c, 0, 69, 90
2, 163619, Note_on_c, 0, 69, 0
2, 163620, Note_on_c, 0, 74, 90
2, 163679, Note_on_c, 0, 74, 0
2, 163680, Note_on_c, 0, 69, 90
2, 163739, Note_on_c, 0, 69, 0
2, 163740, Note_on_c, 0, 66, 90
2, 163769, Note_on_c, 0, 66, 0
2, 163770, Note_on_c, 0, 62, 90
2, 163799, Note_on_c, 0, 62, 0
2, 163800, Note_on_c, 0, 69, 90
2, 163859, Note_on_c, 0, 69, 0
2, 163860, Note_on_c, 0, 69, 90
2, 164009, Note_on_c, 0, 69, 0
2, 164010, Note_on_c, 0, 66, 90
2, 164039, Note_on_c, 0, 66, 0
2, 164040, Note_on_c, 0, 69, 90
2, 164099, Note_on_c, 0, 69, 0
2, 164100, Note_on_c, 0, 69, 90
2, 164339, Note_on_c, 0, 69, 0
2, 167460, Note_on_c, 0, 69, 90
2, 167519, Note_on_c, 0, 69, 0
2, 167580, Note_on_c, 0, 76, 90
2, 167639, Note_on_c, 0, 76, 0
2, 167700, Note_on_c, 0, 79, 90
2, 167879, Note_on_c, 0, 79, 0
2, 167880, Note_on_c, 0, 81, 90
2, 167909, Note_on_c, 0, 81, 0
2, 167910, Note_on_c, 0, 83, 90
2, 167939, Note_on_c, 0, 83, 0
2, 167940, Note_on_c, 0, 81, 90
2, 167969, Note_on_c, 0, 81, 0
2, 167970, Note_on_c, 0, 79, 90
2, 167999, Note_on_c, 0, 79, 0
2, 168000, Note_on_c, 0, 78, 90
2, 168029, Note_on_c, 0, 78, 0
2, 168030, Note_on_c, 0, 81, 90
2, 168059, Note_on_c, 0, 81, 0
2, 168060, Note_on_c, 0, 79, 90
2, 168089, Note_on_c, 0, 79, 0
2, 168090, Note_on_c, 0, 78, 90
2, 168119, Note_on_c, 0, 78, 0
2, 168120, Note_on_c, 0, 76, 90
2, 168149, Note_on_c, 0, 76, 0
2, 168150, Note_on_c, 0, 79, 90
2, 168179, Note_on_c, 0, 79, 0
2, 168180, Note_on_c, 0, 78, 90
2, 168209, Note_on_c, 0, 78, 0
2, 168210, Note_on_c, 0, 76, 90
2, 168239, Note_on_c, 0, 76, 0
2, 168240, Note_on_c, 0, 74, 90
2, 168329, Note_on_c, 0, 74, 0
2, 168330, Note_on_c, 0, 69, 90
2, 168359, Note_on_c, 0, 69, 0
2, 168360, Note_on_c, 0, 74, 90
2, 168389, Note_on_c, 0, 74, 0
2, 168390, Note_on_c, 0, 76, 90
2, 168419, Note_on_c, 0, 76, 0
2, 168420, Note_on_c, 0, 78, 90
2, 168449, Note_on_c, 0, 78, 0
2, 168450, Note_on_c, 0, 74, 90
2, 168479, Note_on_c, 0, 74, 0
2, 168480, Note_on_c, 0, 78, 90
2, 168509, Note_on_c, 0, 78, 0
2, 168510, Note_on_c, 0, 79, 90
2, 168539, Note_on_c, 0, 79, 0
2, 168540, Note_on_c, 0, 81, 90
2, 168569, Note_on_c, 0, 81, 0
2, 168570, Note_on_c, 0, 78, 90
2, 168599, Note_on_c, 0, 78, 0
2, 168600, Note_on_c, 0, 81, 90
2, 168629, Note_on_c, 0, 81, 0
2, 168630, Note_on_c, 0, 83, 90
2, 168659, Note_on_c, 0, 83, 0
2, 168660, Note_on_c, 0, 84, 90
2, 168719, Note_on_c, 0, 84, 0
2, 168720, Note_on_c, 0, 74, 90
2, 168839, Note_on_c, 0, 74, 0
2, 168840, Note_on_c, 0, 76, 90
2, 168869, Note_on_c, 0, 76, 0
2, 168870, Note_on_c, 0, 78, 90
2, 168899, Note_on_c, 0, 78, 0
2, 168900, Note_on_c, 0, 79, 90
2, 168929, Note_on_c, 0, 79, 0
2, 168930, Note_on_c, 0, 81, 90
2, 168959, Note_on_c, 0, 81, 0
2, 168960, Note_on_c, 0, 78, 90
2, 168989, Note_on_c, 0, 78, 0
2, 168990, Note_on_c, 0, 79, 90
2, 169019, Note_on_c, 0, 79, 0
2, 169020, Note_on_c, 0, 81, 90
2, 169049, Note_on_c, 0, 81, 0
2, 169050, Note_on_c, 0, 83, 90
2, 169079, Note_on_c, 0, 83, 0
2, 169080, Note_on_c, 0, 79, 90
2, 169109, Note_on_c, 0, 79, 0
2, 169110, Note_on_c, 0, 81, 90
2, 169139, Note_on_c, 0, 81, 0
2, 169140, Note_on_c, 0, 83, 90
2, 169169, Note_on_c, 0, 83, 0
2, 169170, Note_on_c, 0, 84, 90
2, 169199, Note_on_c, 0, 84, 0
2, 169200, Note_on_c, 0, 81, 90
2, 169229, Note_on_c, 0, 81, 0
2, 169230, Note_on_c, 0, 83, 90
2, 169259, Note_on_c, 0, 83, 0
2, 169260, Note_on_c, 0, 79, 90
2, 169319, Note_on_c, 0, 79, 0
2, 169320, Note_on_c, 0, 83, 90
2, 169379, Note_on_c, 0, 83, 0
2, 169380, Note_on_c, 0, 81, 90
2, 169439, Note_on_c, 0, 81, 0
2, 169440, Note_on_c, 0, 78, 90
2, 169559, Note_on_c, 0, 78, 0
2, 169560, Note_on_c, 0, 81, 90
2, 169619, Note_on_c, 0, 81, 0
2, 169620, Note_on_c, 0, 79, 90
2, 169679, Note_on_c, 0, 79, 0
2, 169680, Note_on_c, 0, 76, 90
2, 169799, Note_on_c, 0, 76, 0
2, 169800, Note_on_c, 0, 79, 90
2, 169859, Note_on_c, 0, 79, 0
2, 169860, Note_on_c, 0, 78, 90
2, 169919, Note_on_c, 0, 78, 0
2, 169980, Note_on_c, 0, 76, 90
2, 170039, Note_on_c, 0, 76, 0
2, 170100, Note_on_c, 0, 69, 90
2, 170159, Note_on_c, 0, 69, 0
2, 170160, Note_on_c, 0, 81, 90
2, 170279, Note_on_c, 0, 81, 0
2, 170280, Note_on_c, 0, 79, 90
2, 170339, Note_on_c, 0, 79, 0
2, 170340, Note_on_c, 0, 78, 90
2, 170369, Note_on_c, 0, 78, 0
2, 170370, Note_on_c, 0, 86, 90
2, 170399, Note_on_c, 0, 86, 0
2, 170400, Note_on_c, 0, 85, 90
2, 170429, Note_on_c, 0, 85, 0
2, 170430, Note_on_c, 0, 83, 90
2, 170459, Note_on_c, 0, 83, 0
2, 170460, Note_on_c, 0, 81, 90
2, 170489, Note_on_c, 0, 81, 0
2, 170490, Note_on_c, 0, 79, 90
2, 170519, Note_on_c, 0, 79, 0
2, 170520, Note_on_c, 0, 78, 90
2, 170549, Note_on_c, 0, 78, 0
2, 170550, Note_on_c, 0, 76, 90
2, 170579, Note_on_c, 0, 76, 0
2, 170580, Note_on_c, 0, 74, 90
2, 170819, Note_on_c, 0, 74, 0
2, 174540, Note_on_c, 0, 78, 90
2, 174660, Note_on_c, 0, 78, 0
2, 174660, Note_on_c, 0, 78, 90
2, 175680, Note_on_c, 0, 78, 0
2, 175680, Note_on_c, 0, 80, 90
2, 175799, Note_on_c, 0, 80, 0
2, 175800, Note_on_c, 0, 81, 90
2, 175919, Note_on_c, 0, 81, 0
2, 175920, Note_on_c, 0, 83, 90
2, 176039, Note_on_c, 0, 83, 0
2, 176040, Note_on_c, 0, 85, 90
2, 176099, Note_on_c, 0, 85, 0
2, 176100, Note_on_c, 0, 83, 90
2, 176129, Note_on_c, 0, 83, 0
2, 176130, Note_on_c, 0, 81, 90
2, 176159, Note_on_c, 0, 81, 0
2, 176160, Note_on_c, 0, 80, 90
2, 176189, Note_on_c, 0, 80, 0
2, 176190, Note_on_c, 0, 78, 90
2, 176219, Note_on_c, 0, 78, 0
2, 176220, Note_on_c, 0, 81, 90
2, 176279, Note_on_c, 0, 81, 0
2, 176280, Note_on_c, 0, 80, 90
2, 176339, Note_on_c, 0, 80, 0
2, 176340, Note_on_c, 0, 78, 90
2, 176579, Note_on_c, 0, 78, 0
2, 177360, Note_on_c, 0, 78, 90
2, 177419, Note_on_c, 0, 78, 0
2, 177420, Note_on_c, 0, 83, 90
2, 177479, Note_on_c, 0, 83, 0
2, 177480, Note_on_c, 0, 78, 90
2, 177539, Note_on_c, 0, 78, 0
2, 177540, Note_on_c, 0, 80, 90
2, 177599, Note_on_c, 0, 80, 0
2, 177660, Note_on_c, 0, 81, 90
2, 177719, Note_on_c, 0, 81, 0
2, 177780, Note_on_c, 0, 76, 90
2, 177839, Note_on_c, 0, 76, 0
2, 178320, Note_on_c, 0, 76, 90
2, 178379, Note_on_c, 0, 76, 0
2, 178380, Note_on_c, 0, 81, 90
2, 178439, Note_on_c, 0, 81, 0
2, 178440, Note_on_c, 0, 76, 90
2, 178499, Note_on_c, 0, 76, 0
2, 178500, Note_on_c, 0, 78, 90
2, 178559, Note_on_c, 0, 78, 0
2, 178620, Note_on_c, 0, 83, 90
2, 178679, Note_on_c, 0, 83, 0
2, 178740, Note_on_c, 0, 86, 90
2, 178799, Note_on_c, 0, 86, 0
2, 180420, Note_on_c, 0, 74, 90
2, 180420, Control_c, 0, 91, 114
2, 180450, Note_on_c, 0, 74, 0
2, 180540, Note_on_c, 0, 69, 90
2, 180570, Note_on_c, 0, 69, 0
2, 180660, Note_on_c, 0, 66, 90
2, 180690, Note_on_c, 0, 66, 0
2, 180780, Note_on_c, 0, 69, 90
2, 180810, Note_on_c, 0, 69, 0
2, 180900, Note_on_c, 0, 74, 90
2, 180929, Note_on_c, 0, 74, 0
2, 180930, Note_on_c, 0, 76, 90
2, 180959, Note_on_c, 0, 76, 0
2, 180960, Note_on_c, 0, 78, 90
2, 181079, Note_on_c, 0, 78, 0
2, 181080, Note_on_c, 0, 76, 90
2, 181139, Note_on_c, 0, 76, 0
2, 181140, Note_on_c, 0, 78, 90
2, 181199, Note_on_c, 0, 78, 0
2, 181200, Note_on_c, 0, 81, 90
2, 181229, Note_on_c, 0, 81, 0
2, 181230, Note_on_c, 0, 79, 90
2, 181259, Note_on_c, 0, 79, 0
2, 181260, Note_on_c, 0, 81, 90
2, 181289, Note_on_c, 0, 81, 0
2, 181290, Note_on_c, 0, 79, 90
2, 181319, Note_on_c, 0, 79, 0
2, 181320, Note_on_c, 0, 78, 90
2, 181349, Note_on_c, 0, 78, 0
2, 181350, Note_on_c, 0, 76, 90
2, 181379, Note_on_c, 0, 76, 0
2, 181380, Note_on_c, 0, 74, 90
2, 181439, Note_on_c, 0, 74, 0
2, 181440, Note_on_c, 0, 69, 90
2, 181559, Note_on_c, 0, 69, 0
2, 181560, Note_on_c, 0, 66, 90
2, 181679, Note_on_c, 0, 66, 0
2, 181680, Note_on_c, 0, 69, 90
2, 181799, Note_on_c, 0, 69, 0
2, 181800, Note_on_c, 0, 74, 90
2, 181889, Note_on_c, 0, 74, 0
2, 181890, Note_on_c, 0, 76, 90
2, 181919, Note_on_c, 0, 76, 0
2, 181920, Note_on_c, 0, 78, 90
2, 182039, Note_on_c, 0, 78, 0
2, 182040, Note_on_c, 0, 76, 90
2, 182099, Note_on_c, 0, 76, 0
2, 182100, Note_on_c, 0, 78, 90
2, 182159, Note_on_c, 0, 78, 0
2, 182160, Note_on_c, 0, 81, 90
2, 182279, Note_on_c, 0, 81, 0
2, 182280, Note_on_c, 0, 86, 90
2, 182339, Note_on_c, 0, 86, 0
2, 182340, Note_on_c, 0, 83, 90
2, 182399, Note_on_c, 0, 83, 0
2, 182400, Note_on_c, 0, 79, 90
2, 182519, Note_on_c, 0, 79, 0
2, 182520, Note_on_c, 0, 83, 90
2, 182579, Note_on_c, 0, 83, 0
2, 182580, Note_on_c, 0, 81, 90
2, 182639, Note_on_c, 0, 81, 0
2, 182640, Note_on_c, 0, 78, 90
2, 182759, Note_on_c, 0, 78, 0
2, 182760, Note_on_c, 0, 81, 90
2, 182819, Note_on_c, 0, 81, 0
2, 182820, Note_on_c, 0, 79, 90
2, 182850, Note_on_c, 0, 79, 0
2, 182940, Note_on_c, 0, 78, 90
2, 182970, Note_on_c, 0, 78, 0
2, 183060, Note_on_c, 0, 76, 90
2, 183119, Note_on_c, 0, 76, 0
2, 183120, Note_on_c, 0, 81, 90
2, 183239, Note_on_c, 0, 81, 0
2, 183240, Note_on_c, 0, 79, 90
2, 183299, Note_on_c, 0, 79, 0
2, 183300, Note_on_c, 0, 78, 90
2, 183359, Note_on_c, 0, 78, 0
2, 183360, Note_on_c, 0, 76, 90
2, 183389, Note_on_c, 0, 76, 0
2, 183390, Note_on_c, 0, 78, 90
2, 183419, Note_on_c, 0, 78, 0
2, 183420, Note_on_c, 0, 79, 90
2, 183479, Note_on_c, 0, 79, 0
2, 183480, Note_on_c, 0, 78, 90
2, 183539, Note_on_c, 0, 78, 0
2, 183540, Note_on_c, 0, 76, 90
2, 183779, Note_on_c, 0, 76, 0
2, 183840, Note_on_c, 0, 62, 90
2, 183899, Note_on_c, 0, 62, 0
2, 183900, Note_on_c, 0, 66, 90
2, 183959, Note_on_c, 0, 66, 0
2, 183960, Note_on_c, 0, 69, 90
2, 184019, Note_on_c, 0, 69, 0
2, 184020, Note_on_c, 0, 74, 90
2, 184079, Note_on_c, 0, 74, 0
2, 184080, Note_on_c, 0, 69, 90
2, 184139, Note_on_c, 0, 69, 0
2, 184140, Note_on_c, 0, 74, 90
2, 184199, Note_on_c, 0, 74, 0
2, 184200, Note_on_c, 0, 69, 90
2, 184259, Note_on_c, 0, 69, 0
2, 184260, Note_on_c, 0, 66, 90
2, 184289, Note_on_c, 0, 66, 0
2, 184290, Note_on_c, 0, 62, 90
2, 184319, Note_on_c, 0, 62, 0
2, 184320, Note_on_c, 0, 69, 90
2, 184379, Note_on_c, 0, 69, 0
2, 184380, Note_on_c, 0, 69, 90
2, 184409, Note_on_c, 0, 69, 0
2, 184410, Note_on_c, 0, 66, 90
2, 184439, Note_on_c, 0, 66, 0
2, 184440, Note_on_c, 0, 69, 90
2, 184499, Note_on_c, 0, 69, 0
2, 184500, Note_on_c, 0, 69, 90
2, 184739, Note_on_c, 0, 69, 0
2, 184800, Note_on_c, 0, 62, 90
2, 184859, Note_on_c, 0, 62, 0
2, 184860, Note_on_c, 0, 66, 90
2, 184919, Note_on_c, 0, 66, 0
2, 184920, Note_on_c, 0, 69, 90
2, 184979, Note_on_c, 0, 69, 0
2, 184980, Note_on_c, 0, 74, 90
2, 185039, Note_on_c, 0, 74, 0
2, 185040, Note_on_c, 0, 69, 90
2, 185099, Note_on_c, 0, 69, 0
2, 185100, Note_on_c, 0, 74, 90
2, 185159, Note_on_c, 0, 74, 0
2, 185160, Note_on_c, 0, 69, 90
2, 185219, Note_on_c, 0, 69, 0
2, 185220, Note_on_c, 0, 66, 90
2, 185249, Note_on_c, 0, 66, 0
2, 185250, Note_on_c, 0, 62, 90
2, 185279, Note_on_c, 0, 62, 0
2, 185280, Note_on_c, 0, 69, 90
2, 185339, Note_on_c, 0, 69, 0
2, 185340, Note_on_c, 0, 69, 90
2, 185369, Note_on_c, 0, 69, 0
2, 185370, Note_on_c, 0, 66, 90
2, 185399, Note_on_c, 0, 66, 0
2, 185400, Note_on_c, 0, 69, 90
2, 185459, Note_on_c, 0, 69, 0
2, 185460, Note_on_c, 0, 69, 90
2, 185699, Note_on_c, 0, 69, 0
2, 186480, Note_on_c, 0, 69, 90
2, 186509, Note_on_c, 0, 69, 0
2, 186510, Note_on_c, 0, 69, 90
2, 186539, Note_on_c, 0, 69, 0
2, 186540, Note_on_c, 0, 69, 90
2, 186599, Note_on_c, 0, 69, 0
2, 186600, Note_on_c, 0, 69, 90
2, 186659, Note_on_c, 0, 69, 0
2, 186660, Note_on_c, 0, 69, 90
2, 186719, Note_on_c, 0, 69, 0
2, 186720, Note_on_c, 0, 69, 90
2, 186749, Note_on_c, 0, 69, 0
2, 186750, Note_on_c, 0, 69, 90
2, 186779, Note_on_c, 0, 69, 0
2, 186780, Note_on_c, 0, 69, 90
2, 186809, Note_on_c, 0, 69, 0
2, 186810, Note_on_c, 0, 69, 90
2, 186839, Note_on_c, 0, 69, 0
2, 186840, Note_on_c, 0, 69, 90
2, 186869, Note_on_c, 0, 69, 0
2, 186870, Note_on_c, 0, 69, 90
2, 186899, Note_on_c, 0, 69, 0
2, 186900, Note_on_c, 0, 69, 90
2, 187019, Note_on_c, 0, 69, 0
2, 188160, Note_on_c, 0, 62, 90
2, 188219, Note_on_c, 0, 62, 0
2, 188220, Note_on_c, 0, 66, 90
2, 188279, Note_on_c, 0, 66, 0
2, 188280, Note_on_c, 0, 69, 90
2, 188339, Note_on_c, 0, 69, 0
2, 188340, Note_on_c, 0, 74, 90
2, 188399, Note_on_c, 0, 74, 0
2, 188400, Note_on_c, 0, 69, 90
2, 188459, Note_on_c, 0, 69, 0
2, 188460, Note_on_c, 0, 66, 90
2, 188519, Note_on_c, 0, 66, 0
2, 188520, Note_on_c, 0, 62, 90
2, 188579, Note_on_c, 0, 62, 0
2, 188580, Note_on_c, 0, 62, 90
2, 188609, Note_on_c, 0, 62, 0
2, 188610, Note_on_c, 0, 57, 90
2, 188639, Note_on_c, 0, 57, 0
2, 188640, Note_on_c, 0, 62, 90
2, 188699, Note_on_c, 0, 62, 0
2, 188700, Note_on_c, 0, 62, 90
2, 188729, Note_on_c, 0, 62, 0
2, 188730, Note_on_c, 0, 57, 90
2, 188759, Note_on_c, 0, 57, 0
2, 188760, Note_on_c, 0, 62, 90
2, 188819, Note_on_c, 0, 62, 0
2, 188820, Note_on_c, 0, 62, 90
2, 189059, Note_on_c, 0, 62, 0
2, 190320, Note_on_c, 0, 79, 90
2, 190439, Note_on_c, 0, 79, 0
2, 190440, Note_on_c, 0, 76, 90
2, 190499, Note_on_c, 0, 76, 0
2, 190500, Note_on_c, 0, 69, 90
2, 190559, Note_on_c, 0, 69, 0
2, 190800, Note_on_c, 0, 79, 90
2, 190919, Note_on_c, 0, 79, 0
2, 190920, Note_on_c, 0, 76, 90
2, 190979, Note_on_c, 0, 76, 0
2, 190980, Note_on_c, 0, 69, 90
2, 191039, Note_on_c, 0, 69, 0
2, 192240, Note_on_c, 0, 62, 90
2, 192299, Note_on_c, 0, 62, 0
2, 192300, Note_on_c, 0, 66, 90
2, 192359, Note_on_c, 0, 66, 0
2, 192360, Note_on_c, 0, 69, 90
2, 192419, Note_on_c, 0, 69, 0
2, 192420, Note_on_c, 0, 74, 90
2, 192479, Note_on_c, 0, 74, 0
2, 192480, Note_on_c, 0, 69, 90
2, 192539, Note_on_c, 0, 69, 0
2, 192540, Note_on_c, 0, 66, 90
2, 192569, Note_on_c, 0, 66, 0
2, 192570, Note_on_c, 0, 62, 90
2, 192599, Note_on_c, 0, 62, 0
2, 192600, Note_on_c, 0, 69, 90
2, 192659, Note_on_c, 0, 69, 0
2, 192660, Note_on_c, 0, 69, 90
2, 192809, Note_on_c, 0, 69, 0
2, 192810, Note_on_c, 0, 66, 90
2, 192839, Note_on_c, 0, 66, 0
2, 192840, Note_on_c, 0, 69, 90
2, 192899, Note_on_c, 0, 69, 0
2, 192900, Note_on_c, 0, 69, 90
2, 193139, Note_on_c, 0, 69, 0
2, 196260, Note_on_c, 0, 69, 90
2, 196319, Note_on_c, 0, 69, 0
2, 196380, Note_on_c, 0, 76, 90
2, 196439, Note_on_c, 0, 76, 0
2, 196500, Note_on_c, 0, 79, 90
2, 196679, Note_on_c, 0, 79, 0
2, 196680, Note_on_c, 0, 81, 90
2, 196709, Note_on_c, 0, 81, 0
2, 196710, Note_on_c, 0, 83, 90
2, 196739, Note_on_c, 0, 83, 0
2, 196740, Note_on_c, 0, 81, 90
2, 196769, Note_on_c, 0, 81, 0
2, 196770, Note_on_c, 0, 79, 90
2, 196799, Note_on_c, 0, 79, 0
2, 196800, Note_on_c, 0, 78, 90
2, 196829, Note_on_c, 0, 78, 0
2, 196830, Note_on_c, 0, 81, 90
2, 196859, Note_on_c, 0, 81, 0
2, 196860, Note_on_c, 0, 79, 90
2, 196889, Note_on_c, 0, 79, 0
2, 196890, Note_on_c, 0, 78, 90
2, 196919, Note_on_c, 0, 78, 0
2, 196920, Note_on_c, 0, 76, 90
2, 196949, Note_on_c, 0, 76, 0
2, 196950, Note_on_c, 0, 79, 90
2, 196979, Note_on_c, 0, 79, 0
2, 196980, Note_on_c, 0, 78, 90
2, 197009, Note_on_c, 0, 78, 0
2, 197010, Note_on_c, 0, 76, 90
2, 197039, Note_on_c, 0, 76, 0
2, 197040, Note_on_c, 0, 74, 90
2, 197129, Note_on_c, 0, 74, 0
2, 197130, Note_on_c, 0, 69, 90
2, 197159, Note_on_c, 0, 69, 0
2, 197160, Note_on_c, 0, 74, 90
2, 197189, Note_on_c, 0, 74, 0
2, 197190, Note_on_c, 0, 76, 90
2, 197219, Note_on_c, 0, 76, 0
2, 197220, Note_on_c, 0, 78, 90
2, 197249, Note_on_c, 0, 78, 0
2, 197250, Note_on_c, 0, 74, 90
2, 197279, Note_on_c, 0, 74, 0
2, 197280, Note_on_c, 0, 78, 90
2, 197309, Note_on_c, 0, 78, 0
2, 197310, Note_on_c, 0, 79, 90
2, 197339, Note_on_c, 0, 79, 0
2, 197340, Note_on_c, 0, 81, 90
2, 197369, Note_on_c, 0, 81, 0
2, 197370, Note_on_c, 0, 78, 90
2, 197399, Note_on_c, 0, 78, 0
2, 197400, Note_on_c, 0, 81, 90
2, 197429, Note_on_c, 0, 81, 0
2, 197430, Note_on_c, 0, 83, 90
2, 197459, Note_on_c, 0, 83, 0
2, 197460, Note_on_c, 0, 84, 90
2, 197519, Note_on_c, 0, 84, 0
2, 197520, Note_on_c, 0, 74, 90
2, 197639, Note_on_c, 0, 74, 0
2, 197640, Note_on_c, 0, 76, 90
2, 197669, Note_on_c, 0, 76, 0
2, 197670, Note_on_c, 0, 78, 90
2, 197699, Note_on_c, 0, 78, 0
2, 197700, Note_on_c, 0, 79, 90
2, 197729, Note_on_c, 0, 79, 0
2, 197730, Note_on_c, 0, 81, 90
2, 197759, Note_on_c, 0, 81, 0
2, 197760, Note_on_c, 0, 78, 90
2, 197789, Note_on_c, 0, 78, 0
2, 197790, Note_on_c, 0, 79, 90
2, 197819, Note_on_c, 0, 79, 0
2, 197820, Note_on_c, 0, 81, 90
2, 197849, Note_on_c, 0, 81, 0
2, 197850, Note_on_c, 0, 83, 90
2, 197879, Note_on_c, 0, 83, 0
2, 197880, Note_on_c, 0, 79, 90
2, 197909, Note_on_c, 0, 79, 0
2, 197910, Note_on_c, 0, 81, 90
2, 197939, Note_on_c, 0, 81, 0
2, 197940, Note_on_c, 0, 83, 90
2, 197969, Note_on_c, 0, 83, 0
2, 197970, Note_on_c, 0, 84, 90
2, 197999, Note_on_c, 0, 84, 0
2, 198000, Note_on_c, 0, 81, 90
2, 198029, Note_on_c, 0, 81, 0
2, 198030, Note_on_c, 0, 83, 90
2, 198059, Note_on_c, 0, 83, 0
2, 198060, Note_on_c, 0, 79, 90
2, 198119, Note_on_c, 0, 79, 0
2, 198120, Note_on_c, 0, 83, 90
2, 198179, Note_on_c, 0, 83, 0
2, 198180, Note_on_c, 0, 81, 90
2, 198239, Note_on_c, 0, 81, 0
2, 198240, Note_on_c, 0, 78, 90
2, 198359, Note_on_c, 0, 78, 0
2, 198360, Note_on_c, 0, 81, 90
2, 198419, Note_on_c, 0, 81, 0
2, 198420, Note_on_c, 0, 79, 90
2, 198479, Note_on_c, 0, 79, 0
2, 198480, Note_on_c, 0, 76, 90
2, 198599, Note_on_c, 0, 76, 0
2, 198600, Note_on_c, 0, 79, 90
2, 198659, Note_on_c, 0, 79, 0
2, 198660, Note_on_c, 0, 78, 90
2, 198719, Note_on_c, 0, 78, 0
2, 198780, Note_on_c, 0, 76, 90
2, 198839, Note_on_c, 0, 76, 0
2, 198900, Note_on_c, 0, 69, 90
2, 198959, Note_on_c, 0, 69, 0
2, 198960, Note_on_c, 0, 81, 90
2, 199079, Note_on_c, 0, 81, 0
2, 199080, Note_on_c, 0, 79, 90
2, 199139, Note_on_c, 0, 79, 0
2, 199140, Note_on_c, 0, 78, 90
2, 199169, Note_on_c, 0, 78, 0
2, 199170, Note_on_c, 0, 86, 90
2, 199199, Note_on_c, 0, 86, 0
2, 199200, Note_on_c, 0, 85, 90
2, 199229, Note_on_c, 0, 85, 0
2, 199230, Note_on_c, 0, 83, 90
2, 199259, Note_on_c, 0, 83, 0
2, 199260, Note_on_c, 0, 81, 90
2, 199289, Note_on_c, 0, 81, 0
2, 199290, Note_on_c, 0, 79, 90
2, 199319, Note_on_c, 0, 79, 0
2, 199320, Note_on_c, 0, 78, 90
2, 199349, Note_on_c, 0, 78, 0
2, 199350, Note_on_c, 0, 76, 90
2, 199379, Note_on_c, 0, 76, 0
2, 199380, Note_on_c, 0, 74, 90
2, 199619, Note_on_c, 0, 74, 0
2, 200880, Note_on_c, 0, 78, 90
2, 200909, Note_on_c, 0, 78, 0
2, 200910, Note_on_c, 0, 79, 90
2, 200939, Note_on_c, 0, 79, 0
2, 200940, Note_on_c, 0, 78, 90
2, 200999, Note_on_c, 0, 78, 0
2, 201000, Note_on_c, 0, 78, 90
2, 201059, Note_on_c, 0, 78, 0
2, 201120, Note_on_c, 0, 78, 90
2, 201149, Note_on_c, 0, 78, 0
2, 201150, Note_on_c, 0, 79, 90
2, 201179, Note_on_c, 0, 79, 0
2, 201180, Note_on_c, 0, 78, 90
2, 201239, Note_on_c, 0, 78, 0
2, 201240, Note_on_c, 0, 78, 90
2, 201299, Note_on_c, 0, 78, 0
2, 201360, Note_on_c, 0, 83, 90
2, 201419, Note_on_c, 0, 83, 0
2, 201420, Note_on_c, 0, 81, 90
2, 201479, Note_on_c, 0, 81, 0
2, 201480, Note_on_c, 0, 79, 90
2, 201539, Note_on_c, 0, 79, 0
2, 201540, Note_on_c, 0, 78, 90
2, 201569, Note_on_c, 0, 78, 0
2, 201570, Note_on_c, 0, 81, 90
2, 201599, Note_on_c, 0, 81, 0
2, 201600, Note_on_c, 0, 83, 90
2, 201629, Note_on_c, 0, 83, 0
2, 201630, Note_on_c, 0, 85, 90
2, 201659, Note_on_c, 0, 85, 0
2, 201660, Note_on_c, 0, 86, 90
2, 201720, Note_on_c, 0, 86, 0
2, 202560, Note_on_c, 0, 74, 90
2, 202589, Note_on_c, 0, 74, 0
2, 202590, Note_on_c, 0, 76, 90
2, 202619, Note_on_c, 0, 76, 0
2, 202620, Note_on_c, 0, 74, 90
2, 202679, Note_on_c, 0, 74, 0
2, 202680, Note_on_c, 0, 74, 90
2, 202739, Note_on_c, 0, 74, 0
2, 202800, Note_on_c, 0, 74, 90
2, 202829, Note_on_c, 0, 74, 0
2, 202830, Note_on_c, 0, 76, 90
2, 202859, Note_on_c, 0, 76, 0
2, 202860, Note_on_c, 0, 74, 90
2, 202919, Note_on_c, 0, 74, 0
2, 202920, Note_on_c, 0, 74, 90
2, 202979, Note_on_c, 0, 74, 0
2, 203040, Note_on_c, 0, 79, 90
2, 203099, Note_on_c, 0, 79, 0
2, 203100, Note_on_c, 0, 78, 90
2, 203159, Note_on_c, 0, 78, 0
2, 203160, Note_on_c, 0, 76, 90
2, 203219, Note_on_c, 0, 76, 0
2, 203220, Note_on_c, 0, 74, 90
2, 203249, Note_on_c, 0, 74, 0
2, 203250, Note_on_c, 0, 69, 90
2, 203279, Note_on_c, 0, 69, 0
2, 203280, Note_on_c, 0, 74, 90
2, 203309, Note_on_c, 0, 74, 0
2, 203310, Note_on_c, 0, 76, 90
2, 203339, Note_on_c, 0, 76, 0
2, 203340, Note_on_c, 0, 78, 90
2, 203399, Note_on_c, 0, 78, 0
2, 204240, Note_on_c, 0, 85, 90
2, 204269, Note_on_c, 0, 85, 0
2, 204270, Note_on_c, 0, 86, 90
2, 204299, Note_on_c, 0, 86, 0
2, 204300, Note_on_c, 0, 85, 90
2, 204359, Note_on_c, 0, 85, 0
2, 204360, Note_on_c, 0, 85, 90
2, 204419, Note_on_c, 0, 85, 0
2, 204480, Note_on_c, 0, 85, 90
2, 204509, Note_on_c, 0, 85, 0
2, 204510, Note_on_c, 0, 86, 90
2, 204539, Note_on_c, 0, 86, 0
2, 204540, Note_on_c, 0, 85, 90
2, 204599, Note_on_c, 0, 85, 0
2, 204600, Note_on_c, 0, 85, 90
2, 204659, Note_on_c, 0, 85, 0
2, 204720, Note_on_c, 0, 86, 90
2, 204779, Note_on_c, 0, 86, 0
2, 204780, Note_on_c, 0, 85, 90
2, 204839, Note_on_c, 0, 85, 0
2, 204840, Note_on_c, 0, 83, 90
2, 204899, Note_on_c, 0, 83, 0
2, 204900, Note_on_c, 0, 85, 90
2, 204929, Note_on_c, 0, 85, 0
2, 204930, Note_on_c, 0, 83, 90
2, 204959, Note_on_c, 0, 83, 0
2, 204960, Note_on_c, 0, 81, 90
2, 204989, Note_on_c, 0, 81, 0
2, 204990, Note_on_c, 0, 79, 90
2, 205019, Note_on_c, 0, 79, 0
2, 205020, Note_on_c, 0, 78, 90
2, 205079, Note_on_c, 0, 78, 0
2, 205920, Note_on_c, 0, 78, 90
2, 205949, Note_on_c, 0, 78, 0
2, 205950, Note_on_c, 0, 79, 90
2, 205979, Note_on_c, 0, 79, 0
2, 205980, Note_on_c, 0, 78, 90
2, 206039, Note_on_c, 0, 78, 0
2, 206040, Note_on_c, 0, 78, 90
2, 206099, Note_on_c, 0, 78, 0
2, 206160, Note_on_c, 0, 78, 90
2, 206189, Note_on_c, 0, 78, 0
2, 206190, Note_on_c, 0, 79, 90
2, 206219, Note_on_c, 0, 79, 0
2, 206220, Note_on_c, 0, 78, 90
2, 206279, Note_on_c, 0, 78, 0
2, 206280, Note_on_c, 0, 78, 90
2, 206339, Note_on_c, 0, 78, 0
2, 206400, Note_on_c, 0, 83, 90
2, 206459, Note_on_c, 0, 83, 0
2, 206460, Note_on_c, 0, 81, 90
2, 206519, Note_on_c, 0, 81, 0
2, 206520, Note_on_c, 0, 79, 90
2, 206579, Note_on_c, 0, 79, 0
2, 206580, Note_on_c, 0, 78, 90
2, 206609, Note_on_c, 0, 78, 0
2, 206610, Note_on_c, 0, 81, 90
2, 206639, Note_on_c, 0, 81, 0
2, 206640, Note_on_c, 0, 83, 90
2, 206669, Note_on_c, 0, 83, 0
2, 206670, Note_on_c, 0, 85, 90
2, 206699, Note_on_c, 0, 85, 0
2, 206700, Note_on_c, 0, 86, 90
2, 206759, Note_on_c, 0, 86, 0
2, 206760, Note_on_c, 0, 79, 90
2, 206819, Note_on_c, 0, 79, 0
2, 206820, Note_on_c, 0, 78, 90
2, 206939, Note_on_c, 0, 78, 0
2, 206940, Note_on_c, 0, 76, 90
2, 206954, Note_on_c, 0, 76, 0
2, 206955, Note_on_c, 0, 78, 90
2, 206969, Note_on_c, 0, 78, 0
2, 206970, Note_on_c, 0, 76, 90
2, 206984, Note_on_c, 0, 76, 0
2, 206985, Note_on_c, 0, 78, 90
2, 206999, Note_on_c, 0, 78, 0
2, 207000, Note_on_c, 0, 76, 90
2, 207009, Note_on_c, 0, 76, 0
2, 207010, Note_on_c, 0, 78, 90
2, 207019, Note_on_c, 0, 78, 0
2, 207020, Note_on_c, 0, 76, 90
2, 207029, Note_on_c, 0, 76, 0
2, 207030, Note_on_c, 0, 78, 90
2, 207039, Note_on_c, 0, 78, 0
2, 207040, Note_on_c, 0, 76, 90
2, 207049, Note_on_c, 0, 76, 0
2, 207050, Note_on_c, 0, 78, 90
2, 207059, Note_on_c, 0, 78, 0
2, 207060, Note_on_c, 0, 74, 90
2, 207179, Note_on_c, 0, 74, 0
2, 207179, End_track
3, 0, Start_track
3, 0, MIDI_port, 0
3, 0, Title_t, "Tromba II"
3, 0, Program_c, 1, 56
3, 0, Control_c, 1, 91, 108
3, 900, Note_on_c, 1, 62, 90
3, 929, Note_on_c, 1, 62, 0
3, 930, Note_on_c, 1, 62, 90
3, 944, Note_on_c, 1, 62, 0
3, 945, Note_on_c, 1, 62, 90
3, 959, Note_on_c, 1, 62, 0
3, 960, Note_on_c, 1, 66, 90
3, 989, Note_on_c, 1, 66, 0
3, 990, Note_on_c, 1, 62, 90
3, 1019, Note_on_c, 1, 62, 0
3, 1020, Note_on_c, 1, 66, 90
3, 1049, Note_on_c, 1, 66, 0
3, 1050, Note_on_c, 1, 69, 90
3, 1079, Note_on_c, 1, 69, 0
3, 1080, Note_on_c, 1, 74, 90
3, 1109, Note_on_c, 1, 74, 0
3, 1110, Note_on_c, 1, 69, 90
3, 1139, Note_on_c, 1, 69, 0
3, 1140, Note_on_c, 1, 74, 90
3, 1169, Note_on_c, 1, 74, 0
3, 1170, Note_on_c, 1, 78, 90
3, 1199, Note_on_c, 1, 78, 0
3, 1200, Note_on_c, 1, 74, 90
3, 1229, Note_on_c, 1, 74, 0
3, 1230, Note_on_c, 1, 78, 90
3, 1259, Note_on_c, 1, 78, 0
3, 1260, Note_on_c, 1, 81, 90
3, 1319, Note_on_c, 1, 81, 0
3, 1440, Note_on_c, 1, 78, 90
3, 1499, Note_on_c, 1, 78, 0
3, 1740, Note_on_c, 1, 69, 90
3, 1769, Note_on_c, 1, 69, 0
3, 1770, Note_on_c, 1, 74, 90
3, 1799, Note_on_c, 1, 74, 0
3, 1800, Note_on_c, 1, 76, 90
3, 1829, Note_on_c, 1, 76, 0
3, 1860, Note_on_c, 1, 76, 90
3, 1889, Note_on_c, 1, 76, 0
3, 1920, Note_on_c, 1, 76, 90
3, 1949, Note_on_c, 1, 76, 0
3, 1980, Note_on_c, 1, 76, 90
3, 2039, Note_on_c, 1, 76, 0
3, 2040, Note_on_c, 1, 74, 90
3, 2069, Note_on_c, 1, 74, 0
3, 2070, Note_on_c, 1, 73, 90
3, 2099, Note_on_c, 1, 73, 0
3, 2100, Note_on_c, 1, 74, 90
3, 2159, Note_on_c, 1, 74, 0
3, 2460, Note_on_c, 1, 69, 90
3, 2519, Note_on_c, 1, 69, 0
3, 2520, Note_on_c, 1, 69, 90
3, 2579, Note_on_c, 1, 69, 0
3, 2580, Note_on_c, 1, 76, 90
3, 2639, Note_on_c, 1, 76, 0
3, 2640, Note_on_c, 1, 74, 90
3, 2699, Note_on_c, 1, 74, 0
3, 2700, Note_on_c, 1, 76, 90
3, 2819, Note_on_c, 1, 76, 0
3, 4320, Note_on_c, 1, 83, 100
3, 4380, Note_on_c, 1, 83, 0
3, 4500, Note_on_c, 1, 76, 100
3, 4560, Note_on_c, 1, 76, 0
3, 4680, Note_on_c, 1, 81, 100
3, 4740, Note_on_c, 1, 81, 0
3, 4860, Note_on_c, 1, 74, 100
3, 4920, Note_on_c, 1, 74, 0
3, 5040, Note_on_c, 1, 79, 100
3, 5100, Note_on_c, 1, 79, 0
3, 5220, Note_on_c, 1, 83, 100
3, 5280, Note_on_c, 1, 83, 0
3, 5400, Note_on_c, 1, 81, 100
3, 5460, Note_on_c, 1, 81, 0
3, 5610, Note_on_c, 1, 74, 90
3, 5624, Note_on_c, 1, 74, 0
3, 5625, Note_on_c, 1, 76, 90
3, 5639, Note_on_c, 1, 76, 0
3, 5640, Note_on_c, 1, 78, 90
3, 5669, Note_on_c, 1, 78, 0
3, 5670, Note_on_c, 1, 79, 90
3, 5684, Note_on_c, 1, 79, 0
3, 5685, Note_on_c, 1, 78, 90
3, 5699, Note_on_c, 1, 78, 0
3, 5700, Note_on_c, 1, 76, 90
3, 5729, Note_on_c, 1, 76, 0
3, 5730, Note_on_c, 1, 78, 90
3, 5744, Note_on_c, 1, 78, 0
3, 5745, Note_on_c, 1, 76, 90
3, 5759, Note_on_c, 1, 76, 0
3, 5760, Note_on_c, 1, 74, 90
3, 5819, Note_on_c, 1, 74, 0
3, 7020, Note_on_c, 1, 62, 90
3, 7049, Note_on_c, 1, 62, 0
3, 7050, Note_on_c, 1, 62, 90
3, 7064, Note_on_c, 1, 62, 0
3, 7065, Note_on_c, 1, 62, 90
3, 7079, Note_on_c, 1, 62, 0
3, 7080, Note_on_c, 1, 66, 90
3, 7109, Note_on_c, 1, 66, 0
3, 7110, Note_on_c, 1, 62, 90
3, 7139, Note_on_c, 1, 62, 0
3, 7140, Note_on_c, 1, 66, 90
3, 7169, Note_on_c, 1, 66, 0
3, 7170, Note_on_c, 1, 69, 90
3, 7199, Note_on_c, 1, 69, 0
3, 7200, Note_on_c, 1, 74, 90
3, 7229, Note_on_c, 1, 74, 0
3, 7230, Note_on_c, 1, 69, 90
3, 7259, Note_on_c, 1, 69, 0
3, 7260, Note_on_c, 1, 74, 90
3, 7289, Note_on_c, 1, 74, 0
3, 7290, Note_on_c, 1, 78, 90
3, 7319, Note_on_c, 1, 78, 0
3, 7320, Note_on_c, 1, 74, 90
3, 7349, Note_on_c, 1, 74, 0
3, 7350, Note_on_c, 1, 78, 90
3, 7379, Note_on_c, 1, 78, 0
3, 7380, Note_on_c, 1, 81, 90
3, 7439, Note_on_c, 1, 81, 0
3, 7560, Note_on_c, 1, 78, 90
3, 7619, Note_on_c, 1, 78, 0
3, 7860, Note_on_c, 1, 69, 90
3, 7889, Note_on_c, 1, 69, 0
3, 7890, Note_on_c, 1, 74, 90
3, 7919, Note_on_c, 1, 74, 0
3, 7920, Note_on_c, 1, 76, 90
3, 7949, Note_on_c, 1, 76, 0
3, 7980, Note_on_c, 1, 76, 90
3, 8009, Note_on_c, 1, 76, 0
3, 8040, Note_on_c, 1, 76, 90
3, 8069, Note_on_c, 1, 76, 0
3, 8100, Note_on_c, 1, 76, 90
3, 8159, Note_on_c, 1, 76, 0
3, 8160, Note_on_c, 1, 74, 90
3, 8189, Note_on_c, 1, 74, 0
3, 8190, Note_on_c, 1, 73, 90
3, 8219, Note_on_c, 1, 73, 0
3, 8220, Note_on_c, 1, 74, 90
3, 8279, Note_on_c, 1, 74, 0
3, 8580, Note_on_c, 1, 69, 90
3, 8639, Note_on_c, 1, 69, 0
3, 8640, Note_on_c, 1, 69, 90
3, 8699, Note_on_c, 1, 69, 0
3, 8700, Note_on_c, 1, 76, 90
3, 8759, Note_on_c, 1, 76, 0
3, 8760, Note_on_c, 1, 74, 90
3, 8819, Note_on_c, 1, 74, 0
3, 8820, Note_on_c, 1, 76, 90
3, 8939, Note_on_c, 1, 76, 0
3, 14400, Note_on_c, 1, 81, 90
3, 14429, Note_on_c, 1, 81, 0
3, 14460, Note_on_c, 1, 81, 90
3, 14489, Note_on_c, 1, 81, 0
3, 14520, Note_on_c, 1, 81, 90
3, 14549, Note_on_c, 1, 81, 0
3, 14580, Note_on_c, 1, 81, 90
3, 14639, Note_on_c, 1, 81, 0
3, 14640, Note_on_c, 1, 80, 90
3, 14669, Note_on_c, 1, 80, 0
3, 14670, Note_on_c, 1, 78, 90
3, 14699, Note_on_c, 1, 78, 0
3, 14700, Note_on_c, 1, 80, 90
3, 14759, Note_on_c, 1, 80, 0
3, 15420, Note_on_c, 1, 74, 90
3, 15479, Note_on_c, 1, 74, 0
3, 15480, Note_on_c, 1, 74, 90
3, 15539, Note_on_c, 1, 74, 0
3, 15540, Note_on_c, 1, 78, 90
3, 15599, Note_on_c, 1, 78, 0
3, 15600, Note_on_c, 1, 83, 90
3, 15659, Note_on_c, 1, 83, 0
3, 15660, Note_on_c, 1, 81, 90
3, 15719, Note_on_c, 1, 81, 0
3, 15840, Note_on_c, 1, 74, 90
3, 15899, Note_on_c, 1, 74, 0
3, 15900, Note_on_c, 1, 78, 90
3, 15959, Note_on_c, 1, 78, 0
3, 15960, Note_on_c, 1, 74, 90
3, 16019, Note_on_c, 1, 74, 0
3, 16020, Note_on_c, 1, 69, 90
3, 16079, Note_on_c, 1, 69, 0
3, 17100, Note_on_c, 1, 62, 90
3, 17129, Note_on_c, 1, 62, 0
3, 17130, Note_on_c, 1, 62, 90
3, 17144, Note_on_c, 1, 62, 0
3, 17145, Note_on_c, 1, 62, 90
3, 17159, Note_on_c, 1, 62, 0
3, 17160, Note_on_c, 1, 66, 90
3, 17189, Note_on_c, 1, 66, 0
3, 17190, Note_on_c, 1, 62, 90
3, 17219, Note_on_c, 1, 62, 0
3, 17220, Note_on_c, 1, 66, 90
3, 17249, Note_on_c, 1, 66, 0
3, 17250, Note_on_c, 1, 69, 90
3, 17279, Note_on_c, 1, 69, 0
3, 17280, Note_on_c, 1, 74, 90
3, 17309, Note_on_c, 1, 74, 0
3, 17310, Note_on_c, 1, 69, 90
3, 17339, Note_on_c, 1, 69, 0
3, 17340, Note_on_c, 1, 74, 90
3, 17369, Note_on_c, 1, 74, 0
3, 17370, Note_on_c, 1, 78, 90
3, 17399, Note_on_c, 1, 78, 0
3, 17400, Note_on_c, 1, 74, 90
3, 17429, Note_on_c, 1, 74, 0
3, 17430, Note_on_c, 1, 78, 90
3, 17459, Note_on_c, 1, 78, 0
3, 17460, Note_on_c, 1, 81, 90
3, 17519, Note_on_c, 1, 81, 0
3, 17640, Note_on_c, 1, 78, 90
3, 17699, Note_on_c, 1, 78, 0
3, 17940, Note_on_c, 1, 69, 90
3, 17969, Note_on_c, 1, 69, 0
3, 17970, Note_on_c, 1, 74, 90
3, 17999, Note_on_c, 1, 74, 0
3, 18000, Note_on_c, 1, 76, 90
3, 18029, Note_on_c, 1, 76, 0
3, 18060, Note_on_c, 1, 76, 90
3, 18089, Note_on_c, 1, 76, 0
3, 18120, Note_on_c, 1, 76, 90
3, 18149, Note_on_c, 1, 76, 0
3, 18180, Note_on_c, 1, 76, 90
3, 18239, Note_on_c, 1, 76, 0
3, 18240, Note_on_c, 1, 74, 90
3, 18269, Note_on_c, 1, 74, 0
3, 18270, Note_on_c, 1, 73, 90
3, 18299, Note_on_c, 1, 73, 0
3, 18300, Note_on_c, 1, 74, 90
3, 18359, Note_on_c, 1, 74, 0
3, 18660, Note_on_c, 1, 69, 90
3, 18719, Note_on_c, 1, 69, 0
3, 18720, Note_on_c, 1, 69, 90
3, 18779, Note_on_c, 1, 69, 0
3, 18780, Note_on_c, 1, 76, 90
3, 18839, Note_on_c, 1, 76, 0
3, 18840, Note_on_c, 1, 74, 90
3, 18899, Note_on_c, 1, 74, 0
3, 18900, Note_on_c, 1, 76, 90
3, 19019, Note_on_c, 1, 76, 0
3, 21300, Note_on_c, 1, 74, 100
3, 21360, Note_on_c, 1, 74, 0
3, 21360, Note_on_c, 1, 74, 100
3, 21420, Note_on_c, 1, 74, 0
3, 21420, Note_on_c, 1, 76, 100
3, 21480, Note_on_c, 1, 76, 0
3, 23040, Note_on_c, 1, 83, 100
3, 23100, Note_on_c, 1, 83, 0
3, 23220, Note_on_c, 1, 76, 100
3, 23280, Note_on_c, 1, 76, 0
3, 23400, Note_on_c, 1, 81, 100
3, 23460, Note_on_c, 1, 81, 0
3, 23580, Note_on_c, 1, 74, 100
3, 23640, Note_on_c, 1, 74, 0
3, 23760, Note_on_c, 1, 79, 100
3, 23820, Note_on_c, 1, 79, 0
3, 23940, Note_on_c, 1, 83, 100
3, 24000, Note_on_c, 1, 83, 0
3, 24120, Note_on_c, 1, 81, 100
3, 24180, Note_on_c, 1, 81, 0
3, 24330, Note_on_c, 1, 74, 90
3, 24344, Note_on_c, 1, 74, 0
3, 24345, Note_on_c, 1, 76, 90
3, 24359, Note_on_c, 1, 76, 0
3, 24360, Note_on_c, 1, 78, 90
3, 24389, Note_on_c, 1, 78, 0
3, 24390, Note_on_c, 1, 79, 90
3, 24404, Note_on_c, 1, 79, 0
3, 24405, Note_on_c, 1, 78, 90
3, 24419, Note_on_c, 1, 78, 0
3, 24420, Note_on_c, 1, 76, 90
3, 24449, Note_on_c, 1, 76, 0
3, 24450, Note_on_c, 1, 78, 90
3, 24464, Note_on_c, 1, 78, 0
3, 24465, Note_on_c, 1, 76, 90
3, 24479, Note_on_c, 1, 76, 0
3, 24480, Note_on_c, 1, 74, 90
3, 24659, Note_on_c, 1, 74, 0
3, 36300, Control_c, 1, 91, 108
3, 37200, Note_on_c, 1, 62, 90
3, 37229, Note_on_c, 1, 62, 0
3, 37230, Note_on_c, 1, 62, 90
3, 37244, Note_on_c, 1, 62, 0
3, 37245, Note_on_c, 1, 62, 90
3, 37259, Note_on_c, 1, 62, 0
3, 37260, Note_on_c, 1, 66, 90
3, 37289, Note_on_c, 1, 66, 0
3, 37290, Note_on_c, 1, 62, 90
3, 37319, Note_on_c, 1, 62, 0
3, 37320, Note_on_c, 1, 66, 90
3, 37349, Note_on_c, 1, 66, 0
3, 37350, Note_on_c, 1, 69, 90
3, 37379, Note_on_c, 1, 69, 0
3, 37380, Note_on_c, 1, 74, 90
3, 37409, Note_on_c, 1, 74, 0
3, 37410, Note_on_c, 1, 69, 90
3, 37439, Note_on_c, 1, 69, 0
3, 37440, Note_on_c, 1, 74, 90
3, 37469, Note_on_c, 1, 74, 0
3, 37470, Note_on_c, 1, 78, 90
3, 37499, Note_on_c, 1, 78, 0
3, 37500, Note_on_c, 1, 74, 90
3, 37529, Note_on_c, 1, 74, 0
3, 37530, Note_on_c, 1, 78, 90
3, 37559, Note_on_c, 1, 78, 0
3, 37560, Note_on_c, 1, 81, 90
3, 37619, Note_on_c, 1, 81, 0
3, 37740, Note_on_c, 1, 78, 90
3, 37799, Note_on_c, 1, 78, 0
3, 38040, Note_on_c, 1, 69, 90
3, 38069, Note_on_c, 1, 69, 0
3, 38070, Note_on_c, 1, 74, 90
3, 38099, Note_on_c, 1, 74, 0
3, 38100, Note_on_c, 1, 76, 90
3, 38129, Note_on_c, 1, 76, 0
3, 38160, Note_on_c, 1, 76, 90
3, 38189, Note_on_c, 1, 76, 0
3, 38220, Note_on_c, 1, 76, 90
3, 38249, Note_on_c, 1, 76, 0
3, 38280, Note_on_c, 1, 76, 90
3, 38339, Note_on_c, 1, 76, 0
3, 38340, Note_on_c, 1, 74, 90
3, 38369, Note_on_c, 1, 74, 0
3, 38370, Note_on_c, 1, 73, 90
3, 38399, Note_on_c, 1, 73, 0
3, 38400, Note_on_c, 1, 74, 90
3, 38459, Note_on_c, 1, 74, 0
3, 38760, Note_on_c, 1, 69, 90
3, 38819, Note_on_c, 1, 69, 0
3, 38820, Note_on_c, 1, 69, 90
3, 38879, Note_on_c, 1, 69, 0
3, 38880, Note_on_c, 1, 76, 90
3, 38939, Note_on_c, 1, 76, 0
3, 38940, Note_on_c, 1, 74, 90
3, 38999, Note_on_c, 1, 74, 0
3, 39000, Note_on_c, 1, 76, 90
3, 39119, Note_on_c, 1, 76, 0
3, 40620, Note_on_c, 1, 83, 100
3, 40680, Note_on_c, 1, 83, 0
3, 40800, Note_on_c, 1, 76, 100
3, 40860, Note_on_c, 1, 76, 0
3, 40980, Note_on_c, 1, 81, 100
3, 41040, Note_on_c, 1, 81, 0
3, 41160, Note_on_c, 1, 74, 100
3, 41220, Note_on_c, 1, 74, 0
3, 41340, Note_on_c, 1, 79, 100
3, 41400, Note_on_c, 1, 79, 0
3, 41520, Note_on_c, 1, 83, 100
3, 41580, Note_on_c, 1, 83, 0
3, 41700, Note_on_c, 1, 81, 100
3, 41760, Note_on_c, 1, 81, 0
3, 41910, Note_on_c, 1, 74, 90
3, 41924, Note_on_c, 1, 74, 0
3, 41925, Note_on_c, 1, 76, 90
3, 41939, Note_on_c, 1, 76, 0
3, 41940, Note_on_c, 1, 78, 90
3, 41969, Note_on_c, 1, 78, 0
3, 41970, Note_on_c, 1, 79, 90
3, 41984, Note_on_c, 1, 79, 0
3, 41985, Note_on_c, 1, 78, 90
3, 41999, Note_on_c, 1, 78, 0
3, 42000, Note_on_c, 1, 76, 90
3, 42029, Note_on_c, 1, 76, 0
3, 42030, Note_on_c, 1, 78, 90
3, 42044, Note_on_c, 1, 78, 0
3, 42045, Note_on_c, 1, 76, 90
3, 42059, Note_on_c, 1, 76, 0
3, 42060, Note_on_c, 1, 74, 90
3, 42119, Note_on_c, 1, 74, 0
3, 43320, Note_on_c, 1, 62, 90
3, 43349, Note_on_c, 1, 62, 0
3, 43350, Note_on_c, 1, 62, 90
3, 43364, Note_on_c, 1, 62, 0
3, 43365, Note_on_c, 1, 62, 90
3, 43379, Note_on_c, 1, 62, 0
3, 43380, Note_on_c, 1, 66, 90
3, 43409, Note_on_c, 1, 66, 0
3, 43410, Note_on_c, 1, 62, 90
3, 43439, Note_on_c, 1, 62, 0
3, 43440, Note_on_c, 1, 66, 90
3, 43469, Note_on_c, 1, 66, 0
3, 43470, Note_on_c, 1, 69, 90
3, 43499, Note_on_c, 1, 69, 0
3, 43500, Note_on_c, 1, 74, 90
3, 43529, Note_on_c, 1, 74, 0
3, 43530, Note_on_c, 1, 69, 90
3, 43559, Note_on_c, 1, 69, 0
3, 43560, Note_on_c, 1, 74, 90
3, 43589, Note_on_c, 1, 74, 0
3, 43590, Note_on_c, 1, 78, 90
3, 43619, Note_on_c, 1, 78, 0
3, 43620, Note_on_c, 1, 74, 90
3, 43649, Note_on_c, 1, 74, 0
3, 43650, Note_on_c, 1, 78, 90
3, 43679, Note_on_c, 1, 78, 0
3, 43680, Note_on_c, 1, 81, 90
3, 43739, Note_on_c, 1, 81, 0
3, 43860, Note_on_c, 1, 78, 90
3, 43919, Note_on_c, 1, 78, 0
3, 44160, Note_on_c, 1, 69, 90
3, 44189, Note_on_c, 1, 69, 0
3, 44190, Note_on_c, 1, 74, 90
3, 44219, Note_on_c, 1, 74, 0
3, 44220, Note_on_c, 1, 76, 90
3, 44249, Note_on_c, 1, 76, 0
3, 44280, Note_on_c, 1, 76, 90
3, 44309, Note_on_c, 1, 76, 0
3, 44340, Note_on_c, 1, 76, 90
3, 44369, Note_on_c, 1, 76, 0
3, 44400, Note_on_c, 1, 76, 90
3, 44459, Note_on_c, 1, 76, 0
3, 44460, Note_on_c, 1, 74, 90
3, 44489, Note_on_c, 1, 74, 0
3, 44490, Note_on_c, 1, 73, 90
3, 44519, Note_on_c, 1, 73, 0
3, 44520, Note_on_c, 1, 74, 90
3, 44579, Note_on_c, 1, 74, 0
3, 44880, Note_on_c, 1, 69, 90
3, 44939, Note_on_c, 1, 69, 0
3, 44940, Note_on_c, 1, 69, 90
3, 44999, Note_on_c, 1, 69, 0
3, 45000, Note_on_c, 1, 76, 90
3, 45059, Note_on_c, 1, 76, 0
3, 45060, Note_on_c, 1, 74, 90
3, 45119, Note_on_c, 1, 74, 0
3, 45120, Note_on_c, 1, 76, 90
3, 45239, Note_on_c, 1, 76, 0
3, 50700, Note_on_c, 1, 81, 90
3, 50729, Note_on_c, 1, 81, 0
3, 50760, Note_on_c, 1, 81, 90
3, 50789, Note_on_c, 1, 81, 0
3, 50820, Note_on_c, 1, 81, 90
3, 50849, Note_on_c, 1, 81, 0
3, 50880, Note_on_c, 1, 81, 90
3, 50939, Note_on_c, 1, 81, 0
3, 50940, Note_on_c, 1, 80, 90
3, 50969, Note_on_c, 1, 80, 0
3, 50970, Note_on_c, 1, 78, 90
3, 50999, Note_on_c, 1, 78, 0
3, 51000, Note_on_c, 1, 80, 90
3, 51059, Note_on_c, 1, 80, 0
3, 51720, Note_on_c, 1, 74, 90
3, 51779, Note_on_c, 1, 74, 0
3, 51780, Note_on_c, 1, 74, 90
3, 51839, Note_on_c, 1, 74, 0
3, 51840, Note_on_c, 1, 78, 90
3, 51899, Note_on_c, 1, 78, 0
3, 51900, Note_on_c, 1, 83, 90
3, 51959, Note_on_c, 1, 83, 0
3, 51960, Note_on_c, 1, 81, 90
3, 52019, Note_on_c, 1, 81, 0
3, 52140, Note_on_c, 1, 74, 90
3, 52199, Note_on_c, 1, 74, 0
3, 52200, Note_on_c, 1, 78, 90
3, 52259, Note_on_c, 1, 78, 0
3, 52260, Note_on_c, 1, 74, 90
3, 52319, Note_on_c, 1, 74, 0
3, 52320, Note_on_c, 1, 69, 90
3, 52379, Note_on_c, 1, 69, 0
3, 53400, Note_on_c, 1, 62, 90
3, 53429, Note_on_c, 1, 62, 0
3, 53430, Note_on_c, 1, 62, 90
3, 53444, Note_on_c, 1, 62, 0
3, 53445, Note_on_c, 1, 62, 90
3, 53459, Note_on_c, 1, 62, 0
3, 53460, Note_on_c, 1, 66, 90
3, 53489, Note_on_c, 1, 66, 0
3, 53490, Note_on_c, 1, 62, 90
3, 53519, Note_on_c, 1, 62, 0
3, 53520, Note_on_c, 1, 66, 90
3, 53549, Note_on_c, 1, 66, 0
3, 53550, Note_on_c, 1, 69, 90
3, 53579, Note_on_c, 1, 69, 0
3, 53580, Note_on_c, 1, 74, 90
3, 53609, Note_on_c, 1, 74, 0
3, 53610, Note_on_c, 1, 69, 90
3, 53639, Note_on_c, 1, 69, 0
3, 53640, Note_on_c, 1, 74, 90
3, 53669, Note_on_c, 1, 74, 0
3, 53670, Note_on_c, 1, 78, 90
3, 53699, Note_on_c, 1, 78, 0
3, 53700, Note_on_c, 1, 74, 90
3, 53729, Note_on_c, 1, 74, 0
3, 53730, Note_on_c, 1, 78, 90
3, 53759, Note_on_c, 1, 78, 0
3, 53760, Note_on_c, 1, 81, 90
3, 53819, Note_on_c, 1, 81, 0
3, 53940, Note_on_c, 1, 78, 90
3, 53999, Note_on_c, 1, 78, 0
3, 54240, Note_on_c, 1, 69, 90
3, 54269, Note_on_c, 1, 69, 0
3, 54270, Note_on_c, 1, 74, 90
3, 54299, Note_on_c, 1, 74, 0
3, 54300, Note_on_c, 1, 76, 90
3, 54329, Note_on_c, 1, 76, 0
3, 54360, Note_on_c, 1, 76, 90
3, 54389, Note_on_c, 1, 76, 0
3, 54420, Note_on_c, 1, 76, 90
3, 54449, Note_on_c, 1, 76, 0
3, 54480, Note_on_c, 1, 76, 90
3, 54539, Note_on_c, 1, 76, 0
3, 54540, Note_on_c, 1, 74, 90
3, 54569, Note_on_c, 1, 74, 0
3, 54570, Note_on_c, 1, 73, 90
3, 54599, Note_on_c, 1, 73, 0
3, 54600, Note_on_c, 1, 74, 90
3, 54659, Note_on_c, 1, 74, 0
3, 54960, Note_on_c, 1, 69, 90
3, 55019, Note_on_c, 1, 69, 0
3, 55020, Note_on_c, 1, 69, 90
3, 55079, Note_on_c, 1, 69, 0
3, 55080, Note_on_c, 1, 76, 90
3, 55139, Note_on_c, 1, 76, 0
3, 55140, Note_on_c, 1, 74, 90
3, 55199, Note_on_c, 1, 74, 0
3, 55200, Note_on_c, 1, 76, 90
3, 55319, Note_on_c, 1, 76, 0
3, 57600, Note_on_c, 1, 74, 100
3, 57660, Note_on_c, 1, 74, 0
3, 57660, Note_on_c, 1, 74, 100
3, 57720, Note_on_c, 1, 74, 0
3, 57720, Note_on_c, 1, 76, 100
3, 57780, Note_on_c, 1, 76, 0
3, 59340, Note_on_c, 1, 83, 100
3, 59400, Note_on_c, 1, 83, 0
3, 59520, Note_on_c, 1, 76, 100
3, 59580, Note_on_c, 1, 76, 0
3, 59700, Note_on_c, 1, 81, 100
3, 59760, Note_on_c, 1, 81, 0
3, 59880, Note_on_c, 1, 74, 100
3, 59940, Note_on_c, 1, 74, 0
3, 60060, Note_on_c, 1, 79, 100
3, 60120, Note_on_c, 1, 79, 0
3, 60240, Note_on_c, 1, 83, 100
3, 60300, Note_on_c, 1, 83, 0
3, 60420, Note_on_c, 1, 81, 100
3, 60480, Note_on_c, 1, 81, 0
3, 60630, Note_on_c, 1, 74, 90
3, 60644, Note_on_c, 1, 74, 0
3, 60645, Note_on_c, 1, 76, 90
3, 60659, Note_on_c, 1, 76, 0
3, 60660, Note_on_c, 1, 78, 90
3, 60689, Note_on_c, 1, 78, 0
3, 60690, Note_on_c, 1, 79, 90
3, 60704, Note_on_c, 1, 79, 0
3, 60705, Note_on_c, 1, 78, 90
3, 60719, Note_on_c, 1, 78, 0
3, 60720, Note_on_c, 1, 76, 90
3, 60749, Note_on_c, 1, 76, 0
3, 60750, Note_on_c, 1, 78, 90
3, 60764, Note_on_c, 1, 78, 0
3, 60765, Note_on_c, 1, 76, 90
3, 60779, Note_on_c, 1, 76, 0
3, 60780, Note_on_c, 1, 74, 90
3, 60959, Note_on_c, 1, 74, 0
3, 200880, Note_on_c, 1, 74, 90
3, 200909, Note_on_c, 1, 74, 0
3, 200910, Note_on_c, 1, 76, 90
3, 200939, Note_on_c, 1, 76, 0
3, 200940, Note_on_c, 1, 74, 90
3, 200999, Note_on_c, 1, 74, 0
3, 201000, Note_on_c, 1, 74, 90
3, 201059, Note_on_c, 1, 74, 0
3, 201120, Note_on_c, 1, 74, 90
3, 201149, Note_on_c, 1, 74, 0
3, 201150, Note_on_c, 1, 76, 90
3, 201179, Note_on_c, 1, 76, 0
3, 201180, Note_on_c, 1, 74, 90
3, 201239, Note_on_c, 1, 74, 0
3, 201240, Note_on_c, 1, 74, 90
3, 201299, Note_on_c, 1, 74, 0
3, 201360, Note_on_c, 1, 79, 90
3, 201419, Note_on_c, 1, 79, 0
3, 201420, Note_on_c, 1, 78, 90
3, 201479, Note_on_c, 1, 78, 0
3, 201480, Note_on_c, 1, 76, 90
3, 201539, Note_on_c, 1, 76, 0
3, 201540, Note_on_c, 1, 74, 90
3, 201569, Note_on_c, 1, 74, 0
3, 201570, Note_on_c, 1, 78, 90
3, 201599, Note_on_c, 1, 78, 0
3, 201600, Note_on_c, 1, 79, 90
3, 201629, Note_on_c, 1, 79, 0
3, 201630, Note_on_c, 1, 76, 90
3, 201659, Note_on_c, 1, 76, 0
3, 201660, Note_on_c, 1, 78, 90
3, 201719, Note_on_c, 1, 78, 0
3, 202560, Note_on_c, 1, 66, 90
3, 202589, Note_on_c, 1, 66, 0
3, 202590, Note_on_c, 1, 69, 90
3, 202619, Note_on_c, 1, 69, 0
3, 202620, Note_on_c, 1, 66, 90
3, 202679, Note_on_c, 1, 66, 0
3, 202680, Note_on_c, 1, 66, 90
3, 202739, Note_on_c, 1, 66, 0
3, 202800, Note_on_c, 1, 66, 90
3, 202829, Note_on_c, 1, 66, 0
3, 202830, Note_on_c, 1, 69, 90
3, 202859, Note_on_c, 1, 69, 0
3, 202860, Note_on_c, 1, 66, 90
3, 202919, Note_on_c, 1, 66, 0
3, 202920, Note_on_c, 1, 66, 90
3, 202979, Note_on_c, 1, 66, 0
3, 203040, Note_on_c, 1, 76, 90
3, 203099, Note_on_c, 1, 76, 0
3, 203100, Note_on_c, 1, 74, 90
3, 203159, Note_on_c, 1, 74, 0
3, 203160, Note_on_c, 1, 69, 90
3, 203219, Note_on_c, 1, 69, 0
3, 203220, Note_on_c, 1, 66, 90
3, 203249, Note_on_c, 1, 66, 0
3, 203250, Note_on_c, 1, 62, 90
3, 203279, Note_on_c, 1, 62, 0
3, 203280, Note_on_c, 1, 66, 90
3, 203309, Note_on_c, 1, 66, 0
3, 203310, Note_on_c, 1, 69, 90
3, 203339, Note_on_c, 1, 69, 0
3, 203340, Note_on_c, 1, 74, 90
3, 203399, Note_on_c, 1, 74, 0
3, 204240, Note_on_c, 1, 81, 90
3, 204269, Note_on_c, 1, 81, 0
3, 204270, Note_on_c, 1, 83, 90
3, 204299, Note_on_c, 1, 83, 0
3, 204300, Note_on_c, 1, 81, 90
3, 204359, Note_on_c, 1, 81, 0
3, 204360, Note_on_c, 1, 81, 90
3, 204419, Note_on_c, 1, 81, 0
3, 204480, Note_on_c, 1, 81, 90
3, 204509, Note_on_c, 1, 81, 0
3, 204510, Note_on_c, 1, 83, 90
3, 204539, Note_on_c, 1, 83, 0
3, 204540, Note_on_c, 1, 81, 90
3, 204599, Note_on_c, 1, 81, 0
3, 204600, Note_on_c, 1, 81, 90
3, 204659, Note_on_c, 1, 81, 0
3, 204720, Note_on_c, 1, 83, 90
3, 204779, Note_on_c, 1, 83, 0
3, 204780, Note_on_c, 1, 81, 90
3, 204839, Note_on_c, 1, 81, 0
3, 204840, Note_on_c, 1, 80, 90
3, 204899, Note_on_c, 1, 80, 0
3, 204900, Note_on_c, 1, 81, 90
3, 204929, Note_on_c, 1, 81, 0
3, 204930, Note_on_c, 1, 79, 90
3, 204959, Note_on_c, 1, 79, 0
3, 204960, Note_on_c, 1, 78, 90
3, 204989, Note_on_c, 1, 78, 0
3, 204990, Note_on_c, 1, 76, 90
3, 205019, Note_on_c, 1, 76, 0
3, 205020, Note_on_c, 1, 74, 90
3, 205079, Note_on_c, 1, 74, 0
3, 205920, Note_on_c, 1, 74, 90
3, 205949, Note_on_c, 1, 74, 0
3, 205950, Note_on_c, 1, 76, 90
3, 205979, Note_on_c, 1, 76, 0
3, 205980, Note_on_c, 1, 74, 90
3, 206039, Note_on_c, 1, 74, 0
3, 206040, Note_on_c, 1, 74, 90
3, 206099, Note_on_c, 1, 74, 0
3, 206160, Note_on_c, 1, 74, 90
3, 206189, Note_on_c, 1, 74, 0
3, 206190, Note_on_c, 1, 76, 90
3, 206219, Note_on_c, 1, 76, 0
3, 206220, Note_on_c, 1, 74, 90
3, 206279, Note_on_c, 1, 74, 0
3, 206280, Note_on_c, 1, 74, 90
3, 206339, Note_on_c, 1, 74, 0
3, 206400, Note_on_c, 1, 79, 90
3, 206459, Note_on_c, 1, 79, 0
3, 206460, Note_on_c, 1, 78, 90
3, 206519, Note_on_c, 1, 78, 0
3, 206520, Note_on_c, 1, 76, 90
3, 206579, Note_on_c, 1, 76, 0
3, 206580, Note_on_c, 1, 74, 90
3, 206609, Note_on_c, 1, 74, 0
3, 206610, Note_on_c, 1, 78, 90
3, 206639, Note_on_c, 1, 78, 0
3, 206640, Note_on_c, 1, 79, 90
3, 206669, Note_on_c, 1, 79, 0
3, 206670, Note_on_c, 1, 76, 90
3, 206699, Note_on_c, 1, 76, 0
3, 206700, Note_on_c, 1, 78, 90
3, 206759, Note_on_c, 1, 78, 0
3, 206760, Note_on_c, 1, 74, 90
3, 206819, Note_on_c, 1, 74, 0
3, 206820, Note_on_c, 1, 74, 90
3, 206939, Note_on_c, 1, 74, 0
3, 206940, Note_on_c, 1, 69, 90
3, 206969, Note_on_c, 1, 69, 0
3, 206970, Note_on_c, 1, 66, 90
3, 206999, Note_on_c, 1, 66, 0
3, 207000, Note_on_c, 1, 69, 90
3, 207059, Note_on_c, 1, 69, 0
3, 207060, Note_on_c, 1, 66, 90
3, 207179, Note_on_c, 1, 66, 0
3, 207179, End_track
4, 0, Start_track
4, 0, MIDI_port, 0
4, 0, Title_t, "Tromba III"
4, 0, Control_c, 0, 91, 103
4, 1080, Note_on_c, 0, 62, 90
4, 1109, Note_on_c, 0, 62, 0
4, 1110, Note_on_c, 0, 62, 90
4, 1124, Note_on_c, 0, 62, 0
4, 1125, Note_on_c, 0, 62, 90
4, 1139, Note_on_c, 0, 62, 0
4, 1140, Note_on_c, 0, 66, 90
4, 1169, Note_on_c, 0, 66, 0
4, 1170, Note_on_c, 0, 62, 90
4, 1199, Note_on_c, 0, 62, 0
4, 1200, Note_on_c, 0, 66, 90
4, 1229, Note_on_c, 0, 66, 0
4, 1230, Note_on_c, 0, 69, 90
4, 1259, Note_on_c, 0, 69, 0
4, 1260, Note_on_c, 0, 74, 90
4, 1289, Note_on_c, 0, 74, 0
4, 1290, Note_on_c, 0, 69, 90
4, 1319, Note_on_c, 0, 69, 0
4, 1320, Note_on_c, 0, 74, 90
4, 1349, Note_on_c, 0, 74, 0
4, 1350, Note_on_c, 0, 78, 90
4, 1379, Note_on_c, 0, 78, 0
4, 1380, Note_on_c, 0, 74, 90
4, 1409, Note_on_c, 0, 74, 0
4, 1410, Note_on_c, 0, 78, 90
4, 1439, Note_on_c, 0, 78, 0
4, 1440, Note_on_c, 0, 81, 90
4, 1499, Note_on_c, 0, 81, 0
4, 1740, Note_on_c, 0, 69, 90
4, 1799, Note_on_c, 0, 69, 0
4, 1800, Note_on_c, 0, 69, 90
4, 1859, Note_on_c, 0, 69, 0
4, 1860, Note_on_c, 0, 69, 90
4, 1889, Note_on_c, 0, 69, 0
4, 1890, Note_on_c, 0, 69, 90
4, 1919, Note_on_c, 0, 69, 0
4, 1920, Note_on_c, 0, 69, 90
4, 1949, Note_on_c, 0, 69, 0
4, 1950, Note_on_c, 0, 69, 90
4, 1979, Note_on_c, 0, 69, 0
4, 1980, Note_on_c, 0, 69, 90
4, 2039, Note_on_c, 0, 69, 0
4, 2040, Note_on_c, 0, 74, 90
4, 2069, Note_on_c, 0, 74, 0
4, 2070, Note_on_c, 0, 69, 90
4, 2099, Note_on_c, 0, 69, 0
4, 2100, Note_on_c, 0, 66, 90
4, 2129, Note_on_c, 0, 66, 0
4, 2130, Note_on_c, 0, 62, 90
4, 2159, Note_on_c, 0, 62, 0
4, 2460, Note_on_c, 0, 69, 90
4, 2519, Note_on_c, 0, 69, 0
4, 2520, Note_on_c, 0, 62, 90
4, 2579, Note_on_c, 0, 62, 0
4, 2640, Note_on_c, 0, 62, 90
4, 2699, Note_on_c, 0, 62, 0
4, 2700, Note_on_c, 0, 69, 90
4, 2819, Note_on_c, 0, 69, 0
4, 4320, Note_on_c, 0, 74, 100
4, 4380, Note_on_c, 0, 74, 0
4, 4500, Note_on_c, 0, 74, 100
4, 4560, Note_on_c, 0, 74, 0
4, 4680, Note_on_c, 0, 69, 100
4, 4740, Note_on_c, 0, 69, 0
4, 4860, Note_on_c, 0, 69, 100
4, 4920, Note_on_c, 0, 69, 0
4, 5040, Note_on_c, 0, 74, 100
4, 5100, Note_on_c, 0, 74, 0
4, 5220, Note_on_c, 0, 76, 100
4, 5280, Note_on_c, 0, 76, 0
4, 5400, Note_on_c, 0, 76, 100
4, 5460, Note_on_c, 0, 76, 0
4, 5580, Note_on_c, 0, 69, 100
4, 5640, Note_on_c, 0, 69, 0
4, 5640, Note_on_c, 0, 69, 100
4, 5670, Note_on_c, 0, 69, 0
4, 5670, Note_on_c, 0, 69, 100
4, 5700, Note_on_c, 0, 69, 0
4, 5700, Note_on_c, 0, 69, 100
4, 5730, Note_on_c, 0, 69, 0
4, 5730, Note_on_c, 0, 69, 100
4, 5760, Note_on_c, 0, 69, 0
4, 5760, Note_on_c, 0, 69, 100
4, 5820, Note_on_c, 0, 69, 0
4, 7200, Note_on_c, 0, 62, 90
4, 7229, Note_on_c, 0, 62, 0
4, 7230, Note_on_c, 0, 62, 90
4, 7244, Note_on_c, 0, 62, 0
4, 7245, Note_on_c, 0, 62, 90
4, 7259, Note_on_c, 0, 62, 0
4, 7260, Note_on_c, 0, 66, 90
4, 7289, Note_on_c, 0, 66, 0
4, 7290, Note_on_c, 0, 62, 90
4, 7319, Note_on_c, 0, 62, 0
4, 7320, Note_on_c, 0, 66, 90
4, 7349, Note_on_c, 0, 66, 0
4, 7350, Note_on_c, 0, 69, 90
4, 7379, Note_on_c, 0, 69, 0
4, 7380, Note_on_c, 0, 74, 90
4, 7409, Note_on_c, 0, 74, 0
4, 7410, Note_on_c, 0, 69, 90
4, 7439, Note_on_c, 0, 69, 0
4, 7440, Note_on_c, 0, 74, 90
4, 7469, Note_on_c, 0, 74, 0
4, 7470, Note_on_c, 0, 78, 90
4, 7499, Note_on_c, 0, 78, 0
4, 7500, Note_on_c, 0, 74, 90
4, 7529, Note_on_c, 0, 74, 0
4, 7530, Note_on_c, 0, 78, 90
4, 7559, Note_on_c, 0, 78, 0
4, 7560, Note_on_c, 0, 81, 90
4, 7619, Note_on_c, 0, 81, 0
4, 7860, Note_on_c, 0, 69, 90
4, 7919, Note_on_c, 0, 69, 0
4, 7920, Note_on_c, 0, 69, 90
4, 7979, Note_on_c, 0, 69, 0
4, 7980, Note_on_c, 0, 69, 90
4, 8009, Note_on_c, 0, 69, 0
4, 8010, Note_on_c, 0, 69, 90
4, 8039, Note_on_c, 0, 69, 0
4, 8040, Note_on_c, 0, 69, 90
4, 8069, Note_on_c, 0, 69, 0
4, 8070, Note_on_c, 0, 69, 90
4, 8099, Note_on_c, 0, 69, 0
4, 8100, Note_on_c, 0, 69, 90
4, 8159, Note_on_c, 0, 69, 0
4, 8160, Note_on_c, 0, 74, 90
4, 8189, Note_on_c, 0, 74, 0
4, 8190, Note_on_c, 0, 69, 90
4, 8219, Note_on_c, 0, 69, 0
4, 8220, Note_on_c, 0, 66, 90
4, 8249, Note_on_c, 0, 66, 0
4, 8250, Note_on_c, 0, 62, 90
4, 8279, Note_on_c, 0, 62, 0
4, 8580, Note_on_c, 0, 69, 90
4, 8639, Note_on_c, 0, 69, 0
4, 8640, Note_on_c, 0, 62, 90
4, 8699, Note_on_c, 0, 62, 0
4, 8820, Note_on_c, 0, 69, 90
4, 8939, Note_on_c, 0, 69, 0
4, 14400, Note_on_c, 0, 76, 90
4, 14429, Note_on_c, 0, 76, 0
4, 14460, Note_on_c, 0, 76, 90
4, 14489, Note_on_c, 0, 76, 0
4, 14520, Note_on_c, 0, 76, 90
4, 14549, Note_on_c, 0, 76, 0
4, 14580, Note_on_c, 0, 76, 90
4, 14639, Note_on_c, 0, 76, 0
4, 14640, Note_on_c, 0, 76, 90
4, 14669, Note_on_c, 0, 76, 0
4, 14670, Note_on_c, 0, 76, 90
4, 14699, Note_on_c, 0, 76, 0
4, 14700, Note_on_c, 0, 76, 90
4, 14759, Note_on_c, 0, 76, 0
4, 15420, Note_on_c, 0, 62, 90
4, 15479, Note_on_c, 0, 62, 0
4, 15480, Note_on_c, 0, 66, 90
4, 15539, Note_on_c, 0, 66, 0
4, 15540, Note_on_c, 0, 62, 90
4, 15569, Note_on_c, 0, 62, 0
4, 15570, Note_on_c, 0, 62, 90
4, 15599, Note_on_c, 0, 62, 0
4, 15600, Note_on_c, 0, 62, 90
4, 15629, Note_on_c, 0, 62, 0
4, 15630, Note_on_c, 0, 62, 90
4, 15659, Note_on_c, 0, 62, 0
4, 15660, Note_on_c, 0, 69, 90
4, 15719, Note_on_c, 0, 69, 0
4, 15840, Note_on_c, 0, 69, 90
4, 15899, Note_on_c, 0, 69, 0
4, 15900, Note_on_c, 0, 74, 90
4, 15959, Note_on_c, 0, 74, 0
4, 15960, Note_on_c, 0, 69, 90
4, 16019, Note_on_c, 0, 69, 0
4, 16020, Note_on_c, 0, 66, 90
4, 16079, Note_on_c, 0, 66, 0
4, 17280, Note_on_c, 0, 62, 90
4, 17309, Note_on_c, 0, 62, 0
4, 17310, Note_on_c, 0, 62, 90
4, 17324, Note_on_c, 0, 62, 0
4, 17325, Note_on_c, 0, 62, 90
4, 17339, Note_on_c, 0, 62, 0
4, 17340, Note_on_c, 0, 66, 90
4, 17369, Note_on_c, 0, 66, 0
4, 17370, Note_on_c, 0, 62, 90
4, 17399, Note_on_c, 0, 62, 0
4, 17400, Note_on_c, 0, 66, 90
4, 17429, Note_on_c, 0, 66, 0
4, 17430, Note_on_c, 0, 69, 90
4, 17459, Note_on_c, 0, 69, 0
4, 17460, Note_on_c, 0, 74, 90
4, 17489, Note_on_c, 0, 74, 0
4, 17490, Note_on_c, 0, 69, 90
4, 17519, Note_on_c, 0, 69, 0
4, 17520, Note_on_c, 0, 74, 90
4, 17549, Note_on_c, 0, 74, 0
4, 17550, Note_on_c, 0, 78, 90
4, 17579, Note_on_c, 0, 78, 0
4, 17580, Note_on_c, 0, 74, 90
4, 17609, Note_on_c, 0, 74, 0
4, 17610, Note_on_c, 0, 78, 90
4, 17639, Note_on_c, 0, 78, 0
4, 17640, Note_on_c, 0, 81, 90
4, 17699, Note_on_c, 0, 81, 0
4, 17940, Note_on_c, 0, 69, 90
4, 17999, Note_on_c, 0, 69, 0
4, 18000, Note_on_c, 0, 69, 90
4, 18029, Note_on_c, 0, 69, 0
4, 18060, Note_on_c, 0, 69, 90
4, 18089, Note_on_c, 0, 69, 0
4, 18120, Note_on_c, 0, 69, 90
4, 18149, Note_on_c, 0, 69, 0
4, 18180, Note_on_c, 0, 69, 90
4, 18239, Note_on_c, 0, 69, 0
4, 18240, Note_on_c, 0, 74, 90
4, 18269, Note_on_c, 0, 74, 0
4, 18270, Note_on_c, 0, 69, 90
4, 18299, Note_on_c, 0, 69, 0
4, 18300, Note_on_c, 0, 66, 90
4, 18329, Note_on_c, 0, 66, 0
4, 18330, Note_on_c, 0, 62, 90
4, 18359, Note_on_c, 0, 62, 0
4, 18660, Note_on_c, 0, 69, 90
4, 18720, Note_on_c, 0, 69, 0
4, 18720, Note_on_c, 0, 62, 90
4, 18780, Note_on_c, 0, 62, 0
4, 18900, Note_on_c, 0, 69, 90
4, 19020, Note_on_c, 0, 69, 0
4, 21300, Note_on_c, 0, 69, 90
4, 21360, Note_on_c, 0, 69, 0
4, 21360, Note_on_c, 0, 62, 90
4, 21420, Note_on_c, 0, 62, 0
4, 21420, Note_on_c, 0, 69, 90
4, 21480, Note_on_c, 0, 69, 0
4, 23040, Note_on_c, 0, 74, 90
4, 23100, Note_on_c, 0, 74, 0
4, 23220, Note_on_c, 0, 74, 90
4, 23280, Note_on_c, 0, 74, 0
4, 23400, Note_on_c, 0, 69, 90
4, 23460, Note_on_c, 0, 69, 0
4, 23580, Note_on_c, 0, 69, 90
4, 23640, Note_on_c, 0, 69, 0
4, 23760, Note_on_c, 0, 74, 90
4, 23820, Note_on_c, 0, 74, 0
4, 23940, Note_on_c, 0, 76, 90
4, 24000, Note_on_c, 0, 76, 0
4, 24120, Note_on_c, 0, 76, 90
4, 24180, Note_on_c, 0, 76, 0
4, 24300, Note_on_c, 0, 69, 90
4, 24360, Note_on_c, 0, 69, 0
4, 24360, Note_on_c, 0, 69, 90
4, 24390, Note_on_c, 0, 69, 0
4, 24390, Note_on_c, 0, 69, 90
4, 24420, Note_on_c, 0, 69, 0
4, 24420, Note_on_c, 0, 69, 90
4, 24450, Note_on_c, 0, 69, 0
4, 24450, Note_on_c, 0, 69, 90
4, 24480, Note_on_c, 0, 69, 0
4, 24480, Note_on_c, 0, 69, 90
4, 24660, Note_on_c, 0, 69, 0
4, 36300, Control_c, 0, 91, 103
4, 37380, Note_on_c, 0, 62, 90
4, 37409, Note_on_c, 0, 62, 0
4, 37410, Note_on_c, 0, 62, 90
4, 37424, Note_on_c, 0, 62, 0
4, 37425, Note_on_c, 0, 62, 90
4, 37439, Note_on_c, 0, 62, 0
4, 37440, Note_on_c, 0, 66, 90
4, 37469, Note_on_c, 0, 66, 0
4, 37470, Note_on_c, 0, 62, 90
4, 37499, Note_on_c, 0, 62, 0
4, 37500, Note_on_c, 0, 66, 90
4, 37529, Note_on_c, 0, 66, 0
4, 37530, Note_on_c, 0, 69, 90
4, 37559, Note_on_c, 0, 69, 0
4, 37560, Note_on_c, 0, 74, 90
4, 37589, Note_on_c, 0, 74, 0
4, 37590, Note_on_c, 0, 69, 90
4, 37619, Note_on_c, 0, 69, 0
4, 37620, Note_on_c, 0, 74, 90
4, 37649, Note_on_c, 0, 74, 0
4, 37650, Note_on_c, 0, 78, 90
4, 37679, Note_on_c, 0, 78, 0
4, 37680, Note_on_c, 0, 74, 90
4, 37709, Note_on_c, 0, 74, 0
4, 37710, Note_on_c, 0, 78, 90
4, 37739, Note_on_c, 0, 78, 0
4, 37740, Note_on_c, 0, 81, 90
4, 37799, Note_on_c, 0, 81, 0
4, 38040, Note_on_c, 0, 69, 90
4, 38099, Note_on_c, 0, 69, 0
4, 38100, Note_on_c, 0, 69, 90
4, 38159, Note_on_c, 0, 69, 0
4, 38160, Note_on_c, 0, 69, 90
4, 38189, Note_on_c, 0, 69, 0
4, 38190, Note_on_c, 0, 69, 90
4, 38219, Note_on_c, 0, 69, 0
4, 38220, Note_on_c, 0, 69, 90
4, 38249, Note_on_c, 0, 69, 0
4, 38250, Note_on_c, 0, 69, 90
4, 38279, Note_on_c, 0, 69, 0
4, 38280, Note_on_c, 0, 69, 90
4, 38339, Note_on_c, 0, 69, 0
4, 38340, Note_on_c, 0, 74, 90
4, 38369, Note_on_c, 0, 74, 0
4, 38370, Note_on_c, 0, 69, 90
4, 38399, Note_on_c, 0, 69, 0
4, 38400, Note_on_c, 0, 66, 90
4, 38429, Note_on_c, 0, 66, 0
4, 38430, Note_on_c, 0, 62, 90
4, 38459, Note_on_c, 0, 62, 0
4, 38760, Note_on_c, 0, 69, 90
4, 38819, Note_on_c, 0, 69, 0
4, 38820, Note_on_c, 0, 62, 90
4, 38879, Note_on_c, 0, 62, 0
4, 38940, Note_on_c, 0, 62, 90
4, 38999, Note_on_c, 0, 62, 0
4, 39000, Note_on_c, 0, 69, 90
4, 39119, Note_on_c, 0, 69, 0
4, 40620, Note_on_c, 0, 74, 100
4, 40680, Note_on_c, 0, 74, 0
4, 40800, Note_on_c, 0, 74, 100
4, 40860, Note_on_c, 0, 74, 0
4, 40980, Note_on_c, 0, 69, 100
4, 41040, Note_on_c, 0, 69, 0
4, 41160, Note_on_c, 0, 69, 100
4, 41220, Note_on_c, 0, 69, 0
4, 41340, Note_on_c, 0, 74, 100
4, 41400, Note_on_c, 0, 74, 0
4, 41520, Note_on_c, 0, 76, 100
4, 41580, Note_on_c, 0, 76, 0
4, 41700, Note_on_c, 0, 76, 100
4, 41760, Note_on_c, 0, 76, 0
4, 41880, Note_on_c, 0, 69, 100
4, 41940, Note_on_c, 0, 69, 0
4, 41940, Note_on_c, 0, 69, 100
4, 41970, Note_on_c, 0, 69, 0
4, 41970, Note_on_c, 0, 69, 100
4, 42000, Note_on_c, 0, 69, 0
4, 42000, Note_on_c, 0, 69, 100
4, 42030, Note_on_c, 0, 69, 0
4, 42030, Note_on_c, 0, 69, 100
4, 42060, Note_on_c, 0, 69, 0
4, 42060, Note_on_c, 0, 69, 100
4, 42120, Note_on_c, 0, 69, 0
4, 43500, Note_on_c, 0, 62, 90
4, 43529, Note_on_c, 0, 62, 0
4, 43530, Note_on_c, 0, 62, 90
4, 43544, Note_on_c, 0, 62, 0
4, 43545, Note_on_c, 0, 62, 90
4, 43559, Note_on_c, 0, 62, 0
4, 43560, Note_on_c, 0, 66, 90
4, 43589, Note_on_c, 0, 66, 0
4, 43590, Note_on_c, 0, 62, 90
4, 43619, Note_on_c, 0, 62, 0
4, 43620, Note_on_c, 0, 66, 90
4, 43649, Note_on_c, 0, 66, 0
4, 43650, Note_on_c, 0, 69, 90
4, 43679, Note_on_c, 0, 69, 0
4, 43680, Note_on_c, 0, 74, 90
4, 43709, Note_on_c, 0, 74, 0
4, 43710, Note_on_c, 0, 69, 90
4, 43739, Note_on_c, 0, 69, 0
4, 43740, Note_on_c, 0, 74, 90
4, 43769, Note_on_c, 0, 74, 0
4, 43770, Note_on_c, 0, 78, 90
4, 43799, Note_on_c, 0, 78, 0
4, 43800, Note_on_c, 0, 74, 90
4, 43829, Note_on_c, 0, 74, 0
4, 43830, Note_on_c, 0, 78, 90
4, 43859, Note_on_c, 0, 78, 0
4, 43860, Note_on_c, 0, 81, 90
4, 43919, Note_on_c, 0, 81, 0
4, 44160, Note_on_c, 0, 69, 90
4, 44219, Note_on_c, 0, 69, 0
4, 44220, Note_on_c, 0, 69, 90
4, 44279, Note_on_c, 0, 69, 0
4, 44280, Note_on_c, 0, 69, 90
4, 44309, Note_on_c, 0, 69, 0
4, 44310, Note_on_c, 0, 69, 90
4, 44339, Note_on_c, 0, 69, 0
4, 44340, Note_on_c, 0, 69, 90
4, 44369, Note_on_c, 0, 69, 0
4, 44370, Note_on_c, 0, 69, 90
4, 44399, Note_on_c, 0, 69, 0
4, 44400, Note_on_c, 0, 69, 90
4, 44459, Note_on_c, 0, 69, 0
4, 44460, Note_on_c, 0, 74, 90
4, 44489, Note_on_c, 0, 74, 0
4, 44490, Note_on_c, 0, 69, 90
4, 44519, Note_on_c, 0, 69, 0
4, 44520, Note_on_c, 0, 66, 90
4, 44549, Note_on_c, 0, 66, 0
4, 44550, Note_on_c, 0, 62, 90
4, 44579, Note_on_c, 0, 62, 0
4, 44880, Note_on_c, 0, 69, 90
4, 44939, Note_on_c, 0, 69, 0
4, 44940, Note_on_c, 0, 62, 90
4, 44999, Note_on_c, 0, 62, 0
4, 45120, Note_on_c, 0, 69, 90
4, 45239, Note_on_c, 0, 69, 0
4, 50700, Note_on_c, 0, 76, 90
4, 50729, Note_on_c, 0, 76, 0
4, 50760, Note_on_c, 0, 76, 90
4, 50789, Note_on_c, 0, 76, 0
4, 50820, Note_on_c, 0, 76, 90
4, 50849, Note_on_c, 0, 76, 0
4, 50880, Note_on_c, 0, 76, 90
4, 50939, Note_on_c, 0, 76, 0
4, 50940, Note_on_c, 0, 76, 90
4, 50969, Note_on_c, 0, 76, 0
4, 50970, Note_on_c, 0, 76, 90
4, 50999, Note_on_c, 0, 76, 0
4, 51000, Note_on_c, 0, 76, 90
4, 51059, Note_on_c, 0, 76, 0
4, 51720, Note_on_c, 0, 62, 90
4, 51779, Note_on_c, 0, 62, 0
4, 51780, Note_on_c, 0, 66, 90
4, 51839, Note_on_c, 0, 66, 0
4, 51840, Note_on_c, 0, 62, 90
4, 51869, Note_on_c, 0, 62, 0
4, 51870, Note_on_c, 0, 62, 90
4, 51899, Note_on_c, 0, 62, 0
4, 51900, Note_on_c, 0, 62, 90
4, 51929, Note_on_c, 0, 62, 0
4, 51930, Note_on_c, 0, 62, 90
4, 51959, Note_on_c, 0, 62, 0
4, 51960, Note_on_c, 0, 69, 90
4, 52019, Note_on_c, 0, 69, 0
4, 52140, Note_on_c, 0, 69, 90
4, 52199, Note_on_c, 0, 69, 0
4, 52200, Note_on_c, 0, 74, 90
4, 52259, Note_on_c, 0, 74, 0
4, 52260, Note_on_c, 0, 69, 90
4, 52319, Note_on_c, 0, 69, 0
4, 52320, Note_on_c, 0, 66, 90
4, 52379, Note_on_c, 0, 66, 0
4, 53580, Note_on_c, 0, 62, 90
4, 53609, Note_on_c, 0, 62, 0
4, 53610, Note_on_c, 0, 62, 90
4, 53624, Note_on_c, 0, 62, 0
4, 53625, Note_on_c, 0, 62, 90
4, 53639, Note_on_c, 0, 62, 0
4, 53640, Note_on_c, 0, 66, 90
4, 53669, Note_on_c, 0, 66, 0
4, 53670, Note_on_c, 0, 62, 90
4, 53699, Note_on_c, 0, 62, 0
4, 53700, Note_on_c, 0, 66, 90
4, 53729, Note_on_c, 0, 66, 0
4, 53730, Note_on_c, 0, 69, 90
4, 53759, Note_on_c, 0, 69, 0
4, 53760, Note_on_c, 0, 74, 90
4, 53789, Note_on_c, 0, 74, 0
4, 53790, Note_on_c, 0, 69, 90
4, 53819, Note_on_c, 0, 69, 0
4, 53820, Note_on_c, 0, 74, 90
4, 53849, Note_on_c, 0, 74, 0
4, 53850, Note_on_c, 0, 78, 90
4, 53879, Note_on_c, 0, 78, 0
4, 53880, Note_on_c, 0, 74, 90
4, 53909, Note_on_c, 0, 74, 0
4, 53910, Note_on_c, 0, 78, 90
4, 53939, Note_on_c, 0, 78, 0
4, 53940, Note_on_c, 0, 81, 90
4, 53999, Note_on_c, 0, 81, 0
4, 54240, Note_on_c, 0, 69, 90
4, 54299, Note_on_c, 0, 69, 0
4, 54300, Note_on_c, 0, 69, 90
4, 54329, Note_on_c, 0, 69, 0
4, 54360, Note_on_c, 0, 69, 90
4, 54389, Note_on_c, 0, 69, 0
4, 54420, Note_on_c, 0, 69, 90
4, 54449, Note_on_c, 0, 69, 0
4, 54480, Note_on_c, 0, 69, 90
4, 54539, Note_on_c, 0, 69, 0
4, 54540, Note_on_c, 0, 74, 90
4, 54569, Note_on_c, 0, 74, 0
4, 54570, Note_on_c, 0, 69, 90
4, 54599, Note_on_c, 0, 69, 0
4, 54600, Note_on_c, 0, 66, 90
4, 54629, Note_on_c, 0, 66, 0
4, 54630, Note_on_c, 0, 62, 90
4, 54659, Note_on_c, 0, 62, 0
4, 54960, Note_on_c, 0, 69, 90
4, 55020, Note_on_c, 0, 69, 0
4, 55020, Note_on_c, 0, 62, 90
4, 55080, Note_on_c, 0, 62, 0
4, 55200, Note_on_c, 0, 69, 90
4, 55320, Note_on_c, 0, 69, 0
4, 57600, Note_on_c, 0, 69, 90
4, 57660, Note_on_c, 0, 69, 0
4, 57660, Note_on_c, 0, 62, 90
4, 57720, Note_on_c, 0, 62, 0
4, 57720, Note_on_c, 0, 69, 90
4, 57780, Note_on_c, 0, 69, 0
4, 59340, Note_on_c, 0, 74, 90
4, 59400, Note_on_c, 0, 74, 0
4, 59520, Note_on_c, 0, 74, 90
4, 59580, Note_on_c, 0, 74, 0
4, 59700, Note_on_c, 0, 69, 90
4, 59760, Note_on_c, 0, 69, 0
4, 59880, Note_on_c, 0, 69, 90
4, 59940, Note_on_c, 0, 69, 0
4, 60060, Note_on_c, 0, 74, 90
4, 60120, Note_on_c, 0, 74, 0
4, 60240, Note_on_c, 0, 76, 90
4, 60300, Note_on_c, 0, 76, 0
4, 60420, Note_on_c, 0, 76, 90
4, 60480, Note_on_c, 0, 76, 0
4, 60600, Note_on_c, 0, 69, 90
4, 60660, Note_on_c, 0, 69, 0
4, 60660, Note_on_c, 0, 69, 90
4, 60690, Note_on_c, 0, 69, 0
4, 60690, Note_on_c, 0, 69, 90
4, 60720, Note_on_c, 0, 69, 0
4, 60720, Note_on_c, 0, 69, 90
4, 60750, Note_on_c, 0, 69, 0
4, 60750, Note_on_c, 0, 69, 90
4, 60780, Note_on_c, 0, 69, 0
4, 60780, Note_on_c, 0, 69, 90
4, 60960, Note_on_c, 0, 69, 0
4, 200820, Note_on_c, 0, 69, 90
4, 200939, Note_on_c, 0, 69, 0
4, 201000, Note_on_c, 0, 69, 90
4, 201029, Note_on_c, 0, 69, 0
4, 201030, Note_on_c, 0, 66, 90
4, 201059, Note_on_c, 0, 66, 0
4, 201060, Note_on_c, 0, 62, 90
4, 201119, Note_on_c, 0, 62, 0
4, 201120, Note_on_c, 0, 66, 90
4, 201179, Note_on_c, 0, 66, 0
4, 201240, Note_on_c, 0, 66, 90
4, 201269, Note_on_c, 0, 66, 0
4, 201270, Note_on_c, 0, 69, 90
4, 201299, Note_on_c, 0, 69, 0
4, 201300, Note_on_c, 0, 74, 90
4, 201359, Note_on_c, 0, 74, 0
4, 201360, Note_on_c, 0, 74, 90
4, 201419, Note_on_c, 0, 74, 0
4, 201420, Note_on_c, 0, 74, 90
4, 201479, Note_on_c, 0, 74, 0
4, 201480, Note_on_c, 0, 69, 90
4, 201539, Note_on_c, 0, 69, 0
4, 201540, Note_on_c, 0, 69, 90
4, 201659, Note_on_c, 0, 69, 0
4, 202500, Note_on_c, 0, 69, 90
4, 202619, Note_on_c, 0, 69, 0
4, 202680, Note_on_c, 0, 69, 90
4, 202709, Note_on_c, 0, 69, 0
4, 202710, Note_on_c, 0, 66, 90
4, 202739, Note_on_c, 0, 66, 0
4, 202740, Note_on_c, 0, 62, 90
4, 202799, Note_on_c, 0, 62, 0
4, 202800, Note_on_c, 0, 66, 90
4, 202859, Note_on_c, 0, 66, 0
4, 202920, Note_on_c, 0, 66, 90
4, 202949, Note_on_c, 0, 66, 0
4, 202950, Note_on_c, 0, 69, 90
4, 202979, Note_on_c, 0, 69, 0
4, 202980, Note_on_c, 0, 74, 90
4, 203039, Note_on_c, 0, 74, 0
4, 203040, Note_on_c, 0, 74, 90
4, 203069, Note_on_c, 0, 74, 0
4, 203070, Note_on_c, 0, 76, 90
4, 203099, Note_on_c, 0, 76, 0
4, 203100, Note_on_c, 0, 78, 90
4, 203129, Note_on_c, 0, 78, 0
4, 203130, Note_on_c, 0, 79, 90
4, 203159, Note_on_c, 0, 79, 0
4, 203160, Note_on_c, 0, 81, 90
4, 203219, Note_on_c, 0, 81, 0
4, 203220, Note_on_c, 0, 69, 90
4, 203339, Note_on_c, 0, 69, 0
4, 204180, Note_on_c, 0, 69, 90
4, 204299, Note_on_c, 0, 69, 0
4, 204360, Note_on_c, 0, 69, 90
4, 204389, Note_on_c, 0, 69, 0
4, 204390, Note_on_c, 0, 76, 90
4, 204419, Note_on_c, 0, 76, 0
4, 204420, Note_on_c, 0, 78, 90
4, 204479, Note_on_c, 0, 78, 0
4, 204480, Note_on_c, 0, 69, 90
4, 204539, Note_on_c, 0, 69, 0
4, 204600, Note_on_c, 0, 66, 90
4, 204629, Note_on_c, 0, 66, 0
4, 204630, Note_on_c, 0, 69, 90
4, 204659, Note_on_c, 0, 69, 0
4, 204660, Note_on_c, 0, 78, 90
4, 204719, Note_on_c, 0, 78, 0
4, 204720, Note_on_c, 0, 78, 90
4, 204779, Note_on_c, 0, 78, 0
4, 204780, Note_on_c, 0, 76, 90
4, 204839, Note_on_c, 0, 76, 0
4, 204840, Note_on_c, 0, 76, 90
4, 204899, Note_on_c, 0, 76, 0
4, 204900, Note_on_c, 0, 76, 90
4, 204959, Note_on_c, 0, 76, 0
4, 205860, Note_on_c, 0, 69, 90
4, 205979, Note_on_c, 0, 69, 0
4, 206040, Note_on_c, 0, 69, 90
4, 206069, Note_on_c, 0, 69, 0
4, 206070, Note_on_c, 0, 66, 90
4, 206099, Note_on_c, 0, 66, 0
4, 206100, Note_on_c, 0, 62, 90
4, 206159, Note_on_c, 0, 62, 0
4, 206160, Note_on_c, 0, 66, 90
4, 206219, Note_on_c, 0, 66, 0
4, 206280, Note_on_c, 0, 66, 90
4, 206309, Note_on_c, 0, 66, 0
4, 206310, Note_on_c, 0, 69, 90
4, 206339, Note_on_c, 0, 69, 0
4, 206340, Note_on_c, 0, 74, 90
4, 206399, Note_on_c, 0, 74, 0
4, 206400, Note_on_c, 0, 74, 90
4, 206459, Note_on_c, 0, 74, 0
4, 206460, Note_on_c, 0, 74, 90
4, 206519, Note_on_c, 0, 74, 0
4, 206520, Note_on_c, 0, 69, 90
4, 206579, Note_on_c, 0, 69, 0
4, 206580, Note_on_c, 0, 62, 90
4, 206699, Note_on_c, 0, 62, 0
4, 206760, Note_on_c, 0, 62, 90
4, 206789, Note_on_c, 0, 62, 0
4, 206790, Note_on_c, 0, 62, 90
4, 206819, Note_on_c, 0, 62, 0
4, 206820, Note_on_c, 0, 62, 90
4, 206879, Note_on_c, 0, 62, 0
4, 206880, Note_on_c, 0, 66, 90
4, 206909, Note_on_c, 0, 66, 0
4, 206910, Note_on_c, 0, 62, 90
4, 206939, Note_on_c, 0, 62, 0
4, 206940, Note_on_c, 0, 69, 90
4, 206999, Note_on_c, 0, 69, 0
4, 207000, Note_on_c, 0, 69, 90
4, 207059, Note_on_c, 0, 69, 0
4, 207060, Note_on_c, 0, 69, 90
4, 207179, Note_on_c, 0, 69, 0
4, 207179, End_track
5, 0, Start_track
5, 0, MIDI_port, 0
5, 0, Title_t, "Timpani"
5, 0, Program_c, 9, 2
5, 0, Note_on_c, 9, 50, 90
5, 4, Control_c, 9, 91, 103
5, 59, Note_on_c, 9, 50, 0
5, 60, Note_on_c, 9, 50, 90
5, 119, Note_on_c, 9, 50, 0
5, 120, Note_on_c, 9, 50, 90
5, 179, Note_on_c, 9, 50, 0
5, 180, Note_on_c, 9, 50, 90
5, 239, Note_on_c, 9, 50, 0
5, 240, Note_on_c, 9, 45, 90
5, 299, Note_on_c, 9, 45, 0
5, 360, Note_on_c, 9, 50, 90
5, 389, Note_on_c, 9, 50, 0
5, 390, Note_on_c, 9, 50, 90
5, 405, Note_on_c, 9, 50, 0
5, 405, Note_on_c, 9, 50, 90
5, 420, Note_on_c, 9, 50, 0
5, 420, Note_on_c, 9, 50, 90
5, 449, Note_on_c, 9, 50, 0
5, 450, Note_on_c, 9, 45, 90
5, 479, Note_on_c, 9, 45, 0
5, 480, Note_on_c, 9, 50, 90
5, 509, Note_on_c, 9, 50, 0
5, 510, Note_on_c, 9, 45, 90
5, 539, Note_on_c, 9, 45, 0
5, 540, Note_on_c, 9, 50, 90
5, 599, Note_on_c, 9, 50, 0
5, 600, Note_on_c, 9, 45, 90
5, 659, Note_on_c, 9, 45, 0
5, 720, Note_on_c, 9, 50, 90
5, 734, Note_on_c, 9, 50, 0
5, 735, Note_on_c, 9, 50, 90
5, 749, Note_on_c, 9, 50, 0
5, 750, Note_on_c, 9, 50, 90
5, 764, Note_on_c, 9, 50, 0
5, 765, Note_on_c, 9, 50, 90
5, 779, Note_on_c, 9, 50, 0
5, 780, Note_on_c, 9, 50, 90
5, 794, Note_on_c, 9, 50, 0
5, 795, Note_on_c, 9, 50, 90
5, 809, Note_on_c, 9, 50, 0
5, 810, Note_on_c, 9, 50, 90
5, 824, Note_on_c, 9, 50, 0
5, 825, Note_on_c, 9, 50, 90
5, 839, Note_on_c, 9, 50, 0
5, 840, Note_on_c, 9, 50, 90
5, 854, Note_on_c, 9, 50, 0
5, 855, Note_on_c, 9, 50, 90
5, 869, Note_on_c, 9, 50, 0
5, 870, Note_on_c, 9, 50, 90
5, 884, Note_on_c, 9, 50, 0
5, 885, Note_on_c, 9, 50, 90
5, 899, Note_on_c, 9, 50, 0
5, 900, Note_on_c, 9, 50, 90
5, 914, Note_on_c, 9, 50, 0
5, 915, Note_on_c, 9, 50, 90
5, 929, Note_on_c, 9, 50, 0
5, 930, Note_on_c, 9, 50, 90
5, 944, Note_on_c, 9, 50, 0
5, 945, Note_on_c, 9, 50, 90
5, 959, Note_on_c, 9, 50, 0
5, 960, Note_on_c, 9, 50, 90
5, 974, Note_on_c, 9, 50, 0
5, 975, Note_on_c, 9, 50, 90
5, 989, Note_on_c, 9, 50, 0
5, 990, Note_on_c, 9, 50, 90
5, 1004, Note_on_c, 9, 50, 0
5, 1005, Note_on_c, 9, 50, 90
5, 1019, Note_on_c, 9, 50, 0
5, 1020, Note_on_c, 9, 50, 90
5, 1034, Note_on_c, 9, 50, 0
5, 1035, Note_on_c, 9, 50, 90
5, 1049, Note_on_c, 9, 50, 0
5, 1050, Note_on_c, 9, 50, 90
5, 1064, Note_on_c, 9, 50, 0
5, 1065, Note_on_c, 9, 50, 90
5, 1079, Note_on_c, 9, 50, 0
5, 1080, Note_on_c, 9, 50, 90
5, 1094, Note_on_c, 9, 50, 0
5, 1095, Note_on_c, 9, 50, 90
5, 1109, Note_on_c, 9, 50, 0
5, 1110, Note_on_c, 9, 50, 90
5, 1124, Note_on_c, 9, 50, 0
5, 1125, Note_on_c, 9, 50, 90
5, 1139, Note_on_c, 9, 50, 0
5, 1140, Note_on_c, 9, 50, 90
5, 1154, Note_on_c, 9, 50, 0
5, 1155, Note_on_c, 9, 50, 90
5, 1169, Note_on_c, 9, 50, 0
5, 1170, Note_on_c, 9, 50, 90
5, 1184, Note_on_c, 9, 50, 0
5, 1185, Note_on_c, 9, 50, 90
5, 1199, Note_on_c, 9, 50, 0
5, 1200, Note_on_c, 9, 50, 90
5, 1214, Note_on_c, 9, 50, 0
5, 1215, Note_on_c, 9, 50, 90
5, 1229, Note_on_c, 9, 50, 0
5, 1230, Note_on_c, 9, 50, 90
5, 1244, Note_on_c, 9, 50, 0
5, 1245, Note_on_c, 9, 50, 90
5, 1259, Note_on_c, 9, 50, 0
5, 1260, Note_on_c, 9, 50, 90
5, 1274, Note_on_c, 9, 50, 0
5, 1275, Note_on_c, 9, 50, 90
5, 1289, Note_on_c, 9, 50, 0
5, 1290, Note_on_c, 9, 50, 90
5, 1304, Note_on_c, 9, 50, 0
5, 1305, Note_on_c, 9, 50, 90
5, 1319, Note_on_c, 9, 50, 0
5, 1320, Note_on_c, 9, 50, 90
5, 1334, Note_on_c, 9, 50, 0
5, 1335, Note_on_c, 9, 50, 90
5, 1349, Note_on_c, 9, 50, 0
5, 1350, Note_on_c, 9, 50, 90
5, 1364, Note_on_c, 9, 50, 0
5, 1365, Note_on_c, 9, 50, 90
5, 1379, Note_on_c, 9, 50, 0
5, 1380, Note_on_c, 9, 50, 90
5, 1394, Note_on_c, 9, 50, 0
5, 1395, Note_on_c, 9, 50, 90
5, 1409, Note_on_c, 9, 50, 0
5, 1410, Note_on_c, 9, 50, 90
5, 1424, Note_on_c, 9, 50, 0
5, 1425, Note_on_c, 9, 50, 90
5, 1439, Note_on_c, 9, 50, 0
5, 1440, Note_on_c, 9, 50, 90
5, 1499, Note_on_c, 9, 50, 0
5, 1500, Note_on_c, 9, 50, 90
5, 1559, Note_on_c, 9, 50, 0
5, 1560, Note_on_c, 9, 50, 90
5, 1619, Note_on_c, 9, 50, 0
5, 1620, Note_on_c, 9, 50, 90
5, 1679, Note_on_c, 9, 50, 0
5, 1680, Note_on_c, 9, 45, 90
5, 1739, Note_on_c, 9, 45, 0
5, 2460, Note_on_c, 9, 45, 90
5, 2519, Note_on_c, 9, 45, 0
5, 2520, Note_on_c, 9, 50, 90
5, 2579, Note_on_c, 9, 50, 0
5, 2580, Note_on_c, 9, 50, 90
5, 2609, Note_on_c, 9, 50, 0
5, 2610, Note_on_c, 9, 50, 90
5, 2639, Note_on_c, 9, 50, 0
5, 2640, Note_on_c, 9, 50, 90
5, 2669, Note_on_c, 9, 50, 0
5, 2670, Note_on_c, 9, 50, 90
5, 2699, Note_on_c, 9, 50, 0
5, 2700, Note_on_c, 9, 45, 90
5, 2819, Note_on_c, 9, 45, 0
5, 4320, Note_on_c, 9, 50, 100
5, 4380, Note_on_c, 9, 50, 0
5, 4680, Note_on_c, 9, 45, 100
5, 4740, Note_on_c, 9, 45, 0
5, 5040, Note_on_c, 9, 50, 100
5, 5100, Note_on_c, 9, 50, 0
5, 5400, Note_on_c, 9, 45, 100
5, 5460, Note_on_c, 9, 45, 0
5, 5460, Note_on_c, 9, 45, 100
5, 5490, Note_on_c, 9, 45, 0
5, 5490, Note_on_c, 9, 45, 100
5, 5520, Note_on_c, 9, 45, 0
5, 5520, Note_on_c, 9, 45, 100
5, 5550, Note_on_c, 9, 45, 0
5, 5550, Note_on_c, 9, 45, 100
5, 5580, Note_on_c, 9, 45, 0
5, 5580, Note_on_c, 9, 50, 100
5, 5610, Note_on_c, 9, 50, 0
5, 5610, Note_on_c, 9, 50, 90
5, 5624, Note_on_c, 9, 50, 0
5, 5625, Note_on_c, 9, 50, 90
5, 5639, Note_on_c, 9, 50, 0
5, 5640, Note_on_c, 9, 50, 100
5, 5670, Note_on_c, 9, 50, 0
5, 5670, Note_on_c, 9, 50, 100
5, 5700, Note_on_c, 9, 50, 0
5, 5700, Note_on_c, 9, 45, 100
5, 5730, Note_on_c, 9, 45, 0
5, 5730, Note_on_c, 9, 45, 100
5, 5760, Note_on_c, 9, 45, 0
5, 5760, Note_on_c, 9, 50, 100
5, 5820, Note_on_c, 9, 50, 0
5, 6120, Note_on_c, 9, 50, 100
5, 6180, Note_on_c, 9, 50, 0
5, 6180, Note_on_c, 9, 50, 100
5, 6240, Note_on_c, 9, 50, 0
5, 6240, Note_on_c, 9, 50, 100
5, 6300, Note_on_c, 9, 50, 0
5, 6300, Note_on_c, 9, 50, 100
5, 6360, Note_on_c, 9, 50, 0
5, 6360, Note_on_c, 9, 45, 100
5, 6420, Note_on_c, 9, 45, 0
5, 6840, Note_on_c, 9, 50, 90
5, 6854, Note_on_c, 9, 50, 0
5, 6855, Note_on_c, 9, 50, 90
5, 6869, Note_on_c, 9, 50, 0
5, 6870, Note_on_c, 9, 50, 90
5, 6884, Note_on_c, 9, 50, 0
5, 6885, Note_on_c, 9, 50, 90
5, 6899, Note_on_c, 9, 50, 0
5, 6900, Note_on_c, 9, 50, 90
5, 6914, Note_on_c, 9, 50, 0
5, 6915, Note_on_c, 9, 50, 90
5, 6929, Note_on_c, 9, 50, 0
5, 6930, Note_on_c, 9, 50, 90
5, 6944, Note_on_c, 9, 50, 0
5, 6945, Note_on_c, 9, 50, 90
5, 6959, Note_on_c, 9, 50, 0
5, 6960, Note_on_c, 9, 50, 90
5, 6974, Note_on_c, 9, 50, 0
5, 6975, Note_on_c, 9, 50, 90
5, 6989, Note_on_c, 9, 50, 0
5, 6990, Note_on_c, 9, 50, 90
5, 7004, Note_on_c, 9, 50, 0
5, 7005, Note_on_c, 9, 50, 90
5, 7019, Note_on_c, 9, 50, 0
5, 7020, Note_on_c, 9, 50, 90
5, 7034, Note_on_c, 9, 50, 0
5, 7035, Note_on_c, 9, 50, 90
5, 7049, Note_on_c, 9, 50, 0
5, 7050, Note_on_c, 9, 50, 90
5, 7064, Note_on_c, 9, 50, 0
5, 7065, Note_on_c, 9, 50, 90
5, 7079, Note_on_c, 9, 50, 0
5, 7080, Note_on_c, 9, 50, 90
5, 7094, Note_on_c, 9, 50, 0
5, 7095, Note_on_c, 9, 50, 90
5, 7109, Note_on_c, 9, 50, 0
5, 7110, Note_on_c, 9, 50, 90
5, 7124, Note_on_c, 9, 50, 0
5, 7125, Note_on_c, 9, 50, 90
5, 7139, Note_on_c, 9, 50, 0
5, 7140, Note_on_c, 9, 50, 90
5, 7154, Note_on_c, 9, 50, 0
5, 7155, Note_on_c, 9, 50, 90
5, 7169, Note_on_c, 9, 50, 0
5, 7170, Note_on_c, 9, 50, 90
5, 7184, Note_on_c, 9, 50, 0
5, 7185, Note_on_c, 9, 50, 90
5, 7199, Note_on_c, 9, 50, 0
5, 7200, Note_on_c, 9, 50, 90
5, 7214, Note_on_c, 9, 50, 0
5, 7215, Note_on_c, 9, 50, 90
5, 7229, Note_on_c, 9, 50, 0
5, 7230, Note_on_c, 9, 50, 90
5, 7244, Note_on_c, 9, 50, 0
5, 7245, Note_on_c, 9, 50, 90
5, 7259, Note_on_c, 9, 50, 0
5, 7260, Note_on_c, 9, 50, 90
5, 7274, Note_on_c, 9, 50, 0
5, 7275, Note_on_c, 9, 50, 90
5, 7289, Note_on_c, 9, 50, 0
5, 7290, Note_on_c, 9, 50, 90
5, 7304, Note_on_c, 9, 50, 0
5, 7305, Note_on_c, 9, 50, 90
5, 7319, Note_on_c, 9, 50, 0
5, 7320, Note_on_c, 9, 50, 90
5, 7334, Note_on_c, 9, 50, 0
5, 7335, Note_on_c, 9, 50, 90
5, 7349, Note_on_c, 9, 50, 0
5, 7350, Note_on_c, 9, 50, 90
5, 7364, Note_on_c, 9, 50, 0
5, 7365, Note_on_c, 9, 50, 90
5, 7379, Note_on_c, 9, 50, 0
5, 7380, Note_on_c, 9, 50, 90
5, 7394, Note_on_c, 9, 50, 0
5, 7395, Note_on_c, 9, 50, 90
5, 7409, Note_on_c, 9, 50, 0
5, 7410, Note_on_c, 9, 50, 90
5, 7424, Note_on_c, 9, 50, 0
5, 7425, Note_on_c, 9, 50, 90
5, 7439, Note_on_c, 9, 50, 0
5, 7440, Note_on_c, 9, 50, 90
5, 7454, Note_on_c, 9, 50, 0
5, 7455, Note_on_c, 9, 50, 90
5, 7469, Note_on_c, 9, 50, 0
5, 7470, Note_on_c, 9, 50, 90
5, 7484, Note_on_c, 9, 50, 0
5, 7485, Note_on_c, 9, 50, 90
5, 7499, Note_on_c, 9, 50, 0
5, 7500, Note_on_c, 9, 50, 90
5, 7514, Note_on_c, 9, 50, 0
5, 7515, Note_on_c, 9, 50, 90
5, 7529, Note_on_c, 9, 50, 0
5, 7530, Note_on_c, 9, 50, 90
5, 7544, Note_on_c, 9, 50, 0
5, 7545, Note_on_c, 9, 50, 90
5, 7559, Note_on_c, 9, 50, 0
5, 7560, Note_on_c, 9, 50, 90
5, 7619, Note_on_c, 9, 50, 0
5, 7620, Note_on_c, 9, 50, 90
5, 7679, Note_on_c, 9, 50, 0
5, 7680, Note_on_c, 9, 50, 90
5, 7739, Note_on_c, 9, 50, 0
5, 7740, Note_on_c, 9, 50, 90
5, 7799, Note_on_c, 9, 50, 0
5, 7800, Note_on_c, 9, 45, 90
5, 7859, Note_on_c, 9, 45, 0
5, 8580, Note_on_c, 9, 45, 90
5, 8639, Note_on_c, 9, 45, 0
5, 8640, Note_on_c, 9, 50, 90
5, 8699, Note_on_c, 9, 50, 0
5, 8700, Note_on_c, 9, 50, 90
5, 8729, Note_on_c, 9, 50, 0
5, 8730, Note_on_c, 9, 50, 90
5, 8759, Note_on_c, 9, 50, 0
5, 8760, Note_on_c, 9, 50, 90
5, 8789, Note_on_c, 9, 50, 0
5, 8790, Note_on_c, 9, 50, 90
5, 8819, Note_on_c, 9, 50, 0
5, 8820, Note_on_c, 9, 45, 90
5, 8939, Note_on_c, 9, 45, 0
5, 14400, Note_on_c, 9, 45, 90
5, 14460, Note_on_c, 9, 45, 0
5, 15420, Note_on_c, 9, 50, 90
5, 15449, Note_on_c, 9, 50, 0
5, 15450, Note_on_c, 9, 50, 90
5, 15479, Note_on_c, 9, 50, 0
5, 15480, Note_on_c, 9, 50, 90
5, 15540, Note_on_c, 9, 50, 0
5, 15540, Note_on_c, 9, 50, 90
5, 15569, Note_on_c, 9, 50, 0
5, 15570, Note_on_c, 9, 50, 90
5, 15599, Note_on_c, 9, 50, 0
5, 15600, Note_on_c, 9, 50, 90
5, 15629, Note_on_c, 9, 50, 0
5, 15630, Note_on_c, 9, 50, 90
5, 15659, Note_on_c, 9, 50, 0
5, 15660, Note_on_c, 9, 45, 90
5, 15719, Note_on_c, 9, 45, 0
5, 16200, Note_on_c, 9, 50, 90
5, 16259, Note_on_c, 9, 50, 0
5, 16260, Note_on_c, 9, 50, 90
5, 16290, Note_on_c, 9, 50, 0
5, 16290, Note_on_c, 9, 50, 90
5, 16320, Note_on_c, 9, 50, 0
5, 16320, Note_on_c, 9, 50, 90
5, 16350, Note_on_c, 9, 50, 0
5, 16350, Note_on_c, 9, 50, 90
5, 16380, Note_on_c, 9, 50, 0
5, 16380, Note_on_c, 9, 50, 90
5, 16439, Note_on_c, 9, 50, 0
5, 16440, Note_on_c, 9, 45, 90
5, 16499, Note_on_c, 9, 45, 0
5, 16920, Note_on_c, 9, 50, 90
5, 16934, Note_on_c, 9, 50, 0
5, 16935, Note_on_c, 9, 50, 90
5, 16949, Note_on_c, 9, 50, 0
5, 16950, Note_on_c, 9, 50, 90
5, 16964, Note_on_c, 9, 50, 0
5, 16965, Note_on_c, 9, 50, 90
5, 16979, Note_on_c, 9, 50, 0
5, 16980, Note_on_c, 9, 50, 90
5, 16994, Note_on_c, 9, 50, 0
5, 16995, Note_on_c, 9, 50, 90
5, 17009, Note_on_c, 9, 50, 0
5, 17010, Note_on_c, 9, 50, 90
5, 17024, Note_on_c, 9, 50, 0
5, 17025, Note_on_c, 9, 50, 90
5, 17039, Note_on_c, 9, 50, 0
5, 17040, Note_on_c, 9, 50, 90
5, 17054, Note_on_c, 9, 50, 0
5, 17055, Note_on_c, 9, 50, 90
5, 17069, Note_on_c, 9, 50, 0
5, 17070, Note_on_c, 9, 50, 90
5, 17084, Note_on_c, 9, 50, 0
5, 17085, Note_on_c, 9, 50, 90
5, 17099, Note_on_c, 9, 50, 0
5, 17100, Note_on_c, 9, 50, 90
5, 17114, Note_on_c, 9, 50, 0
5, 17115, Note_on_c, 9, 50, 90
5, 17129, Note_on_c, 9, 50, 0
5, 17130, Note_on_c, 9, 50, 90
5, 17144, Note_on_c, 9, 50, 0
5, 17145, Note_on_c, 9, 50, 90
5, 17159, Note_on_c, 9, 50, 0
5, 17160, Note_on_c, 9, 50, 90
5, 17174, Note_on_c, 9, 50, 0
5, 17175, Note_on_c, 9, 50, 90
5, 17189, Note_on_c, 9, 50, 0
5, 17190, Note_on_c, 9, 50, 90
5, 17204, Note_on_c, 9, 50, 0
5, 17205, Note_on_c, 9, 50, 90
5, 17219, Note_on_c, 9, 50, 0
5, 17220, Note_on_c, 9, 50, 90
5, 17234, Note_on_c, 9, 50, 0
5, 17235, Note_on_c, 9, 50, 90
5, 17249, Note_on_c, 9, 50, 0
5, 17250, Note_on_c, 9, 50, 90
5, 17264, Note_on_c, 9, 50, 0
5, 17265, Note_on_c, 9, 50, 90
5, 17279, Note_on_c, 9, 50, 0
5, 17280, Note_on_c, 9, 50, 90
5, 17294, Note_on_c, 9, 50, 0
5, 17295, Note_on_c, 9, 50, 90
5, 17309, Note_on_c, 9, 50, 0
5, 17310, Note_on_c, 9, 50, 90
5, 17324, Note_on_c, 9, 50, 0
5, 17325, Note_on_c, 9, 50, 90
5, 17339, Note_on_c, 9, 50, 0
5, 17340, Note_on_c, 9, 50, 90
5, 17354, Note_on_c, 9, 50, 0
5, 17355, Note_on_c, 9, 50, 90
5, 17369, Note_on_c, 9, 50, 0
5, 17370, Note_on_c, 9, 50, 90
5, 17384, Note_on_c, 9, 50, 0
5, 17385, Note_on_c, 9, 50, 90
5, 17399, Note_on_c, 9, 50, 0
5, 17400, Note_on_c, 9, 50, 90
5, 17414, Note_on_c, 9, 50, 0
5, 17415, Note_on_c, 9, 50, 90
5, 17429, Note_on_c, 9, 50, 0
5, 17430, Note_on_c, 9, 50, 90
5, 17444, Note_on_c, 9, 50, 0
5, 17445, Note_on_c, 9, 50, 90
5, 17459, Note_on_c, 9, 50, 0
5, 17460, Note_on_c, 9, 50, 90
5, 17474, Note_on_c, 9, 50, 0
5, 17475, Note_on_c, 9, 50, 90
5, 17489, Note_on_c, 9, 50, 0
5, 17490, Note_on_c, 9, 50, 90
5, 17504, Note_on_c, 9, 50, 0
5, 17505, Note_on_c, 9, 50, 90
5, 17519, Note_on_c, 9, 50, 0
5, 17520, Note_on_c, 9, 50, 90
5, 17534, Note_on_c, 9, 50, 0
5, 17535, Note_on_c, 9, 50, 90
5, 17549, Note_on_c, 9, 50, 0
5, 17550, Note_on_c, 9, 50, 90
5, 17564, Note_on_c, 9, 50, 0
5, 17565, Note_on_c, 9, 50, 90
5, 17579, Note_on_c, 9, 50, 0
5, 17580, Note_on_c, 9, 50, 90
5, 17594, Note_on_c, 9, 50, 0
5, 17595, Note_on_c, 9, 50, 90
5, 17609, Note_on_c, 9, 50, 0
5, 17610, Note_on_c, 9, 50, 90
5, 17624, Note_on_c, 9, 50, 0
5, 17625, Note_on_c, 9, 50, 90
5, 17639, Note_on_c, 9, 50, 0
5, 17640, Note_on_c, 9, 50, 90
5, 17699, Note_on_c, 9, 50, 0
5, 17700, Note_on_c, 9, 50, 90
5, 17730, Note_on_c, 9, 50, 0
5, 17730, Note_on_c, 9, 50, 90
5, 17760, Note_on_c, 9, 50, 0
5, 17760, Note_on_c, 9, 50, 90
5, 17790, Note_on_c, 9, 50, 0
5, 17790, Note_on_c, 9, 50, 90
5, 17820, Note_on_c, 9, 50, 0
5, 17820, Note_on_c, 9, 50, 90
5, 17879, Note_on_c, 9, 50, 0
5, 17880, Note_on_c, 9, 45, 90
5, 17939, Note_on_c, 9, 45, 0
5, 18660, Note_on_c, 9, 45, 90
5, 18720, Note_on_c, 9, 45, 0
5, 18720, Note_on_c, 9, 50, 90
5, 18780, Note_on_c, 9, 50, 0
5, 18780, Note_on_c, 9, 50, 90
5, 18809, Note_on_c, 9, 50, 0
5, 18810, Note_on_c, 9, 50, 90
5, 18839, Note_on_c, 9, 50, 0
5, 18840, Note_on_c, 9, 50, 90
5, 18869, Note_on_c, 9, 50, 0
5, 18870, Note_on_c, 9, 50, 90
5, 18899, Note_on_c, 9, 50, 0
5, 18900, Note_on_c, 9, 45, 90
5, 19020, Note_on_c, 9, 45, 0
5, 21300, Note_on_c, 9, 50, 90
5, 21330, Note_on_c, 9, 50, 0
5, 21330, Note_on_c, 9, 50, 90
5, 21360, Note_on_c, 9, 50, 0
5, 21360, Note_on_c, 9, 50, 90
5, 21390, Note_on_c, 9, 50, 0
5, 21390, Note_on_c, 9, 50, 90
5, 21420, Note_on_c, 9, 50, 0
5, 21420, Note_on_c, 9, 45, 90
5, 21480, Note_on_c, 9, 45, 0
5, 23040, Note_on_c, 9, 50, 100
5, 23100, Note_on_c, 9, 50, 0
5, 23400, Note_on_c, 9, 45, 100
5, 23460, Note_on_c, 9, 45, 0
5, 23760, Note_on_c, 9, 50, 100
5, 23820, Note_on_c, 9, 50, 0
5, 24120, Note_on_c, 9, 45, 100
5, 24180, Note_on_c, 9, 45, 0
5, 24180, Note_on_c, 9, 45, 90
5, 24210, Note_on_c, 9, 45, 0
5, 24210, Note_on_c, 9, 45, 90
5, 24240, Note_on_c, 9, 45, 0
5, 24240, Note_on_c, 9, 45, 90
5, 24270, Note_on_c, 9, 45, 0
5, 24270, Note_on_c, 9, 45, 90
5, 24300, Note_on_c, 9, 45, 0
5, 24300, Note_on_c, 9, 50, 90
5, 24330, Note_on_c, 9, 50, 0
5, 24330, Note_on_c, 9, 50, 90
5, 24344, Note_on_c, 9, 50, 0
5, 24345, Note_on_c, 9, 50, 90
5, 24359, Note_on_c, 9, 50, 0
5, 24360, Note_on_c, 9, 50, 90
5, 24390, Note_on_c, 9, 50, 0
5, 24390, Note_on_c, 9, 50, 90
5, 24420, Note_on_c, 9, 50, 0
5, 24420, Note_on_c, 9, 45, 90
5, 24450, Note_on_c, 9, 45, 0
5, 24450, Note_on_c, 9, 45, 90
5, 24480, Note_on_c, 9, 45, 0
5, 24480, Note_on_c, 9, 50, 90
5, 24660, Note_on_c, 9, 50, 0
5, 36300, Note_on_c, 9, 50, 90
5, 36304, Control_c, 9, 91, 103
5, 36359, Note_on_c, 9, 50, 0
5, 36360, Note_on_c, 9, 50, 90
5, 36419, Note_on_c, 9, 50, 0
5, 36420, Note_on_c, 9, 50, 90
5, 36479, Note_on_c, 9, 50, 0
5, 36480, Note_on_c, 9, 50, 90
5, 36539, Note_on_c, 9, 50, 0
5, 36540, Note_on_c, 9, 45, 90
5, 36599, Note_on_c, 9, 45, 0
5, 36660, Note_on_c, 9, 50, 90
5, 36689, Note_on_c, 9, 50, 0
5, 36690, Note_on_c, 9, 50, 90
5, 36705, Note_on_c, 9, 50, 0
5, 36705, Note_on_c, 9, 50, 90
5, 36720, Note_on_c, 9, 50, 0
5, 36720, Note_on_c, 9, 50, 90
5, 36749, Note_on_c, 9, 50, 0
5, 36750, Note_on_c, 9, 45, 90
5, 36779, Note_on_c, 9, 45, 0
5, 36780, Note_on_c, 9, 50, 90
5, 36809, Note_on_c, 9, 50, 0
5, 36810, Note_on_c, 9, 45, 90
5, 36839, Note_on_c, 9, 45, 0
5, 36840, Note_on_c, 9, 50, 90
5, 36899, Note_on_c, 9, 50, 0
5, 36900, Note_on_c, 9, 45, 90
5, 36959, Note_on_c, 9, 45, 0
5, 37020, Note_on_c, 9, 50, 90
5, 37034, Note_on_c, 9, 50, 0
5, 37035, Note_on_c, 9, 50, 90
5, 37049, Note_on_c, 9, 50, 0
5, 37050, Note_on_c, 9, 50, 90
5, 37064, Note_on_c, 9, 50, 0
5, 37065, Note_on_c, 9, 50, 90
5, 37079, Note_on_c, 9, 50, 0
5, 37080, Note_on_c, 9, 50, 90
5, 37094, Note_on_c, 9, 50, 0
5, 37095, Note_on_c, 9, 50, 90
5, 37109, Note_on_c, 9, 50, 0
5, 37110, Note_on_c, 9, 50, 90
5, 37124, Note_on_c, 9, 50, 0
5, 37125, Note_on_c, 9, 50, 90
5, 37139, Note_on_c, 9, 50, 0
5, 37140, Note_on_c, 9, 50, 90
5, 37154, Note_on_c, 9, 50, 0
5, 37155, Note_on_c, 9, 50, 90
5, 37169, Note_on_c, 9, 50, 0
5, 37170, Note_on_c, 9, 50, 90
5, 37184, Note_on_c, 9, 50, 0
5, 37185, Note_on_c, 9, 50, 90
5, 37199, Note_on_c, 9, 50, 0
5, 37200, Note_on_c, 9, 50, 90
5, 37214, Note_on_c, 9, 50, 0
5, 37215, Note_on_c, 9, 50, 90
5, 37229, Note_on_c, 9, 50, 0
5, 37230, Note_on_c, 9, 50, 90
5, 37244, Note_on_c, 9, 50, 0
5, 37245, Note_on_c, 9, 50, 90
5, 37259, Note_on_c, 9, 50, 0
5, 37260, Note_on_c, 9, 50, 90
5, 37274, Note_on_c, 9, 50, 0
5, 37275, Note_on_c, 9, 50, 90
5, 37289, Note_on_c, 9, 50, 0
5, 37290, Note_on_c, 9, 50, 90
5, 37304, Note_on_c, 9, 50, 0
5, 37305, Note_on_c, 9, 50, 90
5, 37319, Note_on_c, 9, 50, 0
5, 37320, Note_on_c, 9, 50, 90
5, 37334, Note_on_c, 9, 50, 0
5, 37335, Note_on_c, 9, 50, 90
5, 37349, Note_on_c, 9, 50, 0
5, 37350, Note_on_c, 9, 50, 90
5, 37364, Note_on_c, 9, 50, 0
5, 37365, Note_on_c, 9, 50, 90
5, 37379, Note_on_c, 9, 50, 0
5, 37380, Note_on_c, 9, 50, 90
5, 37394, Note_on_c, 9, 50, 0
5, 37395, Note_on_c, 9, 50, 90
5, 37409, Note_on_c, 9, 50, 0
5, 37410, Note_on_c, 9, 50, 90
5, 37424, Note_on_c, 9, 50, 0
5, 37425, Note_on_c, 9, 50, 90
5, 37439, Note_on_c, 9, 50, 0
5, 37440, Note_on_c, 9, 50, 90
5, 37454, Note_on_c, 9, 50, 0
5, 37455, Note_on_c, 9, 50, 90
5, 37469, Note_on_c, 9, 50, 0
5, 37470, Note_on_c, 9, 50, 90
5, 37484, Note_on_c, 9, 50, 0
5, 37485, Note_on_c, 9, 50, 90
5, 37499, Note_on_c, 9, 50, 0
5, 37500, Note_on_c, 9, 50, 90
5, 37514, Note_on_c, 9, 50, 0
5, 37515, Note_on_c, 9, 50, 90
5, 37529, Note_on_c, 9, 50, 0
5, 37530, Note_on_c, 9, 50, 90
5, 37544, Note_on_c, 9, 50, 0
5, 37545, Note_on_c, 9, 50, 90
5, 37559, Note_on_c, 9, 50, 0
5, 37560, Note_on_c, 9, 50, 90
5, 37574, Note_on_c, 9, 50, 0
5, 37575, Note_on_c, 9, 50, 90
5, 37589, Note_on_c, 9, 50, 0
5, 37590, Note_on_c, 9, 50, 90
5, 37604, Note_on_c, 9, 50, 0
5, 37605, Note_on_c, 9, 50, 90
5, 37619, Note_on_c, 9, 50, 0
5, 37620, Note_on_c, 9, 50, 90
5, 37634, Note_on_c, 9, 50, 0
5, 37635, Note_on_c, 9, 50, 90
5, 37649, Note_on_c, 9, 50, 0
5, 37650, Note_on_c, 9, 50, 90
5, 37664, Note_on_c, 9, 50, 0
5, 37665, Note_on_c, 9, 50, 90
5, 37679, Note_on_c, 9, 50, 0
5, 37680, Note_on_c, 9, 50, 90
5, 37694, Note_on_c, 9, 50, 0
5, 37695, Note_on_c, 9, 50, 90
5, 37709, Note_on_c, 9, 50, 0
5, 37710, Note_on_c, 9, 50, 90
5, 37724, Note_on_c, 9, 50, 0
5, 37725, Note_on_c, 9, 50, 90
5, 37739, Note_on_c, 9, 50, 0
5, 37740, Note_on_c, 9, 50, 90
5, 37799, Note_on_c, 9, 50, 0
5, 37800, Note_on_c, 9, 50, 90
5, 37859, Note_on_c, 9, 50, 0
5, 37860, Note_on_c, 9, 50, 90
5, 37919, Note_on_c, 9, 50, 0
5, 37920, Note_on_c, 9, 50, 90
5, 37979, Note_on_c, 9, 50, 0
5, 37980, Note_on_c, 9, 45, 90
5, 38039, Note_on_c, 9, 45, 0
5, 38760, Note_on_c, 9, 45, 90
5, 38819, Note_on_c, 9, 45, 0
5, 38820, Note_on_c, 9, 50, 90
5, 38879, Note_on_c, 9, 50, 0
5, 38880, Note_on_c, 9, 50, 90
5, 38909, Note_on_c, 9, 50, 0
5, 38910, Note_on_c, 9, 50, 90
5, 38939, Note_on_c, 9, 50, 0
5, 38940, Note_on_c, 9, 50, 90
5, 38969, Note_on_c, 9, 50, 0
5, 38970, Note_on_c, 9, 50, 90
5, 38999, Note_on_c, 9, 50, 0
5, 39000, Note_on_c, 9, 45, 90
5, 39119, Note_on_c, 9, 45, 0
5, 40620, Note_on_c, 9, 50, 100
5, 40680, Note_on_c, 9, 50, 0
5, 40980, Note_on_c, 9, 45, 100
5, 41040, Note_on_c, 9, 45, 0
5, 41340, Note_on_c, 9, 50, 100
5, 41400, Note_on_c, 9, 50, 0
5, 41700, Note_on_c, 9, 45, 100
5, 41760, Note_on_c, 9, 45, 0
5, 41760, Note_on_c, 9, 45, 100
5, 41790, Note_on_c, 9, 45, 0
5, 41790, Note_on_c, 9, 45, 100
5, 41820, Note_on_c, 9, 45, 0
5, 41820, Note_on_c, 9, 45, 100
5, 41850, Note_on_c, 9, 45, 0
5, 41850, Note_on_c, 9, 45, 100
5, 41880, Note_on_c, 9, 45, 0
5, 41880, Note_on_c, 9, 50, 100
5, 41910, Note_on_c, 9, 50, 0
5, 41910, Note_on_c, 9, 50, 90
5, 41924, Note_on_c, 9, 50, 0
5, 41925, Note_on_c, 9, 50, 90
5, 41939, Note_on_c, 9, 50, 0
5, 41940, Note_on_c, 9, 50, 100
5, 41970, Note_on_c, 9, 50, 0
5, 41970, Note_on_c, 9, 50, 100
5, 42000, Note_on_c, 9, 50, 0
5, 42000, Note_on_c, 9, 45, 100
5, 42030, Note_on_c, 9, 45, 0
5, 42030, Note_on_c, 9, 45, 100
5, 42060, Note_on_c, 9, 45, 0
5, 42060, Note_on_c, 9, 50, 100
5, 42120, Note_on_c, 9, 50, 0
5, 42420, Note_on_c, 9, 50, 100
5, 42480, Note_on_c, 9, 50, 0
5, 42480, Note_on_c, 9, 50, 100
5, 42540, Note_on_c, 9, 50, 0
5, 42540, Note_on_c, 9, 50, 100
5, 42600, Note_on_c, 9, 50, 0
5, 42600, Note_on_c, 9, 50, 100
5, 42660, Note_on_c, 9, 50, 0
5, 42660, Note_on_c, 9, 45, 100
5, 42720, Note_on_c, 9, 45, 0
5, 43140, Note_on_c, 9, 50, 90
5, 43154, Note_on_c, 9, 50, 0
5, 43155, Note_on_c, 9, 50, 90
5, 43169, Note_on_c, 9, 50, 0
5, 43170, Note_on_c, 9, 50, 90
5, 43184, Note_on_c, 9, 50, 0
5, 43185, Note_on_c, 9, 50, 90
5, 43199, Note_on_c, 9, 50, 0
5, 43200, Note_on_c, 9, 50, 90
5, 43214, Note_on_c, 9, 50, 0
5, 43215, Note_on_c, 9, 50, 90
5, 43229, Note_on_c, 9, 50, 0
5, 43230, Note_on_c, 9, 50, 90
5, 43244, Note_on_c, 9, 50, 0
5, 43245, Note_on_c, 9, 50, 90
5, 43259, Note_on_c, 9, 50, 0
5, 43260, Note_on_c, 9, 50, 90
5, 43274, Note_on_c, 9, 50, 0
5, 43275, Note_on_c, 9, 50, 90
5, 43289, Note_on_c, 9, 50, 0
5, 43290, Note_on_c, 9, 50, 90
5, 43304, Note_on_c, 9, 50, 0
5, 43305, Note_on_c, 9, 50, 90
5, 43319, Note_on_c, 9, 50, 0
5, 43320, Note_on_c, 9, 50, 90
5, 43334, Note_on_c, 9, 50, 0
5, 43335, Note_on_c, 9, 50, 90
5, 43349, Note_on_c, 9, 50, 0
5, 43350, Note_on_c, 9, 50, 90
5, 43364, Note_on_c, 9, 50, 0
5, 43365, Note_on_c, 9, 50, 90
5, 43379, Note_on_c, 9, 50, 0
5, 43380, Note_on_c, 9, 50, 90
5, 43394, Note_on_c, 9, 50, 0
5, 43395, Note_on_c, 9, 50, 90
5, 43409, Note_on_c, 9, 50, 0
5, 43410, Note_on_c, 9, 50, 90
5, 43424, Note_on_c, 9, 50, 0
5, 43425, Note_on_c, 9, 50, 90
5, 43439, Note_on_c, 9, 50, 0
5, 43440, Note_on_c, 9, 50, 90
5, 43454, Note_on_c, 9, 50, 0
5, 43455, Note_on_c, 9, 50, 90
5, 43469, Note_on_c, 9, 50, 0
5, 43470, Note_on_c, 9, 50, 90
5, 43484, Note_on_c, 9, 50, 0
5, 43485, Note_on_c, 9, 50, 90
5, 43499, Note_on_c, 9, 50, 0
5, 43500, Note_on_c, 9, 50, 90
5, 43514, Note_on_c, 9, 50, 0
5, 43515, Note_on_c, 9, 50, 90
5, 43529, Note_on_c, 9, 50, 0
5, 43530, Note_on_c, 9, 50, 90
5, 43544, Note_on_c, 9, 50, 0
5, 43545, Note_on_c, 9, 50, 90
5, 43559, Note_on_c, 9, 50, 0
5, 43560, Note_on_c, 9, 50, 90
5, 43574, Note_on_c, 9, 50, 0
5, 43575, Note_on_c, 9, 50, 90
5, 43589, Note_on_c, 9, 50, 0
5, 43590, Note_on_c, 9, 50, 90
5, 43604, Note_on_c, 9, 50, 0
5, 43605, Note_on_c, 9, 50, 90
5, 43619, Note_on_c, 9, 50, 0
5, 43620, Note_on_c, 9, 50, 90
5, 43634, Note_on_c, 9, 50, 0
5, 43635, Note_on_c, 9, 50, 90
5, 43649, Note_on_c, 9, 50, 0
5, 43650, Note_on_c, 9, 50, 90
5, 43664, Note_on_c, 9, 50, 0
5, 43665, Note_on_c, 9, 50, 90
5, 43679, Note_on_c, 9, 50, 0
5, 43680, Note_on_c, 9, 50, 90
5, 43694, Note_on_c, 9, 50, 0
5, 43695, Note_on_c, 9, 50, 90
5, 43709, Note_on_c, 9, 50, 0
5, 43710, Note_on_c, 9, 50, 90
5, 43724, Note_on_c, 9, 50, 0
5, 43725, Note_on_c, 9, 50, 90
5, 43739, Note_on_c, 9, 50, 0
5, 43740, Note_on_c, 9, 50, 90
5, 43754, Note_on_c, 9, 50, 0
5, 43755, Note_on_c, 9, 50, 90
5, 43769, Note_on_c, 9, 50, 0
5, 43770, Note_on_c, 9, 50, 90
5, 43784, Note_on_c, 9, 50, 0
5, 43785, Note_on_c, 9, 50, 90
5, 43799, Note_on_c, 9, 50, 0
5, 43800, Note_on_c, 9, 50, 90
5, 43814, Note_on_c, 9, 50, 0
5, 43815, Note_on_c, 9, 50, 90
5, 43829, Note_on_c, 9, 50, 0
5, 43830, Note_on_c, 9, 50, 90
5, 43844, Note_on_c, 9, 50, 0
5, 43845, Note_on_c, 9, 50, 90
5, 43859, Note_on_c, 9, 50, 0
5, 43860, Note_on_c, 9, 50, 90
5, 43919, Note_on_c, 9, 50, 0
5, 43920, Note_on_c, 9, 50, 90
5, 43979, Note_on_c, 9, 50, 0
5, 43980, Note_on_c, 9, 50, 90
5, 44039, Note_on_c, 9, 50, 0
5, 44040, Note_on_c, 9, 50, 90
5, 44099, Note_on_c, 9, 50, 0
5, 44100, Note_on_c, 9, 45, 90
5, 44159, Note_on_c, 9, 45, 0
5, 44880, Note_on_c, 9, 45, 90
5, 44939, Note_on_c, 9, 45, 0
5, 44940, Note_on_c, 9, 50, 90
5, 44999, Note_on_c, 9, 50, 0
5, 45000, Note_on_c, 9, 50, 90
5, 45029, Note_on_c, 9, 50, 0
5, 45030, Note_on_c, 9, 50, 90
5, 45059, Note_on_c, 9, 50, 0
5, 45060, Note_on_c, 9, 50, 90
5, 45089, Note_on_c, 9, 50, 0
5, 45090, Note_on_c, 9, 50, 90
5, 45119, Note_on_c, 9, 50, 0
5, 45120, Note_on_c, 9, 45, 90
5, 45239, Note_on_c, 9, 45, 0
5, 50700, Note_on_c, 9, 45, 90
5, 50760, Note_on_c, 9, 45, 0
5, 51720, Note_on_c, 9, 50, 90
5, 51749, Note_on_c, 9, 50, 0
5, 51750, Note_on_c, 9, 50, 90
5, 51779, Note_on_c, 9, 50, 0
5, 51780, Note_on_c, 9, 50, 90
5, 51840, Note_on_c, 9, 50, 0
5, 51840, Note_on_c, 9, 50, 90
5, 51869, Note_on_c, 9, 50, 0
5, 51870, Note_on_c, 9, 50, 90
5, 51899, Note_on_c, 9, 50, 0
5, 51900, Note_on_c, 9, 50, 90
5, 51929, Note_on_c, 9, 50, 0
5, 51930, Note_on_c, 9, 50, 90
5, 51959, Note_on_c, 9, 50, 0
5, 51960, Note_on_c, 9, 45, 90
5, 52019, Note_on_c, 9, 45, 0
5, 52500, Note_on_c, 9, 50, 90
5, 52559, Note_on_c, 9, 50, 0
5, 52560, Note_on_c, 9, 50, 90
5, 52590, Note_on_c, 9, 50, 0
5, 52590, Note_on_c, 9, 50, 90
5, 52620, Note_on_c, 9, 50, 0
5, 52620, Note_on_c, 9, 50, 90
5, 52650, Note_on_c, 9, 50, 0
5, 52650, Note_on_c, 9, 50, 90
5, 52680, Note_on_c, 9, 50, 0
5, 52680, Note_on_c, 9, 50, 90
5, 52739, Note_on_c, 9, 50, 0
5, 52740, Note_on_c, 9, 45, 90
5, 52799, Note_on_c, 9, 45, 0
5, 53220, Note_on_c, 9, 50, 90
5, 53234, Note_on_c, 9, 50, 0
5, 53235, Note_on_c, 9, 50, 90
5, 53249, Note_on_c, 9, 50, 0
5, 53250, Note_on_c, 9, 50, 90
5, 53264, Note_on_c, 9, 50, 0
5, 53265, Note_on_c, 9, 50, 90
5, 53279, Note_on_c, 9, 50, 0
5, 53280, Note_on_c, 9, 50, 90
5, 53294, Note_on_c, 9, 50, 0
5, 53295, Note_on_c, 9, 50, 90
5, 53309, Note_on_c, 9, 50, 0
5, 53310, Note_on_c, 9, 50, 90
5, 53324, Note_on_c, 9, 50, 0
5, 53325, Note_on_c, 9, 50, 90
5, 53339, Note_on_c, 9, 50, 0
5, 53340, Note_on_c, 9, 50, 90
5, 53354, Note_on_c, 9, 50, 0
5, 53355, Note_on_c, 9, 50, 90
5, 53369, Note_on_c, 9, 50, 0
5, 53370, Note_on_c, 9, 50, 90
5, 53384, Note_on_c, 9, 50, 0
5, 53385, Note_on_c, 9, 50, 90
5, 53399, Note_on_c, 9, 50, 0
5, 53400, Note_on_c, 9, 50, 90
5, 53414, Note_on_c, 9, 50, 0
5, 53415, Note_on_c, 9, 50, 90
5, 53429, Note_on_c, 9, 50, 0
5, 53430, Note_on_c, 9, 50, 90
5, 53444, Note_on_c, 9, 50, 0
5, 53445, Note_on_c, 9, 50, 90
5, 53459, Note_on_c, 9, 50, 0
5, 53460, Note_on_c, 9, 50, 90
5, 53474, Note_on_c, 9, 50, 0
5, 53475, Note_on_c, 9, 50, 90
5, 53489, Note_on_c, 9, 50, 0
5, 53490, Note_on_c, 9, 50, 90
5, 53504, Note_on_c, 9, 50, 0
5, 53505, Note_on_c, 9, 50, 90
5, 53519, Note_on_c, 9, 50, 0
5, 53520, Note_on_c, 9, 50, 90
5, 53534, Note_on_c, 9, 50, 0
5, 53535, Note_on_c, 9, 50, 90
5, 53549, Note_on_c, 9, 50, 0
5, 53550, Note_on_c, 9, 50, 90
5, 53564, Note_on_c, 9, 50, 0
5, 53565, Note_on_c, 9, 50, 90
5, 53579, Note_on_c, 9, 50, 0
5, 53580, Note_on_c, 9, 50, 90
5, 53594, Note_on_c, 9, 50, 0
5, 53595, Note_on_c, 9, 50, 90
5, 53609, Note_on_c, 9, 50, 0
5, 53610, Note_on_c, 9, 50, 90
5, 53624, Note_on_c, 9, 50, 0
5, 53625, Note_on_c, 9, 50, 90
5, 53639, Note_on_c, 9, 50, 0
5, 53640, Note_on_c, 9, 50, 90
5, 53654, Note_on_c, 9, 50, 0
5, 53655, Note_on_c, 9, 50, 90
5, 53669, Note_on_c, 9, 50, 0
5, 53670, Note_on_c, 9, 50, 90
5, 53684, Note_on_c, 9, 50, 0
5, 53685, Note_on_c, 9, 50, 90
5, 53699, Note_on_c, 9, 50, 0
5, 53700, Note_on_c, 9, 50, 90
5, 53714, Note_on_c, 9, 50, 0
5, 53715, Note_on_c, 9, 50, 90
5, 53729, Note_on_c, 9, 50, 0
5, 53730, Note_on_c, 9, 50, 90
5, 53744, Note_on_c, 9, 50, 0
5, 53745, Note_on_c, 9, 50, 90
5, 53759, Note_on_c, 9, 50, 0
5, 53760, Note_on_c, 9, 50, 90
5, 53774, Note_on_c, 9, 50, 0
5, 53775, Note_on_c, 9, 50, 90
5, 53789, Note_on_c, 9, 50, 0
5, 53790, Note_on_c, 9, 50, 90
5, 53804, Note_on_c, 9, 50, 0
5, 53805, Note_on_c, 9, 50, 90
5, 53819, Note_on_c, 9, 50, 0
5, 53820, Note_on_c, 9, 50, 90
5, 53834, Note_on_c, 9, 50, 0
5, 53835, Note_on_c, 9, 50, 90
5, 53849, Note_on_c, 9, 50, 0
5, 53850, Note_on_c, 9, 50, 90
5, 53864, Note_on_c, 9, 50, 0
5, 53865, Note_on_c, 9, 50, 90
5, 53879, Note_on_c, 9, 50, 0
5, 53880, Note_on_c, 9, 50, 90
5, 53894, Note_on_c, 9, 50, 0
5, 53895, Note_on_c, 9, 50, 90
5, 53909, Note_on_c, 9, 50, 0
5, 53910, Note_on_c, 9, 50, 90
5, 53924, Note_on_c, 9, 50, 0
5, 53925, Note_on_c, 9, 50, 90
5, 53939, Note_on_c, 9, 50, 0
5, 53940, Note_on_c, 9, 50, 90
5, 53999, Note_on_c, 9, 50, 0
5, 54000, Note_on_c, 9, 50, 90
5, 54030, Note_on_c, 9, 50, 0
5, 54030, Note_on_c, 9, 50, 90
5, 54060, Note_on_c, 9, 50, 0
5, 54060, Note_on_c, 9, 50, 90
5, 54090, Note_on_c, 9, 50, 0
5, 54090, Note_on_c, 9, 50, 90
5, 54120, Note_on_c, 9, 50, 0
5, 54120, Note_on_c, 9, 50, 90
5, 54179, Note_on_c, 9, 50, 0
5, 54180, Note_on_c, 9, 45, 90
5, 54239, Note_on_c, 9, 45, 0
5, 54960, Note_on_c, 9, 45, 90
5, 55020, Note_on_c, 9, 45, 0
5, 55020, Note_on_c, 9, 50, 90
5, 55080, Note_on_c, 9, 50, 0
5, 55080, Note_on_c, 9, 50, 90
5, 55109, Note_on_c, 9, 50, 0
5, 55110, Note_on_c, 9, 50, 90
5, 55139, Note_on_c, 9, 50, 0
5, 55140, Note_on_c, 9, 50, 90
5, 55169, Note_on_c, 9, 50, 0
5, 55170, Note_on_c, 9, 50, 90
5, 55199, Note_on_c, 9, 50, 0
5, 55200, Note_on_c, 9, 45, 90
5, 55320, Note_on_c, 9, 45, 0
5, 57600, Note_on_c, 9, 50, 90
5, 57630, Note_on_c, 9, 50, 0
5, 57630, Note_on_c, 9, 50, 90
5, 57660, Note_on_c, 9, 50, 0
5, 57660, Note_on_c, 9, 50, 90
5, 57690, Note_on_c, 9, 50, 0
5, 57690, Note_on_c, 9, 50, 90
5, 57720, Note_on_c, 9, 50, 0
5, 57720, Note_on_c, 9, 45, 90
5, 57780, Note_on_c, 9, 45, 0
5, 59340, Note_on_c, 9, 50, 100
5, 59400, Note_on_c, 9, 50, 0
5, 59700, Note_on_c, 9, 45, 100
5, 59760, Note_on_c, 9, 45, 0
5, 60060, Note_on_c, 9, 50, 100
5, 60120, Note_on_c, 9, 50, 0
5, 60420, Note_on_c, 9, 45, 100
5, 60480, Note_on_c, 9, 45, 0
5, 60480, Note_on_c, 9, 45, 90
5, 60510, Note_on_c, 9, 45, 0
5, 60510, Note_on_c, 9, 45, 90
5, 60540, Note_on_c, 9, 45, 0
5, 60540, Note_on_c, 9, 45, 90
5, 60570, Note_on_c, 9, 45, 0
5, 60570, Note_on_c, 9, 45, 90
5, 60600, Note_on_c, 9, 45, 0
5, 60600, Note_on_c, 9, 50, 90
5, 60630, Note_on_c, 9, 50, 0
5, 60630, Note_on_c, 9, 50, 90
5, 60644, Note_on_c, 9, 50, 0
5, 60645, Note_on_c, 9, 50, 90
5, 60659, Note_on_c, 9, 50, 0
5, 60660, Note_on_c, 9, 50, 90
5, 60690, Note_on_c, 9, 50, 0
5, 60690, Note_on_c, 9, 50, 90
5, 60720, Note_on_c, 9, 50, 0
5, 60720, Note_on_c, 9, 45, 90
5, 60750, Note_on_c, 9, 45, 0
5, 60750, Note_on_c, 9, 45, 90
5, 60780, Note_on_c, 9, 45, 0
5, 60780, Note_on_c, 9, 50, 90
5, 60960, Note_on_c, 9, 50, 0
5, 200820, Note_on_c, 9, 50, 100
5, 200940, Note_on_c, 9, 50, 0
5, 201000, Note_on_c, 9, 50, 100
5, 201030, Note_on_c, 9, 50, 0
5, 201030, Note_on_c, 9, 50, 100
5, 201060, Note_on_c, 9, 50, 0
5, 201060, Note_on_c, 9, 50, 100
5, 201180, Note_on_c, 9, 50, 0
5, 201240, Note_on_c, 9, 50, 100
5, 201270, Note_on_c, 9, 50, 0
5, 201270, Note_on_c, 9, 50, 100
5, 201300, Note_on_c, 9, 50, 0
5, 201300, Note_on_c, 9, 50, 100
5, 201360, Note_on_c, 9, 50, 0
5, 201360, Note_on_c, 9, 50, 100
5, 201420, Note_on_c, 9, 50, 0
5, 201420, Note_on_c, 9, 45, 100
5, 201480, Note_on_c, 9, 45, 0
5, 201480, Note_on_c, 9, 45, 100
5, 201540, Note_on_c, 9, 45, 0
5, 201540, Note_on_c, 9, 50, 100
5, 201660, Note_on_c, 9, 50, 0
5, 202500, Note_on_c, 9, 50, 90
5, 202619, Note_on_c, 9, 50, 0
5, 202680, Note_on_c, 9, 50, 90
5, 202709, Note_on_c, 9, 50, 0
5, 202710, Note_on_c, 9, 50, 90
5, 202739, Note_on_c, 9, 50, 0
5, 202740, Note_on_c, 9, 50, 90
5, 202859, Note_on_c, 9, 50, 0
5, 202920, Note_on_c, 9, 50, 90
5, 202949, Note_on_c, 9, 50, 0
5, 202950, Note_on_c, 9, 50, 90
5, 202979, Note_on_c, 9, 50, 0
5, 202980, Note_on_c, 9, 50, 90
5, 203039, Note_on_c, 9, 50, 0
5, 203040, Note_on_c, 9, 50, 90
5, 203099, Note_on_c, 9, 50, 0
5, 203100, Note_on_c, 9, 45, 90
5, 203159, Note_on_c, 9, 45, 0
5, 203160, Note_on_c, 9, 45, 90
5, 203219, Note_on_c, 9, 45, 0
5, 203220, Note_on_c, 9, 50, 90
5, 203339, Note_on_c, 9, 50, 0
5, 204180, Note_on_c, 9, 45, 90
5, 204299, Note_on_c, 9, 45, 0
5, 204360, Note_on_c, 9, 45, 90
5, 204389, Note_on_c, 9, 45, 0
5, 204390, Note_on_c, 9, 45, 90
5, 204419, Note_on_c, 9, 45, 0
5, 204420, Note_on_c, 9, 45, 90
5, 204539, Note_on_c, 9, 45, 0
5, 204600, Note_on_c, 9, 45, 90
5, 204629, Note_on_c, 9, 45, 0
5, 204630, Note_on_c, 9, 45, 90
5, 204659, Note_on_c, 9, 45, 0
5, 204660, Note_on_c, 9, 50, 90
5, 204719, Note_on_c, 9, 50, 0
5, 204900, Note_on_c, 9, 45, 90
5, 205019, Note_on_c, 9, 45, 0
5, 205860, Note_on_c, 9, 50, 90
5, 205979, Note_on_c, 9, 50, 0
5, 206040, Note_on_c, 9, 50, 90
5, 206069, Note_on_c, 9, 50, 0
5, 206070, Note_on_c, 9, 50, 90
5, 206099, Note_on_c, 9, 50, 0
5, 206100, Note_on_c, 9, 50, 90
5, 206219, Note_on_c, 9, 50, 0
5, 206280, Note_on_c, 9, 50, 90
5, 206309, Note_on_c, 9, 50, 0
5, 206310, Note_on_c, 9, 50, 90
5, 206339, Note_on_c, 9, 50, 0
5, 206340, Note_on_c, 9, 50, 90
5, 206399, Note_on_c, 9, 50, 0
5, 206400, Note_on_c, 9, 50, 90
5, 206459, Note_on_c, 9, 50, 0
5, 206460, Note_on_c, 9, 45, 90
5, 206519, Note_on_c, 9, 45, 0
5, 206520, Note_on_c, 9, 45, 90
5, 206579, Note_on_c, 9, 45, 0
5, 206580, Note_on_c, 9, 50, 90
5, 206699, Note_on_c, 9, 50, 0
5, 206760, Note_on_c, 9, 50, 90
5, 206819, Note_on_c, 9, 50, 0
5, 206820, Note_on_c, 9, 45, 90
5, 206939, Note_on_c, 9, 45, 0
5, 206940, Note_on_c, 9, 45, 90
5, 206969, Note_on_c, 9, 45, 0
5, 206970, Note_on_c, 9, 45, 90
5, 206999, Note_on_c, 9, 45, 0
5, 207000, Note_on_c, 9, 45, 90
5, 207029, Note_on_c, 9, 45, 0
5, 207030, Note_on_c, 9, 45, 90
5, 207059, Note_on_c, 9, 45, 0
5, 207060, Note_on_c, 9, 50, 90
5, 207179, Note_on_c, 9, 50, 0
5, 207179, End_track
6, 0, Start_track
6, 0, MIDI_port, 0
6, 0, Title_t, "Flauto I"
6, 0, Program_c, 2, 73
6, 2, Control_c, 2, 91, 103
6, 210, Note_on_c, 2, 78, 90
6, 224, Note_on_c, 2, 78, 0
6, 225, Note_on_c, 2, 79, 90
6, 239, Note_on_c, 2, 79, 0
6, 240, Note_on_c, 2, 81, 90
6, 254, Note_on_c, 2, 81, 0
6, 255, Note_on_c, 2, 79, 90
6, 269, Note_on_c, 2, 79, 0
6, 270, Note_on_c, 2, 81, 90
6, 284, Note_on_c, 2, 81, 0
6, 285, Note_on_c, 2, 79, 90
6, 299, Note_on_c, 2, 79, 0
6, 300, Note_on_c, 2, 81, 90
6, 314, Note_on_c, 2, 81, 0
6, 315, Note_on_c, 2, 79, 90
6, 329, Note_on_c, 2, 79, 0
6, 330, Note_on_c, 2, 78, 90
6, 344, Note_on_c, 2, 78, 0
6, 345, Note_on_c, 2, 79, 90
6, 359, Note_on_c, 2, 79, 0
6, 360, Note_on_c, 2, 81, 90
6, 419, Note_on_c, 2, 81, 0
6, 735, Note_on_c, 2, 86, 90
6, 749, Note_on_c, 2, 86, 0
6, 750, Note_on_c, 2, 85, 90
6, 764, Note_on_c, 2, 85, 0
6, 765, Note_on_c, 2, 83, 90
6, 779, Note_on_c, 2, 83, 0
6, 780, Note_on_c, 2, 81, 90
6, 794, Note_on_c, 2, 81, 0
6, 795, Note_on_c, 2, 86, 90
6, 809, Note_on_c, 2, 86, 0
6, 810, Note_on_c, 2, 85, 90
6, 824, Note_on_c, 2, 85, 0
6, 825, Note_on_c, 2, 83, 90
6, 839, Note_on_c, 2, 83, 0
6, 840, Note_on_c, 2, 81, 90
6, 854, Note_on_c, 2, 81, 0
6, 855, Note_on_c, 2, 79, 90
6, 869, Note_on_c, 2, 79, 0
6, 870, Note_on_c, 2, 78, 90
6, 884, Note_on_c, 2, 78, 0
6, 885, Note_on_c, 2, 76, 90
6, 899, Note_on_c, 2, 76, 0
6, 900, Note_on_c, 2, 78, 100
6, 1500, Note_on_c, 2, 78, 0
6, 1500, Note_on_c, 2, 78, 100
6, 1530, Note_on_c, 2, 78, 0
6, 1560, Note_on_c, 2, 78, 100
6, 1590, Note_on_c, 2, 78, 0
6, 1620, Note_on_c, 2, 78, 100
6, 1680, Note_on_c, 2, 78, 0
6, 1680, Note_on_c, 2, 76, 100
6, 1710, Note_on_c, 2, 76, 0
6, 1710, Note_on_c, 2, 74, 100
6, 1740, Note_on_c, 2, 74, 0
6, 1740, Note_on_c, 2, 76, 100
6, 1800, Note_on_c, 2, 76, 0
6, 2460, Note_on_c, 2, 79, 90
6, 2519, Note_on_c, 2, 79, 0
6, 2520, Note_on_c, 2, 78, 90
6, 2579, Note_on_c, 2, 78, 0
6, 2580, Note_on_c, 2, 76, 90
6, 2639, Note_on_c, 2, 76, 0
6, 2640, Note_on_c, 2, 74, 90
6, 2699, Note_on_c, 2, 74, 0
6, 2700, Note_on_c, 2, 81, 90
6, 2819, Note_on_c, 2, 81, 0
6, 2820, Note_on_c, 2, 76, 90
6, 2879, Note_on_c, 2, 76, 0
6, 2880, Note_on_c, 2, 75, 90
6, 2909, Note_on_c, 2, 75, 0
6, 2910, Note_on_c, 2, 78, 90
6, 2939, Note_on_c, 2, 78, 0
6, 2940, Note_on_c, 2, 81, 90
6, 3059, Note_on_c, 2, 81, 0
6, 3060, Note_on_c, 2, 72, 90
6, 3074, Note_on_c, 2, 72, 0
6, 3075, Note_on_c, 2, 71, 90
6, 3089, Note_on_c, 2, 71, 0
6, 3090, Note_on_c, 2, 69, 90
6, 3119, Note_on_c, 2, 69, 0
6, 3120, Note_on_c, 2, 69, 90
6, 3149, Note_on_c, 2, 69, 0
6, 3150, Note_on_c, 2, 71, 90
6, 3270, Note_on_c, 2, 71, 0
6, 3270, Note_on_c, 2, 73, 90
6, 3284, Note_on_c, 2, 73, 0
6, 3285, Note_on_c, 2, 75, 90
6, 3299, Note_on_c, 2, 75, 0
6, 3300, Note_on_c, 2, 76, 90
6, 3329, Note_on_c, 2, 76, 0
6, 3330, Note_on_c, 2, 78, 90
6, 3344, Note_on_c, 2, 78, 0
6, 3345, Note_on_c, 2, 80, 90
6, 3359, Note_on_c, 2, 80, 0
6, 3360, Note_on_c, 2, 81, 90
6, 3449, Note_on_c, 2, 81, 0
6, 3450, Note_on_c, 2, 79, 90
6, 3464, Note_on_c, 2, 79, 0
6, 3465, Note_on_c, 2, 78, 90
6, 3479, Note_on_c, 2, 78, 0
6, 3480, Note_on_c, 2, 79, 90
6, 3509, Note_on_c, 2, 79, 0
6, 3510, Note_on_c, 2, 78, 90
6, 3524, Note_on_c, 2, 78, 0
6, 3525, Note_on_c, 2, 76, 90
6, 3539, Note_on_c, 2, 76, 0
6, 3540, Note_on_c, 2, 79, 90
6, 3569, Note_on_c, 2, 79, 0
6, 3570, Note_on_c, 2, 76, 90
6, 3584, Note_on_c, 2, 76, 0
6, 3585, Note_on_c, 2, 78, 90
6, 3599, Note_on_c, 2, 78, 0
6, 3600, Note_on_c, 2, 79, 90
6, 3629, Note_on_c, 2, 79, 0
6, 3630, Note_on_c, 2, 83, 90
6, 3644, Note_on_c, 2, 83, 0
6, 3645, Note_on_c, 2, 81, 90
6, 3659, Note_on_c, 2, 81, 0
6, 3660, Note_on_c, 2, 79, 90
6, 3689, Note_on_c, 2, 79, 0
6, 3690, Note_on_c, 2, 83, 90
6, 3704, Note_on_c, 2, 83, 0
6, 3705, Note_on_c, 2, 81, 90
6, 3719, Note_on_c, 2, 81, 0
6, 3720, Note_on_c, 2, 79, 90
6, 3809, Note_on_c, 2, 79, 0
6, 3810, Note_on_c, 2, 76, 90
6, 3824, Note_on_c, 2, 76, 0
6, 3825, Note_on_c, 2, 78, 90
6, 3839, Note_on_c, 2, 78, 0
6, 3840, Note_on_c, 2, 79, 90
6, 3869, Note_on_c, 2, 79, 0
6, 3870, Note_on_c, 2, 76, 90
6, 3884, Note_on_c, 2, 76, 0
6, 3885, Note_on_c, 2, 78, 90
6, 3899, Note_on_c, 2, 78, 0
6, 3900, Note_on_c, 2, 79, 90
6, 3989, Note_on_c, 2, 79, 0
6, 3990, Note_on_c, 2, 78, 90
6, 4004, Note_on_c, 2, 78, 0
6, 4005, Note_on_c, 2, 79, 90
6, 4019, Note_on_c, 2, 79, 0
6, 4020, Note_on_c, 2, 81, 90
6, 4049, Note_on_c, 2, 81, 0
6, 4050, Note_on_c, 2, 79, 90
6, 4064, Note_on_c, 2, 79, 0
6, 4065, Note_on_c, 2, 78, 90
6, 4079, Note_on_c, 2, 78, 0
6, 4080, Note_on_c, 2, 79, 90
6, 4109, Note_on_c, 2, 79, 0
6, 4110, Note_on_c, 2, 78, 90
6, 4124, Note_on_c, 2, 78, 0
6, 4125, Note_on_c, 2, 76, 90
6, 4139, Note_on_c, 2, 76, 0
6, 4140, Note_on_c, 2, 78, 90
6, 4169, Note_on_c, 2, 78, 0
6, 4170, Note_on_c, 2, 81, 90
6, 4184, Note_on_c, 2, 81, 0
6, 4185, Note_on_c, 2, 79, 90
6, 4199, Note_on_c, 2, 79, 0
6, 4200, Note_on_c, 2, 78, 90
6, 4229, Note_on_c, 2, 78, 0
6, 4230, Note_on_c, 2, 81, 90
6, 4244, Note_on_c, 2, 81, 0
6, 4245, Note_on_c, 2, 79, 90
6, 4259, Note_on_c, 2, 79, 0
6, 4260, Note_on_c, 2, 78, 90
6, 4349, Note_on_c, 2, 78, 0
6, 4350, Note_on_c, 2, 83, 90
6, 4364, Note_on_c, 2, 83, 0
6, 4380, Note_on_c, 2, 83, 90
6, 4394, Note_on_c, 2, 83, 0
6, 4410, Note_on_c, 2, 78, 90
6, 4424, Note_on_c, 2, 78, 0
6, 4440, Note_on_c, 2, 78, 90
6, 4454, Note_on_c, 2, 78, 0
6, 4470, Note_on_c, 2, 74, 90
6, 4484, Note_on_c, 2, 74, 0
6, 4500, Note_on_c, 2, 74, 90
6, 4514, Note_on_c, 2, 74, 0
6, 4515, Note_on_c, 2, 78, 90
6, 4529, Note_on_c, 2, 78, 0
6, 4530, Note_on_c, 2, 80, 90
6, 4544, Note_on_c, 2, 80, 0
6, 4545, Note_on_c, 2, 81, 90
6, 4559, Note_on_c, 2, 81, 0
6, 4560, Note_on_c, 2, 83, 90
6, 4574, Note_on_c, 2, 83, 0
6, 4575, Note_on_c, 2, 85, 90
6, 4589, Note_on_c, 2, 85, 0
6, 4590, Note_on_c, 2, 83, 90
6, 4604, Note_on_c, 2, 83, 0
6, 4605, Note_on_c, 2, 81, 90
6, 4619, Note_on_c, 2, 81, 0
6, 4620, Note_on_c, 2, 80, 90
6, 4634, Note_on_c, 2, 80, 0
6, 4635, Note_on_c, 2, 78, 90
6, 4649, Note_on_c, 2, 78, 0
6, 4650, Note_on_c, 2, 76, 90
6, 4664, Note_on_c, 2, 76, 0
6, 4665, Note_on_c, 2, 74, 90
6, 4679, Note_on_c, 2, 74, 0
6, 4680, Note_on_c, 2, 73, 90
6, 4694, Note_on_c, 2, 73, 0
6, 4710, Note_on_c, 2, 81, 90
6, 4724, Note_on_c, 2, 81, 0
6, 4740, Note_on_c, 2, 81, 90
6, 4754, Note_on_c, 2, 81, 0
6, 4770, Note_on_c, 2, 76, 90
6, 4784, Note_on_c, 2, 76, 0
6, 4800, Note_on_c, 2, 76, 90
6, 4814, Note_on_c, 2, 76, 0
6, 4830, Note_on_c, 2, 72, 90
6, 4844, Note_on_c, 2, 72, 0
6, 4860, Note_on_c, 2, 72, 90
6, 4874, Note_on_c, 2, 72, 0
6, 4875, Note_on_c, 2, 76, 90
6, 4889, Note_on_c, 2, 76, 0
6, 4890, Note_on_c, 2, 78, 90
6, 4904, Note_on_c, 2, 78, 0
6, 4905, Note_on_c, 2, 79, 90
6, 4919, Note_on_c, 2, 79, 0
6, 4920, Note_on_c, 2, 81, 90
6, 4934, Note_on_c, 2, 81, 0
6, 4935, Note_on_c, 2, 83, 90
6, 4949, Note_on_c, 2, 83, 0
6, 4950, Note_on_c, 2, 81, 90
6, 4964, Note_on_c, 2, 81, 0
6, 4965, Note_on_c, 2, 79, 90
6, 4979, Note_on_c, 2, 79, 0
6, 4980, Note_on_c, 2, 78, 90
6, 4994, Note_on_c, 2, 78, 0
6, 4995, Note_on_c, 2, 76, 90
6, 5009, Note_on_c, 2, 76, 0
6, 5010, Note_on_c, 2, 74, 90
6, 5024, Note_on_c, 2, 74, 0
6, 5025, Note_on_c, 2, 72, 90
6, 5039, Note_on_c, 2, 72, 0
6, 5040, Note_on_c, 2, 71, 90
6, 5054, Note_on_c, 2, 71, 0
6, 5055, Note_on_c, 2, 67, 90
6, 5069, Note_on_c, 2, 67, 0
6, 5070, Note_on_c, 2, 69, 90
6, 5084, Note_on_c, 2, 69, 0
6, 5085, Note_on_c, 2, 71, 90
6, 5099, Note_on_c, 2, 71, 0
6, 5100, Note_on_c, 2, 73, 90
6, 5114, Note_on_c, 2, 73, 0
6, 5115, Note_on_c, 2, 69, 90
6, 5129, Note_on_c, 2, 69, 0
6, 5130, Note_on_c, 2, 71, 90
6, 5144, Note_on_c, 2, 71, 0
6, 5145, Note_on_c, 2, 73, 90
6, 5159, Note_on_c, 2, 73, 0
6, 5160, Note_on_c, 2, 74, 90
6, 5174, Note_on_c, 2, 74, 0
6, 5175, Note_on_c, 2, 71, 90
6, 5189, Note_on_c, 2, 71, 0
6, 5190, Note_on_c, 2, 73, 90
6, 5204, Note_on_c, 2, 73, 0
6, 5205, Note_on_c, 2, 74, 90
6, 5219, Note_on_c, 2, 74, 0
6, 5220, Note_on_c, 2, 76, 90
6, 5234, Note_on_c, 2, 76, 0
6, 5235, Note_on_c, 2, 73, 90
6, 5249, Note_on_c, 2, 73, 0
6, 5250, Note_on_c, 2, 74, 90
6, 5264, Note_on_c, 2, 74, 0
6, 5265, Note_on_c, 2, 76, 90
6, 5279, Note_on_c, 2, 76, 0
6, 5280, Note_on_c, 2, 78, 90
6, 5294, Note_on_c, 2, 78, 0
6, 5295, Note_on_c, 2, 74, 90
6, 5309, Note_on_c, 2, 74, 0
6, 5310, Note_on_c, 2, 76, 90
6, 5324, Note_on_c, 2, 76, 0
6, 5325, Note_on_c, 2, 78, 90
6, 5339, Note_on_c, 2, 78, 0
6, 5340, Note_on_c, 2, 79, 90
6, 5354, Note_on_c, 2, 79, 0
6, 5355, Note_on_c, 2, 76, 90
6, 5369, Note_on_c, 2, 76, 0
6, 5370, Note_on_c, 2, 78, 90
6, 5384, Note_on_c, 2, 78, 0
6, 5385, Note_on_c, 2, 79, 90
6, 5399, Note_on_c, 2, 79, 0
6, 5400, Note_on_c, 2, 81, 90
6, 5414, Note_on_c, 2, 81, 0
6, 5415, Note_on_c, 2, 78, 90
6, 5429, Note_on_c, 2, 78, 0
6, 5430, Note_on_c, 2, 79, 90
6, 5444, Note_on_c, 2, 79, 0
6, 5445, Note_on_c, 2, 81, 90
6, 5459, Note_on_c, 2, 81, 0
6, 5460, Note_on_c, 2, 83, 90
6, 5474, Note_on_c, 2, 83, 0
6, 5475, Note_on_c, 2, 79, 90
6, 5489, Note_on_c, 2, 79, 0
6, 5490, Note_on_c, 2, 81, 90
6, 5504, Note_on_c, 2, 81, 0
6, 5505, Note_on_c, 2, 83, 90
6, 5519, Note_on_c, 2, 83, 0
6, 5520, Note_on_c, 2, 85, 90
6, 5534, Note_on_c, 2, 85, 0
6, 5535, Note_on_c, 2, 81, 90
6, 5549, Note_on_c, 2, 81, 0
6, 5550, Note_on_c, 2, 83, 90
6, 5564, Note_on_c, 2, 83, 0
6, 5565, Note_on_c, 2, 85, 90
6, 5579, Note_on_c, 2, 85, 0
6, 5580, Note_on_c, 2, 86, 90
6, 5609, Note_on_c, 2, 86, 0
6, 5640, Note_on_c, 2, 69, 90
6, 5669, Note_on_c, 2, 69, 0
6, 5700, Note_on_c, 2, 73, 90
6, 5729, Note_on_c, 2, 73, 0
6, 5760, Note_on_c, 2, 74, 90
6, 5819, Note_on_c, 2, 74, 0
6, 6690, Note_on_c, 2, 78, 90
6, 6704, Note_on_c, 2, 78, 0
6, 6705, Note_on_c, 2, 79, 90
6, 6719, Note_on_c, 2, 79, 0
6, 6720, Note_on_c, 2, 81, 90
6, 6734, Note_on_c, 2, 81, 0
6, 6735, Note_on_c, 2, 79, 90
6, 6749, Note_on_c, 2, 79, 0
6, 6750, Note_on_c, 2, 81, 90
6, 6764, Note_on_c, 2, 81, 0
6, 6765, Note_on_c, 2, 79, 90
6, 6779, Note_on_c, 2, 79, 0
6, 6780, Note_on_c, 2, 81, 90
6, 6794, Note_on_c, 2, 81, 0
6, 6795, Note_on_c, 2, 79, 90
6, 6809, Note_on_c, 2, 79, 0
6, 6810, Note_on_c, 2, 78, 90
6, 6824, Note_on_c, 2, 78, 0
6, 6825, Note_on_c, 2, 79, 90
6, 6839, Note_on_c, 2, 79, 0
6, 6840, Note_on_c, 2, 81, 90
6, 6854, Note_on_c, 2, 81, 0
6, 6855, Note_on_c, 2, 86, 90
6, 6869, Note_on_c, 2, 86, 0
6, 6870, Note_on_c, 2, 85, 90
6, 6884, Note_on_c, 2, 85, 0
6, 6885, Note_on_c, 2, 83, 90
6, 6899, Note_on_c, 2, 83, 0
6, 6900, Note_on_c, 2, 81, 90
6, 6914, Note_on_c, 2, 81, 0
6, 6915, Note_on_c, 2, 86, 90
6, 6929, Note_on_c, 2, 86, 0
6, 6930, Note_on_c, 2, 85, 90
6, 6944, Note_on_c, 2, 85, 0
6, 6945, Note_on_c, 2, 83, 90
6, 6959, Note_on_c, 2, 83, 0
6, 6960, Note_on_c, 2, 81, 90
6, 6974, Note_on_c, 2, 81, 0
6, 6975, Note_on_c, 2, 79, 90
6, 6989, Note_on_c, 2, 79, 0
6, 6990, Note_on_c, 2, 78, 90
6, 7004, Note_on_c, 2, 78, 0
6, 7005, Note_on_c, 2, 76, 90
6, 7019, Note_on_c, 2, 76, 0
6, 7020, Note_on_c, 2, 78, 90
6, 7620, Note_on_c, 2, 78, 0
6, 7620, Note_on_c, 2, 78, 90
6, 7650, Note_on_c, 2, 78, 0
6, 7680, Note_on_c, 2, 78, 90
6, 7710, Note_on_c, 2, 78, 0
6, 7740, Note_on_c, 2, 78, 90
6, 7800, Note_on_c, 2, 78, 0
6, 7800, Note_on_c, 2, 76, 90
6, 7830, Note_on_c, 2, 76, 0
6, 7830, Note_on_c, 2, 74, 90
6, 7860, Note_on_c, 2, 74, 0
6, 7860, Note_on_c, 2, 76, 90
6, 7920, Note_on_c, 2, 76, 0
6, 8580, Note_on_c, 2, 79, 90
6, 8640, Note_on_c, 2, 79, 0
6, 8640, Note_on_c, 2, 78, 90
6, 8700, Note_on_c, 2, 78, 0
6, 8700, Note_on_c, 2, 76, 90
6, 8760, Note_on_c, 2, 76, 0
6, 8760, Note_on_c, 2, 74, 90
6, 8820, Note_on_c, 2, 74, 0
6, 8820, Note_on_c, 2, 81, 90
6, 8940, Note_on_c, 2, 81, 0
6, 9600, Note_on_c, 2, 74, 90
6, 9629, Note_on_c, 2, 74, 0
6, 9630, Note_on_c, 2, 76, 90
6, 9659, Note_on_c, 2, 76, 0
6, 9660, Note_on_c, 2, 78, 90
6, 9674, Note_on_c, 2, 78, 0
6, 9675, Note_on_c, 2, 76, 90
6, 9689, Note_on_c, 2, 76, 0
6, 9690, Note_on_c, 2, 74, 90
6, 9704, Note_on_c, 2, 74, 0
6, 9705, Note_on_c, 2, 76, 90
6, 9719, Note_on_c, 2, 76, 0
6, 9720, Note_on_c, 2, 78, 90
6, 9749, Note_on_c, 2, 78, 0
6, 9750, Note_on_c, 2, 76, 90
6, 9779, Note_on_c, 2, 76, 0
6, 9780, Note_on_c, 2, 78, 90
6, 9809, Note_on_c, 2, 78, 0
6, 9810, Note_on_c, 2, 80, 90
6, 9839, Note_on_c, 2, 80, 0
6, 9840, Note_on_c, 2, 81, 90
6, 9854, Note_on_c, 2, 81, 0
6, 9855, Note_on_c, 2, 80, 90
6, 9869, Note_on_c, 2, 80, 0
6, 9870, Note_on_c, 2, 78, 90
6, 9884, Note_on_c, 2, 78, 0
6, 9885, Note_on_c, 2, 80, 90
6, 9899, Note_on_c, 2, 80, 0
6, 9900, Note_on_c, 2, 81, 90
6, 9929, Note_on_c, 2, 81, 0
6, 9930, Note_on_c, 2, 76, 90
6, 9959, Note_on_c, 2, 76, 0
6, 9960, Note_on_c, 2, 73, 90
6, 9989, Note_on_c, 2, 73, 0
6, 9990, Note_on_c, 2, 81, 90
6, 10019, Note_on_c, 2, 81, 0
6, 10020, Note_on_c, 2, 71, 90
6, 10049, Note_on_c, 2, 71, 0
6, 10050, Note_on_c, 2, 80, 90
6, 10079, Note_on_c, 2, 80, 0
6, 10080, Note_on_c, 2, 69, 90
6, 10199, Note_on_c, 2, 69, 0
6, 10320, Note_on_c, 2, 67, 90
6, 10349, Note_on_c, 2, 67, 0
6, 10350, Note_on_c, 2, 69, 90
6, 10379, Note_on_c, 2, 69, 0
6, 10380, Note_on_c, 2, 71, 90
6, 10394, Note_on_c, 2, 71, 0
6, 10395, Note_on_c, 2, 69, 90
6, 10409, Note_on_c, 2, 69, 0
6, 10410, Note_on_c, 2, 67, 90
6, 10424, Note_on_c, 2, 67, 0
6, 10425, Note_on_c, 2, 69, 90
6, 10439, Note_on_c, 2, 69, 0
6, 10440, Note_on_c, 2, 71, 90
6, 10529, Note_on_c, 2, 71, 0
6, 10530, Note_on_c, 2, 73, 90
6, 10559, Note_on_c, 2, 73, 0
6, 10560, Note_on_c, 2, 74, 90
6, 10574, Note_on_c, 2, 74, 0
6, 10575, Note_on_c, 2, 73, 90
6, 10589, Note_on_c, 2, 73, 0
6, 10590, Note_on_c, 2, 71, 90
6, 10604, Note_on_c, 2, 71, 0
6, 10605, Note_on_c, 2, 73, 90
6, 10619, Note_on_c, 2, 73, 0
6, 10620, Note_on_c, 2, 74, 90
6, 10649, Note_on_c, 2, 74, 0
6, 10680, Note_on_c, 2, 74, 90
6, 10709, Note_on_c, 2, 74, 0
6, 10740, Note_on_c, 2, 73, 90
6, 10769, Note_on_c, 2, 73, 0
6, 10800, Note_on_c, 2, 74, 90
6, 10829, Note_on_c, 2, 74, 0
6, 10830, Note_on_c, 2, 73, 90
6, 10859, Note_on_c, 2, 73, 0
6, 10860, Note_on_c, 2, 74, 90
6, 10889, Note_on_c, 2, 74, 0
6, 10890, Note_on_c, 2, 78, 90
6, 10919, Note_on_c, 2, 78, 0
6, 10920, Note_on_c, 2, 76, 90
6, 10949, Note_on_c, 2, 76, 0
6, 10950, Note_on_c, 2, 74, 90
6, 10979, Note_on_c, 2, 74, 0
6, 10980, Note_on_c, 2, 73, 90
6, 11009, Note_on_c, 2, 73, 0
6, 11010, Note_on_c, 2, 71, 90
6, 11039, Note_on_c, 2, 71, 0
6, 11040, Note_on_c, 2, 73, 90
6, 11069, Note_on_c, 2, 73, 0
6, 11070, Note_on_c, 2, 76, 90
6, 11099, Note_on_c, 2, 76, 0
6, 11100, Note_on_c, 2, 75, 90
6, 11129, Note_on_c, 2, 75, 0
6, 11130, Note_on_c, 2, 78, 90
6, 11159, Note_on_c, 2, 78, 0
6, 11160, Note_on_c, 2, 76, 90
6, 11189, Note_on_c, 2, 76, 0
6, 11190, Note_on_c, 2, 75, 90
6, 11219, Note_on_c, 2, 75, 0
6, 11220, Note_on_c, 2, 76, 90
6, 11249, Note_on_c, 2, 76, 0
6, 11250, Note_on_c, 2, 78, 90
6, 11279, Note_on_c, 2, 78, 0
6, 11280, Note_on_c, 2, 79, 90
6, 11294, Note_on_c, 2, 79, 0
6, 11295, Note_on_c, 2, 78, 90
6, 11309, Note_on_c, 2, 78, 0
6, 11310, Note_on_c, 2, 76, 90
6, 11324, Note_on_c, 2, 76, 0
6, 11325, Note_on_c, 2, 78, 90
6, 11339, Note_on_c, 2, 78, 0
6, 11340, Note_on_c, 2, 79, 90
6, 11369, Note_on_c, 2, 79, 0
6, 11370, Note_on_c, 2, 78, 90
6, 11399, Note_on_c, 2, 78, 0
6, 11400, Note_on_c, 2, 76, 90
6, 11429, Note_on_c, 2, 76, 0
6, 11430, Note_on_c, 2, 74, 90
6, 11459, Note_on_c, 2, 74, 0
6, 11460, Note_on_c, 2, 73, 90
6, 11489, Note_on_c, 2, 73, 0
6, 11490, Note_on_c, 2, 71, 90
6, 11519, Note_on_c, 2, 71, 0
6, 11520, Note_on_c, 2, 70, 90
6, 11549, Note_on_c, 2, 70, 0
6, 11550, Note_on_c, 2, 73, 90
6, 11579, Note_on_c, 2, 73, 0
6, 11580, Note_on_c, 2, 76, 90
6, 11699, Note_on_c, 2, 76, 0
6, 11700, Note_on_c, 2, 67, 90
6, 11714, Note_on_c, 2, 67, 0
6, 11715, Note_on_c, 2, 66, 90
6, 11729, Note_on_c, 2, 66, 0
6, 11730, Note_on_c, 2, 64, 90
6, 11759, Note_on_c, 2, 64, 0
6, 11760, Note_on_c, 2, 64, 90
6, 11789, Note_on_c, 2, 64, 0
6, 11790, Note_on_c, 2, 66, 90
6, 11909, Note_on_c, 2, 66, 0
6, 11910, Note_on_c, 2, 68, 90
6, 11924, Note_on_c, 2, 68, 0
6, 11925, Note_on_c, 2, 70, 90
6, 11939, Note_on_c, 2, 70, 0
6, 11940, Note_on_c, 2, 71, 90
6, 11969, Note_on_c, 2, 71, 0
6, 11970, Note_on_c, 2, 73, 90
6, 11984, Note_on_c, 2, 73, 0
6, 11985, Note_on_c, 2, 75, 90
6, 11999, Note_on_c, 2, 75, 0
6, 12000, Note_on_c, 2, 76, 90
6, 12089, Note_on_c, 2, 76, 0
6, 12090, Note_on_c, 2, 74, 90
6, 12104, Note_on_c, 2, 74, 0
6, 12105, Note_on_c, 2, 73, 90
6, 12119, Note_on_c, 2, 73, 0
6, 12120, Note_on_c, 2, 74, 90
6, 12149, Note_on_c, 2, 74, 0
6, 12150, Note_on_c, 2, 73, 90
6, 12164, Note_on_c, 2, 73, 0
6, 12165, Note_on_c, 2, 71, 90
6, 12179, Note_on_c, 2, 71, 0
6, 12180, Note_on_c, 2, 74, 90
6, 12209, Note_on_c, 2, 74, 0
6, 12210, Note_on_c, 2, 71, 90
6, 12224, Note_on_c, 2, 71, 0
6, 12225, Note_on_c, 2, 73, 90
6, 12239, Note_on_c, 2, 73, 0
6, 12240, Note_on_c, 2, 74, 90
6, 12269, Note_on_c, 2, 74, 0
6, 12270, Note_on_c, 2, 78, 90
6, 12284, Note_on_c, 2, 78, 0
6, 12285, Note_on_c, 2, 76, 90
6, 12299, Note_on_c, 2, 76, 0
6, 12300, Note_on_c, 2, 74, 90
6, 12329, Note_on_c, 2, 74, 0
6, 12330, Note_on_c, 2, 78, 90
6, 12344, Note_on_c, 2, 78, 0
6, 12345, Note_on_c, 2, 76, 90
6, 12359, Note_on_c, 2, 76, 0
6, 12360, Note_on_c, 2, 74, 90
6, 12449, Note_on_c, 2, 74, 0
6, 12450, Note_on_c, 2, 71, 90
6, 12464, Note_on_c, 2, 71, 0
6, 12465, Note_on_c, 2, 73, 90
6, 12479, Note_on_c, 2, 73, 0
6, 12480, Note_on_c, 2, 74, 90
6, 12509, Note_on_c, 2, 74, 0
6, 12510, Note_on_c, 2, 71, 90
6, 12524, Note_on_c, 2, 71, 0
6, 12525, Note_on_c, 2, 73, 90
6, 12539, Note_on_c, 2, 73, 0
6, 12540, Note_on_c, 2, 74, 90
6, 12629, Note_on_c, 2, 74, 0
6, 12630, Note_on_c, 2, 73, 90
6, 12644, Note_on_c, 2, 73, 0
6, 12645, Note_on_c, 2, 74, 90
6, 12659, Note_on_c, 2, 74, 0
6, 12660, Note_on_c, 2, 76, 90
6, 12689, Note_on_c, 2, 76, 0
6, 12690, Note_on_c, 2, 74, 90
6, 12704, Note_on_c, 2, 74, 0
6, 12705, Note_on_c, 2, 73, 90
6, 12719, Note_on_c, 2, 73, 0
6, 12720, Note_on_c, 2, 74, 90
6, 12749, Note_on_c, 2, 74, 0
6, 12750, Note_on_c, 2, 73, 90
6, 12764, Note_on_c, 2, 73, 0
6, 12765, Note_on_c, 2, 71, 90
6, 12779, Note_on_c, 2, 71, 0
6, 12780, Note_on_c, 2, 73, 90
6, 12809, Note_on_c, 2, 73, 0
6, 12810, Note_on_c, 2, 76, 90
6, 12824, Note_on_c, 2, 76, 0
6, 12825, Note_on_c, 2, 74, 90
6, 12839, Note_on_c, 2, 74, 0
6, 12840, Note_on_c, 2, 73, 90
6, 12869, Note_on_c, 2, 73, 0
6, 12870, Note_on_c, 2, 76, 90
6, 12884, Note_on_c, 2, 76, 0
6, 12885, Note_on_c, 2, 74, 90
6, 12899, Note_on_c, 2, 74, 0
6, 12900, Note_on_c, 2, 73, 90
6, 12989, Note_on_c, 2, 73, 0
6, 12990, Note_on_c, 2, 78, 90
6, 13005, Note_on_c, 2, 78, 0
6, 13020, Note_on_c, 2, 78, 90
6, 13035, Note_on_c, 2, 78, 0
6, 13050, Note_on_c, 2, 73, 90
6, 13065, Note_on_c, 2, 73, 0
6, 13080, Note_on_c, 2, 73, 90
6, 13095, Note_on_c, 2, 73, 0
6, 13110, Note_on_c, 2, 69, 90
6, 13125, Note_on_c, 2, 69, 0
6, 13140, Note_on_c, 2, 69, 90
6, 13154, Note_on_c, 2, 69, 0
6, 13155, Note_on_c, 2, 73, 90
6, 13169, Note_on_c, 2, 73, 0
6, 13170, Note_on_c, 2, 75, 90
6, 13184, Note_on_c, 2, 75, 0
6, 13185, Note_on_c, 2, 76, 90
6, 13199, Note_on_c, 2, 76, 0
6, 13200, Note_on_c, 2, 78, 90
6, 13214, Note_on_c, 2, 78, 0
6, 13215, Note_on_c, 2, 80, 90
6, 13229, Note_on_c, 2, 80, 0
6, 13230, Note_on_c, 2, 78, 90
6, 13244, Note_on_c, 2, 78, 0
6, 13245, Note_on_c, 2, 76, 90
6, 13259, Note_on_c, 2, 76, 0
6, 13260, Note_on_c, 2, 75, 90
6, 13274, Note_on_c, 2, 75, 0
6, 13275, Note_on_c, 2, 73, 90
6, 13289, Note_on_c, 2, 73, 0
6, 13290, Note_on_c, 2, 71, 90
6, 13304, Note_on_c, 2, 71, 0
6, 13305, Note_on_c, 2, 69, 90
6, 13319, Note_on_c, 2, 69, 0
6, 13320, Note_on_c, 2, 68, 90
6, 13334, Note_on_c, 2, 68, 0
6, 13350, Note_on_c, 2, 76, 90
6, 13364, Note_on_c, 2, 76, 0
6, 13380, Note_on_c, 2, 76, 90
6, 13394, Note_on_c, 2, 76, 0
6, 13410, Note_on_c, 2, 71, 90
6, 13424, Note_on_c, 2, 71, 0
6, 13440, Note_on_c, 2, 71, 90
6, 13454, Note_on_c, 2, 71, 0
6, 13470, Note_on_c, 2, 67, 90
6, 13484, Note_on_c, 2, 67, 0
6, 13500, Note_on_c, 2, 67, 90
6, 13514, Note_on_c, 2, 67, 0
6, 13515, Note_on_c, 2, 71, 90
6, 13529, Note_on_c, 2, 71, 0
6, 13530, Note_on_c, 2, 73, 90
6, 13544, Note_on_c, 2, 73, 0
6, 13545, Note_on_c, 2, 74, 90
6, 13559, Note_on_c, 2, 74, 0
6, 13560, Note_on_c, 2, 76, 90
6, 13574, Note_on_c, 2, 76, 0
6, 13575, Note_on_c, 2, 78, 90
6, 13589, Note_on_c, 2, 78, 0
6, 13590, Note_on_c, 2, 76, 90
6, 13604, Note_on_c, 2, 76, 0
6, 13605, Note_on_c, 2, 74, 90
6, 13619, Note_on_c, 2, 74, 0
6, 13620, Note_on_c, 2, 73, 90
6, 13634, Note_on_c, 2, 73, 0
6, 13635, Note_on_c, 2, 71, 90
6, 13649, Note_on_c, 2, 71, 0
6, 13650, Note_on_c, 2, 69, 90
6, 13664, Note_on_c, 2, 69, 0
6, 13665, Note_on_c, 2, 67, 90
6, 13679, Note_on_c, 2, 67, 0
6, 13680, Note_on_c, 2, 66, 90
6, 13694, Note_on_c, 2, 66, 0
6, 13695, Note_on_c, 2, 62, 90
6, 13709, Note_on_c, 2, 62, 0
6, 13710, Note_on_c, 2, 64, 90
6, 13724, Note_on_c, 2, 64, 0
6, 13725, Note_on_c, 2, 66, 90
6, 13739, Note_on_c, 2, 66, 0
6, 13740, Note_on_c, 2, 68, 90
6, 13754, Note_on_c, 2, 68, 0
6, 13755, Note_on_c, 2, 64, 90
6, 13769, Note_on_c, 2, 64, 0
6, 13770, Note_on_c, 2, 66, 90
6, 13784, Note_on_c, 2, 66, 0
6, 13785, Note_on_c, 2, 68, 90
6, 13799, Note_on_c, 2, 68, 0
6, 13800, Note_on_c, 2, 69, 90
6, 13814, Note_on_c, 2, 69, 0
6, 13815, Note_on_c, 2, 66, 90
6, 13829, Note_on_c, 2, 66, 0
6, 13830, Note_on_c, 2, 68, 90
6, 13844, Note_on_c, 2, 68, 0
6, 13845, Note_on_c, 2, 69, 90
6, 13859, Note_on_c, 2, 69, 0
6, 13860, Note_on_c, 2, 71, 90
6, 13874, Note_on_c, 2, 71, 0
6, 13875, Note_on_c, 2, 68, 90
6, 13889, Note_on_c, 2, 68, 0
6, 13890, Note_on_c, 2, 69, 90
6, 13904, Note_on_c, 2, 69, 0
6, 13905, Note_on_c, 2, 71, 90
6, 13919, Note_on_c, 2, 71, 0
6, 13920, Note_on_c, 2, 73, 90
6, 13934, Note_on_c, 2, 73, 0
6, 13935, Note_on_c, 2, 69, 90
6, 13949, Note_on_c, 2, 69, 0
6, 13950, Note_on_c, 2, 71, 90
6, 13964, Note_on_c, 2, 71, 0
6, 13965, Note_on_c, 2, 73, 90
6, 13979, Note_on_c, 2, 73, 0
6, 13980, Note_on_c, 2, 74, 90
6, 13994, Note_on_c, 2, 74, 0
6, 13995, Note_on_c, 2, 71, 90
6, 14009, Note_on_c, 2, 71, 0
6, 14010, Note_on_c, 2, 73, 90
6, 14024, Note_on_c, 2, 73, 0
6, 14025, Note_on_c, 2, 74, 90
6, 14039, Note_on_c, 2, 74, 0
6, 14040, Note_on_c, 2, 76, 90
6, 14054, Note_on_c, 2, 76, 0
6, 14055, Note_on_c, 2, 73, 90
6, 14069, Note_on_c, 2, 73, 0
6, 14070, Note_on_c, 2, 74, 90
6, 14084, Note_on_c, 2, 74, 0
6, 14085, Note_on_c, 2, 76, 90
6, 14099, Note_on_c, 2, 76, 0
6, 14100, Note_on_c, 2, 78, 90
6, 14114, Note_on_c, 2, 78, 0
6, 14115, Note_on_c, 2, 74, 90
6, 14129, Note_on_c, 2, 74, 0
6, 14130, Note_on_c, 2, 76, 90
6, 14144, Note_on_c, 2, 76, 0
6, 14145, Note_on_c, 2, 78, 90
6, 14159, Note_on_c, 2, 78, 0
6, 14160, Note_on_c, 2, 80, 90
6, 14174, Note_on_c, 2, 80, 0
6, 14175, Note_on_c, 2, 76, 90
6, 14189, Note_on_c, 2, 76, 0
6, 14190, Note_on_c, 2, 78, 90
6, 14204, Note_on_c, 2, 78, 0
6, 14205, Note_on_c, 2, 80, 90
6, 14219, Note_on_c, 2, 80, 0
6, 14220, Note_on_c, 2, 81, 90
6, 14249, Note_on_c, 2, 81, 0
6, 14280, Note_on_c, 2, 83, 90
6, 14309, Note_on_c, 2, 83, 0
6, 14340, Note_on_c, 2, 80, 90
6, 14369, Note_on_c, 2, 80, 0
6, 14400, Note_on_c, 2, 81, 90
6, 14459, Note_on_c, 2, 81, 0
6, 15060, Note_on_c, 2, 76, 90
6, 15089, Note_on_c, 2, 76, 0
6, 15090, Note_on_c, 2, 78, 90
6, 15119, Note_on_c, 2, 78, 0
6, 15120, Note_on_c, 2, 79, 90
6, 15149, Note_on_c, 2, 79, 0
6, 15180, Note_on_c, 2, 79, 90
6, 15209, Note_on_c, 2, 79, 0
6, 15240, Note_on_c, 2, 79, 90
6, 15269, Note_on_c, 2, 79, 0
6, 15300, Note_on_c, 2, 79, 90
6, 15359, Note_on_c, 2, 79, 0
6, 15360, Note_on_c, 2, 78, 90
6, 15389, Note_on_c, 2, 78, 0
6, 15390, Note_on_c, 2, 76, 90
6, 15419, Note_on_c, 2, 76, 0
6, 15420, Note_on_c, 2, 78, 90
6, 15449, Note_on_c, 2, 78, 0
6, 15450, Note_on_c, 2, 79, 90
6, 15479, Note_on_c, 2, 79, 0
6, 15480, Note_on_c, 2, 81, 90
6, 15539, Note_on_c, 2, 81, 0
6, 15540, Note_on_c, 2, 79, 90
6, 15569, Note_on_c, 2, 79, 0
6, 15570, Note_on_c, 2, 78, 90
6, 15599, Note_on_c, 2, 78, 0
6, 15600, Note_on_c, 2, 76, 90
6, 15629, Note_on_c, 2, 76, 0
6, 15630, Note_on_c, 2, 74, 90
6, 15659, Note_on_c, 2, 74, 0
6, 15660, Note_on_c, 2, 73, 90
6, 15689, Note_on_c, 2, 73, 0
6, 15690, Note_on_c, 2, 71, 90
6, 15719, Note_on_c, 2, 71, 0
6, 15720, Note_on_c, 2, 69, 90
6, 15749, Note_on_c, 2, 69, 0
6, 15750, Note_on_c, 2, 67, 90
6, 15779, Note_on_c, 2, 67, 0
6, 15780, Note_on_c, 2, 66, 90
6, 15809, Note_on_c, 2, 66, 0
6, 15810, Note_on_c, 2, 64, 90
6, 15839, Note_on_c, 2, 64, 0
6, 15840, Note_on_c, 2, 62, 90
6, 15899, Note_on_c, 2, 62, 0
6, 16050, Note_on_c, 2, 78, 90
6, 16064, Note_on_c, 2, 78, 0
6, 16065, Note_on_c, 2, 79, 90
6, 16079, Note_on_c, 2, 79, 0
6, 16080, Note_on_c, 2, 81, 90
6, 16094, Note_on_c, 2, 81, 0
6, 16095, Note_on_c, 2, 79, 90
6, 16109, Note_on_c, 2, 79, 0
6, 16110, Note_on_c, 2, 81, 90
6, 16124, Note_on_c, 2, 81, 0
6, 16125, Note_on_c, 2, 79, 90
6, 16139, Note_on_c, 2, 79, 0
6, 16140, Note_on_c, 2, 81, 90
6, 16154, Note_on_c, 2, 81, 0
6, 16155, Note_on_c, 2, 79, 90
6, 16169, Note_on_c, 2, 79, 0
6, 16170, Note_on_c, 2, 78, 90
6, 16184, Note_on_c, 2, 78, 0
6, 16185, Note_on_c, 2, 79, 90
6, 16199, Note_on_c, 2, 79, 0
6, 16200, Note_on_c, 2, 81, 90
6, 16259, Note_on_c, 2, 81, 0
6, 16380, Note_on_c, 2, 86, 90
6, 16439, Note_on_c, 2, 86, 0
6, 16560, Note_on_c, 2, 81, 90
6, 16619, Note_on_c, 2, 81, 0
6, 16740, Note_on_c, 2, 78, 90
6, 16799, Note_on_c, 2, 78, 0
6, 16935, Note_on_c, 2, 86, 90
6, 16949, Note_on_c, 2, 86, 0
6, 16950, Note_on_c, 2, 85, 90
6, 16964, Note_on_c, 2, 85, 0
6, 16965, Note_on_c, 2, 83, 90
6, 16979, Note_on_c, 2, 83, 0
6, 16980, Note_on_c, 2, 81, 90
6, 16994, Note_on_c, 2, 81, 0
6, 16995, Note_on_c, 2, 86, 90
6, 17009, Note_on_c, 2, 86, 0
6, 17010, Note_on_c, 2, 85, 90
6, 17024, Note_on_c, 2, 85, 0
6, 17025, Note_on_c, 2, 83, 90
6, 17039, Note_on_c, 2, 83, 0
6, 17040, Note_on_c, 2, 81, 90
6, 17054, Note_on_c, 2, 81, 0
6, 17055, Note_on_c, 2, 79, 90
6, 17069, Note_on_c, 2, 79, 0
6, 17070, Note_on_c, 2, 78, 90
6, 17084, Note_on_c, 2, 78, 0
6, 17085, Note_on_c, 2, 76, 90
6, 17099, Note_on_c, 2, 76, 0
6, 17100, Note_on_c, 2, 78, 90
6, 17700, Note_on_c, 2, 78, 0
6, 17700, Note_on_c, 2, 78, 90
6, 17729, Note_on_c, 2, 78, 0
6, 17760, Note_on_c, 2, 78, 90
6, 17789, Note_on_c, 2, 78, 0
6, 17820, Note_on_c, 2, 78, 90
6, 17879, Note_on_c, 2, 78, 0
6, 17880, Note_on_c, 2, 76, 90
6, 17909, Note_on_c, 2, 76, 0
6, 17910, Note_on_c, 2, 74, 90
6, 17939, Note_on_c, 2, 74, 0
6, 17940, Note_on_c, 2, 76, 90
6, 17999, Note_on_c, 2, 76, 0
6, 18660, Note_on_c, 2, 79, 90
6, 18719, Note_on_c, 2, 79, 0
6, 18720, Note_on_c, 2, 78, 90
6, 18779, Note_on_c, 2, 78, 0
6, 18780, Note_on_c, 2, 76, 90
6, 18839, Note_on_c, 2, 76, 0
6, 18840, Note_on_c, 2, 74, 90
6, 18899, Note_on_c, 2, 74, 0
6, 18900, Note_on_c, 2, 81, 90
6, 19019, Note_on_c, 2, 81, 0
6, 19680, Note_on_c, 2, 76, 90
6, 19709, Note_on_c, 2, 76, 0
6, 19710, Note_on_c, 2, 78, 90
6, 19739, Note_on_c, 2, 78, 0
6, 19740, Note_on_c, 2, 79, 90
6, 19754, Note_on_c, 2, 79, 0
6, 19755, Note_on_c, 2, 78, 90
6, 19769, Note_on_c, 2, 78, 0
6, 19770, Note_on_c, 2, 76, 90
6, 19784, Note_on_c, 2, 76, 0
6, 19785, Note_on_c, 2, 78, 90
6, 19799, Note_on_c, 2, 78, 0
6, 19800, Note_on_c, 2, 79, 90
6, 19829, Note_on_c, 2, 79, 0
6, 19860, Note_on_c, 2, 78, 90
6, 19889, Note_on_c, 2, 78, 0
6, 19920, Note_on_c, 2, 76, 90
6, 19949, Note_on_c, 2, 76, 0
6, 19980, Note_on_c, 2, 74, 90
6, 20009, Note_on_c, 2, 74, 0
6, 20010, Note_on_c, 2, 76, 90
6, 20039, Note_on_c, 2, 76, 0
6, 20040, Note_on_c, 2, 78, 90
6, 20069, Note_on_c, 2, 78, 0
6, 20070, Note_on_c, 2, 79, 90
6, 20099, Note_on_c, 2, 79, 0
6, 20100, Note_on_c, 2, 81, 90
6, 20114, Note_on_c, 2, 81, 0
6, 20115, Note_on_c, 2, 79, 90
6, 20129, Note_on_c, 2, 79, 0
6, 20130, Note_on_c, 2, 78, 90
6, 20144, Note_on_c, 2, 78, 0
6, 20145, Note_on_c, 2, 79, 90
6, 20159, Note_on_c, 2, 79, 0
6, 20160, Note_on_c, 2, 81, 90
6, 20189, Note_on_c, 2, 81, 0
6, 20220, Note_on_c, 2, 74, 90
6, 20249, Note_on_c, 2, 74, 0
6, 20280, Note_on_c, 2, 76, 90
6, 20309, Note_on_c, 2, 76, 0
6, 20340, Note_on_c, 2, 73, 90
6, 20399, Note_on_c, 2, 73, 0
6, 20580, Note_on_c, 2, 78, 90
6, 20609, Note_on_c, 2, 78, 0
6, 20610, Note_on_c, 2, 80, 90
6, 20639, Note_on_c, 2, 80, 0
6, 20640, Note_on_c, 2, 81, 90
6, 20654, Note_on_c, 2, 81, 0
6, 20655, Note_on_c, 2, 80, 90
6, 20669, Note_on_c, 2, 80, 0
6, 20670, Note_on_c, 2, 78, 90
6, 20684, Note_on_c, 2, 78, 0
6, 20685, Note_on_c, 2, 80, 90
6, 20699, Note_on_c, 2, 80, 0
6, 20700, Note_on_c, 2, 81, 90
6, 20729, Note_on_c, 2, 81, 0
6, 20760, Note_on_c, 2, 76, 90
6, 20789, Note_on_c, 2, 76, 0
6, 20790, Note_on_c, 2, 78, 90
6, 20819, Note_on_c, 2, 78, 0
6, 20820, Note_on_c, 2, 79, 90
6, 20834, Note_on_c, 2, 79, 0
6, 20835, Note_on_c, 2, 78, 90
6, 20849, Note_on_c, 2, 78, 0
6, 20850, Note_on_c, 2, 76, 90
6, 20864, Note_on_c, 2, 76, 0
6, 20865, Note_on_c, 2, 78, 90
6, 20879, Note_on_c, 2, 78, 0
6, 20880, Note_on_c, 2, 79, 90
6, 20909, Note_on_c, 2, 79, 0
6, 20940, Note_on_c, 2, 72, 90
6, 20969, Note_on_c, 2, 72, 0
6, 21000, Note_on_c, 2, 72, 90
6, 21029, Note_on_c, 2, 72, 0
6, 21060, Note_on_c, 2, 71, 90
6, 21119, Note_on_c, 2, 71, 0
6, 21120, Note_on_c, 2, 74, 90
6, 21179, Note_on_c, 2, 74, 0
6, 21180, Note_on_c, 2, 79, 90
6, 21239, Note_on_c, 2, 79, 0
6, 21240, Note_on_c, 2, 78, 90
6, 21299, Note_on_c, 2, 78, 0
6, 21300, Note_on_c, 2, 69, 90
6, 21359, Note_on_c, 2, 69, 0
6, 21360, Note_on_c, 2, 74, 90
6, 21419, Note_on_c, 2, 74, 0
6, 21420, Note_on_c, 2, 73, 90
6, 21449, Note_on_c, 2, 73, 0
6, 21450, Note_on_c, 2, 71, 90
6, 21479, Note_on_c, 2, 71, 0
6, 21480, Note_on_c, 2, 73, 90
6, 21509, Note_on_c, 2, 73, 0
6, 21510, Note_on_c, 2, 74, 90
6, 21539, Note_on_c, 2, 74, 0
6, 21540, Note_on_c, 2, 76, 90
6, 21569, Note_on_c, 2, 76, 0
6, 21570, Note_on_c, 2, 78, 90
6, 21599, Note_on_c, 2, 78, 0
6, 21600, Note_on_c, 2, 75, 90
6, 21629, Note_on_c, 2, 75, 0
6, 21630, Note_on_c, 2, 78, 90
6, 21659, Note_on_c, 2, 78, 0
6, 21660, Note_on_c, 2, 81, 90
6, 21779, Note_on_c, 2, 81, 0
6, 21780, Note_on_c, 2, 72, 90
6, 21794, Note_on_c, 2, 72, 0
6, 21795, Note_on_c, 2, 71, 90
6, 21809, Note_on_c, 2, 71, 0
6, 21810, Note_on_c, 2, 69, 90
6, 21839, Note_on_c, 2, 69, 0
6, 21840, Note_on_c, 2, 69, 90
6, 21869, Note_on_c, 2, 69, 0
6, 21870, Note_on_c, 2, 71, 90
6, 21989, Note_on_c, 2, 71, 0
6, 21990, Note_on_c, 2, 73, 90
6, 22004, Note_on_c, 2, 73, 0
6, 22005, Note_on_c, 2, 75, 90
6, 22019, Note_on_c, 2, 75, 0
6, 22020, Note_on_c, 2, 76, 90
6, 22049, Note_on_c, 2, 76, 0
6, 22050, Note_on_c, 2, 78, 90
6, 22064, Note_on_c, 2, 78, 0
6, 22065, Note_on_c, 2, 79, 90
6, 22079, Note_on_c, 2, 79, 0
6, 22080, Note_on_c, 2, 81, 90
6, 22169, Note_on_c, 2, 81, 0
6, 22170, Note_on_c, 2, 79, 90
6, 22184, Note_on_c, 2, 79, 0
6, 22185, Note_on_c, 2, 78, 90
6, 22199, Note_on_c, 2, 78, 0
6, 22200, Note_on_c, 2, 79, 90
6, 22229, Note_on_c, 2, 79, 0
6, 22230, Note_on_c, 2, 78, 90
6, 22244, Note_on_c, 2, 78, 0
6, 22245, Note_on_c, 2, 76, 90
6, 22259, Note_on_c, 2, 76, 0
6, 22260, Note_on_c, 2, 79, 90
6, 22289, Note_on_c, 2, 79, 0
6, 22290, Note_on_c, 2, 76, 90
6, 22304, Note_on_c, 2, 76, 0
6, 22305, Note_on_c, 2, 78, 90
6, 22319, Note_on_c, 2, 78, 0
6, 22320, Note_on_c, 2, 79, 90
6, 22349, Note_on_c, 2, 79, 0
6, 22350, Note_on_c, 2, 83, 90
6, 22364, Note_on_c, 2, 83, 0
6, 22365, Note_on_c, 2, 81, 90
6, 22379, Note_on_c, 2, 81, 0
6, 22380, Note_on_c, 2, 79, 90
6, 22409, Note_on_c, 2, 79, 0
6, 22410, Note_on_c, 2, 83, 90
6, 22424, Note_on_c, 2, 83, 0
6, 22425, Note_on_c, 2, 81, 90
6, 22439, Note_on_c, 2, 81, 0
6, 22440, Note_on_c, 2, 79, 90
6, 22529, Note_on_c, 2, 79, 0
6, 22530, Note_on_c, 2, 76, 90
6, 22544, Note_on_c, 2, 76, 0
6, 22545, Note_on_c, 2, 78, 90
6, 22559, Note_on_c, 2, 78, 0
6, 22560, Note_on_c, 2, 79, 90
6, 22589, Note_on_c, 2, 79, 0
6, 22590, Note_on_c, 2, 76, 90
6, 22604, Note_on_c, 2, 76, 0
6, 22605, Note_on_c, 2, 78, 90
6, 22619, Note_on_c, 2, 78, 0
6, 22620, Note_on_c, 2, 79, 90
6, 22709, Note_on_c, 2, 79, 0
6, 22710, Note_on_c, 2, 78, 90
6, 22724, Note_on_c, 2, 78, 0
6, 22725, Note_on_c, 2, 79, 90
6, 22739, Note_on_c, 2, 79, 0
6, 22740, Note_on_c, 2, 81, 90
6, 22769, Note_on_c, 2, 81, 0
6, 22770, Note_on_c, 2, 79, 90
6, 22784, Note_on_c, 2, 79, 0
6, 22785, Note_on_c, 2, 78, 90
6, 22799, Note_on_c, 2, 78, 0
6, 22800, Note_on_c, 2, 79, 90
6, 22829, Note_on_c, 2, 79, 0
6, 22830, Note_on_c, 2, 78, 90
6, 22844, Note_on_c, 2, 78, 0
6, 22845, Note_on_c, 2, 76, 90
6, 22859, Note_on_c, 2, 76, 0
6, 22860, Note_on_c, 2, 78, 90
6, 22889, Note_on_c, 2, 78, 0
6, 22890, Note_on_c, 2, 81, 90
6, 22904, Note_on_c, 2, 81, 0
6, 22905, Note_on_c, 2, 79, 90
6, 22919, Note_on_c, 2, 79, 0
6, 22920, Note_on_c, 2, 78, 90
6, 22949, Note_on_c, 2, 78, 0
6, 22950, Note_on_c, 2, 81, 90
6, 22964, Note_on_c, 2, 81, 0
6, 22965, Note_on_c, 2, 79, 90
6, 22979, Note_on_c, 2, 79, 0
6, 22980, Note_on_c, 2, 78, 90
6, 23069, Note_on_c, 2, 78, 0
6, 23070, Note_on_c, 2, 83, 90
6, 23084, Note_on_c, 2, 83, 0
6, 23100, Note_on_c, 2, 83, 90
6, 23114, Note_on_c, 2, 83, 0
6, 23130, Note_on_c, 2, 78, 90
6, 23144, Note_on_c, 2, 78, 0
6, 23160, Note_on_c, 2, 78, 90
6, 23174, Note_on_c, 2, 78, 0
6, 23190, Note_on_c, 2, 74, 90
6, 23204, Note_on_c, 2, 74, 0
6, 23220, Note_on_c, 2, 74, 90
6, 23234, Note_on_c, 2, 74, 0
6, 23235, Note_on_c, 2, 78, 90
6, 23249, Note_on_c, 2, 78, 0
6, 23250, Note_on_c, 2, 80, 90
6, 23264, Note_on_c, 2, 80, 0
6, 23265, Note_on_c, 2, 81, 90
6, 23279, Note_on_c, 2, 81, 0
6, 23280, Note_on_c, 2, 83, 90
6, 23294, Note_on_c, 2, 83, 0
6, 23295, Note_on_c, 2, 85, 90
6, 23309, Note_on_c, 2, 85, 0
6, 23310, Note_on_c, 2, 83, 90
6, 23324, Note_on_c, 2, 83, 0
6, 23325, Note_on_c, 2, 81, 90
6, 23339, Note_on_c, 2, 81, 0
6, 23340, Note_on_c, 2, 80, 90
6, 23354, Note_on_c, 2, 80, 0
6, 23355, Note_on_c, 2, 78, 90
6, 23369, Note_on_c, 2, 78, 0
6, 23370, Note_on_c, 2, 76, 90
6, 23384, Note_on_c, 2, 76, 0
6, 23385, Note_on_c, 2, 74, 90
6, 23399, Note_on_c, 2, 74, 0
6, 23400, Note_on_c, 2, 73, 90
6, 23414, Note_on_c, 2, 73, 0
6, 23430, Note_on_c, 2, 81, 90
6, 23444, Note_on_c, 2, 81, 0
6, 23460, Note_on_c, 2, 81, 90
6, 23474, Note_on_c, 2, 81, 0
6, 23490, Note_on_c, 2, 76, 90
6, 23504, Note_on_c, 2, 76, 0
6, 23520, Note_on_c, 2, 76, 90
6, 23534, Note_on_c, 2, 76, 0
6, 23550, Note_on_c, 2, 72, 90
6, 23564, Note_on_c, 2, 72, 0
6, 23580, Note_on_c, 2, 72, 90
6, 23594, Note_on_c, 2, 72, 0
6, 23595, Note_on_c, 2, 76, 90
6, 23609, Note_on_c, 2, 76, 0
6, 23610, Note_on_c, 2, 78, 90
6, 23624, Note_on_c, 2, 78, 0
6, 23625, Note_on_c, 2, 79, 90
6, 23639, Note_on_c, 2, 79, 0
6, 23640, Note_on_c, 2, 81, 90
6, 23654, Note_on_c, 2, 81, 0
6, 23655, Note_on_c, 2, 83, 90
6, 23669, Note_on_c, 2, 83, 0
6, 23670, Note_on_c, 2, 81, 90
6, 23684, Note_on_c, 2, 81, 0
6, 23685, Note_on_c, 2, 79, 90
6, 23699, Note_on_c, 2, 79, 0
6, 23700, Note_on_c, 2, 78, 90
6, 23714, Note_on_c, 2, 78, 0
6, 23715, Note_on_c, 2, 76, 90
6, 23729, Note_on_c, 2, 76, 0
6, 23730, Note_on_c, 2, 74, 90
6, 23744, Note_on_c, 2, 74, 0
6, 23745, Note_on_c, 2, 72, 90
6, 23759, Note_on_c, 2, 72, 0
6, 23760, Note_on_c, 2, 71, 90
6, 23774, Note_on_c, 2, 71, 0
6, 23775, Note_on_c, 2, 67, 90
6, 23789, Note_on_c, 2, 67, 0
6, 23790, Note_on_c, 2, 69, 90
6, 23804, Note_on_c, 2, 69, 0
6, 23805, Note_on_c, 2, 71, 90
6, 23819, Note_on_c, 2, 71, 0
6, 23820, Note_on_c, 2, 73, 90
6, 23834, Note_on_c, 2, 73, 0
6, 23835, Note_on_c, 2, 69, 90
6, 23849, Note_on_c, 2, 69, 0
6, 23850, Note_on_c, 2, 71, 90
6, 23864, Note_on_c, 2, 71, 0
6, 23865, Note_on_c, 2, 73, 90
6, 23879, Note_on_c, 2, 73, 0
6, 23880, Note_on_c, 2, 74, 90
6, 23894, Note_on_c, 2, 74, 0
6, 23895, Note_on_c, 2, 71, 90
6, 23909, Note_on_c, 2, 71, 0
6, 23910, Note_on_c, 2, 73, 90
6, 23924, Note_on_c, 2, 73, 0
6, 23925, Note_on_c, 2, 74, 90
6, 23939, Note_on_c, 2, 74, 0
6, 23940, Note_on_c, 2, 76, 90
6, 23954, Note_on_c, 2, 76, 0
6, 23955, Note_on_c, 2, 73, 90
6, 23969, Note_on_c, 2, 73, 0
6, 23970, Note_on_c, 2, 74, 90
6, 23984, Note_on_c, 2, 74, 0
6, 23985, Note_on_c, 2, 76, 90
6, 23999, Note_on_c, 2, 76, 0
6, 24000, Note_on_c, 2, 78, 90
6, 24014, Note_on_c, 2, 78, 0
6, 24015, Note_on_c, 2, 74, 90
6, 24029, Note_on_c, 2, 74, 0
6, 24030, Note_on_c, 2, 76, 90
6, 24044, Note_on_c, 2, 76, 0
6, 24045, Note_on_c, 2, 78, 90
6, 24059, Note_on_c, 2, 78, 0
6, 24060, Note_on_c, 2, 79, 90
6, 24074, Note_on_c, 2, 79, 0
6, 24075, Note_on_c, 2, 76, 90
6, 24089, Note_on_c, 2, 76, 0
6, 24090, Note_on_c, 2, 78, 90
6, 24104, Note_on_c, 2, 78, 0
6, 24105, Note_on_c, 2, 79, 90
6, 24119, Note_on_c, 2, 79, 0
6, 24120, Note_on_c, 2, 81, 90
6, 24134, Note_on_c, 2, 81, 0
6, 24135, Note_on_c, 2, 78, 90
6, 24149, Note_on_c, 2, 78, 0
6, 24150, Note_on_c, 2, 79, 90
6, 24164, Note_on_c, 2, 79, 0
6, 24165, Note_on_c, 2, 81, 90
6, 24179, Note_on_c, 2, 81, 0
6, 24180, Note_on_c, 2, 83, 90
6, 24194, Note_on_c, 2, 83, 0
6, 24195, Note_on_c, 2, 79, 90
6, 24209, Note_on_c, 2, 79, 0
6, 24210, Note_on_c, 2, 81, 90
6, 24224, Note_on_c, 2, 81, 0
6, 24225, Note_on_c, 2, 83, 90
6, 24239, Note_on_c, 2, 83, 0
6, 24240, Note_on_c, 2, 85, 90
6, 24254, Note_on_c, 2, 85, 0
6, 24255, Note_on_c, 2, 81, 90
6, 24269, Note_on_c, 2, 81, 0
6, 24270, Note_on_c, 2, 83, 90
6, 24284, Note_on_c, 2, 83, 0
6, 24285, Note_on_c, 2, 85, 90
6, 24299, Note_on_c, 2, 85, 0
6, 24300, Note_on_c, 2, 86, 90
6, 24329, Note_on_c, 2, 86, 0
6, 24360, Note_on_c, 2, 69, 90
6, 24389, Note_on_c, 2, 69, 0
6, 24420, Note_on_c, 2, 73, 90
6, 24449, Note_on_c, 2, 73, 0
6, 24480, Note_on_c, 2, 74, 90
6, 24659, Note_on_c, 2, 74, 0
6, 27600, Note_on_c, 2, 78, 90
6, 27629, Note_on_c, 2, 78, 0
6, 27660, Note_on_c, 2, 81, 90
6, 27689, Note_on_c, 2, 81, 0
6, 27780, Note_on_c, 2, 76, 90
6, 27809, Note_on_c, 2, 76, 0
6, 27840, Note_on_c, 2, 81, 90
6, 27869, Note_on_c, 2, 81, 0
6, 27960, Note_on_c, 2, 78, 90
6, 27990, Note_on_c, 2, 78, 0
6, 28020, Note_on_c, 2, 83, 90
6, 28050, Note_on_c, 2, 83, 0
6, 28140, Note_on_c, 2, 76, 90
6, 28170, Note_on_c, 2, 76, 0
6, 28200, Note_on_c, 2, 81, 90
6, 28230, Note_on_c, 2, 81, 0
6, 28320, Note_on_c, 2, 81, 90
6, 28350, Note_on_c, 2, 81, 0
6, 28380, Note_on_c, 2, 86, 90
6, 28410, Note_on_c, 2, 86, 0
6, 28500, Note_on_c, 2, 83, 90
6, 28530, Note_on_c, 2, 83, 0
6, 28560, Note_on_c, 2, 76, 90
6, 28590, Note_on_c, 2, 76, 0
6, 28680, Note_on_c, 2, 81, 90
6, 28710, Note_on_c, 2, 81, 0
6, 28740, Note_on_c, 2, 74, 90
6, 28770, Note_on_c, 2, 74, 0
6, 28860, Note_on_c, 2, 76, 90
6, 28890, Note_on_c, 2, 76, 0
6, 28920, Note_on_c, 2, 81, 90
6, 28950, Note_on_c, 2, 81, 0
6, 29040, Note_on_c, 2, 78, 90
6, 29070, Note_on_c, 2, 78, 0
6, 29100, Note_on_c, 2, 74, 90
6, 29130, Note_on_c, 2, 74, 0
6, 29220, Note_on_c, 2, 76, 90
6, 29250, Note_on_c, 2, 76, 0
6, 29280, Note_on_c, 2, 73, 90
6, 29310, Note_on_c, 2, 73, 0
6, 29400, Note_on_c, 2, 79, 90
6, 29430, Note_on_c, 2, 79, 0
6, 29460, Note_on_c, 2, 85, 90
6, 29490, Note_on_c, 2, 85, 0
6, 29580, Note_on_c, 2, 78, 90
6, 29610, Note_on_c, 2, 78, 0
6, 29640, Note_on_c, 2, 83, 90
6, 29670, Note_on_c, 2, 83, 0
6, 29760, Note_on_c, 2, 82, 90
6, 29790, Note_on_c, 2, 82, 0
6, 29820, Note_on_c, 2, 86, 90
6, 29850, Note_on_c, 2, 86, 0
6, 29940, Note_on_c, 2, 85, 90
6, 29970, Note_on_c, 2, 85, 0
6, 30000, Note_on_c, 2, 78, 90
6, 30030, Note_on_c, 2, 78, 0
6, 30120, Note_on_c, 2, 76, 90
6, 30150, Note_on_c, 2, 76, 0
6, 30180, Note_on_c, 2, 74, 90
6, 30210, Note_on_c, 2, 74, 0
6, 30300, Note_on_c, 2, 74, 90
6, 30329, Note_on_c, 2, 74, 0
6, 30330, Note_on_c, 2, 73, 90
6, 30359, Note_on_c, 2, 73, 0
6, 30360, Note_on_c, 2, 71, 90
6, 30389, Note_on_c, 2, 71, 0
6, 30390, Note_on_c, 2, 70, 90
6, 30419, Note_on_c, 2, 70, 0
6, 30420, Note_on_c, 2, 71, 90
6, 30539, Note_on_c, 2, 71, 0
6, 30720, Note_on_c, 2, 82, 90
6, 30749, Note_on_c, 2, 82, 0
6, 30750, Note_on_c, 2, 83, 90
6, 30779, Note_on_c, 2, 83, 0
6, 30780, Note_on_c, 2, 85, 90
6, 30809, Note_on_c, 2, 85, 0
6, 30840, Note_on_c, 2, 85, 90
6, 30869, Note_on_c, 2, 85, 0
6, 30900, Note_on_c, 2, 85, 90
6, 30929, Note_on_c, 2, 85, 0
6, 30960, Note_on_c, 2, 85, 90
6, 31019, Note_on_c, 2, 85, 0
6, 31020, Note_on_c, 2, 83, 90
6, 31049, Note_on_c, 2, 83, 0
6, 31050, Note_on_c, 2, 82, 90
6, 31079, Note_on_c, 2, 82, 0
6, 31080, Note_on_c, 2, 83, 90
6, 31139, Note_on_c, 2, 83, 0
6, 32130, Note_on_c, 2, 74, 90
6, 32159, Note_on_c, 2, 74, 0
6, 32160, Note_on_c, 2, 76, 90
6, 32189, Note_on_c, 2, 76, 0
6, 32190, Note_on_c, 2, 78, 90
6, 32219, Note_on_c, 2, 78, 0
6, 32220, Note_on_c, 2, 79, 90
6, 32249, Note_on_c, 2, 79, 0
6, 32280, Note_on_c, 2, 88, 90
6, 32309, Note_on_c, 2, 88, 0
6, 32340, Note_on_c, 2, 79, 90
6, 32369, Note_on_c, 2, 79, 0
6, 32400, Note_on_c, 2, 79, 90
6, 32415, Note_on_c, 2, 79, 0
6, 32415, Note_on_c, 2, 81, 90
6, 32430, Note_on_c, 2, 81, 0
6, 32430, Note_on_c, 2, 79, 90
6, 32440, Note_on_c, 2, 79, 0
6, 32440, Note_on_c, 2, 81, 90
6, 32450, Note_on_c, 2, 81, 0
6, 32450, Note_on_c, 2, 79, 90
6, 32460, Note_on_c, 2, 79, 0
6, 32460, Note_on_c, 2, 78, 90
6, 32489, Note_on_c, 2, 78, 0
6, 32490, Note_on_c, 2, 76, 90
6, 32519, Note_on_c, 2, 76, 0
6, 32520, Note_on_c, 2, 78, 90
6, 32549, Note_on_c, 2, 78, 0
6, 32550, Note_on_c, 2, 74, 90
6, 32579, Note_on_c, 2, 74, 0
6, 32580, Note_on_c, 2, 76, 90
6, 32639, Note_on_c, 2, 76, 0
6, 32640, Note_on_c, 2, 81, 90
6, 32669, Note_on_c, 2, 81, 0
6, 32670, Note_on_c, 2, 80, 90
6, 32699, Note_on_c, 2, 80, 0
6, 32700, Note_on_c, 2, 81, 90
6, 32819, Note_on_c, 2, 81, 0
6, 32820, Note_on_c, 2, 79, 90
6, 32849, Note_on_c, 2, 79, 0
6, 32850, Note_on_c, 2, 78, 90
6, 32879, Note_on_c, 2, 78, 0
6, 32880, Note_on_c, 2, 79, 90
6, 32909, Note_on_c, 2, 79, 0
6, 32910, Note_on_c, 2, 76, 90
6, 32939, Note_on_c, 2, 76, 0
6, 32940, Note_on_c, 2, 78, 90
6, 32999, Note_on_c, 2, 78, 0
6, 33000, Note_on_c, 2, 83, 90
6, 33029, Note_on_c, 2, 83, 0
6, 33030, Note_on_c, 2, 82, 90
6, 33059, Note_on_c, 2, 82, 0
6, 33060, Note_on_c, 2, 83, 90
6, 33179, Note_on_c, 2, 83, 0
6, 33180, Note_on_c, 2, 82, 90
6, 33209, Note_on_c, 2, 82, 0
6, 33210, Note_on_c, 2, 80, 90
6, 33239, Note_on_c, 2, 80, 0
6, 33240, Note_on_c, 2, 78, 90
6, 33269, Note_on_c, 2, 78, 0
6, 33270, Note_on_c, 2, 76, 90
6, 33299, Note_on_c, 2, 76, 0
6, 33300, Note_on_c, 2, 74, 90
6, 33329, Note_on_c, 2, 74, 0
6, 33330, Note_on_c, 2, 78, 90
6, 33359, Note_on_c, 2, 78, 0
6, 33360, Note_on_c, 2, 83, 90
6, 33419, Note_on_c, 2, 83, 0
6, 33420, Note_on_c, 2, 74, 90
6, 33509, Note_on_c, 2, 74, 0
6, 33510, Note_on_c, 2, 73, 90
6, 33539, Note_on_c, 2, 73, 0
6, 33540, Note_on_c, 2, 74, 90
6, 33599, Note_on_c, 2, 74, 0
6, 33600, Note_on_c, 2, 64, 90
6, 33689, Note_on_c, 2, 64, 0
6, 33690, Note_on_c, 2, 66, 90
6, 33704, Note_on_c, 2, 66, 0
6, 33705, Note_on_c, 2, 68, 90
6, 33719, Note_on_c, 2, 68, 0
6, 33720, Note_on_c, 2, 69, 90
6, 33749, Note_on_c, 2, 69, 0
6, 33750, Note_on_c, 2, 71, 90
6, 33764, Note_on_c, 2, 71, 0
6, 33765, Note_on_c, 2, 73, 90
6, 33779, Note_on_c, 2, 73, 0
6, 33780, Note_on_c, 2, 74, 90
6, 33869, Note_on_c, 2, 74, 0
6, 33870, Note_on_c, 2, 73, 90
6, 33884, Note_on_c, 2, 73, 0
6, 33885, Note_on_c, 2, 71, 90
6, 33899, Note_on_c, 2, 71, 0
6, 33900, Note_on_c, 2, 73, 90
6, 33929, Note_on_c, 2, 73, 0
6, 33930, Note_on_c, 2, 69, 90
6, 33944, Note_on_c, 2, 69, 0
6, 33945, Note_on_c, 2, 71, 90
6, 33959, Note_on_c, 2, 71, 0
6, 33960, Note_on_c, 2, 73, 90
6, 33989, Note_on_c, 2, 73, 0
6, 33990, Note_on_c, 2, 69, 90
6, 34004, Note_on_c, 2, 69, 0
6, 34005, Note_on_c, 2, 71, 90
6, 34019, Note_on_c, 2, 71, 0
6, 34020, Note_on_c, 2, 73, 90
6, 34049, Note_on_c, 2, 73, 0
6, 34050, Note_on_c, 2, 76, 90
6, 34079, Note_on_c, 2, 76, 0
6, 34080, Note_on_c, 2, 79, 90
6, 34199, Note_on_c, 2, 79, 0
6, 34200, Note_on_c, 2, 71, 90
6, 34214, Note_on_c, 2, 71, 0
6, 34215, Note_on_c, 2, 69, 90
6, 34229, Note_on_c, 2, 69, 0
6, 34230, Note_on_c, 2, 67, 90
6, 34259, Note_on_c, 2, 67, 0
6, 34260, Note_on_c, 2, 67, 90
6, 34289, Note_on_c, 2, 67, 0
6, 34290, Note_on_c, 2, 69, 90
6, 34409, Note_on_c, 2, 69, 0
6, 34410, Note_on_c, 2, 71, 90
6, 34424, Note_on_c, 2, 71, 0
6, 34425, Note_on_c, 2, 73, 90
6, 34439, Note_on_c, 2, 73, 0
6, 34440, Note_on_c, 2, 74, 90
6, 34469, Note_on_c, 2, 74, 0
6, 34470, Note_on_c, 2, 76, 90
6, 34484, Note_on_c, 2, 76, 0
6, 34485, Note_on_c, 2, 78, 90
6, 34499, Note_on_c, 2, 78, 0
6, 34500, Note_on_c, 2, 79, 90
6, 34529, Note_on_c, 2, 79, 0
6, 34530, Note_on_c, 2, 81, 90
6, 34544, Note_on_c, 2, 81, 0
6, 34545, Note_on_c, 2, 79, 90
6, 34559, Note_on_c, 2, 79, 0
6, 34560, Note_on_c, 2, 78, 90
6, 34589, Note_on_c, 2, 78, 0
6, 34590, Note_on_c, 2, 80, 90
6, 34604, Note_on_c, 2, 80, 0
6, 34605, Note_on_c, 2, 82, 90
6, 34619, Note_on_c, 2, 82, 0
6, 34620, Note_on_c, 2, 83, 90
6, 34649, Note_on_c, 2, 83, 0
6, 34650, Note_on_c, 2, 82, 90
6, 34664, Note_on_c, 2, 82, 0
6, 34665, Note_on_c, 2, 83, 90
6, 34679, Note_on_c, 2, 83, 0
6, 34680, Note_on_c, 2, 85, 90
6, 34709, Note_on_c, 2, 85, 0
6, 34710, Note_on_c, 2, 83, 90
6, 34724, Note_on_c, 2, 83, 0
6, 34725, Note_on_c, 2, 85, 90
6, 34739, Note_on_c, 2, 85, 0
6, 34740, Note_on_c, 2, 86, 90
6, 34799, Note_on_c, 2, 86, 0
6, 34800, Note_on_c, 2, 80, 90
6, 34949, Note_on_c, 2, 80, 0
6, 34950, Note_on_c, 2, 78, 90
6, 34964, Note_on_c, 2, 78, 0
6, 34965, Note_on_c, 2, 80, 90
6, 34979, Note_on_c, 2, 80, 0
6, 34980, Note_on_c, 2, 82, 90
6, 35009, Note_on_c, 2, 82, 0
6, 35010, Note_on_c, 2, 80, 90
6, 35024, Note_on_c, 2, 80, 0
6, 35025, Note_on_c, 2, 82, 90
6, 35039, Note_on_c, 2, 82, 0
6, 35040, Note_on_c, 2, 83, 90
6, 35069, Note_on_c, 2, 83, 0
6, 35070, Note_on_c, 2, 82, 90
6, 35084, Note_on_c, 2, 82, 0
6, 35085, Note_on_c, 2, 83, 90
6, 35099, Note_on_c, 2, 83, 0
6, 35100, Note_on_c, 2, 85, 90
6, 35159, Note_on_c, 2, 85, 0
6, 35160, Note_on_c, 2, 78, 90
6, 35309, Note_on_c, 2, 78, 0
6, 35310, Note_on_c, 2, 77, 90
6, 35324, Note_on_c, 2, 77, 0
6, 35325, Note_on_c, 2, 78, 90
6, 35339, Note_on_c, 2, 78, 0
6, 35340, Note_on_c, 2, 80, 90
6, 35369, Note_on_c, 2, 80, 0
6, 35370, Note_on_c, 2, 78, 90
6, 35384, Note_on_c, 2, 78, 0
6, 35385, Note_on_c, 2, 80, 90
6, 35399, Note_on_c, 2, 80, 0
6, 35400, Note_on_c, 2, 81, 90
6, 35429, Note_on_c, 2, 81, 0
6, 35430, Note_on_c, 2, 80, 90
6, 35444, Note_on_c, 2, 80, 0
6, 35445, Note_on_c, 2, 81, 90
6, 35459, Note_on_c, 2, 81, 0
6, 35460, Note_on_c, 2, 83, 90
6, 35489, Note_on_c, 2, 83, 0
6, 35490, Note_on_c, 2, 81, 90
6, 35519, Note_on_c, 2, 81, 0
6, 35520, Note_on_c, 2, 81, 90
6, 35549, Note_on_c, 2, 81, 0
6, 35550, Note_on_c, 2, 80, 90
6, 35579, Note_on_c, 2, 80, 0
6, 35580, Note_on_c, 2, 80, 90
6, 35669, Note_on_c, 2, 80, 0
6, 35670, Note_on_c, 2, 73, 90
6, 35699, Note_on_c, 2, 73, 0
6, 35700, Note_on_c, 2, 83, 90
6, 35729, Note_on_c, 2, 83, 0
6, 35730, Note_on_c, 2, 81, 90
6, 35759, Note_on_c, 2, 81, 0
6, 35760, Note_on_c, 2, 80, 90
6, 35789, Note_on_c, 2, 80, 0
6, 35790, Note_on_c, 2, 81, 90
6, 35819, Note_on_c, 2, 81, 0
6, 35820, Note_on_c, 2, 78, 90
6, 35849, Note_on_c, 2, 78, 0
6, 35850, Note_on_c, 2, 81, 90
6, 35879, Note_on_c, 2, 81, 0
6, 35880, Note_on_c, 2, 81, 90
6, 35909, Note_on_c, 2, 81, 0
6, 35910, Note_on_c, 2, 80, 90
6, 35939, Note_on_c, 2, 80, 0
6, 35940, Note_on_c, 2, 78, 90
6, 35969, Note_on_c, 2, 78, 0
6, 35970, Note_on_c, 2, 77, 90
6, 35999, Note_on_c, 2, 77, 0
6, 36000, Note_on_c, 2, 78, 90
6, 36179, Note_on_c, 2, 78, 0
6, 36510, Note_on_c, 2, 78, 90
6, 36524, Note_on_c, 2, 78, 0
6, 36525, Note_on_c, 2, 79, 90
6, 36539, Note_on_c, 2, 79, 0
6, 36540, Note_on_c, 2, 81, 90
6, 36554, Note_on_c, 2, 81, 0
6, 36555, Note_on_c, 2, 79, 90
6, 36569, Note_on_c, 2, 79, 0
6, 36570, Note_on_c, 2, 81, 90
6, 36584, Note_on_c, 2, 81, 0
6, 36585, Note_on_c, 2, 79, 90
6, 36599, Note_on_c, 2, 79, 0
6, 36600, Note_on_c, 2, 81, 90
6, 36614, Note_on_c, 2, 81, 0
6, 36615, Note_on_c, 2, 79, 90
6, 36629, Note_on_c, 2, 79, 0
6, 36630, Note_on_c, 2, 78, 90
6, 36644, Note_on_c, 2, 78, 0
6, 36645, Note_on_c, 2, 79, 90
6, 36659, Note_on_c, 2, 79, 0
6, 36660, Note_on_c, 2, 81, 90
6, 36719, Note_on_c, 2, 81, 0
6, 37035, Note_on_c, 2, 86, 90
6, 37049, Note_on_c, 2, 86, 0
6, 37050, Note_on_c, 2, 85, 90
6, 37064, Note_on_c, 2, 85, 0
6, 37065, Note_on_c, 2, 83, 90
6, 37079, Note_on_c, 2, 83, 0
6, 37080, Note_on_c, 2, 81, 90
6, 37094, Note_on_c, 2, 81, 0
6, 37095, Note_on_c, 2, 86, 90
6, 37109, Note_on_c, 2, 86, 0
6, 37110, Note_on_c, 2, 85, 90
6, 37124, Note_on_c, 2, 85, 0
6, 37125, Note_on_c, 2, 83, 90
6, 37139, Note_on_c, 2, 83, 0
6, 37140, Note_on_c, 2, 81, 90
6, 37154, Note_on_c, 2, 81, 0
6, 37155, Note_on_c, 2, 79, 90
6, 37169, Note_on_c, 2, 79, 0
6, 37170, Note_on_c, 2, 78, 90
6, 37184, Note_on_c, 2, 78, 0
6, 37185, Note_on_c, 2, 76, 90
6, 37199, Note_on_c, 2, 76, 0
6, 37200, Note_on_c, 2, 78, 100
6, 37800, Note_on_c, 2, 78, 0
6, 37800, Note_on_c, 2, 78, 100
6, 37830, Note_on_c, 2, 78, 0
6, 37860, Note_on_c, 2, 78, 100
6, 37890, Note_on_c, 2, 78, 0
6, 37920, Note_on_c, 2, 78, 100
6, 37980, Note_on_c, 2, 78, 0
6, 37980, Note_on_c, 2, 76, 100
6, 38010, Note_on_c, 2, 76, 0
6, 38010, Note_on_c, 2, 74, 100
6, 38040, Note_on_c, 2, 74, 0
6, 38040, Note_on_c, 2, 76, 100
6, 38100, Note_on_c, 2, 76, 0
6, 38760, Note_on_c, 2, 79, 90
6, 38819, Note_on_c, 2, 79, 0
6, 38820, Note_on_c, 2, 78, 90
6, 38879, Note_on_c, 2, 78, 0
6, 38880, Note_on_c, 2, 76, 90
6, 38939, Note_on_c, 2, 76, 0
6, 38940, Note_on_c, 2, 74, 90
6, 38999, Note_on_c, 2, 74, 0
6, 39000, Note_on_c, 2, 81, 90
6, 39119, Note_on_c, 2, 81, 0
6, 39120, Note_on_c, 2, 76, 90
6, 39179, Note_on_c, 2, 76, 0
6, 39180, Note_on_c, 2, 75, 90
6, 39209, Note_on_c, 2, 75, 0
6, 39210, Note_on_c, 2, 78, 90
6, 39239, Note_on_c, 2, 78, 0
6, 39240, Note_on_c, 2, 81, 90
6, 39359, Note_on_c, 2, 81, 0
6, 39360, Note_on_c, 2, 72, 90
6, 39374, Note_on_c, 2, 72, 0
6, 39375, Note_on_c, 2, 71, 90
6, 39389, Note_on_c, 2, 71, 0
6, 39390, Note_on_c, 2, 69, 90
6, 39419, Note_on_c, 2, 69, 0
6, 39420, Note_on_c, 2, 69, 90
6, 39449, Note_on_c, 2, 69, 0
6, 39450, Note_on_c, 2, 71, 90
6, 39570, Note_on_c, 2, 71, 0
6, 39570, Note_on_c, 2, 73, 90
6, 39584, Note_on_c, 2, 73, 0
6, 39585, Note_on_c, 2, 75, 90
6, 39599, Note_on_c, 2, 75, 0
6, 39600, Note_on_c, 2, 76, 90
6, 39629, Note_on_c, 2, 76, 0
6, 39630, Note_on_c, 2, 78, 90
6, 39644, Note_on_c, 2, 78, 0
6, 39645, Note_on_c, 2, 80, 90
6, 39659, Note_on_c, 2, 80, 0
6, 39660, Note_on_c, 2, 81, 90
6, 39749, Note_on_c, 2, 81, 0
6, 39750, Note_on_c, 2, 79, 90
6, 39764, Note_on_c, 2, 79, 0
6, 39765, Note_on_c, 2, 78, 90
6, 39779, Note_on_c, 2, 78, 0
6, 39780, Note_on_c, 2, 79, 90
6, 39809, Note_on_c, 2, 79, 0
6, 39810, Note_on_c, 2, 78, 90
6, 39824, Note_on_c, 2, 78, 0
6, 39825, Note_on_c, 2, 76, 90
6, 39839, Note_on_c, 2, 76, 0
6, 39840, Note_on_c, 2, 79, 90
6, 39869, Note_on_c, 2, 79, 0
6, 39870, Note_on_c, 2, 76, 90
6, 39884, Note_on_c, 2, 76, 0
6, 39885, Note_on_c, 2, 78, 90
6, 39899, Note_on_c, 2, 78, 0
6, 39900, Note_on_c, 2, 79, 90
6, 39929, Note_on_c, 2, 79, 0
6, 39930, Note_on_c, 2, 83, 90
6, 39944, Note_on_c, 2, 83, 0
6, 39945, Note_on_c, 2, 81, 90
6, 39959, Note_on_c, 2, 81, 0
6, 39960, Note_on_c, 2, 79, 90
6, 39989, Note_on_c, 2, 79, 0
6, 39990, Note_on_c, 2, 83, 90
6, 40004, Note_on_c, 2, 83, 0
6, 40005, Note_on_c, 2, 81, 90
6, 40019, Note_on_c, 2, 81, 0
6, 40020, Note_on_c, 2, 79, 90
6, 40109, Note_on_c, 2, 79, 0
6, 40110, Note_on_c, 2, 76, 90
6, 40124, Note_on_c, 2, 76, 0
6, 40125, Note_on_c, 2, 78, 90
6, 40139, Note_on_c, 2, 78, 0
6, 40140, Note_on_c, 2, 79, 90
6, 40169, Note_on_c, 2, 79, 0
6, 40170, Note_on_c, 2, 76, 90
6, 40184, Note_on_c, 2, 76, 0
6, 40185, Note_on_c, 2, 78, 90
6, 40199, Note_on_c, 2, 78, 0
6, 40200, Note_on_c, 2, 79, 90
6, 40289, Note_on_c, 2, 79, 0
6, 40290, Note_on_c, 2, 78, 90
6, 40304, Note_on_c, 2, 78, 0
6, 40305, Note_on_c, 2, 79, 90
6, 40319, Note_on_c, 2, 79, 0
6, 40320, Note_on_c, 2, 81, 90
6, 40349, Note_on_c, 2, 81, 0
6, 40350, Note_on_c, 2, 79, 90
6, 40364, Note_on_c, 2, 79, 0
6, 40365, Note_on_c, 2, 78, 90
6, 40379, Note_on_c, 2, 78, 0
6, 40380, Note_on_c, 2, 79, 90
6, 40409, Note_on_c, 2, 79, 0
6, 40410, Note_on_c, 2, 78, 90
6, 40424, Note_on_c, 2, 78, 0
6, 40425, Note_on_c, 2, 76, 90
6, 40439, Note_on_c, 2, 76, 0
6, 40440, Note_on_c, 2, 78, 90
6, 40469, Note_on_c, 2, 78, 0
6, 40470, Note_on_c, 2, 81, 90
6, 40484, Note_on_c, 2, 81, 0
6, 40485, Note_on_c, 2, 79, 90
6, 40499, Note_on_c, 2, 79, 0
6, 40500, Note_on_c, 2, 78, 90
6, 40529, Note_on_c, 2, 78, 0
6, 40530, Note_on_c, 2, 81, 90
6, 40544, Note_on_c, 2, 81, 0
6, 40545, Note_on_c, 2, 79, 90
6, 40559, Note_on_c, 2, 79, 0
6, 40560, Note_on_c, 2, 78, 90
6, 40649, Note_on_c, 2, 78, 0
6, 40650, Note_on_c, 2, 83, 90
6, 40664, Note_on_c, 2, 83, 0
6, 40680, Note_on_c, 2, 83, 90
6, 40694, Note_on_c, 2, 83, 0
6, 40710, Note_on_c, 2, 78, 90
6, 40724, Note_on_c, 2, 78, 0
6, 40740, Note_on_c, 2, 78, 90
6, 40754, Note_on_c, 2, 78, 0
6, 40770, Note_on_c, 2, 74, 90
6, 40784, Note_on_c, 2, 74, 0
6, 40800, Note_on_c, 2, 74, 90
6, 40814, Note_on_c, 2, 74, 0
6, 40815, Note_on_c, 2, 78, 90
6, 40829, Note_on_c, 2, 78, 0
6, 40830, Note_on_c, 2, 80, 90
6, 40844, Note_on_c, 2, 80, 0
6, 40845, Note_on_c, 2, 81, 90
6, 40859, Note_on_c, 2, 81, 0
6, 40860, Note_on_c, 2, 83, 90
6, 40874, Note_on_c, 2, 83, 0
6, 40875, Note_on_c, 2, 85, 90
6, 40889, Note_on_c, 2, 85, 0
6, 40890, Note_on_c, 2, 83, 90
6, 40904, Note_on_c, 2, 83, 0
6, 40905, Note_on_c, 2, 81, 90
6, 40919, Note_on_c, 2, 81, 0
6, 40920, Note_on_c, 2, 80, 90
6, 40934, Note_on_c, 2, 80, 0
6, 40935, Note_on_c, 2, 78, 90
6, 40949, Note_on_c, 2, 78, 0
6, 40950, Note_on_c, 2, 76, 90
6, 40964, Note_on_c, 2, 76, 0
6, 40965, Note_on_c, 2, 74, 90
6, 40979, Note_on_c, 2, 74, 0
6, 40980, Note_on_c, 2, 73, 90
6, 40994, Note_on_c, 2, 73, 0
6, 41010, Note_on_c, 2, 81, 90
6, 41024, Note_on_c, 2, 81, 0
6, 41040, Note_on_c, 2, 81, 90
6, 41054, Note_on_c, 2, 81, 0
6, 41070, Note_on_c, 2, 76, 90
6, 41084, Note_on_c, 2, 76, 0
6, 41100, Note_on_c, 2, 76, 90
6, 41114, Note_on_c, 2, 76, 0
6, 41130, Note_on_c, 2, 72, 90
6, 41144, Note_on_c, 2, 72, 0
6, 41160, Note_on_c, 2, 72, 90
6, 41174, Note_on_c, 2, 72, 0
6, 41175, Note_on_c, 2, 76, 90
6, 41189, Note_on_c, 2, 76, 0
6, 41190, Note_on_c, 2, 78, 90
6, 41204, Note_on_c, 2, 78, 0
6, 41205, Note_on_c, 2, 79, 90
6, 41219, Note_on_c, 2, 79, 0
6, 41220, Note_on_c, 2, 81, 90
6, 41234, Note_on_c, 2, 81, 0
6, 41235, Note_on_c, 2, 83, 90
6, 41249, Note_on_c, 2, 83, 0
6, 41250, Note_on_c, 2, 81, 90
6, 41264, Note_on_c, 2, 81, 0
6, 41265, Note_on_c, 2, 79, 90
6, 41279, Note_on_c, 2, 79, 0
6, 41280, Note_on_c, 2, 78, 90
6, 41294, Note_on_c, 2, 78, 0
6, 41295, Note_on_c, 2, 76, 90
6, 41309, Note_on_c, 2, 76, 0
6, 41310, Note_on_c, 2, 74, 90
6, 41324, Note_on_c, 2, 74, 0
6, 41325, Note_on_c, 2, 72, 90
6, 41339, Note_on_c, 2, 72, 0
6, 41340, Note_on_c, 2, 71, 90
6, 41354, Note_on_c, 2, 71, 0
6, 41355, Note_on_c, 2, 67, 90
6, 41369, Note_on_c, 2, 67, 0
6, 41370, Note_on_c, 2, 69, 90
6, 41384, Note_on_c, 2, 69, 0
6, 41385, Note_on_c, 2, 71, 90
6, 41399, Note_on_c, 2, 71, 0
6, 41400, Note_on_c, 2, 73, 90
6, 41414, Note_on_c, 2, 73, 0
6, 41415, Note_on_c, 2, 69, 90
6, 41429, Note_on_c, 2, 69, 0
6, 41430, Note_on_c, 2, 71, 90
6, 41444, Note_on_c, 2, 71, 0
6, 41445, Note_on_c, 2, 73, 90
6, 41459, Note_on_c, 2, 73, 0
6, 41460, Note_on_c, 2, 74, 90
6, 41474, Note_on_c, 2, 74, 0
6, 41475, Note_on_c, 2, 71, 90
6, 41489, Note_on_c, 2, 71, 0
6, 41490, Note_on_c, 2, 73, 90
6, 41504, Note_on_c, 2, 73, 0
6, 41505, Note_on_c, 2, 74, 90
6, 41519, Note_on_c, 2, 74, 0
6, 41520, Note_on_c, 2, 76, 90
6, 41534, Note_on_c, 2, 76, 0
6, 41535, Note_on_c, 2, 73, 90
6, 41549, Note_on_c, 2, 73, 0
6, 41550, Note_on_c, 2, 74, 90
6, 41564, Note_on_c, 2, 74, 0
6, 41565, Note_on_c, 2, 76, 90
6, 41579, Note_on_c, 2, 76, 0
6, 41580, Note_on_c, 2, 78, 90
6, 41594, Note_on_c, 2, 78, 0
6, 41595, Note_on_c, 2, 74, 90
6, 41609, Note_on_c, 2, 74, 0
6, 41610, Note_on_c, 2, 76, 90
6, 41624, Note_on_c, 2, 76, 0
6, 41625, Note_on_c, 2, 78, 90
6, 41639, Note_on_c, 2, 78, 0
6, 41640, Note_on_c, 2, 79, 90
6, 41654, Note_on_c, 2, 79, 0
6, 41655, Note_on_c, 2, 76, 90
6, 41669, Note_on_c, 2, 76, 0
6, 41670, Note_on_c, 2, 78, 90
6, 41684, Note_on_c, 2, 78, 0
6, 41685, Note_on_c, 2, 79, 90
6, 41699, Note_on_c, 2, 79, 0
6, 41700, Note_on_c, 2, 81, 90
6, 41714, Note_on_c, 2, 81, 0
6, 41715, Note_on_c, 2, 78, 90
6, 41729, Note_on_c, 2, 78, 0
6, 41730, Note_on_c, 2, 79, 90
6, 41744, Note_on_c, 2, 79, 0
6, 41745, Note_on_c, 2, 81, 90
6, 41759, Note_on_c, 2, 81, 0
6, 41760, Note_on_c, 2, 83, 90
6, 41774, Note_on_c, 2, 83, 0
6, 41775, Note_on_c, 2, 79, 90
6, 41789, Note_on_c, 2, 79, 0
6, 41790, Note_on_c, 2, 81, 90
6, 41804, Note_on_c, 2, 81, 0
6, 41805, Note_on_c, 2, 83, 90
6, 41819, Note_on_c, 2, 83, 0
6, 41820, Note_on_c, 2, 85, 90
6, 41834, Note_on_c, 2, 85, 0
6, 41835, Note_on_c, 2, 81, 90
6, 41849, Note_on_c, 2, 81, 0
6, 41850, Note_on_c, 2, 83, 90
6, 41864, Note_on_c, 2, 83, 0
6, 41865, Note_on_c, 2, 85, 90
6, 41879, Note_on_c, 2, 85, 0
6, 41880, Note_on_c, 2, 86, 90
6, 41909, Note_on_c, 2, 86, 0
6, 41940, Note_on_c, 2, 69, 90
6, 41969, Note_on_c, 2, 69, 0
6, 42000, Note_on_c, 2, 73, 90
6, 42029, Note_on_c, 2, 73, 0
6, 42060, Note_on_c, 2, 74, 90
6, 42119, Note_on_c, 2, 74, 0
6, 42990, Note_on_c, 2, 78, 90
6, 43004, Note_on_c, 2, 78, 0
6, 43005, Note_on_c, 2, 79, 90
6, 43019, Note_on_c, 2, 79, 0
6, 43020, Note_on_c, 2, 81, 90
6, 43034, Note_on_c, 2, 81, 0
6, 43035, Note_on_c, 2, 79, 90
6, 43049, Note_on_c, 2, 79, 0
6, 43050, Note_on_c, 2, 81, 90
6, 43064, Note_on_c, 2, 81, 0
6, 43065, Note_on_c, 2, 79, 90
6, 43079, Note_on_c, 2, 79, 0
6, 43080, Note_on_c, 2, 81, 90
6, 43094, Note_on_c, 2, 81, 0
6, 43095, Note_on_c, 2, 79, 90
6, 43109, Note_on_c, 2, 79, 0
6, 43110, Note_on_c, 2, 78, 90
6, 43124, Note_on_c, 2, 78, 0
6, 43125, Note_on_c, 2, 79, 90
6, 43139, Note_on_c, 2, 79, 0
6, 43140, Note_on_c, 2, 81, 90
6, 43154, Note_on_c, 2, 81, 0
6, 43155, Note_on_c, 2, 86, 90
6, 43169, Note_on_c, 2, 86, 0
6, 43170, Note_on_c, 2, 85, 90
6, 43184, Note_on_c, 2, 85, 0
6, 43185, Note_on_c, 2, 83, 90
6, 43199, Note_on_c, 2, 83, 0
6, 43200, Note_on_c, 2, 81, 90
6, 43214, Note_on_c, 2, 81, 0
6, 43215, Note_on_c, 2, 86, 90
6, 43229, Note_on_c, 2, 86, 0
6, 43230, Note_on_c, 2, 85, 90
6, 43244, Note_on_c, 2, 85, 0
6, 43245, Note_on_c, 2, 83, 90
6, 43259, Note_on_c, 2, 83, 0
6, 43260, Note_on_c, 2, 81, 90
6, 43274, Note_on_c, 2, 81, 0
6, 43275, Note_on_c, 2, 79, 90
6, 43289, Note_on_c, 2, 79, 0
6, 43290, Note_on_c, 2, 78, 90
6, 43304, Note_on_c, 2, 78, 0
6, 43305, Note_on_c, 2, 76, 90
6, 43319, Note_on_c, 2, 76, 0
6, 43320, Note_on_c, 2, 78, 90
6, 43920, Note_on_c, 2, 78, 0
6, 43920, Note_on_c, 2, 78, 90
6, 43950, Note_on_c, 2, 78, 0
6, 43980, Note_on_c, 2, 78, 90
6, 44010, Note_on_c, 2, 78, 0
6, 44040, Note_on_c, 2, 78, 90
6, 44100, Note_on_c, 2, 78, 0
6, 44100, Note_on_c, 2, 76, 90
6, 44130, Note_on_c, 2, 76, 0
6, 44130, Note_on_c, 2, 74, 90
6, 44160, Note_on_c, 2, 74, 0
6, 44160, Note_on_c, 2, 76, 90
6, 44220, Note_on_c, 2, 76, 0
6, 44880, Note_on_c, 2, 79, 90
6, 44940, Note_on_c, 2, 79, 0
6, 44940, Note_on_c, 2, 78, 90
6, 45000, Note_on_c, 2, 78, 0
6, 45000, Note_on_c, 2, 76, 90
6, 45060, Note_on_c, 2, 76, 0
6, 45060, Note_on_c, 2, 74, 90
6, 45120, Note_on_c, 2, 74, 0
6, 45120, Note_on_c, 2, 81, 90
6, 45240, Note_on_c, 2, 81, 0
6, 45900, Note_on_c, 2, 74, 90
6, 45929, Note_on_c, 2, 74, 0
6, 45930, Note_on_c, 2, 76, 90
6, 45959, Note_on_c, 2, 76, 0
6, 45960, Note_on_c, 2, 78, 90
6, 45974, Note_on_c, 2, 78, 0
6, 45975, Note_on_c, 2, 76, 90
6, 45989, Note_on_c, 2, 76, 0
6, 45990, Note_on_c, 2, 74, 90
6, 46004, Note_on_c, 2, 74, 0
6, 46005, Note_on_c, 2, 76, 90
6, 46019, Note_on_c, 2, 76, 0
6, 46020, Note_on_c, 2, 78, 90
6, 46049, Note_on_c, 2, 78, 0
6, 46050, Note_on_c, 2, 76, 90
6, 46079, Note_on_c, 2, 76, 0
6, 46080, Note_on_c, 2, 78, 90
6, 46109, Note_on_c, 2, 78, 0
6, 46110, Note_on_c, 2, 80, 90
6, 46139, Note_on_c, 2, 80, 0
6, 46140, Note_on_c, 2, 81, 90
6, 46154, Note_on_c, 2, 81, 0
6, 46155, Note_on_c, 2, 80, 90
6, 46169, Note_on_c, 2, 80, 0
6, 46170, Note_on_c, 2, 78, 90
6, 46184, Note_on_c, 2, 78, 0
6, 46185, Note_on_c, 2, 80, 90
6, 46199, Note_on_c, 2, 80, 0
6, 46200, Note_on_c, 2, 81, 90
6, 46229, Note_on_c, 2, 81, 0
6, 46230, Note_on_c, 2, 76, 90
6, 46259, Note_on_c, 2, 76, 0
6, 46260, Note_on_c, 2, 73, 90
6, 46289, Note_on_c, 2, 73, 0
6, 46290, Note_on_c, 2, 81, 90
6, 46319, Note_on_c, 2, 81, 0
6, 46320, Note_on_c, 2, 71, 90
6, 46349, Note_on_c, 2, 71, 0
6, 46350, Note_on_c, 2, 80, 90
6, 46379, Note_on_c, 2, 80, 0
6, 46380, Note_on_c, 2, 69, 90
6, 46499, Note_on_c, 2, 69, 0
6, 46620, Note_on_c, 2, 67, 90
6, 46649, Note_on_c, 2, 67, 0
6, 46650, Note_on_c, 2, 69, 90
6, 46679, Note_on_c, 2, 69, 0
6, 46680, Note_on_c, 2, 71, 90
6, 46694, Note_on_c, 2, 71, 0
6, 46695, Note_on_c, 2, 69, 90
6, 46709, Note_on_c, 2, 69, 0
6, 46710, Note_on_c, 2, 67, 90
6, 46724, Note_on_c, 2, 67, 0
6, 46725, Note_on_c, 2, 69, 90
6, 46739, Note_on_c, 2, 69, 0
6, 46740, Note_on_c, 2, 71, 90
6, 46829, Note_on_c, 2, 71, 0
6, 46830, Note_on_c, 2, 73, 90
6, 46859, Note_on_c, 2, 73, 0
6, 46860, Note_on_c, 2, 74, 90
6, 46874, Note_on_c, 2, 74, 0
6, 46875, Note_on_c, 2, 73, 90
6, 46889, Note_on_c, 2, 73, 0
6, 46890, Note_on_c, 2, 71, 90
6, 46904, Note_on_c, 2, 71, 0
6, 46905, Note_on_c, 2, 73, 90
6, 46919, Note_on_c, 2, 73, 0
6, 46920, Note_on_c, 2, 74, 90
6, 46949, Note_on_c, 2, 74, 0
6, 46980, Note_on_c, 2, 74, 90
6, 47009, Note_on_c, 2, 74, 0
6, 47040, Note_on_c, 2, 73, 90
6, 47069, Note_on_c, 2, 73, 0
6, 47100, Note_on_c, 2, 74, 90
6, 47129, Note_on_c, 2, 74, 0
6, 47130, Note_on_c, 2, 73, 90
6, 47159, Note_on_c, 2, 73, 0
6, 47160, Note_on_c, 2, 74, 90
6, 47189, Note_on_c, 2, 74, 0
6, 47190, Note_on_c, 2, 78, 90
6, 47219, Note_on_c, 2, 78, 0
6, 47220, Note_on_c, 2, 76, 90
6, 47249, Note_on_c, 2, 76, 0
6, 47250, Note_on_c, 2, 74, 90
6, 47279, Note_on_c, 2, 74, 0
6, 47280, Note_on_c, 2, 73, 90
6, 47309, Note_on_c, 2, 73, 0
6, 47310, Note_on_c, 2, 71, 90
6, 47339, Note_on_c, 2, 71, 0
6, 47340, Note_on_c, 2, 73, 90
6, 47369, Note_on_c, 2, 73, 0
6, 47370, Note_on_c, 2, 76, 90
6, 47399, Note_on_c, 2, 76, 0
6, 47400, Note_on_c, 2, 75, 90
6, 47429, Note_on_c, 2, 75, 0
6, 47430, Note_on_c, 2, 78, 90
6, 47459, Note_on_c, 2, 78, 0
6, 47460, Note_on_c, 2, 76, 90
6, 47489, Note_on_c, 2, 76, 0
6, 47490, Note_on_c, 2, 75, 90
6, 47519, Note_on_c, 2, 75, 0
6, 47520, Note_on_c, 2, 76, 90
6, 47549, Note_on_c, 2, 76, 0
6, 47550, Note_on_c, 2, 78, 90
6, 47579, Note_on_c, 2, 78, 0
6, 47580, Note_on_c, 2, 79, 90
6, 47594, Note_on_c, 2, 79, 0
6, 47595, Note_on_c, 2, 78, 90
6, 47609, Note_on_c, 2, 78, 0
6, 47610, Note_on_c, 2, 76, 90
6, 47624, Note_on_c, 2, 76, 0
6, 47625, Note_on_c, 2, 78, 90
6, 47639, Note_on_c, 2, 78, 0
6, 47640, Note_on_c, 2, 79, 90
6, 47669, Note_on_c, 2, 79, 0
6, 47670, Note_on_c, 2, 78, 90
6, 47699, Note_on_c, 2, 78, 0
6, 47700, Note_on_c, 2, 76, 90
6, 47729, Note_on_c, 2, 76, 0
6, 47730, Note_on_c, 2, 74, 90
6, 47759, Note_on_c, 2, 74, 0
6, 47760, Note_on_c, 2, 73, 90
6, 47789, Note_on_c, 2, 73, 0
6, 47790, Note_on_c, 2, 71, 90
6, 47819, Note_on_c, 2, 71, 0
6, 47820, Note_on_c, 2, 70, 90
6, 47849, Note_on_c, 2, 70, 0
6, 47850, Note_on_c, 2, 73, 90
6, 47879, Note_on_c, 2, 73, 0
6, 47880, Note_on_c, 2, 76, 90
6, 47999, Note_on_c, 2, 76, 0
6, 48000, Note_on_c, 2, 67, 90
6, 48014, Note_on_c, 2, 67, 0
6, 48015, Note_on_c, 2, 66, 90
6, 48029, Note_on_c, 2, 66, 0
6, 48030, Note_on_c, 2, 64, 90
6, 48059, Note_on_c, 2, 64, 0
6, 48060, Note_on_c, 2, 64, 90
6, 48089, Note_on_c, 2, 64, 0
6, 48090, Note_on_c, 2, 66, 90
6, 48209, Note_on_c, 2, 66, 0
6, 48210, Note_on_c, 2, 68, 90
6, 48224, Note_on_c, 2, 68, 0
6, 48225, Note_on_c, 2, 70, 90
6, 48239, Note_on_c, 2, 70, 0
6, 48240, Note_on_c, 2, 71, 90
6, 48269, Note_on_c, 2, 71, 0
6, 48270, Note_on_c, 2, 73, 90
6, 48284, Note_on_c, 2, 73, 0
6, 48285, Note_on_c, 2, 75, 90
6, 48299, Note_on_c, 2, 75, 0
6, 48300, Note_on_c, 2, 76, 90
6, 48389, Note_on_c, 2, 76, 0
6, 48390, Note_on_c, 2, 74, 90
6, 48404, Note_on_c, 2, 74, 0
6, 48405, Note_on_c, 2, 73, 90
6, 48419, Note_on_c, 2, 73, 0
6, 48420, Note_on_c, 2, 74, 90
6, 48449, Note_on_c, 2, 74, 0
6, 48450, Note_on_c, 2, 73, 90
6, 48464, Note_on_c, 2, 73, 0
6, 48465, Note_on_c, 2, 71, 90
6, 48479, Note_on_c, 2, 71, 0
6, 48480, Note_on_c, 2, 74, 90
6, 48509, Note_on_c, 2, 74, 0
6, 48510, Note_on_c, 2, 71, 90
6, 48524, Note_on_c, 2, 71, 0
6, 48525, Note_on_c, 2, 73, 90
6, 48539, Note_on_c, 2, 73, 0
6, 48540, Note_on_c, 2, 74, 90
6, 48569, Note_on_c, 2, 74, 0
6, 48570, Note_on_c, 2, 78, 90
6, 48584, Note_on_c, 2, 78, 0
6, 48585, Note_on_c, 2, 76, 90
6, 48599, Note_on_c, 2, 76, 0
6, 48600, Note_on_c, 2, 74, 90
6, 48629, Note_on_c, 2, 74, 0
6, 48630, Note_on_c, 2, 78, 90
6, 48644, Note_on_c, 2, 78, 0
6, 48645, Note_on_c, 2, 76, 90
6, 48659, Note_on_c, 2, 76, 0
6, 48660, Note_on_c, 2, 74, 90
6, 48749, Note_on_c, 2, 74, 0
6, 48750, Note_on_c, 2, 71, 90
6, 48764, Note_on_c, 2, 71, 0
6, 48765, Note_on_c, 2, 73, 90
6, 48779, Note_on_c, 2, 73, 0
6, 48780, Note_on_c, 2, 74, 90
6, 48809, Note_on_c, 2, 74, 0
6, 48810, Note_on_c, 2, 71, 90
6, 48824, Note_on_c, 2, 71, 0
6, 48825, Note_on_c, 2, 73, 90
6, 48839, Note_on_c, 2, 73, 0
6, 48840, Note_on_c, 2, 74, 90
6, 48929, Note_on_c, 2, 74, 0
6, 48930, Note_on_c, 2, 73, 90
6, 48944, Note_on_c, 2, 73, 0
6, 48945, Note_on_c, 2, 74, 90
6, 48959, Note_on_c, 2, 74, 0
6, 48960, Note_on_c, 2, 76, 90
6, 48989, Note_on_c, 2, 76, 0
6, 48990, Note_on_c, 2, 74, 90
6, 49004, Note_on_c, 2, 74, 0
6, 49005, Note_on_c, 2, 73, 90
6, 49019, Note_on_c, 2, 73, 0
6, 49020, Note_on_c, 2, 74, 90
6, 49049, Note_on_c, 2, 74, 0
6, 49050, Note_on_c, 2, 73, 90
6, 49064, Note_on_c, 2, 73, 0
6, 49065, Note_on_c, 2, 71, 90
6, 49079, Note_on_c, 2, 71, 0
6, 49080, Note_on_c, 2, 73, 90
6, 49109, Note_on_c, 2, 73, 0
6, 49110, Note_on_c, 2, 76, 90
6, 49124, Note_on_c, 2, 76, 0
6, 49125, Note_on_c, 2, 74, 90
6, 49139, Note_on_c, 2, 74, 0
6, 49140, Note_on_c, 2, 73, 90
6, 49169, Note_on_c, 2, 73, 0
6, 49170, Note_on_c, 2, 76, 90
6, 49184, Note_on_c, 2, 76, 0
6, 49185, Note_on_c, 2, 74, 90
6, 49199, Note_on_c, 2, 74, 0
6, 49200, Note_on_c, 2, 73, 90
6, 49289, Note_on_c, 2, 73, 0
6, 49290, Note_on_c, 2, 78, 90
6, 49305, Note_on_c, 2, 78, 0
6, 49320, Note_on_c, 2, 78, 90
6, 49335, Note_on_c, 2, 78, 0
6, 49350, Note_on_c, 2, 73, 90
6, 49365, Note_on_c, 2, 73, 0
6, 49380, Note_on_c, 2, 73, 90
6, 49395, Note_on_c, 2, 73, 0
6, 49410, Note_on_c, 2, 69, 90
6, 49425, Note_on_c, 2, 69, 0
6, 49440, Note_on_c, 2, 69, 90
6, 49454, Note_on_c, 2, 69, 0
6, 49455, Note_on_c, 2, 73, 90
6, 49469, Note_on_c, 2, 73, 0
6, 49470, Note_on_c, 2, 75, 90
6, 49484, Note_on_c, 2, 75, 0
6, 49485, Note_on_c, 2, 76, 90
6, 49499, Note_on_c, 2, 76, 0
6, 49500, Note_on_c, 2, 78, 90
6, 49514, Note_on_c, 2, 78, 0
6, 49515, Note_on_c, 2, 80, 90
6, 49529, Note_on_c, 2, 80, 0
6, 49530, Note_on_c, 2, 78, 90
6, 49544, Note_on_c, 2, 78, 0
6, 49545, Note_on_c, 2, 76, 90
6, 49559, Note_on_c, 2, 76, 0
6, 49560, Note_on_c, 2, 75, 90
6, 49574, Note_on_c, 2, 75, 0
6, 49575, Note_on_c, 2, 73, 90
6, 49589, Note_on_c, 2, 73, 0
6, 49590, Note_on_c, 2, 71, 90
6, 49604, Note_on_c, 2, 71, 0
6, 49605, Note_on_c, 2, 69, 90
6, 49619, Note_on_c, 2, 69, 0
6, 49620, Note_on_c, 2, 68, 90
6, 49634, Note_on_c, 2, 68, 0
6, 49650, Note_on_c, 2, 76, 90
6, 49664, Note_on_c, 2, 76, 0
6, 49680, Note_on_c, 2, 76, 90
6, 49694, Note_on_c, 2, 76, 0
6, 49710, Note_on_c, 2, 71, 90
6, 49724, Note_on_c, 2, 71, 0
6, 49740, Note_on_c, 2, 71, 90
6, 49754, Note_on_c, 2, 71, 0
6, 49770, Note_on_c, 2, 67, 90
6, 49784, Note_on_c, 2, 67, 0
6, 49800, Note_on_c, 2, 67, 90
6, 49814, Note_on_c, 2, 67, 0
6, 49815, Note_on_c, 2, 71, 90
6, 49829, Note_on_c, 2, 71, 0
6, 49830, Note_on_c, 2, 73, 90
6, 49844, Note_on_c, 2, 73, 0
6, 49845, Note_on_c, 2, 74, 90
6, 49859, Note_on_c, 2, 74, 0
6, 49860, Note_on_c, 2, 76, 90
6, 49874, Note_on_c, 2, 76, 0
6, 49875, Note_on_c, 2, 78, 90
6, 49889, Note_on_c, 2, 78, 0
6, 49890, Note_on_c, 2, 76, 90
6, 49904, Note_on_c, 2, 76, 0
6, 49905, Note_on_c, 2, 74, 90
6, 49919, Note_on_c, 2, 74, 0
6, 49920, Note_on_c, 2, 73, 90
6, 49934, Note_on_c, 2, 73, 0
6, 49935, Note_on_c, 2, 71, 90
6, 49949, Note_on_c, 2, 71, 0
6, 49950, Note_on_c, 2, 69, 90
6, 49964, Note_on_c, 2, 69, 0
6, 49965, Note_on_c, 2, 67, 90
6, 49979, Note_on_c, 2, 67, 0
6, 49980, Note_on_c, 2, 66, 90
6, 49994, Note_on_c, 2, 66, 0
6, 49995, Note_on_c, 2, 62, 90
6, 50009, Note_on_c, 2, 62, 0
6, 50010, Note_on_c, 2, 64, 90
6, 50024, Note_on_c, 2, 64, 0
6, 50025, Note_on_c, 2, 66, 90
6, 50039, Note_on_c, 2, 66, 0
6, 50040, Note_on_c, 2, 68, 90
6, 50054, Note_on_c, 2, 68, 0
6, 50055, Note_on_c, 2, 64, 90
6, 50069, Note_on_c, 2, 64, 0
6, 50070, Note_on_c, 2, 66, 90
6, 50084, Note_on_c, 2, 66, 0
6, 50085, Note_on_c, 2, 68, 90
6, 50099, Note_on_c, 2, 68, 0
6, 50100, Note_on_c, 2, 69, 90
6, 50114, Note_on_c, 2, 69, 0
6, 50115, Note_on_c, 2, 66, 90
6, 50129, Note_on_c, 2, 66, 0
6, 50130, Note_on_c, 2, 68, 90
6, 50144, Note_on_c, 2, 68, 0
6, 50145, Note_on_c, 2, 69, 90
6, 50159, Note_on_c, 2, 69, 0
6, 50160, Note_on_c, 2, 71, 90
6, 50174, Note_on_c, 2, 71, 0
6, 50175, Note_on_c, 2, 68, 90
6, 50189, Note_on_c, 2, 68, 0
6, 50190, Note_on_c, 2, 69, 90
6, 50204, Note_on_c, 2, 69, 0
6, 50205, Note_on_c, 2, 71, 90
6, 50219, Note_on_c, 2, 71, 0
6, 50220, Note_on_c, 2, 73, 90
6, 50234, Note_on_c, 2, 73, 0
6, 50235, Note_on_c, 2, 69, 90
6, 50249, Note_on_c, 2, 69, 0
6, 50250, Note_on_c, 2, 71, 90
6, 50264, Note_on_c, 2, 71, 0
6, 50265, Note_on_c, 2, 73, 90
6, 50279, Note_on_c, 2, 73, 0
6, 50280, Note_on_c, 2, 74, 90
6, 50294, Note_on_c, 2, 74, 0
6, 50295, Note_on_c, 2, 71, 90
6, 50309, Note_on_c, 2, 71, 0
6, 50310, Note_on_c, 2, 73, 90
6, 50324, Note_on_c, 2, 73, 0
6, 50325, Note_on_c, 2, 74, 90
6, 50339, Note_on_c, 2, 74, 0
6, 50340, Note_on_c, 2, 76, 90
6, 50354, Note_on_c, 2, 76, 0
6, 50355, Note_on_c, 2, 73, 90
6, 50369, Note_on_c, 2, 73, 0
6, 50370, Note_on_c, 2, 74, 90
6, 50384, Note_on_c, 2, 74, 0
6, 50385, Note_on_c, 2, 76, 90
6, 50399, Note_on_c, 2, 76, 0
6, 50400, Note_on_c, 2, 78, 90
6, 50414, Note_on_c, 2, 78, 0
6, 50415, Note_on_c, 2, 74, 90
6, 50429, Note_on_c, 2, 74, 0
6, 50430, Note_on_c, 2, 76, 90
6, 50444, Note_on_c, 2, 76, 0
6, 50445, Note_on_c, 2, 78, 90
6, 50459, Note_on_c, 2, 78, 0
6, 50460, Note_on_c, 2, 80, 90
6, 50474, Note_on_c, 2, 80, 0
6, 50475, Note_on_c, 2, 76, 90
6, 50489, Note_on_c, 2, 76, 0
6, 50490, Note_on_c, 2, 78, 90
6, 50504, Note_on_c, 2, 78, 0
6, 50505, Note_on_c, 2, 80, 90
6, 50519, Note_on_c, 2, 80, 0
6, 50520, Note_on_c, 2, 81, 90
6, 50549, Note_on_c, 2, 81, 0
6, 50580, Note_on_c, 2, 83, 90
6, 50609, Note_on_c, 2, 83, 0
6, 50640, Note_on_c, 2, 80, 90
6, 50669, Note_on_c, 2, 80, 0
6, 50700, Note_on_c, 2, 81, 90
6, 50759, Note_on_c, 2, 81, 0
6, 51360, Note_on_c, 2, 76, 90
6, 51389, Note_on_c, 2, 76, 0
6, 51390, Note_on_c, 2, 78, 90
6, 51419, Note_on_c, 2, 78, 0
6, 51420, Note_on_c, 2, 79, 90
6, 51449, Note_on_c, 2, 79, 0
6, 51480, Note_on_c, 2, 79, 90
6, 51509, Note_on_c, 2, 79, 0
6, 51540, Note_on_c, 2, 79, 90
6, 51569, Note_on_c, 2, 79, 0
6, 51600, Note_on_c, 2, 79, 90
6, 51659, Note_on_c, 2, 79, 0
6, 51660, Note_on_c, 2, 78, 90
6, 51689, Note_on_c, 2, 78, 0
6, 51690, Note_on_c, 2, 76, 90
6, 51719, Note_on_c, 2, 76, 0
6, 51720, Note_on_c, 2, 78, 90
6, 51749, Note_on_c, 2, 78, 0
6, 51750, Note_on_c, 2, 79, 90
6, 51779, Note_on_c, 2, 79, 0
6, 51780, Note_on_c, 2, 81, 90
6, 51839, Note_on_c, 2, 81, 0
6, 51840, Note_on_c, 2, 79, 90
6, 51869, Note_on_c, 2, 79, 0
6, 51870, Note_on_c, 2, 78, 90
6, 51899, Note_on_c, 2, 78, 0
6, 51900, Note_on_c, 2, 76, 90
6, 51929, Note_on_c, 2, 76, 0
6, 51930, Note_on_c, 2, 74, 90
6, 51959, Note_on_c, 2, 74, 0
6, 51960, Note_on_c, 2, 73, 90
6, 51989, Note_on_c, 2, 73, 0
6, 51990, Note_on_c, 2, 71, 90
6, 52019, Note_on_c, 2, 71, 0
6, 52020, Note_on_c, 2, 69, 90
6, 52049, Note_on_c, 2, 69, 0
6, 52050, Note_on_c, 2, 67, 90
6, 52079, Note_on_c, 2, 67, 0
6, 52080, Note_on_c, 2, 66, 90
6, 52109, Note_on_c, 2, 66, 0
6, 52110, Note_on_c, 2, 64, 90
6, 52139, Note_on_c, 2, 64, 0
6, 52140, Note_on_c, 2, 62, 90
6, 52199, Note_on_c, 2, 62, 0
6, 52350, Note_on_c, 2, 78, 90
6, 52364, Note_on_c, 2, 78, 0
6, 52365, Note_on_c, 2, 79, 90
6, 52379, Note_on_c, 2, 79, 0
6, 52380, Note_on_c, 2, 81, 90
6, 52394, Note_on_c, 2, 81, 0
6, 52395, Note_on_c, 2, 79, 90
6, 52409, Note_on_c, 2, 79, 0
6, 52410, Note_on_c, 2, 81, 90
6, 52424, Note_on_c, 2, 81, 0
6, 52425, Note_on_c, 2, 79, 90
6, 52439, Note_on_c, 2, 79, 0
6, 52440, Note_on_c, 2, 81, 90
6, 52454, Note_on_c, 2, 81, 0
6, 52455, Note_on_c, 2, 79, 90
6, 52469, Note_on_c, 2, 79, 0
6, 52470, Note_on_c, 2, 78, 90
6, 52484, Note_on_c, 2, 78, 0
6, 52485, Note_on_c, 2, 79, 90
6, 52499, Note_on_c, 2, 79, 0
6, 52500, Note_on_c, 2, 81, 90
6, 52559, Note_on_c, 2, 81, 0
6, 52680, Note_on_c, 2, 86, 90
6, 52739, Note_on_c, 2, 86, 0
6, 52860, Note_on_c, 2, 81, 90
6, 52919, Note_on_c, 2, 81, 0
6, 53040, Note_on_c, 2, 78, 90
6, 53099, Note_on_c, 2, 78, 0
6, 53235, Note_on_c, 2, 86, 90
6, 53249, Note_on_c, 2, 86, 0
6, 53250, Note_on_c, 2, 85, 90
6, 53264, Note_on_c, 2, 85, 0
6, 53265, Note_on_c, 2, 83, 90
6, 53279, Note_on_c, 2, 83, 0
6, 53280, Note_on_c, 2, 81, 90
6, 53294, Note_on_c, 2, 81, 0
6, 53295, Note_on_c, 2, 86, 90
6, 53309, Note_on_c, 2, 86, 0
6, 53310, Note_on_c, 2, 85, 90
6, 53324, Note_on_c, 2, 85, 0
6, 53325, Note_on_c, 2, 83, 90
6, 53339, Note_on_c, 2, 83, 0
6, 53340, Note_on_c, 2, 81, 90
6, 53354, Note_on_c, 2, 81, 0
6, 53355, Note_on_c, 2, 79, 90
6, 53369, Note_on_c, 2, 79, 0
6, 53370, Note_on_c, 2, 78, 90
6, 53384, Note_on_c, 2, 78, 0
6, 53385, Note_on_c, 2, 76, 90
6, 53399, Note_on_c, 2, 76, 0
6, 53400, Note_on_c, 2, 78, 90
6, 54000, Note_on_c, 2, 78, 0
6, 54000, Note_on_c, 2, 78, 90
6, 54029, Note_on_c, 2, 78, 0
6, 54060, Note_on_c, 2, 78, 90
6, 54089, Note_on_c, 2, 78, 0
6, 54120, Note_on_c, 2, 78, 90
6, 54179, Note_on_c, 2, 78, 0
6, 54180, Note_on_c, 2, 76, 90
6, 54209, Note_on_c, 2, 76, 0
6, 54210, Note_on_c, 2, 74, 90
6, 54239, Note_on_c, 2, 74, 0
6, 54240, Note_on_c, 2, 76, 90
6, 54299, Note_on_c, 2, 76, 0
6, 54960, Note_on_c, 2, 79, 90
6, 55019, Note_on_c, 2, 79, 0
6, 55020, Note_on_c, 2, 78, 90
6, 55079, Note_on_c, 2, 78, 0
6, 55080, Note_on_c, 2, 76, 90
6, 55139, Note_on_c, 2, 76, 0
6, 55140, Note_on_c, 2, 74, 90
6, 55199, Note_on_c, 2, 74, 0
6, 55200, Note_on_c, 2, 81, 90
6, 55319, Note_on_c, 2, 81, 0
6, 55980, Note_on_c, 2, 76, 90
6, 56009, Note_on_c, 2, 76, 0
6, 56010, Note_on_c, 2, 78, 90
6, 56039, Note_on_c, 2, 78, 0
6, 56040, Note_on_c, 2, 79, 90
6, 56054, Note_on_c, 2, 79, 0
6, 56055, Note_on_c, 2, 78, 90
6, 56069, Note_on_c, 2, 78, 0
6, 56070, Note_on_c, 2, 76, 90
6, 56084, Note_on_c, 2, 76, 0
6, 56085, Note_on_c, 2, 78, 90
6, 56099, Note_on_c, 2, 78, 0
6, 56100, Note_on_c, 2, 79, 90
6, 56129, Note_on_c, 2, 79, 0
6, 56160, Note_on_c, 2, 78, 90
6, 56189, Note_on_c, 2, 78, 0
6, 56220, Note_on_c, 2, 76, 90
6, 56249, Note_on_c, 2, 76, 0
6, 56280, Note_on_c, 2, 74, 90
6, 56309, Note_on_c, 2, 74, 0
6, 56310, Note_on_c, 2, 76, 90
6, 56339, Note_on_c, 2, 76, 0
6, 56340, Note_on_c, 2, 78, 90
6, 56369, Note_on_c, 2, 78, 0
6, 56370, Note_on_c, 2, 79, 90
6, 56399, Note_on_c, 2, 79, 0
6, 56400, Note_on_c, 2, 81, 90
6, 56414, Note_on_c, 2, 81, 0
6, 56415, Note_on_c, 2, 79, 90
6, 56429, Note_on_c, 2, 79, 0
6, 56430, Note_on_c, 2, 78, 90
6, 56444, Note_on_c, 2, 78, 0
6, 56445, Note_on_c, 2, 79, 90
6, 56459, Note_on_c, 2, 79, 0
6, 56460, Note_on_c, 2, 81, 90
6, 56489, Note_on_c, 2, 81, 0
6, 56520, Note_on_c, 2, 74, 90
6, 56549, Note_on_c, 2, 74, 0
6, 56580, Note_on_c, 2, 76, 90
6, 56609, Note_on_c, 2, 76, 0
6, 56640, Note_on_c, 2, 73, 90
6, 56699, Note_on_c, 2, 73, 0
6, 56880, Note_on_c, 2, 78, 90
6, 56909, Note_on_c, 2, 78, 0
6, 56910, Note_on_c, 2, 80, 90
6, 56939, Note_on_c, 2, 80, 0
6, 56940, Note_on_c, 2, 81, 90
6, 56954, Note_on_c, 2, 81, 0
6, 56955, Note_on_c, 2, 80, 90
6, 56969, Note_on_c, 2, 80, 0
6, 56970, Note_on_c, 2, 78, 90
6, 56984, Note_on_c, 2, 78, 0
6, 56985, Note_on_c, 2, 80, 90
6, 56999, Note_on_c, 2, 80, 0
6, 57000, Note_on_c, 2, 81, 90
6, 57029, Note_on_c, 2, 81, 0
6, 57060, Note_on_c, 2, 76, 90
6, 57089, Note_on_c, 2, 76, 0
6, 57090, Note_on_c, 2, 78, 90
6, 57119, Note_on_c, 2, 78, 0
6, 57120, Note_on_c, 2, 79, 90
6, 57134, Note_on_c, 2, 79, 0
6, 57135, Note_on_c, 2, 78, 90
6, 57149, Note_on_c, 2, 78, 0
6, 57150, Note_on_c, 2, 76, 90
6, 57164, Note_on_c, 2, 76, 0
6, 57165, Note_on_c, 2, 78, 90
6, 57179, Note_on_c, 2, 78, 0
6, 57180, Note_on_c, 2, 79, 90
6, 57209, Note_on_c, 2, 79, 0
6, 57240, Note_on_c, 2, 72, 90
6, 57269, Note_on_c, 2, 72, 0
6, 57300, Note_on_c, 2, 72, 90
6, 57329, Note_on_c, 2, 72, 0
6, 57360, Note_on_c, 2, 71, 90
6, 57419, Note_on_c, 2, 71, 0
6, 57420, Note_on_c, 2, 74, 90
6, 57479, Note_on_c, 2, 74, 0
6, 57480, Note_on_c, 2, 79, 90
6, 57539, Note_on_c, 2, 79, 0
6, 57540, Note_on_c, 2, 78, 90
6, 57599, Note_on_c, 2, 78, 0
6, 57600, Note_on_c, 2, 69, 90
6, 57659, Note_on_c, 2, 69, 0
6, 57660, Note_on_c, 2, 74, 90
6, 57719, Note_on_c, 2, 74, 0
6, 57720, Note_on_c, 2, 73, 90
6, 57749, Note_on_c, 2, 73, 0
6, 57750, Note_on_c, 2, 71, 90
6, 57779, Note_on_c, 2, 71, 0
6, 57780, Note_on_c, 2, 73, 90
6, 57809, Note_on_c, 2, 73, 0
6, 57810, Note_on_c, 2, 74, 90
6, 57839, Note_on_c, 2, 74, 0
6, 57840, Note_on_c, 2, 76, 90
6, 57869, Note_on_c, 2, 76, 0
6, 57870, Note_on_c, 2, 78, 90
6, 57899, Note_on_c, 2, 78, 0
6, 57900, Note_on_c, 2, 75, 90
6, 57929, Note_on_c, 2, 75, 0
6, 57930, Note_on_c, 2, 78, 90
6, 57959, Note_on_c, 2, 78, 0
6, 57960, Note_on_c, 2, 81, 90
6, 58079, Note_on_c, 2, 81, 0
6, 58080, Note_on_c, 2, 72, 90
6, 58094, Note_on_c, 2, 72, 0
6, 58095, Note_on_c, 2, 71, 90
6, 58109, Note_on_c, 2, 71, 0
6, 58110, Note_on_c, 2, 69, 90
6, 58139, Note_on_c, 2, 69, 0
6, 58140, Note_on_c, 2, 69, 90
6, 58169, Note_on_c, 2, 69, 0
6, 58170, Note_on_c, 2, 71, 90
6, 58289, Note_on_c, 2, 71, 0
6, 58290, Note_on_c, 2, 73, 90
6, 58304, Note_on_c, 2, 73, 0
6, 58305, Note_on_c, 2, 75, 90
6, 58319, Note_on_c, 2, 75, 0
6, 58320, Note_on_c, 2, 76, 90
6, 58349, Note_on_c, 2, 76, 0
6, 58350, Note_on_c, 2, 78, 90
6, 58364, Note_on_c, 2, 78, 0
6, 58365, Note_on_c, 2, 79, 90
6, 58379, Note_on_c, 2, 79, 0
6, 58380, Note_on_c, 2, 81, 90
6, 58469, Note_on_c, 2, 81, 0
6, 58470, Note_on_c, 2, 79, 90
6, 58484, Note_on_c, 2, 79, 0
6, 58485, Note_on_c, 2, 78, 90
6, 58499, Note_on_c, 2, 78, 0
6, 58500, Note_on_c, 2, 79, 90
6, 58529, Note_on_c, 2, 79, 0
6, 58530, Note_on_c, 2, 78, 90
6, 58544, Note_on_c, 2, 78, 0
6, 58545, Note_on_c, 2, 76, 90
6, 58559, Note_on_c, 2, 76, 0
6, 58560, Note_on_c, 2, 79, 90
6, 58589, Note_on_c, 2, 79, 0
6, 58590, Note_on_c, 2, 76, 90
6, 58604, Note_on_c, 2, 76, 0
6, 58605, Note_on_c, 2, 78, 90
6, 58619, Note_on_c, 2, 78, 0
6, 58620, Note_on_c, 2, 79, 90
6, 58649, Note_on_c, 2, 79, 0
6, 58650, Note_on_c, 2, 83, 90
6, 58664, Note_on_c, 2, 83, 0
6, 58665, Note_on_c, 2, 81, 90
6, 58679, Note_on_c, 2, 81, 0
6, 58680, Note_on_c, 2, 79, 90
6, 58709, Note_on_c, 2, 79, 0
6, 58710, Note_on_c, 2, 83, 90
6, 58724, Note_on_c, 2, 83, 0
6, 58725, Note_on_c, 2, 81, 90
6, 58739, Note_on_c, 2, 81, 0
6, 58740, Note_on_c, 2, 79, 90
6, 58829, Note_on_c, 2, 79, 0
6, 58830, Note_on_c, 2, 76, 90
6, 58844, Note_on_c, 2, 76, 0
6, 58845, Note_on_c, 2, 78, 90
6, 58859, Note_on_c, 2, 78, 0
6, 58860, Note_on_c, 2, 79, 90
6, 58889, Note_on_c, 2, 79, 0
6, 58890, Note_on_c, 2, 76, 90
6, 58904, Note_on_c, 2, 76, 0
6, 58905, Note_on_c, 2, 78, 90
6, 58919, Note_on_c, 2, 78, 0
6, 58920, Note_on_c, 2, 79, 90
6, 59009, Note_on_c, 2, 79, 0
6, 59010, Note_on_c, 2, 78, 90
6, 59024, Note_on_c, 2, 78, 0
6, 59025, Note_on_c, 2, 79, 90
6, 59039, Note_on_c, 2, 79, 0
6, 59040, Note_on_c, 2, 81, 90
6, 59069, Note_on_c, 2, 81, 0
6, 59070, Note_on_c, 2, 79, 90
6, 59084, Note_on_c, 2, 79, 0
6, 59085, Note_on_c, 2, 78, 90
6, 59099, Note_on_c, 2, 78, 0
6, 59100, Note_on_c, 2, 79, 90
6, 59129, Note_on_c, 2, 79, 0
6, 59130, Note_on_c, 2, 78, 90
6, 59144, Note_on_c, 2, 78, 0
6, 59145, Note_on_c, 2, 76, 90
6, 59159, Note_on_c, 2, 76, 0
6, 59160, Note_on_c, 2, 78, 90
6, 59189, Note_on_c, 2, 78, 0
6, 59190, Note_on_c, 2, 81, 90
6, 59204, Note_on_c, 2, 81, 0
6, 59205, Note_on_c, 2, 79, 90
6, 59219, Note_on_c, 2, 79, 0
6, 59220, Note_on_c, 2, 78, 90
6, 59249, Note_on_c, 2, 78, 0
6, 59250, Note_on_c, 2, 81, 90
6, 59264, Note_on_c, 2, 81, 0
6, 59265, Note_on_c, 2, 79, 90
6, 59279, Note_on_c, 2, 79, 0
6, 59280, Note_on_c, 2, 78, 90
6, 59369, Note_on_c, 2, 78, 0
6, 59370, Note_on_c, 2, 83, 90
6, 59384, Note_on_c, 2, 83, 0
6, 59400, Note_on_c, 2, 83, 90
6, 59414, Note_on_c, 2, 83, 0
6, 59430, Note_on_c, 2, 78, 90
6, 59444, Note_on_c, 2, 78, 0
6, 59460, Note_on_c, 2, 78, 90
6, 59474, Note_on_c, 2, 78, 0
6, 59490, Note_on_c, 2, 74, 90
6, 59504, Note_on_c, 2, 74, 0
6, 59520, Note_on_c, 2, 74, 90
6, 59534, Note_on_c, 2, 74, 0
6, 59535, Note_on_c, 2, 78, 90
6, 59549, Note_on_c, 2, 78, 0
6, 59550, Note_on_c, 2, 80, 90
6, 59564, Note_on_c, 2, 80, 0
6, 59565, Note_on_c, 2, 81, 90
6, 59579, Note_on_c, 2, 81, 0
6, 59580, Note_on_c, 2, 83, 90
6, 59594, Note_on_c, 2, 83, 0
6, 59595, Note_on_c, 2, 85, 90
6, 59609, Note_on_c, 2, 85, 0
6, 59610, Note_on_c, 2, 83, 90
6, 59624, Note_on_c, 2, 83, 0
6, 59625, Note_on_c, 2, 81, 90
6, 59639, Note_on_c, 2, 81, 0
6, 59640, Note_on_c, 2, 80, 90
6, 59654, Note_on_c, 2, 80, 0
6, 59655, Note_on_c, 2, 78, 90
6, 59669, Note_on_c, 2, 78, 0
6, 59670, Note_on_c, 2, 76, 90
6, 59684, Note_on_c, 2, 76, 0
6, 59685, Note_on_c, 2, 74, 90
6, 59699, Note_on_c, 2, 74, 0
6, 59700, Note_on_c, 2, 73, 90
6, 59714, Note_on_c, 2, 73, 0
6, 59730, Note_on_c, 2, 81, 90
6, 59744, Note_on_c, 2, 81, 0
6, 59760, Note_on_c, 2, 81, 90
6, 59774, Note_on_c, 2, 81, 0
6, 59790, Note_on_c, 2, 76, 90
6, 59804, Note_on_c, 2, 76, 0
6, 59820, Note_on_c, 2, 76, 90
6, 59834, Note_on_c, 2, 76, 0
6, 59850, Note_on_c, 2, 72, 90
6, 59864, Note_on_c, 2, 72, 0
6, 59880, Note_on_c, 2, 72, 90
6, 59894, Note_on_c, 2, 72, 0
6, 59895, Note_on_c, 2, 76, 90
6, 59909, Note_on_c, 2, 76, 0
6, 59910, Note_on_c, 2, 78, 90
6, 59924, Note_on_c, 2, 78, 0
6, 59925, Note_on_c, 2, 79, 90
6, 59939, Note_on_c, 2, 79, 0
6, 59940, Note_on_c, 2, 81, 90
6, 59954, Note_on_c, 2, 81, 0
6, 59955, Note_on_c, 2, 83, 90
6, 59969, Note_on_c, 2, 83, 0
6, 59970, Note_on_c, 2, 81, 90
6, 59984, Note_on_c, 2, 81, 0
6, 59985, Note_on_c, 2, 79, 90
6, 59999, Note_on_c, 2, 79, 0
6, 60000, Note_on_c, 2, 78, 90
6, 60014, Note_on_c, 2, 78, 0
6, 60015, Note_on_c, 2, 76, 90
6, 60029, Note_on_c, 2, 76, 0
6, 60030, Note_on_c, 2, 74, 90
6, 60044, Note_on_c, 2, 74, 0
6, 60045, Note_on_c, 2, 72, 90
6, 60059, Note_on_c, 2, 72, 0
6, 60060, Note_on_c, 2, 71, 90
6, 60074, Note_on_c, 2, 71, 0
6, 60075, Note_on_c, 2, 67, 90
6, 60089, Note_on_c, 2, 67, 0
6, 60090, Note_on_c, 2, 69, 90
6, 60104, Note_on_c, 2, 69, 0
6, 60105, Note_on_c, 2, 71, 90
6, 60119, Note_on_c, 2, 71, 0
6, 60120, Note_on_c, 2, 73, 90
6, 60134, Note_on_c, 2, 73, 0
6, 60135, Note_on_c, 2, 69, 90
6, 60149, Note_on_c, 2, 69, 0
6, 60150, Note_on_c, 2, 71, 90
6, 60164, Note_on_c, 2, 71, 0
6, 60165, Note_on_c, 2, 73, 90
6, 60179, Note_on_c, 2, 73, 0
6, 60180, Note_on_c, 2, 74, 90
6, 60194, Note_on_c, 2, 74, 0
6, 60195, Note_on_c, 2, 71, 90
6, 60209, Note_on_c, 2, 71, 0
6, 60210, Note_on_c, 2, 73, 90
6, 60224, Note_on_c, 2, 73, 0
6, 60225, Note_on_c, 2, 74, 90
6, 60239, Note_on_c, 2, 74, 0
6, 60240, Note_on_c, 2, 76, 90
6, 60254, Note_on_c, 2, 76, 0
6, 60255, Note_on_c, 2, 73, 90
6, 60269, Note_on_c, 2, 73, 0
6, 60270, Note_on_c, 2, 74, 90
6, 60284, Note_on_c, 2, 74, 0
6, 60285, Note_on_c, 2, 76, 90
6, 60299, Note_on_c, 2, 76, 0
6, 60300, Note_on_c, 2, 78, 90
6, 60314, Note_on_c, 2, 78, 0
6, 60315, Note_on_c, 2, 74, 90
6, 60329, Note_on_c, 2, 74, 0
6, 60330, Note_on_c, 2, 76, 90
6, 60344, Note_on_c, 2, 76, 0
6, 60345, Note_on_c, 2, 78, 90
6, 60359, Note_on_c, 2, 78, 0
6, 60360, Note_on_c, 2, 79, 90
6, 60374, Note_on_c, 2, 79, 0
6, 60375, Note_on_c, 2, 76, 90
6, 60389, Note_on_c, 2, 76, 0
6, 60390, Note_on_c, 2, 78, 90
6, 60404, Note_on_c, 2, 78, 0
6, 60405, Note_on_c, 2, 79, 90
6, 60419, Note_on_c, 2, 79, 0
6, 60420, Note_on_c, 2, 81, 90
6, 60434, Note_on_c, 2, 81, 0
6, 60435, Note_on_c, 2, 78, 90
6, 60449, Note_on_c, 2, 78, 0
6, 60450, Note_on_c, 2, 79, 90
6, 60464, Note_on_c, 2, 79, 0
6, 60465, Note_on_c, 2, 81, 90
6, 60479, Note_on_c, 2, 81, 0
6, 60480, Note_on_c, 2, 83, 90
6, 60494, Note_on_c, 2, 83, 0
6, 60495, Note_on_c, 2, 79, 90
6, 60509, Note_on_c, 2, 79, 0
6, 60510, Note_on_c, 2, 81, 90
6, 60524, Note_on_c, 2, 81, 0
6, 60525, Note_on_c, 2, 83, 90
6, 60539, Note_on_c, 2, 83, 0
6, 60540, Note_on_c, 2, 85, 90
6, 60554, Note_on_c, 2, 85, 0
6, 60555, Note_on_c, 2, 81, 90
6, 60569, Note_on_c, 2, 81, 0
6, 60570, Note_on_c, 2, 83, 90
6, 60584, Note_on_c, 2, 83, 0
6, 60585, Note_on_c, 2, 85, 90
6, 60599, Note_on_c, 2, 85, 0
6, 60600, Note_on_c, 2, 86, 90
6, 60629, Note_on_c, 2, 86, 0
6, 60660, Note_on_c, 2, 69, 90
6, 60689, Note_on_c, 2, 69, 0
6, 60720, Note_on_c, 2, 73, 90
6, 60749, Note_on_c, 2, 73, 0
6, 60780, Note_on_c, 2, 74, 90
6, 60959, Note_on_c, 2, 74, 0
6, 116460, Note_on_c, 2, 76, 90
6, 116579, Note_on_c, 2, 76, 0
6, 116580, Note_on_c, 2, 81, 90
6, 116699, Note_on_c, 2, 81, 0
6, 116700, Note_on_c, 2, 79, 90
6, 116819, Note_on_c, 2, 79, 0
6, 116820, Note_on_c, 2, 77, 90
6, 116939, Note_on_c, 2, 77, 0
6, 116940, Note_on_c, 2, 76, 90
6, 117059, Note_on_c, 2, 76, 0
6, 117060, Note_on_c, 2, 74, 90
6, 117299, Note_on_c, 2, 74, 0
6, 117300, Note_on_c, 2, 76, 90
6, 117395, Note_on_c, 2, 76, 0
6, 117420, Note_on_c, 2, 83, 90
6, 117539, Note_on_c, 2, 83, 0
6, 117540, Note_on_c, 2, 84, 90
6, 117659, Note_on_c, 2, 84, 0
6, 117660, Note_on_c, 2, 84, 90
6, 117779, Note_on_c, 2, 84, 0
6, 117780, Note_on_c, 2, 83, 90
6, 117839, Note_on_c, 2, 83, 0
6, 117840, Note_on_c, 2, 84, 90
6, 117869, Note_on_c, 2, 84, 0
6, 117870, Note_on_c, 2, 86, 90
6, 117899, Note_on_c, 2, 86, 0
6, 117900, Note_on_c, 2, 83, 90
6, 118019, Note_on_c, 2, 83, 0
6, 118020, Note_on_c, 2, 81, 90
6, 118379, Note_on_c, 2, 81, 0
6, 118380, Note_on_c, 2, 76, 90
6, 118499, Note_on_c, 2, 76, 0
6, 118500, Note_on_c, 2, 81, 90
6, 118619, Note_on_c, 2, 81, 0
6, 118620, Note_on_c, 2, 79, 90
6, 118739, Note_on_c, 2, 79, 0
6, 118740, Note_on_c, 2, 77, 90
6, 118859, Note_on_c, 2, 77, 0
6, 118860, Note_on_c, 2, 76, 90
6, 118979, Note_on_c, 2, 76, 0
6, 118980, Note_on_c, 2, 74, 90
6, 119219, Note_on_c, 2, 74, 0
6, 119220, Note_on_c, 2, 76, 90
6, 119315, Note_on_c, 2, 76, 0
6, 119340, Note_on_c, 2, 83, 90
6, 119459, Note_on_c, 2, 83, 0
6, 119460, Note_on_c, 2, 84, 90
6, 119579, Note_on_c, 2, 84, 0
6, 119580, Note_on_c, 2, 84, 90
6, 119699, Note_on_c, 2, 84, 0
6, 119700, Note_on_c, 2, 83, 90
6, 119759, Note_on_c, 2, 83, 0
6, 119760, Note_on_c, 2, 84, 90
6, 119789, Note_on_c, 2, 84, 0
6, 119790, Note_on_c, 2, 86, 90
6, 119819, Note_on_c, 2, 86, 0
6, 119820, Note_on_c, 2, 83, 90
6, 119939, Note_on_c, 2, 83, 0
6, 119940, Note_on_c, 2, 81, 90
6, 120299, Note_on_c, 2, 81, 0
6, 120300, Note_on_c, 2, 84, 90
6, 120419, Note_on_c, 2, 84, 0
6, 120420, Note_on_c, 2, 83, 90
6, 120479, Note_on_c, 2, 83, 0
6, 120480, Note_on_c, 2, 81, 90
6, 120539, Note_on_c, 2, 81, 0
6, 120540, Note_on_c, 2, 79, 90
6, 120659, Note_on_c, 2, 79, 0
6, 120660, Note_on_c, 2, 81, 90
6, 120779, Note_on_c, 2, 81, 0
6, 120780, Note_on_c, 2, 83, 90
6, 120899, Note_on_c, 2, 83, 0
6, 120900, Note_on_c, 2, 84, 90
6, 121139, Note_on_c, 2, 84, 0
6, 121140, Note_on_c, 2, 84, 90
6, 121235, Note_on_c, 2, 84, 0
6, 121260, Note_on_c, 2, 79, 90
6, 121379, Note_on_c, 2, 79, 0
6, 121380, Note_on_c, 2, 81, 90
6, 121499, Note_on_c, 2, 81, 0
6, 121500, Note_on_c, 2, 79, 90
6, 121619, Note_on_c, 2, 79, 0
6, 121620, Note_on_c, 2, 77, 90
6, 121679, Note_on_c, 2, 77, 0
6, 121680, Note_on_c, 2, 76, 90
6, 121739, Note_on_c, 2, 76, 0
6, 121740, Note_on_c, 2, 77, 90
6, 121859, Note_on_c, 2, 77, 0
6, 121860, Note_on_c, 2, 76, 90
6, 122147, Note_on_c, 2, 76, 0
6, 122220, Note_on_c, 2, 84, 90
6, 122339, Note_on_c, 2, 84, 0
6, 122340, Note_on_c, 2, 83, 90
6, 122399, Note_on_c, 2, 83, 0
6, 122400, Note_on_c, 2, 84, 90
6, 122459, Note_on_c, 2, 84, 0
6, 122460, Note_on_c, 2, 86, 90
6, 122579, Note_on_c, 2, 86, 0
6, 122580, Note_on_c, 2, 84, 90
6, 122699, Note_on_c, 2, 84, 0
6, 122700, Note_on_c, 2, 83, 90
6, 122819, Note_on_c, 2, 83, 0
6, 122820, Note_on_c, 2, 81, 90
6, 123059, Note_on_c, 2, 81, 0
6, 123060, Note_on_c, 2, 83, 90
6, 123155, Note_on_c, 2, 83, 0
6, 123180, Note_on_c, 2, 76, 90
6, 123299, Note_on_c, 2, 76, 0
6, 123300, Note_on_c, 2, 77, 90
6, 123419, Note_on_c, 2, 77, 0
6, 123420, Note_on_c, 2, 76, 90
6, 123539, Note_on_c, 2, 76, 0
6, 123540, Note_on_c, 2, 74, 90
6, 123659, Note_on_c, 2, 74, 0
6, 123660, Note_on_c, 2, 79, 90
6, 123719, Note_on_c, 2, 79, 0
6, 123720, Note_on_c, 2, 77, 90
6, 123779, Note_on_c, 2, 77, 0
6, 123780, Note_on_c, 2, 76, 90
6, 124139, Note_on_c, 2, 76, 0
6, 151620, Note_on_c, 2, 74, 90
6, 151679, Note_on_c, 2, 74, 0
6, 151680, Note_on_c, 2, 69, 90
6, 151799, Note_on_c, 2, 69, 0
6, 151800, Note_on_c, 2, 66, 90
6, 151919, Note_on_c, 2, 66, 0
6, 151920, Note_on_c, 2, 69, 90
6, 152039, Note_on_c, 2, 69, 0
6, 152040, Note_on_c, 2, 74, 90
6, 152129, Note_on_c, 2, 74, 0
6, 152130, Note_on_c, 2, 76, 90
6, 152159, Note_on_c, 2, 76, 0
6, 152160, Note_on_c, 2, 78, 90
6, 152279, Note_on_c, 2, 78, 0
6, 152280, Note_on_c, 2, 76, 90
6, 152339, Note_on_c, 2, 76, 0
6, 152340, Note_on_c, 2, 78, 90
6, 152399, Note_on_c, 2, 78, 0
6, 152400, Note_on_c, 2, 81, 90
6, 152429, Note_on_c, 2, 81, 0
6, 152430, Note_on_c, 2, 79, 90
6, 152459, Note_on_c, 2, 79, 0
6, 152460, Note_on_c, 2, 81, 90
6, 152489, Note_on_c, 2, 81, 0
6, 152490, Note_on_c, 2, 79, 90
6, 152519, Note_on_c, 2, 79, 0
6, 152520, Note_on_c, 2, 78, 90
6, 152549, Note_on_c, 2, 78, 0
6, 152550, Note_on_c, 2, 76, 90
6, 152579, Note_on_c, 2, 76, 0
6, 152580, Note_on_c, 2, 74, 90
6, 152610, Note_on_c, 2, 74, 0
6, 152700, Note_on_c, 2, 69, 90
6, 152730, Note_on_c, 2, 69, 0
6, 152820, Note_on_c, 2, 66, 90
6, 152850, Note_on_c, 2, 66, 0
6, 152940, Note_on_c, 2, 69, 90
6, 152970, Note_on_c, 2, 69, 0
6, 153060, Note_on_c, 2, 74, 90
6, 153089, Note_on_c, 2, 74, 0
6, 153090, Note_on_c, 2, 76, 90
6, 153119, Note_on_c, 2, 76, 0
6, 153120, Note_on_c, 2, 78, 90
6, 153239, Note_on_c, 2, 78, 0
6, 153240, Note_on_c, 2, 76, 90
6, 153299, Note_on_c, 2, 76, 0
6, 153300, Note_on_c, 2, 78, 90
6, 153359, Note_on_c, 2, 78, 0
6, 153360, Note_on_c, 2, 81, 90
6, 153389, Note_on_c, 2, 81, 0
6, 153390, Note_on_c, 2, 79, 90
6, 153419, Note_on_c, 2, 79, 0
6, 153420, Note_on_c, 2, 81, 90
6, 153449, Note_on_c, 2, 81, 0
6, 153450, Note_on_c, 2, 78, 90
6, 153479, Note_on_c, 2, 78, 0
6, 153480, Note_on_c, 2, 76, 90
6, 153509, Note_on_c, 2, 76, 0
6, 153510, Note_on_c, 2, 74, 90
6, 153539, Note_on_c, 2, 74, 0
6, 153540, Note_on_c, 2, 83, 90
6, 153569, Note_on_c, 2, 83, 0
6, 153570, Note_on_c, 2, 79, 90
6, 153599, Note_on_c, 2, 79, 0
6, 153600, Note_on_c, 2, 74, 90
6, 153629, Note_on_c, 2, 74, 0
6, 153630, Note_on_c, 2, 71, 90
6, 153659, Note_on_c, 2, 71, 0
6, 153660, Note_on_c, 2, 67, 90
6, 153689, Note_on_c, 2, 67, 0
6, 153690, Note_on_c, 2, 71, 90
6, 153719, Note_on_c, 2, 71, 0
6, 153720, Note_on_c, 2, 74, 90
6, 153749, Note_on_c, 2, 74, 0
6, 153750, Note_on_c, 2, 79, 90
6, 153779, Note_on_c, 2, 79, 0
6, 153780, Note_on_c, 2, 81, 90
6, 153809, Note_on_c, 2, 81, 0
6, 153810, Note_on_c, 2, 78, 90
6, 153839, Note_on_c, 2, 78, 0
6, 153840, Note_on_c, 2, 74, 90
6, 153869, Note_on_c, 2, 74, 0
6, 153870, Note_on_c, 2, 69, 90
6, 153899, Note_on_c, 2, 69, 0
6, 153900, Note_on_c, 2, 66, 90
6, 153929, Note_on_c, 2, 66, 0
6, 153930, Note_on_c, 2, 69, 90
6, 153959, Note_on_c, 2, 69, 0
6, 153960, Note_on_c, 2, 74, 90
6, 153989, Note_on_c, 2, 74, 0
6, 153990, Note_on_c, 2, 78, 90
6, 154019, Note_on_c, 2, 78, 0
6, 154020, Note_on_c, 2, 79, 90
6, 154049, Note_on_c, 2, 79, 0
6, 154050, Note_on_c, 2, 78, 90
6, 154079, Note_on_c, 2, 78, 0
6, 154080, Note_on_c, 2, 76, 90
6, 154109, Note_on_c, 2, 76, 0
6, 154110, Note_on_c, 2, 79, 90
6, 154139, Note_on_c, 2, 79, 0
6, 154140, Note_on_c, 2, 78, 90
6, 154169, Note_on_c, 2, 78, 0
6, 154170, Note_on_c, 2, 76, 90
6, 154199, Note_on_c, 2, 76, 0
6, 154200, Note_on_c, 2, 74, 90
6, 154229, Note_on_c, 2, 74, 0
6, 154230, Note_on_c, 2, 78, 90
6, 154259, Note_on_c, 2, 78, 0
6, 154260, Note_on_c, 2, 76, 90
6, 154289, Note_on_c, 2, 76, 0
6, 154290, Note_on_c, 2, 69, 90
6, 154319, Note_on_c, 2, 69, 0
6, 154320, Note_on_c, 2, 71, 90
6, 154349, Note_on_c, 2, 71, 0
6, 154350, Note_on_c, 2, 73, 90
6, 154379, Note_on_c, 2, 73, 0
6, 154380, Note_on_c, 2, 74, 90
6, 154409, Note_on_c, 2, 74, 0
6, 154410, Note_on_c, 2, 76, 90
6, 154439, Note_on_c, 2, 76, 0
6, 154440, Note_on_c, 2, 78, 90
6, 154469, Note_on_c, 2, 78, 0
6, 154470, Note_on_c, 2, 79, 90
6, 154499, Note_on_c, 2, 79, 0
6, 154500, Note_on_c, 2, 81, 90
6, 154529, Note_on_c, 2, 81, 0
6, 154530, Note_on_c, 2, 78, 90
6, 154559, Note_on_c, 2, 78, 0
6, 154560, Note_on_c, 2, 76, 90
6, 154589, Note_on_c, 2, 76, 0
6, 154590, Note_on_c, 2, 74, 90
6, 154619, Note_on_c, 2, 74, 0
6, 154620, Note_on_c, 2, 79, 90
6, 154679, Note_on_c, 2, 79, 0
6, 154680, Note_on_c, 2, 78, 90
6, 154739, Note_on_c, 2, 78, 0
6, 154740, Note_on_c, 2, 76, 90
6, 154979, Note_on_c, 2, 76, 0
6, 155280, Note_on_c, 2, 66, 90
6, 155309, Note_on_c, 2, 66, 0
6, 155310, Note_on_c, 2, 67, 90
6, 155339, Note_on_c, 2, 67, 0
6, 155340, Note_on_c, 2, 69, 90
6, 155399, Note_on_c, 2, 69, 0
6, 155760, Note_on_c, 2, 69, 90
6, 155789, Note_on_c, 2, 69, 0
6, 155820, Note_on_c, 2, 74, 90
6, 155849, Note_on_c, 2, 74, 0
6, 156240, Note_on_c, 2, 74, 90
6, 156269, Note_on_c, 2, 74, 0
6, 156270, Note_on_c, 2, 76, 90
6, 156299, Note_on_c, 2, 76, 0
6, 156300, Note_on_c, 2, 78, 90
6, 156359, Note_on_c, 2, 78, 0
6, 156720, Note_on_c, 2, 78, 90
6, 156749, Note_on_c, 2, 78, 0
6, 156750, Note_on_c, 2, 79, 90
6, 156779, Note_on_c, 2, 79, 0
6, 156780, Note_on_c, 2, 81, 90
6, 156839, Note_on_c, 2, 81, 0
6, 157020, Note_on_c, 2, 74, 90
6, 157079, Note_on_c, 2, 74, 0
6, 157260, Note_on_c, 2, 74, 90
6, 157319, Note_on_c, 2, 74, 0
6, 157440, Note_on_c, 2, 76, 90
6, 157499, Note_on_c, 2, 76, 0
6, 157500, Note_on_c, 2, 76, 90
6, 157559, Note_on_c, 2, 76, 0
6, 157560, Note_on_c, 2, 74, 90
6, 157619, Note_on_c, 2, 74, 0
6, 157620, Note_on_c, 2, 73, 90
6, 157649, Note_on_c, 2, 73, 0
6, 157650, Note_on_c, 2, 69, 90
6, 157679, Note_on_c, 2, 69, 0
6, 157680, Note_on_c, 2, 71, 90
6, 157709, Note_on_c, 2, 71, 0
6, 157710, Note_on_c, 2, 73, 90
6, 157739, Note_on_c, 2, 73, 0
6, 157740, Note_on_c, 2, 74, 90
6, 157769, Note_on_c, 2, 74, 0
6, 157770, Note_on_c, 2, 76, 90
6, 157799, Note_on_c, 2, 76, 0
6, 157800, Note_on_c, 2, 78, 90
6, 157829, Note_on_c, 2, 78, 0
6, 157830, Note_on_c, 2, 79, 90
6, 157859, Note_on_c, 2, 79, 0
6, 157860, Note_on_c, 2, 81, 90
6, 157889, Note_on_c, 2, 81, 0
6, 157890, Note_on_c, 2, 74, 90
6, 157919, Note_on_c, 2, 74, 0
6, 157920, Note_on_c, 2, 73, 90
6, 157949, Note_on_c, 2, 73, 0
6, 157950, Note_on_c, 2, 74, 90
6, 157979, Note_on_c, 2, 74, 0
6, 157980, Note_on_c, 2, 81, 90
6, 158039, Note_on_c, 2, 81, 0
6, 158040, Note_on_c, 2, 79, 90
6, 158069, Note_on_c, 2, 79, 0
6, 158070, Note_on_c, 2, 78, 90
6, 158099, Note_on_c, 2, 78, 0
6, 158100, Note_on_c, 2, 76, 90
6, 158129, Note_on_c, 2, 76, 0
6, 158130, Note_on_c, 2, 81, 90
6, 158159, Note_on_c, 2, 81, 0
6, 158160, Note_on_c, 2, 80, 90
6, 158189, Note_on_c, 2, 80, 0
6, 158190, Note_on_c, 2, 78, 90
6, 158219, Note_on_c, 2, 78, 0
6, 158220, Note_on_c, 2, 76, 90
6, 158249, Note_on_c, 2, 76, 0
6, 158250, Note_on_c, 2, 74, 90
6, 158279, Note_on_c, 2, 74, 0
6, 158280, Note_on_c, 2, 73, 90
6, 158309, Note_on_c, 2, 73, 0
6, 158310, Note_on_c, 2, 71, 90
6, 158339, Note_on_c, 2, 71, 0
6, 158340, Note_on_c, 2, 69, 90
6, 158399, Note_on_c, 2, 69, 0
6, 158640, Note_on_c, 2, 76, 90
6, 158669, Note_on_c, 2, 76, 0
6, 158670, Note_on_c, 2, 78, 90
6, 158699, Note_on_c, 2, 78, 0
6, 158700, Note_on_c, 2, 79, 90
6, 158759, Note_on_c, 2, 79, 0
6, 159090, Note_on_c, 2, 74, 90
6, 159119, Note_on_c, 2, 74, 0
6, 159120, Note_on_c, 2, 73, 90
6, 159149, Note_on_c, 2, 73, 0
6, 159150, Note_on_c, 2, 71, 90
6, 159179, Note_on_c, 2, 71, 0
6, 159180, Note_on_c, 2, 69, 90
6, 159209, Note_on_c, 2, 69, 0
6, 159210, Note_on_c, 2, 67, 90
6, 159239, Note_on_c, 2, 67, 0
6, 159240, Note_on_c, 2, 66, 90
6, 159269, Note_on_c, 2, 66, 0
6, 159270, Note_on_c, 2, 64, 90
6, 159299, Note_on_c, 2, 64, 0
6, 159300, Note_on_c, 2, 62, 90
6, 159359, Note_on_c, 2, 62, 0
6, 159600, Note_on_c, 2, 78, 90
6, 159629, Note_on_c, 2, 78, 0
6, 159630, Note_on_c, 2, 79, 90
6, 159659, Note_on_c, 2, 79, 0
6, 159660, Note_on_c, 2, 81, 90
6, 159719, Note_on_c, 2, 81, 0
6, 160200, Note_on_c, 2, 67, 90
6, 160259, Note_on_c, 2, 67, 0
6, 160260, Note_on_c, 2, 76, 90
6, 160559, Note_on_c, 2, 76, 0
6, 160560, Note_on_c, 2, 73, 90
6, 160619, Note_on_c, 2, 73, 0
6, 160620, Note_on_c, 2, 69, 90
6, 160679, Note_on_c, 2, 69, 0
6, 160680, Note_on_c, 2, 73, 90
6, 160739, Note_on_c, 2, 73, 0
6, 160740, Note_on_c, 2, 74, 90
6, 161039, Note_on_c, 2, 74, 0
6, 161040, Note_on_c, 2, 71, 90
6, 161099, Note_on_c, 2, 71, 0
6, 161100, Note_on_c, 2, 67, 90
6, 161159, Note_on_c, 2, 67, 0
6, 161160, Note_on_c, 2, 71, 90
6, 161219, Note_on_c, 2, 71, 0
6, 161220, Note_on_c, 2, 73, 90
6, 161279, Note_on_c, 2, 73, 0
6, 161340, Note_on_c, 2, 76, 90
6, 161370, Note_on_c, 2, 76, 0
6, 161460, Note_on_c, 2, 73, 90
6, 161490, Note_on_c, 2, 73, 0
6, 161580, Note_on_c, 2, 69, 90
6, 161610, Note_on_c, 2, 69, 0
6, 161700, Note_on_c, 2, 73, 90
6, 161730, Note_on_c, 2, 73, 0
6, 161820, Note_on_c, 2, 76, 90
6, 161850, Note_on_c, 2, 76, 0
6, 161940, Note_on_c, 2, 81, 90
6, 161970, Note_on_c, 2, 81, 0
6, 162060, Note_on_c, 2, 79, 90
6, 162090, Note_on_c, 2, 79, 0
6, 162180, Note_on_c, 2, 78, 90
6, 162210, Note_on_c, 2, 78, 0
6, 162300, Note_on_c, 2, 80, 90
6, 162330, Note_on_c, 2, 80, 0
6, 162420, Note_on_c, 2, 81, 90
6, 162479, Note_on_c, 2, 81, 0
6, 162480, Note_on_c, 2, 69, 90
6, 162509, Note_on_c, 2, 69, 0
6, 162510, Note_on_c, 2, 71, 90
6, 162539, Note_on_c, 2, 71, 0
6, 162540, Note_on_c, 2, 73, 90
6, 162569, Note_on_c, 2, 73, 0
6, 162570, Note_on_c, 2, 74, 90
6, 162599, Note_on_c, 2, 74, 0
6, 162600, Note_on_c, 2, 76, 90
6, 162629, Note_on_c, 2, 76, 0
6, 162630, Note_on_c, 2, 78, 90
6, 162659, Note_on_c, 2, 78, 0
6, 162660, Note_on_c, 2, 79, 90
6, 162719, Note_on_c, 2, 79, 0
6, 163380, Note_on_c, 2, 74, 90
6, 163439, Note_on_c, 2, 74, 0
6, 163440, Note_on_c, 2, 69, 90
6, 163559, Note_on_c, 2, 69, 0
6, 163560, Note_on_c, 2, 66, 90
6, 163679, Note_on_c, 2, 66, 0
6, 163680, Note_on_c, 2, 69, 90
6, 163799, Note_on_c, 2, 69, 0
6, 163800, Note_on_c, 2, 72, 90
6, 163919, Note_on_c, 2, 72, 0
6, 163920, Note_on_c, 2, 78, 90
6, 163949, Note_on_c, 2, 78, 0
6, 163950, Note_on_c, 2, 79, 90
6, 163979, Note_on_c, 2, 79, 0
6, 163980, Note_on_c, 2, 81, 90
6, 164039, Note_on_c, 2, 81, 0
6, 164040, Note_on_c, 2, 79, 90
6, 164099, Note_on_c, 2, 79, 0
6, 164100, Note_on_c, 2, 78, 90
6, 164159, Note_on_c, 2, 78, 0
6, 164160, Note_on_c, 2, 76, 90
6, 164189, Note_on_c, 2, 76, 0
6, 164190, Note_on_c, 2, 78, 90
6, 164219, Note_on_c, 2, 78, 0
6, 164220, Note_on_c, 2, 74, 90
6, 164399, Note_on_c, 2, 74, 0
6, 164400, Note_on_c, 2, 71, 90
6, 164519, Note_on_c, 2, 71, 0
6, 164520, Note_on_c, 2, 68, 90
6, 164639, Note_on_c, 2, 68, 0
6, 164640, Note_on_c, 2, 71, 90
6, 164759, Note_on_c, 2, 71, 0
6, 164760, Note_on_c, 2, 74, 90
6, 164879, Note_on_c, 2, 74, 0
6, 164880, Note_on_c, 2, 80, 90
6, 164909, Note_on_c, 2, 80, 0
6, 164910, Note_on_c, 2, 81, 90
6, 164939, Note_on_c, 2, 81, 0
6, 164940, Note_on_c, 2, 83, 90
6, 164999, Note_on_c, 2, 83, 0
6, 165000, Note_on_c, 2, 81, 90
6, 165059, Note_on_c, 2, 81, 0
6, 165060, Note_on_c, 2, 80, 90
6, 165119, Note_on_c, 2, 80, 0
6, 165120, Note_on_c, 2, 78, 90
6, 165149, Note_on_c, 2, 78, 0
6, 165150, Note_on_c, 2, 80, 90
6, 165179, Note_on_c, 2, 80, 0
6, 165180, Note_on_c, 2, 76, 90
6, 165239, Note_on_c, 2, 76, 0
6, 165240, Note_on_c, 2, 68, 90
6, 165299, Note_on_c, 2, 68, 0
6, 165300, Note_on_c, 2, 69, 90
6, 165330, Note_on_c, 2, 69, 0
6, 165420, Note_on_c, 2, 73, 90
6, 165450, Note_on_c, 2, 73, 0
6, 165540, Note_on_c, 2, 74, 90
6, 165570, Note_on_c, 2, 74, 0
6, 165660, Note_on_c, 2, 78, 90
6, 165690, Note_on_c, 2, 78, 0
6, 165780, Note_on_c, 2, 76, 90
6, 165810, Note_on_c, 2, 76, 0
6, 165900, Note_on_c, 2, 81, 90
6, 165930, Note_on_c, 2, 81, 0
6, 166080, Note_on_c, 2, 71, 90
6, 166139, Note_on_c, 2, 71, 0
6, 166140, Note_on_c, 2, 71, 90
6, 166199, Note_on_c, 2, 71, 0
6, 166200, Note_on_c, 2, 69, 90
6, 166259, Note_on_c, 2, 69, 0
6, 166260, Note_on_c, 2, 66, 90
6, 166319, Note_on_c, 2, 66, 0
6, 166500, Note_on_c, 2, 77, 100
6, 166920, Note_on_c, 2, 77, 0
6, 167460, Note_on_c, 2, 69, 90
6, 167519, Note_on_c, 2, 69, 0
6, 167520, Note_on_c, 2, 73, 90
6, 167639, Note_on_c, 2, 73, 0
6, 167640, Note_on_c, 2, 76, 90
6, 167759, Note_on_c, 2, 76, 0
6, 167760, Note_on_c, 2, 79, 90
6, 167879, Note_on_c, 2, 79, 0
6, 167880, Note_on_c, 2, 81, 90
6, 167909, Note_on_c, 2, 81, 0
6, 167910, Note_on_c, 2, 83, 90
6, 167939, Note_on_c, 2, 83, 0
6, 167940, Note_on_c, 2, 81, 90
6, 167999, Note_on_c, 2, 81, 0
6, 168000, Note_on_c, 2, 74, 90
6, 168059, Note_on_c, 2, 74, 0
6, 168060, Note_on_c, 2, 79, 90
6, 168119, Note_on_c, 2, 79, 0
6, 168120, Note_on_c, 2, 76, 90
6, 168179, Note_on_c, 2, 76, 0
6, 168180, Note_on_c, 2, 78, 90
6, 168209, Note_on_c, 2, 78, 0
6, 168210, Note_on_c, 2, 79, 90
6, 168239, Note_on_c, 2, 79, 0
6, 168240, Note_on_c, 2, 78, 90
6, 168269, Note_on_c, 2, 78, 0
6, 168270, Note_on_c, 2, 76, 90
6, 168299, Note_on_c, 2, 76, 0
6, 168300, Note_on_c, 2, 74, 90
6, 168359, Note_on_c, 2, 74, 0
6, 168360, Note_on_c, 2, 78, 90
6, 168479, Note_on_c, 2, 78, 0
6, 168480, Note_on_c, 2, 81, 90
6, 168599, Note_on_c, 2, 81, 0
6, 168600, Note_on_c, 2, 84, 90
6, 168689, Note_on_c, 2, 84, 0
6, 168690, Note_on_c, 2, 83, 90
6, 168719, Note_on_c, 2, 83, 0
6, 168720, Note_on_c, 2, 81, 90
6, 168749, Note_on_c, 2, 81, 0
6, 168750, Note_on_c, 2, 79, 90
6, 168779, Note_on_c, 2, 79, 0
6, 168780, Note_on_c, 2, 78, 90
6, 168809, Note_on_c, 2, 78, 0
6, 168810, Note_on_c, 2, 76, 90
6, 168839, Note_on_c, 2, 76, 0
6, 168840, Note_on_c, 2, 74, 90
6, 168869, Note_on_c, 2, 74, 0
6, 168870, Note_on_c, 2, 72, 90
6, 168899, Note_on_c, 2, 72, 0
6, 168900, Note_on_c, 2, 71, 90
6, 168959, Note_on_c, 2, 71, 0
6, 168960, Note_on_c, 2, 79, 90
6, 169079, Note_on_c, 2, 79, 0
6, 169080, Note_on_c, 2, 78, 90
6, 169139, Note_on_c, 2, 78, 0
6, 169140, Note_on_c, 2, 79, 90
6, 169199, Note_on_c, 2, 79, 0
6, 169290, Note_on_c, 2, 83, 90
6, 169319, Note_on_c, 2, 83, 0
6, 169320, Note_on_c, 2, 81, 90
6, 169349, Note_on_c, 2, 81, 0
6, 169350, Note_on_c, 2, 79, 90
6, 169379, Note_on_c, 2, 79, 0
6, 169380, Note_on_c, 2, 81, 90
6, 169409, Note_on_c, 2, 81, 0
6, 169410, Note_on_c, 2, 76, 90
6, 169439, Note_on_c, 2, 76, 0
6, 169440, Note_on_c, 2, 72, 90
6, 169469, Note_on_c, 2, 72, 0
6, 169470, Note_on_c, 2, 69, 90
6, 169499, Note_on_c, 2, 69, 0
6, 169500, Note_on_c, 2, 66, 90
6, 169529, Note_on_c, 2, 66, 0
6, 169530, Note_on_c, 2, 71, 90
6, 169559, Note_on_c, 2, 71, 0
6, 169560, Note_on_c, 2, 75, 90
6, 169589, Note_on_c, 2, 75, 0
6, 169590, Note_on_c, 2, 78, 90
6, 169619, Note_on_c, 2, 78, 0
6, 169620, Note_on_c, 2, 79, 90
6, 169649, Note_on_c, 2, 79, 0
6, 169650, Note_on_c, 2, 76, 90
6, 169679, Note_on_c, 2, 76, 0
6, 169680, Note_on_c, 2, 71, 90
6, 169709, Note_on_c, 2, 71, 0
6, 169710, Note_on_c, 2, 67, 90
6, 169739, Note_on_c, 2, 67, 0
6, 169740, Note_on_c, 2, 64, 90
6, 169769, Note_on_c, 2, 64, 0
6, 169770, Note_on_c, 2, 69, 90
6, 169799, Note_on_c, 2, 69, 0
6, 169800, Note_on_c, 2, 73, 90
6, 169829, Note_on_c, 2, 73, 0
6, 169830, Note_on_c, 2, 76, 90
6, 169859, Note_on_c, 2, 76, 0
6, 169860, Note_on_c, 2, 78, 90
6, 169889, Note_on_c, 2, 78, 0
6, 169890, Note_on_c, 2, 76, 90
6, 169919, Note_on_c, 2, 76, 0
6, 169920, Note_on_c, 2, 74, 90
6, 169949, Note_on_c, 2, 74, 0
6, 169950, Note_on_c, 2, 78, 90
6, 169979, Note_on_c, 2, 78, 0
6, 169980, Note_on_c, 2, 76, 90
6, 170009, Note_on_c, 2, 76, 0
6, 170010, Note_on_c, 2, 78, 90
6, 170039, Note_on_c, 2, 78, 0
6, 170040, Note_on_c, 2, 79, 90
6, 170069, Note_on_c, 2, 79, 0
6, 170070, Note_on_c, 2, 76, 90
6, 170099, Note_on_c, 2, 76, 0
6, 170100, Note_on_c, 2, 74, 90
6, 170129, Note_on_c, 2, 74, 0
6, 170130, Note_on_c, 2, 73, 90
6, 170159, Note_on_c, 2, 73, 0
6, 170160, Note_on_c, 2, 71, 90
6, 170189, Note_on_c, 2, 71, 0
6, 170190, Note_on_c, 2, 69, 90
6, 170219, Note_on_c, 2, 69, 0
6, 170220, Note_on_c, 2, 71, 90
6, 170249, Note_on_c, 2, 71, 0
6, 170250, Note_on_c, 2, 73, 90
6, 170279, Note_on_c, 2, 73, 0
6, 170280, Note_on_c, 2, 74, 90
6, 170309, Note_on_c, 2, 74, 0
6, 170310, Note_on_c, 2, 76, 90
6, 170339, Note_on_c, 2, 76, 0
6, 170340, Note_on_c, 2, 78, 90
6, 170369, Note_on_c, 2, 78, 0
6, 170370, Note_on_c, 2, 79, 90
6, 170399, Note_on_c, 2, 79, 0
6, 170400, Note_on_c, 2, 81, 90
6, 170429, Note_on_c, 2, 81, 0
6, 170430, Note_on_c, 2, 74, 90
6, 170459, Note_on_c, 2, 74, 0
6, 170460, Note_on_c, 2, 78, 90
6, 170489, Note_on_c, 2, 78, 0
6, 170490, Note_on_c, 2, 76, 90
6, 170519, Note_on_c, 2, 76, 0
6, 170520, Note_on_c, 2, 74, 90
6, 170549, Note_on_c, 2, 74, 0
6, 170550, Note_on_c, 2, 73, 90
6, 170579, Note_on_c, 2, 73, 0
6, 170580, Note_on_c, 2, 74, 90
6, 170820, Note_on_c, 2, 74, 0
6, 170820, Note_on_c, 2, 74, 90
6, 170879, Note_on_c, 2, 74, 0
6, 170940, Note_on_c, 2, 73, 90
6, 170999, Note_on_c, 2, 73, 0
6, 171060, Note_on_c, 2, 71, 90
6, 171119, Note_on_c, 2, 71, 0
6, 171180, Note_on_c, 2, 75, 90
6, 171239, Note_on_c, 2, 75, 0
6, 171360, Note_on_c, 2, 76, 90
6, 171419, Note_on_c, 2, 76, 0
6, 171420, Note_on_c, 2, 76, 90
6, 171479, Note_on_c, 2, 76, 0
6, 171480, Note_on_c, 2, 75, 90
6, 171539, Note_on_c, 2, 75, 0
6, 171540, Note_on_c, 2, 76, 90
6, 171599, Note_on_c, 2, 76, 0
6, 171600, Note_on_c, 2, 79, 90
6, 171629, Note_on_c, 2, 79, 0
6, 171630, Note_on_c, 2, 78, 90
6, 171659, Note_on_c, 2, 78, 0
6, 171660, Note_on_c, 2, 76, 90
6, 171689, Note_on_c, 2, 76, 0
6, 171690, Note_on_c, 2, 74, 90
6, 171719, Note_on_c, 2, 74, 0
6, 171720, Note_on_c, 2, 73, 90
6, 171749, Note_on_c, 2, 73, 0
6, 171750, Note_on_c, 2, 71, 90
6, 171779, Note_on_c, 2, 71, 0
6, 171780, Note_on_c, 2, 73, 90
6, 171839, Note_on_c, 2, 73, 0
6, 171900, Note_on_c, 2, 71, 90
6, 171959, Note_on_c, 2, 71, 0
6, 172020, Note_on_c, 2, 69, 90
6, 172079, Note_on_c, 2, 69, 0
6, 172140, Note_on_c, 2, 73, 90
6, 172199, Note_on_c, 2, 73, 0
6, 172320, Note_on_c, 2, 74, 90
6, 172379, Note_on_c, 2, 74, 0
6, 172380, Note_on_c, 2, 74, 90
6, 172439, Note_on_c, 2, 74, 0
6, 172440, Note_on_c, 2, 73, 90
6, 172499, Note_on_c, 2, 73, 0
6, 172500, Note_on_c, 2, 74, 90
6, 172529, Note_on_c, 2, 74, 0
6, 172530, Note_on_c, 2, 78, 90
6, 172559, Note_on_c, 2, 78, 0
6, 172560, Note_on_c, 2, 76, 90
6, 172589, Note_on_c, 2, 76, 0
6, 172590, Note_on_c, 2, 74, 90
6, 172619, Note_on_c, 2, 74, 0
6, 172620, Note_on_c, 2, 73, 90
6, 172649, Note_on_c, 2, 73, 0
6, 172650, Note_on_c, 2, 71, 90
6, 172679, Note_on_c, 2, 71, 0
6, 172680, Note_on_c, 2, 70, 90
6, 172709, Note_on_c, 2, 70, 0
6, 172710, Note_on_c, 2, 71, 90
6, 172739, Note_on_c, 2, 71, 0
6, 172740, Note_on_c, 2, 66, 90
6, 173580, Note_on_c, 2, 66, 0
6, 174600, Note_on_c, 2, 73, 90
6, 174659, Note_on_c, 2, 73, 0
6, 174660, Note_on_c, 2, 74, 90
6, 174689, Note_on_c, 2, 74, 0
6, 174690, Note_on_c, 2, 69, 90
6, 174719, Note_on_c, 2, 69, 0
6, 174720, Note_on_c, 2, 66, 90
6, 174749, Note_on_c, 2, 66, 0
6, 174750, Note_on_c, 2, 71, 90
6, 174779, Note_on_c, 2, 71, 0
6, 174780, Note_on_c, 2, 74, 90
6, 174809, Note_on_c, 2, 74, 0
6, 174810, Note_on_c, 2, 71, 90
6, 174839, Note_on_c, 2, 71, 0
6, 174840, Note_on_c, 2, 66, 90
6, 174869, Note_on_c, 2, 66, 0
6, 174870, Note_on_c, 2, 71, 90
6, 174899, Note_on_c, 2, 71, 0
6, 174900, Note_on_c, 2, 73, 90
6, 174929, Note_on_c, 2, 73, 0
6, 174930, Note_on_c, 2, 69, 90
6, 174959, Note_on_c, 2, 69, 0
6, 174960, Note_on_c, 2, 66, 90
6, 174989, Note_on_c, 2, 66, 0
6, 174990, Note_on_c, 2, 69, 90
6, 175019, Note_on_c, 2, 69, 0
6, 175020, Note_on_c, 2, 73, 90
6, 175049, Note_on_c, 2, 73, 0
6, 175050, Note_on_c, 2, 69, 90
6, 175079, Note_on_c, 2, 69, 0
6, 175080, Note_on_c, 2, 66, 90
6, 175109, Note_on_c, 2, 66, 0
6, 175110, Note_on_c, 2, 69, 90
6, 175139, Note_on_c, 2, 69, 0
6, 175140, Note_on_c, 2, 71, 90
6, 175169, Note_on_c, 2, 71, 0
6, 175170, Note_on_c, 2, 66, 90
6, 175199, Note_on_c, 2, 66, 0
6, 175200, Note_on_c, 2, 71, 90
6, 175229, Note_on_c, 2, 71, 0
6, 175230, Note_on_c, 2, 74, 90
6, 175259, Note_on_c, 2, 74, 0
6, 175260, Note_on_c, 2, 78, 90
6, 175289, Note_on_c, 2, 78, 0
6, 175290, Note_on_c, 2, 74, 90
6, 175319, Note_on_c, 2, 74, 0
6, 175320, Note_on_c, 2, 71, 90
6, 175349, Note_on_c, 2, 71, 0
6, 175350, Note_on_c, 2, 68, 90
6, 175379, Note_on_c, 2, 68, 0
6, 175380, Note_on_c, 2, 69, 90
6, 175409, Note_on_c, 2, 69, 0
6, 175410, Note_on_c, 2, 66, 90
6, 175439, Note_on_c, 2, 66, 0
6, 175440, Note_on_c, 2, 69, 90
6, 175469, Note_on_c, 2, 69, 0
6, 175470, Note_on_c, 2, 73, 90
6, 175499, Note_on_c, 2, 73, 0
6, 175500, Note_on_c, 2, 78, 90
6, 175529, Note_on_c, 2, 78, 0
6, 175530, Note_on_c, 2, 73, 90
6, 175559, Note_on_c, 2, 73, 0
6, 175560, Note_on_c, 2, 69, 90
6, 175589, Note_on_c, 2, 69, 0
6, 175590, Note_on_c, 2, 66, 90
6, 175619, Note_on_c, 2, 66, 0
6, 175620, Note_on_c, 2, 74, 90
6, 175679, Note_on_c, 2, 74, 0
6, 180420, Note_on_c, 2, 74, 90
6, 180479, Note_on_c, 2, 74, 0
6, 180480, Note_on_c, 2, 69, 90
6, 180599, Note_on_c, 2, 69, 0
6, 180600, Note_on_c, 2, 66, 90
6, 180719, Note_on_c, 2, 66, 0
6, 180720, Note_on_c, 2, 69, 90
6, 180839, Note_on_c, 2, 69, 0
6, 180840, Note_on_c, 2, 74, 90
6, 180929, Note_on_c, 2, 74, 0
6, 180930, Note_on_c, 2, 76, 90
6, 180959, Note_on_c, 2, 76, 0
6, 180960, Note_on_c, 2, 78, 90
6, 181079, Note_on_c, 2, 78, 0
6, 181080, Note_on_c, 2, 76, 90
6, 181139, Note_on_c, 2, 76, 0
6, 181140, Note_on_c, 2, 78, 90
6, 181199, Note_on_c, 2, 78, 0
6, 181200, Note_on_c, 2, 81, 90
6, 181229, Note_on_c, 2, 81, 0
6, 181230, Note_on_c, 2, 79, 90
6, 181259, Note_on_c, 2, 79, 0
6, 181260, Note_on_c, 2, 81, 90
6, 181289, Note_on_c, 2, 81, 0
6, 181290, Note_on_c, 2, 79, 90
6, 181319, Note_on_c, 2, 79, 0
6, 181320, Note_on_c, 2, 78, 90
6, 181349, Note_on_c, 2, 78, 0
6, 181350, Note_on_c, 2, 76, 90
6, 181379, Note_on_c, 2, 76, 0
6, 181380, Note_on_c, 2, 74, 90
6, 181410, Note_on_c, 2, 74, 0
6, 181500, Note_on_c, 2, 69, 90
6, 181530, Note_on_c, 2, 69, 0
6, 181620, Note_on_c, 2, 66, 90
6, 181650, Note_on_c, 2, 66, 0
6, 181740, Note_on_c, 2, 69, 90
6, 181770, Note_on_c, 2, 69, 0
6, 181860, Note_on_c, 2, 74, 90
6, 181889, Note_on_c, 2, 74, 0
6, 181890, Note_on_c, 2, 76, 90
6, 181919, Note_on_c, 2, 76, 0
6, 181920, Note_on_c, 2, 78, 90
6, 182039, Note_on_c, 2, 78, 0
6, 182040, Note_on_c, 2, 76, 90
6, 182099, Note_on_c, 2, 76, 0
6, 182100, Note_on_c, 2, 78, 90
6, 182159, Note_on_c, 2, 78, 0
6, 182160, Note_on_c, 2, 81, 90
6, 182189, Note_on_c, 2, 81, 0
6, 182190, Note_on_c, 2, 79, 90
6, 182219, Note_on_c, 2, 79, 0
6, 182220, Note_on_c, 2, 81, 90
6, 182249, Note_on_c, 2, 81, 0
6, 182250, Note_on_c, 2, 78, 90
6, 182279, Note_on_c, 2, 78, 0
6, 182280, Note_on_c, 2, 76, 90
6, 182309, Note_on_c, 2, 76, 0
6, 182310, Note_on_c, 2, 74, 90
6, 182339, Note_on_c, 2, 74, 0
6, 182340, Note_on_c, 2, 83, 90
6, 182369, Note_on_c, 2, 83, 0
6, 182370, Note_on_c, 2, 79, 90
6, 182399, Note_on_c, 2, 79, 0
6, 182400, Note_on_c, 2, 74, 90
6, 182429, Note_on_c, 2, 74, 0
6, 182430, Note_on_c, 2, 71, 90
6, 182459, Note_on_c, 2, 71, 0
6, 182460, Note_on_c, 2, 67, 90
6, 182489, Note_on_c, 2, 67, 0
6, 182490, Note_on_c, 2, 71, 90
6, 182519, Note_on_c, 2, 71, 0
6, 182520, Note_on_c, 2, 74, 90
6, 182549, Note_on_c, 2, 74, 0
6, 182550, Note_on_c, 2, 79, 90
6, 182579, Note_on_c, 2, 79, 0
6, 182580, Note_on_c, 2, 81, 90
6, 182609, Note_on_c, 2, 81, 0
6, 182610, Note_on_c, 2, 78, 90
6, 182639, Note_on_c, 2, 78, 0
6, 182640, Note_on_c, 2, 74, 90
6, 182669, Note_on_c, 2, 74, 0
6, 182670, Note_on_c, 2, 69, 90
6, 182699, Note_on_c, 2, 69, 0
6, 182700, Note_on_c, 2, 66, 90
6, 182729, Note_on_c, 2, 66, 0
6, 182730, Note_on_c, 2, 69, 90
6, 182759, Note_on_c, 2, 69, 0
6, 182760, Note_on_c, 2, 74, 90
6, 182789, Note_on_c, 2, 74, 0
6, 182790, Note_on_c, 2, 78, 90
6, 182819, Note_on_c, 2, 78, 0
6, 182820, Note_on_c, 2, 79, 90
6, 182849, Note_on_c, 2, 79, 0
6, 182850, Note_on_c, 2, 78, 90
6, 182879, Note_on_c, 2, 78, 0
6, 182880, Note_on_c, 2, 76, 90
6, 182909, Note_on_c, 2, 76, 0
6, 182910, Note_on_c, 2, 79, 90
6, 182939, Note_on_c, 2, 79, 0
6, 182940, Note_on_c, 2, 78, 90
6, 182969, Note_on_c, 2, 78, 0
6, 182970, Note_on_c, 2, 76, 90
6, 182999, Note_on_c, 2, 76, 0
6, 183000, Note_on_c, 2, 74, 90
6, 183029, Note_on_c, 2, 74, 0
6, 183030, Note_on_c, 2, 78, 90
6, 183059, Note_on_c, 2, 78, 0
6, 183060, Note_on_c, 2, 76, 90
6, 183089, Note_on_c, 2, 76, 0
6, 183090, Note_on_c, 2, 69, 90
6, 183119, Note_on_c, 2, 69, 0
6, 183120, Note_on_c, 2, 71, 90
6, 183149, Note_on_c, 2, 71, 0
6, 183150, Note_on_c, 2, 73, 90
6, 183179, Note_on_c, 2, 73, 0
6, 183180, Note_on_c, 2, 74, 90
6, 183209, Note_on_c, 2, 74, 0
6, 183210, Note_on_c, 2, 76, 90
6, 183239, Note_on_c, 2, 76, 0
6, 183240, Note_on_c, 2, 78, 90
6, 183269, Note_on_c, 2, 78, 0
6, 183270, Note_on_c, 2, 79, 90
6, 183299, Note_on_c, 2, 79, 0
6, 183300, Note_on_c, 2, 81, 90
6, 183329, Note_on_c, 2, 81, 0
6, 183330, Note_on_c, 2, 78, 90
6, 183359, Note_on_c, 2, 78, 0
6, 183360, Note_on_c, 2, 76, 90
6, 183389, Note_on_c, 2, 76, 0
6, 183390, Note_on_c, 2, 74, 90
6, 183419, Note_on_c, 2, 74, 0
6, 183420, Note_on_c, 2, 79, 90
6, 183479, Note_on_c, 2, 79, 0
6, 183480, Note_on_c, 2, 78, 90
6, 183539, Note_on_c, 2, 78, 0
6, 183540, Note_on_c, 2, 76, 90
6, 183779, Note_on_c, 2, 76, 0
6, 184080, Note_on_c, 2, 66, 90
6, 184109, Note_on_c, 2, 66, 0
6, 184110, Note_on_c, 2, 67, 90
6, 184139, Note_on_c, 2, 67, 0
6, 184140, Note_on_c, 2, 69, 90
6, 184199, Note_on_c, 2, 69, 0
6, 184560, Note_on_c, 2, 69, 90
6, 184589, Note_on_c, 2, 69, 0
6, 184620, Note_on_c, 2, 74, 90
6, 184649, Note_on_c, 2, 74, 0
6, 185040, Note_on_c, 2, 74, 90
6, 185069, Note_on_c, 2, 74, 0
6, 185070, Note_on_c, 2, 76, 90
6, 185099, Note_on_c, 2, 76, 0
6, 185100, Note_on_c, 2, 78, 90
6, 185159, Note_on_c, 2, 78, 0
6, 185520, Note_on_c, 2, 78, 90
6, 185549, Note_on_c, 2, 78, 0
6, 185550, Note_on_c, 2, 79, 90
6, 185579, Note_on_c, 2, 79, 0
6, 185580, Note_on_c, 2, 81, 90
6, 185639, Note_on_c, 2, 81, 0
6, 185820, Note_on_c, 2, 74, 90
6, 185879, Note_on_c, 2, 74, 0
6, 186060, Note_on_c, 2, 74, 90
6, 186119, Note_on_c, 2, 74, 0
6, 186240, Note_on_c, 2, 76, 90
6, 186299, Note_on_c, 2, 76, 0
6, 186300, Note_on_c, 2, 76, 90
6, 186359, Note_on_c, 2, 76, 0
6, 186360, Note_on_c, 2, 74, 90
6, 186419, Note_on_c, 2, 74, 0
6, 186420, Note_on_c, 2, 73, 90
6, 186449, Note_on_c, 2, 73, 0
6, 186450, Note_on_c, 2, 69, 90
6, 186479, Note_on_c, 2, 69, 0
6, 186480, Note_on_c, 2, 71, 90
6, 186509, Note_on_c, 2, 71, 0
6, 186510, Note_on_c, 2, 73, 90
6, 186539, Note_on_c, 2, 73, 0
6, 186540, Note_on_c, 2, 74, 90
6, 186569, Note_on_c, 2, 74, 0
6, 186570, Note_on_c, 2, 76, 90
6, 186599, Note_on_c, 2, 76, 0
6, 186600, Note_on_c, 2, 78, 90
6, 186629, Note_on_c, 2, 78, 0
6, 186630, Note_on_c, 2, 79, 90
6, 186659, Note_on_c, 2, 79, 0
6, 186660, Note_on_c, 2, 81, 90
6, 186689, Note_on_c, 2, 81, 0
6, 186690, Note_on_c, 2, 74, 90
6, 186719, Note_on_c, 2, 74, 0
6, 186720, Note_on_c, 2, 73, 90
6, 186749, Note_on_c, 2, 73, 0
6, 186750, Note_on_c, 2, 74, 90
6, 186779, Note_on_c, 2, 74, 0
6, 186780, Note_on_c, 2, 81, 90
6, 186839, Note_on_c, 2, 81, 0
6, 186840, Note_on_c, 2, 79, 90
6, 186869, Note_on_c, 2, 79, 0
6, 186870, Note_on_c, 2, 78, 90
6, 186899, Note_on_c, 2, 78, 0
6, 186900, Note_on_c, 2, 76, 90
6, 186929, Note_on_c, 2, 76, 0
6, 186930, Note_on_c, 2, 81, 90
6, 186959, Note_on_c, 2, 81, 0
6, 186960, Note_on_c, 2, 80, 90
6, 186989, Note_on_c, 2, 80, 0
6, 186990, Note_on_c, 2, 78, 90
6, 187019, Note_on_c, 2, 78, 0
6, 187020, Note_on_c, 2, 76, 90
6, 187049, Note_on_c, 2, 76, 0
6, 187050, Note_on_c, 2, 74, 90
6, 187079, Note_on_c, 2, 74, 0
6, 187080, Note_on_c, 2, 73, 90
6, 187109, Note_on_c, 2, 73, 0
6, 187110, Note_on_c, 2, 71, 90
6, 187139, Note_on_c, 2, 71, 0
6, 187140, Note_on_c, 2, 69, 90
6, 187199, Note_on_c, 2, 69, 0
6, 187440, Note_on_c, 2, 76, 90
6, 187469, Note_on_c, 2, 76, 0
6, 187470, Note_on_c, 2, 78, 90
6, 187499, Note_on_c, 2, 78, 0
6, 187500, Note_on_c, 2, 79, 90
6, 187559, Note_on_c, 2, 79, 0
6, 187890, Note_on_c, 2, 74, 90
6, 187919, Note_on_c, 2, 74, 0
6, 187920, Note_on_c, 2, 73, 90
6, 187949, Note_on_c, 2, 73, 0
6, 187950, Note_on_c, 2, 71, 90
6, 187979, Note_on_c, 2, 71, 0
6, 187980, Note_on_c, 2, 69, 90
6, 188009, Note_on_c, 2, 69, 0
6, 188010, Note_on_c, 2, 67, 90
6, 188039, Note_on_c, 2, 67, 0
6, 188040, Note_on_c, 2, 66, 90
6, 188069, Note_on_c, 2, 66, 0
6, 188070, Note_on_c, 2, 64, 90
6, 188099, Note_on_c, 2, 64, 0
6, 188100, Note_on_c, 2, 62, 90
6, 188159, Note_on_c, 2, 62, 0
6, 188400, Note_on_c, 2, 78, 90
6, 188429, Note_on_c, 2, 78, 0
6, 188430, Note_on_c, 2, 79, 90
6, 188459, Note_on_c, 2, 79, 0
6, 188460, Note_on_c, 2, 81, 90
6, 188519, Note_on_c, 2, 81, 0
6, 189000, Note_on_c, 2, 67, 90
6, 189059, Note_on_c, 2, 67, 0
6, 189060, Note_on_c, 2, 76, 90
6, 189359, Note_on_c, 2, 76, 0
6, 189360, Note_on_c, 2, 73, 90
6, 189419, Note_on_c, 2, 73, 0
6, 189420, Note_on_c, 2, 69, 90
6, 189479, Note_on_c, 2, 69, 0
6, 189480, Note_on_c, 2, 73, 90
6, 189539, Note_on_c, 2, 73, 0
6, 189540, Note_on_c, 2, 74, 90
6, 189839, Note_on_c, 2, 74, 0
6, 189840, Note_on_c, 2, 71, 90
6, 189899, Note_on_c, 2, 71, 0
6, 189900, Note_on_c, 2, 67, 90
6, 189959, Note_on_c, 2, 67, 0
6, 189960, Note_on_c, 2, 71, 90
6, 190019, Note_on_c, 2, 71, 0
6, 190020, Note_on_c, 2, 73, 90
6, 190079, Note_on_c, 2, 73, 0
6, 190140, Note_on_c, 2, 76, 90
6, 190170, Note_on_c, 2, 76, 0
6, 190260, Note_on_c, 2, 73, 90
6, 190290, Note_on_c, 2, 73, 0
6, 190380, Note_on_c, 2, 69, 90
6, 190410, Note_on_c, 2, 69, 0
6, 190500, Note_on_c, 2, 73, 90
6, 190530, Note_on_c, 2, 73, 0
6, 190620, Note_on_c, 2, 76, 90
6, 190650, Note_on_c, 2, 76, 0
6, 190740, Note_on_c, 2, 81, 90
6, 190770, Note_on_c, 2, 81, 0
6, 190860, Note_on_c, 2, 79, 90
6, 190890, Note_on_c, 2, 79, 0
6, 190980, Note_on_c, 2, 78, 90
6, 191010, Note_on_c, 2, 78, 0
6, 191100, Note_on_c, 2, 80, 90
6, 191130, Note_on_c, 2, 80, 0
6, 191220, Note_on_c, 2, 81, 90
6, 191279, Note_on_c, 2, 81, 0
6, 191280, Note_on_c, 2, 69, 90
6, 191309, Note_on_c, 2, 69, 0
6, 191310, Note_on_c, 2, 71, 90
6, 191339, Note_on_c, 2, 71, 0
6, 191340, Note_on_c, 2, 73, 90
6, 191369, Note_on_c, 2, 73, 0
6, 191370, Note_on_c, 2, 74, 90
6, 191399, Note_on_c, 2, 74, 0
6, 191400, Note_on_c, 2, 76, 90
6, 191429, Note_on_c, 2, 76, 0
6, 191430, Note_on_c, 2, 78, 90
6, 191459, Note_on_c, 2, 78, 0
6, 191460, Note_on_c, 2, 79, 90
6, 191519, Note_on_c, 2, 79, 0
6, 192180, Note_on_c, 2, 74, 90
6, 192239, Note_on_c, 2, 74, 0
6, 192240, Note_on_c, 2, 69, 90
6, 192359, Note_on_c, 2, 69, 0
6, 192360, Note_on_c, 2, 66, 90
6, 192479, Note_on_c, 2, 66, 0
6, 192480, Note_on_c, 2, 69, 90
6, 192599, Note_on_c, 2, 69, 0
6, 192600, Note_on_c, 2, 72, 90
6, 192719, Note_on_c, 2, 72, 0
6, 192720, Note_on_c, 2, 78, 90
6, 192749, Note_on_c, 2, 78, 0
6, 192750, Note_on_c, 2, 79, 90
6, 192779, Note_on_c, 2, 79, 0
6, 192780, Note_on_c, 2, 81, 90
6, 192839, Note_on_c, 2, 81, 0
6, 192840, Note_on_c, 2, 79, 90
6, 192899, Note_on_c, 2, 79, 0
6, 192900, Note_on_c, 2, 78, 90
6, 192959, Note_on_c, 2, 78, 0
6, 192960, Note_on_c, 2, 76, 90
6, 192989, Note_on_c, 2, 76, 0
6, 192990, Note_on_c, 2, 78, 90
6, 193019, Note_on_c, 2, 78, 0
6, 193020, Note_on_c, 2, 74, 90
6, 193199, Note_on_c, 2, 74, 0
6, 193200, Note_on_c, 2, 71, 90
6, 193319, Note_on_c, 2, 71, 0
6, 193320, Note_on_c, 2, 68, 90
6, 193439, Note_on_c, 2, 68, 0
6, 193440, Note_on_c, 2, 71, 90
6, 193559, Note_on_c, 2, 71, 0
6, 193560, Note_on_c, 2, 74, 90
6, 193679, Note_on_c, 2, 74, 0
6, 193680, Note_on_c, 2, 80, 90
6, 193709, Note_on_c, 2, 80, 0
6, 193710, Note_on_c, 2, 81, 90
6, 193739, Note_on_c, 2, 81, 0
6, 193740, Note_on_c, 2, 83, 90
6, 193799, Note_on_c, 2, 83, 0
6, 193800, Note_on_c, 2, 81, 90
6, 193859, Note_on_c, 2, 81, 0
6, 193860, Note_on_c, 2, 80, 90
6, 193919, Note_on_c, 2, 80, 0
6, 193920, Note_on_c, 2, 78, 90
6, 193949, Note_on_c, 2, 78, 0
6, 193950, Note_on_c, 2, 80, 90
6, 193979, Note_on_c, 2, 80, 0
6, 193980, Note_on_c, 2, 76, 90
6, 194039, Note_on_c, 2, 76, 0
6, 194040, Note_on_c, 2, 68, 90
6, 194099, Note_on_c, 2, 68, 0
6, 194100, Note_on_c, 2, 69, 90
6, 194130, Note_on_c, 2, 69, 0
6, 194220, Note_on_c, 2, 73, 90
6, 194250, Note_on_c, 2, 73, 0
6, 194340, Note_on_c, 2, 74, 90
6, 194370, Note_on_c, 2, 74, 0
6, 194460, Note_on_c, 2, 78, 90
6, 194490, Note_on_c, 2, 78, 0
6, 194580, Note_on_c, 2, 76, 90
6, 194610, Note_on_c, 2, 76, 0
6, 194700, Note_on_c, 2, 81, 90
6, 194730, Note_on_c, 2, 81, 0
6, 194880, Note_on_c, 2, 71, 90
6, 194939, Note_on_c, 2, 71, 0
6, 194940, Note_on_c, 2, 71, 90
6, 194999, Note_on_c, 2, 71, 0
6, 195000, Note_on_c, 2, 69, 90
6, 195059, Note_on_c, 2, 69, 0
6, 195060, Note_on_c, 2, 66, 90
6, 195119, Note_on_c, 2, 66, 0
6, 195300, Note_on_c, 2, 77, 100
6, 195720, Note_on_c, 2, 77, 0
6, 196260, Note_on_c, 2, 69, 90
6, 196319, Note_on_c, 2, 69, 0
6, 196320, Note_on_c, 2, 73, 90
6, 196439, Note_on_c, 2, 73, 0
6, 196440, Note_on_c, 2, 76, 90
6, 196559, Note_on_c, 2, 76, 0
6, 196560, Note_on_c, 2, 79, 90
6, 196679, Note_on_c, 2, 79, 0
6, 196680, Note_on_c, 2, 81, 90
6, 196709, Note_on_c, 2, 81, 0
6, 196710, Note_on_c, 2, 83, 90
6, 196739, Note_on_c, 2, 83, 0
6, 196740, Note_on_c, 2, 81, 90
6, 196799, Note_on_c, 2, 81, 0
6, 196800, Note_on_c, 2, 74, 90
6, 196859, Note_on_c, 2, 74, 0
6, 196860, Note_on_c, 2, 79, 90
6, 196919, Note_on_c, 2, 79, 0
6, 196920, Note_on_c, 2, 76, 90
6, 196979, Note_on_c, 2, 76, 0
6, 196980, Note_on_c, 2, 78, 90
6, 197009, Note_on_c, 2, 78, 0
6, 197010, Note_on_c, 2, 79, 90
6, 197039, Note_on_c, 2, 79, 0
6, 197040, Note_on_c, 2, 78, 90
6, 197069, Note_on_c, 2, 78, 0
6, 197070, Note_on_c, 2, 76, 90
6, 197099, Note_on_c, 2, 76, 0
6, 197100, Note_on_c, 2, 74, 90
6, 197159, Note_on_c, 2, 74, 0
6, 197160, Note_on_c, 2, 78, 90
6, 197279, Note_on_c, 2, 78, 0
6, 197280, Note_on_c, 2, 81, 90
6, 197399, Note_on_c, 2, 81, 0
6, 197400, Note_on_c, 2, 84, 90
6, 197489, Note_on_c, 2, 84, 0
6, 197490, Note_on_c, 2, 83, 90
6, 197519, Note_on_c, 2, 83, 0
6, 197520, Note_on_c, 2, 81, 90
6, 197549, Note_on_c, 2, 81, 0
6, 197550, Note_on_c, 2, 79, 90
6, 197579, Note_on_c, 2, 79, 0
6, 197580, Note_on_c, 2, 78, 90
6, 197609, Note_on_c, 2, 78, 0
6, 197610, Note_on_c, 2, 76, 90
6, 197639, Note_on_c, 2, 76, 0
6, 197640, Note_on_c, 2, 74, 90
6, 197669, Note_on_c, 2, 74, 0
6, 197670, Note_on_c, 2, 72, 90
6, 197699, Note_on_c, 2, 72, 0
6, 197700, Note_on_c, 2, 71, 90
6, 197759, Note_on_c, 2, 71, 0
6, 197760, Note_on_c, 2, 79, 90
6, 197879, Note_on_c, 2, 79, 0
6, 197880, Note_on_c, 2, 78, 90
6, 197939, Note_on_c, 2, 78, 0
6, 197940, Note_on_c, 2, 79, 90
6, 197999, Note_on_c, 2, 79, 0
6, 198090, Note_on_c, 2, 83, 90
6, 198119, Note_on_c, 2, 83, 0
6, 198120, Note_on_c, 2, 81, 90
6, 198149, Note_on_c, 2, 81, 0
6, 198150, Note_on_c, 2, 79, 90
6, 198179, Note_on_c, 2, 79, 0
6, 198180, Note_on_c, 2, 81, 90
6, 198209, Note_on_c, 2, 81, 0
6, 198210, Note_on_c, 2, 76, 90
6, 198239, Note_on_c, 2, 76, 0
6, 198240, Note_on_c, 2, 72, 90
6, 198269, Note_on_c, 2, 72, 0
6, 198270, Note_on_c, 2, 69, 90
6, 198299, Note_on_c, 2, 69, 0
6, 198300, Note_on_c, 2, 66, 90
6, 198329, Note_on_c, 2, 66, 0
6, 198330, Note_on_c, 2, 71, 90
6, 198359, Note_on_c, 2, 71, 0
6, 198360, Note_on_c, 2, 75, 90
6, 198389, Note_on_c, 2, 75, 0
6, 198390, Note_on_c, 2, 78, 90
6, 198419, Note_on_c, 2, 78, 0
6, 198420, Note_on_c, 2, 79, 90
6, 198449, Note_on_c, 2, 79, 0
6, 198450, Note_on_c, 2, 76, 90
6, 198479, Note_on_c, 2, 76, 0
6, 198480, Note_on_c, 2, 71, 90
6, 198509, Note_on_c, 2, 71, 0
6, 198510, Note_on_c, 2, 67, 90
6, 198539, Note_on_c, 2, 67, 0
6, 198540, Note_on_c, 2, 64, 90
6, 198569, Note_on_c, 2, 64, 0
6, 198570, Note_on_c, 2, 69, 90
6, 198599, Note_on_c, 2, 69, 0
6, 198600, Note_on_c, 2, 73, 90
6, 198629, Note_on_c, 2, 73, 0
6, 198630, Note_on_c, 2, 76, 90
6, 198659, Note_on_c, 2, 76, 0
6, 198660, Note_on_c, 2, 78, 90
6, 198689, Note_on_c, 2, 78, 0
6, 198690, Note_on_c, 2, 76, 90
6, 198719, Note_on_c, 2, 76, 0
6, 198720, Note_on_c, 2, 74, 90
6, 198749, Note_on_c, 2, 74, 0
6, 198750, Note_on_c, 2, 78, 90
6, 198779, Note_on_c, 2, 78, 0
6, 198780, Note_on_c, 2, 76, 90
6, 198809, Note_on_c, 2, 76, 0
6, 198810, Note_on_c, 2, 78, 90
6, 198839, Note_on_c, 2, 78, 0
6, 198840, Note_on_c, 2, 79, 90
6, 198869, Note_on_c, 2, 79, 0
6, 198870, Note_on_c, 2, 76, 90
6, 198899, Note_on_c, 2, 76, 0
6, 198900, Note_on_c, 2, 74, 90
6, 198929, Note_on_c, 2, 74, 0
6, 198930, Note_on_c, 2, 73, 90
6, 198959, Note_on_c, 2, 73, 0
6, 198960, Note_on_c, 2, 71, 90
6, 198989, Note_on_c, 2, 71, 0
6, 198990, Note_on_c, 2, 69, 90
6, 199019, Note_on_c, 2, 69, 0
6, 199020, Note_on_c, 2, 71, 90
6, 199049, Note_on_c, 2, 71, 0
6, 199050, Note_on_c, 2, 73, 90
6, 199079, Note_on_c, 2, 73, 0
6, 199080, Note_on_c, 2, 74, 90
6, 199109, Note_on_c, 2, 74, 0
6, 199110, Note_on_c, 2, 76, 90
6, 199139, Note_on_c, 2, 76, 0
6, 199140, Note_on_c, 2, 78, 90
6, 199169, Note_on_c, 2, 78, 0
6, 199170, Note_on_c, 2, 79, 90
6, 199199, Note_on_c, 2, 79, 0
6, 199200, Note_on_c, 2, 81, 90
6, 199229, Note_on_c, 2, 81, 0
6, 199230, Note_on_c, 2, 74, 90
6, 199259, Note_on_c, 2, 74, 0
6, 199260, Note_on_c, 2, 78, 90
6, 199289, Note_on_c, 2, 78, 0
6, 199290, Note_on_c, 2, 76, 90
6, 199319, Note_on_c, 2, 76, 0
6, 199320, Note_on_c, 2, 74, 90
6, 199349, Note_on_c, 2, 74, 0
6, 199350, Note_on_c, 2, 73, 90
6, 199379, Note_on_c, 2, 73, 0
6, 199380, Note_on_c, 2, 74, 90
6, 199620, Note_on_c, 2, 74, 0
6, 199980, Note_on_c, 2, 86, 90
6, 200099, Note_on_c, 2, 86, 0
6, 200100, Note_on_c, 2, 85, 90
6, 200219, Note_on_c, 2, 85, 0
6, 200220, Note_on_c, 2, 83, 90
6, 200339, Note_on_c, 2, 83, 0
6, 200340, Note_on_c, 2, 85, 90
6, 200459, Note_on_c, 2, 85, 0
6, 200460, Note_on_c, 2, 81, 90
6, 200579, Note_on_c, 2, 81, 0
6, 200580, Note_on_c, 2, 83, 90
6, 200699, Note_on_c, 2, 83, 0
6, 200700, Note_on_c, 2, 85, 90
6, 200819, Note_on_c, 2, 85, 0
6, 200820, Note_on_c, 2, 86, 90
6, 200939, Note_on_c, 2, 86, 0
6, 201660, Note_on_c, 2, 86, 90
6, 201779, Note_on_c, 2, 86, 0
6, 201780, Note_on_c, 2, 86, 90
6, 201899, Note_on_c, 2, 86, 0
6, 201900, Note_on_c, 2, 81, 90
6, 202019, Note_on_c, 2, 81, 0
6, 202020, Note_on_c, 2, 81, 90
6, 202139, Note_on_c, 2, 81, 0
6, 202140, Note_on_c, 2, 78, 90
6, 202199, Note_on_c, 2, 78, 0
6, 202200, Note_on_c, 2, 79, 90
6, 202259, Note_on_c, 2, 79, 0
6, 202260, Note_on_c, 2, 81, 90
6, 202379, Note_on_c, 2, 81, 0
6, 202380, Note_on_c, 2, 79, 90
6, 202499, Note_on_c, 2, 79, 0
6, 202500, Note_on_c, 2, 78, 90
6, 202619, Note_on_c, 2, 78, 0
6, 203340, Note_on_c, 2, 78, 90
6, 203459, Note_on_c, 2, 78, 0
6, 203460, Note_on_c, 2, 83, 90
6, 203579, Note_on_c, 2, 83, 0
6, 203580, Note_on_c, 2, 83, 90
6, 203699, Note_on_c, 2, 83, 0
6, 203700, Note_on_c, 2, 81, 90
6, 203759, Note_on_c, 2, 81, 0
6, 203760, Note_on_c, 2, 83, 90
6, 203819, Note_on_c, 2, 83, 0
6, 203820, Note_on_c, 2, 85, 90
6, 203939, Note_on_c, 2, 85, 0
6, 203940, Note_on_c, 2, 86, 90
6, 203999, Note_on_c, 2, 86, 0
6, 204000, Note_on_c, 2, 85, 90
6, 204059, Note_on_c, 2, 85, 0
6, 204060, Note_on_c, 2, 83, 90
6, 204179, Note_on_c, 2, 83, 0
6, 204180, Note_on_c, 2, 81, 90
6, 204299, Note_on_c, 2, 81, 0
6, 205020, Note_on_c, 2, 86, 90
6, 205139, Note_on_c, 2, 86, 0
6, 205140, Note_on_c, 2, 85, 90
6, 205259, Note_on_c, 2, 85, 0
6, 205260, Note_on_c, 2, 83, 90
6, 205379, Note_on_c, 2, 83, 0
6, 205380, Note_on_c, 2, 81, 90
6, 205499, Note_on_c, 2, 81, 0
6, 205500, Note_on_c, 2, 83, 90
6, 205559, Note_on_c, 2, 83, 0
6, 205560, Note_on_c, 2, 81, 90
6, 205619, Note_on_c, 2, 81, 0
6, 205620, Note_on_c, 2, 79, 90
6, 205679, Note_on_c, 2, 79, 0
6, 205680, Note_on_c, 2, 78, 90
6, 205739, Note_on_c, 2, 78, 0
6, 205740, Note_on_c, 2, 76, 90
6, 205859, Note_on_c, 2, 76, 0
6, 205860, Note_on_c, 2, 74, 90
6, 205979, Note_on_c, 2, 74, 0
6, 205979, End_track
7, 0, Start_track
7, 0, MIDI_port, 0
7, 0, Title_t, "Flauto II"
7, 0, Program_c, 3, 73
7, 210, Note_on_c, 3, 74, 100
7, 224, Note_on_c, 3, 74, 0
7, 225, Note_on_c, 3, 76, 100
7, 239, Note_on_c, 3, 76, 0
7, 240, Note_on_c, 3, 78, 100
7, 254, Note_on_c, 3, 78, 0
7, 255, Note_on_c, 3, 76, 100
7, 269, Note_on_c, 3, 76, 0
7, 270, Note_on_c, 3, 78, 100
7, 284, Note_on_c, 3, 78, 0
7, 285, Note_on_c, 3, 76, 100
7, 299, Note_on_c, 3, 76, 0
7, 300, Note_on_c, 3, 78, 100
7, 314, Note_on_c, 3, 78, 0
7, 315, Note_on_c, 3, 76, 100
7, 329, Note_on_c, 3, 76, 0
7, 330, Note_on_c, 3, 74, 100
7, 344, Note_on_c, 3, 74, 0
7, 345, Note_on_c, 3, 76, 100
7, 359, Note_on_c, 3, 76, 0
7, 360, Note_on_c, 3, 78, 100
7, 419, Note_on_c, 3, 78, 0
7, 735, Note_on_c, 3, 86, 100
7, 749, Note_on_c, 3, 86, 0
7, 750, Note_on_c, 3, 85, 100
7, 764, Note_on_c, 3, 85, 0
7, 765, Note_on_c, 3, 83, 100
7, 779, Note_on_c, 3, 83, 0
7, 780, Note_on_c, 3, 81, 100
7, 794, Note_on_c, 3, 81, 0
7, 795, Note_on_c, 3, 86, 100
7, 809, Note_on_c, 3, 86, 0
7, 810, Note_on_c, 3, 85, 100
7, 824, Note_on_c, 3, 85, 0
7, 825, Note_on_c, 3, 83, 100
7, 839, Note_on_c, 3, 83, 0
7, 840, Note_on_c, 3, 81, 100
7, 854, Note_on_c, 3, 81, 0
7, 855, Note_on_c, 3, 79, 100
7, 869, Note_on_c, 3, 79, 0
7, 870, Note_on_c, 3, 78, 100
7, 884, Note_on_c, 3, 78, 0
7, 885, Note_on_c, 3, 76, 100
7, 899, Note_on_c, 3, 76, 0
7, 900, Note_on_c, 3, 74, 110
7, 1500, Note_on_c, 3, 74, 0
7, 1500, Note_on_c, 3, 74, 110
7, 1530, Note_on_c, 3, 74, 0
7, 1560, Note_on_c, 3, 74, 110
7, 1590, Note_on_c, 3, 74, 0
7, 1620, Note_on_c, 3, 74, 110
7, 1680, Note_on_c, 3, 74, 0
7, 1680, Note_on_c, 3, 73, 110
7, 1710, Note_on_c, 3, 73, 0
7, 1710, Note_on_c, 3, 71, 110
7, 1740, Note_on_c, 3, 71, 0
7, 1740, Note_on_c, 3, 73, 110
7, 1800, Note_on_c, 3, 73, 0
7, 2460, Note_on_c, 3, 79, 100
7, 2519, Note_on_c, 3, 79, 0
7, 2520, Note_on_c, 3, 78, 100
7, 2579, Note_on_c, 3, 78, 0
7, 2580, Note_on_c, 3, 76, 100
7, 2639, Note_on_c, 3, 76, 0
7, 2640, Note_on_c, 3, 74, 100
7, 2699, Note_on_c, 3, 74, 0
7, 2700, Note_on_c, 3, 81, 100
7, 2819, Note_on_c, 3, 81, 0
7, 2820, Note_on_c, 3, 76, 100
7, 2879, Note_on_c, 3, 76, 0
7, 2880, Note_on_c, 3, 75, 100
7, 2909, Note_on_c, 3, 75, 0
7, 2910, Note_on_c, 3, 78, 100
7, 2939, Note_on_c, 3, 78, 0
7, 2940, Note_on_c, 3, 81, 100
7, 3059, Note_on_c, 3, 81, 0
7, 3060, Note_on_c, 3, 72, 100
7, 3074, Note_on_c, 3, 72, 0
7, 3075, Note_on_c, 3, 71, 100
7, 3089, Note_on_c, 3, 71, 0
7, 3090, Note_on_c, 3, 69, 100
7, 3119, Note_on_c, 3, 69, 0
7, 3120, Note_on_c, 3, 69, 100
7, 3149, Note_on_c, 3, 69, 0
7, 3150, Note_on_c, 3, 71, 100
7, 3270, Note_on_c, 3, 71, 0
7, 3270, Note_on_c, 3, 73, 100
7, 3284, Note_on_c, 3, 73, 0
7, 3285, Note_on_c, 3, 75, 100
7, 3299, Note_on_c, 3, 75, 0
7, 3300, Note_on_c, 3, 76, 100
7, 3329, Note_on_c, 3, 76, 0
7, 3330, Note_on_c, 3, 78, 100
7, 3344, Note_on_c, 3, 78, 0
7, 3345, Note_on_c, 3, 80, 100
7, 3359, Note_on_c, 3, 80, 0
7, 3360, Note_on_c, 3, 81, 100
7, 3449, Note_on_c, 3, 81, 0
7, 3450, Note_on_c, 3, 79, 100
7, 3464, Note_on_c, 3, 79, 0
7, 3465, Note_on_c, 3, 78, 100
7, 3479, Note_on_c, 3, 78, 0
7, 3480, Note_on_c, 3, 79, 100
7, 3509, Note_on_c, 3, 79, 0
7, 3510, Note_on_c, 3, 78, 100
7, 3524, Note_on_c, 3, 78, 0
7, 3525, Note_on_c, 3, 76, 100
7, 3539, Note_on_c, 3, 76, 0
7, 3540, Note_on_c, 3, 79, 100
7, 3569, Note_on_c, 3, 79, 0
7, 3570, Note_on_c, 3, 76, 100
7, 3584, Note_on_c, 3, 76, 0
7, 3585, Note_on_c, 3, 78, 100
7, 3599, Note_on_c, 3, 78, 0
7, 3600, Note_on_c, 3, 79, 100
7, 3629, Note_on_c, 3, 79, 0
7, 3630, Note_on_c, 3, 79, 100
7, 3644, Note_on_c, 3, 79, 0
7, 3645, Note_on_c, 3, 78, 100
7, 3659, Note_on_c, 3, 78, 0
7, 3660, Note_on_c, 3, 76, 100
7, 3689, Note_on_c, 3, 76, 0
7, 3690, Note_on_c, 3, 79, 100
7, 3704, Note_on_c, 3, 79, 0
7, 3705, Note_on_c, 3, 78, 100
7, 3719, Note_on_c, 3, 78, 0
7, 3720, Note_on_c, 3, 76, 100
7, 3809, Note_on_c, 3, 76, 0
7, 3810, Note_on_c, 3, 73, 100
7, 3824, Note_on_c, 3, 73, 0
7, 3825, Note_on_c, 3, 74, 100
7, 3839, Note_on_c, 3, 74, 0
7, 3840, Note_on_c, 3, 76, 100
7, 3869, Note_on_c, 3, 76, 0
7, 3870, Note_on_c, 3, 73, 100
7, 3884, Note_on_c, 3, 73, 0
7, 3885, Note_on_c, 3, 74, 100
7, 3899, Note_on_c, 3, 74, 0
7, 3900, Note_on_c, 3, 76, 100
7, 3989, Note_on_c, 3, 76, 0
7, 3990, Note_on_c, 3, 78, 100
7, 4004, Note_on_c, 3, 78, 0
7, 4005, Note_on_c, 3, 79, 100
7, 4019, Note_on_c, 3, 79, 0
7, 4020, Note_on_c, 3, 81, 100
7, 4049, Note_on_c, 3, 81, 0
7, 4050, Note_on_c, 3, 79, 100
7, 4064, Note_on_c, 3, 79, 0
7, 4065, Note_on_c, 3, 78, 100
7, 4079, Note_on_c, 3, 78, 0
7, 4080, Note_on_c, 3, 79, 100
7, 4109, Note_on_c, 3, 79, 0
7, 4110, Note_on_c, 3, 78, 100
7, 4124, Note_on_c, 3, 78, 0
7, 4125, Note_on_c, 3, 76, 100
7, 4139, Note_on_c, 3, 76, 0
7, 4140, Note_on_c, 3, 78, 100
7, 4169, Note_on_c, 3, 78, 0
7, 4170, Note_on_c, 3, 78, 100
7, 4184, Note_on_c, 3, 78, 0
7, 4185, Note_on_c, 3, 76, 100
7, 4199, Note_on_c, 3, 76, 0
7, 4200, Note_on_c, 3, 74, 100
7, 4229, Note_on_c, 3, 74, 0
7, 4230, Note_on_c, 3, 78, 100
7, 4244, Note_on_c, 3, 78, 0
7, 4245, Note_on_c, 3, 76, 100
7, 4259, Note_on_c, 3, 76, 0
7, 4260, Note_on_c, 3, 74, 100
7, 4349, Note_on_c, 3, 74, 0
7, 4350, Note_on_c, 3, 83, 100
7, 4364, Note_on_c, 3, 83, 0
7, 4380, Note_on_c, 3, 83, 100
7, 4394, Note_on_c, 3, 83, 0
7, 4410, Note_on_c, 3, 78, 100
7, 4424, Note_on_c, 3, 78, 0
7, 4440, Note_on_c, 3, 78, 100
7, 4454, Note_on_c, 3, 78, 0
7, 4470, Note_on_c, 3, 74, 100
7, 4484, Note_on_c, 3, 74, 0
7, 4500, Note_on_c, 3, 74, 100
7, 4514, Note_on_c, 3, 74, 0
7, 4515, Note_on_c, 3, 78, 100
7, 4529, Note_on_c, 3, 78, 0
7, 4530, Note_on_c, 3, 80, 100
7, 4544, Note_on_c, 3, 80, 0
7, 4545, Note_on_c, 3, 81, 100
7, 4559, Note_on_c, 3, 81, 0
7, 4560, Note_on_c, 3, 83, 100
7, 4574, Note_on_c, 3, 83, 0
7, 4575, Note_on_c, 3, 85, 100
7, 4589, Note_on_c, 3, 85, 0
7, 4590, Note_on_c, 3, 83, 100
7, 4604, Note_on_c, 3, 83, 0
7, 4605, Note_on_c, 3, 81, 100
7, 4619, Note_on_c, 3, 81, 0
7, 4620, Note_on_c, 3, 80, 100
7, 4634, Note_on_c, 3, 80, 0
7, 4635, Note_on_c, 3, 78, 100
7, 4649, Note_on_c, 3, 78, 0
7, 4650, Note_on_c, 3, 76, 100
7, 4664, Note_on_c, 3, 76, 0
7, 4665, Note_on_c, 3, 74, 100
7, 4679, Note_on_c, 3, 74, 0
7, 4680, Note_on_c, 3, 73, 100
7, 4694, Note_on_c, 3, 73, 0
7, 4710, Note_on_c, 3, 81, 100
7, 4724, Note_on_c, 3, 81, 0
7, 4740, Note_on_c, 3, 81, 100
7, 4754, Note_on_c, 3, 81, 0
7, 4770, Note_on_c, 3, 76, 100
7, 4784, Note_on_c, 3, 76, 0
7, 4800, Note_on_c, 3, 76, 100
7, 4814, Note_on_c, 3, 76, 0
7, 4830, Note_on_c, 3, 72, 100
7, 4844, Note_on_c, 3, 72, 0
7, 4860, Note_on_c, 3, 72, 100
7, 4874, Note_on_c, 3, 72, 0
7, 4875, Note_on_c, 3, 76, 100
7, 4889, Note_on_c, 3, 76, 0
7, 4890, Note_on_c, 3, 78, 100
7, 4904, Note_on_c, 3, 78, 0
7, 4905, Note_on_c, 3, 79, 100
7, 4919, Note_on_c, 3, 79, 0
7, 4920, Note_on_c, 3, 81, 100
7, 4934, Note_on_c, 3, 81, 0
7, 4935, Note_on_c, 3, 83, 100
7, 4949, Note_on_c, 3, 83, 0
7, 4950, Note_on_c, 3, 81, 100
7, 4964, Note_on_c, 3, 81, 0
7, 4965, Note_on_c, 3, 79, 100
7, 4979, Note_on_c, 3, 79, 0
7, 4980, Note_on_c, 3, 78, 100
7, 4994, Note_on_c, 3, 78, 0
7, 4995, Note_on_c, 3, 76, 100
7, 5009, Note_on_c, 3, 76, 0
7, 5010, Note_on_c, 3, 74, 100
7, 5024, Note_on_c, 3, 74, 0
7, 5025, Note_on_c, 3, 72, 100
7, 5039, Note_on_c, 3, 72, 0
7, 5040, Note_on_c, 3, 71, 100
7, 5054, Note_on_c, 3, 71, 0
7, 5055, Note_on_c, 3, 67, 100
7, 5069, Note_on_c, 3, 67, 0
7, 5070, Note_on_c, 3, 69, 100
7, 5084, Note_on_c, 3, 69, 0
7, 5085, Note_on_c, 3, 71, 100
7, 5099, Note_on_c, 3, 71, 0
7, 5100, Note_on_c, 3, 73, 100
7, 5114, Note_on_c, 3, 73, 0
7, 5115, Note_on_c, 3, 69, 100
7, 5129, Note_on_c, 3, 69, 0
7, 5130, Note_on_c, 3, 71, 100
7, 5144, Note_on_c, 3, 71, 0
7, 5145, Note_on_c, 3, 73, 100
7, 5159, Note_on_c, 3, 73, 0
7, 5160, Note_on_c, 3, 74, 100
7, 5174, Note_on_c, 3, 74, 0
7, 5175, Note_on_c, 3, 71, 100
7, 5189, Note_on_c, 3, 71, 0
7, 5190, Note_on_c, 3, 73, 100
7, 5204, Note_on_c, 3, 73, 0
7, 5205, Note_on_c, 3, 74, 100
7, 5219, Note_on_c, 3, 74, 0
7, 5220, Note_on_c, 3, 76, 100
7, 5234, Note_on_c, 3, 76, 0
7, 5235, Note_on_c, 3, 73, 100
7, 5249, Note_on_c, 3, 73, 0
7, 5250, Note_on_c, 3, 74, 100
7, 5264, Note_on_c, 3, 74, 0
7, 5265, Note_on_c, 3, 76, 100
7, 5279, Note_on_c, 3, 76, 0
7, 5280, Note_on_c, 3, 78, 100
7, 5294, Note_on_c, 3, 78, 0
7, 5295, Note_on_c, 3, 74, 100
7, 5309, Note_on_c, 3, 74, 0
7, 5310, Note_on_c, 3, 76, 100
7, 5324, Note_on_c, 3, 76, 0
7, 5325, Note_on_c, 3, 78, 100
7, 5339, Note_on_c, 3, 78, 0
7, 5340, Note_on_c, 3, 79, 100
7, 5354, Note_on_c, 3, 79, 0
7, 5355, Note_on_c, 3, 76, 100
7, 5369, Note_on_c, 3, 76, 0
7, 5370, Note_on_c, 3, 78, 100
7, 5384, Note_on_c, 3, 78, 0
7, 5385, Note_on_c, 3, 79, 100
7, 5399, Note_on_c, 3, 79, 0
7, 5400, Note_on_c, 3, 81, 100
7, 5414, Note_on_c, 3, 81, 0
7, 5415, Note_on_c, 3, 78, 100
7, 5429, Note_on_c, 3, 78, 0
7, 5430, Note_on_c, 3, 79, 100
7, 5444, Note_on_c, 3, 79, 0
7, 5445, Note_on_c, 3, 81, 100
7, 5459, Note_on_c, 3, 81, 0
7, 5460, Note_on_c, 3, 83, 100
7, 5474, Note_on_c, 3, 83, 0
7, 5475, Note_on_c, 3, 79, 100
7, 5489, Note_on_c, 3, 79, 0
7, 5490, Note_on_c, 3, 81, 100
7, 5504, Note_on_c, 3, 81, 0
7, 5505, Note_on_c, 3, 83, 100
7, 5519, Note_on_c, 3, 83, 0
7, 5520, Note_on_c, 3, 85, 100
7, 5534, Note_on_c, 3, 85, 0
7, 5535, Note_on_c, 3, 81, 100
7, 5549, Note_on_c, 3, 81, 0
7, 5550, Note_on_c, 3, 83, 100
7, 5564, Note_on_c, 3, 83, 0
7, 5565, Note_on_c, 3, 85, 100
7, 5579, Note_on_c, 3, 85, 0
7, 5580, Note_on_c, 3, 86, 100
7, 5609, Note_on_c, 3, 86, 0
7, 5640, Note_on_c, 3, 69, 100
7, 5669, Note_on_c, 3, 69, 0
7, 5700, Note_on_c, 3, 73, 100
7, 5729, Note_on_c, 3, 73, 0
7, 5760, Note_on_c, 3, 74, 100
7, 5819, Note_on_c, 3, 74, 0
7, 6690, Note_on_c, 3, 74, 100
7, 6704, Note_on_c, 3, 74, 0
7, 6705, Note_on_c, 3, 76, 100
7, 6719, Note_on_c, 3, 76, 0
7, 6720, Note_on_c, 3, 78, 100
7, 6734, Note_on_c, 3, 78, 0
7, 6735, Note_on_c, 3, 76, 100
7, 6749, Note_on_c, 3, 76, 0
7, 6750, Note_on_c, 3, 78, 100
7, 6764, Note_on_c, 3, 78, 0
7, 6765, Note_on_c, 3, 76, 100
7, 6779, Note_on_c, 3, 76, 0
7, 6780, Note_on_c, 3, 78, 100
7, 6794, Note_on_c, 3, 78, 0
7, 6795, Note_on_c, 3, 76, 100
7, 6809, Note_on_c, 3, 76, 0
7, 6810, Note_on_c, 3, 74, 100
7, 6824, Note_on_c, 3, 74, 0
7, 6825, Note_on_c, 3, 76, 100
7, 6839, Note_on_c, 3, 76, 0
7, 6840, Note_on_c, 3, 78, 100
7, 6854, Note_on_c, 3, 78, 0
7, 6855, Note_on_c, 3, 86, 100
7, 6869, Note_on_c, 3, 86, 0
7, 6870, Note_on_c, 3, 85, 100
7, 6884, Note_on_c, 3, 85, 0
7, 6885, Note_on_c, 3, 83, 100
7, 6899, Note_on_c, 3, 83, 0
7, 6900, Note_on_c, 3, 81, 100
7, 6914, Note_on_c, 3, 81, 0
7, 6915, Note_on_c, 3, 86, 100
7, 6929, Note_on_c, 3, 86, 0
7, 6930, Note_on_c, 3, 85, 100
7, 6944, Note_on_c, 3, 85, 0
7, 6945, Note_on_c, 3, 83, 100
7, 6959, Note_on_c, 3, 83, 0
7, 6960, Note_on_c, 3, 81, 100
7, 6974, Note_on_c, 3, 81, 0
7, 6975, Note_on_c, 3, 79, 100
7, 6989, Note_on_c, 3, 79, 0
7, 6990, Note_on_c, 3, 78, 100
7, 7004, Note_on_c, 3, 78, 0
7, 7005, Note_on_c, 3, 76, 100
7, 7019, Note_on_c, 3, 76, 0
7, 7020, Note_on_c, 3, 74, 100
7, 7620, Note_on_c, 3, 74, 0
7, 7620, Note_on_c, 3, 74, 100
7, 7650, Note_on_c, 3, 74, 0
7, 7680, Note_on_c, 3, 74, 100
7, 7710, Note_on_c, 3, 74, 0
7, 7740, Note_on_c, 3, 74, 100
7, 7800, Note_on_c, 3, 74, 0
7, 7800, Note_on_c, 3, 73, 100
7, 7830, Note_on_c, 3, 73, 0
7, 7830, Note_on_c, 3, 71, 100
7, 7860, Note_on_c, 3, 71, 0
7, 7860, Note_on_c, 3, 73, 100
7, 7920, Note_on_c, 3, 73, 0
7, 8580, Note_on_c, 3, 79, 100
7, 8640, Note_on_c, 3, 79, 0
7, 8640, Note_on_c, 3, 78, 100
7, 8700, Note_on_c, 3, 78, 0
7, 8700, Note_on_c, 3, 76, 100
7, 8760, Note_on_c, 3, 76, 0
7, 8760, Note_on_c, 3, 74, 100
7, 8820, Note_on_c, 3, 74, 0
7, 8820, Note_on_c, 3, 81, 100
7, 8940, Note_on_c, 3, 81, 0
7, 9420, Note_on_c, 3, 71, 100
7, 9449, Note_on_c, 3, 71, 0
7, 9450, Note_on_c, 3, 73, 100
7, 9479, Note_on_c, 3, 73, 0
7, 9480, Note_on_c, 3, 74, 100
7, 9494, Note_on_c, 3, 74, 0
7, 9495, Note_on_c, 3, 73, 100
7, 9509, Note_on_c, 3, 73, 0
7, 9510, Note_on_c, 3, 71, 100
7, 9524, Note_on_c, 3, 71, 0
7, 9525, Note_on_c, 3, 73, 100
7, 9539, Note_on_c, 3, 73, 0
7, 9540, Note_on_c, 3, 74, 100
7, 9569, Note_on_c, 3, 74, 0
7, 9570, Note_on_c, 3, 73, 100
7, 9599, Note_on_c, 3, 73, 0
7, 9600, Note_on_c, 3, 74, 100
7, 9629, Note_on_c, 3, 74, 0
7, 9630, Note_on_c, 3, 76, 100
7, 9659, Note_on_c, 3, 76, 0
7, 9660, Note_on_c, 3, 78, 100
7, 9674, Note_on_c, 3, 78, 0
7, 9675, Note_on_c, 3, 76, 100
7, 9689, Note_on_c, 3, 76, 0
7, 9690, Note_on_c, 3, 74, 100
7, 9704, Note_on_c, 3, 74, 0
7, 9705, Note_on_c, 3, 76, 100
7, 9719, Note_on_c, 3, 76, 0
7, 9720, Note_on_c, 3, 78, 100
7, 9749, Note_on_c, 3, 78, 0
7, 9750, Note_on_c, 3, 76, 100
7, 9779, Note_on_c, 3, 76, 0
7, 9780, Note_on_c, 3, 78, 100
7, 9809, Note_on_c, 3, 78, 0
7, 9810, Note_on_c, 3, 80, 100
7, 9839, Note_on_c, 3, 80, 0
7, 9840, Note_on_c, 3, 81, 100
7, 9854, Note_on_c, 3, 81, 0
7, 9855, Note_on_c, 3, 80, 100
7, 9869, Note_on_c, 3, 80, 0
7, 9870, Note_on_c, 3, 78, 100
7, 9884, Note_on_c, 3, 78, 0
7, 9885, Note_on_c, 3, 80, 100
7, 9899, Note_on_c, 3, 80, 0
7, 9900, Note_on_c, 3, 81, 100
7, 9929, Note_on_c, 3, 81, 0
7, 9930, Note_on_c, 3, 76, 100
7, 9959, Note_on_c, 3, 76, 0
7, 9960, Note_on_c, 3, 73, 100
7, 9989, Note_on_c, 3, 73, 0
7, 9990, Note_on_c, 3, 81, 100
7, 10019, Note_on_c, 3, 81, 0
7, 10020, Note_on_c, 3, 71, 100
7, 10049, Note_on_c, 3, 71, 0
7, 10050, Note_on_c, 3, 80, 100
7, 10079, Note_on_c, 3, 80, 0
7, 10080, Note_on_c, 3, 69, 100
7, 10199, Note_on_c, 3, 69, 0
7, 10320, Note_on_c, 3, 67, 100
7, 10349, Note_on_c, 3, 67, 0
7, 10350, Note_on_c, 3, 69, 100
7, 10379, Note_on_c, 3, 69, 0
7, 10380, Note_on_c, 3, 71, 100
7, 10394, Note_on_c, 3, 71, 0
7, 10395, Note_on_c, 3, 69, 100
7, 10409, Note_on_c, 3, 69, 0
7, 10410, Note_on_c, 3, 67, 100
7, 10424, Note_on_c, 3, 67, 0
7, 10425, Note_on_c, 3, 69, 100
7, 10439, Note_on_c, 3, 69, 0
7, 10440, Note_on_c, 3, 71, 100
7, 10529, Note_on_c, 3, 71, 0
7, 10530, Note_on_c, 3, 73, 100
7, 10559, Note_on_c, 3, 73, 0
7, 10560, Note_on_c, 3, 74, 100
7, 10574, Note_on_c, 3, 74, 0
7, 10575, Note_on_c, 3, 73, 100
7, 10589, Note_on_c, 3, 73, 0
7, 10590, Note_on_c, 3, 71, 100
7, 10604, Note_on_c, 3, 71, 0
7, 10605, Note_on_c, 3, 73, 100
7, 10619, Note_on_c, 3, 73, 0
7, 10620, Note_on_c, 3, 74, 100
7, 10649, Note_on_c, 3, 74, 0
7, 10680, Note_on_c, 3, 74, 100
7, 10709, Note_on_c, 3, 74, 0
7, 10740, Note_on_c, 3, 73, 100
7, 10769, Note_on_c, 3, 73, 0
7, 10800, Note_on_c, 3, 74, 100
7, 10829, Note_on_c, 3, 74, 0
7, 10830, Note_on_c, 3, 73, 100
7, 10859, Note_on_c, 3, 73, 0
7, 10860, Note_on_c, 3, 74, 100
7, 10889, Note_on_c, 3, 74, 0
7, 10890, Note_on_c, 3, 78, 100
7, 10919, Note_on_c, 3, 78, 0
7, 10920, Note_on_c, 3, 76, 100
7, 10949, Note_on_c, 3, 76, 0
7, 10950, Note_on_c, 3, 74, 100
7, 10979, Note_on_c, 3, 74, 0
7, 10980, Note_on_c, 3, 73, 100
7, 11009, Note_on_c, 3, 73, 0
7, 11010, Note_on_c, 3, 71, 100
7, 11039, Note_on_c, 3, 71, 0
7, 11040, Note_on_c, 3, 73, 100
7, 11069, Note_on_c, 3, 73, 0
7, 11070, Note_on_c, 3, 76, 100
7, 11099, Note_on_c, 3, 76, 0
7, 11100, Note_on_c, 3, 75, 100
7, 11129, Note_on_c, 3, 75, 0
7, 11130, Note_on_c, 3, 78, 100
7, 11159, Note_on_c, 3, 78, 0
7, 11160, Note_on_c, 3, 76, 100
7, 11189, Note_on_c, 3, 76, 0
7, 11190, Note_on_c, 3, 75, 100
7, 11219, Note_on_c, 3, 75, 0
7, 11220, Note_on_c, 3, 76, 100
7, 11249, Note_on_c, 3, 76, 0
7, 11250, Note_on_c, 3, 78, 100
7, 11279, Note_on_c, 3, 78, 0
7, 11280, Note_on_c, 3, 79, 100
7, 11294, Note_on_c, 3, 79, 0
7, 11295, Note_on_c, 3, 78, 100
7, 11309, Note_on_c, 3, 78, 0
7, 11310, Note_on_c, 3, 76, 100
7, 11324, Note_on_c, 3, 76, 0
7, 11325, Note_on_c, 3, 78, 100
7, 11339, Note_on_c, 3, 78, 0
7, 11340, Note_on_c, 3, 79, 100
7, 11369, Note_on_c, 3, 79, 0
7, 11370, Note_on_c, 3, 78, 100
7, 11399, Note_on_c, 3, 78, 0
7, 11400, Note_on_c, 3, 76, 100
7, 11429, Note_on_c, 3, 76, 0
7, 11430, Note_on_c, 3, 74, 100
7, 11459, Note_on_c, 3, 74, 0
7, 11460, Note_on_c, 3, 73, 100
7, 11489, Note_on_c, 3, 73, 0
7, 11490, Note_on_c, 3, 71, 100
7, 11519, Note_on_c, 3, 71, 0
7, 11520, Note_on_c, 3, 70, 100
7, 11549, Note_on_c, 3, 70, 0
7, 11550, Note_on_c, 3, 73, 100
7, 11579, Note_on_c, 3, 73, 0
7, 11580, Note_on_c, 3, 76, 100
7, 11699, Note_on_c, 3, 76, 0
7, 11700, Note_on_c, 3, 67, 100
7, 11714, Note_on_c, 3, 67, 0
7, 11715, Note_on_c, 3, 66, 100
7, 11729, Note_on_c, 3, 66, 0
7, 11730, Note_on_c, 3, 64, 100
7, 11759, Note_on_c, 3, 64, 0
7, 11760, Note_on_c, 3, 64, 100
7, 11789, Note_on_c, 3, 64, 0
7, 11790, Note_on_c, 3, 66, 100
7, 11909, Note_on_c, 3, 66, 0
7, 11910, Note_on_c, 3, 68, 100
7, 11924, Note_on_c, 3, 68, 0
7, 11925, Note_on_c, 3, 70, 100
7, 11939, Note_on_c, 3, 70, 0
7, 11940, Note_on_c, 3, 71, 100
7, 11969, Note_on_c, 3, 71, 0
7, 11970, Note_on_c, 3, 73, 100
7, 11984, Note_on_c, 3, 73, 0
7, 11985, Note_on_c, 3, 75, 100
7, 11999, Note_on_c, 3, 75, 0
7, 12000, Note_on_c, 3, 76, 100
7, 12089, Note_on_c, 3, 76, 0
7, 12090, Note_on_c, 3, 74, 100
7, 12104, Note_on_c, 3, 74, 0
7, 12105, Note_on_c, 3, 73, 100
7, 12119, Note_on_c, 3, 73, 0
7, 12120, Note_on_c, 3, 74, 100
7, 12149, Note_on_c, 3, 74, 0
7, 12150, Note_on_c, 3, 73, 100
7, 12164, Note_on_c, 3, 73, 0
7, 12165, Note_on_c, 3, 71, 100
7, 12179, Note_on_c, 3, 71, 0
7, 12180, Note_on_c, 3, 74, 100
7, 12209, Note_on_c, 3, 74, 0
7, 12210, Note_on_c, 3, 71, 100
7, 12224, Note_on_c, 3, 71, 0
7, 12225, Note_on_c, 3, 73, 100
7, 12239, Note_on_c, 3, 73, 0
7, 12240, Note_on_c, 3, 74, 100
7, 12269, Note_on_c, 3, 74, 0
7, 12270, Note_on_c, 3, 74, 100
7, 12284, Note_on_c, 3, 74, 0
7, 12285, Note_on_c, 3, 73, 100
7, 12299, Note_on_c, 3, 73, 0
7, 12300, Note_on_c, 3, 71, 100
7, 12329, Note_on_c, 3, 71, 0
7, 12330, Note_on_c, 3, 74, 100
7, 12344, Note_on_c, 3, 74, 0
7, 12345, Note_on_c, 3, 73, 100
7, 12359, Note_on_c, 3, 73, 0
7, 12360, Note_on_c, 3, 71, 100
7, 12449, Note_on_c, 3, 71, 0
7, 12450, Note_on_c, 3, 68, 100
7, 12464, Note_on_c, 3, 68, 0
7, 12465, Note_on_c, 3, 69, 100
7, 12479, Note_on_c, 3, 69, 0
7, 12480, Note_on_c, 3, 71, 100
7, 12509, Note_on_c, 3, 71, 0
7, 12510, Note_on_c, 3, 68, 100
7, 12524, Note_on_c, 3, 68, 0
7, 12525, Note_on_c, 3, 69, 100
7, 12539, Note_on_c, 3, 69, 0
7, 12540, Note_on_c, 3, 71, 100
7, 12629, Note_on_c, 3, 71, 0
7, 12630, Note_on_c, 3, 73, 100
7, 12644, Note_on_c, 3, 73, 0
7, 12645, Note_on_c, 3, 74, 100
7, 12659, Note_on_c, 3, 74, 0
7, 12660, Note_on_c, 3, 76, 100
7, 12689, Note_on_c, 3, 76, 0
7, 12690, Note_on_c, 3, 74, 100
7, 12704, Note_on_c, 3, 74, 0
7, 12705, Note_on_c, 3, 73, 100
7, 12719, Note_on_c, 3, 73, 0
7, 12720, Note_on_c, 3, 74, 100
7, 12749, Note_on_c, 3, 74, 0
7, 12750, Note_on_c, 3, 73, 100
7, 12764, Note_on_c, 3, 73, 0
7, 12765, Note_on_c, 3, 71, 100
7, 12779, Note_on_c, 3, 71, 0
7, 12780, Note_on_c, 3, 73, 100
7, 12809, Note_on_c, 3, 73, 0
7, 12810, Note_on_c, 3, 73, 100
7, 12824, Note_on_c, 3, 73, 0
7, 12825, Note_on_c, 3, 71, 100
7, 12839, Note_on_c, 3, 71, 0
7, 12840, Note_on_c, 3, 69, 100
7, 12869, Note_on_c, 3, 69, 0
7, 12870, Note_on_c, 3, 73, 100
7, 12884, Note_on_c, 3, 73, 0
7, 12885, Note_on_c, 3, 71, 100
7, 12899, Note_on_c, 3, 71, 0
7, 12900, Note_on_c, 3, 69, 100
7, 12989, Note_on_c, 3, 69, 0
7, 12990, Note_on_c, 3, 78, 100
7, 13005, Note_on_c, 3, 78, 0
7, 13020, Note_on_c, 3, 78, 100
7, 13035, Note_on_c, 3, 78, 0
7, 13050, Note_on_c, 3, 73, 100
7, 13065, Note_on_c, 3, 73, 0
7, 13080, Note_on_c, 3, 73, 100
7, 13095, Note_on_c, 3, 73, 0
7, 13110, Note_on_c, 3, 69, 100
7, 13125, Note_on_c, 3, 69, 0
7, 13140, Note_on_c, 3, 69, 100
7, 13154, Note_on_c, 3, 69, 0
7, 13155, Note_on_c, 3, 73, 100
7, 13169, Note_on_c, 3, 73, 0
7, 13170, Note_on_c, 3, 75, 100
7, 13184, Note_on_c, 3, 75, 0
7, 13185, Note_on_c, 3, 76, 100
7, 13199, Note_on_c, 3, 76, 0
7, 13200, Note_on_c, 3, 78, 100
7, 13214, Note_on_c, 3, 78, 0
7, 13215, Note_on_c, 3, 80, 100
7, 13229, Note_on_c, 3, 80, 0
7, 13230, Note_on_c, 3, 78, 100
7, 13244, Note_on_c, 3, 78, 0
7, 13245, Note_on_c, 3, 76, 100
7, 13259, Note_on_c, 3, 76, 0
7, 13260, Note_on_c, 3, 75, 100
7, 13274, Note_on_c, 3, 75, 0
7, 13275, Note_on_c, 3, 73, 100
7, 13289, Note_on_c, 3, 73, 0
7, 13290, Note_on_c, 3, 71, 100
7, 13304, Note_on_c, 3, 71, 0
7, 13305, Note_on_c, 3, 69, 100
7, 13319, Note_on_c, 3, 69, 0
7, 13320, Note_on_c, 3, 68, 100
7, 13334, Note_on_c, 3, 68, 0
7, 13350, Note_on_c, 3, 76, 100
7, 13364, Note_on_c, 3, 76, 0
7, 13380, Note_on_c, 3, 76, 100
7, 13394, Note_on_c, 3, 76, 0
7, 13410, Note_on_c, 3, 71, 100
7, 13424, Note_on_c, 3, 71, 0
7, 13440, Note_on_c, 3, 71, 100
7, 13454, Note_on_c, 3, 71, 0
7, 13470, Note_on_c, 3, 67, 100
7, 13484, Note_on_c, 3, 67, 0
7, 13500, Note_on_c, 3, 67, 100
7, 13514, Note_on_c, 3, 67, 0
7, 13515, Note_on_c, 3, 71, 100
7, 13529, Note_on_c, 3, 71, 0
7, 13530, Note_on_c, 3, 73, 100
7, 13544, Note_on_c, 3, 73, 0
7, 13545, Note_on_c, 3, 74, 100
7, 13559, Note_on_c, 3, 74, 0
7, 13560, Note_on_c, 3, 76, 100
7, 13574, Note_on_c, 3, 76, 0
7, 13575, Note_on_c, 3, 78, 100
7, 13589, Note_on_c, 3, 78, 0
7, 13590, Note_on_c, 3, 76, 100
7, 13604, Note_on_c, 3, 76, 0
7, 13605, Note_on_c, 3, 74, 100
7, 13619, Note_on_c, 3, 74, 0
7, 13620, Note_on_c, 3, 73, 100
7, 13634, Note_on_c, 3, 73, 0
7, 13635, Note_on_c, 3, 71, 100
7, 13649, Note_on_c, 3, 71, 0
7, 13650, Note_on_c, 3, 69, 100
7, 13664, Note_on_c, 3, 69, 0
7, 13665, Note_on_c, 3, 67, 100
7, 13679, Note_on_c, 3, 67, 0
7, 13680, Note_on_c, 3, 66, 100
7, 13694, Note_on_c, 3, 66, 0
7, 13695, Note_on_c, 3, 62, 100
7, 13709, Note_on_c, 3, 62, 0
7, 13710, Note_on_c, 3, 64, 100
7, 13724, Note_on_c, 3, 64, 0
7, 13725, Note_on_c, 3, 66, 100
7, 13739, Note_on_c, 3, 66, 0
7, 13740, Note_on_c, 3, 68, 100
7, 13754, Note_on_c, 3, 68, 0
7, 13755, Note_on_c, 3, 64, 100
7, 13769, Note_on_c, 3, 64, 0
7, 13770, Note_on_c, 3, 66, 100
7, 13784, Note_on_c, 3, 66, 0
7, 13785, Note_on_c, 3, 68, 100
7, 13799, Note_on_c, 3, 68, 0
7, 13800, Note_on_c, 3, 69, 100
7, 13814, Note_on_c, 3, 69, 0
7, 13815, Note_on_c, 3, 66, 100
7, 13829, Note_on_c, 3, 66, 0
7, 13830, Note_on_c, 3, 68, 100
7, 13844, Note_on_c, 3, 68, 0
7, 13845, Note_on_c, 3, 69, 100
7, 13859, Note_on_c, 3, 69, 0
7, 13860, Note_on_c, 3, 71, 100
7, 13874, Note_on_c, 3, 71, 0
7, 13875, Note_on_c, 3, 68, 100
7, 13889, Note_on_c, 3, 68, 0
7, 13890, Note_on_c, 3, 69, 100
7, 13904, Note_on_c, 3, 69, 0
7, 13905, Note_on_c, 3, 71, 100
7, 13919, Note_on_c, 3, 71, 0
7, 13920, Note_on_c, 3, 73, 100
7, 13934, Note_on_c, 3, 73, 0
7, 13935, Note_on_c, 3, 69, 100
7, 13949, Note_on_c, 3, 69, 0
7, 13950, Note_on_c, 3, 71, 100
7, 13964, Note_on_c, 3, 71, 0
7, 13965, Note_on_c, 3, 73, 100
7, 13979, Note_on_c, 3, 73, 0
7, 13980, Note_on_c, 3, 74, 100
7, 13994, Note_on_c, 3, 74, 0
7, 13995, Note_on_c, 3, 71, 100
7, 14009, Note_on_c, 3, 71, 0
7, 14010, Note_on_c, 3, 73, 100
7, 14024, Note_on_c, 3, 73, 0
7, 14025, Note_on_c, 3, 74, 100
7, 14039, Note_on_c, 3, 74, 0
7, 14040, Note_on_c, 3, 76, 100
7, 14054, Note_on_c, 3, 76, 0
7, 14055, Note_on_c, 3, 73, 100
7, 14069, Note_on_c, 3, 73, 0
7, 14070, Note_on_c, 3, 74, 100
7, 14084, Note_on_c, 3, 74, 0
7, 14085, Note_on_c, 3, 76, 100
7, 14099, Note_on_c, 3, 76, 0
7, 14100, Note_on_c, 3, 78, 100
7, 14114, Note_on_c, 3, 78, 0
7, 14115, Note_on_c, 3, 74, 100
7, 14129, Note_on_c, 3, 74, 0
7, 14130, Note_on_c, 3, 76, 100
7, 14144, Note_on_c, 3, 76, 0
7, 14145, Note_on_c, 3, 78, 100
7, 14159, Note_on_c, 3, 78, 0
7, 14160, Note_on_c, 3, 80, 100
7, 14174, Note_on_c, 3, 80, 0
7, 14175, Note_on_c, 3, 76, 100
7, 14189, Note_on_c, 3, 76, 0
7, 14190, Note_on_c, 3, 78, 100
7, 14204, Note_on_c, 3, 78, 0
7, 14205, Note_on_c, 3, 80, 100
7, 14219, Note_on_c, 3, 80, 0
7, 14220, Note_on_c, 3, 81, 100
7, 14249, Note_on_c, 3, 81, 0
7, 14280, Note_on_c, 3, 83, 100
7, 14309, Note_on_c, 3, 83, 0
7, 14340, Note_on_c, 3, 80, 100
7, 14369, Note_on_c, 3, 80, 0
7, 14400, Note_on_c, 3, 81, 100
7, 14459, Note_on_c, 3, 81, 0
7, 15060, Note_on_c, 3, 73, 100
7, 15089, Note_on_c, 3, 73, 0
7, 15090, Note_on_c, 3, 74, 100
7, 15119, Note_on_c, 3, 74, 0
7, 15120, Note_on_c, 3, 76, 100
7, 15149, Note_on_c, 3, 76, 0
7, 15180, Note_on_c, 3, 76, 100
7, 15209, Note_on_c, 3, 76, 0
7, 15240, Note_on_c, 3, 76, 100
7, 15269, Note_on_c, 3, 76, 0
7, 15300, Note_on_c, 3, 76, 100
7, 15359, Note_on_c, 3, 76, 0
7, 15360, Note_on_c, 3, 74, 100
7, 15389, Note_on_c, 3, 74, 0
7, 15390, Note_on_c, 3, 73, 100
7, 15419, Note_on_c, 3, 73, 0
7, 15420, Note_on_c, 3, 74, 100
7, 15479, Note_on_c, 3, 74, 0
7, 15480, Note_on_c, 3, 81, 100
7, 15539, Note_on_c, 3, 81, 0
7, 15540, Note_on_c, 3, 79, 100
7, 15569, Note_on_c, 3, 79, 0
7, 15570, Note_on_c, 3, 78, 100
7, 15599, Note_on_c, 3, 78, 0
7, 15600, Note_on_c, 3, 76, 100
7, 15629, Note_on_c, 3, 76, 0
7, 15630, Note_on_c, 3, 74, 100
7, 15659, Note_on_c, 3, 74, 0
7, 15660, Note_on_c, 3, 73, 100
7, 15689, Note_on_c, 3, 73, 0
7, 15690, Note_on_c, 3, 71, 100
7, 15719, Note_on_c, 3, 71, 0
7, 15720, Note_on_c, 3, 69, 100
7, 15749, Note_on_c, 3, 69, 0
7, 15750, Note_on_c, 3, 67, 100
7, 15779, Note_on_c, 3, 67, 0
7, 15780, Note_on_c, 3, 66, 100
7, 15809, Note_on_c, 3, 66, 0
7, 15810, Note_on_c, 3, 64, 100
7, 15839, Note_on_c, 3, 64, 0
7, 15840, Note_on_c, 3, 62, 100
7, 15899, Note_on_c, 3, 62, 0
7, 16050, Note_on_c, 3, 74, 100
7, 16064, Note_on_c, 3, 74, 0
7, 16065, Note_on_c, 3, 76, 100
7, 16079, Note_on_c, 3, 76, 0
7, 16080, Note_on_c, 3, 78, 100
7, 16094, Note_on_c, 3, 78, 0
7, 16095, Note_on_c, 3, 76, 100
7, 16109, Note_on_c, 3, 76, 0
7, 16110, Note_on_c, 3, 78, 100
7, 16124, Note_on_c, 3, 78, 0
7, 16125, Note_on_c, 3, 76, 100
7, 16139, Note_on_c, 3, 76, 0
7, 16140, Note_on_c, 3, 78, 100
7, 16154, Note_on_c, 3, 78, 0
7, 16155, Note_on_c, 3, 76, 100
7, 16169, Note_on_c, 3, 76, 0
7, 16170, Note_on_c, 3, 74, 100
7, 16184, Note_on_c, 3, 74, 0
7, 16185, Note_on_c, 3, 76, 100
7, 16199, Note_on_c, 3, 76, 0
7, 16200, Note_on_c, 3, 78, 100
7, 16259, Note_on_c, 3, 78, 0
7, 16380, Note_on_c, 3, 81, 100
7, 16439, Note_on_c, 3, 81, 0
7, 16560, Note_on_c, 3, 78, 100
7, 16619, Note_on_c, 3, 78, 0
7, 16740, Note_on_c, 3, 78, 100
7, 16799, Note_on_c, 3, 78, 0
7, 16935, Note_on_c, 3, 86, 100
7, 16949, Note_on_c, 3, 86, 0
7, 16950, Note_on_c, 3, 85, 100
7, 16964, Note_on_c, 3, 85, 0
7, 16965, Note_on_c, 3, 83, 100
7, 16979, Note_on_c, 3, 83, 0
7, 16980, Note_on_c, 3, 81, 100
7, 16994, Note_on_c, 3, 81, 0
7, 16995, Note_on_c, 3, 86, 100
7, 17009, Note_on_c, 3, 86, 0
7, 17010, Note_on_c, 3, 85, 100
7, 17024, Note_on_c, 3, 85, 0
7, 17025, Note_on_c, 3, 83, 100
7, 17039, Note_on_c, 3, 83, 0
7, 17040, Note_on_c, 3, 81, 100
7, 17054, Note_on_c, 3, 81, 0
7, 17055, Note_on_c, 3, 79, 100
7, 17069, Note_on_c, 3, 79, 0
7, 17070, Note_on_c, 3, 78, 100
7, 17084, Note_on_c, 3, 78, 0
7, 17085, Note_on_c, 3, 76, 100
7, 17099, Note_on_c, 3, 76, 0
7, 17100, Note_on_c, 3, 74, 100
7, 17700, Note_on_c, 3, 74, 0
7, 17700, Note_on_c, 3, 74, 100
7, 17729, Note_on_c, 3, 74, 0
7, 17760, Note_on_c, 3, 74, 100
7, 17789, Note_on_c, 3, 74, 0
7, 17820, Note_on_c, 3, 74, 100
7, 17879, Note_on_c, 3, 74, 0
7, 17880, Note_on_c, 3, 73, 100
7, 17909, Note_on_c, 3, 73, 0
7, 17910, Note_on_c, 3, 71, 100
7, 17939, Note_on_c, 3, 71, 0
7, 17940, Note_on_c, 3, 73, 100
7, 17999, Note_on_c, 3, 73, 0
7, 18660, Note_on_c, 3, 79, 100
7, 18719, Note_on_c, 3, 79, 0
7, 18720, Note_on_c, 3, 78, 100
7, 18779, Note_on_c, 3, 78, 0
7, 18780, Note_on_c, 3, 76, 100
7, 18839, Note_on_c, 3, 76, 0
7, 18840, Note_on_c, 3, 74, 100
7, 18899, Note_on_c, 3, 74, 0
7, 18900, Note_on_c, 3, 81, 100
7, 19019, Note_on_c, 3, 81, 0
7, 19680, Note_on_c, 3, 76, 100
7, 19709, Note_on_c, 3, 76, 0
7, 19710, Note_on_c, 3, 78, 100
7, 19739, Note_on_c, 3, 78, 0
7, 19740, Note_on_c, 3, 79, 100
7, 19754, Note_on_c, 3, 79, 0
7, 19755, Note_on_c, 3, 78, 100
7, 19769, Note_on_c, 3, 78, 0
7, 19770, Note_on_c, 3, 76, 100
7, 19784, Note_on_c, 3, 76, 0
7, 19785, Note_on_c, 3, 78, 100
7, 19799, Note_on_c, 3, 78, 0
7, 19800, Note_on_c, 3, 79, 100
7, 19829, Note_on_c, 3, 79, 0
7, 19860, Note_on_c, 3, 78, 100
7, 19889, Note_on_c, 3, 78, 0
7, 19920, Note_on_c, 3, 76, 100
7, 19949, Note_on_c, 3, 76, 0
7, 19980, Note_on_c, 3, 74, 100
7, 20009, Note_on_c, 3, 74, 0
7, 20010, Note_on_c, 3, 76, 100
7, 20039, Note_on_c, 3, 76, 0
7, 20040, Note_on_c, 3, 78, 100
7, 20069, Note_on_c, 3, 78, 0
7, 20070, Note_on_c, 3, 79, 100
7, 20099, Note_on_c, 3, 79, 0
7, 20100, Note_on_c, 3, 81, 100
7, 20114, Note_on_c, 3, 81, 0
7, 20115, Note_on_c, 3, 79, 100
7, 20129, Note_on_c, 3, 79, 0
7, 20130, Note_on_c, 3, 78, 100
7, 20144, Note_on_c, 3, 78, 0
7, 20145, Note_on_c, 3, 79, 100
7, 20159, Note_on_c, 3, 79, 0
7, 20160, Note_on_c, 3, 81, 100
7, 20189, Note_on_c, 3, 81, 0
7, 20220, Note_on_c, 3, 74, 100
7, 20249, Note_on_c, 3, 74, 0
7, 20280, Note_on_c, 3, 76, 100
7, 20309, Note_on_c, 3, 76, 0
7, 20340, Note_on_c, 3, 73, 100
7, 20399, Note_on_c, 3, 73, 0
7, 20580, Note_on_c, 3, 78, 100
7, 20609, Note_on_c, 3, 78, 0
7, 20610, Note_on_c, 3, 80, 100
7, 20639, Note_on_c, 3, 80, 0
7, 20640, Note_on_c, 3, 81, 100
7, 20654, Note_on_c, 3, 81, 0
7, 20655, Note_on_c, 3, 80, 100
7, 20669, Note_on_c, 3, 80, 0
7, 20670, Note_on_c, 3, 78, 100
7, 20684, Note_on_c, 3, 78, 0
7, 20685, Note_on_c, 3, 80, 100
7, 20699, Note_on_c, 3, 80, 0
7, 20700, Note_on_c, 3, 81, 100
7, 20729, Note_on_c, 3, 81, 0
7, 20760, Note_on_c, 3, 76, 100
7, 20789, Note_on_c, 3, 76, 0
7, 20790, Note_on_c, 3, 78, 100
7, 20819, Note_on_c, 3, 78, 0
7, 20820, Note_on_c, 3, 79, 100
7, 20834, Note_on_c, 3, 79, 0
7, 20835, Note_on_c, 3, 78, 100
7, 20849, Note_on_c, 3, 78, 0
7, 20850, Note_on_c, 3, 76, 100
7, 20864, Note_on_c, 3, 76, 0
7, 20865, Note_on_c, 3, 78, 100
7, 20879, Note_on_c, 3, 78, 0
7, 20880, Note_on_c, 3, 79, 100
7, 20909, Note_on_c, 3, 79, 0
7, 20940, Note_on_c, 3, 72, 100
7, 20969, Note_on_c, 3, 72, 0
7, 21000, Note_on_c, 3, 72, 100
7, 21029, Note_on_c, 3, 72, 0
7, 21060, Note_on_c, 3, 71, 100
7, 21119, Note_on_c, 3, 71, 0
7, 21120, Note_on_c, 3, 74, 100
7, 21179, Note_on_c, 3, 74, 0
7, 21180, Note_on_c, 3, 79, 100
7, 21239, Note_on_c, 3, 79, 0
7, 21240, Note_on_c, 3, 78, 100
7, 21299, Note_on_c, 3, 78, 0
7, 21300, Note_on_c, 3, 69, 100
7, 21359, Note_on_c, 3, 69, 0
7, 21360, Note_on_c, 3, 74, 100
7, 21419, Note_on_c, 3, 74, 0
7, 21420, Note_on_c, 3, 73, 100
7, 21449, Note_on_c, 3, 73, 0
7, 21450, Note_on_c, 3, 71, 100
7, 21479, Note_on_c, 3, 71, 0
7, 21480, Note_on_c, 3, 73, 100
7, 21509, Note_on_c, 3, 73, 0
7, 21510, Note_on_c, 3, 74, 100
7, 21539, Note_on_c, 3, 74, 0
7, 21540, Note_on_c, 3, 76, 100
7, 21569, Note_on_c, 3, 76, 0
7, 21570, Note_on_c, 3, 78, 100
7, 21599, Note_on_c, 3, 78, 0
7, 21600, Note_on_c, 3, 75, 100
7, 21629, Note_on_c, 3, 75, 0
7, 21630, Note_on_c, 3, 78, 100
7, 21659, Note_on_c, 3, 78, 0
7, 21660, Note_on_c, 3, 81, 100
7, 21779, Note_on_c, 3, 81, 0
7, 21780, Note_on_c, 3, 72, 100
7, 21794, Note_on_c, 3, 72, 0
7, 21795, Note_on_c, 3, 71, 100
7, 21809, Note_on_c, 3, 71, 0
7, 21810, Note_on_c, 3, 69, 100
7, 21839, Note_on_c, 3, 69, 0
7, 21840, Note_on_c, 3, 69, 100
7, 21869, Note_on_c, 3, 69, 0
7, 21870, Note_on_c, 3, 71, 100
7, 21989, Note_on_c, 3, 71, 0
7, 21990, Note_on_c, 3, 73, 100
7, 22004, Note_on_c, 3, 73, 0
7, 22005, Note_on_c, 3, 75, 100
7, 22019, Note_on_c, 3, 75, 0
7, 22020, Note_on_c, 3, 76, 100
7, 22049, Note_on_c, 3, 76, 0
7, 22050, Note_on_c, 3, 78, 100
7, 22064, Note_on_c, 3, 78, 0
7, 22065, Note_on_c, 3, 79, 100
7, 22079, Note_on_c, 3, 79, 0
7, 22080, Note_on_c, 3, 81, 100
7, 22169, Note_on_c, 3, 81, 0
7, 22170, Note_on_c, 3, 79, 100
7, 22184, Note_on_c, 3, 79, 0
7, 22185, Note_on_c, 3, 78, 100
7, 22199, Note_on_c, 3, 78, 0
7, 22200, Note_on_c, 3, 79, 100
7, 22229, Note_on_c, 3, 79, 0
7, 22230, Note_on_c, 3, 78, 100
7, 22244, Note_on_c, 3, 78, 0
7, 22245, Note_on_c, 3, 76, 100
7, 22259, Note_on_c, 3, 76, 0
7, 22260, Note_on_c, 3, 79, 100
7, 22289, Note_on_c, 3, 79, 0
7, 22290, Note_on_c, 3, 76, 100
7, 22304, Note_on_c, 3, 76, 0
7, 22305, Note_on_c, 3, 78, 100
7, 22319, Note_on_c, 3, 78, 0
7, 22320, Note_on_c, 3, 79, 100
7, 22349, Note_on_c, 3, 79, 0
7, 22350, Note_on_c, 3, 79, 100
7, 22364, Note_on_c, 3, 79, 0
7, 22365, Note_on_c, 3, 78, 100
7, 22379, Note_on_c, 3, 78, 0
7, 22380, Note_on_c, 3, 76, 100
7, 22409, Note_on_c, 3, 76, 0
7, 22410, Note_on_c, 3, 79, 100
7, 22424, Note_on_c, 3, 79, 0
7, 22425, Note_on_c, 3, 78, 100
7, 22439, Note_on_c, 3, 78, 0
7, 22440, Note_on_c, 3, 76, 100
7, 22529, Note_on_c, 3, 76, 0
7, 22530, Note_on_c, 3, 73, 100
7, 22544, Note_on_c, 3, 73, 0
7, 22545, Note_on_c, 3, 74, 100
7, 22559, Note_on_c, 3, 74, 0
7, 22560, Note_on_c, 3, 76, 100
7, 22589, Note_on_c, 3, 76, 0
7, 22590, Note_on_c, 3, 73, 100
7, 22604, Note_on_c, 3, 73, 0
7, 22605, Note_on_c, 3, 74, 100
7, 22619, Note_on_c, 3, 74, 0
7, 22620, Note_on_c, 3, 76, 100
7, 22709, Note_on_c, 3, 76, 0
7, 22710, Note_on_c, 3, 78, 100
7, 22724, Note_on_c, 3, 78, 0
7, 22725, Note_on_c, 3, 79, 100
7, 22739, Note_on_c, 3, 79, 0
7, 22740, Note_on_c, 3, 81, 100
7, 22769, Note_on_c, 3, 81, 0
7, 22770, Note_on_c, 3, 79, 100
7, 22784, Note_on_c, 3, 79, 0
7, 22785, Note_on_c, 3, 78, 100
7, 22799, Note_on_c, 3, 78, 0
7, 22800, Note_on_c, 3, 79, 100
7, 22829, Note_on_c, 3, 79, 0
7, 22830, Note_on_c, 3, 78, 100
7, 22844, Note_on_c, 3, 78, 0
7, 22845, Note_on_c, 3, 76, 100
7, 22859, Note_on_c, 3, 76, 0
7, 22860, Note_on_c, 3, 78, 100
7, 22889, Note_on_c, 3, 78, 0
7, 22890, Note_on_c, 3, 78, 100
7, 22904, Note_on_c, 3, 78, 0
7, 22905, Note_on_c, 3, 76, 100
7, 22919, Note_on_c, 3, 76, 0
7, 22920, Note_on_c, 3, 74, 100
7, 22949, Note_on_c, 3, 74, 0
7, 22950, Note_on_c, 3, 78, 100
7, 22964, Note_on_c, 3, 78, 0
7, 22965, Note_on_c, 3, 76, 100
7, 22979, Note_on_c, 3, 76, 0
7, 22980, Note_on_c, 3, 74, 100
7, 23069, Note_on_c, 3, 74, 0
7, 23070, Note_on_c, 3, 83, 100
7, 23084, Note_on_c, 3, 83, 0
7, 23100, Note_on_c, 3, 83, 100
7, 23114, Note_on_c, 3, 83, 0
7, 23130, Note_on_c, 3, 78, 100
7, 23144, Note_on_c, 3, 78, 0
7, 23160, Note_on_c, 3, 78, 100
7, 23174, Note_on_c, 3, 78, 0
7, 23190, Note_on_c, 3, 74, 100
7, 23204, Note_on_c, 3, 74, 0
7, 23220, Note_on_c, 3, 74, 100
7, 23234, Note_on_c, 3, 74, 0
7, 23235, Note_on_c, 3, 78, 100
7, 23249, Note_on_c, 3, 78, 0
7, 23250, Note_on_c, 3, 80, 100
7, 23264, Note_on_c, 3, 80, 0
7, 23265, Note_on_c, 3, 81, 100
7, 23279, Note_on_c, 3, 81, 0
7, 23280, Note_on_c, 3, 83, 100
7, 23294, Note_on_c, 3, 83, 0
7, 23295, Note_on_c, 3, 85, 100
7, 23309, Note_on_c, 3, 85, 0
7, 23310, Note_on_c, 3, 83, 100
7, 23324, Note_on_c, 3, 83, 0
7, 23325, Note_on_c, 3, 81, 100
7, 23339, Note_on_c, 3, 81, 0
7, 23340, Note_on_c, 3, 80, 100
7, 23354, Note_on_c, 3, 80, 0
7, 23355, Note_on_c, 3, 78, 100
7, 23369, Note_on_c, 3, 78, 0
7, 23370, Note_on_c, 3, 76, 100
7, 23384, Note_on_c, 3, 76, 0
7, 23385, Note_on_c, 3, 74, 100
7, 23399, Note_on_c, 3, 74, 0
7, 23400, Note_on_c, 3, 73, 100
7, 23414, Note_on_c, 3, 73, 0
7, 23430, Note_on_c, 3, 81, 100
7, 23444, Note_on_c, 3, 81, 0
7, 23460, Note_on_c, 3, 81, 100
7, 23474, Note_on_c, 3, 81, 0
7, 23490, Note_on_c, 3, 76, 100
7, 23504, Note_on_c, 3, 76, 0
7, 23520, Note_on_c, 3, 76, 100
7, 23534, Note_on_c, 3, 76, 0
7, 23550, Note_on_c, 3, 72, 100
7, 23564, Note_on_c, 3, 72, 0
7, 23580, Note_on_c, 3, 72, 100
7, 23594, Note_on_c, 3, 72, 0
7, 23595, Note_on_c, 3, 76, 100
7, 23609, Note_on_c, 3, 76, 0
7, 23610, Note_on_c, 3, 78, 100
7, 23624, Note_on_c, 3, 78, 0
7, 23625, Note_on_c, 3, 79, 100
7, 23639, Note_on_c, 3, 79, 0
7, 23640, Note_on_c, 3, 81, 100
7, 23654, Note_on_c, 3, 81, 0
7, 23655, Note_on_c, 3, 83, 100
7, 23669, Note_on_c, 3, 83, 0
7, 23670, Note_on_c, 3, 81, 100
7, 23684, Note_on_c, 3, 81, 0
7, 23685, Note_on_c, 3, 79, 100
7, 23699, Note_on_c, 3, 79, 0
7, 23700, Note_on_c, 3, 78, 100
7, 23714, Note_on_c, 3, 78, 0
7, 23715, Note_on_c, 3, 76, 100
7, 23729, Note_on_c, 3, 76, 0
7, 23730, Note_on_c, 3, 74, 100
7, 23744, Note_on_c, 3, 74, 0
7, 23745, Note_on_c, 3, 72, 100
7, 23759, Note_on_c, 3, 72, 0
7, 23760, Note_on_c, 3, 71, 100
7, 23774, Note_on_c, 3, 71, 0
7, 23775, Note_on_c, 3, 67, 100
7, 23789, Note_on_c, 3, 67, 0
7, 23790, Note_on_c, 3, 69, 100
7, 23804, Note_on_c, 3, 69, 0
7, 23805, Note_on_c, 3, 71, 100
7, 23819, Note_on_c, 3, 71, 0
7, 23820, Note_on_c, 3, 73, 100
7, 23834, Note_on_c, 3, 73, 0
7, 23835, Note_on_c, 3, 69, 100
7, 23849, Note_on_c, 3, 69, 0
7, 23850, Note_on_c, 3, 71, 100
7, 23864, Note_on_c, 3, 71, 0
7, 23865, Note_on_c, 3, 73, 100
7, 23879, Note_on_c, 3, 73, 0
7, 23880, Note_on_c, 3, 74, 100
7, 23894, Note_on_c, 3, 74, 0
7, 23895, Note_on_c, 3, 71, 100
7, 23909, Note_on_c, 3, 71, 0
7, 23910, Note_on_c, 3, 73, 100
7, 23924, Note_on_c, 3, 73, 0
7, 23925, Note_on_c, 3, 74, 100
7, 23939, Note_on_c, 3, 74, 0
7, 23940, Note_on_c, 3, 76, 100
7, 23954, Note_on_c, 3, 76, 0
7, 23955, Note_on_c, 3, 73, 100
7, 23969, Note_on_c, 3, 73, 0
7, 23970, Note_on_c, 3, 74, 100
7, 23984, Note_on_c, 3, 74, 0
7, 23985, Note_on_c, 3, 76, 100
7, 23999, Note_on_c, 3, 76, 0
7, 24000, Note_on_c, 3, 78, 100
7, 24014, Note_on_c, 3, 78, 0
7, 24015, Note_on_c, 3, 74, 100
7, 24029, Note_on_c, 3, 74, 0
7, 24030, Note_on_c, 3, 76, 100
7, 24044, Note_on_c, 3, 76, 0
7, 24045, Note_on_c, 3, 78, 100
7, 24059, Note_on_c, 3, 78, 0
7, 24060, Note_on_c, 3, 79, 100
7, 24074, Note_on_c, 3, 79, 0
7, 24075, Note_on_c, 3, 76, 100
7, 24089, Note_on_c, 3, 76, 0
7, 24090, Note_on_c, 3, 78, 100
7, 24104, Note_on_c, 3, 78, 0
7, 24105, Note_on_c, 3, 79, 100
7, 24119, Note_on_c, 3, 79, 0
7, 24120, Note_on_c, 3, 81, 100
7, 24134, Note_on_c, 3, 81, 0
7, 24135, Note_on_c, 3, 78, 100
7, 24149, Note_on_c, 3, 78, 0
7, 24150, Note_on_c, 3, 79, 100
7, 24164, Note_on_c, 3, 79, 0
7, 24165, Note_on_c, 3, 81, 100
7, 24179, Note_on_c, 3, 81, 0
7, 24180, Note_on_c, 3, 83, 100
7, 24194, Note_on_c, 3, 83, 0
7, 24195, Note_on_c, 3, 79, 100
7, 24209, Note_on_c, 3, 79, 0
7, 24210, Note_on_c, 3, 81, 100
7, 24224, Note_on_c, 3, 81, 0
7, 24225, Note_on_c, 3, 83, 100
7, 24239, Note_on_c, 3, 83, 0
7, 24240, Note_on_c, 3, 85, 100
7, 24254, Note_on_c, 3, 85, 0
7, 24255, Note_on_c, 3, 81, 100
7, 24269, Note_on_c, 3, 81, 0
7, 24270, Note_on_c, 3, 83, 100
7, 24284, Note_on_c, 3, 83, 0
7, 24285, Note_on_c, 3, 85, 100
7, 24299, Note_on_c, 3, 85, 0
7, 24300, Note_on_c, 3, 86, 100
7, 24329, Note_on_c, 3, 86, 0
7, 24360, Note_on_c, 3, 69, 100
7, 24389, Note_on_c, 3, 69, 0
7, 24420, Note_on_c, 3, 73, 100
7, 24449, Note_on_c, 3, 73, 0
7, 24480, Note_on_c, 3, 74, 100
7, 24659, Note_on_c, 3, 74, 0
7, 27600, Note_on_c, 3, 74, 100
7, 27630, Note_on_c, 3, 74, 0
7, 27660, Note_on_c, 3, 78, 100
7, 27690, Note_on_c, 3, 78, 0
7, 27780, Note_on_c, 3, 69, 100
7, 27810, Note_on_c, 3, 69, 0
7, 27840, Note_on_c, 3, 76, 100
7, 27870, Note_on_c, 3, 76, 0
7, 27960, Note_on_c, 3, 74, 100
7, 27990, Note_on_c, 3, 74, 0
7, 28020, Note_on_c, 3, 68, 100
7, 28050, Note_on_c, 3, 68, 0
7, 28140, Note_on_c, 3, 73, 100
7, 28170, Note_on_c, 3, 73, 0
7, 28200, Note_on_c, 3, 76, 100
7, 28230, Note_on_c, 3, 76, 0
7, 28320, Note_on_c, 3, 74, 100
7, 28350, Note_on_c, 3, 74, 0
7, 28380, Note_on_c, 3, 78, 100
7, 28410, Note_on_c, 3, 78, 0
7, 28500, Note_on_c, 3, 67, 100
7, 28530, Note_on_c, 3, 67, 0
7, 28560, Note_on_c, 3, 71, 100
7, 28590, Note_on_c, 3, 71, 0
7, 28680, Note_on_c, 3, 78, 100
7, 28710, Note_on_c, 3, 78, 0
7, 28740, Note_on_c, 3, 71, 100
7, 28770, Note_on_c, 3, 71, 0
7, 28860, Note_on_c, 3, 73, 100
7, 28890, Note_on_c, 3, 73, 0
7, 28920, Note_on_c, 3, 76, 100
7, 28950, Note_on_c, 3, 76, 0
7, 29040, Note_on_c, 3, 74, 100
7, 29070, Note_on_c, 3, 74, 0
7, 29100, Note_on_c, 3, 71, 100
7, 29130, Note_on_c, 3, 71, 0
7, 29220, Note_on_c, 3, 73, 100
7, 29250, Note_on_c, 3, 73, 0
7, 29280, Note_on_c, 3, 70, 100
7, 29310, Note_on_c, 3, 70, 0
7, 29400, Note_on_c, 3, 71, 100
7, 29430, Note_on_c, 3, 71, 0
7, 29460, Note_on_c, 3, 67, 100
7, 29490, Note_on_c, 3, 67, 0
7, 29580, Note_on_c, 3, 71, 100
7, 29610, Note_on_c, 3, 71, 0
7, 29640, Note_on_c, 3, 74, 100
7, 29670, Note_on_c, 3, 74, 0
7, 29760, Note_on_c, 3, 78, 100
7, 29790, Note_on_c, 3, 78, 0
7, 29820, Note_on_c, 3, 74, 100
7, 29850, Note_on_c, 3, 74, 0
7, 29940, Note_on_c, 3, 78, 100
7, 29970, Note_on_c, 3, 78, 0
7, 30000, Note_on_c, 3, 69, 100
7, 30030, Note_on_c, 3, 69, 0
7, 30120, Note_on_c, 3, 73, 100
7, 30150, Note_on_c, 3, 73, 0
7, 30180, Note_on_c, 3, 66, 100
7, 30210, Note_on_c, 3, 66, 0
7, 30300, Note_on_c, 3, 67, 100
7, 30359, Note_on_c, 3, 67, 0
7, 30360, Note_on_c, 3, 66, 100
7, 30419, Note_on_c, 3, 66, 0
7, 30420, Note_on_c, 3, 62, 100
7, 30539, Note_on_c, 3, 62, 0
7, 30720, Note_on_c, 3, 73, 100
7, 30749, Note_on_c, 3, 73, 0
7, 30750, Note_on_c, 3, 74, 100
7, 30779, Note_on_c, 3, 74, 0
7, 30780, Note_on_c, 3, 76, 100
7, 30809, Note_on_c, 3, 76, 0
7, 30840, Note_on_c, 3, 76, 100
7, 30869, Note_on_c, 3, 76, 0
7, 30900, Note_on_c, 3, 76, 100
7, 30929, Note_on_c, 3, 76, 0
7, 30960, Note_on_c, 3, 76, 100
7, 31019, Note_on_c, 3, 76, 0
7, 31020, Note_on_c, 3, 74, 100
7, 31049, Note_on_c, 3, 74, 0
7, 31050, Note_on_c, 3, 73, 100
7, 31079, Note_on_c, 3, 73, 0
7, 31080, Note_on_c, 3, 74, 100
7, 31139, Note_on_c, 3, 74, 0
7, 32130, Note_on_c, 3, 71, 100
7, 32159, Note_on_c, 3, 71, 0
7, 32160, Note_on_c, 3, 73, 100
7, 32189, Note_on_c, 3, 73, 0
7, 32190, Note_on_c, 3, 74, 100
7, 32219, Note_on_c, 3, 74, 0
7, 32220, Note_on_c, 3, 76, 100
7, 32249, Note_on_c, 3, 76, 0
7, 32280, Note_on_c, 3, 79, 100
7, 32309, Note_on_c, 3, 79, 0
7, 32340, Note_on_c, 3, 76, 100
7, 32369, Note_on_c, 3, 76, 0
7, 32400, Note_on_c, 3, 76, 100
7, 32415, Note_on_c, 3, 76, 0
7, 32415, Note_on_c, 3, 78, 100
7, 32430, Note_on_c, 3, 78, 0
7, 32430, Note_on_c, 3, 76, 100
7, 32440, Note_on_c, 3, 76, 0
7, 32440, Note_on_c, 3, 78, 100
7, 32450, Note_on_c, 3, 78, 0
7, 32450, Note_on_c, 3, 76, 100
7, 32460, Note_on_c, 3, 76, 0
7, 32460, Note_on_c, 3, 74, 100
7, 32489, Note_on_c, 3, 74, 0
7, 32490, Note_on_c, 3, 76, 100
7, 32519, Note_on_c, 3, 76, 0
7, 32520, Note_on_c, 3, 78, 100
7, 32549, Note_on_c, 3, 78, 0
7, 32550, Note_on_c, 3, 74, 100
7, 32579, Note_on_c, 3, 74, 0
7, 32580, Note_on_c, 3, 76, 100
7, 32639, Note_on_c, 3, 76, 0
7, 32640, Note_on_c, 3, 81, 100
7, 32669, Note_on_c, 3, 81, 0
7, 32670, Note_on_c, 3, 80, 100
7, 32699, Note_on_c, 3, 80, 0
7, 32700, Note_on_c, 3, 81, 100
7, 32819, Note_on_c, 3, 81, 0
7, 32820, Note_on_c, 3, 79, 100
7, 32849, Note_on_c, 3, 79, 0
7, 32850, Note_on_c, 3, 78, 100
7, 32879, Note_on_c, 3, 78, 0
7, 32880, Note_on_c, 3, 79, 100
7, 32909, Note_on_c, 3, 79, 0
7, 32910, Note_on_c, 3, 76, 100
7, 32939, Note_on_c, 3, 76, 0
7, 32940, Note_on_c, 3, 78, 100
7, 32999, Note_on_c, 3, 78, 0
7, 33000, Note_on_c, 3, 83, 100
7, 33029, Note_on_c, 3, 83, 0
7, 33030, Note_on_c, 3, 82, 100
7, 33059, Note_on_c, 3, 82, 0
7, 33060, Note_on_c, 3, 83, 100
7, 33179, Note_on_c, 3, 83, 0
7, 33180, Note_on_c, 3, 82, 100
7, 33209, Note_on_c, 3, 82, 0
7, 33210, Note_on_c, 3, 80, 100
7, 33239, Note_on_c, 3, 80, 0
7, 33240, Note_on_c, 3, 78, 100
7, 33269, Note_on_c, 3, 78, 0
7, 33270, Note_on_c, 3, 76, 100
7, 33299, Note_on_c, 3, 76, 0
7, 33300, Note_on_c, 3, 74, 100
7, 33329, Note_on_c, 3, 74, 0
7, 33330, Note_on_c, 3, 78, 100
7, 33359, Note_on_c, 3, 78, 0
7, 33360, Note_on_c, 3, 83, 100
7, 33419, Note_on_c, 3, 83, 0
7, 33420, Note_on_c, 3, 74, 100
7, 33509, Note_on_c, 3, 74, 0
7, 33510, Note_on_c, 3, 73, 100
7, 33539, Note_on_c, 3, 73, 0
7, 33540, Note_on_c, 3, 74, 100
7, 33599, Note_on_c, 3, 74, 0
7, 33600, Note_on_c, 3, 64, 100
7, 33689, Note_on_c, 3, 64, 0
7, 33690, Note_on_c, 3, 66, 100
7, 33704, Note_on_c, 3, 66, 0
7, 33705, Note_on_c, 3, 68, 100
7, 33719, Note_on_c, 3, 68, 0
7, 33720, Note_on_c, 3, 69, 100
7, 33749, Note_on_c, 3, 69, 0
7, 33750, Note_on_c, 3, 71, 100
7, 33764, Note_on_c, 3, 71, 0
7, 33765, Note_on_c, 3, 73, 100
7, 33779, Note_on_c, 3, 73, 0
7, 33780, Note_on_c, 3, 74, 100
7, 33869, Note_on_c, 3, 74, 0
7, 33870, Note_on_c, 3, 73, 100
7, 33884, Note_on_c, 3, 73, 0
7, 33885, Note_on_c, 3, 71, 100
7, 33899, Note_on_c, 3, 71, 0
7, 33900, Note_on_c, 3, 73, 100
7, 33929, Note_on_c, 3, 73, 0
7, 33930, Note_on_c, 3, 69, 100
7, 33944, Note_on_c, 3, 69, 0
7, 33945, Note_on_c, 3, 71, 100
7, 33959, Note_on_c, 3, 71, 0
7, 33960, Note_on_c, 3, 73, 100
7, 33989, Note_on_c, 3, 73, 0
7, 33990, Note_on_c, 3, 69, 100
7, 34004, Note_on_c, 3, 69, 0
7, 34005, Note_on_c, 3, 71, 100
7, 34019, Note_on_c, 3, 71, 0
7, 34020, Note_on_c, 3, 73, 100
7, 34049, Note_on_c, 3, 73, 0
7, 34050, Note_on_c, 3, 76, 100
7, 34079, Note_on_c, 3, 76, 0
7, 34080, Note_on_c, 3, 79, 100
7, 34199, Note_on_c, 3, 79, 0
7, 34200, Note_on_c, 3, 71, 100
7, 34214, Note_on_c, 3, 71, 0
7, 34215, Note_on_c, 3, 69, 100
7, 34229, Note_on_c, 3, 69, 0
7, 34230, Note_on_c, 3, 67, 100
7, 34259, Note_on_c, 3, 67, 0
7, 34260, Note_on_c, 3, 67, 100
7, 34289, Note_on_c, 3, 67, 0
7, 34290, Note_on_c, 3, 69, 100
7, 34409, Note_on_c, 3, 69, 0
7, 34410, Note_on_c, 3, 71, 100
7, 34424, Note_on_c, 3, 71, 0
7, 34425, Note_on_c, 3, 73, 100
7, 34439, Note_on_c, 3, 73, 0
7, 34440, Note_on_c, 3, 74, 100
7, 34469, Note_on_c, 3, 74, 0
7, 34470, Note_on_c, 3, 76, 100
7, 34484, Note_on_c, 3, 76, 0
7, 34485, Note_on_c, 3, 78, 100
7, 34499, Note_on_c, 3, 78, 0
7, 34500, Note_on_c, 3, 79, 100
7, 34529, Note_on_c, 3, 79, 0
7, 34530, Note_on_c, 3, 81, 100
7, 34544, Note_on_c, 3, 81, 0
7, 34545, Note_on_c, 3, 79, 100
7, 34559, Note_on_c, 3, 79, 0
7, 34560, Note_on_c, 3, 78, 100
7, 34589, Note_on_c, 3, 78, 0
7, 34590, Note_on_c, 3, 80, 100
7, 34604, Note_on_c, 3, 80, 0
7, 34605, Note_on_c, 3, 82, 100
7, 34619, Note_on_c, 3, 82, 0
7, 34620, Note_on_c, 3, 83, 100
7, 34649, Note_on_c, 3, 83, 0
7, 34650, Note_on_c, 3, 82, 100
7, 34664, Note_on_c, 3, 82, 0
7, 34665, Note_on_c, 3, 83, 100
7, 34679, Note_on_c, 3, 83, 0
7, 34680, Note_on_c, 3, 85, 100
7, 34709, Note_on_c, 3, 85, 0
7, 34710, Note_on_c, 3, 83, 100
7, 34724, Note_on_c, 3, 83, 0
7, 34725, Note_on_c, 3, 85, 100
7, 34739, Note_on_c, 3, 85, 0
7, 34740, Note_on_c, 3, 86, 100
7, 34799, Note_on_c, 3, 86, 0
7, 34800, Note_on_c, 3, 80, 100
7, 34949, Note_on_c, 3, 80, 0
7, 34950, Note_on_c, 3, 78, 100
7, 34964, Note_on_c, 3, 78, 0
7, 34965, Note_on_c, 3, 80, 100
7, 34979, Note_on_c, 3, 80, 0
7, 34980, Note_on_c, 3, 82, 100
7, 35009, Note_on_c, 3, 82, 0
7, 35010, Note_on_c, 3, 80, 100
7, 35024, Note_on_c, 3, 80, 0
7, 35025, Note_on_c, 3, 82, 100
7, 35039, Note_on_c, 3, 82, 0
7, 35040, Note_on_c, 3, 83, 100
7, 35069, Note_on_c, 3, 83, 0
7, 35070, Note_on_c, 3, 82, 100
7, 35084, Note_on_c, 3, 82, 0
7, 35085, Note_on_c, 3, 83, 100
7, 35099, Note_on_c, 3, 83, 0
7, 35100, Note_on_c, 3, 85, 100
7, 35159, Note_on_c, 3, 85, 0
7, 35160, Note_on_c, 3, 78, 100
7, 35309, Note_on_c, 3, 78, 0
7, 35310, Note_on_c, 3, 77, 100
7, 35324, Note_on_c, 3, 77, 0
7, 35325, Note_on_c, 3, 78, 100
7, 35339, Note_on_c, 3, 78, 0
7, 35340, Note_on_c, 3, 80, 100
7, 35369, Note_on_c, 3, 80, 0
7, 35370, Note_on_c, 3, 78, 100
7, 35384, Note_on_c, 3, 78, 0
7, 35385, Note_on_c, 3, 80, 100
7, 35399, Note_on_c, 3, 80, 0
7, 35400, Note_on_c, 3, 81, 100
7, 35429, Note_on_c, 3, 81, 0
7, 35430, Note_on_c, 3, 80, 100
7, 35444, Note_on_c, 3, 80, 0
7, 35445, Note_on_c, 3, 81, 100
7, 35459, Note_on_c, 3, 81, 0
7, 35460, Note_on_c, 3, 83, 100
7, 35489, Note_on_c, 3, 83, 0
7, 35490, Note_on_c, 3, 81, 100
7, 35519, Note_on_c, 3, 81, 0
7, 35520, Note_on_c, 3, 81, 100
7, 35549, Note_on_c, 3, 81, 0
7, 35550, Note_on_c, 3, 80, 100
7, 35579, Note_on_c, 3, 80, 0
7, 35580, Note_on_c, 3, 80, 100
7, 35669, Note_on_c, 3, 80, 0
7, 35670, Note_on_c, 3, 73, 100
7, 35699, Note_on_c, 3, 73, 0
7, 35700, Note_on_c, 3, 83, 100
7, 35729, Note_on_c, 3, 83, 0
7, 35730, Note_on_c, 3, 81, 100
7, 35759, Note_on_c, 3, 81, 0
7, 35760, Note_on_c, 3, 80, 100
7, 35789, Note_on_c, 3, 80, 0
7, 35790, Note_on_c, 3, 81, 100
7, 35819, Note_on_c, 3, 81, 0
7, 35820, Note_on_c, 3, 78, 100
7, 35849, Note_on_c, 3, 78, 0
7, 35850, Note_on_c, 3, 81, 100
7, 35879, Note_on_c, 3, 81, 0
7, 35880, Note_on_c, 3, 81, 100
7, 35909, Note_on_c, 3, 81, 0
7, 35910, Note_on_c, 3, 80, 100
7, 35939, Note_on_c, 3, 80, 0
7, 35940, Note_on_c, 3, 78, 100
7, 35969, Note_on_c, 3, 78, 0
7, 35970, Note_on_c, 3, 77, 100
7, 35999, Note_on_c, 3, 77, 0
7, 36000, Note_on_c, 3, 78, 100
7, 36179, Note_on_c, 3, 78, 0
7, 36510, Note_on_c, 3, 74, 100
7, 36524, Note_on_c, 3, 74, 0
7, 36525, Note_on_c, 3, 76, 100
7, 36539, Note_on_c, 3, 76, 0
7, 36540, Note_on_c, 3, 78, 100
7, 36554, Note_on_c, 3, 78, 0
7, 36555, Note_on_c, 3, 76, 100
7, 36569, Note_on_c, 3, 76, 0
7, 36570, Note_on_c, 3, 78, 100
7, 36584, Note_on_c, 3, 78, 0
7, 36585, Note_on_c, 3, 76, 100
7, 36599, Note_on_c, 3, 76, 0
7, 36600, Note_on_c, 3, 78, 100
7, 36614, Note_on_c, 3, 78, 0
7, 36615, Note_on_c, 3, 76, 100
7, 36629, Note_on_c, 3, 76, 0
7, 36630, Note_on_c, 3, 74, 100
7, 36644, Note_on_c, 3, 74, 0
7, 36645, Note_on_c, 3, 76, 100
7, 36659, Note_on_c, 3, 76, 0
7, 36660, Note_on_c, 3, 78, 100
7, 36719, Note_on_c, 3, 78, 0
7, 37035, Note_on_c, 3, 86, 100
7, 37049, Note_on_c, 3, 86, 0
7, 37050, Note_on_c, 3, 85, 100
7, 37064, Note_on_c, 3, 85, 0
7, 37065, Note_on_c, 3, 83, 100
7, 37079, Note_on_c, 3, 83, 0
7, 37080, Note_on_c, 3, 81, 100
7, 37094, Note_on_c, 3, 81, 0
7, 37095, Note_on_c, 3, 86, 100
7, 37109, Note_on_c, 3, 86, 0
7, 37110, Note_on_c, 3, 85, 100
7, 37124, Note_on_c, 3, 85, 0
7, 37125, Note_on_c, 3, 83, 100
7, 37139, Note_on_c, 3, 83, 0
7, 37140, Note_on_c, 3, 81, 100
7, 37154, Note_on_c, 3, 81, 0
7, 37155, Note_on_c, 3, 79, 100
7, 37169, Note_on_c, 3, 79, 0
7, 37170, Note_on_c, 3, 78, 100
7, 37184, Note_on_c, 3, 78, 0
7, 37185, Note_on_c, 3, 76, 100
7, 37199, Note_on_c, 3, 76, 0
7, 37200, Note_on_c, 3, 74, 110
7, 37800, Note_on_c, 3, 74, 0
7, 37800, Note_on_c, 3, 74, 110
7, 37830, Note_on_c, 3, 74, 0
7, 37860, Note_on_c, 3, 74, 110
7, 37890, Note_on_c, 3, 74, 0
7, 37920, Note_on_c, 3, 74, 110
7, 37980, Note_on_c, 3, 74, 0
7, 37980, Note_on_c, 3, 73, 110
7, 38010, Note_on_c, 3, 73, 0
7, 38010, Note_on_c, 3, 71, 110
7, 38040, Note_on_c, 3, 71, 0
7, 38040, Note_on_c, 3, 73, 110
7, 38100, Note_on_c, 3, 73, 0
7, 38760, Note_on_c, 3, 79, 100
7, 38819, Note_on_c, 3, 79, 0
7, 38820, Note_on_c, 3, 78, 100
7, 38879, Note_on_c, 3, 78, 0
7, 38880, Note_on_c, 3, 76, 100
7, 38939, Note_on_c, 3, 76, 0
7, 38940, Note_on_c, 3, 74, 100
7, 38999, Note_on_c, 3, 74, 0
7, 39000, Note_on_c, 3, 81, 100
7, 39119, Note_on_c, 3, 81, 0
7, 39120, Note_on_c, 3, 76, 100
7, 39179, Note_on_c, 3, 76, 0
7, 39180, Note_on_c, 3, 75, 100
7, 39209, Note_on_c, 3, 75, 0
7, 39210, Note_on_c, 3, 78, 100
7, 39239, Note_on_c, 3, 78, 0
7, 39240, Note_on_c, 3, 81, 100
7, 39359, Note_on_c, 3, 81, 0
7, 39360, Note_on_c, 3, 72, 100
7, 39374, Note_on_c, 3, 72, 0
7, 39375, Note_on_c, 3, 71, 100
7, 39389, Note_on_c, 3, 71, 0
7, 39390, Note_on_c, 3, 69, 100
7, 39419, Note_on_c, 3, 69, 0
7, 39420, Note_on_c, 3, 69, 100
7, 39449, Note_on_c, 3, 69, 0
7, 39450, Note_on_c, 3, 71, 100
7, 39570, Note_on_c, 3, 71, 0
7, 39570, Note_on_c, 3, 73, 100
7, 39584, Note_on_c, 3, 73, 0
7, 39585, Note_on_c, 3, 75, 100
7, 39599, Note_on_c, 3, 75, 0
7, 39600, Note_on_c, 3, 76, 100
7, 39629, Note_on_c, 3, 76, 0
7, 39630, Note_on_c, 3, 78, 100
7, 39644, Note_on_c, 3, 78, 0
7, 39645, Note_on_c, 3, 80, 100
7, 39659, Note_on_c, 3, 80, 0
7, 39660, Note_on_c, 3, 81, 100
7, 39749, Note_on_c, 3, 81, 0
7, 39750, Note_on_c, 3, 79, 100
7, 39764, Note_on_c, 3, 79, 0
7, 39765, Note_on_c, 3, 78, 100
7, 39779, Note_on_c, 3, 78, 0
7, 39780, Note_on_c, 3, 79, 100
7, 39809, Note_on_c, 3, 79, 0
7, 39810, Note_on_c, 3, 78, 100
7, 39824, Note_on_c, 3, 78, 0
7, 39825, Note_on_c, 3, 76, 100
7, 39839, Note_on_c, 3, 76, 0
7, 39840, Note_on_c, 3, 79, 100
7, 39869, Note_on_c, 3, 79, 0
7, 39870, Note_on_c, 3, 76, 100
7, 39884, Note_on_c, 3, 76, 0
7, 39885, Note_on_c, 3, 78, 100
7, 39899, Note_on_c, 3, 78, 0
7, 39900, Note_on_c, 3, 79, 100
7, 39929, Note_on_c, 3, 79, 0
7, 39930, Note_on_c, 3, 79, 100
7, 39944, Note_on_c, 3, 79, 0
7, 39945, Note_on_c, 3, 78, 100
7, 39959, Note_on_c, 3, 78, 0
7, 39960, Note_on_c, 3, 76, 100
7, 39989, Note_on_c, 3, 76, 0
7, 39990, Note_on_c, 3, 79, 100
7, 40004, Note_on_c, 3, 79, 0
7, 40005, Note_on_c, 3, 78, 100
7, 40019, Note_on_c, 3, 78, 0
7, 40020, Note_on_c, 3, 76, 100
7, 40109, Note_on_c, 3, 76, 0
7, 40110, Note_on_c, 3, 73, 100
7, 40124, Note_on_c, 3, 73, 0
7, 40125, Note_on_c, 3, 74, 100
7, 40139, Note_on_c, 3, 74, 0
7, 40140, Note_on_c, 3, 76, 100
7, 40169, Note_on_c, 3, 76, 0
7, 40170, Note_on_c, 3, 73, 100
7, 40184, Note_on_c, 3, 73, 0
7, 40185, Note_on_c, 3, 74, 100
7, 40199, Note_on_c, 3, 74, 0
7, 40200, Note_on_c, 3, 76, 100
7, 40289, Note_on_c, 3, 76, 0
7, 40290, Note_on_c, 3, 78, 100
7, 40304, Note_on_c, 3, 78, 0
7, 40305, Note_on_c, 3, 79, 100
7, 40319, Note_on_c, 3, 79, 0
7, 40320, Note_on_c, 3, 81, 100
7, 40349, Note_on_c, 3, 81, 0
7, 40350, Note_on_c, 3, 79, 100
7, 40364, Note_on_c, 3, 79, 0
7, 40365, Note_on_c, 3, 78, 100
7, 40379, Note_on_c, 3, 78, 0
7, 40380, Note_on_c, 3, 79, 100
7, 40409, Note_on_c, 3, 79, 0
7, 40410, Note_on_c, 3, 78, 100
7, 40424, Note_on_c, 3, 78, 0
7, 40425, Note_on_c, 3, 76, 100
7, 40439, Note_on_c, 3, 76, 0
7, 40440, Note_on_c, 3, 78, 100
7, 40469, Note_on_c, 3, 78, 0
7, 40470, Note_on_c, 3, 78, 100
7, 40484, Note_on_c, 3, 78, 0
7, 40485, Note_on_c, 3, 76, 100
7, 40499, Note_on_c, 3, 76, 0
7, 40500, Note_on_c, 3, 74, 100
7, 40529, Note_on_c, 3, 74, 0
7, 40530, Note_on_c, 3, 78, 100
7, 40544, Note_on_c, 3, 78, 0
7, 40545, Note_on_c, 3, 76, 100
7, 40559, Note_on_c, 3, 76, 0
7, 40560, Note_on_c, 3, 74, 100
7, 40649, Note_on_c, 3, 74, 0
7, 40650, Note_on_c, 3, 83, 100
7, 40664, Note_on_c, 3, 83, 0
7, 40680, Note_on_c, 3, 83, 100
7, 40694, Note_on_c, 3, 83, 0
7, 40710, Note_on_c, 3, 78, 100
7, 40724, Note_on_c, 3, 78, 0
7, 40740, Note_on_c, 3, 78, 100
7, 40754, Note_on_c, 3, 78, 0
7, 40770, Note_on_c, 3, 74, 100
7, 40784, Note_on_c, 3, 74, 0
7, 40800, Note_on_c, 3, 74, 100
7, 40814, Note_on_c, 3, 74, 0
7, 40815, Note_on_c, 3, 78, 100
7, 40829, Note_on_c, 3, 78, 0
7, 40830, Note_on_c, 3, 80, 100
7, 40844, Note_on_c, 3, 80, 0
7, 40845, Note_on_c, 3, 81, 100
7, 40859, Note_on_c, 3, 81, 0
7, 40860, Note_on_c, 3, 83, 100
7, 40874, Note_on_c, 3, 83, 0
7, 40875, Note_on_c, 3, 85, 100
7, 40889, Note_on_c, 3, 85, 0
7, 40890, Note_on_c, 3, 83, 100
7, 40904, Note_on_c, 3, 83, 0
7, 40905, Note_on_c, 3, 81, 100
7, 40919, Note_on_c, 3, 81, 0
7, 40920, Note_on_c, 3, 80, 100
7, 40934, Note_on_c, 3, 80, 0
7, 40935, Note_on_c, 3, 78, 100
7, 40949, Note_on_c, 3, 78, 0
7, 40950, Note_on_c, 3, 76, 100
7, 40964, Note_on_c, 3, 76, 0
7, 40965, Note_on_c, 3, 74, 100
7, 40979, Note_on_c, 3, 74, 0
7, 40980, Note_on_c, 3, 73, 100
7, 40994, Note_on_c, 3, 73, 0
7, 41010, Note_on_c, 3, 81, 100
7, 41024, Note_on_c, 3, 81, 0
7, 41040, Note_on_c, 3, 81, 100
7, 41054, Note_on_c, 3, 81, 0
7, 41070, Note_on_c, 3, 76, 100
7, 41084, Note_on_c, 3, 76, 0
7, 41100, Note_on_c, 3, 76, 100
7, 41114, Note_on_c, 3, 76, 0
7, 41130, Note_on_c, 3, 72, 100
7, 41144, Note_on_c, 3, 72, 0
7, 41160, Note_on_c, 3, 72, 100
7, 41174, Note_on_c, 3, 72, 0
7, 41175, Note_on_c, 3, 76, 100
7, 41189, Note_on_c, 3, 76, 0
7, 41190, Note_on_c, 3, 78, 100
7, 41204, Note_on_c, 3, 78, 0
7, 41205, Note_on_c, 3, 79, 100
7, 41219, Note_on_c, 3, 79, 0
7, 41220, Note_on_c, 3, 81, 100
7, 41234, Note_on_c, 3, 81, 0
7, 41235, Note_on_c, 3, 83, 100
7, 41249, Note_on_c, 3, 83, 0
7, 41250, Note_on_c, 3, 81, 100
7, 41264, Note_on_c, 3, 81, 0
7, 41265, Note_on_c, 3, 79, 100
7, 41279, Note_on_c, 3, 79, 0
7, 41280, Note_on_c, 3, 78, 100
7, 41294, Note_on_c, 3, 78, 0
7, 41295, Note_on_c, 3, 76, 100
7, 41309, Note_on_c, 3, 76, 0
7, 41310, Note_on_c, 3, 74, 100
7, 41324, Note_on_c, 3, 74, 0
7, 41325, Note_on_c, 3, 72, 100
7, 41339, Note_on_c, 3, 72, 0
7, 41340, Note_on_c, 3, 71, 100
7, 41354, Note_on_c, 3, 71, 0
7, 41355, Note_on_c, 3, 67, 100
7, 41369, Note_on_c, 3, 67, 0
7, 41370, Note_on_c, 3, 69, 100
7, 41384, Note_on_c, 3, 69, 0
7, 41385, Note_on_c, 3, 71, 100
7, 41399, Note_on_c, 3, 71, 0
7, 41400, Note_on_c, 3, 73, 100
7, 41414, Note_on_c, 3, 73, 0
7, 41415, Note_on_c, 3, 69, 100
7, 41429, Note_on_c, 3, 69, 0
7, 41430, Note_on_c, 3, 71, 100
7, 41444, Note_on_c, 3, 71, 0
7, 41445, Note_on_c, 3, 73, 100
7, 41459, Note_on_c, 3, 73, 0
7, 41460, Note_on_c, 3, 74, 100
7, 41474, Note_on_c, 3, 74, 0
7, 41475, Note_on_c, 3, 71, 100
7, 41489, Note_on_c, 3, 71, 0
7, 41490, Note_on_c, 3, 73, 100
7, 41504, Note_on_c, 3, 73, 0
7, 41505, Note_on_c, 3, 74, 100
7, 41519, Note_on_c, 3, 74, 0
7, 41520, Note_on_c, 3, 76, 100
7, 41534, Note_on_c, 3, 76, 0
7, 41535, Note_on_c, 3, 73, 100
7, 41549, Note_on_c, 3, 73, 0
7, 41550, Note_on_c, 3, 74, 100
7, 41564, Note_on_c, 3, 74, 0
7, 41565, Note_on_c, 3, 76, 100
7, 41579, Note_on_c, 3, 76, 0
7, 41580, Note_on_c, 3, 78, 100
7, 41594, Note_on_c, 3, 78, 0
7, 41595, Note_on_c, 3, 74, 100
7, 41609, Note_on_c, 3, 74, 0
7, 41610, Note_on_c, 3, 76, 100
7, 41624, Note_on_c, 3, 76, 0
7, 41625, Note_on_c, 3, 78, 100
7, 41639, Note_on_c, 3, 78, 0
7, 41640, Note_on_c, 3, 79, 100
7, 41654, Note_on_c, 3, 79, 0
7, 41655, Note_on_c, 3, 76, 100
7, 41669, Note_on_c, 3, 76, 0
7, 41670, Note_on_c, 3, 78, 100
7, 41684, Note_on_c, 3, 78, 0
7, 41685, Note_on_c, 3, 79, 100
7, 41699, Note_on_c, 3, 79, 0
7, 41700, Note_on_c, 3, 81, 100
7, 41714, Note_on_c, 3, 81, 0
7, 41715, Note_on_c, 3, 78, 100
7, 41729, Note_on_c, 3, 78, 0
7, 41730, Note_on_c, 3, 79, 100
7, 41744, Note_on_c, 3, 79, 0
7, 41745, Note_on_c, 3, 81, 100
7, 41759, Note_on_c, 3, 81, 0
7, 41760, Note_on_c, 3, 83, 100
7, 41774, Note_on_c, 3, 83, 0
7, 41775, Note_on_c, 3, 79, 100
7, 41789, Note_on_c, 3, 79, 0
7, 41790, Note_on_c, 3, 81, 100
7, 41804, Note_on_c, 3, 81, 0
7, 41805, Note_on_c, 3, 83, 100
7, 41819, Note_on_c, 3, 83, 0
7, 41820, Note_on_c, 3, 85, 100
7, 41834, Note_on_c, 3, 85, 0
7, 41835, Note_on_c, 3, 81, 100
7, 41849, Note_on_c, 3, 81, 0
7, 41850, Note_on_c, 3, 83, 100
7, 41864, Note_on_c, 3, 83, 0
7, 41865, Note_on_c, 3, 85, 100
7, 41879, Note_on_c, 3, 85, 0
7, 41880, Note_on_c, 3, 86, 100
7, 41909, Note_on_c, 3, 86, 0
7, 41940, Note_on_c, 3, 69, 100
7, 41969, Note_on_c, 3, 69, 0
7, 42000, Note_on_c, 3, 73, 100
7, 42029, Note_on_c, 3, 73, 0
7, 42060, Note_on_c, 3, 74, 100
7, 42119, Note_on_c, 3, 74, 0
7, 42990, Note_on_c, 3, 74, 100
7, 43004, Note_on_c, 3, 74, 0
7, 43005, Note_on_c, 3, 76, 100
7, 43019, Note_on_c, 3, 76, 0
7, 43020, Note_on_c, 3, 78, 100
7, 43034, Note_on_c, 3, 78, 0
7, 43035, Note_on_c, 3, 76, 100
7, 43049, Note_on_c, 3, 76, 0
7, 43050, Note_on_c, 3, 78, 100
7, 43064, Note_on_c, 3, 78, 0
7, 43065, Note_on_c, 3, 76, 100
7, 43079, Note_on_c, 3, 76, 0
7, 43080, Note_on_c, 3, 78, 100
7, 43094, Note_on_c, 3, 78, 0
7, 43095, Note_on_c, 3, 76, 100
7, 43109, Note_on_c, 3, 76, 0
7, 43110, Note_on_c, 3, 74, 100
7, 43124, Note_on_c, 3, 74, 0
7, 43125, Note_on_c, 3, 76, 100
7, 43139, Note_on_c, 3, 76, 0
7, 43140, Note_on_c, 3, 78, 100
7, 43154, Note_on_c, 3, 78, 0
7, 43155, Note_on_c, 3, 86, 100
7, 43169, Note_on_c, 3, 86, 0
7, 43170, Note_on_c, 3, 85, 100
7, 43184, Note_on_c, 3, 85, 0
7, 43185, Note_on_c, 3, 83, 100
7, 43199, Note_on_c, 3, 83, 0
7, 43200, Note_on_c, 3, 81, 100
7, 43214, Note_on_c, 3, 81, 0
7, 43215, Note_on_c, 3, 86, 100
7, 43229, Note_on_c, 3, 86, 0
7, 43230, Note_on_c, 3, 85, 100
7, 43244, Note_on_c, 3, 85, 0
7, 43245, Note_on_c, 3, 83, 100
7, 43259, Note_on_c, 3, 83, 0
7, 43260, Note_on_c, 3, 81, 100
7, 43274, Note_on_c, 3, 81, 0
7, 43275, Note_on_c, 3, 79, 100
7, 43289, Note_on_c, 3, 79, 0
7, 43290, Note_on_c, 3, 78, 100
7, 43304, Note_on_c, 3, 78, 0
7, 43305, Note_on_c, 3, 76, 100
7, 43319, Note_on_c, 3, 76, 0
7, 43320, Note_on_c, 3, 74, 100
7, 43920, Note_on_c, 3, 74, 0
7, 43920, Note_on_c, 3, 74, 100
7, 43950, Note_on_c, 3, 74, 0
7, 43980, Note_on_c, 3, 74, 100
7, 44010, Note_on_c, 3, 74, 0
7, 44040, Note_on_c, 3, 74, 100
7, 44100, Note_on_c, 3, 74, 0
7, 44100, Note_on_c, 3, 73, 100
7, 44130, Note_on_c, 3, 73, 0
7, 44130, Note_on_c, 3, 71, 100
7, 44160, Note_on_c, 3, 71, 0
7, 44160, Note_on_c, 3, 73, 100
7, 44220, Note_on_c, 3, 73, 0
7, 44880, Note_on_c, 3, 79, 100
7, 44940, Note_on_c, 3, 79, 0
7, 44940, Note_on_c, 3, 78, 100
7, 45000, Note_on_c, 3, 78, 0
7, 45000, Note_on_c, 3, 76, 100
7, 45060, Note_on_c, 3, 76, 0
7, 45060, Note_on_c, 3, 74, 100
7, 45120, Note_on_c, 3, 74, 0
7, 45120, Note_on_c, 3, 81, 100
7, 45240, Note_on_c, 3, 81, 0
7, 45720, Note_on_c, 3, 71, 100
7, 45749, Note_on_c, 3, 71, 0
7, 45750, Note_on_c, 3, 73, 100
7, 45779, Note_on_c, 3, 73, 0
7, 45780, Note_on_c, 3, 74, 100
7, 45794, Note_on_c, 3, 74, 0
7, 45795, Note_on_c, 3, 73, 100
7, 45809, Note_on_c, 3, 73, 0
7, 45810, Note_on_c, 3, 71, 100
7, 45824, Note_on_c, 3, 71, 0
7, 45825, Note_on_c, 3, 73, 100
7, 45839, Note_on_c, 3, 73, 0
7, 45840, Note_on_c, 3, 74, 100
7, 45869, Note_on_c, 3, 74, 0
7, 45870, Note_on_c, 3, 73, 100
7, 45899, Note_on_c, 3, 73, 0
7, 45900, Note_on_c, 3, 74, 100
7, 45929, Note_on_c, 3, 74, 0
7, 45930, Note_on_c, 3, 76, 100
7, 45959, Note_on_c, 3, 76, 0
7, 45960, Note_on_c, 3, 78, 100
7, 45974, Note_on_c, 3, 78, 0
7, 45975, Note_on_c, 3, 76, 100
7, 45989, Note_on_c, 3, 76, 0
7, 45990, Note_on_c, 3, 74, 100
7, 46004, Note_on_c, 3, 74, 0
7, 46005, Note_on_c, 3, 76, 100
7, 46019, Note_on_c, 3, 76, 0
7, 46020, Note_on_c, 3, 78, 100
7, 46049, Note_on_c, 3, 78, 0
7, 46050, Note_on_c, 3, 76, 100
7, 46079, Note_on_c, 3, 76, 0
7, 46080, Note_on_c, 3, 78, 100
7, 46109, Note_on_c, 3, 78, 0
7, 46110, Note_on_c, 3, 80, 100
7, 46139, Note_on_c, 3, 80, 0
7, 46140, Note_on_c, 3, 81, 100
7, 46154, Note_on_c, 3, 81, 0
7, 46155, Note_on_c, 3, 80, 100
7, 46169, Note_on_c, 3, 80, 0
7, 46170, Note_on_c, 3, 78, 100
7, 46184, Note_on_c, 3, 78, 0
7, 46185, Note_on_c, 3, 80, 100
7, 46199, Note_on_c, 3, 80, 0
7, 46200, Note_on_c, 3, 81, 100
7, 46229, Note_on_c, 3, 81, 0
7, 46230, Note_on_c, 3, 76, 100
7, 46259, Note_on_c, 3, 76, 0
7, 46260, Note_on_c, 3, 73, 100
7, 46289, Note_on_c, 3, 73, 0
7, 46290, Note_on_c, 3, 81, 100
7, 46319, Note_on_c, 3, 81, 0
7, 46320, Note_on_c, 3, 71, 100
7, 46349, Note_on_c, 3, 71, 0
7, 46350, Note_on_c, 3, 80, 100
7, 46379, Note_on_c, 3, 80, 0
7, 46380, Note_on_c, 3, 69, 100
7, 46499, Note_on_c, 3, 69, 0
7, 46620, Note_on_c, 3, 67, 100
7, 46649, Note_on_c, 3, 67, 0
7, 46650, Note_on_c, 3, 69, 100
7, 46679, Note_on_c, 3, 69, 0
7, 46680, Note_on_c, 3, 71, 100
7, 46694, Note_on_c, 3, 71, 0
7, 46695, Note_on_c, 3, 69, 100
7, 46709, Note_on_c, 3, 69, 0
7, 46710, Note_on_c, 3, 67, 100
7, 46724, Note_on_c, 3, 67, 0
7, 46725, Note_on_c, 3, 69, 100
7, 46739, Note_on_c, 3, 69, 0
7, 46740, Note_on_c, 3, 71, 100
7, 46829, Note_on_c, 3, 71, 0
7, 46830, Note_on_c, 3, 73, 100
7, 46859, Note_on_c, 3, 73, 0
7, 46860, Note_on_c, 3, 74, 100
7, 46874, Note_on_c, 3, 74, 0
7, 46875, Note_on_c, 3, 73, 100
7, 46889, Note_on_c, 3, 73, 0
7, 46890, Note_on_c, 3, 71, 100
7, 46904, Note_on_c, 3, 71, 0
7, 46905, Note_on_c, 3, 73, 100
7, 46919, Note_on_c, 3, 73, 0
7, 46920, Note_on_c, 3, 74, 100
7, 46949, Note_on_c, 3, 74, 0
7, 46980, Note_on_c, 3, 74, 100
7, 47009, Note_on_c, 3, 74, 0
7, 47040, Note_on_c, 3, 73, 100
7, 47069, Note_on_c, 3, 73, 0
7, 47100, Note_on_c, 3, 74, 100
7, 47129, Note_on_c, 3, 74, 0
7, 47130, Note_on_c, 3, 73, 100
7, 47159, Note_on_c, 3, 73, 0
7, 47160, Note_on_c, 3, 74, 100
7, 47189, Note_on_c, 3, 74, 0
7, 47190, Note_on_c, 3, 78, 100
7, 47219, Note_on_c, 3, 78, 0
7, 47220, Note_on_c, 3, 76, 100
7, 47249, Note_on_c, 3, 76, 0
7, 47250, Note_on_c, 3, 74, 100
7, 47279, Note_on_c, 3, 74, 0
7, 47280, Note_on_c, 3, 73, 100
7, 47309, Note_on_c, 3, 73, 0
7, 47310, Note_on_c, 3, 71, 100
7, 47339, Note_on_c, 3, 71, 0
7, 47340, Note_on_c, 3, 73, 100
7, 47369, Note_on_c, 3, 73, 0
7, 47370, Note_on_c, 3, 76, 100
7, 47399, Note_on_c, 3, 76, 0
7, 47400, Note_on_c, 3, 75, 100
7, 47429, Note_on_c, 3, 75, 0
7, 47430, Note_on_c, 3, 78, 100
7, 47459, Note_on_c, 3, 78, 0
7, 47460, Note_on_c, 3, 76, 100
7, 47489, Note_on_c, 3, 76, 0
7, 47490, Note_on_c, 3, 75, 100
7, 47519, Note_on_c, 3, 75, 0
7, 47520, Note_on_c, 3, 76, 100
7, 47549, Note_on_c, 3, 76, 0
7, 47550, Note_on_c, 3, 78, 100
7, 47579, Note_on_c, 3, 78, 0
7, 47580, Note_on_c, 3, 79, 100
7, 47594, Note_on_c, 3, 79, 0
7, 47595, Note_on_c, 3, 78, 100
7, 47609, Note_on_c, 3, 78, 0
7, 47610, Note_on_c, 3, 76, 100
7, 47624, Note_on_c, 3, 76, 0
7, 47625, Note_on_c, 3, 78, 100
7, 47639, Note_on_c, 3, 78, 0
7, 47640, Note_on_c, 3, 79, 100
7, 47669, Note_on_c, 3, 79, 0
7, 47670, Note_on_c, 3, 78, 100
7, 47699, Note_on_c, 3, 78, 0
7, 47700, Note_on_c, 3, 76, 100
7, 47729, Note_on_c, 3, 76, 0
7, 47730, Note_on_c, 3, 74, 100
7, 47759, Note_on_c, 3, 74, 0
7, 47760, Note_on_c, 3, 73, 100
7, 47789, Note_on_c, 3, 73, 0
7, 47790, Note_on_c, 3, 71, 100
7, 47819, Note_on_c, 3, 71, 0
7, 47820, Note_on_c, 3, 70, 100
7, 47849, Note_on_c, 3, 70, 0
7, 47850, Note_on_c, 3, 73, 100
7, 47879, Note_on_c, 3, 73, 0
7, 47880, Note_on_c, 3, 76, 100
7, 47999, Note_on_c, 3, 76, 0
7, 48000, Note_on_c, 3, 67, 100
7, 48014, Note_on_c, 3, 67, 0
7, 48015, Note_on_c, 3, 66, 100
7, 48029, Note_on_c, 3, 66, 0
7, 48030, Note_on_c, 3, 64, 100
7, 48059, Note_on_c, 3, 64, 0
7, 48060, Note_on_c, 3, 64, 100
7, 48089, Note_on_c, 3, 64, 0
7, 48090, Note_on_c, 3, 66, 100
7, 48209, Note_on_c, 3, 66, 0
7, 48210, Note_on_c, 3, 68, 100
7, 48224, Note_on_c, 3, 68, 0
7, 48225, Note_on_c, 3, 70, 100
7, 48239, Note_on_c, 3, 70, 0
7, 48240, Note_on_c, 3, 71, 100
7, 48269, Note_on_c, 3, 71, 0
7, 48270, Note_on_c, 3, 73, 100
7, 48284, Note_on_c, 3, 73, 0
7, 48285, Note_on_c, 3, 75, 100
7, 48299, Note_on_c, 3, 75, 0
7, 48300, Note_on_c, 3, 76, 100
7, 48389, Note_on_c, 3, 76, 0
7, 48390, Note_on_c, 3, 74, 100
7, 48404, Note_on_c, 3, 74, 0
7, 48405, Note_on_c, 3, 73, 100
7, 48419, Note_on_c, 3, 73, 0
7, 48420, Note_on_c, 3, 74, 100
7, 48449, Note_on_c, 3, 74, 0
7, 48450, Note_on_c, 3, 73, 100
7, 48464, Note_on_c, 3, 73, 0
7, 48465, Note_on_c, 3, 71, 100
7, 48479, Note_on_c, 3, 71, 0
7, 48480, Note_on_c, 3, 74, 100
7, 48509, Note_on_c, 3, 74, 0
7, 48510, Note_on_c, 3, 71, 100
7, 48524, Note_on_c, 3, 71, 0
7, 48525, Note_on_c, 3, 73, 100
7, 48539, Note_on_c, 3, 73, 0
7, 48540, Note_on_c, 3, 74, 100
7, 48569, Note_on_c, 3, 74, 0
7, 48570, Note_on_c, 3, 74, 100
7, 48584, Note_on_c, 3, 74, 0
7, 48585, Note_on_c, 3, 73, 100
7, 48599, Note_on_c, 3, 73, 0
7, 48600, Note_on_c, 3, 71, 100
7, 48629, Note_on_c, 3, 71, 0
7, 48630, Note_on_c, 3, 74, 100
7, 48644, Note_on_c, 3, 74, 0
7, 48645, Note_on_c, 3, 73, 100
7, 48659, Note_on_c, 3, 73, 0
7, 48660, Note_on_c, 3, 71, 100
7, 48749, Note_on_c, 3, 71, 0
7, 48750, Note_on_c, 3, 68, 100
7, 48764, Note_on_c, 3, 68, 0
7, 48765, Note_on_c, 3, 69, 100
7, 48779, Note_on_c, 3, 69, 0
7, 48780, Note_on_c, 3, 71, 100
7, 48809, Note_on_c, 3, 71, 0
7, 48810, Note_on_c, 3, 68, 100
7, 48824, Note_on_c, 3, 68, 0
7, 48825, Note_on_c, 3, 69, 100
7, 48839, Note_on_c, 3, 69, 0
7, 48840, Note_on_c, 3, 71, 100
7, 48929, Note_on_c, 3, 71, 0
7, 48930, Note_on_c, 3, 73, 100
7, 48944, Note_on_c, 3, 73, 0
7, 48945, Note_on_c, 3, 74, 100
7, 48959, Note_on_c, 3, 74, 0
7, 48960, Note_on_c, 3, 76, 100
7, 48989, Note_on_c, 3, 76, 0
7, 48990, Note_on_c, 3, 74, 100
7, 49004, Note_on_c, 3, 74, 0
7, 49005, Note_on_c, 3, 73, 100
7, 49019, Note_on_c, 3, 73, 0
7, 49020, Note_on_c, 3, 74, 100
7, 49049, Note_on_c, 3, 74, 0
7, 49050, Note_on_c, 3, 73, 100
7, 49064, Note_on_c, 3, 73, 0
7, 49065, Note_on_c, 3, 71, 100
7, 49079, Note_on_c, 3, 71, 0
7, 49080, Note_on_c, 3, 73, 100
7, 49109, Note_on_c, 3, 73, 0
7, 49110, Note_on_c, 3, 73, 100
7, 49124, Note_on_c, 3, 73, 0
7, 49125, Note_on_c, 3, 71, 100
7, 49139, Note_on_c, 3, 71, 0
7, 49140, Note_on_c, 3, 69, 100
7, 49169, Note_on_c, 3, 69, 0
7, 49170, Note_on_c, 3, 73, 100
7, 49184, Note_on_c, 3, 73, 0
7, 49185, Note_on_c, 3, 71, 100
7, 49199, Note_on_c, 3, 71, 0
7, 49200, Note_on_c, 3, 69, 100
7, 49289, Note_on_c, 3, 69, 0
7, 49290, Note_on_c, 3, 78, 100
7, 49305, Note_on_c, 3, 78, 0
7, 49320, Note_on_c, 3, 78, 100
7, 49335, Note_on_c, 3, 78, 0
7, 49350, Note_on_c, 3, 73, 100
7, 49365, Note_on_c, 3, 73, 0
7, 49380, Note_on_c, 3, 73, 100
7, 49395, Note_on_c, 3, 73, 0
7, 49410, Note_on_c, 3, 69, 100
7, 49425, Note_on_c, 3, 69, 0
7, 49440, Note_on_c, 3, 69, 100
7, 49454, Note_on_c, 3, 69, 0
7, 49455, Note_on_c, 3, 73, 100
7, 49469, Note_on_c, 3, 73, 0
7, 49470, Note_on_c, 3, 75, 100
7, 49484, Note_on_c, 3, 75, 0
7, 49485, Note_on_c, 3, 76, 100
7, 49499, Note_on_c, 3, 76, 0
7, 49500, Note_on_c, 3, 78, 100
7, 49514, Note_on_c, 3, 78, 0
7, 49515, Note_on_c, 3, 80, 100
7, 49529, Note_on_c, 3, 80, 0
7, 49530, Note_on_c, 3, 78, 100
7, 49544, Note_on_c, 3, 78, 0
7, 49545, Note_on_c, 3, 76, 100
7, 49559, Note_on_c, 3, 76, 0
7, 49560, Note_on_c, 3, 75, 100
7, 49574, Note_on_c, 3, 75, 0
7, 49575, Note_on_c, 3, 73, 100
7, 49589, Note_on_c, 3, 73, 0
7, 49590, Note_on_c, 3, 71, 100
7, 49604, Note_on_c, 3, 71, 0
7, 49605, Note_on_c, 3, 69, 100
7, 49619, Note_on_c, 3, 69, 0
7, 49620, Note_on_c, 3, 68, 100
7, 49634, Note_on_c, 3, 68, 0
7, 49650, Note_on_c, 3, 76, 100
7, 49664, Note_on_c, 3, 76, 0
7, 49680, Note_on_c, 3, 76, 100
7, 49694, Note_on_c, 3, 76, 0
7, 49710, Note_on_c, 3, 71, 100
7, 49724, Note_on_c, 3, 71, 0
7, 49740, Note_on_c, 3, 71, 100
7, 49754, Note_on_c, 3, 71, 0
7, 49770, Note_on_c, 3, 67, 100
7, 49784, Note_on_c, 3, 67, 0
7, 49800, Note_on_c, 3, 67, 100
7, 49814, Note_on_c, 3, 67, 0
7, 49815, Note_on_c, 3, 71, 100
7, 49829, Note_on_c, 3, 71, 0
7, 49830, Note_on_c, 3, 73, 100
7, 49844, Note_on_c, 3, 73, 0
7, 49845, Note_on_c, 3, 74, 100
7, 49859, Note_on_c, 3, 74, 0
7, 49860, Note_on_c, 3, 76, 100
7, 49874, Note_on_c, 3, 76, 0
7, 49875, Note_on_c, 3, 78, 100
7, 49889, Note_on_c, 3, 78, 0
7, 49890, Note_on_c, 3, 76, 100
7, 49904, Note_on_c, 3, 76, 0
7, 49905, Note_on_c, 3, 74, 100
7, 49919, Note_on_c, 3, 74, 0
7, 49920, Note_on_c, 3, 73, 100
7, 49934, Note_on_c, 3, 73, 0
7, 49935, Note_on_c, 3, 71, 100
7, 49949, Note_on_c, 3, 71, 0
7, 49950, Note_on_c, 3, 69, 100
7, 49964, Note_on_c, 3, 69, 0
7, 49965, Note_on_c, 3, 67, 100
7, 49979, Note_on_c, 3, 67, 0
7, 49980, Note_on_c, 3, 66, 100
7, 49994, Note_on_c, 3, 66, 0
7, 49995, Note_on_c, 3, 62, 100
7, 50009, Note_on_c, 3, 62, 0
7, 50010, Note_on_c, 3, 64, 100
7, 50024, Note_on_c, 3, 64, 0
7, 50025, Note_on_c, 3, 66, 100
7, 50039, Note_on_c, 3, 66, 0
7, 50040, Note_on_c, 3, 68, 100
7, 50054, Note_on_c, 3, 68, 0
7, 50055, Note_on_c, 3, 64, 100
7, 50069, Note_on_c, 3, 64, 0
7, 50070, Note_on_c, 3, 66, 100
7, 50084, Note_on_c, 3, 66, 0
7, 50085, Note_on_c, 3, 68, 100
7, 50099, Note_on_c, 3, 68, 0
7, 50100, Note_on_c, 3, 69, 100
7, 50114, Note_on_c, 3, 69, 0
7, 50115, Note_on_c, 3, 66, 100
7, 50129, Note_on_c, 3, 66, 0
7, 50130, Note_on_c, 3, 68, 100
7, 50144, Note_on_c, 3, 68, 0
7, 50145, Note_on_c, 3, 69, 100
7, 50159, Note_on_c, 3, 69, 0
7, 50160, Note_on_c, 3, 71, 100
7, 50174, Note_on_c, 3, 71, 0
7, 50175, Note_on_c, 3, 68, 100
7, 50189, Note_on_c, 3, 68, 0
7, 50190, Note_on_c, 3, 69, 100
7, 50204, Note_on_c, 3, 69, 0
7, 50205, Note_on_c, 3, 71, 100
7, 50219, Note_on_c, 3, 71, 0
7, 50220, Note_on_c, 3, 73, 100
7, 50234, Note_on_c, 3, 73, 0
7, 50235, Note_on_c, 3, 69, 100
7, 50249, Note_on_c, 3, 69, 0
7, 50250, Note_on_c, 3, 71, 100
7, 50264, Note_on_c, 3, 71, 0
7, 50265, Note_on_c, 3, 73, 100
7, 50279, Note_on_c, 3, 73, 0
7, 50280, Note_on_c, 3, 74, 100
7, 50294, Note_on_c, 3, 74, 0
7, 50295, Note_on_c, 3, 71, 100
7, 50309, Note_on_c, 3, 71, 0
7, 50310, Note_on_c, 3, 73, 100
7, 50324, Note_on_c, 3, 73, 0
7, 50325, Note_on_c, 3, 74, 100
7, 50339, Note_on_c, 3, 74, 0
7, 50340, Note_on_c, 3, 76, 100
7, 50354, Note_on_c, 3, 76, 0
7, 50355, Note_on_c, 3, 73, 100
7, 50369, Note_on_c, 3, 73, 0
7, 50370, Note_on_c, 3, 74, 100
7, 50384, Note_on_c, 3, 74, 0
7, 50385, Note_on_c, 3, 76, 100
7, 50399, Note_on_c, 3, 76, 0
7, 50400, Note_on_c, 3, 78, 100
7, 50414, Note_on_c, 3, 78, 0
7, 50415, Note_on_c, 3, 74, 100
7, 50429, Note_on_c, 3, 74, 0
7, 50430, Note_on_c, 3, 76, 100
7, 50444, Note_on_c, 3, 76, 0
7, 50445, Note_on_c, 3, 78, 100
7, 50459, Note_on_c, 3, 78, 0
7, 50460, Note_on_c, 3, 80, 100
7, 50474, Note_on_c, 3, 80, 0
7, 50475, Note_on_c, 3, 76, 100
7, 50489, Note_on_c, 3, 76, 0
7, 50490, Note_on_c, 3, 78, 100
7, 50504, Note_on_c, 3, 78, 0
7, 50505, Note_on_c, 3, 80, 100
7, 50519, Note_on_c, 3, 80, 0
7, 50520, Note_on_c, 3, 81, 100
7, 50549, Note_on_c, 3, 81, 0
7, 50580, Note_on_c, 3, 83, 100
7, 50609, Note_on_c, 3, 83, 0
7, 50640, Note_on_c, 3, 80, 100
7, 50669, Note_on_c, 3, 80, 0
7, 50700, Note_on_c, 3, 81, 100
7, 50759, Note_on_c, 3, 81, 0
7, 51360, Note_on_c, 3, 73, 100
7, 51389, Note_on_c, 3, 73, 0
7, 51390, Note_on_c, 3, 74, 100
7, 51419, Note_on_c, 3, 74, 0
7, 51420, Note_on_c, 3, 76, 100
7, 51449, Note_on_c, 3, 76, 0
7, 51480, Note_on_c, 3, 76, 100
7, 51509, Note_on_c, 3, 76, 0
7, 51540, Note_on_c, 3, 76, 100
7, 51569, Note_on_c, 3, 76, 0
7, 51600, Note_on_c, 3, 76, 100
7, 51659, Note_on_c, 3, 76, 0
7, 51660, Note_on_c, 3, 74, 100
7, 51689, Note_on_c, 3, 74, 0
7, 51690, Note_on_c, 3, 73, 100
7, 51719, Note_on_c, 3, 73, 0
7, 51720, Note_on_c, 3, 74, 100
7, 51779, Note_on_c, 3, 74, 0
7, 51780, Note_on_c, 3, 81, 100
7, 51839, Note_on_c, 3, 81, 0
7, 51840, Note_on_c, 3, 79, 100
7, 51869, Note_on_c, 3, 79, 0
7, 51870, Note_on_c, 3, 78, 100
7, 51899, Note_on_c, 3, 78, 0
7, 51900, Note_on_c, 3, 76, 100
7, 51929, Note_on_c, 3, 76, 0
7, 51930, Note_on_c, 3, 74, 100
7, 51959, Note_on_c, 3, 74, 0
7, 51960, Note_on_c, 3, 73, 100
7, 51989, Note_on_c, 3, 73, 0
7, 51990, Note_on_c, 3, 71, 100
7, 52019, Note_on_c, 3, 71, 0
7, 52020, Note_on_c, 3, 69, 100
7, 52049, Note_on_c, 3, 69, 0
7, 52050, Note_on_c, 3, 67, 100
7, 52079, Note_on_c, 3, 67, 0
7, 52080, Note_on_c, 3, 66, 100
7, 52109, Note_on_c, 3, 66, 0
7, 52110, Note_on_c, 3, 64, 100
7, 52139, Note_on_c, 3, 64, 0
7, 52140, Note_on_c, 3, 62, 100
7, 52199, Note_on_c, 3, 62, 0
7, 52350, Note_on_c, 3, 74, 100
7, 52364, Note_on_c, 3, 74, 0
7, 52365, Note_on_c, 3, 76, 100
7, 52379, Note_on_c, 3, 76, 0
7, 52380, Note_on_c, 3, 78, 100
7, 52394, Note_on_c, 3, 78, 0
7, 52395, Note_on_c, 3, 76, 100
7, 52409, Note_on_c, 3, 76, 0
7, 52410, Note_on_c, 3, 78, 100
7, 52424, Note_on_c, 3, 78, 0
7, 52425, Note_on_c, 3, 76, 100
7, 52439, Note_on_c, 3, 76, 0
7, 52440, Note_on_c, 3, 78, 100
7, 52454, Note_on_c, 3, 78, 0
7, 52455, Note_on_c, 3, 76, 100
7, 52469, Note_on_c, 3, 76, 0
7, 52470, Note_on_c, 3, 74, 100
7, 52484, Note_on_c, 3, 74, 0
7, 52485, Note_on_c, 3, 76, 100
7, 52499, Note_on_c, 3, 76, 0
7, 52500, Note_on_c, 3, 78, 100
7, 52559, Note_on_c, 3, 78, 0
7, 52680, Note_on_c, 3, 81, 100
7, 52739, Note_on_c, 3, 81, 0
7, 52860, Note_on_c, 3, 78, 100
7, 52919, Note_on_c, 3, 78, 0
7, 53040, Note_on_c, 3, 78, 100
7, 53099, Note_on_c, 3, 78, 0
7, 53235, Note_on_c, 3, 86, 100
7, 53249, Note_on_c, 3, 86, 0
7, 53250, Note_on_c, 3, 85, 100
7, 53264, Note_on_c, 3, 85, 0
7, 53265, Note_on_c, 3, 83, 100
7, 53279, Note_on_c, 3, 83, 0
7, 53280, Note_on_c, 3, 81, 100
7, 53294, Note_on_c, 3, 81, 0
7, 53295, Note_on_c, 3, 86, 100
7, 53309, Note_on_c, 3, 86, 0
7, 53310, Note_on_c, 3, 85, 100
7, 53324, Note_on_c, 3, 85, 0
7, 53325, Note_on_c, 3, 83, 100
7, 53339, Note_on_c, 3, 83, 0
7, 53340, Note_on_c, 3, 81, 100
7, 53354, Note_on_c, 3, 81, 0
7, 53355, Note_on_c, 3, 79, 100
7, 53369, Note_on_c, 3, 79, 0
7, 53370, Note_on_c, 3, 78, 100
7, 53384, Note_on_c, 3, 78, 0
7, 53385, Note_on_c, 3, 76, 100
7, 53399, Note_on_c, 3, 76, 0
7, 53400, Note_on_c, 3, 74, 100
7, 54000, Note_on_c, 3, 74, 0
7, 54000, Note_on_c, 3, 74, 100
7, 54029, Note_on_c, 3, 74, 0
7, 54060, Note_on_c, 3, 74, 100
7, 54089, Note_on_c, 3, 74, 0
7, 54120, Note_on_c, 3, 74, 100
7, 54179, Note_on_c, 3, 74, 0
7, 54180, Note_on_c, 3, 73, 100
7, 54209, Note_on_c, 3, 73, 0
7, 54210, Note_on_c, 3, 71, 100
7, 54239, Note_on_c, 3, 71, 0
7, 54240, Note_on_c, 3, 73, 100
7, 54299, Note_on_c, 3, 73, 0
7, 54960, Note_on_c, 3, 79, 100
7, 55019, Note_on_c, 3, 79, 0
7, 55020, Note_on_c, 3, 78, 100
7, 55079, Note_on_c, 3, 78, 0
7, 55080, Note_on_c, 3, 76, 100
7, 55139, Note_on_c, 3, 76, 0
7, 55140, Note_on_c, 3, 74, 100
7, 55199, Note_on_c, 3, 74, 0
7, 55200, Note_on_c, 3, 81, 100
7, 55319, Note_on_c, 3, 81, 0
7, 55980, Note_on_c, 3, 76, 100
7, 56009, Note_on_c, 3, 76, 0
7, 56010, Note_on_c, 3, 78, 100
7, 56039, Note_on_c, 3, 78, 0
7, 56040, Note_on_c, 3, 79, 100
7, 56054, Note_on_c, 3, 79, 0
7, 56055, Note_on_c, 3, 78, 100
7, 56069, Note_on_c, 3, 78, 0
7, 56070, Note_on_c, 3, 76, 100
7, 56084, Note_on_c, 3, 76, 0
7, 56085, Note_on_c, 3, 78, 100
7, 56099, Note_on_c, 3, 78, 0
7, 56100, Note_on_c, 3, 79, 100
7, 56129, Note_on_c, 3, 79, 0
7, 56160, Note_on_c, 3, 78, 100
7, 56189, Note_on_c, 3, 78, 0
7, 56220, Note_on_c, 3, 76, 100
7, 56249, Note_on_c, 3, 76, 0
7, 56280, Note_on_c, 3, 74, 100
7, 56309, Note_on_c, 3, 74, 0
7, 56310, Note_on_c, 3, 76, 100
7, 56339, Note_on_c, 3, 76, 0
7, 56340, Note_on_c, 3, 78, 100
7, 56369, Note_on_c, 3, 78, 0
7, 56370, Note_on_c, 3, 79, 100
7, 56399, Note_on_c, 3, 79, 0
7, 56400, Note_on_c, 3, 81, 100
7, 56414, Note_on_c, 3, 81, 0
7, 56415, Note_on_c, 3, 79, 100
7, 56429, Note_on_c, 3, 79, 0
7, 56430, Note_on_c, 3, 78, 100
7, 56444, Note_on_c, 3, 78, 0
7, 56445, Note_on_c, 3, 79, 100
7, 56459, Note_on_c, 3, 79, 0
7, 56460, Note_on_c, 3, 81, 100
7, 56489, Note_on_c, 3, 81, 0
7, 56520, Note_on_c, 3, 74, 100
7, 56549, Note_on_c, 3, 74, 0
7, 56580, Note_on_c, 3, 76, 100
7, 56609, Note_on_c, 3, 76, 0
7, 56640, Note_on_c, 3, 73, 100
7, 56699, Note_on_c, 3, 73, 0
7, 56880, Note_on_c, 3, 78, 100
7, 56909, Note_on_c, 3, 78, 0
7, 56910, Note_on_c, 3, 80, 100
7, 56939, Note_on_c, 3, 80, 0
7, 56940, Note_on_c, 3, 81, 100
7, 56954, Note_on_c, 3, 81, 0
7, 56955, Note_on_c, 3, 80, 100
7, 56969, Note_on_c, 3, 80, 0
7, 56970, Note_on_c, 3, 78, 100
7, 56984, Note_on_c, 3, 78, 0
7, 56985, Note_on_c, 3, 80, 100
7, 56999, Note_on_c, 3, 80, 0
7, 57000, Note_on_c, 3, 81, 100
7, 57029, Note_on_c, 3, 81, 0
7, 57060, Note_on_c, 3, 76, 100
7, 57089, Note_on_c, 3, 76, 0
7, 57090, Note_on_c, 3, 78, 100
7, 57119, Note_on_c, 3, 78, 0
7, 57120, Note_on_c, 3, 79, 100
7, 57134, Note_on_c, 3, 79, 0
7, 57135, Note_on_c, 3, 78, 100
7, 57149, Note_on_c, 3, 78, 0
7, 57150, Note_on_c, 3, 76, 100
7, 57164, Note_on_c, 3, 76, 0
7, 57165, Note_on_c, 3, 78, 100
7, 57179, Note_on_c, 3, 78, 0
7, 57180, Note_on_c, 3, 79, 100
7, 57209, Note_on_c, 3, 79, 0
7, 57240, Note_on_c, 3, 72, 100
7, 57269, Note_on_c, 3, 72, 0
7, 57300, Note_on_c, 3, 72, 100
7, 57329, Note_on_c, 3, 72, 0
7, 57360, Note_on_c, 3, 71, 100
7, 57419, Note_on_c, 3, 71, 0
7, 57420, Note_on_c, 3, 74, 100
7, 57479, Note_on_c, 3, 74, 0
7, 57480, Note_on_c, 3, 79, 100
7, 57539, Note_on_c, 3, 79, 0
7, 57540, Note_on_c, 3, 78, 100
7, 57599, Note_on_c, 3, 78, 0
7, 57600, Note_on_c, 3, 69, 100
7, 57659, Note_on_c, 3, 69, 0
7, 57660, Note_on_c, 3, 74, 100
7, 57719, Note_on_c, 3, 74, 0
7, 57720, Note_on_c, 3, 73, 100
7, 57749, Note_on_c, 3, 73, 0
7, 57750, Note_on_c, 3, 71, 100
7, 57779, Note_on_c, 3, 71, 0
7, 57780, Note_on_c, 3, 73, 100
7, 57809, Note_on_c, 3, 73, 0
7, 57810, Note_on_c, 3, 74, 100
7, 57839, Note_on_c, 3, 74, 0
7, 57840, Note_on_c, 3, 76, 100
7, 57869, Note_on_c, 3, 76, 0
7, 57870, Note_on_c, 3, 78, 100
7, 57899, Note_on_c, 3, 78, 0
7, 57900, Note_on_c, 3, 75, 100
7, 57929, Note_on_c, 3, 75, 0
7, 57930, Note_on_c, 3, 78, 100
7, 57959, Note_on_c, 3, 78, 0
7, 57960, Note_on_c, 3, 81, 100
7, 58079, Note_on_c, 3, 81, 0
7, 58080, Note_on_c, 3, 72, 100
7, 58094, Note_on_c, 3, 72, 0
7, 58095, Note_on_c, 3, 71, 100
7, 58109, Note_on_c, 3, 71, 0
7, 58110, Note_on_c, 3, 69, 100
7, 58139, Note_on_c, 3, 69, 0
7, 58140, Note_on_c, 3, 69, 100
7, 58169, Note_on_c, 3, 69, 0
7, 58170, Note_on_c, 3, 71, 100
7, 58289, Note_on_c, 3, 71, 0
7, 58290, Note_on_c, 3, 73, 100
7, 58304, Note_on_c, 3, 73, 0
7, 58305, Note_on_c, 3, 75, 100
7, 58319, Note_on_c, 3, 75, 0
7, 58320, Note_on_c, 3, 76, 100
7, 58349, Note_on_c, 3, 76, 0
7, 58350, Note_on_c, 3, 78, 100
7, 58364, Note_on_c, 3, 78, 0
7, 58365, Note_on_c, 3, 79, 100
7, 58379, Note_on_c, 3, 79, 0
7, 58380, Note_on_c, 3, 81, 100
7, 58469, Note_on_c, 3, 81, 0
7, 58470, Note_on_c, 3, 79, 100
7, 58484, Note_on_c, 3, 79, 0
7, 58485, Note_on_c, 3, 78, 100
7, 58499, Note_on_c, 3, 78, 0
7, 58500, Note_on_c, 3, 79, 100
7, 58529, Note_on_c, 3, 79, 0
7, 58530, Note_on_c, 3, 78, 100
7, 58544, Note_on_c, 3, 78, 0
7, 58545, Note_on_c, 3, 76, 100
7, 58559, Note_on_c, 3, 76, 0
7, 58560, Note_on_c, 3, 79, 100
7, 58589, Note_on_c, 3, 79, 0
7, 58590, Note_on_c, 3, 76, 100
7, 58604, Note_on_c, 3, 76, 0
7, 58605, Note_on_c, 3, 78, 100
7, 58619, Note_on_c, 3, 78, 0
7, 58620, Note_on_c, 3, 79, 100
7, 58649, Note_on_c, 3, 79, 0
7, 58650, Note_on_c, 3, 79, 100
7, 58664, Note_on_c, 3, 79, 0
7, 58665, Note_on_c, 3, 78, 100
7, 58679, Note_on_c, 3, 78, 0
7, 58680, Note_on_c, 3, 76, 100
7, 58709, Note_on_c, 3, 76, 0
7, 58710, Note_on_c, 3, 79, 100
7, 58724, Note_on_c, 3, 79, 0
7, 58725, Note_on_c, 3, 78, 100
7, 58739, Note_on_c, 3, 78, 0
7, 58740, Note_on_c, 3, 76, 100
7, 58829, Note_on_c, 3, 76, 0
7, 58830, Note_on_c, 3, 73, 100
7, 58844, Note_on_c, 3, 73, 0
7, 58845, Note_on_c, 3, 74, 100
7, 58859, Note_on_c, 3, 74, 0
7, 58860, Note_on_c, 3, 76, 100
7, 58889, Note_on_c, 3, 76, 0
7, 58890, Note_on_c, 3, 73, 100
7, 58904, Note_on_c, 3, 73, 0
7, 58905, Note_on_c, 3, 74, 100
7, 58919, Note_on_c, 3, 74, 0
7, 58920, Note_on_c, 3, 76, 100
7, 59009, Note_on_c, 3, 76, 0
7, 59010, Note_on_c, 3, 78, 100
7, 59024, Note_on_c, 3, 78, 0
7, 59025, Note_on_c, 3, 79, 100
7, 59039, Note_on_c, 3, 79, 0
7, 59040, Note_on_c, 3, 81, 100
7, 59069, Note_on_c, 3, 81, 0
7, 59070, Note_on_c, 3, 79, 100
7, 59084, Note_on_c, 3, 79, 0
7, 59085, Note_on_c, 3, 78, 100
7, 59099, Note_on_c, 3, 78, 0
7, 59100, Note_on_c, 3, 79, 100
7, 59129, Note_on_c, 3, 79, 0
7, 59130, Note_on_c, 3, 78, 100
7, 59144, Note_on_c, 3, 78, 0
7, 59145, Note_on_c, 3, 76, 100
7, 59159, Note_on_c, 3, 76, 0
7, 59160, Note_on_c, 3, 78, 100
7, 59189, Note_on_c, 3, 78, 0
7, 59190, Note_on_c, 3, 78, 100
7, 59204, Note_on_c, 3, 78, 0
7, 59205, Note_on_c, 3, 76, 100
7, 59219, Note_on_c, 3, 76, 0
7, 59220, Note_on_c, 3, 74, 100
7, 59249, Note_on_c, 3, 74, 0
7, 59250, Note_on_c, 3, 78, 100
7, 59264, Note_on_c, 3, 78, 0
7, 59265, Note_on_c, 3, 76, 100
7, 59279, Note_on_c, 3, 76, 0
7, 59280, Note_on_c, 3, 74, 100
7, 59369, Note_on_c, 3, 74, 0
7, 59370, Note_on_c, 3, 83, 100
7, 59384, Note_on_c, 3, 83, 0
7, 59400, Note_on_c, 3, 83, 100
7, 59414, Note_on_c, 3, 83, 0
7, 59430, Note_on_c, 3, 78, 100
7, 59444, Note_on_c, 3, 78, 0
7, 59460, Note_on_c, 3, 78, 100
7, 59474, Note_on_c, 3, 78, 0
7, 59490, Note_on_c, 3, 74, 100
7, 59504, Note_on_c, 3, 74, 0
7, 59520, Note_on_c, 3, 74, 100
7, 59534, Note_on_c, 3, 74, 0
7, 59535, Note_on_c, 3, 78, 100
7, 59549, Note_on_c, 3, 78, 0
7, 59550, Note_on_c, 3, 80, 100
7, 59564, Note_on_c, 3, 80, 0
7, 59565, Note_on_c, 3, 81, 100
7, 59579, Note_on_c, 3, 81, 0
7, 59580, Note_on_c, 3, 83, 100
7, 59594, Note_on_c, 3, 83, 0
7, 59595, Note_on_c, 3, 85, 100
7, 59609, Note_on_c, 3, 85, 0
7, 59610, Note_on_c, 3, 83, 100
7, 59624, Note_on_c, 3, 83, 0
7, 59625, Note_on_c, 3, 81, 100
7, 59639, Note_on_c, 3, 81, 0
7, 59640, Note_on_c, 3, 80, 100
7, 59654, Note_on_c, 3, 80, 0
7, 59655, Note_on_c, 3, 78, 100
7, 59669, Note_on_c, 3, 78, 0
7, 59670, Note_on_c, 3, 76, 100
7, 59684, Note_on_c, 3, 76, 0
7, 59685, Note_on_c, 3, 74, 100
7, 59699, Note_on_c, 3, 74, 0
7, 59700, Note_on_c, 3, 73, 100
7, 59714, Note_on_c, 3, 73, 0
7, 59730, Note_on_c, 3, 81, 100
7, 59744, Note_on_c, 3, 81, 0
7, 59760, Note_on_c, 3, 81, 100
7, 59774, Note_on_c, 3, 81, 0
7, 59790, Note_on_c, 3, 76, 100
7, 59804, Note_on_c, 3, 76, 0
7, 59820, Note_on_c, 3, 76, 100
7, 59834, Note_on_c, 3, 76, 0
7, 59850, Note_on_c, 3, 72, 100
7, 59864, Note_on_c, 3, 72, 0
7, 59880, Note_on_c, 3, 72, 100
7, 59894, Note_on_c, 3, 72, 0
7, 59895, Note_on_c, 3, 76, 100
7, 59909, Note_on_c, 3, 76, 0
7, 59910, Note_on_c, 3, 78, 100
7, 59924, Note_on_c, 3, 78, 0
7, 59925, Note_on_c, 3, 79, 100
7, 59939, Note_on_c, 3, 79, 0
7, 59940, Note_on_c, 3, 81, 100
7, 59954, Note_on_c, 3, 81, 0
7, 59955, Note_on_c, 3, 83, 100
7, 59969, Note_on_c, 3, 83, 0
7, 59970, Note_on_c, 3, 81, 100
7, 59984, Note_on_c, 3, 81, 0
7, 59985, Note_on_c, 3, 79, 100
7, 59999, Note_on_c, 3, 79, 0
7, 60000, Note_on_c, 3, 78, 100
7, 60014, Note_on_c, 3, 78, 0
7, 60015, Note_on_c, 3, 76, 100
7, 60029, Note_on_c, 3, 76, 0
7, 60030, Note_on_c, 3, 74, 100
7, 60044, Note_on_c, 3, 74, 0
7, 60045, Note_on_c, 3, 72, 100
7, 60059, Note_on_c, 3, 72, 0
7, 60060, Note_on_c, 3, 71, 100
7, 60074, Note_on_c, 3, 71, 0
7, 60075, Note_on_c, 3, 67, 100
7, 60089, Note_on_c, 3, 67, 0
7, 60090, Note_on_c, 3, 69, 100
7, 60104, Note_on_c, 3, 69, 0
7, 60105, Note_on_c, 3, 71, 100
7, 60119, Note_on_c, 3, 71, 0
7, 60120, Note_on_c, 3, 73, 100
7, 60134, Note_on_c, 3, 73, 0
7, 60135, Note_on_c, 3, 69, 100
7, 60149, Note_on_c, 3, 69, 0
7, 60150, Note_on_c, 3, 71, 100
7, 60164, Note_on_c, 3, 71, 0
7, 60165, Note_on_c, 3, 73, 100
7, 60179, Note_on_c, 3, 73, 0
7, 60180, Note_on_c, 3, 74, 100
7, 60194, Note_on_c, 3, 74, 0
7, 60195, Note_on_c, 3, 71, 100
7, 60209, Note_on_c, 3, 71, 0
7, 60210, Note_on_c, 3, 73, 100
7, 60224, Note_on_c, 3, 73, 0
7, 60225, Note_on_c, 3, 74, 100
7, 60239, Note_on_c, 3, 74, 0
7, 60240, Note_on_c, 3, 76, 100
7, 60254, Note_on_c, 3, 76, 0
7, 60255, Note_on_c, 3, 73, 100
7, 60269, Note_on_c, 3, 73, 0
7, 60270, Note_on_c, 3, 74, 100
7, 60284, Note_on_c, 3, 74, 0
7, 60285, Note_on_c, 3, 76, 100
7, 60299, Note_on_c, 3, 76, 0
7, 60300, Note_on_c, 3, 78, 100
7, 60314, Note_on_c, 3, 78, 0
7, 60315, Note_on_c, 3, 74, 100
7, 60329, Note_on_c, 3, 74, 0
7, 60330, Note_on_c, 3, 76, 100
7, 60344, Note_on_c, 3, 76, 0
7, 60345, Note_on_c, 3, 78, 100
7, 60359, Note_on_c, 3, 78, 0
7, 60360, Note_on_c, 3, 79, 100
7, 60374, Note_on_c, 3, 79, 0
7, 60375, Note_on_c, 3, 76, 100
7, 60389, Note_on_c, 3, 76, 0
7, 60390, Note_on_c, 3, 78, 100
7, 60404, Note_on_c, 3, 78, 0
7, 60405, Note_on_c, 3, 79, 100
7, 60419, Note_on_c, 3, 79, 0
7, 60420, Note_on_c, 3, 81, 100
7, 60434, Note_on_c, 3, 81, 0
7, 60435, Note_on_c, 3, 78, 100
7, 60449, Note_on_c, 3, 78, 0
7, 60450, Note_on_c, 3, 79, 100
7, 60464, Note_on_c, 3, 79, 0
7, 60465, Note_on_c, 3, 81, 100
7, 60479, Note_on_c, 3, 81, 0
7, 60480, Note_on_c, 3, 83, 100
7, 60494, Note_on_c, 3, 83, 0
7, 60495, Note_on_c, 3, 79, 100
7, 60509, Note_on_c, 3, 79, 0
7, 60510, Note_on_c, 3, 81, 100
7, 60524, Note_on_c, 3, 81, 0
7, 60525, Note_on_c, 3, 83, 100
7, 60539, Note_on_c, 3, 83, 0
7, 60540, Note_on_c, 3, 85, 100
7, 60554, Note_on_c, 3, 85, 0
7, 60555, Note_on_c, 3, 81, 100
7, 60569, Note_on_c, 3, 81, 0
7, 60570, Note_on_c, 3, 83, 100
7, 60584, Note_on_c, 3, 83, 0
7, 60585, Note_on_c, 3, 85, 100
7, 60599, Note_on_c, 3, 85, 0
7, 60600, Note_on_c, 3, 86, 100
7, 60629, Note_on_c, 3, 86, 0
7, 60660, Note_on_c, 3, 69, 100
7, 60689, Note_on_c, 3, 69, 0
7, 60720, Note_on_c, 3, 73, 100
7, 60749, Note_on_c, 3, 73, 0
7, 60780, Note_on_c, 3, 74, 100
7, 60959, Note_on_c, 3, 74, 0
7, 116460, Note_on_c, 3, 76, 100
7, 116579, Note_on_c, 3, 76, 0
7, 116580, Note_on_c, 3, 81, 100
7, 116699, Note_on_c, 3, 81, 0
7, 116700, Note_on_c, 3, 79, 100
7, 116819, Note_on_c, 3, 79, 0
7, 116820, Note_on_c, 3, 77, 100
7, 116939, Note_on_c, 3, 77, 0
7, 116940, Note_on_c, 3, 76, 100
7, 117059, Note_on_c, 3, 76, 0
7, 117060, Note_on_c, 3, 74, 100
7, 117299, Note_on_c, 3, 74, 0
7, 117300, Note_on_c, 3, 76, 100
7, 117395, Note_on_c, 3, 76, 0
7, 117420, Note_on_c, 3, 83, 100
7, 117539, Note_on_c, 3, 83, 0
7, 117540, Note_on_c, 3, 84, 100
7, 117659, Note_on_c, 3, 84, 0
7, 117660, Note_on_c, 3, 84, 100
7, 117779, Note_on_c, 3, 84, 0
7, 117780, Note_on_c, 3, 83, 100
7, 117839, Note_on_c, 3, 83, 0
7, 117840, Note_on_c, 3, 84, 100
7, 117869, Note_on_c, 3, 84, 0
7, 117870, Note_on_c, 3, 86, 100
7, 117899, Note_on_c, 3, 86, 0
7, 117900, Note_on_c, 3, 83, 100
7, 118019, Note_on_c, 3, 83, 0
7, 118020, Note_on_c, 3, 81, 100
7, 118379, Note_on_c, 3, 81, 0
7, 118380, Note_on_c, 3, 76, 100
7, 118499, Note_on_c, 3, 76, 0
7, 118500, Note_on_c, 3, 81, 100
7, 118619, Note_on_c, 3, 81, 0
7, 118620, Note_on_c, 3, 79, 100
7, 118739, Note_on_c, 3, 79, 0
7, 118740, Note_on_c, 3, 77, 100
7, 118859, Note_on_c, 3, 77, 0
7, 118860, Note_on_c, 3, 76, 100
7, 118979, Note_on_c, 3, 76, 0
7, 118980, Note_on_c, 3, 74, 100
7, 119219, Note_on_c, 3, 74, 0
7, 119220, Note_on_c, 3, 76, 100
7, 119315, Note_on_c, 3, 76, 0
7, 119340, Note_on_c, 3, 83, 100
7, 119459, Note_on_c, 3, 83, 0
7, 119460, Note_on_c, 3, 84, 100
7, 119579, Note_on_c, 3, 84, 0
7, 119580, Note_on_c, 3, 84, 100
7, 119699, Note_on_c, 3, 84, 0
7, 119700, Note_on_c, 3, 83, 100
7, 119759, Note_on_c, 3, 83, 0
7, 119760, Note_on_c, 3, 84, 100
7, 119789, Note_on_c, 3, 84, 0
7, 119790, Note_on_c, 3, 86, 100
7, 119819, Note_on_c, 3, 86, 0
7, 119820, Note_on_c, 3, 83, 100
7, 119939, Note_on_c, 3, 83, 0
7, 119940, Note_on_c, 3, 81, 100
7, 120299, Note_on_c, 3, 81, 0
7, 120300, Note_on_c, 3, 84, 100
7, 120419, Note_on_c, 3, 84, 0
7, 120420, Note_on_c, 3, 83, 100
7, 120479, Note_on_c, 3, 83, 0
7, 120480, Note_on_c, 3, 81, 100
7, 120539, Note_on_c, 3, 81, 0
7, 120540, Note_on_c, 3, 79, 100
7, 120659, Note_on_c, 3, 79, 0
7, 120660, Note_on_c, 3, 81, 100
7, 120779, Note_on_c, 3, 81, 0
7, 120780, Note_on_c, 3, 83, 100
7, 120899, Note_on_c, 3, 83, 0
7, 120900, Note_on_c, 3, 84, 100
7, 121139, Note_on_c, 3, 84, 0
7, 121140, Note_on_c, 3, 84, 100
7, 121235, Note_on_c, 3, 84, 0
7, 121260, Note_on_c, 3, 79, 100
7, 121379, Note_on_c, 3, 79, 0
7, 121380, Note_on_c, 3, 81, 100
7, 121499, Note_on_c, 3, 81, 0
7, 121500, Note_on_c, 3, 79, 100
7, 121619, Note_on_c, 3, 79, 0
7, 121620, Note_on_c, 3, 77, 100
7, 121679, Note_on_c, 3, 77, 0
7, 121680, Note_on_c, 3, 76, 100
7, 121739, Note_on_c, 3, 76, 0
7, 121740, Note_on_c, 3, 77, 100
7, 121859, Note_on_c, 3, 77, 0
7, 121860, Note_on_c, 3, 76, 100
7, 122147, Note_on_c, 3, 76, 0
7, 122220, Note_on_c, 3, 84, 100
7, 122339, Note_on_c, 3, 84, 0
7, 122340, Note_on_c, 3, 83, 100
7, 122399, Note_on_c, 3, 83, 0
7, 122400, Note_on_c, 3, 84, 100
7, 122459, Note_on_c, 3, 84, 0
7, 122460, Note_on_c, 3, 86, 100
7, 122579, Note_on_c, 3, 86, 0
7, 122580, Note_on_c, 3, 84, 100
7, 122699, Note_on_c, 3, 84, 0
7, 122700, Note_on_c, 3, 83, 100
7, 122819, Note_on_c, 3, 83, 0
7, 122820, Note_on_c, 3, 81, 100
7, 123059, Note_on_c, 3, 81, 0
7, 123060, Note_on_c, 3, 83, 100
7, 123155, Note_on_c, 3, 83, 0
7, 123180, Note_on_c, 3, 76, 100
7, 123299, Note_on_c, 3, 76, 0
7, 123300, Note_on_c, 3, 77, 100
7, 123419, Note_on_c, 3, 77, 0
7, 123420, Note_on_c, 3, 76, 100
7, 123539, Note_on_c, 3, 76, 0
7, 123540, Note_on_c, 3, 74, 100
7, 123659, Note_on_c, 3, 74, 0
7, 123660, Note_on_c, 3, 79, 100
7, 123719, Note_on_c, 3, 79, 0
7, 123720, Note_on_c, 3, 77, 100
7, 123779, Note_on_c, 3, 77, 0
7, 123780, Note_on_c, 3, 76, 100
7, 124139, Note_on_c, 3, 76, 0
7, 199980, Note_on_c, 3, 86, 100
7, 200099, Note_on_c, 3, 86, 0
7, 200100, Note_on_c, 3, 85, 100
7, 200219, Note_on_c, 3, 85, 0
7, 200220, Note_on_c, 3, 83, 100
7, 200339, Note_on_c, 3, 83, 0
7, 200340, Note_on_c, 3, 85, 100
7, 200459, Note_on_c, 3, 85, 0
7, 200460, Note_on_c, 3, 81, 100
7, 200579, Note_on_c, 3, 81, 0
7, 200580, Note_on_c, 3, 83, 100
7, 200699, Note_on_c, 3, 83, 0
7, 200700, Note_on_c, 3, 85, 100
7, 200819, Note_on_c, 3, 85, 0
7, 200820, Note_on_c, 3, 86, 100
7, 200939, Note_on_c, 3, 86, 0
7, 201660, Note_on_c, 3, 86, 100
7, 201779, Note_on_c, 3, 86, 0
7, 201780, Note_on_c, 3, 86, 100
7, 201899, Note_on_c, 3, 86, 0
7, 201900, Note_on_c, 3, 81, 100
7, 202019, Note_on_c, 3, 81, 0
7, 202020, Note_on_c, 3, 81, 100
7, 202139, Note_on_c, 3, 81, 0
7, 202140, Note_on_c, 3, 78, 100
7, 202199, Note_on_c, 3, 78, 0
7, 202200, Note_on_c, 3, 79, 100
7, 202259, Note_on_c, 3, 79, 0
7, 202260, Note_on_c, 3, 81, 100
7, 202379, Note_on_c, 3, 81, 0
7, 202380, Note_on_c, 3, 79, 100
7, 202499, Note_on_c, 3, 79, 0
7, 202500, Note_on_c, 3, 78, 100
7, 202619, Note_on_c, 3, 78, 0
7, 203340, Note_on_c, 3, 78, 100
7, 203459, Note_on_c, 3, 78, 0
7, 203460, Note_on_c, 3, 83, 100
7, 203579, Note_on_c, 3, 83, 0
7, 203580, Note_on_c, 3, 83, 100
7, 203699, Note_on_c, 3, 83, 0
7, 203700, Note_on_c, 3, 81, 100
7, 203759, Note_on_c, 3, 81, 0
7, 203760, Note_on_c, 3, 83, 100
7, 203819, Note_on_c, 3, 83, 0
7, 203820, Note_on_c, 3, 85, 100
7, 203939, Note_on_c, 3, 85, 0
7, 203940, Note_on_c, 3, 86, 100
7, 203999, Note_on_c, 3, 86, 0
7, 204000, Note_on_c, 3, 85, 100
7, 204059, Note_on_c, 3, 85, 0
7, 204060, Note_on_c, 3, 83, 100
7, 204179, Note_on_c, 3, 83, 0
7, 204180, Note_on_c, 3, 81, 100
7, 204299, Note_on_c, 3, 81, 0
7, 205020, Note_on_c, 3, 86, 100
7, 205139, Note_on_c, 3, 86, 0
7, 205140, Note_on_c, 3, 85, 100
7, 205259, Note_on_c, 3, 85, 0
7, 205260, Note_on_c, 3, 83, 100
7, 205379, Note_on_c, 3, 83, 0
7, 205380, Note_on_c, 3, 81, 100
7, 205499, Note_on_c, 3, 81, 0
7, 205500, Note_on_c, 3, 83, 100
7, 205559, Note_on_c, 3, 83, 0
7, 205560, Note_on_c, 3, 81, 100
7, 205619, Note_on_c, 3, 81, 0
7, 205620, Note_on_c, 3, 79, 100
7, 205679, Note_on_c, 3, 79, 0
7, 205680, Note_on_c, 3, 78, 100
7, 205739, Note_on_c, 3, 78, 0
7, 205740, Note_on_c, 3, 76, 100
7, 205859, Note_on_c, 3, 76, 0
7, 205860, Note_on_c, 3, 74, 100
7, 205979, Note_on_c, 3, 74, 0
7, 205979, End_track
8, 0, Start_track
8, 0, MIDI_port, 0
8, 0, Title_t, "Oboe I"
8, 0, Program_c, 4, 68
8, 570, Note_on_c, 4, 74, 90
8, 584, Note_on_c, 4, 74, 0
8, 585, Note_on_c, 4, 76, 90
8, 599, Note_on_c, 4, 76, 0
8, 600, Note_on_c, 4, 78, 90
8, 614, Note_on_c, 4, 78, 0
8, 615, Note_on_c, 4, 76, 90
8, 629, Note_on_c, 4, 76, 0
8, 630, Note_on_c, 4, 78, 90
8, 644, Note_on_c, 4, 78, 0
8, 645, Note_on_c, 4, 76, 90
8, 659, Note_on_c, 4, 76, 0
8, 660, Note_on_c, 4, 78, 90
8, 674, Note_on_c, 4, 78, 0
8, 675, Note_on_c, 4, 76, 90
8, 689, Note_on_c, 4, 76, 0
8, 690, Note_on_c, 4, 74, 90
8, 704, Note_on_c, 4, 74, 0
8, 705, Note_on_c, 4, 76, 90
8, 719, Note_on_c, 4, 76, 0
8, 720, Note_on_c, 4, 78, 90
8, 779, Note_on_c, 4, 78, 0
8, 915, Note_on_c, 4, 74, 90
8, 929, Note_on_c, 4, 74, 0
8, 930, Note_on_c, 4, 73, 90
8, 944, Note_on_c, 4, 73, 0
8, 945, Note_on_c, 4, 71, 90
8, 959, Note_on_c, 4, 71, 0
8, 960, Note_on_c, 4, 69, 90
8, 974, Note_on_c, 4, 69, 0
8, 975, Note_on_c, 4, 74, 90
8, 989, Note_on_c, 4, 74, 0
8, 990, Note_on_c, 4, 73, 90
8, 1004, Note_on_c, 4, 73, 0
8, 1005, Note_on_c, 4, 71, 90
8, 1019, Note_on_c, 4, 71, 0
8, 1020, Note_on_c, 4, 69, 90
8, 1034, Note_on_c, 4, 69, 0
8, 1035, Note_on_c, 4, 67, 90
8, 1049, Note_on_c, 4, 67, 0
8, 1050, Note_on_c, 4, 66, 90
8, 1064, Note_on_c, 4, 66, 0
8, 1065, Note_on_c, 4, 64, 90
8, 1079, Note_on_c, 4, 64, 0
8, 1080, Note_on_c, 4, 66, 90
8, 1500, Note_on_c, 4, 66, 0
8, 1500, Note_on_c, 4, 78, 90
8, 1530, Note_on_c, 4, 78, 0
8, 1560, Note_on_c, 4, 78, 90
8, 1590, Note_on_c, 4, 78, 0
8, 1620, Note_on_c, 4, 78, 90
8, 1680, Note_on_c, 4, 78, 0
8, 1680, Note_on_c, 4, 76, 90
8, 1710, Note_on_c, 4, 76, 0
8, 1710, Note_on_c, 4, 74, 90
8, 1740, Note_on_c, 4, 74, 0
8, 1740, Note_on_c, 4, 76, 90
8, 1800, Note_on_c, 4, 76, 0
8, 2460, Note_on_c, 4, 79, 90
8, 2519, Note_on_c, 4, 79, 0
8, 2520, Note_on_c, 4, 78, 90
8, 2579, Note_on_c, 4, 78, 0
8, 2580, Note_on_c, 4, 76, 90
8, 2639, Note_on_c, 4, 76, 0
8, 2640, Note_on_c, 4, 74, 90
8, 2699, Note_on_c, 4, 74, 0
8, 2700, Note_on_c, 4, 81, 90
8, 2819, Note_on_c, 4, 81, 0
8, 2820, Note_on_c, 4, 76, 90
8, 2879, Note_on_c, 4, 76, 0
8, 2880, Note_on_c, 4, 75, 90
8, 2909, Note_on_c, 4, 75, 0
8, 2910, Note_on_c, 4, 78, 90
8, 2939, Note_on_c, 4, 78, 0
8, 2940, Note_on_c, 4, 81, 90
8, 3059, Note_on_c, 4, 81, 0
8, 3060, Note_on_c, 4, 72, 90
8, 3074, Note_on_c, 4, 72, 0
8, 3075, Note_on_c, 4, 71, 90
8, 3089, Note_on_c, 4, 71, 0
8, 3090, Note_on_c, 4, 69, 90
8, 3119, Note_on_c, 4, 69, 0
8, 3120, Note_on_c, 4, 69, 90
8, 3149, Note_on_c, 4, 69, 0
8, 3150, Note_on_c, 4, 71, 90
8, 3270, Note_on_c, 4, 71, 0
8, 3270, Note_on_c, 4, 73, 90
8, 3284, Note_on_c, 4, 73, 0
8, 3285, Note_on_c, 4, 75, 90
8, 3299, Note_on_c, 4, 75, 0
8, 3300, Note_on_c, 4, 76, 90
8, 3329, Note_on_c, 4, 76, 0
8, 3330, Note_on_c, 4, 78, 90
8, 3344, Note_on_c, 4, 78, 0
8, 3345, Note_on_c, 4, 80, 90
8, 3359, Note_on_c, 4, 80, 0
8, 3360, Note_on_c, 4, 81, 90
8, 3449, Note_on_c, 4, 81, 0
8, 3450, Note_on_c, 4, 79, 90
8, 3464, Note_on_c, 4, 79, 0
8, 3465, Note_on_c, 4, 78, 90
8, 3479, Note_on_c, 4, 78, 0
8, 3480, Note_on_c, 4, 79, 90
8, 3509, Note_on_c, 4, 79, 0
8, 3510, Note_on_c, 4, 78, 90
8, 3524, Note_on_c, 4, 78, 0
8, 3525, Note_on_c, 4, 76, 90
8, 3539, Note_on_c, 4, 76, 0
8, 3540, Note_on_c, 4, 79, 90
8, 3569, Note_on_c, 4, 79, 0
8, 3570, Note_on_c, 4, 76, 90
8, 3584, Note_on_c, 4, 76, 0
8, 3585, Note_on_c, 4, 78, 90
8, 3599, Note_on_c, 4, 78, 0
8, 3600, Note_on_c, 4, 79, 90
8, 3629, Note_on_c, 4, 79, 0
8, 3630, Note_on_c, 4, 83, 90
8, 3644, Note_on_c, 4, 83, 0
8, 3645, Note_on_c, 4, 81, 90
8, 3659, Note_on_c, 4, 81, 0
8, 3660, Note_on_c, 4, 79, 90
8, 3689, Note_on_c, 4, 79, 0
8, 3690, Note_on_c, 4, 83, 90
8, 3704, Note_on_c, 4, 83, 0
8, 3705, Note_on_c, 4, 81, 90
8, 3719, Note_on_c, 4, 81, 0
8, 3720, Note_on_c, 4, 79, 90
8, 3809, Note_on_c, 4, 79, 0
8, 3810, Note_on_c, 4, 76, 90
8, 3824, Note_on_c, 4, 76, 0
8, 3825, Note_on_c, 4, 78, 90
8, 3839, Note_on_c, 4, 78, 0
8, 3840, Note_on_c, 4, 79, 90
8, 3869, Note_on_c, 4, 79, 0
8, 3870, Note_on_c, 4, 76, 90
8, 3884, Note_on_c, 4, 76, 0
8, 3885, Note_on_c, 4, 78, 90
8, 3899, Note_on_c, 4, 78, 0
8, 3900, Note_on_c, 4, 79, 90
8, 3989, Note_on_c, 4, 79, 0
8, 3990, Note_on_c, 4, 78, 90
8, 4004, Note_on_c, 4, 78, 0
8, 4005, Note_on_c, 4, 79, 90
8, 4019, Note_on_c, 4, 79, 0
8, 4020, Note_on_c, 4, 81, 90
8, 4049, Note_on_c, 4, 81, 0
8, 4050, Note_on_c, 4, 79, 90
8, 4064, Note_on_c, 4, 79, 0
8, 4065, Note_on_c, 4, 78, 90
8, 4079, Note_on_c, 4, 78, 0
8, 4080, Note_on_c, 4, 79, 90
8, 4109, Note_on_c, 4, 79, 0
8, 4110, Note_on_c, 4, 78, 90
8, 4124, Note_on_c, 4, 78, 0
8, 4125, Note_on_c, 4, 76, 90
8, 4139, Note_on_c, 4, 76, 0
8, 4140, Note_on_c, 4, 78, 90
8, 4169, Note_on_c, 4, 78, 0
8, 4170, Note_on_c, 4, 81, 90
8, 4184, Note_on_c, 4, 81, 0
8, 4185, Note_on_c, 4, 79, 90
8, 4199, Note_on_c, 4, 79, 0
8, 4200, Note_on_c, 4, 78, 90
8, 4229, Note_on_c, 4, 78, 0
8, 4230, Note_on_c, 4, 81, 90
8, 4244, Note_on_c, 4, 81, 0
8, 4245, Note_on_c, 4, 79, 90
8, 4259, Note_on_c, 4, 79, 0
8, 4260, Note_on_c, 4, 78, 90
8, 4380, Note_on_c, 4, 78, 0
8, 4380, Note_on_c, 4, 74, 90
8, 4409, Note_on_c, 4, 74, 0
8, 4440, Note_on_c, 4, 78, 90
8, 4469, Note_on_c, 4, 78, 0
8, 4500, Note_on_c, 4, 76, 90
8, 4529, Note_on_c, 4, 76, 0
8, 4560, Note_on_c, 4, 71, 90
8, 4589, Note_on_c, 4, 71, 0
8, 4620, Note_on_c, 4, 76, 90
8, 4739, Note_on_c, 4, 76, 0
8, 4740, Note_on_c, 4, 73, 90
8, 4769, Note_on_c, 4, 73, 0
8, 4800, Note_on_c, 4, 76, 90
8, 4829, Note_on_c, 4, 76, 0
8, 4860, Note_on_c, 4, 74, 90
8, 4889, Note_on_c, 4, 74, 0
8, 4920, Note_on_c, 4, 69, 90
8, 4949, Note_on_c, 4, 69, 0
8, 4980, Note_on_c, 4, 74, 90
8, 5099, Note_on_c, 4, 74, 0
8, 5100, Note_on_c, 4, 76, 90
8, 5129, Note_on_c, 4, 76, 0
8, 5160, Note_on_c, 4, 78, 90
8, 5189, Note_on_c, 4, 78, 0
8, 5220, Note_on_c, 4, 79, 90
8, 5249, Note_on_c, 4, 79, 0
8, 5400, Note_on_c, 4, 79, 90
8, 5429, Note_on_c, 4, 79, 0
8, 5580, Note_on_c, 4, 78, 90
8, 5609, Note_on_c, 4, 78, 0
8, 5640, Note_on_c, 4, 74, 90
8, 5669, Note_on_c, 4, 74, 0
8, 5700, Note_on_c, 4, 73, 90
8, 5715, Note_on_c, 4, 73, 0
8, 5715, Note_on_c, 4, 74, 90
8, 5730, Note_on_c, 4, 74, 0
8, 5730, Note_on_c, 4, 73, 90
8, 5759, Note_on_c, 4, 73, 0
8, 5760, Note_on_c, 4, 74, 90
8, 5819, Note_on_c, 4, 74, 0
8, 6330, Note_on_c, 4, 74, 90
8, 6344, Note_on_c, 4, 74, 0
8, 6345, Note_on_c, 4, 76, 90
8, 6359, Note_on_c, 4, 76, 0
8, 6360, Note_on_c, 4, 78, 90
8, 6374, Note_on_c, 4, 78, 0
8, 6375, Note_on_c, 4, 76, 90
8, 6389, Note_on_c, 4, 76, 0
8, 6390, Note_on_c, 4, 78, 90
8, 6404, Note_on_c, 4, 78, 0
8, 6405, Note_on_c, 4, 76, 90
8, 6419, Note_on_c, 4, 76, 0
8, 6420, Note_on_c, 4, 78, 90
8, 6434, Note_on_c, 4, 78, 0
8, 6435, Note_on_c, 4, 76, 90
8, 6449, Note_on_c, 4, 76, 0
8, 6450, Note_on_c, 4, 74, 90
8, 6464, Note_on_c, 4, 74, 0
8, 6465, Note_on_c, 4, 76, 90
8, 6479, Note_on_c, 4, 76, 0
8, 6480, Note_on_c, 4, 78, 90
8, 6539, Note_on_c, 4, 78, 0
8, 6660, Note_on_c, 4, 74, 90
8, 6719, Note_on_c, 4, 74, 0
8, 6840, Note_on_c, 4, 69, 90
8, 6899, Note_on_c, 4, 69, 0
8, 7035, Note_on_c, 4, 74, 90
8, 7049, Note_on_c, 4, 74, 0
8, 7050, Note_on_c, 4, 73, 90
8, 7064, Note_on_c, 4, 73, 0
8, 7065, Note_on_c, 4, 71, 90
8, 7079, Note_on_c, 4, 71, 0
8, 7080, Note_on_c, 4, 69, 90
8, 7094, Note_on_c, 4, 69, 0
8, 7095, Note_on_c, 4, 74, 90
8, 7109, Note_on_c, 4, 74, 0
8, 7110, Note_on_c, 4, 73, 90
8, 7124, Note_on_c, 4, 73, 0
8, 7125, Note_on_c, 4, 71, 90
8, 7139, Note_on_c, 4, 71, 0
8, 7140, Note_on_c, 4, 69, 90
8, 7154, Note_on_c, 4, 69, 0
8, 7155, Note_on_c, 4, 67, 90
8, 7169, Note_on_c, 4, 67, 0
8, 7170, Note_on_c, 4, 66, 90
8, 7184, Note_on_c, 4, 66, 0
8, 7185, Note_on_c, 4, 64, 90
8, 7199, Note_on_c, 4, 64, 0
8, 7200, Note_on_c, 4, 66, 90
8, 7620, Note_on_c, 4, 66, 0
8, 7620, Note_on_c, 4, 78, 90
8, 7650, Note_on_c, 4, 78, 0
8, 7680, Note_on_c, 4, 78, 90
8, 7710, Note_on_c, 4, 78, 0
8, 7740, Note_on_c, 4, 78, 90
8, 7800, Note_on_c, 4, 78, 0
8, 7800, Note_on_c, 4, 76, 90
8, 7830, Note_on_c, 4, 76, 0
8, 7830, Note_on_c, 4, 74, 90
8, 7860, Note_on_c, 4, 74, 0
8, 7860, Note_on_c, 4, 76, 90
8, 7920, Note_on_c, 4, 76, 0
8, 8580, Note_on_c, 4, 79, 90
8, 8640, Note_on_c, 4, 79, 0
8, 8640, Note_on_c, 4, 78, 90
8, 8700, Note_on_c, 4, 78, 0
8, 8700, Note_on_c, 4, 76, 90
8, 8760, Note_on_c, 4, 76, 0
8, 8760, Note_on_c, 4, 74, 90
8, 8820, Note_on_c, 4, 74, 0
8, 8820, Note_on_c, 4, 81, 90
8, 8940, Note_on_c, 4, 81, 0
8, 9600, Note_on_c, 4, 74, 90
8, 9629, Note_on_c, 4, 74, 0
8, 9630, Note_on_c, 4, 76, 90
8, 9659, Note_on_c, 4, 76, 0
8, 9660, Note_on_c, 4, 78, 90
8, 9674, Note_on_c, 4, 78, 0
8, 9675, Note_on_c, 4, 76, 90
8, 9689, Note_on_c, 4, 76, 0
8, 9690, Note_on_c, 4, 74, 90
8, 9704, Note_on_c, 4, 74, 0
8, 9705, Note_on_c, 4, 76, 90
8, 9719, Note_on_c, 4, 76, 0
8, 9720, Note_on_c, 4, 78, 90
8, 9749, Note_on_c, 4, 78, 0
8, 9750, Note_on_c, 4, 76, 90
8, 9779, Note_on_c, 4, 76, 0
8, 9780, Note_on_c, 4, 78, 90
8, 9809, Note_on_c, 4, 78, 0
8, 9810, Note_on_c, 4, 80, 90
8, 9839, Note_on_c, 4, 80, 0
8, 9840, Note_on_c, 4, 81, 90
8, 9854, Note_on_c, 4, 81, 0
8, 9855, Note_on_c, 4, 80, 90
8, 9869, Note_on_c, 4, 80, 0
8, 9870, Note_on_c, 4, 78, 90
8, 9884, Note_on_c, 4, 78, 0
8, 9885, Note_on_c, 4, 80, 90
8, 9899, Note_on_c, 4, 80, 0
8, 9900, Note_on_c, 4, 81, 90
8, 9929, Note_on_c, 4, 81, 0
8, 9930, Note_on_c, 4, 76, 90
8, 9959, Note_on_c, 4, 76, 0
8, 9960, Note_on_c, 4, 73, 90
8, 9989, Note_on_c, 4, 73, 0
8, 9990, Note_on_c, 4, 81, 90
8, 10019, Note_on_c, 4, 81, 0
8, 10020, Note_on_c, 4, 71, 90
8, 10049, Note_on_c, 4, 71, 0
8, 10050, Note_on_c, 4, 80, 90
8, 10079, Note_on_c, 4, 80, 0
8, 10080, Note_on_c, 4, 69, 90
8, 10199, Note_on_c, 4, 69, 0
8, 10320, Note_on_c, 4, 67, 90
8, 10349, Note_on_c, 4, 67, 0
8, 10350, Note_on_c, 4, 69, 90
8, 10379, Note_on_c, 4, 69, 0
8, 10380, Note_on_c, 4, 71, 90
8, 10394, Note_on_c, 4, 71, 0
8, 10395, Note_on_c, 4, 69, 90
8, 10409, Note_on_c, 4, 69, 0
8, 10410, Note_on_c, 4, 67, 90
8, 10424, Note_on_c, 4, 67, 0
8, 10425, Note_on_c, 4, 69, 90
8, 10439, Note_on_c, 4, 69, 0
8, 10440, Note_on_c, 4, 71, 90
8, 10529, Note_on_c, 4, 71, 0
8, 10530, Note_on_c, 4, 73, 90
8, 10559, Note_on_c, 4, 73, 0
8, 10560, Note_on_c, 4, 74, 90
8, 10574, Note_on_c, 4, 74, 0
8, 10575, Note_on_c, 4, 73, 90
8, 10589, Note_on_c, 4, 73, 0
8, 10590, Note_on_c, 4, 71, 90
8, 10604, Note_on_c, 4, 71, 0
8, 10605, Note_on_c, 4, 73, 90
8, 10619, Note_on_c, 4, 73, 0
8, 10620, Note_on_c, 4, 74, 90
8, 10649, Note_on_c, 4, 74, 0
8, 10680, Note_on_c, 4, 74, 90
8, 10709, Note_on_c, 4, 74, 0
8, 10740, Note_on_c, 4, 73, 90
8, 10769, Note_on_c, 4, 73, 0
8, 10800, Note_on_c, 4, 74, 90
8, 10829, Note_on_c, 4, 74, 0
8, 10830, Note_on_c, 4, 73, 90
8, 10859, Note_on_c, 4, 73, 0
8, 10860, Note_on_c, 4, 74, 90
8, 10889, Note_on_c, 4, 74, 0
8, 10890, Note_on_c, 4, 78, 90
8, 10919, Note_on_c, 4, 78, 0
8, 10920, Note_on_c, 4, 76, 90
8, 10949, Note_on_c, 4, 76, 0
8, 10950, Note_on_c, 4, 74, 90
8, 10979, Note_on_c, 4, 74, 0
8, 10980, Note_on_c, 4, 73, 90
8, 11009, Note_on_c, 4, 73, 0
8, 11010, Note_on_c, 4, 71, 90
8, 11039, Note_on_c, 4, 71, 0
8, 11040, Note_on_c, 4, 73, 90
8, 11069, Note_on_c, 4, 73, 0
8, 11070, Note_on_c, 4, 76, 90
8, 11099, Note_on_c, 4, 76, 0
8, 11100, Note_on_c, 4, 75, 90
8, 11129, Note_on_c, 4, 75, 0
8, 11130, Note_on_c, 4, 78, 90
8, 11159, Note_on_c, 4, 78, 0
8, 11160, Note_on_c, 4, 76, 90
8, 11189, Note_on_c, 4, 76, 0
8, 11190, Note_on_c, 4, 75, 90
8, 11219, Note_on_c, 4, 75, 0
8, 11220, Note_on_c, 4, 76, 90
8, 11249, Note_on_c, 4, 76, 0
8, 11250, Note_on_c, 4, 78, 90
8, 11279, Note_on_c, 4, 78, 0
8, 11280, Note_on_c, 4, 79, 90
8, 11294, Note_on_c, 4, 79, 0
8, 11295, Note_on_c, 4, 78, 90
8, 11309, Note_on_c, 4, 78, 0
8, 11310, Note_on_c, 4, 76, 90
8, 11324, Note_on_c, 4, 76, 0
8, 11325, Note_on_c, 4, 78, 90
8, 11339, Note_on_c, 4, 78, 0
8, 11340, Note_on_c, 4, 79, 90
8, 11369, Note_on_c, 4, 79, 0
8, 11370, Note_on_c, 4, 78, 90
8, 11399, Note_on_c, 4, 78, 0
8, 11400, Note_on_c, 4, 76, 90
8, 11429, Note_on_c, 4, 76, 0
8, 11430, Note_on_c, 4, 74, 90
8, 11459, Note_on_c, 4, 74, 0
8, 11460, Note_on_c, 4, 73, 90
8, 11489, Note_on_c, 4, 73, 0
8, 11490, Note_on_c, 4, 71, 90
8, 11519, Note_on_c, 4, 71, 0
8, 11520, Note_on_c, 4, 70, 90
8, 11549, Note_on_c, 4, 70, 0
8, 11550, Note_on_c, 4, 73, 90
8, 11579, Note_on_c, 4, 73, 0
8, 11580, Note_on_c, 4, 76, 90
8, 11699, Note_on_c, 4, 76, 0
8, 11700, Note_on_c, 4, 67, 90
8, 11714, Note_on_c, 4, 67, 0
8, 11715, Note_on_c, 4, 66, 90
8, 11729, Note_on_c, 4, 66, 0
8, 11730, Note_on_c, 4, 64, 90
8, 11759, Note_on_c, 4, 64, 0
8, 11760, Note_on_c, 4, 64, 90
8, 11789, Note_on_c, 4, 64, 0
8, 11790, Note_on_c, 4, 66, 90
8, 11909, Note_on_c, 4, 66, 0
8, 11910, Note_on_c, 4, 68, 90
8, 11924, Note_on_c, 4, 68, 0
8, 11925, Note_on_c, 4, 70, 90
8, 11939, Note_on_c, 4, 70, 0
8, 11940, Note_on_c, 4, 71, 90
8, 11969, Note_on_c, 4, 71, 0
8, 11970, Note_on_c, 4, 73, 90
8, 11984, Note_on_c, 4, 73, 0
8, 11985, Note_on_c, 4, 75, 90
8, 11999, Note_on_c, 4, 75, 0
8, 12000, Note_on_c, 4, 76, 90
8, 12089, Note_on_c, 4, 76, 0
8, 12090, Note_on_c, 4, 74, 90
8, 12104, Note_on_c, 4, 74, 0
8, 12105, Note_on_c, 4, 73, 90
8, 12119, Note_on_c, 4, 73, 0
8, 12120, Note_on_c, 4, 74, 90
8, 12149, Note_on_c, 4, 74, 0
8, 12150, Note_on_c, 4, 73, 90
8, 12164, Note_on_c, 4, 73, 0
8, 12165, Note_on_c, 4, 71, 90
8, 12179, Note_on_c, 4, 71, 0
8, 12180, Note_on_c, 4, 74, 90
8, 12209, Note_on_c, 4, 74, 0
8, 12210, Note_on_c, 4, 71, 90
8, 12224, Note_on_c, 4, 71, 0
8, 12225, Note_on_c, 4, 73, 90
8, 12239, Note_on_c, 4, 73, 0
8, 12240, Note_on_c, 4, 74, 90
8, 12269, Note_on_c, 4, 74, 0
8, 12270, Note_on_c, 4, 78, 90
8, 12284, Note_on_c, 4, 78, 0
8, 12285, Note_on_c, 4, 76, 90
8, 12299, Note_on_c, 4, 76, 0
8, 12300, Note_on_c, 4, 74, 90
8, 12329, Note_on_c, 4, 74, 0
8, 12330, Note_on_c, 4, 78, 90
8, 12344, Note_on_c, 4, 78, 0
8, 12345, Note_on_c, 4, 76, 90
8, 12359, Note_on_c, 4, 76, 0
8, 12360, Note_on_c, 4, 74, 90
8, 12449, Note_on_c, 4, 74, 0
8, 12450, Note_on_c, 4, 71, 90
8, 12464, Note_on_c, 4, 71, 0
8, 12465, Note_on_c, 4, 73, 90
8, 12479, Note_on_c, 4, 73, 0
8, 12480, Note_on_c, 4, 74, 90
8, 12509, Note_on_c, 4, 74, 0
8, 12510, Note_on_c, 4, 71, 90
8, 12524, Note_on_c, 4, 71, 0
8, 12525, Note_on_c, 4, 73, 90
8, 12539, Note_on_c, 4, 73, 0
8, 12540, Note_on_c, 4, 74, 90
8, 12629, Note_on_c, 4, 74, 0
8, 12630, Note_on_c, 4, 73, 90
8, 12644, Note_on_c, 4, 73, 0
8, 12645, Note_on_c, 4, 74, 90
8, 12659, Note_on_c, 4, 74, 0
8, 12660, Note_on_c, 4, 76, 90
8, 12689, Note_on_c, 4, 76, 0
8, 12690, Note_on_c, 4, 74, 90
8, 12704, Note_on_c, 4, 74, 0
8, 12705, Note_on_c, 4, 73, 90
8, 12719, Note_on_c, 4, 73, 0
8, 12720, Note_on_c, 4, 74, 90
8, 12749, Note_on_c, 4, 74, 0
8, 12750, Note_on_c, 4, 73, 90
8, 12764, Note_on_c, 4, 73, 0
8, 12765, Note_on_c, 4, 71, 90
8, 12779, Note_on_c, 4, 71, 0
8, 12780, Note_on_c, 4, 73, 90
8, 12809, Note_on_c, 4, 73, 0
8, 12810, Note_on_c, 4, 76, 90
8, 12824, Note_on_c, 4, 76, 0
8, 12825, Note_on_c, 4, 74, 90
8, 12839, Note_on_c, 4, 74, 0
8, 12840, Note_on_c, 4, 73, 90
8, 12869, Note_on_c, 4, 73, 0
8, 12870, Note_on_c, 4, 76, 90
8, 12884, Note_on_c, 4, 76, 0
8, 12885, Note_on_c, 4, 74, 90
8, 12899, Note_on_c, 4, 74, 0
8, 12900, Note_on_c, 4, 73, 90
8, 12929, Note_on_c, 4, 73, 0
8, 12930, Note_on_c, 4, 69, 90
8, 12944, Note_on_c, 4, 69, 0
8, 12945, Note_on_c, 4, 71, 90
8, 12959, Note_on_c, 4, 71, 0
8, 12960, Note_on_c, 4, 73, 90
8, 12989, Note_on_c, 4, 73, 0
8, 12990, Note_on_c, 4, 71, 90
8, 13004, Note_on_c, 4, 71, 0
8, 13005, Note_on_c, 4, 73, 90
8, 13019, Note_on_c, 4, 73, 0
8, 13020, Note_on_c, 4, 75, 90
8, 13049, Note_on_c, 4, 75, 0
8, 13050, Note_on_c, 4, 73, 90
8, 13064, Note_on_c, 4, 73, 0
8, 13065, Note_on_c, 4, 75, 90
8, 13079, Note_on_c, 4, 75, 0
8, 13080, Note_on_c, 4, 76, 90
8, 13109, Note_on_c, 4, 76, 0
8, 13110, Note_on_c, 4, 75, 90
8, 13124, Note_on_c, 4, 75, 0
8, 13125, Note_on_c, 4, 76, 90
8, 13139, Note_on_c, 4, 76, 0
8, 13140, Note_on_c, 4, 78, 90
8, 13199, Note_on_c, 4, 78, 0
8, 13200, Note_on_c, 4, 71, 90
8, 13349, Note_on_c, 4, 71, 0
8, 13350, Note_on_c, 4, 69, 90
8, 13364, Note_on_c, 4, 69, 0
8, 13365, Note_on_c, 4, 71, 90
8, 13379, Note_on_c, 4, 71, 0
8, 13380, Note_on_c, 4, 73, 90
8, 13409, Note_on_c, 4, 73, 0
8, 13410, Note_on_c, 4, 71, 90
8, 13424, Note_on_c, 4, 71, 0
8, 13425, Note_on_c, 4, 73, 90
8, 13439, Note_on_c, 4, 73, 0
8, 13440, Note_on_c, 4, 74, 90
8, 13469, Note_on_c, 4, 74, 0
8, 13470, Note_on_c, 4, 73, 90
8, 13484, Note_on_c, 4, 73, 0
8, 13485, Note_on_c, 4, 74, 90
8, 13499, Note_on_c, 4, 74, 0
8, 13500, Note_on_c, 4, 76, 90
8, 13559, Note_on_c, 4, 76, 0
8, 13560, Note_on_c, 4, 69, 90
8, 13709, Note_on_c, 4, 69, 0
8, 13710, Note_on_c, 4, 68, 90
8, 13724, Note_on_c, 4, 68, 0
8, 13725, Note_on_c, 4, 69, 90
8, 13739, Note_on_c, 4, 69, 0
8, 13740, Note_on_c, 4, 71, 90
8, 13769, Note_on_c, 4, 71, 0
8, 13770, Note_on_c, 4, 69, 90
8, 13784, Note_on_c, 4, 69, 0
8, 13785, Note_on_c, 4, 71, 90
8, 13799, Note_on_c, 4, 71, 0
8, 13800, Note_on_c, 4, 73, 90
8, 13829, Note_on_c, 4, 73, 0
8, 13830, Note_on_c, 4, 71, 90
8, 13844, Note_on_c, 4, 71, 0
8, 13845, Note_on_c, 4, 73, 90
8, 13859, Note_on_c, 4, 73, 0
8, 13860, Note_on_c, 4, 74, 90
8, 13919, Note_on_c, 4, 74, 0
8, 13920, Note_on_c, 4, 78, 90
8, 13949, Note_on_c, 4, 78, 0
8, 13950, Note_on_c, 4, 76, 90
8, 13979, Note_on_c, 4, 76, 0
8, 13980, Note_on_c, 4, 74, 90
8, 14039, Note_on_c, 4, 74, 0
8, 14040, Note_on_c, 4, 83, 90
8, 14099, Note_on_c, 4, 83, 0
8, 14100, Note_on_c, 4, 74, 90
8, 14219, Note_on_c, 4, 74, 0
8, 14220, Note_on_c, 4, 73, 90
8, 14249, Note_on_c, 4, 73, 0
8, 14280, Note_on_c, 4, 74, 90
8, 14309, Note_on_c, 4, 74, 0
8, 14340, Note_on_c, 4, 71, 90
8, 14369, Note_on_c, 4, 71, 0
8, 14400, Note_on_c, 4, 69, 90
8, 14459, Note_on_c, 4, 69, 0
8, 14700, Note_on_c, 4, 71, 90
8, 14729, Note_on_c, 4, 71, 0
8, 14730, Note_on_c, 4, 73, 90
8, 14759, Note_on_c, 4, 73, 0
8, 14760, Note_on_c, 4, 74, 90
8, 14789, Note_on_c, 4, 74, 0
8, 14820, Note_on_c, 4, 74, 90
8, 14849, Note_on_c, 4, 74, 0
8, 14880, Note_on_c, 4, 74, 90
8, 14909, Note_on_c, 4, 74, 0
8, 14940, Note_on_c, 4, 74, 90
8, 14999, Note_on_c, 4, 74, 0
8, 15000, Note_on_c, 4, 73, 90
8, 15029, Note_on_c, 4, 73, 0
8, 15030, Note_on_c, 4, 71, 90
8, 15059, Note_on_c, 4, 71, 0
8, 15060, Note_on_c, 4, 73, 90
8, 15119, Note_on_c, 4, 73, 0
8, 15420, Note_on_c, 4, 78, 90
8, 15449, Note_on_c, 4, 78, 0
8, 15450, Note_on_c, 4, 79, 90
8, 15479, Note_on_c, 4, 79, 0
8, 15480, Note_on_c, 4, 81, 90
8, 15539, Note_on_c, 4, 81, 0
8, 15540, Note_on_c, 4, 79, 90
8, 15569, Note_on_c, 4, 79, 0
8, 15570, Note_on_c, 4, 78, 90
8, 15599, Note_on_c, 4, 78, 0
8, 15600, Note_on_c, 4, 76, 90
8, 15629, Note_on_c, 4, 76, 0
8, 15630, Note_on_c, 4, 74, 90
8, 15659, Note_on_c, 4, 74, 0
8, 15660, Note_on_c, 4, 73, 90
8, 15689, Note_on_c, 4, 73, 0
8, 15690, Note_on_c, 4, 71, 90
8, 15719, Note_on_c, 4, 71, 0
8, 15720, Note_on_c, 4, 69, 90
8, 15749, Note_on_c, 4, 69, 0
8, 15750, Note_on_c, 4, 67, 90
8, 15779, Note_on_c, 4, 67, 0
8, 15780, Note_on_c, 4, 66, 90
8, 15809, Note_on_c, 4, 66, 0
8, 15810, Note_on_c, 4, 64, 90
8, 15839, Note_on_c, 4, 64, 0
8, 15840, Note_on_c, 4, 62, 90
8, 15899, Note_on_c, 4, 62, 0
8, 16410, Note_on_c, 4, 74, 90
8, 16424, Note_on_c, 4, 74, 0
8, 16425, Note_on_c, 4, 76, 90
8, 16439, Note_on_c, 4, 76, 0
8, 16440, Note_on_c, 4, 78, 90
8, 16454, Note_on_c, 4, 78, 0
8, 16455, Note_on_c, 4, 76, 90
8, 16469, Note_on_c, 4, 76, 0
8, 16470, Note_on_c, 4, 78, 90
8, 16484, Note_on_c, 4, 78, 0
8, 16485, Note_on_c, 4, 76, 90
8, 16499, Note_on_c, 4, 76, 0
8, 16500, Note_on_c, 4, 78, 90
8, 16514, Note_on_c, 4, 78, 0
8, 16515, Note_on_c, 4, 76, 90
8, 16529, Note_on_c, 4, 76, 0
8, 16530, Note_on_c, 4, 74, 90
8, 16544, Note_on_c, 4, 74, 0
8, 16545, Note_on_c, 4, 76, 90
8, 16559, Note_on_c, 4, 76, 0
8, 16560, Note_on_c, 4, 78, 90
8, 16619, Note_on_c, 4, 78, 0
8, 16740, Note_on_c, 4, 74, 90
8, 16799, Note_on_c, 4, 74, 0
8, 16920, Note_on_c, 4, 69, 90
8, 16979, Note_on_c, 4, 69, 0
8, 17115, Note_on_c, 4, 74, 90
8, 17129, Note_on_c, 4, 74, 0
8, 17130, Note_on_c, 4, 73, 90
8, 17144, Note_on_c, 4, 73, 0
8, 17145, Note_on_c, 4, 71, 90
8, 17159, Note_on_c, 4, 71, 0
8, 17160, Note_on_c, 4, 69, 90
8, 17174, Note_on_c, 4, 69, 0
8, 17175, Note_on_c, 4, 74, 90
8, 17189, Note_on_c, 4, 74, 0
8, 17190, Note_on_c, 4, 73, 90
8, 17204, Note_on_c, 4, 73, 0
8, 17205, Note_on_c, 4, 71, 90
8, 17219, Note_on_c, 4, 71, 0
8, 17220, Note_on_c, 4, 69, 90
8, 17234, Note_on_c, 4, 69, 0
8, 17235, Note_on_c, 4, 67, 90
8, 17249, Note_on_c, 4, 67, 0
8, 17250, Note_on_c, 4, 66, 90
8, 17264, Note_on_c, 4, 66, 0
8, 17265, Note_on_c, 4, 64, 90
8, 17279, Note_on_c, 4, 64, 0
8, 17280, Note_on_c, 4, 66, 90
8, 17700, Note_on_c, 4, 66, 0
8, 17700, Note_on_c, 4, 78, 90
8, 17730, Note_on_c, 4, 78, 0
8, 17760, Note_on_c, 4, 78, 90
8, 17790, Note_on_c, 4, 78, 0
8, 17820, Note_on_c, 4, 78, 90
8, 17880, Note_on_c, 4, 78, 0
8, 17880, Note_on_c, 4, 76, 90
8, 17910, Note_on_c, 4, 76, 0
8, 17910, Note_on_c, 4, 74, 90
8, 17940, Note_on_c, 4, 74, 0
8, 17940, Note_on_c, 4, 76, 90
8, 18000, Note_on_c, 4, 76, 0
8, 18660, Note_on_c, 4, 79, 90
8, 18719, Note_on_c, 4, 79, 0
8, 18720, Note_on_c, 4, 78, 90
8, 18779, Note_on_c, 4, 78, 0
8, 18780, Note_on_c, 4, 76, 90
8, 18839, Note_on_c, 4, 76, 0
8, 18840, Note_on_c, 4, 74, 90
8, 18899, Note_on_c, 4, 74, 0
8, 18900, Note_on_c, 4, 81, 90
8, 19019, Note_on_c, 4, 81, 0
8, 19500, Note_on_c, 4, 73, 90
8, 19529, Note_on_c, 4, 73, 0
8, 19530, Note_on_c, 4, 74, 90
8, 19559, Note_on_c, 4, 74, 0
8, 19560, Note_on_c, 4, 76, 90
8, 19574, Note_on_c, 4, 76, 0
8, 19575, Note_on_c, 4, 74, 90
8, 19589, Note_on_c, 4, 74, 0
8, 19590, Note_on_c, 4, 73, 90
8, 19604, Note_on_c, 4, 73, 0
8, 19605, Note_on_c, 4, 74, 90
8, 19619, Note_on_c, 4, 74, 0
8, 19620, Note_on_c, 4, 76, 90
8, 19649, Note_on_c, 4, 76, 0
8, 19650, Note_on_c, 4, 74, 90
8, 19679, Note_on_c, 4, 74, 0
8, 19680, Note_on_c, 4, 76, 90
8, 19709, Note_on_c, 4, 76, 0
8, 19710, Note_on_c, 4, 78, 90
8, 19739, Note_on_c, 4, 78, 0
8, 19740, Note_on_c, 4, 79, 90
8, 19754, Note_on_c, 4, 79, 0
8, 19755, Note_on_c, 4, 78, 90
8, 19769, Note_on_c, 4, 78, 0
8, 19770, Note_on_c, 4, 76, 90
8, 19784, Note_on_c, 4, 76, 0
8, 19785, Note_on_c, 4, 78, 90
8, 19799, Note_on_c, 4, 78, 0
8, 19800, Note_on_c, 4, 79, 90
8, 19829, Note_on_c, 4, 79, 0
8, 19860, Note_on_c, 4, 78, 90
8, 19889, Note_on_c, 4, 78, 0
8, 19920, Note_on_c, 4, 76, 90
8, 19949, Note_on_c, 4, 76, 0
8, 19980, Note_on_c, 4, 74, 90
8, 20009, Note_on_c, 4, 74, 0
8, 20010, Note_on_c, 4, 76, 90
8, 20039, Note_on_c, 4, 76, 0
8, 20040, Note_on_c, 4, 78, 90
8, 20069, Note_on_c, 4, 78, 0
8, 20070, Note_on_c, 4, 79, 90
8, 20099, Note_on_c, 4, 79, 0
8, 20100, Note_on_c, 4, 81, 90
8, 20114, Note_on_c, 4, 81, 0
8, 20115, Note_on_c, 4, 79, 90
8, 20129, Note_on_c, 4, 79, 0
8, 20130, Note_on_c, 4, 78, 90
8, 20144, Note_on_c, 4, 78, 0
8, 20145, Note_on_c, 4, 79, 90
8, 20159, Note_on_c, 4, 79, 0
8, 20160, Note_on_c, 4, 81, 90
8, 20189, Note_on_c, 4, 81, 0
8, 20220, Note_on_c, 4, 69, 90
8, 20249, Note_on_c, 4, 69, 0
8, 20400, Note_on_c, 4, 74, 90
8, 20429, Note_on_c, 4, 74, 0
8, 20430, Note_on_c, 4, 76, 90
8, 20459, Note_on_c, 4, 76, 0
8, 20460, Note_on_c, 4, 78, 90
8, 20474, Note_on_c, 4, 78, 0
8, 20475, Note_on_c, 4, 76, 90
8, 20489, Note_on_c, 4, 76, 0
8, 20490, Note_on_c, 4, 74, 90
8, 20504, Note_on_c, 4, 74, 0
8, 20505, Note_on_c, 4, 76, 90
8, 20519, Note_on_c, 4, 76, 0
8, 20520, Note_on_c, 4, 78, 90
8, 20549, Note_on_c, 4, 78, 0
8, 20550, Note_on_c, 4, 76, 90
8, 20579, Note_on_c, 4, 76, 0
8, 20580, Note_on_c, 4, 78, 90
8, 20609, Note_on_c, 4, 78, 0
8, 20610, Note_on_c, 4, 80, 90
8, 20639, Note_on_c, 4, 80, 0
8, 20640, Note_on_c, 4, 81, 90
8, 20654, Note_on_c, 4, 81, 0
8, 20655, Note_on_c, 4, 80, 90
8, 20669, Note_on_c, 4, 80, 0
8, 20670, Note_on_c, 4, 78, 90
8, 20684, Note_on_c, 4, 78, 0
8, 20685, Note_on_c, 4, 80, 90
8, 20699, Note_on_c, 4, 80, 0
8, 20700, Note_on_c, 4, 81, 90
8, 20729, Note_on_c, 4, 81, 0
8, 20760, Note_on_c, 4, 76, 90
8, 20789, Note_on_c, 4, 76, 0
8, 20820, Note_on_c, 4, 78, 90
8, 20849, Note_on_c, 4, 78, 0
8, 20880, Note_on_c, 4, 79, 90
8, 20909, Note_on_c, 4, 79, 0
8, 20940, Note_on_c, 4, 72, 90
8, 20969, Note_on_c, 4, 72, 0
8, 21000, Note_on_c, 4, 72, 90
8, 21029, Note_on_c, 4, 72, 0
8, 21060, Note_on_c, 4, 71, 90
8, 21119, Note_on_c, 4, 71, 0
8, 21120, Note_on_c, 4, 74, 90
8, 21179, Note_on_c, 4, 74, 0
8, 21180, Note_on_c, 4, 79, 90
8, 21239, Note_on_c, 4, 79, 0
8, 21240, Note_on_c, 4, 78, 90
8, 21299, Note_on_c, 4, 78, 0
8, 21300, Note_on_c, 4, 69, 90
8, 21359, Note_on_c, 4, 69, 0
8, 21360, Note_on_c, 4, 74, 90
8, 21419, Note_on_c, 4, 74, 0
8, 21420, Note_on_c, 4, 73, 90
8, 21449, Note_on_c, 4, 73, 0
8, 21450, Note_on_c, 4, 71, 90
8, 21479, Note_on_c, 4, 71, 0
8, 21480, Note_on_c, 4, 73, 90
8, 21509, Note_on_c, 4, 73, 0
8, 21510, Note_on_c, 4, 74, 90
8, 21539, Note_on_c, 4, 74, 0
8, 21540, Note_on_c, 4, 76, 90
8, 21569, Note_on_c, 4, 76, 0
8, 21570, Note_on_c, 4, 78, 90
8, 21599, Note_on_c, 4, 78, 0
8, 21600, Note_on_c, 4, 75, 90
8, 21629, Note_on_c, 4, 75, 0
8, 21630, Note_on_c, 4, 78, 90
8, 21659, Note_on_c, 4, 78, 0
8, 21660, Note_on_c, 4, 81, 90
8, 21779, Note_on_c, 4, 81, 0
8, 21780, Note_on_c, 4, 72, 90
8, 21794, Note_on_c, 4, 72, 0
8, 21795, Note_on_c, 4, 71, 90
8, 21809, Note_on_c, 4, 71, 0
8, 21810, Note_on_c, 4, 69, 90
8, 21839, Note_on_c, 4, 69, 0
8, 21840, Note_on_c, 4, 69, 90
8, 21869, Note_on_c, 4, 69, 0
8, 21870, Note_on_c, 4, 71, 90
8, 21989, Note_on_c, 4, 71, 0
8, 21990, Note_on_c, 4, 73, 90
8, 22004, Note_on_c, 4, 73, 0
8, 22005, Note_on_c, 4, 75, 90
8, 22019, Note_on_c, 4, 75, 0
8, 22020, Note_on_c, 4, 76, 90
8, 22049, Note_on_c, 4, 76, 0
8, 22050, Note_on_c, 4, 78, 90
8, 22064, Note_on_c, 4, 78, 0
8, 22065, Note_on_c, 4, 79, 90
8, 22079, Note_on_c, 4, 79, 0
8, 22080, Note_on_c, 4, 81, 90
8, 22169, Note_on_c, 4, 81, 0
8, 22170, Note_on_c, 4, 79, 90
8, 22184, Note_on_c, 4, 79, 0
8, 22185, Note_on_c, 4, 78, 90
8, 22199, Note_on_c, 4, 78, 0
8, 22200, Note_on_c, 4, 79, 90
8, 22229, Note_on_c, 4, 79, 0
8, 22230, Note_on_c, 4, 78, 90
8, 22244, Note_on_c, 4, 78, 0
8, 22245, Note_on_c, 4, 76, 90
8, 22259, Note_on_c, 4, 76, 0
8, 22260, Note_on_c, 4, 79, 90
8, 22289, Note_on_c, 4, 79, 0
8, 22290, Note_on_c, 4, 76, 90
8, 22304, Note_on_c, 4, 76, 0
8, 22305, Note_on_c, 4, 78, 90
8, 22319, Note_on_c, 4, 78, 0
8, 22320, Note_on_c, 4, 79, 90
8, 22349, Note_on_c, 4, 79, 0
8, 22350, Note_on_c, 4, 83, 90
8, 22364, Note_on_c, 4, 83, 0
8, 22365, Note_on_c, 4, 81, 90
8, 22379, Note_on_c, 4, 81, 0
8, 22380, Note_on_c, 4, 79, 90
8, 22409, Note_on_c, 4, 79, 0
8, 22410, Note_on_c, 4, 83, 90
8, 22424, Note_on_c, 4, 83, 0
8, 22425, Note_on_c, 4, 81, 90
8, 22439, Note_on_c, 4, 81, 0
8, 22440, Note_on_c, 4, 79, 90
8, 22529, Note_on_c, 4, 79, 0
8, 22530, Note_on_c, 4, 76, 90
8, 22544, Note_on_c, 4, 76, 0
8, 22545, Note_on_c, 4, 78, 90
8, 22559, Note_on_c, 4, 78, 0
8, 22560, Note_on_c, 4, 79, 90
8, 22589, Note_on_c, 4, 79, 0
8, 22590, Note_on_c, 4, 76, 90
8, 22604, Note_on_c, 4, 76, 0
8, 22605, Note_on_c, 4, 78, 90
8, 22619, Note_on_c, 4, 78, 0
8, 22620, Note_on_c, 4, 79, 90
8, 22709, Note_on_c, 4, 79, 0
8, 22710, Note_on_c, 4, 78, 90
8, 22724, Note_on_c, 4, 78, 0
8, 22725, Note_on_c, 4, 79, 90
8, 22739, Note_on_c, 4, 79, 0
8, 22740, Note_on_c, 4, 81, 90
8, 22769, Note_on_c, 4, 81, 0
8, 22770, Note_on_c, 4, 79, 90
8, 22784, Note_on_c, 4, 79, 0
8, 22785, Note_on_c, 4, 78, 90
8, 22799, Note_on_c, 4, 78, 0
8, 22800, Note_on_c, 4, 79, 90
8, 22829, Note_on_c, 4, 79, 0
8, 22830, Note_on_c, 4, 78, 90
8, 22844, Note_on_c, 4, 78, 0
8, 22845, Note_on_c, 4, 76, 90
8, 22859, Note_on_c, 4, 76, 0
8, 22860, Note_on_c, 4, 78, 90
8, 22889, Note_on_c, 4, 78, 0
8, 22890, Note_on_c, 4, 81, 90
8, 22904, Note_on_c, 4, 81, 0
8, 22905, Note_on_c, 4, 79, 90
8, 22919, Note_on_c, 4, 79, 0
8, 22920, Note_on_c, 4, 78, 90
8, 22949, Note_on_c, 4, 78, 0
8, 22950, Note_on_c, 4, 81, 90
8, 22964, Note_on_c, 4, 81, 0
8, 22965, Note_on_c, 4, 79, 90
8, 22979, Note_on_c, 4, 79, 0
8, 22980, Note_on_c, 4, 78, 90
8, 23069, Note_on_c, 4, 78, 0
8, 23100, Note_on_c, 4, 74, 90
8, 23129, Note_on_c, 4, 74, 0
8, 23160, Note_on_c, 4, 78, 90
8, 23189, Note_on_c, 4, 78, 0
8, 23220, Note_on_c, 4, 76, 90
8, 23249, Note_on_c, 4, 76, 0
8, 23280, Note_on_c, 4, 71, 90
8, 23309, Note_on_c, 4, 71, 0
8, 23340, Note_on_c, 4, 76, 90
8, 23459, Note_on_c, 4, 76, 0
8, 23460, Note_on_c, 4, 73, 90
8, 23489, Note_on_c, 4, 73, 0
8, 23520, Note_on_c, 4, 76, 90
8, 23549, Note_on_c, 4, 76, 0
8, 23580, Note_on_c, 4, 74, 90
8, 23609, Note_on_c, 4, 74, 0
8, 23640, Note_on_c, 4, 69, 90
8, 23669, Note_on_c, 4, 69, 0
8, 23700, Note_on_c, 4, 74, 90
8, 23819, Note_on_c, 4, 74, 0
8, 23820, Note_on_c, 4, 76, 90
8, 23849, Note_on_c, 4, 76, 0
8, 23880, Note_on_c, 4, 78, 90
8, 23909, Note_on_c, 4, 78, 0
8, 23940, Note_on_c, 4, 79, 90
8, 23969, Note_on_c, 4, 79, 0
8, 24120, Note_on_c, 4, 79, 90
8, 24149, Note_on_c, 4, 79, 0
8, 24300, Note_on_c, 4, 78, 90
8, 24329, Note_on_c, 4, 78, 0
8, 24360, Note_on_c, 4, 74, 90
8, 24389, Note_on_c, 4, 74, 0
8, 24420, Note_on_c, 4, 73, 90
8, 24449, Note_on_c, 4, 73, 0
8, 24480, Note_on_c, 4, 74, 90
8, 24659, Note_on_c, 4, 74, 0
8, 27540, Note_on_c, 4, 69, 90
8, 27570, Note_on_c, 4, 69, 0
8, 27600, Note_on_c, 4, 74, 90
8, 27630, Note_on_c, 4, 74, 0
8, 27720, Note_on_c, 4, 69, 90
8, 27750, Note_on_c, 4, 69, 0
8, 27780, Note_on_c, 4, 76, 90
8, 27810, Note_on_c, 4, 76, 0
8, 27900, Note_on_c, 4, 74, 90
8, 27930, Note_on_c, 4, 74, 0
8, 27960, Note_on_c, 4, 71, 90
8, 27990, Note_on_c, 4, 71, 0
8, 28080, Note_on_c, 4, 73, 90
8, 28110, Note_on_c, 4, 73, 0
8, 28140, Note_on_c, 4, 76, 90
8, 28170, Note_on_c, 4, 76, 0
8, 28260, Note_on_c, 4, 74, 90
8, 28290, Note_on_c, 4, 74, 0
8, 28320, Note_on_c, 4, 78, 90
8, 28350, Note_on_c, 4, 78, 0
8, 28440, Note_on_c, 4, 71, 90
8, 28470, Note_on_c, 4, 71, 0
8, 28500, Note_on_c, 4, 76, 90
8, 28530, Note_on_c, 4, 76, 0
8, 28620, Note_on_c, 4, 76, 90
8, 28650, Note_on_c, 4, 76, 0
8, 28680, Note_on_c, 4, 74, 90
8, 28710, Note_on_c, 4, 74, 0
8, 28800, Note_on_c, 4, 74, 90
8, 28830, Note_on_c, 4, 74, 0
8, 28860, Note_on_c, 4, 73, 90
8, 28890, Note_on_c, 4, 73, 0
8, 28980, Note_on_c, 4, 66, 90
8, 29010, Note_on_c, 4, 66, 0
8, 29040, Note_on_c, 4, 71, 90
8, 29070, Note_on_c, 4, 71, 0
8, 29160, Note_on_c, 4, 71, 90
8, 29190, Note_on_c, 4, 71, 0
8, 29220, Note_on_c, 4, 70, 90
8, 29250, Note_on_c, 4, 70, 0
8, 29340, Note_on_c, 4, 71, 90
8, 29370, Note_on_c, 4, 71, 0
8, 29400, Note_on_c, 4, 76, 90
8, 29430, Note_on_c, 4, 76, 0
8, 29520, Note_on_c, 4, 73, 90
8, 29550, Note_on_c, 4, 73, 0
8, 29580, Note_on_c, 4, 78, 90
8, 29610, Note_on_c, 4, 78, 0
8, 29700, Note_on_c, 4, 76, 90
8, 29730, Note_on_c, 4, 76, 0
8, 29760, Note_on_c, 4, 78, 90
8, 29790, Note_on_c, 4, 78, 0
8, 29880, Note_on_c, 4, 79, 90
8, 29910, Note_on_c, 4, 79, 0
8, 29940, Note_on_c, 4, 81, 90
8, 29970, Note_on_c, 4, 81, 0
8, 30060, Note_on_c, 4, 76, 90
8, 30090, Note_on_c, 4, 76, 0
8, 30120, Note_on_c, 4, 78, 90
8, 30150, Note_on_c, 4, 78, 0
8, 30240, Note_on_c, 4, 71, 90
8, 30270, Note_on_c, 4, 71, 0
8, 30300, Note_on_c, 4, 79, 90
8, 30330, Note_on_c, 4, 79, 0
8, 30420, Note_on_c, 4, 74, 90
8, 30450, Note_on_c, 4, 74, 0
8, 30480, Note_on_c, 4, 74, 90
8, 30510, Note_on_c, 4, 74, 0
8, 30540, Note_on_c, 4, 74, 90
8, 30570, Note_on_c, 4, 74, 0
8, 30600, Note_on_c, 4, 74, 90
8, 30659, Note_on_c, 4, 74, 0
8, 30660, Note_on_c, 4, 73, 90
8, 30689, Note_on_c, 4, 73, 0
8, 30690, Note_on_c, 4, 71, 90
8, 30719, Note_on_c, 4, 71, 0
8, 30720, Note_on_c, 4, 73, 90
8, 30779, Note_on_c, 4, 73, 0
8, 31770, Note_on_c, 4, 71, 90
8, 31799, Note_on_c, 4, 71, 0
8, 31800, Note_on_c, 4, 73, 90
8, 31829, Note_on_c, 4, 73, 0
8, 31830, Note_on_c, 4, 74, 90
8, 31859, Note_on_c, 4, 74, 0
8, 31860, Note_on_c, 4, 76, 90
8, 31889, Note_on_c, 4, 76, 0
8, 31920, Note_on_c, 4, 85, 90
8, 31949, Note_on_c, 4, 85, 0
8, 31980, Note_on_c, 4, 76, 90
8, 32009, Note_on_c, 4, 76, 0
8, 32040, Note_on_c, 4, 76, 90
8, 32055, Note_on_c, 4, 76, 0
8, 32055, Note_on_c, 4, 78, 90
8, 32070, Note_on_c, 4, 78, 0
8, 32070, Note_on_c, 4, 76, 90
8, 32080, Note_on_c, 4, 76, 0
8, 32080, Note_on_c, 4, 78, 90
8, 32090, Note_on_c, 4, 78, 0
8, 32090, Note_on_c, 4, 76, 90
8, 32100, Note_on_c, 4, 76, 0
8, 32100, Note_on_c, 4, 74, 90
8, 32159, Note_on_c, 4, 74, 0
8, 32460, Note_on_c, 4, 78, 90
8, 32489, Note_on_c, 4, 78, 0
8, 32490, Note_on_c, 4, 76, 90
8, 32519, Note_on_c, 4, 76, 0
8, 32520, Note_on_c, 4, 78, 90
8, 32549, Note_on_c, 4, 78, 0
8, 32550, Note_on_c, 4, 74, 90
8, 32579, Note_on_c, 4, 74, 0
8, 32580, Note_on_c, 4, 76, 90
8, 32639, Note_on_c, 4, 76, 0
8, 32640, Note_on_c, 4, 81, 90
8, 32669, Note_on_c, 4, 81, 0
8, 32670, Note_on_c, 4, 80, 90
8, 32699, Note_on_c, 4, 80, 0
8, 32700, Note_on_c, 4, 81, 90
8, 32819, Note_on_c, 4, 81, 0
8, 32820, Note_on_c, 4, 79, 90
8, 32849, Note_on_c, 4, 79, 0
8, 32850, Note_on_c, 4, 78, 90
8, 32879, Note_on_c, 4, 78, 0
8, 32880, Note_on_c, 4, 79, 90
8, 32909, Note_on_c, 4, 79, 0
8, 32910, Note_on_c, 4, 76, 90
8, 32939, Note_on_c, 4, 76, 0
8, 32940, Note_on_c, 4, 78, 90
8, 32999, Note_on_c, 4, 78, 0
8, 33000, Note_on_c, 4, 83, 90
8, 33029, Note_on_c, 4, 83, 0
8, 33030, Note_on_c, 4, 82, 90
8, 33059, Note_on_c, 4, 82, 0
8, 33060, Note_on_c, 4, 83, 90
8, 33179, Note_on_c, 4, 83, 0
8, 33180, Note_on_c, 4, 82, 90
8, 33209, Note_on_c, 4, 82, 0
8, 33210, Note_on_c, 4, 80, 90
8, 33239, Note_on_c, 4, 80, 0
8, 33240, Note_on_c, 4, 78, 90
8, 33269, Note_on_c, 4, 78, 0
8, 33270, Note_on_c, 4, 76, 90
8, 33299, Note_on_c, 4, 76, 0
8, 33300, Note_on_c, 4, 74, 90
8, 33329, Note_on_c, 4, 74, 0
8, 33330, Note_on_c, 4, 78, 90
8, 33359, Note_on_c, 4, 78, 0
8, 33360, Note_on_c, 4, 83, 90
8, 33419, Note_on_c, 4, 83, 0
8, 33420, Note_on_c, 4, 74, 90
8, 33509, Note_on_c, 4, 74, 0
8, 33510, Note_on_c, 4, 73, 90
8, 33539, Note_on_c, 4, 73, 0
8, 33540, Note_on_c, 4, 74, 90
8, 33599, Note_on_c, 4, 74, 0
8, 33600, Note_on_c, 4, 64, 90
8, 33689, Note_on_c, 4, 64, 0
8, 33690, Note_on_c, 4, 66, 90
8, 33704, Note_on_c, 4, 66, 0
8, 33705, Note_on_c, 4, 68, 90
8, 33719, Note_on_c, 4, 68, 0
8, 33720, Note_on_c, 4, 69, 90
8, 33749, Note_on_c, 4, 69, 0
8, 33750, Note_on_c, 4, 71, 90
8, 33764, Note_on_c, 4, 71, 0
8, 33765, Note_on_c, 4, 73, 90
8, 33779, Note_on_c, 4, 73, 0
8, 33780, Note_on_c, 4, 74, 90
8, 33869, Note_on_c, 4, 74, 0
8, 33870, Note_on_c, 4, 73, 90
8, 33884, Note_on_c, 4, 73, 0
8, 33885, Note_on_c, 4, 71, 90
8, 33899, Note_on_c, 4, 71, 0
8, 33900, Note_on_c, 4, 73, 90
8, 33929, Note_on_c, 4, 73, 0
8, 33930, Note_on_c, 4, 69, 90
8, 33944, Note_on_c, 4, 69, 0
8, 33945, Note_on_c, 4, 71, 90
8, 33959, Note_on_c, 4, 71, 0
8, 33960, Note_on_c, 4, 73, 90
8, 33989, Note_on_c, 4, 73, 0
8, 33990, Note_on_c, 4, 69, 90
8, 34004, Note_on_c, 4, 69, 0
8, 34005, Note_on_c, 4, 71, 90
8, 34019, Note_on_c, 4, 71, 0
8, 34020, Note_on_c, 4, 73, 90
8, 34049, Note_on_c, 4, 73, 0
8, 34050, Note_on_c, 4, 76, 90
8, 34079, Note_on_c, 4, 76, 0
8, 34080, Note_on_c, 4, 79, 90
8, 34199, Note_on_c, 4, 79, 0
8, 34200, Note_on_c, 4, 71, 90
8, 34214, Note_on_c, 4, 71, 0
8, 34215, Note_on_c, 4, 69, 90
8, 34229, Note_on_c, 4, 69, 0
8, 34230, Note_on_c, 4, 67, 90
8, 34259, Note_on_c, 4, 67, 0
8, 34260, Note_on_c, 4, 67, 90
8, 34289, Note_on_c, 4, 67, 0
8, 34290, Note_on_c, 4, 69, 90
8, 34409, Note_on_c, 4, 69, 0
8, 34410, Note_on_c, 4, 71, 90
8, 34424, Note_on_c, 4, 71, 0
8, 34425, Note_on_c, 4, 73, 90
8, 34439, Note_on_c, 4, 73, 0
8, 34440, Note_on_c, 4, 74, 90
8, 34469, Note_on_c, 4, 74, 0
8, 34470, Note_on_c, 4, 76, 90
8, 34484, Note_on_c, 4, 76, 0
8, 34485, Note_on_c, 4, 78, 90
8, 34499, Note_on_c, 4, 78, 0
8, 34500, Note_on_c, 4, 79, 90
8, 34529, Note_on_c, 4, 79, 0
8, 34530, Note_on_c, 4, 81, 90
8, 34544, Note_on_c, 4, 81, 0
8, 34545, Note_on_c, 4, 79, 90
8, 34559, Note_on_c, 4, 79, 0
8, 34560, Note_on_c, 4, 78, 90
8, 34799, Note_on_c, 4, 78, 0
8, 34800, Note_on_c, 4, 74, 90
8, 34859, Note_on_c, 4, 74, 0
8, 34860, Note_on_c, 4, 71, 90
8, 34919, Note_on_c, 4, 71, 0
8, 34920, Note_on_c, 4, 76, 90
8, 35159, Note_on_c, 4, 76, 0
8, 35160, Note_on_c, 4, 73, 90
8, 35219, Note_on_c, 4, 73, 0
8, 35220, Note_on_c, 4, 70, 90
8, 35279, Note_on_c, 4, 70, 0
8, 35280, Note_on_c, 4, 74, 90
8, 35339, Note_on_c, 4, 74, 0
8, 35340, Note_on_c, 4, 73, 90
8, 35459, Note_on_c, 4, 73, 0
8, 35460, Note_on_c, 4, 71, 90
8, 35519, Note_on_c, 4, 71, 0
8, 35520, Note_on_c, 4, 73, 90
8, 35549, Note_on_c, 4, 73, 0
8, 35550, Note_on_c, 4, 71, 90
8, 35579, Note_on_c, 4, 71, 0
8, 35580, Note_on_c, 4, 71, 90
8, 35699, Note_on_c, 4, 71, 0
8, 35700, Note_on_c, 4, 68, 90
8, 35759, Note_on_c, 4, 68, 0
8, 35760, Note_on_c, 4, 77, 90
8, 35819, Note_on_c, 4, 77, 0
8, 35820, Note_on_c, 4, 78, 90
8, 35879, Note_on_c, 4, 78, 0
8, 35880, Note_on_c, 4, 73, 90
8, 35909, Note_on_c, 4, 73, 0
8, 35910, Note_on_c, 4, 71, 90
8, 35939, Note_on_c, 4, 71, 0
8, 35940, Note_on_c, 4, 69, 90
8, 35969, Note_on_c, 4, 69, 0
8, 35970, Note_on_c, 4, 68, 90
8, 35999, Note_on_c, 4, 68, 0
8, 36000, Note_on_c, 4, 66, 90
8, 36179, Note_on_c, 4, 66, 0
8, 36870, Note_on_c, 4, 74, 90
8, 36884, Note_on_c, 4, 74, 0
8, 36885, Note_on_c, 4, 76, 90
8, 36899, Note_on_c, 4, 76, 0
8, 36900, Note_on_c, 4, 78, 90
8, 36914, Note_on_c, 4, 78, 0
8, 36915, Note_on_c, 4, 76, 90
8, 36929, Note_on_c, 4, 76, 0
8, 36930, Note_on_c, 4, 78, 90
8, 36944, Note_on_c, 4, 78, 0
8, 36945, Note_on_c, 4, 76, 90
8, 36959, Note_on_c, 4, 76, 0
8, 36960, Note_on_c, 4, 78, 90
8, 36974, Note_on_c, 4, 78, 0
8, 36975, Note_on_c, 4, 76, 90
8, 36989, Note_on_c, 4, 76, 0
8, 36990, Note_on_c, 4, 74, 90
8, 37004, Note_on_c, 4, 74, 0
8, 37005, Note_on_c, 4, 76, 90
8, 37019, Note_on_c, 4, 76, 0
8, 37020, Note_on_c, 4, 78, 90
8, 37079, Note_on_c, 4, 78, 0
8, 37215, Note_on_c, 4, 74, 90
8, 37229, Note_on_c, 4, 74, 0
8, 37230, Note_on_c, 4, 73, 90
8, 37244, Note_on_c, 4, 73, 0
8, 37245, Note_on_c, 4, 71, 90
8, 37259, Note_on_c, 4, 71, 0
8, 37260, Note_on_c, 4, 69, 90
8, 37274, Note_on_c, 4, 69, 0
8, 37275, Note_on_c, 4, 74, 90
8, 37289, Note_on_c, 4, 74, 0
8, 37290, Note_on_c, 4, 73, 90
8, 37304, Note_on_c, 4, 73, 0
8, 37305, Note_on_c, 4, 71, 90
8, 37319, Note_on_c, 4, 71, 0
8, 37320, Note_on_c, 4, 69, 90
8, 37334, Note_on_c, 4, 69, 0
8, 37335, Note_on_c, 4, 67, 90
8, 37349, Note_on_c, 4, 67, 0
8, 37350, Note_on_c, 4, 66, 90
8, 37364, Note_on_c, 4, 66, 0
8, 37365, Note_on_c, 4, 64, 90
8, 37379, Note_on_c, 4, 64, 0
8, 37380, Note_on_c, 4, 66, 90
8, 37800, Note_on_c, 4, 66, 0
8, 37800, Note_on_c, 4, 78, 90
8, 37830, Note_on_c, 4, 78, 0
8, 37860, Note_on_c, 4, 78, 90
8, 37890, Note_on_c, 4, 78, 0
8, 37920, Note_on_c, 4, 78, 90
8, 37980, Note_on_c, 4, 78, 0
8, 37980, Note_on_c, 4, 76, 90
8, 38010, Note_on_c, 4, 76, 0
8, 38010, Note_on_c, 4, 74, 90
8, 38040, Note_on_c, 4, 74, 0
8, 38040, Note_on_c, 4, 76, 90
8, 38100, Note_on_c, 4, 76, 0
8, 38760, Note_on_c, 4, 79, 90
8, 38819, Note_on_c, 4, 79, 0
8, 38820, Note_on_c, 4, 78, 90
8, 38879, Note_on_c, 4, 78, 0
8, 38880, Note_on_c, 4, 76, 90
8, 38939, Note_on_c, 4, 76, 0
8, 38940, Note_on_c, 4, 74, 90
8, 38999, Note_on_c, 4, 74, 0
8, 39000, Note_on_c, 4, 81, 90
8, 39119, Note_on_c, 4, 81, 0
8, 39120, Note_on_c, 4, 76, 90
8, 39179, Note_on_c, 4, 76, 0
8, 39180, Note_on_c, 4, 75, 90
8, 39209, Note_on_c, 4, 75, 0
8, 39210, Note_on_c, 4, 78, 90
8, 39239, Note_on_c, 4, 78, 0
8, 39240, Note_on_c, 4, 81, 90
8, 39359, Note_on_c, 4, 81, 0
8, 39360, Note_on_c, 4, 72, 90
8, 39374, Note_on_c, 4, 72, 0
8, 39375, Note_on_c, 4, 71, 90
8, 39389, Note_on_c, 4, 71, 0
8, 39390, Note_on_c, 4, 69, 90
8, 39419, Note_on_c, 4, 69, 0
8, 39420, Note_on_c, 4, 69, 90
8, 39449, Note_on_c, 4, 69, 0
8, 39450, Note_on_c, 4, 71, 90
8, 39570, Note_on_c, 4, 71, 0
8, 39570, Note_on_c, 4, 73, 90
8, 39584, Note_on_c, 4, 73, 0
8, 39585, Note_on_c, 4, 75, 90
8, 39599, Note_on_c, 4, 75, 0
8, 39600, Note_on_c, 4, 76, 90
8, 39629, Note_on_c, 4, 76, 0
8, 39630, Note_on_c, 4, 78, 90
8, 39644, Note_on_c, 4, 78, 0
8, 39645, Note_on_c, 4, 80, 90
8, 39659, Note_on_c, 4, 80, 0
8, 39660, Note_on_c, 4, 81, 90
8, 39749, Note_on_c, 4, 81, 0
8, 39750, Note_on_c, 4, 79, 90
8, 39764, Note_on_c, 4, 79, 0
8, 39765, Note_on_c, 4, 78, 90
8, 39779, Note_on_c, 4, 78, 0
8, 39780, Note_on_c, 4, 79, 90
8, 39809, Note_on_c, 4, 79, 0
8, 39810, Note_on_c, 4, 78, 90
8, 39824, Note_on_c, 4, 78, 0
8, 39825, Note_on_c, 4, 76, 90
8, 39839, Note_on_c, 4, 76, 0
8, 39840, Note_on_c, 4, 79, 90
8, 39869, Note_on_c, 4, 79, 0
8, 39870, Note_on_c, 4, 76, 90
8, 39884, Note_on_c, 4, 76, 0
8, 39885, Note_on_c, 4, 78, 90
8, 39899, Note_on_c, 4, 78, 0
8, 39900, Note_on_c, 4, 79, 90
8, 39929, Note_on_c, 4, 79, 0
8, 39930, Note_on_c, 4, 83, 90
8, 39944, Note_on_c, 4, 83, 0
8, 39945, Note_on_c, 4, 81, 90
8, 39959, Note_on_c, 4, 81, 0
8, 39960, Note_on_c, 4, 79, 90
8, 39989, Note_on_c, 4, 79, 0
8, 39990, Note_on_c, 4, 83, 90
8, 40004, Note_on_c, 4, 83, 0
8, 40005, Note_on_c, 4, 81, 90
8, 40019, Note_on_c, 4, 81, 0
8, 40020, Note_on_c, 4, 79, 90
8, 40109, Note_on_c, 4, 79, 0
8, 40110, Note_on_c, 4, 76, 90
8, 40124, Note_on_c, 4, 76, 0
8, 40125, Note_on_c, 4, 78, 90
8, 40139, Note_on_c, 4, 78, 0
8, 40140, Note_on_c, 4, 79, 90
8, 40169, Note_on_c, 4, 79, 0
8, 40170, Note_on_c, 4, 76, 90
8, 40184, Note_on_c, 4, 76, 0
8, 40185, Note_on_c, 4, 78, 90
8, 40199, Note_on_c, 4, 78, 0
8, 40200, Note_on_c, 4, 79, 90
8, 40289, Note_on_c, 4, 79, 0
8, 40290, Note_on_c, 4, 78, 90
8, 40304, Note_on_c, 4, 78, 0
8, 40305, Note_on_c, 4, 79, 90
8, 40319, Note_on_c, 4, 79, 0
8, 40320, Note_on_c, 4, 81, 90
8, 40349, Note_on_c, 4, 81, 0
8, 40350, Note_on_c, 4, 79, 90
8, 40364, Note_on_c, 4, 79, 0
8, 40365, Note_on_c, 4, 78, 90
8, 40379, Note_on_c, 4, 78, 0
8, 40380, Note_on_c, 4, 79, 90
8, 40409, Note_on_c, 4, 79, 0
8, 40410, Note_on_c, 4, 78, 90
8, 40424, Note_on_c, 4, 78, 0
8, 40425, Note_on_c, 4, 76, 90
8, 40439, Note_on_c, 4, 76, 0
8, 40440, Note_on_c, 4, 78, 90
8, 40469, Note_on_c, 4, 78, 0
8, 40470, Note_on_c, 4, 81, 90
8, 40484, Note_on_c, 4, 81, 0
8, 40485, Note_on_c, 4, 79, 90
8, 40499, Note_on_c, 4, 79, 0
8, 40500, Note_on_c, 4, 78, 90
8, 40529, Note_on_c, 4, 78, 0
8, 40530, Note_on_c, 4, 81, 90
8, 40544, Note_on_c, 4, 81, 0
8, 40545, Note_on_c, 4, 79, 90
8, 40559, Note_on_c, 4, 79, 0
8, 40560, Note_on_c, 4, 78, 90
8, 40680, Note_on_c, 4, 78, 0
8, 40680, Note_on_c, 4, 74, 90
8, 40709, Note_on_c, 4, 74, 0
8, 40740, Note_on_c, 4, 78, 90
8, 40769, Note_on_c, 4, 78, 0
8, 40800, Note_on_c, 4, 76, 90
8, 40829, Note_on_c, 4, 76, 0
8, 40860, Note_on_c, 4, 71, 90
8, 40889, Note_on_c, 4, 71, 0
8, 40920, Note_on_c, 4, 76, 90
8, 41039, Note_on_c, 4, 76, 0
8, 41040, Note_on_c, 4, 73, 90
8, 41069, Note_on_c, 4, 73, 0
8, 41100, Note_on_c, 4, 76, 90
8, 41129, Note_on_c, 4, 76, 0
8, 41160, Note_on_c, 4, 74, 90
8, 41189, Note_on_c, 4, 74, 0
8, 41220, Note_on_c, 4, 69, 90
8, 41249, Note_on_c, 4, 69, 0
8, 41280, Note_on_c, 4, 74, 90
8, 41399, Note_on_c, 4, 74, 0
8, 41400, Note_on_c, 4, 76, 90
8, 41429, Note_on_c, 4, 76, 0
8, 41460, Note_on_c, 4, 78, 90
8, 41489, Note_on_c, 4, 78, 0
8, 41520, Note_on_c, 4, 79, 90
8, 41549, Note_on_c, 4, 79, 0
8, 41700, Note_on_c, 4, 79, 90
8, 41729, Note_on_c, 4, 79, 0
8, 41880, Note_on_c, 4, 78, 90
8, 41909, Note_on_c, 4, 78, 0
8, 41940, Note_on_c, 4, 74, 90
8, 41969, Note_on_c, 4, 74, 0
8, 42000, Note_on_c, 4, 73, 90
8, 42015, Note_on_c, 4, 73, 0
8, 42015, Note_on_c, 4, 74, 90
8, 42030, Note_on_c, 4, 74, 0
8, 42030, Note_on_c, 4, 73, 90
8, 42059, Note_on_c, 4, 73, 0
8, 42060, Note_on_c, 4, 74, 90
8, 42119, Note_on_c, 4, 74, 0
8, 42630, Note_on_c, 4, 74, 90
8, 42644, Note_on_c, 4, 74, 0
8, 42645, Note_on_c, 4, 76, 90
8, 42659, Note_on_c, 4, 76, 0
8, 42660, Note_on_c, 4, 78, 90
8, 42674, Note_on_c, 4, 78, 0
8, 42675, Note_on_c, 4, 76, 90
8, 42689, Note_on_c, 4, 76, 0
8, 42690, Note_on_c, 4, 78, 90
8, 42704, Note_on_c, 4, 78, 0
8, 42705, Note_on_c, 4, 76, 90
8, 42719, Note_on_c, 4, 76, 0
8, 42720, Note_on_c, 4, 78, 90
8, 42734, Note_on_c, 4, 78, 0
8, 42735, Note_on_c, 4, 76, 90
8, 42749, Note_on_c, 4, 76, 0
8, 42750, Note_on_c, 4, 74, 90
8, 42764, Note_on_c, 4, 74, 0
8, 42765, Note_on_c, 4, 76, 90
8, 42779, Note_on_c, 4, 76, 0
8, 42780, Note_on_c, 4, 78, 90
8, 42839, Note_on_c, 4, 78, 0
8, 42960, Note_on_c, 4, 74, 90
8, 43019, Note_on_c, 4, 74, 0
8, 43140, Note_on_c, 4, 69, 90
8, 43199, Note_on_c, 4, 69, 0
8, 43335, Note_on_c, 4, 74, 90
8, 43349, Note_on_c, 4, 74, 0
8, 43350, Note_on_c, 4, 73, 90
8, 43364, Note_on_c, 4, 73, 0
8, 43365, Note_on_c, 4, 71, 90
8, 43379, Note_on_c, 4, 71, 0
8, 43380, Note_on_c, 4, 69, 90
8, 43394, Note_on_c, 4, 69, 0
8, 43395, Note_on_c, 4, 74, 90
8, 43409, Note_on_c, 4, 74, 0
8, 43410, Note_on_c, 4, 73, 90
8, 43424, Note_on_c, 4, 73, 0
8, 43425, Note_on_c, 4, 71, 90
8, 43439, Note_on_c, 4, 71, 0
8, 43440, Note_on_c, 4, 69, 90
8, 43454, Note_on_c, 4, 69, 0
8, 43455, Note_on_c, 4, 67, 90
8, 43469, Note_on_c, 4, 67, 0
8, 43470, Note_on_c, 4, 66, 90
8, 43484, Note_on_c, 4, 66, 0
8, 43485, Note_on_c, 4, 64, 90
8, 43499, Note_on_c, 4, 64, 0
8, 43500, Note_on_c, 4, 66, 90
8, 43920, Note_on_c, 4, 66, 0
8, 43920, Note_on_c, 4, 78, 90
8, 43950, Note_on_c, 4, 78, 0
8, 43980, Note_on_c, 4, 78, 90
8, 44010, Note_on_c, 4, 78, 0
8, 44040, Note_on_c, 4, 78, 90
8, 44100, Note_on_c, 4, 78, 0
8, 44100, Note_on_c, 4, 76, 90
8, 44130, Note_on_c, 4, 76, 0
8, 44130, Note_on_c, 4, 74, 90
8, 44160, Note_on_c, 4, 74, 0
8, 44160, Note_on_c, 4, 76, 90
8, 44220, Note_on_c, 4, 76, 0
8, 44880, Note_on_c, 4, 79, 90
8, 44940, Note_on_c, 4, 79, 0
8, 44940, Note_on_c, 4, 78, 90
8, 45000, Note_on_c, 4, 78, 0
8, 45000, Note_on_c, 4, 76, 90
8, 45060, Note_on_c, 4, 76, 0
8, 45060, Note_on_c, 4, 74, 90
8, 45120, Note_on_c, 4, 74, 0
8, 45120, Note_on_c, 4, 81, 90
8, 45240, Note_on_c, 4, 81, 0
8, 45900, Note_on_c, 4, 74, 90
8, 45929, Note_on_c, 4, 74, 0
8, 45930, Note_on_c, 4, 76, 90
8, 45959, Note_on_c, 4, 76, 0
8, 45960, Note_on_c, 4, 78, 90
8, 45974, Note_on_c, 4, 78, 0
8, 45975, Note_on_c, 4, 76, 90
8, 45989, Note_on_c, 4, 76, 0
8, 45990, Note_on_c, 4, 74, 90
8, 46004, Note_on_c, 4, 74, 0
8, 46005, Note_on_c, 4, 76, 90
8, 46019, Note_on_c, 4, 76, 0
8, 46020, Note_on_c, 4, 78, 90
8, 46049, Note_on_c, 4, 78, 0
8, 46050, Note_on_c, 4, 76, 90
8, 46079, Note_on_c, 4, 76, 0
8, 46080, Note_on_c, 4, 78, 90
8, 46109, Note_on_c, 4, 78, 0
8, 46110, Note_on_c, 4, 80, 90
8, 46139, Note_on_c, 4, 80, 0
8, 46140, Note_on_c, 4, 81, 90
8, 46154, Note_on_c, 4, 81, 0
8, 46155, Note_on_c, 4, 80, 90
8, 46169, Note_on_c, 4, 80, 0
8, 46170, Note_on_c, 4, 78, 90
8, 46184, Note_on_c, 4, 78, 0
8, 46185, Note_on_c, 4, 80, 90
8, 46199, Note_on_c, 4, 80, 0
8, 46200, Note_on_c, 4, 81, 90
8, 46229, Note_on_c, 4, 81, 0
8, 46230, Note_on_c, 4, 76, 90
8, 46259, Note_on_c, 4, 76, 0
8, 46260, Note_on_c, 4, 73, 90
8, 46289, Note_on_c, 4, 73, 0
8, 46290, Note_on_c, 4, 81, 90
8, 46319, Note_on_c, 4, 81, 0
8, 46320, Note_on_c, 4, 71, 90
8, 46349, Note_on_c, 4, 71, 0
8, 46350, Note_on_c, 4, 80, 90
8, 46379, Note_on_c, 4, 80, 0
8, 46380, Note_on_c, 4, 69, 90
8, 46499, Note_on_c, 4, 69, 0
8, 46620, Note_on_c, 4, 67, 90
8, 46649, Note_on_c, 4, 67, 0
8, 46650, Note_on_c, 4, 69, 90
8, 46679, Note_on_c, 4, 69, 0
8, 46680, Note_on_c, 4, 71, 90
8, 46694, Note_on_c, 4, 71, 0
8, 46695, Note_on_c, 4, 69, 90
8, 46709, Note_on_c, 4, 69, 0
8, 46710, Note_on_c, 4, 67, 90
8, 46724, Note_on_c, 4, 67, 0
8, 46725, Note_on_c, 4, 69, 90
8, 46739, Note_on_c, 4, 69, 0
8, 46740, Note_on_c, 4, 71, 90
8, 46829, Note_on_c, 4, 71, 0
8, 46830, Note_on_c, 4, 73, 90
8, 46859, Note_on_c, 4, 73, 0
8, 46860, Note_on_c, 4, 74, 90
8, 46874, Note_on_c, 4, 74, 0
8, 46875, Note_on_c, 4, 73, 90
8, 46889, Note_on_c, 4, 73, 0
8, 46890, Note_on_c, 4, 71, 90
8, 46904, Note_on_c, 4, 71, 0
8, 46905, Note_on_c, 4, 73, 90
8, 46919, Note_on_c, 4, 73, 0
8, 46920, Note_on_c, 4, 74, 90
8, 46949, Note_on_c, 4, 74, 0
8, 46980, Note_on_c, 4, 74, 90
8, 47009, Note_on_c, 4, 74, 0
8, 47040, Note_on_c, 4, 73, 90
8, 47069, Note_on_c, 4, 73, 0
8, 47100, Note_on_c, 4, 74, 90
8, 47129, Note_on_c, 4, 74, 0
8, 47130, Note_on_c, 4, 73, 90
8, 47159, Note_on_c, 4, 73, 0
8, 47160, Note_on_c, 4, 74, 90
8, 47189, Note_on_c, 4, 74, 0
8, 47190, Note_on_c, 4, 78, 90
8, 47219, Note_on_c, 4, 78, 0
8, 47220, Note_on_c, 4, 76, 90
8, 47249, Note_on_c, 4, 76, 0
8, 47250, Note_on_c, 4, 74, 90
8, 47279, Note_on_c, 4, 74, 0
8, 47280, Note_on_c, 4, 73, 90
8, 47309, Note_on_c, 4, 73, 0
8, 47310, Note_on_c, 4, 71, 90
8, 47339, Note_on_c, 4, 71, 0
8, 47340, Note_on_c, 4, 73, 90
8, 47369, Note_on_c, 4, 73, 0
8, 47370, Note_on_c, 4, 76, 90
8, 47399, Note_on_c, 4, 76, 0
8, 47400, Note_on_c, 4, 75, 90
8, 47429, Note_on_c, 4, 75, 0
8, 47430, Note_on_c, 4, 78, 90
8, 47459, Note_on_c, 4, 78, 0
8, 47460, Note_on_c, 4, 76, 90
8, 47489, Note_on_c, 4, 76, 0
8, 47490, Note_on_c, 4, 75, 90
8, 47519, Note_on_c, 4, 75, 0
8, 47520, Note_on_c, 4, 76, 90
8, 47549, Note_on_c, 4, 76, 0
8, 47550, Note_on_c, 4, 78, 90
8, 47579, Note_on_c, 4, 78, 0
8, 47580, Note_on_c, 4, 79, 90
8, 47594, Note_on_c, 4, 79, 0
8, 47595, Note_on_c, 4, 78, 90
8, 47609, Note_on_c, 4, 78, 0
8, 47610, Note_on_c, 4, 76, 90
8, 47624, Note_on_c, 4, 76, 0
8, 47625, Note_on_c, 4, 78, 90
8, 47639, Note_on_c, 4, 78, 0
8, 47640, Note_on_c, 4, 79, 90
8, 47669, Note_on_c, 4, 79, 0
8, 47670, Note_on_c, 4, 78, 90
8, 47699, Note_on_c, 4, 78, 0
8, 47700, Note_on_c, 4, 76, 90
8, 47729, Note_on_c, 4, 76, 0
8, 47730, Note_on_c, 4, 74, 90
8, 47759, Note_on_c, 4, 74, 0
8, 47760, Note_on_c, 4, 73, 90
8, 47789, Note_on_c, 4, 73, 0
8, 47790, Note_on_c, 4, 71, 90
8, 47819, Note_on_c, 4, 71, 0
8, 47820, Note_on_c, 4, 70, 90
8, 47849, Note_on_c, 4, 70, 0
8, 47850, Note_on_c, 4, 73, 90
8, 47879, Note_on_c, 4, 73, 0
8, 47880, Note_on_c, 4, 76, 90
8, 47999, Note_on_c, 4, 76, 0
8, 48000, Note_on_c, 4, 67, 90
8, 48014, Note_on_c, 4, 67, 0
8, 48015, Note_on_c, 4, 66, 90
8, 48029, Note_on_c, 4, 66, 0
8, 48030, Note_on_c, 4, 64, 90
8, 48059, Note_on_c, 4, 64, 0
8, 48060, Note_on_c, 4, 64, 90
8, 48089, Note_on_c, 4, 64, 0
8, 48090, Note_on_c, 4, 66, 90
8, 48209, Note_on_c, 4, 66, 0
8, 48210, Note_on_c, 4, 68, 90
8, 48224, Note_on_c, 4, 68, 0
8, 48225, Note_on_c, 4, 70, 90
8, 48239, Note_on_c, 4, 70, 0
8, 48240, Note_on_c, 4, 71, 90
8, 48269, Note_on_c, 4, 71, 0
8, 48270, Note_on_c, 4, 73, 90
8, 48284, Note_on_c, 4, 73, 0
8, 48285, Note_on_c, 4, 75, 90
8, 48299, Note_on_c, 4, 75, 0
8, 48300, Note_on_c, 4, 76, 90
8, 48389, Note_on_c, 4, 76, 0
8, 48390, Note_on_c, 4, 74, 90
8, 48404, Note_on_c, 4, 74, 0
8, 48405, Note_on_c, 4, 73, 90
8, 48419, Note_on_c, 4, 73, 0
8, 48420, Note_on_c, 4, 74, 90
8, 48449, Note_on_c, 4, 74, 0
8, 48450, Note_on_c, 4, 73, 90
8, 48464, Note_on_c, 4, 73, 0
8, 48465, Note_on_c, 4, 71, 90
8, 48479, Note_on_c, 4, 71, 0
8, 48480, Note_on_c, 4, 74, 90
8, 48509, Note_on_c, 4, 74, 0
8, 48510, Note_on_c, 4, 71, 90
8, 48524, Note_on_c, 4, 71, 0
8, 48525, Note_on_c, 4, 73, 90
8, 48539, Note_on_c, 4, 73, 0
8, 48540, Note_on_c, 4, 74, 90
8, 48569, Note_on_c, 4, 74, 0
8, 48570, Note_on_c, 4, 78, 90
8, 48584, Note_on_c, 4, 78, 0
8, 48585, Note_on_c, 4, 76, 90
8, 48599, Note_on_c, 4, 76, 0
8, 48600, Note_on_c, 4, 74, 90
8, 48629, Note_on_c, 4, 74, 0
8, 48630, Note_on_c, 4, 78, 90
8, 48644, Note_on_c, 4, 78, 0
8, 48645, Note_on_c, 4, 76, 90
8, 48659, Note_on_c, 4, 76, 0
8, 48660, Note_on_c, 4, 74, 90
8, 48749, Note_on_c, 4, 74, 0
8, 48750, Note_on_c, 4, 71, 90
8, 48764, Note_on_c, 4, 71, 0
8, 48765, Note_on_c, 4, 73, 90
8, 48779, Note_on_c, 4, 73, 0
8, 48780, Note_on_c, 4, 74, 90
8, 48809, Note_on_c, 4, 74, 0
8, 48810, Note_on_c, 4, 71, 90
8, 48824, Note_on_c, 4, 71, 0
8, 48825, Note_on_c, 4, 73, 90
8, 48839, Note_on_c, 4, 73, 0
8, 48840, Note_on_c, 4, 74, 90
8, 48929, Note_on_c, 4, 74, 0
8, 48930, Note_on_c, 4, 73, 90
8, 48944, Note_on_c, 4, 73, 0
8, 48945, Note_on_c, 4, 74, 90
8, 48959, Note_on_c, 4, 74, 0
8, 48960, Note_on_c, 4, 76, 90
8, 48989, Note_on_c, 4, 76, 0
8, 48990, Note_on_c, 4, 74, 90
8, 49004, Note_on_c, 4, 74, 0
8, 49005, Note_on_c, 4, 73, 90
8, 49019, Note_on_c, 4, 73, 0
8, 49020, Note_on_c, 4, 74, 90
8, 49049, Note_on_c, 4, 74, 0
8, 49050, Note_on_c, 4, 73, 90
8, 49064, Note_on_c, 4, 73, 0
8, 49065, Note_on_c, 4, 71, 90
8, 49079, Note_on_c, 4, 71, 0
8, 49080, Note_on_c, 4, 73, 90
8, 49109, Note_on_c, 4, 73, 0
8, 49110, Note_on_c, 4, 76, 90
8, 49124, Note_on_c, 4, 76, 0
8, 49125, Note_on_c, 4, 74, 90
8, 49139, Note_on_c, 4, 74, 0
8, 49140, Note_on_c, 4, 73, 90
8, 49169, Note_on_c, 4, 73, 0
8, 49170, Note_on_c, 4, 76, 90
8, 49184, Note_on_c, 4, 76, 0
8, 49185, Note_on_c, 4, 74, 90
8, 49199, Note_on_c, 4, 74, 0
8, 49200, Note_on_c, 4, 73, 90
8, 49229, Note_on_c, 4, 73, 0
8, 49230, Note_on_c, 4, 69, 90
8, 49244, Note_on_c, 4, 69, 0
8, 49245, Note_on_c, 4, 71, 90
8, 49259, Note_on_c, 4, 71, 0
8, 49260, Note_on_c, 4, 73, 90
8, 49289, Note_on_c, 4, 73, 0
8, 49290, Note_on_c, 4, 71, 90
8, 49304, Note_on_c, 4, 71, 0
8, 49305, Note_on_c, 4, 73, 90
8, 49319, Note_on_c, 4, 73, 0
8, 49320, Note_on_c, 4, 75, 90
8, 49349, Note_on_c, 4, 75, 0
8, 49350, Note_on_c, 4, 73, 90
8, 49364, Note_on_c, 4, 73, 0
8, 49365, Note_on_c, 4, 75, 90
8, 49379, Note_on_c, 4, 75, 0
8, 49380, Note_on_c, 4, 76, 90
8, 49409, Note_on_c, 4, 76, 0
8, 49410, Note_on_c, 4, 75, 90
8, 49424, Note_on_c, 4, 75, 0
8, 49425, Note_on_c, 4, 76, 90
8, 49439, Note_on_c, 4, 76, 0
8, 49440, Note_on_c, 4, 78, 90
8, 49499, Note_on_c, 4, 78, 0
8, 49500, Note_on_c, 4, 71, 90
8, 49649, Note_on_c, 4, 71, 0
8, 49650, Note_on_c, 4, 69, 90
8, 49664, Note_on_c, 4, 69, 0
8, 49665, Note_on_c, 4, 71, 90
8, 49679, Note_on_c, 4, 71, 0
8, 49680, Note_on_c, 4, 73, 90
8, 49709, Note_on_c, 4, 73, 0
8, 49710, Note_on_c, 4, 71, 90
8, 49724, Note_on_c, 4, 71, 0
8, 49725, Note_on_c, 4, 73, 90
8, 49739, Note_on_c, 4, 73, 0
8, 49740, Note_on_c, 4, 74, 90
8, 49769, Note_on_c, 4, 74, 0
8, 49770, Note_on_c, 4, 73, 90
8, 49784, Note_on_c, 4, 73, 0
8, 49785, Note_on_c, 4, 74, 90
8, 49799, Note_on_c, 4, 74, 0
8, 49800, Note_on_c, 4, 76, 90
8, 49859, Note_on_c, 4, 76, 0
8, 49860, Note_on_c, 4, 69, 90
8, 50009, Note_on_c, 4, 69, 0
8, 50010, Note_on_c, 4, 68, 90
8, 50024, Note_on_c, 4, 68, 0
8, 50025, Note_on_c, 4, 69, 90
8, 50039, Note_on_c, 4, 69, 0
8, 50040, Note_on_c, 4, 71, 90
8, 50069, Note_on_c, 4, 71, 0
8, 50070, Note_on_c, 4, 69, 90
8, 50084, Note_on_c, 4, 69, 0
8, 50085, Note_on_c, 4, 71, 90
8, 50099, Note_on_c, 4, 71, 0
8, 50100, Note_on_c, 4, 73, 90
8, 50129, Note_on_c, 4, 73, 0
8, 50130, Note_on_c, 4, 71, 90
8, 50144, Note_on_c, 4, 71, 0
8, 50145, Note_on_c, 4, 73, 90
8, 50159, Note_on_c, 4, 73, 0
8, 50160, Note_on_c, 4, 74, 90
8, 50219, Note_on_c, 4, 74, 0
8, 50220, Note_on_c, 4, 78, 90
8, 50249, Note_on_c, 4, 78, 0
8, 50250, Note_on_c, 4, 76, 90
8, 50279, Note_on_c, 4, 76, 0
8, 50280, Note_on_c, 4, 74, 90
8, 50339, Note_on_c, 4, 74, 0
8, 50340, Note_on_c, 4, 83, 90
8, 50399, Note_on_c, 4, 83, 0
8, 50400, Note_on_c, 4, 74, 90
8, 50519, Note_on_c, 4, 74, 0
8, 50520, Note_on_c, 4, 73, 90
8, 50549, Note_on_c, 4, 73, 0
8, 50580, Note_on_c, 4, 74, 90
8, 50609, Note_on_c, 4, 74, 0
8, 50640, Note_on_c, 4, 71, 90
8, 50669, Note_on_c, 4, 71, 0
8, 50700, Note_on_c, 4, 69, 90
8, 50759, Note_on_c, 4, 69, 0
8, 51000, Note_on_c, 4, 71, 90
8, 51029, Note_on_c, 4, 71, 0
8, 51030, Note_on_c, 4, 73, 90
8, 51059, Note_on_c, 4, 73, 0
8, 51060, Note_on_c, 4, 74, 90
8, 51089, Note_on_c, 4, 74, 0
8, 51120, Note_on_c, 4, 74, 90
8, 51149, Note_on_c, 4, 74, 0
8, 51180, Note_on_c, 4, 74, 90
8, 51209, Note_on_c, 4, 74, 0
8, 51240, Note_on_c, 4, 74, 90
8, 51299, Note_on_c, 4, 74, 0
8, 51300, Note_on_c, 4, 73, 90
8, 51329, Note_on_c, 4, 73, 0
8, 51330, Note_on_c, 4, 71, 90
8, 51359, Note_on_c, 4, 71, 0
8, 51360, Note_on_c, 4, 73, 90
8, 51419, Note_on_c, 4, 73, 0
8, 51720, Note_on_c, 4, 78, 90
8, 51749, Note_on_c, 4, 78, 0
8, 51750, Note_on_c, 4, 79, 90
8, 51779, Note_on_c, 4, 79, 0
8, 51780, Note_on_c, 4, 81, 90
8, 51839, Note_on_c, 4, 81, 0
8, 51840, Note_on_c, 4, 79, 90
8, 51869, Note_on_c, 4, 79, 0
8, 51870, Note_on_c, 4, 78, 90
8, 51899, Note_on_c, 4, 78, 0
8, 51900, Note_on_c, 4, 76, 90
8, 51929, Note_on_c, 4, 76, 0
8, 51930, Note_on_c, 4, 74, 90
8, 51959, Note_on_c, 4, 74, 0
8, 51960, Note_on_c, 4, 73, 90
8, 51989, Note_on_c, 4, 73, 0
8, 51990, Note_on_c, 4, 71, 90
8, 52019, Note_on_c, 4, 71, 0
8, 52020, Note_on_c, 4, 69, 90
8, 52049, Note_on_c, 4, 69, 0
8, 52050, Note_on_c, 4, 67, 90
8, 52079, Note_on_c, 4, 67, 0
8, 52080, Note_on_c, 4, 66, 90
8, 52109, Note_on_c, 4, 66, 0
8, 52110, Note_on_c, 4, 64, 90
8, 52139, Note_on_c, 4, 64, 0
8, 52140, Note_on_c, 4, 62, 90
8, 52199, Note_on_c, 4, 62, 0
8, 52710, Note_on_c, 4, 74, 90
8, 52724, Note_on_c, 4, 74, 0
8, 52725, Note_on_c, 4, 76, 90
8, 52739, Note_on_c, 4, 76, 0
8, 52740, Note_on_c, 4, 78, 90
8, 52754, Note_on_c, 4, 78, 0
8, 52755, Note_on_c, 4, 76, 90
8, 52769, Note_on_c, 4, 76, 0
8, 52770, Note_on_c, 4, 78, 90
8, 52784, Note_on_c, 4, 78, 0
8, 52785, Note_on_c, 4, 76, 90
8, 52799, Note_on_c, 4, 76, 0
8, 52800, Note_on_c, 4, 78, 90
8, 52814, Note_on_c, 4, 78, 0
8, 52815, Note_on_c, 4, 76, 90
8, 52829, Note_on_c, 4, 76, 0
8, 52830, Note_on_c, 4, 74, 90
8, 52844, Note_on_c, 4, 74, 0
8, 52845, Note_on_c, 4, 76, 90
8, 52859, Note_on_c, 4, 76, 0
8, 52860, Note_on_c, 4, 78, 90
8, 52919, Note_on_c, 4, 78, 0
8, 53040, Note_on_c, 4, 74, 90
8, 53099, Note_on_c, 4, 74, 0
8, 53220, Note_on_c, 4, 69, 90
8, 53279, Note_on_c, 4, 69, 0
8, 53415, Note_on_c, 4, 74, 90
8, 53429, Note_on_c, 4, 74, 0
8, 53430, Note_on_c, 4, 73, 90
8, 53444, Note_on_c, 4, 73, 0
8, 53445, Note_on_c, 4, 71, 90
8, 53459, Note_on_c, 4, 71, 0
8, 53460, Note_on_c, 4, 69, 90
8, 53474, Note_on_c, 4, 69, 0
8, 53475, Note_on_c, 4, 74, 90
8, 53489, Note_on_c, 4, 74, 0
8, 53490, Note_on_c, 4, 73, 90
8, 53504, Note_on_c, 4, 73, 0
8, 53505, Note_on_c, 4, 71, 90
8, 53519, Note_on_c, 4, 71, 0
8, 53520, Note_on_c, 4, 69, 90
8, 53534, Note_on_c, 4, 69, 0
8, 53535, Note_on_c, 4, 67, 90
8, 53549, Note_on_c, 4, 67, 0
8, 53550, Note_on_c, 4, 66, 90
8, 53564, Note_on_c, 4, 66, 0
8, 53565, Note_on_c, 4, 64, 90
8, 53579, Note_on_c, 4, 64, 0
8, 53580, Note_on_c, 4, 66, 90
8, 54000, Note_on_c, 4, 66, 0
8, 54000, Note_on_c, 4, 78, 90
8, 54030, Note_on_c, 4, 78, 0
8, 54060, Note_on_c, 4, 78, 90
8, 54090, Note_on_c, 4, 78, 0
8, 54120, Note_on_c, 4, 78, 90
8, 54180, Note_on_c, 4, 78, 0
8, 54180, Note_on_c, 4, 76, 90
8, 54210, Note_on_c, 4, 76, 0
8, 54210, Note_on_c, 4, 74, 90
8, 54240, Note_on_c, 4, 74, 0
8, 54240, Note_on_c, 4, 76, 90
8, 54300, Note_on_c, 4, 76, 0
8, 54960, Note_on_c, 4, 79, 90
8, 55019, Note_on_c, 4, 79, 0
8, 55020, Note_on_c, 4, 78, 90
8, 55079, Note_on_c, 4, 78, 0
8, 55080, Note_on_c, 4, 76, 90
8, 55139, Note_on_c, 4, 76, 0
8, 55140, Note_on_c, 4, 74, 90
8, 55199, Note_on_c, 4, 74, 0
8, 55200, Note_on_c, 4, 81, 90
8, 55319, Note_on_c, 4, 81, 0
8, 55800, Note_on_c, 4, 73, 90
8, 55829, Note_on_c, 4, 73, 0
8, 55830, Note_on_c, 4, 74, 90
8, 55859, Note_on_c, 4, 74, 0
8, 55860, Note_on_c, 4, 76, 90
8, 55874, Note_on_c, 4, 76, 0
8, 55875, Note_on_c, 4, 74, 90
8, 55889, Note_on_c, 4, 74, 0
8, 55890, Note_on_c, 4, 73, 90
8, 55904, Note_on_c, 4, 73, 0
8, 55905, Note_on_c, 4, 74, 90
8, 55919, Note_on_c, 4, 74, 0
8, 55920, Note_on_c, 4, 76, 90
8, 55949, Note_on_c, 4, 76, 0
8, 55950, Note_on_c, 4, 74, 90
8, 55979, Note_on_c, 4, 74, 0
8, 55980, Note_on_c, 4, 76, 90
8, 56009, Note_on_c, 4, 76, 0
8, 56010, Note_on_c, 4, 78, 90
8, 56039, Note_on_c, 4, 78, 0
8, 56040, Note_on_c, 4, 79, 90
8, 56054, Note_on_c, 4, 79, 0
8, 56055, Note_on_c, 4, 78, 90
8, 56069, Note_on_c, 4, 78, 0
8, 56070, Note_on_c, 4, 76, 90
8, 56084, Note_on_c, 4, 76, 0
8, 56085, Note_on_c, 4, 78, 90
8, 56099, Note_on_c, 4, 78, 0
8, 56100, Note_on_c, 4, 79, 90
8, 56129, Note_on_c, 4, 79, 0
8, 56160, Note_on_c, 4, 78, 90
8, 56189, Note_on_c, 4, 78, 0
8, 56220, Note_on_c, 4, 76, 90
8, 56249, Note_on_c, 4, 76, 0
8, 56280, Note_on_c, 4, 74, 90
8, 56309, Note_on_c, 4, 74, 0
8, 56310, Note_on_c, 4, 76, 90
8, 56339, Note_on_c, 4, 76, 0
8, 56340, Note_on_c, 4, 78, 90
8, 56369, Note_on_c, 4, 78, 0
8, 56370, Note_on_c, 4, 79, 90
8, 56399, Note_on_c, 4, 79, 0
8, 56400, Note_on_c, 4, 81, 90
8, 56414, Note_on_c, 4, 81, 0
8, 56415, Note_on_c, 4, 79, 90
8, 56429, Note_on_c, 4, 79, 0
8, 56430, Note_on_c, 4, 78, 90
8, 56444, Note_on_c, 4, 78, 0
8, 56445, Note_on_c, 4, 79, 90
8, 56459, Note_on_c, 4, 79, 0
8, 56460, Note_on_c, 4, 81, 90
8, 56489, Note_on_c, 4, 81, 0
8, 56520, Note_on_c, 4, 69, 90
8, 56549, Note_on_c, 4, 69, 0
8, 56700, Note_on_c, 4, 74, 90
8, 56729, Note_on_c, 4, 74, 0
8, 56730, Note_on_c, 4, 76, 90
8, 56759, Note_on_c, 4, 76, 0
8, 56760, Note_on_c, 4, 78, 90
8, 56774, Note_on_c, 4, 78, 0
8, 56775, Note_on_c, 4, 76, 90
8, 56789, Note_on_c, 4, 76, 0
8, 56790, Note_on_c, 4, 74, 90
8, 56804, Note_on_c, 4, 74, 0
8, 56805, Note_on_c, 4, 76, 90
8, 56819, Note_on_c, 4, 76, 0
8, 56820, Note_on_c, 4, 78, 90
8, 56849, Note_on_c, 4, 78, 0
8, 56850, Note_on_c, 4, 76, 90
8, 56879, Note_on_c, 4, 76, 0
8, 56880, Note_on_c, 4, 78, 90
8, 56909, Note_on_c, 4, 78, 0
8, 56910, Note_on_c, 4, 80, 90
8, 56939, Note_on_c, 4, 80, 0
8, 56940, Note_on_c, 4, 81, 90
8, 56954, Note_on_c, 4, 81, 0
8, 56955, Note_on_c, 4, 80, 90
8, 56969, Note_on_c, 4, 80, 0
8, 56970, Note_on_c, 4, 78, 90
8, 56984, Note_on_c, 4, 78, 0
8, 56985, Note_on_c, 4, 80, 90
8, 56999, Note_on_c, 4, 80, 0
8, 57000, Note_on_c, 4, 81, 90
8, 57029, Note_on_c, 4, 81, 0
8, 57060, Note_on_c, 4, 76, 90
8, 57089, Note_on_c, 4, 76, 0
8, 57120, Note_on_c, 4, 78, 90
8, 57149, Note_on_c, 4, 78, 0
8, 57180, Note_on_c, 4, 79, 90
8, 57209, Note_on_c, 4, 79, 0
8, 57240, Note_on_c, 4, 72, 90
8, 57269, Note_on_c, 4, 72, 0
8, 57300, Note_on_c, 4, 72, 90
8, 57329, Note_on_c, 4, 72, 0
8, 57360, Note_on_c, 4, 71, 90
8, 57419, Note_on_c, 4, 71, 0
8, 57420, Note_on_c, 4, 74, 90
8, 57479, Note_on_c, 4, 74, 0
8, 57480, Note_on_c, 4, 79, 90
8, 57539, Note_on_c, 4, 79, 0
8, 57540, Note_on_c, 4, 78, 90
8, 57599, Note_on_c, 4, 78, 0
8, 57600, Note_on_c, 4, 69, 90
8, 57659, Note_on_c, 4, 69, 0
8, 57660, Note_on_c, 4, 74, 90
8, 57719, Note_on_c, 4, 74, 0
8, 57720, Note_on_c, 4, 73, 90
8, 57749, Note_on_c, 4, 73, 0
8, 57750, Note_on_c, 4, 71, 90
8, 57779, Note_on_c, 4, 71, 0
8, 57780, Note_on_c, 4, 73, 90
8, 57809, Note_on_c, 4, 73, 0
8, 57810, Note_on_c, 4, 74, 90
8, 57839, Note_on_c, 4, 74, 0
8, 57840, Note_on_c, 4, 76, 90
8, 57869, Note_on_c, 4, 76, 0
8, 57870, Note_on_c, 4, 78, 90
8, 57899, Note_on_c, 4, 78, 0
8, 57900, Note_on_c, 4, 75, 90
8, 57929, Note_on_c, 4, 75, 0
8, 57930, Note_on_c, 4, 78, 90
8, 57959, Note_on_c, 4, 78, 0
8, 57960, Note_on_c, 4, 81, 90
8, 58079, Note_on_c, 4, 81, 0
8, 58080, Note_on_c, 4, 72, 90
8, 58094, Note_on_c, 4, 72, 0
8, 58095, Note_on_c, 4, 71, 90
8, 58109, Note_on_c, 4, 71, 0
8, 58110, Note_on_c, 4, 69, 90
8, 58139, Note_on_c, 4, 69, 0
8, 58140, Note_on_c, 4, 69, 90
8, 58169, Note_on_c, 4, 69, 0
8, 58170, Note_on_c, 4, 71, 90
8, 58289, Note_on_c, 4, 71, 0
8, 58290, Note_on_c, 4, 73, 90
8, 58304, Note_on_c, 4, 73, 0
8, 58305, Note_on_c, 4, 75, 90
8, 58319, Note_on_c, 4, 75, 0
8, 58320, Note_on_c, 4, 76, 90
8, 58349, Note_on_c, 4, 76, 0
8, 58350, Note_on_c, 4, 78, 90
8, 58364, Note_on_c, 4, 78, 0
8, 58365, Note_on_c, 4, 79, 90
8, 58379, Note_on_c, 4, 79, 0
8, 58380, Note_on_c, 4, 81, 90
8, 58469, Note_on_c, 4, 81, 0
8, 58470, Note_on_c, 4, 79, 90
8, 58484, Note_on_c, 4, 79, 0
8, 58485, Note_on_c, 4, 78, 90
8, 58499, Note_on_c, 4, 78, 0
8, 58500, Note_on_c, 4, 79, 90
8, 58529, Note_on_c, 4, 79, 0
8, 58530, Note_on_c, 4, 78, 90
8, 58544, Note_on_c, 4, 78, 0
8, 58545, Note_on_c, 4, 76, 90
8, 58559, Note_on_c, 4, 76, 0
8, 58560, Note_on_c, 4, 79, 90
8, 58589, Note_on_c, 4, 79, 0
8, 58590, Note_on_c, 4, 76, 90
8, 58604, Note_on_c, 4, 76, 0
8, 58605, Note_on_c, 4, 78, 90
8, 58619, Note_on_c, 4, 78, 0
8, 58620, Note_on_c, 4, 79, 90
8, 58649, Note_on_c, 4, 79, 0
8, 58650, Note_on_c, 4, 83, 90
8, 58664, Note_on_c, 4, 83, 0
8, 58665, Note_on_c, 4, 81, 90
8, 58679, Note_on_c, 4, 81, 0
8, 58680, Note_on_c, 4, 79, 90
8, 58709, Note_on_c, 4, 79, 0
8, 58710, Note_on_c, 4, 83, 90
8, 58724, Note_on_c, 4, 83, 0
8, 58725, Note_on_c, 4, 81, 90
8, 58739, Note_on_c, 4, 81, 0
8, 58740, Note_on_c, 4, 79, 90
8, 58829, Note_on_c, 4, 79, 0
8, 58830, Note_on_c, 4, 76, 90
8, 58844, Note_on_c, 4, 76, 0
8, 58845, Note_on_c, 4, 78, 90
8, 58859, Note_on_c, 4, 78, 0
8, 58860, Note_on_c, 4, 79, 90
8, 58889, Note_on_c, 4, 79, 0
8, 58890, Note_on_c, 4, 76, 90
8, 58904, Note_on_c, 4, 76, 0
8, 58905, Note_on_c, 4, 78, 90
8, 58919, Note_on_c, 4, 78, 0
8, 58920, Note_on_c, 4, 79, 90
8, 59009, Note_on_c, 4, 79, 0
8, 59010, Note_on_c, 4, 78, 90
8, 59024, Note_on_c, 4, 78, 0
8, 59025, Note_on_c, 4, 79, 90
8, 59039, Note_on_c, 4, 79, 0
8, 59040, Note_on_c, 4, 81, 90
8, 59069, Note_on_c, 4, 81, 0
8, 59070, Note_on_c, 4, 79, 90
8, 59084, Note_on_c, 4, 79, 0
8, 59085, Note_on_c, 4, 78, 90
8, 59099, Note_on_c, 4, 78, 0
8, 59100, Note_on_c, 4, 79, 90
8, 59129, Note_on_c, 4, 79, 0
8, 59130, Note_on_c, 4, 78, 90
8, 59144, Note_on_c, 4, 78, 0
8, 59145, Note_on_c, 4, 76, 90
8, 59159, Note_on_c, 4, 76, 0
8, 59160, Note_on_c, 4, 78, 90
8, 59189, Note_on_c, 4, 78, 0
8, 59190, Note_on_c, 4, 81, 90
8, 59204, Note_on_c, 4, 81, 0
8, 59205, Note_on_c, 4, 79, 90
8, 59219, Note_on_c, 4, 79, 0
8, 59220, Note_on_c, 4, 78, 90
8, 59249, Note_on_c, 4, 78, 0
8, 59250, Note_on_c, 4, 81, 90
8, 59264, Note_on_c, 4, 81, 0
8, 59265, Note_on_c, 4, 79, 90
8, 59279, Note_on_c, 4, 79, 0
8, 59280, Note_on_c, 4, 78, 90
8, 59369, Note_on_c, 4, 78, 0
8, 59400, Note_on_c, 4, 74, 90
8, 59429, Note_on_c, 4, 74, 0
8, 59460, Note_on_c, 4, 78, 90
8, 59489, Note_on_c, 4, 78, 0
8, 59520, Note_on_c, 4, 76, 90
8, 59549, Note_on_c, 4, 76, 0
8, 59580, Note_on_c, 4, 71, 90
8, 59609, Note_on_c, 4, 71, 0
8, 59640, Note_on_c, 4, 76, 90
8, 59759, Note_on_c, 4, 76, 0
8, 59760, Note_on_c, 4, 73, 90
8, 59789, Note_on_c, 4, 73, 0
8, 59820, Note_on_c, 4, 76, 90
8, 59849, Note_on_c, 4, 76, 0
8, 59880, Note_on_c, 4, 74, 90
8, 59909, Note_on_c, 4, 74, 0
8, 59940, Note_on_c, 4, 69, 90
8, 59969, Note_on_c, 4, 69, 0
8, 60000, Note_on_c, 4, 74, 90
8, 60119, Note_on_c, 4, 74, 0
8, 60120, Note_on_c, 4, 76, 90
8, 60149, Note_on_c, 4, 76, 0
8, 60180, Note_on_c, 4, 78, 90
8, 60209, Note_on_c, 4, 78, 0
8, 60240, Note_on_c, 4, 79, 90
8, 60269, Note_on_c, 4, 79, 0
8, 60420, Note_on_c, 4, 79, 90
8, 60449, Note_on_c, 4, 79, 0
8, 60600, Note_on_c, 4, 78, 90
8, 60629, Note_on_c, 4, 78, 0
8, 60660, Note_on_c, 4, 74, 90
8, 60689, Note_on_c, 4, 74, 0
8, 60720, Note_on_c, 4, 73, 90
8, 60749, Note_on_c, 4, 73, 0
8, 60780, Note_on_c, 4, 74, 90
8, 60959, Note_on_c, 4, 74, 0
8, 70140, Note_on_c, 4, 73, 90
8, 70499, Note_on_c, 4, 73, 0
8, 70500, Note_on_c, 4, 71, 90
8, 70559, Note_on_c, 4, 71, 0
8, 70560, Note_on_c, 4, 74, 90
8, 70619, Note_on_c, 4, 74, 0
8, 70620, Note_on_c, 4, 74, 90
8, 70679, Note_on_c, 4, 74, 0
8, 70680, Note_on_c, 4, 71, 90
8, 70739, Note_on_c, 4, 71, 0
8, 70740, Note_on_c, 4, 68, 90
8, 71219, Note_on_c, 4, 68, 0
8, 71220, Note_on_c, 4, 69, 90
8, 71279, Note_on_c, 4, 69, 0
8, 71280, Note_on_c, 4, 64, 90
8, 71339, Note_on_c, 4, 64, 0
8, 71340, Note_on_c, 4, 64, 90
8, 71399, Note_on_c, 4, 64, 0
8, 71400, Note_on_c, 4, 69, 90
8, 71459, Note_on_c, 4, 69, 0
8, 71460, Note_on_c, 4, 73, 90
8, 71699, Note_on_c, 4, 73, 0
8, 71700, Note_on_c, 4, 78, 90
8, 71939, Note_on_c, 4, 78, 0
8, 71940, Note_on_c, 4, 76, 90
8, 72059, Note_on_c, 4, 76, 0
8, 72060, Note_on_c, 4, 75, 90
8, 72179, Note_on_c, 4, 75, 0
8, 72180, Note_on_c, 4, 76, 90
8, 72239, Note_on_c, 4, 76, 0
8, 72240, Note_on_c, 4, 71, 90
8, 72299, Note_on_c, 4, 71, 0
8, 72300, Note_on_c, 4, 71, 90
8, 72359, Note_on_c, 4, 71, 0
8, 72360, Note_on_c, 4, 68, 90
8, 72419, Note_on_c, 4, 68, 0
8, 72420, Note_on_c, 4, 68, 90
8, 72899, Note_on_c, 4, 68, 0
8, 72900, Note_on_c, 4, 67, 90
8, 72959, Note_on_c, 4, 67, 0
8, 72960, Note_on_c, 4, 79, 90
8, 73019, Note_on_c, 4, 79, 0
8, 73020, Note_on_c, 4, 79, 90
8, 73079, Note_on_c, 4, 79, 0
8, 73080, Note_on_c, 4, 76, 90
8, 73139, Note_on_c, 4, 76, 0
8, 73140, Note_on_c, 4, 73, 90
8, 73379, Note_on_c, 4, 73, 0
8, 73380, Note_on_c, 4, 71, 90
8, 73439, Note_on_c, 4, 71, 0
8, 73440, Note_on_c, 4, 74, 90
8, 73499, Note_on_c, 4, 74, 0
8, 73500, Note_on_c, 4, 74, 90
8, 73559, Note_on_c, 4, 74, 0
8, 73560, Note_on_c, 4, 78, 90
8, 73619, Note_on_c, 4, 78, 0
8, 73620, Note_on_c, 4, 81, 90
8, 73859, Note_on_c, 4, 81, 0
8, 73860, Note_on_c, 4, 78, 90
8, 74099, Note_on_c, 4, 78, 0
8, 74100, Note_on_c, 4, 77, 90
8, 74159, Note_on_c, 4, 77, 0
8, 74160, Note_on_c, 4, 71, 90
8, 74219, Note_on_c, 4, 71, 0
8, 74220, Note_on_c, 4, 71, 90
8, 74279, Note_on_c, 4, 71, 0
8, 74280, Note_on_c, 4, 68, 90
8, 74339, Note_on_c, 4, 68, 0
8, 74340, Note_on_c, 4, 69, 90
8, 74399, Note_on_c, 4, 69, 0
8, 74400, Note_on_c, 4, 81, 90
8, 74459, Note_on_c, 4, 81, 0
8, 74460, Note_on_c, 4, 81, 90
8, 74519, Note_on_c, 4, 81, 0
8, 74520, Note_on_c, 4, 78, 90
8, 74579, Note_on_c, 4, 78, 0
8, 74580, Note_on_c, 4, 79, 90
8, 74639, Note_on_c, 4, 79, 0
8, 74640, Note_on_c, 4, 78, 90
8, 74699, Note_on_c, 4, 78, 0
8, 74700, Note_on_c, 4, 78, 90
8, 74759, Note_on_c, 4, 78, 0
8, 74760, Note_on_c, 4, 75, 90
8, 74819, Note_on_c, 4, 75, 0
8, 74820, Note_on_c, 4, 76, 90
8, 75059, Note_on_c, 4, 76, 0
8, 75360, Note_on_c, 4, 64, 90
8, 75419, Note_on_c, 4, 64, 0
8, 75420, Note_on_c, 4, 69, 90
8, 75479, Note_on_c, 4, 69, 0
8, 75480, Note_on_c, 4, 72, 90
8, 75539, Note_on_c, 4, 72, 0
8, 75540, Note_on_c, 4, 71, 90
8, 75550, Note_on_c, 4, 71, 0
8, 75550, Note_on_c, 4, 72, 90
8, 75560, Note_on_c, 4, 72, 0
8, 75560, Note_on_c, 4, 71, 90
8, 75570, Note_on_c, 4, 71, 0
8, 75570, Note_on_c, 4, 72, 90
8, 75585, Note_on_c, 4, 72, 0
8, 75585, Note_on_c, 4, 71, 90
8, 75600, Note_on_c, 4, 71, 0
8, 75600, Note_on_c, 4, 72, 90
8, 75659, Note_on_c, 4, 72, 0
8, 75660, Note_on_c, 4, 68, 90
8, 75719, Note_on_c, 4, 68, 0
8, 75720, Note_on_c, 4, 69, 90
8, 75779, Note_on_c, 4, 69, 0
8, 75780, Note_on_c, 4, 67, 90
8, 75809, Note_on_c, 4, 67, 0
8, 75810, Note_on_c, 4, 65, 90
8, 75839, Note_on_c, 4, 65, 0
8, 75840, Note_on_c, 4, 64, 90
8, 75869, Note_on_c, 4, 64, 0
8, 75870, Note_on_c, 4, 62, 90
8, 75899, Note_on_c, 4, 62, 0
8, 75900, Note_on_c, 4, 67, 90
8, 75929, Note_on_c, 4, 67, 0
8, 75960, Note_on_c, 4, 64, 90
8, 75970, Note_on_c, 4, 64, 0
8, 75970, Note_on_c, 4, 65, 90
8, 75980, Note_on_c, 4, 65, 0
8, 75980, Note_on_c, 4, 64, 90
8, 76020, Note_on_c, 4, 64, 0
8, 76020, Note_on_c, 4, 62, 90
8, 76049, Note_on_c, 4, 62, 0
8, 76050, Note_on_c, 4, 60, 90
8, 76079, Note_on_c, 4, 60, 0
8, 76080, Note_on_c, 4, 72, 90
8, 76139, Note_on_c, 4, 72, 0
8, 76140, Note_on_c, 4, 71, 90
8, 76199, Note_on_c, 4, 71, 0
8, 76200, Note_on_c, 4, 72, 90
8, 76229, Note_on_c, 4, 72, 0
8, 76230, Note_on_c, 4, 71, 90
8, 76259, Note_on_c, 4, 71, 0
8, 76260, Note_on_c, 4, 69, 90
8, 76289, Note_on_c, 4, 69, 0
8, 76290, Note_on_c, 4, 68, 90
8, 76319, Note_on_c, 4, 68, 0
8, 76320, Note_on_c, 4, 69, 90
8, 76379, Note_on_c, 4, 69, 0
8, 76380, Note_on_c, 4, 71, 90
8, 76439, Note_on_c, 4, 71, 0
8, 76440, Note_on_c, 4, 72, 90
8, 76499, Note_on_c, 4, 72, 0
8, 76500, Note_on_c, 4, 74, 90
8, 76559, Note_on_c, 4, 74, 0
8, 76560, Note_on_c, 4, 72, 90
8, 76589, Note_on_c, 4, 72, 0
8, 76590, Note_on_c, 4, 71, 90
8, 76619, Note_on_c, 4, 71, 0
8, 76620, Note_on_c, 4, 72, 90
8, 76679, Note_on_c, 4, 72, 0
8, 76680, Note_on_c, 4, 72, 90
8, 76709, Note_on_c, 4, 72, 0
8, 76710, Note_on_c, 4, 71, 90
8, 76769, Note_on_c, 4, 71, 0
8, 76770, Note_on_c, 4, 71, 90
8, 76799, Note_on_c, 4, 71, 0
8, 76800, Note_on_c, 4, 76, 90
8, 76829, Note_on_c, 4, 76, 0
8, 76830, Note_on_c, 4, 74, 90
8, 76859, Note_on_c, 4, 74, 0
8, 76860, Note_on_c, 4, 73, 90
8, 76889, Note_on_c, 4, 73, 0
8, 76890, Note_on_c, 4, 76, 90
8, 76919, Note_on_c, 4, 76, 0
8, 76920, Note_on_c, 4, 73, 90
8, 76949, Note_on_c, 4, 73, 0
8, 76950, Note_on_c, 4, 69, 90
8, 76979, Note_on_c, 4, 69, 0
8, 76980, Note_on_c, 4, 64, 90
8, 77009, Note_on_c, 4, 64, 0
8, 77010, Note_on_c, 4, 67, 90
8, 77039, Note_on_c, 4, 67, 0
8, 77040, Note_on_c, 4, 65, 90
8, 77069, Note_on_c, 4, 65, 0
8, 77070, Note_on_c, 4, 69, 90
8, 77099, Note_on_c, 4, 69, 0
8, 77100, Note_on_c, 4, 62, 90
8, 77129, Note_on_c, 4, 62, 0
8, 77130, Note_on_c, 4, 69, 90
8, 77159, Note_on_c, 4, 69, 0
8, 77160, Note_on_c, 4, 74, 90
8, 77189, Note_on_c, 4, 74, 0
8, 77190, Note_on_c, 4, 72, 90
8, 77219, Note_on_c, 4, 72, 0
8, 77220, Note_on_c, 4, 71, 90
8, 77249, Note_on_c, 4, 71, 0
8, 77250, Note_on_c, 4, 74, 90
8, 77279, Note_on_c, 4, 74, 0
8, 77280, Note_on_c, 4, 71, 90
8, 77309, Note_on_c, 4, 71, 0
8, 77310, Note_on_c, 4, 67, 90
8, 77339, Note_on_c, 4, 67, 0
8, 77340, Note_on_c, 4, 62, 90
8, 77369, Note_on_c, 4, 62, 0
8, 77370, Note_on_c, 4, 65, 90
8, 77399, Note_on_c, 4, 65, 0
8, 77400, Note_on_c, 4, 64, 90
8, 77429, Note_on_c, 4, 64, 0
8, 77430, Note_on_c, 4, 67, 90
8, 77459, Note_on_c, 4, 67, 0
8, 77460, Note_on_c, 4, 60, 90
8, 77489, Note_on_c, 4, 60, 0
8, 77490, Note_on_c, 4, 67, 90
8, 77519, Note_on_c, 4, 67, 0
8, 77520, Note_on_c, 4, 72, 90
8, 77549, Note_on_c, 4, 72, 0
8, 77550, Note_on_c, 4, 71, 90
8, 77579, Note_on_c, 4, 71, 0
8, 77580, Note_on_c, 4, 69, 90
8, 77609, Note_on_c, 4, 69, 0
8, 77610, Note_on_c, 4, 68, 90
8, 77639, Note_on_c, 4, 68, 0
8, 77640, Note_on_c, 4, 69, 90
8, 77669, Note_on_c, 4, 69, 0
8, 77670, Note_on_c, 4, 68, 90
8, 77699, Note_on_c, 4, 68, 0
8, 77700, Note_on_c, 4, 69, 90
8, 77729, Note_on_c, 4, 69, 0
8, 77730, Note_on_c, 4, 77, 90
8, 77759, Note_on_c, 4, 77, 0
8, 77760, Note_on_c, 4, 76, 90
8, 77789, Note_on_c, 4, 76, 0
8, 77790, Note_on_c, 4, 75, 90
8, 77819, Note_on_c, 4, 75, 0
8, 77820, Note_on_c, 4, 76, 90
8, 77849, Note_on_c, 4, 76, 0
8, 77850, Note_on_c, 4, 75, 90
8, 77879, Note_on_c, 4, 75, 0
8, 77880, Note_on_c, 4, 76, 90
8, 77909, Note_on_c, 4, 76, 0
8, 77910, Note_on_c, 4, 80, 90
8, 77939, Note_on_c, 4, 80, 0
8, 77940, Note_on_c, 4, 81, 90
8, 77999, Note_on_c, 4, 81, 0
8, 78000, Note_on_c, 4, 72, 90
8, 78059, Note_on_c, 4, 72, 0
8, 78060, Note_on_c, 4, 71, 90
8, 78119, Note_on_c, 4, 71, 0
8, 78120, Note_on_c, 4, 69, 90
8, 78239, Note_on_c, 4, 69, 0
8, 78240, Note_on_c, 4, 64, 90
8, 78299, Note_on_c, 4, 64, 0
8, 78300, Note_on_c, 4, 69, 90
8, 78359, Note_on_c, 4, 69, 0
8, 78360, Note_on_c, 4, 72, 90
8, 78419, Note_on_c, 4, 72, 0
8, 78420, Note_on_c, 4, 71, 90
8, 78430, Note_on_c, 4, 71, 0
8, 78430, Note_on_c, 4, 72, 90
8, 78440, Note_on_c, 4, 72, 0
8, 78440, Note_on_c, 4, 71, 90
8, 78480, Note_on_c, 4, 71, 0
8, 78480, Note_on_c, 4, 72, 90
8, 78539, Note_on_c, 4, 72, 0
8, 78540, Note_on_c, 4, 68, 90
8, 78599, Note_on_c, 4, 68, 0
8, 78600, Note_on_c, 4, 69, 90
8, 78659, Note_on_c, 4, 69, 0
8, 78660, Note_on_c, 4, 67, 90
8, 78689, Note_on_c, 4, 67, 0
8, 78690, Note_on_c, 4, 65, 90
8, 78719, Note_on_c, 4, 65, 0
8, 78720, Note_on_c, 4, 64, 90
8, 78749, Note_on_c, 4, 64, 0
8, 78750, Note_on_c, 4, 62, 90
8, 78779, Note_on_c, 4, 62, 0
8, 78780, Note_on_c, 4, 67, 90
8, 78839, Note_on_c, 4, 67, 0
8, 78840, Note_on_c, 4, 64, 90
8, 78899, Note_on_c, 4, 64, 0
8, 78900, Note_on_c, 4, 62, 90
8, 78929, Note_on_c, 4, 62, 0
8, 78930, Note_on_c, 4, 60, 90
8, 78959, Note_on_c, 4, 60, 0
8, 78960, Note_on_c, 4, 72, 90
8, 79019, Note_on_c, 4, 72, 0
8, 79020, Note_on_c, 4, 71, 90
8, 79079, Note_on_c, 4, 71, 0
8, 79080, Note_on_c, 4, 72, 90
8, 79109, Note_on_c, 4, 72, 0
8, 79110, Note_on_c, 4, 71, 90
8, 79139, Note_on_c, 4, 71, 0
8, 79140, Note_on_c, 4, 69, 90
8, 79169, Note_on_c, 4, 69, 0
8, 79170, Note_on_c, 4, 68, 90
8, 79199, Note_on_c, 4, 68, 0
8, 79200, Note_on_c, 4, 69, 90
8, 79259, Note_on_c, 4, 69, 0
8, 79260, Note_on_c, 4, 71, 90
8, 79319, Note_on_c, 4, 71, 0
8, 79320, Note_on_c, 4, 72, 90
8, 79379, Note_on_c, 4, 72, 0
8, 79380, Note_on_c, 4, 74, 90
8, 79439, Note_on_c, 4, 74, 0
8, 79440, Note_on_c, 4, 72, 90
8, 79469, Note_on_c, 4, 72, 0
8, 79470, Note_on_c, 4, 71, 90
8, 79499, Note_on_c, 4, 71, 0
8, 79500, Note_on_c, 4, 72, 90
8, 79559, Note_on_c, 4, 72, 0
8, 79560, Note_on_c, 4, 71, 90
8, 79679, Note_on_c, 4, 71, 0
8, 79830, Note_on_c, 4, 71, 90
8, 79859, Note_on_c, 4, 71, 0
8, 79860, Note_on_c, 4, 76, 90
8, 79889, Note_on_c, 4, 76, 0
8, 79890, Note_on_c, 4, 74, 90
8, 79919, Note_on_c, 4, 74, 0
8, 79920, Note_on_c, 4, 73, 90
8, 79949, Note_on_c, 4, 73, 0
8, 79950, Note_on_c, 4, 76, 90
8, 79979, Note_on_c, 4, 76, 0
8, 79980, Note_on_c, 4, 73, 90
8, 80009, Note_on_c, 4, 73, 0
8, 80010, Note_on_c, 4, 69, 90
8, 80039, Note_on_c, 4, 69, 0
8, 80040, Note_on_c, 4, 64, 90
8, 80069, Note_on_c, 4, 64, 0
8, 80070, Note_on_c, 4, 67, 90
8, 80099, Note_on_c, 4, 67, 0
8, 80100, Note_on_c, 4, 65, 90
8, 80129, Note_on_c, 4, 65, 0
8, 80130, Note_on_c, 4, 69, 90
8, 80159, Note_on_c, 4, 69, 0
8, 80160, Note_on_c, 4, 62, 90
8, 80189, Note_on_c, 4, 62, 0
8, 80190, Note_on_c, 4, 69, 90
8, 80219, Note_on_c, 4, 69, 0
8, 80220, Note_on_c, 4, 74, 90
8, 80249, Note_on_c, 4, 74, 0
8, 80250, Note_on_c, 4, 72, 90
8, 80279, Note_on_c, 4, 72, 0
8, 80280, Note_on_c, 4, 71, 90
8, 80309, Note_on_c, 4, 71, 0
8, 80310, Note_on_c, 4, 74, 90
8, 80339, Note_on_c, 4, 74, 0
8, 80340, Note_on_c, 4, 71, 90
8, 80369, Note_on_c, 4, 71, 0
8, 80370, Note_on_c, 4, 67, 90
8, 80399, Note_on_c, 4, 67, 0
8, 80400, Note_on_c, 4, 62, 90
8, 80429, Note_on_c, 4, 62, 0
8, 80430, Note_on_c, 4, 65, 90
8, 80459, Note_on_c, 4, 65, 0
8, 80460, Note_on_c, 4, 64, 90
8, 80489, Note_on_c, 4, 64, 0
8, 80490, Note_on_c, 4, 67, 90
8, 80519, Note_on_c, 4, 67, 0
8, 80520, Note_on_c, 4, 60, 90
8, 80579, Note_on_c, 4, 60, 0
8, 80760, Note_on_c, 4, 60, 90
8, 80819, Note_on_c, 4, 60, 0
8, 80820, Note_on_c, 4, 67, 90
8, 80879, Note_on_c, 4, 67, 0
8, 80880, Note_on_c, 4, 71, 90
8, 80939, Note_on_c, 4, 71, 0
8, 80940, Note_on_c, 4, 69, 90
8, 80950, Note_on_c, 4, 69, 0
8, 80950, Note_on_c, 4, 71, 90
8, 80960, Note_on_c, 4, 71, 0
8, 80960, Note_on_c, 4, 69, 90
8, 81000, Note_on_c, 4, 69, 0
8, 81000, Note_on_c, 4, 71, 90
8, 81059, Note_on_c, 4, 71, 0
8, 81060, Note_on_c, 4, 67, 90
8, 81119, Note_on_c, 4, 67, 0
8, 81480, Note_on_c, 4, 62, 90
8, 81539, Note_on_c, 4, 62, 0
8, 81540, Note_on_c, 4, 69, 90
8, 81599, Note_on_c, 4, 69, 0
8, 81600, Note_on_c, 4, 72, 90
8, 81659, Note_on_c, 4, 72, 0
8, 81660, Note_on_c, 4, 71, 90
8, 81719, Note_on_c, 4, 71, 0
8, 81720, Note_on_c, 4, 72, 90
8, 81779, Note_on_c, 4, 72, 0
8, 81780, Note_on_c, 4, 69, 90
8, 81809, Note_on_c, 4, 69, 0
8, 81810, Note_on_c, 4, 72, 90
8, 81839, Note_on_c, 4, 72, 0
8, 81840, Note_on_c, 4, 71, 90
8, 81869, Note_on_c, 4, 71, 0
8, 81870, Note_on_c, 4, 74, 90
8, 81899, Note_on_c, 4, 74, 0
8, 81900, Note_on_c, 4, 72, 90
8, 81929, Note_on_c, 4, 72, 0
8, 81930, Note_on_c, 4, 76, 90
8, 81959, Note_on_c, 4, 76, 0
8, 81960, Note_on_c, 4, 72, 90
8, 81989, Note_on_c, 4, 72, 0
8, 81990, Note_on_c, 4, 69, 90
8, 82019, Note_on_c, 4, 69, 0
8, 82020, Note_on_c, 4, 68, 90
8, 82049, Note_on_c, 4, 68, 0
8, 82050, Note_on_c, 4, 71, 90
8, 82079, Note_on_c, 4, 71, 0
8, 82080, Note_on_c, 4, 69, 90
8, 82109, Note_on_c, 4, 69, 0
8, 82110, Note_on_c, 4, 72, 90
8, 82139, Note_on_c, 4, 72, 0
8, 82140, Note_on_c, 4, 76, 90
8, 82169, Note_on_c, 4, 76, 0
8, 82170, Note_on_c, 4, 74, 90
8, 82199, Note_on_c, 4, 74, 0
8, 82200, Note_on_c, 4, 72, 90
8, 82229, Note_on_c, 4, 72, 0
8, 82230, Note_on_c, 4, 71, 90
8, 82259, Note_on_c, 4, 71, 0
8, 82260, Note_on_c, 4, 69, 90
8, 82319, Note_on_c, 4, 69, 0
8, 82320, Note_on_c, 4, 74, 90
8, 82379, Note_on_c, 4, 74, 0
8, 82380, Note_on_c, 4, 71, 90
8, 82390, Note_on_c, 4, 71, 0
8, 82390, Note_on_c, 4, 72, 90
8, 82400, Note_on_c, 4, 72, 0
8, 82400, Note_on_c, 4, 71, 90
8, 82440, Note_on_c, 4, 71, 0
8, 82440, Note_on_c, 4, 72, 90
8, 82469, Note_on_c, 4, 72, 0
8, 82470, Note_on_c, 4, 67, 90
8, 82499, Note_on_c, 4, 67, 0
8, 82500, Note_on_c, 4, 64, 90
8, 82529, Note_on_c, 4, 64, 0
8, 82530, Note_on_c, 4, 67, 90
8, 82559, Note_on_c, 4, 67, 0
8, 82560, Note_on_c, 4, 72, 90
8, 82589, Note_on_c, 4, 72, 0
8, 82590, Note_on_c, 4, 76, 90
8, 82619, Note_on_c, 4, 76, 0
8, 82620, Note_on_c, 4, 74, 90
8, 82649, Note_on_c, 4, 74, 0
8, 82650, Note_on_c, 4, 77, 90
8, 82679, Note_on_c, 4, 77, 0
8, 82680, Note_on_c, 4, 76, 90
8, 82709, Note_on_c, 4, 76, 0
8, 82710, Note_on_c, 4, 74, 90
8, 82739, Note_on_c, 4, 74, 0
8, 82740, Note_on_c, 4, 72, 90
8, 82769, Note_on_c, 4, 72, 0
8, 82770, Note_on_c, 4, 71, 90
8, 82799, Note_on_c, 4, 71, 0
8, 82800, Note_on_c, 4, 69, 90
8, 82829, Note_on_c, 4, 69, 0
8, 82830, Note_on_c, 4, 67, 90
8, 82859, Note_on_c, 4, 67, 0
8, 82860, Note_on_c, 4, 65, 90
8, 82889, Note_on_c, 4, 65, 0
8, 82890, Note_on_c, 4, 64, 90
8, 82919, Note_on_c, 4, 64, 0
8, 82920, Note_on_c, 4, 62, 90
8, 82949, Note_on_c, 4, 62, 0
8, 82950, Note_on_c, 4, 60, 90
8, 82979, Note_on_c, 4, 60, 0
8, 82980, Note_on_c, 4, 59, 90
8, 83039, Note_on_c, 4, 59, 0
8, 83040, Note_on_c, 4, 68, 90
8, 83099, Note_on_c, 4, 68, 0
8, 83100, Note_on_c, 4, 69, 90
8, 83189, Note_on_c, 4, 69, 0
8, 83190, Note_on_c, 4, 66, 90
8, 83219, Note_on_c, 4, 66, 0
8, 83220, Note_on_c, 4, 68, 90
8, 83249, Note_on_c, 4, 68, 0
8, 83250, Note_on_c, 4, 71, 90
8, 83279, Note_on_c, 4, 71, 0
8, 83280, Note_on_c, 4, 74, 90
8, 83309, Note_on_c, 4, 74, 0
8, 83340, Note_on_c, 4, 73, 90
8, 83399, Note_on_c, 4, 73, 0
8, 83400, Note_on_c, 4, 76, 90
8, 83459, Note_on_c, 4, 76, 0
8, 83460, Note_on_c, 4, 67, 90
8, 83519, Note_on_c, 4, 67, 0
8, 83520, Note_on_c, 4, 65, 90
8, 83530, Note_on_c, 4, 65, 0
8, 83530, Note_on_c, 4, 67, 90
8, 83540, Note_on_c, 4, 67, 0
8, 83540, Note_on_c, 4, 65, 90
8, 83580, Note_on_c, 4, 65, 0
8, 83580, Note_on_c, 4, 64, 90
8, 83609, Note_on_c, 4, 64, 0
8, 83610, Note_on_c, 4, 62, 90
8, 83639, Note_on_c, 4, 62, 0
8, 83640, Note_on_c, 4, 72, 90
8, 83699, Note_on_c, 4, 72, 0
8, 83700, Note_on_c, 4, 71, 90
8, 83759, Note_on_c, 4, 71, 0
8, 83760, Note_on_c, 4, 74, 90
8, 83819, Note_on_c, 4, 74, 0
8, 83820, Note_on_c, 4, 65, 90
8, 83879, Note_on_c, 4, 65, 0
8, 83880, Note_on_c, 4, 64, 90
8, 83890, Note_on_c, 4, 64, 0
8, 83890, Note_on_c, 4, 65, 90
8, 83900, Note_on_c, 4, 65, 0
8, 83900, Note_on_c, 4, 64, 90
8, 83940, Note_on_c, 4, 64, 0
8, 83940, Note_on_c, 4, 62, 90
8, 83969, Note_on_c, 4, 62, 0
8, 83970, Note_on_c, 4, 60, 90
8, 83999, Note_on_c, 4, 60, 0
8, 84000, Note_on_c, 4, 64, 90
8, 84059, Note_on_c, 4, 64, 0
8, 84060, Note_on_c, 4, 74, 90
8, 84119, Note_on_c, 4, 74, 0
8, 84120, Note_on_c, 4, 72, 90
8, 84179, Note_on_c, 4, 72, 0
8, 84180, Note_on_c, 4, 71, 90
8, 84239, Note_on_c, 4, 71, 0
8, 84240, Note_on_c, 4, 76, 90
8, 84299, Note_on_c, 4, 76, 0
8, 84300, Note_on_c, 4, 69, 90
8, 84359, Note_on_c, 4, 69, 0
8, 84360, Note_on_c, 4, 71, 90
8, 84419, Note_on_c, 4, 71, 0
8, 84420, Note_on_c, 4, 64, 90
8, 84479, Note_on_c, 4, 64, 0
8, 84480, Note_on_c, 4, 72, 90
8, 84509, Note_on_c, 4, 72, 0
8, 84510, Note_on_c, 4, 71, 90
8, 84539, Note_on_c, 4, 71, 0
8, 84540, Note_on_c, 4, 69, 90
8, 84569, Note_on_c, 4, 69, 0
8, 84570, Note_on_c, 4, 68, 90
8, 84599, Note_on_c, 4, 68, 0
8, 84600, Note_on_c, 4, 69, 90
8, 84659, Note_on_c, 4, 69, 0
8, 84870, Note_on_c, 4, 65, 90
8, 84899, Note_on_c, 4, 65, 0
8, 84900, Note_on_c, 4, 70, 90
8, 84929, Note_on_c, 4, 70, 0
8, 84930, Note_on_c, 4, 69, 90
8, 84959, Note_on_c, 4, 69, 0
8, 84960, Note_on_c, 4, 67, 90
8, 84989, Note_on_c, 4, 67, 0
8, 84990, Note_on_c, 4, 70, 90
8, 85019, Note_on_c, 4, 70, 0
8, 85020, Note_on_c, 4, 67, 90
8, 85049, Note_on_c, 4, 67, 0
8, 85050, Note_on_c, 4, 64, 90
8, 85079, Note_on_c, 4, 64, 0
8, 85080, Note_on_c, 4, 58, 90
8, 85109, Note_on_c, 4, 58, 0
8, 85110, Note_on_c, 4, 62, 90
8, 85139, Note_on_c, 4, 62, 0
8, 85140, Note_on_c, 4, 61, 90
8, 85169, Note_on_c, 4, 61, 0
8, 85170, Note_on_c, 4, 64, 90
8, 85199, Note_on_c, 4, 64, 0
8, 85200, Note_on_c, 4, 57, 90
8, 85229, Note_on_c, 4, 57, 0
8, 85230, Note_on_c, 4, 61, 90
8, 85259, Note_on_c, 4, 61, 0
8, 85260, Note_on_c, 4, 64, 90
8, 85289, Note_on_c, 4, 64, 0
8, 85290, Note_on_c, 4, 67, 90
8, 85319, Note_on_c, 4, 67, 0
8, 85320, Note_on_c, 4, 65, 90
8, 85349, Note_on_c, 4, 65, 0
8, 85350, Note_on_c, 4, 69, 90
8, 85379, Note_on_c, 4, 69, 0
8, 85380, Note_on_c, 4, 65, 90
8, 85409, Note_on_c, 4, 65, 0
8, 85410, Note_on_c, 4, 62, 90
8, 85439, Note_on_c, 4, 62, 0
8, 85440, Note_on_c, 4, 57, 90
8, 85469, Note_on_c, 4, 57, 0
8, 85470, Note_on_c, 4, 60, 90
8, 85499, Note_on_c, 4, 60, 0
8, 85500, Note_on_c, 4, 59, 90
8, 85529, Note_on_c, 4, 59, 0
8, 85530, Note_on_c, 4, 62, 90
8, 85559, Note_on_c, 4, 62, 0
8, 85560, Note_on_c, 4, 65, 90
8, 85619, Note_on_c, 4, 65, 0
8, 85800, Note_on_c, 4, 67, 90
8, 85859, Note_on_c, 4, 67, 0
8, 85860, Note_on_c, 4, 66, 90
8, 85919, Note_on_c, 4, 66, 0
8, 85920, Note_on_c, 4, 69, 90
8, 85979, Note_on_c, 4, 69, 0
8, 85980, Note_on_c, 4, 72, 90
8, 86039, Note_on_c, 4, 72, 0
8, 86040, Note_on_c, 4, 72, 90
8, 86050, Note_on_c, 4, 72, 0
8, 86050, Note_on_c, 4, 74, 90
8, 86060, Note_on_c, 4, 74, 0
8, 86060, Note_on_c, 4, 72, 90
8, 86100, Note_on_c, 4, 72, 0
8, 86100, Note_on_c, 4, 71, 90
8, 86159, Note_on_c, 4, 71, 0
8, 86520, Note_on_c, 4, 74, 90
8, 86579, Note_on_c, 4, 74, 0
8, 86580, Note_on_c, 4, 73, 90
8, 86639, Note_on_c, 4, 73, 0
8, 86640, Note_on_c, 4, 76, 90
8, 86699, Note_on_c, 4, 76, 0
8, 86700, Note_on_c, 4, 67, 90
8, 86759, Note_on_c, 4, 67, 0
8, 86760, Note_on_c, 4, 65, 90
8, 86789, Note_on_c, 4, 65, 0
8, 86790, Note_on_c, 4, 69, 90
8, 86819, Note_on_c, 4, 69, 0
8, 86820, Note_on_c, 4, 65, 90
8, 86849, Note_on_c, 4, 65, 0
8, 86850, Note_on_c, 4, 62, 90
8, 86879, Note_on_c, 4, 62, 0
8, 86880, Note_on_c, 4, 57, 90
8, 86909, Note_on_c, 4, 57, 0
8, 86910, Note_on_c, 4, 62, 90
8, 86939, Note_on_c, 4, 62, 0
8, 86940, Note_on_c, 4, 64, 90
8, 86969, Note_on_c, 4, 64, 0
8, 86970, Note_on_c, 4, 67, 90
8, 86999, Note_on_c, 4, 67, 0
8, 87000, Note_on_c, 4, 64, 90
8, 87029, Note_on_c, 4, 64, 0
8, 87030, Note_on_c, 4, 61, 90
8, 87059, Note_on_c, 4, 61, 0
8, 87060, Note_on_c, 4, 57, 90
8, 87089, Note_on_c, 4, 57, 0
8, 87090, Note_on_c, 4, 61, 90
8, 87119, Note_on_c, 4, 61, 0
8, 87120, Note_on_c, 4, 62, 90
8, 87149, Note_on_c, 4, 62, 0
8, 87150, Note_on_c, 4, 65, 90
8, 87179, Note_on_c, 4, 65, 0
8, 87180, Note_on_c, 4, 57, 90
8, 87209, Note_on_c, 4, 57, 0
8, 87210, Note_on_c, 4, 62, 90
8, 87239, Note_on_c, 4, 62, 0
8, 87240, Note_on_c, 4, 65, 90
8, 87269, Note_on_c, 4, 65, 0
8, 87270, Note_on_c, 4, 69, 90
8, 87299, Note_on_c, 4, 69, 0
8, 87300, Note_on_c, 4, 71, 90
8, 87329, Note_on_c, 4, 71, 0
8, 87330, Note_on_c, 4, 74, 90
8, 87359, Note_on_c, 4, 74, 0
8, 87360, Note_on_c, 4, 71, 90
8, 87389, Note_on_c, 4, 71, 0
8, 87390, Note_on_c, 4, 67, 90
8, 87419, Note_on_c, 4, 67, 0
8, 87420, Note_on_c, 4, 62, 90
8, 87449, Note_on_c, 4, 62, 0
8, 87450, Note_on_c, 4, 65, 90
8, 87479, Note_on_c, 4, 65, 0
8, 87480, Note_on_c, 4, 64, 90
8, 87509, Note_on_c, 4, 64, 0
8, 87510, Note_on_c, 4, 67, 90
8, 87539, Note_on_c, 4, 67, 0
8, 87540, Note_on_c, 4, 60, 90
8, 87569, Note_on_c, 4, 60, 0
8, 87570, Note_on_c, 4, 64, 90
8, 87599, Note_on_c, 4, 64, 0
8, 87600, Note_on_c, 4, 67, 90
8, 87629, Note_on_c, 4, 67, 0
8, 87630, Note_on_c, 4, 70, 90
8, 87659, Note_on_c, 4, 70, 0
8, 87660, Note_on_c, 4, 69, 90
8, 87689, Note_on_c, 4, 69, 0
8, 87690, Note_on_c, 4, 68, 90
8, 87719, Note_on_c, 4, 68, 0
8, 87720, Note_on_c, 4, 69, 90
8, 87749, Note_on_c, 4, 69, 0
8, 87750, Note_on_c, 4, 68, 90
8, 87779, Note_on_c, 4, 68, 0
8, 87780, Note_on_c, 4, 69, 90
8, 87809, Note_on_c, 4, 69, 0
8, 87810, Note_on_c, 4, 77, 90
8, 87839, Note_on_c, 4, 77, 0
8, 87840, Note_on_c, 4, 76, 90
8, 87869, Note_on_c, 4, 76, 0
8, 87870, Note_on_c, 4, 75, 90
8, 87899, Note_on_c, 4, 75, 0
8, 87900, Note_on_c, 4, 76, 90
8, 87929, Note_on_c, 4, 76, 0
8, 87930, Note_on_c, 4, 75, 90
8, 87959, Note_on_c, 4, 75, 0
8, 87960, Note_on_c, 4, 76, 90
8, 87989, Note_on_c, 4, 76, 0
8, 87990, Note_on_c, 4, 80, 90
8, 88019, Note_on_c, 4, 80, 0
8, 88020, Note_on_c, 4, 81, 90
8, 88079, Note_on_c, 4, 81, 0
8, 88080, Note_on_c, 4, 60, 90
8, 88139, Note_on_c, 4, 60, 0
8, 88140, Note_on_c, 4, 59, 90
8, 88150, Note_on_c, 4, 59, 0
8, 88150, Note_on_c, 4, 60, 90
8, 88160, Note_on_c, 4, 60, 0
8, 88160, Note_on_c, 4, 59, 90
8, 88200, Note_on_c, 4, 59, 0
8, 88200, Note_on_c, 4, 57, 90
8, 88319, Note_on_c, 4, 57, 0
8, 88320, Note_on_c, 4, 64, 90
8, 88379, Note_on_c, 4, 64, 0
8, 88380, Note_on_c, 4, 69, 90
8, 88439, Note_on_c, 4, 69, 0
8, 88440, Note_on_c, 4, 72, 90
8, 88499, Note_on_c, 4, 72, 0
8, 88500, Note_on_c, 4, 71, 90
8, 88510, Note_on_c, 4, 71, 0
8, 88510, Note_on_c, 4, 72, 90
8, 88520, Note_on_c, 4, 72, 0
8, 88520, Note_on_c, 4, 71, 90
8, 88560, Note_on_c, 4, 71, 0
8, 88560, Note_on_c, 4, 72, 90
8, 88619, Note_on_c, 4, 72, 0
8, 88620, Note_on_c, 4, 68, 90
8, 88679, Note_on_c, 4, 68, 0
8, 88680, Note_on_c, 4, 69, 90
8, 88739, Note_on_c, 4, 69, 0
8, 88740, Note_on_c, 4, 67, 90
8, 88769, Note_on_c, 4, 67, 0
8, 88770, Note_on_c, 4, 65, 90
8, 88799, Note_on_c, 4, 65, 0
8, 88800, Note_on_c, 4, 64, 90
8, 88829, Note_on_c, 4, 64, 0
8, 88830, Note_on_c, 4, 62, 90
8, 88859, Note_on_c, 4, 62, 0
8, 88860, Note_on_c, 4, 67, 90
8, 88889, Note_on_c, 4, 67, 0
8, 88920, Note_on_c, 4, 64, 90
8, 88930, Note_on_c, 4, 64, 0
8, 88930, Note_on_c, 4, 65, 90
8, 88940, Note_on_c, 4, 65, 0
8, 88940, Note_on_c, 4, 64, 90
8, 88980, Note_on_c, 4, 64, 0
8, 88980, Note_on_c, 4, 62, 90
8, 89009, Note_on_c, 4, 62, 0
8, 89010, Note_on_c, 4, 60, 90
8, 89039, Note_on_c, 4, 60, 0
8, 89040, Note_on_c, 4, 72, 90
8, 89099, Note_on_c, 4, 72, 0
8, 89100, Note_on_c, 4, 71, 90
8, 89159, Note_on_c, 4, 71, 0
8, 89160, Note_on_c, 4, 72, 90
8, 89189, Note_on_c, 4, 72, 0
8, 89190, Note_on_c, 4, 71, 90
8, 89219, Note_on_c, 4, 71, 0
8, 89220, Note_on_c, 4, 69, 90
8, 89249, Note_on_c, 4, 69, 0
8, 89250, Note_on_c, 4, 68, 90
8, 89279, Note_on_c, 4, 68, 0
8, 89280, Note_on_c, 4, 69, 90
8, 89339, Note_on_c, 4, 69, 0
8, 89340, Note_on_c, 4, 71, 90
8, 89399, Note_on_c, 4, 71, 0
8, 89400, Note_on_c, 4, 72, 90
8, 89459, Note_on_c, 4, 72, 0
8, 89460, Note_on_c, 4, 74, 90
8, 89519, Note_on_c, 4, 74, 0
8, 89520, Note_on_c, 4, 72, 90
8, 89549, Note_on_c, 4, 72, 0
8, 89550, Note_on_c, 4, 71, 90
8, 89579, Note_on_c, 4, 71, 0
8, 89580, Note_on_c, 4, 72, 90
8, 89639, Note_on_c, 4, 72, 0
8, 89640, Note_on_c, 4, 72, 90
8, 89669, Note_on_c, 4, 72, 0
8, 89670, Note_on_c, 4, 71, 90
8, 89729, Note_on_c, 4, 71, 0
8, 89730, Note_on_c, 4, 71, 90
8, 89759, Note_on_c, 4, 71, 0
8, 89760, Note_on_c, 4, 76, 90
8, 89789, Note_on_c, 4, 76, 0
8, 89790, Note_on_c, 4, 74, 90
8, 89819, Note_on_c, 4, 74, 0
8, 89820, Note_on_c, 4, 73, 90
8, 89849, Note_on_c, 4, 73, 0
8, 89850, Note_on_c, 4, 76, 90
8, 89879, Note_on_c, 4, 76, 0
8, 89880, Note_on_c, 4, 73, 90
8, 89909, Note_on_c, 4, 73, 0
8, 89910, Note_on_c, 4, 69, 90
8, 89939, Note_on_c, 4, 69, 0
8, 89940, Note_on_c, 4, 64, 90
8, 89969, Note_on_c, 4, 64, 0
8, 89970, Note_on_c, 4, 67, 90
8, 89999, Note_on_c, 4, 67, 0
8, 90000, Note_on_c, 4, 65, 90
8, 90029, Note_on_c, 4, 65, 0
8, 90030, Note_on_c, 4, 69, 90
8, 90059, Note_on_c, 4, 69, 0
8, 90060, Note_on_c, 4, 62, 90
8, 90089, Note_on_c, 4, 62, 0
8, 90090, Note_on_c, 4, 69, 90
8, 90119, Note_on_c, 4, 69, 0
8, 90120, Note_on_c, 4, 74, 90
8, 90149, Note_on_c, 4, 74, 0
8, 90150, Note_on_c, 4, 72, 90
8, 90179, Note_on_c, 4, 72, 0
8, 90180, Note_on_c, 4, 71, 90
8, 90209, Note_on_c, 4, 71, 0
8, 90210, Note_on_c, 4, 74, 90
8, 90239, Note_on_c, 4, 74, 0
8, 90240, Note_on_c, 4, 71, 90
8, 90269, Note_on_c, 4, 71, 0
8, 90270, Note_on_c, 4, 67, 90
8, 90299, Note_on_c, 4, 67, 0
8, 90300, Note_on_c, 4, 62, 90
8, 90329, Note_on_c, 4, 62, 0
8, 90330, Note_on_c, 4, 65, 90
8, 90359, Note_on_c, 4, 65, 0
8, 90360, Note_on_c, 4, 64, 90
8, 90389, Note_on_c, 4, 64, 0
8, 90390, Note_on_c, 4, 67, 90
8, 90419, Note_on_c, 4, 67, 0
8, 90420, Note_on_c, 4, 60, 90
8, 90449, Note_on_c, 4, 60, 0
8, 90450, Note_on_c, 4, 67, 90
8, 90479, Note_on_c, 4, 67, 0
8, 90480, Note_on_c, 4, 72, 90
8, 90509, Note_on_c, 4, 72, 0
8, 90510, Note_on_c, 4, 71, 90
8, 90539, Note_on_c, 4, 71, 0
8, 90540, Note_on_c, 4, 69, 90
8, 90569, Note_on_c, 4, 69, 0
8, 90570, Note_on_c, 4, 68, 90
8, 90599, Note_on_c, 4, 68, 0
8, 90600, Note_on_c, 4, 69, 90
8, 90629, Note_on_c, 4, 69, 0
8, 90630, Note_on_c, 4, 68, 90
8, 90659, Note_on_c, 4, 68, 0
8, 90660, Note_on_c, 4, 69, 90
8, 90689, Note_on_c, 4, 69, 0
8, 90690, Note_on_c, 4, 77, 90
8, 90719, Note_on_c, 4, 77, 0
8, 90720, Note_on_c, 4, 76, 90
8, 90749, Note_on_c, 4, 76, 0
8, 90750, Note_on_c, 4, 75, 90
8, 90779, Note_on_c, 4, 75, 0
8, 90780, Note_on_c, 4, 76, 90
8, 90809, Note_on_c, 4, 76, 0
8, 90810, Note_on_c, 4, 75, 90
8, 90839, Note_on_c, 4, 75, 0
8, 90840, Note_on_c, 4, 76, 90
8, 90869, Note_on_c, 4, 76, 0
8, 90870, Note_on_c, 4, 80, 90
8, 90899, Note_on_c, 4, 80, 0
8, 90900, Note_on_c, 4, 81, 90
8, 90959, Note_on_c, 4, 81, 0
8, 90960, Note_on_c, 4, 60, 90
8, 91019, Note_on_c, 4, 60, 0
8, 91020, Note_on_c, 4, 59, 90
8, 91030, Note_on_c, 4, 59, 0
8, 91030, Note_on_c, 4, 60, 90
8, 91040, Note_on_c, 4, 60, 0
8, 91040, Note_on_c, 4, 59, 90
8, 91080, Note_on_c, 4, 59, 0
8, 91080, Note_on_c, 4, 57, 90
8, 91259, Note_on_c, 4, 57, 0
8, 93690, Note_on_c, 4, 66, 90
8, 93719, Note_on_c, 4, 66, 0
8, 93720, Note_on_c, 4, 71, 90
8, 93749, Note_on_c, 4, 71, 0
8, 93750, Note_on_c, 4, 69, 90
8, 93779, Note_on_c, 4, 69, 0
8, 93780, Note_on_c, 4, 67, 90
8, 93809, Note_on_c, 4, 67, 0
8, 93810, Note_on_c, 4, 71, 90
8, 93839, Note_on_c, 4, 71, 0
8, 93840, Note_on_c, 4, 67, 90
8, 93869, Note_on_c, 4, 67, 0
8, 93870, Note_on_c, 4, 64, 90
8, 93899, Note_on_c, 4, 64, 0
8, 93900, Note_on_c, 4, 63, 90
8, 93929, Note_on_c, 4, 63, 0
8, 93930, Note_on_c, 4, 66, 90
8, 93959, Note_on_c, 4, 66, 0
8, 93960, Note_on_c, 4, 64, 90
8, 93989, Note_on_c, 4, 64, 0
8, 93990, Note_on_c, 4, 67, 90
8, 94019, Note_on_c, 4, 67, 0
8, 94020, Note_on_c, 4, 66, 90
8, 94049, Note_on_c, 4, 66, 0
8, 94050, Note_on_c, 4, 69, 90
8, 94079, Note_on_c, 4, 69, 0
8, 94080, Note_on_c, 4, 67, 90
8, 94109, Note_on_c, 4, 67, 0
8, 94110, Note_on_c, 4, 71, 90
8, 94139, Note_on_c, 4, 71, 0
8, 94140, Note_on_c, 4, 76, 90
8, 94169, Note_on_c, 4, 76, 0
8, 94170, Note_on_c, 4, 74, 90
8, 94199, Note_on_c, 4, 74, 0
8, 94200, Note_on_c, 4, 72, 90
8, 94229, Note_on_c, 4, 72, 0
8, 94230, Note_on_c, 4, 71, 90
8, 94259, Note_on_c, 4, 71, 0
8, 94260, Note_on_c, 4, 69, 90
8, 94289, Note_on_c, 4, 69, 0
8, 94290, Note_on_c, 4, 68, 90
8, 94319, Note_on_c, 4, 68, 0
8, 94320, Note_on_c, 4, 69, 90
8, 94349, Note_on_c, 4, 69, 0
8, 94350, Note_on_c, 4, 64, 90
8, 94379, Note_on_c, 4, 64, 0
8, 94380, Note_on_c, 4, 60, 90
8, 94409, Note_on_c, 4, 60, 0
8, 94410, Note_on_c, 4, 64, 90
8, 94439, Note_on_c, 4, 64, 0
8, 94440, Note_on_c, 4, 69, 90
8, 94469, Note_on_c, 4, 69, 0
8, 94470, Note_on_c, 4, 67, 90
8, 94499, Note_on_c, 4, 67, 0
8, 94500, Note_on_c, 4, 66, 90
8, 94529, Note_on_c, 4, 66, 0
8, 94530, Note_on_c, 4, 69, 90
8, 94559, Note_on_c, 4, 69, 0
8, 94560, Note_on_c, 4, 66, 90
8, 94589, Note_on_c, 4, 66, 0
8, 94590, Note_on_c, 4, 62, 90
8, 94619, Note_on_c, 4, 62, 0
8, 94620, Note_on_c, 4, 61, 90
8, 94649, Note_on_c, 4, 61, 0
8, 94650, Note_on_c, 4, 64, 90
8, 94679, Note_on_c, 4, 64, 0
8, 94680, Note_on_c, 4, 62, 90
8, 94709, Note_on_c, 4, 62, 0
8, 94710, Note_on_c, 4, 66, 90
8, 94739, Note_on_c, 4, 66, 0
8, 94740, Note_on_c, 4, 64, 90
8, 94769, Note_on_c, 4, 64, 0
8, 94770, Note_on_c, 4, 67, 90
8, 94799, Note_on_c, 4, 67, 0
8, 94800, Note_on_c, 4, 66, 90
8, 94829, Note_on_c, 4, 66, 0
8, 94830, Note_on_c, 4, 69, 90
8, 94859, Note_on_c, 4, 69, 0
8, 94860, Note_on_c, 4, 74, 90
8, 94889, Note_on_c, 4, 74, 0
8, 94890, Note_on_c, 4, 72, 90
8, 94919, Note_on_c, 4, 72, 0
8, 94920, Note_on_c, 4, 71, 90
8, 94949, Note_on_c, 4, 71, 0
8, 94950, Note_on_c, 4, 69, 90
8, 94979, Note_on_c, 4, 69, 0
8, 94980, Note_on_c, 4, 67, 90
8, 95009, Note_on_c, 4, 67, 0
8, 95010, Note_on_c, 4, 66, 90
8, 95039, Note_on_c, 4, 66, 0
8, 95040, Note_on_c, 4, 67, 90
8, 95069, Note_on_c, 4, 67, 0
8, 95070, Note_on_c, 4, 62, 90
8, 95099, Note_on_c, 4, 62, 0
8, 95100, Note_on_c, 4, 59, 90
8, 95129, Note_on_c, 4, 59, 0
8, 95130, Note_on_c, 4, 62, 90
8, 95159, Note_on_c, 4, 62, 0
8, 95160, Note_on_c, 4, 67, 90
8, 95219, Note_on_c, 4, 67, 0
8, 95880, Note_on_c, 4, 59, 90
8, 95939, Note_on_c, 4, 59, 0
8, 95940, Note_on_c, 4, 64, 90
8, 95999, Note_on_c, 4, 64, 0
8, 96000, Note_on_c, 4, 67, 90
8, 96059, Note_on_c, 4, 67, 0
8, 96060, Note_on_c, 4, 66, 90
8, 96070, Note_on_c, 4, 66, 0
8, 96070, Note_on_c, 4, 67, 90
8, 96080, Note_on_c, 4, 67, 0
8, 96080, Note_on_c, 4, 66, 90
8, 96120, Note_on_c, 4, 66, 0
8, 96120, Note_on_c, 4, 67, 90
8, 96179, Note_on_c, 4, 67, 0
8, 96180, Note_on_c, 4, 63, 90
8, 96239, Note_on_c, 4, 63, 0
8, 96240, Note_on_c, 4, 64, 90
8, 96299, Note_on_c, 4, 64, 0
8, 96300, Note_on_c, 4, 62, 90
8, 96329, Note_on_c, 4, 62, 0
8, 96330, Note_on_c, 4, 60, 90
8, 96359, Note_on_c, 4, 60, 0
8, 96360, Note_on_c, 4, 59, 90
8, 96389, Note_on_c, 4, 59, 0
8, 96390, Note_on_c, 4, 57, 90
8, 96419, Note_on_c, 4, 57, 0
8, 96420, Note_on_c, 4, 62, 90
8, 96449, Note_on_c, 4, 62, 0
8, 96480, Note_on_c, 4, 59, 90
8, 96539, Note_on_c, 4, 59, 0
8, 96600, Note_on_c, 4, 67, 90
8, 96659, Note_on_c, 4, 67, 0
8, 96660, Note_on_c, 4, 66, 90
8, 96719, Note_on_c, 4, 66, 0
8, 96720, Note_on_c, 4, 67, 90
8, 96749, Note_on_c, 4, 67, 0
8, 96750, Note_on_c, 4, 66, 90
8, 96779, Note_on_c, 4, 66, 0
8, 96780, Note_on_c, 4, 64, 90
8, 96809, Note_on_c, 4, 64, 0
8, 96810, Note_on_c, 4, 63, 90
8, 96839, Note_on_c, 4, 63, 0
8, 96840, Note_on_c, 4, 64, 90
8, 96899, Note_on_c, 4, 64, 0
8, 96900, Note_on_c, 4, 66, 90
8, 96959, Note_on_c, 4, 66, 0
8, 96960, Note_on_c, 4, 67, 90
8, 97019, Note_on_c, 4, 67, 0
8, 97020, Note_on_c, 4, 69, 90
8, 97079, Note_on_c, 4, 69, 0
8, 97080, Note_on_c, 4, 67, 90
8, 97109, Note_on_c, 4, 67, 0
8, 97110, Note_on_c, 4, 66, 90
8, 97139, Note_on_c, 4, 66, 0
8, 97140, Note_on_c, 4, 67, 90
8, 97199, Note_on_c, 4, 67, 0
8, 97200, Note_on_c, 4, 66, 90
8, 97289, Note_on_c, 4, 66, 0
8, 97290, Note_on_c, 4, 78, 90
8, 97319, Note_on_c, 4, 78, 0
8, 97320, Note_on_c, 4, 83, 90
8, 97349, Note_on_c, 4, 83, 0
8, 97350, Note_on_c, 4, 81, 90
8, 97379, Note_on_c, 4, 81, 0
8, 97380, Note_on_c, 4, 80, 90
8, 97409, Note_on_c, 4, 80, 0
8, 97410, Note_on_c, 4, 83, 90
8, 97439, Note_on_c, 4, 83, 0
8, 97440, Note_on_c, 4, 80, 90
8, 97469, Note_on_c, 4, 80, 0
8, 97470, Note_on_c, 4, 76, 90
8, 97499, Note_on_c, 4, 76, 0
8, 97500, Note_on_c, 4, 71, 90
8, 97529, Note_on_c, 4, 71, 0
8, 97530, Note_on_c, 4, 74, 90
8, 97559, Note_on_c, 4, 74, 0
8, 97560, Note_on_c, 4, 72, 90
8, 97589, Note_on_c, 4, 72, 0
8, 97590, Note_on_c, 4, 76, 90
8, 97619, Note_on_c, 4, 76, 0
8, 97620, Note_on_c, 4, 69, 90
8, 97649, Note_on_c, 4, 69, 0
8, 97650, Note_on_c, 4, 76, 90
8, 97679, Note_on_c, 4, 76, 0
8, 97680, Note_on_c, 4, 81, 90
8, 97709, Note_on_c, 4, 81, 0
8, 97710, Note_on_c, 4, 79, 90
8, 97739, Note_on_c, 4, 79, 0
8, 97740, Note_on_c, 4, 78, 90
8, 97769, Note_on_c, 4, 78, 0
8, 97770, Note_on_c, 4, 81, 90
8, 97799, Note_on_c, 4, 81, 0
8, 97800, Note_on_c, 4, 78, 90
8, 97829, Note_on_c, 4, 78, 0
8, 97830, Note_on_c, 4, 74, 90
8, 97859, Note_on_c, 4, 74, 0
8, 97860, Note_on_c, 4, 69, 90
8, 97889, Note_on_c, 4, 69, 0
8, 97890, Note_on_c, 4, 72, 90
8, 97919, Note_on_c, 4, 72, 0
8, 97920, Note_on_c, 4, 71, 90
8, 97949, Note_on_c, 4, 71, 0
8, 97950, Note_on_c, 4, 74, 90
8, 97979, Note_on_c, 4, 74, 0
8, 97980, Note_on_c, 4, 67, 90
8, 98009, Note_on_c, 4, 67, 0
8, 98010, Note_on_c, 4, 74, 90
8, 98039, Note_on_c, 4, 74, 0
8, 98040, Note_on_c, 4, 79, 90
8, 98069, Note_on_c, 4, 79, 0
8, 98070, Note_on_c, 4, 78, 90
8, 98099, Note_on_c, 4, 78, 0
8, 98100, Note_on_c, 4, 76, 90
8, 98129, Note_on_c, 4, 76, 0
8, 98130, Note_on_c, 4, 79, 90
8, 98159, Note_on_c, 4, 79, 0
8, 98160, Note_on_c, 4, 76, 90
8, 98189, Note_on_c, 4, 76, 0
8, 98190, Note_on_c, 4, 72, 90
8, 98219, Note_on_c, 4, 72, 0
8, 98220, Note_on_c, 4, 67, 90
8, 98249, Note_on_c, 4, 67, 0
8, 98250, Note_on_c, 4, 71, 90
8, 98279, Note_on_c, 4, 71, 0
8, 98280, Note_on_c, 4, 69, 90
8, 98309, Note_on_c, 4, 69, 0
8, 98310, Note_on_c, 4, 72, 90
8, 98339, Note_on_c, 4, 72, 0
8, 98340, Note_on_c, 4, 66, 90
8, 98369, Note_on_c, 4, 66, 0
8, 98370, Note_on_c, 4, 69, 90
8, 98399, Note_on_c, 4, 69, 0
8, 98400, Note_on_c, 4, 78, 90
8, 98429, Note_on_c, 4, 78, 0
8, 98430, Note_on_c, 4, 76, 90
8, 98459, Note_on_c, 4, 76, 0
8, 98460, Note_on_c, 4, 75, 90
8, 98489, Note_on_c, 4, 75, 0
8, 98490, Note_on_c, 4, 78, 90
8, 98519, Note_on_c, 4, 78, 0
8, 98520, Note_on_c, 4, 75, 90
8, 98549, Note_on_c, 4, 75, 0
8, 98550, Note_on_c, 4, 71, 90
8, 98579, Note_on_c, 4, 71, 0
8, 98580, Note_on_c, 4, 66, 90
8, 98609, Note_on_c, 4, 66, 0
8, 98610, Note_on_c, 4, 69, 90
8, 98639, Note_on_c, 4, 69, 0
8, 98640, Note_on_c, 4, 67, 90
8, 98669, Note_on_c, 4, 67, 0
8, 98670, Note_on_c, 4, 71, 90
8, 98699, Note_on_c, 4, 71, 0
8, 98700, Note_on_c, 4, 64, 90
8, 98729, Note_on_c, 4, 64, 0
8, 98730, Note_on_c, 4, 71, 90
8, 98759, Note_on_c, 4, 71, 0
8, 98760, Note_on_c, 4, 76, 90
8, 98789, Note_on_c, 4, 76, 0
8, 98790, Note_on_c, 4, 74, 90
8, 98819, Note_on_c, 4, 74, 0
8, 98820, Note_on_c, 4, 73, 90
8, 98849, Note_on_c, 4, 73, 0
8, 98850, Note_on_c, 4, 76, 90
8, 98879, Note_on_c, 4, 76, 0
8, 98880, Note_on_c, 4, 73, 90
8, 98909, Note_on_c, 4, 73, 0
8, 98910, Note_on_c, 4, 69, 90
8, 98939, Note_on_c, 4, 69, 0
8, 98940, Note_on_c, 4, 64, 90
8, 98969, Note_on_c, 4, 64, 0
8, 98970, Note_on_c, 4, 67, 90
8, 98999, Note_on_c, 4, 67, 0
8, 99000, Note_on_c, 4, 65, 90
8, 99029, Note_on_c, 4, 65, 0
8, 99030, Note_on_c, 4, 69, 90
8, 99059, Note_on_c, 4, 69, 0
8, 99060, Note_on_c, 4, 62, 90
8, 99089, Note_on_c, 4, 62, 0
8, 99090, Note_on_c, 4, 69, 90
8, 99119, Note_on_c, 4, 69, 0
8, 99120, Note_on_c, 4, 74, 90
8, 99149, Note_on_c, 4, 74, 0
8, 99150, Note_on_c, 4, 72, 90
8, 99179, Note_on_c, 4, 72, 0
8, 99180, Note_on_c, 4, 71, 90
8, 99209, Note_on_c, 4, 71, 0
8, 99210, Note_on_c, 4, 74, 90
8, 99239, Note_on_c, 4, 74, 0
8, 99240, Note_on_c, 4, 71, 90
8, 99269, Note_on_c, 4, 71, 0
8, 99270, Note_on_c, 4, 67, 90
8, 99299, Note_on_c, 4, 67, 0
8, 99300, Note_on_c, 4, 62, 90
8, 99329, Note_on_c, 4, 62, 0
8, 99330, Note_on_c, 4, 67, 90
8, 99359, Note_on_c, 4, 67, 0
8, 99360, Note_on_c, 4, 55, 90
8, 99419, Note_on_c, 4, 55, 0
8, 99420, Note_on_c, 4, 67, 90
8, 99479, Note_on_c, 4, 67, 0
8, 99480, Note_on_c, 4, 72, 90
8, 99599, Note_on_c, 4, 72, 0
8, 99600, Note_on_c, 4, 74, 90
8, 99629, Note_on_c, 4, 74, 0
8, 99630, Note_on_c, 4, 76, 90
8, 99659, Note_on_c, 4, 76, 0
8, 99660, Note_on_c, 4, 77, 90
8, 99779, Note_on_c, 4, 77, 0
8, 99780, Note_on_c, 4, 71, 90
8, 99839, Note_on_c, 4, 71, 0
8, 99840, Note_on_c, 4, 72, 90
8, 99959, Note_on_c, 4, 72, 0
8, 99960, Note_on_c, 4, 62, 90
8, 100019, Note_on_c, 4, 62, 0
8, 100020, Note_on_c, 4, 71, 90
8, 100030, Note_on_c, 4, 71, 0
8, 100030, Note_on_c, 4, 72, 90
8, 100040, Note_on_c, 4, 72, 0
8, 100040, Note_on_c, 4, 71, 90
8, 100080, Note_on_c, 4, 71, 0
8, 100080, Note_on_c, 4, 72, 90
8, 100199, Note_on_c, 4, 72, 0
8, 100200, Note_on_c, 4, 64, 90
8, 100259, Note_on_c, 4, 64, 0
8, 100260, Note_on_c, 4, 69, 90
8, 100319, Note_on_c, 4, 69, 0
8, 100320, Note_on_c, 4, 72, 90
8, 100379, Note_on_c, 4, 72, 0
8, 100380, Note_on_c, 4, 71, 90
8, 100390, Note_on_c, 4, 71, 0
8, 100390, Note_on_c, 4, 72, 90
8, 100400, Note_on_c, 4, 72, 0
8, 100400, Note_on_c, 4, 71, 90
8, 100410, Note_on_c, 4, 71, 0
8, 100410, Note_on_c, 4, 72, 90
8, 100425, Note_on_c, 4, 72, 0
8, 100425, Note_on_c, 4, 71, 90
8, 100440, Note_on_c, 4, 71, 0
8, 100440, Note_on_c, 4, 72, 90
8, 100499, Note_on_c, 4, 72, 0
8, 100500, Note_on_c, 4, 68, 90
8, 100559, Note_on_c, 4, 68, 0
8, 100560, Note_on_c, 4, 69, 90
8, 100619, Note_on_c, 4, 69, 0
8, 100620, Note_on_c, 4, 67, 90
8, 100649, Note_on_c, 4, 67, 0
8, 100650, Note_on_c, 4, 65, 90
8, 100679, Note_on_c, 4, 65, 0
8, 100680, Note_on_c, 4, 64, 90
8, 100709, Note_on_c, 4, 64, 0
8, 100710, Note_on_c, 4, 62, 90
8, 100739, Note_on_c, 4, 62, 0
8, 100740, Note_on_c, 4, 67, 90
8, 100769, Note_on_c, 4, 67, 0
8, 100800, Note_on_c, 4, 64, 90
8, 100810, Note_on_c, 4, 64, 0
8, 100810, Note_on_c, 4, 65, 90
8, 100820, Note_on_c, 4, 65, 0
8, 100820, Note_on_c, 4, 64, 90
8, 100860, Note_on_c, 4, 64, 0
8, 100860, Note_on_c, 4, 62, 90
8, 100889, Note_on_c, 4, 62, 0
8, 100890, Note_on_c, 4, 60, 90
8, 100919, Note_on_c, 4, 60, 0
8, 100920, Note_on_c, 4, 72, 90
8, 100979, Note_on_c, 4, 72, 0
8, 100980, Note_on_c, 4, 71, 90
8, 101039, Note_on_c, 4, 71, 0
8, 101040, Note_on_c, 4, 72, 90
8, 101069, Note_on_c, 4, 72, 0
8, 101070, Note_on_c, 4, 71, 90
8, 101099, Note_on_c, 4, 71, 0
8, 101100, Note_on_c, 4, 69, 90
8, 101129, Note_on_c, 4, 69, 0
8, 101130, Note_on_c, 4, 68, 90
8, 101159, Note_on_c, 4, 68, 0
8, 101160, Note_on_c, 4, 69, 90
8, 101219, Note_on_c, 4, 69, 0
8, 101220, Note_on_c, 4, 71, 90
8, 101279, Note_on_c, 4, 71, 0
8, 101280, Note_on_c, 4, 72, 90
8, 101339, Note_on_c, 4, 72, 0
8, 101340, Note_on_c, 4, 74, 90
8, 101399, Note_on_c, 4, 74, 0
8, 101400, Note_on_c, 4, 72, 90
8, 101429, Note_on_c, 4, 72, 0
8, 101430, Note_on_c, 4, 71, 90
8, 101459, Note_on_c, 4, 71, 0
8, 101460, Note_on_c, 4, 72, 90
8, 101519, Note_on_c, 4, 72, 0
8, 101520, Note_on_c, 4, 72, 90
8, 101549, Note_on_c, 4, 72, 0
8, 101550, Note_on_c, 4, 71, 90
8, 101609, Note_on_c, 4, 71, 0
8, 101610, Note_on_c, 4, 71, 90
8, 101639, Note_on_c, 4, 71, 0
8, 101640, Note_on_c, 4, 76, 90
8, 101669, Note_on_c, 4, 76, 0
8, 101670, Note_on_c, 4, 74, 90
8, 101699, Note_on_c, 4, 74, 0
8, 101700, Note_on_c, 4, 73, 90
8, 101729, Note_on_c, 4, 73, 0
8, 101730, Note_on_c, 4, 76, 90
8, 101759, Note_on_c, 4, 76, 0
8, 101760, Note_on_c, 4, 73, 90
8, 101789, Note_on_c, 4, 73, 0
8, 101790, Note_on_c, 4, 69, 90
8, 101819, Note_on_c, 4, 69, 0
8, 101820, Note_on_c, 4, 64, 90
8, 101849, Note_on_c, 4, 64, 0
8, 101850, Note_on_c, 4, 67, 90
8, 101879, Note_on_c, 4, 67, 0
8, 101880, Note_on_c, 4, 65, 90
8, 101909, Note_on_c, 4, 65, 0
8, 101910, Note_on_c, 4, 69, 90
8, 101939, Note_on_c, 4, 69, 0
8, 101940, Note_on_c, 4, 62, 90
8, 101969, Note_on_c, 4, 62, 0
8, 101970, Note_on_c, 4, 69, 90
8, 101999, Note_on_c, 4, 69, 0
8, 102000, Note_on_c, 4, 74, 90
8, 102029, Note_on_c, 4, 74, 0
8, 102030, Note_on_c, 4, 72, 90
8, 102059, Note_on_c, 4, 72, 0
8, 102060, Note_on_c, 4, 71, 90
8, 102089, Note_on_c, 4, 71, 0
8, 102090, Note_on_c, 4, 74, 90
8, 102119, Note_on_c, 4, 74, 0
8, 102120, Note_on_c, 4, 71, 90
8, 102149, Note_on_c, 4, 71, 0
8, 102150, Note_on_c, 4, 67, 90
8, 102179, Note_on_c, 4, 67, 0
8, 102180, Note_on_c, 4, 62, 90
8, 102209, Note_on_c, 4, 62, 0
8, 102210, Note_on_c, 4, 65, 90
8, 102239, Note_on_c, 4, 65, 0
8, 102240, Note_on_c, 4, 64, 90
8, 102269, Note_on_c, 4, 64, 0
8, 102270, Note_on_c, 4, 67, 90
8, 102299, Note_on_c, 4, 67, 0
8, 102300, Note_on_c, 4, 60, 90
8, 102329, Note_on_c, 4, 60, 0
8, 102330, Note_on_c, 4, 67, 90
8, 102359, Note_on_c, 4, 67, 0
8, 102360, Note_on_c, 4, 72, 90
8, 102389, Note_on_c, 4, 72, 0
8, 102390, Note_on_c, 4, 71, 90
8, 102419, Note_on_c, 4, 71, 0
8, 102420, Note_on_c, 4, 69, 90
8, 102449, Note_on_c, 4, 69, 0
8, 102450, Note_on_c, 4, 68, 90
8, 102479, Note_on_c, 4, 68, 0
8, 102480, Note_on_c, 4, 69, 90
8, 102509, Note_on_c, 4, 69, 0
8, 102510, Note_on_c, 4, 68, 90
8, 102539, Note_on_c, 4, 68, 0
8, 102540, Note_on_c, 4, 69, 90
8, 102569, Note_on_c, 4, 69, 0
8, 102570, Note_on_c, 4, 77, 90
8, 102599, Note_on_c, 4, 77, 0
8, 102600, Note_on_c, 4, 76, 90
8, 102629, Note_on_c, 4, 76, 0
8, 102630, Note_on_c, 4, 75, 90
8, 102659, Note_on_c, 4, 75, 0
8, 102660, Note_on_c, 4, 76, 90
8, 102689, Note_on_c, 4, 76, 0
8, 102690, Note_on_c, 4, 75, 90
8, 102719, Note_on_c, 4, 75, 0
8, 102720, Note_on_c, 4, 76, 90
8, 102749, Note_on_c, 4, 76, 0
8, 102750, Note_on_c, 4, 80, 90
8, 102779, Note_on_c, 4, 80, 0
8, 102780, Note_on_c, 4, 81, 90
8, 102839, Note_on_c, 4, 81, 0
8, 102840, Note_on_c, 4, 72, 90
8, 102899, Note_on_c, 4, 72, 0
8, 102900, Note_on_c, 4, 71, 90
8, 102959, Note_on_c, 4, 71, 0
8, 102960, Note_on_c, 4, 69, 90
8, 103079, Note_on_c, 4, 69, 0
8, 103080, Note_on_c, 4, 64, 90
8, 103139, Note_on_c, 4, 64, 0
8, 103140, Note_on_c, 4, 69, 90
8, 103199, Note_on_c, 4, 69, 0
8, 103200, Note_on_c, 4, 72, 90
8, 103259, Note_on_c, 4, 72, 0
8, 103260, Note_on_c, 4, 71, 90
8, 103270, Note_on_c, 4, 71, 0
8, 103270, Note_on_c, 4, 72, 90
8, 103280, Note_on_c, 4, 72, 0
8, 103280, Note_on_c, 4, 71, 90
8, 103320, Note_on_c, 4, 71, 0
8, 103320, Note_on_c, 4, 72, 90
8, 103379, Note_on_c, 4, 72, 0
8, 103380, Note_on_c, 4, 68, 90
8, 103439, Note_on_c, 4, 68, 0
8, 103440, Note_on_c, 4, 69, 90
8, 103499, Note_on_c, 4, 69, 0
8, 103500, Note_on_c, 4, 67, 90
8, 103529, Note_on_c, 4, 67, 0
8, 103530, Note_on_c, 4, 65, 90
8, 103559, Note_on_c, 4, 65, 0
8, 103560, Note_on_c, 4, 64, 90
8, 103589, Note_on_c, 4, 64, 0
8, 103590, Note_on_c, 4, 62, 90
8, 103619, Note_on_c, 4, 62, 0
8, 103620, Note_on_c, 4, 67, 90
8, 103679, Note_on_c, 4, 67, 0
8, 103680, Note_on_c, 4, 64, 90
8, 103739, Note_on_c, 4, 64, 0
8, 103740, Note_on_c, 4, 62, 90
8, 103769, Note_on_c, 4, 62, 0
8, 103770, Note_on_c, 4, 60, 90
8, 103799, Note_on_c, 4, 60, 0
8, 103800, Note_on_c, 4, 72, 90
8, 103859, Note_on_c, 4, 72, 0
8, 103860, Note_on_c, 4, 71, 90
8, 103919, Note_on_c, 4, 71, 0
8, 103920, Note_on_c, 4, 72, 90
8, 103949, Note_on_c, 4, 72, 0
8, 103950, Note_on_c, 4, 71, 90
8, 103979, Note_on_c, 4, 71, 0
8, 103980, Note_on_c, 4, 69, 90
8, 104009, Note_on_c, 4, 69, 0
8, 104010, Note_on_c, 4, 68, 90
8, 104039, Note_on_c, 4, 68, 0
8, 104040, Note_on_c, 4, 69, 90
8, 104099, Note_on_c, 4, 69, 0
8, 104100, Note_on_c, 4, 71, 90
8, 104159, Note_on_c, 4, 71, 0
8, 104160, Note_on_c, 4, 72, 90
8, 104219, Note_on_c, 4, 72, 0
8, 104220, Note_on_c, 4, 74, 90
8, 104279, Note_on_c, 4, 74, 0
8, 104280, Note_on_c, 4, 72, 90
8, 104309, Note_on_c, 4, 72, 0
8, 104310, Note_on_c, 4, 71, 90
8, 104339, Note_on_c, 4, 71, 0
8, 104340, Note_on_c, 4, 72, 90
8, 104399, Note_on_c, 4, 72, 0
8, 104400, Note_on_c, 4, 71, 90
8, 104519, Note_on_c, 4, 71, 0
8, 104670, Note_on_c, 4, 71, 90
8, 104699, Note_on_c, 4, 71, 0
8, 104700, Note_on_c, 4, 76, 90
8, 104729, Note_on_c, 4, 76, 0
8, 104730, Note_on_c, 4, 74, 90
8, 104759, Note_on_c, 4, 74, 0
8, 104760, Note_on_c, 4, 73, 90
8, 104789, Note_on_c, 4, 73, 0
8, 104790, Note_on_c, 4, 76, 90
8, 104819, Note_on_c, 4, 76, 0
8, 104820, Note_on_c, 4, 73, 90
8, 104849, Note_on_c, 4, 73, 0
8, 104850, Note_on_c, 4, 69, 90
8, 104879, Note_on_c, 4, 69, 0
8, 104880, Note_on_c, 4, 64, 90
8, 104909, Note_on_c, 4, 64, 0
8, 104910, Note_on_c, 4, 67, 90
8, 104939, Note_on_c, 4, 67, 0
8, 104940, Note_on_c, 4, 65, 90
8, 104969, Note_on_c, 4, 65, 0
8, 104970, Note_on_c, 4, 69, 90
8, 104999, Note_on_c, 4, 69, 0
8, 105000, Note_on_c, 4, 62, 90
8, 105029, Note_on_c, 4, 62, 0
8, 105030, Note_on_c, 4, 69, 90
8, 105059, Note_on_c, 4, 69, 0
8, 105060, Note_on_c, 4, 74, 90
8, 105089, Note_on_c, 4, 74, 0
8, 105090, Note_on_c, 4, 72, 90
8, 105119, Note_on_c, 4, 72, 0
8, 105120, Note_on_c, 4, 71, 90
8, 105149, Note_on_c, 4, 71, 0
8, 105150, Note_on_c, 4, 74, 90
8, 105179, Note_on_c, 4, 74, 0
8, 105180, Note_on_c, 4, 71, 90
8, 105209, Note_on_c, 4, 71, 0
8, 105210, Note_on_c, 4, 67, 90
8, 105239, Note_on_c, 4, 67, 0
8, 105240, Note_on_c, 4, 62, 90
8, 105269, Note_on_c, 4, 62, 0
8, 105270, Note_on_c, 4, 65, 90
8, 105299, Note_on_c, 4, 65, 0
8, 105300, Note_on_c, 4, 64, 90
8, 105329, Note_on_c, 4, 64, 0
8, 105330, Note_on_c, 4, 67, 90
8, 105359, Note_on_c, 4, 67, 0
8, 105360, Note_on_c, 4, 60, 90
8, 105419, Note_on_c, 4, 60, 0
8, 105600, Note_on_c, 4, 60, 90
8, 105659, Note_on_c, 4, 60, 0
8, 105660, Note_on_c, 4, 67, 90
8, 105719, Note_on_c, 4, 67, 0
8, 105720, Note_on_c, 4, 71, 90
8, 105779, Note_on_c, 4, 71, 0
8, 105780, Note_on_c, 4, 69, 90
8, 105790, Note_on_c, 4, 69, 0
8, 105790, Note_on_c, 4, 71, 90
8, 105800, Note_on_c, 4, 71, 0
8, 105800, Note_on_c, 4, 69, 90
8, 105840, Note_on_c, 4, 69, 0
8, 105840, Note_on_c, 4, 71, 90
8, 105899, Note_on_c, 4, 71, 0
8, 105900, Note_on_c, 4, 67, 90
8, 105959, Note_on_c, 4, 67, 0
8, 106320, Note_on_c, 4, 62, 90
8, 106379, Note_on_c, 4, 62, 0
8, 106380, Note_on_c, 4, 69, 90
8, 106439, Note_on_c, 4, 69, 0
8, 106440, Note_on_c, 4, 72, 90
8, 106499, Note_on_c, 4, 72, 0
8, 106500, Note_on_c, 4, 71, 90
8, 106559, Note_on_c, 4, 71, 0
8, 106560, Note_on_c, 4, 72, 90
8, 106619, Note_on_c, 4, 72, 0
8, 106620, Note_on_c, 4, 69, 90
8, 106649, Note_on_c, 4, 69, 0
8, 106650, Note_on_c, 4, 72, 90
8, 106679, Note_on_c, 4, 72, 0
8, 106680, Note_on_c, 4, 71, 90
8, 106709, Note_on_c, 4, 71, 0
8, 106710, Note_on_c, 4, 74, 90
8, 106739, Note_on_c, 4, 74, 0
8, 106740, Note_on_c, 4, 72, 90
8, 106769, Note_on_c, 4, 72, 0
8, 106770, Note_on_c, 4, 76, 90
8, 106799, Note_on_c, 4, 76, 0
8, 106800, Note_on_c, 4, 72, 90
8, 106829, Note_on_c, 4, 72, 0
8, 106830, Note_on_c, 4, 69, 90
8, 106859, Note_on_c, 4, 69, 0
8, 106860, Note_on_c, 4, 68, 90
8, 106889, Note_on_c, 4, 68, 0
8, 106890, Note_on_c, 4, 71, 90
8, 106919, Note_on_c, 4, 71, 0
8, 106920, Note_on_c, 4, 69, 90
8, 106949, Note_on_c, 4, 69, 0
8, 106950, Note_on_c, 4, 72, 90
8, 106979, Note_on_c, 4, 72, 0
8, 106980, Note_on_c, 4, 76, 90
8, 107009, Note_on_c, 4, 76, 0
8, 107010, Note_on_c, 4, 74, 90
8, 107039, Note_on_c, 4, 74, 0
8, 107040, Note_on_c, 4, 72, 90
8, 107069, Note_on_c, 4, 72, 0
8, 107070, Note_on_c, 4, 71, 90
8, 107099, Note_on_c, 4, 71, 0
8, 107100, Note_on_c, 4, 69, 90
8, 107159, Note_on_c, 4, 69, 0
8, 107160, Note_on_c, 4, 74, 90
8, 107219, Note_on_c, 4, 74, 0
8, 107220, Note_on_c, 4, 71, 90
8, 107230, Note_on_c, 4, 71, 0
8, 107230, Note_on_c, 4, 72, 90
8, 107240, Note_on_c, 4, 72, 0
8, 107240, Note_on_c, 4, 71, 90
8, 107280, Note_on_c, 4, 71, 0
8, 107280, Note_on_c, 4, 72, 90
8, 107309, Note_on_c, 4, 72, 0
8, 107310, Note_on_c, 4, 67, 90
8, 107339, Note_on_c, 4, 67, 0
8, 107340, Note_on_c, 4, 64, 90
8, 107369, Note_on_c, 4, 64, 0
8, 107370, Note_on_c, 4, 67, 90
8, 107399, Note_on_c, 4, 67, 0
8, 107400, Note_on_c, 4, 72, 90
8, 107429, Note_on_c, 4, 72, 0
8, 107430, Note_on_c, 4, 76, 90
8, 107459, Note_on_c, 4, 76, 0
8, 107460, Note_on_c, 4, 74, 90
8, 107489, Note_on_c, 4, 74, 0
8, 107490, Note_on_c, 4, 77, 90
8, 107519, Note_on_c, 4, 77, 0
8, 107520, Note_on_c, 4, 76, 90
8, 107549, Note_on_c, 4, 76, 0
8, 107550, Note_on_c, 4, 74, 90
8, 107579, Note_on_c, 4, 74, 0
8, 107580, Note_on_c, 4, 72, 90
8, 107609, Note_on_c, 4, 72, 0
8, 107610, Note_on_c, 4, 71, 90
8, 107639, Note_on_c, 4, 71, 0
8, 107640, Note_on_c, 4, 69, 90
8, 107669, Note_on_c, 4, 69, 0
8, 107670, Note_on_c, 4, 67, 90
8, 107699, Note_on_c, 4, 67, 0
8, 107700, Note_on_c, 4, 65, 90
8, 107729, Note_on_c, 4, 65, 0
8, 107730, Note_on_c, 4, 64, 90
8, 107759, Note_on_c, 4, 64, 0
8, 107760, Note_on_c, 4, 62, 90
8, 107789, Note_on_c, 4, 62, 0
8, 107790, Note_on_c, 4, 60, 90
8, 107819, Note_on_c, 4, 60, 0
8, 107820, Note_on_c, 4, 59, 90
8, 107879, Note_on_c, 4, 59, 0
8, 107880, Note_on_c, 4, 68, 90
8, 107939, Note_on_c, 4, 68, 0
8, 107940, Note_on_c, 4, 69, 90
8, 108029, Note_on_c, 4, 69, 0
8, 108030, Note_on_c, 4, 66, 90
8, 108059, Note_on_c, 4, 66, 0
8, 108060, Note_on_c, 4, 68, 90
8, 108089, Note_on_c, 4, 68, 0
8, 108090, Note_on_c, 4, 71, 90
8, 108119, Note_on_c, 4, 71, 0
8, 108120, Note_on_c, 4, 74, 90
8, 108149, Note_on_c, 4, 74, 0
8, 108180, Note_on_c, 4, 73, 90
8, 108239, Note_on_c, 4, 73, 0
8, 108240, Note_on_c, 4, 76, 90
8, 108299, Note_on_c, 4, 76, 0
8, 108300, Note_on_c, 4, 67, 90
8, 108359, Note_on_c, 4, 67, 0
8, 108360, Note_on_c, 4, 65, 90
8, 108370, Note_on_c, 4, 65, 0
8, 108370, Note_on_c, 4, 67, 90
8, 108380, Note_on_c, 4, 67, 0
8, 108380, Note_on_c, 4, 65, 90
8, 108420, Note_on_c, 4, 65, 0
8, 108420, Note_on_c, 4, 64, 90
8, 108449, Note_on_c, 4, 64, 0
8, 108450, Note_on_c, 4, 62, 90
8, 108479, Note_on_c, 4, 62, 0
8, 108480, Note_on_c, 4, 72, 90
8, 108539, Note_on_c, 4, 72, 0
8, 108540, Note_on_c, 4, 71, 90
8, 108599, Note_on_c, 4, 71, 0
8, 108600, Note_on_c, 4, 74, 90
8, 108659, Note_on_c, 4, 74, 0
8, 108660, Note_on_c, 4, 65, 90
8, 108719, Note_on_c, 4, 65, 0
8, 108720, Note_on_c, 4, 64, 90
8, 108730, Note_on_c, 4, 64, 0
8, 108730, Note_on_c, 4, 65, 90
8, 108740, Note_on_c, 4, 65, 0
8, 108740, Note_on_c, 4, 64, 90
8, 108780, Note_on_c, 4, 64, 0
8, 108780, Note_on_c, 4, 62, 90
8, 108809, Note_on_c, 4, 62, 0
8, 108810, Note_on_c, 4, 60, 90
8, 108839, Note_on_c, 4, 60, 0
8, 108840, Note_on_c, 4, 64, 90
8, 108899, Note_on_c, 4, 64, 0
8, 108900, Note_on_c, 4, 74, 90
8, 108959, Note_on_c, 4, 74, 0
8, 108960, Note_on_c, 4, 72, 90
8, 109019, Note_on_c, 4, 72, 0
8, 109020, Note_on_c, 4, 71, 90
8, 109079, Note_on_c, 4, 71, 0
8, 109080, Note_on_c, 4, 76, 90
8, 109139, Note_on_c, 4, 76, 0
8, 109140, Note_on_c, 4, 69, 90
8, 109199, Note_on_c, 4, 69, 0
8, 109200, Note_on_c, 4, 71, 90
8, 109259, Note_on_c, 4, 71, 0
8, 109260, Note_on_c, 4, 64, 90
8, 109319, Note_on_c, 4, 64, 0
8, 109320, Note_on_c, 4, 72, 90
8, 109349, Note_on_c, 4, 72, 0
8, 109350, Note_on_c, 4, 71, 90
8, 109379, Note_on_c, 4, 71, 0
8, 109380, Note_on_c, 4, 69, 90
8, 109409, Note_on_c, 4, 69, 0
8, 109410, Note_on_c, 4, 68, 90
8, 109439, Note_on_c, 4, 68, 0
8, 109440, Note_on_c, 4, 69, 90
8, 109499, Note_on_c, 4, 69, 0
8, 109710, Note_on_c, 4, 65, 90
8, 109739, Note_on_c, 4, 65, 0
8, 109740, Note_on_c, 4, 70, 90
8, 109769, Note_on_c, 4, 70, 0
8, 109770, Note_on_c, 4, 69, 90
8, 109799, Note_on_c, 4, 69, 0
8, 109800, Note_on_c, 4, 67, 90
8, 109829, Note_on_c, 4, 67, 0
8, 109830, Note_on_c, 4, 70, 90
8, 109859, Note_on_c, 4, 70, 0
8, 109860, Note_on_c, 4, 67, 90
8, 109889, Note_on_c, 4, 67, 0
8, 109890, Note_on_c, 4, 64, 90
8, 109919, Note_on_c, 4, 64, 0
8, 109920, Note_on_c, 4, 58, 90
8, 109949, Note_on_c, 4, 58, 0
8, 109950, Note_on_c, 4, 62, 90
8, 109979, Note_on_c, 4, 62, 0
8, 109980, Note_on_c, 4, 61, 90
8, 110009, Note_on_c, 4, 61, 0
8, 110010, Note_on_c, 4, 64, 90
8, 110039, Note_on_c, 4, 64, 0
8, 110040, Note_on_c, 4, 57, 90
8, 110069, Note_on_c, 4, 57, 0
8, 110070, Note_on_c, 4, 61, 90
8, 110099, Note_on_c, 4, 61, 0
8, 110100, Note_on_c, 4, 64, 90
8, 110129, Note_on_c, 4, 64, 0
8, 110130, Note_on_c, 4, 67, 90
8, 110159, Note_on_c, 4, 67, 0
8, 110160, Note_on_c, 4, 65, 90
8, 110189, Note_on_c, 4, 65, 0
8, 110190, Note_on_c, 4, 69, 90
8, 110219, Note_on_c, 4, 69, 0
8, 110220, Note_on_c, 4, 65, 90
8, 110249, Note_on_c, 4, 65, 0
8, 110250, Note_on_c, 4, 62, 90
8, 110279, Note_on_c, 4, 62, 0
8, 110280, Note_on_c, 4, 57, 90
8, 110309, Note_on_c, 4, 57, 0
8, 110310, Note_on_c, 4, 60, 90
8, 110339, Note_on_c, 4, 60, 0
8, 110340, Note_on_c, 4, 59, 90
8, 110369, Note_on_c, 4, 59, 0
8, 110370, Note_on_c, 4, 62, 90
8, 110399, Note_on_c, 4, 62, 0
8, 110400, Note_on_c, 4, 65, 90
8, 110459, Note_on_c, 4, 65, 0
8, 110640, Note_on_c, 4, 67, 90
8, 110699, Note_on_c, 4, 67, 0
8, 110700, Note_on_c, 4, 66, 90
8, 110759, Note_on_c, 4, 66, 0
8, 110760, Note_on_c, 4, 69, 90
8, 110819, Note_on_c, 4, 69, 0
8, 110820, Note_on_c, 4, 72, 90
8, 110879, Note_on_c, 4, 72, 0
8, 110880, Note_on_c, 4, 72, 90
8, 110890, Note_on_c, 4, 72, 0
8, 110890, Note_on_c, 4, 74, 90
8, 110900, Note_on_c, 4, 74, 0
8, 110900, Note_on_c, 4, 72, 90
8, 110940, Note_on_c, 4, 72, 0
8, 110940, Note_on_c, 4, 71, 90
8, 110999, Note_on_c, 4, 71, 0
8, 111360, Note_on_c, 4, 74, 90
8, 111419, Note_on_c, 4, 74, 0
8, 111420, Note_on_c, 4, 73, 90
8, 111479, Note_on_c, 4, 73, 0
8, 111480, Note_on_c, 4, 76, 90
8, 111539, Note_on_c, 4, 76, 0
8, 111540, Note_on_c, 4, 67, 90
8, 111599, Note_on_c, 4, 67, 0
8, 111600, Note_on_c, 4, 65, 90
8, 111629, Note_on_c, 4, 65, 0
8, 111630, Note_on_c, 4, 69, 90
8, 111659, Note_on_c, 4, 69, 0
8, 111660, Note_on_c, 4, 65, 90
8, 111689, Note_on_c, 4, 65, 0
8, 111690, Note_on_c, 4, 62, 90
8, 111719, Note_on_c, 4, 62, 0
8, 111720, Note_on_c, 4, 57, 90
8, 111749, Note_on_c, 4, 57, 0
8, 111750, Note_on_c, 4, 62, 90
8, 111779, Note_on_c, 4, 62, 0
8, 111780, Note_on_c, 4, 64, 90
8, 111809, Note_on_c, 4, 64, 0
8, 111810, Note_on_c, 4, 67, 90
8, 111839, Note_on_c, 4, 67, 0
8, 111840, Note_on_c, 4, 64, 90
8, 111869, Note_on_c, 4, 64, 0
8, 111870, Note_on_c, 4, 61, 90
8, 111899, Note_on_c, 4, 61, 0
8, 111900, Note_on_c, 4, 57, 90
8, 111929, Note_on_c, 4, 57, 0
8, 111930, Note_on_c, 4, 61, 90
8, 111959, Note_on_c, 4, 61, 0
8, 111960, Note_on_c, 4, 62, 90
8, 111989, Note_on_c, 4, 62, 0
8, 111990, Note_on_c, 4, 65, 90
8, 112019, Note_on_c, 4, 65, 0
8, 112020, Note_on_c, 4, 57, 90
8, 112049, Note_on_c, 4, 57, 0
8, 112050, Note_on_c, 4, 62, 90
8, 112079, Note_on_c, 4, 62, 0
8, 112080, Note_on_c, 4, 65, 90
8, 112109, Note_on_c, 4, 65, 0
8, 112110, Note_on_c, 4, 69, 90
8, 112139, Note_on_c, 4, 69, 0
8, 112140, Note_on_c, 4, 71, 90
8, 112169, Note_on_c, 4, 71, 0
8, 112170, Note_on_c, 4, 74, 90
8, 112199, Note_on_c, 4, 74, 0
8, 112200, Note_on_c, 4, 71, 90
8, 112229, Note_on_c, 4, 71, 0
8, 112230, Note_on_c, 4, 67, 90
8, 112259, Note_on_c, 4, 67, 0
8, 112260, Note_on_c, 4, 62, 90
8, 112289, Note_on_c, 4, 62, 0
8, 112290, Note_on_c, 4, 65, 90
8, 112319, Note_on_c, 4, 65, 0
8, 112320, Note_on_c, 4, 64, 90
8, 112349, Note_on_c, 4, 64, 0
8, 112350, Note_on_c, 4, 67, 90
8, 112379, Note_on_c, 4, 67, 0
8, 112380, Note_on_c, 4, 60, 90
8, 112409, Note_on_c, 4, 60, 0
8, 112410, Note_on_c, 4, 64, 90
8, 112439, Note_on_c, 4, 64, 0
8, 112440, Note_on_c, 4, 67, 90
8, 112469, Note_on_c, 4, 67, 0
8, 112470, Note_on_c, 4, 70, 90
8, 112499, Note_on_c, 4, 70, 0
8, 112500, Note_on_c, 4, 69, 90
8, 112529, Note_on_c, 4, 69, 0
8, 112530, Note_on_c, 4, 68, 90
8, 112559, Note_on_c, 4, 68, 0
8, 112560, Note_on_c, 4, 69, 90
8, 112589, Note_on_c, 4, 69, 0
8, 112590, Note_on_c, 4, 68, 90
8, 112619, Note_on_c, 4, 68, 0
8, 112620, Note_on_c, 4, 69, 90
8, 112649, Note_on_c, 4, 69, 0
8, 112650, Note_on_c, 4, 77, 90
8, 112679, Note_on_c, 4, 77, 0
8, 112680, Note_on_c, 4, 76, 90
8, 112709, Note_on_c, 4, 76, 0
8, 112710, Note_on_c, 4, 75, 90
8, 112739, Note_on_c, 4, 75, 0
8, 112740, Note_on_c, 4, 76, 90
8, 112769, Note_on_c, 4, 76, 0
8, 112770, Note_on_c, 4, 75, 90
8, 112799, Note_on_c, 4, 75, 0
8, 112800, Note_on_c, 4, 76, 90
8, 112829, Note_on_c, 4, 76, 0
8, 112830, Note_on_c, 4, 80, 90
8, 112859, Note_on_c, 4, 80, 0
8, 112860, Note_on_c, 4, 81, 90
8, 112919, Note_on_c, 4, 81, 0
8, 112920, Note_on_c, 4, 60, 90
8, 112979, Note_on_c, 4, 60, 0
8, 112980, Note_on_c, 4, 59, 90
8, 112990, Note_on_c, 4, 59, 0
8, 112990, Note_on_c, 4, 60, 90
8, 113000, Note_on_c, 4, 60, 0
8, 113000, Note_on_c, 4, 59, 90
8, 113040, Note_on_c, 4, 59, 0
8, 113040, Note_on_c, 4, 57, 90
8, 113159, Note_on_c, 4, 57, 0
8, 113160, Note_on_c, 4, 64, 90
8, 113219, Note_on_c, 4, 64, 0
8, 113220, Note_on_c, 4, 69, 90
8, 113279, Note_on_c, 4, 69, 0
8, 113280, Note_on_c, 4, 72, 90
8, 113339, Note_on_c, 4, 72, 0
8, 113340, Note_on_c, 4, 71, 90
8, 113350, Note_on_c, 4, 71, 0
8, 113350, Note_on_c, 4, 72, 90
8, 113360, Note_on_c, 4, 72, 0
8, 113360, Note_on_c, 4, 71, 90
8, 113400, Note_on_c, 4, 71, 0
8, 113400, Note_on_c, 4, 72, 90
8, 113459, Note_on_c, 4, 72, 0
8, 113460, Note_on_c, 4, 68, 90
8, 113519, Note_on_c, 4, 68, 0
8, 113520, Note_on_c, 4, 69, 90
8, 113579, Note_on_c, 4, 69, 0
8, 113580, Note_on_c, 4, 67, 90
8, 113609, Note_on_c, 4, 67, 0
8, 113610, Note_on_c, 4, 65, 90
8, 113639, Note_on_c, 4, 65, 0
8, 113640, Note_on_c, 4, 64, 90
8, 113669, Note_on_c, 4, 64, 0
8, 113670, Note_on_c, 4, 62, 90
8, 113699, Note_on_c, 4, 62, 0
8, 113700, Note_on_c, 4, 67, 90
8, 113729, Note_on_c, 4, 67, 0
8, 113760, Note_on_c, 4, 64, 90
8, 113770, Note_on_c, 4, 64, 0
8, 113770, Note_on_c, 4, 65, 90
8, 113780, Note_on_c, 4, 65, 0
8, 113780, Note_on_c, 4, 64, 90
8, 113820, Note_on_c, 4, 64, 0
8, 113820, Note_on_c, 4, 62, 90
8, 113849, Note_on_c, 4, 62, 0
8, 113850, Note_on_c, 4, 60, 90
8, 113879, Note_on_c, 4, 60, 0
8, 113880, Note_on_c, 4, 72, 90
8, 113939, Note_on_c, 4, 72, 0
8, 113940, Note_on_c, 4, 71, 90
8, 113999, Note_on_c, 4, 71, 0
8, 114000, Note_on_c, 4, 72, 90
8, 114029, Note_on_c, 4, 72, 0
8, 114030, Note_on_c, 4, 71, 90
8, 114059, Note_on_c, 4, 71, 0
8, 114060, Note_on_c, 4, 69, 90
8, 114089, Note_on_c, 4, 69, 0
8, 114090, Note_on_c, 4, 68, 90
8, 114119, Note_on_c, 4, 68, 0
8, 114120, Note_on_c, 4, 69, 90
8, 114179, Note_on_c, 4, 69, 0
8, 114180, Note_on_c, 4, 71, 90
8, 114239, Note_on_c, 4, 71, 0
8, 114240, Note_on_c, 4, 72, 90
8, 114299, Note_on_c, 4, 72, 0
8, 114300, Note_on_c, 4, 74, 90
8, 114359, Note_on_c, 4, 74, 0
8, 114360, Note_on_c, 4, 72, 90
8, 114389, Note_on_c, 4, 72, 0
8, 114390, Note_on_c, 4, 71, 90
8, 114419, Note_on_c, 4, 71, 0
8, 114420, Note_on_c, 4, 72, 90
8, 114479, Note_on_c, 4, 72, 0
8, 114480, Note_on_c, 4, 72, 90
8, 114509, Note_on_c, 4, 72, 0
8, 114510, Note_on_c, 4, 71, 90
8, 114569, Note_on_c, 4, 71, 0
8, 114570, Note_on_c, 4, 71, 90
8, 114599, Note_on_c, 4, 71, 0
8, 114600, Note_on_c, 4, 76, 90
8, 114629, Note_on_c, 4, 76, 0
8, 114630, Note_on_c, 4, 74, 90
8, 114659, Note_on_c, 4, 74, 0
8, 114660, Note_on_c, 4, 73, 90
8, 114689, Note_on_c, 4, 73, 0
8, 114690, Note_on_c, 4, 76, 90
8, 114719, Note_on_c, 4, 76, 0
8, 114720, Note_on_c, 4, 73, 90
8, 114749, Note_on_c, 4, 73, 0
8, 114750, Note_on_c, 4, 69, 90
8, 114779, Note_on_c, 4, 69, 0
8, 114780, Note_on_c, 4, 64, 90
8, 114809, Note_on_c, 4, 64, 0
8, 114810, Note_on_c, 4, 67, 90
8, 114839, Note_on_c, 4, 67, 0
8, 114840, Note_on_c, 4, 65, 90
8, 114869, Note_on_c, 4, 65, 0
8, 114870, Note_on_c, 4, 69, 90
8, 114899, Note_on_c, 4, 69, 0
8, 114900, Note_on_c, 4, 62, 90
8, 114929, Note_on_c, 4, 62, 0
8, 114930, Note_on_c, 4, 69, 90
8, 114959, Note_on_c, 4, 69, 0
8, 114960, Note_on_c, 4, 74, 90
8, 114989, Note_on_c, 4, 74, 0
8, 114990, Note_on_c, 4, 72, 90
8, 115019, Note_on_c, 4, 72, 0
8, 115020, Note_on_c, 4, 71, 90
8, 115049, Note_on_c, 4, 71, 0
8, 115050, Note_on_c, 4, 74, 90
8, 115079, Note_on_c, 4, 74, 0
8, 115080, Note_on_c, 4, 71, 90
8, 115109, Note_on_c, 4, 71, 0
8, 115110, Note_on_c, 4, 67, 90
8, 115139, Note_on_c, 4, 67, 0
8, 115140, Note_on_c, 4, 62, 90
8, 115169, Note_on_c, 4, 62, 0
8, 115170, Note_on_c, 4, 65, 90
8, 115199, Note_on_c, 4, 65, 0
8, 115200, Note_on_c, 4, 64, 90
8, 115229, Note_on_c, 4, 64, 0
8, 115230, Note_on_c, 4, 67, 90
8, 115259, Note_on_c, 4, 67, 0
8, 115260, Note_on_c, 4, 60, 90
8, 115289, Note_on_c, 4, 60, 0
8, 115290, Note_on_c, 4, 67, 90
8, 115319, Note_on_c, 4, 67, 0
8, 115320, Note_on_c, 4, 72, 90
8, 115349, Note_on_c, 4, 72, 0
8, 115350, Note_on_c, 4, 71, 90
8, 115379, Note_on_c, 4, 71, 0
8, 115380, Note_on_c, 4, 69, 90
8, 115409, Note_on_c, 4, 69, 0
8, 115410, Note_on_c, 4, 68, 90
8, 115439, Note_on_c, 4, 68, 0
8, 115440, Note_on_c, 4, 69, 90
8, 115469, Note_on_c, 4, 69, 0
8, 115470, Note_on_c, 4, 68, 90
8, 115499, Note_on_c, 4, 68, 0
8, 115500, Note_on_c, 4, 69, 90
8, 115529, Note_on_c, 4, 69, 0
8, 115530, Note_on_c, 4, 77, 90
8, 115559, Note_on_c, 4, 77, 0
8, 115560, Note_on_c, 4, 76, 90
8, 115589, Note_on_c, 4, 76, 0
8, 115590, Note_on_c, 4, 75, 90
8, 115619, Note_on_c, 4, 75, 0
8, 115620, Note_on_c, 4, 76, 90
8, 115649, Note_on_c, 4, 76, 0
8, 115650, Note_on_c, 4, 75, 90
8, 115679, Note_on_c, 4, 75, 0
8, 115680, Note_on_c, 4, 76, 90
8, 115709, Note_on_c, 4, 76, 0
8, 115710, Note_on_c, 4, 80, 90
8, 115739, Note_on_c, 4, 80, 0
8, 115740, Note_on_c, 4, 81, 90
8, 115799, Note_on_c, 4, 81, 0
8, 115800, Note_on_c, 4, 60, 90
8, 115859, Note_on_c, 4, 60, 0
8, 115860, Note_on_c, 4, 59, 90
8, 115870, Note_on_c, 4, 59, 0
8, 115870, Note_on_c, 4, 60, 90
8, 115880, Note_on_c, 4, 60, 0
8, 115880, Note_on_c, 4, 59, 90
8, 115920, Note_on_c, 4, 59, 0
8, 115920, Note_on_c, 4, 57, 90
8, 116099, Note_on_c, 4, 57, 0
8, 116460, Note_on_c, 4, 64, 90
8, 116579, Note_on_c, 4, 64, 0
8, 116580, Note_on_c, 4, 69, 90
8, 116699, Note_on_c, 4, 69, 0
8, 116700, Note_on_c, 4, 67, 90
8, 116819, Note_on_c, 4, 67, 0
8, 116820, Note_on_c, 4, 65, 90
8, 116939, Note_on_c, 4, 65, 0
8, 116940, Note_on_c, 4, 64, 90
8, 117059, Note_on_c, 4, 64, 0
8, 117060, Note_on_c, 4, 62, 90
8, 117299, Note_on_c, 4, 62, 0
8, 117300, Note_on_c, 4, 64, 90
8, 117395, Note_on_c, 4, 64, 0
8, 117420, Note_on_c, 4, 71, 90
8, 117539, Note_on_c, 4, 71, 0
8, 117540, Note_on_c, 4, 72, 90
8, 117659, Note_on_c, 4, 72, 0
8, 117660, Note_on_c, 4, 72, 90
8, 117779, Note_on_c, 4, 72, 0
8, 117780, Note_on_c, 4, 71, 90
8, 117839, Note_on_c, 4, 71, 0
8, 117840, Note_on_c, 4, 72, 90
8, 117869, Note_on_c, 4, 72, 0
8, 117870, Note_on_c, 4, 74, 90
8, 117899, Note_on_c, 4, 74, 0
8, 117900, Note_on_c, 4, 71, 90
8, 118019, Note_on_c, 4, 71, 0
8, 118020, Note_on_c, 4, 69, 90
8, 118379, Note_on_c, 4, 69, 0
8, 118380, Note_on_c, 4, 64, 90
8, 118499, Note_on_c, 4, 64, 0
8, 118500, Note_on_c, 4, 69, 90
8, 118619, Note_on_c, 4, 69, 0
8, 118620, Note_on_c, 4, 67, 90
8, 118739, Note_on_c, 4, 67, 0
8, 118740, Note_on_c, 4, 65, 90
8, 118859, Note_on_c, 4, 65, 0
8, 118860, Note_on_c, 4, 64, 90
8, 118979, Note_on_c, 4, 64, 0
8, 118980, Note_on_c, 4, 62, 90
8, 119219, Note_on_c, 4, 62, 0
8, 119220, Note_on_c, 4, 64, 90
8, 119315, Note_on_c, 4, 64, 0
8, 119340, Note_on_c, 4, 71, 90
8, 119459, Note_on_c, 4, 71, 0
8, 119460, Note_on_c, 4, 72, 90
8, 119579, Note_on_c, 4, 72, 0
8, 119580, Note_on_c, 4, 72, 90
8, 119699, Note_on_c, 4, 72, 0
8, 119700, Note_on_c, 4, 71, 90
8, 119759, Note_on_c, 4, 71, 0
8, 119760, Note_on_c, 4, 72, 90
8, 119789, Note_on_c, 4, 72, 0
8, 119790, Note_on_c, 4, 74, 90
8, 119819, Note_on_c, 4, 74, 0
8, 119820, Note_on_c, 4, 71, 90
8, 119939, Note_on_c, 4, 71, 0
8, 119940, Note_on_c, 4, 69, 90
8, 120299, Note_on_c, 4, 69, 0
8, 120300, Note_on_c, 4, 72, 90
8, 120419, Note_on_c, 4, 72, 0
8, 120420, Note_on_c, 4, 71, 90
8, 120479, Note_on_c, 4, 71, 0
8, 120480, Note_on_c, 4, 69, 90
8, 120539, Note_on_c, 4, 69, 0
8, 120540, Note_on_c, 4, 67, 90
8, 120659, Note_on_c, 4, 67, 0
8, 120660, Note_on_c, 4, 69, 90
8, 120779, Note_on_c, 4, 69, 0
8, 120780, Note_on_c, 4, 71, 90
8, 120899, Note_on_c, 4, 71, 0
8, 120900, Note_on_c, 4, 72, 90
8, 121139, Note_on_c, 4, 72, 0
8, 121140, Note_on_c, 4, 72, 90
8, 121235, Note_on_c, 4, 72, 0
8, 121260, Note_on_c, 4, 67, 90
8, 121379, Note_on_c, 4, 67, 0
8, 121380, Note_on_c, 4, 69, 90
8, 121499, Note_on_c, 4, 69, 0
8, 121500, Note_on_c, 4, 67, 90
8, 121619, Note_on_c, 4, 67, 0
8, 121620, Note_on_c, 4, 65, 90
8, 121679, Note_on_c, 4, 65, 0
8, 121680, Note_on_c, 4, 64, 90
8, 121739, Note_on_c, 4, 64, 0
8, 121740, Note_on_c, 4, 65, 90
8, 121859, Note_on_c, 4, 65, 0
8, 121860, Note_on_c, 4, 64, 90
8, 122147, Note_on_c, 4, 64, 0
8, 122220, Note_on_c, 4, 72, 90
8, 122339, Note_on_c, 4, 72, 0
8, 122340, Note_on_c, 4, 71, 90
8, 122399, Note_on_c, 4, 71, 0
8, 122400, Note_on_c, 4, 72, 90
8, 122459, Note_on_c, 4, 72, 0
8, 122460, Note_on_c, 4, 74, 90
8, 122579, Note_on_c, 4, 74, 0
8, 122580, Note_on_c, 4, 72, 90
8, 122699, Note_on_c, 4, 72, 0
8, 122700, Note_on_c, 4, 71, 90
8, 122819, Note_on_c, 4, 71, 0
8, 122820, Note_on_c, 4, 69, 90
8, 123059, Note_on_c, 4, 69, 0
8, 123060, Note_on_c, 4, 71, 90
8, 123155, Note_on_c, 4, 71, 0
8, 123180, Note_on_c, 4, 64, 90
8, 123299, Note_on_c, 4, 64, 0
8, 123300, Note_on_c, 4, 65, 90
8, 123419, Note_on_c, 4, 65, 0
8, 123420, Note_on_c, 4, 64, 90
8, 123539, Note_on_c, 4, 64, 0
8, 123540, Note_on_c, 4, 62, 90
8, 123659, Note_on_c, 4, 62, 0
8, 123660, Note_on_c, 4, 67, 90
8, 123719, Note_on_c, 4, 67, 0
8, 123720, Note_on_c, 4, 65, 90
8, 123779, Note_on_c, 4, 65, 0
8, 123780, Note_on_c, 4, 64, 90
8, 124139, Note_on_c, 4, 64, 0
8, 126660, Note_on_c, 4, 67, 90
8, 126719, Note_on_c, 4, 67, 0
8, 126720, Note_on_c, 4, 71, 90
8, 126779, Note_on_c, 4, 71, 0
8, 126780, Note_on_c, 4, 71, 90
8, 126839, Note_on_c, 4, 71, 0
8, 126840, Note_on_c, 4, 74, 90
8, 126899, Note_on_c, 4, 74, 0
8, 126900, Note_on_c, 4, 72, 90
8, 126929, Note_on_c, 4, 72, 0
8, 126930, Note_on_c, 4, 71, 90
8, 126959, Note_on_c, 4, 71, 0
8, 126960, Note_on_c, 4, 69, 90
8, 126989, Note_on_c, 4, 69, 0
8, 126990, Note_on_c, 4, 67, 90
8, 127019, Note_on_c, 4, 67, 0
8, 127020, Note_on_c, 4, 66, 90
8, 127079, Note_on_c, 4, 66, 0
8, 127080, Note_on_c, 4, 69, 90
8, 127139, Note_on_c, 4, 69, 0
8, 127140, Note_on_c, 4, 69, 90
8, 127199, Note_on_c, 4, 69, 0
8, 127200, Note_on_c, 4, 72, 90
8, 127259, Note_on_c, 4, 72, 0
8, 127260, Note_on_c, 4, 71, 90
8, 127289, Note_on_c, 4, 71, 0
8, 127290, Note_on_c, 4, 69, 90
8, 127319, Note_on_c, 4, 69, 0
8, 127320, Note_on_c, 4, 67, 90
8, 127349, Note_on_c, 4, 67, 0
8, 127350, Note_on_c, 4, 66, 90
8, 127379, Note_on_c, 4, 66, 0
8, 127380, Note_on_c, 4, 71, 90
8, 127439, Note_on_c, 4, 71, 0
8, 127440, Note_on_c, 4, 74, 90
8, 127499, Note_on_c, 4, 74, 0
8, 127500, Note_on_c, 4, 74, 90
8, 127559, Note_on_c, 4, 74, 0
8, 127560, Note_on_c, 4, 79, 90
8, 127619, Note_on_c, 4, 79, 0
8, 127620, Note_on_c, 4, 79, 90
8, 127679, Note_on_c, 4, 79, 0
8, 127680, Note_on_c, 4, 71, 90
8, 127739, Note_on_c, 4, 71, 0
8, 127740, Note_on_c, 4, 71, 90
8, 127754, Note_on_c, 4, 71, 0
8, 127755, Note_on_c, 4, 72, 90
8, 127769, Note_on_c, 4, 72, 0
8, 127770, Note_on_c, 4, 71, 90
8, 127799, Note_on_c, 4, 71, 0
8, 127800, Note_on_c, 4, 69, 90
8, 127859, Note_on_c, 4, 69, 0
8, 127860, Note_on_c, 4, 69, 90
8, 127979, Note_on_c, 4, 69, 0
8, 127980, Note_on_c, 4, 74, 90
8, 128129, Note_on_c, 4, 74, 0
8, 128130, Note_on_c, 4, 76, 90
8, 128159, Note_on_c, 4, 76, 0
8, 128160, Note_on_c, 4, 77, 90
8, 128219, Note_on_c, 4, 77, 0
8, 128220, Note_on_c, 4, 77, 90
8, 128279, Note_on_c, 4, 77, 0
8, 128280, Note_on_c, 4, 76, 90
8, 128339, Note_on_c, 4, 76, 0
8, 128340, Note_on_c, 4, 76, 90
8, 128399, Note_on_c, 4, 76, 0
8, 128400, Note_on_c, 4, 74, 90
8, 128459, Note_on_c, 4, 74, 0
8, 128460, Note_on_c, 4, 74, 90
8, 128489, Note_on_c, 4, 74, 0
8, 128490, Note_on_c, 4, 76, 90
8, 128519, Note_on_c, 4, 76, 0
8, 128520, Note_on_c, 4, 74, 90
8, 128549, Note_on_c, 4, 74, 0
8, 128550, Note_on_c, 4, 71, 90
8, 128579, Note_on_c, 4, 71, 0
8, 128580, Note_on_c, 4, 71, 90
8, 128639, Note_on_c, 4, 71, 0
8, 128640, Note_on_c, 4, 72, 90
8, 128879, Note_on_c, 4, 72, 0
8, 128880, Note_on_c, 4, 74, 90
8, 128909, Note_on_c, 4, 74, 0
8, 128910, Note_on_c, 4, 76, 90
8, 128939, Note_on_c, 4, 76, 0
8, 128940, Note_on_c, 4, 76, 90
8, 128999, Note_on_c, 4, 76, 0
8, 129000, Note_on_c, 4, 74, 90
8, 129059, Note_on_c, 4, 74, 0
8, 129060, Note_on_c, 4, 74, 90
8, 129119, Note_on_c, 4, 74, 0
8, 129120, Note_on_c, 4, 72, 90
8, 129179, Note_on_c, 4, 72, 0
8, 129180, Note_on_c, 4, 72, 90
8, 129209, Note_on_c, 4, 72, 0
8, 129210, Note_on_c, 4, 74, 90
8, 129239, Note_on_c, 4, 74, 0
8, 129240, Note_on_c, 4, 72, 90
8, 129269, Note_on_c, 4, 72, 0
8, 129270, Note_on_c, 4, 69, 90
8, 129299, Note_on_c, 4, 69, 0
8, 129300, Note_on_c, 4, 69, 90
8, 129359, Note_on_c, 4, 69, 0
8, 129360, Note_on_c, 4, 71, 90
8, 129539, Note_on_c, 4, 71, 0
8, 129540, Note_on_c, 4, 69, 90
8, 129569, Note_on_c, 4, 69, 0
8, 129570, Note_on_c, 4, 71, 90
8, 129599, Note_on_c, 4, 71, 0
8, 129600, Note_on_c, 4, 72, 90
8, 129629, Note_on_c, 4, 72, 0
8, 129630, Note_on_c, 4, 71, 90
8, 129659, Note_on_c, 4, 71, 0
8, 129660, Note_on_c, 4, 69, 90
8, 129719, Note_on_c, 4, 69, 0
8, 129720, Note_on_c, 4, 76, 90
8, 129749, Note_on_c, 4, 76, 0
8, 129780, Note_on_c, 4, 76, 90
8, 129809, Note_on_c, 4, 76, 0
8, 129840, Note_on_c, 4, 69, 90
8, 129869, Note_on_c, 4, 69, 0
8, 129900, Note_on_c, 4, 69, 90
8, 129929, Note_on_c, 4, 69, 0
8, 129930, Note_on_c, 4, 71, 90
8, 129959, Note_on_c, 4, 71, 0
8, 129960, Note_on_c, 4, 72, 90
8, 129989, Note_on_c, 4, 72, 0
8, 129990, Note_on_c, 4, 71, 90
8, 130019, Note_on_c, 4, 71, 0
8, 130020, Note_on_c, 4, 69, 90
8, 130079, Note_on_c, 4, 69, 0
8, 130080, Note_on_c, 4, 79, 90
8, 130109, Note_on_c, 4, 79, 0
8, 130140, Note_on_c, 4, 79, 90
8, 130169, Note_on_c, 4, 79, 0
8, 130200, Note_on_c, 4, 69, 90
8, 130229, Note_on_c, 4, 69, 0
8, 130260, Note_on_c, 4, 71, 90
8, 130289, Note_on_c, 4, 71, 0
8, 130290, Note_on_c, 4, 72, 90
8, 130319, Note_on_c, 4, 72, 0
8, 130320, Note_on_c, 4, 74, 90
8, 130349, Note_on_c, 4, 74, 0
8, 130350, Note_on_c, 4, 72, 90
8, 130379, Note_on_c, 4, 72, 0
8, 130380, Note_on_c, 4, 71, 90
8, 130439, Note_on_c, 4, 71, 0
8, 130440, Note_on_c, 4, 69, 90
8, 130499, Note_on_c, 4, 69, 0
8, 130500, Note_on_c, 4, 67, 90
8, 130559, Note_on_c, 4, 67, 0
8, 130560, Note_on_c, 4, 66, 90
8, 130619, Note_on_c, 4, 66, 0
8, 130620, Note_on_c, 4, 67, 90
8, 130649, Note_on_c, 4, 67, 0
8, 130740, Note_on_c, 4, 71, 90
8, 130769, Note_on_c, 4, 71, 0
8, 130980, Note_on_c, 4, 72, 90
8, 131009, Note_on_c, 4, 72, 0
8, 131100, Note_on_c, 4, 71, 90
8, 131129, Note_on_c, 4, 71, 0
8, 131340, Note_on_c, 4, 76, 90
8, 131369, Note_on_c, 4, 76, 0
8, 131460, Note_on_c, 4, 74, 90
8, 131489, Note_on_c, 4, 74, 0
8, 131700, Note_on_c, 4, 72, 90
8, 131729, Note_on_c, 4, 72, 0
8, 131820, Note_on_c, 4, 71, 90
8, 131849, Note_on_c, 4, 71, 0
8, 132120, Note_on_c, 4, 75, 90
8, 132179, Note_on_c, 4, 75, 0
8, 132180, Note_on_c, 4, 75, 90
8, 132239, Note_on_c, 4, 75, 0
8, 132240, Note_on_c, 4, 76, 90
8, 132299, Note_on_c, 4, 76, 0
8, 132300, Note_on_c, 4, 76, 90
8, 132359, Note_on_c, 4, 76, 0
8, 132360, Note_on_c, 4, 78, 90
8, 132419, Note_on_c, 4, 78, 0
8, 132420, Note_on_c, 4, 78, 90
8, 132539, Note_on_c, 4, 78, 0
8, 132960, Note_on_c, 4, 78, 90
8, 132989, Note_on_c, 4, 78, 0
8, 132990, Note_on_c, 4, 79, 90
8, 133019, Note_on_c, 4, 79, 0
8, 133020, Note_on_c, 4, 81, 90
8, 133079, Note_on_c, 4, 81, 0
8, 133500, Note_on_c, 4, 71, 90
8, 133620, Note_on_c, 4, 71, 0
8, 133620, Note_on_c, 4, 76, 90
8, 133859, Note_on_c, 4, 76, 0
8, 133860, Note_on_c, 4, 75, 90
8, 134099, Note_on_c, 4, 75, 0
8, 134100, Note_on_c, 4, 76, 90
8, 134579, Note_on_c, 4, 76, 0
8, 134580, Note_on_c, 4, 74, 90
8, 134639, Note_on_c, 4, 74, 0
8, 134640, Note_on_c, 4, 78, 90
8, 134699, Note_on_c, 4, 78, 0
8, 134700, Note_on_c, 4, 81, 90
8, 134879, Note_on_c, 4, 81, 0
8, 134940, Note_on_c, 4, 79, 90
8, 134970, Note_on_c, 4, 79, 0
8, 135180, Note_on_c, 4, 76, 90
8, 135210, Note_on_c, 4, 76, 0
8, 135300, Note_on_c, 4, 72, 90
8, 135330, Note_on_c, 4, 72, 0
8, 135540, Note_on_c, 4, 71, 90
8, 135570, Note_on_c, 4, 71, 0
8, 135660, Note_on_c, 4, 69, 90
8, 135690, Note_on_c, 4, 69, 0
8, 135900, Note_on_c, 4, 67, 90
8, 135959, Note_on_c, 4, 67, 0
8, 135960, Note_on_c, 4, 71, 90
8, 136019, Note_on_c, 4, 71, 0
8, 136020, Note_on_c, 4, 71, 90
8, 136079, Note_on_c, 4, 71, 0
8, 136080, Note_on_c, 4, 74, 90
8, 136139, Note_on_c, 4, 74, 0
8, 136140, Note_on_c, 4, 72, 90
8, 136169, Note_on_c, 4, 72, 0
8, 136170, Note_on_c, 4, 71, 90
8, 136199, Note_on_c, 4, 71, 0
8, 136200, Note_on_c, 4, 69, 90
8, 136229, Note_on_c, 4, 69, 0
8, 136230, Note_on_c, 4, 67, 90
8, 136259, Note_on_c, 4, 67, 0
8, 136260, Note_on_c, 4, 77, 90
8, 136379, Note_on_c, 4, 77, 0
8, 136380, Note_on_c, 4, 71, 90
8, 136499, Note_on_c, 4, 71, 0
8, 136500, Note_on_c, 4, 74, 90
8, 136739, Note_on_c, 4, 74, 0
8, 136740, Note_on_c, 4, 72, 90
8, 136799, Note_on_c, 4, 72, 0
8, 136800, Note_on_c, 4, 71, 90
8, 136859, Note_on_c, 4, 71, 0
8, 136860, Note_on_c, 4, 72, 90
8, 136979, Note_on_c, 4, 72, 0
8, 136980, Note_on_c, 4, 71, 90
8, 137099, Note_on_c, 4, 71, 0
8, 137520, Note_on_c, 4, 76, 90
8, 137549, Note_on_c, 4, 76, 0
8, 137550, Note_on_c, 4, 77, 90
8, 137579, Note_on_c, 4, 77, 0
8, 137580, Note_on_c, 4, 79, 90
8, 137639, Note_on_c, 4, 79, 0
8, 137940, Note_on_c, 4, 62, 90
8, 137999, Note_on_c, 4, 62, 0
8, 138000, Note_on_c, 4, 65, 90
8, 138059, Note_on_c, 4, 65, 0
8, 138060, Note_on_c, 4, 65, 90
8, 138119, Note_on_c, 4, 65, 0
8, 138120, Note_on_c, 4, 69, 90
8, 138179, Note_on_c, 4, 69, 0
8, 138180, Note_on_c, 4, 67, 90
8, 138209, Note_on_c, 4, 67, 0
8, 138210, Note_on_c, 4, 65, 90
8, 138239, Note_on_c, 4, 65, 0
8, 138240, Note_on_c, 4, 64, 90
8, 138269, Note_on_c, 4, 64, 0
8, 138270, Note_on_c, 4, 62, 90
8, 138299, Note_on_c, 4, 62, 0
8, 138300, Note_on_c, 4, 64, 90
8, 138359, Note_on_c, 4, 64, 0
8, 138360, Note_on_c, 4, 67, 90
8, 138419, Note_on_c, 4, 67, 0
8, 138420, Note_on_c, 4, 67, 90
8, 138479, Note_on_c, 4, 67, 0
8, 138480, Note_on_c, 4, 70, 90
8, 138539, Note_on_c, 4, 70, 0
8, 138540, Note_on_c, 4, 69, 90
8, 138569, Note_on_c, 4, 69, 0
8, 138570, Note_on_c, 4, 67, 90
8, 138599, Note_on_c, 4, 67, 0
8, 138600, Note_on_c, 4, 65, 90
8, 138629, Note_on_c, 4, 65, 0
8, 138630, Note_on_c, 4, 64, 90
8, 138659, Note_on_c, 4, 64, 0
8, 138660, Note_on_c, 4, 65, 90
8, 139050, Note_on_c, 4, 65, 0
8, 139050, Note_on_c, 4, 67, 90
8, 139079, Note_on_c, 4, 67, 0
8, 139080, Note_on_c, 4, 69, 90
8, 139139, Note_on_c, 4, 69, 0
8, 139140, Note_on_c, 4, 69, 90
8, 139199, Note_on_c, 4, 69, 0
8, 139200, Note_on_c, 4, 67, 90
8, 139259, Note_on_c, 4, 67, 0
8, 139260, Note_on_c, 4, 67, 90
8, 139319, Note_on_c, 4, 67, 0
8, 139320, Note_on_c, 4, 65, 90
8, 139379, Note_on_c, 4, 65, 0
8, 139380, Note_on_c, 4, 64, 90
8, 139410, Note_on_c, 4, 64, 0
8, 139500, Note_on_c, 4, 67, 90
8, 139530, Note_on_c, 4, 67, 0
8, 139740, Note_on_c, 4, 67, 90
8, 139770, Note_on_c, 4, 67, 0
8, 139860, Note_on_c, 4, 66, 90
8, 139890, Note_on_c, 4, 66, 0
8, 140100, Note_on_c, 4, 69, 90
8, 140159, Note_on_c, 4, 69, 0
8, 140160, Note_on_c, 4, 76, 90
8, 140219, Note_on_c, 4, 76, 0
8, 140220, Note_on_c, 4, 76, 90
8, 140279, Note_on_c, 4, 76, 0
8, 140280, Note_on_c, 4, 79, 90
8, 140339, Note_on_c, 4, 79, 0
8, 140340, Note_on_c, 4, 78, 90
8, 140369, Note_on_c, 4, 78, 0
8, 140370, Note_on_c, 4, 76, 90
8, 140399, Note_on_c, 4, 76, 0
8, 140400, Note_on_c, 4, 74, 90
8, 140429, Note_on_c, 4, 74, 0
8, 140430, Note_on_c, 4, 73, 90
8, 140459, Note_on_c, 4, 73, 0
8, 140460, Note_on_c, 4, 74, 90
8, 140579, Note_on_c, 4, 74, 0
8, 140820, Note_on_c, 4, 59, 90
8, 140879, Note_on_c, 4, 59, 0
8, 140880, Note_on_c, 4, 62, 90
8, 140939, Note_on_c, 4, 62, 0
8, 140940, Note_on_c, 4, 62, 90
8, 140999, Note_on_c, 4, 62, 0
8, 141000, Note_on_c, 4, 67, 90
8, 141059, Note_on_c, 4, 67, 0
8, 141060, Note_on_c, 4, 66, 90
8, 141089, Note_on_c, 4, 66, 0
8, 141090, Note_on_c, 4, 64, 90
8, 141119, Note_on_c, 4, 64, 0
8, 141120, Note_on_c, 4, 62, 90
8, 141149, Note_on_c, 4, 62, 0
8, 141150, Note_on_c, 4, 61, 90
8, 141179, Note_on_c, 4, 61, 0
8, 141180, Note_on_c, 4, 62, 90
8, 141239, Note_on_c, 4, 62, 0
8, 141240, Note_on_c, 4, 66, 90
8, 141299, Note_on_c, 4, 66, 0
8, 141300, Note_on_c, 4, 66, 90
8, 141359, Note_on_c, 4, 66, 0
8, 141360, Note_on_c, 4, 69, 90
8, 141419, Note_on_c, 4, 69, 0
8, 141420, Note_on_c, 4, 72, 90
8, 141659, Note_on_c, 4, 72, 0
8, 141660, Note_on_c, 4, 71, 90
8, 141719, Note_on_c, 4, 71, 0
8, 141720, Note_on_c, 4, 69, 90
8, 141779, Note_on_c, 4, 69, 0
8, 141780, Note_on_c, 4, 71, 90
8, 141899, Note_on_c, 4, 71, 0
8, 141900, Note_on_c, 4, 69, 90
8, 142019, Note_on_c, 4, 69, 0
8, 142440, Note_on_c, 4, 71, 90
8, 142469, Note_on_c, 4, 71, 0
8, 142470, Note_on_c, 4, 72, 90
8, 142499, Note_on_c, 4, 72, 0
8, 142500, Note_on_c, 4, 74, 90
8, 142559, Note_on_c, 4, 74, 0
8, 142860, Note_on_c, 4, 69, 90
8, 142919, Note_on_c, 4, 69, 0
8, 142920, Note_on_c, 4, 72, 90
8, 142979, Note_on_c, 4, 72, 0
8, 142980, Note_on_c, 4, 72, 90
8, 143039, Note_on_c, 4, 72, 0
8, 143040, Note_on_c, 4, 76, 90
8, 143099, Note_on_c, 4, 76, 0
8, 143100, Note_on_c, 4, 74, 90
8, 143129, Note_on_c, 4, 74, 0
8, 143130, Note_on_c, 4, 72, 90
8, 143159, Note_on_c, 4, 72, 0
8, 143160, Note_on_c, 4, 71, 90
8, 143189, Note_on_c, 4, 71, 0
8, 143190, Note_on_c, 4, 69, 90
8, 143219, Note_on_c, 4, 69, 0
8, 143220, Note_on_c, 4, 73, 90
8, 143279, Note_on_c, 4, 73, 0
8, 143280, Note_on_c, 4, 76, 90
8, 143339, Note_on_c, 4, 76, 0
8, 143340, Note_on_c, 4, 76, 90
8, 143399, Note_on_c, 4, 76, 0
8, 143400, Note_on_c, 4, 79, 90
8, 143459, Note_on_c, 4, 79, 0
8, 143460, Note_on_c, 4, 78, 90
8, 143489, Note_on_c, 4, 78, 0
8, 143490, Note_on_c, 4, 76, 90
8, 143519, Note_on_c, 4, 76, 0
8, 143520, Note_on_c, 4, 74, 90
8, 143549, Note_on_c, 4, 74, 0
8, 143550, Note_on_c, 4, 73, 90
8, 143579, Note_on_c, 4, 73, 0
8, 143580, Note_on_c, 4, 81, 90
8, 144060, Note_on_c, 4, 81, 0
8, 144060, Note_on_c, 4, 79, 90
8, 144119, Note_on_c, 4, 79, 0
8, 144120, Note_on_c, 4, 78, 90
8, 144179, Note_on_c, 4, 78, 0
8, 144180, Note_on_c, 4, 79, 90
8, 144359, Note_on_c, 4, 79, 0
8, 144360, Note_on_c, 4, 73, 90
8, 144419, Note_on_c, 4, 73, 0
8, 144420, Note_on_c, 4, 73, 90
8, 144479, Note_on_c, 4, 73, 0
8, 144480, Note_on_c, 4, 76, 90
8, 144539, Note_on_c, 4, 76, 0
8, 144540, Note_on_c, 4, 74, 90
8, 144569, Note_on_c, 4, 74, 0
8, 144570, Note_on_c, 4, 73, 90
8, 144599, Note_on_c, 4, 73, 0
8, 144600, Note_on_c, 4, 71, 90
8, 144629, Note_on_c, 4, 71, 0
8, 144630, Note_on_c, 4, 69, 90
8, 144659, Note_on_c, 4, 69, 0
8, 144660, Note_on_c, 4, 78, 90
8, 144719, Note_on_c, 4, 78, 0
8, 144720, Note_on_c, 4, 81, 90
8, 144779, Note_on_c, 4, 81, 0
8, 144780, Note_on_c, 4, 81, 90
8, 144839, Note_on_c, 4, 81, 0
8, 144840, Note_on_c, 4, 72, 90
8, 144899, Note_on_c, 4, 72, 0
8, 144900, Note_on_c, 4, 71, 90
8, 144929, Note_on_c, 4, 71, 0
8, 144930, Note_on_c, 4, 69, 90
8, 144959, Note_on_c, 4, 69, 0
8, 144960, Note_on_c, 4, 67, 90
8, 144989, Note_on_c, 4, 67, 0
8, 144990, Note_on_c, 4, 66, 90
8, 145019, Note_on_c, 4, 66, 0
8, 145020, Note_on_c, 4, 67, 90
8, 145079, Note_on_c, 4, 67, 0
8, 145080, Note_on_c, 4, 66, 90
8, 145139, Note_on_c, 4, 66, 0
8, 145140, Note_on_c, 4, 66, 90
8, 145199, Note_on_c, 4, 66, 0
8, 145200, Note_on_c, 4, 64, 90
8, 145259, Note_on_c, 4, 64, 0
8, 145260, Note_on_c, 4, 64, 90
8, 145319, Note_on_c, 4, 64, 0
8, 145320, Note_on_c, 4, 62, 90
8, 145379, Note_on_c, 4, 62, 0
8, 145380, Note_on_c, 4, 62, 90
8, 145499, Note_on_c, 4, 62, 0
8, 145560, Note_on_c, 4, 74, 90
8, 145619, Note_on_c, 4, 74, 0
8, 145620, Note_on_c, 4, 74, 90
8, 145679, Note_on_c, 4, 74, 0
8, 145680, Note_on_c, 4, 79, 90
8, 145739, Note_on_c, 4, 79, 0
8, 145740, Note_on_c, 4, 79, 90
8, 145799, Note_on_c, 4, 79, 0
8, 145800, Note_on_c, 4, 78, 90
8, 145859, Note_on_c, 4, 78, 0
8, 145920, Note_on_c, 4, 69, 90
8, 145979, Note_on_c, 4, 69, 0
8, 145980, Note_on_c, 4, 69, 90
8, 146039, Note_on_c, 4, 69, 0
8, 146040, Note_on_c, 4, 72, 90
8, 146099, Note_on_c, 4, 72, 0
8, 146100, Note_on_c, 4, 72, 90
8, 146159, Note_on_c, 4, 72, 0
8, 146160, Note_on_c, 4, 71, 90
8, 146219, Note_on_c, 4, 71, 0
8, 146340, Note_on_c, 4, 71, 90
8, 146459, Note_on_c, 4, 71, 0
8, 146520, Note_on_c, 4, 76, 90
8, 146549, Note_on_c, 4, 76, 0
8, 146550, Note_on_c, 4, 78, 90
8, 146579, Note_on_c, 4, 78, 0
8, 146580, Note_on_c, 4, 79, 90
8, 146639, Note_on_c, 4, 79, 0
8, 146850, Note_on_c, 4, 71, 90
8, 146879, Note_on_c, 4, 71, 0
8, 146880, Note_on_c, 4, 69, 90
8, 146909, Note_on_c, 4, 69, 0
8, 146910, Note_on_c, 4, 72, 90
8, 146939, Note_on_c, 4, 72, 0
8, 146940, Note_on_c, 4, 71, 90
8, 146969, Note_on_c, 4, 71, 0
8, 146970, Note_on_c, 4, 69, 90
8, 146999, Note_on_c, 4, 69, 0
8, 147000, Note_on_c, 4, 67, 90
8, 147029, Note_on_c, 4, 67, 0
8, 147030, Note_on_c, 4, 66, 90
8, 147059, Note_on_c, 4, 66, 0
8, 147060, Note_on_c, 4, 67, 90
8, 147179, Note_on_c, 4, 67, 0
8, 147420, Note_on_c, 4, 67, 90
8, 147479, Note_on_c, 4, 67, 0
8, 147480, Note_on_c, 4, 72, 90
8, 147539, Note_on_c, 4, 72, 0
8, 147540, Note_on_c, 4, 72, 90
8, 147599, Note_on_c, 4, 72, 0
8, 147600, Note_on_c, 4, 76, 90
8, 147659, Note_on_c, 4, 76, 0
8, 147660, Note_on_c, 4, 74, 90
8, 147689, Note_on_c, 4, 74, 0
8, 147690, Note_on_c, 4, 72, 90
8, 147719, Note_on_c, 4, 72, 0
8, 147720, Note_on_c, 4, 71, 90
8, 147749, Note_on_c, 4, 71, 0
8, 147750, Note_on_c, 4, 69, 90
8, 147779, Note_on_c, 4, 69, 0
8, 147780, Note_on_c, 4, 71, 90
8, 147839, Note_on_c, 4, 71, 0
8, 147840, Note_on_c, 4, 74, 90
8, 147899, Note_on_c, 4, 74, 0
8, 147900, Note_on_c, 4, 74, 90
8, 147959, Note_on_c, 4, 74, 0
8, 147960, Note_on_c, 4, 79, 90
8, 148019, Note_on_c, 4, 79, 0
8, 148020, Note_on_c, 4, 79, 90
8, 148079, Note_on_c, 4, 79, 0
8, 148080, Note_on_c, 4, 71, 90
8, 148139, Note_on_c, 4, 71, 0
8, 148140, Note_on_c, 4, 71, 90
8, 148154, Note_on_c, 4, 71, 0
8, 148155, Note_on_c, 4, 72, 90
8, 148169, Note_on_c, 4, 72, 0
8, 148170, Note_on_c, 4, 71, 90
8, 148199, Note_on_c, 4, 71, 0
8, 148200, Note_on_c, 4, 69, 90
8, 148259, Note_on_c, 4, 69, 0
8, 148260, Note_on_c, 4, 69, 90
8, 148439, Note_on_c, 4, 69, 0
8, 148440, Note_on_c, 4, 71, 90
8, 148469, Note_on_c, 4, 71, 0
8, 148470, Note_on_c, 4, 72, 90
8, 148499, Note_on_c, 4, 72, 0
8, 148500, Note_on_c, 4, 71, 90
8, 148529, Note_on_c, 4, 71, 0
8, 148530, Note_on_c, 4, 72, 90
8, 148559, Note_on_c, 4, 72, 0
8, 148560, Note_on_c, 4, 74, 90
8, 148589, Note_on_c, 4, 74, 0
8, 148620, Note_on_c, 4, 74, 90
8, 148679, Note_on_c, 4, 74, 0
8, 148680, Note_on_c, 4, 72, 90
8, 148739, Note_on_c, 4, 72, 0
8, 148740, Note_on_c, 4, 72, 90
8, 148799, Note_on_c, 4, 72, 0
8, 148800, Note_on_c, 4, 71, 90
8, 148859, Note_on_c, 4, 71, 0
8, 148860, Note_on_c, 4, 71, 90
8, 148889, Note_on_c, 4, 71, 0
8, 148890, Note_on_c, 4, 72, 90
8, 148919, Note_on_c, 4, 72, 0
8, 148920, Note_on_c, 4, 71, 90
8, 148949, Note_on_c, 4, 71, 0
8, 148950, Note_on_c, 4, 68, 90
8, 148979, Note_on_c, 4, 68, 0
8, 148980, Note_on_c, 4, 68, 90
8, 149039, Note_on_c, 4, 68, 0
8, 149040, Note_on_c, 4, 69, 90
8, 149279, Note_on_c, 4, 69, 0
8, 149280, Note_on_c, 4, 71, 90
8, 149309, Note_on_c, 4, 71, 0
8, 149310, Note_on_c, 4, 72, 90
8, 149339, Note_on_c, 4, 72, 0
8, 149340, Note_on_c, 4, 72, 90
8, 149399, Note_on_c, 4, 72, 0
8, 149400, Note_on_c, 4, 71, 90
8, 149459, Note_on_c, 4, 71, 0
8, 149460, Note_on_c, 4, 71, 90
8, 149519, Note_on_c, 4, 71, 0
8, 149520, Note_on_c, 4, 69, 90
8, 149579, Note_on_c, 4, 69, 0
8, 149580, Note_on_c, 4, 69, 90
8, 149609, Note_on_c, 4, 69, 0
8, 149610, Note_on_c, 4, 71, 90
8, 149639, Note_on_c, 4, 71, 0
8, 149640, Note_on_c, 4, 69, 90
8, 149669, Note_on_c, 4, 69, 0
8, 149670, Note_on_c, 4, 66, 90
8, 149699, Note_on_c, 4, 66, 0
8, 149700, Note_on_c, 4, 66, 90
8, 149759, Note_on_c, 4, 66, 0
8, 149760, Note_on_c, 4, 67, 90
8, 150690, Note_on_c, 4, 67, 0
8, 150690, Note_on_c, 4, 76, 90
8, 150719, Note_on_c, 4, 76, 0
8, 150720, Note_on_c, 4, 74, 90
8, 150749, Note_on_c, 4, 74, 0
8, 150750, Note_on_c, 4, 72, 90
8, 150779, Note_on_c, 4, 72, 0
8, 150780, Note_on_c, 4, 71, 90
8, 150839, Note_on_c, 4, 71, 0
8, 150840, Note_on_c, 4, 69, 90
8, 150899, Note_on_c, 4, 69, 0
8, 150900, Note_on_c, 4, 67, 90
8, 150959, Note_on_c, 4, 67, 0
8, 150960, Note_on_c, 4, 66, 90
8, 151019, Note_on_c, 4, 66, 0
8, 151020, Note_on_c, 4, 67, 90
8, 151379, Note_on_c, 4, 67, 0
8, 199980, Note_on_c, 4, 74, 90
8, 200099, Note_on_c, 4, 74, 0
8, 200100, Note_on_c, 4, 73, 90
8, 200219, Note_on_c, 4, 73, 0
8, 200220, Note_on_c, 4, 71, 90
8, 200339, Note_on_c, 4, 71, 0
8, 200340, Note_on_c, 4, 73, 90
8, 200459, Note_on_c, 4, 73, 0
8, 200460, Note_on_c, 4, 69, 90
8, 200579, Note_on_c, 4, 69, 0
8, 200580, Note_on_c, 4, 71, 90
8, 200699, Note_on_c, 4, 71, 0
8, 200700, Note_on_c, 4, 73, 90
8, 200819, Note_on_c, 4, 73, 0
8, 200820, Note_on_c, 4, 74, 90
8, 200939, Note_on_c, 4, 74, 0
8, 201660, Note_on_c, 4, 74, 90
8, 201779, Note_on_c, 4, 74, 0
8, 201780, Note_on_c, 4, 74, 90
8, 201899, Note_on_c, 4, 74, 0
8, 201900, Note_on_c, 4, 69, 90
8, 202019, Note_on_c, 4, 69, 0
8, 202020, Note_on_c, 4, 69, 90
8, 202139, Note_on_c, 4, 69, 0
8, 202140, Note_on_c, 4, 66, 90
8, 202199, Note_on_c, 4, 66, 0
8, 202200, Note_on_c, 4, 67, 90
8, 202259, Note_on_c, 4, 67, 0
8, 202260, Note_on_c, 4, 69, 90
8, 202379, Note_on_c, 4, 69, 0
8, 202380, Note_on_c, 4, 67, 90
8, 202499, Note_on_c, 4, 67, 0
8, 202500, Note_on_c, 4, 66, 90
8, 202619, Note_on_c, 4, 66, 0
8, 203340, Note_on_c, 4, 66, 90
8, 203459, Note_on_c, 4, 66, 0
8, 203460, Note_on_c, 4, 71, 90
8, 203579, Note_on_c, 4, 71, 0
8, 203580, Note_on_c, 4, 71, 90
8, 203699, Note_on_c, 4, 71, 0
8, 203700, Note_on_c, 4, 69, 90
8, 203759, Note_on_c, 4, 69, 0
8, 203760, Note_on_c, 4, 71, 90
8, 203819, Note_on_c, 4, 71, 0
8, 203820, Note_on_c, 4, 73, 90
8, 203939, Note_on_c, 4, 73, 0
8, 203940, Note_on_c, 4, 74, 90
8, 203999, Note_on_c, 4, 74, 0
8, 204000, Note_on_c, 4, 73, 90
8, 204059, Note_on_c, 4, 73, 0
8, 204060, Note_on_c, 4, 71, 90
8, 204179, Note_on_c, 4, 71, 0
8, 204180, Note_on_c, 4, 69, 90
8, 204299, Note_on_c, 4, 69, 0
8, 205020, Note_on_c, 4, 74, 90
8, 205139, Note_on_c, 4, 74, 0
8, 205140, Note_on_c, 4, 73, 90
8, 205259, Note_on_c, 4, 73, 0
8, 205260, Note_on_c, 4, 71, 90
8, 205379, Note_on_c, 4, 71, 0
8, 205380, Note_on_c, 4, 69, 90
8, 205499, Note_on_c, 4, 69, 0
8, 205500, Note_on_c, 4, 71, 90
8, 205559, Note_on_c, 4, 71, 0
8, 205560, Note_on_c, 4, 69, 90
8, 205619, Note_on_c, 4, 69, 0
8, 205620, Note_on_c, 4, 67, 90
8, 205679, Note_on_c, 4, 67, 0
8, 205680, Note_on_c, 4, 66, 90
8, 205739, Note_on_c, 4, 66, 0
8, 205740, Note_on_c, 4, 64, 90
8, 205859, Note_on_c, 4, 64, 0
8, 205860, Note_on_c, 4, 62, 90
8, 205979, Note_on_c, 4, 62, 0
8, 205979, End_track
9, 0, Start_track
9, 0, MIDI_port, 0
9, 0, Title_t, "Oboe II"
9, 0, Program_c, 5, 68
9, 570, Note_on_c, 5, 66, 90
9, 584, Note_on_c, 5, 66, 0
9, 585, Note_on_c, 5, 67, 90
9, 599, Note_on_c, 5, 67, 0
9, 600, Note_on_c, 5, 69, 90
9, 614, Note_on_c, 5, 69, 0
9, 615, Note_on_c, 5, 67, 90
9, 629, Note_on_c, 5, 67, 0
9, 630, Note_on_c, 5, 69, 90
9, 644, Note_on_c, 5, 69, 0
9, 645, Note_on_c, 5, 67, 90
9, 659, Note_on_c, 5, 67, 0
9, 660, Note_on_c, 5, 69, 90
9, 674, Note_on_c, 5, 69, 0
9, 675, Note_on_c, 5, 67, 90
9, 689, Note_on_c, 5, 67, 0
9, 690, Note_on_c, 5, 66, 90
9, 704, Note_on_c, 5, 66, 0
9, 705, Note_on_c, 5, 67, 90
9, 719, Note_on_c, 5, 67, 0
9, 720, Note_on_c, 5, 69, 90
9, 779, Note_on_c, 5, 69, 0
9, 915, Note_on_c, 5, 74, 90
9, 929, Note_on_c, 5, 74, 0
9, 930, Note_on_c, 5, 73, 90
9, 944, Note_on_c, 5, 73, 0
9, 945, Note_on_c, 5, 71, 90
9, 959, Note_on_c, 5, 71, 0
9, 960, Note_on_c, 5, 69, 90
9, 974, Note_on_c, 5, 69, 0
9, 975, Note_on_c, 5, 74, 90
9, 989, Note_on_c, 5, 74, 0
9, 990, Note_on_c, 5, 73, 90
9, 1004, Note_on_c, 5, 73, 0
9, 1005, Note_on_c, 5, 71, 90
9, 1019, Note_on_c, 5, 71, 0
9, 1020, Note_on_c, 5, 69, 90
9, 1034, Note_on_c, 5, 69, 0
9, 1035, Note_on_c, 5, 67, 90
9, 1049, Note_on_c, 5, 67, 0
9, 1050, Note_on_c, 5, 66, 90
9, 1064, Note_on_c, 5, 66, 0
9, 1065, Note_on_c, 5, 64, 90
9, 1079, Note_on_c, 5, 64, 0
9, 1080, Note_on_c, 5, 62, 100
9, 1500, Note_on_c, 5, 62, 0
9, 1500, Note_on_c, 5, 74, 90
9, 1529, Note_on_c, 5, 74, 0
9, 1560, Note_on_c, 5, 74, 90
9, 1589, Note_on_c, 5, 74, 0
9, 1620, Note_on_c, 5, 74, 90
9, 1679, Note_on_c, 5, 74, 0
9, 1680, Note_on_c, 5, 73, 90
9, 1709, Note_on_c, 5, 73, 0
9, 1710, Note_on_c, 5, 71, 90
9, 1739, Note_on_c, 5, 71, 0
9, 1740, Note_on_c, 5, 73, 90
9, 1799, Note_on_c, 5, 73, 0
9, 2460, Note_on_c, 5, 76, 90
9, 2519, Note_on_c, 5, 76, 0
9, 2520, Note_on_c, 5, 69, 90
9, 2549, Note_on_c, 5, 69, 0
9, 2550, Note_on_c, 5, 71, 90
9, 2579, Note_on_c, 5, 71, 0
9, 2580, Note_on_c, 5, 73, 90
9, 2639, Note_on_c, 5, 73, 0
9, 2640, Note_on_c, 5, 74, 90
9, 2699, Note_on_c, 5, 74, 0
9, 2700, Note_on_c, 5, 73, 90
9, 2819, Note_on_c, 5, 73, 0
9, 2820, Note_on_c, 5, 73, 90
9, 2879, Note_on_c, 5, 73, 0
9, 2880, Note_on_c, 5, 72, 90
9, 2939, Note_on_c, 5, 72, 0
9, 2940, Note_on_c, 5, 72, 90
9, 2999, Note_on_c, 5, 72, 0
9, 3000, Note_on_c, 5, 72, 90
9, 3059, Note_on_c, 5, 72, 0
9, 3060, Note_on_c, 5, 66, 90
9, 3119, Note_on_c, 5, 66, 0
9, 3120, Note_on_c, 5, 66, 90
9, 3179, Note_on_c, 5, 66, 0
9, 3180, Note_on_c, 5, 66, 90
9, 3239, Note_on_c, 5, 66, 0
9, 3240, Note_on_c, 5, 64, 90
9, 3299, Note_on_c, 5, 64, 0
9, 3300, Note_on_c, 5, 76, 90
9, 3359, Note_on_c, 5, 76, 0
9, 3360, Note_on_c, 5, 75, 90
9, 3419, Note_on_c, 5, 75, 0
9, 3420, Note_on_c, 5, 76, 90
9, 3479, Note_on_c, 5, 76, 0
9, 3480, Note_on_c, 5, 71, 90
9, 3539, Note_on_c, 5, 71, 0
9, 3540, Note_on_c, 5, 71, 90
9, 3599, Note_on_c, 5, 71, 0
9, 3600, Note_on_c, 5, 76, 90
9, 3629, Note_on_c, 5, 76, 0
9, 3630, Note_on_c, 5, 79, 90
9, 3644, Note_on_c, 5, 79, 0
9, 3645, Note_on_c, 5, 78, 90
9, 3659, Note_on_c, 5, 78, 0
9, 3660, Note_on_c, 5, 76, 90
9, 3689, Note_on_c, 5, 76, 0
9, 3690, Note_on_c, 5, 79, 90
9, 3704, Note_on_c, 5, 79, 0
9, 3705, Note_on_c, 5, 78, 90
9, 3719, Note_on_c, 5, 78, 0
9, 3720, Note_on_c, 5, 76, 90
9, 3809, Note_on_c, 5, 76, 0
9, 3810, Note_on_c, 5, 73, 90
9, 3824, Note_on_c, 5, 73, 0
9, 3825, Note_on_c, 5, 74, 90
9, 3839, Note_on_c, 5, 74, 0
9, 3840, Note_on_c, 5, 76, 90
9, 3869, Note_on_c, 5, 76, 0
9, 3870, Note_on_c, 5, 73, 90
9, 3884, Note_on_c, 5, 73, 0
9, 3885, Note_on_c, 5, 74, 90
9, 3899, Note_on_c, 5, 74, 0
9, 3900, Note_on_c, 5, 76, 90
9, 3989, Note_on_c, 5, 76, 0
9, 3990, Note_on_c, 5, 78, 90
9, 4004, Note_on_c, 5, 78, 0
9, 4005, Note_on_c, 5, 76, 90
9, 4019, Note_on_c, 5, 76, 0
9, 4020, Note_on_c, 5, 74, 90
9, 4049, Note_on_c, 5, 74, 0
9, 4080, Note_on_c, 5, 73, 90
9, 4109, Note_on_c, 5, 73, 0
9, 4140, Note_on_c, 5, 74, 90
9, 4169, Note_on_c, 5, 74, 0
9, 4170, Note_on_c, 5, 78, 90
9, 4184, Note_on_c, 5, 78, 0
9, 4185, Note_on_c, 5, 76, 90
9, 4199, Note_on_c, 5, 76, 0
9, 4200, Note_on_c, 5, 74, 90
9, 4229, Note_on_c, 5, 74, 0
9, 4230, Note_on_c, 5, 78, 90
9, 4244, Note_on_c, 5, 78, 0
9, 4245, Note_on_c, 5, 76, 90
9, 4259, Note_on_c, 5, 76, 0
9, 4260, Note_on_c, 5, 74, 90
9, 4349, Note_on_c, 5, 74, 0
9, 4380, Note_on_c, 5, 71, 90
9, 4409, Note_on_c, 5, 71, 0
9, 4440, Note_on_c, 5, 74, 90
9, 4559, Note_on_c, 5, 74, 0
9, 4560, Note_on_c, 5, 68, 90
9, 4589, Note_on_c, 5, 68, 0
9, 4620, Note_on_c, 5, 71, 90
9, 4649, Note_on_c, 5, 71, 0
9, 4680, Note_on_c, 5, 73, 90
9, 4709, Note_on_c, 5, 73, 0
9, 4740, Note_on_c, 5, 69, 90
9, 4769, Note_on_c, 5, 69, 0
9, 4800, Note_on_c, 5, 72, 90
9, 4919, Note_on_c, 5, 72, 0
9, 4920, Note_on_c, 5, 66, 90
9, 4949, Note_on_c, 5, 66, 0
9, 4980, Note_on_c, 5, 69, 90
9, 5009, Note_on_c, 5, 69, 0
9, 5040, Note_on_c, 5, 71, 90
9, 5069, Note_on_c, 5, 71, 0
9, 5100, Note_on_c, 5, 69, 90
9, 5129, Note_on_c, 5, 69, 0
9, 5160, Note_on_c, 5, 69, 90
9, 5189, Note_on_c, 5, 69, 0
9, 5220, Note_on_c, 5, 71, 90
9, 5249, Note_on_c, 5, 71, 0
9, 5400, Note_on_c, 5, 76, 90
9, 5429, Note_on_c, 5, 76, 0
9, 5580, Note_on_c, 5, 74, 90
9, 5609, Note_on_c, 5, 74, 0
9, 5640, Note_on_c, 5, 69, 90
9, 5669, Note_on_c, 5, 69, 0
9, 5700, Note_on_c, 5, 64, 90
9, 5729, Note_on_c, 5, 64, 0
9, 5760, Note_on_c, 5, 66, 90
9, 5789, Note_on_c, 5, 66, 0
9, 6330, Note_on_c, 5, 66, 90
9, 6344, Note_on_c, 5, 66, 0
9, 6345, Note_on_c, 5, 67, 90
9, 6359, Note_on_c, 5, 67, 0
9, 6360, Note_on_c, 5, 69, 90
9, 6374, Note_on_c, 5, 69, 0
9, 6375, Note_on_c, 5, 67, 90
9, 6389, Note_on_c, 5, 67, 0
9, 6390, Note_on_c, 5, 69, 90
9, 6404, Note_on_c, 5, 69, 0
9, 6405, Note_on_c, 5, 67, 90
9, 6419, Note_on_c, 5, 67, 0
9, 6420, Note_on_c, 5, 69, 90
9, 6434, Note_on_c, 5, 69, 0
9, 6435, Note_on_c, 5, 67, 90
9, 6449, Note_on_c, 5, 67, 0
9, 6450, Note_on_c, 5, 66, 90
9, 6464, Note_on_c, 5, 66, 0
9, 6465, Note_on_c, 5, 67, 90
9, 6479, Note_on_c, 5, 67, 0
9, 6480, Note_on_c, 5, 69, 90
9, 6539, Note_on_c, 5, 69, 0
9, 6660, Note_on_c, 5, 69, 90
9, 6719, Note_on_c, 5, 69, 0
9, 6840, Note_on_c, 5, 66, 90
9, 6899, Note_on_c, 5, 66, 0
9, 7035, Note_on_c, 5, 74, 90
9, 7049, Note_on_c, 5, 74, 0
9, 7050, Note_on_c, 5, 73, 90
9, 7064, Note_on_c, 5, 73, 0
9, 7065, Note_on_c, 5, 71, 90
9, 7079, Note_on_c, 5, 71, 0
9, 7080, Note_on_c, 5, 69, 90
9, 7094, Note_on_c, 5, 69, 0
9, 7095, Note_on_c, 5, 74, 90
9, 7109, Note_on_c, 5, 74, 0
9, 7110, Note_on_c, 5, 73, 90
9, 7124, Note_on_c, 5, 73, 0
9, 7125, Note_on_c, 5, 71, 90
9, 7139, Note_on_c, 5, 71, 0
9, 7140, Note_on_c, 5, 69, 90
9, 7154, Note_on_c, 5, 69, 0
9, 7155, Note_on_c, 5, 67, 90
9, 7169, Note_on_c, 5, 67, 0
9, 7170, Note_on_c, 5, 66, 90
9, 7184, Note_on_c, 5, 66, 0
9, 7185, Note_on_c, 5, 64, 90
9, 7199, Note_on_c, 5, 64, 0
9, 7200, Note_on_c, 5, 62, 90
9, 7620, Note_on_c, 5, 62, 0
9, 7620, Note_on_c, 5, 74, 90
9, 7650, Note_on_c, 5, 74, 0
9, 7680, Note_on_c, 5, 74, 90
9, 7710, Note_on_c, 5, 74, 0
9, 7740, Note_on_c, 5, 74, 90
9, 7800, Note_on_c, 5, 74, 0
9, 7800, Note_on_c, 5, 73, 90
9, 7830, Note_on_c, 5, 73, 0
9, 7830, Note_on_c, 5, 71, 90
9, 7860, Note_on_c, 5, 71, 0
9, 7860, Note_on_c, 5, 73, 90
9, 7920, Note_on_c, 5, 73, 0
9, 8580, Note_on_c, 5, 76, 90
9, 8639, Note_on_c, 5, 76, 0
9, 8640, Note_on_c, 5, 69, 90
9, 8669, Note_on_c, 5, 69, 0
9, 8670, Note_on_c, 5, 71, 90
9, 8699, Note_on_c, 5, 71, 0
9, 8700, Note_on_c, 5, 73, 90
9, 8759, Note_on_c, 5, 73, 0
9, 8760, Note_on_c, 5, 74, 90
9, 8819, Note_on_c, 5, 74, 0
9, 8820, Note_on_c, 5, 73, 90
9, 8939, Note_on_c, 5, 73, 0
9, 9420, Note_on_c, 5, 71, 90
9, 9449, Note_on_c, 5, 71, 0
9, 9450, Note_on_c, 5, 73, 90
9, 9479, Note_on_c, 5, 73, 0
9, 9480, Note_on_c, 5, 74, 90
9, 9494, Note_on_c, 5, 74, 0
9, 9495, Note_on_c, 5, 73, 90
9, 9509, Note_on_c, 5, 73, 0
9, 9510, Note_on_c, 5, 71, 90
9, 9524, Note_on_c, 5, 71, 0
9, 9525, Note_on_c, 5, 73, 90
9, 9539, Note_on_c, 5, 73, 0
9, 9540, Note_on_c, 5, 74, 90
9, 9569, Note_on_c, 5, 74, 0
9, 9600, Note_on_c, 5, 71, 90
9, 9629, Note_on_c, 5, 71, 0
9, 9660, Note_on_c, 5, 69, 90
9, 9689, Note_on_c, 5, 69, 0
9, 9720, Note_on_c, 5, 69, 90
9, 9779, Note_on_c, 5, 69, 0
9, 9780, Note_on_c, 5, 69, 90
9, 9839, Note_on_c, 5, 69, 0
9, 9840, Note_on_c, 5, 74, 90
9, 9899, Note_on_c, 5, 74, 0
9, 9900, Note_on_c, 5, 76, 90
9, 9959, Note_on_c, 5, 76, 0
9, 9960, Note_on_c, 5, 64, 90
9, 10019, Note_on_c, 5, 64, 0
9, 10020, Note_on_c, 5, 68, 90
9, 10079, Note_on_c, 5, 68, 0
9, 10080, Note_on_c, 5, 69, 90
9, 10139, Note_on_c, 5, 69, 0
9, 10140, Note_on_c, 5, 64, 90
9, 10169, Note_on_c, 5, 64, 0
9, 10170, Note_on_c, 5, 66, 90
9, 10199, Note_on_c, 5, 66, 0
9, 10200, Note_on_c, 5, 67, 90
9, 10214, Note_on_c, 5, 67, 0
9, 10215, Note_on_c, 5, 66, 90
9, 10229, Note_on_c, 5, 66, 0
9, 10230, Note_on_c, 5, 64, 90
9, 10244, Note_on_c, 5, 64, 0
9, 10245, Note_on_c, 5, 66, 90
9, 10259, Note_on_c, 5, 66, 0
9, 10260, Note_on_c, 5, 67, 90
9, 10319, Note_on_c, 5, 67, 0
9, 10320, Note_on_c, 5, 64, 90
9, 10379, Note_on_c, 5, 64, 0
9, 10380, Note_on_c, 5, 62, 90
9, 10469, Note_on_c, 5, 62, 0
9, 10470, Note_on_c, 5, 61, 90
9, 10499, Note_on_c, 5, 61, 0
9, 10500, Note_on_c, 5, 62, 90
9, 10529, Note_on_c, 5, 62, 0
9, 10530, Note_on_c, 5, 64, 90
9, 10559, Note_on_c, 5, 64, 0
9, 10560, Note_on_c, 5, 66, 90
9, 10574, Note_on_c, 5, 66, 0
9, 10575, Note_on_c, 5, 64, 90
9, 10589, Note_on_c, 5, 64, 0
9, 10590, Note_on_c, 5, 62, 90
9, 10604, Note_on_c, 5, 62, 0
9, 10605, Note_on_c, 5, 64, 90
9, 10619, Note_on_c, 5, 64, 0
9, 10620, Note_on_c, 5, 66, 90
9, 10649, Note_on_c, 5, 66, 0
9, 10650, Note_on_c, 5, 64, 90
9, 10679, Note_on_c, 5, 64, 0
9, 10680, Note_on_c, 5, 66, 90
9, 10709, Note_on_c, 5, 66, 0
9, 10710, Note_on_c, 5, 69, 90
9, 10739, Note_on_c, 5, 69, 0
9, 10740, Note_on_c, 5, 69, 90
9, 10754, Note_on_c, 5, 69, 0
9, 10755, Note_on_c, 5, 67, 90
9, 10769, Note_on_c, 5, 67, 0
9, 10770, Note_on_c, 5, 66, 90
9, 10784, Note_on_c, 5, 66, 0
9, 10785, Note_on_c, 5, 67, 90
9, 10799, Note_on_c, 5, 67, 0
9, 10800, Note_on_c, 5, 69, 90
9, 10859, Note_on_c, 5, 69, 0
9, 10860, Note_on_c, 5, 62, 90
9, 10919, Note_on_c, 5, 62, 0
9, 11040, Note_on_c, 5, 64, 90
9, 11069, Note_on_c, 5, 64, 0
9, 11070, Note_on_c, 5, 67, 90
9, 11099, Note_on_c, 5, 67, 0
9, 11100, Note_on_c, 5, 67, 90
9, 11114, Note_on_c, 5, 67, 0
9, 11115, Note_on_c, 5, 66, 90
9, 11129, Note_on_c, 5, 66, 0
9, 11130, Note_on_c, 5, 64, 90
9, 11144, Note_on_c, 5, 64, 0
9, 11145, Note_on_c, 5, 66, 90
9, 11159, Note_on_c, 5, 66, 0
9, 11160, Note_on_c, 5, 67, 90
9, 11189, Note_on_c, 5, 67, 0
9, 11190, Note_on_c, 5, 71, 90
9, 11219, Note_on_c, 5, 71, 0
9, 11220, Note_on_c, 5, 76, 90
9, 11249, Note_on_c, 5, 76, 0
9, 11280, Note_on_c, 5, 75, 90
9, 11309, Note_on_c, 5, 75, 0
9, 11340, Note_on_c, 5, 76, 90
9, 11399, Note_on_c, 5, 76, 0
9, 11400, Note_on_c, 5, 71, 90
9, 11459, Note_on_c, 5, 71, 0
9, 11460, Note_on_c, 5, 67, 90
9, 11579, Note_on_c, 5, 67, 0
9, 11580, Note_on_c, 5, 67, 90
9, 11639, Note_on_c, 5, 67, 0
9, 11640, Note_on_c, 5, 67, 90
9, 11699, Note_on_c, 5, 67, 0
9, 11700, Note_on_c, 5, 67, 90
9, 11759, Note_on_c, 5, 67, 0
9, 11760, Note_on_c, 5, 70, 90
9, 11819, Note_on_c, 5, 70, 0
9, 11820, Note_on_c, 5, 73, 90
9, 11879, Note_on_c, 5, 73, 0
9, 11880, Note_on_c, 5, 74, 90
9, 11939, Note_on_c, 5, 74, 0
9, 11940, Note_on_c, 5, 71, 90
9, 11999, Note_on_c, 5, 71, 0
9, 12000, Note_on_c, 5, 70, 90
9, 12059, Note_on_c, 5, 70, 0
9, 12060, Note_on_c, 5, 71, 90
9, 12119, Note_on_c, 5, 71, 0
9, 12120, Note_on_c, 5, 66, 90
9, 12179, Note_on_c, 5, 66, 0
9, 12180, Note_on_c, 5, 66, 90
9, 12239, Note_on_c, 5, 66, 0
9, 12240, Note_on_c, 5, 71, 90
9, 12269, Note_on_c, 5, 71, 0
9, 12270, Note_on_c, 5, 74, 90
9, 12284, Note_on_c, 5, 74, 0
9, 12285, Note_on_c, 5, 73, 90
9, 12299, Note_on_c, 5, 73, 0
9, 12300, Note_on_c, 5, 71, 90
9, 12329, Note_on_c, 5, 71, 0
9, 12330, Note_on_c, 5, 74, 90
9, 12344, Note_on_c, 5, 74, 0
9, 12345, Note_on_c, 5, 73, 90
9, 12359, Note_on_c, 5, 73, 0
9, 12360, Note_on_c, 5, 71, 90
9, 12449, Note_on_c, 5, 71, 0
9, 12450, Note_on_c, 5, 68, 90
9, 12464, Note_on_c, 5, 68, 0
9, 12465, Note_on_c, 5, 69, 90
9, 12479, Note_on_c, 5, 69, 0
9, 12480, Note_on_c, 5, 71, 90
9, 12509, Note_on_c, 5, 71, 0
9, 12510, Note_on_c, 5, 68, 90
9, 12524, Note_on_c, 5, 68, 0
9, 12525, Note_on_c, 5, 69, 90
9, 12539, Note_on_c, 5, 69, 0
9, 12540, Note_on_c, 5, 71, 90
9, 12629, Note_on_c, 5, 71, 0
9, 12630, Note_on_c, 5, 73, 90
9, 12644, Note_on_c, 5, 73, 0
9, 12645, Note_on_c, 5, 71, 90
9, 12659, Note_on_c, 5, 71, 0
9, 12660, Note_on_c, 5, 69, 90
9, 12689, Note_on_c, 5, 69, 0
9, 12720, Note_on_c, 5, 68, 90
9, 12749, Note_on_c, 5, 68, 0
9, 12780, Note_on_c, 5, 69, 90
9, 12809, Note_on_c, 5, 69, 0
9, 12810, Note_on_c, 5, 73, 90
9, 12824, Note_on_c, 5, 73, 0
9, 12825, Note_on_c, 5, 71, 90
9, 12839, Note_on_c, 5, 71, 0
9, 12840, Note_on_c, 5, 69, 90
9, 12869, Note_on_c, 5, 69, 0
9, 12870, Note_on_c, 5, 73, 90
9, 12884, Note_on_c, 5, 73, 0
9, 12885, Note_on_c, 5, 71, 90
9, 12899, Note_on_c, 5, 71, 0
9, 12900, Note_on_c, 5, 69, 90
9, 12929, Note_on_c, 5, 69, 0
9, 12930, Note_on_c, 5, 69, 90
9, 12944, Note_on_c, 5, 69, 0
9, 12945, Note_on_c, 5, 71, 90
9, 12959, Note_on_c, 5, 71, 0
9, 12960, Note_on_c, 5, 73, 90
9, 12989, Note_on_c, 5, 73, 0
9, 12990, Note_on_c, 5, 71, 90
9, 13004, Note_on_c, 5, 71, 0
9, 13005, Note_on_c, 5, 73, 90
9, 13019, Note_on_c, 5, 73, 0
9, 13020, Note_on_c, 5, 75, 90
9, 13049, Note_on_c, 5, 75, 0
9, 13050, Note_on_c, 5, 73, 90
9, 13064, Note_on_c, 5, 73, 0
9, 13065, Note_on_c, 5, 75, 90
9, 13079, Note_on_c, 5, 75, 0
9, 13080, Note_on_c, 5, 76, 90
9, 13109, Note_on_c, 5, 76, 0
9, 13110, Note_on_c, 5, 75, 90
9, 13124, Note_on_c, 5, 75, 0
9, 13125, Note_on_c, 5, 76, 90
9, 13139, Note_on_c, 5, 76, 0
9, 13140, Note_on_c, 5, 78, 90
9, 13199, Note_on_c, 5, 78, 0
9, 13200, Note_on_c, 5, 71, 90
9, 13349, Note_on_c, 5, 71, 0
9, 13350, Note_on_c, 5, 69, 90
9, 13364, Note_on_c, 5, 69, 0
9, 13365, Note_on_c, 5, 71, 90
9, 13379, Note_on_c, 5, 71, 0
9, 13380, Note_on_c, 5, 73, 90
9, 13409, Note_on_c, 5, 73, 0
9, 13410, Note_on_c, 5, 71, 90
9, 13424, Note_on_c, 5, 71, 0
9, 13425, Note_on_c, 5, 73, 90
9, 13439, Note_on_c, 5, 73, 0
9, 13440, Note_on_c, 5, 74, 90
9, 13469, Note_on_c, 5, 74, 0
9, 13470, Note_on_c, 5, 73, 90
9, 13484, Note_on_c, 5, 73, 0
9, 13485, Note_on_c, 5, 74, 90
9, 13499, Note_on_c, 5, 74, 0
9, 13500, Note_on_c, 5, 76, 90
9, 13559, Note_on_c, 5, 76, 0
9, 13560, Note_on_c, 5, 69, 90
9, 13709, Note_on_c, 5, 69, 0
9, 13710, Note_on_c, 5, 68, 90
9, 13724, Note_on_c, 5, 68, 0
9, 13725, Note_on_c, 5, 69, 90
9, 13739, Note_on_c, 5, 69, 0
9, 13740, Note_on_c, 5, 71, 90
9, 13769, Note_on_c, 5, 71, 0
9, 13770, Note_on_c, 5, 69, 90
9, 13784, Note_on_c, 5, 69, 0
9, 13785, Note_on_c, 5, 71, 90
9, 13799, Note_on_c, 5, 71, 0
9, 13800, Note_on_c, 5, 73, 90
9, 13829, Note_on_c, 5, 73, 0
9, 13830, Note_on_c, 5, 71, 90
9, 13844, Note_on_c, 5, 71, 0
9, 13845, Note_on_c, 5, 73, 90
9, 13859, Note_on_c, 5, 73, 0
9, 13860, Note_on_c, 5, 74, 90
9, 13919, Note_on_c, 5, 74, 0
9, 13920, Note_on_c, 5, 78, 90
9, 13949, Note_on_c, 5, 78, 0
9, 13950, Note_on_c, 5, 76, 90
9, 13979, Note_on_c, 5, 76, 0
9, 13980, Note_on_c, 5, 74, 90
9, 14039, Note_on_c, 5, 74, 0
9, 14040, Note_on_c, 5, 83, 90
9, 14099, Note_on_c, 5, 83, 0
9, 14100, Note_on_c, 5, 74, 90
9, 14219, Note_on_c, 5, 74, 0
9, 14220, Note_on_c, 5, 73, 90
9, 14249, Note_on_c, 5, 73, 0
9, 14280, Note_on_c, 5, 74, 90
9, 14309, Note_on_c, 5, 74, 0
9, 14340, Note_on_c, 5, 71, 90
9, 14369, Note_on_c, 5, 71, 0
9, 14400, Note_on_c, 5, 69, 90
9, 14459, Note_on_c, 5, 69, 0
9, 14700, Note_on_c, 5, 68, 90
9, 14729, Note_on_c, 5, 68, 0
9, 14730, Note_on_c, 5, 69, 90
9, 14759, Note_on_c, 5, 69, 0
9, 14760, Note_on_c, 5, 71, 90
9, 14789, Note_on_c, 5, 71, 0
9, 14820, Note_on_c, 5, 71, 90
9, 14849, Note_on_c, 5, 71, 0
9, 14880, Note_on_c, 5, 71, 90
9, 14909, Note_on_c, 5, 71, 0
9, 14940, Note_on_c, 5, 71, 90
9, 14999, Note_on_c, 5, 71, 0
9, 15000, Note_on_c, 5, 69, 90
9, 15029, Note_on_c, 5, 69, 0
9, 15030, Note_on_c, 5, 68, 90
9, 15059, Note_on_c, 5, 68, 0
9, 15060, Note_on_c, 5, 69, 90
9, 15119, Note_on_c, 5, 69, 0
9, 15420, Note_on_c, 5, 74, 90
9, 15479, Note_on_c, 5, 74, 0
9, 15480, Note_on_c, 5, 74, 90
9, 15599, Note_on_c, 5, 74, 0
9, 15600, Note_on_c, 5, 71, 90
9, 15659, Note_on_c, 5, 71, 0
9, 15660, Note_on_c, 5, 73, 90
9, 15719, Note_on_c, 5, 73, 0
9, 15720, Note_on_c, 5, 64, 90
9, 15779, Note_on_c, 5, 64, 0
9, 15780, Note_on_c, 5, 73, 90
9, 15839, Note_on_c, 5, 73, 0
9, 15840, Note_on_c, 5, 74, 90
9, 15899, Note_on_c, 5, 74, 0
9, 16410, Note_on_c, 5, 66, 90
9, 16424, Note_on_c, 5, 66, 0
9, 16425, Note_on_c, 5, 67, 90
9, 16439, Note_on_c, 5, 67, 0
9, 16440, Note_on_c, 5, 69, 90
9, 16454, Note_on_c, 5, 69, 0
9, 16455, Note_on_c, 5, 67, 90
9, 16469, Note_on_c, 5, 67, 0
9, 16470, Note_on_c, 5, 69, 90
9, 16484, Note_on_c, 5, 69, 0
9, 16485, Note_on_c, 5, 67, 90
9, 16499, Note_on_c, 5, 67, 0
9, 16500, Note_on_c, 5, 69, 90
9, 16514, Note_on_c, 5, 69, 0
9, 16515, Note_on_c, 5, 67, 90
9, 16529, Note_on_c, 5, 67, 0
9, 16530, Note_on_c, 5, 66, 90
9, 16544, Note_on_c, 5, 66, 0
9, 16545, Note_on_c, 5, 67, 90
9, 16559, Note_on_c, 5, 67, 0
9, 16560, Note_on_c, 5, 69, 90
9, 16619, Note_on_c, 5, 69, 0
9, 16740, Note_on_c, 5, 69, 90
9, 16799, Note_on_c, 5, 69, 0
9, 16920, Note_on_c, 5, 66, 90
9, 16979, Note_on_c, 5, 66, 0
9, 17115, Note_on_c, 5, 74, 90
9, 17129, Note_on_c, 5, 74, 0
9, 17130, Note_on_c, 5, 73, 90
9, 17144, Note_on_c, 5, 73, 0
9, 17145, Note_on_c, 5, 71, 90
9, 17159, Note_on_c, 5, 71, 0
9, 17160, Note_on_c, 5, 69, 90
9, 17174, Note_on_c, 5, 69, 0
9, 17175, Note_on_c, 5, 74, 90
9, 17189, Note_on_c, 5, 74, 0
9, 17190, Note_on_c, 5, 73, 90
9, 17204, Note_on_c, 5, 73, 0
9, 17205, Note_on_c, 5, 71, 90
9, 17219, Note_on_c, 5, 71, 0
9, 17220, Note_on_c, 5, 69, 90
9, 17234, Note_on_c, 5, 69, 0
9, 17235, Note_on_c, 5, 67, 90
9, 17249, Note_on_c, 5, 67, 0
9, 17250, Note_on_c, 5, 66, 90
9, 17264, Note_on_c, 5, 66, 0
9, 17265, Note_on_c, 5, 64, 90
9, 17279, Note_on_c, 5, 64, 0
9, 17280, Note_on_c, 5, 62, 90
9, 17700, Note_on_c, 5, 62, 0
9, 17700, Note_on_c, 5, 74, 90
9, 17730, Note_on_c, 5, 74, 0
9, 17760, Note_on_c, 5, 74, 90
9, 17790, Note_on_c, 5, 74, 0
9, 17820, Note_on_c, 5, 74, 90
9, 17880, Note_on_c, 5, 74, 0
9, 17880, Note_on_c, 5, 73, 90
9, 17910, Note_on_c, 5, 73, 0
9, 17910, Note_on_c, 5, 71, 90
9, 17940, Note_on_c, 5, 71, 0
9, 17940, Note_on_c, 5, 73, 90
9, 18000, Note_on_c, 5, 73, 0
9, 18660, Note_on_c, 5, 76, 90
9, 18720, Note_on_c, 5, 76, 0
9, 18720, Note_on_c, 5, 69, 90
9, 18750, Note_on_c, 5, 69, 0
9, 18750, Note_on_c, 5, 71, 90
9, 18780, Note_on_c, 5, 71, 0
9, 18780, Note_on_c, 5, 73, 90
9, 18840, Note_on_c, 5, 73, 0
9, 18840, Note_on_c, 5, 74, 90
9, 18900, Note_on_c, 5, 74, 0
9, 18900, Note_on_c, 5, 73, 90
9, 19020, Note_on_c, 5, 73, 0
9, 19320, Note_on_c, 5, 66, 90
9, 19349, Note_on_c, 5, 66, 0
9, 19350, Note_on_c, 5, 67, 90
9, 19379, Note_on_c, 5, 67, 0
9, 19380, Note_on_c, 5, 69, 90
9, 19394, Note_on_c, 5, 69, 0
9, 19395, Note_on_c, 5, 67, 90
9, 19409, Note_on_c, 5, 67, 0
9, 19410, Note_on_c, 5, 66, 90
9, 19424, Note_on_c, 5, 66, 0
9, 19425, Note_on_c, 5, 67, 90
9, 19439, Note_on_c, 5, 67, 0
9, 19440, Note_on_c, 5, 69, 90
9, 19469, Note_on_c, 5, 69, 0
9, 19470, Note_on_c, 5, 67, 90
9, 19499, Note_on_c, 5, 67, 0
9, 19500, Note_on_c, 5, 69, 90
9, 19529, Note_on_c, 5, 69, 0
9, 19530, Note_on_c, 5, 71, 90
9, 19559, Note_on_c, 5, 71, 0
9, 19560, Note_on_c, 5, 73, 90
9, 19574, Note_on_c, 5, 73, 0
9, 19575, Note_on_c, 5, 71, 90
9, 19589, Note_on_c, 5, 71, 0
9, 19590, Note_on_c, 5, 69, 90
9, 19604, Note_on_c, 5, 69, 0
9, 19605, Note_on_c, 5, 71, 90
9, 19619, Note_on_c, 5, 71, 0
9, 19620, Note_on_c, 5, 73, 90
9, 19649, Note_on_c, 5, 73, 0
9, 19680, Note_on_c, 5, 69, 90
9, 19709, Note_on_c, 5, 69, 0
9, 19740, Note_on_c, 5, 66, 90
9, 19769, Note_on_c, 5, 66, 0
9, 19800, Note_on_c, 5, 71, 90
9, 19829, Note_on_c, 5, 71, 0
9, 19830, Note_on_c, 5, 73, 90
9, 19859, Note_on_c, 5, 73, 0
9, 19860, Note_on_c, 5, 74, 90
9, 19889, Note_on_c, 5, 74, 0
9, 19920, Note_on_c, 5, 78, 90
9, 19934, Note_on_c, 5, 78, 0
9, 19935, Note_on_c, 5, 76, 90
9, 19949, Note_on_c, 5, 76, 0
9, 19950, Note_on_c, 5, 74, 90
9, 19964, Note_on_c, 5, 74, 0
9, 19965, Note_on_c, 5, 76, 90
9, 19979, Note_on_c, 5, 76, 0
9, 19980, Note_on_c, 5, 78, 90
9, 20009, Note_on_c, 5, 78, 0
9, 20040, Note_on_c, 5, 66, 90
9, 20069, Note_on_c, 5, 66, 0
9, 20220, Note_on_c, 5, 69, 90
9, 20249, Note_on_c, 5, 69, 0
9, 20250, Note_on_c, 5, 71, 90
9, 20279, Note_on_c, 5, 71, 0
9, 20280, Note_on_c, 5, 73, 90
9, 20294, Note_on_c, 5, 73, 0
9, 20295, Note_on_c, 5, 71, 90
9, 20309, Note_on_c, 5, 71, 0
9, 20310, Note_on_c, 5, 69, 90
9, 20324, Note_on_c, 5, 69, 0
9, 20325, Note_on_c, 5, 71, 90
9, 20339, Note_on_c, 5, 71, 0
9, 20340, Note_on_c, 5, 73, 90
9, 20369, Note_on_c, 5, 73, 0
9, 20400, Note_on_c, 5, 74, 90
9, 20429, Note_on_c, 5, 74, 0
9, 20460, Note_on_c, 5, 69, 90
9, 20549, Note_on_c, 5, 69, 0
9, 20550, Note_on_c, 5, 68, 90
9, 20579, Note_on_c, 5, 68, 0
9, 20580, Note_on_c, 5, 69, 90
9, 20639, Note_on_c, 5, 69, 0
9, 20640, Note_on_c, 5, 62, 90
9, 20699, Note_on_c, 5, 62, 0
9, 20700, Note_on_c, 5, 64, 90
9, 20759, Note_on_c, 5, 64, 0
9, 20760, Note_on_c, 5, 69, 90
9, 20819, Note_on_c, 5, 69, 0
9, 20820, Note_on_c, 5, 63, 90
9, 20879, Note_on_c, 5, 63, 0
9, 20880, Note_on_c, 5, 64, 90
9, 20909, Note_on_c, 5, 64, 0
9, 20940, Note_on_c, 5, 64, 90
9, 20969, Note_on_c, 5, 64, 0
9, 21000, Note_on_c, 5, 62, 90
9, 21029, Note_on_c, 5, 62, 0
9, 21060, Note_on_c, 5, 62, 90
9, 21119, Note_on_c, 5, 62, 0
9, 21120, Note_on_c, 5, 71, 90
9, 21179, Note_on_c, 5, 71, 0
9, 21180, Note_on_c, 5, 73, 90
9, 21239, Note_on_c, 5, 73, 0
9, 21240, Note_on_c, 5, 74, 90
9, 21299, Note_on_c, 5, 74, 0
9, 21300, Note_on_c, 5, 66, 90
9, 21359, Note_on_c, 5, 66, 0
9, 21360, Note_on_c, 5, 71, 90
9, 21419, Note_on_c, 5, 71, 0
9, 21420, Note_on_c, 5, 64, 90
9, 21479, Note_on_c, 5, 64, 0
9, 21480, Note_on_c, 5, 69, 90
9, 21539, Note_on_c, 5, 69, 0
9, 21540, Note_on_c, 5, 73, 90
9, 21599, Note_on_c, 5, 73, 0
9, 21600, Note_on_c, 5, 72, 90
9, 21659, Note_on_c, 5, 72, 0
9, 21660, Note_on_c, 5, 72, 90
9, 21719, Note_on_c, 5, 72, 0
9, 21720, Note_on_c, 5, 72, 90
9, 21779, Note_on_c, 5, 72, 0
9, 21780, Note_on_c, 5, 66, 90
9, 21839, Note_on_c, 5, 66, 0
9, 21840, Note_on_c, 5, 66, 90
9, 21899, Note_on_c, 5, 66, 0
9, 21900, Note_on_c, 5, 66, 90
9, 21959, Note_on_c, 5, 66, 0
9, 21960, Note_on_c, 5, 64, 90
9, 22019, Note_on_c, 5, 64, 0
9, 22020, Note_on_c, 5, 76, 90
9, 22079, Note_on_c, 5, 76, 0
9, 22080, Note_on_c, 5, 75, 90
9, 22139, Note_on_c, 5, 75, 0
9, 22140, Note_on_c, 5, 76, 90
9, 22199, Note_on_c, 5, 76, 0
9, 22200, Note_on_c, 5, 71, 90
9, 22259, Note_on_c, 5, 71, 0
9, 22260, Note_on_c, 5, 71, 90
9, 22319, Note_on_c, 5, 71, 0
9, 22320, Note_on_c, 5, 76, 90
9, 22349, Note_on_c, 5, 76, 0
9, 22350, Note_on_c, 5, 79, 90
9, 22364, Note_on_c, 5, 79, 0
9, 22365, Note_on_c, 5, 78, 90
9, 22379, Note_on_c, 5, 78, 0
9, 22380, Note_on_c, 5, 76, 90
9, 22409, Note_on_c, 5, 76, 0
9, 22410, Note_on_c, 5, 79, 90
9, 22424, Note_on_c, 5, 79, 0
9, 22425, Note_on_c, 5, 78, 90
9, 22439, Note_on_c, 5, 78, 0
9, 22440, Note_on_c, 5, 76, 90
9, 22529, Note_on_c, 5, 76, 0
9, 22530, Note_on_c, 5, 73, 90
9, 22544, Note_on_c, 5, 73, 0
9, 22545, Note_on_c, 5, 74, 90
9, 22559, Note_on_c, 5, 74, 0
9, 22560, Note_on_c, 5, 76, 90
9, 22589, Note_on_c, 5, 76, 0
9, 22590, Note_on_c, 5, 73, 90
9, 22604, Note_on_c, 5, 73, 0
9, 22605, Note_on_c, 5, 74, 90
9, 22619, Note_on_c, 5, 74, 0
9, 22620, Note_on_c, 5, 76, 90
9, 22709, Note_on_c, 5, 76, 0
9, 22710, Note_on_c, 5, 78, 90
9, 22724, Note_on_c, 5, 78, 0
9, 22725, Note_on_c, 5, 76, 90
9, 22739, Note_on_c, 5, 76, 0
9, 22740, Note_on_c, 5, 74, 90
9, 22769, Note_on_c, 5, 74, 0
9, 22800, Note_on_c, 5, 73, 90
9, 22829, Note_on_c, 5, 73, 0
9, 22860, Note_on_c, 5, 74, 90
9, 22889, Note_on_c, 5, 74, 0
9, 22890, Note_on_c, 5, 78, 90
9, 22904, Note_on_c, 5, 78, 0
9, 22905, Note_on_c, 5, 76, 90
9, 22919, Note_on_c, 5, 76, 0
9, 22920, Note_on_c, 5, 74, 90
9, 22949, Note_on_c, 5, 74, 0
9, 22950, Note_on_c, 5, 78, 90
9, 22964, Note_on_c, 5, 78, 0
9, 22965, Note_on_c, 5, 76, 90
9, 22979, Note_on_c, 5, 76, 0
9, 22980, Note_on_c, 5, 74, 90
9, 23099, Note_on_c, 5, 74, 0
9, 23100, Note_on_c, 5, 71, 90
9, 23129, Note_on_c, 5, 71, 0
9, 23160, Note_on_c, 5, 74, 90
9, 23279, Note_on_c, 5, 74, 0
9, 23280, Note_on_c, 5, 68, 90
9, 23309, Note_on_c, 5, 68, 0
9, 23340, Note_on_c, 5, 71, 90
9, 23369, Note_on_c, 5, 71, 0
9, 23400, Note_on_c, 5, 73, 90
9, 23429, Note_on_c, 5, 73, 0
9, 23460, Note_on_c, 5, 69, 90
9, 23489, Note_on_c, 5, 69, 0
9, 23520, Note_on_c, 5, 72, 90
9, 23639, Note_on_c, 5, 72, 0
9, 23640, Note_on_c, 5, 66, 90
9, 23669, Note_on_c, 5, 66, 0
9, 23700, Note_on_c, 5, 69, 90
9, 23729, Note_on_c, 5, 69, 0
9, 23760, Note_on_c, 5, 71, 90
9, 23789, Note_on_c, 5, 71, 0
9, 23820, Note_on_c, 5, 71, 90
9, 23849, Note_on_c, 5, 71, 0
9, 23880, Note_on_c, 5, 69, 90
9, 23909, Note_on_c, 5, 69, 0
9, 23940, Note_on_c, 5, 71, 90
9, 23969, Note_on_c, 5, 71, 0
9, 24120, Note_on_c, 5, 76, 90
9, 24149, Note_on_c, 5, 76, 0
9, 24300, Note_on_c, 5, 74, 90
9, 24329, Note_on_c, 5, 74, 0
9, 24360, Note_on_c, 5, 69, 90
9, 24389, Note_on_c, 5, 69, 0
9, 24420, Note_on_c, 5, 64, 90
9, 24449, Note_on_c, 5, 64, 0
9, 24480, Note_on_c, 5, 66, 90
9, 24660, Note_on_c, 5, 66, 0
9, 27540, Note_on_c, 5, 66, 90
9, 27570, Note_on_c, 5, 66, 0
9, 27600, Note_on_c, 5, 69, 90
9, 27630, Note_on_c, 5, 69, 0
9, 27720, Note_on_c, 5, 64, 90
9, 27750, Note_on_c, 5, 64, 0
9, 27780, Note_on_c, 5, 69, 90
9, 27810, Note_on_c, 5, 69, 0
9, 27900, Note_on_c, 5, 66, 90
9, 27930, Note_on_c, 5, 66, 0
9, 27960, Note_on_c, 5, 62, 90
9, 27990, Note_on_c, 5, 62, 0
9, 28080, Note_on_c, 5, 69, 90
9, 28110, Note_on_c, 5, 69, 0
9, 28140, Note_on_c, 5, 73, 90
9, 28170, Note_on_c, 5, 73, 0
9, 28260, Note_on_c, 5, 66, 90
9, 28290, Note_on_c, 5, 66, 0
9, 28320, Note_on_c, 5, 69, 90
9, 28350, Note_on_c, 5, 69, 0
9, 28440, Note_on_c, 5, 62, 90
9, 28470, Note_on_c, 5, 62, 0
9, 28500, Note_on_c, 5, 67, 90
9, 28530, Note_on_c, 5, 67, 0
9, 28620, Note_on_c, 5, 73, 90
9, 28650, Note_on_c, 5, 73, 0
9, 28680, Note_on_c, 5, 71, 90
9, 28710, Note_on_c, 5, 71, 0
9, 28800, Note_on_c, 5, 71, 90
9, 28830, Note_on_c, 5, 71, 0
9, 28860, Note_on_c, 5, 69, 90
9, 28890, Note_on_c, 5, 69, 0
9, 28980, Note_on_c, 5, 69, 90
9, 29010, Note_on_c, 5, 69, 0
9, 29040, Note_on_c, 5, 66, 90
9, 29070, Note_on_c, 5, 66, 0
9, 29160, Note_on_c, 5, 64, 90
9, 29190, Note_on_c, 5, 64, 0
9, 29220, Note_on_c, 5, 66, 90
9, 29250, Note_on_c, 5, 66, 0
9, 29340, Note_on_c, 5, 62, 90
9, 29370, Note_on_c, 5, 62, 0
9, 29400, Note_on_c, 5, 67, 90
9, 29430, Note_on_c, 5, 67, 0
9, 29520, Note_on_c, 5, 70, 90
9, 29550, Note_on_c, 5, 70, 0
9, 29580, Note_on_c, 5, 74, 90
9, 29610, Note_on_c, 5, 74, 0
9, 29700, Note_on_c, 5, 71, 90
9, 29730, Note_on_c, 5, 71, 0
9, 29760, Note_on_c, 5, 66, 90
9, 29790, Note_on_c, 5, 66, 0
9, 29880, Note_on_c, 5, 71, 90
9, 29910, Note_on_c, 5, 71, 0
9, 29940, Note_on_c, 5, 73, 90
9, 29970, Note_on_c, 5, 73, 0
9, 30060, Note_on_c, 5, 71, 90
9, 30090, Note_on_c, 5, 71, 0
9, 30120, Note_on_c, 5, 73, 90
9, 30150, Note_on_c, 5, 73, 0
9, 30240, Note_on_c, 5, 67, 90
9, 30270, Note_on_c, 5, 67, 0
9, 30300, Note_on_c, 5, 71, 90
9, 30330, Note_on_c, 5, 71, 0
9, 30420, Note_on_c, 5, 71, 90
9, 30450, Note_on_c, 5, 71, 0
9, 30480, Note_on_c, 5, 71, 90
9, 30510, Note_on_c, 5, 71, 0
9, 30540, Note_on_c, 5, 71, 90
9, 30570, Note_on_c, 5, 71, 0
9, 30600, Note_on_c, 5, 71, 90
9, 30659, Note_on_c, 5, 71, 0
9, 30660, Note_on_c, 5, 70, 90
9, 30689, Note_on_c, 5, 70, 0
9, 30690, Note_on_c, 5, 68, 90
9, 30719, Note_on_c, 5, 68, 0
9, 30720, Note_on_c, 5, 70, 90
9, 30779, Note_on_c, 5, 70, 0
9, 31770, Note_on_c, 5, 62, 90
9, 31799, Note_on_c, 5, 62, 0
9, 31800, Note_on_c, 5, 64, 90
9, 31829, Note_on_c, 5, 64, 0
9, 31830, Note_on_c, 5, 66, 90
9, 31859, Note_on_c, 5, 66, 0
9, 31860, Note_on_c, 5, 67, 90
9, 31889, Note_on_c, 5, 67, 0
9, 31920, Note_on_c, 5, 76, 90
9, 31949, Note_on_c, 5, 76, 0
9, 31980, Note_on_c, 5, 73, 90
9, 32009, Note_on_c, 5, 73, 0
9, 32040, Note_on_c, 5, 73, 90
9, 32055, Note_on_c, 5, 73, 0
9, 32055, Note_on_c, 5, 74, 90
9, 32070, Note_on_c, 5, 74, 0
9, 32070, Note_on_c, 5, 73, 90
9, 32080, Note_on_c, 5, 73, 0
9, 32080, Note_on_c, 5, 74, 90
9, 32090, Note_on_c, 5, 74, 0
9, 32090, Note_on_c, 5, 73, 90
9, 32100, Note_on_c, 5, 73, 0
9, 32100, Note_on_c, 5, 71, 90
9, 32159, Note_on_c, 5, 71, 0
9, 32460, Note_on_c, 5, 69, 90
9, 32489, Note_on_c, 5, 69, 0
9, 32490, Note_on_c, 5, 67, 90
9, 32519, Note_on_c, 5, 67, 0
9, 32520, Note_on_c, 5, 69, 90
9, 32549, Note_on_c, 5, 69, 0
9, 32550, Note_on_c, 5, 66, 90
9, 32579, Note_on_c, 5, 66, 0
9, 32580, Note_on_c, 5, 68, 90
9, 32639, Note_on_c, 5, 68, 0
9, 32640, Note_on_c, 5, 64, 90
9, 32699, Note_on_c, 5, 64, 0
9, 32700, Note_on_c, 5, 76, 90
9, 32819, Note_on_c, 5, 76, 0
9, 32820, Note_on_c, 5, 71, 90
9, 32849, Note_on_c, 5, 71, 0
9, 32850, Note_on_c, 5, 70, 90
9, 32879, Note_on_c, 5, 70, 0
9, 32880, Note_on_c, 5, 71, 90
9, 32909, Note_on_c, 5, 71, 0
9, 32910, Note_on_c, 5, 73, 90
9, 32939, Note_on_c, 5, 73, 0
9, 32940, Note_on_c, 5, 70, 90
9, 32999, Note_on_c, 5, 70, 0
9, 33000, Note_on_c, 5, 66, 90
9, 33059, Note_on_c, 5, 66, 0
9, 33060, Note_on_c, 5, 78, 90
9, 33179, Note_on_c, 5, 78, 0
9, 33180, Note_on_c, 5, 73, 90
9, 33209, Note_on_c, 5, 73, 0
9, 33210, Note_on_c, 5, 71, 90
9, 33239, Note_on_c, 5, 71, 0
9, 33240, Note_on_c, 5, 70, 90
9, 33269, Note_on_c, 5, 70, 0
9, 33270, Note_on_c, 5, 73, 90
9, 33299, Note_on_c, 5, 73, 0
9, 33300, Note_on_c, 5, 71, 90
9, 33359, Note_on_c, 5, 71, 0
9, 33360, Note_on_c, 5, 66, 90
9, 33419, Note_on_c, 5, 66, 0
9, 33420, Note_on_c, 5, 71, 90
9, 33509, Note_on_c, 5, 71, 0
9, 33510, Note_on_c, 5, 69, 90
9, 33539, Note_on_c, 5, 69, 0
9, 33540, Note_on_c, 5, 71, 90
9, 33600, Note_on_c, 5, 71, 0
9, 33600, Note_on_c, 5, 71, 90
9, 33719, Note_on_c, 5, 71, 0
9, 33720, Note_on_c, 5, 69, 90
9, 33779, Note_on_c, 5, 69, 0
9, 33780, Note_on_c, 5, 68, 90
9, 33839, Note_on_c, 5, 68, 0
9, 33840, Note_on_c, 5, 69, 90
9, 33899, Note_on_c, 5, 69, 0
9, 33900, Note_on_c, 5, 64, 90
9, 33959, Note_on_c, 5, 64, 0
9, 33960, Note_on_c, 5, 64, 90
9, 34019, Note_on_c, 5, 64, 0
9, 34020, Note_on_c, 5, 64, 90
9, 34079, Note_on_c, 5, 64, 0
9, 34080, Note_on_c, 5, 73, 90
9, 34109, Note_on_c, 5, 73, 0
9, 34110, Note_on_c, 5, 74, 90
9, 34139, Note_on_c, 5, 74, 0
9, 34140, Note_on_c, 5, 76, 90
9, 34259, Note_on_c, 5, 76, 0
9, 34260, Note_on_c, 5, 73, 90
9, 34319, Note_on_c, 5, 73, 0
9, 34320, Note_on_c, 5, 69, 90
9, 34379, Note_on_c, 5, 69, 0
9, 34380, Note_on_c, 5, 74, 90
9, 34439, Note_on_c, 5, 74, 0
9, 34440, Note_on_c, 5, 74, 90
9, 34499, Note_on_c, 5, 74, 0
9, 34500, Note_on_c, 5, 73, 90
9, 34559, Note_on_c, 5, 73, 0
9, 34560, Note_on_c, 5, 74, 90
9, 34769, Note_on_c, 5, 74, 0
9, 34770, Note_on_c, 5, 66, 90
9, 34799, Note_on_c, 5, 66, 0
9, 34800, Note_on_c, 5, 68, 90
9, 34829, Note_on_c, 5, 68, 0
9, 34830, Note_on_c, 5, 69, 90
9, 34859, Note_on_c, 5, 69, 0
9, 34860, Note_on_c, 5, 71, 90
9, 34979, Note_on_c, 5, 71, 0
9, 34980, Note_on_c, 5, 64, 90
9, 35039, Note_on_c, 5, 64, 0
9, 35040, Note_on_c, 5, 67, 90
9, 35099, Note_on_c, 5, 67, 0
9, 35100, Note_on_c, 5, 66, 90
9, 35159, Note_on_c, 5, 66, 0
9, 35160, Note_on_c, 5, 66, 90
9, 35189, Note_on_c, 5, 66, 0
9, 35190, Note_on_c, 5, 64, 90
9, 35219, Note_on_c, 5, 64, 0
9, 35220, Note_on_c, 5, 66, 90
9, 35339, Note_on_c, 5, 66, 0
9, 35340, Note_on_c, 5, 65, 90
9, 35399, Note_on_c, 5, 65, 0
9, 35400, Note_on_c, 5, 66, 90
9, 35459, Note_on_c, 5, 66, 0
9, 35460, Note_on_c, 5, 68, 90
9, 35519, Note_on_c, 5, 68, 0
9, 35520, Note_on_c, 5, 66, 90
9, 35579, Note_on_c, 5, 66, 0
9, 35580, Note_on_c, 5, 74, 90
9, 35639, Note_on_c, 5, 74, 0
9, 35640, Note_on_c, 5, 68, 90
9, 35759, Note_on_c, 5, 68, 0
9, 35760, Note_on_c, 5, 68, 90
9, 35819, Note_on_c, 5, 68, 0
9, 35820, Note_on_c, 5, 69, 90
9, 35879, Note_on_c, 5, 69, 0
9, 35880, Note_on_c, 5, 73, 90
9, 35909, Note_on_c, 5, 73, 0
9, 35910, Note_on_c, 5, 71, 90
9, 35939, Note_on_c, 5, 71, 0
9, 35940, Note_on_c, 5, 69, 90
9, 35969, Note_on_c, 5, 69, 0
9, 35970, Note_on_c, 5, 68, 90
9, 35999, Note_on_c, 5, 68, 0
9, 36000, Note_on_c, 5, 66, 90
9, 36179, Note_on_c, 5, 66, 0
9, 36870, Note_on_c, 5, 66, 90
9, 36884, Note_on_c, 5, 66, 0
9, 36885, Note_on_c, 5, 67, 90
9, 36899, Note_on_c, 5, 67, 0
9, 36900, Note_on_c, 5, 69, 90
9, 36914, Note_on_c, 5, 69, 0
9, 36915, Note_on_c, 5, 67, 90
9, 36929, Note_on_c, 5, 67, 0
9, 36930, Note_on_c, 5, 69, 90
9, 36944, Note_on_c, 5, 69, 0
9, 36945, Note_on_c, 5, 67, 90
9, 36959, Note_on_c, 5, 67, 0
9, 36960, Note_on_c, 5, 69, 90
9, 36974, Note_on_c, 5, 69, 0
9, 36975, Note_on_c, 5, 67, 90
9, 36989, Note_on_c, 5, 67, 0
9, 36990, Note_on_c, 5, 66, 90
9, 37004, Note_on_c, 5, 66, 0
9, 37005, Note_on_c, 5, 67, 90
9, 37019, Note_on_c, 5, 67, 0
9, 37020, Note_on_c, 5, 69, 90
9, 37079, Note_on_c, 5, 69, 0
9, 37215, Note_on_c, 5, 74, 90
9, 37229, Note_on_c, 5, 74, 0
9, 37230, Note_on_c, 5, 73, 90
9, 37244, Note_on_c, 5, 73, 0
9, 37245, Note_on_c, 5, 71, 90
9, 37259, Note_on_c, 5, 71, 0
9, 37260, Note_on_c, 5, 69, 90
9, 37274, Note_on_c, 5, 69, 0
9, 37275, Note_on_c, 5, 74, 90
9, 37289, Note_on_c, 5, 74, 0
9, 37290, Note_on_c, 5, 73, 90
9, 37304, Note_on_c, 5, 73, 0
9, 37305, Note_on_c, 5, 71, 90
9, 37319, Note_on_c, 5, 71, 0
9, 37320, Note_on_c, 5, 69, 90
9, 37334, Note_on_c, 5, 69, 0
9, 37335, Note_on_c, 5, 67, 90
9, 37349, Note_on_c, 5, 67, 0
9, 37350, Note_on_c, 5, 66, 90
9, 37364, Note_on_c, 5, 66, 0
9, 37365, Note_on_c, 5, 64, 90
9, 37379, Note_on_c, 5, 64, 0
9, 37380, Note_on_c, 5, 62, 100
9, 37800, Note_on_c, 5, 62, 0
9, 37800, Note_on_c, 5, 74, 90
9, 37829, Note_on_c, 5, 74, 0
9, 37860, Note_on_c, 5, 74, 90
9, 37889, Note_on_c, 5, 74, 0
9, 37920, Note_on_c, 5, 74, 90
9, 37979, Note_on_c, 5, 74, 0
9, 37980, Note_on_c, 5, 73, 90
9, 38009, Note_on_c, 5, 73, 0
9, 38010, Note_on_c, 5, 71, 90
9, 38039, Note_on_c, 5, 71, 0
9, 38040, Note_on_c, 5, 73, 90
9, 38099, Note_on_c, 5, 73, 0
9, 38760, Note_on_c, 5, 76, 90
9, 38819, Note_on_c, 5, 76, 0
9, 38820, Note_on_c, 5, 69, 90
9, 38849, Note_on_c, 5, 69, 0
9, 38850, Note_on_c, 5, 71, 90
9, 38879, Note_on_c, 5, 71, 0
9, 38880, Note_on_c, 5, 73, 90
9, 38939, Note_on_c, 5, 73, 0
9, 38940, Note_on_c, 5, 74, 90
9, 38999, Note_on_c, 5, 74, 0
9, 39000, Note_on_c, 5, 73, 90
9, 39119, Note_on_c, 5, 73, 0
9, 39120, Note_on_c, 5, 73, 90
9, 39179, Note_on_c, 5, 73, 0
9, 39180, Note_on_c, 5, 72, 90
9, 39239, Note_on_c, 5, 72, 0
9, 39240, Note_on_c, 5, 72, 90
9, 39299, Note_on_c, 5, 72, 0
9, 39300, Note_on_c, 5, 72, 90
9, 39359, Note_on_c, 5, 72, 0
9, 39360, Note_on_c, 5, 66, 90
9, 39419, Note_on_c, 5, 66, 0
9, 39420, Note_on_c, 5, 66, 90
9, 39479, Note_on_c, 5, 66, 0
9, 39480, Note_on_c, 5, 66, 90
9, 39539, Note_on_c, 5, 66, 0
9, 39540, Note_on_c, 5, 64, 90
9, 39599, Note_on_c, 5, 64, 0
9, 39600, Note_on_c, 5, 76, 90
9, 39659, Note_on_c, 5, 76, 0
9, 39660, Note_on_c, 5, 75, 90
9, 39719, Note_on_c, 5, 75, 0
9, 39720, Note_on_c, 5, 76, 90
9, 39779, Note_on_c, 5, 76, 0
9, 39780, Note_on_c, 5, 71, 90
9, 39839, Note_on_c, 5, 71, 0
9, 39840, Note_on_c, 5, 71, 90
9, 39899, Note_on_c, 5, 71, 0
9, 39900, Note_on_c, 5, 76, 90
9, 39929, Note_on_c, 5, 76, 0
9, 39930, Note_on_c, 5, 79, 90
9, 39944, Note_on_c, 5, 79, 0
9, 39945, Note_on_c, 5, 78, 90
9, 39959, Note_on_c, 5, 78, 0
9, 39960, Note_on_c, 5, 76, 90
9, 39989, Note_on_c, 5, 76, 0
9, 39990, Note_on_c, 5, 79, 90
9, 40004, Note_on_c, 5, 79, 0
9, 40005, Note_on_c, 5, 78, 90
9, 40019, Note_on_c, 5, 78, 0
9, 40020, Note_on_c, 5, 76, 90
9, 40109, Note_on_c, 5, 76, 0
9, 40110, Note_on_c, 5, 73, 90
9, 40124, Note_on_c, 5, 73, 0
9, 40125, Note_on_c, 5, 74, 90
9, 40139, Note_on_c, 5, 74, 0
9, 40140, Note_on_c, 5, 76, 90
9, 40169, Note_on_c, 5, 76, 0
9, 40170, Note_on_c, 5, 73, 90
9, 40184, Note_on_c, 5, 73, 0
9, 40185, Note_on_c, 5, 74, 90
9, 40199, Note_on_c, 5, 74, 0
9, 40200, Note_on_c, 5, 76, 90
9, 40289, Note_on_c, 5, 76, 0
9, 40290, Note_on_c, 5, 78, 90
9, 40304, Note_on_c, 5, 78, 0
9, 40305, Note_on_c, 5, 76, 90
9, 40319, Note_on_c, 5, 76, 0
9, 40320, Note_on_c, 5, 74, 90
9, 40349, Note_on_c, 5, 74, 0
9, 40380, Note_on_c, 5, 73, 90
9, 40409, Note_on_c, 5, 73, 0
9, 40440, Note_on_c, 5, 74, 90
9, 40469, Note_on_c, 5, 74, 0
9, 40470, Note_on_c, 5, 78, 90
9, 40484, Note_on_c, 5, 78, 0
9, 40485, Note_on_c, 5, 76, 90
9, 40499, Note_on_c, 5, 76, 0
9, 40500, Note_on_c, 5, 74, 90
9, 40529, Note_on_c, 5, 74, 0
9, 40530, Note_on_c, 5, 78, 90
9, 40544, Note_on_c, 5, 78, 0
9, 40545, Note_on_c, 5, 76, 90
9, 40559, Note_on_c, 5, 76, 0
9, 40560, Note_on_c, 5, 74, 90
9, 40649, Note_on_c, 5, 74, 0
9, 40680, Note_on_c, 5, 71, 90
9, 40709, Note_on_c, 5, 71, 0
9, 40740, Note_on_c, 5, 74, 90
9, 40859, Note_on_c, 5, 74, 0
9, 40860, Note_on_c, 5, 68, 90
9, 40889, Note_on_c, 5, 68, 0
9, 40920, Note_on_c, 5, 71, 90
9, 40949, Note_on_c, 5, 71, 0
9, 40980, Note_on_c, 5, 73, 90
9, 41009, Note_on_c, 5, 73, 0
9, 41040, Note_on_c, 5, 69, 90
9, 41069, Note_on_c, 5, 69, 0
9, 41100, Note_on_c, 5, 72, 90
9, 41219, Note_on_c, 5, 72, 0
9, 41220, Note_on_c, 5, 66, 90
9, 41249, Note_on_c, 5, 66, 0
9, 41280, Note_on_c, 5, 69, 90
9, 41309, Note_on_c, 5, 69, 0
9, 41340, Note_on_c, 5, 71, 90
9, 41369, Note_on_c, 5, 71, 0
9, 41400, Note_on_c, 5, 69, 90
9, 41429, Note_on_c, 5, 69, 0
9, 41460, Note_on_c, 5, 69, 90
9, 41489, Note_on_c, 5, 69, 0
9, 41520, Note_on_c, 5, 71, 90
9, 41549, Note_on_c, 5, 71, 0
9, 41700, Note_on_c, 5, 76, 90
9, 41729, Note_on_c, 5, 76, 0
9, 41880, Note_on_c, 5, 74, 90
9, 41909, Note_on_c, 5, 74, 0
9, 41940, Note_on_c, 5, 69, 90
9, 41969, Note_on_c, 5, 69, 0
9, 42000, Note_on_c, 5, 64, 90
9, 42029, Note_on_c, 5, 64, 0
9, 42060, Note_on_c, 5, 66, 90
9, 42089, Note_on_c, 5, 66, 0
9, 42630, Note_on_c, 5, 66, 90
9, 42644, Note_on_c, 5, 66, 0
9, 42645, Note_on_c, 5, 67, 90
9, 42659, Note_on_c, 5, 67, 0
9, 42660, Note_on_c, 5, 69, 90
9, 42674, Note_on_c, 5, 69, 0
9, 42675, Note_on_c, 5, 67, 90
9, 42689, Note_on_c, 5, 67, 0
9, 42690, Note_on_c, 5, 69, 90
9, 42704, Note_on_c, 5, 69, 0
9, 42705, Note_on_c, 5, 67, 90
9, 42719, Note_on_c, 5, 67, 0
9, 42720, Note_on_c, 5, 69, 90
9, 42734, Note_on_c, 5, 69, 0
9, 42735, Note_on_c, 5, 67, 90
9, 42749, Note_on_c, 5, 67, 0
9, 42750, Note_on_c, 5, 66, 90
9, 42764, Note_on_c, 5, 66, 0
9, 42765, Note_on_c, 5, 67, 90
9, 42779, Note_on_c, 5, 67, 0
9, 42780, Note_on_c, 5, 69, 90
9, 42839, Note_on_c, 5, 69, 0
9, 42960, Note_on_c, 5, 69, 90
9, 43019, Note_on_c, 5, 69, 0
9, 43140, Note_on_c, 5, 66, 90
9, 43199, Note_on_c, 5, 66, 0
9, 43335, Note_on_c, 5, 74, 90
9, 43349, Note_on_c, 5, 74, 0
9, 43350, Note_on_c, 5, 73, 90
9, 43364, Note_on_c, 5, 73, 0
9, 43365, Note_on_c, 5, 71, 90
9, 43379, Note_on_c, 5, 71, 0
9, 43380, Note_on_c, 5, 69, 90
9, 43394, Note_on_c, 5, 69, 0
9, 43395, Note_on_c, 5, 74, 90
9, 43409, Note_on_c, 5, 74, 0
9, 43410, Note_on_c, 5, 73, 90
9, 43424, Note_on_c, 5, 73, 0
9, 43425, Note_on_c, 5, 71, 90
9, 43439, Note_on_c, 5, 71, 0
9, 43440, Note_on_c, 5, 69, 90
9, 43454, Note_on_c, 5, 69, 0
9, 43455, Note_on_c, 5, 67, 90
9, 43469, Note_on_c, 5, 67, 0
9, 43470, Note_on_c, 5, 66, 90
9, 43484, Note_on_c, 5, 66, 0
9, 43485, Note_on_c, 5, 64, 90
9, 43499, Note_on_c, 5, 64, 0
9, 43500, Note_on_c, 5, 62, 90
9, 43920, Note_on_c, 5, 62, 0
9, 43920, Note_on_c, 5, 74, 90
9, 43950, Note_on_c, 5, 74, 0
9, 43980, Note_on_c, 5, 74, 90
9, 44010, Note_on_c, 5, 74, 0
9, 44040, Note_on_c, 5, 74, 90
9, 44100, Note_on_c, 5, 74, 0
9, 44100, Note_on_c, 5, 73, 90
9, 44130, Note_on_c, 5, 73, 0
9, 44130, Note_on_c, 5, 71, 90
9, 44160, Note_on_c, 5, 71, 0
9, 44160, Note_on_c, 5, 73, 90
9, 44220, Note_on_c, 5, 73, 0
9, 44880, Note_on_c, 5, 76, 90
9, 44939, Note_on_c, 5, 76, 0
9, 44940, Note_on_c, 5, 69, 90
9, 44969, Note_on_c, 5, 69, 0
9, 44970, Note_on_c, 5, 71, 90
9, 44999, Note_on_c, 5, 71, 0
9, 45000, Note_on_c, 5, 73, 90
9, 45059, Note_on_c, 5, 73, 0
9, 45060, Note_on_c, 5, 74, 90
9, 45119, Note_on_c, 5, 74, 0
9, 45120, Note_on_c, 5, 73, 90
9, 45239, Note_on_c, 5, 73, 0
9, 45720, Note_on_c, 5, 71, 90
9, 45749, Note_on_c, 5, 71, 0
9, 45750, Note_on_c, 5, 73, 90
9, 45779, Note_on_c, 5, 73, 0
9, 45780, Note_on_c, 5, 74, 90
9, 45794, Note_on_c, 5, 74, 0
9, 45795, Note_on_c, 5, 73, 90
9, 45809, Note_on_c, 5, 73, 0
9, 45810, Note_on_c, 5, 71, 90
9, 45824, Note_on_c, 5, 71, 0
9, 45825, Note_on_c, 5, 73, 90
9, 45839, Note_on_c, 5, 73, 0
9, 45840, Note_on_c, 5, 74, 90
9, 45869, Note_on_c, 5, 74, 0
9, 45900, Note_on_c, 5, 71, 90
9, 45929, Note_on_c, 5, 71, 0
9, 45960, Note_on_c, 5, 69, 90
9, 45989, Note_on_c, 5, 69, 0
9, 46020, Note_on_c, 5, 69, 90
9, 46079, Note_on_c, 5, 69, 0
9, 46080, Note_on_c, 5, 69, 90
9, 46139, Note_on_c, 5, 69, 0
9, 46140, Note_on_c, 5, 74, 90
9, 46199, Note_on_c, 5, 74, 0
9, 46200, Note_on_c, 5, 76, 90
9, 46259, Note_on_c, 5, 76, 0
9, 46260, Note_on_c, 5, 64, 90
9, 46319, Note_on_c, 5, 64, 0
9, 46320, Note_on_c, 5, 68, 90
9, 46379, Note_on_c, 5, 68, 0
9, 46380, Note_on_c, 5, 69, 90
9, 46439, Note_on_c, 5, 69, 0
9, 46440, Note_on_c, 5, 64, 90
9, 46469, Note_on_c, 5, 64, 0
9, 46470, Note_on_c, 5, 66, 90
9, 46499, Note_on_c, 5, 66, 0
9, 46500, Note_on_c, 5, 67, 90
9, 46514, Note_on_c, 5, 67, 0
9, 46515, Note_on_c, 5, 66, 90
9, 46529, Note_on_c, 5, 66, 0
9, 46530, Note_on_c, 5, 64, 90
9, 46544, Note_on_c, 5, 64, 0
9, 46545, Note_on_c, 5, 66, 90
9, 46559, Note_on_c, 5, 66, 0
9, 46560, Note_on_c, 5, 67, 90
9, 46619, Note_on_c, 5, 67, 0
9, 46620, Note_on_c, 5, 64, 90
9, 46679, Note_on_c, 5, 64, 0
9, 46680, Note_on_c, 5, 62, 90
9, 46769, Note_on_c, 5, 62, 0
9, 46770, Note_on_c, 5, 61, 90
9, 46799, Note_on_c, 5, 61, 0
9, 46800, Note_on_c, 5, 62, 90
9, 46829, Note_on_c, 5, 62, 0
9, 46830, Note_on_c, 5, 64, 90
9, 46859, Note_on_c, 5, 64, 0
9, 46860, Note_on_c, 5, 66, 90
9, 46874, Note_on_c, 5, 66, 0
9, 46875, Note_on_c, 5, 64, 90
9, 46889, Note_on_c, 5, 64, 0
9, 46890, Note_on_c, 5, 62, 90
9, 46904, Note_on_c, 5, 62, 0
9, 46905, Note_on_c, 5, 64, 90
9, 46919, Note_on_c, 5, 64, 0
9, 46920, Note_on_c, 5, 66, 90
9, 46949, Note_on_c, 5, 66, 0
9, 46950, Note_on_c, 5, 64, 90
9, 46979, Note_on_c, 5, 64, 0
9, 46980, Note_on_c, 5, 66, 90
9, 47009, Note_on_c, 5, 66, 0
9, 47010, Note_on_c, 5, 69, 90
9, 47039, Note_on_c, 5, 69, 0
9, 47040, Note_on_c, 5, 69, 90
9, 47054, Note_on_c, 5, 69, 0
9, 47055, Note_on_c, 5, 67, 90
9, 47069, Note_on_c, 5, 67, 0
9, 47070, Note_on_c, 5, 66, 90
9, 47084, Note_on_c, 5, 66, 0
9, 47085, Note_on_c, 5, 67, 90
9, 47099, Note_on_c, 5, 67, 0
9, 47100, Note_on_c, 5, 69, 90
9, 47159, Note_on_c, 5, 69, 0
9, 47160, Note_on_c, 5, 62, 90
9, 47219, Note_on_c, 5, 62, 0
9, 47340, Note_on_c, 5, 64, 90
9, 47369, Note_on_c, 5, 64, 0
9, 47370, Note_on_c, 5, 67, 90
9, 47399, Note_on_c, 5, 67, 0
9, 47400, Note_on_c, 5, 67, 90
9, 47414, Note_on_c, 5, 67, 0
9, 47415, Note_on_c, 5, 66, 90
9, 47429, Note_on_c, 5, 66, 0
9, 47430, Note_on_c, 5, 64, 90
9, 47444, Note_on_c, 5, 64, 0
9, 47445, Note_on_c, 5, 66, 90
9, 47459, Note_on_c, 5, 66, 0
9, 47460, Note_on_c, 5, 67, 90
9, 47489, Note_on_c, 5, 67, 0
9, 47490, Note_on_c, 5, 71, 90
9, 47519, Note_on_c, 5, 71, 0
9, 47520, Note_on_c, 5, 76, 90
9, 47549, Note_on_c, 5, 76, 0
9, 47580, Note_on_c, 5, 75, 90
9, 47609, Note_on_c, 5, 75, 0
9, 47640, Note_on_c, 5, 76, 90
9, 47699, Note_on_c, 5, 76, 0
9, 47700, Note_on_c, 5, 71, 90
9, 47759, Note_on_c, 5, 71, 0
9, 47760, Note_on_c, 5, 67, 90
9, 47879, Note_on_c, 5, 67, 0
9, 47880, Note_on_c, 5, 67, 90
9, 47939, Note_on_c, 5, 67, 0
9, 47940, Note_on_c, 5, 67, 90
9, 47999, Note_on_c, 5, 67, 0
9, 48000, Note_on_c, 5, 67, 90
9, 48059, Note_on_c, 5, 67, 0
9, 48060, Note_on_c, 5, 70, 90
9, 48119, Note_on_c, 5, 70, 0
9, 48120, Note_on_c, 5, 73, 90
9, 48179, Note_on_c, 5, 73, 0
9, 48180, Note_on_c, 5, 74, 90
9, 48239, Note_on_c, 5, 74, 0
9, 48240, Note_on_c, 5, 71, 90
9, 48299, Note_on_c, 5, 71, 0
9, 48300, Note_on_c, 5, 70, 90
9, 48359, Note_on_c, 5, 70, 0
9, 48360, Note_on_c, 5, 71, 90
9, 48419, Note_on_c, 5, 71, 0
9, 48420, Note_on_c, 5, 66, 90
9, 48479, Note_on_c, 5, 66, 0
9, 48480, Note_on_c, 5, 66, 90
9, 48539, Note_on_c, 5, 66, 0
9, 48540, Note_on_c, 5, 71, 90
9, 48569, Note_on_c, 5, 71, 0
9, 48570, Note_on_c, 5, 74, 90
9, 48584, Note_on_c, 5, 74, 0
9, 48585, Note_on_c, 5, 73, 90
9, 48599, Note_on_c, 5, 73, 0
9, 48600, Note_on_c, 5, 71, 90
9, 48629, Note_on_c, 5, 71, 0
9, 48630, Note_on_c, 5, 74, 90
9, 48644, Note_on_c, 5, 74, 0
9, 48645, Note_on_c, 5, 73, 90
9, 48659, Note_on_c, 5, 73, 0
9, 48660, Note_on_c, 5, 71, 90
9, 48749, Note_on_c, 5, 71, 0
9, 48750, Note_on_c, 5, 68, 90
9, 48764, Note_on_c, 5, 68, 0
9, 48765, Note_on_c, 5, 69, 90
9, 48779, Note_on_c, 5, 69, 0
9, 48780, Note_on_c, 5, 71, 90
9, 48809, Note_on_c, 5, 71, 0
9, 48810, Note_on_c, 5, 68, 90
9, 48824, Note_on_c, 5, 68, 0
9, 48825, Note_on_c, 5, 69, 90
9, 48839, Note_on_c, 5, 69, 0
9, 48840, Note_on_c, 5, 71, 90
9, 48929, Note_on_c, 5, 71, 0
9, 48930, Note_on_c, 5, 73, 90
9, 48944, Note_on_c, 5, 73, 0
9, 48945, Note_on_c, 5, 71, 90
9, 48959, Note_on_c, 5, 71, 0
9, 48960, Note_on_c, 5, 69, 90
9, 48989, Note_on_c, 5, 69, 0
9, 49020, Note_on_c, 5, 68, 90
9, 49049, Note_on_c, 5, 68, 0
9, 49080, Note_on_c, 5, 69, 90
9, 49109, Note_on_c, 5, 69, 0
9, 49110, Note_on_c, 5, 73, 90
9, 49124, Note_on_c, 5, 73, 0
9, 49125, Note_on_c, 5, 71, 90
9, 49139, Note_on_c, 5, 71, 0
9, 49140, Note_on_c, 5, 69, 90
9, 49169, Note_on_c, 5, 69, 0
9, 49170, Note_on_c, 5, 73, 90
9, 49184, Note_on_c, 5, 73, 0
9, 49185, Note_on_c, 5, 71, 90
9, 49199, Note_on_c, 5, 71, 0
9, 49200, Note_on_c, 5, 69, 90
9, 49229, Note_on_c, 5, 69, 0
9, 49230, Note_on_c, 5, 69, 90
9, 49244, Note_on_c, 5, 69, 0
9, 49245, Note_on_c, 5, 71, 90
9, 49259, Note_on_c, 5, 71, 0
9, 49260, Note_on_c, 5, 73, 90
9, 49289, Note_on_c, 5, 73, 0
9, 49290, Note_on_c, 5, 71, 90
9, 49304, Note_on_c, 5, 71, 0
9, 49305, Note_on_c, 5, 73, 90
9, 49319, Note_on_c, 5, 73, 0
9, 49320, Note_on_c, 5, 75, 90
9, 49349, Note_on_c, 5, 75, 0
9, 49350, Note_on_c, 5, 73, 90
9, 49364, Note_on_c, 5, 73, 0
9, 49365, Note_on_c, 5, 75, 90
9, 49379, Note_on_c, 5, 75, 0
9, 49380, Note_on_c, 5, 76, 90
9, 49409, Note_on_c, 5, 76, 0
9, 49410, Note_on_c, 5, 75, 90
9, 49424, Note_on_c, 5, 75, 0
9, 49425, Note_on_c, 5, 76, 90
9, 49439, Note_on_c, 5, 76, 0
9, 49440, Note_on_c, 5, 78, 90
9, 49499, Note_on_c, 5, 78, 0
9, 49500, Note_on_c, 5, 71, 90
9, 49649, Note_on_c, 5, 71, 0
9, 49650, Note_on_c, 5, 69, 90
9, 49664, Note_on_c, 5, 69, 0
9, 49665, Note_on_c, 5, 71, 90
9, 49679, Note_on_c, 5, 71, 0
9, 49680, Note_on_c, 5, 73, 90
9, 49709, Note_on_c, 5, 73, 0
9, 49710, Note_on_c, 5, 71, 90
9, 49724, Note_on_c, 5, 71, 0
9, 49725, Note_on_c, 5, 73, 90
9, 49739, Note_on_c, 5, 73, 0
9, 49740, Note_on_c, 5, 74, 90
9, 49769, Note_on_c, 5, 74, 0
9, 49770, Note_on_c, 5, 73, 90
9, 49784, Note_on_c, 5, 73, 0
9, 49785, Note_on_c, 5, 74, 90
9, 49799, Note_on_c, 5, 74, 0
9, 49800, Note_on_c, 5, 76, 90
9, 49859, Note_on_c, 5, 76, 0
9, 49860, Note_on_c, 5, 69, 90
9, 50009, Note_on_c, 5, 69, 0
9, 50010, Note_on_c, 5, 68, 90
9, 50024, Note_on_c, 5, 68, 0
9, 50025, Note_on_c, 5, 69, 90
9, 50039, Note_on_c, 5, 69, 0
9, 50040, Note_on_c, 5, 71, 90
9, 50069, Note_on_c, 5, 71, 0
9, 50070, Note_on_c, 5, 69, 90
9, 50084, Note_on_c, 5, 69, 0
9, 50085, Note_on_c, 5, 71, 90
9, 50099, Note_on_c, 5, 71, 0
9, 50100, Note_on_c, 5, 73, 90
9, 50129, Note_on_c, 5, 73, 0
9, 50130, Note_on_c, 5, 71, 90
9, 50144, Note_on_c, 5, 71, 0
9, 50145, Note_on_c, 5, 73, 90
9, 50159, Note_on_c, 5, 73, 0
9, 50160, Note_on_c, 5, 74, 90
9, 50219, Note_on_c, 5, 74, 0
9, 50220, Note_on_c, 5, 78, 90
9, 50249, Note_on_c, 5, 78, 0
9, 50250, Note_on_c, 5, 76, 90
9, 50279, Note_on_c, 5, 76, 0
9, 50280, Note_on_c, 5, 74, 90
9, 50339, Note_on_c, 5, 74, 0
9, 50340, Note_on_c, 5, 83, 90
9, 50399, Note_on_c, 5, 83, 0
9, 50400, Note_on_c, 5, 74, 90
9, 50519, Note_on_c, 5, 74, 0
9, 50520, Note_on_c, 5, 73, 90
9, 50549, Note_on_c, 5, 73, 0
9, 50580, Note_on_c, 5, 74, 90
9, 50609, Note_on_c, 5, 74, 0
9, 50640, Note_on_c, 5, 71, 90
9, 50669, Note_on_c, 5, 71, 0
9, 50700, Note_on_c, 5, 69, 90
9, 50759, Note_on_c, 5, 69, 0
9, 51000, Note_on_c, 5, 68, 90
9, 51029, Note_on_c, 5, 68, 0
9, 51030, Note_on_c, 5, 69, 90
9, 51059, Note_on_c, 5, 69, 0
9, 51060, Note_on_c, 5, 71, 90
9, 51089, Note_on_c, 5, 71, 0
9, 51120, Note_on_c, 5, 71, 90
9, 51149, Note_on_c, 5, 71, 0
9, 51180, Note_on_c, 5, 71, 90
9, 51209, Note_on_c, 5, 71, 0
9, 51240, Note_on_c, 5, 71, 90
9, 51299, Note_on_c, 5, 71, 0
9, 51300, Note_on_c, 5, 69, 90
9, 51329, Note_on_c, 5, 69, 0
9, 51330, Note_on_c, 5, 68, 90
9, 51359, Note_on_c, 5, 68, 0
9, 51360, Note_on_c, 5, 69, 90
9, 51419, Note_on_c, 5, 69, 0
9, 51720, Note_on_c, 5, 74, 90
9, 51779, Note_on_c, 5, 74, 0
9, 51780, Note_on_c, 5, 74, 90
9, 51899, Note_on_c, 5, 74, 0
9, 51900, Note_on_c, 5, 71, 90
9, 51959, Note_on_c, 5, 71, 0
9, 51960, Note_on_c, 5, 73, 90
9, 52019, Note_on_c, 5, 73, 0
9, 52020, Note_on_c, 5, 64, 90
9, 52079, Note_on_c, 5, 64, 0
9, 52080, Note_on_c, 5, 73, 90
9, 52139, Note_on_c, 5, 73, 0
9, 52140, Note_on_c, 5, 74, 90
9, 52199, Note_on_c, 5, 74, 0
9, 52710, Note_on_c, 5, 66, 90
9, 52724, Note_on_c, 5, 66, 0
9, 52725, Note_on_c, 5, 67, 90
9, 52739, Note_on_c, 5, 67, 0
9, 52740, Note_on_c, 5, 69, 90
9, 52754, Note_on_c, 5, 69, 0
9, 52755, Note_on_c, 5, 67, 90
9, 52769, Note_on_c, 5, 67, 0
9, 52770, Note_on_c, 5, 69, 90
9, 52784, Note_on_c, 5, 69, 0
9, 52785, Note_on_c, 5, 67, 90
9, 52799, Note_on_c, 5, 67, 0
9, 52800, Note_on_c, 5, 69, 90
9, 52814, Note_on_c, 5, 69, 0
9, 52815, Note_on_c, 5, 67, 90
9, 52829, Note_on_c, 5, 67, 0
9, 52830, Note_on_c, 5, 66, 90
9, 52844, Note_on_c, 5, 66, 0
9, 52845, Note_on_c, 5, 67, 90
9, 52859, Note_on_c, 5, 67, 0
9, 52860, Note_on_c, 5, 69, 90
9, 52919, Note_on_c, 5, 69, 0
9, 53040, Note_on_c, 5, 69, 90
9, 53099, Note_on_c, 5, 69, 0
9, 53220, Note_on_c, 5, 66, 90
9, 53279, Note_on_c, 5, 66, 0
9, 53415, Note_on_c, 5, 74, 90
9, 53429, Note_on_c, 5, 74, 0
9, 53430, Note_on_c, 5, 73, 90
9, 53444, Note_on_c, 5, 73, 0
9, 53445, Note_on_c, 5, 71, 90
9, 53459, Note_on_c, 5, 71, 0
9, 53460, Note_on_c, 5, 69, 90
9, 53474, Note_on_c, 5, 69, 0
9, 53475, Note_on_c, 5, 74, 90
9, 53489, Note_on_c, 5, 74, 0
9, 53490, Note_on_c, 5, 73, 90
9, 53504, Note_on_c, 5, 73, 0
9, 53505, Note_on_c, 5, 71, 90
9, 53519, Note_on_c, 5, 71, 0
9, 53520, Note_on_c, 5, 69, 90
9, 53534, Note_on_c, 5, 69, 0
9, 53535, Note_on_c, 5, 67, 90
9, 53549, Note_on_c, 5, 67, 0
9, 53550, Note_on_c, 5, 66, 90
9, 53564, Note_on_c, 5, 66, 0
9, 53565, Note_on_c, 5, 64, 90
9, 53579, Note_on_c, 5, 64, 0
9, 53580, Note_on_c, 5, 62, 90
9, 54000, Note_on_c, 5, 62, 0
9, 54000, Note_on_c, 5, 74, 90
9, 54030, Note_on_c, 5, 74, 0
9, 54060, Note_on_c, 5, 74, 90
9, 54090, Note_on_c, 5, 74, 0
9, 54120, Note_on_c, 5, 74, 90
9, 54180, Note_on_c, 5, 74, 0
9, 54180, Note_on_c, 5, 73, 90
9, 54210, Note_on_c, 5, 73, 0
9, 54210, Note_on_c, 5, 71, 90
9, 54240, Note_on_c, 5, 71, 0
9, 54240, Note_on_c, 5, 73, 90
9, 54300, Note_on_c, 5, 73, 0
9, 54960, Note_on_c, 5, 76, 90
9, 55020, Note_on_c, 5, 76, 0
9, 55020, Note_on_c, 5, 69, 90
9, 55050, Note_on_c, 5, 69, 0
9, 55050, Note_on_c, 5, 71, 90
9, 55080, Note_on_c, 5, 71, 0
9, 55080, Note_on_c, 5, 73, 90
9, 55140, Note_on_c, 5, 73, 0
9, 55140, Note_on_c, 5, 74, 90
9, 55200, Note_on_c, 5, 74, 0
9, 55200, Note_on_c, 5, 73, 90
9, 55320, Note_on_c, 5, 73, 0
9, 55620, Note_on_c, 5, 66, 90
9, 55649, Note_on_c, 5, 66, 0
9, 55650, Note_on_c, 5, 67, 90
9, 55679, Note_on_c, 5, 67, 0
9, 55680, Note_on_c, 5, 69, 90
9, 55694, Note_on_c, 5, 69, 0
9, 55695, Note_on_c, 5, 67, 90
9, 55709, Note_on_c, 5, 67, 0
9, 55710, Note_on_c, 5, 66, 90
9, 55724, Note_on_c, 5, 66, 0
9, 55725, Note_on_c, 5, 67, 90
9, 55739, Note_on_c, 5, 67, 0
9, 55740, Note_on_c, 5, 69, 90
9, 55769, Note_on_c, 5, 69, 0
9, 55770, Note_on_c, 5, 67, 90
9, 55799, Note_on_c, 5, 67, 0
9, 55800, Note_on_c, 5, 69, 90
9, 55829, Note_on_c, 5, 69, 0
9, 55830, Note_on_c, 5, 71, 90
9, 55859, Note_on_c, 5, 71, 0
9, 55860, Note_on_c, 5, 73, 90
9, 55874, Note_on_c, 5, 73, 0
9, 55875, Note_on_c, 5, 71, 90
9, 55889, Note_on_c, 5, 71, 0
9, 55890, Note_on_c, 5, 69, 90
9, 55904, Note_on_c, 5, 69, 0
9, 55905, Note_on_c, 5, 71, 90
9, 55919, Note_on_c, 5, 71, 0
9, 55920, Note_on_c, 5, 73, 90
9, 55949, Note_on_c, 5, 73, 0
9, 55980, Note_on_c, 5, 69, 90
9, 56009, Note_on_c, 5, 69, 0
9, 56040, Note_on_c, 5, 66, 90
9, 56069, Note_on_c, 5, 66, 0
9, 56100, Note_on_c, 5, 71, 90
9, 56129, Note_on_c, 5, 71, 0
9, 56130, Note_on_c, 5, 73, 90
9, 56159, Note_on_c, 5, 73, 0
9, 56160, Note_on_c, 5, 74, 90
9, 56189, Note_on_c, 5, 74, 0
9, 56220, Note_on_c, 5, 78, 90
9, 56234, Note_on_c, 5, 78, 0
9, 56235, Note_on_c, 5, 76, 90
9, 56249, Note_on_c, 5, 76, 0
9, 56250, Note_on_c, 5, 74, 90
9, 56264, Note_on_c, 5, 74, 0
9, 56265, Note_on_c, 5, 76, 90
9, 56279, Note_on_c, 5, 76, 0
9, 56280, Note_on_c, 5, 78, 90
9, 56309, Note_on_c, 5, 78, 0
9, 56340, Note_on_c, 5, 66, 90
9, 56369, Note_on_c, 5, 66, 0
9, 56520, Note_on_c, 5, 69, 90
9, 56549, Note_on_c, 5, 69, 0
9, 56550, Note_on_c, 5, 71, 90
9, 56579, Note_on_c, 5, 71, 0
9, 56580, Note_on_c, 5, 73, 90
9, 56594, Note_on_c, 5, 73, 0
9, 56595, Note_on_c, 5, 71, 90
9, 56609, Note_on_c, 5, 71, 0
9, 56610, Note_on_c, 5, 69, 90
9, 56624, Note_on_c, 5, 69, 0
9, 56625, Note_on_c, 5, 71, 90
9, 56639, Note_on_c, 5, 71, 0
9, 56640, Note_on_c, 5, 73, 90
9, 56669, Note_on_c, 5, 73, 0
9, 56700, Note_on_c, 5, 74, 90
9, 56729, Note_on_c, 5, 74, 0
9, 56760, Note_on_c, 5, 69, 90
9, 56849, Note_on_c, 5, 69, 0
9, 56850, Note_on_c, 5, 68, 90
9, 56879, Note_on_c, 5, 68, 0
9, 56880, Note_on_c, 5, 69, 90
9, 56939, Note_on_c, 5, 69, 0
9, 56940, Note_on_c, 5, 62, 90
9, 56999, Note_on_c, 5, 62, 0
9, 57000, Note_on_c, 5, 64, 90
9, 57059, Note_on_c, 5, 64, 0
9, 57060, Note_on_c, 5, 69, 90
9, 57119, Note_on_c, 5, 69, 0
9, 57120, Note_on_c, 5, 63, 90
9, 57179, Note_on_c, 5, 63, 0
9, 57180, Note_on_c, 5, 64, 90
9, 57209, Note_on_c, 5, 64, 0
9, 57240, Note_on_c, 5, 64, 90
9, 57269, Note_on_c, 5, 64, 0
9, 57300, Note_on_c, 5, 62, 90
9, 57329, Note_on_c, 5, 62, 0
9, 57360, Note_on_c, 5, 62, 90
9, 57419, Note_on_c, 5, 62, 0
9, 57420, Note_on_c, 5, 71, 90
9, 57479, Note_on_c, 5, 71, 0
9, 57480, Note_on_c, 5, 73, 90
9, 57539, Note_on_c, 5, 73, 0
9, 57540, Note_on_c, 5, 74, 90
9, 57599, Note_on_c, 5, 74, 0
9, 57600, Note_on_c, 5, 66, 90
9, 57659, Note_on_c, 5, 66, 0
9, 57660, Note_on_c, 5, 71, 90
9, 57719, Note_on_c, 5, 71, 0
9, 57720, Note_on_c, 5, 64, 90
9, 57779, Note_on_c, 5, 64, 0
9, 57780, Note_on_c, 5, 69, 90
9, 57839, Note_on_c, 5, 69, 0
9, 57840, Note_on_c, 5, 73, 90
9, 57899, Note_on_c, 5, 73, 0
9, 57900, Note_on_c, 5, 72, 90
9, 57959, Note_on_c, 5, 72, 0
9, 57960, Note_on_c, 5, 72, 90
9, 58019, Note_on_c, 5, 72, 0
9, 58020, Note_on_c, 5, 72, 90
9, 58079, Note_on_c, 5, 72, 0
9, 58080, Note_on_c, 5, 66, 90
9, 58139, Note_on_c, 5, 66, 0
9, 58140, Note_on_c, 5, 66, 90
9, 58199, Note_on_c, 5, 66, 0
9, 58200, Note_on_c, 5, 66, 90
9, 58259, Note_on_c, 5, 66, 0
9, 58260, Note_on_c, 5, 64, 90
9, 58319, Note_on_c, 5, 64, 0
9, 58320, Note_on_c, 5, 76, 90
9, 58379, Note_on_c, 5, 76, 0
9, 58380, Note_on_c, 5, 75, 90
9, 58439, Note_on_c, 5, 75, 0
9, 58440, Note_on_c, 5, 76, 90
9, 58499, Note_on_c, 5, 76, 0
9, 58500, Note_on_c, 5, 71, 90
9, 58559, Note_on_c, 5, 71, 0
9, 58560, Note_on_c, 5, 71, 90
9, 58619, Note_on_c, 5, 71, 0
9, 58620, Note_on_c, 5, 76, 90
9, 58649, Note_on_c, 5, 76, 0
9, 58650, Note_on_c, 5, 79, 90
9, 58664, Note_on_c, 5, 79, 0
9, 58665, Note_on_c, 5, 78, 90
9, 58679, Note_on_c, 5, 78, 0
9, 58680, Note_on_c, 5, 76, 90
9, 58709, Note_on_c, 5, 76, 0
9, 58710, Note_on_c, 5, 79, 90
9, 58724, Note_on_c, 5, 79, 0
9, 58725, Note_on_c, 5, 78, 90
9, 58739, Note_on_c, 5, 78, 0
9, 58740, Note_on_c, 5, 76, 90
9, 58829, Note_on_c, 5, 76, 0
9, 58830, Note_on_c, 5, 73, 90
9, 58844, Note_on_c, 5, 73, 0
9, 58845, Note_on_c, 5, 74, 90
9, 58859, Note_on_c, 5, 74, 0
9, 58860, Note_on_c, 5, 76, 90
9, 58889, Note_on_c, 5, 76, 0
9, 58890, Note_on_c, 5, 73, 90
9, 58904, Note_on_c, 5, 73, 0
9, 58905, Note_on_c, 5, 74, 90
9, 58919, Note_on_c, 5, 74, 0
9, 58920, Note_on_c, 5, 76, 90
9, 59009, Note_on_c, 5, 76, 0
9, 59010, Note_on_c, 5, 78, 90
9, 59024, Note_on_c, 5, 78, 0
9, 59025, Note_on_c, 5, 76, 90
9, 59039, Note_on_c, 5, 76, 0
9, 59040, Note_on_c, 5, 74, 90
9, 59069, Note_on_c, 5, 74, 0
9, 59100, Note_on_c, 5, 73, 90
9, 59129, Note_on_c, 5, 73, 0
9, 59160, Note_on_c, 5, 74, 90
9, 59189, Note_on_c, 5, 74, 0
9, 59190, Note_on_c, 5, 78, 90
9, 59204, Note_on_c, 5, 78, 0
9, 59205, Note_on_c, 5, 76, 90
9, 59219, Note_on_c, 5, 76, 0
9, 59220, Note_on_c, 5, 74, 90
9, 59249, Note_on_c, 5, 74, 0
9, 59250, Note_on_c, 5, 78, 90
9, 59264, Note_on_c, 5, 78, 0
9, 59265, Note_on_c, 5, 76, 90
9, 59279, Note_on_c, 5, 76, 0
9, 59280, Note_on_c, 5, 74, 90
9, 59399, Note_on_c, 5, 74, 0
9, 59400, Note_on_c, 5, 71, 90
9, 59429, Note_on_c, 5, 71, 0
9, 59460, Note_on_c, 5, 74, 90
9, 59579, Note_on_c, 5, 74, 0
9, 59580, Note_on_c, 5, 68, 90
9, 59609, Note_on_c, 5, 68, 0
9, 59640, Note_on_c, 5, 71, 90
9, 59669, Note_on_c, 5, 71, 0
9, 59700, Note_on_c, 5, 73, 90
9, 59729, Note_on_c, 5, 73, 0
9, 59760, Note_on_c, 5, 69, 90
9, 59789, Note_on_c, 5, 69, 0
9, 59820, Note_on_c, 5, 72, 90
9, 59939, Note_on_c, 5, 72, 0
9, 59940, Note_on_c, 5, 66, 90
9, 59969, Note_on_c, 5, 66, 0
9, 60000, Note_on_c, 5, 69, 90
9, 60029, Note_on_c, 5, 69, 0
9, 60060, Note_on_c, 5, 71, 90
9, 60089, Note_on_c, 5, 71, 0
9, 60120, Note_on_c, 5, 71, 90
9, 60149, Note_on_c, 5, 71, 0
9, 60180, Note_on_c, 5, 69, 90
9, 60209, Note_on_c, 5, 69, 0
9, 60240, Note_on_c, 5, 71, 90
9, 60269, Note_on_c, 5, 71, 0
9, 60420, Note_on_c, 5, 76, 90
9, 60449, Note_on_c, 5, 76, 0
9, 60600, Note_on_c, 5, 74, 90
9, 60629, Note_on_c, 5, 74, 0
9, 60660, Note_on_c, 5, 69, 90
9, 60689, Note_on_c, 5, 69, 0
9, 60720, Note_on_c, 5, 64, 90
9, 60749, Note_on_c, 5, 64, 0
9, 60780, Note_on_c, 5, 66, 90
9, 60960, Note_on_c, 5, 66, 0
9, 70140, Note_on_c, 5, 64, 90
9, 70499, Note_on_c, 5, 64, 0
9, 70500, Note_on_c, 5, 62, 90
9, 70559, Note_on_c, 5, 62, 0
9, 70560, Note_on_c, 5, 71, 90
9, 70619, Note_on_c, 5, 71, 0
9, 70620, Note_on_c, 5, 71, 90
9, 70679, Note_on_c, 5, 71, 0
9, 70680, Note_on_c, 5, 68, 90
9, 70739, Note_on_c, 5, 68, 0
9, 70740, Note_on_c, 5, 59, 90
9, 71219, Note_on_c, 5, 59, 0
9, 71220, Note_on_c, 5, 64, 90
9, 71279, Note_on_c, 5, 64, 0
9, 71280, Note_on_c, 5, 61, 90
9, 71339, Note_on_c, 5, 61, 0
9, 71340, Note_on_c, 5, 61, 90
9, 71399, Note_on_c, 5, 61, 0
9, 71400, Note_on_c, 5, 64, 90
9, 71459, Note_on_c, 5, 64, 0
9, 71460, Note_on_c, 5, 69, 90
9, 71699, Note_on_c, 5, 69, 0
9, 71700, Note_on_c, 5, 71, 90
9, 71819, Note_on_c, 5, 71, 0
9, 71820, Note_on_c, 5, 63, 90
9, 71939, Note_on_c, 5, 63, 0
9, 71940, Note_on_c, 5, 64, 90
9, 72059, Note_on_c, 5, 64, 0
9, 72060, Note_on_c, 5, 66, 90
9, 72179, Note_on_c, 5, 66, 0
9, 72180, Note_on_c, 5, 71, 90
9, 72239, Note_on_c, 5, 71, 0
9, 72240, Note_on_c, 5, 68, 90
9, 72299, Note_on_c, 5, 68, 0
9, 72300, Note_on_c, 5, 68, 90
9, 72359, Note_on_c, 5, 68, 0
9, 72360, Note_on_c, 5, 64, 90
9, 72419, Note_on_c, 5, 64, 0
9, 72420, Note_on_c, 5, 64, 90
9, 72960, Note_on_c, 5, 64, 0
9, 72960, Note_on_c, 5, 76, 90
9, 73019, Note_on_c, 5, 76, 0
9, 73020, Note_on_c, 5, 76, 90
9, 73079, Note_on_c, 5, 76, 0
9, 73080, Note_on_c, 5, 73, 90
9, 73139, Note_on_c, 5, 73, 0
9, 73140, Note_on_c, 5, 66, 90
9, 73439, Note_on_c, 5, 66, 0
9, 73440, Note_on_c, 5, 71, 90
9, 73499, Note_on_c, 5, 71, 0
9, 73500, Note_on_c, 5, 71, 90
9, 73559, Note_on_c, 5, 71, 0
9, 73560, Note_on_c, 5, 74, 90
9, 73619, Note_on_c, 5, 74, 0
9, 73620, Note_on_c, 5, 74, 90
9, 73859, Note_on_c, 5, 74, 0
9, 73860, Note_on_c, 5, 69, 90
9, 74099, Note_on_c, 5, 69, 0
9, 74100, Note_on_c, 5, 71, 90
9, 74159, Note_on_c, 5, 71, 0
9, 74160, Note_on_c, 5, 68, 90
9, 74219, Note_on_c, 5, 68, 0
9, 74220, Note_on_c, 5, 68, 90
9, 74279, Note_on_c, 5, 68, 0
9, 74280, Note_on_c, 5, 64, 90
9, 74339, Note_on_c, 5, 64, 0
9, 74340, Note_on_c, 5, 64, 90
9, 74399, Note_on_c, 5, 64, 0
9, 74400, Note_on_c, 5, 72, 90
9, 74459, Note_on_c, 5, 72, 0
9, 74460, Note_on_c, 5, 72, 90
9, 74519, Note_on_c, 5, 72, 0
9, 74520, Note_on_c, 5, 69, 90
9, 74579, Note_on_c, 5, 69, 0
9, 74580, Note_on_c, 5, 71, 90
9, 74639, Note_on_c, 5, 71, 0
9, 74640, Note_on_c, 5, 69, 90
9, 74699, Note_on_c, 5, 69, 0
9, 74700, Note_on_c, 5, 69, 90
9, 74759, Note_on_c, 5, 69, 0
9, 74760, Note_on_c, 5, 66, 90
9, 74819, Note_on_c, 5, 66, 0
9, 74820, Note_on_c, 5, 68, 90
9, 75059, Note_on_c, 5, 68, 0
9, 116460, Note_on_c, 5, 64, 90
9, 116579, Note_on_c, 5, 64, 0
9, 116580, Note_on_c, 5, 69, 90
9, 116699, Note_on_c, 5, 69, 0
9, 116700, Note_on_c, 5, 67, 90
9, 116819, Note_on_c, 5, 67, 0
9, 116820, Note_on_c, 5, 65, 90
9, 116939, Note_on_c, 5, 65, 0
9, 116940, Note_on_c, 5, 64, 90
9, 117059, Note_on_c, 5, 64, 0
9, 117060, Note_on_c, 5, 62, 90
9, 117299, Note_on_c, 5, 62, 0
9, 117300, Note_on_c, 5, 64, 90
9, 117395, Note_on_c, 5, 64, 0
9, 117420, Note_on_c, 5, 71, 90
9, 117539, Note_on_c, 5, 71, 0
9, 117540, Note_on_c, 5, 72, 90
9, 117659, Note_on_c, 5, 72, 0
9, 117660, Note_on_c, 5, 72, 90
9, 117779, Note_on_c, 5, 72, 0
9, 117780, Note_on_c, 5, 71, 90
9, 117839, Note_on_c, 5, 71, 0
9, 117840, Note_on_c, 5, 72, 90
9, 117869, Note_on_c, 5, 72, 0
9, 117870, Note_on_c, 5, 74, 90
9, 117899, Note_on_c, 5, 74, 0
9, 117900, Note_on_c, 5, 71, 90
9, 118019, Note_on_c, 5, 71, 0
9, 118020, Note_on_c, 5, 69, 90
9, 118379, Note_on_c, 5, 69, 0
9, 118380, Note_on_c, 5, 64, 90
9, 118499, Note_on_c, 5, 64, 0
9, 118500, Note_on_c, 5, 69, 90
9, 118619, Note_on_c, 5, 69, 0
9, 118620, Note_on_c, 5, 67, 90
9, 118739, Note_on_c, 5, 67, 0
9, 118740, Note_on_c, 5, 65, 90
9, 118859, Note_on_c, 5, 65, 0
9, 118860, Note_on_c, 5, 64, 90
9, 118979, Note_on_c, 5, 64, 0
9, 118980, Note_on_c, 5, 62, 90
9, 119219, Note_on_c, 5, 62, 0
9, 119220, Note_on_c, 5, 64, 90
9, 119315, Note_on_c, 5, 64, 0
9, 119340, Note_on_c, 5, 71, 90
9, 119459, Note_on_c, 5, 71, 0
9, 119460, Note_on_c, 5, 72, 90
9, 119579, Note_on_c, 5, 72, 0
9, 119580, Note_on_c, 5, 72, 90
9, 119699, Note_on_c, 5, 72, 0
9, 119700, Note_on_c, 5, 71, 90
9, 119759, Note_on_c, 5, 71, 0
9, 119760, Note_on_c, 5, 72, 90
9, 119789, Note_on_c, 5, 72, 0
9, 119790, Note_on_c, 5, 74, 90
9, 119819, Note_on_c, 5, 74, 0
9, 119820, Note_on_c, 5, 71, 90
9, 119939, Note_on_c, 5, 71, 0
9, 119940, Note_on_c, 5, 69, 90
9, 120299, Note_on_c, 5, 69, 0
9, 120300, Note_on_c, 5, 72, 90
9, 120419, Note_on_c, 5, 72, 0
9, 120420, Note_on_c, 5, 71, 90
9, 120479, Note_on_c, 5, 71, 0
9, 120480, Note_on_c, 5, 69, 90
9, 120539, Note_on_c, 5, 69, 0
9, 120540, Note_on_c, 5, 67, 90
9, 120659, Note_on_c, 5, 67, 0
9, 120660, Note_on_c, 5, 69, 90
9, 120779, Note_on_c, 5, 69, 0
9, 120780, Note_on_c, 5, 71, 90
9, 120899, Note_on_c, 5, 71, 0
9, 120900, Note_on_c, 5, 72, 90
9, 121139, Note_on_c, 5, 72, 0
9, 121140, Note_on_c, 5, 72, 90
9, 121235, Note_on_c, 5, 72, 0
9, 121260, Note_on_c, 5, 67, 90
9, 121379, Note_on_c, 5, 67, 0
9, 121380, Note_on_c, 5, 69, 90
9, 121499, Note_on_c, 5, 69, 0
9, 121500, Note_on_c, 5, 67, 90
9, 121619, Note_on_c, 5, 67, 0
9, 121620, Note_on_c, 5, 65, 90
9, 121679, Note_on_c, 5, 65, 0
9, 121680, Note_on_c, 5, 64, 90
9, 121739, Note_on_c, 5, 64, 0
9, 121740, Note_on_c, 5, 65, 90
9, 121859, Note_on_c, 5, 65, 0
9, 121860, Note_on_c, 5, 64, 90
9, 122147, Note_on_c, 5, 64, 0
9, 122220, Note_on_c, 5, 72, 90
9, 122339, Note_on_c, 5, 72, 0
9, 122340, Note_on_c, 5, 71, 90
9, 122399, Note_on_c, 5, 71, 0
9, 122400, Note_on_c, 5, 72, 90
9, 122459, Note_on_c, 5, 72, 0
9, 122460, Note_on_c, 5, 74, 90
9, 122579, Note_on_c, 5, 74, 0
9, 122580, Note_on_c, 5, 72, 90
9, 122699, Note_on_c, 5, 72, 0
9, 122700, Note_on_c, 5, 71, 90
9, 122819, Note_on_c, 5, 71, 0
9, 122820, Note_on_c, 5, 69, 90
9, 123059, Note_on_c, 5, 69, 0
9, 123060, Note_on_c, 5, 71, 90
9, 123155, Note_on_c, 5, 71, 0
9, 123180, Note_on_c, 5, 64, 90
9, 123299, Note_on_c, 5, 64, 0
9, 123300, Note_on_c, 5, 65, 90
9, 123419, Note_on_c, 5, 65, 0
9, 123420, Note_on_c, 5, 64, 90
9, 123539, Note_on_c, 5, 64, 0
9, 123540, Note_on_c, 5, 62, 90
9, 123659, Note_on_c, 5, 62, 0
9, 123660, Note_on_c, 5, 67, 90
9, 123719, Note_on_c, 5, 67, 0
9, 123720, Note_on_c, 5, 65, 90
9, 123779, Note_on_c, 5, 65, 0
9, 123780, Note_on_c, 5, 64, 90
9, 124139, Note_on_c, 5, 64, 0
9, 127020, Note_on_c, 5, 62, 90
9, 127079, Note_on_c, 5, 62, 0
9, 127080, Note_on_c, 5, 66, 90
9, 127139, Note_on_c, 5, 66, 0
9, 127140, Note_on_c, 5, 66, 90
9, 127199, Note_on_c, 5, 66, 0
9, 127200, Note_on_c, 5, 69, 90
9, 127259, Note_on_c, 5, 69, 0
9, 127260, Note_on_c, 5, 67, 90
9, 127289, Note_on_c, 5, 67, 0
9, 127290, Note_on_c, 5, 66, 90
9, 127319, Note_on_c, 5, 66, 0
9, 127320, Note_on_c, 5, 64, 90
9, 127349, Note_on_c, 5, 64, 0
9, 127350, Note_on_c, 5, 62, 90
9, 127379, Note_on_c, 5, 62, 0
9, 127380, Note_on_c, 5, 67, 100
9, 127800, Note_on_c, 5, 67, 0
9, 127800, Note_on_c, 5, 66, 90
9, 127859, Note_on_c, 5, 66, 0
9, 127860, Note_on_c, 5, 66, 90
9, 127979, Note_on_c, 5, 66, 0
9, 127980, Note_on_c, 5, 69, 90
9, 128039, Note_on_c, 5, 69, 0
9, 128040, Note_on_c, 5, 71, 90
9, 128069, Note_on_c, 5, 71, 0
9, 128070, Note_on_c, 5, 72, 90
9, 128099, Note_on_c, 5, 72, 0
9, 128100, Note_on_c, 5, 71, 90
9, 128129, Note_on_c, 5, 71, 0
9, 128130, Note_on_c, 5, 72, 90
9, 128159, Note_on_c, 5, 72, 0
9, 128160, Note_on_c, 5, 74, 90
9, 128189, Note_on_c, 5, 74, 0
9, 128220, Note_on_c, 5, 74, 90
9, 128279, Note_on_c, 5, 74, 0
9, 128280, Note_on_c, 5, 72, 90
9, 128339, Note_on_c, 5, 72, 0
9, 128340, Note_on_c, 5, 72, 90
9, 128399, Note_on_c, 5, 72, 0
9, 128400, Note_on_c, 5, 71, 90
9, 128459, Note_on_c, 5, 71, 0
9, 128460, Note_on_c, 5, 71, 90
9, 128489, Note_on_c, 5, 71, 0
9, 128490, Note_on_c, 5, 72, 90
9, 128519, Note_on_c, 5, 72, 0
9, 128520, Note_on_c, 5, 71, 90
9, 128549, Note_on_c, 5, 71, 0
9, 128550, Note_on_c, 5, 68, 90
9, 128579, Note_on_c, 5, 68, 0
9, 128580, Note_on_c, 5, 68, 90
9, 128639, Note_on_c, 5, 68, 0
9, 128640, Note_on_c, 5, 69, 90
9, 128879, Note_on_c, 5, 69, 0
9, 128880, Note_on_c, 5, 71, 90
9, 128909, Note_on_c, 5, 71, 0
9, 128910, Note_on_c, 5, 72, 90
9, 128939, Note_on_c, 5, 72, 0
9, 128940, Note_on_c, 5, 72, 90
9, 128999, Note_on_c, 5, 72, 0
9, 129000, Note_on_c, 5, 71, 90
9, 129059, Note_on_c, 5, 71, 0
9, 129060, Note_on_c, 5, 71, 90
9, 129119, Note_on_c, 5, 71, 0
9, 129120, Note_on_c, 5, 69, 90
9, 129179, Note_on_c, 5, 69, 0
9, 129180, Note_on_c, 5, 69, 90
9, 129209, Note_on_c, 5, 69, 0
9, 129210, Note_on_c, 5, 71, 90
9, 129239, Note_on_c, 5, 71, 0
9, 129240, Note_on_c, 5, 69, 90
9, 129269, Note_on_c, 5, 69, 0
9, 129270, Note_on_c, 5, 66, 90
9, 129299, Note_on_c, 5, 66, 0
9, 129300, Note_on_c, 5, 66, 90
9, 129359, Note_on_c, 5, 66, 0
9, 129360, Note_on_c, 5, 67, 100
9, 130320, Note_on_c, 5, 67, 0
9, 130320, Note_on_c, 5, 66, 100
9, 130350, Note_on_c, 5, 66, 0
9, 130350, Note_on_c, 5, 64, 100
9, 130380, Note_on_c, 5, 64, 0
9, 130380, Note_on_c, 5, 62, 100
9, 130440, Note_on_c, 5, 62, 0
9, 130440, Note_on_c, 5, 60, 100
9, 130500, Note_on_c, 5, 60, 0
9, 130500, Note_on_c, 5, 59, 100
9, 130560, Note_on_c, 5, 59, 0
9, 130560, Note_on_c, 5, 57, 100
9, 130620, Note_on_c, 5, 57, 0
9, 130620, Note_on_c, 5, 59, 100
9, 130650, Note_on_c, 5, 59, 0
9, 130740, Note_on_c, 5, 62, 100
9, 130770, Note_on_c, 5, 62, 0
9, 130980, Note_on_c, 5, 64, 100
9, 131010, Note_on_c, 5, 64, 0
9, 131100, Note_on_c, 5, 67, 100
9, 131130, Note_on_c, 5, 67, 0
9, 131340, Note_on_c, 5, 67, 100
9, 131370, Note_on_c, 5, 67, 0
9, 131460, Note_on_c, 5, 66, 100
9, 131490, Note_on_c, 5, 66, 0
9, 131700, Note_on_c, 5, 64, 100
9, 131730, Note_on_c, 5, 64, 0
9, 131820, Note_on_c, 5, 65, 100
9, 131850, Note_on_c, 5, 65, 0
9, 132120, Note_on_c, 5, 66, 90
9, 132179, Note_on_c, 5, 66, 0
9, 132180, Note_on_c, 5, 66, 90
9, 132239, Note_on_c, 5, 66, 0
9, 132240, Note_on_c, 5, 67, 90
9, 132299, Note_on_c, 5, 67, 0
9, 132300, Note_on_c, 5, 67, 90
9, 132359, Note_on_c, 5, 67, 0
9, 132360, Note_on_c, 5, 69, 90
9, 132419, Note_on_c, 5, 69, 0
9, 132420, Note_on_c, 5, 69, 90
9, 132539, Note_on_c, 5, 69, 0
9, 132960, Note_on_c, 5, 69, 90
9, 132989, Note_on_c, 5, 69, 0
9, 132990, Note_on_c, 5, 71, 90
9, 133019, Note_on_c, 5, 71, 0
9, 133020, Note_on_c, 5, 72, 90
9, 133079, Note_on_c, 5, 72, 0
9, 133380, Note_on_c, 5, 64, 90
9, 133439, Note_on_c, 5, 64, 0
9, 133440, Note_on_c, 5, 67, 90
9, 133499, Note_on_c, 5, 67, 0
9, 133500, Note_on_c, 5, 67, 90
9, 133559, Note_on_c, 5, 67, 0
9, 133560, Note_on_c, 5, 71, 90
9, 133619, Note_on_c, 5, 71, 0
9, 133620, Note_on_c, 5, 69, 90
9, 133649, Note_on_c, 5, 69, 0
9, 133650, Note_on_c, 5, 67, 90
9, 133679, Note_on_c, 5, 67, 0
9, 133680, Note_on_c, 5, 66, 90
9, 133709, Note_on_c, 5, 66, 0
9, 133710, Note_on_c, 5, 64, 90
9, 133739, Note_on_c, 5, 64, 0
9, 133740, Note_on_c, 5, 66, 90
9, 133799, Note_on_c, 5, 66, 0
9, 133800, Note_on_c, 5, 69, 90
9, 133859, Note_on_c, 5, 69, 0
9, 133860, Note_on_c, 5, 69, 90
9, 133919, Note_on_c, 5, 69, 0
9, 133920, Note_on_c, 5, 72, 90
9, 133979, Note_on_c, 5, 72, 0
9, 133980, Note_on_c, 5, 71, 90
9, 134009, Note_on_c, 5, 71, 0
9, 134010, Note_on_c, 5, 69, 90
9, 134039, Note_on_c, 5, 69, 0
9, 134040, Note_on_c, 5, 67, 90
9, 134069, Note_on_c, 5, 67, 0
9, 134070, Note_on_c, 5, 66, 90
9, 134099, Note_on_c, 5, 66, 0
9, 134100, Note_on_c, 5, 67, 90
9, 134159, Note_on_c, 5, 67, 0
9, 134160, Note_on_c, 5, 64, 90
9, 134219, Note_on_c, 5, 64, 0
9, 134220, Note_on_c, 5, 64, 90
9, 134279, Note_on_c, 5, 64, 0
9, 134280, Note_on_c, 5, 67, 90
9, 134339, Note_on_c, 5, 67, 0
9, 134340, Note_on_c, 5, 72, 90
9, 134369, Note_on_c, 5, 72, 0
9, 134370, Note_on_c, 5, 71, 90
9, 134399, Note_on_c, 5, 71, 0
9, 134400, Note_on_c, 5, 69, 90
9, 134429, Note_on_c, 5, 69, 0
9, 134430, Note_on_c, 5, 67, 90
9, 134459, Note_on_c, 5, 67, 0
9, 134460, Note_on_c, 5, 69, 90
9, 134519, Note_on_c, 5, 69, 0
9, 134520, Note_on_c, 5, 66, 90
9, 134579, Note_on_c, 5, 66, 0
9, 134580, Note_on_c, 5, 66, 90
9, 134639, Note_on_c, 5, 66, 0
9, 134640, Note_on_c, 5, 69, 90
9, 134699, Note_on_c, 5, 69, 0
9, 134700, Note_on_c, 5, 74, 90
9, 134729, Note_on_c, 5, 74, 0
9, 134730, Note_on_c, 5, 72, 90
9, 134759, Note_on_c, 5, 72, 0
9, 134760, Note_on_c, 5, 71, 90
9, 134789, Note_on_c, 5, 71, 0
9, 134790, Note_on_c, 5, 69, 90
9, 134819, Note_on_c, 5, 69, 0
9, 134820, Note_on_c, 5, 71, 100
9, 134850, Note_on_c, 5, 71, 0
9, 134940, Note_on_c, 5, 74, 100
9, 134970, Note_on_c, 5, 74, 0
9, 135180, Note_on_c, 5, 67, 100
9, 135210, Note_on_c, 5, 67, 0
9, 135300, Note_on_c, 5, 69, 100
9, 135330, Note_on_c, 5, 69, 0
9, 135540, Note_on_c, 5, 67, 100
9, 135570, Note_on_c, 5, 67, 0
9, 135660, Note_on_c, 5, 66, 100
9, 135690, Note_on_c, 5, 66, 0
9, 136260, Note_on_c, 5, 62, 90
9, 136319, Note_on_c, 5, 62, 0
9, 136320, Note_on_c, 5, 65, 90
9, 136379, Note_on_c, 5, 65, 0
9, 136380, Note_on_c, 5, 65, 90
9, 136439, Note_on_c, 5, 65, 0
9, 136440, Note_on_c, 5, 68, 90
9, 136499, Note_on_c, 5, 68, 0
9, 136500, Note_on_c, 5, 67, 90
9, 136529, Note_on_c, 5, 67, 0
9, 136530, Note_on_c, 5, 65, 90
9, 136559, Note_on_c, 5, 65, 0
9, 136560, Note_on_c, 5, 63, 90
9, 136589, Note_on_c, 5, 63, 0
9, 136590, Note_on_c, 5, 62, 90
9, 136619, Note_on_c, 5, 62, 0
9, 136620, Note_on_c, 5, 63, 90
9, 136799, Note_on_c, 5, 63, 0
9, 136800, Note_on_c, 5, 62, 90
9, 136859, Note_on_c, 5, 62, 0
9, 136860, Note_on_c, 5, 63, 90
9, 136979, Note_on_c, 5, 63, 0
9, 136980, Note_on_c, 5, 62, 90
9, 137099, Note_on_c, 5, 62, 0
9, 137520, Note_on_c, 5, 67, 90
9, 137549, Note_on_c, 5, 67, 0
9, 137550, Note_on_c, 5, 69, 90
9, 137579, Note_on_c, 5, 69, 0
9, 137580, Note_on_c, 5, 70, 90
9, 137639, Note_on_c, 5, 70, 0
9, 138060, Note_on_c, 5, 57, 90
9, 138179, Note_on_c, 5, 57, 0
9, 138180, Note_on_c, 5, 62, 90
9, 138419, Note_on_c, 5, 62, 0
9, 138420, Note_on_c, 5, 61, 90
9, 138659, Note_on_c, 5, 61, 0
9, 138660, Note_on_c, 5, 62, 90
9, 139050, Note_on_c, 5, 62, 0
9, 139050, Note_on_c, 5, 64, 90
9, 139079, Note_on_c, 5, 64, 0
9, 139080, Note_on_c, 5, 65, 90
9, 139139, Note_on_c, 5, 65, 0
9, 139140, Note_on_c, 5, 65, 90
9, 139199, Note_on_c, 5, 65, 0
9, 139200, Note_on_c, 5, 64, 90
9, 139259, Note_on_c, 5, 64, 0
9, 139260, Note_on_c, 5, 64, 90
9, 139319, Note_on_c, 5, 64, 0
9, 139320, Note_on_c, 5, 62, 90
9, 139379, Note_on_c, 5, 62, 0
9, 139380, Note_on_c, 5, 60, 90
9, 139410, Note_on_c, 5, 60, 0
9, 139500, Note_on_c, 5, 64, 90
9, 139530, Note_on_c, 5, 64, 0
9, 139740, Note_on_c, 5, 64, 90
9, 139770, Note_on_c, 5, 64, 0
9, 139860, Note_on_c, 5, 62, 90
9, 139890, Note_on_c, 5, 62, 0
9, 140460, Note_on_c, 5, 67, 90
9, 140519, Note_on_c, 5, 67, 0
9, 140520, Note_on_c, 5, 71, 90
9, 140579, Note_on_c, 5, 71, 0
9, 140580, Note_on_c, 5, 71, 90
9, 140639, Note_on_c, 5, 71, 0
9, 140640, Note_on_c, 5, 74, 90
9, 140699, Note_on_c, 5, 74, 0
9, 140700, Note_on_c, 5, 73, 90
9, 140729, Note_on_c, 5, 73, 0
9, 140730, Note_on_c, 5, 71, 90
9, 140759, Note_on_c, 5, 71, 0
9, 140760, Note_on_c, 5, 69, 90
9, 140789, Note_on_c, 5, 69, 0
9, 140790, Note_on_c, 5, 67, 90
9, 140819, Note_on_c, 5, 67, 0
9, 140820, Note_on_c, 5, 66, 90
9, 140879, Note_on_c, 5, 66, 0
9, 140880, Note_on_c, 5, 71, 90
9, 140939, Note_on_c, 5, 71, 0
9, 140940, Note_on_c, 5, 71, 90
9, 140999, Note_on_c, 5, 71, 0
9, 141000, Note_on_c, 5, 76, 90
9, 141059, Note_on_c, 5, 76, 0
9, 141060, Note_on_c, 5, 74, 90
9, 141089, Note_on_c, 5, 74, 0
9, 141090, Note_on_c, 5, 73, 90
9, 141119, Note_on_c, 5, 73, 0
9, 141120, Note_on_c, 5, 71, 90
9, 141149, Note_on_c, 5, 71, 0
9, 141150, Note_on_c, 5, 69, 90
9, 141179, Note_on_c, 5, 69, 0
9, 141180, Note_on_c, 5, 81, 90
9, 141659, Note_on_c, 5, 81, 0
9, 141660, Note_on_c, 5, 79, 90
9, 141719, Note_on_c, 5, 79, 0
9, 141720, Note_on_c, 5, 78, 90
9, 141779, Note_on_c, 5, 78, 0
9, 141780, Note_on_c, 5, 79, 90
9, 141899, Note_on_c, 5, 79, 0
9, 141900, Note_on_c, 5, 78, 90
9, 142019, Note_on_c, 5, 78, 0
9, 142440, Note_on_c, 5, 68, 90
9, 142469, Note_on_c, 5, 68, 0
9, 142470, Note_on_c, 5, 69, 90
9, 142499, Note_on_c, 5, 69, 0
9, 142500, Note_on_c, 5, 71, 90
9, 142559, Note_on_c, 5, 71, 0
9, 143220, Note_on_c, 5, 57, 90
9, 143279, Note_on_c, 5, 57, 0
9, 143280, Note_on_c, 5, 61, 90
9, 143339, Note_on_c, 5, 61, 0
9, 143340, Note_on_c, 5, 61, 90
9, 143399, Note_on_c, 5, 61, 0
9, 143400, Note_on_c, 5, 64, 90
9, 143459, Note_on_c, 5, 64, 0
9, 143460, Note_on_c, 5, 62, 90
9, 143489, Note_on_c, 5, 62, 0
9, 143490, Note_on_c, 5, 61, 90
9, 143519, Note_on_c, 5, 61, 0
9, 143520, Note_on_c, 5, 59, 90
9, 143549, Note_on_c, 5, 59, 0
9, 143550, Note_on_c, 5, 57, 90
9, 143579, Note_on_c, 5, 57, 0
9, 143580, Note_on_c, 5, 62, 90
9, 143639, Note_on_c, 5, 62, 0
9, 143640, Note_on_c, 5, 66, 90
9, 143699, Note_on_c, 5, 66, 0
9, 143700, Note_on_c, 5, 66, 90
9, 143759, Note_on_c, 5, 66, 0
9, 143760, Note_on_c, 5, 69, 90
9, 143819, Note_on_c, 5, 69, 0
9, 143820, Note_on_c, 5, 67, 90
9, 143849, Note_on_c, 5, 67, 0
9, 143850, Note_on_c, 5, 66, 90
9, 143879, Note_on_c, 5, 66, 0
9, 143880, Note_on_c, 5, 64, 90
9, 143909, Note_on_c, 5, 64, 0
9, 143910, Note_on_c, 5, 62, 90
9, 143939, Note_on_c, 5, 62, 0
9, 143940, Note_on_c, 5, 71, 90
9, 144119, Note_on_c, 5, 71, 0
9, 144120, Note_on_c, 5, 69, 90
9, 144179, Note_on_c, 5, 69, 0
9, 144180, Note_on_c, 5, 71, 90
9, 144299, Note_on_c, 5, 71, 0
9, 144300, Note_on_c, 5, 64, 90
9, 144419, Note_on_c, 5, 64, 0
9, 144660, Note_on_c, 5, 62, 90
9, 144719, Note_on_c, 5, 62, 0
9, 144720, Note_on_c, 5, 66, 90
9, 144779, Note_on_c, 5, 66, 0
9, 144780, Note_on_c, 5, 66, 90
9, 144839, Note_on_c, 5, 66, 0
9, 144840, Note_on_c, 5, 69, 90
9, 144899, Note_on_c, 5, 69, 0
9, 144900, Note_on_c, 5, 67, 90
9, 144929, Note_on_c, 5, 67, 0
9, 144930, Note_on_c, 5, 66, 90
9, 144959, Note_on_c, 5, 66, 0
9, 144960, Note_on_c, 5, 64, 90
9, 144989, Note_on_c, 5, 64, 0
9, 144990, Note_on_c, 5, 62, 90
9, 145019, Note_on_c, 5, 62, 0
9, 145020, Note_on_c, 5, 64, 90
9, 145079, Note_on_c, 5, 64, 0
9, 145080, Note_on_c, 5, 62, 90
9, 145139, Note_on_c, 5, 62, 0
9, 145140, Note_on_c, 5, 62, 90
9, 145199, Note_on_c, 5, 62, 0
9, 145200, Note_on_c, 5, 60, 90
9, 145259, Note_on_c, 5, 60, 0
9, 145260, Note_on_c, 5, 60, 90
9, 145319, Note_on_c, 5, 60, 0
9, 145320, Note_on_c, 5, 59, 90
9, 145379, Note_on_c, 5, 59, 0
9, 145380, Note_on_c, 5, 59, 90
9, 145439, Note_on_c, 5, 59, 0
9, 145440, Note_on_c, 5, 67, 90
9, 145499, Note_on_c, 5, 67, 0
9, 145500, Note_on_c, 5, 67, 90
9, 145559, Note_on_c, 5, 67, 0
9, 145560, Note_on_c, 5, 66, 90
9, 145619, Note_on_c, 5, 66, 0
9, 145620, Note_on_c, 5, 67, 90
9, 145679, Note_on_c, 5, 67, 0
9, 145680, Note_on_c, 5, 62, 90
9, 145739, Note_on_c, 5, 62, 0
9, 145800, Note_on_c, 5, 62, 90
9, 145859, Note_on_c, 5, 62, 0
9, 145860, Note_on_c, 5, 62, 90
9, 145919, Note_on_c, 5, 62, 0
9, 145920, Note_on_c, 5, 66, 90
9, 145979, Note_on_c, 5, 66, 0
9, 145980, Note_on_c, 5, 66, 90
9, 146039, Note_on_c, 5, 66, 0
9, 146040, Note_on_c, 5, 69, 90
9, 146099, Note_on_c, 5, 69, 0
9, 146100, Note_on_c, 5, 63, 90
9, 146219, Note_on_c, 5, 63, 0
9, 146340, Note_on_c, 5, 64, 90
9, 146459, Note_on_c, 5, 64, 0
9, 146520, Note_on_c, 5, 67, 90
9, 146549, Note_on_c, 5, 67, 0
9, 146550, Note_on_c, 5, 69, 90
9, 146579, Note_on_c, 5, 69, 0
9, 146580, Note_on_c, 5, 70, 90
9, 146639, Note_on_c, 5, 70, 0
9, 146850, Note_on_c, 5, 67, 90
9, 146879, Note_on_c, 5, 67, 0
9, 146880, Note_on_c, 5, 66, 90
9, 146909, Note_on_c, 5, 66, 0
9, 146910, Note_on_c, 5, 64, 90
9, 146939, Note_on_c, 5, 64, 0
9, 146940, Note_on_c, 5, 62, 90
9, 146969, Note_on_c, 5, 62, 0
9, 146970, Note_on_c, 5, 60, 90
9, 146999, Note_on_c, 5, 60, 0
9, 147000, Note_on_c, 5, 59, 90
9, 147029, Note_on_c, 5, 59, 0
9, 147030, Note_on_c, 5, 57, 90
9, 147059, Note_on_c, 5, 57, 0
9, 147060, Note_on_c, 5, 59, 90
9, 147119, Note_on_c, 5, 59, 0
9, 147120, Note_on_c, 5, 62, 90
9, 147179, Note_on_c, 5, 62, 0
9, 147180, Note_on_c, 5, 62, 90
9, 147239, Note_on_c, 5, 62, 0
9, 147240, Note_on_c, 5, 65, 90
9, 147299, Note_on_c, 5, 65, 0
9, 147300, Note_on_c, 5, 64, 90
9, 147329, Note_on_c, 5, 64, 0
9, 147330, Note_on_c, 5, 62, 90
9, 147359, Note_on_c, 5, 62, 0
9, 147360, Note_on_c, 5, 60, 90
9, 147389, Note_on_c, 5, 60, 0
9, 147390, Note_on_c, 5, 59, 90
9, 147419, Note_on_c, 5, 59, 0
9, 147420, Note_on_c, 5, 64, 90
9, 147539, Note_on_c, 5, 64, 0
9, 147780, Note_on_c, 5, 62, 90
9, 147839, Note_on_c, 5, 62, 0
9, 147840, Note_on_c, 5, 67, 90
9, 147899, Note_on_c, 5, 67, 0
9, 147900, Note_on_c, 5, 67, 90
9, 147959, Note_on_c, 5, 67, 0
9, 147960, Note_on_c, 5, 71, 90
9, 148019, Note_on_c, 5, 71, 0
9, 148020, Note_on_c, 5, 62, 90
9, 148079, Note_on_c, 5, 62, 0
9, 148080, Note_on_c, 5, 67, 90
9, 148139, Note_on_c, 5, 67, 0
9, 148140, Note_on_c, 5, 67, 90
9, 148199, Note_on_c, 5, 67, 0
9, 148200, Note_on_c, 5, 66, 90
9, 148259, Note_on_c, 5, 66, 0
9, 148260, Note_on_c, 5, 66, 90
9, 148289, Note_on_c, 5, 66, 0
9, 148290, Note_on_c, 5, 64, 90
9, 148319, Note_on_c, 5, 64, 0
9, 148320, Note_on_c, 5, 62, 90
9, 148379, Note_on_c, 5, 62, 0
9, 148380, Note_on_c, 5, 62, 90
9, 148529, Note_on_c, 5, 62, 0
9, 148530, Note_on_c, 5, 64, 90
9, 148559, Note_on_c, 5, 64, 0
9, 148560, Note_on_c, 5, 65, 90
9, 148589, Note_on_c, 5, 65, 0
9, 148620, Note_on_c, 5, 65, 90
9, 148679, Note_on_c, 5, 65, 0
9, 148680, Note_on_c, 5, 64, 90
9, 148739, Note_on_c, 5, 64, 0
9, 148740, Note_on_c, 5, 64, 90
9, 148799, Note_on_c, 5, 64, 0
9, 148800, Note_on_c, 5, 62, 90
9, 148859, Note_on_c, 5, 62, 0
9, 148860, Note_on_c, 5, 62, 90
9, 148889, Note_on_c, 5, 62, 0
9, 148890, Note_on_c, 5, 64, 90
9, 148919, Note_on_c, 5, 64, 0
9, 148920, Note_on_c, 5, 62, 90
9, 148949, Note_on_c, 5, 62, 0
9, 148950, Note_on_c, 5, 59, 90
9, 148979, Note_on_c, 5, 59, 0
9, 148980, Note_on_c, 5, 59, 90
9, 149039, Note_on_c, 5, 59, 0
9, 149040, Note_on_c, 5, 60, 90
9, 149279, Note_on_c, 5, 60, 0
9, 149280, Note_on_c, 5, 62, 90
9, 149309, Note_on_c, 5, 62, 0
9, 149310, Note_on_c, 5, 64, 90
9, 149339, Note_on_c, 5, 64, 0
9, 149340, Note_on_c, 5, 64, 90
9, 149399, Note_on_c, 5, 64, 0
9, 149400, Note_on_c, 5, 62, 90
9, 149459, Note_on_c, 5, 62, 0
9, 149460, Note_on_c, 5, 62, 90
9, 149519, Note_on_c, 5, 62, 0
9, 149520, Note_on_c, 5, 60, 90
9, 149579, Note_on_c, 5, 60, 0
9, 149580, Note_on_c, 5, 60, 90
9, 149609, Note_on_c, 5, 60, 0
9, 149610, Note_on_c, 5, 62, 90
9, 149639, Note_on_c, 5, 62, 0
9, 149640, Note_on_c, 5, 60, 90
9, 149669, Note_on_c, 5, 60, 0
9, 149670, Note_on_c, 5, 57, 90
9, 149699, Note_on_c, 5, 57, 0
9, 149700, Note_on_c, 5, 57, 90
9, 149759, Note_on_c, 5, 57, 0
9, 149760, Note_on_c, 5, 59, 90
9, 149939, Note_on_c, 5, 59, 0
9, 149940, Note_on_c, 5, 57, 90
9, 149969, Note_on_c, 5, 57, 0
9, 149970, Note_on_c, 5, 59, 90
9, 149999, Note_on_c, 5, 59, 0
9, 150000, Note_on_c, 5, 60, 90
9, 150029, Note_on_c, 5, 60, 0
9, 150030, Note_on_c, 5, 59, 90
9, 150059, Note_on_c, 5, 59, 0
9, 150060, Note_on_c, 5, 57, 90
9, 150119, Note_on_c, 5, 57, 0
9, 150120, Note_on_c, 5, 64, 90
9, 150149, Note_on_c, 5, 64, 0
9, 150180, Note_on_c, 5, 64, 90
9, 150209, Note_on_c, 5, 64, 0
9, 150240, Note_on_c, 5, 57, 90
9, 150269, Note_on_c, 5, 57, 0
9, 150300, Note_on_c, 5, 57, 90
9, 150329, Note_on_c, 5, 57, 0
9, 150330, Note_on_c, 5, 59, 90
9, 150359, Note_on_c, 5, 59, 0
9, 150360, Note_on_c, 5, 60, 90
9, 150389, Note_on_c, 5, 60, 0
9, 150390, Note_on_c, 5, 59, 90
9, 150419, Note_on_c, 5, 59, 0
9, 150420, Note_on_c, 5, 57, 90
9, 150479, Note_on_c, 5, 57, 0
9, 150480, Note_on_c, 5, 67, 90
9, 150509, Note_on_c, 5, 67, 0
9, 150540, Note_on_c, 5, 67, 90
9, 150569, Note_on_c, 5, 67, 0
9, 150600, Note_on_c, 5, 57, 90
9, 150629, Note_on_c, 5, 57, 0
9, 150660, Note_on_c, 5, 59, 90
9, 150689, Note_on_c, 5, 59, 0
9, 150690, Note_on_c, 5, 67, 90
9, 150719, Note_on_c, 5, 67, 0
9, 150720, Note_on_c, 5, 66, 90
9, 150749, Note_on_c, 5, 66, 0
9, 150750, Note_on_c, 5, 64, 90
9, 150779, Note_on_c, 5, 64, 0
9, 150780, Note_on_c, 5, 62, 90
9, 150839, Note_on_c, 5, 62, 0
9, 150840, Note_on_c, 5, 60, 90
9, 150899, Note_on_c, 5, 60, 0
9, 150900, Note_on_c, 5, 59, 90
9, 150959, Note_on_c, 5, 59, 0
9, 150960, Note_on_c, 5, 57, 90
9, 151019, Note_on_c, 5, 57, 0
9, 151020, Note_on_c, 5, 59, 90
9, 151379, Note_on_c, 5, 59, 0
9, 199980, Note_on_c, 5, 74, 90
9, 200099, Note_on_c, 5, 74, 0
9, 200100, Note_on_c, 5, 73, 90
9, 200219, Note_on_c, 5, 73, 0
9, 200220, Note_on_c, 5, 71, 90
9, 200339, Note_on_c, 5, 71, 0
9, 200340, Note_on_c, 5, 73, 90
9, 200459, Note_on_c, 5, 73, 0
9, 200460, Note_on_c, 5, 69, 90
9, 200579, Note_on_c, 5, 69, 0
9, 200580, Note_on_c, 5, 71, 90
9, 200699, Note_on_c, 5, 71, 0
9, 200700, Note_on_c, 5, 73, 90
9, 200819, Note_on_c, 5, 73, 0
9, 200820, Note_on_c, 5, 74, 90
9, 200939, Note_on_c, 5, 74, 0
9, 201660, Note_on_c, 5, 74, 90
9, 201779, Note_on_c, 5, 74, 0
9, 201780, Note_on_c, 5, 74, 90
9, 201899, Note_on_c, 5, 74, 0
9, 201900, Note_on_c, 5, 69, 90
9, 202019, Note_on_c, 5, 69, 0
9, 202020, Note_on_c, 5, 69, 90
9, 202139, Note_on_c, 5, 69, 0
9, 202140, Note_on_c, 5, 66, 90
9, 202199, Note_on_c, 5, 66, 0
9, 202200, Note_on_c, 5, 67, 90
9, 202259, Note_on_c, 5, 67, 0
9, 202260, Note_on_c, 5, 69, 90
9, 202379, Note_on_c, 5, 69, 0
9, 202380, Note_on_c, 5, 67, 90
9, 202499, Note_on_c, 5, 67, 0
9, 202500, Note_on_c, 5, 66, 90
9, 202619, Note_on_c, 5, 66, 0
9, 203340, Note_on_c, 5, 66, 90
9, 203459, Note_on_c, 5, 66, 0
9, 203460, Note_on_c, 5, 71, 90
9, 203579, Note_on_c, 5, 71, 0
9, 203580, Note_on_c, 5, 71, 90
9, 203699, Note_on_c, 5, 71, 0
9, 203700, Note_on_c, 5, 69, 90
9, 203759, Note_on_c, 5, 69, 0
9, 203760, Note_on_c, 5, 71, 90
9, 203819, Note_on_c, 5, 71, 0
9, 203820, Note_on_c, 5, 73, 90
9, 203939, Note_on_c, 5, 73, 0
9, 203940, Note_on_c, 5, 74, 90
9, 203999, Note_on_c, 5, 74, 0
9, 204000, Note_on_c, 5, 73, 90
9, 204059, Note_on_c, 5, 73, 0
9, 204060, Note_on_c, 5, 71, 90
9, 204179, Note_on_c, 5, 71, 0
9, 204180, Note_on_c, 5, 69, 90
9, 204299, Note_on_c, 5, 69, 0
9, 205020, Note_on_c, 5, 74, 90
9, 205139, Note_on_c, 5, 74, 0
9, 205140, Note_on_c, 5, 73, 90
9, 205259, Note_on_c, 5, 73, 0
9, 205260, Note_on_c, 5, 71, 90
9, 205379, Note_on_c, 5, 71, 0
9, 205380, Note_on_c, 5, 69, 90
9, 205499, Note_on_c, 5, 69, 0
9, 205500, Note_on_c, 5, 71, 90
9, 205559, Note_on_c, 5, 71, 0
9, 205560, Note_on_c, 5, 69, 90
9, 205619, Note_on_c, 5, 69, 0
9, 205620, Note_on_c, 5, 67, 90
9, 205679, Note_on_c, 5, 67, 0
9, 205680, Note_on_c, 5, 66, 90
9, 205739, Note_on_c, 5, 66, 0
9, 205740, Note_on_c, 5, 64, 90
9, 205859, Note_on_c, 5, 64, 0
9, 205860, Note_on_c, 5, 62, 90
9, 205979, Note_on_c, 5, 62, 0
9, 205979, End_track
10, 0, Start_track
10, 0, MIDI_port, 0
10, 0, Title_t, "Violino I"
10, 0, Program_c, 6, 48
10, 735, Note_on_c, 6, 86, 90
10, 749, Note_on_c, 6, 86, 0
10, 750, Note_on_c, 6, 85, 90
10, 764, Note_on_c, 6, 85, 0
10, 765, Note_on_c, 6, 83, 90
10, 779, Note_on_c, 6, 83, 0
10, 780, Note_on_c, 6, 81, 90
10, 794, Note_on_c, 6, 81, 0
10, 795, Note_on_c, 6, 86, 90
10, 809, Note_on_c, 6, 86, 0
10, 810, Note_on_c, 6, 85, 90
10, 824, Note_on_c, 6, 85, 0
10, 825, Note_on_c, 6, 83, 90
10, 839, Note_on_c, 6, 83, 0
10, 840, Note_on_c, 6, 81, 90
10, 854, Note_on_c, 6, 81, 0
10, 855, Note_on_c, 6, 79, 90
10, 869, Note_on_c, 6, 79, 0
10, 870, Note_on_c, 6, 78, 90
10, 884, Note_on_c, 6, 78, 0
10, 885, Note_on_c, 6, 76, 90
10, 899, Note_on_c, 6, 76, 0
10, 900, Note_on_c, 6, 78, 90
10, 914, Note_on_c, 6, 78, 0
10, 915, Note_on_c, 6, 74, 90
10, 929, Note_on_c, 6, 74, 0
10, 930, Note_on_c, 6, 73, 90
10, 944, Note_on_c, 6, 73, 0
10, 945, Note_on_c, 6, 71, 90
10, 959, Note_on_c, 6, 71, 0
10, 960, Note_on_c, 6, 69, 90
10, 974, Note_on_c, 6, 69, 0
10, 975, Note_on_c, 6, 74, 90
10, 989, Note_on_c, 6, 74, 0
10, 990, Note_on_c, 6, 73, 90
10, 1004, Note_on_c, 6, 73, 0
10, 1005, Note_on_c, 6, 71, 90
10, 1019, Note_on_c, 6, 71, 0
10, 1020, Note_on_c, 6, 69, 90
10, 1034, Note_on_c, 6, 69, 0
10, 1035, Note_on_c, 6, 67, 90
10, 1049, Note_on_c, 6, 67, 0
10, 1050, Note_on_c, 6, 66, 90
10, 1064, Note_on_c, 6, 66, 0
10, 1065, Note_on_c, 6, 64, 90
10, 1079, Note_on_c, 6, 64, 0
10, 1080, Note_on_c, 6, 66, 90
10, 1094, Note_on_c, 6, 66, 0
10, 1095, Note_on_c, 6, 71, 90
10, 1109, Note_on_c, 6, 71, 0
10, 1110, Note_on_c, 6, 69, 90
10, 1124, Note_on_c, 6, 69, 0
10, 1125, Note_on_c, 6, 67, 90
10, 1139, Note_on_c, 6, 67, 0
10, 1140, Note_on_c, 6, 66, 90
10, 1154, Note_on_c, 6, 66, 0
10, 1155, Note_on_c, 6, 71, 90
10, 1169, Note_on_c, 6, 71, 0
10, 1170, Note_on_c, 6, 69, 90
10, 1184, Note_on_c, 6, 69, 0
10, 1185, Note_on_c, 6, 67, 90
10, 1199, Note_on_c, 6, 67, 0
10, 1200, Note_on_c, 6, 66, 90
10, 1214, Note_on_c, 6, 66, 0
10, 1215, Note_on_c, 6, 64, 90
10, 1229, Note_on_c, 6, 64, 0
10, 1230, Note_on_c, 6, 62, 90
10, 1244, Note_on_c, 6, 62, 0
10, 1245, Note_on_c, 6, 61, 90
10, 1259, Note_on_c, 6, 61, 0
10, 1260, Note_on_c, 6, 62, 90
10, 1274, Note_on_c, 6, 62, 0
10, 1275, Note_on_c, 6, 59, 90
10, 1289, Note_on_c, 6, 59, 0
10, 1290, Note_on_c, 6, 57, 90
10, 1304, Note_on_c, 6, 57, 0
10, 1305, Note_on_c, 6, 55, 90
10, 1319, Note_on_c, 6, 55, 0
10, 1320, Note_on_c, 6, 57, 90
10, 1334, Note_on_c, 6, 57, 0
10, 1335, Note_on_c, 6, 59, 90
10, 1349, Note_on_c, 6, 59, 0
10, 1350, Note_on_c, 6, 57, 90
10, 1364, Note_on_c, 6, 57, 0
10, 1365, Note_on_c, 6, 55, 90
10, 1379, Note_on_c, 6, 55, 0
10, 1380, Note_on_c, 6, 57, 90
10, 1394, Note_on_c, 6, 57, 0
10, 1395, Note_on_c, 6, 59, 90
10, 1409, Note_on_c, 6, 59, 0
10, 1410, Note_on_c, 6, 57, 90
10, 1424, Note_on_c, 6, 57, 0
10, 1425, Note_on_c, 6, 55, 90
10, 1439, Note_on_c, 6, 55, 0
10, 1440, Note_on_c, 6, 57, 90
10, 1457, Note_on_c, 6, 57, 0
10, 1470, Note_on_c, 6, 57, 90
10, 1487, Note_on_c, 6, 57, 0
10, 1500, Note_on_c, 6, 57, 90
10, 1517, Note_on_c, 6, 57, 0
10, 1530, Note_on_c, 6, 57, 90
10, 1547, Note_on_c, 6, 57, 0
10, 1560, Note_on_c, 6, 57, 90
10, 1577, Note_on_c, 6, 57, 0
10, 1590, Note_on_c, 6, 57, 90
10, 1607, Note_on_c, 6, 57, 0
10, 1620, Note_on_c, 6, 57, 90
10, 1637, Note_on_c, 6, 57, 0
10, 1650, Note_on_c, 6, 57, 90
10, 1667, Note_on_c, 6, 57, 0
10, 1680, Note_on_c, 6, 57, 90
10, 1697, Note_on_c, 6, 57, 0
10, 1710, Note_on_c, 6, 57, 90
10, 1727, Note_on_c, 6, 57, 0
10, 1740, Note_on_c, 6, 57, 90
10, 1757, Note_on_c, 6, 57, 0
10, 1770, Note_on_c, 6, 57, 90
10, 1787, Note_on_c, 6, 57, 0
10, 1800, Note_on_c, 6, 57, 90
10, 1817, Note_on_c, 6, 57, 0
10, 1830, Note_on_c, 6, 57, 90
10, 1847, Note_on_c, 6, 57, 0
10, 1860, Note_on_c, 6, 57, 90
10, 1877, Note_on_c, 6, 57, 0
10, 1890, Note_on_c, 6, 57, 90
10, 1907, Note_on_c, 6, 57, 0
10, 1920, Note_on_c, 6, 57, 90
10, 1937, Note_on_c, 6, 57, 0
10, 1950, Note_on_c, 6, 57, 90
10, 1967, Note_on_c, 6, 57, 0
10, 1980, Note_on_c, 6, 57, 90
10, 1997, Note_on_c, 6, 57, 0
10, 2010, Note_on_c, 6, 57, 90
10, 2027, Note_on_c, 6, 57, 0
10, 2040, Note_on_c, 6, 57, 90
10, 2057, Note_on_c, 6, 57, 0
10, 2070, Note_on_c, 6, 57, 90
10, 2087, Note_on_c, 6, 57, 0
10, 2100, Note_on_c, 6, 78, 90
10, 2129, Note_on_c, 6, 78, 0
10, 2130, Note_on_c, 6, 79, 90
10, 2159, Note_on_c, 6, 79, 0
10, 2160, Note_on_c, 6, 81, 90
10, 2189, Note_on_c, 6, 81, 0
10, 2220, Note_on_c, 6, 72, 90
10, 2249, Note_on_c, 6, 72, 0
10, 2280, Note_on_c, 6, 72, 90
10, 2309, Note_on_c, 6, 72, 0
10, 2340, Note_on_c, 6, 72, 90
10, 2355, Note_on_c, 6, 72, 0
10, 2355, Note_on_c, 6, 74, 90
10, 2370, Note_on_c, 6, 74, 0
10, 2370, Note_on_c, 6, 72, 90
10, 2400, Note_on_c, 6, 72, 0
10, 2400, Note_on_c, 6, 71, 90
10, 2459, Note_on_c, 6, 71, 0
10, 2460, Note_on_c, 6, 79, 90
10, 2519, Note_on_c, 6, 79, 0
10, 2520, Note_on_c, 6, 78, 90
10, 2579, Note_on_c, 6, 78, 0
10, 2580, Note_on_c, 6, 76, 90
10, 2639, Note_on_c, 6, 76, 0
10, 2640, Note_on_c, 6, 74, 90
10, 2699, Note_on_c, 6, 74, 0
10, 2700, Note_on_c, 6, 81, 90
10, 2819, Note_on_c, 6, 81, 0
10, 2820, Note_on_c, 6, 76, 100
10, 2880, Note_on_c, 6, 76, 0
10, 2880, Note_on_c, 6, 75, 90
10, 2909, Note_on_c, 6, 75, 0
10, 2910, Note_on_c, 6, 78, 90
10, 2939, Note_on_c, 6, 78, 0
10, 2940, Note_on_c, 6, 81, 90
10, 3059, Note_on_c, 6, 81, 0
10, 3060, Note_on_c, 6, 72, 90
10, 3074, Note_on_c, 6, 72, 0
10, 3075, Note_on_c, 6, 71, 90
10, 3089, Note_on_c, 6, 71, 0
10, 3090, Note_on_c, 6, 69, 90
10, 3119, Note_on_c, 6, 69, 0
10, 3120, Note_on_c, 6, 69, 90
10, 3149, Note_on_c, 6, 69, 0
10, 3150, Note_on_c, 6, 71, 90
10, 3270, Note_on_c, 6, 71, 0
10, 3270, Note_on_c, 6, 73, 90
10, 3284, Note_on_c, 6, 73, 0
10, 3285, Note_on_c, 6, 75, 90
10, 3299, Note_on_c, 6, 75, 0
10, 3300, Note_on_c, 6, 76, 90
10, 3329, Note_on_c, 6, 76, 0
10, 3330, Note_on_c, 6, 78, 90
10, 3344, Note_on_c, 6, 78, 0
10, 3345, Note_on_c, 6, 80, 90
10, 3359, Note_on_c, 6, 80, 0
10, 3360, Note_on_c, 6, 81, 90
10, 3449, Note_on_c, 6, 81, 0
10, 3450, Note_on_c, 6, 79, 90
10, 3464, Note_on_c, 6, 79, 0
10, 3465, Note_on_c, 6, 78, 90
10, 3479, Note_on_c, 6, 78, 0
10, 3480, Note_on_c, 6, 79, 90
10, 3509, Note_on_c, 6, 79, 0
10, 3510, Note_on_c, 6, 78, 90
10, 3524, Note_on_c, 6, 78, 0
10, 3525, Note_on_c, 6, 76, 90
10, 3539, Note_on_c, 6, 76, 0
10, 3540, Note_on_c, 6, 79, 90
10, 3569, Note_on_c, 6, 79, 0
10, 3570, Note_on_c, 6, 76, 90
10, 3584, Note_on_c, 6, 76, 0
10, 3585, Note_on_c, 6, 78, 90
10, 3599, Note_on_c, 6, 78, 0
10, 3600, Note_on_c, 6, 79, 90
10, 3629, Note_on_c, 6, 79, 0
10, 3630, Note_on_c, 6, 83, 90
10, 3644, Note_on_c, 6, 83, 0
10, 3645, Note_on_c, 6, 81, 90
10, 3659, Note_on_c, 6, 81, 0
10, 3660, Note_on_c, 6, 79, 90
10, 3689, Note_on_c, 6, 79, 0
10, 3690, Note_on_c, 6, 83, 90
10, 3704, Note_on_c, 6, 83, 0
10, 3705, Note_on_c, 6, 81, 90
10, 3719, Note_on_c, 6, 81, 0
10, 3720, Note_on_c, 6, 79, 90
10, 3809, Note_on_c, 6, 79, 0
10, 3810, Note_on_c, 6, 76, 90
10, 3824, Note_on_c, 6, 76, 0
10, 3825, Note_on_c, 6, 78, 90
10, 3839, Note_on_c, 6, 78, 0
10, 3840, Note_on_c, 6, 79, 90
10, 3869, Note_on_c, 6, 79, 0
10, 3870, Note_on_c, 6, 76, 90
10, 3884, Note_on_c, 6, 76, 0
10, 3885, Note_on_c, 6, 78, 90
10, 3899, Note_on_c, 6, 78, 0
10, 3900, Note_on_c, 6, 79, 90
10, 3989, Note_on_c, 6, 79, 0
10, 3990, Note_on_c, 6, 78, 90
10, 4004, Note_on_c, 6, 78, 0
10, 4005, Note_on_c, 6, 79, 90
10, 4019, Note_on_c, 6, 79, 0
10, 4020, Note_on_c, 6, 81, 90
10, 4049, Note_on_c, 6, 81, 0
10, 4050, Note_on_c, 6, 79, 90
10, 4064, Note_on_c, 6, 79, 0
10, 4065, Note_on_c, 6, 78, 90
10, 4079, Note_on_c, 6, 78, 0
10, 4080, Note_on_c, 6, 79, 90
10, 4109, Note_on_c, 6, 79, 0
10, 4110, Note_on_c, 6, 78, 90
10, 4124, Note_on_c, 6, 78, 0
10, 4125, Note_on_c, 6, 76, 90
10, 4139, Note_on_c, 6, 76, 0
10, 4140, Note_on_c, 6, 78, 90
10, 4169, Note_on_c, 6, 78, 0
10, 4170, Note_on_c, 6, 81, 90
10, 4184, Note_on_c, 6, 81, 0
10, 4185, Note_on_c, 6, 79, 90
10, 4199, Note_on_c, 6, 79, 0
10, 4200, Note_on_c, 6, 78, 90
10, 4229, Note_on_c, 6, 78, 0
10, 4230, Note_on_c, 6, 81, 90
10, 4244, Note_on_c, 6, 81, 0
10, 4245, Note_on_c, 6, 79, 90
10, 4259, Note_on_c, 6, 79, 0
10, 4260, Note_on_c, 6, 78, 90
10, 4349, Note_on_c, 6, 78, 0
10, 4350, Note_on_c, 6, 83, 90
10, 4364, Note_on_c, 6, 83, 0
10, 4380, Note_on_c, 6, 83, 90
10, 4394, Note_on_c, 6, 83, 0
10, 4410, Note_on_c, 6, 78, 90
10, 4424, Note_on_c, 6, 78, 0
10, 4440, Note_on_c, 6, 78, 90
10, 4454, Note_on_c, 6, 78, 0
10, 4470, Note_on_c, 6, 74, 90
10, 4484, Note_on_c, 6, 74, 0
10, 4500, Note_on_c, 6, 74, 90
10, 4514, Note_on_c, 6, 74, 0
10, 4515, Note_on_c, 6, 78, 90
10, 4529, Note_on_c, 6, 78, 0
10, 4530, Note_on_c, 6, 80, 90
10, 4544, Note_on_c, 6, 80, 0
10, 4545, Note_on_c, 6, 81, 90
10, 4559, Note_on_c, 6, 81, 0
10, 4560, Note_on_c, 6, 83, 90
10, 4574, Note_on_c, 6, 83, 0
10, 4575, Note_on_c, 6, 85, 90
10, 4589, Note_on_c, 6, 85, 0
10, 4590, Note_on_c, 6, 83, 90
10, 4604, Note_on_c, 6, 83, 0
10, 4605, Note_on_c, 6, 81, 90
10, 4619, Note_on_c, 6, 81, 0
10, 4620, Note_on_c, 6, 80, 90
10, 4634, Note_on_c, 6, 80, 0
10, 4635, Note_on_c, 6, 78, 90
10, 4649, Note_on_c, 6, 78, 0
10, 4650, Note_on_c, 6, 76, 90
10, 4664, Note_on_c, 6, 76, 0
10, 4665, Note_on_c, 6, 74, 90
10, 4679, Note_on_c, 6, 74, 0
10, 4680, Note_on_c, 6, 73, 90
10, 4694, Note_on_c, 6, 73, 0
10, 4710, Note_on_c, 6, 81, 90
10, 4724, Note_on_c, 6, 81, 0
10, 4740, Note_on_c, 6, 81, 90
10, 4754, Note_on_c, 6, 81, 0
10, 4770, Note_on_c, 6, 76, 90
10, 4784, Note_on_c, 6, 76, 0
10, 4800, Note_on_c, 6, 76, 90
10, 4814, Note_on_c, 6, 76, 0
10, 4830, Note_on_c, 6, 72, 90
10, 4844, Note_on_c, 6, 72, 0
10, 4860, Note_on_c, 6, 72, 90
10, 4874, Note_on_c, 6, 72, 0
10, 4875, Note_on_c, 6, 76, 90
10, 4889, Note_on_c, 6, 76, 0
10, 4890, Note_on_c, 6, 78, 90
10, 4904, Note_on_c, 6, 78, 0
10, 4905, Note_on_c, 6, 79, 90
10, 4919, Note_on_c, 6, 79, 0
10, 4920, Note_on_c, 6, 81, 90
10, 4934, Note_on_c, 6, 81, 0
10, 4935, Note_on_c, 6, 83, 90
10, 4949, Note_on_c, 6, 83, 0
10, 4950, Note_on_c, 6, 81, 90
10, 4964, Note_on_c, 6, 81, 0
10, 4965, Note_on_c, 6, 79, 90
10, 4979, Note_on_c, 6, 79, 0
10, 4980, Note_on_c, 6, 78, 90
10, 4994, Note_on_c, 6, 78, 0
10, 4995, Note_on_c, 6, 76, 90
10, 5009, Note_on_c, 6, 76, 0
10, 5010, Note_on_c, 6, 74, 90
10, 5024, Note_on_c, 6, 74, 0
10, 5025, Note_on_c, 6, 72, 90
10, 5039, Note_on_c, 6, 72, 0
10, 5040, Note_on_c, 6, 71, 90
10, 5054, Note_on_c, 6, 71, 0
10, 5055, Note_on_c, 6, 67, 90
10, 5069, Note_on_c, 6, 67, 0
10, 5070, Note_on_c, 6, 69, 90
10, 5084, Note_on_c, 6, 69, 0
10, 5085, Note_on_c, 6, 71, 90
10, 5099, Note_on_c, 6, 71, 0
10, 5100, Note_on_c, 6, 73, 90
10, 5114, Note_on_c, 6, 73, 0
10, 5115, Note_on_c, 6, 69, 90
10, 5129, Note_on_c, 6, 69, 0
10, 5130, Note_on_c, 6, 71, 90
10, 5144, Note_on_c, 6, 71, 0
10, 5145, Note_on_c, 6, 73, 90
10, 5159, Note_on_c, 6, 73, 0
10, 5160, Note_on_c, 6, 74, 90
10, 5174, Note_on_c, 6, 74, 0
10, 5175, Note_on_c, 6, 71, 90
10, 5189, Note_on_c, 6, 71, 0
10, 5190, Note_on_c, 6, 73, 90
10, 5204, Note_on_c, 6, 73, 0
10, 5205, Note_on_c, 6, 74, 90
10, 5219, Note_on_c, 6, 74, 0
10, 5220, Note_on_c, 6, 76, 90
10, 5234, Note_on_c, 6, 76, 0
10, 5235, Note_on_c, 6, 73, 90
10, 5249, Note_on_c, 6, 73, 0
10, 5250, Note_on_c, 6, 74, 90
10, 5264, Note_on_c, 6, 74, 0
10, 5265, Note_on_c, 6, 76, 90
10, 5279, Note_on_c, 6, 76, 0
10, 5280, Note_on_c, 6, 78, 90
10, 5294, Note_on_c, 6, 78, 0
10, 5295, Note_on_c, 6, 74, 90
10, 5309, Note_on_c, 6, 74, 0
10, 5310, Note_on_c, 6, 76, 90
10, 5324, Note_on_c, 6, 76, 0
10, 5325, Note_on_c, 6, 78, 90
10, 5339, Note_on_c, 6, 78, 0
10, 5340, Note_on_c, 6, 79, 90
10, 5354, Note_on_c, 6, 79, 0
10, 5355, Note_on_c, 6, 76, 90
10, 5369, Note_on_c, 6, 76, 0
10, 5370, Note_on_c, 6, 78, 90
10, 5384, Note_on_c, 6, 78, 0
10, 5385, Note_on_c, 6, 79, 90
10, 5399, Note_on_c, 6, 79, 0
10, 5400, Note_on_c, 6, 81, 90
10, 5414, Note_on_c, 6, 81, 0
10, 5415, Note_on_c, 6, 78, 90
10, 5429, Note_on_c, 6, 78, 0
10, 5430, Note_on_c, 6, 79, 90
10, 5444, Note_on_c, 6, 79, 0
10, 5445, Note_on_c, 6, 81, 90
10, 5459, Note_on_c, 6, 81, 0
10, 5460, Note_on_c, 6, 83, 90
10, 5474, Note_on_c, 6, 83, 0
10, 5475, Note_on_c, 6, 79, 90
10, 5489, Note_on_c, 6, 79, 0
10, 5490, Note_on_c, 6, 81, 90
10, 5504, Note_on_c, 6, 81, 0
10, 5505, Note_on_c, 6, 83, 90
10, 5519, Note_on_c, 6, 83, 0
10, 5520, Note_on_c, 6, 85, 90
10, 5534, Note_on_c, 6, 85, 0
10, 5535, Note_on_c, 6, 81, 90
10, 5549, Note_on_c, 6, 81, 0
10, 5550, Note_on_c, 6, 83, 90
10, 5564, Note_on_c, 6, 83, 0
10, 5565, Note_on_c, 6, 85, 90
10, 5579, Note_on_c, 6, 85, 0
10, 5580, Note_on_c, 6, 86, 90
10, 5609, Note_on_c, 6, 86, 0
10, 5640, Note_on_c, 6, 69, 90
10, 5669, Note_on_c, 6, 69, 0
10, 5700, Note_on_c, 6, 73, 90
10, 5729, Note_on_c, 6, 73, 0
10, 5760, Note_on_c, 6, 74, 90
10, 5819, Note_on_c, 6, 74, 0
10, 5970, Note_on_c, 6, 66, 90
10, 5984, Note_on_c, 6, 66, 0
10, 5985, Note_on_c, 6, 67, 90
10, 5999, Note_on_c, 6, 67, 0
10, 6000, Note_on_c, 6, 69, 90
10, 6014, Note_on_c, 6, 69, 0
10, 6015, Note_on_c, 6, 67, 90
10, 6029, Note_on_c, 6, 67, 0
10, 6030, Note_on_c, 6, 69, 90
10, 6044, Note_on_c, 6, 69, 0
10, 6045, Note_on_c, 6, 67, 90
10, 6059, Note_on_c, 6, 67, 0
10, 6060, Note_on_c, 6, 69, 90
10, 6074, Note_on_c, 6, 69, 0
10, 6075, Note_on_c, 6, 67, 90
10, 6089, Note_on_c, 6, 67, 0
10, 6090, Note_on_c, 6, 66, 90
10, 6104, Note_on_c, 6, 66, 0
10, 6105, Note_on_c, 6, 67, 90
10, 6119, Note_on_c, 6, 67, 0
10, 6120, Note_on_c, 6, 69, 90
10, 6179, Note_on_c, 6, 69, 0
10, 6300, Note_on_c, 6, 74, 90
10, 6359, Note_on_c, 6, 74, 0
10, 6480, Note_on_c, 6, 69, 90
10, 6539, Note_on_c, 6, 69, 0
10, 6660, Note_on_c, 6, 66, 90
10, 6719, Note_on_c, 6, 66, 0
10, 6855, Note_on_c, 6, 86, 90
10, 6869, Note_on_c, 6, 86, 0
10, 6870, Note_on_c, 6, 85, 90
10, 6884, Note_on_c, 6, 85, 0
10, 6885, Note_on_c, 6, 83, 90
10, 6899, Note_on_c, 6, 83, 0
10, 6900, Note_on_c, 6, 81, 90
10, 6914, Note_on_c, 6, 81, 0
10, 6915, Note_on_c, 6, 86, 90
10, 6929, Note_on_c, 6, 86, 0
10, 6930, Note_on_c, 6, 85, 90
10, 6944, Note_on_c, 6, 85, 0
10, 6945, Note_on_c, 6, 83, 90
10, 6959, Note_on_c, 6, 83, 0
10, 6960, Note_on_c, 6, 81, 90
10, 6974, Note_on_c, 6, 81, 0
10, 6975, Note_on_c, 6, 79, 90
10, 6989, Note_on_c, 6, 79, 0
10, 6990, Note_on_c, 6, 78, 90
10, 7004, Note_on_c, 6, 78, 0
10, 7005, Note_on_c, 6, 76, 90
10, 7019, Note_on_c, 6, 76, 0
10, 7020, Note_on_c, 6, 78, 90
10, 7034, Note_on_c, 6, 78, 0
10, 7035, Note_on_c, 6, 74, 90
10, 7049, Note_on_c, 6, 74, 0
10, 7050, Note_on_c, 6, 73, 90
10, 7064, Note_on_c, 6, 73, 0
10, 7065, Note_on_c, 6, 71, 90
10, 7079, Note_on_c, 6, 71, 0
10, 7080, Note_on_c, 6, 69, 90
10, 7094, Note_on_c, 6, 69, 0
10, 7095, Note_on_c, 6, 74, 90
10, 7109, Note_on_c, 6, 74, 0
10, 7110, Note_on_c, 6, 73, 90
10, 7124, Note_on_c, 6, 73, 0
10, 7125, Note_on_c, 6, 71, 90
10, 7139, Note_on_c, 6, 71, 0
10, 7140, Note_on_c, 6, 69, 90
10, 7154, Note_on_c, 6, 69, 0
10, 7155, Note_on_c, 6, 67, 90
10, 7169, Note_on_c, 6, 67, 0
10, 7170, Note_on_c, 6, 66, 90
10, 7184, Note_on_c, 6, 66, 0
10, 7185, Note_on_c, 6, 64, 90
10, 7199, Note_on_c, 6, 64, 0
10, 7200, Note_on_c, 6, 66, 90
10, 7214, Note_on_c, 6, 66, 0
10, 7215, Note_on_c, 6, 71, 90
10, 7229, Note_on_c, 6, 71, 0
10, 7230, Note_on_c, 6, 69, 90
10, 7244, Note_on_c, 6, 69, 0
10, 7245, Note_on_c, 6, 67, 90
10, 7259, Note_on_c, 6, 67, 0
10, 7260, Note_on_c, 6, 66, 90
10, 7274, Note_on_c, 6, 66, 0
10, 7275, Note_on_c, 6, 71, 90
10, 7289, Note_on_c, 6, 71, 0
10, 7290, Note_on_c, 6, 69, 90
10, 7304, Note_on_c, 6, 69, 0
10, 7305, Note_on_c, 6, 67, 90
10, 7319, Note_on_c, 6, 67, 0
10, 7320, Note_on_c, 6, 66, 90
10, 7334, Note_on_c, 6, 66, 0
10, 7335, Note_on_c, 6, 64, 90
10, 7349, Note_on_c, 6, 64, 0
10, 7350, Note_on_c, 6, 62, 90
10, 7364, Note_on_c, 6, 62, 0
10, 7365, Note_on_c, 6, 61, 90
10, 7379, Note_on_c, 6, 61, 0
10, 7380, Note_on_c, 6, 62, 90
10, 7394, Note_on_c, 6, 62, 0
10, 7395, Note_on_c, 6, 59, 90
10, 7409, Note_on_c, 6, 59, 0
10, 7410, Note_on_c, 6, 57, 90
10, 7424, Note_on_c, 6, 57, 0
10, 7425, Note_on_c, 6, 55, 90
10, 7439, Note_on_c, 6, 55, 0
10, 7440, Note_on_c, 6, 57, 90
10, 7454, Note_on_c, 6, 57, 0
10, 7455, Note_on_c, 6, 59, 90
10, 7469, Note_on_c, 6, 59, 0
10, 7470, Note_on_c, 6, 57, 90
10, 7484, Note_on_c, 6, 57, 0
10, 7485, Note_on_c, 6, 55, 90
10, 7499, Note_on_c, 6, 55, 0
10, 7500, Note_on_c, 6, 57, 90
10, 7514, Note_on_c, 6, 57, 0
10, 7515, Note_on_c, 6, 59, 90
10, 7529, Note_on_c, 6, 59, 0
10, 7530, Note_on_c, 6, 57, 90
10, 7544, Note_on_c, 6, 57, 0
10, 7545, Note_on_c, 6, 55, 90
10, 7559, Note_on_c, 6, 55, 0
10, 7560, Note_on_c, 6, 57, 90
10, 7577, Note_on_c, 6, 57, 0
10, 7590, Note_on_c, 6, 57, 90
10, 7607, Note_on_c, 6, 57, 0
10, 7620, Note_on_c, 6, 57, 90
10, 7637, Note_on_c, 6, 57, 0
10, 7650, Note_on_c, 6, 57, 90
10, 7667, Note_on_c, 6, 57, 0
10, 7680, Note_on_c, 6, 57, 90
10, 7697, Note_on_c, 6, 57, 0
10, 7710, Note_on_c, 6, 57, 90
10, 7727, Note_on_c, 6, 57, 0
10, 7740, Note_on_c, 6, 57, 90
10, 7757, Note_on_c, 6, 57, 0
10, 7770, Note_on_c, 6, 57, 90
10, 7787, Note_on_c, 6, 57, 0
10, 7800, Note_on_c, 6, 57, 90
10, 7817, Note_on_c, 6, 57, 0
10, 7830, Note_on_c, 6, 57, 90
10, 7847, Note_on_c, 6, 57, 0
10, 7860, Note_on_c, 6, 57, 90
10, 7877, Note_on_c, 6, 57, 0
10, 7890, Note_on_c, 6, 57, 90
10, 7907, Note_on_c, 6, 57, 0
10, 7920, Note_on_c, 6, 57, 90
10, 7937, Note_on_c, 6, 57, 0
10, 7950, Note_on_c, 6, 57, 90
10, 7967, Note_on_c, 6, 57, 0
10, 7980, Note_on_c, 6, 57, 90
10, 7997, Note_on_c, 6, 57, 0
10, 8010, Note_on_c, 6, 57, 90
10, 8027, Note_on_c, 6, 57, 0
10, 8040, Note_on_c, 6, 57, 90
10, 8057, Note_on_c, 6, 57, 0
10, 8070, Note_on_c, 6, 57, 90
10, 8087, Note_on_c, 6, 57, 0
10, 8100, Note_on_c, 6, 57, 90
10, 8117, Note_on_c, 6, 57, 0
10, 8130, Note_on_c, 6, 57, 90
10, 8147, Note_on_c, 6, 57, 0
10, 8160, Note_on_c, 6, 57, 90
10, 8177, Note_on_c, 6, 57, 0
10, 8190, Note_on_c, 6, 57, 90
10, 8207, Note_on_c, 6, 57, 0
10, 8220, Note_on_c, 6, 78, 90
10, 8249, Note_on_c, 6, 78, 0
10, 8250, Note_on_c, 6, 79, 90
10, 8279, Note_on_c, 6, 79, 0
10, 8280, Note_on_c, 6, 81, 90
10, 8309, Note_on_c, 6, 81, 0
10, 8340, Note_on_c, 6, 72, 90
10, 8369, Note_on_c, 6, 72, 0
10, 8400, Note_on_c, 6, 72, 90
10, 8429, Note_on_c, 6, 72, 0
10, 8460, Note_on_c, 6, 72, 90
10, 8475, Note_on_c, 6, 72, 0
10, 8475, Note_on_c, 6, 74, 90
10, 8490, Note_on_c, 6, 74, 0
10, 8490, Note_on_c, 6, 72, 90
10, 8519, Note_on_c, 6, 72, 0
10, 8520, Note_on_c, 6, 71, 90
10, 8579, Note_on_c, 6, 71, 0
10, 8580, Note_on_c, 6, 79, 90
10, 8639, Note_on_c, 6, 79, 0
10, 8640, Note_on_c, 6, 78, 90
10, 8699, Note_on_c, 6, 78, 0
10, 8700, Note_on_c, 6, 76, 90
10, 8759, Note_on_c, 6, 76, 0
10, 8760, Note_on_c, 6, 74, 90
10, 8819, Note_on_c, 6, 74, 0
10, 8820, Note_on_c, 6, 81, 90
10, 8939, Note_on_c, 6, 81, 0
10, 9420, Note_on_c, 6, 71, 90
10, 9449, Note_on_c, 6, 71, 0
10, 9450, Note_on_c, 6, 73, 90
10, 9479, Note_on_c, 6, 73, 0
10, 9480, Note_on_c, 6, 74, 90
10, 9494, Note_on_c, 6, 74, 0
10, 9495, Note_on_c, 6, 73, 90
10, 9509, Note_on_c, 6, 73, 0
10, 9510, Note_on_c, 6, 71, 90
10, 9524, Note_on_c, 6, 71, 0
10, 9525, Note_on_c, 6, 73, 90
10, 9539, Note_on_c, 6, 73, 0
10, 9540, Note_on_c, 6, 74, 90
10, 9569, Note_on_c, 6, 74, 0
10, 9570, Note_on_c, 6, 73, 90
10, 9599, Note_on_c, 6, 73, 0
10, 9600, Note_on_c, 6, 74, 90
10, 9629, Note_on_c, 6, 74, 0
10, 9630, Note_on_c, 6, 76, 90
10, 9659, Note_on_c, 6, 76, 0
10, 9660, Note_on_c, 6, 78, 90
10, 9674, Note_on_c, 6, 78, 0
10, 9675, Note_on_c, 6, 76, 90
10, 9689, Note_on_c, 6, 76, 0
10, 9690, Note_on_c, 6, 74, 90
10, 9704, Note_on_c, 6, 74, 0
10, 9705, Note_on_c, 6, 76, 90
10, 9719, Note_on_c, 6, 76, 0
10, 9720, Note_on_c, 6, 78, 90
10, 9749, Note_on_c, 6, 78, 0
10, 9750, Note_on_c, 6, 76, 90
10, 9779, Note_on_c, 6, 76, 0
10, 9780, Note_on_c, 6, 78, 90
10, 9809, Note_on_c, 6, 78, 0
10, 9810, Note_on_c, 6, 80, 90
10, 9839, Note_on_c, 6, 80, 0
10, 9840, Note_on_c, 6, 81, 90
10, 9854, Note_on_c, 6, 81, 0
10, 9855, Note_on_c, 6, 80, 90
10, 9869, Note_on_c, 6, 80, 0
10, 9870, Note_on_c, 6, 78, 90
10, 9884, Note_on_c, 6, 78, 0
10, 9885, Note_on_c, 6, 80, 90
10, 9899, Note_on_c, 6, 80, 0
10, 9900, Note_on_c, 6, 81, 90
10, 9929, Note_on_c, 6, 81, 0
10, 9930, Note_on_c, 6, 76, 90
10, 9959, Note_on_c, 6, 76, 0
10, 9960, Note_on_c, 6, 73, 90
10, 9989, Note_on_c, 6, 73, 0
10, 9990, Note_on_c, 6, 81, 90
10, 10019, Note_on_c, 6, 81, 0
10, 10020, Note_on_c, 6, 71, 90
10, 10049, Note_on_c, 6, 71, 0
10, 10050, Note_on_c, 6, 80, 90
10, 10079, Note_on_c, 6, 80, 0
10, 10080, Note_on_c, 6, 69, 90
10, 10139, Note_on_c, 6, 69, 0
10, 10320, Note_on_c, 6, 67, 90
10, 10349, Note_on_c, 6, 67, 0
10, 10350, Note_on_c, 6, 69, 90
10, 10379, Note_on_c, 6, 69, 0
10, 10380, Note_on_c, 6, 71, 90
10, 10394, Note_on_c, 6, 71, 0
10, 10395, Note_on_c, 6, 69, 90
10, 10409, Note_on_c, 6, 69, 0
10, 10410, Note_on_c, 6, 67, 90
10, 10424, Note_on_c, 6, 67, 0
10, 10425, Note_on_c, 6, 69, 90
10, 10439, Note_on_c, 6, 69, 0
10, 10440, Note_on_c, 6, 71, 90
10, 10529, Note_on_c, 6, 71, 0
10, 10530, Note_on_c, 6, 73, 90
10, 10559, Note_on_c, 6, 73, 0
10, 10560, Note_on_c, 6, 74, 90
10, 10574, Note_on_c, 6, 74, 0
10, 10575, Note_on_c, 6, 73, 90
10, 10589, Note_on_c, 6, 73, 0
10, 10590, Note_on_c, 6, 71, 90
10, 10604, Note_on_c, 6, 71, 0
10, 10605, Note_on_c, 6, 73, 90
10, 10619, Note_on_c, 6, 73, 0
10, 10620, Note_on_c, 6, 74, 90
10, 10649, Note_on_c, 6, 74, 0
10, 10680, Note_on_c, 6, 74, 90
10, 10709, Note_on_c, 6, 74, 0
10, 10740, Note_on_c, 6, 73, 90
10, 10769, Note_on_c, 6, 73, 0
10, 10800, Note_on_c, 6, 74, 90
10, 10829, Note_on_c, 6, 74, 0
10, 10830, Note_on_c, 6, 73, 90
10, 10859, Note_on_c, 6, 73, 0
10, 10860, Note_on_c, 6, 74, 90
10, 10889, Note_on_c, 6, 74, 0
10, 10890, Note_on_c, 6, 78, 90
10, 10919, Note_on_c, 6, 78, 0
10, 10920, Note_on_c, 6, 76, 90
10, 10949, Note_on_c, 6, 76, 0
10, 10950, Note_on_c, 6, 74, 90
10, 10979, Note_on_c, 6, 74, 0
10, 10980, Note_on_c, 6, 73, 90
10, 11009, Note_on_c, 6, 73, 0
10, 11010, Note_on_c, 6, 71, 90
10, 11039, Note_on_c, 6, 71, 0
10, 11040, Note_on_c, 6, 73, 90
10, 11069, Note_on_c, 6, 73, 0
10, 11070, Note_on_c, 6, 76, 90
10, 11099, Note_on_c, 6, 76, 0
10, 11100, Note_on_c, 6, 75, 90
10, 11129, Note_on_c, 6, 75, 0
10, 11130, Note_on_c, 6, 78, 90
10, 11159, Note_on_c, 6, 78, 0
10, 11160, Note_on_c, 6, 76, 90
10, 11189, Note_on_c, 6, 76, 0
10, 11190, Note_on_c, 6, 75, 90
10, 11219, Note_on_c, 6, 75, 0
10, 11220, Note_on_c, 6, 76, 90
10, 11249, Note_on_c, 6, 76, 0
10, 11250, Note_on_c, 6, 78, 90
10, 11279, Note_on_c, 6, 78, 0
10, 11280, Note_on_c, 6, 79, 90
10, 11294, Note_on_c, 6, 79, 0
10, 11295, Note_on_c, 6, 78, 90
10, 11309, Note_on_c, 6, 78, 0
10, 11310, Note_on_c, 6, 76, 90
10, 11324, Note_on_c, 6, 76, 0
10, 11325, Note_on_c, 6, 78, 90
10, 11339, Note_on_c, 6, 78, 0
10, 11340, Note_on_c, 6, 79, 90
10, 11369, Note_on_c, 6, 79, 0
10, 11370, Note_on_c, 6, 78, 90
10, 11399, Note_on_c, 6, 78, 0
10, 11400, Note_on_c, 6, 76, 90
10, 11429, Note_on_c, 6, 76, 0
10, 11430, Note_on_c, 6, 74, 90
10, 11459, Note_on_c, 6, 74, 0
10, 11460, Note_on_c, 6, 73, 90
10, 11489, Note_on_c, 6, 73, 0
10, 11490, Note_on_c, 6, 71, 90
10, 11519, Note_on_c, 6, 71, 0
10, 11520, Note_on_c, 6, 70, 90
10, 11549, Note_on_c, 6, 70, 0
10, 11550, Note_on_c, 6, 73, 90
10, 11579, Note_on_c, 6, 73, 0
10, 11580, Note_on_c, 6, 76, 90
10, 11699, Note_on_c, 6, 76, 0
10, 11700, Note_on_c, 6, 67, 90
10, 11714, Note_on_c, 6, 67, 0
10, 11715, Note_on_c, 6, 66, 90
10, 11729, Note_on_c, 6, 66, 0
10, 11730, Note_on_c, 6, 64, 90
10, 11759, Note_on_c, 6, 64, 0
10, 11760, Note_on_c, 6, 64, 90
10, 11789, Note_on_c, 6, 64, 0
10, 11790, Note_on_c, 6, 66, 90
10, 11909, Note_on_c, 6, 66, 0
10, 11910, Note_on_c, 6, 68, 90
10, 11924, Note_on_c, 6, 68, 0
10, 11925, Note_on_c, 6, 70, 90
10, 11939, Note_on_c, 6, 70, 0
10, 11940, Note_on_c, 6, 71, 90
10, 11969, Note_on_c, 6, 71, 0
10, 11970, Note_on_c, 6, 73, 90
10, 11984, Note_on_c, 6, 73, 0
10, 11985, Note_on_c, 6, 75, 90
10, 11999, Note_on_c, 6, 75, 0
10, 12000, Note_on_c, 6, 76, 90
10, 12089, Note_on_c, 6, 76, 0
10, 12090, Note_on_c, 6, 74, 90
10, 12104, Note_on_c, 6, 74, 0
10, 12105, Note_on_c, 6, 73, 90
10, 12119, Note_on_c, 6, 73, 0
10, 12120, Note_on_c, 6, 74, 90
10, 12149, Note_on_c, 6, 74, 0
10, 12150, Note_on_c, 6, 73, 90
10, 12164, Note_on_c, 6, 73, 0
10, 12165, Note_on_c, 6, 71, 90
10, 12179, Note_on_c, 6, 71, 0
10, 12180, Note_on_c, 6, 74, 90
10, 12209, Note_on_c, 6, 74, 0
10, 12210, Note_on_c, 6, 71, 90
10, 12224, Note_on_c, 6, 71, 0
10, 12225, Note_on_c, 6, 73, 90
10, 12239, Note_on_c, 6, 73, 0
10, 12240, Note_on_c, 6, 74, 90
10, 12269, Note_on_c, 6, 74, 0
10, 12270, Note_on_c, 6, 78, 90
10, 12284, Note_on_c, 6, 78, 0
10, 12285, Note_on_c, 6, 76, 90
10, 12299, Note_on_c, 6, 76, 0
10, 12300, Note_on_c, 6, 74, 90
10, 12329, Note_on_c, 6, 74, 0
10, 12330, Note_on_c, 6, 78, 90
10, 12344, Note_on_c, 6, 78, 0
10, 12345, Note_on_c, 6, 76, 90
10, 12359, Note_on_c, 6, 76, 0
10, 12360, Note_on_c, 6, 74, 90
10, 12449, Note_on_c, 6, 74, 0
10, 12450, Note_on_c, 6, 71, 90
10, 12464, Note_on_c, 6, 71, 0
10, 12465, Note_on_c, 6, 73, 90
10, 12479, Note_on_c, 6, 73, 0
10, 12480, Note_on_c, 6, 74, 90
10, 12509, Note_on_c, 6, 74, 0
10, 12510, Note_on_c, 6, 71, 90
10, 12524, Note_on_c, 6, 71, 0
10, 12525, Note_on_c, 6, 73, 90
10, 12539, Note_on_c, 6, 73, 0
10, 12540, Note_on_c, 6, 74, 90
10, 12629, Note_on_c, 6, 74, 0
10, 12630, Note_on_c, 6, 73, 90
10, 12644, Note_on_c, 6, 73, 0
10, 12645, Note_on_c, 6, 74, 90
10, 12659, Note_on_c, 6, 74, 0
10, 12660, Note_on_c, 6, 76, 90
10, 12689, Note_on_c, 6, 76, 0
10, 12690, Note_on_c, 6, 74, 90
10, 12704, Note_on_c, 6, 74, 0
10, 12705, Note_on_c, 6, 73, 90
10, 12719, Note_on_c, 6, 73, 0
10, 12720, Note_on_c, 6, 74, 90
10, 12749, Note_on_c, 6, 74, 0
10, 12750, Note_on_c, 6, 73, 90
10, 12764, Note_on_c, 6, 73, 0
10, 12765, Note_on_c, 6, 71, 90
10, 12779, Note_on_c, 6, 71, 0
10, 12780, Note_on_c, 6, 73, 90
10, 12809, Note_on_c, 6, 73, 0
10, 12810, Note_on_c, 6, 76, 90
10, 12824, Note_on_c, 6, 76, 0
10, 12825, Note_on_c, 6, 74, 90
10, 12839, Note_on_c, 6, 74, 0
10, 12840, Note_on_c, 6, 73, 90
10, 12869, Note_on_c, 6, 73, 0
10, 12870, Note_on_c, 6, 76, 90
10, 12884, Note_on_c, 6, 76, 0
10, 12885, Note_on_c, 6, 74, 90
10, 12899, Note_on_c, 6, 74, 0
10, 12900, Note_on_c, 6, 73, 90
10, 12989, Note_on_c, 6, 73, 0
10, 12990, Note_on_c, 6, 78, 90
10, 13005, Note_on_c, 6, 78, 0
10, 13020, Note_on_c, 6, 78, 90
10, 13035, Note_on_c, 6, 78, 0
10, 13050, Note_on_c, 6, 73, 90
10, 13065, Note_on_c, 6, 73, 0
10, 13080, Note_on_c, 6, 73, 90
10, 13095, Note_on_c, 6, 73, 0
10, 13110, Note_on_c, 6, 69, 90
10, 13125, Note_on_c, 6, 69, 0
10, 13140, Note_on_c, 6, 69, 90
10, 13154, Note_on_c, 6, 69, 0
10, 13155, Note_on_c, 6, 73, 90
10, 13169, Note_on_c, 6, 73, 0
10, 13170, Note_on_c, 6, 75, 90
10, 13184, Note_on_c, 6, 75, 0
10, 13185, Note_on_c, 6, 76, 90
10, 13199, Note_on_c, 6, 76, 0
10, 13200, Note_on_c, 6, 78, 90
10, 13214, Note_on_c, 6, 78, 0
10, 13215, Note_on_c, 6, 80, 90
10, 13229, Note_on_c, 6, 80, 0
10, 13230, Note_on_c, 6, 78, 90
10, 13244, Note_on_c, 6, 78, 0
10, 13245, Note_on_c, 6, 76, 90
10, 13259, Note_on_c, 6, 76, 0
10, 13260, Note_on_c, 6, 75, 90
10, 13274, Note_on_c, 6, 75, 0
10, 13275, Note_on_c, 6, 73, 90
10, 13289, Note_on_c, 6, 73, 0
10, 13290, Note_on_c, 6, 71, 90
10, 13304, Note_on_c, 6, 71, 0
10, 13305, Note_on_c, 6, 69, 90
10, 13319, Note_on_c, 6, 69, 0
10, 13320, Note_on_c, 6, 68, 90
10, 13334, Note_on_c, 6, 68, 0
10, 13350, Note_on_c, 6, 76, 90
10, 13364, Note_on_c, 6, 76, 0
10, 13380, Note_on_c, 6, 76, 90
10, 13394, Note_on_c, 6, 76, 0
10, 13410, Note_on_c, 6, 71, 90
10, 13424, Note_on_c, 6, 71, 0
10, 13440, Note_on_c, 6, 71, 90
10, 13454, Note_on_c, 6, 71, 0
10, 13470, Note_on_c, 6, 67, 90
10, 13484, Note_on_c, 6, 67, 0
10, 13500, Note_on_c, 6, 67, 90
10, 13514, Note_on_c, 6, 67, 0
10, 13515, Note_on_c, 6, 71, 90
10, 13529, Note_on_c, 6, 71, 0
10, 13530, Note_on_c, 6, 73, 90
10, 13544, Note_on_c, 6, 73, 0
10, 13545, Note_on_c, 6, 74, 90
10, 13559, Note_on_c, 6, 74, 0
10, 13560, Note_on_c, 6, 76, 90
10, 13574, Note_on_c, 6, 76, 0
10, 13575, Note_on_c, 6, 78, 90
10, 13589, Note_on_c, 6, 78, 0
10, 13590, Note_on_c, 6, 76, 90
10, 13604, Note_on_c, 6, 76, 0
10, 13605, Note_on_c, 6, 74, 90
10, 13619, Note_on_c, 6, 74, 0
10, 13620, Note_on_c, 6, 73, 90
10, 13634, Note_on_c, 6, 73, 0
10, 13635, Note_on_c, 6, 71, 90
10, 13649, Note_on_c, 6, 71, 0
10, 13650, Note_on_c, 6, 69, 90
10, 13664, Note_on_c, 6, 69, 0
10, 13665, Note_on_c, 6, 67, 90
10, 13679, Note_on_c, 6, 67, 0
10, 13680, Note_on_c, 6, 66, 90
10, 13694, Note_on_c, 6, 66, 0
10, 13695, Note_on_c, 6, 62, 90
10, 13709, Note_on_c, 6, 62, 0
10, 13710, Note_on_c, 6, 64, 90
10, 13724, Note_on_c, 6, 64, 0
10, 13725, Note_on_c, 6, 66, 90
10, 13739, Note_on_c, 6, 66, 0
10, 13740, Note_on_c, 6, 68, 90
10, 13754, Note_on_c, 6, 68, 0
10, 13755, Note_on_c, 6, 64, 90
10, 13769, Note_on_c, 6, 64, 0
10, 13770, Note_on_c, 6, 66, 90
10, 13784, Note_on_c, 6, 66, 0
10, 13785, Note_on_c, 6, 68, 90
10, 13799, Note_on_c, 6, 68, 0
10, 13800, Note_on_c, 6, 69, 90
10, 13814, Note_on_c, 6, 69, 0
10, 13815, Note_on_c, 6, 66, 90
10, 13829, Note_on_c, 6, 66, 0
10, 13830, Note_on_c, 6, 68, 90
10, 13844, Note_on_c, 6, 68, 0
10, 13845, Note_on_c, 6, 69, 90
10, 13859, Note_on_c, 6, 69, 0
10, 13860, Note_on_c, 6, 71, 90
10, 13874, Note_on_c, 6, 71, 0
10, 13875, Note_on_c, 6, 68, 90
10, 13889, Note_on_c, 6, 68, 0
10, 13890, Note_on_c, 6, 69, 90
10, 13904, Note_on_c, 6, 69, 0
10, 13905, Note_on_c, 6, 71, 90
10, 13919, Note_on_c, 6, 71, 0
10, 13920, Note_on_c, 6, 73, 90
10, 13934, Note_on_c, 6, 73, 0
10, 13935, Note_on_c, 6, 69, 90
10, 13949, Note_on_c, 6, 69, 0
10, 13950, Note_on_c, 6, 71, 90
10, 13964, Note_on_c, 6, 71, 0
10, 13965, Note_on_c, 6, 73, 90
10, 13979, Note_on_c, 6, 73, 0
10, 13980, Note_on_c, 6, 74, 90
10, 13994, Note_on_c, 6, 74, 0
10, 13995, Note_on_c, 6, 71, 90
10, 14009, Note_on_c, 6, 71, 0
10, 14010, Note_on_c, 6, 73, 90
10, 14024, Note_on_c, 6, 73, 0
10, 14025, Note_on_c, 6, 74, 90
10, 14039, Note_on_c, 6, 74, 0
10, 14040, Note_on_c, 6, 76, 90
10, 14054, Note_on_c, 6, 76, 0
10, 14055, Note_on_c, 6, 73, 90
10, 14069, Note_on_c, 6, 73, 0
10, 14070, Note_on_c, 6, 74, 90
10, 14084, Note_on_c, 6, 74, 0
10, 14085, Note_on_c, 6, 76, 90
10, 14099, Note_on_c, 6, 76, 0
10, 14100, Note_on_c, 6, 78, 90
10, 14114, Note_on_c, 6, 78, 0
10, 14115, Note_on_c, 6, 74, 90
10, 14129, Note_on_c, 6, 74, 0
10, 14130, Note_on_c, 6, 76, 90
10, 14144, Note_on_c, 6, 76, 0
10, 14145, Note_on_c, 6, 78, 90
10, 14159, Note_on_c, 6, 78, 0
10, 14160, Note_on_c, 6, 80, 90
10, 14174, Note_on_c, 6, 80, 0
10, 14175, Note_on_c, 6, 76, 90
10, 14189, Note_on_c, 6, 76, 0
10, 14190, Note_on_c, 6, 78, 90
10, 14204, Note_on_c, 6, 78, 0
10, 14205, Note_on_c, 6, 80, 90
10, 14219, Note_on_c, 6, 80, 0
10, 14220, Note_on_c, 6, 81, 90
10, 14249, Note_on_c, 6, 81, 0
10, 14280, Note_on_c, 6, 83, 90
10, 14309, Note_on_c, 6, 83, 0
10, 14340, Note_on_c, 6, 80, 90
10, 14369, Note_on_c, 6, 80, 0
10, 14400, Note_on_c, 6, 81, 90
10, 14429, Note_on_c, 6, 81, 0
10, 14430, Note_on_c, 6, 64, 90
10, 14447, Note_on_c, 6, 64, 0
10, 14460, Note_on_c, 6, 64, 90
10, 14477, Note_on_c, 6, 64, 0
10, 14490, Note_on_c, 6, 64, 90
10, 14507, Note_on_c, 6, 64, 0
10, 14520, Note_on_c, 6, 64, 90
10, 14537, Note_on_c, 6, 64, 0
10, 14550, Note_on_c, 6, 64, 90
10, 14567, Note_on_c, 6, 64, 0
10, 14580, Note_on_c, 6, 64, 90
10, 14597, Note_on_c, 6, 64, 0
10, 14610, Note_on_c, 6, 64, 90
10, 14627, Note_on_c, 6, 64, 0
10, 14640, Note_on_c, 6, 64, 90
10, 14657, Note_on_c, 6, 64, 0
10, 14670, Note_on_c, 6, 64, 90
10, 14687, Note_on_c, 6, 64, 0
10, 14700, Note_on_c, 6, 64, 90
10, 14717, Note_on_c, 6, 64, 0
10, 14730, Note_on_c, 6, 64, 90
10, 14747, Note_on_c, 6, 64, 0
10, 14760, Note_on_c, 6, 64, 90
10, 14777, Note_on_c, 6, 64, 0
10, 14790, Note_on_c, 6, 64, 90
10, 14807, Note_on_c, 6, 64, 0
10, 14820, Note_on_c, 6, 64, 90
10, 14837, Note_on_c, 6, 64, 0
10, 14850, Note_on_c, 6, 64, 90
10, 14867, Note_on_c, 6, 64, 0
10, 14880, Note_on_c, 6, 64, 90
10, 14897, Note_on_c, 6, 64, 0
10, 14910, Note_on_c, 6, 64, 90
10, 14927, Note_on_c, 6, 64, 0
10, 14940, Note_on_c, 6, 64, 90
10, 14957, Note_on_c, 6, 64, 0
10, 14970, Note_on_c, 6, 64, 90
10, 14987, Note_on_c, 6, 64, 0
10, 15000, Note_on_c, 6, 64, 90
10, 15017, Note_on_c, 6, 64, 0
10, 15030, Note_on_c, 6, 64, 90
10, 15047, Note_on_c, 6, 64, 0
10, 15060, Note_on_c, 6, 64, 90
10, 15077, Note_on_c, 6, 64, 0
10, 15090, Note_on_c, 6, 62, 90
10, 15107, Note_on_c, 6, 62, 0
10, 15120, Note_on_c, 6, 61, 90
10, 15137, Note_on_c, 6, 61, 0
10, 15150, Note_on_c, 6, 61, 90
10, 15167, Note_on_c, 6, 61, 0
10, 15180, Note_on_c, 6, 61, 90
10, 15197, Note_on_c, 6, 61, 0
10, 15210, Note_on_c, 6, 61, 90
10, 15227, Note_on_c, 6, 61, 0
10, 15240, Note_on_c, 6, 61, 90
10, 15257, Note_on_c, 6, 61, 0
10, 15270, Note_on_c, 6, 61, 90
10, 15287, Note_on_c, 6, 61, 0
10, 15300, Note_on_c, 6, 59, 90
10, 15329, Note_on_c, 6, 59, 0
10, 15330, Note_on_c, 6, 73, 90
10, 15359, Note_on_c, 6, 73, 0
10, 15360, Note_on_c, 6, 74, 90
10, 15389, Note_on_c, 6, 74, 0
10, 15390, Note_on_c, 6, 76, 90
10, 15419, Note_on_c, 6, 76, 0
10, 15420, Note_on_c, 6, 78, 90
10, 15449, Note_on_c, 6, 78, 0
10, 15450, Note_on_c, 6, 79, 90
10, 15479, Note_on_c, 6, 79, 0
10, 15480, Note_on_c, 6, 78, 90
10, 15494, Note_on_c, 6, 78, 0
10, 15495, Note_on_c, 6, 79, 90
10, 15509, Note_on_c, 6, 79, 0
10, 15510, Note_on_c, 6, 81, 90
10, 15539, Note_on_c, 6, 81, 0
10, 15540, Note_on_c, 6, 79, 90
10, 15569, Note_on_c, 6, 79, 0
10, 15570, Note_on_c, 6, 78, 90
10, 15599, Note_on_c, 6, 78, 0
10, 15600, Note_on_c, 6, 76, 90
10, 15629, Note_on_c, 6, 76, 0
10, 15630, Note_on_c, 6, 74, 90
10, 15659, Note_on_c, 6, 74, 0
10, 15660, Note_on_c, 6, 73, 90
10, 15689, Note_on_c, 6, 73, 0
10, 15690, Note_on_c, 6, 71, 90
10, 15719, Note_on_c, 6, 71, 0
10, 15720, Note_on_c, 6, 69, 90
10, 15749, Note_on_c, 6, 69, 0
10, 15750, Note_on_c, 6, 67, 90
10, 15779, Note_on_c, 6, 67, 0
10, 15780, Note_on_c, 6, 66, 90
10, 15809, Note_on_c, 6, 66, 0
10, 15810, Note_on_c, 6, 64, 90
10, 15839, Note_on_c, 6, 64, 0
10, 15840, Note_on_c, 6, 62, 90
10, 15899, Note_on_c, 6, 62, 0
10, 16770, Note_on_c, 6, 66, 90
10, 16784, Note_on_c, 6, 66, 0
10, 16785, Note_on_c, 6, 67, 90
10, 16799, Note_on_c, 6, 67, 0
10, 16800, Note_on_c, 6, 69, 90
10, 16814, Note_on_c, 6, 69, 0
10, 16815, Note_on_c, 6, 67, 90
10, 16829, Note_on_c, 6, 67, 0
10, 16830, Note_on_c, 6, 69, 90
10, 16844, Note_on_c, 6, 69, 0
10, 16845, Note_on_c, 6, 67, 90
10, 16859, Note_on_c, 6, 67, 0
10, 16860, Note_on_c, 6, 69, 90
10, 16874, Note_on_c, 6, 69, 0
10, 16875, Note_on_c, 6, 67, 90
10, 16889, Note_on_c, 6, 67, 0
10, 16890, Note_on_c, 6, 66, 90
10, 16904, Note_on_c, 6, 66, 0
10, 16905, Note_on_c, 6, 67, 90
10, 16919, Note_on_c, 6, 67, 0
10, 16920, Note_on_c, 6, 69, 90
10, 16934, Note_on_c, 6, 69, 0
10, 16935, Note_on_c, 6, 86, 90
10, 16949, Note_on_c, 6, 86, 0
10, 16950, Note_on_c, 6, 85, 90
10, 16964, Note_on_c, 6, 85, 0
10, 16965, Note_on_c, 6, 83, 90
10, 16979, Note_on_c, 6, 83, 0
10, 16980, Note_on_c, 6, 81, 90
10, 16994, Note_on_c, 6, 81, 0
10, 16995, Note_on_c, 6, 86, 90
10, 17009, Note_on_c, 6, 86, 0
10, 17010, Note_on_c, 6, 85, 90
10, 17024, Note_on_c, 6, 85, 0
10, 17025, Note_on_c, 6, 83, 90
10, 17039, Note_on_c, 6, 83, 0
10, 17040, Note_on_c, 6, 81, 90
10, 17054, Note_on_c, 6, 81, 0
10, 17055, Note_on_c, 6, 79, 90
10, 17069, Note_on_c, 6, 79, 0
10, 17070, Note_on_c, 6, 78, 90
10, 17084, Note_on_c, 6, 78, 0
10, 17085, Note_on_c, 6, 76, 90
10, 17099, Note_on_c, 6, 76, 0
10, 17100, Note_on_c, 6, 78, 90
10, 17114, Note_on_c, 6, 78, 0
10, 17115, Note_on_c, 6, 74, 90
10, 17129, Note_on_c, 6, 74, 0
10, 17130, Note_on_c, 6, 73, 90
10, 17144, Note_on_c, 6, 73, 0
10, 17145, Note_on_c, 6, 71, 90
10, 17159, Note_on_c, 6, 71, 0
10, 17160, Note_on_c, 6, 69, 90
10, 17174, Note_on_c, 6, 69, 0
10, 17175, Note_on_c, 6, 74, 90
10, 17189, Note_on_c, 6, 74, 0
10, 17190, Note_on_c, 6, 73, 90
10, 17204, Note_on_c, 6, 73, 0
10, 17205, Note_on_c, 6, 71, 90
10, 17219, Note_on_c, 6, 71, 0
10, 17220, Note_on_c, 6, 69, 90
10, 17234, Note_on_c, 6, 69, 0
10, 17235, Note_on_c, 6, 67, 90
10, 17249, Note_on_c, 6, 67, 0
10, 17250, Note_on_c, 6, 66, 90
10, 17264, Note_on_c, 6, 66, 0
10, 17265, Note_on_c, 6, 64, 90
10, 17279, Note_on_c, 6, 64, 0
10, 17280, Note_on_c, 6, 66, 90
10, 17294, Note_on_c, 6, 66, 0
10, 17295, Note_on_c, 6, 71, 90
10, 17309, Note_on_c, 6, 71, 0
10, 17310, Note_on_c, 6, 69, 90
10, 17324, Note_on_c, 6, 69, 0
10, 17325, Note_on_c, 6, 67, 90
10, 17339, Note_on_c, 6, 67, 0
10, 17340, Note_on_c, 6, 66, 90
10, 17354, Note_on_c, 6, 66, 0
10, 17355, Note_on_c, 6, 71, 90
10, 17369, Note_on_c, 6, 71, 0
10, 17370, Note_on_c, 6, 69, 90
10, 17384, Note_on_c, 6, 69, 0
10, 17385, Note_on_c, 6, 67, 90
10, 17399, Note_on_c, 6, 67, 0
10, 17400, Note_on_c, 6, 66, 90
10, 17414, Note_on_c, 6, 66, 0
10, 17415, Note_on_c, 6, 64, 90
10, 17429, Note_on_c, 6, 64, 0
10, 17430, Note_on_c, 6, 62, 90
10, 17444, Note_on_c, 6, 62, 0
10, 17445, Note_on_c, 6, 61, 90
10, 17459, Note_on_c, 6, 61, 0
10, 17460, Note_on_c, 6, 62, 90
10, 17474, Note_on_c, 6, 62, 0
10, 17475, Note_on_c, 6, 59, 90
10, 17489, Note_on_c, 6, 59, 0
10, 17490, Note_on_c, 6, 57, 90
10, 17504, Note_on_c, 6, 57, 0
10, 17505, Note_on_c, 6, 55, 90
10, 17519, Note_on_c, 6, 55, 0
10, 17520, Note_on_c, 6, 57, 90
10, 17534, Note_on_c, 6, 57, 0
10, 17535, Note_on_c, 6, 59, 90
10, 17549, Note_on_c, 6, 59, 0
10, 17550, Note_on_c, 6, 57, 90
10, 17564, Note_on_c, 6, 57, 0
10, 17565, Note_on_c, 6, 55, 90
10, 17579, Note_on_c, 6, 55, 0
10, 17580, Note_on_c, 6, 57, 90
10, 17594, Note_on_c, 6, 57, 0
10, 17595, Note_on_c, 6, 59, 90
10, 17609, Note_on_c, 6, 59, 0
10, 17610, Note_on_c, 6, 57, 90
10, 17624, Note_on_c, 6, 57, 0
10, 17625, Note_on_c, 6, 55, 90
10, 17639, Note_on_c, 6, 55, 0
10, 17640, Note_on_c, 6, 57, 90
10, 17657, Note_on_c, 6, 57, 0
10, 17670, Note_on_c, 6, 57, 90
10, 17687, Note_on_c, 6, 57, 0
10, 17700, Note_on_c, 6, 57, 90
10, 17717, Note_on_c, 6, 57, 0
10, 17730, Note_on_c, 6, 57, 90
10, 17747, Note_on_c, 6, 57, 0
10, 17760, Note_on_c, 6, 57, 90
10, 17777, Note_on_c, 6, 57, 0
10, 17790, Note_on_c, 6, 57, 90
10, 17807, Note_on_c, 6, 57, 0
10, 17820, Note_on_c, 6, 57, 90
10, 17837, Note_on_c, 6, 57, 0
10, 17850, Note_on_c, 6, 57, 90
10, 17867, Note_on_c, 6, 57, 0
10, 17880, Note_on_c, 6, 57, 90
10, 17897, Note_on_c, 6, 57, 0
10, 17910, Note_on_c, 6, 57, 90
10, 17927, Note_on_c, 6, 57, 0
10, 17940, Note_on_c, 6, 57, 90
10, 17957, Note_on_c, 6, 57, 0
10, 17970, Note_on_c, 6, 57, 90
10, 17987, Note_on_c, 6, 57, 0
10, 18000, Note_on_c, 6, 57, 90
10, 18017, Note_on_c, 6, 57, 0
10, 18030, Note_on_c, 6, 57, 90
10, 18047, Note_on_c, 6, 57, 0
10, 18060, Note_on_c, 6, 57, 90
10, 18077, Note_on_c, 6, 57, 0
10, 18090, Note_on_c, 6, 57, 90
10, 18107, Note_on_c, 6, 57, 0
10, 18120, Note_on_c, 6, 57, 90
10, 18137, Note_on_c, 6, 57, 0
10, 18150, Note_on_c, 6, 57, 90
10, 18167, Note_on_c, 6, 57, 0
10, 18180, Note_on_c, 6, 57, 90
10, 18197, Note_on_c, 6, 57, 0
10, 18210, Note_on_c, 6, 57, 90
10, 18227, Note_on_c, 6, 57, 0
10, 18240, Note_on_c, 6, 57, 90
10, 18257, Note_on_c, 6, 57, 0
10, 18270, Note_on_c, 6, 57, 90
10, 18287, Note_on_c, 6, 57, 0
10, 18300, Note_on_c, 6, 78, 90
10, 18329, Note_on_c, 6, 78, 0
10, 18330, Note_on_c, 6, 79, 90
10, 18359, Note_on_c, 6, 79, 0
10, 18360, Note_on_c, 6, 81, 90
10, 18389, Note_on_c, 6, 81, 0
10, 18420, Note_on_c, 6, 72, 90
10, 18449, Note_on_c, 6, 72, 0
10, 18480, Note_on_c, 6, 72, 90
10, 18509, Note_on_c, 6, 72, 0
10, 18540, Note_on_c, 6, 72, 90
10, 18555, Note_on_c, 6, 72, 0
10, 18555, Note_on_c, 6, 74, 90
10, 18570, Note_on_c, 6, 74, 0
10, 18570, Note_on_c, 6, 72, 90
10, 18599, Note_on_c, 6, 72, 0
10, 18600, Note_on_c, 6, 71, 90
10, 18659, Note_on_c, 6, 71, 0
10, 18660, Note_on_c, 6, 79, 90
10, 18719, Note_on_c, 6, 79, 0
10, 18720, Note_on_c, 6, 78, 90
10, 18779, Note_on_c, 6, 78, 0
10, 18780, Note_on_c, 6, 76, 90
10, 18839, Note_on_c, 6, 76, 0
10, 18840, Note_on_c, 6, 74, 90
10, 18899, Note_on_c, 6, 74, 0
10, 18900, Note_on_c, 6, 81, 90
10, 19019, Note_on_c, 6, 81, 0
10, 19500, Note_on_c, 6, 73, 90
10, 19529, Note_on_c, 6, 73, 0
10, 19530, Note_on_c, 6, 74, 90
10, 19559, Note_on_c, 6, 74, 0
10, 19560, Note_on_c, 6, 76, 90
10, 19574, Note_on_c, 6, 76, 0
10, 19575, Note_on_c, 6, 74, 90
10, 19589, Note_on_c, 6, 74, 0
10, 19590, Note_on_c, 6, 73, 90
10, 19604, Note_on_c, 6, 73, 0
10, 19605, Note_on_c, 6, 74, 90
10, 19619, Note_on_c, 6, 74, 0
10, 19620, Note_on_c, 6, 76, 90
10, 19649, Note_on_c, 6, 76, 0
10, 19650, Note_on_c, 6, 74, 90
10, 19679, Note_on_c, 6, 74, 0
10, 19680, Note_on_c, 6, 76, 90
10, 19709, Note_on_c, 6, 76, 0
10, 19710, Note_on_c, 6, 78, 90
10, 19739, Note_on_c, 6, 78, 0
10, 19740, Note_on_c, 6, 79, 90
10, 19754, Note_on_c, 6, 79, 0
10, 19755, Note_on_c, 6, 78, 90
10, 19769, Note_on_c, 6, 78, 0
10, 19770, Note_on_c, 6, 76, 90
10, 19784, Note_on_c, 6, 76, 0
10, 19785, Note_on_c, 6, 78, 90
10, 19799, Note_on_c, 6, 78, 0
10, 19800, Note_on_c, 6, 79, 90
10, 19829, Note_on_c, 6, 79, 0
10, 19860, Note_on_c, 6, 78, 90
10, 19889, Note_on_c, 6, 78, 0
10, 19920, Note_on_c, 6, 76, 90
10, 19949, Note_on_c, 6, 76, 0
10, 19980, Note_on_c, 6, 74, 90
10, 20009, Note_on_c, 6, 74, 0
10, 20010, Note_on_c, 6, 76, 90
10, 20039, Note_on_c, 6, 76, 0
10, 20040, Note_on_c, 6, 78, 90
10, 20069, Note_on_c, 6, 78, 0
10, 20070, Note_on_c, 6, 79, 90
10, 20099, Note_on_c, 6, 79, 0
10, 20100, Note_on_c, 6, 81, 90
10, 20114, Note_on_c, 6, 81, 0
10, 20115, Note_on_c, 6, 79, 90
10, 20129, Note_on_c, 6, 79, 0
10, 20130, Note_on_c, 6, 78, 90
10, 20144, Note_on_c, 6, 78, 0
10, 20145, Note_on_c, 6, 79, 90
10, 20159, Note_on_c, 6, 79, 0
10, 20160, Note_on_c, 6, 81, 90
10, 20189, Note_on_c, 6, 81, 0
10, 20220, Note_on_c, 6, 74, 90
10, 20249, Note_on_c, 6, 74, 0
10, 20280, Note_on_c, 6, 76, 90
10, 20309, Note_on_c, 6, 76, 0
10, 20340, Note_on_c, 6, 73, 90
10, 20369, Note_on_c, 6, 73, 0
10, 20370, Note_on_c, 6, 69, 90
10, 20399, Note_on_c, 6, 69, 0
10, 20400, Note_on_c, 6, 74, 90
10, 20429, Note_on_c, 6, 74, 0
10, 20430, Note_on_c, 6, 76, 90
10, 20459, Note_on_c, 6, 76, 0
10, 20460, Note_on_c, 6, 78, 90
10, 20474, Note_on_c, 6, 78, 0
10, 20475, Note_on_c, 6, 76, 90
10, 20489, Note_on_c, 6, 76, 0
10, 20490, Note_on_c, 6, 74, 90
10, 20504, Note_on_c, 6, 74, 0
10, 20505, Note_on_c, 6, 76, 90
10, 20519, Note_on_c, 6, 76, 0
10, 20520, Note_on_c, 6, 78, 90
10, 20549, Note_on_c, 6, 78, 0
10, 20550, Note_on_c, 6, 76, 90
10, 20579, Note_on_c, 6, 76, 0
10, 20580, Note_on_c, 6, 78, 90
10, 20609, Note_on_c, 6, 78, 0
10, 20610, Note_on_c, 6, 80, 90
10, 20639, Note_on_c, 6, 80, 0
10, 20640, Note_on_c, 6, 81, 90
10, 20654, Note_on_c, 6, 81, 0
10, 20655, Note_on_c, 6, 80, 90
10, 20669, Note_on_c, 6, 80, 0
10, 20670, Note_on_c, 6, 78, 90
10, 20684, Note_on_c, 6, 78, 0
10, 20685, Note_on_c, 6, 80, 90
10, 20699, Note_on_c, 6, 80, 0
10, 20700, Note_on_c, 6, 81, 90
10, 20759, Note_on_c, 6, 81, 0
10, 20760, Note_on_c, 6, 76, 90
10, 20789, Note_on_c, 6, 76, 0
10, 20790, Note_on_c, 6, 78, 90
10, 20819, Note_on_c, 6, 78, 0
10, 20820, Note_on_c, 6, 79, 90
10, 20834, Note_on_c, 6, 79, 0
10, 20835, Note_on_c, 6, 78, 90
10, 20849, Note_on_c, 6, 78, 0
10, 20850, Note_on_c, 6, 76, 90
10, 20864, Note_on_c, 6, 76, 0
10, 20865, Note_on_c, 6, 78, 90
10, 20879, Note_on_c, 6, 78, 0
10, 20880, Note_on_c, 6, 79, 90
10, 20909, Note_on_c, 6, 79, 0
10, 20940, Note_on_c, 6, 72, 90
10, 20969, Note_on_c, 6, 72, 0
10, 21000, Note_on_c, 6, 72, 90
10, 21029, Note_on_c, 6, 72, 0
10, 21060, Note_on_c, 6, 71, 90
10, 21119, Note_on_c, 6, 71, 0
10, 21120, Note_on_c, 6, 74, 90
10, 21179, Note_on_c, 6, 74, 0
10, 21180, Note_on_c, 6, 79, 90
10, 21239, Note_on_c, 6, 79, 0
10, 21240, Note_on_c, 6, 78, 90
10, 21299, Note_on_c, 6, 78, 0
10, 21300, Note_on_c, 6, 69, 90
10, 21359, Note_on_c, 6, 69, 0
10, 21360, Note_on_c, 6, 74, 90
10, 21419, Note_on_c, 6, 74, 0
10, 21420, Note_on_c, 6, 73, 90
10, 21449, Note_on_c, 6, 73, 0
10, 21450, Note_on_c, 6, 71, 90
10, 21479, Note_on_c, 6, 71, 0
10, 21480, Note_on_c, 6, 73, 90
10, 21509, Note_on_c, 6, 73, 0
10, 21510, Note_on_c, 6, 74, 90
10, 21539, Note_on_c, 6, 74, 0
10, 21540, Note_on_c, 6, 76, 90
10, 21569, Note_on_c, 6, 76, 0
10, 21570, Note_on_c, 6, 78, 90
10, 21599, Note_on_c, 6, 78, 0
10, 21600, Note_on_c, 6, 75, 90
10, 21629, Note_on_c, 6, 75, 0
10, 21630, Note_on_c, 6, 78, 90
10, 21659, Note_on_c, 6, 78, 0
10, 21660, Note_on_c, 6, 81, 90
10, 21779, Note_on_c, 6, 81, 0
10, 21780, Note_on_c, 6, 72, 90
10, 21794, Note_on_c, 6, 72, 0
10, 21795, Note_on_c, 6, 71, 90
10, 21809, Note_on_c, 6, 71, 0
10, 21810, Note_on_c, 6, 69, 90
10, 21839, Note_on_c, 6, 69, 0
10, 21840, Note_on_c, 6, 69, 90
10, 21869, Note_on_c, 6, 69, 0
10, 21870, Note_on_c, 6, 71, 90
10, 21989, Note_on_c, 6, 71, 0
10, 21990, Note_on_c, 6, 73, 90
10, 22004, Note_on_c, 6, 73, 0
10, 22005, Note_on_c, 6, 75, 90
10, 22019, Note_on_c, 6, 75, 0
10, 22020, Note_on_c, 6, 76, 90
10, 22049, Note_on_c, 6, 76, 0
10, 22050, Note_on_c, 6, 78, 90
10, 22064, Note_on_c, 6, 78, 0
10, 22065, Note_on_c, 6, 79, 90
10, 22079, Note_on_c, 6, 79, 0
10, 22080, Note_on_c, 6, 81, 90
10, 22169, Note_on_c, 6, 81, 0
10, 22170, Note_on_c, 6, 79, 90
10, 22184, Note_on_c, 6, 79, 0
10, 22185, Note_on_c, 6, 78, 90
10, 22199, Note_on_c, 6, 78, 0
10, 22200, Note_on_c, 6, 79, 90
10, 22229, Note_on_c, 6, 79, 0
10, 22230, Note_on_c, 6, 78, 90
10, 22244, Note_on_c, 6, 78, 0
10, 22245, Note_on_c, 6, 76, 90
10, 22259, Note_on_c, 6, 76, 0
10, 22260, Note_on_c, 6, 79, 90
10, 22289, Note_on_c, 6, 79, 0
10, 22290, Note_on_c, 6, 76, 90
10, 22304, Note_on_c, 6, 76, 0
10, 22305, Note_on_c, 6, 78, 90
10, 22319, Note_on_c, 6, 78, 0
10, 22320, Note_on_c, 6, 79, 90
10, 22349, Note_on_c, 6, 79, 0
10, 22350, Note_on_c, 6, 83, 90
10, 22364, Note_on_c, 6, 83, 0
10, 22365, Note_on_c, 6, 81, 90
10, 22379, Note_on_c, 6, 81, 0
10, 22380, Note_on_c, 6, 79, 90
10, 22409, Note_on_c, 6, 79, 0
10, 22410, Note_on_c, 6, 83, 90
10, 22424, Note_on_c, 6, 83, 0
10, 22425, Note_on_c, 6, 81, 90
10, 22439, Note_on_c, 6, 81, 0
10, 22440, Note_on_c, 6, 79, 90
10, 22529, Note_on_c, 6, 79, 0
10, 22530, Note_on_c, 6, 76, 90
10, 22544, Note_on_c, 6, 76, 0
10, 22545, Note_on_c, 6, 78, 90
10, 22559, Note_on_c, 6, 78, 0
10, 22560, Note_on_c, 6, 79, 90
10, 22589, Note_on_c, 6, 79, 0
10, 22590, Note_on_c, 6, 76, 90
10, 22604, Note_on_c, 6, 76, 0
10, 22605, Note_on_c, 6, 78, 90
10, 22619, Note_on_c, 6, 78, 0
10, 22620, Note_on_c, 6, 79, 90
10, 22709, Note_on_c, 6, 79, 0
10, 22710, Note_on_c, 6, 78, 90
10, 22724, Note_on_c, 6, 78, 0
10, 22725, Note_on_c, 6, 79, 90
10, 22739, Note_on_c, 6, 79, 0
10, 22740, Note_on_c, 6, 81, 90
10, 22769, Note_on_c, 6, 81, 0
10, 22770, Note_on_c, 6, 79, 90
10, 22784, Note_on_c, 6, 79, 0
10, 22785, Note_on_c, 6, 78, 90
10, 22799, Note_on_c, 6, 78, 0
10, 22800, Note_on_c, 6, 79, 90
10, 22829, Note_on_c, 6, 79, 0
10, 22830, Note_on_c, 6, 78, 90
10, 22844, Note_on_c, 6, 78, 0
10, 22845, Note_on_c, 6, 76, 90
10, 22859, Note_on_c, 6, 76, 0
10, 22860, Note_on_c, 6, 78, 90
10, 22889, Note_on_c, 6, 78, 0
10, 22890, Note_on_c, 6, 81, 90
10, 22904, Note_on_c, 6, 81, 0
10, 22905, Note_on_c, 6, 79, 90
10, 22919, Note_on_c, 6, 79, 0
10, 22920, Note_on_c, 6, 78, 90
10, 22949, Note_on_c, 6, 78, 0
10, 22950, Note_on_c, 6, 81, 90
10, 22964, Note_on_c, 6, 81, 0
10, 22965, Note_on_c, 6, 79, 90
10, 22979, Note_on_c, 6, 79, 0
10, 22980, Note_on_c, 6, 78, 90
10, 23069, Note_on_c, 6, 78, 0
10, 23070, Note_on_c, 6, 83, 90
10, 23084, Note_on_c, 6, 83, 0
10, 23100, Note_on_c, 6, 83, 90
10, 23114, Note_on_c, 6, 83, 0
10, 23130, Note_on_c, 6, 78, 90
10, 23144, Note_on_c, 6, 78, 0
10, 23160, Note_on_c, 6, 78, 90
10, 23174, Note_on_c, 6, 78, 0
10, 23190, Note_on_c, 6, 74, 90
10, 23204, Note_on_c, 6, 74, 0
10, 23220, Note_on_c, 6, 74, 90
10, 23234, Note_on_c, 6, 74, 0
10, 23235, Note_on_c, 6, 78, 90
10, 23249, Note_on_c, 6, 78, 0
10, 23250, Note_on_c, 6, 80, 90
10, 23264, Note_on_c, 6, 80, 0
10, 23265, Note_on_c, 6, 81, 90
10, 23279, Note_on_c, 6, 81, 0
10, 23280, Note_on_c, 6, 83, 90
10, 23294, Note_on_c, 6, 83, 0
10, 23295, Note_on_c, 6, 85, 90
10, 23309, Note_on_c, 6, 85, 0
10, 23310, Note_on_c, 6, 83, 90
10, 23324, Note_on_c, 6, 83, 0
10, 23325, Note_on_c, 6, 81, 90
10, 23339, Note_on_c, 6, 81, 0
10, 23340, Note_on_c, 6, 80, 90
10, 23354, Note_on_c, 6, 80, 0
10, 23355, Note_on_c, 6, 78, 90
10, 23369, Note_on_c, 6, 78, 0
10, 23370, Note_on_c, 6, 76, 90
10, 23384, Note_on_c, 6, 76, 0
10, 23385, Note_on_c, 6, 74, 90
10, 23399, Note_on_c, 6, 74, 0
10, 23400, Note_on_c, 6, 73, 90
10, 23414, Note_on_c, 6, 73, 0
10, 23430, Note_on_c, 6, 81, 90
10, 23444, Note_on_c, 6, 81, 0
10, 23460, Note_on_c, 6, 81, 90
10, 23474, Note_on_c, 6, 81, 0
10, 23490, Note_on_c, 6, 76, 90
10, 23504, Note_on_c, 6, 76, 0
10, 23520, Note_on_c, 6, 76, 90
10, 23534, Note_on_c, 6, 76, 0
10, 23550, Note_on_c, 6, 72, 90
10, 23564, Note_on_c, 6, 72, 0
10, 23580, Note_on_c, 6, 72, 90
10, 23594, Note_on_c, 6, 72, 0
10, 23595, Note_on_c, 6, 76, 90
10, 23609, Note_on_c, 6, 76, 0
10, 23610, Note_on_c, 6, 78, 90
10, 23624, Note_on_c, 6, 78, 0
10, 23625, Note_on_c, 6, 79, 90
10, 23639, Note_on_c, 6, 79, 0
10, 23640, Note_on_c, 6, 81, 90
10, 23654, Note_on_c, 6, 81, 0
10, 23655, Note_on_c, 6, 83, 90
10, 23669, Note_on_c, 6, 83, 0
10, 23670, Note_on_c, 6, 81, 90
10, 23684, Note_on_c, 6, 81, 0
10, 23685, Note_on_c, 6, 79, 90
10, 23699, Note_on_c, 6, 79, 0
10, 23700, Note_on_c, 6, 78, 90
10, 23714, Note_on_c, 6, 78, 0
10, 23715, Note_on_c, 6, 76, 90
10, 23729, Note_on_c, 6, 76, 0
10, 23730, Note_on_c, 6, 74, 90
10, 23744, Note_on_c, 6, 74, 0
10, 23745, Note_on_c, 6, 72, 90
10, 23759, Note_on_c, 6, 72, 0
10, 23760, Note_on_c, 6, 71, 90
10, 23774, Note_on_c, 6, 71, 0
10, 23775, Note_on_c, 6, 67, 90
10, 23789, Note_on_c, 6, 67, 0
10, 23790, Note_on_c, 6, 69, 90
10, 23804, Note_on_c, 6, 69, 0
10, 23805, Note_on_c, 6, 71, 90
10, 23819, Note_on_c, 6, 71, 0
10, 23820, Note_on_c, 6, 73, 90
10, 23834, Note_on_c, 6, 73, 0
10, 23835, Note_on_c, 6, 69, 90
10, 23849, Note_on_c, 6, 69, 0
10, 23850, Note_on_c, 6, 71, 90
10, 23864, Note_on_c, 6, 71, 0
10, 23865, Note_on_c, 6, 73, 90
10, 23879, Note_on_c, 6, 73, 0
10, 23880, Note_on_c, 6, 74, 90
10, 23894, Note_on_c, 6, 74, 0
10, 23895, Note_on_c, 6, 71, 90
10, 23909, Note_on_c, 6, 71, 0
10, 23910, Note_on_c, 6, 73, 90
10, 23924, Note_on_c, 6, 73, 0
10, 23925, Note_on_c, 6, 74, 90
10, 23939, Note_on_c, 6, 74, 0
10, 23940, Note_on_c, 6, 76, 90
10, 23954, Note_on_c, 6, 76, 0
10, 23955, Note_on_c, 6, 73, 90
10, 23969, Note_on_c, 6, 73, 0
10, 23970, Note_on_c, 6, 74, 90
10, 23984, Note_on_c, 6, 74, 0
10, 23985, Note_on_c, 6, 76, 90
10, 23999, Note_on_c, 6, 76, 0
10, 24000, Note_on_c, 6, 78, 90
10, 24014, Note_on_c, 6, 78, 0
10, 24015, Note_on_c, 6, 74, 90
10, 24029, Note_on_c, 6, 74, 0
10, 24030, Note_on_c, 6, 76, 90
10, 24044, Note_on_c, 6, 76, 0
10, 24045, Note_on_c, 6, 78, 90
10, 24059, Note_on_c, 6, 78, 0
10, 24060, Note_on_c, 6, 79, 90
10, 24074, Note_on_c, 6, 79, 0
10, 24075, Note_on_c, 6, 76, 90
10, 24089, Note_on_c, 6, 76, 0
10, 24090, Note_on_c, 6, 78, 90
10, 24104, Note_on_c, 6, 78, 0
10, 24105, Note_on_c, 6, 79, 90
10, 24119, Note_on_c, 6, 79, 0
10, 24120, Note_on_c, 6, 81, 90
10, 24134, Note_on_c, 6, 81, 0
10, 24135, Note_on_c, 6, 78, 90
10, 24149, Note_on_c, 6, 78, 0
10, 24150, Note_on_c, 6, 79, 90
10, 24164, Note_on_c, 6, 79, 0
10, 24165, Note_on_c, 6, 81, 90
10, 24179, Note_on_c, 6, 81, 0
10, 24180, Note_on_c, 6, 83, 90
10, 24194, Note_on_c, 6, 83, 0
10, 24195, Note_on_c, 6, 79, 90
10, 24209, Note_on_c, 6, 79, 0
10, 24210, Note_on_c, 6, 81, 90
10, 24224, Note_on_c, 6, 81, 0
10, 24225, Note_on_c, 6, 83, 90
10, 24239, Note_on_c, 6, 83, 0
10, 24240, Note_on_c, 6, 85, 90
10, 24254, Note_on_c, 6, 85, 0
10, 24255, Note_on_c, 6, 81, 90
10, 24269, Note_on_c, 6, 81, 0
10, 24270, Note_on_c, 6, 83, 90
10, 24284, Note_on_c, 6, 83, 0
10, 24285, Note_on_c, 6, 85, 90
10, 24299, Note_on_c, 6, 85, 0
10, 24300, Note_on_c, 6, 86, 90
10, 24329, Note_on_c, 6, 86, 0
10, 24360, Note_on_c, 6, 69, 90
10, 24389, Note_on_c, 6, 69, 0
10, 24420, Note_on_c, 6, 73, 90
10, 24449, Note_on_c, 6, 73, 0
10, 24480, Note_on_c, 6, 74, 90
10, 24659, Note_on_c, 6, 74, 0
10, 24660, Note_on_c, 6, 78, 90
10, 24690, Note_on_c, 6, 78, 0
10, 24720, Note_on_c, 6, 79, 90
10, 24750, Note_on_c, 6, 79, 0
10, 24840, Note_on_c, 6, 79, 90
10, 24870, Note_on_c, 6, 79, 0
10, 24900, Note_on_c, 6, 78, 90
10, 24930, Note_on_c, 6, 78, 0
10, 25020, Note_on_c, 6, 71, 90
10, 25050, Note_on_c, 6, 71, 0
10, 25080, Note_on_c, 6, 83, 90
10, 25110, Note_on_c, 6, 83, 0
10, 25200, Note_on_c, 6, 82, 90
10, 25230, Note_on_c, 6, 82, 0
10, 25260, Note_on_c, 6, 73, 90
10, 25290, Note_on_c, 6, 73, 0
10, 25380, Note_on_c, 6, 71, 90
10, 25410, Note_on_c, 6, 71, 0
10, 25440, Note_on_c, 6, 79, 90
10, 25470, Note_on_c, 6, 79, 0
10, 25560, Note_on_c, 6, 79, 90
10, 25590, Note_on_c, 6, 79, 0
10, 25620, Note_on_c, 6, 78, 90
10, 25650, Note_on_c, 6, 78, 0
10, 25740, Note_on_c, 6, 71, 90
10, 25770, Note_on_c, 6, 71, 0
10, 25800, Note_on_c, 6, 76, 90
10, 25830, Note_on_c, 6, 76, 0
10, 25920, Note_on_c, 6, 76, 90
10, 25950, Note_on_c, 6, 76, 0
10, 25980, Note_on_c, 6, 74, 90
10, 26010, Note_on_c, 6, 74, 0
10, 26100, Note_on_c, 6, 73, 90
10, 26130, Note_on_c, 6, 73, 0
10, 26160, Note_on_c, 6, 78, 90
10, 26190, Note_on_c, 6, 78, 0
10, 26280, Note_on_c, 6, 78, 90
10, 26310, Note_on_c, 6, 78, 0
10, 26340, Note_on_c, 6, 76, 90
10, 26370, Note_on_c, 6, 76, 0
10, 26460, Note_on_c, 6, 69, 90
10, 26490, Note_on_c, 6, 69, 0
10, 26520, Note_on_c, 6, 74, 90
10, 26550, Note_on_c, 6, 74, 0
10, 26640, Note_on_c, 6, 74, 90
10, 26670, Note_on_c, 6, 74, 0
10, 26700, Note_on_c, 6, 79, 90
10, 26730, Note_on_c, 6, 79, 0
10, 26820, Note_on_c, 6, 79, 90
10, 26850, Note_on_c, 6, 79, 0
10, 26880, Note_on_c, 6, 78, 90
10, 26910, Note_on_c, 6, 78, 0
10, 27000, Note_on_c, 6, 78, 90
10, 27030, Note_on_c, 6, 78, 0
10, 27060, Note_on_c, 6, 76, 90
10, 27090, Note_on_c, 6, 76, 0
10, 27180, Note_on_c, 6, 73, 90
10, 27210, Note_on_c, 6, 73, 0
10, 27240, Note_on_c, 6, 74, 90
10, 27270, Note_on_c, 6, 74, 0
10, 27360, Note_on_c, 6, 71, 90
10, 27390, Note_on_c, 6, 71, 0
10, 27420, Note_on_c, 6, 73, 90
10, 27450, Note_on_c, 6, 73, 0
10, 27480, Note_on_c, 6, 76, 90
10, 27510, Note_on_c, 6, 76, 0
10, 27540, Note_on_c, 6, 74, 90
10, 27659, Note_on_c, 6, 74, 0
10, 28080, Note_on_c, 6, 76, 90
10, 28139, Note_on_c, 6, 76, 0
10, 28140, Note_on_c, 6, 74, 90
10, 28169, Note_on_c, 6, 74, 0
10, 28170, Note_on_c, 6, 73, 90
10, 28199, Note_on_c, 6, 73, 0
10, 28200, Note_on_c, 6, 71, 90
10, 28229, Note_on_c, 6, 71, 0
10, 28230, Note_on_c, 6, 69, 90
10, 28259, Note_on_c, 6, 69, 0
10, 28260, Note_on_c, 6, 78, 90
10, 28499, Note_on_c, 6, 78, 0
10, 28500, Note_on_c, 6, 71, 90
10, 28559, Note_on_c, 6, 71, 0
10, 28560, Note_on_c, 6, 76, 90
10, 28679, Note_on_c, 6, 76, 0
10, 28680, Note_on_c, 6, 74, 90
10, 28709, Note_on_c, 6, 74, 0
10, 28710, Note_on_c, 6, 73, 90
10, 28739, Note_on_c, 6, 73, 0
10, 28740, Note_on_c, 6, 74, 90
10, 28859, Note_on_c, 6, 74, 0
10, 28860, Note_on_c, 6, 73, 90
10, 28889, Note_on_c, 6, 73, 0
10, 28890, Note_on_c, 6, 71, 90
10, 28919, Note_on_c, 6, 71, 0
10, 28920, Note_on_c, 6, 69, 90
10, 28949, Note_on_c, 6, 69, 0
10, 28950, Note_on_c, 6, 67, 90
10, 28979, Note_on_c, 6, 67, 0
10, 28980, Note_on_c, 6, 66, 90
10, 29039, Note_on_c, 6, 66, 0
10, 29040, Note_on_c, 6, 62, 90
10, 29099, Note_on_c, 6, 62, 0
10, 29280, Note_on_c, 6, 78, 90
10, 29399, Note_on_c, 6, 78, 0
10, 29400, Note_on_c, 6, 76, 90
10, 29429, Note_on_c, 6, 76, 0
10, 29430, Note_on_c, 6, 74, 90
10, 29459, Note_on_c, 6, 74, 0
10, 29460, Note_on_c, 6, 73, 90
10, 29489, Note_on_c, 6, 73, 0
10, 29490, Note_on_c, 6, 71, 90
10, 29519, Note_on_c, 6, 71, 0
10, 29520, Note_on_c, 6, 70, 90
10, 29579, Note_on_c, 6, 70, 0
10, 29580, Note_on_c, 6, 71, 90
10, 29609, Note_on_c, 6, 71, 0
10, 29610, Note_on_c, 6, 70, 90
10, 29639, Note_on_c, 6, 70, 0
10, 29640, Note_on_c, 6, 71, 90
10, 29669, Note_on_c, 6, 71, 0
10, 29670, Note_on_c, 6, 64, 90
10, 29699, Note_on_c, 6, 64, 0
10, 29700, Note_on_c, 6, 76, 90
10, 29759, Note_on_c, 6, 76, 0
10, 29760, Note_on_c, 6, 74, 90
10, 29789, Note_on_c, 6, 74, 0
10, 29790, Note_on_c, 6, 73, 90
10, 29819, Note_on_c, 6, 73, 0
10, 29820, Note_on_c, 6, 74, 90
10, 29849, Note_on_c, 6, 74, 0
10, 29850, Note_on_c, 6, 71, 90
10, 29879, Note_on_c, 6, 71, 0
10, 29880, Note_on_c, 6, 79, 90
10, 29939, Note_on_c, 6, 79, 0
10, 29940, Note_on_c, 6, 78, 90
10, 29969, Note_on_c, 6, 78, 0
10, 29970, Note_on_c, 6, 76, 90
10, 29999, Note_on_c, 6, 76, 0
10, 30000, Note_on_c, 6, 78, 90
10, 30029, Note_on_c, 6, 78, 0
10, 30030, Note_on_c, 6, 74, 90
10, 30059, Note_on_c, 6, 74, 0
10, 30060, Note_on_c, 6, 76, 90
10, 30119, Note_on_c, 6, 76, 0
10, 30120, Note_on_c, 6, 73, 90
10, 30179, Note_on_c, 6, 73, 0
10, 30180, Note_on_c, 6, 74, 90
10, 30239, Note_on_c, 6, 74, 0
10, 30240, Note_on_c, 6, 71, 90
10, 30299, Note_on_c, 6, 71, 0
10, 30300, Note_on_c, 6, 74, 90
10, 30329, Note_on_c, 6, 74, 0
10, 30330, Note_on_c, 6, 73, 90
10, 30359, Note_on_c, 6, 73, 0
10, 30360, Note_on_c, 6, 71, 90
10, 30389, Note_on_c, 6, 71, 0
10, 30390, Note_on_c, 6, 70, 90
10, 30419, Note_on_c, 6, 70, 0
10, 30420, Note_on_c, 6, 71, 90
10, 30479, Note_on_c, 6, 71, 0
10, 30480, Note_on_c, 6, 66, 90
10, 30539, Note_on_c, 6, 66, 0
10, 31080, Note_on_c, 6, 78, 90
10, 31109, Note_on_c, 6, 78, 0
10, 31110, Note_on_c, 6, 79, 90
10, 31139, Note_on_c, 6, 79, 0
10, 31140, Note_on_c, 6, 81, 90
10, 31169, Note_on_c, 6, 81, 0
10, 31200, Note_on_c, 6, 81, 90
10, 31229, Note_on_c, 6, 81, 0
10, 31260, Note_on_c, 6, 81, 90
10, 31289, Note_on_c, 6, 81, 0
10, 31320, Note_on_c, 6, 81, 90
10, 31379, Note_on_c, 6, 81, 0
10, 31380, Note_on_c, 6, 79, 90
10, 31409, Note_on_c, 6, 79, 0
10, 31410, Note_on_c, 6, 78, 90
10, 31439, Note_on_c, 6, 78, 0
10, 31440, Note_on_c, 6, 79, 90
10, 31469, Note_on_c, 6, 79, 0
10, 31470, Note_on_c, 6, 76, 90
10, 31499, Note_on_c, 6, 76, 0
10, 31500, Note_on_c, 6, 72, 90
10, 31559, Note_on_c, 6, 72, 0
10, 31560, Note_on_c, 6, 81, 90
10, 31619, Note_on_c, 6, 81, 0
10, 31620, Note_on_c, 6, 72, 90
10, 31679, Note_on_c, 6, 72, 0
10, 31680, Note_on_c, 6, 72, 90
10, 31695, Note_on_c, 6, 72, 0
10, 31695, Note_on_c, 6, 74, 90
10, 31710, Note_on_c, 6, 74, 0
10, 31710, Note_on_c, 6, 72, 90
10, 31720, Note_on_c, 6, 72, 0
10, 31720, Note_on_c, 6, 74, 90
10, 31730, Note_on_c, 6, 74, 0
10, 31730, Note_on_c, 6, 72, 90
10, 31740, Note_on_c, 6, 72, 0
10, 31740, Note_on_c, 6, 71, 90
10, 31799, Note_on_c, 6, 71, 0
10, 32460, Note_on_c, 6, 78, 90
10, 32489, Note_on_c, 6, 78, 0
10, 32490, Note_on_c, 6, 76, 90
10, 32519, Note_on_c, 6, 76, 0
10, 32520, Note_on_c, 6, 78, 90
10, 32549, Note_on_c, 6, 78, 0
10, 32550, Note_on_c, 6, 74, 90
10, 32579, Note_on_c, 6, 74, 0
10, 32580, Note_on_c, 6, 76, 90
10, 32639, Note_on_c, 6, 76, 0
10, 32640, Note_on_c, 6, 81, 90
10, 32669, Note_on_c, 6, 81, 0
10, 32670, Note_on_c, 6, 80, 90
10, 32699, Note_on_c, 6, 80, 0
10, 32700, Note_on_c, 6, 81, 90
10, 32819, Note_on_c, 6, 81, 0
10, 32820, Note_on_c, 6, 79, 90
10, 32849, Note_on_c, 6, 79, 0
10, 32850, Note_on_c, 6, 78, 90
10, 32879, Note_on_c, 6, 78, 0
10, 32880, Note_on_c, 6, 79, 90
10, 32909, Note_on_c, 6, 79, 0
10, 32910, Note_on_c, 6, 76, 90
10, 32939, Note_on_c, 6, 76, 0
10, 32940, Note_on_c, 6, 78, 90
10, 32999, Note_on_c, 6, 78, 0
10, 33000, Note_on_c, 6, 83, 90
10, 33029, Note_on_c, 6, 83, 0
10, 33030, Note_on_c, 6, 82, 90
10, 33059, Note_on_c, 6, 82, 0
10, 33060, Note_on_c, 6, 83, 90
10, 33179, Note_on_c, 6, 83, 0
10, 33180, Note_on_c, 6, 82, 90
10, 33209, Note_on_c, 6, 82, 0
10, 33210, Note_on_c, 6, 80, 90
10, 33239, Note_on_c, 6, 80, 0
10, 33240, Note_on_c, 6, 78, 90
10, 33269, Note_on_c, 6, 78, 0
10, 33270, Note_on_c, 6, 76, 90
10, 33299, Note_on_c, 6, 76, 0
10, 33300, Note_on_c, 6, 74, 90
10, 33329, Note_on_c, 6, 74, 0
10, 33330, Note_on_c, 6, 78, 90
10, 33359, Note_on_c, 6, 78, 0
10, 33360, Note_on_c, 6, 83, 90
10, 33419, Note_on_c, 6, 83, 0
10, 33420, Note_on_c, 6, 74, 90
10, 33509, Note_on_c, 6, 74, 0
10, 33510, Note_on_c, 6, 73, 90
10, 33539, Note_on_c, 6, 73, 0
10, 33540, Note_on_c, 6, 74, 90
10, 33599, Note_on_c, 6, 74, 0
10, 33600, Note_on_c, 6, 64, 90
10, 33689, Note_on_c, 6, 64, 0
10, 33690, Note_on_c, 6, 66, 90
10, 33704, Note_on_c, 6, 66, 0
10, 33705, Note_on_c, 6, 68, 90
10, 33719, Note_on_c, 6, 68, 0
10, 33720, Note_on_c, 6, 69, 90
10, 33749, Note_on_c, 6, 69, 0
10, 33750, Note_on_c, 6, 71, 90
10, 33764, Note_on_c, 6, 71, 0
10, 33765, Note_on_c, 6, 73, 90
10, 33779, Note_on_c, 6, 73, 0
10, 33780, Note_on_c, 6, 74, 90
10, 33869, Note_on_c, 6, 74, 0
10, 33870, Note_on_c, 6, 73, 90
10, 33884, Note_on_c, 6, 73, 0
10, 33885, Note_on_c, 6, 71, 90
10, 33899, Note_on_c, 6, 71, 0
10, 33900, Note_on_c, 6, 73, 90
10, 33929, Note_on_c, 6, 73, 0
10, 33930, Note_on_c, 6, 69, 90
10, 33944, Note_on_c, 6, 69, 0
10, 33945, Note_on_c, 6, 71, 90
10, 33959, Note_on_c, 6, 71, 0
10, 33960, Note_on_c, 6, 73, 90
10, 33989, Note_on_c, 6, 73, 0
10, 33990, Note_on_c, 6, 69, 90
10, 34004, Note_on_c, 6, 69, 0
10, 34005, Note_on_c, 6, 71, 90
10, 34019, Note_on_c, 6, 71, 0
10, 34020, Note_on_c, 6, 73, 90
10, 34049, Note_on_c, 6, 73, 0
10, 34050, Note_on_c, 6, 76, 90
10, 34079, Note_on_c, 6, 76, 0
10, 34080, Note_on_c, 6, 79, 90
10, 34199, Note_on_c, 6, 79, 0
10, 34200, Note_on_c, 6, 71, 90
10, 34214, Note_on_c, 6, 71, 0
10, 34215, Note_on_c, 6, 69, 90
10, 34229, Note_on_c, 6, 69, 0
10, 34230, Note_on_c, 6, 67, 90
10, 34259, Note_on_c, 6, 67, 0
10, 34260, Note_on_c, 6, 67, 90
10, 34289, Note_on_c, 6, 67, 0
10, 34290, Note_on_c, 6, 69, 90
10, 34409, Note_on_c, 6, 69, 0
10, 34410, Note_on_c, 6, 71, 90
10, 34424, Note_on_c, 6, 71, 0
10, 34425, Note_on_c, 6, 73, 90
10, 34439, Note_on_c, 6, 73, 0
10, 34440, Note_on_c, 6, 74, 90
10, 34469, Note_on_c, 6, 74, 0
10, 34470, Note_on_c, 6, 76, 90
10, 34484, Note_on_c, 6, 76, 0
10, 34485, Note_on_c, 6, 78, 90
10, 34499, Note_on_c, 6, 78, 0
10, 34500, Note_on_c, 6, 79, 90
10, 34529, Note_on_c, 6, 79, 0
10, 34530, Note_on_c, 6, 81, 90
10, 34544, Note_on_c, 6, 81, 0
10, 34545, Note_on_c, 6, 79, 90
10, 34559, Note_on_c, 6, 79, 0
10, 34560, Note_on_c, 6, 78, 90
10, 34574, Note_on_c, 6, 78, 0
10, 34590, Note_on_c, 6, 74, 90
10, 34604, Note_on_c, 6, 74, 0
10, 34620, Note_on_c, 6, 74, 90
10, 34634, Note_on_c, 6, 74, 0
10, 34650, Note_on_c, 6, 69, 90
10, 34664, Note_on_c, 6, 69, 0
10, 34680, Note_on_c, 6, 69, 90
10, 34694, Note_on_c, 6, 69, 0
10, 34710, Note_on_c, 6, 66, 90
10, 34724, Note_on_c, 6, 66, 0
10, 34740, Note_on_c, 6, 66, 90
10, 34754, Note_on_c, 6, 66, 0
10, 34755, Note_on_c, 6, 69, 90
10, 34769, Note_on_c, 6, 69, 0
10, 34770, Note_on_c, 6, 71, 90
10, 34784, Note_on_c, 6, 71, 0
10, 34785, Note_on_c, 6, 73, 90
10, 34799, Note_on_c, 6, 73, 0
10, 34800, Note_on_c, 6, 74, 90
10, 34814, Note_on_c, 6, 74, 0
10, 34815, Note_on_c, 6, 76, 90
10, 34829, Note_on_c, 6, 76, 0
10, 34830, Note_on_c, 6, 74, 90
10, 34844, Note_on_c, 6, 74, 0
10, 34845, Note_on_c, 6, 73, 90
10, 34859, Note_on_c, 6, 73, 0
10, 34860, Note_on_c, 6, 71, 90
10, 34874, Note_on_c, 6, 71, 0
10, 34875, Note_on_c, 6, 69, 90
10, 34889, Note_on_c, 6, 69, 0
10, 34890, Note_on_c, 6, 68, 90
10, 34904, Note_on_c, 6, 68, 0
10, 34905, Note_on_c, 6, 66, 90
10, 34919, Note_on_c, 6, 66, 0
10, 34920, Note_on_c, 6, 64, 90
10, 34934, Note_on_c, 6, 64, 0
10, 34950, Note_on_c, 6, 73, 90
10, 34964, Note_on_c, 6, 73, 0
10, 34980, Note_on_c, 6, 73, 90
10, 34994, Note_on_c, 6, 73, 0
10, 35010, Note_on_c, 6, 67, 90
10, 35024, Note_on_c, 6, 67, 0
10, 35040, Note_on_c, 6, 67, 90
10, 35054, Note_on_c, 6, 67, 0
10, 35070, Note_on_c, 6, 64, 90
10, 35084, Note_on_c, 6, 64, 0
10, 35100, Note_on_c, 6, 64, 90
10, 35114, Note_on_c, 6, 64, 0
10, 35115, Note_on_c, 6, 68, 90
10, 35129, Note_on_c, 6, 68, 0
10, 35130, Note_on_c, 6, 70, 90
10, 35144, Note_on_c, 6, 70, 0
10, 35145, Note_on_c, 6, 71, 90
10, 35159, Note_on_c, 6, 71, 0
10, 35160, Note_on_c, 6, 73, 90
10, 35174, Note_on_c, 6, 73, 0
10, 35175, Note_on_c, 6, 74, 90
10, 35189, Note_on_c, 6, 74, 0
10, 35190, Note_on_c, 6, 73, 90
10, 35204, Note_on_c, 6, 73, 0
10, 35205, Note_on_c, 6, 71, 90
10, 35219, Note_on_c, 6, 71, 0
10, 35220, Note_on_c, 6, 70, 90
10, 35234, Note_on_c, 6, 70, 0
10, 35235, Note_on_c, 6, 68, 90
10, 35249, Note_on_c, 6, 68, 0
10, 35250, Note_on_c, 6, 66, 90
10, 35264, Note_on_c, 6, 66, 0
10, 35265, Note_on_c, 6, 64, 90
10, 35279, Note_on_c, 6, 64, 0
10, 35280, Note_on_c, 6, 62, 90
10, 35294, Note_on_c, 6, 62, 0
10, 35295, Note_on_c, 6, 59, 90
10, 35309, Note_on_c, 6, 59, 0
10, 35310, Note_on_c, 6, 61, 90
10, 35324, Note_on_c, 6, 61, 0
10, 35325, Note_on_c, 6, 63, 90
10, 35339, Note_on_c, 6, 63, 0
10, 35340, Note_on_c, 6, 65, 90
10, 35354, Note_on_c, 6, 65, 0
10, 35355, Note_on_c, 6, 61, 90
10, 35369, Note_on_c, 6, 61, 0
10, 35370, Note_on_c, 6, 63, 90
10, 35384, Note_on_c, 6, 63, 0
10, 35385, Note_on_c, 6, 65, 90
10, 35399, Note_on_c, 6, 65, 0
10, 35400, Note_on_c, 6, 66, 90
10, 35414, Note_on_c, 6, 66, 0
10, 35415, Note_on_c, 6, 63, 90
10, 35429, Note_on_c, 6, 63, 0
10, 35430, Note_on_c, 6, 65, 90
10, 35444, Note_on_c, 6, 65, 0
10, 35445, Note_on_c, 6, 66, 90
10, 35459, Note_on_c, 6, 66, 0
10, 35460, Note_on_c, 6, 68, 90
10, 35474, Note_on_c, 6, 68, 0
10, 35475, Note_on_c, 6, 65, 90
10, 35489, Note_on_c, 6, 65, 0
10, 35490, Note_on_c, 6, 66, 90
10, 35504, Note_on_c, 6, 66, 0
10, 35505, Note_on_c, 6, 68, 90
10, 35519, Note_on_c, 6, 68, 0
10, 35520, Note_on_c, 6, 69, 90
10, 35534, Note_on_c, 6, 69, 0
10, 35535, Note_on_c, 6, 66, 90
10, 35549, Note_on_c, 6, 66, 0
10, 35550, Note_on_c, 6, 68, 90
10, 35564, Note_on_c, 6, 68, 0
10, 35565, Note_on_c, 6, 69, 90
10, 35579, Note_on_c, 6, 69, 0
10, 35580, Note_on_c, 6, 71, 90
10, 35594, Note_on_c, 6, 71, 0
10, 35595, Note_on_c, 6, 68, 90
10, 35609, Note_on_c, 6, 68, 0
10, 35610, Note_on_c, 6, 69, 90
10, 35624, Note_on_c, 6, 69, 0
10, 35625, Note_on_c, 6, 71, 90
10, 35639, Note_on_c, 6, 71, 0
10, 35640, Note_on_c, 6, 73, 90
10, 35654, Note_on_c, 6, 73, 0
10, 35655, Note_on_c, 6, 69, 90
10, 35669, Note_on_c, 6, 69, 0
10, 35670, Note_on_c, 6, 71, 90
10, 35684, Note_on_c, 6, 71, 0
10, 35685, Note_on_c, 6, 73, 90
10, 35699, Note_on_c, 6, 73, 0
10, 35700, Note_on_c, 6, 75, 90
10, 35714, Note_on_c, 6, 75, 0
10, 35715, Note_on_c, 6, 71, 90
10, 35729, Note_on_c, 6, 71, 0
10, 35730, Note_on_c, 6, 73, 90
10, 35744, Note_on_c, 6, 73, 0
10, 35745, Note_on_c, 6, 75, 90
10, 35759, Note_on_c, 6, 75, 0
10, 35760, Note_on_c, 6, 77, 90
10, 35774, Note_on_c, 6, 77, 0
10, 35775, Note_on_c, 6, 73, 90
10, 35789, Note_on_c, 6, 73, 0
10, 35790, Note_on_c, 6, 75, 90
10, 35804, Note_on_c, 6, 75, 0
10, 35805, Note_on_c, 6, 77, 90
10, 35819, Note_on_c, 6, 77, 0
10, 35820, Note_on_c, 6, 78, 90
10, 35849, Note_on_c, 6, 78, 0
10, 35850, Note_on_c, 6, 81, 90
10, 35879, Note_on_c, 6, 81, 0
10, 35880, Note_on_c, 6, 81, 90
10, 35909, Note_on_c, 6, 81, 0
10, 35910, Note_on_c, 6, 80, 90
10, 35939, Note_on_c, 6, 80, 0
10, 35940, Note_on_c, 6, 78, 90
10, 35969, Note_on_c, 6, 78, 0
10, 35970, Note_on_c, 6, 77, 90
10, 35999, Note_on_c, 6, 77, 0
10, 36000, Note_on_c, 6, 78, 90
10, 36179, Note_on_c, 6, 78, 0
10, 37035, Note_on_c, 6, 86, 90
10, 37049, Note_on_c, 6, 86, 0
10, 37050, Note_on_c, 6, 85, 90
10, 37064, Note_on_c, 6, 85, 0
10, 37065, Note_on_c, 6, 83, 90
10, 37079, Note_on_c, 6, 83, 0
10, 37080, Note_on_c, 6, 81, 90
10, 37094, Note_on_c, 6, 81, 0
10, 37095, Note_on_c, 6, 86, 90
10, 37109, Note_on_c, 6, 86, 0
10, 37110, Note_on_c, 6, 85, 90
10, 37124, Note_on_c, 6, 85, 0
10, 37125, Note_on_c, 6, 83, 90
10, 37139, Note_on_c, 6, 83, 0
10, 37140, Note_on_c, 6, 81, 90
10, 37154, Note_on_c, 6, 81, 0
10, 37155, Note_on_c, 6, 79, 90
10, 37169, Note_on_c, 6, 79, 0
10, 37170, Note_on_c, 6, 78, 90
10, 37184, Note_on_c, 6, 78, 0
10, 37185, Note_on_c, 6, 76, 90
10, 37199, Note_on_c, 6, 76, 0
10, 37200, Note_on_c, 6, 78, 90
10, 37214, Note_on_c, 6, 78, 0
10, 37215, Note_on_c, 6, 74, 90
10, 37229, Note_on_c, 6, 74, 0
10, 37230, Note_on_c, 6, 73, 90
10, 37244, Note_on_c, 6, 73, 0
10, 37245, Note_on_c, 6, 71, 90
10, 37259, Note_on_c, 6, 71, 0
10, 37260, Note_on_c, 6, 69, 90
10, 37274, Note_on_c, 6, 69, 0
10, 37275, Note_on_c, 6, 74, 90
10, 37289, Note_on_c, 6, 74, 0
10, 37290, Note_on_c, 6, 73, 90
10, 37304, Note_on_c, 6, 73, 0
10, 37305, Note_on_c, 6, 71, 90
10, 37319, Note_on_c, 6, 71, 0
10, 37320, Note_on_c, 6, 69, 90
10, 37334, Note_on_c, 6, 69, 0
10, 37335, Note_on_c, 6, 67, 90
10, 37349, Note_on_c, 6, 67, 0
10, 37350, Note_on_c, 6, 66, 90
10, 37364, Note_on_c, 6, 66, 0
10, 37365, Note_on_c, 6, 64, 90
10, 37379, Note_on_c, 6, 64, 0
10, 37380, Note_on_c, 6, 66, 90
10, 37394, Note_on_c, 6, 66, 0
10, 37395, Note_on_c, 6, 71, 90
10, 37409, Note_on_c, 6, 71, 0
10, 37410, Note_on_c, 6, 69, 90
10, 37424, Note_on_c, 6, 69, 0
10, 37425, Note_on_c, 6, 67, 90
10, 37439, Note_on_c, 6, 67, 0
10, 37440, Note_on_c, 6, 66, 90
10, 37454, Note_on_c, 6, 66, 0
10, 37455, Note_on_c, 6, 71, 90
10, 37469, Note_on_c, 6, 71, 0
10, 37470, Note_on_c, 6, 69, 90
10, 37484, Note_on_c, 6, 69, 0
10, 37485, Note_on_c, 6, 67, 90
10, 37499, Note_on_c, 6, 67, 0
10, 37500, Note_on_c, 6, 66, 90
10, 37514, Note_on_c, 6, 66, 0
10, 37515, Note_on_c, 6, 64, 90
10, 37529, Note_on_c, 6, 64, 0
10, 37530, Note_on_c, 6, 62, 90
10, 37544, Note_on_c, 6, 62, 0
10, 37545, Note_on_c, 6, 61, 90
10, 37559, Note_on_c, 6, 61, 0
10, 37560, Note_on_c, 6, 62, 90
10, 37574, Note_on_c, 6, 62, 0
10, 37575, Note_on_c, 6, 59, 90
10, 37589, Note_on_c, 6, 59, 0
10, 37590, Note_on_c, 6, 57, 90
10, 37604, Note_on_c, 6, 57, 0
10, 37605, Note_on_c, 6, 55, 90
10, 37619, Note_on_c, 6, 55, 0
10, 37620, Note_on_c, 6, 57, 90
10, 37634, Note_on_c, 6, 57, 0
10, 37635, Note_on_c, 6, 59, 90
10, 37649, Note_on_c, 6, 59, 0
10, 37650, Note_on_c, 6, 57, 90
10, 37664, Note_on_c, 6, 57, 0
10, 37665, Note_on_c, 6, 55, 90
10, 37679, Note_on_c, 6, 55, 0
10, 37680, Note_on_c, 6, 57, 90
10, 37694, Note_on_c, 6, 57, 0
10, 37695, Note_on_c, 6, 59, 90
10, 37709, Note_on_c, 6, 59, 0
10, 37710, Note_on_c, 6, 57, 90
10, 37724, Note_on_c, 6, 57, 0
10, 37725, Note_on_c, 6, 55, 90
10, 37739, Note_on_c, 6, 55, 0
10, 37740, Note_on_c, 6, 57, 90
10, 37757, Note_on_c, 6, 57, 0
10, 37770, Note_on_c, 6, 57, 90
10, 37787, Note_on_c, 6, 57, 0
10, 37800, Note_on_c, 6, 57, 90
10, 37817, Note_on_c, 6, 57, 0
10, 37830, Note_on_c, 6, 57, 90
10, 37847, Note_on_c, 6, 57, 0
10, 37860, Note_on_c, 6, 57, 90
10, 37877, Note_on_c, 6, 57, 0
10, 37890, Note_on_c, 6, 57, 90
10, 37907, Note_on_c, 6, 57, 0
10, 37920, Note_on_c, 6, 57, 90
10, 37937, Note_on_c, 6, 57, 0
10, 37950, Note_on_c, 6, 57, 90
10, 37967, Note_on_c, 6, 57, 0
10, 37980, Note_on_c, 6, 57, 90
10, 37997, Note_on_c, 6, 57, 0
10, 38010, Note_on_c, 6, 57, 90
10, 38027, Note_on_c, 6, 57, 0
10, 38040, Note_on_c, 6, 57, 90
10, 38057, Note_on_c, 6, 57, 0
10, 38070, Note_on_c, 6, 57, 90
10, 38087, Note_on_c, 6, 57, 0
10, 38100, Note_on_c, 6, 57, 90
10, 38117, Note_on_c, 6, 57, 0
10, 38130, Note_on_c, 6, 57, 90
10, 38147, Note_on_c, 6, 57, 0
10, 38160, Note_on_c, 6, 57, 90
10, 38177, Note_on_c, 6, 57, 0
10, 38190, Note_on_c, 6, 57, 90
10, 38207, Note_on_c, 6, 57, 0
10, 38220, Note_on_c, 6, 57, 90
10, 38237, Note_on_c, 6, 57, 0
10, 38250, Note_on_c, 6, 57, 90
10, 38267, Note_on_c, 6, 57, 0
10, 38280, Note_on_c, 6, 57, 90
10, 38297, Note_on_c, 6, 57, 0
10, 38310, Note_on_c, 6, 57, 90
10, 38327, Note_on_c, 6, 57, 0
10, 38340, Note_on_c, 6, 57, 90
10, 38357, Note_on_c, 6, 57, 0
10, 38370, Note_on_c, 6, 57, 90
10, 38387, Note_on_c, 6, 57, 0
10, 38400, Note_on_c, 6, 78, 90
10, 38429, Note_on_c, 6, 78, 0
10, 38430, Note_on_c, 6, 79, 90
10, 38459, Note_on_c, 6, 79, 0
10, 38460, Note_on_c, 6, 81, 90
10, 38489, Note_on_c, 6, 81, 0
10, 38520, Note_on_c, 6, 72, 90
10, 38549, Note_on_c, 6, 72, 0
10, 38580, Note_on_c, 6, 72, 90
10, 38609, Note_on_c, 6, 72, 0
10, 38640, Note_on_c, 6, 72, 90
10, 38655, Note_on_c, 6, 72, 0
10, 38655, Note_on_c, 6, 74, 90
10, 38670, Note_on_c, 6, 74, 0
10, 38670, Note_on_c, 6, 72, 90
10, 38700, Note_on_c, 6, 72, 0
10, 38700, Note_on_c, 6, 71, 90
10, 38759, Note_on_c, 6, 71, 0
10, 38760, Note_on_c, 6, 79, 90
10, 38819, Note_on_c, 6, 79, 0
10, 38820, Note_on_c, 6, 78, 90
10, 38879, Note_on_c, 6, 78, 0
10, 38880, Note_on_c, 6, 76, 90
10, 38939, Note_on_c, 6, 76, 0
10, 38940, Note_on_c, 6, 74, 90
10, 38999, Note_on_c, 6, 74, 0
10, 39000, Note_on_c, 6, 81, 90
10, 39119, Note_on_c, 6, 81, 0
10, 39120, Note_on_c, 6, 76, 100
10, 39180, Note_on_c, 6, 76, 0
10, 39180, Note_on_c, 6, 75, 90
10, 39209, Note_on_c, 6, 75, 0
10, 39210, Note_on_c, 6, 78, 90
10, 39239, Note_on_c, 6, 78, 0
10, 39240, Note_on_c, 6, 81, 90
10, 39359, Note_on_c, 6, 81, 0
10, 39360, Note_on_c, 6, 72, 90
10, 39374, Note_on_c, 6, 72, 0
10, 39375, Note_on_c, 6, 71, 90
10, 39389, Note_on_c, 6, 71, 0
10, 39390, Note_on_c, 6, 69, 90
10, 39419, Note_on_c, 6, 69, 0
10, 39420, Note_on_c, 6, 69, 90
10, 39449, Note_on_c, 6, 69, 0
10, 39450, Note_on_c, 6, 71, 90
10, 39570, Note_on_c, 6, 71, 0
10, 39570, Note_on_c, 6, 73, 90
10, 39584, Note_on_c, 6, 73, 0
10, 39585, Note_on_c, 6, 75, 90
10, 39599, Note_on_c, 6, 75, 0
10, 39600, Note_on_c, 6, 76, 90
10, 39629, Note_on_c, 6, 76, 0
10, 39630, Note_on_c, 6, 78, 90
10, 39644, Note_on_c, 6, 78, 0
10, 39645, Note_on_c, 6, 80, 90
10, 39659, Note_on_c, 6, 80, 0
10, 39660, Note_on_c, 6, 81, 90
10, 39749, Note_on_c, 6, 81, 0
10, 39750, Note_on_c, 6, 79, 90
10, 39764, Note_on_c, 6, 79, 0
10, 39765, Note_on_c, 6, 78, 90
10, 39779, Note_on_c, 6, 78, 0
10, 39780, Note_on_c, 6, 79, 90
10, 39809, Note_on_c, 6, 79, 0
10, 39810, Note_on_c, 6, 78, 90
10, 39824, Note_on_c, 6, 78, 0
10, 39825, Note_on_c, 6, 76, 90
10, 39839, Note_on_c, 6, 76, 0
10, 39840, Note_on_c, 6, 79, 90
10, 39869, Note_on_c, 6, 79, 0
10, 39870, Note_on_c, 6, 76, 90
10, 39884, Note_on_c, 6, 76, 0
10, 39885, Note_on_c, 6, 78, 90
10, 39899, Note_on_c, 6, 78, 0
10, 39900, Note_on_c, 6, 79, 90
10, 39929, Note_on_c, 6, 79, 0
10, 39930, Note_on_c, 6, 83, 90
10, 39944, Note_on_c, 6, 83, 0
10, 39945, Note_on_c, 6, 81, 90
10, 39959, Note_on_c, 6, 81, 0
10, 39960, Note_on_c, 6, 79, 90
10, 39989, Note_on_c, 6, 79, 0
10, 39990, Note_on_c, 6, 83, 90
10, 40004, Note_on_c, 6, 83, 0
10, 40005, Note_on_c, 6, 81, 90
10, 40019, Note_on_c, 6, 81, 0
10, 40020, Note_on_c, 6, 79, 90
10, 40109, Note_on_c, 6, 79, 0
10, 40110, Note_on_c, 6, 76, 90
10, 40124, Note_on_c, 6, 76, 0
10, 40125, Note_on_c, 6, 78, 90
10, 40139, Note_on_c, 6, 78, 0
10, 40140, Note_on_c, 6, 79, 90
10, 40169, Note_on_c, 6, 79, 0
10, 40170, Note_on_c, 6, 76, 90
10, 40184, Note_on_c, 6, 76, 0
10, 40185, Note_on_c, 6, 78, 90
10, 40199, Note_on_c, 6, 78, 0
10, 40200, Note_on_c, 6, 79, 90
10, 40289, Note_on_c, 6, 79, 0
10, 40290, Note_on_c, 6, 78, 90
10, 40304, Note_on_c, 6, 78, 0
10, 40305, Note_on_c, 6, 79, 90
10, 40319, Note_on_c, 6, 79, 0
10, 40320, Note_on_c, 6, 81, 90
10, 40349, Note_on_c, 6, 81, 0
10, 40350, Note_on_c, 6, 79, 90
10, 40364, Note_on_c, 6, 79, 0
10, 40365, Note_on_c, 6, 78, 90
10, 40379, Note_on_c, 6, 78, 0
10, 40380, Note_on_c, 6, 79, 90
10, 40409, Note_on_c, 6, 79, 0
10, 40410, Note_on_c, 6, 78, 90
10, 40424, Note_on_c, 6, 78, 0
10, 40425, Note_on_c, 6, 76, 90
10, 40439, Note_on_c, 6, 76, 0
10, 40440, Note_on_c, 6, 78, 90
10, 40469, Note_on_c, 6, 78, 0
10, 40470, Note_on_c, 6, 81, 90
10, 40484, Note_on_c, 6, 81, 0
10, 40485, Note_on_c, 6, 79, 90
10, 40499, Note_on_c, 6, 79, 0
10, 40500, Note_on_c, 6, 78, 90
10, 40529, Note_on_c, 6, 78, 0
10, 40530, Note_on_c, 6, 81, 90
10, 40544, Note_on_c, 6, 81, 0
10, 40545, Note_on_c, 6, 79, 90
10, 40559, Note_on_c, 6, 79, 0
10, 40560, Note_on_c, 6, 78, 90
10, 40649, Note_on_c, 6, 78, 0
10, 40650, Note_on_c, 6, 83, 90
10, 40664, Note_on_c, 6, 83, 0
10, 40680, Note_on_c, 6, 83, 90
10, 40694, Note_on_c, 6, 83, 0
10, 40710, Note_on_c, 6, 78, 90
10, 40724, Note_on_c, 6, 78, 0
10, 40740, Note_on_c, 6, 78, 90
10, 40754, Note_on_c, 6, 78, 0
10, 40770, Note_on_c, 6, 74, 90
10, 40784, Note_on_c, 6, 74, 0
10, 40800, Note_on_c, 6, 74, 90
10, 40814, Note_on_c, 6, 74, 0
10, 40815, Note_on_c, 6, 78, 90
10, 40829, Note_on_c, 6, 78, 0
10, 40830, Note_on_c, 6, 80, 90
10, 40844, Note_on_c, 6, 80, 0
10, 40845, Note_on_c, 6, 81, 90
10, 40859, Note_on_c, 6, 81, 0
10, 40860, Note_on_c, 6, 83, 90
10, 40874, Note_on_c, 6, 83, 0
10, 40875, Note_on_c, 6, 85, 90
10, 40889, Note_on_c, 6, 85, 0
10, 40890, Note_on_c, 6, 83, 90
10, 40904, Note_on_c, 6, 83, 0
10, 40905, Note_on_c, 6, 81, 90
10, 40919, Note_on_c, 6, 81, 0
10, 40920, Note_on_c, 6, 80, 90
10, 40934, Note_on_c, 6, 80, 0
10, 40935, Note_on_c, 6, 78, 90
10, 40949, Note_on_c, 6, 78, 0
10, 40950, Note_on_c, 6, 76, 90
10, 40964, Note_on_c, 6, 76, 0
10, 40965, Note_on_c, 6, 74, 90
10, 40979, Note_on_c, 6, 74, 0
10, 40980, Note_on_c, 6, 73, 90
10, 40994, Note_on_c, 6, 73, 0
10, 41010, Note_on_c, 6, 81, 90
10, 41024, Note_on_c, 6, 81, 0
10, 41040, Note_on_c, 6, 81, 90
10, 41054, Note_on_c, 6, 81, 0
10, 41070, Note_on_c, 6, 76, 90
10, 41084, Note_on_c, 6, 76, 0
10, 41100, Note_on_c, 6, 76, 90
10, 41114, Note_on_c, 6, 76, 0
10, 41130, Note_on_c, 6, 72, 90
10, 41144, Note_on_c, 6, 72, 0
10, 41160, Note_on_c, 6, 72, 90
10, 41174, Note_on_c, 6, 72, 0
10, 41175, Note_on_c, 6, 76, 90
10, 41189, Note_on_c, 6, 76, 0
10, 41190, Note_on_c, 6, 78, 90
10, 41204, Note_on_c, 6, 78, 0
10, 41205, Note_on_c, 6, 79, 90
10, 41219, Note_on_c, 6, 79, 0
10, 41220, Note_on_c, 6, 81, 90
10, 41234, Note_on_c, 6, 81, 0
10, 41235, Note_on_c, 6, 83, 90
10, 41249, Note_on_c, 6, 83, 0
10, 41250, Note_on_c, 6, 81, 90
10, 41264, Note_on_c, 6, 81, 0
10, 41265, Note_on_c, 6, 79, 90
10, 41279, Note_on_c, 6, 79, 0
10, 41280, Note_on_c, 6, 78, 90
10, 41294, Note_on_c, 6, 78, 0
10, 41295, Note_on_c, 6, 76, 90
10, 41309, Note_on_c, 6, 76, 0
10, 41310, Note_on_c, 6, 74, 90
10, 41324, Note_on_c, 6, 74, 0
10, 41325, Note_on_c, 6, 72, 90
10, 41339, Note_on_c, 6, 72, 0
10, 41340, Note_on_c, 6, 71, 90
10, 41354, Note_on_c, 6, 71, 0
10, 41355, Note_on_c, 6, 67, 90
10, 41369, Note_on_c, 6, 67, 0
10, 41370, Note_on_c, 6, 69, 90
10, 41384, Note_on_c, 6, 69, 0
10, 41385, Note_on_c, 6, 71, 90
10, 41399, Note_on_c, 6, 71, 0
10, 41400, Note_on_c, 6, 73, 90
10, 41414, Note_on_c, 6, 73, 0
10, 41415, Note_on_c, 6, 69, 90
10, 41429, Note_on_c, 6, 69, 0
10, 41430, Note_on_c, 6, 71, 90
10, 41444, Note_on_c, 6, 71, 0
10, 41445, Note_on_c, 6, 73, 90
10, 41459, Note_on_c, 6, 73, 0
10, 41460, Note_on_c, 6, 74, 90
10, 41474, Note_on_c, 6, 74, 0
10, 41475, Note_on_c, 6, 71, 90
10, 41489, Note_on_c, 6, 71, 0
10, 41490, Note_on_c, 6, 73, 90
10, 41504, Note_on_c, 6, 73, 0
10, 41505, Note_on_c, 6, 74, 90
10, 41519, Note_on_c, 6, 74, 0
10, 41520, Note_on_c, 6, 76, 90
10, 41534, Note_on_c, 6, 76, 0
10, 41535, Note_on_c, 6, 73, 90
10, 41549, Note_on_c, 6, 73, 0
10, 41550, Note_on_c, 6, 74, 90
10, 41564, Note_on_c, 6, 74, 0
10, 41565, Note_on_c, 6, 76, 90
10, 41579, Note_on_c, 6, 76, 0
10, 41580, Note_on_c, 6, 78, 90
10, 41594, Note_on_c, 6, 78, 0
10, 41595, Note_on_c, 6, 74, 90
10, 41609, Note_on_c, 6, 74, 0
10, 41610, Note_on_c, 6, 76, 90
10, 41624, Note_on_c, 6, 76, 0
10, 41625, Note_on_c, 6, 78, 90
10, 41639, Note_on_c, 6, 78, 0
10, 41640, Note_on_c, 6, 79, 90
10, 41654, Note_on_c, 6, 79, 0
10, 41655, Note_on_c, 6, 76, 90
10, 41669, Note_on_c, 6, 76, 0
10, 41670, Note_on_c, 6, 78, 90
10, 41684, Note_on_c, 6, 78, 0
10, 41685, Note_on_c, 6, 79, 90
10, 41699, Note_on_c, 6, 79, 0
10, 41700, Note_on_c, 6, 81, 90
10, 41714, Note_on_c, 6, 81, 0
10, 41715, Note_on_c, 6, 78, 90
10, 41729, Note_on_c, 6, 78, 0
10, 41730, Note_on_c, 6, 79, 90
10, 41744, Note_on_c, 6, 79, 0
10, 41745, Note_on_c, 6, 81, 90
10, 41759, Note_on_c, 6, 81, 0
10, 41760, Note_on_c, 6, 83, 90
10, 41774, Note_on_c, 6, 83, 0
10, 41775, Note_on_c, 6, 79, 90
10, 41789, Note_on_c, 6, 79, 0
10, 41790, Note_on_c, 6, 81, 90
10, 41804, Note_on_c, 6, 81, 0
10, 41805, Note_on_c, 6, 83, 90
10, 41819, Note_on_c, 6, 83, 0
10, 41820, Note_on_c, 6, 85, 90
10, 41834, Note_on_c, 6, 85, 0
10, 41835, Note_on_c, 6, 81, 90
10, 41849, Note_on_c, 6, 81, 0
10, 41850, Note_on_c, 6, 83, 90
10, 41864, Note_on_c, 6, 83, 0
10, 41865, Note_on_c, 6, 85, 90
10, 41879, Note_on_c, 6, 85, 0
10, 41880, Note_on_c, 6, 86, 90
10, 41909, Note_on_c, 6, 86, 0
10, 41940, Note_on_c, 6, 69, 90
10, 41969, Note_on_c, 6, 69, 0
10, 42000, Note_on_c, 6, 73, 90
10, 42029, Note_on_c, 6, 73, 0
10, 42060, Note_on_c, 6, 74, 90
10, 42119, Note_on_c, 6, 74, 0
10, 42270, Note_on_c, 6, 66, 90
10, 42284, Note_on_c, 6, 66, 0
10, 42285, Note_on_c, 6, 67, 90
10, 42299, Note_on_c, 6, 67, 0
10, 42300, Note_on_c, 6, 69, 90
10, 42314, Note_on_c, 6, 69, 0
10, 42315, Note_on_c, 6, 67, 90
10, 42329, Note_on_c, 6, 67, 0
10, 42330, Note_on_c, 6, 69, 90
10, 42344, Note_on_c, 6, 69, 0
10, 42345, Note_on_c, 6, 67, 90
10, 42359, Note_on_c, 6, 67, 0
10, 42360, Note_on_c, 6, 69, 90
10, 42374, Note_on_c, 6, 69, 0
10, 42375, Note_on_c, 6, 67, 90
10, 42389, Note_on_c, 6, 67, 0
10, 42390, Note_on_c, 6, 66, 90
10, 42404, Note_on_c, 6, 66, 0
10, 42405, Note_on_c, 6, 67, 90
10, 42419, Note_on_c, 6, 67, 0
10, 42420, Note_on_c, 6, 69, 90
10, 42479, Note_on_c, 6, 69, 0
10, 42600, Note_on_c, 6, 74, 90
10, 42659, Note_on_c, 6, 74, 0
10, 42780, Note_on_c, 6, 69, 90
10, 42839, Note_on_c, 6, 69, 0
10, 42960, Note_on_c, 6, 66, 90
10, 43019, Note_on_c, 6, 66, 0
10, 43155, Note_on_c, 6, 86, 90
10, 43169, Note_on_c, 6, 86, 0
10, 43170, Note_on_c, 6, 85, 90
10, 43184, Note_on_c, 6, 85, 0
10, 43185, Note_on_c, 6, 83, 90
10, 43199, Note_on_c, 6, 83, 0
10, 43200, Note_on_c, 6, 81, 90
10, 43214, Note_on_c, 6, 81, 0
10, 43215, Note_on_c, 6, 86, 90
10, 43229, Note_on_c, 6, 86, 0
10, 43230, Note_on_c, 6, 85, 90
10, 43244, Note_on_c, 6, 85, 0
10, 43245, Note_on_c, 6, 83, 90
10, 43259, Note_on_c, 6, 83, 0
10, 43260, Note_on_c, 6, 81, 90
10, 43274, Note_on_c, 6, 81, 0
10, 43275, Note_on_c, 6, 79, 90
10, 43289, Note_on_c, 6, 79, 0
10, 43290, Note_on_c, 6, 78, 90
10, 43304, Note_on_c, 6, 78, 0
10, 43305, Note_on_c, 6, 76, 90
10, 43319, Note_on_c, 6, 76, 0
10, 43320, Note_on_c, 6, 78, 90
10, 43334, Note_on_c, 6, 78, 0
10, 43335, Note_on_c, 6, 74, 90
10, 43349, Note_on_c, 6, 74, 0
10, 43350, Note_on_c, 6, 73, 90
10, 43364, Note_on_c, 6, 73, 0
10, 43365, Note_on_c, 6, 71, 90
10, 43379, Note_on_c, 6, 71, 0
10, 43380, Note_on_c, 6, 69, 90
10, 43394, Note_on_c, 6, 69, 0
10, 43395, Note_on_c, 6, 74, 90
10, 43409, Note_on_c, 6, 74, 0
10, 43410, Note_on_c, 6, 73, 90
10, 43424, Note_on_c, 6, 73, 0
10, 43425, Note_on_c, 6, 71, 90
10, 43439, Note_on_c, 6, 71, 0
10, 43440, Note_on_c, 6, 69, 90
10, 43454, Note_on_c, 6, 69, 0
10, 43455, Note_on_c, 6, 67, 90
10, 43469, Note_on_c, 6, 67, 0
10, 43470, Note_on_c, 6, 66, 90
10, 43484, Note_on_c, 6, 66, 0
10, 43485, Note_on_c, 6, 64, 90
10, 43499, Note_on_c, 6, 64, 0
10, 43500, Note_on_c, 6, 66, 90
10, 43514, Note_on_c, 6, 66, 0
10, 43515, Note_on_c, 6, 71, 90
10, 43529, Note_on_c, 6, 71, 0
10, 43530, Note_on_c, 6, 69, 90
10, 43544, Note_on_c, 6, 69, 0
10, 43545, Note_on_c, 6, 67, 90
10, 43559, Note_on_c, 6, 67, 0
10, 43560, Note_on_c, 6, 66, 90
10, 43574, Note_on_c, 6, 66, 0
10, 43575, Note_on_c, 6, 71, 90
10, 43589, Note_on_c, 6, 71, 0
10, 43590, Note_on_c, 6, 69, 90
10, 43604, Note_on_c, 6, 69, 0
10, 43605, Note_on_c, 6, 67, 90
10, 43619, Note_on_c, 6, 67, 0
10, 43620, Note_on_c, 6, 66, 90
10, 43634, Note_on_c, 6, 66, 0
10, 43635, Note_on_c, 6, 64, 90
10, 43649, Note_on_c, 6, 64, 0
10, 43650, Note_on_c, 6, 62, 90
10, 43664, Note_on_c, 6, 62, 0
10, 43665, Note_on_c, 6, 61, 90
10, 43679, Note_on_c, 6, 61, 0
10, 43680, Note_on_c, 6, 62, 90
10, 43694, Note_on_c, 6, 62, 0
10, 43695, Note_on_c, 6, 59, 90
10, 43709, Note_on_c, 6, 59, 0
10, 43710, Note_on_c, 6, 57, 90
10, 43724, Note_on_c, 6, 57, 0
10, 43725, Note_on_c, 6, 55, 90
10, 43739, Note_on_c, 6, 55, 0
10, 43740, Note_on_c, 6, 57, 90
10, 43754, Note_on_c, 6, 57, 0
10, 43755, Note_on_c, 6, 59, 90
10, 43769, Note_on_c, 6, 59, 0
10, 43770, Note_on_c, 6, 57, 90
10, 43784, Note_on_c, 6, 57, 0
10, 43785, Note_on_c, 6, 55, 90
10, 43799, Note_on_c, 6, 55, 0
10, 43800, Note_on_c, 6, 57, 90
10, 43814, Note_on_c, 6, 57, 0
10, 43815, Note_on_c, 6, 59, 90
10, 43829, Note_on_c, 6, 59, 0
10, 43830, Note_on_c, 6, 57, 90
10, 43844, Note_on_c, 6, 57, 0
10, 43845, Note_on_c, 6, 55, 90
10, 43859, Note_on_c, 6, 55, 0
10, 43860, Note_on_c, 6, 57, 90
10, 43877, Note_on_c, 6, 57, 0
10, 43890, Note_on_c, 6, 57, 90
10, 43907, Note_on_c, 6, 57, 0
10, 43920, Note_on_c, 6, 57, 90
10, 43937, Note_on_c, 6, 57, 0
10, 43950, Note_on_c, 6, 57, 90
10, 43967, Note_on_c, 6, 57, 0
10, 43980, Note_on_c, 6, 57, 90
10, 43997, Note_on_c, 6, 57, 0
10, 44010, Note_on_c, 6, 57, 90
10, 44027, Note_on_c, 6, 57, 0
10, 44040, Note_on_c, 6, 57, 90
10, 44057, Note_on_c, 6, 57, 0
10, 44070, Note_on_c, 6, 57, 90
10, 44087, Note_on_c, 6, 57, 0
10, 44100, Note_on_c, 6, 57, 90
10, 44117, Note_on_c, 6, 57, 0
10, 44130, Note_on_c, 6, 57, 90
10, 44147, Note_on_c, 6, 57, 0
10, 44160, Note_on_c, 6, 57, 90
10, 44177, Note_on_c, 6, 57, 0
10, 44190, Note_on_c, 6, 57, 90
10, 44207, Note_on_c, 6, 57, 0
10, 44220, Note_on_c, 6, 57, 90
10, 44237, Note_on_c, 6, 57, 0
10, 44250, Note_on_c, 6, 57, 90
10, 44267, Note_on_c, 6, 57, 0
10, 44280, Note_on_c, 6, 57, 90
10, 44297, Note_on_c, 6, 57, 0
10, 44310, Note_on_c, 6, 57, 90
10, 44327, Note_on_c, 6, 57, 0
10, 44340, Note_on_c, 6, 57, 90
10, 44357, Note_on_c, 6, 57, 0
10, 44370, Note_on_c, 6, 57, 90
10, 44387, Note_on_c, 6, 57, 0
10, 44400, Note_on_c, 6, 57, 90
10, 44417, Note_on_c, 6, 57, 0
10, 44430, Note_on_c, 6, 57, 90
10, 44447, Note_on_c, 6, 57, 0
10, 44460, Note_on_c, 6, 57, 90
10, 44477, Note_on_c, 6, 57, 0
10, 44490, Note_on_c, 6, 57, 90
10, 44507, Note_on_c, 6, 57, 0
10, 44520, Note_on_c, 6, 78, 90
10, 44549, Note_on_c, 6, 78, 0
10, 44550, Note_on_c, 6, 79, 90
10, 44579, Note_on_c, 6, 79, 0
10, 44580, Note_on_c, 6, 81, 90
10, 44609, Note_on_c, 6, 81, 0
10, 44640, Note_on_c, 6, 72, 90
10, 44669, Note_on_c, 6, 72, 0
10, 44700, Note_on_c, 6, 72, 90
10, 44729, Note_on_c, 6, 72, 0
10, 44760, Note_on_c, 6, 72, 90
10, 44775, Note_on_c, 6, 72, 0
10, 44775, Note_on_c, 6, 74, 90
10, 44790, Note_on_c, 6, 74, 0
10, 44790, Note_on_c, 6, 72, 90
10, 44819, Note_on_c, 6, 72, 0
10, 44820, Note_on_c, 6, 71, 90
10, 44879, Note_on_c, 6, 71, 0
10, 44880, Note_on_c, 6, 79, 90
10, 44939, Note_on_c, 6, 79, 0
10, 44940, Note_on_c, 6, 78, 90
10, 44999, Note_on_c, 6, 78, 0
10, 45000, Note_on_c, 6, 76, 90
10, 45059, Note_on_c, 6, 76, 0
10, 45060, Note_on_c, 6, 74, 90
10, 45119, Note_on_c, 6, 74, 0
10, 45120, Note_on_c, 6, 81, 90
10, 45239, Note_on_c, 6, 81, 0
10, 45720, Note_on_c, 6, 71, 90
10, 45749, Note_on_c, 6, 71, 0
10, 45750, Note_on_c, 6, 73, 90
10, 45779, Note_on_c, 6, 73, 0
10, 45780, Note_on_c, 6, 74, 90
10, 45794, Note_on_c, 6, 74, 0
10, 45795, Note_on_c, 6, 73, 90
10, 45809, Note_on_c, 6, 73, 0
10, 45810, Note_on_c, 6, 71, 90
10, 45824, Note_on_c, 6, 71, 0
10, 45825, Note_on_c, 6, 73, 90
10, 45839, Note_on_c, 6, 73, 0
10, 45840, Note_on_c, 6, 74, 90
10, 45869, Note_on_c, 6, 74, 0
10, 45870, Note_on_c, 6, 73, 90
10, 45899, Note_on_c, 6, 73, 0
10, 45900, Note_on_c, 6, 74, 90
10, 45929, Note_on_c, 6, 74, 0
10, 45930, Note_on_c, 6, 76, 90
10, 45959, Note_on_c, 6, 76, 0
10, 45960, Note_on_c, 6, 78, 90
10, 45974, Note_on_c, 6, 78, 0
10, 45975, Note_on_c, 6, 76, 90
10, 45989, Note_on_c, 6, 76, 0
10, 45990, Note_on_c, 6, 74, 90
10, 46004, Note_on_c, 6, 74, 0
10, 46005, Note_on_c, 6, 76, 90
10, 46019, Note_on_c, 6, 76, 0
10, 46020, Note_on_c, 6, 78, 90
10, 46049, Note_on_c, 6, 78, 0
10, 46050, Note_on_c, 6, 76, 90
10, 46079, Note_on_c, 6, 76, 0
10, 46080, Note_on_c, 6, 78, 90
10, 46109, Note_on_c, 6, 78, 0
10, 46110, Note_on_c, 6, 80, 90
10, 46139, Note_on_c, 6, 80, 0
10, 46140, Note_on_c, 6, 81, 90
10, 46154, Note_on_c, 6, 81, 0
10, 46155, Note_on_c, 6, 80, 90
10, 46169, Note_on_c, 6, 80, 0
10, 46170, Note_on_c, 6, 78, 90
10, 46184, Note_on_c, 6, 78, 0
10, 46185, Note_on_c, 6, 80, 90
10, 46199, Note_on_c, 6, 80, 0
10, 46200, Note_on_c, 6, 81, 90
10, 46229, Note_on_c, 6, 81, 0
10, 46230, Note_on_c, 6, 76, 90
10, 46259, Note_on_c, 6, 76, 0
10, 46260, Note_on_c, 6, 73, 90
10, 46289, Note_on_c, 6, 73, 0
10, 46290, Note_on_c, 6, 81, 90
10, 46319, Note_on_c, 6, 81, 0
10, 46320, Note_on_c, 6, 71, 90
10, 46349, Note_on_c, 6, 71, 0
10, 46350, Note_on_c, 6, 80, 90
10, 46379, Note_on_c, 6, 80, 0
10, 46380, Note_on_c, 6, 69, 90
10, 46439, Note_on_c, 6, 69, 0
10, 46620, Note_on_c, 6, 67, 90
10, 46649, Note_on_c, 6, 67, 0
10, 46650, Note_on_c, 6, 69, 90
10, 46679, Note_on_c, 6, 69, 0
10, 46680, Note_on_c, 6, 71, 90
10, 46694, Note_on_c, 6, 71, 0
10, 46695, Note_on_c, 6, 69, 90
10, 46709, Note_on_c, 6, 69, 0
10, 46710, Note_on_c, 6, 67, 90
10, 46724, Note_on_c, 6, 67, 0
10, 46725, Note_on_c, 6, 69, 90
10, 46739, Note_on_c, 6, 69, 0
10, 46740, Note_on_c, 6, 71, 90
10, 46829, Note_on_c, 6, 71, 0
10, 46830, Note_on_c, 6, 73, 90
10, 46859, Note_on_c, 6, 73, 0
10, 46860, Note_on_c, 6, 74, 90
10, 46874, Note_on_c, 6, 74, 0
10, 46875, Note_on_c, 6, 73, 90
10, 46889, Note_on_c, 6, 73, 0
10, 46890, Note_on_c, 6, 71, 90
10, 46904, Note_on_c, 6, 71, 0
10, 46905, Note_on_c, 6, 73, 90
10, 46919, Note_on_c, 6, 73, 0
10, 46920, Note_on_c, 6, 74, 90
10, 46949, Note_on_c, 6, 74, 0
10, 46980, Note_on_c, 6, 74, 90
10, 47009, Note_on_c, 6, 74, 0
10, 47040, Note_on_c, 6, 73, 90
10, 47069, Note_on_c, 6, 73, 0
10, 47100, Note_on_c, 6, 74, 90
10, 47129, Note_on_c, 6, 74, 0
10, 47130, Note_on_c, 6, 73, 90
10, 47159, Note_on_c, 6, 73, 0
10, 47160, Note_on_c, 6, 74, 90
10, 47189, Note_on_c, 6, 74, 0
10, 47190, Note_on_c, 6, 78, 90
10, 47219, Note_on_c, 6, 78, 0
10, 47220, Note_on_c, 6, 76, 90
10, 47249, Note_on_c, 6, 76, 0
10, 47250, Note_on_c, 6, 74, 90
10, 47279, Note_on_c, 6, 74, 0
10, 47280, Note_on_c, 6, 73, 90
10, 47309, Note_on_c, 6, 73, 0
10, 47310, Note_on_c, 6, 71, 90
10, 47339, Note_on_c, 6, 71, 0
10, 47340, Note_on_c, 6, 73, 90
10, 47369, Note_on_c, 6, 73, 0
10, 47370, Note_on_c, 6, 76, 90
10, 47399, Note_on_c, 6, 76, 0
10, 47400, Note_on_c, 6, 75, 90
10, 47429, Note_on_c, 6, 75, 0
10, 47430, Note_on_c, 6, 78, 90
10, 47459, Note_on_c, 6, 78, 0
10, 47460, Note_on_c, 6, 76, 90
10, 47489, Note_on_c, 6, 76, 0
10, 47490, Note_on_c, 6, 75, 90
10, 47519, Note_on_c, 6, 75, 0
10, 47520, Note_on_c, 6, 76, 90
10, 47549, Note_on_c, 6, 76, 0
10, 47550, Note_on_c, 6, 78, 90
10, 47579, Note_on_c, 6, 78, 0
10, 47580, Note_on_c, 6, 79, 90
10, 47594, Note_on_c, 6, 79, 0
10, 47595, Note_on_c, 6, 78, 90
10, 47609, Note_on_c, 6, 78, 0
10, 47610, Note_on_c, 6, 76, 90
10, 47624, Note_on_c, 6, 76, 0
10, 47625, Note_on_c, 6, 78, 90
10, 47639, Note_on_c, 6, 78, 0
10, 47640, Note_on_c, 6, 79, 90
10, 47669, Note_on_c, 6, 79, 0
10, 47670, Note_on_c, 6, 78, 90
10, 47699, Note_on_c, 6, 78, 0
10, 47700, Note_on_c, 6, 76, 90
10, 47729, Note_on_c, 6, 76, 0
10, 47730, Note_on_c, 6, 74, 90
10, 47759, Note_on_c, 6, 74, 0
10, 47760, Note_on_c, 6, 73, 90
10, 47789, Note_on_c, 6, 73, 0
10, 47790, Note_on_c, 6, 71, 90
10, 47819, Note_on_c, 6, 71, 0
10, 47820, Note_on_c, 6, 70, 90
10, 47849, Note_on_c, 6, 70, 0
10, 47850, Note_on_c, 6, 73, 90
10, 47879, Note_on_c, 6, 73, 0
10, 47880, Note_on_c, 6, 76, 90
10, 47999, Note_on_c, 6, 76, 0
10, 48000, Note_on_c, 6, 67, 90
10, 48014, Note_on_c, 6, 67, 0
10, 48015, Note_on_c, 6, 66, 90
10, 48029, Note_on_c, 6, 66, 0
10, 48030, Note_on_c, 6, 64, 90
10, 48059, Note_on_c, 6, 64, 0
10, 48060, Note_on_c, 6, 64, 90
10, 48089, Note_on_c, 6, 64, 0
10, 48090, Note_on_c, 6, 66, 90
10, 48209, Note_on_c, 6, 66, 0
10, 48210, Note_on_c, 6, 68, 90
10, 48224, Note_on_c, 6, 68, 0
10, 48225, Note_on_c, 6, 70, 90
10, 48239, Note_on_c, 6, 70, 0
10, 48240, Note_on_c, 6, 71, 90
10, 48269, Note_on_c, 6, 71, 0
10, 48270, Note_on_c, 6, 73, 90
10, 48284, Note_on_c, 6, 73, 0
10, 48285, Note_on_c, 6, 75, 90
10, 48299, Note_on_c, 6, 75, 0
10, 48300, Note_on_c, 6, 76, 90
10, 48389, Note_on_c, 6, 76, 0
10, 48390, Note_on_c, 6, 74, 90
10, 48404, Note_on_c, 6, 74, 0
10, 48405, Note_on_c, 6, 73, 90
10, 48419, Note_on_c, 6, 73, 0
10, 48420, Note_on_c, 6, 74, 90
10, 48449, Note_on_c, 6, 74, 0
10, 48450, Note_on_c, 6, 73, 90
10, 48464, Note_on_c, 6, 73, 0
10, 48465, Note_on_c, 6, 71, 90
10, 48479, Note_on_c, 6, 71, 0
10, 48480, Note_on_c, 6, 74, 90
10, 48509, Note_on_c, 6, 74, 0
10, 48510, Note_on_c, 6, 71, 90
10, 48524, Note_on_c, 6, 71, 0
10, 48525, Note_on_c, 6, 73, 90
10, 48539, Note_on_c, 6, 73, 0
10, 48540, Note_on_c, 6, 74, 90
10, 48569, Note_on_c, 6, 74, 0
10, 48570, Note_on_c, 6, 78, 90
10, 48584, Note_on_c, 6, 78, 0
10, 48585, Note_on_c, 6, 76, 90
10, 48599, Note_on_c, 6, 76, 0
10, 48600, Note_on_c, 6, 74, 90
10, 48629, Note_on_c, 6, 74, 0
10, 48630, Note_on_c, 6, 78, 90
10, 48644, Note_on_c, 6, 78, 0
10, 48645, Note_on_c, 6, 76, 90
10, 48659, Note_on_c, 6, 76, 0
10, 48660, Note_on_c, 6, 74, 90
10, 48749, Note_on_c, 6, 74, 0
10, 48750, Note_on_c, 6, 71, 90
10, 48764, Note_on_c, 6, 71, 0
10, 48765, Note_on_c, 6, 73, 90
10, 48779, Note_on_c, 6, 73, 0
10, 48780, Note_on_c, 6, 74, 90
10, 48809, Note_on_c, 6, 74, 0
10, 48810, Note_on_c, 6, 71, 90
10, 48824, Note_on_c, 6, 71, 0
10, 48825, Note_on_c, 6, 73, 90
10, 48839, Note_on_c, 6, 73, 0
10, 48840, Note_on_c, 6, 74, 90
10, 48929, Note_on_c, 6, 74, 0
10, 48930, Note_on_c, 6, 73, 90
10, 48944, Note_on_c, 6, 73, 0
10, 48945, Note_on_c, 6, 74, 90
10, 48959, Note_on_c, 6, 74, 0
10, 48960, Note_on_c, 6, 76, 90
10, 48989, Note_on_c, 6, 76, 0
10, 48990, Note_on_c, 6, 74, 90
10, 49004, Note_on_c, 6, 74, 0
10, 49005, Note_on_c, 6, 73, 90
10, 49019, Note_on_c, 6, 73, 0
10, 49020, Note_on_c, 6, 74, 90
10, 49049, Note_on_c, 6, 74, 0
10, 49050, Note_on_c, 6, 73, 90
10, 49064, Note_on_c, 6, 73, 0
10, 49065, Note_on_c, 6, 71, 90
10, 49079, Note_on_c, 6, 71, 0
10, 49080, Note_on_c, 6, 73, 90
10, 49109, Note_on_c, 6, 73, 0
10, 49110, Note_on_c, 6, 76, 90
10, 49124, Note_on_c, 6, 76, 0
10, 49125, Note_on_c, 6, 74, 90
10, 49139, Note_on_c, 6, 74, 0
10, 49140, Note_on_c, 6, 73, 90
10, 49169, Note_on_c, 6, 73, 0
10, 49170, Note_on_c, 6, 76, 90
10, 49184, Note_on_c, 6, 76, 0
10, 49185, Note_on_c, 6, 74, 90
10, 49199, Note_on_c, 6, 74, 0
10, 49200, Note_on_c, 6, 73, 90
10, 49289, Note_on_c, 6, 73, 0
10, 49290, Note_on_c, 6, 78, 90
10, 49305, Note_on_c, 6, 78, 0
10, 49320, Note_on_c, 6, 78, 90
10, 49335, Note_on_c, 6, 78, 0
10, 49350, Note_on_c, 6, 73, 90
10, 49365, Note_on_c, 6, 73, 0
10, 49380, Note_on_c, 6, 73, 90
10, 49395, Note_on_c, 6, 73, 0
10, 49410, Note_on_c, 6, 69, 90
10, 49425, Note_on_c, 6, 69, 0
10, 49440, Note_on_c, 6, 69, 90
10, 49454, Note_on_c, 6, 69, 0
10, 49455, Note_on_c, 6, 73, 90
10, 49469, Note_on_c, 6, 73, 0
10, 49470, Note_on_c, 6, 75, 90
10, 49484, Note_on_c, 6, 75, 0
10, 49485, Note_on_c, 6, 76, 90
10, 49499, Note_on_c, 6, 76, 0
10, 49500, Note_on_c, 6, 78, 90
10, 49514, Note_on_c, 6, 78, 0
10, 49515, Note_on_c, 6, 80, 90
10, 49529, Note_on_c, 6, 80, 0
10, 49530, Note_on_c, 6, 78, 90
10, 49544, Note_on_c, 6, 78, 0
10, 49545, Note_on_c, 6, 76, 90
10, 49559, Note_on_c, 6, 76, 0
10, 49560, Note_on_c, 6, 75, 90
10, 49574, Note_on_c, 6, 75, 0
10, 49575, Note_on_c, 6, 73, 90
10, 49589, Note_on_c, 6, 73, 0
10, 49590, Note_on_c, 6, 71, 90
10, 49604, Note_on_c, 6, 71, 0
10, 49605, Note_on_c, 6, 69, 90
10, 49619, Note_on_c, 6, 69, 0
10, 49620, Note_on_c, 6, 68, 90
10, 49634, Note_on_c, 6, 68, 0
10, 49650, Note_on_c, 6, 76, 90
10, 49664, Note_on_c, 6, 76, 0
10, 49680, Note_on_c, 6, 76, 90
10, 49694, Note_on_c, 6, 76, 0
10, 49710, Note_on_c, 6, 71, 90
10, 49724, Note_on_c, 6, 71, 0
10, 49740, Note_on_c, 6, 71, 90
10, 49754, Note_on_c, 6, 71, 0
10, 49770, Note_on_c, 6, 67, 90
10, 49784, Note_on_c, 6, 67, 0
10, 49800, Note_on_c, 6, 67, 90
10, 49814, Note_on_c, 6, 67, 0
10, 49815, Note_on_c, 6, 71, 90
10, 49829, Note_on_c, 6, 71, 0
10, 49830, Note_on_c, 6, 73, 90
10, 49844, Note_on_c, 6, 73, 0
10, 49845, Note_on_c, 6, 74, 90
10, 49859, Note_on_c, 6, 74, 0
10, 49860, Note_on_c, 6, 76, 90
10, 49874, Note_on_c, 6, 76, 0
10, 49875, Note_on_c, 6, 78, 90
10, 49889, Note_on_c, 6, 78, 0
10, 49890, Note_on_c, 6, 76, 90
10, 49904, Note_on_c, 6, 76, 0
10, 49905, Note_on_c, 6, 74, 90
10, 49919, Note_on_c, 6, 74, 0
10, 49920, Note_on_c, 6, 73, 90
10, 49934, Note_on_c, 6, 73, 0
10, 49935, Note_on_c, 6, 71, 90
10, 49949, Note_on_c, 6, 71, 0
10, 49950, Note_on_c, 6, 69, 90
10, 49964, Note_on_c, 6, 69, 0
10, 49965, Note_on_c, 6, 67, 90
10, 49979, Note_on_c, 6, 67, 0
10, 49980, Note_on_c, 6, 66, 90
10, 49994, Note_on_c, 6, 66, 0
10, 49995, Note_on_c, 6, 62, 90
10, 50009, Note_on_c, 6, 62, 0
10, 50010, Note_on_c, 6, 64, 90
10, 50024, Note_on_c, 6, 64, 0
10, 50025, Note_on_c, 6, 66, 90
10, 50039, Note_on_c, 6, 66, 0
10, 50040, Note_on_c, 6, 68, 90
10, 50054, Note_on_c, 6, 68, 0
10, 50055, Note_on_c, 6, 64, 90
10, 50069, Note_on_c, 6, 64, 0
10, 50070, Note_on_c, 6, 66, 90
10, 50084, Note_on_c, 6, 66, 0
10, 50085, Note_on_c, 6, 68, 90
10, 50099, Note_on_c, 6, 68, 0
10, 50100, Note_on_c, 6, 69, 90
10, 50114, Note_on_c, 6, 69, 0
10, 50115, Note_on_c, 6, 66, 90
10, 50129, Note_on_c, 6, 66, 0
10, 50130, Note_on_c, 6, 68, 90
10, 50144, Note_on_c, 6, 68, 0
10, 50145, Note_on_c, 6, 69, 90
10, 50159, Note_on_c, 6, 69, 0
10, 50160, Note_on_c, 6, 71, 90
10, 50174, Note_on_c, 6, 71, 0
10, 50175, Note_on_c, 6, 68, 90
10, 50189, Note_on_c, 6, 68, 0
10, 50190, Note_on_c, 6, 69, 90
10, 50204, Note_on_c, 6, 69, 0
10, 50205, Note_on_c, 6, 71, 90
10, 50219, Note_on_c, 6, 71, 0
10, 50220, Note_on_c, 6, 73, 90
10, 50234, Note_on_c, 6, 73, 0
10, 50235, Note_on_c, 6, 69, 90
10, 50249, Note_on_c, 6, 69, 0
10, 50250, Note_on_c, 6, 71, 90
10, 50264, Note_on_c, 6, 71, 0
10, 50265, Note_on_c, 6, 73, 90
10, 50279, Note_on_c, 6, 73, 0
10, 50280, Note_on_c, 6, 74, 90
10, 50294, Note_on_c, 6, 74, 0
10, 50295, Note_on_c, 6, 71, 90
10, 50309, Note_on_c, 6, 71, 0
10, 50310, Note_on_c, 6, 73, 90
10, 50324, Note_on_c, 6, 73, 0
10, 50325, Note_on_c, 6, 74, 90
10, 50339, Note_on_c, 6, 74, 0
10, 50340, Note_on_c, 6, 76, 90
10, 50354, Note_on_c, 6, 76, 0
10, 50355, Note_on_c, 6, 73, 90
10, 50369, Note_on_c, 6, 73, 0
10, 50370, Note_on_c, 6, 74, 90
10, 50384, Note_on_c, 6, 74, 0
10, 50385, Note_on_c, 6, 76, 90
10, 50399, Note_on_c, 6, 76, 0
10, 50400, Note_on_c, 6, 78, 90
10, 50414, Note_on_c, 6, 78, 0
10, 50415, Note_on_c, 6, 74, 90
10, 50429, Note_on_c, 6, 74, 0
10, 50430, Note_on_c, 6, 76, 90
10, 50444, Note_on_c, 6, 76, 0
10, 50445, Note_on_c, 6, 78, 90
10, 50459, Note_on_c, 6, 78, 0
10, 50460, Note_on_c, 6, 80, 90
10, 50474, Note_on_c, 6, 80, 0
10, 50475, Note_on_c, 6, 76, 90
10, 50489, Note_on_c, 6, 76, 0
10, 50490, Note_on_c, 6, 78, 90
10, 50504, Note_on_c, 6, 78, 0
10, 50505, Note_on_c, 6, 80, 90
10, 50519, Note_on_c, 6, 80, 0
10, 50520, Note_on_c, 6, 81, 90
10, 50549, Note_on_c, 6, 81, 0
10, 50580, Note_on_c, 6, 83, 90
10, 50609, Note_on_c, 6, 83, 0
10, 50640, Note_on_c, 6, 80, 90
10, 50669, Note_on_c, 6, 80, 0
10, 50700, Note_on_c, 6, 81, 90
10, 50729, Note_on_c, 6, 81, 0
10, 50730, Note_on_c, 6, 64, 90
10, 50747, Note_on_c, 6, 64, 0
10, 50760, Note_on_c, 6, 64, 90
10, 50777, Note_on_c, 6, 64, 0
10, 50790, Note_on_c, 6, 64, 90
10, 50807, Note_on_c, 6, 64, 0
10, 50820, Note_on_c, 6, 64, 90
10, 50837, Note_on_c, 6, 64, 0
10, 50850, Note_on_c, 6, 64, 90
10, 50867, Note_on_c, 6, 64, 0
10, 50880, Note_on_c, 6, 64, 90
10, 50897, Note_on_c, 6, 64, 0
10, 50910, Note_on_c, 6, 64, 90
10, 50927, Note_on_c, 6, 64, 0
10, 50940, Note_on_c, 6, 64, 90
10, 50957, Note_on_c, 6, 64, 0
10, 50970, Note_on_c, 6, 64, 90
10, 50987, Note_on_c, 6, 64, 0
10, 51000, Note_on_c, 6, 64, 90
10, 51017, Note_on_c, 6, 64, 0
10, 51030, Note_on_c, 6, 64, 90
10, 51047, Note_on_c, 6, 64, 0
10, 51060, Note_on_c, 6, 64, 90
10, 51077, Note_on_c, 6, 64, 0
10, 51090, Note_on_c, 6, 64, 90
10, 51107, Note_on_c, 6, 64, 0
10, 51120, Note_on_c, 6, 64, 90
10, 51137, Note_on_c, 6, 64, 0
10, 51150, Note_on_c, 6, 64, 90
10, 51167, Note_on_c, 6, 64, 0
10, 51180, Note_on_c, 6, 64, 90
10, 51197, Note_on_c, 6, 64, 0
10, 51210, Note_on_c, 6, 64, 90
10, 51227, Note_on_c, 6, 64, 0
10, 51240, Note_on_c, 6, 64, 90
10, 51257, Note_on_c, 6, 64, 0
10, 51270, Note_on_c, 6, 64, 90
10, 51287, Note_on_c, 6, 64, 0
10, 51300, Note_on_c, 6, 64, 90
10, 51317, Note_on_c, 6, 64, 0
10, 51330, Note_on_c, 6, 64, 90
10, 51347, Note_on_c, 6, 64, 0
10, 51360, Note_on_c, 6, 64, 90
10, 51377, Note_on_c, 6, 64, 0
10, 51390, Note_on_c, 6, 62, 90
10, 51407, Note_on_c, 6, 62, 0
10, 51420, Note_on_c, 6, 61, 90
10, 51437, Note_on_c, 6, 61, 0
10, 51450, Note_on_c, 6, 61, 90
10, 51467, Note_on_c, 6, 61, 0
10, 51480, Note_on_c, 6, 61, 90
10, 51497, Note_on_c, 6, 61, 0
10, 51510, Note_on_c, 6, 61, 90
10, 51527, Note_on_c, 6, 61, 0
10, 51540, Note_on_c, 6, 61, 90
10, 51557, Note_on_c, 6, 61, 0
10, 51570, Note_on_c, 6, 61, 90
10, 51587, Note_on_c, 6, 61, 0
10, 51600, Note_on_c, 6, 59, 90
10, 51629, Note_on_c, 6, 59, 0
10, 51630, Note_on_c, 6, 73, 90
10, 51659, Note_on_c, 6, 73, 0
10, 51660, Note_on_c, 6, 74, 90
10, 51689, Note_on_c, 6, 74, 0
10, 51690, Note_on_c, 6, 76, 90
10, 51719, Note_on_c, 6, 76, 0
10, 51720, Note_on_c, 6, 78, 90
10, 51749, Note_on_c, 6, 78, 0
10, 51750, Note_on_c, 6, 79, 90
10, 51779, Note_on_c, 6, 79, 0
10, 51780, Note_on_c, 6, 78, 90
10, 51794, Note_on_c, 6, 78, 0
10, 51795, Note_on_c, 6, 79, 90
10, 51809, Note_on_c, 6, 79, 0
10, 51810, Note_on_c, 6, 81, 90
10, 51839, Note_on_c, 6, 81, 0
10, 51840, Note_on_c, 6, 79, 90
10, 51869, Note_on_c, 6, 79, 0
10, 51870, Note_on_c, 6, 78, 90
10, 51899, Note_on_c, 6, 78, 0
10, 51900, Note_on_c, 6, 76, 90
10, 51929, Note_on_c, 6, 76, 0
10, 51930, Note_on_c, 6, 74, 90
10, 51959, Note_on_c, 6, 74, 0
10, 51960, Note_on_c, 6, 73, 90
10, 51989, Note_on_c, 6, 73, 0
10, 51990, Note_on_c, 6, 71, 90
10, 52019, Note_on_c, 6, 71, 0
10, 52020, Note_on_c, 6, 69, 90
10, 52049, Note_on_c, 6, 69, 0
10, 52050, Note_on_c, 6, 67, 90
10, 52079, Note_on_c, 6, 67, 0
10, 52080, Note_on_c, 6, 66, 90
10, 52109, Note_on_c, 6, 66, 0
10, 52110, Note_on_c, 6, 64, 90
10, 52139, Note_on_c, 6, 64, 0
10, 52140, Note_on_c, 6, 62, 90
10, 52199, Note_on_c, 6, 62, 0
10, 53070, Note_on_c, 6, 66, 90
10, 53084, Note_on_c, 6, 66, 0
10, 53085, Note_on_c, 6, 67, 90
10, 53099, Note_on_c, 6, 67, 0
10, 53100, Note_on_c, 6, 69, 90
10, 53114, Note_on_c, 6, 69, 0
10, 53115, Note_on_c, 6, 67, 90
10, 53129, Note_on_c, 6, 67, 0
10, 53130, Note_on_c, 6, 69, 90
10, 53144, Note_on_c, 6, 69, 0
10, 53145, Note_on_c, 6, 67, 90
10, 53159, Note_on_c, 6, 67, 0
10, 53160, Note_on_c, 6, 69, 90
10, 53174, Note_on_c, 6, 69, 0
10, 53175, Note_on_c, 6, 67, 90
10, 53189, Note_on_c, 6, 67, 0
10, 53190, Note_on_c, 6, 66, 90
10, 53204, Note_on_c, 6, 66, 0
10, 53205, Note_on_c, 6, 67, 90
10, 53219, Note_on_c, 6, 67, 0
10, 53220, Note_on_c, 6, 69, 90
10, 53234, Note_on_c, 6, 69, 0
10, 53235, Note_on_c, 6, 86, 90
10, 53249, Note_on_c, 6, 86, 0
10, 53250, Note_on_c, 6, 85, 90
10, 53264, Note_on_c, 6, 85, 0
10, 53265, Note_on_c, 6, 83, 90
10, 53279, Note_on_c, 6, 83, 0
10, 53280, Note_on_c, 6, 81, 90
10, 53294, Note_on_c, 6, 81, 0
10, 53295, Note_on_c, 6, 86, 90
10, 53309, Note_on_c, 6, 86, 0
10, 53310, Note_on_c, 6, 85, 90
10, 53324, Note_on_c, 6, 85, 0
10, 53325, Note_on_c, 6, 83, 90
10, 53339, Note_on_c, 6, 83, 0
10, 53340, Note_on_c, 6, 81, 90
10, 53354, Note_on_c, 6, 81, 0
10, 53355, Note_on_c, 6, 79, 90
10, 53369, Note_on_c, 6, 79, 0
10, 53370, Note_on_c, 6, 78, 90
10, 53384, Note_on_c, 6, 78, 0
10, 53385, Note_on_c, 6, 76, 90
10, 53399, Note_on_c, 6, 76, 0
10, 53400, Note_on_c, 6, 78, 90
10, 53414, Note_on_c, 6, 78, 0
10, 53415, Note_on_c, 6, 74, 90
10, 53429, Note_on_c, 6, 74, 0
10, 53430, Note_on_c, 6, 73, 90
10, 53444, Note_on_c, 6, 73, 0
10, 53445, Note_on_c, 6, 71, 90
10, 53459, Note_on_c, 6, 71, 0
10, 53460, Note_on_c, 6, 69, 90
10, 53474, Note_on_c, 6, 69, 0
10, 53475, Note_on_c, 6, 74, 90
10, 53489, Note_on_c, 6, 74, 0
10, 53490, Note_on_c, 6, 73, 90
10, 53504, Note_on_c, 6, 73, 0
10, 53505, Note_on_c, 6, 71, 90
10, 53519, Note_on_c, 6, 71, 0
10, 53520, Note_on_c, 6, 69, 90
10, 53534, Note_on_c, 6, 69, 0
10, 53535, Note_on_c, 6, 67, 90
10, 53549, Note_on_c, 6, 67, 0
10, 53550, Note_on_c, 6, 66, 90
10, 53564, Note_on_c, 6, 66, 0
10, 53565, Note_on_c, 6, 64, 90
10, 53579, Note_on_c, 6, 64, 0
10, 53580, Note_on_c, 6, 66, 90
10, 53594, Note_on_c, 6, 66, 0
10, 53595, Note_on_c, 6, 71, 90
10, 53609, Note_on_c, 6, 71, 0
10, 53610, Note_on_c, 6, 69, 90
10, 53624, Note_on_c, 6, 69, 0
10, 53625, Note_on_c, 6, 67, 90
10, 53639, Note_on_c, 6, 67, 0
10, 53640, Note_on_c, 6, 66, 90
10, 53654, Note_on_c, 6, 66, 0
10, 53655, Note_on_c, 6, 71, 90
10, 53669, Note_on_c, 6, 71, 0
10, 53670, Note_on_c, 6, 69, 90
10, 53684, Note_on_c, 6, 69, 0
10, 53685, Note_on_c, 6, 67, 90
10, 53699, Note_on_c, 6, 67, 0
10, 53700, Note_on_c, 6, 66, 90
10, 53714, Note_on_c, 6, 66, 0
10, 53715, Note_on_c, 6, 64, 90
10, 53729, Note_on_c, 6, 64, 0
10, 53730, Note_on_c, 6, 62, 90
10, 53744, Note_on_c, 6, 62, 0
10, 53745, Note_on_c, 6, 61, 90
10, 53759, Note_on_c, 6, 61, 0
10, 53760, Note_on_c, 6, 62, 90
10, 53774, Note_on_c, 6, 62, 0
10, 53775, Note_on_c, 6, 59, 90
10, 53789, Note_on_c, 6, 59, 0
10, 53790, Note_on_c, 6, 57, 90
10, 53804, Note_on_c, 6, 57, 0
10, 53805, Note_on_c, 6, 55, 90
10, 53819, Note_on_c, 6, 55, 0
10, 53820, Note_on_c, 6, 57, 90
10, 53834, Note_on_c, 6, 57, 0
10, 53835, Note_on_c, 6, 59, 90
10, 53849, Note_on_c, 6, 59, 0
10, 53850, Note_on_c, 6, 57, 90
10, 53864, Note_on_c, 6, 57, 0
10, 53865, Note_on_c, 6, 55, 90
10, 53879, Note_on_c, 6, 55, 0
10, 53880, Note_on_c, 6, 57, 90
10, 53894, Note_on_c, 6, 57, 0
10, 53895, Note_on_c, 6, 59, 90
10, 53909, Note_on_c, 6, 59, 0
10, 53910, Note_on_c, 6, 57, 90
10, 53924, Note_on_c, 6, 57, 0
10, 53925, Note_on_c, 6, 55, 90
10, 53939, Note_on_c, 6, 55, 0
10, 53940, Note_on_c, 6, 57, 90
10, 53957, Note_on_c, 6, 57, 0
10, 53970, Note_on_c, 6, 57, 90
10, 53987, Note_on_c, 6, 57, 0
10, 54000, Note_on_c, 6, 57, 90
10, 54017, Note_on_c, 6, 57, 0
10, 54030, Note_on_c, 6, 57, 90
10, 54047, Note_on_c, 6, 57, 0
10, 54060, Note_on_c, 6, 57, 90
10, 54077, Note_on_c, 6, 57, 0
10, 54090, Note_on_c, 6, 57, 90
10, 54107, Note_on_c, 6, 57, 0
10, 54120, Note_on_c, 6, 57, 90
10, 54137, Note_on_c, 6, 57, 0
10, 54150, Note_on_c, 6, 57, 90
10, 54167, Note_on_c, 6, 57, 0
10, 54180, Note_on_c, 6, 57, 90
10, 54197, Note_on_c, 6, 57, 0
10, 54210, Note_on_c, 6, 57, 90
10, 54227, Note_on_c, 6, 57, 0
10, 54240, Note_on_c, 6, 57, 90
10, 54257, Note_on_c, 6, 57, 0
10, 54270, Note_on_c, 6, 57, 90
10, 54287, Note_on_c, 6, 57, 0
10, 54300, Note_on_c, 6, 57, 90
10, 54317, Note_on_c, 6, 57, 0
10, 54330, Note_on_c, 6, 57, 90
10, 54347, Note_on_c, 6, 57, 0
10, 54360, Note_on_c, 6, 57, 90
10, 54377, Note_on_c, 6, 57, 0
10, 54390, Note_on_c, 6, 57, 90
10, 54407, Note_on_c, 6, 57, 0
10, 54420, Note_on_c, 6, 57, 90
10, 54437, Note_on_c, 6, 57, 0
10, 54450, Note_on_c, 6, 57, 90
10, 54467, Note_on_c, 6, 57, 0
10, 54480, Note_on_c, 6, 57, 90
10, 54497, Note_on_c, 6, 57, 0
10, 54510, Note_on_c, 6, 57, 90
10, 54527, Note_on_c, 6, 57, 0
10, 54540, Note_on_c, 6, 57, 90
10, 54557, Note_on_c, 6, 57, 0
10, 54570, Note_on_c, 6, 57, 90
10, 54587, Note_on_c, 6, 57, 0
10, 54600, Note_on_c, 6, 78, 90
10, 54629, Note_on_c, 6, 78, 0
10, 54630, Note_on_c, 6, 79, 90
10, 54659, Note_on_c, 6, 79, 0
10, 54660, Note_on_c, 6, 81, 90
10, 54689, Note_on_c, 6, 81, 0
10, 54720, Note_on_c, 6, 72, 90
10, 54749, Note_on_c, 6, 72, 0
10, 54780, Note_on_c, 6, 72, 90
10, 54809, Note_on_c, 6, 72, 0
10, 54840, Note_on_c, 6, 72, 90
10, 54855, Note_on_c, 6, 72, 0
10, 54855, Note_on_c, 6, 74, 90
10, 54870, Note_on_c, 6, 74, 0
10, 54870, Note_on_c, 6, 72, 90
10, 54899, Note_on_c, 6, 72, 0
10, 54900, Note_on_c, 6, 71, 90
10, 54959, Note_on_c, 6, 71, 0
10, 54960, Note_on_c, 6, 79, 90
10, 55019, Note_on_c, 6, 79, 0
10, 55020, Note_on_c, 6, 78, 90
10, 55079, Note_on_c, 6, 78, 0
10, 55080, Note_on_c, 6, 76, 90
10, 55139, Note_on_c, 6, 76, 0
10, 55140, Note_on_c, 6, 74, 90
10, 55199, Note_on_c, 6, 74, 0
10, 55200, Note_on_c, 6, 81, 90
10, 55319, Note_on_c, 6, 81, 0
10, 55800, Note_on_c, 6, 73, 90
10, 55829, Note_on_c, 6, 73, 0
10, 55830, Note_on_c, 6, 74, 90
10, 55859, Note_on_c, 6, 74, 0
10, 55860, Note_on_c, 6, 76, 90
10, 55874, Note_on_c, 6, 76, 0
10, 55875, Note_on_c, 6, 74, 90
10, 55889, Note_on_c, 6, 74, 0
10, 55890, Note_on_c, 6, 73, 90
10, 55904, Note_on_c, 6, 73, 0
10, 55905, Note_on_c, 6, 74, 90
10, 55919, Note_on_c, 6, 74, 0
10, 55920, Note_on_c, 6, 76, 90
10, 55949, Note_on_c, 6, 76, 0
10, 55950, Note_on_c, 6, 74, 90
10, 55979, Note_on_c, 6, 74, 0
10, 55980, Note_on_c, 6, 76, 90
10, 56009, Note_on_c, 6, 76, 0
10, 56010, Note_on_c, 6, 78, 90
10, 56039, Note_on_c, 6, 78, 0
10, 56040, Note_on_c, 6, 79, 90
10, 56054, Note_on_c, 6, 79, 0
10, 56055, Note_on_c, 6, 78, 90
10, 56069, Note_on_c, 6, 78, 0
10, 56070, Note_on_c, 6, 76, 90
10, 56084, Note_on_c, 6, 76, 0
10, 56085, Note_on_c, 6, 78, 90
10, 56099, Note_on_c, 6, 78, 0
10, 56100, Note_on_c, 6, 79, 90
10, 56129, Note_on_c, 6, 79, 0
10, 56160, Note_on_c, 6, 78, 90
10, 56189, Note_on_c, 6, 78, 0
10, 56220, Note_on_c, 6, 76, 90
10, 56249, Note_on_c, 6, 76, 0
10, 56280, Note_on_c, 6, 74, 90
10, 56309, Note_on_c, 6, 74, 0
10, 56310, Note_on_c, 6, 76, 90
10, 56339, Note_on_c, 6, 76, 0
10, 56340, Note_on_c, 6, 78, 90
10, 56369, Note_on_c, 6, 78, 0
10, 56370, Note_on_c, 6, 79, 90
10, 56399, Note_on_c, 6, 79, 0
10, 56400, Note_on_c, 6, 81, 90
10, 56414, Note_on_c, 6, 81, 0
10, 56415, Note_on_c, 6, 79, 90
10, 56429, Note_on_c, 6, 79, 0
10, 56430, Note_on_c, 6, 78, 90
10, 56444, Note_on_c, 6, 78, 0
10, 56445, Note_on_c, 6, 79, 90
10, 56459, Note_on_c, 6, 79, 0
10, 56460, Note_on_c, 6, 81, 90
10, 56489, Note_on_c, 6, 81, 0
10, 56520, Note_on_c, 6, 74, 90
10, 56549, Note_on_c, 6, 74, 0
10, 56580, Note_on_c, 6, 76, 90
10, 56609, Note_on_c, 6, 76, 0
10, 56640, Note_on_c, 6, 73, 90
10, 56669, Note_on_c, 6, 73, 0
10, 56670, Note_on_c, 6, 69, 90
10, 56699, Note_on_c, 6, 69, 0
10, 56700, Note_on_c, 6, 74, 90
10, 56729, Note_on_c, 6, 74, 0
10, 56730, Note_on_c, 6, 76, 90
10, 56759, Note_on_c, 6, 76, 0
10, 56760, Note_on_c, 6, 78, 90
10, 56774, Note_on_c, 6, 78, 0
10, 56775, Note_on_c, 6, 76, 90
10, 56789, Note_on_c, 6, 76, 0
10, 56790, Note_on_c, 6, 74, 90
10, 56804, Note_on_c, 6, 74, 0
10, 56805, Note_on_c, 6, 76, 90
10, 56819, Note_on_c, 6, 76, 0
10, 56820, Note_on_c, 6, 78, 90
10, 56849, Note_on_c, 6, 78, 0
10, 56850, Note_on_c, 6, 76, 90
10, 56879, Note_on_c, 6, 76, 0
10, 56880, Note_on_c, 6, 78, 90
10, 56909, Note_on_c, 6, 78, 0
10, 56910, Note_on_c, 6, 80, 90
10, 56939, Note_on_c, 6, 80, 0
10, 56940, Note_on_c, 6, 81, 90
10, 56954, Note_on_c, 6, 81, 0
10, 56955, Note_on_c, 6, 80, 90
10, 56969, Note_on_c, 6, 80, 0
10, 56970, Note_on_c, 6, 78, 90
10, 56984, Note_on_c, 6, 78, 0
10, 56985, Note_on_c, 6, 80, 90
10, 56999, Note_on_c, 6, 80, 0
10, 57000, Note_on_c, 6, 81, 90
10, 57059, Note_on_c, 6, 81, 0
10, 57060, Note_on_c, 6, 76, 90
10, 57089, Note_on_c, 6, 76, 0
10, 57090, Note_on_c, 6, 78, 90
10, 57119, Note_on_c, 6, 78, 0
10, 57120, Note_on_c, 6, 79, 90
10, 57134, Note_on_c, 6, 79, 0
10, 57135, Note_on_c, 6, 78, 90
10, 57149, Note_on_c, 6, 78, 0
10, 57150, Note_on_c, 6, 76, 90
10, 57164, Note_on_c, 6, 76, 0
10, 57165, Note_on_c, 6, 78, 90
10, 57179, Note_on_c, 6, 78, 0
10, 57180, Note_on_c, 6, 79, 90
10, 57209, Note_on_c, 6, 79, 0
10, 57240, Note_on_c, 6, 72, 90
10, 57269, Note_on_c, 6, 72, 0
10, 57300, Note_on_c, 6, 72, 90
10, 57329, Note_on_c, 6, 72, 0
10, 57360, Note_on_c, 6, 71, 90
10, 57419, Note_on_c, 6, 71, 0
10, 57420, Note_on_c, 6, 74, 90
10, 57479, Note_on_c, 6, 74, 0
10, 57480, Note_on_c, 6, 79, 90
10, 57539, Note_on_c, 6, 79, 0
10, 57540, Note_on_c, 6, 78, 90
10, 57599, Note_on_c, 6, 78, 0
10, 57600, Note_on_c, 6, 69, 90
10, 57659, Note_on_c, 6, 69, 0
10, 57660, Note_on_c, 6, 74, 90
10, 57719, Note_on_c, 6, 74, 0
10, 57720, Note_on_c, 6, 73, 90
10, 57749, Note_on_c, 6, 73, 0
10, 57750, Note_on_c, 6, 71, 90
10, 57779, Note_on_c, 6, 71, 0
10, 57780, Note_on_c, 6, 73, 90
10, 57809, Note_on_c, 6, 73, 0
10, 57810, Note_on_c, 6, 74, 90
10, 57839, Note_on_c, 6, 74, 0
10, 57840, Note_on_c, 6, 76, 90
10, 57869, Note_on_c, 6, 76, 0
10, 57870, Note_on_c, 6, 78, 90
10, 57899, Note_on_c, 6, 78, 0
10, 57900, Note_on_c, 6, 75, 90
10, 57929, Note_on_c, 6, 75, 0
10, 57930, Note_on_c, 6, 78, 90
10, 57959, Note_on_c, 6, 78, 0
10, 57960, Note_on_c, 6, 81, 90
10, 58079, Note_on_c, 6, 81, 0
10, 58080, Note_on_c, 6, 72, 90
10, 58094, Note_on_c, 6, 72, 0
10, 58095, Note_on_c, 6, 71, 90
10, 58109, Note_on_c, 6, 71, 0
10, 58110, Note_on_c, 6, 69, 90
10, 58139, Note_on_c, 6, 69, 0
10, 58140, Note_on_c, 6, 69, 90
10, 58169, Note_on_c, 6, 69, 0
10, 58170, Note_on_c, 6, 71, 90
10, 58289, Note_on_c, 6, 71, 0
10, 58290, Note_on_c, 6, 73, 90
10, 58304, Note_on_c, 6, 73, 0
10, 58305, Note_on_c, 6, 75, 90
10, 58319, Note_on_c, 6, 75, 0
10, 58320, Note_on_c, 6, 76, 90
10, 58349, Note_on_c, 6, 76, 0
10, 58350, Note_on_c, 6, 78, 90
10, 58364, Note_on_c, 6, 78, 0
10, 58365, Note_on_c, 6, 79, 90
10, 58379, Note_on_c, 6, 79, 0
10, 58380, Note_on_c, 6, 81, 90
10, 58469, Note_on_c, 6, 81, 0
10, 58470, Note_on_c, 6, 79, 90
10, 58484, Note_on_c, 6, 79, 0
10, 58485, Note_on_c, 6, 78, 90
10, 58499, Note_on_c, 6, 78, 0
10, 58500, Note_on_c, 6, 79, 90
10, 58529, Note_on_c, 6, 79, 0
10, 58530, Note_on_c, 6, 78, 90
10, 58544, Note_on_c, 6, 78, 0
10, 58545, Note_on_c, 6, 76, 90
10, 58559, Note_on_c, 6, 76, 0
10, 58560, Note_on_c, 6, 79, 90
10, 58589, Note_on_c, 6, 79, 0
10, 58590, Note_on_c, 6, 76, 90
10, 58604, Note_on_c, 6, 76, 0
10, 58605, Note_on_c, 6, 78, 90
10, 58619, Note_on_c, 6, 78, 0
10, 58620, Note_on_c, 6, 79, 90
10, 58649, Note_on_c, 6, 79, 0
10, 58650, Note_on_c, 6, 83, 90
10, 58664, Note_on_c, 6, 83, 0
10, 58665, Note_on_c, 6, 81, 90
10, 58679, Note_on_c, 6, 81, 0
10, 58680, Note_on_c, 6, 79, 90
10, 58709, Note_on_c, 6, 79, 0
10, 58710, Note_on_c, 6, 83, 90
10, 58724, Note_on_c, 6, 83, 0
10, 58725, Note_on_c, 6, 81, 90
10, 58739, Note_on_c, 6, 81, 0
10, 58740, Note_on_c, 6, 79, 90
10, 58829, Note_on_c, 6, 79, 0
10, 58830, Note_on_c, 6, 76, 90
10, 58844, Note_on_c, 6, 76, 0
10, 58845, Note_on_c, 6, 78, 90
10, 58859, Note_on_c, 6, 78, 0
10, 58860, Note_on_c, 6, 79, 90
10, 58889, Note_on_c, 6, 79, 0
10, 58890, Note_on_c, 6, 76, 90
10, 58904, Note_on_c, 6, 76, 0
10, 58905, Note_on_c, 6, 78, 90
10, 58919, Note_on_c, 6, 78, 0
10, 58920, Note_on_c, 6, 79, 90
10, 59009, Note_on_c, 6, 79, 0
10, 59010, Note_on_c, 6, 78, 90
10, 59024, Note_on_c, 6, 78, 0
10, 59025, Note_on_c, 6, 79, 90
10, 59039, Note_on_c, 6, 79, 0
10, 59040, Note_on_c, 6, 81, 90
10, 59069, Note_on_c, 6, 81, 0
10, 59070, Note_on_c, 6, 79, 90
10, 59084, Note_on_c, 6, 79, 0
10, 59085, Note_on_c, 6, 78, 90
10, 59099, Note_on_c, 6, 78, 0
10, 59100, Note_on_c, 6, 79, 90
10, 59129, Note_on_c, 6, 79, 0
10, 59130, Note_on_c, 6, 78, 90
10, 59144, Note_on_c, 6, 78, 0
10, 59145, Note_on_c, 6, 76, 90
10, 59159, Note_on_c, 6, 76, 0
10, 59160, Note_on_c, 6, 78, 90
10, 59189, Note_on_c, 6, 78, 0
10, 59190, Note_on_c, 6, 81, 90
10, 59204, Note_on_c, 6, 81, 0
10, 59205, Note_on_c, 6, 79, 90
10, 59219, Note_on_c, 6, 79, 0
10, 59220, Note_on_c, 6, 78, 90
10, 59249, Note_on_c, 6, 78, 0
10, 59250, Note_on_c, 6, 81, 90
10, 59264, Note_on_c, 6, 81, 0
10, 59265, Note_on_c, 6, 79, 90
10, 59279, Note_on_c, 6, 79, 0
10, 59280, Note_on_c, 6, 78, 90
10, 59369, Note_on_c, 6, 78, 0
10, 59370, Note_on_c, 6, 83, 90
10, 59384, Note_on_c, 6, 83, 0
10, 59400, Note_on_c, 6, 83, 90
10, 59414, Note_on_c, 6, 83, 0
10, 59430, Note_on_c, 6, 78, 90
10, 59444, Note_on_c, 6, 78, 0
10, 59460, Note_on_c, 6, 78, 90
10, 59474, Note_on_c, 6, 78, 0
10, 59490, Note_on_c, 6, 74, 90
10, 59504, Note_on_c, 6, 74, 0
10, 59520, Note_on_c, 6, 74, 90
10, 59534, Note_on_c, 6, 74, 0
10, 59535, Note_on_c, 6, 78, 90
10, 59549, Note_on_c, 6, 78, 0
10, 59550, Note_on_c, 6, 80, 90
10, 59564, Note_on_c, 6, 80, 0
10, 59565, Note_on_c, 6, 81, 90
10, 59579, Note_on_c, 6, 81, 0
10, 59580, Note_on_c, 6, 83, 90
10, 59594, Note_on_c, 6, 83, 0
10, 59595, Note_on_c, 6, 85, 90
10, 59609, Note_on_c, 6, 85, 0
10, 59610, Note_on_c, 6, 83, 90
10, 59624, Note_on_c, 6, 83, 0
10, 59625, Note_on_c, 6, 81, 90
10, 59639, Note_on_c, 6, 81, 0
10, 59640, Note_on_c, 6, 80, 90
10, 59654, Note_on_c, 6, 80, 0
10, 59655, Note_on_c, 6, 78, 90
10, 59669, Note_on_c, 6, 78, 0
10, 59670, Note_on_c, 6, 76, 90
10, 59684, Note_on_c, 6, 76, 0
10, 59685, Note_on_c, 6, 74, 90
10, 59699, Note_on_c, 6, 74, 0
10, 59700, Note_on_c, 6, 73, 90
10, 59714, Note_on_c, 6, 73, 0
10, 59730, Note_on_c, 6, 81, 90
10, 59744, Note_on_c, 6, 81, 0
10, 59760, Note_on_c, 6, 81, 90
10, 59774, Note_on_c, 6, 81, 0
10, 59790, Note_on_c, 6, 76, 90
10, 59804, Note_on_c, 6, 76, 0
10, 59820, Note_on_c, 6, 76, 90
10, 59834, Note_on_c, 6, 76, 0
10, 59850, Note_on_c, 6, 72, 90
10, 59864, Note_on_c, 6, 72, 0
10, 59880, Note_on_c, 6, 72, 90
10, 59894, Note_on_c, 6, 72, 0
10, 59895, Note_on_c, 6, 76, 90
10, 59909, Note_on_c, 6, 76, 0
10, 59910, Note_on_c, 6, 78, 90
10, 59924, Note_on_c, 6, 78, 0
10, 59925, Note_on_c, 6, 79, 90
10, 59939, Note_on_c, 6, 79, 0
10, 59940, Note_on_c, 6, 81, 90
10, 59954, Note_on_c, 6, 81, 0
10, 59955, Note_on_c, 6, 83, 90
10, 59969, Note_on_c, 6, 83, 0
10, 59970, Note_on_c, 6, 81, 90
10, 59984, Note_on_c, 6, 81, 0
10, 59985, Note_on_c, 6, 79, 90
10, 59999, Note_on_c, 6, 79, 0
10, 60000, Note_on_c, 6, 78, 90
10, 60014, Note_on_c, 6, 78, 0
10, 60015, Note_on_c, 6, 76, 90
10, 60029, Note_on_c, 6, 76, 0
10, 60030, Note_on_c, 6, 74, 90
10, 60044, Note_on_c, 6, 74, 0
10, 60045, Note_on_c, 6, 72, 90
10, 60059, Note_on_c, 6, 72, 0
10, 60060, Note_on_c, 6, 71, 90
10, 60074, Note_on_c, 6, 71, 0
10, 60075, Note_on_c, 6, 67, 90
10, 60089, Note_on_c, 6, 67, 0
10, 60090, Note_on_c, 6, 69, 90
10, 60104, Note_on_c, 6, 69, 0
10, 60105, Note_on_c, 6, 71, 90
10, 60119, Note_on_c, 6, 71, 0
10, 60120, Note_on_c, 6, 73, 90
10, 60134, Note_on_c, 6, 73, 0
10, 60135, Note_on_c, 6, 69, 90
10, 60149, Note_on_c, 6, 69, 0
10, 60150, Note_on_c, 6, 71, 90
10, 60164, Note_on_c, 6, 71, 0
10, 60165, Note_on_c, 6, 73, 90
10, 60179, Note_on_c, 6, 73, 0
10, 60180, Note_on_c, 6, 74, 90
10, 60194, Note_on_c, 6, 74, 0
10, 60195, Note_on_c, 6, 71, 90
10, 60209, Note_on_c, 6, 71, 0
10, 60210, Note_on_c, 6, 73, 90
10, 60224, Note_on_c, 6, 73, 0
10, 60225, Note_on_c, 6, 74, 90
10, 60239, Note_on_c, 6, 74, 0
10, 60240, Note_on_c, 6, 76, 90
10, 60254, Note_on_c, 6, 76, 0
10, 60255, Note_on_c, 6, 73, 90
10, 60269, Note_on_c, 6, 73, 0
10, 60270, Note_on_c, 6, 74, 90
10, 60284, Note_on_c, 6, 74, 0
10, 60285, Note_on_c, 6, 76, 90
10, 60299, Note_on_c, 6, 76, 0
10, 60300, Note_on_c, 6, 78, 90
10, 60314, Note_on_c, 6, 78, 0
10, 60315, Note_on_c, 6, 74, 90
10, 60329, Note_on_c, 6, 74, 0
10, 60330, Note_on_c, 6, 76, 90
10, 60344, Note_on_c, 6, 76, 0
10, 60345, Note_on_c, 6, 78, 90
10, 60359, Note_on_c, 6, 78, 0
10, 60360, Note_on_c, 6, 79, 90
10, 60374, Note_on_c, 6, 79, 0
10, 60375, Note_on_c, 6, 76, 90
10, 60389, Note_on_c, 6, 76, 0
10, 60390, Note_on_c, 6, 78, 90
10, 60404, Note_on_c, 6, 78, 0
10, 60405, Note_on_c, 6, 79, 90
10, 60419, Note_on_c, 6, 79, 0
10, 60420, Note_on_c, 6, 81, 90
10, 60434, Note_on_c, 6, 81, 0
10, 60435, Note_on_c, 6, 78, 90
10, 60449, Note_on_c, 6, 78, 0
10, 60450, Note_on_c, 6, 79, 90
10, 60464, Note_on_c, 6, 79, 0
10, 60465, Note_on_c, 6, 81, 90
10, 60479, Note_on_c, 6, 81, 0
10, 60480, Note_on_c, 6, 83, 90
10, 60494, Note_on_c, 6, 83, 0
10, 60495, Note_on_c, 6, 79, 90
10, 60509, Note_on_c, 6, 79, 0
10, 60510, Note_on_c, 6, 81, 90
10, 60524, Note_on_c, 6, 81, 0
10, 60525, Note_on_c, 6, 83, 90
10, 60539, Note_on_c, 6, 83, 0
10, 60540, Note_on_c, 6, 85, 90
10, 60554, Note_on_c, 6, 85, 0
10, 60555, Note_on_c, 6, 81, 90
10, 60569, Note_on_c, 6, 81, 0
10, 60570, Note_on_c, 6, 83, 90
10, 60584, Note_on_c, 6, 83, 0
10, 60585, Note_on_c, 6, 85, 90
10, 60599, Note_on_c, 6, 85, 0
10, 60600, Note_on_c, 6, 86, 90
10, 60629, Note_on_c, 6, 86, 0
10, 60660, Note_on_c, 6, 69, 90
10, 60689, Note_on_c, 6, 69, 0
10, 60720, Note_on_c, 6, 73, 90
10, 60749, Note_on_c, 6, 73, 0
10, 60780, Note_on_c, 6, 74, 90
10, 60959, Note_on_c, 6, 74, 0
10, 75360, Note_on_c, 6, 64, 90
10, 75419, Note_on_c, 6, 64, 0
10, 75420, Note_on_c, 6, 69, 90
10, 75479, Note_on_c, 6, 69, 0
10, 75480, Note_on_c, 6, 72, 90
10, 75539, Note_on_c, 6, 72, 0
10, 75540, Note_on_c, 6, 71, 90
10, 75550, Note_on_c, 6, 71, 0
10, 75550, Note_on_c, 6, 72, 90
10, 75560, Note_on_c, 6, 72, 0
10, 75560, Note_on_c, 6, 71, 90
10, 75570, Note_on_c, 6, 71, 0
10, 75570, Note_on_c, 6, 72, 90
10, 75585, Note_on_c, 6, 72, 0
10, 75585, Note_on_c, 6, 71, 90
10, 75600, Note_on_c, 6, 71, 0
10, 75600, Note_on_c, 6, 72, 90
10, 75659, Note_on_c, 6, 72, 0
10, 75660, Note_on_c, 6, 68, 90
10, 75719, Note_on_c, 6, 68, 0
10, 75720, Note_on_c, 6, 69, 90
10, 75779, Note_on_c, 6, 69, 0
10, 75780, Note_on_c, 6, 67, 90
10, 75809, Note_on_c, 6, 67, 0
10, 75810, Note_on_c, 6, 65, 90
10, 75839, Note_on_c, 6, 65, 0
10, 75840, Note_on_c, 6, 64, 90
10, 75869, Note_on_c, 6, 64, 0
10, 75870, Note_on_c, 6, 62, 90
10, 75899, Note_on_c, 6, 62, 0
10, 75900, Note_on_c, 6, 67, 90
10, 75929, Note_on_c, 6, 67, 0
10, 75960, Note_on_c, 6, 64, 90
10, 75970, Note_on_c, 6, 64, 0
10, 75970, Note_on_c, 6, 65, 90
10, 75980, Note_on_c, 6, 65, 0
10, 75980, Note_on_c, 6, 64, 90
10, 76020, Note_on_c, 6, 64, 0
10, 76020, Note_on_c, 6, 62, 90
10, 76049, Note_on_c, 6, 62, 0
10, 76050, Note_on_c, 6, 60, 90
10, 76079, Note_on_c, 6, 60, 0
10, 76080, Note_on_c, 6, 72, 90
10, 76139, Note_on_c, 6, 72, 0
10, 76140, Note_on_c, 6, 71, 90
10, 76199, Note_on_c, 6, 71, 0
10, 76200, Note_on_c, 6, 72, 90
10, 76229, Note_on_c, 6, 72, 0
10, 76230, Note_on_c, 6, 71, 90
10, 76259, Note_on_c, 6, 71, 0
10, 76260, Note_on_c, 6, 69, 90
10, 76289, Note_on_c, 6, 69, 0
10, 76290, Note_on_c, 6, 68, 90
10, 76319, Note_on_c, 6, 68, 0
10, 76320, Note_on_c, 6, 69, 90
10, 76379, Note_on_c, 6, 69, 0
10, 76380, Note_on_c, 6, 71, 90
10, 76439, Note_on_c, 6, 71, 0
10, 76440, Note_on_c, 6, 72, 90
10, 76499, Note_on_c, 6, 72, 0
10, 76500, Note_on_c, 6, 74, 90
10, 76559, Note_on_c, 6, 74, 0
10, 76560, Note_on_c, 6, 72, 90
10, 76589, Note_on_c, 6, 72, 0
10, 76590, Note_on_c, 6, 71, 90
10, 76619, Note_on_c, 6, 71, 0
10, 76620, Note_on_c, 6, 72, 90
10, 76679, Note_on_c, 6, 72, 0
10, 76680, Note_on_c, 6, 72, 90
10, 76709, Note_on_c, 6, 72, 0
10, 76710, Note_on_c, 6, 71, 90
10, 76769, Note_on_c, 6, 71, 0
10, 76770, Note_on_c, 6, 71, 90
10, 76799, Note_on_c, 6, 71, 0
10, 76800, Note_on_c, 6, 76, 90
10, 76829, Note_on_c, 6, 76, 0
10, 76830, Note_on_c, 6, 74, 90
10, 76859, Note_on_c, 6, 74, 0
10, 76860, Note_on_c, 6, 73, 90
10, 76889, Note_on_c, 6, 73, 0
10, 76890, Note_on_c, 6, 76, 90
10, 76919, Note_on_c, 6, 76, 0
10, 76920, Note_on_c, 6, 73, 90
10, 76949, Note_on_c, 6, 73, 0
10, 76950, Note_on_c, 6, 69, 90
10, 76979, Note_on_c, 6, 69, 0
10, 76980, Note_on_c, 6, 64, 90
10, 77009, Note_on_c, 6, 64, 0
10, 77010, Note_on_c, 6, 67, 90
10, 77039, Note_on_c, 6, 67, 0
10, 77040, Note_on_c, 6, 65, 90
10, 77069, Note_on_c, 6, 65, 0
10, 77070, Note_on_c, 6, 69, 90
10, 77099, Note_on_c, 6, 69, 0
10, 77100, Note_on_c, 6, 62, 90
10, 77129, Note_on_c, 6, 62, 0
10, 77130, Note_on_c, 6, 69, 90
10, 77159, Note_on_c, 6, 69, 0
10, 77160, Note_on_c, 6, 74, 90
10, 77189, Note_on_c, 6, 74, 0
10, 77190, Note_on_c, 6, 72, 90
10, 77219, Note_on_c, 6, 72, 0
10, 77220, Note_on_c, 6, 71, 90
10, 77249, Note_on_c, 6, 71, 0
10, 77250, Note_on_c, 6, 74, 90
10, 77279, Note_on_c, 6, 74, 0
10, 77280, Note_on_c, 6, 71, 90
10, 77309, Note_on_c, 6, 71, 0
10, 77310, Note_on_c, 6, 67, 90
10, 77339, Note_on_c, 6, 67, 0
10, 77340, Note_on_c, 6, 62, 90
10, 77369, Note_on_c, 6, 62, 0
10, 77370, Note_on_c, 6, 65, 90
10, 77399, Note_on_c, 6, 65, 0
10, 77400, Note_on_c, 6, 64, 90
10, 77429, Note_on_c, 6, 64, 0
10, 77430, Note_on_c, 6, 67, 90
10, 77459, Note_on_c, 6, 67, 0
10, 77460, Note_on_c, 6, 60, 90
10, 77489, Note_on_c, 6, 60, 0
10, 77490, Note_on_c, 6, 67, 90
10, 77519, Note_on_c, 6, 67, 0
10, 77520, Note_on_c, 6, 72, 90
10, 77549, Note_on_c, 6, 72, 0
10, 77550, Note_on_c, 6, 71, 90
10, 77579, Note_on_c, 6, 71, 0
10, 77580, Note_on_c, 6, 69, 90
10, 77609, Note_on_c, 6, 69, 0
10, 77610, Note_on_c, 6, 68, 90
10, 77639, Note_on_c, 6, 68, 0
10, 77640, Note_on_c, 6, 69, 90
10, 77669, Note_on_c, 6, 69, 0
10, 77670, Note_on_c, 6, 68, 90
10, 77699, Note_on_c, 6, 68, 0
10, 77700, Note_on_c, 6, 69, 90
10, 77729, Note_on_c, 6, 69, 0
10, 77730, Note_on_c, 6, 77, 90
10, 77759, Note_on_c, 6, 77, 0
10, 77760, Note_on_c, 6, 76, 90
10, 77789, Note_on_c, 6, 76, 0
10, 77790, Note_on_c, 6, 75, 90
10, 77819, Note_on_c, 6, 75, 0
10, 77820, Note_on_c, 6, 76, 90
10, 77849, Note_on_c, 6, 76, 0
10, 77850, Note_on_c, 6, 75, 90
10, 77879, Note_on_c, 6, 75, 0
10, 77880, Note_on_c, 6, 76, 90
10, 77909, Note_on_c, 6, 76, 0
10, 77910, Note_on_c, 6, 80, 90
10, 77939, Note_on_c, 6, 80, 0
10, 77940, Note_on_c, 6, 81, 90
10, 77999, Note_on_c, 6, 81, 0
10, 78000, Note_on_c, 6, 72, 90
10, 78059, Note_on_c, 6, 72, 0
10, 78060, Note_on_c, 6, 71, 90
10, 78119, Note_on_c, 6, 71, 0
10, 78120, Note_on_c, 6, 69, 90
10, 78239, Note_on_c, 6, 69, 0
10, 78240, Note_on_c, 6, 64, 90
10, 78299, Note_on_c, 6, 64, 0
10, 78300, Note_on_c, 6, 69, 90
10, 78359, Note_on_c, 6, 69, 0
10, 78360, Note_on_c, 6, 72, 90
10, 78419, Note_on_c, 6, 72, 0
10, 78420, Note_on_c, 6, 71, 90
10, 78430, Note_on_c, 6, 71, 0
10, 78430, Note_on_c, 6, 72, 90
10, 78440, Note_on_c, 6, 72, 0
10, 78440, Note_on_c, 6, 71, 90
10, 78480, Note_on_c, 6, 71, 0
10, 78480, Note_on_c, 6, 72, 90
10, 78539, Note_on_c, 6, 72, 0
10, 78540, Note_on_c, 6, 68, 90
10, 78599, Note_on_c, 6, 68, 0
10, 78600, Note_on_c, 6, 69, 90
10, 78659, Note_on_c, 6, 69, 0
10, 78660, Note_on_c, 6, 67, 90
10, 78689, Note_on_c, 6, 67, 0
10, 78690, Note_on_c, 6, 65, 90
10, 78719, Note_on_c, 6, 65, 0
10, 78720, Note_on_c, 6, 64, 90
10, 78749, Note_on_c, 6, 64, 0
10, 78750, Note_on_c, 6, 62, 90
10, 78779, Note_on_c, 6, 62, 0
10, 78780, Note_on_c, 6, 67, 90
10, 78839, Note_on_c, 6, 67, 0
10, 78840, Note_on_c, 6, 64, 90
10, 78899, Note_on_c, 6, 64, 0
10, 78900, Note_on_c, 6, 62, 90
10, 78929, Note_on_c, 6, 62, 0
10, 78930, Note_on_c, 6, 60, 90
10, 78959, Note_on_c, 6, 60, 0
10, 78960, Note_on_c, 6, 72, 90
10, 79019, Note_on_c, 6, 72, 0
10, 79020, Note_on_c, 6, 71, 90
10, 79079, Note_on_c, 6, 71, 0
10, 79080, Note_on_c, 6, 72, 90
10, 79109, Note_on_c, 6, 72, 0
10, 79110, Note_on_c, 6, 71, 90
10, 79139, Note_on_c, 6, 71, 0
10, 79140, Note_on_c, 6, 69, 90
10, 79169, Note_on_c, 6, 69, 0
10, 79170, Note_on_c, 6, 68, 90
10, 79199, Note_on_c, 6, 68, 0
10, 79200, Note_on_c, 6, 69, 90
10, 79259, Note_on_c, 6, 69, 0
10, 79260, Note_on_c, 6, 71, 90
10, 79319, Note_on_c, 6, 71, 0
10, 79320, Note_on_c, 6, 72, 90
10, 79379, Note_on_c, 6, 72, 0
10, 79380, Note_on_c, 6, 74, 90
10, 79439, Note_on_c, 6, 74, 0
10, 79440, Note_on_c, 6, 72, 90
10, 79469, Note_on_c, 6, 72, 0
10, 79470, Note_on_c, 6, 71, 90
10, 79499, Note_on_c, 6, 71, 0
10, 79500, Note_on_c, 6, 72, 90
10, 79559, Note_on_c, 6, 72, 0
10, 79560, Note_on_c, 6, 71, 90
10, 79679, Note_on_c, 6, 71, 0
10, 79830, Note_on_c, 6, 71, 90
10, 79859, Note_on_c, 6, 71, 0
10, 79860, Note_on_c, 6, 76, 90
10, 79889, Note_on_c, 6, 76, 0
10, 79890, Note_on_c, 6, 74, 90
10, 79919, Note_on_c, 6, 74, 0
10, 79920, Note_on_c, 6, 73, 90
10, 79949, Note_on_c, 6, 73, 0
10, 79950, Note_on_c, 6, 76, 90
10, 79979, Note_on_c, 6, 76, 0
10, 79980, Note_on_c, 6, 73, 90
10, 80009, Note_on_c, 6, 73, 0
10, 80010, Note_on_c, 6, 69, 90
10, 80039, Note_on_c, 6, 69, 0
10, 80040, Note_on_c, 6, 64, 90
10, 80069, Note_on_c, 6, 64, 0
10, 80070, Note_on_c, 6, 67, 90
10, 80099, Note_on_c, 6, 67, 0
10, 80100, Note_on_c, 6, 65, 90
10, 80129, Note_on_c, 6, 65, 0
10, 80130, Note_on_c, 6, 69, 90
10, 80159, Note_on_c, 6, 69, 0
10, 80160, Note_on_c, 6, 62, 90
10, 80189, Note_on_c, 6, 62, 0
10, 80190, Note_on_c, 6, 69, 90
10, 80219, Note_on_c, 6, 69, 0
10, 80220, Note_on_c, 6, 74, 90
10, 80249, Note_on_c, 6, 74, 0
10, 80250, Note_on_c, 6, 72, 90
10, 80279, Note_on_c, 6, 72, 0
10, 80280, Note_on_c, 6, 71, 90
10, 80309, Note_on_c, 6, 71, 0
10, 80310, Note_on_c, 6, 74, 90
10, 80339, Note_on_c, 6, 74, 0
10, 80340, Note_on_c, 6, 71, 90
10, 80369, Note_on_c, 6, 71, 0
10, 80370, Note_on_c, 6, 67, 90
10, 80399, Note_on_c, 6, 67, 0
10, 80400, Note_on_c, 6, 62, 90
10, 80429, Note_on_c, 6, 62, 0
10, 80430, Note_on_c, 6, 65, 90
10, 80459, Note_on_c, 6, 65, 0
10, 80460, Note_on_c, 6, 64, 90
10, 80489, Note_on_c, 6, 64, 0
10, 80490, Note_on_c, 6, 67, 90
10, 80519, Note_on_c, 6, 67, 0
10, 80520, Note_on_c, 6, 60, 90
10, 80579, Note_on_c, 6, 60, 0
10, 80760, Note_on_c, 6, 60, 90
10, 80819, Note_on_c, 6, 60, 0
10, 80820, Note_on_c, 6, 67, 90
10, 80879, Note_on_c, 6, 67, 0
10, 80880, Note_on_c, 6, 71, 90
10, 80939, Note_on_c, 6, 71, 0
10, 80940, Note_on_c, 6, 69, 90
10, 80950, Note_on_c, 6, 69, 0
10, 80950, Note_on_c, 6, 71, 90
10, 80960, Note_on_c, 6, 71, 0
10, 80960, Note_on_c, 6, 69, 90
10, 81000, Note_on_c, 6, 69, 0
10, 81000, Note_on_c, 6, 71, 90
10, 81059, Note_on_c, 6, 71, 0
10, 81060, Note_on_c, 6, 67, 90
10, 81119, Note_on_c, 6, 67, 0
10, 81480, Note_on_c, 6, 62, 90
10, 81539, Note_on_c, 6, 62, 0
10, 81540, Note_on_c, 6, 69, 90
10, 81599, Note_on_c, 6, 69, 0
10, 81600, Note_on_c, 6, 72, 90
10, 81659, Note_on_c, 6, 72, 0
10, 81660, Note_on_c, 6, 71, 90
10, 81719, Note_on_c, 6, 71, 0
10, 81720, Note_on_c, 6, 72, 90
10, 81779, Note_on_c, 6, 72, 0
10, 81780, Note_on_c, 6, 69, 90
10, 81809, Note_on_c, 6, 69, 0
10, 81810, Note_on_c, 6, 72, 90
10, 81839, Note_on_c, 6, 72, 0
10, 81840, Note_on_c, 6, 71, 90
10, 81869, Note_on_c, 6, 71, 0
10, 81870, Note_on_c, 6, 74, 90
10, 81899, Note_on_c, 6, 74, 0
10, 81900, Note_on_c, 6, 72, 90
10, 81929, Note_on_c, 6, 72, 0
10, 81930, Note_on_c, 6, 76, 90
10, 81959, Note_on_c, 6, 76, 0
10, 81960, Note_on_c, 6, 72, 90
10, 81989, Note_on_c, 6, 72, 0
10, 81990, Note_on_c, 6, 69, 90
10, 82019, Note_on_c, 6, 69, 0
10, 82020, Note_on_c, 6, 68, 90
10, 82049, Note_on_c, 6, 68, 0
10, 82050, Note_on_c, 6, 71, 90
10, 82079, Note_on_c, 6, 71, 0
10, 82080, Note_on_c, 6, 69, 90
10, 82109, Note_on_c, 6, 69, 0
10, 82110, Note_on_c, 6, 72, 90
10, 82139, Note_on_c, 6, 72, 0
10, 82140, Note_on_c, 6, 76, 90
10, 82169, Note_on_c, 6, 76, 0
10, 82170, Note_on_c, 6, 74, 90
10, 82199, Note_on_c, 6, 74, 0
10, 82200, Note_on_c, 6, 72, 90
10, 82229, Note_on_c, 6, 72, 0
10, 82230, Note_on_c, 6, 71, 90
10, 82259, Note_on_c, 6, 71, 0
10, 82260, Note_on_c, 6, 69, 90
10, 82319, Note_on_c, 6, 69, 0
10, 82320, Note_on_c, 6, 74, 90
10, 82379, Note_on_c, 6, 74, 0
10, 82380, Note_on_c, 6, 71, 90
10, 82390, Note_on_c, 6, 71, 0
10, 82390, Note_on_c, 6, 72, 90
10, 82400, Note_on_c, 6, 72, 0
10, 82400, Note_on_c, 6, 71, 90
10, 82440, Note_on_c, 6, 71, 0
10, 82440, Note_on_c, 6, 72, 90
10, 82469, Note_on_c, 6, 72, 0
10, 82470, Note_on_c, 6, 67, 90
10, 82499, Note_on_c, 6, 67, 0
10, 82500, Note_on_c, 6, 64, 90
10, 82529, Note_on_c, 6, 64, 0
10, 82530, Note_on_c, 6, 67, 90
10, 82559, Note_on_c, 6, 67, 0
10, 82560, Note_on_c, 6, 72, 90
10, 82589, Note_on_c, 6, 72, 0
10, 82590, Note_on_c, 6, 76, 90
10, 82619, Note_on_c, 6, 76, 0
10, 82620, Note_on_c, 6, 74, 90
10, 82649, Note_on_c, 6, 74, 0
10, 82650, Note_on_c, 6, 77, 90
10, 82679, Note_on_c, 6, 77, 0
10, 82680, Note_on_c, 6, 76, 90
10, 82709, Note_on_c, 6, 76, 0
10, 82710, Note_on_c, 6, 74, 90
10, 82739, Note_on_c, 6, 74, 0
10, 82740, Note_on_c, 6, 72, 90
10, 82769, Note_on_c, 6, 72, 0
10, 82770, Note_on_c, 6, 71, 90
10, 82799, Note_on_c, 6, 71, 0
10, 82800, Note_on_c, 6, 69, 90
10, 82829, Note_on_c, 6, 69, 0
10, 82830, Note_on_c, 6, 67, 90
10, 82859, Note_on_c, 6, 67, 0
10, 82860, Note_on_c, 6, 65, 90
10, 82889, Note_on_c, 6, 65, 0
10, 82890, Note_on_c, 6, 64, 90
10, 82919, Note_on_c, 6, 64, 0
10, 82920, Note_on_c, 6, 62, 90
10, 82949, Note_on_c, 6, 62, 0
10, 82950, Note_on_c, 6, 60, 90
10, 82979, Note_on_c, 6, 60, 0
10, 82980, Note_on_c, 6, 59, 90
10, 83039, Note_on_c, 6, 59, 0
10, 83040, Note_on_c, 6, 68, 90
10, 83099, Note_on_c, 6, 68, 0
10, 83100, Note_on_c, 6, 69, 90
10, 83189, Note_on_c, 6, 69, 0
10, 83190, Note_on_c, 6, 66, 90
10, 83219, Note_on_c, 6, 66, 0
10, 83220, Note_on_c, 6, 68, 90
10, 83249, Note_on_c, 6, 68, 0
10, 83250, Note_on_c, 6, 71, 90
10, 83279, Note_on_c, 6, 71, 0
10, 83280, Note_on_c, 6, 74, 90
10, 83309, Note_on_c, 6, 74, 0
10, 83340, Note_on_c, 6, 73, 90
10, 83399, Note_on_c, 6, 73, 0
10, 83400, Note_on_c, 6, 76, 90
10, 83459, Note_on_c, 6, 76, 0
10, 83460, Note_on_c, 6, 67, 90
10, 83519, Note_on_c, 6, 67, 0
10, 83520, Note_on_c, 6, 65, 90
10, 83530, Note_on_c, 6, 65, 0
10, 83530, Note_on_c, 6, 67, 90
10, 83540, Note_on_c, 6, 67, 0
10, 83540, Note_on_c, 6, 65, 90
10, 83580, Note_on_c, 6, 65, 0
10, 83580, Note_on_c, 6, 64, 90
10, 83609, Note_on_c, 6, 64, 0
10, 83610, Note_on_c, 6, 62, 90
10, 83639, Note_on_c, 6, 62, 0
10, 83640, Note_on_c, 6, 72, 90
10, 83699, Note_on_c, 6, 72, 0
10, 83700, Note_on_c, 6, 71, 90
10, 83759, Note_on_c, 6, 71, 0
10, 83760, Note_on_c, 6, 74, 90
10, 83819, Note_on_c, 6, 74, 0
10, 83820, Note_on_c, 6, 65, 90
10, 83879, Note_on_c, 6, 65, 0
10, 83880, Note_on_c, 6, 64, 90
10, 83890, Note_on_c, 6, 64, 0
10, 83890, Note_on_c, 6, 65, 90
10, 83900, Note_on_c, 6, 65, 0
10, 83900, Note_on_c, 6, 64, 90
10, 83940, Note_on_c, 6, 64, 0
10, 83940, Note_on_c, 6, 62, 90
10, 83969, Note_on_c, 6, 62, 0
10, 83970, Note_on_c, 6, 60, 90
10, 83999, Note_on_c, 6, 60, 0
10, 84000, Note_on_c, 6, 64, 90
10, 84059, Note_on_c, 6, 64, 0
10, 84060, Note_on_c, 6, 74, 90
10, 84119, Note_on_c, 6, 74, 0
10, 84120, Note_on_c, 6, 72, 90
10, 84179, Note_on_c, 6, 72, 0
10, 84180, Note_on_c, 6, 71, 90
10, 84239, Note_on_c, 6, 71, 0
10, 84240, Note_on_c, 6, 76, 90
10, 84299, Note_on_c, 6, 76, 0
10, 84300, Note_on_c, 6, 69, 90
10, 84359, Note_on_c, 6, 69, 0
10, 84360, Note_on_c, 6, 71, 90
10, 84419, Note_on_c, 6, 71, 0
10, 84420, Note_on_c, 6, 64, 90
10, 84479, Note_on_c, 6, 64, 0
10, 84480, Note_on_c, 6, 72, 90
10, 84509, Note_on_c, 6, 72, 0
10, 84510, Note_on_c, 6, 71, 90
10, 84539, Note_on_c, 6, 71, 0
10, 84540, Note_on_c, 6, 69, 90
10, 84569, Note_on_c, 6, 69, 0
10, 84570, Note_on_c, 6, 68, 90
10, 84599, Note_on_c, 6, 68, 0
10, 84600, Note_on_c, 6, 69, 90
10, 84659, Note_on_c, 6, 69, 0
10, 84870, Note_on_c, 6, 65, 90
10, 84899, Note_on_c, 6, 65, 0
10, 84900, Note_on_c, 6, 70, 90
10, 84929, Note_on_c, 6, 70, 0
10, 84930, Note_on_c, 6, 69, 90
10, 84959, Note_on_c, 6, 69, 0
10, 84960, Note_on_c, 6, 67, 90
10, 84989, Note_on_c, 6, 67, 0
10, 84990, Note_on_c, 6, 70, 90
10, 85019, Note_on_c, 6, 70, 0
10, 85020, Note_on_c, 6, 67, 90
10, 85049, Note_on_c, 6, 67, 0
10, 85050, Note_on_c, 6, 64, 90
10, 85079, Note_on_c, 6, 64, 0
10, 85080, Note_on_c, 6, 58, 90
10, 85109, Note_on_c, 6, 58, 0
10, 85110, Note_on_c, 6, 62, 90
10, 85139, Note_on_c, 6, 62, 0
10, 85140, Note_on_c, 6, 61, 90
10, 85169, Note_on_c, 6, 61, 0
10, 85170, Note_on_c, 6, 64, 90
10, 85199, Note_on_c, 6, 64, 0
10, 85200, Note_on_c, 6, 57, 90
10, 85229, Note_on_c, 6, 57, 0
10, 85230, Note_on_c, 6, 61, 90
10, 85259, Note_on_c, 6, 61, 0
10, 85260, Note_on_c, 6, 64, 90
10, 85289, Note_on_c, 6, 64, 0
10, 85290, Note_on_c, 6, 67, 90
10, 85319, Note_on_c, 6, 67, 0
10, 85320, Note_on_c, 6, 65, 90
10, 85349, Note_on_c, 6, 65, 0
10, 85350, Note_on_c, 6, 69, 90
10, 85379, Note_on_c, 6, 69, 0
10, 85380, Note_on_c, 6, 65, 90
10, 85409, Note_on_c, 6, 65, 0
10, 85410, Note_on_c, 6, 62, 90
10, 85439, Note_on_c, 6, 62, 0
10, 85440, Note_on_c, 6, 57, 90
10, 85469, Note_on_c, 6, 57, 0
10, 85470, Note_on_c, 6, 60, 90
10, 85499, Note_on_c, 6, 60, 0
10, 85500, Note_on_c, 6, 59, 90
10, 85529, Note_on_c, 6, 59, 0
10, 85530, Note_on_c, 6, 62, 90
10, 85559, Note_on_c, 6, 62, 0
10, 85560, Note_on_c, 6, 65, 90
10, 85619, Note_on_c, 6, 65, 0
10, 85800, Note_on_c, 6, 67, 90
10, 85859, Note_on_c, 6, 67, 0
10, 85860, Note_on_c, 6, 66, 90
10, 85919, Note_on_c, 6, 66, 0
10, 85920, Note_on_c, 6, 69, 90
10, 85979, Note_on_c, 6, 69, 0
10, 85980, Note_on_c, 6, 72, 90
10, 86039, Note_on_c, 6, 72, 0
10, 86040, Note_on_c, 6, 72, 90
10, 86050, Note_on_c, 6, 72, 0
10, 86050, Note_on_c, 6, 74, 90
10, 86060, Note_on_c, 6, 74, 0
10, 86060, Note_on_c, 6, 72, 90
10, 86100, Note_on_c, 6, 72, 0
10, 86100, Note_on_c, 6, 71, 90
10, 86159, Note_on_c, 6, 71, 0
10, 86520, Note_on_c, 6, 74, 90
10, 86579, Note_on_c, 6, 74, 0
10, 86580, Note_on_c, 6, 73, 90
10, 86639, Note_on_c, 6, 73, 0
10, 86640, Note_on_c, 6, 76, 90
10, 86699, Note_on_c, 6, 76, 0
10, 86700, Note_on_c, 6, 67, 90
10, 86759, Note_on_c, 6, 67, 0
10, 86760, Note_on_c, 6, 65, 90
10, 86789, Note_on_c, 6, 65, 0
10, 86790, Note_on_c, 6, 69, 90
10, 86819, Note_on_c, 6, 69, 0
10, 86820, Note_on_c, 6, 65, 90
10, 86849, Note_on_c, 6, 65, 0
10, 86850, Note_on_c, 6, 62, 90
10, 86879, Note_on_c, 6, 62, 0
10, 86880, Note_on_c, 6, 57, 90
10, 86909, Note_on_c, 6, 57, 0
10, 86910, Note_on_c, 6, 62, 90
10, 86939, Note_on_c, 6, 62, 0
10, 86940, Note_on_c, 6, 64, 90
10, 86969, Note_on_c, 6, 64, 0
10, 86970, Note_on_c, 6, 67, 90
10, 86999, Note_on_c, 6, 67, 0
10, 87000, Note_on_c, 6, 64, 90
10, 87029, Note_on_c, 6, 64, 0
10, 87030, Note_on_c, 6, 61, 90
10, 87059, Note_on_c, 6, 61, 0
10, 87060, Note_on_c, 6, 57, 90
10, 87089, Note_on_c, 6, 57, 0
10, 87090, Note_on_c, 6, 61, 90
10, 87119, Note_on_c, 6, 61, 0
10, 87120, Note_on_c, 6, 62, 90
10, 87149, Note_on_c, 6, 62, 0
10, 87150, Note_on_c, 6, 65, 90
10, 87179, Note_on_c, 6, 65, 0
10, 87180, Note_on_c, 6, 57, 90
10, 87209, Note_on_c, 6, 57, 0
10, 87210, Note_on_c, 6, 62, 90
10, 87239, Note_on_c, 6, 62, 0
10, 87240, Note_on_c, 6, 65, 90
10, 87269, Note_on_c, 6, 65, 0
10, 87270, Note_on_c, 6, 69, 90
10, 87299, Note_on_c, 6, 69, 0
10, 87300, Note_on_c, 6, 71, 90
10, 87329, Note_on_c, 6, 71, 0
10, 87330, Note_on_c, 6, 74, 90
10, 87359, Note_on_c, 6, 74, 0
10, 87360, Note_on_c, 6, 71, 90
10, 87389, Note_on_c, 6, 71, 0
10, 87390, Note_on_c, 6, 67, 90
10, 87419, Note_on_c, 6, 67, 0
10, 87420, Note_on_c, 6, 62, 90
10, 87449, Note_on_c, 6, 62, 0
10, 87450, Note_on_c, 6, 65, 90
10, 87479, Note_on_c, 6, 65, 0
10, 87480, Note_on_c, 6, 64, 90
10, 87509, Note_on_c, 6, 64, 0
10, 87510, Note_on_c, 6, 67, 90
10, 87539, Note_on_c, 6, 67, 0
10, 87540, Note_on_c, 6, 60, 90
10, 87569, Note_on_c, 6, 60, 0
10, 87570, Note_on_c, 6, 64, 90
10, 87599, Note_on_c, 6, 64, 0
10, 87600, Note_on_c, 6, 67, 90
10, 87629, Note_on_c, 6, 67, 0
10, 87630, Note_on_c, 6, 70, 90
10, 87659, Note_on_c, 6, 70, 0
10, 87660, Note_on_c, 6, 69, 90
10, 87689, Note_on_c, 6, 69, 0
10, 87690, Note_on_c, 6, 68, 90
10, 87719, Note_on_c, 6, 68, 0
10, 87720, Note_on_c, 6, 69, 90
10, 87749, Note_on_c, 6, 69, 0
10, 87750, Note_on_c, 6, 68, 90
10, 87779, Note_on_c, 6, 68, 0
10, 87780, Note_on_c, 6, 69, 90
10, 87809, Note_on_c, 6, 69, 0
10, 87810, Note_on_c, 6, 77, 90
10, 87839, Note_on_c, 6, 77, 0
10, 87840, Note_on_c, 6, 76, 90
10, 87869, Note_on_c, 6, 76, 0
10, 87870, Note_on_c, 6, 75, 90
10, 87899, Note_on_c, 6, 75, 0
10, 87900, Note_on_c, 6, 76, 90
10, 87929, Note_on_c, 6, 76, 0
10, 87930, Note_on_c, 6, 75, 90
10, 87959, Note_on_c, 6, 75, 0
10, 87960, Note_on_c, 6, 76, 90
10, 87989, Note_on_c, 6, 76, 0
10, 87990, Note_on_c, 6, 80, 90
10, 88019, Note_on_c, 6, 80, 0
10, 88020, Note_on_c, 6, 81, 90
10, 88079, Note_on_c, 6, 81, 0
10, 88080, Note_on_c, 6, 60, 90
10, 88139, Note_on_c, 6, 60, 0
10, 88140, Note_on_c, 6, 59, 90
10, 88150, Note_on_c, 6, 59, 0
10, 88150, Note_on_c, 6, 60, 90
10, 88160, Note_on_c, 6, 60, 0
10, 88160, Note_on_c, 6, 59, 90
10, 88200, Note_on_c, 6, 59, 0
10, 88200, Note_on_c, 6, 57, 90
10, 88319, Note_on_c, 6, 57, 0
10, 88320, Note_on_c, 6, 64, 90
10, 88379, Note_on_c, 6, 64, 0
10, 88380, Note_on_c, 6, 69, 90
10, 88439, Note_on_c, 6, 69, 0
10, 88440, Note_on_c, 6, 72, 90
10, 88499, Note_on_c, 6, 72, 0
10, 88500, Note_on_c, 6, 71, 90
10, 88510, Note_on_c, 6, 71, 0
10, 88510, Note_on_c, 6, 72, 90
10, 88520, Note_on_c, 6, 72, 0
10, 88520, Note_on_c, 6, 71, 90
10, 88560, Note_on_c, 6, 71, 0
10, 88560, Note_on_c, 6, 72, 90
10, 88619, Note_on_c, 6, 72, 0
10, 88620, Note_on_c, 6, 68, 90
10, 88679, Note_on_c, 6, 68, 0
10, 88680, Note_on_c, 6, 69, 90
10, 88739, Note_on_c, 6, 69, 0
10, 88740, Note_on_c, 6, 67, 90
10, 88769, Note_on_c, 6, 67, 0
10, 88770, Note_on_c, 6, 65, 90
10, 88799, Note_on_c, 6, 65, 0
10, 88800, Note_on_c, 6, 64, 90
10, 88829, Note_on_c, 6, 64, 0
10, 88830, Note_on_c, 6, 62, 90
10, 88859, Note_on_c, 6, 62, 0
10, 88860, Note_on_c, 6, 67, 90
10, 88889, Note_on_c, 6, 67, 0
10, 88920, Note_on_c, 6, 64, 90
10, 88930, Note_on_c, 6, 64, 0
10, 88930, Note_on_c, 6, 65, 90
10, 88940, Note_on_c, 6, 65, 0
10, 88940, Note_on_c, 6, 64, 90
10, 88980, Note_on_c, 6, 64, 0
10, 88980, Note_on_c, 6, 62, 90
10, 89009, Note_on_c, 6, 62, 0
10, 89010, Note_on_c, 6, 60, 90
10, 89039, Note_on_c, 6, 60, 0
10, 89040, Note_on_c, 6, 72, 90
10, 89099, Note_on_c, 6, 72, 0
10, 89100, Note_on_c, 6, 71, 90
10, 89159, Note_on_c, 6, 71, 0
10, 89160, Note_on_c, 6, 72, 90
10, 89189, Note_on_c, 6, 72, 0
10, 89190, Note_on_c, 6, 71, 90
10, 89219, Note_on_c, 6, 71, 0
10, 89220, Note_on_c, 6, 69, 90
10, 89249, Note_on_c, 6, 69, 0
10, 89250, Note_on_c, 6, 68, 90
10, 89279, Note_on_c, 6, 68, 0
10, 89280, Note_on_c, 6, 69, 90
10, 89339, Note_on_c, 6, 69, 0
10, 89340, Note_on_c, 6, 71, 90
10, 89399, Note_on_c, 6, 71, 0
10, 89400, Note_on_c, 6, 72, 90
10, 89459, Note_on_c, 6, 72, 0
10, 89460, Note_on_c, 6, 74, 90
10, 89519, Note_on_c, 6, 74, 0
10, 89520, Note_on_c, 6, 72, 90
10, 89549, Note_on_c, 6, 72, 0
10, 89550, Note_on_c, 6, 71, 90
10, 89579, Note_on_c, 6, 71, 0
10, 89580, Note_on_c, 6, 72, 90
10, 89639, Note_on_c, 6, 72, 0
10, 89640, Note_on_c, 6, 72, 90
10, 89669, Note_on_c, 6, 72, 0
10, 89670, Note_on_c, 6, 71, 90
10, 89729, Note_on_c, 6, 71, 0
10, 89730, Note_on_c, 6, 71, 90
10, 89759, Note_on_c, 6, 71, 0
10, 89760, Note_on_c, 6, 76, 90
10, 89789, Note_on_c, 6, 76, 0
10, 89790, Note_on_c, 6, 74, 90
10, 89819, Note_on_c, 6, 74, 0
10, 89820, Note_on_c, 6, 73, 90
10, 89849, Note_on_c, 6, 73, 0
10, 89850, Note_on_c, 6, 76, 90
10, 89879, Note_on_c, 6, 76, 0
10, 89880, Note_on_c, 6, 73, 90
10, 89909, Note_on_c, 6, 73, 0
10, 89910, Note_on_c, 6, 69, 90
10, 89939, Note_on_c, 6, 69, 0
10, 89940, Note_on_c, 6, 64, 90
10, 89969, Note_on_c, 6, 64, 0
10, 89970, Note_on_c, 6, 67, 90
10, 89999, Note_on_c, 6, 67, 0
10, 90000, Note_on_c, 6, 65, 90
10, 90029, Note_on_c, 6, 65, 0
10, 90030, Note_on_c, 6, 69, 90
10, 90059, Note_on_c, 6, 69, 0
10, 90060, Note_on_c, 6, 62, 90
10, 90089, Note_on_c, 6, 62, 0
10, 90090, Note_on_c, 6, 69, 90
10, 90119, Note_on_c, 6, 69, 0
10, 90120, Note_on_c, 6, 74, 90
10, 90149, Note_on_c, 6, 74, 0
10, 90150, Note_on_c, 6, 72, 90
10, 90179, Note_on_c, 6, 72, 0
10, 90180, Note_on_c, 6, 71, 90
10, 90209, Note_on_c, 6, 71, 0
10, 90210, Note_on_c, 6, 74, 90
10, 90239, Note_on_c, 6, 74, 0
10, 90240, Note_on_c, 6, 71, 90
10, 90269, Note_on_c, 6, 71, 0
10, 90270, Note_on_c, 6, 67, 90
10, 90299, Note_on_c, 6, 67, 0
10, 90300, Note_on_c, 6, 62, 90
10, 90329, Note_on_c, 6, 62, 0
10, 90330, Note_on_c, 6, 65, 90
10, 90359, Note_on_c, 6, 65, 0
10, 90360, Note_on_c, 6, 64, 90
10, 90389, Note_on_c, 6, 64, 0
10, 90390, Note_on_c, 6, 67, 90
10, 90419, Note_on_c, 6, 67, 0
10, 90420, Note_on_c, 6, 60, 90
10, 90449, Note_on_c, 6, 60, 0
10, 90450, Note_on_c, 6, 67, 90
10, 90479, Note_on_c, 6, 67, 0
10, 90480, Note_on_c, 6, 72, 90
10, 90509, Note_on_c, 6, 72, 0
10, 90510, Note_on_c, 6, 71, 90
10, 90539, Note_on_c, 6, 71, 0
10, 90540, Note_on_c, 6, 69, 90
10, 90569, Note_on_c, 6, 69, 0
10, 90570, Note_on_c, 6, 68, 90
10, 90599, Note_on_c, 6, 68, 0
10, 90600, Note_on_c, 6, 69, 90
10, 90629, Note_on_c, 6, 69, 0
10, 90630, Note_on_c, 6, 68, 90
10, 90659, Note_on_c, 6, 68, 0
10, 90660, Note_on_c, 6, 69, 90
10, 90689, Note_on_c, 6, 69, 0
10, 90690, Note_on_c, 6, 77, 90
10, 90719, Note_on_c, 6, 77, 0
10, 90720, Note_on_c, 6, 76, 90
10, 90749, Note_on_c, 6, 76, 0
10, 90750, Note_on_c, 6, 75, 90
10, 90779, Note_on_c, 6, 75, 0
10, 90780, Note_on_c, 6, 76, 90
10, 90809, Note_on_c, 6, 76, 0
10, 90810, Note_on_c, 6, 75, 90
10, 90839, Note_on_c, 6, 75, 0
10, 90840, Note_on_c, 6, 76, 90
10, 90869, Note_on_c, 6, 76, 0
10, 90870, Note_on_c, 6, 80, 90
10, 90899, Note_on_c, 6, 80, 0
10, 90900, Note_on_c, 6, 81, 90
10, 90959, Note_on_c, 6, 81, 0
10, 90960, Note_on_c, 6, 60, 90
10, 91019, Note_on_c, 6, 60, 0
10, 91020, Note_on_c, 6, 59, 90
10, 91030, Note_on_c, 6, 59, 0
10, 91030, Note_on_c, 6, 60, 90
10, 91040, Note_on_c, 6, 60, 0
10, 91040, Note_on_c, 6, 59, 90
10, 91080, Note_on_c, 6, 59, 0
10, 91080, Note_on_c, 6, 57, 90
10, 91259, Note_on_c, 6, 57, 0
10, 93690, Note_on_c, 6, 66, 90
10, 93719, Note_on_c, 6, 66, 0
10, 93720, Note_on_c, 6, 71, 90
10, 93749, Note_on_c, 6, 71, 0
10, 93750, Note_on_c, 6, 69, 90
10, 93779, Note_on_c, 6, 69, 0
10, 93780, Note_on_c, 6, 67, 90
10, 93809, Note_on_c, 6, 67, 0
10, 93810, Note_on_c, 6, 71, 90
10, 93839, Note_on_c, 6, 71, 0
10, 93840, Note_on_c, 6, 67, 90
10, 93869, Note_on_c, 6, 67, 0
10, 93870, Note_on_c, 6, 64, 90
10, 93899, Note_on_c, 6, 64, 0
10, 93900, Note_on_c, 6, 63, 90
10, 93929, Note_on_c, 6, 63, 0
10, 93930, Note_on_c, 6, 66, 90
10, 93959, Note_on_c, 6, 66, 0
10, 93960, Note_on_c, 6, 64, 90
10, 93989, Note_on_c, 6, 64, 0
10, 93990, Note_on_c, 6, 67, 90
10, 94019, Note_on_c, 6, 67, 0
10, 94020, Note_on_c, 6, 66, 90
10, 94049, Note_on_c, 6, 66, 0
10, 94050, Note_on_c, 6, 69, 90
10, 94079, Note_on_c, 6, 69, 0
10, 94080, Note_on_c, 6, 67, 90
10, 94109, Note_on_c, 6, 67, 0
10, 94110, Note_on_c, 6, 71, 90
10, 94139, Note_on_c, 6, 71, 0
10, 94140, Note_on_c, 6, 76, 90
10, 94169, Note_on_c, 6, 76, 0
10, 94170, Note_on_c, 6, 74, 90
10, 94199, Note_on_c, 6, 74, 0
10, 94200, Note_on_c, 6, 72, 90
10, 94229, Note_on_c, 6, 72, 0
10, 94230, Note_on_c, 6, 71, 90
10, 94259, Note_on_c, 6, 71, 0
10, 94260, Note_on_c, 6, 69, 90
10, 94289, Note_on_c, 6, 69, 0
10, 94290, Note_on_c, 6, 68, 90
10, 94319, Note_on_c, 6, 68, 0
10, 94320, Note_on_c, 6, 69, 90
10, 94349, Note_on_c, 6, 69, 0
10, 94350, Note_on_c, 6, 64, 90
10, 94379, Note_on_c, 6, 64, 0
10, 94380, Note_on_c, 6, 60, 90
10, 94409, Note_on_c, 6, 60, 0
10, 94410, Note_on_c, 6, 64, 90
10, 94439, Note_on_c, 6, 64, 0
10, 94440, Note_on_c, 6, 69, 90
10, 94469, Note_on_c, 6, 69, 0
10, 94470, Note_on_c, 6, 67, 90
10, 94499, Note_on_c, 6, 67, 0
10, 94500, Note_on_c, 6, 66, 90
10, 94529, Note_on_c, 6, 66, 0
10, 94530, Note_on_c, 6, 69, 90
10, 94559, Note_on_c, 6, 69, 0
10, 94560, Note_on_c, 6, 66, 90
10, 94589, Note_on_c, 6, 66, 0
10, 94590, Note_on_c, 6, 62, 90
10, 94619, Note_on_c, 6, 62, 0
10, 94620, Note_on_c, 6, 61, 90
10, 94649, Note_on_c, 6, 61, 0
10, 94650, Note_on_c, 6, 64, 90
10, 94679, Note_on_c, 6, 64, 0
10, 94680, Note_on_c, 6, 62, 90
10, 94709, Note_on_c, 6, 62, 0
10, 94710, Note_on_c, 6, 66, 90
10, 94739, Note_on_c, 6, 66, 0
10, 94740, Note_on_c, 6, 64, 90
10, 94769, Note_on_c, 6, 64, 0
10, 94770, Note_on_c, 6, 67, 90
10, 94799, Note_on_c, 6, 67, 0
10, 94800, Note_on_c, 6, 66, 90
10, 94829, Note_on_c, 6, 66, 0
10, 94830, Note_on_c, 6, 69, 90
10, 94859, Note_on_c, 6, 69, 0
10, 94860, Note_on_c, 6, 74, 90
10, 94889, Note_on_c, 6, 74, 0
10, 94890, Note_on_c, 6, 72, 90
10, 94919, Note_on_c, 6, 72, 0
10, 94920, Note_on_c, 6, 71, 90
10, 94949, Note_on_c, 6, 71, 0
10, 94950, Note_on_c, 6, 69, 90
10, 94979, Note_on_c, 6, 69, 0
10, 94980, Note_on_c, 6, 67, 90
10, 95009, Note_on_c, 6, 67, 0
10, 95010, Note_on_c, 6, 66, 90
10, 95039, Note_on_c, 6, 66, 0
10, 95040, Note_on_c, 6, 67, 90
10, 95069, Note_on_c, 6, 67, 0
10, 95070, Note_on_c, 6, 62, 90
10, 95099, Note_on_c, 6, 62, 0
10, 95100, Note_on_c, 6, 59, 90
10, 95129, Note_on_c, 6, 59, 0
10, 95130, Note_on_c, 6, 62, 90
10, 95159, Note_on_c, 6, 62, 0
10, 95160, Note_on_c, 6, 67, 90
10, 95219, Note_on_c, 6, 67, 0
10, 95880, Note_on_c, 6, 59, 90
10, 95939, Note_on_c, 6, 59, 0
10, 95940, Note_on_c, 6, 64, 90
10, 95999, Note_on_c, 6, 64, 0
10, 96000, Note_on_c, 6, 67, 90
10, 96059, Note_on_c, 6, 67, 0
10, 96060, Note_on_c, 6, 66, 90
10, 96070, Note_on_c, 6, 66, 0
10, 96070, Note_on_c, 6, 67, 90
10, 96080, Note_on_c, 6, 67, 0
10, 96080, Note_on_c, 6, 66, 90
10, 96120, Note_on_c, 6, 66, 0
10, 96120, Note_on_c, 6, 67, 90
10, 96179, Note_on_c, 6, 67, 0
10, 96180, Note_on_c, 6, 63, 90
10, 96239, Note_on_c, 6, 63, 0
10, 96240, Note_on_c, 6, 64, 90
10, 96299, Note_on_c, 6, 64, 0
10, 96300, Note_on_c, 6, 62, 90
10, 96329, Note_on_c, 6, 62, 0
10, 96330, Note_on_c, 6, 60, 90
10, 96359, Note_on_c, 6, 60, 0
10, 96360, Note_on_c, 6, 59, 90
10, 96389, Note_on_c, 6, 59, 0
10, 96390, Note_on_c, 6, 57, 90
10, 96419, Note_on_c, 6, 57, 0
10, 96420, Note_on_c, 6, 62, 90
10, 96449, Note_on_c, 6, 62, 0
10, 96480, Note_on_c, 6, 59, 90
10, 96539, Note_on_c, 6, 59, 0
10, 96540, Note_on_c, 6, 55, 90
10, 96599, Note_on_c, 6, 55, 0
10, 96600, Note_on_c, 6, 67, 90
10, 96659, Note_on_c, 6, 67, 0
10, 96660, Note_on_c, 6, 66, 90
10, 96719, Note_on_c, 6, 66, 0
10, 96720, Note_on_c, 6, 67, 90
10, 96749, Note_on_c, 6, 67, 0
10, 96750, Note_on_c, 6, 66, 90
10, 96779, Note_on_c, 6, 66, 0
10, 96780, Note_on_c, 6, 64, 90
10, 96809, Note_on_c, 6, 64, 0
10, 96810, Note_on_c, 6, 63, 90
10, 96839, Note_on_c, 6, 63, 0
10, 96840, Note_on_c, 6, 64, 90
10, 96899, Note_on_c, 6, 64, 0
10, 96900, Note_on_c, 6, 66, 90
10, 96959, Note_on_c, 6, 66, 0
10, 96960, Note_on_c, 6, 67, 90
10, 97019, Note_on_c, 6, 67, 0
10, 97020, Note_on_c, 6, 69, 90
10, 97079, Note_on_c, 6, 69, 0
10, 97080, Note_on_c, 6, 67, 90
10, 97109, Note_on_c, 6, 67, 0
10, 97110, Note_on_c, 6, 66, 90
10, 97139, Note_on_c, 6, 66, 0
10, 97140, Note_on_c, 6, 67, 90
10, 97199, Note_on_c, 6, 67, 0
10, 97200, Note_on_c, 6, 66, 90
10, 97289, Note_on_c, 6, 66, 0
10, 97290, Note_on_c, 6, 78, 90
10, 97319, Note_on_c, 6, 78, 0
10, 97320, Note_on_c, 6, 83, 90
10, 97349, Note_on_c, 6, 83, 0
10, 97350, Note_on_c, 6, 81, 90
10, 97379, Note_on_c, 6, 81, 0
10, 97380, Note_on_c, 6, 80, 90
10, 97409, Note_on_c, 6, 80, 0
10, 97410, Note_on_c, 6, 83, 90
10, 97439, Note_on_c, 6, 83, 0
10, 97440, Note_on_c, 6, 80, 90
10, 97469, Note_on_c, 6, 80, 0
10, 97470, Note_on_c, 6, 76, 90
10, 97499, Note_on_c, 6, 76, 0
10, 97500, Note_on_c, 6, 71, 90
10, 97529, Note_on_c, 6, 71, 0
10, 97530, Note_on_c, 6, 74, 90
10, 97559, Note_on_c, 6, 74, 0
10, 97560, Note_on_c, 6, 72, 90
10, 97589, Note_on_c, 6, 72, 0
10, 97590, Note_on_c, 6, 76, 90
10, 97619, Note_on_c, 6, 76, 0
10, 97620, Note_on_c, 6, 69, 90
10, 97649, Note_on_c, 6, 69, 0
10, 97650, Note_on_c, 6, 76, 90
10, 97679, Note_on_c, 6, 76, 0
10, 97680, Note_on_c, 6, 81, 90
10, 97709, Note_on_c, 6, 81, 0
10, 97710, Note_on_c, 6, 79, 90
10, 97739, Note_on_c, 6, 79, 0
10, 97740, Note_on_c, 6, 78, 90
10, 97769, Note_on_c, 6, 78, 0
10, 97770, Note_on_c, 6, 81, 90
10, 97799, Note_on_c, 6, 81, 0
10, 97800, Note_on_c, 6, 78, 90
10, 97829, Note_on_c, 6, 78, 0
10, 97830, Note_on_c, 6, 74, 90
10, 97859, Note_on_c, 6, 74, 0
10, 97860, Note_on_c, 6, 69, 90
10, 97889, Note_on_c, 6, 69, 0
10, 97890, Note_on_c, 6, 72, 90
10, 97919, Note_on_c, 6, 72, 0
10, 97920, Note_on_c, 6, 71, 90
10, 97949, Note_on_c, 6, 71, 0
10, 97950, Note_on_c, 6, 74, 90
10, 97979, Note_on_c, 6, 74, 0
10, 97980, Note_on_c, 6, 67, 90
10, 98009, Note_on_c, 6, 67, 0
10, 98010, Note_on_c, 6, 74, 90
10, 98039, Note_on_c, 6, 74, 0
10, 98040, Note_on_c, 6, 79, 90
10, 98069, Note_on_c, 6, 79, 0
10, 98070, Note_on_c, 6, 78, 90
10, 98099, Note_on_c, 6, 78, 0
10, 98100, Note_on_c, 6, 76, 90
10, 98129, Note_on_c, 6, 76, 0
10, 98130, Note_on_c, 6, 79, 90
10, 98159, Note_on_c, 6, 79, 0
10, 98160, Note_on_c, 6, 76, 90
10, 98189, Note_on_c, 6, 76, 0
10, 98190, Note_on_c, 6, 72, 90
10, 98219, Note_on_c, 6, 72, 0
10, 98220, Note_on_c, 6, 67, 90
10, 98249, Note_on_c, 6, 67, 0
10, 98250, Note_on_c, 6, 71, 90
10, 98279, Note_on_c, 6, 71, 0
10, 98280, Note_on_c, 6, 69, 90
10, 98309, Note_on_c, 6, 69, 0
10, 98310, Note_on_c, 6, 72, 90
10, 98339, Note_on_c, 6, 72, 0
10, 98340, Note_on_c, 6, 66, 90
10, 98369, Note_on_c, 6, 66, 0
10, 98370, Note_on_c, 6, 69, 90
10, 98399, Note_on_c, 6, 69, 0
10, 98400, Note_on_c, 6, 78, 90
10, 98429, Note_on_c, 6, 78, 0
10, 98430, Note_on_c, 6, 76, 90
10, 98459, Note_on_c, 6, 76, 0
10, 98460, Note_on_c, 6, 75, 90
10, 98489, Note_on_c, 6, 75, 0
10, 98490, Note_on_c, 6, 78, 90
10, 98519, Note_on_c, 6, 78, 0
10, 98520, Note_on_c, 6, 75, 90
10, 98549, Note_on_c, 6, 75, 0
10, 98550, Note_on_c, 6, 71, 90
10, 98579, Note_on_c, 6, 71, 0
10, 98580, Note_on_c, 6, 66, 90
10, 98609, Note_on_c, 6, 66, 0
10, 98610, Note_on_c, 6, 69, 90
10, 98639, Note_on_c, 6, 69, 0
10, 98640, Note_on_c, 6, 67, 90
10, 98669, Note_on_c, 6, 67, 0
10, 98670, Note_on_c, 6, 71, 90
10, 98699, Note_on_c, 6, 71, 0
10, 98700, Note_on_c, 6, 64, 90
10, 98729, Note_on_c, 6, 64, 0
10, 98730, Note_on_c, 6, 71, 90
10, 98759, Note_on_c, 6, 71, 0
10, 98760, Note_on_c, 6, 76, 90
10, 98789, Note_on_c, 6, 76, 0
10, 98790, Note_on_c, 6, 74, 90
10, 98819, Note_on_c, 6, 74, 0
10, 98820, Note_on_c, 6, 73, 90
10, 98849, Note_on_c, 6, 73, 0
10, 98850, Note_on_c, 6, 76, 90
10, 98879, Note_on_c, 6, 76, 0
10, 98880, Note_on_c, 6, 73, 90
10, 98909, Note_on_c, 6, 73, 0
10, 98910, Note_on_c, 6, 69, 90
10, 98939, Note_on_c, 6, 69, 0
10, 98940, Note_on_c, 6, 64, 90
10, 98969, Note_on_c, 6, 64, 0
10, 98970, Note_on_c, 6, 67, 90
10, 98999, Note_on_c, 6, 67, 0
10, 99000, Note_on_c, 6, 65, 90
10, 99029, Note_on_c, 6, 65, 0
10, 99030, Note_on_c, 6, 69, 90
10, 99059, Note_on_c, 6, 69, 0
10, 99060, Note_on_c, 6, 62, 90
10, 99089, Note_on_c, 6, 62, 0
10, 99090, Note_on_c, 6, 69, 90
10, 99119, Note_on_c, 6, 69, 0
10, 99120, Note_on_c, 6, 74, 90
10, 99149, Note_on_c, 6, 74, 0
10, 99150, Note_on_c, 6, 72, 90
10, 99179, Note_on_c, 6, 72, 0
10, 99180, Note_on_c, 6, 71, 90
10, 99209, Note_on_c, 6, 71, 0
10, 99210, Note_on_c, 6, 74, 90
10, 99239, Note_on_c, 6, 74, 0
10, 99240, Note_on_c, 6, 71, 90
10, 99269, Note_on_c, 6, 71, 0
10, 99270, Note_on_c, 6, 67, 90
10, 99299, Note_on_c, 6, 67, 0
10, 99300, Note_on_c, 6, 62, 90
10, 99329, Note_on_c, 6, 62, 0
10, 99330, Note_on_c, 6, 67, 90
10, 99359, Note_on_c, 6, 67, 0
10, 99360, Note_on_c, 6, 55, 90
10, 99419, Note_on_c, 6, 55, 0
10, 99420, Note_on_c, 6, 67, 90
10, 99479, Note_on_c, 6, 67, 0
10, 99480, Note_on_c, 6, 72, 90
10, 99599, Note_on_c, 6, 72, 0
10, 99600, Note_on_c, 6, 74, 90
10, 99629, Note_on_c, 6, 74, 0
10, 99630, Note_on_c, 6, 76, 90
10, 99659, Note_on_c, 6, 76, 0
10, 99660, Note_on_c, 6, 77, 90
10, 99779, Note_on_c, 6, 77, 0
10, 99780, Note_on_c, 6, 71, 90
10, 99839, Note_on_c, 6, 71, 0
10, 99840, Note_on_c, 6, 72, 90
10, 99959, Note_on_c, 6, 72, 0
10, 99960, Note_on_c, 6, 62, 90
10, 100019, Note_on_c, 6, 62, 0
10, 100020, Note_on_c, 6, 71, 90
10, 100030, Note_on_c, 6, 71, 0
10, 100030, Note_on_c, 6, 72, 90
10, 100040, Note_on_c, 6, 72, 0
10, 100040, Note_on_c, 6, 71, 90
10, 100080, Note_on_c, 6, 71, 0
10, 100080, Note_on_c, 6, 72, 90
10, 100199, Note_on_c, 6, 72, 0
10, 100200, Note_on_c, 6, 64, 90
10, 100259, Note_on_c, 6, 64, 0
10, 100260, Note_on_c, 6, 69, 90
10, 100319, Note_on_c, 6, 69, 0
10, 100320, Note_on_c, 6, 72, 90
10, 100379, Note_on_c, 6, 72, 0
10, 100380, Note_on_c, 6, 71, 90
10, 100390, Note_on_c, 6, 71, 0
10, 100390, Note_on_c, 6, 72, 90
10, 100400, Note_on_c, 6, 72, 0
10, 100400, Note_on_c, 6, 71, 90
10, 100410, Note_on_c, 6, 71, 0
10, 100410, Note_on_c, 6, 72, 90
10, 100425, Note_on_c, 6, 72, 0
10, 100425, Note_on_c, 6, 71, 90
10, 100440, Note_on_c, 6, 71, 0
10, 100440, Note_on_c, 6, 72, 90
10, 100499, Note_on_c, 6, 72, 0
10, 100500, Note_on_c, 6, 68, 90
10, 100559, Note_on_c, 6, 68, 0
10, 100560, Note_on_c, 6, 69, 90
10, 100619, Note_on_c, 6, 69, 0
10, 100620, Note_on_c, 6, 67, 90
10, 100649, Note_on_c, 6, 67, 0
10, 100650, Note_on_c, 6, 65, 90
10, 100679, Note_on_c, 6, 65, 0
10, 100680, Note_on_c, 6, 64, 90
10, 100709, Note_on_c, 6, 64, 0
10, 100710, Note_on_c, 6, 62, 90
10, 100739, Note_on_c, 6, 62, 0
10, 100740, Note_on_c, 6, 67, 90
10, 100769, Note_on_c, 6, 67, 0
10, 100800, Note_on_c, 6, 64, 90
10, 100810, Note_on_c, 6, 64, 0
10, 100810, Note_on_c, 6, 65, 90
10, 100820, Note_on_c, 6, 65, 0
10, 100820, Note_on_c, 6, 64, 90
10, 100860, Note_on_c, 6, 64, 0
10, 100860, Note_on_c, 6, 62, 90
10, 100889, Note_on_c, 6, 62, 0
10, 100890, Note_on_c, 6, 60, 90
10, 100919, Note_on_c, 6, 60, 0
10, 100920, Note_on_c, 6, 72, 90
10, 100979, Note_on_c, 6, 72, 0
10, 100980, Note_on_c, 6, 71, 90
10, 101039, Note_on_c, 6, 71, 0
10, 101040, Note_on_c, 6, 72, 90
10, 101069, Note_on_c, 6, 72, 0
10, 101070, Note_on_c, 6, 71, 90
10, 101099, Note_on_c, 6, 71, 0
10, 101100, Note_on_c, 6, 69, 90
10, 101129, Note_on_c, 6, 69, 0
10, 101130, Note_on_c, 6, 68, 90
10, 101159, Note_on_c, 6, 68, 0
10, 101160, Note_on_c, 6, 69, 90
10, 101219, Note_on_c, 6, 69, 0
10, 101220, Note_on_c, 6, 71, 90
10, 101279, Note_on_c, 6, 71, 0
10, 101280, Note_on_c, 6, 72, 90
10, 101339, Note_on_c, 6, 72, 0
10, 101340, Note_on_c, 6, 74, 90
10, 101399, Note_on_c, 6, 74, 0
10, 101400, Note_on_c, 6, 72, 90
10, 101429, Note_on_c, 6, 72, 0
10, 101430, Note_on_c, 6, 71, 90
10, 101459, Note_on_c, 6, 71, 0
10, 101460, Note_on_c, 6, 72, 90
10, 101519, Note_on_c, 6, 72, 0
10, 101520, Note_on_c, 6, 72, 90
10, 101549, Note_on_c, 6, 72, 0
10, 101550, Note_on_c, 6, 71, 90
10, 101609, Note_on_c, 6, 71, 0
10, 101610, Note_on_c, 6, 71, 90
10, 101639, Note_on_c, 6, 71, 0
10, 101640, Note_on_c, 6, 76, 90
10, 101669, Note_on_c, 6, 76, 0
10, 101670, Note_on_c, 6, 74, 90
10, 101699, Note_on_c, 6, 74, 0
10, 101700, Note_on_c, 6, 73, 90
10, 101729, Note_on_c, 6, 73, 0
10, 101730, Note_on_c, 6, 76, 90
10, 101759, Note_on_c, 6, 76, 0
10, 101760, Note_on_c, 6, 73, 90
10, 101789, Note_on_c, 6, 73, 0
10, 101790, Note_on_c, 6, 69, 90
10, 101819, Note_on_c, 6, 69, 0
10, 101820, Note_on_c, 6, 64, 90
10, 101849, Note_on_c, 6, 64, 0
10, 101850, Note_on_c, 6, 67, 90
10, 101879, Note_on_c, 6, 67, 0
10, 101880, Note_on_c, 6, 65, 90
10, 101909, Note_on_c, 6, 65, 0
10, 101910, Note_on_c, 6, 69, 90
10, 101939, Note_on_c, 6, 69, 0
10, 101940, Note_on_c, 6, 62, 90
10, 101969, Note_on_c, 6, 62, 0
10, 101970, Note_on_c, 6, 69, 90
10, 101999, Note_on_c, 6, 69, 0
10, 102000, Note_on_c, 6, 74, 90
10, 102029, Note_on_c, 6, 74, 0
10, 102030, Note_on_c, 6, 72, 90
10, 102059, Note_on_c, 6, 72, 0
10, 102060, Note_on_c, 6, 71, 90
10, 102089, Note_on_c, 6, 71, 0
10, 102090, Note_on_c, 6, 74, 90
10, 102119, Note_on_c, 6, 74, 0
10, 102120, Note_on_c, 6, 71, 90
10, 102149, Note_on_c, 6, 71, 0
10, 102150, Note_on_c, 6, 67, 90
10, 102179, Note_on_c, 6, 67, 0
10, 102180, Note_on_c, 6, 62, 90
10, 102209, Note_on_c, 6, 62, 0
10, 102210, Note_on_c, 6, 65, 90
10, 102239, Note_on_c, 6, 65, 0
10, 102240, Note_on_c, 6, 64, 90
10, 102269, Note_on_c, 6, 64, 0
10, 102270, Note_on_c, 6, 67, 90
10, 102299, Note_on_c, 6, 67, 0
10, 102300, Note_on_c, 6, 60, 90
10, 102329, Note_on_c, 6, 60, 0
10, 102330, Note_on_c, 6, 67, 90
10, 102359, Note_on_c, 6, 67, 0
10, 102360, Note_on_c, 6, 72, 90
10, 102389, Note_on_c, 6, 72, 0
10, 102390, Note_on_c, 6, 71, 90
10, 102419, Note_on_c, 6, 71, 0
10, 102420, Note_on_c, 6, 69, 90
10, 102449, Note_on_c, 6, 69, 0
10, 102450, Note_on_c, 6, 68, 90
10, 102479, Note_on_c, 6, 68, 0
10, 102480, Note_on_c, 6, 69, 90
10, 102509, Note_on_c, 6, 69, 0
10, 102510, Note_on_c, 6, 68, 90
10, 102539, Note_on_c, 6, 68, 0
10, 102540, Note_on_c, 6, 69, 90
10, 102569, Note_on_c, 6, 69, 0
10, 102570, Note_on_c, 6, 77, 90
10, 102599, Note_on_c, 6, 77, 0
10, 102600, Note_on_c, 6, 76, 90
10, 102629, Note_on_c, 6, 76, 0
10, 102630, Note_on_c, 6, 75, 90
10, 102659, Note_on_c, 6, 75, 0
10, 102660, Note_on_c, 6, 76, 90
10, 102689, Note_on_c, 6, 76, 0
10, 102690, Note_on_c, 6, 75, 90
10, 102719, Note_on_c, 6, 75, 0
10, 102720, Note_on_c, 6, 76, 90
10, 102749, Note_on_c, 6, 76, 0
10, 102750, Note_on_c, 6, 80, 90
10, 102779, Note_on_c, 6, 80, 0
10, 102780, Note_on_c, 6, 81, 90
10, 102839, Note_on_c, 6, 81, 0
10, 102840, Note_on_c, 6, 72, 90
10, 102899, Note_on_c, 6, 72, 0
10, 102900, Note_on_c, 6, 71, 90
10, 102959, Note_on_c, 6, 71, 0
10, 102960, Note_on_c, 6, 69, 90
10, 103079, Note_on_c, 6, 69, 0
10, 103080, Note_on_c, 6, 64, 90
10, 103139, Note_on_c, 6, 64, 0
10, 103140, Note_on_c, 6, 69, 90
10, 103199, Note_on_c, 6, 69, 0
10, 103200, Note_on_c, 6, 72, 90
10, 103259, Note_on_c, 6, 72, 0
10, 103260, Note_on_c, 6, 71, 90
10, 103270, Note_on_c, 6, 71, 0
10, 103270, Note_on_c, 6, 72, 90
10, 103280, Note_on_c, 6, 72, 0
10, 103280, Note_on_c, 6, 71, 90
10, 103320, Note_on_c, 6, 71, 0
10, 103320, Note_on_c, 6, 72, 90
10, 103379, Note_on_c, 6, 72, 0
10, 103380, Note_on_c, 6, 68, 90
10, 103439, Note_on_c, 6, 68, 0
10, 103440, Note_on_c, 6, 69, 90
10, 103499, Note_on_c, 6, 69, 0
10, 103500, Note_on_c, 6, 67, 90
10, 103529, Note_on_c, 6, 67, 0
10, 103530, Note_on_c, 6, 65, 90
10, 103559, Note_on_c, 6, 65, 0
10, 103560, Note_on_c, 6, 64, 90
10, 103589, Note_on_c, 6, 64, 0
10, 103590, Note_on_c, 6, 62, 90
10, 103619, Note_on_c, 6, 62, 0
10, 103620, Note_on_c, 6, 67, 90
10, 103679, Note_on_c, 6, 67, 0
10, 103680, Note_on_c, 6, 64, 90
10, 103739, Note_on_c, 6, 64, 0
10, 103740, Note_on_c, 6, 62, 90
10, 103769, Note_on_c, 6, 62, 0
10, 103770, Note_on_c, 6, 60, 90
10, 103799, Note_on_c, 6, 60, 0
10, 103800, Note_on_c, 6, 72, 90
10, 103859, Note_on_c, 6, 72, 0
10, 103860, Note_on_c, 6, 71, 90
10, 103919, Note_on_c, 6, 71, 0
10, 103920, Note_on_c, 6, 72, 90
10, 103949, Note_on_c, 6, 72, 0
10, 103950, Note_on_c, 6, 71, 90
10, 103979, Note_on_c, 6, 71, 0
10, 103980, Note_on_c, 6, 69, 90
10, 104009, Note_on_c, 6, 69, 0
10, 104010, Note_on_c, 6, 68, 90
10, 104039, Note_on_c, 6, 68, 0
10, 104040, Note_on_c, 6, 69, 90
10, 104099, Note_on_c, 6, 69, 0
10, 104100, Note_on_c, 6, 71, 90
10, 104159, Note_on_c, 6, 71, 0
10, 104160, Note_on_c, 6, 72, 90
10, 104219, Note_on_c, 6, 72, 0
10, 104220, Note_on_c, 6, 74, 90
10, 104279, Note_on_c, 6, 74, 0
10, 104280, Note_on_c, 6, 72, 90
10, 104309, Note_on_c, 6, 72, 0
10, 104310, Note_on_c, 6, 71, 90
10, 104339, Note_on_c, 6, 71, 0
10, 104340, Note_on_c, 6, 72, 90
10, 104399, Note_on_c, 6, 72, 0
10, 104400, Note_on_c, 6, 71, 90
10, 104519, Note_on_c, 6, 71, 0
10, 104670, Note_on_c, 6, 71, 90
10, 104699, Note_on_c, 6, 71, 0
10, 104700, Note_on_c, 6, 76, 90
10, 104729, Note_on_c, 6, 76, 0
10, 104730, Note_on_c, 6, 74, 90
10, 104759, Note_on_c, 6, 74, 0
10, 104760, Note_on_c, 6, 73, 90
10, 104789, Note_on_c, 6, 73, 0
10, 104790, Note_on_c, 6, 76, 90
10, 104819, Note_on_c, 6, 76, 0
10, 104820, Note_on_c, 6, 73, 90
10, 104849, Note_on_c, 6, 73, 0
10, 104850, Note_on_c, 6, 69, 90
10, 104879, Note_on_c, 6, 69, 0
10, 104880, Note_on_c, 6, 64, 90
10, 104909, Note_on_c, 6, 64, 0
10, 104910, Note_on_c, 6, 67, 90
10, 104939, Note_on_c, 6, 67, 0
10, 104940, Note_on_c, 6, 65, 90
10, 104969, Note_on_c, 6, 65, 0
10, 104970, Note_on_c, 6, 69, 90
10, 104999, Note_on_c, 6, 69, 0
10, 105000, Note_on_c, 6, 62, 90
10, 105029, Note_on_c, 6, 62, 0
10, 105030, Note_on_c, 6, 69, 90
10, 105059, Note_on_c, 6, 69, 0
10, 105060, Note_on_c, 6, 74, 90
10, 105089, Note_on_c, 6, 74, 0
10, 105090, Note_on_c, 6, 72, 90
10, 105119, Note_on_c, 6, 72, 0
10, 105120, Note_on_c, 6, 71, 90
10, 105149, Note_on_c, 6, 71, 0
10, 105150, Note_on_c, 6, 74, 90
10, 105179, Note_on_c, 6, 74, 0
10, 105180, Note_on_c, 6, 71, 90
10, 105209, Note_on_c, 6, 71, 0
10, 105210, Note_on_c, 6, 67, 90
10, 105239, Note_on_c, 6, 67, 0
10, 105240, Note_on_c, 6, 62, 90
10, 105269, Note_on_c, 6, 62, 0
10, 105270, Note_on_c, 6, 65, 90
10, 105299, Note_on_c, 6, 65, 0
10, 105300, Note_on_c, 6, 64, 90
10, 105329, Note_on_c, 6, 64, 0
10, 105330, Note_on_c, 6, 67, 90
10, 105359, Note_on_c, 6, 67, 0
10, 105360, Note_on_c, 6, 60, 90
10, 105419, Note_on_c, 6, 60, 0
10, 105600, Note_on_c, 6, 60, 90
10, 105659, Note_on_c, 6, 60, 0
10, 105660, Note_on_c, 6, 67, 90
10, 105719, Note_on_c, 6, 67, 0
10, 105720, Note_on_c, 6, 71, 90
10, 105779, Note_on_c, 6, 71, 0
10, 105780, Note_on_c, 6, 69, 90
10, 105790, Note_on_c, 6, 69, 0
10, 105790, Note_on_c, 6, 71, 90
10, 105800, Note_on_c, 6, 71, 0
10, 105800, Note_on_c, 6, 69, 90
10, 105840, Note_on_c, 6, 69, 0
10, 105840, Note_on_c, 6, 71, 90
10, 105899, Note_on_c, 6, 71, 0
10, 105900, Note_on_c, 6, 67, 90
10, 105959, Note_on_c, 6, 67, 0
10, 106320, Note_on_c, 6, 62, 90
10, 106379, Note_on_c, 6, 62, 0
10, 106380, Note_on_c, 6, 69, 90
10, 106439, Note_on_c, 6, 69, 0
10, 106440, Note_on_c, 6, 72, 90
10, 106499, Note_on_c, 6, 72, 0
10, 106500, Note_on_c, 6, 71, 90
10, 106559, Note_on_c, 6, 71, 0
10, 106560, Note_on_c, 6, 72, 90
10, 106619, Note_on_c, 6, 72, 0
10, 106620, Note_on_c, 6, 69, 90
10, 106649, Note_on_c, 6, 69, 0
10, 106650, Note_on_c, 6, 72, 90
10, 106679, Note_on_c, 6, 72, 0
10, 106680, Note_on_c, 6, 71, 90
10, 106709, Note_on_c, 6, 71, 0
10, 106710, Note_on_c, 6, 74, 90
10, 106739, Note_on_c, 6, 74, 0
10, 106740, Note_on_c, 6, 72, 90
10, 106769, Note_on_c, 6, 72, 0
10, 106770, Note_on_c, 6, 76, 90
10, 106799, Note_on_c, 6, 76, 0
10, 106800, Note_on_c, 6, 72, 90
10, 106829, Note_on_c, 6, 72, 0
10, 106830, Note_on_c, 6, 69, 90
10, 106859, Note_on_c, 6, 69, 0
10, 106860, Note_on_c, 6, 68, 90
10, 106889, Note_on_c, 6, 68, 0
10, 106890, Note_on_c, 6, 71, 90
10, 106919, Note_on_c, 6, 71, 0
10, 106920, Note_on_c, 6, 69, 90
10, 106949, Note_on_c, 6, 69, 0
10, 106950, Note_on_c, 6, 72, 90
10, 106979, Note_on_c, 6, 72, 0
10, 106980, Note_on_c, 6, 76, 90
10, 107009, Note_on_c, 6, 76, 0
10, 107010, Note_on_c, 6, 74, 90
10, 107039, Note_on_c, 6, 74, 0
10, 107040, Note_on_c, 6, 72, 90
10, 107069, Note_on_c, 6, 72, 0
10, 107070, Note_on_c, 6, 71, 90
10, 107099, Note_on_c, 6, 71, 0
10, 107100, Note_on_c, 6, 69, 90
10, 107159, Note_on_c, 6, 69, 0
10, 107160, Note_on_c, 6, 74, 90
10, 107219, Note_on_c, 6, 74, 0
10, 107220, Note_on_c, 6, 71, 90
10, 107230, Note_on_c, 6, 71, 0
10, 107230, Note_on_c, 6, 72, 90
10, 107240, Note_on_c, 6, 72, 0
10, 107240, Note_on_c, 6, 71, 90
10, 107280, Note_on_c, 6, 71, 0
10, 107280, Note_on_c, 6, 72, 90
10, 107309, Note_on_c, 6, 72, 0
10, 107310, Note_on_c, 6, 67, 90
10, 107339, Note_on_c, 6, 67, 0
10, 107340, Note_on_c, 6, 64, 90
10, 107369, Note_on_c, 6, 64, 0
10, 107370, Note_on_c, 6, 67, 90
10, 107399, Note_on_c, 6, 67, 0
10, 107400, Note_on_c, 6, 72, 90
10, 107429, Note_on_c, 6, 72, 0
10, 107430, Note_on_c, 6, 76, 90
10, 107459, Note_on_c, 6, 76, 0
10, 107460, Note_on_c, 6, 74, 90
10, 107489, Note_on_c, 6, 74, 0
10, 107490, Note_on_c, 6, 77, 90
10, 107519, Note_on_c, 6, 77, 0
10, 107520, Note_on_c, 6, 76, 90
10, 107549, Note_on_c, 6, 76, 0
10, 107550, Note_on_c, 6, 74, 90
10, 107579, Note_on_c, 6, 74, 0
10, 107580, Note_on_c, 6, 72, 90
10, 107609, Note_on_c, 6, 72, 0
10, 107610, Note_on_c, 6, 71, 90
10, 107639, Note_on_c, 6, 71, 0
10, 107640, Note_on_c, 6, 69, 90
10, 107669, Note_on_c, 6, 69, 0
10, 107670, Note_on_c, 6, 67, 90
10, 107699, Note_on_c, 6, 67, 0
10, 107700, Note_on_c, 6, 65, 90
10, 107729, Note_on_c, 6, 65, 0
10, 107730, Note_on_c, 6, 64, 90
10, 107759, Note_on_c, 6, 64, 0
10, 107760, Note_on_c, 6, 62, 90
10, 107789, Note_on_c, 6, 62, 0
10, 107790, Note_on_c, 6, 60, 90
10, 107819, Note_on_c, 6, 60, 0
10, 107820, Note_on_c, 6, 59, 90
10, 107879, Note_on_c, 6, 59, 0
10, 107880, Note_on_c, 6, 68, 90
10, 107939, Note_on_c, 6, 68, 0
10, 107940, Note_on_c, 6, 69, 90
10, 108029, Note_on_c, 6, 69, 0
10, 108030, Note_on_c, 6, 66, 90
10, 108059, Note_on_c, 6, 66, 0
10, 108060, Note_on_c, 6, 68, 90
10, 108089, Note_on_c, 6, 68, 0
10, 108090, Note_on_c, 6, 71, 90
10, 108119, Note_on_c, 6, 71, 0
10, 108120, Note_on_c, 6, 74, 90
10, 108149, Note_on_c, 6, 74, 0
10, 108180, Note_on_c, 6, 73, 90
10, 108239, Note_on_c, 6, 73, 0
10, 108240, Note_on_c, 6, 76, 90
10, 108299, Note_on_c, 6, 76, 0
10, 108300, Note_on_c, 6, 67, 90
10, 108359, Note_on_c, 6, 67, 0
10, 108360, Note_on_c, 6, 65, 90
10, 108370, Note_on_c, 6, 65, 0
10, 108370, Note_on_c, 6, 67, 90
10, 108380, Note_on_c, 6, 67, 0
10, 108380, Note_on_c, 6, 65, 90
10, 108420, Note_on_c, 6, 65, 0
10, 108420, Note_on_c, 6, 64, 90
10, 108449, Note_on_c, 6, 64, 0
10, 108450, Note_on_c, 6, 62, 90
10, 108479, Note_on_c, 6, 62, 0
10, 108480, Note_on_c, 6, 72, 90
10, 108539, Note_on_c, 6, 72, 0
10, 108540, Note_on_c, 6, 71, 90
10, 108599, Note_on_c, 6, 71, 0
10, 108600, Note_on_c, 6, 74, 90
10, 108659, Note_on_c, 6, 74, 0
10, 108660, Note_on_c, 6, 65, 90
10, 108719, Note_on_c, 6, 65, 0
10, 108720, Note_on_c, 6, 64, 90
10, 108730, Note_on_c, 6, 64, 0
10, 108730, Note_on_c, 6, 65, 90
10, 108740, Note_on_c, 6, 65, 0
10, 108740, Note_on_c, 6, 64, 90
10, 108780, Note_on_c, 6, 64, 0
10, 108780, Note_on_c, 6, 62, 90
10, 108809, Note_on_c, 6, 62, 0
10, 108810, Note_on_c, 6, 60, 90
10, 108839, Note_on_c, 6, 60, 0
10, 108840, Note_on_c, 6, 64, 90
10, 108899, Note_on_c, 6, 64, 0
10, 108900, Note_on_c, 6, 74, 90
10, 108959, Note_on_c, 6, 74, 0
10, 108960, Note_on_c, 6, 72, 90
10, 109019, Note_on_c, 6, 72, 0
10, 109020, Note_on_c, 6, 71, 90
10, 109079, Note_on_c, 6, 71, 0
10, 109080, Note_on_c, 6, 76, 90
10, 109139, Note_on_c, 6, 76, 0
10, 109140, Note_on_c, 6, 69, 90
10, 109199, Note_on_c, 6, 69, 0
10, 109200, Note_on_c, 6, 71, 90
10, 109259, Note_on_c, 6, 71, 0
10, 109260, Note_on_c, 6, 64, 90
10, 109319, Note_on_c, 6, 64, 0
10, 109320, Note_on_c, 6, 72, 90
10, 109349, Note_on_c, 6, 72, 0
10, 109350, Note_on_c, 6, 71, 90
10, 109379, Note_on_c, 6, 71, 0
10, 109380, Note_on_c, 6, 69, 90
10, 109409, Note_on_c, 6, 69, 0
10, 109410, Note_on_c, 6, 68, 90
10, 109439, Note_on_c, 6, 68, 0
10, 109440, Note_on_c, 6, 69, 90
10, 109499, Note_on_c, 6, 69, 0
10, 109710, Note_on_c, 6, 65, 90
10, 109739, Note_on_c, 6, 65, 0
10, 109740, Note_on_c, 6, 70, 90
10, 109769, Note_on_c, 6, 70, 0
10, 109770, Note_on_c, 6, 69, 90
10, 109799, Note_on_c, 6, 69, 0
10, 109800, Note_on_c, 6, 67, 90
10, 109829, Note_on_c, 6, 67, 0
10, 109830, Note_on_c, 6, 70, 90
10, 109859, Note_on_c, 6, 70, 0
10, 109860, Note_on_c, 6, 67, 90
10, 109889, Note_on_c, 6, 67, 0
10, 109890, Note_on_c, 6, 64, 90
10, 109919, Note_on_c, 6, 64, 0
10, 109920, Note_on_c, 6, 58, 90
10, 109949, Note_on_c, 6, 58, 0
10, 109950, Note_on_c, 6, 62, 90
10, 109979, Note_on_c, 6, 62, 0
10, 109980, Note_on_c, 6, 61, 90
10, 110009, Note_on_c, 6, 61, 0
10, 110010, Note_on_c, 6, 64, 90
10, 110039, Note_on_c, 6, 64, 0
10, 110040, Note_on_c, 6, 57, 90
10, 110069, Note_on_c, 6, 57, 0
10, 110070, Note_on_c, 6, 61, 90
10, 110099, Note_on_c, 6, 61, 0
10, 110100, Note_on_c, 6, 64, 90
10, 110129, Note_on_c, 6, 64, 0
10, 110130, Note_on_c, 6, 67, 90
10, 110159, Note_on_c, 6, 67, 0
10, 110160, Note_on_c, 6, 65, 90
10, 110189, Note_on_c, 6, 65, 0
10, 110190, Note_on_c, 6, 69, 90
10, 110219, Note_on_c, 6, 69, 0
10, 110220, Note_on_c, 6, 65, 90
10, 110249, Note_on_c, 6, 65, 0
10, 110250, Note_on_c, 6, 62, 90
10, 110279, Note_on_c, 6, 62, 0
10, 110280, Note_on_c, 6, 57, 90
10, 110309, Note_on_c, 6, 57, 0
10, 110310, Note_on_c, 6, 60, 90
10, 110339, Note_on_c, 6, 60, 0
10, 110340, Note_on_c, 6, 59, 90
10, 110369, Note_on_c, 6, 59, 0
10, 110370, Note_on_c, 6, 62, 90
10, 110399, Note_on_c, 6, 62, 0
10, 110400, Note_on_c, 6, 65, 90
10, 110459, Note_on_c, 6, 65, 0
10, 110640, Note_on_c, 6, 67, 90
10, 110699, Note_on_c, 6, 67, 0
10, 110700, Note_on_c, 6, 66, 90
10, 110759, Note_on_c, 6, 66, 0
10, 110760, Note_on_c, 6, 69, 90
10, 110819, Note_on_c, 6, 69, 0
10, 110820, Note_on_c, 6, 72, 90
10, 110879, Note_on_c, 6, 72, 0
10, 110880, Note_on_c, 6, 72, 90
10, 110890, Note_on_c, 6, 72, 0
10, 110890, Note_on_c, 6, 74, 90
10, 110900, Note_on_c, 6, 74, 0
10, 110900, Note_on_c, 6, 72, 90
10, 110940, Note_on_c, 6, 72, 0
10, 110940, Note_on_c, 6, 71, 90
10, 110999, Note_on_c, 6, 71, 0
10, 111360, Note_on_c, 6, 74, 90
10, 111419, Note_on_c, 6, 74, 0
10, 111420, Note_on_c, 6, 73, 90
10, 111479, Note_on_c, 6, 73, 0
10, 111480, Note_on_c, 6, 76, 90
10, 111539, Note_on_c, 6, 76, 0
10, 111540, Note_on_c, 6, 67, 90
10, 111599, Note_on_c, 6, 67, 0
10, 111600, Note_on_c, 6, 65, 90
10, 111629, Note_on_c, 6, 65, 0
10, 111630, Note_on_c, 6, 69, 90
10, 111659, Note_on_c, 6, 69, 0
10, 111660, Note_on_c, 6, 65, 90
10, 111689, Note_on_c, 6, 65, 0
10, 111690, Note_on_c, 6, 62, 90
10, 111719, Note_on_c, 6, 62, 0
10, 111720, Note_on_c, 6, 57, 90
10, 111749, Note_on_c, 6, 57, 0
10, 111750, Note_on_c, 6, 62, 90
10, 111779, Note_on_c, 6, 62, 0
10, 111780, Note_on_c, 6, 64, 90
10, 111809, Note_on_c, 6, 64, 0
10, 111810, Note_on_c, 6, 67, 90
10, 111839, Note_on_c, 6, 67, 0
10, 111840, Note_on_c, 6, 64, 90
10, 111869, Note_on_c, 6, 64, 0
10, 111870, Note_on_c, 6, 61, 90
10, 111899, Note_on_c, 6, 61, 0
10, 111900, Note_on_c, 6, 57, 90
10, 111929, Note_on_c, 6, 57, 0
10, 111930, Note_on_c, 6, 61, 90
10, 111959, Note_on_c, 6, 61, 0
10, 111960, Note_on_c, 6, 62, 90
10, 111989, Note_on_c, 6, 62, 0
10, 111990, Note_on_c, 6, 65, 90
10, 112019, Note_on_c, 6, 65, 0
10, 112020, Note_on_c, 6, 57, 90
10, 112049, Note_on_c, 6, 57, 0
10, 112050, Note_on_c, 6, 62, 90
10, 112079, Note_on_c, 6, 62, 0
10, 112080, Note_on_c, 6, 65, 90
10, 112109, Note_on_c, 6, 65, 0
10, 112110, Note_on_c, 6, 69, 90
10, 112139, Note_on_c, 6, 69, 0
10, 112140, Note_on_c, 6, 71, 90
10, 112169, Note_on_c, 6, 71, 0
10, 112170, Note_on_c, 6, 74, 90
10, 112199, Note_on_c, 6, 74, 0
10, 112200, Note_on_c, 6, 71, 90
10, 112229, Note_on_c, 6, 71, 0
10, 112230, Note_on_c, 6, 67, 90
10, 112259, Note_on_c, 6, 67, 0
10, 112260, Note_on_c, 6, 62, 90
10, 112289, Note_on_c, 6, 62, 0
10, 112290, Note_on_c, 6, 65, 90
10, 112319, Note_on_c, 6, 65, 0
10, 112320, Note_on_c, 6, 64, 90
10, 112349, Note_on_c, 6, 64, 0
10, 112350, Note_on_c, 6, 67, 90
10, 112379, Note_on_c, 6, 67, 0
10, 112380, Note_on_c, 6, 60, 90
10, 112409, Note_on_c, 6, 60, 0
10, 112410, Note_on_c, 6, 64, 90
10, 112439, Note_on_c, 6, 64, 0
10, 112440, Note_on_c, 6, 67, 90
10, 112469, Note_on_c, 6, 67, 0
10, 112470, Note_on_c, 6, 70, 90
10, 112499, Note_on_c, 6, 70, 0
10, 112500, Note_on_c, 6, 69, 90
10, 112529, Note_on_c, 6, 69, 0
10, 112530, Note_on_c, 6, 68, 90
10, 112559, Note_on_c, 6, 68, 0
10, 112560, Note_on_c, 6, 69, 90
10, 112589, Note_on_c, 6, 69, 0
10, 112590, Note_on_c, 6, 68, 90
10, 112619, Note_on_c, 6, 68, 0
10, 112620, Note_on_c, 6, 69, 90
10, 112649, Note_on_c, 6, 69, 0
10, 112650, Note_on_c, 6, 77, 90
10, 112679, Note_on_c, 6, 77, 0
10, 112680, Note_on_c, 6, 76, 90
10, 112709, Note_on_c, 6, 76, 0
10, 112710, Note_on_c, 6, 75, 90
10, 112739, Note_on_c, 6, 75, 0
10, 112740, Note_on_c, 6, 76, 90
10, 112769, Note_on_c, 6, 76, 0
10, 112770, Note_on_c, 6, 75, 90
10, 112799, Note_on_c, 6, 75, 0
10, 112800, Note_on_c, 6, 76, 90
10, 112829, Note_on_c, 6, 76, 0
10, 112830, Note_on_c, 6, 80, 90
10, 112859, Note_on_c, 6, 80, 0
10, 112860, Note_on_c, 6, 81, 90
10, 112919, Note_on_c, 6, 81, 0
10, 112920, Note_on_c, 6, 60, 90
10, 112979, Note_on_c, 6, 60, 0
10, 112980, Note_on_c, 6, 59, 90
10, 112990, Note_on_c, 6, 59, 0
10, 112990, Note_on_c, 6, 60, 90
10, 113000, Note_on_c, 6, 60, 0
10, 113000, Note_on_c, 6, 59, 90
10, 113040, Note_on_c, 6, 59, 0
10, 113040, Note_on_c, 6, 57, 90
10, 113159, Note_on_c, 6, 57, 0
10, 113160, Note_on_c, 6, 64, 90
10, 113219, Note_on_c, 6, 64, 0
10, 113220, Note_on_c, 6, 69, 90
10, 113279, Note_on_c, 6, 69, 0
10, 113280, Note_on_c, 6, 72, 90
10, 113339, Note_on_c, 6, 72, 0
10, 113340, Note_on_c, 6, 71, 90
10, 113350, Note_on_c, 6, 71, 0
10, 113350, Note_on_c, 6, 72, 90
10, 113360, Note_on_c, 6, 72, 0
10, 113360, Note_on_c, 6, 71, 90
10, 113400, Note_on_c, 6, 71, 0
10, 113400, Note_on_c, 6, 72, 90
10, 113459, Note_on_c, 6, 72, 0
10, 113460, Note_on_c, 6, 68, 90
10, 113519, Note_on_c, 6, 68, 0
10, 113520, Note_on_c, 6, 69, 90
10, 113579, Note_on_c, 6, 69, 0
10, 113580, Note_on_c, 6, 67, 90
10, 113609, Note_on_c, 6, 67, 0
10, 113610, Note_on_c, 6, 65, 90
10, 113639, Note_on_c, 6, 65, 0
10, 113640, Note_on_c, 6, 64, 90
10, 113669, Note_on_c, 6, 64, 0
10, 113670, Note_on_c, 6, 62, 90
10, 113699, Note_on_c, 6, 62, 0
10, 113700, Note_on_c, 6, 67, 90
10, 113729, Note_on_c, 6, 67, 0
10, 113760, Note_on_c, 6, 64, 90
10, 113770, Note_on_c, 6, 64, 0
10, 113770, Note_on_c, 6, 65, 90
10, 113780, Note_on_c, 6, 65, 0
10, 113780, Note_on_c, 6, 64, 90
10, 113820, Note_on_c, 6, 64, 0
10, 113820, Note_on_c, 6, 62, 90
10, 113849, Note_on_c, 6, 62, 0
10, 113850, Note_on_c, 6, 60, 90
10, 113879, Note_on_c, 6, 60, 0
10, 113880, Note_on_c, 6, 72, 90
10, 113939, Note_on_c, 6, 72, 0
10, 113940, Note_on_c, 6, 71, 90
10, 113999, Note_on_c, 6, 71, 0
10, 114000, Note_on_c, 6, 72, 90
10, 114029, Note_on_c, 6, 72, 0
10, 114030, Note_on_c, 6, 71, 90
10, 114059, Note_on_c, 6, 71, 0
10, 114060, Note_on_c, 6, 69, 90
10, 114089, Note_on_c, 6, 69, 0
10, 114090, Note_on_c, 6, 68, 90
10, 114119, Note_on_c, 6, 68, 0
10, 114120, Note_on_c, 6, 69, 90
10, 114179, Note_on_c, 6, 69, 0
10, 114180, Note_on_c, 6, 71, 90
10, 114239, Note_on_c, 6, 71, 0
10, 114240, Note_on_c, 6, 72, 90
10, 114299, Note_on_c, 6, 72, 0
10, 114300, Note_on_c, 6, 74, 90
10, 114359, Note_on_c, 6, 74, 0
10, 114360, Note_on_c, 6, 72, 90
10, 114389, Note_on_c, 6, 72, 0
10, 114390, Note_on_c, 6, 71, 90
10, 114419, Note_on_c, 6, 71, 0
10, 114420, Note_on_c, 6, 72, 90
10, 114479, Note_on_c, 6, 72, 0
10, 114480, Note_on_c, 6, 72, 90
10, 114509, Note_on_c, 6, 72, 0
10, 114510, Note_on_c, 6, 71, 90
10, 114569, Note_on_c, 6, 71, 0
10, 114570, Note_on_c, 6, 71, 90
10, 114599, Note_on_c, 6, 71, 0
10, 114600, Note_on_c, 6, 76, 90
10, 114629, Note_on_c, 6, 76, 0
10, 114630, Note_on_c, 6, 74, 90
10, 114659, Note_on_c, 6, 74, 0
10, 114660, Note_on_c, 6, 73, 90
10, 114689, Note_on_c, 6, 73, 0
10, 114690, Note_on_c, 6, 76, 90
10, 114719, Note_on_c, 6, 76, 0
10, 114720, Note_on_c, 6, 73, 90
10, 114749, Note_on_c, 6, 73, 0
10, 114750, Note_on_c, 6, 69, 90
10, 114779, Note_on_c, 6, 69, 0
10, 114780, Note_on_c, 6, 64, 90
10, 114809, Note_on_c, 6, 64, 0
10, 114810, Note_on_c, 6, 67, 90
10, 114839, Note_on_c, 6, 67, 0
10, 114840, Note_on_c, 6, 65, 90
10, 114869, Note_on_c, 6, 65, 0
10, 114870, Note_on_c, 6, 69, 90
10, 114899, Note_on_c, 6, 69, 0
10, 114900, Note_on_c, 6, 62, 90
10, 114929, Note_on_c, 6, 62, 0
10, 114930, Note_on_c, 6, 69, 90
10, 114959, Note_on_c, 6, 69, 0
10, 114960, Note_on_c, 6, 74, 90
10, 114989, Note_on_c, 6, 74, 0
10, 114990, Note_on_c, 6, 72, 90
10, 115019, Note_on_c, 6, 72, 0
10, 115020, Note_on_c, 6, 71, 90
10, 115049, Note_on_c, 6, 71, 0
10, 115050, Note_on_c, 6, 74, 90
10, 115079, Note_on_c, 6, 74, 0
10, 115080, Note_on_c, 6, 71, 90
10, 115109, Note_on_c, 6, 71, 0
10, 115110, Note_on_c, 6, 67, 90
10, 115139, Note_on_c, 6, 67, 0
10, 115140, Note_on_c, 6, 62, 90
10, 115169, Note_on_c, 6, 62, 0
10, 115170, Note_on_c, 6, 65, 90
10, 115199, Note_on_c, 6, 65, 0
10, 115200, Note_on_c, 6, 64, 90
10, 115229, Note_on_c, 6, 64, 0
10, 115230, Note_on_c, 6, 67, 90
10, 115259, Note_on_c, 6, 67, 0
10, 115260, Note_on_c, 6, 60, 90
10, 115289, Note_on_c, 6, 60, 0
10, 115290, Note_on_c, 6, 67, 90
10, 115319, Note_on_c, 6, 67, 0
10, 115320, Note_on_c, 6, 72, 90
10, 115349, Note_on_c, 6, 72, 0
10, 115350, Note_on_c, 6, 71, 90
10, 115379, Note_on_c, 6, 71, 0
10, 115380, Note_on_c, 6, 69, 90
10, 115409, Note_on_c, 6, 69, 0
10, 115410, Note_on_c, 6, 68, 90
10, 115439, Note_on_c, 6, 68, 0
10, 115440, Note_on_c, 6, 69, 90
10, 115469, Note_on_c, 6, 69, 0
10, 115470, Note_on_c, 6, 68, 90
10, 115499, Note_on_c, 6, 68, 0
10, 115500, Note_on_c, 6, 69, 90
10, 115529, Note_on_c, 6, 69, 0
10, 115530, Note_on_c, 6, 77, 90
10, 115559, Note_on_c, 6, 77, 0
10, 115560, Note_on_c, 6, 76, 90
10, 115589, Note_on_c, 6, 76, 0
10, 115590, Note_on_c, 6, 75, 90
10, 115619, Note_on_c, 6, 75, 0
10, 115620, Note_on_c, 6, 76, 90
10, 115649, Note_on_c, 6, 76, 0
10, 115650, Note_on_c, 6, 75, 90
10, 115679, Note_on_c, 6, 75, 0
10, 115680, Note_on_c, 6, 76, 90
10, 115709, Note_on_c, 6, 76, 0
10, 115710, Note_on_c, 6, 80, 90
10, 115739, Note_on_c, 6, 80, 0
10, 115740, Note_on_c, 6, 81, 90
10, 115799, Note_on_c, 6, 81, 0
10, 115800, Note_on_c, 6, 60, 90
10, 115859, Note_on_c, 6, 60, 0
10, 115860, Note_on_c, 6, 59, 90
10, 115870, Note_on_c, 6, 59, 0
10, 115870, Note_on_c, 6, 60, 90
10, 115880, Note_on_c, 6, 60, 0
10, 115880, Note_on_c, 6, 59, 90
10, 115920, Note_on_c, 6, 59, 0
10, 115920, Note_on_c, 6, 57, 90
10, 116099, Note_on_c, 6, 57, 0
10, 116460, Note_on_c, 6, 64, 90
10, 116579, Note_on_c, 6, 64, 0
10, 116580, Note_on_c, 6, 69, 90
10, 116699, Note_on_c, 6, 69, 0
10, 116700, Note_on_c, 6, 67, 90
10, 116819, Note_on_c, 6, 67, 0
10, 116820, Note_on_c, 6, 65, 90
10, 116939, Note_on_c, 6, 65, 0
10, 116940, Note_on_c, 6, 64, 90
10, 117059, Note_on_c, 6, 64, 0
10, 117060, Note_on_c, 6, 62, 90
10, 117299, Note_on_c, 6, 62, 0
10, 117300, Note_on_c, 6, 64, 90
10, 117395, Note_on_c, 6, 64, 0
10, 117420, Note_on_c, 6, 71, 90
10, 117539, Note_on_c, 6, 71, 0
10, 117540, Note_on_c, 6, 72, 90
10, 117659, Note_on_c, 6, 72, 0
10, 117660, Note_on_c, 6, 72, 90
10, 117779, Note_on_c, 6, 72, 0
10, 117780, Note_on_c, 6, 71, 90
10, 117839, Note_on_c, 6, 71, 0
10, 117840, Note_on_c, 6, 72, 90
10, 117869, Note_on_c, 6, 72, 0
10, 117870, Note_on_c, 6, 74, 90
10, 117899, Note_on_c, 6, 74, 0
10, 117900, Note_on_c, 6, 71, 90
10, 118019, Note_on_c, 6, 71, 0
10, 118020, Note_on_c, 6, 69, 90
10, 118379, Note_on_c, 6, 69, 0
10, 118380, Note_on_c, 6, 64, 90
10, 118499, Note_on_c, 6, 64, 0
10, 118500, Note_on_c, 6, 69, 90
10, 118619, Note_on_c, 6, 69, 0
10, 118620, Note_on_c, 6, 67, 90
10, 118739, Note_on_c, 6, 67, 0
10, 118740, Note_on_c, 6, 65, 90
10, 118859, Note_on_c, 6, 65, 0
10, 118860, Note_on_c, 6, 64, 90
10, 118979, Note_on_c, 6, 64, 0
10, 118980, Note_on_c, 6, 62, 90
10, 119219, Note_on_c, 6, 62, 0
10, 119220, Note_on_c, 6, 64, 90
10, 119315, Note_on_c, 6, 64, 0
10, 119340, Note_on_c, 6, 71, 90
10, 119459, Note_on_c, 6, 71, 0
10, 119460, Note_on_c, 6, 72, 90
10, 119579, Note_on_c, 6, 72, 0
10, 119580, Note_on_c, 6, 72, 90
10, 119699, Note_on_c, 6, 72, 0
10, 119700, Note_on_c, 6, 71, 90
10, 119759, Note_on_c, 6, 71, 0
10, 119760, Note_on_c, 6, 72, 90
10, 119789, Note_on_c, 6, 72, 0
10, 119790, Note_on_c, 6, 74, 90
10, 119819, Note_on_c, 6, 74, 0
10, 119820, Note_on_c, 6, 71, 90
10, 119939, Note_on_c, 6, 71, 0
10, 119940, Note_on_c, 6, 69, 90
10, 120299, Note_on_c, 6, 69, 0
10, 120300, Note_on_c, 6, 72, 90
10, 120419, Note_on_c, 6, 72, 0
10, 120420, Note_on_c, 6, 71, 90
10, 120479, Note_on_c, 6, 71, 0
10, 120480, Note_on_c, 6, 69, 90
10, 120539, Note_on_c, 6, 69, 0
10, 120540, Note_on_c, 6, 67, 90
10, 120659, Note_on_c, 6, 67, 0
10, 120660, Note_on_c, 6, 69, 90
10, 120779, Note_on_c, 6, 69, 0
10, 120780, Note_on_c, 6, 71, 90
10, 120899, Note_on_c, 6, 71, 0
10, 120900, Note_on_c, 6, 72, 90
10, 121139, Note_on_c, 6, 72, 0
10, 121140, Note_on_c, 6, 72, 90
10, 121235, Note_on_c, 6, 72, 0
10, 121260, Note_on_c, 6, 67, 90
10, 121379, Note_on_c, 6, 67, 0
10, 121380, Note_on_c, 6, 69, 90
10, 121499, Note_on_c, 6, 69, 0
10, 121500, Note_on_c, 6, 67, 90
10, 121619, Note_on_c, 6, 67, 0
10, 121620, Note_on_c, 6, 65, 90
10, 121679, Note_on_c, 6, 65, 0
10, 121680, Note_on_c, 6, 64, 90
10, 121739, Note_on_c, 6, 64, 0
10, 121740, Note_on_c, 6, 65, 90
10, 121859, Note_on_c, 6, 65, 0
10, 121860, Note_on_c, 6, 64, 90
10, 122147, Note_on_c, 6, 64, 0
10, 122220, Note_on_c, 6, 72, 90
10, 122339, Note_on_c, 6, 72, 0
10, 122340, Note_on_c, 6, 71, 90
10, 122399, Note_on_c, 6, 71, 0
10, 122400, Note_on_c, 6, 72, 90
10, 122459, Note_on_c, 6, 72, 0
10, 122460, Note_on_c, 6, 74, 90
10, 122579, Note_on_c, 6, 74, 0
10, 122580, Note_on_c, 6, 72, 90
10, 122699, Note_on_c, 6, 72, 0
10, 122700, Note_on_c, 6, 71, 90
10, 122819, Note_on_c, 6, 71, 0
10, 122820, Note_on_c, 6, 69, 90
10, 123059, Note_on_c, 6, 69, 0
10, 123060, Note_on_c, 6, 71, 90
10, 123155, Note_on_c, 6, 71, 0
10, 123180, Note_on_c, 6, 64, 90
10, 123299, Note_on_c, 6, 64, 0
10, 123300, Note_on_c, 6, 65, 90
10, 123419, Note_on_c, 6, 65, 0
10, 123420, Note_on_c, 6, 64, 90
10, 123539, Note_on_c, 6, 64, 0
10, 123540, Note_on_c, 6, 62, 90
10, 123659, Note_on_c, 6, 62, 0
10, 123660, Note_on_c, 6, 67, 90
10, 123719, Note_on_c, 6, 67, 0
10, 123720, Note_on_c, 6, 65, 90
10, 123779, Note_on_c, 6, 65, 0
10, 123780, Note_on_c, 6, 64, 90
10, 124139, Note_on_c, 6, 64, 0
10, 151620, Note_on_c, 6, 74, 90
10, 151679, Note_on_c, 6, 74, 0
10, 151680, Note_on_c, 6, 69, 90
10, 151799, Note_on_c, 6, 69, 0
10, 151800, Note_on_c, 6, 66, 90
10, 151919, Note_on_c, 6, 66, 0
10, 151920, Note_on_c, 6, 69, 90
10, 152039, Note_on_c, 6, 69, 0
10, 152040, Note_on_c, 6, 74, 90
10, 152129, Note_on_c, 6, 74, 0
10, 152130, Note_on_c, 6, 76, 90
10, 152159, Note_on_c, 6, 76, 0
10, 152160, Note_on_c, 6, 78, 90
10, 152279, Note_on_c, 6, 78, 0
10, 152280, Note_on_c, 6, 76, 90
10, 152339, Note_on_c, 6, 76, 0
10, 152340, Note_on_c, 6, 78, 90
10, 152399, Note_on_c, 6, 78, 0
10, 152400, Note_on_c, 6, 81, 90
10, 152429, Note_on_c, 6, 81, 0
10, 152430, Note_on_c, 6, 79, 90
10, 152459, Note_on_c, 6, 79, 0
10, 152460, Note_on_c, 6, 81, 90
10, 152489, Note_on_c, 6, 81, 0
10, 152490, Note_on_c, 6, 79, 90
10, 152519, Note_on_c, 6, 79, 0
10, 152520, Note_on_c, 6, 78, 90
10, 152549, Note_on_c, 6, 78, 0
10, 152550, Note_on_c, 6, 76, 90
10, 152579, Note_on_c, 6, 76, 0
10, 152580, Note_on_c, 6, 74, 90
10, 152610, Note_on_c, 6, 74, 0
10, 152700, Note_on_c, 6, 69, 90
10, 152730, Note_on_c, 6, 69, 0
10, 152820, Note_on_c, 6, 66, 90
10, 152850, Note_on_c, 6, 66, 0
10, 152940, Note_on_c, 6, 69, 90
10, 152970, Note_on_c, 6, 69, 0
10, 153060, Note_on_c, 6, 74, 90
10, 153089, Note_on_c, 6, 74, 0
10, 153090, Note_on_c, 6, 76, 90
10, 153119, Note_on_c, 6, 76, 0
10, 153120, Note_on_c, 6, 78, 90
10, 153239, Note_on_c, 6, 78, 0
10, 153240, Note_on_c, 6, 76, 90
10, 153299, Note_on_c, 6, 76, 0
10, 153300, Note_on_c, 6, 78, 90
10, 153359, Note_on_c, 6, 78, 0
10, 153360, Note_on_c, 6, 81, 90
10, 153389, Note_on_c, 6, 81, 0
10, 153390, Note_on_c, 6, 79, 90
10, 153419, Note_on_c, 6, 79, 0
10, 153420, Note_on_c, 6, 81, 90
10, 153449, Note_on_c, 6, 81, 0
10, 153450, Note_on_c, 6, 78, 90
10, 153479, Note_on_c, 6, 78, 0
10, 153480, Note_on_c, 6, 76, 90
10, 153509, Note_on_c, 6, 76, 0
10, 153510, Note_on_c, 6, 74, 90
10, 153539, Note_on_c, 6, 74, 0
10, 153540, Note_on_c, 6, 83, 90
10, 153569, Note_on_c, 6, 83, 0
10, 153570, Note_on_c, 6, 79, 90
10, 153599, Note_on_c, 6, 79, 0
10, 153600, Note_on_c, 6, 74, 90
10, 153629, Note_on_c, 6, 74, 0
10, 153630, Note_on_c, 6, 71, 90
10, 153659, Note_on_c, 6, 71, 0
10, 153660, Note_on_c, 6, 67, 90
10, 153689, Note_on_c, 6, 67, 0
10, 153690, Note_on_c, 6, 71, 90
10, 153719, Note_on_c, 6, 71, 0
10, 153720, Note_on_c, 6, 74, 90
10, 153749, Note_on_c, 6, 74, 0
10, 153750, Note_on_c, 6, 79, 90
10, 153779, Note_on_c, 6, 79, 0
10, 153780, Note_on_c, 6, 81, 90
10, 153809, Note_on_c, 6, 81, 0
10, 153810, Note_on_c, 6, 78, 90
10, 153839, Note_on_c, 6, 78, 0
10, 153840, Note_on_c, 6, 74, 90
10, 153869, Note_on_c, 6, 74, 0
10, 153870, Note_on_c, 6, 69, 90
10, 153899, Note_on_c, 6, 69, 0
10, 153900, Note_on_c, 6, 66, 90
10, 153929, Note_on_c, 6, 66, 0
10, 153930, Note_on_c, 6, 69, 90
10, 153959, Note_on_c, 6, 69, 0
10, 153960, Note_on_c, 6, 74, 90
10, 153989, Note_on_c, 6, 74, 0
10, 153990, Note_on_c, 6, 78, 90
10, 154019, Note_on_c, 6, 78, 0
10, 154020, Note_on_c, 6, 79, 90
10, 154049, Note_on_c, 6, 79, 0
10, 154050, Note_on_c, 6, 78, 90
10, 154079, Note_on_c, 6, 78, 0
10, 154080, Note_on_c, 6, 76, 90
10, 154109, Note_on_c, 6, 76, 0
10, 154110, Note_on_c, 6, 79, 90
10, 154139, Note_on_c, 6, 79, 0
10, 154140, Note_on_c, 6, 78, 90
10, 154169, Note_on_c, 6, 78, 0
10, 154170, Note_on_c, 6, 76, 90
10, 154199, Note_on_c, 6, 76, 0
10, 154200, Note_on_c, 6, 74, 90
10, 154229, Note_on_c, 6, 74, 0
10, 154230, Note_on_c, 6, 78, 90
10, 154259, Note_on_c, 6, 78, 0
10, 154260, Note_on_c, 6, 76, 90
10, 154289, Note_on_c, 6, 76, 0
10, 154290, Note_on_c, 6, 69, 90
10, 154319, Note_on_c, 6, 69, 0
10, 154320, Note_on_c, 6, 71, 90
10, 154349, Note_on_c, 6, 71, 0
10, 154350, Note_on_c, 6, 73, 90
10, 154379, Note_on_c, 6, 73, 0
10, 154380, Note_on_c, 6, 74, 90
10, 154409, Note_on_c, 6, 74, 0
10, 154410, Note_on_c, 6, 76, 90
10, 154439, Note_on_c, 6, 76, 0
10, 154440, Note_on_c, 6, 78, 90
10, 154469, Note_on_c, 6, 78, 0
10, 154470, Note_on_c, 6, 79, 90
10, 154499, Note_on_c, 6, 79, 0
10, 154500, Note_on_c, 6, 81, 90
10, 154529, Note_on_c, 6, 81, 0
10, 154530, Note_on_c, 6, 78, 90
10, 154559, Note_on_c, 6, 78, 0
10, 154560, Note_on_c, 6, 76, 90
10, 154589, Note_on_c, 6, 76, 0
10, 154590, Note_on_c, 6, 74, 90
10, 154619, Note_on_c, 6, 74, 0
10, 154620, Note_on_c, 6, 79, 90
10, 154679, Note_on_c, 6, 79, 0
10, 154680, Note_on_c, 6, 78, 90
10, 154739, Note_on_c, 6, 78, 0
10, 154740, Note_on_c, 6, 76, 90
10, 154979, Note_on_c, 6, 76, 0
10, 155280, Note_on_c, 6, 66, 90
10, 155309, Note_on_c, 6, 66, 0
10, 155310, Note_on_c, 6, 67, 90
10, 155339, Note_on_c, 6, 67, 0
10, 155340, Note_on_c, 6, 69, 90
10, 155399, Note_on_c, 6, 69, 0
10, 155760, Note_on_c, 6, 69, 90
10, 155789, Note_on_c, 6, 69, 0
10, 155820, Note_on_c, 6, 74, 90
10, 155849, Note_on_c, 6, 74, 0
10, 156240, Note_on_c, 6, 74, 90
10, 156269, Note_on_c, 6, 74, 0
10, 156270, Note_on_c, 6, 76, 90
10, 156299, Note_on_c, 6, 76, 0
10, 156300, Note_on_c, 6, 78, 90
10, 156359, Note_on_c, 6, 78, 0
10, 156720, Note_on_c, 6, 78, 90
10, 156749, Note_on_c, 6, 78, 0
10, 156750, Note_on_c, 6, 79, 90
10, 156779, Note_on_c, 6, 79, 0
10, 156780, Note_on_c, 6, 81, 90
10, 156839, Note_on_c, 6, 81, 0
10, 157020, Note_on_c, 6, 74, 90
10, 157079, Note_on_c, 6, 74, 0
10, 157260, Note_on_c, 6, 74, 90
10, 157319, Note_on_c, 6, 74, 0
10, 157440, Note_on_c, 6, 76, 90
10, 157499, Note_on_c, 6, 76, 0
10, 157500, Note_on_c, 6, 76, 90
10, 157559, Note_on_c, 6, 76, 0
10, 157560, Note_on_c, 6, 74, 90
10, 157619, Note_on_c, 6, 74, 0
10, 157620, Note_on_c, 6, 73, 90
10, 157649, Note_on_c, 6, 73, 0
10, 157650, Note_on_c, 6, 69, 90
10, 157679, Note_on_c, 6, 69, 0
10, 157680, Note_on_c, 6, 71, 90
10, 157709, Note_on_c, 6, 71, 0
10, 157710, Note_on_c, 6, 73, 90
10, 157739, Note_on_c, 6, 73, 0
10, 157740, Note_on_c, 6, 74, 90
10, 157769, Note_on_c, 6, 74, 0
10, 157770, Note_on_c, 6, 76, 90
10, 157799, Note_on_c, 6, 76, 0
10, 157800, Note_on_c, 6, 78, 90
10, 157829, Note_on_c, 6, 78, 0
10, 157830, Note_on_c, 6, 79, 90
10, 157859, Note_on_c, 6, 79, 0
10, 157860, Note_on_c, 6, 81, 90
10, 157889, Note_on_c, 6, 81, 0
10, 157890, Note_on_c, 6, 74, 90
10, 157919, Note_on_c, 6, 74, 0
10, 157920, Note_on_c, 6, 73, 90
10, 157949, Note_on_c, 6, 73, 0
10, 157950, Note_on_c, 6, 74, 90
10, 157979, Note_on_c, 6, 74, 0
10, 157980, Note_on_c, 6, 81, 90
10, 158039, Note_on_c, 6, 81, 0
10, 158040, Note_on_c, 6, 79, 90
10, 158069, Note_on_c, 6, 79, 0
10, 158070, Note_on_c, 6, 78, 90
10, 158099, Note_on_c, 6, 78, 0
10, 158100, Note_on_c, 6, 76, 90
10, 158129, Note_on_c, 6, 76, 0
10, 158130, Note_on_c, 6, 81, 90
10, 158159, Note_on_c, 6, 81, 0
10, 158160, Note_on_c, 6, 80, 90
10, 158189, Note_on_c, 6, 80, 0
10, 158190, Note_on_c, 6, 78, 90
10, 158219, Note_on_c, 6, 78, 0
10, 158220, Note_on_c, 6, 76, 90
10, 158249, Note_on_c, 6, 76, 0
10, 158250, Note_on_c, 6, 74, 90
10, 158279, Note_on_c, 6, 74, 0
10, 158280, Note_on_c, 6, 73, 90
10, 158309, Note_on_c, 6, 73, 0
10, 158310, Note_on_c, 6, 71, 90
10, 158339, Note_on_c, 6, 71, 0
10, 158340, Note_on_c, 6, 69, 90
10, 158399, Note_on_c, 6, 69, 0
10, 158640, Note_on_c, 6, 76, 90
10, 158669, Note_on_c, 6, 76, 0
10, 158670, Note_on_c, 6, 78, 90
10, 158699, Note_on_c, 6, 78, 0
10, 158700, Note_on_c, 6, 79, 90
10, 158759, Note_on_c, 6, 79, 0
10, 159090, Note_on_c, 6, 74, 90
10, 159119, Note_on_c, 6, 74, 0
10, 159120, Note_on_c, 6, 73, 90
10, 159149, Note_on_c, 6, 73, 0
10, 159150, Note_on_c, 6, 71, 90
10, 159179, Note_on_c, 6, 71, 0
10, 159180, Note_on_c, 6, 69, 90
10, 159209, Note_on_c, 6, 69, 0
10, 159210, Note_on_c, 6, 67, 90
10, 159239, Note_on_c, 6, 67, 0
10, 159240, Note_on_c, 6, 66, 90
10, 159269, Note_on_c, 6, 66, 0
10, 159270, Note_on_c, 6, 64, 90
10, 159299, Note_on_c, 6, 64, 0
10, 159300, Note_on_c, 6, 62, 90
10, 159359, Note_on_c, 6, 62, 0
10, 159600, Note_on_c, 6, 78, 90
10, 159629, Note_on_c, 6, 78, 0
10, 159630, Note_on_c, 6, 79, 90
10, 159659, Note_on_c, 6, 79, 0
10, 159660, Note_on_c, 6, 81, 90
10, 159719, Note_on_c, 6, 81, 0
10, 160200, Note_on_c, 6, 67, 90
10, 160259, Note_on_c, 6, 67, 0
10, 160260, Note_on_c, 6, 76, 90
10, 160559, Note_on_c, 6, 76, 0
10, 160560, Note_on_c, 6, 73, 90
10, 160619, Note_on_c, 6, 73, 0
10, 160620, Note_on_c, 6, 69, 90
10, 160679, Note_on_c, 6, 69, 0
10, 160680, Note_on_c, 6, 73, 90
10, 160739, Note_on_c, 6, 73, 0
10, 160740, Note_on_c, 6, 74, 90
10, 161039, Note_on_c, 6, 74, 0
10, 161040, Note_on_c, 6, 71, 90
10, 161099, Note_on_c, 6, 71, 0
10, 161100, Note_on_c, 6, 67, 90
10, 161159, Note_on_c, 6, 67, 0
10, 161160, Note_on_c, 6, 71, 90
10, 161219, Note_on_c, 6, 71, 0
10, 161220, Note_on_c, 6, 73, 90
10, 161279, Note_on_c, 6, 73, 0
10, 161340, Note_on_c, 6, 76, 90
10, 161370, Note_on_c, 6, 76, 0
10, 161460, Note_on_c, 6, 73, 90
10, 161490, Note_on_c, 6, 73, 0
10, 161580, Note_on_c, 6, 69, 90
10, 161610, Note_on_c, 6, 69, 0
10, 161700, Note_on_c, 6, 73, 90
10, 161730, Note_on_c, 6, 73, 0
10, 161820, Note_on_c, 6, 76, 90
10, 161850, Note_on_c, 6, 76, 0
10, 161940, Note_on_c, 6, 81, 90
10, 161970, Note_on_c, 6, 81, 0
10, 162060, Note_on_c, 6, 79, 90
10, 162090, Note_on_c, 6, 79, 0
10, 162180, Note_on_c, 6, 78, 90
10, 162210, Note_on_c, 6, 78, 0
10, 162300, Note_on_c, 6, 80, 90
10, 162330, Note_on_c, 6, 80, 0
10, 162420, Note_on_c, 6, 81, 90
10, 162479, Note_on_c, 6, 81, 0
10, 162480, Note_on_c, 6, 69, 90
10, 162509, Note_on_c, 6, 69, 0
10, 162510, Note_on_c, 6, 71, 90
10, 162539, Note_on_c, 6, 71, 0
10, 162540, Note_on_c, 6, 73, 90
10, 162569, Note_on_c, 6, 73, 0
10, 162570, Note_on_c, 6, 74, 90
10, 162599, Note_on_c, 6, 74, 0
10, 162600, Note_on_c, 6, 76, 90
10, 162629, Note_on_c, 6, 76, 0
10, 162630, Note_on_c, 6, 78, 90
10, 162659, Note_on_c, 6, 78, 0
10, 162660, Note_on_c, 6, 79, 90
10, 162719, Note_on_c, 6, 79, 0
10, 163380, Note_on_c, 6, 74, 90
10, 163439, Note_on_c, 6, 74, 0
10, 163440, Note_on_c, 6, 69, 90
10, 163559, Note_on_c, 6, 69, 0
10, 163560, Note_on_c, 6, 66, 90
10, 163679, Note_on_c, 6, 66, 0
10, 163680, Note_on_c, 6, 69, 90
10, 163799, Note_on_c, 6, 69, 0
10, 163800, Note_on_c, 6, 72, 90
10, 163919, Note_on_c, 6, 72, 0
10, 163920, Note_on_c, 6, 78, 90
10, 163949, Note_on_c, 6, 78, 0
10, 163950, Note_on_c, 6, 79, 90
10, 163979, Note_on_c, 6, 79, 0
10, 163980, Note_on_c, 6, 81, 90
10, 164039, Note_on_c, 6, 81, 0
10, 164040, Note_on_c, 6, 79, 90
10, 164099, Note_on_c, 6, 79, 0
10, 164100, Note_on_c, 6, 78, 90
10, 164159, Note_on_c, 6, 78, 0
10, 164160, Note_on_c, 6, 76, 90
10, 164189, Note_on_c, 6, 76, 0
10, 164190, Note_on_c, 6, 78, 90
10, 164219, Note_on_c, 6, 78, 0
10, 164220, Note_on_c, 6, 74, 90
10, 164399, Note_on_c, 6, 74, 0
10, 164400, Note_on_c, 6, 71, 90
10, 164519, Note_on_c, 6, 71, 0
10, 164520, Note_on_c, 6, 68, 90
10, 164639, Note_on_c, 6, 68, 0
10, 164640, Note_on_c, 6, 71, 90
10, 164759, Note_on_c, 6, 71, 0
10, 164760, Note_on_c, 6, 74, 90
10, 164879, Note_on_c, 6, 74, 0
10, 164880, Note_on_c, 6, 80, 90
10, 164909, Note_on_c, 6, 80, 0
10, 164910, Note_on_c, 6, 81, 90
10, 164939, Note_on_c, 6, 81, 0
10, 164940, Note_on_c, 6, 83, 90
10, 164999, Note_on_c, 6, 83, 0
10, 165000, Note_on_c, 6, 81, 90
10, 165059, Note_on_c, 6, 81, 0
10, 165060, Note_on_c, 6, 80, 90
10, 165119, Note_on_c, 6, 80, 0
10, 165120, Note_on_c, 6, 78, 90
10, 165149, Note_on_c, 6, 78, 0
10, 165150, Note_on_c, 6, 80, 90
10, 165179, Note_on_c, 6, 80, 0
10, 165180, Note_on_c, 6, 76, 90
10, 165239, Note_on_c, 6, 76, 0
10, 165240, Note_on_c, 6, 68, 90
10, 165299, Note_on_c, 6, 68, 0
10, 165300, Note_on_c, 6, 69, 90
10, 165330, Note_on_c, 6, 69, 0
10, 165420, Note_on_c, 6, 73, 90
10, 165450, Note_on_c, 6, 73, 0
10, 165540, Note_on_c, 6, 74, 90
10, 165570, Note_on_c, 6, 74, 0
10, 165660, Note_on_c, 6, 78, 90
10, 165690, Note_on_c, 6, 78, 0
10, 165780, Note_on_c, 6, 76, 90
10, 165810, Note_on_c, 6, 76, 0
10, 165900, Note_on_c, 6, 81, 90
10, 165930, Note_on_c, 6, 81, 0
10, 166080, Note_on_c, 6, 71, 90
10, 166139, Note_on_c, 6, 71, 0
10, 166140, Note_on_c, 6, 71, 90
10, 166199, Note_on_c, 6, 71, 0
10, 166200, Note_on_c, 6, 69, 90
10, 166259, Note_on_c, 6, 69, 0
10, 166260, Note_on_c, 6, 66, 90
10, 166319, Note_on_c, 6, 66, 0
10, 166500, Note_on_c, 6, 77, 100
10, 166920, Note_on_c, 6, 77, 0
10, 167460, Note_on_c, 6, 69, 90
10, 167519, Note_on_c, 6, 69, 0
10, 167520, Note_on_c, 6, 73, 90
10, 167639, Note_on_c, 6, 73, 0
10, 167640, Note_on_c, 6, 76, 90
10, 167759, Note_on_c, 6, 76, 0
10, 167760, Note_on_c, 6, 79, 90
10, 167879, Note_on_c, 6, 79, 0
10, 167880, Note_on_c, 6, 81, 90
10, 167909, Note_on_c, 6, 81, 0
10, 167910, Note_on_c, 6, 83, 90
10, 167939, Note_on_c, 6, 83, 0
10, 167940, Note_on_c, 6, 81, 90
10, 167999, Note_on_c, 6, 81, 0
10, 168000, Note_on_c, 6, 74, 90
10, 168059, Note_on_c, 6, 74, 0
10, 168060, Note_on_c, 6, 79, 90
10, 168119, Note_on_c, 6, 79, 0
10, 168120, Note_on_c, 6, 76, 90
10, 168179, Note_on_c, 6, 76, 0
10, 168180, Note_on_c, 6, 78, 90
10, 168209, Note_on_c, 6, 78, 0
10, 168210, Note_on_c, 6, 79, 90
10, 168239, Note_on_c, 6, 79, 0
10, 168240, Note_on_c, 6, 78, 90
10, 168269, Note_on_c, 6, 78, 0
10, 168270, Note_on_c, 6, 76, 90
10, 168299, Note_on_c, 6, 76, 0
10, 168300, Note_on_c, 6, 74, 90
10, 168359, Note_on_c, 6, 74, 0
10, 168360, Note_on_c, 6, 78, 90
10, 168479, Note_on_c, 6, 78, 0
10, 168480, Note_on_c, 6, 81, 90
10, 168599, Note_on_c, 6, 81, 0
10, 168600, Note_on_c, 6, 84, 90
10, 168689, Note_on_c, 6, 84, 0
10, 168690, Note_on_c, 6, 83, 90
10, 168719, Note_on_c, 6, 83, 0
10, 168720, Note_on_c, 6, 81, 90
10, 168749, Note_on_c, 6, 81, 0
10, 168750, Note_on_c, 6, 79, 90
10, 168779, Note_on_c, 6, 79, 0
10, 168780, Note_on_c, 6, 78, 90
10, 168809, Note_on_c, 6, 78, 0
10, 168810, Note_on_c, 6, 76, 90
10, 168839, Note_on_c, 6, 76, 0
10, 168840, Note_on_c, 6, 74, 90
10, 168869, Note_on_c, 6, 74, 0
10, 168870, Note_on_c, 6, 72, 90
10, 168899, Note_on_c, 6, 72, 0
10, 168900, Note_on_c, 6, 71, 90
10, 168959, Note_on_c, 6, 71, 0
10, 168960, Note_on_c, 6, 79, 90
10, 169079, Note_on_c, 6, 79, 0
10, 169080, Note_on_c, 6, 78, 90
10, 169139, Note_on_c, 6, 78, 0
10, 169140, Note_on_c, 6, 79, 90
10, 169199, Note_on_c, 6, 79, 0
10, 169290, Note_on_c, 6, 83, 90
10, 169319, Note_on_c, 6, 83, 0
10, 169320, Note_on_c, 6, 81, 90
10, 169349, Note_on_c, 6, 81, 0
10, 169350, Note_on_c, 6, 79, 90
10, 169379, Note_on_c, 6, 79, 0
10, 169380, Note_on_c, 6, 81, 90
10, 169409, Note_on_c, 6, 81, 0
10, 169410, Note_on_c, 6, 76, 90
10, 169439, Note_on_c, 6, 76, 0
10, 169440, Note_on_c, 6, 72, 90
10, 169469, Note_on_c, 6, 72, 0
10, 169470, Note_on_c, 6, 69, 90
10, 169499, Note_on_c, 6, 69, 0
10, 169500, Note_on_c, 6, 66, 90
10, 169529, Note_on_c, 6, 66, 0
10, 169530, Note_on_c, 6, 71, 90
10, 169559, Note_on_c, 6, 71, 0
10, 169560, Note_on_c, 6, 75, 90
10, 169589, Note_on_c, 6, 75, 0
10, 169590, Note_on_c, 6, 78, 90
10, 169619, Note_on_c, 6, 78, 0
10, 169620, Note_on_c, 6, 79, 90
10, 169649, Note_on_c, 6, 79, 0
10, 169650, Note_on_c, 6, 76, 90
10, 169679, Note_on_c, 6, 76, 0
10, 169680, Note_on_c, 6, 71, 90
10, 169709, Note_on_c, 6, 71, 0
10, 169710, Note_on_c, 6, 67, 90
10, 169739, Note_on_c, 6, 67, 0
10, 169740, Note_on_c, 6, 64, 90
10, 169769, Note_on_c, 6, 64, 0
10, 169770, Note_on_c, 6, 69, 90
10, 169799, Note_on_c, 6, 69, 0
10, 169800, Note_on_c, 6, 73, 90
10, 169829, Note_on_c, 6, 73, 0
10, 169830, Note_on_c, 6, 76, 90
10, 169859, Note_on_c, 6, 76, 0
10, 169860, Note_on_c, 6, 78, 90
10, 169889, Note_on_c, 6, 78, 0
10, 169890, Note_on_c, 6, 76, 90
10, 169919, Note_on_c, 6, 76, 0
10, 169920, Note_on_c, 6, 74, 90
10, 169949, Note_on_c, 6, 74, 0
10, 169950, Note_on_c, 6, 78, 90
10, 169979, Note_on_c, 6, 78, 0
10, 169980, Note_on_c, 6, 76, 90
10, 170009, Note_on_c, 6, 76, 0
10, 170010, Note_on_c, 6, 78, 90
10, 170039, Note_on_c, 6, 78, 0
10, 170040, Note_on_c, 6, 79, 90
10, 170069, Note_on_c, 6, 79, 0
10, 170070, Note_on_c, 6, 76, 90
10, 170099, Note_on_c, 6, 76, 0
10, 170100, Note_on_c, 6, 74, 90
10, 170129, Note_on_c, 6, 74, 0
10, 170130, Note_on_c, 6, 73, 90
10, 170159, Note_on_c, 6, 73, 0
10, 170160, Note_on_c, 6, 71, 90
10, 170189, Note_on_c, 6, 71, 0
10, 170190, Note_on_c, 6, 69, 90
10, 170219, Note_on_c, 6, 69, 0
10, 170220, Note_on_c, 6, 71, 90
10, 170249, Note_on_c, 6, 71, 0
10, 170250, Note_on_c, 6, 73, 90
10, 170279, Note_on_c, 6, 73, 0
10, 170280, Note_on_c, 6, 74, 90
10, 170309, Note_on_c, 6, 74, 0
10, 170310, Note_on_c, 6, 76, 90
10, 170339, Note_on_c, 6, 76, 0
10, 170340, Note_on_c, 6, 78, 90
10, 170369, Note_on_c, 6, 78, 0
10, 170370, Note_on_c, 6, 79, 90
10, 170399, Note_on_c, 6, 79, 0
10, 170400, Note_on_c, 6, 81, 90
10, 170429, Note_on_c, 6, 81, 0
10, 170430, Note_on_c, 6, 74, 90
10, 170459, Note_on_c, 6, 74, 0
10, 170460, Note_on_c, 6, 78, 90
10, 170489, Note_on_c, 6, 78, 0
10, 170490, Note_on_c, 6, 76, 90
10, 170519, Note_on_c, 6, 76, 0
10, 170520, Note_on_c, 6, 74, 90
10, 170549, Note_on_c, 6, 74, 0
10, 170550, Note_on_c, 6, 73, 90
10, 170579, Note_on_c, 6, 73, 0
10, 170580, Note_on_c, 6, 74, 90
10, 170820, Note_on_c, 6, 74, 0
10, 170820, Note_on_c, 6, 74, 90
10, 170879, Note_on_c, 6, 74, 0
10, 170940, Note_on_c, 6, 73, 90
10, 170999, Note_on_c, 6, 73, 0
10, 171060, Note_on_c, 6, 71, 90
10, 171119, Note_on_c, 6, 71, 0
10, 171180, Note_on_c, 6, 75, 90
10, 171239, Note_on_c, 6, 75, 0
10, 171360, Note_on_c, 6, 76, 90
10, 171419, Note_on_c, 6, 76, 0
10, 171420, Note_on_c, 6, 76, 90
10, 171479, Note_on_c, 6, 76, 0
10, 171480, Note_on_c, 6, 75, 90
10, 171539, Note_on_c, 6, 75, 0
10, 171540, Note_on_c, 6, 76, 90
10, 171599, Note_on_c, 6, 76, 0
10, 171600, Note_on_c, 6, 79, 90
10, 171629, Note_on_c, 6, 79, 0
10, 171630, Note_on_c, 6, 78, 90
10, 171659, Note_on_c, 6, 78, 0
10, 171660, Note_on_c, 6, 76, 90
10, 171689, Note_on_c, 6, 76, 0
10, 171690, Note_on_c, 6, 74, 90
10, 171719, Note_on_c, 6, 74, 0
10, 171720, Note_on_c, 6, 73, 90
10, 171749, Note_on_c, 6, 73, 0
10, 171750, Note_on_c, 6, 71, 90
10, 171779, Note_on_c, 6, 71, 0
10, 171780, Note_on_c, 6, 73, 90
10, 171839, Note_on_c, 6, 73, 0
10, 171900, Note_on_c, 6, 71, 90
10, 171959, Note_on_c, 6, 71, 0
10, 172020, Note_on_c, 6, 69, 90
10, 172079, Note_on_c, 6, 69, 0
10, 172140, Note_on_c, 6, 73, 90
10, 172199, Note_on_c, 6, 73, 0
10, 172320, Note_on_c, 6, 74, 90
10, 172379, Note_on_c, 6, 74, 0
10, 172380, Note_on_c, 6, 74, 90
10, 172439, Note_on_c, 6, 74, 0
10, 172440, Note_on_c, 6, 73, 90
10, 172499, Note_on_c, 6, 73, 0
10, 172500, Note_on_c, 6, 74, 90
10, 172529, Note_on_c, 6, 74, 0
10, 172530, Note_on_c, 6, 78, 90
10, 172559, Note_on_c, 6, 78, 0
10, 172560, Note_on_c, 6, 76, 90
10, 172589, Note_on_c, 6, 76, 0
10, 172590, Note_on_c, 6, 74, 90
10, 172619, Note_on_c, 6, 74, 0
10, 172620, Note_on_c, 6, 73, 90
10, 172649, Note_on_c, 6, 73, 0
10, 172650, Note_on_c, 6, 71, 90
10, 172679, Note_on_c, 6, 71, 0
10, 172680, Note_on_c, 6, 70, 90
10, 172709, Note_on_c, 6, 70, 0
10, 172710, Note_on_c, 6, 71, 90
10, 172739, Note_on_c, 6, 71, 0
10, 172740, Note_on_c, 6, 66, 90
10, 173580, Note_on_c, 6, 66, 0
10, 174600, Note_on_c, 6, 73, 90
10, 174659, Note_on_c, 6, 73, 0
10, 174660, Note_on_c, 6, 74, 90
10, 174689, Note_on_c, 6, 74, 0
10, 174690, Note_on_c, 6, 69, 90
10, 174719, Note_on_c, 6, 69, 0
10, 174720, Note_on_c, 6, 66, 90
10, 174749, Note_on_c, 6, 66, 0
10, 174750, Note_on_c, 6, 62, 90
10, 174779, Note_on_c, 6, 62, 0
10, 174780, Note_on_c, 6, 59, 90
10, 174809, Note_on_c, 6, 59, 0
10, 174810, Note_on_c, 6, 62, 90
10, 174839, Note_on_c, 6, 62, 0
10, 174840, Note_on_c, 6, 66, 90
10, 174869, Note_on_c, 6, 66, 0
10, 174870, Note_on_c, 6, 71, 90
10, 174899, Note_on_c, 6, 71, 0
10, 174900, Note_on_c, 6, 73, 90
10, 174929, Note_on_c, 6, 73, 0
10, 174930, Note_on_c, 6, 69, 90
10, 174959, Note_on_c, 6, 69, 0
10, 174960, Note_on_c, 6, 66, 90
10, 174989, Note_on_c, 6, 66, 0
10, 174990, Note_on_c, 6, 61, 90
10, 175019, Note_on_c, 6, 61, 0
10, 175020, Note_on_c, 6, 57, 90
10, 175049, Note_on_c, 6, 57, 0
10, 175050, Note_on_c, 6, 61, 90
10, 175079, Note_on_c, 6, 61, 0
10, 175080, Note_on_c, 6, 66, 90
10, 175109, Note_on_c, 6, 66, 0
10, 175110, Note_on_c, 6, 69, 90
10, 175139, Note_on_c, 6, 69, 0
10, 175140, Note_on_c, 6, 71, 90
10, 175169, Note_on_c, 6, 71, 0
10, 175170, Note_on_c, 6, 66, 90
10, 175199, Note_on_c, 6, 66, 0
10, 175200, Note_on_c, 6, 71, 90
10, 175229, Note_on_c, 6, 71, 0
10, 175230, Note_on_c, 6, 74, 90
10, 175259, Note_on_c, 6, 74, 0
10, 175260, Note_on_c, 6, 78, 90
10, 175289, Note_on_c, 6, 78, 0
10, 175290, Note_on_c, 6, 74, 90
10, 175319, Note_on_c, 6, 74, 0
10, 175320, Note_on_c, 6, 71, 90
10, 175349, Note_on_c, 6, 71, 0
10, 175350, Note_on_c, 6, 68, 90
10, 175379, Note_on_c, 6, 68, 0
10, 175380, Note_on_c, 6, 69, 90
10, 175409, Note_on_c, 6, 69, 0
10, 175410, Note_on_c, 6, 66, 90
10, 175439, Note_on_c, 6, 66, 0
10, 175440, Note_on_c, 6, 69, 90
10, 175469, Note_on_c, 6, 69, 0
10, 175470, Note_on_c, 6, 73, 90
10, 175499, Note_on_c, 6, 73, 0
10, 175500, Note_on_c, 6, 78, 90
10, 175529, Note_on_c, 6, 78, 0
10, 175530, Note_on_c, 6, 73, 90
10, 175559, Note_on_c, 6, 73, 0
10, 175560, Note_on_c, 6, 69, 90
10, 175589, Note_on_c, 6, 69, 0
10, 175590, Note_on_c, 6, 66, 90
10, 175619, Note_on_c, 6, 66, 0
10, 175620, Note_on_c, 6, 74, 90
10, 175679, Note_on_c, 6, 74, 0
10, 175740, Note_on_c, 6, 77, 90
10, 175799, Note_on_c, 6, 77, 0
10, 175860, Note_on_c, 6, 78, 90
10, 175919, Note_on_c, 6, 78, 0
10, 175980, Note_on_c, 6, 80, 90
10, 176039, Note_on_c, 6, 80, 0
10, 176100, Note_on_c, 6, 73, 90
10, 176159, Note_on_c, 6, 73, 0
10, 176160, Note_on_c, 6, 78, 90
10, 176279, Note_on_c, 6, 78, 0
10, 176280, Note_on_c, 6, 77, 90
10, 176339, Note_on_c, 6, 77, 0
10, 176340, Note_on_c, 6, 78, 90
10, 176399, Note_on_c, 6, 78, 0
10, 176400, Note_on_c, 6, 76, 90
10, 176429, Note_on_c, 6, 76, 0
10, 176430, Note_on_c, 6, 74, 90
10, 176459, Note_on_c, 6, 74, 0
10, 176460, Note_on_c, 6, 73, 90
10, 176489, Note_on_c, 6, 73, 0
10, 176490, Note_on_c, 6, 71, 90
10, 176519, Note_on_c, 6, 71, 0
10, 176520, Note_on_c, 6, 69, 90
10, 176549, Note_on_c, 6, 69, 0
10, 176550, Note_on_c, 6, 68, 90
10, 176579, Note_on_c, 6, 68, 0
10, 176580, Note_on_c, 6, 70, 90
10, 176639, Note_on_c, 6, 70, 0
10, 176640, Note_on_c, 6, 68, 90
10, 176759, Note_on_c, 6, 68, 0
10, 176760, Note_on_c, 6, 70, 90
10, 176789, Note_on_c, 6, 70, 0
10, 176790, Note_on_c, 6, 71, 90
10, 176819, Note_on_c, 6, 71, 0
10, 176820, Note_on_c, 6, 70, 90
10, 176879, Note_on_c, 6, 70, 0
10, 176880, Note_on_c, 6, 70, 90
10, 176999, Note_on_c, 6, 70, 0
10, 177000, Note_on_c, 6, 71, 90
10, 177029, Note_on_c, 6, 71, 0
10, 177030, Note_on_c, 6, 73, 90
10, 177059, Note_on_c, 6, 73, 0
10, 177060, Note_on_c, 6, 66, 90
10, 177089, Note_on_c, 6, 66, 0
10, 177120, Note_on_c, 6, 83, 90
10, 177149, Note_on_c, 6, 83, 0
10, 177180, Note_on_c, 6, 83, 90
10, 177209, Note_on_c, 6, 83, 0
10, 177240, Note_on_c, 6, 82, 90
10, 177269, Note_on_c, 6, 82, 0
10, 177300, Note_on_c, 6, 83, 90
10, 177329, Note_on_c, 6, 83, 0
10, 177540, Note_on_c, 6, 64, 90
10, 177599, Note_on_c, 6, 64, 0
10, 177600, Note_on_c, 6, 66, 90
10, 177719, Note_on_c, 6, 66, 0
10, 177720, Note_on_c, 6, 68, 90
10, 177749, Note_on_c, 6, 68, 0
10, 177750, Note_on_c, 6, 69, 90
10, 177779, Note_on_c, 6, 69, 0
10, 177780, Note_on_c, 6, 68, 90
10, 177839, Note_on_c, 6, 68, 0
10, 177840, Note_on_c, 6, 68, 90
10, 177959, Note_on_c, 6, 68, 0
10, 177960, Note_on_c, 6, 69, 90
10, 177989, Note_on_c, 6, 69, 0
10, 177990, Note_on_c, 6, 71, 90
10, 178019, Note_on_c, 6, 71, 0
10, 178020, Note_on_c, 6, 64, 90
10, 178049, Note_on_c, 6, 64, 0
10, 178080, Note_on_c, 6, 81, 90
10, 178109, Note_on_c, 6, 81, 0
10, 178140, Note_on_c, 6, 81, 90
10, 178169, Note_on_c, 6, 81, 0
10, 178200, Note_on_c, 6, 80, 90
10, 178229, Note_on_c, 6, 80, 0
10, 178260, Note_on_c, 6, 81, 90
10, 178289, Note_on_c, 6, 81, 0
10, 178620, Note_on_c, 6, 74, 90
10, 178679, Note_on_c, 6, 74, 0
10, 178860, Note_on_c, 6, 73, 90
10, 178919, Note_on_c, 6, 73, 0
10, 179100, Note_on_c, 6, 71, 90
10, 179159, Note_on_c, 6, 71, 0
10, 179340, Note_on_c, 6, 71, 90
10, 179399, Note_on_c, 6, 71, 0
10, 180420, Note_on_c, 6, 74, 90
10, 180479, Note_on_c, 6, 74, 0
10, 180480, Note_on_c, 6, 69, 90
10, 180599, Note_on_c, 6, 69, 0
10, 180600, Note_on_c, 6, 66, 90
10, 180719, Note_on_c, 6, 66, 0
10, 180720, Note_on_c, 6, 69, 90
10, 180839, Note_on_c, 6, 69, 0
10, 180840, Note_on_c, 6, 74, 90
10, 180929, Note_on_c, 6, 74, 0
10, 180930, Note_on_c, 6, 76, 90
10, 180959, Note_on_c, 6, 76, 0
10, 180960, Note_on_c, 6, 78, 90
10, 181079, Note_on_c, 6, 78, 0
10, 181080, Note_on_c, 6, 76, 90
10, 181139, Note_on_c, 6, 76, 0
10, 181140, Note_on_c, 6, 78, 90
10, 181199, Note_on_c, 6, 78, 0
10, 181200, Note_on_c, 6, 81, 90
10, 181229, Note_on_c, 6, 81, 0
10, 181230, Note_on_c, 6, 79, 90
10, 181259, Note_on_c, 6, 79, 0
10, 181260, Note_on_c, 6, 81, 90
10, 181289, Note_on_c, 6, 81, 0
10, 181290, Note_on_c, 6, 79, 90
10, 181319, Note_on_c, 6, 79, 0
10, 181320, Note_on_c, 6, 78, 90
10, 181349, Note_on_c, 6, 78, 0
10, 181350, Note_on_c, 6, 76, 90
10, 181379, Note_on_c, 6, 76, 0
10, 181380, Note_on_c, 6, 74, 90
10, 181410, Note_on_c, 6, 74, 0
10, 181500, Note_on_c, 6, 69, 90
10, 181530, Note_on_c, 6, 69, 0
10, 181620, Note_on_c, 6, 66, 90
10, 181650, Note_on_c, 6, 66, 0
10, 181740, Note_on_c, 6, 69, 90
10, 181770, Note_on_c, 6, 69, 0
10, 181860, Note_on_c, 6, 74, 90
10, 181889, Note_on_c, 6, 74, 0
10, 181890, Note_on_c, 6, 76, 90
10, 181919, Note_on_c, 6, 76, 0
10, 181920, Note_on_c, 6, 78, 90
10, 182039, Note_on_c, 6, 78, 0
10, 182040, Note_on_c, 6, 76, 90
10, 182099, Note_on_c, 6, 76, 0
10, 182100, Note_on_c, 6, 78, 90
10, 182159, Note_on_c, 6, 78, 0
10, 182160, Note_on_c, 6, 81, 90
10, 182189, Note_on_c, 6, 81, 0
10, 182190, Note_on_c, 6, 79, 90
10, 182219, Note_on_c, 6, 79, 0
10, 182220, Note_on_c, 6, 81, 90
10, 182249, Note_on_c, 6, 81, 0
10, 182250, Note_on_c, 6, 78, 90
10, 182279, Note_on_c, 6, 78, 0
10, 182280, Note_on_c, 6, 76, 90
10, 182309, Note_on_c, 6, 76, 0
10, 182310, Note_on_c, 6, 74, 90
10, 182339, Note_on_c, 6, 74, 0
10, 182340, Note_on_c, 6, 83, 90
10, 182369, Note_on_c, 6, 83, 0
10, 182370, Note_on_c, 6, 79, 90
10, 182399, Note_on_c, 6, 79, 0
10, 182400, Note_on_c, 6, 74, 90
10, 182429, Note_on_c, 6, 74, 0
10, 182430, Note_on_c, 6, 71, 90
10, 182459, Note_on_c, 6, 71, 0
10, 182460, Note_on_c, 6, 67, 90
10, 182489, Note_on_c, 6, 67, 0
10, 182490, Note_on_c, 6, 71, 90
10, 182519, Note_on_c, 6, 71, 0
10, 182520, Note_on_c, 6, 74, 90
10, 182549, Note_on_c, 6, 74, 0
10, 182550, Note_on_c, 6, 79, 90
10, 182579, Note_on_c, 6, 79, 0
10, 182580, Note_on_c, 6, 81, 90
10, 182609, Note_on_c, 6, 81, 0
10, 182610, Note_on_c, 6, 78, 90
10, 182639, Note_on_c, 6, 78, 0
10, 182640, Note_on_c, 6, 74, 90
10, 182669, Note_on_c, 6, 74, 0
10, 182670, Note_on_c, 6, 69, 90
10, 182699, Note_on_c, 6, 69, 0
10, 182700, Note_on_c, 6, 66, 90
10, 182729, Note_on_c, 6, 66, 0
10, 182730, Note_on_c, 6, 69, 90
10, 182759, Note_on_c, 6, 69, 0
10, 182760, Note_on_c, 6, 74, 90
10, 182789, Note_on_c, 6, 74, 0
10, 182790, Note_on_c, 6, 78, 90
10, 182819, Note_on_c, 6, 78, 0
10, 182820, Note_on_c, 6, 79, 90
10, 182849, Note_on_c, 6, 79, 0
10, 182850, Note_on_c, 6, 78, 90
10, 182879, Note_on_c, 6, 78, 0
10, 182880, Note_on_c, 6, 76, 90
10, 182909, Note_on_c, 6, 76, 0
10, 182910, Note_on_c, 6, 79, 90
10, 182939, Note_on_c, 6, 79, 0
10, 182940, Note_on_c, 6, 78, 90
10, 182969, Note_on_c, 6, 78, 0
10, 182970, Note_on_c, 6, 76, 90
10, 182999, Note_on_c, 6, 76, 0
10, 183000, Note_on_c, 6, 74, 90
10, 183029, Note_on_c, 6, 74, 0
10, 183030, Note_on_c, 6, 78, 90
10, 183059, Note_on_c, 6, 78, 0
10, 183060, Note_on_c, 6, 76, 90
10, 183089, Note_on_c, 6, 76, 0
10, 183090, Note_on_c, 6, 69, 90
10, 183119, Note_on_c, 6, 69, 0
10, 183120, Note_on_c, 6, 71, 90
10, 183149, Note_on_c, 6, 71, 0
10, 183150, Note_on_c, 6, 73, 90
10, 183179, Note_on_c, 6, 73, 0
10, 183180, Note_on_c, 6, 74, 90
10, 183209, Note_on_c, 6, 74, 0
10, 183210, Note_on_c, 6, 76, 90
10, 183239, Note_on_c, 6, 76, 0
10, 183240, Note_on_c, 6, 78, 90
10, 183269, Note_on_c, 6, 78, 0
10, 183270, Note_on_c, 6, 79, 90
10, 183299, Note_on_c, 6, 79, 0
10, 183300, Note_on_c, 6, 81, 90
10, 183329, Note_on_c, 6, 81, 0
10, 183330, Note_on_c, 6, 78, 90
10, 183359, Note_on_c, 6, 78, 0
10, 183360, Note_on_c, 6, 76, 90
10, 183389, Note_on_c, 6, 76, 0
10, 183390, Note_on_c, 6, 74, 90
10, 183419, Note_on_c, 6, 74, 0
10, 183420, Note_on_c, 6, 79, 90
10, 183479, Note_on_c, 6, 79, 0
10, 183480, Note_on_c, 6, 78, 90
10, 183539, Note_on_c, 6, 78, 0
10, 183540, Note_on_c, 6, 76, 90
10, 183779, Note_on_c, 6, 76, 0
10, 184080, Note_on_c, 6, 66, 90
10, 184109, Note_on_c, 6, 66, 0
10, 184110, Note_on_c, 6, 67, 90
10, 184139, Note_on_c, 6, 67, 0
10, 184140, Note_on_c, 6, 69, 90
10, 184199, Note_on_c, 6, 69, 0
10, 184560, Note_on_c, 6, 69, 90
10, 184589, Note_on_c, 6, 69, 0
10, 184620, Note_on_c, 6, 74, 90
10, 184649, Note_on_c, 6, 74, 0
10, 185040, Note_on_c, 6, 74, 90
10, 185069, Note_on_c, 6, 74, 0
10, 185070, Note_on_c, 6, 76, 90
10, 185099, Note_on_c, 6, 76, 0
10, 185100, Note_on_c, 6, 78, 90
10, 185159, Note_on_c, 6, 78, 0
10, 185520, Note_on_c, 6, 78, 90
10, 185549, Note_on_c, 6, 78, 0
10, 185550, Note_on_c, 6, 79, 90
10, 185579, Note_on_c, 6, 79, 0
10, 185580, Note_on_c, 6, 81, 90
10, 185639, Note_on_c, 6, 81, 0
10, 185820, Note_on_c, 6, 74, 90
10, 185879, Note_on_c, 6, 74, 0
10, 186060, Note_on_c, 6, 74, 90
10, 186119, Note_on_c, 6, 74, 0
10, 186240, Note_on_c, 6, 76, 90
10, 186299, Note_on_c, 6, 76, 0
10, 186300, Note_on_c, 6, 76, 90
10, 186359, Note_on_c, 6, 76, 0
10, 186360, Note_on_c, 6, 74, 90
10, 186419, Note_on_c, 6, 74, 0
10, 186420, Note_on_c, 6, 73, 90
10, 186449, Note_on_c, 6, 73, 0
10, 186450, Note_on_c, 6, 69, 90
10, 186479, Note_on_c, 6, 69, 0
10, 186480, Note_on_c, 6, 71, 90
10, 186509, Note_on_c, 6, 71, 0
10, 186510, Note_on_c, 6, 73, 90
10, 186539, Note_on_c, 6, 73, 0
10, 186540, Note_on_c, 6, 74, 90
10, 186569, Note_on_c, 6, 74, 0
10, 186570, Note_on_c, 6, 76, 90
10, 186599, Note_on_c, 6, 76, 0
10, 186600, Note_on_c, 6, 78, 90
10, 186629, Note_on_c, 6, 78, 0
10, 186630, Note_on_c, 6, 79, 90
10, 186659, Note_on_c, 6, 79, 0
10, 186660, Note_on_c, 6, 81, 90
10, 186689, Note_on_c, 6, 81, 0
10, 186690, Note_on_c, 6, 74, 90
10, 186719, Note_on_c, 6, 74, 0
10, 186720, Note_on_c, 6, 73, 90
10, 186749, Note_on_c, 6, 73, 0
10, 186750, Note_on_c, 6, 74, 90
10, 186779, Note_on_c, 6, 74, 0
10, 186780, Note_on_c, 6, 81, 90
10, 186839, Note_on_c, 6, 81, 0
10, 186840, Note_on_c, 6, 79, 90
10, 186869, Note_on_c, 6, 79, 0
10, 186870, Note_on_c, 6, 78, 90
10, 186899, Note_on_c, 6, 78, 0
10, 186900, Note_on_c, 6, 76, 90
10, 186929, Note_on_c, 6, 76, 0
10, 186930, Note_on_c, 6, 81, 90
10, 186959, Note_on_c, 6, 81, 0
10, 186960, Note_on_c, 6, 80, 90
10, 186989, Note_on_c, 6, 80, 0
10, 186990, Note_on_c, 6, 78, 90
10, 187019, Note_on_c, 6, 78, 0
10, 187020, Note_on_c, 6, 76, 90
10, 187049, Note_on_c, 6, 76, 0
10, 187050, Note_on_c, 6, 74, 90
10, 187079, Note_on_c, 6, 74, 0
10, 187080, Note_on_c, 6, 73, 90
10, 187109, Note_on_c, 6, 73, 0
10, 187110, Note_on_c, 6, 71, 90
10, 187139, Note_on_c, 6, 71, 0
10, 187140, Note_on_c, 6, 69, 90
10, 187199, Note_on_c, 6, 69, 0
10, 187440, Note_on_c, 6, 76, 90
10, 187469, Note_on_c, 6, 76, 0
10, 187470, Note_on_c, 6, 78, 90
10, 187499, Note_on_c, 6, 78, 0
10, 187500, Note_on_c, 6, 79, 90
10, 187559, Note_on_c, 6, 79, 0
10, 187890, Note_on_c, 6, 74, 90
10, 187919, Note_on_c, 6, 74, 0
10, 187920, Note_on_c, 6, 73, 90
10, 187949, Note_on_c, 6, 73, 0
10, 187950, Note_on_c, 6, 71, 90
10, 187979, Note_on_c, 6, 71, 0
10, 187980, Note_on_c, 6, 69, 90
10, 188009, Note_on_c, 6, 69, 0
10, 188010, Note_on_c, 6, 67, 90
10, 188039, Note_on_c, 6, 67, 0
10, 188040, Note_on_c, 6, 66, 90
10, 188069, Note_on_c, 6, 66, 0
10, 188070, Note_on_c, 6, 64, 90
10, 188099, Note_on_c, 6, 64, 0
10, 188100, Note_on_c, 6, 62, 90
10, 188159, Note_on_c, 6, 62, 0
10, 188400, Note_on_c, 6, 78, 90
10, 188429, Note_on_c, 6, 78, 0
10, 188430, Note_on_c, 6, 79, 90
10, 188459, Note_on_c, 6, 79, 0
10, 188460, Note_on_c, 6, 81, 90
10, 188519, Note_on_c, 6, 81, 0
10, 189000, Note_on_c, 6, 67, 90
10, 189059, Note_on_c, 6, 67, 0
10, 189060, Note_on_c, 6, 76, 90
10, 189359, Note_on_c, 6, 76, 0
10, 189360, Note_on_c, 6, 73, 90
10, 189419, Note_on_c, 6, 73, 0
10, 189420, Note_on_c, 6, 69, 90
10, 189479, Note_on_c, 6, 69, 0
10, 189480, Note_on_c, 6, 73, 90
10, 189539, Note_on_c, 6, 73, 0
10, 189540, Note_on_c, 6, 74, 90
10, 189839, Note_on_c, 6, 74, 0
10, 189840, Note_on_c, 6, 71, 90
10, 189899, Note_on_c, 6, 71, 0
10, 189900, Note_on_c, 6, 67, 90
10, 189959, Note_on_c, 6, 67, 0
10, 189960, Note_on_c, 6, 71, 90
10, 190019, Note_on_c, 6, 71, 0
10, 190020, Note_on_c, 6, 73, 90
10, 190079, Note_on_c, 6, 73, 0
10, 190140, Note_on_c, 6, 76, 90
10, 190170, Note_on_c, 6, 76, 0
10, 190260, Note_on_c, 6, 73, 90
10, 190290, Note_on_c, 6, 73, 0
10, 190380, Note_on_c, 6, 69, 90
10, 190410, Note_on_c, 6, 69, 0
10, 190500, Note_on_c, 6, 73, 90
10, 190530, Note_on_c, 6, 73, 0
10, 190620, Note_on_c, 6, 76, 90
10, 190650, Note_on_c, 6, 76, 0
10, 190740, Note_on_c, 6, 81, 90
10, 190770, Note_on_c, 6, 81, 0
10, 190860, Note_on_c, 6, 79, 90
10, 190890, Note_on_c, 6, 79, 0
10, 190980, Note_on_c, 6, 78, 90
10, 191010, Note_on_c, 6, 78, 0
10, 191100, Note_on_c, 6, 80, 90
10, 191130, Note_on_c, 6, 80, 0
10, 191220, Note_on_c, 6, 81, 90
10, 191279, Note_on_c, 6, 81, 0
10, 191280, Note_on_c, 6, 69, 90
10, 191309, Note_on_c, 6, 69, 0
10, 191310, Note_on_c, 6, 71, 90
10, 191339, Note_on_c, 6, 71, 0
10, 191340, Note_on_c, 6, 73, 90
10, 191369, Note_on_c, 6, 73, 0
10, 191370, Note_on_c, 6, 74, 90
10, 191399, Note_on_c, 6, 74, 0
10, 191400, Note_on_c, 6, 76, 90
10, 191429, Note_on_c, 6, 76, 0
10, 191430, Note_on_c, 6, 78, 90
10, 191459, Note_on_c, 6, 78, 0
10, 191460, Note_on_c, 6, 79, 90
10, 191519, Note_on_c, 6, 79, 0
10, 192180, Note_on_c, 6, 74, 90
10, 192239, Note_on_c, 6, 74, 0
10, 192240, Note_on_c, 6, 69, 90
10, 192359, Note_on_c, 6, 69, 0
10, 192360, Note_on_c, 6, 66, 90
10, 192479, Note_on_c, 6, 66, 0
10, 192480, Note_on_c, 6, 69, 90
10, 192599, Note_on_c, 6, 69, 0
10, 192600, Note_on_c, 6, 72, 90
10, 192719, Note_on_c, 6, 72, 0
10, 192720, Note_on_c, 6, 78, 90
10, 192749, Note_on_c, 6, 78, 0
10, 192750, Note_on_c, 6, 79, 90
10, 192779, Note_on_c, 6, 79, 0
10, 192780, Note_on_c, 6, 81, 90
10, 192839, Note_on_c, 6, 81, 0
10, 192840, Note_on_c, 6, 79, 90
10, 192899, Note_on_c, 6, 79, 0
10, 192900, Note_on_c, 6, 78, 90
10, 192959, Note_on_c, 6, 78, 0
10, 192960, Note_on_c, 6, 76, 90
10, 192989, Note_on_c, 6, 76, 0
10, 192990, Note_on_c, 6, 78, 90
10, 193019, Note_on_c, 6, 78, 0
10, 193020, Note_on_c, 6, 74, 90
10, 193199, Note_on_c, 6, 74, 0
10, 193200, Note_on_c, 6, 71, 90
10, 193319, Note_on_c, 6, 71, 0
10, 193320, Note_on_c, 6, 68, 90
10, 193439, Note_on_c, 6, 68, 0
10, 193440, Note_on_c, 6, 71, 90
10, 193559, Note_on_c, 6, 71, 0
10, 193560, Note_on_c, 6, 74, 90
10, 193679, Note_on_c, 6, 74, 0
10, 193680, Note_on_c, 6, 80, 90
10, 193709, Note_on_c, 6, 80, 0
10, 193710, Note_on_c, 6, 81, 90
10, 193739, Note_on_c, 6, 81, 0
10, 193740, Note_on_c, 6, 83, 90
10, 193799, Note_on_c, 6, 83, 0
10, 193800, Note_on_c, 6, 81, 90
10, 193859, Note_on_c, 6, 81, 0
10, 193860, Note_on_c, 6, 80, 90
10, 193919, Note_on_c, 6, 80, 0
10, 193920, Note_on_c, 6, 78, 90
10, 193949, Note_on_c, 6, 78, 0
10, 193950, Note_on_c, 6, 80, 90
10, 193979, Note_on_c, 6, 80, 0
10, 193980, Note_on_c, 6, 76, 90
10, 194039, Note_on_c, 6, 76, 0
10, 194040, Note_on_c, 6, 68, 90
10, 194099, Note_on_c, 6, 68, 0
10, 194100, Note_on_c, 6, 69, 90
10, 194130, Note_on_c, 6, 69, 0
10, 194220, Note_on_c, 6, 73, 90
10, 194250, Note_on_c, 6, 73, 0
10, 194340, Note_on_c, 6, 74, 90
10, 194370, Note_on_c, 6, 74, 0
10, 194460, Note_on_c, 6, 78, 90
10, 194490, Note_on_c, 6, 78, 0
10, 194580, Note_on_c, 6, 76, 90
10, 194610, Note_on_c, 6, 76, 0
10, 194700, Note_on_c, 6, 81, 90
10, 194730, Note_on_c, 6, 81, 0
10, 194880, Note_on_c, 6, 71, 90
10, 194939, Note_on_c, 6, 71, 0
10, 194940, Note_on_c, 6, 71, 90
10, 194999, Note_on_c, 6, 71, 0
10, 195000, Note_on_c, 6, 69, 90
10, 195059, Note_on_c, 6, 69, 0
10, 195060, Note_on_c, 6, 66, 90
10, 195119, Note_on_c, 6, 66, 0
10, 195300, Note_on_c, 6, 77, 100
10, 195720, Note_on_c, 6, 77, 0
10, 196260, Note_on_c, 6, 69, 90
10, 196319, Note_on_c, 6, 69, 0
10, 196320, Note_on_c, 6, 73, 90
10, 196439, Note_on_c, 6, 73, 0
10, 196440, Note_on_c, 6, 76, 90
10, 196559, Note_on_c, 6, 76, 0
10, 196560, Note_on_c, 6, 79, 90
10, 196679, Note_on_c, 6, 79, 0
10, 196680, Note_on_c, 6, 81, 90
10, 196709, Note_on_c, 6, 81, 0
10, 196710, Note_on_c, 6, 83, 90
10, 196739, Note_on_c, 6, 83, 0
10, 196740, Note_on_c, 6, 81, 90
10, 196799, Note_on_c, 6, 81, 0
10, 196800, Note_on_c, 6, 74, 90
10, 196859, Note_on_c, 6, 74, 0
10, 196860, Note_on_c, 6, 79, 90
10, 196919, Note_on_c, 6, 79, 0
10, 196920, Note_on_c, 6, 76, 90
10, 196979, Note_on_c, 6, 76, 0
10, 196980, Note_on_c, 6, 78, 90
10, 197009, Note_on_c, 6, 78, 0
10, 197010, Note_on_c, 6, 79, 90
10, 197039, Note_on_c, 6, 79, 0
10, 197040, Note_on_c, 6, 78, 90
10, 197069, Note_on_c, 6, 78, 0
10, 197070, Note_on_c, 6, 76, 90
10, 197099, Note_on_c, 6, 76, 0
10, 197100, Note_on_c, 6, 74, 90
10, 197159, Note_on_c, 6, 74, 0
10, 197160, Note_on_c, 6, 78, 90
10, 197279, Note_on_c, 6, 78, 0
10, 197280, Note_on_c, 6, 81, 90
10, 197399, Note_on_c, 6, 81, 0
10, 197400, Note_on_c, 6, 84, 90
10, 197489, Note_on_c, 6, 84, 0
10, 197490, Note_on_c, 6, 83, 90
10, 197519, Note_on_c, 6, 83, 0
10, 197520, Note_on_c, 6, 81, 90
10, 197549, Note_on_c, 6, 81, 0
10, 197550, Note_on_c, 6, 79, 90
10, 197579, Note_on_c, 6, 79, 0
10, 197580, Note_on_c, 6, 78, 90
10, 197609, Note_on_c, 6, 78, 0
10, 197610, Note_on_c, 6, 76, 90
10, 197639, Note_on_c, 6, 76, 0
10, 197640, Note_on_c, 6, 74, 90
10, 197669, Note_on_c, 6, 74, 0
10, 197670, Note_on_c, 6, 72, 90
10, 197699, Note_on_c, 6, 72, 0
10, 197700, Note_on_c, 6, 71, 90
10, 197759, Note_on_c, 6, 71, 0
10, 197760, Note_on_c, 6, 79, 90
10, 197879, Note_on_c, 6, 79, 0
10, 197880, Note_on_c, 6, 78, 90
10, 197939, Note_on_c, 6, 78, 0
10, 197940, Note_on_c, 6, 79, 90
10, 197999, Note_on_c, 6, 79, 0
10, 198090, Note_on_c, 6, 83, 90
10, 198119, Note_on_c, 6, 83, 0
10, 198120, Note_on_c, 6, 81, 90
10, 198149, Note_on_c, 6, 81, 0
10, 198150, Note_on_c, 6, 79, 90
10, 198179, Note_on_c, 6, 79, 0
10, 198180, Note_on_c, 6, 81, 90
10, 198209, Note_on_c, 6, 81, 0
10, 198210, Note_on_c, 6, 76, 90
10, 198239, Note_on_c, 6, 76, 0
10, 198240, Note_on_c, 6, 72, 90
10, 198269, Note_on_c, 6, 72, 0
10, 198270, Note_on_c, 6, 69, 90
10, 198299, Note_on_c, 6, 69, 0
10, 198300, Note_on_c, 6, 66, 90
10, 198329, Note_on_c, 6, 66, 0
10, 198330, Note_on_c, 6, 71, 90
10, 198359, Note_on_c, 6, 71, 0
10, 198360, Note_on_c, 6, 75, 90
10, 198389, Note_on_c, 6, 75, 0
10, 198390, Note_on_c, 6, 78, 90
10, 198419, Note_on_c, 6, 78, 0
10, 198420, Note_on_c, 6, 79, 90
10, 198449, Note_on_c, 6, 79, 0
10, 198450, Note_on_c, 6, 76, 90
10, 198479, Note_on_c, 6, 76, 0
10, 198480, Note_on_c, 6, 71, 90
10, 198509, Note_on_c, 6, 71, 0
10, 198510, Note_on_c, 6, 67, 90
10, 198539, Note_on_c, 6, 67, 0
10, 198540, Note_on_c, 6, 64, 90
10, 198569, Note_on_c, 6, 64, 0
10, 198570, Note_on_c, 6, 69, 90
10, 198599, Note_on_c, 6, 69, 0
10, 198600, Note_on_c, 6, 73, 90
10, 198629, Note_on_c, 6, 73, 0
10, 198630, Note_on_c, 6, 76, 90
10, 198659, Note_on_c, 6, 76, 0
10, 198660, Note_on_c, 6, 78, 90
10, 198689, Note_on_c, 6, 78, 0
10, 198690, Note_on_c, 6, 76, 90
10, 198719, Note_on_c, 6, 76, 0
10, 198720, Note_on_c, 6, 74, 90
10, 198749, Note_on_c, 6, 74, 0
10, 198750, Note_on_c, 6, 78, 90
10, 198779, Note_on_c, 6, 78, 0
10, 198780, Note_on_c, 6, 76, 90
10, 198809, Note_on_c, 6, 76, 0
10, 198810, Note_on_c, 6, 78, 90
10, 198839, Note_on_c, 6, 78, 0
10, 198840, Note_on_c, 6, 79, 90
10, 198869, Note_on_c, 6, 79, 0
10, 198870, Note_on_c, 6, 76, 90
10, 198899, Note_on_c, 6, 76, 0
10, 198900, Note_on_c, 6, 74, 90
10, 198929, Note_on_c, 6, 74, 0
10, 198930, Note_on_c, 6, 73, 90
10, 198959, Note_on_c, 6, 73, 0
10, 198960, Note_on_c, 6, 71, 90
10, 198989, Note_on_c, 6, 71, 0
10, 198990, Note_on_c, 6, 69, 90
10, 199019, Note_on_c, 6, 69, 0
10, 199020, Note_on_c, 6, 71, 90
10, 199049, Note_on_c, 6, 71, 0
10, 199050, Note_on_c, 6, 73, 90
10, 199079, Note_on_c, 6, 73, 0
10, 199080, Note_on_c, 6, 74, 90
10, 199109, Note_on_c, 6, 74, 0
10, 199110, Note_on_c, 6, 76, 90
10, 199139, Note_on_c, 6, 76, 0
10, 199140, Note_on_c, 6, 78, 90
10, 199169, Note_on_c, 6, 78, 0
10, 199170, Note_on_c, 6, 79, 90
10, 199199, Note_on_c, 6, 79, 0
10, 199200, Note_on_c, 6, 81, 90
10, 199229, Note_on_c, 6, 81, 0
10, 199230, Note_on_c, 6, 74, 90
10, 199259, Note_on_c, 6, 74, 0
10, 199260, Note_on_c, 6, 78, 90
10, 199289, Note_on_c, 6, 78, 0
10, 199290, Note_on_c, 6, 76, 90
10, 199319, Note_on_c, 6, 76, 0
10, 199320, Note_on_c, 6, 74, 90
10, 199349, Note_on_c, 6, 74, 0
10, 199350, Note_on_c, 6, 73, 90
10, 199379, Note_on_c, 6, 73, 0
10, 199380, Note_on_c, 6, 74, 90
10, 199620, Note_on_c, 6, 74, 0
10, 199980, Note_on_c, 6, 74, 90
10, 200099, Note_on_c, 6, 74, 0
10, 200100, Note_on_c, 6, 73, 90
10, 200219, Note_on_c, 6, 73, 0
10, 200220, Note_on_c, 6, 71, 90
10, 200339, Note_on_c, 6, 71, 0
10, 200340, Note_on_c, 6, 73, 90
10, 200459, Note_on_c, 6, 73, 0
10, 200460, Note_on_c, 6, 69, 90
10, 200579, Note_on_c, 6, 69, 0
10, 200580, Note_on_c, 6, 71, 90
10, 200699, Note_on_c, 6, 71, 0
10, 200700, Note_on_c, 6, 73, 90
10, 200819, Note_on_c, 6, 73, 0
10, 200820, Note_on_c, 6, 74, 90
10, 200939, Note_on_c, 6, 74, 0
10, 201660, Note_on_c, 6, 74, 90
10, 201779, Note_on_c, 6, 74, 0
10, 201780, Note_on_c, 6, 74, 90
10, 201899, Note_on_c, 6, 74, 0
10, 201900, Note_on_c, 6, 69, 90
10, 202019, Note_on_c, 6, 69, 0
10, 202020, Note_on_c, 6, 69, 90
10, 202139, Note_on_c, 6, 69, 0
10, 202140, Note_on_c, 6, 66, 90
10, 202199, Note_on_c, 6, 66, 0
10, 202200, Note_on_c, 6, 67, 90
10, 202259, Note_on_c, 6, 67, 0
10, 202260, Note_on_c, 6, 69, 90
10, 202379, Note_on_c, 6, 69, 0
10, 202380, Note_on_c, 6, 67, 90
10, 202499, Note_on_c, 6, 67, 0
10, 202500, Note_on_c, 6, 66, 90
10, 202619, Note_on_c, 6, 66, 0
10, 203340, Note_on_c, 6, 66, 90
10, 203459, Note_on_c, 6, 66, 0
10, 203460, Note_on_c, 6, 71, 90
10, 203579, Note_on_c, 6, 71, 0
10, 203580, Note_on_c, 6, 71, 90
10, 203699, Note_on_c, 6, 71, 0
10, 203700, Note_on_c, 6, 69, 90
10, 203759, Note_on_c, 6, 69, 0
10, 203760, Note_on_c, 6, 71, 90
10, 203819, Note_on_c, 6, 71, 0
10, 203820, Note_on_c, 6, 73, 90
10, 203939, Note_on_c, 6, 73, 0
10, 203940, Note_on_c, 6, 74, 90
10, 203999, Note_on_c, 6, 74, 0
10, 204000, Note_on_c, 6, 73, 90
10, 204059, Note_on_c, 6, 73, 0
10, 204060, Note_on_c, 6, 71, 90
10, 204179, Note_on_c, 6, 71, 0
10, 204180, Note_on_c, 6, 69, 90
10, 204299, Note_on_c, 6, 69, 0
10, 205020, Note_on_c, 6, 74, 90
10, 205139, Note_on_c, 6, 74, 0
10, 205140, Note_on_c, 6, 73, 90
10, 205259, Note_on_c, 6, 73, 0
10, 205260, Note_on_c, 6, 71, 90
10, 205379, Note_on_c, 6, 71, 0
10, 205380, Note_on_c, 6, 69, 90
10, 205499, Note_on_c, 6, 69, 0
10, 205500, Note_on_c, 6, 71, 90
10, 205559, Note_on_c, 6, 71, 0
10, 205560, Note_on_c, 6, 69, 90
10, 205619, Note_on_c, 6, 69, 0
10, 205620, Note_on_c, 6, 67, 90
10, 205679, Note_on_c, 6, 67, 0
10, 205680, Note_on_c, 6, 66, 90
10, 205739, Note_on_c, 6, 66, 0
10, 205740, Note_on_c, 6, 64, 90
10, 205859, Note_on_c, 6, 64, 0
10, 205860, Note_on_c, 6, 62, 90
10, 205979, Note_on_c, 6, 62, 0
10, 205979, End_track
11, 0, Start_track
11, 0, MIDI_port, 0
11, 0, Title_t, "Violino II"
11, 0, Program_c, 7, 48
11, 915, Note_on_c, 7, 74, 90
11, 929, Note_on_c, 7, 74, 0
11, 930, Note_on_c, 7, 73, 90
11, 944, Note_on_c, 7, 73, 0
11, 945, Note_on_c, 7, 71, 90
11, 959, Note_on_c, 7, 71, 0
11, 960, Note_on_c, 7, 69, 90
11, 974, Note_on_c, 7, 69, 0
11, 975, Note_on_c, 7, 74, 90
11, 989, Note_on_c, 7, 74, 0
11, 990, Note_on_c, 7, 73, 90
11, 1004, Note_on_c, 7, 73, 0
11, 1005, Note_on_c, 7, 71, 90
11, 1019, Note_on_c, 7, 71, 0
11, 1020, Note_on_c, 7, 69, 90
11, 1034, Note_on_c, 7, 69, 0
11, 1035, Note_on_c, 7, 67, 90
11, 1049, Note_on_c, 7, 67, 0
11, 1050, Note_on_c, 7, 66, 90
11, 1064, Note_on_c, 7, 66, 0
11, 1065, Note_on_c, 7, 64, 90
11, 1079, Note_on_c, 7, 64, 0
11, 1080, Note_on_c, 7, 66, 90
11, 1094, Note_on_c, 7, 66, 0
11, 1095, Note_on_c, 7, 71, 90
11, 1109, Note_on_c, 7, 71, 0
11, 1110, Note_on_c, 7, 69, 90
11, 1124, Note_on_c, 7, 69, 0
11, 1125, Note_on_c, 7, 67, 90
11, 1139, Note_on_c, 7, 67, 0
11, 1140, Note_on_c, 7, 66, 90
11, 1154, Note_on_c, 7, 66, 0
11, 1155, Note_on_c, 7, 71, 90
11, 1169, Note_on_c, 7, 71, 0
11, 1170, Note_on_c, 7, 69, 90
11, 1184, Note_on_c, 7, 69, 0
11, 1185, Note_on_c, 7, 67, 90
11, 1199, Note_on_c, 7, 67, 0
11, 1200, Note_on_c, 7, 66, 90
11, 1214, Note_on_c, 7, 66, 0
11, 1215, Note_on_c, 7, 64, 90
11, 1229, Note_on_c, 7, 64, 0
11, 1230, Note_on_c, 7, 62, 90
11, 1244, Note_on_c, 7, 62, 0
11, 1245, Note_on_c, 7, 61, 90
11, 1259, Note_on_c, 7, 61, 0
11, 1260, Note_on_c, 7, 62, 90
11, 1274, Note_on_c, 7, 62, 0
11, 1275, Note_on_c, 7, 59, 90
11, 1289, Note_on_c, 7, 59, 0
11, 1290, Note_on_c, 7, 57, 90
11, 1304, Note_on_c, 7, 57, 0
11, 1305, Note_on_c, 7, 55, 90
11, 1319, Note_on_c, 7, 55, 0
11, 1320, Note_on_c, 7, 57, 90
11, 1334, Note_on_c, 7, 57, 0
11, 1335, Note_on_c, 7, 59, 90
11, 1349, Note_on_c, 7, 59, 0
11, 1350, Note_on_c, 7, 57, 90
11, 1364, Note_on_c, 7, 57, 0
11, 1365, Note_on_c, 7, 55, 90
11, 1379, Note_on_c, 7, 55, 0
11, 1380, Note_on_c, 7, 57, 90
11, 1394, Note_on_c, 7, 57, 0
11, 1395, Note_on_c, 7, 59, 90
11, 1409, Note_on_c, 7, 59, 0
11, 1410, Note_on_c, 7, 57, 90
11, 1424, Note_on_c, 7, 57, 0
11, 1425, Note_on_c, 7, 55, 90
11, 1439, Note_on_c, 7, 55, 0
11, 1440, Note_on_c, 7, 57, 90
11, 1457, Note_on_c, 7, 57, 0
11, 1470, Note_on_c, 7, 57, 90
11, 1487, Note_on_c, 7, 57, 0
11, 1500, Note_on_c, 7, 57, 90
11, 1517, Note_on_c, 7, 57, 0
11, 1530, Note_on_c, 7, 57, 90
11, 1547, Note_on_c, 7, 57, 0
11, 1560, Note_on_c, 7, 57, 90
11, 1577, Note_on_c, 7, 57, 0
11, 1590, Note_on_c, 7, 57, 90
11, 1607, Note_on_c, 7, 57, 0
11, 1620, Note_on_c, 7, 57, 90
11, 1637, Note_on_c, 7, 57, 0
11, 1650, Note_on_c, 7, 57, 90
11, 1667, Note_on_c, 7, 57, 0
11, 1680, Note_on_c, 7, 57, 90
11, 1697, Note_on_c, 7, 57, 0
11, 1710, Note_on_c, 7, 57, 90
11, 1727, Note_on_c, 7, 57, 0
11, 1740, Note_on_c, 7, 57, 90
11, 1757, Note_on_c, 7, 57, 0
11, 1770, Note_on_c, 7, 57, 90
11, 1787, Note_on_c, 7, 57, 0
11, 1800, Note_on_c, 7, 57, 90
11, 1817, Note_on_c, 7, 57, 0
11, 1830, Note_on_c, 7, 57, 90
11, 1847, Note_on_c, 7, 57, 0
11, 1860, Note_on_c, 7, 57, 90
11, 1877, Note_on_c, 7, 57, 0
11, 1890, Note_on_c, 7, 57, 90
11, 1907, Note_on_c, 7, 57, 0
11, 1920, Note_on_c, 7, 57, 90
11, 1937, Note_on_c, 7, 57, 0
11, 1950, Note_on_c, 7, 57, 90
11, 1967, Note_on_c, 7, 57, 0
11, 1980, Note_on_c, 7, 57, 90
11, 1997, Note_on_c, 7, 57, 0
11, 2010, Note_on_c, 7, 57, 90
11, 2027, Note_on_c, 7, 57, 0
11, 2040, Note_on_c, 7, 57, 90
11, 2057, Note_on_c, 7, 57, 0
11, 2070, Note_on_c, 7, 57, 90
11, 2087, Note_on_c, 7, 57, 0
11, 2100, Note_on_c, 7, 74, 90
11, 2129, Note_on_c, 7, 74, 0
11, 2130, Note_on_c, 7, 71, 90
11, 2159, Note_on_c, 7, 71, 0
11, 2160, Note_on_c, 7, 72, 90
11, 2189, Note_on_c, 7, 72, 0
11, 2220, Note_on_c, 7, 69, 90
11, 2249, Note_on_c, 7, 69, 0
11, 2280, Note_on_c, 7, 69, 90
11, 2309, Note_on_c, 7, 69, 0
11, 2340, Note_on_c, 7, 69, 90
11, 2355, Note_on_c, 7, 69, 0
11, 2355, Note_on_c, 7, 71, 90
11, 2370, Note_on_c, 7, 71, 0
11, 2370, Note_on_c, 7, 69, 90
11, 2400, Note_on_c, 7, 69, 0
11, 2400, Note_on_c, 7, 67, 90
11, 2459, Note_on_c, 7, 67, 0
11, 2460, Note_on_c, 7, 76, 90
11, 2519, Note_on_c, 7, 76, 0
11, 2520, Note_on_c, 7, 69, 90
11, 2549, Note_on_c, 7, 69, 0
11, 2550, Note_on_c, 7, 71, 90
11, 2579, Note_on_c, 7, 71, 0
11, 2580, Note_on_c, 7, 73, 90
11, 2639, Note_on_c, 7, 73, 0
11, 2640, Note_on_c, 7, 74, 90
11, 2699, Note_on_c, 7, 74, 0
11, 2700, Note_on_c, 7, 73, 90
11, 2819, Note_on_c, 7, 73, 0
11, 2820, Note_on_c, 7, 73, 90
11, 2879, Note_on_c, 7, 73, 0
11, 2880, Note_on_c, 7, 72, 90
11, 2939, Note_on_c, 7, 72, 0
11, 2940, Note_on_c, 7, 72, 90
11, 2999, Note_on_c, 7, 72, 0
11, 3000, Note_on_c, 7, 72, 90
11, 3059, Note_on_c, 7, 72, 0
11, 3060, Note_on_c, 7, 66, 90
11, 3119, Note_on_c, 7, 66, 0
11, 3120, Note_on_c, 7, 66, 90
11, 3179, Note_on_c, 7, 66, 0
11, 3180, Note_on_c, 7, 66, 90
11, 3239, Note_on_c, 7, 66, 0
11, 3240, Note_on_c, 7, 64, 90
11, 3299, Note_on_c, 7, 64, 0
11, 3300, Note_on_c, 7, 76, 90
11, 3359, Note_on_c, 7, 76, 0
11, 3360, Note_on_c, 7, 75, 90
11, 3419, Note_on_c, 7, 75, 0
11, 3420, Note_on_c, 7, 76, 90
11, 3479, Note_on_c, 7, 76, 0
11, 3480, Note_on_c, 7, 71, 90
11, 3539, Note_on_c, 7, 71, 0
11, 3540, Note_on_c, 7, 71, 90
11, 3599, Note_on_c, 7, 71, 0
11, 3600, Note_on_c, 7, 76, 90
11, 3629, Note_on_c, 7, 76, 0
11, 3630, Note_on_c, 7, 79, 90
11, 3644, Note_on_c, 7, 79, 0
11, 3645, Note_on_c, 7, 78, 90
11, 3659, Note_on_c, 7, 78, 0
11, 3660, Note_on_c, 7, 76, 90
11, 3689, Note_on_c, 7, 76, 0
11, 3690, Note_on_c, 7, 79, 90
11, 3704, Note_on_c, 7, 79, 0
11, 3705, Note_on_c, 7, 78, 90
11, 3719, Note_on_c, 7, 78, 0
11, 3720, Note_on_c, 7, 76, 90
11, 3809, Note_on_c, 7, 76, 0
11, 3810, Note_on_c, 7, 73, 90
11, 3824, Note_on_c, 7, 73, 0
11, 3825, Note_on_c, 7, 74, 90
11, 3839, Note_on_c, 7, 74, 0
11, 3840, Note_on_c, 7, 76, 90
11, 3869, Note_on_c, 7, 76, 0
11, 3870, Note_on_c, 7, 73, 90
11, 3884, Note_on_c, 7, 73, 0
11, 3885, Note_on_c, 7, 74, 90
11, 3899, Note_on_c, 7, 74, 0
11, 3900, Note_on_c, 7, 76, 90
11, 3989, Note_on_c, 7, 76, 0
11, 3990, Note_on_c, 7, 78, 90
11, 4004, Note_on_c, 7, 78, 0
11, 4005, Note_on_c, 7, 76, 90
11, 4019, Note_on_c, 7, 76, 0
11, 4020, Note_on_c, 7, 74, 90
11, 4049, Note_on_c, 7, 74, 0
11, 4080, Note_on_c, 7, 73, 90
11, 4109, Note_on_c, 7, 73, 0
11, 4140, Note_on_c, 7, 74, 90
11, 4169, Note_on_c, 7, 74, 0
11, 4170, Note_on_c, 7, 78, 90
11, 4184, Note_on_c, 7, 78, 0
11, 4185, Note_on_c, 7, 76, 90
11, 4199, Note_on_c, 7, 76, 0
11, 4200, Note_on_c, 7, 74, 90
11, 4229, Note_on_c, 7, 74, 0
11, 4230, Note_on_c, 7, 78, 90
11, 4244, Note_on_c, 7, 78, 0
11, 4245, Note_on_c, 7, 76, 90
11, 4259, Note_on_c, 7, 76, 0
11, 4260, Note_on_c, 7, 74, 90
11, 4349, Note_on_c, 7, 74, 0
11, 4380, Note_on_c, 7, 74, 90
11, 4409, Note_on_c, 7, 74, 0
11, 4440, Note_on_c, 7, 78, 90
11, 4469, Note_on_c, 7, 78, 0
11, 4500, Note_on_c, 7, 76, 90
11, 4529, Note_on_c, 7, 76, 0
11, 4560, Note_on_c, 7, 71, 90
11, 4589, Note_on_c, 7, 71, 0
11, 4620, Note_on_c, 7, 76, 90
11, 4740, Note_on_c, 7, 76, 0
11, 4740, Note_on_c, 7, 73, 90
11, 4769, Note_on_c, 7, 73, 0
11, 4800, Note_on_c, 7, 76, 90
11, 4829, Note_on_c, 7, 76, 0
11, 4860, Note_on_c, 7, 74, 90
11, 4889, Note_on_c, 7, 74, 0
11, 4920, Note_on_c, 7, 69, 90
11, 4949, Note_on_c, 7, 69, 0
11, 4980, Note_on_c, 7, 74, 90
11, 5100, Note_on_c, 7, 74, 0
11, 5100, Note_on_c, 7, 69, 90
11, 5129, Note_on_c, 7, 69, 0
11, 5160, Note_on_c, 7, 69, 90
11, 5189, Note_on_c, 7, 69, 0
11, 5220, Note_on_c, 7, 71, 90
11, 5249, Note_on_c, 7, 71, 0
11, 5400, Note_on_c, 7, 76, 90
11, 5429, Note_on_c, 7, 76, 0
11, 5580, Note_on_c, 7, 78, 90
11, 5609, Note_on_c, 7, 78, 0
11, 5640, Note_on_c, 7, 81, 90
11, 5669, Note_on_c, 7, 81, 0
11, 5700, Note_on_c, 7, 69, 90
11, 5729, Note_on_c, 7, 69, 0
11, 5760, Note_on_c, 7, 69, 90
11, 5789, Note_on_c, 7, 69, 0
11, 5970, Note_on_c, 7, 62, 90
11, 5984, Note_on_c, 7, 62, 0
11, 5985, Note_on_c, 7, 64, 90
11, 5999, Note_on_c, 7, 64, 0
11, 6000, Note_on_c, 7, 66, 90
11, 6014, Note_on_c, 7, 66, 0
11, 6015, Note_on_c, 7, 64, 90
11, 6029, Note_on_c, 7, 64, 0
11, 6030, Note_on_c, 7, 66, 90
11, 6044, Note_on_c, 7, 66, 0
11, 6045, Note_on_c, 7, 64, 90
11, 6059, Note_on_c, 7, 64, 0
11, 6060, Note_on_c, 7, 66, 90
11, 6074, Note_on_c, 7, 66, 0
11, 6075, Note_on_c, 7, 64, 90
11, 6089, Note_on_c, 7, 64, 0
11, 6090, Note_on_c, 7, 62, 90
11, 6104, Note_on_c, 7, 62, 0
11, 6105, Note_on_c, 7, 64, 90
11, 6119, Note_on_c, 7, 64, 0
11, 6120, Note_on_c, 7, 66, 90
11, 6179, Note_on_c, 7, 66, 0
11, 6300, Note_on_c, 7, 69, 90
11, 6359, Note_on_c, 7, 69, 0
11, 6480, Note_on_c, 7, 66, 90
11, 6539, Note_on_c, 7, 66, 0
11, 6660, Note_on_c, 7, 57, 90
11, 6719, Note_on_c, 7, 57, 0
11, 6840, Note_on_c, 7, 62, 90
11, 6899, Note_on_c, 7, 62, 0
11, 7035, Note_on_c, 7, 74, 90
11, 7049, Note_on_c, 7, 74, 0
11, 7050, Note_on_c, 7, 73, 90
11, 7064, Note_on_c, 7, 73, 0
11, 7065, Note_on_c, 7, 71, 90
11, 7079, Note_on_c, 7, 71, 0
11, 7080, Note_on_c, 7, 69, 90
11, 7094, Note_on_c, 7, 69, 0
11, 7095, Note_on_c, 7, 74, 90
11, 7109, Note_on_c, 7, 74, 0
11, 7110, Note_on_c, 7, 73, 90
11, 7124, Note_on_c, 7, 73, 0
11, 7125, Note_on_c, 7, 71, 90
11, 7139, Note_on_c, 7, 71, 0
11, 7140, Note_on_c, 7, 69, 90
11, 7154, Note_on_c, 7, 69, 0
11, 7155, Note_on_c, 7, 67, 90
11, 7169, Note_on_c, 7, 67, 0
11, 7170, Note_on_c, 7, 66, 90
11, 7184, Note_on_c, 7, 66, 0
11, 7185, Note_on_c, 7, 64, 90
11, 7199, Note_on_c, 7, 64, 0
11, 7200, Note_on_c, 7, 66, 90
11, 7214, Note_on_c, 7, 66, 0
11, 7215, Note_on_c, 7, 71, 90
11, 7229, Note_on_c, 7, 71, 0
11, 7230, Note_on_c, 7, 69, 90
11, 7244, Note_on_c, 7, 69, 0
11, 7245, Note_on_c, 7, 67, 90
11, 7259, Note_on_c, 7, 67, 0
11, 7260, Note_on_c, 7, 66, 90
11, 7274, Note_on_c, 7, 66, 0
11, 7275, Note_on_c, 7, 71, 90
11, 7289, Note_on_c, 7, 71, 0
11, 7290, Note_on_c, 7, 69, 90
11, 7304, Note_on_c, 7, 69, 0
11, 7305, Note_on_c, 7, 67, 90
11, 7319, Note_on_c, 7, 67, 0
11, 7320, Note_on_c, 7, 66, 90
11, 7334, Note_on_c, 7, 66, 0
11, 7335, Note_on_c, 7, 64, 90
11, 7349, Note_on_c, 7, 64, 0
11, 7350, Note_on_c, 7, 62, 90
11, 7364, Note_on_c, 7, 62, 0
11, 7365, Note_on_c, 7, 61, 90
11, 7379, Note_on_c, 7, 61, 0
11, 7380, Note_on_c, 7, 62, 90
11, 7394, Note_on_c, 7, 62, 0
11, 7395, Note_on_c, 7, 59, 90
11, 7409, Note_on_c, 7, 59, 0
11, 7410, Note_on_c, 7, 57, 90
11, 7424, Note_on_c, 7, 57, 0
11, 7425, Note_on_c, 7, 55, 90
11, 7439, Note_on_c, 7, 55, 0
11, 7440, Note_on_c, 7, 57, 90
11, 7454, Note_on_c, 7, 57, 0
11, 7455, Note_on_c, 7, 59, 90
11, 7469, Note_on_c, 7, 59, 0
11, 7470, Note_on_c, 7, 57, 90
11, 7484, Note_on_c, 7, 57, 0
11, 7485, Note_on_c, 7, 55, 90
11, 7499, Note_on_c, 7, 55, 0
11, 7500, Note_on_c, 7, 57, 90
11, 7514, Note_on_c, 7, 57, 0
11, 7515, Note_on_c, 7, 59, 90
11, 7529, Note_on_c, 7, 59, 0
11, 7530, Note_on_c, 7, 57, 90
11, 7544, Note_on_c, 7, 57, 0
11, 7545, Note_on_c, 7, 55, 90
11, 7559, Note_on_c, 7, 55, 0
11, 7560, Note_on_c, 7, 57, 90
11, 7577, Note_on_c, 7, 57, 0
11, 7590, Note_on_c, 7, 57, 90
11, 7607, Note_on_c, 7, 57, 0
11, 7620, Note_on_c, 7, 57, 90
11, 7637, Note_on_c, 7, 57, 0
11, 7650, Note_on_c, 7, 57, 90
11, 7667, Note_on_c, 7, 57, 0
11, 7680, Note_on_c, 7, 57, 90
11, 7697, Note_on_c, 7, 57, 0
11, 7710, Note_on_c, 7, 57, 90
11, 7727, Note_on_c, 7, 57, 0
11, 7740, Note_on_c, 7, 57, 90
11, 7757, Note_on_c, 7, 57, 0
11, 7770, Note_on_c, 7, 57, 90
11, 7787, Note_on_c, 7, 57, 0
11, 7800, Note_on_c, 7, 57, 90
11, 7817, Note_on_c, 7, 57, 0
11, 7830, Note_on_c, 7, 57, 90
11, 7847, Note_on_c, 7, 57, 0
11, 7860, Note_on_c, 7, 57, 90
11, 7877, Note_on_c, 7, 57, 0
11, 7890, Note_on_c, 7, 57, 90
11, 7907, Note_on_c, 7, 57, 0
11, 7920, Note_on_c, 7, 57, 90
11, 7937, Note_on_c, 7, 57, 0
11, 7950, Note_on_c, 7, 57, 90
11, 7967, Note_on_c, 7, 57, 0
11, 7980, Note_on_c, 7, 57, 90
11, 7997, Note_on_c, 7, 57, 0
11, 8010, Note_on_c, 7, 57, 90
11, 8027, Note_on_c, 7, 57, 0
11, 8040, Note_on_c, 7, 57, 90
11, 8057, Note_on_c, 7, 57, 0
11, 8070, Note_on_c, 7, 57, 90
11, 8087, Note_on_c, 7, 57, 0
11, 8100, Note_on_c, 7, 57, 90
11, 8117, Note_on_c, 7, 57, 0
11, 8130, Note_on_c, 7, 57, 90
11, 8147, Note_on_c, 7, 57, 0
11, 8160, Note_on_c, 7, 57, 90
11, 8177, Note_on_c, 7, 57, 0
11, 8190, Note_on_c, 7, 57, 90
11, 8207, Note_on_c, 7, 57, 0
11, 8220, Note_on_c, 7, 74, 90
11, 8249, Note_on_c, 7, 74, 0
11, 8250, Note_on_c, 7, 71, 90
11, 8279, Note_on_c, 7, 71, 0
11, 8280, Note_on_c, 7, 72, 90
11, 8309, Note_on_c, 7, 72, 0
11, 8340, Note_on_c, 7, 69, 90
11, 8369, Note_on_c, 7, 69, 0
11, 8400, Note_on_c, 7, 69, 90
11, 8429, Note_on_c, 7, 69, 0
11, 8460, Note_on_c, 7, 69, 90
11, 8475, Note_on_c, 7, 69, 0
11, 8475, Note_on_c, 7, 71, 90
11, 8490, Note_on_c, 7, 71, 0
11, 8490, Note_on_c, 7, 69, 90
11, 8519, Note_on_c, 7, 69, 0
11, 8520, Note_on_c, 7, 67, 90
11, 8579, Note_on_c, 7, 67, 0
11, 8580, Note_on_c, 7, 76, 90
11, 8639, Note_on_c, 7, 76, 0
11, 8640, Note_on_c, 7, 69, 90
11, 8669, Note_on_c, 7, 69, 0
11, 8670, Note_on_c, 7, 71, 90
11, 8699, Note_on_c, 7, 71, 0
11, 8700, Note_on_c, 7, 73, 90
11, 8759, Note_on_c, 7, 73, 0
11, 8760, Note_on_c, 7, 74, 90
11, 8819, Note_on_c, 7, 74, 0
11, 8820, Note_on_c, 7, 73, 90
11, 8939, Note_on_c, 7, 73, 0
11, 9060, Note_on_c, 7, 64, 90
11, 9089, Note_on_c, 7, 64, 0
11, 9090, Note_on_c, 7, 66, 90
11, 9119, Note_on_c, 7, 66, 0
11, 9120, Note_on_c, 7, 67, 90
11, 9134, Note_on_c, 7, 67, 0
11, 9135, Note_on_c, 7, 66, 90
11, 9149, Note_on_c, 7, 66, 0
11, 9150, Note_on_c, 7, 64, 90
11, 9164, Note_on_c, 7, 64, 0
11, 9165, Note_on_c, 7, 66, 90
11, 9179, Note_on_c, 7, 66, 0
11, 9180, Note_on_c, 7, 67, 90
11, 9209, Note_on_c, 7, 67, 0
11, 9240, Note_on_c, 7, 67, 90
11, 9269, Note_on_c, 7, 67, 0
11, 9300, Note_on_c, 7, 69, 90
11, 9329, Note_on_c, 7, 69, 0
11, 9360, Note_on_c, 7, 71, 90
11, 9419, Note_on_c, 7, 71, 0
11, 9420, Note_on_c, 7, 71, 90
11, 9479, Note_on_c, 7, 71, 0
11, 9480, Note_on_c, 7, 64, 90
11, 9539, Note_on_c, 7, 64, 0
11, 9540, Note_on_c, 7, 71, 90
11, 9569, Note_on_c, 7, 71, 0
11, 9600, Note_on_c, 7, 71, 90
11, 9629, Note_on_c, 7, 71, 0
11, 9660, Note_on_c, 7, 69, 90
11, 9689, Note_on_c, 7, 69, 0
11, 9720, Note_on_c, 7, 69, 90
11, 9779, Note_on_c, 7, 69, 0
11, 9780, Note_on_c, 7, 69, 90
11, 9839, Note_on_c, 7, 69, 0
11, 9840, Note_on_c, 7, 74, 90
11, 9899, Note_on_c, 7, 74, 0
11, 9900, Note_on_c, 7, 76, 90
11, 9959, Note_on_c, 7, 76, 0
11, 9960, Note_on_c, 7, 61, 90
11, 9989, Note_on_c, 7, 61, 0
11, 9990, Note_on_c, 7, 62, 90
11, 10019, Note_on_c, 7, 62, 0
11, 10020, Note_on_c, 7, 64, 90
11, 10034, Note_on_c, 7, 64, 0
11, 10035, Note_on_c, 7, 62, 90
11, 10049, Note_on_c, 7, 62, 0
11, 10050, Note_on_c, 7, 61, 90
11, 10064, Note_on_c, 7, 61, 0
11, 10065, Note_on_c, 7, 62, 90
11, 10079, Note_on_c, 7, 62, 0
11, 10080, Note_on_c, 7, 64, 90
11, 10109, Note_on_c, 7, 64, 0
11, 10110, Note_on_c, 7, 62, 90
11, 10139, Note_on_c, 7, 62, 0
11, 10140, Note_on_c, 7, 64, 90
11, 10169, Note_on_c, 7, 64, 0
11, 10170, Note_on_c, 7, 66, 90
11, 10199, Note_on_c, 7, 66, 0
11, 10200, Note_on_c, 7, 67, 90
11, 10214, Note_on_c, 7, 67, 0
11, 10215, Note_on_c, 7, 66, 90
11, 10229, Note_on_c, 7, 66, 0
11, 10230, Note_on_c, 7, 64, 90
11, 10244, Note_on_c, 7, 64, 0
11, 10245, Note_on_c, 7, 66, 90
11, 10259, Note_on_c, 7, 66, 0
11, 10260, Note_on_c, 7, 67, 90
11, 10319, Note_on_c, 7, 67, 0
11, 10320, Note_on_c, 7, 64, 90
11, 10379, Note_on_c, 7, 64, 0
11, 10380, Note_on_c, 7, 62, 90
11, 10469, Note_on_c, 7, 62, 0
11, 10470, Note_on_c, 7, 61, 90
11, 10499, Note_on_c, 7, 61, 0
11, 10500, Note_on_c, 7, 62, 90
11, 10529, Note_on_c, 7, 62, 0
11, 10530, Note_on_c, 7, 64, 90
11, 10559, Note_on_c, 7, 64, 0
11, 10560, Note_on_c, 7, 66, 90
11, 10574, Note_on_c, 7, 66, 0
11, 10575, Note_on_c, 7, 64, 90
11, 10589, Note_on_c, 7, 64, 0
11, 10590, Note_on_c, 7, 62, 90
11, 10604, Note_on_c, 7, 62, 0
11, 10605, Note_on_c, 7, 64, 90
11, 10619, Note_on_c, 7, 64, 0
11, 10620, Note_on_c, 7, 66, 90
11, 10649, Note_on_c, 7, 66, 0
11, 10650, Note_on_c, 7, 64, 90
11, 10679, Note_on_c, 7, 64, 0
11, 10680, Note_on_c, 7, 66, 90
11, 10709, Note_on_c, 7, 66, 0
11, 10710, Note_on_c, 7, 69, 90
11, 10739, Note_on_c, 7, 69, 0
11, 10740, Note_on_c, 7, 69, 90
11, 10754, Note_on_c, 7, 69, 0
11, 10755, Note_on_c, 7, 67, 90
11, 10769, Note_on_c, 7, 67, 0
11, 10770, Note_on_c, 7, 66, 90
11, 10784, Note_on_c, 7, 66, 0
11, 10785, Note_on_c, 7, 67, 90
11, 10799, Note_on_c, 7, 67, 0
11, 10800, Note_on_c, 7, 69, 90
11, 10859, Note_on_c, 7, 69, 0
11, 10860, Note_on_c, 7, 62, 90
11, 10919, Note_on_c, 7, 62, 0
11, 11040, Note_on_c, 7, 64, 90
11, 11069, Note_on_c, 7, 64, 0
11, 11070, Note_on_c, 7, 67, 90
11, 11099, Note_on_c, 7, 67, 0
11, 11100, Note_on_c, 7, 67, 90
11, 11114, Note_on_c, 7, 67, 0
11, 11115, Note_on_c, 7, 66, 90
11, 11129, Note_on_c, 7, 66, 0
11, 11130, Note_on_c, 7, 64, 90
11, 11144, Note_on_c, 7, 64, 0
11, 11145, Note_on_c, 7, 66, 90
11, 11159, Note_on_c, 7, 66, 0
11, 11160, Note_on_c, 7, 67, 90
11, 11189, Note_on_c, 7, 67, 0
11, 11190, Note_on_c, 7, 71, 90
11, 11219, Note_on_c, 7, 71, 0
11, 11220, Note_on_c, 7, 76, 90
11, 11249, Note_on_c, 7, 76, 0
11, 11280, Note_on_c, 7, 75, 90
11, 11309, Note_on_c, 7, 75, 0
11, 11340, Note_on_c, 7, 76, 90
11, 11399, Note_on_c, 7, 76, 0
11, 11400, Note_on_c, 7, 71, 90
11, 11459, Note_on_c, 7, 71, 0
11, 11460, Note_on_c, 7, 67, 90
11, 11579, Note_on_c, 7, 67, 0
11, 11580, Note_on_c, 7, 67, 90
11, 11639, Note_on_c, 7, 67, 0
11, 11640, Note_on_c, 7, 67, 90
11, 11699, Note_on_c, 7, 67, 0
11, 11700, Note_on_c, 7, 61, 90
11, 11759, Note_on_c, 7, 61, 0
11, 11760, Note_on_c, 7, 61, 90
11, 11819, Note_on_c, 7, 61, 0
11, 11820, Note_on_c, 7, 61, 90
11, 11879, Note_on_c, 7, 61, 0
11, 11880, Note_on_c, 7, 59, 90
11, 11939, Note_on_c, 7, 59, 0
11, 11940, Note_on_c, 7, 71, 90
11, 11999, Note_on_c, 7, 71, 0
11, 12000, Note_on_c, 7, 70, 90
11, 12059, Note_on_c, 7, 70, 0
11, 12060, Note_on_c, 7, 71, 90
11, 12119, Note_on_c, 7, 71, 0
11, 12120, Note_on_c, 7, 66, 90
11, 12179, Note_on_c, 7, 66, 0
11, 12180, Note_on_c, 7, 67, 90
11, 12239, Note_on_c, 7, 67, 0
11, 12240, Note_on_c, 7, 71, 90
11, 12269, Note_on_c, 7, 71, 0
11, 12270, Note_on_c, 7, 74, 90
11, 12284, Note_on_c, 7, 74, 0
11, 12285, Note_on_c, 7, 73, 90
11, 12299, Note_on_c, 7, 73, 0
11, 12300, Note_on_c, 7, 71, 90
11, 12329, Note_on_c, 7, 71, 0
11, 12330, Note_on_c, 7, 74, 90
11, 12344, Note_on_c, 7, 74, 0
11, 12345, Note_on_c, 7, 73, 90
11, 12359, Note_on_c, 7, 73, 0
11, 12360, Note_on_c, 7, 71, 90
11, 12449, Note_on_c, 7, 71, 0
11, 12450, Note_on_c, 7, 68, 90
11, 12464, Note_on_c, 7, 68, 0
11, 12465, Note_on_c, 7, 69, 90
11, 12479, Note_on_c, 7, 69, 0
11, 12480, Note_on_c, 7, 71, 90
11, 12509, Note_on_c, 7, 71, 0
11, 12510, Note_on_c, 7, 68, 90
11, 12524, Note_on_c, 7, 68, 0
11, 12525, Note_on_c, 7, 69, 90
11, 12539, Note_on_c, 7, 69, 0
11, 12540, Note_on_c, 7, 71, 90
11, 12629, Note_on_c, 7, 71, 0
11, 12630, Note_on_c, 7, 73, 90
11, 12644, Note_on_c, 7, 73, 0
11, 12645, Note_on_c, 7, 71, 90
11, 12659, Note_on_c, 7, 71, 0
11, 12660, Note_on_c, 7, 69, 90
11, 12689, Note_on_c, 7, 69, 0
11, 12720, Note_on_c, 7, 68, 90
11, 12749, Note_on_c, 7, 68, 0
11, 12780, Note_on_c, 7, 69, 90
11, 12809, Note_on_c, 7, 69, 0
11, 12810, Note_on_c, 7, 73, 90
11, 12824, Note_on_c, 7, 73, 0
11, 12825, Note_on_c, 7, 71, 90
11, 12839, Note_on_c, 7, 71, 0
11, 12840, Note_on_c, 7, 69, 90
11, 12869, Note_on_c, 7, 69, 0
11, 12870, Note_on_c, 7, 73, 90
11, 12884, Note_on_c, 7, 73, 0
11, 12885, Note_on_c, 7, 71, 90
11, 12899, Note_on_c, 7, 71, 0
11, 12900, Note_on_c, 7, 69, 90
11, 13019, Note_on_c, 7, 69, 0
11, 13020, Note_on_c, 7, 69, 90
11, 13049, Note_on_c, 7, 69, 0
11, 13080, Note_on_c, 7, 73, 90
11, 13109, Note_on_c, 7, 73, 0
11, 13140, Note_on_c, 7, 71, 90
11, 13169, Note_on_c, 7, 71, 0
11, 13200, Note_on_c, 7, 66, 90
11, 13229, Note_on_c, 7, 66, 0
11, 13260, Note_on_c, 7, 71, 90
11, 13379, Note_on_c, 7, 71, 0
11, 13380, Note_on_c, 7, 68, 90
11, 13409, Note_on_c, 7, 68, 0
11, 13440, Note_on_c, 7, 71, 90
11, 13469, Note_on_c, 7, 71, 0
11, 13500, Note_on_c, 7, 69, 90
11, 13529, Note_on_c, 7, 69, 0
11, 13560, Note_on_c, 7, 64, 90
11, 13589, Note_on_c, 7, 64, 0
11, 13620, Note_on_c, 7, 69, 90
11, 13739, Note_on_c, 7, 69, 0
11, 13740, Note_on_c, 7, 64, 90
11, 13769, Note_on_c, 7, 64, 0
11, 13800, Note_on_c, 7, 64, 90
11, 13829, Note_on_c, 7, 64, 0
11, 13860, Note_on_c, 7, 66, 90
11, 13889, Note_on_c, 7, 66, 0
11, 14040, Note_on_c, 7, 71, 90
11, 14069, Note_on_c, 7, 71, 0
11, 14220, Note_on_c, 7, 69, 90
11, 14249, Note_on_c, 7, 69, 0
11, 14280, Note_on_c, 7, 78, 90
11, 14309, Note_on_c, 7, 78, 0
11, 14340, Note_on_c, 7, 76, 90
11, 14369, Note_on_c, 7, 76, 0
11, 14400, Note_on_c, 7, 76, 90
11, 14429, Note_on_c, 7, 76, 0
11, 14430, Note_on_c, 7, 64, 90
11, 14447, Note_on_c, 7, 64, 0
11, 14460, Note_on_c, 7, 64, 90
11, 14477, Note_on_c, 7, 64, 0
11, 14490, Note_on_c, 7, 64, 90
11, 14507, Note_on_c, 7, 64, 0
11, 14520, Note_on_c, 7, 64, 90
11, 14537, Note_on_c, 7, 64, 0
11, 14550, Note_on_c, 7, 64, 90
11, 14567, Note_on_c, 7, 64, 0
11, 14580, Note_on_c, 7, 64, 90
11, 14597, Note_on_c, 7, 64, 0
11, 14610, Note_on_c, 7, 64, 90
11, 14627, Note_on_c, 7, 64, 0
11, 14640, Note_on_c, 7, 64, 90
11, 14657, Note_on_c, 7, 64, 0
11, 14670, Note_on_c, 7, 64, 90
11, 14687, Note_on_c, 7, 64, 0
11, 14700, Note_on_c, 7, 64, 90
11, 14717, Note_on_c, 7, 64, 0
11, 14730, Note_on_c, 7, 64, 90
11, 14747, Note_on_c, 7, 64, 0
11, 14760, Note_on_c, 7, 64, 90
11, 14777, Note_on_c, 7, 64, 0
11, 14790, Note_on_c, 7, 64, 90
11, 14807, Note_on_c, 7, 64, 0
11, 14820, Note_on_c, 7, 64, 90
11, 14837, Note_on_c, 7, 64, 0
11, 14850, Note_on_c, 7, 64, 90
11, 14867, Note_on_c, 7, 64, 0
11, 14880, Note_on_c, 7, 64, 90
11, 14897, Note_on_c, 7, 64, 0
11, 14910, Note_on_c, 7, 64, 90
11, 14927, Note_on_c, 7, 64, 0
11, 14940, Note_on_c, 7, 64, 90
11, 14957, Note_on_c, 7, 64, 0
11, 14970, Note_on_c, 7, 64, 90
11, 14987, Note_on_c, 7, 64, 0
11, 15000, Note_on_c, 7, 64, 90
11, 15017, Note_on_c, 7, 64, 0
11, 15030, Note_on_c, 7, 64, 90
11, 15047, Note_on_c, 7, 64, 0
11, 15060, Note_on_c, 7, 64, 90
11, 15077, Note_on_c, 7, 64, 0
11, 15090, Note_on_c, 7, 62, 90
11, 15107, Note_on_c, 7, 62, 0
11, 15120, Note_on_c, 7, 61, 90
11, 15137, Note_on_c, 7, 61, 0
11, 15150, Note_on_c, 7, 61, 90
11, 15167, Note_on_c, 7, 61, 0
11, 15180, Note_on_c, 7, 61, 90
11, 15197, Note_on_c, 7, 61, 0
11, 15210, Note_on_c, 7, 61, 90
11, 15227, Note_on_c, 7, 61, 0
11, 15240, Note_on_c, 7, 61, 90
11, 15257, Note_on_c, 7, 61, 0
11, 15270, Note_on_c, 7, 61, 90
11, 15287, Note_on_c, 7, 61, 0
11, 15300, Note_on_c, 7, 59, 90
11, 15359, Note_on_c, 7, 59, 0
11, 15360, Note_on_c, 7, 66, 90
11, 15419, Note_on_c, 7, 66, 0
11, 15420, Note_on_c, 7, 71, 90
11, 15479, Note_on_c, 7, 71, 0
11, 15480, Note_on_c, 7, 69, 90
11, 15539, Note_on_c, 7, 69, 0
11, 15540, Note_on_c, 7, 74, 90
11, 15599, Note_on_c, 7, 74, 0
11, 15600, Note_on_c, 7, 71, 90
11, 15659, Note_on_c, 7, 71, 0
11, 15660, Note_on_c, 7, 73, 90
11, 15719, Note_on_c, 7, 73, 0
11, 15720, Note_on_c, 7, 64, 90
11, 15779, Note_on_c, 7, 64, 0
11, 15780, Note_on_c, 7, 73, 90
11, 15839, Note_on_c, 7, 73, 0
11, 15840, Note_on_c, 7, 74, 90
11, 15899, Note_on_c, 7, 74, 0
11, 16770, Note_on_c, 7, 62, 90
11, 16784, Note_on_c, 7, 62, 0
11, 16785, Note_on_c, 7, 64, 90
11, 16799, Note_on_c, 7, 64, 0
11, 16800, Note_on_c, 7, 66, 90
11, 16814, Note_on_c, 7, 66, 0
11, 16815, Note_on_c, 7, 64, 90
11, 16829, Note_on_c, 7, 64, 0
11, 16830, Note_on_c, 7, 66, 90
11, 16844, Note_on_c, 7, 66, 0
11, 16845, Note_on_c, 7, 64, 90
11, 16859, Note_on_c, 7, 64, 0
11, 16860, Note_on_c, 7, 66, 90
11, 16874, Note_on_c, 7, 66, 0
11, 16875, Note_on_c, 7, 64, 90
11, 16889, Note_on_c, 7, 64, 0
11, 16890, Note_on_c, 7, 62, 90
11, 16904, Note_on_c, 7, 62, 0
11, 16905, Note_on_c, 7, 64, 90
11, 16919, Note_on_c, 7, 64, 0
11, 16920, Note_on_c, 7, 66, 90
11, 16979, Note_on_c, 7, 66, 0
11, 17115, Note_on_c, 7, 74, 90
11, 17129, Note_on_c, 7, 74, 0
11, 17130, Note_on_c, 7, 73, 90
11, 17144, Note_on_c, 7, 73, 0
11, 17145, Note_on_c, 7, 71, 90
11, 17159, Note_on_c, 7, 71, 0
11, 17160, Note_on_c, 7, 69, 90
11, 17174, Note_on_c, 7, 69, 0
11, 17175, Note_on_c, 7, 74, 90
11, 17189, Note_on_c, 7, 74, 0
11, 17190, Note_on_c, 7, 73, 90
11, 17204, Note_on_c, 7, 73, 0
11, 17205, Note_on_c, 7, 71, 90
11, 17219, Note_on_c, 7, 71, 0
11, 17220, Note_on_c, 7, 69, 90
11, 17234, Note_on_c, 7, 69, 0
11, 17235, Note_on_c, 7, 67, 90
11, 17249, Note_on_c, 7, 67, 0
11, 17250, Note_on_c, 7, 66, 90
11, 17264, Note_on_c, 7, 66, 0
11, 17265, Note_on_c, 7, 64, 90
11, 17279, Note_on_c, 7, 64, 0
11, 17280, Note_on_c, 7, 66, 90
11, 17294, Note_on_c, 7, 66, 0
11, 17295, Note_on_c, 7, 71, 90
11, 17309, Note_on_c, 7, 71, 0
11, 17310, Note_on_c, 7, 69, 90
11, 17324, Note_on_c, 7, 69, 0
11, 17325, Note_on_c, 7, 67, 90
11, 17339, Note_on_c, 7, 67, 0
11, 17340, Note_on_c, 7, 66, 90
11, 17354, Note_on_c, 7, 66, 0
11, 17355, Note_on_c, 7, 71, 90
11, 17369, Note_on_c, 7, 71, 0
11, 17370, Note_on_c, 7, 69, 90
11, 17384, Note_on_c, 7, 69, 0
11, 17385, Note_on_c, 7, 67, 90
11, 17399, Note_on_c, 7, 67, 0
11, 17400, Note_on_c, 7, 66, 90
11, 17414, Note_on_c, 7, 66, 0
11, 17415, Note_on_c, 7, 64, 90
11, 17429, Note_on_c, 7, 64, 0
11, 17430, Note_on_c, 7, 62, 90
11, 17444, Note_on_c, 7, 62, 0
11, 17445, Note_on_c, 7, 61, 90
11, 17459, Note_on_c, 7, 61, 0
11, 17460, Note_on_c, 7, 62, 90
11, 17474, Note_on_c, 7, 62, 0
11, 17475, Note_on_c, 7, 59, 90
11, 17489, Note_on_c, 7, 59, 0
11, 17490, Note_on_c, 7, 57, 90
11, 17504, Note_on_c, 7, 57, 0
11, 17505, Note_on_c, 7, 55, 90
11, 17519, Note_on_c, 7, 55, 0
11, 17520, Note_on_c, 7, 57, 90
11, 17534, Note_on_c, 7, 57, 0
11, 17535, Note_on_c, 7, 59, 90
11, 17549, Note_on_c, 7, 59, 0
11, 17550, Note_on_c, 7, 57, 90
11, 17564, Note_on_c, 7, 57, 0
11, 17565, Note_on_c, 7, 55, 90
11, 17579, Note_on_c, 7, 55, 0
11, 17580, Note_on_c, 7, 57, 90
11, 17594, Note_on_c, 7, 57, 0
11, 17595, Note_on_c, 7, 59, 90
11, 17609, Note_on_c, 7, 59, 0
11, 17610, Note_on_c, 7, 57, 90
11, 17624, Note_on_c, 7, 57, 0
11, 17625, Note_on_c, 7, 55, 90
11, 17639, Note_on_c, 7, 55, 0
11, 17640, Note_on_c, 7, 57, 90
11, 17657, Note_on_c, 7, 57, 0
11, 17670, Note_on_c, 7, 57, 90
11, 17687, Note_on_c, 7, 57, 0
11, 17700, Note_on_c, 7, 57, 90
11, 17717, Note_on_c, 7, 57, 0
11, 17730, Note_on_c, 7, 57, 90
11, 17747, Note_on_c, 7, 57, 0
11, 17760, Note_on_c, 7, 57, 90
11, 17777, Note_on_c, 7, 57, 0
11, 17790, Note_on_c, 7, 57, 90
11, 17807, Note_on_c, 7, 57, 0
11, 17820, Note_on_c, 7, 57, 90
11, 17837, Note_on_c, 7, 57, 0
11, 17850, Note_on_c, 7, 57, 90
11, 17867, Note_on_c, 7, 57, 0
11, 17880, Note_on_c, 7, 57, 90
11, 17897, Note_on_c, 7, 57, 0
11, 17910, Note_on_c, 7, 57, 90
11, 17927, Note_on_c, 7, 57, 0
11, 17940, Note_on_c, 7, 57, 90
11, 17957, Note_on_c, 7, 57, 0
11, 17970, Note_on_c, 7, 57, 90
11, 17987, Note_on_c, 7, 57, 0
11, 18000, Note_on_c, 7, 57, 90
11, 18017, Note_on_c, 7, 57, 0
11, 18030, Note_on_c, 7, 57, 90
11, 18047, Note_on_c, 7, 57, 0
11, 18060, Note_on_c, 7, 57, 90
11, 18077, Note_on_c, 7, 57, 0
11, 18090, Note_on_c, 7, 57, 90
11, 18107, Note_on_c, 7, 57, 0
11, 18120, Note_on_c, 7, 57, 90
11, 18137, Note_on_c, 7, 57, 0
11, 18150, Note_on_c, 7, 57, 90
11, 18167, Note_on_c, 7, 57, 0
11, 18180, Note_on_c, 7, 57, 90
11, 18197, Note_on_c, 7, 57, 0
11, 18210, Note_on_c, 7, 57, 90
11, 18227, Note_on_c, 7, 57, 0
11, 18240, Note_on_c, 7, 57, 90
11, 18257, Note_on_c, 7, 57, 0
11, 18270, Note_on_c, 7, 57, 90
11, 18287, Note_on_c, 7, 57, 0
11, 18300, Note_on_c, 7, 74, 90
11, 18329, Note_on_c, 7, 74, 0
11, 18330, Note_on_c, 7, 71, 90
11, 18359, Note_on_c, 7, 71, 0
11, 18360, Note_on_c, 7, 72, 90
11, 18389, Note_on_c, 7, 72, 0
11, 18420, Note_on_c, 7, 69, 90
11, 18449, Note_on_c, 7, 69, 0
11, 18480, Note_on_c, 7, 69, 90
11, 18509, Note_on_c, 7, 69, 0
11, 18540, Note_on_c, 7, 69, 90
11, 18555, Note_on_c, 7, 69, 0
11, 18555, Note_on_c, 7, 71, 90
11, 18570, Note_on_c, 7, 71, 0
11, 18570, Note_on_c, 7, 69, 90
11, 18599, Note_on_c, 7, 69, 0
11, 18600, Note_on_c, 7, 67, 90
11, 18659, Note_on_c, 7, 67, 0
11, 18660, Note_on_c, 7, 76, 90
11, 18719, Note_on_c, 7, 76, 0
11, 18720, Note_on_c, 7, 69, 90
11, 18749, Note_on_c, 7, 69, 0
11, 18750, Note_on_c, 7, 71, 90
11, 18779, Note_on_c, 7, 71, 0
11, 18780, Note_on_c, 7, 73, 90
11, 18839, Note_on_c, 7, 73, 0
11, 18840, Note_on_c, 7, 74, 90
11, 18899, Note_on_c, 7, 74, 0
11, 18900, Note_on_c, 7, 73, 90
11, 19019, Note_on_c, 7, 73, 0
11, 19320, Note_on_c, 7, 66, 90
11, 19349, Note_on_c, 7, 66, 0
11, 19350, Note_on_c, 7, 67, 90
11, 19379, Note_on_c, 7, 67, 0
11, 19380, Note_on_c, 7, 69, 90
11, 19394, Note_on_c, 7, 69, 0
11, 19395, Note_on_c, 7, 67, 90
11, 19409, Note_on_c, 7, 67, 0
11, 19410, Note_on_c, 7, 66, 90
11, 19424, Note_on_c, 7, 66, 0
11, 19425, Note_on_c, 7, 67, 90
11, 19439, Note_on_c, 7, 67, 0
11, 19440, Note_on_c, 7, 69, 90
11, 19469, Note_on_c, 7, 69, 0
11, 19470, Note_on_c, 7, 67, 90
11, 19499, Note_on_c, 7, 67, 0
11, 19500, Note_on_c, 7, 69, 90
11, 19529, Note_on_c, 7, 69, 0
11, 19530, Note_on_c, 7, 71, 90
11, 19559, Note_on_c, 7, 71, 0
11, 19560, Note_on_c, 7, 73, 90
11, 19574, Note_on_c, 7, 73, 0
11, 19575, Note_on_c, 7, 71, 90
11, 19589, Note_on_c, 7, 71, 0
11, 19590, Note_on_c, 7, 69, 90
11, 19604, Note_on_c, 7, 69, 0
11, 19605, Note_on_c, 7, 71, 90
11, 19619, Note_on_c, 7, 71, 0
11, 19620, Note_on_c, 7, 73, 90
11, 19649, Note_on_c, 7, 73, 0
11, 19680, Note_on_c, 7, 69, 90
11, 19709, Note_on_c, 7, 69, 0
11, 19740, Note_on_c, 7, 66, 90
11, 19769, Note_on_c, 7, 66, 0
11, 19800, Note_on_c, 7, 71, 90
11, 19829, Note_on_c, 7, 71, 0
11, 19830, Note_on_c, 7, 73, 90
11, 19859, Note_on_c, 7, 73, 0
11, 19860, Note_on_c, 7, 74, 90
11, 19889, Note_on_c, 7, 74, 0
11, 19920, Note_on_c, 7, 78, 90
11, 19934, Note_on_c, 7, 78, 0
11, 19935, Note_on_c, 7, 76, 90
11, 19949, Note_on_c, 7, 76, 0
11, 19950, Note_on_c, 7, 74, 90
11, 19964, Note_on_c, 7, 74, 0
11, 19965, Note_on_c, 7, 76, 90
11, 19979, Note_on_c, 7, 76, 0
11, 19980, Note_on_c, 7, 78, 90
11, 20009, Note_on_c, 7, 78, 0
11, 20040, Note_on_c, 7, 66, 90
11, 20069, Note_on_c, 7, 66, 0
11, 20220, Note_on_c, 7, 69, 90
11, 20249, Note_on_c, 7, 69, 0
11, 20250, Note_on_c, 7, 71, 90
11, 20279, Note_on_c, 7, 71, 0
11, 20280, Note_on_c, 7, 73, 90
11, 20294, Note_on_c, 7, 73, 0
11, 20295, Note_on_c, 7, 71, 90
11, 20309, Note_on_c, 7, 71, 0
11, 20310, Note_on_c, 7, 69, 90
11, 20324, Note_on_c, 7, 69, 0
11, 20325, Note_on_c, 7, 71, 90
11, 20339, Note_on_c, 7, 71, 0
11, 20340, Note_on_c, 7, 73, 90
11, 20369, Note_on_c, 7, 73, 0
11, 20400, Note_on_c, 7, 66, 90
11, 20429, Note_on_c, 7, 66, 0
11, 20460, Note_on_c, 7, 69, 90
11, 20549, Note_on_c, 7, 69, 0
11, 20550, Note_on_c, 7, 68, 90
11, 20579, Note_on_c, 7, 68, 0
11, 20580, Note_on_c, 7, 69, 90
11, 20639, Note_on_c, 7, 69, 0
11, 20640, Note_on_c, 7, 62, 90
11, 20699, Note_on_c, 7, 62, 0
11, 20700, Note_on_c, 7, 64, 90
11, 20759, Note_on_c, 7, 64, 0
11, 20760, Note_on_c, 7, 61, 90
11, 20789, Note_on_c, 7, 61, 0
11, 20790, Note_on_c, 7, 63, 90
11, 20819, Note_on_c, 7, 63, 0
11, 20820, Note_on_c, 7, 64, 90
11, 20834, Note_on_c, 7, 64, 0
11, 20835, Note_on_c, 7, 63, 90
11, 20849, Note_on_c, 7, 63, 0
11, 20850, Note_on_c, 7, 61, 90
11, 20864, Note_on_c, 7, 61, 0
11, 20865, Note_on_c, 7, 63, 90
11, 20879, Note_on_c, 7, 63, 0
11, 20880, Note_on_c, 7, 64, 90
11, 20909, Note_on_c, 7, 64, 0
11, 20940, Note_on_c, 7, 64, 90
11, 20969, Note_on_c, 7, 64, 0
11, 21000, Note_on_c, 7, 62, 90
11, 21029, Note_on_c, 7, 62, 0
11, 21060, Note_on_c, 7, 62, 90
11, 21119, Note_on_c, 7, 62, 0
11, 21120, Note_on_c, 7, 62, 90
11, 21179, Note_on_c, 7, 62, 0
11, 21180, Note_on_c, 7, 64, 90
11, 21239, Note_on_c, 7, 64, 0
11, 21240, Note_on_c, 7, 66, 90
11, 21299, Note_on_c, 7, 66, 0
11, 21300, Note_on_c, 7, 66, 90
11, 21359, Note_on_c, 7, 66, 0
11, 21360, Note_on_c, 7, 71, 90
11, 21419, Note_on_c, 7, 71, 0
11, 21420, Note_on_c, 7, 64, 90
11, 21479, Note_on_c, 7, 64, 0
11, 21480, Note_on_c, 7, 69, 90
11, 21539, Note_on_c, 7, 69, 0
11, 21540, Note_on_c, 7, 73, 90
11, 21599, Note_on_c, 7, 73, 0
11, 21600, Note_on_c, 7, 71, 90
11, 21659, Note_on_c, 7, 71, 0
11, 21660, Note_on_c, 7, 71, 90
11, 21719, Note_on_c, 7, 71, 0
11, 21720, Note_on_c, 7, 71, 90
11, 21779, Note_on_c, 7, 71, 0
11, 21780, Note_on_c, 7, 66, 90
11, 21839, Note_on_c, 7, 66, 0
11, 21840, Note_on_c, 7, 66, 90
11, 21899, Note_on_c, 7, 66, 0
11, 21900, Note_on_c, 7, 66, 90
11, 21959, Note_on_c, 7, 66, 0
11, 21960, Note_on_c, 7, 64, 90
11, 22019, Note_on_c, 7, 64, 0
11, 22020, Note_on_c, 7, 76, 90
11, 22079, Note_on_c, 7, 76, 0
11, 22080, Note_on_c, 7, 75, 90
11, 22139, Note_on_c, 7, 75, 0
11, 22140, Note_on_c, 7, 76, 90
11, 22199, Note_on_c, 7, 76, 0
11, 22200, Note_on_c, 7, 71, 90
11, 22259, Note_on_c, 7, 71, 0
11, 22260, Note_on_c, 7, 71, 90
11, 22319, Note_on_c, 7, 71, 0
11, 22320, Note_on_c, 7, 76, 90
11, 22349, Note_on_c, 7, 76, 0
11, 22350, Note_on_c, 7, 79, 90
11, 22364, Note_on_c, 7, 79, 0
11, 22365, Note_on_c, 7, 78, 90
11, 22379, Note_on_c, 7, 78, 0
11, 22380, Note_on_c, 7, 76, 90
11, 22409, Note_on_c, 7, 76, 0
11, 22410, Note_on_c, 7, 79, 90
11, 22424, Note_on_c, 7, 79, 0
11, 22425, Note_on_c, 7, 78, 90
11, 22439, Note_on_c, 7, 78, 0
11, 22440, Note_on_c, 7, 76, 90
11, 22529, Note_on_c, 7, 76, 0
11, 22530, Note_on_c, 7, 73, 90
11, 22544, Note_on_c, 7, 73, 0
11, 22545, Note_on_c, 7, 74, 90
11, 22559, Note_on_c, 7, 74, 0
11, 22560, Note_on_c, 7, 76, 90
11, 22589, Note_on_c, 7, 76, 0
11, 22590, Note_on_c, 7, 73, 90
11, 22604, Note_on_c, 7, 73, 0
11, 22605, Note_on_c, 7, 74, 90
11, 22619, Note_on_c, 7, 74, 0
11, 22620, Note_on_c, 7, 76, 90
11, 22709, Note_on_c, 7, 76, 0
11, 22710, Note_on_c, 7, 78, 90
11, 22724, Note_on_c, 7, 78, 0
11, 22725, Note_on_c, 7, 76, 90
11, 22739, Note_on_c, 7, 76, 0
11, 22740, Note_on_c, 7, 74, 90
11, 22769, Note_on_c, 7, 74, 0
11, 22800, Note_on_c, 7, 73, 90
11, 22829, Note_on_c, 7, 73, 0
11, 22860, Note_on_c, 7, 74, 90
11, 22889, Note_on_c, 7, 74, 0
11, 22890, Note_on_c, 7, 78, 90
11, 22904, Note_on_c, 7, 78, 0
11, 22905, Note_on_c, 7, 76, 90
11, 22919, Note_on_c, 7, 76, 0
11, 22920, Note_on_c, 7, 74, 90
11, 22949, Note_on_c, 7, 74, 0
11, 22950, Note_on_c, 7, 78, 90
11, 22964, Note_on_c, 7, 78, 0
11, 22965, Note_on_c, 7, 76, 90
11, 22979, Note_on_c, 7, 76, 0
11, 22980, Note_on_c, 7, 74, 90
11, 23099, Note_on_c, 7, 74, 0
11, 23100, Note_on_c, 7, 74, 90
11, 23129, Note_on_c, 7, 74, 0
11, 23160, Note_on_c, 7, 78, 90
11, 23189, Note_on_c, 7, 78, 0
11, 23220, Note_on_c, 7, 76, 90
11, 23249, Note_on_c, 7, 76, 0
11, 23280, Note_on_c, 7, 71, 90
11, 23309, Note_on_c, 7, 71, 0
11, 23340, Note_on_c, 7, 76, 90
11, 23459, Note_on_c, 7, 76, 0
11, 23460, Note_on_c, 7, 73, 90
11, 23489, Note_on_c, 7, 73, 0
11, 23520, Note_on_c, 7, 76, 90
11, 23549, Note_on_c, 7, 76, 0
11, 23580, Note_on_c, 7, 74, 90
11, 23609, Note_on_c, 7, 74, 0
11, 23640, Note_on_c, 7, 69, 90
11, 23669, Note_on_c, 7, 69, 0
11, 23700, Note_on_c, 7, 74, 90
11, 23819, Note_on_c, 7, 74, 0
11, 23820, Note_on_c, 7, 69, 90
11, 23849, Note_on_c, 7, 69, 0
11, 23880, Note_on_c, 7, 69, 90
11, 23909, Note_on_c, 7, 69, 0
11, 23940, Note_on_c, 7, 71, 90
11, 23969, Note_on_c, 7, 71, 0
11, 24120, Note_on_c, 7, 76, 90
11, 24149, Note_on_c, 7, 76, 0
11, 24300, Note_on_c, 7, 78, 90
11, 24329, Note_on_c, 7, 78, 0
11, 24360, Note_on_c, 7, 81, 90
11, 24389, Note_on_c, 7, 81, 0
11, 24420, Note_on_c, 7, 69, 90
11, 24449, Note_on_c, 7, 69, 0
11, 24480, Note_on_c, 7, 69, 90
11, 24660, Note_on_c, 7, 69, 0
11, 24660, Note_on_c, 7, 74, 90
11, 24690, Note_on_c, 7, 74, 0
11, 24720, Note_on_c, 7, 62, 90
11, 24750, Note_on_c, 7, 62, 0
11, 24840, Note_on_c, 7, 73, 90
11, 24870, Note_on_c, 7, 73, 0
11, 24900, Note_on_c, 7, 61, 90
11, 24930, Note_on_c, 7, 61, 0
11, 25020, Note_on_c, 7, 74, 90
11, 25050, Note_on_c, 7, 74, 0
11, 25080, Note_on_c, 7, 76, 90
11, 25110, Note_on_c, 7, 76, 0
11, 25200, Note_on_c, 7, 78, 90
11, 25230, Note_on_c, 7, 78, 0
11, 25260, Note_on_c, 7, 76, 90
11, 25290, Note_on_c, 7, 76, 0
11, 25380, Note_on_c, 7, 74, 90
11, 25410, Note_on_c, 7, 74, 0
11, 25440, Note_on_c, 7, 76, 90
11, 25470, Note_on_c, 7, 76, 0
11, 25560, Note_on_c, 7, 73, 90
11, 25590, Note_on_c, 7, 73, 0
11, 25620, Note_on_c, 7, 74, 90
11, 25650, Note_on_c, 7, 74, 0
11, 25740, Note_on_c, 7, 76, 90
11, 25770, Note_on_c, 7, 76, 0
11, 25800, Note_on_c, 7, 64, 90
11, 25830, Note_on_c, 7, 64, 0
11, 25920, Note_on_c, 7, 73, 90
11, 25950, Note_on_c, 7, 73, 0
11, 25980, Note_on_c, 7, 71, 90
11, 26010, Note_on_c, 7, 71, 0
11, 26100, Note_on_c, 7, 67, 90
11, 26130, Note_on_c, 7, 67, 0
11, 26160, Note_on_c, 7, 66, 90
11, 26190, Note_on_c, 7, 66, 0
11, 26280, Note_on_c, 7, 69, 90
11, 26310, Note_on_c, 7, 69, 0
11, 26340, Note_on_c, 7, 67, 90
11, 26370, Note_on_c, 7, 67, 0
11, 26460, Note_on_c, 7, 64, 90
11, 26490, Note_on_c, 7, 64, 0
11, 26520, Note_on_c, 7, 66, 90
11, 26550, Note_on_c, 7, 66, 0
11, 26640, Note_on_c, 7, 66, 90
11, 26670, Note_on_c, 7, 66, 0
11, 26700, Note_on_c, 7, 64, 90
11, 26730, Note_on_c, 7, 64, 0
11, 26820, Note_on_c, 7, 73, 90
11, 26850, Note_on_c, 7, 73, 0
11, 26880, Note_on_c, 7, 74, 90
11, 26910, Note_on_c, 7, 74, 0
11, 27000, Note_on_c, 7, 74, 90
11, 27030, Note_on_c, 7, 74, 0
11, 27060, Note_on_c, 7, 71, 90
11, 27090, Note_on_c, 7, 71, 0
11, 27180, Note_on_c, 7, 64, 90
11, 27210, Note_on_c, 7, 64, 0
11, 27240, Note_on_c, 7, 66, 90
11, 27270, Note_on_c, 7, 66, 0
11, 27360, Note_on_c, 7, 67, 90
11, 27390, Note_on_c, 7, 67, 0
11, 27420, Note_on_c, 7, 64, 90
11, 27450, Note_on_c, 7, 64, 0
11, 27480, Note_on_c, 7, 69, 90
11, 27599, Note_on_c, 7, 69, 0
11, 27600, Note_on_c, 7, 67, 90
11, 27629, Note_on_c, 7, 67, 0
11, 27630, Note_on_c, 7, 66, 90
11, 27659, Note_on_c, 7, 66, 0
11, 27660, Note_on_c, 7, 64, 90
11, 27689, Note_on_c, 7, 64, 0
11, 27690, Note_on_c, 7, 62, 90
11, 27719, Note_on_c, 7, 62, 0
11, 27720, Note_on_c, 7, 64, 90
11, 27779, Note_on_c, 7, 64, 0
11, 27780, Note_on_c, 7, 69, 90
11, 27959, Note_on_c, 7, 69, 0
11, 27960, Note_on_c, 7, 74, 90
11, 27989, Note_on_c, 7, 74, 0
11, 28020, Note_on_c, 7, 68, 90
11, 28049, Note_on_c, 7, 68, 0
11, 28080, Note_on_c, 7, 69, 90
11, 28139, Note_on_c, 7, 69, 0
11, 28140, Note_on_c, 7, 64, 90
11, 28199, Note_on_c, 7, 64, 0
11, 28260, Note_on_c, 7, 69, 90
11, 28319, Note_on_c, 7, 69, 0
11, 28320, Note_on_c, 7, 67, 90
11, 28349, Note_on_c, 7, 67, 0
11, 28350, Note_on_c, 7, 66, 90
11, 28379, Note_on_c, 7, 66, 0
11, 28380, Note_on_c, 7, 64, 90
11, 28409, Note_on_c, 7, 64, 0
11, 28410, Note_on_c, 7, 62, 90
11, 28439, Note_on_c, 7, 62, 0
11, 28440, Note_on_c, 7, 71, 90
11, 28529, Note_on_c, 7, 71, 0
11, 28530, Note_on_c, 7, 73, 90
11, 28559, Note_on_c, 7, 73, 0
11, 28560, Note_on_c, 7, 71, 90
11, 28589, Note_on_c, 7, 71, 0
11, 28590, Note_on_c, 7, 73, 90
11, 28619, Note_on_c, 7, 73, 0
11, 28620, Note_on_c, 7, 69, 90
11, 28649, Note_on_c, 7, 69, 0
11, 28650, Note_on_c, 7, 71, 90
11, 28679, Note_on_c, 7, 71, 0
11, 28680, Note_on_c, 7, 69, 90
11, 28709, Note_on_c, 7, 69, 0
11, 28710, Note_on_c, 7, 67, 90
11, 28739, Note_on_c, 7, 67, 0
11, 28740, Note_on_c, 7, 66, 90
11, 28769, Note_on_c, 7, 66, 0
11, 28770, Note_on_c, 7, 69, 90
11, 28799, Note_on_c, 7, 69, 0
11, 28800, Note_on_c, 7, 67, 90
11, 28829, Note_on_c, 7, 67, 0
11, 28830, Note_on_c, 7, 69, 90
11, 28859, Note_on_c, 7, 69, 0
11, 28860, Note_on_c, 7, 67, 90
11, 28889, Note_on_c, 7, 67, 0
11, 28890, Note_on_c, 7, 66, 90
11, 28919, Note_on_c, 7, 66, 0
11, 28920, Note_on_c, 7, 67, 90
11, 28949, Note_on_c, 7, 67, 0
11, 28950, Note_on_c, 7, 64, 90
11, 28979, Note_on_c, 7, 64, 0
11, 28980, Note_on_c, 7, 66, 90
11, 29039, Note_on_c, 7, 66, 0
11, 29040, Note_on_c, 7, 66, 90
11, 29099, Note_on_c, 7, 66, 0
11, 29100, Note_on_c, 7, 71, 90
11, 29219, Note_on_c, 7, 71, 0
11, 29220, Note_on_c, 7, 70, 90
11, 29249, Note_on_c, 7, 70, 0
11, 29250, Note_on_c, 7, 68, 90
11, 29279, Note_on_c, 7, 68, 0
11, 29280, Note_on_c, 7, 66, 90
11, 29309, Note_on_c, 7, 66, 0
11, 29310, Note_on_c, 7, 64, 90
11, 29339, Note_on_c, 7, 64, 0
11, 29340, Note_on_c, 7, 62, 90
11, 29399, Note_on_c, 7, 62, 0
11, 29400, Note_on_c, 7, 64, 90
11, 29429, Note_on_c, 7, 64, 0
11, 29430, Note_on_c, 7, 66, 90
11, 29459, Note_on_c, 7, 66, 0
11, 29460, Note_on_c, 7, 67, 90
11, 29519, Note_on_c, 7, 67, 0
11, 29520, Note_on_c, 7, 66, 90
11, 29549, Note_on_c, 7, 66, 0
11, 29550, Note_on_c, 7, 67, 90
11, 29579, Note_on_c, 7, 67, 0
11, 29580, Note_on_c, 7, 66, 90
11, 29609, Note_on_c, 7, 66, 0
11, 29610, Note_on_c, 7, 64, 90
11, 29639, Note_on_c, 7, 64, 0
11, 29640, Note_on_c, 7, 62, 90
11, 29669, Note_on_c, 7, 62, 0
11, 29670, Note_on_c, 7, 61, 90
11, 29699, Note_on_c, 7, 61, 0
11, 29700, Note_on_c, 7, 59, 90
11, 29789, Note_on_c, 7, 59, 0
11, 29790, Note_on_c, 7, 58, 90
11, 29819, Note_on_c, 7, 58, 0
11, 29820, Note_on_c, 7, 59, 90
11, 29849, Note_on_c, 7, 59, 0
11, 29850, Note_on_c, 7, 61, 90
11, 29879, Note_on_c, 7, 61, 0
11, 29880, Note_on_c, 7, 62, 90
11, 29939, Note_on_c, 7, 62, 0
11, 29940, Note_on_c, 7, 69, 90
11, 29969, Note_on_c, 7, 69, 0
11, 29970, Note_on_c, 7, 67, 90
11, 29999, Note_on_c, 7, 67, 0
11, 30000, Note_on_c, 7, 66, 90
11, 30029, Note_on_c, 7, 66, 0
11, 30030, Note_on_c, 7, 69, 90
11, 30059, Note_on_c, 7, 69, 0
11, 30060, Note_on_c, 7, 71, 90
11, 30119, Note_on_c, 7, 71, 0
11, 30120, Note_on_c, 7, 66, 90
11, 30179, Note_on_c, 7, 66, 0
11, 30180, Note_on_c, 7, 66, 90
11, 30239, Note_on_c, 7, 66, 0
11, 30240, Note_on_c, 7, 67, 90
11, 30299, Note_on_c, 7, 67, 0
11, 30300, Note_on_c, 7, 67, 90
11, 30359, Note_on_c, 7, 67, 0
11, 30360, Note_on_c, 7, 66, 90
11, 30419, Note_on_c, 7, 66, 0
11, 30420, Note_on_c, 7, 66, 90
11, 30479, Note_on_c, 7, 66, 0
11, 30480, Note_on_c, 7, 62, 90
11, 30539, Note_on_c, 7, 62, 0
11, 31080, Note_on_c, 7, 74, 90
11, 31109, Note_on_c, 7, 74, 0
11, 31110, Note_on_c, 7, 76, 90
11, 31139, Note_on_c, 7, 76, 0
11, 31140, Note_on_c, 7, 78, 90
11, 31169, Note_on_c, 7, 78, 0
11, 31200, Note_on_c, 7, 78, 90
11, 31229, Note_on_c, 7, 78, 0
11, 31260, Note_on_c, 7, 78, 90
11, 31289, Note_on_c, 7, 78, 0
11, 31320, Note_on_c, 7, 78, 90
11, 31379, Note_on_c, 7, 78, 0
11, 31380, Note_on_c, 7, 76, 90
11, 31409, Note_on_c, 7, 76, 0
11, 31410, Note_on_c, 7, 75, 90
11, 31439, Note_on_c, 7, 75, 0
11, 31440, Note_on_c, 7, 76, 90
11, 31469, Note_on_c, 7, 76, 0
11, 31470, Note_on_c, 7, 71, 90
11, 31499, Note_on_c, 7, 71, 0
11, 31500, Note_on_c, 7, 67, 90
11, 31559, Note_on_c, 7, 67, 0
11, 31560, Note_on_c, 7, 69, 90
11, 31589, Note_on_c, 7, 69, 0
11, 31590, Note_on_c, 7, 67, 90
11, 31619, Note_on_c, 7, 67, 0
11, 31620, Note_on_c, 7, 69, 90
11, 31649, Note_on_c, 7, 69, 0
11, 31650, Note_on_c, 7, 66, 90
11, 31679, Note_on_c, 7, 66, 0
11, 31680, Note_on_c, 7, 67, 90
11, 31709, Note_on_c, 7, 67, 0
11, 31740, Note_on_c, 7, 62, 90
11, 31769, Note_on_c, 7, 62, 0
11, 32460, Note_on_c, 7, 69, 90
11, 32489, Note_on_c, 7, 69, 0
11, 32490, Note_on_c, 7, 67, 90
11, 32519, Note_on_c, 7, 67, 0
11, 32520, Note_on_c, 7, 69, 90
11, 32549, Note_on_c, 7, 69, 0
11, 32550, Note_on_c, 7, 66, 90
11, 32579, Note_on_c, 7, 66, 0
11, 32580, Note_on_c, 7, 68, 90
11, 32639, Note_on_c, 7, 68, 0
11, 32640, Note_on_c, 7, 64, 90
11, 32699, Note_on_c, 7, 64, 0
11, 32700, Note_on_c, 7, 76, 90
11, 32819, Note_on_c, 7, 76, 0
11, 32820, Note_on_c, 7, 71, 90
11, 32849, Note_on_c, 7, 71, 0
11, 32850, Note_on_c, 7, 70, 90
11, 32879, Note_on_c, 7, 70, 0
11, 32880, Note_on_c, 7, 71, 90
11, 32909, Note_on_c, 7, 71, 0
11, 32910, Note_on_c, 7, 73, 90
11, 32939, Note_on_c, 7, 73, 0
11, 32940, Note_on_c, 7, 70, 90
11, 32999, Note_on_c, 7, 70, 0
11, 33000, Note_on_c, 7, 66, 90
11, 33059, Note_on_c, 7, 66, 0
11, 33060, Note_on_c, 7, 78, 90
11, 33179, Note_on_c, 7, 78, 0
11, 33180, Note_on_c, 7, 73, 90
11, 33209, Note_on_c, 7, 73, 0
11, 33210, Note_on_c, 7, 71, 90
11, 33239, Note_on_c, 7, 71, 0
11, 33240, Note_on_c, 7, 70, 90
11, 33269, Note_on_c, 7, 70, 0
11, 33270, Note_on_c, 7, 73, 90
11, 33299, Note_on_c, 7, 73, 0
11, 33300, Note_on_c, 7, 71, 90
11, 33359, Note_on_c, 7, 71, 0
11, 33360, Note_on_c, 7, 66, 90
11, 33419, Note_on_c, 7, 66, 0
11, 33420, Note_on_c, 7, 71, 90
11, 33509, Note_on_c, 7, 71, 0
11, 33510, Note_on_c, 7, 69, 90
11, 33539, Note_on_c, 7, 69, 0
11, 33540, Note_on_c, 7, 71, 90
11, 33599, Note_on_c, 7, 71, 0
11, 33600, Note_on_c, 7, 71, 90
11, 33719, Note_on_c, 7, 71, 0
11, 33720, Note_on_c, 7, 69, 90
11, 33779, Note_on_c, 7, 69, 0
11, 33780, Note_on_c, 7, 68, 90
11, 33839, Note_on_c, 7, 68, 0
11, 33840, Note_on_c, 7, 69, 90
11, 33899, Note_on_c, 7, 69, 0
11, 33900, Note_on_c, 7, 64, 90
11, 33959, Note_on_c, 7, 64, 0
11, 33960, Note_on_c, 7, 64, 90
11, 34019, Note_on_c, 7, 64, 0
11, 34020, Note_on_c, 7, 64, 90
11, 34079, Note_on_c, 7, 64, 0
11, 34080, Note_on_c, 7, 73, 90
11, 34109, Note_on_c, 7, 73, 0
11, 34110, Note_on_c, 7, 74, 90
11, 34139, Note_on_c, 7, 74, 0
11, 34140, Note_on_c, 7, 76, 90
11, 34259, Note_on_c, 7, 76, 0
11, 34260, Note_on_c, 7, 73, 90
11, 34319, Note_on_c, 7, 73, 0
11, 34320, Note_on_c, 7, 69, 90
11, 34379, Note_on_c, 7, 69, 0
11, 34380, Note_on_c, 7, 74, 90
11, 34439, Note_on_c, 7, 74, 0
11, 34440, Note_on_c, 7, 74, 90
11, 34499, Note_on_c, 7, 74, 0
11, 34500, Note_on_c, 7, 73, 90
11, 34559, Note_on_c, 7, 73, 0
11, 34560, Note_on_c, 7, 74, 90
11, 34574, Note_on_c, 7, 74, 0
11, 34590, Note_on_c, 7, 74, 90
11, 34604, Note_on_c, 7, 74, 0
11, 34620, Note_on_c, 7, 74, 90
11, 34634, Note_on_c, 7, 74, 0
11, 34650, Note_on_c, 7, 69, 90
11, 34664, Note_on_c, 7, 69, 0
11, 34680, Note_on_c, 7, 69, 90
11, 34694, Note_on_c, 7, 69, 0
11, 34710, Note_on_c, 7, 66, 90
11, 34724, Note_on_c, 7, 66, 0
11, 34740, Note_on_c, 7, 66, 90
11, 34754, Note_on_c, 7, 66, 0
11, 34755, Note_on_c, 7, 69, 90
11, 34769, Note_on_c, 7, 69, 0
11, 34770, Note_on_c, 7, 71, 90
11, 34784, Note_on_c, 7, 71, 0
11, 34785, Note_on_c, 7, 73, 90
11, 34799, Note_on_c, 7, 73, 0
11, 34800, Note_on_c, 7, 74, 90
11, 34814, Note_on_c, 7, 74, 0
11, 34815, Note_on_c, 7, 76, 90
11, 34829, Note_on_c, 7, 76, 0
11, 34830, Note_on_c, 7, 74, 90
11, 34844, Note_on_c, 7, 74, 0
11, 34845, Note_on_c, 7, 73, 90
11, 34859, Note_on_c, 7, 73, 0
11, 34860, Note_on_c, 7, 71, 90
11, 34874, Note_on_c, 7, 71, 0
11, 34875, Note_on_c, 7, 69, 90
11, 34889, Note_on_c, 7, 69, 0
11, 34890, Note_on_c, 7, 68, 90
11, 34904, Note_on_c, 7, 68, 0
11, 34905, Note_on_c, 7, 66, 90
11, 34919, Note_on_c, 7, 66, 0
11, 34920, Note_on_c, 7, 64, 90
11, 34934, Note_on_c, 7, 64, 0
11, 34950, Note_on_c, 7, 73, 90
11, 34964, Note_on_c, 7, 73, 0
11, 34980, Note_on_c, 7, 73, 90
11, 34994, Note_on_c, 7, 73, 0
11, 35010, Note_on_c, 7, 67, 90
11, 35024, Note_on_c, 7, 67, 0
11, 35040, Note_on_c, 7, 67, 90
11, 35054, Note_on_c, 7, 67, 0
11, 35070, Note_on_c, 7, 64, 90
11, 35084, Note_on_c, 7, 64, 0
11, 35100, Note_on_c, 7, 64, 90
11, 35114, Note_on_c, 7, 64, 0
11, 35115, Note_on_c, 7, 68, 90
11, 35129, Note_on_c, 7, 68, 0
11, 35130, Note_on_c, 7, 70, 90
11, 35144, Note_on_c, 7, 70, 0
11, 35145, Note_on_c, 7, 71, 90
11, 35159, Note_on_c, 7, 71, 0
11, 35160, Note_on_c, 7, 73, 90
11, 35174, Note_on_c, 7, 73, 0
11, 35175, Note_on_c, 7, 74, 90
11, 35189, Note_on_c, 7, 74, 0
11, 35190, Note_on_c, 7, 73, 90
11, 35204, Note_on_c, 7, 73, 0
11, 35205, Note_on_c, 7, 71, 90
11, 35219, Note_on_c, 7, 71, 0
11, 35220, Note_on_c, 7, 70, 90
11, 35234, Note_on_c, 7, 70, 0
11, 35235, Note_on_c, 7, 68, 90
11, 35249, Note_on_c, 7, 68, 0
11, 35250, Note_on_c, 7, 66, 90
11, 35264, Note_on_c, 7, 66, 0
11, 35265, Note_on_c, 7, 64, 90
11, 35279, Note_on_c, 7, 64, 0
11, 35280, Note_on_c, 7, 62, 90
11, 35294, Note_on_c, 7, 62, 0
11, 35295, Note_on_c, 7, 59, 90
11, 35309, Note_on_c, 7, 59, 0
11, 35310, Note_on_c, 7, 61, 90
11, 35324, Note_on_c, 7, 61, 0
11, 35325, Note_on_c, 7, 63, 90
11, 35339, Note_on_c, 7, 63, 0
11, 35340, Note_on_c, 7, 64, 90
11, 35354, Note_on_c, 7, 64, 0
11, 35355, Note_on_c, 7, 61, 90
11, 35369, Note_on_c, 7, 61, 0
11, 35370, Note_on_c, 7, 63, 90
11, 35384, Note_on_c, 7, 63, 0
11, 35385, Note_on_c, 7, 65, 90
11, 35399, Note_on_c, 7, 65, 0
11, 35400, Note_on_c, 7, 66, 90
11, 35414, Note_on_c, 7, 66, 0
11, 35415, Note_on_c, 7, 63, 90
11, 35429, Note_on_c, 7, 63, 0
11, 35430, Note_on_c, 7, 65, 90
11, 35444, Note_on_c, 7, 65, 0
11, 35445, Note_on_c, 7, 66, 90
11, 35459, Note_on_c, 7, 66, 0
11, 35460, Note_on_c, 7, 68, 90
11, 35474, Note_on_c, 7, 68, 0
11, 35475, Note_on_c, 7, 65, 90
11, 35489, Note_on_c, 7, 65, 0
11, 35490, Note_on_c, 7, 66, 90
11, 35504, Note_on_c, 7, 66, 0
11, 35505, Note_on_c, 7, 68, 90
11, 35519, Note_on_c, 7, 68, 0
11, 35520, Note_on_c, 7, 69, 90
11, 35534, Note_on_c, 7, 69, 0
11, 35535, Note_on_c, 7, 66, 90
11, 35549, Note_on_c, 7, 66, 0
11, 35550, Note_on_c, 7, 68, 90
11, 35564, Note_on_c, 7, 68, 0
11, 35565, Note_on_c, 7, 69, 90
11, 35579, Note_on_c, 7, 69, 0
11, 35580, Note_on_c, 7, 71, 90
11, 35594, Note_on_c, 7, 71, 0
11, 35595, Note_on_c, 7, 68, 90
11, 35609, Note_on_c, 7, 68, 0
11, 35610, Note_on_c, 7, 69, 90
11, 35624, Note_on_c, 7, 69, 0
11, 35625, Note_on_c, 7, 71, 90
11, 35639, Note_on_c, 7, 71, 0
11, 35640, Note_on_c, 7, 73, 90
11, 35654, Note_on_c, 7, 73, 0
11, 35655, Note_on_c, 7, 69, 90
11, 35669, Note_on_c, 7, 69, 0
11, 35670, Note_on_c, 7, 71, 90
11, 35684, Note_on_c, 7, 71, 0
11, 35685, Note_on_c, 7, 73, 90
11, 35699, Note_on_c, 7, 73, 0
11, 35700, Note_on_c, 7, 75, 90
11, 35714, Note_on_c, 7, 75, 0
11, 35715, Note_on_c, 7, 71, 90
11, 35729, Note_on_c, 7, 71, 0
11, 35730, Note_on_c, 7, 73, 90
11, 35744, Note_on_c, 7, 73, 0
11, 35745, Note_on_c, 7, 75, 90
11, 35759, Note_on_c, 7, 75, 0
11, 35760, Note_on_c, 7, 77, 90
11, 35774, Note_on_c, 7, 77, 0
11, 35775, Note_on_c, 7, 73, 90
11, 35789, Note_on_c, 7, 73, 0
11, 35790, Note_on_c, 7, 75, 90
11, 35804, Note_on_c, 7, 75, 0
11, 35805, Note_on_c, 7, 77, 90
11, 35819, Note_on_c, 7, 77, 0
11, 35820, Note_on_c, 7, 78, 90
11, 35879, Note_on_c, 7, 78, 0
11, 35880, Note_on_c, 7, 66, 90
11, 35939, Note_on_c, 7, 66, 0
11, 35940, Note_on_c, 7, 73, 90
11, 35999, Note_on_c, 7, 73, 0
11, 36000, Note_on_c, 7, 69, 90
11, 36179, Note_on_c, 7, 69, 0
11, 37215, Note_on_c, 7, 74, 90
11, 37229, Note_on_c, 7, 74, 0
11, 37230, Note_on_c, 7, 73, 90
11, 37244, Note_on_c, 7, 73, 0
11, 37245, Note_on_c, 7, 71, 90
11, 37259, Note_on_c, 7, 71, 0
11, 37260, Note_on_c, 7, 69, 90
11, 37274, Note_on_c, 7, 69, 0
11, 37275, Note_on_c, 7, 74, 90
11, 37289, Note_on_c, 7, 74, 0
11, 37290, Note_on_c, 7, 73, 90
11, 37304, Note_on_c, 7, 73, 0
11, 37305, Note_on_c, 7, 71, 90
11, 37319, Note_on_c, 7, 71, 0
11, 37320, Note_on_c, 7, 69, 90
11, 37334, Note_on_c, 7, 69, 0
11, 37335, Note_on_c, 7, 67, 90
11, 37349, Note_on_c, 7, 67, 0
11, 37350, Note_on_c, 7, 66, 90
11, 37364, Note_on_c, 7, 66, 0
11, 37365, Note_on_c, 7, 64, 90
11, 37379, Note_on_c, 7, 64, 0
11, 37380, Note_on_c, 7, 66, 90
11, 37394, Note_on_c, 7, 66, 0
11, 37395, Note_on_c, 7, 71, 90
11, 37409, Note_on_c, 7, 71, 0
11, 37410, Note_on_c, 7, 69, 90
11, 37424, Note_on_c, 7, 69, 0
11, 37425, Note_on_c, 7, 67, 90
11, 37439, Note_on_c, 7, 67, 0
11, 37440, Note_on_c, 7, 66, 90
11, 37454, Note_on_c, 7, 66, 0
11, 37455, Note_on_c, 7, 71, 90
11, 37469, Note_on_c, 7, 71, 0
11, 37470, Note_on_c, 7, 69, 90
11, 37484, Note_on_c, 7, 69, 0
11, 37485, Note_on_c, 7, 67, 90
11, 37499, Note_on_c, 7, 67, 0
11, 37500, Note_on_c, 7, 66, 90
11, 37514, Note_on_c, 7, 66, 0
11, 37515, Note_on_c, 7, 64, 90
11, 37529, Note_on_c, 7, 64, 0
11, 37530, Note_on_c, 7, 62, 90
11, 37544, Note_on_c, 7, 62, 0
11, 37545, Note_on_c, 7, 61, 90
11, 37559, Note_on_c, 7, 61, 0
11, 37560, Note_on_c, 7, 62, 90
11, 37574, Note_on_c, 7, 62, 0
11, 37575, Note_on_c, 7, 59, 90
11, 37589, Note_on_c, 7, 59, 0
11, 37590, Note_on_c, 7, 57, 90
11, 37604, Note_on_c, 7, 57, 0
11, 37605, Note_on_c, 7, 55, 90
11, 37619, Note_on_c, 7, 55, 0
11, 37620, Note_on_c, 7, 57, 90
11, 37634, Note_on_c, 7, 57, 0
11, 37635, Note_on_c, 7, 59, 90
11, 37649, Note_on_c, 7, 59, 0
11, 37650, Note_on_c, 7, 57, 90
11, 37664, Note_on_c, 7, 57, 0
11, 37665, Note_on_c, 7, 55, 90
11, 37679, Note_on_c, 7, 55, 0
11, 37680, Note_on_c, 7, 57, 90
11, 37694, Note_on_c, 7, 57, 0
11, 37695, Note_on_c, 7, 59, 90
11, 37709, Note_on_c, 7, 59, 0
11, 37710, Note_on_c, 7, 57, 90
11, 37724, Note_on_c, 7, 57, 0
11, 37725, Note_on_c, 7, 55, 90
11, 37739, Note_on_c, 7, 55, 0
11, 37740, Note_on_c, 7, 57, 90
11, 37757, Note_on_c, 7, 57, 0
11, 37770, Note_on_c, 7, 57, 90
11, 37787, Note_on_c, 7, 57, 0
11, 37800, Note_on_c, 7, 57, 90
11, 37817, Note_on_c, 7, 57, 0
11, 37830, Note_on_c, 7, 57, 90
11, 37847, Note_on_c, 7, 57, 0
11, 37860, Note_on_c, 7, 57, 90
11, 37877, Note_on_c, 7, 57, 0
11, 37890, Note_on_c, 7, 57, 90
11, 37907, Note_on_c, 7, 57, 0
11, 37920, Note_on_c, 7, 57, 90
11, 37937, Note_on_c, 7, 57, 0
11, 37950, Note_on_c, 7, 57, 90
11, 37967, Note_on_c, 7, 57, 0
11, 37980, Note_on_c, 7, 57, 90
11, 37997, Note_on_c, 7, 57, 0
11, 38010, Note_on_c, 7, 57, 90
11, 38027, Note_on_c, 7, 57, 0
11, 38040, Note_on_c, 7, 57, 90
11, 38057, Note_on_c, 7, 57, 0
11, 38070, Note_on_c, 7, 57, 90
11, 38087, Note_on_c, 7, 57, 0
11, 38100, Note_on_c, 7, 57, 90
11, 38117, Note_on_c, 7, 57, 0
11, 38130, Note_on_c, 7, 57, 90
11, 38147, Note_on_c, 7, 57, 0
11, 38160, Note_on_c, 7, 57, 90
11, 38177, Note_on_c, 7, 57, 0
11, 38190, Note_on_c, 7, 57, 90
11, 38207, Note_on_c, 7, 57, 0
11, 38220, Note_on_c, 7, 57, 90
11, 38237, Note_on_c, 7, 57, 0
11, 38250, Note_on_c, 7, 57, 90
11, 38267, Note_on_c, 7, 57, 0
11, 38280, Note_on_c, 7, 57, 90
11, 38297, Note_on_c, 7, 57, 0
11, 38310, Note_on_c, 7, 57, 90
11, 38327, Note_on_c, 7, 57, 0
11, 38340, Note_on_c, 7, 57, 90
11, 38357, Note_on_c, 7, 57, 0
11, 38370, Note_on_c, 7, 57, 90
11, 38387, Note_on_c, 7, 57, 0
11, 38400, Note_on_c, 7, 74, 90
11, 38429, Note_on_c, 7, 74, 0
11, 38430, Note_on_c, 7, 71, 90
11, 38459, Note_on_c, 7, 71, 0
11, 38460, Note_on_c, 7, 72, 90
11, 38489, Note_on_c, 7, 72, 0
11, 38520, Note_on_c, 7, 69, 90
11, 38549, Note_on_c, 7, 69, 0
11, 38580, Note_on_c, 7, 69, 90
11, 38609, Note_on_c, 7, 69, 0
11, 38640, Note_on_c, 7, 69, 90
11, 38655, Note_on_c, 7, 69, 0
11, 38655, Note_on_c, 7, 71, 90
11, 38670, Note_on_c, 7, 71, 0
11, 38670, Note_on_c, 7, 69, 90
11, 38700, Note_on_c, 7, 69, 0
11, 38700, Note_on_c, 7, 67, 90
11, 38759, Note_on_c, 7, 67, 0
11, 38760, Note_on_c, 7, 76, 90
11, 38819, Note_on_c, 7, 76, 0
11, 38820, Note_on_c, 7, 69, 90
11, 38849, Note_on_c, 7, 69, 0
11, 38850, Note_on_c, 7, 71, 90
11, 38879, Note_on_c, 7, 71, 0
11, 38880, Note_on_c, 7, 73, 90
11, 38939, Note_on_c, 7, 73, 0
11, 38940, Note_on_c, 7, 74, 90
11, 38999, Note_on_c, 7, 74, 0
11, 39000, Note_on_c, 7, 73, 90
11, 39119, Note_on_c, 7, 73, 0
11, 39120, Note_on_c, 7, 73, 90
11, 39179, Note_on_c, 7, 73, 0
11, 39180, Note_on_c, 7, 72, 90
11, 39239, Note_on_c, 7, 72, 0
11, 39240, Note_on_c, 7, 72, 90
11, 39299, Note_on_c, 7, 72, 0
11, 39300, Note_on_c, 7, 72, 90
11, 39359, Note_on_c, 7, 72, 0
11, 39360, Note_on_c, 7, 66, 90
11, 39419, Note_on_c, 7, 66, 0
11, 39420, Note_on_c, 7, 66, 90
11, 39479, Note_on_c, 7, 66, 0
11, 39480, Note_on_c, 7, 66, 90
11, 39539, Note_on_c, 7, 66, 0
11, 39540, Note_on_c, 7, 64, 90
11, 39599, Note_on_c, 7, 64, 0
11, 39600, Note_on_c, 7, 76, 90
11, 39659, Note_on_c, 7, 76, 0
11, 39660, Note_on_c, 7, 75, 90
11, 39719, Note_on_c, 7, 75, 0
11, 39720, Note_on_c, 7, 76, 90
11, 39779, Note_on_c, 7, 76, 0
11, 39780, Note_on_c, 7, 71, 90
11, 39839, Note_on_c, 7, 71, 0
11, 39840, Note_on_c, 7, 71, 90
11, 39899, Note_on_c, 7, 71, 0
11, 39900, Note_on_c, 7, 76, 90
11, 39929, Note_on_c, 7, 76, 0
11, 39930, Note_on_c, 7, 79, 90
11, 39944, Note_on_c, 7, 79, 0
11, 39945, Note_on_c, 7, 78, 90
11, 39959, Note_on_c, 7, 78, 0
11, 39960, Note_on_c, 7, 76, 90
11, 39989, Note_on_c, 7, 76, 0
11, 39990, Note_on_c, 7, 79, 90
11, 40004, Note_on_c, 7, 79, 0
11, 40005, Note_on_c, 7, 78, 90
11, 40019, Note_on_c, 7, 78, 0
11, 40020, Note_on_c, 7, 76, 90
11, 40109, Note_on_c, 7, 76, 0
11, 40110, Note_on_c, 7, 73, 90
11, 40124, Note_on_c, 7, 73, 0
11, 40125, Note_on_c, 7, 74, 90
11, 40139, Note_on_c, 7, 74, 0
11, 40140, Note_on_c, 7, 76, 90
11, 40169, Note_on_c, 7, 76, 0
11, 40170, Note_on_c, 7, 73, 90
11, 40184, Note_on_c, 7, 73, 0
11, 40185, Note_on_c, 7, 74, 90
11, 40199, Note_on_c, 7, 74, 0
11, 40200, Note_on_c, 7, 76, 90
11, 40289, Note_on_c, 7, 76, 0
11, 40290, Note_on_c, 7, 78, 90
11, 40304, Note_on_c, 7, 78, 0
11, 40305, Note_on_c, 7, 76, 90
11, 40319, Note_on_c, 7, 76, 0
11, 40320, Note_on_c, 7, 74, 90
11, 40349, Note_on_c, 7, 74, 0
11, 40380, Note_on_c, 7, 73, 90
11, 40409, Note_on_c, 7, 73, 0
11, 40440, Note_on_c, 7, 74, 90
11, 40469, Note_on_c, 7, 74, 0
11, 40470, Note_on_c, 7, 78, 90
11, 40484, Note_on_c, 7, 78, 0
11, 40485, Note_on_c, 7, 76, 90
11, 40499, Note_on_c, 7, 76, 0
11, 40500, Note_on_c, 7, 74, 90
11, 40529, Note_on_c, 7, 74, 0
11, 40530, Note_on_c, 7, 78, 90
11, 40544, Note_on_c, 7, 78, 0
11, 40545, Note_on_c, 7, 76, 90
11, 40559, Note_on_c, 7, 76, 0
11, 40560, Note_on_c, 7, 74, 90
11, 40649, Note_on_c, 7, 74, 0
11, 40680, Note_on_c, 7, 74, 90
11, 40709, Note_on_c, 7, 74, 0
11, 40740, Note_on_c, 7, 78, 90
11, 40769, Note_on_c, 7, 78, 0
11, 40800, Note_on_c, 7, 76, 90
11, 40829, Note_on_c, 7, 76, 0
11, 40860, Note_on_c, 7, 71, 90
11, 40889, Note_on_c, 7, 71, 0
11, 40920, Note_on_c, 7, 76, 90
11, 41040, Note_on_c, 7, 76, 0
11, 41040, Note_on_c, 7, 73, 90
11, 41069, Note_on_c, 7, 73, 0
11, 41100, Note_on_c, 7, 76, 90
11, 41129, Note_on_c, 7, 76, 0
11, 41160, Note_on_c, 7, 74, 90
11, 41189, Note_on_c, 7, 74, 0
11, 41220, Note_on_c, 7, 69, 90
11, 41249, Note_on_c, 7, 69, 0
11, 41280, Note_on_c, 7, 74, 90
11, 41400, Note_on_c, 7, 74, 0
11, 41400, Note_on_c, 7, 69, 90
11, 41429, Note_on_c, 7, 69, 0
11, 41460, Note_on_c, 7, 69, 90
11, 41489, Note_on_c, 7, 69, 0
11, 41520, Note_on_c, 7, 71, 90
11, 41549, Note_on_c, 7, 71, 0
11, 41700, Note_on_c, 7, 76, 90
11, 41729, Note_on_c, 7, 76, 0
11, 41880, Note_on_c, 7, 78, 90
11, 41909, Note_on_c, 7, 78, 0
11, 41940, Note_on_c, 7, 81, 90
11, 41969, Note_on_c, 7, 81, 0
11, 42000, Note_on_c, 7, 69, 90
11, 42029, Note_on_c, 7, 69, 0
11, 42060, Note_on_c, 7, 69, 90
11, 42089, Note_on_c, 7, 69, 0
11, 42270, Note_on_c, 7, 62, 90
11, 42284, Note_on_c, 7, 62, 0
11, 42285, Note_on_c, 7, 64, 90
11, 42299, Note_on_c, 7, 64, 0
11, 42300, Note_on_c, 7, 66, 90
11, 42314, Note_on_c, 7, 66, 0
11, 42315, Note_on_c, 7, 64, 90
11, 42329, Note_on_c, 7, 64, 0
11, 42330, Note_on_c, 7, 66, 90
11, 42344, Note_on_c, 7, 66, 0
11, 42345, Note_on_c, 7, 64, 90
11, 42359, Note_on_c, 7, 64, 0
11, 42360, Note_on_c, 7, 66, 90
11, 42374, Note_on_c, 7, 66, 0
11, 42375, Note_on_c, 7, 64, 90
11, 42389, Note_on_c, 7, 64, 0
11, 42390, Note_on_c, 7, 62, 90
11, 42404, Note_on_c, 7, 62, 0
11, 42405, Note_on_c, 7, 64, 90
11, 42419, Note_on_c, 7, 64, 0
11, 42420, Note_on_c, 7, 66, 90
11, 42479, Note_on_c, 7, 66, 0
11, 42600, Note_on_c, 7, 69, 90
11, 42659, Note_on_c, 7, 69, 0
11, 42780, Note_on_c, 7, 66, 90
11, 42839, Note_on_c, 7, 66, 0
11, 42960, Note_on_c, 7, 57, 90
11, 43019, Note_on_c, 7, 57, 0
11, 43140, Note_on_c, 7, 62, 90
11, 43199, Note_on_c, 7, 62, 0
11, 43335, Note_on_c, 7, 74, 90
11, 43349, Note_on_c, 7, 74, 0
11, 43350, Note_on_c, 7, 73, 90
11, 43364, Note_on_c, 7, 73, 0
11, 43365, Note_on_c, 7, 71, 90
11, 43379, Note_on_c, 7, 71, 0
11, 43380, Note_on_c, 7, 69, 90
11, 43394, Note_on_c, 7, 69, 0
11, 43395, Note_on_c, 7, 74, 90
11, 43409, Note_on_c, 7, 74, 0
11, 43410, Note_on_c, 7, 73, 90
11, 43424, Note_on_c, 7, 73, 0
11, 43425, Note_on_c, 7, 71, 90
11, 43439, Note_on_c, 7, 71, 0
11, 43440, Note_on_c, 7, 69, 90
11, 43454, Note_on_c, 7, 69, 0
11, 43455, Note_on_c, 7, 67, 90
11, 43469, Note_on_c, 7, 67, 0
11, 43470, Note_on_c, 7, 66, 90
11, 43484, Note_on_c, 7, 66, 0
11, 43485, Note_on_c, 7, 64, 90
11, 43499, Note_on_c, 7, 64, 0
11, 43500, Note_on_c, 7, 66, 90
11, 43514, Note_on_c, 7, 66, 0
11, 43515, Note_on_c, 7, 71, 90
11, 43529, Note_on_c, 7, 71, 0
11, 43530, Note_on_c, 7, 69, 90
11, 43544, Note_on_c, 7, 69, 0
11, 43545, Note_on_c, 7, 67, 90
11, 43559, Note_on_c, 7, 67, 0
11, 43560, Note_on_c, 7, 66, 90
11, 43574, Note_on_c, 7, 66, 0
11, 43575, Note_on_c, 7, 71, 90
11, 43589, Note_on_c, 7, 71, 0
11, 43590, Note_on_c, 7, 69, 90
11, 43604, Note_on_c, 7, 69, 0
11, 43605, Note_on_c, 7, 67, 90
11, 43619, Note_on_c, 7, 67, 0
11, 43620, Note_on_c, 7, 66, 90
11, 43634, Note_on_c, 7, 66, 0
11, 43635, Note_on_c, 7, 64, 90
11, 43649, Note_on_c, 7, 64, 0
11, 43650, Note_on_c, 7, 62, 90
11, 43664, Note_on_c, 7, 62, 0
11, 43665, Note_on_c, 7, 61, 90
11, 43679, Note_on_c, 7, 61, 0
11, 43680, Note_on_c, 7, 62, 90
11, 43694, Note_on_c, 7, 62, 0
11, 43695, Note_on_c, 7, 59, 90
11, 43709, Note_on_c, 7, 59, 0
11, 43710, Note_on_c, 7, 57, 90
11, 43724, Note_on_c, 7, 57, 0
11, 43725, Note_on_c, 7, 55, 90
11, 43739, Note_on_c, 7, 55, 0
11, 43740, Note_on_c, 7, 57, 90
11, 43754, Note_on_c, 7, 57, 0
11, 43755, Note_on_c, 7, 59, 90
11, 43769, Note_on_c, 7, 59, 0
11, 43770, Note_on_c, 7, 57, 90
11, 43784, Note_on_c, 7, 57, 0
11, 43785, Note_on_c, 7, 55, 90
11, 43799, Note_on_c, 7, 55, 0
11, 43800, Note_on_c, 7, 57, 90
11, 43814, Note_on_c, 7, 57, 0
11, 43815, Note_on_c, 7, 59, 90
11, 43829, Note_on_c, 7, 59, 0
11, 43830, Note_on_c, 7, 57, 90
11, 43844, Note_on_c, 7, 57, 0
11, 43845, Note_on_c, 7, 55, 90
11, 43859, Note_on_c, 7, 55, 0
11, 43860, Note_on_c, 7, 57, 90
11, 43877, Note_on_c, 7, 57, 0
11, 43890, Note_on_c, 7, 57, 90
11, 43907, Note_on_c, 7, 57, 0
11, 43920, Note_on_c, 7, 57, 90
11, 43937, Note_on_c, 7, 57, 0
11, 43950, Note_on_c, 7, 57, 90
11, 43967, Note_on_c, 7, 57, 0
11, 43980, Note_on_c, 7, 57, 90
11, 43997, Note_on_c, 7, 57, 0
11, 44010, Note_on_c, 7, 57, 90
11, 44027, Note_on_c, 7, 57, 0
11, 44040, Note_on_c, 7, 57, 90
11, 44057, Note_on_c, 7, 57, 0
11, 44070, Note_on_c, 7, 57, 90
11, 44087, Note_on_c, 7, 57, 0
11, 44100, Note_on_c, 7, 57, 90
11, 44117, Note_on_c, 7, 57, 0
11, 44130, Note_on_c, 7, 57, 90
11, 44147, Note_on_c, 7, 57, 0
11, 44160, Note_on_c, 7, 57, 90
11, 44177, Note_on_c, 7, 57, 0
11, 44190, Note_on_c, 7, 57, 90
11, 44207, Note_on_c, 7, 57, 0
11, 44220, Note_on_c, 7, 57, 90
11, 44237, Note_on_c, 7, 57, 0
11, 44250, Note_on_c, 7, 57, 90
11, 44267, Note_on_c, 7, 57, 0
11, 44280, Note_on_c, 7, 57, 90
11, 44297, Note_on_c, 7, 57, 0
11, 44310, Note_on_c, 7, 57, 90
11, 44327, Note_on_c, 7, 57, 0
11, 44340, Note_on_c, 7, 57, 90
11, 44357, Note_on_c, 7, 57, 0
11, 44370, Note_on_c, 7, 57, 90
11, 44387, Note_on_c, 7, 57, 0
11, 44400, Note_on_c, 7, 57, 90
11, 44417, Note_on_c, 7, 57, 0
11, 44430, Note_on_c, 7, 57, 90
11, 44447, Note_on_c, 7, 57, 0
11, 44460, Note_on_c, 7, 57, 90
11, 44477, Note_on_c, 7, 57, 0
11, 44490, Note_on_c, 7, 57, 90
11, 44507, Note_on_c, 7, 57, 0
11, 44520, Note_on_c, 7, 74, 90
11, 44549, Note_on_c, 7, 74, 0
11, 44550, Note_on_c, 7, 71, 90
11, 44579, Note_on_c, 7, 71, 0
11, 44580, Note_on_c, 7, 72, 90
11, 44609, Note_on_c, 7, 72, 0
11, 44640, Note_on_c, 7, 69, 90
11, 44669, Note_on_c, 7, 69, 0
11, 44700, Note_on_c, 7, 69, 90
11, 44729, Note_on_c, 7, 69, 0
11, 44760, Note_on_c, 7, 69, 90
11, 44775, Note_on_c, 7, 69, 0
11, 44775, Note_on_c, 7, 71, 90
11, 44790, Note_on_c, 7, 71, 0
11, 44790, Note_on_c, 7, 69, 90
11, 44819, Note_on_c, 7, 69, 0
11, 44820, Note_on_c, 7, 67, 90
11, 44879, Note_on_c, 7, 67, 0
11, 44880, Note_on_c, 7, 76, 90
11, 44939, Note_on_c, 7, 76, 0
11, 44940, Note_on_c, 7, 69, 90
11, 44969, Note_on_c, 7, 69, 0
11, 44970, Note_on_c, 7, 71, 90
11, 44999, Note_on_c, 7, 71, 0
11, 45000, Note_on_c, 7, 73, 90
11, 45059, Note_on_c, 7, 73, 0
11, 45060, Note_on_c, 7, 74, 90
11, 45119, Note_on_c, 7, 74, 0
11, 45120, Note_on_c, 7, 73, 90
11, 45239, Note_on_c, 7, 73, 0
11, 45360, Note_on_c, 7, 64, 90
11, 45389, Note_on_c, 7, 64, 0
11, 45390, Note_on_c, 7, 66, 90
11, 45419, Note_on_c, 7, 66, 0
11, 45420, Note_on_c, 7, 67, 90
11, 45434, Note_on_c, 7, 67, 0
11, 45435, Note_on_c, 7, 66, 90
11, 45449, Note_on_c, 7, 66, 0
11, 45450, Note_on_c, 7, 64, 90
11, 45464, Note_on_c, 7, 64, 0
11, 45465, Note_on_c, 7, 66, 90
11, 45479, Note_on_c, 7, 66, 0
11, 45480, Note_on_c, 7, 67, 90
11, 45509, Note_on_c, 7, 67, 0
11, 45540, Note_on_c, 7, 67, 90
11, 45569, Note_on_c, 7, 67, 0
11, 45600, Note_on_c, 7, 69, 90
11, 45629, Note_on_c, 7, 69, 0
11, 45660, Note_on_c, 7, 71, 90
11, 45719, Note_on_c, 7, 71, 0
11, 45720, Note_on_c, 7, 71, 90
11, 45779, Note_on_c, 7, 71, 0
11, 45780, Note_on_c, 7, 64, 90
11, 45839, Note_on_c, 7, 64, 0
11, 45840, Note_on_c, 7, 71, 90
11, 45869, Note_on_c, 7, 71, 0
11, 45900, Note_on_c, 7, 71, 90
11, 45929, Note_on_c, 7, 71, 0
11, 45960, Note_on_c, 7, 69, 90
11, 45989, Note_on_c, 7, 69, 0
11, 46020, Note_on_c, 7, 69, 90
11, 46079, Note_on_c, 7, 69, 0
11, 46080, Note_on_c, 7, 69, 90
11, 46139, Note_on_c, 7, 69, 0
11, 46140, Note_on_c, 7, 74, 90
11, 46199, Note_on_c, 7, 74, 0
11, 46200, Note_on_c, 7, 76, 90
11, 46259, Note_on_c, 7, 76, 0
11, 46260, Note_on_c, 7, 61, 90
11, 46289, Note_on_c, 7, 61, 0
11, 46290, Note_on_c, 7, 62, 90
11, 46319, Note_on_c, 7, 62, 0
11, 46320, Note_on_c, 7, 64, 90
11, 46334, Note_on_c, 7, 64, 0
11, 46335, Note_on_c, 7, 62, 90
11, 46349, Note_on_c, 7, 62, 0
11, 46350, Note_on_c, 7, 61, 90
11, 46364, Note_on_c, 7, 61, 0
11, 46365, Note_on_c, 7, 62, 90
11, 46379, Note_on_c, 7, 62, 0
11, 46380, Note_on_c, 7, 64, 90
11, 46409, Note_on_c, 7, 64, 0
11, 46410, Note_on_c, 7, 62, 90
11, 46439, Note_on_c, 7, 62, 0
11, 46440, Note_on_c, 7, 64, 90
11, 46469, Note_on_c, 7, 64, 0
11, 46470, Note_on_c, 7, 66, 90
11, 46499, Note_on_c, 7, 66, 0
11, 46500, Note_on_c, 7, 67, 90
11, 46514, Note_on_c, 7, 67, 0
11, 46515, Note_on_c, 7, 66, 90
11, 46529, Note_on_c, 7, 66, 0
11, 46530, Note_on_c, 7, 64, 90
11, 46544, Note_on_c, 7, 64, 0
11, 46545, Note_on_c, 7, 66, 90
11, 46559, Note_on_c, 7, 66, 0
11, 46560, Note_on_c, 7, 67, 90
11, 46619, Note_on_c, 7, 67, 0
11, 46620, Note_on_c, 7, 64, 90
11, 46679, Note_on_c, 7, 64, 0
11, 46680, Note_on_c, 7, 62, 90
11, 46769, Note_on_c, 7, 62, 0
11, 46770, Note_on_c, 7, 61, 90
11, 46799, Note_on_c, 7, 61, 0
11, 46800, Note_on_c, 7, 62, 90
11, 46829, Note_on_c, 7, 62, 0
11, 46830, Note_on_c, 7, 64, 90
11, 46859, Note_on_c, 7, 64, 0
11, 46860, Note_on_c, 7, 66, 90
11, 46874, Note_on_c, 7, 66, 0
11, 46875, Note_on_c, 7, 64, 90
11, 46889, Note_on_c, 7, 64, 0
11, 46890, Note_on_c, 7, 62, 90
11, 46904, Note_on_c, 7, 62, 0
11, 46905, Note_on_c, 7, 64, 90
11, 46919, Note_on_c, 7, 64, 0
11, 46920, Note_on_c, 7, 66, 90
11, 46949, Note_on_c, 7, 66, 0
11, 46950, Note_on_c, 7, 64, 90
11, 46979, Note_on_c, 7, 64, 0
11, 46980, Note_on_c, 7, 66, 90
11, 47009, Note_on_c, 7, 66, 0
11, 47010, Note_on_c, 7, 69, 90
11, 47039, Note_on_c, 7, 69, 0
11, 47040, Note_on_c, 7, 69, 90
11, 47054, Note_on_c, 7, 69, 0
11, 47055, Note_on_c, 7, 67, 90
11, 47069, Note_on_c, 7, 67, 0
11, 47070, Note_on_c, 7, 66, 90
11, 47084, Note_on_c, 7, 66, 0
11, 47085, Note_on_c, 7, 67, 90
11, 47099, Note_on_c, 7, 67, 0
11, 47100, Note_on_c, 7, 69, 90
11, 47159, Note_on_c, 7, 69, 0
11, 47160, Note_on_c, 7, 62, 90
11, 47219, Note_on_c, 7, 62, 0
11, 47340, Note_on_c, 7, 64, 90
11, 47369, Note_on_c, 7, 64, 0
11, 47370, Note_on_c, 7, 67, 90
11, 47399, Note_on_c, 7, 67, 0
11, 47400, Note_on_c, 7, 67, 90
11, 47414, Note_on_c, 7, 67, 0
11, 47415, Note_on_c, 7, 66, 90
11, 47429, Note_on_c, 7, 66, 0
11, 47430, Note_on_c, 7, 64, 90
11, 47444, Note_on_c, 7, 64, 0
11, 47445, Note_on_c, 7, 66, 90
11, 47459, Note_on_c, 7, 66, 0
11, 47460, Note_on_c, 7, 67, 90
11, 47489, Note_on_c, 7, 67, 0
11, 47490, Note_on_c, 7, 71, 90
11, 47519, Note_on_c, 7, 71, 0
11, 47520, Note_on_c, 7, 76, 90
11, 47549, Note_on_c, 7, 76, 0
11, 47580, Note_on_c, 7, 75, 90
11, 47609, Note_on_c, 7, 75, 0
11, 47640, Note_on_c, 7, 76, 90
11, 47699, Note_on_c, 7, 76, 0
11, 47700, Note_on_c, 7, 71, 90
11, 47759, Note_on_c, 7, 71, 0
11, 47760, Note_on_c, 7, 67, 90
11, 47879, Note_on_c, 7, 67, 0
11, 47880, Note_on_c, 7, 67, 90
11, 47939, Note_on_c, 7, 67, 0
11, 47940, Note_on_c, 7, 67, 90
11, 47999, Note_on_c, 7, 67, 0
11, 48000, Note_on_c, 7, 61, 90
11, 48059, Note_on_c, 7, 61, 0
11, 48060, Note_on_c, 7, 61, 90
11, 48119, Note_on_c, 7, 61, 0
11, 48120, Note_on_c, 7, 61, 90
11, 48179, Note_on_c, 7, 61, 0
11, 48180, Note_on_c, 7, 59, 90
11, 48239, Note_on_c, 7, 59, 0
11, 48240, Note_on_c, 7, 71, 90
11, 48299, Note_on_c, 7, 71, 0
11, 48300, Note_on_c, 7, 70, 90
11, 48359, Note_on_c, 7, 70, 0
11, 48360, Note_on_c, 7, 71, 90
11, 48419, Note_on_c, 7, 71, 0
11, 48420, Note_on_c, 7, 66, 90
11, 48479, Note_on_c, 7, 66, 0
11, 48480, Note_on_c, 7, 67, 90
11, 48539, Note_on_c, 7, 67, 0
11, 48540, Note_on_c, 7, 71, 90
11, 48569, Note_on_c, 7, 71, 0
11, 48570, Note_on_c, 7, 74, 90
11, 48584, Note_on_c, 7, 74, 0
11, 48585, Note_on_c, 7, 73, 90
11, 48599, Note_on_c, 7, 73, 0
11, 48600, Note_on_c, 7, 71, 90
11, 48629, Note_on_c, 7, 71, 0
11, 48630, Note_on_c, 7, 74, 90
11, 48644, Note_on_c, 7, 74, 0
11, 48645, Note_on_c, 7, 73, 90
11, 48659, Note_on_c, 7, 73, 0
11, 48660, Note_on_c, 7, 71, 90
11, 48749, Note_on_c, 7, 71, 0
11, 48750, Note_on_c, 7, 68, 90
11, 48764, Note_on_c, 7, 68, 0
11, 48765, Note_on_c, 7, 69, 90
11, 48779, Note_on_c, 7, 69, 0
11, 48780, Note_on_c, 7, 71, 90
11, 48809, Note_on_c, 7, 71, 0
11, 48810, Note_on_c, 7, 68, 90
11, 48824, Note_on_c, 7, 68, 0
11, 48825, Note_on_c, 7, 69, 90
11, 48839, Note_on_c, 7, 69, 0
11, 48840, Note_on_c, 7, 71, 90
11, 48929, Note_on_c, 7, 71, 0
11, 48930, Note_on_c, 7, 73, 90
11, 48944, Note_on_c, 7, 73, 0
11, 48945, Note_on_c, 7, 71, 90
11, 48959, Note_on_c, 7, 71, 0
11, 48960, Note_on_c, 7, 69, 90
11, 48989, Note_on_c, 7, 69, 0
11, 49020, Note_on_c, 7, 68, 90
11, 49049, Note_on_c, 7, 68, 0
11, 49080, Note_on_c, 7, 69, 90
11, 49109, Note_on_c, 7, 69, 0
11, 49110, Note_on_c, 7, 73, 90
11, 49124, Note_on_c, 7, 73, 0
11, 49125, Note_on_c, 7, 71, 90
11, 49139, Note_on_c, 7, 71, 0
11, 49140, Note_on_c, 7, 69, 90
11, 49169, Note_on_c, 7, 69, 0
11, 49170, Note_on_c, 7, 73, 90
11, 49184, Note_on_c, 7, 73, 0
11, 49185, Note_on_c, 7, 71, 90
11, 49199, Note_on_c, 7, 71, 0
11, 49200, Note_on_c, 7, 69, 90
11, 49319, Note_on_c, 7, 69, 0
11, 49320, Note_on_c, 7, 69, 90
11, 49349, Note_on_c, 7, 69, 0
11, 49380, Note_on_c, 7, 73, 90
11, 49409, Note_on_c, 7, 73, 0
11, 49440, Note_on_c, 7, 71, 90
11, 49469, Note_on_c, 7, 71, 0
11, 49500, Note_on_c, 7, 66, 90
11, 49529, Note_on_c, 7, 66, 0
11, 49560, Note_on_c, 7, 71, 90
11, 49679, Note_on_c, 7, 71, 0
11, 49680, Note_on_c, 7, 68, 90
11, 49709, Note_on_c, 7, 68, 0
11, 49740, Note_on_c, 7, 71, 90
11, 49769, Note_on_c, 7, 71, 0
11, 49800, Note_on_c, 7, 69, 90
11, 49829, Note_on_c, 7, 69, 0
11, 49860, Note_on_c, 7, 64, 90
11, 49889, Note_on_c, 7, 64, 0
11, 49920, Note_on_c, 7, 69, 90
11, 50039, Note_on_c, 7, 69, 0
11, 50040, Note_on_c, 7, 64, 90
11, 50069, Note_on_c, 7, 64, 0
11, 50100, Note_on_c, 7, 64, 90
11, 50129, Note_on_c, 7, 64, 0
11, 50160, Note_on_c, 7, 66, 90
11, 50189, Note_on_c, 7, 66, 0
11, 50340, Note_on_c, 7, 71, 90
11, 50369, Note_on_c, 7, 71, 0
11, 50520, Note_on_c, 7, 69, 90
11, 50549, Note_on_c, 7, 69, 0
11, 50580, Note_on_c, 7, 78, 90
11, 50609, Note_on_c, 7, 78, 0
11, 50640, Note_on_c, 7, 76, 90
11, 50669, Note_on_c, 7, 76, 0
11, 50700, Note_on_c, 7, 76, 90
11, 50729, Note_on_c, 7, 76, 0
11, 50730, Note_on_c, 7, 64, 90
11, 50747, Note_on_c, 7, 64, 0
11, 50760, Note_on_c, 7, 64, 90
11, 50777, Note_on_c, 7, 64, 0
11, 50790, Note_on_c, 7, 64, 90
11, 50807, Note_on_c, 7, 64, 0
11, 50820, Note_on_c, 7, 64, 90
11, 50837, Note_on_c, 7, 64, 0
11, 50850, Note_on_c, 7, 64, 90
11, 50867, Note_on_c, 7, 64, 0
11, 50880, Note_on_c, 7, 64, 90
11, 50897, Note_on_c, 7, 64, 0
11, 50910, Note_on_c, 7, 64, 90
11, 50927, Note_on_c, 7, 64, 0
11, 50940, Note_on_c, 7, 64, 90
11, 50957, Note_on_c, 7, 64, 0
11, 50970, Note_on_c, 7, 64, 90
11, 50987, Note_on_c, 7, 64, 0
11, 51000, Note_on_c, 7, 64, 90
11, 51017, Note_on_c, 7, 64, 0
11, 51030, Note_on_c, 7, 64, 90
11, 51047, Note_on_c, 7, 64, 0
11, 51060, Note_on_c, 7, 64, 90
11, 51077, Note_on_c, 7, 64, 0
11, 51090, Note_on_c, 7, 64, 90
11, 51107, Note_on_c, 7, 64, 0
11, 51120, Note_on_c, 7, 64, 90
11, 51137, Note_on_c, 7, 64, 0
11, 51150, Note_on_c, 7, 64, 90
11, 51167, Note_on_c, 7, 64, 0
11, 51180, Note_on_c, 7, 64, 90
11, 51197, Note_on_c, 7, 64, 0
11, 51210, Note_on_c, 7, 64, 90
11, 51227, Note_on_c, 7, 64, 0
11, 51240, Note_on_c, 7, 64, 90
11, 51257, Note_on_c, 7, 64, 0
11, 51270, Note_on_c, 7, 64, 90
11, 51287, Note_on_c, 7, 64, 0
11, 51300, Note_on_c, 7, 64, 90
11, 51317, Note_on_c, 7, 64, 0
11, 51330, Note_on_c, 7, 64, 90
11, 51347, Note_on_c, 7, 64, 0
11, 51360, Note_on_c, 7, 64, 90
11, 51377, Note_on_c, 7, 64, 0
11, 51390, Note_on_c, 7, 62, 90
11, 51407, Note_on_c, 7, 62, 0
11, 51420, Note_on_c, 7, 61, 90
11, 51437, Note_on_c, 7, 61, 0
11, 51450, Note_on_c, 7, 61, 90
11, 51467, Note_on_c, 7, 61, 0
11, 51480, Note_on_c, 7, 61, 90
11, 51497, Note_on_c, 7, 61, 0
11, 51510, Note_on_c, 7, 61, 90
11, 51527, Note_on_c, 7, 61, 0
11, 51540, Note_on_c, 7, 61, 90
11, 51557, Note_on_c, 7, 61, 0
11, 51570, Note_on_c, 7, 61, 90
11, 51587, Note_on_c, 7, 61, 0
11, 51600, Note_on_c, 7, 59, 90
11, 51659, Note_on_c, 7, 59, 0
11, 51660, Note_on_c, 7, 66, 90
11, 51719, Note_on_c, 7, 66, 0
11, 51720, Note_on_c, 7, 71, 90
11, 51779, Note_on_c, 7, 71, 0
11, 51780, Note_on_c, 7, 69, 90
11, 51839, Note_on_c, 7, 69, 0
11, 51840, Note_on_c, 7, 74, 90
11, 51899, Note_on_c, 7, 74, 0
11, 51900, Note_on_c, 7, 71, 90
11, 51959, Note_on_c, 7, 71, 0
11, 51960, Note_on_c, 7, 73, 90
11, 52019, Note_on_c, 7, 73, 0
11, 52020, Note_on_c, 7, 64, 90
11, 52079, Note_on_c, 7, 64, 0
11, 52080, Note_on_c, 7, 73, 90
11, 52139, Note_on_c, 7, 73, 0
11, 52140, Note_on_c, 7, 74, 90
11, 52199, Note_on_c, 7, 74, 0
11, 53070, Note_on_c, 7, 62, 90
11, 53084, Note_on_c, 7, 62, 0
11, 53085, Note_on_c, 7, 64, 90
11, 53099, Note_on_c, 7, 64, 0
11, 53100, Note_on_c, 7, 66, 90
11, 53114, Note_on_c, 7, 66, 0
11, 53115, Note_on_c, 7, 64, 90
11, 53129, Note_on_c, 7, 64, 0
11, 53130, Note_on_c, 7, 66, 90
11, 53144, Note_on_c, 7, 66, 0
11, 53145, Note_on_c, 7, 64, 90
11, 53159, Note_on_c, 7, 64, 0
11, 53160, Note_on_c, 7, 66, 90
11, 53174, Note_on_c, 7, 66, 0
11, 53175, Note_on_c, 7, 64, 90
11, 53189, Note_on_c, 7, 64, 0
11, 53190, Note_on_c, 7, 62, 90
11, 53204, Note_on_c, 7, 62, 0
11, 53205, Note_on_c, 7, 64, 90
11, 53219, Note_on_c, 7, 64, 0
11, 53220, Note_on_c, 7, 66, 90
11, 53279, Note_on_c, 7, 66, 0
11, 53415, Note_on_c, 7, 74, 90
11, 53429, Note_on_c, 7, 74, 0
11, 53430, Note_on_c, 7, 73, 90
11, 53444, Note_on_c, 7, 73, 0
11, 53445, Note_on_c, 7, 71, 90
11, 53459, Note_on_c, 7, 71, 0
11, 53460, Note_on_c, 7, 69, 90
11, 53474, Note_on_c, 7, 69, 0
11, 53475, Note_on_c, 7, 74, 90
11, 53489, Note_on_c, 7, 74, 0
11, 53490, Note_on_c, 7, 73, 90
11, 53504, Note_on_c, 7, 73, 0
11, 53505, Note_on_c, 7, 71, 90
11, 53519, Note_on_c, 7, 71, 0
11, 53520, Note_on_c, 7, 69, 90
11, 53534, Note_on_c, 7, 69, 0
11, 53535, Note_on_c, 7, 67, 90
11, 53549, Note_on_c, 7, 67, 0
11, 53550, Note_on_c, 7, 66, 90
11, 53564, Note_on_c, 7, 66, 0
11, 53565, Note_on_c, 7, 64, 90
11, 53579, Note_on_c, 7, 64, 0
11, 53580, Note_on_c, 7, 66, 90
11, 53594, Note_on_c, 7, 66, 0
11, 53595, Note_on_c, 7, 71, 90
11, 53609, Note_on_c, 7, 71, 0
11, 53610, Note_on_c, 7, 69, 90
11, 53624, Note_on_c, 7, 69, 0
11, 53625, Note_on_c, 7, 67, 90
11, 53639, Note_on_c, 7, 67, 0
11, 53640, Note_on_c, 7, 66, 90
11, 53654, Note_on_c, 7, 66, 0
11, 53655, Note_on_c, 7, 71, 90
11, 53669, Note_on_c, 7, 71, 0
11, 53670, Note_on_c, 7, 69, 90
11, 53684, Note_on_c, 7, 69, 0
11, 53685, Note_on_c, 7, 67, 90
11, 53699, Note_on_c, 7, 67, 0
11, 53700, Note_on_c, 7, 66, 90
11, 53714, Note_on_c, 7, 66, 0
11, 53715, Note_on_c, 7, 64, 90
11, 53729, Note_on_c, 7, 64, 0
11, 53730, Note_on_c, 7, 62, 90
11, 53744, Note_on_c, 7, 62, 0
11, 53745, Note_on_c, 7, 61, 90
11, 53759, Note_on_c, 7, 61, 0
11, 53760, Note_on_c, 7, 62, 90
11, 53774, Note_on_c, 7, 62, 0
11, 53775, Note_on_c, 7, 59, 90
11, 53789, Note_on_c, 7, 59, 0
11, 53790, Note_on_c, 7, 57, 90
11, 53804, Note_on_c, 7, 57, 0
11, 53805, Note_on_c, 7, 55, 90
11, 53819, Note_on_c, 7, 55, 0
11, 53820, Note_on_c, 7, 57, 90
11, 53834, Note_on_c, 7, 57, 0
11, 53835, Note_on_c, 7, 59, 90
11, 53849, Note_on_c, 7, 59, 0
11, 53850, Note_on_c, 7, 57, 90
11, 53864, Note_on_c, 7, 57, 0
11, 53865, Note_on_c, 7, 55, 90
11, 53879, Note_on_c, 7, 55, 0
11, 53880, Note_on_c, 7, 57, 90
11, 53894, Note_on_c, 7, 57, 0
11, 53895, Note_on_c, 7, 59, 90
11, 53909, Note_on_c, 7, 59, 0
11, 53910, Note_on_c, 7, 57, 90
11, 53924, Note_on_c, 7, 57, 0
11, 53925, Note_on_c, 7, 55, 90
11, 53939, Note_on_c, 7, 55, 0
11, 53940, Note_on_c, 7, 57, 90
11, 53957, Note_on_c, 7, 57, 0
11, 53970, Note_on_c, 7, 57, 90
11, 53987, Note_on_c, 7, 57, 0
11, 54000, Note_on_c, 7, 57, 90
11, 54017, Note_on_c, 7, 57, 0
11, 54030, Note_on_c, 7, 57, 90
11, 54047, Note_on_c, 7, 57, 0
11, 54060, Note_on_c, 7, 57, 90
11, 54077, Note_on_c, 7, 57, 0
11, 54090, Note_on_c, 7, 57, 90
11, 54107, Note_on_c, 7, 57, 0
11, 54120, Note_on_c, 7, 57, 90
11, 54137, Note_on_c, 7, 57, 0
11, 54150, Note_on_c, 7, 57, 90
11, 54167, Note_on_c, 7, 57, 0
11, 54180, Note_on_c, 7, 57, 90
11, 54197, Note_on_c, 7, 57, 0
11, 54210, Note_on_c, 7, 57, 90
11, 54227, Note_on_c, 7, 57, 0
11, 54240, Note_on_c, 7, 57, 90
11, 54257, Note_on_c, 7, 57, 0
11, 54270, Note_on_c, 7, 57, 90
11, 54287, Note_on_c, 7, 57, 0
11, 54300, Note_on_c, 7, 57, 90
11, 54317, Note_on_c, 7, 57, 0
11, 54330, Note_on_c, 7, 57, 90
11, 54347, Note_on_c, 7, 57, 0
11, 54360, Note_on_c, 7, 57, 90
11, 54377, Note_on_c, 7, 57, 0
11, 54390, Note_on_c, 7, 57, 90
11, 54407, Note_on_c, 7, 57, 0
11, 54420, Note_on_c, 7, 57, 90
11, 54437, Note_on_c, 7, 57, 0
11, 54450, Note_on_c, 7, 57, 90
11, 54467, Note_on_c, 7, 57, 0
11, 54480, Note_on_c, 7, 57, 90
11, 54497, Note_on_c, 7, 57, 0
11, 54510, Note_on_c, 7, 57, 90
11, 54527, Note_on_c, 7, 57, 0
11, 54540, Note_on_c, 7, 57, 90
11, 54557, Note_on_c, 7, 57, 0
11, 54570, Note_on_c, 7, 57, 90
11, 54587, Note_on_c, 7, 57, 0
11, 54600, Note_on_c, 7, 74, 90
11, 54629, Note_on_c, 7, 74, 0
11, 54630, Note_on_c, 7, 71, 90
11, 54659, Note_on_c, 7, 71, 0
11, 54660, Note_on_c, 7, 72, 90
11, 54689, Note_on_c, 7, 72, 0
11, 54720, Note_on_c, 7, 69, 90
11, 54749, Note_on_c, 7, 69, 0
11, 54780, Note_on_c, 7, 69, 90
11, 54809, Note_on_c, 7, 69, 0
11, 54840, Note_on_c, 7, 69, 90
11, 54855, Note_on_c, 7, 69, 0
11, 54855, Note_on_c, 7, 71, 90
11, 54870, Note_on_c, 7, 71, 0
11, 54870, Note_on_c, 7, 69, 90
11, 54899, Note_on_c, 7, 69, 0
11, 54900, Note_on_c, 7, 67, 90
11, 54959, Note_on_c, 7, 67, 0
11, 54960, Note_on_c, 7, 76, 90
11, 55019, Note_on_c, 7, 76, 0
11, 55020, Note_on_c, 7, 69, 90
11, 55049, Note_on_c, 7, 69, 0
11, 55050, Note_on_c, 7, 71, 90
11, 55079, Note_on_c, 7, 71, 0
11, 55080, Note_on_c, 7, 73, 90
11, 55139, Note_on_c, 7, 73, 0
11, 55140, Note_on_c, 7, 74, 90
11, 55199, Note_on_c, 7, 74, 0
11, 55200, Note_on_c, 7, 73, 90
11, 55319, Note_on_c, 7, 73, 0
11, 55620, Note_on_c, 7, 66, 90
11, 55649, Note_on_c, 7, 66, 0
11, 55650, Note_on_c, 7, 67, 90
11, 55679, Note_on_c, 7, 67, 0
11, 55680, Note_on_c, 7, 69, 90
11, 55694, Note_on_c, 7, 69, 0
11, 55695, Note_on_c, 7, 67, 90
11, 55709, Note_on_c, 7, 67, 0
11, 55710, Note_on_c, 7, 66, 90
11, 55724, Note_on_c, 7, 66, 0
11, 55725, Note_on_c, 7, 67, 90
11, 55739, Note_on_c, 7, 67, 0
11, 55740, Note_on_c, 7, 69, 90
11, 55769, Note_on_c, 7, 69, 0
11, 55770, Note_on_c, 7, 67, 90
11, 55799, Note_on_c, 7, 67, 0
11, 55800, Note_on_c, 7, 69, 90
11, 55829, Note_on_c, 7, 69, 0
11, 55830, Note_on_c, 7, 71, 90
11, 55859, Note_on_c, 7, 71, 0
11, 55860, Note_on_c, 7, 73, 90
11, 55874, Note_on_c, 7, 73, 0
11, 55875, Note_on_c, 7, 71, 90
11, 55889, Note_on_c, 7, 71, 0
11, 55890, Note_on_c, 7, 69, 90
11, 55904, Note_on_c, 7, 69, 0
11, 55905, Note_on_c, 7, 71, 90
11, 55919, Note_on_c, 7, 71, 0
11, 55920, Note_on_c, 7, 73, 90
11, 55949, Note_on_c, 7, 73, 0
11, 55980, Note_on_c, 7, 69, 90
11, 56009, Note_on_c, 7, 69, 0
11, 56040, Note_on_c, 7, 66, 90
11, 56069, Note_on_c, 7, 66, 0
11, 56100, Note_on_c, 7, 71, 90
11, 56129, Note_on_c, 7, 71, 0
11, 56130, Note_on_c, 7, 73, 90
11, 56159, Note_on_c, 7, 73, 0
11, 56160, Note_on_c, 7, 74, 90
11, 56189, Note_on_c, 7, 74, 0
11, 56220, Note_on_c, 7, 78, 90
11, 56234, Note_on_c, 7, 78, 0
11, 56235, Note_on_c, 7, 76, 90
11, 56249, Note_on_c, 7, 76, 0
11, 56250, Note_on_c, 7, 74, 90
11, 56264, Note_on_c, 7, 74, 0
11, 56265, Note_on_c, 7, 76, 90
11, 56279, Note_on_c, 7, 76, 0
11, 56280, Note_on_c, 7, 78, 90
11, 56309, Note_on_c, 7, 78, 0
11, 56340, Note_on_c, 7, 66, 90
11, 56369, Note_on_c, 7, 66, 0
11, 56520, Note_on_c, 7, 69, 90
11, 56549, Note_on_c, 7, 69, 0
11, 56550, Note_on_c, 7, 71, 90
11, 56579, Note_on_c, 7, 71, 0
11, 56580, Note_on_c, 7, 73, 90
11, 56594, Note_on_c, 7, 73, 0
11, 56595, Note_on_c, 7, 71, 90
11, 56609, Note_on_c, 7, 71, 0
11, 56610, Note_on_c, 7, 69, 90
11, 56624, Note_on_c, 7, 69, 0
11, 56625, Note_on_c, 7, 71, 90
11, 56639, Note_on_c, 7, 71, 0
11, 56640, Note_on_c, 7, 73, 90
11, 56669, Note_on_c, 7, 73, 0
11, 56700, Note_on_c, 7, 66, 90
11, 56729, Note_on_c, 7, 66, 0
11, 56760, Note_on_c, 7, 69, 90
11, 56849, Note_on_c, 7, 69, 0
11, 56850, Note_on_c, 7, 68, 90
11, 56879, Note_on_c, 7, 68, 0
11, 56880, Note_on_c, 7, 69, 90
11, 56939, Note_on_c, 7, 69, 0
11, 56940, Note_on_c, 7, 62, 90
11, 56999, Note_on_c, 7, 62, 0
11, 57000, Note_on_c, 7, 64, 90
11, 57059, Note_on_c, 7, 64, 0
11, 57060, Note_on_c, 7, 61, 90
11, 57089, Note_on_c, 7, 61, 0
11, 57090, Note_on_c, 7, 63, 90
11, 57119, Note_on_c, 7, 63, 0
11, 57120, Note_on_c, 7, 64, 90
11, 57134, Note_on_c, 7, 64, 0
11, 57135, Note_on_c, 7, 63, 90
11, 57149, Note_on_c, 7, 63, 0
11, 57150, Note_on_c, 7, 61, 90
11, 57164, Note_on_c, 7, 61, 0
11, 57165, Note_on_c, 7, 63, 90
11, 57179, Note_on_c, 7, 63, 0
11, 57180, Note_on_c, 7, 64, 90
11, 57209, Note_on_c, 7, 64, 0
11, 57240, Note_on_c, 7, 64, 90
11, 57269, Note_on_c, 7, 64, 0
11, 57300, Note_on_c, 7, 62, 90
11, 57329, Note_on_c, 7, 62, 0
11, 57360, Note_on_c, 7, 62, 90
11, 57419, Note_on_c, 7, 62, 0
11, 57420, Note_on_c, 7, 62, 90
11, 57479, Note_on_c, 7, 62, 0
11, 57480, Note_on_c, 7, 64, 90
11, 57539, Note_on_c, 7, 64, 0
11, 57540, Note_on_c, 7, 66, 90
11, 57599, Note_on_c, 7, 66, 0
11, 57600, Note_on_c, 7, 66, 90
11, 57659, Note_on_c, 7, 66, 0
11, 57660, Note_on_c, 7, 71, 90
11, 57719, Note_on_c, 7, 71, 0
11, 57720, Note_on_c, 7, 64, 90
11, 57779, Note_on_c, 7, 64, 0
11, 57780, Note_on_c, 7, 69, 90
11, 57839, Note_on_c, 7, 69, 0
11, 57840, Note_on_c, 7, 73, 90
11, 57899, Note_on_c, 7, 73, 0
11, 57900, Note_on_c, 7, 71, 90
11, 57959, Note_on_c, 7, 71, 0
11, 57960, Note_on_c, 7, 71, 90
11, 58019, Note_on_c, 7, 71, 0
11, 58020, Note_on_c, 7, 71, 90
11, 58079, Note_on_c, 7, 71, 0
11, 58080, Note_on_c, 7, 66, 90
11, 58139, Note_on_c, 7, 66, 0
11, 58140, Note_on_c, 7, 66, 90
11, 58199, Note_on_c, 7, 66, 0
11, 58200, Note_on_c, 7, 66, 90
11, 58259, Note_on_c, 7, 66, 0
11, 58260, Note_on_c, 7, 64, 90
11, 58319, Note_on_c, 7, 64, 0
11, 58320, Note_on_c, 7, 76, 90
11, 58379, Note_on_c, 7, 76, 0
11, 58380, Note_on_c, 7, 75, 90
11, 58439, Note_on_c, 7, 75, 0
11, 58440, Note_on_c, 7, 76, 90
11, 58499, Note_on_c, 7, 76, 0
11, 58500, Note_on_c, 7, 71, 90
11, 58559, Note_on_c, 7, 71, 0
11, 58560, Note_on_c, 7, 71, 90
11, 58619, Note_on_c, 7, 71, 0
11, 58620, Note_on_c, 7, 76, 90
11, 58649, Note_on_c, 7, 76, 0
11, 58650, Note_on_c, 7, 79, 90
11, 58664, Note_on_c, 7, 79, 0
11, 58665, Note_on_c, 7, 78, 90
11, 58679, Note_on_c, 7, 78, 0
11, 58680, Note_on_c, 7, 76, 90
11, 58709, Note_on_c, 7, 76, 0
11, 58710, Note_on_c, 7, 79, 90
11, 58724, Note_on_c, 7, 79, 0
11, 58725, Note_on_c, 7, 78, 90
11, 58739, Note_on_c, 7, 78, 0
11, 58740, Note_on_c, 7, 76, 90
11, 58829, Note_on_c, 7, 76, 0
11, 58830, Note_on_c, 7, 73, 90
11, 58844, Note_on_c, 7, 73, 0
11, 58845, Note_on_c, 7, 74, 90
11, 58859, Note_on_c, 7, 74, 0
11, 58860, Note_on_c, 7, 76, 90
11, 58889, Note_on_c, 7, 76, 0
11, 58890, Note_on_c, 7, 73, 90
11, 58904, Note_on_c, 7, 73, 0
11, 58905, Note_on_c, 7, 74, 90
11, 58919, Note_on_c, 7, 74, 0
11, 58920, Note_on_c, 7, 76, 90
11, 59009, Note_on_c, 7, 76, 0
11, 59010, Note_on_c, 7, 78, 90
11, 59024, Note_on_c, 7, 78, 0
11, 59025, Note_on_c, 7, 76, 90
11, 59039, Note_on_c, 7, 76, 0
11, 59040, Note_on_c, 7, 74, 90
11, 59069, Note_on_c, 7, 74, 0
11, 59100, Note_on_c, 7, 73, 90
11, 59129, Note_on_c, 7, 73, 0
11, 59160, Note_on_c, 7, 74, 90
11, 59189, Note_on_c, 7, 74, 0
11, 59190, Note_on_c, 7, 78, 90
11, 59204, Note_on_c, 7, 78, 0
11, 59205, Note_on_c, 7, 76, 90
11, 59219, Note_on_c, 7, 76, 0
11, 59220, Note_on_c, 7, 74, 90
11, 59249, Note_on_c, 7, 74, 0
11, 59250, Note_on_c, 7, 78, 90
11, 59264, Note_on_c, 7, 78, 0
11, 59265, Note_on_c, 7, 76, 90
11, 59279, Note_on_c, 7, 76, 0
11, 59280, Note_on_c, 7, 74, 90
11, 59399, Note_on_c, 7, 74, 0
11, 59400, Note_on_c, 7, 74, 90
11, 59429, Note_on_c, 7, 74, 0
11, 59460, Note_on_c, 7, 78, 90
11, 59489, Note_on_c, 7, 78, 0
11, 59520, Note_on_c, 7, 76, 90
11, 59549, Note_on_c, 7, 76, 0
11, 59580, Note_on_c, 7, 71, 90
11, 59609, Note_on_c, 7, 71, 0
11, 59640, Note_on_c, 7, 76, 90
11, 59759, Note_on_c, 7, 76, 0
11, 59760, Note_on_c, 7, 73, 90
11, 59789, Note_on_c, 7, 73, 0
11, 59820, Note_on_c, 7, 76, 90
11, 59849, Note_on_c, 7, 76, 0
11, 59880, Note_on_c, 7, 74, 90
11, 59909, Note_on_c, 7, 74, 0
11, 59940, Note_on_c, 7, 69, 90
11, 59969, Note_on_c, 7, 69, 0
11, 60000, Note_on_c, 7, 74, 90
11, 60119, Note_on_c, 7, 74, 0
11, 60120, Note_on_c, 7, 69, 90
11, 60149, Note_on_c, 7, 69, 0
11, 60180, Note_on_c, 7, 69, 90
11, 60209, Note_on_c, 7, 69, 0
11, 60240, Note_on_c, 7, 71, 90
11, 60269, Note_on_c, 7, 71, 0
11, 60420, Note_on_c, 7, 76, 90
11, 60449, Note_on_c, 7, 76, 0
11, 60600, Note_on_c, 7, 78, 90
11, 60629, Note_on_c, 7, 78, 0
11, 60660, Note_on_c, 7, 81, 90
11, 60689, Note_on_c, 7, 81, 0
11, 60720, Note_on_c, 7, 69, 90
11, 60749, Note_on_c, 7, 69, 0
11, 60780, Note_on_c, 7, 69, 90
11, 60960, Note_on_c, 7, 69, 0
11, 116460, Note_on_c, 7, 64, 90
11, 116519, Note_on_c, 7, 64, 0
11, 116520, Note_on_c, 7, 62, 90
11, 116579, Note_on_c, 7, 62, 0
11, 116580, Note_on_c, 7, 60, 90
11, 116639, Note_on_c, 7, 60, 0
11, 116640, Note_on_c, 7, 62, 90
11, 116699, Note_on_c, 7, 62, 0
11, 116700, Note_on_c, 7, 62, 90
11, 116759, Note_on_c, 7, 62, 0
11, 116760, Note_on_c, 7, 64, 90
11, 116819, Note_on_c, 7, 64, 0
11, 116820, Note_on_c, 7, 64, 90
11, 116879, Note_on_c, 7, 64, 0
11, 116880, Note_on_c, 7, 62, 90
11, 116939, Note_on_c, 7, 62, 0
11, 116940, Note_on_c, 7, 62, 90
11, 116999, Note_on_c, 7, 62, 0
11, 117000, Note_on_c, 7, 60, 90
11, 117059, Note_on_c, 7, 60, 0
11, 117060, Note_on_c, 7, 60, 90
11, 117179, Note_on_c, 7, 60, 0
11, 117180, Note_on_c, 7, 59, 90
11, 117239, Note_on_c, 7, 59, 0
11, 117240, Note_on_c, 7, 57, 90
11, 117299, Note_on_c, 7, 57, 0
11, 117300, Note_on_c, 7, 59, 90
11, 117395, Note_on_c, 7, 59, 0
11, 117420, Note_on_c, 7, 64, 90
11, 117539, Note_on_c, 7, 64, 0
11, 117540, Note_on_c, 7, 64, 90
11, 117659, Note_on_c, 7, 64, 0
11, 117660, Note_on_c, 7, 69, 90
11, 117779, Note_on_c, 7, 69, 0
11, 117780, Note_on_c, 7, 69, 90
11, 117899, Note_on_c, 7, 69, 0
11, 117900, Note_on_c, 7, 68, 90
11, 118019, Note_on_c, 7, 68, 0
11, 118020, Note_on_c, 7, 64, 90
11, 118379, Note_on_c, 7, 64, 0
11, 118380, Note_on_c, 7, 64, 90
11, 118439, Note_on_c, 7, 64, 0
11, 118440, Note_on_c, 7, 62, 90
11, 118499, Note_on_c, 7, 62, 0
11, 118500, Note_on_c, 7, 60, 90
11, 118559, Note_on_c, 7, 60, 0
11, 118560, Note_on_c, 7, 62, 90
11, 118619, Note_on_c, 7, 62, 0
11, 118620, Note_on_c, 7, 62, 90
11, 118679, Note_on_c, 7, 62, 0
11, 118680, Note_on_c, 7, 64, 90
11, 118739, Note_on_c, 7, 64, 0
11, 118740, Note_on_c, 7, 64, 90
11, 118799, Note_on_c, 7, 64, 0
11, 118800, Note_on_c, 7, 62, 90
11, 118859, Note_on_c, 7, 62, 0
11, 118860, Note_on_c, 7, 62, 90
11, 118919, Note_on_c, 7, 62, 0
11, 118920, Note_on_c, 7, 60, 90
11, 118979, Note_on_c, 7, 60, 0
11, 118980, Note_on_c, 7, 60, 90
11, 119099, Note_on_c, 7, 60, 0
11, 119100, Note_on_c, 7, 59, 90
11, 119159, Note_on_c, 7, 59, 0
11, 119160, Note_on_c, 7, 57, 90
11, 119219, Note_on_c, 7, 57, 0
11, 119220, Note_on_c, 7, 59, 90
11, 119315, Note_on_c, 7, 59, 0
11, 119340, Note_on_c, 7, 64, 90
11, 119459, Note_on_c, 7, 64, 0
11, 119460, Note_on_c, 7, 64, 90
11, 119579, Note_on_c, 7, 64, 0
11, 119580, Note_on_c, 7, 69, 90
11, 119699, Note_on_c, 7, 69, 0
11, 119700, Note_on_c, 7, 69, 90
11, 119819, Note_on_c, 7, 69, 0
11, 119820, Note_on_c, 7, 68, 90
11, 119939, Note_on_c, 7, 68, 0
11, 119940, Note_on_c, 7, 64, 90
11, 120299, Note_on_c, 7, 64, 0
11, 120300, Note_on_c, 7, 69, 90
11, 120359, Note_on_c, 7, 69, 0
11, 120360, Note_on_c, 7, 67, 90
11, 120419, Note_on_c, 7, 67, 0
11, 120420, Note_on_c, 7, 65, 90
11, 120539, Note_on_c, 7, 65, 0
11, 120540, Note_on_c, 7, 64, 90
11, 120599, Note_on_c, 7, 64, 0
11, 120600, Note_on_c, 7, 62, 90
11, 120659, Note_on_c, 7, 62, 0
11, 120660, Note_on_c, 7, 60, 90
11, 120779, Note_on_c, 7, 60, 0
11, 120780, Note_on_c, 7, 65, 90
11, 120899, Note_on_c, 7, 65, 0
11, 120900, Note_on_c, 7, 65, 90
11, 121019, Note_on_c, 7, 65, 0
11, 121020, Note_on_c, 7, 64, 90
11, 121079, Note_on_c, 7, 64, 0
11, 121080, Note_on_c, 7, 62, 90
11, 121139, Note_on_c, 7, 62, 0
11, 121140, Note_on_c, 7, 64, 90
11, 121235, Note_on_c, 7, 64, 0
11, 121260, Note_on_c, 7, 64, 90
11, 121379, Note_on_c, 7, 64, 0
11, 121380, Note_on_c, 7, 65, 90
11, 121499, Note_on_c, 7, 65, 0
11, 121500, Note_on_c, 7, 58, 90
11, 121559, Note_on_c, 7, 58, 0
11, 121560, Note_on_c, 7, 57, 90
11, 121619, Note_on_c, 7, 57, 0
11, 121620, Note_on_c, 7, 57, 90
11, 121679, Note_on_c, 7, 57, 0
11, 121680, Note_on_c, 7, 55, 90
11, 121739, Note_on_c, 7, 55, 0
11, 121740, Note_on_c, 7, 57, 90
11, 121799, Note_on_c, 7, 57, 0
11, 121800, Note_on_c, 7, 62, 90
11, 121859, Note_on_c, 7, 62, 0
11, 121860, Note_on_c, 7, 61, 90
11, 122147, Note_on_c, 7, 61, 0
11, 122220, Note_on_c, 7, 62, 90
11, 122339, Note_on_c, 7, 62, 0
11, 122340, Note_on_c, 7, 62, 90
11, 122459, Note_on_c, 7, 62, 0
11, 122460, Note_on_c, 7, 67, 90
11, 122579, Note_on_c, 7, 67, 0
11, 122580, Note_on_c, 7, 67, 90
11, 122639, Note_on_c, 7, 67, 0
11, 122640, Note_on_c, 7, 66, 90
11, 122699, Note_on_c, 7, 66, 0
11, 122700, Note_on_c, 7, 67, 90
11, 122819, Note_on_c, 7, 67, 0
11, 122820, Note_on_c, 7, 67, 90
11, 122939, Note_on_c, 7, 67, 0
11, 122940, Note_on_c, 7, 66, 90
11, 123059, Note_on_c, 7, 66, 0
11, 123060, Note_on_c, 7, 67, 90
11, 123155, Note_on_c, 7, 67, 0
11, 123180, Note_on_c, 7, 67, 90
11, 123299, Note_on_c, 7, 67, 0
11, 123300, Note_on_c, 7, 60, 90
11, 123359, Note_on_c, 7, 60, 0
11, 123360, Note_on_c, 7, 62, 90
11, 123419, Note_on_c, 7, 62, 0
11, 123420, Note_on_c, 7, 60, 90
11, 123539, Note_on_c, 7, 60, 0
11, 123540, Note_on_c, 7, 53, 90
11, 123659, Note_on_c, 7, 53, 0
11, 123660, Note_on_c, 7, 62, 90
11, 123779, Note_on_c, 7, 62, 0
11, 123780, Note_on_c, 7, 62, 90
11, 123899, Note_on_c, 7, 62, 0
11, 123900, Note_on_c, 7, 60, 90
11, 124019, Note_on_c, 7, 60, 0
11, 124020, Note_on_c, 7, 59, 90
11, 124139, Note_on_c, 7, 59, 0
11, 151620, Note_on_c, 7, 69, 90
11, 151679, Note_on_c, 7, 69, 0
11, 151680, Note_on_c, 7, 66, 90
11, 151799, Note_on_c, 7, 66, 0
11, 151800, Note_on_c, 7, 62, 90
11, 151919, Note_on_c, 7, 62, 0
11, 151920, Note_on_c, 7, 66, 90
11, 152039, Note_on_c, 7, 66, 0
11, 152040, Note_on_c, 7, 69, 90
11, 152159, Note_on_c, 7, 69, 0
11, 152160, Note_on_c, 7, 74, 90
11, 152279, Note_on_c, 7, 74, 0
11, 152280, Note_on_c, 7, 73, 90
11, 152339, Note_on_c, 7, 73, 0
11, 152340, Note_on_c, 7, 74, 90
11, 152399, Note_on_c, 7, 74, 0
11, 152400, Note_on_c, 7, 74, 90
11, 152459, Note_on_c, 7, 74, 0
11, 152460, Note_on_c, 7, 74, 90
11, 152519, Note_on_c, 7, 74, 0
11, 152520, Note_on_c, 7, 69, 90
11, 152579, Note_on_c, 7, 69, 0
11, 152580, Note_on_c, 7, 69, 90
11, 152610, Note_on_c, 7, 69, 0
11, 152700, Note_on_c, 7, 66, 90
11, 152730, Note_on_c, 7, 66, 0
11, 152820, Note_on_c, 7, 62, 90
11, 152850, Note_on_c, 7, 62, 0
11, 152940, Note_on_c, 7, 66, 90
11, 152970, Note_on_c, 7, 66, 0
11, 153060, Note_on_c, 7, 71, 90
11, 153089, Note_on_c, 7, 71, 0
11, 153090, Note_on_c, 7, 73, 90
11, 153119, Note_on_c, 7, 73, 0
11, 153120, Note_on_c, 7, 74, 90
11, 153239, Note_on_c, 7, 74, 0
11, 153240, Note_on_c, 7, 73, 90
11, 153299, Note_on_c, 7, 73, 0
11, 153300, Note_on_c, 7, 74, 90
11, 153359, Note_on_c, 7, 74, 0
11, 153360, Note_on_c, 7, 78, 90
11, 153389, Note_on_c, 7, 78, 0
11, 153390, Note_on_c, 7, 76, 90
11, 153419, Note_on_c, 7, 76, 0
11, 153420, Note_on_c, 7, 78, 90
11, 153479, Note_on_c, 7, 78, 0
11, 153480, Note_on_c, 7, 81, 90
11, 153510, Note_on_c, 7, 81, 0
11, 153540, Note_on_c, 7, 74, 90
11, 153570, Note_on_c, 7, 74, 0
11, 153660, Note_on_c, 7, 74, 90
11, 153690, Note_on_c, 7, 74, 0
11, 153780, Note_on_c, 7, 74, 90
11, 153810, Note_on_c, 7, 74, 0
11, 153900, Note_on_c, 7, 74, 90
11, 153930, Note_on_c, 7, 74, 0
11, 154020, Note_on_c, 7, 73, 90
11, 154079, Note_on_c, 7, 73, 0
11, 154080, Note_on_c, 7, 76, 90
11, 154139, Note_on_c, 7, 76, 0
11, 154140, Note_on_c, 7, 69, 90
11, 154199, Note_on_c, 7, 69, 0
11, 154200, Note_on_c, 7, 74, 90
11, 154259, Note_on_c, 7, 74, 0
11, 154260, Note_on_c, 7, 73, 90
11, 154319, Note_on_c, 7, 73, 0
11, 154320, Note_on_c, 7, 76, 90
11, 154379, Note_on_c, 7, 76, 0
11, 154380, Note_on_c, 7, 69, 90
11, 154559, Note_on_c, 7, 69, 0
11, 154560, Note_on_c, 7, 69, 90
11, 154619, Note_on_c, 7, 69, 0
11, 154620, Note_on_c, 7, 73, 90
11, 154679, Note_on_c, 7, 73, 0
11, 154680, Note_on_c, 7, 74, 90
11, 154739, Note_on_c, 7, 74, 0
11, 154740, Note_on_c, 7, 73, 90
11, 154979, Note_on_c, 7, 73, 0
11, 155280, Note_on_c, 7, 62, 90
11, 155309, Note_on_c, 7, 62, 0
11, 155310, Note_on_c, 7, 64, 90
11, 155339, Note_on_c, 7, 64, 0
11, 155340, Note_on_c, 7, 66, 90
11, 155399, Note_on_c, 7, 66, 0
11, 155760, Note_on_c, 7, 66, 90
11, 155789, Note_on_c, 7, 66, 0
11, 155790, Note_on_c, 7, 67, 90
11, 155819, Note_on_c, 7, 67, 0
11, 155820, Note_on_c, 7, 69, 90
11, 155879, Note_on_c, 7, 69, 0
11, 156240, Note_on_c, 7, 69, 90
11, 156269, Note_on_c, 7, 69, 0
11, 156300, Note_on_c, 7, 74, 90
11, 156329, Note_on_c, 7, 74, 0
11, 156720, Note_on_c, 7, 74, 90
11, 156749, Note_on_c, 7, 74, 0
11, 156750, Note_on_c, 7, 76, 90
11, 156779, Note_on_c, 7, 76, 0
11, 156780, Note_on_c, 7, 78, 90
11, 156839, Note_on_c, 7, 78, 0
11, 157020, Note_on_c, 7, 71, 90
11, 157079, Note_on_c, 7, 71, 0
11, 157260, Note_on_c, 7, 69, 90
11, 157319, Note_on_c, 7, 69, 0
11, 157440, Note_on_c, 7, 64, 90
11, 157499, Note_on_c, 7, 64, 0
11, 157500, Note_on_c, 7, 66, 90
11, 157559, Note_on_c, 7, 66, 0
11, 157560, Note_on_c, 7, 66, 90
11, 157619, Note_on_c, 7, 66, 0
11, 157620, Note_on_c, 7, 64, 90
11, 157739, Note_on_c, 7, 64, 0
11, 157800, Note_on_c, 7, 73, 90
11, 157859, Note_on_c, 7, 73, 0
11, 157860, Note_on_c, 7, 74, 90
11, 157919, Note_on_c, 7, 74, 0
11, 157920, Note_on_c, 7, 69, 90
11, 157979, Note_on_c, 7, 69, 0
11, 157980, Note_on_c, 7, 76, 90
11, 158039, Note_on_c, 7, 76, 0
11, 158040, Note_on_c, 7, 69, 90
11, 158069, Note_on_c, 7, 69, 0
11, 158070, Note_on_c, 7, 71, 90
11, 158099, Note_on_c, 7, 71, 0
11, 158100, Note_on_c, 7, 73, 90
11, 158159, Note_on_c, 7, 73, 0
11, 158160, Note_on_c, 7, 74, 90
11, 158219, Note_on_c, 7, 74, 0
11, 158220, Note_on_c, 7, 76, 90
11, 158279, Note_on_c, 7, 76, 0
11, 158280, Note_on_c, 7, 64, 90
11, 158339, Note_on_c, 7, 64, 0
11, 158340, Note_on_c, 7, 64, 90
11, 158399, Note_on_c, 7, 64, 0
11, 158640, Note_on_c, 7, 73, 90
11, 158669, Note_on_c, 7, 73, 0
11, 158670, Note_on_c, 7, 74, 90
11, 158699, Note_on_c, 7, 74, 0
11, 158700, Note_on_c, 7, 76, 90
11, 158759, Note_on_c, 7, 76, 0
11, 159120, Note_on_c, 7, 61, 90
11, 159179, Note_on_c, 7, 61, 0
11, 159180, Note_on_c, 7, 62, 90
11, 159239, Note_on_c, 7, 62, 0
11, 159240, Note_on_c, 7, 57, 90
11, 159299, Note_on_c, 7, 57, 0
11, 159300, Note_on_c, 7, 57, 90
11, 159359, Note_on_c, 7, 57, 0
11, 159600, Note_on_c, 7, 74, 90
11, 159629, Note_on_c, 7, 74, 0
11, 159630, Note_on_c, 7, 76, 90
11, 159659, Note_on_c, 7, 76, 0
11, 159660, Note_on_c, 7, 78, 90
11, 159719, Note_on_c, 7, 78, 0
11, 160080, Note_on_c, 7, 62, 90
11, 160139, Note_on_c, 7, 62, 0
11, 160140, Note_on_c, 7, 71, 90
11, 160319, Note_on_c, 7, 71, 0
11, 160320, Note_on_c, 7, 67, 90
11, 160379, Note_on_c, 7, 67, 0
11, 160380, Note_on_c, 7, 64, 90
11, 160439, Note_on_c, 7, 64, 0
11, 160440, Note_on_c, 7, 67, 90
11, 160499, Note_on_c, 7, 67, 0
11, 160500, Note_on_c, 7, 69, 90
11, 160799, Note_on_c, 7, 69, 0
11, 160800, Note_on_c, 7, 66, 90
11, 160859, Note_on_c, 7, 66, 0
11, 160860, Note_on_c, 7, 62, 90
11, 160919, Note_on_c, 7, 62, 0
11, 160920, Note_on_c, 7, 66, 90
11, 160979, Note_on_c, 7, 66, 0
11, 160980, Note_on_c, 7, 67, 90
11, 161159, Note_on_c, 7, 67, 0
11, 161160, Note_on_c, 7, 67, 90
11, 161219, Note_on_c, 7, 67, 0
11, 161220, Note_on_c, 7, 69, 90
11, 161280, Note_on_c, 7, 69, 0
11, 161340, Note_on_c, 7, 73, 90
11, 161370, Note_on_c, 7, 73, 0
11, 161460, Note_on_c, 7, 69, 90
11, 161490, Note_on_c, 7, 69, 0
11, 161580, Note_on_c, 7, 64, 90
11, 161610, Note_on_c, 7, 64, 0
11, 161700, Note_on_c, 7, 69, 90
11, 161730, Note_on_c, 7, 69, 0
11, 161820, Note_on_c, 7, 73, 90
11, 161850, Note_on_c, 7, 73, 0
11, 161940, Note_on_c, 7, 76, 90
11, 161970, Note_on_c, 7, 76, 0
11, 162060, Note_on_c, 7, 76, 90
11, 162090, Note_on_c, 7, 76, 0
11, 162180, Note_on_c, 7, 74, 90
11, 162210, Note_on_c, 7, 74, 0
11, 162300, Note_on_c, 7, 74, 90
11, 162330, Note_on_c, 7, 74, 0
11, 162420, Note_on_c, 7, 73, 90
11, 162479, Note_on_c, 7, 73, 0
11, 162480, Note_on_c, 7, 76, 90
11, 162539, Note_on_c, 7, 76, 0
11, 162540, Note_on_c, 7, 81, 90
11, 162599, Note_on_c, 7, 81, 0
11, 162600, Note_on_c, 7, 75, 90
11, 162659, Note_on_c, 7, 75, 0
11, 162660, Note_on_c, 7, 76, 90
11, 162719, Note_on_c, 7, 76, 0
11, 163380, Note_on_c, 7, 69, 90
11, 163439, Note_on_c, 7, 69, 0
11, 163440, Note_on_c, 7, 66, 90
11, 163559, Note_on_c, 7, 66, 0
11, 163560, Note_on_c, 7, 62, 90
11, 163679, Note_on_c, 7, 62, 0
11, 163680, Note_on_c, 7, 66, 90
11, 163799, Note_on_c, 7, 66, 0
11, 163800, Note_on_c, 7, 69, 90
11, 163919, Note_on_c, 7, 69, 0
11, 163920, Note_on_c, 7, 74, 90
11, 164039, Note_on_c, 7, 74, 0
11, 164040, Note_on_c, 7, 62, 90
11, 164159, Note_on_c, 7, 62, 0
11, 164160, Note_on_c, 7, 69, 90
11, 164219, Note_on_c, 7, 69, 0
11, 164220, Note_on_c, 7, 69, 90
11, 164279, Note_on_c, 7, 69, 0
11, 164280, Note_on_c, 7, 69, 90
11, 164339, Note_on_c, 7, 69, 0
11, 164340, Note_on_c, 7, 67, 90
11, 164370, Note_on_c, 7, 67, 0
11, 164460, Note_on_c, 7, 62, 90
11, 164490, Note_on_c, 7, 62, 0
11, 164580, Note_on_c, 7, 64, 90
11, 164639, Note_on_c, 7, 64, 0
11, 164640, Note_on_c, 7, 68, 90
11, 164759, Note_on_c, 7, 68, 0
11, 164760, Note_on_c, 7, 71, 90
11, 164879, Note_on_c, 7, 71, 0
11, 164880, Note_on_c, 7, 76, 90
11, 164999, Note_on_c, 7, 76, 0
11, 165000, Note_on_c, 7, 64, 90
11, 165119, Note_on_c, 7, 64, 0
11, 165120, Note_on_c, 7, 71, 90
11, 165179, Note_on_c, 7, 71, 0
11, 165180, Note_on_c, 7, 71, 90
11, 165239, Note_on_c, 7, 71, 0
11, 165240, Note_on_c, 7, 71, 90
11, 165299, Note_on_c, 7, 71, 0
11, 165300, Note_on_c, 7, 69, 90
11, 165330, Note_on_c, 7, 69, 0
11, 165420, Note_on_c, 7, 69, 90
11, 165450, Note_on_c, 7, 69, 0
11, 165540, Note_on_c, 7, 69, 90
11, 165570, Note_on_c, 7, 69, 0
11, 165660, Note_on_c, 7, 74, 90
11, 165690, Note_on_c, 7, 74, 0
11, 165780, Note_on_c, 7, 76, 90
11, 165810, Note_on_c, 7, 76, 0
11, 165900, Note_on_c, 7, 73, 90
11, 165930, Note_on_c, 7, 73, 0
11, 166080, Note_on_c, 7, 66, 90
11, 166139, Note_on_c, 7, 66, 0
11, 166140, Note_on_c, 7, 67, 90
11, 166199, Note_on_c, 7, 67, 0
11, 166200, Note_on_c, 7, 64, 90
11, 166259, Note_on_c, 7, 64, 0
11, 166260, Note_on_c, 7, 62, 90
11, 166319, Note_on_c, 7, 62, 0
11, 166500, Note_on_c, 7, 74, 90
11, 166859, Note_on_c, 7, 74, 0
11, 166860, Note_on_c, 7, 73, 90
11, 166919, Note_on_c, 7, 73, 0
11, 167460, Note_on_c, 7, 64, 90
11, 167519, Note_on_c, 7, 64, 0
11, 167520, Note_on_c, 7, 69, 90
11, 167639, Note_on_c, 7, 69, 0
11, 167640, Note_on_c, 7, 73, 90
11, 167759, Note_on_c, 7, 73, 0
11, 167760, Note_on_c, 7, 76, 90
11, 167879, Note_on_c, 7, 76, 0
11, 167880, Note_on_c, 7, 73, 90
11, 167939, Note_on_c, 7, 73, 0
11, 167940, Note_on_c, 7, 74, 90
11, 167999, Note_on_c, 7, 74, 0
11, 168000, Note_on_c, 7, 74, 90
11, 168059, Note_on_c, 7, 74, 0
11, 168060, Note_on_c, 7, 74, 90
11, 168119, Note_on_c, 7, 74, 0
11, 168120, Note_on_c, 7, 73, 90
11, 168179, Note_on_c, 7, 73, 0
11, 168180, Note_on_c, 7, 69, 90
11, 168239, Note_on_c, 7, 69, 0
11, 168300, Note_on_c, 7, 69, 90
11, 168359, Note_on_c, 7, 69, 0
11, 168420, Note_on_c, 7, 69, 90
11, 168479, Note_on_c, 7, 69, 0
11, 168540, Note_on_c, 7, 74, 90
11, 168599, Note_on_c, 7, 74, 0
11, 168660, Note_on_c, 7, 78, 90
11, 168719, Note_on_c, 7, 78, 0
11, 168840, Note_on_c, 7, 69, 90
11, 168899, Note_on_c, 7, 69, 0
11, 168900, Note_on_c, 7, 76, 90
11, 168959, Note_on_c, 7, 76, 0
11, 168960, Note_on_c, 7, 74, 90
11, 169019, Note_on_c, 7, 74, 0
11, 169020, Note_on_c, 7, 76, 90
11, 169079, Note_on_c, 7, 76, 0
11, 169080, Note_on_c, 7, 74, 90
11, 169139, Note_on_c, 7, 74, 0
11, 169140, Note_on_c, 7, 74, 90
11, 169199, Note_on_c, 7, 74, 0
11, 169320, Note_on_c, 7, 79, 90
11, 169350, Note_on_c, 7, 79, 0
11, 169380, Note_on_c, 7, 79, 90
11, 169410, Note_on_c, 7, 79, 0
11, 169500, Note_on_c, 7, 78, 90
11, 169530, Note_on_c, 7, 78, 0
11, 169620, Note_on_c, 7, 78, 90
11, 169650, Note_on_c, 7, 78, 0
11, 169740, Note_on_c, 7, 76, 90
11, 169770, Note_on_c, 7, 76, 0
11, 169860, Note_on_c, 7, 74, 90
11, 169919, Note_on_c, 7, 74, 0
11, 169920, Note_on_c, 7, 69, 90
11, 169979, Note_on_c, 7, 69, 0
11, 169980, Note_on_c, 7, 71, 90
11, 170039, Note_on_c, 7, 71, 0
11, 170040, Note_on_c, 7, 67, 90
11, 170099, Note_on_c, 7, 67, 0
11, 170100, Note_on_c, 7, 64, 90
11, 170219, Note_on_c, 7, 64, 0
11, 170280, Note_on_c, 7, 73, 90
11, 170339, Note_on_c, 7, 73, 0
11, 170340, Note_on_c, 7, 74, 90
11, 170399, Note_on_c, 7, 74, 0
11, 170400, Note_on_c, 7, 74, 90
11, 170459, Note_on_c, 7, 74, 0
11, 170460, Note_on_c, 7, 74, 90
11, 170519, Note_on_c, 7, 74, 0
11, 170520, Note_on_c, 7, 69, 90
11, 170579, Note_on_c, 7, 69, 0
11, 170580, Note_on_c, 7, 69, 90
11, 170819, Note_on_c, 7, 69, 0
11, 170820, Note_on_c, 7, 71, 90
11, 170879, Note_on_c, 7, 71, 0
11, 170940, Note_on_c, 7, 70, 90
11, 170999, Note_on_c, 7, 70, 0
11, 171060, Note_on_c, 7, 66, 90
11, 171119, Note_on_c, 7, 66, 0
11, 171180, Note_on_c, 7, 71, 90
11, 171239, Note_on_c, 7, 71, 0
11, 171360, Note_on_c, 7, 72, 90
11, 171419, Note_on_c, 7, 72, 0
11, 171420, Note_on_c, 7, 72, 90
11, 171479, Note_on_c, 7, 72, 0
11, 171480, Note_on_c, 7, 71, 90
11, 171539, Note_on_c, 7, 71, 0
11, 171540, Note_on_c, 7, 71, 90
11, 171599, Note_on_c, 7, 71, 0
11, 171780, Note_on_c, 7, 69, 90
11, 171839, Note_on_c, 7, 69, 0
11, 171900, Note_on_c, 7, 68, 90
11, 171959, Note_on_c, 7, 68, 0
11, 172020, Note_on_c, 7, 64, 90
11, 172079, Note_on_c, 7, 64, 0
11, 172140, Note_on_c, 7, 69, 90
11, 172199, Note_on_c, 7, 69, 0
11, 172320, Note_on_c, 7, 71, 90
11, 172379, Note_on_c, 7, 71, 0
11, 172380, Note_on_c, 7, 71, 90
11, 172439, Note_on_c, 7, 71, 0
11, 172440, Note_on_c, 7, 69, 90
11, 172499, Note_on_c, 7, 69, 0
11, 172500, Note_on_c, 7, 69, 90
11, 172559, Note_on_c, 7, 69, 0
11, 174600, Note_on_c, 7, 69, 90
11, 174659, Note_on_c, 7, 69, 0
11, 174660, Note_on_c, 7, 71, 90
11, 174719, Note_on_c, 7, 71, 0
11, 174780, Note_on_c, 7, 71, 90
11, 174839, Note_on_c, 7, 71, 0
11, 174900, Note_on_c, 7, 66, 90
11, 174959, Note_on_c, 7, 66, 0
11, 175020, Note_on_c, 7, 66, 90
11, 175079, Note_on_c, 7, 66, 0
11, 175140, Note_on_c, 7, 71, 90
11, 175199, Note_on_c, 7, 71, 0
11, 175260, Note_on_c, 7, 71, 90
11, 175319, Note_on_c, 7, 71, 0
11, 175380, Note_on_c, 7, 73, 90
11, 175439, Note_on_c, 7, 73, 0
11, 175500, Note_on_c, 7, 73, 90
11, 175559, Note_on_c, 7, 73, 0
11, 175620, Note_on_c, 7, 71, 90
11, 175679, Note_on_c, 7, 71, 0
11, 175740, Note_on_c, 7, 68, 90
11, 175799, Note_on_c, 7, 68, 0
11, 175860, Note_on_c, 7, 74, 90
11, 175919, Note_on_c, 7, 74, 0
11, 175980, Note_on_c, 7, 73, 90
11, 176039, Note_on_c, 7, 73, 0
11, 176160, Note_on_c, 7, 73, 90
11, 176219, Note_on_c, 7, 73, 0
11, 176220, Note_on_c, 7, 73, 90
11, 176279, Note_on_c, 7, 73, 0
11, 176280, Note_on_c, 7, 73, 90
11, 176339, Note_on_c, 7, 73, 0
11, 176340, Note_on_c, 7, 73, 90
11, 176459, Note_on_c, 7, 73, 0
11, 177120, Note_on_c, 7, 78, 90
11, 177150, Note_on_c, 7, 78, 0
11, 177180, Note_on_c, 7, 79, 90
11, 177210, Note_on_c, 7, 79, 0
11, 177240, Note_on_c, 7, 78, 90
11, 177270, Note_on_c, 7, 78, 0
11, 177300, Note_on_c, 7, 78, 90
11, 177330, Note_on_c, 7, 78, 0
11, 178080, Note_on_c, 7, 76, 90
11, 178110, Note_on_c, 7, 76, 0
11, 178140, Note_on_c, 7, 78, 90
11, 178170, Note_on_c, 7, 78, 0
11, 178200, Note_on_c, 7, 76, 90
11, 178230, Note_on_c, 7, 76, 0
11, 178260, Note_on_c, 7, 76, 90
11, 178290, Note_on_c, 7, 76, 0
11, 178620, Note_on_c, 7, 71, 90
11, 178680, Note_on_c, 7, 71, 0
11, 178860, Note_on_c, 7, 69, 90
11, 178920, Note_on_c, 7, 69, 0
11, 179100, Note_on_c, 7, 69, 90
11, 179160, Note_on_c, 7, 69, 0
11, 179340, Note_on_c, 7, 68, 90
11, 179400, Note_on_c, 7, 68, 0
11, 180420, Note_on_c, 7, 69, 90
11, 180479, Note_on_c, 7, 69, 0
11, 180480, Note_on_c, 7, 66, 90
11, 180599, Note_on_c, 7, 66, 0
11, 180600, Note_on_c, 7, 62, 90
11, 180719, Note_on_c, 7, 62, 0
11, 180720, Note_on_c, 7, 66, 90
11, 180839, Note_on_c, 7, 66, 0
11, 180840, Note_on_c, 7, 69, 90
11, 180959, Note_on_c, 7, 69, 0
11, 180960, Note_on_c, 7, 74, 90
11, 181079, Note_on_c, 7, 74, 0
11, 181080, Note_on_c, 7, 73, 90
11, 181139, Note_on_c, 7, 73, 0
11, 181140, Note_on_c, 7, 74, 90
11, 181199, Note_on_c, 7, 74, 0
11, 181200, Note_on_c, 7, 74, 90
11, 181259, Note_on_c, 7, 74, 0
11, 181260, Note_on_c, 7, 74, 90
11, 181319, Note_on_c, 7, 74, 0
11, 181320, Note_on_c, 7, 69, 90
11, 181379, Note_on_c, 7, 69, 0
11, 181380, Note_on_c, 7, 69, 90
11, 181410, Note_on_c, 7, 69, 0
11, 181500, Note_on_c, 7, 66, 90
11, 181530, Note_on_c, 7, 66, 0
11, 181620, Note_on_c, 7, 62, 90
11, 181650, Note_on_c, 7, 62, 0
11, 181740, Note_on_c, 7, 66, 90
11, 181770, Note_on_c, 7, 66, 0
11, 181860, Note_on_c, 7, 71, 90
11, 181889, Note_on_c, 7, 71, 0
11, 181890, Note_on_c, 7, 73, 90
11, 181919, Note_on_c, 7, 73, 0
11, 181920, Note_on_c, 7, 74, 90
11, 182039, Note_on_c, 7, 74, 0
11, 182040, Note_on_c, 7, 73, 90
11, 182099, Note_on_c, 7, 73, 0
11, 182100, Note_on_c, 7, 74, 90
11, 182159, Note_on_c, 7, 74, 0
11, 182160, Note_on_c, 7, 78, 90
11, 182189, Note_on_c, 7, 78, 0
11, 182190, Note_on_c, 7, 76, 90
11, 182219, Note_on_c, 7, 76, 0
11, 182220, Note_on_c, 7, 78, 90
11, 182279, Note_on_c, 7, 78, 0
11, 182280, Note_on_c, 7, 81, 90
11, 182310, Note_on_c, 7, 81, 0
11, 182340, Note_on_c, 7, 74, 90
11, 182370, Note_on_c, 7, 74, 0
11, 182460, Note_on_c, 7, 74, 90
11, 182490, Note_on_c, 7, 74, 0
11, 182580, Note_on_c, 7, 74, 90
11, 182610, Note_on_c, 7, 74, 0
11, 182700, Note_on_c, 7, 74, 90
11, 182730, Note_on_c, 7, 74, 0
11, 182820, Note_on_c, 7, 73, 90
11, 182879, Note_on_c, 7, 73, 0
11, 182880, Note_on_c, 7, 76, 90
11, 182939, Note_on_c, 7, 76, 0
11, 182940, Note_on_c, 7, 69, 90
11, 182999, Note_on_c, 7, 69, 0
11, 183000, Note_on_c, 7, 74, 90
11, 183059, Note_on_c, 7, 74, 0
11, 183060, Note_on_c, 7, 73, 90
11, 183119, Note_on_c, 7, 73, 0
11, 183120, Note_on_c, 7, 76, 90
11, 183179, Note_on_c, 7, 76, 0
11, 183180, Note_on_c, 7, 69, 90
11, 183359, Note_on_c, 7, 69, 0
11, 183360, Note_on_c, 7, 69, 90
11, 183419, Note_on_c, 7, 69, 0
11, 183420, Note_on_c, 7, 73, 90
11, 183479, Note_on_c, 7, 73, 0
11, 183480, Note_on_c, 7, 74, 90
11, 183539, Note_on_c, 7, 74, 0
11, 183540, Note_on_c, 7, 73, 90
11, 183779, Note_on_c, 7, 73, 0
11, 184080, Note_on_c, 7, 62, 90
11, 184109, Note_on_c, 7, 62, 0
11, 184110, Note_on_c, 7, 64, 90
11, 184139, Note_on_c, 7, 64, 0
11, 184140, Note_on_c, 7, 66, 90
11, 184199, Note_on_c, 7, 66, 0
11, 184560, Note_on_c, 7, 66, 90
11, 184589, Note_on_c, 7, 66, 0
11, 184590, Note_on_c, 7, 67, 90
11, 184619, Note_on_c, 7, 67, 0
11, 184620, Note_on_c, 7, 69, 90
11, 184679, Note_on_c, 7, 69, 0
11, 185040, Note_on_c, 7, 69, 90
11, 185069, Note_on_c, 7, 69, 0
11, 185100, Note_on_c, 7, 74, 90
11, 185129, Note_on_c, 7, 74, 0
11, 185520, Note_on_c, 7, 74, 90
11, 185549, Note_on_c, 7, 74, 0
11, 185550, Note_on_c, 7, 76, 90
11, 185579, Note_on_c, 7, 76, 0
11, 185580, Note_on_c, 7, 78, 90
11, 185639, Note_on_c, 7, 78, 0
11, 185820, Note_on_c, 7, 71, 90
11, 185879, Note_on_c, 7, 71, 0
11, 186060, Note_on_c, 7, 69, 90
11, 186119, Note_on_c, 7, 69, 0
11, 186240, Note_on_c, 7, 64, 90
11, 186299, Note_on_c, 7, 64, 0
11, 186300, Note_on_c, 7, 66, 90
11, 186359, Note_on_c, 7, 66, 0
11, 186360, Note_on_c, 7, 66, 90
11, 186419, Note_on_c, 7, 66, 0
11, 186420, Note_on_c, 7, 64, 90
11, 186539, Note_on_c, 7, 64, 0
11, 186600, Note_on_c, 7, 73, 90
11, 186659, Note_on_c, 7, 73, 0
11, 186660, Note_on_c, 7, 74, 90
11, 186719, Note_on_c, 7, 74, 0
11, 186720, Note_on_c, 7, 69, 90
11, 186779, Note_on_c, 7, 69, 0
11, 186780, Note_on_c, 7, 76, 90
11, 186839, Note_on_c, 7, 76, 0
11, 186840, Note_on_c, 7, 69, 90
11, 186869, Note_on_c, 7, 69, 0
11, 186870, Note_on_c, 7, 71, 90
11, 186899, Note_on_c, 7, 71, 0
11, 186900, Note_on_c, 7, 73, 90
11, 186959, Note_on_c, 7, 73, 0
11, 186960, Note_on_c, 7, 74, 90
11, 187019, Note_on_c, 7, 74, 0
11, 187020, Note_on_c, 7, 76, 90
11, 187079, Note_on_c, 7, 76, 0
11, 187080, Note_on_c, 7, 64, 90
11, 187139, Note_on_c, 7, 64, 0
11, 187140, Note_on_c, 7, 64, 90
11, 187199, Note_on_c, 7, 64, 0
11, 187440, Note_on_c, 7, 73, 90
11, 187469, Note_on_c, 7, 73, 0
11, 187470, Note_on_c, 7, 74, 90
11, 187499, Note_on_c, 7, 74, 0
11, 187500, Note_on_c, 7, 76, 90
11, 187559, Note_on_c, 7, 76, 0
11, 187920, Note_on_c, 7, 61, 90
11, 187979, Note_on_c, 7, 61, 0
11, 187980, Note_on_c, 7, 62, 90
11, 188039, Note_on_c, 7, 62, 0
11, 188040, Note_on_c, 7, 57, 90
11, 188099, Note_on_c, 7, 57, 0
11, 188100, Note_on_c, 7, 57, 90
11, 188159, Note_on_c, 7, 57, 0
11, 188400, Note_on_c, 7, 74, 90
11, 188429, Note_on_c, 7, 74, 0
11, 188430, Note_on_c, 7, 76, 90
11, 188459, Note_on_c, 7, 76, 0
11, 188460, Note_on_c, 7, 78, 90
11, 188519, Note_on_c, 7, 78, 0
11, 188880, Note_on_c, 7, 62, 90
11, 188939, Note_on_c, 7, 62, 0
11, 188940, Note_on_c, 7, 71, 90
11, 189119, Note_on_c, 7, 71, 0
11, 189120, Note_on_c, 7, 67, 90
11, 189179, Note_on_c, 7, 67, 0
11, 189180, Note_on_c, 7, 64, 90
11, 189239, Note_on_c, 7, 64, 0
11, 189240, Note_on_c, 7, 67, 90
11, 189299, Note_on_c, 7, 67, 0
11, 189300, Note_on_c, 7, 69, 90
11, 189599, Note_on_c, 7, 69, 0
11, 189600, Note_on_c, 7, 66, 90
11, 189659, Note_on_c, 7, 66, 0
11, 189660, Note_on_c, 7, 62, 90
11, 189719, Note_on_c, 7, 62, 0
11, 189720, Note_on_c, 7, 66, 90
11, 189779, Note_on_c, 7, 66, 0
11, 189780, Note_on_c, 7, 67, 90
11, 189959, Note_on_c, 7, 67, 0
11, 189960, Note_on_c, 7, 67, 90
11, 190019, Note_on_c, 7, 67, 0
11, 190020, Note_on_c, 7, 69, 90
11, 190080, Note_on_c, 7, 69, 0
11, 190140, Note_on_c, 7, 73, 90
11, 190170, Note_on_c, 7, 73, 0
11, 190260, Note_on_c, 7, 69, 90
11, 190290, Note_on_c, 7, 69, 0
11, 190380, Note_on_c, 7, 64, 90
11, 190410, Note_on_c, 7, 64, 0
11, 190500, Note_on_c, 7, 69, 90
11, 190530, Note_on_c, 7, 69, 0
11, 190620, Note_on_c, 7, 73, 90
11, 190650, Note_on_c, 7, 73, 0
11, 190740, Note_on_c, 7, 76, 90
11, 190770, Note_on_c, 7, 76, 0
11, 190860, Note_on_c, 7, 76, 90
11, 190890, Note_on_c, 7, 76, 0
11, 190980, Note_on_c, 7, 74, 90
11, 191010, Note_on_c, 7, 74, 0
11, 191100, Note_on_c, 7, 74, 90
11, 191130, Note_on_c, 7, 74, 0
11, 191220, Note_on_c, 7, 73, 90
11, 191279, Note_on_c, 7, 73, 0
11, 191280, Note_on_c, 7, 76, 90
11, 191339, Note_on_c, 7, 76, 0
11, 191340, Note_on_c, 7, 81, 90
11, 191399, Note_on_c, 7, 81, 0
11, 191400, Note_on_c, 7, 75, 90
11, 191459, Note_on_c, 7, 75, 0
11, 191460, Note_on_c, 7, 76, 90
11, 191519, Note_on_c, 7, 76, 0
11, 192180, Note_on_c, 7, 69, 90
11, 192239, Note_on_c, 7, 69, 0
11, 192240, Note_on_c, 7, 66, 90
11, 192359, Note_on_c, 7, 66, 0
11, 192360, Note_on_c, 7, 62, 90
11, 192479, Note_on_c, 7, 62, 0
11, 192480, Note_on_c, 7, 66, 90
11, 192599, Note_on_c, 7, 66, 0
11, 192600, Note_on_c, 7, 69, 90
11, 192719, Note_on_c, 7, 69, 0
11, 192720, Note_on_c, 7, 74, 90
11, 192839, Note_on_c, 7, 74, 0
11, 192840, Note_on_c, 7, 62, 90
11, 192959, Note_on_c, 7, 62, 0
11, 192960, Note_on_c, 7, 69, 90
11, 193019, Note_on_c, 7, 69, 0
11, 193020, Note_on_c, 7, 69, 90
11, 193079, Note_on_c, 7, 69, 0
11, 193080, Note_on_c, 7, 69, 90
11, 193139, Note_on_c, 7, 69, 0
11, 193140, Note_on_c, 7, 67, 90
11, 193170, Note_on_c, 7, 67, 0
11, 193260, Note_on_c, 7, 62, 90
11, 193290, Note_on_c, 7, 62, 0
11, 193380, Note_on_c, 7, 64, 90
11, 193439, Note_on_c, 7, 64, 0
11, 193440, Note_on_c, 7, 68, 90
11, 193559, Note_on_c, 7, 68, 0
11, 193560, Note_on_c, 7, 71, 90
11, 193679, Note_on_c, 7, 71, 0
11, 193680, Note_on_c, 7, 76, 90
11, 193799, Note_on_c, 7, 76, 0
11, 193800, Note_on_c, 7, 64, 90
11, 193919, Note_on_c, 7, 64, 0
11, 193920, Note_on_c, 7, 71, 90
11, 193979, Note_on_c, 7, 71, 0
11, 193980, Note_on_c, 7, 71, 90
11, 194039, Note_on_c, 7, 71, 0
11, 194040, Note_on_c, 7, 71, 90
11, 194099, Note_on_c, 7, 71, 0
11, 194100, Note_on_c, 7, 69, 90
11, 194130, Note_on_c, 7, 69, 0
11, 194220, Note_on_c, 7, 69, 90
11, 194250, Note_on_c, 7, 69, 0
11, 194340, Note_on_c, 7, 69, 90
11, 194370, Note_on_c, 7, 69, 0
11, 194460, Note_on_c, 7, 74, 90
11, 194490, Note_on_c, 7, 74, 0
11, 194580, Note_on_c, 7, 76, 90
11, 194610, Note_on_c, 7, 76, 0
11, 194700, Note_on_c, 7, 73, 90
11, 194730, Note_on_c, 7, 73, 0
11, 194880, Note_on_c, 7, 66, 90
11, 194939, Note_on_c, 7, 66, 0
11, 194940, Note_on_c, 7, 67, 90
11, 194999, Note_on_c, 7, 67, 0
11, 195000, Note_on_c, 7, 64, 90
11, 195059, Note_on_c, 7, 64, 0
11, 195060, Note_on_c, 7, 62, 90
11, 195119, Note_on_c, 7, 62, 0
11, 195300, Note_on_c, 7, 74, 90
11, 195659, Note_on_c, 7, 74, 0
11, 195660, Note_on_c, 7, 73, 90
11, 195719, Note_on_c, 7, 73, 0
11, 196260, Note_on_c, 7, 64, 90
11, 196319, Note_on_c, 7, 64, 0
11, 196320, Note_on_c, 7, 69, 90
11, 196439, Note_on_c, 7, 69, 0
11, 196440, Note_on_c, 7, 73, 90
11, 196559, Note_on_c, 7, 73, 0
11, 196560, Note_on_c, 7, 76, 90
11, 196679, Note_on_c, 7, 76, 0
11, 196680, Note_on_c, 7, 73, 90
11, 196739, Note_on_c, 7, 73, 0
11, 196740, Note_on_c, 7, 74, 90
11, 196799, Note_on_c, 7, 74, 0
11, 196800, Note_on_c, 7, 74, 90
11, 196859, Note_on_c, 7, 74, 0
11, 196860, Note_on_c, 7, 74, 90
11, 196919, Note_on_c, 7, 74, 0
11, 196920, Note_on_c, 7, 73, 90
11, 196979, Note_on_c, 7, 73, 0
11, 196980, Note_on_c, 7, 69, 90
11, 197039, Note_on_c, 7, 69, 0
11, 197100, Note_on_c, 7, 69, 90
11, 197159, Note_on_c, 7, 69, 0
11, 197220, Note_on_c, 7, 69, 90
11, 197279, Note_on_c, 7, 69, 0
11, 197340, Note_on_c, 7, 74, 90
11, 197399, Note_on_c, 7, 74, 0
11, 197460, Note_on_c, 7, 78, 90
11, 197519, Note_on_c, 7, 78, 0
11, 197640, Note_on_c, 7, 69, 90
11, 197699, Note_on_c, 7, 69, 0
11, 197700, Note_on_c, 7, 76, 90
11, 197759, Note_on_c, 7, 76, 0
11, 197760, Note_on_c, 7, 74, 90
11, 197819, Note_on_c, 7, 74, 0
11, 197820, Note_on_c, 7, 76, 90
11, 197879, Note_on_c, 7, 76, 0
11, 197880, Note_on_c, 7, 74, 90
11, 197939, Note_on_c, 7, 74, 0
11, 197940, Note_on_c, 7, 74, 90
11, 197999, Note_on_c, 7, 74, 0
11, 198120, Note_on_c, 7, 79, 90
11, 198150, Note_on_c, 7, 79, 0
11, 198180, Note_on_c, 7, 79, 90
11, 198210, Note_on_c, 7, 79, 0
11, 198300, Note_on_c, 7, 78, 90
11, 198330, Note_on_c, 7, 78, 0
11, 198420, Note_on_c, 7, 78, 90
11, 198450, Note_on_c, 7, 78, 0
11, 198540, Note_on_c, 7, 76, 90
11, 198570, Note_on_c, 7, 76, 0
11, 198660, Note_on_c, 7, 74, 90
11, 198719, Note_on_c, 7, 74, 0
11, 198720, Note_on_c, 7, 69, 90
11, 198779, Note_on_c, 7, 69, 0
11, 198780, Note_on_c, 7, 71, 90
11, 198839, Note_on_c, 7, 71, 0
11, 198840, Note_on_c, 7, 67, 90
11, 198899, Note_on_c, 7, 67, 0
11, 198900, Note_on_c, 7, 64, 90
11, 199019, Note_on_c, 7, 64, 0
11, 199080, Note_on_c, 7, 73, 90
11, 199139, Note_on_c, 7, 73, 0
11, 199140, Note_on_c, 7, 74, 90
11, 199199, Note_on_c, 7, 74, 0
11, 199200, Note_on_c, 7, 74, 90
11, 199259, Note_on_c, 7, 74, 0
11, 199260, Note_on_c, 7, 74, 90
11, 199319, Note_on_c, 7, 74, 0
11, 199320, Note_on_c, 7, 69, 90
11, 199379, Note_on_c, 7, 69, 0
11, 199380, Note_on_c, 7, 69, 90
11, 199619, Note_on_c, 7, 69, 0
11, 199980, Note_on_c, 7, 69, 90
11, 200099, Note_on_c, 7, 69, 0
11, 200100, Note_on_c, 7, 69, 90
11, 200159, Note_on_c, 7, 69, 0
11, 200160, Note_on_c, 7, 68, 90
11, 200219, Note_on_c, 7, 68, 0
11, 200220, Note_on_c, 7, 66, 90
11, 200339, Note_on_c, 7, 66, 0
11, 200340, Note_on_c, 7, 64, 90
11, 200459, Note_on_c, 7, 64, 0
11, 200460, Note_on_c, 7, 66, 90
11, 200519, Note_on_c, 7, 66, 0
11, 200520, Note_on_c, 7, 64, 90
11, 200579, Note_on_c, 7, 64, 0
11, 200580, Note_on_c, 7, 62, 90
11, 200699, Note_on_c, 7, 62, 0
11, 200700, Note_on_c, 7, 64, 90
11, 200819, Note_on_c, 7, 64, 0
11, 200820, Note_on_c, 7, 66, 90
11, 200939, Note_on_c, 7, 66, 0
11, 201660, Note_on_c, 7, 66, 90
11, 201719, Note_on_c, 7, 66, 0
11, 201720, Note_on_c, 7, 67, 90
11, 201779, Note_on_c, 7, 67, 0
11, 201780, Note_on_c, 7, 69, 90
11, 201839, Note_on_c, 7, 69, 0
11, 201840, Note_on_c, 7, 67, 90
11, 201899, Note_on_c, 7, 67, 0
11, 201900, Note_on_c, 7, 66, 90
11, 202019, Note_on_c, 7, 66, 0
11, 202020, Note_on_c, 7, 64, 90
11, 202139, Note_on_c, 7, 64, 0
11, 202140, Note_on_c, 7, 62, 90
11, 202259, Note_on_c, 7, 62, 0
11, 202260, Note_on_c, 7, 62, 90
11, 202379, Note_on_c, 7, 62, 0
11, 202380, Note_on_c, 7, 64, 90
11, 202499, Note_on_c, 7, 64, 0
11, 202500, Note_on_c, 7, 62, 90
11, 202619, Note_on_c, 7, 62, 0
11, 203340, Note_on_c, 7, 62, 90
11, 203399, Note_on_c, 7, 62, 0
11, 203400, Note_on_c, 7, 64, 90
11, 203459, Note_on_c, 7, 64, 0
11, 203460, Note_on_c, 7, 66, 90
11, 203579, Note_on_c, 7, 66, 0
11, 203580, Note_on_c, 7, 64, 90
11, 203699, Note_on_c, 7, 64, 0
11, 203700, Note_on_c, 7, 64, 90
11, 203759, Note_on_c, 7, 64, 0
11, 203760, Note_on_c, 7, 68, 90
11, 203819, Note_on_c, 7, 68, 0
11, 203820, Note_on_c, 7, 69, 90
11, 203939, Note_on_c, 7, 69, 0
11, 203940, Note_on_c, 7, 69, 90
11, 204059, Note_on_c, 7, 69, 0
11, 204060, Note_on_c, 7, 69, 90
11, 204119, Note_on_c, 7, 69, 0
11, 204120, Note_on_c, 7, 68, 90
11, 204179, Note_on_c, 7, 68, 0
11, 204180, Note_on_c, 7, 64, 90
11, 204299, Note_on_c, 7, 64, 0
11, 205020, Note_on_c, 7, 66, 90
11, 205079, Note_on_c, 7, 66, 0
11, 205080, Note_on_c, 7, 64, 90
11, 205139, Note_on_c, 7, 64, 0
11, 205140, Note_on_c, 7, 64, 90
11, 205199, Note_on_c, 7, 64, 0
11, 205200, Note_on_c, 7, 66, 90
11, 205259, Note_on_c, 7, 66, 0
11, 205260, Note_on_c, 7, 66, 90
11, 205319, Note_on_c, 7, 66, 0
11, 205320, Note_on_c, 7, 64, 90
11, 205379, Note_on_c, 7, 64, 0
11, 205380, Note_on_c, 7, 61, 90
11, 205439, Note_on_c, 7, 61, 0
11, 205440, Note_on_c, 7, 62, 90
11, 205499, Note_on_c, 7, 62, 0
11, 205500, Note_on_c, 7, 59, 90
11, 205559, Note_on_c, 7, 59, 0
11, 205560, Note_on_c, 7, 61, 90
11, 205619, Note_on_c, 7, 61, 0
11, 205620, Note_on_c, 7, 62, 90
11, 205799, Note_on_c, 7, 62, 0
11, 205800, Note_on_c, 7, 61, 90
11, 205859, Note_on_c, 7, 61, 0
11, 205860, Note_on_c, 7, 57, 100
11, 205980, Note_on_c, 7, 57, 0
11, 205980, End_track
12, 0, Start_track
12, 0, MIDI_port, 0
12, 0, Title_t, "Viola"
12, 1095, Note_on_c, 6, 62, 90
12, 1109, Note_on_c, 6, 62, 0
12, 1110, Note_on_c, 6, 61, 90
12, 1124, Note_on_c, 6, 61, 0
12, 1125, Note_on_c, 6, 59, 90
12, 1139, Note_on_c, 6, 59, 0
12, 1140, Note_on_c, 6, 57, 90
12, 1154, Note_on_c, 6, 57, 0
12, 1155, Note_on_c, 6, 62, 90
12, 1169, Note_on_c, 6, 62, 0
12, 1170, Note_on_c, 6, 61, 90
12, 1184, Note_on_c, 6, 61, 0
12, 1185, Note_on_c, 6, 59, 90
12, 1199, Note_on_c, 6, 59, 0
12, 1200, Note_on_c, 6, 57, 90
12, 1214, Note_on_c, 6, 57, 0
12, 1215, Note_on_c, 6, 55, 90
12, 1229, Note_on_c, 6, 55, 0
12, 1230, Note_on_c, 6, 54, 90
12, 1244, Note_on_c, 6, 54, 0
12, 1245, Note_on_c, 6, 52, 90
12, 1259, Note_on_c, 6, 52, 0
12, 1260, Note_on_c, 6, 54, 90
12, 1274, Note_on_c, 6, 54, 0
12, 1275, Note_on_c, 6, 59, 90
12, 1289, Note_on_c, 6, 59, 0
12, 1290, Note_on_c, 6, 57, 90
12, 1304, Note_on_c, 6, 57, 0
12, 1305, Note_on_c, 6, 55, 90
12, 1319, Note_on_c, 6, 55, 0
12, 1320, Note_on_c, 6, 54, 90
12, 1334, Note_on_c, 6, 54, 0
12, 1335, Note_on_c, 6, 59, 90
12, 1349, Note_on_c, 6, 59, 0
12, 1350, Note_on_c, 6, 57, 90
12, 1364, Note_on_c, 6, 57, 0
12, 1365, Note_on_c, 6, 55, 90
12, 1379, Note_on_c, 6, 55, 0
12, 1380, Note_on_c, 6, 54, 90
12, 1394, Note_on_c, 6, 54, 0
12, 1395, Note_on_c, 6, 59, 90
12, 1409, Note_on_c, 6, 59, 0
12, 1410, Note_on_c, 6, 57, 90
12, 1424, Note_on_c, 6, 57, 0
12, 1425, Note_on_c, 6, 55, 90
12, 1439, Note_on_c, 6, 55, 0
12, 1440, Note_on_c, 6, 57, 90
12, 1457, Note_on_c, 6, 57, 0
12, 1470, Note_on_c, 6, 57, 90
12, 1487, Note_on_c, 6, 57, 0
12, 1500, Note_on_c, 6, 57, 90
12, 1517, Note_on_c, 6, 57, 0
12, 1530, Note_on_c, 6, 57, 90
12, 1547, Note_on_c, 6, 57, 0
12, 1560, Note_on_c, 6, 57, 90
12, 1577, Note_on_c, 6, 57, 0
12, 1590, Note_on_c, 6, 57, 90
12, 1607, Note_on_c, 6, 57, 0
12, 1620, Note_on_c, 6, 57, 90
12, 1637, Note_on_c, 6, 57, 0
12, 1650, Note_on_c, 6, 57, 90
12, 1667, Note_on_c, 6, 57, 0
12, 1680, Note_on_c, 6, 57, 90
12, 1697, Note_on_c, 6, 57, 0
12, 1710, Note_on_c, 6, 57, 90
12, 1727, Note_on_c, 6, 57, 0
12, 1740, Note_on_c, 6, 57, 90
12, 1757, Note_on_c, 6, 57, 0
12, 1770, Note_on_c, 6, 57, 90
12, 1787, Note_on_c, 6, 57, 0
12, 1800, Note_on_c, 6, 57, 90
12, 1817, Note_on_c, 6, 57, 0
12, 1830, Note_on_c, 6, 57, 90
12, 1847, Note_on_c, 6, 57, 0
12, 1860, Note_on_c, 6, 57, 90
12, 1877, Note_on_c, 6, 57, 0
12, 1890, Note_on_c, 6, 57, 90
12, 1907, Note_on_c, 6, 57, 0
12, 1920, Note_on_c, 6, 57, 90
12, 1937, Note_on_c, 6, 57, 0
12, 1950, Note_on_c, 6, 57, 90
12, 1967, Note_on_c, 6, 57, 0
12, 1980, Note_on_c, 6, 57, 90
12, 1997, Note_on_c, 6, 57, 0
12, 2010, Note_on_c, 6, 57, 90
12, 2027, Note_on_c, 6, 57, 0
12, 2040, Note_on_c, 6, 57, 90
12, 2057, Note_on_c, 6, 57, 0
12, 2070, Note_on_c, 6, 57, 90
12, 2087, Note_on_c, 6, 57, 0
12, 2100, Note_on_c, 6, 69, 90
12, 2129, Note_on_c, 6, 69, 0
12, 2130, Note_on_c, 6, 67, 90
12, 2159, Note_on_c, 6, 67, 0
12, 2160, Note_on_c, 6, 66, 90
12, 2189, Note_on_c, 6, 66, 0
12, 2220, Note_on_c, 6, 69, 90
12, 2249, Note_on_c, 6, 69, 0
12, 2280, Note_on_c, 6, 62, 90
12, 2309, Note_on_c, 6, 62, 0
12, 2340, Note_on_c, 6, 62, 90
12, 2399, Note_on_c, 6, 62, 0
12, 2400, Note_on_c, 6, 62, 90
12, 2459, Note_on_c, 6, 62, 0
12, 2460, Note_on_c, 6, 61, 90
12, 2519, Note_on_c, 6, 61, 0
12, 2520, Note_on_c, 6, 62, 90
12, 2579, Note_on_c, 6, 62, 0
12, 2580, Note_on_c, 6, 64, 90
12, 2639, Note_on_c, 6, 64, 0
12, 2640, Note_on_c, 6, 71, 90
12, 2699, Note_on_c, 6, 71, 0
12, 2700, Note_on_c, 6, 64, 90
12, 2819, Note_on_c, 6, 64, 0
12, 2820, Note_on_c, 6, 69, 90
12, 2879, Note_on_c, 6, 69, 0
12, 2880, Note_on_c, 6, 69, 90
12, 2939, Note_on_c, 6, 69, 0
12, 2940, Note_on_c, 6, 63, 90
12, 2999, Note_on_c, 6, 63, 0
12, 3000, Note_on_c, 6, 64, 90
12, 3059, Note_on_c, 6, 64, 0
12, 3060, Note_on_c, 6, 69, 90
12, 3119, Note_on_c, 6, 69, 0
12, 3120, Note_on_c, 6, 63, 90
12, 3179, Note_on_c, 6, 63, 0
12, 3180, Note_on_c, 6, 63, 90
12, 3239, Note_on_c, 6, 63, 0
12, 3240, Note_on_c, 6, 71, 90
12, 3299, Note_on_c, 6, 71, 0
12, 3300, Note_on_c, 6, 71, 90
12, 3359, Note_on_c, 6, 71, 0
12, 3360, Note_on_c, 6, 71, 90
12, 3419, Note_on_c, 6, 71, 0
12, 3420, Note_on_c, 6, 71, 90
12, 3479, Note_on_c, 6, 71, 0
12, 3480, Note_on_c, 6, 64, 90
12, 3539, Note_on_c, 6, 64, 0
12, 3540, Note_on_c, 6, 64, 90
12, 3599, Note_on_c, 6, 64, 0
12, 3600, Note_on_c, 6, 64, 90
12, 3659, Note_on_c, 6, 64, 0
12, 3660, Note_on_c, 6, 57, 90
12, 3719, Note_on_c, 6, 57, 0
12, 3720, Note_on_c, 6, 59, 90
12, 3779, Note_on_c, 6, 59, 0
12, 3780, Note_on_c, 6, 61, 90
12, 3839, Note_on_c, 6, 61, 0
12, 3840, Note_on_c, 6, 73, 90
12, 3899, Note_on_c, 6, 73, 0
12, 3900, Note_on_c, 6, 71, 90
12, 3959, Note_on_c, 6, 71, 0
12, 3960, Note_on_c, 6, 69, 90
12, 4019, Note_on_c, 6, 69, 0
12, 4020, Note_on_c, 6, 69, 90
12, 4079, Note_on_c, 6, 69, 0
12, 4080, Note_on_c, 6, 69, 90
12, 4139, Note_on_c, 6, 69, 0
12, 4140, Note_on_c, 6, 69, 90
12, 4199, Note_on_c, 6, 69, 0
12, 4200, Note_on_c, 6, 69, 90
12, 4259, Note_on_c, 6, 69, 0
12, 4260, Note_on_c, 6, 69, 90
12, 4319, Note_on_c, 6, 69, 0
12, 4320, Note_on_c, 6, 62, 90
12, 4349, Note_on_c, 6, 62, 0
12, 4380, Note_on_c, 6, 71, 90
12, 4409, Note_on_c, 6, 71, 0
12, 4440, Note_on_c, 6, 74, 90
12, 4469, Note_on_c, 6, 74, 0
12, 4500, Note_on_c, 6, 71, 90
12, 4529, Note_on_c, 6, 71, 0
12, 4560, Note_on_c, 6, 68, 90
12, 4589, Note_on_c, 6, 68, 0
12, 4620, Note_on_c, 6, 71, 90
12, 4649, Note_on_c, 6, 71, 0
12, 4680, Note_on_c, 6, 64, 90
12, 4709, Note_on_c, 6, 64, 0
12, 4740, Note_on_c, 6, 69, 90
12, 4769, Note_on_c, 6, 69, 0
12, 4800, Note_on_c, 6, 72, 90
12, 4829, Note_on_c, 6, 72, 0
12, 4860, Note_on_c, 6, 69, 90
12, 4889, Note_on_c, 6, 69, 0
12, 4920, Note_on_c, 6, 66, 90
12, 4949, Note_on_c, 6, 66, 0
12, 4980, Note_on_c, 6, 69, 90
12, 5009, Note_on_c, 6, 69, 0
12, 5040, Note_on_c, 6, 71, 90
12, 5069, Note_on_c, 6, 71, 0
12, 5100, Note_on_c, 6, 64, 90
12, 5129, Note_on_c, 6, 64, 0
12, 5160, Note_on_c, 6, 57, 90
12, 5189, Note_on_c, 6, 57, 0
12, 5220, Note_on_c, 6, 64, 90
12, 5249, Note_on_c, 6, 64, 0
12, 5400, Note_on_c, 6, 57, 90
12, 5429, Note_on_c, 6, 57, 0
12, 5580, Note_on_c, 6, 57, 90
12, 5609, Note_on_c, 6, 57, 0
12, 5640, Note_on_c, 6, 62, 90
12, 5669, Note_on_c, 6, 62, 0
12, 5700, Note_on_c, 6, 64, 90
12, 5729, Note_on_c, 6, 64, 0
12, 5760, Note_on_c, 6, 66, 90
12, 5789, Note_on_c, 6, 66, 0
12, 5940, Note_on_c, 6, 57, 90
12, 6000, Note_on_c, 6, 57, 0
12, 6120, Note_on_c, 6, 62, 90
12, 6180, Note_on_c, 6, 62, 0
12, 6300, Note_on_c, 6, 66, 90
12, 6360, Note_on_c, 6, 66, 0
12, 6480, Note_on_c, 6, 62, 90
12, 6539, Note_on_c, 6, 62, 0
12, 6660, Note_on_c, 6, 62, 90
12, 6719, Note_on_c, 6, 62, 0
12, 6840, Note_on_c, 6, 62, 90
12, 6899, Note_on_c, 6, 62, 0
12, 7020, Note_on_c, 6, 57, 90
12, 7079, Note_on_c, 6, 57, 0
12, 7215, Note_on_c, 6, 62, 90
12, 7229, Note_on_c, 6, 62, 0
12, 7230, Note_on_c, 6, 61, 90
12, 7244, Note_on_c, 6, 61, 0
12, 7245, Note_on_c, 6, 59, 90
12, 7259, Note_on_c, 6, 59, 0
12, 7260, Note_on_c, 6, 57, 90
12, 7274, Note_on_c, 6, 57, 0
12, 7275, Note_on_c, 6, 62, 90
12, 7289, Note_on_c, 6, 62, 0
12, 7290, Note_on_c, 6, 61, 90
12, 7304, Note_on_c, 6, 61, 0
12, 7305, Note_on_c, 6, 59, 90
12, 7319, Note_on_c, 6, 59, 0
12, 7320, Note_on_c, 6, 57, 90
12, 7334, Note_on_c, 6, 57, 0
12, 7335, Note_on_c, 6, 55, 90
12, 7349, Note_on_c, 6, 55, 0
12, 7350, Note_on_c, 6, 54, 90
12, 7364, Note_on_c, 6, 54, 0
12, 7365, Note_on_c, 6, 52, 90
12, 7379, Note_on_c, 6, 52, 0
12, 7380, Note_on_c, 6, 54, 90
12, 7394, Note_on_c, 6, 54, 0
12, 7395, Note_on_c, 6, 59, 90
12, 7409, Note_on_c, 6, 59, 0
12, 7410, Note_on_c, 6, 57, 90
12, 7424, Note_on_c, 6, 57, 0
12, 7425, Note_on_c, 6, 55, 90
12, 7439, Note_on_c, 6, 55, 0
12, 7440, Note_on_c, 6, 54, 90
12, 7454, Note_on_c, 6, 54, 0
12, 7455, Note_on_c, 6, 59, 90
12, 7469, Note_on_c, 6, 59, 0
12, 7470, Note_on_c, 6, 57, 90
12, 7484, Note_on_c, 6, 57, 0
12, 7485, Note_on_c, 6, 55, 90
12, 7499, Note_on_c, 6, 55, 0
12, 7500, Note_on_c, 6, 54, 90
12, 7514, Note_on_c, 6, 54, 0
12, 7515, Note_on_c, 6, 59, 90
12, 7529, Note_on_c, 6, 59, 0
12, 7530, Note_on_c, 6, 57, 90
12, 7544, Note_on_c, 6, 57, 0
12, 7545, Note_on_c, 6, 55, 90
12, 7559, Note_on_c, 6, 55, 0
12, 7560, Note_on_c, 6, 57, 90
12, 7577, Note_on_c, 6, 57, 0
12, 7590, Note_on_c, 6, 57, 90
12, 7607, Note_on_c, 6, 57, 0
12, 7620, Note_on_c, 6, 57, 90
12, 7637, Note_on_c, 6, 57, 0
12, 7650, Note_on_c, 6, 57, 90
12, 7667, Note_on_c, 6, 57, 0
12, 7680, Note_on_c, 6, 57, 90
12, 7697, Note_on_c, 6, 57, 0
12, 7710, Note_on_c, 6, 57, 90
12, 7727, Note_on_c, 6, 57, 0
12, 7740, Note_on_c, 6, 57, 90
12, 7757, Note_on_c, 6, 57, 0
12, 7770, Note_on_c, 6, 57, 90
12, 7787, Note_on_c, 6, 57, 0
12, 7800, Note_on_c, 6, 57, 90
12, 7817, Note_on_c, 6, 57, 0
12, 7830, Note_on_c, 6, 57, 90
12, 7847, Note_on_c, 6, 57, 0
12, 7860, Note_on_c, 6, 57, 90
12, 7877, Note_on_c, 6, 57, 0
12, 7890, Note_on_c, 6, 57, 90
12, 7907, Note_on_c, 6, 57, 0
12, 7920, Note_on_c, 6, 57, 90
12, 7937, Note_on_c, 6, 57, 0
12, 7950, Note_on_c, 6, 57, 90
12, 7967, Note_on_c, 6, 57, 0
12, 7980, Note_on_c, 6, 57, 90
12, 7997, Note_on_c, 6, 57, 0
12, 8010, Note_on_c, 6, 57, 90
12, 8027, Note_on_c, 6, 57, 0
12, 8040, Note_on_c, 6, 57, 90
12, 8057, Note_on_c, 6, 57, 0
12, 8070, Note_on_c, 6, 57, 90
12, 8087, Note_on_c, 6, 57, 0
12, 8100, Note_on_c, 6, 57, 90
12, 8117, Note_on_c, 6, 57, 0
12, 8130, Note_on_c, 6, 57, 90
12, 8147, Note_on_c, 6, 57, 0
12, 8160, Note_on_c, 6, 57, 90
12, 8177, Note_on_c, 6, 57, 0
12, 8190, Note_on_c, 6, 57, 90
12, 8207, Note_on_c, 6, 57, 0
12, 8220, Note_on_c, 6, 69, 90
12, 8249, Note_on_c, 6, 69, 0
12, 8250, Note_on_c, 6, 67, 90
12, 8279, Note_on_c, 6, 67, 0
12, 8280, Note_on_c, 6, 66, 90
12, 8309, Note_on_c, 6, 66, 0
12, 8340, Note_on_c, 6, 69, 90
12, 8369, Note_on_c, 6, 69, 0
12, 8400, Note_on_c, 6, 62, 90
12, 8429, Note_on_c, 6, 62, 0
12, 8460, Note_on_c, 6, 62, 90
12, 8519, Note_on_c, 6, 62, 0
12, 8520, Note_on_c, 6, 62, 90
12, 8579, Note_on_c, 6, 62, 0
12, 8580, Note_on_c, 6, 61, 90
12, 8639, Note_on_c, 6, 61, 0
12, 8640, Note_on_c, 6, 62, 90
12, 8699, Note_on_c, 6, 62, 0
12, 8700, Note_on_c, 6, 64, 90
12, 8759, Note_on_c, 6, 64, 0
12, 8760, Note_on_c, 6, 71, 90
12, 8819, Note_on_c, 6, 71, 0
12, 8820, Note_on_c, 6, 64, 90
12, 8879, Note_on_c, 6, 64, 0
12, 8880, Note_on_c, 6, 57, 90
12, 8909, Note_on_c, 6, 57, 0
12, 8910, Note_on_c, 6, 59, 90
12, 8939, Note_on_c, 6, 59, 0
12, 8940, Note_on_c, 6, 61, 90
12, 8954, Note_on_c, 6, 61, 0
12, 8955, Note_on_c, 6, 59, 90
12, 8969, Note_on_c, 6, 59, 0
12, 8970, Note_on_c, 6, 57, 90
12, 8984, Note_on_c, 6, 57, 0
12, 8985, Note_on_c, 6, 59, 90
12, 8999, Note_on_c, 6, 59, 0
12, 9000, Note_on_c, 6, 61, 90
12, 9029, Note_on_c, 6, 61, 0
12, 9060, Note_on_c, 6, 61, 90
12, 9089, Note_on_c, 6, 61, 0
12, 9120, Note_on_c, 6, 63, 90
12, 9149, Note_on_c, 6, 63, 0
12, 9180, Note_on_c, 6, 64, 90
12, 9239, Note_on_c, 6, 64, 0
12, 9240, Note_on_c, 6, 64, 90
12, 9299, Note_on_c, 6, 64, 0
12, 9300, Note_on_c, 6, 62, 90
12, 9359, Note_on_c, 6, 62, 0
12, 9360, Note_on_c, 6, 62, 90
12, 9419, Note_on_c, 6, 62, 0
12, 9420, Note_on_c, 6, 67, 90
12, 9479, Note_on_c, 6, 67, 0
12, 9480, Note_on_c, 6, 67, 90
12, 9539, Note_on_c, 6, 67, 0
12, 9540, Note_on_c, 6, 66, 90
12, 9599, Note_on_c, 6, 66, 0
12, 9600, Note_on_c, 6, 66, 90
12, 9659, Note_on_c, 6, 66, 0
12, 9780, Note_on_c, 6, 57, 90
12, 9809, Note_on_c, 6, 57, 0
12, 9810, Note_on_c, 6, 59, 90
12, 9839, Note_on_c, 6, 59, 0
12, 9840, Note_on_c, 6, 61, 90
12, 9854, Note_on_c, 6, 61, 0
12, 9855, Note_on_c, 6, 59, 90
12, 9869, Note_on_c, 6, 59, 0
12, 9870, Note_on_c, 6, 57, 90
12, 9884, Note_on_c, 6, 57, 0
12, 9885, Note_on_c, 6, 59, 90
12, 9899, Note_on_c, 6, 59, 0
12, 9900, Note_on_c, 6, 61, 90
12, 9929, Note_on_c, 6, 61, 0
12, 9960, Note_on_c, 6, 64, 90
12, 9989, Note_on_c, 6, 64, 0
12, 10020, Note_on_c, 6, 68, 90
12, 10049, Note_on_c, 6, 68, 0
12, 10080, Note_on_c, 6, 69, 90
12, 10139, Note_on_c, 6, 69, 0
12, 10140, Note_on_c, 6, 69, 90
12, 10199, Note_on_c, 6, 69, 0
12, 10200, Note_on_c, 6, 69, 90
12, 10259, Note_on_c, 6, 69, 0
12, 10260, Note_on_c, 6, 67, 90
12, 10319, Note_on_c, 6, 67, 0
12, 10320, Note_on_c, 6, 60, 90
12, 10379, Note_on_c, 6, 60, 0
12, 10380, Note_on_c, 6, 60, 90
12, 10439, Note_on_c, 6, 60, 0
12, 10440, Note_on_c, 6, 59, 90
12, 10469, Note_on_c, 6, 59, 0
12, 10470, Note_on_c, 6, 61, 90
12, 10499, Note_on_c, 6, 61, 0
12, 10500, Note_on_c, 6, 57, 90
12, 10529, Note_on_c, 6, 57, 0
12, 10530, Note_on_c, 6, 59, 90
12, 10559, Note_on_c, 6, 59, 0
12, 10560, Note_on_c, 6, 55, 90
12, 10589, Note_on_c, 6, 55, 0
12, 10590, Note_on_c, 6, 57, 90
12, 10619, Note_on_c, 6, 57, 0
12, 10620, Note_on_c, 6, 54, 90
12, 10679, Note_on_c, 6, 54, 0
12, 10680, Note_on_c, 6, 57, 90
12, 10739, Note_on_c, 6, 57, 0
12, 10740, Note_on_c, 6, 64, 90
12, 10799, Note_on_c, 6, 64, 0
12, 10800, Note_on_c, 6, 62, 90
12, 10859, Note_on_c, 6, 62, 0
12, 10860, Note_on_c, 6, 57, 90
12, 10889, Note_on_c, 6, 57, 0
12, 10890, Note_on_c, 6, 61, 90
12, 10919, Note_on_c, 6, 61, 0
12, 10920, Note_on_c, 6, 61, 90
12, 10934, Note_on_c, 6, 61, 0
12, 10935, Note_on_c, 6, 59, 90
12, 10949, Note_on_c, 6, 59, 0
12, 10950, Note_on_c, 6, 57, 90
12, 10964, Note_on_c, 6, 57, 0
12, 10965, Note_on_c, 6, 59, 90
12, 10979, Note_on_c, 6, 59, 0
12, 10980, Note_on_c, 6, 61, 90
12, 11009, Note_on_c, 6, 61, 0
12, 11010, Note_on_c, 6, 64, 90
12, 11039, Note_on_c, 6, 64, 0
12, 11040, Note_on_c, 6, 69, 90
12, 11069, Note_on_c, 6, 69, 0
12, 11100, Note_on_c, 6, 66, 90
12, 11129, Note_on_c, 6, 66, 0
12, 11160, Note_on_c, 6, 59, 90
12, 11249, Note_on_c, 6, 59, 0
12, 11250, Note_on_c, 6, 60, 90
12, 11279, Note_on_c, 6, 60, 0
12, 11280, Note_on_c, 6, 57, 90
12, 11309, Note_on_c, 6, 57, 0
12, 11310, Note_on_c, 6, 59, 90
12, 11339, Note_on_c, 6, 59, 0
12, 11340, Note_on_c, 6, 55, 90
12, 11399, Note_on_c, 6, 55, 0
12, 11400, Note_on_c, 6, 59, 90
12, 11459, Note_on_c, 6, 59, 0
12, 11460, Note_on_c, 6, 64, 90
12, 11519, Note_on_c, 6, 64, 0
12, 11520, Note_on_c, 6, 64, 90
12, 11579, Note_on_c, 6, 64, 0
12, 11580, Note_on_c, 6, 58, 90
12, 11639, Note_on_c, 6, 58, 0
12, 11640, Note_on_c, 6, 59, 90
12, 11699, Note_on_c, 6, 59, 0
12, 11700, Note_on_c, 6, 64, 90
12, 11759, Note_on_c, 6, 64, 0
12, 11760, Note_on_c, 6, 58, 90
12, 11819, Note_on_c, 6, 58, 0
12, 11820, Note_on_c, 6, 58, 90
12, 11879, Note_on_c, 6, 58, 0
12, 11880, Note_on_c, 6, 66, 90
12, 11939, Note_on_c, 6, 66, 0
12, 11940, Note_on_c, 6, 66, 90
12, 11999, Note_on_c, 6, 66, 0
12, 12000, Note_on_c, 6, 66, 90
12, 12059, Note_on_c, 6, 66, 0
12, 12060, Note_on_c, 6, 66, 90
12, 12119, Note_on_c, 6, 66, 0
12, 12120, Note_on_c, 6, 59, 90
12, 12179, Note_on_c, 6, 59, 0
12, 12180, Note_on_c, 6, 59, 90
12, 12239, Note_on_c, 6, 59, 0
12, 12240, Note_on_c, 6, 59, 90
12, 12299, Note_on_c, 6, 59, 0
12, 12300, Note_on_c, 6, 52, 90
12, 12359, Note_on_c, 6, 52, 0
12, 12360, Note_on_c, 6, 54, 90
12, 12419, Note_on_c, 6, 54, 0
12, 12420, Note_on_c, 6, 56, 90
12, 12479, Note_on_c, 6, 56, 0
12, 12480, Note_on_c, 6, 68, 90
12, 12539, Note_on_c, 6, 68, 0
12, 12540, Note_on_c, 6, 66, 90
12, 12599, Note_on_c, 6, 66, 0
12, 12600, Note_on_c, 6, 64, 90
12, 12659, Note_on_c, 6, 64, 0
12, 12660, Note_on_c, 6, 64, 90
12, 12719, Note_on_c, 6, 64, 0
12, 12720, Note_on_c, 6, 64, 90
12, 12779, Note_on_c, 6, 64, 0
12, 12780, Note_on_c, 6, 64, 90
12, 12839, Note_on_c, 6, 64, 0
12, 12840, Note_on_c, 6, 64, 90
12, 12899, Note_on_c, 6, 64, 0
12, 12900, Note_on_c, 6, 64, 90
12, 12959, Note_on_c, 6, 64, 0
12, 12960, Note_on_c, 6, 57, 90
12, 12989, Note_on_c, 6, 57, 0
12, 13020, Note_on_c, 6, 66, 90
12, 13049, Note_on_c, 6, 66, 0
12, 13080, Note_on_c, 6, 69, 90
12, 13109, Note_on_c, 6, 69, 0
12, 13140, Note_on_c, 6, 66, 90
12, 13169, Note_on_c, 6, 66, 0
12, 13200, Note_on_c, 6, 63, 90
12, 13229, Note_on_c, 6, 63, 0
12, 13260, Note_on_c, 6, 66, 90
12, 13289, Note_on_c, 6, 66, 0
12, 13320, Note_on_c, 6, 68, 90
12, 13349, Note_on_c, 6, 68, 0
12, 13380, Note_on_c, 6, 64, 90
12, 13409, Note_on_c, 6, 64, 0
12, 13440, Note_on_c, 6, 67, 90
12, 13469, Note_on_c, 6, 67, 0
12, 13500, Note_on_c, 6, 64, 90
12, 13529, Note_on_c, 6, 64, 0
12, 13560, Note_on_c, 6, 61, 90
12, 13589, Note_on_c, 6, 61, 0
12, 13620, Note_on_c, 6, 64, 90
12, 13649, Note_on_c, 6, 64, 0
12, 13680, Note_on_c, 6, 66, 90
12, 13709, Note_on_c, 6, 66, 0
12, 13740, Note_on_c, 6, 59, 90
12, 13769, Note_on_c, 6, 59, 0
12, 13800, Note_on_c, 6, 52, 90
12, 13829, Note_on_c, 6, 52, 0
12, 13860, Note_on_c, 6, 59, 90
12, 13889, Note_on_c, 6, 59, 0
12, 14040, Note_on_c, 6, 52, 90
12, 14069, Note_on_c, 6, 52, 0
12, 14220, Note_on_c, 6, 64, 90
12, 14249, Note_on_c, 6, 64, 0
12, 14280, Note_on_c, 6, 59, 90
12, 14309, Note_on_c, 6, 59, 0
12, 14340, Note_on_c, 6, 71, 90
12, 14369, Note_on_c, 6, 71, 0
12, 14400, Note_on_c, 6, 73, 90
12, 14429, Note_on_c, 6, 73, 0
12, 14430, Note_on_c, 6, 64, 90
12, 14447, Note_on_c, 6, 64, 0
12, 14460, Note_on_c, 6, 64, 90
12, 14477, Note_on_c, 6, 64, 0
12, 14490, Note_on_c, 6, 64, 90
12, 14507, Note_on_c, 6, 64, 0
12, 14520, Note_on_c, 6, 64, 90
12, 14537, Note_on_c, 6, 64, 0
12, 14550, Note_on_c, 6, 64, 90
12, 14567, Note_on_c, 6, 64, 0
12, 14580, Note_on_c, 6, 64, 90
12, 14597, Note_on_c, 6, 64, 0
12, 14610, Note_on_c, 6, 64, 90
12, 14627, Note_on_c, 6, 64, 0
12, 14640, Note_on_c, 6, 64, 90
12, 14657, Note_on_c, 6, 64, 0
12, 14670, Note_on_c, 6, 64, 90
12, 14687, Note_on_c, 6, 64, 0
12, 14700, Note_on_c, 6, 64, 90
12, 14717, Note_on_c, 6, 64, 0
12, 14730, Note_on_c, 6, 64, 90
12, 14747, Note_on_c, 6, 64, 0
12, 14760, Note_on_c, 6, 64, 90
12, 14777, Note_on_c, 6, 64, 0
12, 14790, Note_on_c, 6, 64, 90
12, 14807, Note_on_c, 6, 64, 0
12, 14820, Note_on_c, 6, 64, 90
12, 14837, Note_on_c, 6, 64, 0
12, 14850, Note_on_c, 6, 64, 90
12, 14867, Note_on_c, 6, 64, 0
12, 14880, Note_on_c, 6, 64, 90
12, 14897, Note_on_c, 6, 64, 0
12, 14910, Note_on_c, 6, 64, 90
12, 14927, Note_on_c, 6, 64, 0
12, 14940, Note_on_c, 6, 64, 90
12, 14957, Note_on_c, 6, 64, 0
12, 14970, Note_on_c, 6, 64, 90
12, 14987, Note_on_c, 6, 64, 0
12, 15000, Note_on_c, 6, 64, 90
12, 15017, Note_on_c, 6, 64, 0
12, 15030, Note_on_c, 6, 64, 90
12, 15047, Note_on_c, 6, 64, 0
12, 15060, Note_on_c, 6, 64, 90
12, 15077, Note_on_c, 6, 64, 0
12, 15090, Note_on_c, 6, 62, 90
12, 15107, Note_on_c, 6, 62, 0
12, 15120, Note_on_c, 6, 61, 90
12, 15137, Note_on_c, 6, 61, 0
12, 15150, Note_on_c, 6, 61, 90
12, 15167, Note_on_c, 6, 61, 0
12, 15180, Note_on_c, 6, 61, 90
12, 15197, Note_on_c, 6, 61, 0
12, 15210, Note_on_c, 6, 61, 90
12, 15227, Note_on_c, 6, 61, 0
12, 15240, Note_on_c, 6, 61, 90
12, 15257, Note_on_c, 6, 61, 0
12, 15270, Note_on_c, 6, 61, 90
12, 15287, Note_on_c, 6, 61, 0
12, 15300, Note_on_c, 6, 59, 90
12, 15359, Note_on_c, 6, 59, 0
12, 15360, Note_on_c, 6, 59, 90
12, 15419, Note_on_c, 6, 59, 0
12, 15420, Note_on_c, 6, 62, 90
12, 15479, Note_on_c, 6, 62, 0
12, 15480, Note_on_c, 6, 62, 90
12, 15599, Note_on_c, 6, 62, 0
12, 15600, Note_on_c, 6, 62, 90
12, 15659, Note_on_c, 6, 62, 0
12, 15660, Note_on_c, 6, 69, 90
12, 15779, Note_on_c, 6, 69, 0
12, 15780, Note_on_c, 6, 69, 90
12, 15839, Note_on_c, 6, 69, 0
12, 15840, Note_on_c, 6, 69, 90
12, 15899, Note_on_c, 6, 69, 0
12, 16740, Note_on_c, 6, 57, 90
12, 16800, Note_on_c, 6, 57, 0
12, 16920, Note_on_c, 6, 62, 90
12, 16980, Note_on_c, 6, 62, 0
12, 17100, Note_on_c, 6, 57, 90
12, 17160, Note_on_c, 6, 57, 0
12, 17295, Note_on_c, 6, 62, 90
12, 17309, Note_on_c, 6, 62, 0
12, 17310, Note_on_c, 6, 61, 90
12, 17324, Note_on_c, 6, 61, 0
12, 17325, Note_on_c, 6, 59, 90
12, 17339, Note_on_c, 6, 59, 0
12, 17340, Note_on_c, 6, 57, 90
12, 17354, Note_on_c, 6, 57, 0
12, 17355, Note_on_c, 6, 62, 90
12, 17369, Note_on_c, 6, 62, 0
12, 17370, Note_on_c, 6, 61, 90
12, 17384, Note_on_c, 6, 61, 0
12, 17385, Note_on_c, 6, 59, 90
12, 17399, Note_on_c, 6, 59, 0
12, 17400, Note_on_c, 6, 57, 90
12, 17414, Note_on_c, 6, 57, 0
12, 17415, Note_on_c, 6, 55, 90
12, 17429, Note_on_c, 6, 55, 0
12, 17430, Note_on_c, 6, 54, 90
12, 17444, Note_on_c, 6, 54, 0
12, 17445, Note_on_c, 6, 52, 90
12, 17459, Note_on_c, 6, 52, 0
12, 17460, Note_on_c, 6, 54, 90
12, 17474, Note_on_c, 6, 54, 0
12, 17475, Note_on_c, 6, 59, 90
12, 17489, Note_on_c, 6, 59, 0
12, 17490, Note_on_c, 6, 57, 90
12, 17504, Note_on_c, 6, 57, 0
12, 17505, Note_on_c, 6, 55, 90
12, 17519, Note_on_c, 6, 55, 0
12, 17520, Note_on_c, 6, 54, 90
12, 17534, Note_on_c, 6, 54, 0
12, 17535, Note_on_c, 6, 59, 90
12, 17549, Note_on_c, 6, 59, 0
12, 17550, Note_on_c, 6, 57, 90
12, 17564, Note_on_c, 6, 57, 0
12, 17565, Note_on_c, 6, 55, 90
12, 17579, Note_on_c, 6, 55, 0
12, 17580, Note_on_c, 6, 54, 90
12, 17594, Note_on_c, 6, 54, 0
12, 17595, Note_on_c, 6, 59, 90
12, 17609, Note_on_c, 6, 59, 0
12, 17610, Note_on_c, 6, 57, 90
12, 17624, Note_on_c, 6, 57, 0
12, 17625, Note_on_c, 6, 55, 90
12, 17639, Note_on_c, 6, 55, 0
12, 17640, Note_on_c, 6, 57, 90
12, 17657, Note_on_c, 6, 57, 0
12, 17670, Note_on_c, 6, 57, 90
12, 17687, Note_on_c, 6, 57, 0
12, 17700, Note_on_c, 6, 57, 90
12, 17717, Note_on_c, 6, 57, 0
12, 17730, Note_on_c, 6, 57, 90
12, 17747, Note_on_c, 6, 57, 0
12, 17760, Note_on_c, 6, 57, 90
12, 17777, Note_on_c, 6, 57, 0
12, 17790, Note_on_c, 6, 57, 90
12, 17807, Note_on_c, 6, 57, 0
12, 17820, Note_on_c, 6, 57, 90
12, 17837, Note_on_c, 6, 57, 0
12, 17850, Note_on_c, 6, 57, 90
12, 17867, Note_on_c, 6, 57, 0
12, 17880, Note_on_c, 6, 57, 90
12, 17897, Note_on_c, 6, 57, 0
12, 17910, Note_on_c, 6, 57, 90
12, 17927, Note_on_c, 6, 57, 0
12, 17940, Note_on_c, 6, 57, 90
12, 17957, Note_on_c, 6, 57, 0
12, 17970, Note_on_c, 6, 57, 90
12, 17987, Note_on_c, 6, 57, 0
12, 18000, Note_on_c, 6, 57, 90
12, 18017, Note_on_c, 6, 57, 0
12, 18030, Note_on_c, 6, 57, 90
12, 18047, Note_on_c, 6, 57, 0
12, 18060, Note_on_c, 6, 57, 90
12, 18077, Note_on_c, 6, 57, 0
12, 18090, Note_on_c, 6, 57, 90
12, 18107, Note_on_c, 6, 57, 0
12, 18120, Note_on_c, 6, 57, 90
12, 18137, Note_on_c, 6, 57, 0
12, 18150, Note_on_c, 6, 57, 90
12, 18167, Note_on_c, 6, 57, 0
12, 18180, Note_on_c, 6, 57, 90
12, 18197, Note_on_c, 6, 57, 0
12, 18210, Note_on_c, 6, 57, 90
12, 18227, Note_on_c, 6, 57, 0
12, 18240, Note_on_c, 6, 57, 90
12, 18257, Note_on_c, 6, 57, 0
12, 18270, Note_on_c, 6, 57, 90
12, 18287, Note_on_c, 6, 57, 0
12, 18300, Note_on_c, 6, 69, 90
12, 18329, Note_on_c, 6, 69, 0
12, 18330, Note_on_c, 6, 67, 90
12, 18359, Note_on_c, 6, 67, 0
12, 18360, Note_on_c, 6, 66, 90
12, 18389, Note_on_c, 6, 66, 0
12, 18420, Note_on_c, 6, 69, 90
12, 18449, Note_on_c, 6, 69, 0
12, 18480, Note_on_c, 6, 62, 90
12, 18509, Note_on_c, 6, 62, 0
12, 18540, Note_on_c, 6, 62, 90
12, 18599, Note_on_c, 6, 62, 0
12, 18600, Note_on_c, 6, 62, 90
12, 18659, Note_on_c, 6, 62, 0
12, 18660, Note_on_c, 6, 61, 90
12, 18719, Note_on_c, 6, 61, 0
12, 18720, Note_on_c, 6, 62, 90
12, 18779, Note_on_c, 6, 62, 0
12, 18780, Note_on_c, 6, 64, 90
12, 18839, Note_on_c, 6, 64, 0
12, 18840, Note_on_c, 6, 71, 90
12, 18899, Note_on_c, 6, 71, 0
12, 18900, Note_on_c, 6, 64, 90
12, 19019, Note_on_c, 6, 64, 0
12, 19140, Note_on_c, 6, 59, 90
12, 19169, Note_on_c, 6, 59, 0
12, 19170, Note_on_c, 6, 61, 90
12, 19199, Note_on_c, 6, 61, 0
12, 19200, Note_on_c, 6, 62, 90
12, 19214, Note_on_c, 6, 62, 0
12, 19215, Note_on_c, 6, 61, 90
12, 19229, Note_on_c, 6, 61, 0
12, 19230, Note_on_c, 6, 59, 90
12, 19244, Note_on_c, 6, 59, 0
12, 19245, Note_on_c, 6, 61, 90
12, 19259, Note_on_c, 6, 61, 0
12, 19260, Note_on_c, 6, 62, 90
12, 19289, Note_on_c, 6, 62, 0
12, 19290, Note_on_c, 6, 61, 90
12, 19319, Note_on_c, 6, 61, 0
12, 19320, Note_on_c, 6, 62, 90
12, 19349, Note_on_c, 6, 62, 0
12, 19350, Note_on_c, 6, 64, 90
12, 19379, Note_on_c, 6, 64, 0
12, 19380, Note_on_c, 6, 66, 90
12, 19394, Note_on_c, 6, 66, 0
12, 19395, Note_on_c, 6, 64, 90
12, 19409, Note_on_c, 6, 64, 0
12, 19410, Note_on_c, 6, 62, 90
12, 19424, Note_on_c, 6, 62, 0
12, 19425, Note_on_c, 6, 64, 90
12, 19439, Note_on_c, 6, 64, 0
12, 19440, Note_on_c, 6, 66, 90
12, 19469, Note_on_c, 6, 66, 0
12, 19500, Note_on_c, 6, 67, 90
12, 19529, Note_on_c, 6, 67, 0
12, 19560, Note_on_c, 6, 66, 90
12, 19589, Note_on_c, 6, 66, 0
12, 19620, Note_on_c, 6, 64, 90
12, 19649, Note_on_c, 6, 64, 0
12, 19680, Note_on_c, 6, 61, 90
12, 19709, Note_on_c, 6, 61, 0
12, 19740, Note_on_c, 6, 59, 90
12, 19769, Note_on_c, 6, 59, 0
12, 19800, Note_on_c, 6, 59, 90
12, 19829, Note_on_c, 6, 59, 0
12, 19830, Note_on_c, 6, 58, 90
12, 19859, Note_on_c, 6, 58, 0
12, 19860, Note_on_c, 6, 59, 90
12, 19889, Note_on_c, 6, 59, 0
12, 19890, Note_on_c, 6, 61, 90
12, 19919, Note_on_c, 6, 61, 0
12, 19920, Note_on_c, 6, 62, 90
12, 19934, Note_on_c, 6, 62, 0
12, 19935, Note_on_c, 6, 61, 90
12, 19949, Note_on_c, 6, 61, 0
12, 19950, Note_on_c, 6, 59, 90
12, 19964, Note_on_c, 6, 59, 0
12, 19965, Note_on_c, 6, 61, 90
12, 19979, Note_on_c, 6, 61, 0
12, 19980, Note_on_c, 6, 62, 90
12, 20009, Note_on_c, 6, 62, 0
12, 20010, Note_on_c, 6, 61, 90
12, 20039, Note_on_c, 6, 61, 0
12, 20040, Note_on_c, 6, 62, 90
12, 20069, Note_on_c, 6, 62, 0
12, 20070, Note_on_c, 6, 64, 90
12, 20099, Note_on_c, 6, 64, 0
12, 20100, Note_on_c, 6, 66, 90
12, 20114, Note_on_c, 6, 66, 0
12, 20115, Note_on_c, 6, 64, 90
12, 20129, Note_on_c, 6, 64, 0
12, 20130, Note_on_c, 6, 62, 90
12, 20144, Note_on_c, 6, 62, 0
12, 20145, Note_on_c, 6, 64, 90
12, 20159, Note_on_c, 6, 64, 0
12, 20160, Note_on_c, 6, 66, 90
12, 20219, Note_on_c, 6, 66, 0
12, 20220, Note_on_c, 6, 66, 90
12, 20279, Note_on_c, 6, 66, 0
12, 20280, Note_on_c, 6, 64, 90
12, 20339, Note_on_c, 6, 64, 0
12, 20340, Note_on_c, 6, 64, 90
12, 20399, Note_on_c, 6, 64, 0
12, 20400, Note_on_c, 6, 59, 90
12, 20459, Note_on_c, 6, 59, 0
12, 20460, Note_on_c, 6, 64, 90
12, 20519, Note_on_c, 6, 64, 0
12, 20520, Note_on_c, 6, 57, 90
12, 20579, Note_on_c, 6, 57, 0
12, 20580, Note_on_c, 6, 57, 90
12, 20609, Note_on_c, 6, 57, 0
12, 20610, Note_on_c, 6, 59, 90
12, 20639, Note_on_c, 6, 59, 0
12, 20640, Note_on_c, 6, 61, 90
12, 20654, Note_on_c, 6, 61, 0
12, 20655, Note_on_c, 6, 59, 90
12, 20669, Note_on_c, 6, 59, 0
12, 20670, Note_on_c, 6, 57, 90
12, 20684, Note_on_c, 6, 57, 0
12, 20685, Note_on_c, 6, 59, 90
12, 20699, Note_on_c, 6, 59, 0
12, 20700, Note_on_c, 6, 61, 90
12, 20729, Note_on_c, 6, 61, 0
12, 20730, Note_on_c, 6, 62, 90
12, 20759, Note_on_c, 6, 62, 0
12, 20760, Note_on_c, 6, 64, 90
12, 20819, Note_on_c, 6, 64, 0
12, 20820, Note_on_c, 6, 57, 90
12, 20879, Note_on_c, 6, 57, 0
12, 20940, Note_on_c, 6, 55, 90
12, 20969, Note_on_c, 6, 55, 0
12, 20970, Note_on_c, 6, 57, 90
12, 20999, Note_on_c, 6, 57, 0
12, 21000, Note_on_c, 6, 59, 90
12, 21014, Note_on_c, 6, 59, 0
12, 21015, Note_on_c, 6, 57, 90
12, 21029, Note_on_c, 6, 57, 0
12, 21030, Note_on_c, 6, 55, 90
12, 21044, Note_on_c, 6, 55, 0
12, 21045, Note_on_c, 6, 57, 90
12, 21059, Note_on_c, 6, 57, 0
12, 21060, Note_on_c, 6, 59, 90
12, 21089, Note_on_c, 6, 59, 0
12, 21120, Note_on_c, 6, 59, 90
12, 21149, Note_on_c, 6, 59, 0
12, 21180, Note_on_c, 6, 55, 90
12, 21209, Note_on_c, 6, 55, 0
12, 21240, Note_on_c, 6, 57, 90
12, 21299, Note_on_c, 6, 57, 0
12, 21300, Note_on_c, 6, 57, 90
12, 21359, Note_on_c, 6, 57, 0
12, 21360, Note_on_c, 6, 56, 90
12, 21419, Note_on_c, 6, 56, 0
12, 21420, Note_on_c, 6, 61, 90
12, 21479, Note_on_c, 6, 61, 0
12, 21480, Note_on_c, 6, 64, 90
12, 21539, Note_on_c, 6, 64, 0
12, 21540, Note_on_c, 6, 69, 90
12, 21599, Note_on_c, 6, 69, 0
12, 21600, Note_on_c, 6, 69, 90
12, 21659, Note_on_c, 6, 69, 0
12, 21660, Note_on_c, 6, 63, 90
12, 21719, Note_on_c, 6, 63, 0
12, 21720, Note_on_c, 6, 64, 90
12, 21779, Note_on_c, 6, 64, 0
12, 21780, Note_on_c, 6, 69, 90
12, 21839, Note_on_c, 6, 69, 0
12, 21840, Note_on_c, 6, 63, 90
12, 21899, Note_on_c, 6, 63, 0
12, 21900, Note_on_c, 6, 63, 90
12, 21959, Note_on_c, 6, 63, 0
12, 21960, Note_on_c, 6, 71, 90
12, 22019, Note_on_c, 6, 71, 0
12, 22020, Note_on_c, 6, 71, 90
12, 22079, Note_on_c, 6, 71, 0
12, 22080, Note_on_c, 6, 71, 90
12, 22139, Note_on_c, 6, 71, 0
12, 22140, Note_on_c, 6, 71, 90
12, 22199, Note_on_c, 6, 71, 0
12, 22200, Note_on_c, 6, 64, 90
12, 22259, Note_on_c, 6, 64, 0
12, 22260, Note_on_c, 6, 64, 90
12, 22319, Note_on_c, 6, 64, 0
12, 22320, Note_on_c, 6, 64, 90
12, 22379, Note_on_c, 6, 64, 0
12, 22380, Note_on_c, 6, 57, 90
12, 22439, Note_on_c, 6, 57, 0
12, 22440, Note_on_c, 6, 59, 90
12, 22499, Note_on_c, 6, 59, 0
12, 22500, Note_on_c, 6, 61, 90
12, 22559, Note_on_c, 6, 61, 0
12, 22560, Note_on_c, 6, 73, 90
12, 22619, Note_on_c, 6, 73, 0
12, 22620, Note_on_c, 6, 71, 90
12, 22679, Note_on_c, 6, 71, 0
12, 22680, Note_on_c, 6, 69, 90
12, 22739, Note_on_c, 6, 69, 0
12, 22740, Note_on_c, 6, 69, 90
12, 22799, Note_on_c, 6, 69, 0
12, 22800, Note_on_c, 6, 69, 90
12, 22859, Note_on_c, 6, 69, 0
12, 22860, Note_on_c, 6, 69, 90
12, 22919, Note_on_c, 6, 69, 0
12, 22920, Note_on_c, 6, 69, 90
12, 22979, Note_on_c, 6, 69, 0
12, 22980, Note_on_c, 6, 69, 90
12, 23039, Note_on_c, 6, 69, 0
12, 23040, Note_on_c, 6, 62, 90
12, 23069, Note_on_c, 6, 62, 0
12, 23100, Note_on_c, 6, 71, 90
12, 23129, Note_on_c, 6, 71, 0
12, 23160, Note_on_c, 6, 74, 90
12, 23189, Note_on_c, 6, 74, 0
12, 23220, Note_on_c, 6, 71, 90
12, 23249, Note_on_c, 6, 71, 0
12, 23280, Note_on_c, 6, 68, 90
12, 23309, Note_on_c, 6, 68, 0
12, 23340, Note_on_c, 6, 71, 90
12, 23369, Note_on_c, 6, 71, 0
12, 23400, Note_on_c, 6, 64, 90
12, 23429, Note_on_c, 6, 64, 0
12, 23460, Note_on_c, 6, 69, 90
12, 23489, Note_on_c, 6, 69, 0
12, 23520, Note_on_c, 6, 72, 90
12, 23549, Note_on_c, 6, 72, 0
12, 23580, Note_on_c, 6, 69, 90
12, 23609, Note_on_c, 6, 69, 0
12, 23640, Note_on_c, 6, 66, 90
12, 23669, Note_on_c, 6, 66, 0
12, 23700, Note_on_c, 6, 69, 90
12, 23729, Note_on_c, 6, 69, 0
12, 23760, Note_on_c, 6, 71, 90
12, 23789, Note_on_c, 6, 71, 0
12, 23820, Note_on_c, 6, 64, 90
12, 23849, Note_on_c, 6, 64, 0
12, 23880, Note_on_c, 6, 57, 90
12, 23909, Note_on_c, 6, 57, 0
12, 23940, Note_on_c, 6, 64, 90
12, 23969, Note_on_c, 6, 64, 0
12, 24120, Note_on_c, 6, 57, 90
12, 24149, Note_on_c, 6, 57, 0
12, 24300, Note_on_c, 6, 57, 90
12, 24329, Note_on_c, 6, 57, 0
12, 24360, Note_on_c, 6, 62, 90
12, 24389, Note_on_c, 6, 62, 0
12, 24420, Note_on_c, 6, 64, 90
12, 24449, Note_on_c, 6, 64, 0
12, 24480, Note_on_c, 6, 66, 90
12, 24659, Note_on_c, 6, 66, 0
12, 24660, Note_on_c, 6, 71, 90
12, 24689, Note_on_c, 6, 71, 0
12, 24720, Note_on_c, 6, 67, 90
12, 24749, Note_on_c, 6, 67, 0
12, 24840, Note_on_c, 6, 64, 90
12, 24869, Note_on_c, 6, 64, 0
12, 24900, Note_on_c, 6, 69, 90
12, 24929, Note_on_c, 6, 69, 0
12, 25020, Note_on_c, 6, 62, 90
12, 25049, Note_on_c, 6, 62, 0
12, 25080, Note_on_c, 6, 67, 90
12, 25109, Note_on_c, 6, 67, 0
12, 25200, Note_on_c, 6, 61, 90
12, 25229, Note_on_c, 6, 61, 0
12, 25260, Note_on_c, 6, 66, 90
12, 25289, Note_on_c, 6, 66, 0
12, 25380, Note_on_c, 6, 66, 90
12, 25409, Note_on_c, 6, 66, 0
12, 25440, Note_on_c, 6, 71, 90
12, 25469, Note_on_c, 6, 71, 0
12, 25560, Note_on_c, 6, 69, 90
12, 25589, Note_on_c, 6, 69, 0
12, 25620, Note_on_c, 6, 62, 90
12, 25649, Note_on_c, 6, 62, 0
12, 25740, Note_on_c, 6, 56, 90
12, 25769, Note_on_c, 6, 56, 0
12, 25800, Note_on_c, 6, 57, 90
12, 25829, Note_on_c, 6, 57, 0
12, 25920, Note_on_c, 6, 58, 90
12, 25949, Note_on_c, 6, 58, 0
12, 25980, Note_on_c, 6, 59, 90
12, 26009, Note_on_c, 6, 59, 0
12, 26100, Note_on_c, 6, 64, 90
12, 26129, Note_on_c, 6, 64, 0
12, 26160, Note_on_c, 6, 61, 90
12, 26189, Note_on_c, 6, 61, 0
12, 26280, Note_on_c, 6, 59, 90
12, 26309, Note_on_c, 6, 59, 0
12, 26340, Note_on_c, 6, 64, 90
12, 26369, Note_on_c, 6, 64, 0
12, 26460, Note_on_c, 6, 61, 90
12, 26489, Note_on_c, 6, 61, 0
12, 26520, Note_on_c, 6, 57, 90
12, 26549, Note_on_c, 6, 57, 0
12, 26640, Note_on_c, 6, 59, 90
12, 26669, Note_on_c, 6, 59, 0
12, 26700, Note_on_c, 6, 71, 90
12, 26729, Note_on_c, 6, 71, 0
12, 26820, Note_on_c, 6, 69, 90
12, 26849, Note_on_c, 6, 69, 0
12, 26880, Note_on_c, 6, 62, 90
12, 26909, Note_on_c, 6, 62, 0
12, 27000, Note_on_c, 6, 71, 90
12, 27029, Note_on_c, 6, 71, 0
12, 27060, Note_on_c, 6, 67, 90
12, 27089, Note_on_c, 6, 67, 0
12, 27180, Note_on_c, 6, 69, 90
12, 27209, Note_on_c, 6, 69, 0
12, 27240, Note_on_c, 6, 57, 90
12, 27269, Note_on_c, 6, 57, 0
12, 27360, Note_on_c, 6, 64, 90
12, 27389, Note_on_c, 6, 64, 0
12, 27420, Note_on_c, 6, 64, 90
12, 27449, Note_on_c, 6, 64, 0
12, 27480, Note_on_c, 6, 61, 90
12, 27509, Note_on_c, 6, 61, 0
12, 27540, Note_on_c, 6, 66, 90
12, 27659, Note_on_c, 6, 66, 0
12, 27720, Note_on_c, 6, 64, 90
12, 27779, Note_on_c, 6, 64, 0
12, 27780, Note_on_c, 6, 62, 90
12, 27809, Note_on_c, 6, 62, 0
12, 27810, Note_on_c, 6, 61, 90
12, 27839, Note_on_c, 6, 61, 0
12, 27840, Note_on_c, 6, 59, 90
12, 27869, Note_on_c, 6, 59, 0
12, 27870, Note_on_c, 6, 57, 90
12, 27899, Note_on_c, 6, 57, 0
12, 27900, Note_on_c, 6, 62, 90
12, 27929, Note_on_c, 6, 62, 0
12, 27930, Note_on_c, 6, 61, 90
12, 27959, Note_on_c, 6, 61, 0
12, 27960, Note_on_c, 6, 62, 90
12, 28019, Note_on_c, 6, 62, 0
12, 28020, Note_on_c, 6, 62, 90
12, 28109, Note_on_c, 6, 62, 0
12, 28110, Note_on_c, 6, 61, 90
12, 28139, Note_on_c, 6, 61, 0
12, 28140, Note_on_c, 6, 59, 90
12, 28169, Note_on_c, 6, 59, 0
12, 28170, Note_on_c, 6, 57, 90
12, 28199, Note_on_c, 6, 57, 0
12, 28200, Note_on_c, 6, 59, 90
12, 28229, Note_on_c, 6, 59, 0
12, 28230, Note_on_c, 6, 61, 90
12, 28259, Note_on_c, 6, 61, 0
12, 28260, Note_on_c, 6, 62, 90
12, 28499, Note_on_c, 6, 62, 0
12, 28500, Note_on_c, 6, 64, 90
12, 28559, Note_on_c, 6, 64, 0
12, 28560, Note_on_c, 6, 67, 90
12, 28619, Note_on_c, 6, 67, 0
12, 28620, Note_on_c, 6, 66, 90
12, 28649, Note_on_c, 6, 66, 0
12, 28650, Note_on_c, 6, 67, 90
12, 28679, Note_on_c, 6, 67, 0
12, 28680, Note_on_c, 6, 66, 90
12, 28709, Note_on_c, 6, 66, 0
12, 28710, Note_on_c, 6, 64, 90
12, 28739, Note_on_c, 6, 64, 0
12, 28740, Note_on_c, 6, 62, 90
12, 28769, Note_on_c, 6, 62, 0
12, 28770, Note_on_c, 6, 66, 90
12, 28799, Note_on_c, 6, 66, 0
12, 28800, Note_on_c, 6, 64, 90
12, 28829, Note_on_c, 6, 64, 0
12, 28830, Note_on_c, 6, 66, 90
12, 28859, Note_on_c, 6, 66, 0
12, 28860, Note_on_c, 6, 64, 90
12, 28889, Note_on_c, 6, 64, 0
12, 28890, Note_on_c, 6, 62, 90
12, 28919, Note_on_c, 6, 62, 0
12, 28920, Note_on_c, 6, 61, 90
12, 29039, Note_on_c, 6, 61, 0
12, 29040, Note_on_c, 6, 59, 90
12, 29069, Note_on_c, 6, 59, 0
12, 29070, Note_on_c, 6, 58, 90
12, 29099, Note_on_c, 6, 58, 0
12, 29100, Note_on_c, 6, 59, 90
12, 29159, Note_on_c, 6, 59, 0
12, 29160, Note_on_c, 6, 64, 90
12, 29189, Note_on_c, 6, 64, 0
12, 29190, Note_on_c, 6, 62, 90
12, 29219, Note_on_c, 6, 62, 0
12, 29220, Note_on_c, 6, 61, 90
12, 29249, Note_on_c, 6, 61, 0
12, 29250, Note_on_c, 6, 59, 90
12, 29279, Note_on_c, 6, 59, 0
12, 29280, Note_on_c, 6, 61, 90
12, 29309, Note_on_c, 6, 61, 0
12, 29310, Note_on_c, 6, 58, 90
12, 29339, Note_on_c, 6, 58, 0
12, 29340, Note_on_c, 6, 59, 90
12, 29399, Note_on_c, 6, 59, 0
12, 29400, Note_on_c, 6, 67, 90
12, 29429, Note_on_c, 6, 67, 0
12, 29430, Note_on_c, 6, 66, 90
12, 29459, Note_on_c, 6, 66, 0
12, 29460, Note_on_c, 6, 64, 90
12, 29489, Note_on_c, 6, 64, 0
12, 29490, Note_on_c, 6, 62, 90
12, 29519, Note_on_c, 6, 62, 0
12, 29520, Note_on_c, 6, 61, 90
12, 29579, Note_on_c, 6, 61, 0
12, 29580, Note_on_c, 6, 62, 90
12, 29609, Note_on_c, 6, 62, 0
12, 29610, Note_on_c, 6, 61, 90
12, 29639, Note_on_c, 6, 61, 0
12, 29640, Note_on_c, 6, 59, 90
12, 29669, Note_on_c, 6, 59, 0
12, 29670, Note_on_c, 6, 58, 90
12, 29699, Note_on_c, 6, 58, 0
12, 29700, Note_on_c, 6, 59, 90
12, 29759, Note_on_c, 6, 59, 0
12, 29760, Note_on_c, 6, 66, 90
12, 29789, Note_on_c, 6, 66, 0
12, 29790, Note_on_c, 6, 67, 90
12, 29819, Note_on_c, 6, 67, 0
12, 29820, Note_on_c, 6, 66, 90
12, 29849, Note_on_c, 6, 66, 0
12, 29850, Note_on_c, 6, 64, 90
12, 29879, Note_on_c, 6, 64, 0
12, 29880, Note_on_c, 6, 62, 90
12, 29909, Note_on_c, 6, 62, 0
12, 29910, Note_on_c, 6, 64, 90
12, 29939, Note_on_c, 6, 64, 0
12, 29940, Note_on_c, 6, 61, 90
12, 29969, Note_on_c, 6, 61, 0
12, 29970, Note_on_c, 6, 64, 90
12, 29999, Note_on_c, 6, 64, 0
12, 30000, Note_on_c, 6, 62, 90
12, 30029, Note_on_c, 6, 62, 0
12, 30030, Note_on_c, 6, 61, 90
12, 30059, Note_on_c, 6, 61, 0
12, 30060, Note_on_c, 6, 59, 90
12, 30119, Note_on_c, 6, 59, 0
12, 30120, Note_on_c, 6, 61, 90
12, 30179, Note_on_c, 6, 61, 0
12, 30180, Note_on_c, 6, 59, 90
12, 30239, Note_on_c, 6, 59, 0
12, 30240, Note_on_c, 6, 62, 90
12, 30299, Note_on_c, 6, 62, 0
12, 30300, Note_on_c, 6, 64, 90
12, 30359, Note_on_c, 6, 64, 0
12, 30360, Note_on_c, 6, 61, 90
12, 30419, Note_on_c, 6, 61, 0
12, 30420, Note_on_c, 6, 62, 90
12, 30479, Note_on_c, 6, 62, 0
12, 30480, Note_on_c, 6, 59, 90
12, 30539, Note_on_c, 6, 59, 0
12, 31080, Note_on_c, 6, 71, 90
12, 31109, Note_on_c, 6, 71, 0
12, 31140, Note_on_c, 6, 71, 90
12, 31169, Note_on_c, 6, 71, 0
12, 31200, Note_on_c, 6, 71, 90
12, 31229, Note_on_c, 6, 71, 0
12, 31260, Note_on_c, 6, 71, 90
12, 31289, Note_on_c, 6, 71, 0
12, 31320, Note_on_c, 6, 71, 90
12, 31349, Note_on_c, 6, 71, 0
12, 31350, Note_on_c, 6, 72, 90
12, 31379, Note_on_c, 6, 72, 0
12, 31380, Note_on_c, 6, 71, 90
12, 31409, Note_on_c, 6, 71, 0
12, 31410, Note_on_c, 6, 69, 90
12, 31439, Note_on_c, 6, 69, 0
12, 31440, Note_on_c, 6, 71, 90
12, 31469, Note_on_c, 6, 71, 0
12, 31470, Note_on_c, 6, 67, 90
12, 31499, Note_on_c, 6, 67, 0
12, 31500, Note_on_c, 6, 64, 90
12, 31559, Note_on_c, 6, 64, 0
12, 31560, Note_on_c, 6, 62, 90
12, 31619, Note_on_c, 6, 62, 0
12, 31620, Note_on_c, 6, 62, 90
12, 31679, Note_on_c, 6, 62, 0
12, 31680, Note_on_c, 6, 62, 90
12, 31709, Note_on_c, 6, 62, 0
12, 31740, Note_on_c, 6, 67, 90
12, 31769, Note_on_c, 6, 67, 0
12, 32460, Note_on_c, 6, 62, 90
12, 32519, Note_on_c, 6, 62, 0
12, 32520, Note_on_c, 6, 69, 90
12, 32579, Note_on_c, 6, 69, 0
12, 32580, Note_on_c, 6, 71, 90
12, 32639, Note_on_c, 6, 71, 0
12, 32640, Note_on_c, 6, 69, 90
12, 32699, Note_on_c, 6, 69, 0
12, 32700, Note_on_c, 6, 73, 90
12, 32759, Note_on_c, 6, 73, 0
12, 32760, Note_on_c, 6, 71, 90
12, 32819, Note_on_c, 6, 71, 0
12, 32820, Note_on_c, 6, 64, 90
12, 32879, Note_on_c, 6, 64, 0
12, 32880, Note_on_c, 6, 71, 90
12, 32939, Note_on_c, 6, 71, 0
12, 32940, Note_on_c, 6, 73, 90
12, 32999, Note_on_c, 6, 73, 0
12, 33000, Note_on_c, 6, 71, 90
12, 33059, Note_on_c, 6, 71, 0
12, 33060, Note_on_c, 6, 59, 90
12, 33119, Note_on_c, 6, 59, 0
12, 33120, Note_on_c, 6, 61, 90
12, 33179, Note_on_c, 6, 61, 0
12, 33180, Note_on_c, 6, 66, 90
12, 33239, Note_on_c, 6, 66, 0
12, 33240, Note_on_c, 6, 66, 90
12, 33299, Note_on_c, 6, 66, 0
12, 33300, Note_on_c, 6, 66, 90
12, 33359, Note_on_c, 6, 66, 0
12, 33360, Note_on_c, 6, 62, 90
12, 33419, Note_on_c, 6, 62, 0
12, 33420, Note_on_c, 6, 66, 90
12, 33479, Note_on_c, 6, 66, 0
12, 33480, Note_on_c, 6, 64, 90
12, 33539, Note_on_c, 6, 64, 0
12, 33540, Note_on_c, 6, 56, 90
12, 33569, Note_on_c, 6, 56, 0
12, 33570, Note_on_c, 6, 54, 90
12, 33599, Note_on_c, 6, 54, 0
12, 33600, Note_on_c, 6, 56, 90
12, 33719, Note_on_c, 6, 56, 0
12, 33720, Note_on_c, 6, 52, 90
12, 33779, Note_on_c, 6, 52, 0
12, 33780, Note_on_c, 6, 59, 90
12, 33839, Note_on_c, 6, 59, 0
12, 33840, Note_on_c, 6, 64, 90
12, 33899, Note_on_c, 6, 64, 0
12, 33900, Note_on_c, 6, 69, 90
12, 33959, Note_on_c, 6, 69, 0
12, 33960, Note_on_c, 6, 69, 90
12, 34019, Note_on_c, 6, 69, 0
12, 34020, Note_on_c, 6, 67, 90
12, 34109, Note_on_c, 6, 67, 0
12, 34110, Note_on_c, 6, 69, 90
12, 34139, Note_on_c, 6, 69, 0
12, 34140, Note_on_c, 6, 71, 90
12, 34169, Note_on_c, 6, 71, 0
12, 34170, Note_on_c, 6, 67, 90
12, 34199, Note_on_c, 6, 67, 0
12, 34200, Note_on_c, 6, 64, 90
12, 34259, Note_on_c, 6, 64, 0
12, 34260, Note_on_c, 6, 64, 90
12, 34319, Note_on_c, 6, 64, 0
12, 34320, Note_on_c, 6, 64, 90
12, 34379, Note_on_c, 6, 64, 0
12, 34380, Note_on_c, 6, 66, 90
12, 34439, Note_on_c, 6, 66, 0
12, 34440, Note_on_c, 6, 57, 90
12, 34499, Note_on_c, 6, 57, 0
12, 34500, Note_on_c, 6, 64, 90
12, 34559, Note_on_c, 6, 64, 0
12, 34560, Note_on_c, 6, 69, 90
12, 34574, Note_on_c, 6, 69, 0
12, 34590, Note_on_c, 6, 74, 90
12, 34604, Note_on_c, 6, 74, 0
12, 34620, Note_on_c, 6, 74, 90
12, 34634, Note_on_c, 6, 74, 0
12, 34650, Note_on_c, 6, 69, 90
12, 34664, Note_on_c, 6, 69, 0
12, 34680, Note_on_c, 6, 69, 90
12, 34694, Note_on_c, 6, 69, 0
12, 34710, Note_on_c, 6, 66, 90
12, 34724, Note_on_c, 6, 66, 0
12, 34740, Note_on_c, 6, 66, 90
12, 34754, Note_on_c, 6, 66, 0
12, 34755, Note_on_c, 6, 69, 90
12, 34769, Note_on_c, 6, 69, 0
12, 34770, Note_on_c, 6, 71, 90
12, 34784, Note_on_c, 6, 71, 0
12, 34785, Note_on_c, 6, 73, 90
12, 34799, Note_on_c, 6, 73, 0
12, 34800, Note_on_c, 6, 74, 90
12, 34814, Note_on_c, 6, 74, 0
12, 34815, Note_on_c, 6, 76, 90
12, 34829, Note_on_c, 6, 76, 0
12, 34830, Note_on_c, 6, 74, 90
12, 34844, Note_on_c, 6, 74, 0
12, 34845, Note_on_c, 6, 73, 90
12, 34859, Note_on_c, 6, 73, 0
12, 34860, Note_on_c, 6, 71, 90
12, 34874, Note_on_c, 6, 71, 0
12, 34875, Note_on_c, 6, 69, 90
12, 34889, Note_on_c, 6, 69, 0
12, 34890, Note_on_c, 6, 68, 90
12, 34904, Note_on_c, 6, 68, 0
12, 34905, Note_on_c, 6, 66, 90
12, 34919, Note_on_c, 6, 66, 0
12, 34920, Note_on_c, 6, 64, 90
12, 34934, Note_on_c, 6, 64, 0
12, 34950, Note_on_c, 6, 73, 90
12, 34964, Note_on_c, 6, 73, 0
12, 34980, Note_on_c, 6, 73, 90
12, 34994, Note_on_c, 6, 73, 0
12, 35010, Note_on_c, 6, 67, 90
12, 35024, Note_on_c, 6, 67, 0
12, 35040, Note_on_c, 6, 67, 90
12, 35054, Note_on_c, 6, 67, 0
12, 35070, Note_on_c, 6, 64, 90
12, 35084, Note_on_c, 6, 64, 0
12, 35100, Note_on_c, 6, 64, 90
12, 35114, Note_on_c, 6, 64, 0
12, 35115, Note_on_c, 6, 68, 90
12, 35129, Note_on_c, 6, 68, 0
12, 35130, Note_on_c, 6, 70, 90
12, 35144, Note_on_c, 6, 70, 0
12, 35145, Note_on_c, 6, 71, 90
12, 35159, Note_on_c, 6, 71, 0
12, 35160, Note_on_c, 6, 73, 90
12, 35174, Note_on_c, 6, 73, 0
12, 35175, Note_on_c, 6, 74, 90
12, 35189, Note_on_c, 6, 74, 0
12, 35190, Note_on_c, 6, 73, 90
12, 35204, Note_on_c, 6, 73, 0
12, 35205, Note_on_c, 6, 71, 90
12, 35219, Note_on_c, 6, 71, 0
12, 35220, Note_on_c, 6, 70, 90
12, 35234, Note_on_c, 6, 70, 0
12, 35235, Note_on_c, 6, 68, 90
12, 35249, Note_on_c, 6, 68, 0
12, 35250, Note_on_c, 6, 66, 90
12, 35264, Note_on_c, 6, 66, 0
12, 35265, Note_on_c, 6, 64, 90
12, 35279, Note_on_c, 6, 64, 0
12, 35280, Note_on_c, 6, 62, 90
12, 35339, Note_on_c, 6, 62, 0
12, 35340, Note_on_c, 6, 56, 90
12, 35399, Note_on_c, 6, 56, 0
12, 35400, Note_on_c, 6, 61, 90
12, 35459, Note_on_c, 6, 61, 0
12, 35460, Note_on_c, 6, 65, 90
12, 35519, Note_on_c, 6, 65, 0
12, 35520, Note_on_c, 6, 66, 90
12, 35579, Note_on_c, 6, 66, 0
12, 35580, Note_on_c, 6, 62, 90
12, 35639, Note_on_c, 6, 62, 0
12, 35640, Note_on_c, 6, 61, 90
12, 35699, Note_on_c, 6, 61, 0
12, 35700, Note_on_c, 6, 59, 90
12, 35759, Note_on_c, 6, 59, 0
12, 35760, Note_on_c, 6, 61, 90
12, 35879, Note_on_c, 6, 61, 0
12, 35880, Note_on_c, 6, 61, 90
12, 35939, Note_on_c, 6, 61, 0
12, 35940, Note_on_c, 6, 61, 90
12, 35999, Note_on_c, 6, 61, 0
12, 36000, Note_on_c, 6, 61, 90
12, 36179, Note_on_c, 6, 61, 0
12, 37395, Note_on_c, 6, 62, 90
12, 37409, Note_on_c, 6, 62, 0
12, 37410, Note_on_c, 6, 61, 90
12, 37424, Note_on_c, 6, 61, 0
12, 37425, Note_on_c, 6, 59, 90
12, 37439, Note_on_c, 6, 59, 0
12, 37440, Note_on_c, 6, 57, 90
12, 37454, Note_on_c, 6, 57, 0
12, 37455, Note_on_c, 6, 62, 90
12, 37469, Note_on_c, 6, 62, 0
12, 37470, Note_on_c, 6, 61, 90
12, 37484, Note_on_c, 6, 61, 0
12, 37485, Note_on_c, 6, 59, 90
12, 37499, Note_on_c, 6, 59, 0
12, 37500, Note_on_c, 6, 57, 90
12, 37514, Note_on_c, 6, 57, 0
12, 37515, Note_on_c, 6, 55, 90
12, 37529, Note_on_c, 6, 55, 0
12, 37530, Note_on_c, 6, 54, 90
12, 37544, Note_on_c, 6, 54, 0
12, 37545, Note_on_c, 6, 52, 90
12, 37559, Note_on_c, 6, 52, 0
12, 37560, Note_on_c, 6, 54, 90
12, 37574, Note_on_c, 6, 54, 0
12, 37575, Note_on_c, 6, 59, 90
12, 37589, Note_on_c, 6, 59, 0
12, 37590, Note_on_c, 6, 57, 90
12, 37604, Note_on_c, 6, 57, 0
12, 37605, Note_on_c, 6, 55, 90
12, 37619, Note_on_c, 6, 55, 0
12, 37620, Note_on_c, 6, 54, 90
12, 37634, Note_on_c, 6, 54, 0
12, 37635, Note_on_c, 6, 59, 90
12, 37649, Note_on_c, 6, 59, 0
12, 37650, Note_on_c, 6, 57, 90
12, 37664, Note_on_c, 6, 57, 0
12, 37665, Note_on_c, 6, 55, 90
12, 37679, Note_on_c, 6, 55, 0
12, 37680, Note_on_c, 6, 54, 90
12, 37694, Note_on_c, 6, 54, 0
12, 37695, Note_on_c, 6, 59, 90
12, 37709, Note_on_c, 6, 59, 0
12, 37710, Note_on_c, 6, 57, 90
12, 37724, Note_on_c, 6, 57, 0
12, 37725, Note_on_c, 6, 55, 90
12, 37739, Note_on_c, 6, 55, 0
12, 37740, Note_on_c, 6, 57, 90
12, 37757, Note_on_c, 6, 57, 0
12, 37770, Note_on_c, 6, 57, 90
12, 37787, Note_on_c, 6, 57, 0
12, 37800, Note_on_c, 6, 57, 90
12, 37817, Note_on_c, 6, 57, 0
12, 37830, Note_on_c, 6, 57, 90
12, 37847, Note_on_c, 6, 57, 0
12, 37860, Note_on_c, 6, 57, 90
12, 37877, Note_on_c, 6, 57, 0
12, 37890, Note_on_c, 6, 57, 90
12, 37907, Note_on_c, 6, 57, 0
12, 37920, Note_on_c, 6, 57, 90
12, 37937, Note_on_c, 6, 57, 0
12, 37950, Note_on_c, 6, 57, 90
12, 37967, Note_on_c, 6, 57, 0
12, 37980, Note_on_c, 6, 57, 90
12, 37997, Note_on_c, 6, 57, 0
12, 38010, Note_on_c, 6, 57, 90
12, 38027, Note_on_c, 6, 57, 0
12, 38040, Note_on_c, 6, 57, 90
12, 38057, Note_on_c, 6, 57, 0
12, 38070, Note_on_c, 6, 57, 90
12, 38087, Note_on_c, 6, 57, 0
12, 38100, Note_on_c, 6, 57, 90
12, 38117, Note_on_c, 6, 57, 0
12, 38130, Note_on_c, 6, 57, 90
12, 38147, Note_on_c, 6, 57, 0
12, 38160, Note_on_c, 6, 57, 90
12, 38177, Note_on_c, 6, 57, 0
12, 38190, Note_on_c, 6, 57, 90
12, 38207, Note_on_c, 6, 57, 0
12, 38220, Note_on_c, 6, 57, 90
12, 38237, Note_on_c, 6, 57, 0
12, 38250, Note_on_c, 6, 57, 90
12, 38267, Note_on_c, 6, 57, 0
12, 38280, Note_on_c, 6, 57, 90
12, 38297, Note_on_c, 6, 57, 0
12, 38310, Note_on_c, 6, 57, 90
12, 38327, Note_on_c, 6, 57, 0
12, 38340, Note_on_c, 6, 57, 90
12, 38357, Note_on_c, 6, 57, 0
12, 38370, Note_on_c, 6, 57, 90
12, 38387, Note_on_c, 6, 57, 0
12, 38400, Note_on_c, 6, 69, 90
12, 38429, Note_on_c, 6, 69, 0
12, 38430, Note_on_c, 6, 67, 90
12, 38459, Note_on_c, 6, 67, 0
12, 38460, Note_on_c, 6, 66, 90
12, 38489, Note_on_c, 6, 66, 0
12, 38520, Note_on_c, 6, 69, 90
12, 38549, Note_on_c, 6, 69, 0
12, 38580, Note_on_c, 6, 62, 90
12, 38609, Note_on_c, 6, 62, 0
12, 38640, Note_on_c, 6, 62, 90
12, 38699, Note_on_c, 6, 62, 0
12, 38700, Note_on_c, 6, 62, 90
12, 38759, Note_on_c, 6, 62, 0
12, 38760, Note_on_c, 6, 61, 90
12, 38819, Note_on_c, 6, 61, 0
12, 38820, Note_on_c, 6, 62, 90
12, 38879, Note_on_c, 6, 62, 0
12, 38880, Note_on_c, 6, 64, 90
12, 38939, Note_on_c, 6, 64, 0
12, 38940, Note_on_c, 6, 71, 90
12, 38999, Note_on_c, 6, 71, 0
12, 39000, Note_on_c, 6, 64, 90
12, 39119, Note_on_c, 6, 64, 0
12, 39120, Note_on_c, 6, 69, 90
12, 39179, Note_on_c, 6, 69, 0
12, 39180, Note_on_c, 6, 69, 90
12, 39239, Note_on_c, 6, 69, 0
12, 39240, Note_on_c, 6, 63, 90
12, 39299, Note_on_c, 6, 63, 0
12, 39300, Note_on_c, 6, 64, 90
12, 39359, Note_on_c, 6, 64, 0
12, 39360, Note_on_c, 6, 69, 90
12, 39419, Note_on_c, 6, 69, 0
12, 39420, Note_on_c, 6, 63, 90
12, 39479, Note_on_c, 6, 63, 0
12, 39480, Note_on_c, 6, 63, 90
12, 39539, Note_on_c, 6, 63, 0
12, 39540, Note_on_c, 6, 71, 90
12, 39599, Note_on_c, 6, 71, 0
12, 39600, Note_on_c, 6, 71, 90
12, 39659, Note_on_c, 6, 71, 0
12, 39660, Note_on_c, 6, 71, 90
12, 39719, Note_on_c, 6, 71, 0
12, 39720, Note_on_c, 6, 71, 90
12, 39779, Note_on_c, 6, 71, 0
12, 39780, Note_on_c, 6, 64, 90
12, 39839, Note_on_c, 6, 64, 0
12, 39840, Note_on_c, 6, 64, 90
12, 39899, Note_on_c, 6, 64, 0
12, 39900, Note_on_c, 6, 64, 90
12, 39959, Note_on_c, 6, 64, 0
12, 39960, Note_on_c, 6, 57, 90
12, 40019, Note_on_c, 6, 57, 0
12, 40020, Note_on_c, 6, 59, 90
12, 40079, Note_on_c, 6, 59, 0
12, 40080, Note_on_c, 6, 61, 90
12, 40139, Note_on_c, 6, 61, 0
12, 40140, Note_on_c, 6, 73, 90
12, 40199, Note_on_c, 6, 73, 0
12, 40200, Note_on_c, 6, 71, 90
12, 40259, Note_on_c, 6, 71, 0
12, 40260, Note_on_c, 6, 69, 90
12, 40319, Note_on_c, 6, 69, 0
12, 40320, Note_on_c, 6, 69, 90
12, 40379, Note_on_c, 6, 69, 0
12, 40380, Note_on_c, 6, 69, 90
12, 40439, Note_on_c, 6, 69, 0
12, 40440, Note_on_c, 6, 69, 90
12, 40499, Note_on_c, 6, 69, 0
12, 40500, Note_on_c, 6, 69, 90
12, 40559, Note_on_c, 6, 69, 0
12, 40560, Note_on_c, 6, 69, 90
12, 40619, Note_on_c, 6, 69, 0
12, 40620, Note_on_c, 6, 62, 90
12, 40649, Note_on_c, 6, 62, 0
12, 40680, Note_on_c, 6, 71, 90
12, 40709, Note_on_c, 6, 71, 0
12, 40740, Note_on_c, 6, 74, 90
12, 40769, Note_on_c, 6, 74, 0
12, 40800, Note_on_c, 6, 71, 90
12, 40829, Note_on_c, 6, 71, 0
12, 40860, Note_on_c, 6, 68, 90
12, 40889, Note_on_c, 6, 68, 0
12, 40920, Note_on_c, 6, 71, 90
12, 40949, Note_on_c, 6, 71, 0
12, 40980, Note_on_c, 6, 64, 90
12, 41009, Note_on_c, 6, 64, 0
12, 41040, Note_on_c, 6, 69, 90
12, 41069, Note_on_c, 6, 69, 0
12, 41100, Note_on_c, 6, 72, 90
12, 41129, Note_on_c, 6, 72, 0
12, 41160, Note_on_c, 6, 69, 90
12, 41189, Note_on_c, 6, 69, 0
12, 41220, Note_on_c, 6, 66, 90
12, 41249, Note_on_c, 6, 66, 0
12, 41280, Note_on_c, 6, 69, 90
12, 41309, Note_on_c, 6, 69, 0
12, 41340, Note_on_c, 6, 71, 90
12, 41369, Note_on_c, 6, 71, 0
12, 41400, Note_on_c, 6, 64, 90
12, 41429, Note_on_c, 6, 64, 0
12, 41460, Note_on_c, 6, 57, 90
12, 41489, Note_on_c, 6, 57, 0
12, 41520, Note_on_c, 6, 64, 90
12, 41549, Note_on_c, 6, 64, 0
12, 41700, Note_on_c, 6, 57, 90
12, 41729, Note_on_c, 6, 57, 0
12, 41880, Note_on_c, 6, 57, 90
12, 41909, Note_on_c, 6, 57, 0
12, 41940, Note_on_c, 6, 62, 90
12, 41969, Note_on_c, 6, 62, 0
12, 42000, Note_on_c, 6, 64, 90
12, 42029, Note_on_c, 6, 64, 0
12, 42060, Note_on_c, 6, 66, 90
12, 42089, Note_on_c, 6, 66, 0
12, 42240, Note_on_c, 6, 57, 90
12, 42300, Note_on_c, 6, 57, 0
12, 42420, Note_on_c, 6, 62, 90
12, 42480, Note_on_c, 6, 62, 0
12, 42600, Note_on_c, 6, 66, 90
12, 42660, Note_on_c, 6, 66, 0
12, 42780, Note_on_c, 6, 62, 90
12, 42839, Note_on_c, 6, 62, 0
12, 42960, Note_on_c, 6, 62, 90
12, 43019, Note_on_c, 6, 62, 0
12, 43140, Note_on_c, 6, 62, 90
12, 43199, Note_on_c, 6, 62, 0
12, 43320, Note_on_c, 6, 57, 90
12, 43379, Note_on_c, 6, 57, 0
12, 43515, Note_on_c, 6, 62, 90
12, 43529, Note_on_c, 6, 62, 0
12, 43530, Note_on_c, 6, 61, 90
12, 43544, Note_on_c, 6, 61, 0
12, 43545, Note_on_c, 6, 59, 90
12, 43559, Note_on_c, 6, 59, 0
12, 43560, Note_on_c, 6, 57, 90
12, 43574, Note_on_c, 6, 57, 0
12, 43575, Note_on_c, 6, 62, 90
12, 43589, Note_on_c, 6, 62, 0
12, 43590, Note_on_c, 6, 61, 90
12, 43604, Note_on_c, 6, 61, 0
12, 43605, Note_on_c, 6, 59, 90
12, 43619, Note_on_c, 6, 59, 0
12, 43620, Note_on_c, 6, 57, 90
12, 43634, Note_on_c, 6, 57, 0
12, 43635, Note_on_c, 6, 55, 90
12, 43649, Note_on_c, 6, 55, 0
12, 43650, Note_on_c, 6, 54, 90
12, 43664, Note_on_c, 6, 54, 0
12, 43665, Note_on_c, 6, 52, 90
12, 43679, Note_on_c, 6, 52, 0
12, 43680, Note_on_c, 6, 54, 90
12, 43694, Note_on_c, 6, 54, 0
12, 43695, Note_on_c, 6, 59, 90
12, 43709, Note_on_c, 6, 59, 0
12, 43710, Note_on_c, 6, 57, 90
12, 43724, Note_on_c, 6, 57, 0
12, 43725, Note_on_c, 6, 55, 90
12, 43739, Note_on_c, 6, 55, 0
12, 43740, Note_on_c, 6, 54, 90
12, 43754, Note_on_c, 6, 54, 0
12, 43755, Note_on_c, 6, 59, 90
12, 43769, Note_on_c, 6, 59, 0
12, 43770, Note_on_c, 6, 57, 90
12, 43784, Note_on_c, 6, 57, 0
12, 43785, Note_on_c, 6, 55, 90
12, 43799, Note_on_c, 6, 55, 0
12, 43800, Note_on_c, 6, 54, 90
12, 43814, Note_on_c, 6, 54, 0
12, 43815, Note_on_c, 6, 59, 90
12, 43829, Note_on_c, 6, 59, 0
12, 43830, Note_on_c, 6, 57, 90
12, 43844, Note_on_c, 6, 57, 0
12, 43845, Note_on_c, 6, 55, 90
12, 43859, Note_on_c, 6, 55, 0
12, 43860, Note_on_c, 6, 57, 90
12, 43877, Note_on_c, 6, 57, 0
12, 43890, Note_on_c, 6, 57, 90
12, 43907, Note_on_c, 6, 57, 0
12, 43920, Note_on_c, 6, 57, 90
12, 43937, Note_on_c, 6, 57, 0
12, 43950, Note_on_c, 6, 57, 90
12, 43967, Note_on_c, 6, 57, 0
12, 43980, Note_on_c, 6, 57, 90
12, 43997, Note_on_c, 6, 57, 0
12, 44010, Note_on_c, 6, 57, 90
12, 44027, Note_on_c, 6, 57, 0
12, 44040, Note_on_c, 6, 57, 90
12, 44057, Note_on_c, 6, 57, 0
12, 44070, Note_on_c, 6, 57, 90
12, 44087, Note_on_c, 6, 57, 0
12, 44100, Note_on_c, 6, 57, 90
12, 44117, Note_on_c, 6, 57, 0
12, 44130, Note_on_c, 6, 57, 90
12, 44147, Note_on_c, 6, 57, 0
12, 44160, Note_on_c, 6, 57, 90
12, 44177, Note_on_c, 6, 57, 0
12, 44190, Note_on_c, 6, 57, 90
12, 44207, Note_on_c, 6, 57, 0
12, 44220, Note_on_c, 6, 57, 90
12, 44237, Note_on_c, 6, 57, 0
12, 44250, Note_on_c, 6, 57, 90
12, 44267, Note_on_c, 6, 57, 0
12, 44280, Note_on_c, 6, 57, 90
12, 44297, Note_on_c, 6, 57, 0
12, 44310, Note_on_c, 6, 57, 90
12, 44327, Note_on_c, 6, 57, 0
12, 44340, Note_on_c, 6, 57, 90
12, 44357, Note_on_c, 6, 57, 0
12, 44370, Note_on_c, 6, 57, 90
12, 44387, Note_on_c, 6, 57, 0
12, 44400, Note_on_c, 6, 57, 90
12, 44417, Note_on_c, 6, 57, 0
12, 44430, Note_on_c, 6, 57, 90
12, 44447, Note_on_c, 6, 57, 0
12, 44460, Note_on_c, 6, 57, 90
12, 44477, Note_on_c, 6, 57, 0
12, 44490, Note_on_c, 6, 57, 90
12, 44507, Note_on_c, 6, 57, 0
12, 44520, Note_on_c, 6, 69, 90
12, 44549, Note_on_c, 6, 69, 0
12, 44550, Note_on_c, 6, 67, 90
12, 44579, Note_on_c, 6, 67, 0
12, 44580, Note_on_c, 6, 66, 90
12, 44609, Note_on_c, 6, 66, 0
12, 44640, Note_on_c, 6, 69, 90
12, 44669, Note_on_c, 6, 69, 0
12, 44700, Note_on_c, 6, 62, 90
12, 44729, Note_on_c, 6, 62, 0
12, 44760, Note_on_c, 6, 62, 90
12, 44819, Note_on_c, 6, 62, 0
12, 44820, Note_on_c, 6, 62, 90
12, 44879, Note_on_c, 6, 62, 0
12, 44880, Note_on_c, 6, 61, 90
12, 44939, Note_on_c, 6, 61, 0
12, 44940, Note_on_c, 6, 62, 90
12, 44999, Note_on_c, 6, 62, 0
12, 45000, Note_on_c, 6, 64, 90
12, 45059, Note_on_c, 6, 64, 0
12, 45060, Note_on_c, 6, 71, 90
12, 45119, Note_on_c, 6, 71, 0
12, 45120, Note_on_c, 6, 64, 90
12, 45179, Note_on_c, 6, 64, 0
12, 45180, Note_on_c, 6, 57, 90
12, 45209, Note_on_c, 6, 57, 0
12, 45210, Note_on_c, 6, 59, 90
12, 45239, Note_on_c, 6, 59, 0
12, 45240, Note_on_c, 6, 61, 90
12, 45254, Note_on_c, 6, 61, 0
12, 45255, Note_on_c, 6, 59, 90
12, 45269, Note_on_c, 6, 59, 0
12, 45270, Note_on_c, 6, 57, 90
12, 45284, Note_on_c, 6, 57, 0
12, 45285, Note_on_c, 6, 59, 90
12, 45299, Note_on_c, 6, 59, 0
12, 45300, Note_on_c, 6, 61, 90
12, 45329, Note_on_c, 6, 61, 0
12, 45360, Note_on_c, 6, 61, 90
12, 45389, Note_on_c, 6, 61, 0
12, 45420, Note_on_c, 6, 63, 90
12, 45449, Note_on_c, 6, 63, 0
12, 45480, Note_on_c, 6, 64, 90
12, 45539, Note_on_c, 6, 64, 0
12, 45540, Note_on_c, 6, 64, 90
12, 45599, Note_on_c, 6, 64, 0
12, 45600, Note_on_c, 6, 62, 90
12, 45659, Note_on_c, 6, 62, 0
12, 45660, Note_on_c, 6, 62, 90
12, 45719, Note_on_c, 6, 62, 0
12, 45720, Note_on_c, 6, 67, 90
12, 45779, Note_on_c, 6, 67, 0
12, 45780, Note_on_c, 6, 67, 90
12, 45839, Note_on_c, 6, 67, 0
12, 45840, Note_on_c, 6, 66, 90
12, 45899, Note_on_c, 6, 66, 0
12, 45900, Note_on_c, 6, 66, 90
12, 45959, Note_on_c, 6, 66, 0
12, 46080, Note_on_c, 6, 57, 90
12, 46109, Note_on_c, 6, 57, 0
12, 46110, Note_on_c, 6, 59, 90
12, 46139, Note_on_c, 6, 59, 0
12, 46140, Note_on_c, 6, 61, 90
12, 46154, Note_on_c, 6, 61, 0
12, 46155, Note_on_c, 6, 59, 90
12, 46169, Note_on_c, 6, 59, 0
12, 46170, Note_on_c, 6, 57, 90
12, 46184, Note_on_c, 6, 57, 0
12, 46185, Note_on_c, 6, 59, 90
12, 46199, Note_on_c, 6, 59, 0
12, 46200, Note_on_c, 6, 61, 90
12, 46229, Note_on_c, 6, 61, 0
12, 46260, Note_on_c, 6, 64, 90
12, 46289, Note_on_c, 6, 64, 0
12, 46320, Note_on_c, 6, 68, 90
12, 46349, Note_on_c, 6, 68, 0
12, 46380, Note_on_c, 6, 69, 90
12, 46439, Note_on_c, 6, 69, 0
12, 46440, Note_on_c, 6, 69, 90
12, 46499, Note_on_c, 6, 69, 0
12, 46500, Note_on_c, 6, 69, 90
12, 46559, Note_on_c, 6, 69, 0
12, 46560, Note_on_c, 6, 67, 90
12, 46619, Note_on_c, 6, 67, 0
12, 46620, Note_on_c, 6, 60, 90
12, 46679, Note_on_c, 6, 60, 0
12, 46680, Note_on_c, 6, 60, 90
12, 46739, Note_on_c, 6, 60, 0
12, 46740, Note_on_c, 6, 59, 90
12, 46769, Note_on_c, 6, 59, 0
12, 46770, Note_on_c, 6, 61, 90
12, 46799, Note_on_c, 6, 61, 0
12, 46800, Note_on_c, 6, 57, 90
12, 46829, Note_on_c, 6, 57, 0
12, 46830, Note_on_c, 6, 59, 90
12, 46859, Note_on_c, 6, 59, 0
12, 46860, Note_on_c, 6, 55, 90
12, 46889, Note_on_c, 6, 55, 0
12, 46890, Note_on_c, 6, 57, 90
12, 46919, Note_on_c, 6, 57, 0
12, 46920, Note_on_c, 6, 54, 90
12, 46979, Note_on_c, 6, 54, 0
12, 46980, Note_on_c, 6, 57, 90
12, 47039, Note_on_c, 6, 57, 0
12, 47040, Note_on_c, 6, 64, 90
12, 47099, Note_on_c, 6, 64, 0
12, 47100, Note_on_c, 6, 62, 90
12, 47159, Note_on_c, 6, 62, 0
12, 47160, Note_on_c, 6, 57, 90
12, 47189, Note_on_c, 6, 57, 0
12, 47190, Note_on_c, 6, 61, 90
12, 47219, Note_on_c, 6, 61, 0
12, 47220, Note_on_c, 6, 61, 90
12, 47234, Note_on_c, 6, 61, 0
12, 47235, Note_on_c, 6, 59, 90
12, 47249, Note_on_c, 6, 59, 0
12, 47250, Note_on_c, 6, 57, 90
12, 47264, Note_on_c, 6, 57, 0
12, 47265, Note_on_c, 6, 59, 90
12, 47279, Note_on_c, 6, 59, 0
12, 47280, Note_on_c, 6, 61, 90
12, 47309, Note_on_c, 6, 61, 0
12, 47310, Note_on_c, 6, 64, 90
12, 47339, Note_on_c, 6, 64, 0
12, 47340, Note_on_c, 6, 69, 90
12, 47369, Note_on_c, 6, 69, 0
12, 47400, Note_on_c, 6, 66, 90
12, 47429, Note_on_c, 6, 66, 0
12, 47460, Note_on_c, 6, 59, 90
12, 47549, Note_on_c, 6, 59, 0
12, 47550, Note_on_c, 6, 60, 90
12, 47579, Note_on_c, 6, 60, 0
12, 47580, Note_on_c, 6, 57, 90
12, 47609, Note_on_c, 6, 57, 0
12, 47610, Note_on_c, 6, 59, 90
12, 47639, Note_on_c, 6, 59, 0
12, 47640, Note_on_c, 6, 55, 90
12, 47699, Note_on_c, 6, 55, 0
12, 47700, Note_on_c, 6, 59, 90
12, 47759, Note_on_c, 6, 59, 0
12, 47760, Note_on_c, 6, 64, 90
12, 47819, Note_on_c, 6, 64, 0
12, 47820, Note_on_c, 6, 64, 90
12, 47879, Note_on_c, 6, 64, 0
12, 47880, Note_on_c, 6, 58, 90
12, 47939, Note_on_c, 6, 58, 0
12, 47940, Note_on_c, 6, 59, 90
12, 47999, Note_on_c, 6, 59, 0
12, 48000, Note_on_c, 6, 64, 90
12, 48059, Note_on_c, 6, 64, 0
12, 48060, Note_on_c, 6, 58, 90
12, 48119, Note_on_c, 6, 58, 0
12, 48120, Note_on_c, 6, 58, 90
12, 48179, Note_on_c, 6, 58, 0
12, 48180, Note_on_c, 6, 66, 90
12, 48239, Note_on_c, 6, 66, 0
12, 48240, Note_on_c, 6, 66, 90
12, 48299, Note_on_c, 6, 66, 0
12, 48300, Note_on_c, 6, 66, 90
12, 48359, Note_on_c, 6, 66, 0
12, 48360, Note_on_c, 6, 66, 90
12, 48419, Note_on_c, 6, 66, 0
12, 48420, Note_on_c, 6, 59, 90
12, 48479, Note_on_c, 6, 59, 0
12, 48480, Note_on_c, 6, 59, 90
12, 48539, Note_on_c, 6, 59, 0
12, 48540, Note_on_c, 6, 59, 90
12, 48599, Note_on_c, 6, 59, 0
12, 48600, Note_on_c, 6, 52, 90
12, 48659, Note_on_c, 6, 52, 0
12, 48660, Note_on_c, 6, 54, 90
12, 48719, Note_on_c, 6, 54, 0
12, 48720, Note_on_c, 6, 56, 90
12, 48779, Note_on_c, 6, 56, 0
12, 48780, Note_on_c, 6, 68, 90
12, 48839, Note_on_c, 6, 68, 0
12, 48840, Note_on_c, 6, 66, 90
12, 48899, Note_on_c, 6, 66, 0
12, 48900, Note_on_c, 6, 64, 90
12, 48959, Note_on_c, 6, 64, 0
12, 48960, Note_on_c, 6, 64, 90
12, 49019, Note_on_c, 6, 64, 0
12, 49020, Note_on_c, 6, 64, 90
12, 49079, Note_on_c, 6, 64, 0
12, 49080, Note_on_c, 6, 64, 90
12, 49139, Note_on_c, 6, 64, 0
12, 49140, Note_on_c, 6, 64, 90
12, 49199, Note_on_c, 6, 64, 0
12, 49200, Note_on_c, 6, 64, 90
12, 49259, Note_on_c, 6, 64, 0
12, 49260, Note_on_c, 6, 57, 90
12, 49289, Note_on_c, 6, 57, 0
12, 49320, Note_on_c, 6, 66, 90
12, 49349, Note_on_c, 6, 66, 0
12, 49380, Note_on_c, 6, 69, 90
12, 49409, Note_on_c, 6, 69, 0
12, 49440, Note_on_c, 6, 66, 90
12, 49469, Note_on_c, 6, 66, 0
12, 49500, Note_on_c, 6, 63, 90
12, 49529, Note_on_c, 6, 63, 0
12, 49560, Note_on_c, 6, 66, 90
12, 49589, Note_on_c, 6, 66, 0
12, 49620, Note_on_c, 6, 68, 90
12, 49649, Note_on_c, 6, 68, 0
12, 49680, Note_on_c, 6, 64, 90
12, 49709, Note_on_c, 6, 64, 0
12, 49740, Note_on_c, 6, 67, 90
12, 49769, Note_on_c, 6, 67, 0
12, 49800, Note_on_c, 6, 64, 90
12, 49829, Note_on_c, 6, 64, 0
12, 49860, Note_on_c, 6, 61, 90
12, 49889, Note_on_c, 6, 61, 0
12, 49920, Note_on_c, 6, 64, 90
12, 49949, Note_on_c, 6, 64, 0
12, 49980, Note_on_c, 6, 66, 90
12, 50009, Note_on_c, 6, 66, 0
12, 50040, Note_on_c, 6, 59, 90
12, 50069, Note_on_c, 6, 59, 0
12, 50100, Note_on_c, 6, 52, 90
12, 50129, Note_on_c, 6, 52, 0
12, 50160, Note_on_c, 6, 59, 90
12, 50189, Note_on_c, 6, 59, 0
12, 50340, Note_on_c, 6, 52, 90
12, 50369, Note_on_c, 6, 52, 0
12, 50520, Note_on_c, 6, 64, 90
12, 50549, Note_on_c, 6, 64, 0
12, 50580, Note_on_c, 6, 59, 90
12, 50609, Note_on_c, 6, 59, 0
12, 50640, Note_on_c, 6, 71, 90
12, 50669, Note_on_c, 6, 71, 0
12, 50700, Note_on_c, 6, 73, 90
12, 50729, Note_on_c, 6, 73, 0
12, 50730, Note_on_c, 6, 64, 90
12, 50747, Note_on_c, 6, 64, 0
12, 50760, Note_on_c, 6, 64, 90
12, 50777, Note_on_c, 6, 64, 0
12, 50790, Note_on_c, 6, 64, 90
12, 50807, Note_on_c, 6, 64, 0
12, 50820, Note_on_c, 6, 64, 90
12, 50837, Note_on_c, 6, 64, 0
12, 50850, Note_on_c, 6, 64, 90
12, 50867, Note_on_c, 6, 64, 0
12, 50880, Note_on_c, 6, 64, 90
12, 50897, Note_on_c, 6, 64, 0
12, 50910, Note_on_c, 6, 64, 90
12, 50927, Note_on_c, 6, 64, 0
12, 50940, Note_on_c, 6, 64, 90
12, 50957, Note_on_c, 6, 64, 0
12, 50970, Note_on_c, 6, 64, 90
12, 50987, Note_on_c, 6, 64, 0
12, 51000, Note_on_c, 6, 64, 90
12, 51017, Note_on_c, 6, 64, 0
12, 51030, Note_on_c, 6, 64, 90
12, 51047, Note_on_c, 6, 64, 0
12, 51060, Note_on_c, 6, 64, 90
12, 51077, Note_on_c, 6, 64, 0
12, 51090, Note_on_c, 6, 64, 90
12, 51107, Note_on_c, 6, 64, 0
12, 51120, Note_on_c, 6, 64, 90
12, 51137, Note_on_c, 6, 64, 0
12, 51150, Note_on_c, 6, 64, 90
12, 51167, Note_on_c, 6, 64, 0
12, 51180, Note_on_c, 6, 64, 90
12, 51197, Note_on_c, 6, 64, 0
12, 51210, Note_on_c, 6, 64, 90
12, 51227, Note_on_c, 6, 64, 0
12, 51240, Note_on_c, 6, 64, 90
12, 51257, Note_on_c, 6, 64, 0
12, 51270, Note_on_c, 6, 64, 90
12, 51287, Note_on_c, 6, 64, 0
12, 51300, Note_on_c, 6, 64, 90
12, 51317, Note_on_c, 6, 64, 0
12, 51330, Note_on_c, 6, 64, 90
12, 51347, Note_on_c, 6, 64, 0
12, 51360, Note_on_c, 6, 64, 90
12, 51377, Note_on_c, 6, 64, 0
12, 51390, Note_on_c, 6, 62, 90
12, 51407, Note_on_c, 6, 62, 0
12, 51420, Note_on_c, 6, 61, 90
12, 51437, Note_on_c, 6, 61, 0
12, 51450, Note_on_c, 6, 61, 90
12, 51467, Note_on_c, 6, 61, 0
12, 51480, Note_on_c, 6, 61, 90
12, 51497, Note_on_c, 6, 61, 0
12, 51510, Note_on_c, 6, 61, 90
12, 51527, Note_on_c, 6, 61, 0
12, 51540, Note_on_c, 6, 61, 90
12, 51557, Note_on_c, 6, 61, 0
12, 51570, Note_on_c, 6, 61, 90
12, 51587, Note_on_c, 6, 61, 0
12, 51600, Note_on_c, 6, 59, 90
12, 51659, Note_on_c, 6, 59, 0
12, 51660, Note_on_c, 6, 59, 90
12, 51719, Note_on_c, 6, 59, 0
12, 51720, Note_on_c, 6, 62, 90
12, 51779, Note_on_c, 6, 62, 0
12, 51780, Note_on_c, 6, 62, 90
12, 51899, Note_on_c, 6, 62, 0
12, 51900, Note_on_c, 6, 62, 90
12, 51959, Note_on_c, 6, 62, 0
12, 51960, Note_on_c, 6, 69, 90
12, 52079, Note_on_c, 6, 69, 0
12, 52080, Note_on_c, 6, 69, 90
12, 52139, Note_on_c, 6, 69, 0
12, 52140, Note_on_c, 6, 69, 90
12, 52199, Note_on_c, 6, 69, 0
12, 53040, Note_on_c, 6, 57, 90
12, 53100, Note_on_c, 6, 57, 0
12, 53220, Note_on_c, 6, 62, 90
12, 53280, Note_on_c, 6, 62, 0
12, 53400, Note_on_c, 6, 57, 90
12, 53460, Note_on_c, 6, 57, 0
12, 53595, Note_on_c, 6, 62, 90
12, 53609, Note_on_c, 6, 62, 0
12, 53610, Note_on_c, 6, 61, 90
12, 53624, Note_on_c, 6, 61, 0
12, 53625, Note_on_c, 6, 59, 90
12, 53639, Note_on_c, 6, 59, 0
12, 53640, Note_on_c, 6, 57, 90
12, 53654, Note_on_c, 6, 57, 0
12, 53655, Note_on_c, 6, 62, 90
12, 53669, Note_on_c, 6, 62, 0
12, 53670, Note_on_c, 6, 61, 90
12, 53684, Note_on_c, 6, 61, 0
12, 53685, Note_on_c, 6, 59, 90
12, 53699, Note_on_c, 6, 59, 0
12, 53700, Note_on_c, 6, 57, 90
12, 53714, Note_on_c, 6, 57, 0
12, 53715, Note_on_c, 6, 55, 90
12, 53729, Note_on_c, 6, 55, 0
12, 53730, Note_on_c, 6, 54, 90
12, 53744, Note_on_c, 6, 54, 0
12, 53745, Note_on_c, 6, 52, 90
12, 53759, Note_on_c, 6, 52, 0
12, 53760, Note_on_c, 6, 54, 90
12, 53774, Note_on_c, 6, 54, 0
12, 53775, Note_on_c, 6, 59, 90
12, 53789, Note_on_c, 6, 59, 0
12, 53790, Note_on_c, 6, 57, 90
12, 53804, Note_on_c, 6, 57, 0
12, 53805, Note_on_c, 6, 55, 90
12, 53819, Note_on_c, 6, 55, 0
12, 53820, Note_on_c, 6, 54, 90
12, 53834, Note_on_c, 6, 54, 0
12, 53835, Note_on_c, 6, 59, 90
12, 53849, Note_on_c, 6, 59, 0
12, 53850, Note_on_c, 6, 57, 90
12, 53864, Note_on_c, 6, 57, 0
12, 53865, Note_on_c, 6, 55, 90
12, 53879, Note_on_c, 6, 55, 0
12, 53880, Note_on_c, 6, 54, 90
12, 53894, Note_on_c, 6, 54, 0
12, 53895, Note_on_c, 6, 59, 90
12, 53909, Note_on_c, 6, 59, 0
12, 53910, Note_on_c, 6, 57, 90
12, 53924, Note_on_c, 6, 57, 0
12, 53925, Note_on_c, 6, 55, 90
12, 53939, Note_on_c, 6, 55, 0
12, 53940, Note_on_c, 6, 57, 90
12, 53957, Note_on_c, 6, 57, 0
12, 53970, Note_on_c, 6, 57, 90
12, 53987, Note_on_c, 6, 57, 0
12, 54000, Note_on_c, 6, 57, 90
12, 54017, Note_on_c, 6, 57, 0
12, 54030, Note_on_c, 6, 57, 90
12, 54047, Note_on_c, 6, 57, 0
12, 54060, Note_on_c, 6, 57, 90
12, 54077, Note_on_c, 6, 57, 0
12, 54090, Note_on_c, 6, 57, 90
12, 54107, Note_on_c, 6, 57, 0
12, 54120, Note_on_c, 6, 57, 90
12, 54137, Note_on_c, 6, 57, 0
12, 54150, Note_on_c, 6, 57, 90
12, 54167, Note_on_c, 6, 57, 0
12, 54180, Note_on_c, 6, 57, 90
12, 54197, Note_on_c, 6, 57, 0
12, 54210, Note_on_c, 6, 57, 90
12, 54227, Note_on_c, 6, 57, 0
12, 54240, Note_on_c, 6, 57, 90
12, 54257, Note_on_c, 6, 57, 0
12, 54270, Note_on_c, 6, 57, 90
12, 54287, Note_on_c, 6, 57, 0
12, 54300, Note_on_c, 6, 57, 90
12, 54317, Note_on_c, 6, 57, 0
12, 54330, Note_on_c, 6, 57, 90
12, 54347, Note_on_c, 6, 57, 0
12, 54360, Note_on_c, 6, 57, 90
12, 54377, Note_on_c, 6, 57, 0
12, 54390, Note_on_c, 6, 57, 90
12, 54407, Note_on_c, 6, 57, 0
12, 54420, Note_on_c, 6, 57, 90
12, 54437, Note_on_c, 6, 57, 0
12, 54450, Note_on_c, 6, 57, 90
12, 54467, Note_on_c, 6, 57, 0
12, 54480, Note_on_c, 6, 57, 90
12, 54497, Note_on_c, 6, 57, 0
12, 54510, Note_on_c, 6, 57, 90
12, 54527, Note_on_c, 6, 57, 0
12, 54540, Note_on_c, 6, 57, 90
12, 54557, Note_on_c, 6, 57, 0
12, 54570, Note_on_c, 6, 57, 90
12, 54587, Note_on_c, 6, 57, 0
12, 54600, Note_on_c, 6, 69, 90
12, 54629, Note_on_c, 6, 69, 0
12, 54630, Note_on_c, 6, 67, 90
12, 54659, Note_on_c, 6, 67, 0
12, 54660, Note_on_c, 6, 66, 90
12, 54689, Note_on_c, 6, 66, 0
12, 54720, Note_on_c, 6, 69, 90
12, 54749, Note_on_c, 6, 69, 0
12, 54780, Note_on_c, 6, 62, 90
12, 54809, Note_on_c, 6, 62, 0
12, 54840, Note_on_c, 6, 62, 90
12, 54899, Note_on_c, 6, 62, 0
12, 54900, Note_on_c, 6, 62, 90
12, 54959, Note_on_c, 6, 62, 0
12, 54960, Note_on_c, 6, 61, 90
12, 55019, Note_on_c, 6, 61, 0
12, 55020, Note_on_c, 6, 62, 90
12, 55079, Note_on_c, 6, 62, 0
12, 55080, Note_on_c, 6, 64, 90
12, 55139, Note_on_c, 6, 64, 0
12, 55140, Note_on_c, 6, 71, 90
12, 55199, Note_on_c, 6, 71, 0
12, 55200, Note_on_c, 6, 64, 90
12, 55319, Note_on_c, 6, 64, 0
12, 55440, Note_on_c, 6, 59, 90
12, 55469, Note_on_c, 6, 59, 0
12, 55470, Note_on_c, 6, 61, 90
12, 55499, Note_on_c, 6, 61, 0
12, 55500, Note_on_c, 6, 62, 90
12, 55514, Note_on_c, 6, 62, 0
12, 55515, Note_on_c, 6, 61, 90
12, 55529, Note_on_c, 6, 61, 0
12, 55530, Note_on_c, 6, 59, 90
12, 55544, Note_on_c, 6, 59, 0
12, 55545, Note_on_c, 6, 61, 90
12, 55559, Note_on_c, 6, 61, 0
12, 55560, Note_on_c, 6, 62, 90
12, 55589, Note_on_c, 6, 62, 0
12, 55590, Note_on_c, 6, 61, 90
12, 55619, Note_on_c, 6, 61, 0
12, 55620, Note_on_c, 6, 62, 90
12, 55649, Note_on_c, 6, 62, 0
12, 55650, Note_on_c, 6, 64, 90
12, 55679, Note_on_c, 6, 64, 0
12, 55680, Note_on_c, 6, 66, 90
12, 55694, Note_on_c, 6, 66, 0
12, 55695, Note_on_c, 6, 64, 90
12, 55709, Note_on_c, 6, 64, 0
12, 55710, Note_on_c, 6, 62, 90
12, 55724, Note_on_c, 6, 62, 0
12, 55725, Note_on_c, 6, 64, 90
12, 55739, Note_on_c, 6, 64, 0
12, 55740, Note_on_c, 6, 66, 90
12, 55769, Note_on_c, 6, 66, 0
12, 55800, Note_on_c, 6, 67, 90
12, 55829, Note_on_c, 6, 67, 0
12, 55860, Note_on_c, 6, 66, 90
12, 55889, Note_on_c, 6, 66, 0
12, 55920, Note_on_c, 6, 64, 90
12, 55949, Note_on_c, 6, 64, 0
12, 55980, Note_on_c, 6, 61, 90
12, 56009, Note_on_c, 6, 61, 0
12, 56040, Note_on_c, 6, 59, 90
12, 56069, Note_on_c, 6, 59, 0
12, 56100, Note_on_c, 6, 59, 90
12, 56129, Note_on_c, 6, 59, 0
12, 56130, Note_on_c, 6, 58, 90
12, 56159, Note_on_c, 6, 58, 0
12, 56160, Note_on_c, 6, 59, 90
12, 56189, Note_on_c, 6, 59, 0
12, 56190, Note_on_c, 6, 61, 90
12, 56219, Note_on_c, 6, 61, 0
12, 56220, Note_on_c, 6, 62, 90
12, 56234, Note_on_c, 6, 62, 0
12, 56235, Note_on_c, 6, 61, 90
12, 56249, Note_on_c, 6, 61, 0
12, 56250, Note_on_c, 6, 59, 90
12, 56264, Note_on_c, 6, 59, 0
12, 56265, Note_on_c, 6, 61, 90
12, 56279, Note_on_c, 6, 61, 0
12, 56280, Note_on_c, 6, 62, 90
12, 56309, Note_on_c, 6, 62, 0
12, 56310, Note_on_c, 6, 61, 90
12, 56339, Note_on_c, 6, 61, 0
12, 56340, Note_on_c, 6, 62, 90
12, 56369, Note_on_c, 6, 62, 0
12, 56370, Note_on_c, 6, 64, 90
12, 56399, Note_on_c, 6, 64, 0
12, 56400, Note_on_c, 6, 66, 90
12, 56414, Note_on_c, 6, 66, 0
12, 56415, Note_on_c, 6, 64, 90
12, 56429, Note_on_c, 6, 64, 0
12, 56430, Note_on_c, 6, 62, 90
12, 56444, Note_on_c, 6, 62, 0
12, 56445, Note_on_c, 6, 64, 90
12, 56459, Note_on_c, 6, 64, 0
12, 56460, Note_on_c, 6, 66, 90
12, 56519, Note_on_c, 6, 66, 0
12, 56520, Note_on_c, 6, 66, 90
12, 56579, Note_on_c, 6, 66, 0
12, 56580, Note_on_c, 6, 64, 90
12, 56639, Note_on_c, 6, 64, 0
12, 56640, Note_on_c, 6, 64, 90
12, 56699, Note_on_c, 6, 64, 0
12, 56700, Note_on_c, 6, 59, 90
12, 56759, Note_on_c, 6, 59, 0
12, 56760, Note_on_c, 6, 64, 90
12, 56819, Note_on_c, 6, 64, 0
12, 56820, Note_on_c, 6, 57, 90
12, 56879, Note_on_c, 6, 57, 0
12, 56880, Note_on_c, 6, 57, 90
12, 56909, Note_on_c, 6, 57, 0
12, 56910, Note_on_c, 6, 59, 90
12, 56939, Note_on_c, 6, 59, 0
12, 56940, Note_on_c, 6, 61, 90
12, 56954, Note_on_c, 6, 61, 0
12, 56955, Note_on_c, 6, 59, 90
12, 56969, Note_on_c, 6, 59, 0
12, 56970, Note_on_c, 6, 57, 90
12, 56984, Note_on_c, 6, 57, 0
12, 56985, Note_on_c, 6, 59, 90
12, 56999, Note_on_c, 6, 59, 0
12, 57000, Note_on_c, 6, 61, 90
12, 57029, Note_on_c, 6, 61, 0
12, 57030, Note_on_c, 6, 62, 90
12, 57059, Note_on_c, 6, 62, 0
12, 57060, Note_on_c, 6, 64, 90
12, 57119, Note_on_c, 6, 64, 0
12, 57120, Note_on_c, 6, 57, 90
12, 57179, Note_on_c, 6, 57, 0
12, 57240, Note_on_c, 6, 55, 90
12, 57269, Note_on_c, 6, 55, 0
12, 57270, Note_on_c, 6, 57, 90
12, 57299, Note_on_c, 6, 57, 0
12, 57300, Note_on_c, 6, 59, 90
12, 57314, Note_on_c, 6, 59, 0
12, 57315, Note_on_c, 6, 57, 90
12, 57329, Note_on_c, 6, 57, 0
12, 57330, Note_on_c, 6, 55, 90
12, 57344, Note_on_c, 6, 55, 0
12, 57345, Note_on_c, 6, 57, 90
12, 57359, Note_on_c, 6, 57, 0
12, 57360, Note_on_c, 6, 59, 90
12, 57389, Note_on_c, 6, 59, 0
12, 57420, Note_on_c, 6, 59, 90
12, 57449, Note_on_c, 6, 59, 0
12, 57480, Note_on_c, 6, 55, 90
12, 57509, Note_on_c, 6, 55, 0
12, 57540, Note_on_c, 6, 57, 90
12, 57599, Note_on_c, 6, 57, 0
12, 57600, Note_on_c, 6, 57, 90
12, 57659, Note_on_c, 6, 57, 0
12, 57660, Note_on_c, 6, 56, 90
12, 57719, Note_on_c, 6, 56, 0
12, 57720, Note_on_c, 6, 61, 90
12, 57779, Note_on_c, 6, 61, 0
12, 57780, Note_on_c, 6, 64, 90
12, 57839, Note_on_c, 6, 64, 0
12, 57840, Note_on_c, 6, 69, 90
12, 57899, Note_on_c, 6, 69, 0
12, 57900, Note_on_c, 6, 69, 90
12, 57959, Note_on_c, 6, 69, 0
12, 57960, Note_on_c, 6, 63, 90
12, 58019, Note_on_c, 6, 63, 0
12, 58020, Note_on_c, 6, 64, 90
12, 58079, Note_on_c, 6, 64, 0
12, 58080, Note_on_c, 6, 69, 90
12, 58139, Note_on_c, 6, 69, 0
12, 58140, Note_on_c, 6, 63, 90
12, 58199, Note_on_c, 6, 63, 0
12, 58200, Note_on_c, 6, 63, 90
12, 58259, Note_on_c, 6, 63, 0
12, 58260, Note_on_c, 6, 71, 90
12, 58319, Note_on_c, 6, 71, 0
12, 58320, Note_on_c, 6, 71, 90
12, 58379, Note_on_c, 6, 71, 0
12, 58380, Note_on_c, 6, 71, 90
12, 58439, Note_on_c, 6, 71, 0
12, 58440, Note_on_c, 6, 71, 90
12, 58499, Note_on_c, 6, 71, 0
12, 58500, Note_on_c, 6, 64, 90
12, 58559, Note_on_c, 6, 64, 0
12, 58560, Note_on_c, 6, 64, 90
12, 58619, Note_on_c, 6, 64, 0
12, 58620, Note_on_c, 6, 64, 90
12, 58679, Note_on_c, 6, 64, 0
12, 58680, Note_on_c, 6, 57, 90
12, 58739, Note_on_c, 6, 57, 0
12, 58740, Note_on_c, 6, 59, 90
12, 58799, Note_on_c, 6, 59, 0
12, 58800, Note_on_c, 6, 61, 90
12, 58859, Note_on_c, 6, 61, 0
12, 58860, Note_on_c, 6, 73, 90
12, 58919, Note_on_c, 6, 73, 0
12, 58920, Note_on_c, 6, 71, 90
12, 58979, Note_on_c, 6, 71, 0
12, 58980, Note_on_c, 6, 69, 90
12, 59039, Note_on_c, 6, 69, 0
12, 59040, Note_on_c, 6, 69, 90
12, 59099, Note_on_c, 6, 69, 0
12, 59100, Note_on_c, 6, 69, 90
12, 59159, Note_on_c, 6, 69, 0
12, 59160, Note_on_c, 6, 69, 90
12, 59219, Note_on_c, 6, 69, 0
12, 59220, Note_on_c, 6, 69, 90
12, 59279, Note_on_c, 6, 69, 0
12, 59280, Note_on_c, 6, 69, 90
12, 59339, Note_on_c, 6, 69, 0
12, 59340, Note_on_c, 6, 62, 90
12, 59369, Note_on_c, 6, 62, 0
12, 59400, Note_on_c, 6, 71, 90
12, 59429, Note_on_c, 6, 71, 0
12, 59460, Note_on_c, 6, 74, 90
12, 59489, Note_on_c, 6, 74, 0
12, 59520, Note_on_c, 6, 71, 90
12, 59549, Note_on_c, 6, 71, 0
12, 59580, Note_on_c, 6, 68, 90
12, 59609, Note_on_c, 6, 68, 0
12, 59640, Note_on_c, 6, 71, 90
12, 59669, Note_on_c, 6, 71, 0
12, 59700, Note_on_c, 6, 64, 90
12, 59729, Note_on_c, 6, 64, 0
12, 59760, Note_on_c, 6, 69, 90
12, 59789, Note_on_c, 6, 69, 0
12, 59820, Note_on_c, 6, 72, 90
12, 59849, Note_on_c, 6, 72, 0
12, 59880, Note_on_c, 6, 69, 90
12, 59909, Note_on_c, 6, 69, 0
12, 59940, Note_on_c, 6, 66, 90
12, 59969, Note_on_c, 6, 66, 0
12, 60000, Note_on_c, 6, 69, 90
12, 60029, Note_on_c, 6, 69, 0
12, 60060, Note_on_c, 6, 71, 90
12, 60089, Note_on_c, 6, 71, 0
12, 60120, Note_on_c, 6, 64, 90
12, 60149, Note_on_c, 6, 64, 0
12, 60180, Note_on_c, 6, 57, 90
12, 60209, Note_on_c, 6, 57, 0
12, 60240, Note_on_c, 6, 64, 90
12, 60269, Note_on_c, 6, 64, 0
12, 60420, Note_on_c, 6, 57, 90
12, 60449, Note_on_c, 6, 57, 0
12, 60600, Note_on_c, 6, 57, 90
12, 60629, Note_on_c, 6, 57, 0
12, 60660, Note_on_c, 6, 62, 90
12, 60689, Note_on_c, 6, 62, 0
12, 60720, Note_on_c, 6, 64, 90
12, 60749, Note_on_c, 6, 64, 0
12, 60780, Note_on_c, 6, 66, 90
12, 60959, Note_on_c, 6, 66, 0
12, 116460, Note_on_c, 6, 56, 90
12, 116579, Note_on_c, 6, 56, 0
12, 116580, Note_on_c, 6, 57, 90
12, 116699, Note_on_c, 6, 57, 0
12, 116700, Note_on_c, 6, 59, 90
12, 116819, Note_on_c, 6, 59, 0
12, 116820, Note_on_c, 6, 60, 90
12, 116879, Note_on_c, 6, 60, 0
12, 116880, Note_on_c, 6, 62, 90
12, 116939, Note_on_c, 6, 62, 0
12, 116940, Note_on_c, 6, 55, 90
12, 117059, Note_on_c, 6, 55, 0
12, 117060, Note_on_c, 6, 57, 90
12, 117119, Note_on_c, 6, 57, 0
12, 117120, Note_on_c, 6, 56, 90
12, 117179, Note_on_c, 6, 56, 0
12, 117180, Note_on_c, 6, 57, 90
12, 117299, Note_on_c, 6, 57, 0
12, 117300, Note_on_c, 6, 56, 90
12, 117395, Note_on_c, 6, 56, 0
12, 117420, Note_on_c, 6, 56, 90
12, 117539, Note_on_c, 6, 56, 0
12, 117540, Note_on_c, 6, 57, 90
12, 117599, Note_on_c, 6, 57, 0
12, 117600, Note_on_c, 6, 59, 90
12, 117659, Note_on_c, 6, 59, 0
12, 117660, Note_on_c, 6, 60, 90
12, 117779, Note_on_c, 6, 60, 0
12, 117780, Note_on_c, 6, 65, 90
12, 117899, Note_on_c, 6, 65, 0
12, 117900, Note_on_c, 6, 64, 90
12, 117959, Note_on_c, 6, 64, 0
12, 117960, Note_on_c, 6, 62, 90
12, 118019, Note_on_c, 6, 62, 0
12, 118020, Note_on_c, 6, 60, 90
12, 118379, Note_on_c, 6, 60, 0
12, 118380, Note_on_c, 6, 56, 90
12, 118499, Note_on_c, 6, 56, 0
12, 118500, Note_on_c, 6, 57, 90
12, 118619, Note_on_c, 6, 57, 0
12, 118620, Note_on_c, 6, 59, 90
12, 118739, Note_on_c, 6, 59, 0
12, 118740, Note_on_c, 6, 60, 90
12, 118799, Note_on_c, 6, 60, 0
12, 118800, Note_on_c, 6, 62, 90
12, 118859, Note_on_c, 6, 62, 0
12, 118860, Note_on_c, 6, 55, 90
12, 118979, Note_on_c, 6, 55, 0
12, 118980, Note_on_c, 6, 57, 90
12, 119039, Note_on_c, 6, 57, 0
12, 119040, Note_on_c, 6, 56, 90
12, 119099, Note_on_c, 6, 56, 0
12, 119100, Note_on_c, 6, 57, 90
12, 119219, Note_on_c, 6, 57, 0
12, 119220, Note_on_c, 6, 56, 90
12, 119315, Note_on_c, 6, 56, 0
12, 119340, Note_on_c, 6, 56, 90
12, 119459, Note_on_c, 6, 56, 0
12, 119460, Note_on_c, 6, 57, 90
12, 119519, Note_on_c, 6, 57, 0
12, 119520, Note_on_c, 6, 59, 90
12, 119579, Note_on_c, 6, 59, 0
12, 119580, Note_on_c, 6, 60, 90
12, 119699, Note_on_c, 6, 60, 0
12, 119700, Note_on_c, 6, 65, 90
12, 119819, Note_on_c, 6, 65, 0
12, 119820, Note_on_c, 6, 64, 90
12, 119879, Note_on_c, 6, 64, 0
12, 119880, Note_on_c, 6, 62, 90
12, 119939, Note_on_c, 6, 62, 0
12, 119940, Note_on_c, 6, 60, 90
12, 120299, Note_on_c, 6, 60, 0
12, 120300, Note_on_c, 6, 64, 90
12, 120419, Note_on_c, 6, 64, 0
12, 120420, Note_on_c, 6, 62, 90
12, 120479, Note_on_c, 6, 62, 0
12, 120480, Note_on_c, 6, 60, 90
12, 120539, Note_on_c, 6, 60, 0
12, 120540, Note_on_c, 6, 59, 90
12, 120659, Note_on_c, 6, 59, 0
12, 120660, Note_on_c, 6, 57, 90
12, 120719, Note_on_c, 6, 57, 0
12, 120720, Note_on_c, 6, 55, 90
12, 120779, Note_on_c, 6, 55, 0
12, 120780, Note_on_c, 6, 53, 90
12, 120839, Note_on_c, 6, 53, 0
12, 120840, Note_on_c, 6, 55, 90
12, 120899, Note_on_c, 6, 55, 0
12, 120900, Note_on_c, 6, 57, 90
12, 121019, Note_on_c, 6, 57, 0
12, 121020, Note_on_c, 6, 55, 90
12, 121079, Note_on_c, 6, 55, 0
12, 121080, Note_on_c, 6, 53, 90
12, 121139, Note_on_c, 6, 53, 0
12, 121140, Note_on_c, 6, 55, 90
12, 121235, Note_on_c, 6, 55, 0
12, 121260, Note_on_c, 6, 60, 90
12, 121379, Note_on_c, 6, 60, 0
12, 121380, Note_on_c, 6, 60, 90
12, 121439, Note_on_c, 6, 60, 0
12, 121440, Note_on_c, 6, 62, 90
12, 121499, Note_on_c, 6, 62, 0
12, 121500, Note_on_c, 6, 64, 90
12, 121619, Note_on_c, 6, 64, 0
12, 121620, Note_on_c, 6, 62, 90
12, 121679, Note_on_c, 6, 62, 0
12, 121680, Note_on_c, 6, 61, 90
12, 121739, Note_on_c, 6, 61, 0
12, 121740, Note_on_c, 6, 62, 90
12, 121799, Note_on_c, 6, 62, 0
12, 121800, Note_on_c, 6, 56, 90
12, 121859, Note_on_c, 6, 56, 0
12, 121860, Note_on_c, 6, 57, 90
12, 122147, Note_on_c, 6, 57, 0
12, 122220, Note_on_c, 6, 57, 90
12, 122339, Note_on_c, 6, 57, 0
12, 122340, Note_on_c, 6, 55, 90
12, 122399, Note_on_c, 6, 55, 0
12, 122400, Note_on_c, 6, 57, 90
12, 122459, Note_on_c, 6, 57, 0
12, 122460, Note_on_c, 6, 59, 90
12, 122579, Note_on_c, 6, 59, 0
12, 122580, Note_on_c, 6, 60, 90
12, 122639, Note_on_c, 6, 60, 0
12, 122640, Note_on_c, 6, 62, 90
12, 122699, Note_on_c, 6, 62, 0
12, 122700, Note_on_c, 6, 64, 90
12, 122819, Note_on_c, 6, 64, 0
12, 122820, Note_on_c, 6, 64, 90
12, 122939, Note_on_c, 6, 64, 0
12, 122940, Note_on_c, 6, 62, 90
12, 123059, Note_on_c, 6, 62, 0
12, 123060, Note_on_c, 6, 62, 90
12, 123155, Note_on_c, 6, 62, 0
12, 123180, Note_on_c, 6, 60, 90
12, 123299, Note_on_c, 6, 60, 0
12, 123300, Note_on_c, 6, 60, 90
12, 123359, Note_on_c, 6, 60, 0
12, 123360, Note_on_c, 6, 59, 90
12, 123419, Note_on_c, 6, 59, 0
12, 123420, Note_on_c, 6, 59, 90
12, 123479, Note_on_c, 6, 59, 0
12, 123480, Note_on_c, 6, 57, 90
12, 123539, Note_on_c, 6, 57, 0
12, 123540, Note_on_c, 6, 57, 90
12, 123659, Note_on_c, 6, 57, 0
12, 123660, Note_on_c, 6, 55, 90
12, 123719, Note_on_c, 6, 55, 0
12, 123720, Note_on_c, 6, 57, 90
12, 123779, Note_on_c, 6, 57, 0
12, 123780, Note_on_c, 6, 59, 90
12, 123899, Note_on_c, 6, 59, 0
12, 123900, Note_on_c, 6, 57, 90
12, 124019, Note_on_c, 6, 57, 0
12, 124020, Note_on_c, 6, 56, 90
12, 124139, Note_on_c, 6, 56, 0
12, 151620, Note_on_c, 6, 66, 90
12, 151679, Note_on_c, 6, 66, 0
12, 151680, Note_on_c, 6, 62, 90
12, 151799, Note_on_c, 6, 62, 0
12, 151800, Note_on_c, 6, 57, 90
12, 151919, Note_on_c, 6, 57, 0
12, 151920, Note_on_c, 6, 62, 90
12, 152039, Note_on_c, 6, 62, 0
12, 152040, Note_on_c, 6, 66, 90
12, 152129, Note_on_c, 6, 66, 0
12, 152130, Note_on_c, 6, 67, 90
12, 152159, Note_on_c, 6, 67, 0
12, 152160, Note_on_c, 6, 69, 90
12, 152279, Note_on_c, 6, 69, 0
12, 152280, Note_on_c, 6, 69, 90
12, 152339, Note_on_c, 6, 69, 0
12, 152340, Note_on_c, 6, 69, 90
12, 152399, Note_on_c, 6, 69, 0
12, 152400, Note_on_c, 6, 57, 90
12, 152459, Note_on_c, 6, 57, 0
12, 152460, Note_on_c, 6, 59, 90
12, 152519, Note_on_c, 6, 59, 0
12, 152520, Note_on_c, 6, 61, 90
12, 152579, Note_on_c, 6, 61, 0
12, 152580, Note_on_c, 6, 66, 90
12, 152639, Note_on_c, 6, 66, 0
12, 152700, Note_on_c, 6, 62, 90
12, 152759, Note_on_c, 6, 62, 0
12, 152820, Note_on_c, 6, 57, 90
12, 152879, Note_on_c, 6, 57, 0
12, 152940, Note_on_c, 6, 62, 90
12, 152999, Note_on_c, 6, 62, 0
12, 153060, Note_on_c, 6, 66, 90
12, 153089, Note_on_c, 6, 66, 0
12, 153090, Note_on_c, 6, 67, 90
12, 153119, Note_on_c, 6, 67, 0
12, 153120, Note_on_c, 6, 69, 90
12, 153179, Note_on_c, 6, 69, 0
12, 153180, Note_on_c, 6, 62, 90
12, 153239, Note_on_c, 6, 62, 0
12, 153240, Note_on_c, 6, 69, 90
12, 153299, Note_on_c, 6, 69, 0
12, 153300, Note_on_c, 6, 69, 90
12, 153359, Note_on_c, 6, 69, 0
12, 153360, Note_on_c, 6, 74, 90
12, 153419, Note_on_c, 6, 74, 0
12, 153420, Note_on_c, 6, 74, 90
12, 153479, Note_on_c, 6, 74, 0
12, 153480, Note_on_c, 6, 69, 90
12, 153539, Note_on_c, 6, 69, 0
12, 153540, Note_on_c, 6, 67, 90
12, 153599, Note_on_c, 6, 67, 0
12, 153660, Note_on_c, 6, 71, 90
12, 153719, Note_on_c, 6, 71, 0
12, 153780, Note_on_c, 6, 74, 90
12, 153839, Note_on_c, 6, 74, 0
12, 153900, Note_on_c, 6, 69, 90
12, 153959, Note_on_c, 6, 69, 0
12, 154020, Note_on_c, 6, 69, 90
12, 154079, Note_on_c, 6, 69, 0
12, 154080, Note_on_c, 6, 69, 90
12, 154139, Note_on_c, 6, 69, 0
12, 154140, Note_on_c, 6, 69, 90
12, 154199, Note_on_c, 6, 69, 0
12, 154200, Note_on_c, 6, 69, 90
12, 154259, Note_on_c, 6, 69, 0
12, 154260, Note_on_c, 6, 69, 90
12, 154439, Note_on_c, 6, 69, 0
12, 154440, Note_on_c, 6, 73, 90
12, 154499, Note_on_c, 6, 73, 0
12, 154500, Note_on_c, 6, 66, 90
12, 154529, Note_on_c, 6, 66, 0
12, 154530, Note_on_c, 6, 67, 90
12, 154559, Note_on_c, 6, 67, 0
12, 154560, Note_on_c, 6, 69, 90
12, 154619, Note_on_c, 6, 69, 0
12, 154620, Note_on_c, 6, 57, 90
12, 154679, Note_on_c, 6, 57, 0
12, 154680, Note_on_c, 6, 69, 90
12, 154739, Note_on_c, 6, 69, 0
12, 154740, Note_on_c, 6, 69, 90
12, 154979, Note_on_c, 6, 69, 0
12, 155280, Note_on_c, 6, 57, 90
12, 155309, Note_on_c, 6, 57, 0
12, 155310, Note_on_c, 6, 55, 90
12, 155339, Note_on_c, 6, 55, 0
12, 155340, Note_on_c, 6, 54, 90
12, 155399, Note_on_c, 6, 54, 0
12, 155760, Note_on_c, 6, 62, 90
12, 155789, Note_on_c, 6, 62, 0
12, 155790, Note_on_c, 6, 64, 90
12, 155819, Note_on_c, 6, 64, 0
12, 155820, Note_on_c, 6, 66, 90
12, 155879, Note_on_c, 6, 66, 0
12, 156240, Note_on_c, 6, 66, 90
12, 156269, Note_on_c, 6, 66, 0
12, 156270, Note_on_c, 6, 67, 90
12, 156299, Note_on_c, 6, 67, 0
12, 156300, Note_on_c, 6, 69, 90
12, 156359, Note_on_c, 6, 69, 0
12, 156720, Note_on_c, 6, 69, 90
12, 156749, Note_on_c, 6, 69, 0
12, 156780, Note_on_c, 6, 74, 90
12, 156809, Note_on_c, 6, 74, 0
12, 157020, Note_on_c, 6, 67, 90
12, 157079, Note_on_c, 6, 67, 0
12, 157260, Note_on_c, 6, 66, 90
12, 157319, Note_on_c, 6, 66, 0
12, 157440, Note_on_c, 6, 69, 90
12, 157499, Note_on_c, 6, 69, 0
12, 157500, Note_on_c, 6, 69, 90
12, 157559, Note_on_c, 6, 69, 0
12, 157560, Note_on_c, 6, 69, 90
12, 157619, Note_on_c, 6, 69, 0
12, 157620, Note_on_c, 6, 69, 90
12, 157739, Note_on_c, 6, 69, 0
12, 157800, Note_on_c, 6, 64, 90
12, 157859, Note_on_c, 6, 64, 0
12, 157860, Note_on_c, 6, 66, 90
12, 157919, Note_on_c, 6, 66, 0
12, 157920, Note_on_c, 6, 67, 90
12, 157949, Note_on_c, 6, 67, 0
12, 157950, Note_on_c, 6, 66, 90
12, 157979, Note_on_c, 6, 66, 0
12, 157980, Note_on_c, 6, 64, 90
12, 158039, Note_on_c, 6, 64, 0
12, 158040, Note_on_c, 6, 66, 90
12, 158069, Note_on_c, 6, 66, 0
12, 158070, Note_on_c, 6, 67, 90
12, 158099, Note_on_c, 6, 67, 0
12, 158100, Note_on_c, 6, 69, 90
12, 158159, Note_on_c, 6, 69, 0
12, 158160, Note_on_c, 6, 62, 90
12, 158219, Note_on_c, 6, 62, 0
12, 158220, Note_on_c, 6, 57, 90
12, 158279, Note_on_c, 6, 57, 0
12, 158280, Note_on_c, 6, 68, 90
12, 158339, Note_on_c, 6, 68, 0
12, 158340, Note_on_c, 6, 69, 90
12, 158399, Note_on_c, 6, 69, 0
12, 158640, Note_on_c, 6, 69, 90
12, 158669, Note_on_c, 6, 69, 0
12, 158700, Note_on_c, 6, 57, 90
12, 158729, Note_on_c, 6, 57, 0
12, 159120, Note_on_c, 6, 55, 90
12, 159179, Note_on_c, 6, 55, 0
12, 159180, Note_on_c, 6, 57, 90
12, 159239, Note_on_c, 6, 57, 0
12, 159240, Note_on_c, 6, 61, 90
12, 159299, Note_on_c, 6, 61, 0
12, 159300, Note_on_c, 6, 62, 90
12, 159359, Note_on_c, 6, 62, 0
12, 159600, Note_on_c, 6, 69, 90
12, 159629, Note_on_c, 6, 69, 0
12, 159630, Note_on_c, 6, 71, 90
12, 159659, Note_on_c, 6, 71, 0
12, 159660, Note_on_c, 6, 72, 90
12, 159719, Note_on_c, 6, 72, 0
12, 160200, Note_on_c, 6, 67, 90
12, 160319, Note_on_c, 6, 67, 0
12, 160320, Note_on_c, 6, 64, 90
12, 160379, Note_on_c, 6, 64, 0
12, 160380, Note_on_c, 6, 61, 90
12, 160559, Note_on_c, 6, 61, 0
12, 160560, Note_on_c, 6, 57, 90
12, 160619, Note_on_c, 6, 57, 0
12, 160620, Note_on_c, 6, 54, 90
12, 160679, Note_on_c, 6, 54, 0
12, 160680, Note_on_c, 6, 66, 90
12, 160799, Note_on_c, 6, 66, 0
12, 160800, Note_on_c, 6, 62, 90
12, 160859, Note_on_c, 6, 62, 0
12, 160860, Note_on_c, 6, 59, 90
12, 161039, Note_on_c, 6, 59, 0
12, 161040, Note_on_c, 6, 55, 90
12, 161099, Note_on_c, 6, 55, 0
12, 161100, Note_on_c, 6, 52, 90
12, 161159, Note_on_c, 6, 52, 0
12, 161160, Note_on_c, 6, 64, 90
12, 161279, Note_on_c, 6, 64, 0
12, 161340, Note_on_c, 6, 67, 90
12, 161370, Note_on_c, 6, 67, 0
12, 161460, Note_on_c, 6, 64, 90
12, 161490, Note_on_c, 6, 64, 0
12, 161580, Note_on_c, 6, 61, 90
12, 161610, Note_on_c, 6, 61, 0
12, 161700, Note_on_c, 6, 64, 90
12, 161730, Note_on_c, 6, 64, 0
12, 161820, Note_on_c, 6, 67, 90
12, 161850, Note_on_c, 6, 67, 0
12, 161940, Note_on_c, 6, 61, 90
12, 161970, Note_on_c, 6, 61, 0
12, 162060, Note_on_c, 6, 64, 90
12, 162090, Note_on_c, 6, 64, 0
12, 162180, Note_on_c, 6, 69, 90
12, 162210, Note_on_c, 6, 69, 0
12, 162300, Note_on_c, 6, 71, 90
12, 162330, Note_on_c, 6, 71, 0
12, 162420, Note_on_c, 6, 64, 90
12, 162479, Note_on_c, 6, 64, 0
12, 162480, Note_on_c, 6, 69, 90
12, 162539, Note_on_c, 6, 69, 0
12, 162540, Note_on_c, 6, 69, 90
12, 162599, Note_on_c, 6, 69, 0
12, 162600, Note_on_c, 6, 57, 90
12, 162659, Note_on_c, 6, 57, 0
12, 162660, Note_on_c, 6, 59, 90
12, 162719, Note_on_c, 6, 59, 0
12, 163380, Note_on_c, 6, 66, 90
12, 163439, Note_on_c, 6, 66, 0
12, 163440, Note_on_c, 6, 62, 90
12, 163559, Note_on_c, 6, 62, 0
12, 163560, Note_on_c, 6, 57, 90
12, 163679, Note_on_c, 6, 57, 0
12, 163680, Note_on_c, 6, 62, 90
12, 163799, Note_on_c, 6, 62, 0
12, 163800, Note_on_c, 6, 66, 90
12, 163919, Note_on_c, 6, 66, 0
12, 163920, Note_on_c, 6, 69, 90
12, 164039, Note_on_c, 6, 69, 0
12, 164040, Note_on_c, 6, 71, 90
12, 164099, Note_on_c, 6, 71, 0
12, 164100, Note_on_c, 6, 72, 90
12, 164159, Note_on_c, 6, 72, 0
12, 164160, Note_on_c, 6, 64, 90
12, 164219, Note_on_c, 6, 64, 0
12, 164220, Note_on_c, 6, 66, 90
12, 164279, Note_on_c, 6, 66, 0
12, 164280, Note_on_c, 6, 66, 90
12, 164339, Note_on_c, 6, 66, 0
12, 164340, Note_on_c, 6, 62, 90
12, 164370, Note_on_c, 6, 62, 0
12, 164460, Note_on_c, 6, 67, 90
12, 164490, Note_on_c, 6, 67, 0
12, 164580, Note_on_c, 6, 59, 90
12, 164639, Note_on_c, 6, 59, 0
12, 164640, Note_on_c, 6, 64, 90
12, 164759, Note_on_c, 6, 64, 0
12, 164760, Note_on_c, 6, 68, 90
12, 164879, Note_on_c, 6, 68, 0
12, 164880, Note_on_c, 6, 71, 90
12, 164999, Note_on_c, 6, 71, 0
12, 165000, Note_on_c, 6, 73, 90
12, 165059, Note_on_c, 6, 73, 0
12, 165060, Note_on_c, 6, 74, 90
12, 165119, Note_on_c, 6, 74, 0
12, 165120, Note_on_c, 6, 66, 90
12, 165179, Note_on_c, 6, 66, 0
12, 165180, Note_on_c, 6, 68, 90
12, 165239, Note_on_c, 6, 68, 0
12, 165240, Note_on_c, 6, 68, 90
12, 165299, Note_on_c, 6, 68, 0
12, 165300, Note_on_c, 6, 64, 90
12, 165330, Note_on_c, 6, 64, 0
12, 165420, Note_on_c, 6, 64, 90
12, 165450, Note_on_c, 6, 64, 0
12, 165540, Note_on_c, 6, 66, 90
12, 165570, Note_on_c, 6, 66, 0
12, 165660, Note_on_c, 6, 69, 90
12, 165690, Note_on_c, 6, 69, 0
12, 165780, Note_on_c, 6, 69, 90
12, 165810, Note_on_c, 6, 69, 0
12, 165900, Note_on_c, 6, 64, 90
12, 165930, Note_on_c, 6, 64, 0
12, 166080, Note_on_c, 6, 62, 90
12, 166139, Note_on_c, 6, 62, 0
12, 166140, Note_on_c, 6, 62, 90
12, 166199, Note_on_c, 6, 62, 0
12, 166200, Note_on_c, 6, 57, 90
12, 166259, Note_on_c, 6, 57, 0
12, 166260, Note_on_c, 6, 50, 90
12, 166319, Note_on_c, 6, 50, 0
12, 166500, Note_on_c, 6, 71, 90
12, 166859, Note_on_c, 6, 71, 0
12, 166860, Note_on_c, 6, 69, 90
12, 166919, Note_on_c, 6, 69, 0
12, 167460, Note_on_c, 6, 61, 90
12, 167519, Note_on_c, 6, 61, 0
12, 167520, Note_on_c, 6, 64, 90
12, 167639, Note_on_c, 6, 64, 0
12, 167640, Note_on_c, 6, 69, 90
12, 167759, Note_on_c, 6, 69, 0
12, 167760, Note_on_c, 6, 61, 90
12, 167879, Note_on_c, 6, 61, 0
12, 167880, Note_on_c, 6, 64, 90
12, 167939, Note_on_c, 6, 64, 0
12, 167940, Note_on_c, 6, 66, 90
12, 167999, Note_on_c, 6, 66, 0
12, 168000, Note_on_c, 6, 66, 90
12, 168059, Note_on_c, 6, 66, 0
12, 168060, Note_on_c, 6, 64, 90
12, 168119, Note_on_c, 6, 64, 0
12, 168120, Note_on_c, 6, 64, 90
12, 168179, Note_on_c, 6, 64, 0
12, 168180, Note_on_c, 6, 62, 90
12, 168239, Note_on_c, 6, 62, 0
12, 168300, Note_on_c, 6, 62, 90
12, 168359, Note_on_c, 6, 62, 0
12, 168420, Note_on_c, 6, 62, 90
12, 168479, Note_on_c, 6, 62, 0
12, 168540, Note_on_c, 6, 66, 90
12, 168599, Note_on_c, 6, 66, 0
12, 168660, Note_on_c, 6, 69, 90
12, 168719, Note_on_c, 6, 69, 0
12, 168840, Note_on_c, 6, 66, 90
12, 168899, Note_on_c, 6, 66, 0
12, 168900, Note_on_c, 6, 71, 90
12, 168959, Note_on_c, 6, 71, 0
12, 168960, Note_on_c, 6, 71, 90
12, 169019, Note_on_c, 6, 71, 0
12, 169020, Note_on_c, 6, 69, 90
12, 169079, Note_on_c, 6, 69, 0
12, 169080, Note_on_c, 6, 69, 90
12, 169139, Note_on_c, 6, 69, 0
12, 169140, Note_on_c, 6, 67, 90
12, 169199, Note_on_c, 6, 67, 0
12, 169320, Note_on_c, 6, 64, 90
12, 169350, Note_on_c, 6, 64, 0
12, 169380, Note_on_c, 6, 72, 90
12, 169410, Note_on_c, 6, 72, 0
12, 169500, Note_on_c, 6, 66, 90
12, 169530, Note_on_c, 6, 66, 0
12, 169620, Note_on_c, 6, 71, 90
12, 169650, Note_on_c, 6, 71, 0
12, 169740, Note_on_c, 6, 64, 90
12, 169770, Note_on_c, 6, 64, 0
12, 169860, Note_on_c, 6, 69, 90
12, 169919, Note_on_c, 6, 69, 0
12, 169920, Note_on_c, 6, 62, 90
12, 169979, Note_on_c, 6, 62, 0
12, 169980, Note_on_c, 6, 67, 90
12, 170039, Note_on_c, 6, 67, 0
12, 170040, Note_on_c, 6, 59, 90
12, 170099, Note_on_c, 6, 59, 0
12, 170100, Note_on_c, 6, 57, 90
12, 170159, Note_on_c, 6, 57, 0
12, 170160, Note_on_c, 6, 64, 90
12, 170219, Note_on_c, 6, 64, 0
12, 170220, Note_on_c, 6, 69, 90
12, 170399, Note_on_c, 6, 69, 0
12, 170400, Note_on_c, 6, 57, 90
12, 170459, Note_on_c, 6, 57, 0
12, 170460, Note_on_c, 6, 59, 90
12, 170519, Note_on_c, 6, 59, 0
12, 170520, Note_on_c, 6, 64, 90
12, 170579, Note_on_c, 6, 64, 0
12, 170580, Note_on_c, 6, 66, 90
12, 170819, Note_on_c, 6, 66, 0
12, 170820, Note_on_c, 6, 66, 90
12, 170879, Note_on_c, 6, 66, 0
12, 170940, Note_on_c, 6, 61, 90
12, 170999, Note_on_c, 6, 61, 0
12, 171060, Note_on_c, 6, 62, 90
12, 171119, Note_on_c, 6, 62, 0
12, 171180, Note_on_c, 6, 66, 90
12, 171239, Note_on_c, 6, 66, 0
12, 171360, Note_on_c, 6, 67, 90
12, 171419, Note_on_c, 6, 67, 0
12, 171420, Note_on_c, 6, 66, 90
12, 171479, Note_on_c, 6, 66, 0
12, 171480, Note_on_c, 6, 66, 90
12, 171539, Note_on_c, 6, 66, 0
12, 171540, Note_on_c, 6, 64, 90
12, 171599, Note_on_c, 6, 64, 0
12, 171780, Note_on_c, 6, 64, 90
12, 171839, Note_on_c, 6, 64, 0
12, 171900, Note_on_c, 6, 59, 90
12, 171959, Note_on_c, 6, 59, 0
12, 172020, Note_on_c, 6, 61, 90
12, 172079, Note_on_c, 6, 61, 0
12, 172140, Note_on_c, 6, 64, 90
12, 172199, Note_on_c, 6, 64, 0
12, 172320, Note_on_c, 6, 66, 90
12, 172379, Note_on_c, 6, 66, 0
12, 172380, Note_on_c, 6, 64, 90
12, 172439, Note_on_c, 6, 64, 0
12, 172440, Note_on_c, 6, 64, 90
12, 172499, Note_on_c, 6, 64, 0
12, 172500, Note_on_c, 6, 62, 90
12, 172559, Note_on_c, 6, 62, 0
12, 174600, Note_on_c, 6, 66, 90
12, 174659, Note_on_c, 6, 66, 0
12, 174660, Note_on_c, 6, 62, 90
12, 174719, Note_on_c, 6, 62, 0
12, 174780, Note_on_c, 6, 62, 90
12, 174839, Note_on_c, 6, 62, 0
12, 174900, Note_on_c, 6, 61, 90
12, 174959, Note_on_c, 6, 61, 0
12, 175020, Note_on_c, 6, 61, 90
12, 175079, Note_on_c, 6, 61, 0
12, 175140, Note_on_c, 6, 66, 90
12, 175199, Note_on_c, 6, 66, 0
12, 175260, Note_on_c, 6, 66, 90
12, 175319, Note_on_c, 6, 66, 0
12, 175380, Note_on_c, 6, 69, 90
12, 175439, Note_on_c, 6, 69, 0
12, 175500, Note_on_c, 6, 69, 90
12, 175559, Note_on_c, 6, 69, 0
12, 175620, Note_on_c, 6, 66, 90
12, 175679, Note_on_c, 6, 66, 0
12, 175740, Note_on_c, 6, 73, 90
12, 175799, Note_on_c, 6, 73, 0
12, 175860, Note_on_c, 6, 71, 90
12, 175919, Note_on_c, 6, 71, 0
12, 175980, Note_on_c, 6, 68, 90
12, 176039, Note_on_c, 6, 68, 0
12, 176160, Note_on_c, 6, 66, 90
12, 176219, Note_on_c, 6, 66, 0
12, 176220, Note_on_c, 6, 61, 90
12, 176279, Note_on_c, 6, 61, 0
12, 176280, Note_on_c, 6, 71, 90
12, 176339, Note_on_c, 6, 71, 0
12, 176340, Note_on_c, 6, 69, 90
12, 176459, Note_on_c, 6, 69, 0
12, 177120, Note_on_c, 6, 71, 90
12, 177150, Note_on_c, 6, 71, 0
12, 177180, Note_on_c, 6, 64, 90
12, 177210, Note_on_c, 6, 64, 0
12, 177240, Note_on_c, 6, 61, 90
12, 177270, Note_on_c, 6, 61, 0
12, 177300, Note_on_c, 6, 59, 90
12, 177330, Note_on_c, 6, 59, 0
12, 178080, Note_on_c, 6, 69, 90
12, 178110, Note_on_c, 6, 69, 0
12, 178140, Note_on_c, 6, 62, 90
12, 178170, Note_on_c, 6, 62, 0
12, 178200, Note_on_c, 6, 59, 90
12, 178230, Note_on_c, 6, 59, 0
12, 178260, Note_on_c, 6, 57, 90
12, 178290, Note_on_c, 6, 57, 0
12, 178620, Note_on_c, 6, 64, 90
12, 178680, Note_on_c, 6, 64, 0
12, 178860, Note_on_c, 6, 64, 90
12, 178920, Note_on_c, 6, 64, 0
12, 179100, Note_on_c, 6, 66, 90
12, 179160, Note_on_c, 6, 66, 0
12, 179340, Note_on_c, 6, 64, 90
12, 179400, Note_on_c, 6, 64, 0
12, 180420, Note_on_c, 6, 66, 90
12, 180479, Note_on_c, 6, 66, 0
12, 180480, Note_on_c, 6, 62, 90
12, 180599, Note_on_c, 6, 62, 0
12, 180600, Note_on_c, 6, 57, 90
12, 180719, Note_on_c, 6, 57, 0
12, 180720, Note_on_c, 6, 62, 90
12, 180839, Note_on_c, 6, 62, 0
12, 180840, Note_on_c, 6, 66, 90
12, 180929, Note_on_c, 6, 66, 0
12, 180930, Note_on_c, 6, 67, 90
12, 180959, Note_on_c, 6, 67, 0
12, 180960, Note_on_c, 6, 69, 90
12, 181079, Note_on_c, 6, 69, 0
12, 181080, Note_on_c, 6, 69, 90
12, 181139, Note_on_c, 6, 69, 0
12, 181140, Note_on_c, 6, 69, 90
12, 181199, Note_on_c, 6, 69, 0
12, 181200, Note_on_c, 6, 57, 90
12, 181259, Note_on_c, 6, 57, 0
12, 181260, Note_on_c, 6, 59, 90
12, 181319, Note_on_c, 6, 59, 0
12, 181320, Note_on_c, 6, 61, 90
12, 181379, Note_on_c, 6, 61, 0
12, 181380, Note_on_c, 6, 66, 90
12, 181439, Note_on_c, 6, 66, 0
12, 181500, Note_on_c, 6, 62, 90
12, 181559, Note_on_c, 6, 62, 0
12, 181620, Note_on_c, 6, 57, 90
12, 181679, Note_on_c, 6, 57, 0
12, 181740, Note_on_c, 6, 62, 90
12, 181799, Note_on_c, 6, 62, 0
12, 181860, Note_on_c, 6, 66, 90
12, 181889, Note_on_c, 6, 66, 0
12, 181890, Note_on_c, 6, 67, 90
12, 181919, Note_on_c, 6, 67, 0
12, 181920, Note_on_c, 6, 69, 90
12, 181979, Note_on_c, 6, 69, 0
12, 181980, Note_on_c, 6, 62, 90
12, 182039, Note_on_c, 6, 62, 0
12, 182040, Note_on_c, 6, 69, 90
12, 182099, Note_on_c, 6, 69, 0
12, 182100, Note_on_c, 6, 69, 90
12, 182159, Note_on_c, 6, 69, 0
12, 182160, Note_on_c, 6, 74, 90
12, 182219, Note_on_c, 6, 74, 0
12, 182220, Note_on_c, 6, 74, 90
12, 182279, Note_on_c, 6, 74, 0
12, 182280, Note_on_c, 6, 69, 90
12, 182339, Note_on_c, 6, 69, 0
12, 182340, Note_on_c, 6, 67, 90
12, 182399, Note_on_c, 6, 67, 0
12, 182460, Note_on_c, 6, 71, 90
12, 182519, Note_on_c, 6, 71, 0
12, 182580, Note_on_c, 6, 74, 90
12, 182639, Note_on_c, 6, 74, 0
12, 182700, Note_on_c, 6, 69, 90
12, 182759, Note_on_c, 6, 69, 0
12, 182820, Note_on_c, 6, 69, 90
12, 182879, Note_on_c, 6, 69, 0
12, 182880, Note_on_c, 6, 69, 90
12, 182939, Note_on_c, 6, 69, 0
12, 182940, Note_on_c, 6, 69, 90
12, 182999, Note_on_c, 6, 69, 0
12, 183000, Note_on_c, 6, 69, 90
12, 183059, Note_on_c, 6, 69, 0
12, 183060, Note_on_c, 6, 69, 90
12, 183239, Note_on_c, 6, 69, 0
12, 183240, Note_on_c, 6, 73, 90
12, 183299, Note_on_c, 6, 73, 0
12, 183300, Note_on_c, 6, 66, 90
12, 183329, Note_on_c, 6, 66, 0
12, 183330, Note_on_c, 6, 67, 90
12, 183359, Note_on_c, 6, 67, 0
12, 183360, Note_on_c, 6, 69, 90
12, 183419, Note_on_c, 6, 69, 0
12, 183420, Note_on_c, 6, 57, 90
12, 183479, Note_on_c, 6, 57, 0
12, 183480, Note_on_c, 6, 69, 90
12, 183539, Note_on_c, 6, 69, 0
12, 183540, Note_on_c, 6, 69, 90
12, 183779, Note_on_c, 6, 69, 0
12, 184080, Note_on_c, 6, 57, 90
12, 184109, Note_on_c, 6, 57, 0
12, 184110, Note_on_c, 6, 55, 90
12, 184139, Note_on_c, 6, 55, 0
12, 184140, Note_on_c, 6, 54, 90
12, 184199, Note_on_c, 6, 54, 0
12, 184560, Note_on_c, 6, 62, 90
12, 184589, Note_on_c, 6, 62, 0
12, 184590, Note_on_c, 6, 64, 90
12, 184619, Note_on_c, 6, 64, 0
12, 184620, Note_on_c, 6, 66, 90
12, 184679, Note_on_c, 6, 66, 0
12, 185040, Note_on_c, 6, 66, 90
12, 185069, Note_on_c, 6, 66, 0
12, 185070, Note_on_c, 6, 67, 90
12, 185099, Note_on_c, 6, 67, 0
12, 185100, Note_on_c, 6, 69, 90
12, 185159, Note_on_c, 6, 69, 0
12, 185520, Note_on_c, 6, 69, 90
12, 185549, Note_on_c, 6, 69, 0
12, 185580, Note_on_c, 6, 74, 90
12, 185609, Note_on_c, 6, 74, 0
12, 185820, Note_on_c, 6, 67, 90
12, 185879, Note_on_c, 6, 67, 0
12, 186060, Note_on_c, 6, 66, 90
12, 186119, Note_on_c, 6, 66, 0
12, 186240, Note_on_c, 6, 69, 90
12, 186299, Note_on_c, 6, 69, 0
12, 186300, Note_on_c, 6, 69, 90
12, 186359, Note_on_c, 6, 69, 0
12, 186360, Note_on_c, 6, 69, 90
12, 186419, Note_on_c, 6, 69, 0
12, 186420, Note_on_c, 6, 69, 90
12, 186539, Note_on_c, 6, 69, 0
12, 186600, Note_on_c, 6, 64, 90
12, 186659, Note_on_c, 6, 64, 0
12, 186660, Note_on_c, 6, 66, 90
12, 186719, Note_on_c, 6, 66, 0
12, 186720, Note_on_c, 6, 67, 90
12, 186749, Note_on_c, 6, 67, 0
12, 186750, Note_on_c, 6, 66, 90
12, 186779, Note_on_c, 6, 66, 0
12, 186780, Note_on_c, 6, 64, 90
12, 186839, Note_on_c, 6, 64, 0
12, 186840, Note_on_c, 6, 66, 90
12, 186869, Note_on_c, 6, 66, 0
12, 186870, Note_on_c, 6, 67, 90
12, 186899, Note_on_c, 6, 67, 0
12, 186900, Note_on_c, 6, 69, 90
12, 186959, Note_on_c, 6, 69, 0
12, 186960, Note_on_c, 6, 62, 90
12, 187019, Note_on_c, 6, 62, 0
12, 187020, Note_on_c, 6, 57, 90
12, 187079, Note_on_c, 6, 57, 0
12, 187080, Note_on_c, 6, 68, 90
12, 187139, Note_on_c, 6, 68, 0
12, 187140, Note_on_c, 6, 69, 90
12, 187199, Note_on_c, 6, 69, 0
12, 187440, Note_on_c, 6, 69, 90
12, 187469, Note_on_c, 6, 69, 0
12, 187500, Note_on_c, 6, 57, 90
12, 187529, Note_on_c, 6, 57, 0
12, 187920, Note_on_c, 6, 55, 90
12, 187979, Note_on_c, 6, 55, 0
12, 187980, Note_on_c, 6, 57, 90
12, 188039, Note_on_c, 6, 57, 0
12, 188040, Note_on_c, 6, 61, 90
12, 188099, Note_on_c, 6, 61, 0
12, 188100, Note_on_c, 6, 62, 90
12, 188159, Note_on_c, 6, 62, 0
12, 188400, Note_on_c, 6, 69, 90
12, 188429, Note_on_c, 6, 69, 0
12, 188430, Note_on_c, 6, 71, 90
12, 188459, Note_on_c, 6, 71, 0
12, 188460, Note_on_c, 6, 72, 90
12, 188519, Note_on_c, 6, 72, 0
12, 189000, Note_on_c, 6, 67, 90
12, 189119, Note_on_c, 6, 67, 0
12, 189120, Note_on_c, 6, 64, 90
12, 189179, Note_on_c, 6, 64, 0
12, 189180, Note_on_c, 6, 61, 90
12, 189359, Note_on_c, 6, 61, 0
12, 189360, Note_on_c, 6, 57, 90
12, 189419, Note_on_c, 6, 57, 0
12, 189420, Note_on_c, 6, 54, 90
12, 189479, Note_on_c, 6, 54, 0
12, 189480, Note_on_c, 6, 66, 90
12, 189599, Note_on_c, 6, 66, 0
12, 189600, Note_on_c, 6, 62, 90
12, 189659, Note_on_c, 6, 62, 0
12, 189660, Note_on_c, 6, 59, 90
12, 189839, Note_on_c, 6, 59, 0
12, 189840, Note_on_c, 6, 55, 90
12, 189899, Note_on_c, 6, 55, 0
12, 189900, Note_on_c, 6, 52, 90
12, 189959, Note_on_c, 6, 52, 0
12, 189960, Note_on_c, 6, 64, 90
12, 190079, Note_on_c, 6, 64, 0
12, 190140, Note_on_c, 6, 67, 90
12, 190170, Note_on_c, 6, 67, 0
12, 190260, Note_on_c, 6, 64, 90
12, 190290, Note_on_c, 6, 64, 0
12, 190380, Note_on_c, 6, 61, 90
12, 190410, Note_on_c, 6, 61, 0
12, 190500, Note_on_c, 6, 64, 90
12, 190530, Note_on_c, 6, 64, 0
12, 190620, Note_on_c, 6, 67, 90
12, 190650, Note_on_c, 6, 67, 0
12, 190740, Note_on_c, 6, 61, 90
12, 190770, Note_on_c, 6, 61, 0
12, 190860, Note_on_c, 6, 64, 90
12, 190890, Note_on_c, 6, 64, 0
12, 190980, Note_on_c, 6, 69, 90
12, 191010, Note_on_c, 6, 69, 0
12, 191100, Note_on_c, 6, 71, 90
12, 191130, Note_on_c, 6, 71, 0
12, 191220, Note_on_c, 6, 64, 90
12, 191279, Note_on_c, 6, 64, 0
12, 191280, Note_on_c, 6, 69, 90
12, 191339, Note_on_c, 6, 69, 0
12, 191340, Note_on_c, 6, 69, 90
12, 191399, Note_on_c, 6, 69, 0
12, 191400, Note_on_c, 6, 57, 90
12, 191459, Note_on_c, 6, 57, 0
12, 191460, Note_on_c, 6, 59, 90
12, 191519, Note_on_c, 6, 59, 0
12, 192180, Note_on_c, 6, 66, 90
12, 192239, Note_on_c, 6, 66, 0
12, 192240, Note_on_c, 6, 62, 90
12, 192359, Note_on_c, 6, 62, 0
12, 192360, Note_on_c, 6, 57, 90
12, 192479, Note_on_c, 6, 57, 0
12, 192480, Note_on_c, 6, 62, 90
12, 192599, Note_on_c, 6, 62, 0
12, 192600, Note_on_c, 6, 66, 90
12, 192719, Note_on_c, 6, 66, 0
12, 192720, Note_on_c, 6, 69, 90
12, 192839, Note_on_c, 6, 69, 0
12, 192840, Note_on_c, 6, 71, 90
12, 192899, Note_on_c, 6, 71, 0
12, 192900, Note_on_c, 6, 72, 90
12, 192959, Note_on_c, 6, 72, 0
12, 192960, Note_on_c, 6, 64, 90
12, 193019, Note_on_c, 6, 64, 0
12, 193020, Note_on_c, 6, 66, 90
12, 193079, Note_on_c, 6, 66, 0
12, 193080, Note_on_c, 6, 66, 90
12, 193139, Note_on_c, 6, 66, 0
12, 193140, Note_on_c, 6, 62, 90
12, 193170, Note_on_c, 6, 62, 0
12, 193260, Note_on_c, 6, 67, 90
12, 193290, Note_on_c, 6, 67, 0
12, 193380, Note_on_c, 6, 59, 90
12, 193439, Note_on_c, 6, 59, 0
12, 193440, Note_on_c, 6, 64, 90
12, 193559, Note_on_c, 6, 64, 0
12, 193560, Note_on_c, 6, 68, 90
12, 193679, Note_on_c, 6, 68, 0
12, 193680, Note_on_c, 6, 71, 90
12, 193799, Note_on_c, 6, 71, 0
12, 193800, Note_on_c, 6, 73, 90
12, 193859, Note_on_c, 6, 73, 0
12, 193860, Note_on_c, 6, 74, 90
12, 193919, Note_on_c, 6, 74, 0
12, 193920, Note_on_c, 6, 66, 90
12, 193979, Note_on_c, 6, 66, 0
12, 193980, Note_on_c, 6, 68, 90
12, 194039, Note_on_c, 6, 68, 0
12, 194040, Note_on_c, 6, 68, 90
12, 194099, Note_on_c, 6, 68, 0
12, 194100, Note_on_c, 6, 64, 90
12, 194130, Note_on_c, 6, 64, 0
12, 194220, Note_on_c, 6, 64, 90
12, 194250, Note_on_c, 6, 64, 0
12, 194340, Note_on_c, 6, 66, 90
12, 194370, Note_on_c, 6, 66, 0
12, 194460, Note_on_c, 6, 69, 90
12, 194490, Note_on_c, 6, 69, 0
12, 194580, Note_on_c, 6, 69, 90
12, 194610, Note_on_c, 6, 69, 0
12, 194700, Note_on_c, 6, 64, 90
12, 194730, Note_on_c, 6, 64, 0
12, 194880, Note_on_c, 6, 62, 90
12, 194939, Note_on_c, 6, 62, 0
12, 194940, Note_on_c, 6, 62, 90
12, 194999, Note_on_c, 6, 62, 0
12, 195000, Note_on_c, 6, 57, 90
12, 195059, Note_on_c, 6, 57, 0
12, 195060, Note_on_c, 6, 50, 90
12, 195119, Note_on_c, 6, 50, 0
12, 195300, Note_on_c, 6, 71, 90
12, 195659, Note_on_c, 6, 71, 0
12, 195660, Note_on_c, 6, 69, 90
12, 195719, Note_on_c, 6, 69, 0
12, 196260, Note_on_c, 6, 61, 90
12, 196319, Note_on_c, 6, 61, 0
12, 196320, Note_on_c, 6, 64, 90
12, 196439, Note_on_c, 6, 64, 0
12, 196440, Note_on_c, 6, 69, 90
12, 196559, Note_on_c, 6, 69, 0
12, 196560, Note_on_c, 6, 61, 90
12, 196679, Note_on_c, 6, 61, 0
12, 196680, Note_on_c, 6, 64, 90
12, 196739, Note_on_c, 6, 64, 0
12, 196740, Note_on_c, 6, 66, 90
12, 196799, Note_on_c, 6, 66, 0
12, 196800, Note_on_c, 6, 66, 90
12, 196859, Note_on_c, 6, 66, 0
12, 196860, Note_on_c, 6, 64, 90
12, 196919, Note_on_c, 6, 64, 0
12, 196920, Note_on_c, 6, 64, 90
12, 196979, Note_on_c, 6, 64, 0
12, 196980, Note_on_c, 6, 62, 90
12, 197039, Note_on_c, 6, 62, 0
12, 197100, Note_on_c, 6, 62, 90
12, 197159, Note_on_c, 6, 62, 0
12, 197220, Note_on_c, 6, 62, 90
12, 197279, Note_on_c, 6, 62, 0
12, 197340, Note_on_c, 6, 66, 90
12, 197399, Note_on_c, 6, 66, 0
12, 197460, Note_on_c, 6, 69, 90
12, 197519, Note_on_c, 6, 69, 0
12, 197640, Note_on_c, 6, 66, 90
12, 197699, Note_on_c, 6, 66, 0
12, 197700, Note_on_c, 6, 71, 90
12, 197759, Note_on_c, 6, 71, 0
12, 197760, Note_on_c, 6, 71, 90
12, 197819, Note_on_c, 6, 71, 0
12, 197820, Note_on_c, 6, 69, 90
12, 197879, Note_on_c, 6, 69, 0
12, 197880, Note_on_c, 6, 69, 90
12, 197939, Note_on_c, 6, 69, 0
12, 197940, Note_on_c, 6, 67, 90
12, 197999, Note_on_c, 6, 67, 0
12, 198120, Note_on_c, 6, 64, 90
12, 198150, Note_on_c, 6, 64, 0
12, 198180, Note_on_c, 6, 72, 90
12, 198210, Note_on_c, 6, 72, 0
12, 198300, Note_on_c, 6, 66, 90
12, 198330, Note_on_c, 6, 66, 0
12, 198420, Note_on_c, 6, 71, 90
12, 198450, Note_on_c, 6, 71, 0
12, 198540, Note_on_c, 6, 64, 90
12, 198570, Note_on_c, 6, 64, 0
12, 198660, Note_on_c, 6, 69, 90
12, 198719, Note_on_c, 6, 69, 0
12, 198720, Note_on_c, 6, 62, 90
12, 198779, Note_on_c, 6, 62, 0
12, 198780, Note_on_c, 6, 67, 90
12, 198839, Note_on_c, 6, 67, 0
12, 198840, Note_on_c, 6, 59, 90
12, 198899, Note_on_c, 6, 59, 0
12, 198900, Note_on_c, 6, 57, 90
12, 198959, Note_on_c, 6, 57, 0
12, 198960, Note_on_c, 6, 64, 90
12, 199019, Note_on_c, 6, 64, 0
12, 199020, Note_on_c, 6, 69, 90
12, 199199, Note_on_c, 6, 69, 0
12, 199200, Note_on_c, 6, 57, 90
12, 199259, Note_on_c, 6, 57, 0
12, 199260, Note_on_c, 6, 59, 90
12, 199319, Note_on_c, 6, 59, 0
12, 199320, Note_on_c, 6, 64, 90
12, 199379, Note_on_c, 6, 64, 0
12, 199380, Note_on_c, 6, 66, 90
12, 199619, Note_on_c, 6, 66, 0
12, 199980, Note_on_c, 6, 66, 90
12, 200099, Note_on_c, 6, 66, 0
12, 200100, Note_on_c, 6, 64, 90
12, 200219, Note_on_c, 6, 64, 0
12, 200220, Note_on_c, 6, 62, 90
12, 200339, Note_on_c, 6, 62, 0
12, 200340, Note_on_c, 6, 61, 90
12, 200459, Note_on_c, 6, 61, 0
12, 200460, Note_on_c, 6, 62, 90
12, 200519, Note_on_c, 6, 62, 0
12, 200520, Note_on_c, 6, 61, 90
12, 200579, Note_on_c, 6, 61, 0
12, 200580, Note_on_c, 6, 59, 90
12, 200639, Note_on_c, 6, 59, 0
12, 200640, Note_on_c, 6, 57, 90
12, 200699, Note_on_c, 6, 57, 0
12, 200700, Note_on_c, 6, 55, 90
12, 200819, Note_on_c, 6, 55, 0
12, 200820, Note_on_c, 6, 57, 90
12, 200939, Note_on_c, 6, 57, 0
12, 201660, Note_on_c, 6, 57, 90
12, 201779, Note_on_c, 6, 57, 0
12, 201780, Note_on_c, 6, 62, 90
12, 201899, Note_on_c, 6, 62, 0
12, 201900, Note_on_c, 6, 62, 90
12, 202019, Note_on_c, 6, 62, 0
12, 202020, Note_on_c, 6, 61, 90
12, 202139, Note_on_c, 6, 61, 0
12, 202140, Note_on_c, 6, 60, 90
12, 202199, Note_on_c, 6, 60, 0
12, 202200, Note_on_c, 6, 59, 90
12, 202259, Note_on_c, 6, 59, 0
12, 202260, Note_on_c, 6, 57, 90
12, 202379, Note_on_c, 6, 57, 0
12, 202380, Note_on_c, 6, 57, 90
12, 202499, Note_on_c, 6, 57, 0
12, 202500, Note_on_c, 6, 57, 90
12, 202619, Note_on_c, 6, 57, 0
12, 203340, Note_on_c, 6, 57, 90
12, 203459, Note_on_c, 6, 57, 0
12, 203460, Note_on_c, 6, 57, 90
12, 203579, Note_on_c, 6, 57, 0
12, 203580, Note_on_c, 6, 56, 90
12, 203699, Note_on_c, 6, 56, 0
12, 203700, Note_on_c, 6, 57, 90
12, 203759, Note_on_c, 6, 57, 0
12, 203760, Note_on_c, 6, 62, 90
12, 203819, Note_on_c, 6, 62, 0
12, 203820, Note_on_c, 6, 61, 90
12, 203879, Note_on_c, 6, 61, 0
12, 203880, Note_on_c, 6, 59, 90
12, 203939, Note_on_c, 6, 59, 0
12, 203940, Note_on_c, 6, 57, 90
12, 203999, Note_on_c, 6, 57, 0
12, 204000, Note_on_c, 6, 61, 90
12, 204059, Note_on_c, 6, 61, 0
12, 204060, Note_on_c, 6, 66, 90
12, 204119, Note_on_c, 6, 66, 0
12, 204120, Note_on_c, 6, 64, 90
12, 204179, Note_on_c, 6, 64, 0
12, 204180, Note_on_c, 6, 61, 90
12, 204299, Note_on_c, 6, 61, 0
12, 205020, Note_on_c, 6, 62, 90
12, 205079, Note_on_c, 6, 62, 0
12, 205080, Note_on_c, 6, 59, 90
12, 205139, Note_on_c, 6, 59, 0
12, 205140, Note_on_c, 6, 59, 90
12, 205199, Note_on_c, 6, 59, 0
12, 205200, Note_on_c, 6, 57, 90
12, 205259, Note_on_c, 6, 57, 0
12, 205260, Note_on_c, 6, 57, 90
12, 205319, Note_on_c, 6, 57, 0
12, 205320, Note_on_c, 6, 55, 90
12, 205379, Note_on_c, 6, 55, 0
12, 205380, Note_on_c, 6, 57, 90
12, 205499, Note_on_c, 6, 57, 0
12, 205500, Note_on_c, 6, 55, 90
12, 205559, Note_on_c, 6, 55, 0
12, 205560, Note_on_c, 6, 54, 90
12, 205619, Note_on_c, 6, 54, 0
12, 205620, Note_on_c, 6, 50, 90
12, 205739, Note_on_c, 6, 50, 0
12, 205740, Note_on_c, 6, 57, 90
12, 205799, Note_on_c, 6, 57, 0
12, 205800, Note_on_c, 6, 55, 90
12, 205859, Note_on_c, 6, 55, 0
12, 205860, Note_on_c, 6, 54, 90
12, 205979, Note_on_c, 6, 54, 0
12, 205979, End_track
13, 0, Start_track
13, 0, MIDI_port, 0
13, 0, Title_t, "Evangelist"
13, 61170, Control_c, 11, 0, 20
13, 61170, Program_c, 11, 57
13, 61200, Note_on_c, 11, 66, 90
13, 61229, Note_on_c, 11, 66, 0
13, 61230, Note_on_c, 11, 66, 90
13, 61259, Note_on_c, 11, 66, 0
13, 61260, Note_on_c, 11, 71, 90
13, 61319, Note_on_c, 11, 71, 0
13, 61320, Note_on_c, 11, 70, 90
13, 61379, Note_on_c, 11, 70, 0
13, 61380, Note_on_c, 11, 71, 90
13, 61439, Note_on_c, 11, 71, 0
13, 61440, Note_on_c, 11, 71, 90
13, 61499, Note_on_c, 11, 71, 0
13, 61500, Note_on_c, 11, 71, 90
13, 61559, Note_on_c, 11, 71, 0
13, 61560, Note_on_c, 11, 73, 90
13, 61619, Note_on_c, 11, 73, 0
13, 61620, Note_on_c, 11, 74, 90
13, 61739, Note_on_c, 11, 74, 0
13, 61800, Note_on_c, 11, 71, 90
13, 61859, Note_on_c, 11, 71, 0
13, 61860, Note_on_c, 11, 74, 90
13, 61919, Note_on_c, 11, 74, 0
13, 61920, Note_on_c, 11, 76, 90
13, 61979, Note_on_c, 11, 76, 0
13, 61980, Note_on_c, 11, 78, 90
13, 62039, Note_on_c, 11, 78, 0
13, 62040, Note_on_c, 11, 78, 90
13, 62069, Note_on_c, 11, 78, 0
13, 62070, Note_on_c, 11, 78, 90
13, 62099, Note_on_c, 11, 78, 0
13, 62100, Note_on_c, 11, 74, 90
13, 62159, Note_on_c, 11, 74, 0
13, 62160, Note_on_c, 11, 74, 90
13, 62189, Note_on_c, 11, 74, 0
13, 62190, Note_on_c, 11, 74, 90
13, 62219, Note_on_c, 11, 74, 0
13, 62220, Note_on_c, 11, 78, 90
13, 62279, Note_on_c, 11, 78, 0
13, 62280, Note_on_c, 11, 71, 90
13, 62339, Note_on_c, 11, 71, 0
13, 62340, Note_on_c, 11, 79, 90
13, 62399, Note_on_c, 11, 79, 0
13, 62400, Note_on_c, 11, 79, 90
13, 62459, Note_on_c, 11, 79, 0
13, 62490, Note_on_c, 11, 73, 90
13, 62519, Note_on_c, 11, 73, 0
13, 62520, Note_on_c, 11, 73, 90
13, 62549, Note_on_c, 11, 73, 0
13, 62550, Note_on_c, 11, 74, 90
13, 62579, Note_on_c, 11, 74, 0
13, 62580, Note_on_c, 11, 76, 90
13, 62639, Note_on_c, 11, 76, 0
13, 62640, Note_on_c, 11, 76, 90
13, 62699, Note_on_c, 11, 76, 0
13, 62700, Note_on_c, 11, 78, 90
13, 62759, Note_on_c, 11, 78, 0
13, 62760, Note_on_c, 11, 73, 90
13, 62819, Note_on_c, 11, 73, 0
13, 62820, Note_on_c, 11, 74, 90
13, 62879, Note_on_c, 11, 74, 0
13, 62880, Note_on_c, 11, 74, 90
13, 62939, Note_on_c, 11, 74, 0
13, 63000, Note_on_c, 11, 78, 90
13, 63059, Note_on_c, 11, 78, 0
13, 63060, Note_on_c, 11, 71, 90
13, 63119, Note_on_c, 11, 71, 0
13, 63120, Note_on_c, 11, 71, 90
13, 63149, Note_on_c, 11, 71, 0
13, 63150, Note_on_c, 11, 73, 90
13, 63179, Note_on_c, 11, 73, 0
13, 63180, Note_on_c, 11, 74, 90
13, 63239, Note_on_c, 11, 74, 0
13, 63240, Note_on_c, 11, 71, 90
13, 63299, Note_on_c, 11, 71, 0
13, 63300, Note_on_c, 11, 67, 90
13, 63359, Note_on_c, 11, 67, 0
13, 63360, Note_on_c, 11, 67, 90
13, 63419, Note_on_c, 11, 67, 0
13, 63420, Note_on_c, 11, 71, 90
13, 63479, Note_on_c, 11, 71, 0
13, 63480, Note_on_c, 11, 67, 90
13, 63539, Note_on_c, 11, 67, 0
13, 63540, Note_on_c, 11, 64, 90
13, 63599, Note_on_c, 11, 64, 0
13, 63600, Note_on_c, 11, 64, 90
13, 63659, Note_on_c, 11, 64, 0
13, 63720, Note_on_c, 11, 69, 90
13, 63779, Note_on_c, 11, 69, 0
13, 63780, Note_on_c, 11, 76, 90
13, 63809, Note_on_c, 11, 76, 0
13, 63810, Note_on_c, 11, 76, 90
13, 63839, Note_on_c, 11, 76, 0
13, 63840, Note_on_c, 11, 73, 90
13, 63869, Note_on_c, 11, 73, 0
13, 63870, Note_on_c, 11, 69, 90
13, 63899, Note_on_c, 11, 69, 0
13, 63900, Note_on_c, 11, 81, 90
13, 63959, Note_on_c, 11, 81, 0
13, 63960, Note_on_c, 11, 76, 90
13, 64019, Note_on_c, 11, 76, 0
13, 64020, Note_on_c, 11, 78, 90
13, 64139, Note_on_c, 11, 78, 0
13, 64200, Note_on_c, 11, 69, 90
13, 64259, Note_on_c, 11, 69, 0
13, 64260, Note_on_c, 11, 74, 90
13, 64319, Note_on_c, 11, 74, 0
13, 64320, Note_on_c, 11, 74, 90
13, 64379, Note_on_c, 11, 74, 0
13, 64380, Note_on_c, 11, 74, 90
13, 64439, Note_on_c, 11, 74, 0
13, 64440, Note_on_c, 11, 76, 90
13, 64499, Note_on_c, 11, 76, 0
13, 64500, Note_on_c, 11, 78, 90
13, 64559, Note_on_c, 11, 78, 0
13, 64620, Note_on_c, 11, 81, 90
13, 64679, Note_on_c, 11, 81, 0
13, 64680, Note_on_c, 11, 74, 90
13, 64739, Note_on_c, 11, 74, 0
13, 64800, Note_on_c, 11, 69, 90
13, 64859, Note_on_c, 11, 69, 0
13, 64860, Note_on_c, 11, 72, 90
13, 64919, Note_on_c, 11, 72, 0
13, 64920, Note_on_c, 11, 71, 90
13, 64979, Note_on_c, 11, 71, 0
13, 64980, Note_on_c, 11, 71, 90
13, 65039, Note_on_c, 11, 71, 0
13, 65040, Note_on_c, 11, 71, 90
13, 65099, Note_on_c, 11, 71, 0
13, 65160, Note_on_c, 11, 71, 90
13, 65219, Note_on_c, 11, 71, 0
13, 65220, Note_on_c, 11, 71, 90
13, 65279, Note_on_c, 11, 71, 0
13, 65280, Note_on_c, 11, 66, 90
13, 65339, Note_on_c, 11, 66, 0
13, 65340, Note_on_c, 11, 63, 90
13, 65429, Note_on_c, 11, 63, 0
13, 65430, Note_on_c, 11, 63, 90
13, 65459, Note_on_c, 11, 63, 0
13, 65460, Note_on_c, 11, 63, 90
13, 65519, Note_on_c, 11, 63, 0
13, 65520, Note_on_c, 11, 66, 90
13, 65549, Note_on_c, 11, 66, 0
13, 65550, Note_on_c, 11, 69, 90
13, 65579, Note_on_c, 11, 69, 0
13, 65580, Note_on_c, 11, 72, 90
13, 65639, Note_on_c, 11, 72, 0
13, 65640, Note_on_c, 11, 72, 90
13, 65669, Note_on_c, 11, 72, 0
13, 65670, Note_on_c, 11, 71, 90
13, 65699, Note_on_c, 11, 71, 0
13, 65700, Note_on_c, 11, 67, 90
13, 65759, Note_on_c, 11, 67, 0
13, 65820, Note_on_c, 11, 67, 90
13, 65879, Note_on_c, 11, 67, 0
13, 65880, Note_on_c, 11, 69, 90
13, 65939, Note_on_c, 11, 69, 0
13, 65940, Note_on_c, 11, 71, 90
13, 65999, Note_on_c, 11, 71, 0
13, 66000, Note_on_c, 11, 64, 90
13, 66059, Note_on_c, 11, 64, 0
13, 66120, Note_on_c, 11, 71, 90
13, 66149, Note_on_c, 11, 71, 0
13, 66150, Note_on_c, 11, 71, 90
13, 66179, Note_on_c, 11, 71, 0
13, 66180, Note_on_c, 11, 76, 90
13, 66239, Note_on_c, 11, 76, 0
13, 66240, Note_on_c, 11, 71, 90
13, 66299, Note_on_c, 11, 71, 0
13, 66300, Note_on_c, 11, 74, 90
13, 66359, Note_on_c, 11, 74, 0
13, 66360, Note_on_c, 11, 73, 90
13, 66419, Note_on_c, 11, 73, 0
13, 66420, Note_on_c, 11, 70, 90
13, 66479, Note_on_c, 11, 70, 0
13, 66510, Note_on_c, 11, 70, 90
13, 66539, Note_on_c, 11, 70, 0
13, 66540, Note_on_c, 11, 76, 90
13, 66599, Note_on_c, 11, 76, 0
13, 66600, Note_on_c, 11, 76, 90
13, 66629, Note_on_c, 11, 76, 0
13, 66630, Note_on_c, 11, 78, 90
13, 66659, Note_on_c, 11, 78, 0
13, 66660, Note_on_c, 11, 79, 90
13, 66719, Note_on_c, 11, 79, 0
13, 66720, Note_on_c, 11, 76, 90
13, 66779, Note_on_c, 11, 76, 0
13, 66780, Note_on_c, 11, 73, 90
13, 66809, Note_on_c, 11, 73, 0
13, 66810, Note_on_c, 11, 73, 90
13, 66839, Note_on_c, 11, 73, 0
13, 66840, Note_on_c, 11, 73, 90
13, 66869, Note_on_c, 11, 73, 0
13, 66870, Note_on_c, 11, 74, 90
13, 66899, Note_on_c, 11, 74, 0
13, 66900, Note_on_c, 11, 76, 90
13, 66959, Note_on_c, 11, 76, 0
13, 66960, Note_on_c, 11, 76, 90
13, 67019, Note_on_c, 11, 76, 0
13, 67020, Note_on_c, 11, 78, 90
13, 67079, Note_on_c, 11, 78, 0
13, 67080, Note_on_c, 11, 73, 90
13, 67139, Note_on_c, 11, 73, 0
13, 67140, Note_on_c, 11, 74, 90
13, 67259, Note_on_c, 11, 74, 0
13, 67320, Note_on_c, 11, 71, 90
13, 67379, Note_on_c, 11, 71, 0
13, 67380, Note_on_c, 11, 77, 90
13, 67439, Note_on_c, 11, 77, 0
13, 67440, Note_on_c, 11, 77, 90
13, 67469, Note_on_c, 11, 77, 0
13, 67470, Note_on_c, 11, 77, 90
13, 67499, Note_on_c, 11, 77, 0
13, 67500, Note_on_c, 11, 77, 90
13, 67559, Note_on_c, 11, 77, 0
13, 67560, Note_on_c, 11, 78, 90
13, 67619, Note_on_c, 11, 78, 0
13, 67620, Note_on_c, 11, 80, 90
13, 67679, Note_on_c, 11, 80, 0
13, 67680, Note_on_c, 11, 73, 90
13, 67739, Note_on_c, 11, 73, 0
13, 67740, Note_on_c, 11, 73, 90
13, 67799, Note_on_c, 11, 73, 0
13, 67800, Note_on_c, 11, 74, 90
13, 67859, Note_on_c, 11, 74, 0
13, 67860, Note_on_c, 11, 71, 90
13, 67919, Note_on_c, 11, 71, 0
13, 67920, Note_on_c, 11, 71, 90
13, 67979, Note_on_c, 11, 71, 0
13, 68100, Note_on_c, 11, 68, 90
13, 68159, Note_on_c, 11, 68, 0
13, 68160, Note_on_c, 11, 68, 90
13, 68189, Note_on_c, 11, 68, 0
13, 68190, Note_on_c, 11, 68, 90
13, 68219, Note_on_c, 11, 68, 0
13, 68220, Note_on_c, 11, 71, 90
13, 68279, Note_on_c, 11, 71, 0
13, 68280, Note_on_c, 11, 68, 90
13, 68339, Note_on_c, 11, 68, 0
13, 68340, Note_on_c, 11, 65, 90
13, 68399, Note_on_c, 11, 65, 0
13, 68400, Note_on_c, 11, 65, 90
13, 68459, Note_on_c, 11, 65, 0
13, 68460, Note_on_c, 11, 73, 90
13, 68519, Note_on_c, 11, 73, 0
13, 68520, Note_on_c, 11, 68, 90
13, 68579, Note_on_c, 11, 68, 0
13, 68580, Note_on_c, 11, 69, 90
13, 68639, Note_on_c, 11, 69, 0
13, 68640, Note_on_c, 11, 69, 90
13, 68699, Note_on_c, 11, 69, 0
13, 68760, Note_on_c, 11, 73, 90
13, 68819, Note_on_c, 11, 73, 0
13, 68820, Note_on_c, 11, 78, 90
13, 68879, Note_on_c, 11, 78, 0
13, 68880, Note_on_c, 11, 78, 90
13, 68939, Note_on_c, 11, 78, 0
13, 68940, Note_on_c, 11, 81, 90
13, 68999, Note_on_c, 11, 81, 0
13, 69000, Note_on_c, 11, 78, 90
13, 69059, Note_on_c, 11, 78, 0
13, 69060, Note_on_c, 11, 75, 90
13, 69119, Note_on_c, 11, 75, 0
13, 69120, Note_on_c, 11, 75, 90
13, 69179, Note_on_c, 11, 75, 0
13, 69180, Note_on_c, 11, 78, 90
13, 69239, Note_on_c, 11, 78, 0
13, 69240, Note_on_c, 11, 71, 90
13, 69299, Note_on_c, 11, 71, 0
13, 69300, Note_on_c, 11, 76, 90
13, 69419, Note_on_c, 11, 76, 0
13, 69480, Note_on_c, 11, 71, 90
13, 69539, Note_on_c, 11, 71, 0
13, 69540, Note_on_c, 11, 73, 90
13, 69599, Note_on_c, 11, 73, 0
13, 69600, Note_on_c, 11, 69, 90
13, 69659, Note_on_c, 11, 69, 0
13, 69660, Note_on_c, 11, 66, 90
13, 69719, Note_on_c, 11, 66, 0
13, 69720, Note_on_c, 11, 68, 90
13, 69749, Note_on_c, 11, 68, 0
13, 69750, Note_on_c, 11, 69, 90
13, 69779, Note_on_c, 11, 69, 0
13, 69780, Note_on_c, 11, 69, 90
13, 69839, Note_on_c, 11, 69, 0
13, 69840, Note_on_c, 11, 64, 90
13, 69899, Note_on_c, 11, 64, 0
13, 124320, Control_c, 11, 0, 20
13, 124320, Program_c, 11, 57
13, 124320, Note_on_c, 11, 71, 90
13, 124379, Note_on_c, 11, 71, 0
13, 124380, Note_on_c, 11, 75, 90
13, 124439, Note_on_c, 11, 75, 0
13, 124440, Note_on_c, 11, 76, 90
13, 124499, Note_on_c, 11, 76, 0
13, 124500, Note_on_c, 11, 78, 90
13, 124559, Note_on_c, 11, 78, 0
13, 124560, Note_on_c, 11, 78, 90
13, 124589, Note_on_c, 11, 78, 0
13, 124590, Note_on_c, 11, 79, 90
13, 124619, Note_on_c, 11, 79, 0
13, 124620, Note_on_c, 11, 81, 90
13, 124679, Note_on_c, 11, 81, 0
13, 124680, Note_on_c, 11, 78, 90
13, 124739, Note_on_c, 11, 78, 0
13, 124740, Note_on_c, 11, 79, 90
13, 124859, Note_on_c, 11, 79, 0
13, 124920, Note_on_c, 11, 76, 90
13, 124979, Note_on_c, 11, 76, 0
13, 124980, Note_on_c, 11, 73, 90
13, 125039, Note_on_c, 11, 73, 0
13, 125040, Note_on_c, 11, 73, 90
13, 125069, Note_on_c, 11, 73, 0
13, 125070, Note_on_c, 11, 73, 90
13, 125099, Note_on_c, 11, 73, 0
13, 125100, Note_on_c, 11, 73, 90
13, 125159, Note_on_c, 11, 73, 0
13, 125160, Note_on_c, 11, 74, 90
13, 125219, Note_on_c, 11, 74, 0
13, 125220, Note_on_c, 11, 76, 90
13, 125279, Note_on_c, 11, 76, 0
13, 125280, Note_on_c, 11, 69, 90
13, 125339, Note_on_c, 11, 69, 0
13, 125400, Note_on_c, 11, 69, 90
13, 125459, Note_on_c, 11, 69, 0
13, 125460, Note_on_c, 11, 69, 90
13, 125519, Note_on_c, 11, 69, 0
13, 125520, Note_on_c, 11, 64, 90
13, 125579, Note_on_c, 11, 64, 0
13, 125580, Note_on_c, 11, 64, 90
13, 125609, Note_on_c, 11, 64, 0
13, 125610, Note_on_c, 11, 65, 90
13, 125639, Note_on_c, 11, 65, 0
13, 125640, Note_on_c, 11, 67, 90
13, 125669, Note_on_c, 11, 67, 0
13, 125670, Note_on_c, 11, 65, 90
13, 125699, Note_on_c, 11, 65, 0
13, 125700, Note_on_c, 11, 65, 90
13, 125759, Note_on_c, 11, 65, 0
13, 125760, Note_on_c, 11, 65, 90
13, 125819, Note_on_c, 11, 65, 0
13, 125880, Note_on_c, 11, 77, 90
13, 125909, Note_on_c, 11, 77, 0
13, 125910, Note_on_c, 11, 74, 90
13, 125939, Note_on_c, 11, 74, 0
13, 125940, Note_on_c, 11, 71, 90
13, 125999, Note_on_c, 11, 71, 0
13, 126000, Note_on_c, 11, 72, 90
13, 126059, Note_on_c, 11, 72, 0
13, 126060, Note_on_c, 11, 74, 90
13, 126119, Note_on_c, 11, 74, 0
13, 126120, Note_on_c, 11, 71, 90
13, 126149, Note_on_c, 11, 71, 0
13, 126150, Note_on_c, 11, 67, 90
13, 126179, Note_on_c, 11, 67, 0
13, 126180, Note_on_c, 11, 76, 90
13, 126239, Note_on_c, 11, 76, 0
13, 126240, Note_on_c, 11, 64, 90
13, 126299, Note_on_c, 11, 64, 0
13, 126300, Note_on_c, 11, 66, 90
13, 126359, Note_on_c, 11, 66, 0
13, 126360, Note_on_c, 11, 67, 90
13, 126479, Note_on_c, 11, 67, 0
13, 126480, Note_on_c, 11, 62, 90
13, 126509, Note_on_c, 11, 62, 0
13, 126510, Note_on_c, 11, 62, 90
13, 126539, Note_on_c, 11, 62, 0
13, 126539, End_track
14, 0, Start_track
14, 0, MIDI_port, 0
14, 0, Title_t, "Soprano Solo/Coro"
14, 0, Program_c, 8, 52
14, 5760, Note_on_c, 8, 62, 127
14, 5819, Note_on_c, 8, 62, 0
14, 5820, Note_on_c, 8, 62, 127
14, 5879, Note_on_c, 8, 62, 0
14, 5880, Note_on_c, 8, 62, 127
14, 5939, Note_on_c, 8, 62, 0
14, 5940, Note_on_c, 8, 62, 127
14, 5999, Note_on_c, 8, 62, 0
14, 6000, Note_on_c, 8, 57, 127
14, 6059, Note_on_c, 8, 57, 0
14, 6420, Note_on_c, 8, 69, 127
14, 6479, Note_on_c, 8, 69, 0
14, 6480, Note_on_c, 8, 69, 127
14, 6539, Note_on_c, 8, 69, 0
14, 6540, Note_on_c, 8, 74, 127
14, 6569, Note_on_c, 8, 74, 0
14, 6570, Note_on_c, 8, 69, 127
14, 6599, Note_on_c, 8, 69, 0
14, 6600, Note_on_c, 8, 66, 127
14, 6629, Note_on_c, 8, 66, 0
14, 6630, Note_on_c, 8, 62, 127
14, 6659, Note_on_c, 8, 62, 0
14, 6660, Note_on_c, 8, 69, 127
14, 6719, Note_on_c, 8, 69, 0
14, 6720, Note_on_c, 8, 69, 127
14, 6779, Note_on_c, 8, 69, 0
14, 6900, Note_on_c, 8, 81, 127
14, 6959, Note_on_c, 8, 81, 0
14, 6960, Note_on_c, 8, 78, 127
14, 7019, Note_on_c, 8, 78, 0
14, 7140, Note_on_c, 8, 78, 127
14, 7199, Note_on_c, 8, 78, 0
14, 7200, Note_on_c, 8, 78, 127
14, 7259, Note_on_c, 8, 78, 0
14, 7260, Note_on_c, 8, 74, 127
14, 7319, Note_on_c, 8, 74, 0
14, 7560, Note_on_c, 8, 78, 127
14, 7619, Note_on_c, 8, 78, 0
14, 7620, Note_on_c, 8, 78, 127
14, 7679, Note_on_c, 8, 78, 0
14, 7680, Note_on_c, 8, 78, 127
14, 7739, Note_on_c, 8, 78, 0
14, 7740, Note_on_c, 8, 78, 127
14, 7799, Note_on_c, 8, 78, 0
14, 7800, Note_on_c, 8, 76, 127
14, 7829, Note_on_c, 8, 76, 0
14, 7830, Note_on_c, 8, 74, 127
14, 7859, Note_on_c, 8, 74, 0
14, 7860, Note_on_c, 8, 76, 127
14, 7889, Note_on_c, 8, 76, 0
14, 7890, Note_on_c, 8, 78, 127
14, 7919, Note_on_c, 8, 78, 0
14, 7920, Note_on_c, 8, 79, 127
14, 7979, Note_on_c, 8, 79, 0
14, 7980, Note_on_c, 8, 79, 127
14, 8039, Note_on_c, 8, 79, 0
14, 8040, Note_on_c, 8, 79, 127
14, 8099, Note_on_c, 8, 79, 0
14, 8100, Note_on_c, 8, 79, 127
14, 8159, Note_on_c, 8, 79, 0
14, 8160, Note_on_c, 8, 78, 127
14, 8189, Note_on_c, 8, 78, 0
14, 8190, Note_on_c, 8, 76, 127
14, 8219, Note_on_c, 8, 76, 0
14, 8220, Note_on_c, 8, 78, 127
14, 8249, Note_on_c, 8, 78, 0
14, 8250, Note_on_c, 8, 79, 127
14, 8279, Note_on_c, 8, 79, 0
14, 8280, Note_on_c, 8, 81, 127
14, 8339, Note_on_c, 8, 81, 0
14, 8340, Note_on_c, 8, 72, 127
14, 8399, Note_on_c, 8, 72, 0
14, 8400, Note_on_c, 8, 72, 127
14, 8459, Note_on_c, 8, 72, 0
14, 8460, Note_on_c, 8, 72, 127
14, 8519, Note_on_c, 8, 72, 0
14, 8520, Note_on_c, 8, 71, 127
14, 8579, Note_on_c, 8, 71, 0
14, 8580, Note_on_c, 8, 79, 127
14, 8639, Note_on_c, 8, 79, 0
14, 8640, Note_on_c, 8, 78, 127
14, 8699, Note_on_c, 8, 78, 0
14, 8700, Note_on_c, 8, 76, 127
14, 8759, Note_on_c, 8, 76, 0
14, 8760, Note_on_c, 8, 74, 127
14, 8819, Note_on_c, 8, 74, 0
14, 8820, Note_on_c, 8, 81, 127
14, 8939, Note_on_c, 8, 81, 0
14, 9420, Note_on_c, 8, 71, 127
14, 9449, Note_on_c, 8, 71, 0
14, 9450, Note_on_c, 8, 73, 127
14, 9479, Note_on_c, 8, 73, 0
14, 9480, Note_on_c, 8, 74, 127
14, 9494, Note_on_c, 8, 74, 0
14, 9495, Note_on_c, 8, 73, 127
14, 9509, Note_on_c, 8, 73, 0
14, 9510, Note_on_c, 8, 71, 127
14, 9524, Note_on_c, 8, 71, 0
14, 9525, Note_on_c, 8, 73, 127
14, 9539, Note_on_c, 8, 73, 0
14, 9540, Note_on_c, 8, 74, 127
14, 9599, Note_on_c, 8, 74, 0
14, 9600, Note_on_c, 8, 74, 127
14, 9659, Note_on_c, 8, 74, 0
14, 9660, Note_on_c, 8, 76, 127
14, 9719, Note_on_c, 8, 76, 0
14, 9720, Note_on_c, 8, 78, 127
14, 9779, Note_on_c, 8, 78, 0
14, 9780, Note_on_c, 8, 78, 127
14, 9839, Note_on_c, 8, 78, 0
14, 9840, Note_on_c, 8, 80, 127
14, 9899, Note_on_c, 8, 80, 0
14, 9900, Note_on_c, 8, 81, 127
14, 9959, Note_on_c, 8, 81, 0
14, 9960, Note_on_c, 8, 76, 127
14, 10019, Note_on_c, 8, 76, 0
14, 10020, Note_on_c, 8, 76, 127
14, 10079, Note_on_c, 8, 76, 0
14, 10080, Note_on_c, 8, 76, 127
14, 10139, Note_on_c, 8, 76, 0
14, 10140, Note_on_c, 8, 73, 127
14, 10199, Note_on_c, 8, 73, 0
14, 10320, Note_on_c, 8, 67, 127
14, 10349, Note_on_c, 8, 67, 0
14, 10350, Note_on_c, 8, 69, 127
14, 10379, Note_on_c, 8, 69, 0
14, 10380, Note_on_c, 8, 71, 127
14, 10394, Note_on_c, 8, 71, 0
14, 10395, Note_on_c, 8, 69, 127
14, 10409, Note_on_c, 8, 69, 0
14, 10410, Note_on_c, 8, 67, 127
14, 10424, Note_on_c, 8, 67, 0
14, 10425, Note_on_c, 8, 69, 127
14, 10439, Note_on_c, 8, 69, 0
14, 10440, Note_on_c, 8, 71, 127
14, 10499, Note_on_c, 8, 71, 0
14, 10500, Note_on_c, 8, 71, 127
14, 10559, Note_on_c, 8, 71, 0
14, 10560, Note_on_c, 8, 73, 127
14, 10619, Note_on_c, 8, 73, 0
14, 10620, Note_on_c, 8, 74, 127
14, 10679, Note_on_c, 8, 74, 0
14, 10680, Note_on_c, 8, 74, 127
14, 10739, Note_on_c, 8, 74, 0
14, 10740, Note_on_c, 8, 73, 127
14, 10799, Note_on_c, 8, 73, 0
14, 10800, Note_on_c, 8, 74, 127
14, 10859, Note_on_c, 8, 74, 0
14, 10860, Note_on_c, 8, 78, 127
14, 10919, Note_on_c, 8, 78, 0
14, 10920, Note_on_c, 8, 76, 127
14, 10979, Note_on_c, 8, 76, 0
14, 10980, Note_on_c, 8, 73, 127
14, 11039, Note_on_c, 8, 73, 0
14, 11040, Note_on_c, 8, 73, 127
14, 11099, Note_on_c, 8, 73, 0
14, 11100, Note_on_c, 8, 75, 127
14, 11159, Note_on_c, 8, 75, 0
14, 11160, Note_on_c, 8, 76, 127
14, 11219, Note_on_c, 8, 76, 0
14, 11220, Note_on_c, 8, 76, 127
14, 11249, Note_on_c, 8, 76, 0
14, 11250, Note_on_c, 8, 78, 127
14, 11279, Note_on_c, 8, 78, 0
14, 11280, Note_on_c, 8, 79, 127
14, 11294, Note_on_c, 8, 79, 0
14, 11295, Note_on_c, 8, 78, 127
14, 11309, Note_on_c, 8, 78, 0
14, 11310, Note_on_c, 8, 76, 127
14, 11324, Note_on_c, 8, 76, 0
14, 11325, Note_on_c, 8, 78, 127
14, 11339, Note_on_c, 8, 78, 0
14, 11340, Note_on_c, 8, 79, 127
14, 11399, Note_on_c, 8, 79, 0
14, 11400, Note_on_c, 8, 79, 127
14, 11459, Note_on_c, 8, 79, 0
14, 11460, Note_on_c, 8, 71, 127
14, 11519, Note_on_c, 8, 71, 0
14, 11520, Note_on_c, 8, 70, 127
14, 11549, Note_on_c, 8, 70, 0
14, 11550, Note_on_c, 8, 73, 127
14, 11579, Note_on_c, 8, 73, 0
14, 11580, Note_on_c, 8, 76, 127
14, 11699, Note_on_c, 8, 76, 0
14, 11700, Note_on_c, 8, 67, 127
14, 11714, Note_on_c, 8, 67, 0
14, 11715, Note_on_c, 8, 66, 127
14, 11729, Note_on_c, 8, 66, 0
14, 11730, Note_on_c, 8, 64, 127
14, 11759, Note_on_c, 8, 64, 0
14, 11760, Note_on_c, 8, 66, 127
14, 11819, Note_on_c, 8, 66, 0
14, 11820, Note_on_c, 8, 73, 127
14, 11879, Note_on_c, 8, 73, 0
14, 11880, Note_on_c, 8, 78, 127
14, 11939, Note_on_c, 8, 78, 0
14, 11940, Note_on_c, 8, 78, 127
14, 11999, Note_on_c, 8, 78, 0
14, 12000, Note_on_c, 8, 76, 127
14, 12059, Note_on_c, 8, 76, 0
14, 12060, Note_on_c, 8, 76, 127
14, 12119, Note_on_c, 8, 76, 0
14, 12120, Note_on_c, 8, 74, 127
14, 12179, Note_on_c, 8, 74, 0
14, 12180, Note_on_c, 8, 71, 127
14, 12299, Note_on_c, 8, 71, 0
14, 12300, Note_on_c, 8, 74, 127
14, 12359, Note_on_c, 8, 74, 0
14, 12360, Note_on_c, 8, 71, 127
14, 12419, Note_on_c, 8, 71, 0
14, 12420, Note_on_c, 8, 68, 127
14, 12479, Note_on_c, 8, 68, 0
14, 12480, Note_on_c, 8, 64, 127
14, 12539, Note_on_c, 8, 64, 0
14, 12540, Note_on_c, 8, 71, 127
14, 12599, Note_on_c, 8, 71, 0
14, 12600, Note_on_c, 8, 76, 127
14, 12659, Note_on_c, 8, 76, 0
14, 12660, Note_on_c, 8, 76, 127
14, 12719, Note_on_c, 8, 76, 0
14, 12720, Note_on_c, 8, 74, 127
14, 12779, Note_on_c, 8, 74, 0
14, 12780, Note_on_c, 8, 73, 127
14, 12899, Note_on_c, 8, 73, 0
14, 12900, Note_on_c, 8, 73, 127
14, 12959, Note_on_c, 8, 73, 0
14, 12960, Note_on_c, 8, 73, 127
14, 13019, Note_on_c, 8, 73, 0
14, 13020, Note_on_c, 8, 75, 127
14, 13079, Note_on_c, 8, 75, 0
14, 13080, Note_on_c, 8, 76, 127
14, 13139, Note_on_c, 8, 76, 0
14, 13140, Note_on_c, 8, 78, 127
14, 13199, Note_on_c, 8, 78, 0
14, 13200, Note_on_c, 8, 71, 127
14, 13259, Note_on_c, 8, 71, 0
14, 13260, Note_on_c, 8, 71, 127
14, 13319, Note_on_c, 8, 71, 0
14, 13320, Note_on_c, 8, 71, 127
14, 13379, Note_on_c, 8, 71, 0
14, 13380, Note_on_c, 8, 73, 127
14, 13439, Note_on_c, 8, 73, 0
14, 13440, Note_on_c, 8, 74, 127
14, 13499, Note_on_c, 8, 74, 0
14, 13500, Note_on_c, 8, 76, 127
14, 13559, Note_on_c, 8, 76, 0
14, 13560, Note_on_c, 8, 69, 127
14, 13619, Note_on_c, 8, 69, 0
14, 13680, Note_on_c, 8, 69, 127
14, 13739, Note_on_c, 8, 69, 0
14, 13740, Note_on_c, 8, 71, 127
14, 13799, Note_on_c, 8, 71, 0
14, 13800, Note_on_c, 8, 73, 127
14, 13859, Note_on_c, 8, 73, 0
14, 13860, Note_on_c, 8, 74, 127
14, 13919, Note_on_c, 8, 74, 0
14, 13920, Note_on_c, 8, 78, 127
14, 13949, Note_on_c, 8, 78, 0
14, 13950, Note_on_c, 8, 76, 127
14, 13979, Note_on_c, 8, 76, 0
14, 13980, Note_on_c, 8, 74, 127
14, 14039, Note_on_c, 8, 74, 0
14, 14040, Note_on_c, 8, 74, 127
14, 14099, Note_on_c, 8, 74, 0
14, 14100, Note_on_c, 8, 71, 127
14, 14159, Note_on_c, 8, 71, 0
14, 14160, Note_on_c, 8, 76, 127
14, 14219, Note_on_c, 8, 76, 0
14, 14220, Note_on_c, 8, 76, 127
14, 14279, Note_on_c, 8, 76, 0
14, 14280, Note_on_c, 8, 74, 127
14, 14309, Note_on_c, 8, 74, 0
14, 14310, Note_on_c, 8, 73, 127
14, 14339, Note_on_c, 8, 73, 0
14, 14340, Note_on_c, 8, 71, 127
14, 14369, Note_on_c, 8, 71, 0
14, 14370, Note_on_c, 8, 73, 127
14, 14399, Note_on_c, 8, 73, 0
14, 14400, Note_on_c, 8, 69, 127
14, 14519, Note_on_c, 8, 69, 0
14, 15840, Note_on_c, 8, 62, 127
14, 15899, Note_on_c, 8, 62, 0
14, 15900, Note_on_c, 8, 62, 127
14, 15959, Note_on_c, 8, 62, 0
14, 15960, Note_on_c, 8, 62, 127
14, 16019, Note_on_c, 8, 62, 0
14, 16020, Note_on_c, 8, 62, 127
14, 16079, Note_on_c, 8, 62, 0
14, 16080, Note_on_c, 8, 57, 127
14, 16139, Note_on_c, 8, 57, 0
14, 16500, Note_on_c, 8, 69, 127
14, 16559, Note_on_c, 8, 69, 0
14, 16560, Note_on_c, 8, 69, 127
14, 16619, Note_on_c, 8, 69, 0
14, 16620, Note_on_c, 8, 74, 127
14, 16649, Note_on_c, 8, 74, 0
14, 16650, Note_on_c, 8, 69, 127
14, 16679, Note_on_c, 8, 69, 0
14, 16680, Note_on_c, 8, 66, 127
14, 16709, Note_on_c, 8, 66, 0
14, 16710, Note_on_c, 8, 62, 127
14, 16739, Note_on_c, 8, 62, 0
14, 16740, Note_on_c, 8, 69, 127
14, 16799, Note_on_c, 8, 69, 0
14, 16800, Note_on_c, 8, 69, 127
14, 16859, Note_on_c, 8, 69, 0
14, 16980, Note_on_c, 8, 81, 127
14, 17039, Note_on_c, 8, 81, 0
14, 17040, Note_on_c, 8, 78, 127
14, 17099, Note_on_c, 8, 78, 0
14, 17220, Note_on_c, 8, 78, 127
14, 17279, Note_on_c, 8, 78, 0
14, 17280, Note_on_c, 8, 78, 127
14, 17339, Note_on_c, 8, 78, 0
14, 17340, Note_on_c, 8, 74, 127
14, 17399, Note_on_c, 8, 74, 0
14, 17640, Note_on_c, 8, 78, 127
14, 17699, Note_on_c, 8, 78, 0
14, 17700, Note_on_c, 8, 78, 127
14, 17759, Note_on_c, 8, 78, 0
14, 17760, Note_on_c, 8, 78, 127
14, 17819, Note_on_c, 8, 78, 0
14, 17820, Note_on_c, 8, 78, 127
14, 17879, Note_on_c, 8, 78, 0
14, 17880, Note_on_c, 8, 76, 127
14, 17909, Note_on_c, 8, 76, 0
14, 17910, Note_on_c, 8, 74, 127
14, 17939, Note_on_c, 8, 74, 0
14, 17940, Note_on_c, 8, 76, 127
14, 17969, Note_on_c, 8, 76, 0
14, 17970, Note_on_c, 8, 78, 127
14, 17999, Note_on_c, 8, 78, 0
14, 18000, Note_on_c, 8, 79, 127
14, 18059, Note_on_c, 8, 79, 0
14, 18060, Note_on_c, 8, 79, 127
14, 18119, Note_on_c, 8, 79, 0
14, 18120, Note_on_c, 8, 79, 127
14, 18179, Note_on_c, 8, 79, 0
14, 18180, Note_on_c, 8, 79, 127
14, 18239, Note_on_c, 8, 79, 0
14, 18240, Note_on_c, 8, 78, 127
14, 18269, Note_on_c, 8, 78, 0
14, 18270, Note_on_c, 8, 76, 127
14, 18299, Note_on_c, 8, 76, 0
14, 18300, Note_on_c, 8, 78, 127
14, 18329, Note_on_c, 8, 78, 0
14, 18330, Note_on_c, 8, 79, 127
14, 18359, Note_on_c, 8, 79, 0
14, 18360, Note_on_c, 8, 81, 127
14, 18419, Note_on_c, 8, 81, 0
14, 18420, Note_on_c, 8, 72, 127
14, 18479, Note_on_c, 8, 72, 0
14, 18480, Note_on_c, 8, 72, 127
14, 18539, Note_on_c, 8, 72, 0
14, 18540, Note_on_c, 8, 72, 127
14, 18599, Note_on_c, 8, 72, 0
14, 18600, Note_on_c, 8, 71, 127
14, 18659, Note_on_c, 8, 71, 0
14, 18660, Note_on_c, 8, 79, 127
14, 18719, Note_on_c, 8, 79, 0
14, 18720, Note_on_c, 8, 78, 127
14, 18779, Note_on_c, 8, 78, 0
14, 18780, Note_on_c, 8, 76, 127
14, 18839, Note_on_c, 8, 76, 0
14, 18840, Note_on_c, 8, 74, 127
14, 18899, Note_on_c, 8, 74, 0
14, 18900, Note_on_c, 8, 81, 127
14, 19019, Note_on_c, 8, 81, 0
14, 19500, Note_on_c, 8, 73, 127
14, 19529, Note_on_c, 8, 73, 0
14, 19530, Note_on_c, 8, 74, 127
14, 19559, Note_on_c, 8, 74, 0
14, 19560, Note_on_c, 8, 76, 127
14, 19574, Note_on_c, 8, 76, 0
14, 19575, Note_on_c, 8, 74, 127
14, 19589, Note_on_c, 8, 74, 0
14, 19590, Note_on_c, 8, 73, 127
14, 19604, Note_on_c, 8, 73, 0
14, 19605, Note_on_c, 8, 74, 127
14, 19619, Note_on_c, 8, 74, 0
14, 19620, Note_on_c, 8, 76, 127
14, 19679, Note_on_c, 8, 76, 0
14, 19680, Note_on_c, 8, 76, 127
14, 19739, Note_on_c, 8, 76, 0
14, 19740, Note_on_c, 8, 78, 127
14, 19799, Note_on_c, 8, 78, 0
14, 19800, Note_on_c, 8, 79, 127
14, 19859, Note_on_c, 8, 79, 0
14, 19860, Note_on_c, 8, 78, 127
14, 19919, Note_on_c, 8, 78, 0
14, 19920, Note_on_c, 8, 76, 127
14, 19979, Note_on_c, 8, 76, 0
14, 19980, Note_on_c, 8, 74, 127
14, 20009, Note_on_c, 8, 74, 0
14, 20010, Note_on_c, 8, 76, 127
14, 20039, Note_on_c, 8, 76, 0
14, 20040, Note_on_c, 8, 78, 127
14, 20069, Note_on_c, 8, 78, 0
14, 20070, Note_on_c, 8, 79, 127
14, 20099, Note_on_c, 8, 79, 0
14, 20100, Note_on_c, 8, 81, 127
14, 20114, Note_on_c, 8, 81, 0
14, 20115, Note_on_c, 8, 79, 127
14, 20129, Note_on_c, 8, 79, 0
14, 20130, Note_on_c, 8, 78, 127
14, 20144, Note_on_c, 8, 78, 0
14, 20145, Note_on_c, 8, 79, 127
14, 20159, Note_on_c, 8, 79, 0
14, 20160, Note_on_c, 8, 81, 127
14, 20219, Note_on_c, 8, 81, 0
14, 20220, Note_on_c, 8, 69, 127
14, 20279, Note_on_c, 8, 69, 0
14, 20400, Note_on_c, 8, 74, 127
14, 20429, Note_on_c, 8, 74, 0
14, 20430, Note_on_c, 8, 76, 127
14, 20459, Note_on_c, 8, 76, 0
14, 20460, Note_on_c, 8, 78, 127
14, 20474, Note_on_c, 8, 78, 0
14, 20475, Note_on_c, 8, 76, 127
14, 20489, Note_on_c, 8, 76, 0
14, 20490, Note_on_c, 8, 74, 127
14, 20504, Note_on_c, 8, 74, 0
14, 20505, Note_on_c, 8, 76, 127
14, 20519, Note_on_c, 8, 76, 0
14, 20520, Note_on_c, 8, 78, 127
14, 20578, Note_on_c, 8, 78, 0
14, 20580, Note_on_c, 8, 78, 127
14, 20638, Note_on_c, 8, 78, 0
14, 20640, Note_on_c, 8, 80, 127
14, 20698, Note_on_c, 8, 80, 0
14, 20700, Note_on_c, 8, 81, 127
14, 20758, Note_on_c, 8, 81, 0
14, 20760, Note_on_c, 8, 76, 127
14, 20818, Note_on_c, 8, 76, 0
14, 20820, Note_on_c, 8, 78, 127
14, 20878, Note_on_c, 8, 78, 0
14, 20880, Note_on_c, 8, 79, 127
14, 20938, Note_on_c, 8, 79, 0
14, 20940, Note_on_c, 8, 72, 127
14, 20998, Note_on_c, 8, 72, 0
14, 21000, Note_on_c, 8, 72, 127
14, 21058, Note_on_c, 8, 72, 0
14, 21060, Note_on_c, 8, 71, 127
14, 21118, Note_on_c, 8, 71, 0
14, 21120, Note_on_c, 8, 74, 127
14, 21178, Note_on_c, 8, 74, 0
14, 21180, Note_on_c, 8, 79, 127
14, 21238, Note_on_c, 8, 79, 0
14, 21240, Note_on_c, 8, 78, 127
14, 21298, Note_on_c, 8, 78, 0
14, 21300, Note_on_c, 8, 81, 127
14, 21358, Note_on_c, 8, 81, 0
14, 21360, Note_on_c, 8, 74, 127
14, 21418, Note_on_c, 8, 74, 0
14, 21420, Note_on_c, 8, 73, 127
14, 21478, Note_on_c, 8, 73, 0
14, 21480, Note_on_c, 8, 69, 127
14, 21538, Note_on_c, 8, 69, 0
14, 21540, Note_on_c, 8, 76, 127
14, 21598, Note_on_c, 8, 76, 0
14, 21600, Note_on_c, 8, 75, 127
14, 21629, Note_on_c, 8, 75, 0
14, 21630, Note_on_c, 8, 78, 127
14, 21659, Note_on_c, 8, 78, 0
14, 21660, Note_on_c, 8, 81, 127
14, 21779, Note_on_c, 8, 81, 0
14, 21780, Note_on_c, 8, 72, 127
14, 21794, Note_on_c, 8, 72, 0
14, 21795, Note_on_c, 8, 71, 127
14, 21809, Note_on_c, 8, 71, 0
14, 21810, Note_on_c, 8, 69, 127
14, 21839, Note_on_c, 8, 69, 0
14, 21840, Note_on_c, 8, 71, 127
14, 22019, Note_on_c, 8, 71, 0
14, 22020, Note_on_c, 8, 76, 127
14, 22079, Note_on_c, 8, 76, 0
14, 22080, Note_on_c, 8, 75, 127
14, 22139, Note_on_c, 8, 75, 0
14, 22140, Note_on_c, 8, 76, 127
14, 22259, Note_on_c, 8, 76, 0
14, 22260, Note_on_c, 8, 76, 127
14, 22319, Note_on_c, 8, 76, 0
14, 22320, Note_on_c, 8, 76, 127
14, 22379, Note_on_c, 8, 76, 0
14, 22380, Note_on_c, 8, 79, 127
14, 22439, Note_on_c, 8, 79, 0
14, 22440, Note_on_c, 8, 74, 127
14, 22499, Note_on_c, 8, 74, 0
14, 22500, Note_on_c, 8, 73, 127
14, 22559, Note_on_c, 8, 73, 0
14, 22560, Note_on_c, 8, 69, 127
14, 22619, Note_on_c, 8, 69, 0
14, 22620, Note_on_c, 8, 71, 127
14, 22679, Note_on_c, 8, 71, 0
14, 22680, Note_on_c, 8, 73, 127
14, 22739, Note_on_c, 8, 73, 0
14, 22740, Note_on_c, 8, 74, 127
14, 22799, Note_on_c, 8, 74, 0
14, 22800, Note_on_c, 8, 73, 127
14, 22859, Note_on_c, 8, 73, 0
14, 22860, Note_on_c, 8, 74, 127
14, 22979, Note_on_c, 8, 74, 0
14, 22980, Note_on_c, 8, 69, 127
14, 23039, Note_on_c, 8, 69, 0
14, 23040, Note_on_c, 8, 74, 127
14, 23099, Note_on_c, 8, 74, 0
14, 23100, Note_on_c, 8, 74, 127
14, 23159, Note_on_c, 8, 74, 0
14, 23160, Note_on_c, 8, 74, 127
14, 23219, Note_on_c, 8, 74, 0
14, 23220, Note_on_c, 8, 74, 127
14, 23249, Note_on_c, 8, 74, 0
14, 23250, Note_on_c, 8, 73, 127
14, 23279, Note_on_c, 8, 73, 0
14, 23280, Note_on_c, 8, 74, 127
14, 23339, Note_on_c, 8, 74, 0
14, 23340, Note_on_c, 8, 74, 127
14, 23399, Note_on_c, 8, 74, 0
14, 23400, Note_on_c, 8, 73, 127
14, 23459, Note_on_c, 8, 73, 0
14, 23460, Note_on_c, 8, 73, 127
14, 23519, Note_on_c, 8, 73, 0
14, 23520, Note_on_c, 8, 72, 127
14, 23579, Note_on_c, 8, 72, 0
14, 23580, Note_on_c, 8, 72, 127
14, 23609, Note_on_c, 8, 72, 0
14, 23610, Note_on_c, 8, 71, 127
14, 23639, Note_on_c, 8, 71, 0
14, 23640, Note_on_c, 8, 72, 127
14, 23699, Note_on_c, 8, 72, 0
14, 23760, Note_on_c, 8, 71, 127
14, 23819, Note_on_c, 8, 71, 0
14, 23820, Note_on_c, 8, 73, 127
14, 23879, Note_on_c, 8, 73, 0
14, 23880, Note_on_c, 8, 74, 127
14, 23939, Note_on_c, 8, 74, 0
14, 23940, Note_on_c, 8, 76, 127
14, 24029, Note_on_c, 8, 76, 0
14, 24030, Note_on_c, 8, 74, 127
14, 24059, Note_on_c, 8, 74, 0
14, 24060, Note_on_c, 8, 73, 127
14, 24089, Note_on_c, 8, 73, 0
14, 24090, Note_on_c, 8, 71, 127
14, 24119, Note_on_c, 8, 71, 0
14, 24120, Note_on_c, 8, 69, 127
14, 24179, Note_on_c, 8, 69, 0
14, 24180, Note_on_c, 8, 79, 127
14, 24209, Note_on_c, 8, 79, 0
14, 24210, Note_on_c, 8, 76, 127
14, 24239, Note_on_c, 8, 76, 0
14, 24240, Note_on_c, 8, 81, 127
14, 24299, Note_on_c, 8, 81, 0
14, 24300, Note_on_c, 8, 78, 127
14, 24359, Note_on_c, 8, 78, 0
14, 24360, Note_on_c, 8, 74, 127
14, 24419, Note_on_c, 8, 74, 0
14, 24420, Note_on_c, 8, 73, 127
14, 24479, Note_on_c, 8, 73, 0
14, 24480, Note_on_c, 8, 74, 127
14, 24659, Note_on_c, 8, 74, 0
14, 25200, Note_on_c, 8, 73, 127
14, 25259, Note_on_c, 8, 73, 0
14, 25260, Note_on_c, 8, 71, 127
14, 25289, Note_on_c, 8, 71, 0
14, 25290, Note_on_c, 8, 70, 127
14, 25319, Note_on_c, 8, 70, 0
14, 25320, Note_on_c, 8, 68, 127
14, 25349, Note_on_c, 8, 68, 0
14, 25350, Note_on_c, 8, 66, 127
14, 25379, Note_on_c, 8, 66, 0
14, 25380, Note_on_c, 8, 74, 127
14, 25439, Note_on_c, 8, 74, 0
14, 25440, Note_on_c, 8, 76, 127
14, 25469, Note_on_c, 8, 76, 0
14, 25470, Note_on_c, 8, 78, 127
14, 25499, Note_on_c, 8, 78, 0
14, 25500, Note_on_c, 8, 79, 127
14, 25559, Note_on_c, 8, 79, 0
14, 25560, Note_on_c, 8, 79, 127
14, 25619, Note_on_c, 8, 79, 0
14, 25620, Note_on_c, 8, 78, 127
14, 25649, Note_on_c, 8, 78, 0
14, 25650, Note_on_c, 8, 76, 127
14, 25679, Note_on_c, 8, 76, 0
14, 25680, Note_on_c, 8, 78, 127
14, 25739, Note_on_c, 8, 78, 0
14, 25740, Note_on_c, 8, 71, 127
14, 25799, Note_on_c, 8, 71, 0
14, 25800, Note_on_c, 8, 76, 127
14, 25979, Note_on_c, 8, 76, 0
14, 25980, Note_on_c, 8, 74, 127
14, 26009, Note_on_c, 8, 74, 0
14, 26010, Note_on_c, 8, 73, 127
14, 26039, Note_on_c, 8, 73, 0
14, 26040, Note_on_c, 8, 74, 127
14, 26069, Note_on_c, 8, 74, 0
14, 26070, Note_on_c, 8, 71, 127
14, 26099, Note_on_c, 8, 71, 0
14, 26100, Note_on_c, 8, 73, 127
14, 26159, Note_on_c, 8, 73, 0
14, 26160, Note_on_c, 8, 78, 127
14, 26339, Note_on_c, 8, 78, 0
14, 26340, Note_on_c, 8, 76, 127
14, 26369, Note_on_c, 8, 76, 0
14, 26370, Note_on_c, 8, 74, 127
14, 26399, Note_on_c, 8, 74, 0
14, 26400, Note_on_c, 8, 73, 127
14, 26429, Note_on_c, 8, 73, 0
14, 26430, Note_on_c, 8, 71, 127
14, 26459, Note_on_c, 8, 71, 0
14, 26460, Note_on_c, 8, 69, 127
14, 26519, Note_on_c, 8, 69, 0
14, 26520, Note_on_c, 8, 74, 127
14, 26699, Note_on_c, 8, 74, 0
14, 26700, Note_on_c, 8, 76, 127
14, 26729, Note_on_c, 8, 76, 0
14, 26730, Note_on_c, 8, 78, 127
14, 26759, Note_on_c, 8, 78, 0
14, 26760, Note_on_c, 8, 79, 127
14, 26879, Note_on_c, 8, 79, 0
14, 26880, Note_on_c, 8, 78, 127
14, 26909, Note_on_c, 8, 78, 0
14, 26910, Note_on_c, 8, 76, 127
14, 26939, Note_on_c, 8, 76, 0
14, 26940, Note_on_c, 8, 78, 127
14, 27059, Note_on_c, 8, 78, 0
14, 27060, Note_on_c, 8, 76, 127
14, 27089, Note_on_c, 8, 76, 0
14, 27090, Note_on_c, 8, 74, 127
14, 27119, Note_on_c, 8, 74, 0
14, 27120, Note_on_c, 8, 73, 127
14, 27149, Note_on_c, 8, 73, 0
14, 27150, Note_on_c, 8, 71, 127
14, 27179, Note_on_c, 8, 71, 0
14, 27180, Note_on_c, 8, 73, 127
14, 27239, Note_on_c, 8, 73, 0
14, 27240, Note_on_c, 8, 69, 127
14, 27299, Note_on_c, 8, 69, 0
14, 27300, Note_on_c, 8, 74, 127
14, 27359, Note_on_c, 8, 74, 0
14, 27360, Note_on_c, 8, 67, 127
14, 27419, Note_on_c, 8, 67, 0
14, 27420, Note_on_c, 8, 64, 127
14, 27479, Note_on_c, 8, 64, 0
14, 27480, Note_on_c, 8, 69, 127
14, 27539, Note_on_c, 8, 69, 0
14, 27540, Note_on_c, 8, 66, 127
14, 27599, Note_on_c, 8, 66, 0
14, 27600, Note_on_c, 8, 62, 127
14, 27659, Note_on_c, 8, 62, 0
14, 28080, Note_on_c, 8, 76, 127
14, 28139, Note_on_c, 8, 76, 0
14, 28140, Note_on_c, 8, 74, 127
14, 28169, Note_on_c, 8, 74, 0
14, 28170, Note_on_c, 8, 73, 127
14, 28199, Note_on_c, 8, 73, 0
14, 28200, Note_on_c, 8, 71, 127
14, 28229, Note_on_c, 8, 71, 0
14, 28230, Note_on_c, 8, 69, 127
14, 28259, Note_on_c, 8, 69, 0
14, 28260, Note_on_c, 8, 78, 127
14, 28499, Note_on_c, 8, 78, 0
14, 28500, Note_on_c, 8, 71, 127
14, 28559, Note_on_c, 8, 71, 0
14, 28560, Note_on_c, 8, 76, 127
14, 28619, Note_on_c, 8, 76, 0
14, 28620, Note_on_c, 8, 76, 127
14, 28679, Note_on_c, 8, 76, 0
14, 28680, Note_on_c, 8, 74, 127
14, 28709, Note_on_c, 8, 74, 0
14, 28710, Note_on_c, 8, 73, 127
14, 28739, Note_on_c, 8, 73, 0
14, 28740, Note_on_c, 8, 74, 127
14, 28859, Note_on_c, 8, 74, 0
14, 28860, Note_on_c, 8, 73, 127
14, 28889, Note_on_c, 8, 73, 0
14, 28890, Note_on_c, 8, 71, 127
14, 28919, Note_on_c, 8, 71, 0
14, 28920, Note_on_c, 8, 69, 127
14, 28949, Note_on_c, 8, 69, 0
14, 28950, Note_on_c, 8, 67, 127
14, 28979, Note_on_c, 8, 67, 0
14, 28980, Note_on_c, 8, 66, 127
14, 29039, Note_on_c, 8, 66, 0
14, 29040, Note_on_c, 8, 62, 127
14, 29099, Note_on_c, 8, 62, 0
14, 29280, Note_on_c, 8, 78, 127
14, 29399, Note_on_c, 8, 78, 0
14, 29400, Note_on_c, 8, 76, 127
14, 29429, Note_on_c, 8, 76, 0
14, 29430, Note_on_c, 8, 74, 127
14, 29459, Note_on_c, 8, 74, 0
14, 29460, Note_on_c, 8, 73, 127
14, 29489, Note_on_c, 8, 73, 0
14, 29490, Note_on_c, 8, 71, 127
14, 29519, Note_on_c, 8, 71, 0
14, 29520, Note_on_c, 8, 70, 127
14, 29579, Note_on_c, 8, 70, 0
14, 29580, Note_on_c, 8, 71, 127
14, 29609, Note_on_c, 8, 71, 0
14, 29610, Note_on_c, 8, 70, 127
14, 29639, Note_on_c, 8, 70, 0
14, 29640, Note_on_c, 8, 71, 127
14, 29699, Note_on_c, 8, 71, 0
14, 29700, Note_on_c, 8, 76, 127
14, 29759, Note_on_c, 8, 76, 0
14, 29760, Note_on_c, 8, 74, 127
14, 29789, Note_on_c, 8, 74, 0
14, 29790, Note_on_c, 8, 73, 127
14, 29819, Note_on_c, 8, 73, 0
14, 29820, Note_on_c, 8, 74, 127
14, 29849, Note_on_c, 8, 74, 0
14, 29850, Note_on_c, 8, 71, 127
14, 29879, Note_on_c, 8, 71, 0
14, 29880, Note_on_c, 8, 79, 127
14, 29939, Note_on_c, 8, 79, 0
14, 29940, Note_on_c, 8, 78, 127
14, 29969, Note_on_c, 8, 78, 0
14, 29970, Note_on_c, 8, 76, 127
14, 29999, Note_on_c, 8, 76, 0
14, 30000, Note_on_c, 8, 78, 127
14, 30029, Note_on_c, 8, 78, 0
14, 30030, Note_on_c, 8, 74, 127
14, 30059, Note_on_c, 8, 74, 0
14, 30060, Note_on_c, 8, 76, 127
14, 30119, Note_on_c, 8, 76, 0
14, 30120, Note_on_c, 8, 73, 127
14, 30179, Note_on_c, 8, 73, 0
14, 30180, Note_on_c, 8, 74, 127
14, 30239, Note_on_c, 8, 74, 0
14, 30240, Note_on_c, 8, 71, 127
14, 30299, Note_on_c, 8, 71, 0
14, 30300, Note_on_c, 8, 74, 127
14, 30329, Note_on_c, 8, 74, 0
14, 30330, Note_on_c, 8, 73, 127
14, 30359, Note_on_c, 8, 73, 0
14, 30360, Note_on_c, 8, 71, 127
14, 30389, Note_on_c, 8, 71, 0
14, 30390, Note_on_c, 8, 70, 127
14, 30419, Note_on_c, 8, 70, 0
14, 30420, Note_on_c, 8, 71, 127
14, 30479, Note_on_c, 8, 71, 0
14, 30480, Note_on_c, 8, 71, 127
14, 30539, Note_on_c, 8, 71, 0
14, 33300, Note_on_c, 8, 74, 127
14, 33359, Note_on_c, 8, 74, 0
14, 33360, Note_on_c, 8, 78, 127
14, 33419, Note_on_c, 8, 78, 0
14, 33420, Note_on_c, 8, 74, 127
14, 33479, Note_on_c, 8, 74, 0
14, 33480, Note_on_c, 8, 74, 127
14, 33509, Note_on_c, 8, 74, 0
14, 33510, Note_on_c, 8, 73, 127
14, 33539, Note_on_c, 8, 73, 0
14, 33540, Note_on_c, 8, 74, 127
14, 33599, Note_on_c, 8, 74, 0
14, 33600, Note_on_c, 8, 71, 127
14, 33659, Note_on_c, 8, 71, 0
14, 33660, Note_on_c, 8, 64, 127
14, 33719, Note_on_c, 8, 64, 0
14, 33720, Note_on_c, 8, 76, 127
14, 33779, Note_on_c, 8, 76, 0
14, 33780, Note_on_c, 8, 74, 127
14, 33839, Note_on_c, 8, 74, 0
14, 33840, Note_on_c, 8, 74, 127
14, 33899, Note_on_c, 8, 74, 0
14, 33900, Note_on_c, 8, 73, 127
14, 33959, Note_on_c, 8, 73, 0
14, 34020, Note_on_c, 8, 79, 127
14, 34079, Note_on_c, 8, 79, 0
14, 34080, Note_on_c, 8, 79, 127
14, 34109, Note_on_c, 8, 79, 0
14, 34110, Note_on_c, 8, 78, 127
14, 34139, Note_on_c, 8, 78, 0
14, 34140, Note_on_c, 8, 79, 127
14, 34199, Note_on_c, 8, 79, 0
14, 34200, Note_on_c, 8, 79, 127
14, 34259, Note_on_c, 8, 79, 0
14, 34260, Note_on_c, 8, 76, 127
14, 34319, Note_on_c, 8, 76, 0
14, 34320, Note_on_c, 8, 73, 127
14, 34379, Note_on_c, 8, 73, 0
14, 34380, Note_on_c, 8, 69, 127
14, 34439, Note_on_c, 8, 69, 0
14, 34440, Note_on_c, 8, 81, 127
14, 34499, Note_on_c, 8, 81, 0
14, 34500, Note_on_c, 8, 79, 127
14, 34559, Note_on_c, 8, 79, 0
14, 34560, Note_on_c, 8, 78, 127
14, 34799, Note_on_c, 8, 78, 0
14, 34800, Note_on_c, 8, 74, 127
14, 34859, Note_on_c, 8, 74, 0
14, 34860, Note_on_c, 8, 71, 127
14, 34919, Note_on_c, 8, 71, 0
14, 34920, Note_on_c, 8, 76, 127
14, 35159, Note_on_c, 8, 76, 0
14, 35160, Note_on_c, 8, 73, 127
14, 35219, Note_on_c, 8, 73, 0
14, 35220, Note_on_c, 8, 70, 127
14, 35279, Note_on_c, 8, 70, 0
14, 35280, Note_on_c, 8, 74, 127
14, 35339, Note_on_c, 8, 74, 0
14, 35340, Note_on_c, 8, 73, 127
14, 35399, Note_on_c, 8, 73, 0
14, 35400, Note_on_c, 8, 73, 127
14, 35459, Note_on_c, 8, 73, 0
14, 35460, Note_on_c, 8, 71, 127
14, 35519, Note_on_c, 8, 71, 0
14, 35520, Note_on_c, 8, 73, 127
14, 35549, Note_on_c, 8, 73, 0
14, 35550, Note_on_c, 8, 71, 127
14, 35579, Note_on_c, 8, 71, 0
14, 35580, Note_on_c, 8, 71, 127
14, 35639, Note_on_c, 8, 71, 0
14, 35640, Note_on_c, 8, 71, 127
14, 35699, Note_on_c, 8, 71, 0
14, 35700, Note_on_c, 8, 68, 127
14, 35759, Note_on_c, 8, 68, 0
14, 35760, Note_on_c, 8, 77, 127
14, 35819, Note_on_c, 8, 77, 0
14, 35820, Note_on_c, 8, 78, 127
14, 35879, Note_on_c, 8, 78, 0
14, 35880, Note_on_c, 8, 73, 127
14, 35909, Note_on_c, 8, 73, 0
14, 35910, Note_on_c, 8, 71, 127
14, 35939, Note_on_c, 8, 71, 0
14, 35940, Note_on_c, 8, 69, 127
14, 35969, Note_on_c, 8, 69, 0
14, 35970, Note_on_c, 8, 68, 127
14, 35999, Note_on_c, 8, 68, 0
14, 36000, Note_on_c, 8, 66, 127
14, 36119, Note_on_c, 8, 66, 0
14, 36120, Note_on_c, 8, 66, 127
14, 36179, Note_on_c, 8, 66, 0
14, 42060, Note_on_c, 8, 62, 127
14, 42119, Note_on_c, 8, 62, 0
14, 42120, Note_on_c, 8, 62, 127
14, 42179, Note_on_c, 8, 62, 0
14, 42180, Note_on_c, 8, 62, 127
14, 42239, Note_on_c, 8, 62, 0
14, 42240, Note_on_c, 8, 62, 127
14, 42299, Note_on_c, 8, 62, 0
14, 42300, Note_on_c, 8, 57, 127
14, 42359, Note_on_c, 8, 57, 0
14, 42720, Note_on_c, 8, 69, 127
14, 42779, Note_on_c, 8, 69, 0
14, 42780, Note_on_c, 8, 69, 127
14, 42839, Note_on_c, 8, 69, 0
14, 42840, Note_on_c, 8, 74, 127
14, 42869, Note_on_c, 8, 74, 0
14, 42870, Note_on_c, 8, 69, 127
14, 42899, Note_on_c, 8, 69, 0
14, 42900, Note_on_c, 8, 66, 127
14, 42929, Note_on_c, 8, 66, 0
14, 42930, Note_on_c, 8, 62, 127
14, 42959, Note_on_c, 8, 62, 0
14, 42960, Note_on_c, 8, 69, 127
14, 43019, Note_on_c, 8, 69, 0
14, 43020, Note_on_c, 8, 69, 127
14, 43079, Note_on_c, 8, 69, 0
14, 43200, Note_on_c, 8, 81, 127
14, 43259, Note_on_c, 8, 81, 0
14, 43260, Note_on_c, 8, 78, 127
14, 43319, Note_on_c, 8, 78, 0
14, 43440, Note_on_c, 8, 78, 127
14, 43499, Note_on_c, 8, 78, 0
14, 43500, Note_on_c, 8, 78, 127
14, 43559, Note_on_c, 8, 78, 0
14, 43560, Note_on_c, 8, 74, 127
14, 43619, Note_on_c, 8, 74, 0
14, 43860, Note_on_c, 8, 78, 127
14, 43919, Note_on_c, 8, 78, 0
14, 43920, Note_on_c, 8, 78, 127
14, 43979, Note_on_c, 8, 78, 0
14, 43980, Note_on_c, 8, 78, 127
14, 44039, Note_on_c, 8, 78, 0
14, 44040, Note_on_c, 8, 78, 127
14, 44099, Note_on_c, 8, 78, 0
14, 44100, Note_on_c, 8, 76, 127
14, 44129, Note_on_c, 8, 76, 0
14, 44130, Note_on_c, 8, 74, 127
14, 44159, Note_on_c, 8, 74, 0
14, 44160, Note_on_c, 8, 76, 127
14, 44189, Note_on_c, 8, 76, 0
14, 44190, Note_on_c, 8, 78, 127
14, 44219, Note_on_c, 8, 78, 0
14, 44220, Note_on_c, 8, 79, 127
14, 44279, Note_on_c, 8, 79, 0
14, 44280, Note_on_c, 8, 79, 127
14, 44339, Note_on_c, 8, 79, 0
14, 44340, Note_on_c, 8, 79, 127
14, 44399, Note_on_c, 8, 79, 0
14, 44400, Note_on_c, 8, 79, 127
14, 44459, Note_on_c, 8, 79, 0
14, 44460, Note_on_c, 8, 78, 127
14, 44489, Note_on_c, 8, 78, 0
14, 44490, Note_on_c, 8, 76, 127
14, 44519, Note_on_c, 8, 76, 0
14, 44520, Note_on_c, 8, 78, 127
14, 44549, Note_on_c, 8, 78, 0
14, 44550, Note_on_c, 8, 79, 127
14, 44579, Note_on_c, 8, 79, 0
14, 44580, Note_on_c, 8, 81, 127
14, 44639, Note_on_c, 8, 81, 0
14, 44640, Note_on_c, 8, 72, 127
14, 44699, Note_on_c, 8, 72, 0
14, 44700, Note_on_c, 8, 72, 127
14, 44759, Note_on_c, 8, 72, 0
14, 44760, Note_on_c, 8, 72, 127
14, 44819, Note_on_c, 8, 72, 0
14, 44820, Note_on_c, 8, 71, 127
14, 44879, Note_on_c, 8, 71, 0
14, 44880, Note_on_c, 8, 79, 127
14, 44939, Note_on_c, 8, 79, 0
14, 44940, Note_on_c, 8, 78, 127
14, 44999, Note_on_c, 8, 78, 0
14, 45000, Note_on_c, 8, 76, 127
14, 45059, Note_on_c, 8, 76, 0
14, 45060, Note_on_c, 8, 74, 127
14, 45119, Note_on_c, 8, 74, 0
14, 45120, Note_on_c, 8, 81, 127
14, 45239, Note_on_c, 8, 81, 0
14, 45720, Note_on_c, 8, 71, 127
14, 45749, Note_on_c, 8, 71, 0
14, 45750, Note_on_c, 8, 73, 127
14, 45779, Note_on_c, 8, 73, 0
14, 45780, Note_on_c, 8, 74, 127
14, 45794, Note_on_c, 8, 74, 0
14, 45795, Note_on_c, 8, 73, 127
14, 45809, Note_on_c, 8, 73, 0
14, 45810, Note_on_c, 8, 71, 127
14, 45824, Note_on_c, 8, 71, 0
14, 45825, Note_on_c, 8, 73, 127
14, 45839, Note_on_c, 8, 73, 0
14, 45840, Note_on_c, 8, 74, 127
14, 45899, Note_on_c, 8, 74, 0
14, 45900, Note_on_c, 8, 74, 127
14, 45959, Note_on_c, 8, 74, 0
14, 45960, Note_on_c, 8, 76, 127
14, 46019, Note_on_c, 8, 76, 0
14, 46020, Note_on_c, 8, 78, 127
14, 46079, Note_on_c, 8, 78, 0
14, 46080, Note_on_c, 8, 78, 127
14, 46139, Note_on_c, 8, 78, 0
14, 46140, Note_on_c, 8, 80, 127
14, 46199, Note_on_c, 8, 80, 0
14, 46200, Note_on_c, 8, 81, 127
14, 46259, Note_on_c, 8, 81, 0
14, 46260, Note_on_c, 8, 76, 127
14, 46319, Note_on_c, 8, 76, 0
14, 46320, Note_on_c, 8, 76, 127
14, 46379, Note_on_c, 8, 76, 0
14, 46380, Note_on_c, 8, 76, 127
14, 46439, Note_on_c, 8, 76, 0
14, 46440, Note_on_c, 8, 73, 127
14, 46499, Note_on_c, 8, 73, 0
14, 46620, Note_on_c, 8, 67, 127
14, 46649, Note_on_c, 8, 67, 0
14, 46650, Note_on_c, 8, 69, 127
14, 46679, Note_on_c, 8, 69, 0
14, 46680, Note_on_c, 8, 71, 127
14, 46694, Note_on_c, 8, 71, 0
14, 46695, Note_on_c, 8, 69, 127
14, 46709, Note_on_c, 8, 69, 0
14, 46710, Note_on_c, 8, 67, 127
14, 46724, Note_on_c, 8, 67, 0
14, 46725, Note_on_c, 8, 69, 127
14, 46739, Note_on_c, 8, 69, 0
14, 46740, Note_on_c, 8, 71, 127
14, 46799, Note_on_c, 8, 71, 0
14, 46800, Note_on_c, 8, 71, 127
14, 46859, Note_on_c, 8, 71, 0
14, 46860, Note_on_c, 8, 73, 127
14, 46919, Note_on_c, 8, 73, 0
14, 46920, Note_on_c, 8, 74, 127
14, 46979, Note_on_c, 8, 74, 0
14, 46980, Note_on_c, 8, 74, 127
14, 47039, Note_on_c, 8, 74, 0
14, 47040, Note_on_c, 8, 73, 127
14, 47099, Note_on_c, 8, 73, 0
14, 47100, Note_on_c, 8, 74, 127
14, 47159, Note_on_c, 8, 74, 0
14, 47160, Note_on_c, 8, 78, 127
14, 47219, Note_on_c, 8, 78, 0
14, 47220, Note_on_c, 8, 76, 127
14, 47279, Note_on_c, 8, 76, 0
14, 47280, Note_on_c, 8, 73, 127
14, 47339, Note_on_c, 8, 73, 0
14, 47340, Note_on_c, 8, 73, 127
14, 47399, Note_on_c, 8, 73, 0
14, 47400, Note_on_c, 8, 75, 127
14, 47459, Note_on_c, 8, 75, 0
14, 47460, Note_on_c, 8, 76, 127
14, 47519, Note_on_c, 8, 76, 0
14, 47520, Note_on_c, 8, 76, 127
14, 47549, Note_on_c, 8, 76, 0
14, 47550, Note_on_c, 8, 78, 127
14, 47579, Note_on_c, 8, 78, 0
14, 47580, Note_on_c, 8, 79, 127
14, 47594, Note_on_c, 8, 79, 0
14, 47595, Note_on_c, 8, 78, 127
14, 47609, Note_on_c, 8, 78, 0
14, 47610, Note_on_c, 8, 76, 127
14, 47624, Note_on_c, 8, 76, 0
14, 47625, Note_on_c, 8, 78, 127
14, 47639, Note_on_c, 8, 78, 0
14, 47640, Note_on_c, 8, 79, 127
14, 47699, Note_on_c, 8, 79, 0
14, 47700, Note_on_c, 8, 79, 127
14, 47759, Note_on_c, 8, 79, 0
14, 47760, Note_on_c, 8, 71, 127
14, 47819, Note_on_c, 8, 71, 0
14, 47820, Note_on_c, 8, 70, 127
14, 47849, Note_on_c, 8, 70, 0
14, 47850, Note_on_c, 8, 73, 127
14, 47879, Note_on_c, 8, 73, 0
14, 47880, Note_on_c, 8, 76, 127
14, 47999, Note_on_c, 8, 76, 0
14, 48000, Note_on_c, 8, 67, 127
14, 48014, Note_on_c, 8, 67, 0
14, 48015, Note_on_c, 8, 66, 127
14, 48029, Note_on_c, 8, 66, 0
14, 48030, Note_on_c, 8, 64, 127
14, 48059, Note_on_c, 8, 64, 0
14, 48060, Note_on_c, 8, 66, 127
14, 48119, Note_on_c, 8, 66, 0
14, 48120, Note_on_c, 8, 73, 127
14, 48179, Note_on_c, 8, 73, 0
14, 48180, Note_on_c, 8, 78, 127
14, 48239, Note_on_c, 8, 78, 0
14, 48240, Note_on_c, 8, 78, 127
14, 48299, Note_on_c, 8, 78, 0
14, 48300, Note_on_c, 8, 76, 127
14, 48359, Note_on_c, 8, 76, 0
14, 48360, Note_on_c, 8, 76, 127
14, 48419, Note_on_c, 8, 76, 0
14, 48420, Note_on_c, 8, 74, 127
14, 48479, Note_on_c, 8, 74, 0
14, 48480, Note_on_c, 8, 71, 127
14, 48599, Note_on_c, 8, 71, 0
14, 48600, Note_on_c, 8, 74, 127
14, 48659, Note_on_c, 8, 74, 0
14, 48660, Note_on_c, 8, 71, 127
14, 48719, Note_on_c, 8, 71, 0
14, 48720, Note_on_c, 8, 68, 127
14, 48779, Note_on_c, 8, 68, 0
14, 48780, Note_on_c, 8, 64, 127
14, 48839, Note_on_c, 8, 64, 0
14, 48840, Note_on_c, 8, 71, 127
14, 48899, Note_on_c, 8, 71, 0
14, 48900, Note_on_c, 8, 76, 127
14, 48959, Note_on_c, 8, 76, 0
14, 48960, Note_on_c, 8, 76, 127
14, 49019, Note_on_c, 8, 76, 0
14, 49020, Note_on_c, 8, 74, 127
14, 49079, Note_on_c, 8, 74, 0
14, 49080, Note_on_c, 8, 73, 127
14, 49199, Note_on_c, 8, 73, 0
14, 49200, Note_on_c, 8, 73, 127
14, 49259, Note_on_c, 8, 73, 0
14, 49260, Note_on_c, 8, 73, 127
14, 49319, Note_on_c, 8, 73, 0
14, 49320, Note_on_c, 8, 75, 127
14, 49379, Note_on_c, 8, 75, 0
14, 49380, Note_on_c, 8, 76, 127
14, 49439, Note_on_c, 8, 76, 0
14, 49440, Note_on_c, 8, 78, 127
14, 49499, Note_on_c, 8, 78, 0
14, 49500, Note_on_c, 8, 71, 127
14, 49559, Note_on_c, 8, 71, 0
14, 49560, Note_on_c, 8, 71, 127
14, 49619, Note_on_c, 8, 71, 0
14, 49620, Note_on_c, 8, 71, 127
14, 49679, Note_on_c, 8, 71, 0
14, 49680, Note_on_c, 8, 73, 127
14, 49739, Note_on_c, 8, 73, 0
14, 49740, Note_on_c, 8, 74, 127
14, 49799, Note_on_c, 8, 74, 0
14, 49800, Note_on_c, 8, 76, 127
14, 49859, Note_on_c, 8, 76, 0
14, 49860, Note_on_c, 8, 69, 127
14, 49919, Note_on_c, 8, 69, 0
14, 49980, Note_on_c, 8, 69, 127
14, 50039, Note_on_c, 8, 69, 0
14, 50040, Note_on_c, 8, 71, 127
14, 50099, Note_on_c, 8, 71, 0
14, 50100, Note_on_c, 8, 73, 127
14, 50159, Note_on_c, 8, 73, 0
14, 50160, Note_on_c, 8, 74, 127
14, 50219, Note_on_c, 8, 74, 0
14, 50220, Note_on_c, 8, 78, 127
14, 50249, Note_on_c, 8, 78, 0
14, 50250, Note_on_c, 8, 76, 127
14, 50279, Note_on_c, 8, 76, 0
14, 50280, Note_on_c, 8, 74, 127
14, 50339, Note_on_c, 8, 74, 0
14, 50340, Note_on_c, 8, 74, 127
14, 50399, Note_on_c, 8, 74, 0
14, 50400, Note_on_c, 8, 71, 127
14, 50459, Note_on_c, 8, 71, 0
14, 50460, Note_on_c, 8, 76, 127
14, 50519, Note_on_c, 8, 76, 0
14, 50520, Note_on_c, 8, 76, 127
14, 50579, Note_on_c, 8, 76, 0
14, 50580, Note_on_c, 8, 74, 127
14, 50609, Note_on_c, 8, 74, 0
14, 50610, Note_on_c, 8, 73, 127
14, 50639, Note_on_c, 8, 73, 0
14, 50640, Note_on_c, 8, 71, 127
14, 50669, Note_on_c, 8, 71, 0
14, 50670, Note_on_c, 8, 73, 127
14, 50699, Note_on_c, 8, 73, 0
14, 50700, Note_on_c, 8, 69, 127
14, 50819, Note_on_c, 8, 69, 0
14, 52140, Note_on_c, 8, 62, 127
14, 52199, Note_on_c, 8, 62, 0
14, 52200, Note_on_c, 8, 62, 127
14, 52259, Note_on_c, 8, 62, 0
14, 52260, Note_on_c, 8, 62, 127
14, 52319, Note_on_c, 8, 62, 0
14, 52320, Note_on_c, 8, 62, 127
14, 52379, Note_on_c, 8, 62, 0
14, 52380, Note_on_c, 8, 57, 127
14, 52439, Note_on_c, 8, 57, 0
14, 52800, Note_on_c, 8, 69, 127
14, 52859, Note_on_c, 8, 69, 0
14, 52860, Note_on_c, 8, 69, 127
14, 52919, Note_on_c, 8, 69, 0
14, 52920, Note_on_c, 8, 74, 127
14, 52949, Note_on_c, 8, 74, 0
14, 52950, Note_on_c, 8, 69, 127
14, 52979, Note_on_c, 8, 69, 0
14, 52980, Note_on_c, 8, 66, 127
14, 53009, Note_on_c, 8, 66, 0
14, 53010, Note_on_c, 8, 62, 127
14, 53039, Note_on_c, 8, 62, 0
14, 53040, Note_on_c, 8, 69, 127
14, 53099, Note_on_c, 8, 69, 0
14, 53100, Note_on_c, 8, 69, 127
14, 53159, Note_on_c, 8, 69, 0
14, 53280, Note_on_c, 8, 81, 127
14, 53339, Note_on_c, 8, 81, 0
14, 53340, Note_on_c, 8, 78, 127
14, 53399, Note_on_c, 8, 78, 0
14, 53520, Note_on_c, 8, 78, 127
14, 53579, Note_on_c, 8, 78, 0
14, 53580, Note_on_c, 8, 78, 127
14, 53639, Note_on_c, 8, 78, 0
14, 53640, Note_on_c, 8, 74, 127
14, 53699, Note_on_c, 8, 74, 0
14, 53940, Note_on_c, 8, 78, 127
14, 53999, Note_on_c, 8, 78, 0
14, 54000, Note_on_c, 8, 78, 127
14, 54059, Note_on_c, 8, 78, 0
14, 54060, Note_on_c, 8, 78, 127
14, 54119, Note_on_c, 8, 78, 0
14, 54120, Note_on_c, 8, 78, 127
14, 54179, Note_on_c, 8, 78, 0
14, 54180, Note_on_c, 8, 76, 127
14, 54209, Note_on_c, 8, 76, 0
14, 54210, Note_on_c, 8, 74, 127
14, 54239, Note_on_c, 8, 74, 0
14, 54240, Note_on_c, 8, 76, 127
14, 54269, Note_on_c, 8, 76, 0
14, 54270, Note_on_c, 8, 78, 127
14, 54299, Note_on_c, 8, 78, 0
14, 54300, Note_on_c, 8, 79, 127
14, 54359, Note_on_c, 8, 79, 0
14, 54360, Note_on_c, 8, 79, 127
14, 54419, Note_on_c, 8, 79, 0
14, 54420, Note_on_c, 8, 79, 127
14, 54479, Note_on_c, 8, 79, 0
14, 54480, Note_on_c, 8, 79, 127
14, 54539, Note_on_c, 8, 79, 0
14, 54540, Note_on_c, 8, 78, 127
14, 54569, Note_on_c, 8, 78, 0
14, 54570, Note_on_c, 8, 76, 127
14, 54599, Note_on_c, 8, 76, 0
14, 54600, Note_on_c, 8, 78, 127
14, 54629, Note_on_c, 8, 78, 0
14, 54630, Note_on_c, 8, 79, 127
14, 54659, Note_on_c, 8, 79, 0
14, 54660, Note_on_c, 8, 81, 127
14, 54719, Note_on_c, 8, 81, 0
14, 54720, Note_on_c, 8, 72, 127
14, 54779, Note_on_c, 8, 72, 0
14, 54780, Note_on_c, 8, 72, 127
14, 54839, Note_on_c, 8, 72, 0
14, 54840, Note_on_c, 8, 72, 127
14, 54899, Note_on_c, 8, 72, 0
14, 54900, Note_on_c, 8, 71, 127
14, 54959, Note_on_c, 8, 71, 0
14, 54960, Note_on_c, 8, 79, 127
14, 55019, Note_on_c, 8, 79, 0
14, 55020, Note_on_c, 8, 78, 127
14, 55079, Note_on_c, 8, 78, 0
14, 55080, Note_on_c, 8, 76, 127
14, 55139, Note_on_c, 8, 76, 0
14, 55140, Note_on_c, 8, 74, 127
14, 55199, Note_on_c, 8, 74, 0
14, 55200, Note_on_c, 8, 81, 127
14, 55319, Note_on_c, 8, 81, 0
14, 55800, Note_on_c, 8, 73, 127
14, 55829, Note_on_c, 8, 73, 0
14, 55830, Note_on_c, 8, 74, 127
14, 55859, Note_on_c, 8, 74, 0
14, 55860, Note_on_c, 8, 76, 127
14, 55874, Note_on_c, 8, 76, 0
14, 55875, Note_on_c, 8, 74, 127
14, 55889, Note_on_c, 8, 74, 0
14, 55890, Note_on_c, 8, 73, 127
14, 55904, Note_on_c, 8, 73, 0
14, 55905, Note_on_c, 8, 74, 127
14, 55919, Note_on_c, 8, 74, 0
14, 55920, Note_on_c, 8, 76, 127
14, 55979, Note_on_c, 8, 76, 0
14, 55980, Note_on_c, 8, 76, 127
14, 56039, Note_on_c, 8, 76, 0
14, 56040, Note_on_c, 8, 78, 127
14, 56099, Note_on_c, 8, 78, 0
14, 56100, Note_on_c, 8, 79, 127
14, 56159, Note_on_c, 8, 79, 0
14, 56160, Note_on_c, 8, 78, 127
14, 56219, Note_on_c, 8, 78, 0
14, 56220, Note_on_c, 8, 76, 127
14, 56279, Note_on_c, 8, 76, 0
14, 56280, Note_on_c, 8, 74, 127
14, 56309, Note_on_c, 8, 74, 0
14, 56310, Note_on_c, 8, 76, 127
14, 56339, Note_on_c, 8, 76, 0
14, 56340, Note_on_c, 8, 78, 127
14, 56369, Note_on_c, 8, 78, 0
14, 56370, Note_on_c, 8, 79, 127
14, 56399, Note_on_c, 8, 79, 0
14, 56400, Note_on_c, 8, 81, 127
14, 56414, Note_on_c, 8, 81, 0
14, 56415, Note_on_c, 8, 79, 127
14, 56429, Note_on_c, 8, 79, 0
14, 56430, Note_on_c, 8, 78, 127
14, 56444, Note_on_c, 8, 78, 0
14, 56445, Note_on_c, 8, 79, 127
14, 56459, Note_on_c, 8, 79, 0
14, 56460, Note_on_c, 8, 81, 127
14, 56519, Note_on_c, 8, 81, 0
14, 56520, Note_on_c, 8, 69, 127
14, 56579, Note_on_c, 8, 69, 0
14, 56700, Note_on_c, 8, 74, 127
14, 56729, Note_on_c, 8, 74, 0
14, 56730, Note_on_c, 8, 76, 127
14, 56759, Note_on_c, 8, 76, 0
14, 56760, Note_on_c, 8, 78, 127
14, 56774, Note_on_c, 8, 78, 0
14, 56775, Note_on_c, 8, 76, 127
14, 56789, Note_on_c, 8, 76, 0
14, 56790, Note_on_c, 8, 74, 127
14, 56804, Note_on_c, 8, 74, 0
14, 56805, Note_on_c, 8, 76, 127
14, 56819, Note_on_c, 8, 76, 0
14, 56820, Note_on_c, 8, 78, 127
14, 56878, Note_on_c, 8, 78, 0
14, 56880, Note_on_c, 8, 78, 127
14, 56938, Note_on_c, 8, 78, 0
14, 56940, Note_on_c, 8, 80, 127
14, 56998, Note_on_c, 8, 80, 0
14, 57000, Note_on_c, 8, 81, 127
14, 57058, Note_on_c, 8, 81, 0
14, 57060, Note_on_c, 8, 76, 127
14, 57118, Note_on_c, 8, 76, 0
14, 57120, Note_on_c, 8, 78, 127
14, 57178, Note_on_c, 8, 78, 0
14, 57180, Note_on_c, 8, 79, 127
14, 57238, Note_on_c, 8, 79, 0
14, 57240, Note_on_c, 8, 72, 127
14, 57298, Note_on_c, 8, 72, 0
14, 57300, Note_on_c, 8, 72, 127
14, 57358, Note_on_c, 8, 72, 0
14, 57360, Note_on_c, 8, 71, 127
14, 57418, Note_on_c, 8, 71, 0
14, 57420, Note_on_c, 8, 74, 127
14, 57478, Note_on_c, 8, 74, 0
14, 57480, Note_on_c, 8, 79, 127
14, 57538, Note_on_c, 8, 79, 0
14, 57540, Note_on_c, 8, 78, 127
14, 57598, Note_on_c, 8, 78, 0
14, 57600, Note_on_c, 8, 81, 127
14, 57658, Note_on_c, 8, 81, 0
14, 57660, Note_on_c, 8, 74, 127
14, 57718, Note_on_c, 8, 74, 0
14, 57720, Note_on_c, 8, 73, 127
14, 57778, Note_on_c, 8, 73, 0
14, 57780, Note_on_c, 8, 69, 127
14, 57838, Note_on_c, 8, 69, 0
14, 57840, Note_on_c, 8, 76, 127
14, 57898, Note_on_c, 8, 76, 0
14, 57900, Note_on_c, 8, 75, 127
14, 57929, Note_on_c, 8, 75, 0
14, 57930, Note_on_c, 8, 78, 127
14, 57959, Note_on_c, 8, 78, 0
14, 57960, Note_on_c, 8, 81, 127
14, 58079, Note_on_c, 8, 81, 0
14, 58080, Note_on_c, 8, 72, 127
14, 58094, Note_on_c, 8, 72, 0
14, 58095, Note_on_c, 8, 71, 127
14, 58109, Note_on_c, 8, 71, 0
14, 58110, Note_on_c, 8, 69, 127
14, 58139, Note_on_c, 8, 69, 0
14, 58140, Note_on_c, 8, 71, 127
14, 58319, Note_on_c, 8, 71, 0
14, 58320, Note_on_c, 8, 76, 127
14, 58379, Note_on_c, 8, 76, 0
14, 58380, Note_on_c, 8, 75, 127
14, 58439, Note_on_c, 8, 75, 0
14, 58440, Note_on_c, 8, 76, 127
14, 58559, Note_on_c, 8, 76, 0
14, 58560, Note_on_c, 8, 76, 127
14, 58619, Note_on_c, 8, 76, 0
14, 58620, Note_on_c, 8, 76, 127
14, 58679, Note_on_c, 8, 76, 0
14, 58680, Note_on_c, 8, 79, 127
14, 58739, Note_on_c, 8, 79, 0
14, 58740, Note_on_c, 8, 74, 127
14, 58799, Note_on_c, 8, 74, 0
14, 58800, Note_on_c, 8, 73, 127
14, 58859, Note_on_c, 8, 73, 0
14, 58860, Note_on_c, 8, 69, 127
14, 58919, Note_on_c, 8, 69, 0
14, 58920, Note_on_c, 8, 71, 127
14, 58979, Note_on_c, 8, 71, 0
14, 58980, Note_on_c, 8, 73, 127
14, 59039, Note_on_c, 8, 73, 0
14, 59040, Note_on_c, 8, 74, 127
14, 59099, Note_on_c, 8, 74, 0
14, 59100, Note_on_c, 8, 73, 127
14, 59159, Note_on_c, 8, 73, 0
14, 59160, Note_on_c, 8, 74, 127
14, 59279, Note_on_c, 8, 74, 0
14, 59280, Note_on_c, 8, 69, 127
14, 59339, Note_on_c, 8, 69, 0
14, 59340, Note_on_c, 8, 74, 127
14, 59399, Note_on_c, 8, 74, 0
14, 59400, Note_on_c, 8, 74, 127
14, 59459, Note_on_c, 8, 74, 0
14, 59460, Note_on_c, 8, 74, 127
14, 59519, Note_on_c, 8, 74, 0
14, 59520, Note_on_c, 8, 74, 127
14, 59549, Note_on_c, 8, 74, 0
14, 59550, Note_on_c, 8, 73, 127
14, 59579, Note_on_c, 8, 73, 0
14, 59580, Note_on_c, 8, 74, 127
14, 59639, Note_on_c, 8, 74, 0
14, 59640, Note_on_c, 8, 74, 127
14, 59699, Note_on_c, 8, 74, 0
14, 59700, Note_on_c, 8, 73, 127
14, 59759, Note_on_c, 8, 73, 0
14, 59760, Note_on_c, 8, 73, 127
14, 59819, Note_on_c, 8, 73, 0
14, 59820, Note_on_c, 8, 72, 127
14, 59879, Note_on_c, 8, 72, 0
14, 59880, Note_on_c, 8, 72, 127
14, 59909, Note_on_c, 8, 72, 0
14, 59910, Note_on_c, 8, 71, 127
14, 59939, Note_on_c, 8, 71, 0
14, 59940, Note_on_c, 8, 72, 127
14, 59999, Note_on_c, 8, 72, 0
14, 60060, Note_on_c, 8, 71, 127
14, 60119, Note_on_c, 8, 71, 0
14, 60120, Note_on_c, 8, 73, 127
14, 60179, Note_on_c, 8, 73, 0
14, 60180, Note_on_c, 8, 74, 127
14, 60239, Note_on_c, 8, 74, 0
14, 60240, Note_on_c, 8, 76, 127
14, 60329, Note_on_c, 8, 76, 0
14, 60330, Note_on_c, 8, 74, 127
14, 60359, Note_on_c, 8, 74, 0
14, 60360, Note_on_c, 8, 73, 127
14, 60389, Note_on_c, 8, 73, 0
14, 60390, Note_on_c, 8, 71, 127
14, 60419, Note_on_c, 8, 71, 0
14, 60420, Note_on_c, 8, 69, 127
14, 60479, Note_on_c, 8, 69, 0
14, 60480, Note_on_c, 8, 79, 127
14, 60509, Note_on_c, 8, 79, 0
14, 60510, Note_on_c, 8, 76, 127
14, 60539, Note_on_c, 8, 76, 0
14, 60540, Note_on_c, 8, 81, 127
14, 60599, Note_on_c, 8, 81, 0
14, 60600, Note_on_c, 8, 78, 127
14, 60659, Note_on_c, 8, 78, 0
14, 60660, Note_on_c, 8, 74, 127
14, 60719, Note_on_c, 8, 74, 0
14, 60720, Note_on_c, 8, 73, 127
14, 60779, Note_on_c, 8, 73, 0
14, 60780, Note_on_c, 8, 74, 127
14, 60959, Note_on_c, 8, 74, 0
14, 116460, Note_on_c, 8, 64, 127
14, 116579, Note_on_c, 8, 64, 0
14, 116580, Note_on_c, 8, 69, 127
14, 116699, Note_on_c, 8, 69, 0
14, 116700, Note_on_c, 8, 67, 127
14, 116819, Note_on_c, 8, 67, 0
14, 116820, Note_on_c, 8, 65, 127
14, 116939, Note_on_c, 8, 65, 0
14, 116940, Note_on_c, 8, 64, 127
14, 117059, Note_on_c, 8, 64, 0
14, 117060, Note_on_c, 8, 62, 127
14, 117299, Note_on_c, 8, 62, 0
14, 117300, Note_on_c, 8, 64, 127
14, 117395, Note_on_c, 8, 64, 0
14, 117420, Note_on_c, 8, 71, 127
14, 117539, Note_on_c, 8, 71, 0
14, 117540, Note_on_c, 8, 72, 127
14, 117659, Note_on_c, 8, 72, 0
14, 117660, Note_on_c, 8, 72, 127
14, 117779, Note_on_c, 8, 72, 0
14, 117780, Note_on_c, 8, 71, 127
14, 117839, Note_on_c, 8, 71, 0
14, 117840, Note_on_c, 8, 72, 127
14, 117869, Note_on_c, 8, 72, 0
14, 117870, Note_on_c, 8, 74, 127
14, 117899, Note_on_c, 8, 74, 0
14, 117900, Note_on_c, 8, 71, 127
14, 118019, Note_on_c, 8, 71, 0
14, 118020, Note_on_c, 8, 69, 127
14, 118379, Note_on_c, 8, 69, 0
14, 118380, Note_on_c, 8, 64, 127
14, 118499, Note_on_c, 8, 64, 0
14, 118500, Note_on_c, 8, 69, 127
14, 118619, Note_on_c, 8, 69, 0
14, 118620, Note_on_c, 8, 67, 127
14, 118739, Note_on_c, 8, 67, 0
14, 118740, Note_on_c, 8, 65, 127
14, 118859, Note_on_c, 8, 65, 0
14, 118860, Note_on_c, 8, 64, 127
14, 118979, Note_on_c, 8, 64, 0
14, 118980, Note_on_c, 8, 62, 127
14, 119219, Note_on_c, 8, 62, 0
14, 119220, Note_on_c, 8, 64, 127
14, 119315, Note_on_c, 8, 64, 0
14, 119340, Note_on_c, 8, 71, 127
14, 119459, Note_on_c, 8, 71, 0
14, 119460, Note_on_c, 8, 72, 127
14, 119579, Note_on_c, 8, 72, 0
14, 119580, Note_on_c, 8, 72, 127
14, 119699, Note_on_c, 8, 72, 0
14, 119700, Note_on_c, 8, 71, 127
14, 119759, Note_on_c, 8, 71, 0
14, 119760, Note_on_c, 8, 72, 127
14, 119789, Note_on_c, 8, 72, 0
14, 119790, Note_on_c, 8, 74, 127
14, 119819, Note_on_c, 8, 74, 0
14, 119820, Note_on_c, 8, 71, 127
14, 119939, Note_on_c, 8, 71, 0
14, 119940, Note_on_c, 8, 69, 127
14, 120299, Note_on_c, 8, 69, 0
14, 120300, Note_on_c, 8, 72, 127
14, 120419, Note_on_c, 8, 72, 0
14, 120420, Note_on_c, 8, 71, 127
14, 120479, Note_on_c, 8, 71, 0
14, 120480, Note_on_c, 8, 69, 127
14, 120539, Note_on_c, 8, 69, 0
14, 120540, Note_on_c, 8, 67, 127
14, 120659, Note_on_c, 8, 67, 0
14, 120660, Note_on_c, 8, 69, 127
14, 120779, Note_on_c, 8, 69, 0
14, 120780, Note_on_c, 8, 71, 127
14, 120899, Note_on_c, 8, 71, 0
14, 120900, Note_on_c, 8, 72, 127
14, 121139, Note_on_c, 8, 72, 0
14, 121140, Note_on_c, 8, 72, 127
14, 121235, Note_on_c, 8, 72, 0
14, 121260, Note_on_c, 8, 67, 127
14, 121379, Note_on_c, 8, 67, 0
14, 121380, Note_on_c, 8, 69, 127
14, 121499, Note_on_c, 8, 69, 0
14, 121500, Note_on_c, 8, 67, 127
14, 121619, Note_on_c, 8, 67, 0
14, 121620, Note_on_c, 8, 65, 127
14, 121679, Note_on_c, 8, 65, 0
14, 121680, Note_on_c, 8, 64, 127
14, 121739, Note_on_c, 8, 64, 0
14, 121740, Note_on_c, 8, 65, 127
14, 121859, Note_on_c, 8, 65, 0
14, 121860, Note_on_c, 8, 64, 127
14, 122147, Note_on_c, 8, 64, 0
14, 122220, Note_on_c, 8, 72, 127
14, 122339, Note_on_c, 8, 72, 0
14, 122340, Note_on_c, 8, 71, 127
14, 122399, Note_on_c, 8, 71, 0
14, 122400, Note_on_c, 8, 72, 127
14, 122459, Note_on_c, 8, 72, 0
14, 122460, Note_on_c, 8, 74, 127
14, 122579, Note_on_c, 8, 74, 0
14, 122580, Note_on_c, 8, 72, 127
14, 122699, Note_on_c, 8, 72, 0
14, 122700, Note_on_c, 8, 71, 127
14, 122819, Note_on_c, 8, 71, 0
14, 122820, Note_on_c, 8, 69, 127
14, 123059, Note_on_c, 8, 69, 0
14, 123060, Note_on_c, 8, 71, 127
14, 123155, Note_on_c, 8, 71, 0
14, 123180, Note_on_c, 8, 64, 127
14, 123299, Note_on_c, 8, 64, 0
14, 123300, Note_on_c, 8, 65, 127
14, 123419, Note_on_c, 8, 65, 0
14, 123420, Note_on_c, 8, 64, 127
14, 123539, Note_on_c, 8, 64, 0
14, 123540, Note_on_c, 8, 62, 127
14, 123659, Note_on_c, 8, 62, 0
14, 123660, Note_on_c, 8, 67, 127
14, 123719, Note_on_c, 8, 67, 0
14, 123720, Note_on_c, 8, 65, 127
14, 123779, Note_on_c, 8, 65, 0
14, 123780, Note_on_c, 8, 64, 127
14, 124139, Note_on_c, 8, 64, 0
14, 130860, Control_c, 8, 0, 20
14, 130860, Program_c, 8, 65
14, 130860, Note_on_c, 8, 67, 127
14, 130979, Note_on_c, 8, 67, 0
14, 130980, Note_on_c, 8, 67, 127
14, 131219, Note_on_c, 8, 67, 0
14, 131220, Note_on_c, 8, 67, 127
14, 131339, Note_on_c, 8, 67, 0
14, 131340, Note_on_c, 8, 69, 127
14, 131579, Note_on_c, 8, 69, 0
14, 131580, Note_on_c, 8, 67, 127
14, 131699, Note_on_c, 8, 67, 0
14, 131700, Note_on_c, 8, 72, 127
14, 131759, Note_on_c, 8, 72, 0
14, 131760, Note_on_c, 8, 74, 127
14, 131819, Note_on_c, 8, 74, 0
14, 131820, Note_on_c, 8, 76, 127
14, 131840, Note_on_c, 8, 76, 0
14, 131840, Note_on_c, 8, 74, 127
14, 131860, Note_on_c, 8, 74, 0
14, 131860, Note_on_c, 8, 76, 127
14, 131880, Note_on_c, 8, 76, 0
14, 131880, Note_on_c, 8, 74, 127
14, 131895, Note_on_c, 8, 74, 0
14, 131895, Note_on_c, 8, 76, 127
14, 131910, Note_on_c, 8, 76, 0
14, 131910, Note_on_c, 8, 74, 127
14, 131925, Note_on_c, 8, 74, 0
14, 131925, Note_on_c, 8, 76, 127
14, 131940, Note_on_c, 8, 76, 0
14, 131940, Note_on_c, 8, 74, 127
14, 131955, Note_on_c, 8, 74, 0
14, 131955, Note_on_c, 8, 76, 127
14, 131970, Note_on_c, 8, 76, 0
14, 131970, Note_on_c, 8, 74, 127
14, 131985, Note_on_c, 8, 74, 0
14, 131985, Note_on_c, 8, 76, 127
14, 132000, Note_on_c, 8, 76, 0
14, 132000, Note_on_c, 8, 74, 127
14, 132020, Note_on_c, 8, 74, 0
14, 132020, Note_on_c, 8, 72, 127
14, 132040, Note_on_c, 8, 72, 0
14, 132040, Note_on_c, 8, 74, 127
14, 132060, Note_on_c, 8, 74, 0
14, 132060, Note_on_c, 8, 72, 127
14, 132539, Note_on_c, 8, 72, 0
14, 134825, Note_on_c, 8, 71, 127
14, 135064, Note_on_c, 8, 71, 0
14, 135065, Note_on_c, 8, 74, 127
14, 135184, Note_on_c, 8, 74, 0
14, 135185, Note_on_c, 8, 76, 127
14, 135424, Note_on_c, 8, 76, 0
14, 135425, Note_on_c, 8, 74, 127
14, 135544, Note_on_c, 8, 74, 0
14, 135545, Note_on_c, 8, 71, 127
14, 135664, Note_on_c, 8, 71, 0
14, 135665, Note_on_c, 8, 72, 127
14, 135784, Note_on_c, 8, 72, 0
14, 135785, Note_on_c, 8, 69, 127
14, 135900, Note_on_c, 8, 67, 127
14, 135904, Note_on_c, 8, 69, 0
14, 137100, Note_on_c, 8, 67, 0
14, 139620, Control_c, 8, 0, 20
14, 139620, Program_c, 8, 65
14, 139620, Note_on_c, 8, 67, 127
14, 139739, Note_on_c, 8, 67, 0
14, 139740, Note_on_c, 8, 72, 127
14, 139979, Note_on_c, 8, 72, 0
14, 139980, Note_on_c, 8, 71, 127
14, 140039, Note_on_c, 8, 71, 0
14, 140040, Note_on_c, 8, 73, 127
14, 140099, Note_on_c, 8, 73, 0
14, 140100, Note_on_c, 8, 74, 127
14, 140219, Note_on_c, 8, 74, 0
14, 140220, Note_on_c, 8, 69, 127
14, 140459, Note_on_c, 8, 69, 0
14, 140460, Note_on_c, 8, 67, 127
14, 140579, Note_on_c, 8, 67, 0
14, 140580, Note_on_c, 8, 66, 127
14, 140699, Note_on_c, 8, 66, 0
14, 140700, Note_on_c, 8, 64, 127
14, 140819, Note_on_c, 8, 64, 0
14, 140820, Note_on_c, 8, 62, 127
14, 142020, Note_on_c, 8, 62, 0
14, 144180, Control_c, 8, 0, 20
14, 144180, Program_c, 8, 65
14, 144180, Note_on_c, 8, 62, 127
14, 144299, Note_on_c, 8, 62, 0
14, 144300, Note_on_c, 8, 69, 127
14, 144539, Note_on_c, 8, 69, 0
14, 144540, Note_on_c, 8, 69, 127
14, 144659, Note_on_c, 8, 69, 0
14, 144660, Note_on_c, 8, 69, 127
14, 144899, Note_on_c, 8, 69, 0
14, 144900, Note_on_c, 8, 71, 127
14, 145019, Note_on_c, 8, 71, 0
14, 145020, Note_on_c, 8, 72, 127
14, 145139, Note_on_c, 8, 72, 0
14, 145140, Note_on_c, 8, 71, 127
14, 145259, Note_on_c, 8, 71, 0
14, 145260, Note_on_c, 8, 69, 127
14, 145379, Note_on_c, 8, 69, 0
14, 145380, Note_on_c, 8, 67, 127
14, 145559, Note_on_c, 8, 67, 0
14, 145560, Note_on_c, 8, 69, 127
14, 145619, Note_on_c, 8, 69, 0
14, 145620, Note_on_c, 8, 71, 127
14, 145739, Note_on_c, 8, 71, 0
14, 145740, Note_on_c, 8, 69, 127
14, 146219, Note_on_c, 8, 69, 0
14, 147060, Control_c, 8, 0, 20
14, 147060, Program_c, 8, 65
14, 147060, Note_on_c, 8, 67, 127
14, 147179, Note_on_c, 8, 67, 0
14, 147180, Note_on_c, 8, 67, 127
14, 147299, Note_on_c, 8, 67, 0
14, 147300, Note_on_c, 8, 67, 127
14, 147419, Note_on_c, 8, 67, 0
14, 147420, Note_on_c, 8, 67, 127
14, 147779, Note_on_c, 8, 67, 0
14, 199980, Note_on_c, 8, 74, 127
14, 200099, Note_on_c, 8, 74, 0
14, 200100, Note_on_c, 8, 73, 127
14, 200219, Note_on_c, 8, 73, 0
14, 200220, Note_on_c, 8, 71, 127
14, 200339, Note_on_c, 8, 71, 0
14, 200340, Note_on_c, 8, 73, 127
14, 200459, Note_on_c, 8, 73, 0
14, 200460, Note_on_c, 8, 69, 127
14, 200579, Note_on_c, 8, 69, 0
14, 200580, Note_on_c, 8, 71, 127
14, 200699, Note_on_c, 8, 71, 0
14, 200700, Note_on_c, 8, 73, 127
14, 200819, Note_on_c, 8, 73, 0
14, 200820, Note_on_c, 8, 74, 127
14, 200939, Note_on_c, 8, 74, 0
14, 201660, Note_on_c, 8, 74, 127
14, 201779, Note_on_c, 8, 74, 0
14, 201780, Note_on_c, 8, 74, 127
14, 201899, Note_on_c, 8, 74, 0
14, 201900, Note_on_c, 8, 69, 127
14, 202019, Note_on_c, 8, 69, 0
14, 202020, Note_on_c, 8, 69, 127
14, 202139, Note_on_c, 8, 69, 0
14, 202140, Note_on_c, 8, 66, 127
14, 202199, Note_on_c, 8, 66, 0
14, 202200, Note_on_c, 8, 67, 127
14, 202259, Note_on_c, 8, 67, 0
14, 202260, Note_on_c, 8, 69, 127
14, 202379, Note_on_c, 8, 69, 0
14, 202380, Note_on_c, 8, 67, 127
14, 202499, Note_on_c, 8, 67, 0
14, 202500, Note_on_c, 8, 66, 127
14, 202619, Note_on_c, 8, 66, 0
14, 203340, Note_on_c, 8, 66, 127
14, 203459, Note_on_c, 8, 66, 0
14, 203460, Note_on_c, 8, 71, 127
14, 203579, Note_on_c, 8, 71, 0
14, 203580, Note_on_c, 8, 71, 127
14, 203699, Note_on_c, 8, 71, 0
14, 203700, Note_on_c, 8, 69, 127
14, 203759, Note_on_c, 8, 69, 0
14, 203760, Note_on_c, 8, 71, 127
14, 203819, Note_on_c, 8, 71, 0
14, 203820, Note_on_c, 8, 73, 127
14, 203939, Note_on_c, 8, 73, 0
14, 203940, Note_on_c, 8, 74, 127
14, 203999, Note_on_c, 8, 74, 0
14, 204000, Note_on_c, 8, 73, 127
14, 204059, Note_on_c, 8, 73, 0
14, 204060, Note_on_c, 8, 71, 127
14, 204179, Note_on_c, 8, 71, 0
14, 204180, Note_on_c, 8, 69, 127
14, 204299, Note_on_c, 8, 69, 0
14, 205020, Note_on_c, 8, 74, 127
14, 205139, Note_on_c, 8, 74, 0
14, 205140, Note_on_c, 8, 73, 127
14, 205259, Note_on_c, 8, 73, 0
14, 205260, Note_on_c, 8, 71, 127
14, 205379, Note_on_c, 8, 71, 0
14, 205380, Note_on_c, 8, 69, 127
14, 205499, Note_on_c, 8, 69, 0
14, 205500, Note_on_c, 8, 71, 127
14, 205559, Note_on_c, 8, 71, 0
14, 205560, Note_on_c, 8, 69, 127
14, 205619, Note_on_c, 8, 69, 0
14, 205620, Note_on_c, 8, 67, 127
14, 205679, Note_on_c, 8, 67, 0
14, 205680, Note_on_c, 8, 66, 127
14, 205739, Note_on_c, 8, 66, 0
14, 205740, Note_on_c, 8, 64, 127
14, 205859, Note_on_c, 8, 64, 0
14, 205860, Note_on_c, 8, 62, 127
14, 205979, Note_on_c, 8, 62, 0
14, 205979, End_track
15, 0, Start_track
15, 0, MIDI_port, 0
15, 0, Title_t, "Alto Solo/Coro"
15, 0, Program_c, 10, 52
15, 5760, Note_on_c, 10, 62, 127
15, 5819, Note_on_c, 10, 62, 0
15, 5820, Note_on_c, 10, 62, 127
15, 5879, Note_on_c, 10, 62, 0
15, 5880, Note_on_c, 10, 62, 127
15, 5939, Note_on_c, 10, 62, 0
15, 5940, Note_on_c, 10, 62, 127
15, 5999, Note_on_c, 10, 62, 0
15, 6000, Note_on_c, 10, 57, 127
15, 6059, Note_on_c, 10, 57, 0
15, 6420, Note_on_c, 10, 69, 127
15, 6479, Note_on_c, 10, 69, 0
15, 6480, Note_on_c, 10, 69, 127
15, 6539, Note_on_c, 10, 69, 0
15, 6540, Note_on_c, 10, 74, 127
15, 6569, Note_on_c, 10, 74, 0
15, 6570, Note_on_c, 10, 69, 127
15, 6599, Note_on_c, 10, 69, 0
15, 6600, Note_on_c, 10, 66, 127
15, 6629, Note_on_c, 10, 66, 0
15, 6630, Note_on_c, 10, 62, 127
15, 6659, Note_on_c, 10, 62, 0
15, 6660, Note_on_c, 10, 69, 127
15, 6719, Note_on_c, 10, 69, 0
15, 6720, Note_on_c, 10, 69, 127
15, 6779, Note_on_c, 10, 69, 0
15, 6900, Note_on_c, 10, 74, 127
15, 6959, Note_on_c, 10, 74, 0
15, 6960, Note_on_c, 10, 69, 127
15, 7019, Note_on_c, 10, 69, 0
15, 7140, Note_on_c, 10, 69, 127
15, 7199, Note_on_c, 10, 69, 0
15, 7200, Note_on_c, 10, 69, 127
15, 7259, Note_on_c, 10, 69, 0
15, 7260, Note_on_c, 10, 66, 127
15, 7319, Note_on_c, 10, 66, 0
15, 7560, Note_on_c, 10, 69, 127
15, 7619, Note_on_c, 10, 69, 0
15, 7620, Note_on_c, 10, 69, 127
15, 7679, Note_on_c, 10, 69, 0
15, 7680, Note_on_c, 10, 69, 127
15, 7739, Note_on_c, 10, 69, 0
15, 7740, Note_on_c, 10, 69, 127
15, 7799, Note_on_c, 10, 69, 0
15, 7800, Note_on_c, 10, 69, 127
15, 7859, Note_on_c, 10, 69, 0
15, 7860, Note_on_c, 10, 69, 127
15, 7919, Note_on_c, 10, 69, 0
15, 7920, Note_on_c, 10, 73, 127
15, 7979, Note_on_c, 10, 73, 0
15, 7980, Note_on_c, 10, 69, 127
15, 8039, Note_on_c, 10, 69, 0
15, 8040, Note_on_c, 10, 73, 127
15, 8099, Note_on_c, 10, 73, 0
15, 8100, Note_on_c, 10, 69, 127
15, 8159, Note_on_c, 10, 69, 0
15, 8160, Note_on_c, 10, 69, 127
15, 8219, Note_on_c, 10, 69, 0
15, 8220, Note_on_c, 10, 69, 127
15, 8339, Note_on_c, 10, 69, 0
15, 8340, Note_on_c, 10, 69, 127
15, 8399, Note_on_c, 10, 69, 0
15, 8400, Note_on_c, 10, 69, 127
15, 8459, Note_on_c, 10, 69, 0
15, 8460, Note_on_c, 10, 69, 127
15, 8519, Note_on_c, 10, 69, 0
15, 8520, Note_on_c, 10, 67, 127
15, 8579, Note_on_c, 10, 67, 0
15, 8580, Note_on_c, 10, 61, 127
15, 8639, Note_on_c, 10, 61, 0
15, 8640, Note_on_c, 10, 62, 127
15, 8699, Note_on_c, 10, 62, 0
15, 8700, Note_on_c, 10, 64, 127
15, 8759, Note_on_c, 10, 64, 0
15, 8760, Note_on_c, 10, 71, 127
15, 8819, Note_on_c, 10, 71, 0
15, 8820, Note_on_c, 10, 73, 127
15, 8939, Note_on_c, 10, 73, 0
15, 9060, Note_on_c, 10, 64, 127
15, 9089, Note_on_c, 10, 64, 0
15, 9090, Note_on_c, 10, 66, 127
15, 9119, Note_on_c, 10, 66, 0
15, 9120, Note_on_c, 10, 67, 127
15, 9134, Note_on_c, 10, 67, 0
15, 9135, Note_on_c, 10, 66, 127
15, 9149, Note_on_c, 10, 66, 0
15, 9150, Note_on_c, 10, 64, 127
15, 9164, Note_on_c, 10, 64, 0
15, 9165, Note_on_c, 10, 66, 127
15, 9179, Note_on_c, 10, 66, 0
15, 9180, Note_on_c, 10, 67, 127
15, 9239, Note_on_c, 10, 67, 0
15, 9240, Note_on_c, 10, 67, 127
15, 9299, Note_on_c, 10, 67, 0
15, 9300, Note_on_c, 10, 69, 127
15, 9359, Note_on_c, 10, 69, 0
15, 9360, Note_on_c, 10, 71, 127
15, 9419, Note_on_c, 10, 71, 0
15, 9420, Note_on_c, 10, 71, 127
15, 9479, Note_on_c, 10, 71, 0
15, 9480, Note_on_c, 10, 64, 127
15, 9539, Note_on_c, 10, 64, 0
15, 9540, Note_on_c, 10, 71, 127
15, 9599, Note_on_c, 10, 71, 0
15, 9600, Note_on_c, 10, 71, 127
15, 9659, Note_on_c, 10, 71, 0
15, 9660, Note_on_c, 10, 69, 127
15, 9719, Note_on_c, 10, 69, 0
15, 9720, Note_on_c, 10, 69, 127
15, 9779, Note_on_c, 10, 69, 0
15, 9780, Note_on_c, 10, 69, 127
15, 9839, Note_on_c, 10, 69, 0
15, 9960, Note_on_c, 10, 61, 127
15, 9989, Note_on_c, 10, 61, 0
15, 9990, Note_on_c, 10, 62, 127
15, 10019, Note_on_c, 10, 62, 0
15, 10020, Note_on_c, 10, 64, 127
15, 10034, Note_on_c, 10, 64, 0
15, 10035, Note_on_c, 10, 62, 127
15, 10049, Note_on_c, 10, 62, 0
15, 10050, Note_on_c, 10, 61, 127
15, 10064, Note_on_c, 10, 61, 0
15, 10065, Note_on_c, 10, 62, 127
15, 10079, Note_on_c, 10, 62, 0
15, 10080, Note_on_c, 10, 64, 127
15, 10139, Note_on_c, 10, 64, 0
15, 10140, Note_on_c, 10, 64, 127
15, 10199, Note_on_c, 10, 64, 0
15, 10200, Note_on_c, 10, 66, 127
15, 10259, Note_on_c, 10, 66, 0
15, 10260, Note_on_c, 10, 67, 127
15, 10319, Note_on_c, 10, 67, 0
15, 10320, Note_on_c, 10, 64, 127
15, 10379, Note_on_c, 10, 64, 0
15, 10380, Note_on_c, 10, 62, 127
15, 10439, Note_on_c, 10, 62, 0
15, 10440, Note_on_c, 10, 62, 127
15, 10499, Note_on_c, 10, 62, 0
15, 10500, Note_on_c, 10, 62, 127
15, 10559, Note_on_c, 10, 62, 0
15, 10560, Note_on_c, 10, 64, 127
15, 10619, Note_on_c, 10, 64, 0
15, 10620, Note_on_c, 10, 66, 127
15, 10649, Note_on_c, 10, 66, 0
15, 10650, Note_on_c, 10, 64, 127
15, 10679, Note_on_c, 10, 64, 0
15, 10680, Note_on_c, 10, 66, 127
15, 10709, Note_on_c, 10, 66, 0
15, 10710, Note_on_c, 10, 69, 127
15, 10739, Note_on_c, 10, 69, 0
15, 10740, Note_on_c, 10, 67, 127
15, 10769, Note_on_c, 10, 67, 0
15, 10770, Note_on_c, 10, 71, 127
15, 10799, Note_on_c, 10, 71, 0
15, 10800, Note_on_c, 10, 69, 127
15, 10859, Note_on_c, 10, 69, 0
15, 10860, Note_on_c, 10, 62, 127
15, 10919, Note_on_c, 10, 62, 0
15, 11040, Note_on_c, 10, 64, 127
15, 11069, Note_on_c, 10, 64, 0
15, 11070, Note_on_c, 10, 67, 127
15, 11099, Note_on_c, 10, 67, 0
15, 11100, Note_on_c, 10, 67, 127
15, 11114, Note_on_c, 10, 67, 0
15, 11115, Note_on_c, 10, 66, 127
15, 11129, Note_on_c, 10, 66, 0
15, 11130, Note_on_c, 10, 64, 127
15, 11144, Note_on_c, 10, 64, 0
15, 11145, Note_on_c, 10, 66, 127
15, 11159, Note_on_c, 10, 66, 0
15, 11160, Note_on_c, 10, 67, 127
15, 11219, Note_on_c, 10, 67, 0
15, 11220, Note_on_c, 10, 67, 127
15, 11279, Note_on_c, 10, 67, 0
15, 11280, Note_on_c, 10, 69, 127
15, 11339, Note_on_c, 10, 69, 0
15, 11340, Note_on_c, 10, 71, 127
15, 11399, Note_on_c, 10, 71, 0
15, 11400, Note_on_c, 10, 71, 127
15, 11459, Note_on_c, 10, 71, 0
15, 11460, Note_on_c, 10, 71, 127
15, 11519, Note_on_c, 10, 71, 0
15, 11520, Note_on_c, 10, 64, 127
15, 11579, Note_on_c, 10, 64, 0
15, 11580, Note_on_c, 10, 67, 127
15, 11639, Note_on_c, 10, 67, 0
15, 11640, Note_on_c, 10, 64, 127
15, 11699, Note_on_c, 10, 64, 0
15, 11700, Note_on_c, 10, 61, 127
15, 11759, Note_on_c, 10, 61, 0
15, 11760, Note_on_c, 10, 61, 127
15, 11819, Note_on_c, 10, 61, 0
15, 11820, Note_on_c, 10, 61, 127
15, 11879, Note_on_c, 10, 61, 0
15, 11880, Note_on_c, 10, 59, 127
15, 11939, Note_on_c, 10, 59, 0
15, 11940, Note_on_c, 10, 71, 127
15, 11999, Note_on_c, 10, 71, 0
15, 12000, Note_on_c, 10, 70, 127
15, 12059, Note_on_c, 10, 70, 0
15, 12060, Note_on_c, 10, 71, 127
15, 12119, Note_on_c, 10, 71, 0
15, 12120, Note_on_c, 10, 71, 127
15, 12179, Note_on_c, 10, 71, 0
15, 12180, Note_on_c, 10, 66, 127
15, 12299, Note_on_c, 10, 66, 0
15, 12300, Note_on_c, 10, 64, 127
15, 12329, Note_on_c, 10, 64, 0
15, 12330, Note_on_c, 10, 61, 127
15, 12359, Note_on_c, 10, 61, 0
15, 12360, Note_on_c, 10, 62, 127
15, 12419, Note_on_c, 10, 62, 0
15, 12420, Note_on_c, 10, 64, 127
15, 12479, Note_on_c, 10, 64, 0
15, 12480, Note_on_c, 10, 64, 127
15, 12539, Note_on_c, 10, 64, 0
15, 12540, Note_on_c, 10, 66, 127
15, 12599, Note_on_c, 10, 66, 0
15, 12600, Note_on_c, 10, 68, 127
15, 12659, Note_on_c, 10, 68, 0
15, 12660, Note_on_c, 10, 69, 127
15, 12719, Note_on_c, 10, 69, 0
15, 12720, Note_on_c, 10, 68, 127
15, 12779, Note_on_c, 10, 68, 0
15, 12780, Note_on_c, 10, 69, 127
15, 12899, Note_on_c, 10, 69, 0
15, 12900, Note_on_c, 10, 69, 127
15, 12959, Note_on_c, 10, 69, 0
15, 12960, Note_on_c, 10, 69, 127
15, 13019, Note_on_c, 10, 69, 0
15, 13020, Note_on_c, 10, 69, 127
15, 13079, Note_on_c, 10, 69, 0
15, 13080, Note_on_c, 10, 69, 127
15, 13139, Note_on_c, 10, 69, 0
15, 13140, Note_on_c, 10, 69, 127
15, 13199, Note_on_c, 10, 69, 0
15, 13200, Note_on_c, 10, 66, 127
15, 13259, Note_on_c, 10, 66, 0
15, 13260, Note_on_c, 10, 66, 127
15, 13319, Note_on_c, 10, 66, 0
15, 13320, Note_on_c, 10, 68, 127
15, 13379, Note_on_c, 10, 68, 0
15, 13380, Note_on_c, 10, 68, 127
15, 13439, Note_on_c, 10, 68, 0
15, 13440, Note_on_c, 10, 67, 127
15, 13499, Note_on_c, 10, 67, 0
15, 13500, Note_on_c, 10, 67, 127
15, 13559, Note_on_c, 10, 67, 0
15, 13560, Note_on_c, 10, 64, 127
15, 13619, Note_on_c, 10, 64, 0
15, 13680, Note_on_c, 10, 66, 127
15, 13739, Note_on_c, 10, 66, 0
15, 13740, Note_on_c, 10, 68, 127
15, 13799, Note_on_c, 10, 68, 0
15, 13800, Note_on_c, 10, 69, 127
15, 13859, Note_on_c, 10, 69, 0
15, 13860, Note_on_c, 10, 71, 127
15, 13949, Note_on_c, 10, 71, 0
15, 13950, Note_on_c, 10, 73, 127
15, 13979, Note_on_c, 10, 73, 0
15, 13980, Note_on_c, 10, 74, 127
15, 14009, Note_on_c, 10, 74, 0
15, 14010, Note_on_c, 10, 73, 127
15, 14039, Note_on_c, 10, 73, 0
15, 14040, Note_on_c, 10, 71, 127
15, 14099, Note_on_c, 10, 71, 0
15, 14100, Note_on_c, 10, 71, 127
15, 14159, Note_on_c, 10, 71, 0
15, 14160, Note_on_c, 10, 71, 127
15, 14219, Note_on_c, 10, 71, 0
15, 14220, Note_on_c, 10, 69, 127
15, 14279, Note_on_c, 10, 69, 0
15, 14280, Note_on_c, 10, 71, 127
15, 14339, Note_on_c, 10, 71, 0
15, 14340, Note_on_c, 10, 68, 127
15, 14399, Note_on_c, 10, 68, 0
15, 14400, Note_on_c, 10, 64, 127
15, 14519, Note_on_c, 10, 64, 0
15, 15840, Note_on_c, 10, 62, 127
15, 15899, Note_on_c, 10, 62, 0
15, 15900, Note_on_c, 10, 62, 127
15, 15959, Note_on_c, 10, 62, 0
15, 15960, Note_on_c, 10, 62, 127
15, 16019, Note_on_c, 10, 62, 0
15, 16020, Note_on_c, 10, 62, 127
15, 16079, Note_on_c, 10, 62, 0
15, 16080, Note_on_c, 10, 57, 127
15, 16139, Note_on_c, 10, 57, 0
15, 16500, Note_on_c, 10, 69, 127
15, 16559, Note_on_c, 10, 69, 0
15, 16560, Note_on_c, 10, 69, 127
15, 16619, Note_on_c, 10, 69, 0
15, 16620, Note_on_c, 10, 74, 127
15, 16649, Note_on_c, 10, 74, 0
15, 16650, Note_on_c, 10, 69, 127
15, 16679, Note_on_c, 10, 69, 0
15, 16680, Note_on_c, 10, 66, 127
15, 16709, Note_on_c, 10, 66, 0
15, 16710, Note_on_c, 10, 62, 127
15, 16739, Note_on_c, 10, 62, 0
15, 16740, Note_on_c, 10, 69, 127
15, 16799, Note_on_c, 10, 69, 0
15, 16800, Note_on_c, 10, 69, 127
15, 16859, Note_on_c, 10, 69, 0
15, 16980, Note_on_c, 10, 74, 127
15, 17039, Note_on_c, 10, 74, 0
15, 17040, Note_on_c, 10, 69, 127
15, 17099, Note_on_c, 10, 69, 0
15, 17220, Note_on_c, 10, 69, 127
15, 17279, Note_on_c, 10, 69, 0
15, 17280, Note_on_c, 10, 69, 127
15, 17339, Note_on_c, 10, 69, 0
15, 17340, Note_on_c, 10, 66, 127
15, 17399, Note_on_c, 10, 66, 0
15, 17640, Note_on_c, 10, 69, 127
15, 17699, Note_on_c, 10, 69, 0
15, 17700, Note_on_c, 10, 69, 127
15, 17759, Note_on_c, 10, 69, 0
15, 17760, Note_on_c, 10, 69, 127
15, 17819, Note_on_c, 10, 69, 0
15, 17820, Note_on_c, 10, 69, 127
15, 17879, Note_on_c, 10, 69, 0
15, 17880, Note_on_c, 10, 69, 127
15, 17939, Note_on_c, 10, 69, 0
15, 17940, Note_on_c, 10, 69, 127
15, 17999, Note_on_c, 10, 69, 0
15, 18000, Note_on_c, 10, 73, 127
15, 18059, Note_on_c, 10, 73, 0
15, 18060, Note_on_c, 10, 69, 127
15, 18119, Note_on_c, 10, 69, 0
15, 18120, Note_on_c, 10, 73, 127
15, 18179, Note_on_c, 10, 73, 0
15, 18180, Note_on_c, 10, 69, 127
15, 18299, Note_on_c, 10, 69, 0
15, 18300, Note_on_c, 10, 69, 127
15, 18359, Note_on_c, 10, 69, 0
15, 18360, Note_on_c, 10, 69, 127
15, 18419, Note_on_c, 10, 69, 0
15, 18420, Note_on_c, 10, 69, 127
15, 18479, Note_on_c, 10, 69, 0
15, 18480, Note_on_c, 10, 69, 127
15, 18539, Note_on_c, 10, 69, 0
15, 18540, Note_on_c, 10, 69, 127
15, 18599, Note_on_c, 10, 69, 0
15, 18600, Note_on_c, 10, 67, 127
15, 18659, Note_on_c, 10, 67, 0
15, 18660, Note_on_c, 10, 61, 127
15, 18719, Note_on_c, 10, 61, 0
15, 18720, Note_on_c, 10, 62, 127
15, 18779, Note_on_c, 10, 62, 0
15, 18780, Note_on_c, 10, 64, 127
15, 18839, Note_on_c, 10, 64, 0
15, 18840, Note_on_c, 10, 71, 127
15, 18899, Note_on_c, 10, 71, 0
15, 18900, Note_on_c, 10, 73, 127
15, 19019, Note_on_c, 10, 73, 0
15, 19320, Note_on_c, 10, 66, 127
15, 19349, Note_on_c, 10, 66, 0
15, 19350, Note_on_c, 10, 67, 127
15, 19379, Note_on_c, 10, 67, 0
15, 19380, Note_on_c, 10, 69, 127
15, 19394, Note_on_c, 10, 69, 0
15, 19395, Note_on_c, 10, 67, 127
15, 19409, Note_on_c, 10, 67, 0
15, 19410, Note_on_c, 10, 66, 127
15, 19424, Note_on_c, 10, 66, 0
15, 19425, Note_on_c, 10, 67, 127
15, 19439, Note_on_c, 10, 67, 0
15, 19440, Note_on_c, 10, 69, 127
15, 19499, Note_on_c, 10, 69, 0
15, 19500, Note_on_c, 10, 67, 127
15, 19559, Note_on_c, 10, 67, 0
15, 19560, Note_on_c, 10, 66, 127
15, 19619, Note_on_c, 10, 66, 0
15, 19620, Note_on_c, 10, 64, 127
15, 19679, Note_on_c, 10, 64, 0
15, 19680, Note_on_c, 10, 69, 127
15, 19739, Note_on_c, 10, 69, 0
15, 19740, Note_on_c, 10, 66, 127
15, 19799, Note_on_c, 10, 66, 0
15, 19800, Note_on_c, 10, 71, 127
15, 19859, Note_on_c, 10, 71, 0
15, 19860, Note_on_c, 10, 71, 127
15, 19919, Note_on_c, 10, 71, 0
15, 19920, Note_on_c, 10, 70, 127
15, 19979, Note_on_c, 10, 70, 0
15, 19980, Note_on_c, 10, 71, 127
15, 20039, Note_on_c, 10, 71, 0
15, 20040, Note_on_c, 10, 66, 127
15, 20099, Note_on_c, 10, 66, 0
15, 20220, Note_on_c, 10, 69, 127
15, 20249, Note_on_c, 10, 69, 0
15, 20250, Note_on_c, 10, 71, 127
15, 20279, Note_on_c, 10, 71, 0
15, 20280, Note_on_c, 10, 73, 127
15, 20294, Note_on_c, 10, 73, 0
15, 20295, Note_on_c, 10, 71, 127
15, 20309, Note_on_c, 10, 71, 0
15, 20310, Note_on_c, 10, 69, 127
15, 20324, Note_on_c, 10, 69, 0
15, 20325, Note_on_c, 10, 71, 127
15, 20339, Note_on_c, 10, 71, 0
15, 20340, Note_on_c, 10, 73, 127
15, 20399, Note_on_c, 10, 73, 0
15, 20400, Note_on_c, 10, 74, 127
15, 20459, Note_on_c, 10, 74, 0
15, 20460, Note_on_c, 10, 69, 127
15, 20519, Note_on_c, 10, 69, 0
15, 20520, Note_on_c, 10, 74, 127
15, 20579, Note_on_c, 10, 74, 0
15, 20580, Note_on_c, 10, 69, 127
15, 20639, Note_on_c, 10, 69, 0
15, 20760, Note_on_c, 10, 61, 127
15, 20789, Note_on_c, 10, 61, 0
15, 20790, Note_on_c, 10, 63, 127
15, 20819, Note_on_c, 10, 63, 0
15, 20820, Note_on_c, 10, 64, 127
15, 20834, Note_on_c, 10, 64, 0
15, 20835, Note_on_c, 10, 63, 127
15, 20849, Note_on_c, 10, 63, 0
15, 20850, Note_on_c, 10, 61, 127
15, 20864, Note_on_c, 10, 61, 0
15, 20865, Note_on_c, 10, 63, 127
15, 20879, Note_on_c, 10, 63, 0
15, 20880, Note_on_c, 10, 64, 127
15, 20939, Note_on_c, 10, 64, 0
15, 20940, Note_on_c, 10, 64, 127
15, 20999, Note_on_c, 10, 64, 0
15, 21000, Note_on_c, 10, 62, 127
15, 21059, Note_on_c, 10, 62, 0
15, 21060, Note_on_c, 10, 62, 127
15, 21119, Note_on_c, 10, 62, 0
15, 21120, Note_on_c, 10, 62, 127
15, 21179, Note_on_c, 10, 62, 0
15, 21180, Note_on_c, 10, 61, 127
15, 21239, Note_on_c, 10, 61, 0
15, 21240, Note_on_c, 10, 62, 127
15, 21299, Note_on_c, 10, 62, 0
15, 21300, Note_on_c, 10, 66, 127
15, 21359, Note_on_c, 10, 66, 0
15, 21360, Note_on_c, 10, 68, 127
15, 21419, Note_on_c, 10, 68, 0
15, 21420, Note_on_c, 10, 69, 127
15, 21479, Note_on_c, 10, 69, 0
15, 21480, Note_on_c, 10, 64, 127
15, 21539, Note_on_c, 10, 64, 0
15, 21540, Note_on_c, 10, 69, 127
15, 21599, Note_on_c, 10, 69, 0
15, 21600, Note_on_c, 10, 69, 127
15, 21659, Note_on_c, 10, 69, 0
15, 21660, Note_on_c, 10, 72, 127
15, 21719, Note_on_c, 10, 72, 0
15, 21720, Note_on_c, 10, 69, 127
15, 21779, Note_on_c, 10, 69, 0
15, 21780, Note_on_c, 10, 66, 127
15, 21839, Note_on_c, 10, 66, 0
15, 21840, Note_on_c, 10, 66, 127
15, 21899, Note_on_c, 10, 66, 0
15, 21900, Note_on_c, 10, 66, 127
15, 21959, Note_on_c, 10, 66, 0
15, 21960, Note_on_c, 10, 71, 127
15, 22019, Note_on_c, 10, 71, 0
15, 22020, Note_on_c, 10, 71, 127
15, 22079, Note_on_c, 10, 71, 0
15, 22080, Note_on_c, 10, 69, 127
15, 22139, Note_on_c, 10, 69, 0
15, 22140, Note_on_c, 10, 69, 127
15, 22199, Note_on_c, 10, 69, 0
15, 22200, Note_on_c, 10, 67, 127
15, 22259, Note_on_c, 10, 67, 0
15, 22260, Note_on_c, 10, 71, 127
15, 22379, Note_on_c, 10, 71, 0
15, 22380, Note_on_c, 10, 69, 127
15, 22409, Note_on_c, 10, 69, 0
15, 22410, Note_on_c, 10, 66, 127
15, 22439, Note_on_c, 10, 66, 0
15, 22440, Note_on_c, 10, 67, 127
15, 22499, Note_on_c, 10, 67, 0
15, 22500, Note_on_c, 10, 69, 127
15, 22559, Note_on_c, 10, 69, 0
15, 22560, Note_on_c, 10, 64, 127
15, 22619, Note_on_c, 10, 64, 0
15, 22620, Note_on_c, 10, 64, 127
15, 22679, Note_on_c, 10, 64, 0
15, 22680, Note_on_c, 10, 69, 127
15, 22739, Note_on_c, 10, 69, 0
15, 22740, Note_on_c, 10, 69, 127
15, 22799, Note_on_c, 10, 69, 0
15, 22800, Note_on_c, 10, 67, 127
15, 22859, Note_on_c, 10, 67, 0
15, 22860, Note_on_c, 10, 66, 127
15, 22979, Note_on_c, 10, 66, 0
15, 22980, Note_on_c, 10, 66, 127
15, 23039, Note_on_c, 10, 66, 0
15, 23040, Note_on_c, 10, 66, 127
15, 23099, Note_on_c, 10, 66, 0
15, 23100, Note_on_c, 10, 68, 127
15, 23159, Note_on_c, 10, 68, 0
15, 23160, Note_on_c, 10, 69, 127
15, 23219, Note_on_c, 10, 69, 0
15, 23220, Note_on_c, 10, 71, 127
15, 23279, Note_on_c, 10, 71, 0
15, 23280, Note_on_c, 10, 64, 127
15, 23339, Note_on_c, 10, 64, 0
15, 23340, Note_on_c, 10, 64, 127
15, 23399, Note_on_c, 10, 64, 0
15, 23400, Note_on_c, 10, 64, 127
15, 23459, Note_on_c, 10, 64, 0
15, 23460, Note_on_c, 10, 66, 127
15, 23519, Note_on_c, 10, 66, 0
15, 23520, Note_on_c, 10, 67, 127
15, 23579, Note_on_c, 10, 67, 0
15, 23580, Note_on_c, 10, 69, 127
15, 23639, Note_on_c, 10, 69, 0
15, 23640, Note_on_c, 10, 62, 127
15, 23699, Note_on_c, 10, 62, 0
15, 23760, Note_on_c, 10, 62, 127
15, 23819, Note_on_c, 10, 62, 0
15, 23820, Note_on_c, 10, 64, 127
15, 23879, Note_on_c, 10, 64, 0
15, 23880, Note_on_c, 10, 66, 127
15, 23939, Note_on_c, 10, 66, 0
15, 23940, Note_on_c, 10, 67, 127
15, 23999, Note_on_c, 10, 67, 0
15, 24000, Note_on_c, 10, 71, 127
15, 24029, Note_on_c, 10, 71, 0
15, 24030, Note_on_c, 10, 69, 127
15, 24059, Note_on_c, 10, 69, 0
15, 24060, Note_on_c, 10, 67, 127
15, 24089, Note_on_c, 10, 67, 0
15, 24090, Note_on_c, 10, 66, 127
15, 24119, Note_on_c, 10, 66, 0
15, 24120, Note_on_c, 10, 64, 127
15, 24179, Note_on_c, 10, 64, 0
15, 24180, Note_on_c, 10, 62, 127
15, 24239, Note_on_c, 10, 62, 0
15, 24240, Note_on_c, 10, 64, 127
15, 24299, Note_on_c, 10, 64, 0
15, 24300, Note_on_c, 10, 62, 127
15, 24359, Note_on_c, 10, 62, 0
15, 24360, Note_on_c, 10, 69, 127
15, 24419, Note_on_c, 10, 69, 0
15, 24420, Note_on_c, 10, 69, 127
15, 24479, Note_on_c, 10, 69, 0
15, 24480, Note_on_c, 10, 69, 127
15, 24659, Note_on_c, 10, 69, 0
15, 25020, Note_on_c, 10, 71, 127
15, 25079, Note_on_c, 10, 71, 0
15, 25080, Note_on_c, 10, 69, 127
15, 25109, Note_on_c, 10, 69, 0
15, 25110, Note_on_c, 10, 67, 127
15, 25139, Note_on_c, 10, 67, 0
15, 25140, Note_on_c, 10, 66, 127
15, 25169, Note_on_c, 10, 66, 0
15, 25170, Note_on_c, 10, 64, 127
15, 25199, Note_on_c, 10, 64, 0
15, 25200, Note_on_c, 10, 70, 127
15, 25259, Note_on_c, 10, 70, 0
15, 25260, Note_on_c, 10, 71, 127
15, 25319, Note_on_c, 10, 71, 0
15, 25320, Note_on_c, 10, 73, 127
15, 25379, Note_on_c, 10, 73, 0
15, 25380, Note_on_c, 10, 66, 127
15, 25439, Note_on_c, 10, 66, 0
15, 25440, Note_on_c, 10, 71, 127
15, 25499, Note_on_c, 10, 71, 0
15, 25500, Note_on_c, 10, 59, 127
15, 25559, Note_on_c, 10, 59, 0
15, 25560, Note_on_c, 10, 61, 127
15, 25619, Note_on_c, 10, 61, 0
15, 25620, Note_on_c, 10, 57, 127
15, 25679, Note_on_c, 10, 57, 0
15, 25680, Note_on_c, 10, 69, 127
15, 25739, Note_on_c, 10, 69, 0
15, 25740, Note_on_c, 10, 71, 127
15, 25799, Note_on_c, 10, 71, 0
15, 25800, Note_on_c, 10, 69, 127
15, 25829, Note_on_c, 10, 69, 0
15, 25830, Note_on_c, 10, 67, 127
15, 25859, Note_on_c, 10, 67, 0
15, 25860, Note_on_c, 10, 66, 127
15, 25889, Note_on_c, 10, 66, 0
15, 25890, Note_on_c, 10, 64, 127
15, 25919, Note_on_c, 10, 64, 0
15, 25920, Note_on_c, 10, 66, 127
15, 25949, Note_on_c, 10, 66, 0
15, 25950, Note_on_c, 10, 67, 127
15, 25979, Note_on_c, 10, 67, 0
15, 25980, Note_on_c, 10, 66, 127
15, 26009, Note_on_c, 10, 66, 0
15, 26010, Note_on_c, 10, 64, 127
15, 26039, Note_on_c, 10, 64, 0
15, 26040, Note_on_c, 10, 62, 127
15, 26069, Note_on_c, 10, 62, 0
15, 26070, Note_on_c, 10, 66, 127
15, 26099, Note_on_c, 10, 66, 0
15, 26100, Note_on_c, 10, 64, 127
15, 26159, Note_on_c, 10, 64, 0
15, 26160, Note_on_c, 10, 61, 127
15, 26219, Note_on_c, 10, 61, 0
15, 26220, Note_on_c, 10, 69, 127
15, 26279, Note_on_c, 10, 69, 0
15, 26280, Note_on_c, 10, 69, 127
15, 26339, Note_on_c, 10, 69, 0
15, 26340, Note_on_c, 10, 67, 127
15, 26369, Note_on_c, 10, 67, 0
15, 26370, Note_on_c, 10, 66, 127
15, 26399, Note_on_c, 10, 66, 0
15, 26400, Note_on_c, 10, 64, 127
15, 26429, Note_on_c, 10, 64, 0
15, 26430, Note_on_c, 10, 62, 127
15, 26459, Note_on_c, 10, 62, 0
15, 26460, Note_on_c, 10, 61, 127
15, 26519, Note_on_c, 10, 61, 0
15, 26520, Note_on_c, 10, 62, 127
15, 26549, Note_on_c, 10, 62, 0
15, 26550, Note_on_c, 10, 64, 127
15, 26579, Note_on_c, 10, 64, 0
15, 26580, Note_on_c, 10, 66, 127
15, 26609, Note_on_c, 10, 66, 0
15, 26610, Note_on_c, 10, 62, 127
15, 26639, Note_on_c, 10, 62, 0
15, 26640, Note_on_c, 10, 67, 127
15, 26669, Note_on_c, 10, 67, 0
15, 26670, Note_on_c, 10, 69, 127
15, 26699, Note_on_c, 10, 69, 0
15, 26700, Note_on_c, 10, 67, 127
15, 26729, Note_on_c, 10, 67, 0
15, 26730, Note_on_c, 10, 66, 127
15, 26759, Note_on_c, 10, 66, 0
15, 26760, Note_on_c, 10, 64, 127
15, 26789, Note_on_c, 10, 64, 0
15, 26790, Note_on_c, 10, 62, 127
15, 26819, Note_on_c, 10, 62, 0
15, 26820, Note_on_c, 10, 61, 127
15, 26879, Note_on_c, 10, 61, 0
15, 26880, Note_on_c, 10, 57, 127
15, 26939, Note_on_c, 10, 57, 0
15, 26940, Note_on_c, 10, 69, 127
15, 27059, Note_on_c, 10, 69, 0
15, 27060, Note_on_c, 10, 67, 127
15, 27119, Note_on_c, 10, 67, 0
15, 27120, Note_on_c, 10, 71, 127
15, 27179, Note_on_c, 10, 71, 0
15, 27180, Note_on_c, 10, 69, 127
15, 27239, Note_on_c, 10, 69, 0
15, 27240, Note_on_c, 10, 69, 127
15, 27299, Note_on_c, 10, 69, 0
15, 27300, Note_on_c, 10, 66, 127
15, 27359, Note_on_c, 10, 66, 0
15, 27360, Note_on_c, 10, 64, 127
15, 27419, Note_on_c, 10, 64, 0
15, 27420, Note_on_c, 10, 64, 127
15, 27479, Note_on_c, 10, 64, 0
15, 27540, Note_on_c, 10, 69, 127
15, 27599, Note_on_c, 10, 69, 0
15, 27600, Note_on_c, 10, 67, 127
15, 27629, Note_on_c, 10, 67, 0
15, 27630, Note_on_c, 10, 66, 127
15, 27659, Note_on_c, 10, 66, 0
15, 27660, Note_on_c, 10, 64, 127
15, 27689, Note_on_c, 10, 64, 0
15, 27690, Note_on_c, 10, 62, 127
15, 27719, Note_on_c, 10, 62, 0
15, 27720, Note_on_c, 10, 64, 127
15, 27779, Note_on_c, 10, 64, 0
15, 27780, Note_on_c, 10, 69, 127
15, 27959, Note_on_c, 10, 69, 0
15, 27960, Note_on_c, 10, 74, 127
15, 28019, Note_on_c, 10, 74, 0
15, 28020, Note_on_c, 10, 68, 127
15, 28079, Note_on_c, 10, 68, 0
15, 28080, Note_on_c, 10, 69, 127
15, 28139, Note_on_c, 10, 69, 0
15, 28140, Note_on_c, 10, 64, 127
15, 28199, Note_on_c, 10, 64, 0
15, 28260, Note_on_c, 10, 69, 127
15, 28319, Note_on_c, 10, 69, 0
15, 28320, Note_on_c, 10, 67, 127
15, 28349, Note_on_c, 10, 67, 0
15, 28350, Note_on_c, 10, 66, 127
15, 28379, Note_on_c, 10, 66, 0
15, 28380, Note_on_c, 10, 64, 127
15, 28409, Note_on_c, 10, 64, 0
15, 28410, Note_on_c, 10, 62, 127
15, 28439, Note_on_c, 10, 62, 0
15, 28440, Note_on_c, 10, 71, 127
15, 28529, Note_on_c, 10, 71, 0
15, 28530, Note_on_c, 10, 73, 127
15, 28559, Note_on_c, 10, 73, 0
15, 28560, Note_on_c, 10, 71, 127
15, 28589, Note_on_c, 10, 71, 0
15, 28590, Note_on_c, 10, 73, 127
15, 28619, Note_on_c, 10, 73, 0
15, 28620, Note_on_c, 10, 69, 127
15, 28649, Note_on_c, 10, 69, 0
15, 28650, Note_on_c, 10, 71, 127
15, 28679, Note_on_c, 10, 71, 0
15, 28680, Note_on_c, 10, 69, 127
15, 28709, Note_on_c, 10, 69, 0
15, 28710, Note_on_c, 10, 67, 127
15, 28739, Note_on_c, 10, 67, 0
15, 28740, Note_on_c, 10, 66, 127
15, 28769, Note_on_c, 10, 66, 0
15, 28770, Note_on_c, 10, 69, 127
15, 28799, Note_on_c, 10, 69, 0
15, 28800, Note_on_c, 10, 67, 127
15, 28829, Note_on_c, 10, 67, 0
15, 28830, Note_on_c, 10, 69, 127
15, 28859, Note_on_c, 10, 69, 0
15, 28860, Note_on_c, 10, 67, 127
15, 28889, Note_on_c, 10, 67, 0
15, 28890, Note_on_c, 10, 66, 127
15, 28919, Note_on_c, 10, 66, 0
15, 28920, Note_on_c, 10, 67, 127
15, 28949, Note_on_c, 10, 67, 0
15, 28950, Note_on_c, 10, 64, 127
15, 28979, Note_on_c, 10, 64, 0
15, 28980, Note_on_c, 10, 66, 127
15, 29039, Note_on_c, 10, 66, 0
15, 29040, Note_on_c, 10, 66, 127
15, 29099, Note_on_c, 10, 66, 0
15, 29100, Note_on_c, 10, 71, 127
15, 29219, Note_on_c, 10, 71, 0
15, 29220, Note_on_c, 10, 70, 127
15, 29249, Note_on_c, 10, 70, 0
15, 29250, Note_on_c, 10, 68, 127
15, 29279, Note_on_c, 10, 68, 0
15, 29280, Note_on_c, 10, 66, 127
15, 29309, Note_on_c, 10, 66, 0
15, 29310, Note_on_c, 10, 64, 127
15, 29339, Note_on_c, 10, 64, 0
15, 29340, Note_on_c, 10, 63, 127
15, 29399, Note_on_c, 10, 63, 0
15, 29400, Note_on_c, 10, 64, 127
15, 29429, Note_on_c, 10, 64, 0
15, 29430, Note_on_c, 10, 66, 127
15, 29459, Note_on_c, 10, 66, 0
15, 29460, Note_on_c, 10, 67, 127
15, 29519, Note_on_c, 10, 67, 0
15, 29520, Note_on_c, 10, 66, 127
15, 29549, Note_on_c, 10, 66, 0
15, 29550, Note_on_c, 10, 67, 127
15, 29579, Note_on_c, 10, 67, 0
15, 29580, Note_on_c, 10, 66, 127
15, 29609, Note_on_c, 10, 66, 0
15, 29610, Note_on_c, 10, 64, 127
15, 29639, Note_on_c, 10, 64, 0
15, 29640, Note_on_c, 10, 62, 127
15, 29669, Note_on_c, 10, 62, 0
15, 29670, Note_on_c, 10, 61, 127
15, 29699, Note_on_c, 10, 61, 0
15, 29700, Note_on_c, 10, 59, 127
15, 29789, Note_on_c, 10, 59, 0
15, 29790, Note_on_c, 10, 58, 127
15, 29819, Note_on_c, 10, 58, 0
15, 29820, Note_on_c, 10, 59, 127
15, 29849, Note_on_c, 10, 59, 0
15, 29850, Note_on_c, 10, 61, 127
15, 29879, Note_on_c, 10, 61, 0
15, 29880, Note_on_c, 10, 62, 127
15, 29939, Note_on_c, 10, 62, 0
15, 29940, Note_on_c, 10, 69, 127
15, 29969, Note_on_c, 10, 69, 0
15, 29970, Note_on_c, 10, 67, 127
15, 29999, Note_on_c, 10, 67, 0
15, 30000, Note_on_c, 10, 66, 127
15, 30029, Note_on_c, 10, 66, 0
15, 30030, Note_on_c, 10, 69, 127
15, 30059, Note_on_c, 10, 69, 0
15, 30060, Note_on_c, 10, 71, 127
15, 30119, Note_on_c, 10, 71, 0
15, 30120, Note_on_c, 10, 66, 127
15, 30179, Note_on_c, 10, 66, 0
15, 30180, Note_on_c, 10, 66, 127
15, 30239, Note_on_c, 10, 66, 0
15, 30240, Note_on_c, 10, 67, 127
15, 30299, Note_on_c, 10, 67, 0
15, 30300, Note_on_c, 10, 67, 127
15, 30359, Note_on_c, 10, 67, 0
15, 30360, Note_on_c, 10, 66, 127
15, 30419, Note_on_c, 10, 66, 0
15, 30420, Note_on_c, 10, 66, 127
15, 30479, Note_on_c, 10, 66, 0
15, 30480, Note_on_c, 10, 66, 127
15, 30539, Note_on_c, 10, 66, 0
15, 33300, Note_on_c, 10, 71, 127
15, 33359, Note_on_c, 10, 71, 0
15, 33360, Note_on_c, 10, 66, 127
15, 33419, Note_on_c, 10, 66, 0
15, 33420, Note_on_c, 10, 71, 127
15, 33479, Note_on_c, 10, 71, 0
15, 33480, Note_on_c, 10, 71, 127
15, 33509, Note_on_c, 10, 71, 0
15, 33510, Note_on_c, 10, 69, 127
15, 33539, Note_on_c, 10, 69, 0
15, 33540, Note_on_c, 10, 71, 127
15, 33599, Note_on_c, 10, 71, 0
15, 33600, Note_on_c, 10, 71, 127
15, 33659, Note_on_c, 10, 71, 0
15, 33660, Note_on_c, 10, 71, 127
15, 33719, Note_on_c, 10, 71, 0
15, 33720, Note_on_c, 10, 69, 127
15, 33779, Note_on_c, 10, 69, 0
15, 33780, Note_on_c, 10, 68, 127
15, 33839, Note_on_c, 10, 68, 0
15, 33840, Note_on_c, 10, 69, 127
15, 33899, Note_on_c, 10, 69, 0
15, 33900, Note_on_c, 10, 69, 127
15, 33959, Note_on_c, 10, 69, 0
15, 34020, Note_on_c, 10, 73, 127
15, 34079, Note_on_c, 10, 73, 0
15, 34080, Note_on_c, 10, 73, 127
15, 34139, Note_on_c, 10, 73, 0
15, 34140, Note_on_c, 10, 71, 127
15, 34199, Note_on_c, 10, 71, 0
15, 34200, Note_on_c, 10, 69, 127
15, 34259, Note_on_c, 10, 69, 0
15, 34260, Note_on_c, 10, 69, 127
15, 34319, Note_on_c, 10, 69, 0
15, 34320, Note_on_c, 10, 69, 127
15, 34379, Note_on_c, 10, 69, 0
15, 34380, Note_on_c, 10, 74, 127
15, 34439, Note_on_c, 10, 74, 0
15, 34440, Note_on_c, 10, 74, 127
15, 34499, Note_on_c, 10, 74, 0
15, 34500, Note_on_c, 10, 73, 127
15, 34559, Note_on_c, 10, 73, 0
15, 34560, Note_on_c, 10, 74, 127
15, 34619, Note_on_c, 10, 74, 0
15, 34620, Note_on_c, 10, 62, 127
15, 34679, Note_on_c, 10, 62, 0
15, 34680, Note_on_c, 10, 64, 127
15, 34739, Note_on_c, 10, 64, 0
15, 34740, Note_on_c, 10, 66, 127
15, 34799, Note_on_c, 10, 66, 0
15, 34800, Note_on_c, 10, 68, 127
15, 34829, Note_on_c, 10, 68, 0
15, 34830, Note_on_c, 10, 70, 127
15, 34859, Note_on_c, 10, 70, 0
15, 34860, Note_on_c, 10, 71, 127
15, 34979, Note_on_c, 10, 71, 0
15, 34980, Note_on_c, 10, 64, 127
15, 35039, Note_on_c, 10, 64, 0
15, 35040, Note_on_c, 10, 67, 127
15, 35099, Note_on_c, 10, 67, 0
15, 35100, Note_on_c, 10, 61, 127
15, 35159, Note_on_c, 10, 61, 0
15, 35160, Note_on_c, 10, 66, 127
15, 35189, Note_on_c, 10, 66, 0
15, 35190, Note_on_c, 10, 64, 127
15, 35219, Note_on_c, 10, 64, 0
15, 35220, Note_on_c, 10, 66, 127
15, 35339, Note_on_c, 10, 66, 0
15, 35340, Note_on_c, 10, 65, 127
15, 35399, Note_on_c, 10, 65, 0
15, 35400, Note_on_c, 10, 66, 127
15, 35459, Note_on_c, 10, 66, 0
15, 35460, Note_on_c, 10, 68, 127
15, 35519, Note_on_c, 10, 68, 0
15, 35520, Note_on_c, 10, 69, 127
15, 35549, Note_on_c, 10, 69, 0
15, 35550, Note_on_c, 10, 68, 127
15, 35579, Note_on_c, 10, 68, 0
15, 35580, Note_on_c, 10, 68, 127
15, 35639, Note_on_c, 10, 68, 0
15, 35640, Note_on_c, 10, 68, 127
15, 35669, Note_on_c, 10, 68, 0
15, 35670, Note_on_c, 10, 71, 127
15, 35699, Note_on_c, 10, 71, 0
15, 35700, Note_on_c, 10, 71, 127
15, 35729, Note_on_c, 10, 71, 0
15, 35730, Note_on_c, 10, 69, 127
15, 35759, Note_on_c, 10, 69, 0
15, 35760, Note_on_c, 10, 68, 127
15, 35789, Note_on_c, 10, 68, 0
15, 35790, Note_on_c, 10, 69, 127
15, 35819, Note_on_c, 10, 69, 0
15, 35820, Note_on_c, 10, 66, 127
15, 35849, Note_on_c, 10, 66, 0
15, 35850, Note_on_c, 10, 69, 127
15, 35879, Note_on_c, 10, 69, 0
15, 35880, Note_on_c, 10, 69, 127
15, 35909, Note_on_c, 10, 69, 0
15, 35910, Note_on_c, 10, 68, 127
15, 35939, Note_on_c, 10, 68, 0
15, 35940, Note_on_c, 10, 66, 127
15, 35969, Note_on_c, 10, 66, 0
15, 35970, Note_on_c, 10, 65, 127
15, 35999, Note_on_c, 10, 65, 0
15, 36000, Note_on_c, 10, 66, 127
15, 36119, Note_on_c, 10, 66, 0
15, 36120, Note_on_c, 10, 61, 127
15, 36179, Note_on_c, 10, 61, 0
15, 42060, Note_on_c, 10, 62, 127
15, 42119, Note_on_c, 10, 62, 0
15, 42120, Note_on_c, 10, 62, 127
15, 42179, Note_on_c, 10, 62, 0
15, 42180, Note_on_c, 10, 62, 127
15, 42239, Note_on_c, 10, 62, 0
15, 42240, Note_on_c, 10, 62, 127
15, 42299, Note_on_c, 10, 62, 0
15, 42300, Note_on_c, 10, 57, 127
15, 42359, Note_on_c, 10, 57, 0
15, 42720, Note_on_c, 10, 69, 127
15, 42779, Note_on_c, 10, 69, 0
15, 42780, Note_on_c, 10, 69, 127
15, 42839, Note_on_c, 10, 69, 0
15, 42840, Note_on_c, 10, 74, 127
15, 42869, Note_on_c, 10, 74, 0
15, 42870, Note_on_c, 10, 69, 127
15, 42899, Note_on_c, 10, 69, 0
15, 42900, Note_on_c, 10, 66, 127
15, 42929, Note_on_c, 10, 66, 0
15, 42930, Note_on_c, 10, 62, 127
15, 42959, Note_on_c, 10, 62, 0
15, 42960, Note_on_c, 10, 69, 127
15, 43019, Note_on_c, 10, 69, 0
15, 43020, Note_on_c, 10, 69, 127
15, 43079, Note_on_c, 10, 69, 0
15, 43200, Note_on_c, 10, 74, 127
15, 43259, Note_on_c, 10, 74, 0
15, 43260, Note_on_c, 10, 69, 127
15, 43319, Note_on_c, 10, 69, 0
15, 43440, Note_on_c, 10, 69, 127
15, 43499, Note_on_c, 10, 69, 0
15, 43500, Note_on_c, 10, 69, 127
15, 43559, Note_on_c, 10, 69, 0
15, 43560, Note_on_c, 10, 66, 127
15, 43619, Note_on_c, 10, 66, 0
15, 43860, Note_on_c, 10, 69, 127
15, 43919, Note_on_c, 10, 69, 0
15, 43920, Note_on_c, 10, 69, 127
15, 43979, Note_on_c, 10, 69, 0
15, 43980, Note_on_c, 10, 69, 127
15, 44039, Note_on_c, 10, 69, 0
15, 44040, Note_on_c, 10, 69, 127
15, 44099, Note_on_c, 10, 69, 0
15, 44100, Note_on_c, 10, 69, 127
15, 44159, Note_on_c, 10, 69, 0
15, 44160, Note_on_c, 10, 69, 127
15, 44219, Note_on_c, 10, 69, 0
15, 44220, Note_on_c, 10, 73, 127
15, 44279, Note_on_c, 10, 73, 0
15, 44280, Note_on_c, 10, 69, 127
15, 44339, Note_on_c, 10, 69, 0
15, 44340, Note_on_c, 10, 73, 127
15, 44399, Note_on_c, 10, 73, 0
15, 44400, Note_on_c, 10, 69, 127
15, 44459, Note_on_c, 10, 69, 0
15, 44460, Note_on_c, 10, 69, 127
15, 44519, Note_on_c, 10, 69, 0
15, 44520, Note_on_c, 10, 69, 127
15, 44639, Note_on_c, 10, 69, 0
15, 44640, Note_on_c, 10, 69, 127
15, 44699, Note_on_c, 10, 69, 0
15, 44700, Note_on_c, 10, 69, 127
15, 44759, Note_on_c, 10, 69, 0
15, 44760, Note_on_c, 10, 69, 127
15, 44819, Note_on_c, 10, 69, 0
15, 44820, Note_on_c, 10, 67, 127
15, 44879, Note_on_c, 10, 67, 0
15, 44880, Note_on_c, 10, 61, 127
15, 44939, Note_on_c, 10, 61, 0
15, 44940, Note_on_c, 10, 62, 127
15, 44999, Note_on_c, 10, 62, 0
15, 45000, Note_on_c, 10, 64, 127
15, 45059, Note_on_c, 10, 64, 0
15, 45060, Note_on_c, 10, 71, 127
15, 45119, Note_on_c, 10, 71, 0
15, 45120, Note_on_c, 10, 73, 127
15, 45239, Note_on_c, 10, 73, 0
15, 45360, Note_on_c, 10, 64, 127
15, 45389, Note_on_c, 10, 64, 0
15, 45390, Note_on_c, 10, 66, 127
15, 45419, Note_on_c, 10, 66, 0
15, 45420, Note_on_c, 10, 67, 127
15, 45434, Note_on_c, 10, 67, 0
15, 45435, Note_on_c, 10, 66, 127
15, 45449, Note_on_c, 10, 66, 0
15, 45450, Note_on_c, 10, 64, 127
15, 45464, Note_on_c, 10, 64, 0
15, 45465, Note_on_c, 10, 66, 127
15, 45479, Note_on_c, 10, 66, 0
15, 45480, Note_on_c, 10, 67, 127
15, 45539, Note_on_c, 10, 67, 0
15, 45540, Note_on_c, 10, 67, 127
15, 45599, Note_on_c, 10, 67, 0
15, 45600, Note_on_c, 10, 69, 127
15, 45659, Note_on_c, 10, 69, 0
15, 45660, Note_on_c, 10, 71, 127
15, 45719, Note_on_c, 10, 71, 0
15, 45720, Note_on_c, 10, 71, 127
15, 45779, Note_on_c, 10, 71, 0
15, 45780, Note_on_c, 10, 64, 127
15, 45839, Note_on_c, 10, 64, 0
15, 45840, Note_on_c, 10, 71, 127
15, 45899, Note_on_c, 10, 71, 0
15, 45900, Note_on_c, 10, 71, 127
15, 45959, Note_on_c, 10, 71, 0
15, 45960, Note_on_c, 10, 69, 127
15, 46019, Note_on_c, 10, 69, 0
15, 46020, Note_on_c, 10, 69, 127
15, 46079, Note_on_c, 10, 69, 0
15, 46080, Note_on_c, 10, 69, 127
15, 46139, Note_on_c, 10, 69, 0
15, 46260, Note_on_c, 10, 61, 127
15, 46289, Note_on_c, 10, 61, 0
15, 46290, Note_on_c, 10, 62, 127
15, 46319, Note_on_c, 10, 62, 0
15, 46320, Note_on_c, 10, 64, 127
15, 46334, Note_on_c, 10, 64, 0
15, 46335, Note_on_c, 10, 62, 127
15, 46349, Note_on_c, 10, 62, 0
15, 46350, Note_on_c, 10, 61, 127
15, 46364, Note_on_c, 10, 61, 0
15, 46365, Note_on_c, 10, 62, 127
15, 46379, Note_on_c, 10, 62, 0
15, 46380, Note_on_c, 10, 64, 127
15, 46439, Note_on_c, 10, 64, 0
15, 46440, Note_on_c, 10, 64, 127
15, 46499, Note_on_c, 10, 64, 0
15, 46500, Note_on_c, 10, 66, 127
15, 46559, Note_on_c, 10, 66, 0
15, 46560, Note_on_c, 10, 67, 127
15, 46619, Note_on_c, 10, 67, 0
15, 46620, Note_on_c, 10, 64, 127
15, 46679, Note_on_c, 10, 64, 0
15, 46680, Note_on_c, 10, 62, 127
15, 46739, Note_on_c, 10, 62, 0
15, 46740, Note_on_c, 10, 62, 127
15, 46799, Note_on_c, 10, 62, 0
15, 46800, Note_on_c, 10, 62, 127
15, 46859, Note_on_c, 10, 62, 0
15, 46860, Note_on_c, 10, 64, 127
15, 46919, Note_on_c, 10, 64, 0
15, 46920, Note_on_c, 10, 66, 127
15, 46949, Note_on_c, 10, 66, 0
15, 46950, Note_on_c, 10, 64, 127
15, 46979, Note_on_c, 10, 64, 0
15, 46980, Note_on_c, 10, 66, 127
15, 47009, Note_on_c, 10, 66, 0
15, 47010, Note_on_c, 10, 69, 127
15, 47039, Note_on_c, 10, 69, 0
15, 47040, Note_on_c, 10, 67, 127
15, 47069, Note_on_c, 10, 67, 0
15, 47070, Note_on_c, 10, 71, 127
15, 47099, Note_on_c, 10, 71, 0
15, 47100, Note_on_c, 10, 69, 127
15, 47159, Note_on_c, 10, 69, 0
15, 47160, Note_on_c, 10, 62, 127
15, 47219, Note_on_c, 10, 62, 0
15, 47340, Note_on_c, 10, 64, 127
15, 47369, Note_on_c, 10, 64, 0
15, 47370, Note_on_c, 10, 67, 127
15, 47399, Note_on_c, 10, 67, 0
15, 47400, Note_on_c, 10, 67, 127
15, 47414, Note_on_c, 10, 67, 0
15, 47415, Note_on_c, 10, 66, 127
15, 47429, Note_on_c, 10, 66, 0
15, 47430, Note_on_c, 10, 64, 127
15, 47444, Note_on_c, 10, 64, 0
15, 47445, Note_on_c, 10, 66, 127
15, 47459, Note_on_c, 10, 66, 0
15, 47460, Note_on_c, 10, 67, 127
15, 47519, Note_on_c, 10, 67, 0
15, 47520, Note_on_c, 10, 67, 127
15, 47579, Note_on_c, 10, 67, 0
15, 47580, Note_on_c, 10, 69, 127
15, 47639, Note_on_c, 10, 69, 0
15, 47640, Note_on_c, 10, 71, 127
15, 47699, Note_on_c, 10, 71, 0
15, 47700, Note_on_c, 10, 71, 127
15, 47759, Note_on_c, 10, 71, 0
15, 47760, Note_on_c, 10, 71, 127
15, 47819, Note_on_c, 10, 71, 0
15, 47820, Note_on_c, 10, 64, 127
15, 47879, Note_on_c, 10, 64, 0
15, 47880, Note_on_c, 10, 67, 127
15, 47939, Note_on_c, 10, 67, 0
15, 47940, Note_on_c, 10, 64, 127
15, 47999, Note_on_c, 10, 64, 0
15, 48000, Note_on_c, 10, 61, 127
15, 48059, Note_on_c, 10, 61, 0
15, 48060, Note_on_c, 10, 61, 127
15, 48119, Note_on_c, 10, 61, 0
15, 48120, Note_on_c, 10, 61, 127
15, 48179, Note_on_c, 10, 61, 0
15, 48180, Note_on_c, 10, 59, 127
15, 48239, Note_on_c, 10, 59, 0
15, 48240, Note_on_c, 10, 71, 127
15, 48299, Note_on_c, 10, 71, 0
15, 48300, Note_on_c, 10, 70, 127
15, 48359, Note_on_c, 10, 70, 0
15, 48360, Note_on_c, 10, 71, 127
15, 48419, Note_on_c, 10, 71, 0
15, 48420, Note_on_c, 10, 71, 127
15, 48479, Note_on_c, 10, 71, 0
15, 48480, Note_on_c, 10, 66, 127
15, 48599, Note_on_c, 10, 66, 0
15, 48600, Note_on_c, 10, 64, 127
15, 48629, Note_on_c, 10, 64, 0
15, 48630, Note_on_c, 10, 61, 127
15, 48659, Note_on_c, 10, 61, 0
15, 48660, Note_on_c, 10, 62, 127
15, 48719, Note_on_c, 10, 62, 0
15, 48720, Note_on_c, 10, 64, 127
15, 48779, Note_on_c, 10, 64, 0
15, 48780, Note_on_c, 10, 64, 127
15, 48839, Note_on_c, 10, 64, 0
15, 48840, Note_on_c, 10, 66, 127
15, 48899, Note_on_c, 10, 66, 0
15, 48900, Note_on_c, 10, 68, 127
15, 48959, Note_on_c, 10, 68, 0
15, 48960, Note_on_c, 10, 69, 127
15, 49019, Note_on_c, 10, 69, 0
15, 49020, Note_on_c, 10, 68, 127
15, 49079, Note_on_c, 10, 68, 0
15, 49080, Note_on_c, 10, 69, 127
15, 49199, Note_on_c, 10, 69, 0
15, 49200, Note_on_c, 10, 69, 127
15, 49259, Note_on_c, 10, 69, 0
15, 49260, Note_on_c, 10, 69, 127
15, 49319, Note_on_c, 10, 69, 0
15, 49320, Note_on_c, 10, 69, 127
15, 49379, Note_on_c, 10, 69, 0
15, 49380, Note_on_c, 10, 69, 127
15, 49439, Note_on_c, 10, 69, 0
15, 49440, Note_on_c, 10, 69, 127
15, 49499, Note_on_c, 10, 69, 0
15, 49500, Note_on_c, 10, 66, 127
15, 49559, Note_on_c, 10, 66, 0
15, 49560, Note_on_c, 10, 66, 127
15, 49619, Note_on_c, 10, 66, 0
15, 49620, Note_on_c, 10, 68, 127
15, 49679, Note_on_c, 10, 68, 0
15, 49680, Note_on_c, 10, 68, 127
15, 49739, Note_on_c, 10, 68, 0
15, 49740, Note_on_c, 10, 67, 127
15, 49799, Note_on_c, 10, 67, 0
15, 49800, Note_on_c, 10, 67, 127
15, 49859, Note_on_c, 10, 67, 0
15, 49860, Note_on_c, 10, 64, 127
15, 49919, Note_on_c, 10, 64, 0
15, 49980, Note_on_c, 10, 66, 127
15, 50039, Note_on_c, 10, 66, 0
15, 50040, Note_on_c, 10, 68, 127
15, 50099, Note_on_c, 10, 68, 0
15, 50100, Note_on_c, 10, 69, 127
15, 50159, Note_on_c, 10, 69, 0
15, 50160, Note_on_c, 10, 71, 127
15, 50249, Note_on_c, 10, 71, 0
15, 50250, Note_on_c, 10, 73, 127
15, 50279, Note_on_c, 10, 73, 0
15, 50280, Note_on_c, 10, 74, 127
15, 50309, Note_on_c, 10, 74, 0
15, 50310, Note_on_c, 10, 73, 127
15, 50339, Note_on_c, 10, 73, 0
15, 50340, Note_on_c, 10, 71, 127
15, 50399, Note_on_c, 10, 71, 0
15, 50400, Note_on_c, 10, 71, 127
15, 50459, Note_on_c, 10, 71, 0
15, 50460, Note_on_c, 10, 71, 127
15, 50519, Note_on_c, 10, 71, 0
15, 50520, Note_on_c, 10, 69, 127
15, 50579, Note_on_c, 10, 69, 0
15, 50580, Note_on_c, 10, 71, 127
15, 50639, Note_on_c, 10, 71, 0
15, 50640, Note_on_c, 10, 68, 127
15, 50699, Note_on_c, 10, 68, 0
15, 50700, Note_on_c, 10, 64, 127
15, 50819, Note_on_c, 10, 64, 0
15, 52140, Note_on_c, 10, 62, 127
15, 52199, Note_on_c, 10, 62, 0
15, 52200, Note_on_c, 10, 62, 127
15, 52259, Note_on_c, 10, 62, 0
15, 52260, Note_on_c, 10, 62, 127
15, 52319, Note_on_c, 10, 62, 0
15, 52320, Note_on_c, 10, 62, 127
15, 52379, Note_on_c, 10, 62, 0
15, 52380, Note_on_c, 10, 57, 127
15, 52439, Note_on_c, 10, 57, 0
15, 52800, Note_on_c, 10, 69, 127
15, 52859, Note_on_c, 10, 69, 0
15, 52860, Note_on_c, 10, 69, 127
15, 52919, Note_on_c, 10, 69, 0
15, 52920, Note_on_c, 10, 74, 127
15, 52949, Note_on_c, 10, 74, 0
15, 52950, Note_on_c, 10, 69, 127
15, 52979, Note_on_c, 10, 69, 0
15, 52980, Note_on_c, 10, 66, 127
15, 53009, Note_on_c, 10, 66, 0
15, 53010, Note_on_c, 10, 62, 127
15, 53039, Note_on_c, 10, 62, 0
15, 53040, Note_on_c, 10, 69, 127
15, 53099, Note_on_c, 10, 69, 0
15, 53100, Note_on_c, 10, 69, 127
15, 53159, Note_on_c, 10, 69, 0
15, 53280, Note_on_c, 10, 74, 127
15, 53339, Note_on_c, 10, 74, 0
15, 53340, Note_on_c, 10, 69, 127
15, 53399, Note_on_c, 10, 69, 0
15, 53520, Note_on_c, 10, 69, 127
15, 53579, Note_on_c, 10, 69, 0
15, 53580, Note_on_c, 10, 69, 127
15, 53639, Note_on_c, 10, 69, 0
15, 53640, Note_on_c, 10, 66, 127
15, 53699, Note_on_c, 10, 66, 0
15, 53940, Note_on_c, 10, 69, 127
15, 53999, Note_on_c, 10, 69, 0
15, 54000, Note_on_c, 10, 69, 127
15, 54059, Note_on_c, 10, 69, 0
15, 54060, Note_on_c, 10, 69, 127
15, 54119, Note_on_c, 10, 69, 0
15, 54120, Note_on_c, 10, 69, 127
15, 54179, Note_on_c, 10, 69, 0
15, 54180, Note_on_c, 10, 69, 127
15, 54239, Note_on_c, 10, 69, 0
15, 54240, Note_on_c, 10, 69, 127
15, 54299, Note_on_c, 10, 69, 0
15, 54300, Note_on_c, 10, 73, 127
15, 54359, Note_on_c, 10, 73, 0
15, 54360, Note_on_c, 10, 69, 127
15, 54419, Note_on_c, 10, 69, 0
15, 54420, Note_on_c, 10, 73, 127
15, 54479, Note_on_c, 10, 73, 0
15, 54480, Note_on_c, 10, 69, 127
15, 54599, Note_on_c, 10, 69, 0
15, 54600, Note_on_c, 10, 69, 127
15, 54659, Note_on_c, 10, 69, 0
15, 54660, Note_on_c, 10, 69, 127
15, 54719, Note_on_c, 10, 69, 0
15, 54720, Note_on_c, 10, 69, 127
15, 54779, Note_on_c, 10, 69, 0
15, 54780, Note_on_c, 10, 69, 127
15, 54839, Note_on_c, 10, 69, 0
15, 54840, Note_on_c, 10, 69, 127
15, 54899, Note_on_c, 10, 69, 0
15, 54900, Note_on_c, 10, 67, 127
15, 54959, Note_on_c, 10, 67, 0
15, 54960, Note_on_c, 10, 61, 127
15, 55019, Note_on_c, 10, 61, 0
15, 55020, Note_on_c, 10, 62, 127
15, 55079, Note_on_c, 10, 62, 0
15, 55080, Note_on_c, 10, 64, 127
15, 55139, Note_on_c, 10, 64, 0
15, 55140, Note_on_c, 10, 71, 127
15, 55199, Note_on_c, 10, 71, 0
15, 55200, Note_on_c, 10, 73, 127
15, 55319, Note_on_c, 10, 73, 0
15, 55620, Note_on_c, 10, 66, 127
15, 55649, Note_on_c, 10, 66, 0
15, 55650, Note_on_c, 10, 67, 127
15, 55679, Note_on_c, 10, 67, 0
15, 55680, Note_on_c, 10, 69, 127
15, 55694, Note_on_c, 10, 69, 0
15, 55695, Note_on_c, 10, 67, 127
15, 55709, Note_on_c, 10, 67, 0
15, 55710, Note_on_c, 10, 66, 127
15, 55724, Note_on_c, 10, 66, 0
15, 55725, Note_on_c, 10, 67, 127
15, 55739, Note_on_c, 10, 67, 0
15, 55740, Note_on_c, 10, 69, 127
15, 55799, Note_on_c, 10, 69, 0
15, 55800, Note_on_c, 10, 67, 127
15, 55859, Note_on_c, 10, 67, 0
15, 55860, Note_on_c, 10, 66, 127
15, 55919, Note_on_c, 10, 66, 0
15, 55920, Note_on_c, 10, 64, 127
15, 55979, Note_on_c, 10, 64, 0
15, 55980, Note_on_c, 10, 69, 127
15, 56039, Note_on_c, 10, 69, 0
15, 56040, Note_on_c, 10, 66, 127
15, 56099, Note_on_c, 10, 66, 0
15, 56100, Note_on_c, 10, 71, 127
15, 56159, Note_on_c, 10, 71, 0
15, 56160, Note_on_c, 10, 71, 127
15, 56219, Note_on_c, 10, 71, 0
15, 56220, Note_on_c, 10, 70, 127
15, 56279, Note_on_c, 10, 70, 0
15, 56280, Note_on_c, 10, 71, 127
15, 56339, Note_on_c, 10, 71, 0
15, 56340, Note_on_c, 10, 66, 127
15, 56399, Note_on_c, 10, 66, 0
15, 56520, Note_on_c, 10, 69, 127
15, 56549, Note_on_c, 10, 69, 0
15, 56550, Note_on_c, 10, 71, 127
15, 56579, Note_on_c, 10, 71, 0
15, 56580, Note_on_c, 10, 73, 127
15, 56594, Note_on_c, 10, 73, 0
15, 56595, Note_on_c, 10, 71, 127
15, 56609, Note_on_c, 10, 71, 0
15, 56610, Note_on_c, 10, 69, 127
15, 56624, Note_on_c, 10, 69, 0
15, 56625, Note_on_c, 10, 71, 127
15, 56639, Note_on_c, 10, 71, 0
15, 56640, Note_on_c, 10, 73, 127
15, 56699, Note_on_c, 10, 73, 0
15, 56700, Note_on_c, 10, 74, 127
15, 56759, Note_on_c, 10, 74, 0
15, 56760, Note_on_c, 10, 69, 127
15, 56819, Note_on_c, 10, 69, 0
15, 56820, Note_on_c, 10, 74, 127
15, 56879, Note_on_c, 10, 74, 0
15, 56880, Note_on_c, 10, 69, 127
15, 56939, Note_on_c, 10, 69, 0
15, 57060, Note_on_c, 10, 61, 127
15, 57089, Note_on_c, 10, 61, 0
15, 57090, Note_on_c, 10, 63, 127
15, 57119, Note_on_c, 10, 63, 0
15, 57120, Note_on_c, 10, 64, 127
15, 57134, Note_on_c, 10, 64, 0
15, 57135, Note_on_c, 10, 63, 127
15, 57149, Note_on_c, 10, 63, 0
15, 57150, Note_on_c, 10, 61, 127
15, 57164, Note_on_c, 10, 61, 0
15, 57165, Note_on_c, 10, 63, 127
15, 57179, Note_on_c, 10, 63, 0
15, 57180, Note_on_c, 10, 64, 127
15, 57239, Note_on_c, 10, 64, 0
15, 57240, Note_on_c, 10, 64, 127
15, 57299, Note_on_c, 10, 64, 0
15, 57300, Note_on_c, 10, 62, 127
15, 57359, Note_on_c, 10, 62, 0
15, 57360, Note_on_c, 10, 62, 127
15, 57419, Note_on_c, 10, 62, 0
15, 57420, Note_on_c, 10, 62, 127
15, 57479, Note_on_c, 10, 62, 0
15, 57480, Note_on_c, 10, 61, 127
15, 57539, Note_on_c, 10, 61, 0
15, 57540, Note_on_c, 10, 62, 127
15, 57599, Note_on_c, 10, 62, 0
15, 57600, Note_on_c, 10, 66, 127
15, 57659, Note_on_c, 10, 66, 0
15, 57660, Note_on_c, 10, 68, 127
15, 57719, Note_on_c, 10, 68, 0
15, 57720, Note_on_c, 10, 69, 127
15, 57779, Note_on_c, 10, 69, 0
15, 57780, Note_on_c, 10, 64, 127
15, 57839, Note_on_c, 10, 64, 0
15, 57840, Note_on_c, 10, 69, 127
15, 57899, Note_on_c, 10, 69, 0
15, 57900, Note_on_c, 10, 69, 127
15, 57959, Note_on_c, 10, 69, 0
15, 57960, Note_on_c, 10, 72, 127
15, 58019, Note_on_c, 10, 72, 0
15, 58020, Note_on_c, 10, 69, 127
15, 58079, Note_on_c, 10, 69, 0
15, 58080, Note_on_c, 10, 66, 127
15, 58139, Note_on_c, 10, 66, 0
15, 58140, Note_on_c, 10, 66, 127
15, 58199, Note_on_c, 10, 66, 0
15, 58200, Note_on_c, 10, 66, 127
15, 58259, Note_on_c, 10, 66, 0
15, 58260, Note_on_c, 10, 71, 127
15, 58319, Note_on_c, 10, 71, 0
15, 58320, Note_on_c, 10, 71, 127
15, 58379, Note_on_c, 10, 71, 0
15, 58380, Note_on_c, 10, 69, 127
15, 58439, Note_on_c, 10, 69, 0
15, 58440, Note_on_c, 10, 69, 127
15, 58499, Note_on_c, 10, 69, 0
15, 58500, Note_on_c, 10, 67, 127
15, 58559, Note_on_c, 10, 67, 0
15, 58560, Note_on_c, 10, 71, 127
15, 58679, Note_on_c, 10, 71, 0
15, 58680, Note_on_c, 10, 69, 127
15, 58709, Note_on_c, 10, 69, 0
15, 58710, Note_on_c, 10, 66, 127
15, 58739, Note_on_c, 10, 66, 0
15, 58740, Note_on_c, 10, 67, 127
15, 58799, Note_on_c, 10, 67, 0
15, 58800, Note_on_c, 10, 69, 127
15, 58859, Note_on_c, 10, 69, 0
15, 58860, Note_on_c, 10, 64, 127
15, 58919, Note_on_c, 10, 64, 0
15, 58920, Note_on_c, 10, 64, 127
15, 58979, Note_on_c, 10, 64, 0
15, 58980, Note_on_c, 10, 69, 127
15, 59039, Note_on_c, 10, 69, 0
15, 59040, Note_on_c, 10, 69, 127
15, 59099, Note_on_c, 10, 69, 0
15, 59100, Note_on_c, 10, 67, 127
15, 59159, Note_on_c, 10, 67, 0
15, 59160, Note_on_c, 10, 66, 127
15, 59279, Note_on_c, 10, 66, 0
15, 59280, Note_on_c, 10, 66, 127
15, 59339, Note_on_c, 10, 66, 0
15, 59340, Note_on_c, 10, 66, 127
15, 59399, Note_on_c, 10, 66, 0
15, 59400, Note_on_c, 10, 68, 127
15, 59459, Note_on_c, 10, 68, 0
15, 59460, Note_on_c, 10, 69, 127
15, 59519, Note_on_c, 10, 69, 0
15, 59520, Note_on_c, 10, 71, 127
15, 59579, Note_on_c, 10, 71, 0
15, 59580, Note_on_c, 10, 64, 127
15, 59639, Note_on_c, 10, 64, 0
15, 59640, Note_on_c, 10, 64, 127
15, 59699, Note_on_c, 10, 64, 0
15, 59700, Note_on_c, 10, 64, 127
15, 59759, Note_on_c, 10, 64, 0
15, 59760, Note_on_c, 10, 66, 127
15, 59819, Note_on_c, 10, 66, 0
15, 59820, Note_on_c, 10, 67, 127
15, 59879, Note_on_c, 10, 67, 0
15, 59880, Note_on_c, 10, 69, 127
15, 59939, Note_on_c, 10, 69, 0
15, 59940, Note_on_c, 10, 62, 127
15, 59999, Note_on_c, 10, 62, 0
15, 60060, Note_on_c, 10, 62, 127
15, 60119, Note_on_c, 10, 62, 0
15, 60120, Note_on_c, 10, 64, 127
15, 60179, Note_on_c, 10, 64, 0
15, 60180, Note_on_c, 10, 66, 127
15, 60239, Note_on_c, 10, 66, 0
15, 60240, Note_on_c, 10, 67, 127
15, 60299, Note_on_c, 10, 67, 0
15, 60300, Note_on_c, 10, 71, 127
15, 60329, Note_on_c, 10, 71, 0
15, 60330, Note_on_c, 10, 69, 127
15, 60359, Note_on_c, 10, 69, 0
15, 60360, Note_on_c, 10, 67, 127
15, 60389, Note_on_c, 10, 67, 0
15, 60390, Note_on_c, 10, 66, 127
15, 60419, Note_on_c, 10, 66, 0
15, 60420, Note_on_c, 10, 64, 127
15, 60479, Note_on_c, 10, 64, 0
15, 60480, Note_on_c, 10, 62, 127
15, 60539, Note_on_c, 10, 62, 0
15, 60540, Note_on_c, 10, 64, 127
15, 60599, Note_on_c, 10, 64, 0
15, 60600, Note_on_c, 10, 62, 127
15, 60659, Note_on_c, 10, 62, 0
15, 60660, Note_on_c, 10, 69, 127
15, 60719, Note_on_c, 10, 69, 0
15, 60720, Note_on_c, 10, 69, 127
15, 60779, Note_on_c, 10, 69, 0
15, 60780, Note_on_c, 10, 69, 127
15, 60959, Note_on_c, 10, 69, 0
15, 70200, Control_c, 10, 0, 20
15, 70200, Program_c, 10, 71
15, 70200, Note_on_c, 10, 64, 127
15, 70259, Note_on_c, 10, 64, 0
15, 70260, Note_on_c, 10, 69, 127
15, 70319, Note_on_c, 10, 69, 0
15, 70320, Note_on_c, 10, 69, 127
15, 70379, Note_on_c, 10, 69, 0
15, 70380, Note_on_c, 10, 73, 127
15, 70439, Note_on_c, 10, 73, 0
15, 70440, Note_on_c, 10, 71, 127
15, 70499, Note_on_c, 10, 71, 0
15, 70500, Note_on_c, 10, 68, 127
15, 70589, Note_on_c, 10, 68, 0
15, 70590, Note_on_c, 10, 68, 127
15, 70619, Note_on_c, 10, 68, 0
15, 70620, Note_on_c, 10, 68, 127
15, 70679, Note_on_c, 10, 68, 0
15, 70800, Note_on_c, 10, 64, 127
15, 70859, Note_on_c, 10, 64, 0
15, 70860, Note_on_c, 10, 68, 127
15, 70919, Note_on_c, 10, 68, 0
15, 70920, Note_on_c, 10, 71, 127
15, 70979, Note_on_c, 10, 71, 0
15, 70980, Note_on_c, 10, 74, 127
15, 71039, Note_on_c, 10, 74, 0
15, 71040, Note_on_c, 10, 71, 127
15, 71099, Note_on_c, 10, 71, 0
15, 71100, Note_on_c, 10, 76, 127
15, 71159, Note_on_c, 10, 76, 0
15, 71160, Note_on_c, 10, 71, 127
15, 71219, Note_on_c, 10, 71, 0
15, 71220, Note_on_c, 10, 73, 127
15, 71339, Note_on_c, 10, 73, 0
15, 71400, Note_on_c, 10, 69, 127
15, 71459, Note_on_c, 10, 69, 0
15, 71460, Note_on_c, 10, 68, 127
15, 71489, Note_on_c, 10, 68, 0
15, 71490, Note_on_c, 10, 66, 127
15, 71519, Note_on_c, 10, 66, 0
15, 71550, Note_on_c, 10, 66, 127
15, 71579, Note_on_c, 10, 66, 0
15, 71580, Note_on_c, 10, 69, 127
15, 71639, Note_on_c, 10, 69, 0
15, 71640, Note_on_c, 10, 66, 127
15, 71699, Note_on_c, 10, 66, 0
15, 71700, Note_on_c, 10, 63, 127
15, 71759, Note_on_c, 10, 63, 0
15, 71760, Note_on_c, 10, 63, 127
15, 71819, Note_on_c, 10, 63, 0
15, 71880, Note_on_c, 10, 66, 127
15, 71939, Note_on_c, 10, 66, 0
15, 71940, Note_on_c, 10, 71, 127
15, 71999, Note_on_c, 10, 71, 0
15, 72000, Note_on_c, 10, 64, 127
15, 72059, Note_on_c, 10, 64, 0
15, 72060, Note_on_c, 10, 69, 127
15, 72089, Note_on_c, 10, 69, 0
15, 72090, Note_on_c, 10, 68, 127
15, 72119, Note_on_c, 10, 68, 0
15, 72120, Note_on_c, 10, 69, 127
15, 72179, Note_on_c, 10, 69, 0
15, 72180, Note_on_c, 10, 68, 127
15, 72239, Note_on_c, 10, 68, 0
15, 72240, Note_on_c, 10, 68, 127
15, 72299, Note_on_c, 10, 68, 0
15, 72480, Note_on_c, 10, 64, 127
15, 72539, Note_on_c, 10, 64, 0
15, 72540, Note_on_c, 10, 68, 127
15, 72599, Note_on_c, 10, 68, 0
15, 72600, Note_on_c, 10, 69, 127
15, 72659, Note_on_c, 10, 69, 0
15, 72660, Note_on_c, 10, 71, 127
15, 72719, Note_on_c, 10, 71, 0
15, 72720, Note_on_c, 10, 71, 127
15, 72779, Note_on_c, 10, 71, 0
15, 72780, Note_on_c, 10, 68, 127
15, 72839, Note_on_c, 10, 68, 0
15, 72840, Note_on_c, 10, 64, 127
15, 72899, Note_on_c, 10, 64, 0
15, 72900, Note_on_c, 10, 73, 127
15, 72959, Note_on_c, 10, 73, 0
15, 72960, Note_on_c, 10, 73, 127
15, 73019, Note_on_c, 10, 73, 0
15, 73080, Note_on_c, 10, 66, 127
15, 73139, Note_on_c, 10, 66, 0
15, 73140, Note_on_c, 10, 76, 127
15, 73199, Note_on_c, 10, 76, 0
15, 73200, Note_on_c, 10, 73, 127
15, 73259, Note_on_c, 10, 73, 0
15, 73260, Note_on_c, 10, 70, 127
15, 73319, Note_on_c, 10, 70, 0
15, 73320, Note_on_c, 10, 73, 127
15, 73379, Note_on_c, 10, 73, 0
15, 73380, Note_on_c, 10, 74, 127
15, 73499, Note_on_c, 10, 74, 0
15, 73560, Note_on_c, 10, 74, 127
15, 73619, Note_on_c, 10, 74, 0
15, 73620, Note_on_c, 10, 74, 127
15, 73679, Note_on_c, 10, 74, 0
15, 73680, Note_on_c, 10, 62, 127
15, 73739, Note_on_c, 10, 62, 0
15, 73800, Note_on_c, 10, 66, 127
15, 73829, Note_on_c, 10, 66, 0
15, 73830, Note_on_c, 10, 69, 127
15, 73859, Note_on_c, 10, 69, 0
15, 73860, Note_on_c, 10, 72, 127
15, 73919, Note_on_c, 10, 72, 0
15, 73920, Note_on_c, 10, 72, 127
15, 73979, Note_on_c, 10, 72, 0
15, 73980, Note_on_c, 10, 72, 127
15, 74039, Note_on_c, 10, 72, 0
15, 74040, Note_on_c, 10, 71, 127
15, 74099, Note_on_c, 10, 71, 0
15, 74100, Note_on_c, 10, 68, 127
15, 74159, Note_on_c, 10, 68, 0
15, 74160, Note_on_c, 10, 68, 127
15, 74219, Note_on_c, 10, 68, 0
15, 74280, Note_on_c, 10, 71, 127
15, 74339, Note_on_c, 10, 71, 0
15, 74340, Note_on_c, 10, 76, 127
15, 74399, Note_on_c, 10, 76, 0
15, 74400, Note_on_c, 10, 66, 127
15, 74459, Note_on_c, 10, 66, 0
15, 74460, Note_on_c, 10, 75, 127
15, 74549, Note_on_c, 10, 75, 0
15, 74550, Note_on_c, 10, 76, 127
15, 74579, Note_on_c, 10, 76, 0
15, 74580, Note_on_c, 10, 76, 127
15, 74639, Note_on_c, 10, 76, 0
15, 74640, Note_on_c, 10, 71, 127
15, 74699, Note_on_c, 10, 71, 0
15, 78120, Control_c, 10, 0, 20
15, 78120, Program_c, 10, 71
15, 78240, Note_on_c, 10, 64, 127
15, 78299, Note_on_c, 10, 64, 0
15, 78300, Note_on_c, 10, 69, 127
15, 78359, Note_on_c, 10, 69, 0
15, 78360, Note_on_c, 10, 72, 127
15, 78419, Note_on_c, 10, 72, 0
15, 78420, Note_on_c, 10, 71, 127
15, 78479, Note_on_c, 10, 71, 0
15, 78480, Note_on_c, 10, 72, 127
15, 78539, Note_on_c, 10, 72, 0
15, 78540, Note_on_c, 10, 68, 127
15, 78599, Note_on_c, 10, 68, 0
15, 78600, Note_on_c, 10, 69, 127
15, 78659, Note_on_c, 10, 69, 0
15, 78660, Note_on_c, 10, 67, 127
15, 78689, Note_on_c, 10, 67, 0
15, 78690, Note_on_c, 10, 65, 127
15, 78719, Note_on_c, 10, 65, 0
15, 78720, Note_on_c, 10, 64, 127
15, 78749, Note_on_c, 10, 64, 0
15, 78750, Note_on_c, 10, 62, 127
15, 78779, Note_on_c, 10, 62, 0
15, 78780, Note_on_c, 10, 67, 127
15, 78839, Note_on_c, 10, 67, 0
15, 78840, Note_on_c, 10, 64, 127
15, 78899, Note_on_c, 10, 64, 0
15, 78900, Note_on_c, 10, 60, 127
15, 78959, Note_on_c, 10, 60, 0
15, 78960, Note_on_c, 10, 72, 127
15, 79019, Note_on_c, 10, 72, 0
15, 79020, Note_on_c, 10, 71, 127
15, 79079, Note_on_c, 10, 71, 0
15, 79080, Note_on_c, 10, 72, 127
15, 79109, Note_on_c, 10, 72, 0
15, 79110, Note_on_c, 10, 71, 127
15, 79139, Note_on_c, 10, 71, 0
15, 79140, Note_on_c, 10, 69, 127
15, 79169, Note_on_c, 10, 69, 0
15, 79170, Note_on_c, 10, 68, 127
15, 79199, Note_on_c, 10, 68, 0
15, 79200, Note_on_c, 10, 69, 127
15, 79259, Note_on_c, 10, 69, 0
15, 79260, Note_on_c, 10, 71, 127
15, 79319, Note_on_c, 10, 71, 0
15, 79320, Note_on_c, 10, 72, 127
15, 79379, Note_on_c, 10, 72, 0
15, 79380, Note_on_c, 10, 74, 127
15, 79439, Note_on_c, 10, 74, 0
15, 79440, Note_on_c, 10, 72, 127
15, 79469, Note_on_c, 10, 72, 0
15, 79470, Note_on_c, 10, 71, 127
15, 79499, Note_on_c, 10, 71, 0
15, 79500, Note_on_c, 10, 72, 127
15, 79559, Note_on_c, 10, 72, 0
15, 79560, Note_on_c, 10, 72, 127
15, 79590, Note_on_c, 10, 72, 0
15, 79590, Note_on_c, 10, 71, 127
15, 79680, Note_on_c, 10, 71, 0
15, 79680, Note_on_c, 10, 71, 127
15, 79739, Note_on_c, 10, 71, 0
15, 79740, Note_on_c, 10, 71, 127
15, 79799, Note_on_c, 10, 71, 0
15, 79800, Note_on_c, 10, 67, 127
15, 79859, Note_on_c, 10, 67, 0
15, 80040, Note_on_c, 10, 69, 127
15, 80099, Note_on_c, 10, 69, 0
15, 80100, Note_on_c, 10, 69, 127
15, 80159, Note_on_c, 10, 69, 0
15, 80160, Note_on_c, 10, 62, 127
15, 80219, Note_on_c, 10, 62, 0
15, 80400, Note_on_c, 10, 67, 127
15, 80459, Note_on_c, 10, 67, 0
15, 80460, Note_on_c, 10, 60, 127
15, 80519, Note_on_c, 10, 60, 0
15, 80520, Note_on_c, 10, 64, 127
15, 80579, Note_on_c, 10, 64, 0
15, 80580, Note_on_c, 10, 62, 127
15, 80639, Note_on_c, 10, 62, 0
15, 80640, Note_on_c, 10, 65, 127
15, 80670, Note_on_c, 10, 65, 0
15, 80670, Note_on_c, 10, 64, 127
15, 80700, Note_on_c, 10, 64, 0
15, 80700, Note_on_c, 10, 62, 127
15, 80730, Note_on_c, 10, 62, 0
15, 80730, Note_on_c, 10, 60, 127
15, 80760, Note_on_c, 10, 60, 0
15, 81120, Note_on_c, 10, 69, 127
15, 81180, Note_on_c, 10, 69, 0
15, 81180, Note_on_c, 10, 62, 127
15, 81240, Note_on_c, 10, 62, 0
15, 81240, Note_on_c, 10, 65, 127
15, 81300, Note_on_c, 10, 65, 0
15, 81300, Note_on_c, 10, 64, 127
15, 81360, Note_on_c, 10, 64, 0
15, 81360, Note_on_c, 10, 67, 127
15, 81390, Note_on_c, 10, 67, 0
15, 81390, Note_on_c, 10, 65, 127
15, 81420, Note_on_c, 10, 65, 0
15, 81420, Note_on_c, 10, 64, 127
15, 81450, Note_on_c, 10, 64, 0
15, 81450, Note_on_c, 10, 62, 127
15, 81480, Note_on_c, 10, 62, 0
15, 81840, Note_on_c, 10, 64, 127
15, 81899, Note_on_c, 10, 64, 0
15, 81900, Note_on_c, 10, 69, 127
15, 81959, Note_on_c, 10, 69, 0
15, 81960, Note_on_c, 10, 72, 127
15, 82019, Note_on_c, 10, 72, 0
15, 82020, Note_on_c, 10, 71, 127
15, 82079, Note_on_c, 10, 71, 0
15, 82080, Note_on_c, 10, 72, 127
15, 82139, Note_on_c, 10, 72, 0
15, 82140, Note_on_c, 10, 68, 127
15, 82199, Note_on_c, 10, 68, 0
15, 82200, Note_on_c, 10, 69, 127
15, 82259, Note_on_c, 10, 69, 0
15, 82260, Note_on_c, 10, 67, 127
15, 82289, Note_on_c, 10, 67, 0
15, 82290, Note_on_c, 10, 65, 127
15, 82319, Note_on_c, 10, 65, 0
15, 82320, Note_on_c, 10, 64, 127
15, 82349, Note_on_c, 10, 64, 0
15, 82350, Note_on_c, 10, 62, 127
15, 82379, Note_on_c, 10, 62, 0
15, 82380, Note_on_c, 10, 67, 127
15, 82439, Note_on_c, 10, 67, 0
15, 82440, Note_on_c, 10, 64, 127
15, 82499, Note_on_c, 10, 64, 0
15, 82500, Note_on_c, 10, 60, 127
15, 82559, Note_on_c, 10, 60, 0
15, 82560, Note_on_c, 10, 72, 127
15, 82619, Note_on_c, 10, 72, 0
15, 82620, Note_on_c, 10, 71, 127
15, 82679, Note_on_c, 10, 71, 0
15, 82680, Note_on_c, 10, 72, 127
15, 82709, Note_on_c, 10, 72, 0
15, 82710, Note_on_c, 10, 71, 127
15, 82739, Note_on_c, 10, 71, 0
15, 82740, Note_on_c, 10, 69, 127
15, 82769, Note_on_c, 10, 69, 0
15, 82770, Note_on_c, 10, 68, 127
15, 82799, Note_on_c, 10, 68, 0
15, 82800, Note_on_c, 10, 69, 127
15, 82859, Note_on_c, 10, 69, 0
15, 82860, Note_on_c, 10, 71, 127
15, 82919, Note_on_c, 10, 71, 0
15, 82920, Note_on_c, 10, 72, 127
15, 82979, Note_on_c, 10, 72, 0
15, 82980, Note_on_c, 10, 74, 127
15, 83039, Note_on_c, 10, 74, 0
15, 83040, Note_on_c, 10, 72, 127
15, 83069, Note_on_c, 10, 72, 0
15, 83070, Note_on_c, 10, 71, 127
15, 83099, Note_on_c, 10, 71, 0
15, 83100, Note_on_c, 10, 72, 127
15, 83159, Note_on_c, 10, 72, 0
15, 83160, Note_on_c, 10, 71, 127
15, 83279, Note_on_c, 10, 71, 0
15, 83280, Note_on_c, 10, 74, 127
15, 83339, Note_on_c, 10, 74, 0
15, 83340, Note_on_c, 10, 73, 127
15, 83399, Note_on_c, 10, 73, 0
15, 83400, Note_on_c, 10, 76, 127
15, 83459, Note_on_c, 10, 76, 0
15, 83460, Note_on_c, 10, 67, 127
15, 83519, Note_on_c, 10, 67, 0
15, 83520, Note_on_c, 10, 65, 127
15, 83579, Note_on_c, 10, 65, 0
15, 83580, Note_on_c, 10, 64, 127
15, 83609, Note_on_c, 10, 64, 0
15, 83610, Note_on_c, 10, 62, 127
15, 83639, Note_on_c, 10, 62, 0
15, 83640, Note_on_c, 10, 72, 127
15, 83699, Note_on_c, 10, 72, 0
15, 83700, Note_on_c, 10, 71, 127
15, 83759, Note_on_c, 10, 71, 0
15, 83760, Note_on_c, 10, 74, 127
15, 83819, Note_on_c, 10, 74, 0
15, 83820, Note_on_c, 10, 65, 127
15, 83879, Note_on_c, 10, 65, 0
15, 83880, Note_on_c, 10, 64, 127
15, 83939, Note_on_c, 10, 64, 0
15, 83940, Note_on_c, 10, 62, 127
15, 83969, Note_on_c, 10, 62, 0
15, 83970, Note_on_c, 10, 60, 127
15, 83999, Note_on_c, 10, 60, 0
15, 84000, Note_on_c, 10, 64, 127
15, 84059, Note_on_c, 10, 64, 0
15, 84060, Note_on_c, 10, 74, 127
15, 84119, Note_on_c, 10, 74, 0
15, 84120, Note_on_c, 10, 72, 127
15, 84179, Note_on_c, 10, 72, 0
15, 84180, Note_on_c, 10, 71, 127
15, 84239, Note_on_c, 10, 71, 0
15, 84240, Note_on_c, 10, 76, 127
15, 84299, Note_on_c, 10, 76, 0
15, 84300, Note_on_c, 10, 69, 127
15, 84359, Note_on_c, 10, 69, 0
15, 84360, Note_on_c, 10, 71, 127
15, 84419, Note_on_c, 10, 71, 0
15, 84420, Note_on_c, 10, 64, 127
15, 84479, Note_on_c, 10, 64, 0
15, 84480, Note_on_c, 10, 72, 127
15, 84509, Note_on_c, 10, 72, 0
15, 84510, Note_on_c, 10, 71, 127
15, 84539, Note_on_c, 10, 71, 0
15, 84540, Note_on_c, 10, 69, 127
15, 84569, Note_on_c, 10, 69, 0
15, 84570, Note_on_c, 10, 68, 127
15, 84599, Note_on_c, 10, 68, 0
15, 84600, Note_on_c, 10, 69, 127
15, 84719, Note_on_c, 10, 69, 0
15, 84720, Note_on_c, 10, 69, 127
15, 84779, Note_on_c, 10, 69, 0
15, 84780, Note_on_c, 10, 69, 127
15, 84839, Note_on_c, 10, 69, 0
15, 84840, Note_on_c, 10, 62, 127
15, 84899, Note_on_c, 10, 62, 0
15, 85080, Note_on_c, 10, 67, 127
15, 85139, Note_on_c, 10, 67, 0
15, 85140, Note_on_c, 10, 67, 127
15, 85199, Note_on_c, 10, 67, 0
15, 85200, Note_on_c, 10, 61, 127
15, 85259, Note_on_c, 10, 61, 0
15, 85440, Note_on_c, 10, 69, 127
15, 85499, Note_on_c, 10, 69, 0
15, 85500, Note_on_c, 10, 68, 127
15, 85559, Note_on_c, 10, 68, 0
15, 85560, Note_on_c, 10, 71, 127
15, 85619, Note_on_c, 10, 71, 0
15, 85620, Note_on_c, 10, 74, 127
15, 85679, Note_on_c, 10, 74, 0
15, 85680, Note_on_c, 10, 74, 127
15, 85739, Note_on_c, 10, 74, 0
15, 85740, Note_on_c, 10, 73, 127
15, 85799, Note_on_c, 10, 73, 0
15, 86160, Note_on_c, 10, 65, 127
15, 86219, Note_on_c, 10, 65, 0
15, 86220, Note_on_c, 10, 64, 127
15, 86279, Note_on_c, 10, 64, 0
15, 86280, Note_on_c, 10, 67, 127
15, 86339, Note_on_c, 10, 67, 0
15, 86340, Note_on_c, 10, 70, 127
15, 86399, Note_on_c, 10, 70, 0
15, 86400, Note_on_c, 10, 70, 127
15, 86459, Note_on_c, 10, 70, 0
15, 86460, Note_on_c, 10, 69, 127
15, 86519, Note_on_c, 10, 69, 0
15, 86880, Note_on_c, 10, 74, 127
15, 86939, Note_on_c, 10, 74, 0
15, 86940, Note_on_c, 10, 73, 127
15, 86999, Note_on_c, 10, 73, 0
15, 87000, Note_on_c, 10, 76, 127
15, 87059, Note_on_c, 10, 76, 0
15, 87060, Note_on_c, 10, 67, 127
15, 87119, Note_on_c, 10, 67, 0
15, 87120, Note_on_c, 10, 65, 127
15, 87179, Note_on_c, 10, 65, 0
15, 87180, Note_on_c, 10, 64, 127
15, 87209, Note_on_c, 10, 64, 0
15, 87210, Note_on_c, 10, 62, 127
15, 87239, Note_on_c, 10, 62, 0
15, 87240, Note_on_c, 10, 72, 127
15, 87299, Note_on_c, 10, 72, 0
15, 87300, Note_on_c, 10, 71, 127
15, 87359, Note_on_c, 10, 71, 0
15, 87360, Note_on_c, 10, 74, 127
15, 87419, Note_on_c, 10, 74, 0
15, 87420, Note_on_c, 10, 65, 127
15, 87479, Note_on_c, 10, 65, 0
15, 87480, Note_on_c, 10, 64, 127
15, 87539, Note_on_c, 10, 64, 0
15, 87540, Note_on_c, 10, 62, 127
15, 87569, Note_on_c, 10, 62, 0
15, 87570, Note_on_c, 10, 60, 127
15, 87599, Note_on_c, 10, 60, 0
15, 87600, Note_on_c, 10, 64, 127
15, 87659, Note_on_c, 10, 64, 0
15, 87660, Note_on_c, 10, 74, 127
15, 87719, Note_on_c, 10, 74, 0
15, 87720, Note_on_c, 10, 72, 127
15, 87779, Note_on_c, 10, 72, 0
15, 87780, Note_on_c, 10, 71, 127
15, 87839, Note_on_c, 10, 71, 0
15, 87840, Note_on_c, 10, 76, 127
15, 87899, Note_on_c, 10, 76, 0
15, 87900, Note_on_c, 10, 69, 127
15, 87959, Note_on_c, 10, 69, 0
15, 87960, Note_on_c, 10, 71, 127
15, 88019, Note_on_c, 10, 71, 0
15, 88020, Note_on_c, 10, 64, 127
15, 88079, Note_on_c, 10, 64, 0
15, 88080, Note_on_c, 10, 72, 127
15, 88109, Note_on_c, 10, 72, 0
15, 88110, Note_on_c, 10, 71, 127
15, 88139, Note_on_c, 10, 71, 0
15, 88140, Note_on_c, 10, 69, 127
15, 88169, Note_on_c, 10, 69, 0
15, 88170, Note_on_c, 10, 68, 127
15, 88199, Note_on_c, 10, 68, 0
15, 88200, Note_on_c, 10, 69, 127
15, 88319, Note_on_c, 10, 69, 0
15, 91320, Note_on_c, 10, 64, 127
15, 91379, Note_on_c, 10, 64, 0
15, 91380, Note_on_c, 10, 60, 127
15, 91439, Note_on_c, 10, 60, 0
15, 91440, Note_on_c, 10, 67, 127
15, 91559, Note_on_c, 10, 67, 0
15, 91560, Note_on_c, 10, 67, 127
15, 91619, Note_on_c, 10, 67, 0
15, 91680, Note_on_c, 10, 66, 127
15, 91739, Note_on_c, 10, 66, 0
15, 91740, Note_on_c, 10, 67, 127
15, 91799, Note_on_c, 10, 67, 0
15, 91800, Note_on_c, 10, 69, 127
15, 91859, Note_on_c, 10, 69, 0
15, 91860, Note_on_c, 10, 66, 127
15, 91919, Note_on_c, 10, 66, 0
15, 91920, Note_on_c, 10, 62, 127
15, 91979, Note_on_c, 10, 62, 0
15, 91980, Note_on_c, 10, 71, 127
15, 92039, Note_on_c, 10, 71, 0
15, 92040, Note_on_c, 10, 67, 127
15, 92099, Note_on_c, 10, 67, 0
15, 92100, Note_on_c, 10, 62, 127
15, 92159, Note_on_c, 10, 62, 0
15, 92160, Note_on_c, 10, 69, 127
15, 92219, Note_on_c, 10, 69, 0
15, 92220, Note_on_c, 10, 66, 127
15, 92279, Note_on_c, 10, 66, 0
15, 92280, Note_on_c, 10, 62, 127
15, 92339, Note_on_c, 10, 62, 0
15, 92400, Note_on_c, 10, 68, 127
15, 92459, Note_on_c, 10, 68, 0
15, 92460, Note_on_c, 10, 69, 127
15, 92519, Note_on_c, 10, 69, 0
15, 92520, Note_on_c, 10, 71, 127
15, 92579, Note_on_c, 10, 71, 0
15, 92580, Note_on_c, 10, 68, 127
15, 92639, Note_on_c, 10, 68, 0
15, 92640, Note_on_c, 10, 64, 127
15, 92699, Note_on_c, 10, 64, 0
15, 92700, Note_on_c, 10, 72, 127
15, 92759, Note_on_c, 10, 72, 0
15, 92760, Note_on_c, 10, 69, 127
15, 92819, Note_on_c, 10, 69, 0
15, 92820, Note_on_c, 10, 64, 127
15, 92879, Note_on_c, 10, 64, 0
15, 92880, Note_on_c, 10, 71, 127
15, 92939, Note_on_c, 10, 71, 0
15, 92940, Note_on_c, 10, 68, 127
15, 92999, Note_on_c, 10, 68, 0
15, 93000, Note_on_c, 10, 64, 127
15, 93059, Note_on_c, 10, 64, 0
15, 93060, Note_on_c, 10, 69, 127
15, 93119, Note_on_c, 10, 69, 0
15, 93120, Note_on_c, 10, 71, 127
15, 93179, Note_on_c, 10, 71, 0
15, 93180, Note_on_c, 10, 72, 127
15, 93239, Note_on_c, 10, 72, 0
15, 93240, Note_on_c, 10, 71, 127
15, 93299, Note_on_c, 10, 71, 0
15, 93300, Note_on_c, 10, 69, 127
15, 93359, Note_on_c, 10, 69, 0
15, 93360, Note_on_c, 10, 67, 127
15, 93419, Note_on_c, 10, 67, 0
15, 93420, Note_on_c, 10, 66, 127
15, 93479, Note_on_c, 10, 66, 0
15, 93480, Note_on_c, 10, 64, 127
15, 93509, Note_on_c, 10, 64, 0
15, 93510, Note_on_c, 10, 63, 127
15, 93539, Note_on_c, 10, 63, 0
15, 93540, Note_on_c, 10, 64, 127
15, 93599, Note_on_c, 10, 64, 0
15, 93600, Note_on_c, 10, 63, 127
15, 93659, Note_on_c, 10, 63, 0
15, 93660, Note_on_c, 10, 59, 127
15, 93719, Note_on_c, 10, 59, 0
15, 93840, Note_on_c, 10, 71, 127
15, 93899, Note_on_c, 10, 71, 0
15, 93900, Note_on_c, 10, 71, 127
15, 93959, Note_on_c, 10, 71, 0
15, 93960, Note_on_c, 10, 71, 127
15, 94199, Note_on_c, 10, 71, 0
15, 94200, Note_on_c, 10, 69, 127
15, 94229, Note_on_c, 10, 69, 0
15, 94230, Note_on_c, 10, 68, 127
15, 94259, Note_on_c, 10, 68, 0
15, 94260, Note_on_c, 10, 66, 127
15, 94289, Note_on_c, 10, 66, 0
15, 94290, Note_on_c, 10, 64, 127
15, 94319, Note_on_c, 10, 64, 0
15, 94320, Note_on_c, 10, 72, 127
15, 94409, Note_on_c, 10, 72, 0
15, 94410, Note_on_c, 10, 71, 127
15, 94439, Note_on_c, 10, 71, 0
15, 94440, Note_on_c, 10, 69, 127
15, 94499, Note_on_c, 10, 69, 0
15, 94500, Note_on_c, 10, 69, 127
15, 94920, Note_on_c, 10, 69, 0
15, 94920, Note_on_c, 10, 67, 127
15, 94949, Note_on_c, 10, 67, 0
15, 94950, Note_on_c, 10, 66, 127
15, 94979, Note_on_c, 10, 66, 0
15, 94980, Note_on_c, 10, 64, 127
15, 95009, Note_on_c, 10, 64, 0
15, 95010, Note_on_c, 10, 62, 127
15, 95039, Note_on_c, 10, 62, 0
15, 95040, Note_on_c, 10, 71, 127
15, 95099, Note_on_c, 10, 71, 0
15, 95100, Note_on_c, 10, 69, 127
15, 95129, Note_on_c, 10, 69, 0
15, 95130, Note_on_c, 10, 67, 127
15, 95159, Note_on_c, 10, 67, 0
15, 95160, Note_on_c, 10, 69, 127
15, 95189, Note_on_c, 10, 69, 0
15, 95190, Note_on_c, 10, 71, 127
15, 95219, Note_on_c, 10, 71, 0
15, 95220, Note_on_c, 10, 72, 127
15, 95249, Note_on_c, 10, 72, 0
15, 95250, Note_on_c, 10, 71, 127
15, 95279, Note_on_c, 10, 71, 0
15, 95280, Note_on_c, 10, 69, 127
15, 95309, Note_on_c, 10, 69, 0
15, 95310, Note_on_c, 10, 67, 127
15, 95339, Note_on_c, 10, 67, 0
15, 95340, Note_on_c, 10, 66, 127
15, 95369, Note_on_c, 10, 66, 0
15, 95370, Note_on_c, 10, 64, 127
15, 95399, Note_on_c, 10, 64, 0
15, 95400, Note_on_c, 10, 63, 127
15, 95429, Note_on_c, 10, 63, 0
15, 95430, Note_on_c, 10, 64, 127
15, 95459, Note_on_c, 10, 64, 0
15, 95460, Note_on_c, 10, 66, 127
15, 95489, Note_on_c, 10, 66, 0
15, 95490, Note_on_c, 10, 67, 127
15, 95519, Note_on_c, 10, 67, 0
15, 95520, Note_on_c, 10, 69, 127
15, 95549, Note_on_c, 10, 69, 0
15, 95550, Note_on_c, 10, 66, 127
15, 95579, Note_on_c, 10, 66, 0
15, 95580, Note_on_c, 10, 67, 127
15, 95639, Note_on_c, 10, 67, 0
15, 95640, Note_on_c, 10, 64, 127
15, 95699, Note_on_c, 10, 64, 0
15, 95700, Note_on_c, 10, 63, 127
15, 95759, Note_on_c, 10, 63, 0
15, 95760, Note_on_c, 10, 64, 127
15, 95819, Note_on_c, 10, 64, 0
15, 95820, Note_on_c, 10, 64, 127
15, 95879, Note_on_c, 10, 64, 0
15, 97440, Note_on_c, 10, 71, 127
15, 97499, Note_on_c, 10, 71, 0
15, 97500, Note_on_c, 10, 68, 127
15, 97559, Note_on_c, 10, 68, 0
15, 97560, Note_on_c, 10, 69, 127
15, 97619, Note_on_c, 10, 69, 0
15, 97620, Note_on_c, 10, 72, 127
15, 97649, Note_on_c, 10, 72, 0
15, 97650, Note_on_c, 10, 71, 127
15, 97679, Note_on_c, 10, 71, 0
15, 97680, Note_on_c, 10, 69, 127
15, 97739, Note_on_c, 10, 69, 0
15, 97800, Note_on_c, 10, 69, 127
15, 97859, Note_on_c, 10, 69, 0
15, 97860, Note_on_c, 10, 66, 127
15, 97919, Note_on_c, 10, 66, 0
15, 97920, Note_on_c, 10, 67, 127
15, 97979, Note_on_c, 10, 67, 0
15, 97980, Note_on_c, 10, 62, 127
15, 98039, Note_on_c, 10, 62, 0
15, 98040, Note_on_c, 10, 71, 127
15, 98159, Note_on_c, 10, 71, 0
15, 98160, Note_on_c, 10, 69, 127
15, 98189, Note_on_c, 10, 69, 0
15, 98190, Note_on_c, 10, 67, 127
15, 98219, Note_on_c, 10, 67, 0
15, 98220, Note_on_c, 10, 66, 127
15, 98249, Note_on_c, 10, 66, 0
15, 98250, Note_on_c, 10, 64, 127
15, 98279, Note_on_c, 10, 64, 0
15, 98280, Note_on_c, 10, 64, 127
15, 98309, Note_on_c, 10, 64, 0
15, 98310, Note_on_c, 10, 63, 127
15, 98339, Note_on_c, 10, 63, 0
15, 98340, Note_on_c, 10, 69, 127
15, 98519, Note_on_c, 10, 69, 0
15, 98520, Note_on_c, 10, 71, 127
15, 98534, Note_on_c, 10, 71, 0
15, 98535, Note_on_c, 10, 69, 127
15, 98549, Note_on_c, 10, 69, 0
15, 98550, Note_on_c, 10, 67, 127
15, 98579, Note_on_c, 10, 67, 0
15, 98580, Note_on_c, 10, 69, 127
15, 98594, Note_on_c, 10, 69, 0
15, 98595, Note_on_c, 10, 67, 127
15, 98609, Note_on_c, 10, 67, 0
15, 98610, Note_on_c, 10, 66, 127
15, 98639, Note_on_c, 10, 66, 0
15, 98640, Note_on_c, 10, 67, 127
15, 98880, Note_on_c, 10, 67, 0
15, 98880, Note_on_c, 10, 69, 127
15, 98894, Note_on_c, 10, 69, 0
15, 98895, Note_on_c, 10, 67, 127
15, 98909, Note_on_c, 10, 67, 0
15, 98910, Note_on_c, 10, 65, 127
15, 98939, Note_on_c, 10, 65, 0
15, 98940, Note_on_c, 10, 67, 127
15, 98954, Note_on_c, 10, 67, 0
15, 98955, Note_on_c, 10, 65, 127
15, 98969, Note_on_c, 10, 65, 0
15, 98970, Note_on_c, 10, 64, 127
15, 98999, Note_on_c, 10, 64, 0
15, 99000, Note_on_c, 10, 65, 127
15, 99029, Note_on_c, 10, 65, 0
15, 99030, Note_on_c, 10, 64, 127
15, 99059, Note_on_c, 10, 64, 0
15, 99060, Note_on_c, 10, 65, 127
15, 99089, Note_on_c, 10, 65, 0
15, 99090, Note_on_c, 10, 62, 127
15, 99119, Note_on_c, 10, 62, 0
15, 99120, Note_on_c, 10, 65, 127
15, 99149, Note_on_c, 10, 65, 0
15, 99150, Note_on_c, 10, 69, 127
15, 99179, Note_on_c, 10, 69, 0
15, 99180, Note_on_c, 10, 74, 127
15, 99209, Note_on_c, 10, 74, 0
15, 99210, Note_on_c, 10, 71, 127
15, 99239, Note_on_c, 10, 71, 0
15, 99240, Note_on_c, 10, 67, 127
15, 99269, Note_on_c, 10, 67, 0
15, 99270, Note_on_c, 10, 71, 127
15, 99299, Note_on_c, 10, 71, 0
15, 99300, Note_on_c, 10, 69, 127
15, 99329, Note_on_c, 10, 69, 0
15, 99330, Note_on_c, 10, 67, 127
15, 99359, Note_on_c, 10, 67, 0
15, 99360, Note_on_c, 10, 72, 127
15, 99419, Note_on_c, 10, 72, 0
15, 99420, Note_on_c, 10, 60, 127
15, 99479, Note_on_c, 10, 60, 0
15, 99540, Note_on_c, 10, 62, 127
15, 99569, Note_on_c, 10, 62, 0
15, 99570, Note_on_c, 10, 64, 127
15, 99599, Note_on_c, 10, 64, 0
15, 99600, Note_on_c, 10, 65, 127
15, 99629, Note_on_c, 10, 65, 0
15, 99630, Note_on_c, 10, 67, 127
15, 99659, Note_on_c, 10, 67, 0
15, 99660, Note_on_c, 10, 69, 127
15, 99689, Note_on_c, 10, 69, 0
15, 99690, Note_on_c, 10, 71, 127
15, 99719, Note_on_c, 10, 71, 0
15, 99720, Note_on_c, 10, 72, 127
15, 99749, Note_on_c, 10, 72, 0
15, 99750, Note_on_c, 10, 71, 127
15, 99779, Note_on_c, 10, 71, 0
15, 99780, Note_on_c, 10, 69, 127
15, 99809, Note_on_c, 10, 69, 0
15, 99810, Note_on_c, 10, 67, 127
15, 99839, Note_on_c, 10, 67, 0
15, 99840, Note_on_c, 10, 72, 127
15, 99899, Note_on_c, 10, 72, 0
15, 99900, Note_on_c, 10, 64, 127
15, 99959, Note_on_c, 10, 64, 0
15, 99960, Note_on_c, 10, 67, 127
15, 99989, Note_on_c, 10, 67, 0
15, 99990, Note_on_c, 10, 65, 127
15, 100019, Note_on_c, 10, 65, 0
15, 100020, Note_on_c, 10, 64, 127
15, 100049, Note_on_c, 10, 64, 0
15, 100050, Note_on_c, 10, 62, 127
15, 100079, Note_on_c, 10, 62, 0
15, 100080, Note_on_c, 10, 60, 127
15, 100139, Note_on_c, 10, 60, 0
15, 100140, Note_on_c, 10, 60, 127
15, 100199, Note_on_c, 10, 60, 0
15, 103080, Note_on_c, 10, 64, 127
15, 103139, Note_on_c, 10, 64, 0
15, 103140, Note_on_c, 10, 69, 127
15, 103199, Note_on_c, 10, 69, 0
15, 103200, Note_on_c, 10, 72, 127
15, 103259, Note_on_c, 10, 72, 0
15, 103260, Note_on_c, 10, 71, 127
15, 103319, Note_on_c, 10, 71, 0
15, 103320, Note_on_c, 10, 72, 127
15, 103379, Note_on_c, 10, 72, 0
15, 103380, Note_on_c, 10, 68, 127
15, 103439, Note_on_c, 10, 68, 0
15, 103440, Note_on_c, 10, 69, 127
15, 103499, Note_on_c, 10, 69, 0
15, 103500, Note_on_c, 10, 67, 127
15, 103529, Note_on_c, 10, 67, 0
15, 103530, Note_on_c, 10, 65, 127
15, 103559, Note_on_c, 10, 65, 0
15, 103560, Note_on_c, 10, 64, 127
15, 103589, Note_on_c, 10, 64, 0
15, 103590, Note_on_c, 10, 62, 127
15, 103619, Note_on_c, 10, 62, 0
15, 103620, Note_on_c, 10, 67, 127
15, 103679, Note_on_c, 10, 67, 0
15, 103680, Note_on_c, 10, 64, 127
15, 103739, Note_on_c, 10, 64, 0
15, 103740, Note_on_c, 10, 60, 127
15, 103799, Note_on_c, 10, 60, 0
15, 103800, Note_on_c, 10, 72, 127
15, 103859, Note_on_c, 10, 72, 0
15, 103860, Note_on_c, 10, 71, 127
15, 103919, Note_on_c, 10, 71, 0
15, 103920, Note_on_c, 10, 72, 127
15, 103949, Note_on_c, 10, 72, 0
15, 103950, Note_on_c, 10, 71, 127
15, 103979, Note_on_c, 10, 71, 0
15, 103980, Note_on_c, 10, 69, 127
15, 104009, Note_on_c, 10, 69, 0
15, 104010, Note_on_c, 10, 68, 127
15, 104039, Note_on_c, 10, 68, 0
15, 104040, Note_on_c, 10, 69, 127
15, 104099, Note_on_c, 10, 69, 0
15, 104100, Note_on_c, 10, 71, 127
15, 104159, Note_on_c, 10, 71, 0
15, 104160, Note_on_c, 10, 72, 127
15, 104219, Note_on_c, 10, 72, 0
15, 104220, Note_on_c, 10, 74, 127
15, 104279, Note_on_c, 10, 74, 0
15, 104280, Note_on_c, 10, 72, 127
15, 104309, Note_on_c, 10, 72, 0
15, 104310, Note_on_c, 10, 71, 127
15, 104339, Note_on_c, 10, 71, 0
15, 104340, Note_on_c, 10, 72, 127
15, 104399, Note_on_c, 10, 72, 0
15, 104400, Note_on_c, 10, 72, 127
15, 104430, Note_on_c, 10, 72, 0
15, 104430, Note_on_c, 10, 71, 127
15, 104520, Note_on_c, 10, 71, 0
15, 104520, Note_on_c, 10, 71, 127
15, 104579, Note_on_c, 10, 71, 0
15, 104580, Note_on_c, 10, 71, 127
15, 104639, Note_on_c, 10, 71, 0
15, 104640, Note_on_c, 10, 67, 127
15, 104699, Note_on_c, 10, 67, 0
15, 104880, Note_on_c, 10, 69, 127
15, 104939, Note_on_c, 10, 69, 0
15, 104940, Note_on_c, 10, 69, 127
15, 104999, Note_on_c, 10, 69, 0
15, 105000, Note_on_c, 10, 62, 127
15, 105059, Note_on_c, 10, 62, 0
15, 105240, Note_on_c, 10, 67, 127
15, 105299, Note_on_c, 10, 67, 0
15, 105300, Note_on_c, 10, 60, 127
15, 105359, Note_on_c, 10, 60, 0
15, 105360, Note_on_c, 10, 64, 127
15, 105419, Note_on_c, 10, 64, 0
15, 105420, Note_on_c, 10, 62, 127
15, 105479, Note_on_c, 10, 62, 0
15, 105480, Note_on_c, 10, 65, 127
15, 105510, Note_on_c, 10, 65, 0
15, 105510, Note_on_c, 10, 64, 127
15, 105540, Note_on_c, 10, 64, 0
15, 105540, Note_on_c, 10, 62, 127
15, 105570, Note_on_c, 10, 62, 0
15, 105570, Note_on_c, 10, 60, 127
15, 105600, Note_on_c, 10, 60, 0
15, 105960, Note_on_c, 10, 69, 127
15, 106020, Note_on_c, 10, 69, 0
15, 106020, Note_on_c, 10, 62, 127
15, 106080, Note_on_c, 10, 62, 0
15, 106080, Note_on_c, 10, 65, 127
15, 106140, Note_on_c, 10, 65, 0
15, 106140, Note_on_c, 10, 64, 127
15, 106200, Note_on_c, 10, 64, 0
15, 106200, Note_on_c, 10, 67, 127
15, 106230, Note_on_c, 10, 67, 0
15, 106230, Note_on_c, 10, 65, 127
15, 106260, Note_on_c, 10, 65, 0
15, 106260, Note_on_c, 10, 64, 127
15, 106290, Note_on_c, 10, 64, 0
15, 106290, Note_on_c, 10, 62, 127
15, 106320, Note_on_c, 10, 62, 0
15, 106680, Note_on_c, 10, 64, 127
15, 106739, Note_on_c, 10, 64, 0
15, 106740, Note_on_c, 10, 69, 127
15, 106799, Note_on_c, 10, 69, 0
15, 106800, Note_on_c, 10, 72, 127
15, 106859, Note_on_c, 10, 72, 0
15, 106860, Note_on_c, 10, 71, 127
15, 106919, Note_on_c, 10, 71, 0
15, 106920, Note_on_c, 10, 72, 127
15, 106979, Note_on_c, 10, 72, 0
15, 106980, Note_on_c, 10, 68, 127
15, 107039, Note_on_c, 10, 68, 0
15, 107040, Note_on_c, 10, 69, 127
15, 107099, Note_on_c, 10, 69, 0
15, 107100, Note_on_c, 10, 67, 127
15, 107129, Note_on_c, 10, 67, 0
15, 107130, Note_on_c, 10, 65, 127
15, 107159, Note_on_c, 10, 65, 0
15, 107160, Note_on_c, 10, 64, 127
15, 107189, Note_on_c, 10, 64, 0
15, 107190, Note_on_c, 10, 62, 127
15, 107219, Note_on_c, 10, 62, 0
15, 107220, Note_on_c, 10, 67, 127
15, 107279, Note_on_c, 10, 67, 0
15, 107280, Note_on_c, 10, 64, 127
15, 107339, Note_on_c, 10, 64, 0
15, 107340, Note_on_c, 10, 60, 127
15, 107399, Note_on_c, 10, 60, 0
15, 107400, Note_on_c, 10, 72, 127
15, 107459, Note_on_c, 10, 72, 0
15, 107460, Note_on_c, 10, 71, 127
15, 107519, Note_on_c, 10, 71, 0
15, 107520, Note_on_c, 10, 72, 127
15, 107549, Note_on_c, 10, 72, 0
15, 107550, Note_on_c, 10, 71, 127
15, 107579, Note_on_c, 10, 71, 0
15, 107580, Note_on_c, 10, 69, 127
15, 107609, Note_on_c, 10, 69, 0
15, 107610, Note_on_c, 10, 68, 127
15, 107639, Note_on_c, 10, 68, 0
15, 107640, Note_on_c, 10, 69, 127
15, 107699, Note_on_c, 10, 69, 0
15, 107700, Note_on_c, 10, 71, 127
15, 107759, Note_on_c, 10, 71, 0
15, 107760, Note_on_c, 10, 72, 127
15, 107819, Note_on_c, 10, 72, 0
15, 107820, Note_on_c, 10, 74, 127
15, 107879, Note_on_c, 10, 74, 0
15, 107880, Note_on_c, 10, 72, 127
15, 107909, Note_on_c, 10, 72, 0
15, 107910, Note_on_c, 10, 71, 127
15, 107939, Note_on_c, 10, 71, 0
15, 107940, Note_on_c, 10, 72, 127
15, 107999, Note_on_c, 10, 72, 0
15, 108000, Note_on_c, 10, 71, 127
15, 108119, Note_on_c, 10, 71, 0
15, 108120, Note_on_c, 10, 74, 127
15, 108179, Note_on_c, 10, 74, 0
15, 108180, Note_on_c, 10, 73, 127
15, 108239, Note_on_c, 10, 73, 0
15, 108240, Note_on_c, 10, 76, 127
15, 108299, Note_on_c, 10, 76, 0
15, 108300, Note_on_c, 10, 67, 127
15, 108359, Note_on_c, 10, 67, 0
15, 108360, Note_on_c, 10, 65, 127
15, 108419, Note_on_c, 10, 65, 0
15, 108420, Note_on_c, 10, 64, 127
15, 108449, Note_on_c, 10, 64, 0
15, 108450, Note_on_c, 10, 62, 127
15, 108479, Note_on_c, 10, 62, 0
15, 108480, Note_on_c, 10, 72, 127
15, 108539, Note_on_c, 10, 72, 0
15, 108540, Note_on_c, 10, 71, 127
15, 108599, Note_on_c, 10, 71, 0
15, 108600, Note_on_c, 10, 74, 127
15, 108659, Note_on_c, 10, 74, 0
15, 108660, Note_on_c, 10, 65, 127
15, 108719, Note_on_c, 10, 65, 0
15, 108720, Note_on_c, 10, 64, 127
15, 108779, Note_on_c, 10, 64, 0
15, 108780, Note_on_c, 10, 62, 127
15, 108809, Note_on_c, 10, 62, 0
15, 108810, Note_on_c, 10, 60, 127
15, 108839, Note_on_c, 10, 60, 0
15, 108840, Note_on_c, 10, 64, 127
15, 108899, Note_on_c, 10, 64, 0
15, 108900, Note_on_c, 10, 74, 127
15, 108959, Note_on_c, 10, 74, 0
15, 108960, Note_on_c, 10, 72, 127
15, 109019, Note_on_c, 10, 72, 0
15, 109020, Note_on_c, 10, 71, 127
15, 109079, Note_on_c, 10, 71, 0
15, 109080, Note_on_c, 10, 76, 127
15, 109139, Note_on_c, 10, 76, 0
15, 109140, Note_on_c, 10, 69, 127
15, 109199, Note_on_c, 10, 69, 0
15, 109200, Note_on_c, 10, 71, 127
15, 109259, Note_on_c, 10, 71, 0
15, 109260, Note_on_c, 10, 64, 127
15, 109319, Note_on_c, 10, 64, 0
15, 109320, Note_on_c, 10, 72, 127
15, 109349, Note_on_c, 10, 72, 0
15, 109350, Note_on_c, 10, 71, 127
15, 109379, Note_on_c, 10, 71, 0
15, 109380, Note_on_c, 10, 69, 127
15, 109409, Note_on_c, 10, 69, 0
15, 109410, Note_on_c, 10, 68, 127
15, 109439, Note_on_c, 10, 68, 0
15, 109440, Note_on_c, 10, 69, 127
15, 109559, Note_on_c, 10, 69, 0
15, 109560, Note_on_c, 10, 69, 127
15, 109619, Note_on_c, 10, 69, 0
15, 109620, Note_on_c, 10, 69, 127
15, 109679, Note_on_c, 10, 69, 0
15, 109680, Note_on_c, 10, 62, 127
15, 109739, Note_on_c, 10, 62, 0
15, 109920, Note_on_c, 10, 67, 127
15, 109979, Note_on_c, 10, 67, 0
15, 109980, Note_on_c, 10, 67, 127
15, 110039, Note_on_c, 10, 67, 0
15, 110040, Note_on_c, 10, 61, 127
15, 110099, Note_on_c, 10, 61, 0
15, 110280, Note_on_c, 10, 69, 127
15, 110339, Note_on_c, 10, 69, 0
15, 110340, Note_on_c, 10, 68, 127
15, 110399, Note_on_c, 10, 68, 0
15, 110400, Note_on_c, 10, 71, 127
15, 110459, Note_on_c, 10, 71, 0
15, 110460, Note_on_c, 10, 74, 127
15, 110519, Note_on_c, 10, 74, 0
15, 110520, Note_on_c, 10, 74, 127
15, 110579, Note_on_c, 10, 74, 0
15, 110580, Note_on_c, 10, 73, 127
15, 110639, Note_on_c, 10, 73, 0
15, 111000, Note_on_c, 10, 65, 127
15, 111059, Note_on_c, 10, 65, 0
15, 111060, Note_on_c, 10, 64, 127
15, 111119, Note_on_c, 10, 64, 0
15, 111120, Note_on_c, 10, 67, 127
15, 111179, Note_on_c, 10, 67, 0
15, 111180, Note_on_c, 10, 70, 127
15, 111239, Note_on_c, 10, 70, 0
15, 111240, Note_on_c, 10, 70, 127
15, 111299, Note_on_c, 10, 70, 0
15, 111300, Note_on_c, 10, 69, 127
15, 111359, Note_on_c, 10, 69, 0
15, 111720, Note_on_c, 10, 74, 127
15, 111779, Note_on_c, 10, 74, 0
15, 111780, Note_on_c, 10, 73, 127
15, 111839, Note_on_c, 10, 73, 0
15, 111840, Note_on_c, 10, 76, 127
15, 111899, Note_on_c, 10, 76, 0
15, 111900, Note_on_c, 10, 67, 127
15, 111959, Note_on_c, 10, 67, 0
15, 111960, Note_on_c, 10, 65, 127
15, 112019, Note_on_c, 10, 65, 0
15, 112020, Note_on_c, 10, 64, 127
15, 112049, Note_on_c, 10, 64, 0
15, 112050, Note_on_c, 10, 62, 127
15, 112079, Note_on_c, 10, 62, 0
15, 112080, Note_on_c, 10, 72, 127
15, 112139, Note_on_c, 10, 72, 0
15, 112140, Note_on_c, 10, 71, 127
15, 112199, Note_on_c, 10, 71, 0
15, 112200, Note_on_c, 10, 74, 127
15, 112259, Note_on_c, 10, 74, 0
15, 112260, Note_on_c, 10, 65, 127
15, 112319, Note_on_c, 10, 65, 0
15, 112320, Note_on_c, 10, 64, 127
15, 112379, Note_on_c, 10, 64, 0
15, 112380, Note_on_c, 10, 62, 127
15, 112409, Note_on_c, 10, 62, 0
15, 112410, Note_on_c, 10, 60, 127
15, 112439, Note_on_c, 10, 60, 0
15, 112440, Note_on_c, 10, 64, 127
15, 112499, Note_on_c, 10, 64, 0
15, 112500, Note_on_c, 10, 74, 127
15, 112559, Note_on_c, 10, 74, 0
15, 112560, Note_on_c, 10, 72, 127
15, 112619, Note_on_c, 10, 72, 0
15, 112620, Note_on_c, 10, 71, 127
15, 112679, Note_on_c, 10, 71, 0
15, 112680, Note_on_c, 10, 76, 127
15, 112739, Note_on_c, 10, 76, 0
15, 112740, Note_on_c, 10, 69, 127
15, 112799, Note_on_c, 10, 69, 0
15, 112800, Note_on_c, 10, 71, 127
15, 112859, Note_on_c, 10, 71, 0
15, 112860, Note_on_c, 10, 64, 127
15, 112919, Note_on_c, 10, 64, 0
15, 112920, Note_on_c, 10, 72, 127
15, 112949, Note_on_c, 10, 72, 0
15, 112950, Note_on_c, 10, 71, 127
15, 112979, Note_on_c, 10, 71, 0
15, 112980, Note_on_c, 10, 69, 127
15, 113009, Note_on_c, 10, 69, 0
15, 113010, Note_on_c, 10, 68, 127
15, 113039, Note_on_c, 10, 68, 0
15, 113040, Note_on_c, 10, 69, 127
15, 113159, Note_on_c, 10, 69, 0
15, 116460, Control_c, 10, 0, 0
15, 116460, Program_c, 10, 52
15, 116460, Note_on_c, 10, 64, 127
15, 116519, Note_on_c, 10, 64, 0
15, 116520, Note_on_c, 10, 62, 127
15, 116579, Note_on_c, 10, 62, 0
15, 116580, Note_on_c, 10, 60, 127
15, 116639, Note_on_c, 10, 60, 0
15, 116640, Note_on_c, 10, 62, 127
15, 116699, Note_on_c, 10, 62, 0
15, 116700, Note_on_c, 10, 62, 127
15, 116759, Note_on_c, 10, 62, 0
15, 116760, Note_on_c, 10, 64, 127
15, 116819, Note_on_c, 10, 64, 0
15, 116820, Note_on_c, 10, 64, 127
15, 116879, Note_on_c, 10, 64, 0
15, 116880, Note_on_c, 10, 62, 127
15, 116939, Note_on_c, 10, 62, 0
15, 116940, Note_on_c, 10, 62, 127
15, 116999, Note_on_c, 10, 62, 0
15, 117000, Note_on_c, 10, 60, 127
15, 117059, Note_on_c, 10, 60, 0
15, 117060, Note_on_c, 10, 60, 127
15, 117179, Note_on_c, 10, 60, 0
15, 117180, Note_on_c, 10, 59, 127
15, 117239, Note_on_c, 10, 59, 0
15, 117240, Note_on_c, 10, 57, 127
15, 117299, Note_on_c, 10, 57, 0
15, 117300, Note_on_c, 10, 59, 127
15, 117395, Note_on_c, 10, 59, 0
15, 117420, Note_on_c, 10, 64, 127
15, 117539, Note_on_c, 10, 64, 0
15, 117540, Note_on_c, 10, 64, 127
15, 117659, Note_on_c, 10, 64, 0
15, 117660, Note_on_c, 10, 69, 127
15, 117779, Note_on_c, 10, 69, 0
15, 117780, Note_on_c, 10, 69, 127
15, 117899, Note_on_c, 10, 69, 0
15, 117900, Note_on_c, 10, 68, 127
15, 118019, Note_on_c, 10, 68, 0
15, 118020, Note_on_c, 10, 64, 127
15, 118379, Note_on_c, 10, 64, 0
15, 118380, Note_on_c, 10, 64, 127
15, 118439, Note_on_c, 10, 64, 0
15, 118440, Note_on_c, 10, 62, 127
15, 118499, Note_on_c, 10, 62, 0
15, 118500, Note_on_c, 10, 60, 127
15, 118559, Note_on_c, 10, 60, 0
15, 118560, Note_on_c, 10, 62, 127
15, 118619, Note_on_c, 10, 62, 0
15, 118620, Note_on_c, 10, 62, 127
15, 118679, Note_on_c, 10, 62, 0
15, 118680, Note_on_c, 10, 64, 127
15, 118739, Note_on_c, 10, 64, 0
15, 118740, Note_on_c, 10, 64, 127
15, 118799, Note_on_c, 10, 64, 0
15, 118800, Note_on_c, 10, 62, 127
15, 118859, Note_on_c, 10, 62, 0
15, 118860, Note_on_c, 10, 62, 127
15, 118919, Note_on_c, 10, 62, 0
15, 118920, Note_on_c, 10, 60, 127
15, 118979, Note_on_c, 10, 60, 0
15, 118980, Note_on_c, 10, 60, 127
15, 119099, Note_on_c, 10, 60, 0
15, 119100, Note_on_c, 10, 59, 127
15, 119159, Note_on_c, 10, 59, 0
15, 119160, Note_on_c, 10, 57, 127
15, 119219, Note_on_c, 10, 57, 0
15, 119220, Note_on_c, 10, 59, 127
15, 119315, Note_on_c, 10, 59, 0
15, 119340, Note_on_c, 10, 64, 127
15, 119459, Note_on_c, 10, 64, 0
15, 119460, Note_on_c, 10, 64, 127
15, 119579, Note_on_c, 10, 64, 0
15, 119580, Note_on_c, 10, 69, 127
15, 119699, Note_on_c, 10, 69, 0
15, 119700, Note_on_c, 10, 69, 127
15, 119819, Note_on_c, 10, 69, 0
15, 119820, Note_on_c, 10, 68, 127
15, 119939, Note_on_c, 10, 68, 0
15, 119940, Note_on_c, 10, 64, 127
15, 120299, Note_on_c, 10, 64, 0
15, 120300, Note_on_c, 10, 69, 127
15, 120359, Note_on_c, 10, 69, 0
15, 120360, Note_on_c, 10, 67, 127
15, 120419, Note_on_c, 10, 67, 0
15, 120420, Note_on_c, 10, 65, 127
15, 120539, Note_on_c, 10, 65, 0
15, 120540, Note_on_c, 10, 64, 127
15, 120599, Note_on_c, 10, 64, 0
15, 120600, Note_on_c, 10, 62, 127
15, 120659, Note_on_c, 10, 62, 0
15, 120660, Note_on_c, 10, 60, 127
15, 120779, Note_on_c, 10, 60, 0
15, 120780, Note_on_c, 10, 65, 127
15, 120899, Note_on_c, 10, 65, 0
15, 120900, Note_on_c, 10, 65, 127
15, 121019, Note_on_c, 10, 65, 0
15, 121020, Note_on_c, 10, 64, 127
15, 121079, Note_on_c, 10, 64, 0
15, 121080, Note_on_c, 10, 62, 127
15, 121139, Note_on_c, 10, 62, 0
15, 121140, Note_on_c, 10, 64, 127
15, 121235, Note_on_c, 10, 64, 0
15, 121260, Note_on_c, 10, 64, 127
15, 121379, Note_on_c, 10, 64, 0
15, 121380, Note_on_c, 10, 65, 127
15, 121499, Note_on_c, 10, 65, 0
15, 121500, Note_on_c, 10, 58, 127
15, 121559, Note_on_c, 10, 58, 0
15, 121560, Note_on_c, 10, 57, 127
15, 121619, Note_on_c, 10, 57, 0
15, 121620, Note_on_c, 10, 57, 127
15, 121679, Note_on_c, 10, 57, 0
15, 121680, Note_on_c, 10, 55, 127
15, 121739, Note_on_c, 10, 55, 0
15, 121740, Note_on_c, 10, 57, 127
15, 121799, Note_on_c, 10, 57, 0
15, 121800, Note_on_c, 10, 62, 127
15, 121859, Note_on_c, 10, 62, 0
15, 121860, Note_on_c, 10, 61, 127
15, 122147, Note_on_c, 10, 61, 0
15, 122220, Note_on_c, 10, 62, 127
15, 122339, Note_on_c, 10, 62, 0
15, 122340, Note_on_c, 10, 62, 127
15, 122459, Note_on_c, 10, 62, 0
15, 122460, Note_on_c, 10, 67, 127
15, 122579, Note_on_c, 10, 67, 0
15, 122580, Note_on_c, 10, 67, 127
15, 122639, Note_on_c, 10, 67, 0
15, 122640, Note_on_c, 10, 66, 127
15, 122699, Note_on_c, 10, 66, 0
15, 122700, Note_on_c, 10, 67, 127
15, 122819, Note_on_c, 10, 67, 0
15, 122820, Note_on_c, 10, 67, 127
15, 122939, Note_on_c, 10, 67, 0
15, 122940, Note_on_c, 10, 66, 127
15, 123059, Note_on_c, 10, 66, 0
15, 123060, Note_on_c, 10, 67, 127
15, 123155, Note_on_c, 10, 67, 0
15, 123180, Note_on_c, 10, 67, 127
15, 123299, Note_on_c, 10, 67, 0
15, 123300, Note_on_c, 10, 60, 127
15, 123359, Note_on_c, 10, 60, 0
15, 123360, Note_on_c, 10, 62, 127
15, 123419, Note_on_c, 10, 62, 0
15, 123420, Note_on_c, 10, 60, 127
15, 123539, Note_on_c, 10, 60, 0
15, 123540, Note_on_c, 10, 53, 127
15, 123659, Note_on_c, 10, 53, 0
15, 123660, Note_on_c, 10, 62, 127
15, 123779, Note_on_c, 10, 62, 0
15, 123780, Note_on_c, 10, 62, 127
15, 123899, Note_on_c, 10, 62, 0
15, 123900, Note_on_c, 10, 60, 127
15, 124019, Note_on_c, 10, 60, 0
15, 124020, Note_on_c, 10, 59, 127
15, 124139, Note_on_c, 10, 59, 0
15, 199980, Note_on_c, 10, 69, 127
15, 200099, Note_on_c, 10, 69, 0
15, 200100, Note_on_c, 10, 69, 127
15, 200159, Note_on_c, 10, 69, 0
15, 200160, Note_on_c, 10, 68, 127
15, 200219, Note_on_c, 10, 68, 0
15, 200220, Note_on_c, 10, 66, 127
15, 200339, Note_on_c, 10, 66, 0
15, 200340, Note_on_c, 10, 64, 127
15, 200459, Note_on_c, 10, 64, 0
15, 200460, Note_on_c, 10, 66, 127
15, 200519, Note_on_c, 10, 66, 0
15, 200520, Note_on_c, 10, 64, 127
15, 200579, Note_on_c, 10, 64, 0
15, 200580, Note_on_c, 10, 62, 127
15, 200699, Note_on_c, 10, 62, 0
15, 200700, Note_on_c, 10, 64, 127
15, 200819, Note_on_c, 10, 64, 0
15, 200820, Note_on_c, 10, 66, 127
15, 200939, Note_on_c, 10, 66, 0
15, 201660, Note_on_c, 10, 66, 127
15, 201719, Note_on_c, 10, 66, 0
15, 201720, Note_on_c, 10, 67, 127
15, 201779, Note_on_c, 10, 67, 0
15, 201780, Note_on_c, 10, 69, 127
15, 201839, Note_on_c, 10, 69, 0
15, 201840, Note_on_c, 10, 67, 127
15, 201899, Note_on_c, 10, 67, 0
15, 201900, Note_on_c, 10, 66, 127
15, 202019, Note_on_c, 10, 66, 0
15, 202020, Note_on_c, 10, 64, 127
15, 202139, Note_on_c, 10, 64, 0
15, 202140, Note_on_c, 10, 62, 127
15, 202259, Note_on_c, 10, 62, 0
15, 202260, Note_on_c, 10, 62, 127
15, 202379, Note_on_c, 10, 62, 0
15, 202380, Note_on_c, 10, 64, 127
15, 202499, Note_on_c, 10, 64, 0
15, 202500, Note_on_c, 10, 62, 127
15, 202619, Note_on_c, 10, 62, 0
15, 203340, Note_on_c, 10, 62, 127
15, 203399, Note_on_c, 10, 62, 0
15, 203400, Note_on_c, 10, 64, 127
15, 203459, Note_on_c, 10, 64, 0
15, 203460, Note_on_c, 10, 66, 127
15, 203579, Note_on_c, 10, 66, 0
15, 203580, Note_on_c, 10, 64, 127
15, 203699, Note_on_c, 10, 64, 0
15, 203700, Note_on_c, 10, 64, 127
15, 203759, Note_on_c, 10, 64, 0
15, 203760, Note_on_c, 10, 68, 127
15, 203819, Note_on_c, 10, 68, 0
15, 203820, Note_on_c, 10, 69, 127
15, 203939, Note_on_c, 10, 69, 0
15, 203940, Note_on_c, 10, 69, 127
15, 204059, Note_on_c, 10, 69, 0
15, 204060, Note_on_c, 10, 69, 127
15, 204119, Note_on_c, 10, 69, 0
15, 204120, Note_on_c, 10, 68, 127
15, 204179, Note_on_c, 10, 68, 0
15, 204180, Note_on_c, 10, 64, 127
15, 204299, Note_on_c, 10, 64, 0
15, 205020, Note_on_c, 10, 66, 127
15, 205079, Note_on_c, 10, 66, 0
15, 205080, Note_on_c, 10, 64, 127
15, 205139, Note_on_c, 10, 64, 0
15, 205140, Note_on_c, 10, 64, 127
15, 205199, Note_on_c, 10, 64, 0
15, 205200, Note_on_c, 10, 66, 127
15, 205259, Note_on_c, 10, 66, 0
15, 205260, Note_on_c, 10, 66, 127
15, 205319, Note_on_c, 10, 66, 0
15, 205320, Note_on_c, 10, 64, 127
15, 205379, Note_on_c, 10, 64, 0
15, 205380, Note_on_c, 10, 61, 127
15, 205439, Note_on_c, 10, 61, 0
15, 205440, Note_on_c, 10, 62, 127
15, 205499, Note_on_c, 10, 62, 0
15, 205500, Note_on_c, 10, 59, 127
15, 205559, Note_on_c, 10, 59, 0
15, 205560, Note_on_c, 10, 61, 127
15, 205619, Note_on_c, 10, 61, 0
15, 205620, Note_on_c, 10, 62, 127
15, 205799, Note_on_c, 10, 62, 0
15, 205800, Note_on_c, 10, 61, 127
15, 205859, Note_on_c, 10, 61, 0
15, 205860, Note_on_c, 10, 57, 127
15, 205980, Note_on_c, 10, 57, 0
15, 205980, End_track
16, 0, Start_track
16, 0, MIDI_port, 0
16, 0, Title_t, "Tenore Solo/Coro"
16, 0, Program_c, 11, 52
16, 5760, Note_on_c, 11, 62, 127
16, 5819, Note_on_c, 11, 62, 0
16, 5820, Note_on_c, 11, 62, 127
16, 5879, Note_on_c, 11, 62, 0
16, 5880, Note_on_c, 11, 62, 127
16, 5939, Note_on_c, 11, 62, 0
16, 5940, Note_on_c, 11, 62, 127
16, 5999, Note_on_c, 11, 62, 0
16, 6000, Note_on_c, 11, 57, 127
16, 6059, Note_on_c, 11, 57, 0
16, 6420, Note_on_c, 11, 57, 127
16, 6479, Note_on_c, 11, 57, 0
16, 6480, Note_on_c, 11, 57, 127
16, 6539, Note_on_c, 11, 57, 0
16, 6540, Note_on_c, 11, 62, 127
16, 6569, Note_on_c, 11, 62, 0
16, 6570, Note_on_c, 11, 57, 127
16, 6599, Note_on_c, 11, 57, 0
16, 6600, Note_on_c, 11, 54, 127
16, 6629, Note_on_c, 11, 54, 0
16, 6630, Note_on_c, 11, 50, 127
16, 6659, Note_on_c, 11, 50, 0
16, 6660, Note_on_c, 11, 57, 127
16, 6719, Note_on_c, 11, 57, 0
16, 6720, Note_on_c, 11, 57, 127
16, 6779, Note_on_c, 11, 57, 0
16, 6900, Note_on_c, 11, 66, 127
16, 6959, Note_on_c, 11, 66, 0
16, 6960, Note_on_c, 11, 62, 127
16, 7019, Note_on_c, 11, 62, 0
16, 7140, Note_on_c, 11, 62, 127
16, 7199, Note_on_c, 11, 62, 0
16, 7200, Note_on_c, 11, 62, 127
16, 7259, Note_on_c, 11, 62, 0
16, 7260, Note_on_c, 11, 57, 127
16, 7319, Note_on_c, 11, 57, 0
16, 7560, Note_on_c, 11, 62, 127
16, 7619, Note_on_c, 11, 62, 0
16, 7620, Note_on_c, 11, 62, 127
16, 7679, Note_on_c, 11, 62, 0
16, 7680, Note_on_c, 11, 62, 127
16, 7739, Note_on_c, 11, 62, 0
16, 7740, Note_on_c, 11, 62, 127
16, 7799, Note_on_c, 11, 62, 0
16, 7800, Note_on_c, 11, 61, 127
16, 7829, Note_on_c, 11, 61, 0
16, 7830, Note_on_c, 11, 59, 127
16, 7859, Note_on_c, 11, 59, 0
16, 7860, Note_on_c, 11, 61, 127
16, 7889, Note_on_c, 11, 61, 0
16, 7890, Note_on_c, 11, 62, 127
16, 7919, Note_on_c, 11, 62, 0
16, 7920, Note_on_c, 11, 64, 127
16, 7979, Note_on_c, 11, 64, 0
16, 7980, Note_on_c, 11, 64, 127
16, 8039, Note_on_c, 11, 64, 0
16, 8040, Note_on_c, 11, 64, 127
16, 8099, Note_on_c, 11, 64, 0
16, 8100, Note_on_c, 11, 64, 127
16, 8159, Note_on_c, 11, 64, 0
16, 8160, Note_on_c, 11, 62, 127
16, 8189, Note_on_c, 11, 62, 0
16, 8190, Note_on_c, 11, 61, 127
16, 8219, Note_on_c, 11, 61, 0
16, 8220, Note_on_c, 11, 62, 127
16, 8279, Note_on_c, 11, 62, 0
16, 8280, Note_on_c, 11, 62, 127
16, 8339, Note_on_c, 11, 62, 0
16, 8340, Note_on_c, 11, 62, 127
16, 8399, Note_on_c, 11, 62, 0
16, 8400, Note_on_c, 11, 62, 127
16, 8459, Note_on_c, 11, 62, 0
16, 8460, Note_on_c, 11, 62, 127
16, 8519, Note_on_c, 11, 62, 0
16, 8520, Note_on_c, 11, 62, 127
16, 8579, Note_on_c, 11, 62, 0
16, 8580, Note_on_c, 11, 64, 127
16, 8639, Note_on_c, 11, 64, 0
16, 8640, Note_on_c, 11, 57, 127
16, 8669, Note_on_c, 11, 57, 0
16, 8670, Note_on_c, 11, 59, 127
16, 8699, Note_on_c, 11, 59, 0
16, 8700, Note_on_c, 11, 61, 127
16, 8759, Note_on_c, 11, 61, 0
16, 8760, Note_on_c, 11, 62, 127
16, 8819, Note_on_c, 11, 62, 0
16, 8820, Note_on_c, 11, 64, 127
16, 8879, Note_on_c, 11, 64, 0
16, 8880, Note_on_c, 11, 57, 127
16, 8909, Note_on_c, 11, 57, 0
16, 8910, Note_on_c, 11, 59, 127
16, 8939, Note_on_c, 11, 59, 0
16, 8940, Note_on_c, 11, 61, 127
16, 8954, Note_on_c, 11, 61, 0
16, 8955, Note_on_c, 11, 59, 127
16, 8969, Note_on_c, 11, 59, 0
16, 8970, Note_on_c, 11, 57, 127
16, 8984, Note_on_c, 11, 57, 0
16, 8985, Note_on_c, 11, 59, 127
16, 8999, Note_on_c, 11, 59, 0
16, 9000, Note_on_c, 11, 61, 127
16, 9059, Note_on_c, 11, 61, 0
16, 9060, Note_on_c, 11, 61, 127
16, 9119, Note_on_c, 11, 61, 0
16, 9120, Note_on_c, 11, 63, 127
16, 9179, Note_on_c, 11, 63, 0
16, 9180, Note_on_c, 11, 64, 127
16, 9239, Note_on_c, 11, 64, 0
16, 9240, Note_on_c, 11, 64, 127
16, 9299, Note_on_c, 11, 64, 0
16, 9300, Note_on_c, 11, 62, 127
16, 9359, Note_on_c, 11, 62, 0
16, 9360, Note_on_c, 11, 62, 127
16, 9419, Note_on_c, 11, 62, 0
16, 9420, Note_on_c, 11, 67, 127
16, 9479, Note_on_c, 11, 67, 0
16, 9480, Note_on_c, 11, 67, 127
16, 9539, Note_on_c, 11, 67, 0
16, 9540, Note_on_c, 11, 66, 127
16, 9599, Note_on_c, 11, 66, 0
16, 9600, Note_on_c, 11, 66, 127
16, 9659, Note_on_c, 11, 66, 0
16, 9780, Note_on_c, 11, 57, 127
16, 9809, Note_on_c, 11, 57, 0
16, 9810, Note_on_c, 11, 59, 127
16, 9839, Note_on_c, 11, 59, 0
16, 9840, Note_on_c, 11, 61, 127
16, 9854, Note_on_c, 11, 61, 0
16, 9855, Note_on_c, 11, 59, 127
16, 9869, Note_on_c, 11, 59, 0
16, 9870, Note_on_c, 11, 57, 127
16, 9884, Note_on_c, 11, 57, 0
16, 9885, Note_on_c, 11, 59, 127
16, 9899, Note_on_c, 11, 59, 0
16, 9900, Note_on_c, 11, 61, 127
16, 9959, Note_on_c, 11, 61, 0
16, 9960, Note_on_c, 11, 64, 127
16, 10019, Note_on_c, 11, 64, 0
16, 10020, Note_on_c, 11, 68, 127
16, 10079, Note_on_c, 11, 68, 0
16, 10080, Note_on_c, 11, 69, 127
16, 10139, Note_on_c, 11, 69, 0
16, 10140, Note_on_c, 11, 57, 127
16, 10199, Note_on_c, 11, 57, 0
16, 10200, Note_on_c, 11, 69, 127
16, 10259, Note_on_c, 11, 69, 0
16, 10260, Note_on_c, 11, 67, 127
16, 10319, Note_on_c, 11, 67, 0
16, 10320, Note_on_c, 11, 60, 127
16, 10379, Note_on_c, 11, 60, 0
16, 10380, Note_on_c, 11, 60, 127
16, 10439, Note_on_c, 11, 60, 0
16, 10440, Note_on_c, 11, 59, 127
16, 10499, Note_on_c, 11, 59, 0
16, 10500, Note_on_c, 11, 57, 127
16, 10559, Note_on_c, 11, 57, 0
16, 10560, Note_on_c, 11, 55, 127
16, 10619, Note_on_c, 11, 55, 0
16, 10620, Note_on_c, 11, 54, 127
16, 10679, Note_on_c, 11, 54, 0
16, 10680, Note_on_c, 11, 50, 127
16, 10739, Note_on_c, 11, 50, 0
16, 10860, Note_on_c, 11, 57, 127
16, 10889, Note_on_c, 11, 57, 0
16, 10890, Note_on_c, 11, 61, 127
16, 10919, Note_on_c, 11, 61, 0
16, 10920, Note_on_c, 11, 61, 127
16, 10934, Note_on_c, 11, 61, 0
16, 10935, Note_on_c, 11, 59, 127
16, 10949, Note_on_c, 11, 59, 0
16, 10950, Note_on_c, 11, 57, 127
16, 10964, Note_on_c, 11, 57, 0
16, 10965, Note_on_c, 11, 59, 127
16, 10979, Note_on_c, 11, 59, 0
16, 10980, Note_on_c, 11, 61, 127
16, 11039, Note_on_c, 11, 61, 0
16, 11040, Note_on_c, 11, 64, 127
16, 11099, Note_on_c, 11, 64, 0
16, 11100, Note_on_c, 11, 59, 127
16, 11159, Note_on_c, 11, 59, 0
16, 11160, Note_on_c, 11, 59, 127
16, 11219, Note_on_c, 11, 59, 0
16, 11220, Note_on_c, 11, 59, 127
16, 11279, Note_on_c, 11, 59, 0
16, 11340, Note_on_c, 11, 59, 127
16, 11399, Note_on_c, 11, 59, 0
16, 11400, Note_on_c, 11, 64, 127
16, 11459, Note_on_c, 11, 64, 0
16, 11460, Note_on_c, 11, 67, 127
16, 11519, Note_on_c, 11, 67, 0
16, 11520, Note_on_c, 11, 67, 127
16, 11579, Note_on_c, 11, 67, 0
16, 11580, Note_on_c, 11, 58, 127
16, 11639, Note_on_c, 11, 58, 0
16, 11640, Note_on_c, 11, 59, 127
16, 11699, Note_on_c, 11, 59, 0
16, 11700, Note_on_c, 11, 64, 127
16, 11759, Note_on_c, 11, 64, 0
16, 11760, Note_on_c, 11, 58, 127
16, 11819, Note_on_c, 11, 58, 0
16, 11820, Note_on_c, 11, 58, 127
16, 11879, Note_on_c, 11, 58, 0
16, 11880, Note_on_c, 11, 59, 127
16, 11939, Note_on_c, 11, 59, 0
16, 11940, Note_on_c, 11, 54, 127
16, 11999, Note_on_c, 11, 54, 0
16, 12000, Note_on_c, 11, 61, 127
16, 12059, Note_on_c, 11, 61, 0
16, 12060, Note_on_c, 11, 66, 127
16, 12119, Note_on_c, 11, 66, 0
16, 12120, Note_on_c, 11, 66, 127
16, 12179, Note_on_c, 11, 66, 0
16, 12180, Note_on_c, 11, 62, 127
16, 12299, Note_on_c, 11, 62, 0
16, 12300, Note_on_c, 11, 59, 127
16, 12359, Note_on_c, 11, 59, 0
16, 12360, Note_on_c, 11, 66, 127
16, 12419, Note_on_c, 11, 66, 0
16, 12420, Note_on_c, 11, 59, 127
16, 12479, Note_on_c, 11, 59, 0
16, 12480, Note_on_c, 11, 59, 127
16, 12539, Note_on_c, 11, 59, 0
16, 12540, Note_on_c, 11, 59, 127
16, 12599, Note_on_c, 11, 59, 0
16, 12600, Note_on_c, 11, 59, 127
16, 12659, Note_on_c, 11, 59, 0
16, 12660, Note_on_c, 11, 57, 127
16, 12719, Note_on_c, 11, 57, 0
16, 12720, Note_on_c, 11, 59, 127
16, 12779, Note_on_c, 11, 59, 0
16, 12780, Note_on_c, 11, 64, 127
16, 12899, Note_on_c, 11, 64, 0
16, 12900, Note_on_c, 11, 64, 127
16, 12959, Note_on_c, 11, 64, 0
16, 12960, Note_on_c, 11, 66, 127
16, 13019, Note_on_c, 11, 66, 0
16, 13020, Note_on_c, 11, 57, 127
16, 13079, Note_on_c, 11, 57, 0
16, 13080, Note_on_c, 11, 61, 127
16, 13139, Note_on_c, 11, 61, 0
16, 13140, Note_on_c, 11, 59, 127
16, 13199, Note_on_c, 11, 59, 0
16, 13200, Note_on_c, 11, 59, 127
16, 13259, Note_on_c, 11, 59, 0
16, 13260, Note_on_c, 11, 63, 127
16, 13319, Note_on_c, 11, 63, 0
16, 13320, Note_on_c, 11, 64, 127
16, 13379, Note_on_c, 11, 64, 0
16, 13380, Note_on_c, 11, 64, 127
16, 13439, Note_on_c, 11, 64, 0
16, 13440, Note_on_c, 11, 59, 127
16, 13499, Note_on_c, 11, 59, 0
16, 13500, Note_on_c, 11, 57, 127
16, 13559, Note_on_c, 11, 57, 0
16, 13560, Note_on_c, 11, 57, 127
16, 13619, Note_on_c, 11, 57, 0
16, 13680, Note_on_c, 11, 62, 127
16, 13739, Note_on_c, 11, 62, 0
16, 13740, Note_on_c, 11, 59, 127
16, 13799, Note_on_c, 11, 59, 0
16, 13800, Note_on_c, 11, 64, 127
16, 13859, Note_on_c, 11, 64, 0
16, 13860, Note_on_c, 11, 66, 127
16, 13889, Note_on_c, 11, 66, 0
16, 13890, Note_on_c, 11, 64, 127
16, 13919, Note_on_c, 11, 64, 0
16, 13920, Note_on_c, 11, 62, 127
16, 13949, Note_on_c, 11, 62, 0
16, 13950, Note_on_c, 11, 61, 127
16, 13979, Note_on_c, 11, 61, 0
16, 13980, Note_on_c, 11, 59, 127
16, 14009, Note_on_c, 11, 59, 0
16, 14010, Note_on_c, 11, 57, 127
16, 14039, Note_on_c, 11, 57, 0
16, 14040, Note_on_c, 11, 64, 127
16, 14099, Note_on_c, 11, 64, 0
16, 14100, Note_on_c, 11, 62, 127
16, 14159, Note_on_c, 11, 62, 0
16, 14160, Note_on_c, 11, 62, 127
16, 14219, Note_on_c, 11, 62, 0
16, 14220, Note_on_c, 11, 61, 127
16, 14279, Note_on_c, 11, 61, 0
16, 14280, Note_on_c, 11, 59, 127
16, 14339, Note_on_c, 11, 59, 0
16, 14340, Note_on_c, 11, 64, 127
16, 14399, Note_on_c, 11, 64, 0
16, 14400, Note_on_c, 11, 61, 127
16, 14519, Note_on_c, 11, 61, 0
16, 15840, Note_on_c, 11, 62, 127
16, 15899, Note_on_c, 11, 62, 0
16, 15900, Note_on_c, 11, 62, 127
16, 15959, Note_on_c, 11, 62, 0
16, 15960, Note_on_c, 11, 62, 127
16, 16019, Note_on_c, 11, 62, 0
16, 16020, Note_on_c, 11, 62, 127
16, 16079, Note_on_c, 11, 62, 0
16, 16080, Note_on_c, 11, 57, 127
16, 16139, Note_on_c, 11, 57, 0
16, 16500, Note_on_c, 11, 57, 127
16, 16559, Note_on_c, 11, 57, 0
16, 16560, Note_on_c, 11, 57, 127
16, 16619, Note_on_c, 11, 57, 0
16, 16620, Note_on_c, 11, 62, 127
16, 16649, Note_on_c, 11, 62, 0
16, 16650, Note_on_c, 11, 57, 127
16, 16679, Note_on_c, 11, 57, 0
16, 16680, Note_on_c, 11, 54, 127
16, 16709, Note_on_c, 11, 54, 0
16, 16710, Note_on_c, 11, 50, 127
16, 16739, Note_on_c, 11, 50, 0
16, 16740, Note_on_c, 11, 57, 127
16, 16799, Note_on_c, 11, 57, 0
16, 16800, Note_on_c, 11, 57, 127
16, 16859, Note_on_c, 11, 57, 0
16, 16980, Note_on_c, 11, 66, 127
16, 17039, Note_on_c, 11, 66, 0
16, 17040, Note_on_c, 11, 62, 127
16, 17099, Note_on_c, 11, 62, 0
16, 17220, Note_on_c, 11, 62, 127
16, 17279, Note_on_c, 11, 62, 0
16, 17280, Note_on_c, 11, 62, 127
16, 17339, Note_on_c, 11, 62, 0
16, 17340, Note_on_c, 11, 57, 127
16, 17399, Note_on_c, 11, 57, 0
16, 17640, Note_on_c, 11, 62, 127
16, 17699, Note_on_c, 11, 62, 0
16, 17700, Note_on_c, 11, 62, 127
16, 17759, Note_on_c, 11, 62, 0
16, 17760, Note_on_c, 11, 62, 127
16, 17819, Note_on_c, 11, 62, 0
16, 17820, Note_on_c, 11, 62, 127
16, 17879, Note_on_c, 11, 62, 0
16, 17880, Note_on_c, 11, 61, 127
16, 17909, Note_on_c, 11, 61, 0
16, 17910, Note_on_c, 11, 59, 127
16, 17939, Note_on_c, 11, 59, 0
16, 17940, Note_on_c, 11, 61, 127
16, 17969, Note_on_c, 11, 61, 0
16, 17970, Note_on_c, 11, 62, 127
16, 17999, Note_on_c, 11, 62, 0
16, 18000, Note_on_c, 11, 64, 127
16, 18059, Note_on_c, 11, 64, 0
16, 18060, Note_on_c, 11, 64, 127
16, 18119, Note_on_c, 11, 64, 0
16, 18120, Note_on_c, 11, 64, 127
16, 18179, Note_on_c, 11, 64, 0
16, 18180, Note_on_c, 11, 64, 127
16, 18239, Note_on_c, 11, 64, 0
16, 18240, Note_on_c, 11, 62, 127
16, 18269, Note_on_c, 11, 62, 0
16, 18270, Note_on_c, 11, 61, 127
16, 18299, Note_on_c, 11, 61, 0
16, 18300, Note_on_c, 11, 62, 127
16, 18359, Note_on_c, 11, 62, 0
16, 18360, Note_on_c, 11, 62, 127
16, 18419, Note_on_c, 11, 62, 0
16, 18420, Note_on_c, 11, 62, 127
16, 18479, Note_on_c, 11, 62, 0
16, 18480, Note_on_c, 11, 62, 127
16, 18539, Note_on_c, 11, 62, 0
16, 18540, Note_on_c, 11, 62, 127
16, 18599, Note_on_c, 11, 62, 0
16, 18600, Note_on_c, 11, 62, 127
16, 18659, Note_on_c, 11, 62, 0
16, 18660, Note_on_c, 11, 64, 127
16, 18719, Note_on_c, 11, 64, 0
16, 18720, Note_on_c, 11, 57, 127
16, 18749, Note_on_c, 11, 57, 0
16, 18750, Note_on_c, 11, 59, 127
16, 18779, Note_on_c, 11, 59, 0
16, 18780, Note_on_c, 11, 61, 127
16, 18839, Note_on_c, 11, 61, 0
16, 18840, Note_on_c, 11, 62, 127
16, 18899, Note_on_c, 11, 62, 0
16, 18900, Note_on_c, 11, 64, 127
16, 19019, Note_on_c, 11, 64, 0
16, 19140, Note_on_c, 11, 59, 127
16, 19169, Note_on_c, 11, 59, 0
16, 19170, Note_on_c, 11, 61, 127
16, 19199, Note_on_c, 11, 61, 0
16, 19200, Note_on_c, 11, 62, 127
16, 19214, Note_on_c, 11, 62, 0
16, 19215, Note_on_c, 11, 61, 127
16, 19229, Note_on_c, 11, 61, 0
16, 19230, Note_on_c, 11, 59, 127
16, 19244, Note_on_c, 11, 59, 0
16, 19245, Note_on_c, 11, 61, 127
16, 19259, Note_on_c, 11, 61, 0
16, 19260, Note_on_c, 11, 62, 127
16, 19319, Note_on_c, 11, 62, 0
16, 19320, Note_on_c, 11, 61, 127
16, 19379, Note_on_c, 11, 61, 0
16, 19380, Note_on_c, 11, 59, 127
16, 19439, Note_on_c, 11, 59, 0
16, 19440, Note_on_c, 11, 57, 127
16, 19499, Note_on_c, 11, 57, 0
16, 19500, Note_on_c, 11, 57, 127
16, 19559, Note_on_c, 11, 57, 0
16, 19560, Note_on_c, 11, 69, 127
16, 19619, Note_on_c, 11, 69, 0
16, 19620, Note_on_c, 11, 69, 127
16, 19679, Note_on_c, 11, 69, 0
16, 19680, Note_on_c, 11, 64, 127
16, 19739, Note_on_c, 11, 64, 0
16, 19740, Note_on_c, 11, 59, 127
16, 19799, Note_on_c, 11, 59, 0
16, 19800, Note_on_c, 11, 59, 127
16, 19859, Note_on_c, 11, 59, 0
16, 19860, Note_on_c, 11, 62, 127
16, 19919, Note_on_c, 11, 62, 0
16, 20040, Note_on_c, 11, 62, 127
16, 20069, Note_on_c, 11, 62, 0
16, 20070, Note_on_c, 11, 64, 127
16, 20099, Note_on_c, 11, 64, 0
16, 20100, Note_on_c, 11, 66, 127
16, 20114, Note_on_c, 11, 66, 0
16, 20115, Note_on_c, 11, 64, 127
16, 20129, Note_on_c, 11, 64, 0
16, 20130, Note_on_c, 11, 62, 127
16, 20144, Note_on_c, 11, 62, 0
16, 20145, Note_on_c, 11, 64, 127
16, 20159, Note_on_c, 11, 64, 0
16, 20160, Note_on_c, 11, 66, 127
16, 20219, Note_on_c, 11, 66, 0
16, 20220, Note_on_c, 11, 66, 127
16, 20279, Note_on_c, 11, 66, 0
16, 20280, Note_on_c, 11, 64, 127
16, 20339, Note_on_c, 11, 64, 0
16, 20340, Note_on_c, 11, 64, 127
16, 20399, Note_on_c, 11, 64, 0
16, 20400, Note_on_c, 11, 59, 127
16, 20459, Note_on_c, 11, 59, 0
16, 20460, Note_on_c, 11, 64, 127
16, 20519, Note_on_c, 11, 64, 0
16, 20520, Note_on_c, 11, 57, 127
16, 20579, Note_on_c, 11, 57, 0
16, 20580, Note_on_c, 11, 57, 127
16, 20609, Note_on_c, 11, 57, 0
16, 20610, Note_on_c, 11, 59, 127
16, 20639, Note_on_c, 11, 59, 0
16, 20640, Note_on_c, 11, 61, 127
16, 20654, Note_on_c, 11, 61, 0
16, 20655, Note_on_c, 11, 59, 127
16, 20669, Note_on_c, 11, 59, 0
16, 20670, Note_on_c, 11, 57, 127
16, 20684, Note_on_c, 11, 57, 0
16, 20685, Note_on_c, 11, 59, 127
16, 20699, Note_on_c, 11, 59, 0
16, 20700, Note_on_c, 11, 61, 127
16, 20729, Note_on_c, 11, 61, 0
16, 20730, Note_on_c, 11, 62, 127
16, 20759, Note_on_c, 11, 62, 0
16, 20760, Note_on_c, 11, 64, 127
16, 20819, Note_on_c, 11, 64, 0
16, 20820, Note_on_c, 11, 57, 127
16, 20879, Note_on_c, 11, 57, 0
16, 20940, Note_on_c, 11, 55, 127
16, 20969, Note_on_c, 11, 55, 0
16, 20970, Note_on_c, 11, 57, 127
16, 20999, Note_on_c, 11, 57, 0
16, 21000, Note_on_c, 11, 59, 127
16, 21014, Note_on_c, 11, 59, 0
16, 21015, Note_on_c, 11, 57, 127
16, 21029, Note_on_c, 11, 57, 0
16, 21030, Note_on_c, 11, 55, 127
16, 21044, Note_on_c, 11, 55, 0
16, 21045, Note_on_c, 11, 57, 127
16, 21059, Note_on_c, 11, 57, 0
16, 21060, Note_on_c, 11, 59, 127
16, 21119, Note_on_c, 11, 59, 0
16, 21120, Note_on_c, 11, 59, 127
16, 21179, Note_on_c, 11, 59, 0
16, 21180, Note_on_c, 11, 64, 127
16, 21239, Note_on_c, 11, 64, 0
16, 21240, Note_on_c, 11, 57, 127
16, 21299, Note_on_c, 11, 57, 0
16, 21300, Note_on_c, 11, 62, 127
16, 21329, Note_on_c, 11, 62, 0
16, 21330, Note_on_c, 11, 61, 127
16, 21359, Note_on_c, 11, 61, 0
16, 21360, Note_on_c, 11, 62, 127
16, 21419, Note_on_c, 11, 62, 0
16, 21420, Note_on_c, 11, 64, 127
16, 21479, Note_on_c, 11, 64, 0
16, 21480, Note_on_c, 11, 64, 127
16, 21539, Note_on_c, 11, 64, 0
16, 21540, Note_on_c, 11, 64, 127
16, 21599, Note_on_c, 11, 64, 0
16, 21600, Note_on_c, 11, 66, 127
16, 21659, Note_on_c, 11, 66, 0
16, 21660, Note_on_c, 11, 63, 127
16, 21719, Note_on_c, 11, 63, 0
16, 21720, Note_on_c, 11, 64, 127
16, 21779, Note_on_c, 11, 64, 0
16, 21780, Note_on_c, 11, 66, 127
16, 21839, Note_on_c, 11, 66, 0
16, 21840, Note_on_c, 11, 63, 127
16, 21899, Note_on_c, 11, 63, 0
16, 21900, Note_on_c, 11, 63, 127
16, 21959, Note_on_c, 11, 63, 0
16, 21960, Note_on_c, 11, 64, 127
16, 22019, Note_on_c, 11, 64, 0
16, 22020, Note_on_c, 11, 59, 127
16, 22079, Note_on_c, 11, 59, 0
16, 22080, Note_on_c, 11, 59, 127
16, 22139, Note_on_c, 11, 59, 0
16, 22140, Note_on_c, 11, 59, 127
16, 22199, Note_on_c, 11, 59, 0
16, 22200, Note_on_c, 11, 64, 127
16, 22259, Note_on_c, 11, 64, 0
16, 22260, Note_on_c, 11, 67, 127
16, 22319, Note_on_c, 11, 67, 0
16, 22320, Note_on_c, 11, 67, 127
16, 22379, Note_on_c, 11, 67, 0
16, 22380, Note_on_c, 11, 64, 127
16, 22439, Note_on_c, 11, 64, 0
16, 22440, Note_on_c, 11, 59, 127
16, 22499, Note_on_c, 11, 59, 0
16, 22500, Note_on_c, 11, 64, 127
16, 22559, Note_on_c, 11, 64, 0
16, 22560, Note_on_c, 11, 61, 127
16, 22619, Note_on_c, 11, 61, 0
16, 22620, Note_on_c, 11, 64, 127
16, 22679, Note_on_c, 11, 64, 0
16, 22680, Note_on_c, 11, 64, 127
16, 22739, Note_on_c, 11, 64, 0
16, 22740, Note_on_c, 11, 62, 127
16, 22799, Note_on_c, 11, 62, 0
16, 22800, Note_on_c, 11, 64, 127
16, 22859, Note_on_c, 11, 64, 0
16, 22860, Note_on_c, 11, 57, 127
16, 22979, Note_on_c, 11, 57, 0
16, 22980, Note_on_c, 11, 62, 127
16, 23039, Note_on_c, 11, 62, 0
16, 23040, Note_on_c, 11, 62, 127
16, 23099, Note_on_c, 11, 62, 0
16, 23100, Note_on_c, 11, 59, 127
16, 23159, Note_on_c, 11, 59, 0
16, 23160, Note_on_c, 11, 66, 127
16, 23219, Note_on_c, 11, 66, 0
16, 23220, Note_on_c, 11, 64, 127
16, 23279, Note_on_c, 11, 64, 0
16, 23280, Note_on_c, 11, 59, 127
16, 23339, Note_on_c, 11, 59, 0
16, 23340, Note_on_c, 11, 59, 127
16, 23399, Note_on_c, 11, 59, 0
16, 23400, Note_on_c, 11, 57, 127
16, 23459, Note_on_c, 11, 57, 0
16, 23460, Note_on_c, 11, 57, 127
16, 23519, Note_on_c, 11, 57, 0
16, 23520, Note_on_c, 11, 64, 127
16, 23579, Note_on_c, 11, 64, 0
16, 23580, Note_on_c, 11, 62, 127
16, 23639, Note_on_c, 11, 62, 0
16, 23640, Note_on_c, 11, 57, 127
16, 23699, Note_on_c, 11, 57, 0
16, 23760, Note_on_c, 11, 55, 127
16, 23819, Note_on_c, 11, 55, 0
16, 23820, Note_on_c, 11, 52, 127
16, 23879, Note_on_c, 11, 52, 0
16, 23880, Note_on_c, 11, 57, 127
16, 23939, Note_on_c, 11, 57, 0
16, 23940, Note_on_c, 11, 59, 127
16, 23969, Note_on_c, 11, 59, 0
16, 23970, Note_on_c, 11, 57, 127
16, 23999, Note_on_c, 11, 57, 0
16, 24000, Note_on_c, 11, 55, 127
16, 24029, Note_on_c, 11, 55, 0
16, 24030, Note_on_c, 11, 54, 127
16, 24059, Note_on_c, 11, 54, 0
16, 24060, Note_on_c, 11, 52, 127
16, 24089, Note_on_c, 11, 52, 0
16, 24090, Note_on_c, 11, 50, 127
16, 24119, Note_on_c, 11, 50, 0
16, 24120, Note_on_c, 11, 57, 127
16, 24209, Note_on_c, 11, 57, 0
16, 24210, Note_on_c, 11, 62, 127
16, 24239, Note_on_c, 11, 62, 0
16, 24240, Note_on_c, 11, 61, 127
16, 24299, Note_on_c, 11, 61, 0
16, 24300, Note_on_c, 11, 57, 127
16, 24359, Note_on_c, 11, 57, 0
16, 24360, Note_on_c, 11, 62, 127
16, 24419, Note_on_c, 11, 62, 0
16, 24420, Note_on_c, 11, 64, 127
16, 24479, Note_on_c, 11, 64, 0
16, 24480, Note_on_c, 11, 66, 127
16, 24659, Note_on_c, 11, 66, 0
16, 24660, Note_on_c, 11, 66, 127
16, 24719, Note_on_c, 11, 66, 0
16, 24720, Note_on_c, 11, 64, 127
16, 24749, Note_on_c, 11, 64, 0
16, 24750, Note_on_c, 11, 62, 127
16, 24779, Note_on_c, 11, 62, 0
16, 24780, Note_on_c, 11, 61, 127
16, 24809, Note_on_c, 11, 61, 0
16, 24810, Note_on_c, 11, 59, 127
16, 24839, Note_on_c, 11, 59, 0
16, 24840, Note_on_c, 11, 61, 127
16, 24899, Note_on_c, 11, 61, 0
16, 24900, Note_on_c, 11, 66, 127
16, 24959, Note_on_c, 11, 66, 0
16, 24960, Note_on_c, 11, 66, 127
16, 25019, Note_on_c, 11, 66, 0
16, 25020, Note_on_c, 11, 66, 127
16, 25079, Note_on_c, 11, 66, 0
16, 25080, Note_on_c, 11, 59, 127
16, 25139, Note_on_c, 11, 59, 0
16, 25140, Note_on_c, 11, 64, 127
16, 25199, Note_on_c, 11, 64, 0
16, 25200, Note_on_c, 11, 64, 127
16, 25229, Note_on_c, 11, 64, 0
16, 25230, Note_on_c, 11, 62, 127
16, 25259, Note_on_c, 11, 62, 0
16, 25260, Note_on_c, 11, 64, 127
16, 25289, Note_on_c, 11, 64, 0
16, 25290, Note_on_c, 11, 66, 127
16, 25319, Note_on_c, 11, 66, 0
16, 25320, Note_on_c, 11, 64, 127
16, 25349, Note_on_c, 11, 64, 0
16, 25350, Note_on_c, 11, 66, 127
16, 25379, Note_on_c, 11, 66, 0
16, 25380, Note_on_c, 11, 62, 127
16, 25409, Note_on_c, 11, 62, 0
16, 25410, Note_on_c, 11, 61, 127
16, 25439, Note_on_c, 11, 61, 0
16, 25440, Note_on_c, 11, 59, 127
16, 25499, Note_on_c, 11, 59, 0
16, 25560, Note_on_c, 11, 64, 127
16, 25619, Note_on_c, 11, 64, 0
16, 25620, Note_on_c, 11, 62, 127
16, 25649, Note_on_c, 11, 62, 0
16, 25650, Note_on_c, 11, 61, 127
16, 25679, Note_on_c, 11, 61, 0
16, 25680, Note_on_c, 11, 59, 127
16, 25709, Note_on_c, 11, 59, 0
16, 25710, Note_on_c, 11, 57, 127
16, 25739, Note_on_c, 11, 57, 0
16, 25740, Note_on_c, 11, 56, 127
16, 25799, Note_on_c, 11, 56, 0
16, 25800, Note_on_c, 11, 57, 127
16, 25829, Note_on_c, 11, 57, 0
16, 25830, Note_on_c, 11, 59, 127
16, 25859, Note_on_c, 11, 59, 0
16, 25860, Note_on_c, 11, 61, 127
16, 25889, Note_on_c, 11, 61, 0
16, 25890, Note_on_c, 11, 59, 127
16, 25919, Note_on_c, 11, 59, 0
16, 25920, Note_on_c, 11, 58, 127
16, 25979, Note_on_c, 11, 58, 0
16, 25980, Note_on_c, 11, 59, 127
16, 26039, Note_on_c, 11, 59, 0
16, 26100, Note_on_c, 11, 67, 127
16, 26159, Note_on_c, 11, 67, 0
16, 26160, Note_on_c, 11, 66, 127
16, 26189, Note_on_c, 11, 66, 0
16, 26190, Note_on_c, 11, 64, 127
16, 26219, Note_on_c, 11, 64, 0
16, 26220, Note_on_c, 11, 62, 127
16, 26249, Note_on_c, 11, 62, 0
16, 26250, Note_on_c, 11, 61, 127
16, 26279, Note_on_c, 11, 61, 0
16, 26280, Note_on_c, 11, 59, 127
16, 26339, Note_on_c, 11, 59, 0
16, 26340, Note_on_c, 11, 61, 127
16, 26370, Note_on_c, 11, 61, 0
16, 26370, Note_on_c, 11, 62, 127
16, 26400, Note_on_c, 11, 62, 0
16, 26400, Note_on_c, 11, 64, 127
16, 26519, Note_on_c, 11, 64, 0
16, 26520, Note_on_c, 11, 57, 127
16, 26579, Note_on_c, 11, 57, 0
16, 26820, Note_on_c, 11, 64, 127
16, 26879, Note_on_c, 11, 64, 0
16, 26880, Note_on_c, 11, 62, 127
16, 26909, Note_on_c, 11, 62, 0
16, 26910, Note_on_c, 11, 61, 127
16, 26939, Note_on_c, 11, 61, 0
16, 26940, Note_on_c, 11, 59, 127
16, 26969, Note_on_c, 11, 59, 0
16, 26970, Note_on_c, 11, 57, 127
16, 26999, Note_on_c, 11, 57, 0
16, 27000, Note_on_c, 11, 59, 127
16, 27059, Note_on_c, 11, 59, 0
16, 27060, Note_on_c, 11, 59, 127
16, 27119, Note_on_c, 11, 59, 0
16, 27120, Note_on_c, 11, 64, 127
16, 27179, Note_on_c, 11, 64, 0
16, 27180, Note_on_c, 11, 64, 127
16, 27239, Note_on_c, 11, 64, 0
16, 27240, Note_on_c, 11, 62, 127
16, 27269, Note_on_c, 11, 62, 0
16, 27270, Note_on_c, 11, 61, 127
16, 27299, Note_on_c, 11, 61, 0
16, 27300, Note_on_c, 11, 62, 127
16, 27419, Note_on_c, 11, 62, 0
16, 27420, Note_on_c, 11, 61, 127
16, 27449, Note_on_c, 11, 61, 0
16, 27450, Note_on_c, 11, 59, 127
16, 27479, Note_on_c, 11, 59, 0
16, 27480, Note_on_c, 11, 61, 127
16, 27539, Note_on_c, 11, 61, 0
16, 27540, Note_on_c, 11, 62, 127
16, 27599, Note_on_c, 11, 62, 0
16, 27600, Note_on_c, 11, 57, 127
16, 27659, Note_on_c, 11, 57, 0
16, 27720, Note_on_c, 11, 64, 127
16, 27779, Note_on_c, 11, 64, 0
16, 27780, Note_on_c, 11, 62, 127
16, 27809, Note_on_c, 11, 62, 0
16, 27810, Note_on_c, 11, 61, 127
16, 27839, Note_on_c, 11, 61, 0
16, 27840, Note_on_c, 11, 59, 127
16, 27869, Note_on_c, 11, 59, 0
16, 27870, Note_on_c, 11, 57, 127
16, 27899, Note_on_c, 11, 57, 0
16, 27900, Note_on_c, 11, 62, 127
16, 27929, Note_on_c, 11, 62, 0
16, 27930, Note_on_c, 11, 61, 127
16, 27959, Note_on_c, 11, 61, 0
16, 27960, Note_on_c, 11, 62, 127
16, 28019, Note_on_c, 11, 62, 0
16, 28020, Note_on_c, 11, 62, 127
16, 28079, Note_on_c, 11, 62, 0
16, 28080, Note_on_c, 11, 62, 127
16, 28109, Note_on_c, 11, 62, 0
16, 28110, Note_on_c, 11, 61, 127
16, 28139, Note_on_c, 11, 61, 0
16, 28140, Note_on_c, 11, 59, 127
16, 28169, Note_on_c, 11, 59, 0
16, 28170, Note_on_c, 11, 57, 127
16, 28199, Note_on_c, 11, 57, 0
16, 28200, Note_on_c, 11, 59, 127
16, 28229, Note_on_c, 11, 59, 0
16, 28230, Note_on_c, 11, 61, 127
16, 28259, Note_on_c, 11, 61, 0
16, 28260, Note_on_c, 11, 62, 127
16, 28499, Note_on_c, 11, 62, 0
16, 28500, Note_on_c, 11, 64, 127
16, 28559, Note_on_c, 11, 64, 0
16, 28560, Note_on_c, 11, 67, 127
16, 28619, Note_on_c, 11, 67, 0
16, 28620, Note_on_c, 11, 66, 127
16, 28649, Note_on_c, 11, 66, 0
16, 28650, Note_on_c, 11, 67, 127
16, 28679, Note_on_c, 11, 67, 0
16, 28680, Note_on_c, 11, 66, 127
16, 28709, Note_on_c, 11, 66, 0
16, 28710, Note_on_c, 11, 64, 127
16, 28739, Note_on_c, 11, 64, 0
16, 28740, Note_on_c, 11, 62, 127
16, 28769, Note_on_c, 11, 62, 0
16, 28770, Note_on_c, 11, 66, 127
16, 28799, Note_on_c, 11, 66, 0
16, 28800, Note_on_c, 11, 64, 127
16, 28829, Note_on_c, 11, 64, 0
16, 28830, Note_on_c, 11, 66, 127
16, 28859, Note_on_c, 11, 66, 0
16, 28860, Note_on_c, 11, 64, 127
16, 28889, Note_on_c, 11, 64, 0
16, 28890, Note_on_c, 11, 62, 127
16, 28919, Note_on_c, 11, 62, 0
16, 28920, Note_on_c, 11, 61, 127
16, 29039, Note_on_c, 11, 61, 0
16, 29040, Note_on_c, 11, 59, 127
16, 29069, Note_on_c, 11, 59, 0
16, 29070, Note_on_c, 11, 58, 127
16, 29099, Note_on_c, 11, 58, 0
16, 29100, Note_on_c, 11, 59, 127
16, 29159, Note_on_c, 11, 59, 0
16, 29160, Note_on_c, 11, 64, 127
16, 29189, Note_on_c, 11, 64, 0
16, 29190, Note_on_c, 11, 62, 127
16, 29219, Note_on_c, 11, 62, 0
16, 29220, Note_on_c, 11, 61, 127
16, 29249, Note_on_c, 11, 61, 0
16, 29250, Note_on_c, 11, 59, 127
16, 29279, Note_on_c, 11, 59, 0
16, 29280, Note_on_c, 11, 61, 127
16, 29309, Note_on_c, 11, 61, 0
16, 29310, Note_on_c, 11, 58, 127
16, 29339, Note_on_c, 11, 58, 0
16, 29340, Note_on_c, 11, 59, 127
16, 29399, Note_on_c, 11, 59, 0
16, 29400, Note_on_c, 11, 59, 127
16, 29459, Note_on_c, 11, 59, 0
16, 29520, Note_on_c, 11, 61, 127
16, 29579, Note_on_c, 11, 61, 0
16, 29580, Note_on_c, 11, 62, 127
16, 29609, Note_on_c, 11, 62, 0
16, 29610, Note_on_c, 11, 61, 127
16, 29639, Note_on_c, 11, 61, 0
16, 29640, Note_on_c, 11, 59, 127
16, 29669, Note_on_c, 11, 59, 0
16, 29670, Note_on_c, 11, 58, 127
16, 29699, Note_on_c, 11, 58, 0
16, 29700, Note_on_c, 11, 59, 127
16, 29759, Note_on_c, 11, 59, 0
16, 29760, Note_on_c, 11, 66, 127
16, 29789, Note_on_c, 11, 66, 0
16, 29790, Note_on_c, 11, 67, 127
16, 29819, Note_on_c, 11, 67, 0
16, 29820, Note_on_c, 11, 66, 127
16, 29849, Note_on_c, 11, 66, 0
16, 29850, Note_on_c, 11, 64, 127
16, 29879, Note_on_c, 11, 64, 0
16, 29880, Note_on_c, 11, 62, 127
16, 29909, Note_on_c, 11, 62, 0
16, 29910, Note_on_c, 11, 64, 127
16, 29939, Note_on_c, 11, 64, 0
16, 29940, Note_on_c, 11, 61, 127
16, 29969, Note_on_c, 11, 61, 0
16, 29970, Note_on_c, 11, 64, 127
16, 29999, Note_on_c, 11, 64, 0
16, 30000, Note_on_c, 11, 62, 127
16, 30029, Note_on_c, 11, 62, 0
16, 30030, Note_on_c, 11, 61, 127
16, 30059, Note_on_c, 11, 61, 0
16, 30060, Note_on_c, 11, 59, 127
16, 30119, Note_on_c, 11, 59, 0
16, 30120, Note_on_c, 11, 61, 127
16, 30179, Note_on_c, 11, 61, 0
16, 30180, Note_on_c, 11, 59, 127
16, 30239, Note_on_c, 11, 59, 0
16, 30240, Note_on_c, 11, 62, 127
16, 30299, Note_on_c, 11, 62, 0
16, 30300, Note_on_c, 11, 64, 127
16, 30359, Note_on_c, 11, 64, 0
16, 30360, Note_on_c, 11, 61, 127
16, 30419, Note_on_c, 11, 61, 0
16, 30420, Note_on_c, 11, 62, 127
16, 30479, Note_on_c, 11, 62, 0
16, 30480, Note_on_c, 11, 62, 127
16, 30539, Note_on_c, 11, 62, 0
16, 33300, Note_on_c, 11, 66, 127
16, 33359, Note_on_c, 11, 66, 0
16, 33360, Note_on_c, 11, 62, 127
16, 33419, Note_on_c, 11, 62, 0
16, 33420, Note_on_c, 11, 66, 127
16, 33479, Note_on_c, 11, 66, 0
16, 33480, Note_on_c, 11, 64, 127
16, 33539, Note_on_c, 11, 64, 0
16, 33540, Note_on_c, 11, 56, 127
16, 33599, Note_on_c, 11, 56, 0
16, 33600, Note_on_c, 11, 56, 127
16, 33659, Note_on_c, 11, 56, 0
16, 33660, Note_on_c, 11, 64, 127
16, 33719, Note_on_c, 11, 64, 0
16, 33720, Note_on_c, 11, 64, 127
16, 33779, Note_on_c, 11, 64, 0
16, 33780, Note_on_c, 11, 64, 127
16, 33839, Note_on_c, 11, 64, 0
16, 33840, Note_on_c, 11, 64, 127
16, 33899, Note_on_c, 11, 64, 0
16, 33900, Note_on_c, 11, 64, 127
16, 33959, Note_on_c, 11, 64, 0
16, 34020, Note_on_c, 11, 64, 127
16, 34079, Note_on_c, 11, 64, 0
16, 34080, Note_on_c, 11, 64, 127
16, 34139, Note_on_c, 11, 64, 0
16, 34140, Note_on_c, 11, 64, 127
16, 34199, Note_on_c, 11, 64, 0
16, 34200, Note_on_c, 11, 64, 127
16, 34259, Note_on_c, 11, 64, 0
16, 34260, Note_on_c, 11, 64, 127
16, 34319, Note_on_c, 11, 64, 0
16, 34320, Note_on_c, 11, 64, 127
16, 34379, Note_on_c, 11, 64, 0
16, 34380, Note_on_c, 11, 66, 127
16, 34439, Note_on_c, 11, 66, 0
16, 34440, Note_on_c, 11, 57, 127
16, 34499, Note_on_c, 11, 57, 0
16, 34500, Note_on_c, 11, 57, 127
16, 34559, Note_on_c, 11, 57, 0
16, 34560, Note_on_c, 11, 57, 127
16, 34619, Note_on_c, 11, 57, 0
16, 34620, Note_on_c, 11, 66, 127
16, 34679, Note_on_c, 11, 66, 0
16, 34680, Note_on_c, 11, 64, 127
16, 34739, Note_on_c, 11, 64, 0
16, 34740, Note_on_c, 11, 62, 127
16, 34769, Note_on_c, 11, 62, 0
16, 34770, Note_on_c, 11, 61, 127
16, 34799, Note_on_c, 11, 61, 0
16, 34800, Note_on_c, 11, 59, 127
16, 34829, Note_on_c, 11, 59, 0
16, 34830, Note_on_c, 11, 61, 127
16, 34859, Note_on_c, 11, 61, 0
16, 34860, Note_on_c, 11, 62, 127
16, 34919, Note_on_c, 11, 62, 0
16, 34920, Note_on_c, 11, 64, 127
16, 34949, Note_on_c, 11, 64, 0
16, 34950, Note_on_c, 11, 66, 127
16, 34979, Note_on_c, 11, 66, 0
16, 34980, Note_on_c, 11, 67, 127
16, 35009, Note_on_c, 11, 67, 0
16, 35010, Note_on_c, 11, 66, 127
16, 35039, Note_on_c, 11, 66, 0
16, 35040, Note_on_c, 11, 64, 127
16, 35069, Note_on_c, 11, 64, 0
16, 35070, Note_on_c, 11, 67, 127
16, 35099, Note_on_c, 11, 67, 0
16, 35100, Note_on_c, 11, 66, 127
16, 35159, Note_on_c, 11, 66, 0
16, 35160, Note_on_c, 11, 54, 127
16, 35219, Note_on_c, 11, 54, 0
16, 35220, Note_on_c, 11, 61, 127
16, 35279, Note_on_c, 11, 61, 0
16, 35280, Note_on_c, 11, 59, 127
16, 35339, Note_on_c, 11, 59, 0
16, 35340, Note_on_c, 11, 56, 127
16, 35399, Note_on_c, 11, 56, 0
16, 35400, Note_on_c, 11, 61, 127
16, 35459, Note_on_c, 11, 61, 0
16, 35460, Note_on_c, 11, 65, 127
16, 35519, Note_on_c, 11, 65, 0
16, 35520, Note_on_c, 11, 66, 127
16, 35579, Note_on_c, 11, 66, 0
16, 35580, Note_on_c, 11, 62, 127
16, 35639, Note_on_c, 11, 62, 0
16, 35640, Note_on_c, 11, 61, 127
16, 35699, Note_on_c, 11, 61, 0
16, 35700, Note_on_c, 11, 59, 127
16, 35759, Note_on_c, 11, 59, 0
16, 35760, Note_on_c, 11, 61, 127
16, 35819, Note_on_c, 11, 61, 0
16, 35820, Note_on_c, 11, 61, 127
16, 35879, Note_on_c, 11, 61, 0
16, 35880, Note_on_c, 11, 61, 127
16, 35939, Note_on_c, 11, 61, 0
16, 35940, Note_on_c, 11, 61, 127
16, 35999, Note_on_c, 11, 61, 0
16, 36000, Note_on_c, 11, 57, 127
16, 36119, Note_on_c, 11, 57, 0
16, 36120, Note_on_c, 11, 57, 127
16, 36179, Note_on_c, 11, 57, 0
16, 42060, Note_on_c, 11, 62, 127
16, 42119, Note_on_c, 11, 62, 0
16, 42120, Note_on_c, 11, 62, 127
16, 42179, Note_on_c, 11, 62, 0
16, 42180, Note_on_c, 11, 62, 127
16, 42239, Note_on_c, 11, 62, 0
16, 42240, Note_on_c, 11, 62, 127
16, 42299, Note_on_c, 11, 62, 0
16, 42300, Note_on_c, 11, 57, 127
16, 42359, Note_on_c, 11, 57, 0
16, 42720, Note_on_c, 11, 57, 127
16, 42779, Note_on_c, 11, 57, 0
16, 42780, Note_on_c, 11, 57, 127
16, 42839, Note_on_c, 11, 57, 0
16, 42840, Note_on_c, 11, 62, 127
16, 42869, Note_on_c, 11, 62, 0
16, 42870, Note_on_c, 11, 57, 127
16, 42899, Note_on_c, 11, 57, 0
16, 42900, Note_on_c, 11, 54, 127
16, 42929, Note_on_c, 11, 54, 0
16, 42930, Note_on_c, 11, 50, 127
16, 42959, Note_on_c, 11, 50, 0
16, 42960, Note_on_c, 11, 57, 127
16, 43019, Note_on_c, 11, 57, 0
16, 43020, Note_on_c, 11, 57, 127
16, 43079, Note_on_c, 11, 57, 0
16, 43200, Note_on_c, 11, 66, 127
16, 43259, Note_on_c, 11, 66, 0
16, 43260, Note_on_c, 11, 62, 127
16, 43319, Note_on_c, 11, 62, 0
16, 43440, Note_on_c, 11, 62, 127
16, 43499, Note_on_c, 11, 62, 0
16, 43500, Note_on_c, 11, 62, 127
16, 43559, Note_on_c, 11, 62, 0
16, 43560, Note_on_c, 11, 57, 127
16, 43619, Note_on_c, 11, 57, 0
16, 43860, Note_on_c, 11, 62, 127
16, 43919, Note_on_c, 11, 62, 0
16, 43920, Note_on_c, 11, 62, 127
16, 43979, Note_on_c, 11, 62, 0
16, 43980, Note_on_c, 11, 62, 127
16, 44039, Note_on_c, 11, 62, 0
16, 44040, Note_on_c, 11, 62, 127
16, 44099, Note_on_c, 11, 62, 0
16, 44100, Note_on_c, 11, 61, 127
16, 44129, Note_on_c, 11, 61, 0
16, 44130, Note_on_c, 11, 59, 127
16, 44159, Note_on_c, 11, 59, 0
16, 44160, Note_on_c, 11, 61, 127
16, 44189, Note_on_c, 11, 61, 0
16, 44190, Note_on_c, 11, 62, 127
16, 44219, Note_on_c, 11, 62, 0
16, 44220, Note_on_c, 11, 64, 127
16, 44279, Note_on_c, 11, 64, 0
16, 44280, Note_on_c, 11, 64, 127
16, 44339, Note_on_c, 11, 64, 0
16, 44340, Note_on_c, 11, 64, 127
16, 44399, Note_on_c, 11, 64, 0
16, 44400, Note_on_c, 11, 64, 127
16, 44459, Note_on_c, 11, 64, 0
16, 44460, Note_on_c, 11, 62, 127
16, 44489, Note_on_c, 11, 62, 0
16, 44490, Note_on_c, 11, 61, 127
16, 44519, Note_on_c, 11, 61, 0
16, 44520, Note_on_c, 11, 62, 127
16, 44579, Note_on_c, 11, 62, 0
16, 44580, Note_on_c, 11, 62, 127
16, 44639, Note_on_c, 11, 62, 0
16, 44640, Note_on_c, 11, 62, 127
16, 44699, Note_on_c, 11, 62, 0
16, 44700, Note_on_c, 11, 62, 127
16, 44759, Note_on_c, 11, 62, 0
16, 44760, Note_on_c, 11, 62, 127
16, 44819, Note_on_c, 11, 62, 0
16, 44820, Note_on_c, 11, 62, 127
16, 44879, Note_on_c, 11, 62, 0
16, 44880, Note_on_c, 11, 64, 127
16, 44939, Note_on_c, 11, 64, 0
16, 44940, Note_on_c, 11, 57, 127
16, 44969, Note_on_c, 11, 57, 0
16, 44970, Note_on_c, 11, 59, 127
16, 44999, Note_on_c, 11, 59, 0
16, 45000, Note_on_c, 11, 61, 127
16, 45059, Note_on_c, 11, 61, 0
16, 45060, Note_on_c, 11, 62, 127
16, 45119, Note_on_c, 11, 62, 0
16, 45120, Note_on_c, 11, 64, 127
16, 45179, Note_on_c, 11, 64, 0
16, 45180, Note_on_c, 11, 57, 127
16, 45209, Note_on_c, 11, 57, 0
16, 45210, Note_on_c, 11, 59, 127
16, 45239, Note_on_c, 11, 59, 0
16, 45240, Note_on_c, 11, 61, 127
16, 45254, Note_on_c, 11, 61, 0
16, 45255, Note_on_c, 11, 59, 127
16, 45269, Note_on_c, 11, 59, 0
16, 45270, Note_on_c, 11, 57, 127
16, 45284, Note_on_c, 11, 57, 0
16, 45285, Note_on_c, 11, 59, 127
16, 45299, Note_on_c, 11, 59, 0
16, 45300, Note_on_c, 11, 61, 127
16, 45359, Note_on_c, 11, 61, 0
16, 45360, Note_on_c, 11, 61, 127
16, 45419, Note_on_c, 11, 61, 0
16, 45420, Note_on_c, 11, 63, 127
16, 45479, Note_on_c, 11, 63, 0
16, 45480, Note_on_c, 11, 64, 127
16, 45539, Note_on_c, 11, 64, 0
16, 45540, Note_on_c, 11, 64, 127
16, 45599, Note_on_c, 11, 64, 0
16, 45600, Note_on_c, 11, 62, 127
16, 45659, Note_on_c, 11, 62, 0
16, 45660, Note_on_c, 11, 62, 127
16, 45719, Note_on_c, 11, 62, 0
16, 45720, Note_on_c, 11, 67, 127
16, 45779, Note_on_c, 11, 67, 0
16, 45780, Note_on_c, 11, 67, 127
16, 45839, Note_on_c, 11, 67, 0
16, 45840, Note_on_c, 11, 66, 127
16, 45899, Note_on_c, 11, 66, 0
16, 45900, Note_on_c, 11, 66, 127
16, 45959, Note_on_c, 11, 66, 0
16, 46080, Note_on_c, 11, 57, 127
16, 46109, Note_on_c, 11, 57, 0
16, 46110, Note_on_c, 11, 59, 127
16, 46139, Note_on_c, 11, 59, 0
16, 46140, Note_on_c, 11, 61, 127
16, 46154, Note_on_c, 11, 61, 0
16, 46155, Note_on_c, 11, 59, 127
16, 46169, Note_on_c, 11, 59, 0
16, 46170, Note_on_c, 11, 57, 127
16, 46184, Note_on_c, 11, 57, 0
16, 46185, Note_on_c, 11, 59, 127
16, 46199, Note_on_c, 11, 59, 0
16, 46200, Note_on_c, 11, 61, 127
16, 46259, Note_on_c, 11, 61, 0
16, 46260, Note_on_c, 11, 64, 127
16, 46319, Note_on_c, 11, 64, 0
16, 46320, Note_on_c, 11, 68, 127
16, 46379, Note_on_c, 11, 68, 0
16, 46380, Note_on_c, 11, 69, 127
16, 46439, Note_on_c, 11, 69, 0
16, 46440, Note_on_c, 11, 57, 127
16, 46499, Note_on_c, 11, 57, 0
16, 46500, Note_on_c, 11, 69, 127
16, 46559, Note_on_c, 11, 69, 0
16, 46560, Note_on_c, 11, 67, 127
16, 46619, Note_on_c, 11, 67, 0
16, 46620, Note_on_c, 11, 60, 127
16, 46679, Note_on_c, 11, 60, 0
16, 46680, Note_on_c, 11, 60, 127
16, 46739, Note_on_c, 11, 60, 0
16, 46740, Note_on_c, 11, 59, 127
16, 46799, Note_on_c, 11, 59, 0
16, 46800, Note_on_c, 11, 57, 127
16, 46859, Note_on_c, 11, 57, 0
16, 46860, Note_on_c, 11, 55, 127
16, 46919, Note_on_c, 11, 55, 0
16, 46920, Note_on_c, 11, 54, 127
16, 46979, Note_on_c, 11, 54, 0
16, 46980, Note_on_c, 11, 50, 127
16, 47039, Note_on_c, 11, 50, 0
16, 47160, Note_on_c, 11, 57, 127
16, 47189, Note_on_c, 11, 57, 0
16, 47190, Note_on_c, 11, 61, 127
16, 47219, Note_on_c, 11, 61, 0
16, 47220, Note_on_c, 11, 61, 127
16, 47234, Note_on_c, 11, 61, 0
16, 47235, Note_on_c, 11, 59, 127
16, 47249, Note_on_c, 11, 59, 0
16, 47250, Note_on_c, 11, 57, 127
16, 47264, Note_on_c, 11, 57, 0
16, 47265, Note_on_c, 11, 59, 127
16, 47279, Note_on_c, 11, 59, 0
16, 47280, Note_on_c, 11, 61, 127
16, 47339, Note_on_c, 11, 61, 0
16, 47340, Note_on_c, 11, 64, 127
16, 47399, Note_on_c, 11, 64, 0
16, 47400, Note_on_c, 11, 59, 127
16, 47459, Note_on_c, 11, 59, 0
16, 47460, Note_on_c, 11, 59, 127
16, 47519, Note_on_c, 11, 59, 0
16, 47520, Note_on_c, 11, 59, 127
16, 47579, Note_on_c, 11, 59, 0
16, 47640, Note_on_c, 11, 59, 127
16, 47699, Note_on_c, 11, 59, 0
16, 47700, Note_on_c, 11, 64, 127
16, 47759, Note_on_c, 11, 64, 0
16, 47760, Note_on_c, 11, 67, 127
16, 47819, Note_on_c, 11, 67, 0
16, 47820, Note_on_c, 11, 67, 127
16, 47879, Note_on_c, 11, 67, 0
16, 47880, Note_on_c, 11, 58, 127
16, 47939, Note_on_c, 11, 58, 0
16, 47940, Note_on_c, 11, 59, 127
16, 47999, Note_on_c, 11, 59, 0
16, 48000, Note_on_c, 11, 64, 127
16, 48059, Note_on_c, 11, 64, 0
16, 48060, Note_on_c, 11, 58, 127
16, 48119, Note_on_c, 11, 58, 0
16, 48120, Note_on_c, 11, 58, 127
16, 48179, Note_on_c, 11, 58, 0
16, 48180, Note_on_c, 11, 59, 127
16, 48239, Note_on_c, 11, 59, 0
16, 48240, Note_on_c, 11, 54, 127
16, 48299, Note_on_c, 11, 54, 0
16, 48300, Note_on_c, 11, 61, 127
16, 48359, Note_on_c, 11, 61, 0
16, 48360, Note_on_c, 11, 66, 127
16, 48419, Note_on_c, 11, 66, 0
16, 48420, Note_on_c, 11, 66, 127
16, 48479, Note_on_c, 11, 66, 0
16, 48480, Note_on_c, 11, 62, 127
16, 48599, Note_on_c, 11, 62, 0
16, 48600, Note_on_c, 11, 59, 127
16, 48659, Note_on_c, 11, 59, 0
16, 48660, Note_on_c, 11, 66, 127
16, 48719, Note_on_c, 11, 66, 0
16, 48720, Note_on_c, 11, 59, 127
16, 48779, Note_on_c, 11, 59, 0
16, 48780, Note_on_c, 11, 59, 127
16, 48839, Note_on_c, 11, 59, 0
16, 48840, Note_on_c, 11, 59, 127
16, 48899, Note_on_c, 11, 59, 0
16, 48900, Note_on_c, 11, 59, 127
16, 48959, Note_on_c, 11, 59, 0
16, 48960, Note_on_c, 11, 57, 127
16, 49019, Note_on_c, 11, 57, 0
16, 49020, Note_on_c, 11, 59, 127
16, 49079, Note_on_c, 11, 59, 0
16, 49080, Note_on_c, 11, 64, 127
16, 49199, Note_on_c, 11, 64, 0
16, 49200, Note_on_c, 11, 64, 127
16, 49259, Note_on_c, 11, 64, 0
16, 49260, Note_on_c, 11, 66, 127
16, 49319, Note_on_c, 11, 66, 0
16, 49320, Note_on_c, 11, 57, 127
16, 49379, Note_on_c, 11, 57, 0
16, 49380, Note_on_c, 11, 61, 127
16, 49439, Note_on_c, 11, 61, 0
16, 49440, Note_on_c, 11, 59, 127
16, 49499, Note_on_c, 11, 59, 0
16, 49500, Note_on_c, 11, 59, 127
16, 49559, Note_on_c, 11, 59, 0
16, 49560, Note_on_c, 11, 63, 127
16, 49619, Note_on_c, 11, 63, 0
16, 49620, Note_on_c, 11, 64, 127
16, 49679, Note_on_c, 11, 64, 0
16, 49680, Note_on_c, 11, 64, 127
16, 49739, Note_on_c, 11, 64, 0
16, 49740, Note_on_c, 11, 59, 127
16, 49799, Note_on_c, 11, 59, 0
16, 49800, Note_on_c, 11, 57, 127
16, 49859, Note_on_c, 11, 57, 0
16, 49860, Note_on_c, 11, 57, 127
16, 49919, Note_on_c, 11, 57, 0
16, 49980, Note_on_c, 11, 62, 127
16, 50039, Note_on_c, 11, 62, 0
16, 50040, Note_on_c, 11, 59, 127
16, 50099, Note_on_c, 11, 59, 0
16, 50100, Note_on_c, 11, 64, 127
16, 50159, Note_on_c, 11, 64, 0
16, 50160, Note_on_c, 11, 66, 127
16, 50189, Note_on_c, 11, 66, 0
16, 50190, Note_on_c, 11, 64, 127
16, 50219, Note_on_c, 11, 64, 0
16, 50220, Note_on_c, 11, 62, 127
16, 50249, Note_on_c, 11, 62, 0
16, 50250, Note_on_c, 11, 61, 127
16, 50279, Note_on_c, 11, 61, 0
16, 50280, Note_on_c, 11, 59, 127
16, 50309, Note_on_c, 11, 59, 0
16, 50310, Note_on_c, 11, 57, 127
16, 50339, Note_on_c, 11, 57, 0
16, 50340, Note_on_c, 11, 64, 127
16, 50399, Note_on_c, 11, 64, 0
16, 50400, Note_on_c, 11, 62, 127
16, 50459, Note_on_c, 11, 62, 0
16, 50460, Note_on_c, 11, 62, 127
16, 50519, Note_on_c, 11, 62, 0
16, 50520, Note_on_c, 11, 61, 127
16, 50579, Note_on_c, 11, 61, 0
16, 50580, Note_on_c, 11, 59, 127
16, 50639, Note_on_c, 11, 59, 0
16, 50640, Note_on_c, 11, 64, 127
16, 50699, Note_on_c, 11, 64, 0
16, 50700, Note_on_c, 11, 61, 127
16, 50819, Note_on_c, 11, 61, 0
16, 52140, Note_on_c, 11, 62, 127
16, 52199, Note_on_c, 11, 62, 0
16, 52200, Note_on_c, 11, 62, 127
16, 52259, Note_on_c, 11, 62, 0
16, 52260, Note_on_c, 11, 62, 127
16, 52319, Note_on_c, 11, 62, 0
16, 52320, Note_on_c, 11, 62, 127
16, 52379, Note_on_c, 11, 62, 0
16, 52380, Note_on_c, 11, 57, 127
16, 52439, Note_on_c, 11, 57, 0
16, 52800, Note_on_c, 11, 57, 127
16, 52859, Note_on_c, 11, 57, 0
16, 52860, Note_on_c, 11, 57, 127
16, 52919, Note_on_c, 11, 57, 0
16, 52920, Note_on_c, 11, 62, 127
16, 52949, Note_on_c, 11, 62, 0
16, 52950, Note_on_c, 11, 57, 127
16, 52979, Note_on_c, 11, 57, 0
16, 52980, Note_on_c, 11, 54, 127
16, 53009, Note_on_c, 11, 54, 0
16, 53010, Note_on_c, 11, 50, 127
16, 53039, Note_on_c, 11, 50, 0
16, 53040, Note_on_c, 11, 57, 127
16, 53099, Note_on_c, 11, 57, 0
16, 53100, Note_on_c, 11, 57, 127
16, 53159, Note_on_c, 11, 57, 0
16, 53280, Note_on_c, 11, 66, 127
16, 53339, Note_on_c, 11, 66, 0
16, 53340, Note_on_c, 11, 62, 127
16, 53399, Note_on_c, 11, 62, 0
16, 53520, Note_on_c, 11, 62, 127
16, 53579, Note_on_c, 11, 62, 0
16, 53580, Note_on_c, 11, 62, 127
16, 53639, Note_on_c, 11, 62, 0
16, 53640, Note_on_c, 11, 57, 127
16, 53699, Note_on_c, 11, 57, 0
16, 53940, Note_on_c, 11, 62, 127
16, 53999, Note_on_c, 11, 62, 0
16, 54000, Note_on_c, 11, 62, 127
16, 54059, Note_on_c, 11, 62, 0
16, 54060, Note_on_c, 11, 62, 127
16, 54119, Note_on_c, 11, 62, 0
16, 54120, Note_on_c, 11, 62, 127
16, 54179, Note_on_c, 11, 62, 0
16, 54180, Note_on_c, 11, 61, 127
16, 54209, Note_on_c, 11, 61, 0
16, 54210, Note_on_c, 11, 59, 127
16, 54239, Note_on_c, 11, 59, 0
16, 54240, Note_on_c, 11, 61, 127
16, 54269, Note_on_c, 11, 61, 0
16, 54270, Note_on_c, 11, 62, 127
16, 54299, Note_on_c, 11, 62, 0
16, 54300, Note_on_c, 11, 64, 127
16, 54359, Note_on_c, 11, 64, 0
16, 54360, Note_on_c, 11, 64, 127
16, 54419, Note_on_c, 11, 64, 0
16, 54420, Note_on_c, 11, 64, 127
16, 54479, Note_on_c, 11, 64, 0
16, 54480, Note_on_c, 11, 64, 127
16, 54539, Note_on_c, 11, 64, 0
16, 54540, Note_on_c, 11, 62, 127
16, 54569, Note_on_c, 11, 62, 0
16, 54570, Note_on_c, 11, 61, 127
16, 54599, Note_on_c, 11, 61, 0
16, 54600, Note_on_c, 11, 62, 127
16, 54659, Note_on_c, 11, 62, 0
16, 54660, Note_on_c, 11, 62, 127
16, 54719, Note_on_c, 11, 62, 0
16, 54720, Note_on_c, 11, 62, 127
16, 54779, Note_on_c, 11, 62, 0
16, 54780, Note_on_c, 11, 62, 127
16, 54839, Note_on_c, 11, 62, 0
16, 54840, Note_on_c, 11, 62, 127
16, 54899, Note_on_c, 11, 62, 0
16, 54900, Note_on_c, 11, 62, 127
16, 54959, Note_on_c, 11, 62, 0
16, 54960, Note_on_c, 11, 64, 127
16, 55019, Note_on_c, 11, 64, 0
16, 55020, Note_on_c, 11, 57, 127
16, 55049, Note_on_c, 11, 57, 0
16, 55050, Note_on_c, 11, 59, 127
16, 55079, Note_on_c, 11, 59, 0
16, 55080, Note_on_c, 11, 61, 127
16, 55139, Note_on_c, 11, 61, 0
16, 55140, Note_on_c, 11, 62, 127
16, 55199, Note_on_c, 11, 62, 0
16, 55200, Note_on_c, 11, 64, 127
16, 55319, Note_on_c, 11, 64, 0
16, 55440, Note_on_c, 11, 59, 127
16, 55469, Note_on_c, 11, 59, 0
16, 55470, Note_on_c, 11, 61, 127
16, 55499, Note_on_c, 11, 61, 0
16, 55500, Note_on_c, 11, 62, 127
16, 55514, Note_on_c, 11, 62, 0
16, 55515, Note_on_c, 11, 61, 127
16, 55529, Note_on_c, 11, 61, 0
16, 55530, Note_on_c, 11, 59, 127
16, 55544, Note_on_c, 11, 59, 0
16, 55545, Note_on_c, 11, 61, 127
16, 55559, Note_on_c, 11, 61, 0
16, 55560, Note_on_c, 11, 62, 127
16, 55619, Note_on_c, 11, 62, 0
16, 55620, Note_on_c, 11, 61, 127
16, 55679, Note_on_c, 11, 61, 0
16, 55680, Note_on_c, 11, 59, 127
16, 55739, Note_on_c, 11, 59, 0
16, 55740, Note_on_c, 11, 57, 127
16, 55799, Note_on_c, 11, 57, 0
16, 55800, Note_on_c, 11, 57, 127
16, 55859, Note_on_c, 11, 57, 0
16, 55860, Note_on_c, 11, 69, 127
16, 55919, Note_on_c, 11, 69, 0
16, 55920, Note_on_c, 11, 69, 127
16, 55979, Note_on_c, 11, 69, 0
16, 55980, Note_on_c, 11, 64, 127
16, 56039, Note_on_c, 11, 64, 0
16, 56040, Note_on_c, 11, 59, 127
16, 56099, Note_on_c, 11, 59, 0
16, 56100, Note_on_c, 11, 59, 127
16, 56159, Note_on_c, 11, 59, 0
16, 56160, Note_on_c, 11, 62, 127
16, 56219, Note_on_c, 11, 62, 0
16, 56340, Note_on_c, 11, 62, 127
16, 56369, Note_on_c, 11, 62, 0
16, 56370, Note_on_c, 11, 64, 127
16, 56399, Note_on_c, 11, 64, 0
16, 56400, Note_on_c, 11, 66, 127
16, 56414, Note_on_c, 11, 66, 0
16, 56415, Note_on_c, 11, 64, 127
16, 56429, Note_on_c, 11, 64, 0
16, 56430, Note_on_c, 11, 62, 127
16, 56444, Note_on_c, 11, 62, 0
16, 56445, Note_on_c, 11, 64, 127
16, 56459, Note_on_c, 11, 64, 0
16, 56460, Note_on_c, 11, 66, 127
16, 56519, Note_on_c, 11, 66, 0
16, 56520, Note_on_c, 11, 66, 127
16, 56579, Note_on_c, 11, 66, 0
16, 56580, Note_on_c, 11, 64, 127
16, 56639, Note_on_c, 11, 64, 0
16, 56640, Note_on_c, 11, 64, 127
16, 56699, Note_on_c, 11, 64, 0
16, 56700, Note_on_c, 11, 59, 127
16, 56759, Note_on_c, 11, 59, 0
16, 56760, Note_on_c, 11, 64, 127
16, 56819, Note_on_c, 11, 64, 0
16, 56820, Note_on_c, 11, 57, 127
16, 56879, Note_on_c, 11, 57, 0
16, 56880, Note_on_c, 11, 57, 127
16, 56909, Note_on_c, 11, 57, 0
16, 56910, Note_on_c, 11, 59, 127
16, 56939, Note_on_c, 11, 59, 0
16, 56940, Note_on_c, 11, 61, 127
16, 56954, Note_on_c, 11, 61, 0
16, 56955, Note_on_c, 11, 59, 127
16, 56969, Note_on_c, 11, 59, 0
16, 56970, Note_on_c, 11, 57, 127
16, 56984, Note_on_c, 11, 57, 0
16, 56985, Note_on_c, 11, 59, 127
16, 56999, Note_on_c, 11, 59, 0
16, 57000, Note_on_c, 11, 61, 127
16, 57029, Note_on_c, 11, 61, 0
16, 57030, Note_on_c, 11, 62, 127
16, 57059, Note_on_c, 11, 62, 0
16, 57060, Note_on_c, 11, 64, 127
16, 57119, Note_on_c, 11, 64, 0
16, 57120, Note_on_c, 11, 57, 127
16, 57179, Note_on_c, 11, 57, 0
16, 57240, Note_on_c, 11, 55, 127
16, 57269, Note_on_c, 11, 55, 0
16, 57270, Note_on_c, 11, 57, 127
16, 57299, Note_on_c, 11, 57, 0
16, 57300, Note_on_c, 11, 59, 127
16, 57314, Note_on_c, 11, 59, 0
16, 57315, Note_on_c, 11, 57, 127
16, 57329, Note_on_c, 11, 57, 0
16, 57330, Note_on_c, 11, 55, 127
16, 57344, Note_on_c, 11, 55, 0
16, 57345, Note_on_c, 11, 57, 127
16, 57359, Note_on_c, 11, 57, 0
16, 57360, Note_on_c, 11, 59, 127
16, 57419, Note_on_c, 11, 59, 0
16, 57420, Note_on_c, 11, 59, 127
16, 57479, Note_on_c, 11, 59, 0
16, 57480, Note_on_c, 11, 64, 127
16, 57539, Note_on_c, 11, 64, 0
16, 57540, Note_on_c, 11, 57, 127
16, 57599, Note_on_c, 11, 57, 0
16, 57600, Note_on_c, 11, 62, 127
16, 57629, Note_on_c, 11, 62, 0
16, 57630, Note_on_c, 11, 61, 127
16, 57659, Note_on_c, 11, 61, 0
16, 57660, Note_on_c, 11, 62, 127
16, 57719, Note_on_c, 11, 62, 0
16, 57720, Note_on_c, 11, 64, 127
16, 57779, Note_on_c, 11, 64, 0
16, 57780, Note_on_c, 11, 64, 127
16, 57839, Note_on_c, 11, 64, 0
16, 57840, Note_on_c, 11, 64, 127
16, 57899, Note_on_c, 11, 64, 0
16, 57900, Note_on_c, 11, 66, 127
16, 57959, Note_on_c, 11, 66, 0
16, 57960, Note_on_c, 11, 63, 127
16, 58019, Note_on_c, 11, 63, 0
16, 58020, Note_on_c, 11, 64, 127
16, 58079, Note_on_c, 11, 64, 0
16, 58080, Note_on_c, 11, 66, 127
16, 58139, Note_on_c, 11, 66, 0
16, 58140, Note_on_c, 11, 63, 127
16, 58199, Note_on_c, 11, 63, 0
16, 58200, Note_on_c, 11, 63, 127
16, 58259, Note_on_c, 11, 63, 0
16, 58260, Note_on_c, 11, 64, 127
16, 58319, Note_on_c, 11, 64, 0
16, 58320, Note_on_c, 11, 59, 127
16, 58379, Note_on_c, 11, 59, 0
16, 58380, Note_on_c, 11, 59, 127
16, 58439, Note_on_c, 11, 59, 0
16, 58440, Note_on_c, 11, 59, 127
16, 58499, Note_on_c, 11, 59, 0
16, 58500, Note_on_c, 11, 64, 127
16, 58559, Note_on_c, 11, 64, 0
16, 58560, Note_on_c, 11, 67, 127
16, 58619, Note_on_c, 11, 67, 0
16, 58620, Note_on_c, 11, 67, 127
16, 58679, Note_on_c, 11, 67, 0
16, 58680, Note_on_c, 11, 64, 127
16, 58739, Note_on_c, 11, 64, 0
16, 58740, Note_on_c, 11, 59, 127
16, 58799, Note_on_c, 11, 59, 0
16, 58800, Note_on_c, 11, 64, 127
16, 58859, Note_on_c, 11, 64, 0
16, 58860, Note_on_c, 11, 61, 127
16, 58919, Note_on_c, 11, 61, 0
16, 58920, Note_on_c, 11, 64, 127
16, 58979, Note_on_c, 11, 64, 0
16, 58980, Note_on_c, 11, 64, 127
16, 59039, Note_on_c, 11, 64, 0
16, 59040, Note_on_c, 11, 62, 127
16, 59099, Note_on_c, 11, 62, 0
16, 59100, Note_on_c, 11, 64, 127
16, 59159, Note_on_c, 11, 64, 0
16, 59160, Note_on_c, 11, 57, 127
16, 59279, Note_on_c, 11, 57, 0
16, 59280, Note_on_c, 11, 62, 127
16, 59339, Note_on_c, 11, 62, 0
16, 59340, Note_on_c, 11, 62, 127
16, 59399, Note_on_c, 11, 62, 0
16, 59400, Note_on_c, 11, 59, 127
16, 59459, Note_on_c, 11, 59, 0
16, 59460, Note_on_c, 11, 66, 127
16, 59519, Note_on_c, 11, 66, 0
16, 59520, Note_on_c, 11, 64, 127
16, 59579, Note_on_c, 11, 64, 0
16, 59580, Note_on_c, 11, 59, 127
16, 59639, Note_on_c, 11, 59, 0
16, 59640, Note_on_c, 11, 59, 127
16, 59699, Note_on_c, 11, 59, 0
16, 59700, Note_on_c, 11, 57, 127
16, 59759, Note_on_c, 11, 57, 0
16, 59760, Note_on_c, 11, 57, 127
16, 59819, Note_on_c, 11, 57, 0
16, 59820, Note_on_c, 11, 64, 127
16, 59879, Note_on_c, 11, 64, 0
16, 59880, Note_on_c, 11, 62, 127
16, 59939, Note_on_c, 11, 62, 0
16, 59940, Note_on_c, 11, 57, 127
16, 59999, Note_on_c, 11, 57, 0
16, 60060, Note_on_c, 11, 55, 127
16, 60119, Note_on_c, 11, 55, 0
16, 60120, Note_on_c, 11, 52, 127
16, 60179, Note_on_c, 11, 52, 0
16, 60180, Note_on_c, 11, 57, 127
16, 60239, Note_on_c, 11, 57, 0
16, 60240, Note_on_c, 11, 59, 127
16, 60269, Note_on_c, 11, 59, 0
16, 60270, Note_on_c, 11, 57, 127
16, 60299, Note_on_c, 11, 57, 0
16, 60300, Note_on_c, 11, 55, 127
16, 60329, Note_on_c, 11, 55, 0
16, 60330, Note_on_c, 11, 54, 127
16, 60359, Note_on_c, 11, 54, 0
16, 60360, Note_on_c, 11, 52, 127
16, 60389, Note_on_c, 11, 52, 0
16, 60390, Note_on_c, 11, 50, 127
16, 60419, Note_on_c, 11, 50, 0
16, 60420, Note_on_c, 11, 57, 127
16, 60509, Note_on_c, 11, 57, 0
16, 60510, Note_on_c, 11, 62, 127
16, 60539, Note_on_c, 11, 62, 0
16, 60540, Note_on_c, 11, 61, 127
16, 60599, Note_on_c, 11, 61, 0
16, 60600, Note_on_c, 11, 57, 127
16, 60659, Note_on_c, 11, 57, 0
16, 60660, Note_on_c, 11, 62, 127
16, 60719, Note_on_c, 11, 62, 0
16, 60720, Note_on_c, 11, 64, 127
16, 60779, Note_on_c, 11, 64, 0
16, 60780, Note_on_c, 11, 66, 127
16, 60959, Note_on_c, 11, 66, 0
16, 116460, Control_c, 11, 0, 40
16, 116460, Program_c, 11, 52
16, 116460, Note_on_c, 11, 56, 127
16, 116579, Note_on_c, 11, 56, 0
16, 116580, Note_on_c, 11, 57, 127
16, 116699, Note_on_c, 11, 57, 0
16, 116700, Note_on_c, 11, 59, 127
16, 116819, Note_on_c, 11, 59, 0
16, 116820, Note_on_c, 11, 60, 127
16, 116879, Note_on_c, 11, 60, 0
16, 116880, Note_on_c, 11, 62, 127
16, 116939, Note_on_c, 11, 62, 0
16, 116940, Note_on_c, 11, 55, 127
16, 117059, Note_on_c, 11, 55, 0
16, 117060, Note_on_c, 11, 57, 127
16, 117119, Note_on_c, 11, 57, 0
16, 117120, Note_on_c, 11, 56, 127
16, 117179, Note_on_c, 11, 56, 0
16, 117180, Note_on_c, 11, 57, 127
16, 117299, Note_on_c, 11, 57, 0
16, 117300, Note_on_c, 11, 56, 127
16, 117395, Note_on_c, 11, 56, 0
16, 117420, Note_on_c, 11, 56, 127
16, 117539, Note_on_c, 11, 56, 0
16, 117540, Note_on_c, 11, 57, 127
16, 117599, Note_on_c, 11, 57, 0
16, 117600, Note_on_c, 11, 59, 127
16, 117659, Note_on_c, 11, 59, 0
16, 117660, Note_on_c, 11, 60, 127
16, 117779, Note_on_c, 11, 60, 0
16, 117780, Note_on_c, 11, 65, 127
16, 117899, Note_on_c, 11, 65, 0
16, 117900, Note_on_c, 11, 64, 127
16, 117959, Note_on_c, 11, 64, 0
16, 117960, Note_on_c, 11, 62, 127
16, 118019, Note_on_c, 11, 62, 0
16, 118020, Note_on_c, 11, 60, 127
16, 118379, Note_on_c, 11, 60, 0
16, 118380, Note_on_c, 11, 56, 127
16, 118499, Note_on_c, 11, 56, 0
16, 118500, Note_on_c, 11, 57, 127
16, 118619, Note_on_c, 11, 57, 0
16, 118620, Note_on_c, 11, 59, 127
16, 118739, Note_on_c, 11, 59, 0
16, 118740, Note_on_c, 11, 60, 127
16, 118799, Note_on_c, 11, 60, 0
16, 118800, Note_on_c, 11, 62, 127
16, 118859, Note_on_c, 11, 62, 0
16, 118860, Note_on_c, 11, 55, 127
16, 118979, Note_on_c, 11, 55, 0
16, 118980, Note_on_c, 11, 57, 127
16, 119039, Note_on_c, 11, 57, 0
16, 119040, Note_on_c, 11, 56, 127
16, 119099, Note_on_c, 11, 56, 0
16, 119100, Note_on_c, 11, 57, 127
16, 119219, Note_on_c, 11, 57, 0
16, 119220, Note_on_c, 11, 56, 127
16, 119315, Note_on_c, 11, 56, 0
16, 119340, Note_on_c, 11, 56, 127
16, 119459, Note_on_c, 11, 56, 0
16, 119460, Note_on_c, 11, 57, 127
16, 119519, Note_on_c, 11, 57, 0
16, 119520, Note_on_c, 11, 59, 127
16, 119579, Note_on_c, 11, 59, 0
16, 119580, Note_on_c, 11, 60, 127
16, 119699, Note_on_c, 11, 60, 0
16, 119700, Note_on_c, 11, 65, 127
16, 119819, Note_on_c, 11, 65, 0
16, 119820, Note_on_c, 11, 64, 127
16, 119879, Note_on_c, 11, 64, 0
16, 119880, Note_on_c, 11, 62, 127
16, 119939, Note_on_c, 11, 62, 0
16, 119940, Note_on_c, 11, 60, 127
16, 120299, Note_on_c, 11, 60, 0
16, 120300, Note_on_c, 11, 64, 127
16, 120419, Note_on_c, 11, 64, 0
16, 120420, Note_on_c, 11, 62, 127
16, 120479, Note_on_c, 11, 62, 0
16, 120480, Note_on_c, 11, 60, 127
16, 120539, Note_on_c, 11, 60, 0
16, 120540, Note_on_c, 11, 59, 127
16, 120659, Note_on_c, 11, 59, 0
16, 120660, Note_on_c, 11, 57, 127
16, 120719, Note_on_c, 11, 57, 0
16, 120720, Note_on_c, 11, 55, 127
16, 120779, Note_on_c, 11, 55, 0
16, 120780, Note_on_c, 11, 53, 127
16, 120839, Note_on_c, 11, 53, 0
16, 120840, Note_on_c, 11, 55, 127
16, 120899, Note_on_c, 11, 55, 0
16, 120900, Note_on_c, 11, 57, 127
16, 121019, Note_on_c, 11, 57, 0
16, 121020, Note_on_c, 11, 55, 127
16, 121079, Note_on_c, 11, 55, 0
16, 121080, Note_on_c, 11, 53, 127
16, 121139, Note_on_c, 11, 53, 0
16, 121140, Note_on_c, 11, 55, 127
16, 121235, Note_on_c, 11, 55, 0
16, 121260, Note_on_c, 11, 60, 127
16, 121379, Note_on_c, 11, 60, 0
16, 121380, Note_on_c, 11, 60, 127
16, 121439, Note_on_c, 11, 60, 0
16, 121440, Note_on_c, 11, 62, 127
16, 121499, Note_on_c, 11, 62, 0
16, 121500, Note_on_c, 11, 64, 127
16, 121619, Note_on_c, 11, 64, 0
16, 121620, Note_on_c, 11, 62, 127
16, 121679, Note_on_c, 11, 62, 0
16, 121680, Note_on_c, 11, 61, 127
16, 121739, Note_on_c, 11, 61, 0
16, 121740, Note_on_c, 11, 62, 127
16, 121799, Note_on_c, 11, 62, 0
16, 121800, Note_on_c, 11, 56, 127
16, 121859, Note_on_c, 11, 56, 0
16, 121860, Note_on_c, 11, 57, 127
16, 122147, Note_on_c, 11, 57, 0
16, 122220, Note_on_c, 11, 57, 127
16, 122339, Note_on_c, 11, 57, 0
16, 122340, Note_on_c, 11, 55, 127
16, 122399, Note_on_c, 11, 55, 0
16, 122400, Note_on_c, 11, 57, 127
16, 122459, Note_on_c, 11, 57, 0
16, 122460, Note_on_c, 11, 59, 127
16, 122579, Note_on_c, 11, 59, 0
16, 122580, Note_on_c, 11, 60, 127
16, 122639, Note_on_c, 11, 60, 0
16, 122640, Note_on_c, 11, 62, 127
16, 122699, Note_on_c, 11, 62, 0
16, 122700, Note_on_c, 11, 64, 127
16, 122819, Note_on_c, 11, 64, 0
16, 122820, Note_on_c, 11, 64, 127
16, 122939, Note_on_c, 11, 64, 0
16, 122940, Note_on_c, 11, 62, 127
16, 123059, Note_on_c, 11, 62, 0
16, 123060, Note_on_c, 11, 62, 127
16, 123155, Note_on_c, 11, 62, 0
16, 123180, Note_on_c, 11, 60, 127
16, 123299, Note_on_c, 11, 60, 0
16, 123300, Note_on_c, 11, 60, 127
16, 123359, Note_on_c, 11, 60, 0
16, 123360, Note_on_c, 11, 59, 127
16, 123419, Note_on_c, 11, 59, 0
16, 123420, Note_on_c, 11, 59, 127
16, 123479, Note_on_c, 11, 59, 0
16, 123480, Note_on_c, 11, 57, 127
16, 123539, Note_on_c, 11, 57, 0
16, 123540, Note_on_c, 11, 57, 127
16, 123659, Note_on_c, 11, 57, 0
16, 123660, Note_on_c, 11, 55, 127
16, 123719, Note_on_c, 11, 55, 0
16, 123720, Note_on_c, 11, 57, 127
16, 123779, Note_on_c, 11, 57, 0
16, 123780, Note_on_c, 11, 59, 127
16, 123899, Note_on_c, 11, 59, 0
16, 123900, Note_on_c, 11, 57, 127
16, 124019, Note_on_c, 11, 57, 0
16, 124020, Note_on_c, 11, 56, 127
16, 124139, Note_on_c, 11, 56, 0
16, 199980, Note_on_c, 11, 66, 127
16, 200099, Note_on_c, 11, 66, 0
16, 200100, Note_on_c, 11, 64, 127
16, 200219, Note_on_c, 11, 64, 0
16, 200220, Note_on_c, 11, 62, 127
16, 200339, Note_on_c, 11, 62, 0
16, 200340, Note_on_c, 11, 61, 127
16, 200459, Note_on_c, 11, 61, 0
16, 200460, Note_on_c, 11, 62, 127
16, 200519, Note_on_c, 11, 62, 0
16, 200520, Note_on_c, 11, 61, 127
16, 200579, Note_on_c, 11, 61, 0
16, 200580, Note_on_c, 11, 59, 127
16, 200639, Note_on_c, 11, 59, 0
16, 200640, Note_on_c, 11, 57, 127
16, 200699, Note_on_c, 11, 57, 0
16, 200700, Note_on_c, 11, 55, 127
16, 200819, Note_on_c, 11, 55, 0
16, 200820, Note_on_c, 11, 57, 127
16, 200939, Note_on_c, 11, 57, 0
16, 201660, Note_on_c, 11, 57, 127
16, 201779, Note_on_c, 11, 57, 0
16, 201780, Note_on_c, 11, 62, 127
16, 201899, Note_on_c, 11, 62, 0
16, 201900, Note_on_c, 11, 62, 127
16, 202019, Note_on_c, 11, 62, 0
16, 202020, Note_on_c, 11, 61, 127
16, 202139, Note_on_c, 11, 61, 0
16, 202140, Note_on_c, 11, 60, 127
16, 202199, Note_on_c, 11, 60, 0
16, 202200, Note_on_c, 11, 59, 127
16, 202259, Note_on_c, 11, 59, 0
16, 202260, Note_on_c, 11, 57, 127
16, 202379, Note_on_c, 11, 57, 0
16, 202380, Note_on_c, 11, 57, 127
16, 202499, Note_on_c, 11, 57, 0
16, 202500, Note_on_c, 11, 57, 127
16, 202619, Note_on_c, 11, 57, 0
16, 203340, Note_on_c, 11, 57, 127
16, 203459, Note_on_c, 11, 57, 0
16, 203460, Note_on_c, 11, 57, 127
16, 203579, Note_on_c, 11, 57, 0
16, 203580, Note_on_c, 11, 56, 127
16, 203699, Note_on_c, 11, 56, 0
16, 203700, Note_on_c, 11, 57, 127
16, 203759, Note_on_c, 11, 57, 0
16, 203760, Note_on_c, 11, 62, 127
16, 203819, Note_on_c, 11, 62, 0
16, 203820, Note_on_c, 11, 61, 127
16, 203879, Note_on_c, 11, 61, 0
16, 203880, Note_on_c, 11, 59, 127
16, 203939, Note_on_c, 11, 59, 0
16, 203940, Note_on_c, 11, 57, 127
16, 203999, Note_on_c, 11, 57, 0
16, 204000, Note_on_c, 11, 61, 127
16, 204059, Note_on_c, 11, 61, 0
16, 204060, Note_on_c, 11, 66, 127
16, 204119, Note_on_c, 11, 66, 0
16, 204120, Note_on_c, 11, 64, 127
16, 204179, Note_on_c, 11, 64, 0
16, 204180, Note_on_c, 11, 61, 127
16, 204299, Note_on_c, 11, 61, 0
16, 205020, Note_on_c, 11, 62, 127
16, 205079, Note_on_c, 11, 62, 0
16, 205080, Note_on_c, 11, 59, 127
16, 205139, Note_on_c, 11, 59, 0
16, 205140, Note_on_c, 11, 59, 127
16, 205199, Note_on_c, 11, 59, 0
16, 205200, Note_on_c, 11, 57, 127
16, 205259, Note_on_c, 11, 57, 0
16, 205260, Note_on_c, 11, 57, 127
16, 205319, Note_on_c, 11, 57, 0
16, 205320, Note_on_c, 11, 55, 127
16, 205379, Note_on_c, 11, 55, 0
16, 205380, Note_on_c, 11, 57, 127
16, 205499, Note_on_c, 11, 57, 0
16, 205500, Note_on_c, 11, 55, 127
16, 205559, Note_on_c, 11, 55, 0
16, 205560, Note_on_c, 11, 54, 127
16, 205619, Note_on_c, 11, 54, 0
16, 205620, Note_on_c, 11, 50, 127
16, 205739, Note_on_c, 11, 50, 0
16, 205740, Note_on_c, 11, 57, 127
16, 205799, Note_on_c, 11, 57, 0
16, 205800, Note_on_c, 11, 55, 127
16, 205859, Note_on_c, 11, 55, 0
16, 205860, Note_on_c, 11, 54, 127
16, 205979, Note_on_c, 11, 54, 0
16, 205979, End_track
17, 0, Start_track
17, 0, MIDI_port, 0
17, 0, Title_t, "Basso Solo/Coro"
17, 0, Program_c, 12, 52
17, 5760, Note_on_c, 12, 50, 127
17, 5819, Note_on_c, 12, 50, 0
17, 5820, Note_on_c, 12, 50, 127
17, 5879, Note_on_c, 12, 50, 0
17, 5880, Note_on_c, 12, 50, 127
17, 5939, Note_on_c, 12, 50, 0
17, 5940, Note_on_c, 12, 50, 127
17, 5999, Note_on_c, 12, 50, 0
17, 6000, Note_on_c, 12, 45, 127
17, 6059, Note_on_c, 12, 45, 0
17, 6420, Note_on_c, 12, 57, 127
17, 6479, Note_on_c, 12, 57, 0
17, 6480, Note_on_c, 12, 57, 127
17, 6539, Note_on_c, 12, 57, 0
17, 6540, Note_on_c, 12, 62, 127
17, 6569, Note_on_c, 12, 62, 0
17, 6570, Note_on_c, 12, 57, 127
17, 6599, Note_on_c, 12, 57, 0
17, 6600, Note_on_c, 12, 54, 127
17, 6629, Note_on_c, 12, 54, 0
17, 6630, Note_on_c, 12, 50, 127
17, 6659, Note_on_c, 12, 50, 0
17, 6660, Note_on_c, 12, 57, 127
17, 6719, Note_on_c, 12, 57, 0
17, 6720, Note_on_c, 12, 57, 127
17, 6779, Note_on_c, 12, 57, 0
17, 6900, Note_on_c, 12, 62, 127
17, 6959, Note_on_c, 12, 62, 0
17, 6960, Note_on_c, 12, 50, 127
17, 7019, Note_on_c, 12, 50, 0
17, 7140, Note_on_c, 12, 62, 127
17, 7199, Note_on_c, 12, 62, 0
17, 7200, Note_on_c, 12, 62, 127
17, 7259, Note_on_c, 12, 62, 0
17, 7260, Note_on_c, 12, 50, 127
17, 7319, Note_on_c, 12, 50, 0
17, 7560, Note_on_c, 12, 50, 127
17, 7619, Note_on_c, 12, 50, 0
17, 7620, Note_on_c, 12, 54, 127
17, 7679, Note_on_c, 12, 54, 0
17, 7680, Note_on_c, 12, 50, 127
17, 7739, Note_on_c, 12, 50, 0
17, 7740, Note_on_c, 12, 57, 127
17, 7799, Note_on_c, 12, 57, 0
17, 7800, Note_on_c, 12, 45, 127
17, 7859, Note_on_c, 12, 45, 0
17, 7860, Note_on_c, 12, 57, 127
17, 7919, Note_on_c, 12, 57, 0
17, 7920, Note_on_c, 12, 57, 127
17, 7979, Note_on_c, 12, 57, 0
17, 7980, Note_on_c, 12, 61, 127
17, 8039, Note_on_c, 12, 61, 0
17, 8040, Note_on_c, 12, 57, 127
17, 8099, Note_on_c, 12, 57, 0
17, 8100, Note_on_c, 12, 62, 127
17, 8159, Note_on_c, 12, 62, 0
17, 8160, Note_on_c, 12, 50, 127
17, 8219, Note_on_c, 12, 50, 0
17, 8220, Note_on_c, 12, 62, 127
17, 8279, Note_on_c, 12, 62, 0
17, 8280, Note_on_c, 12, 54, 127
17, 8339, Note_on_c, 12, 54, 0
17, 8340, Note_on_c, 12, 50, 127
17, 8399, Note_on_c, 12, 50, 0
17, 8400, Note_on_c, 12, 54, 127
17, 8459, Note_on_c, 12, 54, 0
17, 8460, Note_on_c, 12, 55, 127
17, 8519, Note_on_c, 12, 55, 0
17, 8520, Note_on_c, 12, 54, 127
17, 8579, Note_on_c, 12, 54, 0
17, 8580, Note_on_c, 12, 52, 127
17, 8639, Note_on_c, 12, 52, 0
17, 8640, Note_on_c, 12, 62, 127
17, 8699, Note_on_c, 12, 62, 0
17, 8700, Note_on_c, 12, 61, 127
17, 8759, Note_on_c, 12, 61, 0
17, 8760, Note_on_c, 12, 59, 127
17, 8819, Note_on_c, 12, 59, 0
17, 8820, Note_on_c, 12, 57, 127
17, 8939, Note_on_c, 12, 57, 0
17, 9240, Note_on_c, 12, 52, 127
17, 9269, Note_on_c, 12, 52, 0
17, 9270, Note_on_c, 12, 54, 127
17, 9299, Note_on_c, 12, 54, 0
17, 9300, Note_on_c, 12, 55, 127
17, 9314, Note_on_c, 12, 55, 0
17, 9315, Note_on_c, 12, 54, 127
17, 9329, Note_on_c, 12, 54, 0
17, 9330, Note_on_c, 12, 52, 127
17, 9344, Note_on_c, 12, 52, 0
17, 9345, Note_on_c, 12, 54, 127
17, 9359, Note_on_c, 12, 54, 0
17, 9360, Note_on_c, 12, 55, 127
17, 9419, Note_on_c, 12, 55, 0
17, 9420, Note_on_c, 12, 55, 127
17, 9479, Note_on_c, 12, 55, 0
17, 9480, Note_on_c, 12, 57, 127
17, 9539, Note_on_c, 12, 57, 0
17, 9540, Note_on_c, 12, 59, 127
17, 9599, Note_on_c, 12, 59, 0
17, 9600, Note_on_c, 12, 59, 127
17, 9659, Note_on_c, 12, 59, 0
17, 9660, Note_on_c, 12, 61, 127
17, 9719, Note_on_c, 12, 61, 0
17, 9720, Note_on_c, 12, 62, 127
17, 9779, Note_on_c, 12, 62, 0
17, 9780, Note_on_c, 12, 61, 127
17, 9839, Note_on_c, 12, 61, 0
17, 9840, Note_on_c, 12, 59, 127
17, 9899, Note_on_c, 12, 59, 0
17, 9900, Note_on_c, 12, 57, 127
17, 9959, Note_on_c, 12, 57, 0
17, 9960, Note_on_c, 12, 57, 127
17, 10019, Note_on_c, 12, 57, 0
17, 10140, Note_on_c, 12, 49, 127
17, 10169, Note_on_c, 12, 49, 0
17, 10170, Note_on_c, 12, 51, 127
17, 10199, Note_on_c, 12, 51, 0
17, 10200, Note_on_c, 12, 52, 127
17, 10214, Note_on_c, 12, 52, 0
17, 10215, Note_on_c, 12, 51, 127
17, 10229, Note_on_c, 12, 51, 0
17, 10230, Note_on_c, 12, 49, 127
17, 10244, Note_on_c, 12, 49, 0
17, 10245, Note_on_c, 12, 51, 127
17, 10259, Note_on_c, 12, 51, 0
17, 10260, Note_on_c, 12, 52, 127
17, 10319, Note_on_c, 12, 52, 0
17, 10320, Note_on_c, 12, 52, 127
17, 10379, Note_on_c, 12, 52, 0
17, 10380, Note_on_c, 12, 54, 127
17, 10439, Note_on_c, 12, 54, 0
17, 10440, Note_on_c, 12, 55, 127
17, 10499, Note_on_c, 12, 55, 0
17, 10500, Note_on_c, 12, 54, 127
17, 10559, Note_on_c, 12, 54, 0
17, 10560, Note_on_c, 12, 52, 127
17, 10619, Note_on_c, 12, 52, 0
17, 10620, Note_on_c, 12, 50, 127
17, 10679, Note_on_c, 12, 50, 0
17, 10680, Note_on_c, 12, 50, 127
17, 10739, Note_on_c, 12, 50, 0
17, 10740, Note_on_c, 12, 52, 127
17, 10799, Note_on_c, 12, 52, 0
17, 10800, Note_on_c, 12, 54, 127
17, 10829, Note_on_c, 12, 54, 0
17, 10830, Note_on_c, 12, 52, 127
17, 10859, Note_on_c, 12, 52, 0
17, 10860, Note_on_c, 12, 54, 127
17, 10889, Note_on_c, 12, 54, 0
17, 10890, Note_on_c, 12, 57, 127
17, 10919, Note_on_c, 12, 57, 0
17, 10920, Note_on_c, 12, 56, 127
17, 10949, Note_on_c, 12, 56, 0
17, 10950, Note_on_c, 12, 59, 127
17, 10979, Note_on_c, 12, 59, 0
17, 10980, Note_on_c, 12, 57, 127
17, 11009, Note_on_c, 12, 57, 0
17, 11010, Note_on_c, 12, 56, 127
17, 11039, Note_on_c, 12, 56, 0
17, 11040, Note_on_c, 12, 57, 127
17, 11069, Note_on_c, 12, 57, 0
17, 11070, Note_on_c, 12, 59, 127
17, 11099, Note_on_c, 12, 59, 0
17, 11100, Note_on_c, 12, 57, 127
17, 11129, Note_on_c, 12, 57, 0
17, 11130, Note_on_c, 12, 59, 127
17, 11159, Note_on_c, 12, 59, 0
17, 11160, Note_on_c, 12, 55, 127
17, 11219, Note_on_c, 12, 55, 0
17, 11220, Note_on_c, 12, 55, 127
17, 11279, Note_on_c, 12, 55, 0
17, 11280, Note_on_c, 12, 54, 127
17, 11339, Note_on_c, 12, 54, 0
17, 11340, Note_on_c, 12, 52, 127
17, 11399, Note_on_c, 12, 52, 0
17, 11400, Note_on_c, 12, 52, 127
17, 11459, Note_on_c, 12, 52, 0
17, 11460, Note_on_c, 12, 50, 127
17, 11519, Note_on_c, 12, 50, 0
17, 11520, Note_on_c, 12, 49, 127
17, 11549, Note_on_c, 12, 49, 0
17, 11550, Note_on_c, 12, 47, 127
17, 11579, Note_on_c, 12, 47, 0
17, 11580, Note_on_c, 12, 49, 127
17, 11609, Note_on_c, 12, 49, 0
17, 11610, Note_on_c, 12, 50, 127
17, 11639, Note_on_c, 12, 50, 0
17, 11640, Note_on_c, 12, 47, 127
17, 11669, Note_on_c, 12, 47, 0
17, 11670, Note_on_c, 12, 49, 127
17, 11699, Note_on_c, 12, 49, 0
17, 11700, Note_on_c, 12, 46, 127
17, 11729, Note_on_c, 12, 46, 0
17, 11730, Note_on_c, 12, 55, 127
17, 11759, Note_on_c, 12, 55, 0
17, 11760, Note_on_c, 12, 54, 127
17, 11789, Note_on_c, 12, 54, 0
17, 11790, Note_on_c, 12, 55, 127
17, 11819, Note_on_c, 12, 55, 0
17, 11820, Note_on_c, 12, 52, 127
17, 11849, Note_on_c, 12, 52, 0
17, 11850, Note_on_c, 12, 54, 127
17, 11879, Note_on_c, 12, 54, 0
17, 11880, Note_on_c, 12, 50, 127
17, 11939, Note_on_c, 12, 50, 0
17, 11940, Note_on_c, 12, 62, 127
17, 11999, Note_on_c, 12, 62, 0
17, 12000, Note_on_c, 12, 61, 127
17, 12059, Note_on_c, 12, 61, 0
17, 12060, Note_on_c, 12, 59, 127
17, 12179, Note_on_c, 12, 59, 0
17, 12180, Note_on_c, 12, 57, 127
17, 12239, Note_on_c, 12, 57, 0
17, 12240, Note_on_c, 12, 56, 127
17, 12299, Note_on_c, 12, 56, 0
17, 12300, Note_on_c, 12, 56, 127
17, 12359, Note_on_c, 12, 56, 0
17, 12360, Note_on_c, 12, 54, 127
17, 12419, Note_on_c, 12, 54, 0
17, 12420, Note_on_c, 12, 52, 127
17, 12479, Note_on_c, 12, 52, 0
17, 12480, Note_on_c, 12, 52, 127
17, 12539, Note_on_c, 12, 52, 0
17, 12540, Note_on_c, 12, 50, 127
17, 12599, Note_on_c, 12, 50, 0
17, 12600, Note_on_c, 12, 49, 127
17, 12659, Note_on_c, 12, 49, 0
17, 12660, Note_on_c, 12, 61, 127
17, 12719, Note_on_c, 12, 61, 0
17, 12720, Note_on_c, 12, 59, 127
17, 12779, Note_on_c, 12, 59, 0
17, 12780, Note_on_c, 12, 57, 127
17, 12899, Note_on_c, 12, 57, 0
17, 12900, Note_on_c, 12, 56, 127
17, 12959, Note_on_c, 12, 56, 0
17, 12960, Note_on_c, 12, 54, 127
17, 13019, Note_on_c, 12, 54, 0
17, 13020, Note_on_c, 12, 54, 127
17, 13079, Note_on_c, 12, 54, 0
17, 13080, Note_on_c, 12, 52, 127
17, 13139, Note_on_c, 12, 52, 0
17, 13140, Note_on_c, 12, 51, 127
17, 13199, Note_on_c, 12, 51, 0
17, 13200, Note_on_c, 12, 51, 127
17, 13259, Note_on_c, 12, 51, 0
17, 13260, Note_on_c, 12, 47, 127
17, 13319, Note_on_c, 12, 47, 0
17, 13320, Note_on_c, 12, 52, 127
17, 13379, Note_on_c, 12, 52, 0
17, 13380, Note_on_c, 12, 52, 127
17, 13439, Note_on_c, 12, 52, 0
17, 13440, Note_on_c, 12, 50, 127
17, 13499, Note_on_c, 12, 50, 0
17, 13500, Note_on_c, 12, 49, 127
17, 13559, Note_on_c, 12, 49, 0
17, 13560, Note_on_c, 12, 49, 127
17, 13619, Note_on_c, 12, 49, 0
17, 13680, Note_on_c, 12, 50, 127
17, 13739, Note_on_c, 12, 50, 0
17, 13740, Note_on_c, 12, 62, 127
17, 13799, Note_on_c, 12, 62, 0
17, 13800, Note_on_c, 12, 61, 127
17, 13859, Note_on_c, 12, 61, 0
17, 13860, Note_on_c, 12, 59, 127
17, 13919, Note_on_c, 12, 59, 0
17, 13920, Note_on_c, 12, 54, 127
17, 13979, Note_on_c, 12, 54, 0
17, 13980, Note_on_c, 12, 57, 127
17, 14039, Note_on_c, 12, 57, 0
17, 14040, Note_on_c, 12, 56, 127
17, 14129, Note_on_c, 12, 56, 0
17, 14130, Note_on_c, 12, 54, 127
17, 14159, Note_on_c, 12, 54, 0
17, 14160, Note_on_c, 12, 52, 127
17, 14219, Note_on_c, 12, 52, 0
17, 14220, Note_on_c, 12, 57, 127
17, 14279, Note_on_c, 12, 57, 0
17, 14280, Note_on_c, 12, 50, 127
17, 14339, Note_on_c, 12, 50, 0
17, 14340, Note_on_c, 12, 52, 127
17, 14399, Note_on_c, 12, 52, 0
17, 14400, Note_on_c, 12, 57, 127
17, 14519, Note_on_c, 12, 57, 0
17, 15840, Note_on_c, 12, 50, 127
17, 15899, Note_on_c, 12, 50, 0
17, 15900, Note_on_c, 12, 50, 127
17, 15959, Note_on_c, 12, 50, 0
17, 15960, Note_on_c, 12, 50, 127
17, 16019, Note_on_c, 12, 50, 0
17, 16020, Note_on_c, 12, 50, 127
17, 16079, Note_on_c, 12, 50, 0
17, 16080, Note_on_c, 12, 45, 127
17, 16139, Note_on_c, 12, 45, 0
17, 16500, Note_on_c, 12, 57, 127
17, 16559, Note_on_c, 12, 57, 0
17, 16560, Note_on_c, 12, 57, 127
17, 16619, Note_on_c, 12, 57, 0
17, 16620, Note_on_c, 12, 62, 127
17, 16649, Note_on_c, 12, 62, 0
17, 16650, Note_on_c, 12, 57, 127
17, 16679, Note_on_c, 12, 57, 0
17, 16680, Note_on_c, 12, 54, 127
17, 16709, Note_on_c, 12, 54, 0
17, 16710, Note_on_c, 12, 50, 127
17, 16739, Note_on_c, 12, 50, 0
17, 16740, Note_on_c, 12, 57, 127
17, 16799, Note_on_c, 12, 57, 0
17, 16800, Note_on_c, 12, 57, 127
17, 16859, Note_on_c, 12, 57, 0
17, 16980, Note_on_c, 12, 62, 127
17, 17039, Note_on_c, 12, 62, 0
17, 17040, Note_on_c, 12, 50, 127
17, 17099, Note_on_c, 12, 50, 0
17, 17220, Note_on_c, 12, 62, 127
17, 17279, Note_on_c, 12, 62, 0
17, 17280, Note_on_c, 12, 62, 127
17, 17339, Note_on_c, 12, 62, 0
17, 17340, Note_on_c, 12, 50, 127
17, 17399, Note_on_c, 12, 50, 0
17, 17640, Note_on_c, 12, 50, 127
17, 17699, Note_on_c, 12, 50, 0
17, 17700, Note_on_c, 12, 54, 127
17, 17759, Note_on_c, 12, 54, 0
17, 17760, Note_on_c, 12, 50, 127
17, 17819, Note_on_c, 12, 50, 0
17, 17820, Note_on_c, 12, 57, 127
17, 17879, Note_on_c, 12, 57, 0
17, 17880, Note_on_c, 12, 45, 127
17, 17939, Note_on_c, 12, 45, 0
17, 17940, Note_on_c, 12, 57, 127
17, 17999, Note_on_c, 12, 57, 0
17, 18000, Note_on_c, 12, 57, 127
17, 18059, Note_on_c, 12, 57, 0
17, 18060, Note_on_c, 12, 61, 127
17, 18119, Note_on_c, 12, 61, 0
17, 18120, Note_on_c, 12, 57, 127
17, 18179, Note_on_c, 12, 57, 0
17, 18180, Note_on_c, 12, 62, 127
17, 18239, Note_on_c, 12, 62, 0
17, 18240, Note_on_c, 12, 50, 127
17, 18299, Note_on_c, 12, 50, 0
17, 18300, Note_on_c, 12, 62, 127
17, 18359, Note_on_c, 12, 62, 0
17, 18360, Note_on_c, 12, 54, 127
17, 18419, Note_on_c, 12, 54, 0
17, 18420, Note_on_c, 12, 54, 127
17, 18479, Note_on_c, 12, 54, 0
17, 18480, Note_on_c, 12, 54, 127
17, 18539, Note_on_c, 12, 54, 0
17, 18540, Note_on_c, 12, 55, 127
17, 18599, Note_on_c, 12, 55, 0
17, 18600, Note_on_c, 12, 54, 127
17, 18659, Note_on_c, 12, 54, 0
17, 18660, Note_on_c, 12, 52, 127
17, 18719, Note_on_c, 12, 52, 0
17, 18720, Note_on_c, 12, 62, 127
17, 18779, Note_on_c, 12, 62, 0
17, 18780, Note_on_c, 12, 61, 127
17, 18839, Note_on_c, 12, 61, 0
17, 18840, Note_on_c, 12, 59, 127
17, 18899, Note_on_c, 12, 59, 0
17, 18900, Note_on_c, 12, 57, 127
17, 18959, Note_on_c, 12, 57, 0
17, 18960, Note_on_c, 12, 52, 127
17, 18989, Note_on_c, 12, 52, 0
17, 18990, Note_on_c, 12, 54, 127
17, 19019, Note_on_c, 12, 54, 0
17, 19020, Note_on_c, 12, 55, 127
17, 19034, Note_on_c, 12, 55, 0
17, 19035, Note_on_c, 12, 54, 127
17, 19049, Note_on_c, 12, 54, 0
17, 19050, Note_on_c, 12, 52, 127
17, 19064, Note_on_c, 12, 52, 0
17, 19065, Note_on_c, 12, 54, 127
17, 19079, Note_on_c, 12, 54, 0
17, 19080, Note_on_c, 12, 55, 127
17, 19139, Note_on_c, 12, 55, 0
17, 19140, Note_on_c, 12, 54, 127
17, 19199, Note_on_c, 12, 54, 0
17, 19200, Note_on_c, 12, 52, 127
17, 19259, Note_on_c, 12, 52, 0
17, 19260, Note_on_c, 12, 59, 127
17, 19319, Note_on_c, 12, 59, 0
17, 19320, Note_on_c, 12, 57, 127
17, 19379, Note_on_c, 12, 57, 0
17, 19380, Note_on_c, 12, 55, 127
17, 19439, Note_on_c, 12, 55, 0
17, 19440, Note_on_c, 12, 54, 127
17, 19499, Note_on_c, 12, 54, 0
17, 19500, Note_on_c, 12, 52, 127
17, 19559, Note_on_c, 12, 52, 0
17, 19560, Note_on_c, 12, 50, 127
17, 19619, Note_on_c, 12, 50, 0
17, 19620, Note_on_c, 12, 57, 127
17, 19679, Note_on_c, 12, 57, 0
17, 19680, Note_on_c, 12, 45, 127
17, 19739, Note_on_c, 12, 45, 0
17, 19860, Note_on_c, 12, 59, 127
17, 19889, Note_on_c, 12, 59, 0
17, 19890, Note_on_c, 12, 61, 127
17, 19919, Note_on_c, 12, 61, 0
17, 19920, Note_on_c, 12, 62, 127
17, 19934, Note_on_c, 12, 62, 0
17, 19935, Note_on_c, 12, 61, 127
17, 19949, Note_on_c, 12, 61, 0
17, 19950, Note_on_c, 12, 59, 127
17, 19964, Note_on_c, 12, 59, 0
17, 19965, Note_on_c, 12, 61, 127
17, 19979, Note_on_c, 12, 61, 0
17, 19980, Note_on_c, 12, 62, 127
17, 20039, Note_on_c, 12, 62, 0
17, 20040, Note_on_c, 12, 60, 127
17, 20099, Note_on_c, 12, 60, 0
17, 20100, Note_on_c, 12, 59, 127
17, 20159, Note_on_c, 12, 59, 0
17, 20160, Note_on_c, 12, 57, 127
17, 20219, Note_on_c, 12, 57, 0
17, 20220, Note_on_c, 12, 54, 127
17, 20279, Note_on_c, 12, 54, 0
17, 20280, Note_on_c, 12, 56, 127
17, 20339, Note_on_c, 12, 56, 0
17, 20340, Note_on_c, 12, 57, 127
17, 20399, Note_on_c, 12, 57, 0
17, 20400, Note_on_c, 12, 57, 127
17, 20459, Note_on_c, 12, 57, 0
17, 20460, Note_on_c, 12, 55, 127
17, 20519, Note_on_c, 12, 55, 0
17, 20520, Note_on_c, 12, 54, 127
17, 20579, Note_on_c, 12, 54, 0
17, 20580, Note_on_c, 12, 52, 127
17, 20639, Note_on_c, 12, 52, 0
17, 20640, Note_on_c, 12, 50, 127
17, 20699, Note_on_c, 12, 50, 0
17, 20700, Note_on_c, 12, 49, 127
17, 20759, Note_on_c, 12, 49, 0
17, 20760, Note_on_c, 12, 45, 127
17, 20819, Note_on_c, 12, 45, 0
17, 20940, Note_on_c, 12, 52, 127
17, 20969, Note_on_c, 12, 52, 0
17, 20970, Note_on_c, 12, 54, 127
17, 20999, Note_on_c, 12, 54, 0
17, 21000, Note_on_c, 12, 55, 127
17, 21014, Note_on_c, 12, 55, 0
17, 21015, Note_on_c, 12, 54, 127
17, 21029, Note_on_c, 12, 54, 0
17, 21030, Note_on_c, 12, 52, 127
17, 21044, Note_on_c, 12, 52, 0
17, 21045, Note_on_c, 12, 54, 127
17, 21059, Note_on_c, 12, 54, 0
17, 21060, Note_on_c, 12, 55, 127
17, 21119, Note_on_c, 12, 55, 0
17, 21120, Note_on_c, 12, 54, 127
17, 21179, Note_on_c, 12, 54, 0
17, 21180, Note_on_c, 12, 52, 127
17, 21239, Note_on_c, 12, 52, 0
17, 21240, Note_on_c, 12, 50, 127
17, 21299, Note_on_c, 12, 50, 0
17, 21300, Note_on_c, 12, 49, 127
17, 21359, Note_on_c, 12, 49, 0
17, 21360, Note_on_c, 12, 47, 127
17, 21419, Note_on_c, 12, 47, 0
17, 21420, Note_on_c, 12, 45, 127
17, 21479, Note_on_c, 12, 45, 0
17, 21480, Note_on_c, 12, 57, 127
17, 21539, Note_on_c, 12, 57, 0
17, 21540, Note_on_c, 12, 55, 127
17, 21599, Note_on_c, 12, 55, 0
17, 21600, Note_on_c, 12, 54, 127
17, 21629, Note_on_c, 12, 54, 0
17, 21630, Note_on_c, 12, 52, 127
17, 21659, Note_on_c, 12, 52, 0
17, 21660, Note_on_c, 12, 54, 127
17, 21689, Note_on_c, 12, 54, 0
17, 21690, Note_on_c, 12, 55, 127
17, 21719, Note_on_c, 12, 55, 0
17, 21720, Note_on_c, 12, 52, 127
17, 21749, Note_on_c, 12, 52, 0
17, 21750, Note_on_c, 12, 54, 127
17, 21779, Note_on_c, 12, 54, 0
17, 21780, Note_on_c, 12, 51, 127
17, 21809, Note_on_c, 12, 51, 0
17, 21810, Note_on_c, 12, 60, 127
17, 21839, Note_on_c, 12, 60, 0
17, 21840, Note_on_c, 12, 59, 127
17, 21869, Note_on_c, 12, 59, 0
17, 21870, Note_on_c, 12, 60, 127
17, 21899, Note_on_c, 12, 60, 0
17, 21900, Note_on_c, 12, 57, 127
17, 21929, Note_on_c, 12, 57, 0
17, 21930, Note_on_c, 12, 59, 127
17, 21959, Note_on_c, 12, 59, 0
17, 21960, Note_on_c, 12, 55, 127
17, 22019, Note_on_c, 12, 55, 0
17, 22020, Note_on_c, 12, 55, 127
17, 22079, Note_on_c, 12, 55, 0
17, 22080, Note_on_c, 12, 54, 127
17, 22139, Note_on_c, 12, 54, 0
17, 22140, Note_on_c, 12, 52, 127
17, 22259, Note_on_c, 12, 52, 0
17, 22260, Note_on_c, 12, 50, 127
17, 22319, Note_on_c, 12, 50, 0
17, 22320, Note_on_c, 12, 49, 127
17, 22379, Note_on_c, 12, 49, 0
17, 22380, Note_on_c, 12, 61, 127
17, 22439, Note_on_c, 12, 61, 0
17, 22440, Note_on_c, 12, 59, 127
17, 22499, Note_on_c, 12, 59, 0
17, 22500, Note_on_c, 12, 57, 127
17, 22559, Note_on_c, 12, 57, 0
17, 22560, Note_on_c, 12, 57, 127
17, 22619, Note_on_c, 12, 57, 0
17, 22620, Note_on_c, 12, 55, 127
17, 22679, Note_on_c, 12, 55, 0
17, 22680, Note_on_c, 12, 54, 127
17, 22739, Note_on_c, 12, 54, 0
17, 22740, Note_on_c, 12, 54, 127
17, 22799, Note_on_c, 12, 54, 0
17, 22800, Note_on_c, 12, 52, 127
17, 22859, Note_on_c, 12, 52, 0
17, 22860, Note_on_c, 12, 50, 127
17, 22979, Note_on_c, 12, 50, 0
17, 22980, Note_on_c, 12, 49, 127
17, 23039, Note_on_c, 12, 49, 0
17, 23040, Note_on_c, 12, 47, 127
17, 23099, Note_on_c, 12, 47, 0
17, 23100, Note_on_c, 12, 59, 127
17, 23159, Note_on_c, 12, 59, 0
17, 23160, Note_on_c, 12, 57, 127
17, 23219, Note_on_c, 12, 57, 0
17, 23220, Note_on_c, 12, 56, 127
17, 23279, Note_on_c, 12, 56, 0
17, 23280, Note_on_c, 12, 56, 127
17, 23339, Note_on_c, 12, 56, 0
17, 23340, Note_on_c, 12, 52, 127
17, 23399, Note_on_c, 12, 52, 0
17, 23400, Note_on_c, 12, 45, 127
17, 23459, Note_on_c, 12, 45, 0
17, 23460, Note_on_c, 12, 57, 127
17, 23519, Note_on_c, 12, 57, 0
17, 23520, Note_on_c, 12, 55, 127
17, 23579, Note_on_c, 12, 55, 0
17, 23580, Note_on_c, 12, 54, 127
17, 23639, Note_on_c, 12, 54, 0
17, 23640, Note_on_c, 12, 54, 127
17, 23699, Note_on_c, 12, 54, 0
17, 23760, Note_on_c, 12, 55, 127
17, 23819, Note_on_c, 12, 55, 0
17, 23820, Note_on_c, 12, 55, 127
17, 23879, Note_on_c, 12, 55, 0
17, 23880, Note_on_c, 12, 54, 127
17, 23939, Note_on_c, 12, 54, 0
17, 23940, Note_on_c, 12, 52, 127
17, 23999, Note_on_c, 12, 52, 0
17, 24000, Note_on_c, 12, 47, 127
17, 24059, Note_on_c, 12, 47, 0
17, 24060, Note_on_c, 12, 50, 127
17, 24119, Note_on_c, 12, 50, 0
17, 24120, Note_on_c, 12, 49, 127
17, 24209, Note_on_c, 12, 49, 0
17, 24210, Note_on_c, 12, 47, 127
17, 24239, Note_on_c, 12, 47, 0
17, 24240, Note_on_c, 12, 45, 127
17, 24299, Note_on_c, 12, 45, 0
17, 24300, Note_on_c, 12, 50, 127
17, 24359, Note_on_c, 12, 50, 0
17, 24360, Note_on_c, 12, 54, 127
17, 24419, Note_on_c, 12, 54, 0
17, 24420, Note_on_c, 12, 57, 127
17, 24479, Note_on_c, 12, 57, 0
17, 24480, Note_on_c, 12, 50, 127
17, 24659, Note_on_c, 12, 50, 0
17, 24840, Note_on_c, 12, 61, 127
17, 24899, Note_on_c, 12, 61, 0
17, 24900, Note_on_c, 12, 59, 127
17, 24929, Note_on_c, 12, 59, 0
17, 24930, Note_on_c, 12, 57, 127
17, 24959, Note_on_c, 12, 57, 0
17, 24960, Note_on_c, 12, 55, 127
17, 24989, Note_on_c, 12, 55, 0
17, 24990, Note_on_c, 12, 54, 127
17, 25019, Note_on_c, 12, 54, 0
17, 25020, Note_on_c, 12, 59, 127
17, 25079, Note_on_c, 12, 59, 0
17, 25080, Note_on_c, 12, 64, 127
17, 25139, Note_on_c, 12, 64, 0
17, 25140, Note_on_c, 12, 55, 127
17, 25199, Note_on_c, 12, 55, 0
17, 25200, Note_on_c, 12, 54, 127
17, 25259, Note_on_c, 12, 54, 0
17, 25260, Note_on_c, 12, 56, 127
17, 25319, Note_on_c, 12, 56, 0
17, 25320, Note_on_c, 12, 58, 127
17, 25379, Note_on_c, 12, 58, 0
17, 25380, Note_on_c, 12, 59, 127
17, 25439, Note_on_c, 12, 59, 0
17, 25440, Note_on_c, 12, 57, 127
17, 25469, Note_on_c, 12, 57, 0
17, 25470, Note_on_c, 12, 55, 127
17, 25499, Note_on_c, 12, 55, 0
17, 25500, Note_on_c, 12, 54, 127
17, 25529, Note_on_c, 12, 54, 0
17, 25530, Note_on_c, 12, 52, 127
17, 25559, Note_on_c, 12, 52, 0
17, 25560, Note_on_c, 12, 57, 127
17, 25619, Note_on_c, 12, 57, 0
17, 25620, Note_on_c, 12, 59, 127
17, 25649, Note_on_c, 12, 59, 0
17, 25650, Note_on_c, 12, 61, 127
17, 25679, Note_on_c, 12, 61, 0
17, 25680, Note_on_c, 12, 62, 127
17, 25799, Note_on_c, 12, 62, 0
17, 25800, Note_on_c, 12, 61, 127
17, 25829, Note_on_c, 12, 61, 0
17, 25830, Note_on_c, 12, 59, 127
17, 25859, Note_on_c, 12, 59, 0
17, 25860, Note_on_c, 12, 57, 127
17, 25889, Note_on_c, 12, 57, 0
17, 25890, Note_on_c, 12, 55, 127
17, 25919, Note_on_c, 12, 55, 0
17, 25920, Note_on_c, 12, 54, 127
17, 25979, Note_on_c, 12, 54, 0
17, 25980, Note_on_c, 12, 56, 127
17, 26009, Note_on_c, 12, 56, 0
17, 26010, Note_on_c, 12, 58, 127
17, 26039, Note_on_c, 12, 58, 0
17, 26040, Note_on_c, 12, 59, 127
17, 26159, Note_on_c, 12, 59, 0
17, 26160, Note_on_c, 12, 57, 127
17, 26189, Note_on_c, 12, 57, 0
17, 26190, Note_on_c, 12, 55, 127
17, 26219, Note_on_c, 12, 55, 0
17, 26220, Note_on_c, 12, 54, 127
17, 26249, Note_on_c, 12, 54, 0
17, 26250, Note_on_c, 12, 52, 127
17, 26279, Note_on_c, 12, 52, 0
17, 26280, Note_on_c, 12, 50, 127
17, 26339, Note_on_c, 12, 50, 0
17, 26340, Note_on_c, 12, 52, 127
17, 26369, Note_on_c, 12, 52, 0
17, 26370, Note_on_c, 12, 54, 127
17, 26399, Note_on_c, 12, 54, 0
17, 26400, Note_on_c, 12, 55, 127
17, 26519, Note_on_c, 12, 55, 0
17, 26520, Note_on_c, 12, 54, 127
17, 26549, Note_on_c, 12, 54, 0
17, 26550, Note_on_c, 12, 52, 127
17, 26579, Note_on_c, 12, 52, 0
17, 26580, Note_on_c, 12, 50, 127
17, 26609, Note_on_c, 12, 50, 0
17, 26610, Note_on_c, 12, 49, 127
17, 26639, Note_on_c, 12, 49, 0
17, 26640, Note_on_c, 12, 47, 127
17, 26699, Note_on_c, 12, 47, 0
17, 26700, Note_on_c, 12, 49, 127
17, 26729, Note_on_c, 12, 49, 0
17, 26730, Note_on_c, 12, 50, 127
17, 26759, Note_on_c, 12, 50, 0
17, 26760, Note_on_c, 12, 52, 127
17, 26819, Note_on_c, 12, 52, 0
17, 26820, Note_on_c, 12, 45, 127
17, 26879, Note_on_c, 12, 45, 0
17, 26880, Note_on_c, 12, 47, 127
17, 26909, Note_on_c, 12, 47, 0
17, 26910, Note_on_c, 12, 49, 127
17, 26939, Note_on_c, 12, 49, 0
17, 26940, Note_on_c, 12, 50, 127
17, 27059, Note_on_c, 12, 50, 0
17, 27060, Note_on_c, 12, 52, 127
17, 27089, Note_on_c, 12, 52, 0
17, 27090, Note_on_c, 12, 54, 127
17, 27119, Note_on_c, 12, 54, 0
17, 27120, Note_on_c, 12, 55, 127
17, 27239, Note_on_c, 12, 55, 0
17, 27240, Note_on_c, 12, 54, 127
17, 27299, Note_on_c, 12, 54, 0
17, 27300, Note_on_c, 12, 59, 127
17, 27359, Note_on_c, 12, 59, 0
17, 27360, Note_on_c, 12, 52, 127
17, 27419, Note_on_c, 12, 52, 0
17, 27420, Note_on_c, 12, 57, 127
17, 27479, Note_on_c, 12, 57, 0
17, 27480, Note_on_c, 12, 45, 127
17, 27539, Note_on_c, 12, 45, 0
17, 27540, Note_on_c, 12, 50, 127
17, 27599, Note_on_c, 12, 50, 0
17, 27600, Note_on_c, 12, 50, 127
17, 27659, Note_on_c, 12, 50, 0
17, 27900, Note_on_c, 12, 59, 127
17, 27959, Note_on_c, 12, 59, 0
17, 27960, Note_on_c, 12, 57, 127
17, 27989, Note_on_c, 12, 57, 0
17, 27990, Note_on_c, 12, 56, 127
17, 28019, Note_on_c, 12, 56, 0
17, 28020, Note_on_c, 12, 54, 127
17, 28049, Note_on_c, 12, 54, 0
17, 28050, Note_on_c, 12, 52, 127
17, 28079, Note_on_c, 12, 52, 0
17, 28080, Note_on_c, 12, 57, 127
17, 28319, Note_on_c, 12, 57, 0
17, 28320, Note_on_c, 12, 50, 127
17, 28379, Note_on_c, 12, 50, 0
17, 28440, Note_on_c, 12, 55, 127
17, 28499, Note_on_c, 12, 55, 0
17, 28500, Note_on_c, 12, 54, 127
17, 28529, Note_on_c, 12, 54, 0
17, 28530, Note_on_c, 12, 52, 127
17, 28559, Note_on_c, 12, 52, 0
17, 28560, Note_on_c, 12, 50, 127
17, 28589, Note_on_c, 12, 50, 0
17, 28590, Note_on_c, 12, 49, 127
17, 28619, Note_on_c, 12, 49, 0
17, 28620, Note_on_c, 12, 54, 127
17, 28679, Note_on_c, 12, 54, 0
17, 28680, Note_on_c, 12, 55, 127
17, 28709, Note_on_c, 12, 55, 0
17, 28710, Note_on_c, 12, 57, 127
17, 28739, Note_on_c, 12, 57, 0
17, 28740, Note_on_c, 12, 59, 127
17, 28799, Note_on_c, 12, 59, 0
17, 28800, Note_on_c, 12, 52, 127
17, 28859, Note_on_c, 12, 52, 0
17, 28860, Note_on_c, 12, 57, 127
17, 28919, Note_on_c, 12, 57, 0
17, 28920, Note_on_c, 12, 45, 127
17, 28979, Note_on_c, 12, 45, 0
17, 28980, Note_on_c, 12, 50, 127
17, 29039, Note_on_c, 12, 50, 0
17, 29040, Note_on_c, 12, 52, 127
17, 29069, Note_on_c, 12, 52, 0
17, 29070, Note_on_c, 12, 54, 127
17, 29099, Note_on_c, 12, 54, 0
17, 29100, Note_on_c, 12, 55, 127
17, 29159, Note_on_c, 12, 55, 0
17, 29160, Note_on_c, 12, 49, 127
17, 29219, Note_on_c, 12, 49, 0
17, 29220, Note_on_c, 12, 54, 127
17, 29279, Note_on_c, 12, 54, 0
17, 29280, Note_on_c, 12, 54, 127
17, 29339, Note_on_c, 12, 54, 0
17, 29340, Note_on_c, 12, 47, 127
17, 29399, Note_on_c, 12, 47, 0
17, 29400, Note_on_c, 12, 49, 127
17, 29429, Note_on_c, 12, 49, 0
17, 29430, Note_on_c, 12, 50, 127
17, 29459, Note_on_c, 12, 50, 0
17, 29460, Note_on_c, 12, 52, 127
17, 29579, Note_on_c, 12, 52, 0
17, 29580, Note_on_c, 12, 50, 127
17, 29639, Note_on_c, 12, 50, 0
17, 29640, Note_on_c, 12, 55, 127
17, 29759, Note_on_c, 12, 55, 0
17, 29760, Note_on_c, 12, 54, 127
17, 29819, Note_on_c, 12, 54, 0
17, 29820, Note_on_c, 12, 59, 127
17, 29939, Note_on_c, 12, 59, 0
17, 29940, Note_on_c, 12, 57, 127
17, 29999, Note_on_c, 12, 57, 0
17, 30000, Note_on_c, 12, 62, 127
17, 30059, Note_on_c, 12, 62, 0
17, 30060, Note_on_c, 12, 56, 127
17, 30119, Note_on_c, 12, 56, 0
17, 30120, Note_on_c, 12, 58, 127
17, 30179, Note_on_c, 12, 58, 0
17, 30180, Note_on_c, 12, 59, 127
17, 30239, Note_on_c, 12, 59, 0
17, 30240, Note_on_c, 12, 55, 127
17, 30299, Note_on_c, 12, 55, 0
17, 30300, Note_on_c, 12, 52, 127
17, 30359, Note_on_c, 12, 52, 0
17, 30360, Note_on_c, 12, 54, 127
17, 30419, Note_on_c, 12, 54, 0
17, 30420, Note_on_c, 12, 47, 127
17, 30479, Note_on_c, 12, 47, 0
17, 30480, Note_on_c, 12, 47, 127
17, 30539, Note_on_c, 12, 47, 0
17, 33300, Note_on_c, 12, 59, 127
17, 33359, Note_on_c, 12, 59, 0
17, 33360, Note_on_c, 12, 62, 127
17, 33419, Note_on_c, 12, 62, 0
17, 33420, Note_on_c, 12, 59, 127
17, 33479, Note_on_c, 12, 59, 0
17, 33480, Note_on_c, 12, 56, 127
17, 33539, Note_on_c, 12, 56, 0
17, 33540, Note_on_c, 12, 52, 127
17, 33599, Note_on_c, 12, 52, 0
17, 33600, Note_on_c, 12, 50, 127
17, 33659, Note_on_c, 12, 50, 0
17, 33660, Note_on_c, 12, 49, 127
17, 33719, Note_on_c, 12, 49, 0
17, 33720, Note_on_c, 12, 61, 127
17, 33779, Note_on_c, 12, 61, 0
17, 33780, Note_on_c, 12, 59, 127
17, 33839, Note_on_c, 12, 59, 0
17, 33840, Note_on_c, 12, 57, 127
17, 33899, Note_on_c, 12, 57, 0
17, 33900, Note_on_c, 12, 45, 127
17, 33959, Note_on_c, 12, 45, 0
17, 34020, Note_on_c, 12, 52, 127
17, 34079, Note_on_c, 12, 52, 0
17, 34080, Note_on_c, 12, 52, 127
17, 34139, Note_on_c, 12, 52, 0
17, 34140, Note_on_c, 12, 50, 127
17, 34199, Note_on_c, 12, 50, 0
17, 34200, Note_on_c, 12, 49, 127
17, 34259, Note_on_c, 12, 49, 0
17, 34260, Note_on_c, 12, 45, 127
17, 34319, Note_on_c, 12, 45, 0
17, 34320, Note_on_c, 12, 55, 127
17, 34379, Note_on_c, 12, 55, 0
17, 34380, Note_on_c, 12, 54, 127
17, 34439, Note_on_c, 12, 54, 0
17, 34440, Note_on_c, 12, 54, 127
17, 34499, Note_on_c, 12, 54, 0
17, 34500, Note_on_c, 12, 52, 127
17, 34559, Note_on_c, 12, 52, 0
17, 34560, Note_on_c, 12, 50, 127
17, 34619, Note_on_c, 12, 50, 0
17, 34620, Note_on_c, 12, 62, 127
17, 34679, Note_on_c, 12, 62, 0
17, 34680, Note_on_c, 12, 61, 127
17, 34739, Note_on_c, 12, 61, 0
17, 34740, Note_on_c, 12, 59, 127
17, 34769, Note_on_c, 12, 59, 0
17, 34770, Note_on_c, 12, 58, 127
17, 34799, Note_on_c, 12, 58, 0
17, 34800, Note_on_c, 12, 59, 127
17, 34859, Note_on_c, 12, 59, 0
17, 34860, Note_on_c, 12, 56, 127
17, 34919, Note_on_c, 12, 56, 0
17, 34920, Note_on_c, 12, 49, 127
17, 34979, Note_on_c, 12, 49, 0
17, 34980, Note_on_c, 12, 61, 127
17, 35039, Note_on_c, 12, 61, 0
17, 35040, Note_on_c, 12, 59, 127
17, 35099, Note_on_c, 12, 59, 0
17, 35100, Note_on_c, 12, 58, 127
17, 35129, Note_on_c, 12, 58, 0
17, 35130, Note_on_c, 12, 56, 127
17, 35159, Note_on_c, 12, 56, 0
17, 35160, Note_on_c, 12, 58, 127
17, 35219, Note_on_c, 12, 58, 0
17, 35220, Note_on_c, 12, 54, 127
17, 35279, Note_on_c, 12, 54, 0
17, 35280, Note_on_c, 12, 47, 127
17, 35339, Note_on_c, 12, 47, 0
17, 35340, Note_on_c, 12, 59, 127
17, 35399, Note_on_c, 12, 59, 0
17, 35400, Note_on_c, 12, 57, 127
17, 35459, Note_on_c, 12, 57, 0
17, 35460, Note_on_c, 12, 56, 127
17, 35519, Note_on_c, 12, 56, 0
17, 35520, Note_on_c, 12, 51, 127
17, 35579, Note_on_c, 12, 51, 0
17, 35580, Note_on_c, 12, 54, 127
17, 35639, Note_on_c, 12, 54, 0
17, 35640, Note_on_c, 12, 53, 127
17, 35699, Note_on_c, 12, 53, 0
17, 35700, Note_on_c, 12, 56, 127
17, 35759, Note_on_c, 12, 56, 0
17, 35760, Note_on_c, 12, 59, 127
17, 35819, Note_on_c, 12, 59, 0
17, 35820, Note_on_c, 12, 57, 127
17, 35879, Note_on_c, 12, 57, 0
17, 35880, Note_on_c, 12, 45, 127
17, 35939, Note_on_c, 12, 45, 0
17, 35940, Note_on_c, 12, 49, 127
17, 35999, Note_on_c, 12, 49, 0
17, 36000, Note_on_c, 12, 54, 127
17, 36119, Note_on_c, 12, 54, 0
17, 36120, Note_on_c, 12, 54, 127
17, 36179, Note_on_c, 12, 54, 0
17, 42060, Note_on_c, 12, 50, 127
17, 42119, Note_on_c, 12, 50, 0
17, 42120, Note_on_c, 12, 50, 127
17, 42179, Note_on_c, 12, 50, 0
17, 42180, Note_on_c, 12, 50, 127
17, 42239, Note_on_c, 12, 50, 0
17, 42240, Note_on_c, 12, 50, 127
17, 42299, Note_on_c, 12, 50, 0
17, 42300, Note_on_c, 12, 45, 127
17, 42359, Note_on_c, 12, 45, 0
17, 42720, Note_on_c, 12, 57, 127
17, 42779, Note_on_c, 12, 57, 0
17, 42780, Note_on_c, 12, 57, 127
17, 42839, Note_on_c, 12, 57, 0
17, 42840, Note_on_c, 12, 62, 127
17, 42869, Note_on_c, 12, 62, 0
17, 42870, Note_on_c, 12, 57, 127
17, 42899, Note_on_c, 12, 57, 0
17, 42900, Note_on_c, 12, 54, 127
17, 42929, Note_on_c, 12, 54, 0
17, 42930, Note_on_c, 12, 50, 127
17, 42959, Note_on_c, 12, 50, 0
17, 42960, Note_on_c, 12, 57, 127
17, 43019, Note_on_c, 12, 57, 0
17, 43020, Note_on_c, 12, 57, 127
17, 43079, Note_on_c, 12, 57, 0
17, 43200, Note_on_c, 12, 62, 127
17, 43259, Note_on_c, 12, 62, 0
17, 43260, Note_on_c, 12, 50, 127
17, 43319, Note_on_c, 12, 50, 0
17, 43440, Note_on_c, 12, 62, 127
17, 43499, Note_on_c, 12, 62, 0
17, 43500, Note_on_c, 12, 62, 127
17, 43559, Note_on_c, 12, 62, 0
17, 43560, Note_on_c, 12, 50, 127
17, 43619, Note_on_c, 12, 50, 0
17, 43860, Note_on_c, 12, 50, 127
17, 43919, Note_on_c, 12, 50, 0
17, 43920, Note_on_c, 12, 54, 127
17, 43979, Note_on_c, 12, 54, 0
17, 43980, Note_on_c, 12, 50, 127
17, 44039, Note_on_c, 12, 50, 0
17, 44040, Note_on_c, 12, 57, 127
17, 44099, Note_on_c, 12, 57, 0
17, 44100, Note_on_c, 12, 45, 127
17, 44159, Note_on_c, 12, 45, 0
17, 44160, Note_on_c, 12, 57, 127
17, 44219, Note_on_c, 12, 57, 0
17, 44220, Note_on_c, 12, 57, 127
17, 44279, Note_on_c, 12, 57, 0
17, 44280, Note_on_c, 12, 61, 127
17, 44339, Note_on_c, 12, 61, 0
17, 44340, Note_on_c, 12, 57, 127
17, 44399, Note_on_c, 12, 57, 0
17, 44400, Note_on_c, 12, 62, 127
17, 44459, Note_on_c, 12, 62, 0
17, 44460, Note_on_c, 12, 50, 127
17, 44519, Note_on_c, 12, 50, 0
17, 44520, Note_on_c, 12, 62, 127
17, 44579, Note_on_c, 12, 62, 0
17, 44580, Note_on_c, 12, 54, 127
17, 44639, Note_on_c, 12, 54, 0
17, 44640, Note_on_c, 12, 50, 127
17, 44699, Note_on_c, 12, 50, 0
17, 44700, Note_on_c, 12, 54, 127
17, 44759, Note_on_c, 12, 54, 0
17, 44760, Note_on_c, 12, 55, 127
17, 44819, Note_on_c, 12, 55, 0
17, 44820, Note_on_c, 12, 54, 127
17, 44879, Note_on_c, 12, 54, 0
17, 44880, Note_on_c, 12, 52, 127
17, 44939, Note_on_c, 12, 52, 0
17, 44940, Note_on_c, 12, 62, 127
17, 44999, Note_on_c, 12, 62, 0
17, 45000, Note_on_c, 12, 61, 127
17, 45059, Note_on_c, 12, 61, 0
17, 45060, Note_on_c, 12, 59, 127
17, 45119, Note_on_c, 12, 59, 0
17, 45120, Note_on_c, 12, 57, 127
17, 45239, Note_on_c, 12, 57, 0
17, 45540, Note_on_c, 12, 52, 127
17, 45569, Note_on_c, 12, 52, 0
17, 45570, Note_on_c, 12, 54, 127
17, 45599, Note_on_c, 12, 54, 0
17, 45600, Note_on_c, 12, 55, 127
17, 45614, Note_on_c, 12, 55, 0
17, 45615, Note_on_c, 12, 54, 127
17, 45629, Note_on_c, 12, 54, 0
17, 45630, Note_on_c, 12, 52, 127
17, 45644, Note_on_c, 12, 52, 0
17, 45645, Note_on_c, 12, 54, 127
17, 45659, Note_on_c, 12, 54, 0
17, 45660, Note_on_c, 12, 55, 127
17, 45719, Note_on_c, 12, 55, 0
17, 45720, Note_on_c, 12, 55, 127
17, 45779, Note_on_c, 12, 55, 0
17, 45780, Note_on_c, 12, 57, 127
17, 45839, Note_on_c, 12, 57, 0
17, 45840, Note_on_c, 12, 59, 127
17, 45899, Note_on_c, 12, 59, 0
17, 45900, Note_on_c, 12, 59, 127
17, 45959, Note_on_c, 12, 59, 0
17, 45960, Note_on_c, 12, 61, 127
17, 46019, Note_on_c, 12, 61, 0
17, 46020, Note_on_c, 12, 62, 127
17, 46079, Note_on_c, 12, 62, 0
17, 46080, Note_on_c, 12, 61, 127
17, 46139, Note_on_c, 12, 61, 0
17, 46140, Note_on_c, 12, 59, 127
17, 46199, Note_on_c, 12, 59, 0
17, 46200, Note_on_c, 12, 57, 127
17, 46259, Note_on_c, 12, 57, 0
17, 46260, Note_on_c, 12, 57, 127
17, 46319, Note_on_c, 12, 57, 0
17, 46440, Note_on_c, 12, 49, 127
17, 46469, Note_on_c, 12, 49, 0
17, 46470, Note_on_c, 12, 51, 127
17, 46499, Note_on_c, 12, 51, 0
17, 46500, Note_on_c, 12, 52, 127
17, 46514, Note_on_c, 12, 52, 0
17, 46515, Note_on_c, 12, 51, 127
17, 46529, Note_on_c, 12, 51, 0
17, 46530, Note_on_c, 12, 49, 127
17, 46544, Note_on_c, 12, 49, 0
17, 46545, Note_on_c, 12, 51, 127
17, 46559, Note_on_c, 12, 51, 0
17, 46560, Note_on_c, 12, 52, 127
17, 46619, Note_on_c, 12, 52, 0
17, 46620, Note_on_c, 12, 52, 127
17, 46679, Note_on_c, 12, 52, 0
17, 46680, Note_on_c, 12, 54, 127
17, 46739, Note_on_c, 12, 54, 0
17, 46740, Note_on_c, 12, 55, 127
17, 46799, Note_on_c, 12, 55, 0
17, 46800, Note_on_c, 12, 54, 127
17, 46859, Note_on_c, 12, 54, 0
17, 46860, Note_on_c, 12, 52, 127
17, 46919, Note_on_c, 12, 52, 0
17, 46920, Note_on_c, 12, 50, 127
17, 46979, Note_on_c, 12, 50, 0
17, 46980, Note_on_c, 12, 50, 127
17, 47039, Note_on_c, 12, 50, 0
17, 47040, Note_on_c, 12, 52, 127
17, 47099, Note_on_c, 12, 52, 0
17, 47100, Note_on_c, 12, 54, 127
17, 47129, Note_on_c, 12, 54, 0
17, 47130, Note_on_c, 12, 52, 127
17, 47159, Note_on_c, 12, 52, 0
17, 47160, Note_on_c, 12, 54, 127
17, 47189, Note_on_c, 12, 54, 0
17, 47190, Note_on_c, 12, 57, 127
17, 47219, Note_on_c, 12, 57, 0
17, 47220, Note_on_c, 12, 56, 127
17, 47249, Note_on_c, 12, 56, 0
17, 47250, Note_on_c, 12, 59, 127
17, 47279, Note_on_c, 12, 59, 0
17, 47280, Note_on_c, 12, 57, 127
17, 47309, Note_on_c, 12, 57, 0
17, 47310, Note_on_c, 12, 56, 127
17, 47339, Note_on_c, 12, 56, 0
17, 47340, Note_on_c, 12, 57, 127
17, 47369, Note_on_c, 12, 57, 0
17, 47370, Note_on_c, 12, 59, 127
17, 47399, Note_on_c, 12, 59, 0
17, 47400, Note_on_c, 12, 57, 127
17, 47429, Note_on_c, 12, 57, 0
17, 47430, Note_on_c, 12, 59, 127
17, 47459, Note_on_c, 12, 59, 0
17, 47460, Note_on_c, 12, 55, 127
17, 47519, Note_on_c, 12, 55, 0
17, 47520, Note_on_c, 12, 55, 127
17, 47579, Note_on_c, 12, 55, 0
17, 47580, Note_on_c, 12, 54, 127
17, 47639, Note_on_c, 12, 54, 0
17, 47640, Note_on_c, 12, 52, 127
17, 47699, Note_on_c, 12, 52, 0
17, 47700, Note_on_c, 12, 52, 127
17, 47759, Note_on_c, 12, 52, 0
17, 47760, Note_on_c, 12, 50, 127
17, 47819, Note_on_c, 12, 50, 0
17, 47820, Note_on_c, 12, 49, 127
17, 47849, Note_on_c, 12, 49, 0
17, 47850, Note_on_c, 12, 47, 127
17, 47879, Note_on_c, 12, 47, 0
17, 47880, Note_on_c, 12, 49, 127
17, 47909, Note_on_c, 12, 49, 0
17, 47910, Note_on_c, 12, 50, 127
17, 47939, Note_on_c, 12, 50, 0
17, 47940, Note_on_c, 12, 47, 127
17, 47969, Note_on_c, 12, 47, 0
17, 47970, Note_on_c, 12, 49, 127
17, 47999, Note_on_c, 12, 49, 0
17, 48000, Note_on_c, 12, 46, 127
17, 48029, Note_on_c, 12, 46, 0
17, 48030, Note_on_c, 12, 55, 127
17, 48059, Note_on_c, 12, 55, 0
17, 48060, Note_on_c, 12, 54, 127
17, 48089, Note_on_c, 12, 54, 0
17, 48090, Note_on_c, 12, 55, 127
17, 48119, Note_on_c, 12, 55, 0
17, 48120, Note_on_c, 12, 52, 127
17, 48149, Note_on_c, 12, 52, 0
17, 48150, Note_on_c, 12, 54, 127
17, 48179, Note_on_c, 12, 54, 0
17, 48180, Note_on_c, 12, 50, 127
17, 48239, Note_on_c, 12, 50, 0
17, 48240, Note_on_c, 12, 62, 127
17, 48299, Note_on_c, 12, 62, 0
17, 48300, Note_on_c, 12, 61, 127
17, 48359, Note_on_c, 12, 61, 0
17, 48360, Note_on_c, 12, 59, 127
17, 48479, Note_on_c, 12, 59, 0
17, 48480, Note_on_c, 12, 57, 127
17, 48539, Note_on_c, 12, 57, 0
17, 48540, Note_on_c, 12, 56, 127
17, 48599, Note_on_c, 12, 56, 0
17, 48600, Note_on_c, 12, 56, 127
17, 48659, Note_on_c, 12, 56, 0
17, 48660, Note_on_c, 12, 54, 127
17, 48719, Note_on_c, 12, 54, 0
17, 48720, Note_on_c, 12, 52, 127
17, 48779, Note_on_c, 12, 52, 0
17, 48780, Note_on_c, 12, 52, 127
17, 48839, Note_on_c, 12, 52, 0
17, 48840, Note_on_c, 12, 50, 127
17, 48899, Note_on_c, 12, 50, 0
17, 48900, Note_on_c, 12, 49, 127
17, 48959, Note_on_c, 12, 49, 0
17, 48960, Note_on_c, 12, 61, 127
17, 49019, Note_on_c, 12, 61, 0
17, 49020, Note_on_c, 12, 59, 127
17, 49079, Note_on_c, 12, 59, 0
17, 49080, Note_on_c, 12, 57, 127
17, 49199, Note_on_c, 12, 57, 0
17, 49200, Note_on_c, 12, 56, 127
17, 49259, Note_on_c, 12, 56, 0
17, 49260, Note_on_c, 12, 54, 127
17, 49319, Note_on_c, 12, 54, 0
17, 49320, Note_on_c, 12, 54, 127
17, 49379, Note_on_c, 12, 54, 0
17, 49380, Note_on_c, 12, 52, 127
17, 49439, Note_on_c, 12, 52, 0
17, 49440, Note_on_c, 12, 51, 127
17, 49499, Note_on_c, 12, 51, 0
17, 49500, Note_on_c, 12, 51, 127
17, 49559, Note_on_c, 12, 51, 0
17, 49560, Note_on_c, 12, 47, 127
17, 49619, Note_on_c, 12, 47, 0
17, 49620, Note_on_c, 12, 52, 127
17, 49679, Note_on_c, 12, 52, 0
17, 49680, Note_on_c, 12, 52, 127
17, 49739, Note_on_c, 12, 52, 0
17, 49740, Note_on_c, 12, 50, 127
17, 49799, Note_on_c, 12, 50, 0
17, 49800, Note_on_c, 12, 49, 127
17, 49859, Note_on_c, 12, 49, 0
17, 49860, Note_on_c, 12, 49, 127
17, 49919, Note_on_c, 12, 49, 0
17, 49980, Note_on_c, 12, 50, 127
17, 50039, Note_on_c, 12, 50, 0
17, 50040, Note_on_c, 12, 62, 127
17, 50099, Note_on_c, 12, 62, 0
17, 50100, Note_on_c, 12, 61, 127
17, 50159, Note_on_c, 12, 61, 0
17, 50160, Note_on_c, 12, 59, 127
17, 50219, Note_on_c, 12, 59, 0
17, 50220, Note_on_c, 12, 54, 127
17, 50279, Note_on_c, 12, 54, 0
17, 50280, Note_on_c, 12, 57, 127
17, 50339, Note_on_c, 12, 57, 0
17, 50340, Note_on_c, 12, 56, 127
17, 50429, Note_on_c, 12, 56, 0
17, 50430, Note_on_c, 12, 54, 127
17, 50459, Note_on_c, 12, 54, 0
17, 50460, Note_on_c, 12, 52, 127
17, 50519, Note_on_c, 12, 52, 0
17, 50520, Note_on_c, 12, 57, 127
17, 50579, Note_on_c, 12, 57, 0
17, 50580, Note_on_c, 12, 50, 127
17, 50639, Note_on_c, 12, 50, 0
17, 50640, Note_on_c, 12, 52, 127
17, 50699, Note_on_c, 12, 52, 0
17, 50700, Note_on_c, 12, 57, 127
17, 50819, Note_on_c, 12, 57, 0
17, 52140, Note_on_c, 12, 50, 127
17, 52199, Note_on_c, 12, 50, 0
17, 52200, Note_on_c, 12, 50, 127
17, 52259, Note_on_c, 12, 50, 0
17, 52260, Note_on_c, 12, 50, 127
17, 52319, Note_on_c, 12, 50, 0
17, 52320, Note_on_c, 12, 50, 127
17, 52379, Note_on_c, 12, 50, 0
17, 52380, Note_on_c, 12, 45, 127
17, 52439, Note_on_c, 12, 45, 0
17, 52800, Note_on_c, 12, 57, 127
17, 52859, Note_on_c, 12, 57, 0
17, 52860, Note_on_c, 12, 57, 127
17, 52919, Note_on_c, 12, 57, 0
17, 52920, Note_on_c, 12, 62, 127
17, 52949, Note_on_c, 12, 62, 0
17, 52950, Note_on_c, 12, 57, 127
17, 52979, Note_on_c, 12, 57, 0
17, 52980, Note_on_c, 12, 54, 127
17, 53009, Note_on_c, 12, 54, 0
17, 53010, Note_on_c, 12, 50, 127
17, 53039, Note_on_c, 12, 50, 0
17, 53040, Note_on_c, 12, 57, 127
17, 53099, Note_on_c, 12, 57, 0
17, 53100, Note_on_c, 12, 57, 127
17, 53159, Note_on_c, 12, 57, 0
17, 53280, Note_on_c, 12, 62, 127
17, 53339, Note_on_c, 12, 62, 0
17, 53340, Note_on_c, 12, 50, 127
17, 53399, Note_on_c, 12, 50, 0
17, 53520, Note_on_c, 12, 62, 127
17, 53579, Note_on_c, 12, 62, 0
17, 53580, Note_on_c, 12, 62, 127
17, 53639, Note_on_c, 12, 62, 0
17, 53640, Note_on_c, 12, 50, 127
17, 53699, Note_on_c, 12, 50, 0
17, 53940, Note_on_c, 12, 50, 127
17, 53999, Note_on_c, 12, 50, 0
17, 54000, Note_on_c, 12, 54, 127
17, 54059, Note_on_c, 12, 54, 0
17, 54060, Note_on_c, 12, 50, 127
17, 54119, Note_on_c, 12, 50, 0
17, 54120, Note_on_c, 12, 57, 127
17, 54179, Note_on_c, 12, 57, 0
17, 54180, Note_on_c, 12, 45, 127
17, 54239, Note_on_c, 12, 45, 0
17, 54240, Note_on_c, 12, 57, 127
17, 54299, Note_on_c, 12, 57, 0
17, 54300, Note_on_c, 12, 57, 127
17, 54359, Note_on_c, 12, 57, 0
17, 54360, Note_on_c, 12, 61, 127
17, 54419, Note_on_c, 12, 61, 0
17, 54420, Note_on_c, 12, 57, 127
17, 54479, Note_on_c, 12, 57, 0
17, 54480, Note_on_c, 12, 62, 127
17, 54539, Note_on_c, 12, 62, 0
17, 54540, Note_on_c, 12, 50, 127
17, 54599, Note_on_c, 12, 50, 0
17, 54600, Note_on_c, 12, 62, 127
17, 54659, Note_on_c, 12, 62, 0
17, 54660, Note_on_c, 12, 54, 127
17, 54719, Note_on_c, 12, 54, 0
17, 54720, Note_on_c, 12, 54, 127
17, 54779, Note_on_c, 12, 54, 0
17, 54780, Note_on_c, 12, 54, 127
17, 54839, Note_on_c, 12, 54, 0
17, 54840, Note_on_c, 12, 55, 127
17, 54899, Note_on_c, 12, 55, 0
17, 54900, Note_on_c, 12, 54, 127
17, 54959, Note_on_c, 12, 54, 0
17, 54960, Note_on_c, 12, 52, 127
17, 55019, Note_on_c, 12, 52, 0
17, 55020, Note_on_c, 12, 62, 127
17, 55079, Note_on_c, 12, 62, 0
17, 55080, Note_on_c, 12, 61, 127
17, 55139, Note_on_c, 12, 61, 0
17, 55140, Note_on_c, 12, 59, 127
17, 55199, Note_on_c, 12, 59, 0
17, 55200, Note_on_c, 12, 57, 127
17, 55259, Note_on_c, 12, 57, 0
17, 55260, Note_on_c, 12, 52, 127
17, 55289, Note_on_c, 12, 52, 0
17, 55290, Note_on_c, 12, 54, 127
17, 55319, Note_on_c, 12, 54, 0
17, 55320, Note_on_c, 12, 55, 127
17, 55334, Note_on_c, 12, 55, 0
17, 55335, Note_on_c, 12, 54, 127
17, 55349, Note_on_c, 12, 54, 0
17, 55350, Note_on_c, 12, 52, 127
17, 55364, Note_on_c, 12, 52, 0
17, 55365, Note_on_c, 12, 54, 127
17, 55379, Note_on_c, 12, 54, 0
17, 55380, Note_on_c, 12, 55, 127
17, 55439, Note_on_c, 12, 55, 0
17, 55440, Note_on_c, 12, 54, 127
17, 55499, Note_on_c, 12, 54, 0
17, 55500, Note_on_c, 12, 52, 127
17, 55559, Note_on_c, 12, 52, 0
17, 55560, Note_on_c, 12, 59, 127
17, 55619, Note_on_c, 12, 59, 0
17, 55620, Note_on_c, 12, 57, 127
17, 55679, Note_on_c, 12, 57, 0
17, 55680, Note_on_c, 12, 55, 127
17, 55739, Note_on_c, 12, 55, 0
17, 55740, Note_on_c, 12, 54, 127
17, 55799, Note_on_c, 12, 54, 0
17, 55800, Note_on_c, 12, 52, 127
17, 55859, Note_on_c, 12, 52, 0
17, 55860, Note_on_c, 12, 50, 127
17, 55919, Note_on_c, 12, 50, 0
17, 55920, Note_on_c, 12, 57, 127
17, 55979, Note_on_c, 12, 57, 0
17, 55980, Note_on_c, 12, 45, 127
17, 56039, Note_on_c, 12, 45, 0
17, 56160, Note_on_c, 12, 59, 127
17, 56189, Note_on_c, 12, 59, 0
17, 56190, Note_on_c, 12, 61, 127
17, 56219, Note_on_c, 12, 61, 0
17, 56220, Note_on_c, 12, 62, 127
17, 56234, Note_on_c, 12, 62, 0
17, 56235, Note_on_c, 12, 61, 127
17, 56249, Note_on_c, 12, 61, 0
17, 56250, Note_on_c, 12, 59, 127
17, 56264, Note_on_c, 12, 59, 0
17, 56265, Note_on_c, 12, 61, 127
17, 56279, Note_on_c, 12, 61, 0
17, 56280, Note_on_c, 12, 62, 127
17, 56339, Note_on_c, 12, 62, 0
17, 56340, Note_on_c, 12, 60, 127
17, 56399, Note_on_c, 12, 60, 0
17, 56400, Note_on_c, 12, 59, 127
17, 56459, Note_on_c, 12, 59, 0
17, 56460, Note_on_c, 12, 57, 127
17, 56519, Note_on_c, 12, 57, 0
17, 56520, Note_on_c, 12, 54, 127
17, 56579, Note_on_c, 12, 54, 0
17, 56580, Note_on_c, 12, 56, 127
17, 56639, Note_on_c, 12, 56, 0
17, 56640, Note_on_c, 12, 57, 127
17, 56699, Note_on_c, 12, 57, 0
17, 56700, Note_on_c, 12, 57, 127
17, 56759, Note_on_c, 12, 57, 0
17, 56760, Note_on_c, 12, 55, 127
17, 56819, Note_on_c, 12, 55, 0
17, 56820, Note_on_c, 12, 54, 127
17, 56879, Note_on_c, 12, 54, 0
17, 56880, Note_on_c, 12, 52, 127
17, 56939, Note_on_c, 12, 52, 0
17, 56940, Note_on_c, 12, 50, 127
17, 56999, Note_on_c, 12, 50, 0
17, 57000, Note_on_c, 12, 49, 127
17, 57059, Note_on_c, 12, 49, 0
17, 57060, Note_on_c, 12, 45, 127
17, 57119, Note_on_c, 12, 45, 0
17, 57240, Note_on_c, 12, 52, 127
17, 57269, Note_on_c, 12, 52, 0
17, 57270, Note_on_c, 12, 54, 127
17, 57299, Note_on_c, 12, 54, 0
17, 57300, Note_on_c, 12, 55, 127
17, 57314, Note_on_c, 12, 55, 0
17, 57315, Note_on_c, 12, 54, 127
17, 57329, Note_on_c, 12, 54, 0
17, 57330, Note_on_c, 12, 52, 127
17, 57344, Note_on_c, 12, 52, 0
17, 57345, Note_on_c, 12, 54, 127
17, 57359, Note_on_c, 12, 54, 0
17, 57360, Note_on_c, 12, 55, 127
17, 57419, Note_on_c, 12, 55, 0
17, 57420, Note_on_c, 12, 54, 127
17, 57479, Note_on_c, 12, 54, 0
17, 57480, Note_on_c, 12, 52, 127
17, 57539, Note_on_c, 12, 52, 0
17, 57540, Note_on_c, 12, 50, 127
17, 57599, Note_on_c, 12, 50, 0
17, 57600, Note_on_c, 12, 49, 127
17, 57659, Note_on_c, 12, 49, 0
17, 57660, Note_on_c, 12, 47, 127
17, 57719, Note_on_c, 12, 47, 0
17, 57720, Note_on_c, 12, 45, 127
17, 57779, Note_on_c, 12, 45, 0
17, 57780, Note_on_c, 12, 57, 127
17, 57839, Note_on_c, 12, 57, 0
17, 57840, Note_on_c, 12, 55, 127
17, 57899, Note_on_c, 12, 55, 0
17, 57900, Note_on_c, 12, 54, 127
17, 57929, Note_on_c, 12, 54, 0
17, 57930, Note_on_c, 12, 52, 127
17, 57959, Note_on_c, 12, 52, 0
17, 57960, Note_on_c, 12, 54, 127
17, 57989, Note_on_c, 12, 54, 0
17, 57990, Note_on_c, 12, 55, 127
17, 58019, Note_on_c, 12, 55, 0
17, 58020, Note_on_c, 12, 52, 127
17, 58049, Note_on_c, 12, 52, 0
17, 58050, Note_on_c, 12, 54, 127
17, 58079, Note_on_c, 12, 54, 0
17, 58080, Note_on_c, 12, 51, 127
17, 58109, Note_on_c, 12, 51, 0
17, 58110, Note_on_c, 12, 60, 127
17, 58139, Note_on_c, 12, 60, 0
17, 58140, Note_on_c, 12, 59, 127
17, 58169, Note_on_c, 12, 59, 0
17, 58170, Note_on_c, 12, 60, 127
17, 58199, Note_on_c, 12, 60, 0
17, 58200, Note_on_c, 12, 57, 127
17, 58229, Note_on_c, 12, 57, 0
17, 58230, Note_on_c, 12, 59, 127
17, 58259, Note_on_c, 12, 59, 0
17, 58260, Note_on_c, 12, 55, 127
17, 58319, Note_on_c, 12, 55, 0
17, 58320, Note_on_c, 12, 55, 127
17, 58379, Note_on_c, 12, 55, 0
17, 58380, Note_on_c, 12, 54, 127
17, 58439, Note_on_c, 12, 54, 0
17, 58440, Note_on_c, 12, 52, 127
17, 58559, Note_on_c, 12, 52, 0
17, 58560, Note_on_c, 12, 50, 127
17, 58619, Note_on_c, 12, 50, 0
17, 58620, Note_on_c, 12, 49, 127
17, 58679, Note_on_c, 12, 49, 0
17, 58680, Note_on_c, 12, 61, 127
17, 58739, Note_on_c, 12, 61, 0
17, 58740, Note_on_c, 12, 59, 127
17, 58799, Note_on_c, 12, 59, 0
17, 58800, Note_on_c, 12, 57, 127
17, 58859, Note_on_c, 12, 57, 0
17, 58860, Note_on_c, 12, 57, 127
17, 58919, Note_on_c, 12, 57, 0
17, 58920, Note_on_c, 12, 55, 127
17, 58979, Note_on_c, 12, 55, 0
17, 58980, Note_on_c, 12, 54, 127
17, 59039, Note_on_c, 12, 54, 0
17, 59040, Note_on_c, 12, 54, 127
17, 59099, Note_on_c, 12, 54, 0
17, 59100, Note_on_c, 12, 52, 127
17, 59159, Note_on_c, 12, 52, 0
17, 59160, Note_on_c, 12, 50, 127
17, 59279, Note_on_c, 12, 50, 0
17, 59280, Note_on_c, 12, 49, 127
17, 59339, Note_on_c, 12, 49, 0
17, 59340, Note_on_c, 12, 47, 127
17, 59399, Note_on_c, 12, 47, 0
17, 59400, Note_on_c, 12, 59, 127
17, 59459, Note_on_c, 12, 59, 0
17, 59460, Note_on_c, 12, 57, 127
17, 59519, Note_on_c, 12, 57, 0
17, 59520, Note_on_c, 12, 56, 127
17, 59579, Note_on_c, 12, 56, 0
17, 59580, Note_on_c, 12, 56, 127
17, 59639, Note_on_c, 12, 56, 0
17, 59640, Note_on_c, 12, 52, 127
17, 59699, Note_on_c, 12, 52, 0
17, 59700, Note_on_c, 12, 45, 127
17, 59759, Note_on_c, 12, 45, 0
17, 59760, Note_on_c, 12, 57, 127
17, 59819, Note_on_c, 12, 57, 0
17, 59820, Note_on_c, 12, 55, 127
17, 59879, Note_on_c, 12, 55, 0
17, 59880, Note_on_c, 12, 54, 127
17, 59939, Note_on_c, 12, 54, 0
17, 59940, Note_on_c, 12, 54, 127
17, 59999, Note_on_c, 12, 54, 0
17, 60060, Note_on_c, 12, 55, 127
17, 60119, Note_on_c, 12, 55, 0
17, 60120, Note_on_c, 12, 55, 127
17, 60179, Note_on_c, 12, 55, 0
17, 60180, Note_on_c, 12, 54, 127
17, 60239, Note_on_c, 12, 54, 0
17, 60240, Note_on_c, 12, 52, 127
17, 60299, Note_on_c, 12, 52, 0
17, 60300, Note_on_c, 12, 47, 127
17, 60359, Note_on_c, 12, 47, 0
17, 60360, Note_on_c, 12, 50, 127
17, 60419, Note_on_c, 12, 50, 0
17, 60420, Note_on_c, 12, 49, 127
17, 60509, Note_on_c, 12, 49, 0
17, 60510, Note_on_c, 12, 47, 127
17, 60539, Note_on_c, 12, 47, 0
17, 60540, Note_on_c, 12, 45, 127
17, 60599, Note_on_c, 12, 45, 0
17, 60600, Note_on_c, 12, 50, 127
17, 60659, Note_on_c, 12, 50, 0
17, 60660, Note_on_c, 12, 54, 127
17, 60719, Note_on_c, 12, 54, 0
17, 60720, Note_on_c, 12, 57, 127
17, 60779, Note_on_c, 12, 57, 0
17, 60780, Note_on_c, 12, 50, 127
17, 60959, Note_on_c, 12, 50, 0
17, 116460, Note_on_c, 12, 52, 127
17, 116579, Note_on_c, 12, 52, 0
17, 116580, Note_on_c, 12, 53, 127
17, 116699, Note_on_c, 12, 53, 0
17, 116700, Note_on_c, 12, 55, 127
17, 116819, Note_on_c, 12, 55, 0
17, 116820, Note_on_c, 12, 57, 127
17, 116879, Note_on_c, 12, 57, 0
17, 116880, Note_on_c, 12, 59, 127
17, 116939, Note_on_c, 12, 59, 0
17, 116940, Note_on_c, 12, 60, 127
17, 117059, Note_on_c, 12, 60, 0
17, 117060, Note_on_c, 12, 53, 127
17, 117299, Note_on_c, 12, 53, 0
17, 117300, Note_on_c, 12, 52, 127
17, 117395, Note_on_c, 12, 52, 0
17, 117420, Note_on_c, 12, 52, 127
17, 117539, Note_on_c, 12, 52, 0
17, 117540, Note_on_c, 12, 57, 127
17, 117599, Note_on_c, 12, 57, 0
17, 117600, Note_on_c, 12, 55, 127
17, 117659, Note_on_c, 12, 55, 0
17, 117660, Note_on_c, 12, 53, 127
17, 117719, Note_on_c, 12, 53, 0
17, 117720, Note_on_c, 12, 52, 127
17, 117779, Note_on_c, 12, 52, 0
17, 117780, Note_on_c, 12, 50, 127
17, 117839, Note_on_c, 12, 50, 0
17, 117840, Note_on_c, 12, 47, 127
17, 117899, Note_on_c, 12, 47, 0
17, 117900, Note_on_c, 12, 52, 127
17, 118020, Note_on_c, 12, 52, 0
17, 118020, Note_on_c, 12, 45, 127
17, 118379, Note_on_c, 12, 45, 0
17, 118380, Note_on_c, 12, 52, 127
17, 118499, Note_on_c, 12, 52, 0
17, 118500, Note_on_c, 12, 53, 127
17, 118619, Note_on_c, 12, 53, 0
17, 118620, Note_on_c, 12, 55, 127
17, 118739, Note_on_c, 12, 55, 0
17, 118740, Note_on_c, 12, 57, 127
17, 118799, Note_on_c, 12, 57, 0
17, 118800, Note_on_c, 12, 59, 127
17, 118859, Note_on_c, 12, 59, 0
17, 118860, Note_on_c, 12, 60, 127
17, 118979, Note_on_c, 12, 60, 0
17, 118980, Note_on_c, 12, 53, 127
17, 119219, Note_on_c, 12, 53, 0
17, 119220, Note_on_c, 12, 52, 127
17, 119315, Note_on_c, 12, 52, 0
17, 119340, Note_on_c, 12, 52, 127
17, 119459, Note_on_c, 12, 52, 0
17, 119460, Note_on_c, 12, 57, 127
17, 119519, Note_on_c, 12, 57, 0
17, 119520, Note_on_c, 12, 55, 127
17, 119579, Note_on_c, 12, 55, 0
17, 119580, Note_on_c, 12, 53, 127
17, 119639, Note_on_c, 12, 53, 0
17, 119640, Note_on_c, 12, 52, 127
17, 119699, Note_on_c, 12, 52, 0
17, 119700, Note_on_c, 12, 50, 127
17, 119759, Note_on_c, 12, 50, 0
17, 119760, Note_on_c, 12, 47, 127
17, 119819, Note_on_c, 12, 47, 0
17, 119820, Note_on_c, 12, 52, 127
17, 119940, Note_on_c, 12, 52, 0
17, 119940, Note_on_c, 12, 45, 127
17, 120299, Note_on_c, 12, 45, 0
17, 120300, Note_on_c, 12, 57, 127
17, 120419, Note_on_c, 12, 57, 0
17, 120420, Note_on_c, 12, 50, 127
17, 120539, Note_on_c, 12, 50, 0
17, 120540, Note_on_c, 12, 52, 127
17, 120659, Note_on_c, 12, 52, 0
17, 120660, Note_on_c, 12, 53, 127
17, 120719, Note_on_c, 12, 53, 0
17, 120720, Note_on_c, 12, 52, 127
17, 120779, Note_on_c, 12, 52, 0
17, 120780, Note_on_c, 12, 50, 127
17, 120899, Note_on_c, 12, 50, 0
17, 120900, Note_on_c, 12, 45, 127
17, 120959, Note_on_c, 12, 45, 0
17, 120960, Note_on_c, 12, 47, 127
17, 121019, Note_on_c, 12, 47, 0
17, 121020, Note_on_c, 12, 48, 127
17, 121139, Note_on_c, 12, 48, 0
17, 121140, Note_on_c, 12, 48, 127
17, 121235, Note_on_c, 12, 48, 0
17, 121260, Note_on_c, 12, 48, 127
17, 121379, Note_on_c, 12, 48, 0
17, 121380, Note_on_c, 12, 53, 127
17, 121439, Note_on_c, 12, 53, 0
17, 121440, Note_on_c, 12, 52, 127
17, 121499, Note_on_c, 12, 52, 0
17, 121500, Note_on_c, 12, 50, 127
17, 121559, Note_on_c, 12, 50, 0
17, 121560, Note_on_c, 12, 49, 127
17, 121619, Note_on_c, 12, 49, 0
17, 121620, Note_on_c, 12, 50, 127
17, 121739, Note_on_c, 12, 50, 0
17, 121740, Note_on_c, 12, 50, 127
17, 121859, Note_on_c, 12, 50, 0
17, 121860, Note_on_c, 12, 45, 127
17, 122147, Note_on_c, 12, 45, 0
17, 122220, Note_on_c, 12, 54, 127
17, 122339, Note_on_c, 12, 54, 0
17, 122340, Note_on_c, 12, 55, 127
17, 122519, Note_on_c, 12, 55, 0
17, 122520, Note_on_c, 12, 54, 127
17, 122579, Note_on_c, 12, 54, 0
17, 122580, Note_on_c, 12, 52, 127
17, 122759, Note_on_c, 12, 52, 0
17, 122760, Note_on_c, 12, 50, 127
17, 122819, Note_on_c, 12, 50, 0
17, 122820, Note_on_c, 12, 48, 127
17, 122879, Note_on_c, 12, 48, 0
17, 122880, Note_on_c, 12, 45, 127
17, 122939, Note_on_c, 12, 45, 0
17, 122940, Note_on_c, 12, 50, 127
17, 123059, Note_on_c, 12, 50, 0
17, 123060, Note_on_c, 12, 43, 127
17, 123155, Note_on_c, 12, 43, 0
17, 123180, Note_on_c, 12, 48, 127
17, 123239, Note_on_c, 12, 48, 0
17, 123240, Note_on_c, 12, 47, 127
17, 123299, Note_on_c, 12, 47, 0
17, 123300, Note_on_c, 12, 45, 127
17, 123359, Note_on_c, 12, 45, 0
17, 123360, Note_on_c, 12, 47, 127
17, 123419, Note_on_c, 12, 47, 0
17, 123420, Note_on_c, 12, 48, 127
17, 123539, Note_on_c, 12, 48, 0
17, 123540, Note_on_c, 12, 48, 127
17, 123599, Note_on_c, 12, 48, 0
17, 123600, Note_on_c, 12, 47, 127
17, 123659, Note_on_c, 12, 47, 0
17, 123660, Note_on_c, 12, 47, 127
17, 123719, Note_on_c, 12, 47, 0
17, 123720, Note_on_c, 12, 45, 127
17, 123779, Note_on_c, 12, 45, 0
17, 123780, Note_on_c, 12, 44, 127
17, 123899, Note_on_c, 12, 44, 0
17, 123900, Note_on_c, 12, 45, 127
17, 124019, Note_on_c, 12, 45, 0
17, 124020, Note_on_c, 12, 52, 127
17, 124139, Note_on_c, 12, 52, 0
17, 132420, Control_c, 12, 0, 20
17, 132420, Program_c, 12, 67
17, 132480, Note_on_c, 12, 51, 110
17, 132539, Note_on_c, 12, 51, 0
17, 132540, Note_on_c, 12, 51, 110
17, 132599, Note_on_c, 12, 51, 0
17, 132600, Note_on_c, 12, 52, 110
17, 132659, Note_on_c, 12, 52, 0
17, 132660, Note_on_c, 12, 54, 110
17, 132719, Note_on_c, 12, 54, 0
17, 132720, Note_on_c, 12, 54, 110
17, 132779, Note_on_c, 12, 54, 0
17, 132780, Note_on_c, 12, 54, 110
17, 132839, Note_on_c, 12, 54, 0
17, 132840, Note_on_c, 12, 55, 110
17, 132899, Note_on_c, 12, 55, 0
17, 132900, Note_on_c, 12, 57, 110
17, 132959, Note_on_c, 12, 57, 0
17, 133050, Note_on_c, 12, 57, 110
17, 133079, Note_on_c, 12, 57, 0
17, 133080, Note_on_c, 12, 57, 110
17, 133109, Note_on_c, 12, 57, 0
17, 133110, Note_on_c, 12, 59, 110
17, 133139, Note_on_c, 12, 59, 0
17, 133140, Note_on_c, 12, 60, 110
17, 133199, Note_on_c, 12, 60, 0
17, 133200, Note_on_c, 12, 57, 110
17, 133259, Note_on_c, 12, 57, 0
17, 133260, Note_on_c, 12, 54, 110
17, 133319, Note_on_c, 12, 54, 0
17, 133320, Note_on_c, 12, 59, 110
17, 133379, Note_on_c, 12, 59, 0
17, 133380, Note_on_c, 12, 55, 110
17, 133499, Note_on_c, 12, 55, 0
17, 136980, Control_c, 12, 0, 20
17, 136980, Program_c, 12, 67
17, 137040, Note_on_c, 12, 62, 110
17, 137099, Note_on_c, 12, 62, 0
17, 137160, Note_on_c, 12, 50, 110
17, 137189, Note_on_c, 12, 50, 0
17, 137190, Note_on_c, 12, 52, 110
17, 137219, Note_on_c, 12, 52, 0
17, 137220, Note_on_c, 12, 53, 110
17, 137279, Note_on_c, 12, 53, 0
17, 137280, Note_on_c, 12, 53, 110
17, 137339, Note_on_c, 12, 53, 0
17, 137340, Note_on_c, 12, 52, 110
17, 137399, Note_on_c, 12, 52, 0
17, 137400, Note_on_c, 12, 50, 110
17, 137459, Note_on_c, 12, 50, 0
17, 137460, Note_on_c, 12, 61, 110
17, 137519, Note_on_c, 12, 61, 0
17, 137520, Note_on_c, 12, 61, 110
17, 137579, Note_on_c, 12, 61, 0
17, 137610, Note_on_c, 12, 52, 110
17, 137639, Note_on_c, 12, 52, 0
17, 137640, Note_on_c, 12, 53, 110
17, 137669, Note_on_c, 12, 53, 0
17, 137670, Note_on_c, 12, 55, 110
17, 137699, Note_on_c, 12, 55, 0
17, 137700, Note_on_c, 12, 49, 110
17, 137759, Note_on_c, 12, 49, 0
17, 137760, Note_on_c, 12, 49, 110
17, 137819, Note_on_c, 12, 49, 0
17, 137820, Note_on_c, 12, 58, 110
17, 137879, Note_on_c, 12, 58, 0
17, 137880, Note_on_c, 12, 57, 110
17, 137939, Note_on_c, 12, 57, 0
17, 137940, Note_on_c, 12, 53, 110
17, 138059, Note_on_c, 12, 53, 0
17, 141900, Control_c, 12, 0, 20
17, 141900, Program_c, 12, 67
17, 141960, Note_on_c, 12, 62, 110
17, 142019, Note_on_c, 12, 62, 0
17, 142020, Note_on_c, 12, 62, 110
17, 142079, Note_on_c, 12, 62, 0
17, 142080, Note_on_c, 12, 57, 110
17, 142139, Note_on_c, 12, 57, 0
17, 142140, Note_on_c, 12, 54, 110
17, 142199, Note_on_c, 12, 54, 0
17, 142200, Note_on_c, 12, 54, 110
17, 142259, Note_on_c, 12, 54, 0
17, 142260, Note_on_c, 12, 57, 110
17, 142319, Note_on_c, 12, 57, 0
17, 142320, Note_on_c, 12, 54, 110
17, 142379, Note_on_c, 12, 54, 0
17, 142380, Note_on_c, 12, 50, 110
17, 142439, Note_on_c, 12, 50, 0
17, 142530, Note_on_c, 12, 50, 110
17, 142559, Note_on_c, 12, 50, 0
17, 142560, Note_on_c, 12, 56, 110
17, 142589, Note_on_c, 12, 56, 0
17, 142590, Note_on_c, 12, 57, 110
17, 142619, Note_on_c, 12, 57, 0
17, 142620, Note_on_c, 12, 59, 110
17, 142679, Note_on_c, 12, 59, 0
17, 142680, Note_on_c, 12, 52, 110
17, 142739, Note_on_c, 12, 52, 0
17, 142740, Note_on_c, 12, 64, 110
17, 142799, Note_on_c, 12, 64, 0
17, 142800, Note_on_c, 12, 59, 110
17, 142859, Note_on_c, 12, 59, 0
17, 142860, Note_on_c, 12, 60, 110
17, 142979, Note_on_c, 12, 60, 0
17, 146100, Control_c, 12, 0, 20
17, 146100, Program_c, 12, 67
17, 146160, Note_on_c, 12, 54, 110
17, 146219, Note_on_c, 12, 54, 0
17, 146220, Note_on_c, 12, 55, 110
17, 146279, Note_on_c, 12, 55, 0
17, 146280, Note_on_c, 12, 57, 110
17, 146339, Note_on_c, 12, 57, 0
17, 146340, Note_on_c, 12, 55, 110
17, 146399, Note_on_c, 12, 55, 0
17, 146400, Note_on_c, 12, 52, 110
17, 146459, Note_on_c, 12, 52, 0
17, 146460, Note_on_c, 12, 64, 110
17, 146519, Note_on_c, 12, 64, 0
17, 146640, Note_on_c, 12, 52, 110
17, 146699, Note_on_c, 12, 52, 0
17, 146700, Note_on_c, 12, 54, 110
17, 146759, Note_on_c, 12, 54, 0
17, 146760, Note_on_c, 12, 55, 110
17, 146819, Note_on_c, 12, 55, 0
17, 146820, Note_on_c, 12, 55, 110
17, 146879, Note_on_c, 12, 55, 0
17, 146880, Note_on_c, 12, 50, 110
17, 146939, Note_on_c, 12, 50, 0
17, 154980, Control_c, 12, 0, 20
17, 154980, Program_c, 12, 67
17, 154980, Note_on_c, 12, 62, 110
17, 155099, Note_on_c, 12, 62, 0
17, 155100, Note_on_c, 12, 57, 110
17, 155219, Note_on_c, 12, 57, 0
17, 155220, Note_on_c, 12, 55, 110
17, 155279, Note_on_c, 12, 55, 0
17, 155280, Note_on_c, 12, 54, 110
17, 155399, Note_on_c, 12, 54, 0
17, 155400, Note_on_c, 12, 57, 110
17, 155459, Note_on_c, 12, 57, 0
17, 155460, Note_on_c, 12, 50, 110
17, 155489, Note_on_c, 12, 50, 0
17, 155490, Note_on_c, 12, 52, 110
17, 155519, Note_on_c, 12, 52, 0
17, 155520, Note_on_c, 12, 54, 110
17, 155639, Note_on_c, 12, 54, 0
17, 155640, Note_on_c, 12, 52, 110
17, 155699, Note_on_c, 12, 52, 0
17, 155700, Note_on_c, 12, 54, 110
17, 155759, Note_on_c, 12, 54, 0
17, 155760, Note_on_c, 12, 54, 110
17, 155789, Note_on_c, 12, 54, 0
17, 155790, Note_on_c, 12, 52, 110
17, 155819, Note_on_c, 12, 52, 0
17, 155820, Note_on_c, 12, 50, 110
17, 155939, Note_on_c, 12, 50, 0
17, 155940, Note_on_c, 12, 62, 110
17, 156059, Note_on_c, 12, 62, 0
17, 156060, Note_on_c, 12, 57, 110
17, 156179, Note_on_c, 12, 57, 0
17, 156180, Note_on_c, 12, 54, 110
17, 156359, Note_on_c, 12, 54, 0
17, 156360, Note_on_c, 12, 57, 110
17, 156419, Note_on_c, 12, 57, 0
17, 156420, Note_on_c, 12, 50, 110
17, 156449, Note_on_c, 12, 50, 0
17, 156450, Note_on_c, 12, 52, 110
17, 156479, Note_on_c, 12, 52, 0
17, 156480, Note_on_c, 12, 54, 110
17, 156599, Note_on_c, 12, 54, 0
17, 156600, Note_on_c, 12, 57, 110
17, 156659, Note_on_c, 12, 57, 0
17, 156660, Note_on_c, 12, 54, 110
17, 156719, Note_on_c, 12, 54, 0
17, 156720, Note_on_c, 12, 54, 110
17, 156749, Note_on_c, 12, 54, 0
17, 156750, Note_on_c, 12, 52, 110
17, 156779, Note_on_c, 12, 52, 0
17, 156780, Note_on_c, 12, 50, 110
17, 156899, Note_on_c, 12, 50, 0
17, 156900, Note_on_c, 12, 59, 110
17, 156959, Note_on_c, 12, 59, 0
17, 156960, Note_on_c, 12, 55, 110
17, 157019, Note_on_c, 12, 55, 0
17, 157020, Note_on_c, 12, 50, 110
17, 157079, Note_on_c, 12, 50, 0
17, 157080, Note_on_c, 12, 59, 110
17, 157139, Note_on_c, 12, 59, 0
17, 157140, Note_on_c, 12, 57, 110
17, 157199, Note_on_c, 12, 57, 0
17, 157200, Note_on_c, 12, 61, 110
17, 157259, Note_on_c, 12, 61, 0
17, 157260, Note_on_c, 12, 62, 110
17, 157319, Note_on_c, 12, 62, 0
17, 157320, Note_on_c, 12, 50, 110
17, 157379, Note_on_c, 12, 50, 0
17, 157380, Note_on_c, 12, 55, 110
17, 157499, Note_on_c, 12, 55, 0
17, 157500, Note_on_c, 12, 54, 110
17, 157619, Note_on_c, 12, 54, 0
17, 157620, Note_on_c, 12, 52, 110
17, 157679, Note_on_c, 12, 52, 0
17, 157680, Note_on_c, 12, 57, 110
17, 157799, Note_on_c, 12, 57, 0
17, 157800, Note_on_c, 12, 55, 110
17, 157859, Note_on_c, 12, 55, 0
17, 157860, Note_on_c, 12, 54, 110
17, 157919, Note_on_c, 12, 54, 0
17, 157920, Note_on_c, 12, 52, 110
17, 157949, Note_on_c, 12, 52, 0
17, 157950, Note_on_c, 12, 54, 110
17, 157979, Note_on_c, 12, 54, 0
17, 157980, Note_on_c, 12, 55, 110
17, 158009, Note_on_c, 12, 55, 0
17, 158010, Note_on_c, 12, 54, 110
17, 158039, Note_on_c, 12, 54, 0
17, 158040, Note_on_c, 12, 52, 110
17, 158069, Note_on_c, 12, 52, 0
17, 158070, Note_on_c, 12, 50, 110
17, 158099, Note_on_c, 12, 50, 0
17, 158100, Note_on_c, 12, 45, 110
17, 158219, Note_on_c, 12, 45, 0
17, 158340, Note_on_c, 12, 57, 110
17, 158459, Note_on_c, 12, 57, 0
17, 158460, Note_on_c, 12, 52, 110
17, 158579, Note_on_c, 12, 52, 0
17, 158580, Note_on_c, 12, 49, 110
17, 158759, Note_on_c, 12, 49, 0
17, 158760, Note_on_c, 12, 50, 110
17, 158819, Note_on_c, 12, 50, 0
17, 158820, Note_on_c, 12, 52, 110
17, 158849, Note_on_c, 12, 52, 0
17, 158850, Note_on_c, 12, 49, 110
17, 158879, Note_on_c, 12, 49, 0
17, 158880, Note_on_c, 12, 47, 110
17, 158909, Note_on_c, 12, 47, 0
17, 158910, Note_on_c, 12, 45, 110
17, 158939, Note_on_c, 12, 45, 0
17, 158940, Note_on_c, 12, 57, 110
17, 158999, Note_on_c, 12, 57, 0
17, 159000, Note_on_c, 12, 55, 110
17, 159059, Note_on_c, 12, 55, 0
17, 159060, Note_on_c, 12, 55, 110
17, 159089, Note_on_c, 12, 55, 0
17, 159090, Note_on_c, 12, 54, 110
17, 159119, Note_on_c, 12, 54, 0
17, 159120, Note_on_c, 12, 55, 110
17, 159179, Note_on_c, 12, 55, 0
17, 159180, Note_on_c, 12, 54, 110
17, 159299, Note_on_c, 12, 54, 0
17, 159300, Note_on_c, 12, 62, 110
17, 159419, Note_on_c, 12, 62, 0
17, 159420, Note_on_c, 12, 57, 110
17, 159539, Note_on_c, 12, 57, 0
17, 159540, Note_on_c, 12, 55, 110
17, 159599, Note_on_c, 12, 55, 0
17, 159600, Note_on_c, 12, 54, 110
17, 159719, Note_on_c, 12, 54, 0
17, 159720, Note_on_c, 12, 55, 110
17, 159779, Note_on_c, 12, 55, 0
17, 159780, Note_on_c, 12, 57, 110
17, 159809, Note_on_c, 12, 57, 0
17, 159810, Note_on_c, 12, 54, 110
17, 159839, Note_on_c, 12, 54, 0
17, 159840, Note_on_c, 12, 52, 110
17, 159869, Note_on_c, 12, 52, 0
17, 159870, Note_on_c, 12, 50, 110
17, 159899, Note_on_c, 12, 50, 0
17, 159900, Note_on_c, 12, 62, 110
17, 159959, Note_on_c, 12, 62, 0
17, 159960, Note_on_c, 12, 60, 110
17, 160019, Note_on_c, 12, 60, 0
17, 160020, Note_on_c, 12, 60, 110
17, 160049, Note_on_c, 12, 60, 0
17, 160050, Note_on_c, 12, 59, 110
17, 160079, Note_on_c, 12, 59, 0
17, 160080, Note_on_c, 12, 60, 110
17, 160139, Note_on_c, 12, 60, 0
17, 160140, Note_on_c, 12, 59, 110
17, 160259, Note_on_c, 12, 59, 0
17, 160260, Note_on_c, 12, 52, 110
17, 160289, Note_on_c, 12, 52, 0
17, 160290, Note_on_c, 12, 54, 110
17, 160319, Note_on_c, 12, 54, 0
17, 160320, Note_on_c, 12, 55, 110
17, 160349, Note_on_c, 12, 55, 0
17, 160350, Note_on_c, 12, 57, 110
17, 160379, Note_on_c, 12, 57, 0
17, 160380, Note_on_c, 12, 59, 110
17, 160409, Note_on_c, 12, 59, 0
17, 160410, Note_on_c, 12, 55, 110
17, 160439, Note_on_c, 12, 55, 0
17, 160440, Note_on_c, 12, 54, 110
17, 160469, Note_on_c, 12, 54, 0
17, 160470, Note_on_c, 12, 52, 110
17, 160499, Note_on_c, 12, 52, 0
17, 160500, Note_on_c, 12, 57, 110
17, 160559, Note_on_c, 12, 57, 0
17, 160560, Note_on_c, 12, 45, 110
17, 160619, Note_on_c, 12, 45, 0
17, 160620, Note_on_c, 12, 57, 110
17, 160679, Note_on_c, 12, 57, 0
17, 160680, Note_on_c, 12, 54, 110
17, 160739, Note_on_c, 12, 54, 0
17, 160740, Note_on_c, 12, 50, 110
17, 160769, Note_on_c, 12, 50, 0
17, 160770, Note_on_c, 12, 52, 110
17, 160799, Note_on_c, 12, 52, 0
17, 160800, Note_on_c, 12, 54, 110
17, 160829, Note_on_c, 12, 54, 0
17, 160830, Note_on_c, 12, 55, 110
17, 160859, Note_on_c, 12, 55, 0
17, 160860, Note_on_c, 12, 57, 110
17, 160889, Note_on_c, 12, 57, 0
17, 160890, Note_on_c, 12, 54, 110
17, 160919, Note_on_c, 12, 54, 0
17, 160920, Note_on_c, 12, 52, 110
17, 160949, Note_on_c, 12, 52, 0
17, 160950, Note_on_c, 12, 50, 110
17, 160979, Note_on_c, 12, 50, 0
17, 160980, Note_on_c, 12, 55, 110
17, 161279, Note_on_c, 12, 55, 0
17, 161280, Note_on_c, 12, 64, 110
17, 161399, Note_on_c, 12, 64, 0
17, 161400, Note_on_c, 12, 61, 110
17, 161459, Note_on_c, 12, 61, 0
17, 161460, Note_on_c, 12, 55, 110
17, 161489, Note_on_c, 12, 55, 0
17, 161490, Note_on_c, 12, 54, 110
17, 161519, Note_on_c, 12, 54, 0
17, 161520, Note_on_c, 12, 55, 110
17, 161579, Note_on_c, 12, 55, 0
17, 161760, Note_on_c, 12, 64, 110
17, 161879, Note_on_c, 12, 64, 0
17, 161880, Note_on_c, 12, 61, 110
17, 161939, Note_on_c, 12, 61, 0
17, 161940, Note_on_c, 12, 55, 110
17, 161969, Note_on_c, 12, 55, 0
17, 161970, Note_on_c, 12, 54, 110
17, 161999, Note_on_c, 12, 54, 0
17, 162000, Note_on_c, 12, 55, 110
17, 162119, Note_on_c, 12, 55, 0
17, 162120, Note_on_c, 12, 59, 110
17, 162179, Note_on_c, 12, 59, 0
17, 162180, Note_on_c, 12, 57, 110
17, 162239, Note_on_c, 12, 57, 0
17, 162240, Note_on_c, 12, 55, 110
17, 162269, Note_on_c, 12, 55, 0
17, 162270, Note_on_c, 12, 54, 110
17, 162299, Note_on_c, 12, 54, 0
17, 162300, Note_on_c, 12, 52, 110
17, 162359, Note_on_c, 12, 52, 0
17, 162360, Note_on_c, 12, 50, 110
17, 162419, Note_on_c, 12, 50, 0
17, 162420, Note_on_c, 12, 52, 110
17, 162479, Note_on_c, 12, 52, 0
17, 162480, Note_on_c, 12, 49, 110
17, 162539, Note_on_c, 12, 49, 0
17, 162540, Note_on_c, 12, 45, 110
17, 162599, Note_on_c, 12, 45, 0
17, 162720, Note_on_c, 12, 45, 110
17, 162749, Note_on_c, 12, 45, 0
17, 162750, Note_on_c, 12, 47, 110
17, 162779, Note_on_c, 12, 47, 0
17, 162780, Note_on_c, 12, 49, 110
17, 162839, Note_on_c, 12, 49, 0
17, 162840, Note_on_c, 12, 50, 110
17, 162899, Note_on_c, 12, 50, 0
17, 162900, Note_on_c, 12, 52, 110
17, 162959, Note_on_c, 12, 52, 0
17, 162960, Note_on_c, 12, 54, 110
17, 163019, Note_on_c, 12, 54, 0
17, 163020, Note_on_c, 12, 55, 110
17, 163049, Note_on_c, 12, 55, 0
17, 163050, Note_on_c, 12, 59, 110
17, 163079, Note_on_c, 12, 59, 0
17, 163080, Note_on_c, 12, 57, 110
17, 163139, Note_on_c, 12, 57, 0
17, 163140, Note_on_c, 12, 55, 110
17, 163169, Note_on_c, 12, 55, 0
17, 163170, Note_on_c, 12, 54, 110
17, 163199, Note_on_c, 12, 54, 0
17, 163200, Note_on_c, 12, 52, 110
17, 163229, Note_on_c, 12, 52, 0
17, 163230, Note_on_c, 12, 50, 110
17, 163259, Note_on_c, 12, 50, 0
17, 163260, Note_on_c, 12, 52, 110
17, 163319, Note_on_c, 12, 52, 0
17, 163320, Note_on_c, 12, 49, 110
17, 163379, Note_on_c, 12, 49, 0
17, 163380, Note_on_c, 12, 50, 110
17, 163499, Note_on_c, 12, 50, 0
17, 163620, Note_on_c, 12, 62, 110
17, 163739, Note_on_c, 12, 62, 0
17, 163740, Note_on_c, 12, 57, 110
17, 163859, Note_on_c, 12, 57, 0
17, 163860, Note_on_c, 12, 54, 110
17, 164039, Note_on_c, 12, 54, 0
17, 164040, Note_on_c, 12, 55, 110
17, 164099, Note_on_c, 12, 55, 0
17, 164100, Note_on_c, 12, 57, 110
17, 164129, Note_on_c, 12, 57, 0
17, 164130, Note_on_c, 12, 59, 110
17, 164159, Note_on_c, 12, 59, 0
17, 164160, Note_on_c, 12, 60, 110
17, 164189, Note_on_c, 12, 60, 0
17, 164190, Note_on_c, 12, 59, 110
17, 164219, Note_on_c, 12, 59, 0
17, 164220, Note_on_c, 12, 62, 110
17, 164249, Note_on_c, 12, 62, 0
17, 164250, Note_on_c, 12, 60, 110
17, 164279, Note_on_c, 12, 60, 0
17, 164280, Note_on_c, 12, 59, 110
17, 164309, Note_on_c, 12, 59, 0
17, 164310, Note_on_c, 12, 57, 110
17, 164339, Note_on_c, 12, 57, 0
17, 164340, Note_on_c, 12, 59, 110
17, 164399, Note_on_c, 12, 59, 0
17, 164400, Note_on_c, 12, 55, 110
17, 164429, Note_on_c, 12, 55, 0
17, 164430, Note_on_c, 12, 54, 110
17, 164459, Note_on_c, 12, 54, 0
17, 164460, Note_on_c, 12, 55, 110
17, 164519, Note_on_c, 12, 55, 0
17, 164520, Note_on_c, 12, 64, 110
17, 164639, Note_on_c, 12, 64, 0
17, 164640, Note_on_c, 12, 59, 110
17, 164759, Note_on_c, 12, 59, 0
17, 164760, Note_on_c, 12, 56, 110
17, 164819, Note_on_c, 12, 56, 0
17, 164820, Note_on_c, 12, 57, 110
17, 164879, Note_on_c, 12, 57, 0
17, 164880, Note_on_c, 12, 56, 110
17, 164999, Note_on_c, 12, 56, 0
17, 165000, Note_on_c, 12, 57, 110
17, 165059, Note_on_c, 12, 57, 0
17, 165060, Note_on_c, 12, 59, 110
17, 165089, Note_on_c, 12, 59, 0
17, 165090, Note_on_c, 12, 61, 110
17, 165119, Note_on_c, 12, 61, 0
17, 165120, Note_on_c, 12, 62, 110
17, 165149, Note_on_c, 12, 62, 0
17, 165150, Note_on_c, 12, 61, 110
17, 165179, Note_on_c, 12, 61, 0
17, 165180, Note_on_c, 12, 64, 110
17, 165209, Note_on_c, 12, 64, 0
17, 165210, Note_on_c, 12, 62, 110
17, 165239, Note_on_c, 12, 62, 0
17, 165240, Note_on_c, 12, 61, 110
17, 165269, Note_on_c, 12, 61, 0
17, 165270, Note_on_c, 12, 59, 110
17, 165299, Note_on_c, 12, 59, 0
17, 165300, Note_on_c, 12, 61, 110
17, 165359, Note_on_c, 12, 61, 0
17, 165360, Note_on_c, 12, 57, 110
17, 165389, Note_on_c, 12, 57, 0
17, 165390, Note_on_c, 12, 56, 110
17, 165419, Note_on_c, 12, 56, 0
17, 165420, Note_on_c, 12, 57, 110
17, 165479, Note_on_c, 12, 57, 0
17, 165480, Note_on_c, 12, 62, 110
17, 165599, Note_on_c, 12, 62, 0
17, 165600, Note_on_c, 12, 57, 110
17, 165629, Note_on_c, 12, 57, 0
17, 165630, Note_on_c, 12, 56, 110
17, 165659, Note_on_c, 12, 56, 0
17, 165660, Note_on_c, 12, 57, 110
17, 165719, Note_on_c, 12, 57, 0
17, 165720, Note_on_c, 12, 64, 110
17, 165839, Note_on_c, 12, 64, 0
17, 165840, Note_on_c, 12, 55, 110
17, 165869, Note_on_c, 12, 55, 0
17, 165870, Note_on_c, 12, 54, 110
17, 165899, Note_on_c, 12, 54, 0
17, 165900, Note_on_c, 12, 55, 110
17, 165959, Note_on_c, 12, 55, 0
17, 165960, Note_on_c, 12, 54, 110
17, 165989, Note_on_c, 12, 54, 0
17, 165990, Note_on_c, 12, 52, 110
17, 166019, Note_on_c, 12, 52, 0
17, 166020, Note_on_c, 12, 57, 110
17, 166079, Note_on_c, 12, 57, 0
17, 166080, Note_on_c, 12, 50, 110
17, 166139, Note_on_c, 12, 50, 0
17, 166140, Note_on_c, 12, 54, 110
17, 166169, Note_on_c, 12, 54, 0
17, 166170, Note_on_c, 12, 52, 110
17, 166199, Note_on_c, 12, 52, 0
17, 166200, Note_on_c, 12, 50, 110
17, 166229, Note_on_c, 12, 50, 0
17, 166230, Note_on_c, 12, 49, 110
17, 166259, Note_on_c, 12, 49, 0
17, 166260, Note_on_c, 12, 50, 110
17, 166319, Note_on_c, 12, 50, 0
17, 166320, Note_on_c, 12, 52, 110
17, 166349, Note_on_c, 12, 52, 0
17, 166350, Note_on_c, 12, 54, 110
17, 166379, Note_on_c, 12, 54, 0
17, 166380, Note_on_c, 12, 55, 110
17, 166409, Note_on_c, 12, 55, 0
17, 166410, Note_on_c, 12, 57, 110
17, 166439, Note_on_c, 12, 57, 0
17, 166440, Note_on_c, 12, 59, 110
17, 166469, Note_on_c, 12, 59, 0
17, 166470, Note_on_c, 12, 61, 110
17, 166499, Note_on_c, 12, 61, 0
17, 166500, Note_on_c, 12, 62, 110
17, 166529, Note_on_c, 12, 62, 0
17, 166530, Note_on_c, 12, 61, 110
17, 166559, Note_on_c, 12, 61, 0
17, 166560, Note_on_c, 12, 59, 110
17, 166649, Note_on_c, 12, 59, 0
17, 166650, Note_on_c, 12, 57, 110
17, 166679, Note_on_c, 12, 57, 0
17, 166680, Note_on_c, 12, 56, 110
17, 166769, Note_on_c, 12, 56, 0
17, 166770, Note_on_c, 12, 59, 110
17, 166799, Note_on_c, 12, 59, 0
17, 166800, Note_on_c, 12, 57, 110
17, 166829, Note_on_c, 12, 57, 0
17, 166830, Note_on_c, 12, 56, 110
17, 166859, Note_on_c, 12, 56, 0
17, 166860, Note_on_c, 12, 64, 110
17, 166919, Note_on_c, 12, 64, 0
17, 166920, Note_on_c, 12, 55, 110
17, 166979, Note_on_c, 12, 55, 0
17, 166980, Note_on_c, 12, 54, 110
17, 167039, Note_on_c, 12, 54, 0
17, 167040, Note_on_c, 12, 57, 110
17, 167069, Note_on_c, 12, 57, 0
17, 167070, Note_on_c, 12, 55, 110
17, 167099, Note_on_c, 12, 55, 0
17, 167100, Note_on_c, 12, 54, 110
17, 167159, Note_on_c, 12, 54, 0
17, 167160, Note_on_c, 12, 52, 110
17, 167219, Note_on_c, 12, 52, 0
17, 167220, Note_on_c, 12, 50, 110
17, 167459, Note_on_c, 12, 50, 0
17, 170820, Note_on_c, 12, 54, 110
17, 170879, Note_on_c, 12, 54, 0
17, 170880, Note_on_c, 12, 52, 110
17, 170999, Note_on_c, 12, 52, 0
17, 171000, Note_on_c, 12, 54, 110
17, 171029, Note_on_c, 12, 54, 0
17, 171030, Note_on_c, 12, 55, 110
17, 171059, Note_on_c, 12, 55, 0
17, 171060, Note_on_c, 12, 54, 110
17, 171119, Note_on_c, 12, 54, 0
17, 171120, Note_on_c, 12, 47, 110
17, 171239, Note_on_c, 12, 47, 0
17, 171240, Note_on_c, 12, 60, 110
17, 171299, Note_on_c, 12, 60, 0
17, 171300, Note_on_c, 12, 59, 110
17, 171329, Note_on_c, 12, 59, 0
17, 171330, Note_on_c, 12, 55, 110
17, 171359, Note_on_c, 12, 55, 0
17, 171360, Note_on_c, 12, 54, 110
17, 171389, Note_on_c, 12, 54, 0
17, 171390, Note_on_c, 12, 52, 110
17, 171419, Note_on_c, 12, 52, 0
17, 171420, Note_on_c, 12, 57, 110
17, 171479, Note_on_c, 12, 57, 0
17, 171480, Note_on_c, 12, 54, 110
17, 171539, Note_on_c, 12, 54, 0
17, 171540, Note_on_c, 12, 55, 110
17, 171569, Note_on_c, 12, 55, 0
17, 171570, Note_on_c, 12, 54, 110
17, 171599, Note_on_c, 12, 54, 0
17, 171600, Note_on_c, 12, 52, 110
17, 171839, Note_on_c, 12, 52, 0
17, 171840, Note_on_c, 12, 50, 110
17, 171959, Note_on_c, 12, 50, 0
17, 171960, Note_on_c, 12, 52, 110
17, 171989, Note_on_c, 12, 52, 0
17, 171990, Note_on_c, 12, 54, 110
17, 172019, Note_on_c, 12, 54, 0
17, 172020, Note_on_c, 12, 52, 110
17, 172079, Note_on_c, 12, 52, 0
17, 172080, Note_on_c, 12, 45, 110
17, 172139, Note_on_c, 12, 45, 0
17, 172140, Note_on_c, 12, 45, 110
17, 172199, Note_on_c, 12, 45, 0
17, 172200, Note_on_c, 12, 52, 110
17, 172259, Note_on_c, 12, 52, 0
17, 172260, Note_on_c, 12, 57, 110
17, 172289, Note_on_c, 12, 57, 0
17, 172290, Note_on_c, 12, 54, 110
17, 172319, Note_on_c, 12, 54, 0
17, 172320, Note_on_c, 12, 52, 110
17, 172349, Note_on_c, 12, 52, 0
17, 172350, Note_on_c, 12, 50, 110
17, 172379, Note_on_c, 12, 50, 0
17, 172380, Note_on_c, 12, 55, 110
17, 172439, Note_on_c, 12, 55, 0
17, 172440, Note_on_c, 12, 52, 110
17, 172499, Note_on_c, 12, 52, 0
17, 172500, Note_on_c, 12, 54, 110
17, 172619, Note_on_c, 12, 54, 0
17, 172740, Note_on_c, 12, 58, 110
17, 172799, Note_on_c, 12, 58, 0
17, 172800, Note_on_c, 12, 58, 110
17, 172919, Note_on_c, 12, 58, 0
17, 172920, Note_on_c, 12, 59, 110
17, 172949, Note_on_c, 12, 59, 0
17, 172950, Note_on_c, 12, 61, 110
17, 172979, Note_on_c, 12, 61, 0
17, 172980, Note_on_c, 12, 59, 110
17, 173039, Note_on_c, 12, 59, 0
17, 173040, Note_on_c, 12, 59, 110
17, 173159, Note_on_c, 12, 59, 0
17, 173160, Note_on_c, 12, 61, 110
17, 173189, Note_on_c, 12, 61, 0
17, 173190, Note_on_c, 12, 62, 110
17, 173219, Note_on_c, 12, 62, 0
17, 173220, Note_on_c, 12, 61, 110
17, 173249, Note_on_c, 12, 61, 0
17, 173250, Note_on_c, 12, 59, 110
17, 173279, Note_on_c, 12, 59, 0
17, 173280, Note_on_c, 12, 58, 110
17, 173309, Note_on_c, 12, 58, 0
17, 173310, Note_on_c, 12, 56, 110
17, 173339, Note_on_c, 12, 56, 0
17, 173340, Note_on_c, 12, 54, 110
17, 173399, Note_on_c, 12, 54, 0
17, 173400, Note_on_c, 12, 61, 110
17, 173459, Note_on_c, 12, 61, 0
17, 173460, Note_on_c, 12, 62, 110
17, 173519, Note_on_c, 12, 62, 0
17, 173520, Note_on_c, 12, 61, 110
17, 173549, Note_on_c, 12, 61, 0
17, 173550, Note_on_c, 12, 62, 110
17, 173579, Note_on_c, 12, 62, 0
17, 173580, Note_on_c, 12, 59, 110
17, 173639, Note_on_c, 12, 59, 0
17, 173640, Note_on_c, 12, 56, 110
17, 173759, Note_on_c, 12, 56, 0
17, 173760, Note_on_c, 12, 59, 110
17, 173879, Note_on_c, 12, 59, 0
17, 173880, Note_on_c, 12, 53, 110
17, 173999, Note_on_c, 12, 53, 0
17, 174000, Note_on_c, 12, 62, 110
17, 174059, Note_on_c, 12, 62, 0
17, 174060, Note_on_c, 12, 61, 110
17, 174119, Note_on_c, 12, 61, 0
17, 174120, Note_on_c, 12, 59, 110
17, 174179, Note_on_c, 12, 59, 0
17, 174180, Note_on_c, 12, 57, 110
17, 174299, Note_on_c, 12, 57, 0
17, 174300, Note_on_c, 12, 56, 110
17, 174329, Note_on_c, 12, 56, 0
17, 174330, Note_on_c, 12, 54, 110
17, 174359, Note_on_c, 12, 54, 0
17, 174360, Note_on_c, 12, 56, 110
17, 174419, Note_on_c, 12, 56, 0
17, 174420, Note_on_c, 12, 54, 110
17, 174539, Note_on_c, 12, 54, 0
17, 176580, Note_on_c, 12, 61, 110
17, 176639, Note_on_c, 12, 61, 0
17, 176640, Note_on_c, 12, 59, 110
17, 176759, Note_on_c, 12, 59, 0
17, 176760, Note_on_c, 12, 61, 110
17, 176789, Note_on_c, 12, 61, 0
17, 176790, Note_on_c, 12, 62, 110
17, 176819, Note_on_c, 12, 62, 0
17, 176820, Note_on_c, 12, 61, 110
17, 176879, Note_on_c, 12, 61, 0
17, 176880, Note_on_c, 12, 54, 110
17, 176999, Note_on_c, 12, 54, 0
17, 177000, Note_on_c, 12, 58, 110
17, 177059, Note_on_c, 12, 58, 0
17, 177060, Note_on_c, 12, 59, 110
17, 177119, Note_on_c, 12, 59, 0
17, 177120, Note_on_c, 12, 54, 110
17, 177179, Note_on_c, 12, 54, 0
17, 177180, Note_on_c, 12, 61, 110
17, 177239, Note_on_c, 12, 61, 0
17, 177240, Note_on_c, 12, 54, 110
17, 177299, Note_on_c, 12, 54, 0
17, 177300, Note_on_c, 12, 62, 110
17, 177599, Note_on_c, 12, 62, 0
17, 177600, Note_on_c, 12, 61, 110
17, 177719, Note_on_c, 12, 61, 0
17, 177720, Note_on_c, 12, 59, 110
17, 177809, Note_on_c, 12, 59, 0
17, 177810, Note_on_c, 12, 57, 110
17, 177839, Note_on_c, 12, 57, 0
17, 177840, Note_on_c, 12, 56, 110
17, 177869, Note_on_c, 12, 56, 0
17, 177870, Note_on_c, 12, 54, 110
17, 177899, Note_on_c, 12, 54, 0
17, 177900, Note_on_c, 12, 52, 110
17, 177959, Note_on_c, 12, 52, 0
17, 177960, Note_on_c, 12, 56, 110
17, 178019, Note_on_c, 12, 56, 0
17, 178020, Note_on_c, 12, 57, 110
17, 178079, Note_on_c, 12, 57, 0
17, 178080, Note_on_c, 12, 52, 110
17, 178139, Note_on_c, 12, 52, 0
17, 178140, Note_on_c, 12, 59, 110
17, 178199, Note_on_c, 12, 59, 0
17, 178200, Note_on_c, 12, 52, 110
17, 178259, Note_on_c, 12, 52, 0
17, 178260, Note_on_c, 12, 61, 110
17, 178499, Note_on_c, 12, 61, 0
17, 178500, Note_on_c, 12, 54, 110
17, 178559, Note_on_c, 12, 54, 0
17, 178560, Note_on_c, 12, 56, 110
17, 178679, Note_on_c, 12, 56, 0
17, 178680, Note_on_c, 12, 57, 110
17, 178709, Note_on_c, 12, 57, 0
17, 178710, Note_on_c, 12, 59, 110
17, 178739, Note_on_c, 12, 59, 0
17, 178740, Note_on_c, 12, 52, 110
17, 178799, Note_on_c, 12, 52, 0
17, 178800, Note_on_c, 12, 54, 110
17, 178829, Note_on_c, 12, 54, 0
17, 178830, Note_on_c, 12, 56, 110
17, 178859, Note_on_c, 12, 56, 0
17, 178860, Note_on_c, 12, 57, 110
17, 178889, Note_on_c, 12, 57, 0
17, 178890, Note_on_c, 12, 59, 110
17, 178919, Note_on_c, 12, 59, 0
17, 178920, Note_on_c, 12, 61, 110
17, 178949, Note_on_c, 12, 61, 0
17, 178950, Note_on_c, 12, 62, 110
17, 178979, Note_on_c, 12, 62, 0
17, 178980, Note_on_c, 12, 64, 110
17, 179039, Note_on_c, 12, 64, 0
17, 179040, Note_on_c, 12, 62, 110
17, 179069, Note_on_c, 12, 62, 0
17, 179070, Note_on_c, 12, 61, 110
17, 179099, Note_on_c, 12, 61, 0
17, 179100, Note_on_c, 12, 59, 110
17, 179159, Note_on_c, 12, 59, 0
17, 179160, Note_on_c, 12, 57, 110
17, 179219, Note_on_c, 12, 57, 0
17, 179220, Note_on_c, 12, 56, 110
17, 179279, Note_on_c, 12, 56, 0
17, 179280, Note_on_c, 12, 54, 110
17, 179309, Note_on_c, 12, 54, 0
17, 179310, Note_on_c, 12, 56, 110
17, 179339, Note_on_c, 12, 56, 0
17, 179340, Note_on_c, 12, 52, 110
17, 179399, Note_on_c, 12, 52, 0
17, 179400, Note_on_c, 12, 62, 110
17, 179519, Note_on_c, 12, 62, 0
17, 179520, Note_on_c, 12, 61, 110
17, 179639, Note_on_c, 12, 61, 0
17, 179640, Note_on_c, 12, 54, 110
17, 179759, Note_on_c, 12, 54, 0
17, 179760, Note_on_c, 12, 59, 110
17, 179819, Note_on_c, 12, 59, 0
17, 179820, Note_on_c, 12, 56, 110
17, 179879, Note_on_c, 12, 56, 0
17, 179880, Note_on_c, 12, 57, 110
17, 179939, Note_on_c, 12, 57, 0
17, 179940, Note_on_c, 12, 49, 110
17, 180059, Note_on_c, 12, 49, 0
17, 180060, Note_on_c, 12, 47, 110
17, 180089, Note_on_c, 12, 47, 0
17, 180090, Note_on_c, 12, 45, 110
17, 180119, Note_on_c, 12, 45, 0
17, 180120, Note_on_c, 12, 47, 110
17, 180179, Note_on_c, 12, 47, 0
17, 180180, Note_on_c, 12, 45, 110
17, 180299, Note_on_c, 12, 45, 0
17, 183780, Note_on_c, 12, 62, 110
17, 183899, Note_on_c, 12, 62, 0
17, 183900, Note_on_c, 12, 57, 110
17, 184019, Note_on_c, 12, 57, 0
17, 184020, Note_on_c, 12, 55, 110
17, 184079, Note_on_c, 12, 55, 0
17, 184080, Note_on_c, 12, 54, 110
17, 184199, Note_on_c, 12, 54, 0
17, 184200, Note_on_c, 12, 57, 110
17, 184259, Note_on_c, 12, 57, 0
17, 184260, Note_on_c, 12, 50, 110
17, 184289, Note_on_c, 12, 50, 0
17, 184290, Note_on_c, 12, 52, 110
17, 184319, Note_on_c, 12, 52, 0
17, 184320, Note_on_c, 12, 54, 110
17, 184439, Note_on_c, 12, 54, 0
17, 184440, Note_on_c, 12, 52, 110
17, 184499, Note_on_c, 12, 52, 0
17, 184500, Note_on_c, 12, 54, 110
17, 184559, Note_on_c, 12, 54, 0
17, 184560, Note_on_c, 12, 54, 110
17, 184589, Note_on_c, 12, 54, 0
17, 184590, Note_on_c, 12, 52, 110
17, 184619, Note_on_c, 12, 52, 0
17, 184620, Note_on_c, 12, 50, 110
17, 184739, Note_on_c, 12, 50, 0
17, 184740, Note_on_c, 12, 62, 110
17, 184859, Note_on_c, 12, 62, 0
17, 184860, Note_on_c, 12, 57, 110
17, 184979, Note_on_c, 12, 57, 0
17, 184980, Note_on_c, 12, 54, 110
17, 185159, Note_on_c, 12, 54, 0
17, 185160, Note_on_c, 12, 57, 110
17, 185219, Note_on_c, 12, 57, 0
17, 185220, Note_on_c, 12, 50, 110
17, 185249, Note_on_c, 12, 50, 0
17, 185250, Note_on_c, 12, 52, 110
17, 185279, Note_on_c, 12, 52, 0
17, 185280, Note_on_c, 12, 54, 110
17, 185399, Note_on_c, 12, 54, 0
17, 185400, Note_on_c, 12, 57, 110
17, 185459, Note_on_c, 12, 57, 0
17, 185460, Note_on_c, 12, 54, 110
17, 185519, Note_on_c, 12, 54, 0
17, 185520, Note_on_c, 12, 54, 110
17, 185549, Note_on_c, 12, 54, 0
17, 185550, Note_on_c, 12, 52, 110
17, 185579, Note_on_c, 12, 52, 0
17, 185580, Note_on_c, 12, 50, 110
17, 185699, Note_on_c, 12, 50, 0
17, 185700, Note_on_c, 12, 59, 110
17, 185759, Note_on_c, 12, 59, 0
17, 185760, Note_on_c, 12, 55, 110
17, 185819, Note_on_c, 12, 55, 0
17, 185820, Note_on_c, 12, 50, 110
17, 185879, Note_on_c, 12, 50, 0
17, 185880, Note_on_c, 12, 59, 110
17, 185939, Note_on_c, 12, 59, 0
17, 185940, Note_on_c, 12, 57, 110
17, 185999, Note_on_c, 12, 57, 0
17, 186000, Note_on_c, 12, 61, 110
17, 186059, Note_on_c, 12, 61, 0
17, 186060, Note_on_c, 12, 62, 110
17, 186119, Note_on_c, 12, 62, 0
17, 186120, Note_on_c, 12, 50, 110
17, 186179, Note_on_c, 12, 50, 0
17, 186180, Note_on_c, 12, 55, 110
17, 186299, Note_on_c, 12, 55, 0
17, 186300, Note_on_c, 12, 54, 110
17, 186419, Note_on_c, 12, 54, 0
17, 186420, Note_on_c, 12, 52, 110
17, 186479, Note_on_c, 12, 52, 0
17, 186480, Note_on_c, 12, 57, 110
17, 186599, Note_on_c, 12, 57, 0
17, 186600, Note_on_c, 12, 55, 110
17, 186659, Note_on_c, 12, 55, 0
17, 186660, Note_on_c, 12, 54, 110
17, 186719, Note_on_c, 12, 54, 0
17, 186720, Note_on_c, 12, 52, 110
17, 186749, Note_on_c, 12, 52, 0
17, 186750, Note_on_c, 12, 54, 110
17, 186779, Note_on_c, 12, 54, 0
17, 186780, Note_on_c, 12, 55, 110
17, 186809, Note_on_c, 12, 55, 0
17, 186810, Note_on_c, 12, 54, 110
17, 186839, Note_on_c, 12, 54, 0
17, 186840, Note_on_c, 12, 52, 110
17, 186869, Note_on_c, 12, 52, 0
17, 186870, Note_on_c, 12, 50, 110
17, 186899, Note_on_c, 12, 50, 0
17, 186900, Note_on_c, 12, 45, 110
17, 187019, Note_on_c, 12, 45, 0
17, 187140, Note_on_c, 12, 57, 110
17, 187259, Note_on_c, 12, 57, 0
17, 187260, Note_on_c, 12, 52, 110
17, 187379, Note_on_c, 12, 52, 0
17, 187380, Note_on_c, 12, 49, 110
17, 187559, Note_on_c, 12, 49, 0
17, 187560, Note_on_c, 12, 50, 110
17, 187619, Note_on_c, 12, 50, 0
17, 187620, Note_on_c, 12, 52, 110
17, 187649, Note_on_c, 12, 52, 0
17, 187650, Note_on_c, 12, 49, 110
17, 187679, Note_on_c, 12, 49, 0
17, 187680, Note_on_c, 12, 47, 110
17, 187709, Note_on_c, 12, 47, 0
17, 187710, Note_on_c, 12, 45, 110
17, 187739, Note_on_c, 12, 45, 0
17, 187740, Note_on_c, 12, 57, 110
17, 187799, Note_on_c, 12, 57, 0
17, 187800, Note_on_c, 12, 55, 110
17, 187859, Note_on_c, 12, 55, 0
17, 187860, Note_on_c, 12, 55, 110
17, 187889, Note_on_c, 12, 55, 0
17, 187890, Note_on_c, 12, 54, 110
17, 187919, Note_on_c, 12, 54, 0
17, 187920, Note_on_c, 12, 55, 110
17, 187979, Note_on_c, 12, 55, 0
17, 187980, Note_on_c, 12, 54, 110
17, 188099, Note_on_c, 12, 54, 0
17, 188100, Note_on_c, 12, 62, 110
17, 188219, Note_on_c, 12, 62, 0
17, 188220, Note_on_c, 12, 57, 110
17, 188339, Note_on_c, 12, 57, 0
17, 188340, Note_on_c, 12, 55, 110
17, 188399, Note_on_c, 12, 55, 0
17, 188400, Note_on_c, 12, 54, 110
17, 188519, Note_on_c, 12, 54, 0
17, 188520, Note_on_c, 12, 55, 110
17, 188579, Note_on_c, 12, 55, 0
17, 188580, Note_on_c, 12, 57, 110
17, 188609, Note_on_c, 12, 57, 0
17, 188610, Note_on_c, 12, 54, 110
17, 188639, Note_on_c, 12, 54, 0
17, 188640, Note_on_c, 12, 52, 110
17, 188669, Note_on_c, 12, 52, 0
17, 188670, Note_on_c, 12, 50, 110
17, 188699, Note_on_c, 12, 50, 0
17, 188700, Note_on_c, 12, 62, 110
17, 188759, Note_on_c, 12, 62, 0
17, 188760, Note_on_c, 12, 60, 110
17, 188819, Note_on_c, 12, 60, 0
17, 188820, Note_on_c, 12, 60, 110
17, 188849, Note_on_c, 12, 60, 0
17, 188850, Note_on_c, 12, 59, 110
17, 188879, Note_on_c, 12, 59, 0
17, 188880, Note_on_c, 12, 60, 110
17, 188939, Note_on_c, 12, 60, 0
17, 188940, Note_on_c, 12, 59, 110
17, 189059, Note_on_c, 12, 59, 0
17, 189060, Note_on_c, 12, 52, 110
17, 189089, Note_on_c, 12, 52, 0
17, 189090, Note_on_c, 12, 54, 110
17, 189119, Note_on_c, 12, 54, 0
17, 189120, Note_on_c, 12, 55, 110
17, 189149, Note_on_c, 12, 55, 0
17, 189150, Note_on_c, 12, 57, 110
17, 189179, Note_on_c, 12, 57, 0
17, 189180, Note_on_c, 12, 59, 110
17, 189209, Note_on_c, 12, 59, 0
17, 189210, Note_on_c, 12, 55, 110
17, 189239, Note_on_c, 12, 55, 0
17, 189240, Note_on_c, 12, 54, 110
17, 189269, Note_on_c, 12, 54, 0
17, 189270, Note_on_c, 12, 52, 110
17, 189299, Note_on_c, 12, 52, 0
17, 189300, Note_on_c, 12, 57, 110
17, 189359, Note_on_c, 12, 57, 0
17, 189360, Note_on_c, 12, 45, 110
17, 189419, Note_on_c, 12, 45, 0
17, 189420, Note_on_c, 12, 57, 110
17, 189479, Note_on_c, 12, 57, 0
17, 189480, Note_on_c, 12, 54, 110
17, 189539, Note_on_c, 12, 54, 0
17, 189540, Note_on_c, 12, 50, 110
17, 189569, Note_on_c, 12, 50, 0
17, 189570, Note_on_c, 12, 52, 110
17, 189599, Note_on_c, 12, 52, 0
17, 189600, Note_on_c, 12, 54, 110
17, 189629, Note_on_c, 12, 54, 0
17, 189630, Note_on_c, 12, 55, 110
17, 189659, Note_on_c, 12, 55, 0
17, 189660, Note_on_c, 12, 57, 110
17, 189689, Note_on_c, 12, 57, 0
17, 189690, Note_on_c, 12, 54, 110
17, 189719, Note_on_c, 12, 54, 0
17, 189720, Note_on_c, 12, 52, 110
17, 189749, Note_on_c, 12, 52, 0
17, 189750, Note_on_c, 12, 50, 110
17, 189779, Note_on_c, 12, 50, 0
17, 189780, Note_on_c, 12, 55, 110
17, 190079, Note_on_c, 12, 55, 0
17, 190080, Note_on_c, 12, 64, 110
17, 190199, Note_on_c, 12, 64, 0
17, 190200, Note_on_c, 12, 61, 110
17, 190259, Note_on_c, 12, 61, 0
17, 190260, Note_on_c, 12, 55, 110
17, 190289, Note_on_c, 12, 55, 0
17, 190290, Note_on_c, 12, 54, 110
17, 190319, Note_on_c, 12, 54, 0
17, 190320, Note_on_c, 12, 55, 110
17, 190379, Note_on_c, 12, 55, 0
17, 190560, Note_on_c, 12, 64, 110
17, 190679, Note_on_c, 12, 64, 0
17, 190680, Note_on_c, 12, 61, 110
17, 190739, Note_on_c, 12, 61, 0
17, 190740, Note_on_c, 12, 55, 110
17, 190769, Note_on_c, 12, 55, 0
17, 190770, Note_on_c, 12, 54, 110
17, 190799, Note_on_c, 12, 54, 0
17, 190800, Note_on_c, 12, 55, 110
17, 190919, Note_on_c, 12, 55, 0
17, 190920, Note_on_c, 12, 59, 110
17, 190979, Note_on_c, 12, 59, 0
17, 190980, Note_on_c, 12, 57, 110
17, 191039, Note_on_c, 12, 57, 0
17, 191040, Note_on_c, 12, 55, 110
17, 191069, Note_on_c, 12, 55, 0
17, 191070, Note_on_c, 12, 54, 110
17, 191099, Note_on_c, 12, 54, 0
17, 191100, Note_on_c, 12, 52, 110
17, 191159, Note_on_c, 12, 52, 0
17, 191160, Note_on_c, 12, 50, 110
17, 191219, Note_on_c, 12, 50, 0
17, 191220, Note_on_c, 12, 52, 110
17, 191279, Note_on_c, 12, 52, 0
17, 191280, Note_on_c, 12, 49, 110
17, 191339, Note_on_c, 12, 49, 0
17, 191340, Note_on_c, 12, 45, 110
17, 191399, Note_on_c, 12, 45, 0
17, 191520, Note_on_c, 12, 45, 110
17, 191549, Note_on_c, 12, 45, 0
17, 191550, Note_on_c, 12, 47, 110
17, 191579, Note_on_c, 12, 47, 0
17, 191580, Note_on_c, 12, 49, 110
17, 191639, Note_on_c, 12, 49, 0
17, 191640, Note_on_c, 12, 50, 110
17, 191699, Note_on_c, 12, 50, 0
17, 191700, Note_on_c, 12, 52, 110
17, 191759, Note_on_c, 12, 52, 0
17, 191760, Note_on_c, 12, 54, 110
17, 191819, Note_on_c, 12, 54, 0
17, 191820, Note_on_c, 12, 55, 110
17, 191849, Note_on_c, 12, 55, 0
17, 191850, Note_on_c, 12, 59, 110
17, 191879, Note_on_c, 12, 59, 0
17, 191880, Note_on_c, 12, 57, 110
17, 191939, Note_on_c, 12, 57, 0
17, 191940, Note_on_c, 12, 55, 110
17, 191969, Note_on_c, 12, 55, 0
17, 191970, Note_on_c, 12, 54, 110
17, 191999, Note_on_c, 12, 54, 0
17, 192000, Note_on_c, 12, 52, 110
17, 192029, Note_on_c, 12, 52, 0
17, 192030, Note_on_c, 12, 50, 110
17, 192059, Note_on_c, 12, 50, 0
17, 192060, Note_on_c, 12, 52, 110
17, 192119, Note_on_c, 12, 52, 0
17, 192120, Note_on_c, 12, 49, 110
17, 192179, Note_on_c, 12, 49, 0
17, 192180, Note_on_c, 12, 50, 110
17, 192299, Note_on_c, 12, 50, 0
17, 192420, Note_on_c, 12, 62, 110
17, 192539, Note_on_c, 12, 62, 0
17, 192540, Note_on_c, 12, 57, 110
17, 192659, Note_on_c, 12, 57, 0
17, 192660, Note_on_c, 12, 54, 110
17, 192839, Note_on_c, 12, 54, 0
17, 192840, Note_on_c, 12, 55, 110
17, 192899, Note_on_c, 12, 55, 0
17, 192900, Note_on_c, 12, 57, 110
17, 192929, Note_on_c, 12, 57, 0
17, 192930, Note_on_c, 12, 59, 110
17, 192959, Note_on_c, 12, 59, 0
17, 192960, Note_on_c, 12, 60, 110
17, 192989, Note_on_c, 12, 60, 0
17, 192990, Note_on_c, 12, 59, 110
17, 193019, Note_on_c, 12, 59, 0
17, 193020, Note_on_c, 12, 62, 110
17, 193049, Note_on_c, 12, 62, 0
17, 193050, Note_on_c, 12, 60, 110
17, 193079, Note_on_c, 12, 60, 0
17, 193080, Note_on_c, 12, 59, 110
17, 193109, Note_on_c, 12, 59, 0
17, 193110, Note_on_c, 12, 57, 110
17, 193139, Note_on_c, 12, 57, 0
17, 193140, Note_on_c, 12, 59, 110
17, 193199, Note_on_c, 12, 59, 0
17, 193200, Note_on_c, 12, 55, 110
17, 193229, Note_on_c, 12, 55, 0
17, 193230, Note_on_c, 12, 54, 110
17, 193259, Note_on_c, 12, 54, 0
17, 193260, Note_on_c, 12, 55, 110
17, 193319, Note_on_c, 12, 55, 0
17, 193320, Note_on_c, 12, 64, 110
17, 193439, Note_on_c, 12, 64, 0
17, 193440, Note_on_c, 12, 59, 110
17, 193559, Note_on_c, 12, 59, 0
17, 193560, Note_on_c, 12, 56, 110
17, 193619, Note_on_c, 12, 56, 0
17, 193620, Note_on_c, 12, 57, 110
17, 193679, Note_on_c, 12, 57, 0
17, 193680, Note_on_c, 12, 56, 110
17, 193799, Note_on_c, 12, 56, 0
17, 193800, Note_on_c, 12, 57, 110
17, 193859, Note_on_c, 12, 57, 0
17, 193860, Note_on_c, 12, 59, 110
17, 193889, Note_on_c, 12, 59, 0
17, 193890, Note_on_c, 12, 61, 110
17, 193919, Note_on_c, 12, 61, 0
17, 193920, Note_on_c, 12, 62, 110
17, 193949, Note_on_c, 12, 62, 0
17, 193950, Note_on_c, 12, 61, 110
17, 193979, Note_on_c, 12, 61, 0
17, 193980, Note_on_c, 12, 64, 110
17, 194009, Note_on_c, 12, 64, 0
17, 194010, Note_on_c, 12, 62, 110
17, 194039, Note_on_c, 12, 62, 0
17, 194040, Note_on_c, 12, 61, 110
17, 194069, Note_on_c, 12, 61, 0
17, 194070, Note_on_c, 12, 59, 110
17, 194099, Note_on_c, 12, 59, 0
17, 194100, Note_on_c, 12, 61, 110
17, 194159, Note_on_c, 12, 61, 0
17, 194160, Note_on_c, 12, 57, 110
17, 194189, Note_on_c, 12, 57, 0
17, 194190, Note_on_c, 12, 56, 110
17, 194219, Note_on_c, 12, 56, 0
17, 194220, Note_on_c, 12, 57, 110
17, 194279, Note_on_c, 12, 57, 0
17, 194280, Note_on_c, 12, 62, 110
17, 194399, Note_on_c, 12, 62, 0
17, 194400, Note_on_c, 12, 57, 110
17, 194429, Note_on_c, 12, 57, 0
17, 194430, Note_on_c, 12, 56, 110
17, 194459, Note_on_c, 12, 56, 0
17, 194460, Note_on_c, 12, 57, 110
17, 194519, Note_on_c, 12, 57, 0
17, 194520, Note_on_c, 12, 64, 110
17, 194639, Note_on_c, 12, 64, 0
17, 194640, Note_on_c, 12, 55, 110
17, 194669, Note_on_c, 12, 55, 0
17, 194670, Note_on_c, 12, 54, 110
17, 194699, Note_on_c, 12, 54, 0
17, 194700, Note_on_c, 12, 55, 110
17, 194759, Note_on_c, 12, 55, 0
17, 194760, Note_on_c, 12, 54, 110
17, 194789, Note_on_c, 12, 54, 0
17, 194790, Note_on_c, 12, 52, 110
17, 194819, Note_on_c, 12, 52, 0
17, 194820, Note_on_c, 12, 57, 110
17, 194879, Note_on_c, 12, 57, 0
17, 194880, Note_on_c, 12, 50, 110
17, 194939, Note_on_c, 12, 50, 0
17, 194940, Note_on_c, 12, 54, 110
17, 194969, Note_on_c, 12, 54, 0
17, 194970, Note_on_c, 12, 52, 110
17, 194999, Note_on_c, 12, 52, 0
17, 195000, Note_on_c, 12, 50, 110
17, 195029, Note_on_c, 12, 50, 0
17, 195030, Note_on_c, 12, 49, 110
17, 195059, Note_on_c, 12, 49, 0
17, 195060, Note_on_c, 12, 50, 110
17, 195119, Note_on_c, 12, 50, 0
17, 195120, Note_on_c, 12, 52, 110
17, 195149, Note_on_c, 12, 52, 0
17, 195150, Note_on_c, 12, 54, 110
17, 195179, Note_on_c, 12, 54, 0
17, 195180, Note_on_c, 12, 55, 110
17, 195209, Note_on_c, 12, 55, 0
17, 195210, Note_on_c, 12, 57, 110
17, 195239, Note_on_c, 12, 57, 0
17, 195240, Note_on_c, 12, 59, 110
17, 195269, Note_on_c, 12, 59, 0
17, 195270, Note_on_c, 12, 61, 110
17, 195299, Note_on_c, 12, 61, 0
17, 195300, Note_on_c, 12, 62, 110
17, 195329, Note_on_c, 12, 62, 0
17, 195330, Note_on_c, 12, 61, 110
17, 195359, Note_on_c, 12, 61, 0
17, 195360, Note_on_c, 12, 59, 110
17, 195449, Note_on_c, 12, 59, 0
17, 195450, Note_on_c, 12, 57, 110
17, 195479, Note_on_c, 12, 57, 0
17, 195480, Note_on_c, 12, 56, 110
17, 195569, Note_on_c, 12, 56, 0
17, 195570, Note_on_c, 12, 59, 110
17, 195599, Note_on_c, 12, 59, 0
17, 195600, Note_on_c, 12, 57, 110
17, 195629, Note_on_c, 12, 57, 0
17, 195630, Note_on_c, 12, 56, 110
17, 195659, Note_on_c, 12, 56, 0
17, 195660, Note_on_c, 12, 64, 110
17, 195719, Note_on_c, 12, 64, 0
17, 195720, Note_on_c, 12, 55, 110
17, 195779, Note_on_c, 12, 55, 0
17, 195780, Note_on_c, 12, 54, 110
17, 195839, Note_on_c, 12, 54, 0
17, 195840, Note_on_c, 12, 57, 110
17, 195869, Note_on_c, 12, 57, 0
17, 195870, Note_on_c, 12, 55, 110
17, 195899, Note_on_c, 12, 55, 0
17, 195900, Note_on_c, 12, 54, 110
17, 195959, Note_on_c, 12, 54, 0
17, 195960, Note_on_c, 12, 52, 110
17, 196019, Note_on_c, 12, 52, 0
17, 196020, Note_on_c, 12, 50, 110
17, 196259, Note_on_c, 12, 50, 0
17, 199980, Control_c, 12, 0, 0
17, 199980, Program_c, 12, 52
17, 199980, Note_on_c, 12, 50, 127
17, 200099, Note_on_c, 12, 50, 0
17, 200100, Note_on_c, 12, 57, 127
17, 200279, Note_on_c, 12, 57, 0
17, 200280, Note_on_c, 12, 56, 127
17, 200339, Note_on_c, 12, 56, 0
17, 200340, Note_on_c, 12, 57, 127
17, 200399, Note_on_c, 12, 57, 0
17, 200400, Note_on_c, 12, 55, 127
17, 200459, Note_on_c, 12, 55, 0
17, 200460, Note_on_c, 12, 54, 127
17, 200579, Note_on_c, 12, 54, 0
17, 200580, Note_on_c, 12, 55, 127
17, 200639, Note_on_c, 12, 55, 0
17, 200640, Note_on_c, 12, 54, 127
17, 200699, Note_on_c, 12, 54, 0
17, 200700, Note_on_c, 12, 52, 127
17, 200819, Note_on_c, 12, 52, 0
17, 200820, Note_on_c, 12, 50, 127
17, 200939, Note_on_c, 12, 50, 0
17, 201660, Note_on_c, 12, 50, 127
17, 201719, Note_on_c, 12, 50, 0
17, 201720, Note_on_c, 12, 52, 127
17, 201779, Note_on_c, 12, 52, 0
17, 201780, Note_on_c, 12, 54, 127
17, 201899, Note_on_c, 12, 54, 0
17, 201900, Note_on_c, 12, 54, 127
17, 201959, Note_on_c, 12, 54, 0
17, 201960, Note_on_c, 12, 55, 127
17, 202019, Note_on_c, 12, 55, 0
17, 202020, Note_on_c, 12, 57, 127
17, 202139, Note_on_c, 12, 57, 0
17, 202140, Note_on_c, 12, 57, 127
17, 202199, Note_on_c, 12, 57, 0
17, 202200, Note_on_c, 12, 55, 127
17, 202259, Note_on_c, 12, 55, 0
17, 202260, Note_on_c, 12, 54, 127
17, 202319, Note_on_c, 12, 54, 0
17, 202320, Note_on_c, 12, 52, 127
17, 202379, Note_on_c, 12, 52, 0
17, 202380, Note_on_c, 12, 50, 127
17, 202439, Note_on_c, 12, 50, 0
17, 202440, Note_on_c, 12, 49, 127
17, 202499, Note_on_c, 12, 49, 0
17, 202500, Note_on_c, 12, 50, 127
17, 202619, Note_on_c, 12, 50, 0
17, 203340, Note_on_c, 12, 50, 127
17, 203459, Note_on_c, 12, 50, 0
17, 203460, Note_on_c, 12, 51, 127
17, 203579, Note_on_c, 12, 51, 0
17, 203580, Note_on_c, 12, 52, 127
17, 203639, Note_on_c, 12, 52, 0
17, 203640, Note_on_c, 12, 50, 127
17, 203699, Note_on_c, 12, 50, 0
17, 203700, Note_on_c, 12, 49, 127
17, 203759, Note_on_c, 12, 49, 0
17, 203760, Note_on_c, 12, 47, 127
17, 203819, Note_on_c, 12, 47, 0
17, 203820, Note_on_c, 12, 45, 127
17, 203939, Note_on_c, 12, 45, 0
17, 203940, Note_on_c, 12, 54, 127
17, 203999, Note_on_c, 12, 54, 0
17, 204000, Note_on_c, 12, 52, 127
17, 204059, Note_on_c, 12, 52, 0
17, 204060, Note_on_c, 12, 49, 127
17, 204119, Note_on_c, 12, 49, 0
17, 204120, Note_on_c, 12, 52, 127
17, 204179, Note_on_c, 12, 52, 0
17, 204180, Note_on_c, 12, 45, 127
17, 204299, Note_on_c, 12, 45, 0
17, 205020, Note_on_c, 12, 59, 127
17, 205079, Note_on_c, 12, 59, 0
17, 205080, Note_on_c, 12, 52, 127
17, 205139, Note_on_c, 12, 52, 0
17, 205140, Note_on_c, 12, 57, 127
17, 205259, Note_on_c, 12, 57, 0
17, 205260, Note_on_c, 12, 50, 127
17, 205319, Note_on_c, 12, 50, 0
17, 205320, Note_on_c, 12, 55, 127
17, 205379, Note_on_c, 12, 55, 0
17, 205380, Note_on_c, 12, 55, 127
17, 205439, Note_on_c, 12, 55, 0
17, 205440, Note_on_c, 12, 54, 127
17, 205499, Note_on_c, 12, 54, 0
17, 205500, Note_on_c, 12, 55, 127
17, 205559, Note_on_c, 12, 55, 0
17, 205560, Note_on_c, 12, 57, 127
17, 205619, Note_on_c, 12, 57, 0
17, 205620, Note_on_c, 12, 59, 127
17, 205679, Note_on_c, 12, 59, 0
17, 205680, Note_on_c, 12, 55, 127
17, 205739, Note_on_c, 12, 55, 0
17, 205740, Note_on_c, 12, 57, 127
17, 205799, Note_on_c, 12, 57, 0
17, 205800, Note_on_c, 12, 45, 127
17, 205859, Note_on_c, 12, 45, 0
17, 205860, Note_on_c, 12, 50, 127
17, 205979, Note_on_c, 12, 50, 0
17, 205979, End_track
18, 0, Start_track
18, 0, MIDI_port, 0
18, 0, Title_t, "Organo H"
18, 0, Program_c, 13, 6
18, 61140, Note_on_c, 13, 66, 100
18, 61140, Note_on_c, 13, 62, 100
18, 62340, Note_on_c, 13, 62, 0
18, 62340, Note_on_c, 13, 66, 0
18, 62340, Note_on_c, 13, 67, 90
18, 62340, Note_on_c, 13, 64, 90
18, 62700, Note_on_c, 13, 64, 0
18, 62700, Note_on_c, 13, 67, 0
18, 62700, Note_on_c, 13, 64, 90
18, 62700, Note_on_c, 13, 66, 90
18, 62820, Note_on_c, 13, 66, 0
18, 62820, Note_on_c, 13, 64, 0
18, 62820, Note_on_c, 13, 62, 90
18, 62820, Note_on_c, 13, 66, 90
18, 63300, Note_on_c, 13, 66, 0
18, 63300, Note_on_c, 13, 67, 90
18, 63539, Note_on_c, 13, 62, 0
18, 63540, Note_on_c, 13, 67, 0
18, 63540, Note_on_c, 13, 64, 90
18, 63540, Note_on_c, 13, 69, 90
18, 64019, Note_on_c, 13, 69, 0
18, 64019, Note_on_c, 13, 64, 0
18, 64020, Note_on_c, 13, 69, 90
18, 64020, Note_on_c, 13, 66, 90
18, 64739, Note_on_c, 13, 66, 0
18, 64739, Note_on_c, 13, 69, 0
18, 64740, Note_on_c, 13, 69, 90
18, 64740, Note_on_c, 13, 66, 90
18, 64740, Note_on_c, 13, 62, 90
18, 64860, Note_on_c, 13, 62, 0
18, 64860, Note_on_c, 13, 60, 90
18, 64979, Note_on_c, 13, 66, 0
18, 64979, Note_on_c, 13, 69, 0
18, 64980, Note_on_c, 13, 60, 0
18, 64980, Note_on_c, 13, 66, 90
18, 64980, Note_on_c, 13, 63, 90
18, 64980, Note_on_c, 13, 59, 90
18, 65460, Note_on_c, 13, 59, 0
18, 65460, Note_on_c, 13, 63, 0
18, 65460, Note_on_c, 13, 66, 0
18, 65460, Note_on_c, 13, 66, 90
18, 65460, Note_on_c, 13, 69, 90
18, 65700, Note_on_c, 13, 69, 0
18, 65700, Note_on_c, 13, 66, 0
18, 65700, Note_on_c, 13, 64, 90
18, 65700, Note_on_c, 13, 67, 90
18, 65940, Note_on_c, 13, 67, 0
18, 65940, Note_on_c, 13, 64, 0
18, 65940, Note_on_c, 13, 67, 90
18, 65940, Note_on_c, 13, 64, 90
18, 66419, Note_on_c, 13, 64, 0
18, 66419, Note_on_c, 13, 67, 0
18, 66420, Note_on_c, 13, 64, 90
18, 66420, Note_on_c, 13, 70, 90
18, 66659, Note_on_c, 13, 70, 0
18, 66660, Note_on_c, 13, 67, 90
18, 66899, Note_on_c, 13, 67, 0
18, 66900, Note_on_c, 13, 64, 0
18, 66900, Note_on_c, 13, 61, 90
18, 66900, Note_on_c, 13, 66, 90
18, 66900, Note_on_c, 13, 70, 90
18, 67139, Note_on_c, 13, 70, 0
18, 67139, Note_on_c, 13, 66, 0
18, 67139, Note_on_c, 13, 61, 0
18, 67140, Note_on_c, 13, 71, 90
18, 67140, Note_on_c, 13, 62, 90
18, 67140, Note_on_c, 13, 66, 90
18, 67379, Note_on_c, 13, 66, 0
18, 67379, Note_on_c, 13, 62, 0
18, 67379, Note_on_c, 13, 71, 0
18, 67380, Note_on_c, 13, 68, 90
18, 67380, Note_on_c, 13, 65, 90
18, 67380, Note_on_c, 13, 61, 90
18, 67619, Note_on_c, 13, 61, 0
18, 67619, Note_on_c, 13, 65, 0
18, 67619, Note_on_c, 13, 68, 0
18, 67620, Note_on_c, 13, 68, 90
18, 67620, Note_on_c, 13, 65, 90
18, 67620, Note_on_c, 13, 73, 90
18, 67859, Note_on_c, 13, 73, 0
18, 67860, Note_on_c, 13, 71, 90
18, 68099, Note_on_c, 13, 71, 0
18, 68340, Note_on_c, 13, 73, 90
18, 68340, Note_on_c, 13, 71, 90
18, 68580, Note_on_c, 13, 71, 0
18, 68580, Note_on_c, 13, 68, 0
18, 68580, Note_on_c, 13, 65, 0
18, 68580, Note_on_c, 13, 73, 0
18, 68580, Note_on_c, 13, 73, 90
18, 68580, Note_on_c, 13, 69, 90
18, 68580, Note_on_c, 13, 66, 90
18, 69060, Note_on_c, 13, 73, 0
18, 69060, Note_on_c, 13, 75, 90
18, 69300, Note_on_c, 13, 75, 0
18, 69300, Note_on_c, 13, 66, 0
18, 69300, Note_on_c, 13, 69, 0
18, 69300, Note_on_c, 13, 71, 90
18, 69300, Note_on_c, 13, 68, 90
18, 69300, Note_on_c, 13, 76, 90
18, 69420, Note_on_c, 13, 76, 0
18, 69420, Note_on_c, 13, 74, 90
18, 69540, Note_on_c, 13, 74, 0
18, 69540, Note_on_c, 13, 68, 0
18, 69540, Note_on_c, 13, 71, 0
18, 69540, Note_on_c, 13, 69, 90
18, 69540, Note_on_c, 13, 73, 90
18, 69660, Note_on_c, 13, 73, 0
18, 69660, Note_on_c, 13, 69, 0
18, 69660, Note_on_c, 13, 71, 90
18, 69660, Note_on_c, 13, 69, 90
18, 69780, Note_on_c, 13, 69, 0
18, 69780, Note_on_c, 13, 71, 0
18, 69900, Note_on_c, 13, 64, 90
18, 69900, Note_on_c, 13, 69, 90
18, 69960, Note_on_c, 13, 69, 0
18, 69960, Note_on_c, 13, 68, 90
18, 70020, Note_on_c, 13, 68, 0
18, 70020, Note_on_c, 13, 64, 0
18, 70020, Note_on_c, 13, 64, 90
18, 70020, Note_on_c, 13, 69, 90
18, 70500, Note_on_c, 13, 69, 0
18, 70500, Note_on_c, 13, 64, 0
18, 70500, Note_on_c, 13, 68, 90
18, 70500, Note_on_c, 13, 62, 90
18, 70500, Note_on_c, 13, 71, 90
18, 70740, Note_on_c, 13, 68, 0
18, 70740, Note_on_c, 13, 68, 90
18, 71220, Note_on_c, 13, 68, 0
18, 71220, Note_on_c, 13, 71, 0
18, 71220, Note_on_c, 13, 62, 0
18, 71220, Note_on_c, 13, 73, 90
18, 71220, Note_on_c, 13, 64, 90
18, 71220, Note_on_c, 13, 69, 90
18, 71460, Note_on_c, 13, 69, 0
18, 71460, Note_on_c, 13, 64, 0
18, 71460, Note_on_c, 13, 73, 0
18, 71460, Note_on_c, 13, 61, 90
18, 71460, Note_on_c, 13, 66, 90
18, 71700, Note_on_c, 13, 66, 0
18, 71700, Note_on_c, 13, 61, 0
18, 71700, Note_on_c, 13, 63, 90
18, 71700, Note_on_c, 13, 71, 90
18, 71940, Note_on_c, 13, 71, 0
18, 71940, Note_on_c, 13, 63, 0
18, 71940, Note_on_c, 13, 71, 90
18, 71940, Note_on_c, 13, 64, 90
18, 72060, Note_on_c, 13, 64, 0
18, 72060, Note_on_c, 13, 71, 0
18, 72060, Note_on_c, 13, 69, 90
18, 72060, Note_on_c, 13, 63, 90
18, 72180, Note_on_c, 13, 63, 0
18, 72180, Note_on_c, 13, 69, 0
18, 72180, Note_on_c, 13, 64, 90
18, 72180, Note_on_c, 13, 68, 90
18, 72900, Note_on_c, 13, 68, 0
18, 72900, Note_on_c, 13, 64, 0
18, 72900, Note_on_c, 13, 64, 90
18, 72900, Note_on_c, 13, 67, 90
18, 73140, Note_on_c, 13, 67, 0
18, 73140, Note_on_c, 13, 64, 0
18, 73140, Note_on_c, 13, 64, 90
18, 73140, Note_on_c, 13, 66, 90
18, 73380, Note_on_c, 13, 66, 0
18, 73380, Note_on_c, 13, 64, 0
18, 73380, Note_on_c, 13, 66, 90
18, 73380, Note_on_c, 13, 62, 90
18, 73620, Note_on_c, 13, 62, 0
18, 73620, Note_on_c, 13, 66, 0
18, 73620, Note_on_c, 13, 66, 90
18, 73620, Note_on_c, 13, 62, 90
18, 73860, Note_on_c, 13, 62, 0
18, 73860, Note_on_c, 13, 66, 0
18, 73860, Note_on_c, 13, 69, 90
18, 73860, Note_on_c, 13, 61, 90
18, 74100, Note_on_c, 13, 61, 0
18, 74100, Note_on_c, 13, 69, 0
18, 74100, Note_on_c, 13, 68, 90
18, 74100, Note_on_c, 13, 65, 90
18, 74100, Note_on_c, 13, 71, 90
18, 74220, Note_on_c, 13, 65, 0
18, 74220, Note_on_c, 13, 64, 90
18, 74340, Note_on_c, 13, 64, 0
18, 74340, Note_on_c, 13, 71, 0
18, 74340, Note_on_c, 13, 68, 0
18, 74340, Note_on_c, 13, 60, 90
18, 74340, Note_on_c, 13, 64, 90
18, 74340, Note_on_c, 13, 69, 90
18, 74580, Note_on_c, 13, 69, 0
18, 74580, Note_on_c, 13, 64, 0
18, 74580, Note_on_c, 13, 60, 0
18, 74700, Note_on_c, 13, 63, 90
18, 74700, Note_on_c, 13, 66, 90
18, 74700, Note_on_c, 13, 69, 90
18, 74820, Note_on_c, 13, 69, 0
18, 74820, Note_on_c, 13, 66, 0
18, 74820, Note_on_c, 13, 63, 0
18, 74820, Note_on_c, 13, 68, 90
18, 74820, Note_on_c, 13, 64, 90
18, 75060, Note_on_c, 13, 64, 0
18, 75060, Note_on_c, 13, 68, 0
18, 75540, Program_c, 13, 6
18, 75540, Note_on_c, 13, 68, 90
18, 75599, Note_on_c, 13, 68, 0
18, 75600, Note_on_c, 13, 69, 90
18, 75659, Note_on_c, 13, 69, 0
18, 75660, Note_on_c, 13, 68, 90
18, 75719, Note_on_c, 13, 68, 0
18, 75720, Note_on_c, 13, 69, 90
18, 75779, Note_on_c, 13, 69, 0
18, 75780, Note_on_c, 13, 65, 90
18, 75780, Note_on_c, 13, 62, 90
18, 75839, Note_on_c, 13, 62, 0
18, 75839, Note_on_c, 13, 65, 0
18, 75840, Note_on_c, 13, 65, 90
18, 75840, Note_on_c, 13, 67, 90
18, 75899, Note_on_c, 13, 67, 0
18, 75899, Note_on_c, 13, 65, 0
18, 75900, Note_on_c, 13, 62, 90
18, 75900, Note_on_c, 13, 65, 90
18, 75959, Note_on_c, 13, 65, 0
18, 75959, Note_on_c, 13, 62, 0
18, 75960, Note_on_c, 13, 60, 90
18, 75960, Note_on_c, 13, 64, 90
18, 76019, Note_on_c, 13, 64, 0
18, 76019, Note_on_c, 13, 60, 0
18, 76080, Note_on_c, 13, 60, 90
18, 76080, Note_on_c, 13, 64, 90
18, 76139, Note_on_c, 13, 64, 0
18, 76139, Note_on_c, 13, 60, 0
18, 76140, Note_on_c, 13, 62, 90
18, 76140, Note_on_c, 13, 65, 90
18, 76199, Note_on_c, 13, 65, 0
18, 76199, Note_on_c, 13, 62, 0
18, 76260, Note_on_c, 13, 64, 90
18, 76260, Note_on_c, 13, 68, 90
18, 76319, Note_on_c, 13, 68, 0
18, 76319, Note_on_c, 13, 64, 0
18, 76320, Note_on_c, 13, 69, 90
18, 76320, Note_on_c, 13, 64, 90
18, 76379, Note_on_c, 13, 64, 0
18, 76379, Note_on_c, 13, 69, 0
18, 76500, Note_on_c, 13, 64, 90
18, 76500, Note_on_c, 13, 62, 90
18, 76559, Note_on_c, 13, 62, 0
18, 76559, Note_on_c, 13, 64, 0
18, 76620, Note_on_c, 13, 60, 90
18, 76620, Note_on_c, 13, 64, 90
18, 76679, Note_on_c, 13, 64, 0
18, 76679, Note_on_c, 13, 60, 0
18, 76680, Note_on_c, 13, 68, 90
18, 76680, Note_on_c, 13, 64, 90
18, 76739, Note_on_c, 13, 64, 0
18, 76739, Note_on_c, 13, 68, 0
18, 76800, Note_on_c, 13, 62, 90
18, 76800, Note_on_c, 13, 76, 90
18, 76859, Note_on_c, 13, 76, 0
18, 76859, Note_on_c, 13, 62, 0
18, 76860, Note_on_c, 13, 64, 90
18, 76860, Note_on_c, 13, 73, 90
18, 76919, Note_on_c, 13, 73, 0
18, 76919, Note_on_c, 13, 64, 0
18, 76980, Note_on_c, 13, 67, 90
18, 76980, Note_on_c, 13, 69, 90
18, 77039, Note_on_c, 13, 69, 0
18, 77039, Note_on_c, 13, 67, 0
18, 77040, Note_on_c, 13, 65, 90
18, 77040, Note_on_c, 13, 69, 90
18, 77099, Note_on_c, 13, 69, 0
18, 77099, Note_on_c, 13, 65, 0
18, 77160, Note_on_c, 13, 69, 90
18, 77160, Note_on_c, 13, 74, 90
18, 77190, Note_on_c, 13, 74, 0
18, 77190, Note_on_c, 13, 72, 90
18, 77219, Note_on_c, 13, 69, 0
18, 77220, Note_on_c, 13, 72, 0
18, 77220, Note_on_c, 13, 67, 90
18, 77220, Note_on_c, 13, 74, 90
18, 77279, Note_on_c, 13, 74, 0
18, 77279, Note_on_c, 13, 67, 0
18, 77340, Note_on_c, 13, 67, 90
18, 77370, Note_on_c, 13, 67, 0
18, 77370, Note_on_c, 13, 65, 90
18, 77400, Note_on_c, 13, 65, 0
18, 77400, Note_on_c, 13, 64, 90
18, 77459, Note_on_c, 13, 64, 0
18, 77520, Note_on_c, 13, 64, 90
18, 77520, Note_on_c, 13, 72, 90
18, 77579, Note_on_c, 13, 72, 0
18, 77579, Note_on_c, 13, 64, 0
18, 77580, Note_on_c, 13, 65, 90
18, 77580, Note_on_c, 13, 72, 90
18, 77639, Note_on_c, 13, 72, 0
18, 77639, Note_on_c, 13, 65, 0
18, 77730, Note_on_c, 13, 74, 90
18, 77759, Note_on_c, 13, 74, 0
18, 77760, Note_on_c, 13, 69, 90
18, 77760, Note_on_c, 13, 72, 90
18, 77789, Note_on_c, 13, 72, 0
18, 77790, Note_on_c, 13, 71, 90
18, 77819, Note_on_c, 13, 71, 0
18, 77819, Note_on_c, 13, 69, 0
18, 77820, Note_on_c, 13, 69, 90
18, 77820, Note_on_c, 13, 72, 90
18, 77849, Note_on_c, 13, 72, 0
18, 77850, Note_on_c, 13, 71, 90
18, 77879, Note_on_c, 13, 71, 0
18, 77879, Note_on_c, 13, 69, 0
18, 77880, Note_on_c, 13, 68, 90
18, 77880, Note_on_c, 13, 72, 90
18, 77909, Note_on_c, 13, 72, 0
18, 77910, Note_on_c, 13, 76, 90
18, 77939, Note_on_c, 13, 76, 0
18, 77939, Note_on_c, 13, 68, 0
18, 77940, Note_on_c, 13, 76, 90
18, 77999, Note_on_c, 13, 76, 0
18, 78000, Note_on_c, 13, 69, 90
18, 78059, Note_on_c, 13, 69, 0
18, 78060, Note_on_c, 13, 68, 90
18, 78119, Note_on_c, 13, 68, 0
18, 78120, Note_on_c, 13, 69, 90
18, 78239, Note_on_c, 13, 69, 0
18, 78420, Note_on_c, 13, 68, 90
18, 78479, Note_on_c, 13, 68, 0
18, 78480, Note_on_c, 13, 69, 90
18, 78539, Note_on_c, 13, 69, 0
18, 78540, Note_on_c, 13, 68, 90
18, 78599, Note_on_c, 13, 68, 0
18, 78600, Note_on_c, 13, 69, 90
18, 78659, Note_on_c, 13, 69, 0
18, 78660, Note_on_c, 13, 65, 90
18, 78660, Note_on_c, 13, 62, 90
18, 78719, Note_on_c, 13, 62, 0
18, 78719, Note_on_c, 13, 65, 0
18, 78720, Note_on_c, 13, 65, 90
18, 78720, Note_on_c, 13, 67, 90
18, 78779, Note_on_c, 13, 67, 0
18, 78779, Note_on_c, 13, 65, 0
18, 78780, Note_on_c, 13, 62, 90
18, 78780, Note_on_c, 13, 65, 90
18, 78839, Note_on_c, 13, 65, 0
18, 78839, Note_on_c, 13, 62, 0
18, 78840, Note_on_c, 13, 60, 90
18, 78840, Note_on_c, 13, 64, 90
18, 78899, Note_on_c, 13, 64, 0
18, 78899, Note_on_c, 13, 60, 0
18, 78960, Note_on_c, 13, 60, 90
18, 78960, Note_on_c, 13, 64, 90
18, 79019, Note_on_c, 13, 64, 0
18, 79019, Note_on_c, 13, 60, 0
18, 79020, Note_on_c, 13, 62, 90
18, 79020, Note_on_c, 13, 65, 90
18, 79079, Note_on_c, 13, 65, 0
18, 79079, Note_on_c, 13, 62, 0
18, 79140, Note_on_c, 13, 64, 90
18, 79140, Note_on_c, 13, 68, 90
18, 79199, Note_on_c, 13, 68, 0
18, 79199, Note_on_c, 13, 64, 0
18, 79200, Note_on_c, 13, 69, 90
18, 79200, Note_on_c, 13, 64, 90
18, 79259, Note_on_c, 13, 64, 0
18, 79259, Note_on_c, 13, 69, 0
18, 79290, Note_on_c, 13, 64, 90
18, 79319, Note_on_c, 13, 64, 0
18, 79320, Note_on_c, 13, 62, 90
18, 79349, Note_on_c, 13, 62, 0
18, 79350, Note_on_c, 13, 60, 90
18, 79379, Note_on_c, 13, 60, 0
18, 79380, Note_on_c, 13, 64, 90
18, 79380, Note_on_c, 13, 62, 90
18, 79439, Note_on_c, 13, 62, 0
18, 79439, Note_on_c, 13, 64, 0
18, 79500, Note_on_c, 13, 60, 90
18, 79500, Note_on_c, 13, 64, 90
18, 79559, Note_on_c, 13, 64, 0
18, 79559, Note_on_c, 13, 60, 0
18, 79560, Note_on_c, 13, 68, 90
18, 79560, Note_on_c, 13, 64, 90
18, 79619, Note_on_c, 13, 64, 0
18, 79619, Note_on_c, 13, 68, 0
18, 79680, Note_on_c, 13, 71, 90
18, 79680, Note_on_c, 13, 69, 90
18, 79739, Note_on_c, 13, 69, 0
18, 79739, Note_on_c, 13, 71, 0
18, 79740, Note_on_c, 13, 71, 90
18, 79740, Note_on_c, 13, 68, 90
18, 79799, Note_on_c, 13, 68, 0
18, 79799, Note_on_c, 13, 71, 0
18, 79860, Note_on_c, 13, 68, 90
18, 79860, Note_on_c, 13, 64, 90
18, 79919, Note_on_c, 13, 64, 0
18, 79919, Note_on_c, 13, 68, 0
18, 79920, Note_on_c, 13, 64, 90
18, 79920, Note_on_c, 13, 69, 90
18, 79979, Note_on_c, 13, 69, 0
18, 79979, Note_on_c, 13, 64, 0
18, 80040, Note_on_c, 13, 69, 90
18, 80040, Note_on_c, 13, 64, 90
18, 80070, Note_on_c, 13, 69, 0
18, 80070, Note_on_c, 13, 67, 90
18, 80099, Note_on_c, 13, 64, 0
18, 80100, Note_on_c, 13, 67, 0
18, 80100, Note_on_c, 13, 65, 90
18, 80100, Note_on_c, 13, 74, 90
18, 80159, Note_on_c, 13, 74, 0
18, 80159, Note_on_c, 13, 65, 0
18, 80220, Note_on_c, 13, 74, 90
18, 80250, Note_on_c, 13, 74, 0
18, 80250, Note_on_c, 13, 72, 90
18, 80280, Note_on_c, 13, 72, 0
18, 80280, Note_on_c, 13, 71, 90
18, 80280, Note_on_c, 13, 67, 90
18, 80339, Note_on_c, 13, 67, 0
18, 80339, Note_on_c, 13, 71, 0
18, 80400, Note_on_c, 13, 65, 90
18, 80430, Note_on_c, 13, 65, 0
18, 80430, Note_on_c, 13, 67, 90
18, 80460, Note_on_c, 13, 67, 0
18, 80460, Note_on_c, 13, 67, 90
18, 80460, Note_on_c, 13, 64, 90
18, 80519, Note_on_c, 13, 64, 0
18, 80519, Note_on_c, 13, 67, 0
18, 80580, Note_on_c, 13, 67, 90
18, 80639, Note_on_c, 13, 67, 0
18, 80640, Note_on_c, 13, 64, 90
18, 80640, Note_on_c, 13, 67, 90
18, 80699, Note_on_c, 13, 67, 0
18, 80699, Note_on_c, 13, 64, 0
18, 80700, Note_on_c, 13, 67, 90
18, 80759, Note_on_c, 13, 67, 0
18, 80760, Note_on_c, 13, 64, 90
18, 80819, Note_on_c, 13, 64, 0
18, 80820, Note_on_c, 13, 67, 90
18, 80879, Note_on_c, 13, 67, 0
18, 80880, Note_on_c, 13, 71, 90
18, 80880, Note_on_c, 13, 67, 90
18, 80939, Note_on_c, 13, 67, 0
18, 80939, Note_on_c, 13, 71, 0
18, 80940, Note_on_c, 13, 66, 90
18, 80999, Note_on_c, 13, 66, 0
18, 81000, Note_on_c, 13, 62, 90
18, 81000, Note_on_c, 13, 67, 90
18, 81060, Note_on_c, 13, 71, 90
18, 81089, Note_on_c, 13, 71, 0
18, 81090, Note_on_c, 13, 69, 90
18, 81119, Note_on_c, 13, 69, 0
18, 81119, Note_on_c, 13, 67, 0
18, 81119, Note_on_c, 13, 62, 0
18, 81120, Note_on_c, 13, 71, 90
18, 81149, Note_on_c, 13, 71, 0
18, 81150, Note_on_c, 13, 67, 90
18, 81179, Note_on_c, 13, 67, 0
18, 81180, Note_on_c, 13, 62, 90
18, 81239, Note_on_c, 13, 62, 0
18, 81240, Note_on_c, 13, 65, 90
18, 81299, Note_on_c, 13, 65, 0
18, 81300, Note_on_c, 13, 61, 90
18, 81359, Note_on_c, 13, 61, 0
18, 81360, Note_on_c, 13, 65, 90
18, 81419, Note_on_c, 13, 65, 0
18, 81420, Note_on_c, 13, 69, 90
18, 81449, Note_on_c, 13, 69, 0
18, 81450, Note_on_c, 13, 67, 90
18, 81479, Note_on_c, 13, 67, 0
18, 81480, Note_on_c, 13, 69, 90
18, 81509, Note_on_c, 13, 69, 0
18, 81510, Note_on_c, 13, 65, 90
18, 81539, Note_on_c, 13, 65, 0
18, 81540, Note_on_c, 13, 69, 90
18, 81599, Note_on_c, 13, 69, 0
18, 81600, Note_on_c, 13, 69, 90
18, 81600, Note_on_c, 13, 72, 90
18, 81659, Note_on_c, 13, 72, 0
18, 81659, Note_on_c, 13, 69, 0
18, 81660, Note_on_c, 13, 68, 90
18, 81719, Note_on_c, 13, 68, 0
18, 81720, Note_on_c, 13, 64, 90
18, 81720, Note_on_c, 13, 69, 90
18, 81839, Note_on_c, 13, 69, 0
18, 81839, Note_on_c, 13, 64, 0
18, 82020, Note_on_c, 13, 71, 90
18, 82020, Note_on_c, 13, 68, 90
18, 82079, Note_on_c, 13, 68, 0
18, 82079, Note_on_c, 13, 71, 0
18, 82080, Note_on_c, 13, 64, 90
18, 82080, Note_on_c, 13, 69, 90
18, 82139, Note_on_c, 13, 69, 0
18, 82139, Note_on_c, 13, 64, 0
18, 82200, Note_on_c, 13, 69, 90
18, 82200, Note_on_c, 13, 72, 90
18, 82259, Note_on_c, 13, 72, 0
18, 82259, Note_on_c, 13, 69, 0
18, 82260, Note_on_c, 13, 69, 90
18, 82260, Note_on_c, 13, 72, 90
18, 82319, Note_on_c, 13, 72, 0
18, 82319, Note_on_c, 13, 69, 0
18, 82380, Note_on_c, 13, 71, 90
18, 82380, Note_on_c, 13, 65, 90
18, 82439, Note_on_c, 13, 65, 0
18, 82439, Note_on_c, 13, 71, 0
18, 82440, Note_on_c, 13, 72, 90
18, 82440, Note_on_c, 13, 64, 90
18, 82499, Note_on_c, 13, 64, 0
18, 82499, Note_on_c, 13, 72, 0
18, 82560, Note_on_c, 13, 69, 90
18, 82560, Note_on_c, 13, 72, 90
18, 82619, Note_on_c, 13, 72, 0
18, 82619, Note_on_c, 13, 69, 0
18, 82620, Note_on_c, 13, 69, 90
18, 82650, Note_on_c, 13, 69, 0
18, 82650, Note_on_c, 13, 71, 90
18, 82680, Note_on_c, 13, 71, 0
18, 82680, Note_on_c, 13, 69, 90
18, 82739, Note_on_c, 13, 69, 0
18, 82740, Note_on_c, 13, 68, 90
18, 82799, Note_on_c, 13, 68, 0
18, 82800, Note_on_c, 13, 69, 90
18, 82800, Note_on_c, 13, 65, 90
18, 82859, Note_on_c, 13, 65, 0
18, 82859, Note_on_c, 13, 69, 0
18, 82980, Note_on_c, 13, 74, 90
18, 82980, Note_on_c, 13, 68, 90
18, 83039, Note_on_c, 13, 68, 0
18, 83039, Note_on_c, 13, 74, 0
18, 83040, Note_on_c, 13, 68, 90
18, 83040, Note_on_c, 13, 76, 90
18, 83099, Note_on_c, 13, 76, 0
18, 83099, Note_on_c, 13, 68, 0
18, 83100, Note_on_c, 13, 69, 90
18, 83100, Note_on_c, 13, 72, 90
18, 83159, Note_on_c, 13, 72, 0
18, 83159, Note_on_c, 13, 69, 0
18, 83160, Note_on_c, 13, 71, 90
18, 83160, Note_on_c, 13, 68, 90
18, 83219, Note_on_c, 13, 68, 0
18, 83219, Note_on_c, 13, 71, 0
18, 83280, Note_on_c, 13, 64, 90
18, 83280, Note_on_c, 13, 74, 90
18, 83339, Note_on_c, 13, 74, 0
18, 83339, Note_on_c, 13, 64, 0
18, 83340, Note_on_c, 13, 64, 90
18, 83340, Note_on_c, 13, 73, 90
18, 83399, Note_on_c, 13, 73, 0
18, 83399, Note_on_c, 13, 64, 0
18, 83460, Note_on_c, 13, 67, 90
18, 83460, Note_on_c, 13, 69, 90
18, 83519, Note_on_c, 13, 69, 0
18, 83519, Note_on_c, 13, 67, 0
18, 83520, Note_on_c, 13, 65, 90
18, 83520, Note_on_c, 13, 69, 90
18, 83579, Note_on_c, 13, 69, 0
18, 83579, Note_on_c, 13, 65, 0
18, 83640, Note_on_c, 13, 60, 90
18, 83640, Note_on_c, 13, 69, 90
18, 83640, Note_on_c, 13, 65, 90
18, 83699, Note_on_c, 13, 65, 0
18, 83699, Note_on_c, 13, 69, 0
18, 83699, Note_on_c, 13, 60, 0
18, 83700, Note_on_c, 13, 62, 90
18, 83700, Note_on_c, 13, 67, 90
18, 83700, Note_on_c, 13, 65, 90
18, 83759, Note_on_c, 13, 65, 0
18, 83759, Note_on_c, 13, 67, 0
18, 83759, Note_on_c, 13, 62, 0
18, 83820, Note_on_c, 13, 62, 90
18, 83820, Note_on_c, 13, 67, 90
18, 83820, Note_on_c, 13, 65, 90
18, 83879, Note_on_c, 13, 65, 0
18, 83879, Note_on_c, 13, 67, 0
18, 83879, Note_on_c, 13, 62, 0
18, 83880, Note_on_c, 13, 60, 90
18, 83880, Note_on_c, 13, 64, 90
18, 83880, Note_on_c, 13, 67, 90
18, 83939, Note_on_c, 13, 67, 0
18, 83939, Note_on_c, 13, 64, 0
18, 83939, Note_on_c, 13, 60, 0
18, 84000, Note_on_c, 13, 67, 90
18, 84000, Note_on_c, 13, 64, 90
18, 84059, Note_on_c, 13, 64, 0
18, 84059, Note_on_c, 13, 67, 0
18, 84060, Note_on_c, 13, 65, 90
18, 84060, Note_on_c, 13, 62, 90
18, 84119, Note_on_c, 13, 62, 0
18, 84119, Note_on_c, 13, 65, 0
18, 84180, Note_on_c, 13, 68, 90
18, 84180, Note_on_c, 13, 64, 90
18, 84239, Note_on_c, 13, 64, 0
18, 84239, Note_on_c, 13, 68, 0
18, 84240, Note_on_c, 13, 64, 90
18, 84240, Note_on_c, 13, 69, 90
18, 84299, Note_on_c, 13, 69, 0
18, 84299, Note_on_c, 13, 64, 0
18, 84420, Note_on_c, 13, 72, 90
18, 84420, Note_on_c, 13, 69, 90
18, 84479, Note_on_c, 13, 69, 0
18, 84479, Note_on_c, 13, 72, 0
18, 84540, Note_on_c, 13, 71, 90
18, 84540, Note_on_c, 13, 68, 90
18, 84599, Note_on_c, 13, 68, 0
18, 84599, Note_on_c, 13, 71, 0
18, 84600, Note_on_c, 13, 72, 90
18, 84600, Note_on_c, 13, 69, 90
18, 84659, Note_on_c, 13, 69, 0
18, 84659, Note_on_c, 13, 72, 0
18, 84660, Note_on_c, 13, 69, 90
18, 84689, Note_on_c, 13, 69, 0
18, 84690, Note_on_c, 13, 67, 90
18, 84719, Note_on_c, 13, 67, 0
18, 84720, Note_on_c, 13, 65, 90
18, 84749, Note_on_c, 13, 65, 0
18, 84750, Note_on_c, 13, 64, 90
18, 84779, Note_on_c, 13, 64, 0
18, 84780, Note_on_c, 13, 69, 90
18, 84780, Note_on_c, 13, 62, 90
18, 84839, Note_on_c, 13, 62, 0
18, 84839, Note_on_c, 13, 69, 0
18, 84960, Note_on_c, 13, 62, 90
18, 84960, Note_on_c, 13, 70, 90
18, 85019, Note_on_c, 13, 70, 0
18, 85019, Note_on_c, 13, 62, 0
18, 85140, Note_on_c, 13, 73, 90
18, 85140, Note_on_c, 13, 67, 90
18, 85199, Note_on_c, 13, 67, 0
18, 85199, Note_on_c, 13, 73, 0
18, 85320, Note_on_c, 13, 69, 90
18, 85320, Note_on_c, 13, 65, 90
18, 85379, Note_on_c, 13, 65, 0
18, 85379, Note_on_c, 13, 69, 0
18, 85440, Note_on_c, 13, 65, 90
18, 85440, Note_on_c, 13, 69, 90
18, 85499, Note_on_c, 13, 69, 0
18, 85499, Note_on_c, 13, 65, 0
18, 85500, Note_on_c, 13, 68, 90
18, 85500, Note_on_c, 13, 64, 90
18, 85559, Note_on_c, 13, 64, 0
18, 85559, Note_on_c, 13, 68, 0
18, 85560, Note_on_c, 13, 62, 90
18, 85560, Note_on_c, 13, 64, 90
18, 85619, Note_on_c, 13, 64, 0
18, 85619, Note_on_c, 13, 62, 0
18, 85620, Note_on_c, 13, 62, 90
18, 85620, Note_on_c, 13, 68, 90
18, 85679, Note_on_c, 13, 68, 0
18, 85679, Note_on_c, 13, 62, 0
18, 85680, Note_on_c, 13, 71, 90
18, 85680, Note_on_c, 13, 74, 90
18, 85739, Note_on_c, 13, 74, 0
18, 85739, Note_on_c, 13, 71, 0
18, 85740, Note_on_c, 13, 73, 90
18, 85740, Note_on_c, 13, 69, 90
18, 85799, Note_on_c, 13, 69, 0
18, 85799, Note_on_c, 13, 73, 0
18, 85860, Note_on_c, 13, 69, 90
18, 85860, Note_on_c, 13, 66, 90
18, 85919, Note_on_c, 13, 66, 0
18, 85919, Note_on_c, 13, 69, 0
18, 85920, Note_on_c, 13, 62, 90
18, 85920, Note_on_c, 13, 72, 90
18, 85979, Note_on_c, 13, 72, 0
18, 85979, Note_on_c, 13, 62, 0
18, 85980, Note_on_c, 13, 66, 90
18, 85980, Note_on_c, 13, 72, 90
18, 86039, Note_on_c, 13, 72, 0
18, 86039, Note_on_c, 13, 66, 0
18, 86040, Note_on_c, 13, 69, 90
18, 86040, Note_on_c, 13, 72, 90
18, 86099, Note_on_c, 13, 72, 0
18, 86099, Note_on_c, 13, 69, 0
18, 86100, Note_on_c, 13, 67, 90
18, 86100, Note_on_c, 13, 71, 90
18, 86159, Note_on_c, 13, 71, 0
18, 86159, Note_on_c, 13, 67, 0
18, 86220, Note_on_c, 13, 64, 90
18, 86220, Note_on_c, 13, 67, 90
18, 86279, Note_on_c, 13, 67, 0
18, 86279, Note_on_c, 13, 64, 0
18, 86280, Note_on_c, 13, 70, 90
18, 86280, Note_on_c, 13, 72, 90
18, 86339, Note_on_c, 13, 72, 0
18, 86339, Note_on_c, 13, 70, 0
18, 86340, Note_on_c, 13, 67, 90
18, 86340, Note_on_c, 13, 70, 90
18, 86399, Note_on_c, 13, 70, 0
18, 86399, Note_on_c, 13, 67, 0
18, 86400, Note_on_c, 13, 70, 90
18, 86400, Note_on_c, 13, 67, 90
18, 86459, Note_on_c, 13, 67, 0
18, 86459, Note_on_c, 13, 70, 0
18, 86460, Note_on_c, 13, 65, 90
18, 86460, Note_on_c, 13, 69, 90
18, 86519, Note_on_c, 13, 69, 0
18, 86519, Note_on_c, 13, 65, 0
18, 86550, Note_on_c, 13, 65, 90
18, 86580, Note_on_c, 13, 65, 0
18, 86580, Note_on_c, 13, 73, 90
18, 86580, Note_on_c, 13, 64, 90
18, 86639, Note_on_c, 13, 64, 0
18, 86639, Note_on_c, 13, 73, 0
18, 86640, Note_on_c, 13, 67, 90
18, 86640, Note_on_c, 13, 69, 90
18, 86699, Note_on_c, 13, 69, 0
18, 86699, Note_on_c, 13, 67, 0
18, 86700, Note_on_c, 13, 67, 90
18, 86700, Note_on_c, 13, 73, 90
18, 86759, Note_on_c, 13, 73, 0
18, 86759, Note_on_c, 13, 67, 0
18, 86760, Note_on_c, 13, 74, 90
18, 86760, Note_on_c, 13, 65, 90
18, 86819, Note_on_c, 13, 65, 0
18, 86819, Note_on_c, 13, 74, 0
18, 86940, Note_on_c, 13, 69, 90
18, 86940, Note_on_c, 13, 64, 90
18, 86940, Note_on_c, 13, 73, 90
18, 86999, Note_on_c, 13, 73, 0
18, 86999, Note_on_c, 13, 64, 0
18, 86999, Note_on_c, 13, 69, 0
18, 87060, Note_on_c, 13, 64, 90
18, 87060, Note_on_c, 13, 73, 90
18, 87060, Note_on_c, 13, 67, 90
18, 87119, Note_on_c, 13, 67, 0
18, 87119, Note_on_c, 13, 73, 0
18, 87119, Note_on_c, 13, 64, 0
18, 87120, Note_on_c, 13, 65, 90
18, 87120, Note_on_c, 13, 69, 90
18, 87120, Note_on_c, 13, 74, 90
18, 87179, Note_on_c, 13, 74, 0
18, 87179, Note_on_c, 13, 69, 0
18, 87179, Note_on_c, 13, 65, 0
18, 87240, Note_on_c, 13, 65, 90
18, 87240, Note_on_c, 13, 69, 90
18, 87240, Note_on_c, 13, 72, 90
18, 87299, Note_on_c, 13, 72, 0
18, 87299, Note_on_c, 13, 69, 0
18, 87299, Note_on_c, 13, 65, 0
18, 87300, Note_on_c, 13, 62, 90
18, 87300, Note_on_c, 13, 67, 90
18, 87300, Note_on_c, 13, 71, 90
18, 87359, Note_on_c, 13, 71, 0
18, 87359, Note_on_c, 13, 67, 0
18, 87359, Note_on_c, 13, 62, 0
18, 87420, Note_on_c, 13, 71, 90
18, 87420, Note_on_c, 13, 67, 90
18, 87420, Note_on_c, 13, 65, 90
18, 87479, Note_on_c, 13, 65, 0
18, 87479, Note_on_c, 13, 67, 0
18, 87479, Note_on_c, 13, 71, 0
18, 87480, Note_on_c, 13, 64, 90
18, 87480, Note_on_c, 13, 67, 90
18, 87480, Note_on_c, 13, 72, 90
18, 87539, Note_on_c, 13, 72, 0
18, 87539, Note_on_c, 13, 67, 0
18, 87539, Note_on_c, 13, 64, 0
18, 87600, Note_on_c, 13, 64, 90
18, 87600, Note_on_c, 13, 67, 90
18, 87600, Note_on_c, 13, 70, 90
18, 87659, Note_on_c, 13, 70, 0
18, 87659, Note_on_c, 13, 67, 0
18, 87659, Note_on_c, 13, 64, 0
18, 87660, Note_on_c, 13, 62, 90
18, 87660, Note_on_c, 13, 65, 90
18, 87660, Note_on_c, 13, 69, 90
18, 87719, Note_on_c, 13, 69, 0
18, 87719, Note_on_c, 13, 65, 0
18, 87719, Note_on_c, 13, 62, 0
18, 87720, Note_on_c, 13, 72, 90
18, 87779, Note_on_c, 13, 72, 0
18, 87780, Note_on_c, 13, 71, 90
18, 87839, Note_on_c, 13, 71, 0
18, 87840, Note_on_c, 13, 69, 90
18, 87899, Note_on_c, 13, 69, 0
18, 87960, Note_on_c, 13, 71, 90
18, 87960, Note_on_c, 13, 68, 90
18, 88019, Note_on_c, 13, 68, 0
18, 88019, Note_on_c, 13, 71, 0
18, 88020, Note_on_c, 13, 72, 90
18, 88020, Note_on_c, 13, 69, 90
18, 88079, Note_on_c, 13, 69, 0
18, 88079, Note_on_c, 13, 72, 0
18, 88080, Note_on_c, 13, 69, 90
18, 88080, Note_on_c, 13, 74, 90
18, 88139, Note_on_c, 13, 74, 0
18, 88139, Note_on_c, 13, 69, 0
18, 88140, Note_on_c, 13, 71, 90
18, 88140, Note_on_c, 13, 68, 90
18, 88199, Note_on_c, 13, 68, 0
18, 88199, Note_on_c, 13, 71, 0
18, 88200, Note_on_c, 13, 64, 90
18, 88200, Note_on_c, 13, 69, 90
18, 88319, Note_on_c, 13, 69, 0
18, 88319, Note_on_c, 13, 64, 0
18, 88500, Note_on_c, 13, 68, 90
18, 88559, Note_on_c, 13, 68, 0
18, 88560, Note_on_c, 13, 69, 90
18, 88619, Note_on_c, 13, 69, 0
18, 88620, Note_on_c, 13, 68, 90
18, 88679, Note_on_c, 13, 68, 0
18, 88680, Note_on_c, 13, 69, 90
18, 88739, Note_on_c, 13, 69, 0
18, 88740, Note_on_c, 13, 65, 90
18, 88740, Note_on_c, 13, 62, 90
18, 88799, Note_on_c, 13, 62, 0
18, 88799, Note_on_c, 13, 65, 0
18, 88800, Note_on_c, 13, 65, 90
18, 88800, Note_on_c, 13, 67, 90
18, 88859, Note_on_c, 13, 67, 0
18, 88859, Note_on_c, 13, 65, 0
18, 88860, Note_on_c, 13, 62, 90
18, 88860, Note_on_c, 13, 65, 90
18, 88919, Note_on_c, 13, 65, 0
18, 88919, Note_on_c, 13, 62, 0
18, 88920, Note_on_c, 13, 60, 90
18, 88920, Note_on_c, 13, 64, 90
18, 88979, Note_on_c, 13, 64, 0
18, 88979, Note_on_c, 13, 60, 0
18, 89040, Note_on_c, 13, 60, 90
18, 89040, Note_on_c, 13, 64, 90
18, 89099, Note_on_c, 13, 64, 0
18, 89099, Note_on_c, 13, 60, 0
18, 89100, Note_on_c, 13, 62, 90
18, 89100, Note_on_c, 13, 65, 90
18, 89159, Note_on_c, 13, 65, 0
18, 89159, Note_on_c, 13, 62, 0
18, 89220, Note_on_c, 13, 64, 90
18, 89220, Note_on_c, 13, 68, 90
18, 89279, Note_on_c, 13, 68, 0
18, 89279, Note_on_c, 13, 64, 0
18, 89280, Note_on_c, 13, 69, 90
18, 89280, Note_on_c, 13, 64, 90
18, 89339, Note_on_c, 13, 64, 0
18, 89339, Note_on_c, 13, 69, 0
18, 89460, Note_on_c, 13, 64, 90
18, 89460, Note_on_c, 13, 62, 90
18, 89519, Note_on_c, 13, 62, 0
18, 89519, Note_on_c, 13, 64, 0
18, 89580, Note_on_c, 13, 60, 90
18, 89580, Note_on_c, 13, 64, 90
18, 89639, Note_on_c, 13, 64, 0
18, 89639, Note_on_c, 13, 60, 0
18, 89640, Note_on_c, 13, 68, 90
18, 89640, Note_on_c, 13, 64, 90
18, 89699, Note_on_c, 13, 64, 0
18, 89699, Note_on_c, 13, 68, 0
18, 89760, Note_on_c, 13, 62, 90
18, 89760, Note_on_c, 13, 76, 90
18, 89819, Note_on_c, 13, 76, 0
18, 89819, Note_on_c, 13, 62, 0
18, 89820, Note_on_c, 13, 64, 90
18, 89820, Note_on_c, 13, 73, 90
18, 89879, Note_on_c, 13, 73, 0
18, 89879, Note_on_c, 13, 64, 0
18, 89940, Note_on_c, 13, 67, 90
18, 89940, Note_on_c, 13, 69, 90
18, 89999, Note_on_c, 13, 69, 0
18, 89999, Note_on_c, 13, 67, 0
18, 90000, Note_on_c, 13, 65, 90
18, 90000, Note_on_c, 13, 69, 90
18, 90059, Note_on_c, 13, 69, 0
18, 90059, Note_on_c, 13, 65, 0
18, 90120, Note_on_c, 13, 69, 90
18, 90120, Note_on_c, 13, 74, 90
18, 90150, Note_on_c, 13, 74, 0
18, 90150, Note_on_c, 13, 72, 90
18, 90179, Note_on_c, 13, 69, 0
18, 90180, Note_on_c, 13, 72, 0
18, 90180, Note_on_c, 13, 67, 90
18, 90180, Note_on_c, 13, 74, 90
18, 90239, Note_on_c, 13, 74, 0
18, 90239, Note_on_c, 13, 67, 0
18, 90300, Note_on_c, 13, 67, 90
18, 90330, Note_on_c, 13, 67, 0
18, 90330, Note_on_c, 13, 65, 90
18, 90360, Note_on_c, 13, 65, 0
18, 90360, Note_on_c, 13, 64, 90
18, 90419, Note_on_c, 13, 64, 0
18, 90480, Note_on_c, 13, 64, 90
18, 90480, Note_on_c, 13, 72, 90
18, 90539, Note_on_c, 13, 72, 0
18, 90539, Note_on_c, 13, 64, 0
18, 90540, Note_on_c, 13, 65, 90
18, 90540, Note_on_c, 13, 72, 90
18, 90599, Note_on_c, 13, 72, 0
18, 90599, Note_on_c, 13, 65, 0
18, 90690, Note_on_c, 13, 74, 90
18, 90719, Note_on_c, 13, 74, 0
18, 90720, Note_on_c, 13, 69, 90
18, 90720, Note_on_c, 13, 72, 90
18, 90749, Note_on_c, 13, 72, 0
18, 90750, Note_on_c, 13, 71, 90
18, 90779, Note_on_c, 13, 71, 0
18, 90779, Note_on_c, 13, 69, 0
18, 90780, Note_on_c, 13, 69, 90
18, 90780, Note_on_c, 13, 72, 90
18, 90809, Note_on_c, 13, 72, 0
18, 90810, Note_on_c, 13, 71, 90
18, 90839, Note_on_c, 13, 71, 0
18, 90839, Note_on_c, 13, 69, 0
18, 90840, Note_on_c, 13, 68, 90
18, 90840, Note_on_c, 13, 72, 90
18, 90869, Note_on_c, 13, 72, 0
18, 90870, Note_on_c, 13, 76, 90
18, 90899, Note_on_c, 13, 76, 0
18, 90899, Note_on_c, 13, 68, 0
18, 90900, Note_on_c, 13, 76, 90
18, 90959, Note_on_c, 13, 76, 0
18, 90960, Note_on_c, 13, 69, 90
18, 91019, Note_on_c, 13, 69, 0
18, 91020, Note_on_c, 13, 68, 90
18, 91079, Note_on_c, 13, 68, 0
18, 91080, Note_on_c, 13, 60, 90
18, 91080, Note_on_c, 13, 64, 90
18, 91080, Note_on_c, 13, 69, 90
18, 91259, Note_on_c, 13, 69, 0
18, 91259, Note_on_c, 13, 64, 0
18, 91259, Note_on_c, 13, 60, 0
18, 91500, Note_on_c, 13, 71, 90
18, 91620, Note_on_c, 13, 71, 0
18, 91620, Note_on_c, 13, 67, 90
18, 91680, Note_on_c, 13, 67, 0
18, 91680, Note_on_c, 13, 66, 90
18, 91680, Note_on_c, 13, 69, 90
18, 91740, Note_on_c, 13, 69, 0
18, 91740, Note_on_c, 13, 66, 0
18, 91740, Note_on_c, 13, 62, 90
18, 91740, Note_on_c, 13, 67, 90
18, 91800, Note_on_c, 13, 67, 0
18, 91800, Note_on_c, 13, 62, 0
18, 91800, Note_on_c, 13, 62, 90
18, 91800, Note_on_c, 13, 66, 90
18, 91800, Note_on_c, 13, 69, 90
18, 91980, Note_on_c, 13, 69, 0
18, 91980, Note_on_c, 13, 66, 0
18, 91980, Note_on_c, 13, 67, 90
18, 91980, Note_on_c, 13, 71, 90
18, 92160, Note_on_c, 13, 71, 0
18, 92160, Note_on_c, 13, 67, 0
18, 92160, Note_on_c, 13, 66, 90
18, 92160, Note_on_c, 13, 69, 90
18, 92340, Note_on_c, 13, 69, 0
18, 92340, Note_on_c, 13, 66, 0
18, 92340, Note_on_c, 13, 62, 0
18, 92340, Note_on_c, 13, 69, 90
18, 92400, Note_on_c, 13, 69, 0
18, 92400, Note_on_c, 13, 71, 90
18, 92460, Note_on_c, 13, 71, 0
18, 92460, Note_on_c, 13, 69, 90
18, 92520, Note_on_c, 13, 69, 0
18, 92520, Note_on_c, 13, 64, 90
18, 92520, Note_on_c, 13, 68, 90
18, 92520, Note_on_c, 13, 71, 90
18, 92700, Note_on_c, 13, 71, 0
18, 92700, Note_on_c, 13, 68, 0
18, 92700, Note_on_c, 13, 69, 90
18, 92700, Note_on_c, 13, 72, 90
18, 92880, Note_on_c, 13, 72, 0
18, 92880, Note_on_c, 13, 69, 0
18, 92880, Note_on_c, 13, 68, 90
18, 92880, Note_on_c, 13, 71, 90
18, 93060, Note_on_c, 13, 71, 0
18, 93060, Note_on_c, 13, 68, 0
18, 93060, Note_on_c, 13, 64, 0
18, 93060, Note_on_c, 13, 72, 90
18, 93060, Note_on_c, 13, 69, 90
18, 93240, Note_on_c, 13, 69, 0
18, 93240, Note_on_c, 13, 72, 0
18, 93240, Note_on_c, 13, 66, 90
18, 93240, Note_on_c, 13, 71, 90
18, 93300, Note_on_c, 13, 71, 0
18, 93300, Note_on_c, 13, 66, 0
18, 93360, Program_c, 13, 6
18, 93360, Note_on_c, 13, 64, 90
18, 93360, Note_on_c, 13, 67, 90
18, 93420, Note_on_c, 13, 67, 0
18, 93420, Note_on_c, 13, 64, 0
18, 93420, Note_on_c, 13, 66, 90
18, 93480, Note_on_c, 13, 69, 90
18, 93509, Note_on_c, 13, 69, 0
18, 93510, Note_on_c, 13, 71, 90
18, 93539, Note_on_c, 13, 71, 0
18, 93540, Note_on_c, 13, 69, 90
18, 93569, Note_on_c, 13, 69, 0
18, 93570, Note_on_c, 13, 72, 90
18, 93599, Note_on_c, 13, 72, 0
18, 93600, Note_on_c, 13, 66, 0
18, 93600, Note_on_c, 13, 71, 90
18, 93600, Note_on_c, 13, 63, 90
18, 93780, Note_on_c, 13, 63, 0
18, 93780, Note_on_c, 13, 71, 0
18, 93780, Note_on_c, 13, 64, 90
18, 93780, Note_on_c, 13, 67, 90
18, 93839, Note_on_c, 13, 67, 0
18, 93839, Note_on_c, 13, 64, 0
18, 93840, Note_on_c, 13, 64, 90
18, 93899, Note_on_c, 13, 64, 0
18, 93900, Note_on_c, 13, 63, 90
18, 93959, Note_on_c, 13, 63, 0
18, 93960, Note_on_c, 13, 64, 90
18, 94019, Note_on_c, 13, 64, 0
18, 94020, Note_on_c, 13, 59, 90
18, 94079, Note_on_c, 13, 59, 0
18, 94080, Note_on_c, 13, 64, 90
18, 94139, Note_on_c, 13, 64, 0
18, 94140, Note_on_c, 13, 71, 90
18, 94199, Note_on_c, 13, 71, 0
18, 94200, Note_on_c, 13, 69, 90
18, 94259, Note_on_c, 13, 69, 0
18, 94260, Note_on_c, 13, 68, 90
18, 94319, Note_on_c, 13, 68, 0
18, 94320, Note_on_c, 13, 69, 90
18, 94379, Note_on_c, 13, 69, 0
18, 94440, Note_on_c, 13, 64, 90
18, 94440, Note_on_c, 13, 72, 90
18, 94499, Note_on_c, 13, 72, 0
18, 94499, Note_on_c, 13, 64, 0
18, 94500, Note_on_c, 13, 69, 90
18, 94500, Note_on_c, 13, 66, 90
18, 94559, Note_on_c, 13, 66, 0
18, 94559, Note_on_c, 13, 69, 0
18, 94560, Note_on_c, 13, 62, 90
18, 94619, Note_on_c, 13, 62, 0
18, 94620, Note_on_c, 13, 61, 90
18, 94679, Note_on_c, 13, 61, 0
18, 94680, Note_on_c, 13, 62, 90
18, 94739, Note_on_c, 13, 62, 0
18, 94740, Note_on_c, 13, 67, 90
18, 94799, Note_on_c, 13, 67, 0
18, 94800, Note_on_c, 13, 66, 90
18, 94859, Note_on_c, 13, 66, 0
18, 94860, Note_on_c, 13, 67, 90
18, 94919, Note_on_c, 13, 67, 0
18, 94920, Note_on_c, 13, 69, 90
18, 94979, Note_on_c, 13, 69, 0
18, 94980, Note_on_c, 13, 66, 90
18, 95039, Note_on_c, 13, 66, 0
18, 95040, Note_on_c, 13, 67, 90
18, 95099, Note_on_c, 13, 67, 0
18, 95100, Note_on_c, 13, 69, 90
18, 95159, Note_on_c, 13, 69, 0
18, 95160, Note_on_c, 13, 71, 90
18, 95219, Note_on_c, 13, 71, 0
18, 95220, Note_on_c, 13, 67, 90
18, 95279, Note_on_c, 13, 67, 0
18, 95280, Note_on_c, 13, 65, 90
18, 95339, Note_on_c, 13, 65, 0
18, 95340, Note_on_c, 13, 64, 90
18, 95399, Note_on_c, 13, 64, 0
18, 95400, Note_on_c, 13, 63, 90
18, 95400, Note_on_c, 13, 69, 90
18, 95580, Note_on_c, 13, 69, 0
18, 95580, Note_on_c, 13, 63, 0
18, 95580, Note_on_c, 13, 64, 90
18, 95580, Note_on_c, 13, 67, 90
18, 95639, Note_on_c, 13, 67, 0
18, 95639, Note_on_c, 13, 64, 0
18, 95640, Note_on_c, 13, 64, 90
18, 95640, Note_on_c, 13, 67, 90
18, 95699, Note_on_c, 13, 67, 0
18, 95699, Note_on_c, 13, 64, 0
18, 95700, Note_on_c, 13, 69, 90
18, 95700, Note_on_c, 13, 63, 90
18, 95759, Note_on_c, 13, 63, 0
18, 95759, Note_on_c, 13, 69, 0
18, 95760, Note_on_c, 13, 64, 90
18, 95760, Note_on_c, 13, 67, 90
18, 95940, Note_on_c, 13, 67, 0
18, 95940, Note_on_c, 13, 64, 0
18, 95940, Note_on_c, 13, 64, 90
18, 95999, Note_on_c, 13, 64, 0
18, 96000, Note_on_c, 13, 67, 90
18, 96000, Note_on_c, 13, 64, 90
18, 96060, Note_on_c, 13, 64, 0
18, 96060, Note_on_c, 13, 67, 0
18, 96060, Note_on_c, 13, 62, 90
18, 96060, Note_on_c, 13, 66, 90
18, 96120, Note_on_c, 13, 66, 0
18, 96120, Note_on_c, 13, 62, 0
18, 96120, Note_on_c, 13, 67, 90
18, 96120, Note_on_c, 13, 64, 90
18, 96180, Note_on_c, 13, 64, 0
18, 96180, Note_on_c, 13, 67, 0
18, 96180, Note_on_c, 13, 66, 90
18, 96180, Note_on_c, 13, 63, 90
18, 96240, Note_on_c, 13, 63, 0
18, 96240, Note_on_c, 13, 66, 0
18, 96240, Note_on_c, 13, 67, 90
18, 96240, Note_on_c, 13, 64, 90
18, 96300, Note_on_c, 13, 64, 0
18, 96300, Note_on_c, 13, 67, 0
18, 96300, Note_on_c, 13, 64, 90
18, 96300, Note_on_c, 13, 67, 90
18, 96360, Note_on_c, 13, 67, 0
18, 96360, Note_on_c, 13, 64, 0
18, 96360, Note_on_c, 13, 69, 90
18, 96360, Note_on_c, 13, 66, 90
18, 96420, Note_on_c, 13, 66, 0
18, 96420, Note_on_c, 13, 69, 0
18, 96420, Note_on_c, 13, 62, 90
18, 96420, Note_on_c, 13, 66, 90
18, 96480, Note_on_c, 13, 66, 0
18, 96480, Note_on_c, 13, 62, 0
18, 96480, Note_on_c, 13, 67, 90
18, 96480, Note_on_c, 13, 62, 90
18, 96540, Note_on_c, 13, 62, 0
18, 96540, Note_on_c, 13, 67, 0
18, 96540, Note_on_c, 13, 62, 90
18, 96540, Note_on_c, 13, 67, 90
18, 96600, Note_on_c, 13, 67, 0
18, 96600, Note_on_c, 13, 62, 0
18, 96600, Note_on_c, 13, 67, 90
18, 96600, Note_on_c, 13, 71, 90
18, 96660, Note_on_c, 13, 71, 0
18, 96660, Note_on_c, 13, 67, 0
18, 96660, Note_on_c, 13, 64, 90
18, 96660, Note_on_c, 13, 69, 90
18, 96660, Note_on_c, 13, 66, 90
18, 96779, Note_on_c, 13, 66, 0
18, 96779, Note_on_c, 13, 69, 0
18, 96779, Note_on_c, 13, 64, 0
18, 96780, Note_on_c, 13, 66, 90
18, 96780, Note_on_c, 13, 63, 90
18, 96839, Note_on_c, 13, 63, 0
18, 96839, Note_on_c, 13, 66, 0
18, 96840, Note_on_c, 13, 67, 90
18, 96840, Note_on_c, 13, 64, 90
18, 96899, Note_on_c, 13, 64, 0
18, 96899, Note_on_c, 13, 67, 0
18, 97020, Note_on_c, 13, 71, 90
18, 97020, Note_on_c, 13, 69, 90
18, 97079, Note_on_c, 13, 69, 0
18, 97079, Note_on_c, 13, 71, 0
18, 97080, Note_on_c, 13, 67, 90
18, 97080, Note_on_c, 13, 71, 90
18, 97139, Note_on_c, 13, 71, 0
18, 97139, Note_on_c, 13, 67, 0
18, 97140, Note_on_c, 13, 64, 90
18, 97140, Note_on_c, 13, 67, 90
18, 97199, Note_on_c, 13, 67, 0
18, 97199, Note_on_c, 13, 64, 0
18, 97200, Note_on_c, 13, 66, 90
18, 97200, Note_on_c, 13, 63, 90
18, 97259, Note_on_c, 13, 63, 0
18, 97259, Note_on_c, 13, 66, 0
18, 97320, Note_on_c, 13, 69, 90
18, 97320, Note_on_c, 13, 71, 90
18, 97379, Note_on_c, 13, 71, 0
18, 97379, Note_on_c, 13, 69, 0
18, 97380, Note_on_c, 13, 68, 90
18, 97380, Note_on_c, 13, 71, 90
18, 97439, Note_on_c, 13, 71, 0
18, 97439, Note_on_c, 13, 68, 0
18, 97620, Note_on_c, 13, 69, 90
18, 97620, Note_on_c, 13, 72, 90
18, 97679, Note_on_c, 13, 72, 0
18, 97679, Note_on_c, 13, 69, 0
18, 97680, Note_on_c, 13, 69, 90
18, 97710, Note_on_c, 13, 69, 0
18, 97710, Note_on_c, 13, 67, 90
18, 97740, Note_on_c, 13, 67, 0
18, 97740, Note_on_c, 13, 66, 90
18, 97740, Note_on_c, 13, 69, 90
18, 97799, Note_on_c, 13, 69, 0
18, 97799, Note_on_c, 13, 66, 0
18, 98040, Note_on_c, 13, 71, 90
18, 98040, Note_on_c, 13, 67, 90
18, 98069, Note_on_c, 13, 67, 0
18, 98070, Note_on_c, 13, 66, 90
18, 98099, Note_on_c, 13, 66, 0
18, 98099, Note_on_c, 13, 71, 0
18, 98100, Note_on_c, 13, 71, 90
18, 98100, Note_on_c, 13, 64, 90
18, 98159, Note_on_c, 13, 64, 0
18, 98159, Note_on_c, 13, 71, 0
18, 98340, Note_on_c, 13, 66, 90
18, 98340, Note_on_c, 13, 64, 90
18, 98399, Note_on_c, 13, 64, 0
18, 98399, Note_on_c, 13, 66, 0
18, 98400, Note_on_c, 13, 69, 90
18, 98400, Note_on_c, 13, 64, 90
18, 98459, Note_on_c, 13, 64, 0
18, 98459, Note_on_c, 13, 69, 0
18, 98460, Note_on_c, 13, 69, 90
18, 98460, Note_on_c, 13, 63, 90
18, 98519, Note_on_c, 13, 63, 0
18, 98519, Note_on_c, 13, 69, 0
18, 98700, Note_on_c, 13, 64, 90
18, 98759, Note_on_c, 13, 64, 0
18, 98760, Note_on_c, 13, 62, 90
18, 98819, Note_on_c, 13, 62, 0
18, 98820, Note_on_c, 13, 67, 90
18, 98820, Note_on_c, 13, 61, 90
18, 98879, Note_on_c, 13, 61, 0
18, 98879, Note_on_c, 13, 67, 0
18, 99060, Note_on_c, 13, 65, 90
18, 99060, Note_on_c, 13, 69, 90
18, 99119, Note_on_c, 13, 69, 0
18, 99119, Note_on_c, 13, 65, 0
18, 99120, Note_on_c, 13, 62, 90
18, 99120, Note_on_c, 13, 69, 90
18, 99179, Note_on_c, 13, 69, 0
18, 99179, Note_on_c, 13, 62, 0
18, 99180, Note_on_c, 13, 71, 90
18, 99180, Note_on_c, 13, 62, 90
18, 99239, Note_on_c, 13, 62, 0
18, 99239, Note_on_c, 13, 71, 0
18, 99300, Note_on_c, 13, 71, 90
18, 99300, Note_on_c, 13, 67, 90
18, 99359, Note_on_c, 13, 67, 0
18, 99359, Note_on_c, 13, 71, 0
18, 99360, Note_on_c, 13, 67, 90
18, 99360, Note_on_c, 13, 72, 90
18, 99540, Note_on_c, 13, 72, 0
18, 99540, Note_on_c, 13, 67, 0
18, 99540, Note_on_c, 13, 62, 90
18, 99540, Note_on_c, 13, 72, 90
18, 99720, Note_on_c, 13, 72, 0
18, 99720, Note_on_c, 13, 62, 0
18, 99720, Note_on_c, 13, 67, 90
18, 99720, Note_on_c, 13, 71, 90
18, 99840, Note_on_c, 13, 71, 0
18, 99840, Note_on_c, 13, 72, 90
18, 99900, Note_on_c, 13, 72, 0
18, 99900, Note_on_c, 13, 67, 0
18, 99900, Note_on_c, 13, 69, 90
18, 99900, Note_on_c, 13, 72, 90
18, 99960, Note_on_c, 13, 72, 0
18, 99960, Note_on_c, 13, 69, 0
18, 99960, Note_on_c, 13, 74, 90
18, 99960, Note_on_c, 13, 72, 90
18, 100020, Note_on_c, 13, 72, 0
18, 100020, Note_on_c, 13, 74, 0
18, 100020, Note_on_c, 13, 71, 90
18, 100020, Note_on_c, 13, 74, 90
18, 100080, Note_on_c, 13, 74, 0
18, 100080, Note_on_c, 13, 71, 0
18, 100080, Note_on_c, 13, 67, 90
18, 100080, Note_on_c, 13, 72, 90
18, 100199, Note_on_c, 13, 72, 0
18, 100199, Note_on_c, 13, 67, 0
18, 100380, Note_on_c, 13, 68, 90
18, 100439, Note_on_c, 13, 68, 0
18, 100440, Note_on_c, 13, 69, 90
18, 100499, Note_on_c, 13, 69, 0
18, 100500, Note_on_c, 13, 68, 90
18, 100559, Note_on_c, 13, 68, 0
18, 100560, Note_on_c, 13, 69, 90
18, 100619, Note_on_c, 13, 69, 0
18, 100620, Note_on_c, 13, 65, 90
18, 100620, Note_on_c, 13, 62, 90
18, 100679, Note_on_c, 13, 62, 0
18, 100679, Note_on_c, 13, 65, 0
18, 100680, Note_on_c, 13, 65, 90
18, 100680, Note_on_c, 13, 67, 90
18, 100739, Note_on_c, 13, 67, 0
18, 100739, Note_on_c, 13, 65, 0
18, 100740, Note_on_c, 13, 62, 90
18, 100740, Note_on_c, 13, 65, 90
18, 100799, Note_on_c, 13, 65, 0
18, 100799, Note_on_c, 13, 62, 0
18, 100800, Note_on_c, 13, 60, 90
18, 100800, Note_on_c, 13, 64, 90
18, 100859, Note_on_c, 13, 64, 0
18, 100859, Note_on_c, 13, 60, 0
18, 100920, Note_on_c, 13, 60, 90
18, 100920, Note_on_c, 13, 64, 90
18, 100979, Note_on_c, 13, 64, 0
18, 100979, Note_on_c, 13, 60, 0
18, 100980, Note_on_c, 13, 62, 90
18, 100980, Note_on_c, 13, 65, 90
18, 101039, Note_on_c, 13, 65, 0
18, 101039, Note_on_c, 13, 62, 0
18, 101100, Note_on_c, 13, 64, 90
18, 101100, Note_on_c, 13, 68, 90
18, 101159, Note_on_c, 13, 68, 0
18, 101159, Note_on_c, 13, 64, 0
18, 101160, Note_on_c, 13, 69, 90
18, 101160, Note_on_c, 13, 64, 90
18, 101219, Note_on_c, 13, 64, 0
18, 101219, Note_on_c, 13, 69, 0
18, 101340, Note_on_c, 13, 64, 90
18, 101340, Note_on_c, 13, 62, 90
18, 101399, Note_on_c, 13, 62, 0
18, 101399, Note_on_c, 13, 64, 0
18, 101460, Note_on_c, 13, 60, 90
18, 101460, Note_on_c, 13, 64, 90
18, 101519, Note_on_c, 13, 64, 0
18, 101519, Note_on_c, 13, 60, 0
18, 101520, Note_on_c, 13, 68, 90
18, 101520, Note_on_c, 13, 64, 90
18, 101579, Note_on_c, 13, 64, 0
18, 101579, Note_on_c, 13, 68, 0
18, 101640, Note_on_c, 13, 62, 90
18, 101640, Note_on_c, 13, 76, 90
18, 101699, Note_on_c, 13, 76, 0
18, 101699, Note_on_c, 13, 62, 0
18, 101700, Note_on_c, 13, 64, 90
18, 101700, Note_on_c, 13, 73, 90
18, 101759, Note_on_c, 13, 73, 0
18, 101759, Note_on_c, 13, 64, 0
18, 101820, Note_on_c, 13, 67, 90
18, 101820, Note_on_c, 13, 69, 90
18, 101879, Note_on_c, 13, 69, 0
18, 101879, Note_on_c, 13, 67, 0
18, 101880, Note_on_c, 13, 65, 90
18, 101880, Note_on_c, 13, 69, 90
18, 101939, Note_on_c, 13, 69, 0
18, 101939, Note_on_c, 13, 65, 0
18, 102000, Note_on_c, 13, 69, 90
18, 102000, Note_on_c, 13, 74, 90
18, 102030, Note_on_c, 13, 74, 0
18, 102030, Note_on_c, 13, 72, 90
18, 102059, Note_on_c, 13, 69, 0
18, 102060, Note_on_c, 13, 72, 0
18, 102060, Note_on_c, 13, 67, 90
18, 102060, Note_on_c, 13, 74, 90
18, 102119, Note_on_c, 13, 74, 0
18, 102119, Note_on_c, 13, 67, 0
18, 102180, Note_on_c, 13, 67, 90
18, 102210, Note_on_c, 13, 67, 0
18, 102210, Note_on_c, 13, 65, 90
18, 102240, Note_on_c, 13, 65, 0
18, 102240, Note_on_c, 13, 64, 90
18, 102299, Note_on_c, 13, 64, 0
18, 102360, Note_on_c, 13, 64, 90
18, 102360, Note_on_c, 13, 72, 90
18, 102419, Note_on_c, 13, 72, 0
18, 102419, Note_on_c, 13, 64, 0
18, 102420, Note_on_c, 13, 65, 90
18, 102420, Note_on_c, 13, 72, 90
18, 102479, Note_on_c, 13, 72, 0
18, 102479, Note_on_c, 13, 65, 0
18, 102570, Note_on_c, 13, 74, 90
18, 102599, Note_on_c, 13, 74, 0
18, 102600, Note_on_c, 13, 69, 90
18, 102600, Note_on_c, 13, 72, 90
18, 102629, Note_on_c, 13, 72, 0
18, 102630, Note_on_c, 13, 71, 90
18, 102659, Note_on_c, 13, 71, 0
18, 102659, Note_on_c, 13, 69, 0
18, 102660, Note_on_c, 13, 69, 90
18, 102660, Note_on_c, 13, 72, 90
18, 102689, Note_on_c, 13, 72, 0
18, 102690, Note_on_c, 13, 71, 90
18, 102719, Note_on_c, 13, 71, 0
18, 102719, Note_on_c, 13, 69, 0
18, 102720, Note_on_c, 13, 68, 90
18, 102720, Note_on_c, 13, 72, 90
18, 102749, Note_on_c, 13, 72, 0
18, 102750, Note_on_c, 13, 76, 90
18, 102779, Note_on_c, 13, 76, 0
18, 102779, Note_on_c, 13, 68, 0
18, 102780, Note_on_c, 13, 76, 90
18, 102839, Note_on_c, 13, 76, 0
18, 102840, Note_on_c, 13, 69, 90
18, 102899, Note_on_c, 13, 69, 0
18, 102900, Note_on_c, 13, 68, 90
18, 102959, Note_on_c, 13, 68, 0
18, 102960, Note_on_c, 13, 69, 90
18, 103079, Note_on_c, 13, 69, 0
18, 103260, Note_on_c, 13, 68, 90
18, 103319, Note_on_c, 13, 68, 0
18, 103320, Note_on_c, 13, 69, 90
18, 103379, Note_on_c, 13, 69, 0
18, 103380, Note_on_c, 13, 68, 90
18, 103439, Note_on_c, 13, 68, 0
18, 103440, Note_on_c, 13, 69, 90
18, 103499, Note_on_c, 13, 69, 0
18, 103500, Note_on_c, 13, 65, 90
18, 103500, Note_on_c, 13, 62, 90
18, 103559, Note_on_c, 13, 62, 0
18, 103559, Note_on_c, 13, 65, 0
18, 103560, Note_on_c, 13, 65, 90
18, 103560, Note_on_c, 13, 67, 90
18, 103619, Note_on_c, 13, 67, 0
18, 103619, Note_on_c, 13, 65, 0
18, 103620, Note_on_c, 13, 62, 90
18, 103620, Note_on_c, 13, 65, 90
18, 103679, Note_on_c, 13, 65, 0
18, 103679, Note_on_c, 13, 62, 0
18, 103680, Note_on_c, 13, 60, 90
18, 103680, Note_on_c, 13, 64, 90
18, 103739, Note_on_c, 13, 64, 0
18, 103739, Note_on_c, 13, 60, 0
18, 103800, Note_on_c, 13, 60, 90
18, 103800, Note_on_c, 13, 64, 90
18, 103859, Note_on_c, 13, 64, 0
18, 103859, Note_on_c, 13, 60, 0
18, 103860, Note_on_c, 13, 62, 90
18, 103860, Note_on_c, 13, 65, 90
18, 103919, Note_on_c, 13, 65, 0
18, 103919, Note_on_c, 13, 62, 0
18, 103980, Note_on_c, 13, 64, 90
18, 103980, Note_on_c, 13, 68, 90
18, 104039, Note_on_c, 13, 68, 0
18, 104039, Note_on_c, 13, 64, 0
18, 104040, Note_on_c, 13, 69, 90
18, 104040, Note_on_c, 13, 64, 90
18, 104099, Note_on_c, 13, 64, 0
18, 104099, Note_on_c, 13, 69, 0
18, 104130, Note_on_c, 13, 64, 90
18, 104159, Note_on_c, 13, 64, 0
18, 104160, Note_on_c, 13, 62, 90
18, 104189, Note_on_c, 13, 62, 0
18, 104190, Note_on_c, 13, 60, 90
18, 104219, Note_on_c, 13, 60, 0
18, 104220, Note_on_c, 13, 64, 90
18, 104220, Note_on_c, 13, 62, 90
18, 104279, Note_on_c, 13, 62, 0
18, 104279, Note_on_c, 13, 64, 0
18, 104340, Note_on_c, 13, 60, 90
18, 104340, Note_on_c, 13, 64, 90
18, 104399, Note_on_c, 13, 64, 0
18, 104399, Note_on_c, 13, 60, 0
18, 104400, Note_on_c, 13, 68, 90
18, 104400, Note_on_c, 13, 64, 90
18, 104459, Note_on_c, 13, 64, 0
18, 104459, Note_on_c, 13, 68, 0
18, 104520, Note_on_c, 13, 71, 90
18, 104520, Note_on_c, 13, 69, 90
18, 104579, Note_on_c, 13, 69, 0
18, 104579, Note_on_c, 13, 71, 0
18, 104580, Note_on_c, 13, 71, 90
18, 104580, Note_on_c, 13, 68, 90
18, 104639, Note_on_c, 13, 68, 0
18, 104639, Note_on_c, 13, 71, 0
18, 104700, Note_on_c, 13, 68, 90
18, 104700, Note_on_c, 13, 64, 90
18, 104759, Note_on_c, 13, 64, 0
18, 104759, Note_on_c, 13, 68, 0
18, 104760, Note_on_c, 13, 64, 90
18, 104760, Note_on_c, 13, 69, 90
18, 104819, Note_on_c, 13, 69, 0
18, 104819, Note_on_c, 13, 64, 0
18, 104880, Note_on_c, 13, 69, 90
18, 104880, Note_on_c, 13, 64, 90
18, 104910, Note_on_c, 13, 69, 0
18, 104910, Note_on_c, 13, 67, 90
18, 104939, Note_on_c, 13, 64, 0
18, 104940, Note_on_c, 13, 67, 0
18, 104940, Note_on_c, 13, 65, 90
18, 104940, Note_on_c, 13, 74, 90
18, 104999, Note_on_c, 13, 74, 0
18, 104999, Note_on_c, 13, 65, 0
18, 105060, Note_on_c, 13, 74, 90
18, 105090, Note_on_c, 13, 74, 0
18, 105090, Note_on_c, 13, 72, 90
18, 105120, Note_on_c, 13, 72, 0
18, 105120, Note_on_c, 13, 71, 90
18, 105120, Note_on_c, 13, 67, 90
18, 105179, Note_on_c, 13, 67, 0
18, 105179, Note_on_c, 13, 71, 0
18, 105240, Note_on_c, 13, 65, 90
18, 105270, Note_on_c, 13, 65, 0
18, 105270, Note_on_c, 13, 67, 90
18, 105300, Note_on_c, 13, 67, 0
18, 105300, Note_on_c, 13, 67, 90
18, 105300, Note_on_c, 13, 64, 90
18, 105359, Note_on_c, 13, 64, 0
18, 105359, Note_on_c, 13, 67, 0
18, 105420, Note_on_c, 13, 67, 90
18, 105479, Note_on_c, 13, 67, 0
18, 105480, Note_on_c, 13, 64, 90
18, 105480, Note_on_c, 13, 67, 90
18, 105539, Note_on_c, 13, 67, 0
18, 105539, Note_on_c, 13, 64, 0
18, 105540, Note_on_c, 13, 67, 90
18, 105599, Note_on_c, 13, 67, 0
18, 105600, Note_on_c, 13, 64, 90
18, 105659, Note_on_c, 13, 64, 0
18, 105660, Note_on_c, 13, 67, 90
18, 105719, Note_on_c, 13, 67, 0
18, 105720, Note_on_c, 13, 71, 90
18, 105720, Note_on_c, 13, 67, 90
18, 105779, Note_on_c, 13, 67, 0
18, 105779, Note_on_c, 13, 71, 0
18, 105780, Note_on_c, 13, 66, 90
18, 105839, Note_on_c, 13, 66, 0
18, 105840, Note_on_c, 13, 62, 90
18, 105840, Note_on_c, 13, 67, 90
18, 105900, Note_on_c, 13, 71, 90
18, 105929, Note_on_c, 13, 71, 0
18, 105930, Note_on_c, 13, 69, 90
18, 105959, Note_on_c, 13, 69, 0
18, 105959, Note_on_c, 13, 67, 0
18, 105959, Note_on_c, 13, 62, 0
18, 105960, Note_on_c, 13, 71, 90
18, 105989, Note_on_c, 13, 71, 0
18, 105990, Note_on_c, 13, 67, 90
18, 106019, Note_on_c, 13, 67, 0
18, 106020, Note_on_c, 13, 62, 90
18, 106079, Note_on_c, 13, 62, 0
18, 106080, Note_on_c, 13, 65, 90
18, 106139, Note_on_c, 13, 65, 0
18, 106140, Note_on_c, 13, 61, 90
18, 106199, Note_on_c, 13, 61, 0
18, 106200, Note_on_c, 13, 65, 90
18, 106259, Note_on_c, 13, 65, 0
18, 106260, Note_on_c, 13, 69, 90
18, 106289, Note_on_c, 13, 69, 0
18, 106290, Note_on_c, 13, 67, 90
18, 106319, Note_on_c, 13, 67, 0
18, 106320, Note_on_c, 13, 69, 90
18, 106349, Note_on_c, 13, 69, 0
18, 106350, Note_on_c, 13, 65, 90
18, 106379, Note_on_c, 13, 65, 0
18, 106380, Note_on_c, 13, 69, 90
18, 106439, Note_on_c, 13, 69, 0
18, 106440, Note_on_c, 13, 69, 90
18, 106440, Note_on_c, 13, 72, 90
18, 106499, Note_on_c, 13, 72, 0
18, 106499, Note_on_c, 13, 69, 0
18, 106500, Note_on_c, 13, 68, 90
18, 106559, Note_on_c, 13, 68, 0
18, 106560, Note_on_c, 13, 64, 90
18, 106560, Note_on_c, 13, 69, 90
18, 106679, Note_on_c, 13, 69, 0
18, 106679, Note_on_c, 13, 64, 0
18, 106860, Note_on_c, 13, 71, 90
18, 106860, Note_on_c, 13, 68, 90
18, 106919, Note_on_c, 13, 68, 0
18, 106919, Note_on_c, 13, 71, 0
18, 106920, Note_on_c, 13, 64, 90
18, 106920, Note_on_c, 13, 69, 90
18, 106979, Note_on_c, 13, 69, 0
18, 106979, Note_on_c, 13, 64, 0
18, 107040, Note_on_c, 13, 69, 90
18, 107040, Note_on_c, 13, 72, 90
18, 107099, Note_on_c, 13, 72, 0
18, 107099, Note_on_c, 13, 69, 0
18, 107100, Note_on_c, 13, 69, 90
18, 107100, Note_on_c, 13, 72, 90
18, 107159, Note_on_c, 13, 72, 0
18, 107159, Note_on_c, 13, 69, 0
18, 107220, Note_on_c, 13, 71, 90
18, 107220, Note_on_c, 13, 65, 90
18, 107279, Note_on_c, 13, 65, 0
18, 107279, Note_on_c, 13, 71, 0
18, 107280, Note_on_c, 13, 72, 90
18, 107280, Note_on_c, 13, 64, 90
18, 107339, Note_on_c, 13, 64, 0
18, 107339, Note_on_c, 13, 72, 0
18, 107400, Note_on_c, 13, 69, 90
18, 107400, Note_on_c, 13, 72, 90
18, 107459, Note_on_c, 13, 72, 0
18, 107459, Note_on_c, 13, 69, 0
18, 107460, Note_on_c, 13, 69, 90
18, 107490, Note_on_c, 13, 69, 0
18, 107490, Note_on_c, 13, 71, 90
18, 107520, Note_on_c, 13, 71, 0
18, 107520, Note_on_c, 13, 69, 90
18, 107579, Note_on_c, 13, 69, 0
18, 107580, Note_on_c, 13, 68, 90
18, 107639, Note_on_c, 13, 68, 0
18, 107640, Note_on_c, 13, 69, 90
18, 107640, Note_on_c, 13, 65, 90
18, 107699, Note_on_c, 13, 65, 0
18, 107699, Note_on_c, 13, 69, 0
18, 107820, Note_on_c, 13, 74, 90
18, 107820, Note_on_c, 13, 68, 90
18, 107879, Note_on_c, 13, 68, 0
18, 107879, Note_on_c, 13, 74, 0
18, 107880, Note_on_c, 13, 68, 90
18, 107880, Note_on_c, 13, 76, 90
18, 107939, Note_on_c, 13, 76, 0
18, 107939, Note_on_c, 13, 68, 0
18, 107940, Note_on_c, 13, 69, 90
18, 107940, Note_on_c, 13, 72, 90
18, 107999, Note_on_c, 13, 72, 0
18, 107999, Note_on_c, 13, 69, 0
18, 108000, Note_on_c, 13, 71, 90
18, 108000, Note_on_c, 13, 68, 90
18, 108059, Note_on_c, 13, 68, 0
18, 108059, Note_on_c, 13, 71, 0
18, 108120, Note_on_c, 13, 64, 90
18, 108120, Note_on_c, 13, 74, 90
18, 108179, Note_on_c, 13, 74, 0
18, 108179, Note_on_c, 13, 64, 0
18, 108180, Note_on_c, 13, 64, 90
18, 108180, Note_on_c, 13, 73, 90
18, 108239, Note_on_c, 13, 73, 0
18, 108239, Note_on_c, 13, 64, 0
18, 108300, Note_on_c, 13, 67, 90
18, 108300, Note_on_c, 13, 69, 90
18, 108359, Note_on_c, 13, 69, 0
18, 108359, Note_on_c, 13, 67, 0
18, 108360, Note_on_c, 13, 65, 90
18, 108360, Note_on_c, 13, 69, 90
18, 108419, Note_on_c, 13, 69, 0
18, 108419, Note_on_c, 13, 65, 0
18, 108480, Note_on_c, 13, 60, 90
18, 108480, Note_on_c, 13, 69, 90
18, 108480, Note_on_c, 13, 65, 90
18, 108539, Note_on_c, 13, 65, 0
18, 108539, Note_on_c, 13, 69, 0
18, 108539, Note_on_c, 13, 60, 0
18, 108540, Note_on_c, 13, 62, 90
18, 108540, Note_on_c, 13, 67, 90
18, 108540, Note_on_c, 13, 65, 90
18, 108599, Note_on_c, 13, 65, 0
18, 108599, Note_on_c, 13, 67, 0
18, 108599, Note_on_c, 13, 62, 0
18, 108660, Note_on_c, 13, 62, 90
18, 108660, Note_on_c, 13, 67, 90
18, 108660, Note_on_c, 13, 65, 90
18, 108719, Note_on_c, 13, 65, 0
18, 108719, Note_on_c, 13, 67, 0
18, 108719, Note_on_c, 13, 62, 0
18, 108720, Note_on_c, 13, 60, 90
18, 108720, Note_on_c, 13, 64, 90
18, 108720, Note_on_c, 13, 67, 90
18, 108779, Note_on_c, 13, 67, 0
18, 108779, Note_on_c, 13, 64, 0
18, 108779, Note_on_c, 13, 60, 0
18, 108840, Note_on_c, 13, 67, 90
18, 108840, Note_on_c, 13, 64, 90
18, 108899, Note_on_c, 13, 64, 0
18, 108899, Note_on_c, 13, 67, 0
18, 108900, Note_on_c, 13, 65, 90
18, 108900, Note_on_c, 13, 62, 90
18, 108959, Note_on_c, 13, 62, 0
18, 108959, Note_on_c, 13, 65, 0
18, 109020, Note_on_c, 13, 68, 90
18, 109020, Note_on_c, 13, 64, 90
18, 109079, Note_on_c, 13, 64, 0
18, 109079, Note_on_c, 13, 68, 0
18, 109080, Note_on_c, 13, 64, 90
18, 109080, Note_on_c, 13, 69, 90
18, 109139, Note_on_c, 13, 69, 0
18, 109139, Note_on_c, 13, 64, 0
18, 109260, Note_on_c, 13, 72, 90
18, 109260, Note_on_c, 13, 69, 90
18, 109319, Note_on_c, 13, 69, 0
18, 109319, Note_on_c, 13, 72, 0
18, 109380, Note_on_c, 13, 71, 90
18, 109380, Note_on_c, 13, 68, 90
18, 109439, Note_on_c, 13, 68, 0
18, 109439, Note_on_c, 13, 71, 0
18, 109440, Note_on_c, 13, 72, 90
18, 109440, Note_on_c, 13, 69, 90
18, 109499, Note_on_c, 13, 69, 0
18, 109499, Note_on_c, 13, 72, 0
18, 109500, Note_on_c, 13, 69, 90
18, 109529, Note_on_c, 13, 69, 0
18, 109530, Note_on_c, 13, 67, 90
18, 109559, Note_on_c, 13, 67, 0
18, 109560, Note_on_c, 13, 65, 90
18, 109589, Note_on_c, 13, 65, 0
18, 109590, Note_on_c, 13, 64, 90
18, 109619, Note_on_c, 13, 64, 0
18, 109620, Note_on_c, 13, 69, 90
18, 109620, Note_on_c, 13, 62, 90
18, 109679, Note_on_c, 13, 62, 0
18, 109679, Note_on_c, 13, 69, 0
18, 109800, Note_on_c, 13, 62, 90
18, 109800, Note_on_c, 13, 70, 90
18, 109859, Note_on_c, 13, 70, 0
18, 109859, Note_on_c, 13, 62, 0
18, 109980, Note_on_c, 13, 73, 90
18, 109980, Note_on_c, 13, 67, 90
18, 110039, Note_on_c, 13, 67, 0
18, 110039, Note_on_c, 13, 73, 0
18, 110160, Note_on_c, 13, 69, 90
18, 110160, Note_on_c, 13, 65, 90
18, 110219, Note_on_c, 13, 65, 0
18, 110219, Note_on_c, 13, 69, 0
18, 110280, Note_on_c, 13, 65, 90
18, 110280, Note_on_c, 13, 69, 90
18, 110339, Note_on_c, 13, 69, 0
18, 110339, Note_on_c, 13, 65, 0
18, 110340, Note_on_c, 13, 68, 90
18, 110340, Note_on_c, 13, 64, 90
18, 110399, Note_on_c, 13, 64, 0
18, 110399, Note_on_c, 13, 68, 0
18, 110400, Note_on_c, 13, 62, 90
18, 110400, Note_on_c, 13, 64, 90
18, 110459, Note_on_c, 13, 64, 0
18, 110459, Note_on_c, 13, 62, 0
18, 110460, Note_on_c, 13, 62, 90
18, 110460, Note_on_c, 13, 68, 90
18, 110519, Note_on_c, 13, 68, 0
18, 110519, Note_on_c, 13, 62, 0
18, 110520, Note_on_c, 13, 71, 90
18, 110520, Note_on_c, 13, 74, 90
18, 110579, Note_on_c, 13, 74, 0
18, 110579, Note_on_c, 13, 71, 0
18, 110580, Note_on_c, 13, 73, 90
18, 110580, Note_on_c, 13, 69, 90
18, 110639, Note_on_c, 13, 69, 0
18, 110639, Note_on_c, 13, 73, 0
18, 110700, Note_on_c, 13, 69, 90
18, 110700, Note_on_c, 13, 66, 90
18, 110759, Note_on_c, 13, 66, 0
18, 110759, Note_on_c, 13, 69, 0
18, 110760, Note_on_c, 13, 62, 90
18, 110760, Note_on_c, 13, 72, 90
18, 110819, Note_on_c, 13, 72, 0
18, 110819, Note_on_c, 13, 62, 0
18, 110820, Note_on_c, 13, 66, 90
18, 110820, Note_on_c, 13, 72, 90
18, 110879, Note_on_c, 13, 72, 0
18, 110879, Note_on_c, 13, 66, 0
18, 110880, Note_on_c, 13, 69, 90
18, 110880, Note_on_c, 13, 72, 90
18, 110939, Note_on_c, 13, 72, 0
18, 110939, Note_on_c, 13, 69, 0
18, 110940, Note_on_c, 13, 67, 90
18, 110940, Note_on_c, 13, 71, 90
18, 110999, Note_on_c, 13, 71, 0
18, 110999, Note_on_c, 13, 67, 0
18, 111060, Note_on_c, 13, 64, 90
18, 111060, Note_on_c, 13, 67, 90
18, 111119, Note_on_c, 13, 67, 0
18, 111119, Note_on_c, 13, 64, 0
18, 111120, Note_on_c, 13, 70, 90
18, 111120, Note_on_c, 13, 72, 90
18, 111179, Note_on_c, 13, 72, 0
18, 111179, Note_on_c, 13, 70, 0
18, 111180, Note_on_c, 13, 67, 90
18, 111180, Note_on_c, 13, 70, 90
18, 111239, Note_on_c, 13, 70, 0
18, 111239, Note_on_c, 13, 67, 0
18, 111240, Note_on_c, 13, 70, 90
18, 111240, Note_on_c, 13, 67, 90
18, 111299, Note_on_c, 13, 67, 0
18, 111299, Note_on_c, 13, 70, 0
18, 111300, Note_on_c, 13, 65, 90
18, 111300, Note_on_c, 13, 69, 90
18, 111359, Note_on_c, 13, 69, 0
18, 111359, Note_on_c, 13, 65, 0
18, 111390, Note_on_c, 13, 65, 90
18, 111420, Note_on_c, 13, 65, 0
18, 111420, Note_on_c, 13, 73, 90
18, 111420, Note_on_c, 13, 64, 90
18, 111479, Note_on_c, 13, 64, 0
18, 111479, Note_on_c, 13, 73, 0
18, 111480, Note_on_c, 13, 67, 90
18, 111480, Note_on_c, 13, 69, 90
18, 111539, Note_on_c, 13, 69, 0
18, 111539, Note_on_c, 13, 67, 0
18, 111540, Note_on_c, 13, 67, 90
18, 111540, Note_on_c, 13, 73, 90
18, 111599, Note_on_c, 13, 73, 0
18, 111599, Note_on_c, 13, 67, 0
18, 111600, Note_on_c, 13, 74, 90
18, 111600, Note_on_c, 13, 65, 90
18, 111659, Note_on_c, 13, 65, 0
18, 111659, Note_on_c, 13, 74, 0
18, 111780, Note_on_c, 13, 69, 90
18, 111780, Note_on_c, 13, 64, 90
18, 111780, Note_on_c, 13, 73, 90
18, 111839, Note_on_c, 13, 73, 0
18, 111839, Note_on_c, 13, 64, 0
18, 111839, Note_on_c, 13, 69, 0
18, 111900, Note_on_c, 13, 64, 90
18, 111900, Note_on_c, 13, 73, 90
18, 111900, Note_on_c, 13, 67, 90
18, 111959, Note_on_c, 13, 67, 0
18, 111959, Note_on_c, 13, 73, 0
18, 111959, Note_on_c, 13, 64, 0
18, 111960, Note_on_c, 13, 65, 90
18, 111960, Note_on_c, 13, 69, 90
18, 111960, Note_on_c, 13, 74, 90
18, 112019, Note_on_c, 13, 74, 0
18, 112019, Note_on_c, 13, 69, 0
18, 112019, Note_on_c, 13, 65, 0
18, 112080, Note_on_c, 13, 65, 90
18, 112080, Note_on_c, 13, 69, 90
18, 112080, Note_on_c, 13, 72, 90
18, 112139, Note_on_c, 13, 72, 0
18, 112139, Note_on_c, 13, 69, 0
18, 112139, Note_on_c, 13, 65, 0
18, 112140, Note_on_c, 13, 62, 90
18, 112140, Note_on_c, 13, 67, 90
18, 112140, Note_on_c, 13, 71, 90
18, 112199, Note_on_c, 13, 71, 0
18, 112199, Note_on_c, 13, 67, 0
18, 112199, Note_on_c, 13, 62, 0
18, 112260, Note_on_c, 13, 71, 90
18, 112260, Note_on_c, 13, 67, 90
18, 112260, Note_on_c, 13, 65, 90
18, 112319, Note_on_c, 13, 65, 0
18, 112319, Note_on_c, 13, 67, 0
18, 112319, Note_on_c, 13, 71, 0
18, 112320, Note_on_c, 13, 64, 90
18, 112320, Note_on_c, 13, 67, 90
18, 112320, Note_on_c, 13, 72, 90
18, 112379, Note_on_c, 13, 72, 0
18, 112379, Note_on_c, 13, 67, 0
18, 112379, Note_on_c, 13, 64, 0
18, 112440, Note_on_c, 13, 64, 90
18, 112440, Note_on_c, 13, 67, 90
18, 112440, Note_on_c, 13, 70, 90
18, 112499, Note_on_c, 13, 70, 0
18, 112499, Note_on_c, 13, 67, 0
18, 112499, Note_on_c, 13, 64, 0
18, 112500, Note_on_c, 13, 62, 90
18, 112500, Note_on_c, 13, 65, 90
18, 112500, Note_on_c, 13, 69, 90
18, 112559, Note_on_c, 13, 69, 0
18, 112559, Note_on_c, 13, 65, 0
18, 112559, Note_on_c, 13, 62, 0
18, 112560, Note_on_c, 13, 72, 90
18, 112619, Note_on_c, 13, 72, 0
18, 112620, Note_on_c, 13, 71, 90
18, 112679, Note_on_c, 13, 71, 0
18, 112680, Note_on_c, 13, 69, 90
18, 112739, Note_on_c, 13, 69, 0
18, 112800, Note_on_c, 13, 71, 90
18, 112800, Note_on_c, 13, 68, 90
18, 112859, Note_on_c, 13, 68, 0
18, 112859, Note_on_c, 13, 71, 0
18, 112860, Note_on_c, 13, 72, 90
18, 112860, Note_on_c, 13, 69, 90
18, 112919, Note_on_c, 13, 69, 0
18, 112919, Note_on_c, 13, 72, 0
18, 112920, Note_on_c, 13, 69, 90
18, 112920, Note_on_c, 13, 74, 90
18, 112979, Note_on_c, 13, 74, 0
18, 112979, Note_on_c, 13, 69, 0
18, 112980, Note_on_c, 13, 71, 90
18, 112980, Note_on_c, 13, 68, 90
18, 113039, Note_on_c, 13, 68, 0
18, 113039, Note_on_c, 13, 71, 0
18, 113040, Note_on_c, 13, 64, 90
18, 113040, Note_on_c, 13, 69, 90
18, 113159, Note_on_c, 13, 69, 0
18, 113159, Note_on_c, 13, 64, 0
18, 113340, Note_on_c, 13, 68, 90
18, 113399, Note_on_c, 13, 68, 0
18, 113400, Note_on_c, 13, 69, 90
18, 113459, Note_on_c, 13, 69, 0
18, 113460, Note_on_c, 13, 68, 90
18, 113519, Note_on_c, 13, 68, 0
18, 113520, Note_on_c, 13, 69, 90
18, 113579, Note_on_c, 13, 69, 0
18, 113580, Note_on_c, 13, 65, 90
18, 113580, Note_on_c, 13, 62, 90
18, 113639, Note_on_c, 13, 62, 0
18, 113639, Note_on_c, 13, 65, 0
18, 113640, Note_on_c, 13, 65, 90
18, 113640, Note_on_c, 13, 67, 90
18, 113699, Note_on_c, 13, 67, 0
18, 113699, Note_on_c, 13, 65, 0
18, 113700, Note_on_c, 13, 62, 90
18, 113700, Note_on_c, 13, 65, 90
18, 113759, Note_on_c, 13, 65, 0
18, 113759, Note_on_c, 13, 62, 0
18, 113760, Note_on_c, 13, 60, 90
18, 113760, Note_on_c, 13, 64, 90
18, 113819, Note_on_c, 13, 64, 0
18, 113819, Note_on_c, 13, 60, 0
18, 113880, Note_on_c, 13, 60, 90
18, 113880, Note_on_c, 13, 64, 90
18, 113939, Note_on_c, 13, 64, 0
18, 113939, Note_on_c, 13, 60, 0
18, 113940, Note_on_c, 13, 62, 90
18, 113940, Note_on_c, 13, 65, 90
18, 113999, Note_on_c, 13, 65, 0
18, 113999, Note_on_c, 13, 62, 0
18, 114060, Note_on_c, 13, 64, 90
18, 114060, Note_on_c, 13, 68, 90
18, 114119, Note_on_c, 13, 68, 0
18, 114119, Note_on_c, 13, 64, 0
18, 114120, Note_on_c, 13, 69, 90
18, 114120, Note_on_c, 13, 64, 90
18, 114179, Note_on_c, 13, 64, 0
18, 114179, Note_on_c, 13, 69, 0
18, 114300, Note_on_c, 13, 64, 90
18, 114300, Note_on_c, 13, 62, 90
18, 114359, Note_on_c, 13, 62, 0
18, 114359, Note_on_c, 13, 64, 0
18, 114420, Note_on_c, 13, 60, 90
18, 114420, Note_on_c, 13, 64, 90
18, 114479, Note_on_c, 13, 64, 0
18, 114479, Note_on_c, 13, 60, 0
18, 114480, Note_on_c, 13, 68, 90
18, 114480, Note_on_c, 13, 64, 90
18, 114539, Note_on_c, 13, 64, 0
18, 114539, Note_on_c, 13, 68, 0
18, 114600, Note_on_c, 13, 62, 90
18, 114600, Note_on_c, 13, 76, 90
18, 114659, Note_on_c, 13, 76, 0
18, 114659, Note_on_c, 13, 62, 0
18, 114660, Note_on_c, 13, 64, 90
18, 114660, Note_on_c, 13, 73, 90
18, 114719, Note_on_c, 13, 73, 0
18, 114719, Note_on_c, 13, 64, 0
18, 114780, Note_on_c, 13, 67, 90
18, 114780, Note_on_c, 13, 69, 90
18, 114839, Note_on_c, 13, 69, 0
18, 114839, Note_on_c, 13, 67, 0
18, 114840, Note_on_c, 13, 65, 90
18, 114840, Note_on_c, 13, 69, 90
18, 114899, Note_on_c, 13, 69, 0
18, 114899, Note_on_c, 13, 65, 0
18, 114960, Note_on_c, 13, 69, 90
18, 114960, Note_on_c, 13, 74, 90
18, 114990, Note_on_c, 13, 74, 0
18, 114990, Note_on_c, 13, 72, 90
18, 115019, Note_on_c, 13, 69, 0
18, 115020, Note_on_c, 13, 72, 0
18, 115020, Note_on_c, 13, 67, 90
18, 115020, Note_on_c, 13, 74, 90
18, 115079, Note_on_c, 13, 74, 0
18, 115079, Note_on_c, 13, 67, 0
18, 115140, Note_on_c, 13, 67, 90
18, 115170, Note_on_c, 13, 67, 0
18, 115170, Note_on_c, 13, 65, 90
18, 115200, Note_on_c, 13, 65, 0
18, 115200, Note_on_c, 13, 64, 90
18, 115259, Note_on_c, 13, 64, 0
18, 115320, Note_on_c, 13, 64, 90
18, 115320, Note_on_c, 13, 72, 90
18, 115379, Note_on_c, 13, 72, 0
18, 115379, Note_on_c, 13, 64, 0
18, 115380, Note_on_c, 13, 65, 90
18, 115380, Note_on_c, 13, 72, 90
18, 115439, Note_on_c, 13, 72, 0
18, 115439, Note_on_c, 13, 65, 0
18, 115530, Note_on_c, 13, 74, 90
18, 115559, Note_on_c, 13, 74, 0
18, 115560, Note_on_c, 13, 69, 90
18, 115560, Note_on_c, 13, 72, 90
18, 115589, Note_on_c, 13, 72, 0
18, 115590, Note_on_c, 13, 71, 90
18, 115619, Note_on_c, 13, 71, 0
18, 115619, Note_on_c, 13, 69, 0
18, 115620, Note_on_c, 13, 69, 90
18, 115620, Note_on_c, 13, 72, 90
18, 115649, Note_on_c, 13, 72, 0
18, 115650, Note_on_c, 13, 71, 90
18, 115679, Note_on_c, 13, 71, 0
18, 115679, Note_on_c, 13, 69, 0
18, 115680, Note_on_c, 13, 68, 90
18, 115680, Note_on_c, 13, 72, 90
18, 115709, Note_on_c, 13, 72, 0
18, 115710, Note_on_c, 13, 76, 90
18, 115739, Note_on_c, 13, 76, 0
18, 115739, Note_on_c, 13, 68, 0
18, 115740, Note_on_c, 13, 76, 90
18, 115799, Note_on_c, 13, 76, 0
18, 115800, Note_on_c, 13, 69, 90
18, 115859, Note_on_c, 13, 69, 0
18, 115860, Note_on_c, 13, 68, 90
18, 115919, Note_on_c, 13, 68, 0
18, 115920, Note_on_c, 13, 60, 90
18, 115920, Note_on_c, 13, 64, 90
18, 115920, Note_on_c, 13, 69, 90
18, 116100, Note_on_c, 13, 69, 0
18, 116100, Note_on_c, 13, 64, 0
18, 116100, Note_on_c, 13, 60, 0
18, 124260, Program_c, 13, 19
18, 124260, Note_on_c, 13, 66, 90
18, 124260, Note_on_c, 13, 71, 90
18, 124620, Note_on_c, 13, 71, 0
18, 124620, Note_on_c, 13, 69, 90
18, 124739, Note_on_c, 13, 66, 0
18, 124740, Note_on_c, 13, 69, 0
18, 124740, Note_on_c, 13, 67, 90
18, 124740, Note_on_c, 13, 71, 90
18, 124980, Note_on_c, 13, 71, 0
18, 124980, Note_on_c, 13, 73, 90
18, 125219, Note_on_c, 13, 67, 0
18, 125220, Note_on_c, 13, 73, 0
18, 125220, Note_on_c, 13, 64, 90
18, 125220, Note_on_c, 13, 69, 90
18, 125460, Note_on_c, 13, 69, 0
18, 125460, Note_on_c, 13, 67, 90
18, 125699, Note_on_c, 13, 64, 0
18, 125700, Note_on_c, 13, 67, 0
18, 125700, Note_on_c, 13, 69, 90
18, 125700, Note_on_c, 13, 65, 90
18, 125939, Note_on_c, 13, 69, 0
18, 125940, Note_on_c, 13, 71, 90
18, 126179, Note_on_c, 13, 71, 0
18, 126180, Note_on_c, 13, 65, 0
18, 126180, Note_on_c, 13, 64, 90
18, 126180, Note_on_c, 13, 67, 90
18, 126180, Note_on_c, 13, 72, 90
18, 126299, Note_on_c, 13, 72, 0
18, 126299, Note_on_c, 13, 67, 0
18, 126299, Note_on_c, 13, 64, 0
18, 126300, Note_on_c, 13, 66, 90
18, 126360, Note_on_c, 13, 66, 0
18, 126360, Note_on_c, 13, 67, 90
18, 126420, Note_on_c, 13, 67, 0
18, 126420, Note_on_c, 13, 71, 90
18, 126420, Note_on_c, 13, 67, 90
18, 126539, Note_on_c, 13, 67, 0
18, 126539, Note_on_c, 13, 71, 0
18, 126540, Note_on_c, 13, 62, 90
18, 126540, Note_on_c, 13, 66, 90
18, 126540, Note_on_c, 13, 69, 90
18, 126600, Note_on_c, 13, 62, 0
18, 126600, Note_on_c, 13, 60, 90
18, 126660, Note_on_c, 13, 60, 0
18, 126660, Note_on_c, 13, 69, 0
18, 126660, Note_on_c, 13, 66, 0
18, 126660, Note_on_c, 13, 59, 90
18, 126660, Note_on_c, 13, 62, 90
18, 126660, Note_on_c, 13, 67, 90
18, 126779, Note_on_c, 13, 67, 0
18, 126779, Note_on_c, 13, 62, 0
18, 126779, Note_on_c, 13, 59, 0
18, 127380, Note_on_c, 13, 62, 100
18, 127380, Note_on_c, 13, 67, 100
18, 127620, Note_on_c, 13, 67, 0
18, 127620, Note_on_c, 13, 62, 0
18, 127620, Note_on_c, 13, 62, 100
18, 127620, Note_on_c, 13, 67, 100
18, 127740, Note_on_c, 13, 67, 0
18, 127740, Note_on_c, 13, 62, 0
18, 127740, Note_on_c, 13, 71, 100
18, 127740, Note_on_c, 13, 67, 100
18, 127860, Note_on_c, 13, 67, 0
18, 127860, Note_on_c, 13, 71, 0
18, 127860, Note_on_c, 13, 62, 100
18, 127860, Note_on_c, 13, 69, 100
18, 128100, Note_on_c, 13, 69, 0
18, 128100, Note_on_c, 13, 62, 0
18, 128100, Note_on_c, 13, 71, 90
18, 128100, Note_on_c, 13, 67, 90
18, 128129, Note_on_c, 13, 67, 0
18, 128129, Note_on_c, 13, 71, 0
18, 128220, Note_on_c, 13, 62, 90
18, 128220, Note_on_c, 13, 65, 90
18, 128249, Note_on_c, 13, 65, 0
18, 128249, Note_on_c, 13, 62, 0
18, 128340, Note_on_c, 13, 72, 90
18, 128340, Note_on_c, 13, 68, 90
18, 128369, Note_on_c, 13, 68, 0
18, 128369, Note_on_c, 13, 72, 0
18, 128460, Note_on_c, 13, 74, 90
18, 128460, Note_on_c, 13, 71, 90
18, 128580, Note_on_c, 13, 71, 0
18, 128580, Note_on_c, 13, 74, 0
18, 128580, Note_on_c, 13, 68, 90
18, 128580, Note_on_c, 13, 71, 90
18, 128639, Note_on_c, 13, 71, 0
18, 128639, Note_on_c, 13, 68, 0
18, 128640, Note_on_c, 13, 69, 90
18, 128640, Note_on_c, 13, 72, 90
18, 128699, Note_on_c, 13, 72, 0
18, 128699, Note_on_c, 13, 69, 0
18, 128700, Note_on_c, 13, 69, 90
18, 128700, Note_on_c, 13, 72, 90
18, 128820, Note_on_c, 13, 72, 0
18, 128820, Note_on_c, 13, 69, 0
18, 128820, Note_on_c, 13, 66, 90
18, 128820, Note_on_c, 13, 69, 90
18, 128820, Note_on_c, 13, 72, 90
18, 128849, Note_on_c, 13, 72, 0
18, 128849, Note_on_c, 13, 69, 0
18, 128849, Note_on_c, 13, 66, 0
18, 128940, Note_on_c, 13, 72, 90
18, 128940, Note_on_c, 13, 64, 90
18, 128969, Note_on_c, 13, 64, 0
18, 128969, Note_on_c, 13, 72, 0
18, 129060, Note_on_c, 13, 66, 90
18, 129060, Note_on_c, 13, 71, 90
18, 129089, Note_on_c, 13, 71, 0
18, 129089, Note_on_c, 13, 66, 0
18, 129180, Note_on_c, 13, 72, 90
18, 129180, Note_on_c, 13, 69, 90
18, 129300, Note_on_c, 13, 69, 0
18, 129300, Note_on_c, 13, 72, 0
18, 129300, Note_on_c, 13, 69, 90
18, 129300, Note_on_c, 13, 66, 90
18, 129359, Note_on_c, 13, 66, 0
18, 129359, Note_on_c, 13, 69, 0
18, 129360, Note_on_c, 13, 67, 90
18, 129360, Note_on_c, 13, 71, 90
18, 129419, Note_on_c, 13, 71, 0
18, 129419, Note_on_c, 13, 67, 0
18, 129420, Note_on_c, 13, 71, 90
18, 129420, Note_on_c, 13, 67, 90
18, 129540, Note_on_c, 13, 67, 0
18, 129540, Note_on_c, 13, 71, 0
18, 129540, Note_on_c, 13, 64, 90
18, 129540, Note_on_c, 13, 69, 90
18, 129540, Note_on_c, 13, 67, 90
18, 129569, Note_on_c, 13, 67, 0
18, 129569, Note_on_c, 13, 69, 0
18, 129569, Note_on_c, 13, 64, 0
18, 129660, Note_on_c, 13, 64, 90
18, 129660, Note_on_c, 13, 67, 90
18, 129689, Note_on_c, 13, 67, 0
18, 129689, Note_on_c, 13, 64, 0
18, 129900, Note_on_c, 13, 67, 90
18, 129900, Note_on_c, 13, 69, 90
18, 129929, Note_on_c, 13, 69, 0
18, 129929, Note_on_c, 13, 67, 0
18, 130020, Note_on_c, 13, 67, 90
18, 130020, Note_on_c, 13, 69, 90
18, 130020, Note_on_c, 13, 72, 90
18, 130049, Note_on_c, 13, 72, 0
18, 130049, Note_on_c, 13, 69, 0
18, 130049, Note_on_c, 13, 67, 0
18, 130260, Note_on_c, 13, 71, 90
18, 130260, Note_on_c, 13, 67, 90
18, 130289, Note_on_c, 13, 67, 0
18, 130289, Note_on_c, 13, 71, 0
18, 130380, Note_on_c, 13, 67, 90
18, 130380, Note_on_c, 13, 71, 90
18, 130409, Note_on_c, 13, 71, 0
18, 130409, Note_on_c, 13, 67, 0
18, 130500, Note_on_c, 13, 71, 90
18, 130500, Note_on_c, 13, 67, 90
18, 130529, Note_on_c, 13, 67, 0
18, 130529, Note_on_c, 13, 71, 0
18, 130620, Note_on_c, 13, 71, 90
18, 130620, Note_on_c, 13, 67, 90
18, 130980, Note_on_c, 13, 67, 0
18, 130980, Note_on_c, 13, 71, 0
18, 130980, Note_on_c, 13, 64, 90
18, 130980, Note_on_c, 13, 67, 90
18, 131340, Note_on_c, 13, 67, 0
18, 131340, Note_on_c, 13, 64, 0
18, 131340, Note_on_c, 13, 67, 90
18, 131340, Note_on_c, 13, 64, 90
18, 131460, Note_on_c, 13, 67, 0
18, 131460, Note_on_c, 13, 69, 90
18, 131580, Note_on_c, 13, 69, 0
18, 131580, Note_on_c, 13, 67, 90
18, 131700, Note_on_c, 13, 67, 0
18, 131700, Note_on_c, 13, 64, 0
18, 131700, Note_on_c, 13, 64, 90
18, 131700, Note_on_c, 13, 69, 90
18, 131820, Note_on_c, 13, 69, 0
18, 131820, Note_on_c, 13, 64, 0
18, 131820, Note_on_c, 13, 65, 90
18, 131820, Note_on_c, 13, 62, 90
18, 131820, Note_on_c, 13, 71, 90
18, 131940, Note_on_c, 13, 71, 0
18, 131940, Note_on_c, 13, 62, 0
18, 131940, Note_on_c, 13, 65, 0
18, 131940, Note_on_c, 13, 74, 90
18, 131940, Note_on_c, 13, 64, 90
18, 132060, Note_on_c, 13, 64, 0
18, 132060, Note_on_c, 13, 74, 0
18, 132060, Note_on_c, 13, 72, 90
18, 132060, Note_on_c, 13, 69, 90
18, 132120, Note_on_c, 13, 69, 0
18, 132120, Note_on_c, 13, 72, 0
18, 132120, Note_on_c, 13, 66, 90
18, 132120, Note_on_c, 13, 74, 90
18, 132180, Note_on_c, 13, 74, 0
18, 132180, Note_on_c, 13, 66, 0
18, 132180, Note_on_c, 13, 66, 90
18, 132180, Note_on_c, 13, 75, 90
18, 132240, Note_on_c, 13, 75, 0
18, 132240, Note_on_c, 13, 66, 0
18, 132240, Note_on_c, 13, 67, 90
18, 132240, Note_on_c, 13, 71, 90
18, 132300, Note_on_c, 13, 71, 0
18, 132300, Note_on_c, 13, 67, 0
18, 132300, Note_on_c, 13, 72, 90
18, 132300, Note_on_c, 13, 64, 90
18, 132360, Note_on_c, 13, 64, 0
18, 132360, Note_on_c, 13, 72, 0
18, 132360, Note_on_c, 13, 67, 90
18, 132360, Note_on_c, 13, 71, 90
18, 132420, Note_on_c, 13, 71, 0
18, 132420, Note_on_c, 13, 67, 0
18, 132420, Program_c, 13, 19
18, 132420, Note_on_c, 13, 69, 100
18, 132420, Note_on_c, 13, 72, 100
18, 133380, Note_on_c, 13, 72, 0
18, 133380, Note_on_c, 13, 69, 0
18, 133380, Note_on_c, 13, 71, 90
18, 133380, Note_on_c, 13, 67, 90
18, 133380, Note_on_c, 13, 64, 90
18, 133499, Note_on_c, 13, 64, 0
18, 133499, Note_on_c, 13, 67, 0
18, 133499, Note_on_c, 13, 71, 0
18, 133740, Program_c, 13, 6
18, 133740, Note_on_c, 13, 66, 90
18, 133740, Note_on_c, 13, 64, 90
18, 133860, Note_on_c, 13, 64, 0
18, 133860, Note_on_c, 13, 63, 90
18, 133980, Note_on_c, 13, 63, 0
18, 133980, Note_on_c, 13, 66, 0
18, 134100, Note_on_c, 13, 64, 100
18, 134100, Note_on_c, 13, 67, 100
18, 134460, Note_on_c, 13, 67, 0
18, 134460, Note_on_c, 13, 64, 0
18, 134460, Note_on_c, 13, 60, 100
18, 134460, Note_on_c, 13, 64, 100
18, 134580, Note_on_c, 13, 64, 0
18, 134580, Note_on_c, 13, 60, 0
18, 134580, Note_on_c, 13, 62, 100
18, 134580, Note_on_c, 13, 66, 100
18, 134820, Note_on_c, 13, 66, 0
18, 134820, Note_on_c, 13, 62, 0
18, 134820, Note_on_c, 13, 62, 100
18, 134820, Note_on_c, 13, 69, 100
18, 134940, Note_on_c, 13, 69, 0
18, 134940, Note_on_c, 13, 67, 100
18, 135060, Note_on_c, 13, 62, 0
18, 135060, Note_on_c, 13, 64, 100
18, 135180, Note_on_c, 13, 64, 0
18, 135180, Note_on_c, 13, 67, 0
18, 135180, Note_on_c, 13, 67, 100
18, 135180, Note_on_c, 13, 64, 100
18, 135300, Note_on_c, 13, 64, 0
18, 135300, Note_on_c, 13, 67, 0
18, 135300, Note_on_c, 13, 69, 100
18, 135300, Note_on_c, 13, 64, 100
18, 135420, Note_on_c, 13, 64, 0
18, 135420, Note_on_c, 13, 69, 0
18, 135420, Note_on_c, 13, 66, 100
18, 135420, Note_on_c, 13, 62, 100
18, 135540, Note_on_c, 13, 62, 0
18, 135540, Note_on_c, 13, 66, 0
18, 135540, Note_on_c, 13, 62, 100
18, 135540, Note_on_c, 13, 67, 100
18, 135660, Note_on_c, 13, 67, 0
18, 135660, Note_on_c, 13, 62, 0
18, 135660, Note_on_c, 13, 60, 100
18, 135660, Note_on_c, 13, 69, 100
18, 135660, Note_on_c, 13, 66, 100
18, 135780, Note_on_c, 13, 66, 0
18, 135780, Note_on_c, 13, 69, 0
18, 135780, Note_on_c, 13, 60, 0
18, 135780, Note_on_c, 13, 59, 100
18, 135780, Note_on_c, 13, 69, 100
18, 135900, Note_on_c, 13, 69, 0
18, 135900, Note_on_c, 13, 59, 0
18, 135900, Note_on_c, 13, 67, 90
18, 135900, Note_on_c, 13, 64, 90
18, 135929, Note_on_c, 13, 64, 0
18, 135929, Note_on_c, 13, 67, 0
18, 136020, Note_on_c, 13, 71, 90
18, 136020, Note_on_c, 13, 67, 90
18, 136049, Note_on_c, 13, 67, 0
18, 136049, Note_on_c, 13, 71, 0
18, 136260, Note_on_c, 13, 67, 90
18, 136260, Note_on_c, 13, 65, 90
18, 136289, Note_on_c, 13, 65, 0
18, 136289, Note_on_c, 13, 67, 0
18, 136380, Note_on_c, 13, 62, 90
18, 136380, Note_on_c, 13, 65, 90
18, 136409, Note_on_c, 13, 65, 0
18, 136409, Note_on_c, 13, 62, 0
18, 136620, Note_on_c, 13, 67, 90
18, 136620, Note_on_c, 13, 63, 90
18, 136740, Note_on_c, 13, 63, 0
18, 136740, Note_on_c, 13, 67, 0
18, 136740, Note_on_c, 13, 63, 90
18, 136740, Note_on_c, 13, 72, 90
18, 136860, Note_on_c, 13, 72, 0
18, 136860, Note_on_c, 13, 63, 0
18, 136860, Note_on_c, 13, 63, 90
18, 136860, Note_on_c, 13, 67, 90
18, 136980, Note_on_c, 13, 67, 0
18, 136980, Note_on_c, 13, 63, 0
18, 136980, Program_c, 13, 19
18, 136980, Note_on_c, 13, 62, 90
18, 136980, Note_on_c, 13, 71, 90
18, 136980, Note_on_c, 13, 67, 90
18, 137459, Note_on_c, 13, 67, 0
18, 137459, Note_on_c, 13, 71, 0
18, 137459, Note_on_c, 13, 62, 0
18, 137460, Note_on_c, 13, 67, 90
18, 137460, Note_on_c, 13, 71, 90
18, 137460, Note_on_c, 13, 61, 90
18, 137939, Note_on_c, 13, 61, 0
18, 137939, Note_on_c, 13, 71, 0
18, 137939, Note_on_c, 13, 67, 0
18, 137940, Note_on_c, 13, 69, 90
18, 137940, Note_on_c, 13, 65, 90
18, 138059, Note_on_c, 13, 65, 0
18, 138059, Note_on_c, 13, 69, 0
18, 138300, Program_c, 13, 6
18, 138300, Note_on_c, 13, 62, 90
18, 138300, Note_on_c, 13, 64, 90
18, 138419, Note_on_c, 13, 64, 0
18, 138419, Note_on_c, 13, 62, 0
18, 138420, Note_on_c, 13, 61, 90
18, 138539, Note_on_c, 13, 61, 0
18, 138660, Note_on_c, 13, 69, 90
18, 138660, Note_on_c, 13, 65, 90
18, 139020, Note_on_c, 13, 65, 0
18, 139020, Note_on_c, 13, 69, 0
18, 139020, Note_on_c, 13, 62, 90
18, 139020, Note_on_c, 13, 67, 90
18, 139020, Note_on_c, 13, 65, 90
18, 139049, Note_on_c, 13, 65, 0
18, 139049, Note_on_c, 13, 67, 0
18, 139049, Note_on_c, 13, 62, 0
18, 139140, Note_on_c, 13, 65, 90
18, 139140, Note_on_c, 13, 69, 90
18, 139169, Note_on_c, 13, 69, 0
18, 139169, Note_on_c, 13, 65, 0
18, 139260, Note_on_c, 13, 62, 90
18, 139260, Note_on_c, 13, 65, 90
18, 139289, Note_on_c, 13, 65, 0
18, 139289, Note_on_c, 13, 62, 0
18, 139380, Note_on_c, 13, 64, 90
18, 139380, Note_on_c, 13, 67, 90
18, 139740, Note_on_c, 13, 67, 0
18, 139740, Note_on_c, 13, 64, 0
18, 139740, Note_on_c, 13, 64, 90
18, 139740, Note_on_c, 13, 67, 90
18, 139860, Note_on_c, 13, 67, 0
18, 139860, Note_on_c, 13, 64, 0
18, 139860, Note_on_c, 13, 60, 90
18, 139860, Note_on_c, 13, 66, 90
18, 140100, Note_on_c, 13, 66, 0
18, 140100, Note_on_c, 13, 60, 0
18, 140100, Note_on_c, 13, 69, 90
18, 140100, Note_on_c, 13, 62, 90
18, 140220, Note_on_c, 13, 62, 0
18, 140220, Note_on_c, 13, 69, 0
18, 140220, Note_on_c, 13, 64, 90
18, 140220, Note_on_c, 13, 69, 90
18, 140220, Note_on_c, 13, 67, 90
18, 140460, Note_on_c, 13, 67, 0
18, 140460, Note_on_c, 13, 69, 0
18, 140460, Note_on_c, 13, 64, 0
18, 140460, Note_on_c, 13, 62, 90
18, 140460, Note_on_c, 13, 67, 90
18, 140580, Note_on_c, 13, 67, 0
18, 140580, Note_on_c, 13, 66, 90
18, 140700, Note_on_c, 13, 66, 0
18, 140700, Note_on_c, 13, 62, 0
18, 140700, Note_on_c, 13, 64, 90
18, 140700, Note_on_c, 13, 61, 90
18, 140820, Note_on_c, 13, 61, 0
18, 140820, Note_on_c, 13, 64, 0
18, 140820, Note_on_c, 13, 62, 90
18, 140820, Note_on_c, 13, 66, 90
18, 140940, Note_on_c, 13, 59, 90
18, 141180, Note_on_c, 13, 59, 0
18, 141180, Note_on_c, 13, 66, 0
18, 141180, Note_on_c, 13, 62, 0
18, 141180, Note_on_c, 13, 62, 90
18, 141300, Note_on_c, 13, 66, 90
18, 141420, Note_on_c, 13, 60, 90
18, 141540, Note_on_c, 13, 60, 0
18, 141540, Note_on_c, 13, 66, 0
18, 141540, Note_on_c, 13, 62, 0
18, 141540, Note_on_c, 13, 69, 90
18, 141540, Note_on_c, 13, 60, 90
18, 141660, Note_on_c, 13, 60, 0
18, 141660, Note_on_c, 13, 69, 0
18, 141660, Note_on_c, 13, 59, 90
18, 141660, Note_on_c, 13, 67, 90
18, 141780, Note_on_c, 13, 67, 0
18, 141780, Note_on_c, 13, 59, 0
18, 141780, Note_on_c, 13, 67, 90
18, 141780, Note_on_c, 13, 71, 90
18, 141900, Note_on_c, 13, 71, 0
18, 141900, Note_on_c, 13, 67, 0
18, 141900, Program_c, 13, 19
18, 141900, Note_on_c, 13, 69, 90
18, 141900, Note_on_c, 13, 66, 90
18, 141900, Note_on_c, 13, 62, 90
18, 142019, Note_on_c, 13, 62, 0
18, 142019, Note_on_c, 13, 66, 0
18, 142019, Note_on_c, 13, 69, 0
18, 142380, Note_on_c, 13, 66, 90
18, 142380, Note_on_c, 13, 68, 90
18, 142499, Note_on_c, 13, 68, 0
18, 142499, Note_on_c, 13, 66, 0
18, 142620, Note_on_c, 13, 62, 90
18, 142620, Note_on_c, 13, 64, 90
18, 142620, Note_on_c, 13, 68, 90
18, 142739, Note_on_c, 13, 68, 0
18, 142739, Note_on_c, 13, 64, 0
18, 142739, Note_on_c, 13, 62, 0
18, 142860, Note_on_c, 13, 60, 90
18, 142860, Note_on_c, 13, 69, 90
18, 142860, Note_on_c, 13, 64, 90
18, 142979, Note_on_c, 13, 64, 0
18, 142979, Note_on_c, 13, 69, 0
18, 142979, Note_on_c, 13, 60, 0
18, 143220, Program_c, 13, 6
18, 143220, Note_on_c, 13, 64, 90
18, 143220, Note_on_c, 13, 60, 90
18, 143220, Note_on_c, 13, 69, 90
18, 143339, Note_on_c, 13, 69, 0
18, 143339, Note_on_c, 13, 60, 0
18, 143339, Note_on_c, 13, 64, 0
18, 143580, Note_on_c, 13, 66, 90
18, 143580, Note_on_c, 13, 69, 90
18, 143580, Note_on_c, 13, 62, 90
18, 143609, Note_on_c, 13, 62, 0
18, 143609, Note_on_c, 13, 69, 0
18, 143609, Note_on_c, 13, 66, 0
18, 143700, Note_on_c, 13, 62, 90
18, 143700, Note_on_c, 13, 66, 90
18, 143700, Note_on_c, 13, 69, 90
18, 143729, Note_on_c, 13, 69, 0
18, 143729, Note_on_c, 13, 66, 0
18, 143729, Note_on_c, 13, 62, 0
18, 143820, Note_on_c, 13, 69, 90
18, 143820, Note_on_c, 13, 66, 90
18, 143820, Note_on_c, 13, 60, 90
18, 143849, Note_on_c, 13, 60, 0
18, 143849, Note_on_c, 13, 66, 0
18, 143849, Note_on_c, 13, 69, 0
18, 143940, Note_on_c, 13, 62, 90
18, 143940, Note_on_c, 13, 69, 90
18, 144060, Note_on_c, 13, 69, 0
18, 144060, Note_on_c, 13, 67, 90
18, 144180, Note_on_c, 13, 62, 0
18, 144180, Note_on_c, 13, 71, 90
18, 144300, Note_on_c, 13, 71, 0
18, 144300, Note_on_c, 13, 67, 0
18, 144300, Note_on_c, 13, 67, 90
18, 144300, Note_on_c, 13, 69, 90
18, 144660, Note_on_c, 13, 69, 0
18, 144660, Note_on_c, 13, 67, 0
18, 144660, Note_on_c, 13, 66, 90
18, 144660, Note_on_c, 13, 69, 90
18, 144689, Note_on_c, 13, 69, 0
18, 144689, Note_on_c, 13, 66, 0
18, 144780, Note_on_c, 13, 62, 90
18, 144780, Note_on_c, 13, 66, 90
18, 144809, Note_on_c, 13, 66, 0
18, 144809, Note_on_c, 13, 62, 0
18, 145380, Note_on_c, 13, 67, 90
18, 145380, Note_on_c, 13, 71, 90
18, 145740, Note_on_c, 13, 71, 0
18, 145740, Note_on_c, 13, 67, 0
18, 145740, Note_on_c, 13, 66, 90
18, 145740, Note_on_c, 13, 69, 90
18, 146100, Note_on_c, 13, 69, 0
18, 146100, Note_on_c, 13, 66, 0
18, 146100, Program_c, 13, 18
18, 146100, Note_on_c, 13, 69, 90
18, 146100, Note_on_c, 13, 63, 90
18, 146219, Note_on_c, 13, 63, 0
18, 146219, Note_on_c, 13, 69, 0
18, 146340, Note_on_c, 13, 64, 90
18, 146340, Note_on_c, 13, 67, 90
18, 146340, Note_on_c, 13, 71, 90
18, 146459, Note_on_c, 13, 71, 0
18, 146459, Note_on_c, 13, 67, 0
18, 146459, Note_on_c, 13, 64, 0
18, 146460, Note_on_c, 13, 67, 90
18, 146460, Note_on_c, 13, 71, 90
18, 146579, Note_on_c, 13, 71, 0
18, 146579, Note_on_c, 13, 67, 0
18, 146940, Note_on_c, 13, 67, 90
18, 146940, Note_on_c, 13, 71, 90
18, 147000, Note_on_c, 13, 71, 0
18, 147000, Note_on_c, 13, 67, 0
18, 147000, Note_on_c, 13, 66, 90
18, 147000, Note_on_c, 13, 69, 90
18, 147060, Note_on_c, 13, 69, 0
18, 147060, Note_on_c, 13, 66, 0
18, 147060, Program_c, 13, 6
18, 147060, Note_on_c, 13, 62, 90
18, 147060, Note_on_c, 13, 67, 90
18, 147180, Note_on_c, 13, 65, 90
18, 147420, Note_on_c, 13, 65, 0
18, 147420, Note_on_c, 13, 67, 0
18, 147420, Note_on_c, 13, 62, 0
18, 147420, Note_on_c, 13, 64, 90
18, 147420, Note_on_c, 13, 67, 90
18, 147780, Note_on_c, 13, 67, 0
18, 147780, Note_on_c, 13, 64, 0
18, 147780, Note_on_c, 13, 62, 90
18, 147780, Note_on_c, 13, 71, 90
18, 147780, Note_on_c, 13, 67, 90
18, 148140, Note_on_c, 13, 67, 0
18, 148140, Note_on_c, 13, 71, 0
18, 148140, Note_on_c, 13, 62, 0
18, 148140, Note_on_c, 13, 71, 90
18, 148140, Note_on_c, 13, 67, 90
18, 148260, Note_on_c, 13, 67, 0
18, 148260, Note_on_c, 13, 71, 0
18, 148260, Note_on_c, 13, 62, 90
18, 148260, Note_on_c, 13, 69, 90
18, 148380, Note_on_c, 13, 69, 0
18, 148380, Note_on_c, 13, 62, 0
18, 148380, Note_on_c, 13, 62, 90
18, 148380, Note_on_c, 13, 60, 90
18, 148380, Note_on_c, 13, 69, 90
18, 148500, Note_on_c, 13, 69, 0
18, 148500, Note_on_c, 13, 60, 0
18, 148500, Note_on_c, 13, 62, 0
18, 148500, Note_on_c, 13, 59, 90
18, 148500, Note_on_c, 13, 62, 90
18, 148500, Note_on_c, 13, 67, 90
18, 148529, Note_on_c, 13, 67, 0
18, 148529, Note_on_c, 13, 62, 0
18, 148529, Note_on_c, 13, 59, 0
18, 148620, Note_on_c, 13, 65, 90
18, 148620, Note_on_c, 13, 71, 90
18, 148649, Note_on_c, 13, 71, 0
18, 148649, Note_on_c, 13, 65, 0
18, 148740, Note_on_c, 13, 68, 90
18, 148740, Note_on_c, 13, 62, 90
18, 148769, Note_on_c, 13, 62, 0
18, 148769, Note_on_c, 13, 68, 0
18, 148860, Note_on_c, 13, 62, 90
18, 148860, Note_on_c, 13, 71, 90
18, 148980, Note_on_c, 13, 71, 0
18, 148980, Note_on_c, 13, 62, 0
18, 148980, Note_on_c, 13, 59, 90
18, 148980, Note_on_c, 13, 68, 90
18, 149040, Note_on_c, 13, 68, 0
18, 149040, Note_on_c, 13, 59, 0
18, 149040, Note_on_c, 13, 60, 90
18, 149040, Note_on_c, 13, 69, 90
18, 149100, Note_on_c, 13, 69, 0
18, 149100, Note_on_c, 13, 60, 0
18, 149100, Note_on_c, 13, 62, 90
18, 149100, Note_on_c, 13, 69, 90
18, 149220, Note_on_c, 13, 69, 0
18, 149220, Note_on_c, 13, 62, 0
18, 149220, Note_on_c, 13, 69, 90
18, 149220, Note_on_c, 13, 66, 90
18, 149220, Note_on_c, 13, 60, 90
18, 149249, Note_on_c, 13, 60, 0
18, 149249, Note_on_c, 13, 66, 0
18, 149249, Note_on_c, 13, 69, 0
18, 149340, Note_on_c, 13, 69, 90
18, 149340, Note_on_c, 13, 62, 90
18, 149340, Note_on_c, 13, 60, 90
18, 149369, Note_on_c, 13, 60, 0
18, 149369, Note_on_c, 13, 62, 0
18, 149369, Note_on_c, 13, 69, 0
18, 149460, Note_on_c, 13, 69, 90
18, 149460, Note_on_c, 13, 66, 90
18, 149460, Note_on_c, 13, 62, 90
18, 149489, Note_on_c, 13, 62, 0
18, 149489, Note_on_c, 13, 66, 0
18, 149489, Note_on_c, 13, 69, 0
18, 149580, Note_on_c, 13, 62, 90
18, 149580, Note_on_c, 13, 69, 90
18, 149700, Note_on_c, 13, 69, 0
18, 149700, Note_on_c, 13, 62, 0
18, 149700, Note_on_c, 13, 69, 90
18, 149700, Note_on_c, 13, 66, 90
18, 149760, Note_on_c, 13, 66, 0
18, 149760, Note_on_c, 13, 69, 0
18, 149760, Note_on_c, 13, 67, 90
18, 149760, Note_on_c, 13, 71, 90
18, 149820, Note_on_c, 13, 71, 0
18, 149820, Note_on_c, 13, 67, 0
18, 149820, Note_on_c, 13, 72, 90
18, 149820, Note_on_c, 13, 67, 90
18, 149940, Note_on_c, 13, 67, 0
18, 149940, Note_on_c, 13, 72, 0
18, 149940, Note_on_c, 13, 64, 90
18, 149940, Note_on_c, 13, 67, 90
18, 149940, Note_on_c, 13, 69, 90
18, 149969, Note_on_c, 13, 69, 0
18, 149969, Note_on_c, 13, 67, 0
18, 149969, Note_on_c, 13, 64, 0
18, 150060, Note_on_c, 13, 64, 90
18, 150060, Note_on_c, 13, 67, 90
18, 150089, Note_on_c, 13, 67, 0
18, 150089, Note_on_c, 13, 64, 0
18, 150300, Note_on_c, 13, 62, 90
18, 150300, Note_on_c, 13, 67, 90
18, 150300, Note_on_c, 13, 69, 90
18, 150329, Note_on_c, 13, 69, 0
18, 150329, Note_on_c, 13, 67, 0
18, 150329, Note_on_c, 13, 62, 0
18, 150420, Note_on_c, 13, 60, 90
18, 150420, Note_on_c, 13, 69, 90
18, 150420, Note_on_c, 13, 67, 90
18, 150449, Note_on_c, 13, 67, 0
18, 150449, Note_on_c, 13, 69, 0
18, 150449, Note_on_c, 13, 60, 0
18, 150660, Note_on_c, 13, 62, 90
18, 150660, Note_on_c, 13, 67, 90
18, 150689, Note_on_c, 13, 67, 0
18, 150689, Note_on_c, 13, 62, 0
18, 150780, Note_on_c, 13, 71, 90
18, 150780, Note_on_c, 13, 67, 90
18, 150809, Note_on_c, 13, 67, 0
18, 150809, Note_on_c, 13, 71, 0
18, 150900, Note_on_c, 13, 67, 90
18, 150900, Note_on_c, 13, 71, 90
18, 150960, Note_on_c, 13, 71, 0
18, 150960, Note_on_c, 13, 67, 0
18, 150960, Note_on_c, 13, 66, 90
18, 150960, Note_on_c, 13, 69, 90
18, 151020, Note_on_c, 13, 69, 0
18, 151020, Note_on_c, 13, 66, 0
18, 151020, Note_on_c, 13, 62, 90
18, 151020, Note_on_c, 13, 67, 90
18, 151379, Note_on_c, 13, 67, 0
18, 151379, Note_on_c, 13, 62, 0
18, 151620, Note_on_c, 13, 66, 100
18, 151620, Note_on_c, 13, 74, 100
18, 151680, Note_on_c, 13, 74, 0
18, 151680, Note_on_c, 13, 66, 0
18, 151680, Note_on_c, 13, 66, 100
18, 151680, Note_on_c, 13, 69, 100
18, 151740, Note_on_c, 13, 69, 0
18, 151740, Note_on_c, 13, 66, 0
18, 151740, Note_on_c, 13, 66, 100
18, 151740, Note_on_c, 13, 69, 100
18, 151800, Note_on_c, 13, 69, 0
18, 151800, Note_on_c, 13, 66, 0
18, 151800, Note_on_c, 13, 66, 100
18, 151800, Note_on_c, 13, 74, 100
18, 151860, Note_on_c, 13, 74, 0
18, 151860, Note_on_c, 13, 66, 0
18, 151860, Note_on_c, 13, 66, 100
18, 151860, Note_on_c, 13, 74, 100
18, 151920, Note_on_c, 13, 74, 0
18, 151920, Note_on_c, 13, 66, 0
18, 151920, Note_on_c, 13, 66, 100
18, 151920, Note_on_c, 13, 69, 100
18, 151980, Note_on_c, 13, 69, 0
18, 151980, Note_on_c, 13, 66, 0
18, 151980, Note_on_c, 13, 66, 100
18, 151980, Note_on_c, 13, 69, 100
18, 152040, Note_on_c, 13, 69, 0
18, 152040, Note_on_c, 13, 66, 0
18, 152040, Note_on_c, 13, 66, 100
18, 152040, Note_on_c, 13, 69, 100
18, 152040, Note_on_c, 13, 74, 100
18, 152100, Note_on_c, 13, 74, 0
18, 152100, Note_on_c, 13, 69, 0
18, 152100, Note_on_c, 13, 66, 0
18, 152100, Note_on_c, 13, 74, 100
18, 152100, Note_on_c, 13, 66, 100
18, 152100, Note_on_c, 13, 69, 100
18, 152130, Note_on_c, 13, 74, 0
18, 152130, Note_on_c, 13, 76, 100
18, 152160, Note_on_c, 13, 76, 0
18, 152160, Note_on_c, 13, 69, 0
18, 152160, Note_on_c, 13, 66, 0
18, 152160, Note_on_c, 13, 78, 100
18, 152220, Note_on_c, 13, 78, 0
18, 152220, Note_on_c, 13, 69, 100
18, 152220, Note_on_c, 13, 66, 100
18, 152220, Note_on_c, 13, 76, 100
18, 152250, Note_on_c, 13, 76, 0
18, 152250, Note_on_c, 13, 74, 100
18, 152280, Note_on_c, 13, 74, 0
18, 152280, Note_on_c, 13, 66, 0
18, 152280, Note_on_c, 13, 69, 0
18, 152280, Note_on_c, 13, 73, 100
18, 152340, Note_on_c, 13, 73, 0
18, 152340, Note_on_c, 13, 66, 100
18, 152340, Note_on_c, 13, 69, 100
18, 152340, Note_on_c, 13, 74, 100
18, 152400, Note_on_c, 13, 74, 0
18, 152400, Note_on_c, 13, 69, 0
18, 152400, Note_on_c, 13, 66, 0
18, 152400, Note_on_c, 13, 78, 100
18, 152430, Note_on_c, 13, 78, 0
18, 152430, Note_on_c, 13, 76, 100
18, 152460, Note_on_c, 13, 76, 0
18, 152460, Note_on_c, 13, 67, 100
18, 152460, Note_on_c, 13, 73, 100
18, 152460, Note_on_c, 13, 76, 100
18, 152520, Note_on_c, 13, 76, 0
18, 152520, Note_on_c, 13, 73, 0
18, 152520, Note_on_c, 13, 67, 0
18, 152520, Note_on_c, 13, 64, 100
18, 152520, Note_on_c, 13, 67, 100
18, 152520, Note_on_c, 13, 73, 100
18, 152580, Note_on_c, 13, 73, 0
18, 152580, Note_on_c, 13, 67, 0
18, 152580, Note_on_c, 13, 64, 0
18, 152580, Note_on_c, 13, 66, 100
18, 152580, Note_on_c, 13, 74, 100
18, 152640, Note_on_c, 13, 74, 0
18, 152640, Note_on_c, 13, 66, 0
18, 152640, Note_on_c, 13, 69, 100
18, 152640, Note_on_c, 13, 66, 100
18, 152700, Note_on_c, 13, 66, 0
18, 152700, Note_on_c, 13, 69, 0
18, 152700, Note_on_c, 13, 69, 100
18, 152700, Note_on_c, 13, 66, 100
18, 152760, Note_on_c, 13, 66, 0
18, 152760, Note_on_c, 13, 69, 0
18, 152760, Note_on_c, 13, 66, 100
18, 152760, Note_on_c, 13, 74, 100
18, 152820, Note_on_c, 13, 74, 0
18, 152820, Note_on_c, 13, 66, 0
18, 152820, Note_on_c, 13, 66, 100
18, 152820, Note_on_c, 13, 74, 100
18, 152880, Note_on_c, 13, 74, 0
18, 152880, Note_on_c, 13, 66, 0
18, 152880, Note_on_c, 13, 69, 100
18, 152880, Note_on_c, 13, 66, 100
18, 152940, Note_on_c, 13, 66, 0
18, 152940, Note_on_c, 13, 69, 0
18, 152940, Note_on_c, 13, 66, 100
18, 152940, Note_on_c, 13, 69, 100
18, 153000, Note_on_c, 13, 69, 0
18, 153000, Note_on_c, 13, 66, 0
18, 153000, Note_on_c, 13, 74, 100
18, 153000, Note_on_c, 13, 66, 100
18, 153060, Note_on_c, 13, 66, 0
18, 153060, Note_on_c, 13, 74, 0
18, 153060, Note_on_c, 13, 69, 90
18, 153060, Note_on_c, 13, 74, 100
18, 153090, Note_on_c, 13, 74, 0
18, 153090, Note_on_c, 13, 76, 100
18, 153119, Note_on_c, 13, 69, 0
18, 153120, Note_on_c, 13, 76, 0
18, 153120, Note_on_c, 13, 69, 90
18, 153120, Note_on_c, 13, 78, 100
18, 153179, Note_on_c, 13, 69, 0
18, 153180, Note_on_c, 13, 78, 0
18, 153180, Note_on_c, 13, 66, 90
18, 153180, Note_on_c, 13, 81, 100
18, 153210, Note_on_c, 13, 81, 0
18, 153210, Note_on_c, 13, 79, 100
18, 153239, Note_on_c, 13, 66, 0
18, 153240, Note_on_c, 13, 79, 0
18, 153240, Note_on_c, 13, 67, 90
18, 153240, Note_on_c, 13, 78, 100
18, 153270, Note_on_c, 13, 78, 0
18, 153270, Note_on_c, 13, 76, 100
18, 153299, Note_on_c, 13, 67, 0
18, 153300, Note_on_c, 13, 76, 0
18, 153300, Note_on_c, 13, 66, 90
18, 153300, Note_on_c, 13, 74, 90
18, 153359, Note_on_c, 13, 74, 0
18, 153359, Note_on_c, 13, 66, 0
18, 153360, Note_on_c, 13, 69, 90
18, 153360, Note_on_c, 13, 66, 90
18, 153419, Note_on_c, 13, 66, 0
18, 153419, Note_on_c, 13, 69, 0
18, 153420, Note_on_c, 13, 69, 90
18, 153420, Note_on_c, 13, 66, 90
18, 153479, Note_on_c, 13, 66, 0
18, 153479, Note_on_c, 13, 69, 0
18, 153480, Note_on_c, 13, 74, 90
18, 153480, Note_on_c, 13, 66, 90
18, 153539, Note_on_c, 13, 66, 0
18, 153539, Note_on_c, 13, 74, 0
18, 153600, Note_on_c, 13, 71, 90
18, 153600, Note_on_c, 13, 74, 90
18, 153659, Note_on_c, 13, 74, 0
18, 153659, Note_on_c, 13, 71, 0
18, 153720, Note_on_c, 13, 71, 90
18, 153720, Note_on_c, 13, 74, 90
18, 153779, Note_on_c, 13, 74, 0
18, 153779, Note_on_c, 13, 71, 0
18, 153840, Note_on_c, 13, 69, 90
18, 153840, Note_on_c, 13, 74, 90
18, 153899, Note_on_c, 13, 74, 0
18, 153899, Note_on_c, 13, 69, 0
18, 153960, Note_on_c, 13, 69, 90
18, 153960, Note_on_c, 13, 74, 90
18, 154019, Note_on_c, 13, 74, 0
18, 154019, Note_on_c, 13, 69, 0
18, 154020, Note_on_c, 13, 67, 90
18, 154020, Note_on_c, 13, 73, 90
18, 154079, Note_on_c, 13, 73, 0
18, 154079, Note_on_c, 13, 67, 0
18, 154140, Note_on_c, 13, 66, 90
18, 154140, Note_on_c, 13, 74, 90
18, 154199, Note_on_c, 13, 74, 0
18, 154199, Note_on_c, 13, 66, 0
18, 154260, Note_on_c, 13, 73, 90
18, 154290, Note_on_c, 13, 73, 0
18, 154290, Note_on_c, 13, 81, 90
18, 154320, Note_on_c, 13, 81, 0
18, 154320, Note_on_c, 13, 79, 90
18, 154350, Note_on_c, 13, 79, 0
18, 154350, Note_on_c, 13, 78, 90
18, 154380, Note_on_c, 13, 78, 0
18, 154380, Note_on_c, 13, 76, 90
18, 154410, Note_on_c, 13, 76, 0
18, 154410, Note_on_c, 13, 74, 90
18, 154440, Note_on_c, 13, 74, 0
18, 154440, Note_on_c, 13, 73, 90
18, 154470, Note_on_c, 13, 73, 0
18, 154470, Note_on_c, 13, 71, 90
18, 154500, Note_on_c, 13, 71, 0
18, 154500, Note_on_c, 13, 66, 90
18, 154500, Note_on_c, 13, 69, 90
18, 154560, Note_on_c, 13, 69, 0
18, 154560, Note_on_c, 13, 66, 0
18, 154560, Note_on_c, 13, 74, 90
18, 154620, Note_on_c, 13, 74, 0
18, 154620, Note_on_c, 13, 73, 90
18, 154680, Note_on_c, 13, 73, 0
18, 154680, Note_on_c, 13, 71, 90
18, 154740, Note_on_c, 13, 71, 0
18, 154740, Note_on_c, 13, 64, 90
18, 154740, Note_on_c, 13, 73, 90
18, 154740, Note_on_c, 13, 69, 90
18, 154980, Note_on_c, 13, 69, 0
18, 154980, Note_on_c, 13, 73, 0
18, 154980, Note_on_c, 13, 64, 0
18, 154980, Note_on_c, 13, 66, 90
18, 154980, Note_on_c, 13, 69, 90
18, 155040, Note_on_c, 13, 69, 0
18, 155040, Note_on_c, 13, 66, 0
18, 155100, Note_on_c, 13, 69, 90
18, 155100, Note_on_c, 13, 66, 90
18, 155160, Note_on_c, 13, 66, 0
18, 155160, Note_on_c, 13, 69, 0
18, 155220, Note_on_c, 13, 66, 90
18, 155220, Note_on_c, 13, 69, 90
18, 155280, Note_on_c, 13, 69, 0
18, 155280, Note_on_c, 13, 66, 0
18, 155340, Note_on_c, 13, 66, 90
18, 155340, Note_on_c, 13, 69, 90
18, 155400, Note_on_c, 13, 69, 0
18, 155400, Note_on_c, 13, 66, 0
18, 155460, Note_on_c, 13, 62, 90
18, 155460, Note_on_c, 13, 66, 90
18, 155520, Note_on_c, 13, 66, 0
18, 155520, Note_on_c, 13, 62, 0
18, 155580, Note_on_c, 13, 69, 90
18, 155580, Note_on_c, 13, 66, 90
18, 155640, Note_on_c, 13, 66, 0
18, 155640, Note_on_c, 13, 69, 0
18, 155640, Note_on_c, 13, 64, 90
18, 155640, Note_on_c, 13, 67, 90
18, 155700, Note_on_c, 13, 67, 0
18, 155700, Note_on_c, 13, 64, 0
18, 155700, Note_on_c, 13, 66, 90
18, 155700, Note_on_c, 13, 69, 90
18, 155760, Note_on_c, 13, 69, 0
18, 155760, Note_on_c, 13, 66, 0
18, 155760, Note_on_c, 13, 78, 90
18, 155790, Note_on_c, 13, 78, 0
18, 155790, Note_on_c, 13, 76, 90
18, 155820, Note_on_c, 13, 76, 0
18, 155820, Note_on_c, 13, 78, 90
18, 155850, Note_on_c, 13, 78, 0
18, 155850, Note_on_c, 13, 76, 90
18, 155880, Note_on_c, 13, 76, 0
18, 155880, Note_on_c, 13, 74, 90
18, 155910, Note_on_c, 13, 74, 0
18, 155910, Note_on_c, 13, 73, 90
18, 155940, Note_on_c, 13, 73, 0
18, 155940, Note_on_c, 13, 66, 90
18, 155940, Note_on_c, 13, 69, 90
18, 156000, Note_on_c, 13, 69, 0
18, 156000, Note_on_c, 13, 66, 0
18, 156060, Note_on_c, 13, 66, 90
18, 156060, Note_on_c, 13, 69, 90
18, 156120, Note_on_c, 13, 69, 0
18, 156120, Note_on_c, 13, 66, 0
18, 156180, Note_on_c, 13, 66, 90
18, 156180, Note_on_c, 13, 69, 90
18, 156240, Note_on_c, 13, 69, 0
18, 156240, Note_on_c, 13, 66, 0
18, 156300, Note_on_c, 13, 66, 90
18, 156300, Note_on_c, 13, 69, 90
18, 156360, Note_on_c, 13, 69, 0
18, 156360, Note_on_c, 13, 66, 0
18, 156420, Note_on_c, 13, 62, 90
18, 156420, Note_on_c, 13, 66, 90
18, 156480, Note_on_c, 13, 66, 0
18, 156480, Note_on_c, 13, 62, 0
18, 156540, Note_on_c, 13, 69, 90
18, 156540, Note_on_c, 13, 66, 90
18, 156600, Note_on_c, 13, 66, 0
18, 156600, Note_on_c, 13, 69, 0
18, 156600, Note_on_c, 13, 64, 90
18, 156600, Note_on_c, 13, 67, 90
18, 156660, Note_on_c, 13, 67, 0
18, 156660, Note_on_c, 13, 64, 0
18, 156660, Note_on_c, 13, 69, 90
18, 156660, Note_on_c, 13, 66, 90
18, 156720, Note_on_c, 13, 66, 0
18, 156720, Note_on_c, 13, 69, 0
18, 156780, Note_on_c, 13, 62, 90
18, 156780, Note_on_c, 13, 66, 90
18, 156840, Note_on_c, 13, 66, 0
18, 156840, Note_on_c, 13, 62, 0
18, 156900, Note_on_c, 13, 71, 90
18, 156900, Note_on_c, 13, 74, 90
18, 156960, Note_on_c, 13, 74, 0
18, 156960, Note_on_c, 13, 71, 0
18, 157020, Note_on_c, 13, 71, 90
18, 157020, Note_on_c, 13, 74, 90
18, 157080, Note_on_c, 13, 74, 0
18, 157080, Note_on_c, 13, 71, 0
18, 157140, Note_on_c, 13, 69, 90
18, 157140, Note_on_c, 13, 74, 90
18, 157200, Note_on_c, 13, 74, 0
18, 157200, Note_on_c, 13, 69, 0
18, 157260, Note_on_c, 13, 69, 90
18, 157260, Note_on_c, 13, 74, 90
18, 157320, Note_on_c, 13, 74, 0
18, 157320, Note_on_c, 13, 69, 0
18, 157380, Note_on_c, 13, 69, 90
18, 157380, Note_on_c, 13, 73, 90
18, 157440, Note_on_c, 13, 73, 0
18, 157440, Note_on_c, 13, 69, 0
18, 157500, Note_on_c, 13, 74, 90
18, 157500, Note_on_c, 13, 69, 90
18, 157560, Note_on_c, 13, 69, 0
18, 157560, Note_on_c, 13, 74, 0
18, 157620, Note_on_c, 13, 73, 90
18, 157620, Note_on_c, 13, 76, 90
18, 157680, Note_on_c, 13, 76, 0
18, 157680, Note_on_c, 13, 73, 0
18, 157680, Note_on_c, 13, 79, 90
18, 157710, Note_on_c, 13, 79, 0
18, 157710, Note_on_c, 13, 78, 90
18, 157740, Note_on_c, 13, 78, 0
18, 157740, Note_on_c, 13, 76, 90
18, 157770, Note_on_c, 13, 76, 0
18, 157770, Note_on_c, 13, 74, 90
18, 157800, Note_on_c, 13, 74, 0
18, 157800, Note_on_c, 13, 73, 90
18, 157830, Note_on_c, 13, 73, 0
18, 157830, Note_on_c, 13, 71, 90
18, 157860, Note_on_c, 13, 71, 0
18, 157860, Note_on_c, 13, 66, 90
18, 157860, Note_on_c, 13, 69, 90
18, 157920, Note_on_c, 13, 69, 0
18, 157920, Note_on_c, 13, 66, 0
18, 157980, Note_on_c, 13, 67, 90
18, 157980, Note_on_c, 13, 69, 90
18, 158040, Note_on_c, 13, 69, 0
18, 158040, Note_on_c, 13, 67, 0
18, 158100, Note_on_c, 13, 73, 90
18, 158100, Note_on_c, 13, 69, 90
18, 158160, Note_on_c, 13, 69, 0
18, 158160, Note_on_c, 13, 73, 0
18, 158220, Note_on_c, 13, 64, 90
18, 158220, Note_on_c, 13, 69, 90
18, 158280, Note_on_c, 13, 69, 0
18, 158280, Note_on_c, 13, 64, 0
18, 158280, Note_on_c, 13, 71, 90
18, 158280, Note_on_c, 13, 68, 90
18, 158340, Note_on_c, 13, 68, 0
18, 158340, Note_on_c, 13, 71, 0
18, 158340, Note_on_c, 13, 67, 90
18, 158340, Note_on_c, 13, 69, 90
18, 158400, Note_on_c, 13, 69, 0
18, 158400, Note_on_c, 13, 67, 0
18, 158460, Note_on_c, 13, 73, 90
18, 158460, Note_on_c, 13, 69, 90
18, 158520, Note_on_c, 13, 69, 0
18, 158520, Note_on_c, 13, 73, 0
18, 158580, Note_on_c, 13, 69, 90
18, 158580, Note_on_c, 13, 73, 90
18, 158640, Note_on_c, 13, 73, 0
18, 158640, Note_on_c, 13, 69, 0
18, 158700, Note_on_c, 13, 73, 90
18, 158700, Note_on_c, 13, 69, 90
18, 158700, Note_on_c, 13, 67, 90
18, 158760, Note_on_c, 13, 67, 0
18, 158760, Note_on_c, 13, 69, 0
18, 158760, Note_on_c, 13, 73, 0
18, 158820, Note_on_c, 13, 67, 90
18, 158850, Note_on_c, 13, 67, 0
18, 158850, Note_on_c, 13, 69, 90
18, 158880, Note_on_c, 13, 69, 0
18, 158880, Note_on_c, 13, 73, 90
18, 158910, Note_on_c, 13, 73, 0
18, 158910, Note_on_c, 13, 69, 90
18, 158940, Note_on_c, 13, 69, 0
18, 158940, Note_on_c, 13, 67, 90
18, 158970, Note_on_c, 13, 67, 0
18, 158970, Note_on_c, 13, 73, 90
18, 159000, Note_on_c, 13, 73, 0
18, 159000, Note_on_c, 13, 76, 90
18, 159030, Note_on_c, 13, 76, 0
18, 159030, Note_on_c, 13, 73, 90
18, 159060, Note_on_c, 13, 73, 0
18, 159060, Note_on_c, 13, 67, 90
18, 159060, Note_on_c, 13, 69, 90
18, 159060, Note_on_c, 13, 74, 90
18, 159119, Note_on_c, 13, 74, 0
18, 159119, Note_on_c, 13, 69, 0
18, 159119, Note_on_c, 13, 67, 0
18, 159180, Note_on_c, 13, 69, 90
18, 159180, Note_on_c, 13, 74, 90
18, 159239, Note_on_c, 13, 74, 0
18, 159239, Note_on_c, 13, 69, 0
18, 159300, Note_on_c, 13, 69, 90
18, 159300, Note_on_c, 13, 74, 90
18, 159359, Note_on_c, 13, 74, 0
18, 159359, Note_on_c, 13, 69, 0
18, 159360, Note_on_c, 13, 73, 90
18, 159389, Note_on_c, 13, 73, 0
18, 159390, Note_on_c, 13, 71, 90
18, 159419, Note_on_c, 13, 71, 0
18, 159420, Note_on_c, 13, 69, 90
18, 159479, Note_on_c, 13, 69, 0
18, 159480, Note_on_c, 13, 67, 90
18, 159480, Note_on_c, 13, 73, 90
18, 159539, Note_on_c, 13, 73, 0
18, 159539, Note_on_c, 13, 67, 0
18, 159540, Note_on_c, 13, 66, 90
18, 159540, Note_on_c, 13, 74, 90
18, 159599, Note_on_c, 13, 74, 0
18, 159599, Note_on_c, 13, 66, 0
18, 159660, Note_on_c, 13, 66, 90
18, 159660, Note_on_c, 13, 72, 90
18, 159719, Note_on_c, 13, 72, 0
18, 159719, Note_on_c, 13, 66, 0
18, 159780, Note_on_c, 13, 72, 90
18, 159780, Note_on_c, 13, 74, 90
18, 159839, Note_on_c, 13, 74, 0
18, 159839, Note_on_c, 13, 72, 0
18, 159900, Note_on_c, 13, 69, 90
18, 159900, Note_on_c, 13, 74, 90
18, 159959, Note_on_c, 13, 74, 0
18, 159959, Note_on_c, 13, 69, 0
18, 159960, Note_on_c, 13, 66, 90
18, 159960, Note_on_c, 13, 69, 90
18, 160019, Note_on_c, 13, 69, 0
18, 160019, Note_on_c, 13, 66, 0
18, 160020, Note_on_c, 13, 67, 90
18, 160020, Note_on_c, 13, 72, 90
18, 160050, Note_on_c, 13, 72, 0
18, 160050, Note_on_c, 13, 71, 90
18, 160080, Note_on_c, 13, 71, 0
18, 160080, Note_on_c, 13, 67, 0
18, 160080, Note_on_c, 13, 62, 90
18, 160080, Note_on_c, 13, 72, 90
18, 160140, Note_on_c, 13, 72, 0
18, 160140, Note_on_c, 13, 62, 0
18, 160140, Note_on_c, 13, 71, 90
18, 160169, Note_on_c, 13, 71, 0
18, 160170, Note_on_c, 13, 69, 90
18, 160199, Note_on_c, 13, 69, 0
18, 160200, Note_on_c, 13, 67, 90
18, 160229, Note_on_c, 13, 67, 0
18, 160230, Note_on_c, 13, 66, 90
18, 160259, Note_on_c, 13, 66, 0
18, 160260, Note_on_c, 13, 67, 90
18, 160260, Note_on_c, 13, 71, 90
18, 160320, Note_on_c, 13, 71, 0
18, 160320, Note_on_c, 13, 67, 0
18, 160320, Note_on_c, 13, 67, 90
18, 160320, Note_on_c, 13, 71, 90
18, 160380, Note_on_c, 13, 71, 0
18, 160380, Note_on_c, 13, 67, 0
18, 160380, Note_on_c, 13, 67, 90
18, 160380, Note_on_c, 13, 71, 90
18, 160440, Note_on_c, 13, 71, 0
18, 160440, Note_on_c, 13, 67, 0
18, 160440, Note_on_c, 13, 67, 90
18, 160440, Note_on_c, 13, 71, 90
18, 160500, Note_on_c, 13, 71, 0
18, 160500, Note_on_c, 13, 67, 0
18, 160500, Note_on_c, 13, 64, 90
18, 160500, Note_on_c, 13, 69, 90
18, 160560, Note_on_c, 13, 69, 0
18, 160560, Note_on_c, 13, 64, 0
18, 160620, Note_on_c, 13, 69, 90
18, 160649, Note_on_c, 13, 69, 0
18, 160650, Note_on_c, 13, 67, 90
18, 160679, Note_on_c, 13, 67, 0
18, 160680, Note_on_c, 13, 66, 90
18, 160709, Note_on_c, 13, 66, 0
18, 160710, Note_on_c, 13, 64, 90
18, 160739, Note_on_c, 13, 64, 0
18, 160740, Note_on_c, 13, 69, 90
18, 160740, Note_on_c, 13, 66, 90
18, 160799, Note_on_c, 13, 66, 0
18, 160799, Note_on_c, 13, 69, 0
18, 160800, Note_on_c, 13, 66, 90
18, 160800, Note_on_c, 13, 69, 90
18, 160860, Note_on_c, 13, 69, 0
18, 160860, Note_on_c, 13, 66, 0
18, 160860, Note_on_c, 13, 66, 90
18, 160860, Note_on_c, 13, 69, 90
18, 160919, Note_on_c, 13, 69, 0
18, 160919, Note_on_c, 13, 66, 0
18, 160920, Note_on_c, 13, 66, 90
18, 160920, Note_on_c, 13, 69, 90
18, 160980, Note_on_c, 13, 69, 0
18, 160980, Note_on_c, 13, 66, 0
18, 160980, Note_on_c, 13, 67, 90
18, 160980, Note_on_c, 13, 62, 90
18, 161039, Note_on_c, 13, 62, 0
18, 161039, Note_on_c, 13, 67, 0
18, 161100, Note_on_c, 13, 67, 90
18, 161129, Note_on_c, 13, 67, 0
18, 161130, Note_on_c, 13, 66, 90
18, 161159, Note_on_c, 13, 66, 0
18, 161160, Note_on_c, 13, 64, 90
18, 161189, Note_on_c, 13, 64, 0
18, 161190, Note_on_c, 13, 62, 90
18, 161219, Note_on_c, 13, 62, 0
18, 161220, Note_on_c, 13, 61, 90
18, 161220, Note_on_c, 13, 67, 90
18, 161280, Note_on_c, 13, 67, 0
18, 161280, Note_on_c, 13, 61, 0
18, 161280, Note_on_c, 13, 73, 90
18, 161340, Note_on_c, 13, 73, 0
18, 161340, Note_on_c, 13, 73, 90
18, 161400, Note_on_c, 13, 73, 0
18, 161400, Note_on_c, 13, 69, 90
18, 161460, Note_on_c, 13, 69, 0
18, 161460, Note_on_c, 13, 67, 90
18, 161490, Note_on_c, 13, 67, 0
18, 161490, Note_on_c, 13, 69, 90
18, 161520, Note_on_c, 13, 69, 0
18, 161520, Note_on_c, 13, 73, 90
18, 161580, Note_on_c, 13, 73, 0
18, 161580, Note_on_c, 13, 73, 90
18, 161610, Note_on_c, 13, 73, 0
18, 161610, Note_on_c, 13, 71, 90
18, 161640, Note_on_c, 13, 71, 0
18, 161640, Note_on_c, 13, 69, 90
18, 161700, Note_on_c, 13, 69, 0
18, 161700, Note_on_c, 13, 73, 90
18, 161730, Note_on_c, 13, 73, 0
18, 161730, Note_on_c, 13, 74, 90
18, 161760, Note_on_c, 13, 74, 0
18, 161760, Note_on_c, 13, 76, 90
18, 161820, Note_on_c, 13, 76, 0
18, 161820, Note_on_c, 13, 76, 90
18, 161850, Note_on_c, 13, 76, 0
18, 161850, Note_on_c, 13, 74, 90
18, 161880, Note_on_c, 13, 74, 0
18, 161880, Note_on_c, 13, 73, 90
18, 161940, Note_on_c, 13, 73, 0
18, 161940, Note_on_c, 13, 76, 90
18, 161970, Note_on_c, 13, 76, 0
18, 161970, Note_on_c, 13, 78, 90
18, 162000, Note_on_c, 13, 78, 0
18, 162000, Note_on_c, 13, 79, 90
18, 162030, Note_on_c, 13, 79, 0
18, 162030, Note_on_c, 13, 81, 90
18, 162060, Note_on_c, 13, 81, 0
18, 162060, Note_on_c, 13, 79, 90
18, 162120, Note_on_c, 13, 79, 0
18, 162120, Note_on_c, 13, 76, 90
18, 162180, Note_on_c, 13, 76, 0
18, 162180, Note_on_c, 13, 69, 90
18, 162180, Note_on_c, 13, 74, 90
18, 162240, Note_on_c, 13, 74, 0
18, 162240, Note_on_c, 13, 69, 0
18, 162300, Note_on_c, 13, 71, 90
18, 162300, Note_on_c, 13, 68, 90
18, 162360, Note_on_c, 13, 68, 0
18, 162360, Note_on_c, 13, 71, 0
18, 162420, Note_on_c, 13, 73, 90
18, 162420, Note_on_c, 13, 69, 90
18, 162480, Note_on_c, 13, 69, 0
18, 162480, Note_on_c, 13, 73, 0
18, 162540, Note_on_c, 13, 76, 90
18, 162570, Note_on_c, 13, 76, 0
18, 162570, Note_on_c, 13, 74, 90
18, 162600, Note_on_c, 13, 74, 0
18, 162600, Note_on_c, 13, 73, 90
18, 162630, Note_on_c, 13, 73, 0
18, 162630, Note_on_c, 13, 71, 90
18, 162660, Note_on_c, 13, 71, 0
18, 162660, Note_on_c, 13, 67, 90
18, 162660, Note_on_c, 13, 71, 90
18, 162720, Note_on_c, 13, 71, 0
18, 162720, Note_on_c, 13, 67, 0
18, 162720, Note_on_c, 13, 73, 90
18, 162720, Note_on_c, 13, 69, 90
18, 162780, Note_on_c, 13, 69, 0
18, 162780, Note_on_c, 13, 73, 0
18, 162780, Note_on_c, 13, 69, 90
18, 162780, Note_on_c, 13, 73, 90
18, 162840, Note_on_c, 13, 73, 0
18, 162840, Note_on_c, 13, 69, 0
18, 162900, Note_on_c, 13, 67, 90
18, 162900, Note_on_c, 13, 69, 90
18, 162960, Note_on_c, 13, 69, 0
18, 162960, Note_on_c, 13, 67, 0
18, 162960, Note_on_c, 13, 66, 90
18, 163020, Note_on_c, 13, 66, 0
18, 163020, Note_on_c, 13, 67, 90
18, 163080, Note_on_c, 13, 67, 0
18, 163080, Note_on_c, 13, 67, 90
18, 163080, Note_on_c, 13, 69, 90
18, 163140, Note_on_c, 13, 69, 0
18, 163140, Note_on_c, 13, 67, 0
18, 163140, Note_on_c, 13, 66, 90
18, 163140, Note_on_c, 13, 69, 90
18, 163200, Note_on_c, 13, 69, 0
18, 163200, Note_on_c, 13, 66, 0
18, 163260, Note_on_c, 13, 62, 90
18, 163260, Note_on_c, 13, 76, 90
18, 163320, Note_on_c, 13, 76, 0
18, 163320, Note_on_c, 13, 62, 0
18, 163380, Note_on_c, 13, 66, 90
18, 163380, Note_on_c, 13, 74, 90
18, 163440, Note_on_c, 13, 74, 0
18, 163440, Note_on_c, 13, 66, 0
18, 163440, Note_on_c, 13, 69, 90
18, 163440, Note_on_c, 13, 66, 90
18, 163500, Note_on_c, 13, 66, 0
18, 163500, Note_on_c, 13, 69, 0
18, 163500, Note_on_c, 13, 66, 90
18, 163500, Note_on_c, 13, 69, 90
18, 163560, Note_on_c, 13, 69, 0
18, 163560, Note_on_c, 13, 66, 0
18, 163560, Note_on_c, 13, 66, 90
18, 163560, Note_on_c, 13, 74, 90
18, 163620, Note_on_c, 13, 74, 0
18, 163620, Note_on_c, 13, 66, 0
18, 163620, Note_on_c, 13, 66, 90
18, 163620, Note_on_c, 13, 72, 90
18, 163680, Note_on_c, 13, 72, 0
18, 163680, Note_on_c, 13, 66, 0
18, 163680, Note_on_c, 13, 69, 90
18, 163680, Note_on_c, 13, 66, 90
18, 163740, Note_on_c, 13, 66, 0
18, 163740, Note_on_c, 13, 69, 0
18, 163740, Note_on_c, 13, 66, 90
18, 163740, Note_on_c, 13, 69, 90
18, 163800, Note_on_c, 13, 69, 0
18, 163800, Note_on_c, 13, 66, 0
18, 163800, Note_on_c, 13, 66, 90
18, 163800, Note_on_c, 13, 72, 90
18, 163860, Note_on_c, 13, 72, 0
18, 163860, Note_on_c, 13, 66, 0
18, 163860, Note_on_c, 13, 66, 90
18, 163860, Note_on_c, 13, 72, 90
18, 163920, Note_on_c, 13, 72, 0
18, 163920, Note_on_c, 13, 66, 0
18, 163920, Note_on_c, 13, 69, 90
18, 163920, Note_on_c, 13, 78, 90
18, 163980, Note_on_c, 13, 78, 0
18, 163980, Note_on_c, 13, 69, 0
18, 163980, Note_on_c, 13, 67, 90
18, 163980, Note_on_c, 13, 76, 90
18, 164040, Note_on_c, 13, 76, 0
18, 164040, Note_on_c, 13, 67, 0
18, 164040, Note_on_c, 13, 66, 90
18, 164040, Note_on_c, 13, 74, 90
18, 164100, Note_on_c, 13, 74, 0
18, 164100, Note_on_c, 13, 66, 0
18, 164100, Note_on_c, 13, 64, 90
18, 164100, Note_on_c, 13, 72, 90
18, 164100, Note_on_c, 13, 78, 90
18, 164160, Note_on_c, 13, 78, 0
18, 164160, Note_on_c, 13, 72, 0
18, 164160, Note_on_c, 13, 64, 0
18, 164160, Note_on_c, 13, 67, 90
18, 164160, Note_on_c, 13, 76, 90
18, 164220, Note_on_c, 13, 76, 0
18, 164220, Note_on_c, 13, 67, 0
18, 164220, Note_on_c, 13, 66, 90
18, 164220, Note_on_c, 13, 74, 90
18, 164280, Note_on_c, 13, 74, 0
18, 164280, Note_on_c, 13, 66, 0
18, 164280, Note_on_c, 13, 64, 90
18, 164280, Note_on_c, 13, 73, 90
18, 164340, Note_on_c, 13, 73, 0
18, 164340, Note_on_c, 13, 64, 0
18, 164340, Note_on_c, 13, 62, 90
18, 164340, Note_on_c, 13, 71, 90
18, 164400, Note_on_c, 13, 71, 0
18, 164400, Note_on_c, 13, 62, 0
18, 164460, Note_on_c, 13, 69, 90
18, 164460, Note_on_c, 13, 62, 90
18, 164520, Note_on_c, 13, 62, 0
18, 164520, Note_on_c, 13, 69, 0
18, 164580, Note_on_c, 13, 64, 90
18, 164580, Note_on_c, 13, 68, 90
18, 164640, Note_on_c, 13, 68, 0
18, 164640, Note_on_c, 13, 64, 0
18, 164640, Note_on_c, 13, 64, 90
18, 164700, Note_on_c, 13, 64, 0
18, 164700, Note_on_c, 13, 64, 90
18, 164760, Note_on_c, 13, 64, 0
18, 164760, Note_on_c, 13, 64, 90
18, 164760, Note_on_c, 13, 68, 90
18, 164820, Note_on_c, 13, 68, 0
18, 164820, Note_on_c, 13, 64, 0
18, 164820, Note_on_c, 13, 64, 90
18, 164820, Note_on_c, 13, 68, 90
18, 164880, Note_on_c, 13, 68, 0
18, 164880, Note_on_c, 13, 64, 0
18, 164880, Note_on_c, 13, 68, 90
18, 164940, Note_on_c, 13, 68, 0
18, 164940, Note_on_c, 13, 66, 90
18, 165000, Note_on_c, 13, 66, 0
18, 165000, Note_on_c, 13, 64, 90
18, 165060, Note_on_c, 13, 64, 0
18, 165060, Note_on_c, 13, 68, 90
18, 165120, Note_on_c, 13, 68, 0
18, 165120, Note_on_c, 13, 66, 90
18, 165180, Note_on_c, 13, 66, 0
18, 165180, Note_on_c, 13, 64, 90
18, 165240, Note_on_c, 13, 64, 0
18, 165240, Note_on_c, 13, 62, 90
18, 165240, Note_on_c, 13, 68, 90
18, 165300, Note_on_c, 13, 68, 0
18, 165300, Note_on_c, 13, 62, 0
18, 165300, Note_on_c, 13, 64, 90
18, 165300, Note_on_c, 13, 69, 90
18, 165360, Note_on_c, 13, 69, 0
18, 165360, Note_on_c, 13, 64, 0
18, 165420, Note_on_c, 13, 76, 90
18, 165420, Note_on_c, 13, 73, 90
18, 165420, Note_on_c, 13, 67, 90
18, 165480, Note_on_c, 13, 67, 0
18, 165480, Note_on_c, 13, 73, 0
18, 165480, Note_on_c, 13, 76, 0
18, 165540, Note_on_c, 13, 62, 90
18, 165540, Note_on_c, 13, 69, 90
18, 165600, Note_on_c, 13, 69, 0
18, 165600, Note_on_c, 13, 62, 0
18, 165660, Note_on_c, 13, 66, 90
18, 165660, Note_on_c, 13, 69, 90
18, 165660, Note_on_c, 13, 74, 90
18, 165720, Note_on_c, 13, 74, 0
18, 165720, Note_on_c, 13, 69, 0
18, 165720, Note_on_c, 13, 66, 0
18, 165780, Note_on_c, 13, 64, 90
18, 165780, Note_on_c, 13, 69, 90
18, 165780, Note_on_c, 13, 67, 90
18, 165840, Note_on_c, 13, 67, 0
18, 165840, Note_on_c, 13, 69, 0
18, 165840, Note_on_c, 13, 64, 0
18, 165900, Note_on_c, 13, 76, 90
18, 165900, Note_on_c, 13, 73, 90
18, 165900, Note_on_c, 13, 67, 90
18, 165960, Note_on_c, 13, 67, 0
18, 165960, Note_on_c, 13, 73, 0
18, 165960, Note_on_c, 13, 76, 0
18, 166020, Note_on_c, 13, 69, 90
18, 166020, Note_on_c, 13, 74, 90
18, 166080, Note_on_c, 13, 74, 0
18, 166080, Note_on_c, 13, 69, 0
18, 166140, Note_on_c, 13, 74, 90
18, 166140, Note_on_c, 13, 66, 90
18, 166200, Note_on_c, 13, 66, 0
18, 166200, Note_on_c, 13, 74, 0
18, 166260, Note_on_c, 13, 62, 90
18, 166260, Note_on_c, 13, 66, 90
18, 166320, Note_on_c, 13, 66, 0
18, 166320, Note_on_c, 13, 62, 0
18, 166320, Note_on_c, 13, 62, 90
18, 166320, Note_on_c, 13, 66, 90
18, 166380, Note_on_c, 13, 66, 0
18, 166380, Note_on_c, 13, 62, 0
18, 166380, Note_on_c, 13, 62, 90
18, 166380, Note_on_c, 13, 67, 90
18, 166440, Note_on_c, 13, 67, 0
18, 166440, Note_on_c, 13, 62, 0
18, 166440, Note_on_c, 13, 61, 90
18, 166440, Note_on_c, 13, 69, 90
18, 166500, Note_on_c, 13, 69, 0
18, 166500, Note_on_c, 13, 61, 0
18, 166500, Note_on_c, 13, 62, 90
18, 166500, Note_on_c, 13, 65, 90
18, 166560, Note_on_c, 13, 65, 0
18, 166560, Note_on_c, 13, 62, 0
18, 166620, Note_on_c, 13, 68, 90
18, 166620, Note_on_c, 13, 65, 90
18, 166680, Note_on_c, 13, 65, 0
18, 166680, Note_on_c, 13, 68, 0
18, 166740, Note_on_c, 13, 71, 90
18, 166740, Note_on_c, 13, 62, 90
18, 166740, Note_on_c, 13, 68, 90
18, 166800, Note_on_c, 13, 68, 0
18, 166800, Note_on_c, 13, 62, 0
18, 166800, Note_on_c, 13, 71, 0
18, 166860, Note_on_c, 13, 64, 90
18, 166860, Note_on_c, 13, 73, 90
18, 166860, Note_on_c, 13, 69, 90
18, 166920, Note_on_c, 13, 69, 0
18, 166920, Note_on_c, 13, 73, 0
18, 166920, Note_on_c, 13, 64, 0
18, 167040, Note_on_c, 13, 74, 90
18, 167100, Note_on_c, 13, 74, 0
18, 167100, Note_on_c, 13, 73, 90
18, 167160, Note_on_c, 13, 73, 0
18, 167160, Note_on_c, 13, 71, 90
18, 167220, Note_on_c, 13, 71, 0
18, 167220, Note_on_c, 13, 66, 90
18, 167220, Note_on_c, 13, 69, 90
18, 167280, Note_on_c, 13, 69, 0
18, 167280, Note_on_c, 13, 66, 0
18, 167280, Note_on_c, 13, 66, 90
18, 167339, Note_on_c, 13, 66, 0
18, 167340, Note_on_c, 13, 64, 90
18, 167399, Note_on_c, 13, 64, 0
18, 167400, Note_on_c, 13, 62, 90
18, 167459, Note_on_c, 13, 62, 0
18, 167460, Note_on_c, 13, 69, 90
18, 167460, Note_on_c, 13, 61, 90
18, 167519, Note_on_c, 13, 61, 0
18, 167519, Note_on_c, 13, 69, 0
18, 167520, Note_on_c, 13, 64, 90
18, 167520, Note_on_c, 13, 61, 90
18, 167579, Note_on_c, 13, 61, 0
18, 167579, Note_on_c, 13, 64, 0
18, 167580, Note_on_c, 13, 61, 90
18, 167580, Note_on_c, 13, 64, 90
18, 167639, Note_on_c, 13, 64, 0
18, 167639, Note_on_c, 13, 61, 0
18, 167640, Note_on_c, 13, 61, 90
18, 167640, Note_on_c, 13, 69, 90
18, 167699, Note_on_c, 13, 69, 0
18, 167699, Note_on_c, 13, 61, 0
18, 167700, Note_on_c, 13, 67, 90
18, 167700, Note_on_c, 13, 61, 90
18, 167759, Note_on_c, 13, 61, 0
18, 167759, Note_on_c, 13, 67, 0
18, 167760, Note_on_c, 13, 61, 90
18, 167760, Note_on_c, 13, 64, 90
18, 167819, Note_on_c, 13, 64, 0
18, 167819, Note_on_c, 13, 61, 0
18, 167820, Note_on_c, 13, 67, 90
18, 167820, Note_on_c, 13, 61, 90
18, 167879, Note_on_c, 13, 61, 0
18, 167879, Note_on_c, 13, 67, 0
18, 167880, Note_on_c, 13, 64, 90
18, 167939, Note_on_c, 13, 64, 0
18, 167940, Note_on_c, 13, 66, 90
18, 167940, Note_on_c, 13, 62, 90
18, 167999, Note_on_c, 13, 62, 0
18, 167999, Note_on_c, 13, 66, 0
18, 168000, Note_on_c, 13, 66, 90
18, 168000, Note_on_c, 13, 69, 90
18, 168059, Note_on_c, 13, 69, 0
18, 168059, Note_on_c, 13, 66, 0
18, 168060, Note_on_c, 13, 67, 90
18, 168060, Note_on_c, 13, 62, 90
18, 168119, Note_on_c, 13, 62, 0
18, 168119, Note_on_c, 13, 67, 0
18, 168120, Note_on_c, 13, 64, 90
18, 168120, Note_on_c, 13, 67, 90
18, 168179, Note_on_c, 13, 67, 0
18, 168179, Note_on_c, 13, 64, 0
18, 168180, Note_on_c, 13, 62, 90
18, 168180, Note_on_c, 13, 66, 90
18, 168239, Note_on_c, 13, 66, 0
18, 168239, Note_on_c, 13, 62, 0
18, 168300, Note_on_c, 13, 66, 90
18, 168300, Note_on_c, 13, 69, 90
18, 168359, Note_on_c, 13, 69, 0
18, 168359, Note_on_c, 13, 66, 0
18, 168420, Note_on_c, 13, 66, 90
18, 168420, Note_on_c, 13, 62, 90
18, 168479, Note_on_c, 13, 62, 0
18, 168479, Note_on_c, 13, 66, 0
18, 168540, Note_on_c, 13, 72, 90
18, 168540, Note_on_c, 13, 62, 90
18, 168599, Note_on_c, 13, 62, 0
18, 168599, Note_on_c, 13, 72, 0
18, 168660, Note_on_c, 13, 66, 90
18, 168660, Note_on_c, 13, 62, 90
18, 168660, Note_on_c, 13, 72, 90
18, 168719, Note_on_c, 13, 72, 0
18, 168719, Note_on_c, 13, 62, 0
18, 168719, Note_on_c, 13, 66, 0
18, 168780, Note_on_c, 13, 66, 90
18, 168780, Note_on_c, 13, 72, 90
18, 168839, Note_on_c, 13, 72, 0
18, 168839, Note_on_c, 13, 66, 0
18, 168900, Note_on_c, 13, 64, 90
18, 168900, Note_on_c, 13, 71, 90
18, 168959, Note_on_c, 13, 71, 0
18, 168959, Note_on_c, 13, 64, 0
18, 168960, Note_on_c, 13, 71, 90
18, 168960, Note_on_c, 13, 67, 90
18, 169019, Note_on_c, 13, 67, 0
18, 169019, Note_on_c, 13, 71, 0
18, 169020, Note_on_c, 13, 67, 90
18, 169020, Note_on_c, 13, 64, 90
18, 169079, Note_on_c, 13, 64, 0
18, 169079, Note_on_c, 13, 67, 0
18, 169080, Note_on_c, 13, 66, 90
18, 169080, Note_on_c, 13, 69, 90
18, 169139, Note_on_c, 13, 69, 0
18, 169139, Note_on_c, 13, 66, 0
18, 169140, Note_on_c, 13, 71, 90
18, 169140, Note_on_c, 13, 67, 90
18, 169199, Note_on_c, 13, 67, 0
18, 169199, Note_on_c, 13, 71, 0
18, 169320, Note_on_c, 13, 67, 90
18, 169320, Note_on_c, 13, 71, 90
18, 169379, Note_on_c, 13, 71, 0
18, 169379, Note_on_c, 13, 67, 0
18, 169380, Note_on_c, 13, 67, 90
18, 169380, Note_on_c, 13, 72, 90
18, 169439, Note_on_c, 13, 72, 0
18, 169439, Note_on_c, 13, 67, 0
18, 169560, Note_on_c, 13, 66, 90
18, 169560, Note_on_c, 13, 71, 90
18, 169619, Note_on_c, 13, 71, 0
18, 169619, Note_on_c, 13, 66, 0
18, 169620, Note_on_c, 13, 71, 90
18, 169620, Note_on_c, 13, 66, 90
18, 169679, Note_on_c, 13, 66, 0
18, 169679, Note_on_c, 13, 71, 0
18, 169800, Note_on_c, 13, 67, 90
18, 169800, Note_on_c, 13, 73, 90
18, 169859, Note_on_c, 13, 73, 0
18, 169859, Note_on_c, 13, 67, 0
18, 169860, Note_on_c, 13, 66, 90
18, 169860, Note_on_c, 13, 74, 90
18, 169919, Note_on_c, 13, 74, 0
18, 169919, Note_on_c, 13, 66, 0
18, 169980, Note_on_c, 13, 74, 90
18, 169980, Note_on_c, 13, 64, 90
18, 170039, Note_on_c, 13, 64, 0
18, 170039, Note_on_c, 13, 74, 0
18, 170100, Note_on_c, 13, 64, 90
18, 170100, Note_on_c, 13, 73, 90
18, 170159, Note_on_c, 13, 73, 0
18, 170159, Note_on_c, 13, 64, 0
18, 170220, Note_on_c, 13, 69, 90
18, 170220, Note_on_c, 13, 62, 90
18, 170279, Note_on_c, 13, 62, 0
18, 170279, Note_on_c, 13, 69, 0
18, 170340, Note_on_c, 13, 62, 90
18, 170340, Note_on_c, 13, 66, 90
18, 170399, Note_on_c, 13, 66, 0
18, 170399, Note_on_c, 13, 62, 0
18, 170460, Note_on_c, 13, 73, 90
18, 170460, Note_on_c, 13, 67, 90
18, 170460, Note_on_c, 13, 64, 90
18, 170519, Note_on_c, 13, 64, 0
18, 170519, Note_on_c, 13, 67, 0
18, 170519, Note_on_c, 13, 73, 0
18, 170580, Note_on_c, 13, 62, 90
18, 170580, Note_on_c, 13, 66, 90
18, 170820, Note_on_c, 13, 66, 0
18, 170820, Note_on_c, 13, 62, 0
18, 170820, Note_on_c, 13, 74, 90
18, 170820, Note_on_c, 13, 71, 90
18, 170820, Note_on_c, 13, 66, 90
18, 170879, Note_on_c, 13, 66, 0
18, 170879, Note_on_c, 13, 71, 0
18, 170879, Note_on_c, 13, 74, 0
18, 170940, Note_on_c, 13, 66, 90
18, 170940, Note_on_c, 13, 73, 90
18, 170940, Note_on_c, 13, 70, 90
18, 170999, Note_on_c, 13, 70, 0
18, 170999, Note_on_c, 13, 73, 0
18, 170999, Note_on_c, 13, 66, 0
18, 171060, Note_on_c, 13, 71, 90
18, 171060, Note_on_c, 13, 66, 90
18, 171060, Note_on_c, 13, 62, 90
18, 171119, Note_on_c, 13, 62, 0
18, 171119, Note_on_c, 13, 66, 0
18, 171119, Note_on_c, 13, 71, 0
18, 171180, Note_on_c, 13, 75, 90
18, 171180, Note_on_c, 13, 71, 90
18, 171180, Note_on_c, 13, 66, 90
18, 171239, Note_on_c, 13, 66, 0
18, 171239, Note_on_c, 13, 71, 0
18, 171239, Note_on_c, 13, 75, 0
18, 171360, Note_on_c, 13, 76, 90
18, 171360, Note_on_c, 13, 72, 90
18, 171360, Note_on_c, 13, 67, 90
18, 171419, Note_on_c, 13, 67, 0
18, 171419, Note_on_c, 13, 72, 0
18, 171419, Note_on_c, 13, 76, 0
18, 171420, Note_on_c, 13, 76, 90
18, 171420, Note_on_c, 13, 72, 90
18, 171420, Note_on_c, 13, 66, 90
18, 171479, Note_on_c, 13, 66, 0
18, 171479, Note_on_c, 13, 72, 0
18, 171479, Note_on_c, 13, 76, 0
18, 171480, Note_on_c, 13, 75, 90
18, 171480, Note_on_c, 13, 71, 90
18, 171480, Note_on_c, 13, 66, 90
18, 171539, Note_on_c, 13, 66, 0
18, 171539, Note_on_c, 13, 71, 0
18, 171539, Note_on_c, 13, 75, 0
18, 171540, Note_on_c, 13, 76, 90
18, 171540, Note_on_c, 13, 71, 90
18, 171540, Note_on_c, 13, 64, 90
18, 171599, Note_on_c, 13, 64, 0
18, 171599, Note_on_c, 13, 71, 0
18, 171599, Note_on_c, 13, 76, 0
18, 171600, Note_on_c, 13, 79, 90
18, 171629, Note_on_c, 13, 79, 0
18, 171630, Note_on_c, 13, 78, 90
18, 171659, Note_on_c, 13, 78, 0
18, 171660, Note_on_c, 13, 76, 90
18, 171689, Note_on_c, 13, 76, 0
18, 171690, Note_on_c, 13, 74, 90
18, 171719, Note_on_c, 13, 74, 0
18, 171720, Note_on_c, 13, 73, 90
18, 171749, Note_on_c, 13, 73, 0
18, 171750, Note_on_c, 13, 71, 90
18, 171779, Note_on_c, 13, 71, 0
18, 171780, Note_on_c, 13, 73, 90
18, 171780, Note_on_c, 13, 69, 90
18, 171780, Note_on_c, 13, 64, 90
18, 171839, Note_on_c, 13, 64, 0
18, 171839, Note_on_c, 13, 69, 0
18, 171839, Note_on_c, 13, 73, 0
18, 171900, Note_on_c, 13, 64, 90
18, 171900, Note_on_c, 13, 71, 90
18, 171900, Note_on_c, 13, 68, 90
18, 171959, Note_on_c, 13, 68, 0
18, 171959, Note_on_c, 13, 71, 0
18, 171959, Note_on_c, 13, 64, 0
18, 172020, Note_on_c, 13, 69, 90
18, 172020, Note_on_c, 13, 64, 90
18, 172020, Note_on_c, 13, 61, 90
18, 172079, Note_on_c, 13, 61, 0
18, 172079, Note_on_c, 13, 64, 0
18, 172079, Note_on_c, 13, 69, 0
18, 172140, Note_on_c, 13, 73, 90
18, 172140, Note_on_c, 13, 69, 90
18, 172140, Note_on_c, 13, 64, 90
18, 172199, Note_on_c, 13, 64, 0
18, 172199, Note_on_c, 13, 69, 0
18, 172199, Note_on_c, 13, 73, 0
18, 172320, Note_on_c, 13, 74, 90
18, 172320, Note_on_c, 13, 71, 90
18, 172320, Note_on_c, 13, 66, 90
18, 172379, Note_on_c, 13, 66, 0
18, 172379, Note_on_c, 13, 71, 0
18, 172379, Note_on_c, 13, 74, 0
18, 172380, Note_on_c, 13, 74, 90
18, 172380, Note_on_c, 13, 71, 90
18, 172380, Note_on_c, 13, 64, 90
18, 172439, Note_on_c, 13, 64, 0
18, 172439, Note_on_c, 13, 71, 0
18, 172439, Note_on_c, 13, 74, 0
18, 172440, Note_on_c, 13, 73, 90
18, 172440, Note_on_c, 13, 69, 90
18, 172440, Note_on_c, 13, 64, 90
18, 172499, Note_on_c, 13, 64, 0
18, 172499, Note_on_c, 13, 69, 0
18, 172499, Note_on_c, 13, 73, 0
18, 172500, Note_on_c, 13, 74, 90
18, 172500, Note_on_c, 13, 69, 90
18, 172500, Note_on_c, 13, 62, 90
18, 172529, Note_on_c, 13, 74, 0
18, 172530, Note_on_c, 13, 78, 90
18, 172559, Note_on_c, 13, 78, 0
18, 172559, Note_on_c, 13, 62, 0
18, 172559, Note_on_c, 13, 69, 0
18, 172560, Note_on_c, 13, 76, 90
18, 172589, Note_on_c, 13, 76, 0
18, 172590, Note_on_c, 13, 74, 90
18, 172619, Note_on_c, 13, 74, 0
18, 172620, Note_on_c, 13, 73, 90
18, 172649, Note_on_c, 13, 73, 0
18, 172650, Note_on_c, 13, 71, 90
18, 172679, Note_on_c, 13, 71, 0
18, 172680, Note_on_c, 13, 70, 90
18, 172709, Note_on_c, 13, 70, 0
18, 172710, Note_on_c, 13, 71, 90
18, 172739, Note_on_c, 13, 71, 0
18, 172740, Note_on_c, 13, 66, 90
18, 172740, Note_on_c, 13, 70, 90
18, 172800, Note_on_c, 13, 70, 0
18, 172800, Note_on_c, 13, 66, 0
18, 172860, Note_on_c, 13, 73, 90
18, 172860, Note_on_c, 13, 70, 90
18, 172920, Note_on_c, 13, 70, 0
18, 172920, Note_on_c, 13, 73, 0
18, 172980, Note_on_c, 13, 66, 90
18, 172980, Note_on_c, 13, 71, 90
18, 173040, Note_on_c, 13, 71, 0
18, 173040, Note_on_c, 13, 66, 0
18, 173100, Note_on_c, 13, 62, 90
18, 173100, Note_on_c, 13, 66, 90
18, 173160, Note_on_c, 13, 66, 0
18, 173160, Note_on_c, 13, 62, 0
18, 173220, Note_on_c, 13, 66, 90
18, 173220, Note_on_c, 13, 64, 90
18, 173280, Note_on_c, 13, 64, 0
18, 173280, Note_on_c, 13, 66, 0
18, 173340, Note_on_c, 13, 66, 90
18, 173340, Note_on_c, 13, 73, 90
18, 173400, Note_on_c, 13, 73, 0
18, 173400, Note_on_c, 13, 66, 0
18, 173460, Note_on_c, 13, 62, 90
18, 173460, Note_on_c, 13, 71, 90
18, 173520, Note_on_c, 13, 71, 0
18, 173520, Note_on_c, 13, 62, 0
18, 173580, Note_on_c, 13, 62, 90
18, 173580, Note_on_c, 13, 66, 90
18, 173640, Note_on_c, 13, 66, 0
18, 173640, Note_on_c, 13, 62, 0
18, 173700, Note_on_c, 13, 71, 90
18, 173700, Note_on_c, 13, 68, 90
18, 173700, Note_on_c, 13, 66, 90
18, 173760, Note_on_c, 13, 66, 0
18, 173760, Note_on_c, 13, 68, 0
18, 173760, Note_on_c, 13, 71, 0
18, 173820, Note_on_c, 13, 71, 90
18, 173820, Note_on_c, 13, 74, 90
18, 173820, Note_on_c, 13, 66, 90
18, 173880, Note_on_c, 13, 66, 0
18, 173880, Note_on_c, 13, 74, 0
18, 173880, Note_on_c, 13, 71, 0
18, 173940, Note_on_c, 13, 71, 90
18, 173940, Note_on_c, 13, 65, 90
18, 174000, Note_on_c, 13, 65, 0
18, 174000, Note_on_c, 13, 71, 0
18, 174000, Note_on_c, 13, 68, 90
18, 174000, Note_on_c, 13, 65, 90
18, 174060, Note_on_c, 13, 65, 0
18, 174060, Note_on_c, 13, 68, 0
18, 174060, Note_on_c, 13, 66, 90
18, 174120, Note_on_c, 13, 66, 0
18, 174120, Note_on_c, 13, 68, 90
18, 174120, Note_on_c, 13, 66, 90
18, 174180, Note_on_c, 13, 66, 0
18, 174180, Note_on_c, 13, 68, 0
18, 174180, Note_on_c, 13, 69, 90
18, 174180, Note_on_c, 13, 66, 90
18, 174240, Note_on_c, 13, 66, 0
18, 174240, Note_on_c, 13, 69, 0
18, 174240, Note_on_c, 13, 62, 90
18, 174240, Note_on_c, 13, 66, 90
18, 174300, Note_on_c, 13, 66, 0
18, 174300, Note_on_c, 13, 62, 0
18, 174300, Note_on_c, 13, 65, 90
18, 174300, Note_on_c, 13, 68, 90
18, 174360, Note_on_c, 13, 68, 0
18, 174360, Note_on_c, 13, 65, 0
18, 174360, Note_on_c, 13, 65, 90
18, 174360, Note_on_c, 13, 68, 90
18, 174420, Note_on_c, 13, 68, 0
18, 174420, Note_on_c, 13, 65, 0
18, 174420, Note_on_c, 13, 69, 90
18, 174420, Note_on_c, 13, 66, 90
18, 174480, Note_on_c, 13, 66, 0
18, 174480, Note_on_c, 13, 69, 0
18, 174600, Note_on_c, 13, 73, 90
18, 174600, Note_on_c, 13, 69, 90
18, 174600, Note_on_c, 13, 66, 90
18, 174659, Note_on_c, 13, 66, 0
18, 174659, Note_on_c, 13, 69, 0
18, 174659, Note_on_c, 13, 73, 0
18, 174660, Note_on_c, 13, 74, 90
18, 174660, Note_on_c, 13, 71, 90
18, 174660, Note_on_c, 13, 62, 90
18, 174719, Note_on_c, 13, 62, 0
18, 174719, Note_on_c, 13, 71, 0
18, 174719, Note_on_c, 13, 74, 0
18, 174780, Note_on_c, 13, 66, 90
18, 174780, Note_on_c, 13, 62, 90
18, 174780, Note_on_c, 13, 71, 90
18, 174839, Note_on_c, 13, 71, 0
18, 174840, Note_on_c, 13, 62, 0
18, 174840, Note_on_c, 13, 66, 0
18, 174900, Note_on_c, 13, 73, 90
18, 174900, Note_on_c, 13, 66, 90
18, 174900, Note_on_c, 13, 61, 90
18, 174959, Note_on_c, 13, 61, 0
18, 174959, Note_on_c, 13, 66, 0
18, 174959, Note_on_c, 13, 73, 0
18, 175020, Note_on_c, 13, 69, 90
18, 175020, Note_on_c, 13, 66, 90
18, 175020, Note_on_c, 13, 61, 90
18, 175079, Note_on_c, 13, 61, 0
18, 175079, Note_on_c, 13, 66, 0
18, 175079, Note_on_c, 13, 69, 0
18, 175140, Note_on_c, 13, 71, 90
18, 175140, Note_on_c, 13, 66, 90
18, 175199, Note_on_c, 13, 66, 0
18, 175199, Note_on_c, 13, 71, 0
18, 175260, Note_on_c, 13, 74, 90
18, 175260, Note_on_c, 13, 71, 90
18, 175260, Note_on_c, 13, 66, 90
18, 175319, Note_on_c, 13, 66, 0
18, 175319, Note_on_c, 13, 71, 0
18, 175319, Note_on_c, 13, 74, 0
18, 175380, Note_on_c, 13, 69, 90
18, 175380, Note_on_c, 13, 73, 90
18, 175439, Note_on_c, 13, 73, 0
18, 175440, Note_on_c, 13, 69, 0
18, 175500, Note_on_c, 13, 78, 90
18, 175500, Note_on_c, 13, 73, 90
18, 175500, Note_on_c, 13, 69, 90
18, 175559, Note_on_c, 13, 69, 0
18, 175559, Note_on_c, 13, 73, 0
18, 175559, Note_on_c, 13, 78, 0
18, 175620, Note_on_c, 13, 74, 90
18, 175620, Note_on_c, 13, 71, 90
18, 175620, Note_on_c, 13, 66, 90
18, 175679, Note_on_c, 13, 66, 0
18, 175679, Note_on_c, 13, 71, 0
18, 175679, Note_on_c, 13, 74, 0
18, 175740, Note_on_c, 13, 77, 90
18, 175740, Note_on_c, 13, 68, 90
18, 175740, Note_on_c, 13, 73, 90
18, 175799, Note_on_c, 13, 73, 0
18, 175799, Note_on_c, 13, 68, 0
18, 175799, Note_on_c, 13, 77, 0
18, 175860, Note_on_c, 13, 78, 90
18, 175860, Note_on_c, 13, 74, 90
18, 175860, Note_on_c, 13, 71, 90
18, 175919, Note_on_c, 13, 71, 0
18, 175919, Note_on_c, 13, 74, 0
18, 175919, Note_on_c, 13, 78, 0
18, 175980, Note_on_c, 13, 80, 90
18, 175980, Note_on_c, 13, 73, 90
18, 175980, Note_on_c, 13, 68, 90
18, 176039, Note_on_c, 13, 68, 0
18, 176039, Note_on_c, 13, 73, 0
18, 176039, Note_on_c, 13, 80, 0
18, 176100, Note_on_c, 13, 73, 90
18, 176159, Note_on_c, 13, 73, 0
18, 176160, Note_on_c, 13, 78, 90
18, 176160, Note_on_c, 13, 73, 90
18, 176160, Note_on_c, 13, 66, 90
18, 176219, Note_on_c, 13, 66, 0
18, 176219, Note_on_c, 13, 73, 0
18, 176219, Note_on_c, 13, 78, 0
18, 176220, Note_on_c, 13, 73, 90
18, 176220, Note_on_c, 13, 61, 90
18, 176279, Note_on_c, 13, 61, 0
18, 176279, Note_on_c, 13, 73, 0
18, 176280, Note_on_c, 13, 77, 90
18, 176280, Note_on_c, 13, 73, 90
18, 176280, Note_on_c, 13, 71, 90
18, 176339, Note_on_c, 13, 71, 0
18, 176339, Note_on_c, 13, 73, 0
18, 176339, Note_on_c, 13, 77, 0
18, 176340, Note_on_c, 13, 78, 90
18, 176340, Note_on_c, 13, 73, 90
18, 176340, Note_on_c, 13, 69, 90
18, 176399, Note_on_c, 13, 78, 0
18, 176400, Note_on_c, 13, 76, 90
18, 176429, Note_on_c, 13, 76, 0
18, 176430, Note_on_c, 13, 74, 90
18, 176459, Note_on_c, 13, 74, 0
18, 176459, Note_on_c, 13, 69, 0
18, 176459, Note_on_c, 13, 73, 0
18, 176460, Note_on_c, 13, 73, 90
18, 176489, Note_on_c, 13, 73, 0
18, 176490, Note_on_c, 13, 71, 90
18, 176519, Note_on_c, 13, 71, 0
18, 176520, Note_on_c, 13, 69, 90
18, 176549, Note_on_c, 13, 69, 0
18, 176550, Note_on_c, 13, 68, 90
18, 176579, Note_on_c, 13, 68, 0
18, 176580, Note_on_c, 13, 66, 90
18, 176580, Note_on_c, 13, 70, 90
18, 176639, Note_on_c, 13, 70, 0
18, 176639, Note_on_c, 13, 66, 0
18, 176700, Note_on_c, 13, 70, 90
18, 176700, Note_on_c, 13, 66, 90
18, 176759, Note_on_c, 13, 66, 0
18, 176759, Note_on_c, 13, 70, 0
18, 176760, Note_on_c, 13, 70, 90
18, 176789, Note_on_c, 13, 70, 0
18, 176790, Note_on_c, 13, 71, 90
18, 176819, Note_on_c, 13, 71, 0
18, 176820, Note_on_c, 13, 61, 90
18, 176820, Note_on_c, 13, 64, 90
18, 176820, Note_on_c, 13, 70, 90
18, 176879, Note_on_c, 13, 70, 0
18, 176879, Note_on_c, 13, 64, 0
18, 176879, Note_on_c, 13, 61, 0
18, 176940, Note_on_c, 13, 70, 90
18, 176940, Note_on_c, 13, 61, 90
18, 176940, Note_on_c, 13, 64, 90
18, 176999, Note_on_c, 13, 64, 0
18, 176999, Note_on_c, 13, 61, 0
18, 176999, Note_on_c, 13, 70, 0
18, 177000, Note_on_c, 13, 71, 90
18, 177029, Note_on_c, 13, 71, 0
18, 177030, Note_on_c, 13, 73, 90
18, 177059, Note_on_c, 13, 73, 0
18, 177060, Note_on_c, 13, 66, 90
18, 177060, Note_on_c, 13, 71, 90
18, 177119, Note_on_c, 13, 71, 0
18, 177119, Note_on_c, 13, 66, 0
18, 177120, Note_on_c, 13, 66, 90
18, 177120, Note_on_c, 13, 71, 90
18, 177149, Note_on_c, 13, 66, 0
18, 177150, Note_on_c, 13, 71, 0
18, 177180, Note_on_c, 13, 67, 90
18, 177180, Note_on_c, 13, 71, 90
18, 177180, Note_on_c, 13, 64, 90
18, 177209, Note_on_c, 13, 71, 0
18, 177210, Note_on_c, 13, 64, 0
18, 177210, Note_on_c, 13, 67, 0
18, 177240, Note_on_c, 13, 66, 90
18, 177240, Note_on_c, 13, 70, 90
18, 177240, Note_on_c, 13, 61, 90
18, 177269, Note_on_c, 13, 70, 0
18, 177270, Note_on_c, 13, 61, 0
18, 177270, Note_on_c, 13, 66, 0
18, 177300, Note_on_c, 13, 66, 90
18, 177300, Note_on_c, 13, 71, 90
18, 177300, Note_on_c, 13, 59, 90
18, 177329, Note_on_c, 13, 71, 0
18, 177330, Note_on_c, 13, 59, 0
18, 177330, Note_on_c, 13, 66, 0
18, 177420, Note_on_c, 13, 71, 90
18, 177449, Note_on_c, 13, 71, 0
18, 177450, Note_on_c, 13, 69, 90
18, 177479, Note_on_c, 13, 69, 0
18, 177480, Note_on_c, 13, 68, 90
18, 177509, Note_on_c, 13, 68, 0
18, 177510, Note_on_c, 13, 66, 90
18, 177539, Note_on_c, 13, 66, 0
18, 177540, Note_on_c, 13, 68, 90
18, 177540, Note_on_c, 13, 64, 90
18, 177599, Note_on_c, 13, 64, 0
18, 177599, Note_on_c, 13, 68, 0
18, 177660, Note_on_c, 13, 64, 90
18, 177660, Note_on_c, 13, 68, 90
18, 177719, Note_on_c, 13, 68, 0
18, 177719, Note_on_c, 13, 64, 0
18, 177720, Note_on_c, 13, 68, 90
18, 177749, Note_on_c, 13, 68, 0
18, 177750, Note_on_c, 13, 69, 90
18, 177779, Note_on_c, 13, 69, 0
18, 177780, Note_on_c, 13, 64, 90
18, 177780, Note_on_c, 13, 68, 90
18, 177839, Note_on_c, 13, 68, 0
18, 177839, Note_on_c, 13, 64, 0
18, 177900, Note_on_c, 13, 68, 90
18, 177900, Note_on_c, 13, 64, 90
18, 177959, Note_on_c, 13, 64, 0
18, 177959, Note_on_c, 13, 68, 0
18, 177960, Note_on_c, 13, 69, 90
18, 177989, Note_on_c, 13, 69, 0
18, 177990, Note_on_c, 13, 71, 90
18, 178019, Note_on_c, 13, 71, 0
18, 178020, Note_on_c, 13, 64, 90
18, 178020, Note_on_c, 13, 69, 90
18, 178079, Note_on_c, 13, 69, 0
18, 178079, Note_on_c, 13, 64, 0
18, 178080, Note_on_c, 13, 64, 90
18, 178080, Note_on_c, 13, 69, 90
18, 178110, Note_on_c, 13, 69, 0
18, 178110, Note_on_c, 13, 64, 0
18, 178140, Note_on_c, 13, 66, 90
18, 178140, Note_on_c, 13, 69, 90
18, 178140, Note_on_c, 13, 62, 90
18, 178169, Note_on_c, 13, 69, 0
18, 178170, Note_on_c, 13, 62, 0
18, 178170, Note_on_c, 13, 66, 0
18, 178200, Note_on_c, 13, 64, 90
18, 178200, Note_on_c, 13, 68, 90
18, 178200, Note_on_c, 13, 71, 90
18, 178229, Note_on_c, 13, 68, 0
18, 178230, Note_on_c, 13, 71, 0
18, 178230, Note_on_c, 13, 64, 0
18, 178260, Note_on_c, 13, 64, 90
18, 178260, Note_on_c, 13, 69, 90
18, 178290, Note_on_c, 13, 69, 0
18, 178290, Note_on_c, 13, 64, 0
18, 178380, Note_on_c, 13, 69, 90
18, 178409, Note_on_c, 13, 69, 0
18, 178410, Note_on_c, 13, 67, 90
18, 178439, Note_on_c, 13, 67, 0
18, 178440, Note_on_c, 13, 69, 90
18, 178469, Note_on_c, 13, 69, 0
18, 178470, Note_on_c, 13, 66, 90
18, 178499, Note_on_c, 13, 66, 0
18, 178500, Note_on_c, 13, 64, 90
18, 178500, Note_on_c, 13, 71, 90
18, 178500, Note_on_c, 13, 74, 90
18, 178559, Note_on_c, 13, 74, 0
18, 178560, Note_on_c, 13, 71, 0
18, 178560, Note_on_c, 13, 64, 0
18, 178740, Note_on_c, 13, 68, 90
18, 178740, Note_on_c, 13, 74, 90
18, 178740, Note_on_c, 13, 64, 90
18, 178799, Note_on_c, 13, 74, 0
18, 178800, Note_on_c, 13, 64, 0
18, 178800, Note_on_c, 13, 68, 0
18, 178980, Note_on_c, 13, 73, 90
18, 178980, Note_on_c, 13, 69, 90
18, 178980, Note_on_c, 13, 64, 90
18, 179039, Note_on_c, 13, 73, 0
18, 179040, Note_on_c, 13, 64, 0
18, 179040, Note_on_c, 13, 69, 0
18, 179220, Note_on_c, 13, 71, 90
18, 179220, Note_on_c, 13, 64, 90
18, 179220, Note_on_c, 13, 68, 90
18, 179279, Note_on_c, 13, 71, 0
18, 179280, Note_on_c, 13, 68, 0
18, 179280, Note_on_c, 13, 64, 0
18, 179460, Note_on_c, 13, 69, 90
18, 179460, Note_on_c, 13, 74, 90
18, 179519, Note_on_c, 13, 74, 0
18, 179519, Note_on_c, 13, 69, 0
18, 179520, Note_on_c, 13, 73, 90
18, 179579, Note_on_c, 13, 73, 0
18, 179580, Note_on_c, 13, 64, 90
18, 179580, Note_on_c, 13, 67, 90
18, 179639, Note_on_c, 13, 67, 0
18, 179639, Note_on_c, 13, 64, 0
18, 179640, Note_on_c, 13, 66, 90
18, 179699, Note_on_c, 13, 66, 0
18, 179700, Note_on_c, 13, 66, 90
18, 179700, Note_on_c, 13, 72, 90
18, 179759, Note_on_c, 13, 72, 0
18, 179759, Note_on_c, 13, 66, 0
18, 179760, Note_on_c, 13, 71, 90
18, 179819, Note_on_c, 13, 71, 0
18, 179880, Note_on_c, 13, 73, 90
18, 179880, Note_on_c, 13, 69, 90
18, 179939, Note_on_c, 13, 69, 0
18, 179939, Note_on_c, 13, 73, 0
18, 179940, Note_on_c, 13, 73, 90
18, 179940, Note_on_c, 13, 69, 90
18, 179999, Note_on_c, 13, 69, 0
18, 179999, Note_on_c, 13, 73, 0
18, 180060, Note_on_c, 13, 64, 90
18, 180060, Note_on_c, 13, 71, 90
18, 180060, Note_on_c, 13, 68, 90
18, 180119, Note_on_c, 13, 68, 0
18, 180119, Note_on_c, 13, 71, 0
18, 180119, Note_on_c, 13, 64, 0
18, 180120, Note_on_c, 13, 62, 90
18, 180179, Note_on_c, 13, 62, 0
18, 180180, Note_on_c, 13, 69, 90
18, 180180, Note_on_c, 13, 64, 90
18, 180180, Note_on_c, 13, 61, 90
18, 180419, Note_on_c, 13, 61, 0
18, 180419, Note_on_c, 13, 64, 0
18, 180419, Note_on_c, 13, 69, 0
18, 180420, Note_on_c, 13, 66, 100
18, 180420, Note_on_c, 13, 74, 100
18, 180480, Note_on_c, 13, 74, 0
18, 180480, Note_on_c, 13, 66, 0
18, 180480, Note_on_c, 13, 66, 100
18, 180480, Note_on_c, 13, 69, 100
18, 180540, Note_on_c, 13, 69, 0
18, 180540, Note_on_c, 13, 66, 0
18, 180540, Note_on_c, 13, 66, 100
18, 180540, Note_on_c, 13, 69, 100
18, 180600, Note_on_c, 13, 69, 0
18, 180600, Note_on_c, 13, 66, 0
18, 180600, Note_on_c, 13, 66, 100
18, 180600, Note_on_c, 13, 74, 100
18, 180660, Note_on_c, 13, 74, 0
18, 180660, Note_on_c, 13, 66, 0
18, 180660, Note_on_c, 13, 66, 100
18, 180660, Note_on_c, 13, 74, 100
18, 180720, Note_on_c, 13, 74, 0
18, 180720, Note_on_c, 13, 66, 0
18, 180720, Note_on_c, 13, 66, 100
18, 180720, Note_on_c, 13, 69, 100
18, 180780, Note_on_c, 13, 69, 0
18, 180780, Note_on_c, 13, 66, 0
18, 180780, Note_on_c, 13, 66, 100
18, 180780, Note_on_c, 13, 69, 100
18, 180840, Note_on_c, 13, 69, 0
18, 180840, Note_on_c, 13, 66, 0
18, 180840, Note_on_c, 13, 66, 100
18, 180840, Note_on_c, 13, 69, 100
18, 180840, Note_on_c, 13, 74, 100
18, 180900, Note_on_c, 13, 74, 0
18, 180900, Note_on_c, 13, 69, 0
18, 180900, Note_on_c, 13, 66, 0
18, 180900, Note_on_c, 13, 74, 100
18, 180900, Note_on_c, 13, 66, 100
18, 180900, Note_on_c, 13, 69, 100
18, 180930, Note_on_c, 13, 74, 0
18, 180930, Note_on_c, 13, 76, 100
18, 180960, Note_on_c, 13, 76, 0
18, 180960, Note_on_c, 13, 69, 0
18, 180960, Note_on_c, 13, 66, 0
18, 180960, Note_on_c, 13, 78, 100
18, 181020, Note_on_c, 13, 78, 0
18, 181020, Note_on_c, 13, 69, 100
18, 181020, Note_on_c, 13, 66, 100
18, 181020, Note_on_c, 13, 76, 100
18, 181050, Note_on_c, 13, 76, 0
18, 181050, Note_on_c, 13, 74, 100
18, 181080, Note_on_c, 13, 74, 0
18, 181080, Note_on_c, 13, 66, 0
18, 181080, Note_on_c, 13, 69, 0
18, 181080, Note_on_c, 13, 73, 100
18, 181140, Note_on_c, 13, 73, 0
18, 181140, Note_on_c, 13, 66, 100
18, 181140, Note_on_c, 13, 69, 100
18, 181140, Note_on_c, 13, 74, 100
18, 181200, Note_on_c, 13, 74, 0
18, 181200, Note_on_c, 13, 69, 0
18, 181200, Note_on_c, 13, 66, 0
18, 181200, Note_on_c, 13, 78, 100
18, 181230, Note_on_c, 13, 78, 0
18, 181230, Note_on_c, 13, 76, 100
18, 181260, Note_on_c, 13, 76, 0
18, 181260, Note_on_c, 13, 67, 100
18, 181260, Note_on_c, 13, 73, 100
18, 181260, Note_on_c, 13, 76, 100
18, 181320, Note_on_c, 13, 76, 0
18, 181320, Note_on_c, 13, 73, 0
18, 181320, Note_on_c, 13, 67, 0
18, 181320, Note_on_c, 13, 64, 100
18, 181320, Note_on_c, 13, 67, 100
18, 181320, Note_on_c, 13, 73, 100
18, 181380, Note_on_c, 13, 73, 0
18, 181380, Note_on_c, 13, 67, 0
18, 181380, Note_on_c, 13, 64, 0
18, 181380, Note_on_c, 13, 66, 100
18, 181380, Note_on_c, 13, 74, 100
18, 181440, Note_on_c, 13, 74, 0
18, 181440, Note_on_c, 13, 66, 0
18, 181440, Note_on_c, 13, 69, 100
18, 181440, Note_on_c, 13, 66, 100
18, 181500, Note_on_c, 13, 66, 0
18, 181500, Note_on_c, 13, 69, 0
18, 181500, Note_on_c, 13, 69, 100
18, 181500, Note_on_c, 13, 66, 100
18, 181560, Note_on_c, 13, 66, 0
18, 181560, Note_on_c, 13, 69, 0
18, 181560, Note_on_c, 13, 66, 100
18, 181560, Note_on_c, 13, 74, 100
18, 181620, Note_on_c, 13, 74, 0
18, 181620, Note_on_c, 13, 66, 0
18, 181620, Note_on_c, 13, 66, 100
18, 181620, Note_on_c, 13, 74, 100
18, 181680, Note_on_c, 13, 74, 0
18, 181680, Note_on_c, 13, 66, 0
18, 181680, Note_on_c, 13, 69, 100
18, 181680, Note_on_c, 13, 66, 100
18, 181740, Note_on_c, 13, 66, 0
18, 181740, Note_on_c, 13, 69, 0
18, 181740, Note_on_c, 13, 66, 100
18, 181740, Note_on_c, 13, 69, 100
18, 181800, Note_on_c, 13, 69, 0
18, 181800, Note_on_c, 13, 66, 0
18, 181800, Note_on_c, 13, 74, 100
18, 181800, Note_on_c, 13, 66, 100
18, 181860, Note_on_c, 13, 66, 0
18, 181860, Note_on_c, 13, 74, 0
18, 181860, Note_on_c, 13, 69, 90
18, 181860, Note_on_c, 13, 74, 100
18, 181890, Note_on_c, 13, 74, 0
18, 181890, Note_on_c, 13, 76, 100
18, 181919, Note_on_c, 13, 69, 0
18, 181920, Note_on_c, 13, 76, 0
18, 181920, Note_on_c, 13, 69, 90
18, 181920, Note_on_c, 13, 78, 100
18, 181979, Note_on_c, 13, 69, 0
18, 181980, Note_on_c, 13, 78, 0
18, 181980, Note_on_c, 13, 66, 90
18, 181980, Note_on_c, 13, 81, 100
18, 182010, Note_on_c, 13, 81, 0
18, 182010, Note_on_c, 13, 79, 100
18, 182039, Note_on_c, 13, 66, 0
18, 182040, Note_on_c, 13, 79, 0
18, 182040, Note_on_c, 13, 67, 90
18, 182040, Note_on_c, 13, 78, 100
18, 182070, Note_on_c, 13, 78, 0
18, 182070, Note_on_c, 13, 76, 100
18, 182099, Note_on_c, 13, 67, 0
18, 182100, Note_on_c, 13, 76, 0
18, 182100, Note_on_c, 13, 66, 90
18, 182100, Note_on_c, 13, 74, 90
18, 182159, Note_on_c, 13, 74, 0
18, 182159, Note_on_c, 13, 66, 0
18, 182160, Note_on_c, 13, 69, 90
18, 182160, Note_on_c, 13, 66, 90
18, 182219, Note_on_c, 13, 66, 0
18, 182219, Note_on_c, 13, 69, 0
18, 182220, Note_on_c, 13, 69, 90
18, 182220, Note_on_c, 13, 66, 90
18, 182279, Note_on_c, 13, 66, 0
18, 182279, Note_on_c, 13, 69, 0
18, 182280, Note_on_c, 13, 74, 90
18, 182280, Note_on_c, 13, 66, 90
18, 182339, Note_on_c, 13, 66, 0
18, 182339, Note_on_c, 13, 74, 0
18, 182400, Note_on_c, 13, 71, 90
18, 182400, Note_on_c, 13, 74, 90
18, 182459, Note_on_c, 13, 74, 0
18, 182459, Note_on_c, 13, 71, 0
18, 182520, Note_on_c, 13, 71, 90
18, 182520, Note_on_c, 13, 74, 90
18, 182579, Note_on_c, 13, 74, 0
18, 182579, Note_on_c, 13, 71, 0
18, 182640, Note_on_c, 13, 69, 90
18, 182640, Note_on_c, 13, 74, 90
18, 182699, Note_on_c, 13, 74, 0
18, 182699, Note_on_c, 13, 69, 0
18, 182760, Note_on_c, 13, 69, 90
18, 182760, Note_on_c, 13, 74, 90
18, 182819, Note_on_c, 13, 74, 0
18, 182819, Note_on_c, 13, 69, 0
18, 182820, Note_on_c, 13, 67, 90
18, 182820, Note_on_c, 13, 73, 90
18, 182879, Note_on_c, 13, 73, 0
18, 182879, Note_on_c, 13, 67, 0
18, 182940, Note_on_c, 13, 66, 90
18, 182940, Note_on_c, 13, 74, 90
18, 182999, Note_on_c, 13, 74, 0
18, 182999, Note_on_c, 13, 66, 0
18, 183060, Note_on_c, 13, 73, 90
18, 183090, Note_on_c, 13, 73, 0
18, 183090, Note_on_c, 13, 81, 90
18, 183120, Note_on_c, 13, 81, 0
18, 183120, Note_on_c, 13, 79, 90
18, 183150, Note_on_c, 13, 79, 0
18, 183150, Note_on_c, 13, 78, 90
18, 183180, Note_on_c, 13, 78, 0
18, 183180, Note_on_c, 13, 76, 90
18, 183210, Note_on_c, 13, 76, 0
18, 183210, Note_on_c, 13, 74, 90
18, 183240, Note_on_c, 13, 74, 0
18, 183240, Note_on_c, 13, 73, 90
18, 183270, Note_on_c, 13, 73, 0
18, 183270, Note_on_c, 13, 71, 90
18, 183300, Note_on_c, 13, 71, 0
18, 183300, Note_on_c, 13, 66, 90
18, 183300, Note_on_c, 13, 69, 90
18, 183360, Note_on_c, 13, 69, 0
18, 183360, Note_on_c, 13, 66, 0
18, 183360, Note_on_c, 13, 74, 90
18, 183420, Note_on_c, 13, 74, 0
18, 183420, Note_on_c, 13, 73, 90
18, 183480, Note_on_c, 13, 73, 0
18, 183480, Note_on_c, 13, 71, 90
18, 183540, Note_on_c, 13, 71, 0
18, 183540, Note_on_c, 13, 64, 90
18, 183540, Note_on_c, 13, 73, 90
18, 183540, Note_on_c, 13, 69, 90
18, 183780, Note_on_c, 13, 69, 0
18, 183780, Note_on_c, 13, 73, 0
18, 183780, Note_on_c, 13, 64, 0
18, 183780, Note_on_c, 13, 66, 90
18, 183780, Note_on_c, 13, 69, 90
18, 183840, Note_on_c, 13, 69, 0
18, 183840, Note_on_c, 13, 66, 0
18, 183900, Note_on_c, 13, 69, 90
18, 183900, Note_on_c, 13, 66, 90
18, 183960, Note_on_c, 13, 66, 0
18, 183960, Note_on_c, 13, 69, 0
18, 184020, Note_on_c, 13, 66, 90
18, 184020, Note_on_c, 13, 69, 90
18, 184080, Note_on_c, 13, 69, 0
18, 184080, Note_on_c, 13, 66, 0
18, 184140, Note_on_c, 13, 66, 90
18, 184140, Note_on_c, 13, 69, 90
18, 184200, Note_on_c, 13, 69, 0
18, 184200, Note_on_c, 13, 66, 0
18, 184260, Note_on_c, 13, 62, 90
18, 184260, Note_on_c, 13, 66, 90
18, 184320, Note_on_c, 13, 66, 0
18, 184320, Note_on_c, 13, 62, 0
18, 184380, Note_on_c, 13, 69, 90
18, 184380, Note_on_c, 13, 66, 90
18, 184440, Note_on_c, 13, 66, 0
18, 184440, Note_on_c, 13, 69, 0
18, 184440, Note_on_c, 13, 64, 90
18, 184440, Note_on_c, 13, 67, 90
18, 184500, Note_on_c, 13, 67, 0
18, 184500, Note_on_c, 13, 64, 0
18, 184500, Note_on_c, 13, 66, 90
18, 184500, Note_on_c, 13, 69, 90
18, 184560, Note_on_c, 13, 69, 0
18, 184560, Note_on_c, 13, 66, 0
18, 184560, Note_on_c, 13, 78, 90
18, 184590, Note_on_c, 13, 78, 0
18, 184590, Note_on_c, 13, 76, 90
18, 184620, Note_on_c, 13, 76, 0
18, 184620, Note_on_c, 13, 78, 90
18, 184650, Note_on_c, 13, 78, 0
18, 184650, Note_on_c, 13, 76, 90
18, 184680, Note_on_c, 13, 76, 0
18, 184680, Note_on_c, 13, 74, 90
18, 184710, Note_on_c, 13, 74, 0
18, 184710, Note_on_c, 13, 73, 90
18, 184740, Note_on_c, 13, 73, 0
18, 184740, Note_on_c, 13, 66, 90
18, 184740, Note_on_c, 13, 69, 90
18, 184800, Note_on_c, 13, 69, 0
18, 184800, Note_on_c, 13, 66, 0
18, 184860, Note_on_c, 13, 66, 90
18, 184860, Note_on_c, 13, 69, 90
18, 184920, Note_on_c, 13, 69, 0
18, 184920, Note_on_c, 13, 66, 0
18, 184980, Note_on_c, 13, 66, 90
18, 184980, Note_on_c, 13, 69, 90
18, 185040, Note_on_c, 13, 69, 0
18, 185040, Note_on_c, 13, 66, 0
18, 185100, Note_on_c, 13, 66, 90
18, 185100, Note_on_c, 13, 69, 90
18, 185160, Note_on_c, 13, 69, 0
18, 185160, Note_on_c, 13, 66, 0
18, 185220, Note_on_c, 13, 62, 90
18, 185220, Note_on_c, 13, 66, 90
18, 185280, Note_on_c, 13, 66, 0
18, 185280, Note_on_c, 13, 62, 0
18, 185340, Note_on_c, 13, 69, 90
18, 185340, Note_on_c, 13, 66, 90
18, 185400, Note_on_c, 13, 66, 0
18, 185400, Note_on_c, 13, 69, 0
18, 185400, Note_on_c, 13, 64, 90
18, 185400, Note_on_c, 13, 67, 90
18, 185460, Note_on_c, 13, 67, 0
18, 185460, Note_on_c, 13, 64, 0
18, 185460, Note_on_c, 13, 69, 90
18, 185460, Note_on_c, 13, 66, 90
18, 185520, Note_on_c, 13, 66, 0
18, 185520, Note_on_c, 13, 69, 0
18, 185580, Note_on_c, 13, 62, 90
18, 185580, Note_on_c, 13, 66, 90
18, 185640, Note_on_c, 13, 66, 0
18, 185640, Note_on_c, 13, 62, 0
18, 185700, Note_on_c, 13, 71, 90
18, 185700, Note_on_c, 13, 74, 90
18, 185760, Note_on_c, 13, 74, 0
18, 185760, Note_on_c, 13, 71, 0
18, 185820, Note_on_c, 13, 71, 90
18, 185820, Note_on_c, 13, 74, 90
18, 185880, Note_on_c, 13, 74, 0
18, 185880, Note_on_c, 13, 71, 0
18, 185940, Note_on_c, 13, 69, 90
18, 185940, Note_on_c, 13, 74, 90
18, 186000, Note_on_c, 13, 74, 0
18, 186000, Note_on_c, 13, 69, 0
18, 186060, Note_on_c, 13, 69, 90
18, 186060, Note_on_c, 13, 74, 90
18, 186120, Note_on_c, 13, 74, 0
18, 186120, Note_on_c, 13, 69, 0
18, 186180, Note_on_c, 13, 69, 90
18, 186180, Note_on_c, 13, 73, 90
18, 186240, Note_on_c, 13, 73, 0
18, 186240, Note_on_c, 13, 69, 0
18, 186300, Note_on_c, 13, 74, 90
18, 186300, Note_on_c, 13, 69, 90
18, 186360, Note_on_c, 13, 69, 0
18, 186360, Note_on_c, 13, 74, 0
18, 186420, Note_on_c, 13, 73, 90
18, 186420, Note_on_c, 13, 76, 90
18, 186480, Note_on_c, 13, 76, 0
18, 186480, Note_on_c, 13, 73, 0
18, 186480, Note_on_c, 13, 79, 90
18, 186510, Note_on_c, 13, 79, 0
18, 186510, Note_on_c, 13, 78, 90
18, 186540, Note_on_c, 13, 78, 0
18, 186540, Note_on_c, 13, 76, 90
18, 186570, Note_on_c, 13, 76, 0
18, 186570, Note_on_c, 13, 74, 90
18, 186600, Note_on_c, 13, 74, 0
18, 186600, Note_on_c, 13, 73, 90
18, 186630, Note_on_c, 13, 73, 0
18, 186630, Note_on_c, 13, 71, 90
18, 186660, Note_on_c, 13, 71, 0
18, 186660, Note_on_c, 13, 66, 90
18, 186660, Note_on_c, 13, 69, 90
18, 186720, Note_on_c, 13, 69, 0
18, 186720, Note_on_c, 13, 66, 0
18, 186780, Note_on_c, 13, 67, 90
18, 186780, Note_on_c, 13, 69, 90
18, 186840, Note_on_c, 13, 69, 0
18, 186840, Note_on_c, 13, 67, 0
18, 186900, Note_on_c, 13, 73, 90
18, 186900, Note_on_c, 13, 69, 90
18, 186960, Note_on_c, 13, 69, 0
18, 186960, Note_on_c, 13, 73, 0
18, 187020, Note_on_c, 13, 64, 90
18, 187020, Note_on_c, 13, 69, 90
18, 187080, Note_on_c, 13, 69, 0
18, 187080, Note_on_c, 13, 64, 0
18, 187080, Note_on_c, 13, 71, 90
18, 187080, Note_on_c, 13, 68, 90
18, 187140, Note_on_c, 13, 68, 0
18, 187140, Note_on_c, 13, 71, 0
18, 187140, Note_on_c, 13, 67, 90
18, 187140, Note_on_c, 13, 69, 90
18, 187200, Note_on_c, 13, 69, 0
18, 187200, Note_on_c, 13, 67, 0
18, 187260, Note_on_c, 13, 73, 90
18, 187260, Note_on_c, 13, 69, 90
18, 187320, Note_on_c, 13, 69, 0
18, 187320, Note_on_c, 13, 73, 0
18, 187380, Note_on_c, 13, 69, 90
18, 187380, Note_on_c, 13, 73, 90
18, 187440, Note_on_c, 13, 73, 0
18, 187440, Note_on_c, 13, 69, 0
18, 187500, Note_on_c, 13, 73, 90
18, 187500, Note_on_c, 13, 69, 90
18, 187500, Note_on_c, 13, 67, 90
18, 187560, Note_on_c, 13, 67, 0
18, 187560, Note_on_c, 13, 69, 0
18, 187560, Note_on_c, 13, 73, 0
18, 187620, Note_on_c, 13, 67, 90
18, 187650, Note_on_c, 13, 67, 0
18, 187650, Note_on_c, 13, 69, 90
18, 187680, Note_on_c, 13, 69, 0
18, 187680, Note_on_c, 13, 73, 90
18, 187710, Note_on_c, 13, 73, 0
18, 187710, Note_on_c, 13, 69, 90
18, 187740, Note_on_c, 13, 69, 0
18, 187740, Note_on_c, 13, 67, 90
18, 187770, Note_on_c, 13, 67, 0
18, 187770, Note_on_c, 13, 73, 90
18, 187800, Note_on_c, 13, 73, 0
18, 187800, Note_on_c, 13, 76, 90
18, 187830, Note_on_c, 13, 76, 0
18, 187830, Note_on_c, 13, 73, 90
18, 187860, Note_on_c, 13, 73, 0
18, 187860, Note_on_c, 13, 67, 90
18, 187860, Note_on_c, 13, 69, 90
18, 187860, Note_on_c, 13, 74, 90
18, 187919, Note_on_c, 13, 74, 0
18, 187919, Note_on_c, 13, 69, 0
18, 187919, Note_on_c, 13, 67, 0
18, 187980, Note_on_c, 13, 69, 90
18, 187980, Note_on_c, 13, 74, 90
18, 188039, Note_on_c, 13, 74, 0
18, 188039, Note_on_c, 13, 69, 0
18, 188100, Note_on_c, 13, 69, 90
18, 188100, Note_on_c, 13, 74, 90
18, 188159, Note_on_c, 13, 74, 0
18, 188159, Note_on_c, 13, 69, 0
18, 188160, Note_on_c, 13, 73, 90
18, 188189, Note_on_c, 13, 73, 0
18, 188190, Note_on_c, 13, 71, 90
18, 188219, Note_on_c, 13, 71, 0
18, 188220, Note_on_c, 13, 69, 90
18, 188279, Note_on_c, 13, 69, 0
18, 188280, Note_on_c, 13, 67, 90
18, 188280, Note_on_c, 13, 73, 90
18, 188339, Note_on_c, 13, 73, 0
18, 188339, Note_on_c, 13, 67, 0
18, 188340, Note_on_c, 13, 66, 90
18, 188340, Note_on_c, 13, 74, 90
18, 188399, Note_on_c, 13, 74, 0
18, 188399, Note_on_c, 13, 66, 0
18, 188460, Note_on_c, 13, 66, 90
18, 188460, Note_on_c, 13, 72, 90
18, 188519, Note_on_c, 13, 72, 0
18, 188519, Note_on_c, 13, 66, 0
18, 188580, Note_on_c, 13, 72, 90
18, 188580, Note_on_c, 13, 74, 90
18, 188639, Note_on_c, 13, 74, 0
18, 188639, Note_on_c, 13, 72, 0
18, 188700, Note_on_c, 13, 69, 90
18, 188700, Note_on_c, 13, 74, 90
18, 188759, Note_on_c, 13, 74, 0
18, 188759, Note_on_c, 13, 69, 0
18, 188760, Note_on_c, 13, 66, 90
18, 188760, Note_on_c, 13, 69, 90
18, 188819, Note_on_c, 13, 69, 0
18, 188819, Note_on_c, 13, 66, 0
18, 188820, Note_on_c, 13, 67, 90
18, 188820, Note_on_c, 13, 72, 90
18, 188850, Note_on_c, 13, 72, 0
18, 188850, Note_on_c, 13, 71, 90
18, 188880, Note_on_c, 13, 71, 0
18, 188880, Note_on_c, 13, 67, 0
18, 188880, Note_on_c, 13, 62, 90
18, 188880, Note_on_c, 13, 72, 90
18, 188940, Note_on_c, 13, 72, 0
18, 188940, Note_on_c, 13, 62, 0
18, 188940, Note_on_c, 13, 71, 90
18, 188969, Note_on_c, 13, 71, 0
18, 188970, Note_on_c, 13, 69, 90
18, 188999, Note_on_c, 13, 69, 0
18, 189000, Note_on_c, 13, 67, 90
18, 189029, Note_on_c, 13, 67, 0
18, 189030, Note_on_c, 13, 66, 90
18, 189059, Note_on_c, 13, 66, 0
18, 189060, Note_on_c, 13, 67, 90
18, 189060, Note_on_c, 13, 71, 90
18, 189120, Note_on_c, 13, 71, 0
18, 189120, Note_on_c, 13, 67, 0
18, 189120, Note_on_c, 13, 67, 90
18, 189120, Note_on_c, 13, 71, 90
18, 189180, Note_on_c, 13, 71, 0
18, 189180, Note_on_c, 13, 67, 0
18, 189180, Note_on_c, 13, 67, 90
18, 189180, Note_on_c, 13, 71, 90
18, 189240, Note_on_c, 13, 71, 0
18, 189240, Note_on_c, 13, 67, 0
18, 189240, Note_on_c, 13, 67, 90
18, 189240, Note_on_c, 13, 71, 90
18, 189300, Note_on_c, 13, 71, 0
18, 189300, Note_on_c, 13, 67, 0
18, 189300, Note_on_c, 13, 64, 90
18, 189300, Note_on_c, 13, 69, 90
18, 189360, Note_on_c, 13, 69, 0
18, 189360, Note_on_c, 13, 64, 0
18, 189420, Note_on_c, 13, 69, 90
18, 189449, Note_on_c, 13, 69, 0
18, 189450, Note_on_c, 13, 67, 90
18, 189479, Note_on_c, 13, 67, 0
18, 189480, Note_on_c, 13, 66, 90
18, 189509, Note_on_c, 13, 66, 0
18, 189510, Note_on_c, 13, 64, 90
18, 189539, Note_on_c, 13, 64, 0
18, 189540, Note_on_c, 13, 69, 90
18, 189540, Note_on_c, 13, 66, 90
18, 189599, Note_on_c, 13, 66, 0
18, 189599, Note_on_c, 13, 69, 0
18, 189600, Note_on_c, 13, 66, 90
18, 189600, Note_on_c, 13, 69, 90
18, 189660, Note_on_c, 13, 69, 0
18, 189660, Note_on_c, 13, 66, 0
18, 189660, Note_on_c, 13, 66, 90
18, 189660, Note_on_c, 13, 69, 90
18, 189719, Note_on_c, 13, 69, 0
18, 189719, Note_on_c, 13, 66, 0
18, 189720, Note_on_c, 13, 66, 90
18, 189720, Note_on_c, 13, 69, 90
18, 189780, Note_on_c, 13, 69, 0
18, 189780, Note_on_c, 13, 66, 0
18, 189780, Note_on_c, 13, 67, 90
18, 189780, Note_on_c, 13, 62, 90
18, 189839, Note_on_c, 13, 62, 0
18, 189839, Note_on_c, 13, 67, 0
18, 189900, Note_on_c, 13, 67, 90
18, 189929, Note_on_c, 13, 67, 0
18, 189930, Note_on_c, 13, 66, 90
18, 189959, Note_on_c, 13, 66, 0
18, 189960, Note_on_c, 13, 64, 90
18, 189989, Note_on_c, 13, 64, 0
18, 189990, Note_on_c, 13, 62, 90
18, 190019, Note_on_c, 13, 62, 0
18, 190020, Note_on_c, 13, 61, 90
18, 190020, Note_on_c, 13, 67, 90
18, 190080, Note_on_c, 13, 67, 0
18, 190080, Note_on_c, 13, 61, 0
18, 190080, Note_on_c, 13, 73, 90
18, 190140, Note_on_c, 13, 73, 0
18, 190140, Note_on_c, 13, 73, 90
18, 190200, Note_on_c, 13, 73, 0
18, 190200, Note_on_c, 13, 69, 90
18, 190260, Note_on_c, 13, 69, 0
18, 190260, Note_on_c, 13, 67, 90
18, 190290, Note_on_c, 13, 67, 0
18, 190290, Note_on_c, 13, 69, 90
18, 190320, Note_on_c, 13, 69, 0
18, 190320, Note_on_c, 13, 73, 90
18, 190380, Note_on_c, 13, 73, 0
18, 190380, Note_on_c, 13, 73, 90
18, 190410, Note_on_c, 13, 73, 0
18, 190410, Note_on_c, 13, 71, 90
18, 190440, Note_on_c, 13, 71, 0
18, 190440, Note_on_c, 13, 69, 90
18, 190500, Note_on_c, 13, 69, 0
18, 190500, Note_on_c, 13, 73, 90
18, 190530, Note_on_c, 13, 73, 0
18, 190530, Note_on_c, 13, 74, 90
18, 190560, Note_on_c, 13, 74, 0
18, 190560, Note_on_c, 13, 76, 90
18, 190620, Note_on_c, 13, 76, 0
18, 190620, Note_on_c, 13, 76, 90
18, 190650, Note_on_c, 13, 76, 0
18, 190650, Note_on_c, 13, 74, 90
18, 190680, Note_on_c, 13, 74, 0
18, 190680, Note_on_c, 13, 73, 90
18, 190740, Note_on_c, 13, 73, 0
18, 190740, Note_on_c, 13, 76, 90
18, 190770, Note_on_c, 13, 76, 0
18, 190770, Note_on_c, 13, 78, 90
18, 190800, Note_on_c, 13, 78, 0
18, 190800, Note_on_c, 13, 79, 90
18, 190830, Note_on_c, 13, 79, 0
18, 190830, Note_on_c, 13, 81, 90
18, 190860, Note_on_c, 13, 81, 0
18, 190860, Note_on_c, 13, 79, 90
18, 190920, Note_on_c, 13, 79, 0
18, 190920, Note_on_c, 13, 76, 90
18, 190980, Note_on_c, 13, 76, 0
18, 190980, Note_on_c, 13, 69, 90
18, 190980, Note_on_c, 13, 74, 90
18, 191040, Note_on_c, 13, 74, 0
18, 191040, Note_on_c, 13, 69, 0
18, 191100, Note_on_c, 13, 71, 90
18, 191100, Note_on_c, 13, 68, 90
18, 191160, Note_on_c, 13, 68, 0
18, 191160, Note_on_c, 13, 71, 0
18, 191220, Note_on_c, 13, 73, 90
18, 191220, Note_on_c, 13, 69, 90
18, 191280, Note_on_c, 13, 69, 0
18, 191280, Note_on_c, 13, 73, 0
18, 191340, Note_on_c, 13, 76, 90
18, 191370, Note_on_c, 13, 76, 0
18, 191370, Note_on_c, 13, 74, 90
18, 191400, Note_on_c, 13, 74, 0
18, 191400, Note_on_c, 13, 73, 90
18, 191430, Note_on_c, 13, 73, 0
18, 191430, Note_on_c, 13, 71, 90
18, 191460, Note_on_c, 13, 71, 0
18, 191460, Note_on_c, 13, 67, 90
18, 191460, Note_on_c, 13, 71, 90
18, 191520, Note_on_c, 13, 71, 0
18, 191520, Note_on_c, 13, 67, 0
18, 191520, Note_on_c, 13, 73, 90
18, 191520, Note_on_c, 13, 69, 90
18, 191580, Note_on_c, 13, 69, 0
18, 191580, Note_on_c, 13, 73, 0
18, 191580, Note_on_c, 13, 69, 90
18, 191580, Note_on_c, 13, 73, 90
18, 191640, Note_on_c, 13, 73, 0
18, 191640, Note_on_c, 13, 69, 0
18, 191700, Note_on_c, 13, 67, 90
18, 191700, Note_on_c, 13, 69, 90
18, 191760, Note_on_c, 13, 69, 0
18, 191760, Note_on_c, 13, 67, 0
18, 191760, Note_on_c, 13, 66, 90
18, 191820, Note_on_c, 13, 66, 0
18, 191820, Note_on_c, 13, 67, 90
18, 191880, Note_on_c, 13, 67, 0
18, 191880, Note_on_c, 13, 67, 90
18, 191880, Note_on_c, 13, 69, 90
18, 191940, Note_on_c, 13, 69, 0
18, 191940, Note_on_c, 13, 67, 0
18, 191940, Note_on_c, 13, 66, 90
18, 191940, Note_on_c, 13, 69, 90
18, 192000, Note_on_c, 13, 69, 0
18, 192000, Note_on_c, 13, 66, 0
18, 192060, Note_on_c, 13, 62, 90
18, 192060, Note_on_c, 13, 76, 90
18, 192120, Note_on_c, 13, 76, 0
18, 192120, Note_on_c, 13, 62, 0
18, 192180, Note_on_c, 13, 66, 90
18, 192180, Note_on_c, 13, 74, 90
18, 192240, Note_on_c, 13, 74, 0
18, 192240, Note_on_c, 13, 66, 0
18, 192240, Note_on_c, 13, 69, 90
18, 192240, Note_on_c, 13, 66, 90
18, 192300, Note_on_c, 13, 66, 0
18, 192300, Note_on_c, 13, 69, 0
18, 192300, Note_on_c, 13, 66, 90
18, 192300, Note_on_c, 13, 69, 90
18, 192360, Note_on_c, 13, 69, 0
18, 192360, Note_on_c, 13, 66, 0
18, 192360, Note_on_c, 13, 66, 90
18, 192360, Note_on_c, 13, 74, 90
18, 192420, Note_on_c, 13, 74, 0
18, 192420, Note_on_c, 13, 66, 0
18, 192420, Note_on_c, 13, 66, 90
18, 192420, Note_on_c, 13, 72, 90
18, 192480, Note_on_c, 13, 72, 0
18, 192480, Note_on_c, 13, 66, 0
18, 192480, Note_on_c, 13, 69, 90
18, 192480, Note_on_c, 13, 66, 90
18, 192540, Note_on_c, 13, 66, 0
18, 192540, Note_on_c, 13, 69, 0
18, 192540, Note_on_c, 13, 66, 90
18, 192540, Note_on_c, 13, 69, 90
18, 192600, Note_on_c, 13, 69, 0
18, 192600, Note_on_c, 13, 66, 0
18, 192600, Note_on_c, 13, 66, 90
18, 192600, Note_on_c, 13, 72, 90
18, 192660, Note_on_c, 13, 72, 0
18, 192660, Note_on_c, 13, 66, 0
18, 192660, Note_on_c, 13, 66, 90
18, 192660, Note_on_c, 13, 72, 90
18, 192720, Note_on_c, 13, 72, 0
18, 192720, Note_on_c, 13, 66, 0
18, 192720, Note_on_c, 13, 69, 90
18, 192720, Note_on_c, 13, 78, 90
18, 192780, Note_on_c, 13, 78, 0
18, 192780, Note_on_c, 13, 69, 0
18, 192780, Note_on_c, 13, 67, 90
18, 192780, Note_on_c, 13, 76, 90
18, 192840, Note_on_c, 13, 76, 0
18, 192840, Note_on_c, 13, 67, 0
18, 192840, Note_on_c, 13, 66, 90
18, 192840, Note_on_c, 13, 74, 90
18, 192900, Note_on_c, 13, 74, 0
18, 192900, Note_on_c, 13, 66, 0
18, 192900, Note_on_c, 13, 64, 90
18, 192900, Note_on_c, 13, 72, 90
18, 192900, Note_on_c, 13, 78, 90
18, 192960, Note_on_c, 13, 78, 0
18, 192960, Note_on_c, 13, 72, 0
18, 192960, Note_on_c, 13, 64, 0
18, 192960, Note_on_c, 13, 67, 90
18, 192960, Note_on_c, 13, 76, 90
18, 193020, Note_on_c, 13, 76, 0
18, 193020, Note_on_c, 13, 67, 0
18, 193020, Note_on_c, 13, 66, 90
18, 193020, Note_on_c, 13, 74, 90
18, 193080, Note_on_c, 13, 74, 0
18, 193080, Note_on_c, 13, 66, 0
18, 193080, Note_on_c, 13, 64, 90
18, 193080, Note_on_c, 13, 73, 90
18, 193140, Note_on_c, 13, 73, 0
18, 193140, Note_on_c, 13, 64, 0
18, 193140, Note_on_c, 13, 62, 90
18, 193140, Note_on_c, 13, 71, 90
18, 193200, Note_on_c, 13, 71, 0
18, 193200, Note_on_c, 13, 62, 0
18, 193260, Note_on_c, 13, 69, 90
18, 193260, Note_on_c, 13, 62, 90
18, 193320, Note_on_c, 13, 62, 0
18, 193320, Note_on_c, 13, 69, 0
18, 193380, Note_on_c, 13, 64, 90
18, 193380, Note_on_c, 13, 68, 90
18, 193440, Note_on_c, 13, 68, 0
18, 193440, Note_on_c, 13, 64, 0
18, 193440, Note_on_c, 13, 64, 90
18, 193500, Note_on_c, 13, 64, 0
18, 193500, Note_on_c, 13, 64, 90
18, 193560, Note_on_c, 13, 64, 0
18, 193560, Note_on_c, 13, 64, 90
18, 193560, Note_on_c, 13, 68, 90
18, 193620, Note_on_c, 13, 68, 0
18, 193620, Note_on_c, 13, 64, 0
18, 193620, Note_on_c, 13, 64, 90
18, 193620, Note_on_c, 13, 68, 90
18, 193680, Note_on_c, 13, 68, 0
18, 193680, Note_on_c, 13, 64, 0
18, 193680, Note_on_c, 13, 68, 90
18, 193740, Note_on_c, 13, 68, 0
18, 193740, Note_on_c, 13, 66, 90
18, 193800, Note_on_c, 13, 66, 0
18, 193800, Note_on_c, 13, 64, 90
18, 193860, Note_on_c, 13, 64, 0
18, 193860, Note_on_c, 13, 68, 90
18, 193920, Note_on_c, 13, 68, 0
18, 193920, Note_on_c, 13, 66, 90
18, 193980, Note_on_c, 13, 66, 0
18, 193980, Note_on_c, 13, 64, 90
18, 194040, Note_on_c, 13, 64, 0
18, 194040, Note_on_c, 13, 62, 90
18, 194040, Note_on_c, 13, 68, 90
18, 194100, Note_on_c, 13, 68, 0
18, 194100, Note_on_c, 13, 62, 0
18, 194100, Note_on_c, 13, 64, 90
18, 194100, Note_on_c, 13, 69, 90
18, 194160, Note_on_c, 13, 69, 0
18, 194160, Note_on_c, 13, 64, 0
18, 194220, Note_on_c, 13, 76, 90
18, 194220, Note_on_c, 13, 73, 90
18, 194220, Note_on_c, 13, 67, 90
18, 194280, Note_on_c, 13, 67, 0
18, 194280, Note_on_c, 13, 73, 0
18, 194280, Note_on_c, 13, 76, 0
18, 194340, Note_on_c, 13, 62, 90
18, 194340, Note_on_c, 13, 69, 90
18, 194400, Note_on_c, 13, 69, 0
18, 194400, Note_on_c, 13, 62, 0
18, 194460, Note_on_c, 13, 66, 90
18, 194460, Note_on_c, 13, 69, 90
18, 194460, Note_on_c, 13, 74, 90
18, 194520, Note_on_c, 13, 74, 0
18, 194520, Note_on_c, 13, 69, 0
18, 194520, Note_on_c, 13, 66, 0
18, 194580, Note_on_c, 13, 64, 90
18, 194580, Note_on_c, 13, 69, 90
18, 194580, Note_on_c, 13, 67, 90
18, 194640, Note_on_c, 13, 67, 0
18, 194640, Note_on_c, 13, 69, 0
18, 194640, Note_on_c, 13, 64, 0
18, 194700, Note_on_c, 13, 76, 90
18, 194700, Note_on_c, 13, 73, 90
18, 194700, Note_on_c, 13, 67, 90
18, 194760, Note_on_c, 13, 67, 0
18, 194760, Note_on_c, 13, 73, 0
18, 194760, Note_on_c, 13, 76, 0
18, 194820, Note_on_c, 13, 69, 90
18, 194820, Note_on_c, 13, 74, 90
18, 194880, Note_on_c, 13, 74, 0
18, 194880, Note_on_c, 13, 69, 0
18, 194940, Note_on_c, 13, 74, 90
18, 194940, Note_on_c, 13, 66, 90
18, 195000, Note_on_c, 13, 66, 0
18, 195000, Note_on_c, 13, 74, 0
18, 195060, Note_on_c, 13, 62, 90
18, 195060, Note_on_c, 13, 66, 90
18, 195120, Note_on_c, 13, 66, 0
18, 195120, Note_on_c, 13, 62, 0
18, 195120, Note_on_c, 13, 62, 90
18, 195120, Note_on_c, 13, 66, 90
18, 195180, Note_on_c, 13, 66, 0
18, 195180, Note_on_c, 13, 62, 0
18, 195180, Note_on_c, 13, 62, 90
18, 195180, Note_on_c, 13, 67, 90
18, 195240, Note_on_c, 13, 67, 0
18, 195240, Note_on_c, 13, 62, 0
18, 195240, Note_on_c, 13, 61, 90
18, 195240, Note_on_c, 13, 69, 90
18, 195300, Note_on_c, 13, 69, 0
18, 195300, Note_on_c, 13, 61, 0
18, 195300, Note_on_c, 13, 62, 90
18, 195300, Note_on_c, 13, 65, 90
18, 195360, Note_on_c, 13, 65, 0
18, 195360, Note_on_c, 13, 62, 0
18, 195420, Note_on_c, 13, 68, 90
18, 195420, Note_on_c, 13, 65, 90
18, 195480, Note_on_c, 13, 65, 0
18, 195480, Note_on_c, 13, 68, 0
18, 195540, Note_on_c, 13, 71, 90
18, 195540, Note_on_c, 13, 62, 90
18, 195540, Note_on_c, 13, 68, 90
18, 195600, Note_on_c, 13, 68, 0
18, 195600, Note_on_c, 13, 62, 0
18, 195600, Note_on_c, 13, 71, 0
18, 195660, Note_on_c, 13, 64, 90
18, 195660, Note_on_c, 13, 73, 90
18, 195660, Note_on_c, 13, 69, 90
18, 195720, Note_on_c, 13, 69, 0
18, 195720, Note_on_c, 13, 73, 0
18, 195720, Note_on_c, 13, 64, 0
18, 195840, Note_on_c, 13, 74, 90
18, 195900, Note_on_c, 13, 74, 0
18, 195900, Note_on_c, 13, 73, 90
18, 195960, Note_on_c, 13, 73, 0
18, 195960, Note_on_c, 13, 71, 90
18, 196020, Note_on_c, 13, 71, 0
18, 196020, Note_on_c, 13, 66, 90
18, 196020, Note_on_c, 13, 69, 90
18, 196080, Note_on_c, 13, 69, 0
18, 196080, Note_on_c, 13, 66, 0
18, 196080, Note_on_c, 13, 66, 90
18, 196139, Note_on_c, 13, 66, 0
18, 196140, Note_on_c, 13, 64, 90
18, 196199, Note_on_c, 13, 64, 0
18, 196200, Note_on_c, 13, 62, 90
18, 196259, Note_on_c, 13, 62, 0
18, 196260, Note_on_c, 13, 69, 90
18, 196260, Note_on_c, 13, 61, 90
18, 196319, Note_on_c, 13, 61, 0
18, 196319, Note_on_c, 13, 69, 0
18, 196320, Note_on_c, 13, 64, 90
18, 196320, Note_on_c, 13, 61, 90
18, 196379, Note_on_c, 13, 61, 0
18, 196379, Note_on_c, 13, 64, 0
18, 196380, Note_on_c, 13, 61, 90
18, 196380, Note_on_c, 13, 64, 90
18, 196439, Note_on_c, 13, 64, 0
18, 196439, Note_on_c, 13, 61, 0
18, 196440, Note_on_c, 13, 61, 90
18, 196440, Note_on_c, 13, 69, 90
18, 196499, Note_on_c, 13, 69, 0
18, 196499, Note_on_c, 13, 61, 0
18, 196500, Note_on_c, 13, 67, 90
18, 196500, Note_on_c, 13, 61, 90
18, 196559, Note_on_c, 13, 61, 0
18, 196559, Note_on_c, 13, 67, 0
18, 196560, Note_on_c, 13, 61, 90
18, 196560, Note_on_c, 13, 64, 90
18, 196619, Note_on_c, 13, 64, 0
18, 196619, Note_on_c, 13, 61, 0
18, 196620, Note_on_c, 13, 67, 90
18, 196620, Note_on_c, 13, 61, 90
18, 196679, Note_on_c, 13, 61, 0
18, 196679, Note_on_c, 13, 67, 0
18, 196680, Note_on_c, 13, 64, 90
18, 196739, Note_on_c, 13, 64, 0
18, 196740, Note_on_c, 13, 66, 90
18, 196740, Note_on_c, 13, 62, 90
18, 196799, Note_on_c, 13, 62, 0
18, 196799, Note_on_c, 13, 66, 0
18, 196800, Note_on_c, 13, 66, 90
18, 196800, Note_on_c, 13, 69, 90
18, 196859, Note_on_c, 13, 69, 0
18, 196859, Note_on_c, 13, 66, 0
18, 196860, Note_on_c, 13, 67, 90
18, 196860, Note_on_c, 13, 62, 90
18, 196919, Note_on_c, 13, 62, 0
18, 196919, Note_on_c, 13, 67, 0
18, 196920, Note_on_c, 13, 64, 90
18, 196920, Note_on_c, 13, 67, 90
18, 196979, Note_on_c, 13, 67, 0
18, 196979, Note_on_c, 13, 64, 0
18, 196980, Note_on_c, 13, 62, 90
18, 196980, Note_on_c, 13, 66, 90
18, 197039, Note_on_c, 13, 66, 0
18, 197039, Note_on_c, 13, 62, 0
18, 197100, Note_on_c, 13, 66, 90
18, 197100, Note_on_c, 13, 69, 90
18, 197159, Note_on_c, 13, 69, 0
18, 197159, Note_on_c, 13, 66, 0
18, 197220, Note_on_c, 13, 66, 90
18, 197220, Note_on_c, 13, 62, 90
18, 197279, Note_on_c, 13, 62, 0
18, 197279, Note_on_c, 13, 66, 0
18, 197340, Note_on_c, 13, 72, 90
18, 197340, Note_on_c, 13, 62, 90
18, 197399, Note_on_c, 13, 62, 0
18, 197399, Note_on_c, 13, 72, 0
18, 197460, Note_on_c, 13, 66, 90
18, 197460, Note_on_c, 13, 62, 90
18, 197460, Note_on_c, 13, 72, 90
18, 197519, Note_on_c, 13, 72, 0
18, 197519, Note_on_c, 13, 62, 0
18, 197519, Note_on_c, 13, 66, 0
18, 197580, Note_on_c, 13, 66, 90
18, 197580, Note_on_c, 13, 72, 90
18, 197639, Note_on_c, 13, 72, 0
18, 197639, Note_on_c, 13, 66, 0
18, 197700, Note_on_c, 13, 64, 90
18, 197700, Note_on_c, 13, 71, 90
18, 197759, Note_on_c, 13, 71, 0
18, 197759, Note_on_c, 13, 64, 0
18, 197760, Note_on_c, 13, 71, 90
18, 197760, Note_on_c, 13, 67, 90
18, 197819, Note_on_c, 13, 67, 0
18, 197819, Note_on_c, 13, 71, 0
18, 197820, Note_on_c, 13, 67, 90
18, 197820, Note_on_c, 13, 64, 90
18, 197879, Note_on_c, 13, 64, 0
18, 197879, Note_on_c, 13, 67, 0
18, 197880, Note_on_c, 13, 66, 90
18, 197880, Note_on_c, 13, 69, 90
18, 197939, Note_on_c, 13, 69, 0
18, 197939, Note_on_c, 13, 66, 0
18, 197940, Note_on_c, 13, 71, 90
18, 197940, Note_on_c, 13, 67, 90
18, 197999, Note_on_c, 13, 67, 0
18, 197999, Note_on_c, 13, 71, 0
18, 198120, Note_on_c, 13, 67, 90
18, 198120, Note_on_c, 13, 71, 90
18, 198179, Note_on_c, 13, 71, 0
18, 198179, Note_on_c, 13, 67, 0
18, 198180, Note_on_c, 13, 67, 90
18, 198180, Note_on_c, 13, 72, 90
18, 198239, Note_on_c, 13, 72, 0
18, 198239, Note_on_c, 13, 67, 0
18, 198360, Note_on_c, 13, 66, 90
18, 198360, Note_on_c, 13, 71, 90
18, 198419, Note_on_c, 13, 71, 0
18, 198419, Note_on_c, 13, 66, 0
18, 198420, Note_on_c, 13, 71, 90
18, 198420, Note_on_c, 13, 66, 90
18, 198479, Note_on_c, 13, 66, 0
18, 198479, Note_on_c, 13, 71, 0
18, 198600, Note_on_c, 13, 67, 90
18, 198600, Note_on_c, 13, 73, 90
18, 198659, Note_on_c, 13, 73, 0
18, 198659, Note_on_c, 13, 67, 0
18, 198660, Note_on_c, 13, 66, 90
18, 198660, Note_on_c, 13, 74, 90
18, 198719, Note_on_c, 13, 74, 0
18, 198719, Note_on_c, 13, 66, 0
18, 198780, Note_on_c, 13, 74, 90
18, 198780, Note_on_c, 13, 64, 90
18, 198839, Note_on_c, 13, 64, 0
18, 198839, Note_on_c, 13, 74, 0
18, 198900, Note_on_c, 13, 64, 90
18, 198900, Note_on_c, 13, 73, 90
18, 198959, Note_on_c, 13, 73, 0
18, 198959, Note_on_c, 13, 64, 0
18, 199020, Note_on_c, 13, 69, 90
18, 199020, Note_on_c, 13, 62, 90
18, 199079, Note_on_c, 13, 62, 0
18, 199079, Note_on_c, 13, 69, 0
18, 199140, Note_on_c, 13, 62, 90
18, 199140, Note_on_c, 13, 66, 90
18, 199199, Note_on_c, 13, 66, 0
18, 199199, Note_on_c, 13, 62, 0
18, 199260, Note_on_c, 13, 73, 90
18, 199260, Note_on_c, 13, 67, 90
18, 199260, Note_on_c, 13, 64, 90
18, 199319, Note_on_c, 13, 64, 0
18, 199319, Note_on_c, 13, 67, 0
18, 199319, Note_on_c, 13, 73, 0
18, 199380, Note_on_c, 13, 62, 90
18, 199380, Note_on_c, 13, 66, 90
18, 199620, Note_on_c, 13, 66, 0
18, 199620, Note_on_c, 13, 62, 0
18, 199620, End_track
19, 0, Start_track
19, 0, MIDI_port, 0
19, 0, Title_t, "Organo L"
19, 0, Note_on_c, 13, 38, 90
19, 59, Note_on_c, 13, 38, 0
19, 360, Note_on_c, 13, 38, 90
19, 419, Note_on_c, 13, 38, 0
19, 720, Note_on_c, 13, 38, 90
19, 779, Note_on_c, 13, 38, 0
19, 1080, Note_on_c, 13, 38, 90
19, 1139, Note_on_c, 13, 38, 0
19, 1275, Note_on_c, 13, 50, 90
19, 1289, Note_on_c, 13, 50, 0
19, 1290, Note_on_c, 13, 49, 90
19, 1304, Note_on_c, 13, 49, 0
19, 1305, Note_on_c, 13, 47, 90
19, 1319, Note_on_c, 13, 47, 0
19, 1320, Note_on_c, 13, 45, 90
19, 1334, Note_on_c, 13, 45, 0
19, 1335, Note_on_c, 13, 50, 90
19, 1349, Note_on_c, 13, 50, 0
19, 1350, Note_on_c, 13, 49, 90
19, 1364, Note_on_c, 13, 49, 0
19, 1365, Note_on_c, 13, 47, 90
19, 1379, Note_on_c, 13, 47, 0
19, 1380, Note_on_c, 13, 45, 90
19, 1394, Note_on_c, 13, 45, 0
19, 1395, Note_on_c, 13, 43, 90
19, 1409, Note_on_c, 13, 43, 0
19, 1410, Note_on_c, 13, 42, 90
19, 1424, Note_on_c, 13, 42, 0
19, 1425, Note_on_c, 13, 40, 90
19, 1439, Note_on_c, 13, 40, 0
19, 1440, Note_on_c, 13, 38, 90
19, 1499, Note_on_c, 13, 38, 0
19, 1500, Note_on_c, 13, 42, 90
19, 1559, Note_on_c, 13, 42, 0
19, 1560, Note_on_c, 13, 38, 90
19, 1619, Note_on_c, 13, 38, 0
19, 1620, Note_on_c, 13, 45, 90
19, 1679, Note_on_c, 13, 45, 0
19, 1800, Note_on_c, 13, 45, 90
19, 1859, Note_on_c, 13, 45, 0
19, 1860, Note_on_c, 13, 49, 90
19, 1919, Note_on_c, 13, 49, 0
19, 1920, Note_on_c, 13, 45, 90
19, 1979, Note_on_c, 13, 45, 0
19, 1980, Note_on_c, 13, 50, 90
19, 2039, Note_on_c, 13, 50, 0
19, 2160, Note_on_c, 13, 50, 90
19, 2189, Note_on_c, 13, 50, 0
19, 2190, Note_on_c, 13, 52, 90
19, 2219, Note_on_c, 13, 52, 0
19, 2220, Note_on_c, 13, 54, 90
19, 2249, Note_on_c, 13, 54, 0
19, 2250, Note_on_c, 13, 52, 90
19, 2279, Note_on_c, 13, 52, 0
19, 2280, Note_on_c, 13, 54, 90
19, 2309, Note_on_c, 13, 54, 0
19, 2310, Note_on_c, 13, 50, 90
19, 2339, Note_on_c, 13, 50, 0
19, 2340, Note_on_c, 13, 55, 90
19, 2369, Note_on_c, 13, 55, 0
19, 2370, Note_on_c, 13, 57, 90
19, 2399, Note_on_c, 13, 57, 0
19, 2400, Note_on_c, 13, 54, 90
19, 2429, Note_on_c, 13, 54, 0
19, 2430, Note_on_c, 13, 55, 90
19, 2459, Note_on_c, 13, 55, 0
19, 2460, Note_on_c, 13, 52, 90
19, 2489, Note_on_c, 13, 52, 0
19, 2490, Note_on_c, 13, 54, 90
19, 2519, Note_on_c, 13, 54, 0
19, 2520, Note_on_c, 13, 50, 90
19, 2549, Note_on_c, 13, 50, 0
19, 2550, Note_on_c, 13, 62, 90
19, 2579, Note_on_c, 13, 62, 0
19, 2580, Note_on_c, 13, 61, 90
19, 2609, Note_on_c, 13, 61, 0
19, 2610, Note_on_c, 13, 62, 90
19, 2639, Note_on_c, 13, 62, 0
19, 2640, Note_on_c, 13, 59, 90
19, 2669, Note_on_c, 13, 59, 0
19, 2670, Note_on_c, 13, 61, 90
19, 2699, Note_on_c, 13, 61, 0
19, 2700, Note_on_c, 13, 57, 90
19, 2729, Note_on_c, 13, 57, 0
19, 2730, Note_on_c, 13, 55, 90
19, 2759, Note_on_c, 13, 55, 0
19, 2760, Note_on_c, 13, 57, 90
19, 2789, Note_on_c, 13, 57, 0
19, 2790, Note_on_c, 13, 59, 90
19, 2819, Note_on_c, 13, 59, 0
19, 2820, Note_on_c, 13, 55, 90
19, 2849, Note_on_c, 13, 55, 0
19, 2850, Note_on_c, 13, 57, 90
19, 2879, Note_on_c, 13, 57, 0
19, 2880, Note_on_c, 13, 54, 90
19, 2909, Note_on_c, 13, 54, 0
19, 2910, Note_on_c, 13, 52, 90
19, 2939, Note_on_c, 13, 52, 0
19, 2940, Note_on_c, 13, 54, 90
19, 2969, Note_on_c, 13, 54, 0
19, 2970, Note_on_c, 13, 55, 90
19, 2999, Note_on_c, 13, 55, 0
19, 3000, Note_on_c, 13, 52, 90
19, 3029, Note_on_c, 13, 52, 0
19, 3030, Note_on_c, 13, 54, 90
19, 3059, Note_on_c, 13, 54, 0
19, 3060, Note_on_c, 13, 51, 90
19, 3089, Note_on_c, 13, 51, 0
19, 3090, Note_on_c, 13, 60, 90
19, 3119, Note_on_c, 13, 60, 0
19, 3120, Note_on_c, 13, 59, 90
19, 3149, Note_on_c, 13, 59, 0
19, 3150, Note_on_c, 13, 60, 90
19, 3179, Note_on_c, 13, 60, 0
19, 3180, Note_on_c, 13, 57, 90
19, 3209, Note_on_c, 13, 57, 0
19, 3210, Note_on_c, 13, 59, 90
19, 3239, Note_on_c, 13, 59, 0
19, 3240, Note_on_c, 13, 55, 90
19, 3269, Note_on_c, 13, 55, 0
19, 3270, Note_on_c, 13, 54, 90
19, 3299, Note_on_c, 13, 54, 0
19, 3300, Note_on_c, 13, 55, 90
19, 3329, Note_on_c, 13, 55, 0
19, 3330, Note_on_c, 13, 57, 90
19, 3359, Note_on_c, 13, 57, 0
19, 3360, Note_on_c, 13, 54, 90
19, 3389, Note_on_c, 13, 54, 0
19, 3390, Note_on_c, 13, 55, 90
19, 3419, Note_on_c, 13, 55, 0
19, 3420, Note_on_c, 13, 52, 90
19, 3449, Note_on_c, 13, 52, 0
19, 3450, Note_on_c, 13, 51, 90
19, 3479, Note_on_c, 13, 51, 0
19, 3480, Note_on_c, 13, 52, 90
19, 3509, Note_on_c, 13, 52, 0
19, 3510, Note_on_c, 13, 54, 90
19, 3539, Note_on_c, 13, 54, 0
19, 3540, Note_on_c, 13, 50, 90
19, 3569, Note_on_c, 13, 50, 0
19, 3570, Note_on_c, 13, 52, 90
19, 3599, Note_on_c, 13, 52, 0
19, 3600, Note_on_c, 13, 49, 90
19, 3629, Note_on_c, 13, 49, 0
19, 3630, Note_on_c, 13, 47, 90
19, 3659, Note_on_c, 13, 47, 0
19, 3660, Note_on_c, 13, 49, 90
19, 3689, Note_on_c, 13, 49, 0
19, 3690, Note_on_c, 13, 50, 90
19, 3719, Note_on_c, 13, 50, 0
19, 3720, Note_on_c, 13, 47, 90
19, 3749, Note_on_c, 13, 47, 0
19, 3750, Note_on_c, 13, 49, 90
19, 3779, Note_on_c, 13, 49, 0
19, 3780, Note_on_c, 13, 45, 90
19, 3809, Note_on_c, 13, 45, 0
19, 3810, Note_on_c, 13, 57, 90
19, 3839, Note_on_c, 13, 57, 0
19, 3840, Note_on_c, 13, 55, 90
19, 3869, Note_on_c, 13, 55, 0
19, 3870, Note_on_c, 13, 57, 90
19, 3899, Note_on_c, 13, 57, 0
19, 3900, Note_on_c, 13, 55, 90
19, 3929, Note_on_c, 13, 55, 0
19, 3930, Note_on_c, 13, 57, 90
19, 3959, Note_on_c, 13, 57, 0
19, 3960, Note_on_c, 13, 54, 90
19, 3989, Note_on_c, 13, 54, 0
19, 3990, Note_on_c, 13, 52, 90
19, 4019, Note_on_c, 13, 52, 0
19, 4020, Note_on_c, 13, 54, 90
19, 4049, Note_on_c, 13, 54, 0
19, 4050, Note_on_c, 13, 55, 90
19, 4079, Note_on_c, 13, 55, 0
19, 4080, Note_on_c, 13, 52, 90
19, 4109, Note_on_c, 13, 52, 0
19, 4110, Note_on_c, 13, 54, 90
19, 4139, Note_on_c, 13, 54, 0
19, 4140, Note_on_c, 13, 50, 90
19, 4169, Note_on_c, 13, 50, 0
19, 4170, Note_on_c, 13, 49, 90
19, 4199, Note_on_c, 13, 49, 0
19, 4200, Note_on_c, 13, 50, 90
19, 4229, Note_on_c, 13, 50, 0
19, 4230, Note_on_c, 13, 52, 90
19, 4259, Note_on_c, 13, 52, 0
19, 4260, Note_on_c, 13, 49, 90
19, 4289, Note_on_c, 13, 49, 0
19, 4290, Note_on_c, 13, 50, 90
19, 4319, Note_on_c, 13, 50, 0
19, 4320, Note_on_c, 13, 47, 90
19, 4349, Note_on_c, 13, 47, 0
19, 4380, Note_on_c, 13, 59, 90
19, 4409, Note_on_c, 13, 59, 0
19, 4440, Note_on_c, 13, 57, 90
19, 4469, Note_on_c, 13, 57, 0
19, 4500, Note_on_c, 13, 56, 90
19, 4574, Note_on_c, 13, 56, 0
19, 4575, Note_on_c, 13, 57, 90
19, 4589, Note_on_c, 13, 57, 0
19, 4590, Note_on_c, 13, 56, 90
19, 4604, Note_on_c, 13, 56, 0
19, 4605, Note_on_c, 13, 54, 90
19, 4619, Note_on_c, 13, 54, 0
19, 4620, Note_on_c, 13, 52, 90
19, 4634, Note_on_c, 13, 52, 0
19, 4635, Note_on_c, 13, 50, 90
19, 4649, Note_on_c, 13, 50, 0
19, 4650, Note_on_c, 13, 49, 90
19, 4664, Note_on_c, 13, 49, 0
19, 4665, Note_on_c, 13, 47, 90
19, 4679, Note_on_c, 13, 47, 0
19, 4680, Note_on_c, 13, 45, 90
19, 4709, Note_on_c, 13, 45, 0
19, 4740, Note_on_c, 13, 57, 90
19, 4769, Note_on_c, 13, 57, 0
19, 4800, Note_on_c, 13, 55, 90
19, 4829, Note_on_c, 13, 55, 0
19, 4860, Note_on_c, 13, 54, 90
19, 4934, Note_on_c, 13, 54, 0
19, 4935, Note_on_c, 13, 55, 90
19, 4949, Note_on_c, 13, 55, 0
19, 4950, Note_on_c, 13, 54, 90
19, 4964, Note_on_c, 13, 54, 0
19, 4965, Note_on_c, 13, 52, 90
19, 4979, Note_on_c, 13, 52, 0
19, 4980, Note_on_c, 13, 50, 90
19, 4994, Note_on_c, 13, 50, 0
19, 4995, Note_on_c, 13, 48, 90
19, 5009, Note_on_c, 13, 48, 0
19, 5010, Note_on_c, 13, 47, 90
19, 5024, Note_on_c, 13, 47, 0
19, 5025, Note_on_c, 13, 45, 90
19, 5039, Note_on_c, 13, 45, 0
19, 5040, Note_on_c, 13, 43, 90
19, 5069, Note_on_c, 13, 43, 0
19, 5100, Note_on_c, 13, 55, 90
19, 5129, Note_on_c, 13, 55, 0
19, 5160, Note_on_c, 13, 54, 90
19, 5189, Note_on_c, 13, 54, 0
19, 5220, Note_on_c, 13, 52, 90
19, 5249, Note_on_c, 13, 52, 0
19, 5280, Note_on_c, 13, 47, 90
19, 5309, Note_on_c, 13, 47, 0
19, 5340, Note_on_c, 13, 50, 90
19, 5369, Note_on_c, 13, 50, 0
19, 5400, Note_on_c, 13, 49, 90
19, 5429, Note_on_c, 13, 49, 0
19, 5460, Note_on_c, 13, 52, 90
19, 5489, Note_on_c, 13, 52, 0
19, 5520, Note_on_c, 13, 45, 90
19, 5549, Note_on_c, 13, 45, 0
19, 5580, Note_on_c, 13, 50, 90
19, 5609, Note_on_c, 13, 50, 0
19, 5640, Note_on_c, 13, 42, 90
19, 5669, Note_on_c, 13, 42, 0
19, 5700, Note_on_c, 13, 45, 90
19, 5729, Note_on_c, 13, 45, 0
19, 5760, Note_on_c, 13, 38, 90
19, 5819, Note_on_c, 13, 38, 0
19, 6120, Note_on_c, 13, 38, 90
19, 6179, Note_on_c, 13, 38, 0
19, 6480, Note_on_c, 13, 38, 90
19, 6539, Note_on_c, 13, 38, 0
19, 6840, Note_on_c, 13, 38, 90
19, 6899, Note_on_c, 13, 38, 0
19, 7200, Note_on_c, 13, 38, 90
19, 7259, Note_on_c, 13, 38, 0
19, 7395, Note_on_c, 13, 50, 90
19, 7409, Note_on_c, 13, 50, 0
19, 7410, Note_on_c, 13, 49, 90
19, 7424, Note_on_c, 13, 49, 0
19, 7425, Note_on_c, 13, 47, 90
19, 7439, Note_on_c, 13, 47, 0
19, 7440, Note_on_c, 13, 45, 90
19, 7454, Note_on_c, 13, 45, 0
19, 7455, Note_on_c, 13, 50, 90
19, 7469, Note_on_c, 13, 50, 0
19, 7470, Note_on_c, 13, 49, 90
19, 7484, Note_on_c, 13, 49, 0
19, 7485, Note_on_c, 13, 47, 90
19, 7499, Note_on_c, 13, 47, 0
19, 7500, Note_on_c, 13, 45, 90
19, 7514, Note_on_c, 13, 45, 0
19, 7515, Note_on_c, 13, 43, 90
19, 7529, Note_on_c, 13, 43, 0
19, 7530, Note_on_c, 13, 42, 90
19, 7544, Note_on_c, 13, 42, 0
19, 7545, Note_on_c, 13, 40, 90
19, 7559, Note_on_c, 13, 40, 0
19, 7560, Note_on_c, 13, 38, 90
19, 7619, Note_on_c, 13, 38, 0
19, 7620, Note_on_c, 13, 42, 90
19, 7679, Note_on_c, 13, 42, 0
19, 7680, Note_on_c, 13, 38, 90
19, 7739, Note_on_c, 13, 38, 0
19, 7740, Note_on_c, 13, 45, 90
19, 7859, Note_on_c, 13, 45, 0
19, 7920, Note_on_c, 13, 45, 90
19, 7979, Note_on_c, 13, 45, 0
19, 7980, Note_on_c, 13, 49, 90
19, 8039, Note_on_c, 13, 49, 0
19, 8040, Note_on_c, 13, 45, 90
19, 8099, Note_on_c, 13, 45, 0
19, 8100, Note_on_c, 13, 50, 90
19, 8219, Note_on_c, 13, 50, 0
19, 8280, Note_on_c, 13, 50, 90
19, 8309, Note_on_c, 13, 50, 0
19, 8310, Note_on_c, 13, 52, 90
19, 8339, Note_on_c, 13, 52, 0
19, 8340, Note_on_c, 13, 54, 90
19, 8369, Note_on_c, 13, 54, 0
19, 8370, Note_on_c, 13, 52, 90
19, 8399, Note_on_c, 13, 52, 0
19, 8400, Note_on_c, 13, 54, 90
19, 8429, Note_on_c, 13, 54, 0
19, 8430, Note_on_c, 13, 50, 90
19, 8459, Note_on_c, 13, 50, 0
19, 8460, Note_on_c, 13, 55, 90
19, 8489, Note_on_c, 13, 55, 0
19, 8490, Note_on_c, 13, 57, 90
19, 8519, Note_on_c, 13, 57, 0
19, 8520, Note_on_c, 13, 54, 90
19, 8549, Note_on_c, 13, 54, 0
19, 8550, Note_on_c, 13, 55, 90
19, 8579, Note_on_c, 13, 55, 0
19, 8580, Note_on_c, 13, 52, 90
19, 8609, Note_on_c, 13, 52, 0
19, 8610, Note_on_c, 13, 54, 90
19, 8639, Note_on_c, 13, 54, 0
19, 8640, Note_on_c, 13, 50, 90
19, 8669, Note_on_c, 13, 50, 0
19, 8670, Note_on_c, 13, 62, 90
19, 8699, Note_on_c, 13, 62, 0
19, 8700, Note_on_c, 13, 61, 90
19, 8729, Note_on_c, 13, 61, 0
19, 8730, Note_on_c, 13, 62, 90
19, 8759, Note_on_c, 13, 62, 0
19, 8760, Note_on_c, 13, 59, 90
19, 8789, Note_on_c, 13, 59, 0
19, 8790, Note_on_c, 13, 61, 90
19, 8819, Note_on_c, 13, 61, 0
19, 8820, Note_on_c, 13, 57, 90
19, 8879, Note_on_c, 13, 57, 0
19, 8880, Note_on_c, 13, 45, 90
19, 8939, Note_on_c, 13, 45, 0
19, 9030, Note_on_c, 13, 57, 90
19, 9059, Note_on_c, 13, 57, 0
19, 9060, Note_on_c, 13, 55, 90
19, 9089, Note_on_c, 13, 55, 0
19, 9090, Note_on_c, 13, 57, 90
19, 9119, Note_on_c, 13, 57, 0
19, 9120, Note_on_c, 13, 54, 90
19, 9149, Note_on_c, 13, 54, 0
19, 9150, Note_on_c, 13, 55, 90
19, 9179, Note_on_c, 13, 55, 0
19, 9180, Note_on_c, 13, 52, 90
19, 9209, Note_on_c, 13, 52, 0
19, 9210, Note_on_c, 13, 51, 90
19, 9239, Note_on_c, 13, 51, 0
19, 9240, Note_on_c, 13, 52, 90
19, 9269, Note_on_c, 13, 52, 0
19, 9270, Note_on_c, 13, 55, 90
19, 9299, Note_on_c, 13, 55, 0
19, 9300, Note_on_c, 13, 54, 90
19, 9329, Note_on_c, 13, 54, 0
19, 9330, Note_on_c, 13, 57, 90
19, 9359, Note_on_c, 13, 57, 0
19, 9360, Note_on_c, 13, 55, 90
19, 9389, Note_on_c, 13, 55, 0
19, 9390, Note_on_c, 13, 54, 90
19, 9419, Note_on_c, 13, 54, 0
19, 9420, Note_on_c, 13, 55, 90
19, 9449, Note_on_c, 13, 55, 0
19, 9450, Note_on_c, 13, 59, 90
19, 9479, Note_on_c, 13, 59, 0
19, 9480, Note_on_c, 13, 57, 90
19, 9509, Note_on_c, 13, 57, 0
19, 9510, Note_on_c, 13, 61, 90
19, 9539, Note_on_c, 13, 61, 0
19, 9540, Note_on_c, 13, 59, 90
19, 9569, Note_on_c, 13, 59, 0
19, 9570, Note_on_c, 13, 57, 90
19, 9599, Note_on_c, 13, 57, 0
19, 9600, Note_on_c, 13, 59, 90
19, 9629, Note_on_c, 13, 59, 0
19, 9630, Note_on_c, 13, 62, 90
19, 9659, Note_on_c, 13, 62, 0
19, 9660, Note_on_c, 13, 61, 90
19, 9689, Note_on_c, 13, 61, 0
19, 9690, Note_on_c, 13, 64, 90
19, 9719, Note_on_c, 13, 64, 0
19, 9720, Note_on_c, 13, 62, 90
19, 9749, Note_on_c, 13, 62, 0
19, 9750, Note_on_c, 13, 64, 90
19, 9779, Note_on_c, 13, 64, 0
19, 9780, Note_on_c, 13, 61, 90
19, 9809, Note_on_c, 13, 61, 0
19, 9810, Note_on_c, 13, 62, 90
19, 9839, Note_on_c, 13, 62, 0
19, 9840, Note_on_c, 13, 59, 90
19, 9869, Note_on_c, 13, 59, 0
19, 9870, Note_on_c, 13, 61, 90
19, 9899, Note_on_c, 13, 61, 0
19, 9900, Note_on_c, 13, 57, 90
19, 9959, Note_on_c, 13, 57, 0
19, 9960, Note_on_c, 13, 45, 90
19, 9989, Note_on_c, 13, 45, 0
19, 9990, Note_on_c, 13, 49, 90
19, 10019, Note_on_c, 13, 49, 0
19, 10020, Note_on_c, 13, 47, 90
19, 10049, Note_on_c, 13, 47, 0
19, 10050, Note_on_c, 13, 50, 90
19, 10079, Note_on_c, 13, 50, 0
19, 10080, Note_on_c, 13, 49, 90
19, 10109, Note_on_c, 13, 49, 0
19, 10110, Note_on_c, 13, 47, 90
19, 10139, Note_on_c, 13, 47, 0
19, 10140, Note_on_c, 13, 49, 90
19, 10169, Note_on_c, 13, 49, 0
19, 10170, Note_on_c, 13, 52, 90
19, 10199, Note_on_c, 13, 52, 0
19, 10200, Note_on_c, 13, 51, 90
19, 10229, Note_on_c, 13, 51, 0
19, 10230, Note_on_c, 13, 54, 90
19, 10259, Note_on_c, 13, 54, 0
19, 10260, Note_on_c, 13, 52, 90
19, 10289, Note_on_c, 13, 52, 0
19, 10290, Note_on_c, 13, 50, 90
19, 10319, Note_on_c, 13, 50, 0
19, 10320, Note_on_c, 13, 52, 90
19, 10349, Note_on_c, 13, 52, 0
19, 10350, Note_on_c, 13, 55, 90
19, 10379, Note_on_c, 13, 55, 0
19, 10380, Note_on_c, 13, 54, 90
19, 10409, Note_on_c, 13, 54, 0
19, 10410, Note_on_c, 13, 57, 90
19, 10439, Note_on_c, 13, 57, 0
19, 10440, Note_on_c, 13, 55, 90
19, 10469, Note_on_c, 13, 55, 0
19, 10470, Note_on_c, 13, 57, 90
19, 10499, Note_on_c, 13, 57, 0
19, 10500, Note_on_c, 13, 54, 90
19, 10529, Note_on_c, 13, 54, 0
19, 10530, Note_on_c, 13, 55, 90
19, 10559, Note_on_c, 13, 55, 0
19, 10560, Note_on_c, 13, 52, 90
19, 10589, Note_on_c, 13, 52, 0
19, 10590, Note_on_c, 13, 54, 90
19, 10619, Note_on_c, 13, 54, 0
19, 10620, Note_on_c, 13, 50, 90
19, 10649, Note_on_c, 13, 50, 0
19, 10650, Note_on_c, 13, 49, 90
19, 10679, Note_on_c, 13, 49, 0
19, 10680, Note_on_c, 13, 50, 90
19, 10709, Note_on_c, 13, 50, 0
19, 10710, Note_on_c, 13, 54, 90
19, 10739, Note_on_c, 13, 54, 0
19, 10740, Note_on_c, 13, 52, 90
19, 10769, Note_on_c, 13, 52, 0
19, 10770, Note_on_c, 13, 55, 90
19, 10799, Note_on_c, 13, 55, 0
19, 10800, Note_on_c, 13, 54, 90
19, 10829, Note_on_c, 13, 54, 0
19, 10830, Note_on_c, 13, 52, 90
19, 10859, Note_on_c, 13, 52, 0
19, 10860, Note_on_c, 13, 54, 90
19, 10889, Note_on_c, 13, 54, 0
19, 10890, Note_on_c, 13, 57, 90
19, 10919, Note_on_c, 13, 57, 0
19, 10920, Note_on_c, 13, 56, 90
19, 10949, Note_on_c, 13, 56, 0
19, 10950, Note_on_c, 13, 59, 90
19, 10979, Note_on_c, 13, 59, 0
19, 10980, Note_on_c, 13, 57, 90
19, 11009, Note_on_c, 13, 57, 0
19, 11010, Note_on_c, 13, 56, 90
19, 11039, Note_on_c, 13, 56, 0
19, 11040, Note_on_c, 13, 57, 90
19, 11069, Note_on_c, 13, 57, 0
19, 11070, Note_on_c, 13, 59, 90
19, 11099, Note_on_c, 13, 59, 0
19, 11100, Note_on_c, 13, 57, 90
19, 11129, Note_on_c, 13, 57, 0
19, 11130, Note_on_c, 13, 59, 90
19, 11159, Note_on_c, 13, 59, 0
19, 11160, Note_on_c, 13, 55, 90
19, 11189, Note_on_c, 13, 55, 0
19, 11190, Note_on_c, 13, 54, 90
19, 11219, Note_on_c, 13, 54, 0
19, 11220, Note_on_c, 13, 55, 90
19, 11249, Note_on_c, 13, 55, 0
19, 11250, Note_on_c, 13, 57, 90
19, 11279, Note_on_c, 13, 57, 0
19, 11280, Note_on_c, 13, 54, 90
19, 11309, Note_on_c, 13, 54, 0
19, 11310, Note_on_c, 13, 55, 90
19, 11339, Note_on_c, 13, 55, 0
19, 11340, Note_on_c, 13, 52, 90
19, 11369, Note_on_c, 13, 52, 0
19, 11370, Note_on_c, 13, 50, 90
19, 11399, Note_on_c, 13, 50, 0
19, 11400, Note_on_c, 13, 52, 90
19, 11429, Note_on_c, 13, 52, 0
19, 11430, Note_on_c, 13, 54, 90
19, 11459, Note_on_c, 13, 54, 0
19, 11460, Note_on_c, 13, 50, 90
19, 11489, Note_on_c, 13, 50, 0
19, 11490, Note_on_c, 13, 52, 90
19, 11519, Note_on_c, 13, 52, 0
19, 11520, Note_on_c, 13, 49, 90
19, 11549, Note_on_c, 13, 49, 0
19, 11550, Note_on_c, 13, 47, 90
19, 11579, Note_on_c, 13, 47, 0
19, 11580, Note_on_c, 13, 49, 90
19, 11609, Note_on_c, 13, 49, 0
19, 11610, Note_on_c, 13, 50, 90
19, 11639, Note_on_c, 13, 50, 0
19, 11640, Note_on_c, 13, 47, 90
19, 11669, Note_on_c, 13, 47, 0
19, 11670, Note_on_c, 13, 49, 90
19, 11699, Note_on_c, 13, 49, 0
19, 11700, Note_on_c, 13, 46, 90
19, 11729, Note_on_c, 13, 46, 0
19, 11730, Note_on_c, 13, 55, 90
19, 11759, Note_on_c, 13, 55, 0
19, 11760, Note_on_c, 13, 54, 90
19, 11789, Note_on_c, 13, 54, 0
19, 11790, Note_on_c, 13, 55, 90
19, 11819, Note_on_c, 13, 55, 0
19, 11820, Note_on_c, 13, 52, 90
19, 11849, Note_on_c, 13, 52, 0
19, 11850, Note_on_c, 13, 54, 90
19, 11879, Note_on_c, 13, 54, 0
19, 11880, Note_on_c, 13, 50, 90
19, 11909, Note_on_c, 13, 50, 0
19, 11910, Note_on_c, 13, 49, 90
19, 11939, Note_on_c, 13, 49, 0
19, 11940, Note_on_c, 13, 50, 90
19, 11969, Note_on_c, 13, 50, 0
19, 11970, Note_on_c, 13, 52, 90
19, 11999, Note_on_c, 13, 52, 0
19, 12000, Note_on_c, 13, 49, 90
19, 12029, Note_on_c, 13, 49, 0
19, 12030, Note_on_c, 13, 50, 90
19, 12059, Note_on_c, 13, 50, 0
19, 12060, Note_on_c, 13, 47, 90
19, 12089, Note_on_c, 13, 47, 0
19, 12090, Note_on_c, 13, 46, 90
19, 12119, Note_on_c, 13, 46, 0
19, 12120, Note_on_c, 13, 47, 90
19, 12149, Note_on_c, 13, 47, 0
19, 12150, Note_on_c, 13, 49, 90
19, 12179, Note_on_c, 13, 49, 0
19, 12180, Note_on_c, 13, 45, 90
19, 12209, Note_on_c, 13, 45, 0
19, 12210, Note_on_c, 13, 47, 90
19, 12239, Note_on_c, 13, 47, 0
19, 12240, Note_on_c, 13, 44, 90
19, 12269, Note_on_c, 13, 44, 0
19, 12270, Note_on_c, 13, 42, 90
19, 12299, Note_on_c, 13, 42, 0
19, 12300, Note_on_c, 13, 44, 90
19, 12329, Note_on_c, 13, 44, 0
19, 12330, Note_on_c, 13, 45, 90
19, 12359, Note_on_c, 13, 45, 0
19, 12360, Note_on_c, 13, 42, 90
19, 12389, Note_on_c, 13, 42, 0
19, 12390, Note_on_c, 13, 44, 90
19, 12419, Note_on_c, 13, 44, 0
19, 12420, Note_on_c, 13, 40, 90
19, 12449, Note_on_c, 13, 40, 0
19, 12450, Note_on_c, 13, 54, 90
19, 12479, Note_on_c, 13, 54, 0
19, 12480, Note_on_c, 13, 52, 90
19, 12509, Note_on_c, 13, 52, 0
19, 12510, Note_on_c, 13, 54, 90
19, 12539, Note_on_c, 13, 54, 0
19, 12540, Note_on_c, 13, 50, 90
19, 12569, Note_on_c, 13, 50, 0
19, 12570, Note_on_c, 13, 52, 90
19, 12599, Note_on_c, 13, 52, 0
19, 12600, Note_on_c, 13, 49, 90
19, 12629, Note_on_c, 13, 49, 0
19, 12630, Note_on_c, 13, 47, 90
19, 12659, Note_on_c, 13, 47, 0
19, 12660, Note_on_c, 13, 49, 90
19, 12689, Note_on_c, 13, 49, 0
19, 12690, Note_on_c, 13, 50, 90
19, 12719, Note_on_c, 13, 50, 0
19, 12720, Note_on_c, 13, 47, 90
19, 12749, Note_on_c, 13, 47, 0
19, 12750, Note_on_c, 13, 49, 90
19, 12779, Note_on_c, 13, 49, 0
19, 12780, Note_on_c, 13, 45, 90
19, 12809, Note_on_c, 13, 45, 0
19, 12810, Note_on_c, 13, 44, 90
19, 12839, Note_on_c, 13, 44, 0
19, 12840, Note_on_c, 13, 45, 90
19, 12869, Note_on_c, 13, 45, 0
19, 12870, Note_on_c, 13, 47, 90
19, 12899, Note_on_c, 13, 47, 0
19, 12900, Note_on_c, 13, 44, 90
19, 12929, Note_on_c, 13, 44, 0
19, 12930, Note_on_c, 13, 45, 90
19, 12959, Note_on_c, 13, 45, 0
19, 12960, Note_on_c, 13, 42, 90
19, 12989, Note_on_c, 13, 42, 0
19, 13020, Note_on_c, 13, 54, 90
19, 13049, Note_on_c, 13, 54, 0
19, 13080, Note_on_c, 13, 52, 90
19, 13109, Note_on_c, 13, 52, 0
19, 13140, Note_on_c, 13, 51, 90
19, 13214, Note_on_c, 13, 51, 0
19, 13215, Note_on_c, 13, 52, 90
19, 13229, Note_on_c, 13, 52, 0
19, 13230, Note_on_c, 13, 51, 90
19, 13244, Note_on_c, 13, 51, 0
19, 13245, Note_on_c, 13, 49, 90
19, 13259, Note_on_c, 13, 49, 0
19, 13260, Note_on_c, 13, 47, 90
19, 13274, Note_on_c, 13, 47, 0
19, 13275, Note_on_c, 13, 45, 90
19, 13289, Note_on_c, 13, 45, 0
19, 13290, Note_on_c, 13, 44, 90
19, 13304, Note_on_c, 13, 44, 0
19, 13305, Note_on_c, 13, 42, 90
19, 13319, Note_on_c, 13, 42, 0
19, 13320, Note_on_c, 13, 40, 90
19, 13349, Note_on_c, 13, 40, 0
19, 13380, Note_on_c, 13, 52, 90
19, 13409, Note_on_c, 13, 52, 0
19, 13440, Note_on_c, 13, 50, 90
19, 13469, Note_on_c, 13, 50, 0
19, 13500, Note_on_c, 13, 49, 90
19, 13574, Note_on_c, 13, 49, 0
19, 13575, Note_on_c, 13, 50, 90
19, 13589, Note_on_c, 13, 50, 0
19, 13590, Note_on_c, 13, 49, 90
19, 13604, Note_on_c, 13, 49, 0
19, 13605, Note_on_c, 13, 47, 90
19, 13619, Note_on_c, 13, 47, 0
19, 13620, Note_on_c, 13, 45, 90
19, 13634, Note_on_c, 13, 45, 0
19, 13635, Note_on_c, 13, 43, 90
19, 13649, Note_on_c, 13, 43, 0
19, 13650, Note_on_c, 13, 42, 90
19, 13664, Note_on_c, 13, 42, 0
19, 13665, Note_on_c, 13, 40, 90
19, 13679, Note_on_c, 13, 40, 0
19, 13680, Note_on_c, 13, 38, 90
19, 13709, Note_on_c, 13, 38, 0
19, 13740, Note_on_c, 13, 50, 90
19, 13769, Note_on_c, 13, 50, 0
19, 13800, Note_on_c, 13, 49, 90
19, 13829, Note_on_c, 13, 49, 0
19, 13860, Note_on_c, 13, 47, 90
19, 13889, Note_on_c, 13, 47, 0
19, 13920, Note_on_c, 13, 42, 90
19, 13949, Note_on_c, 13, 42, 0
19, 13980, Note_on_c, 13, 45, 90
19, 14009, Note_on_c, 13, 45, 0
19, 14040, Note_on_c, 13, 44, 90
19, 14069, Note_on_c, 13, 44, 0
19, 14100, Note_on_c, 13, 42, 90
19, 14129, Note_on_c, 13, 42, 0
19, 14160, Note_on_c, 13, 40, 90
19, 14189, Note_on_c, 13, 40, 0
19, 14220, Note_on_c, 13, 45, 90
19, 14249, Note_on_c, 13, 45, 0
19, 14280, Note_on_c, 13, 38, 90
19, 14309, Note_on_c, 13, 38, 0
19, 14340, Note_on_c, 13, 40, 90
19, 14369, Note_on_c, 13, 40, 0
19, 14400, Note_on_c, 13, 45, 90
19, 14429, Note_on_c, 13, 45, 0
19, 14460, Note_on_c, 13, 49, 90
19, 14519, Note_on_c, 13, 49, 0
19, 14520, Note_on_c, 13, 45, 90
19, 14579, Note_on_c, 13, 45, 0
19, 14580, Note_on_c, 13, 52, 90
19, 14639, Note_on_c, 13, 52, 0
19, 14760, Note_on_c, 13, 52, 90
19, 14819, Note_on_c, 13, 52, 0
19, 14820, Note_on_c, 13, 56, 90
19, 14879, Note_on_c, 13, 56, 0
19, 14880, Note_on_c, 13, 52, 90
19, 14939, Note_on_c, 13, 52, 0
19, 14940, Note_on_c, 13, 57, 90
19, 14999, Note_on_c, 13, 57, 0
19, 15120, Note_on_c, 13, 58, 90
19, 15149, Note_on_c, 13, 58, 0
19, 15150, Note_on_c, 13, 58, 90
19, 15179, Note_on_c, 13, 58, 0
19, 15180, Note_on_c, 13, 58, 90
19, 15209, Note_on_c, 13, 58, 0
19, 15210, Note_on_c, 13, 58, 90
19, 15239, Note_on_c, 13, 58, 0
19, 15240, Note_on_c, 13, 58, 90
19, 15269, Note_on_c, 13, 58, 0
19, 15270, Note_on_c, 13, 58, 90
19, 15299, Note_on_c, 13, 58, 0
19, 15300, Note_on_c, 13, 59, 90
19, 15329, Note_on_c, 13, 59, 0
19, 15360, Note_on_c, 13, 47, 90
19, 15389, Note_on_c, 13, 47, 0
19, 15420, Note_on_c, 13, 59, 90
19, 15449, Note_on_c, 13, 59, 0
19, 15480, Note_on_c, 13, 54, 90
19, 15509, Note_on_c, 13, 54, 0
19, 15540, Note_on_c, 13, 42, 90
19, 15569, Note_on_c, 13, 42, 0
19, 15600, Note_on_c, 13, 43, 90
19, 15629, Note_on_c, 13, 43, 0
19, 15660, Note_on_c, 13, 45, 90
19, 15689, Note_on_c, 13, 45, 0
19, 15720, Note_on_c, 13, 49, 90
19, 15749, Note_on_c, 13, 49, 0
19, 15780, Note_on_c, 13, 45, 90
19, 15809, Note_on_c, 13, 45, 0
19, 15840, Note_on_c, 13, 50, 90
19, 15899, Note_on_c, 13, 50, 0
19, 16200, Note_on_c, 13, 38, 90
19, 16259, Note_on_c, 13, 38, 0
19, 16560, Note_on_c, 13, 50, 90
19, 16619, Note_on_c, 13, 50, 0
19, 16920, Note_on_c, 13, 38, 90
19, 16979, Note_on_c, 13, 38, 0
19, 17280, Note_on_c, 13, 50, 90
19, 17339, Note_on_c, 13, 50, 0
19, 17475, Note_on_c, 13, 50, 90
19, 17489, Note_on_c, 13, 50, 0
19, 17490, Note_on_c, 13, 49, 90
19, 17504, Note_on_c, 13, 49, 0
19, 17505, Note_on_c, 13, 47, 90
19, 17519, Note_on_c, 13, 47, 0
19, 17520, Note_on_c, 13, 45, 90
19, 17534, Note_on_c, 13, 45, 0
19, 17535, Note_on_c, 13, 50, 90
19, 17549, Note_on_c, 13, 50, 0
19, 17550, Note_on_c, 13, 49, 90
19, 17564, Note_on_c, 13, 49, 0
19, 17565, Note_on_c, 13, 47, 90
19, 17579, Note_on_c, 13, 47, 0
19, 17580, Note_on_c, 13, 45, 90
19, 17594, Note_on_c, 13, 45, 0
19, 17595, Note_on_c, 13, 43, 90
19, 17609, Note_on_c, 13, 43, 0
19, 17610, Note_on_c, 13, 42, 90
19, 17624, Note_on_c, 13, 42, 0
19, 17625, Note_on_c, 13, 40, 90
19, 17639, Note_on_c, 13, 40, 0
19, 17640, Note_on_c, 13, 38, 90
19, 17699, Note_on_c, 13, 38, 0
19, 17700, Note_on_c, 13, 42, 90
19, 17759, Note_on_c, 13, 42, 0
19, 17760, Note_on_c, 13, 38, 90
19, 17819, Note_on_c, 13, 38, 0
19, 17820, Note_on_c, 13, 45, 90
19, 17939, Note_on_c, 13, 45, 0
19, 18000, Note_on_c, 13, 45, 90
19, 18059, Note_on_c, 13, 45, 0
19, 18060, Note_on_c, 13, 49, 90
19, 18119, Note_on_c, 13, 49, 0
19, 18120, Note_on_c, 13, 45, 90
19, 18179, Note_on_c, 13, 45, 0
19, 18180, Note_on_c, 13, 50, 90
19, 18299, Note_on_c, 13, 50, 0
19, 18360, Note_on_c, 13, 50, 90
19, 18389, Note_on_c, 13, 50, 0
19, 18390, Note_on_c, 13, 52, 90
19, 18419, Note_on_c, 13, 52, 0
19, 18420, Note_on_c, 13, 54, 90
19, 18449, Note_on_c, 13, 54, 0
19, 18450, Note_on_c, 13, 52, 90
19, 18479, Note_on_c, 13, 52, 0
19, 18480, Note_on_c, 13, 54, 90
19, 18509, Note_on_c, 13, 54, 0
19, 18510, Note_on_c, 13, 50, 90
19, 18539, Note_on_c, 13, 50, 0
19, 18540, Note_on_c, 13, 55, 90
19, 18569, Note_on_c, 13, 55, 0
19, 18570, Note_on_c, 13, 57, 90
19, 18599, Note_on_c, 13, 57, 0
19, 18600, Note_on_c, 13, 54, 90
19, 18629, Note_on_c, 13, 54, 0
19, 18630, Note_on_c, 13, 55, 90
19, 18659, Note_on_c, 13, 55, 0
19, 18660, Note_on_c, 13, 52, 90
19, 18689, Note_on_c, 13, 52, 0
19, 18690, Note_on_c, 13, 54, 90
19, 18719, Note_on_c, 13, 54, 0
19, 18720, Note_on_c, 13, 50, 90
19, 18749, Note_on_c, 13, 50, 0
19, 18750, Note_on_c, 13, 62, 90
19, 18779, Note_on_c, 13, 62, 0
19, 18780, Note_on_c, 13, 61, 90
19, 18809, Note_on_c, 13, 61, 0
19, 18810, Note_on_c, 13, 62, 90
19, 18839, Note_on_c, 13, 62, 0
19, 18840, Note_on_c, 13, 59, 90
19, 18869, Note_on_c, 13, 59, 0
19, 18870, Note_on_c, 13, 61, 90
19, 18899, Note_on_c, 13, 61, 0
19, 18900, Note_on_c, 13, 57, 90
19, 18929, Note_on_c, 13, 57, 0
19, 18930, Note_on_c, 13, 59, 90
19, 18959, Note_on_c, 13, 59, 0
19, 18960, Note_on_c, 13, 55, 90
19, 18989, Note_on_c, 13, 55, 0
19, 18990, Note_on_c, 13, 57, 90
19, 19019, Note_on_c, 13, 57, 0
19, 19020, Note_on_c, 13, 54, 90
19, 19049, Note_on_c, 13, 54, 0
19, 19050, Note_on_c, 13, 55, 90
19, 19079, Note_on_c, 13, 55, 0
19, 19080, Note_on_c, 13, 52, 90
19, 19109, Note_on_c, 13, 52, 0
19, 19110, Note_on_c, 13, 54, 90
19, 19139, Note_on_c, 13, 54, 0
19, 19140, Note_on_c, 13, 50, 90
19, 19169, Note_on_c, 13, 50, 0
19, 19170, Note_on_c, 13, 52, 90
19, 19199, Note_on_c, 13, 52, 0
19, 19200, Note_on_c, 13, 49, 90
19, 19229, Note_on_c, 13, 49, 0
19, 19230, Note_on_c, 13, 50, 90
19, 19259, Note_on_c, 13, 50, 0
19, 19260, Note_on_c, 13, 47, 90
19, 19289, Note_on_c, 13, 47, 0
19, 19290, Note_on_c, 13, 59, 90
19, 19319, Note_on_c, 13, 59, 0
19, 19320, Note_on_c, 13, 57, 90
19, 19349, Note_on_c, 13, 57, 0
19, 19350, Note_on_c, 13, 59, 90
19, 19379, Note_on_c, 13, 59, 0
19, 19380, Note_on_c, 13, 55, 90
19, 19409, Note_on_c, 13, 55, 0
19, 19410, Note_on_c, 13, 57, 90
19, 19439, Note_on_c, 13, 57, 0
19, 19440, Note_on_c, 13, 54, 90
19, 19469, Note_on_c, 13, 54, 0
19, 19470, Note_on_c, 13, 55, 90
19, 19499, Note_on_c, 13, 55, 0
19, 19500, Note_on_c, 13, 52, 90
19, 19529, Note_on_c, 13, 52, 0
19, 19530, Note_on_c, 13, 54, 90
19, 19559, Note_on_c, 13, 54, 0
19, 19560, Note_on_c, 13, 50, 90
19, 19589, Note_on_c, 13, 50, 0
19, 19590, Note_on_c, 13, 52, 90
19, 19619, Note_on_c, 13, 52, 0
19, 19620, Note_on_c, 13, 49, 90
19, 19649, Note_on_c, 13, 49, 0
19, 19650, Note_on_c, 13, 47, 90
19, 19679, Note_on_c, 13, 47, 0
19, 19680, Note_on_c, 13, 49, 90
19, 19709, Note_on_c, 13, 49, 0
19, 19710, Note_on_c, 13, 52, 90
19, 19739, Note_on_c, 13, 52, 0
19, 19740, Note_on_c, 13, 51, 90
19, 19769, Note_on_c, 13, 51, 0
19, 19770, Note_on_c, 13, 54, 90
19, 19799, Note_on_c, 13, 54, 0
19, 19800, Note_on_c, 13, 52, 90
19, 19829, Note_on_c, 13, 52, 0
19, 19830, Note_on_c, 13, 54, 90
19, 19859, Note_on_c, 13, 54, 0
19, 19860, Note_on_c, 13, 50, 90
19, 19889, Note_on_c, 13, 50, 0
19, 19890, Note_on_c, 13, 52, 90
19, 19919, Note_on_c, 13, 52, 0
19, 19920, Note_on_c, 13, 49, 90
19, 19949, Note_on_c, 13, 49, 0
19, 19950, Note_on_c, 13, 50, 90
19, 19979, Note_on_c, 13, 50, 0
19, 19980, Note_on_c, 13, 47, 90
19, 20009, Note_on_c, 13, 47, 0
19, 20010, Note_on_c, 13, 49, 90
19, 20039, Note_on_c, 13, 49, 0
19, 20040, Note_on_c, 13, 45, 90
19, 20069, Note_on_c, 13, 45, 0
19, 20070, Note_on_c, 13, 47, 90
19, 20099, Note_on_c, 13, 47, 0
19, 20100, Note_on_c, 13, 43, 90
19, 20129, Note_on_c, 13, 43, 0
19, 20130, Note_on_c, 13, 45, 90
19, 20159, Note_on_c, 13, 45, 0
19, 20160, Note_on_c, 13, 42, 90
19, 20189, Note_on_c, 13, 42, 0
19, 20190, Note_on_c, 13, 40, 90
19, 20219, Note_on_c, 13, 40, 0
19, 20220, Note_on_c, 13, 42, 90
19, 20249, Note_on_c, 13, 42, 0
19, 20250, Note_on_c, 13, 45, 90
19, 20279, Note_on_c, 13, 45, 0
19, 20280, Note_on_c, 13, 44, 90
19, 20309, Note_on_c, 13, 44, 0
19, 20310, Note_on_c, 13, 47, 90
19, 20339, Note_on_c, 13, 47, 0
19, 20340, Note_on_c, 13, 45, 90
19, 20369, Note_on_c, 13, 45, 0
19, 20370, Note_on_c, 13, 49, 90
19, 20399, Note_on_c, 13, 49, 0
19, 20400, Note_on_c, 13, 47, 90
19, 20429, Note_on_c, 13, 47, 0
19, 20430, Note_on_c, 13, 50, 90
19, 20459, Note_on_c, 13, 50, 0
19, 20460, Note_on_c, 13, 49, 90
19, 20489, Note_on_c, 13, 49, 0
19, 20490, Note_on_c, 13, 52, 90
19, 20519, Note_on_c, 13, 52, 0
19, 20520, Note_on_c, 13, 50, 90
19, 20549, Note_on_c, 13, 50, 0
19, 20550, Note_on_c, 13, 52, 90
19, 20579, Note_on_c, 13, 52, 0
19, 20580, Note_on_c, 13, 49, 90
19, 20609, Note_on_c, 13, 49, 0
19, 20610, Note_on_c, 13, 50, 90
19, 20639, Note_on_c, 13, 50, 0
19, 20640, Note_on_c, 13, 47, 90
19, 20669, Note_on_c, 13, 47, 0
19, 20670, Note_on_c, 13, 49, 90
19, 20699, Note_on_c, 13, 49, 0
19, 20700, Note_on_c, 13, 45, 90
19, 20729, Note_on_c, 13, 45, 0
19, 20730, Note_on_c, 13, 57, 90
19, 20759, Note_on_c, 13, 57, 0
19, 20760, Note_on_c, 13, 55, 90
19, 20789, Note_on_c, 13, 55, 0
19, 20790, Note_on_c, 13, 57, 90
19, 20819, Note_on_c, 13, 57, 0
19, 20820, Note_on_c, 13, 54, 90
19, 20849, Note_on_c, 13, 54, 0
19, 20850, Note_on_c, 13, 55, 90
19, 20879, Note_on_c, 13, 55, 0
19, 20880, Note_on_c, 13, 52, 90
19, 20909, Note_on_c, 13, 52, 0
19, 20910, Note_on_c, 13, 50, 90
19, 20939, Note_on_c, 13, 50, 0
19, 20940, Note_on_c, 13, 52, 90
19, 20969, Note_on_c, 13, 52, 0
19, 20970, Note_on_c, 13, 55, 90
19, 20999, Note_on_c, 13, 55, 0
19, 21000, Note_on_c, 13, 54, 90
19, 21029, Note_on_c, 13, 54, 0
19, 21030, Note_on_c, 13, 57, 90
19, 21059, Note_on_c, 13, 57, 0
19, 21060, Note_on_c, 13, 55, 90
19, 21089, Note_on_c, 13, 55, 0
19, 21090, Note_on_c, 13, 57, 90
19, 21119, Note_on_c, 13, 57, 0
19, 21120, Note_on_c, 13, 54, 90
19, 21149, Note_on_c, 13, 54, 0
19, 21150, Note_on_c, 13, 55, 90
19, 21179, Note_on_c, 13, 55, 0
19, 21180, Note_on_c, 13, 52, 90
19, 21209, Note_on_c, 13, 52, 0
19, 21210, Note_on_c, 13, 54, 90
19, 21239, Note_on_c, 13, 54, 0
19, 21240, Note_on_c, 13, 50, 90
19, 21269, Note_on_c, 13, 50, 0
19, 21270, Note_on_c, 13, 62, 90
19, 21299, Note_on_c, 13, 62, 0
19, 21300, Note_on_c, 13, 61, 90
19, 21329, Note_on_c, 13, 61, 0
19, 21330, Note_on_c, 13, 62, 90
19, 21359, Note_on_c, 13, 62, 0
19, 21360, Note_on_c, 13, 59, 90
19, 21389, Note_on_c, 13, 59, 0
19, 21390, Note_on_c, 13, 61, 90
19, 21419, Note_on_c, 13, 61, 0
19, 21420, Note_on_c, 13, 57, 90
19, 21449, Note_on_c, 13, 57, 0
19, 21450, Note_on_c, 13, 55, 90
19, 21479, Note_on_c, 13, 55, 0
19, 21480, Note_on_c, 13, 57, 90
19, 21509, Note_on_c, 13, 57, 0
19, 21510, Note_on_c, 13, 59, 90
19, 21539, Note_on_c, 13, 59, 0
19, 21540, Note_on_c, 13, 55, 90
19, 21569, Note_on_c, 13, 55, 0
19, 21570, Note_on_c, 13, 57, 90
19, 21599, Note_on_c, 13, 57, 0
19, 21600, Note_on_c, 13, 54, 90
19, 21629, Note_on_c, 13, 54, 0
19, 21630, Note_on_c, 13, 52, 90
19, 21659, Note_on_c, 13, 52, 0
19, 21660, Note_on_c, 13, 54, 90
19, 21689, Note_on_c, 13, 54, 0
19, 21690, Note_on_c, 13, 55, 90
19, 21719, Note_on_c, 13, 55, 0
19, 21720, Note_on_c, 13, 52, 90
19, 21749, Note_on_c, 13, 52, 0
19, 21750, Note_on_c, 13, 54, 90
19, 21779, Note_on_c, 13, 54, 0
19, 21780, Note_on_c, 13, 51, 90
19, 21809, Note_on_c, 13, 51, 0
19, 21810, Note_on_c, 13, 60, 90
19, 21839, Note_on_c, 13, 60, 0
19, 21840, Note_on_c, 13, 59, 90
19, 21869, Note_on_c, 13, 59, 0
19, 21870, Note_on_c, 13, 60, 90
19, 21899, Note_on_c, 13, 60, 0
19, 21900, Note_on_c, 13, 57, 90
19, 21929, Note_on_c, 13, 57, 0
19, 21930, Note_on_c, 13, 59, 90
19, 21959, Note_on_c, 13, 59, 0
19, 21960, Note_on_c, 13, 55, 90
19, 21989, Note_on_c, 13, 55, 0
19, 21990, Note_on_c, 13, 54, 90
19, 22019, Note_on_c, 13, 54, 0
19, 22020, Note_on_c, 13, 55, 90
19, 22049, Note_on_c, 13, 55, 0
19, 22050, Note_on_c, 13, 57, 90
19, 22079, Note_on_c, 13, 57, 0
19, 22080, Note_on_c, 13, 54, 90
19, 22109, Note_on_c, 13, 54, 0
19, 22110, Note_on_c, 13, 55, 90
19, 22139, Note_on_c, 13, 55, 0
19, 22140, Note_on_c, 13, 52, 90
19, 22169, Note_on_c, 13, 52, 0
19, 22170, Note_on_c, 13, 51, 90
19, 22199, Note_on_c, 13, 51, 0
19, 22200, Note_on_c, 13, 52, 90
19, 22229, Note_on_c, 13, 52, 0
19, 22230, Note_on_c, 13, 54, 90
19, 22259, Note_on_c, 13, 54, 0
19, 22260, Note_on_c, 13, 50, 90
19, 22289, Note_on_c, 13, 50, 0
19, 22290, Note_on_c, 13, 52, 90
19, 22319, Note_on_c, 13, 52, 0
19, 22320, Note_on_c, 13, 49, 90
19, 22349, Note_on_c, 13, 49, 0
19, 22350, Note_on_c, 13, 47, 90
19, 22379, Note_on_c, 13, 47, 0
19, 22380, Note_on_c, 13, 49, 90
19, 22409, Note_on_c, 13, 49, 0
19, 22410, Note_on_c, 13, 50, 90
19, 22439, Note_on_c, 13, 50, 0
19, 22440, Note_on_c, 13, 47, 90
19, 22469, Note_on_c, 13, 47, 0
19, 22470, Note_on_c, 13, 49, 90
19, 22499, Note_on_c, 13, 49, 0
19, 22500, Note_on_c, 13, 45, 90
19, 22529, Note_on_c, 13, 45, 0
19, 22530, Note_on_c, 13, 59, 90
19, 22559, Note_on_c, 13, 59, 0
19, 22560, Note_on_c, 13, 57, 90
19, 22589, Note_on_c, 13, 57, 0
19, 22590, Note_on_c, 13, 59, 90
19, 22619, Note_on_c, 13, 59, 0
19, 22620, Note_on_c, 13, 55, 90
19, 22649, Note_on_c, 13, 55, 0
19, 22650, Note_on_c, 13, 57, 90
19, 22679, Note_on_c, 13, 57, 0
19, 22680, Note_on_c, 13, 54, 90
19, 22709, Note_on_c, 13, 54, 0
19, 22710, Note_on_c, 13, 52, 90
19, 22739, Note_on_c, 13, 52, 0
19, 22740, Note_on_c, 13, 54, 90
19, 22769, Note_on_c, 13, 54, 0
19, 22770, Note_on_c, 13, 55, 90
19, 22799, Note_on_c, 13, 55, 0
19, 22800, Note_on_c, 13, 52, 90
19, 22829, Note_on_c, 13, 52, 0
19, 22830, Note_on_c, 13, 54, 90
19, 22859, Note_on_c, 13, 54, 0
19, 22860, Note_on_c, 13, 50, 90
19, 22889, Note_on_c, 13, 50, 0
19, 22890, Note_on_c, 13, 49, 90
19, 22919, Note_on_c, 13, 49, 0
19, 22920, Note_on_c, 13, 50, 90
19, 22949, Note_on_c, 13, 50, 0
19, 22950, Note_on_c, 13, 52, 90
19, 22979, Note_on_c, 13, 52, 0
19, 22980, Note_on_c, 13, 49, 90
19, 23009, Note_on_c, 13, 49, 0
19, 23010, Note_on_c, 13, 50, 90
19, 23039, Note_on_c, 13, 50, 0
19, 23040, Note_on_c, 13, 47, 90
19, 23069, Note_on_c, 13, 47, 0
19, 23100, Note_on_c, 13, 59, 90
19, 23129, Note_on_c, 13, 59, 0
19, 23160, Note_on_c, 13, 57, 90
19, 23189, Note_on_c, 13, 57, 0
19, 23220, Note_on_c, 13, 56, 90
19, 23294, Note_on_c, 13, 56, 0
19, 23295, Note_on_c, 13, 57, 90
19, 23309, Note_on_c, 13, 57, 0
19, 23310, Note_on_c, 13, 56, 90
19, 23324, Note_on_c, 13, 56, 0
19, 23325, Note_on_c, 13, 54, 90
19, 23339, Note_on_c, 13, 54, 0
19, 23340, Note_on_c, 13, 52, 90
19, 23354, Note_on_c, 13, 52, 0
19, 23355, Note_on_c, 13, 50, 90
19, 23369, Note_on_c, 13, 50, 0
19, 23370, Note_on_c, 13, 49, 90
19, 23384, Note_on_c, 13, 49, 0
19, 23385, Note_on_c, 13, 47, 90
19, 23399, Note_on_c, 13, 47, 0
19, 23400, Note_on_c, 13, 45, 90
19, 23429, Note_on_c, 13, 45, 0
19, 23460, Note_on_c, 13, 57, 90
19, 23489, Note_on_c, 13, 57, 0
19, 23520, Note_on_c, 13, 55, 90
19, 23549, Note_on_c, 13, 55, 0
19, 23580, Note_on_c, 13, 54, 90
19, 23654, Note_on_c, 13, 54, 0
19, 23655, Note_on_c, 13, 55, 90
19, 23669, Note_on_c, 13, 55, 0
19, 23670, Note_on_c, 13, 54, 90
19, 23684, Note_on_c, 13, 54, 0
19, 23685, Note_on_c, 13, 52, 90
19, 23699, Note_on_c, 13, 52, 0
19, 23700, Note_on_c, 13, 50, 90
19, 23714, Note_on_c, 13, 50, 0
19, 23715, Note_on_c, 13, 49, 90
19, 23729, Note_on_c, 13, 49, 0
19, 23730, Note_on_c, 13, 47, 90
19, 23744, Note_on_c, 13, 47, 0
19, 23745, Note_on_c, 13, 45, 90
19, 23759, Note_on_c, 13, 45, 0
19, 23760, Note_on_c, 13, 43, 90
19, 23819, Note_on_c, 13, 43, 0
19, 23820, Note_on_c, 13, 55, 90
19, 23849, Note_on_c, 13, 55, 0
19, 23880, Note_on_c, 13, 54, 90
19, 23909, Note_on_c, 13, 54, 0
19, 23940, Note_on_c, 13, 52, 90
19, 23969, Note_on_c, 13, 52, 0
19, 24000, Note_on_c, 13, 47, 90
19, 24029, Note_on_c, 13, 47, 0
19, 24060, Note_on_c, 13, 50, 90
19, 24089, Note_on_c, 13, 50, 0
19, 24120, Note_on_c, 13, 49, 90
19, 24149, Note_on_c, 13, 49, 0
19, 24180, Note_on_c, 13, 47, 90
19, 24209, Note_on_c, 13, 47, 0
19, 24240, Note_on_c, 13, 45, 90
19, 24269, Note_on_c, 13, 45, 0
19, 24300, Note_on_c, 13, 50, 90
19, 24329, Note_on_c, 13, 50, 0
19, 24360, Note_on_c, 13, 42, 90
19, 24389, Note_on_c, 13, 42, 0
19, 24420, Note_on_c, 13, 45, 90
19, 24449, Note_on_c, 13, 45, 0
19, 24480, Note_on_c, 13, 38, 90
19, 24539, Note_on_c, 13, 38, 0
19, 24540, Note_on_c, 13, 62, 90
19, 24599, Note_on_c, 13, 62, 0
19, 24600, Note_on_c, 13, 61, 90
19, 24659, Note_on_c, 13, 61, 0
19, 24660, Note_on_c, 13, 59, 90
19, 24719, Note_on_c, 13, 59, 0
19, 24720, Note_on_c, 13, 47, 90
19, 24779, Note_on_c, 13, 47, 0
19, 24780, Note_on_c, 13, 59, 90
19, 24839, Note_on_c, 13, 59, 0
19, 24840, Note_on_c, 13, 57, 90
19, 24899, Note_on_c, 13, 57, 0
19, 24900, Note_on_c, 13, 45, 90
19, 24959, Note_on_c, 13, 45, 0
19, 24960, Note_on_c, 13, 57, 90
19, 25019, Note_on_c, 13, 57, 0
19, 25020, Note_on_c, 13, 55, 90
19, 25079, Note_on_c, 13, 55, 0
19, 25080, Note_on_c, 13, 43, 90
19, 25139, Note_on_c, 13, 43, 0
19, 25140, Note_on_c, 13, 55, 90
19, 25199, Note_on_c, 13, 55, 0
19, 25200, Note_on_c, 13, 54, 90
19, 25259, Note_on_c, 13, 54, 0
19, 25260, Note_on_c, 13, 42, 90
19, 25319, Note_on_c, 13, 42, 0
19, 25320, Note_on_c, 13, 54, 90
19, 25379, Note_on_c, 13, 54, 0
19, 25380, Note_on_c, 13, 59, 90
19, 25439, Note_on_c, 13, 59, 0
19, 25440, Note_on_c, 13, 55, 90
19, 25499, Note_on_c, 13, 55, 0
19, 25500, Note_on_c, 13, 52, 90
19, 25559, Note_on_c, 13, 52, 0
19, 25560, Note_on_c, 13, 57, 90
19, 25619, Note_on_c, 13, 57, 0
19, 25620, Note_on_c, 13, 59, 90
19, 25649, Note_on_c, 13, 59, 0
19, 25650, Note_on_c, 13, 61, 90
19, 25679, Note_on_c, 13, 61, 0
19, 25680, Note_on_c, 13, 62, 90
19, 25799, Note_on_c, 13, 62, 0
19, 25800, Note_on_c, 13, 61, 90
19, 25829, Note_on_c, 13, 61, 0
19, 25830, Note_on_c, 13, 59, 90
19, 25859, Note_on_c, 13, 59, 0
19, 25860, Note_on_c, 13, 57, 90
19, 25889, Note_on_c, 13, 57, 0
19, 25890, Note_on_c, 13, 55, 90
19, 25919, Note_on_c, 13, 55, 0
19, 25920, Note_on_c, 13, 54, 90
19, 25979, Note_on_c, 13, 54, 0
19, 25980, Note_on_c, 13, 56, 90
19, 26009, Note_on_c, 13, 56, 0
19, 26010, Note_on_c, 13, 58, 90
19, 26039, Note_on_c, 13, 58, 0
19, 26040, Note_on_c, 13, 59, 90
19, 26159, Note_on_c, 13, 59, 0
19, 26160, Note_on_c, 13, 57, 90
19, 26189, Note_on_c, 13, 57, 0
19, 26190, Note_on_c, 13, 55, 90
19, 26219, Note_on_c, 13, 55, 0
19, 26220, Note_on_c, 13, 54, 90
19, 26249, Note_on_c, 13, 54, 0
19, 26250, Note_on_c, 13, 52, 90
19, 26279, Note_on_c, 13, 52, 0
19, 26280, Note_on_c, 13, 50, 90
19, 26339, Note_on_c, 13, 50, 0
19, 26340, Note_on_c, 13, 52, 90
19, 26369, Note_on_c, 13, 52, 0
19, 26370, Note_on_c, 13, 54, 90
19, 26399, Note_on_c, 13, 54, 0
19, 26400, Note_on_c, 13, 55, 90
19, 26519, Note_on_c, 13, 55, 0
19, 26520, Note_on_c, 13, 54, 90
19, 26549, Note_on_c, 13, 54, 0
19, 26550, Note_on_c, 13, 52, 90
19, 26579, Note_on_c, 13, 52, 0
19, 26580, Note_on_c, 13, 50, 90
19, 26609, Note_on_c, 13, 50, 0
19, 26610, Note_on_c, 13, 49, 90
19, 26639, Note_on_c, 13, 49, 0
19, 26640, Note_on_c, 13, 47, 90
19, 26699, Note_on_c, 13, 47, 0
19, 26700, Note_on_c, 13, 49, 90
19, 26729, Note_on_c, 13, 49, 0
19, 26730, Note_on_c, 13, 50, 90
19, 26759, Note_on_c, 13, 50, 0
19, 26760, Note_on_c, 13, 52, 90
19, 26819, Note_on_c, 13, 52, 0
19, 26820, Note_on_c, 13, 45, 90
19, 26879, Note_on_c, 13, 45, 0
19, 26880, Note_on_c, 13, 47, 90
19, 26909, Note_on_c, 13, 47, 0
19, 26910, Note_on_c, 13, 49, 90
19, 26939, Note_on_c, 13, 49, 0
19, 26940, Note_on_c, 13, 50, 90
19, 26999, Note_on_c, 13, 50, 0
19, 27000, Note_on_c, 13, 43, 90
19, 27059, Note_on_c, 13, 43, 0
19, 27060, Note_on_c, 13, 55, 90
19, 27089, Note_on_c, 13, 55, 0
19, 27090, Note_on_c, 13, 54, 90
19, 27119, Note_on_c, 13, 54, 0
19, 27120, Note_on_c, 13, 55, 90
19, 27239, Note_on_c, 13, 55, 0
19, 27240, Note_on_c, 13, 54, 90
19, 27299, Note_on_c, 13, 54, 0
19, 27300, Note_on_c, 13, 59, 90
19, 27359, Note_on_c, 13, 59, 0
19, 27360, Note_on_c, 13, 52, 90
19, 27419, Note_on_c, 13, 52, 0
19, 27420, Note_on_c, 13, 57, 90
19, 27479, Note_on_c, 13, 57, 0
19, 27480, Note_on_c, 13, 45, 90
19, 27539, Note_on_c, 13, 45, 0
19, 27540, Note_on_c, 13, 62, 90
19, 27599, Note_on_c, 13, 62, 0
19, 27600, Note_on_c, 13, 50, 90
19, 27659, Note_on_c, 13, 50, 0
19, 27660, Note_on_c, 13, 62, 90
19, 27719, Note_on_c, 13, 62, 0
19, 27720, Note_on_c, 13, 61, 90
19, 27779, Note_on_c, 13, 61, 0
19, 27780, Note_on_c, 13, 49, 90
19, 27839, Note_on_c, 13, 49, 0
19, 27840, Note_on_c, 13, 61, 90
19, 27899, Note_on_c, 13, 61, 0
19, 27900, Note_on_c, 13, 59, 90
19, 27959, Note_on_c, 13, 59, 0
19, 27960, Note_on_c, 13, 47, 90
19, 28019, Note_on_c, 13, 47, 0
19, 28020, Note_on_c, 13, 59, 90
19, 28079, Note_on_c, 13, 59, 0
19, 28080, Note_on_c, 13, 57, 90
19, 28139, Note_on_c, 13, 57, 0
19, 28140, Note_on_c, 13, 45, 90
19, 28199, Note_on_c, 13, 45, 0
19, 28200, Note_on_c, 13, 57, 90
19, 28259, Note_on_c, 13, 57, 0
19, 28260, Note_on_c, 13, 50, 90
19, 28319, Note_on_c, 13, 50, 0
19, 28320, Note_on_c, 13, 38, 90
19, 28379, Note_on_c, 13, 38, 0
19, 28380, Note_on_c, 13, 50, 90
19, 28439, Note_on_c, 13, 50, 0
19, 28440, Note_on_c, 13, 55, 90
19, 28499, Note_on_c, 13, 55, 0
19, 28500, Note_on_c, 13, 52, 90
19, 28559, Note_on_c, 13, 52, 0
19, 28560, Note_on_c, 13, 49, 90
19, 28619, Note_on_c, 13, 49, 0
19, 28620, Note_on_c, 13, 54, 90
19, 28679, Note_on_c, 13, 54, 0
19, 28680, Note_on_c, 13, 55, 90
19, 28709, Note_on_c, 13, 55, 0
19, 28710, Note_on_c, 13, 57, 90
19, 28739, Note_on_c, 13, 57, 0
19, 28740, Note_on_c, 13, 59, 90
19, 28799, Note_on_c, 13, 59, 0
19, 28800, Note_on_c, 13, 52, 90
19, 28859, Note_on_c, 13, 52, 0
19, 28860, Note_on_c, 13, 57, 90
19, 28919, Note_on_c, 13, 57, 0
19, 28920, Note_on_c, 13, 45, 90
19, 28979, Note_on_c, 13, 45, 0
19, 28980, Note_on_c, 13, 50, 90
19, 29039, Note_on_c, 13, 50, 0
19, 29040, Note_on_c, 13, 52, 90
19, 29069, Note_on_c, 13, 52, 0
19, 29070, Note_on_c, 13, 54, 90
19, 29099, Note_on_c, 13, 54, 0
19, 29100, Note_on_c, 13, 55, 90
19, 29159, Note_on_c, 13, 55, 0
19, 29160, Note_on_c, 13, 49, 90
19, 29219, Note_on_c, 13, 49, 0
19, 29220, Note_on_c, 13, 54, 90
19, 29279, Note_on_c, 13, 54, 0
19, 29280, Note_on_c, 13, 42, 90
19, 29339, Note_on_c, 13, 42, 0
19, 29340, Note_on_c, 13, 47, 90
19, 29399, Note_on_c, 13, 47, 0
19, 29400, Note_on_c, 13, 49, 90
19, 29429, Note_on_c, 13, 49, 0
19, 29430, Note_on_c, 13, 50, 90
19, 29459, Note_on_c, 13, 50, 0
19, 29460, Note_on_c, 13, 52, 90
19, 29579, Note_on_c, 13, 52, 0
19, 29580, Note_on_c, 13, 50, 90
19, 29639, Note_on_c, 13, 50, 0
19, 29640, Note_on_c, 13, 55, 90
19, 29759, Note_on_c, 13, 55, 0
19, 29760, Note_on_c, 13, 54, 90
19, 29819, Note_on_c, 13, 54, 0
19, 29820, Note_on_c, 13, 59, 90
19, 29939, Note_on_c, 13, 59, 0
19, 29940, Note_on_c, 13, 57, 90
19, 29999, Note_on_c, 13, 57, 0
19, 30000, Note_on_c, 13, 62, 90
19, 30059, Note_on_c, 13, 62, 0
19, 30060, Note_on_c, 13, 56, 90
19, 30119, Note_on_c, 13, 56, 0
19, 30120, Note_on_c, 13, 58, 90
19, 30179, Note_on_c, 13, 58, 0
19, 30180, Note_on_c, 13, 59, 90
19, 30239, Note_on_c, 13, 59, 0
19, 30240, Note_on_c, 13, 55, 90
19, 30299, Note_on_c, 13, 55, 0
19, 30300, Note_on_c, 13, 52, 90
19, 30359, Note_on_c, 13, 52, 0
19, 30360, Note_on_c, 13, 54, 90
19, 30419, Note_on_c, 13, 54, 0
19, 30420, Note_on_c, 13, 47, 90
19, 30479, Note_on_c, 13, 47, 0
19, 30480, Note_on_c, 13, 50, 90
19, 30539, Note_on_c, 13, 50, 0
19, 30540, Note_on_c, 13, 47, 90
19, 30599, Note_on_c, 13, 47, 0
19, 30600, Note_on_c, 13, 54, 90
19, 30719, Note_on_c, 13, 54, 0
19, 30780, Note_on_c, 13, 54, 90
19, 30839, Note_on_c, 13, 54, 0
19, 30840, Note_on_c, 13, 58, 90
19, 30899, Note_on_c, 13, 58, 0
19, 30900, Note_on_c, 13, 54, 90
19, 30959, Note_on_c, 13, 54, 0
19, 30960, Note_on_c, 13, 59, 90
19, 31079, Note_on_c, 13, 59, 0
19, 31140, Note_on_c, 13, 51, 90
19, 31169, Note_on_c, 13, 51, 0
19, 31170, Note_on_c, 13, 52, 90
19, 31199, Note_on_c, 13, 52, 0
19, 31200, Note_on_c, 13, 51, 90
19, 31229, Note_on_c, 13, 51, 0
19, 31230, Note_on_c, 13, 49, 90
19, 31259, Note_on_c, 13, 49, 0
19, 31260, Note_on_c, 13, 51, 90
19, 31289, Note_on_c, 13, 51, 0
19, 31290, Note_on_c, 13, 47, 90
19, 31319, Note_on_c, 13, 47, 0
19, 31320, Note_on_c, 13, 52, 90
19, 31379, Note_on_c, 13, 52, 0
19, 31380, Note_on_c, 13, 40, 90
19, 31439, Note_on_c, 13, 40, 0
19, 31440, Note_on_c, 13, 52, 90
19, 31529, Note_on_c, 13, 52, 0
19, 31530, Note_on_c, 13, 55, 90
19, 31559, Note_on_c, 13, 55, 0
19, 31560, Note_on_c, 13, 54, 90
19, 31589, Note_on_c, 13, 54, 0
19, 31590, Note_on_c, 13, 52, 90
19, 31619, Note_on_c, 13, 52, 0
19, 31620, Note_on_c, 13, 54, 90
19, 31649, Note_on_c, 13, 54, 0
19, 31650, Note_on_c, 13, 50, 90
19, 31679, Note_on_c, 13, 50, 0
19, 31680, Note_on_c, 13, 55, 90
19, 31709, Note_on_c, 13, 55, 0
19, 31710, Note_on_c, 13, 57, 90
19, 31739, Note_on_c, 13, 57, 0
19, 31740, Note_on_c, 13, 55, 90
19, 31769, Note_on_c, 13, 55, 0
19, 31770, Note_on_c, 13, 54, 90
19, 31799, Note_on_c, 13, 54, 0
19, 31800, Note_on_c, 13, 52, 90
19, 31829, Note_on_c, 13, 52, 0
19, 31830, Note_on_c, 13, 50, 90
19, 31859, Note_on_c, 13, 50, 0
19, 31860, Note_on_c, 13, 49, 90
19, 31889, Note_on_c, 13, 49, 0
19, 31890, Note_on_c, 13, 47, 90
19, 31919, Note_on_c, 13, 47, 0
19, 31920, Note_on_c, 13, 46, 90
19, 31949, Note_on_c, 13, 46, 0
19, 31950, Note_on_c, 13, 44, 90
19, 31979, Note_on_c, 13, 44, 0
19, 31980, Note_on_c, 13, 46, 90
19, 32009, Note_on_c, 13, 46, 0
19, 32010, Note_on_c, 13, 42, 90
19, 32039, Note_on_c, 13, 42, 0
19, 32040, Note_on_c, 13, 47, 90
19, 32069, Note_on_c, 13, 47, 0
19, 32070, Note_on_c, 13, 54, 90
19, 32099, Note_on_c, 13, 54, 0
19, 32100, Note_on_c, 13, 59, 90
19, 32129, Note_on_c, 13, 59, 0
19, 32130, Note_on_c, 13, 57, 90
19, 32159, Note_on_c, 13, 57, 0
19, 32160, Note_on_c, 13, 55, 90
19, 32189, Note_on_c, 13, 55, 0
19, 32190, Note_on_c, 13, 54, 90
19, 32219, Note_on_c, 13, 54, 0
19, 32220, Note_on_c, 13, 52, 90
19, 32249, Note_on_c, 13, 52, 0
19, 32250, Note_on_c, 13, 50, 90
19, 32279, Note_on_c, 13, 50, 0
19, 32280, Note_on_c, 13, 49, 90
19, 32309, Note_on_c, 13, 49, 0
19, 32310, Note_on_c, 13, 47, 90
19, 32339, Note_on_c, 13, 47, 0
19, 32340, Note_on_c, 13, 49, 90
19, 32369, Note_on_c, 13, 49, 0
19, 32370, Note_on_c, 13, 45, 90
19, 32399, Note_on_c, 13, 45, 0
19, 32400, Note_on_c, 13, 50, 90
19, 32459, Note_on_c, 13, 50, 0
19, 32460, Note_on_c, 13, 50, 90
19, 32519, Note_on_c, 13, 50, 0
19, 32520, Note_on_c, 13, 50, 90
19, 32579, Note_on_c, 13, 50, 0
19, 32580, Note_on_c, 13, 50, 90
19, 32639, Note_on_c, 13, 50, 0
19, 32640, Note_on_c, 13, 49, 90
19, 32669, Note_on_c, 13, 49, 0
19, 32670, Note_on_c, 13, 47, 90
19, 32699, Note_on_c, 13, 47, 0
19, 32700, Note_on_c, 13, 49, 90
19, 32729, Note_on_c, 13, 49, 0
19, 32730, Note_on_c, 13, 50, 90
19, 32759, Note_on_c, 13, 50, 0
19, 32760, Note_on_c, 13, 52, 90
19, 32819, Note_on_c, 13, 52, 0
19, 32820, Note_on_c, 13, 52, 90
19, 32879, Note_on_c, 13, 52, 0
19, 32880, Note_on_c, 13, 52, 90
19, 32939, Note_on_c, 13, 52, 0
19, 32940, Note_on_c, 13, 52, 90
19, 32999, Note_on_c, 13, 52, 0
19, 33000, Note_on_c, 13, 50, 90
19, 33029, Note_on_c, 13, 50, 0
19, 33030, Note_on_c, 13, 49, 90
19, 33059, Note_on_c, 13, 49, 0
19, 33060, Note_on_c, 13, 50, 90
19, 33089, Note_on_c, 13, 50, 0
19, 33090, Note_on_c, 13, 52, 90
19, 33119, Note_on_c, 13, 52, 0
19, 33120, Note_on_c, 13, 54, 90
19, 33179, Note_on_c, 13, 54, 0
19, 33180, Note_on_c, 13, 52, 90
19, 33239, Note_on_c, 13, 52, 0
19, 33240, Note_on_c, 13, 54, 90
19, 33299, Note_on_c, 13, 54, 0
19, 33300, Note_on_c, 13, 47, 90
19, 33329, Note_on_c, 13, 47, 0
19, 33330, Note_on_c, 13, 45, 90
19, 33359, Note_on_c, 13, 45, 0
19, 33360, Note_on_c, 13, 47, 90
19, 33389, Note_on_c, 13, 47, 0
19, 33390, Note_on_c, 13, 49, 90
19, 33419, Note_on_c, 13, 49, 0
19, 33420, Note_on_c, 13, 45, 90
19, 33449, Note_on_c, 13, 45, 0
19, 33450, Note_on_c, 13, 47, 90
19, 33479, Note_on_c, 13, 47, 0
19, 33480, Note_on_c, 13, 44, 90
19, 33509, Note_on_c, 13, 44, 0
19, 33510, Note_on_c, 13, 54, 90
19, 33539, Note_on_c, 13, 54, 0
19, 33540, Note_on_c, 13, 52, 90
19, 33569, Note_on_c, 13, 52, 0
19, 33570, Note_on_c, 13, 54, 90
19, 33599, Note_on_c, 13, 54, 0
19, 33600, Note_on_c, 13, 50, 90
19, 33629, Note_on_c, 13, 50, 0
19, 33630, Note_on_c, 13, 52, 90
19, 33659, Note_on_c, 13, 52, 0
19, 33660, Note_on_c, 13, 49, 90
19, 33689, Note_on_c, 13, 49, 0
19, 33690, Note_on_c, 13, 47, 90
19, 33719, Note_on_c, 13, 47, 0
19, 33720, Note_on_c, 13, 49, 90
19, 33749, Note_on_c, 13, 49, 0
19, 33750, Note_on_c, 13, 50, 90
19, 33779, Note_on_c, 13, 50, 0
19, 33780, Note_on_c, 13, 47, 90
19, 33809, Note_on_c, 13, 47, 0
19, 33810, Note_on_c, 13, 49, 90
19, 33839, Note_on_c, 13, 49, 0
19, 33840, Note_on_c, 13, 45, 90
19, 33869, Note_on_c, 13, 45, 0
19, 33870, Note_on_c, 13, 57, 90
19, 33899, Note_on_c, 13, 57, 0
19, 33900, Note_on_c, 13, 55, 90
19, 33929, Note_on_c, 13, 55, 0
19, 33930, Note_on_c, 13, 57, 90
19, 33959, Note_on_c, 13, 57, 0
19, 33960, Note_on_c, 13, 54, 90
19, 33989, Note_on_c, 13, 54, 0
19, 33990, Note_on_c, 13, 55, 90
19, 34019, Note_on_c, 13, 55, 0
19, 34020, Note_on_c, 13, 52, 90
19, 34049, Note_on_c, 13, 52, 0
19, 34050, Note_on_c, 13, 50, 90
19, 34079, Note_on_c, 13, 50, 0
19, 34080, Note_on_c, 13, 52, 90
19, 34109, Note_on_c, 13, 52, 0
19, 34110, Note_on_c, 13, 54, 90
19, 34139, Note_on_c, 13, 54, 0
19, 34140, Note_on_c, 13, 50, 90
19, 34169, Note_on_c, 13, 50, 0
19, 34170, Note_on_c, 13, 52, 90
19, 34199, Note_on_c, 13, 52, 0
19, 34200, Note_on_c, 13, 49, 90
19, 34229, Note_on_c, 13, 49, 0
19, 34230, Note_on_c, 13, 59, 90
19, 34259, Note_on_c, 13, 59, 0
19, 34260, Note_on_c, 13, 57, 90
19, 34289, Note_on_c, 13, 57, 0
19, 34290, Note_on_c, 13, 59, 90
19, 34319, Note_on_c, 13, 59, 0
19, 34320, Note_on_c, 13, 55, 90
19, 34349, Note_on_c, 13, 55, 0
19, 34350, Note_on_c, 13, 57, 90
19, 34379, Note_on_c, 13, 57, 0
19, 34380, Note_on_c, 13, 54, 90
19, 34409, Note_on_c, 13, 54, 0
19, 34410, Note_on_c, 13, 52, 90
19, 34439, Note_on_c, 13, 52, 0
19, 34440, Note_on_c, 13, 54, 90
19, 34469, Note_on_c, 13, 54, 0
19, 34470, Note_on_c, 13, 55, 90
19, 34499, Note_on_c, 13, 55, 0
19, 34500, Note_on_c, 13, 52, 90
19, 34529, Note_on_c, 13, 52, 0
19, 34530, Note_on_c, 13, 54, 90
19, 34559, Note_on_c, 13, 54, 0
19, 34560, Note_on_c, 13, 50, 90
19, 34619, Note_on_c, 13, 50, 0
19, 34620, Note_on_c, 13, 62, 90
19, 34679, Note_on_c, 13, 62, 0
19, 34680, Note_on_c, 13, 61, 90
19, 34739, Note_on_c, 13, 61, 0
19, 34740, Note_on_c, 13, 59, 90
19, 34814, Note_on_c, 13, 59, 0
19, 34815, Note_on_c, 13, 61, 90
19, 34829, Note_on_c, 13, 61, 0
19, 34830, Note_on_c, 13, 59, 90
19, 34844, Note_on_c, 13, 59, 0
19, 34845, Note_on_c, 13, 57, 90
19, 34859, Note_on_c, 13, 57, 0
19, 34860, Note_on_c, 13, 56, 90
19, 34874, Note_on_c, 13, 56, 0
19, 34875, Note_on_c, 13, 54, 90
19, 34889, Note_on_c, 13, 54, 0
19, 34890, Note_on_c, 13, 52, 90
19, 34904, Note_on_c, 13, 52, 0
19, 34905, Note_on_c, 13, 50, 90
19, 34919, Note_on_c, 13, 50, 0
19, 34920, Note_on_c, 13, 49, 90
19, 34949, Note_on_c, 13, 49, 0
19, 34980, Note_on_c, 13, 61, 90
19, 35009, Note_on_c, 13, 61, 0
19, 35040, Note_on_c, 13, 59, 90
19, 35069, Note_on_c, 13, 59, 0
19, 35100, Note_on_c, 13, 58, 90
19, 35174, Note_on_c, 13, 58, 0
19, 35175, Note_on_c, 13, 59, 90
19, 35189, Note_on_c, 13, 59, 0
19, 35190, Note_on_c, 13, 58, 90
19, 35204, Note_on_c, 13, 58, 0
19, 35205, Note_on_c, 13, 56, 90
19, 35219, Note_on_c, 13, 56, 0
19, 35220, Note_on_c, 13, 54, 90
19, 35234, Note_on_c, 13, 54, 0
19, 35235, Note_on_c, 13, 52, 90
19, 35249, Note_on_c, 13, 52, 0
19, 35250, Note_on_c, 13, 50, 90
19, 35264, Note_on_c, 13, 50, 0
19, 35265, Note_on_c, 13, 49, 90
19, 35279, Note_on_c, 13, 49, 0
19, 35280, Note_on_c, 13, 47, 90
19, 35339, Note_on_c, 13, 47, 0
19, 35340, Note_on_c, 13, 59, 90
19, 35399, Note_on_c, 13, 59, 0
19, 35400, Note_on_c, 13, 57, 90
19, 35459, Note_on_c, 13, 57, 0
19, 35460, Note_on_c, 13, 56, 90
19, 35519, Note_on_c, 13, 56, 0
19, 35520, Note_on_c, 13, 51, 90
19, 35579, Note_on_c, 13, 51, 0
19, 35580, Note_on_c, 13, 54, 90
19, 35639, Note_on_c, 13, 54, 0
19, 35640, Note_on_c, 13, 53, 90
19, 35699, Note_on_c, 13, 53, 0
19, 35700, Note_on_c, 13, 56, 90
19, 35759, Note_on_c, 13, 56, 0
19, 35760, Note_on_c, 13, 59, 90
19, 35819, Note_on_c, 13, 59, 0
19, 35820, Note_on_c, 13, 57, 90
19, 35879, Note_on_c, 13, 57, 0
19, 35880, Note_on_c, 13, 45, 90
19, 35939, Note_on_c, 13, 45, 0
19, 35940, Note_on_c, 13, 49, 90
19, 35999, Note_on_c, 13, 49, 0
19, 36000, Note_on_c, 13, 42, 90
19, 36179, Note_on_c, 13, 42, 0
19, 36300, Note_on_c, 13, 38, 90
19, 36359, Note_on_c, 13, 38, 0
19, 36660, Note_on_c, 13, 38, 90
19, 36719, Note_on_c, 13, 38, 0
19, 37020, Note_on_c, 13, 38, 90
19, 37079, Note_on_c, 13, 38, 0
19, 37380, Note_on_c, 13, 38, 90
19, 37439, Note_on_c, 13, 38, 0
19, 37575, Note_on_c, 13, 50, 90
19, 37589, Note_on_c, 13, 50, 0
19, 37590, Note_on_c, 13, 49, 90
19, 37604, Note_on_c, 13, 49, 0
19, 37605, Note_on_c, 13, 47, 90
19, 37619, Note_on_c, 13, 47, 0
19, 37620, Note_on_c, 13, 45, 90
19, 37634, Note_on_c, 13, 45, 0
19, 37635, Note_on_c, 13, 50, 90
19, 37649, Note_on_c, 13, 50, 0
19, 37650, Note_on_c, 13, 49, 90
19, 37664, Note_on_c, 13, 49, 0
19, 37665, Note_on_c, 13, 47, 90
19, 37679, Note_on_c, 13, 47, 0
19, 37680, Note_on_c, 13, 45, 90
19, 37694, Note_on_c, 13, 45, 0
19, 37695, Note_on_c, 13, 43, 90
19, 37709, Note_on_c, 13, 43, 0
19, 37710, Note_on_c, 13, 42, 90
19, 37724, Note_on_c, 13, 42, 0
19, 37725, Note_on_c, 13, 40, 90
19, 37739, Note_on_c, 13, 40, 0
19, 37740, Note_on_c, 13, 38, 90
19, 37799, Note_on_c, 13, 38, 0
19, 37800, Note_on_c, 13, 42, 90
19, 37859, Note_on_c, 13, 42, 0
19, 37860, Note_on_c, 13, 38, 90
19, 37919, Note_on_c, 13, 38, 0
19, 37920, Note_on_c, 13, 45, 90
19, 37979, Note_on_c, 13, 45, 0
19, 38100, Note_on_c, 13, 45, 90
19, 38159, Note_on_c, 13, 45, 0
19, 38160, Note_on_c, 13, 49, 90
19, 38219, Note_on_c, 13, 49, 0
19, 38220, Note_on_c, 13, 45, 90
19, 38279, Note_on_c, 13, 45, 0
19, 38280, Note_on_c, 13, 50, 90
19, 38339, Note_on_c, 13, 50, 0
19, 38460, Note_on_c, 13, 50, 90
19, 38489, Note_on_c, 13, 50, 0
19, 38490, Note_on_c, 13, 52, 90
19, 38519, Note_on_c, 13, 52, 0
19, 38520, Note_on_c, 13, 54, 90
19, 38549, Note_on_c, 13, 54, 0
19, 38550, Note_on_c, 13, 52, 90
19, 38579, Note_on_c, 13, 52, 0
19, 38580, Note_on_c, 13, 54, 90
19, 38609, Note_on_c, 13, 54, 0
19, 38610, Note_on_c, 13, 50, 90
19, 38639, Note_on_c, 13, 50, 0
19, 38640, Note_on_c, 13, 55, 90
19, 38669, Note_on_c, 13, 55, 0
19, 38670, Note_on_c, 13, 57, 90
19, 38699, Note_on_c, 13, 57, 0
19, 38700, Note_on_c, 13, 54, 90
19, 38729, Note_on_c, 13, 54, 0
19, 38730, Note_on_c, 13, 55, 90
19, 38759, Note_on_c, 13, 55, 0
19, 38760, Note_on_c, 13, 52, 90
19, 38789, Note_on_c, 13, 52, 0
19, 38790, Note_on_c, 13, 54, 90
19, 38819, Note_on_c, 13, 54, 0
19, 38820, Note_on_c, 13, 50, 90
19, 38849, Note_on_c, 13, 50, 0
19, 38850, Note_on_c, 13, 62, 90
19, 38879, Note_on_c, 13, 62, 0
19, 38880, Note_on_c, 13, 61, 90
19, 38909, Note_on_c, 13, 61, 0
19, 38910, Note_on_c, 13, 62, 90
19, 38939, Note_on_c, 13, 62, 0
19, 38940, Note_on_c, 13, 59, 90
19, 38969, Note_on_c, 13, 59, 0
19, 38970, Note_on_c, 13, 61, 90
19, 38999, Note_on_c, 13, 61, 0
19, 39000, Note_on_c, 13, 57, 90
19, 39029, Note_on_c, 13, 57, 0
19, 39030, Note_on_c, 13, 55, 90
19, 39059, Note_on_c, 13, 55, 0
19, 39060, Note_on_c, 13, 57, 90
19, 39089, Note_on_c, 13, 57, 0
19, 39090, Note_on_c, 13, 59, 90
19, 39119, Note_on_c, 13, 59, 0
19, 39120, Note_on_c, 13, 55, 90
19, 39149, Note_on_c, 13, 55, 0
19, 39150, Note_on_c, 13, 57, 90
19, 39179, Note_on_c, 13, 57, 0
19, 39180, Note_on_c, 13, 54, 90
19, 39209, Note_on_c, 13, 54, 0
19, 39210, Note_on_c, 13, 52, 90
19, 39239, Note_on_c, 13, 52, 0
19, 39240, Note_on_c, 13, 54, 90
19, 39269, Note_on_c, 13, 54, 0
19, 39270, Note_on_c, 13, 55, 90
19, 39299, Note_on_c, 13, 55, 0
19, 39300, Note_on_c, 13, 52, 90
19, 39329, Note_on_c, 13, 52, 0
19, 39330, Note_on_c, 13, 54, 90
19, 39359, Note_on_c, 13, 54, 0
19, 39360, Note_on_c, 13, 51, 90
19, 39389, Note_on_c, 13, 51, 0
19, 39390, Note_on_c, 13, 60, 90
19, 39419, Note_on_c, 13, 60, 0
19, 39420, Note_on_c, 13, 59, 90
19, 39449, Note_on_c, 13, 59, 0
19, 39450, Note_on_c, 13, 60, 90
19, 39479, Note_on_c, 13, 60, 0
19, 39480, Note_on_c, 13, 57, 90
19, 39509, Note_on_c, 13, 57, 0
19, 39510, Note_on_c, 13, 59, 90
19, 39539, Note_on_c, 13, 59, 0
19, 39540, Note_on_c, 13, 55, 90
19, 39569, Note_on_c, 13, 55, 0
19, 39570, Note_on_c, 13, 54, 90
19, 39599, Note_on_c, 13, 54, 0
19, 39600, Note_on_c, 13, 55, 90
19, 39629, Note_on_c, 13, 55, 0
19, 39630, Note_on_c, 13, 57, 90
19, 39659, Note_on_c, 13, 57, 0
19, 39660, Note_on_c, 13, 54, 90
19, 39689, Note_on_c, 13, 54, 0
19, 39690, Note_on_c, 13, 55, 90
19, 39719, Note_on_c, 13, 55, 0
19, 39720, Note_on_c, 13, 52, 90
19, 39749, Note_on_c, 13, 52, 0
19, 39750, Note_on_c, 13, 51, 90
19, 39779, Note_on_c, 13, 51, 0
19, 39780, Note_on_c, 13, 52, 90
19, 39809, Note_on_c, 13, 52, 0
19, 39810, Note_on_c, 13, 54, 90
19, 39839, Note_on_c, 13, 54, 0
19, 39840, Note_on_c, 13, 50, 90
19, 39869, Note_on_c, 13, 50, 0
19, 39870, Note_on_c, 13, 52, 90
19, 39899, Note_on_c, 13, 52, 0
19, 39900, Note_on_c, 13, 49, 90
19, 39929, Note_on_c, 13, 49, 0
19, 39930, Note_on_c, 13, 47, 90
19, 39959, Note_on_c, 13, 47, 0
19, 39960, Note_on_c, 13, 49, 90
19, 39989, Note_on_c, 13, 49, 0
19, 39990, Note_on_c, 13, 50, 90
19, 40019, Note_on_c, 13, 50, 0
19, 40020, Note_on_c, 13, 47, 90
19, 40049, Note_on_c, 13, 47, 0
19, 40050, Note_on_c, 13, 49, 90
19, 40079, Note_on_c, 13, 49, 0
19, 40080, Note_on_c, 13, 45, 90
19, 40109, Note_on_c, 13, 45, 0
19, 40110, Note_on_c, 13, 57, 90
19, 40139, Note_on_c, 13, 57, 0
19, 40140, Note_on_c, 13, 55, 90
19, 40169, Note_on_c, 13, 55, 0
19, 40170, Note_on_c, 13, 57, 90
19, 40199, Note_on_c, 13, 57, 0
19, 40200, Note_on_c, 13, 55, 90
19, 40229, Note_on_c, 13, 55, 0
19, 40230, Note_on_c, 13, 57, 90
19, 40259, Note_on_c, 13, 57, 0
19, 40260, Note_on_c, 13, 54, 90
19, 40289, Note_on_c, 13, 54, 0
19, 40290, Note_on_c, 13, 52, 90
19, 40319, Note_on_c, 13, 52, 0
19, 40320, Note_on_c, 13, 54, 90
19, 40349, Note_on_c, 13, 54, 0
19, 40350, Note_on_c, 13, 55, 90
19, 40379, Note_on_c, 13, 55, 0
19, 40380, Note_on_c, 13, 52, 90
19, 40409, Note_on_c, 13, 52, 0
19, 40410, Note_on_c, 13, 54, 90
19, 40439, Note_on_c, 13, 54, 0
19, 40440, Note_on_c, 13, 50, 90
19, 40469, Note_on_c, 13, 50, 0
19, 40470, Note_on_c, 13, 49, 90
19, 40499, Note_on_c, 13, 49, 0
19, 40500, Note_on_c, 13, 50, 90
19, 40529, Note_on_c, 13, 50, 0
19, 40530, Note_on_c, 13, 52, 90
19, 40559, Note_on_c, 13, 52, 0
19, 40560, Note_on_c, 13, 49, 90
19, 40589, Note_on_c, 13, 49, 0
19, 40590, Note_on_c, 13, 50, 90
19, 40619, Note_on_c, 13, 50, 0
19, 40620, Note_on_c, 13, 47, 90
19, 40649, Note_on_c, 13, 47, 0
19, 40680, Note_on_c, 13, 59, 90
19, 40709, Note_on_c, 13, 59, 0
19, 40740, Note_on_c, 13, 57, 90
19, 40769, Note_on_c, 13, 57, 0
19, 40800, Note_on_c, 13, 56, 90
19, 40874, Note_on_c, 13, 56, 0
19, 40875, Note_on_c, 13, 57, 90
19, 40889, Note_on_c, 13, 57, 0
19, 40890, Note_on_c, 13, 56, 90
19, 40904, Note_on_c, 13, 56, 0
19, 40905, Note_on_c, 13, 54, 90
19, 40919, Note_on_c, 13, 54, 0
19, 40920, Note_on_c, 13, 52, 90
19, 40934, Note_on_c, 13, 52, 0
19, 40935, Note_on_c, 13, 50, 90
19, 40949, Note_on_c, 13, 50, 0
19, 40950, Note_on_c, 13, 49, 90
19, 40964, Note_on_c, 13, 49, 0
19, 40965, Note_on_c, 13, 47, 90
19, 40979, Note_on_c, 13, 47, 0
19, 40980, Note_on_c, 13, 45, 90
19, 41009, Note_on_c, 13, 45, 0
19, 41040, Note_on_c, 13, 57, 90
19, 41069, Note_on_c, 13, 57, 0
19, 41100, Note_on_c, 13, 55, 90
19, 41129, Note_on_c, 13, 55, 0
19, 41160, Note_on_c, 13, 54, 90
19, 41234, Note_on_c, 13, 54, 0
19, 41235, Note_on_c, 13, 55, 90
19, 41249, Note_on_c, 13, 55, 0
19, 41250, Note_on_c, 13, 54, 90
19, 41264, Note_on_c, 13, 54, 0
19, 41265, Note_on_c, 13, 52, 90
19, 41279, Note_on_c, 13, 52, 0
19, 41280, Note_on_c, 13, 50, 90
19, 41294, Note_on_c, 13, 50, 0
19, 41295, Note_on_c, 13, 48, 90
19, 41309, Note_on_c, 13, 48, 0
19, 41310, Note_on_c, 13, 47, 90
19, 41324, Note_on_c, 13, 47, 0
19, 41325, Note_on_c, 13, 45, 90
19, 41339, Note_on_c, 13, 45, 0
19, 41340, Note_on_c, 13, 43, 90
19, 41369, Note_on_c, 13, 43, 0
19, 41400, Note_on_c, 13, 55, 90
19, 41429, Note_on_c, 13, 55, 0
19, 41460, Note_on_c, 13, 54, 90
19, 41489, Note_on_c, 13, 54, 0
19, 41520, Note_on_c, 13, 52, 90
19, 41549, Note_on_c, 13, 52, 0
19, 41580, Note_on_c, 13, 47, 90
19, 41609, Note_on_c, 13, 47, 0
19, 41640, Note_on_c, 13, 50, 90
19, 41669, Note_on_c, 13, 50, 0
19, 41700, Note_on_c, 13, 49, 90
19, 41729, Note_on_c, 13, 49, 0
19, 41760, Note_on_c, 13, 52, 90
19, 41789, Note_on_c, 13, 52, 0
19, 41820, Note_on_c, 13, 45, 90
19, 41849, Note_on_c, 13, 45, 0
19, 41880, Note_on_c, 13, 50, 90
19, 41909, Note_on_c, 13, 50, 0
19, 41940, Note_on_c, 13, 42, 90
19, 41969, Note_on_c, 13, 42, 0
19, 42000, Note_on_c, 13, 45, 90
19, 42029, Note_on_c, 13, 45, 0
19, 42060, Note_on_c, 13, 38, 90
19, 42119, Note_on_c, 13, 38, 0
19, 42420, Note_on_c, 13, 38, 90
19, 42479, Note_on_c, 13, 38, 0
19, 42780, Note_on_c, 13, 38, 90
19, 42839, Note_on_c, 13, 38, 0
19, 43140, Note_on_c, 13, 38, 90
19, 43199, Note_on_c, 13, 38, 0
19, 43500, Note_on_c, 13, 38, 90
19, 43559, Note_on_c, 13, 38, 0
19, 43695, Note_on_c, 13, 50, 90
19, 43709, Note_on_c, 13, 50, 0
19, 43710, Note_on_c, 13, 49, 90
19, 43724, Note_on_c, 13, 49, 0
19, 43725, Note_on_c, 13, 47, 90
19, 43739, Note_on_c, 13, 47, 0
19, 43740, Note_on_c, 13, 45, 90
19, 43754, Note_on_c, 13, 45, 0
19, 43755, Note_on_c, 13, 50, 90
19, 43769, Note_on_c, 13, 50, 0
19, 43770, Note_on_c, 13, 49, 90
19, 43784, Note_on_c, 13, 49, 0
19, 43785, Note_on_c, 13, 47, 90
19, 43799, Note_on_c, 13, 47, 0
19, 43800, Note_on_c, 13, 45, 90
19, 43814, Note_on_c, 13, 45, 0
19, 43815, Note_on_c, 13, 43, 90
19, 43829, Note_on_c, 13, 43, 0
19, 43830, Note_on_c, 13, 42, 90
19, 43844, Note_on_c, 13, 42, 0
19, 43845, Note_on_c, 13, 40, 90
19, 43859, Note_on_c, 13, 40, 0
19, 43860, Note_on_c, 13, 38, 90
19, 43919, Note_on_c, 13, 38, 0
19, 43920, Note_on_c, 13, 42, 90
19, 43979, Note_on_c, 13, 42, 0
19, 43980, Note_on_c, 13, 38, 90
19, 44039, Note_on_c, 13, 38, 0
19, 44040, Note_on_c, 13, 45, 90
19, 44159, Note_on_c, 13, 45, 0
19, 44220, Note_on_c, 13, 45, 90
19, 44279, Note_on_c, 13, 45, 0
19, 44280, Note_on_c, 13, 49, 90
19, 44339, Note_on_c, 13, 49, 0
19, 44340, Note_on_c, 13, 45, 90
19, 44399, Note_on_c, 13, 45, 0
19, 44400, Note_on_c, 13, 50, 90
19, 44519, Note_on_c, 13, 50, 0
19, 44580, Note_on_c, 13, 50, 90
19, 44609, Note_on_c, 13, 50, 0
19, 44610, Note_on_c, 13, 52, 90
19, 44639, Note_on_c, 13, 52, 0
19, 44640, Note_on_c, 13, 54, 90
19, 44669, Note_on_c, 13, 54, 0
19, 44670, Note_on_c, 13, 52, 90
19, 44699, Note_on_c, 13, 52, 0
19, 44700, Note_on_c, 13, 54, 90
19, 44729, Note_on_c, 13, 54, 0
19, 44730, Note_on_c, 13, 50, 90
19, 44759, Note_on_c, 13, 50, 0
19, 44760, Note_on_c, 13, 55, 90
19, 44789, Note_on_c, 13, 55, 0
19, 44790, Note_on_c, 13, 57, 90
19, 44819, Note_on_c, 13, 57, 0
19, 44820, Note_on_c, 13, 54, 90
19, 44849, Note_on_c, 13, 54, 0
19, 44850, Note_on_c, 13, 55, 90
19, 44879, Note_on_c, 13, 55, 0
19, 44880, Note_on_c, 13, 52, 90
19, 44909, Note_on_c, 13, 52, 0
19, 44910, Note_on_c, 13, 54, 90
19, 44939, Note_on_c, 13, 54, 0
19, 44940, Note_on_c, 13, 50, 90
19, 44969, Note_on_c, 13, 50, 0
19, 44970, Note_on_c, 13, 62, 90
19, 44999, Note_on_c, 13, 62, 0
19, 45000, Note_on_c, 13, 61, 90
19, 45029, Note_on_c, 13, 61, 0
19, 45030, Note_on_c, 13, 62, 90
19, 45059, Note_on_c, 13, 62, 0
19, 45060, Note_on_c, 13, 59, 90
19, 45089, Note_on_c, 13, 59, 0
19, 45090, Note_on_c, 13, 61, 90
19, 45119, Note_on_c, 13, 61, 0
19, 45120, Note_on_c, 13, 57, 90
19, 45179, Note_on_c, 13, 57, 0
19, 45180, Note_on_c, 13, 45, 90
19, 45239, Note_on_c, 13, 45, 0
19, 45330, Note_on_c, 13, 57, 90
19, 45359, Note_on_c, 13, 57, 0
19, 45360, Note_on_c, 13, 55, 90
19, 45389, Note_on_c, 13, 55, 0
19, 45390, Note_on_c, 13, 57, 90
19, 45419, Note_on_c, 13, 57, 0
19, 45420, Note_on_c, 13, 54, 90
19, 45449, Note_on_c, 13, 54, 0
19, 45450, Note_on_c, 13, 55, 90
19, 45479, Note_on_c, 13, 55, 0
19, 45480, Note_on_c, 13, 52, 90
19, 45509, Note_on_c, 13, 52, 0
19, 45510, Note_on_c, 13, 51, 90
19, 45539, Note_on_c, 13, 51, 0
19, 45540, Note_on_c, 13, 52, 90
19, 45569, Note_on_c, 13, 52, 0
19, 45570, Note_on_c, 13, 55, 90
19, 45599, Note_on_c, 13, 55, 0
19, 45600, Note_on_c, 13, 54, 90
19, 45629, Note_on_c, 13, 54, 0
19, 45630, Note_on_c, 13, 57, 90
19, 45659, Note_on_c, 13, 57, 0
19, 45660, Note_on_c, 13, 55, 90
19, 45689, Note_on_c, 13, 55, 0
19, 45690, Note_on_c, 13, 54, 90
19, 45719, Note_on_c, 13, 54, 0
19, 45720, Note_on_c, 13, 55, 90
19, 45749, Note_on_c, 13, 55, 0
19, 45750, Note_on_c, 13, 59, 90
19, 45779, Note_on_c, 13, 59, 0
19, 45780, Note_on_c, 13, 57, 90
19, 45809, Note_on_c, 13, 57, 0
19, 45810, Note_on_c, 13, 61, 90
19, 45839, Note_on_c, 13, 61, 0
19, 45840, Note_on_c, 13, 59, 90
19, 45869, Note_on_c, 13, 59, 0
19, 45870, Note_on_c, 13, 57, 90
19, 45899, Note_on_c, 13, 57, 0
19, 45900, Note_on_c, 13, 59, 90
19, 45929, Note_on_c, 13, 59, 0
19, 45930, Note_on_c, 13, 62, 90
19, 45959, Note_on_c, 13, 62, 0
19, 45960, Note_on_c, 13, 61, 90
19, 45989, Note_on_c, 13, 61, 0
19, 45990, Note_on_c, 13, 64, 90
19, 46019, Note_on_c, 13, 64, 0
19, 46020, Note_on_c, 13, 62, 90
19, 46049, Note_on_c, 13, 62, 0
19, 46050, Note_on_c, 13, 64, 90
19, 46079, Note_on_c, 13, 64, 0
19, 46080, Note_on_c, 13, 61, 90
19, 46109, Note_on_c, 13, 61, 0
19, 46110, Note_on_c, 13, 62, 90
19, 46139, Note_on_c, 13, 62, 0
19, 46140, Note_on_c, 13, 59, 90
19, 46169, Note_on_c, 13, 59, 0
19, 46170, Note_on_c, 13, 61, 90
19, 46199, Note_on_c, 13, 61, 0
19, 46200, Note_on_c, 13, 57, 90
19, 46259, Note_on_c, 13, 57, 0
19, 46260, Note_on_c, 13, 45, 90
19, 46289, Note_on_c, 13, 45, 0
19, 46290, Note_on_c, 13, 49, 90
19, 46319, Note_on_c, 13, 49, 0
19, 46320, Note_on_c, 13, 47, 90
19, 46349, Note_on_c, 13, 47, 0
19, 46350, Note_on_c, 13, 50, 90
19, 46379, Note_on_c, 13, 50, 0
19, 46380, Note_on_c, 13, 49, 90
19, 46409, Note_on_c, 13, 49, 0
19, 46410, Note_on_c, 13, 47, 90
19, 46439, Note_on_c, 13, 47, 0
19, 46440, Note_on_c, 13, 49, 90
19, 46469, Note_on_c, 13, 49, 0
19, 46470, Note_on_c, 13, 52, 90
19, 46499, Note_on_c, 13, 52, 0
19, 46500, Note_on_c, 13, 51, 90
19, 46529, Note_on_c, 13, 51, 0
19, 46530, Note_on_c, 13, 54, 90
19, 46559, Note_on_c, 13, 54, 0
19, 46560, Note_on_c, 13, 52, 90
19, 46589, Note_on_c, 13, 52, 0
19, 46590, Note_on_c, 13, 50, 90
19, 46619, Note_on_c, 13, 50, 0
19, 46620, Note_on_c, 13, 52, 90
19, 46649, Note_on_c, 13, 52, 0
19, 46650, Note_on_c, 13, 55, 90
19, 46679, Note_on_c, 13, 55, 0
19, 46680, Note_on_c, 13, 54, 90
19, 46709, Note_on_c, 13, 54, 0
19, 46710, Note_on_c, 13, 57, 90
19, 46739, Note_on_c, 13, 57, 0
19, 46740, Note_on_c, 13, 55, 90
19, 46769, Note_on_c, 13, 55, 0
19, 46770, Note_on_c, 13, 57, 90
19, 46799, Note_on_c, 13, 57, 0
19, 46800, Note_on_c, 13, 54, 90
19, 46829, Note_on_c, 13, 54, 0
19, 46830, Note_on_c, 13, 55, 90
19, 46859, Note_on_c, 13, 55, 0
19, 46860, Note_on_c, 13, 52, 90
19, 46889, Note_on_c, 13, 52, 0
19, 46890, Note_on_c, 13, 54, 90
19, 46919, Note_on_c, 13, 54, 0
19, 46920, Note_on_c, 13, 50, 90
19, 46949, Note_on_c, 13, 50, 0
19, 46950, Note_on_c, 13, 49, 90
19, 46979, Note_on_c, 13, 49, 0
19, 46980, Note_on_c, 13, 50, 90
19, 47009, Note_on_c, 13, 50, 0
19, 47010, Note_on_c, 13, 54, 90
19, 47039, Note_on_c, 13, 54, 0
19, 47040, Note_on_c, 13, 52, 90
19, 47069, Note_on_c, 13, 52, 0
19, 47070, Note_on_c, 13, 55, 90
19, 47099, Note_on_c, 13, 55, 0
19, 47100, Note_on_c, 13, 54, 90
19, 47129, Note_on_c, 13, 54, 0
19, 47130, Note_on_c, 13, 52, 90
19, 47159, Note_on_c, 13, 52, 0
19, 47160, Note_on_c, 13, 54, 90
19, 47189, Note_on_c, 13, 54, 0
19, 47190, Note_on_c, 13, 57, 90
19, 47219, Note_on_c, 13, 57, 0
19, 47220, Note_on_c, 13, 56, 90
19, 47249, Note_on_c, 13, 56, 0
19, 47250, Note_on_c, 13, 59, 90
19, 47279, Note_on_c, 13, 59, 0
19, 47280, Note_on_c, 13, 57, 90
19, 47309, Note_on_c, 13, 57, 0
19, 47310, Note_on_c, 13, 56, 90
19, 47339, Note_on_c, 13, 56, 0
19, 47340, Note_on_c, 13, 57, 90
19, 47369, Note_on_c, 13, 57, 0
19, 47370, Note_on_c, 13, 59, 90
19, 47399, Note_on_c, 13, 59, 0
19, 47400, Note_on_c, 13, 57, 90
19, 47429, Note_on_c, 13, 57, 0
19, 47430, Note_on_c, 13, 59, 90
19, 47459, Note_on_c, 13, 59, 0
19, 47460, Note_on_c, 13, 55, 90
19, 47489, Note_on_c, 13, 55, 0
19, 47490, Note_on_c, 13, 54, 90
19, 47519, Note_on_c, 13, 54, 0
19, 47520, Note_on_c, 13, 55, 90
19, 47549, Note_on_c, 13, 55, 0
19, 47550, Note_on_c, 13, 57, 90
19, 47579, Note_on_c, 13, 57, 0
19, 47580, Note_on_c, 13, 54, 90
19, 47609, Note_on_c, 13, 54, 0
19, 47610, Note_on_c, 13, 55, 90
19, 47639, Note_on_c, 13, 55, 0
19, 47640, Note_on_c, 13, 52, 90
19, 47669, Note_on_c, 13, 52, 0
19, 47670, Note_on_c, 13, 50, 90
19, 47699, Note_on_c, 13, 50, 0
19, 47700, Note_on_c, 13, 52, 90
19, 47729, Note_on_c, 13, 52, 0
19, 47730, Note_on_c, 13, 54, 90
19, 47759, Note_on_c, 13, 54, 0
19, 47760, Note_on_c, 13, 50, 90
19, 47789, Note_on_c, 13, 50, 0
19, 47790, Note_on_c, 13, 52, 90
19, 47819, Note_on_c, 13, 52, 0
19, 47820, Note_on_c, 13, 49, 90
19, 47849, Note_on_c, 13, 49, 0
19, 47850, Note_on_c, 13, 47, 90
19, 47879, Note_on_c, 13, 47, 0
19, 47880, Note_on_c, 13, 49, 90
19, 47909, Note_on_c, 13, 49, 0
19, 47910, Note_on_c, 13, 50, 90
19, 47939, Note_on_c, 13, 50, 0
19, 47940, Note_on_c, 13, 47, 90
19, 47969, Note_on_c, 13, 47, 0
19, 47970, Note_on_c, 13, 49, 90
19, 47999, Note_on_c, 13, 49, 0
19, 48000, Note_on_c, 13, 46, 90
19, 48029, Note_on_c, 13, 46, 0
19, 48030, Note_on_c, 13, 55, 90
19, 48059, Note_on_c, 13, 55, 0
19, 48060, Note_on_c, 13, 54, 90
19, 48089, Note_on_c, 13, 54, 0
19, 48090, Note_on_c, 13, 55, 90
19, 48119, Note_on_c, 13, 55, 0
19, 48120, Note_on_c, 13, 52, 90
19, 48149, Note_on_c, 13, 52, 0
19, 48150, Note_on_c, 13, 54, 90
19, 48179, Note_on_c, 13, 54, 0
19, 48180, Note_on_c, 13, 50, 90
19, 48209, Note_on_c, 13, 50, 0
19, 48210, Note_on_c, 13, 49, 90
19, 48239, Note_on_c, 13, 49, 0
19, 48240, Note_on_c, 13, 50, 90
19, 48269, Note_on_c, 13, 50, 0
19, 48270, Note_on_c, 13, 52, 90
19, 48299, Note_on_c, 13, 52, 0
19, 48300, Note_on_c, 13, 49, 90
19, 48329, Note_on_c, 13, 49, 0
19, 48330, Note_on_c, 13, 50, 90
19, 48359, Note_on_c, 13, 50, 0
19, 48360, Note_on_c, 13, 47, 90
19, 48389, Note_on_c, 13, 47, 0
19, 48390, Note_on_c, 13, 46, 90
19, 48419, Note_on_c, 13, 46, 0
19, 48420, Note_on_c, 13, 47, 90
19, 48449, Note_on_c, 13, 47, 0
19, 48450, Note_on_c, 13, 49, 90
19, 48479, Note_on_c, 13, 49, 0
19, 48480, Note_on_c, 13, 45, 90
19, 48509, Note_on_c, 13, 45, 0
19, 48510, Note_on_c, 13, 47, 90
19, 48539, Note_on_c, 13, 47, 0
19, 48540, Note_on_c, 13, 44, 90
19, 48569, Note_on_c, 13, 44, 0
19, 48570, Note_on_c, 13, 42, 90
19, 48599, Note_on_c, 13, 42, 0
19, 48600, Note_on_c, 13, 44, 90
19, 48629, Note_on_c, 13, 44, 0
19, 48630, Note_on_c, 13, 45, 90
19, 48659, Note_on_c, 13, 45, 0
19, 48660, Note_on_c, 13, 42, 90
19, 48689, Note_on_c, 13, 42, 0
19, 48690, Note_on_c, 13, 44, 90
19, 48719, Note_on_c, 13, 44, 0
19, 48720, Note_on_c, 13, 40, 90
19, 48749, Note_on_c, 13, 40, 0
19, 48750, Note_on_c, 13, 54, 90
19, 48779, Note_on_c, 13, 54, 0
19, 48780, Note_on_c, 13, 52, 90
19, 48809, Note_on_c, 13, 52, 0
19, 48810, Note_on_c, 13, 54, 90
19, 48839, Note_on_c, 13, 54, 0
19, 48840, Note_on_c, 13, 50, 90
19, 48869, Note_on_c, 13, 50, 0
19, 48870, Note_on_c, 13, 52, 90
19, 48899, Note_on_c, 13, 52, 0
19, 48900, Note_on_c, 13, 49, 90
19, 48929, Note_on_c, 13, 49, 0
19, 48930, Note_on_c, 13, 47, 90
19, 48959, Note_on_c, 13, 47, 0
19, 48960, Note_on_c, 13, 49, 90
19, 48989, Note_on_c, 13, 49, 0
19, 48990, Note_on_c, 13, 50, 90
19, 49019, Note_on_c, 13, 50, 0
19, 49020, Note_on_c, 13, 47, 90
19, 49049, Note_on_c, 13, 47, 0
19, 49050, Note_on_c, 13, 49, 90
19, 49079, Note_on_c, 13, 49, 0
19, 49080, Note_on_c, 13, 45, 90
19, 49109, Note_on_c, 13, 45, 0
19, 49110, Note_on_c, 13, 44, 90
19, 49139, Note_on_c, 13, 44, 0
19, 49140, Note_on_c, 13, 45, 90
19, 49169, Note_on_c, 13, 45, 0
19, 49170, Note_on_c, 13, 47, 90
19, 49199, Note_on_c, 13, 47, 0
19, 49200, Note_on_c, 13, 44, 90
19, 49229, Note_on_c, 13, 44, 0
19, 49230, Note_on_c, 13, 45, 90
19, 49259, Note_on_c, 13, 45, 0
19, 49260, Note_on_c, 13, 42, 90
19, 49289, Note_on_c, 13, 42, 0
19, 49320, Note_on_c, 13, 54, 90
19, 49349, Note_on_c, 13, 54, 0
19, 49380, Note_on_c, 13, 52, 90
19, 49409, Note_on_c, 13, 52, 0
19, 49440, Note_on_c, 13, 51, 90
19, 49514, Note_on_c, 13, 51, 0
19, 49515, Note_on_c, 13, 52, 90
19, 49529, Note_on_c, 13, 52, 0
19, 49530, Note_on_c, 13, 51, 90
19, 49544, Note_on_c, 13, 51, 0
19, 49545, Note_on_c, 13, 49, 90
19, 49559, Note_on_c, 13, 49, 0
19, 49560, Note_on_c, 13, 47, 90
19, 49574, Note_on_c, 13, 47, 0
19, 49575, Note_on_c, 13, 45, 90
19, 49589, Note_on_c, 13, 45, 0
19, 49590, Note_on_c, 13, 44, 90
19, 49604, Note_on_c, 13, 44, 0
19, 49605, Note_on_c, 13, 42, 90
19, 49619, Note_on_c, 13, 42, 0
19, 49620, Note_on_c, 13, 40, 90
19, 49649, Note_on_c, 13, 40, 0
19, 49680, Note_on_c, 13, 52, 90
19, 49709, Note_on_c, 13, 52, 0
19, 49740, Note_on_c, 13, 50, 90
19, 49769, Note_on_c, 13, 50, 0
19, 49800, Note_on_c, 13, 49, 90
19, 49874, Note_on_c, 13, 49, 0
19, 49875, Note_on_c, 13, 50, 90
19, 49889, Note_on_c, 13, 50, 0
19, 49890, Note_on_c, 13, 49, 90
19, 49904, Note_on_c, 13, 49, 0
19, 49905, Note_on_c, 13, 47, 90
19, 49919, Note_on_c, 13, 47, 0
19, 49920, Note_on_c, 13, 45, 90
19, 49934, Note_on_c, 13, 45, 0
19, 49935, Note_on_c, 13, 43, 90
19, 49949, Note_on_c, 13, 43, 0
19, 49950, Note_on_c, 13, 42, 90
19, 49964, Note_on_c, 13, 42, 0
19, 49965, Note_on_c, 13, 40, 90
19, 49979, Note_on_c, 13, 40, 0
19, 49980, Note_on_c, 13, 38, 90
19, 50009, Note_on_c, 13, 38, 0
19, 50040, Note_on_c, 13, 50, 90
19, 50069, Note_on_c, 13, 50, 0
19, 50100, Note_on_c, 13, 49, 90
19, 50129, Note_on_c, 13, 49, 0
19, 50160, Note_on_c, 13, 47, 90
19, 50189, Note_on_c, 13, 47, 0
19, 50220, Note_on_c, 13, 42, 90
19, 50249, Note_on_c, 13, 42, 0
19, 50280, Note_on_c, 13, 45, 90
19, 50309, Note_on_c, 13, 45, 0
19, 50340, Note_on_c, 13, 44, 90
19, 50369, Note_on_c, 13, 44, 0
19, 50400, Note_on_c, 13, 42, 90
19, 50429, Note_on_c, 13, 42, 0
19, 50460, Note_on_c, 13, 40, 90
19, 50489, Note_on_c, 13, 40, 0
19, 50520, Note_on_c, 13, 45, 90
19, 50549, Note_on_c, 13, 45, 0
19, 50580, Note_on_c, 13, 38, 90
19, 50609, Note_on_c, 13, 38, 0
19, 50640, Note_on_c, 13, 40, 90
19, 50669, Note_on_c, 13, 40, 0
19, 50700, Note_on_c, 13, 45, 90
19, 50729, Note_on_c, 13, 45, 0
19, 50760, Note_on_c, 13, 49, 90
19, 50819, Note_on_c, 13, 49, 0
19, 50820, Note_on_c, 13, 45, 90
19, 50879, Note_on_c, 13, 45, 0
19, 50880, Note_on_c, 13, 52, 90
19, 50939, Note_on_c, 13, 52, 0
19, 51060, Note_on_c, 13, 52, 90
19, 51119, Note_on_c, 13, 52, 0
19, 51120, Note_on_c, 13, 56, 90
19, 51179, Note_on_c, 13, 56, 0
19, 51180, Note_on_c, 13, 52, 90
19, 51239, Note_on_c, 13, 52, 0
19, 51240, Note_on_c, 13, 57, 90
19, 51299, Note_on_c, 13, 57, 0
19, 51420, Note_on_c, 13, 58, 90
19, 51449, Note_on_c, 13, 58, 0
19, 51450, Note_on_c, 13, 58, 90
19, 51479, Note_on_c, 13, 58, 0
19, 51480, Note_on_c, 13, 58, 90
19, 51509, Note_on_c, 13, 58, 0
19, 51510, Note_on_c, 13, 58, 90
19, 51539, Note_on_c, 13, 58, 0
19, 51540, Note_on_c, 13, 58, 90
19, 51569, Note_on_c, 13, 58, 0
19, 51570, Note_on_c, 13, 58, 90
19, 51599, Note_on_c, 13, 58, 0
19, 51600, Note_on_c, 13, 59, 90
19, 51629, Note_on_c, 13, 59, 0
19, 51660, Note_on_c, 13, 47, 90
19, 51689, Note_on_c, 13, 47, 0
19, 51720, Note_on_c, 13, 59, 90
19, 51749, Note_on_c, 13, 59, 0
19, 51780, Note_on_c, 13, 54, 90
19, 51809, Note_on_c, 13, 54, 0
19, 51840, Note_on_c, 13, 42, 90
19, 51869, Note_on_c, 13, 42, 0
19, 51900, Note_on_c, 13, 43, 90
19, 51929, Note_on_c, 13, 43, 0
19, 51960, Note_on_c, 13, 45, 90
19, 51989, Note_on_c, 13, 45, 0
19, 52020, Note_on_c, 13, 49, 90
19, 52049, Note_on_c, 13, 49, 0
19, 52080, Note_on_c, 13, 45, 90
19, 52109, Note_on_c, 13, 45, 0
19, 52140, Note_on_c, 13, 50, 90
19, 52199, Note_on_c, 13, 50, 0
19, 52500, Note_on_c, 13, 38, 90
19, 52559, Note_on_c, 13, 38, 0
19, 52860, Note_on_c, 13, 50, 90
19, 52919, Note_on_c, 13, 50, 0
19, 53220, Note_on_c, 13, 38, 90
19, 53279, Note_on_c, 13, 38, 0
19, 53580, Note_on_c, 13, 50, 90
19, 53639, Note_on_c, 13, 50, 0
19, 53775, Note_on_c, 13, 50, 90
19, 53789, Note_on_c, 13, 50, 0
19, 53790, Note_on_c, 13, 49, 90
19, 53804, Note_on_c, 13, 49, 0
19, 53805, Note_on_c, 13, 47, 90
19, 53819, Note_on_c, 13, 47, 0
19, 53820, Note_on_c, 13, 45, 90
19, 53834, Note_on_c, 13, 45, 0
19, 53835, Note_on_c, 13, 50, 90
19, 53849, Note_on_c, 13, 50, 0
19, 53850, Note_on_c, 13, 49, 90
19, 53864, Note_on_c, 13, 49, 0
19, 53865, Note_on_c, 13, 47, 90
19, 53879, Note_on_c, 13, 47, 0
19, 53880, Note_on_c, 13, 45, 90
19, 53894, Note_on_c, 13, 45, 0
19, 53895, Note_on_c, 13, 43, 90
19, 53909, Note_on_c, 13, 43, 0
19, 53910, Note_on_c, 13, 42, 90
19, 53924, Note_on_c, 13, 42, 0
19, 53925, Note_on_c, 13, 40, 90
19, 53939, Note_on_c, 13, 40, 0
19, 53940, Note_on_c, 13, 38, 90
19, 53999, Note_on_c, 13, 38, 0
19, 54000, Note_on_c, 13, 42, 90
19, 54059, Note_on_c, 13, 42, 0
19, 54060, Note_on_c, 13, 38, 90
19, 54119, Note_on_c, 13, 38, 0
19, 54120, Note_on_c, 13, 45, 90
19, 54239, Note_on_c, 13, 45, 0
19, 54300, Note_on_c, 13, 45, 90
19, 54359, Note_on_c, 13, 45, 0
19, 54360, Note_on_c, 13, 49, 90
19, 54419, Note_on_c, 13, 49, 0
19, 54420, Note_on_c, 13, 45, 90
19, 54479, Note_on_c, 13, 45, 0
19, 54480, Note_on_c, 13, 50, 90
19, 54599, Note_on_c, 13, 50, 0
19, 54660, Note_on_c, 13, 50, 90
19, 54689, Note_on_c, 13, 50, 0
19, 54690, Note_on_c, 13, 52, 90
19, 54719, Note_on_c, 13, 52, 0
19, 54720, Note_on_c, 13, 54, 90
19, 54749, Note_on_c, 13, 54, 0
19, 54750, Note_on_c, 13, 52, 90
19, 54779, Note_on_c, 13, 52, 0
19, 54780, Note_on_c, 13, 54, 90
19, 54809, Note_on_c, 13, 54, 0
19, 54810, Note_on_c, 13, 50, 90
19, 54839, Note_on_c, 13, 50, 0
19, 54840, Note_on_c, 13, 55, 90
19, 54869, Note_on_c, 13, 55, 0
19, 54870, Note_on_c, 13, 57, 90
19, 54899, Note_on_c, 13, 57, 0
19, 54900, Note_on_c, 13, 54, 90
19, 54929, Note_on_c, 13, 54, 0
19, 54930, Note_on_c, 13, 55, 90
19, 54959, Note_on_c, 13, 55, 0
19, 54960, Note_on_c, 13, 52, 90
19, 54989, Note_on_c, 13, 52, 0
19, 54990, Note_on_c, 13, 54, 90
19, 55019, Note_on_c, 13, 54, 0
19, 55020, Note_on_c, 13, 50, 90
19, 55049, Note_on_c, 13, 50, 0
19, 55050, Note_on_c, 13, 62, 90
19, 55079, Note_on_c, 13, 62, 0
19, 55080, Note_on_c, 13, 61, 90
19, 55109, Note_on_c, 13, 61, 0
19, 55110, Note_on_c, 13, 62, 90
19, 55139, Note_on_c, 13, 62, 0
19, 55140, Note_on_c, 13, 59, 90
19, 55169, Note_on_c, 13, 59, 0
19, 55170, Note_on_c, 13, 61, 90
19, 55199, Note_on_c, 13, 61, 0
19, 55200, Note_on_c, 13, 57, 90
19, 55229, Note_on_c, 13, 57, 0
19, 55230, Note_on_c, 13, 59, 90
19, 55259, Note_on_c, 13, 59, 0
19, 55260, Note_on_c, 13, 55, 90
19, 55289, Note_on_c, 13, 55, 0
19, 55290, Note_on_c, 13, 57, 90
19, 55319, Note_on_c, 13, 57, 0
19, 55320, Note_on_c, 13, 54, 90
19, 55349, Note_on_c, 13, 54, 0
19, 55350, Note_on_c, 13, 55, 90
19, 55379, Note_on_c, 13, 55, 0
19, 55380, Note_on_c, 13, 52, 90
19, 55409, Note_on_c, 13, 52, 0
19, 55410, Note_on_c, 13, 54, 90
19, 55439, Note_on_c, 13, 54, 0
19, 55440, Note_on_c, 13, 50, 90
19, 55469, Note_on_c, 13, 50, 0
19, 55470, Note_on_c, 13, 52, 90
19, 55499, Note_on_c, 13, 52, 0
19, 55500, Note_on_c, 13, 49, 90
19, 55529, Note_on_c, 13, 49, 0
19, 55530, Note_on_c, 13, 50, 90
19, 55559, Note_on_c, 13, 50, 0
19, 55560, Note_on_c, 13, 47, 90
19, 55589, Note_on_c, 13, 47, 0
19, 55590, Note_on_c, 13, 59, 90
19, 55619, Note_on_c, 13, 59, 0
19, 55620, Note_on_c, 13, 57, 90
19, 55649, Note_on_c, 13, 57, 0
19, 55650, Note_on_c, 13, 59, 90
19, 55679, Note_on_c, 13, 59, 0
19, 55680, Note_on_c, 13, 55, 90
19, 55709, Note_on_c, 13, 55, 0
19, 55710, Note_on_c, 13, 57, 90
19, 55739, Note_on_c, 13, 57, 0
19, 55740, Note_on_c, 13, 54, 90
19, 55769, Note_on_c, 13, 54, 0
19, 55770, Note_on_c, 13, 55, 90
19, 55799, Note_on_c, 13, 55, 0
19, 55800, Note_on_c, 13, 52, 90
19, 55829, Note_on_c, 13, 52, 0
19, 55830, Note_on_c, 13, 54, 90
19, 55859, Note_on_c, 13, 54, 0
19, 55860, Note_on_c, 13, 50, 90
19, 55889, Note_on_c, 13, 50, 0
19, 55890, Note_on_c, 13, 52, 90
19, 55919, Note_on_c, 13, 52, 0
19, 55920, Note_on_c, 13, 49, 90
19, 55949, Note_on_c, 13, 49, 0
19, 55950, Note_on_c, 13, 47, 90
19, 55979, Note_on_c, 13, 47, 0
19, 55980, Note_on_c, 13, 49, 90
19, 56009, Note_on_c, 13, 49, 0
19, 56010, Note_on_c, 13, 52, 90
19, 56039, Note_on_c, 13, 52, 0
19, 56040, Note_on_c, 13, 51, 90
19, 56069, Note_on_c, 13, 51, 0
19, 56070, Note_on_c, 13, 54, 90
19, 56099, Note_on_c, 13, 54, 0
19, 56100, Note_on_c, 13, 52, 90
19, 56129, Note_on_c, 13, 52, 0
19, 56130, Note_on_c, 13, 54, 90
19, 56159, Note_on_c, 13, 54, 0
19, 56160, Note_on_c, 13, 50, 90
19, 56189, Note_on_c, 13, 50, 0
19, 56190, Note_on_c, 13, 52, 90
19, 56219, Note_on_c, 13, 52, 0
19, 56220, Note_on_c, 13, 49, 90
19, 56249, Note_on_c, 13, 49, 0
19, 56250, Note_on_c, 13, 50, 90
19, 56279, Note_on_c, 13, 50, 0
19, 56280, Note_on_c, 13, 47, 90
19, 56309, Note_on_c, 13, 47, 0
19, 56310, Note_on_c, 13, 49, 90
19, 56339, Note_on_c, 13, 49, 0
19, 56340, Note_on_c, 13, 45, 90
19, 56369, Note_on_c, 13, 45, 0
19, 56370, Note_on_c, 13, 47, 90
19, 56399, Note_on_c, 13, 47, 0
19, 56400, Note_on_c, 13, 43, 90
19, 56429, Note_on_c, 13, 43, 0
19, 56430, Note_on_c, 13, 45, 90
19, 56459, Note_on_c, 13, 45, 0
19, 56460, Note_on_c, 13, 42, 90
19, 56489, Note_on_c, 13, 42, 0
19, 56490, Note_on_c, 13, 40, 90
19, 56519, Note_on_c, 13, 40, 0
19, 56520, Note_on_c, 13, 42, 90
19, 56549, Note_on_c, 13, 42, 0
19, 56550, Note_on_c, 13, 45, 90
19, 56579, Note_on_c, 13, 45, 0
19, 56580, Note_on_c, 13, 44, 90
19, 56609, Note_on_c, 13, 44, 0
19, 56610, Note_on_c, 13, 47, 90
19, 56639, Note_on_c, 13, 47, 0
19, 56640, Note_on_c, 13, 45, 90
19, 56669, Note_on_c, 13, 45, 0
19, 56670, Note_on_c, 13, 49, 90
19, 56699, Note_on_c, 13, 49, 0
19, 56700, Note_on_c, 13, 47, 90
19, 56729, Note_on_c, 13, 47, 0
19, 56730, Note_on_c, 13, 50, 90
19, 56759, Note_on_c, 13, 50, 0
19, 56760, Note_on_c, 13, 49, 90
19, 56789, Note_on_c, 13, 49, 0
19, 56790, Note_on_c, 13, 52, 90
19, 56819, Note_on_c, 13, 52, 0
19, 56820, Note_on_c, 13, 50, 90
19, 56849, Note_on_c, 13, 50, 0
19, 56850, Note_on_c, 13, 52, 90
19, 56879, Note_on_c, 13, 52, 0
19, 56880, Note_on_c, 13, 49, 90
19, 56909, Note_on_c, 13, 49, 0
19, 56910, Note_on_c, 13, 50, 90
19, 56939, Note_on_c, 13, 50, 0
19, 56940, Note_on_c, 13, 47, 90
19, 56969, Note_on_c, 13, 47, 0
19, 56970, Note_on_c, 13, 49, 90
19, 56999, Note_on_c, 13, 49, 0
19, 57000, Note_on_c, 13, 45, 90
19, 57029, Note_on_c, 13, 45, 0
19, 57030, Note_on_c, 13, 57, 90
19, 57059, Note_on_c, 13, 57, 0
19, 57060, Note_on_c, 13, 55, 90
19, 57089, Note_on_c, 13, 55, 0
19, 57090, Note_on_c, 13, 57, 90
19, 57119, Note_on_c, 13, 57, 0
19, 57120, Note_on_c, 13, 54, 90
19, 57149, Note_on_c, 13, 54, 0
19, 57150, Note_on_c, 13, 55, 90
19, 57179, Note_on_c, 13, 55, 0
19, 57180, Note_on_c, 13, 52, 90
19, 57209, Note_on_c, 13, 52, 0
19, 57210, Note_on_c, 13, 50, 90
19, 57239, Note_on_c, 13, 50, 0
19, 57240, Note_on_c, 13, 52, 90
19, 57269, Note_on_c, 13, 52, 0
19, 57270, Note_on_c, 13, 55, 90
19, 57299, Note_on_c, 13, 55, 0
19, 57300, Note_on_c, 13, 54, 90
19, 57329, Note_on_c, 13, 54, 0
19, 57330, Note_on_c, 13, 57, 90
19, 57359, Note_on_c, 13, 57, 0
19, 57360, Note_on_c, 13, 55, 90
19, 57389, Note_on_c, 13, 55, 0
19, 57390, Note_on_c, 13, 57, 90
19, 57419, Note_on_c, 13, 57, 0
19, 57420, Note_on_c, 13, 54, 90
19, 57449, Note_on_c, 13, 54, 0
19, 57450, Note_on_c, 13, 55, 90
19, 57479, Note_on_c, 13, 55, 0
19, 57480, Note_on_c, 13, 52, 90
19, 57509, Note_on_c, 13, 52, 0
19, 57510, Note_on_c, 13, 54, 90
19, 57539, Note_on_c, 13, 54, 0
19, 57540, Note_on_c, 13, 50, 90
19, 57569, Note_on_c, 13, 50, 0
19, 57570, Note_on_c, 13, 62, 90
19, 57599, Note_on_c, 13, 62, 0
19, 57600, Note_on_c, 13, 61, 90
19, 57629, Note_on_c, 13, 61, 0
19, 57630, Note_on_c, 13, 62, 90
19, 57659, Note_on_c, 13, 62, 0
19, 57660, Note_on_c, 13, 59, 90
19, 57689, Note_on_c, 13, 59, 0
19, 57690, Note_on_c, 13, 61, 90
19, 57719, Note_on_c, 13, 61, 0
19, 57720, Note_on_c, 13, 57, 90
19, 57749, Note_on_c, 13, 57, 0
19, 57750, Note_on_c, 13, 55, 90
19, 57779, Note_on_c, 13, 55, 0
19, 57780, Note_on_c, 13, 57, 90
19, 57809, Note_on_c, 13, 57, 0
19, 57810, Note_on_c, 13, 59, 90
19, 57839, Note_on_c, 13, 59, 0
19, 57840, Note_on_c, 13, 55, 90
19, 57869, Note_on_c, 13, 55, 0
19, 57870, Note_on_c, 13, 57, 90
19, 57899, Note_on_c, 13, 57, 0
19, 57900, Note_on_c, 13, 54, 90
19, 57929, Note_on_c, 13, 54, 0
19, 57930, Note_on_c, 13, 52, 90
19, 57959, Note_on_c, 13, 52, 0
19, 57960, Note_on_c, 13, 54, 90
19, 57989, Note_on_c, 13, 54, 0
19, 57990, Note_on_c, 13, 55, 90
19, 58019, Note_on_c, 13, 55, 0
19, 58020, Note_on_c, 13, 52, 90
19, 58049, Note_on_c, 13, 52, 0
19, 58050, Note_on_c, 13, 54, 90
19, 58079, Note_on_c, 13, 54, 0
19, 58080, Note_on_c, 13, 51, 90
19, 58109, Note_on_c, 13, 51, 0
19, 58110, Note_on_c, 13, 60, 90
19, 58139, Note_on_c, 13, 60, 0
19, 58140, Note_on_c, 13, 59, 90
19, 58169, Note_on_c, 13, 59, 0
19, 58170, Note_on_c, 13, 60, 90
19, 58199, Note_on_c, 13, 60, 0
19, 58200, Note_on_c, 13, 57, 90
19, 58229, Note_on_c, 13, 57, 0
19, 58230, Note_on_c, 13, 59, 90
19, 58259, Note_on_c, 13, 59, 0
19, 58260, Note_on_c, 13, 55, 90
19, 58289, Note_on_c, 13, 55, 0
19, 58290, Note_on_c, 13, 54, 90
19, 58319, Note_on_c, 13, 54, 0
19, 58320, Note_on_c, 13, 55, 90
19, 58349, Note_on_c, 13, 55, 0
19, 58350, Note_on_c, 13, 57, 90
19, 58379, Note_on_c, 13, 57, 0
19, 58380, Note_on_c, 13, 54, 90
19, 58409, Note_on_c, 13, 54, 0
19, 58410, Note_on_c, 13, 55, 90
19, 58439, Note_on_c, 13, 55, 0
19, 58440, Note_on_c, 13, 52, 90
19, 58469, Note_on_c, 13, 52, 0
19, 58470, Note_on_c, 13, 51, 90
19, 58499, Note_on_c, 13, 51, 0
19, 58500, Note_on_c, 13, 52, 90
19, 58529, Note_on_c, 13, 52, 0
19, 58530, Note_on_c, 13, 54, 90
19, 58559, Note_on_c, 13, 54, 0
19, 58560, Note_on_c, 13, 50, 90
19, 58589, Note_on_c, 13, 50, 0
19, 58590, Note_on_c, 13, 52, 90
19, 58619, Note_on_c, 13, 52, 0
19, 58620, Note_on_c, 13, 49, 90
19, 58649, Note_on_c, 13, 49, 0
19, 58650, Note_on_c, 13, 47, 90
19, 58679, Note_on_c, 13, 47, 0
19, 58680, Note_on_c, 13, 49, 90
19, 58709, Note_on_c, 13, 49, 0
19, 58710, Note_on_c, 13, 50, 90
19, 58739, Note_on_c, 13, 50, 0
19, 58740, Note_on_c, 13, 47, 90
19, 58769, Note_on_c, 13, 47, 0
19, 58770, Note_on_c, 13, 49, 90
19, 58799, Note_on_c, 13, 49, 0
19, 58800, Note_on_c, 13, 45, 90
19, 58829, Note_on_c, 13, 45, 0
19, 58830, Note_on_c, 13, 59, 90
19, 58859, Note_on_c, 13, 59, 0
19, 58860, Note_on_c, 13, 57, 90
19, 58889, Note_on_c, 13, 57, 0
19, 58890, Note_on_c, 13, 59, 90
19, 58919, Note_on_c, 13, 59, 0
19, 58920, Note_on_c, 13, 55, 90
19, 58949, Note_on_c, 13, 55, 0
19, 58950, Note_on_c, 13, 57, 90
19, 58979, Note_on_c, 13, 57, 0
19, 58980, Note_on_c, 13, 54, 90
19, 59009, Note_on_c, 13, 54, 0
19, 59010, Note_on_c, 13, 52, 90
19, 59039, Note_on_c, 13, 52, 0
19, 59040, Note_on_c, 13, 54, 90
19, 59069, Note_on_c, 13, 54, 0
19, 59070, Note_on_c, 13, 55, 90
19, 59099, Note_on_c, 13, 55, 0
19, 59100, Note_on_c, 13, 52, 90
19, 59129, Note_on_c, 13, 52, 0
19, 59130, Note_on_c, 13, 54, 90
19, 59159, Note_on_c, 13, 54, 0
19, 59160, Note_on_c, 13, 50, 90
19, 59189, Note_on_c, 13, 50, 0
19, 59190, Note_on_c, 13, 49, 90
19, 59219, Note_on_c, 13, 49, 0
19, 59220, Note_on_c, 13, 50, 90
19, 59249, Note_on_c, 13, 50, 0
19, 59250, Note_on_c, 13, 52, 90
19, 59279, Note_on_c, 13, 52, 0
19, 59280, Note_on_c, 13, 49, 90
19, 59309, Note_on_c, 13, 49, 0
19, 59310, Note_on_c, 13, 50, 90
19, 59339, Note_on_c, 13, 50, 0
19, 59340, Note_on_c, 13, 47, 90
19, 59369, Note_on_c, 13, 47, 0
19, 59400, Note_on_c, 13, 59, 90
19, 59429, Note_on_c, 13, 59, 0
19, 59460, Note_on_c, 13, 57, 90
19, 59489, Note_on_c, 13, 57, 0
19, 59520, Note_on_c, 13, 56, 90
19, 59594, Note_on_c, 13, 56, 0
19, 59595, Note_on_c, 13, 57, 90
19, 59609, Note_on_c, 13, 57, 0
19, 59610, Note_on_c, 13, 56, 90
19, 59624, Note_on_c, 13, 56, 0
19, 59625, Note_on_c, 13, 54, 90
19, 59639, Note_on_c, 13, 54, 0
19, 59640, Note_on_c, 13, 52, 90
19, 59654, Note_on_c, 13, 52, 0
19, 59655, Note_on_c, 13, 50, 90
19, 59669, Note_on_c, 13, 50, 0
19, 59670, Note_on_c, 13, 49, 90
19, 59684, Note_on_c, 13, 49, 0
19, 59685, Note_on_c, 13, 47, 90
19, 59699, Note_on_c, 13, 47, 0
19, 59700, Note_on_c, 13, 45, 90
19, 59729, Note_on_c, 13, 45, 0
19, 59760, Note_on_c, 13, 57, 90
19, 59789, Note_on_c, 13, 57, 0
19, 59820, Note_on_c, 13, 55, 90
19, 59849, Note_on_c, 13, 55, 0
19, 59880, Note_on_c, 13, 54, 90
19, 59954, Note_on_c, 13, 54, 0
19, 59955, Note_on_c, 13, 55, 90
19, 59969, Note_on_c, 13, 55, 0
19, 59970, Note_on_c, 13, 54, 90
19, 59984, Note_on_c, 13, 54, 0
19, 59985, Note_on_c, 13, 52, 90
19, 59999, Note_on_c, 13, 52, 0
19, 60000, Note_on_c, 13, 50, 90
19, 60014, Note_on_c, 13, 50, 0
19, 60015, Note_on_c, 13, 49, 90
19, 60029, Note_on_c, 13, 49, 0
19, 60030, Note_on_c, 13, 47, 90
19, 60044, Note_on_c, 13, 47, 0
19, 60045, Note_on_c, 13, 45, 90
19, 60059, Note_on_c, 13, 45, 0
19, 60060, Note_on_c, 13, 43, 90
19, 60119, Note_on_c, 13, 43, 0
19, 60120, Note_on_c, 13, 55, 90
19, 60149, Note_on_c, 13, 55, 0
19, 60180, Note_on_c, 13, 54, 90
19, 60209, Note_on_c, 13, 54, 0
19, 60240, Note_on_c, 13, 52, 90
19, 60269, Note_on_c, 13, 52, 0
19, 60300, Note_on_c, 13, 47, 90
19, 60329, Note_on_c, 13, 47, 0
19, 60360, Note_on_c, 13, 50, 90
19, 60389, Note_on_c, 13, 50, 0
19, 60420, Note_on_c, 13, 49, 90
19, 60449, Note_on_c, 13, 49, 0
19, 60480, Note_on_c, 13, 47, 90
19, 60509, Note_on_c, 13, 47, 0
19, 60540, Note_on_c, 13, 45, 90
19, 60569, Note_on_c, 13, 45, 0
19, 60600, Note_on_c, 13, 50, 90
19, 60629, Note_on_c, 13, 50, 0
19, 60660, Note_on_c, 13, 42, 90
19, 60689, Note_on_c, 13, 42, 0
19, 60720, Note_on_c, 13, 45, 90
19, 60749, Note_on_c, 13, 45, 0
19, 60780, Note_on_c, 13, 38, 90
19, 60960, Note_on_c, 13, 38, 0
19, 61140, Program_c, 13, 19
19, 61140, Note_on_c, 13, 47, 100
19, 62340, Note_on_c, 13, 47, 0
19, 62340, Note_on_c, 13, 46, 90
19, 62819, Note_on_c, 13, 46, 0
19, 62820, Note_on_c, 13, 47, 90
19, 63539, Note_on_c, 13, 47, 0
19, 63540, Note_on_c, 13, 49, 90
19, 64019, Note_on_c, 13, 49, 0
19, 64020, Note_on_c, 13, 50, 90
19, 64739, Note_on_c, 13, 50, 0
19, 64740, Note_on_c, 13, 54, 90
19, 64979, Note_on_c, 13, 54, 0
19, 64980, Note_on_c, 13, 51, 90
19, 65699, Note_on_c, 13, 51, 0
19, 65700, Note_on_c, 13, 52, 90
19, 65939, Note_on_c, 13, 52, 0
19, 65940, Note_on_c, 13, 50, 90
19, 66419, Note_on_c, 13, 50, 0
19, 66420, Note_on_c, 13, 49, 90
19, 66659, Note_on_c, 13, 49, 0
19, 66660, Note_on_c, 13, 46, 90
19, 66899, Note_on_c, 13, 46, 0
19, 66900, Note_on_c, 13, 42, 90
19, 67139, Note_on_c, 13, 42, 0
19, 67140, Note_on_c, 13, 47, 90
19, 67619, Note_on_c, 13, 47, 0
19, 67620, Note_on_c, 13, 41, 90
19, 68580, Note_on_c, 13, 41, 0
19, 68580, Note_on_c, 13, 42, 90
19, 69300, Note_on_c, 13, 42, 0
19, 69300, Note_on_c, 13, 44, 90
19, 69540, Note_on_c, 13, 44, 0
19, 69540, Note_on_c, 13, 45, 90
19, 69660, Note_on_c, 13, 45, 0
19, 69660, Note_on_c, 13, 38, 90
19, 69780, Note_on_c, 13, 38, 0
19, 69900, Note_on_c, 13, 40, 90
19, 70020, Note_on_c, 13, 40, 0
19, 70020, Note_on_c, 13, 45, 90
19, 71940, Note_on_c, 13, 45, 0
19, 71940, Note_on_c, 13, 44, 90
19, 72060, Note_on_c, 13, 44, 0
19, 72060, Note_on_c, 13, 42, 90
19, 72180, Note_on_c, 13, 42, 0
19, 72180, Note_on_c, 13, 40, 90
19, 72900, Note_on_c, 13, 40, 0
19, 72900, Note_on_c, 13, 46, 90
19, 73380, Note_on_c, 13, 46, 0
19, 73380, Note_on_c, 13, 47, 90
19, 73620, Note_on_c, 13, 47, 0
19, 73620, Note_on_c, 13, 42, 90
19, 73860, Note_on_c, 13, 42, 0
19, 73860, Note_on_c, 13, 39, 90
19, 74100, Note_on_c, 13, 39, 0
19, 74100, Note_on_c, 13, 38, 90
19, 74340, Note_on_c, 13, 38, 0
19, 74340, Note_on_c, 13, 48, 90
19, 74580, Note_on_c, 13, 48, 0
19, 74700, Note_on_c, 13, 47, 90
19, 74820, Note_on_c, 13, 47, 0
19, 74820, Note_on_c, 13, 40, 90
19, 75060, Note_on_c, 13, 40, 0
19, 75540, Note_on_c, 13, 40, 90
19, 75599, Note_on_c, 13, 40, 0
19, 75600, Note_on_c, 13, 45, 90
19, 75659, Note_on_c, 13, 45, 0
19, 75660, Note_on_c, 13, 47, 90
19, 75719, Note_on_c, 13, 47, 0
19, 75720, Note_on_c, 13, 48, 90
19, 75779, Note_on_c, 13, 48, 0
19, 75780, Note_on_c, 13, 50, 90
19, 75839, Note_on_c, 13, 50, 0
19, 75840, Note_on_c, 13, 47, 90
19, 75899, Note_on_c, 13, 47, 0
19, 75900, Note_on_c, 13, 43, 90
19, 75959, Note_on_c, 13, 43, 0
19, 75960, Note_on_c, 13, 48, 90
19, 76019, Note_on_c, 13, 48, 0
19, 76020, Note_on_c, 13, 52, 90
19, 76079, Note_on_c, 13, 52, 0
19, 76080, Note_on_c, 13, 45, 90
19, 76139, Note_on_c, 13, 45, 0
19, 76140, Note_on_c, 13, 50, 90
19, 76259, Note_on_c, 13, 50, 0
19, 76260, Note_on_c, 13, 52, 90
19, 76319, Note_on_c, 13, 52, 0
19, 76320, Note_on_c, 13, 48, 90
19, 76379, Note_on_c, 13, 48, 0
19, 76380, Note_on_c, 13, 50, 90
19, 76409, Note_on_c, 13, 50, 0
19, 76410, Note_on_c, 13, 48, 90
19, 76439, Note_on_c, 13, 48, 0
19, 76440, Note_on_c, 13, 47, 90
19, 76469, Note_on_c, 13, 47, 0
19, 76470, Note_on_c, 13, 45, 90
19, 76499, Note_on_c, 13, 45, 0
19, 76500, Note_on_c, 13, 44, 90
19, 76559, Note_on_c, 13, 44, 0
19, 76560, Note_on_c, 13, 45, 90
19, 76589, Note_on_c, 13, 45, 0
19, 76590, Note_on_c, 13, 44, 90
19, 76619, Note_on_c, 13, 44, 0
19, 76620, Note_on_c, 13, 45, 90
19, 76679, Note_on_c, 13, 45, 0
19, 76680, Note_on_c, 13, 40, 90
19, 76739, Note_on_c, 13, 40, 0
19, 76740, Note_on_c, 13, 52, 90
19, 76799, Note_on_c, 13, 52, 0
19, 76800, Note_on_c, 13, 56, 90
19, 76859, Note_on_c, 13, 56, 0
19, 76860, Note_on_c, 13, 57, 90
19, 76919, Note_on_c, 13, 57, 0
19, 76920, Note_on_c, 13, 45, 90
19, 76979, Note_on_c, 13, 45, 0
19, 76980, Note_on_c, 13, 49, 90
19, 77039, Note_on_c, 13, 49, 0
19, 77040, Note_on_c, 13, 50, 90
19, 77099, Note_on_c, 13, 50, 0
19, 77160, Note_on_c, 13, 53, 90
19, 77219, Note_on_c, 13, 53, 0
19, 77220, Note_on_c, 13, 55, 90
19, 77279, Note_on_c, 13, 55, 0
19, 77280, Note_on_c, 13, 43, 90
19, 77339, Note_on_c, 13, 43, 0
19, 77340, Note_on_c, 13, 47, 90
19, 77399, Note_on_c, 13, 47, 0
19, 77400, Note_on_c, 13, 48, 90
19, 77459, Note_on_c, 13, 48, 0
19, 77520, Note_on_c, 13, 52, 90
19, 77579, Note_on_c, 13, 52, 0
19, 77580, Note_on_c, 13, 53, 90
19, 77639, Note_on_c, 13, 53, 0
19, 77640, Note_on_c, 13, 52, 90
19, 77699, Note_on_c, 13, 52, 0
19, 77700, Note_on_c, 13, 50, 90
19, 77759, Note_on_c, 13, 50, 0
19, 77760, Note_on_c, 13, 48, 90
19, 77819, Note_on_c, 13, 48, 0
19, 77820, Note_on_c, 13, 45, 90
19, 77879, Note_on_c, 13, 45, 0
19, 77880, Note_on_c, 13, 47, 90
19, 77939, Note_on_c, 13, 47, 0
19, 77940, Note_on_c, 13, 48, 90
19, 77999, Note_on_c, 13, 48, 0
19, 78000, Note_on_c, 13, 50, 90
19, 78059, Note_on_c, 13, 50, 0
19, 78060, Note_on_c, 13, 52, 90
19, 78119, Note_on_c, 13, 52, 0
19, 78120, Note_on_c, 13, 45, 90
19, 78239, Note_on_c, 13, 45, 0
19, 78420, Note_on_c, 13, 40, 90
19, 78479, Note_on_c, 13, 40, 0
19, 78480, Note_on_c, 13, 45, 90
19, 78539, Note_on_c, 13, 45, 0
19, 78540, Note_on_c, 13, 47, 90
19, 78599, Note_on_c, 13, 47, 0
19, 78600, Note_on_c, 13, 48, 90
19, 78659, Note_on_c, 13, 48, 0
19, 78660, Note_on_c, 13, 50, 90
19, 78719, Note_on_c, 13, 50, 0
19, 78720, Note_on_c, 13, 47, 90
19, 78779, Note_on_c, 13, 47, 0
19, 78780, Note_on_c, 13, 43, 90
19, 78839, Note_on_c, 13, 43, 0
19, 78840, Note_on_c, 13, 48, 90
19, 78899, Note_on_c, 13, 48, 0
19, 78900, Note_on_c, 13, 52, 90
19, 78959, Note_on_c, 13, 52, 0
19, 78960, Note_on_c, 13, 45, 90
19, 79019, Note_on_c, 13, 45, 0
19, 79020, Note_on_c, 13, 50, 90
19, 79139, Note_on_c, 13, 50, 0
19, 79140, Note_on_c, 13, 52, 90
19, 79199, Note_on_c, 13, 52, 0
19, 79200, Note_on_c, 13, 48, 90
19, 79259, Note_on_c, 13, 48, 0
19, 79260, Note_on_c, 13, 50, 90
19, 79289, Note_on_c, 13, 50, 0
19, 79290, Note_on_c, 13, 48, 90
19, 79319, Note_on_c, 13, 48, 0
19, 79320, Note_on_c, 13, 47, 90
19, 79349, Note_on_c, 13, 47, 0
19, 79350, Note_on_c, 13, 45, 90
19, 79379, Note_on_c, 13, 45, 0
19, 79380, Note_on_c, 13, 44, 90
19, 79439, Note_on_c, 13, 44, 0
19, 79440, Note_on_c, 13, 45, 90
19, 79469, Note_on_c, 13, 45, 0
19, 79470, Note_on_c, 13, 44, 90
19, 79499, Note_on_c, 13, 44, 0
19, 79500, Note_on_c, 13, 45, 90
19, 79559, Note_on_c, 13, 45, 0
19, 79560, Note_on_c, 13, 40, 90
19, 79619, Note_on_c, 13, 40, 0
19, 79620, Note_on_c, 13, 52, 90
19, 79679, Note_on_c, 13, 52, 0
19, 79680, Note_on_c, 13, 51, 90
19, 79739, Note_on_c, 13, 51, 0
19, 79740, Note_on_c, 13, 52, 90
19, 79799, Note_on_c, 13, 52, 0
19, 79860, Note_on_c, 13, 56, 90
19, 79919, Note_on_c, 13, 56, 0
19, 79920, Note_on_c, 13, 57, 90
19, 79979, Note_on_c, 13, 57, 0
19, 79980, Note_on_c, 13, 45, 90
19, 80039, Note_on_c, 13, 45, 0
19, 80040, Note_on_c, 13, 49, 90
19, 80099, Note_on_c, 13, 49, 0
19, 80100, Note_on_c, 13, 50, 90
19, 80159, Note_on_c, 13, 50, 0
19, 80220, Note_on_c, 13, 53, 90
19, 80279, Note_on_c, 13, 53, 0
19, 80280, Note_on_c, 13, 55, 90
19, 80339, Note_on_c, 13, 55, 0
19, 80340, Note_on_c, 13, 43, 90
19, 80399, Note_on_c, 13, 43, 0
19, 80400, Note_on_c, 13, 47, 90
19, 80459, Note_on_c, 13, 47, 0
19, 80460, Note_on_c, 13, 48, 90
19, 80519, Note_on_c, 13, 48, 0
19, 80520, Note_on_c, 13, 60, 90
19, 80579, Note_on_c, 13, 60, 0
19, 80580, Note_on_c, 13, 59, 90
19, 80639, Note_on_c, 13, 59, 0
19, 80640, Note_on_c, 13, 60, 90
19, 80699, Note_on_c, 13, 60, 0
19, 80700, Note_on_c, 13, 52, 90
19, 80729, Note_on_c, 13, 52, 0
19, 80730, Note_on_c, 13, 50, 90
19, 80759, Note_on_c, 13, 50, 0
19, 80760, Note_on_c, 13, 52, 90
19, 80789, Note_on_c, 13, 52, 0
19, 80790, Note_on_c, 13, 48, 90
19, 80819, Note_on_c, 13, 48, 0
19, 80820, Note_on_c, 13, 47, 90
19, 80879, Note_on_c, 13, 47, 0
19, 80880, Note_on_c, 13, 48, 90
19, 80939, Note_on_c, 13, 48, 0
19, 80940, Note_on_c, 13, 50, 90
19, 80999, Note_on_c, 13, 50, 0
19, 81000, Note_on_c, 13, 43, 90
19, 81059, Note_on_c, 13, 43, 0
19, 81060, Note_on_c, 13, 55, 90
19, 81089, Note_on_c, 13, 55, 0
19, 81090, Note_on_c, 13, 53, 90
19, 81119, Note_on_c, 13, 53, 0
19, 81120, Note_on_c, 13, 55, 90
19, 81149, Note_on_c, 13, 55, 0
19, 81150, Note_on_c, 13, 52, 90
19, 81179, Note_on_c, 13, 52, 0
19, 81180, Note_on_c, 13, 53, 90
19, 81239, Note_on_c, 13, 53, 0
19, 81240, Note_on_c, 13, 55, 90
19, 81299, Note_on_c, 13, 55, 0
19, 81300, Note_on_c, 13, 57, 90
19, 81359, Note_on_c, 13, 57, 0
19, 81360, Note_on_c, 13, 50, 90
19, 81419, Note_on_c, 13, 50, 0
19, 81420, Note_on_c, 13, 53, 90
19, 81449, Note_on_c, 13, 53, 0
19, 81450, Note_on_c, 13, 52, 90
19, 81479, Note_on_c, 13, 52, 0
19, 81480, Note_on_c, 13, 53, 90
19, 81509, Note_on_c, 13, 53, 0
19, 81510, Note_on_c, 13, 50, 90
19, 81539, Note_on_c, 13, 50, 0
19, 81540, Note_on_c, 13, 48, 90
19, 81599, Note_on_c, 13, 48, 0
19, 81600, Note_on_c, 13, 50, 90
19, 81659, Note_on_c, 13, 50, 0
19, 81660, Note_on_c, 13, 52, 90
19, 81719, Note_on_c, 13, 52, 0
19, 81720, Note_on_c, 13, 45, 90
19, 81839, Note_on_c, 13, 45, 0
19, 82020, Note_on_c, 13, 40, 90
19, 82079, Note_on_c, 13, 40, 0
19, 82080, Note_on_c, 13, 45, 90
19, 82139, Note_on_c, 13, 45, 0
19, 82200, Note_on_c, 13, 45, 90
19, 82259, Note_on_c, 13, 45, 0
19, 82260, Note_on_c, 13, 50, 90
19, 82319, Note_on_c, 13, 50, 0
19, 82320, Note_on_c, 13, 53, 90
19, 82379, Note_on_c, 13, 53, 0
19, 82380, Note_on_c, 13, 55, 90
19, 82439, Note_on_c, 13, 55, 0
19, 82440, Note_on_c, 13, 48, 90
19, 82499, Note_on_c, 13, 48, 0
19, 82560, Note_on_c, 13, 45, 90
19, 82619, Note_on_c, 13, 45, 0
19, 82620, Note_on_c, 13, 50, 90
19, 82679, Note_on_c, 13, 50, 0
19, 82740, Note_on_c, 13, 52, 90
19, 82799, Note_on_c, 13, 52, 0
19, 82800, Note_on_c, 13, 53, 90
19, 82829, Note_on_c, 13, 53, 0
19, 82830, Note_on_c, 13, 52, 90
19, 82859, Note_on_c, 13, 52, 0
19, 82860, Note_on_c, 13, 50, 90
19, 82889, Note_on_c, 13, 50, 0
19, 82890, Note_on_c, 13, 48, 90
19, 82919, Note_on_c, 13, 48, 0
19, 82920, Note_on_c, 13, 47, 90
19, 82949, Note_on_c, 13, 47, 0
19, 82950, Note_on_c, 13, 45, 90
19, 82979, Note_on_c, 13, 45, 0
19, 82980, Note_on_c, 13, 44, 90
19, 83039, Note_on_c, 13, 44, 0
19, 83040, Note_on_c, 13, 40, 90
19, 83099, Note_on_c, 13, 40, 0
19, 83100, Note_on_c, 13, 45, 90
19, 83159, Note_on_c, 13, 45, 0
19, 83160, Note_on_c, 13, 40, 90
19, 83219, Note_on_c, 13, 40, 0
19, 83220, Note_on_c, 13, 52, 90
19, 83279, Note_on_c, 13, 52, 0
19, 83280, Note_on_c, 13, 44, 90
19, 83339, Note_on_c, 13, 44, 0
19, 83340, Note_on_c, 13, 45, 90
19, 83399, Note_on_c, 13, 45, 0
19, 83460, Note_on_c, 13, 49, 90
19, 83519, Note_on_c, 13, 49, 0
19, 83520, Note_on_c, 13, 50, 90
19, 83579, Note_on_c, 13, 50, 0
19, 83580, Note_on_c, 13, 53, 90
19, 83639, Note_on_c, 13, 53, 0
19, 83640, Note_on_c, 13, 50, 90
19, 83699, Note_on_c, 13, 50, 0
19, 83700, Note_on_c, 13, 55, 90
19, 83759, Note_on_c, 13, 55, 0
19, 83820, Note_on_c, 13, 47, 90
19, 83879, Note_on_c, 13, 47, 0
19, 83880, Note_on_c, 13, 48, 90
19, 83939, Note_on_c, 13, 48, 0
19, 83940, Note_on_c, 13, 52, 90
19, 83999, Note_on_c, 13, 52, 0
19, 84000, Note_on_c, 13, 48, 90
19, 84059, Note_on_c, 13, 48, 0
19, 84060, Note_on_c, 13, 53, 90
19, 84119, Note_on_c, 13, 53, 0
19, 84120, Note_on_c, 13, 52, 90
19, 84179, Note_on_c, 13, 52, 0
19, 84180, Note_on_c, 13, 50, 90
19, 84239, Note_on_c, 13, 50, 0
19, 84240, Note_on_c, 13, 48, 90
19, 84299, Note_on_c, 13, 48, 0
19, 84300, Note_on_c, 13, 53, 90
19, 84359, Note_on_c, 13, 53, 0
19, 84360, Note_on_c, 13, 50, 90
19, 84419, Note_on_c, 13, 50, 0
19, 84420, Note_on_c, 13, 52, 90
19, 84479, Note_on_c, 13, 52, 0
19, 84480, Note_on_c, 13, 50, 90
19, 84539, Note_on_c, 13, 50, 0
19, 84540, Note_on_c, 13, 52, 90
19, 84599, Note_on_c, 13, 52, 0
19, 84600, Note_on_c, 13, 41, 90
19, 84659, Note_on_c, 13, 41, 0
19, 84660, Note_on_c, 13, 53, 90
19, 84689, Note_on_c, 13, 53, 0
19, 84690, Note_on_c, 13, 52, 90
19, 84719, Note_on_c, 13, 52, 0
19, 84720, Note_on_c, 13, 50, 90
19, 84749, Note_on_c, 13, 50, 0
19, 84750, Note_on_c, 13, 48, 90
19, 84779, Note_on_c, 13, 48, 0
19, 84780, Note_on_c, 13, 46, 90
19, 84839, Note_on_c, 13, 46, 0
19, 84960, Note_on_c, 13, 40, 90
19, 85019, Note_on_c, 13, 40, 0
19, 85140, Note_on_c, 13, 45, 90
19, 85199, Note_on_c, 13, 45, 0
19, 85320, Note_on_c, 13, 38, 90
19, 85379, Note_on_c, 13, 38, 0
19, 85440, Note_on_c, 13, 50, 90
19, 85559, Note_on_c, 13, 50, 0
19, 85560, Note_on_c, 13, 44, 90
19, 85589, Note_on_c, 13, 44, 0
19, 85590, Note_on_c, 13, 42, 90
19, 85619, Note_on_c, 13, 42, 0
19, 85620, Note_on_c, 13, 44, 90
19, 85649, Note_on_c, 13, 44, 0
19, 85650, Note_on_c, 13, 40, 90
19, 85679, Note_on_c, 13, 40, 0
19, 85680, Note_on_c, 13, 45, 90
19, 85769, Note_on_c, 13, 45, 0
19, 85770, Note_on_c, 13, 47, 90
19, 85799, Note_on_c, 13, 47, 0
19, 85800, Note_on_c, 13, 49, 90
19, 85829, Note_on_c, 13, 49, 0
19, 85830, Note_on_c, 13, 45, 90
19, 85859, Note_on_c, 13, 45, 0
19, 85860, Note_on_c, 13, 50, 90
19, 85919, Note_on_c, 13, 50, 0
19, 85920, Note_on_c, 13, 42, 90
19, 85949, Note_on_c, 13, 42, 0
19, 85950, Note_on_c, 13, 40, 90
19, 85979, Note_on_c, 13, 40, 0
19, 85980, Note_on_c, 13, 42, 90
19, 86009, Note_on_c, 13, 42, 0
19, 86010, Note_on_c, 13, 38, 90
19, 86039, Note_on_c, 13, 38, 0
19, 86040, Note_on_c, 13, 43, 90
19, 86129, Note_on_c, 13, 43, 0
19, 86130, Note_on_c, 13, 45, 90
19, 86159, Note_on_c, 13, 45, 0
19, 86160, Note_on_c, 13, 47, 90
19, 86189, Note_on_c, 13, 47, 0
19, 86190, Note_on_c, 13, 43, 90
19, 86219, Note_on_c, 13, 43, 0
19, 86220, Note_on_c, 13, 48, 90
19, 86279, Note_on_c, 13, 48, 0
19, 86280, Note_on_c, 13, 40, 90
19, 86309, Note_on_c, 13, 40, 0
19, 86310, Note_on_c, 13, 38, 90
19, 86339, Note_on_c, 13, 38, 0
19, 86340, Note_on_c, 13, 40, 90
19, 86369, Note_on_c, 13, 40, 0
19, 86370, Note_on_c, 13, 36, 90
19, 86399, Note_on_c, 13, 36, 0
19, 86400, Note_on_c, 13, 41, 90
19, 86459, Note_on_c, 13, 41, 0
19, 86460, Note_on_c, 13, 53, 90
19, 86489, Note_on_c, 13, 53, 0
19, 86490, Note_on_c, 13, 52, 90
19, 86519, Note_on_c, 13, 52, 0
19, 86520, Note_on_c, 13, 53, 90
19, 86549, Note_on_c, 13, 53, 0
19, 86550, Note_on_c, 13, 50, 90
19, 86579, Note_on_c, 13, 50, 0
19, 86580, Note_on_c, 13, 52, 90
19, 86639, Note_on_c, 13, 52, 0
19, 86640, Note_on_c, 13, 49, 90
19, 86699, Note_on_c, 13, 49, 0
19, 86700, Note_on_c, 13, 45, 90
19, 86759, Note_on_c, 13, 45, 0
19, 86760, Note_on_c, 13, 50, 90
19, 86819, Note_on_c, 13, 50, 0
19, 86820, Note_on_c, 13, 38, 90
19, 86879, Note_on_c, 13, 38, 0
19, 86880, Note_on_c, 13, 41, 90
19, 86939, Note_on_c, 13, 41, 0
19, 86940, Note_on_c, 13, 45, 90
19, 86999, Note_on_c, 13, 45, 0
19, 87060, Note_on_c, 13, 57, 90
19, 87119, Note_on_c, 13, 57, 0
19, 87120, Note_on_c, 13, 50, 90
19, 87179, Note_on_c, 13, 50, 0
19, 87240, Note_on_c, 13, 38, 90
19, 87299, Note_on_c, 13, 38, 0
19, 87300, Note_on_c, 13, 43, 90
19, 87359, Note_on_c, 13, 43, 0
19, 87420, Note_on_c, 13, 47, 90
19, 87479, Note_on_c, 13, 47, 0
19, 87480, Note_on_c, 13, 48, 90
19, 87539, Note_on_c, 13, 48, 0
19, 87600, Note_on_c, 13, 36, 90
19, 87659, Note_on_c, 13, 36, 0
19, 87660, Note_on_c, 13, 41, 90
19, 87719, Note_on_c, 13, 41, 0
19, 87720, Note_on_c, 13, 52, 90
19, 87779, Note_on_c, 13, 52, 0
19, 87780, Note_on_c, 13, 50, 90
19, 87839, Note_on_c, 13, 50, 0
19, 87840, Note_on_c, 13, 48, 90
19, 87899, Note_on_c, 13, 48, 0
19, 87960, Note_on_c, 13, 47, 90
19, 88019, Note_on_c, 13, 47, 0
19, 88020, Note_on_c, 13, 48, 90
19, 88079, Note_on_c, 13, 48, 0
19, 88080, Note_on_c, 13, 50, 90
19, 88139, Note_on_c, 13, 50, 0
19, 88140, Note_on_c, 13, 52, 90
19, 88199, Note_on_c, 13, 52, 0
19, 88200, Note_on_c, 13, 45, 90
19, 88319, Note_on_c, 13, 45, 0
19, 88500, Note_on_c, 13, 40, 90
19, 88559, Note_on_c, 13, 40, 0
19, 88560, Note_on_c, 13, 45, 90
19, 88619, Note_on_c, 13, 45, 0
19, 88620, Note_on_c, 13, 47, 90
19, 88679, Note_on_c, 13, 47, 0
19, 88680, Note_on_c, 13, 48, 90
19, 88739, Note_on_c, 13, 48, 0
19, 88740, Note_on_c, 13, 50, 90
19, 88799, Note_on_c, 13, 50, 0
19, 88800, Note_on_c, 13, 55, 90
19, 88859, Note_on_c, 13, 55, 0
19, 88860, Note_on_c, 13, 43, 90
19, 88919, Note_on_c, 13, 43, 0
19, 88920, Note_on_c, 13, 48, 90
19, 88979, Note_on_c, 13, 48, 0
19, 88980, Note_on_c, 13, 52, 90
19, 89039, Note_on_c, 13, 52, 0
19, 89040, Note_on_c, 13, 45, 90
19, 89099, Note_on_c, 13, 45, 0
19, 89100, Note_on_c, 13, 50, 90
19, 89219, Note_on_c, 13, 50, 0
19, 89220, Note_on_c, 13, 52, 90
19, 89279, Note_on_c, 13, 52, 0
19, 89280, Note_on_c, 13, 48, 90
19, 89339, Note_on_c, 13, 48, 0
19, 89340, Note_on_c, 13, 50, 90
19, 89369, Note_on_c, 13, 50, 0
19, 89370, Note_on_c, 13, 48, 90
19, 89399, Note_on_c, 13, 48, 0
19, 89400, Note_on_c, 13, 47, 90
19, 89429, Note_on_c, 13, 47, 0
19, 89430, Note_on_c, 13, 45, 90
19, 89459, Note_on_c, 13, 45, 0
19, 89460, Note_on_c, 13, 44, 90
19, 89519, Note_on_c, 13, 44, 0
19, 89520, Note_on_c, 13, 45, 90
19, 89549, Note_on_c, 13, 45, 0
19, 89550, Note_on_c, 13, 44, 90
19, 89579, Note_on_c, 13, 44, 0
19, 89580, Note_on_c, 13, 45, 90
19, 89639, Note_on_c, 13, 45, 0
19, 89640, Note_on_c, 13, 40, 90
19, 89699, Note_on_c, 13, 40, 0
19, 89700, Note_on_c, 13, 52, 90
19, 89759, Note_on_c, 13, 52, 0
19, 89760, Note_on_c, 13, 56, 90
19, 89819, Note_on_c, 13, 56, 0
19, 89820, Note_on_c, 13, 57, 90
19, 89879, Note_on_c, 13, 57, 0
19, 89880, Note_on_c, 13, 45, 90
19, 89939, Note_on_c, 13, 45, 0
19, 89940, Note_on_c, 13, 49, 90
19, 89999, Note_on_c, 13, 49, 0
19, 90000, Note_on_c, 13, 50, 90
19, 90059, Note_on_c, 13, 50, 0
19, 90120, Note_on_c, 13, 53, 90
19, 90179, Note_on_c, 13, 53, 0
19, 90180, Note_on_c, 13, 55, 90
19, 90239, Note_on_c, 13, 55, 0
19, 90240, Note_on_c, 13, 43, 90
19, 90299, Note_on_c, 13, 43, 0
19, 90300, Note_on_c, 13, 47, 90
19, 90359, Note_on_c, 13, 47, 0
19, 90360, Note_on_c, 13, 48, 90
19, 90419, Note_on_c, 13, 48, 0
19, 90480, Note_on_c, 13, 52, 90
19, 90539, Note_on_c, 13, 52, 0
19, 90540, Note_on_c, 13, 53, 90
19, 90599, Note_on_c, 13, 53, 0
19, 90600, Note_on_c, 13, 52, 90
19, 90659, Note_on_c, 13, 52, 0
19, 90660, Note_on_c, 13, 50, 90
19, 90719, Note_on_c, 13, 50, 0
19, 90720, Note_on_c, 13, 48, 90
19, 90779, Note_on_c, 13, 48, 0
19, 90780, Note_on_c, 13, 45, 90
19, 90839, Note_on_c, 13, 45, 0
19, 90840, Note_on_c, 13, 47, 90
19, 90899, Note_on_c, 13, 47, 0
19, 90900, Note_on_c, 13, 48, 90
19, 90959, Note_on_c, 13, 48, 0
19, 90960, Note_on_c, 13, 50, 90
19, 91019, Note_on_c, 13, 50, 0
19, 91020, Note_on_c, 13, 52, 90
19, 91079, Note_on_c, 13, 52, 0
19, 91080, Note_on_c, 13, 45, 90
19, 91109, Note_on_c, 13, 45, 0
19, 91110, Note_on_c, 13, 48, 90
19, 91139, Note_on_c, 13, 48, 0
19, 91140, Note_on_c, 13, 52, 90
19, 91169, Note_on_c, 13, 52, 0
19, 91170, Note_on_c, 13, 57, 90
19, 91199, Note_on_c, 13, 57, 0
19, 91200, Note_on_c, 13, 52, 90
19, 91229, Note_on_c, 13, 52, 0
19, 91230, Note_on_c, 13, 48, 90
19, 91259, Note_on_c, 13, 48, 0
19, 91260, Note_on_c, 13, 45, 90
19, 91379, Note_on_c, 13, 45, 0
19, 91500, Program_c, 13, 19
19, 93240, Note_on_c, 13, 51, 90
19, 93299, Note_on_c, 13, 51, 0
19, 93360, Note_on_c, 13, 52, 90
19, 93419, Note_on_c, 13, 52, 0
19, 93420, Note_on_c, 13, 57, 90
19, 93449, Note_on_c, 13, 57, 0
19, 93450, Note_on_c, 13, 55, 90
19, 93479, Note_on_c, 13, 55, 0
19, 93480, Note_on_c, 13, 57, 90
19, 93509, Note_on_c, 13, 57, 0
19, 93510, Note_on_c, 13, 59, 90
19, 93539, Note_on_c, 13, 59, 0
19, 93540, Note_on_c, 13, 60, 90
19, 93569, Note_on_c, 13, 60, 0
19, 93570, Note_on_c, 13, 57, 90
19, 93599, Note_on_c, 13, 57, 0
19, 93600, Note_on_c, 13, 59, 90
19, 93629, Note_on_c, 13, 59, 0
19, 93630, Note_on_c, 13, 60, 90
19, 93659, Note_on_c, 13, 60, 0
19, 93660, Note_on_c, 13, 59, 90
19, 93689, Note_on_c, 13, 59, 0
19, 93690, Note_on_c, 13, 57, 90
19, 93719, Note_on_c, 13, 57, 0
19, 93720, Note_on_c, 13, 55, 90
19, 93749, Note_on_c, 13, 55, 0
19, 93750, Note_on_c, 13, 54, 90
19, 93779, Note_on_c, 13, 54, 0
19, 93780, Note_on_c, 13, 52, 90
19, 93839, Note_on_c, 13, 52, 0
19, 93840, Note_on_c, 13, 55, 90
19, 93899, Note_on_c, 13, 55, 0
19, 93900, Note_on_c, 13, 54, 90
19, 93959, Note_on_c, 13, 54, 0
19, 93960, Note_on_c, 13, 55, 90
19, 94019, Note_on_c, 13, 55, 0
19, 94020, Note_on_c, 13, 51, 90
19, 94079, Note_on_c, 13, 51, 0
19, 94080, Note_on_c, 13, 52, 90
19, 94139, Note_on_c, 13, 52, 0
19, 94140, Note_on_c, 13, 48, 90
19, 94199, Note_on_c, 13, 48, 0
19, 94200, Note_on_c, 13, 50, 90
19, 94259, Note_on_c, 13, 50, 0
19, 94260, Note_on_c, 13, 52, 90
19, 94319, Note_on_c, 13, 52, 0
19, 94320, Note_on_c, 13, 45, 90
19, 94379, Note_on_c, 13, 45, 0
19, 94410, Note_on_c, 13, 57, 90
19, 94439, Note_on_c, 13, 57, 0
19, 94440, Note_on_c, 13, 54, 90
19, 94469, Note_on_c, 13, 54, 0
19, 94470, Note_on_c, 13, 52, 90
19, 94499, Note_on_c, 13, 52, 0
19, 94500, Note_on_c, 13, 50, 90
19, 94559, Note_on_c, 13, 50, 0
19, 94560, Note_on_c, 13, 54, 90
19, 94619, Note_on_c, 13, 54, 0
19, 94620, Note_on_c, 13, 52, 90
19, 94679, Note_on_c, 13, 52, 0
19, 94680, Note_on_c, 13, 54, 90
19, 94739, Note_on_c, 13, 54, 0
19, 94740, Note_on_c, 13, 49, 90
19, 94799, Note_on_c, 13, 49, 0
19, 94800, Note_on_c, 13, 50, 90
19, 94859, Note_on_c, 13, 50, 0
19, 94860, Note_on_c, 13, 47, 90
19, 94919, Note_on_c, 13, 47, 0
19, 94920, Note_on_c, 13, 48, 90
19, 94979, Note_on_c, 13, 48, 0
19, 94980, Note_on_c, 13, 50, 90
19, 95039, Note_on_c, 13, 50, 0
19, 95040, Note_on_c, 13, 43, 90
19, 95099, Note_on_c, 13, 43, 0
19, 95100, Note_on_c, 13, 42, 90
19, 95159, Note_on_c, 13, 42, 0
19, 95160, Note_on_c, 13, 40, 90
19, 95219, Note_on_c, 13, 40, 0
19, 95220, Note_on_c, 13, 45, 90
19, 95279, Note_on_c, 13, 45, 0
19, 95280, Note_on_c, 13, 47, 90
19, 95339, Note_on_c, 13, 47, 0
19, 95340, Note_on_c, 13, 48, 90
19, 95399, Note_on_c, 13, 48, 0
19, 95400, Note_on_c, 13, 47, 90
19, 95459, Note_on_c, 13, 47, 0
19, 95460, Note_on_c, 13, 51, 90
19, 95519, Note_on_c, 13, 51, 0
19, 95520, Note_on_c, 13, 47, 90
19, 95579, Note_on_c, 13, 47, 0
19, 95580, Note_on_c, 13, 52, 90
19, 95639, Note_on_c, 13, 52, 0
19, 95640, Note_on_c, 13, 45, 90
19, 95699, Note_on_c, 13, 45, 0
19, 95700, Note_on_c, 13, 47, 90
19, 95759, Note_on_c, 13, 47, 0
19, 95760, Note_on_c, 13, 52, 90
19, 95789, Note_on_c, 13, 52, 0
19, 95790, Note_on_c, 13, 54, 90
19, 95819, Note_on_c, 13, 54, 0
19, 95820, Note_on_c, 13, 55, 90
19, 95849, Note_on_c, 13, 55, 0
19, 95850, Note_on_c, 13, 57, 90
19, 95879, Note_on_c, 13, 57, 0
19, 95880, Note_on_c, 13, 59, 90
19, 95909, Note_on_c, 13, 59, 0
19, 95910, Note_on_c, 13, 57, 90
19, 95939, Note_on_c, 13, 57, 0
19, 95940, Note_on_c, 13, 55, 90
19, 95999, Note_on_c, 13, 55, 0
19, 96000, Note_on_c, 13, 52, 90
19, 96059, Note_on_c, 13, 52, 0
19, 96060, Note_on_c, 13, 47, 90
19, 96119, Note_on_c, 13, 47, 0
19, 96120, Note_on_c, 13, 52, 90
19, 96179, Note_on_c, 13, 52, 0
19, 96180, Note_on_c, 13, 54, 90
19, 96239, Note_on_c, 13, 54, 0
19, 96240, Note_on_c, 13, 55, 90
19, 96299, Note_on_c, 13, 55, 0
19, 96300, Note_on_c, 13, 45, 90
19, 96359, Note_on_c, 13, 45, 0
19, 96360, Note_on_c, 13, 50, 90
19, 96419, Note_on_c, 13, 50, 0
19, 96420, Note_on_c, 13, 38, 90
19, 96479, Note_on_c, 13, 38, 0
19, 96480, Note_on_c, 13, 43, 90
19, 96539, Note_on_c, 13, 43, 0
19, 96540, Note_on_c, 13, 47, 90
19, 96599, Note_on_c, 13, 47, 0
19, 96600, Note_on_c, 13, 52, 90
19, 96659, Note_on_c, 13, 52, 0
19, 96660, Note_on_c, 13, 57, 90
19, 96779, Note_on_c, 13, 57, 0
19, 96780, Note_on_c, 13, 59, 90
19, 96839, Note_on_c, 13, 59, 0
19, 96840, Note_on_c, 13, 55, 90
19, 96899, Note_on_c, 13, 55, 0
19, 96900, Note_on_c, 13, 57, 90
19, 96929, Note_on_c, 13, 57, 0
19, 96930, Note_on_c, 13, 55, 90
19, 96959, Note_on_c, 13, 55, 0
19, 96960, Note_on_c, 13, 54, 90
19, 96989, Note_on_c, 13, 54, 0
19, 96990, Note_on_c, 13, 52, 90
19, 97019, Note_on_c, 13, 52, 0
19, 97020, Note_on_c, 13, 51, 90
19, 97079, Note_on_c, 13, 51, 0
19, 97080, Note_on_c, 13, 52, 90
19, 97139, Note_on_c, 13, 52, 0
19, 97140, Note_on_c, 13, 40, 90
19, 97199, Note_on_c, 13, 40, 0
19, 97200, Note_on_c, 13, 47, 90
19, 97259, Note_on_c, 13, 47, 0
19, 97260, Note_on_c, 13, 59, 90
19, 97319, Note_on_c, 13, 59, 0
19, 97320, Note_on_c, 13, 51, 90
19, 97379, Note_on_c, 13, 51, 0
19, 97380, Note_on_c, 13, 52, 90
19, 97439, Note_on_c, 13, 52, 0
19, 97620, Note_on_c, 13, 57, 90
19, 97679, Note_on_c, 13, 57, 0
19, 97680, Note_on_c, 13, 48, 90
19, 97739, Note_on_c, 13, 48, 0
19, 97740, Note_on_c, 13, 50, 90
19, 97799, Note_on_c, 13, 50, 0
19, 97980, Note_on_c, 13, 47, 90
19, 98039, Note_on_c, 13, 47, 0
19, 98040, Note_on_c, 13, 43, 90
19, 98099, Note_on_c, 13, 43, 0
19, 98100, Note_on_c, 13, 48, 90
19, 98159, Note_on_c, 13, 48, 0
19, 98340, Note_on_c, 13, 45, 90
19, 98399, Note_on_c, 13, 45, 0
19, 98400, Note_on_c, 13, 42, 90
19, 98459, Note_on_c, 13, 42, 0
19, 98460, Note_on_c, 13, 47, 90
19, 98519, Note_on_c, 13, 47, 0
19, 98700, Note_on_c, 13, 43, 90
19, 98759, Note_on_c, 13, 43, 0
19, 98760, Note_on_c, 13, 40, 90
19, 98819, Note_on_c, 13, 40, 0
19, 98820, Note_on_c, 13, 45, 90
19, 98879, Note_on_c, 13, 45, 0
19, 99060, Note_on_c, 13, 38, 90
19, 99119, Note_on_c, 13, 38, 0
19, 99120, Note_on_c, 13, 50, 90
19, 99239, Note_on_c, 13, 50, 0
19, 99240, Note_on_c, 13, 52, 90
19, 99299, Note_on_c, 13, 52, 0
19, 99300, Note_on_c, 13, 53, 90
19, 99359, Note_on_c, 13, 53, 0
19, 99360, Note_on_c, 13, 52, 90
19, 99389, Note_on_c, 13, 52, 0
19, 99390, Note_on_c, 13, 55, 90
19, 99419, Note_on_c, 13, 55, 0
19, 99420, Note_on_c, 13, 53, 90
19, 99449, Note_on_c, 13, 53, 0
19, 99450, Note_on_c, 13, 52, 90
19, 99479, Note_on_c, 13, 52, 0
19, 99480, Note_on_c, 13, 50, 90
19, 99509, Note_on_c, 13, 50, 0
19, 99510, Note_on_c, 13, 48, 90
19, 99539, Note_on_c, 13, 48, 0
19, 99540, Note_on_c, 13, 53, 90
19, 99599, Note_on_c, 13, 53, 0
19, 99600, Note_on_c, 13, 52, 90
19, 99659, Note_on_c, 13, 52, 0
19, 99660, Note_on_c, 13, 50, 90
19, 99719, Note_on_c, 13, 50, 0
19, 99720, Note_on_c, 13, 55, 90
19, 99779, Note_on_c, 13, 55, 0
19, 99780, Note_on_c, 13, 53, 90
19, 99839, Note_on_c, 13, 53, 0
19, 99840, Note_on_c, 13, 52, 90
19, 99899, Note_on_c, 13, 52, 0
19, 99900, Note_on_c, 13, 57, 90
19, 99959, Note_on_c, 13, 57, 0
19, 99960, Note_on_c, 13, 53, 90
19, 100019, Note_on_c, 13, 53, 0
19, 100020, Note_on_c, 13, 55, 90
19, 100079, Note_on_c, 13, 55, 0
19, 100080, Note_on_c, 13, 48, 90
19, 100199, Note_on_c, 13, 48, 0
19, 100380, Note_on_c, 13, 40, 90
19, 100439, Note_on_c, 13, 40, 0
19, 100440, Note_on_c, 13, 45, 90
19, 100499, Note_on_c, 13, 45, 0
19, 100500, Note_on_c, 13, 47, 90
19, 100559, Note_on_c, 13, 47, 0
19, 100560, Note_on_c, 13, 48, 90
19, 100619, Note_on_c, 13, 48, 0
19, 100620, Note_on_c, 13, 50, 90
19, 100679, Note_on_c, 13, 50, 0
19, 100680, Note_on_c, 13, 47, 90
19, 100739, Note_on_c, 13, 47, 0
19, 100740, Note_on_c, 13, 43, 90
19, 100799, Note_on_c, 13, 43, 0
19, 100800, Note_on_c, 13, 48, 90
19, 100859, Note_on_c, 13, 48, 0
19, 100860, Note_on_c, 13, 52, 90
19, 100919, Note_on_c, 13, 52, 0
19, 100920, Note_on_c, 13, 45, 90
19, 100979, Note_on_c, 13, 45, 0
19, 100980, Note_on_c, 13, 50, 90
19, 101099, Note_on_c, 13, 50, 0
19, 101100, Note_on_c, 13, 52, 90
19, 101159, Note_on_c, 13, 52, 0
19, 101160, Note_on_c, 13, 48, 90
19, 101219, Note_on_c, 13, 48, 0
19, 101220, Note_on_c, 13, 50, 90
19, 101249, Note_on_c, 13, 50, 0
19, 101250, Note_on_c, 13, 48, 90
19, 101279, Note_on_c, 13, 48, 0
19, 101280, Note_on_c, 13, 47, 90
19, 101309, Note_on_c, 13, 47, 0
19, 101310, Note_on_c, 13, 45, 90
19, 101339, Note_on_c, 13, 45, 0
19, 101340, Note_on_c, 13, 44, 90
19, 101399, Note_on_c, 13, 44, 0
19, 101400, Note_on_c, 13, 45, 90
19, 101429, Note_on_c, 13, 45, 0
19, 101430, Note_on_c, 13, 44, 90
19, 101459, Note_on_c, 13, 44, 0
19, 101460, Note_on_c, 13, 45, 90
19, 101519, Note_on_c, 13, 45, 0
19, 101520, Note_on_c, 13, 40, 90
19, 101579, Note_on_c, 13, 40, 0
19, 101580, Note_on_c, 13, 52, 90
19, 101639, Note_on_c, 13, 52, 0
19, 101640, Note_on_c, 13, 56, 90
19, 101699, Note_on_c, 13, 56, 0
19, 101700, Note_on_c, 13, 57, 90
19, 101759, Note_on_c, 13, 57, 0
19, 101760, Note_on_c, 13, 45, 90
19, 101819, Note_on_c, 13, 45, 0
19, 101820, Note_on_c, 13, 49, 90
19, 101879, Note_on_c, 13, 49, 0
19, 101880, Note_on_c, 13, 50, 90
19, 101939, Note_on_c, 13, 50, 0
19, 102000, Note_on_c, 13, 53, 90
19, 102059, Note_on_c, 13, 53, 0
19, 102060, Note_on_c, 13, 55, 90
19, 102119, Note_on_c, 13, 55, 0
19, 102120, Note_on_c, 13, 43, 90
19, 102179, Note_on_c, 13, 43, 0
19, 102180, Note_on_c, 13, 47, 90
19, 102239, Note_on_c, 13, 47, 0
19, 102240, Note_on_c, 13, 48, 90
19, 102299, Note_on_c, 13, 48, 0
19, 102360, Note_on_c, 13, 52, 90
19, 102419, Note_on_c, 13, 52, 0
19, 102420, Note_on_c, 13, 53, 90
19, 102479, Note_on_c, 13, 53, 0
19, 102480, Note_on_c, 13, 52, 90
19, 102539, Note_on_c, 13, 52, 0
19, 102540, Note_on_c, 13, 50, 90
19, 102599, Note_on_c, 13, 50, 0
19, 102600, Note_on_c, 13, 48, 90
19, 102659, Note_on_c, 13, 48, 0
19, 102660, Note_on_c, 13, 45, 90
19, 102719, Note_on_c, 13, 45, 0
19, 102720, Note_on_c, 13, 47, 90
19, 102779, Note_on_c, 13, 47, 0
19, 102780, Note_on_c, 13, 48, 90
19, 102839, Note_on_c, 13, 48, 0
19, 102840, Note_on_c, 13, 50, 90
19, 102899, Note_on_c, 13, 50, 0
19, 102900, Note_on_c, 13, 52, 90
19, 102959, Note_on_c, 13, 52, 0
19, 102960, Note_on_c, 13, 45, 90
19, 103079, Note_on_c, 13, 45, 0
19, 103260, Note_on_c, 13, 40, 90
19, 103319, Note_on_c, 13, 40, 0
19, 103320, Note_on_c, 13, 45, 90
19, 103379, Note_on_c, 13, 45, 0
19, 103380, Note_on_c, 13, 47, 90
19, 103439, Note_on_c, 13, 47, 0
19, 103440, Note_on_c, 13, 48, 90
19, 103499, Note_on_c, 13, 48, 0
19, 103500, Note_on_c, 13, 50, 90
19, 103559, Note_on_c, 13, 50, 0
19, 103560, Note_on_c, 13, 47, 90
19, 103619, Note_on_c, 13, 47, 0
19, 103620, Note_on_c, 13, 43, 90
19, 103679, Note_on_c, 13, 43, 0
19, 103680, Note_on_c, 13, 48, 90
19, 103739, Note_on_c, 13, 48, 0
19, 103740, Note_on_c, 13, 52, 90
19, 103799, Note_on_c, 13, 52, 0
19, 103800, Note_on_c, 13, 45, 90
19, 103859, Note_on_c, 13, 45, 0
19, 103860, Note_on_c, 13, 50, 90
19, 103979, Note_on_c, 13, 50, 0
19, 103980, Note_on_c, 13, 52, 90
19, 104039, Note_on_c, 13, 52, 0
19, 104040, Note_on_c, 13, 48, 90
19, 104099, Note_on_c, 13, 48, 0
19, 104100, Note_on_c, 13, 50, 90
19, 104129, Note_on_c, 13, 50, 0
19, 104130, Note_on_c, 13, 48, 90
19, 104159, Note_on_c, 13, 48, 0
19, 104160, Note_on_c, 13, 47, 90
19, 104189, Note_on_c, 13, 47, 0
19, 104190, Note_on_c, 13, 45, 90
19, 104219, Note_on_c, 13, 45, 0
19, 104220, Note_on_c, 13, 44, 90
19, 104279, Note_on_c, 13, 44, 0
19, 104280, Note_on_c, 13, 45, 90
19, 104309, Note_on_c, 13, 45, 0
19, 104310, Note_on_c, 13, 44, 90
19, 104339, Note_on_c, 13, 44, 0
19, 104340, Note_on_c, 13, 45, 90
19, 104399, Note_on_c, 13, 45, 0
19, 104400, Note_on_c, 13, 40, 90
19, 104459, Note_on_c, 13, 40, 0
19, 104460, Note_on_c, 13, 52, 90
19, 104519, Note_on_c, 13, 52, 0
19, 104520, Note_on_c, 13, 51, 90
19, 104579, Note_on_c, 13, 51, 0
19, 104580, Note_on_c, 13, 52, 90
19, 104639, Note_on_c, 13, 52, 0
19, 104700, Note_on_c, 13, 56, 90
19, 104759, Note_on_c, 13, 56, 0
19, 104760, Note_on_c, 13, 57, 90
19, 104819, Note_on_c, 13, 57, 0
19, 104820, Note_on_c, 13, 45, 90
19, 104879, Note_on_c, 13, 45, 0
19, 104880, Note_on_c, 13, 49, 90
19, 104939, Note_on_c, 13, 49, 0
19, 104940, Note_on_c, 13, 50, 90
19, 104999, Note_on_c, 13, 50, 0
19, 105060, Note_on_c, 13, 53, 90
19, 105119, Note_on_c, 13, 53, 0
19, 105120, Note_on_c, 13, 55, 90
19, 105179, Note_on_c, 13, 55, 0
19, 105180, Note_on_c, 13, 43, 90
19, 105239, Note_on_c, 13, 43, 0
19, 105240, Note_on_c, 13, 47, 90
19, 105299, Note_on_c, 13, 47, 0
19, 105300, Note_on_c, 13, 48, 90
19, 105359, Note_on_c, 13, 48, 0
19, 105360, Note_on_c, 13, 60, 90
19, 105419, Note_on_c, 13, 60, 0
19, 105420, Note_on_c, 13, 59, 90
19, 105479, Note_on_c, 13, 59, 0
19, 105480, Note_on_c, 13, 60, 90
19, 105539, Note_on_c, 13, 60, 0
19, 105540, Note_on_c, 13, 52, 90
19, 105569, Note_on_c, 13, 52, 0
19, 105570, Note_on_c, 13, 50, 90
19, 105599, Note_on_c, 13, 50, 0
19, 105600, Note_on_c, 13, 52, 90
19, 105629, Note_on_c, 13, 52, 0
19, 105630, Note_on_c, 13, 48, 90
19, 105659, Note_on_c, 13, 48, 0
19, 105660, Note_on_c, 13, 47, 90
19, 105719, Note_on_c, 13, 47, 0
19, 105720, Note_on_c, 13, 48, 90
19, 105779, Note_on_c, 13, 48, 0
19, 105780, Note_on_c, 13, 50, 90
19, 105839, Note_on_c, 13, 50, 0
19, 105840, Note_on_c, 13, 43, 90
19, 105899, Note_on_c, 13, 43, 0
19, 105900, Note_on_c, 13, 55, 90
19, 105929, Note_on_c, 13, 55, 0
19, 105930, Note_on_c, 13, 53, 90
19, 105959, Note_on_c, 13, 53, 0
19, 105960, Note_on_c, 13, 55, 90
19, 105989, Note_on_c, 13, 55, 0
19, 105990, Note_on_c, 13, 52, 90
19, 106019, Note_on_c, 13, 52, 0
19, 106020, Note_on_c, 13, 53, 90
19, 106079, Note_on_c, 13, 53, 0
19, 106080, Note_on_c, 13, 55, 90
19, 106139, Note_on_c, 13, 55, 0
19, 106140, Note_on_c, 13, 57, 90
19, 106199, Note_on_c, 13, 57, 0
19, 106200, Note_on_c, 13, 50, 90
19, 106259, Note_on_c, 13, 50, 0
19, 106260, Note_on_c, 13, 53, 90
19, 106289, Note_on_c, 13, 53, 0
19, 106290, Note_on_c, 13, 52, 90
19, 106319, Note_on_c, 13, 52, 0
19, 106320, Note_on_c, 13, 53, 90
19, 106349, Note_on_c, 13, 53, 0
19, 106350, Note_on_c, 13, 50, 90
19, 106379, Note_on_c, 13, 50, 0
19, 106380, Note_on_c, 13, 48, 90
19, 106439, Note_on_c, 13, 48, 0
19, 106440, Note_on_c, 13, 50, 90
19, 106499, Note_on_c, 13, 50, 0
19, 106500, Note_on_c, 13, 52, 90
19, 106559, Note_on_c, 13, 52, 0
19, 106560, Note_on_c, 13, 45, 90
19, 106679, Note_on_c, 13, 45, 0
19, 106860, Note_on_c, 13, 40, 90
19, 106919, Note_on_c, 13, 40, 0
19, 106920, Note_on_c, 13, 45, 90
19, 106979, Note_on_c, 13, 45, 0
19, 107040, Note_on_c, 13, 45, 90
19, 107099, Note_on_c, 13, 45, 0
19, 107100, Note_on_c, 13, 50, 90
19, 107159, Note_on_c, 13, 50, 0
19, 107160, Note_on_c, 13, 53, 90
19, 107219, Note_on_c, 13, 53, 0
19, 107220, Note_on_c, 13, 55, 90
19, 107279, Note_on_c, 13, 55, 0
19, 107280, Note_on_c, 13, 48, 90
19, 107339, Note_on_c, 13, 48, 0
19, 107400, Note_on_c, 13, 45, 90
19, 107459, Note_on_c, 13, 45, 0
19, 107460, Note_on_c, 13, 50, 90
19, 107519, Note_on_c, 13, 50, 0
19, 107580, Note_on_c, 13, 52, 90
19, 107639, Note_on_c, 13, 52, 0
19, 107640, Note_on_c, 13, 53, 90
19, 107669, Note_on_c, 13, 53, 0
19, 107670, Note_on_c, 13, 52, 90
19, 107699, Note_on_c, 13, 52, 0
19, 107700, Note_on_c, 13, 50, 90
19, 107729, Note_on_c, 13, 50, 0
19, 107730, Note_on_c, 13, 48, 90
19, 107759, Note_on_c, 13, 48, 0
19, 107760, Note_on_c, 13, 47, 90
19, 107789, Note_on_c, 13, 47, 0
19, 107790, Note_on_c, 13, 45, 90
19, 107819, Note_on_c, 13, 45, 0
19, 107820, Note_on_c, 13, 44, 90
19, 107879, Note_on_c, 13, 44, 0
19, 107880, Note_on_c, 13, 40, 90
19, 107939, Note_on_c, 13, 40, 0
19, 107940, Note_on_c, 13, 45, 90
19, 107999, Note_on_c, 13, 45, 0
19, 108000, Note_on_c, 13, 40, 90
19, 108059, Note_on_c, 13, 40, 0
19, 108060, Note_on_c, 13, 52, 90
19, 108119, Note_on_c, 13, 52, 0
19, 108120, Note_on_c, 13, 44, 90
19, 108179, Note_on_c, 13, 44, 0
19, 108180, Note_on_c, 13, 45, 90
19, 108239, Note_on_c, 13, 45, 0
19, 108300, Note_on_c, 13, 49, 90
19, 108359, Note_on_c, 13, 49, 0
19, 108360, Note_on_c, 13, 50, 90
19, 108419, Note_on_c, 13, 50, 0
19, 108420, Note_on_c, 13, 53, 90
19, 108479, Note_on_c, 13, 53, 0
19, 108480, Note_on_c, 13, 50, 90
19, 108539, Note_on_c, 13, 50, 0
19, 108540, Note_on_c, 13, 55, 90
19, 108599, Note_on_c, 13, 55, 0
19, 108660, Note_on_c, 13, 47, 90
19, 108719, Note_on_c, 13, 47, 0
19, 108720, Note_on_c, 13, 48, 90
19, 108779, Note_on_c, 13, 48, 0
19, 108780, Note_on_c, 13, 52, 90
19, 108839, Note_on_c, 13, 52, 0
19, 108840, Note_on_c, 13, 48, 90
19, 108899, Note_on_c, 13, 48, 0
19, 108900, Note_on_c, 13, 53, 90
19, 108959, Note_on_c, 13, 53, 0
19, 108960, Note_on_c, 13, 52, 90
19, 109019, Note_on_c, 13, 52, 0
19, 109020, Note_on_c, 13, 50, 90
19, 109079, Note_on_c, 13, 50, 0
19, 109080, Note_on_c, 13, 48, 90
19, 109139, Note_on_c, 13, 48, 0
19, 109140, Note_on_c, 13, 53, 90
19, 109199, Note_on_c, 13, 53, 0
19, 109200, Note_on_c, 13, 50, 90
19, 109259, Note_on_c, 13, 50, 0
19, 109260, Note_on_c, 13, 52, 90
19, 109319, Note_on_c, 13, 52, 0
19, 109320, Note_on_c, 13, 50, 90
19, 109379, Note_on_c, 13, 50, 0
19, 109380, Note_on_c, 13, 52, 90
19, 109439, Note_on_c, 13, 52, 0
19, 109440, Note_on_c, 13, 41, 90
19, 109499, Note_on_c, 13, 41, 0
19, 109500, Note_on_c, 13, 53, 90
19, 109529, Note_on_c, 13, 53, 0
19, 109530, Note_on_c, 13, 52, 90
19, 109559, Note_on_c, 13, 52, 0
19, 109560, Note_on_c, 13, 50, 90
19, 109589, Note_on_c, 13, 50, 0
19, 109590, Note_on_c, 13, 48, 90
19, 109619, Note_on_c, 13, 48, 0
19, 109620, Note_on_c, 13, 46, 90
19, 109679, Note_on_c, 13, 46, 0
19, 109800, Note_on_c, 13, 40, 90
19, 109859, Note_on_c, 13, 40, 0
19, 109980, Note_on_c, 13, 45, 90
19, 110039, Note_on_c, 13, 45, 0
19, 110160, Note_on_c, 13, 38, 90
19, 110219, Note_on_c, 13, 38, 0
19, 110280, Note_on_c, 13, 50, 90
19, 110399, Note_on_c, 13, 50, 0
19, 110400, Note_on_c, 13, 44, 90
19, 110429, Note_on_c, 13, 44, 0
19, 110430, Note_on_c, 13, 42, 90
19, 110459, Note_on_c, 13, 42, 0
19, 110460, Note_on_c, 13, 44, 90
19, 110489, Note_on_c, 13, 44, 0
19, 110490, Note_on_c, 13, 40, 90
19, 110519, Note_on_c, 13, 40, 0
19, 110520, Note_on_c, 13, 45, 90
19, 110609, Note_on_c, 13, 45, 0
19, 110610, Note_on_c, 13, 47, 90
19, 110639, Note_on_c, 13, 47, 0
19, 110640, Note_on_c, 13, 49, 90
19, 110669, Note_on_c, 13, 49, 0
19, 110670, Note_on_c, 13, 45, 90
19, 110699, Note_on_c, 13, 45, 0
19, 110700, Note_on_c, 13, 50, 90
19, 110759, Note_on_c, 13, 50, 0
19, 110760, Note_on_c, 13, 42, 90
19, 110789, Note_on_c, 13, 42, 0
19, 110790, Note_on_c, 13, 40, 90
19, 110819, Note_on_c, 13, 40, 0
19, 110820, Note_on_c, 13, 42, 90
19, 110849, Note_on_c, 13, 42, 0
19, 110850, Note_on_c, 13, 38, 90
19, 110879, Note_on_c, 13, 38, 0
19, 110880, Note_on_c, 13, 43, 90
19, 110969, Note_on_c, 13, 43, 0
19, 110970, Note_on_c, 13, 45, 90
19, 110999, Note_on_c, 13, 45, 0
19, 111000, Note_on_c, 13, 47, 90
19, 111029, Note_on_c, 13, 47, 0
19, 111030, Note_on_c, 13, 43, 90
19, 111059, Note_on_c, 13, 43, 0
19, 111060, Note_on_c, 13, 48, 90
19, 111119, Note_on_c, 13, 48, 0
19, 111120, Note_on_c, 13, 40, 90
19, 111149, Note_on_c, 13, 40, 0
19, 111150, Note_on_c, 13, 38, 90
19, 111179, Note_on_c, 13, 38, 0
19, 111180, Note_on_c, 13, 40, 90
19, 111209, Note_on_c, 13, 40, 0
19, 111210, Note_on_c, 13, 36, 90
19, 111239, Note_on_c, 13, 36, 0
19, 111240, Note_on_c, 13, 41, 90
19, 111299, Note_on_c, 13, 41, 0
19, 111300, Note_on_c, 13, 53, 90
19, 111329, Note_on_c, 13, 53, 0
19, 111330, Note_on_c, 13, 52, 90
19, 111359, Note_on_c, 13, 52, 0
19, 111360, Note_on_c, 13, 53, 90
19, 111389, Note_on_c, 13, 53, 0
19, 111390, Note_on_c, 13, 50, 90
19, 111419, Note_on_c, 13, 50, 0
19, 111420, Note_on_c, 13, 52, 90
19, 111479, Note_on_c, 13, 52, 0
19, 111480, Note_on_c, 13, 49, 90
19, 111539, Note_on_c, 13, 49, 0
19, 111540, Note_on_c, 13, 45, 90
19, 111599, Note_on_c, 13, 45, 0
19, 111600, Note_on_c, 13, 50, 90
19, 111659, Note_on_c, 13, 50, 0
19, 111660, Note_on_c, 13, 38, 90
19, 111719, Note_on_c, 13, 38, 0
19, 111720, Note_on_c, 13, 41, 90
19, 111779, Note_on_c, 13, 41, 0
19, 111780, Note_on_c, 13, 45, 90
19, 111839, Note_on_c, 13, 45, 0
19, 111900, Note_on_c, 13, 57, 90
19, 111959, Note_on_c, 13, 57, 0
19, 111960, Note_on_c, 13, 50, 90
19, 112019, Note_on_c, 13, 50, 0
19, 112080, Note_on_c, 13, 38, 90
19, 112139, Note_on_c, 13, 38, 0
19, 112140, Note_on_c, 13, 43, 90
19, 112199, Note_on_c, 13, 43, 0
19, 112260, Note_on_c, 13, 47, 90
19, 112319, Note_on_c, 13, 47, 0
19, 112320, Note_on_c, 13, 48, 90
19, 112379, Note_on_c, 13, 48, 0
19, 112440, Note_on_c, 13, 36, 90
19, 112499, Note_on_c, 13, 36, 0
19, 112500, Note_on_c, 13, 41, 90
19, 112559, Note_on_c, 13, 41, 0
19, 112560, Note_on_c, 13, 52, 90
19, 112619, Note_on_c, 13, 52, 0
19, 112620, Note_on_c, 13, 50, 90
19, 112679, Note_on_c, 13, 50, 0
19, 112680, Note_on_c, 13, 48, 90
19, 112739, Note_on_c, 13, 48, 0
19, 112800, Note_on_c, 13, 47, 90
19, 112859, Note_on_c, 13, 47, 0
19, 112860, Note_on_c, 13, 48, 90
19, 112919, Note_on_c, 13, 48, 0
19, 112920, Note_on_c, 13, 50, 90
19, 112979, Note_on_c, 13, 50, 0
19, 112980, Note_on_c, 13, 52, 90
19, 113039, Note_on_c, 13, 52, 0
19, 113040, Note_on_c, 13, 45, 90
19, 113159, Note_on_c, 13, 45, 0
19, 113340, Note_on_c, 13, 40, 90
19, 113399, Note_on_c, 13, 40, 0
19, 113400, Note_on_c, 13, 45, 90
19, 113459, Note_on_c, 13, 45, 0
19, 113460, Note_on_c, 13, 47, 90
19, 113519, Note_on_c, 13, 47, 0
19, 113520, Note_on_c, 13, 48, 90
19, 113579, Note_on_c, 13, 48, 0
19, 113580, Note_on_c, 13, 50, 90
19, 113639, Note_on_c, 13, 50, 0
19, 113640, Note_on_c, 13, 55, 90
19, 113699, Note_on_c, 13, 55, 0
19, 113700, Note_on_c, 13, 43, 90
19, 113759, Note_on_c, 13, 43, 0
19, 113760, Note_on_c, 13, 48, 90
19, 113819, Note_on_c, 13, 48, 0
19, 113820, Note_on_c, 13, 52, 90
19, 113879, Note_on_c, 13, 52, 0
19, 113880, Note_on_c, 13, 45, 90
19, 113939, Note_on_c, 13, 45, 0
19, 113940, Note_on_c, 13, 50, 90
19, 114059, Note_on_c, 13, 50, 0
19, 114060, Note_on_c, 13, 52, 90
19, 114119, Note_on_c, 13, 52, 0
19, 114120, Note_on_c, 13, 48, 90
19, 114179, Note_on_c, 13, 48, 0
19, 114180, Note_on_c, 13, 50, 90
19, 114209, Note_on_c, 13, 50, 0
19, 114210, Note_on_c, 13, 48, 90
19, 114239, Note_on_c, 13, 48, 0
19, 114240, Note_on_c, 13, 47, 90
19, 114269, Note_on_c, 13, 47, 0
19, 114270, Note_on_c, 13, 45, 90
19, 114299, Note_on_c, 13, 45, 0
19, 114300, Note_on_c, 13, 44, 90
19, 114359, Note_on_c, 13, 44, 0
19, 114360, Note_on_c, 13, 45, 90
19, 114389, Note_on_c, 13, 45, 0
19, 114390, Note_on_c, 13, 44, 90
19, 114419, Note_on_c, 13, 44, 0
19, 114420, Note_on_c, 13, 45, 90
19, 114479, Note_on_c, 13, 45, 0
19, 114480, Note_on_c, 13, 40, 90
19, 114539, Note_on_c, 13, 40, 0
19, 114540, Note_on_c, 13, 52, 90
19, 114599, Note_on_c, 13, 52, 0
19, 114600, Note_on_c, 13, 56, 90
19, 114659, Note_on_c, 13, 56, 0
19, 114660, Note_on_c, 13, 57, 90
19, 114719, Note_on_c, 13, 57, 0
19, 114720, Note_on_c, 13, 45, 90
19, 114779, Note_on_c, 13, 45, 0
19, 114780, Note_on_c, 13, 49, 90
19, 114839, Note_on_c, 13, 49, 0
19, 114840, Note_on_c, 13, 50, 90
19, 114899, Note_on_c, 13, 50, 0
19, 114960, Note_on_c, 13, 53, 90
19, 115019, Note_on_c, 13, 53, 0
19, 115020, Note_on_c, 13, 55, 90
19, 115079, Note_on_c, 13, 55, 0
19, 115080, Note_on_c, 13, 43, 90
19, 115139, Note_on_c, 13, 43, 0
19, 115140, Note_on_c, 13, 47, 90
19, 115199, Note_on_c, 13, 47, 0
19, 115200, Note_on_c, 13, 48, 90
19, 115259, Note_on_c, 13, 48, 0
19, 115320, Note_on_c, 13, 52, 90
19, 115379, Note_on_c, 13, 52, 0
19, 115380, Note_on_c, 13, 53, 90
19, 115439, Note_on_c, 13, 53, 0
19, 115440, Note_on_c, 13, 52, 90
19, 115499, Note_on_c, 13, 52, 0
19, 115500, Note_on_c, 13, 50, 90
19, 115559, Note_on_c, 13, 50, 0
19, 115560, Note_on_c, 13, 48, 90
19, 115619, Note_on_c, 13, 48, 0
19, 115620, Note_on_c, 13, 45, 90
19, 115679, Note_on_c, 13, 45, 0
19, 115680, Note_on_c, 13, 47, 90
19, 115739, Note_on_c, 13, 47, 0
19, 115740, Note_on_c, 13, 48, 90
19, 115799, Note_on_c, 13, 48, 0
19, 115800, Note_on_c, 13, 50, 90
19, 115859, Note_on_c, 13, 50, 0
19, 115860, Note_on_c, 13, 52, 90
19, 115919, Note_on_c, 13, 52, 0
19, 115920, Note_on_c, 13, 45, 90
19, 116100, Note_on_c, 13, 45, 0
19, 116460, Program_c, 13, 19
19, 116460, Note_on_c, 13, 52, 90
19, 116579, Note_on_c, 13, 52, 0
19, 116580, Note_on_c, 13, 53, 90
19, 116699, Note_on_c, 13, 53, 0
19, 116700, Note_on_c, 13, 55, 90
19, 116819, Note_on_c, 13, 55, 0
19, 116820, Note_on_c, 13, 45, 90
19, 116879, Note_on_c, 13, 45, 0
19, 116880, Note_on_c, 13, 47, 90
19, 116939, Note_on_c, 13, 47, 0
19, 116940, Note_on_c, 13, 48, 90
19, 117059, Note_on_c, 13, 48, 0
19, 117060, Note_on_c, 13, 41, 90
19, 117299, Note_on_c, 13, 41, 0
19, 117300, Note_on_c, 13, 40, 90
19, 117395, Note_on_c, 13, 40, 0
19, 117420, Note_on_c, 13, 52, 90
19, 117539, Note_on_c, 13, 52, 0
19, 117540, Note_on_c, 13, 57, 90
19, 117599, Note_on_c, 13, 57, 0
19, 117600, Note_on_c, 13, 55, 90
19, 117659, Note_on_c, 13, 55, 0
19, 117660, Note_on_c, 13, 53, 90
19, 117719, Note_on_c, 13, 53, 0
19, 117720, Note_on_c, 13, 52, 90
19, 117779, Note_on_c, 13, 52, 0
19, 117780, Note_on_c, 13, 50, 90
19, 117839, Note_on_c, 13, 50, 0
19, 117840, Note_on_c, 13, 47, 90
19, 117899, Note_on_c, 13, 47, 0
19, 117900, Note_on_c, 13, 52, 90
19, 117959, Note_on_c, 13, 52, 0
19, 117960, Note_on_c, 13, 40, 90
19, 118019, Note_on_c, 13, 40, 0
19, 118020, Note_on_c, 13, 45, 90
19, 118379, Note_on_c, 13, 45, 0
19, 118380, Note_on_c, 13, 52, 90
19, 118499, Note_on_c, 13, 52, 0
19, 118500, Note_on_c, 13, 53, 90
19, 118619, Note_on_c, 13, 53, 0
19, 118620, Note_on_c, 13, 55, 90
19, 118739, Note_on_c, 13, 55, 0
19, 118740, Note_on_c, 13, 45, 90
19, 118799, Note_on_c, 13, 45, 0
19, 118800, Note_on_c, 13, 47, 90
19, 118859, Note_on_c, 13, 47, 0
19, 118860, Note_on_c, 13, 48, 90
19, 118979, Note_on_c, 13, 48, 0
19, 118980, Note_on_c, 13, 41, 90
19, 119219, Note_on_c, 13, 41, 0
19, 119220, Note_on_c, 13, 40, 90
19, 119315, Note_on_c, 13, 40, 0
19, 119340, Note_on_c, 13, 52, 90
19, 119459, Note_on_c, 13, 52, 0
19, 119460, Note_on_c, 13, 57, 90
19, 119519, Note_on_c, 13, 57, 0
19, 119520, Note_on_c, 13, 55, 90
19, 119579, Note_on_c, 13, 55, 0
19, 119580, Note_on_c, 13, 53, 90
19, 119639, Note_on_c, 13, 53, 0
19, 119640, Note_on_c, 13, 52, 90
19, 119699, Note_on_c, 13, 52, 0
19, 119700, Note_on_c, 13, 50, 90
19, 119759, Note_on_c, 13, 50, 0
19, 119760, Note_on_c, 13, 47, 90
19, 119819, Note_on_c, 13, 47, 0
19, 119820, Note_on_c, 13, 52, 90
19, 119879, Note_on_c, 13, 52, 0
19, 119880, Note_on_c, 13, 40, 90
19, 119939, Note_on_c, 13, 40, 0
19, 119940, Note_on_c, 13, 45, 90
19, 120299, Note_on_c, 13, 45, 0
19, 120300, Note_on_c, 13, 57, 90
19, 120419, Note_on_c, 13, 57, 0
19, 120420, Note_on_c, 13, 50, 90
19, 120539, Note_on_c, 13, 50, 0
19, 120540, Note_on_c, 13, 52, 90
19, 120659, Note_on_c, 13, 52, 0
19, 120660, Note_on_c, 13, 53, 90
19, 120719, Note_on_c, 13, 53, 0
19, 120720, Note_on_c, 13, 52, 90
19, 120779, Note_on_c, 13, 52, 0
19, 120780, Note_on_c, 13, 50, 90
19, 120899, Note_on_c, 13, 50, 0
19, 120900, Note_on_c, 13, 45, 90
19, 120959, Note_on_c, 13, 45, 0
19, 120960, Note_on_c, 13, 47, 90
19, 121019, Note_on_c, 13, 47, 0
19, 121020, Note_on_c, 13, 48, 90
19, 121139, Note_on_c, 13, 48, 0
19, 121140, Note_on_c, 13, 36, 90
19, 121259, Note_on_c, 13, 36, 0
19, 121260, Note_on_c, 13, 48, 90
19, 121379, Note_on_c, 13, 48, 0
19, 121380, Note_on_c, 13, 53, 90
19, 121439, Note_on_c, 13, 53, 0
19, 121440, Note_on_c, 13, 52, 90
19, 121499, Note_on_c, 13, 52, 0
19, 121500, Note_on_c, 13, 50, 90
19, 121559, Note_on_c, 13, 50, 0
19, 121560, Note_on_c, 13, 49, 90
19, 121619, Note_on_c, 13, 49, 0
19, 121620, Note_on_c, 13, 50, 90
19, 121739, Note_on_c, 13, 50, 0
19, 121740, Note_on_c, 13, 38, 90
19, 121859, Note_on_c, 13, 38, 0
19, 121860, Note_on_c, 13, 45, 90
19, 122219, Note_on_c, 13, 45, 0
19, 122220, Note_on_c, 13, 42, 90
19, 122339, Note_on_c, 13, 42, 0
19, 122340, Note_on_c, 13, 43, 90
19, 122459, Note_on_c, 13, 43, 0
19, 122460, Note_on_c, 13, 55, 90
19, 122519, Note_on_c, 13, 55, 0
19, 122520, Note_on_c, 13, 54, 90
19, 122579, Note_on_c, 13, 54, 0
19, 122580, Note_on_c, 13, 52, 90
19, 122759, Note_on_c, 13, 52, 0
19, 122760, Note_on_c, 13, 50, 90
19, 122819, Note_on_c, 13, 50, 0
19, 122820, Note_on_c, 13, 48, 90
19, 122879, Note_on_c, 13, 48, 0
19, 122880, Note_on_c, 13, 45, 90
19, 122939, Note_on_c, 13, 45, 0
19, 122940, Note_on_c, 13, 50, 90
19, 123059, Note_on_c, 13, 50, 0
19, 123060, Note_on_c, 13, 43, 90
19, 123179, Note_on_c, 13, 43, 0
19, 123180, Note_on_c, 13, 48, 90
19, 123239, Note_on_c, 13, 48, 0
19, 123240, Note_on_c, 13, 47, 90
19, 123299, Note_on_c, 13, 47, 0
19, 123300, Note_on_c, 13, 45, 90
19, 123359, Note_on_c, 13, 45, 0
19, 123360, Note_on_c, 13, 47, 90
19, 123419, Note_on_c, 13, 47, 0
19, 123420, Note_on_c, 13, 48, 90
19, 123599, Note_on_c, 13, 48, 0
19, 123600, Note_on_c, 13, 47, 90
19, 123659, Note_on_c, 13, 47, 0
19, 123660, Note_on_c, 13, 47, 90
19, 123719, Note_on_c, 13, 47, 0
19, 123720, Note_on_c, 13, 45, 90
19, 123779, Note_on_c, 13, 45, 0
19, 123780, Note_on_c, 13, 44, 90
19, 123899, Note_on_c, 13, 44, 0
19, 123900, Note_on_c, 13, 45, 90
19, 124019, Note_on_c, 13, 45, 0
19, 124020, Note_on_c, 13, 40, 90
19, 124139, Note_on_c, 13, 40, 0
19, 124260, Program_c, 13, 19
19, 124260, Note_on_c, 13, 51, 90
19, 124739, Note_on_c, 13, 51, 0
19, 124740, Note_on_c, 13, 52, 90
19, 125219, Note_on_c, 13, 52, 0
19, 125220, Note_on_c, 13, 49, 90
19, 125699, Note_on_c, 13, 49, 0
19, 125700, Note_on_c, 13, 50, 90
19, 125939, Note_on_c, 13, 50, 0
19, 125940, Note_on_c, 13, 55, 90
19, 126179, Note_on_c, 13, 55, 0
19, 126180, Note_on_c, 13, 48, 90
19, 126299, Note_on_c, 13, 48, 0
19, 126300, Note_on_c, 13, 45, 90
19, 126419, Note_on_c, 13, 45, 0
19, 126420, Note_on_c, 13, 50, 90
19, 126539, Note_on_c, 13, 50, 0
19, 126540, Note_on_c, 13, 38, 90
19, 126659, Note_on_c, 13, 38, 0
19, 126660, Note_on_c, 13, 43, 90
19, 126779, Note_on_c, 13, 43, 0
19, 127380, Note_on_c, 13, 55, 90
19, 127439, Note_on_c, 13, 55, 0
19, 127440, Note_on_c, 13, 59, 90
19, 127499, Note_on_c, 13, 59, 0
19, 127500, Note_on_c, 13, 59, 90
19, 127559, Note_on_c, 13, 59, 0
19, 127560, Note_on_c, 13, 62, 90
19, 127619, Note_on_c, 13, 62, 0
19, 127620, Note_on_c, 13, 60, 90
19, 127649, Note_on_c, 13, 60, 0
19, 127650, Note_on_c, 13, 59, 90
19, 127679, Note_on_c, 13, 59, 0
19, 127680, Note_on_c, 13, 57, 90
19, 127709, Note_on_c, 13, 57, 0
19, 127710, Note_on_c, 13, 55, 90
19, 127739, Note_on_c, 13, 55, 0
19, 127740, Note_on_c, 13, 50, 90
19, 127799, Note_on_c, 13, 50, 0
19, 127800, Note_on_c, 13, 54, 90
19, 127859, Note_on_c, 13, 54, 0
19, 127860, Note_on_c, 13, 54, 90
19, 127919, Note_on_c, 13, 54, 0
19, 127920, Note_on_c, 13, 57, 90
19, 127979, Note_on_c, 13, 57, 0
19, 127980, Note_on_c, 13, 55, 90
19, 128009, Note_on_c, 13, 55, 0
19, 128010, Note_on_c, 13, 54, 90
19, 128039, Note_on_c, 13, 54, 0
19, 128040, Note_on_c, 13, 52, 90
19, 128069, Note_on_c, 13, 52, 0
19, 128070, Note_on_c, 13, 50, 90
19, 128099, Note_on_c, 13, 50, 0
19, 128100, Note_on_c, 13, 55, 90
19, 128129, Note_on_c, 13, 55, 0
19, 128220, Note_on_c, 13, 56, 90
19, 128249, Note_on_c, 13, 56, 0
19, 128340, Note_on_c, 13, 52, 90
19, 128369, Note_on_c, 13, 52, 0
19, 128460, Note_on_c, 13, 45, 90
19, 128519, Note_on_c, 13, 45, 0
19, 128520, Note_on_c, 13, 48, 90
19, 128579, Note_on_c, 13, 48, 0
19, 128580, Note_on_c, 13, 48, 90
19, 128639, Note_on_c, 13, 48, 0
19, 128640, Note_on_c, 13, 52, 90
19, 128699, Note_on_c, 13, 52, 0
19, 128700, Note_on_c, 13, 50, 90
19, 128729, Note_on_c, 13, 50, 0
19, 128730, Note_on_c, 13, 48, 90
19, 128759, Note_on_c, 13, 48, 0
19, 128760, Note_on_c, 13, 47, 90
19, 128789, Note_on_c, 13, 47, 0
19, 128790, Note_on_c, 13, 45, 90
19, 128819, Note_on_c, 13, 45, 0
19, 128820, Note_on_c, 13, 50, 90
19, 128849, Note_on_c, 13, 50, 0
19, 128940, Note_on_c, 13, 54, 90
19, 128969, Note_on_c, 13, 54, 0
19, 129060, Note_on_c, 13, 50, 90
19, 129089, Note_on_c, 13, 50, 0
19, 129180, Note_on_c, 13, 43, 90
19, 129239, Note_on_c, 13, 43, 0
19, 129240, Note_on_c, 13, 47, 90
19, 129299, Note_on_c, 13, 47, 0
19, 129300, Note_on_c, 13, 47, 90
19, 129359, Note_on_c, 13, 47, 0
19, 129360, Note_on_c, 13, 50, 90
19, 129419, Note_on_c, 13, 50, 0
19, 129420, Note_on_c, 13, 48, 90
19, 129449, Note_on_c, 13, 48, 0
19, 129450, Note_on_c, 13, 47, 90
19, 129479, Note_on_c, 13, 47, 0
19, 129480, Note_on_c, 13, 45, 90
19, 129509, Note_on_c, 13, 45, 0
19, 129510, Note_on_c, 13, 43, 90
19, 129539, Note_on_c, 13, 43, 0
19, 129540, Note_on_c, 13, 48, 90
19, 129569, Note_on_c, 13, 48, 0
19, 129660, Note_on_c, 13, 49, 90
19, 129689, Note_on_c, 13, 49, 0
19, 129900, Note_on_c, 13, 50, 90
19, 129929, Note_on_c, 13, 50, 0
19, 130020, Note_on_c, 13, 52, 90
19, 130049, Note_on_c, 13, 52, 0
19, 130260, Note_on_c, 13, 47, 90
19, 130289, Note_on_c, 13, 47, 0
19, 130380, Note_on_c, 13, 48, 90
19, 130409, Note_on_c, 13, 48, 0
19, 130500, Note_on_c, 13, 50, 90
19, 130529, Note_on_c, 13, 50, 0
19, 130620, Note_on_c, 13, 43, 90
19, 130679, Note_on_c, 13, 43, 0
19, 130680, Note_on_c, 13, 55, 90
19, 130739, Note_on_c, 13, 55, 0
19, 130740, Note_on_c, 13, 55, 90
19, 130799, Note_on_c, 13, 55, 0
19, 130800, Note_on_c, 13, 53, 90
19, 130859, Note_on_c, 13, 53, 0
19, 130860, Note_on_c, 13, 53, 90
19, 130919, Note_on_c, 13, 53, 0
19, 130920, Note_on_c, 13, 52, 90
19, 130979, Note_on_c, 13, 52, 0
19, 130980, Note_on_c, 13, 40, 90
19, 131039, Note_on_c, 13, 40, 0
19, 131040, Note_on_c, 13, 52, 90
19, 131099, Note_on_c, 13, 52, 0
19, 131100, Note_on_c, 13, 52, 90
19, 131159, Note_on_c, 13, 52, 0
19, 131160, Note_on_c, 13, 50, 90
19, 131219, Note_on_c, 13, 50, 0
19, 131220, Note_on_c, 13, 50, 90
19, 131279, Note_on_c, 13, 50, 0
19, 131280, Note_on_c, 13, 48, 90
19, 131339, Note_on_c, 13, 48, 0
19, 131340, Note_on_c, 13, 36, 90
19, 131399, Note_on_c, 13, 36, 0
19, 131400, Note_on_c, 13, 48, 90
19, 131459, Note_on_c, 13, 48, 0
19, 131460, Note_on_c, 13, 48, 90
19, 131519, Note_on_c, 13, 48, 0
19, 131520, Note_on_c, 13, 47, 90
19, 131579, Note_on_c, 13, 47, 0
19, 131580, Note_on_c, 13, 47, 90
19, 131639, Note_on_c, 13, 47, 0
19, 131640, Note_on_c, 13, 45, 90
19, 131699, Note_on_c, 13, 45, 0
19, 131700, Note_on_c, 13, 45, 90
19, 131759, Note_on_c, 13, 45, 0
19, 131760, Note_on_c, 13, 57, 90
19, 131819, Note_on_c, 13, 57, 0
19, 131820, Note_on_c, 13, 57, 90
19, 131879, Note_on_c, 13, 57, 0
19, 131880, Note_on_c, 13, 56, 90
19, 131939, Note_on_c, 13, 56, 0
19, 131940, Note_on_c, 13, 56, 90
19, 131999, Note_on_c, 13, 56, 0
19, 132000, Note_on_c, 13, 57, 90
19, 132059, Note_on_c, 13, 57, 0
19, 132060, Note_on_c, 13, 57, 90
19, 132089, Note_on_c, 13, 57, 0
19, 132090, Note_on_c, 13, 59, 90
19, 132119, Note_on_c, 13, 59, 0
19, 132120, Note_on_c, 13, 60, 90
19, 132149, Note_on_c, 13, 60, 0
19, 132150, Note_on_c, 13, 59, 90
19, 132179, Note_on_c, 13, 59, 0
19, 132180, Note_on_c, 13, 57, 90
19, 132239, Note_on_c, 13, 57, 0
19, 132240, Note_on_c, 13, 55, 90
19, 132299, Note_on_c, 13, 55, 0
19, 132300, Note_on_c, 13, 54, 90
19, 132359, Note_on_c, 13, 54, 0
19, 132360, Note_on_c, 13, 52, 90
19, 132419, Note_on_c, 13, 52, 0
19, 132420, Note_on_c, 13, 51, 100
19, 133380, Note_on_c, 13, 51, 0
19, 133380, Note_on_c, 13, 52, 90
19, 133499, Note_on_c, 13, 52, 0
19, 133740, Note_on_c, 13, 47, 90
19, 133859, Note_on_c, 13, 47, 0
19, 134100, Note_on_c, 13, 52, 90
19, 134159, Note_on_c, 13, 52, 0
19, 134160, Note_on_c, 13, 55, 90
19, 134219, Note_on_c, 13, 55, 0
19, 134220, Note_on_c, 13, 55, 90
19, 134279, Note_on_c, 13, 55, 0
19, 134280, Note_on_c, 13, 59, 90
19, 134339, Note_on_c, 13, 59, 0
19, 134340, Note_on_c, 13, 57, 90
19, 134369, Note_on_c, 13, 57, 0
19, 134370, Note_on_c, 13, 55, 90
19, 134399, Note_on_c, 13, 55, 0
19, 134400, Note_on_c, 13, 54, 90
19, 134429, Note_on_c, 13, 54, 0
19, 134430, Note_on_c, 13, 52, 90
19, 134459, Note_on_c, 13, 52, 0
19, 134460, Note_on_c, 13, 54, 90
19, 134519, Note_on_c, 13, 54, 0
19, 134520, Note_on_c, 13, 57, 90
19, 134579, Note_on_c, 13, 57, 0
19, 134580, Note_on_c, 13, 57, 90
19, 134639, Note_on_c, 13, 57, 0
19, 134640, Note_on_c, 13, 60, 90
19, 134699, Note_on_c, 13, 60, 0
19, 134700, Note_on_c, 13, 59, 90
19, 134729, Note_on_c, 13, 59, 0
19, 134730, Note_on_c, 13, 57, 90
19, 134759, Note_on_c, 13, 57, 0
19, 134760, Note_on_c, 13, 55, 90
19, 134789, Note_on_c, 13, 55, 0
19, 134790, Note_on_c, 13, 54, 90
19, 134819, Note_on_c, 13, 54, 0
19, 134820, Note_on_c, 13, 55, 90
19, 134879, Note_on_c, 13, 55, 0
19, 134880, Note_on_c, 13, 59, 90
19, 134939, Note_on_c, 13, 59, 0
19, 134940, Note_on_c, 13, 59, 90
19, 134999, Note_on_c, 13, 59, 0
19, 135000, Note_on_c, 13, 62, 90
19, 135059, Note_on_c, 13, 62, 0
19, 135060, Note_on_c, 13, 60, 90
19, 135089, Note_on_c, 13, 60, 0
19, 135090, Note_on_c, 13, 59, 90
19, 135119, Note_on_c, 13, 59, 0
19, 135120, Note_on_c, 13, 57, 90
19, 135149, Note_on_c, 13, 57, 0
19, 135150, Note_on_c, 13, 55, 90
19, 135179, Note_on_c, 13, 55, 0
19, 135180, Note_on_c, 13, 60, 90
19, 135239, Note_on_c, 13, 60, 0
19, 135240, Note_on_c, 13, 57, 90
19, 135299, Note_on_c, 13, 57, 0
19, 135300, Note_on_c, 13, 57, 90
19, 135359, Note_on_c, 13, 57, 0
19, 135360, Note_on_c, 13, 54, 90
19, 135419, Note_on_c, 13, 54, 0
19, 135420, Note_on_c, 13, 54, 90
19, 135479, Note_on_c, 13, 54, 0
19, 135480, Note_on_c, 13, 55, 90
19, 135539, Note_on_c, 13, 55, 0
19, 135540, Note_on_c, 13, 55, 90
19, 135599, Note_on_c, 13, 55, 0
19, 135600, Note_on_c, 13, 52, 90
19, 135659, Note_on_c, 13, 52, 0
19, 135660, Note_on_c, 13, 52, 90
19, 135719, Note_on_c, 13, 52, 0
19, 135720, Note_on_c, 13, 51, 90
19, 135779, Note_on_c, 13, 51, 0
19, 135780, Note_on_c, 13, 51, 90
19, 135839, Note_on_c, 13, 51, 0
19, 135840, Note_on_c, 13, 52, 90
19, 135899, Note_on_c, 13, 52, 0
19, 135900, Note_on_c, 13, 40, 90
19, 135929, Note_on_c, 13, 40, 0
19, 136020, Note_on_c, 13, 52, 90
19, 136049, Note_on_c, 13, 52, 0
19, 136260, Note_on_c, 13, 47, 90
19, 136289, Note_on_c, 13, 47, 0
19, 136380, Note_on_c, 13, 43, 90
19, 136409, Note_on_c, 13, 43, 0
19, 136620, Note_on_c, 13, 48, 90
19, 136679, Note_on_c, 13, 48, 0
19, 136680, Note_on_c, 13, 51, 90
19, 136739, Note_on_c, 13, 51, 0
19, 136740, Note_on_c, 13, 51, 90
19, 136799, Note_on_c, 13, 51, 0
19, 136800, Note_on_c, 13, 55, 90
19, 136859, Note_on_c, 13, 55, 0
19, 136860, Note_on_c, 13, 53, 90
19, 136889, Note_on_c, 13, 53, 0
19, 136890, Note_on_c, 13, 51, 90
19, 136919, Note_on_c, 13, 51, 0
19, 136920, Note_on_c, 13, 50, 90
19, 136949, Note_on_c, 13, 50, 0
19, 136950, Note_on_c, 13, 48, 90
19, 136979, Note_on_c, 13, 48, 0
19, 136980, Note_on_c, 13, 41, 90
19, 137459, Note_on_c, 13, 41, 0
19, 137460, Note_on_c, 13, 40, 90
19, 137939, Note_on_c, 13, 40, 0
19, 137940, Note_on_c, 13, 38, 90
19, 138059, Note_on_c, 13, 38, 0
19, 138300, Note_on_c, 13, 45, 90
19, 138419, Note_on_c, 13, 45, 0
19, 138660, Note_on_c, 13, 50, 90
19, 138719, Note_on_c, 13, 50, 0
19, 138720, Note_on_c, 13, 53, 90
19, 138779, Note_on_c, 13, 53, 0
19, 138780, Note_on_c, 13, 53, 90
19, 138839, Note_on_c, 13, 53, 0
19, 138840, Note_on_c, 13, 57, 90
19, 138899, Note_on_c, 13, 57, 0
19, 138900, Note_on_c, 13, 55, 90
19, 138929, Note_on_c, 13, 55, 0
19, 138930, Note_on_c, 13, 53, 90
19, 138959, Note_on_c, 13, 53, 0
19, 138960, Note_on_c, 13, 52, 90
19, 138989, Note_on_c, 13, 52, 0
19, 138990, Note_on_c, 13, 50, 90
19, 139019, Note_on_c, 13, 50, 0
19, 139020, Note_on_c, 13, 55, 90
19, 139049, Note_on_c, 13, 55, 0
19, 139140, Note_on_c, 13, 47, 90
19, 139169, Note_on_c, 13, 47, 0
19, 139260, Note_on_c, 13, 43, 90
19, 139289, Note_on_c, 13, 43, 0
19, 139380, Note_on_c, 13, 48, 90
19, 139439, Note_on_c, 13, 48, 0
19, 139440, Note_on_c, 13, 60, 90
19, 139499, Note_on_c, 13, 60, 0
19, 139500, Note_on_c, 13, 60, 90
19, 139559, Note_on_c, 13, 60, 0
19, 139560, Note_on_c, 13, 59, 90
19, 139619, Note_on_c, 13, 59, 0
19, 139620, Note_on_c, 13, 59, 90
19, 139679, Note_on_c, 13, 59, 0
19, 139680, Note_on_c, 13, 57, 90
19, 139739, Note_on_c, 13, 57, 0
19, 139740, Note_on_c, 13, 57, 90
19, 139799, Note_on_c, 13, 57, 0
19, 139800, Note_on_c, 13, 50, 90
19, 139859, Note_on_c, 13, 50, 0
19, 139860, Note_on_c, 13, 50, 90
19, 139919, Note_on_c, 13, 50, 0
19, 139920, Note_on_c, 13, 55, 90
19, 139979, Note_on_c, 13, 55, 0
19, 139980, Note_on_c, 13, 55, 90
19, 140039, Note_on_c, 13, 55, 0
19, 140040, Note_on_c, 13, 54, 90
19, 140099, Note_on_c, 13, 54, 0
19, 140100, Note_on_c, 13, 54, 90
19, 140159, Note_on_c, 13, 54, 0
19, 140160, Note_on_c, 13, 49, 90
19, 140219, Note_on_c, 13, 49, 0
19, 140220, Note_on_c, 13, 49, 90
19, 140279, Note_on_c, 13, 49, 0
19, 140280, Note_on_c, 13, 50, 90
19, 140339, Note_on_c, 13, 50, 0
19, 140340, Note_on_c, 13, 50, 90
19, 140399, Note_on_c, 13, 50, 0
19, 140400, Note_on_c, 13, 47, 90
19, 140459, Note_on_c, 13, 47, 0
19, 140460, Note_on_c, 13, 47, 90
19, 140519, Note_on_c, 13, 47, 0
19, 140520, Note_on_c, 13, 43, 90
19, 140579, Note_on_c, 13, 43, 0
19, 140580, Note_on_c, 13, 43, 90
19, 140639, Note_on_c, 13, 43, 0
19, 140640, Note_on_c, 13, 45, 90
19, 140699, Note_on_c, 13, 45, 0
19, 140700, Note_on_c, 13, 45, 90
19, 140759, Note_on_c, 13, 45, 0
19, 140760, Note_on_c, 13, 47, 90
19, 140819, Note_on_c, 13, 47, 0
19, 140820, Note_on_c, 13, 47, 90
19, 140879, Note_on_c, 13, 47, 0
19, 140880, Note_on_c, 13, 45, 90
19, 140939, Note_on_c, 13, 45, 0
19, 140940, Note_on_c, 13, 45, 90
19, 140999, Note_on_c, 13, 45, 0
19, 141000, Note_on_c, 13, 43, 90
19, 141059, Note_on_c, 13, 43, 0
19, 141060, Note_on_c, 13, 43, 90
19, 141119, Note_on_c, 13, 43, 0
19, 141120, Note_on_c, 13, 42, 90
19, 141179, Note_on_c, 13, 42, 0
19, 141180, Note_on_c, 13, 42, 90
19, 141239, Note_on_c, 13, 42, 0
19, 141240, Note_on_c, 13, 45, 90
19, 141299, Note_on_c, 13, 45, 0
19, 141300, Note_on_c, 13, 45, 90
19, 141359, Note_on_c, 13, 45, 0
19, 141360, Note_on_c, 13, 48, 90
19, 141419, Note_on_c, 13, 48, 0
19, 141420, Note_on_c, 13, 47, 90
19, 141449, Note_on_c, 13, 47, 0
19, 141450, Note_on_c, 13, 45, 90
19, 141479, Note_on_c, 13, 45, 0
19, 141480, Note_on_c, 13, 43, 90
19, 141509, Note_on_c, 13, 43, 0
19, 141510, Note_on_c, 13, 42, 90
19, 141539, Note_on_c, 13, 42, 0
19, 141540, Note_on_c, 13, 43, 90
19, 141599, Note_on_c, 13, 43, 0
19, 141600, Note_on_c, 13, 47, 90
19, 141659, Note_on_c, 13, 47, 0
19, 141660, Note_on_c, 13, 47, 90
19, 141719, Note_on_c, 13, 47, 0
19, 141720, Note_on_c, 13, 50, 90
19, 141779, Note_on_c, 13, 50, 0
19, 141780, Note_on_c, 13, 48, 90
19, 141809, Note_on_c, 13, 48, 0
19, 141810, Note_on_c, 13, 47, 90
19, 141839, Note_on_c, 13, 47, 0
19, 141840, Note_on_c, 13, 45, 90
19, 141869, Note_on_c, 13, 45, 0
19, 141870, Note_on_c, 13, 43, 90
19, 141899, Note_on_c, 13, 43, 0
19, 141900, Note_on_c, 13, 48, 90
19, 142019, Note_on_c, 13, 48, 0
19, 142380, Note_on_c, 13, 47, 90
19, 142499, Note_on_c, 13, 47, 0
19, 142620, Note_on_c, 13, 40, 90
19, 142739, Note_on_c, 13, 40, 0
19, 142860, Note_on_c, 13, 45, 90
19, 142979, Note_on_c, 13, 45, 0
19, 143220, Note_on_c, 13, 43, 90
19, 143339, Note_on_c, 13, 43, 0
19, 143580, Note_on_c, 13, 42, 90
19, 143609, Note_on_c, 13, 42, 0
19, 143700, Note_on_c, 13, 38, 90
19, 143729, Note_on_c, 13, 38, 0
19, 143820, Note_on_c, 13, 50, 90
19, 143849, Note_on_c, 13, 50, 0
19, 143940, Note_on_c, 13, 43, 90
19, 143999, Note_on_c, 13, 43, 0
19, 144000, Note_on_c, 13, 47, 90
19, 144059, Note_on_c, 13, 47, 0
19, 144060, Note_on_c, 13, 47, 90
19, 144119, Note_on_c, 13, 47, 0
19, 144120, Note_on_c, 13, 50, 90
19, 144179, Note_on_c, 13, 50, 0
19, 144180, Note_on_c, 13, 48, 90
19, 144209, Note_on_c, 13, 48, 0
19, 144210, Note_on_c, 13, 47, 90
19, 144239, Note_on_c, 13, 47, 0
19, 144240, Note_on_c, 13, 45, 90
19, 144269, Note_on_c, 13, 45, 0
19, 144270, Note_on_c, 13, 43, 90
19, 144299, Note_on_c, 13, 43, 0
19, 144300, Note_on_c, 13, 49, 90
19, 144359, Note_on_c, 13, 49, 0
19, 144360, Note_on_c, 13, 52, 90
19, 144419, Note_on_c, 13, 52, 0
19, 144420, Note_on_c, 13, 52, 90
19, 144479, Note_on_c, 13, 52, 0
19, 144480, Note_on_c, 13, 55, 90
19, 144539, Note_on_c, 13, 55, 0
19, 144540, Note_on_c, 13, 54, 90
19, 144569, Note_on_c, 13, 54, 0
19, 144570, Note_on_c, 13, 52, 90
19, 144599, Note_on_c, 13, 52, 0
19, 144600, Note_on_c, 13, 50, 90
19, 144629, Note_on_c, 13, 50, 0
19, 144630, Note_on_c, 13, 49, 90
19, 144659, Note_on_c, 13, 49, 0
19, 144660, Note_on_c, 13, 50, 90
19, 144689, Note_on_c, 13, 50, 0
19, 144780, Note_on_c, 13, 38, 90
19, 144809, Note_on_c, 13, 38, 0
19, 145380, Note_on_c, 13, 43, 90
19, 145439, Note_on_c, 13, 43, 0
19, 145440, Note_on_c, 13, 47, 90
19, 145499, Note_on_c, 13, 47, 0
19, 145500, Note_on_c, 13, 47, 90
19, 145559, Note_on_c, 13, 47, 0
19, 145560, Note_on_c, 13, 50, 90
19, 145619, Note_on_c, 13, 50, 0
19, 145620, Note_on_c, 13, 48, 90
19, 145649, Note_on_c, 13, 48, 0
19, 145650, Note_on_c, 13, 47, 90
19, 145679, Note_on_c, 13, 47, 0
19, 145680, Note_on_c, 13, 45, 90
19, 145709, Note_on_c, 13, 45, 0
19, 145710, Note_on_c, 13, 43, 90
19, 145739, Note_on_c, 13, 43, 0
19, 145740, Note_on_c, 13, 50, 90
19, 145799, Note_on_c, 13, 50, 0
19, 145800, Note_on_c, 13, 54, 90
19, 145859, Note_on_c, 13, 54, 0
19, 145860, Note_on_c, 13, 54, 90
19, 145919, Note_on_c, 13, 54, 0
19, 145920, Note_on_c, 13, 57, 90
19, 145979, Note_on_c, 13, 57, 0
19, 145980, Note_on_c, 13, 55, 90
19, 146009, Note_on_c, 13, 55, 0
19, 146010, Note_on_c, 13, 54, 90
19, 146039, Note_on_c, 13, 54, 0
19, 146040, Note_on_c, 13, 52, 90
19, 146069, Note_on_c, 13, 52, 0
19, 146070, Note_on_c, 13, 50, 90
19, 146099, Note_on_c, 13, 50, 0
19, 146100, Note_on_c, 13, 59, 90
19, 146219, Note_on_c, 13, 59, 0
19, 146340, Note_on_c, 13, 52, 90
19, 146459, Note_on_c, 13, 52, 0
19, 146460, Note_on_c, 13, 49, 90
19, 146579, Note_on_c, 13, 49, 0
19, 146940, Note_on_c, 13, 50, 90
19, 147059, Note_on_c, 13, 50, 0
19, 147060, Note_on_c, 13, 43, 90
19, 147119, Note_on_c, 13, 43, 0
19, 147120, Note_on_c, 13, 47, 90
19, 147179, Note_on_c, 13, 47, 0
19, 147180, Note_on_c, 13, 47, 90
19, 147239, Note_on_c, 13, 47, 0
19, 147240, Note_on_c, 13, 50, 90
19, 147299, Note_on_c, 13, 50, 0
19, 147300, Note_on_c, 13, 48, 90
19, 147329, Note_on_c, 13, 48, 0
19, 147330, Note_on_c, 13, 47, 90
19, 147359, Note_on_c, 13, 47, 0
19, 147360, Note_on_c, 13, 45, 90
19, 147389, Note_on_c, 13, 45, 0
19, 147390, Note_on_c, 13, 43, 90
19, 147419, Note_on_c, 13, 43, 0
19, 147420, Note_on_c, 13, 48, 90
19, 147479, Note_on_c, 13, 48, 0
19, 147480, Note_on_c, 13, 52, 90
19, 147539, Note_on_c, 13, 52, 0
19, 147540, Note_on_c, 13, 52, 90
19, 147599, Note_on_c, 13, 52, 0
19, 147600, Note_on_c, 13, 55, 90
19, 147659, Note_on_c, 13, 55, 0
19, 147660, Note_on_c, 13, 53, 90
19, 147689, Note_on_c, 13, 53, 0
19, 147690, Note_on_c, 13, 52, 90
19, 147719, Note_on_c, 13, 52, 0
19, 147720, Note_on_c, 13, 50, 90
19, 147749, Note_on_c, 13, 50, 0
19, 147750, Note_on_c, 13, 48, 90
19, 147779, Note_on_c, 13, 48, 0
19, 147780, Note_on_c, 13, 55, 90
19, 147839, Note_on_c, 13, 55, 0
19, 147840, Note_on_c, 13, 59, 90
19, 147899, Note_on_c, 13, 59, 0
19, 147900, Note_on_c, 13, 59, 90
19, 147959, Note_on_c, 13, 59, 0
19, 147960, Note_on_c, 13, 62, 90
19, 148019, Note_on_c, 13, 62, 0
19, 148020, Note_on_c, 13, 60, 90
19, 148049, Note_on_c, 13, 60, 0
19, 148050, Note_on_c, 13, 59, 90
19, 148079, Note_on_c, 13, 59, 0
19, 148080, Note_on_c, 13, 57, 90
19, 148109, Note_on_c, 13, 57, 0
19, 148110, Note_on_c, 13, 55, 90
19, 148139, Note_on_c, 13, 55, 0
19, 148140, Note_on_c, 13, 50, 90
19, 148199, Note_on_c, 13, 50, 0
19, 148200, Note_on_c, 13, 54, 90
19, 148259, Note_on_c, 13, 54, 0
19, 148260, Note_on_c, 13, 54, 90
19, 148319, Note_on_c, 13, 54, 0
19, 148320, Note_on_c, 13, 57, 90
19, 148379, Note_on_c, 13, 57, 0
19, 148380, Note_on_c, 13, 55, 90
19, 148409, Note_on_c, 13, 55, 0
19, 148410, Note_on_c, 13, 54, 90
19, 148439, Note_on_c, 13, 54, 0
19, 148440, Note_on_c, 13, 52, 90
19, 148469, Note_on_c, 13, 52, 0
19, 148470, Note_on_c, 13, 50, 90
19, 148499, Note_on_c, 13, 50, 0
19, 148500, Note_on_c, 13, 55, 90
19, 148529, Note_on_c, 13, 55, 0
19, 148620, Note_on_c, 13, 56, 90
19, 148649, Note_on_c, 13, 56, 0
19, 148740, Note_on_c, 13, 52, 90
19, 148769, Note_on_c, 13, 52, 0
19, 148860, Note_on_c, 13, 45, 90
19, 148919, Note_on_c, 13, 45, 0
19, 148920, Note_on_c, 13, 48, 90
19, 148979, Note_on_c, 13, 48, 0
19, 148980, Note_on_c, 13, 48, 90
19, 149039, Note_on_c, 13, 48, 0
19, 149040, Note_on_c, 13, 52, 90
19, 149099, Note_on_c, 13, 52, 0
19, 149100, Note_on_c, 13, 50, 90
19, 149129, Note_on_c, 13, 50, 0
19, 149130, Note_on_c, 13, 48, 90
19, 149159, Note_on_c, 13, 48, 0
19, 149160, Note_on_c, 13, 47, 90
19, 149189, Note_on_c, 13, 47, 0
19, 149190, Note_on_c, 13, 45, 90
19, 149219, Note_on_c, 13, 45, 0
19, 149220, Note_on_c, 13, 50, 90
19, 149249, Note_on_c, 13, 50, 0
19, 149340, Note_on_c, 13, 54, 90
19, 149369, Note_on_c, 13, 54, 0
19, 149460, Note_on_c, 13, 50, 90
19, 149489, Note_on_c, 13, 50, 0
19, 149580, Note_on_c, 13, 43, 90
19, 149639, Note_on_c, 13, 43, 0
19, 149640, Note_on_c, 13, 47, 90
19, 149699, Note_on_c, 13, 47, 0
19, 149700, Note_on_c, 13, 47, 90
19, 149759, Note_on_c, 13, 47, 0
19, 149760, Note_on_c, 13, 50, 90
19, 149819, Note_on_c, 13, 50, 0
19, 149820, Note_on_c, 13, 48, 90
19, 149849, Note_on_c, 13, 48, 0
19, 149850, Note_on_c, 13, 47, 90
19, 149879, Note_on_c, 13, 47, 0
19, 149880, Note_on_c, 13, 45, 90
19, 149909, Note_on_c, 13, 45, 0
19, 149910, Note_on_c, 13, 43, 90
19, 149939, Note_on_c, 13, 43, 0
19, 149940, Note_on_c, 13, 48, 90
19, 149969, Note_on_c, 13, 48, 0
19, 150060, Note_on_c, 13, 49, 90
19, 150089, Note_on_c, 13, 49, 0
19, 150300, Note_on_c, 13, 50, 90
19, 150329, Note_on_c, 13, 50, 0
19, 150420, Note_on_c, 13, 52, 90
19, 150449, Note_on_c, 13, 52, 0
19, 150660, Note_on_c, 13, 47, 90
19, 150689, Note_on_c, 13, 47, 0
19, 150780, Note_on_c, 13, 48, 90
19, 150809, Note_on_c, 13, 48, 0
19, 150900, Note_on_c, 13, 50, 90
19, 150929, Note_on_c, 13, 50, 0
19, 151020, Note_on_c, 13, 43, 90
19, 151379, Note_on_c, 13, 43, 0
19, 151620, Note_on_c, 13, 50, 90
19, 151679, Note_on_c, 13, 50, 0
19, 151680, Note_on_c, 13, 38, 90
19, 151739, Note_on_c, 13, 38, 0
19, 151740, Note_on_c, 13, 38, 90
19, 151799, Note_on_c, 13, 38, 0
19, 151800, Note_on_c, 13, 50, 90
19, 151859, Note_on_c, 13, 50, 0
19, 151860, Note_on_c, 13, 50, 90
19, 151919, Note_on_c, 13, 50, 0
19, 151920, Note_on_c, 13, 38, 90
19, 151979, Note_on_c, 13, 38, 0
19, 151980, Note_on_c, 13, 38, 90
19, 152039, Note_on_c, 13, 38, 0
19, 152040, Note_on_c, 13, 50, 90
19, 152069, Note_on_c, 13, 50, 0
19, 152070, Note_on_c, 13, 52, 90
19, 152099, Note_on_c, 13, 52, 0
19, 152100, Note_on_c, 13, 54, 90
19, 152159, Note_on_c, 13, 54, 0
19, 152160, Note_on_c, 13, 50, 90
19, 152219, Note_on_c, 13, 50, 0
19, 152220, Note_on_c, 13, 57, 90
19, 152279, Note_on_c, 13, 57, 0
19, 152280, Note_on_c, 13, 45, 90
19, 152339, Note_on_c, 13, 45, 0
19, 152340, Note_on_c, 13, 50, 90
19, 152399, Note_on_c, 13, 50, 0
19, 152400, Note_on_c, 13, 42, 90
19, 152459, Note_on_c, 13, 42, 0
19, 152460, Note_on_c, 13, 43, 90
19, 152519, Note_on_c, 13, 43, 0
19, 152520, Note_on_c, 13, 45, 90
19, 152579, Note_on_c, 13, 45, 0
19, 152580, Note_on_c, 13, 50, 90
19, 152639, Note_on_c, 13, 50, 0
19, 152640, Note_on_c, 13, 38, 90
19, 152699, Note_on_c, 13, 38, 0
19, 152700, Note_on_c, 13, 38, 90
19, 152759, Note_on_c, 13, 38, 0
19, 152760, Note_on_c, 13, 50, 90
19, 152819, Note_on_c, 13, 50, 0
19, 152820, Note_on_c, 13, 50, 90
19, 152879, Note_on_c, 13, 50, 0
19, 152880, Note_on_c, 13, 38, 90
19, 152939, Note_on_c, 13, 38, 0
19, 152940, Note_on_c, 13, 38, 90
19, 152999, Note_on_c, 13, 38, 0
19, 153000, Note_on_c, 13, 50, 90
19, 153029, Note_on_c, 13, 50, 0
19, 153030, Note_on_c, 13, 49, 90
19, 153059, Note_on_c, 13, 49, 0
19, 153060, Note_on_c, 13, 47, 90
19, 153119, Note_on_c, 13, 47, 0
19, 153120, Note_on_c, 13, 42, 90
19, 153179, Note_on_c, 13, 42, 0
19, 153180, Note_on_c, 13, 43, 90
19, 153239, Note_on_c, 13, 43, 0
19, 153240, Note_on_c, 13, 45, 90
19, 153299, Note_on_c, 13, 45, 0
19, 153300, Note_on_c, 13, 50, 90
19, 153359, Note_on_c, 13, 50, 0
19, 153360, Note_on_c, 13, 38, 90
19, 153419, Note_on_c, 13, 38, 0
19, 153420, Note_on_c, 13, 38, 90
19, 153479, Note_on_c, 13, 38, 0
19, 153480, Note_on_c, 13, 54, 90
19, 153539, Note_on_c, 13, 54, 0
19, 153540, Note_on_c, 13, 55, 90
19, 153599, Note_on_c, 13, 55, 0
19, 153600, Note_on_c, 13, 59, 90
19, 153659, Note_on_c, 13, 59, 0
19, 153660, Note_on_c, 13, 62, 90
19, 153719, Note_on_c, 13, 62, 0
19, 153720, Note_on_c, 13, 55, 90
19, 153779, Note_on_c, 13, 55, 0
19, 153780, Note_on_c, 13, 54, 90
19, 153839, Note_on_c, 13, 54, 0
19, 153840, Note_on_c, 13, 57, 90
19, 153899, Note_on_c, 13, 57, 0
19, 153900, Note_on_c, 13, 62, 90
19, 153959, Note_on_c, 13, 62, 0
19, 153960, Note_on_c, 13, 54, 90
19, 154019, Note_on_c, 13, 54, 0
19, 154020, Note_on_c, 13, 52, 90
19, 154079, Note_on_c, 13, 52, 0
19, 154080, Note_on_c, 13, 61, 90
19, 154139, Note_on_c, 13, 61, 0
19, 154140, Note_on_c, 13, 50, 90
19, 154199, Note_on_c, 13, 50, 0
19, 154200, Note_on_c, 13, 62, 90
19, 154259, Note_on_c, 13, 62, 0
19, 154260, Note_on_c, 13, 57, 90
19, 154319, Note_on_c, 13, 57, 0
19, 154320, Note_on_c, 13, 55, 90
19, 154379, Note_on_c, 13, 55, 0
19, 154380, Note_on_c, 13, 54, 90
19, 154439, Note_on_c, 13, 54, 0
19, 154440, Note_on_c, 13, 52, 90
19, 154499, Note_on_c, 13, 52, 0
19, 154500, Note_on_c, 13, 50, 90
19, 154559, Note_on_c, 13, 50, 0
19, 154560, Note_on_c, 13, 42, 90
19, 154619, Note_on_c, 13, 42, 0
19, 154620, Note_on_c, 13, 40, 90
19, 154679, Note_on_c, 13, 40, 0
19, 154680, Note_on_c, 13, 38, 90
19, 154739, Note_on_c, 13, 38, 0
19, 154740, Note_on_c, 13, 45, 90
19, 154799, Note_on_c, 13, 45, 0
19, 154800, Note_on_c, 13, 57, 90
19, 154829, Note_on_c, 13, 57, 0
19, 154830, Note_on_c, 13, 59, 90
19, 154859, Note_on_c, 13, 59, 0
19, 154860, Note_on_c, 13, 57, 90
19, 154889, Note_on_c, 13, 57, 0
19, 154890, Note_on_c, 13, 55, 90
19, 154919, Note_on_c, 13, 55, 0
19, 154920, Note_on_c, 13, 54, 90
19, 154949, Note_on_c, 13, 54, 0
19, 154950, Note_on_c, 13, 52, 90
19, 154979, Note_on_c, 13, 52, 0
19, 154980, Note_on_c, 13, 50, 90
19, 155039, Note_on_c, 13, 50, 0
19, 155040, Note_on_c, 13, 38, 90
19, 155159, Note_on_c, 13, 38, 0
19, 155160, Note_on_c, 13, 50, 90
19, 155279, Note_on_c, 13, 50, 0
19, 155280, Note_on_c, 13, 38, 90
19, 155399, Note_on_c, 13, 38, 0
19, 155400, Note_on_c, 13, 49, 90
19, 155459, Note_on_c, 13, 49, 0
19, 155460, Note_on_c, 13, 47, 90
19, 155519, Note_on_c, 13, 47, 0
19, 155520, Note_on_c, 13, 54, 90
19, 155549, Note_on_c, 13, 54, 0
19, 155550, Note_on_c, 13, 55, 90
19, 155579, Note_on_c, 13, 55, 0
19, 155580, Note_on_c, 13, 57, 90
19, 155639, Note_on_c, 13, 57, 0
19, 155640, Note_on_c, 13, 45, 90
19, 155699, Note_on_c, 13, 45, 0
19, 155700, Note_on_c, 13, 50, 90
19, 155759, Note_on_c, 13, 50, 0
19, 155760, Note_on_c, 13, 45, 90
19, 155819, Note_on_c, 13, 45, 0
19, 155820, Note_on_c, 13, 42, 90
19, 155879, Note_on_c, 13, 42, 0
19, 155880, Note_on_c, 13, 45, 90
19, 155939, Note_on_c, 13, 45, 0
19, 155940, Note_on_c, 13, 50, 90
19, 155999, Note_on_c, 13, 50, 0
19, 156000, Note_on_c, 13, 38, 90
19, 156119, Note_on_c, 13, 38, 0
19, 156120, Note_on_c, 13, 50, 90
19, 156239, Note_on_c, 13, 50, 0
19, 156240, Note_on_c, 13, 38, 90
19, 156359, Note_on_c, 13, 38, 0
19, 156360, Note_on_c, 13, 49, 90
19, 156419, Note_on_c, 13, 49, 0
19, 156420, Note_on_c, 13, 47, 90
19, 156479, Note_on_c, 13, 47, 0
19, 156480, Note_on_c, 13, 54, 90
19, 156509, Note_on_c, 13, 54, 0
19, 156510, Note_on_c, 13, 55, 90
19, 156539, Note_on_c, 13, 55, 0
19, 156540, Note_on_c, 13, 57, 90
19, 156599, Note_on_c, 13, 57, 0
19, 156600, Note_on_c, 13, 45, 90
19, 156659, Note_on_c, 13, 45, 0
19, 156660, Note_on_c, 13, 50, 90
19, 156719, Note_on_c, 13, 50, 0
19, 156720, Note_on_c, 13, 45, 90
19, 156779, Note_on_c, 13, 45, 0
19, 156780, Note_on_c, 13, 42, 90
19, 156839, Note_on_c, 13, 42, 0
19, 156840, Note_on_c, 13, 38, 90
19, 156899, Note_on_c, 13, 38, 0
19, 156900, Note_on_c, 13, 43, 90
19, 156959, Note_on_c, 13, 43, 0
19, 156960, Note_on_c, 13, 47, 90
19, 157019, Note_on_c, 13, 47, 0
19, 157020, Note_on_c, 13, 50, 90
19, 157079, Note_on_c, 13, 50, 0
19, 157080, Note_on_c, 13, 43, 90
19, 157139, Note_on_c, 13, 43, 0
19, 157140, Note_on_c, 13, 42, 90
19, 157199, Note_on_c, 13, 42, 0
19, 157200, Note_on_c, 13, 45, 90
19, 157259, Note_on_c, 13, 45, 0
19, 157260, Note_on_c, 13, 50, 90
19, 157319, Note_on_c, 13, 50, 0
19, 157320, Note_on_c, 13, 42, 90
19, 157379, Note_on_c, 13, 42, 0
19, 157380, Note_on_c, 13, 40, 90
19, 157439, Note_on_c, 13, 40, 0
19, 157440, Note_on_c, 13, 49, 90
19, 157499, Note_on_c, 13, 49, 0
19, 157500, Note_on_c, 13, 38, 90
19, 157559, Note_on_c, 13, 38, 0
19, 157560, Note_on_c, 13, 50, 90
19, 157619, Note_on_c, 13, 50, 0
19, 157620, Note_on_c, 13, 45, 90
19, 157679, Note_on_c, 13, 45, 0
19, 157680, Note_on_c, 13, 43, 90
19, 157739, Note_on_c, 13, 43, 0
19, 157740, Note_on_c, 13, 42, 90
19, 157799, Note_on_c, 13, 42, 0
19, 157800, Note_on_c, 13, 40, 90
19, 157859, Note_on_c, 13, 40, 0
19, 157860, Note_on_c, 13, 38, 90
19, 157919, Note_on_c, 13, 38, 0
19, 157920, Note_on_c, 13, 50, 90
19, 157979, Note_on_c, 13, 50, 0
19, 157980, Note_on_c, 13, 49, 90
19, 158039, Note_on_c, 13, 49, 0
19, 158040, Note_on_c, 13, 50, 90
19, 158099, Note_on_c, 13, 50, 0
19, 158100, Note_on_c, 13, 45, 90
19, 158159, Note_on_c, 13, 45, 0
19, 158160, Note_on_c, 13, 47, 90
19, 158219, Note_on_c, 13, 47, 0
19, 158220, Note_on_c, 13, 49, 90
19, 158279, Note_on_c, 13, 49, 0
19, 158280, Note_on_c, 13, 50, 90
19, 158339, Note_on_c, 13, 50, 0
19, 158340, Note_on_c, 13, 49, 90
19, 158399, Note_on_c, 13, 49, 0
19, 158400, Note_on_c, 13, 45, 90
19, 158459, Note_on_c, 13, 45, 0
19, 158460, Note_on_c, 13, 49, 90
19, 158519, Note_on_c, 13, 49, 0
19, 158520, Note_on_c, 13, 52, 90
19, 158579, Note_on_c, 13, 52, 0
19, 158580, Note_on_c, 13, 57, 90
19, 158639, Note_on_c, 13, 57, 0
19, 158640, Note_on_c, 13, 55, 90
19, 158669, Note_on_c, 13, 55, 0
19, 158670, Note_on_c, 13, 54, 90
19, 158699, Note_on_c, 13, 54, 0
19, 158700, Note_on_c, 13, 52, 90
19, 158759, Note_on_c, 13, 52, 0
19, 158760, Note_on_c, 13, 50, 90
19, 158819, Note_on_c, 13, 50, 0
19, 158820, Note_on_c, 13, 49, 90
19, 158879, Note_on_c, 13, 49, 0
19, 158880, Note_on_c, 13, 52, 90
19, 158939, Note_on_c, 13, 52, 0
19, 158940, Note_on_c, 13, 49, 90
19, 158999, Note_on_c, 13, 49, 0
19, 159000, Note_on_c, 13, 45, 90
19, 159059, Note_on_c, 13, 45, 0
19, 159060, Note_on_c, 13, 50, 90
19, 159119, Note_on_c, 13, 50, 0
19, 159120, Note_on_c, 13, 52, 90
19, 159179, Note_on_c, 13, 52, 0
19, 159180, Note_on_c, 13, 54, 90
19, 159239, Note_on_c, 13, 54, 0
19, 159240, Note_on_c, 13, 55, 90
19, 159299, Note_on_c, 13, 55, 0
19, 159300, Note_on_c, 13, 54, 90
19, 159359, Note_on_c, 13, 54, 0
19, 159360, Note_on_c, 13, 57, 90
19, 159389, Note_on_c, 13, 57, 0
19, 159390, Note_on_c, 13, 55, 90
19, 159419, Note_on_c, 13, 55, 0
19, 159420, Note_on_c, 13, 54, 90
19, 159479, Note_on_c, 13, 54, 0
19, 159480, Note_on_c, 13, 52, 90
19, 159539, Note_on_c, 13, 52, 0
19, 159540, Note_on_c, 13, 50, 90
19, 159599, Note_on_c, 13, 50, 0
19, 159600, Note_on_c, 13, 38, 90
19, 159659, Note_on_c, 13, 38, 0
19, 159660, Note_on_c, 13, 50, 90
19, 159719, Note_on_c, 13, 50, 0
19, 159720, Note_on_c, 13, 52, 90
19, 159779, Note_on_c, 13, 52, 0
19, 159780, Note_on_c, 13, 54, 90
19, 159839, Note_on_c, 13, 54, 0
19, 159840, Note_on_c, 13, 57, 90
19, 159899, Note_on_c, 13, 57, 0
19, 159900, Note_on_c, 13, 54, 90
19, 159959, Note_on_c, 13, 54, 0
19, 159960, Note_on_c, 13, 50, 90
19, 160019, Note_on_c, 13, 50, 0
19, 160020, Note_on_c, 13, 55, 90
19, 160079, Note_on_c, 13, 55, 0
19, 160080, Note_on_c, 13, 43, 90
19, 160139, Note_on_c, 13, 43, 0
19, 160140, Note_on_c, 13, 55, 90
19, 160169, Note_on_c, 13, 55, 0
19, 160170, Note_on_c, 13, 54, 90
19, 160199, Note_on_c, 13, 54, 0
19, 160200, Note_on_c, 13, 52, 90
19, 160229, Note_on_c, 13, 52, 0
19, 160230, Note_on_c, 13, 50, 90
19, 160259, Note_on_c, 13, 50, 0
19, 160260, Note_on_c, 13, 49, 90
19, 160319, Note_on_c, 13, 49, 0
19, 160320, Note_on_c, 13, 49, 90
19, 160379, Note_on_c, 13, 49, 0
19, 160380, Note_on_c, 13, 49, 90
19, 160439, Note_on_c, 13, 49, 0
19, 160440, Note_on_c, 13, 50, 90
19, 160469, Note_on_c, 13, 50, 0
19, 160470, Note_on_c, 13, 52, 90
19, 160499, Note_on_c, 13, 52, 0
19, 160500, Note_on_c, 13, 54, 90
19, 160559, Note_on_c, 13, 54, 0
19, 160560, Note_on_c, 13, 42, 90
19, 160619, Note_on_c, 13, 42, 0
19, 160620, Note_on_c, 13, 54, 90
19, 160649, Note_on_c, 13, 54, 0
19, 160650, Note_on_c, 13, 52, 90
19, 160679, Note_on_c, 13, 52, 0
19, 160680, Note_on_c, 13, 50, 90
19, 160709, Note_on_c, 13, 50, 0
19, 160710, Note_on_c, 13, 49, 90
19, 160739, Note_on_c, 13, 49, 0
19, 160740, Note_on_c, 13, 47, 90
19, 160799, Note_on_c, 13, 47, 0
19, 160800, Note_on_c, 13, 47, 90
19, 160859, Note_on_c, 13, 47, 0
19, 160860, Note_on_c, 13, 47, 90
19, 160919, Note_on_c, 13, 47, 0
19, 160920, Note_on_c, 13, 49, 90
19, 160949, Note_on_c, 13, 49, 0
19, 160950, Note_on_c, 13, 50, 90
19, 160979, Note_on_c, 13, 50, 0
19, 160980, Note_on_c, 13, 52, 90
19, 161039, Note_on_c, 13, 52, 0
19, 161040, Note_on_c, 13, 40, 90
19, 161099, Note_on_c, 13, 40, 0
19, 161100, Note_on_c, 13, 52, 90
19, 161129, Note_on_c, 13, 52, 0
19, 161130, Note_on_c, 13, 50, 90
19, 161159, Note_on_c, 13, 50, 0
19, 161160, Note_on_c, 13, 49, 90
19, 161189, Note_on_c, 13, 49, 0
19, 161190, Note_on_c, 13, 47, 90
19, 161219, Note_on_c, 13, 47, 0
19, 161220, Note_on_c, 13, 45, 90
19, 161279, Note_on_c, 13, 45, 0
19, 161280, Note_on_c, 13, 57, 90
19, 161339, Note_on_c, 13, 57, 0
19, 161340, Note_on_c, 13, 57, 90
19, 161399, Note_on_c, 13, 57, 0
19, 161400, Note_on_c, 13, 45, 90
19, 161459, Note_on_c, 13, 45, 0
19, 161460, Note_on_c, 13, 45, 90
19, 161519, Note_on_c, 13, 45, 0
19, 161520, Note_on_c, 13, 57, 90
19, 161579, Note_on_c, 13, 57, 0
19, 161580, Note_on_c, 13, 57, 90
19, 161639, Note_on_c, 13, 57, 0
19, 161640, Note_on_c, 13, 45, 90
19, 161699, Note_on_c, 13, 45, 0
19, 161700, Note_on_c, 13, 45, 90
19, 161759, Note_on_c, 13, 45, 0
19, 161760, Note_on_c, 13, 57, 90
19, 161819, Note_on_c, 13, 57, 0
19, 161820, Note_on_c, 13, 57, 90
19, 161879, Note_on_c, 13, 57, 0
19, 161880, Note_on_c, 13, 45, 90
19, 161939, Note_on_c, 13, 45, 0
19, 161940, Note_on_c, 13, 45, 90
19, 161999, Note_on_c, 13, 45, 0
19, 162000, Note_on_c, 13, 57, 90
19, 162059, Note_on_c, 13, 57, 0
19, 162060, Note_on_c, 13, 57, 90
19, 162119, Note_on_c, 13, 57, 0
19, 162120, Note_on_c, 13, 49, 90
19, 162179, Note_on_c, 13, 49, 0
19, 162180, Note_on_c, 13, 50, 90
19, 162239, Note_on_c, 13, 50, 0
19, 162240, Note_on_c, 13, 54, 90
19, 162299, Note_on_c, 13, 54, 0
19, 162300, Note_on_c, 13, 59, 90
19, 162359, Note_on_c, 13, 59, 0
19, 162360, Note_on_c, 13, 47, 90
19, 162419, Note_on_c, 13, 47, 0
19, 162420, Note_on_c, 13, 49, 90
19, 162479, Note_on_c, 13, 49, 0
19, 162480, Note_on_c, 13, 57, 90
19, 162539, Note_on_c, 13, 57, 0
19, 162540, Note_on_c, 13, 55, 90
19, 162599, Note_on_c, 13, 55, 0
19, 162600, Note_on_c, 13, 54, 90
19, 162659, Note_on_c, 13, 54, 0
19, 162660, Note_on_c, 13, 52, 90
19, 162689, Note_on_c, 13, 52, 0
19, 162690, Note_on_c, 13, 54, 90
19, 162719, Note_on_c, 13, 54, 0
19, 162720, Note_on_c, 13, 55, 90
19, 162749, Note_on_c, 13, 55, 0
19, 162750, Note_on_c, 13, 54, 90
19, 162779, Note_on_c, 13, 54, 0
19, 162780, Note_on_c, 13, 52, 90
19, 162809, Note_on_c, 13, 52, 0
19, 162810, Note_on_c, 13, 50, 90
19, 162839, Note_on_c, 13, 50, 0
19, 162840, Note_on_c, 13, 49, 90
19, 162869, Note_on_c, 13, 49, 0
19, 162870, Note_on_c, 13, 47, 90
19, 162899, Note_on_c, 13, 47, 0
19, 162900, Note_on_c, 13, 49, 90
19, 162959, Note_on_c, 13, 49, 0
19, 162960, Note_on_c, 13, 45, 90
19, 163019, Note_on_c, 13, 45, 0
19, 163020, Note_on_c, 13, 47, 90
19, 163079, Note_on_c, 13, 47, 0
19, 163080, Note_on_c, 13, 49, 90
19, 163139, Note_on_c, 13, 49, 0
19, 163140, Note_on_c, 13, 50, 90
19, 163199, Note_on_c, 13, 50, 0
19, 163200, Note_on_c, 13, 47, 90
19, 163259, Note_on_c, 13, 47, 0
19, 163260, Note_on_c, 13, 43, 90
19, 163319, Note_on_c, 13, 43, 0
19, 163320, Note_on_c, 13, 45, 90
19, 163379, Note_on_c, 13, 45, 0
19, 163380, Note_on_c, 13, 50, 90
19, 163439, Note_on_c, 13, 50, 0
19, 163440, Note_on_c, 13, 38, 90
19, 163499, Note_on_c, 13, 38, 0
19, 163500, Note_on_c, 13, 38, 90
19, 163559, Note_on_c, 13, 38, 0
19, 163560, Note_on_c, 13, 50, 90
19, 163619, Note_on_c, 13, 50, 0
19, 163620, Note_on_c, 13, 50, 90
19, 163679, Note_on_c, 13, 50, 0
19, 163680, Note_on_c, 13, 38, 90
19, 163739, Note_on_c, 13, 38, 0
19, 163740, Note_on_c, 13, 38, 90
19, 163799, Note_on_c, 13, 38, 0
19, 163800, Note_on_c, 13, 50, 90
19, 163859, Note_on_c, 13, 50, 0
19, 163860, Note_on_c, 13, 50, 90
19, 163919, Note_on_c, 13, 50, 0
19, 163920, Note_on_c, 13, 62, 90
19, 163979, Note_on_c, 13, 62, 0
19, 163980, Note_on_c, 13, 60, 90
19, 164039, Note_on_c, 13, 60, 0
19, 164040, Note_on_c, 13, 59, 90
19, 164099, Note_on_c, 13, 59, 0
19, 164100, Note_on_c, 13, 57, 90
19, 164159, Note_on_c, 13, 57, 0
19, 164160, Note_on_c, 13, 55, 90
19, 164219, Note_on_c, 13, 55, 0
19, 164220, Note_on_c, 13, 54, 90
19, 164279, Note_on_c, 13, 54, 0
19, 164280, Note_on_c, 13, 50, 90
19, 164339, Note_on_c, 13, 50, 0
19, 164340, Note_on_c, 13, 55, 90
19, 164399, Note_on_c, 13, 55, 0
19, 164460, Note_on_c, 13, 54, 90
19, 164519, Note_on_c, 13, 54, 0
19, 164580, Note_on_c, 13, 52, 90
19, 164639, Note_on_c, 13, 52, 0
19, 164640, Note_on_c, 13, 40, 90
19, 164699, Note_on_c, 13, 40, 0
19, 164700, Note_on_c, 13, 40, 90
19, 164759, Note_on_c, 13, 40, 0
19, 164760, Note_on_c, 13, 52, 90
19, 164879, Note_on_c, 13, 52, 0
19, 164880, Note_on_c, 13, 64, 90
19, 164939, Note_on_c, 13, 64, 0
19, 164940, Note_on_c, 13, 62, 90
19, 164999, Note_on_c, 13, 62, 0
19, 165000, Note_on_c, 13, 61, 90
19, 165059, Note_on_c, 13, 61, 0
19, 165060, Note_on_c, 13, 59, 90
19, 165119, Note_on_c, 13, 59, 0
19, 165120, Note_on_c, 13, 57, 90
19, 165179, Note_on_c, 13, 57, 0
19, 165180, Note_on_c, 13, 56, 90
19, 165239, Note_on_c, 13, 56, 0
19, 165240, Note_on_c, 13, 52, 90
19, 165299, Note_on_c, 13, 52, 0
19, 165300, Note_on_c, 13, 57, 90
19, 165359, Note_on_c, 13, 57, 0
19, 165420, Note_on_c, 13, 55, 90
19, 165479, Note_on_c, 13, 55, 0
19, 165540, Note_on_c, 13, 54, 90
19, 165599, Note_on_c, 13, 54, 0
19, 165660, Note_on_c, 13, 50, 90
19, 165719, Note_on_c, 13, 50, 0
19, 165780, Note_on_c, 13, 49, 90
19, 165839, Note_on_c, 13, 49, 0
19, 165900, Note_on_c, 13, 45, 90
19, 165959, Note_on_c, 13, 45, 0
19, 166020, Note_on_c, 13, 42, 90
19, 166079, Note_on_c, 13, 42, 0
19, 166080, Note_on_c, 13, 47, 90
19, 166139, Note_on_c, 13, 47, 0
19, 166140, Note_on_c, 13, 43, 90
19, 166199, Note_on_c, 13, 43, 0
19, 166200, Note_on_c, 13, 45, 90
19, 166259, Note_on_c, 13, 45, 0
19, 166260, Note_on_c, 13, 47, 90
19, 166319, Note_on_c, 13, 47, 0
19, 166320, Note_on_c, 13, 47, 90
19, 166379, Note_on_c, 13, 47, 0
19, 166380, Note_on_c, 13, 47, 90
19, 166439, Note_on_c, 13, 47, 0
19, 166440, Note_on_c, 13, 45, 90
19, 166499, Note_on_c, 13, 45, 0
19, 166500, Note_on_c, 13, 44, 90
19, 166559, Note_on_c, 13, 44, 0
19, 166620, Note_on_c, 13, 47, 90
19, 166679, Note_on_c, 13, 47, 0
19, 166740, Note_on_c, 13, 52, 90
19, 166799, Note_on_c, 13, 52, 0
19, 166860, Note_on_c, 13, 55, 90
19, 166919, Note_on_c, 13, 55, 0
19, 167040, Note_on_c, 13, 42, 90
19, 167099, Note_on_c, 13, 42, 0
19, 167100, Note_on_c, 13, 43, 90
19, 167159, Note_on_c, 13, 43, 0
19, 167160, Note_on_c, 13, 45, 90
19, 167219, Note_on_c, 13, 45, 0
19, 167220, Note_on_c, 13, 38, 90
19, 167279, Note_on_c, 13, 38, 0
19, 167280, Note_on_c, 13, 62, 90
19, 167339, Note_on_c, 13, 62, 0
19, 167340, Note_on_c, 13, 61, 90
19, 167399, Note_on_c, 13, 61, 0
19, 167400, Note_on_c, 13, 59, 90
19, 167459, Note_on_c, 13, 59, 0
19, 167460, Note_on_c, 13, 57, 90
19, 167519, Note_on_c, 13, 57, 0
19, 167520, Note_on_c, 13, 45, 90
19, 167579, Note_on_c, 13, 45, 0
19, 167580, Note_on_c, 13, 45, 90
19, 167639, Note_on_c, 13, 45, 0
19, 167640, Note_on_c, 13, 57, 90
19, 167699, Note_on_c, 13, 57, 0
19, 167700, Note_on_c, 13, 57, 90
19, 167759, Note_on_c, 13, 57, 0
19, 167760, Note_on_c, 13, 45, 90
19, 167819, Note_on_c, 13, 45, 0
19, 167820, Note_on_c, 13, 45, 90
19, 167879, Note_on_c, 13, 45, 0
19, 167880, Note_on_c, 13, 43, 90
19, 167939, Note_on_c, 13, 43, 0
19, 167940, Note_on_c, 13, 42, 90
19, 167999, Note_on_c, 13, 42, 0
19, 168000, Note_on_c, 13, 47, 90
19, 168059, Note_on_c, 13, 47, 0
19, 168060, Note_on_c, 13, 40, 90
19, 168119, Note_on_c, 13, 40, 0
19, 168120, Note_on_c, 13, 45, 90
19, 168179, Note_on_c, 13, 45, 0
19, 168180, Note_on_c, 13, 38, 90
19, 168239, Note_on_c, 13, 38, 0
19, 168240, Note_on_c, 13, 50, 90
19, 168299, Note_on_c, 13, 50, 0
19, 168300, Note_on_c, 13, 54, 90
19, 168359, Note_on_c, 13, 54, 0
19, 168360, Note_on_c, 13, 57, 90
19, 168419, Note_on_c, 13, 57, 0
19, 168420, Note_on_c, 13, 60, 90
19, 168479, Note_on_c, 13, 60, 0
19, 168480, Note_on_c, 13, 57, 90
19, 168539, Note_on_c, 13, 57, 0
19, 168540, Note_on_c, 13, 54, 90
19, 168599, Note_on_c, 13, 54, 0
19, 168600, Note_on_c, 13, 50, 90
19, 168659, Note_on_c, 13, 50, 0
19, 168660, Note_on_c, 13, 45, 90
19, 168719, Note_on_c, 13, 45, 0
19, 168720, Note_on_c, 13, 42, 90
19, 168779, Note_on_c, 13, 42, 0
19, 168780, Note_on_c, 13, 38, 90
19, 168839, Note_on_c, 13, 38, 0
19, 168840, Note_on_c, 13, 50, 90
19, 168899, Note_on_c, 13, 50, 0
19, 168900, Note_on_c, 13, 52, 90
19, 168959, Note_on_c, 13, 52, 0
19, 168960, Note_on_c, 13, 47, 90
19, 169019, Note_on_c, 13, 47, 0
19, 169020, Note_on_c, 13, 48, 90
19, 169079, Note_on_c, 13, 48, 0
19, 169080, Note_on_c, 13, 50, 90
19, 169139, Note_on_c, 13, 50, 0
19, 169140, Note_on_c, 13, 55, 90
19, 169199, Note_on_c, 13, 55, 0
19, 169200, Note_on_c, 13, 57, 90
19, 169259, Note_on_c, 13, 57, 0
19, 169260, Note_on_c, 13, 59, 90
19, 169319, Note_on_c, 13, 59, 0
19, 169320, Note_on_c, 13, 64, 90
19, 169379, Note_on_c, 13, 64, 0
19, 169380, Note_on_c, 13, 54, 90
19, 169439, Note_on_c, 13, 54, 0
19, 169440, Note_on_c, 13, 64, 90
19, 169499, Note_on_c, 13, 64, 0
19, 169500, Note_on_c, 13, 63, 90
19, 169559, Note_on_c, 13, 63, 0
19, 169560, Note_on_c, 13, 59, 90
19, 169619, Note_on_c, 13, 59, 0
19, 169620, Note_on_c, 13, 52, 90
19, 169679, Note_on_c, 13, 52, 0
19, 169680, Note_on_c, 13, 62, 90
19, 169739, Note_on_c, 13, 62, 0
19, 169740, Note_on_c, 13, 61, 90
19, 169799, Note_on_c, 13, 61, 0
19, 169800, Note_on_c, 13, 57, 90
19, 169859, Note_on_c, 13, 57, 0
19, 169860, Note_on_c, 13, 50, 90
19, 169919, Note_on_c, 13, 50, 0
19, 169920, Note_on_c, 13, 54, 90
19, 169979, Note_on_c, 13, 54, 0
19, 169980, Note_on_c, 13, 55, 90
19, 170039, Note_on_c, 13, 55, 0
19, 170040, Note_on_c, 13, 52, 90
19, 170099, Note_on_c, 13, 52, 0
19, 170100, Note_on_c, 13, 57, 90
19, 170159, Note_on_c, 13, 57, 0
19, 170160, Note_on_c, 13, 55, 90
19, 170219, Note_on_c, 13, 55, 0
19, 170220, Note_on_c, 13, 54, 90
19, 170279, Note_on_c, 13, 54, 0
19, 170280, Note_on_c, 13, 52, 90
19, 170339, Note_on_c, 13, 52, 0
19, 170340, Note_on_c, 13, 50, 90
19, 170399, Note_on_c, 13, 50, 0
19, 170400, Note_on_c, 13, 42, 90
19, 170459, Note_on_c, 13, 42, 0
19, 170460, Note_on_c, 13, 43, 90
19, 170519, Note_on_c, 13, 43, 0
19, 170520, Note_on_c, 13, 45, 90
19, 170579, Note_on_c, 13, 45, 0
19, 170580, Note_on_c, 13, 38, 90
19, 170819, Note_on_c, 13, 38, 0
19, 170820, Note_on_c, 13, 47, 90
19, 170879, Note_on_c, 13, 47, 0
19, 170880, Note_on_c, 13, 59, 90
19, 170939, Note_on_c, 13, 59, 0
19, 170940, Note_on_c, 13, 59, 90
19, 170999, Note_on_c, 13, 59, 0
19, 171000, Note_on_c, 13, 47, 90
19, 171059, Note_on_c, 13, 47, 0
19, 171060, Note_on_c, 13, 47, 90
19, 171119, Note_on_c, 13, 47, 0
19, 171120, Note_on_c, 13, 59, 90
19, 171179, Note_on_c, 13, 59, 0
19, 171180, Note_on_c, 13, 57, 90
19, 171239, Note_on_c, 13, 57, 0
19, 171240, Note_on_c, 13, 45, 90
19, 171299, Note_on_c, 13, 45, 0
19, 171300, Note_on_c, 13, 43, 90
19, 171359, Note_on_c, 13, 43, 0
19, 171360, Note_on_c, 13, 48, 90
19, 171419, Note_on_c, 13, 48, 0
19, 171420, Note_on_c, 13, 45, 90
19, 171479, Note_on_c, 13, 45, 0
19, 171480, Note_on_c, 13, 47, 90
19, 171539, Note_on_c, 13, 47, 0
19, 171540, Note_on_c, 13, 52, 90
19, 171599, Note_on_c, 13, 52, 0
19, 171600, Note_on_c, 13, 40, 90
19, 171659, Note_on_c, 13, 40, 0
19, 171660, Note_on_c, 13, 42, 90
19, 171719, Note_on_c, 13, 42, 0
19, 171720, Note_on_c, 13, 43, 90
19, 171779, Note_on_c, 13, 43, 0
19, 171780, Note_on_c, 13, 45, 90
19, 171839, Note_on_c, 13, 45, 0
19, 171840, Note_on_c, 13, 57, 90
19, 171899, Note_on_c, 13, 57, 0
19, 171900, Note_on_c, 13, 57, 90
19, 171959, Note_on_c, 13, 57, 0
19, 171960, Note_on_c, 13, 45, 90
19, 172019, Note_on_c, 13, 45, 0
19, 172020, Note_on_c, 13, 45, 90
19, 172079, Note_on_c, 13, 45, 0
19, 172080, Note_on_c, 13, 57, 90
19, 172139, Note_on_c, 13, 57, 0
19, 172140, Note_on_c, 13, 55, 90
19, 172199, Note_on_c, 13, 55, 0
19, 172200, Note_on_c, 13, 43, 90
19, 172259, Note_on_c, 13, 43, 0
19, 172260, Note_on_c, 13, 42, 90
19, 172319, Note_on_c, 13, 42, 0
19, 172320, Note_on_c, 13, 47, 90
19, 172379, Note_on_c, 13, 47, 0
19, 172380, Note_on_c, 13, 43, 90
19, 172439, Note_on_c, 13, 43, 0
19, 172440, Note_on_c, 13, 45, 90
19, 172499, Note_on_c, 13, 45, 0
19, 172500, Note_on_c, 13, 50, 90
19, 172559, Note_on_c, 13, 50, 0
19, 172560, Note_on_c, 13, 49, 90
19, 172619, Note_on_c, 13, 49, 0
19, 172620, Note_on_c, 13, 50, 90
19, 172679, Note_on_c, 13, 50, 0
19, 172680, Note_on_c, 13, 52, 90
19, 172739, Note_on_c, 13, 52, 0
19, 172740, Note_on_c, 13, 54, 90
19, 172799, Note_on_c, 13, 54, 0
19, 172800, Note_on_c, 13, 42, 90
19, 172859, Note_on_c, 13, 42, 0
19, 172860, Note_on_c, 13, 54, 90
19, 172919, Note_on_c, 13, 54, 0
19, 172920, Note_on_c, 13, 52, 90
19, 172979, Note_on_c, 13, 52, 0
19, 172980, Note_on_c, 13, 50, 90
19, 173039, Note_on_c, 13, 50, 0
19, 173100, Note_on_c, 13, 47, 90
19, 173159, Note_on_c, 13, 47, 0
19, 173220, Note_on_c, 13, 46, 90
19, 173279, Note_on_c, 13, 46, 0
19, 173280, Note_on_c, 13, 61, 90
19, 173339, Note_on_c, 13, 61, 0
19, 173340, Note_on_c, 13, 58, 90
19, 173399, Note_on_c, 13, 58, 0
19, 173400, Note_on_c, 13, 54, 90
19, 173459, Note_on_c, 13, 54, 0
19, 173460, Note_on_c, 13, 59, 90
19, 173519, Note_on_c, 13, 59, 0
19, 173580, Note_on_c, 13, 47, 90
19, 173639, Note_on_c, 13, 47, 0
19, 173700, Note_on_c, 13, 50, 90
19, 173759, Note_on_c, 13, 50, 0
19, 173820, Note_on_c, 13, 44, 90
19, 173879, Note_on_c, 13, 44, 0
19, 173940, Note_on_c, 13, 49, 90
19, 173999, Note_on_c, 13, 49, 0
19, 174000, Note_on_c, 13, 47, 90
19, 174059, Note_on_c, 13, 47, 0
19, 174060, Note_on_c, 13, 45, 90
19, 174119, Note_on_c, 13, 45, 0
19, 174120, Note_on_c, 13, 47, 90
19, 174179, Note_on_c, 13, 47, 0
19, 174180, Note_on_c, 13, 49, 90
19, 174239, Note_on_c, 13, 49, 0
19, 174240, Note_on_c, 13, 47, 90
19, 174299, Note_on_c, 13, 47, 0
19, 174300, Note_on_c, 13, 49, 90
19, 174359, Note_on_c, 13, 49, 0
19, 174360, Note_on_c, 13, 49, 90
19, 174419, Note_on_c, 13, 49, 0
19, 174420, Note_on_c, 13, 42, 90
19, 174479, Note_on_c, 13, 42, 0
19, 174480, Note_on_c, 13, 44, 90
19, 174539, Note_on_c, 13, 44, 0
19, 174540, Note_on_c, 13, 45, 90
19, 174599, Note_on_c, 13, 45, 0
19, 174600, Note_on_c, 13, 42, 90
19, 174659, Note_on_c, 13, 42, 0
19, 174660, Note_on_c, 13, 47, 90
19, 174719, Note_on_c, 13, 47, 0
19, 174720, Note_on_c, 13, 50, 90
19, 174779, Note_on_c, 13, 50, 0
19, 174780, Note_on_c, 13, 54, 90
19, 174839, Note_on_c, 13, 54, 0
19, 174840, Note_on_c, 13, 47, 90
19, 174899, Note_on_c, 13, 47, 0
19, 174900, Note_on_c, 13, 45, 90
19, 174959, Note_on_c, 13, 45, 0
19, 174960, Note_on_c, 13, 49, 90
19, 175019, Note_on_c, 13, 49, 0
19, 175020, Note_on_c, 13, 54, 90
19, 175079, Note_on_c, 13, 54, 0
19, 175080, Note_on_c, 13, 52, 90
19, 175139, Note_on_c, 13, 52, 0
19, 175140, Note_on_c, 13, 50, 90
19, 175199, Note_on_c, 13, 50, 0
19, 175200, Note_on_c, 13, 54, 90
19, 175259, Note_on_c, 13, 54, 0
19, 175260, Note_on_c, 13, 59, 90
19, 175319, Note_on_c, 13, 59, 0
19, 175320, Note_on_c, 13, 50, 90
19, 175379, Note_on_c, 13, 50, 0
19, 175380, Note_on_c, 13, 49, 90
19, 175439, Note_on_c, 13, 49, 0
19, 175440, Note_on_c, 13, 54, 90
19, 175499, Note_on_c, 13, 54, 0
19, 175500, Note_on_c, 13, 57, 90
19, 175559, Note_on_c, 13, 57, 0
19, 175560, Note_on_c, 13, 49, 90
19, 175619, Note_on_c, 13, 49, 0
19, 175620, Note_on_c, 13, 47, 90
19, 175679, Note_on_c, 13, 47, 0
19, 175740, Note_on_c, 13, 49, 90
19, 175799, Note_on_c, 13, 49, 0
19, 175860, Note_on_c, 13, 50, 90
19, 175919, Note_on_c, 13, 50, 0
19, 175980, Note_on_c, 13, 41, 90
19, 176039, Note_on_c, 13, 41, 0
19, 176100, Note_on_c, 13, 42, 90
19, 176159, Note_on_c, 13, 42, 0
19, 176160, Note_on_c, 13, 45, 90
19, 176219, Note_on_c, 13, 45, 0
19, 176220, Note_on_c, 13, 49, 90
19, 176279, Note_on_c, 13, 49, 0
19, 176280, Note_on_c, 13, 37, 90
19, 176339, Note_on_c, 13, 37, 0
19, 176340, Note_on_c, 13, 42, 90
19, 176399, Note_on_c, 13, 42, 0
19, 176400, Note_on_c, 13, 54, 90
19, 176459, Note_on_c, 13, 54, 0
19, 176460, Note_on_c, 13, 57, 90
19, 176519, Note_on_c, 13, 57, 0
19, 176520, Note_on_c, 13, 61, 90
19, 176579, Note_on_c, 13, 61, 0
19, 176580, Note_on_c, 13, 54, 90
19, 176639, Note_on_c, 13, 54, 0
19, 176640, Note_on_c, 13, 42, 90
19, 176699, Note_on_c, 13, 42, 0
19, 176700, Note_on_c, 13, 42, 90
19, 176759, Note_on_c, 13, 42, 0
19, 176760, Note_on_c, 13, 54, 90
19, 176819, Note_on_c, 13, 54, 0
19, 176820, Note_on_c, 13, 52, 90
19, 176879, Note_on_c, 13, 52, 0
19, 176880, Note_on_c, 13, 40, 90
19, 176939, Note_on_c, 13, 40, 0
19, 176940, Note_on_c, 13, 40, 90
19, 176999, Note_on_c, 13, 40, 0
19, 177000, Note_on_c, 13, 52, 90
19, 177059, Note_on_c, 13, 52, 0
19, 177060, Note_on_c, 13, 50, 90
19, 177119, Note_on_c, 13, 50, 0
19, 177120, Note_on_c, 13, 38, 90
19, 177179, Note_on_c, 13, 38, 0
19, 177180, Note_on_c, 13, 40, 90
19, 177239, Note_on_c, 13, 40, 0
19, 177240, Note_on_c, 13, 42, 90
19, 177299, Note_on_c, 13, 42, 0
19, 177300, Note_on_c, 13, 47, 90
19, 177329, Note_on_c, 13, 47, 0
19, 177330, Note_on_c, 13, 46, 90
19, 177359, Note_on_c, 13, 46, 0
19, 177360, Note_on_c, 13, 47, 90
19, 177389, Note_on_c, 13, 47, 0
19, 177390, Note_on_c, 13, 49, 90
19, 177419, Note_on_c, 13, 49, 0
19, 177420, Note_on_c, 13, 50, 90
19, 177449, Note_on_c, 13, 50, 0
19, 177450, Note_on_c, 13, 49, 90
19, 177479, Note_on_c, 13, 49, 0
19, 177480, Note_on_c, 13, 50, 90
19, 177509, Note_on_c, 13, 50, 0
19, 177510, Note_on_c, 13, 47, 90
19, 177539, Note_on_c, 13, 47, 0
19, 177540, Note_on_c, 13, 52, 90
19, 177599, Note_on_c, 13, 52, 0
19, 177600, Note_on_c, 13, 40, 90
19, 177659, Note_on_c, 13, 40, 0
19, 177660, Note_on_c, 13, 40, 90
19, 177719, Note_on_c, 13, 40, 0
19, 177720, Note_on_c, 13, 52, 90
19, 177779, Note_on_c, 13, 52, 0
19, 177780, Note_on_c, 13, 50, 90
19, 177839, Note_on_c, 13, 50, 0
19, 177840, Note_on_c, 13, 38, 90
19, 177899, Note_on_c, 13, 38, 0
19, 177900, Note_on_c, 13, 38, 90
19, 177959, Note_on_c, 13, 38, 0
19, 177960, Note_on_c, 13, 50, 90
19, 178019, Note_on_c, 13, 50, 0
19, 178020, Note_on_c, 13, 49, 90
19, 178079, Note_on_c, 13, 49, 0
19, 178080, Note_on_c, 13, 37, 90
19, 178139, Note_on_c, 13, 37, 0
19, 178140, Note_on_c, 13, 38, 90
19, 178199, Note_on_c, 13, 38, 0
19, 178200, Note_on_c, 13, 40, 90
19, 178259, Note_on_c, 13, 40, 0
19, 178260, Note_on_c, 13, 45, 90
19, 178289, Note_on_c, 13, 45, 0
19, 178290, Note_on_c, 13, 44, 90
19, 178319, Note_on_c, 13, 44, 0
19, 178320, Note_on_c, 13, 45, 90
19, 178349, Note_on_c, 13, 45, 0
19, 178350, Note_on_c, 13, 47, 90
19, 178379, Note_on_c, 13, 47, 0
19, 178380, Note_on_c, 13, 49, 90
19, 178409, Note_on_c, 13, 49, 0
19, 178410, Note_on_c, 13, 47, 90
19, 178439, Note_on_c, 13, 47, 0
19, 178440, Note_on_c, 13, 49, 90
19, 178469, Note_on_c, 13, 49, 0
19, 178470, Note_on_c, 13, 45, 90
19, 178499, Note_on_c, 13, 45, 0
19, 178500, Note_on_c, 13, 50, 90
19, 178559, Note_on_c, 13, 50, 0
19, 178560, Note_on_c, 13, 49, 90
19, 178619, Note_on_c, 13, 49, 0
19, 178620, Note_on_c, 13, 47, 90
19, 178679, Note_on_c, 13, 47, 0
19, 178680, Note_on_c, 13, 45, 90
19, 178739, Note_on_c, 13, 45, 0
19, 178740, Note_on_c, 13, 44, 90
19, 178799, Note_on_c, 13, 44, 0
19, 178800, Note_on_c, 13, 40, 90
19, 178859, Note_on_c, 13, 40, 0
19, 178860, Note_on_c, 13, 45, 90
19, 178919, Note_on_c, 13, 45, 0
19, 178920, Note_on_c, 13, 47, 90
19, 178979, Note_on_c, 13, 47, 0
19, 178980, Note_on_c, 13, 49, 90
19, 179039, Note_on_c, 13, 49, 0
19, 179040, Note_on_c, 13, 45, 90
19, 179099, Note_on_c, 13, 45, 0
19, 179100, Note_on_c, 13, 50, 90
19, 179159, Note_on_c, 13, 50, 0
19, 179160, Note_on_c, 13, 47, 90
19, 179219, Note_on_c, 13, 47, 0
19, 179220, Note_on_c, 13, 52, 90
19, 179279, Note_on_c, 13, 52, 0
19, 179280, Note_on_c, 13, 54, 90
19, 179339, Note_on_c, 13, 54, 0
19, 179340, Note_on_c, 13, 56, 90
19, 179399, Note_on_c, 13, 56, 0
19, 179400, Note_on_c, 13, 52, 90
19, 179459, Note_on_c, 13, 52, 0
19, 179460, Note_on_c, 13, 57, 90
19, 179519, Note_on_c, 13, 57, 0
19, 179580, Note_on_c, 13, 45, 90
19, 179639, Note_on_c, 13, 45, 0
19, 179700, Note_on_c, 13, 50, 90
19, 179759, Note_on_c, 13, 50, 0
19, 179880, Note_on_c, 13, 51, 90
19, 179939, Note_on_c, 13, 51, 0
19, 179940, Note_on_c, 13, 52, 90
19, 179999, Note_on_c, 13, 52, 0
19, 180000, Note_on_c, 13, 50, 90
19, 180059, Note_on_c, 13, 50, 0
19, 180060, Note_on_c, 13, 52, 90
19, 180119, Note_on_c, 13, 52, 0
19, 180120, Note_on_c, 13, 40, 90
19, 180179, Note_on_c, 13, 40, 0
19, 180180, Note_on_c, 13, 45, 90
19, 180419, Note_on_c, 13, 45, 0
19, 180420, Note_on_c, 13, 50, 90
19, 180479, Note_on_c, 13, 50, 0
19, 180480, Note_on_c, 13, 38, 90
19, 180539, Note_on_c, 13, 38, 0
19, 180540, Note_on_c, 13, 38, 90
19, 180599, Note_on_c, 13, 38, 0
19, 180600, Note_on_c, 13, 50, 90
19, 180659, Note_on_c, 13, 50, 0
19, 180660, Note_on_c, 13, 50, 90
19, 180719, Note_on_c, 13, 50, 0
19, 180720, Note_on_c, 13, 38, 90
19, 180779, Note_on_c, 13, 38, 0
19, 180780, Note_on_c, 13, 38, 90
19, 180839, Note_on_c, 13, 38, 0
19, 180840, Note_on_c, 13, 50, 90
19, 180869, Note_on_c, 13, 50, 0
19, 180870, Note_on_c, 13, 52, 90
19, 180899, Note_on_c, 13, 52, 0
19, 180900, Note_on_c, 13, 54, 90
19, 180959, Note_on_c, 13, 54, 0
19, 180960, Note_on_c, 13, 50, 90
19, 181019, Note_on_c, 13, 50, 0
19, 181020, Note_on_c, 13, 57, 90
19, 181079, Note_on_c, 13, 57, 0
19, 181080, Note_on_c, 13, 45, 90
19, 181139, Note_on_c, 13, 45, 0
19, 181140, Note_on_c, 13, 50, 90
19, 181199, Note_on_c, 13, 50, 0
19, 181200, Note_on_c, 13, 42, 90
19, 181259, Note_on_c, 13, 42, 0
19, 181260, Note_on_c, 13, 43, 90
19, 181319, Note_on_c, 13, 43, 0
19, 181320, Note_on_c, 13, 45, 90
19, 181379, Note_on_c, 13, 45, 0
19, 181380, Note_on_c, 13, 50, 90
19, 181439, Note_on_c, 13, 50, 0
19, 181440, Note_on_c, 13, 38, 90
19, 181499, Note_on_c, 13, 38, 0
19, 181500, Note_on_c, 13, 38, 90
19, 181559, Note_on_c, 13, 38, 0
19, 181560, Note_on_c, 13, 50, 90
19, 181619, Note_on_c, 13, 50, 0
19, 181620, Note_on_c, 13, 50, 90
19, 181679, Note_on_c, 13, 50, 0
19, 181680, Note_on_c, 13, 38, 90
19, 181739, Note_on_c, 13, 38, 0
19, 181740, Note_on_c, 13, 38, 90
19, 181799, Note_on_c, 13, 38, 0
19, 181800, Note_on_c, 13, 50, 90
19, 181829, Note_on_c, 13, 50, 0
19, 181830, Note_on_c, 13, 49, 90
19, 181859, Note_on_c, 13, 49, 0
19, 181860, Note_on_c, 13, 47, 90
19, 181919, Note_on_c, 13, 47, 0
19, 181920, Note_on_c, 13, 42, 90
19, 181979, Note_on_c, 13, 42, 0
19, 181980, Note_on_c, 13, 43, 90
19, 182039, Note_on_c, 13, 43, 0
19, 182040, Note_on_c, 13, 45, 90
19, 182099, Note_on_c, 13, 45, 0
19, 182100, Note_on_c, 13, 50, 90
19, 182159, Note_on_c, 13, 50, 0
19, 182160, Note_on_c, 13, 38, 90
19, 182219, Note_on_c, 13, 38, 0
19, 182220, Note_on_c, 13, 38, 90
19, 182279, Note_on_c, 13, 38, 0
19, 182280, Note_on_c, 13, 54, 90
19, 182339, Note_on_c, 13, 54, 0
19, 182340, Note_on_c, 13, 55, 90
19, 182399, Note_on_c, 13, 55, 0
19, 182400, Note_on_c, 13, 59, 90
19, 182459, Note_on_c, 13, 59, 0
19, 182460, Note_on_c, 13, 62, 90
19, 182519, Note_on_c, 13, 62, 0
19, 182520, Note_on_c, 13, 55, 90
19, 182579, Note_on_c, 13, 55, 0
19, 182580, Note_on_c, 13, 54, 90
19, 182639, Note_on_c, 13, 54, 0
19, 182640, Note_on_c, 13, 57, 90
19, 182699, Note_on_c, 13, 57, 0
19, 182700, Note_on_c, 13, 62, 90
19, 182759, Note_on_c, 13, 62, 0
19, 182760, Note_on_c, 13, 54, 90
19, 182819, Note_on_c, 13, 54, 0
19, 182820, Note_on_c, 13, 52, 90
19, 182879, Note_on_c, 13, 52, 0
19, 182880, Note_on_c, 13, 61, 90
19, 182939, Note_on_c, 13, 61, 0
19, 182940, Note_on_c, 13, 50, 90
19, 182999, Note_on_c, 13, 50, 0
19, 183000, Note_on_c, 13, 62, 90
19, 183059, Note_on_c, 13, 62, 0
19, 183060, Note_on_c, 13, 57, 90
19, 183119, Note_on_c, 13, 57, 0
19, 183120, Note_on_c, 13, 55, 90
19, 183179, Note_on_c, 13, 55, 0
19, 183180, Note_on_c, 13, 54, 90
19, 183239, Note_on_c, 13, 54, 0
19, 183240, Note_on_c, 13, 52, 90
19, 183299, Note_on_c, 13, 52, 0
19, 183300, Note_on_c, 13, 50, 90
19, 183359, Note_on_c, 13, 50, 0
19, 183360, Note_on_c, 13, 42, 90
19, 183419, Note_on_c, 13, 42, 0
19, 183420, Note_on_c, 13, 40, 90
19, 183479, Note_on_c, 13, 40, 0
19, 183480, Note_on_c, 13, 38, 90
19, 183539, Note_on_c, 13, 38, 0
19, 183540, Note_on_c, 13, 45, 90
19, 183599, Note_on_c, 13, 45, 0
19, 183600, Note_on_c, 13, 57, 90
19, 183629, Note_on_c, 13, 57, 0
19, 183630, Note_on_c, 13, 59, 90
19, 183659, Note_on_c, 13, 59, 0
19, 183660, Note_on_c, 13, 57, 90
19, 183689, Note_on_c, 13, 57, 0
19, 183690, Note_on_c, 13, 55, 90
19, 183719, Note_on_c, 13, 55, 0
19, 183720, Note_on_c, 13, 54, 90
19, 183749, Note_on_c, 13, 54, 0
19, 183750, Note_on_c, 13, 52, 90
19, 183779, Note_on_c, 13, 52, 0
19, 183780, Note_on_c, 13, 50, 90
19, 183839, Note_on_c, 13, 50, 0
19, 183840, Note_on_c, 13, 38, 90
19, 183959, Note_on_c, 13, 38, 0
19, 183960, Note_on_c, 13, 50, 90
19, 184079, Note_on_c, 13, 50, 0
19, 184080, Note_on_c, 13, 38, 90
19, 184199, Note_on_c, 13, 38, 0
19, 184200, Note_on_c, 13, 49, 90
19, 184259, Note_on_c, 13, 49, 0
19, 184260, Note_on_c, 13, 47, 90
19, 184319, Note_on_c, 13, 47, 0
19, 184320, Note_on_c, 13, 54, 90
19, 184349, Note_on_c, 13, 54, 0
19, 184350, Note_on_c, 13, 55, 90
19, 184379, Note_on_c, 13, 55, 0
19, 184380, Note_on_c, 13, 57, 90
19, 184439, Note_on_c, 13, 57, 0
19, 184440, Note_on_c, 13, 45, 90
19, 184499, Note_on_c, 13, 45, 0
19, 184500, Note_on_c, 13, 50, 90
19, 184559, Note_on_c, 13, 50, 0
19, 184560, Note_on_c, 13, 45, 90
19, 184619, Note_on_c, 13, 45, 0
19, 184620, Note_on_c, 13, 42, 90
19, 184679, Note_on_c, 13, 42, 0
19, 184680, Note_on_c, 13, 45, 90
19, 184739, Note_on_c, 13, 45, 0
19, 184740, Note_on_c, 13, 50, 90
19, 184799, Note_on_c, 13, 50, 0
19, 184800, Note_on_c, 13, 38, 90
19, 184919, Note_on_c, 13, 38, 0
19, 184920, Note_on_c, 13, 50, 90
19, 185039, Note_on_c, 13, 50, 0
19, 185040, Note_on_c, 13, 38, 90
19, 185159, Note_on_c, 13, 38, 0
19, 185160, Note_on_c, 13, 49, 90
19, 185219, Note_on_c, 13, 49, 0
19, 185220, Note_on_c, 13, 47, 90
19, 185279, Note_on_c, 13, 47, 0
19, 185280, Note_on_c, 13, 54, 90
19, 185309, Note_on_c, 13, 54, 0
19, 185310, Note_on_c, 13, 55, 90
19, 185339, Note_on_c, 13, 55, 0
19, 185340, Note_on_c, 13, 57, 90
19, 185399, Note_on_c, 13, 57, 0
19, 185400, Note_on_c, 13, 45, 90
19, 185459, Note_on_c, 13, 45, 0
19, 185460, Note_on_c, 13, 50, 90
19, 185519, Note_on_c, 13, 50, 0
19, 185520, Note_on_c, 13, 45, 90
19, 185579, Note_on_c, 13, 45, 0
19, 185580, Note_on_c, 13, 42, 90
19, 185639, Note_on_c, 13, 42, 0
19, 185640, Note_on_c, 13, 38, 90
19, 185699, Note_on_c, 13, 38, 0
19, 185700, Note_on_c, 13, 43, 90
19, 185759, Note_on_c, 13, 43, 0
19, 185760, Note_on_c, 13, 47, 90
19, 185819, Note_on_c, 13, 47, 0
19, 185820, Note_on_c, 13, 50, 90
19, 185879, Note_on_c, 13, 50, 0
19, 185880, Note_on_c, 13, 43, 90
19, 185939, Note_on_c, 13, 43, 0
19, 185940, Note_on_c, 13, 42, 90
19, 185999, Note_on_c, 13, 42, 0
19, 186000, Note_on_c, 13, 45, 90
19, 186059, Note_on_c, 13, 45, 0
19, 186060, Note_on_c, 13, 50, 90
19, 186119, Note_on_c, 13, 50, 0
19, 186120, Note_on_c, 13, 42, 90
19, 186179, Note_on_c, 13, 42, 0
19, 186180, Note_on_c, 13, 40, 90
19, 186239, Note_on_c, 13, 40, 0
19, 186240, Note_on_c, 13, 49, 90
19, 186299, Note_on_c, 13, 49, 0
19, 186300, Note_on_c, 13, 38, 90
19, 186359, Note_on_c, 13, 38, 0
19, 186360, Note_on_c, 13, 50, 90
19, 186419, Note_on_c, 13, 50, 0
19, 186420, Note_on_c, 13, 45, 90
19, 186479, Note_on_c, 13, 45, 0
19, 186480, Note_on_c, 13, 43, 90
19, 186539, Note_on_c, 13, 43, 0
19, 186540, Note_on_c, 13, 42, 90
19, 186599, Note_on_c, 13, 42, 0
19, 186600, Note_on_c, 13, 40, 90
19, 186659, Note_on_c, 13, 40, 0
19, 186660, Note_on_c, 13, 38, 90
19, 186719, Note_on_c, 13, 38, 0
19, 186720, Note_on_c, 13, 50, 90
19, 186779, Note_on_c, 13, 50, 0
19, 186780, Note_on_c, 13, 49, 90
19, 186839, Note_on_c, 13, 49, 0
19, 186840, Note_on_c, 13, 50, 90
19, 186899, Note_on_c, 13, 50, 0
19, 186900, Note_on_c, 13, 45, 90
19, 186959, Note_on_c, 13, 45, 0
19, 186960, Note_on_c, 13, 47, 90
19, 187019, Note_on_c, 13, 47, 0
19, 187020, Note_on_c, 13, 49, 90
19, 187079, Note_on_c, 13, 49, 0
19, 187080, Note_on_c, 13, 50, 90
19, 187139, Note_on_c, 13, 50, 0
19, 187140, Note_on_c, 13, 49, 90
19, 187199, Note_on_c, 13, 49, 0
19, 187200, Note_on_c, 13, 45, 90
19, 187259, Note_on_c, 13, 45, 0
19, 187260, Note_on_c, 13, 49, 90
19, 187319, Note_on_c, 13, 49, 0
19, 187320, Note_on_c, 13, 52, 90
19, 187379, Note_on_c, 13, 52, 0
19, 187380, Note_on_c, 13, 57, 90
19, 187439, Note_on_c, 13, 57, 0
19, 187440, Note_on_c, 13, 55, 90
19, 187469, Note_on_c, 13, 55, 0
19, 187470, Note_on_c, 13, 54, 90
19, 187499, Note_on_c, 13, 54, 0
19, 187500, Note_on_c, 13, 52, 90
19, 187559, Note_on_c, 13, 52, 0
19, 187560, Note_on_c, 13, 50, 90
19, 187619, Note_on_c, 13, 50, 0
19, 187620, Note_on_c, 13, 49, 90
19, 187679, Note_on_c, 13, 49, 0
19, 187680, Note_on_c, 13, 52, 90
19, 187739, Note_on_c, 13, 52, 0
19, 187740, Note_on_c, 13, 49, 90
19, 187799, Note_on_c, 13, 49, 0
19, 187800, Note_on_c, 13, 45, 90
19, 187859, Note_on_c, 13, 45, 0
19, 187860, Note_on_c, 13, 50, 90
19, 187919, Note_on_c, 13, 50, 0
19, 187920, Note_on_c, 13, 52, 90
19, 187979, Note_on_c, 13, 52, 0
19, 187980, Note_on_c, 13, 54, 90
19, 188039, Note_on_c, 13, 54, 0
19, 188040, Note_on_c, 13, 55, 90
19, 188099, Note_on_c, 13, 55, 0
19, 188100, Note_on_c, 13, 54, 90
19, 188159, Note_on_c, 13, 54, 0
19, 188160, Note_on_c, 13, 57, 90
19, 188189, Note_on_c, 13, 57, 0
19, 188190, Note_on_c, 13, 55, 90
19, 188219, Note_on_c, 13, 55, 0
19, 188220, Note_on_c, 13, 54, 90
19, 188279, Note_on_c, 13, 54, 0
19, 188280, Note_on_c, 13, 52, 90
19, 188339, Note_on_c, 13, 52, 0
19, 188340, Note_on_c, 13, 50, 90
19, 188399, Note_on_c, 13, 50, 0
19, 188400, Note_on_c, 13, 38, 90
19, 188459, Note_on_c, 13, 38, 0
19, 188460, Note_on_c, 13, 50, 90
19, 188519, Note_on_c, 13, 50, 0
19, 188520, Note_on_c, 13, 52, 90
19, 188579, Note_on_c, 13, 52, 0
19, 188580, Note_on_c, 13, 54, 90
19, 188639, Note_on_c, 13, 54, 0
19, 188640, Note_on_c, 13, 57, 90
19, 188699, Note_on_c, 13, 57, 0
19, 188700, Note_on_c, 13, 54, 90
19, 188759, Note_on_c, 13, 54, 0
19, 188760, Note_on_c, 13, 50, 90
19, 188819, Note_on_c, 13, 50, 0
19, 188820, Note_on_c, 13, 55, 90
19, 188879, Note_on_c, 13, 55, 0
19, 188880, Note_on_c, 13, 43, 90
19, 188939, Note_on_c, 13, 43, 0
19, 188940, Note_on_c, 13, 55, 90
19, 188969, Note_on_c, 13, 55, 0
19, 188970, Note_on_c, 13, 54, 90
19, 188999, Note_on_c, 13, 54, 0
19, 189000, Note_on_c, 13, 52, 90
19, 189029, Note_on_c, 13, 52, 0
19, 189030, Note_on_c, 13, 50, 90
19, 189059, Note_on_c, 13, 50, 0
19, 189060, Note_on_c, 13, 49, 90
19, 189119, Note_on_c, 13, 49, 0
19, 189120, Note_on_c, 13, 49, 90
19, 189179, Note_on_c, 13, 49, 0
19, 189180, Note_on_c, 13, 49, 90
19, 189239, Note_on_c, 13, 49, 0
19, 189240, Note_on_c, 13, 50, 90
19, 189269, Note_on_c, 13, 50, 0
19, 189270, Note_on_c, 13, 52, 90
19, 189299, Note_on_c, 13, 52, 0
19, 189300, Note_on_c, 13, 54, 90
19, 189359, Note_on_c, 13, 54, 0
19, 189360, Note_on_c, 13, 42, 90
19, 189419, Note_on_c, 13, 42, 0
19, 189420, Note_on_c, 13, 54, 90
19, 189449, Note_on_c, 13, 54, 0
19, 189450, Note_on_c, 13, 52, 90
19, 189479, Note_on_c, 13, 52, 0
19, 189480, Note_on_c, 13, 50, 90
19, 189509, Note_on_c, 13, 50, 0
19, 189510, Note_on_c, 13, 49, 90
19, 189539, Note_on_c, 13, 49, 0
19, 189540, Note_on_c, 13, 47, 90
19, 189599, Note_on_c, 13, 47, 0
19, 189600, Note_on_c, 13, 47, 90
19, 189659, Note_on_c, 13, 47, 0
19, 189660, Note_on_c, 13, 47, 90
19, 189719, Note_on_c, 13, 47, 0
19, 189720, Note_on_c, 13, 49, 90
19, 189749, Note_on_c, 13, 49, 0
19, 189750, Note_on_c, 13, 50, 90
19, 189779, Note_on_c, 13, 50, 0
19, 189780, Note_on_c, 13, 52, 90
19, 189839, Note_on_c, 13, 52, 0
19, 189840, Note_on_c, 13, 40, 90
19, 189899, Note_on_c, 13, 40, 0
19, 189900, Note_on_c, 13, 52, 90
19, 189929, Note_on_c, 13, 52, 0
19, 189930, Note_on_c, 13, 50, 90
19, 189959, Note_on_c, 13, 50, 0
19, 189960, Note_on_c, 13, 49, 90
19, 189989, Note_on_c, 13, 49, 0
19, 189990, Note_on_c, 13, 47, 90
19, 190019, Note_on_c, 13, 47, 0
19, 190020, Note_on_c, 13, 45, 90
19, 190079, Note_on_c, 13, 45, 0
19, 190080, Note_on_c, 13, 57, 90
19, 190139, Note_on_c, 13, 57, 0
19, 190140, Note_on_c, 13, 57, 90
19, 190199, Note_on_c, 13, 57, 0
19, 190200, Note_on_c, 13, 45, 90
19, 190259, Note_on_c, 13, 45, 0
19, 190260, Note_on_c, 13, 45, 90
19, 190319, Note_on_c, 13, 45, 0
19, 190320, Note_on_c, 13, 57, 90
19, 190379, Note_on_c, 13, 57, 0
19, 190380, Note_on_c, 13, 57, 90
19, 190439, Note_on_c, 13, 57, 0
19, 190440, Note_on_c, 13, 45, 90
19, 190499, Note_on_c, 13, 45, 0
19, 190500, Note_on_c, 13, 45, 90
19, 190559, Note_on_c, 13, 45, 0
19, 190560, Note_on_c, 13, 57, 90
19, 190619, Note_on_c, 13, 57, 0
19, 190620, Note_on_c, 13, 57, 90
19, 190679, Note_on_c, 13, 57, 0
19, 190680, Note_on_c, 13, 45, 90
19, 190739, Note_on_c, 13, 45, 0
19, 190740, Note_on_c, 13, 45, 90
19, 190799, Note_on_c, 13, 45, 0
19, 190800, Note_on_c, 13, 57, 90
19, 190859, Note_on_c, 13, 57, 0
19, 190860, Note_on_c, 13, 57, 90
19, 190919, Note_on_c, 13, 57, 0
19, 190920, Note_on_c, 13, 49, 90
19, 190979, Note_on_c, 13, 49, 0
19, 190980, Note_on_c, 13, 50, 90
19, 191039, Note_on_c, 13, 50, 0
19, 191040, Note_on_c, 13, 54, 90
19, 191099, Note_on_c, 13, 54, 0
19, 191100, Note_on_c, 13, 59, 90
19, 191159, Note_on_c, 13, 59, 0
19, 191160, Note_on_c, 13, 47, 90
19, 191219, Note_on_c, 13, 47, 0
19, 191220, Note_on_c, 13, 49, 90
19, 191279, Note_on_c, 13, 49, 0
19, 191280, Note_on_c, 13, 57, 90
19, 191339, Note_on_c, 13, 57, 0
19, 191340, Note_on_c, 13, 55, 90
19, 191399, Note_on_c, 13, 55, 0
19, 191400, Note_on_c, 13, 54, 90
19, 191459, Note_on_c, 13, 54, 0
19, 191460, Note_on_c, 13, 52, 90
19, 191489, Note_on_c, 13, 52, 0
19, 191490, Note_on_c, 13, 54, 90
19, 191519, Note_on_c, 13, 54, 0
19, 191520, Note_on_c, 13, 55, 90
19, 191549, Note_on_c, 13, 55, 0
19, 191550, Note_on_c, 13, 54, 90
19, 191579, Note_on_c, 13, 54, 0
19, 191580, Note_on_c, 13, 52, 90
19, 191609, Note_on_c, 13, 52, 0
19, 191610, Note_on_c, 13, 50, 90
19, 191639, Note_on_c, 13, 50, 0
19, 191640, Note_on_c, 13, 49, 90
19, 191669, Note_on_c, 13, 49, 0
19, 191670, Note_on_c, 13, 47, 90
19, 191699, Note_on_c, 13, 47, 0
19, 191700, Note_on_c, 13, 49, 90
19, 191759, Note_on_c, 13, 49, 0
19, 191760, Note_on_c, 13, 45, 90
19, 191819, Note_on_c, 13, 45, 0
19, 191820, Note_on_c, 13, 47, 90
19, 191879, Note_on_c, 13, 47, 0
19, 191880, Note_on_c, 13, 49, 90
19, 191939, Note_on_c, 13, 49, 0
19, 191940, Note_on_c, 13, 50, 90
19, 191999, Note_on_c, 13, 50, 0
19, 192000, Note_on_c, 13, 47, 90
19, 192059, Note_on_c, 13, 47, 0
19, 192060, Note_on_c, 13, 43, 90
19, 192119, Note_on_c, 13, 43, 0
19, 192120, Note_on_c, 13, 45, 90
19, 192179, Note_on_c, 13, 45, 0
19, 192180, Note_on_c, 13, 50, 90
19, 192239, Note_on_c, 13, 50, 0
19, 192240, Note_on_c, 13, 38, 90
19, 192299, Note_on_c, 13, 38, 0
19, 192300, Note_on_c, 13, 38, 90
19, 192359, Note_on_c, 13, 38, 0
19, 192360, Note_on_c, 13, 50, 90
19, 192419, Note_on_c, 13, 50, 0
19, 192420, Note_on_c, 13, 50, 90
19, 192479, Note_on_c, 13, 50, 0
19, 192480, Note_on_c, 13, 38, 90
19, 192539, Note_on_c, 13, 38, 0
19, 192540, Note_on_c, 13, 38, 90
19, 192599, Note_on_c, 13, 38, 0
19, 192600, Note_on_c, 13, 50, 90
19, 192659, Note_on_c, 13, 50, 0
19, 192660, Note_on_c, 13, 50, 90
19, 192719, Note_on_c, 13, 50, 0
19, 192720, Note_on_c, 13, 62, 90
19, 192779, Note_on_c, 13, 62, 0
19, 192780, Note_on_c, 13, 60, 90
19, 192839, Note_on_c, 13, 60, 0
19, 192840, Note_on_c, 13, 59, 90
19, 192899, Note_on_c, 13, 59, 0
19, 192900, Note_on_c, 13, 57, 90
19, 192959, Note_on_c, 13, 57, 0
19, 192960, Note_on_c, 13, 55, 90
19, 193019, Note_on_c, 13, 55, 0
19, 193020, Note_on_c, 13, 54, 90
19, 193079, Note_on_c, 13, 54, 0
19, 193080, Note_on_c, 13, 50, 90
19, 193139, Note_on_c, 13, 50, 0
19, 193140, Note_on_c, 13, 55, 90
19, 193199, Note_on_c, 13, 55, 0
19, 193260, Note_on_c, 13, 54, 90
19, 193319, Note_on_c, 13, 54, 0
19, 193380, Note_on_c, 13, 52, 90
19, 193439, Note_on_c, 13, 52, 0
19, 193440, Note_on_c, 13, 40, 90
19, 193499, Note_on_c, 13, 40, 0
19, 193500, Note_on_c, 13, 40, 90
19, 193559, Note_on_c, 13, 40, 0
19, 193560, Note_on_c, 13, 52, 90
19, 193679, Note_on_c, 13, 52, 0
19, 193680, Note_on_c, 13, 64, 90
19, 193739, Note_on_c, 13, 64, 0
19, 193740, Note_on_c, 13, 62, 90
19, 193799, Note_on_c, 13, 62, 0
19, 193800, Note_on_c, 13, 61, 90
19, 193859, Note_on_c, 13, 61, 0
19, 193860, Note_on_c, 13, 59, 90
19, 193919, Note_on_c, 13, 59, 0
19, 193920, Note_on_c, 13, 57, 90
19, 193979, Note_on_c, 13, 57, 0
19, 193980, Note_on_c, 13, 56, 90
19, 194039, Note_on_c, 13, 56, 0
19, 194040, Note_on_c, 13, 52, 90
19, 194099, Note_on_c, 13, 52, 0
19, 194100, Note_on_c, 13, 57, 90
19, 194159, Note_on_c, 13, 57, 0
19, 194220, Note_on_c, 13, 55, 90
19, 194279, Note_on_c, 13, 55, 0
19, 194340, Note_on_c, 13, 54, 90
19, 194399, Note_on_c, 13, 54, 0
19, 194460, Note_on_c, 13, 50, 90
19, 194519, Note_on_c, 13, 50, 0
19, 194580, Note_on_c, 13, 49, 90
19, 194639, Note_on_c, 13, 49, 0
19, 194700, Note_on_c, 13, 45, 90
19, 194759, Note_on_c, 13, 45, 0
19, 194820, Note_on_c, 13, 42, 90
19, 194879, Note_on_c, 13, 42, 0
19, 194880, Note_on_c, 13, 47, 90
19, 194939, Note_on_c, 13, 47, 0
19, 194940, Note_on_c, 13, 43, 90
19, 194999, Note_on_c, 13, 43, 0
19, 195000, Note_on_c, 13, 45, 90
19, 195059, Note_on_c, 13, 45, 0
19, 195060, Note_on_c, 13, 47, 90
19, 195119, Note_on_c, 13, 47, 0
19, 195120, Note_on_c, 13, 47, 90
19, 195179, Note_on_c, 13, 47, 0
19, 195180, Note_on_c, 13, 47, 90
19, 195239, Note_on_c, 13, 47, 0
19, 195240, Note_on_c, 13, 45, 90
19, 195299, Note_on_c, 13, 45, 0
19, 195300, Note_on_c, 13, 44, 90
19, 195359, Note_on_c, 13, 44, 0
19, 195420, Note_on_c, 13, 47, 90
19, 195479, Note_on_c, 13, 47, 0
19, 195540, Note_on_c, 13, 52, 90
19, 195599, Note_on_c, 13, 52, 0
19, 195660, Note_on_c, 13, 55, 90
19, 195719, Note_on_c, 13, 55, 0
19, 195840, Note_on_c, 13, 42, 90
19, 195899, Note_on_c, 13, 42, 0
19, 195900, Note_on_c, 13, 43, 90
19, 195959, Note_on_c, 13, 43, 0
19, 195960, Note_on_c, 13, 45, 90
19, 196019, Note_on_c, 13, 45, 0
19, 196020, Note_on_c, 13, 38, 90
19, 196079, Note_on_c, 13, 38, 0
19, 196080, Note_on_c, 13, 62, 90
19, 196139, Note_on_c, 13, 62, 0
19, 196140, Note_on_c, 13, 61, 90
19, 196199, Note_on_c, 13, 61, 0
19, 196200, Note_on_c, 13, 59, 90
19, 196259, Note_on_c, 13, 59, 0
19, 196260, Note_on_c, 13, 57, 90
19, 196319, Note_on_c, 13, 57, 0
19, 196320, Note_on_c, 13, 45, 90
19, 196379, Note_on_c, 13, 45, 0
19, 196380, Note_on_c, 13, 45, 90
19, 196439, Note_on_c, 13, 45, 0
19, 196440, Note_on_c, 13, 57, 90
19, 196499, Note_on_c, 13, 57, 0
19, 196500, Note_on_c, 13, 57, 90
19, 196559, Note_on_c, 13, 57, 0
19, 196560, Note_on_c, 13, 45, 90
19, 196619, Note_on_c, 13, 45, 0
19, 196620, Note_on_c, 13, 45, 90
19, 196679, Note_on_c, 13, 45, 0
19, 196680, Note_on_c, 13, 43, 90
19, 196739, Note_on_c, 13, 43, 0
19, 196740, Note_on_c, 13, 42, 90
19, 196799, Note_on_c, 13, 42, 0
19, 196800, Note_on_c, 13, 47, 90
19, 196859, Note_on_c, 13, 47, 0
19, 196860, Note_on_c, 13, 40, 90
19, 196919, Note_on_c, 13, 40, 0
19, 196920, Note_on_c, 13, 45, 90
19, 196979, Note_on_c, 13, 45, 0
19, 196980, Note_on_c, 13, 38, 90
19, 197039, Note_on_c, 13, 38, 0
19, 197040, Note_on_c, 13, 50, 90
19, 197099, Note_on_c, 13, 50, 0
19, 197100, Note_on_c, 13, 54, 90
19, 197159, Note_on_c, 13, 54, 0
19, 197160, Note_on_c, 13, 57, 90
19, 197219, Note_on_c, 13, 57, 0
19, 197220, Note_on_c, 13, 60, 90
19, 197279, Note_on_c, 13, 60, 0
19, 197280, Note_on_c, 13, 57, 90
19, 197339, Note_on_c, 13, 57, 0
19, 197340, Note_on_c, 13, 54, 90
19, 197399, Note_on_c, 13, 54, 0
19, 197400, Note_on_c, 13, 50, 90
19, 197459, Note_on_c, 13, 50, 0
19, 197460, Note_on_c, 13, 45, 90
19, 197519, Note_on_c, 13, 45, 0
19, 197520, Note_on_c, 13, 42, 90
19, 197579, Note_on_c, 13, 42, 0
19, 197580, Note_on_c, 13, 38, 90
19, 197639, Note_on_c, 13, 38, 0
19, 197640, Note_on_c, 13, 50, 90
19, 197699, Note_on_c, 13, 50, 0
19, 197700, Note_on_c, 13, 52, 90
19, 197759, Note_on_c, 13, 52, 0
19, 197760, Note_on_c, 13, 47, 90
19, 197819, Note_on_c, 13, 47, 0
19, 197820, Note_on_c, 13, 48, 90
19, 197879, Note_on_c, 13, 48, 0
19, 197880, Note_on_c, 13, 50, 90
19, 197939, Note_on_c, 13, 50, 0
19, 197940, Note_on_c, 13, 55, 90
19, 197999, Note_on_c, 13, 55, 0
19, 198000, Note_on_c, 13, 57, 90
19, 198059, Note_on_c, 13, 57, 0
19, 198060, Note_on_c, 13, 59, 90
19, 198119, Note_on_c, 13, 59, 0
19, 198120, Note_on_c, 13, 64, 90
19, 198179, Note_on_c, 13, 64, 0
19, 198180, Note_on_c, 13, 54, 90
19, 198239, Note_on_c, 13, 54, 0
19, 198240, Note_on_c, 13, 64, 90
19, 198299, Note_on_c, 13, 64, 0
19, 198300, Note_on_c, 13, 63, 90
19, 198359, Note_on_c, 13, 63, 0
19, 198360, Note_on_c, 13, 59, 90
19, 198419, Note_on_c, 13, 59, 0
19, 198420, Note_on_c, 13, 52, 90
19, 198479, Note_on_c, 13, 52, 0
19, 198480, Note_on_c, 13, 62, 90
19, 198539, Note_on_c, 13, 62, 0
19, 198540, Note_on_c, 13, 61, 90
19, 198599, Note_on_c, 13, 61, 0
19, 198600, Note_on_c, 13, 57, 90
19, 198659, Note_on_c, 13, 57, 0
19, 198660, Note_on_c, 13, 50, 90
19, 198719, Note_on_c, 13, 50, 0
19, 198720, Note_on_c, 13, 54, 90
19, 198779, Note_on_c, 13, 54, 0
19, 198780, Note_on_c, 13, 55, 90
19, 198839, Note_on_c, 13, 55, 0
19, 198840, Note_on_c, 13, 52, 90
19, 198899, Note_on_c, 13, 52, 0
19, 198900, Note_on_c, 13, 57, 90
19, 198959, Note_on_c, 13, 57, 0
19, 198960, Note_on_c, 13, 55, 90
19, 199019, Note_on_c, 13, 55, 0
19, 199020, Note_on_c, 13, 54, 90
19, 199079, Note_on_c, 13, 54, 0
19, 199080, Note_on_c, 13, 52, 90
19, 199139, Note_on_c, 13, 52, 0
19, 199140, Note_on_c, 13, 50, 90
19, 199199, Note_on_c, 13, 50, 0
19, 199200, Note_on_c, 13, 42, 90
19, 199259, Note_on_c, 13, 42, 0
19, 199260, Note_on_c, 13, 43, 90
19, 199319, Note_on_c, 13, 43, 0
19, 199320, Note_on_c, 13, 45, 90
19, 199379, Note_on_c, 13, 45, 0
19, 199380, Note_on_c, 13, 38, 90
19, 199619, Note_on_c, 13, 38, 0
19, 199980, Note_on_c, 13, 50, 90
19, 200099, Note_on_c, 13, 50, 0
19, 200100, Note_on_c, 13, 57, 90
19, 200279, Note_on_c, 13, 57, 0
19, 200280, Note_on_c, 13, 56, 90
19, 200339, Note_on_c, 13, 56, 0
19, 200340, Note_on_c, 13, 57, 90
19, 200399, Note_on_c, 13, 57, 0
19, 200400, Note_on_c, 13, 55, 90
19, 200459, Note_on_c, 13, 55, 0
19, 200460, Note_on_c, 13, 54, 90
19, 200579, Note_on_c, 13, 54, 0
19, 200580, Note_on_c, 13, 55, 90
19, 200639, Note_on_c, 13, 55, 0
19, 200640, Note_on_c, 13, 54, 90
19, 200699, Note_on_c, 13, 54, 0
19, 200700, Note_on_c, 13, 52, 90
19, 200819, Note_on_c, 13, 52, 0
19, 200820, Note_on_c, 13, 50, 90
19, 200879, Note_on_c, 13, 50, 0
19, 200880, Note_on_c, 13, 62, 90
19, 200939, Note_on_c, 13, 62, 0
19, 200970, Note_on_c, 13, 50, 90
19, 200999, Note_on_c, 13, 50, 0
19, 201000, Note_on_c, 13, 54, 90
19, 201029, Note_on_c, 13, 54, 0
19, 201030, Note_on_c, 13, 50, 90
19, 201059, Note_on_c, 13, 50, 0
19, 201060, Note_on_c, 13, 47, 90
19, 201119, Note_on_c, 13, 47, 0
19, 201120, Note_on_c, 13, 59, 90
19, 201179, Note_on_c, 13, 59, 0
19, 201210, Note_on_c, 13, 47, 90
19, 201239, Note_on_c, 13, 47, 0
19, 201240, Note_on_c, 13, 50, 90
19, 201269, Note_on_c, 13, 50, 0
19, 201270, Note_on_c, 13, 47, 90
19, 201299, Note_on_c, 13, 47, 0
19, 201300, Note_on_c, 13, 43, 90
19, 201359, Note_on_c, 13, 43, 0
19, 201360, Note_on_c, 13, 55, 90
19, 201419, Note_on_c, 13, 55, 0
19, 201420, Note_on_c, 13, 57, 90
19, 201479, Note_on_c, 13, 57, 0
19, 201480, Note_on_c, 13, 45, 90
19, 201539, Note_on_c, 13, 45, 0
19, 201540, Note_on_c, 13, 50, 90
19, 201599, Note_on_c, 13, 50, 0
19, 201600, Note_on_c, 13, 38, 90
19, 201659, Note_on_c, 13, 38, 0
19, 201660, Note_on_c, 13, 50, 90
19, 201719, Note_on_c, 13, 50, 0
19, 201720, Note_on_c, 13, 52, 90
19, 201779, Note_on_c, 13, 52, 0
19, 201780, Note_on_c, 13, 54, 90
19, 201839, Note_on_c, 13, 54, 0
19, 201840, Note_on_c, 13, 42, 90
19, 201899, Note_on_c, 13, 42, 0
19, 201900, Note_on_c, 13, 54, 90
19, 201959, Note_on_c, 13, 54, 0
19, 201960, Note_on_c, 13, 55, 90
19, 202019, Note_on_c, 13, 55, 0
19, 202020, Note_on_c, 13, 57, 90
19, 202079, Note_on_c, 13, 57, 0
19, 202080, Note_on_c, 13, 45, 90
19, 202139, Note_on_c, 13, 45, 0
19, 202140, Note_on_c, 13, 57, 90
19, 202199, Note_on_c, 13, 57, 0
19, 202200, Note_on_c, 13, 55, 90
19, 202259, Note_on_c, 13, 55, 0
19, 202260, Note_on_c, 13, 54, 90
19, 202319, Note_on_c, 13, 54, 0
19, 202320, Note_on_c, 13, 52, 90
19, 202379, Note_on_c, 13, 52, 0
19, 202380, Note_on_c, 13, 50, 90
19, 202439, Note_on_c, 13, 50, 0
19, 202440, Note_on_c, 13, 49, 90
19, 202499, Note_on_c, 13, 49, 0
19, 202500, Note_on_c, 13, 50, 90
19, 202559, Note_on_c, 13, 50, 0
19, 202560, Note_on_c, 13, 62, 90
19, 202619, Note_on_c, 13, 62, 0
19, 202650, Note_on_c, 13, 50, 90
19, 202679, Note_on_c, 13, 50, 0
19, 202680, Note_on_c, 13, 54, 90
19, 202709, Note_on_c, 13, 54, 0
19, 202710, Note_on_c, 13, 50, 90
19, 202739, Note_on_c, 13, 50, 0
19, 202740, Note_on_c, 13, 47, 90
19, 202799, Note_on_c, 13, 47, 0
19, 202800, Note_on_c, 13, 59, 90
19, 202859, Note_on_c, 13, 59, 0
19, 202890, Note_on_c, 13, 47, 90
19, 202919, Note_on_c, 13, 47, 0
19, 202920, Note_on_c, 13, 50, 90
19, 202949, Note_on_c, 13, 50, 0
19, 202950, Note_on_c, 13, 47, 90
19, 202979, Note_on_c, 13, 47, 0
19, 202980, Note_on_c, 13, 43, 90
19, 203039, Note_on_c, 13, 43, 0
19, 203040, Note_on_c, 13, 55, 90
19, 203099, Note_on_c, 13, 55, 0
19, 203100, Note_on_c, 13, 57, 90
19, 203159, Note_on_c, 13, 57, 0
19, 203160, Note_on_c, 13, 45, 90
19, 203219, Note_on_c, 13, 45, 0
19, 203220, Note_on_c, 13, 50, 90
19, 203279, Note_on_c, 13, 50, 0
19, 203280, Note_on_c, 13, 38, 90
19, 203339, Note_on_c, 13, 38, 0
19, 203340, Note_on_c, 13, 50, 90
19, 203399, Note_on_c, 13, 50, 0
19, 203400, Note_on_c, 13, 49, 90
19, 203459, Note_on_c, 13, 49, 0
19, 203460, Note_on_c, 13, 51, 90
19, 203519, Note_on_c, 13, 51, 0
19, 203520, Note_on_c, 13, 47, 90
19, 203579, Note_on_c, 13, 47, 0
19, 203580, Note_on_c, 13, 52, 90
19, 203639, Note_on_c, 13, 52, 0
19, 203640, Note_on_c, 13, 50, 90
19, 203699, Note_on_c, 13, 50, 0
19, 203700, Note_on_c, 13, 49, 90
19, 203759, Note_on_c, 13, 49, 0
19, 203760, Note_on_c, 13, 47, 90
19, 203819, Note_on_c, 13, 47, 0
19, 203820, Note_on_c, 13, 45, 90
19, 203879, Note_on_c, 13, 45, 0
19, 203880, Note_on_c, 13, 44, 90
19, 203939, Note_on_c, 13, 44, 0
19, 203940, Note_on_c, 13, 42, 90
19, 203999, Note_on_c, 13, 42, 0
19, 204000, Note_on_c, 13, 40, 90
19, 204059, Note_on_c, 13, 40, 0
19, 204060, Note_on_c, 13, 38, 90
19, 204119, Note_on_c, 13, 38, 0
19, 204120, Note_on_c, 13, 40, 90
19, 204179, Note_on_c, 13, 40, 0
19, 204180, Note_on_c, 13, 45, 90
19, 204239, Note_on_c, 13, 45, 0
19, 204240, Note_on_c, 13, 57, 90
19, 204299, Note_on_c, 13, 57, 0
19, 204330, Note_on_c, 13, 45, 90
19, 204359, Note_on_c, 13, 45, 0
19, 204360, Note_on_c, 13, 49, 90
19, 204389, Note_on_c, 13, 49, 0
19, 204390, Note_on_c, 13, 45, 90
19, 204419, Note_on_c, 13, 45, 0
19, 204420, Note_on_c, 13, 42, 90
19, 204479, Note_on_c, 13, 42, 0
19, 204480, Note_on_c, 13, 54, 90
19, 204539, Note_on_c, 13, 54, 0
19, 204570, Note_on_c, 13, 42, 90
19, 204599, Note_on_c, 13, 42, 0
19, 204600, Note_on_c, 13, 45, 90
19, 204629, Note_on_c, 13, 45, 0
19, 204630, Note_on_c, 13, 42, 90
19, 204659, Note_on_c, 13, 42, 0
19, 204660, Note_on_c, 13, 38, 90
19, 204719, Note_on_c, 13, 38, 0
19, 204720, Note_on_c, 13, 50, 90
19, 204779, Note_on_c, 13, 50, 0
19, 204780, Note_on_c, 13, 52, 90
19, 204839, Note_on_c, 13, 52, 0
19, 204840, Note_on_c, 13, 40, 90
19, 204899, Note_on_c, 13, 40, 0
19, 204900, Note_on_c, 13, 45, 90
19, 204959, Note_on_c, 13, 45, 0
19, 204960, Note_on_c, 13, 57, 90
19, 205079, Note_on_c, 13, 57, 0
19, 205080, Note_on_c, 13, 56, 90
19, 205139, Note_on_c, 13, 56, 0
19, 205140, Note_on_c, 13, 57, 90
19, 205199, Note_on_c, 13, 57, 0
19, 205200, Note_on_c, 13, 54, 90
19, 205259, Note_on_c, 13, 54, 0
19, 205260, Note_on_c, 13, 50, 90
19, 205319, Note_on_c, 13, 50, 0
19, 205320, Note_on_c, 13, 55, 90
19, 205439, Note_on_c, 13, 55, 0
19, 205440, Note_on_c, 13, 54, 90
19, 205499, Note_on_c, 13, 54, 0
19, 205500, Note_on_c, 13, 55, 90
19, 205559, Note_on_c, 13, 55, 0
19, 205560, Note_on_c, 13, 57, 90
19, 205619, Note_on_c, 13, 57, 0
19, 205620, Note_on_c, 13, 59, 90
19, 205679, Note_on_c, 13, 59, 0
19, 205680, Note_on_c, 13, 55, 90
19, 205739, Note_on_c, 13, 55, 0
19, 205740, Note_on_c, 13, 57, 90
19, 205799, Note_on_c, 13, 57, 0
19, 205800, Note_on_c, 13, 45, 90
19, 205859, Note_on_c, 13, 45, 0
19, 205860, Note_on_c, 13, 50, 90
19, 205919, Note_on_c, 13, 50, 0
19, 205920, Note_on_c, 13, 62, 90
19, 205979, Note_on_c, 13, 62, 0
19, 206010, Note_on_c, 13, 50, 90
19, 206039, Note_on_c, 13, 50, 0
19, 206040, Note_on_c, 13, 54, 90
19, 206069, Note_on_c, 13, 54, 0
19, 206070, Note_on_c, 13, 50, 90
19, 206099, Note_on_c, 13, 50, 0
19, 206100, Note_on_c, 13, 47, 90
19, 206159, Note_on_c, 13, 47, 0
19, 206160, Note_on_c, 13, 59, 90
19, 206219, Note_on_c, 13, 59, 0
19, 206250, Note_on_c, 13, 47, 90
19, 206279, Note_on_c, 13, 47, 0
19, 206280, Note_on_c, 13, 50, 90
19, 206309, Note_on_c, 13, 50, 0
19, 206310, Note_on_c, 13, 47, 90
19, 206339, Note_on_c, 13, 47, 0
19, 206340, Note_on_c, 13, 43, 90
19, 206399, Note_on_c, 13, 43, 0
19, 206400, Note_on_c, 13, 55, 90
19, 206459, Note_on_c, 13, 55, 0
19, 206460, Note_on_c, 13, 57, 90
19, 206519, Note_on_c, 13, 57, 0
19, 206520, Note_on_c, 13, 45, 90
19, 206579, Note_on_c, 13, 45, 0
19, 206580, Note_on_c, 13, 47, 90
19, 206699, Note_on_c, 13, 47, 0
19, 206760, Note_on_c, 13, 59, 90
19, 206819, Note_on_c, 13, 59, 0
19, 206820, Note_on_c, 13, 57, 90
19, 206879, Note_on_c, 13, 57, 0
19, 206880, Note_on_c, 13, 55, 90
19, 206939, Note_on_c, 13, 55, 0
19, 206940, Note_on_c, 13, 57, 90
19, 206999, Note_on_c, 13, 57, 0
19, 207000, Note_on_c, 13, 45, 90
19, 207059, Note_on_c, 13, 45, 0
19, 207060, Note_on_c, 13, 38, 90
19, 207180, Note_on_c, 13, 38, 0
19, 207180, End_track
20, 0, Start_track
20, 0, MIDI_port, 0
20, 0, Title_t, "Fagotto"
20, 0, Program_c, 14, 70
20, 0, Note_on_c, 14, 38, 90
20, 59, Note_on_c, 14, 38, 0
20, 360, Note_on_c, 14, 38, 90
20, 419, Note_on_c, 14, 38, 0
20, 720, Note_on_c, 14, 38, 90
20, 779, Note_on_c, 14, 38, 0
20, 1080, Note_on_c, 14, 38, 90
20, 1139, Note_on_c, 14, 38, 0
20, 1260, Note_on_c, 14, 50, 90
20, 1274, Note_on_c, 14, 50, 0
20, 1275, Note_on_c, 14, 50, 90
20, 1289, Note_on_c, 14, 50, 0
20, 1290, Note_on_c, 14, 49, 90
20, 1304, Note_on_c, 14, 49, 0
20, 1305, Note_on_c, 14, 47, 90
20, 1319, Note_on_c, 14, 47, 0
20, 1320, Note_on_c, 14, 45, 90
20, 1334, Note_on_c, 14, 45, 0
20, 1335, Note_on_c, 14, 50, 90
20, 1349, Note_on_c, 14, 50, 0
20, 1350, Note_on_c, 14, 49, 90
20, 1364, Note_on_c, 14, 49, 0
20, 1365, Note_on_c, 14, 47, 90
20, 1379, Note_on_c, 14, 47, 0
20, 1380, Note_on_c, 14, 45, 90
20, 1394, Note_on_c, 14, 45, 0
20, 1395, Note_on_c, 14, 43, 90
20, 1409, Note_on_c, 14, 43, 0
20, 1410, Note_on_c, 14, 42, 90
20, 1424, Note_on_c, 14, 42, 0
20, 1425, Note_on_c, 14, 40, 90
20, 1439, Note_on_c, 14, 40, 0
20, 1440, Note_on_c, 14, 38, 90
20, 1499, Note_on_c, 14, 38, 0
20, 1500, Note_on_c, 14, 42, 90
20, 1559, Note_on_c, 14, 42, 0
20, 1560, Note_on_c, 14, 38, 90
20, 1619, Note_on_c, 14, 38, 0
20, 1620, Note_on_c, 14, 45, 90
20, 1679, Note_on_c, 14, 45, 0
20, 1800, Note_on_c, 14, 45, 90
20, 1859, Note_on_c, 14, 45, 0
20, 1860, Note_on_c, 14, 49, 90
20, 1919, Note_on_c, 14, 49, 0
20, 1920, Note_on_c, 14, 45, 90
20, 1979, Note_on_c, 14, 45, 0
20, 1980, Note_on_c, 14, 50, 90
20, 2039, Note_on_c, 14, 50, 0
20, 2160, Note_on_c, 14, 50, 90
20, 2189, Note_on_c, 14, 50, 0
20, 2190, Note_on_c, 14, 52, 90
20, 2219, Note_on_c, 14, 52, 0
20, 2220, Note_on_c, 14, 54, 90
20, 2249, Note_on_c, 14, 54, 0
20, 2250, Note_on_c, 14, 52, 90
20, 2279, Note_on_c, 14, 52, 0
20, 2280, Note_on_c, 14, 54, 90
20, 2309, Note_on_c, 14, 54, 0
20, 2310, Note_on_c, 14, 50, 90
20, 2339, Note_on_c, 14, 50, 0
20, 2340, Note_on_c, 14, 55, 90
20, 2369, Note_on_c, 14, 55, 0
20, 2370, Note_on_c, 14, 57, 90
20, 2399, Note_on_c, 14, 57, 0
20, 2400, Note_on_c, 14, 54, 90
20, 2429, Note_on_c, 14, 54, 0
20, 2430, Note_on_c, 14, 55, 90
20, 2459, Note_on_c, 14, 55, 0
20, 2460, Note_on_c, 14, 52, 90
20, 2489, Note_on_c, 14, 52, 0
20, 2490, Note_on_c, 14, 54, 90
20, 2519, Note_on_c, 14, 54, 0
20, 2520, Note_on_c, 14, 50, 90
20, 2549, Note_on_c, 14, 50, 0
20, 2550, Note_on_c, 14, 62, 90
20, 2579, Note_on_c, 14, 62, 0
20, 2580, Note_on_c, 14, 61, 90
20, 2609, Note_on_c, 14, 61, 0
20, 2610, Note_on_c, 14, 62, 90
20, 2639, Note_on_c, 14, 62, 0
20, 2640, Note_on_c, 14, 59, 90
20, 2669, Note_on_c, 14, 59, 0
20, 2670, Note_on_c, 14, 61, 90
20, 2699, Note_on_c, 14, 61, 0
20, 2700, Note_on_c, 14, 57, 90
20, 2729, Note_on_c, 14, 57, 0
20, 2730, Note_on_c, 14, 55, 90
20, 2759, Note_on_c, 14, 55, 0
20, 2760, Note_on_c, 14, 57, 90
20, 2789, Note_on_c, 14, 57, 0
20, 2790, Note_on_c, 14, 59, 90
20, 2819, Note_on_c, 14, 59, 0
20, 2820, Note_on_c, 14, 55, 90
20, 2849, Note_on_c, 14, 55, 0
20, 2850, Note_on_c, 14, 57, 90
20, 2879, Note_on_c, 14, 57, 0
20, 2880, Note_on_c, 14, 54, 90
20, 2909, Note_on_c, 14, 54, 0
20, 2910, Note_on_c, 14, 52, 90
20, 2939, Note_on_c, 14, 52, 0
20, 2940, Note_on_c, 14, 54, 90
20, 2969, Note_on_c, 14, 54, 0
20, 2970, Note_on_c, 14, 55, 90
20, 2999, Note_on_c, 14, 55, 0
20, 3000, Note_on_c, 14, 52, 90
20, 3029, Note_on_c, 14, 52, 0
20, 3030, Note_on_c, 14, 54, 90
20, 3059, Note_on_c, 14, 54, 0
20, 3060, Note_on_c, 14, 51, 90
20, 3089, Note_on_c, 14, 51, 0
20, 3090, Note_on_c, 14, 60, 90
20, 3119, Note_on_c, 14, 60, 0
20, 3120, Note_on_c, 14, 59, 90
20, 3149, Note_on_c, 14, 59, 0
20, 3150, Note_on_c, 14, 60, 90
20, 3179, Note_on_c, 14, 60, 0
20, 3180, Note_on_c, 14, 57, 90
20, 3209, Note_on_c, 14, 57, 0
20, 3210, Note_on_c, 14, 59, 90
20, 3239, Note_on_c, 14, 59, 0
20, 3240, Note_on_c, 14, 55, 90
20, 3269, Note_on_c, 14, 55, 0
20, 3270, Note_on_c, 14, 54, 90
20, 3299, Note_on_c, 14, 54, 0
20, 3300, Note_on_c, 14, 55, 90
20, 3329, Note_on_c, 14, 55, 0
20, 3330, Note_on_c, 14, 57, 90
20, 3359, Note_on_c, 14, 57, 0
20, 3360, Note_on_c, 14, 54, 90
20, 3389, Note_on_c, 14, 54, 0
20, 3390, Note_on_c, 14, 55, 90
20, 3419, Note_on_c, 14, 55, 0
20, 3420, Note_on_c, 14, 52, 90
20, 3449, Note_on_c, 14, 52, 0
20, 3450, Note_on_c, 14, 51, 90
20, 3479, Note_on_c, 14, 51, 0
20, 3480, Note_on_c, 14, 52, 90
20, 3509, Note_on_c, 14, 52, 0
20, 3510, Note_on_c, 14, 54, 90
20, 3539, Note_on_c, 14, 54, 0
20, 3540, Note_on_c, 14, 50, 90
20, 3569, Note_on_c, 14, 50, 0
20, 3570, Note_on_c, 14, 52, 90
20, 3599, Note_on_c, 14, 52, 0
20, 3600, Note_on_c, 14, 49, 90
20, 3629, Note_on_c, 14, 49, 0
20, 3630, Note_on_c, 14, 47, 90
20, 3659, Note_on_c, 14, 47, 0
20, 3660, Note_on_c, 14, 49, 90
20, 3689, Note_on_c, 14, 49, 0
20, 3690, Note_on_c, 14, 50, 90
20, 3719, Note_on_c, 14, 50, 0
20, 3720, Note_on_c, 14, 47, 90
20, 3749, Note_on_c, 14, 47, 0
20, 3750, Note_on_c, 14, 49, 90
20, 3779, Note_on_c, 14, 49, 0
20, 3780, Note_on_c, 14, 45, 90
20, 3809, Note_on_c, 14, 45, 0
20, 3810, Note_on_c, 14, 57, 90
20, 3839, Note_on_c, 14, 57, 0
20, 3840, Note_on_c, 14, 55, 90
20, 3869, Note_on_c, 14, 55, 0
20, 3870, Note_on_c, 14, 57, 90
20, 3899, Note_on_c, 14, 57, 0
20, 3900, Note_on_c, 14, 55, 90
20, 3929, Note_on_c, 14, 55, 0
20, 3930, Note_on_c, 14, 57, 90
20, 3959, Note_on_c, 14, 57, 0
20, 3960, Note_on_c, 14, 54, 90
20, 3989, Note_on_c, 14, 54, 0
20, 3990, Note_on_c, 14, 52, 90
20, 4019, Note_on_c, 14, 52, 0
20, 4020, Note_on_c, 14, 54, 90
20, 4049, Note_on_c, 14, 54, 0
20, 4050, Note_on_c, 14, 55, 90
20, 4079, Note_on_c, 14, 55, 0
20, 4080, Note_on_c, 14, 52, 90
20, 4109, Note_on_c, 14, 52, 0
20, 4110, Note_on_c, 14, 54, 90
20, 4139, Note_on_c, 14, 54, 0
20, 4140, Note_on_c, 14, 50, 90
20, 4169, Note_on_c, 14, 50, 0
20, 4170, Note_on_c, 14, 49, 90
20, 4199, Note_on_c, 14, 49, 0
20, 4200, Note_on_c, 14, 50, 90
20, 4229, Note_on_c, 14, 50, 0
20, 4230, Note_on_c, 14, 52, 90
20, 4259, Note_on_c, 14, 52, 0
20, 4260, Note_on_c, 14, 49, 90
20, 4289, Note_on_c, 14, 49, 0
20, 4290, Note_on_c, 14, 50, 90
20, 4319, Note_on_c, 14, 50, 0
20, 4320, Note_on_c, 14, 47, 90
20, 4349, Note_on_c, 14, 47, 0
20, 4380, Note_on_c, 14, 59, 90
20, 4409, Note_on_c, 14, 59, 0
20, 4440, Note_on_c, 14, 57, 90
20, 4469, Note_on_c, 14, 57, 0
20, 4500, Note_on_c, 14, 56, 90
20, 4574, Note_on_c, 14, 56, 0
20, 4575, Note_on_c, 14, 57, 90
20, 4589, Note_on_c, 14, 57, 0
20, 4590, Note_on_c, 14, 56, 90
20, 4604, Note_on_c, 14, 56, 0
20, 4605, Note_on_c, 14, 54, 90
20, 4619, Note_on_c, 14, 54, 0
20, 4620, Note_on_c, 14, 52, 90
20, 4634, Note_on_c, 14, 52, 0
20, 4635, Note_on_c, 14, 50, 90
20, 4649, Note_on_c, 14, 50, 0
20, 4650, Note_on_c, 14, 49, 90
20, 4664, Note_on_c, 14, 49, 0
20, 4665, Note_on_c, 14, 47, 90
20, 4679, Note_on_c, 14, 47, 0
20, 4680, Note_on_c, 14, 45, 90
20, 4709, Note_on_c, 14, 45, 0
20, 4740, Note_on_c, 14, 57, 90
20, 4769, Note_on_c, 14, 57, 0
20, 4800, Note_on_c, 14, 55, 90
20, 4829, Note_on_c, 14, 55, 0
20, 4860, Note_on_c, 14, 54, 90
20, 4934, Note_on_c, 14, 54, 0
20, 4935, Note_on_c, 14, 55, 90
20, 4949, Note_on_c, 14, 55, 0
20, 4950, Note_on_c, 14, 54, 90
20, 4964, Note_on_c, 14, 54, 0
20, 4965, Note_on_c, 14, 52, 90
20, 4979, Note_on_c, 14, 52, 0
20, 4980, Note_on_c, 14, 50, 90
20, 4994, Note_on_c, 14, 50, 0
20, 4995, Note_on_c, 14, 48, 90
20, 5009, Note_on_c, 14, 48, 0
20, 5010, Note_on_c, 14, 47, 90
20, 5024, Note_on_c, 14, 47, 0
20, 5025, Note_on_c, 14, 45, 90
20, 5039, Note_on_c, 14, 45, 0
20, 5040, Note_on_c, 14, 43, 90
20, 5069, Note_on_c, 14, 43, 0
20, 5100, Note_on_c, 14, 55, 90
20, 5129, Note_on_c, 14, 55, 0
20, 5160, Note_on_c, 14, 54, 90
20, 5189, Note_on_c, 14, 54, 0
20, 5220, Note_on_c, 14, 52, 90
20, 5249, Note_on_c, 14, 52, 0
20, 5280, Note_on_c, 14, 47, 90
20, 5309, Note_on_c, 14, 47, 0
20, 5340, Note_on_c, 14, 50, 90
20, 5369, Note_on_c, 14, 50, 0
20, 5400, Note_on_c, 14, 49, 90
20, 5429, Note_on_c, 14, 49, 0
20, 5460, Note_on_c, 14, 52, 90
20, 5489, Note_on_c, 14, 52, 0
20, 5520, Note_on_c, 14, 45, 90
20, 5549, Note_on_c, 14, 45, 0
20, 5580, Note_on_c, 14, 50, 90
20, 5609, Note_on_c, 14, 50, 0
20, 5640, Note_on_c, 14, 42, 90
20, 5669, Note_on_c, 14, 42, 0
20, 5700, Note_on_c, 14, 45, 90
20, 5729, Note_on_c, 14, 45, 0
20, 5760, Note_on_c, 14, 38, 90
20, 5819, Note_on_c, 14, 38, 0
20, 6120, Note_on_c, 14, 38, 90
20, 6179, Note_on_c, 14, 38, 0
20, 6480, Note_on_c, 14, 38, 90
20, 6539, Note_on_c, 14, 38, 0
20, 6840, Note_on_c, 14, 38, 90
20, 6899, Note_on_c, 14, 38, 0
20, 7200, Note_on_c, 14, 38, 90
20, 7259, Note_on_c, 14, 38, 0
20, 7395, Note_on_c, 14, 50, 90
20, 7409, Note_on_c, 14, 50, 0
20, 7410, Note_on_c, 14, 49, 90
20, 7424, Note_on_c, 14, 49, 0
20, 7425, Note_on_c, 14, 47, 90
20, 7439, Note_on_c, 14, 47, 0
20, 7440, Note_on_c, 14, 45, 90
20, 7454, Note_on_c, 14, 45, 0
20, 7455, Note_on_c, 14, 50, 90
20, 7469, Note_on_c, 14, 50, 0
20, 7470, Note_on_c, 14, 49, 90
20, 7484, Note_on_c, 14, 49, 0
20, 7485, Note_on_c, 14, 47, 90
20, 7499, Note_on_c, 14, 47, 0
20, 7500, Note_on_c, 14, 45, 90
20, 7514, Note_on_c, 14, 45, 0
20, 7515, Note_on_c, 14, 43, 90
20, 7529, Note_on_c, 14, 43, 0
20, 7530, Note_on_c, 14, 42, 90
20, 7544, Note_on_c, 14, 42, 0
20, 7545, Note_on_c, 14, 40, 90
20, 7559, Note_on_c, 14, 40, 0
20, 7560, Note_on_c, 14, 38, 90
20, 7619, Note_on_c, 14, 38, 0
20, 7620, Note_on_c, 14, 42, 90
20, 7679, Note_on_c, 14, 42, 0
20, 7680, Note_on_c, 14, 38, 90
20, 7739, Note_on_c, 14, 38, 0
20, 7740, Note_on_c, 14, 45, 90
20, 7859, Note_on_c, 14, 45, 0
20, 7920, Note_on_c, 14, 45, 90
20, 7979, Note_on_c, 14, 45, 0
20, 7980, Note_on_c, 14, 49, 90
20, 8039, Note_on_c, 14, 49, 0
20, 8040, Note_on_c, 14, 45, 90
20, 8099, Note_on_c, 14, 45, 0
20, 8100, Note_on_c, 14, 50, 90
20, 8219, Note_on_c, 14, 50, 0
20, 8280, Note_on_c, 14, 50, 90
20, 8309, Note_on_c, 14, 50, 0
20, 8310, Note_on_c, 14, 52, 90
20, 8339, Note_on_c, 14, 52, 0
20, 8340, Note_on_c, 14, 54, 90
20, 8369, Note_on_c, 14, 54, 0
20, 8370, Note_on_c, 14, 52, 90
20, 8399, Note_on_c, 14, 52, 0
20, 8400, Note_on_c, 14, 54, 90
20, 8429, Note_on_c, 14, 54, 0
20, 8430, Note_on_c, 14, 50, 90
20, 8459, Note_on_c, 14, 50, 0
20, 8460, Note_on_c, 14, 55, 90
20, 8489, Note_on_c, 14, 55, 0
20, 8490, Note_on_c, 14, 57, 90
20, 8519, Note_on_c, 14, 57, 0
20, 8520, Note_on_c, 14, 54, 90
20, 8549, Note_on_c, 14, 54, 0
20, 8550, Note_on_c, 14, 55, 90
20, 8579, Note_on_c, 14, 55, 0
20, 8580, Note_on_c, 14, 52, 90
20, 8609, Note_on_c, 14, 52, 0
20, 8610, Note_on_c, 14, 54, 90
20, 8639, Note_on_c, 14, 54, 0
20, 8640, Note_on_c, 14, 50, 90
20, 8669, Note_on_c, 14, 50, 0
20, 8670, Note_on_c, 14, 62, 90
20, 8699, Note_on_c, 14, 62, 0
20, 8700, Note_on_c, 14, 61, 90
20, 8729, Note_on_c, 14, 61, 0
20, 8730, Note_on_c, 14, 62, 90
20, 8759, Note_on_c, 14, 62, 0
20, 8760, Note_on_c, 14, 59, 90
20, 8789, Note_on_c, 14, 59, 0
20, 8790, Note_on_c, 14, 61, 90
20, 8819, Note_on_c, 14, 61, 0
20, 8820, Note_on_c, 14, 57, 90
20, 8879, Note_on_c, 14, 57, 0
20, 8880, Note_on_c, 14, 45, 90
20, 8939, Note_on_c, 14, 45, 0
20, 9030, Note_on_c, 14, 57, 90
20, 9059, Note_on_c, 14, 57, 0
20, 9060, Note_on_c, 14, 55, 90
20, 9089, Note_on_c, 14, 55, 0
20, 9090, Note_on_c, 14, 57, 90
20, 9119, Note_on_c, 14, 57, 0
20, 9120, Note_on_c, 14, 54, 90
20, 9149, Note_on_c, 14, 54, 0
20, 9150, Note_on_c, 14, 55, 90
20, 9179, Note_on_c, 14, 55, 0
20, 9180, Note_on_c, 14, 52, 90
20, 9209, Note_on_c, 14, 52, 0
20, 9210, Note_on_c, 14, 51, 90
20, 9239, Note_on_c, 14, 51, 0
20, 9240, Note_on_c, 14, 52, 90
20, 9269, Note_on_c, 14, 52, 0
20, 9270, Note_on_c, 14, 55, 90
20, 9299, Note_on_c, 14, 55, 0
20, 9300, Note_on_c, 14, 54, 90
20, 9329, Note_on_c, 14, 54, 0
20, 9330, Note_on_c, 14, 57, 90
20, 9359, Note_on_c, 14, 57, 0
20, 9360, Note_on_c, 14, 55, 90
20, 9389, Note_on_c, 14, 55, 0
20, 9390, Note_on_c, 14, 54, 90
20, 9419, Note_on_c, 14, 54, 0
20, 9420, Note_on_c, 14, 55, 90
20, 9449, Note_on_c, 14, 55, 0
20, 9450, Note_on_c, 14, 59, 90
20, 9479, Note_on_c, 14, 59, 0
20, 9480, Note_on_c, 14, 57, 90
20, 9509, Note_on_c, 14, 57, 0
20, 9510, Note_on_c, 14, 61, 90
20, 9539, Note_on_c, 14, 61, 0
20, 9540, Note_on_c, 14, 59, 90
20, 9569, Note_on_c, 14, 59, 0
20, 9570, Note_on_c, 14, 57, 90
20, 9599, Note_on_c, 14, 57, 0
20, 9600, Note_on_c, 14, 59, 90
20, 9629, Note_on_c, 14, 59, 0
20, 9630, Note_on_c, 14, 62, 90
20, 9659, Note_on_c, 14, 62, 0
20, 9660, Note_on_c, 14, 61, 90
20, 9689, Note_on_c, 14, 61, 0
20, 9690, Note_on_c, 14, 64, 90
20, 9719, Note_on_c, 14, 64, 0
20, 9720, Note_on_c, 14, 62, 90
20, 9749, Note_on_c, 14, 62, 0
20, 9750, Note_on_c, 14, 64, 90
20, 9779, Note_on_c, 14, 64, 0
20, 9780, Note_on_c, 14, 61, 90
20, 9809, Note_on_c, 14, 61, 0
20, 9810, Note_on_c, 14, 62, 90
20, 9839, Note_on_c, 14, 62, 0
20, 9840, Note_on_c, 14, 59, 90
20, 9869, Note_on_c, 14, 59, 0
20, 9870, Note_on_c, 14, 61, 90
20, 9899, Note_on_c, 14, 61, 0
20, 9900, Note_on_c, 14, 57, 90
20, 9959, Note_on_c, 14, 57, 0
20, 9960, Note_on_c, 14, 45, 90
20, 9989, Note_on_c, 14, 45, 0
20, 9990, Note_on_c, 14, 49, 90
20, 10019, Note_on_c, 14, 49, 0
20, 10020, Note_on_c, 14, 47, 90
20, 10049, Note_on_c, 14, 47, 0
20, 10050, Note_on_c, 14, 50, 90
20, 10079, Note_on_c, 14, 50, 0
20, 10080, Note_on_c, 14, 49, 90
20, 10109, Note_on_c, 14, 49, 0
20, 10110, Note_on_c, 14, 47, 90
20, 10139, Note_on_c, 14, 47, 0
20, 10140, Note_on_c, 14, 49, 90
20, 10169, Note_on_c, 14, 49, 0
20, 10170, Note_on_c, 14, 52, 90
20, 10199, Note_on_c, 14, 52, 0
20, 10200, Note_on_c, 14, 51, 90
20, 10229, Note_on_c, 14, 51, 0
20, 10230, Note_on_c, 14, 54, 90
20, 10259, Note_on_c, 14, 54, 0
20, 10260, Note_on_c, 14, 52, 90
20, 10289, Note_on_c, 14, 52, 0
20, 10290, Note_on_c, 14, 50, 90
20, 10319, Note_on_c, 14, 50, 0
20, 10320, Note_on_c, 14, 52, 90
20, 10349, Note_on_c, 14, 52, 0
20, 10350, Note_on_c, 14, 55, 90
20, 10379, Note_on_c, 14, 55, 0
20, 10380, Note_on_c, 14, 54, 90
20, 10409, Note_on_c, 14, 54, 0
20, 10410, Note_on_c, 14, 57, 90
20, 10439, Note_on_c, 14, 57, 0
20, 10440, Note_on_c, 14, 55, 90
20, 10469, Note_on_c, 14, 55, 0
20, 10470, Note_on_c, 14, 57, 90
20, 10499, Note_on_c, 14, 57, 0
20, 10500, Note_on_c, 14, 54, 90
20, 10529, Note_on_c, 14, 54, 0
20, 10530, Note_on_c, 14, 55, 90
20, 10559, Note_on_c, 14, 55, 0
20, 10560, Note_on_c, 14, 52, 90
20, 10589, Note_on_c, 14, 52, 0
20, 10590, Note_on_c, 14, 54, 90
20, 10619, Note_on_c, 14, 54, 0
20, 10620, Note_on_c, 14, 50, 90
20, 10649, Note_on_c, 14, 50, 0
20, 10650, Note_on_c, 14, 49, 90
20, 10679, Note_on_c, 14, 49, 0
20, 10680, Note_on_c, 14, 50, 90
20, 10709, Note_on_c, 14, 50, 0
20, 10710, Note_on_c, 14, 54, 90
20, 10739, Note_on_c, 14, 54, 0
20, 10740, Note_on_c, 14, 52, 90
20, 10769, Note_on_c, 14, 52, 0
20, 10770, Note_on_c, 14, 55, 90
20, 10799, Note_on_c, 14, 55, 0
20, 10800, Note_on_c, 14, 54, 90
20, 10829, Note_on_c, 14, 54, 0
20, 10830, Note_on_c, 14, 52, 90
20, 10859, Note_on_c, 14, 52, 0
20, 10860, Note_on_c, 14, 54, 90
20, 10889, Note_on_c, 14, 54, 0
20, 10890, Note_on_c, 14, 57, 90
20, 10919, Note_on_c, 14, 57, 0
20, 10920, Note_on_c, 14, 56, 90
20, 10949, Note_on_c, 14, 56, 0
20, 10950, Note_on_c, 14, 59, 90
20, 10979, Note_on_c, 14, 59, 0
20, 10980, Note_on_c, 14, 57, 90
20, 11009, Note_on_c, 14, 57, 0
20, 11010, Note_on_c, 14, 56, 90
20, 11039, Note_on_c, 14, 56, 0
20, 11040, Note_on_c, 14, 57, 90
20, 11069, Note_on_c, 14, 57, 0
20, 11070, Note_on_c, 14, 59, 90
20, 11099, Note_on_c, 14, 59, 0
20, 11100, Note_on_c, 14, 57, 90
20, 11129, Note_on_c, 14, 57, 0
20, 11130, Note_on_c, 14, 59, 90
20, 11159, Note_on_c, 14, 59, 0
20, 11160, Note_on_c, 14, 55, 90
20, 11189, Note_on_c, 14, 55, 0
20, 11190, Note_on_c, 14, 54, 90
20, 11219, Note_on_c, 14, 54, 0
20, 11220, Note_on_c, 14, 55, 90
20, 11249, Note_on_c, 14, 55, 0
20, 11250, Note_on_c, 14, 57, 90
20, 11279, Note_on_c, 14, 57, 0
20, 11280, Note_on_c, 14, 54, 90
20, 11309, Note_on_c, 14, 54, 0
20, 11310, Note_on_c, 14, 55, 90
20, 11339, Note_on_c, 14, 55, 0
20, 11340, Note_on_c, 14, 52, 90
20, 11369, Note_on_c, 14, 52, 0
20, 11370, Note_on_c, 14, 50, 90
20, 11399, Note_on_c, 14, 50, 0
20, 11400, Note_on_c, 14, 52, 90
20, 11429, Note_on_c, 14, 52, 0
20, 11430, Note_on_c, 14, 54, 90
20, 11459, Note_on_c, 14, 54, 0
20, 11460, Note_on_c, 14, 50, 90
20, 11489, Note_on_c, 14, 50, 0
20, 11490, Note_on_c, 14, 52, 90
20, 11519, Note_on_c, 14, 52, 0
20, 11520, Note_on_c, 14, 49, 90
20, 11549, Note_on_c, 14, 49, 0
20, 11550, Note_on_c, 14, 47, 90
20, 11579, Note_on_c, 14, 47, 0
20, 11580, Note_on_c, 14, 49, 90
20, 11609, Note_on_c, 14, 49, 0
20, 11610, Note_on_c, 14, 50, 90
20, 11639, Note_on_c, 14, 50, 0
20, 11640, Note_on_c, 14, 47, 90
20, 11669, Note_on_c, 14, 47, 0
20, 11670, Note_on_c, 14, 49, 90
20, 11699, Note_on_c, 14, 49, 0
20, 11700, Note_on_c, 14, 46, 90
20, 11729, Note_on_c, 14, 46, 0
20, 11730, Note_on_c, 14, 55, 90
20, 11759, Note_on_c, 14, 55, 0
20, 11760, Note_on_c, 14, 54, 90
20, 11789, Note_on_c, 14, 54, 0
20, 11790, Note_on_c, 14, 55, 90
20, 11819, Note_on_c, 14, 55, 0
20, 11820, Note_on_c, 14, 52, 90
20, 11849, Note_on_c, 14, 52, 0
20, 11850, Note_on_c, 14, 54, 90
20, 11879, Note_on_c, 14, 54, 0
20, 11880, Note_on_c, 14, 50, 90
20, 11909, Note_on_c, 14, 50, 0
20, 11910, Note_on_c, 14, 49, 90
20, 11939, Note_on_c, 14, 49, 0
20, 11940, Note_on_c, 14, 50, 90
20, 11969, Note_on_c, 14, 50, 0
20, 11970, Note_on_c, 14, 52, 90
20, 11999, Note_on_c, 14, 52, 0
20, 12000, Note_on_c, 14, 49, 90
20, 12029, Note_on_c, 14, 49, 0
20, 12030, Note_on_c, 14, 50, 90
20, 12059, Note_on_c, 14, 50, 0
20, 12060, Note_on_c, 14, 47, 90
20, 12089, Note_on_c, 14, 47, 0
20, 12090, Note_on_c, 14, 46, 90
20, 12119, Note_on_c, 14, 46, 0
20, 12120, Note_on_c, 14, 47, 90
20, 12149, Note_on_c, 14, 47, 0
20, 12150, Note_on_c, 14, 49, 90
20, 12179, Note_on_c, 14, 49, 0
20, 12180, Note_on_c, 14, 45, 90
20, 12209, Note_on_c, 14, 45, 0
20, 12210, Note_on_c, 14, 47, 90
20, 12239, Note_on_c, 14, 47, 0
20, 12240, Note_on_c, 14, 44, 90
20, 12269, Note_on_c, 14, 44, 0
20, 12270, Note_on_c, 14, 42, 90
20, 12299, Note_on_c, 14, 42, 0
20, 12300, Note_on_c, 14, 44, 90
20, 12329, Note_on_c, 14, 44, 0
20, 12330, Note_on_c, 14, 45, 90
20, 12359, Note_on_c, 14, 45, 0
20, 12360, Note_on_c, 14, 42, 90
20, 12389, Note_on_c, 14, 42, 0
20, 12390, Note_on_c, 14, 44, 90
20, 12419, Note_on_c, 14, 44, 0
20, 12420, Note_on_c, 14, 40, 90
20, 12449, Note_on_c, 14, 40, 0
20, 12450, Note_on_c, 14, 54, 90
20, 12479, Note_on_c, 14, 54, 0
20, 12480, Note_on_c, 14, 52, 90
20, 12509, Note_on_c, 14, 52, 0
20, 12510, Note_on_c, 14, 54, 90
20, 12539, Note_on_c, 14, 54, 0
20, 12540, Note_on_c, 14, 50, 90
20, 12569, Note_on_c, 14, 50, 0
20, 12570, Note_on_c, 14, 52, 90
20, 12599, Note_on_c, 14, 52, 0
20, 12600, Note_on_c, 14, 49, 90
20, 12629, Note_on_c, 14, 49, 0
20, 12630, Note_on_c, 14, 47, 90
20, 12659, Note_on_c, 14, 47, 0
20, 12660, Note_on_c, 14, 49, 90
20, 12689, Note_on_c, 14, 49, 0
20, 12690, Note_on_c, 14, 50, 90
20, 12719, Note_on_c, 14, 50, 0
20, 12720, Note_on_c, 14, 47, 90
20, 12749, Note_on_c, 14, 47, 0
20, 12750, Note_on_c, 14, 49, 90
20, 12779, Note_on_c, 14, 49, 0
20, 12780, Note_on_c, 14, 45, 90
20, 12809, Note_on_c, 14, 45, 0
20, 12810, Note_on_c, 14, 44, 90
20, 12839, Note_on_c, 14, 44, 0
20, 12840, Note_on_c, 14, 45, 90
20, 12869, Note_on_c, 14, 45, 0
20, 12870, Note_on_c, 14, 47, 90
20, 12899, Note_on_c, 14, 47, 0
20, 12900, Note_on_c, 14, 44, 90
20, 12929, Note_on_c, 14, 44, 0
20, 12930, Note_on_c, 14, 45, 90
20, 12959, Note_on_c, 14, 45, 0
20, 12960, Note_on_c, 14, 42, 90
20, 12989, Note_on_c, 14, 42, 0
20, 13020, Note_on_c, 14, 54, 90
20, 13049, Note_on_c, 14, 54, 0
20, 13080, Note_on_c, 14, 52, 90
20, 13109, Note_on_c, 14, 52, 0
20, 13140, Note_on_c, 14, 51, 90
20, 13214, Note_on_c, 14, 51, 0
20, 13215, Note_on_c, 14, 52, 90
20, 13229, Note_on_c, 14, 52, 0
20, 13230, Note_on_c, 14, 51, 90
20, 13244, Note_on_c, 14, 51, 0
20, 13245, Note_on_c, 14, 49, 90
20, 13259, Note_on_c, 14, 49, 0
20, 13260, Note_on_c, 14, 47, 90
20, 13274, Note_on_c, 14, 47, 0
20, 13275, Note_on_c, 14, 45, 90
20, 13289, Note_on_c, 14, 45, 0
20, 13290, Note_on_c, 14, 44, 90
20, 13304, Note_on_c, 14, 44, 0
20, 13305, Note_on_c, 14, 42, 90
20, 13319, Note_on_c, 14, 42, 0
20, 13320, Note_on_c, 14, 40, 90
20, 13349, Note_on_c, 14, 40, 0
20, 13380, Note_on_c, 14, 52, 90
20, 13409, Note_on_c, 14, 52, 0
20, 13440, Note_on_c, 14, 50, 90
20, 13469, Note_on_c, 14, 50, 0
20, 13500, Note_on_c, 14, 49, 90
20, 13574, Note_on_c, 14, 49, 0
20, 13575, Note_on_c, 14, 50, 90
20, 13589, Note_on_c, 14, 50, 0
20, 13590, Note_on_c, 14, 49, 90
20, 13604, Note_on_c, 14, 49, 0
20, 13605, Note_on_c, 14, 47, 90
20, 13619, Note_on_c, 14, 47, 0
20, 13620, Note_on_c, 14, 45, 90
20, 13634, Note_on_c, 14, 45, 0
20, 13635, Note_on_c, 14, 43, 90
20, 13649, Note_on_c, 14, 43, 0
20, 13650, Note_on_c, 14, 42, 90
20, 13664, Note_on_c, 14, 42, 0
20, 13665, Note_on_c, 14, 40, 90
20, 13679, Note_on_c, 14, 40, 0
20, 13680, Note_on_c, 14, 38, 90
20, 13709, Note_on_c, 14, 38, 0
20, 13740, Note_on_c, 14, 50, 90
20, 13769, Note_on_c, 14, 50, 0
20, 13800, Note_on_c, 14, 49, 90
20, 13829, Note_on_c, 14, 49, 0
20, 13860, Note_on_c, 14, 47, 90
20, 13889, Note_on_c, 14, 47, 0
20, 13920, Note_on_c, 14, 42, 90
20, 13949, Note_on_c, 14, 42, 0
20, 13980, Note_on_c, 14, 45, 90
20, 14009, Note_on_c, 14, 45, 0
20, 14040, Note_on_c, 14, 44, 90
20, 14069, Note_on_c, 14, 44, 0
20, 14100, Note_on_c, 14, 42, 90
20, 14129, Note_on_c, 14, 42, 0
20, 14160, Note_on_c, 14, 40, 90
20, 14189, Note_on_c, 14, 40, 0
20, 14220, Note_on_c, 14, 45, 90
20, 14249, Note_on_c, 14, 45, 0
20, 14280, Note_on_c, 14, 38, 90
20, 14309, Note_on_c, 14, 38, 0
20, 14340, Note_on_c, 14, 40, 90
20, 14369, Note_on_c, 14, 40, 0
20, 14400, Note_on_c, 14, 45, 90
20, 14429, Note_on_c, 14, 45, 0
20, 14460, Note_on_c, 14, 49, 90
20, 14519, Note_on_c, 14, 49, 0
20, 14520, Note_on_c, 14, 45, 90
20, 14579, Note_on_c, 14, 45, 0
20, 14580, Note_on_c, 14, 52, 90
20, 14639, Note_on_c, 14, 52, 0
20, 14760, Note_on_c, 14, 52, 90
20, 14819, Note_on_c, 14, 52, 0
20, 14820, Note_on_c, 14, 56, 90
20, 14879, Note_on_c, 14, 56, 0
20, 14880, Note_on_c, 14, 52, 90
20, 14939, Note_on_c, 14, 52, 0
20, 14940, Note_on_c, 14, 57, 90
20, 14999, Note_on_c, 14, 57, 0
20, 15120, Note_on_c, 14, 58, 90
20, 15149, Note_on_c, 14, 58, 0
20, 15150, Note_on_c, 14, 58, 90
20, 15179, Note_on_c, 14, 58, 0
20, 15180, Note_on_c, 14, 58, 90
20, 15209, Note_on_c, 14, 58, 0
20, 15210, Note_on_c, 14, 58, 90
20, 15239, Note_on_c, 14, 58, 0
20, 15240, Note_on_c, 14, 58, 90
20, 15269, Note_on_c, 14, 58, 0
20, 15270, Note_on_c, 14, 58, 90
20, 15299, Note_on_c, 14, 58, 0
20, 15300, Note_on_c, 14, 59, 90
20, 15329, Note_on_c, 14, 59, 0
20, 15360, Note_on_c, 14, 47, 90
20, 15389, Note_on_c, 14, 47, 0
20, 15420, Note_on_c, 14, 59, 90
20, 15449, Note_on_c, 14, 59, 0
20, 15480, Note_on_c, 14, 54, 90
20, 15509, Note_on_c, 14, 54, 0
20, 15540, Note_on_c, 14, 42, 90
20, 15569, Note_on_c, 14, 42, 0
20, 15600, Note_on_c, 14, 43, 90
20, 15629, Note_on_c, 14, 43, 0
20, 15660, Note_on_c, 14, 45, 90
20, 15689, Note_on_c, 14, 45, 0
20, 15720, Note_on_c, 14, 49, 90
20, 15749, Note_on_c, 14, 49, 0
20, 15780, Note_on_c, 14, 45, 90
20, 15809, Note_on_c, 14, 45, 0
20, 15840, Note_on_c, 14, 50, 90
20, 15899, Note_on_c, 14, 50, 0
20, 16200, Note_on_c, 14, 38, 90
20, 16259, Note_on_c, 14, 38, 0
20, 16560, Note_on_c, 14, 50, 90
20, 16619, Note_on_c, 14, 50, 0
20, 16920, Note_on_c, 14, 38, 90
20, 16979, Note_on_c, 14, 38, 0
20, 17280, Note_on_c, 14, 50, 90
20, 17339, Note_on_c, 14, 50, 0
20, 17475, Note_on_c, 14, 50, 90
20, 17489, Note_on_c, 14, 50, 0
20, 17490, Note_on_c, 14, 49, 90
20, 17504, Note_on_c, 14, 49, 0
20, 17505, Note_on_c, 14, 47, 90
20, 17519, Note_on_c, 14, 47, 0
20, 17520, Note_on_c, 14, 45, 90
20, 17534, Note_on_c, 14, 45, 0
20, 17535, Note_on_c, 14, 50, 90
20, 17549, Note_on_c, 14, 50, 0
20, 17550, Note_on_c, 14, 49, 90
20, 17564, Note_on_c, 14, 49, 0
20, 17565, Note_on_c, 14, 47, 90
20, 17579, Note_on_c, 14, 47, 0
20, 17580, Note_on_c, 14, 45, 90
20, 17594, Note_on_c, 14, 45, 0
20, 17595, Note_on_c, 14, 43, 90
20, 17609, Note_on_c, 14, 43, 0
20, 17610, Note_on_c, 14, 42, 90
20, 17624, Note_on_c, 14, 42, 0
20, 17625, Note_on_c, 14, 40, 90
20, 17639, Note_on_c, 14, 40, 0
20, 17640, Note_on_c, 14, 38, 90
20, 17699, Note_on_c, 14, 38, 0
20, 17700, Note_on_c, 14, 42, 90
20, 17759, Note_on_c, 14, 42, 0
20, 17760, Note_on_c, 14, 38, 90
20, 17819, Note_on_c, 14, 38, 0
20, 17820, Note_on_c, 14, 45, 90
20, 17939, Note_on_c, 14, 45, 0
20, 18000, Note_on_c, 14, 45, 90
20, 18059, Note_on_c, 14, 45, 0
20, 18060, Note_on_c, 14, 49, 90
20, 18119, Note_on_c, 14, 49, 0
20, 18120, Note_on_c, 14, 45, 90
20, 18179, Note_on_c, 14, 45, 0
20, 18180, Note_on_c, 14, 50, 90
20, 18299, Note_on_c, 14, 50, 0
20, 18360, Note_on_c, 14, 50, 90
20, 18389, Note_on_c, 14, 50, 0
20, 18390, Note_on_c, 14, 52, 90
20, 18419, Note_on_c, 14, 52, 0
20, 18420, Note_on_c, 14, 54, 90
20, 18449, Note_on_c, 14, 54, 0
20, 18450, Note_on_c, 14, 52, 90
20, 18479, Note_on_c, 14, 52, 0
20, 18480, Note_on_c, 14, 54, 90
20, 18509, Note_on_c, 14, 54, 0
20, 18510, Note_on_c, 14, 50, 90
20, 18539, Note_on_c, 14, 50, 0
20, 18540, Note_on_c, 14, 55, 90
20, 18569, Note_on_c, 14, 55, 0
20, 18570, Note_on_c, 14, 57, 90
20, 18599, Note_on_c, 14, 57, 0
20, 18600, Note_on_c, 14, 54, 90
20, 18629, Note_on_c, 14, 54, 0
20, 18630, Note_on_c, 14, 55, 90
20, 18659, Note_on_c, 14, 55, 0
20, 18660, Note_on_c, 14, 52, 90
20, 18689, Note_on_c, 14, 52, 0
20, 18690, Note_on_c, 14, 54, 90
20, 18719, Note_on_c, 14, 54, 0
20, 18720, Note_on_c, 14, 50, 90
20, 18749, Note_on_c, 14, 50, 0
20, 18750, Note_on_c, 14, 62, 90
20, 18779, Note_on_c, 14, 62, 0
20, 18780, Note_on_c, 14, 61, 90
20, 18809, Note_on_c, 14, 61, 0
20, 18810, Note_on_c, 14, 62, 90
20, 18839, Note_on_c, 14, 62, 0
20, 18840, Note_on_c, 14, 59, 90
20, 18869, Note_on_c, 14, 59, 0
20, 18870, Note_on_c, 14, 61, 90
20, 18899, Note_on_c, 14, 61, 0
20, 18900, Note_on_c, 14, 57, 90
20, 18929, Note_on_c, 14, 57, 0
20, 18930, Note_on_c, 14, 59, 90
20, 18959, Note_on_c, 14, 59, 0
20, 18960, Note_on_c, 14, 55, 90
20, 18989, Note_on_c, 14, 55, 0
20, 18990, Note_on_c, 14, 57, 90
20, 19019, Note_on_c, 14, 57, 0
20, 19020, Note_on_c, 14, 54, 90
20, 19049, Note_on_c, 14, 54, 0
20, 19050, Note_on_c, 14, 55, 90
20, 19079, Note_on_c, 14, 55, 0
20, 19080, Note_on_c, 14, 52, 90
20, 19109, Note_on_c, 14, 52, 0
20, 19110, Note_on_c, 14, 54, 90
20, 19139, Note_on_c, 14, 54, 0
20, 19140, Note_on_c, 14, 50, 90
20, 19169, Note_on_c, 14, 50, 0
20, 19170, Note_on_c, 14, 52, 90
20, 19199, Note_on_c, 14, 52, 0
20, 19200, Note_on_c, 14, 49, 90
20, 19229, Note_on_c, 14, 49, 0
20, 19230, Note_on_c, 14, 50, 90
20, 19259, Note_on_c, 14, 50, 0
20, 19260, Note_on_c, 14, 47, 90
20, 19289, Note_on_c, 14, 47, 0
20, 19290, Note_on_c, 14, 59, 90
20, 19319, Note_on_c, 14, 59, 0
20, 19320, Note_on_c, 14, 57, 90
20, 19349, Note_on_c, 14, 57, 0
20, 19350, Note_on_c, 14, 59, 90
20, 19379, Note_on_c, 14, 59, 0
20, 19380, Note_on_c, 14, 55, 90
20, 19409, Note_on_c, 14, 55, 0
20, 19410, Note_on_c, 14, 57, 90
20, 19439, Note_on_c, 14, 57, 0
20, 19440, Note_on_c, 14, 54, 90
20, 19469, Note_on_c, 14, 54, 0
20, 19470, Note_on_c, 14, 55, 90
20, 19499, Note_on_c, 14, 55, 0
20, 19500, Note_on_c, 14, 52, 90
20, 19529, Note_on_c, 14, 52, 0
20, 19530, Note_on_c, 14, 54, 90
20, 19559, Note_on_c, 14, 54, 0
20, 19560, Note_on_c, 14, 50, 90
20, 19589, Note_on_c, 14, 50, 0
20, 19590, Note_on_c, 14, 52, 90
20, 19619, Note_on_c, 14, 52, 0
20, 19620, Note_on_c, 14, 49, 90
20, 19649, Note_on_c, 14, 49, 0
20, 19650, Note_on_c, 14, 47, 90
20, 19679, Note_on_c, 14, 47, 0
20, 19680, Note_on_c, 14, 49, 90
20, 19709, Note_on_c, 14, 49, 0
20, 19710, Note_on_c, 14, 52, 90
20, 19739, Note_on_c, 14, 52, 0
20, 19740, Note_on_c, 14, 51, 90
20, 19769, Note_on_c, 14, 51, 0
20, 19770, Note_on_c, 14, 54, 90
20, 19799, Note_on_c, 14, 54, 0
20, 19800, Note_on_c, 14, 52, 90
20, 19829, Note_on_c, 14, 52, 0
20, 19830, Note_on_c, 14, 54, 90
20, 19859, Note_on_c, 14, 54, 0
20, 19860, Note_on_c, 14, 50, 90
20, 19889, Note_on_c, 14, 50, 0
20, 19890, Note_on_c, 14, 52, 90
20, 19919, Note_on_c, 14, 52, 0
20, 19920, Note_on_c, 14, 49, 90
20, 19949, Note_on_c, 14, 49, 0
20, 19950, Note_on_c, 14, 50, 90
20, 19979, Note_on_c, 14, 50, 0
20, 19980, Note_on_c, 14, 47, 90
20, 20009, Note_on_c, 14, 47, 0
20, 20010, Note_on_c, 14, 49, 90
20, 20039, Note_on_c, 14, 49, 0
20, 20040, Note_on_c, 14, 45, 90
20, 20069, Note_on_c, 14, 45, 0
20, 20070, Note_on_c, 14, 47, 90
20, 20099, Note_on_c, 14, 47, 0
20, 20100, Note_on_c, 14, 43, 90
20, 20129, Note_on_c, 14, 43, 0
20, 20130, Note_on_c, 14, 45, 90
20, 20159, Note_on_c, 14, 45, 0
20, 20160, Note_on_c, 14, 42, 90
20, 20189, Note_on_c, 14, 42, 0
20, 20190, Note_on_c, 14, 40, 90
20, 20219, Note_on_c, 14, 40, 0
20, 20220, Note_on_c, 14, 42, 90
20, 20249, Note_on_c, 14, 42, 0
20, 20250, Note_on_c, 14, 45, 90
20, 20279, Note_on_c, 14, 45, 0
20, 20280, Note_on_c, 14, 44, 90
20, 20309, Note_on_c, 14, 44, 0
20, 20310, Note_on_c, 14, 47, 90
20, 20339, Note_on_c, 14, 47, 0
20, 20340, Note_on_c, 14, 45, 90
20, 20369, Note_on_c, 14, 45, 0
20, 20370, Note_on_c, 14, 49, 90
20, 20399, Note_on_c, 14, 49, 0
20, 20400, Note_on_c, 14, 47, 90
20, 20429, Note_on_c, 14, 47, 0
20, 20430, Note_on_c, 14, 50, 90
20, 20459, Note_on_c, 14, 50, 0
20, 20460, Note_on_c, 14, 49, 90
20, 20489, Note_on_c, 14, 49, 0
20, 20490, Note_on_c, 14, 52, 90
20, 20519, Note_on_c, 14, 52, 0
20, 20520, Note_on_c, 14, 50, 90
20, 20549, Note_on_c, 14, 50, 0
20, 20550, Note_on_c, 14, 52, 90
20, 20579, Note_on_c, 14, 52, 0
20, 20580, Note_on_c, 14, 49, 90
20, 20609, Note_on_c, 14, 49, 0
20, 20610, Note_on_c, 14, 50, 90
20, 20639, Note_on_c, 14, 50, 0
20, 20640, Note_on_c, 14, 47, 90
20, 20669, Note_on_c, 14, 47, 0
20, 20670, Note_on_c, 14, 49, 90
20, 20699, Note_on_c, 14, 49, 0
20, 20700, Note_on_c, 14, 45, 90
20, 20729, Note_on_c, 14, 45, 0
20, 20730, Note_on_c, 14, 57, 90
20, 20759, Note_on_c, 14, 57, 0
20, 20760, Note_on_c, 14, 55, 90
20, 20789, Note_on_c, 14, 55, 0
20, 20790, Note_on_c, 14, 57, 90
20, 20819, Note_on_c, 14, 57, 0
20, 20820, Note_on_c, 14, 54, 90
20, 20849, Note_on_c, 14, 54, 0
20, 20850, Note_on_c, 14, 55, 90
20, 20879, Note_on_c, 14, 55, 0
20, 20880, Note_on_c, 14, 52, 90
20, 20909, Note_on_c, 14, 52, 0
20, 20910, Note_on_c, 14, 50, 90
20, 20939, Note_on_c, 14, 50, 0
20, 20940, Note_on_c, 14, 52, 90
20, 20969, Note_on_c, 14, 52, 0
20, 20970, Note_on_c, 14, 55, 90
20, 20999, Note_on_c, 14, 55, 0
20, 21000, Note_on_c, 14, 54, 90
20, 21029, Note_on_c, 14, 54, 0
20, 21030, Note_on_c, 14, 57, 90
20, 21059, Note_on_c, 14, 57, 0
20, 21060, Note_on_c, 14, 55, 90
20, 21089, Note_on_c, 14, 55, 0
20, 21090, Note_on_c, 14, 57, 90
20, 21119, Note_on_c, 14, 57, 0
20, 21120, Note_on_c, 14, 54, 90
20, 21149, Note_on_c, 14, 54, 0
20, 21150, Note_on_c, 14, 55, 90
20, 21179, Note_on_c, 14, 55, 0
20, 21180, Note_on_c, 14, 52, 90
20, 21209, Note_on_c, 14, 52, 0
20, 21210, Note_on_c, 14, 54, 90
20, 21239, Note_on_c, 14, 54, 0
20, 21240, Note_on_c, 14, 50, 90
20, 21269, Note_on_c, 14, 50, 0
20, 21270, Note_on_c, 14, 62, 90
20, 21299, Note_on_c, 14, 62, 0
20, 21300, Note_on_c, 14, 61, 90
20, 21329, Note_on_c, 14, 61, 0
20, 21330, Note_on_c, 14, 62, 90
20, 21359, Note_on_c, 14, 62, 0
20, 21360, Note_on_c, 14, 59, 90
20, 21389, Note_on_c, 14, 59, 0
20, 21390, Note_on_c, 14, 61, 90
20, 21419, Note_on_c, 14, 61, 0
20, 21420, Note_on_c, 14, 57, 90
20, 21449, Note_on_c, 14, 57, 0
20, 21450, Note_on_c, 14, 55, 90
20, 21479, Note_on_c, 14, 55, 0
20, 21480, Note_on_c, 14, 57, 90
20, 21509, Note_on_c, 14, 57, 0
20, 21510, Note_on_c, 14, 59, 90
20, 21539, Note_on_c, 14, 59, 0
20, 21540, Note_on_c, 14, 55, 90
20, 21569, Note_on_c, 14, 55, 0
20, 21570, Note_on_c, 14, 57, 90
20, 21599, Note_on_c, 14, 57, 0
20, 21600, Note_on_c, 14, 54, 90
20, 21629, Note_on_c, 14, 54, 0
20, 21630, Note_on_c, 14, 52, 90
20, 21659, Note_on_c, 14, 52, 0
20, 21660, Note_on_c, 14, 54, 90
20, 21689, Note_on_c, 14, 54, 0
20, 21690, Note_on_c, 14, 55, 90
20, 21719, Note_on_c, 14, 55, 0
20, 21720, Note_on_c, 14, 52, 90
20, 21749, Note_on_c, 14, 52, 0
20, 21750, Note_on_c, 14, 54, 90
20, 21779, Note_on_c, 14, 54, 0
20, 21780, Note_on_c, 14, 51, 90
20, 21809, Note_on_c, 14, 51, 0
20, 21810, Note_on_c, 14, 60, 90
20, 21839, Note_on_c, 14, 60, 0
20, 21840, Note_on_c, 14, 59, 90
20, 21869, Note_on_c, 14, 59, 0
20, 21870, Note_on_c, 14, 60, 90
20, 21899, Note_on_c, 14, 60, 0
20, 21900, Note_on_c, 14, 57, 90
20, 21929, Note_on_c, 14, 57, 0
20, 21930, Note_on_c, 14, 59, 90
20, 21959, Note_on_c, 14, 59, 0
20, 21960, Note_on_c, 14, 55, 90
20, 21989, Note_on_c, 14, 55, 0
20, 21990, Note_on_c, 14, 54, 90
20, 22019, Note_on_c, 14, 54, 0
20, 22020, Note_on_c, 14, 55, 90
20, 22049, Note_on_c, 14, 55, 0
20, 22050, Note_on_c, 14, 57, 90
20, 22079, Note_on_c, 14, 57, 0
20, 22080, Note_on_c, 14, 54, 90
20, 22109, Note_on_c, 14, 54, 0
20, 22110, Note_on_c, 14, 55, 90
20, 22139, Note_on_c, 14, 55, 0
20, 22140, Note_on_c, 14, 52, 90
20, 22169, Note_on_c, 14, 52, 0
20, 22170, Note_on_c, 14, 51, 90
20, 22199, Note_on_c, 14, 51, 0
20, 22200, Note_on_c, 14, 52, 90
20, 22229, Note_on_c, 14, 52, 0
20, 22230, Note_on_c, 14, 54, 90
20, 22259, Note_on_c, 14, 54, 0
20, 22260, Note_on_c, 14, 50, 90
20, 22289, Note_on_c, 14, 50, 0
20, 22290, Note_on_c, 14, 52, 90
20, 22319, Note_on_c, 14, 52, 0
20, 22320, Note_on_c, 14, 49, 90
20, 22349, Note_on_c, 14, 49, 0
20, 22350, Note_on_c, 14, 47, 90
20, 22379, Note_on_c, 14, 47, 0
20, 22380, Note_on_c, 14, 49, 90
20, 22409, Note_on_c, 14, 49, 0
20, 22410, Note_on_c, 14, 50, 90
20, 22439, Note_on_c, 14, 50, 0
20, 22440, Note_on_c, 14, 47, 90
20, 22469, Note_on_c, 14, 47, 0
20, 22470, Note_on_c, 14, 49, 90
20, 22499, Note_on_c, 14, 49, 0
20, 22500, Note_on_c, 14, 45, 90
20, 22529, Note_on_c, 14, 45, 0
20, 22530, Note_on_c, 14, 59, 90
20, 22559, Note_on_c, 14, 59, 0
20, 22560, Note_on_c, 14, 57, 90
20, 22589, Note_on_c, 14, 57, 0
20, 22590, Note_on_c, 14, 59, 90
20, 22619, Note_on_c, 14, 59, 0
20, 22620, Note_on_c, 14, 55, 90
20, 22649, Note_on_c, 14, 55, 0
20, 22650, Note_on_c, 14, 57, 90
20, 22679, Note_on_c, 14, 57, 0
20, 22680, Note_on_c, 14, 54, 90
20, 22709, Note_on_c, 14, 54, 0
20, 22710, Note_on_c, 14, 52, 90
20, 22739, Note_on_c, 14, 52, 0
20, 22740, Note_on_c, 14, 54, 90
20, 22769, Note_on_c, 14, 54, 0
20, 22770, Note_on_c, 14, 55, 90
20, 22799, Note_on_c, 14, 55, 0
20, 22800, Note_on_c, 14, 52, 90
20, 22829, Note_on_c, 14, 52, 0
20, 22830, Note_on_c, 14, 54, 90
20, 22859, Note_on_c, 14, 54, 0
20, 22860, Note_on_c, 14, 50, 90
20, 22889, Note_on_c, 14, 50, 0
20, 22890, Note_on_c, 14, 49, 90
20, 22919, Note_on_c, 14, 49, 0
20, 22920, Note_on_c, 14, 50, 90
20, 22949, Note_on_c, 14, 50, 0
20, 22950, Note_on_c, 14, 52, 90
20, 22979, Note_on_c, 14, 52, 0
20, 22980, Note_on_c, 14, 49, 90
20, 23009, Note_on_c, 14, 49, 0
20, 23010, Note_on_c, 14, 50, 90
20, 23039, Note_on_c, 14, 50, 0
20, 23040, Note_on_c, 14, 47, 90
20, 23069, Note_on_c, 14, 47, 0
20, 23100, Note_on_c, 14, 59, 90
20, 23129, Note_on_c, 14, 59, 0
20, 23160, Note_on_c, 14, 57, 90
20, 23189, Note_on_c, 14, 57, 0
20, 23220, Note_on_c, 14, 56, 90
20, 23294, Note_on_c, 14, 56, 0
20, 23295, Note_on_c, 14, 57, 90
20, 23309, Note_on_c, 14, 57, 0
20, 23310, Note_on_c, 14, 56, 90
20, 23324, Note_on_c, 14, 56, 0
20, 23325, Note_on_c, 14, 54, 90
20, 23339, Note_on_c, 14, 54, 0
20, 23340, Note_on_c, 14, 52, 90
20, 23354, Note_on_c, 14, 52, 0
20, 23355, Note_on_c, 14, 50, 90
20, 23369, Note_on_c, 14, 50, 0
20, 23370, Note_on_c, 14, 49, 90
20, 23384, Note_on_c, 14, 49, 0
20, 23385, Note_on_c, 14, 47, 90
20, 23399, Note_on_c, 14, 47, 0
20, 23400, Note_on_c, 14, 45, 90
20, 23429, Note_on_c, 14, 45, 0
20, 23460, Note_on_c, 14, 57, 90
20, 23489, Note_on_c, 14, 57, 0
20, 23520, Note_on_c, 14, 55, 90
20, 23549, Note_on_c, 14, 55, 0
20, 23580, Note_on_c, 14, 54, 90
20, 23654, Note_on_c, 14, 54, 0
20, 23655, Note_on_c, 14, 55, 90
20, 23669, Note_on_c, 14, 55, 0
20, 23670, Note_on_c, 14, 54, 90
20, 23684, Note_on_c, 14, 54, 0
20, 23685, Note_on_c, 14, 52, 90
20, 23699, Note_on_c, 14, 52, 0
20, 23700, Note_on_c, 14, 50, 90
20, 23714, Note_on_c, 14, 50, 0
20, 23715, Note_on_c, 14, 49, 90
20, 23729, Note_on_c, 14, 49, 0
20, 23730, Note_on_c, 14, 47, 90
20, 23744, Note_on_c, 14, 47, 0
20, 23745, Note_on_c, 14, 45, 90
20, 23759, Note_on_c, 14, 45, 0
20, 23760, Note_on_c, 14, 43, 90
20, 23819, Note_on_c, 14, 43, 0
20, 23820, Note_on_c, 14, 55, 90
20, 23849, Note_on_c, 14, 55, 0
20, 23880, Note_on_c, 14, 54, 90
20, 23909, Note_on_c, 14, 54, 0
20, 23940, Note_on_c, 14, 52, 90
20, 23969, Note_on_c, 14, 52, 0
20, 24000, Note_on_c, 14, 47, 90
20, 24029, Note_on_c, 14, 47, 0
20, 24060, Note_on_c, 14, 50, 90
20, 24089, Note_on_c, 14, 50, 0
20, 24120, Note_on_c, 14, 49, 90
20, 24149, Note_on_c, 14, 49, 0
20, 24180, Note_on_c, 14, 47, 90
20, 24209, Note_on_c, 14, 47, 0
20, 24240, Note_on_c, 14, 45, 90
20, 24269, Note_on_c, 14, 45, 0
20, 24300, Note_on_c, 14, 50, 90
20, 24329, Note_on_c, 14, 50, 0
20, 24360, Note_on_c, 14, 42, 90
20, 24389, Note_on_c, 14, 42, 0
20, 24420, Note_on_c, 14, 45, 90
20, 24449, Note_on_c, 14, 45, 0
20, 24480, Note_on_c, 14, 38, 90
20, 24539, Note_on_c, 14, 38, 0
20, 24540, Note_on_c, 14, 62, 90
20, 24599, Note_on_c, 14, 62, 0
20, 24600, Note_on_c, 14, 61, 90
20, 24659, Note_on_c, 14, 61, 0
20, 24660, Note_on_c, 14, 59, 90
20, 24719, Note_on_c, 14, 59, 0
20, 24720, Note_on_c, 14, 47, 90
20, 24779, Note_on_c, 14, 47, 0
20, 24780, Note_on_c, 14, 59, 90
20, 24839, Note_on_c, 14, 59, 0
20, 24840, Note_on_c, 14, 57, 90
20, 24899, Note_on_c, 14, 57, 0
20, 24900, Note_on_c, 14, 45, 90
20, 24959, Note_on_c, 14, 45, 0
20, 24960, Note_on_c, 14, 57, 90
20, 25019, Note_on_c, 14, 57, 0
20, 25020, Note_on_c, 14, 55, 90
20, 25079, Note_on_c, 14, 55, 0
20, 25080, Note_on_c, 14, 43, 90
20, 25139, Note_on_c, 14, 43, 0
20, 25140, Note_on_c, 14, 55, 90
20, 25199, Note_on_c, 14, 55, 0
20, 25200, Note_on_c, 14, 54, 90
20, 25259, Note_on_c, 14, 54, 0
20, 25260, Note_on_c, 14, 42, 90
20, 25319, Note_on_c, 14, 42, 0
20, 25320, Note_on_c, 14, 54, 90
20, 25379, Note_on_c, 14, 54, 0
20, 25380, Note_on_c, 14, 59, 90
20, 25439, Note_on_c, 14, 59, 0
20, 25440, Note_on_c, 14, 55, 90
20, 25499, Note_on_c, 14, 55, 0
20, 25500, Note_on_c, 14, 52, 90
20, 25559, Note_on_c, 14, 52, 0
20, 25560, Note_on_c, 14, 57, 90
20, 25619, Note_on_c, 14, 57, 0
20, 25620, Note_on_c, 14, 59, 90
20, 25649, Note_on_c, 14, 59, 0
20, 25650, Note_on_c, 14, 61, 90
20, 25679, Note_on_c, 14, 61, 0
20, 25680, Note_on_c, 14, 62, 90
20, 25799, Note_on_c, 14, 62, 0
20, 25800, Note_on_c, 14, 61, 90
20, 25829, Note_on_c, 14, 61, 0
20, 25830, Note_on_c, 14, 59, 90
20, 25859, Note_on_c, 14, 59, 0
20, 25860, Note_on_c, 14, 57, 90
20, 25889, Note_on_c, 14, 57, 0
20, 25890, Note_on_c, 14, 55, 90
20, 25919, Note_on_c, 14, 55, 0
20, 25920, Note_on_c, 14, 54, 90
20, 25979, Note_on_c, 14, 54, 0
20, 25980, Note_on_c, 14, 56, 90
20, 26009, Note_on_c, 14, 56, 0
20, 26010, Note_on_c, 14, 58, 90
20, 26039, Note_on_c, 14, 58, 0
20, 26040, Note_on_c, 14, 59, 90
20, 26159, Note_on_c, 14, 59, 0
20, 26160, Note_on_c, 14, 57, 90
20, 26189, Note_on_c, 14, 57, 0
20, 26190, Note_on_c, 14, 55, 90
20, 26219, Note_on_c, 14, 55, 0
20, 26220, Note_on_c, 14, 54, 90
20, 26249, Note_on_c, 14, 54, 0
20, 26250, Note_on_c, 14, 52, 90
20, 26279, Note_on_c, 14, 52, 0
20, 26280, Note_on_c, 14, 50, 90
20, 26339, Note_on_c, 14, 50, 0
20, 26340, Note_on_c, 14, 52, 90
20, 26369, Note_on_c, 14, 52, 0
20, 26370, Note_on_c, 14, 54, 90
20, 26399, Note_on_c, 14, 54, 0
20, 26400, Note_on_c, 14, 55, 90
20, 26519, Note_on_c, 14, 55, 0
20, 26520, Note_on_c, 14, 54, 90
20, 26549, Note_on_c, 14, 54, 0
20, 26550, Note_on_c, 14, 52, 90
20, 26579, Note_on_c, 14, 52, 0
20, 26580, Note_on_c, 14, 50, 90
20, 26609, Note_on_c, 14, 50, 0
20, 26610, Note_on_c, 14, 49, 90
20, 26639, Note_on_c, 14, 49, 0
20, 26640, Note_on_c, 14, 47, 90
20, 26699, Note_on_c, 14, 47, 0
20, 26700, Note_on_c, 14, 49, 90
20, 26729, Note_on_c, 14, 49, 0
20, 26730, Note_on_c, 14, 50, 90
20, 26759, Note_on_c, 14, 50, 0
20, 26760, Note_on_c, 14, 52, 90
20, 26819, Note_on_c, 14, 52, 0
20, 26820, Note_on_c, 14, 45, 90
20, 26879, Note_on_c, 14, 45, 0
20, 26880, Note_on_c, 14, 47, 90
20, 26909, Note_on_c, 14, 47, 0
20, 26910, Note_on_c, 14, 49, 90
20, 26939, Note_on_c, 14, 49, 0
20, 26940, Note_on_c, 14, 50, 90
20, 26999, Note_on_c, 14, 50, 0
20, 27000, Note_on_c, 14, 43, 90
20, 27059, Note_on_c, 14, 43, 0
20, 27060, Note_on_c, 14, 55, 90
20, 27089, Note_on_c, 14, 55, 0
20, 27090, Note_on_c, 14, 54, 90
20, 27119, Note_on_c, 14, 54, 0
20, 27120, Note_on_c, 14, 55, 90
20, 27239, Note_on_c, 14, 55, 0
20, 27240, Note_on_c, 14, 54, 90
20, 27299, Note_on_c, 14, 54, 0
20, 27300, Note_on_c, 14, 59, 90
20, 27359, Note_on_c, 14, 59, 0
20, 27360, Note_on_c, 14, 52, 90
20, 27419, Note_on_c, 14, 52, 0
20, 27420, Note_on_c, 14, 57, 90
20, 27479, Note_on_c, 14, 57, 0
20, 27480, Note_on_c, 14, 45, 90
20, 27539, Note_on_c, 14, 45, 0
20, 27540, Note_on_c, 14, 62, 90
20, 27599, Note_on_c, 14, 62, 0
20, 27600, Note_on_c, 14, 50, 90
20, 27659, Note_on_c, 14, 50, 0
20, 27660, Note_on_c, 14, 62, 90
20, 27719, Note_on_c, 14, 62, 0
20, 27720, Note_on_c, 14, 61, 90
20, 27779, Note_on_c, 14, 61, 0
20, 27780, Note_on_c, 14, 49, 90
20, 27839, Note_on_c, 14, 49, 0
20, 27840, Note_on_c, 14, 61, 90
20, 27899, Note_on_c, 14, 61, 0
20, 27900, Note_on_c, 14, 59, 90
20, 27959, Note_on_c, 14, 59, 0
20, 27960, Note_on_c, 14, 47, 90
20, 28019, Note_on_c, 14, 47, 0
20, 28020, Note_on_c, 14, 59, 90
20, 28079, Note_on_c, 14, 59, 0
20, 28080, Note_on_c, 14, 57, 90
20, 28139, Note_on_c, 14, 57, 0
20, 28140, Note_on_c, 14, 45, 90
20, 28199, Note_on_c, 14, 45, 0
20, 28200, Note_on_c, 14, 57, 90
20, 28259, Note_on_c, 14, 57, 0
20, 28260, Note_on_c, 14, 50, 90
20, 28319, Note_on_c, 14, 50, 0
20, 28320, Note_on_c, 14, 38, 90
20, 28379, Note_on_c, 14, 38, 0
20, 28380, Note_on_c, 14, 50, 90
20, 28439, Note_on_c, 14, 50, 0
20, 28440, Note_on_c, 14, 55, 90
20, 28499, Note_on_c, 14, 55, 0
20, 28500, Note_on_c, 14, 52, 90
20, 28559, Note_on_c, 14, 52, 0
20, 28560, Note_on_c, 14, 49, 90
20, 28619, Note_on_c, 14, 49, 0
20, 28620, Note_on_c, 14, 54, 90
20, 28679, Note_on_c, 14, 54, 0
20, 28680, Note_on_c, 14, 55, 90
20, 28709, Note_on_c, 14, 55, 0
20, 28710, Note_on_c, 14, 57, 90
20, 28739, Note_on_c, 14, 57, 0
20, 28740, Note_on_c, 14, 59, 90
20, 28799, Note_on_c, 14, 59, 0
20, 28800, Note_on_c, 14, 52, 90
20, 28859, Note_on_c, 14, 52, 0
20, 28860, Note_on_c, 14, 57, 90
20, 28919, Note_on_c, 14, 57, 0
20, 28920, Note_on_c, 14, 45, 90
20, 28979, Note_on_c, 14, 45, 0
20, 28980, Note_on_c, 14, 50, 90
20, 29039, Note_on_c, 14, 50, 0
20, 29040, Note_on_c, 14, 52, 90
20, 29069, Note_on_c, 14, 52, 0
20, 29070, Note_on_c, 14, 54, 90
20, 29099, Note_on_c, 14, 54, 0
20, 29100, Note_on_c, 14, 55, 90
20, 29159, Note_on_c, 14, 55, 0
20, 29160, Note_on_c, 14, 49, 90
20, 29219, Note_on_c, 14, 49, 0
20, 29220, Note_on_c, 14, 54, 90
20, 29279, Note_on_c, 14, 54, 0
20, 29280, Note_on_c, 14, 42, 90
20, 29339, Note_on_c, 14, 42, 0
20, 29340, Note_on_c, 14, 47, 90
20, 29399, Note_on_c, 14, 47, 0
20, 29400, Note_on_c, 14, 49, 90
20, 29429, Note_on_c, 14, 49, 0
20, 29430, Note_on_c, 14, 50, 90
20, 29459, Note_on_c, 14, 50, 0
20, 29460, Note_on_c, 14, 52, 90
20, 29579, Note_on_c, 14, 52, 0
20, 29580, Note_on_c, 14, 50, 90
20, 29639, Note_on_c, 14, 50, 0
20, 29640, Note_on_c, 14, 55, 90
20, 29759, Note_on_c, 14, 55, 0
20, 29760, Note_on_c, 14, 54, 90
20, 29819, Note_on_c, 14, 54, 0
20, 29820, Note_on_c, 14, 59, 90
20, 29939, Note_on_c, 14, 59, 0
20, 29940, Note_on_c, 14, 57, 90
20, 29999, Note_on_c, 14, 57, 0
20, 30000, Note_on_c, 14, 62, 90
20, 30059, Note_on_c, 14, 62, 0
20, 30060, Note_on_c, 14, 56, 90
20, 30119, Note_on_c, 14, 56, 0
20, 30120, Note_on_c, 14, 58, 90
20, 30179, Note_on_c, 14, 58, 0
20, 30180, Note_on_c, 14, 59, 90
20, 30239, Note_on_c, 14, 59, 0
20, 30240, Note_on_c, 14, 55, 90
20, 30299, Note_on_c, 14, 55, 0
20, 30300, Note_on_c, 14, 52, 90
20, 30359, Note_on_c, 14, 52, 0
20, 30360, Note_on_c, 14, 54, 90
20, 30419, Note_on_c, 14, 54, 0
20, 30420, Note_on_c, 14, 47, 90
20, 30479, Note_on_c, 14, 47, 0
20, 30480, Note_on_c, 14, 50, 90
20, 30539, Note_on_c, 14, 50, 0
20, 30540, Note_on_c, 14, 47, 90
20, 30599, Note_on_c, 14, 47, 0
20, 30600, Note_on_c, 14, 54, 90
20, 30719, Note_on_c, 14, 54, 0
20, 30780, Note_on_c, 14, 54, 90
20, 30839, Note_on_c, 14, 54, 0
20, 30840, Note_on_c, 14, 58, 90
20, 30899, Note_on_c, 14, 58, 0
20, 30900, Note_on_c, 14, 54, 90
20, 30959, Note_on_c, 14, 54, 0
20, 30960, Note_on_c, 14, 59, 90
20, 31079, Note_on_c, 14, 59, 0
20, 31140, Note_on_c, 14, 51, 90
20, 31169, Note_on_c, 14, 51, 0
20, 31170, Note_on_c, 14, 52, 90
20, 31199, Note_on_c, 14, 52, 0
20, 31200, Note_on_c, 14, 51, 90
20, 31229, Note_on_c, 14, 51, 0
20, 31230, Note_on_c, 14, 49, 90
20, 31259, Note_on_c, 14, 49, 0
20, 31260, Note_on_c, 14, 51, 90
20, 31289, Note_on_c, 14, 51, 0
20, 31290, Note_on_c, 14, 47, 90
20, 31319, Note_on_c, 14, 47, 0
20, 31320, Note_on_c, 14, 52, 90
20, 31379, Note_on_c, 14, 52, 0
20, 31380, Note_on_c, 14, 40, 90
20, 31439, Note_on_c, 14, 40, 0
20, 31440, Note_on_c, 14, 52, 90
20, 31529, Note_on_c, 14, 52, 0
20, 31530, Note_on_c, 14, 55, 90
20, 31559, Note_on_c, 14, 55, 0
20, 31560, Note_on_c, 14, 54, 90
20, 31589, Note_on_c, 14, 54, 0
20, 31590, Note_on_c, 14, 52, 90
20, 31619, Note_on_c, 14, 52, 0
20, 31620, Note_on_c, 14, 54, 90
20, 31649, Note_on_c, 14, 54, 0
20, 31650, Note_on_c, 14, 50, 90
20, 31679, Note_on_c, 14, 50, 0
20, 31680, Note_on_c, 14, 55, 90
20, 31709, Note_on_c, 14, 55, 0
20, 31710, Note_on_c, 14, 57, 90
20, 31739, Note_on_c, 14, 57, 0
20, 31740, Note_on_c, 14, 55, 90
20, 31769, Note_on_c, 14, 55, 0
20, 31770, Note_on_c, 14, 54, 90
20, 31799, Note_on_c, 14, 54, 0
20, 31800, Note_on_c, 14, 52, 90
20, 31829, Note_on_c, 14, 52, 0
20, 31830, Note_on_c, 14, 50, 90
20, 31859, Note_on_c, 14, 50, 0
20, 31860, Note_on_c, 14, 49, 90
20, 31889, Note_on_c, 14, 49, 0
20, 31890, Note_on_c, 14, 47, 90
20, 31919, Note_on_c, 14, 47, 0
20, 31920, Note_on_c, 14, 46, 90
20, 31949, Note_on_c, 14, 46, 0
20, 31950, Note_on_c, 14, 44, 90
20, 31979, Note_on_c, 14, 44, 0
20, 31980, Note_on_c, 14, 46, 90
20, 32009, Note_on_c, 14, 46, 0
20, 32010, Note_on_c, 14, 42, 90
20, 32039, Note_on_c, 14, 42, 0
20, 32040, Note_on_c, 14, 47, 90
20, 32069, Note_on_c, 14, 47, 0
20, 32070, Note_on_c, 14, 54, 90
20, 32099, Note_on_c, 14, 54, 0
20, 32100, Note_on_c, 14, 59, 90
20, 32129, Note_on_c, 14, 59, 0
20, 32130, Note_on_c, 14, 57, 90
20, 32159, Note_on_c, 14, 57, 0
20, 32160, Note_on_c, 14, 55, 90
20, 32189, Note_on_c, 14, 55, 0
20, 32190, Note_on_c, 14, 54, 90
20, 32219, Note_on_c, 14, 54, 0
20, 32220, Note_on_c, 14, 52, 90
20, 32249, Note_on_c, 14, 52, 0
20, 32250, Note_on_c, 14, 50, 90
20, 32279, Note_on_c, 14, 50, 0
20, 32280, Note_on_c, 14, 49, 90
20, 32309, Note_on_c, 14, 49, 0
20, 32310, Note_on_c, 14, 47, 90
20, 32339, Note_on_c, 14, 47, 0
20, 32340, Note_on_c, 14, 49, 90
20, 32369, Note_on_c, 14, 49, 0
20, 32370, Note_on_c, 14, 45, 90
20, 32399, Note_on_c, 14, 45, 0
20, 32400, Note_on_c, 14, 50, 90
20, 32459, Note_on_c, 14, 50, 0
20, 32460, Note_on_c, 14, 50, 90
20, 32519, Note_on_c, 14, 50, 0
20, 32520, Note_on_c, 14, 50, 90
20, 32579, Note_on_c, 14, 50, 0
20, 32580, Note_on_c, 14, 50, 90
20, 32639, Note_on_c, 14, 50, 0
20, 32640, Note_on_c, 14, 49, 90
20, 32669, Note_on_c, 14, 49, 0
20, 32670, Note_on_c, 14, 47, 90
20, 32699, Note_on_c, 14, 47, 0
20, 32700, Note_on_c, 14, 49, 90
20, 32729, Note_on_c, 14, 49, 0
20, 32730, Note_on_c, 14, 50, 90
20, 32759, Note_on_c, 14, 50, 0
20, 32760, Note_on_c, 14, 52, 90
20, 32819, Note_on_c, 14, 52, 0
20, 32820, Note_on_c, 14, 52, 90
20, 32879, Note_on_c, 14, 52, 0
20, 32880, Note_on_c, 14, 52, 90
20, 32939, Note_on_c, 14, 52, 0
20, 32940, Note_on_c, 14, 52, 90
20, 32999, Note_on_c, 14, 52, 0
20, 33000, Note_on_c, 14, 50, 90
20, 33029, Note_on_c, 14, 50, 0
20, 33030, Note_on_c, 14, 49, 90
20, 33059, Note_on_c, 14, 49, 0
20, 33060, Note_on_c, 14, 50, 90
20, 33089, Note_on_c, 14, 50, 0
20, 33090, Note_on_c, 14, 52, 90
20, 33119, Note_on_c, 14, 52, 0
20, 33120, Note_on_c, 14, 54, 90
20, 33179, Note_on_c, 14, 54, 0
20, 33180, Note_on_c, 14, 52, 90
20, 33239, Note_on_c, 14, 52, 0
20, 33240, Note_on_c, 14, 54, 90
20, 33299, Note_on_c, 14, 54, 0
20, 33300, Note_on_c, 14, 47, 90
20, 33329, Note_on_c, 14, 47, 0
20, 33330, Note_on_c, 14, 45, 90
20, 33359, Note_on_c, 14, 45, 0
20, 33360, Note_on_c, 14, 47, 90
20, 33389, Note_on_c, 14, 47, 0
20, 33390, Note_on_c, 14, 49, 90
20, 33419, Note_on_c, 14, 49, 0
20, 33420, Note_on_c, 14, 45, 90
20, 33449, Note_on_c, 14, 45, 0
20, 33450, Note_on_c, 14, 47, 90
20, 33479, Note_on_c, 14, 47, 0
20, 33480, Note_on_c, 14, 44, 90
20, 33509, Note_on_c, 14, 44, 0
20, 33510, Note_on_c, 14, 54, 90
20, 33539, Note_on_c, 14, 54, 0
20, 33540, Note_on_c, 14, 52, 90
20, 33569, Note_on_c, 14, 52, 0
20, 33570, Note_on_c, 14, 54, 90
20, 33599, Note_on_c, 14, 54, 0
20, 33600, Note_on_c, 14, 50, 90
20, 33629, Note_on_c, 14, 50, 0
20, 33630, Note_on_c, 14, 52, 90
20, 33659, Note_on_c, 14, 52, 0
20, 33660, Note_on_c, 14, 49, 90
20, 33689, Note_on_c, 14, 49, 0
20, 33690, Note_on_c, 14, 47, 90
20, 33719, Note_on_c, 14, 47, 0
20, 33720, Note_on_c, 14, 49, 90
20, 33749, Note_on_c, 14, 49, 0
20, 33750, Note_on_c, 14, 50, 90
20, 33779, Note_on_c, 14, 50, 0
20, 33780, Note_on_c, 14, 47, 90
20, 33809, Note_on_c, 14, 47, 0
20, 33810, Note_on_c, 14, 49, 90
20, 33839, Note_on_c, 14, 49, 0
20, 33840, Note_on_c, 14, 45, 90
20, 33869, Note_on_c, 14, 45, 0
20, 33870, Note_on_c, 14, 57, 90
20, 33899, Note_on_c, 14, 57, 0
20, 33900, Note_on_c, 14, 55, 90
20, 33929, Note_on_c, 14, 55, 0
20, 33930, Note_on_c, 14, 57, 90
20, 33959, Note_on_c, 14, 57, 0
20, 33960, Note_on_c, 14, 54, 90
20, 33989, Note_on_c, 14, 54, 0
20, 33990, Note_on_c, 14, 55, 90
20, 34019, Note_on_c, 14, 55, 0
20, 34020, Note_on_c, 14, 52, 90
20, 34049, Note_on_c, 14, 52, 0
20, 34050, Note_on_c, 14, 50, 90
20, 34079, Note_on_c, 14, 50, 0
20, 34080, Note_on_c, 14, 52, 90
20, 34109, Note_on_c, 14, 52, 0
20, 34110, Note_on_c, 14, 54, 90
20, 34139, Note_on_c, 14, 54, 0
20, 34140, Note_on_c, 14, 50, 90
20, 34169, Note_on_c, 14, 50, 0
20, 34170, Note_on_c, 14, 52, 90
20, 34199, Note_on_c, 14, 52, 0
20, 34200, Note_on_c, 14, 49, 90
20, 34229, Note_on_c, 14, 49, 0
20, 34230, Note_on_c, 14, 59, 90
20, 34259, Note_on_c, 14, 59, 0
20, 34260, Note_on_c, 14, 57, 90
20, 34289, Note_on_c, 14, 57, 0
20, 34290, Note_on_c, 14, 59, 90
20, 34319, Note_on_c, 14, 59, 0
20, 34320, Note_on_c, 14, 55, 90
20, 34349, Note_on_c, 14, 55, 0
20, 34350, Note_on_c, 14, 57, 90
20, 34379, Note_on_c, 14, 57, 0
20, 34380, Note_on_c, 14, 54, 90
20, 34409, Note_on_c, 14, 54, 0
20, 34410, Note_on_c, 14, 52, 90
20, 34439, Note_on_c, 14, 52, 0
20, 34440, Note_on_c, 14, 54, 90
20, 34469, Note_on_c, 14, 54, 0
20, 34470, Note_on_c, 14, 55, 90
20, 34499, Note_on_c, 14, 55, 0
20, 34500, Note_on_c, 14, 52, 90
20, 34529, Note_on_c, 14, 52, 0
20, 34530, Note_on_c, 14, 54, 90
20, 34559, Note_on_c, 14, 54, 0
20, 34560, Note_on_c, 14, 50, 90
20, 34619, Note_on_c, 14, 50, 0
20, 34620, Note_on_c, 14, 62, 90
20, 34679, Note_on_c, 14, 62, 0
20, 34680, Note_on_c, 14, 61, 90
20, 34739, Note_on_c, 14, 61, 0
20, 34740, Note_on_c, 14, 59, 90
20, 34814, Note_on_c, 14, 59, 0
20, 34815, Note_on_c, 14, 61, 90
20, 34829, Note_on_c, 14, 61, 0
20, 34830, Note_on_c, 14, 59, 90
20, 34844, Note_on_c, 14, 59, 0
20, 34845, Note_on_c, 14, 57, 90
20, 34859, Note_on_c, 14, 57, 0
20, 34860, Note_on_c, 14, 56, 90
20, 34874, Note_on_c, 14, 56, 0
20, 34875, Note_on_c, 14, 54, 90
20, 34889, Note_on_c, 14, 54, 0
20, 34890, Note_on_c, 14, 52, 90
20, 34904, Note_on_c, 14, 52, 0
20, 34905, Note_on_c, 14, 50, 90
20, 34919, Note_on_c, 14, 50, 0
20, 34920, Note_on_c, 14, 49, 90
20, 34949, Note_on_c, 14, 49, 0
20, 34980, Note_on_c, 14, 61, 90
20, 35009, Note_on_c, 14, 61, 0
20, 35040, Note_on_c, 14, 59, 90
20, 35069, Note_on_c, 14, 59, 0
20, 35100, Note_on_c, 14, 58, 90
20, 35174, Note_on_c, 14, 58, 0
20, 35175, Note_on_c, 14, 59, 90
20, 35189, Note_on_c, 14, 59, 0
20, 35190, Note_on_c, 14, 58, 90
20, 35204, Note_on_c, 14, 58, 0
20, 35205, Note_on_c, 14, 56, 90
20, 35219, Note_on_c, 14, 56, 0
20, 35220, Note_on_c, 14, 54, 90
20, 35234, Note_on_c, 14, 54, 0
20, 35235, Note_on_c, 14, 52, 90
20, 35249, Note_on_c, 14, 52, 0
20, 35250, Note_on_c, 14, 50, 90
20, 35264, Note_on_c, 14, 50, 0
20, 35265, Note_on_c, 14, 49, 90
20, 35279, Note_on_c, 14, 49, 0
20, 35280, Note_on_c, 14, 47, 90
20, 35339, Note_on_c, 14, 47, 0
20, 35340, Note_on_c, 14, 59, 90
20, 35399, Note_on_c, 14, 59, 0
20, 35400, Note_on_c, 14, 57, 90
20, 35459, Note_on_c, 14, 57, 0
20, 35460, Note_on_c, 14, 56, 90
20, 35519, Note_on_c, 14, 56, 0
20, 35520, Note_on_c, 14, 51, 90
20, 35579, Note_on_c, 14, 51, 0
20, 35580, Note_on_c, 14, 54, 90
20, 35639, Note_on_c, 14, 54, 0
20, 35640, Note_on_c, 14, 53, 90
20, 35699, Note_on_c, 14, 53, 0
20, 35700, Note_on_c, 14, 56, 90
20, 35759, Note_on_c, 14, 56, 0
20, 35760, Note_on_c, 14, 59, 90
20, 35819, Note_on_c, 14, 59, 0
20, 35820, Note_on_c, 14, 57, 90
20, 35879, Note_on_c, 14, 57, 0
20, 35880, Note_on_c, 14, 45, 90
20, 35939, Note_on_c, 14, 45, 0
20, 35940, Note_on_c, 14, 49, 90
20, 35999, Note_on_c, 14, 49, 0
20, 36000, Note_on_c, 14, 42, 90
20, 36179, Note_on_c, 14, 42, 0
20, 36300, Note_on_c, 14, 38, 90
20, 36359, Note_on_c, 14, 38, 0
20, 36660, Note_on_c, 14, 38, 90
20, 36719, Note_on_c, 14, 38, 0
20, 37020, Note_on_c, 14, 38, 90
20, 37079, Note_on_c, 14, 38, 0
20, 37380, Note_on_c, 14, 38, 90
20, 37439, Note_on_c, 14, 38, 0
20, 37560, Note_on_c, 14, 50, 90
20, 37574, Note_on_c, 14, 50, 0
20, 37575, Note_on_c, 14, 50, 90
20, 37589, Note_on_c, 14, 50, 0
20, 37590, Note_on_c, 14, 49, 90
20, 37604, Note_on_c, 14, 49, 0
20, 37605, Note_on_c, 14, 47, 90
20, 37619, Note_on_c, 14, 47, 0
20, 37620, Note_on_c, 14, 45, 90
20, 37634, Note_on_c, 14, 45, 0
20, 37635, Note_on_c, 14, 50, 90
20, 37649, Note_on_c, 14, 50, 0
20, 37650, Note_on_c, 14, 49, 90
20, 37664, Note_on_c, 14, 49, 0
20, 37665, Note_on_c, 14, 47, 90
20, 37679, Note_on_c, 14, 47, 0
20, 37680, Note_on_c, 14, 45, 90
20, 37694, Note_on_c, 14, 45, 0
20, 37695, Note_on_c, 14, 43, 90
20, 37709, Note_on_c, 14, 43, 0
20, 37710, Note_on_c, 14, 42, 90
20, 37724, Note_on_c, 14, 42, 0
20, 37725, Note_on_c, 14, 40, 90
20, 37739, Note_on_c, 14, 40, 0
20, 37740, Note_on_c, 14, 38, 90
20, 37799, Note_on_c, 14, 38, 0
20, 37800, Note_on_c, 14, 42, 90
20, 37859, Note_on_c, 14, 42, 0
20, 37860, Note_on_c, 14, 38, 90
20, 37919, Note_on_c, 14, 38, 0
20, 37920, Note_on_c, 14, 45, 90
20, 37979, Note_on_c, 14, 45, 0
20, 38100, Note_on_c, 14, 45, 90
20, 38159, Note_on_c, 14, 45, 0
20, 38160, Note_on_c, 14, 49, 90
20, 38219, Note_on_c, 14, 49, 0
20, 38220, Note_on_c, 14, 45, 90
20, 38279, Note_on_c, 14, 45, 0
20, 38280, Note_on_c, 14, 50, 90
20, 38339, Note_on_c, 14, 50, 0
20, 38460, Note_on_c, 14, 50, 90
20, 38489, Note_on_c, 14, 50, 0
20, 38490, Note_on_c, 14, 52, 90
20, 38519, Note_on_c, 14, 52, 0
20, 38520, Note_on_c, 14, 54, 90
20, 38549, Note_on_c, 14, 54, 0
20, 38550, Note_on_c, 14, 52, 90
20, 38579, Note_on_c, 14, 52, 0
20, 38580, Note_on_c, 14, 54, 90
20, 38609, Note_on_c, 14, 54, 0
20, 38610, Note_on_c, 14, 50, 90
20, 38639, Note_on_c, 14, 50, 0
20, 38640, Note_on_c, 14, 55, 90
20, 38669, Note_on_c, 14, 55, 0
20, 38670, Note_on_c, 14, 57, 90
20, 38699, Note_on_c, 14, 57, 0
20, 38700, Note_on_c, 14, 54, 90
20, 38729, Note_on_c, 14, 54, 0
20, 38730, Note_on_c, 14, 55, 90
20, 38759, Note_on_c, 14, 55, 0
20, 38760, Note_on_c, 14, 52, 90
20, 38789, Note_on_c, 14, 52, 0
20, 38790, Note_on_c, 14, 54, 90
20, 38819, Note_on_c, 14, 54, 0
20, 38820, Note_on_c, 14, 50, 90
20, 38849, Note_on_c, 14, 50, 0
20, 38850, Note_on_c, 14, 62, 90
20, 38879, Note_on_c, 14, 62, 0
20, 38880, Note_on_c, 14, 61, 90
20, 38909, Note_on_c, 14, 61, 0
20, 38910, Note_on_c, 14, 62, 90
20, 38939, Note_on_c, 14, 62, 0
20, 38940, Note_on_c, 14, 59, 90
20, 38969, Note_on_c, 14, 59, 0
20, 38970, Note_on_c, 14, 61, 90
20, 38999, Note_on_c, 14, 61, 0
20, 39000, Note_on_c, 14, 57, 90
20, 39029, Note_on_c, 14, 57, 0
20, 39030, Note_on_c, 14, 55, 90
20, 39059, Note_on_c, 14, 55, 0
20, 39060, Note_on_c, 14, 57, 90
20, 39089, Note_on_c, 14, 57, 0
20, 39090, Note_on_c, 14, 59, 90
20, 39119, Note_on_c, 14, 59, 0
20, 39120, Note_on_c, 14, 55, 90
20, 39149, Note_on_c, 14, 55, 0
20, 39150, Note_on_c, 14, 57, 90
20, 39179, Note_on_c, 14, 57, 0
20, 39180, Note_on_c, 14, 54, 90
20, 39209, Note_on_c, 14, 54, 0
20, 39210, Note_on_c, 14, 52, 90
20, 39239, Note_on_c, 14, 52, 0
20, 39240, Note_on_c, 14, 54, 90
20, 39269, Note_on_c, 14, 54, 0
20, 39270, Note_on_c, 14, 55, 90
20, 39299, Note_on_c, 14, 55, 0
20, 39300, Note_on_c, 14, 52, 90
20, 39329, Note_on_c, 14, 52, 0
20, 39330, Note_on_c, 14, 54, 90
20, 39359, Note_on_c, 14, 54, 0
20, 39360, Note_on_c, 14, 51, 90
20, 39389, Note_on_c, 14, 51, 0
20, 39390, Note_on_c, 14, 60, 90
20, 39419, Note_on_c, 14, 60, 0
20, 39420, Note_on_c, 14, 59, 90
20, 39449, Note_on_c, 14, 59, 0
20, 39450, Note_on_c, 14, 60, 90
20, 39479, Note_on_c, 14, 60, 0
20, 39480, Note_on_c, 14, 57, 90
20, 39509, Note_on_c, 14, 57, 0
20, 39510, Note_on_c, 14, 59, 90
20, 39539, Note_on_c, 14, 59, 0
20, 39540, Note_on_c, 14, 55, 90
20, 39569, Note_on_c, 14, 55, 0
20, 39570, Note_on_c, 14, 54, 90
20, 39599, Note_on_c, 14, 54, 0
20, 39600, Note_on_c, 14, 55, 90
20, 39629, Note_on_c, 14, 55, 0
20, 39630, Note_on_c, 14, 57, 90
20, 39659, Note_on_c, 14, 57, 0
20, 39660, Note_on_c, 14, 54, 90
20, 39689, Note_on_c, 14, 54, 0
20, 39690, Note_on_c, 14, 55, 90
20, 39719, Note_on_c, 14, 55, 0
20, 39720, Note_on_c, 14, 52, 90
20, 39749, Note_on_c, 14, 52, 0
20, 39750, Note_on_c, 14, 51, 90
20, 39779, Note_on_c, 14, 51, 0
20, 39780, Note_on_c, 14, 52, 90
20, 39809, Note_on_c, 14, 52, 0
20, 39810, Note_on_c, 14, 54, 90
20, 39839, Note_on_c, 14, 54, 0
20, 39840, Note_on_c, 14, 50, 90
20, 39869, Note_on_c, 14, 50, 0
20, 39870, Note_on_c, 14, 52, 90
20, 39899, Note_on_c, 14, 52, 0
20, 39900, Note_on_c, 14, 49, 90
20, 39929, Note_on_c, 14, 49, 0
20, 39930, Note_on_c, 14, 47, 90
20, 39959, Note_on_c, 14, 47, 0
20, 39960, Note_on_c, 14, 49, 90
20, 39989, Note_on_c, 14, 49, 0
20, 39990, Note_on_c, 14, 50, 90
20, 40019, Note_on_c, 14, 50, 0
20, 40020, Note_on_c, 14, 47, 90
20, 40049, Note_on_c, 14, 47, 0
20, 40050, Note_on_c, 14, 49, 90
20, 40079, Note_on_c, 14, 49, 0
20, 40080, Note_on_c, 14, 45, 90
20, 40109, Note_on_c, 14, 45, 0
20, 40110, Note_on_c, 14, 57, 90
20, 40139, Note_on_c, 14, 57, 0
20, 40140, Note_on_c, 14, 55, 90
20, 40169, Note_on_c, 14, 55, 0
20, 40170, Note_on_c, 14, 57, 90
20, 40199, Note_on_c, 14, 57, 0
20, 40200, Note_on_c, 14, 55, 90
20, 40229, Note_on_c, 14, 55, 0
20, 40230, Note_on_c, 14, 57, 90
20, 40259, Note_on_c, 14, 57, 0
20, 40260, Note_on_c, 14, 54, 90
20, 40289, Note_on_c, 14, 54, 0
20, 40290, Note_on_c, 14, 52, 90
20, 40319, Note_on_c, 14, 52, 0
20, 40320, Note_on_c, 14, 54, 90
20, 40349, Note_on_c, 14, 54, 0
20, 40350, Note_on_c, 14, 55, 90
20, 40379, Note_on_c, 14, 55, 0
20, 40380, Note_on_c, 14, 52, 90
20, 40409, Note_on_c, 14, 52, 0
20, 40410, Note_on_c, 14, 54, 90
20, 40439, Note_on_c, 14, 54, 0
20, 40440, Note_on_c, 14, 50, 90
20, 40469, Note_on_c, 14, 50, 0
20, 40470, Note_on_c, 14, 49, 90
20, 40499, Note_on_c, 14, 49, 0
20, 40500, Note_on_c, 14, 50, 90
20, 40529, Note_on_c, 14, 50, 0
20, 40530, Note_on_c, 14, 52, 90
20, 40559, Note_on_c, 14, 52, 0
20, 40560, Note_on_c, 14, 49, 90
20, 40589, Note_on_c, 14, 49, 0
20, 40590, Note_on_c, 14, 50, 90
20, 40619, Note_on_c, 14, 50, 0
20, 40620, Note_on_c, 14, 47, 90
20, 40649, Note_on_c, 14, 47, 0
20, 40680, Note_on_c, 14, 59, 90
20, 40709, Note_on_c, 14, 59, 0
20, 40740, Note_on_c, 14, 57, 90
20, 40769, Note_on_c, 14, 57, 0
20, 40800, Note_on_c, 14, 56, 90
20, 40874, Note_on_c, 14, 56, 0
20, 40875, Note_on_c, 14, 57, 90
20, 40889, Note_on_c, 14, 57, 0
20, 40890, Note_on_c, 14, 56, 90
20, 40904, Note_on_c, 14, 56, 0
20, 40905, Note_on_c, 14, 54, 90
20, 40919, Note_on_c, 14, 54, 0
20, 40920, Note_on_c, 14, 52, 90
20, 40934, Note_on_c, 14, 52, 0
20, 40935, Note_on_c, 14, 50, 90
20, 40949, Note_on_c, 14, 50, 0
20, 40950, Note_on_c, 14, 49, 90
20, 40964, Note_on_c, 14, 49, 0
20, 40965, Note_on_c, 14, 47, 90
20, 40979, Note_on_c, 14, 47, 0
20, 40980, Note_on_c, 14, 45, 90
20, 41009, Note_on_c, 14, 45, 0
20, 41040, Note_on_c, 14, 57, 90
20, 41069, Note_on_c, 14, 57, 0
20, 41100, Note_on_c, 14, 55, 90
20, 41129, Note_on_c, 14, 55, 0
20, 41160, Note_on_c, 14, 54, 90
20, 41234, Note_on_c, 14, 54, 0
20, 41235, Note_on_c, 14, 55, 90
20, 41249, Note_on_c, 14, 55, 0
20, 41250, Note_on_c, 14, 54, 90
20, 41264, Note_on_c, 14, 54, 0
20, 41265, Note_on_c, 14, 52, 90
20, 41279, Note_on_c, 14, 52, 0
20, 41280, Note_on_c, 14, 50, 90
20, 41294, Note_on_c, 14, 50, 0
20, 41295, Note_on_c, 14, 48, 90
20, 41309, Note_on_c, 14, 48, 0
20, 41310, Note_on_c, 14, 47, 90
20, 41324, Note_on_c, 14, 47, 0
20, 41325, Note_on_c, 14, 45, 90
20, 41339, Note_on_c, 14, 45, 0
20, 41340, Note_on_c, 14, 43, 90
20, 41369, Note_on_c, 14, 43, 0
20, 41400, Note_on_c, 14, 55, 90
20, 41429, Note_on_c, 14, 55, 0
20, 41460, Note_on_c, 14, 54, 90
20, 41489, Note_on_c, 14, 54, 0
20, 41520, Note_on_c, 14, 52, 90
20, 41549, Note_on_c, 14, 52, 0
20, 41580, Note_on_c, 14, 47, 90
20, 41609, Note_on_c, 14, 47, 0
20, 41640, Note_on_c, 14, 50, 90
20, 41669, Note_on_c, 14, 50, 0
20, 41700, Note_on_c, 14, 49, 90
20, 41729, Note_on_c, 14, 49, 0
20, 41760, Note_on_c, 14, 52, 90
20, 41789, Note_on_c, 14, 52, 0
20, 41820, Note_on_c, 14, 45, 90
20, 41849, Note_on_c, 14, 45, 0
20, 41880, Note_on_c, 14, 50, 90
20, 41909, Note_on_c, 14, 50, 0
20, 41940, Note_on_c, 14, 42, 90
20, 41969, Note_on_c, 14, 42, 0
20, 42000, Note_on_c, 14, 45, 90
20, 42029, Note_on_c, 14, 45, 0
20, 42060, Note_on_c, 14, 38, 90
20, 42119, Note_on_c, 14, 38, 0
20, 42420, Note_on_c, 14, 38, 90
20, 42479, Note_on_c, 14, 38, 0
20, 42780, Note_on_c, 14, 38, 90
20, 42839, Note_on_c, 14, 38, 0
20, 43140, Note_on_c, 14, 38, 90
20, 43199, Note_on_c, 14, 38, 0
20, 43500, Note_on_c, 14, 38, 90
20, 43559, Note_on_c, 14, 38, 0
20, 43695, Note_on_c, 14, 50, 90
20, 43709, Note_on_c, 14, 50, 0
20, 43710, Note_on_c, 14, 49, 90
20, 43724, Note_on_c, 14, 49, 0
20, 43725, Note_on_c, 14, 47, 90
20, 43739, Note_on_c, 14, 47, 0
20, 43740, Note_on_c, 14, 45, 90
20, 43754, Note_on_c, 14, 45, 0
20, 43755, Note_on_c, 14, 50, 90
20, 43769, Note_on_c, 14, 50, 0
20, 43770, Note_on_c, 14, 49, 90
20, 43784, Note_on_c, 14, 49, 0
20, 43785, Note_on_c, 14, 47, 90
20, 43799, Note_on_c, 14, 47, 0
20, 43800, Note_on_c, 14, 45, 90
20, 43814, Note_on_c, 14, 45, 0
20, 43815, Note_on_c, 14, 43, 90
20, 43829, Note_on_c, 14, 43, 0
20, 43830, Note_on_c, 14, 42, 90
20, 43844, Note_on_c, 14, 42, 0
20, 43845, Note_on_c, 14, 40, 90
20, 43859, Note_on_c, 14, 40, 0
20, 43860, Note_on_c, 14, 38, 90
20, 43919, Note_on_c, 14, 38, 0
20, 43920, Note_on_c, 14, 42, 90
20, 43979, Note_on_c, 14, 42, 0
20, 43980, Note_on_c, 14, 38, 90
20, 44039, Note_on_c, 14, 38, 0
20, 44040, Note_on_c, 14, 45, 90
20, 44159, Note_on_c, 14, 45, 0
20, 44220, Note_on_c, 14, 45, 90
20, 44279, Note_on_c, 14, 45, 0
20, 44280, Note_on_c, 14, 49, 90
20, 44339, Note_on_c, 14, 49, 0
20, 44340, Note_on_c, 14, 45, 90
20, 44399, Note_on_c, 14, 45, 0
20, 44400, Note_on_c, 14, 50, 90
20, 44519, Note_on_c, 14, 50, 0
20, 44580, Note_on_c, 14, 50, 90
20, 44609, Note_on_c, 14, 50, 0
20, 44610, Note_on_c, 14, 52, 90
20, 44639, Note_on_c, 14, 52, 0
20, 44640, Note_on_c, 14, 54, 90
20, 44669, Note_on_c, 14, 54, 0
20, 44670, Note_on_c, 14, 52, 90
20, 44699, Note_on_c, 14, 52, 0
20, 44700, Note_on_c, 14, 54, 90
20, 44729, Note_on_c, 14, 54, 0
20, 44730, Note_on_c, 14, 50, 90
20, 44759, Note_on_c, 14, 50, 0
20, 44760, Note_on_c, 14, 55, 90
20, 44789, Note_on_c, 14, 55, 0
20, 44790, Note_on_c, 14, 57, 90
20, 44819, Note_on_c, 14, 57, 0
20, 44820, Note_on_c, 14, 54, 90
20, 44849, Note_on_c, 14, 54, 0
20, 44850, Note_on_c, 14, 55, 90
20, 44879, Note_on_c, 14, 55, 0
20, 44880, Note_on_c, 14, 52, 90
20, 44909, Note_on_c, 14, 52, 0
20, 44910, Note_on_c, 14, 54, 90
20, 44939, Note_on_c, 14, 54, 0
20, 44940, Note_on_c, 14, 50, 90
20, 44969, Note_on_c, 14, 50, 0
20, 44970, Note_on_c, 14, 62, 90
20, 44999, Note_on_c, 14, 62, 0
20, 45000, Note_on_c, 14, 61, 90
20, 45029, Note_on_c, 14, 61, 0
20, 45030, Note_on_c, 14, 62, 90
20, 45059, Note_on_c, 14, 62, 0
20, 45060, Note_on_c, 14, 59, 90
20, 45089, Note_on_c, 14, 59, 0
20, 45090, Note_on_c, 14, 61, 90
20, 45119, Note_on_c, 14, 61, 0
20, 45120, Note_on_c, 14, 57, 90
20, 45179, Note_on_c, 14, 57, 0
20, 45180, Note_on_c, 14, 45, 90
20, 45239, Note_on_c, 14, 45, 0
20, 45330, Note_on_c, 14, 57, 90
20, 45359, Note_on_c, 14, 57, 0
20, 45360, Note_on_c, 14, 55, 90
20, 45389, Note_on_c, 14, 55, 0
20, 45390, Note_on_c, 14, 57, 90
20, 45419, Note_on_c, 14, 57, 0
20, 45420, Note_on_c, 14, 54, 90
20, 45449, Note_on_c, 14, 54, 0
20, 45450, Note_on_c, 14, 55, 90
20, 45479, Note_on_c, 14, 55, 0
20, 45480, Note_on_c, 14, 52, 90
20, 45509, Note_on_c, 14, 52, 0
20, 45510, Note_on_c, 14, 51, 90
20, 45539, Note_on_c, 14, 51, 0
20, 45540, Note_on_c, 14, 52, 90
20, 45569, Note_on_c, 14, 52, 0
20, 45570, Note_on_c, 14, 55, 90
20, 45599, Note_on_c, 14, 55, 0
20, 45600, Note_on_c, 14, 54, 90
20, 45629, Note_on_c, 14, 54, 0
20, 45630, Note_on_c, 14, 57, 90
20, 45659, Note_on_c, 14, 57, 0
20, 45660, Note_on_c, 14, 55, 90
20, 45689, Note_on_c, 14, 55, 0
20, 45690, Note_on_c, 14, 54, 90
20, 45719, Note_on_c, 14, 54, 0
20, 45720, Note_on_c, 14, 55, 90
20, 45749, Note_on_c, 14, 55, 0
20, 45750, Note_on_c, 14, 59, 90
20, 45779, Note_on_c, 14, 59, 0
20, 45780, Note_on_c, 14, 57, 90
20, 45809, Note_on_c, 14, 57, 0
20, 45810, Note_on_c, 14, 61, 90
20, 45839, Note_on_c, 14, 61, 0
20, 45840, Note_on_c, 14, 59, 90
20, 45869, Note_on_c, 14, 59, 0
20, 45870, Note_on_c, 14, 57, 90
20, 45899, Note_on_c, 14, 57, 0
20, 45900, Note_on_c, 14, 59, 90
20, 45929, Note_on_c, 14, 59, 0
20, 45930, Note_on_c, 14, 62, 90
20, 45959, Note_on_c, 14, 62, 0
20, 45960, Note_on_c, 14, 61, 90
20, 45989, Note_on_c, 14, 61, 0
20, 45990, Note_on_c, 14, 64, 90
20, 46019, Note_on_c, 14, 64, 0
20, 46020, Note_on_c, 14, 62, 90
20, 46049, Note_on_c, 14, 62, 0
20, 46050, Note_on_c, 14, 64, 90
20, 46079, Note_on_c, 14, 64, 0
20, 46080, Note_on_c, 14, 61, 90
20, 46109, Note_on_c, 14, 61, 0
20, 46110, Note_on_c, 14, 62, 90
20, 46139, Note_on_c, 14, 62, 0
20, 46140, Note_on_c, 14, 59, 90
20, 46169, Note_on_c, 14, 59, 0
20, 46170, Note_on_c, 14, 61, 90
20, 46199, Note_on_c, 14, 61, 0
20, 46200, Note_on_c, 14, 57, 90
20, 46259, Note_on_c, 14, 57, 0
20, 46260, Note_on_c, 14, 45, 90
20, 46289, Note_on_c, 14, 45, 0
20, 46290, Note_on_c, 14, 49, 90
20, 46319, Note_on_c, 14, 49, 0
20, 46320, Note_on_c, 14, 47, 90
20, 46349, Note_on_c, 14, 47, 0
20, 46350, Note_on_c, 14, 50, 90
20, 46379, Note_on_c, 14, 50, 0
20, 46380, Note_on_c, 14, 49, 90
20, 46409, Note_on_c, 14, 49, 0
20, 46410, Note_on_c, 14, 47, 90
20, 46439, Note_on_c, 14, 47, 0
20, 46440, Note_on_c, 14, 49, 90
20, 46469, Note_on_c, 14, 49, 0
20, 46470, Note_on_c, 14, 52, 90
20, 46499, Note_on_c, 14, 52, 0
20, 46500, Note_on_c, 14, 51, 90
20, 46529, Note_on_c, 14, 51, 0
20, 46530, Note_on_c, 14, 54, 90
20, 46559, Note_on_c, 14, 54, 0
20, 46560, Note_on_c, 14, 52, 90
20, 46589, Note_on_c, 14, 52, 0
20, 46590, Note_on_c, 14, 50, 90
20, 46619, Note_on_c, 14, 50, 0
20, 46620, Note_on_c, 14, 52, 90
20, 46649, Note_on_c, 14, 52, 0
20, 46650, Note_on_c, 14, 55, 90
20, 46679, Note_on_c, 14, 55, 0
20, 46680, Note_on_c, 14, 54, 90
20, 46709, Note_on_c, 14, 54, 0
20, 46710, Note_on_c, 14, 57, 90
20, 46739, Note_on_c, 14, 57, 0
20, 46740, Note_on_c, 14, 55, 90
20, 46769, Note_on_c, 14, 55, 0
20, 46770, Note_on_c, 14, 57, 90
20, 46799, Note_on_c, 14, 57, 0
20, 46800, Note_on_c, 14, 54, 90
20, 46829, Note_on_c, 14, 54, 0
20, 46830, Note_on_c, 14, 55, 90
20, 46859, Note_on_c, 14, 55, 0
20, 46860, Note_on_c, 14, 52, 90
20, 46889, Note_on_c, 14, 52, 0
20, 46890, Note_on_c, 14, 54, 90
20, 46919, Note_on_c, 14, 54, 0
20, 46920, Note_on_c, 14, 50, 90
20, 46949, Note_on_c, 14, 50, 0
20, 46950, Note_on_c, 14, 49, 90
20, 46979, Note_on_c, 14, 49, 0
20, 46980, Note_on_c, 14, 50, 90
20, 47009, Note_on_c, 14, 50, 0
20, 47010, Note_on_c, 14, 54, 90
20, 47039, Note_on_c, 14, 54, 0
20, 47040, Note_on_c, 14, 52, 90
20, 47069, Note_on_c, 14, 52, 0
20, 47070, Note_on_c, 14, 55, 90
20, 47099, Note_on_c, 14, 55, 0
20, 47100, Note_on_c, 14, 54, 90
20, 47129, Note_on_c, 14, 54, 0
20, 47130, Note_on_c, 14, 52, 90
20, 47159, Note_on_c, 14, 52, 0
20, 47160, Note_on_c, 14, 54, 90
20, 47189, Note_on_c, 14, 54, 0
20, 47190, Note_on_c, 14, 57, 90
20, 47219, Note_on_c, 14, 57, 0
20, 47220, Note_on_c, 14, 56, 90
20, 47249, Note_on_c, 14, 56, 0
20, 47250, Note_on_c, 14, 59, 90
20, 47279, Note_on_c, 14, 59, 0
20, 47280, Note_on_c, 14, 57, 90
20, 47309, Note_on_c, 14, 57, 0
20, 47310, Note_on_c, 14, 56, 90
20, 47339, Note_on_c, 14, 56, 0
20, 47340, Note_on_c, 14, 57, 90
20, 47369, Note_on_c, 14, 57, 0
20, 47370, Note_on_c, 14, 59, 90
20, 47399, Note_on_c, 14, 59, 0
20, 47400, Note_on_c, 14, 57, 90
20, 47429, Note_on_c, 14, 57, 0
20, 47430, Note_on_c, 14, 59, 90
20, 47459, Note_on_c, 14, 59, 0
20, 47460, Note_on_c, 14, 55, 90
20, 47489, Note_on_c, 14, 55, 0
20, 47490, Note_on_c, 14, 54, 90
20, 47519, Note_on_c, 14, 54, 0
20, 47520, Note_on_c, 14, 55, 90
20, 47549, Note_on_c, 14, 55, 0
20, 47550, Note_on_c, 14, 57, 90
20, 47579, Note_on_c, 14, 57, 0
20, 47580, Note_on_c, 14, 54, 90
20, 47609, Note_on_c, 14, 54, 0
20, 47610, Note_on_c, 14, 55, 90
20, 47639, Note_on_c, 14, 55, 0
20, 47640, Note_on_c, 14, 52, 90
20, 47669, Note_on_c, 14, 52, 0
20, 47670, Note_on_c, 14, 50, 90
20, 47699, Note_on_c, 14, 50, 0
20, 47700, Note_on_c, 14, 52, 90
20, 47729, Note_on_c, 14, 52, 0
20, 47730, Note_on_c, 14, 54, 90
20, 47759, Note_on_c, 14, 54, 0
20, 47760, Note_on_c, 14, 50, 90
20, 47789, Note_on_c, 14, 50, 0
20, 47790, Note_on_c, 14, 52, 90
20, 47819, Note_on_c, 14, 52, 0
20, 47820, Note_on_c, 14, 49, 90
20, 47849, Note_on_c, 14, 49, 0
20, 47850, Note_on_c, 14, 47, 90
20, 47879, Note_on_c, 14, 47, 0
20, 47880, Note_on_c, 14, 49, 90
20, 47909, Note_on_c, 14, 49, 0
20, 47910, Note_on_c, 14, 50, 90
20, 47939, Note_on_c, 14, 50, 0
20, 47940, Note_on_c, 14, 47, 90
20, 47969, Note_on_c, 14, 47, 0
20, 47970, Note_on_c, 14, 49, 90
20, 47999, Note_on_c, 14, 49, 0
20, 48000, Note_on_c, 14, 46, 90
20, 48029, Note_on_c, 14, 46, 0
20, 48030, Note_on_c, 14, 55, 90
20, 48059, Note_on_c, 14, 55, 0
20, 48060, Note_on_c, 14, 54, 90
20, 48089, Note_on_c, 14, 54, 0
20, 48090, Note_on_c, 14, 55, 90
20, 48119, Note_on_c, 14, 55, 0
20, 48120, Note_on_c, 14, 52, 90
20, 48149, Note_on_c, 14, 52, 0
20, 48150, Note_on_c, 14, 54, 90
20, 48179, Note_on_c, 14, 54, 0
20, 48180, Note_on_c, 14, 50, 90
20, 48209, Note_on_c, 14, 50, 0
20, 48210, Note_on_c, 14, 49, 90
20, 48239, Note_on_c, 14, 49, 0
20, 48240, Note_on_c, 14, 50, 90
20, 48269, Note_on_c, 14, 50, 0
20, 48270, Note_on_c, 14, 52, 90
20, 48299, Note_on_c, 14, 52, 0
20, 48300, Note_on_c, 14, 49, 90
20, 48329, Note_on_c, 14, 49, 0
20, 48330, Note_on_c, 14, 50, 90
20, 48359, Note_on_c, 14, 50, 0
20, 48360, Note_on_c, 14, 47, 90
20, 48389, Note_on_c, 14, 47, 0
20, 48390, Note_on_c, 14, 46, 90
20, 48419, Note_on_c, 14, 46, 0
20, 48420, Note_on_c, 14, 47, 90
20, 48449, Note_on_c, 14, 47, 0
20, 48450, Note_on_c, 14, 49, 90
20, 48479, Note_on_c, 14, 49, 0
20, 48480, Note_on_c, 14, 45, 90
20, 48509, Note_on_c, 14, 45, 0
20, 48510, Note_on_c, 14, 47, 90
20, 48539, Note_on_c, 14, 47, 0
20, 48540, Note_on_c, 14, 44, 90
20, 48569, Note_on_c, 14, 44, 0
20, 48570, Note_on_c, 14, 42, 90
20, 48599, Note_on_c, 14, 42, 0
20, 48600, Note_on_c, 14, 44, 90
20, 48629, Note_on_c, 14, 44, 0
20, 48630, Note_on_c, 14, 45, 90
20, 48659, Note_on_c, 14, 45, 0
20, 48660, Note_on_c, 14, 42, 90
20, 48689, Note_on_c, 14, 42, 0
20, 48690, Note_on_c, 14, 44, 90
20, 48719, Note_on_c, 14, 44, 0
20, 48720, Note_on_c, 14, 40, 90
20, 48749, Note_on_c, 14, 40, 0
20, 48750, Note_on_c, 14, 54, 90
20, 48779, Note_on_c, 14, 54, 0
20, 48780, Note_on_c, 14, 52, 90
20, 48809, Note_on_c, 14, 52, 0
20, 48810, Note_on_c, 14, 54, 90
20, 48839, Note_on_c, 14, 54, 0
20, 48840, Note_on_c, 14, 50, 90
20, 48869, Note_on_c, 14, 50, 0
20, 48870, Note_on_c, 14, 52, 90
20, 48899, Note_on_c, 14, 52, 0
20, 48900, Note_on_c, 14, 49, 90
20, 48929, Note_on_c, 14, 49, 0
20, 48930, Note_on_c, 14, 47, 90
20, 48959, Note_on_c, 14, 47, 0
20, 48960, Note_on_c, 14, 49, 90
20, 48989, Note_on_c, 14, 49, 0
20, 48990, Note_on_c, 14, 50, 90
20, 49019, Note_on_c, 14, 50, 0
20, 49020, Note_on_c, 14, 47, 90
20, 49049, Note_on_c, 14, 47, 0
20, 49050, Note_on_c, 14, 49, 90
20, 49079, Note_on_c, 14, 49, 0
20, 49080, Note_on_c, 14, 45, 90
20, 49109, Note_on_c, 14, 45, 0
20, 49110, Note_on_c, 14, 44, 90
20, 49139, Note_on_c, 14, 44, 0
20, 49140, Note_on_c, 14, 45, 90
20, 49169, Note_on_c, 14, 45, 0
20, 49170, Note_on_c, 14, 47, 90
20, 49199, Note_on_c, 14, 47, 0
20, 49200, Note_on_c, 14, 44, 90
20, 49229, Note_on_c, 14, 44, 0
20, 49230, Note_on_c, 14, 45, 90
20, 49259, Note_on_c, 14, 45, 0
20, 49260, Note_on_c, 14, 42, 90
20, 49289, Note_on_c, 14, 42, 0
20, 49320, Note_on_c, 14, 54, 90
20, 49349, Note_on_c, 14, 54, 0
20, 49380, Note_on_c, 14, 52, 90
20, 49409, Note_on_c, 14, 52, 0
20, 49440, Note_on_c, 14, 51, 90
20, 49514, Note_on_c, 14, 51, 0
20, 49515, Note_on_c, 14, 52, 90
20, 49529, Note_on_c, 14, 52, 0
20, 49530, Note_on_c, 14, 51, 90
20, 49544, Note_on_c, 14, 51, 0
20, 49545, Note_on_c, 14, 49, 90
20, 49559, Note_on_c, 14, 49, 0
20, 49560, Note_on_c, 14, 47, 90
20, 49574, Note_on_c, 14, 47, 0
20, 49575, Note_on_c, 14, 45, 90
20, 49589, Note_on_c, 14, 45, 0
20, 49590, Note_on_c, 14, 44, 90
20, 49604, Note_on_c, 14, 44, 0
20, 49605, Note_on_c, 14, 42, 90
20, 49619, Note_on_c, 14, 42, 0
20, 49620, Note_on_c, 14, 40, 90
20, 49649, Note_on_c, 14, 40, 0
20, 49680, Note_on_c, 14, 52, 90
20, 49709, Note_on_c, 14, 52, 0
20, 49740, Note_on_c, 14, 50, 90
20, 49769, Note_on_c, 14, 50, 0
20, 49800, Note_on_c, 14, 49, 90
20, 49874, Note_on_c, 14, 49, 0
20, 49875, Note_on_c, 14, 50, 90
20, 49889, Note_on_c, 14, 50, 0
20, 49890, Note_on_c, 14, 49, 90
20, 49904, Note_on_c, 14, 49, 0
20, 49905, Note_on_c, 14, 47, 90
20, 49919, Note_on_c, 14, 47, 0
20, 49920, Note_on_c, 14, 45, 90
20, 49934, Note_on_c, 14, 45, 0
20, 49935, Note_on_c, 14, 43, 90
20, 49949, Note_on_c, 14, 43, 0
20, 49950, Note_on_c, 14, 42, 90
20, 49964, Note_on_c, 14, 42, 0
20, 49965, Note_on_c, 14, 40, 90
20, 49979, Note_on_c, 14, 40, 0
20, 49980, Note_on_c, 14, 38, 90
20, 50009, Note_on_c, 14, 38, 0
20, 50040, Note_on_c, 14, 50, 90
20, 50069, Note_on_c, 14, 50, 0
20, 50100, Note_on_c, 14, 49, 90
20, 50129, Note_on_c, 14, 49, 0
20, 50160, Note_on_c, 14, 47, 90
20, 50189, Note_on_c, 14, 47, 0
20, 50220, Note_on_c, 14, 42, 90
20, 50249, Note_on_c, 14, 42, 0
20, 50280, Note_on_c, 14, 45, 90
20, 50309, Note_on_c, 14, 45, 0
20, 50340, Note_on_c, 14, 44, 90
20, 50369, Note_on_c, 14, 44, 0
20, 50400, Note_on_c, 14, 42, 90
20, 50429, Note_on_c, 14, 42, 0
20, 50460, Note_on_c, 14, 40, 90
20, 50489, Note_on_c, 14, 40, 0
20, 50520, Note_on_c, 14, 45, 90
20, 50549, Note_on_c, 14, 45, 0
20, 50580, Note_on_c, 14, 38, 90
20, 50609, Note_on_c, 14, 38, 0
20, 50640, Note_on_c, 14, 40, 90
20, 50669, Note_on_c, 14, 40, 0
20, 50700, Note_on_c, 14, 45, 90
20, 50729, Note_on_c, 14, 45, 0
20, 50760, Note_on_c, 14, 49, 90
20, 50819, Note_on_c, 14, 49, 0
20, 50820, Note_on_c, 14, 45, 90
20, 50879, Note_on_c, 14, 45, 0
20, 50880, Note_on_c, 14, 52, 90
20, 50939, Note_on_c, 14, 52, 0
20, 51060, Note_on_c, 14, 52, 90
20, 51119, Note_on_c, 14, 52, 0
20, 51120, Note_on_c, 14, 56, 90
20, 51179, Note_on_c, 14, 56, 0
20, 51180, Note_on_c, 14, 52, 90
20, 51239, Note_on_c, 14, 52, 0
20, 51240, Note_on_c, 14, 57, 90
20, 51299, Note_on_c, 14, 57, 0
20, 51420, Note_on_c, 14, 58, 90
20, 51449, Note_on_c, 14, 58, 0
20, 51450, Note_on_c, 14, 58, 90
20, 51479, Note_on_c, 14, 58, 0
20, 51480, Note_on_c, 14, 58, 90
20, 51509, Note_on_c, 14, 58, 0
20, 51510, Note_on_c, 14, 58, 90
20, 51539, Note_on_c, 14, 58, 0
20, 51540, Note_on_c, 14, 58, 90
20, 51569, Note_on_c, 14, 58, 0
20, 51570, Note_on_c, 14, 58, 90
20, 51599, Note_on_c, 14, 58, 0
20, 51600, Note_on_c, 14, 59, 90
20, 51629, Note_on_c, 14, 59, 0
20, 51660, Note_on_c, 14, 47, 90
20, 51689, Note_on_c, 14, 47, 0
20, 51720, Note_on_c, 14, 59, 90
20, 51749, Note_on_c, 14, 59, 0
20, 51780, Note_on_c, 14, 54, 90
20, 51809, Note_on_c, 14, 54, 0
20, 51840, Note_on_c, 14, 42, 90
20, 51869, Note_on_c, 14, 42, 0
20, 51900, Note_on_c, 14, 43, 90
20, 51929, Note_on_c, 14, 43, 0
20, 51960, Note_on_c, 14, 45, 90
20, 51989, Note_on_c, 14, 45, 0
20, 52020, Note_on_c, 14, 49, 90
20, 52049, Note_on_c, 14, 49, 0
20, 52080, Note_on_c, 14, 45, 90
20, 52109, Note_on_c, 14, 45, 0
20, 52140, Note_on_c, 14, 50, 90
20, 52199, Note_on_c, 14, 50, 0
20, 52500, Note_on_c, 14, 38, 90
20, 52559, Note_on_c, 14, 38, 0
20, 52860, Note_on_c, 14, 50, 90
20, 52919, Note_on_c, 14, 50, 0
20, 53220, Note_on_c, 14, 38, 90
20, 53279, Note_on_c, 14, 38, 0
20, 53580, Note_on_c, 14, 50, 90
20, 53639, Note_on_c, 14, 50, 0
20, 53775, Note_on_c, 14, 50, 90
20, 53789, Note_on_c, 14, 50, 0
20, 53790, Note_on_c, 14, 49, 90
20, 53804, Note_on_c, 14, 49, 0
20, 53805, Note_on_c, 14, 47, 90
20, 53819, Note_on_c, 14, 47, 0
20, 53820, Note_on_c, 14, 45, 90
20, 53834, Note_on_c, 14, 45, 0
20, 53835, Note_on_c, 14, 50, 90
20, 53849, Note_on_c, 14, 50, 0
20, 53850, Note_on_c, 14, 49, 90
20, 53864, Note_on_c, 14, 49, 0
20, 53865, Note_on_c, 14, 47, 90
20, 53879, Note_on_c, 14, 47, 0
20, 53880, Note_on_c, 14, 45, 90
20, 53894, Note_on_c, 14, 45, 0
20, 53895, Note_on_c, 14, 43, 90
20, 53909, Note_on_c, 14, 43, 0
20, 53910, Note_on_c, 14, 42, 90
20, 53924, Note_on_c, 14, 42, 0
20, 53925, Note_on_c, 14, 40, 90
20, 53939, Note_on_c, 14, 40, 0
20, 53940, Note_on_c, 14, 38, 90
20, 53999, Note_on_c, 14, 38, 0
20, 54000, Note_on_c, 14, 42, 90
20, 54059, Note_on_c, 14, 42, 0
20, 54060, Note_on_c, 14, 38, 90
20, 54119, Note_on_c, 14, 38, 0
20, 54120, Note_on_c, 14, 45, 90
20, 54239, Note_on_c, 14, 45, 0
20, 54300, Note_on_c, 14, 45, 90
20, 54359, Note_on_c, 14, 45, 0
20, 54360, Note_on_c, 14, 49, 90
20, 54419, Note_on_c, 14, 49, 0
20, 54420, Note_on_c, 14, 45, 90
20, 54479, Note_on_c, 14, 45, 0
20, 54480, Note_on_c, 14, 50, 90
20, 54599, Note_on_c, 14, 50, 0
20, 54660, Note_on_c, 14, 50, 90
20, 54689, Note_on_c, 14, 50, 0
20, 54690, Note_on_c, 14, 52, 90
20, 54719, Note_on_c, 14, 52, 0
20, 54720, Note_on_c, 14, 54, 90
20, 54749, Note_on_c, 14, 54, 0
20, 54750, Note_on_c, 14, 52, 90
20, 54779, Note_on_c, 14, 52, 0
20, 54780, Note_on_c, 14, 54, 90
20, 54809, Note_on_c, 14, 54, 0
20, 54810, Note_on_c, 14, 50, 90
20, 54839, Note_on_c, 14, 50, 0
20, 54840, Note_on_c, 14, 55, 90
20, 54869, Note_on_c, 14, 55, 0
20, 54870, Note_on_c, 14, 57, 90
20, 54899, Note_on_c, 14, 57, 0
20, 54900, Note_on_c, 14, 54, 90
20, 54929, Note_on_c, 14, 54, 0
20, 54930, Note_on_c, 14, 55, 90
20, 54959, Note_on_c, 14, 55, 0
20, 54960, Note_on_c, 14, 52, 90
20, 54989, Note_on_c, 14, 52, 0
20, 54990, Note_on_c, 14, 54, 90
20, 55019, Note_on_c, 14, 54, 0
20, 55020, Note_on_c, 14, 50, 90
20, 55049, Note_on_c, 14, 50, 0
20, 55050, Note_on_c, 14, 62, 90
20, 55079, Note_on_c, 14, 62, 0
20, 55080, Note_on_c, 14, 61, 90
20, 55109, Note_on_c, 14, 61, 0
20, 55110, Note_on_c, 14, 62, 90
20, 55139, Note_on_c, 14, 62, 0
20, 55140, Note_on_c, 14, 59, 90
20, 55169, Note_on_c, 14, 59, 0
20, 55170, Note_on_c, 14, 61, 90
20, 55199, Note_on_c, 14, 61, 0
20, 55200, Note_on_c, 14, 57, 90
20, 55229, Note_on_c, 14, 57, 0
20, 55230, Note_on_c, 14, 59, 90
20, 55259, Note_on_c, 14, 59, 0
20, 55260, Note_on_c, 14, 55, 90
20, 55289, Note_on_c, 14, 55, 0
20, 55290, Note_on_c, 14, 57, 90
20, 55319, Note_on_c, 14, 57, 0
20, 55320, Note_on_c, 14, 54, 90
20, 55349, Note_on_c, 14, 54, 0
20, 55350, Note_on_c, 14, 55, 90
20, 55379, Note_on_c, 14, 55, 0
20, 55380, Note_on_c, 14, 52, 90
20, 55409, Note_on_c, 14, 52, 0
20, 55410, Note_on_c, 14, 54, 90
20, 55439, Note_on_c, 14, 54, 0
20, 55440, Note_on_c, 14, 50, 90
20, 55469, Note_on_c, 14, 50, 0
20, 55470, Note_on_c, 14, 52, 90
20, 55499, Note_on_c, 14, 52, 0
20, 55500, Note_on_c, 14, 49, 90
20, 55529, Note_on_c, 14, 49, 0
20, 55530, Note_on_c, 14, 50, 90
20, 55559, Note_on_c, 14, 50, 0
20, 55560, Note_on_c, 14, 47, 90
20, 55589, Note_on_c, 14, 47, 0
20, 55590, Note_on_c, 14, 59, 90
20, 55619, Note_on_c, 14, 59, 0
20, 55620, Note_on_c, 14, 57, 90
20, 55649, Note_on_c, 14, 57, 0
20, 55650, Note_on_c, 14, 59, 90
20, 55679, Note_on_c, 14, 59, 0
20, 55680, Note_on_c, 14, 55, 90
20, 55709, Note_on_c, 14, 55, 0
20, 55710, Note_on_c, 14, 57, 90
20, 55739, Note_on_c, 14, 57, 0
20, 55740, Note_on_c, 14, 54, 90
20, 55769, Note_on_c, 14, 54, 0
20, 55770, Note_on_c, 14, 55, 90
20, 55799, Note_on_c, 14, 55, 0
20, 55800, Note_on_c, 14, 52, 90
20, 55829, Note_on_c, 14, 52, 0
20, 55830, Note_on_c, 14, 54, 90
20, 55859, Note_on_c, 14, 54, 0
20, 55860, Note_on_c, 14, 50, 90
20, 55889, Note_on_c, 14, 50, 0
20, 55890, Note_on_c, 14, 52, 90
20, 55919, Note_on_c, 14, 52, 0
20, 55920, Note_on_c, 14, 49, 90
20, 55949, Note_on_c, 14, 49, 0
20, 55950, Note_on_c, 14, 47, 90
20, 55979, Note_on_c, 14, 47, 0
20, 55980, Note_on_c, 14, 49, 90
20, 56009, Note_on_c, 14, 49, 0
20, 56010, Note_on_c, 14, 52, 90
20, 56039, Note_on_c, 14, 52, 0
20, 56040, Note_on_c, 14, 51, 90
20, 56069, Note_on_c, 14, 51, 0
20, 56070, Note_on_c, 14, 54, 90
20, 56099, Note_on_c, 14, 54, 0
20, 56100, Note_on_c, 14, 52, 90
20, 56129, Note_on_c, 14, 52, 0
20, 56130, Note_on_c, 14, 54, 90
20, 56159, Note_on_c, 14, 54, 0
20, 56160, Note_on_c, 14, 50, 90
20, 56189, Note_on_c, 14, 50, 0
20, 56190, Note_on_c, 14, 52, 90
20, 56219, Note_on_c, 14, 52, 0
20, 56220, Note_on_c, 14, 49, 90
20, 56249, Note_on_c, 14, 49, 0
20, 56250, Note_on_c, 14, 50, 90
20, 56279, Note_on_c, 14, 50, 0
20, 56280, Note_on_c, 14, 47, 90
20, 56309, Note_on_c, 14, 47, 0
20, 56310, Note_on_c, 14, 49, 90
20, 56339, Note_on_c, 14, 49, 0
20, 56340, Note_on_c, 14, 45, 90
20, 56369, Note_on_c, 14, 45, 0
20, 56370, Note_on_c, 14, 47, 90
20, 56399, Note_on_c, 14, 47, 0
20, 56400, Note_on_c, 14, 43, 90
20, 56429, Note_on_c, 14, 43, 0
20, 56430, Note_on_c, 14, 45, 90
20, 56459, Note_on_c, 14, 45, 0
20, 56460, Note_on_c, 14, 42, 90
20, 56489, Note_on_c, 14, 42, 0
20, 56490, Note_on_c, 14, 40, 90
20, 56519, Note_on_c, 14, 40, 0
20, 56520, Note_on_c, 14, 42, 90
20, 56549, Note_on_c, 14, 42, 0
20, 56550, Note_on_c, 14, 45, 90
20, 56579, Note_on_c, 14, 45, 0
20, 56580, Note_on_c, 14, 44, 90
20, 56609, Note_on_c, 14, 44, 0
20, 56610, Note_on_c, 14, 47, 90
20, 56639, Note_on_c, 14, 47, 0
20, 56640, Note_on_c, 14, 45, 90
20, 56669, Note_on_c, 14, 45, 0
20, 56670, Note_on_c, 14, 49, 90
20, 56699, Note_on_c, 14, 49, 0
20, 56700, Note_on_c, 14, 47, 90
20, 56729, Note_on_c, 14, 47, 0
20, 56730, Note_on_c, 14, 50, 90
20, 56759, Note_on_c, 14, 50, 0
20, 56760, Note_on_c, 14, 49, 90
20, 56789, Note_on_c, 14, 49, 0
20, 56790, Note_on_c, 14, 52, 90
20, 56819, Note_on_c, 14, 52, 0
20, 56820, Note_on_c, 14, 50, 90
20, 56849, Note_on_c, 14, 50, 0
20, 56850, Note_on_c, 14, 52, 90
20, 56879, Note_on_c, 14, 52, 0
20, 56880, Note_on_c, 14, 49, 90
20, 56909, Note_on_c, 14, 49, 0
20, 56910, Note_on_c, 14, 50, 90
20, 56939, Note_on_c, 14, 50, 0
20, 56940, Note_on_c, 14, 47, 90
20, 56969, Note_on_c, 14, 47, 0
20, 56970, Note_on_c, 14, 49, 90
20, 56999, Note_on_c, 14, 49, 0
20, 57000, Note_on_c, 14, 45, 90
20, 57029, Note_on_c, 14, 45, 0
20, 57030, Note_on_c, 14, 57, 90
20, 57059, Note_on_c, 14, 57, 0
20, 57060, Note_on_c, 14, 55, 90
20, 57089, Note_on_c, 14, 55, 0
20, 57090, Note_on_c, 14, 57, 90
20, 57119, Note_on_c, 14, 57, 0
20, 57120, Note_on_c, 14, 54, 90
20, 57149, Note_on_c, 14, 54, 0
20, 57150, Note_on_c, 14, 55, 90
20, 57179, Note_on_c, 14, 55, 0
20, 57180, Note_on_c, 14, 52, 90
20, 57209, Note_on_c, 14, 52, 0
20, 57210, Note_on_c, 14, 50, 90
20, 57239, Note_on_c, 14, 50, 0
20, 57240, Note_on_c, 14, 52, 90
20, 57269, Note_on_c, 14, 52, 0
20, 57270, Note_on_c, 14, 55, 90
20, 57299, Note_on_c, 14, 55, 0
20, 57300, Note_on_c, 14, 54, 90
20, 57329, Note_on_c, 14, 54, 0
20, 57330, Note_on_c, 14, 57, 90
20, 57359, Note_on_c, 14, 57, 0
20, 57360, Note_on_c, 14, 55, 90
20, 57389, Note_on_c, 14, 55, 0
20, 57390, Note_on_c, 14, 57, 90
20, 57419, Note_on_c, 14, 57, 0
20, 57420, Note_on_c, 14, 54, 90
20, 57449, Note_on_c, 14, 54, 0
20, 57450, Note_on_c, 14, 55, 90
20, 57479, Note_on_c, 14, 55, 0
20, 57480, Note_on_c, 14, 52, 90
20, 57509, Note_on_c, 14, 52, 0
20, 57510, Note_on_c, 14, 54, 90
20, 57539, Note_on_c, 14, 54, 0
20, 57540, Note_on_c, 14, 50, 90
20, 57569, Note_on_c, 14, 50, 0
20, 57570, Note_on_c, 14, 62, 90
20, 57599, Note_on_c, 14, 62, 0
20, 57600, Note_on_c, 14, 61, 90
20, 57629, Note_on_c, 14, 61, 0
20, 57630, Note_on_c, 14, 62, 90
20, 57659, Note_on_c, 14, 62, 0
20, 57660, Note_on_c, 14, 59, 90
20, 57689, Note_on_c, 14, 59, 0
20, 57690, Note_on_c, 14, 61, 90
20, 57719, Note_on_c, 14, 61, 0
20, 57720, Note_on_c, 14, 57, 90
20, 57749, Note_on_c, 14, 57, 0
20, 57750, Note_on_c, 14, 55, 90
20, 57779, Note_on_c, 14, 55, 0
20, 57780, Note_on_c, 14, 57, 90
20, 57809, Note_on_c, 14, 57, 0
20, 57810, Note_on_c, 14, 59, 90
20, 57839, Note_on_c, 14, 59, 0
20, 57840, Note_on_c, 14, 55, 90
20, 57869, Note_on_c, 14, 55, 0
20, 57870, Note_on_c, 14, 57, 90
20, 57899, Note_on_c, 14, 57, 0
20, 57900, Note_on_c, 14, 54, 90
20, 57929, Note_on_c, 14, 54, 0
20, 57930, Note_on_c, 14, 52, 90
20, 57959, Note_on_c, 14, 52, 0
20, 57960, Note_on_c, 14, 54, 90
20, 57989, Note_on_c, 14, 54, 0
20, 57990, Note_on_c, 14, 55, 90
20, 58019, Note_on_c, 14, 55, 0
20, 58020, Note_on_c, 14, 52, 90
20, 58049, Note_on_c, 14, 52, 0
20, 58050, Note_on_c, 14, 54, 90
20, 58079, Note_on_c, 14, 54, 0
20, 58080, Note_on_c, 14, 51, 90
20, 58109, Note_on_c, 14, 51, 0
20, 58110, Note_on_c, 14, 60, 90
20, 58139, Note_on_c, 14, 60, 0
20, 58140, Note_on_c, 14, 59, 90
20, 58169, Note_on_c, 14, 59, 0
20, 58170, Note_on_c, 14, 60, 90
20, 58199, Note_on_c, 14, 60, 0
20, 58200, Note_on_c, 14, 57, 90
20, 58229, Note_on_c, 14, 57, 0
20, 58230, Note_on_c, 14, 59, 90
20, 58259, Note_on_c, 14, 59, 0
20, 58260, Note_on_c, 14, 55, 90
20, 58289, Note_on_c, 14, 55, 0
20, 58290, Note_on_c, 14, 54, 90
20, 58319, Note_on_c, 14, 54, 0
20, 58320, Note_on_c, 14, 55, 90
20, 58349, Note_on_c, 14, 55, 0
20, 58350, Note_on_c, 14, 57, 90
20, 58379, Note_on_c, 14, 57, 0
20, 58380, Note_on_c, 14, 54, 90
20, 58409, Note_on_c, 14, 54, 0
20, 58410, Note_on_c, 14, 55, 90
20, 58439, Note_on_c, 14, 55, 0
20, 58440, Note_on_c, 14, 52, 90
20, 58469, Note_on_c, 14, 52, 0
20, 58470, Note_on_c, 14, 51, 90
20, 58499, Note_on_c, 14, 51, 0
20, 58500, Note_on_c, 14, 52, 90
20, 58529, Note_on_c, 14, 52, 0
20, 58530, Note_on_c, 14, 54, 90
20, 58559, Note_on_c, 14, 54, 0
20, 58560, Note_on_c, 14, 50, 90
20, 58589, Note_on_c, 14, 50, 0
20, 58590, Note_on_c, 14, 52, 90
20, 58619, Note_on_c, 14, 52, 0
20, 58620, Note_on_c, 14, 49, 90
20, 58649, Note_on_c, 14, 49, 0
20, 58650, Note_on_c, 14, 47, 90
20, 58679, Note_on_c, 14, 47, 0
20, 58680, Note_on_c, 14, 49, 90
20, 58709, Note_on_c, 14, 49, 0
20, 58710, Note_on_c, 14, 50, 90
20, 58739, Note_on_c, 14, 50, 0
20, 58740, Note_on_c, 14, 47, 90
20, 58769, Note_on_c, 14, 47, 0
20, 58770, Note_on_c, 14, 49, 90
20, 58799, Note_on_c, 14, 49, 0
20, 58800, Note_on_c, 14, 45, 90
20, 58829, Note_on_c, 14, 45, 0
20, 58830, Note_on_c, 14, 59, 90
20, 58859, Note_on_c, 14, 59, 0
20, 58860, Note_on_c, 14, 57, 90
20, 58889, Note_on_c, 14, 57, 0
20, 58890, Note_on_c, 14, 59, 90
20, 58919, Note_on_c, 14, 59, 0
20, 58920, Note_on_c, 14, 55, 90
20, 58949, Note_on_c, 14, 55, 0
20, 58950, Note_on_c, 14, 57, 90
20, 58979, Note_on_c, 14, 57, 0
20, 58980, Note_on_c, 14, 54, 90
20, 59009, Note_on_c, 14, 54, 0
20, 59010, Note_on_c, 14, 52, 90
20, 59039, Note_on_c, 14, 52, 0
20, 59040, Note_on_c, 14, 54, 90
20, 59069, Note_on_c, 14, 54, 0
20, 59070, Note_on_c, 14, 55, 90
20, 59099, Note_on_c, 14, 55, 0
20, 59100, Note_on_c, 14, 52, 90
20, 59129, Note_on_c, 14, 52, 0
20, 59130, Note_on_c, 14, 54, 90
20, 59159, Note_on_c, 14, 54, 0
20, 59160, Note_on_c, 14, 50, 90
20, 59189, Note_on_c, 14, 50, 0
20, 59190, Note_on_c, 14, 49, 90
20, 59219, Note_on_c, 14, 49, 0
20, 59220, Note_on_c, 14, 50, 90
20, 59249, Note_on_c, 14, 50, 0
20, 59250, Note_on_c, 14, 52, 90
20, 59279, Note_on_c, 14, 52, 0
20, 59280, Note_on_c, 14, 49, 90
20, 59309, Note_on_c, 14, 49, 0
20, 59310, Note_on_c, 14, 50, 90
20, 59339, Note_on_c, 14, 50, 0
20, 59340, Note_on_c, 14, 47, 90
20, 59369, Note_on_c, 14, 47, 0
20, 59400, Note_on_c, 14, 59, 90
20, 59429, Note_on_c, 14, 59, 0
20, 59460, Note_on_c, 14, 57, 90
20, 59489, Note_on_c, 14, 57, 0
20, 59520, Note_on_c, 14, 56, 90
20, 59594, Note_on_c, 14, 56, 0
20, 59595, Note_on_c, 14, 57, 90
20, 59609, Note_on_c, 14, 57, 0
20, 59610, Note_on_c, 14, 56, 90
20, 59624, Note_on_c, 14, 56, 0
20, 59625, Note_on_c, 14, 54, 90
20, 59639, Note_on_c, 14, 54, 0
20, 59640, Note_on_c, 14, 52, 90
20, 59654, Note_on_c, 14, 52, 0
20, 59655, Note_on_c, 14, 50, 90
20, 59669, Note_on_c, 14, 50, 0
20, 59670, Note_on_c, 14, 49, 90
20, 59684, Note_on_c, 14, 49, 0
20, 59685, Note_on_c, 14, 47, 90
20, 59699, Note_on_c, 14, 47, 0
20, 59700, Note_on_c, 14, 45, 90
20, 59729, Note_on_c, 14, 45, 0
20, 59760, Note_on_c, 14, 57, 90
20, 59789, Note_on_c, 14, 57, 0
20, 59820, Note_on_c, 14, 55, 90
20, 59849, Note_on_c, 14, 55, 0
20, 59880, Note_on_c, 14, 54, 90
20, 59954, Note_on_c, 14, 54, 0
20, 59955, Note_on_c, 14, 55, 90
20, 59969, Note_on_c, 14, 55, 0
20, 59970, Note_on_c, 14, 54, 90
20, 59984, Note_on_c, 14, 54, 0
20, 59985, Note_on_c, 14, 52, 90
20, 59999, Note_on_c, 14, 52, 0
20, 60000, Note_on_c, 14, 50, 90
20, 60014, Note_on_c, 14, 50, 0
20, 60015, Note_on_c, 14, 49, 90
20, 60029, Note_on_c, 14, 49, 0
20, 60030, Note_on_c, 14, 47, 90
20, 60044, Note_on_c, 14, 47, 0
20, 60045, Note_on_c, 14, 45, 90
20, 60059, Note_on_c, 14, 45, 0
20, 60060, Note_on_c, 14, 43, 90
20, 60119, Note_on_c, 14, 43, 0
20, 60120, Note_on_c, 14, 55, 90
20, 60149, Note_on_c, 14, 55, 0
20, 60180, Note_on_c, 14, 54, 90
20, 60209, Note_on_c, 14, 54, 0
20, 60240, Note_on_c, 14, 52, 90
20, 60269, Note_on_c, 14, 52, 0
20, 60300, Note_on_c, 14, 47, 90
20, 60329, Note_on_c, 14, 47, 0
20, 60360, Note_on_c, 14, 50, 90
20, 60389, Note_on_c, 14, 50, 0
20, 60420, Note_on_c, 14, 49, 90
20, 60449, Note_on_c, 14, 49, 0
20, 60480, Note_on_c, 14, 47, 90
20, 60509, Note_on_c, 14, 47, 0
20, 60540, Note_on_c, 14, 45, 90
20, 60569, Note_on_c, 14, 45, 0
20, 60600, Note_on_c, 14, 50, 90
20, 60629, Note_on_c, 14, 50, 0
20, 60660, Note_on_c, 14, 42, 90
20, 60689, Note_on_c, 14, 42, 0
20, 60720, Note_on_c, 14, 45, 90
20, 60749, Note_on_c, 14, 45, 0
20, 60780, Note_on_c, 14, 38, 90
20, 60960, Note_on_c, 14, 38, 0
20, 61140, Note_on_c, 14, 47, 100
20, 62340, Note_on_c, 14, 47, 0
20, 62340, Note_on_c, 14, 46, 90
20, 62819, Note_on_c, 14, 46, 0
20, 62820, Note_on_c, 14, 47, 90
20, 63539, Note_on_c, 14, 47, 0
20, 63540, Note_on_c, 14, 49, 90
20, 64019, Note_on_c, 14, 49, 0
20, 64020, Note_on_c, 14, 50, 90
20, 64739, Note_on_c, 14, 50, 0
20, 64740, Note_on_c, 14, 54, 90
20, 64979, Note_on_c, 14, 54, 0
20, 64980, Note_on_c, 14, 51, 90
20, 65699, Note_on_c, 14, 51, 0
20, 65700, Note_on_c, 14, 52, 90
20, 65939, Note_on_c, 14, 52, 0
20, 65940, Note_on_c, 14, 50, 90
20, 66419, Note_on_c, 14, 50, 0
20, 66420, Note_on_c, 14, 49, 90
20, 66659, Note_on_c, 14, 49, 0
20, 66660, Note_on_c, 14, 46, 90
20, 66899, Note_on_c, 14, 46, 0
20, 66900, Note_on_c, 14, 42, 90
20, 67139, Note_on_c, 14, 42, 0
20, 67140, Note_on_c, 14, 47, 90
20, 67619, Note_on_c, 14, 47, 0
20, 67620, Note_on_c, 14, 41, 90
20, 68580, Note_on_c, 14, 41, 0
20, 68580, Note_on_c, 14, 42, 90
20, 69300, Note_on_c, 14, 42, 0
20, 69300, Note_on_c, 14, 44, 90
20, 69540, Note_on_c, 14, 44, 0
20, 69540, Note_on_c, 14, 45, 90
20, 69660, Note_on_c, 14, 45, 0
20, 69660, Note_on_c, 14, 38, 90
20, 69780, Note_on_c, 14, 38, 0
20, 69900, Note_on_c, 14, 40, 90
20, 70020, Note_on_c, 14, 40, 0
20, 70020, Note_on_c, 14, 45, 90
20, 71940, Note_on_c, 14, 45, 0
20, 71940, Note_on_c, 14, 44, 90
20, 72060, Note_on_c, 14, 44, 0
20, 72060, Note_on_c, 14, 42, 90
20, 72180, Note_on_c, 14, 42, 0
20, 72180, Note_on_c, 14, 40, 90
20, 72900, Note_on_c, 14, 40, 0
20, 72900, Note_on_c, 14, 46, 90
20, 73380, Note_on_c, 14, 46, 0
20, 73380, Note_on_c, 14, 47, 90
20, 73620, Note_on_c, 14, 47, 0
20, 73620, Note_on_c, 14, 42, 90
20, 73860, Note_on_c, 14, 42, 0
20, 73860, Note_on_c, 14, 39, 90
20, 74100, Note_on_c, 14, 39, 0
20, 74100, Note_on_c, 14, 38, 90
20, 74340, Note_on_c, 14, 38, 0
20, 74340, Note_on_c, 14, 48, 90
20, 74580, Note_on_c, 14, 48, 0
20, 74700, Note_on_c, 14, 47, 90
20, 74820, Note_on_c, 14, 47, 0
20, 74820, Note_on_c, 14, 40, 90
20, 75060, Note_on_c, 14, 40, 0
20, 75540, Note_on_c, 14, 40, 90
20, 75599, Note_on_c, 14, 40, 0
20, 75600, Note_on_c, 14, 45, 90
20, 75659, Note_on_c, 14, 45, 0
20, 75660, Note_on_c, 14, 47, 90
20, 75719, Note_on_c, 14, 47, 0
20, 75720, Note_on_c, 14, 48, 90
20, 75779, Note_on_c, 14, 48, 0
20, 75780, Note_on_c, 14, 50, 90
20, 75839, Note_on_c, 14, 50, 0
20, 75840, Note_on_c, 14, 47, 90
20, 75899, Note_on_c, 14, 47, 0
20, 75900, Note_on_c, 14, 43, 90
20, 75959, Note_on_c, 14, 43, 0
20, 75960, Note_on_c, 14, 48, 90
20, 76019, Note_on_c, 14, 48, 0
20, 76020, Note_on_c, 14, 52, 90
20, 76079, Note_on_c, 14, 52, 0
20, 76080, Note_on_c, 14, 45, 90
20, 76139, Note_on_c, 14, 45, 0
20, 76140, Note_on_c, 14, 50, 90
20, 76259, Note_on_c, 14, 50, 0
20, 76260, Note_on_c, 14, 52, 90
20, 76319, Note_on_c, 14, 52, 0
20, 76320, Note_on_c, 14, 48, 90
20, 76379, Note_on_c, 14, 48, 0
20, 76380, Note_on_c, 14, 50, 90
20, 76409, Note_on_c, 14, 50, 0
20, 76410, Note_on_c, 14, 48, 90
20, 76439, Note_on_c, 14, 48, 0
20, 76440, Note_on_c, 14, 47, 90
20, 76469, Note_on_c, 14, 47, 0
20, 76470, Note_on_c, 14, 45, 90
20, 76499, Note_on_c, 14, 45, 0
20, 76500, Note_on_c, 14, 44, 90
20, 76559, Note_on_c, 14, 44, 0
20, 76560, Note_on_c, 14, 45, 90
20, 76589, Note_on_c, 14, 45, 0
20, 76590, Note_on_c, 14, 44, 90
20, 76619, Note_on_c, 14, 44, 0
20, 76620, Note_on_c, 14, 45, 90
20, 76679, Note_on_c, 14, 45, 0
20, 76680, Note_on_c, 14, 40, 90
20, 76739, Note_on_c, 14, 40, 0
20, 76740, Note_on_c, 14, 52, 90
20, 76799, Note_on_c, 14, 52, 0
20, 76800, Note_on_c, 14, 56, 90
20, 76859, Note_on_c, 14, 56, 0
20, 76860, Note_on_c, 14, 57, 90
20, 76919, Note_on_c, 14, 57, 0
20, 76920, Note_on_c, 14, 45, 90
20, 76979, Note_on_c, 14, 45, 0
20, 76980, Note_on_c, 14, 49, 90
20, 77039, Note_on_c, 14, 49, 0
20, 77040, Note_on_c, 14, 50, 90
20, 77099, Note_on_c, 14, 50, 0
20, 77160, Note_on_c, 14, 53, 90
20, 77219, Note_on_c, 14, 53, 0
20, 77220, Note_on_c, 14, 55, 90
20, 77279, Note_on_c, 14, 55, 0
20, 77280, Note_on_c, 14, 43, 90
20, 77339, Note_on_c, 14, 43, 0
20, 77340, Note_on_c, 14, 47, 90
20, 77399, Note_on_c, 14, 47, 0
20, 77400, Note_on_c, 14, 48, 90
20, 77459, Note_on_c, 14, 48, 0
20, 77520, Note_on_c, 14, 52, 90
20, 77579, Note_on_c, 14, 52, 0
20, 77580, Note_on_c, 14, 53, 90
20, 77639, Note_on_c, 14, 53, 0
20, 77640, Note_on_c, 14, 52, 90
20, 77699, Note_on_c, 14, 52, 0
20, 77700, Note_on_c, 14, 50, 90
20, 77759, Note_on_c, 14, 50, 0
20, 77760, Note_on_c, 14, 48, 90
20, 77819, Note_on_c, 14, 48, 0
20, 77820, Note_on_c, 14, 45, 90
20, 77879, Note_on_c, 14, 45, 0
20, 77880, Note_on_c, 14, 47, 90
20, 77939, Note_on_c, 14, 47, 0
20, 77940, Note_on_c, 14, 48, 90
20, 77999, Note_on_c, 14, 48, 0
20, 78000, Note_on_c, 14, 50, 90
20, 78059, Note_on_c, 14, 50, 0
20, 78060, Note_on_c, 14, 52, 90
20, 78119, Note_on_c, 14, 52, 0
20, 78120, Note_on_c, 14, 45, 90
20, 78239, Note_on_c, 14, 45, 0
20, 78420, Note_on_c, 14, 40, 90
20, 78479, Note_on_c, 14, 40, 0
20, 78480, Note_on_c, 14, 45, 90
20, 78539, Note_on_c, 14, 45, 0
20, 78540, Note_on_c, 14, 47, 90
20, 78599, Note_on_c, 14, 47, 0
20, 78600, Note_on_c, 14, 48, 90
20, 78659, Note_on_c, 14, 48, 0
20, 78660, Note_on_c, 14, 50, 90
20, 78719, Note_on_c, 14, 50, 0
20, 78720, Note_on_c, 14, 47, 90
20, 78779, Note_on_c, 14, 47, 0
20, 78780, Note_on_c, 14, 43, 90
20, 78839, Note_on_c, 14, 43, 0
20, 78840, Note_on_c, 14, 48, 90
20, 78899, Note_on_c, 14, 48, 0
20, 78900, Note_on_c, 14, 52, 90
20, 78959, Note_on_c, 14, 52, 0
20, 78960, Note_on_c, 14, 45, 90
20, 79019, Note_on_c, 14, 45, 0
20, 79020, Note_on_c, 14, 50, 90
20, 79139, Note_on_c, 14, 50, 0
20, 79140, Note_on_c, 14, 52, 90
20, 79199, Note_on_c, 14, 52, 0
20, 79200, Note_on_c, 14, 48, 90
20, 79259, Note_on_c, 14, 48, 0
20, 79260, Note_on_c, 14, 50, 90
20, 79289, Note_on_c, 14, 50, 0
20, 79290, Note_on_c, 14, 48, 90
20, 79319, Note_on_c, 14, 48, 0
20, 79320, Note_on_c, 14, 47, 90
20, 79349, Note_on_c, 14, 47, 0
20, 79350, Note_on_c, 14, 45, 90
20, 79379, Note_on_c, 14, 45, 0
20, 79380, Note_on_c, 14, 44, 90
20, 79439, Note_on_c, 14, 44, 0
20, 79440, Note_on_c, 14, 45, 90
20, 79469, Note_on_c, 14, 45, 0
20, 79470, Note_on_c, 14, 44, 90
20, 79499, Note_on_c, 14, 44, 0
20, 79500, Note_on_c, 14, 45, 90
20, 79559, Note_on_c, 14, 45, 0
20, 79560, Note_on_c, 14, 40, 90
20, 79619, Note_on_c, 14, 40, 0
20, 79620, Note_on_c, 14, 52, 90
20, 79679, Note_on_c, 14, 52, 0
20, 79680, Note_on_c, 14, 51, 90
20, 79739, Note_on_c, 14, 51, 0
20, 79740, Note_on_c, 14, 52, 90
20, 79799, Note_on_c, 14, 52, 0
20, 79860, Note_on_c, 14, 56, 90
20, 79919, Note_on_c, 14, 56, 0
20, 79920, Note_on_c, 14, 57, 90
20, 79979, Note_on_c, 14, 57, 0
20, 79980, Note_on_c, 14, 45, 90
20, 80039, Note_on_c, 14, 45, 0
20, 80040, Note_on_c, 14, 49, 90
20, 80099, Note_on_c, 14, 49, 0
20, 80100, Note_on_c, 14, 50, 90
20, 80159, Note_on_c, 14, 50, 0
20, 80220, Note_on_c, 14, 53, 90
20, 80279, Note_on_c, 14, 53, 0
20, 80280, Note_on_c, 14, 55, 90
20, 80339, Note_on_c, 14, 55, 0
20, 80340, Note_on_c, 14, 43, 90
20, 80399, Note_on_c, 14, 43, 0
20, 80400, Note_on_c, 14, 47, 90
20, 80459, Note_on_c, 14, 47, 0
20, 80460, Note_on_c, 14, 48, 90
20, 80519, Note_on_c, 14, 48, 0
20, 80520, Note_on_c, 14, 60, 90
20, 80579, Note_on_c, 14, 60, 0
20, 80580, Note_on_c, 14, 59, 90
20, 80639, Note_on_c, 14, 59, 0
20, 80640, Note_on_c, 14, 60, 90
20, 80699, Note_on_c, 14, 60, 0
20, 80700, Note_on_c, 14, 52, 90
20, 80729, Note_on_c, 14, 52, 0
20, 80730, Note_on_c, 14, 50, 90
20, 80759, Note_on_c, 14, 50, 0
20, 80760, Note_on_c, 14, 52, 90
20, 80789, Note_on_c, 14, 52, 0
20, 80790, Note_on_c, 14, 48, 90
20, 80819, Note_on_c, 14, 48, 0
20, 80820, Note_on_c, 14, 47, 90
20, 80879, Note_on_c, 14, 47, 0
20, 80880, Note_on_c, 14, 48, 90
20, 80939, Note_on_c, 14, 48, 0
20, 80940, Note_on_c, 14, 50, 90
20, 80999, Note_on_c, 14, 50, 0
20, 81000, Note_on_c, 14, 43, 90
20, 81059, Note_on_c, 14, 43, 0
20, 81060, Note_on_c, 14, 55, 90
20, 81089, Note_on_c, 14, 55, 0
20, 81090, Note_on_c, 14, 53, 90
20, 81119, Note_on_c, 14, 53, 0
20, 81120, Note_on_c, 14, 55, 90
20, 81149, Note_on_c, 14, 55, 0
20, 81150, Note_on_c, 14, 52, 90
20, 81179, Note_on_c, 14, 52, 0
20, 81180, Note_on_c, 14, 53, 90
20, 81239, Note_on_c, 14, 53, 0
20, 81240, Note_on_c, 14, 55, 90
20, 81299, Note_on_c, 14, 55, 0
20, 81300, Note_on_c, 14, 57, 90
20, 81359, Note_on_c, 14, 57, 0
20, 81360, Note_on_c, 14, 50, 90
20, 81419, Note_on_c, 14, 50, 0
20, 81420, Note_on_c, 14, 53, 90
20, 81449, Note_on_c, 14, 53, 0
20, 81450, Note_on_c, 14, 52, 90
20, 81479, Note_on_c, 14, 52, 0
20, 81480, Note_on_c, 14, 53, 90
20, 81509, Note_on_c, 14, 53, 0
20, 81510, Note_on_c, 14, 50, 90
20, 81539, Note_on_c, 14, 50, 0
20, 81540, Note_on_c, 14, 48, 90
20, 81599, Note_on_c, 14, 48, 0
20, 81600, Note_on_c, 14, 50, 90
20, 81659, Note_on_c, 14, 50, 0
20, 81660, Note_on_c, 14, 52, 90
20, 81719, Note_on_c, 14, 52, 0
20, 81720, Note_on_c, 14, 45, 90
20, 81839, Note_on_c, 14, 45, 0
20, 82020, Note_on_c, 14, 40, 90
20, 82079, Note_on_c, 14, 40, 0
20, 82080, Note_on_c, 14, 45, 90
20, 82139, Note_on_c, 14, 45, 0
20, 82200, Note_on_c, 14, 45, 90
20, 82259, Note_on_c, 14, 45, 0
20, 82260, Note_on_c, 14, 50, 90
20, 82319, Note_on_c, 14, 50, 0
20, 82320, Note_on_c, 14, 53, 90
20, 82379, Note_on_c, 14, 53, 0
20, 82380, Note_on_c, 14, 55, 90
20, 82439, Note_on_c, 14, 55, 0
20, 82440, Note_on_c, 14, 48, 90
20, 82499, Note_on_c, 14, 48, 0
20, 82560, Note_on_c, 14, 45, 90
20, 82619, Note_on_c, 14, 45, 0
20, 82620, Note_on_c, 14, 50, 90
20, 82679, Note_on_c, 14, 50, 0
20, 82740, Note_on_c, 14, 52, 90
20, 82799, Note_on_c, 14, 52, 0
20, 82800, Note_on_c, 14, 53, 90
20, 82829, Note_on_c, 14, 53, 0
20, 82830, Note_on_c, 14, 52, 90
20, 82859, Note_on_c, 14, 52, 0
20, 82860, Note_on_c, 14, 50, 90
20, 82889, Note_on_c, 14, 50, 0
20, 82890, Note_on_c, 14, 48, 90
20, 82919, Note_on_c, 14, 48, 0
20, 82920, Note_on_c, 14, 47, 90
20, 82949, Note_on_c, 14, 47, 0
20, 82950, Note_on_c, 14, 45, 90
20, 82979, Note_on_c, 14, 45, 0
20, 82980, Note_on_c, 14, 44, 90
20, 83039, Note_on_c, 14, 44, 0
20, 83040, Note_on_c, 14, 40, 90
20, 83099, Note_on_c, 14, 40, 0
20, 83100, Note_on_c, 14, 45, 90
20, 83159, Note_on_c, 14, 45, 0
20, 83160, Note_on_c, 14, 40, 90
20, 83219, Note_on_c, 14, 40, 0
20, 83220, Note_on_c, 14, 52, 90
20, 83279, Note_on_c, 14, 52, 0
20, 83280, Note_on_c, 14, 44, 90
20, 83339, Note_on_c, 14, 44, 0
20, 83340, Note_on_c, 14, 45, 90
20, 83399, Note_on_c, 14, 45, 0
20, 83460, Note_on_c, 14, 49, 90
20, 83519, Note_on_c, 14, 49, 0
20, 83520, Note_on_c, 14, 50, 90
20, 83579, Note_on_c, 14, 50, 0
20, 83580, Note_on_c, 14, 53, 90
20, 83639, Note_on_c, 14, 53, 0
20, 83640, Note_on_c, 14, 50, 90
20, 83699, Note_on_c, 14, 50, 0
20, 83700, Note_on_c, 14, 55, 90
20, 83759, Note_on_c, 14, 55, 0
20, 83820, Note_on_c, 14, 47, 90
20, 83879, Note_on_c, 14, 47, 0
20, 83880, Note_on_c, 14, 48, 90
20, 83939, Note_on_c, 14, 48, 0
20, 83940, Note_on_c, 14, 52, 90
20, 83999, Note_on_c, 14, 52, 0
20, 84000, Note_on_c, 14, 48, 90
20, 84059, Note_on_c, 14, 48, 0
20, 84060, Note_on_c, 14, 53, 90
20, 84119, Note_on_c, 14, 53, 0
20, 84120, Note_on_c, 14, 52, 90
20, 84179, Note_on_c, 14, 52, 0
20, 84180, Note_on_c, 14, 50, 90
20, 84239, Note_on_c, 14, 50, 0
20, 84240, Note_on_c, 14, 48, 90
20, 84299, Note_on_c, 14, 48, 0
20, 84300, Note_on_c, 14, 53, 90
20, 84359, Note_on_c, 14, 53, 0
20, 84360, Note_on_c, 14, 50, 90
20, 84419, Note_on_c, 14, 50, 0
20, 84420, Note_on_c, 14, 52, 90
20, 84479, Note_on_c, 14, 52, 0
20, 84480, Note_on_c, 14, 50, 90
20, 84539, Note_on_c, 14, 50, 0
20, 84540, Note_on_c, 14, 52, 90
20, 84599, Note_on_c, 14, 52, 0
20, 84600, Note_on_c, 14, 41, 90
20, 84659, Note_on_c, 14, 41, 0
20, 84660, Note_on_c, 14, 53, 90
20, 84689, Note_on_c, 14, 53, 0
20, 84690, Note_on_c, 14, 52, 90
20, 84719, Note_on_c, 14, 52, 0
20, 84720, Note_on_c, 14, 50, 90
20, 84749, Note_on_c, 14, 50, 0
20, 84750, Note_on_c, 14, 48, 90
20, 84779, Note_on_c, 14, 48, 0
20, 84780, Note_on_c, 14, 46, 90
20, 84839, Note_on_c, 14, 46, 0
20, 84960, Note_on_c, 14, 40, 90
20, 85019, Note_on_c, 14, 40, 0
20, 85140, Note_on_c, 14, 45, 90
20, 85199, Note_on_c, 14, 45, 0
20, 85320, Note_on_c, 14, 38, 90
20, 85379, Note_on_c, 14, 38, 0
20, 85440, Note_on_c, 14, 50, 90
20, 85559, Note_on_c, 14, 50, 0
20, 85560, Note_on_c, 14, 44, 90
20, 85589, Note_on_c, 14, 44, 0
20, 85590, Note_on_c, 14, 42, 90
20, 85619, Note_on_c, 14, 42, 0
20, 85620, Note_on_c, 14, 44, 90
20, 85649, Note_on_c, 14, 44, 0
20, 85650, Note_on_c, 14, 40, 90
20, 85679, Note_on_c, 14, 40, 0
20, 85680, Note_on_c, 14, 45, 90
20, 85769, Note_on_c, 14, 45, 0
20, 85770, Note_on_c, 14, 47, 90
20, 85799, Note_on_c, 14, 47, 0
20, 85800, Note_on_c, 14, 49, 90
20, 85829, Note_on_c, 14, 49, 0
20, 85830, Note_on_c, 14, 45, 90
20, 85859, Note_on_c, 14, 45, 0
20, 85860, Note_on_c, 14, 50, 90
20, 85919, Note_on_c, 14, 50, 0
20, 85920, Note_on_c, 14, 42, 90
20, 85949, Note_on_c, 14, 42, 0
20, 85950, Note_on_c, 14, 40, 90
20, 85979, Note_on_c, 14, 40, 0
20, 85980, Note_on_c, 14, 42, 90
20, 86009, Note_on_c, 14, 42, 0
20, 86010, Note_on_c, 14, 38, 90
20, 86039, Note_on_c, 14, 38, 0
20, 86040, Note_on_c, 14, 43, 90
20, 86129, Note_on_c, 14, 43, 0
20, 86130, Note_on_c, 14, 45, 90
20, 86159, Note_on_c, 14, 45, 0
20, 86160, Note_on_c, 14, 47, 90
20, 86189, Note_on_c, 14, 47, 0
20, 86190, Note_on_c, 14, 43, 90
20, 86219, Note_on_c, 14, 43, 0
20, 86220, Note_on_c, 14, 48, 90
20, 86279, Note_on_c, 14, 48, 0
20, 86280, Note_on_c, 14, 40, 90
20, 86309, Note_on_c, 14, 40, 0
20, 86310, Note_on_c, 14, 38, 90
20, 86339, Note_on_c, 14, 38, 0
20, 86340, Note_on_c, 14, 40, 90
20, 86369, Note_on_c, 14, 40, 0
20, 86370, Note_on_c, 14, 36, 90
20, 86399, Note_on_c, 14, 36, 0
20, 86400, Note_on_c, 14, 41, 90
20, 86459, Note_on_c, 14, 41, 0
20, 86460, Note_on_c, 14, 53, 90
20, 86489, Note_on_c, 14, 53, 0
20, 86490, Note_on_c, 14, 52, 90
20, 86519, Note_on_c, 14, 52, 0
20, 86520, Note_on_c, 14, 53, 90
20, 86549, Note_on_c, 14, 53, 0
20, 86550, Note_on_c, 14, 50, 90
20, 86579, Note_on_c, 14, 50, 0
20, 86580, Note_on_c, 14, 52, 90
20, 86639, Note_on_c, 14, 52, 0
20, 86640, Note_on_c, 14, 49, 90
20, 86699, Note_on_c, 14, 49, 0
20, 86700, Note_on_c, 14, 45, 90
20, 86759, Note_on_c, 14, 45, 0
20, 86760, Note_on_c, 14, 50, 90
20, 86819, Note_on_c, 14, 50, 0
20, 86820, Note_on_c, 14, 38, 90
20, 86879, Note_on_c, 14, 38, 0
20, 86880, Note_on_c, 14, 41, 90
20, 86939, Note_on_c, 14, 41, 0
20, 86940, Note_on_c, 14, 45, 90
20, 86999, Note_on_c, 14, 45, 0
20, 87060, Note_on_c, 14, 57, 90
20, 87119, Note_on_c, 14, 57, 0
20, 87120, Note_on_c, 14, 50, 90
20, 87179, Note_on_c, 14, 50, 0
20, 87240, Note_on_c, 14, 38, 90
20, 87299, Note_on_c, 14, 38, 0
20, 87300, Note_on_c, 14, 43, 90
20, 87359, Note_on_c, 14, 43, 0
20, 87420, Note_on_c, 14, 47, 90
20, 87479, Note_on_c, 14, 47, 0
20, 87480, Note_on_c, 14, 48, 90
20, 87539, Note_on_c, 14, 48, 0
20, 87600, Note_on_c, 14, 36, 90
20, 87659, Note_on_c, 14, 36, 0
20, 87660, Note_on_c, 14, 41, 90
20, 87719, Note_on_c, 14, 41, 0
20, 87720, Note_on_c, 14, 52, 90
20, 87779, Note_on_c, 14, 52, 0
20, 87780, Note_on_c, 14, 50, 90
20, 87839, Note_on_c, 14, 50, 0
20, 87840, Note_on_c, 14, 48, 90
20, 87899, Note_on_c, 14, 48, 0
20, 87960, Note_on_c, 14, 47, 90
20, 88019, Note_on_c, 14, 47, 0
20, 88020, Note_on_c, 14, 48, 90
20, 88079, Note_on_c, 14, 48, 0
20, 88080, Note_on_c, 14, 50, 90
20, 88139, Note_on_c, 14, 50, 0
20, 88140, Note_on_c, 14, 52, 90
20, 88199, Note_on_c, 14, 52, 0
20, 88200, Note_on_c, 14, 45, 90
20, 88319, Note_on_c, 14, 45, 0
20, 88500, Note_on_c, 14, 40, 90
20, 88559, Note_on_c, 14, 40, 0
20, 88560, Note_on_c, 14, 45, 90
20, 88619, Note_on_c, 14, 45, 0
20, 88620, Note_on_c, 14, 47, 90
20, 88679, Note_on_c, 14, 47, 0
20, 88680, Note_on_c, 14, 48, 90
20, 88739, Note_on_c, 14, 48, 0
20, 88740, Note_on_c, 14, 50, 90
20, 88799, Note_on_c, 14, 50, 0
20, 88800, Note_on_c, 14, 55, 90
20, 88859, Note_on_c, 14, 55, 0
20, 88860, Note_on_c, 14, 43, 90
20, 88919, Note_on_c, 14, 43, 0
20, 88920, Note_on_c, 14, 48, 90
20, 88979, Note_on_c, 14, 48, 0
20, 88980, Note_on_c, 14, 52, 90
20, 89039, Note_on_c, 14, 52, 0
20, 89040, Note_on_c, 14, 45, 90
20, 89099, Note_on_c, 14, 45, 0
20, 89100, Note_on_c, 14, 50, 90
20, 89219, Note_on_c, 14, 50, 0
20, 89220, Note_on_c, 14, 52, 90
20, 89279, Note_on_c, 14, 52, 0
20, 89280, Note_on_c, 14, 48, 90
20, 89339, Note_on_c, 14, 48, 0
20, 89340, Note_on_c, 14, 50, 90
20, 89369, Note_on_c, 14, 50, 0
20, 89370, Note_on_c, 14, 48, 90
20, 89399, Note_on_c, 14, 48, 0
20, 89400, Note_on_c, 14, 47, 90
20, 89429, Note_on_c, 14, 47, 0
20, 89430, Note_on_c, 14, 45, 90
20, 89459, Note_on_c, 14, 45, 0
20, 89460, Note_on_c, 14, 44, 90
20, 89519, Note_on_c, 14, 44, 0
20, 89520, Note_on_c, 14, 45, 90
20, 89549, Note_on_c, 14, 45, 0
20, 89550, Note_on_c, 14, 44, 90
20, 89579, Note_on_c, 14, 44, 0
20, 89580, Note_on_c, 14, 45, 90
20, 89639, Note_on_c, 14, 45, 0
20, 89640, Note_on_c, 14, 40, 90
20, 89699, Note_on_c, 14, 40, 0
20, 89700, Note_on_c, 14, 52, 90
20, 89759, Note_on_c, 14, 52, 0
20, 89760, Note_on_c, 14, 56, 90
20, 89819, Note_on_c, 14, 56, 0
20, 89820, Note_on_c, 14, 57, 90
20, 89879, Note_on_c, 14, 57, 0
20, 89880, Note_on_c, 14, 45, 90
20, 89939, Note_on_c, 14, 45, 0
20, 89940, Note_on_c, 14, 49, 90
20, 89999, Note_on_c, 14, 49, 0
20, 90000, Note_on_c, 14, 50, 90
20, 90059, Note_on_c, 14, 50, 0
20, 90120, Note_on_c, 14, 53, 90
20, 90179, Note_on_c, 14, 53, 0
20, 90180, Note_on_c, 14, 55, 90
20, 90239, Note_on_c, 14, 55, 0
20, 90240, Note_on_c, 14, 43, 90
20, 90299, Note_on_c, 14, 43, 0
20, 90300, Note_on_c, 14, 47, 90
20, 90359, Note_on_c, 14, 47, 0
20, 90360, Note_on_c, 14, 48, 90
20, 90419, Note_on_c, 14, 48, 0
20, 90480, Note_on_c, 14, 52, 90
20, 90539, Note_on_c, 14, 52, 0
20, 90540, Note_on_c, 14, 53, 90
20, 90599, Note_on_c, 14, 53, 0
20, 90600, Note_on_c, 14, 52, 90
20, 90659, Note_on_c, 14, 52, 0
20, 90660, Note_on_c, 14, 50, 90
20, 90719, Note_on_c, 14, 50, 0
20, 90720, Note_on_c, 14, 48, 90
20, 90779, Note_on_c, 14, 48, 0
20, 90780, Note_on_c, 14, 45, 90
20, 90839, Note_on_c, 14, 45, 0
20, 90840, Note_on_c, 14, 47, 90
20, 90899, Note_on_c, 14, 47, 0
20, 90900, Note_on_c, 14, 48, 90
20, 90959, Note_on_c, 14, 48, 0
20, 90960, Note_on_c, 14, 50, 90
20, 91019, Note_on_c, 14, 50, 0
20, 91020, Note_on_c, 14, 52, 90
20, 91079, Note_on_c, 14, 52, 0
20, 91080, Note_on_c, 14, 45, 90
20, 91109, Note_on_c, 14, 45, 0
20, 91110, Note_on_c, 14, 48, 90
20, 91139, Note_on_c, 14, 48, 0
20, 91140, Note_on_c, 14, 52, 90
20, 91169, Note_on_c, 14, 52, 0
20, 91170, Note_on_c, 14, 57, 90
20, 91199, Note_on_c, 14, 57, 0
20, 91200, Note_on_c, 14, 52, 90
20, 91229, Note_on_c, 14, 52, 0
20, 91230, Note_on_c, 14, 48, 90
20, 91259, Note_on_c, 14, 48, 0
20, 91260, Note_on_c, 14, 45, 90
20, 91379, Note_on_c, 14, 45, 0
20, 91500, Note_on_c, 14, 52, 90
20, 91529, Note_on_c, 14, 52, 0
20, 91530, Note_on_c, 14, 50, 90
20, 91559, Note_on_c, 14, 50, 0
20, 91560, Note_on_c, 14, 48, 90
20, 91589, Note_on_c, 14, 48, 0
20, 91590, Note_on_c, 14, 47, 90
20, 91619, Note_on_c, 14, 47, 0
20, 91620, Note_on_c, 14, 45, 90
20, 91649, Note_on_c, 14, 45, 0
20, 91650, Note_on_c, 14, 47, 90
20, 91679, Note_on_c, 14, 47, 0
20, 91680, Note_on_c, 14, 48, 90
20, 91709, Note_on_c, 14, 48, 0
20, 91710, Note_on_c, 14, 47, 90
20, 91739, Note_on_c, 14, 47, 0
20, 91740, Note_on_c, 14, 45, 90
20, 91769, Note_on_c, 14, 45, 0
20, 91770, Note_on_c, 14, 43, 90
20, 91799, Note_on_c, 14, 43, 0
20, 91800, Note_on_c, 14, 42, 90
20, 91829, Note_on_c, 14, 42, 0
20, 91830, Note_on_c, 14, 45, 90
20, 91859, Note_on_c, 14, 45, 0
20, 91860, Note_on_c, 14, 50, 90
20, 91889, Note_on_c, 14, 50, 0
20, 91890, Note_on_c, 14, 45, 90
20, 91919, Note_on_c, 14, 45, 0
20, 91920, Note_on_c, 14, 42, 90
20, 91949, Note_on_c, 14, 42, 0
20, 91950, Note_on_c, 14, 38, 90
20, 91979, Note_on_c, 14, 38, 0
20, 91980, Note_on_c, 14, 43, 90
20, 92009, Note_on_c, 14, 43, 0
20, 92010, Note_on_c, 14, 47, 90
20, 92039, Note_on_c, 14, 47, 0
20, 92040, Note_on_c, 14, 50, 90
20, 92069, Note_on_c, 14, 50, 0
20, 92070, Note_on_c, 14, 47, 90
20, 92099, Note_on_c, 14, 47, 0
20, 92100, Note_on_c, 14, 43, 90
20, 92129, Note_on_c, 14, 43, 0
20, 92130, Note_on_c, 14, 38, 90
20, 92159, Note_on_c, 14, 38, 0
20, 92160, Note_on_c, 14, 42, 90
20, 92189, Note_on_c, 14, 42, 0
20, 92190, Note_on_c, 14, 45, 90
20, 92219, Note_on_c, 14, 45, 0
20, 92220, Note_on_c, 14, 50, 90
20, 92249, Note_on_c, 14, 50, 0
20, 92250, Note_on_c, 14, 48, 90
20, 92279, Note_on_c, 14, 48, 0
20, 92280, Note_on_c, 14, 47, 90
20, 92309, Note_on_c, 14, 47, 0
20, 92310, Note_on_c, 14, 45, 90
20, 92339, Note_on_c, 14, 45, 0
20, 92340, Note_on_c, 14, 47, 90
20, 92369, Note_on_c, 14, 47, 0
20, 92370, Note_on_c, 14, 52, 90
20, 92399, Note_on_c, 14, 52, 0
20, 92400, Note_on_c, 14, 50, 90
20, 92429, Note_on_c, 14, 50, 0
20, 92430, Note_on_c, 14, 48, 90
20, 92459, Note_on_c, 14, 48, 0
20, 92460, Note_on_c, 14, 47, 90
20, 92489, Note_on_c, 14, 47, 0
20, 92490, Note_on_c, 14, 45, 90
20, 92519, Note_on_c, 14, 45, 0
20, 92520, Note_on_c, 14, 44, 90
20, 92549, Note_on_c, 14, 44, 0
20, 92550, Note_on_c, 14, 47, 90
20, 92579, Note_on_c, 14, 47, 0
20, 92580, Note_on_c, 14, 52, 90
20, 92609, Note_on_c, 14, 52, 0
20, 92610, Note_on_c, 14, 47, 90
20, 92639, Note_on_c, 14, 47, 0
20, 92640, Note_on_c, 14, 44, 90
20, 92669, Note_on_c, 14, 44, 0
20, 92670, Note_on_c, 14, 40, 90
20, 92699, Note_on_c, 14, 40, 0
20, 92700, Note_on_c, 14, 45, 90
20, 92729, Note_on_c, 14, 45, 0
20, 92730, Note_on_c, 14, 48, 90
20, 92759, Note_on_c, 14, 48, 0
20, 92760, Note_on_c, 14, 52, 90
20, 92789, Note_on_c, 14, 52, 0
20, 92790, Note_on_c, 14, 48, 90
20, 92819, Note_on_c, 14, 48, 0
20, 92820, Note_on_c, 14, 45, 90
20, 92849, Note_on_c, 14, 45, 0
20, 92850, Note_on_c, 14, 40, 90
20, 92879, Note_on_c, 14, 40, 0
20, 92880, Note_on_c, 14, 44, 90
20, 92909, Note_on_c, 14, 44, 0
20, 92910, Note_on_c, 14, 47, 90
20, 92939, Note_on_c, 14, 47, 0
20, 92940, Note_on_c, 14, 52, 90
20, 92969, Note_on_c, 14, 52, 0
20, 92970, Note_on_c, 14, 50, 90
20, 92999, Note_on_c, 14, 50, 0
20, 93000, Note_on_c, 14, 48, 90
20, 93029, Note_on_c, 14, 48, 0
20, 93030, Note_on_c, 14, 47, 90
20, 93059, Note_on_c, 14, 47, 0
20, 93060, Note_on_c, 14, 48, 90
20, 93089, Note_on_c, 14, 48, 0
20, 93090, Note_on_c, 14, 52, 90
20, 93119, Note_on_c, 14, 52, 0
20, 93120, Note_on_c, 14, 50, 90
20, 93149, Note_on_c, 14, 50, 0
20, 93150, Note_on_c, 14, 48, 90
20, 93179, Note_on_c, 14, 48, 0
20, 93180, Note_on_c, 14, 47, 90
20, 93209, Note_on_c, 14, 47, 0
20, 93210, Note_on_c, 14, 45, 90
20, 93239, Note_on_c, 14, 45, 0
20, 93240, Note_on_c, 14, 51, 90
20, 93299, Note_on_c, 14, 51, 0
20, 93360, Note_on_c, 14, 52, 90
20, 93419, Note_on_c, 14, 52, 0
20, 93420, Note_on_c, 14, 57, 90
20, 93449, Note_on_c, 14, 57, 0
20, 93450, Note_on_c, 14, 55, 90
20, 93479, Note_on_c, 14, 55, 0
20, 93480, Note_on_c, 14, 57, 90
20, 93509, Note_on_c, 14, 57, 0
20, 93510, Note_on_c, 14, 59, 90
20, 93539, Note_on_c, 14, 59, 0
20, 93540, Note_on_c, 14, 60, 90
20, 93569, Note_on_c, 14, 60, 0
20, 93570, Note_on_c, 14, 57, 90
20, 93599, Note_on_c, 14, 57, 0
20, 93600, Note_on_c, 14, 59, 90
20, 93629, Note_on_c, 14, 59, 0
20, 93630, Note_on_c, 14, 60, 90
20, 93659, Note_on_c, 14, 60, 0
20, 93660, Note_on_c, 14, 59, 90
20, 93689, Note_on_c, 14, 59, 0
20, 93690, Note_on_c, 14, 57, 90
20, 93719, Note_on_c, 14, 57, 0
20, 93720, Note_on_c, 14, 55, 90
20, 93749, Note_on_c, 14, 55, 0
20, 93750, Note_on_c, 14, 54, 90
20, 93779, Note_on_c, 14, 54, 0
20, 93780, Note_on_c, 14, 52, 90
20, 93839, Note_on_c, 14, 52, 0
20, 93840, Note_on_c, 14, 55, 90
20, 93899, Note_on_c, 14, 55, 0
20, 93900, Note_on_c, 14, 54, 90
20, 93959, Note_on_c, 14, 54, 0
20, 93960, Note_on_c, 14, 55, 90
20, 94019, Note_on_c, 14, 55, 0
20, 94020, Note_on_c, 14, 51, 90
20, 94079, Note_on_c, 14, 51, 0
20, 94080, Note_on_c, 14, 52, 90
20, 94139, Note_on_c, 14, 52, 0
20, 94140, Note_on_c, 14, 48, 90
20, 94199, Note_on_c, 14, 48, 0
20, 94200, Note_on_c, 14, 50, 90
20, 94259, Note_on_c, 14, 50, 0
20, 94260, Note_on_c, 14, 52, 90
20, 94319, Note_on_c, 14, 52, 0
20, 94320, Note_on_c, 14, 45, 90
20, 94379, Note_on_c, 14, 45, 0
20, 94410, Note_on_c, 14, 57, 90
20, 94439, Note_on_c, 14, 57, 0
20, 94440, Note_on_c, 14, 54, 90
20, 94469, Note_on_c, 14, 54, 0
20, 94470, Note_on_c, 14, 52, 90
20, 94499, Note_on_c, 14, 52, 0
20, 94500, Note_on_c, 14, 50, 90
20, 94559, Note_on_c, 14, 50, 0
20, 94560, Note_on_c, 14, 54, 90
20, 94619, Note_on_c, 14, 54, 0
20, 94620, Note_on_c, 14, 52, 90
20, 94679, Note_on_c, 14, 52, 0
20, 94680, Note_on_c, 14, 54, 90
20, 94739, Note_on_c, 14, 54, 0
20, 94740, Note_on_c, 14, 49, 90
20, 94799, Note_on_c, 14, 49, 0
20, 94800, Note_on_c, 14, 50, 90
20, 94859, Note_on_c, 14, 50, 0
20, 94860, Note_on_c, 14, 47, 90
20, 94919, Note_on_c, 14, 47, 0
20, 94920, Note_on_c, 14, 48, 90
20, 94979, Note_on_c, 14, 48, 0
20, 94980, Note_on_c, 14, 50, 90
20, 95039, Note_on_c, 14, 50, 0
20, 95040, Note_on_c, 14, 43, 90
20, 95099, Note_on_c, 14, 43, 0
20, 95100, Note_on_c, 14, 42, 90
20, 95159, Note_on_c, 14, 42, 0
20, 95160, Note_on_c, 14, 40, 90
20, 95219, Note_on_c, 14, 40, 0
20, 95220, Note_on_c, 14, 45, 90
20, 95279, Note_on_c, 14, 45, 0
20, 95280, Note_on_c, 14, 47, 90
20, 95339, Note_on_c, 14, 47, 0
20, 95340, Note_on_c, 14, 48, 90
20, 95399, Note_on_c, 14, 48, 0
20, 95400, Note_on_c, 14, 47, 90
20, 95459, Note_on_c, 14, 47, 0
20, 95460, Note_on_c, 14, 51, 90
20, 95519, Note_on_c, 14, 51, 0
20, 95520, Note_on_c, 14, 47, 90
20, 95579, Note_on_c, 14, 47, 0
20, 95580, Note_on_c, 14, 52, 90
20, 95639, Note_on_c, 14, 52, 0
20, 95640, Note_on_c, 14, 45, 90
20, 95699, Note_on_c, 14, 45, 0
20, 95700, Note_on_c, 14, 47, 90
20, 95759, Note_on_c, 14, 47, 0
20, 95760, Note_on_c, 14, 52, 90
20, 95789, Note_on_c, 14, 52, 0
20, 95790, Note_on_c, 14, 54, 90
20, 95819, Note_on_c, 14, 54, 0
20, 95820, Note_on_c, 14, 55, 90
20, 95849, Note_on_c, 14, 55, 0
20, 95850, Note_on_c, 14, 57, 90
20, 95879, Note_on_c, 14, 57, 0
20, 95880, Note_on_c, 14, 59, 90
20, 95909, Note_on_c, 14, 59, 0
20, 95910, Note_on_c, 14, 57, 90
20, 95939, Note_on_c, 14, 57, 0
20, 95940, Note_on_c, 14, 55, 90
20, 95999, Note_on_c, 14, 55, 0
20, 96000, Note_on_c, 14, 52, 90
20, 96059, Note_on_c, 14, 52, 0
20, 96060, Note_on_c, 14, 47, 90
20, 96119, Note_on_c, 14, 47, 0
20, 96120, Note_on_c, 14, 52, 90
20, 96179, Note_on_c, 14, 52, 0
20, 96180, Note_on_c, 14, 54, 90
20, 96239, Note_on_c, 14, 54, 0
20, 96240, Note_on_c, 14, 55, 90
20, 96299, Note_on_c, 14, 55, 0
20, 96300, Note_on_c, 14, 45, 90
20, 96359, Note_on_c, 14, 45, 0
20, 96360, Note_on_c, 14, 50, 90
20, 96419, Note_on_c, 14, 50, 0
20, 96420, Note_on_c, 14, 38, 90
20, 96479, Note_on_c, 14, 38, 0
20, 96480, Note_on_c, 14, 43, 90
20, 96539, Note_on_c, 14, 43, 0
20, 96540, Note_on_c, 14, 47, 90
20, 96599, Note_on_c, 14, 47, 0
20, 96600, Note_on_c, 14, 52, 90
20, 96659, Note_on_c, 14, 52, 0
20, 96660, Note_on_c, 14, 57, 90
20, 96779, Note_on_c, 14, 57, 0
20, 96780, Note_on_c, 14, 59, 90
20, 96839, Note_on_c, 14, 59, 0
20, 96840, Note_on_c, 14, 55, 90
20, 96899, Note_on_c, 14, 55, 0
20, 96900, Note_on_c, 14, 57, 90
20, 96929, Note_on_c, 14, 57, 0
20, 96930, Note_on_c, 14, 55, 90
20, 96959, Note_on_c, 14, 55, 0
20, 96960, Note_on_c, 14, 54, 90
20, 96989, Note_on_c, 14, 54, 0
20, 96990, Note_on_c, 14, 52, 90
20, 97019, Note_on_c, 14, 52, 0
20, 97020, Note_on_c, 14, 51, 90
20, 97079, Note_on_c, 14, 51, 0
20, 97080, Note_on_c, 14, 52, 90
20, 97139, Note_on_c, 14, 52, 0
20, 97140, Note_on_c, 14, 40, 90
20, 97199, Note_on_c, 14, 40, 0
20, 97200, Note_on_c, 14, 47, 90
20, 97259, Note_on_c, 14, 47, 0
20, 97260, Note_on_c, 14, 59, 90
20, 97319, Note_on_c, 14, 59, 0
20, 97320, Note_on_c, 14, 51, 90
20, 97379, Note_on_c, 14, 51, 0
20, 97380, Note_on_c, 14, 52, 90
20, 97439, Note_on_c, 14, 52, 0
20, 97620, Note_on_c, 14, 57, 90
20, 97679, Note_on_c, 14, 57, 0
20, 97680, Note_on_c, 14, 48, 90
20, 97739, Note_on_c, 14, 48, 0
20, 97740, Note_on_c, 14, 50, 90
20, 97799, Note_on_c, 14, 50, 0
20, 97980, Note_on_c, 14, 47, 90
20, 98039, Note_on_c, 14, 47, 0
20, 98040, Note_on_c, 14, 43, 90
20, 98099, Note_on_c, 14, 43, 0
20, 98100, Note_on_c, 14, 48, 90
20, 98159, Note_on_c, 14, 48, 0
20, 98340, Note_on_c, 14, 45, 90
20, 98399, Note_on_c, 14, 45, 0
20, 98400, Note_on_c, 14, 42, 90
20, 98459, Note_on_c, 14, 42, 0
20, 98460, Note_on_c, 14, 47, 90
20, 98519, Note_on_c, 14, 47, 0
20, 98700, Note_on_c, 14, 43, 90
20, 98759, Note_on_c, 14, 43, 0
20, 98760, Note_on_c, 14, 40, 90
20, 98819, Note_on_c, 14, 40, 0
20, 98820, Note_on_c, 14, 45, 90
20, 98879, Note_on_c, 14, 45, 0
20, 99060, Note_on_c, 14, 38, 90
20, 99119, Note_on_c, 14, 38, 0
20, 99120, Note_on_c, 14, 50, 90
20, 99239, Note_on_c, 14, 50, 0
20, 99240, Note_on_c, 14, 52, 90
20, 99299, Note_on_c, 14, 52, 0
20, 99300, Note_on_c, 14, 53, 90
20, 99359, Note_on_c, 14, 53, 0
20, 99360, Note_on_c, 14, 52, 90
20, 99389, Note_on_c, 14, 52, 0
20, 99390, Note_on_c, 14, 55, 90
20, 99419, Note_on_c, 14, 55, 0
20, 99420, Note_on_c, 14, 53, 90
20, 99449, Note_on_c, 14, 53, 0
20, 99450, Note_on_c, 14, 52, 90
20, 99479, Note_on_c, 14, 52, 0
20, 99480, Note_on_c, 14, 50, 90
20, 99509, Note_on_c, 14, 50, 0
20, 99510, Note_on_c, 14, 48, 90
20, 99539, Note_on_c, 14, 48, 0
20, 99540, Note_on_c, 14, 53, 90
20, 99599, Note_on_c, 14, 53, 0
20, 99600, Note_on_c, 14, 52, 90
20, 99659, Note_on_c, 14, 52, 0
20, 99660, Note_on_c, 14, 50, 90
20, 99719, Note_on_c, 14, 50, 0
20, 99720, Note_on_c, 14, 55, 90
20, 99779, Note_on_c, 14, 55, 0
20, 99780, Note_on_c, 14, 53, 90
20, 99839, Note_on_c, 14, 53, 0
20, 99840, Note_on_c, 14, 52, 90
20, 99899, Note_on_c, 14, 52, 0
20, 99900, Note_on_c, 14, 57, 90
20, 99959, Note_on_c, 14, 57, 0
20, 99960, Note_on_c, 14, 53, 90
20, 100019, Note_on_c, 14, 53, 0
20, 100020, Note_on_c, 14, 55, 90
20, 100079, Note_on_c, 14, 55, 0
20, 100080, Note_on_c, 14, 48, 90
20, 100199, Note_on_c, 14, 48, 0
20, 100380, Note_on_c, 14, 40, 90
20, 100439, Note_on_c, 14, 40, 0
20, 100440, Note_on_c, 14, 45, 90
20, 100499, Note_on_c, 14, 45, 0
20, 100500, Note_on_c, 14, 47, 90
20, 100559, Note_on_c, 14, 47, 0
20, 100560, Note_on_c, 14, 48, 90
20, 100619, Note_on_c, 14, 48, 0
20, 100620, Note_on_c, 14, 50, 90
20, 100679, Note_on_c, 14, 50, 0
20, 100680, Note_on_c, 14, 47, 90
20, 100739, Note_on_c, 14, 47, 0
20, 100740, Note_on_c, 14, 43, 90
20, 100799, Note_on_c, 14, 43, 0
20, 100800, Note_on_c, 14, 48, 90
20, 100859, Note_on_c, 14, 48, 0
20, 100860, Note_on_c, 14, 52, 90
20, 100919, Note_on_c, 14, 52, 0
20, 100920, Note_on_c, 14, 45, 90
20, 100979, Note_on_c, 14, 45, 0
20, 100980, Note_on_c, 14, 50, 90
20, 101099, Note_on_c, 14, 50, 0
20, 101100, Note_on_c, 14, 52, 90
20, 101159, Note_on_c, 14, 52, 0
20, 101160, Note_on_c, 14, 48, 90
20, 101219, Note_on_c, 14, 48, 0
20, 101220, Note_on_c, 14, 50, 90
20, 101249, Note_on_c, 14, 50, 0
20, 101250, Note_on_c, 14, 48, 90
20, 101279, Note_on_c, 14, 48, 0
20, 101280, Note_on_c, 14, 47, 90
20, 101309, Note_on_c, 14, 47, 0
20, 101310, Note_on_c, 14, 45, 90
20, 101339, Note_on_c, 14, 45, 0
20, 101340, Note_on_c, 14, 44, 90
20, 101399, Note_on_c, 14, 44, 0
20, 101400, Note_on_c, 14, 45, 90
20, 101429, Note_on_c, 14, 45, 0
20, 101430, Note_on_c, 14, 44, 90
20, 101459, Note_on_c, 14, 44, 0
20, 101460, Note_on_c, 14, 45, 90
20, 101519, Note_on_c, 14, 45, 0
20, 101520, Note_on_c, 14, 40, 90
20, 101579, Note_on_c, 14, 40, 0
20, 101580, Note_on_c, 14, 52, 90
20, 101639, Note_on_c, 14, 52, 0
20, 101640, Note_on_c, 14, 56, 90
20, 101699, Note_on_c, 14, 56, 0
20, 101700, Note_on_c, 14, 57, 90
20, 101759, Note_on_c, 14, 57, 0
20, 101760, Note_on_c, 14, 45, 90
20, 101819, Note_on_c, 14, 45, 0
20, 101820, Note_on_c, 14, 49, 90
20, 101879, Note_on_c, 14, 49, 0
20, 101880, Note_on_c, 14, 50, 90
20, 101939, Note_on_c, 14, 50, 0
20, 102000, Note_on_c, 14, 53, 90
20, 102059, Note_on_c, 14, 53, 0
20, 102060, Note_on_c, 14, 55, 90
20, 102119, Note_on_c, 14, 55, 0
20, 102120, Note_on_c, 14, 43, 90
20, 102179, Note_on_c, 14, 43, 0
20, 102180, Note_on_c, 14, 47, 90
20, 102239, Note_on_c, 14, 47, 0
20, 102240, Note_on_c, 14, 48, 90
20, 102299, Note_on_c, 14, 48, 0
20, 102360, Note_on_c, 14, 52, 90
20, 102419, Note_on_c, 14, 52, 0
20, 102420, Note_on_c, 14, 53, 90
20, 102479, Note_on_c, 14, 53, 0
20, 102480, Note_on_c, 14, 52, 90
20, 102539, Note_on_c, 14, 52, 0
20, 102540, Note_on_c, 14, 50, 90
20, 102599, Note_on_c, 14, 50, 0
20, 102600, Note_on_c, 14, 48, 90
20, 102659, Note_on_c, 14, 48, 0
20, 102660, Note_on_c, 14, 45, 90
20, 102719, Note_on_c, 14, 45, 0
20, 102720, Note_on_c, 14, 47, 90
20, 102779, Note_on_c, 14, 47, 0
20, 102780, Note_on_c, 14, 48, 90
20, 102839, Note_on_c, 14, 48, 0
20, 102840, Note_on_c, 14, 50, 90
20, 102899, Note_on_c, 14, 50, 0
20, 102900, Note_on_c, 14, 52, 90
20, 102959, Note_on_c, 14, 52, 0
20, 102960, Note_on_c, 14, 45, 90
20, 103079, Note_on_c, 14, 45, 0
20, 103260, Note_on_c, 14, 40, 90
20, 103319, Note_on_c, 14, 40, 0
20, 103320, Note_on_c, 14, 45, 90
20, 103379, Note_on_c, 14, 45, 0
20, 103380, Note_on_c, 14, 47, 90
20, 103439, Note_on_c, 14, 47, 0
20, 103440, Note_on_c, 14, 48, 90
20, 103499, Note_on_c, 14, 48, 0
20, 103500, Note_on_c, 14, 50, 90
20, 103559, Note_on_c, 14, 50, 0
20, 103560, Note_on_c, 14, 47, 90
20, 103619, Note_on_c, 14, 47, 0
20, 103620, Note_on_c, 14, 43, 90
20, 103679, Note_on_c, 14, 43, 0
20, 103680, Note_on_c, 14, 48, 90
20, 103739, Note_on_c, 14, 48, 0
20, 103740, Note_on_c, 14, 52, 90
20, 103799, Note_on_c, 14, 52, 0
20, 103800, Note_on_c, 14, 45, 90
20, 103859, Note_on_c, 14, 45, 0
20, 103860, Note_on_c, 14, 50, 90
20, 103979, Note_on_c, 14, 50, 0
20, 103980, Note_on_c, 14, 52, 90
20, 104039, Note_on_c, 14, 52, 0
20, 104040, Note_on_c, 14, 48, 90
20, 104099, Note_on_c, 14, 48, 0
20, 104100, Note_on_c, 14, 50, 90
20, 104129, Note_on_c, 14, 50, 0
20, 104130, Note_on_c, 14, 48, 90
20, 104159, Note_on_c, 14, 48, 0
20, 104160, Note_on_c, 14, 47, 90
20, 104189, Note_on_c, 14, 47, 0
20, 104190, Note_on_c, 14, 45, 90
20, 104219, Note_on_c, 14, 45, 0
20, 104220, Note_on_c, 14, 44, 90
20, 104279, Note_on_c, 14, 44, 0
20, 104280, Note_on_c, 14, 45, 90
20, 104309, Note_on_c, 14, 45, 0
20, 104310, Note_on_c, 14, 44, 90
20, 104339, Note_on_c, 14, 44, 0
20, 104340, Note_on_c, 14, 45, 90
20, 104399, Note_on_c, 14, 45, 0
20, 104400, Note_on_c, 14, 40, 90
20, 104459, Note_on_c, 14, 40, 0
20, 104460, Note_on_c, 14, 52, 90
20, 104519, Note_on_c, 14, 52, 0
20, 104520, Note_on_c, 14, 51, 90
20, 104579, Note_on_c, 14, 51, 0
20, 104580, Note_on_c, 14, 52, 90
20, 104639, Note_on_c, 14, 52, 0
20, 104700, Note_on_c, 14, 56, 90
20, 104759, Note_on_c, 14, 56, 0
20, 104760, Note_on_c, 14, 57, 90
20, 104819, Note_on_c, 14, 57, 0
20, 104820, Note_on_c, 14, 45, 90
20, 104879, Note_on_c, 14, 45, 0
20, 104880, Note_on_c, 14, 49, 90
20, 104939, Note_on_c, 14, 49, 0
20, 104940, Note_on_c, 14, 50, 90
20, 104999, Note_on_c, 14, 50, 0
20, 105060, Note_on_c, 14, 53, 90
20, 105119, Note_on_c, 14, 53, 0
20, 105120, Note_on_c, 14, 55, 90
20, 105179, Note_on_c, 14, 55, 0
20, 105180, Note_on_c, 14, 43, 90
20, 105239, Note_on_c, 14, 43, 0
20, 105240, Note_on_c, 14, 47, 90
20, 105299, Note_on_c, 14, 47, 0
20, 105300, Note_on_c, 14, 48, 90
20, 105359, Note_on_c, 14, 48, 0
20, 105360, Note_on_c, 14, 60, 90
20, 105419, Note_on_c, 14, 60, 0
20, 105420, Note_on_c, 14, 59, 90
20, 105479, Note_on_c, 14, 59, 0
20, 105480, Note_on_c, 14, 60, 90
20, 105539, Note_on_c, 14, 60, 0
20, 105540, Note_on_c, 14, 52, 90
20, 105569, Note_on_c, 14, 52, 0
20, 105570, Note_on_c, 14, 50, 90
20, 105599, Note_on_c, 14, 50, 0
20, 105600, Note_on_c, 14, 52, 90
20, 105629, Note_on_c, 14, 52, 0
20, 105630, Note_on_c, 14, 48, 90
20, 105659, Note_on_c, 14, 48, 0
20, 105660, Note_on_c, 14, 47, 90
20, 105719, Note_on_c, 14, 47, 0
20, 105720, Note_on_c, 14, 48, 90
20, 105779, Note_on_c, 14, 48, 0
20, 105780, Note_on_c, 14, 50, 90
20, 105839, Note_on_c, 14, 50, 0
20, 105840, Note_on_c, 14, 43, 90
20, 105899, Note_on_c, 14, 43, 0
20, 105900, Note_on_c, 14, 55, 90
20, 105929, Note_on_c, 14, 55, 0
20, 105930, Note_on_c, 14, 53, 90
20, 105959, Note_on_c, 14, 53, 0
20, 105960, Note_on_c, 14, 55, 90
20, 105989, Note_on_c, 14, 55, 0
20, 105990, Note_on_c, 14, 52, 90
20, 106019, Note_on_c, 14, 52, 0
20, 106020, Note_on_c, 14, 53, 90
20, 106079, Note_on_c, 14, 53, 0
20, 106080, Note_on_c, 14, 55, 90
20, 106139, Note_on_c, 14, 55, 0
20, 106140, Note_on_c, 14, 57, 90
20, 106199, Note_on_c, 14, 57, 0
20, 106200, Note_on_c, 14, 50, 90
20, 106259, Note_on_c, 14, 50, 0
20, 106260, Note_on_c, 14, 53, 90
20, 106289, Note_on_c, 14, 53, 0
20, 106290, Note_on_c, 14, 52, 90
20, 106319, Note_on_c, 14, 52, 0
20, 106320, Note_on_c, 14, 53, 90
20, 106349, Note_on_c, 14, 53, 0
20, 106350, Note_on_c, 14, 50, 90
20, 106379, Note_on_c, 14, 50, 0
20, 106380, Note_on_c, 14, 48, 90
20, 106439, Note_on_c, 14, 48, 0
20, 106440, Note_on_c, 14, 50, 90
20, 106499, Note_on_c, 14, 50, 0
20, 106500, Note_on_c, 14, 52, 90
20, 106559, Note_on_c, 14, 52, 0
20, 106560, Note_on_c, 14, 45, 90
20, 106679, Note_on_c, 14, 45, 0
20, 106860, Note_on_c, 14, 40, 90
20, 106919, Note_on_c, 14, 40, 0
20, 106920, Note_on_c, 14, 45, 90
20, 106979, Note_on_c, 14, 45, 0
20, 107040, Note_on_c, 14, 45, 90
20, 107099, Note_on_c, 14, 45, 0
20, 107100, Note_on_c, 14, 50, 90
20, 107159, Note_on_c, 14, 50, 0
20, 107160, Note_on_c, 14, 53, 90
20, 107219, Note_on_c, 14, 53, 0
20, 107220, Note_on_c, 14, 55, 90
20, 107279, Note_on_c, 14, 55, 0
20, 107280, Note_on_c, 14, 48, 90
20, 107339, Note_on_c, 14, 48, 0
20, 107400, Note_on_c, 14, 45, 90
20, 107459, Note_on_c, 14, 45, 0
20, 107460, Note_on_c, 14, 50, 90
20, 107519, Note_on_c, 14, 50, 0
20, 107580, Note_on_c, 14, 52, 90
20, 107639, Note_on_c, 14, 52, 0
20, 107640, Note_on_c, 14, 53, 90
20, 107669, Note_on_c, 14, 53, 0
20, 107670, Note_on_c, 14, 52, 90
20, 107699, Note_on_c, 14, 52, 0
20, 107700, Note_on_c, 14, 50, 90
20, 107729, Note_on_c, 14, 50, 0
20, 107730, Note_on_c, 14, 48, 90
20, 107759, Note_on_c, 14, 48, 0
20, 107760, Note_on_c, 14, 47, 90
20, 107789, Note_on_c, 14, 47, 0
20, 107790, Note_on_c, 14, 45, 90
20, 107819, Note_on_c, 14, 45, 0
20, 107820, Note_on_c, 14, 44, 90
20, 107879, Note_on_c, 14, 44, 0
20, 107880, Note_on_c, 14, 40, 90
20, 107939, Note_on_c, 14, 40, 0
20, 107940, Note_on_c, 14, 45, 90
20, 107999, Note_on_c, 14, 45, 0
20, 108000, Note_on_c, 14, 40, 90
20, 108059, Note_on_c, 14, 40, 0
20, 108060, Note_on_c, 14, 52, 90
20, 108119, Note_on_c, 14, 52, 0
20, 108120, Note_on_c, 14, 44, 90
20, 108179, Note_on_c, 14, 44, 0
20, 108180, Note_on_c, 14, 45, 90
20, 108239, Note_on_c, 14, 45, 0
20, 108300, Note_on_c, 14, 49, 90
20, 108359, Note_on_c, 14, 49, 0
20, 108360, Note_on_c, 14, 50, 90
20, 108419, Note_on_c, 14, 50, 0
20, 108420, Note_on_c, 14, 53, 90
20, 108479, Note_on_c, 14, 53, 0
20, 108480, Note_on_c, 14, 50, 90
20, 108539, Note_on_c, 14, 50, 0
20, 108540, Note_on_c, 14, 55, 90
20, 108599, Note_on_c, 14, 55, 0
20, 108660, Note_on_c, 14, 47, 90
20, 108719, Note_on_c, 14, 47, 0
20, 108720, Note_on_c, 14, 48, 90
20, 108779, Note_on_c, 14, 48, 0
20, 108780, Note_on_c, 14, 52, 90
20, 108839, Note_on_c, 14, 52, 0
20, 108840, Note_on_c, 14, 48, 90
20, 108899, Note_on_c, 14, 48, 0
20, 108900, Note_on_c, 14, 53, 90
20, 108959, Note_on_c, 14, 53, 0
20, 108960, Note_on_c, 14, 52, 90
20, 109019, Note_on_c, 14, 52, 0
20, 109020, Note_on_c, 14, 50, 90
20, 109079, Note_on_c, 14, 50, 0
20, 109080, Note_on_c, 14, 48, 90
20, 109139, Note_on_c, 14, 48, 0
20, 109140, Note_on_c, 14, 53, 90
20, 109199, Note_on_c, 14, 53, 0
20, 109200, Note_on_c, 14, 50, 90
20, 109259, Note_on_c, 14, 50, 0
20, 109260, Note_on_c, 14, 52, 90
20, 109319, Note_on_c, 14, 52, 0
20, 109320, Note_on_c, 14, 50, 90
20, 109379, Note_on_c, 14, 50, 0
20, 109380, Note_on_c, 14, 52, 90
20, 109439, Note_on_c, 14, 52, 0
20, 109440, Note_on_c, 14, 41, 90
20, 109499, Note_on_c, 14, 41, 0
20, 109500, Note_on_c, 14, 53, 90
20, 109529, Note_on_c, 14, 53, 0
20, 109530, Note_on_c, 14, 52, 90
20, 109559, Note_on_c, 14, 52, 0
20, 109560, Note_on_c, 14, 50, 90
20, 109589, Note_on_c, 14, 50, 0
20, 109590, Note_on_c, 14, 48, 90
20, 109619, Note_on_c, 14, 48, 0
20, 109620, Note_on_c, 14, 46, 90
20, 109679, Note_on_c, 14, 46, 0
20, 109800, Note_on_c, 14, 40, 90
20, 109859, Note_on_c, 14, 40, 0
20, 109980, Note_on_c, 14, 45, 90
20, 110039, Note_on_c, 14, 45, 0
20, 110160, Note_on_c, 14, 38, 90
20, 110219, Note_on_c, 14, 38, 0
20, 110280, Note_on_c, 14, 50, 90
20, 110399, Note_on_c, 14, 50, 0
20, 110400, Note_on_c, 14, 44, 90
20, 110429, Note_on_c, 14, 44, 0
20, 110430, Note_on_c, 14, 42, 90
20, 110459, Note_on_c, 14, 42, 0
20, 110460, Note_on_c, 14, 44, 90
20, 110489, Note_on_c, 14, 44, 0
20, 110490, Note_on_c, 14, 40, 90
20, 110519, Note_on_c, 14, 40, 0
20, 110520, Note_on_c, 14, 45, 90
20, 110609, Note_on_c, 14, 45, 0
20, 110610, Note_on_c, 14, 47, 90
20, 110639, Note_on_c, 14, 47, 0
20, 110640, Note_on_c, 14, 49, 90
20, 110669, Note_on_c, 14, 49, 0
20, 110670, Note_on_c, 14, 45, 90
20, 110699, Note_on_c, 14, 45, 0
20, 110700, Note_on_c, 14, 50, 90
20, 110759, Note_on_c, 14, 50, 0
20, 110760, Note_on_c, 14, 42, 90
20, 110789, Note_on_c, 14, 42, 0
20, 110790, Note_on_c, 14, 40, 90
20, 110819, Note_on_c, 14, 40, 0
20, 110820, Note_on_c, 14, 42, 90
20, 110849, Note_on_c, 14, 42, 0
20, 110850, Note_on_c, 14, 38, 90
20, 110879, Note_on_c, 14, 38, 0
20, 110880, Note_on_c, 14, 43, 90
20, 110969, Note_on_c, 14, 43, 0
20, 110970, Note_on_c, 14, 45, 90
20, 110999, Note_on_c, 14, 45, 0
20, 111000, Note_on_c, 14, 47, 90
20, 111029, Note_on_c, 14, 47, 0
20, 111030, Note_on_c, 14, 43, 90
20, 111059, Note_on_c, 14, 43, 0
20, 111060, Note_on_c, 14, 48, 90
20, 111119, Note_on_c, 14, 48, 0
20, 111120, Note_on_c, 14, 40, 90
20, 111149, Note_on_c, 14, 40, 0
20, 111150, Note_on_c, 14, 38, 90
20, 111179, Note_on_c, 14, 38, 0
20, 111180, Note_on_c, 14, 40, 90
20, 111209, Note_on_c, 14, 40, 0
20, 111210, Note_on_c, 14, 36, 90
20, 111239, Note_on_c, 14, 36, 0
20, 111240, Note_on_c, 14, 41, 90
20, 111299, Note_on_c, 14, 41, 0
20, 111300, Note_on_c, 14, 53, 90
20, 111329, Note_on_c, 14, 53, 0
20, 111330, Note_on_c, 14, 52, 90
20, 111359, Note_on_c, 14, 52, 0
20, 111360, Note_on_c, 14, 53, 90
20, 111389, Note_on_c, 14, 53, 0
20, 111390, Note_on_c, 14, 50, 90
20, 111419, Note_on_c, 14, 50, 0
20, 111420, Note_on_c, 14, 52, 90
20, 111479, Note_on_c, 14, 52, 0
20, 111480, Note_on_c, 14, 49, 90
20, 111539, Note_on_c, 14, 49, 0
20, 111540, Note_on_c, 14, 45, 90
20, 111599, Note_on_c, 14, 45, 0
20, 111600, Note_on_c, 14, 50, 90
20, 111659, Note_on_c, 14, 50, 0
20, 111660, Note_on_c, 14, 38, 90
20, 111719, Note_on_c, 14, 38, 0
20, 111720, Note_on_c, 14, 41, 90
20, 111779, Note_on_c, 14, 41, 0
20, 111780, Note_on_c, 14, 45, 90
20, 111839, Note_on_c, 14, 45, 0
20, 111900, Note_on_c, 14, 57, 90
20, 111959, Note_on_c, 14, 57, 0
20, 111960, Note_on_c, 14, 50, 90
20, 112019, Note_on_c, 14, 50, 0
20, 112080, Note_on_c, 14, 38, 90
20, 112139, Note_on_c, 14, 38, 0
20, 112140, Note_on_c, 14, 43, 90
20, 112199, Note_on_c, 14, 43, 0
20, 112260, Note_on_c, 14, 47, 90
20, 112319, Note_on_c, 14, 47, 0
20, 112320, Note_on_c, 14, 48, 90
20, 112379, Note_on_c, 14, 48, 0
20, 112440, Note_on_c, 14, 36, 90
20, 112499, Note_on_c, 14, 36, 0
20, 112500, Note_on_c, 14, 41, 90
20, 112559, Note_on_c, 14, 41, 0
20, 112560, Note_on_c, 14, 52, 90
20, 112619, Note_on_c, 14, 52, 0
20, 112620, Note_on_c, 14, 50, 90
20, 112679, Note_on_c, 14, 50, 0
20, 112680, Note_on_c, 14, 48, 90
20, 112739, Note_on_c, 14, 48, 0
20, 112800, Note_on_c, 14, 47, 90
20, 112859, Note_on_c, 14, 47, 0
20, 112860, Note_on_c, 14, 48, 90
20, 112919, Note_on_c, 14, 48, 0
20, 112920, Note_on_c, 14, 50, 90
20, 112979, Note_on_c, 14, 50, 0
20, 112980, Note_on_c, 14, 52, 90
20, 113039, Note_on_c, 14, 52, 0
20, 113040, Note_on_c, 14, 45, 90
20, 113159, Note_on_c, 14, 45, 0
20, 113340, Note_on_c, 14, 40, 90
20, 113399, Note_on_c, 14, 40, 0
20, 113400, Note_on_c, 14, 45, 90
20, 113459, Note_on_c, 14, 45, 0
20, 113460, Note_on_c, 14, 47, 90
20, 113519, Note_on_c, 14, 47, 0
20, 113520, Note_on_c, 14, 48, 90
20, 113579, Note_on_c, 14, 48, 0
20, 113580, Note_on_c, 14, 50, 90
20, 113639, Note_on_c, 14, 50, 0
20, 113640, Note_on_c, 14, 55, 90
20, 113699, Note_on_c, 14, 55, 0
20, 113700, Note_on_c, 14, 43, 90
20, 113759, Note_on_c, 14, 43, 0
20, 113760, Note_on_c, 14, 48, 90
20, 113819, Note_on_c, 14, 48, 0
20, 113820, Note_on_c, 14, 52, 90
20, 113879, Note_on_c, 14, 52, 0
20, 113880, Note_on_c, 14, 45, 90
20, 113939, Note_on_c, 14, 45, 0
20, 113940, Note_on_c, 14, 50, 90
20, 114059, Note_on_c, 14, 50, 0
20, 114060, Note_on_c, 14, 52, 90
20, 114119, Note_on_c, 14, 52, 0
20, 114120, Note_on_c, 14, 48, 90
20, 114179, Note_on_c, 14, 48, 0
20, 114180, Note_on_c, 14, 50, 90
20, 114209, Note_on_c, 14, 50, 0
20, 114210, Note_on_c, 14, 48, 90
20, 114239, Note_on_c, 14, 48, 0
20, 114240, Note_on_c, 14, 47, 90
20, 114269, Note_on_c, 14, 47, 0
20, 114270, Note_on_c, 14, 45, 90
20, 114299, Note_on_c, 14, 45, 0
20, 114300, Note_on_c, 14, 44, 90
20, 114359, Note_on_c, 14, 44, 0
20, 114360, Note_on_c, 14, 45, 90
20, 114389, Note_on_c, 14, 45, 0
20, 114390, Note_on_c, 14, 44, 90
20, 114419, Note_on_c, 14, 44, 0
20, 114420, Note_on_c, 14, 45, 90
20, 114479, Note_on_c, 14, 45, 0
20, 114480, Note_on_c, 14, 40, 90
20, 114539, Note_on_c, 14, 40, 0
20, 114540, Note_on_c, 14, 52, 90
20, 114599, Note_on_c, 14, 52, 0
20, 114600, Note_on_c, 14, 56, 90
20, 114659, Note_on_c, 14, 56, 0
20, 114660, Note_on_c, 14, 57, 90
20, 114719, Note_on_c, 14, 57, 0
20, 114720, Note_on_c, 14, 45, 90
20, 114779, Note_on_c, 14, 45, 0
20, 114780, Note_on_c, 14, 49, 90
20, 114839, Note_on_c, 14, 49, 0
20, 114840, Note_on_c, 14, 50, 90
20, 114899, Note_on_c, 14, 50, 0
20, 114960, Note_on_c, 14, 53, 90
20, 115019, Note_on_c, 14, 53, 0
20, 115020, Note_on_c, 14, 55, 90
20, 115079, Note_on_c, 14, 55, 0
20, 115080, Note_on_c, 14, 43, 90
20, 115139, Note_on_c, 14, 43, 0
20, 115140, Note_on_c, 14, 47, 90
20, 115199, Note_on_c, 14, 47, 0
20, 115200, Note_on_c, 14, 48, 90
20, 115259, Note_on_c, 14, 48, 0
20, 115320, Note_on_c, 14, 52, 90
20, 115379, Note_on_c, 14, 52, 0
20, 115380, Note_on_c, 14, 53, 90
20, 115439, Note_on_c, 14, 53, 0
20, 115440, Note_on_c, 14, 52, 90
20, 115499, Note_on_c, 14, 52, 0
20, 115500, Note_on_c, 14, 50, 90
20, 115559, Note_on_c, 14, 50, 0
20, 115560, Note_on_c, 14, 48, 90
20, 115619, Note_on_c, 14, 48, 0
20, 115620, Note_on_c, 14, 45, 90
20, 115679, Note_on_c, 14, 45, 0
20, 115680, Note_on_c, 14, 47, 90
20, 115739, Note_on_c, 14, 47, 0
20, 115740, Note_on_c, 14, 48, 90
20, 115799, Note_on_c, 14, 48, 0
20, 115800, Note_on_c, 14, 50, 90
20, 115859, Note_on_c, 14, 50, 0
20, 115860, Note_on_c, 14, 52, 90
20, 115919, Note_on_c, 14, 52, 0
20, 115920, Note_on_c, 14, 45, 90
20, 116100, Note_on_c, 14, 45, 0
20, 116460, Note_on_c, 14, 52, 90
20, 116579, Note_on_c, 14, 52, 0
20, 116580, Note_on_c, 14, 53, 90
20, 116699, Note_on_c, 14, 53, 0
20, 116700, Note_on_c, 14, 55, 90
20, 116819, Note_on_c, 14, 55, 0
20, 116820, Note_on_c, 14, 57, 90
20, 116879, Note_on_c, 14, 57, 0
20, 116880, Note_on_c, 14, 59, 90
20, 116939, Note_on_c, 14, 59, 0
20, 116940, Note_on_c, 14, 60, 90
20, 117059, Note_on_c, 14, 60, 0
20, 117060, Note_on_c, 14, 53, 90
20, 117299, Note_on_c, 14, 53, 0
20, 117300, Note_on_c, 14, 52, 90
20, 117395, Note_on_c, 14, 52, 0
20, 117420, Note_on_c, 14, 52, 90
20, 117539, Note_on_c, 14, 52, 0
20, 117540, Note_on_c, 14, 57, 90
20, 117599, Note_on_c, 14, 57, 0
20, 117600, Note_on_c, 14, 55, 90
20, 117659, Note_on_c, 14, 55, 0
20, 117660, Note_on_c, 14, 53, 90
20, 117719, Note_on_c, 14, 53, 0
20, 117720, Note_on_c, 14, 52, 90
20, 117779, Note_on_c, 14, 52, 0
20, 117780, Note_on_c, 14, 50, 90
20, 117839, Note_on_c, 14, 50, 0
20, 117840, Note_on_c, 14, 47, 90
20, 117899, Note_on_c, 14, 47, 0
20, 117900, Note_on_c, 14, 52, 90
20, 118020, Note_on_c, 14, 52, 0
20, 118020, Note_on_c, 14, 45, 90
20, 118379, Note_on_c, 14, 45, 0
20, 118380, Note_on_c, 14, 52, 90
20, 118499, Note_on_c, 14, 52, 0
20, 118500, Note_on_c, 14, 53, 90
20, 118619, Note_on_c, 14, 53, 0
20, 118620, Note_on_c, 14, 55, 90
20, 118739, Note_on_c, 14, 55, 0
20, 118740, Note_on_c, 14, 57, 90
20, 118799, Note_on_c, 14, 57, 0
20, 118800, Note_on_c, 14, 59, 90
20, 118859, Note_on_c, 14, 59, 0
20, 118860, Note_on_c, 14, 60, 90
20, 118979, Note_on_c, 14, 60, 0
20, 118980, Note_on_c, 14, 53, 90
20, 119219, Note_on_c, 14, 53, 0
20, 119220, Note_on_c, 14, 52, 90
20, 119315, Note_on_c, 14, 52, 0
20, 119340, Note_on_c, 14, 52, 90
20, 119459, Note_on_c, 14, 52, 0
20, 119460, Note_on_c, 14, 57, 90
20, 119519, Note_on_c, 14, 57, 0
20, 119520, Note_on_c, 14, 55, 90
20, 119579, Note_on_c, 14, 55, 0
20, 119580, Note_on_c, 14, 53, 90
20, 119639, Note_on_c, 14, 53, 0
20, 119640, Note_on_c, 14, 52, 90
20, 119699, Note_on_c, 14, 52, 0
20, 119700, Note_on_c, 14, 50, 90
20, 119759, Note_on_c, 14, 50, 0
20, 119760, Note_on_c, 14, 47, 90
20, 119819, Note_on_c, 14, 47, 0
20, 119820, Note_on_c, 14, 52, 90
20, 119940, Note_on_c, 14, 52, 0
20, 119940, Note_on_c, 14, 45, 90
20, 120299, Note_on_c, 14, 45, 0
20, 120300, Note_on_c, 14, 57, 90
20, 120419, Note_on_c, 14, 57, 0
20, 120420, Note_on_c, 14, 50, 90
20, 120539, Note_on_c, 14, 50, 0
20, 120540, Note_on_c, 14, 52, 90
20, 120659, Note_on_c, 14, 52, 0
20, 120660, Note_on_c, 14, 53, 90
20, 120719, Note_on_c, 14, 53, 0
20, 120720, Note_on_c, 14, 52, 90
20, 120779, Note_on_c, 14, 52, 0
20, 120780, Note_on_c, 14, 50, 90
20, 120899, Note_on_c, 14, 50, 0
20, 120900, Note_on_c, 14, 45, 90
20, 120959, Note_on_c, 14, 45, 0
20, 120960, Note_on_c, 14, 47, 90
20, 121019, Note_on_c, 14, 47, 0
20, 121020, Note_on_c, 14, 48, 90
20, 121139, Note_on_c, 14, 48, 0
20, 121140, Note_on_c, 14, 48, 90
20, 121235, Note_on_c, 14, 48, 0
20, 121260, Note_on_c, 14, 48, 90
20, 121379, Note_on_c, 14, 48, 0
20, 121380, Note_on_c, 14, 53, 90
20, 121439, Note_on_c, 14, 53, 0
20, 121440, Note_on_c, 14, 52, 90
20, 121499, Note_on_c, 14, 52, 0
20, 121500, Note_on_c, 14, 50, 90
20, 121559, Note_on_c, 14, 50, 0
20, 121560, Note_on_c, 14, 49, 90
20, 121619, Note_on_c, 14, 49, 0
20, 121620, Note_on_c, 14, 50, 90
20, 121739, Note_on_c, 14, 50, 0
20, 121740, Note_on_c, 14, 50, 90
20, 121859, Note_on_c, 14, 50, 0
20, 121860, Note_on_c, 14, 45, 90
20, 122147, Note_on_c, 14, 45, 0
20, 122220, Note_on_c, 14, 54, 90
20, 122339, Note_on_c, 14, 54, 0
20, 122340, Note_on_c, 14, 55, 90
20, 122519, Note_on_c, 14, 55, 0
20, 122520, Note_on_c, 14, 54, 90
20, 122579, Note_on_c, 14, 54, 0
20, 122580, Note_on_c, 14, 52, 90
20, 122759, Note_on_c, 14, 52, 0
20, 122760, Note_on_c, 14, 50, 90
20, 122819, Note_on_c, 14, 50, 0
20, 122820, Note_on_c, 14, 48, 90
20, 122879, Note_on_c, 14, 48, 0
20, 122880, Note_on_c, 14, 45, 90
20, 122939, Note_on_c, 14, 45, 0
20, 122940, Note_on_c, 14, 50, 90
20, 123059, Note_on_c, 14, 50, 0
20, 123060, Note_on_c, 14, 43, 90
20, 123155, Note_on_c, 14, 43, 0
20, 123180, Note_on_c, 14, 48, 90
20, 123239, Note_on_c, 14, 48, 0
20, 123240, Note_on_c, 14, 47, 90
20, 123299, Note_on_c, 14, 47, 0
20, 123300, Note_on_c, 14, 45, 90
20, 123359, Note_on_c, 14, 45, 0
20, 123360, Note_on_c, 14, 47, 90
20, 123419, Note_on_c, 14, 47, 0
20, 123420, Note_on_c, 14, 48, 90
20, 123539, Note_on_c, 14, 48, 0
20, 123540, Note_on_c, 14, 48, 90
20, 123599, Note_on_c, 14, 48, 0
20, 123600, Note_on_c, 14, 47, 90
20, 123659, Note_on_c, 14, 47, 0
20, 123660, Note_on_c, 14, 47, 90
20, 123719, Note_on_c, 14, 47, 0
20, 123720, Note_on_c, 14, 45, 90
20, 123779, Note_on_c, 14, 45, 0
20, 123780, Note_on_c, 14, 44, 90
20, 123899, Note_on_c, 14, 44, 0
20, 123900, Note_on_c, 14, 45, 90
20, 124019, Note_on_c, 14, 45, 0
20, 124020, Note_on_c, 14, 52, 90
20, 124139, Note_on_c, 14, 52, 0
20, 124260, Note_on_c, 14, 51, 90
20, 124739, Note_on_c, 14, 51, 0
20, 124740, Note_on_c, 14, 52, 90
20, 125219, Note_on_c, 14, 52, 0
20, 125220, Note_on_c, 14, 49, 90
20, 125699, Note_on_c, 14, 49, 0
20, 125700, Note_on_c, 14, 50, 90
20, 125939, Note_on_c, 14, 50, 0
20, 125940, Note_on_c, 14, 55, 90
20, 126179, Note_on_c, 14, 55, 0
20, 126180, Note_on_c, 14, 48, 90
20, 126299, Note_on_c, 14, 48, 0
20, 126300, Note_on_c, 14, 45, 90
20, 126419, Note_on_c, 14, 45, 0
20, 126420, Note_on_c, 14, 50, 90
20, 126539, Note_on_c, 14, 50, 0
20, 126540, Note_on_c, 14, 38, 90
20, 126659, Note_on_c, 14, 38, 0
20, 126660, Note_on_c, 14, 43, 90
20, 126779, Note_on_c, 14, 43, 0
20, 127380, Note_on_c, 14, 55, 90
20, 127439, Note_on_c, 14, 55, 0
20, 127440, Note_on_c, 14, 59, 90
20, 127499, Note_on_c, 14, 59, 0
20, 127500, Note_on_c, 14, 59, 90
20, 127559, Note_on_c, 14, 59, 0
20, 127560, Note_on_c, 14, 62, 90
20, 127619, Note_on_c, 14, 62, 0
20, 127620, Note_on_c, 14, 60, 90
20, 127649, Note_on_c, 14, 60, 0
20, 127650, Note_on_c, 14, 59, 90
20, 127679, Note_on_c, 14, 59, 0
20, 127680, Note_on_c, 14, 57, 90
20, 127709, Note_on_c, 14, 57, 0
20, 127710, Note_on_c, 14, 55, 90
20, 127739, Note_on_c, 14, 55, 0
20, 127740, Note_on_c, 14, 50, 90
20, 127799, Note_on_c, 14, 50, 0
20, 127800, Note_on_c, 14, 54, 90
20, 127859, Note_on_c, 14, 54, 0
20, 127860, Note_on_c, 14, 54, 90
20, 127919, Note_on_c, 14, 54, 0
20, 127920, Note_on_c, 14, 57, 90
20, 127979, Note_on_c, 14, 57, 0
20, 127980, Note_on_c, 14, 55, 90
20, 128009, Note_on_c, 14, 55, 0
20, 128010, Note_on_c, 14, 54, 90
20, 128039, Note_on_c, 14, 54, 0
20, 128040, Note_on_c, 14, 52, 90
20, 128069, Note_on_c, 14, 52, 0
20, 128070, Note_on_c, 14, 50, 90
20, 128099, Note_on_c, 14, 50, 0
20, 128100, Note_on_c, 14, 55, 90
20, 128129, Note_on_c, 14, 55, 0
20, 128220, Note_on_c, 14, 56, 90
20, 128249, Note_on_c, 14, 56, 0
20, 128340, Note_on_c, 14, 52, 90
20, 128369, Note_on_c, 14, 52, 0
20, 128460, Note_on_c, 14, 45, 90
20, 128519, Note_on_c, 14, 45, 0
20, 128520, Note_on_c, 14, 48, 90
20, 128579, Note_on_c, 14, 48, 0
20, 128580, Note_on_c, 14, 48, 90
20, 128639, Note_on_c, 14, 48, 0
20, 128640, Note_on_c, 14, 52, 90
20, 128699, Note_on_c, 14, 52, 0
20, 128700, Note_on_c, 14, 50, 90
20, 128729, Note_on_c, 14, 50, 0
20, 128730, Note_on_c, 14, 48, 90
20, 128759, Note_on_c, 14, 48, 0
20, 128760, Note_on_c, 14, 47, 90
20, 128789, Note_on_c, 14, 47, 0
20, 128790, Note_on_c, 14, 45, 90
20, 128819, Note_on_c, 14, 45, 0
20, 128820, Note_on_c, 14, 50, 90
20, 128849, Note_on_c, 14, 50, 0
20, 128940, Note_on_c, 14, 54, 90
20, 128969, Note_on_c, 14, 54, 0
20, 129060, Note_on_c, 14, 50, 90
20, 129089, Note_on_c, 14, 50, 0
20, 129180, Note_on_c, 14, 43, 90
20, 129239, Note_on_c, 14, 43, 0
20, 129240, Note_on_c, 14, 47, 90
20, 129299, Note_on_c, 14, 47, 0
20, 129300, Note_on_c, 14, 47, 90
20, 129359, Note_on_c, 14, 47, 0
20, 129360, Note_on_c, 14, 50, 90
20, 129419, Note_on_c, 14, 50, 0
20, 129420, Note_on_c, 14, 48, 90
20, 129449, Note_on_c, 14, 48, 0
20, 129450, Note_on_c, 14, 47, 90
20, 129479, Note_on_c, 14, 47, 0
20, 129480, Note_on_c, 14, 45, 90
20, 129509, Note_on_c, 14, 45, 0
20, 129510, Note_on_c, 14, 43, 90
20, 129539, Note_on_c, 14, 43, 0
20, 129540, Note_on_c, 14, 48, 90
20, 129569, Note_on_c, 14, 48, 0
20, 129660, Note_on_c, 14, 49, 90
20, 129689, Note_on_c, 14, 49, 0
20, 129900, Note_on_c, 14, 50, 90
20, 129929, Note_on_c, 14, 50, 0
20, 130020, Note_on_c, 14, 52, 90
20, 130049, Note_on_c, 14, 52, 0
20, 130260, Note_on_c, 14, 47, 90
20, 130289, Note_on_c, 14, 47, 0
20, 130380, Note_on_c, 14, 48, 90
20, 130409, Note_on_c, 14, 48, 0
20, 130500, Note_on_c, 14, 50, 90
20, 130529, Note_on_c, 14, 50, 0
20, 130620, Note_on_c, 14, 43, 90
20, 130679, Note_on_c, 14, 43, 0
20, 130680, Note_on_c, 14, 55, 90
20, 130739, Note_on_c, 14, 55, 0
20, 130740, Note_on_c, 14, 55, 90
20, 130799, Note_on_c, 14, 55, 0
20, 130800, Note_on_c, 14, 53, 90
20, 130859, Note_on_c, 14, 53, 0
20, 130860, Note_on_c, 14, 53, 90
20, 130919, Note_on_c, 14, 53, 0
20, 130920, Note_on_c, 14, 52, 90
20, 130979, Note_on_c, 14, 52, 0
20, 130980, Note_on_c, 14, 40, 90
20, 131039, Note_on_c, 14, 40, 0
20, 131040, Note_on_c, 14, 52, 90
20, 131099, Note_on_c, 14, 52, 0
20, 131100, Note_on_c, 14, 52, 90
20, 131159, Note_on_c, 14, 52, 0
20, 131160, Note_on_c, 14, 50, 90
20, 131219, Note_on_c, 14, 50, 0
20, 131220, Note_on_c, 14, 50, 90
20, 131279, Note_on_c, 14, 50, 0
20, 131280, Note_on_c, 14, 48, 90
20, 131339, Note_on_c, 14, 48, 0
20, 131340, Note_on_c, 14, 36, 90
20, 131399, Note_on_c, 14, 36, 0
20, 131400, Note_on_c, 14, 48, 90
20, 131459, Note_on_c, 14, 48, 0
20, 131460, Note_on_c, 14, 48, 90
20, 131519, Note_on_c, 14, 48, 0
20, 131520, Note_on_c, 14, 47, 90
20, 131579, Note_on_c, 14, 47, 0
20, 131580, Note_on_c, 14, 47, 90
20, 131639, Note_on_c, 14, 47, 0
20, 131640, Note_on_c, 14, 45, 90
20, 131699, Note_on_c, 14, 45, 0
20, 131700, Note_on_c, 14, 45, 90
20, 131759, Note_on_c, 14, 45, 0
20, 131760, Note_on_c, 14, 57, 90
20, 131819, Note_on_c, 14, 57, 0
20, 131820, Note_on_c, 14, 57, 90
20, 131879, Note_on_c, 14, 57, 0
20, 131880, Note_on_c, 14, 56, 90
20, 131939, Note_on_c, 14, 56, 0
20, 131940, Note_on_c, 14, 56, 90
20, 131999, Note_on_c, 14, 56, 0
20, 132000, Note_on_c, 14, 57, 90
20, 132059, Note_on_c, 14, 57, 0
20, 132060, Note_on_c, 14, 57, 90
20, 132089, Note_on_c, 14, 57, 0
20, 132090, Note_on_c, 14, 59, 90
20, 132119, Note_on_c, 14, 59, 0
20, 132120, Note_on_c, 14, 60, 90
20, 132149, Note_on_c, 14, 60, 0
20, 132150, Note_on_c, 14, 59, 90
20, 132179, Note_on_c, 14, 59, 0
20, 132180, Note_on_c, 14, 57, 90
20, 132239, Note_on_c, 14, 57, 0
20, 132240, Note_on_c, 14, 55, 90
20, 132299, Note_on_c, 14, 55, 0
20, 132300, Note_on_c, 14, 54, 90
20, 132359, Note_on_c, 14, 54, 0
20, 132360, Note_on_c, 14, 52, 90
20, 132419, Note_on_c, 14, 52, 0
20, 132420, Note_on_c, 14, 51, 100
20, 133380, Note_on_c, 14, 51, 0
20, 133380, Note_on_c, 14, 52, 90
20, 133499, Note_on_c, 14, 52, 0
20, 133740, Note_on_c, 14, 47, 90
20, 133859, Note_on_c, 14, 47, 0
20, 134100, Note_on_c, 14, 52, 90
20, 134159, Note_on_c, 14, 52, 0
20, 134160, Note_on_c, 14, 55, 90
20, 134219, Note_on_c, 14, 55, 0
20, 134220, Note_on_c, 14, 55, 90
20, 134279, Note_on_c, 14, 55, 0
20, 134280, Note_on_c, 14, 59, 90
20, 134339, Note_on_c, 14, 59, 0
20, 134340, Note_on_c, 14, 57, 90
20, 134369, Note_on_c, 14, 57, 0
20, 134370, Note_on_c, 14, 55, 90
20, 134399, Note_on_c, 14, 55, 0
20, 134400, Note_on_c, 14, 54, 90
20, 134429, Note_on_c, 14, 54, 0
20, 134430, Note_on_c, 14, 52, 90
20, 134459, Note_on_c, 14, 52, 0
20, 134460, Note_on_c, 14, 54, 90
20, 134519, Note_on_c, 14, 54, 0
20, 134520, Note_on_c, 14, 57, 90
20, 134579, Note_on_c, 14, 57, 0
20, 134580, Note_on_c, 14, 57, 90
20, 134639, Note_on_c, 14, 57, 0
20, 134640, Note_on_c, 14, 60, 90
20, 134699, Note_on_c, 14, 60, 0
20, 134700, Note_on_c, 14, 59, 90
20, 134729, Note_on_c, 14, 59, 0
20, 134730, Note_on_c, 14, 57, 90
20, 134759, Note_on_c, 14, 57, 0
20, 134760, Note_on_c, 14, 55, 90
20, 134789, Note_on_c, 14, 55, 0
20, 134790, Note_on_c, 14, 54, 90
20, 134819, Note_on_c, 14, 54, 0
20, 134820, Note_on_c, 14, 55, 90
20, 134879, Note_on_c, 14, 55, 0
20, 134880, Note_on_c, 14, 59, 90
20, 134939, Note_on_c, 14, 59, 0
20, 134940, Note_on_c, 14, 59, 90
20, 134999, Note_on_c, 14, 59, 0
20, 135000, Note_on_c, 14, 62, 90
20, 135059, Note_on_c, 14, 62, 0
20, 135060, Note_on_c, 14, 60, 90
20, 135089, Note_on_c, 14, 60, 0
20, 135090, Note_on_c, 14, 59, 90
20, 135119, Note_on_c, 14, 59, 0
20, 135120, Note_on_c, 14, 57, 90
20, 135149, Note_on_c, 14, 57, 0
20, 135150, Note_on_c, 14, 55, 90
20, 135179, Note_on_c, 14, 55, 0
20, 135180, Note_on_c, 14, 60, 90
20, 135239, Note_on_c, 14, 60, 0
20, 135240, Note_on_c, 14, 57, 90
20, 135299, Note_on_c, 14, 57, 0
20, 135300, Note_on_c, 14, 57, 90
20, 135359, Note_on_c, 14, 57, 0
20, 135360, Note_on_c, 14, 54, 90
20, 135419, Note_on_c, 14, 54, 0
20, 135420, Note_on_c, 14, 54, 90
20, 135479, Note_on_c, 14, 54, 0
20, 135480, Note_on_c, 14, 55, 90
20, 135539, Note_on_c, 14, 55, 0
20, 135540, Note_on_c, 14, 55, 90
20, 135599, Note_on_c, 14, 55, 0
20, 135600, Note_on_c, 14, 52, 90
20, 135659, Note_on_c, 14, 52, 0
20, 135660, Note_on_c, 14, 52, 90
20, 135719, Note_on_c, 14, 52, 0
20, 135720, Note_on_c, 14, 51, 90
20, 135779, Note_on_c, 14, 51, 0
20, 135780, Note_on_c, 14, 51, 90
20, 135839, Note_on_c, 14, 51, 0
20, 135840, Note_on_c, 14, 52, 90
20, 135899, Note_on_c, 14, 52, 0
20, 135900, Note_on_c, 14, 40, 90
20, 135929, Note_on_c, 14, 40, 0
20, 136020, Note_on_c, 14, 52, 90
20, 136049, Note_on_c, 14, 52, 0
20, 136260, Note_on_c, 14, 47, 90
20, 136289, Note_on_c, 14, 47, 0
20, 136380, Note_on_c, 14, 43, 90
20, 136409, Note_on_c, 14, 43, 0
20, 136620, Note_on_c, 14, 48, 90
20, 136679, Note_on_c, 14, 48, 0
20, 136680, Note_on_c, 14, 51, 90
20, 136739, Note_on_c, 14, 51, 0
20, 136740, Note_on_c, 14, 51, 90
20, 136799, Note_on_c, 14, 51, 0
20, 136800, Note_on_c, 14, 55, 90
20, 136859, Note_on_c, 14, 55, 0
20, 136860, Note_on_c, 14, 53, 90
20, 136889, Note_on_c, 14, 53, 0
20, 136890, Note_on_c, 14, 51, 90
20, 136919, Note_on_c, 14, 51, 0
20, 136920, Note_on_c, 14, 50, 90
20, 136949, Note_on_c, 14, 50, 0
20, 136950, Note_on_c, 14, 48, 90
20, 136979, Note_on_c, 14, 48, 0
20, 136980, Note_on_c, 14, 41, 90
20, 137459, Note_on_c, 14, 41, 0
20, 137460, Note_on_c, 14, 40, 90
20, 137939, Note_on_c, 14, 40, 0
20, 137940, Note_on_c, 14, 38, 90
20, 138059, Note_on_c, 14, 38, 0
20, 138300, Note_on_c, 14, 45, 90
20, 138419, Note_on_c, 14, 45, 0
20, 138660, Note_on_c, 14, 50, 90
20, 138719, Note_on_c, 14, 50, 0
20, 138720, Note_on_c, 14, 53, 90
20, 138779, Note_on_c, 14, 53, 0
20, 138780, Note_on_c, 14, 53, 90
20, 138839, Note_on_c, 14, 53, 0
20, 138840, Note_on_c, 14, 57, 90
20, 138899, Note_on_c, 14, 57, 0
20, 138900, Note_on_c, 14, 55, 90
20, 138929, Note_on_c, 14, 55, 0
20, 138930, Note_on_c, 14, 53, 90
20, 138959, Note_on_c, 14, 53, 0
20, 138960, Note_on_c, 14, 52, 90
20, 138989, Note_on_c, 14, 52, 0
20, 138990, Note_on_c, 14, 50, 90
20, 139019, Note_on_c, 14, 50, 0
20, 139020, Note_on_c, 14, 55, 90
20, 139049, Note_on_c, 14, 55, 0
20, 139140, Note_on_c, 14, 47, 90
20, 139169, Note_on_c, 14, 47, 0
20, 139260, Note_on_c, 14, 43, 90
20, 139289, Note_on_c, 14, 43, 0
20, 139380, Note_on_c, 14, 48, 90
20, 139439, Note_on_c, 14, 48, 0
20, 139440, Note_on_c, 14, 60, 90
20, 139499, Note_on_c, 14, 60, 0
20, 139500, Note_on_c, 14, 60, 90
20, 139559, Note_on_c, 14, 60, 0
20, 139560, Note_on_c, 14, 59, 90
20, 139619, Note_on_c, 14, 59, 0
20, 139620, Note_on_c, 14, 59, 90
20, 139679, Note_on_c, 14, 59, 0
20, 139680, Note_on_c, 14, 57, 90
20, 139739, Note_on_c, 14, 57, 0
20, 139740, Note_on_c, 14, 57, 90
20, 139799, Note_on_c, 14, 57, 0
20, 139800, Note_on_c, 14, 50, 90
20, 139859, Note_on_c, 14, 50, 0
20, 139860, Note_on_c, 14, 50, 90
20, 139919, Note_on_c, 14, 50, 0
20, 139920, Note_on_c, 14, 55, 90
20, 139979, Note_on_c, 14, 55, 0
20, 139980, Note_on_c, 14, 55, 90
20, 140039, Note_on_c, 14, 55, 0
20, 140040, Note_on_c, 14, 54, 90
20, 140099, Note_on_c, 14, 54, 0
20, 140100, Note_on_c, 14, 54, 90
20, 140159, Note_on_c, 14, 54, 0
20, 140160, Note_on_c, 14, 49, 90
20, 140219, Note_on_c, 14, 49, 0
20, 140220, Note_on_c, 14, 49, 90
20, 140279, Note_on_c, 14, 49, 0
20, 140280, Note_on_c, 14, 50, 90
20, 140339, Note_on_c, 14, 50, 0
20, 140340, Note_on_c, 14, 50, 90
20, 140399, Note_on_c, 14, 50, 0
20, 140400, Note_on_c, 14, 47, 90
20, 140459, Note_on_c, 14, 47, 0
20, 140460, Note_on_c, 14, 47, 90
20, 140519, Note_on_c, 14, 47, 0
20, 140520, Note_on_c, 14, 43, 90
20, 140579, Note_on_c, 14, 43, 0
20, 140580, Note_on_c, 14, 43, 90
20, 140639, Note_on_c, 14, 43, 0
20, 140640, Note_on_c, 14, 45, 90
20, 140699, Note_on_c, 14, 45, 0
20, 140700, Note_on_c, 14, 45, 90
20, 140759, Note_on_c, 14, 45, 0
20, 140760, Note_on_c, 14, 47, 90
20, 140819, Note_on_c, 14, 47, 0
20, 140820, Note_on_c, 14, 47, 90
20, 140879, Note_on_c, 14, 47, 0
20, 140880, Note_on_c, 14, 45, 90
20, 140939, Note_on_c, 14, 45, 0
20, 140940, Note_on_c, 14, 45, 90
20, 140999, Note_on_c, 14, 45, 0
20, 141000, Note_on_c, 14, 43, 90
20, 141059, Note_on_c, 14, 43, 0
20, 141060, Note_on_c, 14, 43, 90
20, 141119, Note_on_c, 14, 43, 0
20, 141120, Note_on_c, 14, 42, 90
20, 141179, Note_on_c, 14, 42, 0
20, 141180, Note_on_c, 14, 42, 90
20, 141239, Note_on_c, 14, 42, 0
20, 141240, Note_on_c, 14, 45, 90
20, 141299, Note_on_c, 14, 45, 0
20, 141300, Note_on_c, 14, 45, 90
20, 141359, Note_on_c, 14, 45, 0
20, 141360, Note_on_c, 14, 48, 90
20, 141419, Note_on_c, 14, 48, 0
20, 141420, Note_on_c, 14, 47, 90
20, 141449, Note_on_c, 14, 47, 0
20, 141450, Note_on_c, 14, 45, 90
20, 141479, Note_on_c, 14, 45, 0
20, 141480, Note_on_c, 14, 43, 90
20, 141509, Note_on_c, 14, 43, 0
20, 141510, Note_on_c, 14, 42, 90
20, 141539, Note_on_c, 14, 42, 0
20, 141540, Note_on_c, 14, 43, 90
20, 141599, Note_on_c, 14, 43, 0
20, 141600, Note_on_c, 14, 47, 90
20, 141659, Note_on_c, 14, 47, 0
20, 141660, Note_on_c, 14, 47, 90
20, 141719, Note_on_c, 14, 47, 0
20, 141720, Note_on_c, 14, 50, 90
20, 141779, Note_on_c, 14, 50, 0
20, 141780, Note_on_c, 14, 48, 90
20, 141809, Note_on_c, 14, 48, 0
20, 141810, Note_on_c, 14, 47, 90
20, 141839, Note_on_c, 14, 47, 0
20, 141840, Note_on_c, 14, 45, 90
20, 141869, Note_on_c, 14, 45, 0
20, 141870, Note_on_c, 14, 43, 90
20, 141899, Note_on_c, 14, 43, 0
20, 141900, Note_on_c, 14, 48, 90
20, 142019, Note_on_c, 14, 48, 0
20, 142380, Note_on_c, 14, 47, 90
20, 142499, Note_on_c, 14, 47, 0
20, 142620, Note_on_c, 14, 40, 90
20, 142739, Note_on_c, 14, 40, 0
20, 142860, Note_on_c, 14, 45, 90
20, 142979, Note_on_c, 14, 45, 0
20, 143220, Note_on_c, 14, 43, 90
20, 143339, Note_on_c, 14, 43, 0
20, 143580, Note_on_c, 14, 42, 90
20, 143609, Note_on_c, 14, 42, 0
20, 143700, Note_on_c, 14, 38, 90
20, 143729, Note_on_c, 14, 38, 0
20, 143820, Note_on_c, 14, 50, 90
20, 143849, Note_on_c, 14, 50, 0
20, 143940, Note_on_c, 14, 43, 90
20, 143999, Note_on_c, 14, 43, 0
20, 144000, Note_on_c, 14, 47, 90
20, 144059, Note_on_c, 14, 47, 0
20, 144060, Note_on_c, 14, 47, 90
20, 144119, Note_on_c, 14, 47, 0
20, 144120, Note_on_c, 14, 50, 90
20, 144179, Note_on_c, 14, 50, 0
20, 144180, Note_on_c, 14, 48, 90
20, 144209, Note_on_c, 14, 48, 0
20, 144210, Note_on_c, 14, 47, 90
20, 144239, Note_on_c, 14, 47, 0
20, 144240, Note_on_c, 14, 45, 90
20, 144269, Note_on_c, 14, 45, 0
20, 144270, Note_on_c, 14, 43, 90
20, 144299, Note_on_c, 14, 43, 0
20, 144300, Note_on_c, 14, 49, 90
20, 144359, Note_on_c, 14, 49, 0
20, 144360, Note_on_c, 14, 52, 90
20, 144419, Note_on_c, 14, 52, 0
20, 144420, Note_on_c, 14, 52, 90
20, 144479, Note_on_c, 14, 52, 0
20, 144480, Note_on_c, 14, 55, 90
20, 144539, Note_on_c, 14, 55, 0
20, 144540, Note_on_c, 14, 54, 90
20, 144569, Note_on_c, 14, 54, 0
20, 144570, Note_on_c, 14, 52, 90
20, 144599, Note_on_c, 14, 52, 0
20, 144600, Note_on_c, 14, 50, 90
20, 144629, Note_on_c, 14, 50, 0
20, 144630, Note_on_c, 14, 49, 90
20, 144659, Note_on_c, 14, 49, 0
20, 144660, Note_on_c, 14, 50, 90
20, 144689, Note_on_c, 14, 50, 0
20, 144780, Note_on_c, 14, 38, 90
20, 144809, Note_on_c, 14, 38, 0
20, 145380, Note_on_c, 14, 43, 90
20, 145439, Note_on_c, 14, 43, 0
20, 145440, Note_on_c, 14, 47, 90
20, 145499, Note_on_c, 14, 47, 0
20, 145500, Note_on_c, 14, 47, 90
20, 145559, Note_on_c, 14, 47, 0
20, 145560, Note_on_c, 14, 50, 90
20, 145619, Note_on_c, 14, 50, 0
20, 145620, Note_on_c, 14, 48, 90
20, 145649, Note_on_c, 14, 48, 0
20, 145650, Note_on_c, 14, 47, 90
20, 145679, Note_on_c, 14, 47, 0
20, 145680, Note_on_c, 14, 45, 90
20, 145709, Note_on_c, 14, 45, 0
20, 145710, Note_on_c, 14, 43, 90
20, 145739, Note_on_c, 14, 43, 0
20, 145740, Note_on_c, 14, 50, 90
20, 145799, Note_on_c, 14, 50, 0
20, 145800, Note_on_c, 14, 54, 90
20, 145859, Note_on_c, 14, 54, 0
20, 145860, Note_on_c, 14, 54, 90
20, 145919, Note_on_c, 14, 54, 0
20, 145920, Note_on_c, 14, 57, 90
20, 145979, Note_on_c, 14, 57, 0
20, 145980, Note_on_c, 14, 55, 90
20, 146009, Note_on_c, 14, 55, 0
20, 146010, Note_on_c, 14, 54, 90
20, 146039, Note_on_c, 14, 54, 0
20, 146040, Note_on_c, 14, 52, 90
20, 146069, Note_on_c, 14, 52, 0
20, 146070, Note_on_c, 14, 50, 90
20, 146099, Note_on_c, 14, 50, 0
20, 146100, Note_on_c, 14, 59, 90
20, 146219, Note_on_c, 14, 59, 0
20, 146340, Note_on_c, 14, 52, 90
20, 146459, Note_on_c, 14, 52, 0
20, 146460, Note_on_c, 14, 49, 90
20, 146579, Note_on_c, 14, 49, 0
20, 146940, Note_on_c, 14, 50, 90
20, 147059, Note_on_c, 14, 50, 0
20, 147060, Note_on_c, 14, 43, 90
20, 147119, Note_on_c, 14, 43, 0
20, 147120, Note_on_c, 14, 47, 90
20, 147179, Note_on_c, 14, 47, 0
20, 147180, Note_on_c, 14, 47, 90
20, 147239, Note_on_c, 14, 47, 0
20, 147240, Note_on_c, 14, 50, 90
20, 147299, Note_on_c, 14, 50, 0
20, 147300, Note_on_c, 14, 48, 90
20, 147329, Note_on_c, 14, 48, 0
20, 147330, Note_on_c, 14, 47, 90
20, 147359, Note_on_c, 14, 47, 0
20, 147360, Note_on_c, 14, 45, 90
20, 147389, Note_on_c, 14, 45, 0
20, 147390, Note_on_c, 14, 43, 90
20, 147419, Note_on_c, 14, 43, 0
20, 147420, Note_on_c, 14, 48, 90
20, 147479, Note_on_c, 14, 48, 0
20, 147480, Note_on_c, 14, 52, 90
20, 147539, Note_on_c, 14, 52, 0
20, 147540, Note_on_c, 14, 52, 90
20, 147599, Note_on_c, 14, 52, 0
20, 147600, Note_on_c, 14, 55, 90
20, 147659, Note_on_c, 14, 55, 0
20, 147660, Note_on_c, 14, 53, 90
20, 147689, Note_on_c, 14, 53, 0
20, 147690, Note_on_c, 14, 52, 90
20, 147719, Note_on_c, 14, 52, 0
20, 147720, Note_on_c, 14, 50, 90
20, 147749, Note_on_c, 14, 50, 0
20, 147750, Note_on_c, 14, 48, 90
20, 147779, Note_on_c, 14, 48, 0
20, 147780, Note_on_c, 14, 55, 90
20, 147839, Note_on_c, 14, 55, 0
20, 147840, Note_on_c, 14, 59, 90
20, 147899, Note_on_c, 14, 59, 0
20, 147900, Note_on_c, 14, 59, 90
20, 147959, Note_on_c, 14, 59, 0
20, 147960, Note_on_c, 14, 62, 90
20, 148019, Note_on_c, 14, 62, 0
20, 148020, Note_on_c, 14, 60, 90
20, 148049, Note_on_c, 14, 60, 0
20, 148050, Note_on_c, 14, 59, 90
20, 148079, Note_on_c, 14, 59, 0
20, 148080, Note_on_c, 14, 57, 90
20, 148109, Note_on_c, 14, 57, 0
20, 148110, Note_on_c, 14, 55, 90
20, 148139, Note_on_c, 14, 55, 0
20, 148140, Note_on_c, 14, 50, 90
20, 148199, Note_on_c, 14, 50, 0
20, 148200, Note_on_c, 14, 54, 90
20, 148259, Note_on_c, 14, 54, 0
20, 148260, Note_on_c, 14, 54, 90
20, 148319, Note_on_c, 14, 54, 0
20, 148320, Note_on_c, 14, 57, 90
20, 148379, Note_on_c, 14, 57, 0
20, 148380, Note_on_c, 14, 55, 90
20, 148409, Note_on_c, 14, 55, 0
20, 148410, Note_on_c, 14, 54, 90
20, 148439, Note_on_c, 14, 54, 0
20, 148440, Note_on_c, 14, 52, 90
20, 148469, Note_on_c, 14, 52, 0
20, 148470, Note_on_c, 14, 50, 90
20, 148499, Note_on_c, 14, 50, 0
20, 148500, Note_on_c, 14, 55, 90
20, 148529, Note_on_c, 14, 55, 0
20, 148620, Note_on_c, 14, 56, 90
20, 148649, Note_on_c, 14, 56, 0
20, 148740, Note_on_c, 14, 52, 90
20, 148769, Note_on_c, 14, 52, 0
20, 148860, Note_on_c, 14, 45, 90
20, 148919, Note_on_c, 14, 45, 0
20, 148920, Note_on_c, 14, 48, 90
20, 148979, Note_on_c, 14, 48, 0
20, 148980, Note_on_c, 14, 48, 90
20, 149039, Note_on_c, 14, 48, 0
20, 149040, Note_on_c, 14, 52, 90
20, 149099, Note_on_c, 14, 52, 0
20, 149100, Note_on_c, 14, 50, 90
20, 149129, Note_on_c, 14, 50, 0
20, 149130, Note_on_c, 14, 48, 90
20, 149159, Note_on_c, 14, 48, 0
20, 149160, Note_on_c, 14, 47, 90
20, 149189, Note_on_c, 14, 47, 0
20, 149190, Note_on_c, 14, 45, 90
20, 149219, Note_on_c, 14, 45, 0
20, 149220, Note_on_c, 14, 50, 90
20, 149249, Note_on_c, 14, 50, 0
20, 149340, Note_on_c, 14, 54, 90
20, 149369, Note_on_c, 14, 54, 0
20, 149460, Note_on_c, 14, 50, 90
20, 149489, Note_on_c, 14, 50, 0
20, 149580, Note_on_c, 14, 43, 90
20, 149639, Note_on_c, 14, 43, 0
20, 149640, Note_on_c, 14, 47, 90
20, 149699, Note_on_c, 14, 47, 0
20, 149700, Note_on_c, 14, 47, 90
20, 149759, Note_on_c, 14, 47, 0
20, 149760, Note_on_c, 14, 50, 90
20, 149819, Note_on_c, 14, 50, 0
20, 149820, Note_on_c, 14, 48, 90
20, 149849, Note_on_c, 14, 48, 0
20, 149850, Note_on_c, 14, 47, 90
20, 149879, Note_on_c, 14, 47, 0
20, 149880, Note_on_c, 14, 45, 90
20, 149909, Note_on_c, 14, 45, 0
20, 149910, Note_on_c, 14, 43, 90
20, 149939, Note_on_c, 14, 43, 0
20, 149940, Note_on_c, 14, 48, 90
20, 149969, Note_on_c, 14, 48, 0
20, 150060, Note_on_c, 14, 49, 90
20, 150089, Note_on_c, 14, 49, 0
20, 150300, Note_on_c, 14, 50, 90
20, 150329, Note_on_c, 14, 50, 0
20, 150420, Note_on_c, 14, 52, 90
20, 150449, Note_on_c, 14, 52, 0
20, 150660, Note_on_c, 14, 47, 90
20, 150689, Note_on_c, 14, 47, 0
20, 150780, Note_on_c, 14, 48, 90
20, 150809, Note_on_c, 14, 48, 0
20, 150900, Note_on_c, 14, 50, 90
20, 150929, Note_on_c, 14, 50, 0
20, 151020, Note_on_c, 14, 43, 90
20, 151379, Note_on_c, 14, 43, 0
20, 151620, Note_on_c, 14, 50, 90
20, 151679, Note_on_c, 14, 50, 0
20, 151680, Note_on_c, 14, 38, 90
20, 151739, Note_on_c, 14, 38, 0
20, 151740, Note_on_c, 14, 38, 90
20, 151799, Note_on_c, 14, 38, 0
20, 151800, Note_on_c, 14, 50, 90
20, 151859, Note_on_c, 14, 50, 0
20, 151860, Note_on_c, 14, 50, 90
20, 151919, Note_on_c, 14, 50, 0
20, 151920, Note_on_c, 14, 38, 90
20, 151979, Note_on_c, 14, 38, 0
20, 151980, Note_on_c, 14, 38, 90
20, 152039, Note_on_c, 14, 38, 0
20, 152040, Note_on_c, 14, 50, 90
20, 152069, Note_on_c, 14, 50, 0
20, 152070, Note_on_c, 14, 52, 90
20, 152099, Note_on_c, 14, 52, 0
20, 152100, Note_on_c, 14, 54, 90
20, 152159, Note_on_c, 14, 54, 0
20, 152160, Note_on_c, 14, 50, 90
20, 152219, Note_on_c, 14, 50, 0
20, 152220, Note_on_c, 14, 57, 90
20, 152279, Note_on_c, 14, 57, 0
20, 152280, Note_on_c, 14, 45, 90
20, 152339, Note_on_c, 14, 45, 0
20, 152340, Note_on_c, 14, 50, 90
20, 152399, Note_on_c, 14, 50, 0
20, 152400, Note_on_c, 14, 42, 90
20, 152459, Note_on_c, 14, 42, 0
20, 152460, Note_on_c, 14, 43, 90
20, 152519, Note_on_c, 14, 43, 0
20, 152520, Note_on_c, 14, 45, 90
20, 152579, Note_on_c, 14, 45, 0
20, 152580, Note_on_c, 14, 50, 90
20, 152639, Note_on_c, 14, 50, 0
20, 152640, Note_on_c, 14, 38, 90
20, 152699, Note_on_c, 14, 38, 0
20, 152700, Note_on_c, 14, 38, 90
20, 152759, Note_on_c, 14, 38, 0
20, 152760, Note_on_c, 14, 50, 90
20, 152819, Note_on_c, 14, 50, 0
20, 152820, Note_on_c, 14, 50, 90
20, 152879, Note_on_c, 14, 50, 0
20, 152880, Note_on_c, 14, 38, 90
20, 152939, Note_on_c, 14, 38, 0
20, 152940, Note_on_c, 14, 38, 90
20, 152999, Note_on_c, 14, 38, 0
20, 153000, Note_on_c, 14, 50, 90
20, 153029, Note_on_c, 14, 50, 0
20, 153030, Note_on_c, 14, 49, 90
20, 153059, Note_on_c, 14, 49, 0
20, 153060, Note_on_c, 14, 47, 90
20, 153119, Note_on_c, 14, 47, 0
20, 153120, Note_on_c, 14, 42, 90
20, 153179, Note_on_c, 14, 42, 0
20, 153180, Note_on_c, 14, 43, 90
20, 153239, Note_on_c, 14, 43, 0
20, 153240, Note_on_c, 14, 45, 90
20, 153299, Note_on_c, 14, 45, 0
20, 153300, Note_on_c, 14, 50, 90
20, 153359, Note_on_c, 14, 50, 0
20, 153360, Note_on_c, 14, 38, 90
20, 153419, Note_on_c, 14, 38, 0
20, 153420, Note_on_c, 14, 38, 90
20, 153479, Note_on_c, 14, 38, 0
20, 153480, Note_on_c, 14, 54, 90
20, 153539, Note_on_c, 14, 54, 0
20, 153540, Note_on_c, 14, 55, 90
20, 153599, Note_on_c, 14, 55, 0
20, 153600, Note_on_c, 14, 59, 90
20, 153659, Note_on_c, 14, 59, 0
20, 153660, Note_on_c, 14, 62, 90
20, 153719, Note_on_c, 14, 62, 0
20, 153720, Note_on_c, 14, 55, 90
20, 153779, Note_on_c, 14, 55, 0
20, 153780, Note_on_c, 14, 54, 90
20, 153839, Note_on_c, 14, 54, 0
20, 153840, Note_on_c, 14, 57, 90
20, 153899, Note_on_c, 14, 57, 0
20, 153900, Note_on_c, 14, 62, 90
20, 153959, Note_on_c, 14, 62, 0
20, 153960, Note_on_c, 14, 54, 90
20, 154019, Note_on_c, 14, 54, 0
20, 154020, Note_on_c, 14, 52, 90
20, 154079, Note_on_c, 14, 52, 0
20, 154080, Note_on_c, 14, 61, 90
20, 154139, Note_on_c, 14, 61, 0
20, 154140, Note_on_c, 14, 50, 90
20, 154199, Note_on_c, 14, 50, 0
20, 154200, Note_on_c, 14, 62, 90
20, 154259, Note_on_c, 14, 62, 0
20, 154260, Note_on_c, 14, 57, 90
20, 154319, Note_on_c, 14, 57, 0
20, 154320, Note_on_c, 14, 55, 90
20, 154379, Note_on_c, 14, 55, 0
20, 154380, Note_on_c, 14, 54, 90
20, 154439, Note_on_c, 14, 54, 0
20, 154440, Note_on_c, 14, 52, 90
20, 154499, Note_on_c, 14, 52, 0
20, 154500, Note_on_c, 14, 50, 90
20, 154559, Note_on_c, 14, 50, 0
20, 154560, Note_on_c, 14, 42, 90
20, 154619, Note_on_c, 14, 42, 0
20, 154620, Note_on_c, 14, 40, 90
20, 154679, Note_on_c, 14, 40, 0
20, 154680, Note_on_c, 14, 38, 90
20, 154739, Note_on_c, 14, 38, 0
20, 154740, Note_on_c, 14, 45, 90
20, 154799, Note_on_c, 14, 45, 0
20, 154800, Note_on_c, 14, 57, 90
20, 154829, Note_on_c, 14, 57, 0
20, 154830, Note_on_c, 14, 59, 90
20, 154859, Note_on_c, 14, 59, 0
20, 154860, Note_on_c, 14, 57, 90
20, 154889, Note_on_c, 14, 57, 0
20, 154890, Note_on_c, 14, 55, 90
20, 154919, Note_on_c, 14, 55, 0
20, 154920, Note_on_c, 14, 54, 90
20, 154949, Note_on_c, 14, 54, 0
20, 154950, Note_on_c, 14, 52, 90
20, 154979, Note_on_c, 14, 52, 0
20, 154980, Note_on_c, 14, 50, 90
20, 155039, Note_on_c, 14, 50, 0
20, 155040, Note_on_c, 14, 38, 90
20, 155159, Note_on_c, 14, 38, 0
20, 155160, Note_on_c, 14, 50, 90
20, 155279, Note_on_c, 14, 50, 0
20, 155280, Note_on_c, 14, 38, 90
20, 155399, Note_on_c, 14, 38, 0
20, 155400, Note_on_c, 14, 49, 90
20, 155459, Note_on_c, 14, 49, 0
20, 155460, Note_on_c, 14, 47, 90
20, 155519, Note_on_c, 14, 47, 0
20, 155520, Note_on_c, 14, 54, 90
20, 155549, Note_on_c, 14, 54, 0
20, 155550, Note_on_c, 14, 55, 90
20, 155579, Note_on_c, 14, 55, 0
20, 155580, Note_on_c, 14, 57, 90
20, 155639, Note_on_c, 14, 57, 0
20, 155640, Note_on_c, 14, 45, 90
20, 155699, Note_on_c, 14, 45, 0
20, 155700, Note_on_c, 14, 50, 90
20, 155759, Note_on_c, 14, 50, 0
20, 155760, Note_on_c, 14, 45, 90
20, 155819, Note_on_c, 14, 45, 0
20, 155820, Note_on_c, 14, 42, 90
20, 155879, Note_on_c, 14, 42, 0
20, 155880, Note_on_c, 14, 45, 90
20, 155939, Note_on_c, 14, 45, 0
20, 155940, Note_on_c, 14, 50, 90
20, 155999, Note_on_c, 14, 50, 0
20, 156000, Note_on_c, 14, 38, 90
20, 156119, Note_on_c, 14, 38, 0
20, 156120, Note_on_c, 14, 50, 90
20, 156239, Note_on_c, 14, 50, 0
20, 156240, Note_on_c, 14, 38, 90
20, 156359, Note_on_c, 14, 38, 0
20, 156360, Note_on_c, 14, 49, 90
20, 156419, Note_on_c, 14, 49, 0
20, 156420, Note_on_c, 14, 47, 90
20, 156479, Note_on_c, 14, 47, 0
20, 156480, Note_on_c, 14, 54, 90
20, 156509, Note_on_c, 14, 54, 0
20, 156510, Note_on_c, 14, 55, 90
20, 156539, Note_on_c, 14, 55, 0
20, 156540, Note_on_c, 14, 57, 90
20, 156599, Note_on_c, 14, 57, 0
20, 156600, Note_on_c, 14, 45, 90
20, 156659, Note_on_c, 14, 45, 0
20, 156660, Note_on_c, 14, 50, 90
20, 156719, Note_on_c, 14, 50, 0
20, 156720, Note_on_c, 14, 45, 90
20, 156779, Note_on_c, 14, 45, 0
20, 156780, Note_on_c, 14, 42, 90
20, 156839, Note_on_c, 14, 42, 0
20, 156840, Note_on_c, 14, 38, 90
20, 156899, Note_on_c, 14, 38, 0
20, 156900, Note_on_c, 14, 43, 90
20, 156959, Note_on_c, 14, 43, 0
20, 156960, Note_on_c, 14, 47, 90
20, 157019, Note_on_c, 14, 47, 0
20, 157020, Note_on_c, 14, 50, 90
20, 157079, Note_on_c, 14, 50, 0
20, 157080, Note_on_c, 14, 43, 90
20, 157139, Note_on_c, 14, 43, 0
20, 157140, Note_on_c, 14, 42, 90
20, 157199, Note_on_c, 14, 42, 0
20, 157200, Note_on_c, 14, 45, 90
20, 157259, Note_on_c, 14, 45, 0
20, 157260, Note_on_c, 14, 50, 90
20, 157319, Note_on_c, 14, 50, 0
20, 157320, Note_on_c, 14, 42, 90
20, 157379, Note_on_c, 14, 42, 0
20, 157380, Note_on_c, 14, 40, 90
20, 157439, Note_on_c, 14, 40, 0
20, 157440, Note_on_c, 14, 49, 90
20, 157499, Note_on_c, 14, 49, 0
20, 157500, Note_on_c, 14, 38, 90
20, 157559, Note_on_c, 14, 38, 0
20, 157560, Note_on_c, 14, 50, 90
20, 157619, Note_on_c, 14, 50, 0
20, 157620, Note_on_c, 14, 45, 90
20, 157679, Note_on_c, 14, 45, 0
20, 157680, Note_on_c, 14, 43, 90
20, 157739, Note_on_c, 14, 43, 0
20, 157740, Note_on_c, 14, 42, 90
20, 157799, Note_on_c, 14, 42, 0
20, 157800, Note_on_c, 14, 40, 90
20, 157859, Note_on_c, 14, 40, 0
20, 157860, Note_on_c, 14, 38, 90
20, 157919, Note_on_c, 14, 38, 0
20, 157920, Note_on_c, 14, 50, 90
20, 157979, Note_on_c, 14, 50, 0
20, 157980, Note_on_c, 14, 49, 90
20, 158039, Note_on_c, 14, 49, 0
20, 158040, Note_on_c, 14, 50, 90
20, 158099, Note_on_c, 14, 50, 0
20, 158100, Note_on_c, 14, 45, 90
20, 158159, Note_on_c, 14, 45, 0
20, 158160, Note_on_c, 14, 47, 90
20, 158219, Note_on_c, 14, 47, 0
20, 158220, Note_on_c, 14, 49, 90
20, 158279, Note_on_c, 14, 49, 0
20, 158280, Note_on_c, 14, 50, 90
20, 158339, Note_on_c, 14, 50, 0
20, 158340, Note_on_c, 14, 49, 90
20, 158399, Note_on_c, 14, 49, 0
20, 158400, Note_on_c, 14, 45, 90
20, 158459, Note_on_c, 14, 45, 0
20, 158460, Note_on_c, 14, 49, 90
20, 158519, Note_on_c, 14, 49, 0
20, 158520, Note_on_c, 14, 52, 90
20, 158579, Note_on_c, 14, 52, 0
20, 158580, Note_on_c, 14, 57, 90
20, 158639, Note_on_c, 14, 57, 0
20, 158640, Note_on_c, 14, 55, 90
20, 158669, Note_on_c, 14, 55, 0
20, 158670, Note_on_c, 14, 54, 90
20, 158699, Note_on_c, 14, 54, 0
20, 158700, Note_on_c, 14, 52, 90
20, 158759, Note_on_c, 14, 52, 0
20, 158760, Note_on_c, 14, 50, 90
20, 158819, Note_on_c, 14, 50, 0
20, 158820, Note_on_c, 14, 49, 90
20, 158879, Note_on_c, 14, 49, 0
20, 158880, Note_on_c, 14, 52, 90
20, 158939, Note_on_c, 14, 52, 0
20, 158940, Note_on_c, 14, 49, 90
20, 158999, Note_on_c, 14, 49, 0
20, 159000, Note_on_c, 14, 45, 90
20, 159059, Note_on_c, 14, 45, 0
20, 159060, Note_on_c, 14, 50, 90
20, 159119, Note_on_c, 14, 50, 0
20, 159120, Note_on_c, 14, 52, 90
20, 159179, Note_on_c, 14, 52, 0
20, 159180, Note_on_c, 14, 54, 90
20, 159239, Note_on_c, 14, 54, 0
20, 159240, Note_on_c, 14, 55, 90
20, 159299, Note_on_c, 14, 55, 0
20, 159300, Note_on_c, 14, 54, 90
20, 159359, Note_on_c, 14, 54, 0
20, 159360, Note_on_c, 14, 57, 90
20, 159389, Note_on_c, 14, 57, 0
20, 159390, Note_on_c, 14, 55, 90
20, 159419, Note_on_c, 14, 55, 0
20, 159420, Note_on_c, 14, 54, 90
20, 159479, Note_on_c, 14, 54, 0
20, 159480, Note_on_c, 14, 52, 90
20, 159539, Note_on_c, 14, 52, 0
20, 159540, Note_on_c, 14, 50, 90
20, 159599, Note_on_c, 14, 50, 0
20, 159600, Note_on_c, 14, 38, 90
20, 159659, Note_on_c, 14, 38, 0
20, 159660, Note_on_c, 14, 50, 90
20, 159719, Note_on_c, 14, 50, 0
20, 159720, Note_on_c, 14, 52, 90
20, 159779, Note_on_c, 14, 52, 0
20, 159780, Note_on_c, 14, 54, 90
20, 159839, Note_on_c, 14, 54, 0
20, 159840, Note_on_c, 14, 57, 90
20, 159899, Note_on_c, 14, 57, 0
20, 159900, Note_on_c, 14, 54, 90
20, 159959, Note_on_c, 14, 54, 0
20, 159960, Note_on_c, 14, 50, 90
20, 160019, Note_on_c, 14, 50, 0
20, 160020, Note_on_c, 14, 55, 90
20, 160079, Note_on_c, 14, 55, 0
20, 160080, Note_on_c, 14, 43, 90
20, 160139, Note_on_c, 14, 43, 0
20, 160140, Note_on_c, 14, 55, 90
20, 160169, Note_on_c, 14, 55, 0
20, 160170, Note_on_c, 14, 54, 90
20, 160199, Note_on_c, 14, 54, 0
20, 160200, Note_on_c, 14, 52, 90
20, 160229, Note_on_c, 14, 52, 0
20, 160230, Note_on_c, 14, 50, 90
20, 160259, Note_on_c, 14, 50, 0
20, 160260, Note_on_c, 14, 49, 90
20, 160319, Note_on_c, 14, 49, 0
20, 160320, Note_on_c, 14, 49, 90
20, 160379, Note_on_c, 14, 49, 0
20, 160380, Note_on_c, 14, 49, 90
20, 160439, Note_on_c, 14, 49, 0
20, 160440, Note_on_c, 14, 50, 90
20, 160469, Note_on_c, 14, 50, 0
20, 160470, Note_on_c, 14, 52, 90
20, 160499, Note_on_c, 14, 52, 0
20, 160500, Note_on_c, 14, 54, 90
20, 160559, Note_on_c, 14, 54, 0
20, 160560, Note_on_c, 14, 42, 90
20, 160619, Note_on_c, 14, 42, 0
20, 160620, Note_on_c, 14, 54, 90
20, 160649, Note_on_c, 14, 54, 0
20, 160650, Note_on_c, 14, 52, 90
20, 160679, Note_on_c, 14, 52, 0
20, 160680, Note_on_c, 14, 50, 90
20, 160709, Note_on_c, 14, 50, 0
20, 160710, Note_on_c, 14, 49, 90
20, 160739, Note_on_c, 14, 49, 0
20, 160740, Note_on_c, 14, 47, 90
20, 160799, Note_on_c, 14, 47, 0
20, 160800, Note_on_c, 14, 47, 90
20, 160859, Note_on_c, 14, 47, 0
20, 160860, Note_on_c, 14, 47, 90
20, 160919, Note_on_c, 14, 47, 0
20, 160920, Note_on_c, 14, 49, 90
20, 160949, Note_on_c, 14, 49, 0
20, 160950, Note_on_c, 14, 50, 90
20, 160979, Note_on_c, 14, 50, 0
20, 160980, Note_on_c, 14, 52, 90
20, 161039, Note_on_c, 14, 52, 0
20, 161040, Note_on_c, 14, 40, 90
20, 161099, Note_on_c, 14, 40, 0
20, 161100, Note_on_c, 14, 52, 90
20, 161129, Note_on_c, 14, 52, 0
20, 161130, Note_on_c, 14, 50, 90
20, 161159, Note_on_c, 14, 50, 0
20, 161160, Note_on_c, 14, 49, 90
20, 161189, Note_on_c, 14, 49, 0
20, 161190, Note_on_c, 14, 47, 90
20, 161219, Note_on_c, 14, 47, 0
20, 161220, Note_on_c, 14, 45, 90
20, 161279, Note_on_c, 14, 45, 0
20, 161280, Note_on_c, 14, 57, 90
20, 161339, Note_on_c, 14, 57, 0
20, 161340, Note_on_c, 14, 57, 90
20, 161399, Note_on_c, 14, 57, 0
20, 161400, Note_on_c, 14, 45, 90
20, 161459, Note_on_c, 14, 45, 0
20, 161460, Note_on_c, 14, 45, 90
20, 161519, Note_on_c, 14, 45, 0
20, 161520, Note_on_c, 14, 57, 90
20, 161579, Note_on_c, 14, 57, 0
20, 161580, Note_on_c, 14, 57, 90
20, 161639, Note_on_c, 14, 57, 0
20, 161640, Note_on_c, 14, 45, 90
20, 161699, Note_on_c, 14, 45, 0
20, 161700, Note_on_c, 14, 45, 90
20, 161759, Note_on_c, 14, 45, 0
20, 161760, Note_on_c, 14, 57, 90
20, 161819, Note_on_c, 14, 57, 0
20, 161820, Note_on_c, 14, 57, 90
20, 161879, Note_on_c, 14, 57, 0
20, 161880, Note_on_c, 14, 45, 90
20, 161939, Note_on_c, 14, 45, 0
20, 161940, Note_on_c, 14, 45, 90
20, 161999, Note_on_c, 14, 45, 0
20, 162000, Note_on_c, 14, 57, 90
20, 162059, Note_on_c, 14, 57, 0
20, 162060, Note_on_c, 14, 57, 90
20, 162119, Note_on_c, 14, 57, 0
20, 162120, Note_on_c, 14, 49, 90
20, 162179, Note_on_c, 14, 49, 0
20, 162180, Note_on_c, 14, 50, 90
20, 162239, Note_on_c, 14, 50, 0
20, 162240, Note_on_c, 14, 54, 90
20, 162299, Note_on_c, 14, 54, 0
20, 162300, Note_on_c, 14, 59, 90
20, 162359, Note_on_c, 14, 59, 0
20, 162360, Note_on_c, 14, 47, 90
20, 162419, Note_on_c, 14, 47, 0
20, 162420, Note_on_c, 14, 49, 90
20, 162479, Note_on_c, 14, 49, 0
20, 162480, Note_on_c, 14, 57, 90
20, 162539, Note_on_c, 14, 57, 0
20, 162540, Note_on_c, 14, 55, 90
20, 162599, Note_on_c, 14, 55, 0
20, 162600, Note_on_c, 14, 54, 90
20, 162659, Note_on_c, 14, 54, 0
20, 162660, Note_on_c, 14, 52, 90
20, 162689, Note_on_c, 14, 52, 0
20, 162690, Note_on_c, 14, 54, 90
20, 162719, Note_on_c, 14, 54, 0
20, 162720, Note_on_c, 14, 55, 90
20, 162749, Note_on_c, 14, 55, 0
20, 162750, Note_on_c, 14, 54, 90
20, 162779, Note_on_c, 14, 54, 0
20, 162780, Note_on_c, 14, 52, 90
20, 162809, Note_on_c, 14, 52, 0
20, 162810, Note_on_c, 14, 50, 90
20, 162839, Note_on_c, 14, 50, 0
20, 162840, Note_on_c, 14, 49, 90
20, 162869, Note_on_c, 14, 49, 0
20, 162870, Note_on_c, 14, 47, 90
20, 162899, Note_on_c, 14, 47, 0
20, 162900, Note_on_c, 14, 49, 90
20, 162959, Note_on_c, 14, 49, 0
20, 162960, Note_on_c, 14, 45, 90
20, 163019, Note_on_c, 14, 45, 0
20, 163020, Note_on_c, 14, 47, 90
20, 163079, Note_on_c, 14, 47, 0
20, 163080, Note_on_c, 14, 49, 90
20, 163139, Note_on_c, 14, 49, 0
20, 163140, Note_on_c, 14, 50, 90
20, 163199, Note_on_c, 14, 50, 0
20, 163200, Note_on_c, 14, 47, 90
20, 163259, Note_on_c, 14, 47, 0
20, 163260, Note_on_c, 14, 43, 90
20, 163319, Note_on_c, 14, 43, 0
20, 163320, Note_on_c, 14, 45, 90
20, 163379, Note_on_c, 14, 45, 0
20, 163380, Note_on_c, 14, 50, 90
20, 163439, Note_on_c, 14, 50, 0
20, 163440, Note_on_c, 14, 38, 90
20, 163499, Note_on_c, 14, 38, 0
20, 163500, Note_on_c, 14, 38, 90
20, 163559, Note_on_c, 14, 38, 0
20, 163560, Note_on_c, 14, 50, 90
20, 163619, Note_on_c, 14, 50, 0
20, 163620, Note_on_c, 14, 50, 90
20, 163679, Note_on_c, 14, 50, 0
20, 163680, Note_on_c, 14, 38, 90
20, 163739, Note_on_c, 14, 38, 0
20, 163740, Note_on_c, 14, 38, 90
20, 163799, Note_on_c, 14, 38, 0
20, 163800, Note_on_c, 14, 50, 90
20, 163859, Note_on_c, 14, 50, 0
20, 163860, Note_on_c, 14, 50, 90
20, 163919, Note_on_c, 14, 50, 0
20, 163920, Note_on_c, 14, 62, 90
20, 163979, Note_on_c, 14, 62, 0
20, 163980, Note_on_c, 14, 60, 90
20, 164039, Note_on_c, 14, 60, 0
20, 164040, Note_on_c, 14, 59, 90
20, 164099, Note_on_c, 14, 59, 0
20, 164100, Note_on_c, 14, 57, 90
20, 164159, Note_on_c, 14, 57, 0
20, 164160, Note_on_c, 14, 55, 90
20, 164219, Note_on_c, 14, 55, 0
20, 164220, Note_on_c, 14, 54, 90
20, 164279, Note_on_c, 14, 54, 0
20, 164280, Note_on_c, 14, 50, 90
20, 164339, Note_on_c, 14, 50, 0
20, 164340, Note_on_c, 14, 55, 90
20, 164399, Note_on_c, 14, 55, 0
20, 164460, Note_on_c, 14, 54, 90
20, 164519, Note_on_c, 14, 54, 0
20, 164580, Note_on_c, 14, 52, 90
20, 164639, Note_on_c, 14, 52, 0
20, 164640, Note_on_c, 14, 40, 90
20, 164699, Note_on_c, 14, 40, 0
20, 164700, Note_on_c, 14, 40, 90
20, 164759, Note_on_c, 14, 40, 0
20, 164760, Note_on_c, 14, 52, 90
20, 164879, Note_on_c, 14, 52, 0
20, 164880, Note_on_c, 14, 64, 90
20, 164939, Note_on_c, 14, 64, 0
20, 164940, Note_on_c, 14, 62, 90
20, 164999, Note_on_c, 14, 62, 0
20, 165000, Note_on_c, 14, 61, 90
20, 165059, Note_on_c, 14, 61, 0
20, 165060, Note_on_c, 14, 59, 90
20, 165119, Note_on_c, 14, 59, 0
20, 165120, Note_on_c, 14, 57, 90
20, 165179, Note_on_c, 14, 57, 0
20, 165180, Note_on_c, 14, 56, 90
20, 165239, Note_on_c, 14, 56, 0
20, 165240, Note_on_c, 14, 52, 90
20, 165299, Note_on_c, 14, 52, 0
20, 165300, Note_on_c, 14, 57, 90
20, 165359, Note_on_c, 14, 57, 0
20, 165420, Note_on_c, 14, 55, 90
20, 165479, Note_on_c, 14, 55, 0
20, 165540, Note_on_c, 14, 54, 90
20, 165599, Note_on_c, 14, 54, 0
20, 165660, Note_on_c, 14, 50, 90
20, 165719, Note_on_c, 14, 50, 0
20, 165780, Note_on_c, 14, 49, 90
20, 165839, Note_on_c, 14, 49, 0
20, 165900, Note_on_c, 14, 45, 90
20, 165959, Note_on_c, 14, 45, 0
20, 166020, Note_on_c, 14, 42, 90
20, 166079, Note_on_c, 14, 42, 0
20, 166080, Note_on_c, 14, 47, 90
20, 166139, Note_on_c, 14, 47, 0
20, 166140, Note_on_c, 14, 43, 90
20, 166199, Note_on_c, 14, 43, 0
20, 166200, Note_on_c, 14, 45, 90
20, 166259, Note_on_c, 14, 45, 0
20, 166260, Note_on_c, 14, 47, 90
20, 166319, Note_on_c, 14, 47, 0
20, 166320, Note_on_c, 14, 47, 90
20, 166379, Note_on_c, 14, 47, 0
20, 166380, Note_on_c, 14, 47, 90
20, 166439, Note_on_c, 14, 47, 0
20, 166440, Note_on_c, 14, 45, 90
20, 166499, Note_on_c, 14, 45, 0
20, 166500, Note_on_c, 14, 44, 90
20, 166559, Note_on_c, 14, 44, 0
20, 166620, Note_on_c, 14, 47, 90
20, 166679, Note_on_c, 14, 47, 0
20, 166740, Note_on_c, 14, 52, 90
20, 166799, Note_on_c, 14, 52, 0
20, 166860, Note_on_c, 14, 55, 90
20, 166919, Note_on_c, 14, 55, 0
20, 167040, Note_on_c, 14, 42, 90
20, 167099, Note_on_c, 14, 42, 0
20, 167100, Note_on_c, 14, 43, 90
20, 167159, Note_on_c, 14, 43, 0
20, 167160, Note_on_c, 14, 45, 90
20, 167219, Note_on_c, 14, 45, 0
20, 167220, Note_on_c, 14, 38, 90
20, 167279, Note_on_c, 14, 38, 0
20, 167280, Note_on_c, 14, 62, 90
20, 167339, Note_on_c, 14, 62, 0
20, 167340, Note_on_c, 14, 61, 90
20, 167399, Note_on_c, 14, 61, 0
20, 167400, Note_on_c, 14, 59, 90
20, 167459, Note_on_c, 14, 59, 0
20, 167460, Note_on_c, 14, 57, 90
20, 167519, Note_on_c, 14, 57, 0
20, 167520, Note_on_c, 14, 45, 90
20, 167579, Note_on_c, 14, 45, 0
20, 167580, Note_on_c, 14, 45, 90
20, 167639, Note_on_c, 14, 45, 0
20, 167640, Note_on_c, 14, 57, 90
20, 167699, Note_on_c, 14, 57, 0
20, 167700, Note_on_c, 14, 57, 90
20, 167759, Note_on_c, 14, 57, 0
20, 167760, Note_on_c, 14, 45, 90
20, 167819, Note_on_c, 14, 45, 0
20, 167820, Note_on_c, 14, 45, 90
20, 167879, Note_on_c, 14, 45, 0
20, 167880, Note_on_c, 14, 43, 90
20, 167939, Note_on_c, 14, 43, 0
20, 167940, Note_on_c, 14, 42, 90
20, 167999, Note_on_c, 14, 42, 0
20, 168000, Note_on_c, 14, 47, 90
20, 168059, Note_on_c, 14, 47, 0
20, 168060, Note_on_c, 14, 40, 90
20, 168119, Note_on_c, 14, 40, 0
20, 168120, Note_on_c, 14, 45, 90
20, 168179, Note_on_c, 14, 45, 0
20, 168180, Note_on_c, 14, 38, 90
20, 168239, Note_on_c, 14, 38, 0
20, 168240, Note_on_c, 14, 50, 90
20, 168299, Note_on_c, 14, 50, 0
20, 168300, Note_on_c, 14, 54, 90
20, 168359, Note_on_c, 14, 54, 0
20, 168360, Note_on_c, 14, 57, 90
20, 168419, Note_on_c, 14, 57, 0
20, 168420, Note_on_c, 14, 60, 90
20, 168479, Note_on_c, 14, 60, 0
20, 168480, Note_on_c, 14, 57, 90
20, 168539, Note_on_c, 14, 57, 0
20, 168540, Note_on_c, 14, 54, 90
20, 168599, Note_on_c, 14, 54, 0
20, 168600, Note_on_c, 14, 50, 90
20, 168659, Note_on_c, 14, 50, 0
20, 168660, Note_on_c, 14, 45, 90
20, 168719, Note_on_c, 14, 45, 0
20, 168720, Note_on_c, 14, 42, 90
20, 168779, Note_on_c, 14, 42, 0
20, 168780, Note_on_c, 14, 38, 90
20, 168839, Note_on_c, 14, 38, 0
20, 168840, Note_on_c, 14, 50, 90
20, 168899, Note_on_c, 14, 50, 0
20, 168900, Note_on_c, 14, 52, 90
20, 168959, Note_on_c, 14, 52, 0
20, 168960, Note_on_c, 14, 47, 90
20, 169019, Note_on_c, 14, 47, 0
20, 169020, Note_on_c, 14, 48, 90
20, 169079, Note_on_c, 14, 48, 0
20, 169080, Note_on_c, 14, 50, 90
20, 169139, Note_on_c, 14, 50, 0
20, 169140, Note_on_c, 14, 55, 90
20, 169199, Note_on_c, 14, 55, 0
20, 169200, Note_on_c, 14, 57, 90
20, 169259, Note_on_c, 14, 57, 0
20, 169260, Note_on_c, 14, 59, 90
20, 169319, Note_on_c, 14, 59, 0
20, 169320, Note_on_c, 14, 64, 90
20, 169379, Note_on_c, 14, 64, 0
20, 169380, Note_on_c, 14, 54, 90
20, 169439, Note_on_c, 14, 54, 0
20, 169440, Note_on_c, 14, 64, 90
20, 169499, Note_on_c, 14, 64, 0
20, 169500, Note_on_c, 14, 63, 90
20, 169559, Note_on_c, 14, 63, 0
20, 169560, Note_on_c, 14, 59, 90
20, 169619, Note_on_c, 14, 59, 0
20, 169620, Note_on_c, 14, 52, 90
20, 169679, Note_on_c, 14, 52, 0
20, 169680, Note_on_c, 14, 62, 90
20, 169739, Note_on_c, 14, 62, 0
20, 169740, Note_on_c, 14, 61, 90
20, 169799, Note_on_c, 14, 61, 0
20, 169800, Note_on_c, 14, 57, 90
20, 169859, Note_on_c, 14, 57, 0
20, 169860, Note_on_c, 14, 50, 90
20, 169919, Note_on_c, 14, 50, 0
20, 169920, Note_on_c, 14, 54, 90
20, 169979, Note_on_c, 14, 54, 0
20, 169980, Note_on_c, 14, 55, 90
20, 170039, Note_on_c, 14, 55, 0
20, 170040, Note_on_c, 14, 52, 90
20, 170099, Note_on_c, 14, 52, 0
20, 170100, Note_on_c, 14, 57, 90
20, 170159, Note_on_c, 14, 57, 0
20, 170160, Note_on_c, 14, 55, 90
20, 170219, Note_on_c, 14, 55, 0
20, 170220, Note_on_c, 14, 54, 90
20, 170279, Note_on_c, 14, 54, 0
20, 170280, Note_on_c, 14, 52, 90
20, 170339, Note_on_c, 14, 52, 0
20, 170340, Note_on_c, 14, 50, 90
20, 170399, Note_on_c, 14, 50, 0
20, 170400, Note_on_c, 14, 42, 90
20, 170459, Note_on_c, 14, 42, 0
20, 170460, Note_on_c, 14, 43, 90
20, 170519, Note_on_c, 14, 43, 0
20, 170520, Note_on_c, 14, 45, 90
20, 170579, Note_on_c, 14, 45, 0
20, 170580, Note_on_c, 14, 38, 90
20, 170819, Note_on_c, 14, 38, 0
20, 170820, Note_on_c, 14, 47, 90
20, 170879, Note_on_c, 14, 47, 0
20, 170880, Note_on_c, 14, 59, 90
20, 170939, Note_on_c, 14, 59, 0
20, 170940, Note_on_c, 14, 59, 90
20, 170999, Note_on_c, 14, 59, 0
20, 171000, Note_on_c, 14, 47, 90
20, 171059, Note_on_c, 14, 47, 0
20, 171060, Note_on_c, 14, 47, 90
20, 171119, Note_on_c, 14, 47, 0
20, 171120, Note_on_c, 14, 59, 90
20, 171179, Note_on_c, 14, 59, 0
20, 171180, Note_on_c, 14, 57, 90
20, 171239, Note_on_c, 14, 57, 0
20, 171240, Note_on_c, 14, 45, 90
20, 171299, Note_on_c, 14, 45, 0
20, 171300, Note_on_c, 14, 43, 90
20, 171359, Note_on_c, 14, 43, 0
20, 171360, Note_on_c, 14, 48, 90
20, 171419, Note_on_c, 14, 48, 0
20, 171420, Note_on_c, 14, 45, 90
20, 171479, Note_on_c, 14, 45, 0
20, 171480, Note_on_c, 14, 47, 90
20, 171539, Note_on_c, 14, 47, 0
20, 171540, Note_on_c, 14, 52, 90
20, 171599, Note_on_c, 14, 52, 0
20, 171600, Note_on_c, 14, 40, 90
20, 171659, Note_on_c, 14, 40, 0
20, 171660, Note_on_c, 14, 42, 90
20, 171719, Note_on_c, 14, 42, 0
20, 171720, Note_on_c, 14, 43, 90
20, 171779, Note_on_c, 14, 43, 0
20, 171780, Note_on_c, 14, 45, 90
20, 171839, Note_on_c, 14, 45, 0
20, 171840, Note_on_c, 14, 57, 90
20, 171899, Note_on_c, 14, 57, 0
20, 171900, Note_on_c, 14, 57, 90
20, 171959, Note_on_c, 14, 57, 0
20, 171960, Note_on_c, 14, 45, 90
20, 172019, Note_on_c, 14, 45, 0
20, 172020, Note_on_c, 14, 45, 90
20, 172079, Note_on_c, 14, 45, 0
20, 172080, Note_on_c, 14, 57, 90
20, 172139, Note_on_c, 14, 57, 0
20, 172140, Note_on_c, 14, 55, 90
20, 172199, Note_on_c, 14, 55, 0
20, 172200, Note_on_c, 14, 43, 90
20, 172259, Note_on_c, 14, 43, 0
20, 172260, Note_on_c, 14, 42, 90
20, 172319, Note_on_c, 14, 42, 0
20, 172320, Note_on_c, 14, 47, 90
20, 172379, Note_on_c, 14, 47, 0
20, 172380, Note_on_c, 14, 43, 90
20, 172439, Note_on_c, 14, 43, 0
20, 172440, Note_on_c, 14, 45, 90
20, 172499, Note_on_c, 14, 45, 0
20, 172500, Note_on_c, 14, 50, 90
20, 172559, Note_on_c, 14, 50, 0
20, 172560, Note_on_c, 14, 49, 90
20, 172619, Note_on_c, 14, 49, 0
20, 172620, Note_on_c, 14, 50, 90
20, 172679, Note_on_c, 14, 50, 0
20, 172680, Note_on_c, 14, 52, 90
20, 172739, Note_on_c, 14, 52, 0
20, 172740, Note_on_c, 14, 54, 90
20, 172799, Note_on_c, 14, 54, 0
20, 172800, Note_on_c, 14, 42, 90
20, 172859, Note_on_c, 14, 42, 0
20, 172860, Note_on_c, 14, 54, 90
20, 172919, Note_on_c, 14, 54, 0
20, 172920, Note_on_c, 14, 52, 90
20, 172979, Note_on_c, 14, 52, 0
20, 172980, Note_on_c, 14, 50, 90
20, 173039, Note_on_c, 14, 50, 0
20, 173100, Note_on_c, 14, 47, 90
20, 173159, Note_on_c, 14, 47, 0
20, 173220, Note_on_c, 14, 46, 90
20, 173279, Note_on_c, 14, 46, 0
20, 173280, Note_on_c, 14, 61, 90
20, 173339, Note_on_c, 14, 61, 0
20, 173340, Note_on_c, 14, 58, 90
20, 173399, Note_on_c, 14, 58, 0
20, 173400, Note_on_c, 14, 54, 90
20, 173459, Note_on_c, 14, 54, 0
20, 173460, Note_on_c, 14, 59, 90
20, 173519, Note_on_c, 14, 59, 0
20, 173580, Note_on_c, 14, 47, 90
20, 173639, Note_on_c, 14, 47, 0
20, 173700, Note_on_c, 14, 50, 90
20, 173759, Note_on_c, 14, 50, 0
20, 173820, Note_on_c, 14, 44, 90
20, 173879, Note_on_c, 14, 44, 0
20, 173940, Note_on_c, 14, 49, 90
20, 173999, Note_on_c, 14, 49, 0
20, 174000, Note_on_c, 14, 47, 90
20, 174059, Note_on_c, 14, 47, 0
20, 174060, Note_on_c, 14, 45, 90
20, 174119, Note_on_c, 14, 45, 0
20, 174120, Note_on_c, 14, 47, 90
20, 174179, Note_on_c, 14, 47, 0
20, 174180, Note_on_c, 14, 49, 90
20, 174239, Note_on_c, 14, 49, 0
20, 174240, Note_on_c, 14, 47, 90
20, 174299, Note_on_c, 14, 47, 0
20, 174300, Note_on_c, 14, 49, 90
20, 174359, Note_on_c, 14, 49, 0
20, 174360, Note_on_c, 14, 49, 90
20, 174419, Note_on_c, 14, 49, 0
20, 174420, Note_on_c, 14, 42, 90
20, 174479, Note_on_c, 14, 42, 0
20, 174480, Note_on_c, 14, 44, 90
20, 174539, Note_on_c, 14, 44, 0
20, 174540, Note_on_c, 14, 45, 90
20, 174599, Note_on_c, 14, 45, 0
20, 174600, Note_on_c, 14, 42, 90
20, 174659, Note_on_c, 14, 42, 0
20, 174660, Note_on_c, 14, 47, 90
20, 174719, Note_on_c, 14, 47, 0
20, 174720, Note_on_c, 14, 50, 90
20, 174779, Note_on_c, 14, 50, 0
20, 174780, Note_on_c, 14, 54, 90
20, 174839, Note_on_c, 14, 54, 0
20, 174840, Note_on_c, 14, 47, 90
20, 174899, Note_on_c, 14, 47, 0
20, 174900, Note_on_c, 14, 45, 90
20, 174959, Note_on_c, 14, 45, 0
20, 174960, Note_on_c, 14, 49, 90
20, 175019, Note_on_c, 14, 49, 0
20, 175020, Note_on_c, 14, 54, 90
20, 175079, Note_on_c, 14, 54, 0
20, 175080, Note_on_c, 14, 52, 90
20, 175139, Note_on_c, 14, 52, 0
20, 175140, Note_on_c, 14, 50, 90
20, 175199, Note_on_c, 14, 50, 0
20, 175200, Note_on_c, 14, 54, 90
20, 175259, Note_on_c, 14, 54, 0
20, 175260, Note_on_c, 14, 59, 90
20, 175319, Note_on_c, 14, 59, 0
20, 175320, Note_on_c, 14, 50, 90
20, 175379, Note_on_c, 14, 50, 0
20, 175380, Note_on_c, 14, 49, 90
20, 175439, Note_on_c, 14, 49, 0
20, 175440, Note_on_c, 14, 54, 90
20, 175499, Note_on_c, 14, 54, 0
20, 175500, Note_on_c, 14, 57, 90
20, 175559, Note_on_c, 14, 57, 0
20, 175560, Note_on_c, 14, 49, 90
20, 175619, Note_on_c, 14, 49, 0
20, 175620, Note_on_c, 14, 47, 90
20, 175679, Note_on_c, 14, 47, 0
20, 175740, Note_on_c, 14, 49, 90
20, 175799, Note_on_c, 14, 49, 0
20, 175860, Note_on_c, 14, 50, 90
20, 175919, Note_on_c, 14, 50, 0
20, 175980, Note_on_c, 14, 41, 90
20, 176039, Note_on_c, 14, 41, 0
20, 176100, Note_on_c, 14, 42, 90
20, 176159, Note_on_c, 14, 42, 0
20, 176160, Note_on_c, 14, 45, 90
20, 176219, Note_on_c, 14, 45, 0
20, 176220, Note_on_c, 14, 49, 90
20, 176279, Note_on_c, 14, 49, 0
20, 176280, Note_on_c, 14, 37, 90
20, 176339, Note_on_c, 14, 37, 0
20, 176340, Note_on_c, 14, 42, 90
20, 176399, Note_on_c, 14, 42, 0
20, 176400, Note_on_c, 14, 54, 90
20, 176459, Note_on_c, 14, 54, 0
20, 176460, Note_on_c, 14, 57, 90
20, 176519, Note_on_c, 14, 57, 0
20, 176520, Note_on_c, 14, 61, 90
20, 176579, Note_on_c, 14, 61, 0
20, 176580, Note_on_c, 14, 54, 90
20, 176639, Note_on_c, 14, 54, 0
20, 176640, Note_on_c, 14, 42, 90
20, 176699, Note_on_c, 14, 42, 0
20, 176700, Note_on_c, 14, 42, 90
20, 176759, Note_on_c, 14, 42, 0
20, 176760, Note_on_c, 14, 54, 90
20, 176819, Note_on_c, 14, 54, 0
20, 176820, Note_on_c, 14, 52, 90
20, 176879, Note_on_c, 14, 52, 0
20, 176880, Note_on_c, 14, 40, 90
20, 176939, Note_on_c, 14, 40, 0
20, 176940, Note_on_c, 14, 40, 90
20, 176999, Note_on_c, 14, 40, 0
20, 177000, Note_on_c, 14, 52, 90
20, 177059, Note_on_c, 14, 52, 0
20, 177060, Note_on_c, 14, 50, 90
20, 177119, Note_on_c, 14, 50, 0
20, 177120, Note_on_c, 14, 38, 90
20, 177179, Note_on_c, 14, 38, 0
20, 177180, Note_on_c, 14, 40, 90
20, 177239, Note_on_c, 14, 40, 0
20, 177240, Note_on_c, 14, 42, 90
20, 177299, Note_on_c, 14, 42, 0
20, 177300, Note_on_c, 14, 47, 90
20, 177329, Note_on_c, 14, 47, 0
20, 177330, Note_on_c, 14, 46, 90
20, 177359, Note_on_c, 14, 46, 0
20, 177360, Note_on_c, 14, 47, 90
20, 177389, Note_on_c, 14, 47, 0
20, 177390, Note_on_c, 14, 49, 90
20, 177419, Note_on_c, 14, 49, 0
20, 177420, Note_on_c, 14, 50, 90
20, 177449, Note_on_c, 14, 50, 0
20, 177450, Note_on_c, 14, 49, 90
20, 177479, Note_on_c, 14, 49, 0
20, 177480, Note_on_c, 14, 50, 90
20, 177509, Note_on_c, 14, 50, 0
20, 177510, Note_on_c, 14, 47, 90
20, 177539, Note_on_c, 14, 47, 0
20, 177540, Note_on_c, 14, 52, 90
20, 177599, Note_on_c, 14, 52, 0
20, 177600, Note_on_c, 14, 40, 90
20, 177659, Note_on_c, 14, 40, 0
20, 177660, Note_on_c, 14, 40, 90
20, 177719, Note_on_c, 14, 40, 0
20, 177720, Note_on_c, 14, 52, 90
20, 177779, Note_on_c, 14, 52, 0
20, 177780, Note_on_c, 14, 50, 90
20, 177839, Note_on_c, 14, 50, 0
20, 177840, Note_on_c, 14, 38, 90
20, 177899, Note_on_c, 14, 38, 0
20, 177900, Note_on_c, 14, 38, 90
20, 177959, Note_on_c, 14, 38, 0
20, 177960, Note_on_c, 14, 50, 90
20, 178019, Note_on_c, 14, 50, 0
20, 178020, Note_on_c, 14, 49, 90
20, 178079, Note_on_c, 14, 49, 0
20, 178080, Note_on_c, 14, 37, 90
20, 178139, Note_on_c, 14, 37, 0
20, 178140, Note_on_c, 14, 38, 90
20, 178199, Note_on_c, 14, 38, 0
20, 178200, Note_on_c, 14, 40, 90
20, 178259, Note_on_c, 14, 40, 0
20, 178260, Note_on_c, 14, 45, 90
20, 178289, Note_on_c, 14, 45, 0
20, 178290, Note_on_c, 14, 44, 90
20, 178319, Note_on_c, 14, 44, 0
20, 178320, Note_on_c, 14, 45, 90
20, 178349, Note_on_c, 14, 45, 0
20, 178350, Note_on_c, 14, 47, 90
20, 178379, Note_on_c, 14, 47, 0
20, 178380, Note_on_c, 14, 49, 90
20, 178409, Note_on_c, 14, 49, 0
20, 178410, Note_on_c, 14, 47, 90
20, 178439, Note_on_c, 14, 47, 0
20, 178440, Note_on_c, 14, 49, 90
20, 178469, Note_on_c, 14, 49, 0
20, 178470, Note_on_c, 14, 45, 90
20, 178499, Note_on_c, 14, 45, 0
20, 178500, Note_on_c, 14, 50, 90
20, 178559, Note_on_c, 14, 50, 0
20, 178560, Note_on_c, 14, 49, 90
20, 178619, Note_on_c, 14, 49, 0
20, 178620, Note_on_c, 14, 47, 90
20, 178679, Note_on_c, 14, 47, 0
20, 178680, Note_on_c, 14, 45, 90
20, 178739, Note_on_c, 14, 45, 0
20, 178740, Note_on_c, 14, 44, 90
20, 178799, Note_on_c, 14, 44, 0
20, 178800, Note_on_c, 14, 40, 90
20, 178859, Note_on_c, 14, 40, 0
20, 178860, Note_on_c, 14, 45, 90
20, 178919, Note_on_c, 14, 45, 0
20, 178920, Note_on_c, 14, 47, 90
20, 178979, Note_on_c, 14, 47, 0
20, 178980, Note_on_c, 14, 49, 90
20, 179039, Note_on_c, 14, 49, 0
20, 179040, Note_on_c, 14, 45, 90
20, 179099, Note_on_c, 14, 45, 0
20, 179100, Note_on_c, 14, 50, 90
20, 179159, Note_on_c, 14, 50, 0
20, 179160, Note_on_c, 14, 47, 90
20, 179219, Note_on_c, 14, 47, 0
20, 179220, Note_on_c, 14, 52, 90
20, 179279, Note_on_c, 14, 52, 0
20, 179280, Note_on_c, 14, 54, 90
20, 179339, Note_on_c, 14, 54, 0
20, 179340, Note_on_c, 14, 56, 90
20, 179399, Note_on_c, 14, 56, 0
20, 179400, Note_on_c, 14, 52, 90
20, 179459, Note_on_c, 14, 52, 0
20, 179460, Note_on_c, 14, 57, 90
20, 179519, Note_on_c, 14, 57, 0
20, 179580, Note_on_c, 14, 45, 90
20, 179639, Note_on_c, 14, 45, 0
20, 179700, Note_on_c, 14, 50, 90
20, 179759, Note_on_c, 14, 50, 0
20, 179880, Note_on_c, 14, 51, 90
20, 179939, Note_on_c, 14, 51, 0
20, 179940, Note_on_c, 14, 52, 90
20, 179999, Note_on_c, 14, 52, 0
20, 180000, Note_on_c, 14, 50, 90
20, 180059, Note_on_c, 14, 50, 0
20, 180060, Note_on_c, 14, 52, 90
20, 180119, Note_on_c, 14, 52, 0
20, 180120, Note_on_c, 14, 40, 90
20, 180179, Note_on_c, 14, 40, 0
20, 180180, Note_on_c, 14, 45, 90
20, 180419, Note_on_c, 14, 45, 0
20, 180420, Note_on_c, 14, 50, 90
20, 180479, Note_on_c, 14, 50, 0
20, 180480, Note_on_c, 14, 38, 90
20, 180539, Note_on_c, 14, 38, 0
20, 180540, Note_on_c, 14, 38, 90
20, 180599, Note_on_c, 14, 38, 0
20, 180600, Note_on_c, 14, 50, 90
20, 180659, Note_on_c, 14, 50, 0
20, 180660, Note_on_c, 14, 50, 90
20, 180719, Note_on_c, 14, 50, 0
20, 180720, Note_on_c, 14, 38, 90
20, 180779, Note_on_c, 14, 38, 0
20, 180780, Note_on_c, 14, 38, 90
20, 180839, Note_on_c, 14, 38, 0
20, 180840, Note_on_c, 14, 50, 90
20, 180869, Note_on_c, 14, 50, 0
20, 180870, Note_on_c, 14, 52, 90
20, 180899, Note_on_c, 14, 52, 0
20, 180900, Note_on_c, 14, 54, 90
20, 180959, Note_on_c, 14, 54, 0
20, 180960, Note_on_c, 14, 50, 90
20, 181019, Note_on_c, 14, 50, 0
20, 181020, Note_on_c, 14, 57, 90
20, 181079, Note_on_c, 14, 57, 0
20, 181080, Note_on_c, 14, 45, 90
20, 181139, Note_on_c, 14, 45, 0
20, 181140, Note_on_c, 14, 50, 90
20, 181199, Note_on_c, 14, 50, 0
20, 181200, Note_on_c, 14, 42, 90
20, 181259, Note_on_c, 14, 42, 0
20, 181260, Note_on_c, 14, 43, 90
20, 181319, Note_on_c, 14, 43, 0
20, 181320, Note_on_c, 14, 45, 90
20, 181379, Note_on_c, 14, 45, 0
20, 181380, Note_on_c, 14, 50, 90
20, 181439, Note_on_c, 14, 50, 0
20, 181440, Note_on_c, 14, 38, 90
20, 181499, Note_on_c, 14, 38, 0
20, 181500, Note_on_c, 14, 38, 90
20, 181559, Note_on_c, 14, 38, 0
20, 181560, Note_on_c, 14, 50, 90
20, 181619, Note_on_c, 14, 50, 0
20, 181620, Note_on_c, 14, 50, 90
20, 181679, Note_on_c, 14, 50, 0
20, 181680, Note_on_c, 14, 38, 90
20, 181739, Note_on_c, 14, 38, 0
20, 181740, Note_on_c, 14, 38, 90
20, 181799, Note_on_c, 14, 38, 0
20, 181800, Note_on_c, 14, 50, 90
20, 181829, Note_on_c, 14, 50, 0
20, 181830, Note_on_c, 14, 49, 90
20, 181859, Note_on_c, 14, 49, 0
20, 181860, Note_on_c, 14, 47, 90
20, 181919, Note_on_c, 14, 47, 0
20, 181920, Note_on_c, 14, 42, 90
20, 181979, Note_on_c, 14, 42, 0
20, 181980, Note_on_c, 14, 43, 90
20, 182039, Note_on_c, 14, 43, 0
20, 182040, Note_on_c, 14, 45, 90
20, 182099, Note_on_c, 14, 45, 0
20, 182100, Note_on_c, 14, 50, 90
20, 182159, Note_on_c, 14, 50, 0
20, 182160, Note_on_c, 14, 38, 90
20, 182219, Note_on_c, 14, 38, 0
20, 182220, Note_on_c, 14, 38, 90
20, 182279, Note_on_c, 14, 38, 0
20, 182280, Note_on_c, 14, 54, 90
20, 182339, Note_on_c, 14, 54, 0
20, 182340, Note_on_c, 14, 55, 90
20, 182399, Note_on_c, 14, 55, 0
20, 182400, Note_on_c, 14, 59, 90
20, 182459, Note_on_c, 14, 59, 0
20, 182460, Note_on_c, 14, 62, 90
20, 182519, Note_on_c, 14, 62, 0
20, 182520, Note_on_c, 14, 55, 90
20, 182579, Note_on_c, 14, 55, 0
20, 182580, Note_on_c, 14, 54, 90
20, 182639, Note_on_c, 14, 54, 0
20, 182640, Note_on_c, 14, 57, 90
20, 182699, Note_on_c, 14, 57, 0
20, 182700, Note_on_c, 14, 62, 90
20, 182759, Note_on_c, 14, 62, 0
20, 182760, Note_on_c, 14, 54, 90
20, 182819, Note_on_c, 14, 54, 0
20, 182820, Note_on_c, 14, 52, 90
20, 182879, Note_on_c, 14, 52, 0
20, 182880, Note_on_c, 14, 61, 90
20, 182939, Note_on_c, 14, 61, 0
20, 182940, Note_on_c, 14, 50, 90
20, 182999, Note_on_c, 14, 50, 0
20, 183000, Note_on_c, 14, 62, 90
20, 183059, Note_on_c, 14, 62, 0
20, 183060, Note_on_c, 14, 57, 90
20, 183119, Note_on_c, 14, 57, 0
20, 183120, Note_on_c, 14, 55, 90
20, 183179, Note_on_c, 14, 55, 0
20, 183180, Note_on_c, 14, 54, 90
20, 183239, Note_on_c, 14, 54, 0
20, 183240, Note_on_c, 14, 52, 90
20, 183299, Note_on_c, 14, 52, 0
20, 183300, Note_on_c, 14, 50, 90
20, 183359, Note_on_c, 14, 50, 0
20, 183360, Note_on_c, 14, 42, 90
20, 183419, Note_on_c, 14, 42, 0
20, 183420, Note_on_c, 14, 40, 90
20, 183479, Note_on_c, 14, 40, 0
20, 183480, Note_on_c, 14, 38, 90
20, 183539, Note_on_c, 14, 38, 0
20, 183540, Note_on_c, 14, 45, 90
20, 183599, Note_on_c, 14, 45, 0
20, 183600, Note_on_c, 14, 57, 90
20, 183629, Note_on_c, 14, 57, 0
20, 183630, Note_on_c, 14, 59, 90
20, 183659, Note_on_c, 14, 59, 0
20, 183660, Note_on_c, 14, 57, 90
20, 183689, Note_on_c, 14, 57, 0
20, 183690, Note_on_c, 14, 55, 90
20, 183719, Note_on_c, 14, 55, 0
20, 183720, Note_on_c, 14, 54, 90
20, 183749, Note_on_c, 14, 54, 0
20, 183750, Note_on_c, 14, 52, 90
20, 183779, Note_on_c, 14, 52, 0
20, 183780, Note_on_c, 14, 50, 90
20, 183839, Note_on_c, 14, 50, 0
20, 183840, Note_on_c, 14, 38, 90
20, 183959, Note_on_c, 14, 38, 0
20, 183960, Note_on_c, 14, 50, 90
20, 184079, Note_on_c, 14, 50, 0
20, 184080, Note_on_c, 14, 38, 90
20, 184199, Note_on_c, 14, 38, 0
20, 184200, Note_on_c, 14, 49, 90
20, 184259, Note_on_c, 14, 49, 0
20, 184260, Note_on_c, 14, 47, 90
20, 184319, Note_on_c, 14, 47, 0
20, 184320, Note_on_c, 14, 54, 90
20, 184349, Note_on_c, 14, 54, 0
20, 184350, Note_on_c, 14, 55, 90
20, 184379, Note_on_c, 14, 55, 0
20, 184380, Note_on_c, 14, 57, 90
20, 184439, Note_on_c, 14, 57, 0
20, 184440, Note_on_c, 14, 45, 90
20, 184499, Note_on_c, 14, 45, 0
20, 184500, Note_on_c, 14, 50, 90
20, 184559, Note_on_c, 14, 50, 0
20, 184560, Note_on_c, 14, 45, 90
20, 184619, Note_on_c, 14, 45, 0
20, 184620, Note_on_c, 14, 42, 90
20, 184679, Note_on_c, 14, 42, 0
20, 184680, Note_on_c, 14, 45, 90
20, 184739, Note_on_c, 14, 45, 0
20, 184740, Note_on_c, 14, 50, 90
20, 184799, Note_on_c, 14, 50, 0
20, 184800, Note_on_c, 14, 38, 90
20, 184919, Note_on_c, 14, 38, 0
20, 184920, Note_on_c, 14, 50, 90
20, 185039, Note_on_c, 14, 50, 0
20, 185040, Note_on_c, 14, 38, 90
20, 185159, Note_on_c, 14, 38, 0
20, 185160, Note_on_c, 14, 49, 90
20, 185219, Note_on_c, 14, 49, 0
20, 185220, Note_on_c, 14, 47, 90
20, 185279, Note_on_c, 14, 47, 0
20, 185280, Note_on_c, 14, 54, 90
20, 185309, Note_on_c, 14, 54, 0
20, 185310, Note_on_c, 14, 55, 90
20, 185339, Note_on_c, 14, 55, 0
20, 185340, Note_on_c, 14, 57, 90
20, 185399, Note_on_c, 14, 57, 0
20, 185400, Note_on_c, 14, 45, 90
20, 185459, Note_on_c, 14, 45, 0
20, 185460, Note_on_c, 14, 50, 90
20, 185519, Note_on_c, 14, 50, 0
20, 185520, Note_on_c, 14, 45, 90
20, 185579, Note_on_c, 14, 45, 0
20, 185580, Note_on_c, 14, 42, 90
20, 185639, Note_on_c, 14, 42, 0
20, 185640, Note_on_c, 14, 38, 90
20, 185699, Note_on_c, 14, 38, 0
20, 185700, Note_on_c, 14, 43, 90
20, 185759, Note_on_c, 14, 43, 0
20, 185760, Note_on_c, 14, 47, 90
20, 185819, Note_on_c, 14, 47, 0
20, 185820, Note_on_c, 14, 50, 90
20, 185879, Note_on_c, 14, 50, 0
20, 185880, Note_on_c, 14, 43, 90
20, 185939, Note_on_c, 14, 43, 0
20, 185940, Note_on_c, 14, 42, 90
20, 185999, Note_on_c, 14, 42, 0
20, 186000, Note_on_c, 14, 45, 90
20, 186059, Note_on_c, 14, 45, 0
20, 186060, Note_on_c, 14, 50, 90
20, 186119, Note_on_c, 14, 50, 0
20, 186120, Note_on_c, 14, 42, 90
20, 186179, Note_on_c, 14, 42, 0
20, 186180, Note_on_c, 14, 40, 90
20, 186239, Note_on_c, 14, 40, 0
20, 186240, Note_on_c, 14, 49, 90
20, 186299, Note_on_c, 14, 49, 0
20, 186300, Note_on_c, 14, 38, 90
20, 186359, Note_on_c, 14, 38, 0
20, 186360, Note_on_c, 14, 50, 90
20, 186419, Note_on_c, 14, 50, 0
20, 186420, Note_on_c, 14, 45, 90
20, 186479, Note_on_c, 14, 45, 0
20, 186480, Note_on_c, 14, 43, 90
20, 186539, Note_on_c, 14, 43, 0
20, 186540, Note_on_c, 14, 42, 90
20, 186599, Note_on_c, 14, 42, 0
20, 186600, Note_on_c, 14, 40, 90
20, 186659, Note_on_c, 14, 40, 0
20, 186660, Note_on_c, 14, 38, 90
20, 186719, Note_on_c, 14, 38, 0
20, 186720, Note_on_c, 14, 50, 90
20, 186779, Note_on_c, 14, 50, 0
20, 186780, Note_on_c, 14, 49, 90
20, 186839, Note_on_c, 14, 49, 0
20, 186840, Note_on_c, 14, 50, 90
20, 186899, Note_on_c, 14, 50, 0
20, 186900, Note_on_c, 14, 45, 90
20, 186959, Note_on_c, 14, 45, 0
20, 186960, Note_on_c, 14, 47, 90
20, 187019, Note_on_c, 14, 47, 0
20, 187020, Note_on_c, 14, 49, 90
20, 187079, Note_on_c, 14, 49, 0
20, 187080, Note_on_c, 14, 50, 90
20, 187139, Note_on_c, 14, 50, 0
20, 187140, Note_on_c, 14, 49, 90
20, 187199, Note_on_c, 14, 49, 0
20, 187200, Note_on_c, 14, 45, 90
20, 187259, Note_on_c, 14, 45, 0
20, 187260, Note_on_c, 14, 49, 90
20, 187319, Note_on_c, 14, 49, 0
20, 187320, Note_on_c, 14, 52, 90
20, 187379, Note_on_c, 14, 52, 0
20, 187380, Note_on_c, 14, 57, 90
20, 187439, Note_on_c, 14, 57, 0
20, 187440, Note_on_c, 14, 55, 90
20, 187469, Note_on_c, 14, 55, 0
20, 187470, Note_on_c, 14, 54, 90
20, 187499, Note_on_c, 14, 54, 0
20, 187500, Note_on_c, 14, 52, 90
20, 187559, Note_on_c, 14, 52, 0
20, 187560, Note_on_c, 14, 50, 90
20, 187619, Note_on_c, 14, 50, 0
20, 187620, Note_on_c, 14, 49, 90
20, 187679, Note_on_c, 14, 49, 0
20, 187680, Note_on_c, 14, 52, 90
20, 187739, Note_on_c, 14, 52, 0
20, 187740, Note_on_c, 14, 49, 90
20, 187799, Note_on_c, 14, 49, 0
20, 187800, Note_on_c, 14, 45, 90
20, 187859, Note_on_c, 14, 45, 0
20, 187860, Note_on_c, 14, 50, 90
20, 187919, Note_on_c, 14, 50, 0
20, 187920, Note_on_c, 14, 52, 90
20, 187979, Note_on_c, 14, 52, 0
20, 187980, Note_on_c, 14, 54, 90
20, 188039, Note_on_c, 14, 54, 0
20, 188040, Note_on_c, 14, 55, 90
20, 188099, Note_on_c, 14, 55, 0
20, 188100, Note_on_c, 14, 54, 90
20, 188159, Note_on_c, 14, 54, 0
20, 188160, Note_on_c, 14, 57, 90
20, 188189, Note_on_c, 14, 57, 0
20, 188190, Note_on_c, 14, 55, 90
20, 188219, Note_on_c, 14, 55, 0
20, 188220, Note_on_c, 14, 54, 90
20, 188279, Note_on_c, 14, 54, 0
20, 188280, Note_on_c, 14, 52, 90
20, 188339, Note_on_c, 14, 52, 0
20, 188340, Note_on_c, 14, 50, 90
20, 188399, Note_on_c, 14, 50, 0
20, 188400, Note_on_c, 14, 38, 90
20, 188459, Note_on_c, 14, 38, 0
20, 188460, Note_on_c, 14, 50, 90
20, 188519, Note_on_c, 14, 50, 0
20, 188520, Note_on_c, 14, 52, 90
20, 188579, Note_on_c, 14, 52, 0
20, 188580, Note_on_c, 14, 54, 90
20, 188639, Note_on_c, 14, 54, 0
20, 188640, Note_on_c, 14, 57, 90
20, 188699, Note_on_c, 14, 57, 0
20, 188700, Note_on_c, 14, 54, 90
20, 188759, Note_on_c, 14, 54, 0
20, 188760, Note_on_c, 14, 50, 90
20, 188819, Note_on_c, 14, 50, 0
20, 188820, Note_on_c, 14, 55, 90
20, 188879, Note_on_c, 14, 55, 0
20, 188880, Note_on_c, 14, 43, 90
20, 188939, Note_on_c, 14, 43, 0
20, 188940, Note_on_c, 14, 55, 90
20, 188969, Note_on_c, 14, 55, 0
20, 188970, Note_on_c, 14, 54, 90
20, 188999, Note_on_c, 14, 54, 0
20, 189000, Note_on_c, 14, 52, 90
20, 189029, Note_on_c, 14, 52, 0
20, 189030, Note_on_c, 14, 50, 90
20, 189059, Note_on_c, 14, 50, 0
20, 189060, Note_on_c, 14, 49, 90
20, 189119, Note_on_c, 14, 49, 0
20, 189120, Note_on_c, 14, 49, 90
20, 189179, Note_on_c, 14, 49, 0
20, 189180, Note_on_c, 14, 49, 90
20, 189239, Note_on_c, 14, 49, 0
20, 189240, Note_on_c, 14, 50, 90
20, 189269, Note_on_c, 14, 50, 0
20, 189270, Note_on_c, 14, 52, 90
20, 189299, Note_on_c, 14, 52, 0
20, 189300, Note_on_c, 14, 54, 90
20, 189359, Note_on_c, 14, 54, 0
20, 189360, Note_on_c, 14, 42, 90
20, 189419, Note_on_c, 14, 42, 0
20, 189420, Note_on_c, 14, 54, 90
20, 189449, Note_on_c, 14, 54, 0
20, 189450, Note_on_c, 14, 52, 90
20, 189479, Note_on_c, 14, 52, 0
20, 189480, Note_on_c, 14, 50, 90
20, 189509, Note_on_c, 14, 50, 0
20, 189510, Note_on_c, 14, 49, 90
20, 189539, Note_on_c, 14, 49, 0
20, 189540, Note_on_c, 14, 47, 90
20, 189599, Note_on_c, 14, 47, 0
20, 189600, Note_on_c, 14, 47, 90
20, 189659, Note_on_c, 14, 47, 0
20, 189660, Note_on_c, 14, 47, 90
20, 189719, Note_on_c, 14, 47, 0
20, 189720, Note_on_c, 14, 49, 90
20, 189749, Note_on_c, 14, 49, 0
20, 189750, Note_on_c, 14, 50, 90
20, 189779, Note_on_c, 14, 50, 0
20, 189780, Note_on_c, 14, 52, 90
20, 189839, Note_on_c, 14, 52, 0
20, 189840, Note_on_c, 14, 40, 90
20, 189899, Note_on_c, 14, 40, 0
20, 189900, Note_on_c, 14, 52, 90
20, 189929, Note_on_c, 14, 52, 0
20, 189930, Note_on_c, 14, 50, 90
20, 189959, Note_on_c, 14, 50, 0
20, 189960, Note_on_c, 14, 49, 90
20, 189989, Note_on_c, 14, 49, 0
20, 189990, Note_on_c, 14, 47, 90
20, 190019, Note_on_c, 14, 47, 0
20, 190020, Note_on_c, 14, 45, 90
20, 190079, Note_on_c, 14, 45, 0
20, 190080, Note_on_c, 14, 57, 90
20, 190139, Note_on_c, 14, 57, 0
20, 190140, Note_on_c, 14, 57, 90
20, 190199, Note_on_c, 14, 57, 0
20, 190200, Note_on_c, 14, 45, 90
20, 190259, Note_on_c, 14, 45, 0
20, 190260, Note_on_c, 14, 45, 90
20, 190319, Note_on_c, 14, 45, 0
20, 190320, Note_on_c, 14, 57, 90
20, 190379, Note_on_c, 14, 57, 0
20, 190380, Note_on_c, 14, 57, 90
20, 190439, Note_on_c, 14, 57, 0
20, 190440, Note_on_c, 14, 45, 90
20, 190499, Note_on_c, 14, 45, 0
20, 190500, Note_on_c, 14, 45, 90
20, 190559, Note_on_c, 14, 45, 0
20, 190560, Note_on_c, 14, 57, 90
20, 190619, Note_on_c, 14, 57, 0
20, 190620, Note_on_c, 14, 57, 90
20, 190679, Note_on_c, 14, 57, 0
20, 190680, Note_on_c, 14, 45, 90
20, 190739, Note_on_c, 14, 45, 0
20, 190740, Note_on_c, 14, 45, 90
20, 190799, Note_on_c, 14, 45, 0
20, 190800, Note_on_c, 14, 57, 90
20, 190859, Note_on_c, 14, 57, 0
20, 190860, Note_on_c, 14, 57, 90
20, 190919, Note_on_c, 14, 57, 0
20, 190920, Note_on_c, 14, 49, 90
20, 190979, Note_on_c, 14, 49, 0
20, 190980, Note_on_c, 14, 50, 90
20, 191039, Note_on_c, 14, 50, 0
20, 191040, Note_on_c, 14, 54, 90
20, 191099, Note_on_c, 14, 54, 0
20, 191100, Note_on_c, 14, 59, 90
20, 191159, Note_on_c, 14, 59, 0
20, 191160, Note_on_c, 14, 47, 90
20, 191219, Note_on_c, 14, 47, 0
20, 191220, Note_on_c, 14, 49, 90
20, 191279, Note_on_c, 14, 49, 0
20, 191280, Note_on_c, 14, 57, 90
20, 191339, Note_on_c, 14, 57, 0
20, 191340, Note_on_c, 14, 55, 90
20, 191399, Note_on_c, 14, 55, 0
20, 191400, Note_on_c, 14, 54, 90
20, 191459, Note_on_c, 14, 54, 0
20, 191460, Note_on_c, 14, 52, 90
20, 191489, Note_on_c, 14, 52, 0
20, 191490, Note_on_c, 14, 54, 90
20, 191519, Note_on_c, 14, 54, 0
20, 191520, Note_on_c, 14, 55, 90
20, 191549, Note_on_c, 14, 55, 0
20, 191550, Note_on_c, 14, 54, 90
20, 191579, Note_on_c, 14, 54, 0
20, 191580, Note_on_c, 14, 52, 90
20, 191609, Note_on_c, 14, 52, 0
20, 191610, Note_on_c, 14, 50, 90
20, 191639, Note_on_c, 14, 50, 0
20, 191640, Note_on_c, 14, 49, 90
20, 191669, Note_on_c, 14, 49, 0
20, 191670, Note_on_c, 14, 47, 90
20, 191699, Note_on_c, 14, 47, 0
20, 191700, Note_on_c, 14, 49, 90
20, 191759, Note_on_c, 14, 49, 0
20, 191760, Note_on_c, 14, 45, 90
20, 191819, Note_on_c, 14, 45, 0
20, 191820, Note_on_c, 14, 47, 90
20, 191879, Note_on_c, 14, 47, 0
20, 191880, Note_on_c, 14, 49, 90
20, 191939, Note_on_c, 14, 49, 0
20, 191940, Note_on_c, 14, 50, 90
20, 191999, Note_on_c, 14, 50, 0
20, 192000, Note_on_c, 14, 47, 90
20, 192059, Note_on_c, 14, 47, 0
20, 192060, Note_on_c, 14, 43, 90
20, 192119, Note_on_c, 14, 43, 0
20, 192120, Note_on_c, 14, 45, 90
20, 192179, Note_on_c, 14, 45, 0
20, 192180, Note_on_c, 14, 50, 90
20, 192239, Note_on_c, 14, 50, 0
20, 192240, Note_on_c, 14, 38, 90
20, 192299, Note_on_c, 14, 38, 0
20, 192300, Note_on_c, 14, 38, 90
20, 192359, Note_on_c, 14, 38, 0
20, 192360, Note_on_c, 14, 50, 90
20, 192419, Note_on_c, 14, 50, 0
20, 192420, Note_on_c, 14, 50, 90
20, 192479, Note_on_c, 14, 50, 0
20, 192480, Note_on_c, 14, 38, 90
20, 192539, Note_on_c, 14, 38, 0
20, 192540, Note_on_c, 14, 38, 90
20, 192599, Note_on_c, 14, 38, 0
20, 192600, Note_on_c, 14, 50, 90
20, 192659, Note_on_c, 14, 50, 0
20, 192660, Note_on_c, 14, 50, 90
20, 192719, Note_on_c, 14, 50, 0
20, 192720, Note_on_c, 14, 62, 90
20, 192779, Note_on_c, 14, 62, 0
20, 192780, Note_on_c, 14, 60, 90
20, 192839, Note_on_c, 14, 60, 0
20, 192840, Note_on_c, 14, 59, 90
20, 192899, Note_on_c, 14, 59, 0
20, 192900, Note_on_c, 14, 57, 90
20, 192959, Note_on_c, 14, 57, 0
20, 192960, Note_on_c, 14, 55, 90
20, 193019, Note_on_c, 14, 55, 0
20, 193020, Note_on_c, 14, 54, 90
20, 193079, Note_on_c, 14, 54, 0
20, 193080, Note_on_c, 14, 50, 90
20, 193139, Note_on_c, 14, 50, 0
20, 193140, Note_on_c, 14, 55, 90
20, 193199, Note_on_c, 14, 55, 0
20, 193260, Note_on_c, 14, 54, 90
20, 193319, Note_on_c, 14, 54, 0
20, 193380, Note_on_c, 14, 52, 90
20, 193439, Note_on_c, 14, 52, 0
20, 193440, Note_on_c, 14, 40, 90
20, 193499, Note_on_c, 14, 40, 0
20, 193500, Note_on_c, 14, 40, 90
20, 193559, Note_on_c, 14, 40, 0
20, 193560, Note_on_c, 14, 52, 90
20, 193679, Note_on_c, 14, 52, 0
20, 193680, Note_on_c, 14, 64, 90
20, 193739, Note_on_c, 14, 64, 0
20, 193740, Note_on_c, 14, 62, 90
20, 193799, Note_on_c, 14, 62, 0
20, 193800, Note_on_c, 14, 61, 90
20, 193859, Note_on_c, 14, 61, 0
20, 193860, Note_on_c, 14, 59, 90
20, 193919, Note_on_c, 14, 59, 0
20, 193920, Note_on_c, 14, 57, 90
20, 193979, Note_on_c, 14, 57, 0
20, 193980, Note_on_c, 14, 56, 90
20, 194039, Note_on_c, 14, 56, 0
20, 194040, Note_on_c, 14, 52, 90
20, 194099, Note_on_c, 14, 52, 0
20, 194100, Note_on_c, 14, 57, 90
20, 194159, Note_on_c, 14, 57, 0
20, 194220, Note_on_c, 14, 55, 90
20, 194279, Note_on_c, 14, 55, 0
20, 194340, Note_on_c, 14, 54, 90
20, 194399, Note_on_c, 14, 54, 0
20, 194460, Note_on_c, 14, 50, 90
20, 194519, Note_on_c, 14, 50, 0
20, 194580, Note_on_c, 14, 49, 90
20, 194639, Note_on_c, 14, 49, 0
20, 194700, Note_on_c, 14, 45, 90
20, 194759, Note_on_c, 14, 45, 0
20, 194820, Note_on_c, 14, 42, 90
20, 194879, Note_on_c, 14, 42, 0
20, 194880, Note_on_c, 14, 47, 90
20, 194939, Note_on_c, 14, 47, 0
20, 194940, Note_on_c, 14, 43, 90
20, 194999, Note_on_c, 14, 43, 0
20, 195000, Note_on_c, 14, 45, 90
20, 195059, Note_on_c, 14, 45, 0
20, 195060, Note_on_c, 14, 47, 90
20, 195119, Note_on_c, 14, 47, 0
20, 195120, Note_on_c, 14, 47, 90
20, 195179, Note_on_c, 14, 47, 0
20, 195180, Note_on_c, 14, 47, 90
20, 195239, Note_on_c, 14, 47, 0
20, 195240, Note_on_c, 14, 45, 90
20, 195299, Note_on_c, 14, 45, 0
20, 195300, Note_on_c, 14, 44, 90
20, 195359, Note_on_c, 14, 44, 0
20, 195420, Note_on_c, 14, 47, 90
20, 195479, Note_on_c, 14, 47, 0
20, 195540, Note_on_c, 14, 52, 90
20, 195599, Note_on_c, 14, 52, 0
20, 195660, Note_on_c, 14, 55, 90
20, 195719, Note_on_c, 14, 55, 0
20, 195840, Note_on_c, 14, 42, 90
20, 195899, Note_on_c, 14, 42, 0
20, 195900, Note_on_c, 14, 43, 90
20, 195959, Note_on_c, 14, 43, 0
20, 195960, Note_on_c, 14, 45, 90
20, 196019, Note_on_c, 14, 45, 0
20, 196020, Note_on_c, 14, 38, 90
20, 196079, Note_on_c, 14, 38, 0
20, 196080, Note_on_c, 14, 62, 90
20, 196139, Note_on_c, 14, 62, 0
20, 196140, Note_on_c, 14, 61, 90
20, 196199, Note_on_c, 14, 61, 0
20, 196200, Note_on_c, 14, 59, 90
20, 196259, Note_on_c, 14, 59, 0
20, 196260, Note_on_c, 14, 57, 90
20, 196319, Note_on_c, 14, 57, 0
20, 196320, Note_on_c, 14, 45, 90
20, 196379, Note_on_c, 14, 45, 0
20, 196380, Note_on_c, 14, 45, 90
20, 196439, Note_on_c, 14, 45, 0
20, 196440, Note_on_c, 14, 57, 90
20, 196499, Note_on_c, 14, 57, 0
20, 196500, Note_on_c, 14, 57, 90
20, 196559, Note_on_c, 14, 57, 0
20, 196560, Note_on_c, 14, 45, 90
20, 196619, Note_on_c, 14, 45, 0
20, 196620, Note_on_c, 14, 45, 90
20, 196679, Note_on_c, 14, 45, 0
20, 196680, Note_on_c, 14, 43, 90
20, 196739, Note_on_c, 14, 43, 0
20, 196740, Note_on_c, 14, 42, 90
20, 196799, Note_on_c, 14, 42, 0
20, 196800, Note_on_c, 14, 47, 90
20, 196859, Note_on_c, 14, 47, 0
20, 196860, Note_on_c, 14, 40, 90
20, 196919, Note_on_c, 14, 40, 0
20, 196920, Note_on_c, 14, 45, 90
20, 196979, Note_on_c, 14, 45, 0
20, 196980, Note_on_c, 14, 38, 90
20, 197039, Note_on_c, 14, 38, 0
20, 197040, Note_on_c, 14, 50, 90
20, 197099, Note_on_c, 14, 50, 0
20, 197100, Note_on_c, 14, 54, 90
20, 197159, Note_on_c, 14, 54, 0
20, 197160, Note_on_c, 14, 57, 90
20, 197219, Note_on_c, 14, 57, 0
20, 197220, Note_on_c, 14, 60, 90
20, 197279, Note_on_c, 14, 60, 0
20, 197280, Note_on_c, 14, 57, 90
20, 197339, Note_on_c, 14, 57, 0
20, 197340, Note_on_c, 14, 54, 90
20, 197399, Note_on_c, 14, 54, 0
20, 197400, Note_on_c, 14, 50, 90
20, 197459, Note_on_c, 14, 50, 0
20, 197460, Note_on_c, 14, 45, 90
20, 197519, Note_on_c, 14, 45, 0
20, 197520, Note_on_c, 14, 42, 90
20, 197579, Note_on_c, 14, 42, 0
20, 197580, Note_on_c, 14, 38, 90
20, 197639, Note_on_c, 14, 38, 0
20, 197640, Note_on_c, 14, 50, 90
20, 197699, Note_on_c, 14, 50, 0
20, 197700, Note_on_c, 14, 52, 90
20, 197759, Note_on_c, 14, 52, 0
20, 197760, Note_on_c, 14, 47, 90
20, 197819, Note_on_c, 14, 47, 0
20, 197820, Note_on_c, 14, 48, 90
20, 197879, Note_on_c, 14, 48, 0
20, 197880, Note_on_c, 14, 50, 90
20, 197939, Note_on_c, 14, 50, 0
20, 197940, Note_on_c, 14, 55, 90
20, 197999, Note_on_c, 14, 55, 0
20, 198000, Note_on_c, 14, 57, 90
20, 198059, Note_on_c, 14, 57, 0
20, 198060, Note_on_c, 14, 59, 90
20, 198119, Note_on_c, 14, 59, 0
20, 198120, Note_on_c, 14, 64, 90
20, 198179, Note_on_c, 14, 64, 0
20, 198180, Note_on_c, 14, 54, 90
20, 198239, Note_on_c, 14, 54, 0
20, 198240, Note_on_c, 14, 64, 90
20, 198299, Note_on_c, 14, 64, 0
20, 198300, Note_on_c, 14, 63, 90
20, 198359, Note_on_c, 14, 63, 0
20, 198360, Note_on_c, 14, 59, 90
20, 198419, Note_on_c, 14, 59, 0
20, 198420, Note_on_c, 14, 52, 90
20, 198479, Note_on_c, 14, 52, 0
20, 198480, Note_on_c, 14, 62, 90
20, 198539, Note_on_c, 14, 62, 0
20, 198540, Note_on_c, 14, 61, 90
20, 198599, Note_on_c, 14, 61, 0
20, 198600, Note_on_c, 14, 57, 90
20, 198659, Note_on_c, 14, 57, 0
20, 198660, Note_on_c, 14, 50, 90
20, 198719, Note_on_c, 14, 50, 0
20, 198720, Note_on_c, 14, 54, 90
20, 198779, Note_on_c, 14, 54, 0
20, 198780, Note_on_c, 14, 55, 90
20, 198839, Note_on_c, 14, 55, 0
20, 198840, Note_on_c, 14, 52, 90
20, 198899, Note_on_c, 14, 52, 0
20, 198900, Note_on_c, 14, 57, 90
20, 198959, Note_on_c, 14, 57, 0
20, 198960, Note_on_c, 14, 55, 90
20, 199019, Note_on_c, 14, 55, 0
20, 199020, Note_on_c, 14, 54, 90
20, 199079, Note_on_c, 14, 54, 0
20, 199080, Note_on_c, 14, 52, 90
20, 199139, Note_on_c, 14, 52, 0
20, 199140, Note_on_c, 14, 50, 90
20, 199199, Note_on_c, 14, 50, 0
20, 199200, Note_on_c, 14, 42, 90
20, 199259, Note_on_c, 14, 42, 0
20, 199260, Note_on_c, 14, 43, 90
20, 199319, Note_on_c, 14, 43, 0
20, 199320, Note_on_c, 14, 45, 90
20, 199379, Note_on_c, 14, 45, 0
20, 199380, Note_on_c, 14, 38, 90
20, 199619, Note_on_c, 14, 38, 0
20, 199980, Note_on_c, 14, 50, 90
20, 200099, Note_on_c, 14, 50, 0
20, 200100, Note_on_c, 14, 57, 90
20, 200279, Note_on_c, 14, 57, 0
20, 200280, Note_on_c, 14, 56, 90
20, 200339, Note_on_c, 14, 56, 0
20, 200340, Note_on_c, 14, 57, 90
20, 200399, Note_on_c, 14, 57, 0
20, 200400, Note_on_c, 14, 55, 90
20, 200459, Note_on_c, 14, 55, 0
20, 200460, Note_on_c, 14, 54, 90
20, 200579, Note_on_c, 14, 54, 0
20, 200580, Note_on_c, 14, 55, 90
20, 200639, Note_on_c, 14, 55, 0
20, 200640, Note_on_c, 14, 54, 90
20, 200699, Note_on_c, 14, 54, 0
20, 200700, Note_on_c, 14, 52, 90
20, 200819, Note_on_c, 14, 52, 0
20, 200820, Note_on_c, 14, 50, 90
20, 200879, Note_on_c, 14, 50, 0
20, 200880, Note_on_c, 14, 62, 90
20, 200939, Note_on_c, 14, 62, 0
20, 200970, Note_on_c, 14, 50, 90
20, 200999, Note_on_c, 14, 50, 0
20, 201000, Note_on_c, 14, 54, 90
20, 201029, Note_on_c, 14, 54, 0
20, 201030, Note_on_c, 14, 50, 90
20, 201059, Note_on_c, 14, 50, 0
20, 201060, Note_on_c, 14, 47, 90
20, 201119, Note_on_c, 14, 47, 0
20, 201120, Note_on_c, 14, 59, 90
20, 201179, Note_on_c, 14, 59, 0
20, 201210, Note_on_c, 14, 47, 90
20, 201239, Note_on_c, 14, 47, 0
20, 201240, Note_on_c, 14, 50, 90
20, 201269, Note_on_c, 14, 50, 0
20, 201270, Note_on_c, 14, 47, 90
20, 201299, Note_on_c, 14, 47, 0
20, 201300, Note_on_c, 14, 43, 90
20, 201359, Note_on_c, 14, 43, 0
20, 201360, Note_on_c, 14, 55, 90
20, 201419, Note_on_c, 14, 55, 0
20, 201420, Note_on_c, 14, 57, 90
20, 201479, Note_on_c, 14, 57, 0
20, 201480, Note_on_c, 14, 45, 90
20, 201539, Note_on_c, 14, 45, 0
20, 201540, Note_on_c, 14, 50, 90
20, 201599, Note_on_c, 14, 50, 0
20, 201600, Note_on_c, 14, 38, 90
20, 201659, Note_on_c, 14, 38, 0
20, 201660, Note_on_c, 14, 50, 90
20, 201719, Note_on_c, 14, 50, 0
20, 201720, Note_on_c, 14, 52, 90
20, 201779, Note_on_c, 14, 52, 0
20, 201780, Note_on_c, 14, 54, 90
20, 201839, Note_on_c, 14, 54, 0
20, 201840, Note_on_c, 14, 42, 90
20, 201899, Note_on_c, 14, 42, 0
20, 201900, Note_on_c, 14, 54, 90
20, 201959, Note_on_c, 14, 54, 0
20, 201960, Note_on_c, 14, 55, 90
20, 202019, Note_on_c, 14, 55, 0
20, 202020, Note_on_c, 14, 57, 90
20, 202079, Note_on_c, 14, 57, 0
20, 202080, Note_on_c, 14, 45, 90
20, 202139, Note_on_c, 14, 45, 0
20, 202140, Note_on_c, 14, 57, 90
20, 202199, Note_on_c, 14, 57, 0
20, 202200, Note_on_c, 14, 55, 90
20, 202259, Note_on_c, 14, 55, 0
20, 202260, Note_on_c, 14, 54, 90
20, 202319, Note_on_c, 14, 54, 0
20, 202320, Note_on_c, 14, 52, 90
20, 202379, Note_on_c, 14, 52, 0
20, 202380, Note_on_c, 14, 50, 90
20, 202439, Note_on_c, 14, 50, 0
20, 202440, Note_on_c, 14, 49, 90
20, 202499, Note_on_c, 14, 49, 0
20, 202500, Note_on_c, 14, 50, 90
20, 202559, Note_on_c, 14, 50, 0
20, 202560, Note_on_c, 14, 62, 90
20, 202619, Note_on_c, 14, 62, 0
20, 202650, Note_on_c, 14, 50, 90
20, 202679, Note_on_c, 14, 50, 0
20, 202680, Note_on_c, 14, 54, 90
20, 202709, Note_on_c, 14, 54, 0
20, 202710, Note_on_c, 14, 50, 90
20, 202739, Note_on_c, 14, 50, 0
20, 202740, Note_on_c, 14, 47, 90
20, 202799, Note_on_c, 14, 47, 0
20, 202800, Note_on_c, 14, 59, 90
20, 202859, Note_on_c, 14, 59, 0
20, 202890, Note_on_c, 14, 47, 90
20, 202919, Note_on_c, 14, 47, 0
20, 202920, Note_on_c, 14, 50, 90
20, 202949, Note_on_c, 14, 50, 0
20, 202950, Note_on_c, 14, 47, 90
20, 202979, Note_on_c, 14, 47, 0
20, 202980, Note_on_c, 14, 43, 90
20, 203039, Note_on_c, 14, 43, 0
20, 203040, Note_on_c, 14, 55, 90
20, 203099, Note_on_c, 14, 55, 0
20, 203100, Note_on_c, 14, 57, 90
20, 203159, Note_on_c, 14, 57, 0
20, 203160, Note_on_c, 14, 45, 90
20, 203219, Note_on_c, 14, 45, 0
20, 203220, Note_on_c, 14, 50, 90
20, 203279, Note_on_c, 14, 50, 0
20, 203280, Note_on_c, 14, 38, 90
20, 203339, Note_on_c, 14, 38, 0
20, 203340, Note_on_c, 14, 50, 90
20, 203399, Note_on_c, 14, 50, 0
20, 203400, Note_on_c, 14, 49, 90
20, 203459, Note_on_c, 14, 49, 0
20, 203460, Note_on_c, 14, 51, 90
20, 203519, Note_on_c, 14, 51, 0
20, 203520, Note_on_c, 14, 47, 90
20, 203579, Note_on_c, 14, 47, 0
20, 203580, Note_on_c, 14, 52, 90
20, 203639, Note_on_c, 14, 52, 0
20, 203640, Note_on_c, 14, 50, 90
20, 203699, Note_on_c, 14, 50, 0
20, 203700, Note_on_c, 14, 49, 90
20, 203759, Note_on_c, 14, 49, 0
20, 203760, Note_on_c, 14, 47, 90
20, 203819, Note_on_c, 14, 47, 0
20, 203820, Note_on_c, 14, 45, 90
20, 203879, Note_on_c, 14, 45, 0
20, 203880, Note_on_c, 14, 44, 90
20, 203939, Note_on_c, 14, 44, 0
20, 203940, Note_on_c, 14, 42, 90
20, 203999, Note_on_c, 14, 42, 0
20, 204000, Note_on_c, 14, 40, 90
20, 204059, Note_on_c, 14, 40, 0
20, 204060, Note_on_c, 14, 38, 90
20, 204119, Note_on_c, 14, 38, 0
20, 204120, Note_on_c, 14, 40, 90
20, 204179, Note_on_c, 14, 40, 0
20, 204180, Note_on_c, 14, 45, 90
20, 204239, Note_on_c, 14, 45, 0
20, 204240, Note_on_c, 14, 57, 90
20, 204299, Note_on_c, 14, 57, 0
20, 204330, Note_on_c, 14, 45, 90
20, 204359, Note_on_c, 14, 45, 0
20, 204360, Note_on_c, 14, 49, 90
20, 204389, Note_on_c, 14, 49, 0
20, 204390, Note_on_c, 14, 45, 90
20, 204419, Note_on_c, 14, 45, 0
20, 204420, Note_on_c, 14, 42, 90
20, 204479, Note_on_c, 14, 42, 0
20, 204480, Note_on_c, 14, 54, 90
20, 204539, Note_on_c, 14, 54, 0
20, 204570, Note_on_c, 14, 42, 90
20, 204599, Note_on_c, 14, 42, 0
20, 204600, Note_on_c, 14, 45, 90
20, 204629, Note_on_c, 14, 45, 0
20, 204630, Note_on_c, 14, 42, 90
20, 204659, Note_on_c, 14, 42, 0
20, 204660, Note_on_c, 14, 38, 90
20, 204719, Note_on_c, 14, 38, 0
20, 204720, Note_on_c, 14, 50, 90
20, 204779, Note_on_c, 14, 50, 0
20, 204780, Note_on_c, 14, 52, 90
20, 204839, Note_on_c, 14, 52, 0
20, 204840, Note_on_c, 14, 40, 90
20, 204899, Note_on_c, 14, 40, 0
20, 204900, Note_on_c, 14, 45, 90
20, 204959, Note_on_c, 14, 45, 0
20, 204960, Note_on_c, 14, 57, 90
20, 205079, Note_on_c, 14, 57, 0
20, 205080, Note_on_c, 14, 56, 90
20, 205139, Note_on_c, 14, 56, 0
20, 205140, Note_on_c, 14, 57, 90
20, 205199, Note_on_c, 14, 57, 0
20, 205200, Note_on_c, 14, 54, 90
20, 205259, Note_on_c, 14, 54, 0
20, 205260, Note_on_c, 14, 50, 90
20, 205319, Note_on_c, 14, 50, 0
20, 205320, Note_on_c, 14, 55, 90
20, 205439, Note_on_c, 14, 55, 0
20, 205440, Note_on_c, 14, 54, 90
20, 205499, Note_on_c, 14, 54, 0
20, 205500, Note_on_c, 14, 55, 90
20, 205559, Note_on_c, 14, 55, 0
20, 205560, Note_on_c, 14, 57, 90
20, 205619, Note_on_c, 14, 57, 0
20, 205620, Note_on_c, 14, 59, 90
20, 205679, Note_on_c, 14, 59, 0
20, 205680, Note_on_c, 14, 55, 90
20, 205739, Note_on_c, 14, 55, 0
20, 205740, Note_on_c, 14, 57, 90
20, 205799, Note_on_c, 14, 57, 0
20, 205800, Note_on_c, 14, 45, 90
20, 205859, Note_on_c, 14, 45, 0
20, 205860, Note_on_c, 14, 50, 90
20, 205919, Note_on_c, 14, 50, 0
20, 205920, Note_on_c, 14, 62, 90
20, 205979, Note_on_c, 14, 62, 0
20, 206010, Note_on_c, 14, 50, 90
20, 206039, Note_on_c, 14, 50, 0
20, 206040, Note_on_c, 14, 54, 90
20, 206069, Note_on_c, 14, 54, 0
20, 206070, Note_on_c, 14, 50, 90
20, 206099, Note_on_c, 14, 50, 0
20, 206100, Note_on_c, 14, 47, 90
20, 206159, Note_on_c, 14, 47, 0
20, 206160, Note_on_c, 14, 59, 90
20, 206219, Note_on_c, 14, 59, 0
20, 206250, Note_on_c, 14, 47, 90
20, 206279, Note_on_c, 14, 47, 0
20, 206280, Note_on_c, 14, 50, 90
20, 206309, Note_on_c, 14, 50, 0
20, 206310, Note_on_c, 14, 47, 90
20, 206339, Note_on_c, 14, 47, 0
20, 206340, Note_on_c, 14, 43, 90
20, 206399, Note_on_c, 14, 43, 0
20, 206400, Note_on_c, 14, 55, 90
20, 206459, Note_on_c, 14, 55, 0
20, 206460, Note_on_c, 14, 57, 90
20, 206519, Note_on_c, 14, 57, 0
20, 206520, Note_on_c, 14, 45, 90
20, 206579, Note_on_c, 14, 45, 0
20, 206580, Note_on_c, 14, 47, 90
20, 206699, Note_on_c, 14, 47, 0
20, 206760, Note_on_c, 14, 59, 90
20, 206819, Note_on_c, 14, 59, 0
20, 206820, Note_on_c, 14, 57, 90
20, 206879, Note_on_c, 14, 57, 0
20, 206880, Note_on_c, 14, 55, 90
20, 206939, Note_on_c, 14, 55, 0
20, 206940, Note_on_c, 14, 57, 90
20, 206999, Note_on_c, 14, 57, 0
20, 207000, Note_on_c, 14, 45, 90
20, 207059, Note_on_c, 14, 45, 0
20, 207060, Note_on_c, 14, 38, 90
20, 207180, Note_on_c, 14, 38, 0
20, 207180, End_track
21, 0, Start_track
21, 0, MIDI_port, 0
21, 0, Title_t, "Continuo"
21, 0, Program_c, 15, 42
21, 0, Note_on_c, 15, 38, 90
21, 59, Note_on_c, 15, 38, 0
21, 360, Note_on_c, 15, 38, 90
21, 419, Note_on_c, 15, 38, 0
21, 720, Note_on_c, 15, 38, 90
21, 779, Note_on_c, 15, 38, 0
21, 1080, Note_on_c, 15, 38, 90
21, 1095, Control_c, 15, 0, 40
21, 1095, Control_c, 15, 0, 40
21, 1095, Program_c, 15, 42
21, 1095, Note_on_c, 15, 62, 90
21, 1109, Note_on_c, 15, 62, 0
21, 1110, Note_on_c, 15, 61, 90
21, 1124, Note_on_c, 15, 61, 0
21, 1125, Note_on_c, 15, 59, 90
21, 1139, Note_on_c, 15, 59, 0
21, 1139, Note_on_c, 15, 38, 0
21, 1140, Note_on_c, 15, 57, 90
21, 1154, Note_on_c, 15, 57, 0
21, 1155, Note_on_c, 15, 62, 90
21, 1169, Note_on_c, 15, 62, 0
21, 1170, Note_on_c, 15, 61, 90
21, 1184, Note_on_c, 15, 61, 0
21, 1185, Note_on_c, 15, 59, 90
21, 1199, Note_on_c, 15, 59, 0
21, 1200, Note_on_c, 15, 57, 90
21, 1214, Note_on_c, 15, 57, 0
21, 1215, Note_on_c, 15, 55, 90
21, 1229, Note_on_c, 15, 55, 0
21, 1230, Note_on_c, 15, 54, 90
21, 1244, Note_on_c, 15, 54, 0
21, 1245, Note_on_c, 15, 52, 90
21, 1259, Note_on_c, 15, 52, 0
21, 1260, Note_on_c, 15, 50, 90
21, 1274, Note_on_c, 15, 50, 0
21, 1275, Control_c, 15, 0, 101
21, 1275, Control_c, 15, 0, 101
21, 1275, Program_c, 15, 42
21, 1275, Note_on_c, 15, 50, 90
21, 1289, Note_on_c, 15, 50, 0
21, 1290, Note_on_c, 15, 49, 90
21, 1304, Note_on_c, 15, 49, 0
21, 1305, Note_on_c, 15, 47, 90
21, 1319, Note_on_c, 15, 47, 0
21, 1320, Note_on_c, 15, 45, 90
21, 1334, Note_on_c, 15, 45, 0
21, 1335, Note_on_c, 15, 50, 90
21, 1349, Note_on_c, 15, 50, 0
21, 1350, Note_on_c, 15, 49, 90
21, 1364, Note_on_c, 15, 49, 0
21, 1365, Note_on_c, 15, 47, 90
21, 1379, Note_on_c, 15, 47, 0
21, 1380, Note_on_c, 15, 45, 90
21, 1394, Note_on_c, 15, 45, 0
21, 1395, Note_on_c, 15, 43, 90
21, 1409, Note_on_c, 15, 43, 0
21, 1410, Note_on_c, 15, 42, 90
21, 1424, Note_on_c, 15, 42, 0
21, 1425, Note_on_c, 15, 40, 90
21, 1439, Note_on_c, 15, 40, 0
21, 1440, Note_on_c, 15, 38, 90
21, 1499, Note_on_c, 15, 38, 0
21, 1500, Note_on_c, 15, 42, 90
21, 1559, Note_on_c, 15, 42, 0
21, 1560, Note_on_c, 15, 38, 90
21, 1619, Note_on_c, 15, 38, 0
21, 1620, Note_on_c, 15, 45, 90
21, 1679, Note_on_c, 15, 45, 0
21, 1800, Note_on_c, 15, 45, 90
21, 1859, Note_on_c, 15, 45, 0
21, 1860, Note_on_c, 15, 49, 90
21, 1919, Note_on_c, 15, 49, 0
21, 1920, Note_on_c, 15, 45, 90
21, 1979, Note_on_c, 15, 45, 0
21, 1980, Note_on_c, 15, 50, 90
21, 2039, Note_on_c, 15, 50, 0
21, 2160, Note_on_c, 15, 50, 90
21, 2189, Note_on_c, 15, 50, 0
21, 2190, Note_on_c, 15, 52, 90
21, 2219, Note_on_c, 15, 52, 0
21, 2220, Note_on_c, 15, 54, 90
21, 2249, Note_on_c, 15, 54, 0
21, 2250, Note_on_c, 15, 52, 90
21, 2279, Note_on_c, 15, 52, 0
21, 2280, Note_on_c, 15, 54, 90
21, 2309, Note_on_c, 15, 54, 0
21, 2310, Note_on_c, 15, 50, 90
21, 2339, Note_on_c, 15, 50, 0
21, 2340, Note_on_c, 15, 55, 90
21, 2369, Note_on_c, 15, 55, 0
21, 2370, Note_on_c, 15, 57, 90
21, 2399, Note_on_c, 15, 57, 0
21, 2400, Note_on_c, 15, 54, 90
21, 2429, Note_on_c, 15, 54, 0
21, 2430, Note_on_c, 15, 55, 90
21, 2459, Note_on_c, 15, 55, 0
21, 2460, Note_on_c, 15, 52, 90
21, 2489, Note_on_c, 15, 52, 0
21, 2490, Note_on_c, 15, 54, 90
21, 2519, Note_on_c, 15, 54, 0
21, 2520, Note_on_c, 15, 50, 90
21, 2549, Note_on_c, 15, 50, 0
21, 2550, Note_on_c, 15, 62, 90
21, 2579, Note_on_c, 15, 62, 0
21, 2580, Note_on_c, 15, 61, 90
21, 2609, Note_on_c, 15, 61, 0
21, 2610, Note_on_c, 15, 62, 90
21, 2639, Note_on_c, 15, 62, 0
21, 2640, Note_on_c, 15, 59, 90
21, 2669, Note_on_c, 15, 59, 0
21, 2670, Note_on_c, 15, 61, 90
21, 2699, Note_on_c, 15, 61, 0
21, 2700, Note_on_c, 15, 57, 90
21, 2729, Note_on_c, 15, 57, 0
21, 2730, Note_on_c, 15, 55, 90
21, 2759, Note_on_c, 15, 55, 0
21, 2760, Note_on_c, 15, 57, 90
21, 2789, Note_on_c, 15, 57, 0
21, 2790, Note_on_c, 15, 59, 90
21, 2819, Note_on_c, 15, 59, 0
21, 2820, Note_on_c, 15, 55, 90
21, 2849, Note_on_c, 15, 55, 0
21, 2850, Note_on_c, 15, 57, 90
21, 2879, Note_on_c, 15, 57, 0
21, 2880, Note_on_c, 15, 54, 90
21, 2909, Note_on_c, 15, 54, 0
21, 2910, Note_on_c, 15, 52, 90
21, 2939, Note_on_c, 15, 52, 0
21, 2940, Note_on_c, 15, 54, 90
21, 2969, Note_on_c, 15, 54, 0
21, 2970, Note_on_c, 15, 55, 90
21, 2999, Note_on_c, 15, 55, 0
21, 3000, Note_on_c, 15, 52, 90
21, 3029, Note_on_c, 15, 52, 0
21, 3030, Note_on_c, 15, 54, 90
21, 3059, Note_on_c, 15, 54, 0
21, 3060, Note_on_c, 15, 51, 90
21, 3089, Note_on_c, 15, 51, 0
21, 3090, Note_on_c, 15, 60, 90
21, 3119, Note_on_c, 15, 60, 0
21, 3120, Note_on_c, 15, 59, 90
21, 3149, Note_on_c, 15, 59, 0
21, 3150, Note_on_c, 15, 60, 90
21, 3179, Note_on_c, 15, 60, 0
21, 3180, Note_on_c, 15, 57, 90
21, 3209, Note_on_c, 15, 57, 0
21, 3210, Note_on_c, 15, 59, 90
21, 3239, Note_on_c, 15, 59, 0
21, 3240, Note_on_c, 15, 55, 90
21, 3269, Note_on_c, 15, 55, 0
21, 3270, Note_on_c, 15, 54, 90
21, 3299, Note_on_c, 15, 54, 0
21, 3300, Note_on_c, 15, 55, 90
21, 3329, Note_on_c, 15, 55, 0
21, 3330, Note_on_c, 15, 57, 90
21, 3359, Note_on_c, 15, 57, 0
21, 3360, Note_on_c, 15, 54, 90
21, 3389, Note_on_c, 15, 54, 0
21, 3390, Note_on_c, 15, 55, 90
21, 3419, Note_on_c, 15, 55, 0
21, 3420, Note_on_c, 15, 52, 90
21, 3449, Note_on_c, 15, 52, 0
21, 3450, Note_on_c, 15, 51, 90
21, 3479, Note_on_c, 15, 51, 0
21, 3480, Note_on_c, 15, 52, 90
21, 3509, Note_on_c, 15, 52, 0
21, 3510, Note_on_c, 15, 54, 90
21, 3539, Note_on_c, 15, 54, 0
21, 3540, Note_on_c, 15, 50, 90
21, 3569, Note_on_c, 15, 50, 0
21, 3570, Note_on_c, 15, 52, 90
21, 3599, Note_on_c, 15, 52, 0
21, 3600, Note_on_c, 15, 49, 90
21, 3629, Note_on_c, 15, 49, 0
21, 3630, Note_on_c, 15, 47, 90
21, 3659, Note_on_c, 15, 47, 0
21, 3660, Note_on_c, 15, 49, 90
21, 3689, Note_on_c, 15, 49, 0
21, 3690, Note_on_c, 15, 50, 90
21, 3719, Note_on_c, 15, 50, 0
21, 3720, Note_on_c, 15, 47, 90
21, 3749, Note_on_c, 15, 47, 0
21, 3750, Note_on_c, 15, 49, 90
21, 3779, Note_on_c, 15, 49, 0
21, 3780, Note_on_c, 15, 45, 90
21, 3809, Note_on_c, 15, 45, 0
21, 3810, Note_on_c, 15, 57, 90
21, 3839, Note_on_c, 15, 57, 0
21, 3840, Note_on_c, 15, 55, 90
21, 3869, Note_on_c, 15, 55, 0
21, 3870, Note_on_c, 15, 57, 90
21, 3899, Note_on_c, 15, 57, 0
21, 3900, Note_on_c, 15, 55, 90
21, 3929, Note_on_c, 15, 55, 0
21, 3930, Note_on_c, 15, 57, 90
21, 3959, Note_on_c, 15, 57, 0
21, 3960, Note_on_c, 15, 54, 90
21, 3989, Note_on_c, 15, 54, 0
21, 3990, Note_on_c, 15, 52, 90
21, 4019, Note_on_c, 15, 52, 0
21, 4020, Note_on_c, 15, 54, 90
21, 4049, Note_on_c, 15, 54, 0
21, 4050, Note_on_c, 15, 55, 90
21, 4079, Note_on_c, 15, 55, 0
21, 4080, Note_on_c, 15, 52, 90
21, 4109, Note_on_c, 15, 52, 0
21, 4110, Note_on_c, 15, 54, 90
21, 4139, Note_on_c, 15, 54, 0
21, 4140, Note_on_c, 15, 50, 90
21, 4169, Note_on_c, 15, 50, 0
21, 4170, Note_on_c, 15, 49, 90
21, 4199, Note_on_c, 15, 49, 0
21, 4200, Note_on_c, 15, 50, 90
21, 4229, Note_on_c, 15, 50, 0
21, 4230, Note_on_c, 15, 52, 90
21, 4259, Note_on_c, 15, 52, 0
21, 4260, Note_on_c, 15, 49, 90
21, 4289, Note_on_c, 15, 49, 0
21, 4290, Note_on_c, 15, 50, 90
21, 4319, Note_on_c, 15, 50, 0
21, 4320, Note_on_c, 15, 47, 90
21, 4349, Note_on_c, 15, 47, 0
21, 4380, Note_on_c, 15, 59, 90
21, 4409, Note_on_c, 15, 59, 0
21, 4440, Note_on_c, 15, 57, 90
21, 4469, Note_on_c, 15, 57, 0
21, 4500, Note_on_c, 15, 56, 90
21, 4574, Note_on_c, 15, 56, 0
21, 4575, Note_on_c, 15, 57, 90
21, 4589, Note_on_c, 15, 57, 0
21, 4590, Note_on_c, 15, 56, 90
21, 4604, Note_on_c, 15, 56, 0
21, 4605, Note_on_c, 15, 54, 90
21, 4619, Note_on_c, 15, 54, 0
21, 4620, Note_on_c, 15, 52, 90
21, 4634, Note_on_c, 15, 52, 0
21, 4635, Note_on_c, 15, 50, 90
21, 4649, Note_on_c, 15, 50, 0
21, 4650, Note_on_c, 15, 49, 90
21, 4664, Note_on_c, 15, 49, 0
21, 4665, Note_on_c, 15, 47, 90
21, 4679, Note_on_c, 15, 47, 0
21, 4680, Note_on_c, 15, 45, 90
21, 4709, Note_on_c, 15, 45, 0
21, 4740, Note_on_c, 15, 57, 90
21, 4769, Note_on_c, 15, 57, 0
21, 4800, Note_on_c, 15, 55, 90
21, 4829, Note_on_c, 15, 55, 0
21, 4860, Note_on_c, 15, 54, 90
21, 4934, Note_on_c, 15, 54, 0
21, 4935, Note_on_c, 15, 55, 90
21, 4949, Note_on_c, 15, 55, 0
21, 4950, Note_on_c, 15, 54, 90
21, 4964, Note_on_c, 15, 54, 0
21, 4965, Note_on_c, 15, 52, 90
21, 4979, Note_on_c, 15, 52, 0
21, 4980, Note_on_c, 15, 50, 90
21, 4994, Note_on_c, 15, 50, 0
21, 4995, Note_on_c, 15, 48, 90
21, 5009, Note_on_c, 15, 48, 0
21, 5010, Note_on_c, 15, 47, 90
21, 5024, Note_on_c, 15, 47, 0
21, 5025, Note_on_c, 15, 45, 90
21, 5039, Note_on_c, 15, 45, 0
21, 5040, Note_on_c, 15, 43, 90
21, 5069, Note_on_c, 15, 43, 0
21, 5100, Note_on_c, 15, 55, 90
21, 5129, Note_on_c, 15, 55, 0
21, 5160, Note_on_c, 15, 54, 90
21, 5189, Note_on_c, 15, 54, 0
21, 5220, Note_on_c, 15, 52, 90
21, 5249, Note_on_c, 15, 52, 0
21, 5280, Note_on_c, 15, 47, 90
21, 5309, Note_on_c, 15, 47, 0
21, 5340, Note_on_c, 15, 50, 90
21, 5369, Note_on_c, 15, 50, 0
21, 5400, Note_on_c, 15, 49, 90
21, 5429, Note_on_c, 15, 49, 0
21, 5460, Note_on_c, 15, 52, 90
21, 5489, Note_on_c, 15, 52, 0
21, 5520, Note_on_c, 15, 45, 90
21, 5549, Note_on_c, 15, 45, 0
21, 5580, Note_on_c, 15, 50, 90
21, 5609, Note_on_c, 15, 50, 0
21, 5640, Note_on_c, 15, 42, 90
21, 5669, Note_on_c, 15, 42, 0
21, 5700, Note_on_c, 15, 45, 90
21, 5729, Note_on_c, 15, 45, 0
21, 5760, Note_on_c, 15, 38, 90
21, 5819, Note_on_c, 15, 38, 0
21, 6120, Note_on_c, 15, 38, 90
21, 6179, Note_on_c, 15, 38, 0
21, 6480, Note_on_c, 15, 38, 90
21, 6539, Note_on_c, 15, 38, 0
21, 6840, Note_on_c, 15, 38, 90
21, 6899, Note_on_c, 15, 38, 0
21, 7200, Note_on_c, 15, 38, 90
21, 7215, Control_c, 15, 0, 40
21, 7215, Control_c, 15, 0, 40
21, 7215, Program_c, 15, 42
21, 7215, Note_on_c, 15, 62, 90
21, 7229, Note_on_c, 15, 62, 0
21, 7230, Note_on_c, 15, 61, 90
21, 7244, Note_on_c, 15, 61, 0
21, 7245, Note_on_c, 15, 59, 90
21, 7259, Note_on_c, 15, 59, 0
21, 7259, Note_on_c, 15, 38, 0
21, 7260, Note_on_c, 15, 57, 90
21, 7274, Note_on_c, 15, 57, 0
21, 7275, Note_on_c, 15, 62, 90
21, 7289, Note_on_c, 15, 62, 0
21, 7290, Note_on_c, 15, 61, 90
21, 7304, Note_on_c, 15, 61, 0
21, 7305, Note_on_c, 15, 59, 90
21, 7319, Note_on_c, 15, 59, 0
21, 7320, Note_on_c, 15, 57, 90
21, 7334, Note_on_c, 15, 57, 0
21, 7335, Note_on_c, 15, 55, 90
21, 7349, Note_on_c, 15, 55, 0
21, 7350, Note_on_c, 15, 54, 90
21, 7364, Note_on_c, 15, 54, 0
21, 7365, Note_on_c, 15, 52, 90
21, 7379, Note_on_c, 15, 52, 0
21, 7380, Note_on_c, 15, 50, 90
21, 7394, Note_on_c, 15, 50, 0
21, 7395, Control_c, 15, 0, 101
21, 7395, Control_c, 15, 0, 101
21, 7395, Program_c, 15, 42
21, 7395, Note_on_c, 15, 50, 90
21, 7409, Note_on_c, 15, 50, 0
21, 7410, Note_on_c, 15, 49, 90
21, 7424, Note_on_c, 15, 49, 0
21, 7425, Note_on_c, 15, 47, 90
21, 7439, Note_on_c, 15, 47, 0
21, 7440, Note_on_c, 15, 45, 90
21, 7454, Note_on_c, 15, 45, 0
21, 7455, Note_on_c, 15, 50, 90
21, 7469, Note_on_c, 15, 50, 0
21, 7470, Note_on_c, 15, 49, 90
21, 7484, Note_on_c, 15, 49, 0
21, 7485, Note_on_c, 15, 47, 90
21, 7499, Note_on_c, 15, 47, 0
21, 7500, Note_on_c, 15, 45, 90
21, 7514, Note_on_c, 15, 45, 0
21, 7515, Note_on_c, 15, 43, 90
21, 7529, Note_on_c, 15, 43, 0
21, 7530, Note_on_c, 15, 42, 90
21, 7544, Note_on_c, 15, 42, 0
21, 7545, Note_on_c, 15, 40, 90
21, 7559, Note_on_c, 15, 40, 0
21, 7560, Note_on_c, 15, 38, 90
21, 7619, Note_on_c, 15, 38, 0
21, 7620, Note_on_c, 15, 42, 90
21, 7679, Note_on_c, 15, 42, 0
21, 7680, Note_on_c, 15, 38, 90
21, 7739, Note_on_c, 15, 38, 0
21, 7740, Note_on_c, 15, 45, 90
21, 7859, Note_on_c, 15, 45, 0
21, 7920, Note_on_c, 15, 45, 90
21, 7979, Note_on_c, 15, 45, 0
21, 7980, Note_on_c, 15, 49, 90
21, 8039, Note_on_c, 15, 49, 0
21, 8040, Note_on_c, 15, 45, 90
21, 8099, Note_on_c, 15, 45, 0
21, 8100, Note_on_c, 15, 50, 90
21, 8219, Note_on_c, 15, 50, 0
21, 8280, Note_on_c, 15, 50, 90
21, 8309, Note_on_c, 15, 50, 0
21, 8310, Note_on_c, 15, 52, 90
21, 8339, Note_on_c, 15, 52, 0
21, 8340, Note_on_c, 15, 54, 90
21, 8369, Note_on_c, 15, 54, 0
21, 8370, Note_on_c, 15, 52, 90
21, 8399, Note_on_c, 15, 52, 0
21, 8400, Note_on_c, 15, 54, 90
21, 8429, Note_on_c, 15, 54, 0
21, 8430, Note_on_c, 15, 50, 90
21, 8459, Note_on_c, 15, 50, 0
21, 8460, Note_on_c, 15, 55, 90
21, 8489, Note_on_c, 15, 55, 0
21, 8490, Note_on_c, 15, 57, 90
21, 8519, Note_on_c, 15, 57, 0
21, 8520, Note_on_c, 15, 54, 90
21, 8549, Note_on_c, 15, 54, 0
21, 8550, Note_on_c, 15, 55, 90
21, 8579, Note_on_c, 15, 55, 0
21, 8580, Note_on_c, 15, 52, 90
21, 8609, Note_on_c, 15, 52, 0
21, 8610, Note_on_c, 15, 54, 90
21, 8639, Note_on_c, 15, 54, 0
21, 8640, Note_on_c, 15, 50, 90
21, 8669, Note_on_c, 15, 50, 0
21, 8670, Note_on_c, 15, 62, 90
21, 8699, Note_on_c, 15, 62, 0
21, 8700, Note_on_c, 15, 61, 90
21, 8729, Note_on_c, 15, 61, 0
21, 8730, Note_on_c, 15, 62, 90
21, 8759, Note_on_c, 15, 62, 0
21, 8760, Note_on_c, 15, 59, 90
21, 8789, Note_on_c, 15, 59, 0
21, 8790, Note_on_c, 15, 61, 90
21, 8819, Note_on_c, 15, 61, 0
21, 8820, Note_on_c, 15, 57, 90
21, 8879, Note_on_c, 15, 57, 0
21, 8880, Note_on_c, 15, 45, 90
21, 8939, Note_on_c, 15, 45, 0
21, 9030, Note_on_c, 15, 57, 90
21, 9059, Note_on_c, 15, 57, 0
21, 9060, Note_on_c, 15, 55, 90
21, 9089, Note_on_c, 15, 55, 0
21, 9090, Note_on_c, 15, 57, 90
21, 9119, Note_on_c, 15, 57, 0
21, 9120, Note_on_c, 15, 54, 90
21, 9149, Note_on_c, 15, 54, 0
21, 9150, Note_on_c, 15, 55, 90
21, 9179, Note_on_c, 15, 55, 0
21, 9180, Note_on_c, 15, 52, 90
21, 9209, Note_on_c, 15, 52, 0
21, 9210, Note_on_c, 15, 51, 90
21, 9239, Note_on_c, 15, 51, 0
21, 9240, Note_on_c, 15, 52, 90
21, 9269, Note_on_c, 15, 52, 0
21, 9270, Note_on_c, 15, 55, 90
21, 9299, Note_on_c, 15, 55, 0
21, 9300, Note_on_c, 15, 54, 90
21, 9329, Note_on_c, 15, 54, 0
21, 9330, Note_on_c, 15, 57, 90
21, 9359, Note_on_c, 15, 57, 0
21, 9360, Note_on_c, 15, 55, 90
21, 9389, Note_on_c, 15, 55, 0
21, 9390, Note_on_c, 15, 54, 90
21, 9419, Note_on_c, 15, 54, 0
21, 9420, Note_on_c, 15, 55, 90
21, 9449, Note_on_c, 15, 55, 0
21, 9450, Note_on_c, 15, 59, 90
21, 9479, Note_on_c, 15, 59, 0
21, 9480, Note_on_c, 15, 57, 90
21, 9509, Note_on_c, 15, 57, 0
21, 9510, Note_on_c, 15, 61, 90
21, 9539, Note_on_c, 15, 61, 0
21, 9540, Note_on_c, 15, 59, 90
21, 9569, Note_on_c, 15, 59, 0
21, 9570, Note_on_c, 15, 57, 90
21, 9599, Note_on_c, 15, 57, 0
21, 9600, Note_on_c, 15, 59, 90
21, 9629, Note_on_c, 15, 59, 0
21, 9630, Note_on_c, 15, 62, 90
21, 9659, Note_on_c, 15, 62, 0
21, 9660, Note_on_c, 15, 61, 90
21, 9689, Note_on_c, 15, 61, 0
21, 9690, Note_on_c, 15, 64, 90
21, 9719, Note_on_c, 15, 64, 0
21, 9720, Note_on_c, 15, 62, 90
21, 9749, Note_on_c, 15, 62, 0
21, 9750, Note_on_c, 15, 64, 90
21, 9779, Note_on_c, 15, 64, 0
21, 9780, Note_on_c, 15, 61, 90
21, 9809, Note_on_c, 15, 61, 0
21, 9810, Note_on_c, 15, 62, 90
21, 9839, Note_on_c, 15, 62, 0
21, 9840, Note_on_c, 15, 59, 90
21, 9869, Note_on_c, 15, 59, 0
21, 9870, Note_on_c, 15, 61, 90
21, 9899, Note_on_c, 15, 61, 0
21, 9900, Note_on_c, 15, 57, 90
21, 9959, Note_on_c, 15, 57, 0
21, 9960, Note_on_c, 15, 45, 90
21, 9989, Note_on_c, 15, 45, 0
21, 9990, Note_on_c, 15, 49, 90
21, 10019, Note_on_c, 15, 49, 0
21, 10020, Note_on_c, 15, 47, 90
21, 10049, Note_on_c, 15, 47, 0
21, 10050, Note_on_c, 15, 50, 90
21, 10079, Note_on_c, 15, 50, 0
21, 10080, Note_on_c, 15, 49, 90
21, 10109, Note_on_c, 15, 49, 0
21, 10110, Note_on_c, 15, 47, 90
21, 10139, Note_on_c, 15, 47, 0
21, 10140, Note_on_c, 15, 49, 90
21, 10169, Note_on_c, 15, 49, 0
21, 10170, Note_on_c, 15, 52, 90
21, 10199, Note_on_c, 15, 52, 0
21, 10200, Note_on_c, 15, 51, 90
21, 10229, Note_on_c, 15, 51, 0
21, 10230, Note_on_c, 15, 54, 90
21, 10259, Note_on_c, 15, 54, 0
21, 10260, Note_on_c, 15, 52, 90
21, 10289, Note_on_c, 15, 52, 0
21, 10290, Note_on_c, 15, 50, 90
21, 10319, Note_on_c, 15, 50, 0
21, 10320, Note_on_c, 15, 52, 90
21, 10349, Note_on_c, 15, 52, 0
21, 10350, Note_on_c, 15, 55, 90
21, 10379, Note_on_c, 15, 55, 0
21, 10380, Note_on_c, 15, 54, 90
21, 10409, Note_on_c, 15, 54, 0
21, 10410, Note_on_c, 15, 57, 90
21, 10439, Note_on_c, 15, 57, 0
21, 10440, Note_on_c, 15, 55, 90
21, 10469, Note_on_c, 15, 55, 0
21, 10470, Note_on_c, 15, 57, 90
21, 10499, Note_on_c, 15, 57, 0
21, 10500, Note_on_c, 15, 54, 90
21, 10529, Note_on_c, 15, 54, 0
21, 10530, Note_on_c, 15, 55, 90
21, 10559, Note_on_c, 15, 55, 0
21, 10560, Note_on_c, 15, 52, 90
21, 10589, Note_on_c, 15, 52, 0
21, 10590, Note_on_c, 15, 54, 90
21, 10619, Note_on_c, 15, 54, 0
21, 10620, Note_on_c, 15, 50, 90
21, 10649, Note_on_c, 15, 50, 0
21, 10650, Note_on_c, 15, 49, 90
21, 10679, Note_on_c, 15, 49, 0
21, 10680, Note_on_c, 15, 50, 90
21, 10709, Note_on_c, 15, 50, 0
21, 10710, Note_on_c, 15, 54, 90
21, 10739, Note_on_c, 15, 54, 0
21, 10740, Note_on_c, 15, 52, 90
21, 10769, Note_on_c, 15, 52, 0
21, 10770, Note_on_c, 15, 55, 90
21, 10799, Note_on_c, 15, 55, 0
21, 10800, Note_on_c, 15, 54, 90
21, 10829, Note_on_c, 15, 54, 0
21, 10830, Note_on_c, 15, 52, 90
21, 10859, Note_on_c, 15, 52, 0
21, 10860, Note_on_c, 15, 54, 90
21, 10889, Note_on_c, 15, 54, 0
21, 10890, Note_on_c, 15, 57, 90
21, 10919, Note_on_c, 15, 57, 0
21, 10920, Note_on_c, 15, 56, 90
21, 10949, Note_on_c, 15, 56, 0
21, 10950, Note_on_c, 15, 59, 90
21, 10979, Note_on_c, 15, 59, 0
21, 10980, Note_on_c, 15, 57, 90
21, 11009, Note_on_c, 15, 57, 0
21, 11010, Note_on_c, 15, 56, 90
21, 11039, Note_on_c, 15, 56, 0
21, 11040, Note_on_c, 15, 57, 90
21, 11069, Note_on_c, 15, 57, 0
21, 11070, Note_on_c, 15, 59, 90
21, 11099, Note_on_c, 15, 59, 0
21, 11100, Note_on_c, 15, 57, 90
21, 11129, Note_on_c, 15, 57, 0
21, 11130, Note_on_c, 15, 59, 90
21, 11159, Note_on_c, 15, 59, 0
21, 11160, Note_on_c, 15, 55, 90
21, 11189, Note_on_c, 15, 55, 0
21, 11190, Note_on_c, 15, 54, 90
21, 11219, Note_on_c, 15, 54, 0
21, 11220, Note_on_c, 15, 55, 90
21, 11249, Note_on_c, 15, 55, 0
21, 11250, Note_on_c, 15, 57, 90
21, 11279, Note_on_c, 15, 57, 0
21, 11280, Note_on_c, 15, 54, 90
21, 11309, Note_on_c, 15, 54, 0
21, 11310, Note_on_c, 15, 55, 90
21, 11339, Note_on_c, 15, 55, 0
21, 11340, Note_on_c, 15, 52, 90
21, 11369, Note_on_c, 15, 52, 0
21, 11370, Note_on_c, 15, 50, 90
21, 11399, Note_on_c, 15, 50, 0
21, 11400, Note_on_c, 15, 52, 90
21, 11429, Note_on_c, 15, 52, 0
21, 11430, Note_on_c, 15, 54, 90
21, 11459, Note_on_c, 15, 54, 0
21, 11460, Note_on_c, 15, 50, 90
21, 11489, Note_on_c, 15, 50, 0
21, 11490, Note_on_c, 15, 52, 90
21, 11519, Note_on_c, 15, 52, 0
21, 11520, Note_on_c, 15, 49, 90
21, 11549, Note_on_c, 15, 49, 0
21, 11550, Note_on_c, 15, 47, 90
21, 11579, Note_on_c, 15, 47, 0
21, 11580, Note_on_c, 15, 49, 90
21, 11609, Note_on_c, 15, 49, 0
21, 11610, Note_on_c, 15, 50, 90
21, 11639, Note_on_c, 15, 50, 0
21, 11640, Note_on_c, 15, 47, 90
21, 11669, Note_on_c, 15, 47, 0
21, 11670, Note_on_c, 15, 49, 90
21, 11699, Note_on_c, 15, 49, 0
21, 11700, Note_on_c, 15, 46, 90
21, 11729, Note_on_c, 15, 46, 0
21, 11730, Note_on_c, 15, 55, 90
21, 11759, Note_on_c, 15, 55, 0
21, 11760, Note_on_c, 15, 54, 90
21, 11789, Note_on_c, 15, 54, 0
21, 11790, Note_on_c, 15, 55, 90
21, 11819, Note_on_c, 15, 55, 0
21, 11820, Note_on_c, 15, 52, 90
21, 11849, Note_on_c, 15, 52, 0
21, 11850, Note_on_c, 15, 54, 90
21, 11879, Note_on_c, 15, 54, 0
21, 11880, Note_on_c, 15, 50, 90
21, 11909, Note_on_c, 15, 50, 0
21, 11910, Note_on_c, 15, 49, 90
21, 11939, Note_on_c, 15, 49, 0
21, 11940, Note_on_c, 15, 50, 90
21, 11969, Note_on_c, 15, 50, 0
21, 11970, Note_on_c, 15, 52, 90
21, 11999, Note_on_c, 15, 52, 0
21, 12000, Note_on_c, 15, 49, 90
21, 12029, Note_on_c, 15, 49, 0
21, 12030, Note_on_c, 15, 50, 90
21, 12059, Note_on_c, 15, 50, 0
21, 12060, Note_on_c, 15, 47, 90
21, 12089, Note_on_c, 15, 47, 0
21, 12090, Note_on_c, 15, 46, 90
21, 12119, Note_on_c, 15, 46, 0
21, 12120, Note_on_c, 15, 47, 90
21, 12149, Note_on_c, 15, 47, 0
21, 12150, Note_on_c, 15, 49, 90
21, 12179, Note_on_c, 15, 49, 0
21, 12180, Note_on_c, 15, 45, 90
21, 12209, Note_on_c, 15, 45, 0
21, 12210, Note_on_c, 15, 47, 90
21, 12239, Note_on_c, 15, 47, 0
21, 12240, Note_on_c, 15, 44, 90
21, 12269, Note_on_c, 15, 44, 0
21, 12270, Note_on_c, 15, 42, 90
21, 12299, Note_on_c, 15, 42, 0
21, 12300, Note_on_c, 15, 44, 90
21, 12329, Note_on_c, 15, 44, 0
21, 12330, Note_on_c, 15, 45, 90
21, 12359, Note_on_c, 15, 45, 0
21, 12360, Note_on_c, 15, 42, 90
21, 12389, Note_on_c, 15, 42, 0
21, 12390, Note_on_c, 15, 44, 90
21, 12419, Note_on_c, 15, 44, 0
21, 12420, Note_on_c, 15, 40, 90
21, 12449, Note_on_c, 15, 40, 0
21, 12450, Note_on_c, 15, 54, 90
21, 12479, Note_on_c, 15, 54, 0
21, 12480, Note_on_c, 15, 52, 90
21, 12509, Note_on_c, 15, 52, 0
21, 12510, Note_on_c, 15, 54, 90
21, 12539, Note_on_c, 15, 54, 0
21, 12540, Note_on_c, 15, 50, 90
21, 12569, Note_on_c, 15, 50, 0
21, 12570, Note_on_c, 15, 52, 90
21, 12599, Note_on_c, 15, 52, 0
21, 12600, Note_on_c, 15, 49, 90
21, 12629, Note_on_c, 15, 49, 0
21, 12630, Note_on_c, 15, 47, 90
21, 12659, Note_on_c, 15, 47, 0
21, 12660, Note_on_c, 15, 49, 90
21, 12689, Note_on_c, 15, 49, 0
21, 12690, Note_on_c, 15, 50, 90
21, 12719, Note_on_c, 15, 50, 0
21, 12720, Note_on_c, 15, 47, 90
21, 12749, Note_on_c, 15, 47, 0
21, 12750, Note_on_c, 15, 49, 90
21, 12779, Note_on_c, 15, 49, 0
21, 12780, Note_on_c, 15, 45, 90
21, 12809, Note_on_c, 15, 45, 0
21, 12810, Note_on_c, 15, 44, 90
21, 12839, Note_on_c, 15, 44, 0
21, 12840, Note_on_c, 15, 45, 90
21, 12869, Note_on_c, 15, 45, 0
21, 12870, Note_on_c, 15, 47, 90
21, 12899, Note_on_c, 15, 47, 0
21, 12900, Note_on_c, 15, 44, 90
21, 12929, Note_on_c, 15, 44, 0
21, 12930, Note_on_c, 15, 45, 90
21, 12959, Note_on_c, 15, 45, 0
21, 12960, Note_on_c, 15, 42, 90
21, 12989, Note_on_c, 15, 42, 0
21, 13020, Note_on_c, 15, 54, 90
21, 13049, Note_on_c, 15, 54, 0
21, 13080, Note_on_c, 15, 52, 90
21, 13109, Note_on_c, 15, 52, 0
21, 13140, Note_on_c, 15, 51, 90
21, 13214, Note_on_c, 15, 51, 0
21, 13215, Note_on_c, 15, 52, 90
21, 13229, Note_on_c, 15, 52, 0
21, 13230, Note_on_c, 15, 51, 90
21, 13244, Note_on_c, 15, 51, 0
21, 13245, Note_on_c, 15, 49, 90
21, 13259, Note_on_c, 15, 49, 0
21, 13260, Note_on_c, 15, 47, 90
21, 13274, Note_on_c, 15, 47, 0
21, 13275, Note_on_c, 15, 45, 90
21, 13289, Note_on_c, 15, 45, 0
21, 13290, Note_on_c, 15, 44, 90
21, 13304, Note_on_c, 15, 44, 0
21, 13305, Note_on_c, 15, 42, 90
21, 13319, Note_on_c, 15, 42, 0
21, 13320, Note_on_c, 15, 40, 90
21, 13349, Note_on_c, 15, 40, 0
21, 13380, Note_on_c, 15, 52, 90
21, 13409, Note_on_c, 15, 52, 0
21, 13440, Note_on_c, 15, 50, 90
21, 13469, Note_on_c, 15, 50, 0
21, 13500, Note_on_c, 15, 49, 90
21, 13574, Note_on_c, 15, 49, 0
21, 13575, Note_on_c, 15, 50, 90
21, 13589, Note_on_c, 15, 50, 0
21, 13590, Note_on_c, 15, 49, 90
21, 13604, Note_on_c, 15, 49, 0
21, 13605, Note_on_c, 15, 47, 90
21, 13619, Note_on_c, 15, 47, 0
21, 13620, Note_on_c, 15, 45, 90
21, 13634, Note_on_c, 15, 45, 0
21, 13635, Note_on_c, 15, 43, 90
21, 13649, Note_on_c, 15, 43, 0
21, 13650, Note_on_c, 15, 42, 90
21, 13664, Note_on_c, 15, 42, 0
21, 13665, Note_on_c, 15, 40, 90
21, 13679, Note_on_c, 15, 40, 0
21, 13680, Note_on_c, 15, 38, 90
21, 13709, Note_on_c, 15, 38, 0
21, 13740, Note_on_c, 15, 50, 90
21, 13769, Note_on_c, 15, 50, 0
21, 13800, Note_on_c, 15, 49, 90
21, 13829, Note_on_c, 15, 49, 0
21, 13860, Note_on_c, 15, 47, 90
21, 13889, Note_on_c, 15, 47, 0
21, 13920, Note_on_c, 15, 42, 90
21, 13949, Note_on_c, 15, 42, 0
21, 13980, Note_on_c, 15, 45, 90
21, 14009, Note_on_c, 15, 45, 0
21, 14040, Note_on_c, 15, 44, 90
21, 14069, Note_on_c, 15, 44, 0
21, 14100, Note_on_c, 15, 42, 90
21, 14129, Note_on_c, 15, 42, 0
21, 14160, Note_on_c, 15, 40, 90
21, 14189, Note_on_c, 15, 40, 0
21, 14220, Note_on_c, 15, 45, 90
21, 14249, Note_on_c, 15, 45, 0
21, 14280, Note_on_c, 15, 38, 90
21, 14309, Note_on_c, 15, 38, 0
21, 14340, Note_on_c, 15, 40, 90
21, 14369, Note_on_c, 15, 40, 0
21, 14400, Note_on_c, 15, 45, 90
21, 14429, Note_on_c, 15, 45, 0
21, 14460, Note_on_c, 15, 49, 90
21, 14519, Note_on_c, 15, 49, 0
21, 14520, Note_on_c, 15, 45, 90
21, 14579, Note_on_c, 15, 45, 0
21, 14580, Note_on_c, 15, 52, 90
21, 14639, Note_on_c, 15, 52, 0
21, 14760, Note_on_c, 15, 52, 90
21, 14819, Note_on_c, 15, 52, 0
21, 14820, Note_on_c, 15, 56, 90
21, 14879, Note_on_c, 15, 56, 0
21, 14880, Note_on_c, 15, 52, 90
21, 14939, Note_on_c, 15, 52, 0
21, 14940, Note_on_c, 15, 57, 90
21, 14999, Note_on_c, 15, 57, 0
21, 15120, Note_on_c, 15, 58, 90
21, 15149, Note_on_c, 15, 58, 0
21, 15150, Note_on_c, 15, 58, 90
21, 15179, Note_on_c, 15, 58, 0
21, 15180, Note_on_c, 15, 58, 90
21, 15209, Note_on_c, 15, 58, 0
21, 15210, Note_on_c, 15, 58, 90
21, 15239, Note_on_c, 15, 58, 0
21, 15240, Note_on_c, 15, 58, 90
21, 15269, Note_on_c, 15, 58, 0
21, 15270, Note_on_c, 15, 58, 90
21, 15299, Note_on_c, 15, 58, 0
21, 15300, Note_on_c, 15, 59, 90
21, 15329, Note_on_c, 15, 59, 0
21, 15360, Note_on_c, 15, 47, 90
21, 15389, Note_on_c, 15, 47, 0
21, 15420, Note_on_c, 15, 59, 90
21, 15449, Note_on_c, 15, 59, 0
21, 15480, Note_on_c, 15, 54, 90
21, 15509, Note_on_c, 15, 54, 0
21, 15540, Note_on_c, 15, 42, 90
21, 15569, Note_on_c, 15, 42, 0
21, 15600, Note_on_c, 15, 43, 90
21, 15629, Note_on_c, 15, 43, 0
21, 15660, Note_on_c, 15, 45, 90
21, 15689, Note_on_c, 15, 45, 0
21, 15720, Note_on_c, 15, 49, 90
21, 15749, Note_on_c, 15, 49, 0
21, 15780, Note_on_c, 15, 45, 90
21, 15809, Note_on_c, 15, 45, 0
21, 15840, Note_on_c, 15, 50, 90
21, 15899, Note_on_c, 15, 50, 0
21, 16200, Note_on_c, 15, 38, 90
21, 16259, Note_on_c, 15, 38, 0
21, 16560, Note_on_c, 15, 50, 90
21, 16619, Note_on_c, 15, 50, 0
21, 16920, Note_on_c, 15, 38, 90
21, 16979, Note_on_c, 15, 38, 0
21, 17280, Note_on_c, 15, 50, 90
21, 17295, Control_c, 15, 0, 40
21, 17295, Control_c, 15, 0, 40
21, 17295, Program_c, 15, 42
21, 17295, Note_on_c, 15, 62, 90
21, 17309, Note_on_c, 15, 62, 0
21, 17310, Note_on_c, 15, 61, 90
21, 17324, Note_on_c, 15, 61, 0
21, 17325, Note_on_c, 15, 59, 90
21, 17339, Note_on_c, 15, 59, 0
21, 17339, Note_on_c, 15, 50, 0
21, 17340, Note_on_c, 15, 57, 90
21, 17354, Note_on_c, 15, 57, 0
21, 17355, Note_on_c, 15, 62, 90
21, 17369, Note_on_c, 15, 62, 0
21, 17370, Note_on_c, 15, 61, 90
21, 17384, Note_on_c, 15, 61, 0
21, 17385, Note_on_c, 15, 59, 90
21, 17399, Note_on_c, 15, 59, 0
21, 17400, Note_on_c, 15, 57, 90
21, 17414, Note_on_c, 15, 57, 0
21, 17415, Note_on_c, 15, 55, 90
21, 17429, Note_on_c, 15, 55, 0
21, 17430, Note_on_c, 15, 54, 90
21, 17444, Note_on_c, 15, 54, 0
21, 17445, Note_on_c, 15, 52, 90
21, 17459, Note_on_c, 15, 52, 0
21, 17460, Note_on_c, 15, 50, 90
21, 17474, Note_on_c, 15, 50, 0
21, 17475, Control_c, 15, 0, 101
21, 17475, Control_c, 15, 0, 101
21, 17475, Program_c, 15, 42
21, 17475, Note_on_c, 15, 50, 90
21, 17489, Note_on_c, 15, 50, 0
21, 17490, Note_on_c, 15, 49, 90
21, 17504, Note_on_c, 15, 49, 0
21, 17505, Note_on_c, 15, 47, 90
21, 17519, Note_on_c, 15, 47, 0
21, 17520, Note_on_c, 15, 45, 90
21, 17534, Note_on_c, 15, 45, 0
21, 17535, Note_on_c, 15, 50, 90
21, 17549, Note_on_c, 15, 50, 0
21, 17550, Note_on_c, 15, 49, 90
21, 17564, Note_on_c, 15, 49, 0
21, 17565, Note_on_c, 15, 47, 90
21, 17579, Note_on_c, 15, 47, 0
21, 17580, Note_on_c, 15, 45, 90
21, 17594, Note_on_c, 15, 45, 0
21, 17595, Note_on_c, 15, 43, 90
21, 17609, Note_on_c, 15, 43, 0
21, 17610, Note_on_c, 15, 42, 90
21, 17624, Note_on_c, 15, 42, 0
21, 17625, Note_on_c, 15, 40, 90
21, 17639, Note_on_c, 15, 40, 0
21, 17640, Note_on_c, 15, 38, 90
21, 17699, Note_on_c, 15, 38, 0
21, 17700, Note_on_c, 15, 42, 90
21, 17759, Note_on_c, 15, 42, 0
21, 17760, Note_on_c, 15, 38, 90
21, 17819, Note_on_c, 15, 38, 0
21, 17820, Note_on_c, 15, 45, 90
21, 17939, Note_on_c, 15, 45, 0
21, 18000, Note_on_c, 15, 45, 90
21, 18059, Note_on_c, 15, 45, 0
21, 18060, Note_on_c, 15, 49, 90
21, 18119, Note_on_c, 15, 49, 0
21, 18120, Note_on_c, 15, 45, 90
21, 18179, Note_on_c, 15, 45, 0
21, 18180, Note_on_c, 15, 50, 90
21, 18299, Note_on_c, 15, 50, 0
21, 18360, Note_on_c, 15, 50, 90
21, 18389, Note_on_c, 15, 50, 0
21, 18390, Note_on_c, 15, 52, 90
21, 18419, Note_on_c, 15, 52, 0
21, 18420, Note_on_c, 15, 54, 90
21, 18449, Note_on_c, 15, 54, 0
21, 18450, Note_on_c, 15, 52, 90
21, 18479, Note_on_c, 15, 52, 0
21, 18480, Note_on_c, 15, 54, 90
21, 18509, Note_on_c, 15, 54, 0
21, 18510, Note_on_c, 15, 50, 90
21, 18539, Note_on_c, 15, 50, 0
21, 18540, Note_on_c, 15, 55, 90
21, 18569, Note_on_c, 15, 55, 0
21, 18570, Note_on_c, 15, 57, 90
21, 18599, Note_on_c, 15, 57, 0
21, 18600, Note_on_c, 15, 54, 90
21, 18629, Note_on_c, 15, 54, 0
21, 18630, Note_on_c, 15, 55, 90
21, 18659, Note_on_c, 15, 55, 0
21, 18660, Note_on_c, 15, 52, 90
21, 18689, Note_on_c, 15, 52, 0
21, 18690, Note_on_c, 15, 54, 90
21, 18719, Note_on_c, 15, 54, 0
21, 18720, Note_on_c, 15, 50, 90
21, 18749, Note_on_c, 15, 50, 0
21, 18750, Note_on_c, 15, 62, 90
21, 18779, Note_on_c, 15, 62, 0
21, 18780, Note_on_c, 15, 61, 90
21, 18809, Note_on_c, 15, 61, 0
21, 18810, Note_on_c, 15, 62, 90
21, 18839, Note_on_c, 15, 62, 0
21, 18840, Note_on_c, 15, 59, 90
21, 18869, Note_on_c, 15, 59, 0
21, 18870, Note_on_c, 15, 61, 90
21, 18899, Note_on_c, 15, 61, 0
21, 18900, Note_on_c, 15, 57, 90
21, 18929, Note_on_c, 15, 57, 0
21, 18930, Note_on_c, 15, 59, 90
21, 18959, Note_on_c, 15, 59, 0
21, 18960, Note_on_c, 15, 55, 90
21, 18989, Note_on_c, 15, 55, 0
21, 18990, Note_on_c, 15, 57, 90
21, 19019, Note_on_c, 15, 57, 0
21, 19020, Note_on_c, 15, 54, 90
21, 19049, Note_on_c, 15, 54, 0
21, 19050, Note_on_c, 15, 55, 90
21, 19079, Note_on_c, 15, 55, 0
21, 19080, Note_on_c, 15, 52, 90
21, 19109, Note_on_c, 15, 52, 0
21, 19110, Note_on_c, 15, 54, 90
21, 19139, Note_on_c, 15, 54, 0
21, 19140, Note_on_c, 15, 50, 90
21, 19169, Note_on_c, 15, 50, 0
21, 19170, Note_on_c, 15, 52, 90
21, 19199, Note_on_c, 15, 52, 0
21, 19200, Note_on_c, 15, 49, 90
21, 19229, Note_on_c, 15, 49, 0
21, 19230, Note_on_c, 15, 50, 90
21, 19259, Note_on_c, 15, 50, 0
21, 19260, Note_on_c, 15, 47, 90
21, 19289, Note_on_c, 15, 47, 0
21, 19290, Note_on_c, 15, 59, 90
21, 19319, Note_on_c, 15, 59, 0
21, 19320, Note_on_c, 15, 57, 90
21, 19349, Note_on_c, 15, 57, 0
21, 19350, Note_on_c, 15, 59, 90
21, 19379, Note_on_c, 15, 59, 0
21, 19380, Note_on_c, 15, 55, 90
21, 19409, Note_on_c, 15, 55, 0
21, 19410, Note_on_c, 15, 57, 90
21, 19439, Note_on_c, 15, 57, 0
21, 19440, Note_on_c, 15, 54, 90
21, 19469, Note_on_c, 15, 54, 0
21, 19470, Note_on_c, 15, 55, 90
21, 19499, Note_on_c, 15, 55, 0
21, 19500, Note_on_c, 15, 52, 90
21, 19529, Note_on_c, 15, 52, 0
21, 19530, Note_on_c, 15, 54, 90
21, 19559, Note_on_c, 15, 54, 0
21, 19560, Note_on_c, 15, 50, 90
21, 19589, Note_on_c, 15, 50, 0
21, 19590, Note_on_c, 15, 52, 90
21, 19619, Note_on_c, 15, 52, 0
21, 19620, Note_on_c, 15, 49, 90
21, 19649, Note_on_c, 15, 49, 0
21, 19650, Note_on_c, 15, 47, 90
21, 19679, Note_on_c, 15, 47, 0
21, 19680, Note_on_c, 15, 49, 90
21, 19709, Note_on_c, 15, 49, 0
21, 19710, Note_on_c, 15, 52, 90
21, 19739, Note_on_c, 15, 52, 0
21, 19740, Note_on_c, 15, 51, 90
21, 19769, Note_on_c, 15, 51, 0
21, 19770, Note_on_c, 15, 54, 90
21, 19799, Note_on_c, 15, 54, 0
21, 19800, Note_on_c, 15, 52, 90
21, 19829, Note_on_c, 15, 52, 0
21, 19830, Note_on_c, 15, 54, 90
21, 19859, Note_on_c, 15, 54, 0
21, 19860, Note_on_c, 15, 50, 90
21, 19889, Note_on_c, 15, 50, 0
21, 19890, Note_on_c, 15, 52, 90
21, 19919, Note_on_c, 15, 52, 0
21, 19920, Note_on_c, 15, 49, 90
21, 19949, Note_on_c, 15, 49, 0
21, 19950, Note_on_c, 15, 50, 90
21, 19979, Note_on_c, 15, 50, 0
21, 19980, Note_on_c, 15, 47, 90
21, 20009, Note_on_c, 15, 47, 0
21, 20010, Note_on_c, 15, 49, 90
21, 20039, Note_on_c, 15, 49, 0
21, 20040, Note_on_c, 15, 45, 90
21, 20069, Note_on_c, 15, 45, 0
21, 20070, Note_on_c, 15, 47, 90
21, 20099, Note_on_c, 15, 47, 0
21, 20100, Note_on_c, 15, 43, 90
21, 20129, Note_on_c, 15, 43, 0
21, 20130, Note_on_c, 15, 45, 90
21, 20159, Note_on_c, 15, 45, 0
21, 20160, Note_on_c, 15, 42, 90
21, 20189, Note_on_c, 15, 42, 0
21, 20190, Note_on_c, 15, 40, 90
21, 20219, Note_on_c, 15, 40, 0
21, 20220, Note_on_c, 15, 42, 90
21, 20249, Note_on_c, 15, 42, 0
21, 20250, Note_on_c, 15, 45, 90
21, 20279, Note_on_c, 15, 45, 0
21, 20280, Note_on_c, 15, 44, 90
21, 20309, Note_on_c, 15, 44, 0
21, 20310, Note_on_c, 15, 47, 90
21, 20339, Note_on_c, 15, 47, 0
21, 20340, Note_on_c, 15, 45, 90
21, 20369, Note_on_c, 15, 45, 0
21, 20370, Note_on_c, 15, 49, 90
21, 20399, Note_on_c, 15, 49, 0
21, 20400, Note_on_c, 15, 47, 90
21, 20429, Note_on_c, 15, 47, 0
21, 20430, Note_on_c, 15, 50, 90
21, 20459, Note_on_c, 15, 50, 0
21, 20460, Note_on_c, 15, 49, 90
21, 20489, Note_on_c, 15, 49, 0
21, 20490, Note_on_c, 15, 52, 90
21, 20519, Note_on_c, 15, 52, 0
21, 20520, Note_on_c, 15, 50, 90
21, 20549, Note_on_c, 15, 50, 0
21, 20550, Note_on_c, 15, 52, 90
21, 20579, Note_on_c, 15, 52, 0
21, 20580, Note_on_c, 15, 49, 90
21, 20609, Note_on_c, 15, 49, 0
21, 20610, Note_on_c, 15, 50, 90
21, 20639, Note_on_c, 15, 50, 0
21, 20640, Note_on_c, 15, 47, 90
21, 20669, Note_on_c, 15, 47, 0
21, 20670, Note_on_c, 15, 49, 90
21, 20699, Note_on_c, 15, 49, 0
21, 20700, Note_on_c, 15, 45, 90
21, 20729, Note_on_c, 15, 45, 0
21, 20730, Note_on_c, 15, 57, 90
21, 20759, Note_on_c, 15, 57, 0
21, 20760, Note_on_c, 15, 55, 90
21, 20789, Note_on_c, 15, 55, 0
21, 20790, Note_on_c, 15, 57, 90
21, 20819, Note_on_c, 15, 57, 0
21, 20820, Note_on_c, 15, 54, 90
21, 20849, Note_on_c, 15, 54, 0
21, 20850, Note_on_c, 15, 55, 90
21, 20879, Note_on_c, 15, 55, 0
21, 20880, Note_on_c, 15, 52, 90
21, 20909, Note_on_c, 15, 52, 0
21, 20910, Note_on_c, 15, 50, 90
21, 20939, Note_on_c, 15, 50, 0
21, 20940, Note_on_c, 15, 52, 90
21, 20969, Note_on_c, 15, 52, 0
21, 20970, Note_on_c, 15, 55, 90
21, 20999, Note_on_c, 15, 55, 0
21, 21000, Note_on_c, 15, 54, 90
21, 21029, Note_on_c, 15, 54, 0
21, 21030, Note_on_c, 15, 57, 90
21, 21059, Note_on_c, 15, 57, 0
21, 21060, Note_on_c, 15, 55, 90
21, 21089, Note_on_c, 15, 55, 0
21, 21090, Note_on_c, 15, 57, 90
21, 21119, Note_on_c, 15, 57, 0
21, 21120, Note_on_c, 15, 54, 90
21, 21149, Note_on_c, 15, 54, 0
21, 21150, Note_on_c, 15, 55, 90
21, 21179, Note_on_c, 15, 55, 0
21, 21180, Note_on_c, 15, 52, 90
21, 21209, Note_on_c, 15, 52, 0
21, 21210, Note_on_c, 15, 54, 90
21, 21239, Note_on_c, 15, 54, 0
21, 21240, Note_on_c, 15, 50, 90
21, 21269, Note_on_c, 15, 50, 0
21, 21270, Note_on_c, 15, 62, 90
21, 21299, Note_on_c, 15, 62, 0
21, 21300, Note_on_c, 15, 61, 90
21, 21329, Note_on_c, 15, 61, 0
21, 21330, Note_on_c, 15, 62, 90
21, 21359, Note_on_c, 15, 62, 0
21, 21360, Note_on_c, 15, 59, 90
21, 21389, Note_on_c, 15, 59, 0
21, 21390, Note_on_c, 15, 61, 90
21, 21419, Note_on_c, 15, 61, 0
21, 21420, Note_on_c, 15, 57, 90
21, 21449, Note_on_c, 15, 57, 0
21, 21450, Note_on_c, 15, 55, 90
21, 21479, Note_on_c, 15, 55, 0
21, 21480, Note_on_c, 15, 57, 90
21, 21509, Note_on_c, 15, 57, 0
21, 21510, Note_on_c, 15, 59, 90
21, 21539, Note_on_c, 15, 59, 0
21, 21540, Note_on_c, 15, 55, 90
21, 21569, Note_on_c, 15, 55, 0
21, 21570, Note_on_c, 15, 57, 90
21, 21599, Note_on_c, 15, 57, 0
21, 21600, Note_on_c, 15, 54, 90
21, 21629, Note_on_c, 15, 54, 0
21, 21630, Note_on_c, 15, 52, 90
21, 21659, Note_on_c, 15, 52, 0
21, 21660, Note_on_c, 15, 54, 90
21, 21689, Note_on_c, 15, 54, 0
21, 21690, Note_on_c, 15, 55, 90
21, 21719, Note_on_c, 15, 55, 0
21, 21720, Note_on_c, 15, 52, 90
21, 21749, Note_on_c, 15, 52, 0
21, 21750, Note_on_c, 15, 54, 90
21, 21779, Note_on_c, 15, 54, 0
21, 21780, Note_on_c, 15, 51, 90
21, 21809, Note_on_c, 15, 51, 0
21, 21810, Note_on_c, 15, 60, 90
21, 21839, Note_on_c, 15, 60, 0
21, 21840, Note_on_c, 15, 59, 90
21, 21869, Note_on_c, 15, 59, 0
21, 21870, Note_on_c, 15, 60, 90
21, 21899, Note_on_c, 15, 60, 0
21, 21900, Note_on_c, 15, 57, 90
21, 21929, Note_on_c, 15, 57, 0
21, 21930, Note_on_c, 15, 59, 90
21, 21959, Note_on_c, 15, 59, 0
21, 21960, Note_on_c, 15, 55, 90
21, 21989, Note_on_c, 15, 55, 0
21, 21990, Note_on_c, 15, 54, 90
21, 22019, Note_on_c, 15, 54, 0
21, 22020, Note_on_c, 15, 55, 90
21, 22049, Note_on_c, 15, 55, 0
21, 22050, Note_on_c, 15, 57, 90
21, 22079, Note_on_c, 15, 57, 0
21, 22080, Note_on_c, 15, 54, 90
21, 22109, Note_on_c, 15, 54, 0
21, 22110, Note_on_c, 15, 55, 90
21, 22139, Note_on_c, 15, 55, 0
21, 22140, Note_on_c, 15, 52, 90
21, 22169, Note_on_c, 15, 52, 0
21, 22170, Note_on_c, 15, 51, 90
21, 22199, Note_on_c, 15, 51, 0
21, 22200, Note_on_c, 15, 52, 90
21, 22229, Note_on_c, 15, 52, 0
21, 22230, Note_on_c, 15, 54, 90
21, 22259, Note_on_c, 15, 54, 0
21, 22260, Note_on_c, 15, 50, 90
21, 22289, Note_on_c, 15, 50, 0
21, 22290, Note_on_c, 15, 52, 90
21, 22319, Note_on_c, 15, 52, 0
21, 22320, Note_on_c, 15, 49, 90
21, 22349, Note_on_c, 15, 49, 0
21, 22350, Note_on_c, 15, 47, 90
21, 22379, Note_on_c, 15, 47, 0
21, 22380, Note_on_c, 15, 49, 90
21, 22409, Note_on_c, 15, 49, 0
21, 22410, Note_on_c, 15, 50, 90
21, 22439, Note_on_c, 15, 50, 0
21, 22440, Note_on_c, 15, 47, 90
21, 22469, Note_on_c, 15, 47, 0
21, 22470, Note_on_c, 15, 49, 90
21, 22499, Note_on_c, 15, 49, 0
21, 22500, Note_on_c, 15, 45, 90
21, 22529, Note_on_c, 15, 45, 0
21, 22530, Note_on_c, 15, 59, 90
21, 22559, Note_on_c, 15, 59, 0
21, 22560, Note_on_c, 15, 57, 90
21, 22589, Note_on_c, 15, 57, 0
21, 22590, Note_on_c, 15, 59, 90
21, 22619, Note_on_c, 15, 59, 0
21, 22620, Note_on_c, 15, 55, 90
21, 22649, Note_on_c, 15, 55, 0
21, 22650, Note_on_c, 15, 57, 90
21, 22679, Note_on_c, 15, 57, 0
21, 22680, Note_on_c, 15, 54, 90
21, 22709, Note_on_c, 15, 54, 0
21, 22710, Note_on_c, 15, 52, 90
21, 22739, Note_on_c, 15, 52, 0
21, 22740, Note_on_c, 15, 54, 90
21, 22769, Note_on_c, 15, 54, 0
21, 22770, Note_on_c, 15, 55, 90
21, 22799, Note_on_c, 15, 55, 0
21, 22800, Note_on_c, 15, 52, 90
21, 22829, Note_on_c, 15, 52, 0
21, 22830, Note_on_c, 15, 54, 90
21, 22859, Note_on_c, 15, 54, 0
21, 22860, Note_on_c, 15, 50, 90
21, 22889, Note_on_c, 15, 50, 0
21, 22890, Note_on_c, 15, 49, 90
21, 22919, Note_on_c, 15, 49, 0
21, 22920, Note_on_c, 15, 50, 90
21, 22949, Note_on_c, 15, 50, 0
21, 22950, Note_on_c, 15, 52, 90
21, 22979, Note_on_c, 15, 52, 0
21, 22980, Note_on_c, 15, 49, 90
21, 23009, Note_on_c, 15, 49, 0
21, 23010, Note_on_c, 15, 50, 90
21, 23039, Note_on_c, 15, 50, 0
21, 23040, Note_on_c, 15, 47, 90
21, 23069, Note_on_c, 15, 47, 0
21, 23100, Note_on_c, 15, 59, 90
21, 23129, Note_on_c, 15, 59, 0
21, 23160, Note_on_c, 15, 57, 90
21, 23189, Note_on_c, 15, 57, 0
21, 23220, Note_on_c, 15, 56, 90
21, 23294, Note_on_c, 15, 56, 0
21, 23295, Note_on_c, 15, 57, 90
21, 23309, Note_on_c, 15, 57, 0
21, 23310, Note_on_c, 15, 56, 90
21, 23324, Note_on_c, 15, 56, 0
21, 23325, Note_on_c, 15, 54, 90
21, 23339, Note_on_c, 15, 54, 0
21, 23340, Note_on_c, 15, 52, 90
21, 23354, Note_on_c, 15, 52, 0
21, 23355, Note_on_c, 15, 50, 90
21, 23369, Note_on_c, 15, 50, 0
21, 23370, Note_on_c, 15, 49, 90
21, 23384, Note_on_c, 15, 49, 0
21, 23385, Note_on_c, 15, 47, 90
21, 23399, Note_on_c, 15, 47, 0
21, 23400, Note_on_c, 15, 45, 90
21, 23429, Note_on_c, 15, 45, 0
21, 23460, Note_on_c, 15, 57, 90
21, 23489, Note_on_c, 15, 57, 0
21, 23520, Note_on_c, 15, 55, 90
21, 23549, Note_on_c, 15, 55, 0
21, 23580, Note_on_c, 15, 54, 90
21, 23654, Note_on_c, 15, 54, 0
21, 23655, Note_on_c, 15, 55, 90
21, 23669, Note_on_c, 15, 55, 0
21, 23670, Note_on_c, 15, 54, 90
21, 23684, Note_on_c, 15, 54, 0
21, 23685, Note_on_c, 15, 52, 90
21, 23699, Note_on_c, 15, 52, 0
21, 23700, Note_on_c, 15, 50, 90
21, 23714, Note_on_c, 15, 50, 0
21, 23715, Note_on_c, 15, 49, 90
21, 23729, Note_on_c, 15, 49, 0
21, 23730, Note_on_c, 15, 47, 90
21, 23744, Note_on_c, 15, 47, 0
21, 23745, Note_on_c, 15, 45, 90
21, 23759, Note_on_c, 15, 45, 0
21, 23760, Note_on_c, 15, 43, 90
21, 23819, Note_on_c, 15, 43, 0
21, 23820, Note_on_c, 15, 55, 90
21, 23849, Note_on_c, 15, 55, 0
21, 23880, Note_on_c, 15, 54, 90
21, 23909, Note_on_c, 15, 54, 0
21, 23940, Note_on_c, 15, 52, 90
21, 23969, Note_on_c, 15, 52, 0
21, 24000, Note_on_c, 15, 47, 90
21, 24029, Note_on_c, 15, 47, 0
21, 24060, Note_on_c, 15, 50, 90
21, 24089, Note_on_c, 15, 50, 0
21, 24120, Note_on_c, 15, 49, 90
21, 24149, Note_on_c, 15, 49, 0
21, 24180, Note_on_c, 15, 47, 90
21, 24209, Note_on_c, 15, 47, 0
21, 24240, Note_on_c, 15, 45, 90
21, 24269, Note_on_c, 15, 45, 0
21, 24300, Note_on_c, 15, 50, 90
21, 24329, Note_on_c, 15, 50, 0
21, 24360, Note_on_c, 15, 42, 90
21, 24389, Note_on_c, 15, 42, 0
21, 24420, Note_on_c, 15, 45, 90
21, 24449, Note_on_c, 15, 45, 0
21, 24480, Note_on_c, 15, 38, 90
21, 24539, Note_on_c, 15, 38, 0
21, 24540, Note_on_c, 15, 62, 90
21, 24599, Note_on_c, 15, 62, 0
21, 24600, Note_on_c, 15, 61, 90
21, 24659, Note_on_c, 15, 61, 0
21, 24660, Note_on_c, 15, 59, 90
21, 24719, Note_on_c, 15, 59, 0
21, 24720, Note_on_c, 15, 47, 90
21, 24779, Note_on_c, 15, 47, 0
21, 24780, Note_on_c, 15, 59, 90
21, 24839, Note_on_c, 15, 59, 0
21, 24840, Note_on_c, 15, 57, 90
21, 24899, Note_on_c, 15, 57, 0
21, 24900, Note_on_c, 15, 45, 90
21, 24959, Note_on_c, 15, 45, 0
21, 24960, Note_on_c, 15, 57, 90
21, 25019, Note_on_c, 15, 57, 0
21, 25020, Note_on_c, 15, 55, 90
21, 25079, Note_on_c, 15, 55, 0
21, 25080, Note_on_c, 15, 43, 90
21, 25139, Note_on_c, 15, 43, 0
21, 25140, Note_on_c, 15, 55, 90
21, 25199, Note_on_c, 15, 55, 0
21, 25200, Note_on_c, 15, 54, 90
21, 25259, Note_on_c, 15, 54, 0
21, 25260, Note_on_c, 15, 42, 90
21, 25319, Note_on_c, 15, 42, 0
21, 25320, Note_on_c, 15, 54, 90
21, 25379, Note_on_c, 15, 54, 0
21, 25380, Note_on_c, 15, 59, 90
21, 25439, Note_on_c, 15, 59, 0
21, 25440, Note_on_c, 15, 55, 90
21, 25499, Note_on_c, 15, 55, 0
21, 25500, Note_on_c, 15, 52, 90
21, 25559, Note_on_c, 15, 52, 0
21, 25560, Note_on_c, 15, 57, 90
21, 25619, Note_on_c, 15, 57, 0
21, 25620, Note_on_c, 15, 59, 90
21, 25649, Note_on_c, 15, 59, 0
21, 25650, Note_on_c, 15, 61, 90
21, 25679, Note_on_c, 15, 61, 0
21, 25680, Note_on_c, 15, 62, 90
21, 25799, Note_on_c, 15, 62, 0
21, 25800, Note_on_c, 15, 61, 90
21, 25829, Note_on_c, 15, 61, 0
21, 25830, Note_on_c, 15, 59, 90
21, 25859, Note_on_c, 15, 59, 0
21, 25860, Note_on_c, 15, 57, 90
21, 25889, Note_on_c, 15, 57, 0
21, 25890, Note_on_c, 15, 55, 90
21, 25919, Note_on_c, 15, 55, 0
21, 25920, Note_on_c, 15, 54, 90
21, 25979, Note_on_c, 15, 54, 0
21, 25980, Note_on_c, 15, 56, 90
21, 26009, Note_on_c, 15, 56, 0
21, 26010, Note_on_c, 15, 58, 90
21, 26039, Note_on_c, 15, 58, 0
21, 26040, Note_on_c, 15, 59, 90
21, 26159, Note_on_c, 15, 59, 0
21, 26160, Note_on_c, 15, 57, 90
21, 26189, Note_on_c, 15, 57, 0
21, 26190, Note_on_c, 15, 55, 90
21, 26219, Note_on_c, 15, 55, 0
21, 26220, Note_on_c, 15, 54, 90
21, 26249, Note_on_c, 15, 54, 0
21, 26250, Note_on_c, 15, 52, 90
21, 26279, Note_on_c, 15, 52, 0
21, 26280, Note_on_c, 15, 50, 90
21, 26339, Note_on_c, 15, 50, 0
21, 26340, Note_on_c, 15, 52, 90
21, 26369, Note_on_c, 15, 52, 0
21, 26370, Note_on_c, 15, 54, 90
21, 26399, Note_on_c, 15, 54, 0
21, 26400, Note_on_c, 15, 55, 90
21, 26519, Note_on_c, 15, 55, 0
21, 26520, Note_on_c, 15, 54, 90
21, 26549, Note_on_c, 15, 54, 0
21, 26550, Note_on_c, 15, 52, 90
21, 26579, Note_on_c, 15, 52, 0
21, 26580, Note_on_c, 15, 50, 90
21, 26609, Note_on_c, 15, 50, 0
21, 26610, Note_on_c, 15, 49, 90
21, 26639, Note_on_c, 15, 49, 0
21, 26640, Note_on_c, 15, 47, 90
21, 26699, Note_on_c, 15, 47, 0
21, 26700, Note_on_c, 15, 49, 90
21, 26729, Note_on_c, 15, 49, 0
21, 26730, Note_on_c, 15, 50, 90
21, 26759, Note_on_c, 15, 50, 0
21, 26760, Note_on_c, 15, 52, 90
21, 26819, Note_on_c, 15, 52, 0
21, 26820, Note_on_c, 15, 45, 90
21, 26879, Note_on_c, 15, 45, 0
21, 26880, Note_on_c, 15, 47, 90
21, 26909, Note_on_c, 15, 47, 0
21, 26910, Note_on_c, 15, 49, 90
21, 26939, Note_on_c, 15, 49, 0
21, 26940, Note_on_c, 15, 50, 90
21, 26999, Note_on_c, 15, 50, 0
21, 27000, Note_on_c, 15, 43, 90
21, 27059, Note_on_c, 15, 43, 0
21, 27060, Note_on_c, 15, 55, 90
21, 27089, Note_on_c, 15, 55, 0
21, 27090, Note_on_c, 15, 54, 90
21, 27119, Note_on_c, 15, 54, 0
21, 27120, Note_on_c, 15, 55, 90
21, 27239, Note_on_c, 15, 55, 0
21, 27240, Note_on_c, 15, 54, 90
21, 27299, Note_on_c, 15, 54, 0
21, 27300, Note_on_c, 15, 59, 90
21, 27359, Note_on_c, 15, 59, 0
21, 27360, Note_on_c, 15, 52, 90
21, 27419, Note_on_c, 15, 52, 0
21, 27420, Note_on_c, 15, 57, 90
21, 27479, Note_on_c, 15, 57, 0
21, 27480, Note_on_c, 15, 45, 90
21, 27539, Note_on_c, 15, 45, 0
21, 27540, Note_on_c, 15, 62, 90
21, 27599, Note_on_c, 15, 62, 0
21, 27600, Note_on_c, 15, 50, 90
21, 27659, Note_on_c, 15, 50, 0
21, 27660, Note_on_c, 15, 62, 90
21, 27719, Note_on_c, 15, 62, 0
21, 27720, Note_on_c, 15, 61, 90
21, 27779, Note_on_c, 15, 61, 0
21, 27780, Note_on_c, 15, 49, 90
21, 27839, Note_on_c, 15, 49, 0
21, 27840, Note_on_c, 15, 61, 90
21, 27899, Note_on_c, 15, 61, 0
21, 27900, Note_on_c, 15, 59, 90
21, 27959, Note_on_c, 15, 59, 0
21, 27960, Note_on_c, 15, 47, 90
21, 28019, Note_on_c, 15, 47, 0
21, 28020, Note_on_c, 15, 59, 90
21, 28079, Note_on_c, 15, 59, 0
21, 28080, Note_on_c, 15, 57, 90
21, 28139, Note_on_c, 15, 57, 0
21, 28140, Note_on_c, 15, 45, 90
21, 28199, Note_on_c, 15, 45, 0
21, 28200, Note_on_c, 15, 57, 90
21, 28259, Note_on_c, 15, 57, 0
21, 28260, Note_on_c, 15, 50, 90
21, 28319, Note_on_c, 15, 50, 0
21, 28320, Note_on_c, 15, 38, 90
21, 28379, Note_on_c, 15, 38, 0
21, 28380, Note_on_c, 15, 50, 90
21, 28439, Note_on_c, 15, 50, 0
21, 28440, Note_on_c, 15, 55, 90
21, 28499, Note_on_c, 15, 55, 0
21, 28500, Note_on_c, 15, 52, 90
21, 28559, Note_on_c, 15, 52, 0
21, 28560, Note_on_c, 15, 49, 90
21, 28619, Note_on_c, 15, 49, 0
21, 28620, Note_on_c, 15, 54, 90
21, 28679, Note_on_c, 15, 54, 0
21, 28680, Note_on_c, 15, 55, 90
21, 28709, Note_on_c, 15, 55, 0
21, 28710, Note_on_c, 15, 57, 90
21, 28739, Note_on_c, 15, 57, 0
21, 28740, Note_on_c, 15, 59, 90
21, 28799, Note_on_c, 15, 59, 0
21, 28800, Note_on_c, 15, 52, 90
21, 28859, Note_on_c, 15, 52, 0
21, 28860, Note_on_c, 15, 57, 90
21, 28919, Note_on_c, 15, 57, 0
21, 28920, Note_on_c, 15, 45, 90
21, 28979, Note_on_c, 15, 45, 0
21, 28980, Note_on_c, 15, 50, 90
21, 29039, Note_on_c, 15, 50, 0
21, 29040, Note_on_c, 15, 52, 90
21, 29069, Note_on_c, 15, 52, 0
21, 29070, Note_on_c, 15, 54, 90
21, 29099, Note_on_c, 15, 54, 0
21, 29100, Note_on_c, 15, 55, 90
21, 29159, Note_on_c, 15, 55, 0
21, 29160, Note_on_c, 15, 49, 90
21, 29219, Note_on_c, 15, 49, 0
21, 29220, Note_on_c, 15, 54, 90
21, 29279, Note_on_c, 15, 54, 0
21, 29280, Note_on_c, 15, 42, 90
21, 29339, Note_on_c, 15, 42, 0
21, 29340, Note_on_c, 15, 47, 90
21, 29399, Note_on_c, 15, 47, 0
21, 29400, Note_on_c, 15, 49, 90
21, 29429, Note_on_c, 15, 49, 0
21, 29430, Note_on_c, 15, 50, 90
21, 29459, Note_on_c, 15, 50, 0
21, 29460, Note_on_c, 15, 52, 90
21, 29579, Note_on_c, 15, 52, 0
21, 29580, Note_on_c, 15, 50, 90
21, 29639, Note_on_c, 15, 50, 0
21, 29640, Note_on_c, 15, 55, 90
21, 29759, Note_on_c, 15, 55, 0
21, 29760, Note_on_c, 15, 54, 90
21, 29819, Note_on_c, 15, 54, 0
21, 29820, Note_on_c, 15, 59, 90
21, 29939, Note_on_c, 15, 59, 0
21, 29940, Note_on_c, 15, 57, 90
21, 29999, Note_on_c, 15, 57, 0
21, 30000, Note_on_c, 15, 62, 90
21, 30059, Note_on_c, 15, 62, 0
21, 30060, Note_on_c, 15, 56, 90
21, 30119, Note_on_c, 15, 56, 0
21, 30120, Note_on_c, 15, 58, 90
21, 30179, Note_on_c, 15, 58, 0
21, 30180, Note_on_c, 15, 59, 90
21, 30239, Note_on_c, 15, 59, 0
21, 30240, Note_on_c, 15, 55, 90
21, 30299, Note_on_c, 15, 55, 0
21, 30300, Note_on_c, 15, 52, 90
21, 30359, Note_on_c, 15, 52, 0
21, 30360, Note_on_c, 15, 54, 90
21, 30419, Note_on_c, 15, 54, 0
21, 30420, Note_on_c, 15, 47, 90
21, 30479, Note_on_c, 15, 47, 0
21, 30480, Note_on_c, 15, 50, 90
21, 30539, Note_on_c, 15, 50, 0
21, 30540, Note_on_c, 15, 47, 90
21, 30599, Note_on_c, 15, 47, 0
21, 30600, Note_on_c, 15, 54, 90
21, 30719, Note_on_c, 15, 54, 0
21, 30780, Note_on_c, 15, 54, 90
21, 30839, Note_on_c, 15, 54, 0
21, 30840, Note_on_c, 15, 58, 90
21, 30899, Note_on_c, 15, 58, 0
21, 30900, Note_on_c, 15, 54, 90
21, 30959, Note_on_c, 15, 54, 0
21, 30960, Note_on_c, 15, 59, 90
21, 31079, Note_on_c, 15, 59, 0
21, 31140, Note_on_c, 15, 51, 90
21, 31169, Note_on_c, 15, 51, 0
21, 31170, Note_on_c, 15, 52, 90
21, 31199, Note_on_c, 15, 52, 0
21, 31200, Note_on_c, 15, 51, 90
21, 31229, Note_on_c, 15, 51, 0
21, 31230, Note_on_c, 15, 49, 90
21, 31259, Note_on_c, 15, 49, 0
21, 31260, Note_on_c, 15, 51, 90
21, 31289, Note_on_c, 15, 51, 0
21, 31290, Note_on_c, 15, 47, 90
21, 31319, Note_on_c, 15, 47, 0
21, 31320, Note_on_c, 15, 52, 90
21, 31379, Note_on_c, 15, 52, 0
21, 31380, Note_on_c, 15, 40, 90
21, 31439, Note_on_c, 15, 40, 0
21, 31440, Note_on_c, 15, 52, 90
21, 31529, Note_on_c, 15, 52, 0
21, 31530, Note_on_c, 15, 55, 90
21, 31559, Note_on_c, 15, 55, 0
21, 31560, Note_on_c, 15, 54, 90
21, 31589, Note_on_c, 15, 54, 0
21, 31590, Note_on_c, 15, 52, 90
21, 31619, Note_on_c, 15, 52, 0
21, 31620, Note_on_c, 15, 54, 90
21, 31649, Note_on_c, 15, 54, 0
21, 31650, Note_on_c, 15, 50, 90
21, 31679, Note_on_c, 15, 50, 0
21, 31680, Note_on_c, 15, 55, 90
21, 31709, Note_on_c, 15, 55, 0
21, 31710, Note_on_c, 15, 57, 90
21, 31739, Note_on_c, 15, 57, 0
21, 31740, Note_on_c, 15, 55, 90
21, 31769, Note_on_c, 15, 55, 0
21, 31770, Note_on_c, 15, 54, 90
21, 31799, Note_on_c, 15, 54, 0
21, 31800, Note_on_c, 15, 52, 90
21, 31829, Note_on_c, 15, 52, 0
21, 31830, Note_on_c, 15, 50, 90
21, 31859, Note_on_c, 15, 50, 0
21, 31860, Note_on_c, 15, 49, 90
21, 31889, Note_on_c, 15, 49, 0
21, 31890, Note_on_c, 15, 47, 90
21, 31919, Note_on_c, 15, 47, 0
21, 31920, Note_on_c, 15, 46, 90
21, 31949, Note_on_c, 15, 46, 0
21, 31950, Note_on_c, 15, 44, 90
21, 31979, Note_on_c, 15, 44, 0
21, 31980, Note_on_c, 15, 46, 90
21, 32009, Note_on_c, 15, 46, 0
21, 32010, Note_on_c, 15, 42, 90
21, 32039, Note_on_c, 15, 42, 0
21, 32040, Note_on_c, 15, 47, 90
21, 32069, Note_on_c, 15, 47, 0
21, 32070, Note_on_c, 15, 54, 90
21, 32099, Note_on_c, 15, 54, 0
21, 32100, Note_on_c, 15, 59, 90
21, 32129, Note_on_c, 15, 59, 0
21, 32130, Note_on_c, 15, 57, 90
21, 32159, Note_on_c, 15, 57, 0
21, 32160, Note_on_c, 15, 55, 90
21, 32189, Note_on_c, 15, 55, 0
21, 32190, Note_on_c, 15, 54, 90
21, 32219, Note_on_c, 15, 54, 0
21, 32220, Note_on_c, 15, 52, 90
21, 32249, Note_on_c, 15, 52, 0
21, 32250, Note_on_c, 15, 50, 90
21, 32279, Note_on_c, 15, 50, 0
21, 32280, Note_on_c, 15, 49, 90
21, 32309, Note_on_c, 15, 49, 0
21, 32310, Note_on_c, 15, 47, 90
21, 32339, Note_on_c, 15, 47, 0
21, 32340, Note_on_c, 15, 49, 90
21, 32369, Note_on_c, 15, 49, 0
21, 32370, Note_on_c, 15, 45, 90
21, 32399, Note_on_c, 15, 45, 0
21, 32400, Note_on_c, 15, 50, 90
21, 32459, Note_on_c, 15, 50, 0
21, 32460, Note_on_c, 15, 50, 90
21, 32519, Note_on_c, 15, 50, 0
21, 32520, Note_on_c, 15, 50, 90
21, 32579, Note_on_c, 15, 50, 0
21, 32580, Note_on_c, 15, 50, 90
21, 32639, Note_on_c, 15, 50, 0
21, 32640, Note_on_c, 15, 49, 90
21, 32669, Note_on_c, 15, 49, 0
21, 32670, Note_on_c, 15, 47, 90
21, 32699, Note_on_c, 15, 47, 0
21, 32700, Note_on_c, 15, 49, 90
21, 32729, Note_on_c, 15, 49, 0
21, 32730, Note_on_c, 15, 50, 90
21, 32759, Note_on_c, 15, 50, 0
21, 32760, Note_on_c, 15, 52, 90
21, 32819, Note_on_c, 15, 52, 0
21, 32820, Note_on_c, 15, 52, 90
21, 32879, Note_on_c, 15, 52, 0
21, 32880, Note_on_c, 15, 52, 90
21, 32939, Note_on_c, 15, 52, 0
21, 32940, Note_on_c, 15, 52, 90
21, 32999, Note_on_c, 15, 52, 0
21, 33000, Note_on_c, 15, 50, 90
21, 33029, Note_on_c, 15, 50, 0
21, 33030, Note_on_c, 15, 49, 90
21, 33059, Note_on_c, 15, 49, 0
21, 33060, Note_on_c, 15, 50, 90
21, 33089, Note_on_c, 15, 50, 0
21, 33090, Note_on_c, 15, 52, 90
21, 33119, Note_on_c, 15, 52, 0
21, 33120, Note_on_c, 15, 54, 90
21, 33179, Note_on_c, 15, 54, 0
21, 33180, Note_on_c, 15, 52, 90
21, 33239, Note_on_c, 15, 52, 0
21, 33240, Note_on_c, 15, 54, 90
21, 33299, Note_on_c, 15, 54, 0
21, 33300, Note_on_c, 15, 47, 90
21, 33329, Note_on_c, 15, 47, 0
21, 33330, Note_on_c, 15, 45, 90
21, 33359, Note_on_c, 15, 45, 0
21, 33360, Note_on_c, 15, 47, 90
21, 33389, Note_on_c, 15, 47, 0
21, 33390, Note_on_c, 15, 49, 90
21, 33419, Note_on_c, 15, 49, 0
21, 33420, Note_on_c, 15, 45, 90
21, 33449, Note_on_c, 15, 45, 0
21, 33450, Note_on_c, 15, 47, 90
21, 33479, Note_on_c, 15, 47, 0
21, 33480, Note_on_c, 15, 44, 90
21, 33509, Note_on_c, 15, 44, 0
21, 33510, Note_on_c, 15, 54, 90
21, 33539, Note_on_c, 15, 54, 0
21, 33540, Note_on_c, 15, 52, 90
21, 33569, Note_on_c, 15, 52, 0
21, 33570, Note_on_c, 15, 54, 90
21, 33599, Note_on_c, 15, 54, 0
21, 33600, Note_on_c, 15, 50, 90
21, 33629, Note_on_c, 15, 50, 0
21, 33630, Note_on_c, 15, 52, 90
21, 33659, Note_on_c, 15, 52, 0
21, 33660, Note_on_c, 15, 49, 90
21, 33689, Note_on_c, 15, 49, 0
21, 33690, Note_on_c, 15, 47, 90
21, 33719, Note_on_c, 15, 47, 0
21, 33720, Note_on_c, 15, 49, 90
21, 33749, Note_on_c, 15, 49, 0
21, 33750, Note_on_c, 15, 50, 90
21, 33779, Note_on_c, 15, 50, 0
21, 33780, Note_on_c, 15, 47, 90
21, 33809, Note_on_c, 15, 47, 0
21, 33810, Note_on_c, 15, 49, 90
21, 33839, Note_on_c, 15, 49, 0
21, 33840, Note_on_c, 15, 45, 90
21, 33869, Note_on_c, 15, 45, 0
21, 33870, Note_on_c, 15, 57, 90
21, 33899, Note_on_c, 15, 57, 0
21, 33900, Note_on_c, 15, 55, 90
21, 33929, Note_on_c, 15, 55, 0
21, 33930, Note_on_c, 15, 57, 90
21, 33959, Note_on_c, 15, 57, 0
21, 33960, Note_on_c, 15, 54, 90
21, 33989, Note_on_c, 15, 54, 0
21, 33990, Note_on_c, 15, 55, 90
21, 34019, Note_on_c, 15, 55, 0
21, 34020, Note_on_c, 15, 52, 90
21, 34049, Note_on_c, 15, 52, 0
21, 34050, Note_on_c, 15, 50, 90
21, 34079, Note_on_c, 15, 50, 0
21, 34080, Note_on_c, 15, 52, 90
21, 34109, Note_on_c, 15, 52, 0
21, 34110, Note_on_c, 15, 54, 90
21, 34139, Note_on_c, 15, 54, 0
21, 34140, Note_on_c, 15, 50, 90
21, 34169, Note_on_c, 15, 50, 0
21, 34170, Note_on_c, 15, 52, 90
21, 34199, Note_on_c, 15, 52, 0
21, 34200, Note_on_c, 15, 49, 90
21, 34229, Note_on_c, 15, 49, 0
21, 34230, Note_on_c, 15, 59, 90
21, 34259, Note_on_c, 15, 59, 0
21, 34260, Note_on_c, 15, 57, 90
21, 34289, Note_on_c, 15, 57, 0
21, 34290, Note_on_c, 15, 59, 90
21, 34319, Note_on_c, 15, 59, 0
21, 34320, Note_on_c, 15, 55, 90
21, 34349, Note_on_c, 15, 55, 0
21, 34350, Note_on_c, 15, 57, 90
21, 34379, Note_on_c, 15, 57, 0
21, 34380, Note_on_c, 15, 54, 90
21, 34409, Note_on_c, 15, 54, 0
21, 34410, Note_on_c, 15, 52, 90
21, 34439, Note_on_c, 15, 52, 0
21, 34440, Note_on_c, 15, 54, 90
21, 34469, Note_on_c, 15, 54, 0
21, 34470, Note_on_c, 15, 55, 90
21, 34499, Note_on_c, 15, 55, 0
21, 34500, Note_on_c, 15, 52, 90
21, 34529, Note_on_c, 15, 52, 0
21, 34530, Note_on_c, 15, 54, 90
21, 34559, Note_on_c, 15, 54, 0
21, 34560, Note_on_c, 15, 50, 90
21, 34619, Note_on_c, 15, 50, 0
21, 34620, Note_on_c, 15, 62, 90
21, 34679, Note_on_c, 15, 62, 0
21, 34680, Note_on_c, 15, 61, 90
21, 34739, Note_on_c, 15, 61, 0
21, 34740, Note_on_c, 15, 59, 90
21, 34814, Note_on_c, 15, 59, 0
21, 34815, Note_on_c, 15, 61, 90
21, 34829, Note_on_c, 15, 61, 0
21, 34830, Note_on_c, 15, 59, 90
21, 34844, Note_on_c, 15, 59, 0
21, 34845, Note_on_c, 15, 57, 90
21, 34859, Note_on_c, 15, 57, 0
21, 34860, Note_on_c, 15, 56, 90
21, 34874, Note_on_c, 15, 56, 0
21, 34875, Note_on_c, 15, 54, 90
21, 34889, Note_on_c, 15, 54, 0
21, 34890, Note_on_c, 15, 52, 90
21, 34904, Note_on_c, 15, 52, 0
21, 34905, Note_on_c, 15, 50, 90
21, 34919, Note_on_c, 15, 50, 0
21, 34920, Note_on_c, 15, 49, 90
21, 34949, Note_on_c, 15, 49, 0
21, 34980, Note_on_c, 15, 61, 90
21, 35009, Note_on_c, 15, 61, 0
21, 35040, Note_on_c, 15, 59, 90
21, 35069, Note_on_c, 15, 59, 0
21, 35100, Note_on_c, 15, 58, 90
21, 35174, Note_on_c, 15, 58, 0
21, 35175, Note_on_c, 15, 59, 90
21, 35189, Note_on_c, 15, 59, 0
21, 35190, Note_on_c, 15, 58, 90
21, 35204, Note_on_c, 15, 58, 0
21, 35205, Note_on_c, 15, 56, 90
21, 35219, Note_on_c, 15, 56, 0
21, 35220, Note_on_c, 15, 54, 90
21, 35234, Note_on_c, 15, 54, 0
21, 35235, Note_on_c, 15, 52, 90
21, 35249, Note_on_c, 15, 52, 0
21, 35250, Note_on_c, 15, 50, 90
21, 35264, Note_on_c, 15, 50, 0
21, 35265, Note_on_c, 15, 49, 90
21, 35279, Note_on_c, 15, 49, 0
21, 35280, Note_on_c, 15, 47, 90
21, 35339, Note_on_c, 15, 47, 0
21, 35340, Note_on_c, 15, 59, 90
21, 35399, Note_on_c, 15, 59, 0
21, 35400, Note_on_c, 15, 57, 90
21, 35459, Note_on_c, 15, 57, 0
21, 35460, Note_on_c, 15, 56, 90
21, 35519, Note_on_c, 15, 56, 0
21, 35520, Note_on_c, 15, 51, 90
21, 35579, Note_on_c, 15, 51, 0
21, 35580, Note_on_c, 15, 54, 90
21, 35639, Note_on_c, 15, 54, 0
21, 35640, Note_on_c, 15, 53, 90
21, 35699, Note_on_c, 15, 53, 0
21, 35700, Note_on_c, 15, 56, 90
21, 35759, Note_on_c, 15, 56, 0
21, 35760, Note_on_c, 15, 59, 90
21, 35819, Note_on_c, 15, 59, 0
21, 35820, Note_on_c, 15, 57, 90
21, 35879, Note_on_c, 15, 57, 0
21, 35880, Note_on_c, 15, 45, 90
21, 35939, Note_on_c, 15, 45, 0
21, 35940, Note_on_c, 15, 49, 90
21, 35999, Note_on_c, 15, 49, 0
21, 36000, Note_on_c, 15, 42, 90
21, 36179, Note_on_c, 15, 42, 0
21, 36300, Note_on_c, 15, 38, 90
21, 36359, Note_on_c, 15, 38, 0
21, 36660, Note_on_c, 15, 38, 90
21, 36719, Note_on_c, 15, 38, 0
21, 37020, Note_on_c, 15, 38, 90
21, 37079, Note_on_c, 15, 38, 0
21, 37380, Note_on_c, 15, 38, 90
21, 37395, Control_c, 15, 0, 40
21, 37395, Control_c, 15, 0, 40
21, 37395, Program_c, 15, 42
21, 37395, Note_on_c, 15, 62, 90
21, 37409, Note_on_c, 15, 62, 0
21, 37410, Note_on_c, 15, 61, 90
21, 37424, Note_on_c, 15, 61, 0
21, 37425, Note_on_c, 15, 59, 90
21, 37439, Note_on_c, 15, 59, 0
21, 37439, Note_on_c, 15, 38, 0
21, 37440, Note_on_c, 15, 57, 90
21, 37454, Note_on_c, 15, 57, 0
21, 37455, Note_on_c, 15, 62, 90
21, 37469, Note_on_c, 15, 62, 0
21, 37470, Note_on_c, 15, 61, 90
21, 37484, Note_on_c, 15, 61, 0
21, 37485, Note_on_c, 15, 59, 90
21, 37499, Note_on_c, 15, 59, 0
21, 37500, Note_on_c, 15, 57, 90
21, 37514, Note_on_c, 15, 57, 0
21, 37515, Note_on_c, 15, 55, 90
21, 37529, Note_on_c, 15, 55, 0
21, 37530, Note_on_c, 15, 54, 90
21, 37544, Note_on_c, 15, 54, 0
21, 37545, Note_on_c, 15, 52, 90
21, 37559, Note_on_c, 15, 52, 0
21, 37560, Note_on_c, 15, 50, 90
21, 37574, Note_on_c, 15, 50, 0
21, 37575, Control_c, 15, 0, 101
21, 37575, Control_c, 15, 0, 101
21, 37575, Program_c, 15, 42
21, 37575, Note_on_c, 15, 50, 90
21, 37589, Note_on_c, 15, 50, 0
21, 37590, Note_on_c, 15, 49, 90
21, 37604, Note_on_c, 15, 49, 0
21, 37605, Note_on_c, 15, 47, 90
21, 37619, Note_on_c, 15, 47, 0
21, 37620, Note_on_c, 15, 45, 90
21, 37634, Note_on_c, 15, 45, 0
21, 37635, Note_on_c, 15, 50, 90
21, 37649, Note_on_c, 15, 50, 0
21, 37650, Note_on_c, 15, 49, 90
21, 37664, Note_on_c, 15, 49, 0
21, 37665, Note_on_c, 15, 47, 90
21, 37679, Note_on_c, 15, 47, 0
21, 37680, Note_on_c, 15, 45, 90
21, 37694, Note_on_c, 15, 45, 0
21, 37695, Note_on_c, 15, 43, 90
21, 37709, Note_on_c, 15, 43, 0
21, 37710, Note_on_c, 15, 42, 90
21, 37724, Note_on_c, 15, 42, 0
21, 37725, Note_on_c, 15, 40, 90
21, 37739, Note_on_c, 15, 40, 0
21, 37740, Note_on_c, 15, 38, 90
21, 37799, Note_on_c, 15, 38, 0
21, 37800, Note_on_c, 15, 42, 90
21, 37859, Note_on_c, 15, 42, 0
21, 37860, Note_on_c, 15, 38, 90
21, 37919, Note_on_c, 15, 38, 0
21, 37920, Note_on_c, 15, 45, 90
21, 37979, Note_on_c, 15, 45, 0
21, 38100, Note_on_c, 15, 45, 90
21, 38159, Note_on_c, 15, 45, 0
21, 38160, Note_on_c, 15, 49, 90
21, 38219, Note_on_c, 15, 49, 0
21, 38220, Note_on_c, 15, 45, 90
21, 38279, Note_on_c, 15, 45, 0
21, 38280, Note_on_c, 15, 50, 90
21, 38339, Note_on_c, 15, 50, 0
21, 38460, Note_on_c, 15, 50, 90
21, 38489, Note_on_c, 15, 50, 0
21, 38490, Note_on_c, 15, 52, 90
21, 38519, Note_on_c, 15, 52, 0
21, 38520, Note_on_c, 15, 54, 90
21, 38549, Note_on_c, 15, 54, 0
21, 38550, Note_on_c, 15, 52, 90
21, 38579, Note_on_c, 15, 52, 0
21, 38580, Note_on_c, 15, 54, 90
21, 38609, Note_on_c, 15, 54, 0
21, 38610, Note_on_c, 15, 50, 90
21, 38639, Note_on_c, 15, 50, 0
21, 38640, Note_on_c, 15, 55, 90
21, 38669, Note_on_c, 15, 55, 0
21, 38670, Note_on_c, 15, 57, 90
21, 38699, Note_on_c, 15, 57, 0
21, 38700, Note_on_c, 15, 54, 90
21, 38729, Note_on_c, 15, 54, 0
21, 38730, Note_on_c, 15, 55, 90
21, 38759, Note_on_c, 15, 55, 0
21, 38760, Note_on_c, 15, 52, 90
21, 38789, Note_on_c, 15, 52, 0
21, 38790, Note_on_c, 15, 54, 90
21, 38819, Note_on_c, 15, 54, 0
21, 38820, Note_on_c, 15, 50, 90
21, 38849, Note_on_c, 15, 50, 0
21, 38850, Note_on_c, 15, 62, 90
21, 38879, Note_on_c, 15, 62, 0
21, 38880, Note_on_c, 15, 61, 90
21, 38909, Note_on_c, 15, 61, 0
21, 38910, Note_on_c, 15, 62, 90
21, 38939, Note_on_c, 15, 62, 0
21, 38940, Note_on_c, 15, 59, 90
21, 38969, Note_on_c, 15, 59, 0
21, 38970, Note_on_c, 15, 61, 90
21, 38999, Note_on_c, 15, 61, 0
21, 39000, Note_on_c, 15, 57, 90
21, 39029, Note_on_c, 15, 57, 0
21, 39030, Note_on_c, 15, 55, 90
21, 39059, Note_on_c, 15, 55, 0
21, 39060, Note_on_c, 15, 57, 90
21, 39089, Note_on_c, 15, 57, 0
21, 39090, Note_on_c, 15, 59, 90
21, 39119, Note_on_c, 15, 59, 0
21, 39120, Note_on_c, 15, 55, 90
21, 39149, Note_on_c, 15, 55, 0
21, 39150, Note_on_c, 15, 57, 90
21, 39179, Note_on_c, 15, 57, 0
21, 39180, Note_on_c, 15, 54, 90
21, 39209, Note_on_c, 15, 54, 0
21, 39210, Note_on_c, 15, 52, 90
21, 39239, Note_on_c, 15, 52, 0
21, 39240, Note_on_c, 15, 54, 90
21, 39269, Note_on_c, 15, 54, 0
21, 39270, Note_on_c, 15, 55, 90
21, 39299, Note_on_c, 15, 55, 0
21, 39300, Note_on_c, 15, 52, 90
21, 39329, Note_on_c, 15, 52, 0
21, 39330, Note_on_c, 15, 54, 90
21, 39359, Note_on_c, 15, 54, 0
21, 39360, Note_on_c, 15, 51, 90
21, 39389, Note_on_c, 15, 51, 0
21, 39390, Note_on_c, 15, 60, 90
21, 39419, Note_on_c, 15, 60, 0
21, 39420, Note_on_c, 15, 59, 90
21, 39449, Note_on_c, 15, 59, 0
21, 39450, Note_on_c, 15, 60, 90
21, 39479, Note_on_c, 15, 60, 0
21, 39480, Note_on_c, 15, 57, 90
21, 39509, Note_on_c, 15, 57, 0
21, 39510, Note_on_c, 15, 59, 90
21, 39539, Note_on_c, 15, 59, 0
21, 39540, Note_on_c, 15, 55, 90
21, 39569, Note_on_c, 15, 55, 0
21, 39570, Note_on_c, 15, 54, 90
21, 39599, Note_on_c, 15, 54, 0
21, 39600, Note_on_c, 15, 55, 90
21, 39629, Note_on_c, 15, 55, 0
21, 39630, Note_on_c, 15, 57, 90
21, 39659, Note_on_c, 15, 57, 0
21, 39660, Note_on_c, 15, 54, 90
21, 39689, Note_on_c, 15, 54, 0
21, 39690, Note_on_c, 15, 55, 90
21, 39719, Note_on_c, 15, 55, 0
21, 39720, Note_on_c, 15, 52, 90
21, 39749, Note_on_c, 15, 52, 0
21, 39750, Note_on_c, 15, 51, 90
21, 39779, Note_on_c, 15, 51, 0
21, 39780, Note_on_c, 15, 52, 90
21, 39809, Note_on_c, 15, 52, 0
21, 39810, Note_on_c, 15, 54, 90
21, 39839, Note_on_c, 15, 54, 0
21, 39840, Note_on_c, 15, 50, 90
21, 39869, Note_on_c, 15, 50, 0
21, 39870, Note_on_c, 15, 52, 90
21, 39899, Note_on_c, 15, 52, 0
21, 39900, Note_on_c, 15, 49, 90
21, 39929, Note_on_c, 15, 49, 0
21, 39930, Note_on_c, 15, 47, 90
21, 39959, Note_on_c, 15, 47, 0
21, 39960, Note_on_c, 15, 49, 90
21, 39989, Note_on_c, 15, 49, 0
21, 39990, Note_on_c, 15, 50, 90
21, 40019, Note_on_c, 15, 50, 0
21, 40020, Note_on_c, 15, 47, 90
21, 40049, Note_on_c, 15, 47, 0
21, 40050, Note_on_c, 15, 49, 90
21, 40079, Note_on_c, 15, 49, 0
21, 40080, Note_on_c, 15, 45, 90
21, 40109, Note_on_c, 15, 45, 0
21, 40110, Note_on_c, 15, 57, 90
21, 40139, Note_on_c, 15, 57, 0
21, 40140, Note_on_c, 15, 55, 90
21, 40169, Note_on_c, 15, 55, 0
21, 40170, Note_on_c, 15, 57, 90
21, 40199, Note_on_c, 15, 57, 0
21, 40200, Note_on_c, 15, 55, 90
21, 40229, Note_on_c, 15, 55, 0
21, 40230, Note_on_c, 15, 57, 90
21, 40259, Note_on_c, 15, 57, 0
21, 40260, Note_on_c, 15, 54, 90
21, 40289, Note_on_c, 15, 54, 0
21, 40290, Note_on_c, 15, 52, 90
21, 40319, Note_on_c, 15, 52, 0
21, 40320, Note_on_c, 15, 54, 90
21, 40349, Note_on_c, 15, 54, 0
21, 40350, Note_on_c, 15, 55, 90
21, 40379, Note_on_c, 15, 55, 0
21, 40380, Note_on_c, 15, 52, 90
21, 40409, Note_on_c, 15, 52, 0
21, 40410, Note_on_c, 15, 54, 90
21, 40439, Note_on_c, 15, 54, 0
21, 40440, Note_on_c, 15, 50, 90
21, 40469, Note_on_c, 15, 50, 0
21, 40470, Note_on_c, 15, 49, 90
21, 40499, Note_on_c, 15, 49, 0
21, 40500, Note_on_c, 15, 50, 90
21, 40529, Note_on_c, 15, 50, 0
21, 40530, Note_on_c, 15, 52, 90
21, 40559, Note_on_c, 15, 52, 0
21, 40560, Note_on_c, 15, 49, 90
21, 40589, Note_on_c, 15, 49, 0
21, 40590, Note_on_c, 15, 50, 90
21, 40619, Note_on_c, 15, 50, 0
21, 40620, Note_on_c, 15, 47, 90
21, 40649, Note_on_c, 15, 47, 0
21, 40680, Note_on_c, 15, 59, 90
21, 40709, Note_on_c, 15, 59, 0
21, 40740, Note_on_c, 15, 57, 90
21, 40769, Note_on_c, 15, 57, 0
21, 40800, Note_on_c, 15, 56, 90
21, 40874, Note_on_c, 15, 56, 0
21, 40875, Note_on_c, 15, 57, 90
21, 40889, Note_on_c, 15, 57, 0
21, 40890, Note_on_c, 15, 56, 90
21, 40904, Note_on_c, 15, 56, 0
21, 40905, Note_on_c, 15, 54, 90
21, 40919, Note_on_c, 15, 54, 0
21, 40920, Note_on_c, 15, 52, 90
21, 40934, Note_on_c, 15, 52, 0
21, 40935, Note_on_c, 15, 50, 90
21, 40949, Note_on_c, 15, 50, 0
21, 40950, Note_on_c, 15, 49, 90
21, 40964, Note_on_c, 15, 49, 0
21, 40965, Note_on_c, 15, 47, 90
21, 40979, Note_on_c, 15, 47, 0
21, 40980, Note_on_c, 15, 45, 90
21, 41009, Note_on_c, 15, 45, 0
21, 41040, Note_on_c, 15, 57, 90
21, 41069, Note_on_c, 15, 57, 0
21, 41100, Note_on_c, 15, 55, 90
21, 41129, Note_on_c, 15, 55, 0
21, 41160, Note_on_c, 15, 54, 90
21, 41234, Note_on_c, 15, 54, 0
21, 41235, Note_on_c, 15, 55, 90
21, 41249, Note_on_c, 15, 55, 0
21, 41250, Note_on_c, 15, 54, 90
21, 41264, Note_on_c, 15, 54, 0
21, 41265, Note_on_c, 15, 52, 90
21, 41279, Note_on_c, 15, 52, 0
21, 41280, Note_on_c, 15, 50, 90
21, 41294, Note_on_c, 15, 50, 0
21, 41295, Note_on_c, 15, 48, 90
21, 41309, Note_on_c, 15, 48, 0
21, 41310, Note_on_c, 15, 47, 90
21, 41324, Note_on_c, 15, 47, 0
21, 41325, Note_on_c, 15, 45, 90
21, 41339, Note_on_c, 15, 45, 0
21, 41340, Note_on_c, 15, 43, 90
21, 41369, Note_on_c, 15, 43, 0
21, 41400, Note_on_c, 15, 55, 90
21, 41429, Note_on_c, 15, 55, 0
21, 41460, Note_on_c, 15, 54, 90
21, 41489, Note_on_c, 15, 54, 0
21, 41520, Note_on_c, 15, 52, 90
21, 41549, Note_on_c, 15, 52, 0
21, 41580, Note_on_c, 15, 47, 90
21, 41609, Note_on_c, 15, 47, 0
21, 41640, Note_on_c, 15, 50, 90
21, 41669, Note_on_c, 15, 50, 0
21, 41700, Note_on_c, 15, 49, 90
21, 41729, Note_on_c, 15, 49, 0
21, 41760, Note_on_c, 15, 52, 90
21, 41789, Note_on_c, 15, 52, 0
21, 41820, Note_on_c, 15, 45, 90
21, 41849, Note_on_c, 15, 45, 0
21, 41880, Note_on_c, 15, 50, 90
21, 41909, Note_on_c, 15, 50, 0
21, 41940, Note_on_c, 15, 42, 90
21, 41969, Note_on_c, 15, 42, 0
21, 42000, Note_on_c, 15, 45, 90
21, 42029, Note_on_c, 15, 45, 0
21, 42060, Note_on_c, 15, 38, 90
21, 42119, Note_on_c, 15, 38, 0
21, 42420, Note_on_c, 15, 38, 90
21, 42479, Note_on_c, 15, 38, 0
21, 42780, Note_on_c, 15, 38, 90
21, 42839, Note_on_c, 15, 38, 0
21, 43140, Note_on_c, 15, 38, 90
21, 43199, Note_on_c, 15, 38, 0
21, 43500, Note_on_c, 15, 38, 90
21, 43515, Control_c, 15, 0, 40
21, 43515, Control_c, 15, 0, 40
21, 43515, Program_c, 15, 42
21, 43515, Note_on_c, 15, 62, 90
21, 43529, Note_on_c, 15, 62, 0
21, 43530, Note_on_c, 15, 61, 90
21, 43544, Note_on_c, 15, 61, 0
21, 43545, Note_on_c, 15, 59, 90
21, 43559, Note_on_c, 15, 59, 0
21, 43559, Note_on_c, 15, 38, 0
21, 43560, Note_on_c, 15, 57, 90
21, 43574, Note_on_c, 15, 57, 0
21, 43575, Note_on_c, 15, 62, 90
21, 43589, Note_on_c, 15, 62, 0
21, 43590, Note_on_c, 15, 61, 90
21, 43604, Note_on_c, 15, 61, 0
21, 43605, Note_on_c, 15, 59, 90
21, 43619, Note_on_c, 15, 59, 0
21, 43620, Note_on_c, 15, 57, 90
21, 43634, Note_on_c, 15, 57, 0
21, 43635, Note_on_c, 15, 55, 90
21, 43649, Note_on_c, 15, 55, 0
21, 43650, Note_on_c, 15, 54, 90
21, 43664, Note_on_c, 15, 54, 0
21, 43665, Note_on_c, 15, 52, 90
21, 43679, Note_on_c, 15, 52, 0
21, 43680, Note_on_c, 15, 50, 90
21, 43694, Note_on_c, 15, 50, 0
21, 43695, Control_c, 15, 0, 101
21, 43695, Control_c, 15, 0, 101
21, 43695, Program_c, 15, 42
21, 43695, Note_on_c, 15, 50, 90
21, 43709, Note_on_c, 15, 50, 0
21, 43710, Note_on_c, 15, 49, 90
21, 43724, Note_on_c, 15, 49, 0
21, 43725, Note_on_c, 15, 47, 90
21, 43739, Note_on_c, 15, 47, 0
21, 43740, Note_on_c, 15, 45, 90
21, 43754, Note_on_c, 15, 45, 0
21, 43755, Note_on_c, 15, 50, 90
21, 43769, Note_on_c, 15, 50, 0
21, 43770, Note_on_c, 15, 49, 90
21, 43784, Note_on_c, 15, 49, 0
21, 43785, Note_on_c, 15, 47, 90
21, 43799, Note_on_c, 15, 47, 0
21, 43800, Note_on_c, 15, 45, 90
21, 43814, Note_on_c, 15, 45, 0
21, 43815, Note_on_c, 15, 43, 90
21, 43829, Note_on_c, 15, 43, 0
21, 43830, Note_on_c, 15, 42, 90
21, 43844, Note_on_c, 15, 42, 0
21, 43845, Note_on_c, 15, 40, 90
21, 43859, Note_on_c, 15, 40, 0
21, 43860, Note_on_c, 15, 38, 90
21, 43919, Note_on_c, 15, 38, 0
21, 43920, Note_on_c, 15, 42, 90
21, 43979, Note_on_c, 15, 42, 0
21, 43980, Note_on_c, 15, 38, 90
21, 44039, Note_on_c, 15, 38, 0
21, 44040, Note_on_c, 15, 45, 90
21, 44159, Note_on_c, 15, 45, 0
21, 44220, Note_on_c, 15, 45, 90
21, 44279, Note_on_c, 15, 45, 0
21, 44280, Note_on_c, 15, 49, 90
21, 44339, Note_on_c, 15, 49, 0
21, 44340, Note_on_c, 15, 45, 90
21, 44399, Note_on_c, 15, 45, 0
21, 44400, Note_on_c, 15, 50, 90
21, 44519, Note_on_c, 15, 50, 0
21, 44580, Note_on_c, 15, 50, 90
21, 44609, Note_on_c, 15, 50, 0
21, 44610, Note_on_c, 15, 52, 90
21, 44639, Note_on_c, 15, 52, 0
21, 44640, Note_on_c, 15, 54, 90
21, 44669, Note_on_c, 15, 54, 0
21, 44670, Note_on_c, 15, 52, 90
21, 44699, Note_on_c, 15, 52, 0
21, 44700, Note_on_c, 15, 54, 90
21, 44729, Note_on_c, 15, 54, 0
21, 44730, Note_on_c, 15, 50, 90
21, 44759, Note_on_c, 15, 50, 0
21, 44760, Note_on_c, 15, 55, 90
21, 44789, Note_on_c, 15, 55, 0
21, 44790, Note_on_c, 15, 57, 90
21, 44819, Note_on_c, 15, 57, 0
21, 44820, Note_on_c, 15, 54, 90
21, 44849, Note_on_c, 15, 54, 0
21, 44850, Note_on_c, 15, 55, 90
21, 44879, Note_on_c, 15, 55, 0
21, 44880, Note_on_c, 15, 52, 90
21, 44909, Note_on_c, 15, 52, 0
21, 44910, Note_on_c, 15, 54, 90
21, 44939, Note_on_c, 15, 54, 0
21, 44940, Note_on_c, 15, 50, 90
21, 44969, Note_on_c, 15, 50, 0
21, 44970, Note_on_c, 15, 62, 90
21, 44999, Note_on_c, 15, 62, 0
21, 45000, Note_on_c, 15, 61, 90
21, 45029, Note_on_c, 15, 61, 0
21, 45030, Note_on_c, 15, 62, 90
21, 45059, Note_on_c, 15, 62, 0
21, 45060, Note_on_c, 15, 59, 90
21, 45089, Note_on_c, 15, 59, 0
21, 45090, Note_on_c, 15, 61, 90
21, 45119, Note_on_c, 15, 61, 0
21, 45120, Note_on_c, 15, 57, 90
21, 45179, Note_on_c, 15, 57, 0
21, 45180, Note_on_c, 15, 45, 90
21, 45239, Note_on_c, 15, 45, 0
21, 45330, Note_on_c, 15, 57, 90
21, 45359, Note_on_c, 15, 57, 0
21, 45360, Note_on_c, 15, 55, 90
21, 45389, Note_on_c, 15, 55, 0
21, 45390, Note_on_c, 15, 57, 90
21, 45419, Note_on_c, 15, 57, 0
21, 45420, Note_on_c, 15, 54, 90
21, 45449, Note_on_c, 15, 54, 0
21, 45450, Note_on_c, 15, 55, 90
21, 45479, Note_on_c, 15, 55, 0
21, 45480, Note_on_c, 15, 52, 90
21, 45509, Note_on_c, 15, 52, 0
21, 45510, Note_on_c, 15, 51, 90
21, 45539, Note_on_c, 15, 51, 0
21, 45540, Note_on_c, 15, 52, 90
21, 45569, Note_on_c, 15, 52, 0
21, 45570, Note_on_c, 15, 55, 90
21, 45599, Note_on_c, 15, 55, 0
21, 45600, Note_on_c, 15, 54, 90
21, 45629, Note_on_c, 15, 54, 0
21, 45630, Note_on_c, 15, 57, 90
21, 45659, Note_on_c, 15, 57, 0
21, 45660, Note_on_c, 15, 55, 90
21, 45689, Note_on_c, 15, 55, 0
21, 45690, Note_on_c, 15, 54, 90
21, 45719, Note_on_c, 15, 54, 0
21, 45720, Note_on_c, 15, 55, 90
21, 45749, Note_on_c, 15, 55, 0
21, 45750, Note_on_c, 15, 59, 90
21, 45779, Note_on_c, 15, 59, 0
21, 45780, Note_on_c, 15, 57, 90
21, 45809, Note_on_c, 15, 57, 0
21, 45810, Note_on_c, 15, 61, 90
21, 45839, Note_on_c, 15, 61, 0
21, 45840, Note_on_c, 15, 59, 90
21, 45869, Note_on_c, 15, 59, 0
21, 45870, Note_on_c, 15, 57, 90
21, 45899, Note_on_c, 15, 57, 0
21, 45900, Note_on_c, 15, 59, 90
21, 45929, Note_on_c, 15, 59, 0
21, 45930, Note_on_c, 15, 62, 90
21, 45959, Note_on_c, 15, 62, 0
21, 45960, Note_on_c, 15, 61, 90
21, 45989, Note_on_c, 15, 61, 0
21, 45990, Note_on_c, 15, 64, 90
21, 46019, Note_on_c, 15, 64, 0
21, 46020, Note_on_c, 15, 62, 90
21, 46049, Note_on_c, 15, 62, 0
21, 46050, Note_on_c, 15, 64, 90
21, 46079, Note_on_c, 15, 64, 0
21, 46080, Note_on_c, 15, 61, 90
21, 46109, Note_on_c, 15, 61, 0
21, 46110, Note_on_c, 15, 62, 90
21, 46139, Note_on_c, 15, 62, 0
21, 46140, Note_on_c, 15, 59, 90
21, 46169, Note_on_c, 15, 59, 0
21, 46170, Note_on_c, 15, 61, 90
21, 46199, Note_on_c, 15, 61, 0
21, 46200, Note_on_c, 15, 57, 90
21, 46259, Note_on_c, 15, 57, 0
21, 46260, Note_on_c, 15, 45, 90
21, 46289, Note_on_c, 15, 45, 0
21, 46290, Note_on_c, 15, 49, 90
21, 46319, Note_on_c, 15, 49, 0
21, 46320, Note_on_c, 15, 47, 90
21, 46349, Note_on_c, 15, 47, 0
21, 46350, Note_on_c, 15, 50, 90
21, 46379, Note_on_c, 15, 50, 0
21, 46380, Note_on_c, 15, 49, 90
21, 46409, Note_on_c, 15, 49, 0
21, 46410, Note_on_c, 15, 47, 90
21, 46439, Note_on_c, 15, 47, 0
21, 46440, Note_on_c, 15, 49, 90
21, 46469, Note_on_c, 15, 49, 0
21, 46470, Note_on_c, 15, 52, 90
21, 46499, Note_on_c, 15, 52, 0
21, 46500, Note_on_c, 15, 51, 90
21, 46529, Note_on_c, 15, 51, 0
21, 46530, Note_on_c, 15, 54, 90
21, 46559, Note_on_c, 15, 54, 0
21, 46560, Note_on_c, 15, 52, 90
21, 46589, Note_on_c, 15, 52, 0
21, 46590, Note_on_c, 15, 50, 90
21, 46619, Note_on_c, 15, 50, 0
21, 46620, Note_on_c, 15, 52, 90
21, 46649, Note_on_c, 15, 52, 0
21, 46650, Note_on_c, 15, 55, 90
21, 46679, Note_on_c, 15, 55, 0
21, 46680, Note_on_c, 15, 54, 90
21, 46709, Note_on_c, 15, 54, 0
21, 46710, Note_on_c, 15, 57, 90
21, 46739, Note_on_c, 15, 57, 0
21, 46740, Note_on_c, 15, 55, 90
21, 46769, Note_on_c, 15, 55, 0
21, 46770, Note_on_c, 15, 57, 90
21, 46799, Note_on_c, 15, 57, 0
21, 46800, Note_on_c, 15, 54, 90
21, 46829, Note_on_c, 15, 54, 0
21, 46830, Note_on_c, 15, 55, 90
21, 46859, Note_on_c, 15, 55, 0
21, 46860, Note_on_c, 15, 52, 90
21, 46889, Note_on_c, 15, 52, 0
21, 46890, Note_on_c, 15, 54, 90
21, 46919, Note_on_c, 15, 54, 0
21, 46920, Note_on_c, 15, 50, 90
21, 46949, Note_on_c, 15, 50, 0
21, 46950, Note_on_c, 15, 49, 90
21, 46979, Note_on_c, 15, 49, 0
21, 46980, Note_on_c, 15, 50, 90
21, 47009, Note_on_c, 15, 50, 0
21, 47010, Note_on_c, 15, 54, 90
21, 47039, Note_on_c, 15, 54, 0
21, 47040, Note_on_c, 15, 52, 90
21, 47069, Note_on_c, 15, 52, 0
21, 47070, Note_on_c, 15, 55, 90
21, 47099, Note_on_c, 15, 55, 0
21, 47100, Note_on_c, 15, 54, 90
21, 47129, Note_on_c, 15, 54, 0
21, 47130, Note_on_c, 15, 52, 90
21, 47159, Note_on_c, 15, 52, 0
21, 47160, Note_on_c, 15, 54, 90
21, 47189, Note_on_c, 15, 54, 0
21, 47190, Note_on_c, 15, 57, 90
21, 47219, Note_on_c, 15, 57, 0
21, 47220, Note_on_c, 15, 56, 90
21, 47249, Note_on_c, 15, 56, 0
21, 47250, Note_on_c, 15, 59, 90
21, 47279, Note_on_c, 15, 59, 0
21, 47280, Note_on_c, 15, 57, 90
21, 47309, Note_on_c, 15, 57, 0
21, 47310, Note_on_c, 15, 56, 90
21, 47339, Note_on_c, 15, 56, 0
21, 47340, Note_on_c, 15, 57, 90
21, 47369, Note_on_c, 15, 57, 0
21, 47370, Note_on_c, 15, 59, 90
21, 47399, Note_on_c, 15, 59, 0
21, 47400, Note_on_c, 15, 57, 90
21, 47429, Note_on_c, 15, 57, 0
21, 47430, Note_on_c, 15, 59, 90
21, 47459, Note_on_c, 15, 59, 0
21, 47460, Note_on_c, 15, 55, 90
21, 47489, Note_on_c, 15, 55, 0
21, 47490, Note_on_c, 15, 54, 90
21, 47519, Note_on_c, 15, 54, 0
21, 47520, Note_on_c, 15, 55, 90
21, 47549, Note_on_c, 15, 55, 0
21, 47550, Note_on_c, 15, 57, 90
21, 47579, Note_on_c, 15, 57, 0
21, 47580, Note_on_c, 15, 54, 90
21, 47609, Note_on_c, 15, 54, 0
21, 47610, Note_on_c, 15, 55, 90
21, 47639, Note_on_c, 15, 55, 0
21, 47640, Note_on_c, 15, 52, 90
21, 47669, Note_on_c, 15, 52, 0
21, 47670, Note_on_c, 15, 50, 90
21, 47699, Note_on_c, 15, 50, 0
21, 47700, Note_on_c, 15, 52, 90
21, 47729, Note_on_c, 15, 52, 0
21, 47730, Note_on_c, 15, 54, 90
21, 47759, Note_on_c, 15, 54, 0
21, 47760, Note_on_c, 15, 50, 90
21, 47789, Note_on_c, 15, 50, 0
21, 47790, Note_on_c, 15, 52, 90
21, 47819, Note_on_c, 15, 52, 0
21, 47820, Note_on_c, 15, 49, 90
21, 47849, Note_on_c, 15, 49, 0
21, 47850, Note_on_c, 15, 47, 90
21, 47879, Note_on_c, 15, 47, 0
21, 47880, Note_on_c, 15, 49, 90
21, 47909, Note_on_c, 15, 49, 0
21, 47910, Note_on_c, 15, 50, 90
21, 47939, Note_on_c, 15, 50, 0
21, 47940, Note_on_c, 15, 47, 90
21, 47969, Note_on_c, 15, 47, 0
21, 47970, Note_on_c, 15, 49, 90
21, 47999, Note_on_c, 15, 49, 0
21, 48000, Note_on_c, 15, 46, 90
21, 48029, Note_on_c, 15, 46, 0
21, 48030, Note_on_c, 15, 55, 90
21, 48059, Note_on_c, 15, 55, 0
21, 48060, Note_on_c, 15, 54, 90
21, 48089, Note_on_c, 15, 54, 0
21, 48090, Note_on_c, 15, 55, 90
21, 48119, Note_on_c, 15, 55, 0
21, 48120, Note_on_c, 15, 52, 90
21, 48149, Note_on_c, 15, 52, 0
21, 48150, Note_on_c, 15, 54, 90
21, 48179, Note_on_c, 15, 54, 0
21, 48180, Note_on_c, 15, 50, 90
21, 48209, Note_on_c, 15, 50, 0
21, 48210, Note_on_c, 15, 49, 90
21, 48239, Note_on_c, 15, 49, 0
21, 48240, Note_on_c, 15, 50, 90
21, 48269, Note_on_c, 15, 50, 0
21, 48270, Note_on_c, 15, 52, 90
21, 48299, Note_on_c, 15, 52, 0
21, 48300, Note_on_c, 15, 49, 90
21, 48329, Note_on_c, 15, 49, 0
21, 48330, Note_on_c, 15, 50, 90
21, 48359, Note_on_c, 15, 50, 0
21, 48360, Note_on_c, 15, 47, 90
21, 48389, Note_on_c, 15, 47, 0
21, 48390, Note_on_c, 15, 46, 90
21, 48419, Note_on_c, 15, 46, 0
21, 48420, Note_on_c, 15, 47, 90
21, 48449, Note_on_c, 15, 47, 0
21, 48450, Note_on_c, 15, 49, 90
21, 48479, Note_on_c, 15, 49, 0
21, 48480, Note_on_c, 15, 45, 90
21, 48509, Note_on_c, 15, 45, 0
21, 48510, Note_on_c, 15, 47, 90
21, 48539, Note_on_c, 15, 47, 0
21, 48540, Note_on_c, 15, 44, 90
21, 48569, Note_on_c, 15, 44, 0
21, 48570, Note_on_c, 15, 42, 90
21, 48599, Note_on_c, 15, 42, 0
21, 48600, Note_on_c, 15, 44, 90
21, 48629, Note_on_c, 15, 44, 0
21, 48630, Note_on_c, 15, 45, 90
21, 48659, Note_on_c, 15, 45, 0
21, 48660, Note_on_c, 15, 42, 90
21, 48689, Note_on_c, 15, 42, 0
21, 48690, Note_on_c, 15, 44, 90
21, 48719, Note_on_c, 15, 44, 0
21, 48720, Note_on_c, 15, 40, 90
21, 48749, Note_on_c, 15, 40, 0
21, 48750, Note_on_c, 15, 54, 90
21, 48779, Note_on_c, 15, 54, 0
21, 48780, Note_on_c, 15, 52, 90
21, 48809, Note_on_c, 15, 52, 0
21, 48810, Note_on_c, 15, 54, 90
21, 48839, Note_on_c, 15, 54, 0
21, 48840, Note_on_c, 15, 50, 90
21, 48869, Note_on_c, 15, 50, 0
21, 48870, Note_on_c, 15, 52, 90
21, 48899, Note_on_c, 15, 52, 0
21, 48900, Note_on_c, 15, 49, 90
21, 48929, Note_on_c, 15, 49, 0
21, 48930, Note_on_c, 15, 47, 90
21, 48959, Note_on_c, 15, 47, 0
21, 48960, Note_on_c, 15, 49, 90
21, 48989, Note_on_c, 15, 49, 0
21, 48990, Note_on_c, 15, 50, 90
21, 49019, Note_on_c, 15, 50, 0
21, 49020, Note_on_c, 15, 47, 90
21, 49049, Note_on_c, 15, 47, 0
21, 49050, Note_on_c, 15, 49, 90
21, 49079, Note_on_c, 15, 49, 0
21, 49080, Note_on_c, 15, 45, 90
21, 49109, Note_on_c, 15, 45, 0
21, 49110, Note_on_c, 15, 44, 90
21, 49139, Note_on_c, 15, 44, 0
21, 49140, Note_on_c, 15, 45, 90
21, 49169, Note_on_c, 15, 45, 0
21, 49170, Note_on_c, 15, 47, 90
21, 49199, Note_on_c, 15, 47, 0
21, 49200, Note_on_c, 15, 44, 90
21, 49229, Note_on_c, 15, 44, 0
21, 49230, Note_on_c, 15, 45, 90
21, 49259, Note_on_c, 15, 45, 0
21, 49260, Note_on_c, 15, 42, 90
21, 49289, Note_on_c, 15, 42, 0
21, 49320, Note_on_c, 15, 54, 90
21, 49349, Note_on_c, 15, 54, 0
21, 49380, Note_on_c, 15, 52, 90
21, 49409, Note_on_c, 15, 52, 0
21, 49440, Note_on_c, 15, 51, 90
21, 49514, Note_on_c, 15, 51, 0
21, 49515, Note_on_c, 15, 52, 90
21, 49529, Note_on_c, 15, 52, 0
21, 49530, Note_on_c, 15, 51, 90
21, 49544, Note_on_c, 15, 51, 0
21, 49545, Note_on_c, 15, 49, 90
21, 49559, Note_on_c, 15, 49, 0
21, 49560, Note_on_c, 15, 47, 90
21, 49574, Note_on_c, 15, 47, 0
21, 49575, Note_on_c, 15, 45, 90
21, 49589, Note_on_c, 15, 45, 0
21, 49590, Note_on_c, 15, 44, 90
21, 49604, Note_on_c, 15, 44, 0
21, 49605, Note_on_c, 15, 42, 90
21, 49619, Note_on_c, 15, 42, 0
21, 49620, Note_on_c, 15, 40, 90
21, 49649, Note_on_c, 15, 40, 0
21, 49680, Note_on_c, 15, 52, 90
21, 49709, Note_on_c, 15, 52, 0
21, 49740, Note_on_c, 15, 50, 90
21, 49769, Note_on_c, 15, 50, 0
21, 49800, Note_on_c, 15, 49, 90
21, 49874, Note_on_c, 15, 49, 0
21, 49875, Note_on_c, 15, 50, 90
21, 49889, Note_on_c, 15, 50, 0
21, 49890, Note_on_c, 15, 49, 90
21, 49904, Note_on_c, 15, 49, 0
21, 49905, Note_on_c, 15, 47, 90
21, 49919, Note_on_c, 15, 47, 0
21, 49920, Note_on_c, 15, 45, 90
21, 49934, Note_on_c, 15, 45, 0
21, 49935, Note_on_c, 15, 43, 90
21, 49949, Note_on_c, 15, 43, 0
21, 49950, Note_on_c, 15, 42, 90
21, 49964, Note_on_c, 15, 42, 0
21, 49965, Note_on_c, 15, 40, 90
21, 49979, Note_on_c, 15, 40, 0
21, 49980, Note_on_c, 15, 38, 90
21, 50009, Note_on_c, 15, 38, 0
21, 50040, Note_on_c, 15, 50, 90
21, 50069, Note_on_c, 15, 50, 0
21, 50100, Note_on_c, 15, 49, 90
21, 50129, Note_on_c, 15, 49, 0
21, 50160, Note_on_c, 15, 47, 90
21, 50189, Note_on_c, 15, 47, 0
21, 50220, Note_on_c, 15, 42, 90
21, 50249, Note_on_c, 15, 42, 0
21, 50280, Note_on_c, 15, 45, 90
21, 50309, Note_on_c, 15, 45, 0
21, 50340, Note_on_c, 15, 44, 90
21, 50369, Note_on_c, 15, 44, 0
21, 50400, Note_on_c, 15, 42, 90
21, 50429, Note_on_c, 15, 42, 0
21, 50460, Note_on_c, 15, 40, 90
21, 50489, Note_on_c, 15, 40, 0
21, 50520, Note_on_c, 15, 45, 90
21, 50549, Note_on_c, 15, 45, 0
21, 50580, Note_on_c, 15, 38, 90
21, 50609, Note_on_c, 15, 38, 0
21, 50640, Note_on_c, 15, 40, 90
21, 50669, Note_on_c, 15, 40, 0
21, 50700, Note_on_c, 15, 45, 90
21, 50729, Note_on_c, 15, 45, 0
21, 50760, Note_on_c, 15, 49, 90
21, 50819, Note_on_c, 15, 49, 0
21, 50820, Note_on_c, 15, 45, 90
21, 50879, Note_on_c, 15, 45, 0
21, 50880, Note_on_c, 15, 52, 90
21, 50939, Note_on_c, 15, 52, 0
21, 51060, Note_on_c, 15, 52, 90
21, 51119, Note_on_c, 15, 52, 0
21, 51120, Note_on_c, 15, 56, 90
21, 51179, Note_on_c, 15, 56, 0
21, 51180, Note_on_c, 15, 52, 90
21, 51239, Note_on_c, 15, 52, 0
21, 51240, Note_on_c, 15, 57, 90
21, 51299, Note_on_c, 15, 57, 0
21, 51420, Note_on_c, 15, 58, 90
21, 51449, Note_on_c, 15, 58, 0
21, 51450, Note_on_c, 15, 58, 90
21, 51479, Note_on_c, 15, 58, 0
21, 51480, Note_on_c, 15, 58, 90
21, 51509, Note_on_c, 15, 58, 0
21, 51510, Note_on_c, 15, 58, 90
21, 51539, Note_on_c, 15, 58, 0
21, 51540, Note_on_c, 15, 58, 90
21, 51569, Note_on_c, 15, 58, 0
21, 51570, Note_on_c, 15, 58, 90
21, 51599, Note_on_c, 15, 58, 0
21, 51600, Note_on_c, 15, 59, 90
21, 51629, Note_on_c, 15, 59, 0
21, 51660, Note_on_c, 15, 47, 90
21, 51689, Note_on_c, 15, 47, 0
21, 51720, Note_on_c, 15, 59, 90
21, 51749, Note_on_c, 15, 59, 0
21, 51780, Note_on_c, 15, 54, 90
21, 51809, Note_on_c, 15, 54, 0
21, 51840, Note_on_c, 15, 42, 90
21, 51869, Note_on_c, 15, 42, 0
21, 51900, Note_on_c, 15, 43, 90
21, 51929, Note_on_c, 15, 43, 0
21, 51960, Note_on_c, 15, 45, 90
21, 51989, Note_on_c, 15, 45, 0
21, 52020, Note_on_c, 15, 49, 90
21, 52049, Note_on_c, 15, 49, 0
21, 52080, Note_on_c, 15, 45, 90
21, 52109, Note_on_c, 15, 45, 0
21, 52140, Note_on_c, 15, 50, 90
21, 52199, Note_on_c, 15, 50, 0
21, 52500, Note_on_c, 15, 38, 90
21, 52559, Note_on_c, 15, 38, 0
21, 52860, Note_on_c, 15, 50, 90
21, 52919, Note_on_c, 15, 50, 0
21, 53220, Note_on_c, 15, 38, 90
21, 53279, Note_on_c, 15, 38, 0
21, 53580, Note_on_c, 15, 50, 90
21, 53595, Control_c, 15, 0, 40
21, 53595, Control_c, 15, 0, 40
21, 53595, Program_c, 15, 42
21, 53595, Note_on_c, 15, 62, 90
21, 53609, Note_on_c, 15, 62, 0
21, 53610, Note_on_c, 15, 61, 90
21, 53624, Note_on_c, 15, 61, 0
21, 53625, Note_on_c, 15, 59, 90
21, 53639, Note_on_c, 15, 59, 0
21, 53639, Note_on_c, 15, 50, 0
21, 53640, Note_on_c, 15, 57, 90
21, 53654, Note_on_c, 15, 57, 0
21, 53655, Note_on_c, 15, 62, 90
21, 53669, Note_on_c, 15, 62, 0
21, 53670, Note_on_c, 15, 61, 90
21, 53684, Note_on_c, 15, 61, 0
21, 53685, Note_on_c, 15, 59, 90
21, 53699, Note_on_c, 15, 59, 0
21, 53700, Note_on_c, 15, 57, 90
21, 53714, Note_on_c, 15, 57, 0
21, 53715, Note_on_c, 15, 55, 90
21, 53729, Note_on_c, 15, 55, 0
21, 53730, Note_on_c, 15, 54, 90
21, 53744, Note_on_c, 15, 54, 0
21, 53745, Note_on_c, 15, 52, 90
21, 53759, Note_on_c, 15, 52, 0
21, 53760, Note_on_c, 15, 50, 90
21, 53774, Note_on_c, 15, 50, 0
21, 53775, Control_c, 15, 0, 101
21, 53775, Control_c, 15, 0, 101
21, 53775, Program_c, 15, 42
21, 53775, Note_on_c, 15, 50, 90
21, 53789, Note_on_c, 15, 50, 0
21, 53790, Note_on_c, 15, 49, 90
21, 53804, Note_on_c, 15, 49, 0
21, 53805, Note_on_c, 15, 47, 90
21, 53819, Note_on_c, 15, 47, 0
21, 53820, Note_on_c, 15, 45, 90
21, 53834, Note_on_c, 15, 45, 0
21, 53835, Note_on_c, 15, 50, 90
21, 53849, Note_on_c, 15, 50, 0
21, 53850, Note_on_c, 15, 49, 90
21, 53864, Note_on_c, 15, 49, 0
21, 53865, Note_on_c, 15, 47, 90
21, 53879, Note_on_c, 15, 47, 0
21, 53880, Note_on_c, 15, 45, 90
21, 53894, Note_on_c, 15, 45, 0
21, 53895, Note_on_c, 15, 43, 90
21, 53909, Note_on_c, 15, 43, 0
21, 53910, Note_on_c, 15, 42, 90
21, 53924, Note_on_c, 15, 42, 0
21, 53925, Note_on_c, 15, 40, 90
21, 53939, Note_on_c, 15, 40, 0
21, 53940, Note_on_c, 15, 38, 90
21, 53999, Note_on_c, 15, 38, 0
21, 54000, Note_on_c, 15, 42, 90
21, 54059, Note_on_c, 15, 42, 0
21, 54060, Note_on_c, 15, 38, 90
21, 54119, Note_on_c, 15, 38, 0
21, 54120, Note_on_c, 15, 45, 90
21, 54239, Note_on_c, 15, 45, 0
21, 54300, Note_on_c, 15, 45, 90
21, 54359, Note_on_c, 15, 45, 0
21, 54360, Note_on_c, 15, 49, 90
21, 54419, Note_on_c, 15, 49, 0
21, 54420, Note_on_c, 15, 45, 90
21, 54479, Note_on_c, 15, 45, 0
21, 54480, Note_on_c, 15, 50, 90
21, 54599, Note_on_c, 15, 50, 0
21, 54660, Note_on_c, 15, 50, 90
21, 54689, Note_on_c, 15, 50, 0
21, 54690, Note_on_c, 15, 52, 90
21, 54719, Note_on_c, 15, 52, 0
21, 54720, Note_on_c, 15, 54, 90
21, 54749, Note_on_c, 15, 54, 0
21, 54750, Note_on_c, 15, 52, 90
21, 54779, Note_on_c, 15, 52, 0
21, 54780, Note_on_c, 15, 54, 90
21, 54809, Note_on_c, 15, 54, 0
21, 54810, Note_on_c, 15, 50, 90
21, 54839, Note_on_c, 15, 50, 0
21, 54840, Note_on_c, 15, 55, 90
21, 54869, Note_on_c, 15, 55, 0
21, 54870, Note_on_c, 15, 57, 90
21, 54899, Note_on_c, 15, 57, 0
21, 54900, Note_on_c, 15, 54, 90
21, 54929, Note_on_c, 15, 54, 0
21, 54930, Note_on_c, 15, 55, 90
21, 54959, Note_on_c, 15, 55, 0
21, 54960, Note_on_c, 15, 52, 90
21, 54989, Note_on_c, 15, 52, 0
21, 54990, Note_on_c, 15, 54, 90
21, 55019, Note_on_c, 15, 54, 0
21, 55020, Note_on_c, 15, 50, 90
21, 55049, Note_on_c, 15, 50, 0
21, 55050, Note_on_c, 15, 62, 90
21, 55079, Note_on_c, 15, 62, 0
21, 55080, Note_on_c, 15, 61, 90
21, 55109, Note_on_c, 15, 61, 0
21, 55110, Note_on_c, 15, 62, 90
21, 55139, Note_on_c, 15, 62, 0
21, 55140, Note_on_c, 15, 59, 90
21, 55169, Note_on_c, 15, 59, 0
21, 55170, Note_on_c, 15, 61, 90
21, 55199, Note_on_c, 15, 61, 0
21, 55200, Note_on_c, 15, 57, 90
21, 55229, Note_on_c, 15, 57, 0
21, 55230, Note_on_c, 15, 59, 90
21, 55259, Note_on_c, 15, 59, 0
21, 55260, Note_on_c, 15, 55, 90
21, 55289, Note_on_c, 15, 55, 0
21, 55290, Note_on_c, 15, 57, 90
21, 55319, Note_on_c, 15, 57, 0
21, 55320, Note_on_c, 15, 54, 90
21, 55349, Note_on_c, 15, 54, 0
21, 55350, Note_on_c, 15, 55, 90
21, 55379, Note_on_c, 15, 55, 0
21, 55380, Note_on_c, 15, 52, 90
21, 55409, Note_on_c, 15, 52, 0
21, 55410, Note_on_c, 15, 54, 90
21, 55439, Note_on_c, 15, 54, 0
21, 55440, Note_on_c, 15, 50, 90
21, 55469, Note_on_c, 15, 50, 0
21, 55470, Note_on_c, 15, 52, 90
21, 55499, Note_on_c, 15, 52, 0
21, 55500, Note_on_c, 15, 49, 90
21, 55529, Note_on_c, 15, 49, 0
21, 55530, Note_on_c, 15, 50, 90
21, 55559, Note_on_c, 15, 50, 0
21, 55560, Note_on_c, 15, 47, 90
21, 55589, Note_on_c, 15, 47, 0
21, 55590, Note_on_c, 15, 59, 90
21, 55619, Note_on_c, 15, 59, 0
21, 55620, Note_on_c, 15, 57, 90
21, 55649, Note_on_c, 15, 57, 0
21, 55650, Note_on_c, 15, 59, 90
21, 55679, Note_on_c, 15, 59, 0
21, 55680, Note_on_c, 15, 55, 90
21, 55709, Note_on_c, 15, 55, 0
21, 55710, Note_on_c, 15, 57, 90
21, 55739, Note_on_c, 15, 57, 0
21, 55740, Note_on_c, 15, 54, 90
21, 55769, Note_on_c, 15, 54, 0
21, 55770, Note_on_c, 15, 55, 90
21, 55799, Note_on_c, 15, 55, 0
21, 55800, Note_on_c, 15, 52, 90
21, 55829, Note_on_c, 15, 52, 0
21, 55830, Note_on_c, 15, 54, 90
21, 55859, Note_on_c, 15, 54, 0
21, 55860, Note_on_c, 15, 50, 90
21, 55889, Note_on_c, 15, 50, 0
21, 55890, Note_on_c, 15, 52, 90
21, 55919, Note_on_c, 15, 52, 0
21, 55920, Note_on_c, 15, 49, 90
21, 55949, Note_on_c, 15, 49, 0
21, 55950, Note_on_c, 15, 47, 90
21, 55979, Note_on_c, 15, 47, 0
21, 55980, Note_on_c, 15, 49, 90
21, 56009, Note_on_c, 15, 49, 0
21, 56010, Note_on_c, 15, 52, 90
21, 56039, Note_on_c, 15, 52, 0
21, 56040, Note_on_c, 15, 51, 90
21, 56069, Note_on_c, 15, 51, 0
21, 56070, Note_on_c, 15, 54, 90
21, 56099, Note_on_c, 15, 54, 0
21, 56100, Note_on_c, 15, 52, 90
21, 56129, Note_on_c, 15, 52, 0
21, 56130, Note_on_c, 15, 54, 90
21, 56159, Note_on_c, 15, 54, 0
21, 56160, Note_on_c, 15, 50, 90
21, 56189, Note_on_c, 15, 50, 0
21, 56190, Note_on_c, 15, 52, 90
21, 56219, Note_on_c, 15, 52, 0
21, 56220, Note_on_c, 15, 49, 90
21, 56249, Note_on_c, 15, 49, 0
21, 56250, Note_on_c, 15, 50, 90
21, 56279, Note_on_c, 15, 50, 0
21, 56280, Note_on_c, 15, 47, 90
21, 56309, Note_on_c, 15, 47, 0
21, 56310, Note_on_c, 15, 49, 90
21, 56339, Note_on_c, 15, 49, 0
21, 56340, Note_on_c, 15, 45, 90
21, 56369, Note_on_c, 15, 45, 0
21, 56370, Note_on_c, 15, 47, 90
21, 56399, Note_on_c, 15, 47, 0
21, 56400, Note_on_c, 15, 43, 90
21, 56429, Note_on_c, 15, 43, 0
21, 56430, Note_on_c, 15, 45, 90
21, 56459, Note_on_c, 15, 45, 0
21, 56460, Note_on_c, 15, 42, 90
21, 56489, Note_on_c, 15, 42, 0
21, 56490, Note_on_c, 15, 40, 90
21, 56519, Note_on_c, 15, 40, 0
21, 56520, Note_on_c, 15, 42, 90
21, 56549, Note_on_c, 15, 42, 0
21, 56550, Note_on_c, 15, 45, 90
21, 56579, Note_on_c, 15, 45, 0
21, 56580, Note_on_c, 15, 44, 90
21, 56609, Note_on_c, 15, 44, 0
21, 56610, Note_on_c, 15, 47, 90
21, 56639, Note_on_c, 15, 47, 0
21, 56640, Note_on_c, 15, 45, 90
21, 56669, Note_on_c, 15, 45, 0
21, 56670, Note_on_c, 15, 49, 90
21, 56699, Note_on_c, 15, 49, 0
21, 56700, Note_on_c, 15, 47, 90
21, 56729, Note_on_c, 15, 47, 0
21, 56730, Note_on_c, 15, 50, 90
21, 56759, Note_on_c, 15, 50, 0
21, 56760, Note_on_c, 15, 49, 90
21, 56789, Note_on_c, 15, 49, 0
21, 56790, Note_on_c, 15, 52, 90
21, 56819, Note_on_c, 15, 52, 0
21, 56820, Note_on_c, 15, 50, 90
21, 56849, Note_on_c, 15, 50, 0
21, 56850, Note_on_c, 15, 52, 90
21, 56879, Note_on_c, 15, 52, 0
21, 56880, Note_on_c, 15, 49, 90
21, 56909, Note_on_c, 15, 49, 0
21, 56910, Note_on_c, 15, 50, 90
21, 56939, Note_on_c, 15, 50, 0
21, 56940, Note_on_c, 15, 47, 90
21, 56969, Note_on_c, 15, 47, 0
21, 56970, Note_on_c, 15, 49, 90
21, 56999, Note_on_c, 15, 49, 0
21, 57000, Note_on_c, 15, 45, 90
21, 57029, Note_on_c, 15, 45, 0
21, 57030, Note_on_c, 15, 57, 90
21, 57059, Note_on_c, 15, 57, 0
21, 57060, Note_on_c, 15, 55, 90
21, 57089, Note_on_c, 15, 55, 0
21, 57090, Note_on_c, 15, 57, 90
21, 57119, Note_on_c, 15, 57, 0
21, 57120, Note_on_c, 15, 54, 90
21, 57149, Note_on_c, 15, 54, 0
21, 57150, Note_on_c, 15, 55, 90
21, 57179, Note_on_c, 15, 55, 0
21, 57180, Note_on_c, 15, 52, 90
21, 57209, Note_on_c, 15, 52, 0
21, 57210, Note_on_c, 15, 50, 90
21, 57239, Note_on_c, 15, 50, 0
21, 57240, Note_on_c, 15, 52, 90
21, 57269, Note_on_c, 15, 52, 0
21, 57270, Note_on_c, 15, 55, 90
21, 57299, Note_on_c, 15, 55, 0
21, 57300, Note_on_c, 15, 54, 90
21, 57329, Note_on_c, 15, 54, 0
21, 57330, Note_on_c, 15, 57, 90
21, 57359, Note_on_c, 15, 57, 0
21, 57360, Note_on_c, 15, 55, 90
21, 57389, Note_on_c, 15, 55, 0
21, 57390, Note_on_c, 15, 57, 90
21, 57419, Note_on_c, 15, 57, 0
21, 57420, Note_on_c, 15, 54, 90
21, 57449, Note_on_c, 15, 54, 0
21, 57450, Note_on_c, 15, 55, 90
21, 57479, Note_on_c, 15, 55, 0
21, 57480, Note_on_c, 15, 52, 90
21, 57509, Note_on_c, 15, 52, 0
21, 57510, Note_on_c, 15, 54, 90
21, 57539, Note_on_c, 15, 54, 0
21, 57540, Note_on_c, 15, 50, 90
21, 57569, Note_on_c, 15, 50, 0
21, 57570, Note_on_c, 15, 62, 90
21, 57599, Note_on_c, 15, 62, 0
21, 57600, Note_on_c, 15, 61, 90
21, 57629, Note_on_c, 15, 61, 0
21, 57630, Note_on_c, 15, 62, 90
21, 57659, Note_on_c, 15, 62, 0
21, 57660, Note_on_c, 15, 59, 90
21, 57689, Note_on_c, 15, 59, 0
21, 57690, Note_on_c, 15, 61, 90
21, 57719, Note_on_c, 15, 61, 0
21, 57720, Note_on_c, 15, 57, 90
21, 57749, Note_on_c, 15, 57, 0
21, 57750, Note_on_c, 15, 55, 90
21, 57779, Note_on_c, 15, 55, 0
21, 57780, Note_on_c, 15, 57, 90
21, 57809, Note_on_c, 15, 57, 0
21, 57810, Note_on_c, 15, 59, 90
21, 57839, Note_on_c, 15, 59, 0
21, 57840, Note_on_c, 15, 55, 90
21, 57869, Note_on_c, 15, 55, 0
21, 57870, Note_on_c, 15, 57, 90
21, 57899, Note_on_c, 15, 57, 0
21, 57900, Note_on_c, 15, 54, 90
21, 57929, Note_on_c, 15, 54, 0
21, 57930, Note_on_c, 15, 52, 90
21, 57959, Note_on_c, 15, 52, 0
21, 57960, Note_on_c, 15, 54, 90
21, 57989, Note_on_c, 15, 54, 0
21, 57990, Note_on_c, 15, 55, 90
21, 58019, Note_on_c, 15, 55, 0
21, 58020, Note_on_c, 15, 52, 90
21, 58049, Note_on_c, 15, 52, 0
21, 58050, Note_on_c, 15, 54, 90
21, 58079, Note_on_c, 15, 54, 0
21, 58080, Note_on_c, 15, 51, 90
21, 58109, Note_on_c, 15, 51, 0
21, 58110, Note_on_c, 15, 60, 90
21, 58139, Note_on_c, 15, 60, 0
21, 58140, Note_on_c, 15, 59, 90
21, 58169, Note_on_c, 15, 59, 0
21, 58170, Note_on_c, 15, 60, 90
21, 58199, Note_on_c, 15, 60, 0
21, 58200, Note_on_c, 15, 57, 90
21, 58229, Note_on_c, 15, 57, 0
21, 58230, Note_on_c, 15, 59, 90
21, 58259, Note_on_c, 15, 59, 0
21, 58260, Note_on_c, 15, 55, 90
21, 58289, Note_on_c, 15, 55, 0
21, 58290, Note_on_c, 15, 54, 90
21, 58319, Note_on_c, 15, 54, 0
21, 58320, Note_on_c, 15, 55, 90
21, 58349, Note_on_c, 15, 55, 0
21, 58350, Note_on_c, 15, 57, 90
21, 58379, Note_on_c, 15, 57, 0
21, 58380, Note_on_c, 15, 54, 90
21, 58409, Note_on_c, 15, 54, 0
21, 58410, Note_on_c, 15, 55, 90
21, 58439, Note_on_c, 15, 55, 0
21, 58440, Note_on_c, 15, 52, 90
21, 58469, Note_on_c, 15, 52, 0
21, 58470, Note_on_c, 15, 51, 90
21, 58499, Note_on_c, 15, 51, 0
21, 58500, Note_on_c, 15, 52, 90
21, 58529, Note_on_c, 15, 52, 0
21, 58530, Note_on_c, 15, 54, 90
21, 58559, Note_on_c, 15, 54, 0
21, 58560, Note_on_c, 15, 50, 90
21, 58589, Note_on_c, 15, 50, 0
21, 58590, Note_on_c, 15, 52, 90
21, 58619, Note_on_c, 15, 52, 0
21, 58620, Note_on_c, 15, 49, 90
21, 58649, Note_on_c, 15, 49, 0
21, 58650, Note_on_c, 15, 47, 90
21, 58679, Note_on_c, 15, 47, 0
21, 58680, Note_on_c, 15, 49, 90
21, 58709, Note_on_c, 15, 49, 0
21, 58710, Note_on_c, 15, 50, 90
21, 58739, Note_on_c, 15, 50, 0
21, 58740, Note_on_c, 15, 47, 90
21, 58769, Note_on_c, 15, 47, 0
21, 58770, Note_on_c, 15, 49, 90
21, 58799, Note_on_c, 15, 49, 0
21, 58800, Note_on_c, 15, 45, 90
21, 58829, Note_on_c, 15, 45, 0
21, 58830, Note_on_c, 15, 59, 90
21, 58859, Note_on_c, 15, 59, 0
21, 58860, Note_on_c, 15, 57, 90
21, 58889, Note_on_c, 15, 57, 0
21, 58890, Note_on_c, 15, 59, 90
21, 58919, Note_on_c, 15, 59, 0
21, 58920, Note_on_c, 15, 55, 90
21, 58949, Note_on_c, 15, 55, 0
21, 58950, Note_on_c, 15, 57, 90
21, 58979, Note_on_c, 15, 57, 0
21, 58980, Note_on_c, 15, 54, 90
21, 59009, Note_on_c, 15, 54, 0
21, 59010, Note_on_c, 15, 52, 90
21, 59039, Note_on_c, 15, 52, 0
21, 59040, Note_on_c, 15, 54, 90
21, 59069, Note_on_c, 15, 54, 0
21, 59070, Note_on_c, 15, 55, 90
21, 59099, Note_on_c, 15, 55, 0
21, 59100, Note_on_c, 15, 52, 90
21, 59129, Note_on_c, 15, 52, 0
21, 59130, Note_on_c, 15, 54, 90
21, 59159, Note_on_c, 15, 54, 0
21, 59160, Note_on_c, 15, 50, 90
21, 59189, Note_on_c, 15, 50, 0
21, 59190, Note_on_c, 15, 49, 90
21, 59219, Note_on_c, 15, 49, 0
21, 59220, Note_on_c, 15, 50, 90
21, 59249, Note_on_c, 15, 50, 0
21, 59250, Note_on_c, 15, 52, 90
21, 59279, Note_on_c, 15, 52, 0
21, 59280, Note_on_c, 15, 49, 90
21, 59309, Note_on_c, 15, 49, 0
21, 59310, Note_on_c, 15, 50, 90
21, 59339, Note_on_c, 15, 50, 0
21, 59340, Note_on_c, 15, 47, 90
21, 59369, Note_on_c, 15, 47, 0
21, 59400, Note_on_c, 15, 59, 90
21, 59429, Note_on_c, 15, 59, 0
21, 59460, Note_on_c, 15, 57, 90
21, 59489, Note_on_c, 15, 57, 0
21, 59520, Note_on_c, 15, 56, 90
21, 59594, Note_on_c, 15, 56, 0
21, 59595, Note_on_c, 15, 57, 90
21, 59609, Note_on_c, 15, 57, 0
21, 59610, Note_on_c, 15, 56, 90
21, 59624, Note_on_c, 15, 56, 0
21, 59625, Note_on_c, 15, 54, 90
21, 59639, Note_on_c, 15, 54, 0
21, 59640, Note_on_c, 15, 52, 90
21, 59654, Note_on_c, 15, 52, 0
21, 59655, Note_on_c, 15, 50, 90
21, 59669, Note_on_c, 15, 50, 0
21, 59670, Note_on_c, 15, 49, 90
21, 59684, Note_on_c, 15, 49, 0
21, 59685, Note_on_c, 15, 47, 90
21, 59699, Note_on_c, 15, 47, 0
21, 59700, Note_on_c, 15, 45, 90
21, 59729, Note_on_c, 15, 45, 0
21, 59760, Note_on_c, 15, 57, 90
21, 59789, Note_on_c, 15, 57, 0
21, 59820, Note_on_c, 15, 55, 90
21, 59849, Note_on_c, 15, 55, 0
21, 59880, Note_on_c, 15, 54, 90
21, 59954, Note_on_c, 15, 54, 0
21, 59955, Note_on_c, 15, 55, 90
21, 59969, Note_on_c, 15, 55, 0
21, 59970, Note_on_c, 15, 54, 90
21, 59984, Note_on_c, 15, 54, 0
21, 59985, Note_on_c, 15, 52, 90
21, 59999, Note_on_c, 15, 52, 0
21, 60000, Note_on_c, 15, 50, 90
21, 60014, Note_on_c, 15, 50, 0
21, 60015, Note_on_c, 15, 49, 90
21, 60029, Note_on_c, 15, 49, 0
21, 60030, Note_on_c, 15, 47, 90
21, 60044, Note_on_c, 15, 47, 0
21, 60045, Note_on_c, 15, 45, 90
21, 60059, Note_on_c, 15, 45, 0
21, 60060, Note_on_c, 15, 43, 90
21, 60119, Note_on_c, 15, 43, 0
21, 60120, Note_on_c, 15, 55, 90
21, 60149, Note_on_c, 15, 55, 0
21, 60180, Note_on_c, 15, 54, 90
21, 60209, Note_on_c, 15, 54, 0
21, 60240, Note_on_c, 15, 52, 90
21, 60269, Note_on_c, 15, 52, 0
21, 60300, Note_on_c, 15, 47, 90
21, 60329, Note_on_c, 15, 47, 0
21, 60360, Note_on_c, 15, 50, 90
21, 60389, Note_on_c, 15, 50, 0
21, 60420, Note_on_c, 15, 49, 90
21, 60449, Note_on_c, 15, 49, 0
21, 60480, Note_on_c, 15, 47, 90
21, 60509, Note_on_c, 15, 47, 0
21, 60540, Note_on_c, 15, 45, 90
21, 60569, Note_on_c, 15, 45, 0
21, 60600, Note_on_c, 15, 50, 90
21, 60629, Note_on_c, 15, 50, 0
21, 60660, Note_on_c, 15, 42, 90
21, 60689, Note_on_c, 15, 42, 0
21, 60720, Note_on_c, 15, 45, 90
21, 60749, Note_on_c, 15, 45, 0
21, 60780, Note_on_c, 15, 38, 90
21, 60960, Note_on_c, 15, 38, 0
21, 61140, Note_on_c, 15, 47, 100
21, 62340, Note_on_c, 15, 47, 0
21, 62340, Note_on_c, 15, 46, 90
21, 62819, Note_on_c, 15, 46, 0
21, 62820, Note_on_c, 15, 47, 90
21, 63539, Note_on_c, 15, 47, 0
21, 63540, Note_on_c, 15, 49, 90
21, 64019, Note_on_c, 15, 49, 0
21, 64020, Note_on_c, 15, 50, 90
21, 64739, Note_on_c, 15, 50, 0
21, 64740, Note_on_c, 15, 54, 90
21, 64979, Note_on_c, 15, 54, 0
21, 64980, Note_on_c, 15, 51, 90
21, 65699, Note_on_c, 15, 51, 0
21, 65700, Note_on_c, 15, 52, 90
21, 65939, Note_on_c, 15, 52, 0
21, 65940, Note_on_c, 15, 50, 90
21, 66419, Note_on_c, 15, 50, 0
21, 66420, Note_on_c, 15, 49, 90
21, 66659, Note_on_c, 15, 49, 0
21, 66660, Note_on_c, 15, 46, 90
21, 66899, Note_on_c, 15, 46, 0
21, 66900, Note_on_c, 15, 42, 90
21, 67139, Note_on_c, 15, 42, 0
21, 67140, Note_on_c, 15, 47, 90
21, 67619, Note_on_c, 15, 47, 0
21, 67620, Note_on_c, 15, 41, 90
21, 68580, Note_on_c, 15, 41, 0
21, 68580, Note_on_c, 15, 42, 90
21, 69300, Note_on_c, 15, 42, 0
21, 69300, Note_on_c, 15, 44, 90
21, 69540, Note_on_c, 15, 44, 0
21, 69540, Note_on_c, 15, 45, 90
21, 69660, Note_on_c, 15, 45, 0
21, 69660, Note_on_c, 15, 38, 90
21, 69780, Note_on_c, 15, 38, 0
21, 116460, Note_on_c, 15, 52, 90
21, 116579, Note_on_c, 15, 52, 0
21, 116580, Note_on_c, 15, 53, 90
21, 116699, Note_on_c, 15, 53, 0
21, 116700, Note_on_c, 15, 55, 90
21, 116819, Note_on_c, 15, 55, 0
21, 116820, Note_on_c, 15, 45, 90
21, 116879, Note_on_c, 15, 45, 0
21, 116880, Note_on_c, 15, 47, 90
21, 116939, Note_on_c, 15, 47, 0
21, 116940, Note_on_c, 15, 48, 90
21, 117059, Note_on_c, 15, 48, 0
21, 117060, Note_on_c, 15, 41, 90
21, 117299, Note_on_c, 15, 41, 0
21, 117300, Note_on_c, 15, 40, 90
21, 117395, Note_on_c, 15, 40, 0
21, 117420, Note_on_c, 15, 52, 90
21, 117539, Note_on_c, 15, 52, 0
21, 117540, Note_on_c, 15, 57, 90
21, 117599, Note_on_c, 15, 57, 0
21, 117600, Note_on_c, 15, 55, 90
21, 117659, Note_on_c, 15, 55, 0
21, 117660, Note_on_c, 15, 53, 90
21, 117719, Note_on_c, 15, 53, 0
21, 117720, Note_on_c, 15, 52, 90
21, 117779, Note_on_c, 15, 52, 0
21, 117780, Note_on_c, 15, 50, 90
21, 117839, Note_on_c, 15, 50, 0
21, 117840, Note_on_c, 15, 47, 90
21, 117899, Note_on_c, 15, 47, 0
21, 117900, Note_on_c, 15, 52, 90
21, 117959, Note_on_c, 15, 52, 0
21, 117960, Note_on_c, 15, 40, 90
21, 118019, Note_on_c, 15, 40, 0
21, 118020, Note_on_c, 15, 45, 90
21, 118379, Note_on_c, 15, 45, 0
21, 118380, Note_on_c, 15, 52, 90
21, 118499, Note_on_c, 15, 52, 0
21, 118500, Note_on_c, 15, 53, 90
21, 118619, Note_on_c, 15, 53, 0
21, 118620, Note_on_c, 15, 55, 90
21, 118739, Note_on_c, 15, 55, 0
21, 118740, Note_on_c, 15, 45, 90
21, 118799, Note_on_c, 15, 45, 0
21, 118800, Note_on_c, 15, 47, 90
21, 118859, Note_on_c, 15, 47, 0
21, 118860, Note_on_c, 15, 48, 90
21, 118979, Note_on_c, 15, 48, 0
21, 118980, Note_on_c, 15, 41, 90
21, 119219, Note_on_c, 15, 41, 0
21, 119220, Note_on_c, 15, 40, 90
21, 119315, Note_on_c, 15, 40, 0
21, 119340, Note_on_c, 15, 52, 90
21, 119459, Note_on_c, 15, 52, 0
21, 119460, Note_on_c, 15, 57, 90
21, 119519, Note_on_c, 15, 57, 0
21, 119520, Note_on_c, 15, 55, 90
21, 119579, Note_on_c, 15, 55, 0
21, 119580, Note_on_c, 15, 53, 90
21, 119639, Note_on_c, 15, 53, 0
21, 119640, Note_on_c, 15, 52, 90
21, 119699, Note_on_c, 15, 52, 0
21, 119700, Note_on_c, 15, 50, 90
21, 119759, Note_on_c, 15, 50, 0
21, 119760, Note_on_c, 15, 47, 90
21, 119819, Note_on_c, 15, 47, 0
21, 119820, Note_on_c, 15, 52, 90
21, 119879, Note_on_c, 15, 52, 0
21, 119880, Note_on_c, 15, 40, 90
21, 119939, Note_on_c, 15, 40, 0
21, 119940, Note_on_c, 15, 45, 90
21, 120299, Note_on_c, 15, 45, 0
21, 120300, Note_on_c, 15, 57, 90
21, 120419, Note_on_c, 15, 57, 0
21, 120420, Note_on_c, 15, 50, 90
21, 120539, Note_on_c, 15, 50, 0
21, 120540, Note_on_c, 15, 52, 90
21, 120659, Note_on_c, 15, 52, 0
21, 120660, Note_on_c, 15, 53, 90
21, 120719, Note_on_c, 15, 53, 0
21, 120720, Note_on_c, 15, 52, 90
21, 120779, Note_on_c, 15, 52, 0
21, 120780, Note_on_c, 15, 50, 90
21, 120899, Note_on_c, 15, 50, 0
21, 120900, Note_on_c, 15, 45, 90
21, 120959, Note_on_c, 15, 45, 0
21, 120960, Note_on_c, 15, 47, 90
21, 121019, Note_on_c, 15, 47, 0
21, 121020, Note_on_c, 15, 48, 90
21, 121139, Note_on_c, 15, 48, 0
21, 121140, Note_on_c, 15, 36, 90
21, 121259, Note_on_c, 15, 36, 0
21, 121260, Note_on_c, 15, 48, 90
21, 121379, Note_on_c, 15, 48, 0
21, 121380, Note_on_c, 15, 53, 90
21, 121439, Note_on_c, 15, 53, 0
21, 121440, Note_on_c, 15, 52, 90
21, 121499, Note_on_c, 15, 52, 0
21, 121500, Note_on_c, 15, 50, 90
21, 121559, Note_on_c, 15, 50, 0
21, 121560, Note_on_c, 15, 49, 90
21, 121619, Note_on_c, 15, 49, 0
21, 121620, Note_on_c, 15, 50, 90
21, 121739, Note_on_c, 15, 50, 0
21, 121740, Note_on_c, 15, 38, 90
21, 121859, Note_on_c, 15, 38, 0
21, 121860, Note_on_c, 15, 45, 90
21, 122219, Note_on_c, 15, 45, 0
21, 122220, Note_on_c, 15, 42, 90
21, 122339, Note_on_c, 15, 42, 0
21, 122340, Note_on_c, 15, 43, 90
21, 122459, Note_on_c, 15, 43, 0
21, 122460, Note_on_c, 15, 55, 90
21, 122519, Note_on_c, 15, 55, 0
21, 122520, Note_on_c, 15, 54, 90
21, 122579, Note_on_c, 15, 54, 0
21, 122580, Note_on_c, 15, 52, 90
21, 122759, Note_on_c, 15, 52, 0
21, 122760, Note_on_c, 15, 50, 90
21, 122819, Note_on_c, 15, 50, 0
21, 122820, Note_on_c, 15, 48, 90
21, 122879, Note_on_c, 15, 48, 0
21, 122880, Note_on_c, 15, 45, 90
21, 122939, Note_on_c, 15, 45, 0
21, 122940, Note_on_c, 15, 50, 90
21, 123059, Note_on_c, 15, 50, 0
21, 123060, Note_on_c, 15, 43, 90
21, 123179, Note_on_c, 15, 43, 0
21, 123180, Note_on_c, 15, 48, 90
21, 123239, Note_on_c, 15, 48, 0
21, 123240, Note_on_c, 15, 47, 90
21, 123299, Note_on_c, 15, 47, 0
21, 123300, Note_on_c, 15, 45, 90
21, 123359, Note_on_c, 15, 45, 0
21, 123360, Note_on_c, 15, 47, 90
21, 123419, Note_on_c, 15, 47, 0
21, 123420, Note_on_c, 15, 48, 90
21, 123599, Note_on_c, 15, 48, 0
21, 123600, Note_on_c, 15, 47, 90
21, 123659, Note_on_c, 15, 47, 0
21, 123660, Note_on_c, 15, 47, 90
21, 123719, Note_on_c, 15, 47, 0
21, 123720, Note_on_c, 15, 45, 90
21, 123779, Note_on_c, 15, 45, 0
21, 123780, Note_on_c, 15, 44, 90
21, 123899, Note_on_c, 15, 44, 0
21, 123900, Note_on_c, 15, 45, 90
21, 124019, Note_on_c, 15, 45, 0
21, 124020, Note_on_c, 15, 40, 90
21, 124139, Note_on_c, 15, 40, 0
21, 124260, Note_on_c, 15, 51, 90
21, 124739, Note_on_c, 15, 51, 0
21, 124740, Note_on_c, 15, 52, 90
21, 125219, Note_on_c, 15, 52, 0
21, 125220, Note_on_c, 15, 49, 90
21, 125699, Note_on_c, 15, 49, 0
21, 125700, Note_on_c, 15, 50, 90
21, 125939, Note_on_c, 15, 50, 0
21, 125940, Note_on_c, 15, 55, 90
21, 126179, Note_on_c, 15, 55, 0
21, 126180, Note_on_c, 15, 48, 90
21, 126299, Note_on_c, 15, 48, 0
21, 126300, Note_on_c, 15, 45, 90
21, 126419, Note_on_c, 15, 45, 0
21, 126420, Note_on_c, 15, 50, 90
21, 126539, Note_on_c, 15, 50, 0
21, 126540, Note_on_c, 15, 38, 90
21, 126659, Note_on_c, 15, 38, 0
21, 126660, Note_on_c, 15, 43, 90
21, 126779, Note_on_c, 15, 43, 0
21, 128100, Note_on_c, 15, 55, 90
21, 128129, Note_on_c, 15, 55, 0
21, 128220, Note_on_c, 15, 56, 90
21, 128249, Note_on_c, 15, 56, 0
21, 128340, Note_on_c, 15, 52, 90
21, 128369, Note_on_c, 15, 52, 0
21, 128460, Note_on_c, 15, 45, 90
21, 128519, Note_on_c, 15, 45, 0
21, 128820, Note_on_c, 15, 50, 90
21, 128849, Note_on_c, 15, 50, 0
21, 128940, Note_on_c, 15, 54, 90
21, 128969, Note_on_c, 15, 54, 0
21, 129060, Note_on_c, 15, 50, 90
21, 129089, Note_on_c, 15, 50, 0
21, 129180, Note_on_c, 15, 43, 90
21, 129239, Note_on_c, 15, 43, 0
21, 129540, Note_on_c, 15, 48, 90
21, 129569, Note_on_c, 15, 48, 0
21, 129660, Note_on_c, 15, 49, 90
21, 129689, Note_on_c, 15, 49, 0
21, 129900, Note_on_c, 15, 50, 90
21, 129929, Note_on_c, 15, 50, 0
21, 130020, Note_on_c, 15, 52, 90
21, 130049, Note_on_c, 15, 52, 0
21, 130260, Note_on_c, 15, 47, 90
21, 130289, Note_on_c, 15, 47, 0
21, 130380, Note_on_c, 15, 48, 90
21, 130409, Note_on_c, 15, 48, 0
21, 130500, Note_on_c, 15, 50, 90
21, 130529, Note_on_c, 15, 50, 0
21, 130620, Note_on_c, 15, 43, 90
21, 130679, Note_on_c, 15, 43, 0
21, 132420, Note_on_c, 15, 51, 100
21, 133380, Note_on_c, 15, 51, 0
21, 133380, Note_on_c, 15, 52, 90
21, 133499, Note_on_c, 15, 52, 0
21, 133740, Note_on_c, 15, 47, 90
21, 133859, Note_on_c, 15, 47, 0
21, 135900, Note_on_c, 15, 40, 90
21, 135929, Note_on_c, 15, 40, 0
21, 136020, Note_on_c, 15, 52, 90
21, 136049, Note_on_c, 15, 52, 0
21, 136260, Note_on_c, 15, 47, 90
21, 136289, Note_on_c, 15, 47, 0
21, 136380, Note_on_c, 15, 43, 90
21, 136409, Note_on_c, 15, 43, 0
21, 136980, Note_on_c, 15, 41, 90
21, 137459, Note_on_c, 15, 41, 0
21, 137460, Note_on_c, 15, 40, 90
21, 137939, Note_on_c, 15, 40, 0
21, 137940, Note_on_c, 15, 38, 90
21, 138059, Note_on_c, 15, 38, 0
21, 138300, Note_on_c, 15, 45, 90
21, 138419, Note_on_c, 15, 45, 0
21, 139020, Note_on_c, 15, 55, 90
21, 139049, Note_on_c, 15, 55, 0
21, 139140, Note_on_c, 15, 47, 90
21, 139169, Note_on_c, 15, 47, 0
21, 139260, Note_on_c, 15, 43, 90
21, 139289, Note_on_c, 15, 43, 0
21, 139380, Note_on_c, 15, 48, 90
21, 139439, Note_on_c, 15, 48, 0
21, 141900, Note_on_c, 15, 48, 90
21, 142019, Note_on_c, 15, 48, 0
21, 142380, Note_on_c, 15, 47, 90
21, 142499, Note_on_c, 15, 47, 0
21, 142620, Note_on_c, 15, 40, 90
21, 142739, Note_on_c, 15, 40, 0
21, 142860, Note_on_c, 15, 45, 90
21, 142979, Note_on_c, 15, 45, 0
21, 143220, Note_on_c, 15, 43, 90
21, 143339, Note_on_c, 15, 43, 0
21, 143580, Note_on_c, 15, 42, 90
21, 143609, Note_on_c, 15, 42, 0
21, 143700, Note_on_c, 15, 38, 90
21, 143729, Note_on_c, 15, 38, 0
21, 143820, Note_on_c, 15, 50, 90
21, 143849, Note_on_c, 15, 50, 0
21, 143940, Note_on_c, 15, 43, 90
21, 143999, Note_on_c, 15, 43, 0
21, 144660, Note_on_c, 15, 50, 90
21, 144689, Note_on_c, 15, 50, 0
21, 144780, Note_on_c, 15, 38, 90
21, 144809, Note_on_c, 15, 38, 0
21, 146100, Note_on_c, 15, 59, 90
21, 146219, Note_on_c, 15, 59, 0
21, 146340, Note_on_c, 15, 52, 90
21, 146459, Note_on_c, 15, 52, 0
21, 146460, Note_on_c, 15, 49, 90
21, 146579, Note_on_c, 15, 49, 0
21, 146940, Note_on_c, 15, 50, 90
21, 147059, Note_on_c, 15, 50, 0
21, 147060, Note_on_c, 15, 43, 90
21, 147119, Note_on_c, 15, 43, 0
21, 148500, Note_on_c, 15, 55, 90
21, 148529, Note_on_c, 15, 55, 0
21, 148620, Note_on_c, 15, 56, 90
21, 148649, Note_on_c, 15, 56, 0
21, 148740, Note_on_c, 15, 52, 90
21, 148769, Note_on_c, 15, 52, 0
21, 148860, Note_on_c, 15, 45, 90
21, 148919, Note_on_c, 15, 45, 0
21, 149220, Note_on_c, 15, 50, 90
21, 149249, Note_on_c, 15, 50, 0
21, 149340, Note_on_c, 15, 54, 90
21, 149369, Note_on_c, 15, 54, 0
21, 149460, Note_on_c, 15, 50, 90
21, 149489, Note_on_c, 15, 50, 0
21, 149580, Note_on_c, 15, 43, 90
21, 149639, Note_on_c, 15, 43, 0
21, 149940, Note_on_c, 15, 48, 90
21, 149969, Note_on_c, 15, 48, 0
21, 150060, Note_on_c, 15, 49, 90
21, 150089, Note_on_c, 15, 49, 0
21, 150300, Note_on_c, 15, 50, 90
21, 150329, Note_on_c, 15, 50, 0
21, 150420, Note_on_c, 15, 52, 90
21, 150449, Note_on_c, 15, 52, 0
21, 150660, Note_on_c, 15, 47, 90
21, 150689, Note_on_c, 15, 47, 0
21, 150780, Note_on_c, 15, 48, 90
21, 150809, Note_on_c, 15, 48, 0
21, 150900, Note_on_c, 15, 50, 90
21, 150929, Note_on_c, 15, 50, 0
21, 151020, Note_on_c, 15, 43, 90
21, 151379, Note_on_c, 15, 43, 0
21, 151620, Note_on_c, 15, 50, 90
21, 151679, Note_on_c, 15, 50, 0
21, 151680, Note_on_c, 15, 38, 90
21, 151739, Note_on_c, 15, 38, 0
21, 151740, Note_on_c, 15, 38, 90
21, 151799, Note_on_c, 15, 38, 0
21, 151800, Note_on_c, 15, 50, 90
21, 151859, Note_on_c, 15, 50, 0
21, 151860, Note_on_c, 15, 50, 90
21, 151919, Note_on_c, 15, 50, 0
21, 151920, Note_on_c, 15, 38, 90
21, 151979, Note_on_c, 15, 38, 0
21, 151980, Note_on_c, 15, 38, 90
21, 152039, Note_on_c, 15, 38, 0
21, 152040, Note_on_c, 15, 50, 90
21, 152069, Note_on_c, 15, 50, 0
21, 152070, Note_on_c, 15, 52, 90
21, 152099, Note_on_c, 15, 52, 0
21, 152100, Note_on_c, 15, 54, 90
21, 152159, Note_on_c, 15, 54, 0
21, 152160, Note_on_c, 15, 50, 90
21, 152219, Note_on_c, 15, 50, 0
21, 152220, Note_on_c, 15, 57, 90
21, 152279, Note_on_c, 15, 57, 0
21, 152280, Note_on_c, 15, 45, 90
21, 152339, Note_on_c, 15, 45, 0
21, 152340, Note_on_c, 15, 50, 90
21, 152399, Note_on_c, 15, 50, 0
21, 152400, Note_on_c, 15, 42, 90
21, 152459, Note_on_c, 15, 42, 0
21, 152460, Note_on_c, 15, 43, 90
21, 152519, Note_on_c, 15, 43, 0
21, 152520, Note_on_c, 15, 45, 90
21, 152579, Note_on_c, 15, 45, 0
21, 152580, Note_on_c, 15, 50, 90
21, 152639, Note_on_c, 15, 50, 0
21, 152640, Note_on_c, 15, 38, 90
21, 152699, Note_on_c, 15, 38, 0
21, 152700, Note_on_c, 15, 38, 90
21, 152759, Note_on_c, 15, 38, 0
21, 152760, Note_on_c, 15, 50, 90
21, 152819, Note_on_c, 15, 50, 0
21, 152820, Note_on_c, 15, 50, 90
21, 152879, Note_on_c, 15, 50, 0
21, 152880, Note_on_c, 15, 38, 90
21, 152939, Note_on_c, 15, 38, 0
21, 152940, Note_on_c, 15, 38, 90
21, 152999, Note_on_c, 15, 38, 0
21, 153000, Note_on_c, 15, 50, 90
21, 153029, Note_on_c, 15, 50, 0
21, 153030, Note_on_c, 15, 49, 90
21, 153059, Note_on_c, 15, 49, 0
21, 153060, Note_on_c, 15, 47, 90
21, 153119, Note_on_c, 15, 47, 0
21, 153120, Note_on_c, 15, 42, 90
21, 153179, Note_on_c, 15, 42, 0
21, 153180, Note_on_c, 15, 43, 90
21, 153239, Note_on_c, 15, 43, 0
21, 153240, Note_on_c, 15, 45, 90
21, 153299, Note_on_c, 15, 45, 0
21, 153300, Note_on_c, 15, 50, 90
21, 153359, Note_on_c, 15, 50, 0
21, 153360, Note_on_c, 15, 38, 90
21, 153419, Note_on_c, 15, 38, 0
21, 153420, Note_on_c, 15, 38, 90
21, 153479, Note_on_c, 15, 38, 0
21, 153480, Note_on_c, 15, 54, 90
21, 153539, Note_on_c, 15, 54, 0
21, 153540, Note_on_c, 15, 55, 90
21, 153599, Note_on_c, 15, 55, 0
21, 153600, Note_on_c, 15, 59, 90
21, 153659, Note_on_c, 15, 59, 0
21, 153660, Note_on_c, 15, 62, 90
21, 153719, Note_on_c, 15, 62, 0
21, 153720, Note_on_c, 15, 55, 90
21, 153779, Note_on_c, 15, 55, 0
21, 153780, Note_on_c, 15, 54, 90
21, 153839, Note_on_c, 15, 54, 0
21, 153840, Note_on_c, 15, 57, 90
21, 153899, Note_on_c, 15, 57, 0
21, 153900, Note_on_c, 15, 62, 90
21, 153959, Note_on_c, 15, 62, 0
21, 153960, Note_on_c, 15, 54, 90
21, 154019, Note_on_c, 15, 54, 0
21, 154020, Note_on_c, 15, 52, 90
21, 154079, Note_on_c, 15, 52, 0
21, 154080, Note_on_c, 15, 61, 90
21, 154139, Note_on_c, 15, 61, 0
21, 154140, Note_on_c, 15, 50, 90
21, 154199, Note_on_c, 15, 50, 0
21, 154200, Note_on_c, 15, 62, 90
21, 154259, Note_on_c, 15, 62, 0
21, 154260, Note_on_c, 15, 57, 90
21, 154319, Note_on_c, 15, 57, 0
21, 154320, Note_on_c, 15, 55, 90
21, 154379, Note_on_c, 15, 55, 0
21, 154380, Note_on_c, 15, 54, 90
21, 154439, Note_on_c, 15, 54, 0
21, 154440, Note_on_c, 15, 52, 90
21, 154499, Note_on_c, 15, 52, 0
21, 154500, Note_on_c, 15, 50, 90
21, 154559, Note_on_c, 15, 50, 0
21, 154560, Note_on_c, 15, 42, 90
21, 154619, Note_on_c, 15, 42, 0
21, 154620, Note_on_c, 15, 40, 90
21, 154679, Note_on_c, 15, 40, 0
21, 154680, Note_on_c, 15, 38, 90
21, 154739, Note_on_c, 15, 38, 0
21, 154740, Note_on_c, 15, 45, 90
21, 154799, Note_on_c, 15, 45, 0
21, 154800, Note_on_c, 15, 57, 90
21, 154829, Note_on_c, 15, 57, 0
21, 154830, Note_on_c, 15, 59, 90
21, 154859, Note_on_c, 15, 59, 0
21, 154860, Note_on_c, 15, 57, 90
21, 154889, Note_on_c, 15, 57, 0
21, 154890, Note_on_c, 15, 55, 90
21, 154919, Note_on_c, 15, 55, 0
21, 154920, Note_on_c, 15, 54, 90
21, 154949, Note_on_c, 15, 54, 0
21, 154950, Note_on_c, 15, 52, 90
21, 154979, Note_on_c, 15, 52, 0
21, 154980, Note_on_c, 15, 50, 90
21, 155039, Note_on_c, 15, 50, 0
21, 155040, Note_on_c, 15, 38, 90
21, 155159, Note_on_c, 15, 38, 0
21, 155160, Note_on_c, 15, 50, 90
21, 155279, Note_on_c, 15, 50, 0
21, 155280, Note_on_c, 15, 38, 90
21, 155399, Note_on_c, 15, 38, 0
21, 155400, Note_on_c, 15, 49, 90
21, 155459, Note_on_c, 15, 49, 0
21, 155460, Note_on_c, 15, 47, 90
21, 155519, Note_on_c, 15, 47, 0
21, 155520, Note_on_c, 15, 54, 90
21, 155549, Note_on_c, 15, 54, 0
21, 155550, Note_on_c, 15, 55, 90
21, 155579, Note_on_c, 15, 55, 0
21, 155580, Note_on_c, 15, 57, 90
21, 155639, Note_on_c, 15, 57, 0
21, 155640, Note_on_c, 15, 45, 90
21, 155699, Note_on_c, 15, 45, 0
21, 155700, Note_on_c, 15, 50, 90
21, 155759, Note_on_c, 15, 50, 0
21, 155760, Note_on_c, 15, 45, 90
21, 155819, Note_on_c, 15, 45, 0
21, 155820, Note_on_c, 15, 42, 90
21, 155879, Note_on_c, 15, 42, 0
21, 155880, Note_on_c, 15, 45, 90
21, 155939, Note_on_c, 15, 45, 0
21, 155940, Note_on_c, 15, 50, 90
21, 155999, Note_on_c, 15, 50, 0
21, 156000, Note_on_c, 15, 38, 90
21, 156119, Note_on_c, 15, 38, 0
21, 156120, Note_on_c, 15, 50, 90
21, 156239, Note_on_c, 15, 50, 0
21, 156240, Note_on_c, 15, 38, 90
21, 156359, Note_on_c, 15, 38, 0
21, 156360, Note_on_c, 15, 49, 90
21, 156419, Note_on_c, 15, 49, 0
21, 156420, Note_on_c, 15, 47, 90
21, 156479, Note_on_c, 15, 47, 0
21, 156480, Note_on_c, 15, 54, 90
21, 156509, Note_on_c, 15, 54, 0
21, 156510, Note_on_c, 15, 55, 90
21, 156539, Note_on_c, 15, 55, 0
21, 156540, Note_on_c, 15, 57, 90
21, 156599, Note_on_c, 15, 57, 0
21, 156600, Note_on_c, 15, 45, 90
21, 156659, Note_on_c, 15, 45, 0
21, 156660, Note_on_c, 15, 50, 90
21, 156719, Note_on_c, 15, 50, 0
21, 156720, Note_on_c, 15, 45, 90
21, 156779, Note_on_c, 15, 45, 0
21, 156780, Note_on_c, 15, 42, 90
21, 156839, Note_on_c, 15, 42, 0
21, 156840, Note_on_c, 15, 38, 90
21, 156899, Note_on_c, 15, 38, 0
21, 156900, Note_on_c, 15, 43, 90
21, 156959, Note_on_c, 15, 43, 0
21, 156960, Note_on_c, 15, 47, 90
21, 157019, Note_on_c, 15, 47, 0
21, 157020, Note_on_c, 15, 50, 90
21, 157079, Note_on_c, 15, 50, 0
21, 157080, Note_on_c, 15, 43, 90
21, 157139, Note_on_c, 15, 43, 0
21, 157140, Note_on_c, 15, 42, 90
21, 157199, Note_on_c, 15, 42, 0
21, 157200, Note_on_c, 15, 45, 90
21, 157259, Note_on_c, 15, 45, 0
21, 157260, Note_on_c, 15, 50, 90
21, 157319, Note_on_c, 15, 50, 0
21, 157320, Note_on_c, 15, 42, 90
21, 157379, Note_on_c, 15, 42, 0
21, 157380, Note_on_c, 15, 40, 90
21, 157439, Note_on_c, 15, 40, 0
21, 157440, Note_on_c, 15, 49, 90
21, 157499, Note_on_c, 15, 49, 0
21, 157500, Note_on_c, 15, 38, 90
21, 157559, Note_on_c, 15, 38, 0
21, 157560, Note_on_c, 15, 50, 90
21, 157619, Note_on_c, 15, 50, 0
21, 157620, Note_on_c, 15, 45, 90
21, 157679, Note_on_c, 15, 45, 0
21, 157680, Note_on_c, 15, 43, 90
21, 157739, Note_on_c, 15, 43, 0
21, 157740, Note_on_c, 15, 42, 90
21, 157799, Note_on_c, 15, 42, 0
21, 157800, Note_on_c, 15, 40, 90
21, 157859, Note_on_c, 15, 40, 0
21, 157860, Note_on_c, 15, 38, 90
21, 157919, Note_on_c, 15, 38, 0
21, 157920, Note_on_c, 15, 50, 90
21, 157979, Note_on_c, 15, 50, 0
21, 157980, Note_on_c, 15, 49, 90
21, 158039, Note_on_c, 15, 49, 0
21, 158040, Note_on_c, 15, 50, 90
21, 158099, Note_on_c, 15, 50, 0
21, 158100, Note_on_c, 15, 45, 90
21, 158159, Note_on_c, 15, 45, 0
21, 158160, Note_on_c, 15, 47, 90
21, 158219, Note_on_c, 15, 47, 0
21, 158220, Note_on_c, 15, 49, 90
21, 158279, Note_on_c, 15, 49, 0
21, 158280, Note_on_c, 15, 50, 90
21, 158339, Note_on_c, 15, 50, 0
21, 158340, Note_on_c, 15, 49, 90
21, 158399, Note_on_c, 15, 49, 0
21, 158400, Note_on_c, 15, 45, 90
21, 158459, Note_on_c, 15, 45, 0
21, 158460, Note_on_c, 15, 49, 90
21, 158519, Note_on_c, 15, 49, 0
21, 158520, Note_on_c, 15, 52, 90
21, 158579, Note_on_c, 15, 52, 0
21, 158580, Note_on_c, 15, 57, 90
21, 158639, Note_on_c, 15, 57, 0
21, 158640, Note_on_c, 15, 55, 90
21, 158669, Note_on_c, 15, 55, 0
21, 158670, Note_on_c, 15, 54, 90
21, 158699, Note_on_c, 15, 54, 0
21, 158700, Note_on_c, 15, 52, 90
21, 158759, Note_on_c, 15, 52, 0
21, 158760, Note_on_c, 15, 50, 90
21, 158819, Note_on_c, 15, 50, 0
21, 158820, Note_on_c, 15, 49, 90
21, 158879, Note_on_c, 15, 49, 0
21, 158880, Note_on_c, 15, 52, 90
21, 158939, Note_on_c, 15, 52, 0
21, 158940, Note_on_c, 15, 49, 90
21, 158999, Note_on_c, 15, 49, 0
21, 159000, Note_on_c, 15, 45, 90
21, 159059, Note_on_c, 15, 45, 0
21, 159060, Note_on_c, 15, 50, 90
21, 159119, Note_on_c, 15, 50, 0
21, 159120, Note_on_c, 15, 52, 90
21, 159179, Note_on_c, 15, 52, 0
21, 159180, Note_on_c, 15, 54, 90
21, 159239, Note_on_c, 15, 54, 0
21, 159240, Note_on_c, 15, 55, 90
21, 159299, Note_on_c, 15, 55, 0
21, 159300, Note_on_c, 15, 54, 90
21, 159359, Note_on_c, 15, 54, 0
21, 159360, Note_on_c, 15, 57, 90
21, 159389, Note_on_c, 15, 57, 0
21, 159390, Note_on_c, 15, 55, 90
21, 159419, Note_on_c, 15, 55, 0
21, 159420, Note_on_c, 15, 54, 90
21, 159479, Note_on_c, 15, 54, 0
21, 159480, Note_on_c, 15, 52, 90
21, 159539, Note_on_c, 15, 52, 0
21, 159540, Note_on_c, 15, 50, 90
21, 159599, Note_on_c, 15, 50, 0
21, 159600, Note_on_c, 15, 38, 90
21, 159659, Note_on_c, 15, 38, 0
21, 159660, Note_on_c, 15, 50, 90
21, 159719, Note_on_c, 15, 50, 0
21, 159720, Note_on_c, 15, 52, 90
21, 159779, Note_on_c, 15, 52, 0
21, 159780, Note_on_c, 15, 54, 90
21, 159839, Note_on_c, 15, 54, 0
21, 159840, Note_on_c, 15, 57, 90
21, 159899, Note_on_c, 15, 57, 0
21, 159900, Note_on_c, 15, 54, 90
21, 159959, Note_on_c, 15, 54, 0
21, 159960, Note_on_c, 15, 50, 90
21, 160019, Note_on_c, 15, 50, 0
21, 160020, Note_on_c, 15, 55, 90
21, 160079, Note_on_c, 15, 55, 0
21, 160080, Note_on_c, 15, 43, 90
21, 160139, Note_on_c, 15, 43, 0
21, 160140, Note_on_c, 15, 55, 90
21, 160169, Note_on_c, 15, 55, 0
21, 160170, Note_on_c, 15, 54, 90
21, 160199, Note_on_c, 15, 54, 0
21, 160200, Note_on_c, 15, 52, 90
21, 160229, Note_on_c, 15, 52, 0
21, 160230, Note_on_c, 15, 50, 90
21, 160259, Note_on_c, 15, 50, 0
21, 160260, Note_on_c, 15, 49, 90
21, 160319, Note_on_c, 15, 49, 0
21, 160320, Note_on_c, 15, 49, 90
21, 160379, Note_on_c, 15, 49, 0
21, 160380, Note_on_c, 15, 49, 90
21, 160439, Note_on_c, 15, 49, 0
21, 160440, Note_on_c, 15, 50, 90
21, 160469, Note_on_c, 15, 50, 0
21, 160470, Note_on_c, 15, 52, 90
21, 160499, Note_on_c, 15, 52, 0
21, 160500, Note_on_c, 15, 54, 90
21, 160559, Note_on_c, 15, 54, 0
21, 160560, Note_on_c, 15, 42, 90
21, 160619, Note_on_c, 15, 42, 0
21, 160620, Note_on_c, 15, 54, 90
21, 160649, Note_on_c, 15, 54, 0
21, 160650, Note_on_c, 15, 52, 90
21, 160679, Note_on_c, 15, 52, 0
21, 160680, Note_on_c, 15, 50, 90
21, 160709, Note_on_c, 15, 50, 0
21, 160710, Note_on_c, 15, 49, 90
21, 160739, Note_on_c, 15, 49, 0
21, 160740, Note_on_c, 15, 47, 90
21, 160799, Note_on_c, 15, 47, 0
21, 160800, Note_on_c, 15, 47, 90
21, 160859, Note_on_c, 15, 47, 0
21, 160860, Note_on_c, 15, 47, 90
21, 160919, Note_on_c, 15, 47, 0
21, 160920, Note_on_c, 15, 49, 90
21, 160949, Note_on_c, 15, 49, 0
21, 160950, Note_on_c, 15, 50, 90
21, 160979, Note_on_c, 15, 50, 0
21, 160980, Note_on_c, 15, 52, 90
21, 161039, Note_on_c, 15, 52, 0
21, 161040, Note_on_c, 15, 40, 90
21, 161099, Note_on_c, 15, 40, 0
21, 161100, Note_on_c, 15, 52, 90
21, 161129, Note_on_c, 15, 52, 0
21, 161130, Note_on_c, 15, 50, 90
21, 161159, Note_on_c, 15, 50, 0
21, 161160, Note_on_c, 15, 49, 90
21, 161189, Note_on_c, 15, 49, 0
21, 161190, Note_on_c, 15, 47, 90
21, 161219, Note_on_c, 15, 47, 0
21, 161220, Note_on_c, 15, 45, 90
21, 161279, Note_on_c, 15, 45, 0
21, 161280, Note_on_c, 15, 57, 90
21, 161339, Note_on_c, 15, 57, 0
21, 161340, Note_on_c, 15, 57, 90
21, 161399, Note_on_c, 15, 57, 0
21, 161400, Note_on_c, 15, 45, 90
21, 161459, Note_on_c, 15, 45, 0
21, 161460, Note_on_c, 15, 45, 90
21, 161519, Note_on_c, 15, 45, 0
21, 161520, Note_on_c, 15, 57, 90
21, 161579, Note_on_c, 15, 57, 0
21, 161580, Note_on_c, 15, 57, 90
21, 161639, Note_on_c, 15, 57, 0
21, 161640, Note_on_c, 15, 45, 90
21, 161699, Note_on_c, 15, 45, 0
21, 161700, Note_on_c, 15, 45, 90
21, 161759, Note_on_c, 15, 45, 0
21, 161760, Note_on_c, 15, 57, 90
21, 161819, Note_on_c, 15, 57, 0
21, 161820, Note_on_c, 15, 57, 90
21, 161879, Note_on_c, 15, 57, 0
21, 161880, Note_on_c, 15, 45, 90
21, 161939, Note_on_c, 15, 45, 0
21, 161940, Note_on_c, 15, 45, 90
21, 161999, Note_on_c, 15, 45, 0
21, 162000, Note_on_c, 15, 57, 90
21, 162059, Note_on_c, 15, 57, 0
21, 162060, Note_on_c, 15, 57, 90
21, 162119, Note_on_c, 15, 57, 0
21, 162120, Note_on_c, 15, 49, 90
21, 162179, Note_on_c, 15, 49, 0
21, 162180, Note_on_c, 15, 50, 90
21, 162239, Note_on_c, 15, 50, 0
21, 162240, Note_on_c, 15, 54, 90
21, 162299, Note_on_c, 15, 54, 0
21, 162300, Note_on_c, 15, 59, 90
21, 162359, Note_on_c, 15, 59, 0
21, 162360, Note_on_c, 15, 47, 90
21, 162419, Note_on_c, 15, 47, 0
21, 162420, Note_on_c, 15, 49, 90
21, 162479, Note_on_c, 15, 49, 0
21, 162480, Note_on_c, 15, 57, 90
21, 162539, Note_on_c, 15, 57, 0
21, 162540, Note_on_c, 15, 55, 90
21, 162599, Note_on_c, 15, 55, 0
21, 162600, Note_on_c, 15, 54, 90
21, 162659, Note_on_c, 15, 54, 0
21, 162660, Note_on_c, 15, 52, 90
21, 162689, Note_on_c, 15, 52, 0
21, 162690, Note_on_c, 15, 54, 90
21, 162719, Note_on_c, 15, 54, 0
21, 162720, Note_on_c, 15, 55, 90
21, 162749, Note_on_c, 15, 55, 0
21, 162750, Note_on_c, 15, 54, 90
21, 162779, Note_on_c, 15, 54, 0
21, 162780, Note_on_c, 15, 52, 90
21, 162809, Note_on_c, 15, 52, 0
21, 162810, Note_on_c, 15, 50, 90
21, 162839, Note_on_c, 15, 50, 0
21, 162840, Note_on_c, 15, 49, 90
21, 162869, Note_on_c, 15, 49, 0
21, 162870, Note_on_c, 15, 47, 90
21, 162899, Note_on_c, 15, 47, 0
21, 162900, Note_on_c, 15, 49, 90
21, 162959, Note_on_c, 15, 49, 0
21, 162960, Note_on_c, 15, 45, 90
21, 163019, Note_on_c, 15, 45, 0
21, 163020, Note_on_c, 15, 47, 90
21, 163079, Note_on_c, 15, 47, 0
21, 163080, Note_on_c, 15, 49, 90
21, 163139, Note_on_c, 15, 49, 0
21, 163140, Note_on_c, 15, 50, 90
21, 163199, Note_on_c, 15, 50, 0
21, 163200, Note_on_c, 15, 47, 90
21, 163259, Note_on_c, 15, 47, 0
21, 163260, Note_on_c, 15, 43, 90
21, 163319, Note_on_c, 15, 43, 0
21, 163320, Note_on_c, 15, 45, 90
21, 163379, Note_on_c, 15, 45, 0
21, 163380, Note_on_c, 15, 50, 90
21, 163439, Note_on_c, 15, 50, 0
21, 163440, Note_on_c, 15, 38, 90
21, 163499, Note_on_c, 15, 38, 0
21, 163500, Note_on_c, 15, 38, 90
21, 163559, Note_on_c, 15, 38, 0
21, 163560, Note_on_c, 15, 50, 90
21, 163619, Note_on_c, 15, 50, 0
21, 163620, Note_on_c, 15, 50, 90
21, 163679, Note_on_c, 15, 50, 0
21, 163680, Note_on_c, 15, 38, 90
21, 163739, Note_on_c, 15, 38, 0
21, 163740, Note_on_c, 15, 38, 90
21, 163799, Note_on_c, 15, 38, 0
21, 163800, Note_on_c, 15, 50, 90
21, 163859, Note_on_c, 15, 50, 0
21, 163860, Note_on_c, 15, 50, 90
21, 163919, Note_on_c, 15, 50, 0
21, 163920, Note_on_c, 15, 62, 90
21, 163979, Note_on_c, 15, 62, 0
21, 163980, Note_on_c, 15, 60, 90
21, 164039, Note_on_c, 15, 60, 0
21, 164040, Note_on_c, 15, 59, 90
21, 164099, Note_on_c, 15, 59, 0
21, 164100, Note_on_c, 15, 57, 90
21, 164159, Note_on_c, 15, 57, 0
21, 164160, Note_on_c, 15, 55, 90
21, 164219, Note_on_c, 15, 55, 0
21, 164220, Note_on_c, 15, 54, 90
21, 164279, Note_on_c, 15, 54, 0
21, 164280, Note_on_c, 15, 50, 90
21, 164339, Note_on_c, 15, 50, 0
21, 164340, Note_on_c, 15, 55, 90
21, 164399, Note_on_c, 15, 55, 0
21, 164460, Note_on_c, 15, 54, 90
21, 164519, Note_on_c, 15, 54, 0
21, 164580, Note_on_c, 15, 52, 90
21, 164639, Note_on_c, 15, 52, 0
21, 164640, Note_on_c, 15, 40, 90
21, 164699, Note_on_c, 15, 40, 0
21, 164700, Note_on_c, 15, 40, 90
21, 164759, Note_on_c, 15, 40, 0
21, 164760, Note_on_c, 15, 52, 90
21, 164879, Note_on_c, 15, 52, 0
21, 164880, Note_on_c, 15, 64, 90
21, 164939, Note_on_c, 15, 64, 0
21, 164940, Note_on_c, 15, 62, 90
21, 164999, Note_on_c, 15, 62, 0
21, 165000, Note_on_c, 15, 61, 90
21, 165059, Note_on_c, 15, 61, 0
21, 165060, Note_on_c, 15, 59, 90
21, 165119, Note_on_c, 15, 59, 0
21, 165120, Note_on_c, 15, 57, 90
21, 165179, Note_on_c, 15, 57, 0
21, 165180, Note_on_c, 15, 56, 90
21, 165239, Note_on_c, 15, 56, 0
21, 165240, Note_on_c, 15, 52, 90
21, 165299, Note_on_c, 15, 52, 0
21, 165300, Note_on_c, 15, 57, 90
21, 165359, Note_on_c, 15, 57, 0
21, 165420, Note_on_c, 15, 55, 90
21, 165479, Note_on_c, 15, 55, 0
21, 165540, Note_on_c, 15, 54, 90
21, 165599, Note_on_c, 15, 54, 0
21, 165660, Note_on_c, 15, 50, 90
21, 165719, Note_on_c, 15, 50, 0
21, 165780, Note_on_c, 15, 49, 90
21, 165839, Note_on_c, 15, 49, 0
21, 165900, Note_on_c, 15, 45, 90
21, 165959, Note_on_c, 15, 45, 0
21, 166020, Note_on_c, 15, 42, 90
21, 166079, Note_on_c, 15, 42, 0
21, 166080, Note_on_c, 15, 47, 90
21, 166139, Note_on_c, 15, 47, 0
21, 166140, Note_on_c, 15, 43, 90
21, 166199, Note_on_c, 15, 43, 0
21, 166200, Note_on_c, 15, 45, 90
21, 166259, Note_on_c, 15, 45, 0
21, 166260, Note_on_c, 15, 47, 90
21, 166319, Note_on_c, 15, 47, 0
21, 166320, Note_on_c, 15, 47, 90
21, 166379, Note_on_c, 15, 47, 0
21, 166380, Note_on_c, 15, 47, 90
21, 166439, Note_on_c, 15, 47, 0
21, 166440, Note_on_c, 15, 45, 90
21, 166499, Note_on_c, 15, 45, 0
21, 166500, Note_on_c, 15, 44, 90
21, 166559, Note_on_c, 15, 44, 0
21, 166620, Note_on_c, 15, 47, 90
21, 166679, Note_on_c, 15, 47, 0
21, 166740, Note_on_c, 15, 52, 90
21, 166799, Note_on_c, 15, 52, 0
21, 166860, Note_on_c, 15, 55, 90
21, 166919, Note_on_c, 15, 55, 0
21, 167040, Note_on_c, 15, 42, 90
21, 167099, Note_on_c, 15, 42, 0
21, 167100, Note_on_c, 15, 43, 90
21, 167159, Note_on_c, 15, 43, 0
21, 167160, Note_on_c, 15, 45, 90
21, 167219, Note_on_c, 15, 45, 0
21, 167220, Note_on_c, 15, 38, 90
21, 167279, Note_on_c, 15, 38, 0
21, 167280, Note_on_c, 15, 62, 90
21, 167339, Note_on_c, 15, 62, 0
21, 167340, Note_on_c, 15, 61, 90
21, 167399, Note_on_c, 15, 61, 0
21, 167400, Note_on_c, 15, 59, 90
21, 167459, Note_on_c, 15, 59, 0
21, 167460, Note_on_c, 15, 57, 90
21, 167519, Note_on_c, 15, 57, 0
21, 167520, Note_on_c, 15, 45, 90
21, 167579, Note_on_c, 15, 45, 0
21, 167580, Note_on_c, 15, 45, 90
21, 167639, Note_on_c, 15, 45, 0
21, 167640, Note_on_c, 15, 57, 90
21, 167699, Note_on_c, 15, 57, 0
21, 167700, Note_on_c, 15, 57, 90
21, 167759, Note_on_c, 15, 57, 0
21, 167760, Note_on_c, 15, 45, 90
21, 167819, Note_on_c, 15, 45, 0
21, 167820, Note_on_c, 15, 45, 90
21, 167879, Note_on_c, 15, 45, 0
21, 167880, Note_on_c, 15, 43, 90
21, 167939, Note_on_c, 15, 43, 0
21, 167940, Note_on_c, 15, 42, 90
21, 167999, Note_on_c, 15, 42, 0
21, 168000, Note_on_c, 15, 47, 90
21, 168059, Note_on_c, 15, 47, 0
21, 168060, Note_on_c, 15, 40, 90
21, 168119, Note_on_c, 15, 40, 0
21, 168120, Note_on_c, 15, 45, 90
21, 168179, Note_on_c, 15, 45, 0
21, 168180, Note_on_c, 15, 38, 90
21, 168239, Note_on_c, 15, 38, 0
21, 168240, Note_on_c, 15, 50, 90
21, 168299, Note_on_c, 15, 50, 0
21, 168300, Note_on_c, 15, 54, 90
21, 168359, Note_on_c, 15, 54, 0
21, 168360, Note_on_c, 15, 57, 90
21, 168419, Note_on_c, 15, 57, 0
21, 168420, Note_on_c, 15, 60, 90
21, 168479, Note_on_c, 15, 60, 0
21, 168480, Note_on_c, 15, 57, 90
21, 168539, Note_on_c, 15, 57, 0
21, 168540, Note_on_c, 15, 54, 90
21, 168599, Note_on_c, 15, 54, 0
21, 168600, Note_on_c, 15, 50, 90
21, 168659, Note_on_c, 15, 50, 0
21, 168660, Note_on_c, 15, 45, 90
21, 168719, Note_on_c, 15, 45, 0
21, 168720, Note_on_c, 15, 42, 90
21, 168779, Note_on_c, 15, 42, 0
21, 168780, Note_on_c, 15, 38, 90
21, 168839, Note_on_c, 15, 38, 0
21, 168840, Note_on_c, 15, 50, 90
21, 168899, Note_on_c, 15, 50, 0
21, 168900, Note_on_c, 15, 52, 90
21, 168959, Note_on_c, 15, 52, 0
21, 168960, Note_on_c, 15, 47, 90
21, 169019, Note_on_c, 15, 47, 0
21, 169020, Note_on_c, 15, 48, 90
21, 169079, Note_on_c, 15, 48, 0
21, 169080, Note_on_c, 15, 50, 90
21, 169139, Note_on_c, 15, 50, 0
21, 169140, Note_on_c, 15, 55, 90
21, 169199, Note_on_c, 15, 55, 0
21, 169200, Note_on_c, 15, 57, 90
21, 169259, Note_on_c, 15, 57, 0
21, 169260, Note_on_c, 15, 59, 90
21, 169319, Note_on_c, 15, 59, 0
21, 169320, Note_on_c, 15, 64, 90
21, 169379, Note_on_c, 15, 64, 0
21, 169380, Note_on_c, 15, 54, 90
21, 169439, Note_on_c, 15, 54, 0
21, 169440, Note_on_c, 15, 64, 90
21, 169499, Note_on_c, 15, 64, 0
21, 169500, Note_on_c, 15, 63, 90
21, 169559, Note_on_c, 15, 63, 0
21, 169560, Note_on_c, 15, 59, 90
21, 169619, Note_on_c, 15, 59, 0
21, 169620, Note_on_c, 15, 52, 90
21, 169679, Note_on_c, 15, 52, 0
21, 169680, Note_on_c, 15, 62, 90
21, 169739, Note_on_c, 15, 62, 0
21, 169740, Note_on_c, 15, 61, 90
21, 169799, Note_on_c, 15, 61, 0
21, 169800, Note_on_c, 15, 57, 90
21, 169859, Note_on_c, 15, 57, 0
21, 169860, Note_on_c, 15, 50, 90
21, 169919, Note_on_c, 15, 50, 0
21, 169920, Note_on_c, 15, 54, 90
21, 169979, Note_on_c, 15, 54, 0
21, 169980, Note_on_c, 15, 55, 90
21, 170039, Note_on_c, 15, 55, 0
21, 170040, Note_on_c, 15, 52, 90
21, 170099, Note_on_c, 15, 52, 0
21, 170100, Note_on_c, 15, 57, 90
21, 170159, Note_on_c, 15, 57, 0
21, 170160, Note_on_c, 15, 55, 90
21, 170219, Note_on_c, 15, 55, 0
21, 170220, Note_on_c, 15, 54, 90
21, 170279, Note_on_c, 15, 54, 0
21, 170280, Note_on_c, 15, 52, 90
21, 170339, Note_on_c, 15, 52, 0
21, 170340, Note_on_c, 15, 50, 90
21, 170399, Note_on_c, 15, 50, 0
21, 170400, Note_on_c, 15, 42, 90
21, 170459, Note_on_c, 15, 42, 0
21, 170460, Note_on_c, 15, 43, 90
21, 170519, Note_on_c, 15, 43, 0
21, 170520, Note_on_c, 15, 45, 90
21, 170579, Note_on_c, 15, 45, 0
21, 170580, Note_on_c, 15, 38, 90
21, 170819, Note_on_c, 15, 38, 0
21, 170820, Note_on_c, 15, 47, 90
21, 170879, Note_on_c, 15, 47, 0
21, 170880, Note_on_c, 15, 59, 90
21, 170939, Note_on_c, 15, 59, 0
21, 170940, Note_on_c, 15, 59, 90
21, 170999, Note_on_c, 15, 59, 0
21, 171000, Note_on_c, 15, 47, 90
21, 171059, Note_on_c, 15, 47, 0
21, 171060, Note_on_c, 15, 47, 90
21, 171119, Note_on_c, 15, 47, 0
21, 171120, Note_on_c, 15, 59, 90
21, 171179, Note_on_c, 15, 59, 0
21, 171180, Note_on_c, 15, 57, 90
21, 171239, Note_on_c, 15, 57, 0
21, 171240, Note_on_c, 15, 45, 90
21, 171299, Note_on_c, 15, 45, 0
21, 171300, Note_on_c, 15, 43, 90
21, 171359, Note_on_c, 15, 43, 0
21, 171360, Note_on_c, 15, 48, 90
21, 171419, Note_on_c, 15, 48, 0
21, 171420, Note_on_c, 15, 45, 90
21, 171479, Note_on_c, 15, 45, 0
21, 171480, Note_on_c, 15, 47, 90
21, 171539, Note_on_c, 15, 47, 0
21, 171540, Note_on_c, 15, 52, 90
21, 171599, Note_on_c, 15, 52, 0
21, 171600, Note_on_c, 15, 40, 90
21, 171659, Note_on_c, 15, 40, 0
21, 171660, Note_on_c, 15, 42, 90
21, 171719, Note_on_c, 15, 42, 0
21, 171720, Note_on_c, 15, 43, 90
21, 171779, Note_on_c, 15, 43, 0
21, 171780, Note_on_c, 15, 45, 90
21, 171839, Note_on_c, 15, 45, 0
21, 171840, Note_on_c, 15, 57, 90
21, 171899, Note_on_c, 15, 57, 0
21, 171900, Note_on_c, 15, 57, 90
21, 171959, Note_on_c, 15, 57, 0
21, 171960, Note_on_c, 15, 45, 90
21, 172019, Note_on_c, 15, 45, 0
21, 172020, Note_on_c, 15, 45, 90
21, 172079, Note_on_c, 15, 45, 0
21, 172080, Note_on_c, 15, 57, 90
21, 172139, Note_on_c, 15, 57, 0
21, 172140, Note_on_c, 15, 55, 90
21, 172199, Note_on_c, 15, 55, 0
21, 172200, Note_on_c, 15, 43, 90
21, 172259, Note_on_c, 15, 43, 0
21, 172260, Note_on_c, 15, 42, 90
21, 172319, Note_on_c, 15, 42, 0
21, 172320, Note_on_c, 15, 47, 90
21, 172379, Note_on_c, 15, 47, 0
21, 172380, Note_on_c, 15, 43, 90
21, 172439, Note_on_c, 15, 43, 0
21, 172440, Note_on_c, 15, 45, 90
21, 172499, Note_on_c, 15, 45, 0
21, 172500, Note_on_c, 15, 50, 90
21, 172559, Note_on_c, 15, 50, 0
21, 172560, Note_on_c, 15, 49, 90
21, 172619, Note_on_c, 15, 49, 0
21, 172620, Note_on_c, 15, 50, 90
21, 172679, Note_on_c, 15, 50, 0
21, 172680, Note_on_c, 15, 52, 90
21, 172739, Note_on_c, 15, 52, 0
21, 172740, Note_on_c, 15, 54, 90
21, 172799, Note_on_c, 15, 54, 0
21, 172800, Note_on_c, 15, 42, 90
21, 172859, Note_on_c, 15, 42, 0
21, 172860, Note_on_c, 15, 54, 90
21, 172919, Note_on_c, 15, 54, 0
21, 172920, Note_on_c, 15, 52, 90
21, 172979, Note_on_c, 15, 52, 0
21, 172980, Note_on_c, 15, 50, 90
21, 173039, Note_on_c, 15, 50, 0
21, 173100, Note_on_c, 15, 47, 90
21, 173159, Note_on_c, 15, 47, 0
21, 173220, Note_on_c, 15, 46, 90
21, 173279, Note_on_c, 15, 46, 0
21, 173280, Note_on_c, 15, 61, 90
21, 173339, Note_on_c, 15, 61, 0
21, 173340, Note_on_c, 15, 58, 90
21, 173399, Note_on_c, 15, 58, 0
21, 173400, Note_on_c, 15, 54, 90
21, 173459, Note_on_c, 15, 54, 0
21, 173460, Note_on_c, 15, 59, 90
21, 173519, Note_on_c, 15, 59, 0
21, 173580, Note_on_c, 15, 47, 90
21, 173639, Note_on_c, 15, 47, 0
21, 173700, Note_on_c, 15, 50, 90
21, 173759, Note_on_c, 15, 50, 0
21, 173820, Note_on_c, 15, 44, 90
21, 173879, Note_on_c, 15, 44, 0
21, 173940, Note_on_c, 15, 49, 90
21, 173999, Note_on_c, 15, 49, 0
21, 174000, Note_on_c, 15, 47, 90
21, 174059, Note_on_c, 15, 47, 0
21, 174060, Note_on_c, 15, 45, 90
21, 174119, Note_on_c, 15, 45, 0
21, 174120, Note_on_c, 15, 47, 90
21, 174179, Note_on_c, 15, 47, 0
21, 174180, Note_on_c, 15, 49, 90
21, 174239, Note_on_c, 15, 49, 0
21, 174240, Note_on_c, 15, 47, 90
21, 174299, Note_on_c, 15, 47, 0
21, 174300, Note_on_c, 15, 49, 90
21, 174359, Note_on_c, 15, 49, 0
21, 174360, Note_on_c, 15, 49, 90
21, 174419, Note_on_c, 15, 49, 0
21, 174420, Note_on_c, 15, 42, 90
21, 174479, Note_on_c, 15, 42, 0
21, 174480, Note_on_c, 15, 44, 90
21, 174539, Note_on_c, 15, 44, 0
21, 174540, Note_on_c, 15, 45, 90
21, 174599, Note_on_c, 15, 45, 0
21, 174600, Note_on_c, 15, 42, 90
21, 174659, Note_on_c, 15, 42, 0
21, 174660, Note_on_c, 15, 47, 90
21, 174719, Note_on_c, 15, 47, 0
21, 174720, Note_on_c, 15, 50, 90
21, 174779, Note_on_c, 15, 50, 0
21, 174780, Note_on_c, 15, 54, 90
21, 174839, Note_on_c, 15, 54, 0
21, 174840, Note_on_c, 15, 47, 90
21, 174899, Note_on_c, 15, 47, 0
21, 174900, Note_on_c, 15, 45, 90
21, 174959, Note_on_c, 15, 45, 0
21, 174960, Note_on_c, 15, 49, 90
21, 175019, Note_on_c, 15, 49, 0
21, 175020, Note_on_c, 15, 54, 90
21, 175079, Note_on_c, 15, 54, 0
21, 175080, Note_on_c, 15, 52, 90
21, 175139, Note_on_c, 15, 52, 0
21, 175140, Note_on_c, 15, 50, 90
21, 175199, Note_on_c, 15, 50, 0
21, 175200, Note_on_c, 15, 54, 90
21, 175259, Note_on_c, 15, 54, 0
21, 175260, Note_on_c, 15, 59, 90
21, 175319, Note_on_c, 15, 59, 0
21, 175320, Note_on_c, 15, 50, 90
21, 175379, Note_on_c, 15, 50, 0
21, 175380, Note_on_c, 15, 49, 90
21, 175439, Note_on_c, 15, 49, 0
21, 175440, Note_on_c, 15, 54, 90
21, 175499, Note_on_c, 15, 54, 0
21, 175500, Note_on_c, 15, 57, 90
21, 175559, Note_on_c, 15, 57, 0
21, 175560, Note_on_c, 15, 49, 90
21, 175619, Note_on_c, 15, 49, 0
21, 175620, Note_on_c, 15, 47, 90
21, 175679, Note_on_c, 15, 47, 0
21, 175740, Note_on_c, 15, 49, 90
21, 175799, Note_on_c, 15, 49, 0
21, 175860, Note_on_c, 15, 50, 90
21, 175919, Note_on_c, 15, 50, 0
21, 175980, Note_on_c, 15, 41, 90
21, 176039, Note_on_c, 15, 41, 0
21, 176100, Note_on_c, 15, 42, 90
21, 176159, Note_on_c, 15, 42, 0
21, 176160, Note_on_c, 15, 45, 90
21, 176219, Note_on_c, 15, 45, 0
21, 176220, Note_on_c, 15, 49, 90
21, 176279, Note_on_c, 15, 49, 0
21, 176280, Note_on_c, 15, 37, 90
21, 176339, Note_on_c, 15, 37, 0
21, 176340, Note_on_c, 15, 42, 90
21, 176399, Note_on_c, 15, 42, 0
21, 176400, Note_on_c, 15, 54, 90
21, 176459, Note_on_c, 15, 54, 0
21, 176460, Note_on_c, 15, 57, 90
21, 176519, Note_on_c, 15, 57, 0
21, 176520, Note_on_c, 15, 61, 90
21, 176579, Note_on_c, 15, 61, 0
21, 176580, Note_on_c, 15, 54, 90
21, 176639, Note_on_c, 15, 54, 0
21, 176640, Note_on_c, 15, 42, 90
21, 176699, Note_on_c, 15, 42, 0
21, 176700, Note_on_c, 15, 42, 90
21, 176759, Note_on_c, 15, 42, 0
21, 176760, Note_on_c, 15, 54, 90
21, 176819, Note_on_c, 15, 54, 0
21, 176820, Note_on_c, 15, 52, 90
21, 176879, Note_on_c, 15, 52, 0
21, 176880, Note_on_c, 15, 40, 90
21, 176939, Note_on_c, 15, 40, 0
21, 176940, Note_on_c, 15, 40, 90
21, 176999, Note_on_c, 15, 40, 0
21, 177000, Note_on_c, 15, 52, 90
21, 177059, Note_on_c, 15, 52, 0
21, 177060, Note_on_c, 15, 50, 90
21, 177119, Note_on_c, 15, 50, 0
21, 177120, Note_on_c, 15, 38, 90
21, 177179, Note_on_c, 15, 38, 0
21, 177180, Note_on_c, 15, 40, 90
21, 177239, Note_on_c, 15, 40, 0
21, 177240, Note_on_c, 15, 42, 90
21, 177299, Note_on_c, 15, 42, 0
21, 177300, Note_on_c, 15, 47, 90
21, 177329, Note_on_c, 15, 47, 0
21, 177330, Note_on_c, 15, 46, 90
21, 177359, Note_on_c, 15, 46, 0
21, 177360, Note_on_c, 15, 47, 90
21, 177389, Note_on_c, 15, 47, 0
21, 177390, Note_on_c, 15, 49, 90
21, 177419, Note_on_c, 15, 49, 0
21, 177420, Note_on_c, 15, 50, 90
21, 177449, Note_on_c, 15, 50, 0
21, 177450, Note_on_c, 15, 49, 90
21, 177479, Note_on_c, 15, 49, 0
21, 177480, Note_on_c, 15, 50, 90
21, 177509, Note_on_c, 15, 50, 0
21, 177510, Note_on_c, 15, 47, 90
21, 177539, Note_on_c, 15, 47, 0
21, 177540, Note_on_c, 15, 52, 90
21, 177599, Note_on_c, 15, 52, 0
21, 177600, Note_on_c, 15, 40, 90
21, 177659, Note_on_c, 15, 40, 0
21, 177660, Note_on_c, 15, 40, 90
21, 177719, Note_on_c, 15, 40, 0
21, 177720, Note_on_c, 15, 52, 90
21, 177779, Note_on_c, 15, 52, 0
21, 177780, Note_on_c, 15, 50, 90
21, 177839, Note_on_c, 15, 50, 0
21, 177840, Note_on_c, 15, 38, 90
21, 177899, Note_on_c, 15, 38, 0
21, 177900, Note_on_c, 15, 38, 90
21, 177959, Note_on_c, 15, 38, 0
21, 177960, Note_on_c, 15, 50, 90
21, 178019, Note_on_c, 15, 50, 0
21, 178020, Note_on_c, 15, 49, 90
21, 178079, Note_on_c, 15, 49, 0
21, 178080, Note_on_c, 15, 37, 90
21, 178139, Note_on_c, 15, 37, 0
21, 178140, Note_on_c, 15, 38, 90
21, 178199, Note_on_c, 15, 38, 0
21, 178200, Note_on_c, 15, 40, 90
21, 178259, Note_on_c, 15, 40, 0
21, 178260, Note_on_c, 15, 45, 90
21, 178289, Note_on_c, 15, 45, 0
21, 178290, Note_on_c, 15, 44, 90
21, 178319, Note_on_c, 15, 44, 0
21, 178320, Note_on_c, 15, 45, 90
21, 178349, Note_on_c, 15, 45, 0
21, 178350, Note_on_c, 15, 47, 90
21, 178379, Note_on_c, 15, 47, 0
21, 178380, Note_on_c, 15, 49, 90
21, 178409, Note_on_c, 15, 49, 0
21, 178410, Note_on_c, 15, 47, 90
21, 178439, Note_on_c, 15, 47, 0
21, 178440, Note_on_c, 15, 49, 90
21, 178469, Note_on_c, 15, 49, 0
21, 178470, Note_on_c, 15, 45, 90
21, 178499, Note_on_c, 15, 45, 0
21, 178500, Note_on_c, 15, 50, 90
21, 178559, Note_on_c, 15, 50, 0
21, 178560, Note_on_c, 15, 49, 90
21, 178619, Note_on_c, 15, 49, 0
21, 178620, Note_on_c, 15, 47, 90
21, 178679, Note_on_c, 15, 47, 0
21, 178680, Note_on_c, 15, 45, 90
21, 178739, Note_on_c, 15, 45, 0
21, 178740, Note_on_c, 15, 44, 90
21, 178799, Note_on_c, 15, 44, 0
21, 178800, Note_on_c, 15, 40, 90
21, 178859, Note_on_c, 15, 40, 0
21, 178860, Note_on_c, 15, 45, 90
21, 178919, Note_on_c, 15, 45, 0
21, 178920, Note_on_c, 15, 47, 90
21, 178979, Note_on_c, 15, 47, 0
21, 178980, Note_on_c, 15, 49, 90
21, 179039, Note_on_c, 15, 49, 0
21, 179040, Note_on_c, 15, 45, 90
21, 179099, Note_on_c, 15, 45, 0
21, 179100, Note_on_c, 15, 50, 90
21, 179159, Note_on_c, 15, 50, 0
21, 179160, Note_on_c, 15, 47, 90
21, 179219, Note_on_c, 15, 47, 0
21, 179220, Note_on_c, 15, 52, 90
21, 179279, Note_on_c, 15, 52, 0
21, 179280, Note_on_c, 15, 54, 90
21, 179339, Note_on_c, 15, 54, 0
21, 179340, Note_on_c, 15, 56, 90
21, 179399, Note_on_c, 15, 56, 0
21, 179400, Note_on_c, 15, 52, 90
21, 179459, Note_on_c, 15, 52, 0
21, 179460, Note_on_c, 15, 57, 90
21, 179519, Note_on_c, 15, 57, 0
21, 179580, Note_on_c, 15, 45, 90
21, 179639, Note_on_c, 15, 45, 0
21, 179700, Note_on_c, 15, 50, 90
21, 179759, Note_on_c, 15, 50, 0
21, 179880, Note_on_c, 15, 51, 90
21, 179939, Note_on_c, 15, 51, 0
21, 179940, Note_on_c, 15, 52, 90
21, 179999, Note_on_c, 15, 52, 0
21, 180000, Note_on_c, 15, 50, 90
21, 180059, Note_on_c, 15, 50, 0
21, 180060, Note_on_c, 15, 52, 90
21, 180119, Note_on_c, 15, 52, 0
21, 180120, Note_on_c, 15, 40, 90
21, 180179, Note_on_c, 15, 40, 0
21, 180180, Note_on_c, 15, 45, 90
21, 180419, Note_on_c, 15, 45, 0
21, 180420, Note_on_c, 15, 50, 90
21, 180479, Note_on_c, 15, 50, 0
21, 180480, Note_on_c, 15, 38, 90
21, 180539, Note_on_c, 15, 38, 0
21, 180540, Note_on_c, 15, 38, 90
21, 180599, Note_on_c, 15, 38, 0
21, 180600, Note_on_c, 15, 50, 90
21, 180659, Note_on_c, 15, 50, 0
21, 180660, Note_on_c, 15, 50, 90
21, 180719, Note_on_c, 15, 50, 0
21, 180720, Note_on_c, 15, 38, 90
21, 180779, Note_on_c, 15, 38, 0
21, 180780, Note_on_c, 15, 38, 90
21, 180839, Note_on_c, 15, 38, 0
21, 180840, Note_on_c, 15, 50, 90
21, 180869, Note_on_c, 15, 50, 0
21, 180870, Note_on_c, 15, 52, 90
21, 180899, Note_on_c, 15, 52, 0
21, 180900, Note_on_c, 15, 54, 90
21, 180959, Note_on_c, 15, 54, 0
21, 180960, Note_on_c, 15, 50, 90
21, 181019, Note_on_c, 15, 50, 0
21, 181020, Note_on_c, 15, 57, 90
21, 181079, Note_on_c, 15, 57, 0
21, 181080, Note_on_c, 15, 45, 90
21, 181139, Note_on_c, 15, 45, 0
21, 181140, Note_on_c, 15, 50, 90
21, 181199, Note_on_c, 15, 50, 0
21, 181200, Note_on_c, 15, 42, 90
21, 181259, Note_on_c, 15, 42, 0
21, 181260, Note_on_c, 15, 43, 90
21, 181319, Note_on_c, 15, 43, 0
21, 181320, Note_on_c, 15, 45, 90
21, 181379, Note_on_c, 15, 45, 0
21, 181380, Note_on_c, 15, 50, 90
21, 181439, Note_on_c, 15, 50, 0
21, 181440, Note_on_c, 15, 38, 90
21, 181499, Note_on_c, 15, 38, 0
21, 181500, Note_on_c, 15, 38, 90
21, 181559, Note_on_c, 15, 38, 0
21, 181560, Note_on_c, 15, 50, 90
21, 181619, Note_on_c, 15, 50, 0
21, 181620, Note_on_c, 15, 50, 90
21, 181679, Note_on_c, 15, 50, 0
21, 181680, Note_on_c, 15, 38, 90
21, 181739, Note_on_c, 15, 38, 0
21, 181740, Note_on_c, 15, 38, 90
21, 181799, Note_on_c, 15, 38, 0
21, 181800, Note_on_c, 15, 50, 90
21, 181829, Note_on_c, 15, 50, 0
21, 181830, Note_on_c, 15, 49, 90
21, 181859, Note_on_c, 15, 49, 0
21, 181860, Note_on_c, 15, 47, 90
21, 181919, Note_on_c, 15, 47, 0
21, 181920, Note_on_c, 15, 42, 90
21, 181979, Note_on_c, 15, 42, 0
21, 181980, Note_on_c, 15, 43, 90
21, 182039, Note_on_c, 15, 43, 0
21, 182040, Note_on_c, 15, 45, 90
21, 182099, Note_on_c, 15, 45, 0
21, 182100, Note_on_c, 15, 50, 90
21, 182159, Note_on_c, 15, 50, 0
21, 182160, Note_on_c, 15, 38, 90
21, 182219, Note_on_c, 15, 38, 0
21, 182220, Note_on_c, 15, 38, 90
21, 182279, Note_on_c, 15, 38, 0
21, 182280, Note_on_c, 15, 54, 90
21, 182339, Note_on_c, 15, 54, 0
21, 182340, Note_on_c, 15, 55, 90
21, 182399, Note_on_c, 15, 55, 0
21, 182400, Note_on_c, 15, 59, 90
21, 182459, Note_on_c, 15, 59, 0
21, 182460, Note_on_c, 15, 62, 90
21, 182519, Note_on_c, 15, 62, 0
21, 182520, Note_on_c, 15, 55, 90
21, 182579, Note_on_c, 15, 55, 0
21, 182580, Note_on_c, 15, 54, 90
21, 182639, Note_on_c, 15, 54, 0
21, 182640, Note_on_c, 15, 57, 90
21, 182699, Note_on_c, 15, 57, 0
21, 182700, Note_on_c, 15, 62, 90
21, 182759, Note_on_c, 15, 62, 0
21, 182760, Note_on_c, 15, 54, 90
21, 182819, Note_on_c, 15, 54, 0
21, 182820, Note_on_c, 15, 52, 90
21, 182879, Note_on_c, 15, 52, 0
21, 182880, Note_on_c, 15, 61, 90
21, 182939, Note_on_c, 15, 61, 0
21, 182940, Note_on_c, 15, 50, 90
21, 182999, Note_on_c, 15, 50, 0
21, 183000, Note_on_c, 15, 62, 90
21, 183059, Note_on_c, 15, 62, 0
21, 183060, Note_on_c, 15, 57, 90
21, 183119, Note_on_c, 15, 57, 0
21, 183120, Note_on_c, 15, 55, 90
21, 183179, Note_on_c, 15, 55, 0
21, 183180, Note_on_c, 15, 54, 90
21, 183239, Note_on_c, 15, 54, 0
21, 183240, Note_on_c, 15, 52, 90
21, 183299, Note_on_c, 15, 52, 0
21, 183300, Note_on_c, 15, 50, 90
21, 183359, Note_on_c, 15, 50, 0
21, 183360, Note_on_c, 15, 42, 90
21, 183419, Note_on_c, 15, 42, 0
21, 183420, Note_on_c, 15, 40, 90
21, 183479, Note_on_c, 15, 40, 0
21, 183480, Note_on_c, 15, 38, 90
21, 183539, Note_on_c, 15, 38, 0
21, 183540, Note_on_c, 15, 45, 90
21, 183599, Note_on_c, 15, 45, 0
21, 183600, Note_on_c, 15, 57, 90
21, 183629, Note_on_c, 15, 57, 0
21, 183630, Note_on_c, 15, 59, 90
21, 183659, Note_on_c, 15, 59, 0
21, 183660, Note_on_c, 15, 57, 90
21, 183689, Note_on_c, 15, 57, 0
21, 183690, Note_on_c, 15, 55, 90
21, 183719, Note_on_c, 15, 55, 0
21, 183720, Note_on_c, 15, 54, 90
21, 183749, Note_on_c, 15, 54, 0
21, 183750, Note_on_c, 15, 52, 90
21, 183779, Note_on_c, 15, 52, 0
21, 183780, Note_on_c, 15, 50, 90
21, 183839, Note_on_c, 15, 50, 0
21, 183840, Note_on_c, 15, 38, 90
21, 183959, Note_on_c, 15, 38, 0
21, 183960, Note_on_c, 15, 50, 90
21, 184079, Note_on_c, 15, 50, 0
21, 184080, Note_on_c, 15, 38, 90
21, 184199, Note_on_c, 15, 38, 0
21, 184200, Note_on_c, 15, 49, 90
21, 184259, Note_on_c, 15, 49, 0
21, 184260, Note_on_c, 15, 47, 90
21, 184319, Note_on_c, 15, 47, 0
21, 184320, Note_on_c, 15, 54, 90
21, 184349, Note_on_c, 15, 54, 0
21, 184350, Note_on_c, 15, 55, 90
21, 184379, Note_on_c, 15, 55, 0
21, 184380, Note_on_c, 15, 57, 90
21, 184439, Note_on_c, 15, 57, 0
21, 184440, Note_on_c, 15, 45, 90
21, 184499, Note_on_c, 15, 45, 0
21, 184500, Note_on_c, 15, 50, 90
21, 184559, Note_on_c, 15, 50, 0
21, 184560, Note_on_c, 15, 45, 90
21, 184619, Note_on_c, 15, 45, 0
21, 184620, Note_on_c, 15, 42, 90
21, 184679, Note_on_c, 15, 42, 0
21, 184680, Note_on_c, 15, 45, 90
21, 184739, Note_on_c, 15, 45, 0
21, 184740, Note_on_c, 15, 50, 90
21, 184799, Note_on_c, 15, 50, 0
21, 184800, Note_on_c, 15, 38, 90
21, 184919, Note_on_c, 15, 38, 0
21, 184920, Note_on_c, 15, 50, 90
21, 185039, Note_on_c, 15, 50, 0
21, 185040, Note_on_c, 15, 38, 90
21, 185159, Note_on_c, 15, 38, 0
21, 185160, Note_on_c, 15, 49, 90
21, 185219, Note_on_c, 15, 49, 0
21, 185220, Note_on_c, 15, 47, 90
21, 185279, Note_on_c, 15, 47, 0
21, 185280, Note_on_c, 15, 54, 90
21, 185309, Note_on_c, 15, 54, 0
21, 185310, Note_on_c, 15, 55, 90
21, 185339, Note_on_c, 15, 55, 0
21, 185340, Note_on_c, 15, 57, 90
21, 185399, Note_on_c, 15, 57, 0
21, 185400, Note_on_c, 15, 45, 90
21, 185459, Note_on_c, 15, 45, 0
21, 185460, Note_on_c, 15, 50, 90
21, 185519, Note_on_c, 15, 50, 0
21, 185520, Note_on_c, 15, 45, 90
21, 185579, Note_on_c, 15, 45, 0
21, 185580, Note_on_c, 15, 42, 90
21, 185639, Note_on_c, 15, 42, 0
21, 185640, Note_on_c, 15, 38, 90
21, 185699, Note_on_c, 15, 38, 0
21, 185700, Note_on_c, 15, 43, 90
21, 185759, Note_on_c, 15, 43, 0
21, 185760, Note_on_c, 15, 47, 90
21, 185819, Note_on_c, 15, 47, 0
21, 185820, Note_on_c, 15, 50, 90
21, 185879, Note_on_c, 15, 50, 0
21, 185880, Note_on_c, 15, 43, 90
21, 185939, Note_on_c, 15, 43, 0
21, 185940, Note_on_c, 15, 42, 90
21, 185999, Note_on_c, 15, 42, 0
21, 186000, Note_on_c, 15, 45, 90
21, 186059, Note_on_c, 15, 45, 0
21, 186060, Note_on_c, 15, 50, 90
21, 186119, Note_on_c, 15, 50, 0
21, 186120, Note_on_c, 15, 42, 90
21, 186179, Note_on_c, 15, 42, 0
21, 186180, Note_on_c, 15, 40, 90
21, 186239, Note_on_c, 15, 40, 0
21, 186240, Note_on_c, 15, 49, 90
21, 186299, Note_on_c, 15, 49, 0
21, 186300, Note_on_c, 15, 38, 90
21, 186359, Note_on_c, 15, 38, 0
21, 186360, Note_on_c, 15, 50, 90
21, 186419, Note_on_c, 15, 50, 0
21, 186420, Note_on_c, 15, 45, 90
21, 186479, Note_on_c, 15, 45, 0
21, 186480, Note_on_c, 15, 43, 90
21, 186539, Note_on_c, 15, 43, 0
21, 186540, Note_on_c, 15, 42, 90
21, 186599, Note_on_c, 15, 42, 0
21, 186600, Note_on_c, 15, 40, 90
21, 186659, Note_on_c, 15, 40, 0
21, 186660, Note_on_c, 15, 38, 90
21, 186719, Note_on_c, 15, 38, 0
21, 186720, Note_on_c, 15, 50, 90
21, 186779, Note_on_c, 15, 50, 0
21, 186780, Note_on_c, 15, 49, 90
21, 186839, Note_on_c, 15, 49, 0
21, 186840, Note_on_c, 15, 50, 90
21, 186899, Note_on_c, 15, 50, 0
21, 186900, Note_on_c, 15, 45, 90
21, 186959, Note_on_c, 15, 45, 0
21, 186960, Note_on_c, 15, 47, 90
21, 187019, Note_on_c, 15, 47, 0
21, 187020, Note_on_c, 15, 49, 90
21, 187079, Note_on_c, 15, 49, 0
21, 187080, Note_on_c, 15, 50, 90
21, 187139, Note_on_c, 15, 50, 0
21, 187140, Note_on_c, 15, 49, 90
21, 187199, Note_on_c, 15, 49, 0
21, 187200, Note_on_c, 15, 45, 90
21, 187259, Note_on_c, 15, 45, 0
21, 187260, Note_on_c, 15, 49, 90
21, 187319, Note_on_c, 15, 49, 0
21, 187320, Note_on_c, 15, 52, 90
21, 187379, Note_on_c, 15, 52, 0
21, 187380, Note_on_c, 15, 57, 90
21, 187439, Note_on_c, 15, 57, 0
21, 187440, Note_on_c, 15, 55, 90
21, 187469, Note_on_c, 15, 55, 0
21, 187470, Note_on_c, 15, 54, 90
21, 187499, Note_on_c, 15, 54, 0
21, 187500, Note_on_c, 15, 52, 90
21, 187559, Note_on_c, 15, 52, 0
21, 187560, Note_on_c, 15, 50, 90
21, 187619, Note_on_c, 15, 50, 0
21, 187620, Note_on_c, 15, 49, 90
21, 187679, Note_on_c, 15, 49, 0
21, 187680, Note_on_c, 15, 52, 90
21, 187739, Note_on_c, 15, 52, 0
21, 187740, Note_on_c, 15, 49, 90
21, 187799, Note_on_c, 15, 49, 0
21, 187800, Note_on_c, 15, 45, 90
21, 187859, Note_on_c, 15, 45, 0
21, 187860, Note_on_c, 15, 50, 90
21, 187919, Note_on_c, 15, 50, 0
21, 187920, Note_on_c, 15, 52, 90
21, 187979, Note_on_c, 15, 52, 0
21, 187980, Note_on_c, 15, 54, 90
21, 188039, Note_on_c, 15, 54, 0
21, 188040, Note_on_c, 15, 55, 90
21, 188099, Note_on_c, 15, 55, 0
21, 188100, Note_on_c, 15, 54, 90
21, 188159, Note_on_c, 15, 54, 0
21, 188160, Note_on_c, 15, 57, 90
21, 188189, Note_on_c, 15, 57, 0
21, 188190, Note_on_c, 15, 55, 90
21, 188219, Note_on_c, 15, 55, 0
21, 188220, Note_on_c, 15, 54, 90
21, 188279, Note_on_c, 15, 54, 0
21, 188280, Note_on_c, 15, 52, 90
21, 188339, Note_on_c, 15, 52, 0
21, 188340, Note_on_c, 15, 50, 90
21, 188399, Note_on_c, 15, 50, 0
21, 188400, Note_on_c, 15, 38, 90
21, 188459, Note_on_c, 15, 38, 0
21, 188460, Note_on_c, 15, 50, 90
21, 188519, Note_on_c, 15, 50, 0
21, 188520, Note_on_c, 15, 52, 90
21, 188579, Note_on_c, 15, 52, 0
21, 188580, Note_on_c, 15, 54, 90
21, 188639, Note_on_c, 15, 54, 0
21, 188640, Note_on_c, 15, 57, 90
21, 188699, Note_on_c, 15, 57, 0
21, 188700, Note_on_c, 15, 54, 90
21, 188759, Note_on_c, 15, 54, 0
21, 188760, Note_on_c, 15, 50, 90
21, 188819, Note_on_c, 15, 50, 0
21, 188820, Note_on_c, 15, 55, 90
21, 188879, Note_on_c, 15, 55, 0
21, 188880, Note_on_c, 15, 43, 90
21, 188939, Note_on_c, 15, 43, 0
21, 188940, Note_on_c, 15, 55, 90
21, 188969, Note_on_c, 15, 55, 0
21, 188970, Note_on_c, 15, 54, 90
21, 188999, Note_on_c, 15, 54, 0
21, 189000, Note_on_c, 15, 52, 90
21, 189029, Note_on_c, 15, 52, 0
21, 189030, Note_on_c, 15, 50, 90
21, 189059, Note_on_c, 15, 50, 0
21, 189060, Note_on_c, 15, 49, 90
21, 189119, Note_on_c, 15, 49, 0
21, 189120, Note_on_c, 15, 49, 90
21, 189179, Note_on_c, 15, 49, 0
21, 189180, Note_on_c, 15, 49, 90
21, 189239, Note_on_c, 15, 49, 0
21, 189240, Note_on_c, 15, 50, 90
21, 189269, Note_on_c, 15, 50, 0
21, 189270, Note_on_c, 15, 52, 90
21, 189299, Note_on_c, 15, 52, 0
21, 189300, Note_on_c, 15, 54, 90
21, 189359, Note_on_c, 15, 54, 0
21, 189360, Note_on_c, 15, 42, 90
21, 189419, Note_on_c, 15, 42, 0
21, 189420, Note_on_c, 15, 54, 90
21, 189449, Note_on_c, 15, 54, 0
21, 189450, Note_on_c, 15, 52, 90
21, 189479, Note_on_c, 15, 52, 0
21, 189480, Note_on_c, 15, 50, 90
21, 189509, Note_on_c, 15, 50, 0
21, 189510, Note_on_c, 15, 49, 90
21, 189539, Note_on_c, 15, 49, 0
21, 189540, Note_on_c, 15, 47, 90
21, 189599, Note_on_c, 15, 47, 0
21, 189600, Note_on_c, 15, 47, 90
21, 189659, Note_on_c, 15, 47, 0
21, 189660, Note_on_c, 15, 47, 90
21, 189719, Note_on_c, 15, 47, 0
21, 189720, Note_on_c, 15, 49, 90
21, 189749, Note_on_c, 15, 49, 0
21, 189750, Note_on_c, 15, 50, 90
21, 189779, Note_on_c, 15, 50, 0
21, 189780, Note_on_c, 15, 52, 90
21, 189839, Note_on_c, 15, 52, 0
21, 189840, Note_on_c, 15, 40, 90
21, 189899, Note_on_c, 15, 40, 0
21, 189900, Note_on_c, 15, 52, 90
21, 189929, Note_on_c, 15, 52, 0
21, 189930, Note_on_c, 15, 50, 90
21, 189959, Note_on_c, 15, 50, 0
21, 189960, Note_on_c, 15, 49, 90
21, 189989, Note_on_c, 15, 49, 0
21, 189990, Note_on_c, 15, 47, 90
21, 190019, Note_on_c, 15, 47, 0
21, 190020, Note_on_c, 15, 45, 90
21, 190079, Note_on_c, 15, 45, 0
21, 190080, Note_on_c, 15, 57, 90
21, 190139, Note_on_c, 15, 57, 0
21, 190140, Note_on_c, 15, 57, 90
21, 190199, Note_on_c, 15, 57, 0
21, 190200, Note_on_c, 15, 45, 90
21, 190259, Note_on_c, 15, 45, 0
21, 190260, Note_on_c, 15, 45, 90
21, 190319, Note_on_c, 15, 45, 0
21, 190320, Note_on_c, 15, 57, 90
21, 190379, Note_on_c, 15, 57, 0
21, 190380, Note_on_c, 15, 57, 90
21, 190439, Note_on_c, 15, 57, 0
21, 190440, Note_on_c, 15, 45, 90
21, 190499, Note_on_c, 15, 45, 0
21, 190500, Note_on_c, 15, 45, 90
21, 190559, Note_on_c, 15, 45, 0
21, 190560, Note_on_c, 15, 57, 90
21, 190619, Note_on_c, 15, 57, 0
21, 190620, Note_on_c, 15, 57, 90
21, 190679, Note_on_c, 15, 57, 0
21, 190680, Note_on_c, 15, 45, 90
21, 190739, Note_on_c, 15, 45, 0
21, 190740, Note_on_c, 15, 45, 90
21, 190799, Note_on_c, 15, 45, 0
21, 190800, Note_on_c, 15, 57, 90
21, 190859, Note_on_c, 15, 57, 0
21, 190860, Note_on_c, 15, 57, 90
21, 190919, Note_on_c, 15, 57, 0
21, 190920, Note_on_c, 15, 49, 90
21, 190979, Note_on_c, 15, 49, 0
21, 190980, Note_on_c, 15, 50, 90
21, 191039, Note_on_c, 15, 50, 0
21, 191040, Note_on_c, 15, 54, 90
21, 191099, Note_on_c, 15, 54, 0
21, 191100, Note_on_c, 15, 59, 90
21, 191159, Note_on_c, 15, 59, 0
21, 191160, Note_on_c, 15, 47, 90
21, 191219, Note_on_c, 15, 47, 0
21, 191220, Note_on_c, 15, 49, 90
21, 191279, Note_on_c, 15, 49, 0
21, 191280, Note_on_c, 15, 57, 90
21, 191339, Note_on_c, 15, 57, 0
21, 191340, Note_on_c, 15, 55, 90
21, 191399, Note_on_c, 15, 55, 0
21, 191400, Note_on_c, 15, 54, 90
21, 191459, Note_on_c, 15, 54, 0
21, 191460, Note_on_c, 15, 52, 90
21, 191489, Note_on_c, 15, 52, 0
21, 191490, Note_on_c, 15, 54, 90
21, 191519, Note_on_c, 15, 54, 0
21, 191520, Note_on_c, 15, 55, 90
21, 191549, Note_on_c, 15, 55, 0
21, 191550, Note_on_c, 15, 54, 90
21, 191579, Note_on_c, 15, 54, 0
21, 191580, Note_on_c, 15, 52, 90
21, 191609, Note_on_c, 15, 52, 0
21, 191610, Note_on_c, 15, 50, 90
21, 191639, Note_on_c, 15, 50, 0
21, 191640, Note_on_c, 15, 49, 90
21, 191669, Note_on_c, 15, 49, 0
21, 191670, Note_on_c, 15, 47, 90
21, 191699, Note_on_c, 15, 47, 0
21, 191700, Note_on_c, 15, 49, 90
21, 191759, Note_on_c, 15, 49, 0
21, 191760, Note_on_c, 15, 45, 90
21, 191819, Note_on_c, 15, 45, 0
21, 191820, Note_on_c, 15, 47, 90
21, 191879, Note_on_c, 15, 47, 0
21, 191880, Note_on_c, 15, 49, 90
21, 191939, Note_on_c, 15, 49, 0
21, 191940, Note_on_c, 15, 50, 90
21, 191999, Note_on_c, 15, 50, 0
21, 192000, Note_on_c, 15, 47, 90
21, 192059, Note_on_c, 15, 47, 0
21, 192060, Note_on_c, 15, 43, 90
21, 192119, Note_on_c, 15, 43, 0
21, 192120, Note_on_c, 15, 45, 90
21, 192179, Note_on_c, 15, 45, 0
21, 192180, Note_on_c, 15, 50, 90
21, 192239, Note_on_c, 15, 50, 0
21, 192240, Note_on_c, 15, 38, 90
21, 192299, Note_on_c, 15, 38, 0
21, 192300, Note_on_c, 15, 38, 90
21, 192359, Note_on_c, 15, 38, 0
21, 192360, Note_on_c, 15, 50, 90
21, 192419, Note_on_c, 15, 50, 0
21, 192420, Note_on_c, 15, 50, 90
21, 192479, Note_on_c, 15, 50, 0
21, 192480, Note_on_c, 15, 38, 90
21, 192539, Note_on_c, 15, 38, 0
21, 192540, Note_on_c, 15, 38, 90
21, 192599, Note_on_c, 15, 38, 0
21, 192600, Note_on_c, 15, 50, 90
21, 192659, Note_on_c, 15, 50, 0
21, 192660, Note_on_c, 15, 50, 90
21, 192719, Note_on_c, 15, 50, 0
21, 192720, Note_on_c, 15, 62, 90
21, 192779, Note_on_c, 15, 62, 0
21, 192780, Note_on_c, 15, 60, 90
21, 192839, Note_on_c, 15, 60, 0
21, 192840, Note_on_c, 15, 59, 90
21, 192899, Note_on_c, 15, 59, 0
21, 192900, Note_on_c, 15, 57, 90
21, 192959, Note_on_c, 15, 57, 0
21, 192960, Note_on_c, 15, 55, 90
21, 193019, Note_on_c, 15, 55, 0
21, 193020, Note_on_c, 15, 54, 90
21, 193079, Note_on_c, 15, 54, 0
21, 193080, Note_on_c, 15, 50, 90
21, 193139, Note_on_c, 15, 50, 0
21, 193140, Note_on_c, 15, 55, 90
21, 193199, Note_on_c, 15, 55, 0
21, 193260, Note_on_c, 15, 54, 90
21, 193319, Note_on_c, 15, 54, 0
21, 193380, Note_on_c, 15, 52, 90
21, 193439, Note_on_c, 15, 52, 0
21, 193440, Note_on_c, 15, 40, 90
21, 193499, Note_on_c, 15, 40, 0
21, 193500, Note_on_c, 15, 40, 90
21, 193559, Note_on_c, 15, 40, 0
21, 193560, Note_on_c, 15, 52, 90
21, 193679, Note_on_c, 15, 52, 0
21, 193680, Note_on_c, 15, 64, 90
21, 193739, Note_on_c, 15, 64, 0
21, 193740, Note_on_c, 15, 62, 90
21, 193799, Note_on_c, 15, 62, 0
21, 193800, Note_on_c, 15, 61, 90
21, 193859, Note_on_c, 15, 61, 0
21, 193860, Note_on_c, 15, 59, 90
21, 193919, Note_on_c, 15, 59, 0
21, 193920, Note_on_c, 15, 57, 90
21, 193979, Note_on_c, 15, 57, 0
21, 193980, Note_on_c, 15, 56, 90
21, 194039, Note_on_c, 15, 56, 0
21, 194040, Note_on_c, 15, 52, 90
21, 194099, Note_on_c, 15, 52, 0
21, 194100, Note_on_c, 15, 57, 90
21, 194159, Note_on_c, 15, 57, 0
21, 194220, Note_on_c, 15, 55, 90
21, 194279, Note_on_c, 15, 55, 0
21, 194340, Note_on_c, 15, 54, 90
21, 194399, Note_on_c, 15, 54, 0
21, 194460, Note_on_c, 15, 50, 90
21, 194519, Note_on_c, 15, 50, 0
21, 194580, Note_on_c, 15, 49, 90
21, 194639, Note_on_c, 15, 49, 0
21, 194700, Note_on_c, 15, 45, 90
21, 194759, Note_on_c, 15, 45, 0
21, 194820, Note_on_c, 15, 42, 90
21, 194879, Note_on_c, 15, 42, 0
21, 194880, Note_on_c, 15, 47, 90
21, 194939, Note_on_c, 15, 47, 0
21, 194940, Note_on_c, 15, 43, 90
21, 194999, Note_on_c, 15, 43, 0
21, 195000, Note_on_c, 15, 45, 90
21, 195059, Note_on_c, 15, 45, 0
21, 195060, Note_on_c, 15, 47, 90
21, 195119, Note_on_c, 15, 47, 0
21, 195120, Note_on_c, 15, 47, 90
21, 195179, Note_on_c, 15, 47, 0
21, 195180, Note_on_c, 15, 47, 90
21, 195239, Note_on_c, 15, 47, 0
21, 195240, Note_on_c, 15, 45, 90
21, 195299, Note_on_c, 15, 45, 0
21, 195300, Note_on_c, 15, 44, 90
21, 195359, Note_on_c, 15, 44, 0
21, 195420, Note_on_c, 15, 47, 90
21, 195479, Note_on_c, 15, 47, 0
21, 195540, Note_on_c, 15, 52, 90
21, 195599, Note_on_c, 15, 52, 0
21, 195660, Note_on_c, 15, 55, 90
21, 195719, Note_on_c, 15, 55, 0
21, 195840, Note_on_c, 15, 42, 90
21, 195899, Note_on_c, 15, 42, 0
21, 195900, Note_on_c, 15, 43, 90
21, 195959, Note_on_c, 15, 43, 0
21, 195960, Note_on_c, 15, 45, 90
21, 196019, Note_on_c, 15, 45, 0
21, 196020, Note_on_c, 15, 38, 90
21, 196079, Note_on_c, 15, 38, 0
21, 196080, Note_on_c, 15, 62, 90
21, 196139, Note_on_c, 15, 62, 0
21, 196140, Note_on_c, 15, 61, 90
21, 196199, Note_on_c, 15, 61, 0
21, 196200, Note_on_c, 15, 59, 90
21, 196259, Note_on_c, 15, 59, 0
21, 196260, Note_on_c, 15, 57, 90
21, 196319, Note_on_c, 15, 57, 0
21, 196320, Note_on_c, 15, 45, 90
21, 196379, Note_on_c, 15, 45, 0
21, 196380, Note_on_c, 15, 45, 90
21, 196439, Note_on_c, 15, 45, 0
21, 196440, Note_on_c, 15, 57, 90
21, 196499, Note_on_c, 15, 57, 0
21, 196500, Note_on_c, 15, 57, 90
21, 196559, Note_on_c, 15, 57, 0
21, 196560, Note_on_c, 15, 45, 90
21, 196619, Note_on_c, 15, 45, 0
21, 196620, Note_on_c, 15, 45, 90
21, 196679, Note_on_c, 15, 45, 0
21, 196680, Note_on_c, 15, 43, 90
21, 196739, Note_on_c, 15, 43, 0
21, 196740, Note_on_c, 15, 42, 90
21, 196799, Note_on_c, 15, 42, 0
21, 196800, Note_on_c, 15, 47, 90
21, 196859, Note_on_c, 15, 47, 0
21, 196860, Note_on_c, 15, 40, 90
21, 196919, Note_on_c, 15, 40, 0
21, 196920, Note_on_c, 15, 45, 90
21, 196979, Note_on_c, 15, 45, 0
21, 196980, Note_on_c, 15, 38, 90
21, 197039, Note_on_c, 15, 38, 0
21, 197040, Note_on_c, 15, 50, 90
21, 197099, Note_on_c, 15, 50, 0
21, 197100, Note_on_c, 15, 54, 90
21, 197159, Note_on_c, 15, 54, 0
21, 197160, Note_on_c, 15, 57, 90
21, 197219, Note_on_c, 15, 57, 0
21, 197220, Note_on_c, 15, 60, 90
21, 197279, Note_on_c, 15, 60, 0
21, 197280, Note_on_c, 15, 57, 90
21, 197339, Note_on_c, 15, 57, 0
21, 197340, Note_on_c, 15, 54, 90
21, 197399, Note_on_c, 15, 54, 0
21, 197400, Note_on_c, 15, 50, 90
21, 197459, Note_on_c, 15, 50, 0
21, 197460, Note_on_c, 15, 45, 90
21, 197519, Note_on_c, 15, 45, 0
21, 197520, Note_on_c, 15, 42, 90
21, 197579, Note_on_c, 15, 42, 0
21, 197580, Note_on_c, 15, 38, 90
21, 197639, Note_on_c, 15, 38, 0
21, 197640, Note_on_c, 15, 50, 90
21, 197699, Note_on_c, 15, 50, 0
21, 197700, Note_on_c, 15, 52, 90
21, 197759, Note_on_c, 15, 52, 0
21, 197760, Note_on_c, 15, 47, 90
21, 197819, Note_on_c, 15, 47, 0
21, 197820, Note_on_c, 15, 48, 90
21, 197879, Note_on_c, 15, 48, 0
21, 197880, Note_on_c, 15, 50, 90
21, 197939, Note_on_c, 15, 50, 0
21, 197940, Note_on_c, 15, 55, 90
21, 197999, Note_on_c, 15, 55, 0
21, 198000, Note_on_c, 15, 57, 90
21, 198059, Note_on_c, 15, 57, 0
21, 198060, Note_on_c, 15, 59, 90
21, 198119, Note_on_c, 15, 59, 0
21, 198120, Note_on_c, 15, 64, 90
21, 198179, Note_on_c, 15, 64, 0
21, 198180, Note_on_c, 15, 54, 90
21, 198239, Note_on_c, 15, 54, 0
21, 198240, Note_on_c, 15, 64, 90
21, 198299, Note_on_c, 15, 64, 0
21, 198300, Note_on_c, 15, 63, 90
21, 198359, Note_on_c, 15, 63, 0
21, 198360, Note_on_c, 15, 59, 90
21, 198419, Note_on_c, 15, 59, 0
21, 198420, Note_on_c, 15, 52, 90
21, 198479, Note_on_c, 15, 52, 0
21, 198480, Note_on_c, 15, 62, 90
21, 198539, Note_on_c, 15, 62, 0
21, 198540, Note_on_c, 15, 61, 90
21, 198599, Note_on_c, 15, 61, 0
21, 198600, Note_on_c, 15, 57, 90
21, 198659, Note_on_c, 15, 57, 0
21, 198660, Note_on_c, 15, 50, 90
21, 198719, Note_on_c, 15, 50, 0
21, 198720, Note_on_c, 15, 54, 90
21, 198779, Note_on_c, 15, 54, 0
21, 198780, Note_on_c, 15, 55, 90
21, 198839, Note_on_c, 15, 55, 0
21, 198840, Note_on_c, 15, 52, 90
21, 198899, Note_on_c, 15, 52, 0
21, 198900, Note_on_c, 15, 57, 90
21, 198959, Note_on_c, 15, 57, 0
21, 198960, Note_on_c, 15, 55, 90
21, 199019, Note_on_c, 15, 55, 0
21, 199020, Note_on_c, 15, 54, 90
21, 199079, Note_on_c, 15, 54, 0
21, 199080, Note_on_c, 15, 52, 90
21, 199139, Note_on_c, 15, 52, 0
21, 199140, Note_on_c, 15, 50, 90
21, 199199, Note_on_c, 15, 50, 0
21, 199200, Note_on_c, 15, 42, 90
21, 199259, Note_on_c, 15, 42, 0
21, 199260, Note_on_c, 15, 43, 90
21, 199319, Note_on_c, 15, 43, 0
21, 199320, Note_on_c, 15, 45, 90
21, 199379, Note_on_c, 15, 45, 0
21, 199380, Note_on_c, 15, 38, 90
21, 199619, Note_on_c, 15, 38, 0
21, 199980, Note_on_c, 15, 50, 90
21, 200099, Note_on_c, 15, 50, 0
21, 200100, Note_on_c, 15, 57, 90
21, 200279, Note_on_c, 15, 57, 0
21, 200280, Note_on_c, 15, 56, 90
21, 200339, Note_on_c, 15, 56, 0
21, 200340, Note_on_c, 15, 57, 90
21, 200399, Note_on_c, 15, 57, 0
21, 200400, Note_on_c, 15, 55, 90
21, 200459, Note_on_c, 15, 55, 0
21, 200460, Note_on_c, 15, 54, 90
21, 200579, Note_on_c, 15, 54, 0
21, 200580, Note_on_c, 15, 55, 90
21, 200639, Note_on_c, 15, 55, 0
21, 200640, Note_on_c, 15, 54, 90
21, 200699, Note_on_c, 15, 54, 0
21, 200700, Note_on_c, 15, 52, 90
21, 200819, Note_on_c, 15, 52, 0
21, 200820, Note_on_c, 15, 50, 90
21, 200879, Note_on_c, 15, 50, 0
21, 200880, Note_on_c, 15, 62, 90
21, 200939, Note_on_c, 15, 62, 0
21, 200970, Note_on_c, 15, 50, 90
21, 200999, Note_on_c, 15, 50, 0
21, 201000, Note_on_c, 15, 54, 90
21, 201029, Note_on_c, 15, 54, 0
21, 201030, Note_on_c, 15, 50, 90
21, 201059, Note_on_c, 15, 50, 0
21, 201060, Note_on_c, 15, 47, 90
21, 201119, Note_on_c, 15, 47, 0
21, 201120, Note_on_c, 15, 59, 90
21, 201179, Note_on_c, 15, 59, 0
21, 201210, Note_on_c, 15, 47, 90
21, 201239, Note_on_c, 15, 47, 0
21, 201240, Note_on_c, 15, 50, 90
21, 201269, Note_on_c, 15, 50, 0
21, 201270, Note_on_c, 15, 47, 90
21, 201299, Note_on_c, 15, 47, 0
21, 201300, Note_on_c, 15, 43, 90
21, 201359, Note_on_c, 15, 43, 0
21, 201360, Note_on_c, 15, 55, 90
21, 201419, Note_on_c, 15, 55, 0
21, 201420, Note_on_c, 15, 57, 90
21, 201479, Note_on_c, 15, 57, 0
21, 201480, Note_on_c, 15, 45, 90
21, 201539, Note_on_c, 15, 45, 0
21, 201540, Note_on_c, 15, 50, 90
21, 201599, Note_on_c, 15, 50, 0
21, 201600, Note_on_c, 15, 38, 90
21, 201659, Note_on_c, 15, 38, 0
21, 201660, Note_on_c, 15, 50, 90
21, 201719, Note_on_c, 15, 50, 0
21, 201720, Note_on_c, 15, 52, 90
21, 201779, Note_on_c, 15, 52, 0
21, 201780, Note_on_c, 15, 54, 90
21, 201839, Note_on_c, 15, 54, 0
21, 201840, Note_on_c, 15, 42, 90
21, 201899, Note_on_c, 15, 42, 0
21, 201900, Note_on_c, 15, 54, 90
21, 201959, Note_on_c, 15, 54, 0
21, 201960, Note_on_c, 15, 55, 90
21, 202019, Note_on_c, 15, 55, 0
21, 202020, Note_on_c, 15, 57, 90
21, 202079, Note_on_c, 15, 57, 0
21, 202080, Note_on_c, 15, 45, 90
21, 202139, Note_on_c, 15, 45, 0
21, 202140, Note_on_c, 15, 57, 90
21, 202199, Note_on_c, 15, 57, 0
21, 202200, Note_on_c, 15, 55, 90
21, 202259, Note_on_c, 15, 55, 0
21, 202260, Note_on_c, 15, 54, 90
21, 202319, Note_on_c, 15, 54, 0
21, 202320, Note_on_c, 15, 52, 90
21, 202379, Note_on_c, 15, 52, 0
21, 202380, Note_on_c, 15, 50, 90
21, 202439, Note_on_c, 15, 50, 0
21, 202440, Note_on_c, 15, 49, 90
21, 202499, Note_on_c, 15, 49, 0
21, 202500, Note_on_c, 15, 50, 90
21, 202559, Note_on_c, 15, 50, 0
21, 202560, Note_on_c, 15, 62, 90
21, 202619, Note_on_c, 15, 62, 0
21, 202650, Note_on_c, 15, 50, 90
21, 202679, Note_on_c, 15, 50, 0
21, 202680, Note_on_c, 15, 54, 90
21, 202709, Note_on_c, 15, 54, 0
21, 202710, Note_on_c, 15, 50, 90
21, 202739, Note_on_c, 15, 50, 0
21, 202740, Note_on_c, 15, 47, 90
21, 202799, Note_on_c, 15, 47, 0
21, 202800, Note_on_c, 15, 59, 90
21, 202859, Note_on_c, 15, 59, 0
21, 202890, Note_on_c, 15, 47, 90
21, 202919, Note_on_c, 15, 47, 0
21, 202920, Note_on_c, 15, 50, 90
21, 202949, Note_on_c, 15, 50, 0
21, 202950, Note_on_c, 15, 47, 90
21, 202979, Note_on_c, 15, 47, 0
21, 202980, Note_on_c, 15, 43, 90
21, 203039, Note_on_c, 15, 43, 0
21, 203040, Note_on_c, 15, 55, 90
21, 203099, Note_on_c, 15, 55, 0
21, 203100, Note_on_c, 15, 57, 90
21, 203159, Note_on_c, 15, 57, 0
21, 203160, Note_on_c, 15, 45, 90
21, 203219, Note_on_c, 15, 45, 0
21, 203220, Note_on_c, 15, 50, 90
21, 203279, Note_on_c, 15, 50, 0
21, 203280, Note_on_c, 15, 38, 90
21, 203339, Note_on_c, 15, 38, 0
21, 203340, Note_on_c, 15, 50, 90
21, 203399, Note_on_c, 15, 50, 0
21, 203400, Note_on_c, 15, 49, 90
21, 203459, Note_on_c, 15, 49, 0
21, 203460, Note_on_c, 15, 51, 90
21, 203519, Note_on_c, 15, 51, 0
21, 203520, Note_on_c, 15, 47, 90
21, 203579, Note_on_c, 15, 47, 0
21, 203580, Note_on_c, 15, 52, 90
21, 203639, Note_on_c, 15, 52, 0
21, 203640, Note_on_c, 15, 50, 90
21, 203699, Note_on_c, 15, 50, 0
21, 203700, Note_on_c, 15, 49, 90
21, 203759, Note_on_c, 15, 49, 0
21, 203760, Note_on_c, 15, 47, 90
21, 203819, Note_on_c, 15, 47, 0
21, 203820, Note_on_c, 15, 45, 90
21, 203879, Note_on_c, 15, 45, 0
21, 203880, Note_on_c, 15, 44, 90
21, 203939, Note_on_c, 15, 44, 0
21, 203940, Note_on_c, 15, 42, 90
21, 203999, Note_on_c, 15, 42, 0
21, 204000, Note_on_c, 15, 40, 90
21, 204059, Note_on_c, 15, 40, 0
21, 204060, Note_on_c, 15, 38, 90
21, 204119, Note_on_c, 15, 38, 0
21, 204120, Note_on_c, 15, 40, 90
21, 204179, Note_on_c, 15, 40, 0
21, 204180, Note_on_c, 15, 45, 90
21, 204239, Note_on_c, 15, 45, 0
21, 204240, Note_on_c, 15, 57, 90
21, 204299, Note_on_c, 15, 57, 0
21, 204330, Note_on_c, 15, 45, 90
21, 204359, Note_on_c, 15, 45, 0
21, 204360, Note_on_c, 15, 49, 90
21, 204389, Note_on_c, 15, 49, 0
21, 204390, Note_on_c, 15, 45, 90
21, 204419, Note_on_c, 15, 45, 0
21, 204420, Note_on_c, 15, 42, 90
21, 204479, Note_on_c, 15, 42, 0
21, 204480, Note_on_c, 15, 54, 90
21, 204539, Note_on_c, 15, 54, 0
21, 204570, Note_on_c, 15, 42, 90
21, 204599, Note_on_c, 15, 42, 0
21, 204600, Note_on_c, 15, 45, 90
21, 204629, Note_on_c, 15, 45, 0
21, 204630, Note_on_c, 15, 42, 90
21, 204659, Note_on_c, 15, 42, 0
21, 204660, Note_on_c, 15, 38, 90
21, 204719, Note_on_c, 15, 38, 0
21, 204720, Note_on_c, 15, 50, 90
21, 204779, Note_on_c, 15, 50, 0
21, 204780, Note_on_c, 15, 52, 90
21, 204839, Note_on_c, 15, 52, 0
21, 204840, Note_on_c, 15, 40, 90
21, 204899, Note_on_c, 15, 40, 0
21, 204900, Note_on_c, 15, 45, 90
21, 204959, Note_on_c, 15, 45, 0
21, 204960, Note_on_c, 15, 57, 90
21, 205079, Note_on_c, 15, 57, 0
21, 205080, Note_on_c, 15, 56, 90
21, 205139, Note_on_c, 15, 56, 0
21, 205140, Note_on_c, 15, 57, 90
21, 205199, Note_on_c, 15, 57, 0
21, 205200, Note_on_c, 15, 54, 90
21, 205259, Note_on_c, 15, 54, 0
21, 205260, Note_on_c, 15, 50, 90
21, 205319, Note_on_c, 15, 50, 0
21, 205320, Note_on_c, 15, 55, 90
21, 205439, Note_on_c, 15, 55, 0
21, 205440, Note_on_c, 15, 54, 90
21, 205499, Note_on_c, 15, 54, 0
21, 205500, Note_on_c, 15, 55, 90
21, 205559, Note_on_c, 15, 55, 0
21, 205560, Note_on_c, 15, 57, 90
21, 205619, Note_on_c, 15, 57, 0
21, 205620, Note_on_c, 15, 59, 90
21, 205679, Note_on_c, 15, 59, 0
21, 205680, Note_on_c, 15, 55, 90
21, 205739, Note_on_c, 15, 55, 0
21, 205740, Note_on_c, 15, 57, 90
21, 205799, Note_on_c, 15, 57, 0
21, 205800, Note_on_c, 15, 45, 90
21, 205859, Note_on_c, 15, 45, 0
21, 205860, Note_on_c, 15, 50, 90
21, 205919, Note_on_c, 15, 50, 0
21, 205920, Note_on_c, 15, 62, 90
21, 205979, Note_on_c, 15, 62, 0
21, 206010, Note_on_c, 15, 50, 90
21, 206039, Note_on_c, 15, 50, 0
21, 206040, Note_on_c, 15, 54, 90
21, 206069, Note_on_c, 15, 54, 0
21, 206070, Note_on_c, 15, 50, 90
21, 206099, Note_on_c, 15, 50, 0
21, 206100, Note_on_c, 15, 47, 90
21, 206159, Note_on_c, 15, 47, 0
21, 206160, Note_on_c, 15, 59, 90
21, 206219, Note_on_c, 15, 59, 0
21, 206250, Note_on_c, 15, 47, 90
21, 206279, Note_on_c, 15, 47, 0
21, 206280, Note_on_c, 15, 50, 90
21, 206309, Note_on_c, 15, 50, 0
21, 206310, Note_on_c, 15, 47, 90
21, 206339, Note_on_c, 15, 47, 0
21, 206340, Note_on_c, 15, 43, 90
21, 206399, Note_on_c, 15, 43, 0
21, 206400, Note_on_c, 15, 55, 90
21, 206459, Note_on_c, 15, 55, 0
21, 206460, Note_on_c, 15, 57, 90
21, 206519, Note_on_c, 15, 57, 0
21, 206520, Note_on_c, 15, 45, 90
21, 206579, Note_on_c, 15, 45, 0
21, 206580, Note_on_c, 15, 47, 90
21, 206699, Note_on_c, 15, 47, 0
21, 206760, Note_on_c, 15, 59, 90
21, 206819, Note_on_c, 15, 59, 0
21, 206820, Note_on_c, 15, 57, 90
21, 206879, Note_on_c, 15, 57, 0
21, 206880, Note_on_c, 15, 55, 90
21, 206939, Note_on_c, 15, 55, 0
21, 206940, Note_on_c, 15, 57, 90
21, 206999, Note_on_c, 15, 57, 0
21, 207000, Note_on_c, 15, 45, 90
21, 207059, Note_on_c, 15, 45, 0
21, 207060, Note_on_c, 15, 38, 90
21, 207180, Note_on_c, 15, 38, 0
21, 207180, End_track
22, 0, Start_track
22, 0, MIDI_port, 0
22, 0, Title_t, "J.S.BACH"
22, 0, End_track
23, 0, Start_track
23, 0, MIDI_port, 0
23, 0, Title_t, "BWV 248"
23, 0, End_track
24, 0, Start_track
24, 0, MIDI_port, 0
24, 0, Title_t, "CHRISTMAS ORATORIO"
24, 0, End_track
25, 0, Start_track
25, 0, MIDI_port, 0
25, 0, Title_t, "CANTATA Nº1"
25, 0, End_track
26, 0, Start_track
26, 0, MIDI_port, 0
26, 0, Title_t, "Jauchzet, frohlocket, auf, preiset die Tage!"
26, 0, End_track
27, 0, Start_track
27, 0, MIDI_port, 0
27, 0, End_track
28, 0, Start_track
28, 0, MIDI_port, 0
28, 0, Title_t, "SECUENCED BY"
28, 0, End_track
29, 0, Start_track
29, 0, MIDI_port, 0
29, 0, Title_t, "MARCELO COPIA M."
29, 0, End_track
30, 0, Start_track
30, 0, MIDI_port, 0
30, 0, Title_t, "mcopia@entelchile.net"
30, 0, End_track
0, 0, End_of_file
