0, 0, Header, 1, 28, 120
1, 0, Start_track
1, 0, Time_signature, 3, 2, 24, 8
1, 0, Key_signature, 2, "major"
1, 0, Tempo, 666667
1, 0, Marker_t, "Magnificat"
1, 0, Marker_t, "J.S.Bach BWV 243"
1, 0, Marker_t, "1998 by Marcelo Copia"
1, 0, Marker_t, "Magnificat"
1, 31695, Tempo, 731707
1, 31710, Tempo, 750000
1, 31725, Tempo, 750000
1, 31740, Tempo, 769231
1, 31755, Tempo, 779221
1, 31770, Tempo, 789474
1, 31785, Tempo, 800000
1, 31800, Tempo, 800000
1, 31815, Tempo, 821918
1, 31830, Tempo, 833333
1, 31845, Tempo, 833333
1, 31860, Tempo, 845070
1, 31875, Tempo, 869565
1, 31890, Tempo, 869565
1, 31905, Tempo, 895522
1, 31920, Tempo, 895522
1, 31935, Tempo, 923077
1, 31950, Tempo, 937500
1, 31965, Tempo, 937500
1, 31980, Tempo, 967742
1, 31995, Tempo, 983607
1, 32010, Tempo, 1000000
1, 32025, Tempo, 1000000
1, 32760, Time_signature, 3, 3, 12, 8
1, 32760, Tempo, 923077
1, 32760, Marker_t, "Et exultavit spiritus meus"
1, 49500, Time_signature, 4, 2, 24, 8
1, 49500, Tempo, 1538462
1, 49500, Marker_t, "Quia respexit humilitatem"
1, 61020, Tempo, 674157
1, 61500, Marker_t, "Omnes generationes"
1, 74460, Key_signature, 3, "major"
1, 74460, Tempo, 779221
1, 74460, Marker_t, "Quia fecit mihi magna"
1, 91260, Time_signature, 12, 3, 12, 8
1, 91260, Key_signature, 1, "major"
1, 91260, Tempo, 1000000
1, 91260, Marker_t, "Et misericordia"
1, 115912, Tempo, 983607
1, 115982, Tempo, 1016949
1, 116002, Tempo, 1052632
1, 116022, Tempo, 1071429
1, 116052, Tempo, 1090909
1, 116062, Tempo, 1132075
1, 116092, Tempo, 1153846
1, 117180, Time_signature, 4, 2, 24, 8
1, 117180, Key_signature, 2, "major"
1, 117180, Tempo, 666667
1, 117180, Marker_t, "Fecit potentiam"
1, 130620, Tempo, 1000000
1, 130620, Marker_t, "adagio"
1, 132060, Tempo, 1200000
1, 134460, Time_signature, 3, 2, 24, 8
1, 134460, Key_signature, 3, "major"
1, 134460, Tempo, 600000
1, 134460, Marker_t, "Deposuit potentes"
1, 159300, Time_signature, 4, 2, 24, 8
1, 159300, Key_signature, 4, "major"
1, 159300, Tempo, 1000000
1, 159300, Marker_t, "Esurientes implevit bonis"
1, 179940, Time_signature, 3, 2, 24, 8
1, 179940, Key_signature, 2, "major"
1, 179940, Tempo, 1000000
1, 179940, Marker_t, "suscepit Israel"
1, 193260, Time_signature, 4, 2, 24, 8
1, 193260, Tempo, 400000
1, 193740, Marker_t, "Sicut locutus est"
1, 217260, Tempo, 400000
1, 217271, Tempo, 402685
1, 217273, Tempo, 402685
1, 217276, Tempo, 402685
1, 217282, Tempo, 405405
1, 217287, Tempo, 405405
1, 217292, Tempo, 405405
1, 217293, Tempo, 408163
1, 217301, Tempo, 408163
1, 217305, Tempo, 410959
1, 217308, Tempo, 408163
1, 217315, Tempo, 410959
1, 217316, Tempo, 413793
1, 217325, Tempo, 410959
1, 217327, Tempo, 416667
1, 217328, Tempo, 413793
1, 217338, Tempo, 419580
1, 217341, Tempo, 413793
1, 217342, Tempo, 416667
1, 217350, Tempo, 422535
1, 217356, Tempo, 419580
1, 217357, Tempo, 416667
1, 217361, Tempo, 425532
1, 217370, Tempo, 422535
1, 217372, Tempo, 428571
1, 217373, Tempo, 419580
1, 217383, Tempo, 431655
1, 217395, Tempo, 434783
1, 217406, Tempo, 437956
1, 217417, Tempo, 441176
1, 217428, Tempo, 444444
1, 217440, Tempo, 447761
1, 217451, Tempo, 451128
1, 217462, Tempo, 454545
1, 217473, Tempo, 458015
1, 217485, Tempo, 461538
1, 217496, Tempo, 465116
1, 217507, Tempo, 468750
1, 217518, Tempo, 472441
1, 217530, Tempo, 476190
1, 217541, Tempo, 480000
1, 217552, Tempo, 483871
1, 217563, Tempo, 487805
1, 217575, Tempo, 491803
1, 217586, Tempo, 495868
1, 217597, Tempo, 500000
1, 217608, Tempo, 504202
1, 217620, Tempo, 508475
1, 217631, Tempo, 512821
1, 217642, Tempo, 517241
1, 217653, Tempo, 521739
1, 217665, Tempo, 526316
1, 217676, Tempo, 530973
1, 217687, Tempo, 535714
1, 217698, Tempo, 540541
1, 217710, Tempo, 545455
1, 217721, Tempo, 550459
1, 217732, Tempo, 555556
1, 217743, Tempo, 560748
1, 217755, Tempo, 566038
1, 217766, Tempo, 571429
1, 217777, Tempo, 576923
1, 217788, Tempo, 582524
1, 217800, Tempo, 588235
1, 217811, Tempo, 594059
1, 217822, Tempo, 600000
1, 217833, Tempo, 606061
1, 217845, Tempo, 612245
1, 217856, Tempo, 618557
1, 217867, Tempo, 625000
1, 217878, Tempo, 631579
1, 217890, Tempo, 638298
1, 217901, Tempo, 645161
1, 217912, Tempo, 652174
1, 217923, Tempo, 659341
1, 217935, Tempo, 666667
1, 217946, Tempo, 674157
1, 217957, Tempo, 681818
1, 217968, Tempo, 689655
1, 217980, Tempo, 697674
1, 217991, Tempo, 705882
1, 218002, Tempo, 714286
1, 218013, Tempo, 722892
1, 218025, Tempo, 731707
1, 218036, Tempo, 740741
1, 218047, Tempo, 750000
1, 219660, Tempo, 800000
1, 219660, Marker_t, "Gloria Patri"
1, 228050, Tempo, 800000
1, 228055, Tempo, 805369
1, 228065, Tempo, 810811
1, 228075, Tempo, 821918
1, 228085, Tempo, 827586
1, 228095, Tempo, 833333
1, 228110, Tempo, 845070
1, 228125, Tempo, 851064
1, 228135, Tempo, 857143
1, 228150, Tempo, 869565
1, 228165, Tempo, 875912
1, 228180, Tempo, 895522
1, 228200, Tempo, 909091
1, 228215, Tempo, 923077
1, 228235, Tempo, 937500
1, 228285, Tempo, 960000
1, 228345, Tempo, 983607
1, 228415, Tempo, 1008403
1, 228465, Tempo, 1025641
1, 228515, Tempo, 1052632
1, 228575, Tempo, 1071429
1, 228625, Tempo, 1090909
1, 228645, Tempo, 1100917
1, 228660, Tempo, 1111111
1, 228700, Tempo, 1165049
1, 228715, Tempo, 1188119
1, 228770, Tempo, 697674
1, 228780, Time_signature, 3, 2, 24, 8
1, 228780, Marker_t, "Tempo primo"
1, 236250, Tempo, 697674
1, 236280, Tempo, 705882
1, 236340, Tempo, 710059
1, 236390, Tempo, 718563
1, 236400, Tempo, 722892
1, 236425, Tempo, 731707
1, 236450, Tempo, 740741
1, 236455, Tempo, 745342
1, 236465, Tempo, 750000
1, 236470, Tempo, 759494
1, 236490, Tempo, 769231
1, 236500, Tempo, 779221
1, 236510, Tempo, 794702
1, 236520, Tempo, 805369
1, 236530, Tempo, 816327
1, 236540, Tempo, 827586
1, 236550, Tempo, 833333
1, 236560, Tempo, 851064
1, 236575, Tempo, 863309
1, 236585, Tempo, 869565
1, 236595, Tempo, 882353
1, 236600, Tempo, 895522
1, 236610, Tempo, 902256
1, 236615, Tempo, 916031
1, 236620, Tempo, 930233
1, 236630, Tempo, 960000
1, 236635, Tempo, 975610
1, 236640, Tempo, 991736
1, 236645, Tempo, 1008403
1, 236655, Tempo, 1043478
1, 236660, Tempo, 1071429
1, 236665, Tempo, 1090909
1, 236670, Tempo, 1100917
1, 236675, Tempo, 1121495
1, 236690, Tempo, 1142857
1, 236690, End_track
2, 0, Start_track
2, 0, MIDI_port, 0
2, 0, Title_t, "tromp I"
2, 0, Program_c, 0, 56
2, 0, Control_c, 0, 7, 127
2, 0, Control_c, 0, 10, 58
2, 60, Note_on_c, 0, 66, 100
2, 100, Note_on_c, 0, 66, 0
2, 120, Note_on_c, 0, 69, 100
2, 160, Note_on_c, 0, 69, 0
2, 180, Note_on_c, 0, 74, 100
2, 220, Note_on_c, 0, 74, 0
2, 240, Note_on_c, 0, 74, 100
2, 280, Note_on_c, 0, 74, 0
2, 300, Note_on_c, 0, 69, 100
2, 340, Note_on_c, 0, 69, 0
2, 360, Note_on_c, 0, 66, 100
2, 400, Note_on_c, 0, 66, 0
2, 420, Note_on_c, 0, 69, 100
2, 460, Note_on_c, 0, 69, 0
2, 480, Note_on_c, 0, 74, 100
2, 520, Note_on_c, 0, 74, 0
2, 540, Note_on_c, 0, 78, 100
2, 580, Note_on_c, 0, 78, 0
2, 600, Note_on_c, 0, 78, 100
2, 640, Note_on_c, 0, 78, 0
2, 660, Note_on_c, 0, 74, 100
2, 700, Note_on_c, 0, 74, 0
2, 720, Note_on_c, 0, 69, 100
2, 760, Note_on_c, 0, 69, 0
2, 780, Note_on_c, 0, 74, 100
2, 820, Note_on_c, 0, 74, 0
2, 840, Note_on_c, 0, 78, 100
2, 880, Note_on_c, 0, 78, 0
2, 900, Note_on_c, 0, 81, 100
2, 940, Note_on_c, 0, 81, 0
2, 960, Note_on_c, 0, 81, 100
2, 980, Note_on_c, 0, 81, 0
2, 990, Note_on_c, 0, 79, 100
2, 1010, Note_on_c, 0, 79, 0
2, 1020, Note_on_c, 0, 78, 100
2, 1040, Note_on_c, 0, 78, 0
2, 1050, Note_on_c, 0, 76, 100
2, 1070, Note_on_c, 0, 76, 0
2, 1080, Note_on_c, 0, 78, 100
2, 1100, Note_on_c, 0, 78, 0
2, 1110, Note_on_c, 0, 76, 100
2, 1130, Note_on_c, 0, 76, 0
2, 1140, Note_on_c, 0, 74, 100
2, 1160, Note_on_c, 0, 74, 0
2, 1170, Note_on_c, 0, 76, 100
2, 1190, Note_on_c, 0, 76, 0
2, 1200, Note_on_c, 0, 78, 100
2, 1220, Note_on_c, 0, 78, 0
2, 1230, Note_on_c, 0, 79, 100
2, 1250, Note_on_c, 0, 79, 0
2, 1260, Note_on_c, 0, 81, 100
2, 1300, Note_on_c, 0, 81, 0
2, 1320, Note_on_c, 0, 81, 100
2, 1340, Note_on_c, 0, 81, 0
2, 1350, Note_on_c, 0, 79, 100
2, 1370, Note_on_c, 0, 79, 0
2, 1380, Note_on_c, 0, 78, 100
2, 1400, Note_on_c, 0, 78, 0
2, 1410, Note_on_c, 0, 76, 100
2, 1430, Note_on_c, 0, 76, 0
2, 1440, Note_on_c, 0, 78, 100
2, 1797, Note_on_c, 0, 78, 0
2, 1800, Note_on_c, 0, 76, 100
2, 2157, Note_on_c, 0, 76, 0
2, 2160, Note_on_c, 0, 74, 100
2, 2907, Note_on_c, 0, 74, 0
2, 2910, Note_on_c, 0, 76, 100
2, 2937, Note_on_c, 0, 76, 0
2, 2940, Note_on_c, 0, 74, 100
2, 2967, Note_on_c, 0, 74, 0
2, 2970, Note_on_c, 0, 76, 100
2, 2997, Note_on_c, 0, 76, 0
2, 3000, Note_on_c, 0, 78, 100
2, 3027, Note_on_c, 0, 78, 0
2, 3030, Note_on_c, 0, 80, 100
2, 3057, Note_on_c, 0, 80, 0
2, 3060, Note_on_c, 0, 76, 100
2, 3087, Note_on_c, 0, 76, 0
2, 3090, Note_on_c, 0, 78, 100
2, 3117, Note_on_c, 0, 78, 0
2, 3120, Note_on_c, 0, 80, 100
2, 3147, Note_on_c, 0, 80, 0
2, 3150, Note_on_c, 0, 81, 100
2, 3177, Note_on_c, 0, 81, 0
2, 3180, Note_on_c, 0, 78, 100
2, 3207, Note_on_c, 0, 78, 0
2, 3210, Note_on_c, 0, 80, 100
2, 3237, Note_on_c, 0, 80, 0
2, 3240, Note_on_c, 0, 81, 100
2, 3267, Note_on_c, 0, 81, 0
2, 3270, Note_on_c, 0, 76, 100
2, 3297, Note_on_c, 0, 76, 0
2, 3300, Note_on_c, 0, 78, 100
2, 3327, Note_on_c, 0, 78, 0
2, 3330, Note_on_c, 0, 80, 100
2, 3357, Note_on_c, 0, 80, 0
2, 3360, Note_on_c, 0, 81, 100
2, 3387, Note_on_c, 0, 81, 0
2, 3390, Note_on_c, 0, 83, 100
2, 3417, Note_on_c, 0, 83, 0
2, 3420, Note_on_c, 0, 81, 100
2, 3447, Note_on_c, 0, 81, 0
2, 3450, Note_on_c, 0, 83, 100
2, 3477, Note_on_c, 0, 83, 0
2, 3480, Note_on_c, 0, 85, 100
2, 3507, Note_on_c, 0, 85, 0
2, 3510, Note_on_c, 0, 86, 100
2, 3537, Note_on_c, 0, 86, 0
2, 3540, Note_on_c, 0, 83, 100
2, 3567, Note_on_c, 0, 83, 0
2, 3570, Note_on_c, 0, 85, 100
2, 3597, Note_on_c, 0, 85, 0
2, 3600, Note_on_c, 0, 86, 100
2, 3627, Note_on_c, 0, 86, 0
2, 3630, Note_on_c, 0, 85, 100
2, 3657, Note_on_c, 0, 85, 0
2, 3660, Note_on_c, 0, 83, 100
2, 3687, Note_on_c, 0, 83, 0
2, 3690, Note_on_c, 0, 81, 100
2, 3717, Note_on_c, 0, 81, 0
2, 3720, Note_on_c, 0, 83, 100
2, 3747, Note_on_c, 0, 83, 0
2, 3750, Note_on_c, 0, 81, 100
2, 3777, Note_on_c, 0, 81, 0
2, 3780, Note_on_c, 0, 80, 100
2, 3807, Note_on_c, 0, 80, 0
2, 3810, Note_on_c, 0, 78, 100
2, 3837, Note_on_c, 0, 78, 0
2, 3840, Note_on_c, 0, 80, 100
2, 3867, Note_on_c, 0, 80, 0
2, 3870, Note_on_c, 0, 78, 100
2, 3897, Note_on_c, 0, 78, 0
2, 3900, Note_on_c, 0, 76, 100
2, 3927, Note_on_c, 0, 76, 0
2, 3930, Note_on_c, 0, 74, 100
2, 3957, Note_on_c, 0, 74, 0
2, 3960, Note_on_c, 0, 76, 100
2, 4017, Note_on_c, 0, 76, 0
2, 4020, Note_on_c, 0, 86, 100
2, 4077, Note_on_c, 0, 86, 0
2, 4080, Note_on_c, 0, 85, 100
2, 4107, Note_on_c, 0, 85, 0
2, 4110, Note_on_c, 0, 83, 100
2, 4137, Note_on_c, 0, 83, 0
2, 4140, Note_on_c, 0, 81, 100
2, 4167, Note_on_c, 0, 81, 0
2, 4170, Note_on_c, 0, 83, 100
2, 4197, Note_on_c, 0, 83, 0
2, 4200, Note_on_c, 0, 83, 100
2, 4215, Note_on_c, 0, 83, 0
2, 4215, Note_on_c, 0, 85, 100
2, 4230, Note_on_c, 0, 85, 0
2, 4230, Note_on_c, 0, 83, 100
2, 4245, Note_on_c, 0, 83, 0
2, 4245, Note_on_c, 0, 85, 100
2, 4260, Note_on_c, 0, 85, 0
2, 4260, Note_on_c, 0, 83, 100
2, 4275, Note_on_c, 0, 83, 0
2, 4275, Note_on_c, 0, 85, 100
2, 4290, Note_on_c, 0, 85, 0
2, 4290, Note_on_c, 0, 81, 100
2, 4310, Note_on_c, 0, 81, 0
2, 4320, Note_on_c, 0, 81, 100
2, 4360, Note_on_c, 0, 81, 0
2, 4380, Note_on_c, 0, 76, 100
2, 4420, Note_on_c, 0, 76, 0
2, 4680, Note_on_c, 0, 85, 100
2, 4720, Note_on_c, 0, 85, 0
2, 4740, Note_on_c, 0, 81, 100
2, 4780, Note_on_c, 0, 81, 0
2, 5040, Note_on_c, 0, 88, 100
2, 5080, Note_on_c, 0, 88, 0
2, 5100, Note_on_c, 0, 85, 100
2, 5140, Note_on_c, 0, 85, 0
2, 6180, Note_on_c, 0, 78, 100
2, 6220, Note_on_c, 0, 78, 0
2, 6240, Note_on_c, 0, 81, 100
2, 6280, Note_on_c, 0, 81, 0
2, 6300, Note_on_c, 0, 86, 100
2, 6340, Note_on_c, 0, 86, 0
2, 6360, Note_on_c, 0, 86, 100
2, 6400, Note_on_c, 0, 86, 0
2, 6420, Note_on_c, 0, 81, 100
2, 6460, Note_on_c, 0, 81, 0
2, 6480, Note_on_c, 0, 83, 100
2, 6520, Note_on_c, 0, 83, 0
2, 6540, Note_on_c, 0, 79, 100
2, 6580, Note_on_c, 0, 79, 0
2, 6840, Note_on_c, 0, 81, 100
2, 7197, Note_on_c, 0, 81, 0
2, 7200, Note_on_c, 0, 80, 100
2, 7557, Note_on_c, 0, 80, 0
2, 7560, Note_on_c, 0, 79, 100
2, 7917, Note_on_c, 0, 79, 0
2, 7920, Note_on_c, 0, 78, 100
2, 7947, Note_on_c, 0, 78, 0
2, 7950, Note_on_c, 0, 86, 100
2, 7977, Note_on_c, 0, 86, 0
2, 7980, Note_on_c, 0, 85, 100
2, 8007, Note_on_c, 0, 85, 0
2, 8010, Note_on_c, 0, 83, 100
2, 8037, Note_on_c, 0, 83, 0
2, 8040, Note_on_c, 0, 81, 100
2, 8067, Note_on_c, 0, 81, 0
2, 8070, Note_on_c, 0, 79, 100
2, 8097, Note_on_c, 0, 79, 0
2, 8100, Note_on_c, 0, 78, 100
2, 8127, Note_on_c, 0, 78, 0
2, 8130, Note_on_c, 0, 79, 100
2, 8157, Note_on_c, 0, 79, 0
2, 8160, Note_on_c, 0, 81, 100
2, 8187, Note_on_c, 0, 81, 0
2, 8190, Note_on_c, 0, 83, 100
2, 8217, Note_on_c, 0, 83, 0
2, 8220, Note_on_c, 0, 81, 100
2, 8247, Note_on_c, 0, 81, 0
2, 8250, Note_on_c, 0, 83, 100
2, 8277, Note_on_c, 0, 83, 0
2, 8280, Note_on_c, 0, 81, 100
2, 8307, Note_on_c, 0, 81, 0
2, 8310, Note_on_c, 0, 86, 100
2, 8337, Note_on_c, 0, 86, 0
2, 8340, Note_on_c, 0, 85, 100
2, 8367, Note_on_c, 0, 85, 0
2, 8370, Note_on_c, 0, 83, 100
2, 8397, Note_on_c, 0, 83, 0
2, 8400, Note_on_c, 0, 81, 100
2, 8427, Note_on_c, 0, 81, 0
2, 8430, Note_on_c, 0, 79, 100
2, 8457, Note_on_c, 0, 79, 0
2, 8460, Note_on_c, 0, 78, 100
2, 8487, Note_on_c, 0, 78, 0
2, 8490, Note_on_c, 0, 79, 100
2, 8517, Note_on_c, 0, 79, 0
2, 8520, Note_on_c, 0, 81, 100
2, 8547, Note_on_c, 0, 81, 0
2, 8550, Note_on_c, 0, 83, 100
2, 8577, Note_on_c, 0, 83, 0
2, 8580, Note_on_c, 0, 81, 100
2, 8607, Note_on_c, 0, 81, 0
2, 8610, Note_on_c, 0, 83, 100
2, 8637, Note_on_c, 0, 83, 0
2, 8640, Note_on_c, 0, 81, 100
2, 9477, Note_on_c, 0, 81, 0
2, 9540, Note_on_c, 0, 74, 100
2, 9580, Note_on_c, 0, 74, 0
2, 9600, Note_on_c, 0, 78, 100
2, 9640, Note_on_c, 0, 78, 0
2, 9660, Note_on_c, 0, 81, 100
2, 9700, Note_on_c, 0, 81, 0
2, 9720, Note_on_c, 0, 81, 100
2, 9800, Note_on_c, 0, 81, 0
2, 9900, Note_on_c, 0, 74, 100
2, 9940, Note_on_c, 0, 74, 0
2, 9960, Note_on_c, 0, 78, 100
2, 10000, Note_on_c, 0, 78, 0
2, 10020, Note_on_c, 0, 81, 100
2, 10060, Note_on_c, 0, 81, 0
2, 10080, Note_on_c, 0, 86, 100
2, 10120, Note_on_c, 0, 86, 0
2, 10140, Note_on_c, 0, 74, 100
2, 10180, Note_on_c, 0, 74, 0
2, 10200, Note_on_c, 0, 78, 100
2, 10240, Note_on_c, 0, 78, 0
2, 10260, Note_on_c, 0, 81, 100
2, 10300, Note_on_c, 0, 81, 0
2, 10320, Note_on_c, 0, 81, 100
2, 10340, Note_on_c, 0, 81, 0
2, 10350, Note_on_c, 0, 79, 100
2, 10370, Note_on_c, 0, 79, 0
2, 10380, Note_on_c, 0, 78, 100
2, 10400, Note_on_c, 0, 78, 0
2, 10410, Note_on_c, 0, 76, 100
2, 10430, Note_on_c, 0, 76, 0
2, 10440, Note_on_c, 0, 78, 100
2, 10460, Note_on_c, 0, 78, 0
2, 10470, Note_on_c, 0, 76, 100
2, 10490, Note_on_c, 0, 76, 0
2, 10500, Note_on_c, 0, 78, 100
2, 10520, Note_on_c, 0, 78, 0
2, 10530, Note_on_c, 0, 79, 100
2, 10550, Note_on_c, 0, 79, 0
2, 10560, Note_on_c, 0, 81, 100
2, 10600, Note_on_c, 0, 81, 0
2, 10620, Note_on_c, 0, 83, 100
2, 10640, Note_on_c, 0, 83, 0
2, 10650, Note_on_c, 0, 81, 100
2, 10670, Note_on_c, 0, 81, 0
2, 10680, Note_on_c, 0, 79, 100
2, 10700, Note_on_c, 0, 79, 0
2, 10710, Note_on_c, 0, 78, 100
2, 10730, Note_on_c, 0, 78, 0
2, 10740, Note_on_c, 0, 76, 100
2, 10760, Note_on_c, 0, 76, 0
2, 10770, Note_on_c, 0, 74, 100
2, 10790, Note_on_c, 0, 74, 0
2, 10800, Note_on_c, 0, 74, 100
2, 10880, Note_on_c, 0, 74, 0
2, 11580, Note_on_c, 0, 66, 100
2, 11620, Note_on_c, 0, 66, 0
2, 11640, Note_on_c, 0, 69, 100
2, 11680, Note_on_c, 0, 69, 0
2, 11700, Note_on_c, 0, 74, 100
2, 11740, Note_on_c, 0, 74, 0
2, 11760, Note_on_c, 0, 74, 100
2, 11800, Note_on_c, 0, 74, 0
2, 11820, Note_on_c, 0, 69, 100
2, 11860, Note_on_c, 0, 69, 0
2, 11880, Note_on_c, 0, 66, 100
2, 11920, Note_on_c, 0, 66, 0
2, 11940, Note_on_c, 0, 69, 100
2, 11980, Note_on_c, 0, 69, 0
2, 12000, Note_on_c, 0, 74, 100
2, 12040, Note_on_c, 0, 74, 0
2, 12060, Note_on_c, 0, 78, 100
2, 12100, Note_on_c, 0, 78, 0
2, 12120, Note_on_c, 0, 78, 100
2, 12160, Note_on_c, 0, 78, 0
2, 12180, Note_on_c, 0, 74, 100
2, 12220, Note_on_c, 0, 74, 0
2, 12240, Note_on_c, 0, 69, 100
2, 12280, Note_on_c, 0, 69, 0
2, 12960, Note_on_c, 0, 78, 100
2, 13317, Note_on_c, 0, 78, 0
2, 13320, Note_on_c, 0, 76, 100
2, 13677, Note_on_c, 0, 76, 0
2, 13680, Note_on_c, 0, 74, 100
2, 14427, Note_on_c, 0, 74, 0
2, 14430, Note_on_c, 0, 76, 100
2, 14457, Note_on_c, 0, 76, 0
2, 14460, Note_on_c, 0, 74, 100
2, 14487, Note_on_c, 0, 74, 0
2, 14490, Note_on_c, 0, 76, 100
2, 14517, Note_on_c, 0, 76, 0
2, 14520, Note_on_c, 0, 78, 100
2, 14547, Note_on_c, 0, 78, 0
2, 14550, Note_on_c, 0, 80, 100
2, 14577, Note_on_c, 0, 80, 0
2, 14580, Note_on_c, 0, 76, 100
2, 14607, Note_on_c, 0, 76, 0
2, 14610, Note_on_c, 0, 78, 100
2, 14637, Note_on_c, 0, 78, 0
2, 14640, Note_on_c, 0, 80, 100
2, 14667, Note_on_c, 0, 80, 0
2, 14670, Note_on_c, 0, 81, 100
2, 14697, Note_on_c, 0, 81, 0
2, 14700, Note_on_c, 0, 78, 100
2, 14727, Note_on_c, 0, 78, 0
2, 14730, Note_on_c, 0, 80, 100
2, 14757, Note_on_c, 0, 80, 0
2, 14760, Note_on_c, 0, 81, 100
2, 14787, Note_on_c, 0, 81, 0
2, 14790, Note_on_c, 0, 76, 100
2, 14817, Note_on_c, 0, 76, 0
2, 14820, Note_on_c, 0, 78, 100
2, 14847, Note_on_c, 0, 78, 0
2, 14850, Note_on_c, 0, 80, 100
2, 14877, Note_on_c, 0, 80, 0
2, 14880, Note_on_c, 0, 81, 100
2, 14907, Note_on_c, 0, 81, 0
2, 14910, Note_on_c, 0, 83, 100
2, 14937, Note_on_c, 0, 83, 0
2, 14940, Note_on_c, 0, 81, 100
2, 14967, Note_on_c, 0, 81, 0
2, 14970, Note_on_c, 0, 83, 100
2, 14997, Note_on_c, 0, 83, 0
2, 15000, Note_on_c, 0, 85, 100
2, 15027, Note_on_c, 0, 85, 0
2, 15030, Note_on_c, 0, 86, 100
2, 15057, Note_on_c, 0, 86, 0
2, 15060, Note_on_c, 0, 83, 100
2, 15087, Note_on_c, 0, 83, 0
2, 15090, Note_on_c, 0, 85, 100
2, 15117, Note_on_c, 0, 85, 0
2, 15120, Note_on_c, 0, 86, 100
2, 15147, Note_on_c, 0, 86, 0
2, 15150, Note_on_c, 0, 85, 100
2, 15177, Note_on_c, 0, 85, 0
2, 15180, Note_on_c, 0, 83, 100
2, 15207, Note_on_c, 0, 83, 0
2, 15210, Note_on_c, 0, 81, 100
2, 15237, Note_on_c, 0, 81, 0
2, 15240, Note_on_c, 0, 83, 100
2, 15267, Note_on_c, 0, 83, 0
2, 15270, Note_on_c, 0, 81, 100
2, 15297, Note_on_c, 0, 81, 0
2, 15300, Note_on_c, 0, 80, 100
2, 15327, Note_on_c, 0, 80, 0
2, 15330, Note_on_c, 0, 78, 100
2, 15357, Note_on_c, 0, 78, 0
2, 15360, Note_on_c, 0, 80, 100
2, 15387, Note_on_c, 0, 80, 0
2, 15390, Note_on_c, 0, 78, 100
2, 15417, Note_on_c, 0, 78, 0
2, 15420, Note_on_c, 0, 76, 100
2, 15447, Note_on_c, 0, 76, 0
2, 15450, Note_on_c, 0, 74, 100
2, 15477, Note_on_c, 0, 74, 0
2, 15480, Note_on_c, 0, 76, 100
2, 15537, Note_on_c, 0, 76, 0
2, 15540, Note_on_c, 0, 86, 100
2, 15597, Note_on_c, 0, 86, 0
2, 15600, Note_on_c, 0, 85, 100
2, 15627, Note_on_c, 0, 85, 0
2, 15630, Note_on_c, 0, 83, 100
2, 15657, Note_on_c, 0, 83, 0
2, 15660, Note_on_c, 0, 81, 100
2, 15687, Note_on_c, 0, 81, 0
2, 15690, Note_on_c, 0, 83, 100
2, 15717, Note_on_c, 0, 83, 0
2, 15720, Note_on_c, 0, 83, 100
2, 15735, Note_on_c, 0, 83, 0
2, 15735, Note_on_c, 0, 85, 100
2, 15750, Note_on_c, 0, 85, 0
2, 15750, Note_on_c, 0, 83, 100
2, 15765, Note_on_c, 0, 83, 0
2, 15765, Note_on_c, 0, 85, 100
2, 15780, Note_on_c, 0, 85, 0
2, 15780, Note_on_c, 0, 83, 100
2, 15795, Note_on_c, 0, 83, 0
2, 15795, Note_on_c, 0, 85, 100
2, 15810, Note_on_c, 0, 85, 0
2, 15810, Note_on_c, 0, 81, 100
2, 15830, Note_on_c, 0, 81, 0
2, 15840, Note_on_c, 0, 81, 100
2, 15920, Note_on_c, 0, 81, 0
2, 16560, Note_on_c, 0, 81, 100
2, 16600, Note_on_c, 0, 81, 0
2, 16620, Note_on_c, 0, 76, 100
2, 16660, Note_on_c, 0, 76, 0
2, 16920, Note_on_c, 0, 85, 100
2, 16960, Note_on_c, 0, 85, 0
2, 16980, Note_on_c, 0, 81, 100
2, 17020, Note_on_c, 0, 81, 0
2, 17280, Note_on_c, 0, 88, 100
2, 17320, Note_on_c, 0, 88, 0
2, 17340, Note_on_c, 0, 85, 100
2, 17380, Note_on_c, 0, 85, 0
2, 20160, Note_on_c, 0, 74, 100
2, 20200, Note_on_c, 0, 74, 0
2, 20220, Note_on_c, 0, 69, 100
2, 20260, Note_on_c, 0, 69, 0
2, 20520, Note_on_c, 0, 78, 100
2, 20560, Note_on_c, 0, 78, 0
2, 20580, Note_on_c, 0, 74, 100
2, 20620, Note_on_c, 0, 74, 0
2, 20880, Note_on_c, 0, 81, 100
2, 20920, Note_on_c, 0, 81, 0
2, 20940, Note_on_c, 0, 74, 100
2, 20980, Note_on_c, 0, 74, 0
2, 21000, Note_on_c, 0, 78, 100
2, 21040, Note_on_c, 0, 78, 0
2, 21060, Note_on_c, 0, 81, 100
2, 21100, Note_on_c, 0, 81, 0
2, 21120, Note_on_c, 0, 81, 100
2, 21140, Note_on_c, 0, 81, 0
2, 21150, Note_on_c, 0, 79, 100
2, 21170, Note_on_c, 0, 79, 0
2, 21180, Note_on_c, 0, 78, 100
2, 21200, Note_on_c, 0, 78, 0
2, 21210, Note_on_c, 0, 76, 100
2, 21230, Note_on_c, 0, 76, 0
2, 21240, Note_on_c, 0, 78, 100
2, 21260, Note_on_c, 0, 78, 0
2, 21270, Note_on_c, 0, 76, 100
2, 21290, Note_on_c, 0, 76, 0
2, 21300, Note_on_c, 0, 74, 100
2, 21320, Note_on_c, 0, 74, 0
2, 21330, Note_on_c, 0, 76, 100
2, 21350, Note_on_c, 0, 76, 0
2, 21360, Note_on_c, 0, 78, 100
2, 21380, Note_on_c, 0, 78, 0
2, 21390, Note_on_c, 0, 79, 100
2, 21410, Note_on_c, 0, 79, 0
2, 21420, Note_on_c, 0, 81, 100
2, 21460, Note_on_c, 0, 81, 0
2, 21480, Note_on_c, 0, 81, 100
2, 21500, Note_on_c, 0, 81, 0
2, 21510, Note_on_c, 0, 79, 100
2, 21530, Note_on_c, 0, 79, 0
2, 21540, Note_on_c, 0, 78, 100
2, 21560, Note_on_c, 0, 78, 0
2, 21570, Note_on_c, 0, 76, 100
2, 21590, Note_on_c, 0, 76, 0
2, 21600, Note_on_c, 0, 78, 100
2, 21640, Note_on_c, 0, 78, 0
2, 21660, Note_on_c, 0, 74, 100
2, 21700, Note_on_c, 0, 74, 0
2, 23760, Note_on_c, 0, 83, 100
2, 23997, Note_on_c, 0, 83, 0
2, 24120, Note_on_c, 0, 81, 100
2, 24357, Note_on_c, 0, 81, 0
2, 24480, Note_on_c, 0, 79, 100
2, 25227, Note_on_c, 0, 79, 0
2, 25230, Note_on_c, 0, 81, 100
2, 25257, Note_on_c, 0, 81, 0
2, 25260, Note_on_c, 0, 79, 100
2, 25287, Note_on_c, 0, 79, 0
2, 25290, Note_on_c, 0, 81, 100
2, 25317, Note_on_c, 0, 81, 0
2, 25320, Note_on_c, 0, 83, 100
2, 25347, Note_on_c, 0, 83, 0
2, 25350, Note_on_c, 0, 85, 100
2, 25377, Note_on_c, 0, 85, 0
2, 25380, Note_on_c, 0, 81, 100
2, 25407, Note_on_c, 0, 81, 0
2, 25410, Note_on_c, 0, 83, 100
2, 25437, Note_on_c, 0, 83, 0
2, 25440, Note_on_c, 0, 85, 100
2, 25467, Note_on_c, 0, 85, 0
2, 25470, Note_on_c, 0, 86, 100
2, 25497, Note_on_c, 0, 86, 0
2, 25500, Note_on_c, 0, 83, 100
2, 25527, Note_on_c, 0, 83, 0
2, 25530, Note_on_c, 0, 85, 100
2, 25557, Note_on_c, 0, 85, 0
2, 25560, Note_on_c, 0, 86, 100
2, 25617, Note_on_c, 0, 86, 0
2, 25620, Note_on_c, 0, 69, 100
2, 25677, Note_on_c, 0, 69, 0
2, 25680, Note_on_c, 0, 74, 100
2, 25707, Note_on_c, 0, 74, 0
2, 25710, Note_on_c, 0, 76, 100
2, 25737, Note_on_c, 0, 76, 0
2, 25740, Note_on_c, 0, 74, 100
2, 25767, Note_on_c, 0, 74, 0
2, 25770, Note_on_c, 0, 76, 100
2, 25797, Note_on_c, 0, 76, 0
2, 25800, Note_on_c, 0, 78, 100
2, 25827, Note_on_c, 0, 78, 0
2, 25830, Note_on_c, 0, 79, 100
2, 25857, Note_on_c, 0, 79, 0
2, 25860, Note_on_c, 0, 76, 100
2, 25887, Note_on_c, 0, 76, 0
2, 25890, Note_on_c, 0, 78, 100
2, 25917, Note_on_c, 0, 78, 0
2, 25920, Note_on_c, 0, 79, 100
2, 25947, Note_on_c, 0, 79, 0
2, 25950, Note_on_c, 0, 78, 100
2, 25977, Note_on_c, 0, 78, 0
2, 25980, Note_on_c, 0, 76, 100
2, 26007, Note_on_c, 0, 76, 0
2, 26010, Note_on_c, 0, 74, 100
2, 26037, Note_on_c, 0, 74, 0
2, 26040, Note_on_c, 0, 76, 100
2, 26337, Note_on_c, 0, 76, 0
2, 26340, Note_on_c, 0, 81, 100
2, 26360, Note_on_c, 0, 81, 0
2, 26370, Note_on_c, 0, 79, 100
2, 26390, Note_on_c, 0, 79, 0
2, 26400, Note_on_c, 0, 78, 100
2, 26420, Note_on_c, 0, 78, 0
2, 26430, Note_on_c, 0, 76, 100
2, 26450, Note_on_c, 0, 76, 0
2, 26460, Note_on_c, 0, 74, 100
2, 26480, Note_on_c, 0, 74, 0
2, 26490, Note_on_c, 0, 76, 100
2, 26510, Note_on_c, 0, 76, 0
2, 26520, Note_on_c, 0, 78, 100
2, 26535, Note_on_c, 0, 78, 0
2, 26535, Note_on_c, 0, 76, 100
2, 26550, Note_on_c, 0, 76, 0
2, 26550, Note_on_c, 0, 78, 100
2, 26565, Note_on_c, 0, 78, 0
2, 26565, Note_on_c, 0, 76, 100
2, 26580, Note_on_c, 0, 76, 0
2, 26580, Note_on_c, 0, 78, 100
2, 26595, Note_on_c, 0, 78, 0
2, 26595, Note_on_c, 0, 76, 100
2, 26610, Note_on_c, 0, 76, 0
2, 26610, Note_on_c, 0, 74, 100
2, 26630, Note_on_c, 0, 74, 0
2, 26640, Note_on_c, 0, 74, 100
2, 26720, Note_on_c, 0, 74, 0
2, 27420, Note_on_c, 0, 78, 100
2, 27460, Note_on_c, 0, 78, 0
2, 27480, Note_on_c, 0, 81, 100
2, 27520, Note_on_c, 0, 81, 0
2, 27540, Note_on_c, 0, 86, 100
2, 27580, Note_on_c, 0, 86, 0
2, 27600, Note_on_c, 0, 86, 100
2, 27640, Note_on_c, 0, 86, 0
2, 27660, Note_on_c, 0, 81, 100
2, 27700, Note_on_c, 0, 81, 0
2, 27720, Note_on_c, 0, 83, 100
2, 27760, Note_on_c, 0, 83, 0
2, 27780, Note_on_c, 0, 79, 100
2, 27820, Note_on_c, 0, 79, 0
2, 28080, Note_on_c, 0, 81, 100
2, 28437, Note_on_c, 0, 81, 0
2, 28440, Note_on_c, 0, 80, 100
2, 28797, Note_on_c, 0, 80, 0
2, 28800, Note_on_c, 0, 79, 100
2, 29157, Note_on_c, 0, 79, 0
2, 29160, Note_on_c, 0, 78, 100
2, 29187, Note_on_c, 0, 78, 0
2, 29190, Note_on_c, 0, 86, 100
2, 29217, Note_on_c, 0, 86, 0
2, 29220, Note_on_c, 0, 85, 100
2, 29247, Note_on_c, 0, 85, 0
2, 29250, Note_on_c, 0, 83, 100
2, 29277, Note_on_c, 0, 83, 0
2, 29280, Note_on_c, 0, 81, 100
2, 29307, Note_on_c, 0, 81, 0
2, 29310, Note_on_c, 0, 79, 100
2, 29337, Note_on_c, 0, 79, 0
2, 29340, Note_on_c, 0, 78, 100
2, 29367, Note_on_c, 0, 78, 0
2, 29370, Note_on_c, 0, 79, 100
2, 29397, Note_on_c, 0, 79, 0
2, 29400, Note_on_c, 0, 81, 100
2, 29427, Note_on_c, 0, 81, 0
2, 29430, Note_on_c, 0, 83, 100
2, 29457, Note_on_c, 0, 83, 0
2, 29460, Note_on_c, 0, 81, 100
2, 29487, Note_on_c, 0, 81, 0
2, 29490, Note_on_c, 0, 83, 100
2, 29517, Note_on_c, 0, 83, 0
2, 29520, Note_on_c, 0, 81, 100
2, 29547, Note_on_c, 0, 81, 0
2, 29550, Note_on_c, 0, 86, 100
2, 29577, Note_on_c, 0, 86, 0
2, 29580, Note_on_c, 0, 85, 100
2, 29607, Note_on_c, 0, 85, 0
2, 29610, Note_on_c, 0, 83, 100
2, 29637, Note_on_c, 0, 83, 0
2, 29640, Note_on_c, 0, 81, 100
2, 29667, Note_on_c, 0, 81, 0
2, 29670, Note_on_c, 0, 79, 100
2, 29697, Note_on_c, 0, 79, 0
2, 29700, Note_on_c, 0, 78, 100
2, 29727, Note_on_c, 0, 78, 0
2, 29730, Note_on_c, 0, 79, 100
2, 29757, Note_on_c, 0, 79, 0
2, 29760, Note_on_c, 0, 81, 100
2, 29787, Note_on_c, 0, 81, 0
2, 29790, Note_on_c, 0, 83, 100
2, 29817, Note_on_c, 0, 83, 0
2, 29820, Note_on_c, 0, 81, 100
2, 29847, Note_on_c, 0, 81, 0
2, 29850, Note_on_c, 0, 83, 100
2, 29877, Note_on_c, 0, 83, 0
2, 29880, Note_on_c, 0, 81, 100
2, 30717, Note_on_c, 0, 81, 0
2, 30780, Note_on_c, 0, 74, 100
2, 30820, Note_on_c, 0, 74, 0
2, 30840, Note_on_c, 0, 78, 100
2, 30880, Note_on_c, 0, 78, 0
2, 30900, Note_on_c, 0, 81, 100
2, 30940, Note_on_c, 0, 81, 0
2, 30960, Note_on_c, 0, 81, 100
2, 31040, Note_on_c, 0, 81, 0
2, 31140, Note_on_c, 0, 74, 100
2, 31180, Note_on_c, 0, 74, 0
2, 31200, Note_on_c, 0, 78, 100
2, 31240, Note_on_c, 0, 78, 0
2, 31260, Note_on_c, 0, 81, 100
2, 31300, Note_on_c, 0, 81, 0
2, 31320, Note_on_c, 0, 86, 100
2, 31360, Note_on_c, 0, 86, 0
2, 31380, Note_on_c, 0, 74, 100
2, 31420, Note_on_c, 0, 74, 0
2, 31440, Note_on_c, 0, 78, 100
2, 31480, Note_on_c, 0, 78, 0
2, 31500, Note_on_c, 0, 81, 100
2, 31540, Note_on_c, 0, 81, 0
2, 31560, Note_on_c, 0, 81, 100
2, 31580, Note_on_c, 0, 81, 0
2, 31590, Note_on_c, 0, 79, 100
2, 31610, Note_on_c, 0, 79, 0
2, 31620, Note_on_c, 0, 78, 100
2, 31640, Note_on_c, 0, 78, 0
2, 31650, Note_on_c, 0, 76, 100
2, 31670, Note_on_c, 0, 76, 0
2, 31680, Note_on_c, 0, 78, 100
2, 31700, Note_on_c, 0, 78, 0
2, 31710, Note_on_c, 0, 76, 100
2, 31730, Note_on_c, 0, 76, 0
2, 31740, Note_on_c, 0, 78, 100
2, 31760, Note_on_c, 0, 78, 0
2, 31770, Note_on_c, 0, 79, 100
2, 31790, Note_on_c, 0, 79, 0
2, 31800, Note_on_c, 0, 81, 100
2, 31840, Note_on_c, 0, 81, 0
2, 31860, Note_on_c, 0, 83, 100
2, 31880, Note_on_c, 0, 83, 0
2, 31890, Note_on_c, 0, 81, 100
2, 31910, Note_on_c, 0, 81, 0
2, 31920, Note_on_c, 0, 79, 100
2, 31940, Note_on_c, 0, 79, 0
2, 31950, Note_on_c, 0, 78, 100
2, 31970, Note_on_c, 0, 78, 0
2, 31980, Note_on_c, 0, 76, 100
2, 32000, Note_on_c, 0, 76, 0
2, 32010, Note_on_c, 0, 74, 100
2, 32030, Note_on_c, 0, 74, 0
2, 32040, Note_on_c, 0, 74, 100
2, 32120, Note_on_c, 0, 74, 0
2, 117180, Control_c, 0, 0, 0
2, 123000, Note_on_c, 0, 74, 100
2, 123040, Note_on_c, 0, 74, 0
2, 123060, Note_on_c, 0, 78, 100
2, 123100, Note_on_c, 0, 78, 0
2, 123120, Note_on_c, 0, 74, 100
2, 123160, Note_on_c, 0, 74, 0
2, 123180, Note_on_c, 0, 81, 100
2, 123240, Note_on_c, 0, 81, 0
2, 123270, Note_on_c, 0, 81, 100
2, 123290, Note_on_c, 0, 81, 0
2, 123300, Note_on_c, 0, 81, 100
2, 123380, Note_on_c, 0, 81, 0
2, 123480, Note_on_c, 0, 79, 100
2, 123520, Note_on_c, 0, 79, 0
2, 123540, Note_on_c, 0, 83, 100
2, 123580, Note_on_c, 0, 83, 0
2, 123600, Note_on_c, 0, 79, 100
2, 123640, Note_on_c, 0, 79, 0
2, 123660, Note_on_c, 0, 86, 100
2, 123720, Note_on_c, 0, 86, 0
2, 123750, Note_on_c, 0, 86, 100
2, 123770, Note_on_c, 0, 86, 0
2, 123780, Note_on_c, 0, 86, 100
2, 123860, Note_on_c, 0, 86, 0
2, 124920, Note_on_c, 0, 81, 100
2, 124960, Note_on_c, 0, 81, 0
2, 124980, Note_on_c, 0, 85, 100
2, 125020, Note_on_c, 0, 85, 0
2, 125040, Note_on_c, 0, 81, 100
2, 125080, Note_on_c, 0, 81, 0
2, 125100, Note_on_c, 0, 88, 100
2, 125100, Note_on_c, 0, 76, 100
2, 125160, Note_on_c, 0, 76, 0
2, 125160, Note_on_c, 0, 88, 0
2, 125190, Note_on_c, 0, 88, 100
2, 125190, Note_on_c, 0, 76, 100
2, 125210, Note_on_c, 0, 76, 0
2, 125210, Note_on_c, 0, 88, 0
2, 125220, Note_on_c, 0, 88, 100
2, 125220, Note_on_c, 0, 76, 100
2, 125300, Note_on_c, 0, 76, 0
2, 125300, Note_on_c, 0, 88, 0
2, 125400, Note_on_c, 0, 74, 100
2, 125440, Note_on_c, 0, 74, 0
2, 125460, Note_on_c, 0, 78, 100
2, 125500, Note_on_c, 0, 78, 0
2, 125520, Note_on_c, 0, 74, 100
2, 125560, Note_on_c, 0, 74, 0
2, 125580, Note_on_c, 0, 81, 100
2, 125640, Note_on_c, 0, 81, 0
2, 125670, Note_on_c, 0, 81, 100
2, 125690, Note_on_c, 0, 81, 0
2, 125700, Note_on_c, 0, 81, 100
2, 125780, Note_on_c, 0, 81, 0
2, 126780, Note_on_c, 0, 74, 100
2, 126820, Note_on_c, 0, 74, 0
2, 126840, Note_on_c, 0, 78, 100
2, 126860, Note_on_c, 0, 78, 0
2, 126870, Note_on_c, 0, 76, 100
2, 126890, Note_on_c, 0, 76, 0
2, 126900, Note_on_c, 0, 74, 100
2, 126940, Note_on_c, 0, 74, 0
2, 126960, Note_on_c, 0, 74, 100
2, 127000, Note_on_c, 0, 74, 0
2, 127020, Note_on_c, 0, 74, 100
2, 127040, Note_on_c, 0, 74, 0
2, 127050, Note_on_c, 0, 78, 100
2, 127070, Note_on_c, 0, 78, 0
2, 127080, Note_on_c, 0, 76, 100
2, 127100, Note_on_c, 0, 76, 0
2, 127110, Note_on_c, 0, 78, 100
2, 127130, Note_on_c, 0, 78, 0
2, 127140, Note_on_c, 0, 74, 100
2, 127160, Note_on_c, 0, 74, 0
2, 127170, Note_on_c, 0, 78, 100
2, 127190, Note_on_c, 0, 78, 0
2, 127200, Note_on_c, 0, 76, 100
2, 127220, Note_on_c, 0, 76, 0
2, 127230, Note_on_c, 0, 74, 100
2, 127250, Note_on_c, 0, 74, 0
2, 127260, Note_on_c, 0, 79, 100
2, 127280, Note_on_c, 0, 79, 0
2, 127290, Note_on_c, 0, 78, 100
2, 127310, Note_on_c, 0, 78, 0
2, 127320, Note_on_c, 0, 76, 100
2, 127340, Note_on_c, 0, 76, 0
2, 127350, Note_on_c, 0, 78, 100
2, 127370, Note_on_c, 0, 78, 0
2, 127380, Note_on_c, 0, 74, 100
2, 127400, Note_on_c, 0, 74, 0
2, 127410, Note_on_c, 0, 78, 100
2, 127430, Note_on_c, 0, 78, 0
2, 127440, Note_on_c, 0, 76, 100
2, 127460, Note_on_c, 0, 76, 0
2, 127470, Note_on_c, 0, 74, 100
2, 127490, Note_on_c, 0, 74, 0
2, 127500, Note_on_c, 0, 81, 100
2, 127520, Note_on_c, 0, 81, 0
2, 127530, Note_on_c, 0, 78, 100
2, 127550, Note_on_c, 0, 78, 0
2, 127560, Note_on_c, 0, 76, 100
2, 127580, Note_on_c, 0, 76, 0
2, 127590, Note_on_c, 0, 78, 100
2, 127610, Note_on_c, 0, 78, 0
2, 127620, Note_on_c, 0, 74, 100
2, 127640, Note_on_c, 0, 74, 0
2, 127650, Note_on_c, 0, 78, 100
2, 127670, Note_on_c, 0, 78, 0
2, 127680, Note_on_c, 0, 76, 100
2, 127700, Note_on_c, 0, 76, 0
2, 127710, Note_on_c, 0, 74, 100
2, 127730, Note_on_c, 0, 74, 0
2, 127740, Note_on_c, 0, 83, 100
2, 127760, Note_on_c, 0, 83, 0
2, 127770, Note_on_c, 0, 86, 100
2, 127790, Note_on_c, 0, 86, 0
2, 127800, Note_on_c, 0, 85, 100
2, 127820, Note_on_c, 0, 85, 0
2, 127830, Note_on_c, 0, 86, 100
2, 127850, Note_on_c, 0, 86, 0
2, 127860, Note_on_c, 0, 83, 100
2, 127880, Note_on_c, 0, 83, 0
2, 127890, Note_on_c, 0, 85, 100
2, 127910, Note_on_c, 0, 85, 0
2, 127920, Note_on_c, 0, 81, 100
2, 127940, Note_on_c, 0, 81, 0
2, 127950, Note_on_c, 0, 83, 100
2, 127970, Note_on_c, 0, 83, 0
2, 127980, Note_on_c, 0, 79, 100
2, 128000, Note_on_c, 0, 79, 0
2, 128010, Note_on_c, 0, 81, 100
2, 128030, Note_on_c, 0, 81, 0
2, 128040, Note_on_c, 0, 78, 100
2, 128060, Note_on_c, 0, 78, 0
2, 128070, Note_on_c, 0, 79, 100
2, 128090, Note_on_c, 0, 79, 0
2, 128100, Note_on_c, 0, 76, 100
2, 128120, Note_on_c, 0, 76, 0
2, 128130, Note_on_c, 0, 81, 100
2, 128150, Note_on_c, 0, 81, 0
2, 128160, Note_on_c, 0, 79, 100
2, 128180, Note_on_c, 0, 79, 0
2, 128190, Note_on_c, 0, 81, 100
2, 128210, Note_on_c, 0, 81, 0
2, 128220, Note_on_c, 0, 78, 100
2, 128260, Note_on_c, 0, 78, 0
2, 128280, Note_on_c, 0, 76, 100
2, 128300, Note_on_c, 0, 76, 0
2, 128310, Note_on_c, 0, 78, 100
2, 128330, Note_on_c, 0, 78, 0
2, 128340, Note_on_c, 0, 74, 100
2, 128380, Note_on_c, 0, 74, 0
2, 128400, Note_on_c, 0, 76, 100
2, 128440, Note_on_c, 0, 76, 0
2, 128460, Note_on_c, 0, 78, 100
2, 128500, Note_on_c, 0, 78, 0
2, 128520, Note_on_c, 0, 74, 100
2, 128540, Note_on_c, 0, 74, 0
2, 128550, Note_on_c, 0, 78, 100
2, 128570, Note_on_c, 0, 78, 0
2, 128580, Note_on_c, 0, 80, 100
2, 128620, Note_on_c, 0, 80, 0
2, 128640, Note_on_c, 0, 74, 100
2, 128660, Note_on_c, 0, 74, 0
2, 128670, Note_on_c, 0, 80, 100
2, 128690, Note_on_c, 0, 80, 0
2, 128700, Note_on_c, 0, 81, 100
2, 128780, Note_on_c, 0, 81, 0
2, 129480, Note_on_c, 0, 85, 100
2, 129520, Note_on_c, 0, 85, 0
2, 129540, Note_on_c, 0, 86, 100
2, 129580, Note_on_c, 0, 86, 0
2, 129720, Note_on_c, 0, 83, 100
2, 129760, Note_on_c, 0, 83, 0
2, 129780, Note_on_c, 0, 85, 100
2, 129820, Note_on_c, 0, 85, 0
2, 132180, Note_on_c, 0, 83, 100
2, 132418, Note_on_c, 0, 83, 0
2, 132420, Note_on_c, 0, 83, 100
2, 132538, Note_on_c, 0, 83, 0
2, 132540, Note_on_c, 0, 81, 100
2, 132778, Note_on_c, 0, 81, 0
2, 132780, Note_on_c, 0, 86, 100
2, 133018, Note_on_c, 0, 86, 0
2, 133020, Note_on_c, 0, 86, 100
2, 133078, Note_on_c, 0, 86, 0
2, 133080, Note_on_c, 0, 85, 100
2, 133108, Note_on_c, 0, 85, 0
2, 133110, Note_on_c, 0, 83, 100
2, 133138, Note_on_c, 0, 83, 0
2, 133140, Note_on_c, 0, 81, 100
2, 133168, Note_on_c, 0, 81, 0
2, 133170, Note_on_c, 0, 83, 100
2, 133198, Note_on_c, 0, 83, 0
2, 133200, Note_on_c, 0, 81, 100
2, 133228, Note_on_c, 0, 81, 0
2, 133230, Note_on_c, 0, 79, 100
2, 133258, Note_on_c, 0, 79, 0
2, 133260, Note_on_c, 0, 78, 100
2, 133270, Note_on_c, 0, 78, 0
2, 133273, Note_on_c, 0, 76, 100
2, 133283, Note_on_c, 0, 76, 0
2, 133290, Note_on_c, 0, 78, 100
2, 133300, Note_on_c, 0, 78, 0
2, 133305, Note_on_c, 0, 76, 100
2, 133315, Note_on_c, 0, 76, 0
2, 133320, Note_on_c, 0, 78, 100
2, 133330, Note_on_c, 0, 78, 0
2, 133335, Note_on_c, 0, 76, 100
2, 133345, Note_on_c, 0, 76, 0
2, 133350, Note_on_c, 0, 78, 100
2, 133360, Note_on_c, 0, 78, 0
2, 133365, Note_on_c, 0, 76, 100
2, 133375, Note_on_c, 0, 76, 0
2, 133380, Note_on_c, 0, 78, 100
2, 133390, Note_on_c, 0, 78, 0
2, 133393, Note_on_c, 0, 76, 100
2, 133403, Note_on_c, 0, 76, 0
2, 133410, Note_on_c, 0, 78, 100
2, 133420, Note_on_c, 0, 78, 0
2, 133425, Note_on_c, 0, 76, 100
2, 133435, Note_on_c, 0, 76, 0
2, 133440, Note_on_c, 0, 78, 100
2, 133450, Note_on_c, 0, 78, 0
2, 133455, Note_on_c, 0, 76, 100
2, 133465, Note_on_c, 0, 76, 0
2, 133470, Note_on_c, 0, 78, 100
2, 133480, Note_on_c, 0, 78, 0
2, 133485, Note_on_c, 0, 79, 100
2, 133495, Note_on_c, 0, 79, 0
2, 133500, Note_on_c, 0, 78, 100
2, 133978, Note_on_c, 0, 78, 0
2, 226380, Note_on_c, 0, 81, 100
2, 226500, Note_on_c, 0, 81, 0
2, 226500, Note_on_c, 0, 81, 100
2, 226560, Note_on_c, 0, 81, 0
2, 226560, Note_on_c, 0, 81, 100
2, 226620, Note_on_c, 0, 81, 0
2, 226620, Note_on_c, 0, 81, 100
2, 226740, Note_on_c, 0, 81, 0
2, 226740, Note_on_c, 0, 81, 100
2, 226860, Note_on_c, 0, 81, 0
2, 226860, Note_on_c, 0, 83, 100
2, 227040, Note_on_c, 0, 83, 0
2, 227040, Note_on_c, 0, 83, 100
2, 227100, Note_on_c, 0, 83, 0
2, 227100, Note_on_c, 0, 83, 100
2, 227340, Note_on_c, 0, 83, 0
2, 227340, Note_on_c, 0, 76, 100
2, 227460, Note_on_c, 0, 76, 0
2, 227460, Note_on_c, 0, 78, 100
2, 227520, Note_on_c, 0, 78, 0
2, 227520, Note_on_c, 0, 81, 100
2, 227580, Note_on_c, 0, 81, 0
2, 227580, Note_on_c, 0, 81, 100
2, 227940, Note_on_c, 0, 81, 0
2, 227940, Note_on_c, 0, 80, 100
2, 228000, Note_on_c, 0, 80, 0
2, 228000, Note_on_c, 0, 78, 100
2, 228060, Note_on_c, 0, 78, 0
2, 228060, Note_on_c, 0, 80, 100
2, 228080, Note_on_c, 0, 80, 0
2, 228080, Note_on_c, 0, 81, 100
2, 228100, Note_on_c, 0, 81, 0
2, 228100, Note_on_c, 0, 80, 100
2, 228120, Note_on_c, 0, 80, 0
2, 228120, Note_on_c, 0, 81, 100
2, 228135, Note_on_c, 0, 81, 0
2, 228135, Note_on_c, 0, 80, 100
2, 228150, Note_on_c, 0, 80, 0
2, 228150, Note_on_c, 0, 81, 100
2, 228165, Note_on_c, 0, 81, 0
2, 228165, Note_on_c, 0, 80, 100
2, 228180, Note_on_c, 0, 80, 0
2, 228180, Note_on_c, 0, 81, 100
2, 228195, Note_on_c, 0, 81, 0
2, 228195, Note_on_c, 0, 80, 100
2, 228210, Note_on_c, 0, 80, 0
2, 228210, Note_on_c, 0, 81, 100
2, 228225, Note_on_c, 0, 81, 0
2, 228225, Note_on_c, 0, 80, 100
2, 228240, Note_on_c, 0, 80, 0
2, 228240, Note_on_c, 0, 81, 100
2, 228300, Note_on_c, 0, 81, 0
2, 228300, Note_on_c, 0, 81, 100
2, 228780, Note_on_c, 0, 81, 0
2, 228840, Note_on_c, 0, 66, 90
2, 228899, Note_on_c, 0, 66, 0
2, 228900, Note_on_c, 0, 69, 90
2, 228959, Note_on_c, 0, 69, 0
2, 228960, Note_on_c, 0, 74, 90
2, 229019, Note_on_c, 0, 74, 0
2, 229020, Note_on_c, 0, 74, 90
2, 229079, Note_on_c, 0, 74, 0
2, 229080, Note_on_c, 0, 69, 90
2, 229139, Note_on_c, 0, 69, 0
2, 229140, Note_on_c, 0, 66, 90
2, 229199, Note_on_c, 0, 66, 0
2, 229200, Note_on_c, 0, 69, 90
2, 229259, Note_on_c, 0, 69, 0
2, 229260, Note_on_c, 0, 74, 90
2, 229319, Note_on_c, 0, 74, 0
2, 229320, Note_on_c, 0, 78, 90
2, 229379, Note_on_c, 0, 78, 0
2, 229380, Note_on_c, 0, 78, 90
2, 229439, Note_on_c, 0, 78, 0
2, 229440, Note_on_c, 0, 74, 90
2, 229499, Note_on_c, 0, 74, 0
2, 229500, Note_on_c, 0, 69, 90
2, 229559, Note_on_c, 0, 69, 0
2, 230220, Note_on_c, 0, 81, 90
2, 230279, Note_on_c, 0, 81, 0
2, 230280, Note_on_c, 0, 78, 90
2, 230339, Note_on_c, 0, 78, 0
2, 230580, Note_on_c, 0, 78, 90
2, 230639, Note_on_c, 0, 78, 0
2, 230640, Note_on_c, 0, 74, 90
2, 230699, Note_on_c, 0, 74, 0
2, 230940, Note_on_c, 0, 74, 90
2, 230999, Note_on_c, 0, 74, 0
2, 231000, Note_on_c, 0, 69, 90
2, 231059, Note_on_c, 0, 69, 0
2, 231720, Note_on_c, 0, 74, 90
2, 231749, Note_on_c, 0, 74, 0
2, 231750, Note_on_c, 0, 76, 90
2, 231779, Note_on_c, 0, 76, 0
2, 231780, Note_on_c, 0, 78, 90
2, 231809, Note_on_c, 0, 78, 0
2, 231810, Note_on_c, 0, 79, 90
2, 231839, Note_on_c, 0, 79, 0
2, 231840, Note_on_c, 0, 81, 90
2, 231899, Note_on_c, 0, 81, 0
2, 231900, Note_on_c, 0, 81, 90
2, 231929, Note_on_c, 0, 81, 0
2, 231930, Note_on_c, 0, 79, 90
2, 231959, Note_on_c, 0, 79, 0
2, 231960, Note_on_c, 0, 78, 90
2, 231989, Note_on_c, 0, 78, 0
2, 231990, Note_on_c, 0, 76, 90
2, 232019, Note_on_c, 0, 76, 0
2, 232020, Note_on_c, 0, 74, 90
2, 232079, Note_on_c, 0, 74, 0
2, 234600, Note_on_c, 0, 66, 90
2, 234659, Note_on_c, 0, 66, 0
2, 234660, Note_on_c, 0, 69, 90
2, 234719, Note_on_c, 0, 69, 0
2, 234720, Note_on_c, 0, 74, 90
2, 234779, Note_on_c, 0, 74, 0
2, 234780, Note_on_c, 0, 74, 90
2, 234839, Note_on_c, 0, 74, 0
2, 234840, Note_on_c, 0, 69, 90
2, 234899, Note_on_c, 0, 69, 0
2, 234900, Note_on_c, 0, 66, 90
2, 234959, Note_on_c, 0, 66, 0
2, 234960, Note_on_c, 0, 69, 90
2, 235019, Note_on_c, 0, 69, 0
2, 235020, Note_on_c, 0, 74, 90
2, 235079, Note_on_c, 0, 74, 0
2, 235080, Note_on_c, 0, 78, 90
2, 235139, Note_on_c, 0, 78, 0
2, 235140, Note_on_c, 0, 78, 90
2, 235199, Note_on_c, 0, 78, 0
2, 235200, Note_on_c, 0, 74, 90
2, 235259, Note_on_c, 0, 74, 0
2, 235260, Note_on_c, 0, 69, 90
2, 235319, Note_on_c, 0, 69, 0
2, 235320, Note_on_c, 0, 74, 90
2, 235379, Note_on_c, 0, 74, 0
2, 235380, Note_on_c, 0, 78, 90
2, 235439, Note_on_c, 0, 78, 0
2, 235440, Note_on_c, 0, 81, 90
2, 235499, Note_on_c, 0, 81, 0
2, 235500, Note_on_c, 0, 81, 90
2, 235529, Note_on_c, 0, 81, 0
2, 235530, Note_on_c, 0, 79, 90
2, 235559, Note_on_c, 0, 79, 0
2, 235560, Note_on_c, 0, 78, 90
2, 235589, Note_on_c, 0, 78, 0
2, 235590, Note_on_c, 0, 76, 90
2, 235619, Note_on_c, 0, 76, 0
2, 235620, Note_on_c, 0, 78, 90
2, 235679, Note_on_c, 0, 78, 0
2, 235680, Note_on_c, 0, 74, 90
2, 235739, Note_on_c, 0, 74, 0
2, 236040, Note_on_c, 0, 74, 90
2, 236099, Note_on_c, 0, 74, 0
2, 236100, Note_on_c, 0, 78, 90
2, 236159, Note_on_c, 0, 78, 0
2, 236160, Note_on_c, 0, 81, 90
2, 236219, Note_on_c, 0, 81, 0
2, 236220, Note_on_c, 0, 81, 90
2, 236249, Note_on_c, 0, 81, 0
2, 236250, Note_on_c, 0, 79, 90
2, 236279, Note_on_c, 0, 79, 0
2, 236280, Note_on_c, 0, 78, 90
2, 236309, Note_on_c, 0, 78, 0
2, 236310, Note_on_c, 0, 76, 90
2, 236339, Note_on_c, 0, 76, 0
2, 236340, Note_on_c, 0, 78, 90
2, 236369, Note_on_c, 0, 78, 0
2, 236370, Note_on_c, 0, 76, 90
2, 236399, Note_on_c, 0, 76, 0
2, 236400, Note_on_c, 0, 78, 90
2, 236429, Note_on_c, 0, 78, 0
2, 236430, Note_on_c, 0, 79, 90
2, 236459, Note_on_c, 0, 79, 0
2, 236460, Note_on_c, 0, 81, 90
2, 236519, Note_on_c, 0, 81, 0
2, 236520, Note_on_c, 0, 83, 90
2, 236549, Note_on_c, 0, 83, 0
2, 236550, Note_on_c, 0, 81, 90
2, 236579, Note_on_c, 0, 81, 0
2, 236580, Note_on_c, 0, 79, 90
2, 236609, Note_on_c, 0, 79, 0
2, 236610, Note_on_c, 0, 78, 90
2, 236639, Note_on_c, 0, 78, 0
2, 236640, Note_on_c, 0, 76, 90
2, 236669, Note_on_c, 0, 76, 0
2, 236670, Note_on_c, 0, 74, 90
2, 236699, Note_on_c, 0, 74, 0
2, 236700, Note_on_c, 0, 74, 90
2, 236819, Note_on_c, 0, 74, 0
2, 236819, End_track
3, 0, Start_track
3, 0, MIDI_port, 0
3, 0, Title_t, "tromp II"
3, 0, Program_c, 0, 56
3, 0, Control_c, 0, 10, 0
3, 60, Note_on_c, 0, 62, 100
3, 100, Note_on_c, 0, 62, 0
3, 120, Note_on_c, 0, 66, 100
3, 160, Note_on_c, 0, 66, 0
3, 180, Note_on_c, 0, 69, 100
3, 220, Note_on_c, 0, 69, 0
3, 240, Note_on_c, 0, 69, 100
3, 280, Note_on_c, 0, 69, 0
3, 300, Note_on_c, 0, 66, 100
3, 340, Note_on_c, 0, 66, 0
3, 360, Note_on_c, 0, 62, 100
3, 400, Note_on_c, 0, 62, 0
3, 420, Note_on_c, 0, 66, 100
3, 460, Note_on_c, 0, 66, 0
3, 480, Note_on_c, 0, 69, 100
3, 520, Note_on_c, 0, 69, 0
3, 540, Note_on_c, 0, 74, 100
3, 580, Note_on_c, 0, 74, 0
3, 600, Note_on_c, 0, 74, 100
3, 640, Note_on_c, 0, 74, 0
3, 660, Note_on_c, 0, 69, 100
3, 700, Note_on_c, 0, 69, 0
3, 720, Note_on_c, 0, 66, 100
3, 760, Note_on_c, 0, 66, 0
3, 780, Note_on_c, 0, 69, 100
3, 820, Note_on_c, 0, 69, 0
3, 840, Note_on_c, 0, 74, 100
3, 880, Note_on_c, 0, 74, 0
3, 900, Note_on_c, 0, 78, 100
3, 940, Note_on_c, 0, 78, 0
3, 960, Note_on_c, 0, 76, 100
3, 980, Note_on_c, 0, 76, 0
3, 990, Note_on_c, 0, 74, 100
3, 1010, Note_on_c, 0, 74, 0
3, 1020, Note_on_c, 0, 76, 100
3, 1060, Note_on_c, 0, 76, 0
3, 1080, Note_on_c, 0, 74, 100
3, 1120, Note_on_c, 0, 74, 0
3, 1140, Note_on_c, 0, 69, 100
3, 1180, Note_on_c, 0, 69, 0
3, 1200, Note_on_c, 0, 74, 100
3, 1220, Note_on_c, 0, 74, 0
3, 1230, Note_on_c, 0, 76, 100
3, 1250, Note_on_c, 0, 76, 0
3, 1260, Note_on_c, 0, 78, 100
3, 1300, Note_on_c, 0, 78, 0
3, 1320, Note_on_c, 0, 76, 100
3, 1340, Note_on_c, 0, 76, 0
3, 1350, Note_on_c, 0, 74, 100
3, 1370, Note_on_c, 0, 74, 0
3, 1380, Note_on_c, 0, 76, 100
3, 1420, Note_on_c, 0, 76, 0
3, 1440, Note_on_c, 0, 74, 100
3, 1520, Note_on_c, 0, 74, 0
3, 2220, Note_on_c, 0, 66, 100
3, 2260, Note_on_c, 0, 66, 0
3, 2280, Note_on_c, 0, 69, 100
3, 2320, Note_on_c, 0, 69, 0
3, 2340, Note_on_c, 0, 74, 100
3, 2380, Note_on_c, 0, 74, 0
3, 2400, Note_on_c, 0, 74, 100
3, 2440, Note_on_c, 0, 74, 0
3, 2580, Note_on_c, 0, 62, 100
3, 2620, Note_on_c, 0, 62, 0
3, 2640, Note_on_c, 0, 66, 100
3, 2680, Note_on_c, 0, 66, 0
3, 2700, Note_on_c, 0, 69, 100
3, 2740, Note_on_c, 0, 69, 0
3, 2760, Note_on_c, 0, 74, 100
3, 2800, Note_on_c, 0, 74, 0
3, 4020, Note_on_c, 0, 83, 100
3, 4060, Note_on_c, 0, 83, 0
3, 4080, Note_on_c, 0, 81, 100
3, 4100, Note_on_c, 0, 81, 0
3, 4110, Note_on_c, 0, 80, 100
3, 4130, Note_on_c, 0, 80, 0
3, 4140, Note_on_c, 0, 78, 100
3, 4160, Note_on_c, 0, 78, 0
3, 4170, Note_on_c, 0, 80, 100
3, 4190, Note_on_c, 0, 80, 0
3, 4200, Note_on_c, 0, 80, 100
3, 4215, Note_on_c, 0, 80, 0
3, 4215, Note_on_c, 0, 81, 100
3, 4230, Note_on_c, 0, 81, 0
3, 4230, Note_on_c, 0, 80, 100
3, 4245, Note_on_c, 0, 80, 0
3, 4245, Note_on_c, 0, 81, 100
3, 4260, Note_on_c, 0, 81, 0
3, 4260, Note_on_c, 0, 80, 100
3, 4275, Note_on_c, 0, 80, 0
3, 4275, Note_on_c, 0, 78, 100
3, 4290, Note_on_c, 0, 78, 0
3, 4290, Note_on_c, 0, 76, 100
3, 4310, Note_on_c, 0, 76, 0
3, 4320, Note_on_c, 0, 76, 100
3, 4360, Note_on_c, 0, 76, 0
3, 4380, Note_on_c, 0, 69, 100
3, 4420, Note_on_c, 0, 69, 0
3, 4680, Note_on_c, 0, 81, 100
3, 4720, Note_on_c, 0, 81, 0
3, 4740, Note_on_c, 0, 76, 100
3, 4780, Note_on_c, 0, 76, 0
3, 5040, Note_on_c, 0, 85, 100
3, 5080, Note_on_c, 0, 85, 0
3, 5100, Note_on_c, 0, 81, 100
3, 5140, Note_on_c, 0, 81, 0
3, 6180, Note_on_c, 0, 74, 100
3, 6220, Note_on_c, 0, 74, 0
3, 6240, Note_on_c, 0, 78, 100
3, 6280, Note_on_c, 0, 78, 0
3, 6300, Note_on_c, 0, 81, 100
3, 6340, Note_on_c, 0, 81, 0
3, 6360, Note_on_c, 0, 81, 100
3, 6400, Note_on_c, 0, 81, 0
3, 6420, Note_on_c, 0, 74, 100
3, 6460, Note_on_c, 0, 74, 0
3, 6480, Note_on_c, 0, 74, 100
3, 6520, Note_on_c, 0, 74, 0
3, 6540, Note_on_c, 0, 62, 100
3, 6580, Note_on_c, 0, 62, 0
3, 7920, Note_on_c, 0, 74, 100
3, 7980, Note_on_c, 0, 74, 0
3, 8010, Note_on_c, 0, 76, 100
3, 8030, Note_on_c, 0, 76, 0
3, 8040, Note_on_c, 0, 78, 100
3, 8060, Note_on_c, 0, 78, 0
3, 8070, Note_on_c, 0, 76, 100
3, 8090, Note_on_c, 0, 76, 0
3, 8100, Note_on_c, 0, 74, 100
3, 8120, Note_on_c, 0, 74, 0
3, 8130, Note_on_c, 0, 76, 100
3, 8150, Note_on_c, 0, 76, 0
3, 8160, Note_on_c, 0, 78, 100
3, 8180, Note_on_c, 0, 78, 0
3, 8190, Note_on_c, 0, 79, 100
3, 8210, Note_on_c, 0, 79, 0
3, 8220, Note_on_c, 0, 78, 100
3, 8240, Note_on_c, 0, 78, 0
3, 8250, Note_on_c, 0, 79, 100
3, 8270, Note_on_c, 0, 79, 0
3, 8280, Note_on_c, 0, 78, 100
3, 8340, Note_on_c, 0, 78, 0
3, 8370, Note_on_c, 0, 79, 100
3, 8390, Note_on_c, 0, 79, 0
3, 8400, Note_on_c, 0, 78, 100
3, 8420, Note_on_c, 0, 78, 0
3, 8430, Note_on_c, 0, 76, 100
3, 8450, Note_on_c, 0, 76, 0
3, 8460, Note_on_c, 0, 74, 100
3, 8480, Note_on_c, 0, 74, 0
3, 8490, Note_on_c, 0, 76, 100
3, 8510, Note_on_c, 0, 76, 0
3, 8520, Note_on_c, 0, 78, 100
3, 8540, Note_on_c, 0, 78, 0
3, 8550, Note_on_c, 0, 79, 100
3, 8570, Note_on_c, 0, 79, 0
3, 8580, Note_on_c, 0, 78, 100
3, 8600, Note_on_c, 0, 78, 0
3, 8610, Note_on_c, 0, 79, 100
3, 8630, Note_on_c, 0, 79, 0
3, 8640, Note_on_c, 0, 78, 100
3, 9440, Note_on_c, 0, 78, 0
3, 9540, Note_on_c, 0, 69, 100
3, 9580, Note_on_c, 0, 69, 0
3, 9600, Note_on_c, 0, 74, 100
3, 9640, Note_on_c, 0, 74, 0
3, 9660, Note_on_c, 0, 78, 100
3, 9700, Note_on_c, 0, 78, 0
3, 9720, Note_on_c, 0, 78, 100
3, 9800, Note_on_c, 0, 78, 0
3, 9900, Note_on_c, 0, 69, 100
3, 9940, Note_on_c, 0, 69, 0
3, 9960, Note_on_c, 0, 74, 100
3, 10000, Note_on_c, 0, 74, 0
3, 10020, Note_on_c, 0, 78, 100
3, 10060, Note_on_c, 0, 78, 0
3, 10080, Note_on_c, 0, 78, 100
3, 10160, Note_on_c, 0, 78, 0
3, 10260, Note_on_c, 0, 78, 100
3, 10300, Note_on_c, 0, 78, 0
3, 10320, Note_on_c, 0, 78, 100
3, 10340, Note_on_c, 0, 78, 0
3, 10350, Note_on_c, 0, 76, 100
3, 10370, Note_on_c, 0, 76, 0
3, 10380, Note_on_c, 0, 74, 100
3, 10400, Note_on_c, 0, 74, 0
3, 10410, Note_on_c, 0, 76, 100
3, 10430, Note_on_c, 0, 76, 0
3, 10440, Note_on_c, 0, 74, 100
3, 10460, Note_on_c, 0, 74, 0
3, 10470, Note_on_c, 0, 73, 100
3, 10490, Note_on_c, 0, 73, 0
3, 10500, Note_on_c, 0, 74, 100
3, 10520, Note_on_c, 0, 74, 0
3, 10530, Note_on_c, 0, 76, 100
3, 10550, Note_on_c, 0, 76, 0
3, 10560, Note_on_c, 0, 78, 100
3, 10600, Note_on_c, 0, 78, 0
3, 10620, Note_on_c, 0, 74, 100
3, 10660, Note_on_c, 0, 74, 0
3, 10680, Note_on_c, 0, 74, 100
3, 10720, Note_on_c, 0, 74, 0
3, 10740, Note_on_c, 0, 69, 100
3, 10780, Note_on_c, 0, 69, 0
3, 10800, Note_on_c, 0, 69, 100
3, 10880, Note_on_c, 0, 69, 0
3, 11580, Note_on_c, 0, 62, 100
3, 11620, Note_on_c, 0, 62, 0
3, 11640, Note_on_c, 0, 66, 100
3, 11680, Note_on_c, 0, 66, 0
3, 11700, Note_on_c, 0, 69, 100
3, 11740, Note_on_c, 0, 69, 0
3, 11760, Note_on_c, 0, 69, 100
3, 11800, Note_on_c, 0, 69, 0
3, 11820, Note_on_c, 0, 66, 100
3, 11860, Note_on_c, 0, 66, 0
3, 11880, Note_on_c, 0, 62, 100
3, 11920, Note_on_c, 0, 62, 0
3, 11940, Note_on_c, 0, 66, 100
3, 11980, Note_on_c, 0, 66, 0
3, 12000, Note_on_c, 0, 69, 100
3, 12040, Note_on_c, 0, 69, 0
3, 12060, Note_on_c, 0, 74, 100
3, 12100, Note_on_c, 0, 74, 0
3, 12120, Note_on_c, 0, 74, 100
3, 12160, Note_on_c, 0, 74, 0
3, 12180, Note_on_c, 0, 69, 100
3, 12220, Note_on_c, 0, 69, 0
3, 12240, Note_on_c, 0, 66, 100
3, 12280, Note_on_c, 0, 66, 0
3, 12960, Note_on_c, 0, 81, 100
3, 13000, Note_on_c, 0, 81, 0
3, 13020, Note_on_c, 0, 78, 100
3, 13060, Note_on_c, 0, 78, 0
3, 13320, Note_on_c, 0, 83, 100
3, 13360, Note_on_c, 0, 83, 0
3, 13380, Note_on_c, 0, 76, 100
3, 13420, Note_on_c, 0, 76, 0
3, 13740, Note_on_c, 0, 66, 100
3, 13780, Note_on_c, 0, 66, 0
3, 13800, Note_on_c, 0, 69, 100
3, 13840, Note_on_c, 0, 69, 0
3, 13860, Note_on_c, 0, 74, 100
3, 13900, Note_on_c, 0, 74, 0
3, 13920, Note_on_c, 0, 74, 100
3, 13960, Note_on_c, 0, 74, 0
3, 14100, Note_on_c, 0, 62, 100
3, 14140, Note_on_c, 0, 62, 0
3, 14160, Note_on_c, 0, 66, 100
3, 14200, Note_on_c, 0, 66, 0
3, 14220, Note_on_c, 0, 69, 100
3, 14260, Note_on_c, 0, 69, 0
3, 14280, Note_on_c, 0, 74, 100
3, 14320, Note_on_c, 0, 74, 0
3, 15540, Note_on_c, 0, 83, 100
3, 15580, Note_on_c, 0, 83, 0
3, 15600, Note_on_c, 0, 81, 100
3, 15620, Note_on_c, 0, 81, 0
3, 15630, Note_on_c, 0, 80, 100
3, 15650, Note_on_c, 0, 80, 0
3, 15660, Note_on_c, 0, 78, 100
3, 15680, Note_on_c, 0, 78, 0
3, 15690, Note_on_c, 0, 80, 100
3, 15710, Note_on_c, 0, 80, 0
3, 15720, Note_on_c, 0, 80, 100
3, 15735, Note_on_c, 0, 80, 0
3, 15735, Note_on_c, 0, 81, 100
3, 15750, Note_on_c, 0, 81, 0
3, 15750, Note_on_c, 0, 80, 100
3, 15765, Note_on_c, 0, 80, 0
3, 15765, Note_on_c, 0, 81, 100
3, 15780, Note_on_c, 0, 81, 0
3, 15780, Note_on_c, 0, 80, 100
3, 15795, Note_on_c, 0, 80, 0
3, 15795, Note_on_c, 0, 78, 100
3, 15810, Note_on_c, 0, 78, 0
3, 15810, Note_on_c, 0, 76, 100
3, 15830, Note_on_c, 0, 76, 0
3, 15840, Note_on_c, 0, 76, 100
3, 15920, Note_on_c, 0, 76, 0
3, 16560, Note_on_c, 0, 76, 100
3, 16600, Note_on_c, 0, 76, 0
3, 16620, Note_on_c, 0, 69, 100
3, 16660, Note_on_c, 0, 69, 0
3, 16920, Note_on_c, 0, 81, 100
3, 16960, Note_on_c, 0, 81, 0
3, 16980, Note_on_c, 0, 76, 100
3, 17020, Note_on_c, 0, 76, 0
3, 17280, Note_on_c, 0, 85, 100
3, 17320, Note_on_c, 0, 85, 0
3, 17340, Note_on_c, 0, 81, 100
3, 17380, Note_on_c, 0, 81, 0
3, 20160, Note_on_c, 0, 69, 100
3, 20200, Note_on_c, 0, 69, 0
3, 20220, Note_on_c, 0, 62, 100
3, 20260, Note_on_c, 0, 62, 0
3, 20520, Note_on_c, 0, 74, 100
3, 20560, Note_on_c, 0, 74, 0
3, 20580, Note_on_c, 0, 69, 100
3, 20620, Note_on_c, 0, 69, 0
3, 20880, Note_on_c, 0, 78, 100
3, 20920, Note_on_c, 0, 78, 0
3, 20940, Note_on_c, 0, 69, 100
3, 20980, Note_on_c, 0, 69, 0
3, 21000, Note_on_c, 0, 74, 100
3, 21040, Note_on_c, 0, 74, 0
3, 21060, Note_on_c, 0, 78, 100
3, 21100, Note_on_c, 0, 78, 0
3, 21120, Note_on_c, 0, 74, 100
3, 21140, Note_on_c, 0, 74, 0
3, 21150, Note_on_c, 0, 73, 100
3, 21170, Note_on_c, 0, 73, 0
3, 21180, Note_on_c, 0, 74, 100
3, 21220, Note_on_c, 0, 74, 0
3, 21240, Note_on_c, 0, 74, 100
3, 21280, Note_on_c, 0, 74, 0
3, 21300, Note_on_c, 0, 69, 100
3, 21340, Note_on_c, 0, 69, 0
3, 21360, Note_on_c, 0, 74, 100
3, 21400, Note_on_c, 0, 74, 0
3, 21420, Note_on_c, 0, 78, 100
3, 21460, Note_on_c, 0, 78, 0
3, 21480, Note_on_c, 0, 76, 100
3, 21500, Note_on_c, 0, 76, 0
3, 21510, Note_on_c, 0, 74, 100
3, 21530, Note_on_c, 0, 74, 0
3, 21540, Note_on_c, 0, 76, 100
3, 21580, Note_on_c, 0, 76, 0
3, 21600, Note_on_c, 0, 74, 100
3, 21640, Note_on_c, 0, 74, 0
3, 21660, Note_on_c, 0, 69, 100
3, 21700, Note_on_c, 0, 69, 0
3, 23760, Note_on_c, 0, 79, 100
3, 23800, Note_on_c, 0, 79, 0
3, 23820, Note_on_c, 0, 83, 100
3, 23860, Note_on_c, 0, 83, 0
3, 24120, Note_on_c, 0, 76, 100
3, 24160, Note_on_c, 0, 76, 0
3, 24180, Note_on_c, 0, 79, 100
3, 24220, Note_on_c, 0, 79, 0
3, 24540, Note_on_c, 0, 74, 100
3, 24580, Note_on_c, 0, 74, 0
3, 24600, Note_on_c, 0, 79, 100
3, 24640, Note_on_c, 0, 79, 0
3, 24660, Note_on_c, 0, 83, 100
3, 24700, Note_on_c, 0, 83, 0
3, 24720, Note_on_c, 0, 83, 100
3, 24760, Note_on_c, 0, 83, 0
3, 24900, Note_on_c, 0, 76, 100
3, 24940, Note_on_c, 0, 76, 0
3, 24960, Note_on_c, 0, 79, 100
3, 25000, Note_on_c, 0, 79, 0
3, 25020, Note_on_c, 0, 83, 100
3, 25060, Note_on_c, 0, 83, 0
3, 25080, Note_on_c, 0, 86, 100
3, 25120, Note_on_c, 0, 86, 0
3, 25260, Note_on_c, 0, 76, 100
3, 25300, Note_on_c, 0, 76, 0
3, 25320, Note_on_c, 0, 69, 100
3, 25360, Note_on_c, 0, 69, 0
3, 25380, Note_on_c, 0, 76, 100
3, 25420, Note_on_c, 0, 76, 0
3, 25440, Note_on_c, 0, 81, 100
3, 25480, Note_on_c, 0, 81, 0
3, 25620, Note_on_c, 0, 81, 100
3, 25660, Note_on_c, 0, 81, 0
3, 25680, Note_on_c, 0, 78, 100
3, 25720, Note_on_c, 0, 78, 0
3, 25740, Note_on_c, 0, 74, 100
3, 25780, Note_on_c, 0, 74, 0
3, 25800, Note_on_c, 0, 81, 100
3, 25840, Note_on_c, 0, 81, 0
3, 26340, Note_on_c, 0, 76, 100
3, 26380, Note_on_c, 0, 76, 0
3, 26400, Note_on_c, 0, 74, 100
3, 26440, Note_on_c, 0, 74, 0
3, 26460, Note_on_c, 0, 81, 100
3, 26480, Note_on_c, 0, 81, 0
3, 26490, Note_on_c, 0, 79, 100
3, 26510, Note_on_c, 0, 79, 0
3, 26520, Note_on_c, 0, 81, 100
3, 26535, Note_on_c, 0, 81, 0
3, 26535, Note_on_c, 0, 79, 100
3, 26550, Note_on_c, 0, 79, 0
3, 26550, Note_on_c, 0, 81, 100
3, 26565, Note_on_c, 0, 81, 0
3, 26565, Note_on_c, 0, 79, 100
3, 26580, Note_on_c, 0, 79, 0
3, 26580, Note_on_c, 0, 81, 100
3, 26595, Note_on_c, 0, 81, 0
3, 26595, Note_on_c, 0, 79, 100
3, 26610, Note_on_c, 0, 79, 0
3, 26610, Note_on_c, 0, 78, 100
3, 26630, Note_on_c, 0, 78, 0
3, 26640, Note_on_c, 0, 78, 100
3, 26720, Note_on_c, 0, 78, 0
3, 27420, Note_on_c, 0, 74, 100
3, 27460, Note_on_c, 0, 74, 0
3, 27480, Note_on_c, 0, 78, 100
3, 27520, Note_on_c, 0, 78, 0
3, 27540, Note_on_c, 0, 81, 100
3, 27580, Note_on_c, 0, 81, 0
3, 27600, Note_on_c, 0, 81, 100
3, 27640, Note_on_c, 0, 81, 0
3, 27660, Note_on_c, 0, 74, 100
3, 27700, Note_on_c, 0, 74, 0
3, 27720, Note_on_c, 0, 74, 100
3, 27760, Note_on_c, 0, 74, 0
3, 27780, Note_on_c, 0, 62, 100
3, 27820, Note_on_c, 0, 62, 0
3, 29160, Note_on_c, 0, 74, 100
3, 29220, Note_on_c, 0, 74, 0
3, 29250, Note_on_c, 0, 76, 100
3, 29270, Note_on_c, 0, 76, 0
3, 29280, Note_on_c, 0, 78, 100
3, 29300, Note_on_c, 0, 78, 0
3, 29310, Note_on_c, 0, 76, 100
3, 29330, Note_on_c, 0, 76, 0
3, 29340, Note_on_c, 0, 74, 100
3, 29360, Note_on_c, 0, 74, 0
3, 29370, Note_on_c, 0, 76, 100
3, 29390, Note_on_c, 0, 76, 0
3, 29400, Note_on_c, 0, 78, 100
3, 29420, Note_on_c, 0, 78, 0
3, 29430, Note_on_c, 0, 79, 100
3, 29450, Note_on_c, 0, 79, 0
3, 29460, Note_on_c, 0, 78, 100
3, 29480, Note_on_c, 0, 78, 0
3, 29490, Note_on_c, 0, 79, 100
3, 29510, Note_on_c, 0, 79, 0
3, 29520, Note_on_c, 0, 78, 100
3, 29580, Note_on_c, 0, 78, 0
3, 29610, Note_on_c, 0, 79, 100
3, 29630, Note_on_c, 0, 79, 0
3, 29640, Note_on_c, 0, 78, 100
3, 29660, Note_on_c, 0, 78, 0
3, 29670, Note_on_c, 0, 76, 100
3, 29690, Note_on_c, 0, 76, 0
3, 29700, Note_on_c, 0, 74, 100
3, 29720, Note_on_c, 0, 74, 0
3, 29730, Note_on_c, 0, 76, 100
3, 29750, Note_on_c, 0, 76, 0
3, 29760, Note_on_c, 0, 78, 100
3, 29780, Note_on_c, 0, 78, 0
3, 29790, Note_on_c, 0, 79, 100
3, 29810, Note_on_c, 0, 79, 0
3, 29820, Note_on_c, 0, 78, 100
3, 29840, Note_on_c, 0, 78, 0
3, 29850, Note_on_c, 0, 79, 100
3, 29870, Note_on_c, 0, 79, 0
3, 29880, Note_on_c, 0, 78, 100
3, 30680, Note_on_c, 0, 78, 0
3, 30780, Note_on_c, 0, 69, 100
3, 30820, Note_on_c, 0, 69, 0
3, 30840, Note_on_c, 0, 74, 100
3, 30880, Note_on_c, 0, 74, 0
3, 30900, Note_on_c, 0, 78, 100
3, 30940, Note_on_c, 0, 78, 0
3, 30960, Note_on_c, 0, 78, 100
3, 31040, Note_on_c, 0, 78, 0
3, 31140, Note_on_c, 0, 69, 100
3, 31180, Note_on_c, 0, 69, 0
3, 31200, Note_on_c, 0, 74, 100
3, 31240, Note_on_c, 0, 74, 0
3, 31260, Note_on_c, 0, 78, 100
3, 31300, Note_on_c, 0, 78, 0
3, 31320, Note_on_c, 0, 78, 100
3, 31400, Note_on_c, 0, 78, 0
3, 31500, Note_on_c, 0, 78, 100
3, 31540, Note_on_c, 0, 78, 0
3, 31560, Note_on_c, 0, 78, 100
3, 31580, Note_on_c, 0, 78, 0
3, 31590, Note_on_c, 0, 76, 100
3, 31610, Note_on_c, 0, 76, 0
3, 31620, Note_on_c, 0, 74, 100
3, 31640, Note_on_c, 0, 74, 0
3, 31650, Note_on_c, 0, 76, 100
3, 31670, Note_on_c, 0, 76, 0
3, 31680, Note_on_c, 0, 74, 100
3, 31700, Note_on_c, 0, 74, 0
3, 31710, Note_on_c, 0, 73, 100
3, 31730, Note_on_c, 0, 73, 0
3, 31740, Note_on_c, 0, 74, 100
3, 31760, Note_on_c, 0, 74, 0
3, 31770, Note_on_c, 0, 76, 100
3, 31790, Note_on_c, 0, 76, 0
3, 31800, Note_on_c, 0, 78, 100
3, 31840, Note_on_c, 0, 78, 0
3, 31860, Note_on_c, 0, 74, 100
3, 31900, Note_on_c, 0, 74, 0
3, 31920, Note_on_c, 0, 74, 100
3, 31960, Note_on_c, 0, 74, 0
3, 31980, Note_on_c, 0, 69, 100
3, 32020, Note_on_c, 0, 69, 0
3, 32040, Note_on_c, 0, 69, 100
3, 32120, Note_on_c, 0, 69, 0
3, 117180, Control_c, 0, 0, 0
3, 123000, Note_on_c, 0, 69, 100
3, 123040, Note_on_c, 0, 69, 0
3, 123060, Note_on_c, 0, 74, 100
3, 123100, Note_on_c, 0, 74, 0
3, 123120, Note_on_c, 0, 78, 100
3, 123160, Note_on_c, 0, 78, 0
3, 123180, Note_on_c, 0, 78, 100
3, 123240, Note_on_c, 0, 78, 0
3, 123270, Note_on_c, 0, 78, 100
3, 123290, Note_on_c, 0, 78, 0
3, 123300, Note_on_c, 0, 78, 100
3, 123380, Note_on_c, 0, 78, 0
3, 123480, Note_on_c, 0, 74, 100
3, 123520, Note_on_c, 0, 74, 0
3, 123540, Note_on_c, 0, 79, 100
3, 123580, Note_on_c, 0, 79, 0
3, 123600, Note_on_c, 0, 83, 100
3, 123640, Note_on_c, 0, 83, 0
3, 123660, Note_on_c, 0, 81, 100
3, 123720, Note_on_c, 0, 81, 0
3, 123750, Note_on_c, 0, 81, 100
3, 123770, Note_on_c, 0, 81, 0
3, 123780, Note_on_c, 0, 81, 100
3, 123860, Note_on_c, 0, 81, 0
3, 124920, Note_on_c, 0, 76, 100
3, 124960, Note_on_c, 0, 76, 0
3, 124980, Note_on_c, 0, 81, 100
3, 125020, Note_on_c, 0, 81, 0
3, 125040, Note_on_c, 0, 85, 100
3, 125080, Note_on_c, 0, 85, 0
3, 125100, Note_on_c, 0, 85, 100
3, 125160, Note_on_c, 0, 85, 0
3, 125190, Note_on_c, 0, 85, 100
3, 125210, Note_on_c, 0, 85, 0
3, 125220, Note_on_c, 0, 85, 100
3, 125300, Note_on_c, 0, 85, 0
3, 125400, Note_on_c, 0, 69, 100
3, 125440, Note_on_c, 0, 69, 0
3, 125460, Note_on_c, 0, 74, 100
3, 125500, Note_on_c, 0, 74, 0
3, 125520, Note_on_c, 0, 78, 100
3, 125560, Note_on_c, 0, 78, 0
3, 125580, Note_on_c, 0, 76, 100
3, 125640, Note_on_c, 0, 76, 0
3, 125670, Note_on_c, 0, 76, 100
3, 125690, Note_on_c, 0, 76, 0
3, 125700, Note_on_c, 0, 76, 100
3, 125780, Note_on_c, 0, 76, 0
3, 126960, Note_on_c, 0, 69, 100
3, 127000, Note_on_c, 0, 69, 0
3, 127020, Note_on_c, 0, 66, 100
3, 127060, Note_on_c, 0, 66, 0
3, 127080, Note_on_c, 0, 69, 100
3, 127120, Note_on_c, 0, 69, 0
3, 127140, Note_on_c, 0, 62, 100
3, 127200, Note_on_c, 0, 62, 0
3, 127230, Note_on_c, 0, 62, 100
3, 127250, Note_on_c, 0, 62, 0
3, 127260, Note_on_c, 0, 62, 100
3, 127340, Note_on_c, 0, 62, 0
3, 127440, Note_on_c, 0, 62, 100
3, 127480, Note_on_c, 0, 62, 0
3, 127500, Note_on_c, 0, 66, 100
3, 127540, Note_on_c, 0, 66, 0
3, 127560, Note_on_c, 0, 69, 100
3, 127600, Note_on_c, 0, 69, 0
3, 127620, Note_on_c, 0, 62, 100
3, 127680, Note_on_c, 0, 62, 0
3, 127710, Note_on_c, 0, 62, 100
3, 127730, Note_on_c, 0, 62, 0
3, 127740, Note_on_c, 0, 62, 100
3, 127820, Note_on_c, 0, 62, 0
3, 128520, Note_on_c, 0, 74, 100
3, 128540, Note_on_c, 0, 74, 0
3, 128550, Note_on_c, 0, 74, 100
3, 128570, Note_on_c, 0, 74, 0
3, 128580, Note_on_c, 0, 74, 100
3, 128620, Note_on_c, 0, 74, 0
3, 128640, Note_on_c, 0, 74, 100
3, 128660, Note_on_c, 0, 74, 0
3, 128670, Note_on_c, 0, 74, 100
3, 128690, Note_on_c, 0, 74, 0
3, 128700, Note_on_c, 0, 76, 100
3, 128780, Note_on_c, 0, 76, 0
3, 129480, Note_on_c, 0, 81, 100
3, 129520, Note_on_c, 0, 81, 0
3, 129540, Note_on_c, 0, 83, 100
3, 129580, Note_on_c, 0, 83, 0
3, 129720, Note_on_c, 0, 79, 100
3, 129760, Note_on_c, 0, 79, 0
3, 129780, Note_on_c, 0, 81, 100
3, 129820, Note_on_c, 0, 81, 0
3, 132180, Note_on_c, 0, 78, 100
3, 132418, Note_on_c, 0, 78, 0
3, 132420, Note_on_c, 0, 76, 100
3, 132538, Note_on_c, 0, 76, 0
3, 132540, Note_on_c, 0, 76, 100
3, 132778, Note_on_c, 0, 76, 0
3, 132780, Note_on_c, 0, 71, 100
3, 133018, Note_on_c, 0, 71, 0
3, 133020, Note_on_c, 0, 76, 100
3, 133498, Note_on_c, 0, 76, 0
3, 133500, Note_on_c, 0, 74, 100
3, 133978, Note_on_c, 0, 74, 0
3, 226380, Note_on_c, 0, 78, 100
3, 226500, Note_on_c, 0, 78, 0
3, 226500, Note_on_c, 0, 78, 100
3, 226560, Note_on_c, 0, 78, 0
3, 226560, Note_on_c, 0, 78, 100
3, 226620, Note_on_c, 0, 78, 0
3, 226620, Note_on_c, 0, 78, 100
3, 226740, Note_on_c, 0, 78, 0
3, 226740, Note_on_c, 0, 78, 100
3, 226860, Note_on_c, 0, 78, 0
3, 226860, Note_on_c, 0, 74, 100
3, 227040, Note_on_c, 0, 74, 0
3, 227040, Note_on_c, 0, 74, 100
3, 227100, Note_on_c, 0, 74, 0
3, 227100, Note_on_c, 0, 79, 100
3, 227340, Note_on_c, 0, 79, 0
3, 227340, Note_on_c, 0, 81, 100
3, 227400, Note_on_c, 0, 81, 0
3, 227400, Note_on_c, 0, 79, 100
3, 227460, Note_on_c, 0, 79, 0
3, 227460, Note_on_c, 0, 78, 100
3, 227520, Note_on_c, 0, 78, 0
3, 227520, Note_on_c, 0, 76, 100
3, 227580, Note_on_c, 0, 76, 0
3, 227580, Note_on_c, 0, 74, 100
3, 227820, Note_on_c, 0, 74, 0
3, 227820, Note_on_c, 0, 74, 100
3, 228300, Note_on_c, 0, 74, 0
3, 228300, Note_on_c, 0, 76, 100
3, 228780, Note_on_c, 0, 76, 0
3, 228840, Note_on_c, 0, 62, 90
3, 228899, Note_on_c, 0, 62, 0
3, 228900, Note_on_c, 0, 66, 90
3, 228959, Note_on_c, 0, 66, 0
3, 228960, Note_on_c, 0, 69, 90
3, 229019, Note_on_c, 0, 69, 0
3, 229020, Note_on_c, 0, 69, 90
3, 229079, Note_on_c, 0, 69, 0
3, 229080, Note_on_c, 0, 66, 90
3, 229139, Note_on_c, 0, 66, 0
3, 229140, Note_on_c, 0, 62, 90
3, 229199, Note_on_c, 0, 62, 0
3, 229200, Note_on_c, 0, 66, 90
3, 229259, Note_on_c, 0, 66, 0
3, 229260, Note_on_c, 0, 69, 90
3, 229319, Note_on_c, 0, 69, 0
3, 229320, Note_on_c, 0, 74, 90
3, 229379, Note_on_c, 0, 74, 0
3, 229380, Note_on_c, 0, 74, 90
3, 229439, Note_on_c, 0, 74, 0
3, 229440, Note_on_c, 0, 69, 90
3, 229499, Note_on_c, 0, 69, 0
3, 229500, Note_on_c, 0, 66, 90
3, 229559, Note_on_c, 0, 66, 0
3, 230220, Note_on_c, 0, 78, 90
3, 230279, Note_on_c, 0, 78, 0
3, 230280, Note_on_c, 0, 74, 90
3, 230339, Note_on_c, 0, 74, 0
3, 230580, Note_on_c, 0, 74, 90
3, 230639, Note_on_c, 0, 74, 0
3, 230640, Note_on_c, 0, 69, 90
3, 230699, Note_on_c, 0, 69, 0
3, 230940, Note_on_c, 0, 69, 90
3, 230999, Note_on_c, 0, 69, 0
3, 231000, Note_on_c, 0, 66, 90
3, 231059, Note_on_c, 0, 66, 0
3, 231720, Note_on_c, 0, 78, 90
3, 231749, Note_on_c, 0, 78, 0
3, 231750, Note_on_c, 0, 76, 90
3, 231779, Note_on_c, 0, 76, 0
3, 231780, Note_on_c, 0, 74, 90
3, 231809, Note_on_c, 0, 74, 0
3, 231810, Note_on_c, 0, 76, 90
3, 231839, Note_on_c, 0, 76, 0
3, 231840, Note_on_c, 0, 78, 90
3, 231899, Note_on_c, 0, 78, 0
3, 231900, Note_on_c, 0, 76, 90
3, 231959, Note_on_c, 0, 76, 0
3, 231960, Note_on_c, 0, 69, 90
3, 232019, Note_on_c, 0, 69, 0
3, 232020, Note_on_c, 0, 66, 90
3, 232079, Note_on_c, 0, 66, 0
3, 234600, Note_on_c, 0, 62, 90
3, 234659, Note_on_c, 0, 62, 0
3, 234660, Note_on_c, 0, 66, 90
3, 234719, Note_on_c, 0, 66, 0
3, 234720, Note_on_c, 0, 69, 90
3, 234779, Note_on_c, 0, 69, 0
3, 234780, Note_on_c, 0, 69, 90
3, 234839, Note_on_c, 0, 69, 0
3, 234840, Note_on_c, 0, 66, 90
3, 234899, Note_on_c, 0, 66, 0
3, 234900, Note_on_c, 0, 62, 90
3, 234959, Note_on_c, 0, 62, 0
3, 234960, Note_on_c, 0, 66, 90
3, 235019, Note_on_c, 0, 66, 0
3, 235020, Note_on_c, 0, 69, 90
3, 235079, Note_on_c, 0, 69, 0
3, 235080, Note_on_c, 0, 74, 90
3, 235139, Note_on_c, 0, 74, 0
3, 235140, Note_on_c, 0, 74, 90
3, 235199, Note_on_c, 0, 74, 0
3, 235200, Note_on_c, 0, 69, 90
3, 235259, Note_on_c, 0, 69, 0
3, 235260, Note_on_c, 0, 66, 90
3, 235319, Note_on_c, 0, 66, 0
3, 235320, Note_on_c, 0, 69, 90
3, 235379, Note_on_c, 0, 69, 0
3, 235380, Note_on_c, 0, 74, 90
3, 235439, Note_on_c, 0, 74, 0
3, 235440, Note_on_c, 0, 78, 90
3, 235499, Note_on_c, 0, 78, 0
3, 235500, Note_on_c, 0, 78, 90
3, 235529, Note_on_c, 0, 78, 0
3, 235530, Note_on_c, 0, 76, 90
3, 235559, Note_on_c, 0, 76, 0
3, 235560, Note_on_c, 0, 74, 90
3, 235589, Note_on_c, 0, 74, 0
3, 235590, Note_on_c, 0, 76, 90
3, 235619, Note_on_c, 0, 76, 0
3, 235620, Note_on_c, 0, 74, 90
3, 235679, Note_on_c, 0, 74, 0
3, 235680, Note_on_c, 0, 69, 90
3, 235739, Note_on_c, 0, 69, 0
3, 236040, Note_on_c, 0, 69, 90
3, 236099, Note_on_c, 0, 69, 0
3, 236100, Note_on_c, 0, 74, 90
3, 236159, Note_on_c, 0, 74, 0
3, 236160, Note_on_c, 0, 78, 90
3, 236219, Note_on_c, 0, 78, 0
3, 236220, Note_on_c, 0, 78, 90
3, 236249, Note_on_c, 0, 78, 0
3, 236250, Note_on_c, 0, 76, 90
3, 236279, Note_on_c, 0, 76, 0
3, 236280, Note_on_c, 0, 74, 90
3, 236309, Note_on_c, 0, 74, 0
3, 236310, Note_on_c, 0, 73, 90
3, 236339, Note_on_c, 0, 73, 0
3, 236340, Note_on_c, 0, 74, 90
3, 236369, Note_on_c, 0, 74, 0
3, 236370, Note_on_c, 0, 76, 90
3, 236399, Note_on_c, 0, 76, 0
3, 236400, Note_on_c, 0, 74, 90
3, 236429, Note_on_c, 0, 74, 0
3, 236430, Note_on_c, 0, 76, 90
3, 236459, Note_on_c, 0, 76, 0
3, 236460, Note_on_c, 0, 78, 90
3, 236519, Note_on_c, 0, 78, 0
3, 236520, Note_on_c, 0, 74, 90
3, 236579, Note_on_c, 0, 74, 0
3, 236580, Note_on_c, 0, 74, 90
3, 236639, Note_on_c, 0, 74, 0
3, 236640, Note_on_c, 0, 69, 90
3, 236699, Note_on_c, 0, 69, 0
3, 236700, Note_on_c, 0, 69, 90
3, 236819, Note_on_c, 0, 69, 0
3, 236819, End_track
4, 0, Start_track
4, 0, MIDI_port, 0
4, 0, Title_t, "tromp III"
4, 0, Program_c, 0, 56
4, 0, Control_c, 0, 10, 127
4, 60, Note_on_c, 0, 57, 100
4, 100, Note_on_c, 0, 57, 0
4, 120, Note_on_c, 0, 62, 100
4, 160, Note_on_c, 0, 62, 0
4, 180, Note_on_c, 0, 66, 100
4, 220, Note_on_c, 0, 66, 0
4, 240, Note_on_c, 0, 66, 100
4, 280, Note_on_c, 0, 66, 0
4, 300, Note_on_c, 0, 62, 100
4, 340, Note_on_c, 0, 62, 0
4, 360, Note_on_c, 0, 57, 100
4, 400, Note_on_c, 0, 57, 0
4, 420, Note_on_c, 0, 62, 100
4, 460, Note_on_c, 0, 62, 0
4, 480, Note_on_c, 0, 66, 100
4, 520, Note_on_c, 0, 66, 0
4, 540, Note_on_c, 0, 69, 100
4, 580, Note_on_c, 0, 69, 0
4, 600, Note_on_c, 0, 69, 100
4, 640, Note_on_c, 0, 69, 0
4, 660, Note_on_c, 0, 66, 100
4, 700, Note_on_c, 0, 66, 0
4, 720, Note_on_c, 0, 62, 100
4, 760, Note_on_c, 0, 62, 0
4, 780, Note_on_c, 0, 66, 100
4, 820, Note_on_c, 0, 66, 0
4, 840, Note_on_c, 0, 69, 100
4, 880, Note_on_c, 0, 69, 0
4, 900, Note_on_c, 0, 74, 100
4, 940, Note_on_c, 0, 74, 0
4, 1020, Note_on_c, 0, 69, 100
4, 1060, Note_on_c, 0, 69, 0
4, 1080, Note_on_c, 0, 69, 100
4, 1120, Note_on_c, 0, 69, 0
4, 1140, Note_on_c, 0, 66, 100
4, 1180, Note_on_c, 0, 66, 0
4, 1200, Note_on_c, 0, 69, 100
4, 1240, Note_on_c, 0, 69, 0
4, 1260, Note_on_c, 0, 74, 100
4, 1300, Note_on_c, 0, 74, 0
4, 1380, Note_on_c, 0, 69, 100
4, 1420, Note_on_c, 0, 69, 0
4, 1440, Note_on_c, 0, 69, 100
4, 1520, Note_on_c, 0, 69, 0
4, 2220, Note_on_c, 0, 57, 100
4, 2260, Note_on_c, 0, 57, 0
4, 2280, Note_on_c, 0, 62, 100
4, 2320, Note_on_c, 0, 62, 0
4, 2340, Note_on_c, 0, 66, 100
4, 2380, Note_on_c, 0, 66, 0
4, 2400, Note_on_c, 0, 66, 100
4, 2440, Note_on_c, 0, 66, 0
4, 2580, Note_on_c, 0, 57, 100
4, 2620, Note_on_c, 0, 57, 0
4, 2640, Note_on_c, 0, 62, 100
4, 2680, Note_on_c, 0, 62, 0
4, 2700, Note_on_c, 0, 66, 100
4, 2740, Note_on_c, 0, 66, 0
4, 2760, Note_on_c, 0, 62, 100
4, 2800, Note_on_c, 0, 62, 0
4, 4320, Note_on_c, 0, 69, 100
4, 4360, Note_on_c, 0, 69, 0
4, 4380, Note_on_c, 0, 57, 100
4, 4420, Note_on_c, 0, 57, 0
4, 4680, Note_on_c, 0, 76, 100
4, 4720, Note_on_c, 0, 76, 0
4, 4740, Note_on_c, 0, 69, 100
4, 4780, Note_on_c, 0, 69, 0
4, 5040, Note_on_c, 0, 81, 100
4, 5080, Note_on_c, 0, 81, 0
4, 5100, Note_on_c, 0, 76, 100
4, 5140, Note_on_c, 0, 76, 0
4, 6180, Note_on_c, 0, 69, 100
4, 6220, Note_on_c, 0, 69, 0
4, 6240, Note_on_c, 0, 74, 100
4, 6280, Note_on_c, 0, 74, 0
4, 6300, Note_on_c, 0, 78, 100
4, 6340, Note_on_c, 0, 78, 0
4, 6360, Note_on_c, 0, 78, 100
4, 6400, Note_on_c, 0, 78, 0
4, 6420, Note_on_c, 0, 78, 100
4, 6460, Note_on_c, 0, 78, 0
4, 6480, Note_on_c, 0, 79, 100
4, 6520, Note_on_c, 0, 79, 0
4, 6540, Note_on_c, 0, 74, 100
4, 6580, Note_on_c, 0, 74, 0
4, 7980, Note_on_c, 0, 66, 100
4, 8020, Note_on_c, 0, 66, 0
4, 8040, Note_on_c, 0, 69, 100
4, 8080, Note_on_c, 0, 69, 0
4, 8100, Note_on_c, 0, 74, 100
4, 8140, Note_on_c, 0, 74, 0
4, 8160, Note_on_c, 0, 74, 100
4, 8200, Note_on_c, 0, 74, 0
4, 8220, Note_on_c, 0, 69, 100
4, 8260, Note_on_c, 0, 69, 0
4, 8280, Note_on_c, 0, 66, 100
4, 8320, Note_on_c, 0, 66, 0
4, 8340, Note_on_c, 0, 69, 100
4, 8380, Note_on_c, 0, 69, 0
4, 8400, Note_on_c, 0, 74, 100
4, 8440, Note_on_c, 0, 74, 0
4, 8460, Note_on_c, 0, 78, 100
4, 8500, Note_on_c, 0, 78, 0
4, 8520, Note_on_c, 0, 78, 100
4, 8560, Note_on_c, 0, 78, 0
4, 8580, Note_on_c, 0, 74, 100
4, 8620, Note_on_c, 0, 74, 0
4, 8640, Note_on_c, 0, 69, 100
4, 8680, Note_on_c, 0, 69, 0
4, 8700, Note_on_c, 0, 66, 100
4, 8740, Note_on_c, 0, 66, 0
4, 9000, Note_on_c, 0, 66, 100
4, 9040, Note_on_c, 0, 66, 0
4, 9060, Note_on_c, 0, 62, 100
4, 9100, Note_on_c, 0, 62, 0
4, 9360, Note_on_c, 0, 74, 100
4, 9400, Note_on_c, 0, 74, 0
4, 9420, Note_on_c, 0, 69, 100
4, 9460, Note_on_c, 0, 69, 0
4, 9540, Note_on_c, 0, 62, 100
4, 9580, Note_on_c, 0, 62, 0
4, 9600, Note_on_c, 0, 69, 100
4, 9640, Note_on_c, 0, 69, 0
4, 9660, Note_on_c, 0, 74, 100
4, 9700, Note_on_c, 0, 74, 0
4, 9720, Note_on_c, 0, 74, 100
4, 9800, Note_on_c, 0, 74, 0
4, 9900, Note_on_c, 0, 62, 100
4, 9940, Note_on_c, 0, 62, 0
4, 9960, Note_on_c, 0, 69, 100
4, 10000, Note_on_c, 0, 69, 0
4, 10020, Note_on_c, 0, 74, 100
4, 10060, Note_on_c, 0, 74, 0
4, 10080, Note_on_c, 0, 74, 100
4, 10160, Note_on_c, 0, 74, 0
4, 10260, Note_on_c, 0, 74, 100
4, 10300, Note_on_c, 0, 74, 0
4, 10320, Note_on_c, 0, 74, 100
4, 10360, Note_on_c, 0, 74, 0
4, 10380, Note_on_c, 0, 69, 100
4, 10420, Note_on_c, 0, 69, 0
4, 10440, Note_on_c, 0, 69, 100
4, 10480, Note_on_c, 0, 69, 0
4, 10500, Note_on_c, 0, 66, 100
4, 10540, Note_on_c, 0, 66, 0
4, 10560, Note_on_c, 0, 62, 100
4, 10600, Note_on_c, 0, 62, 0
4, 10620, Note_on_c, 0, 62, 100
4, 10660, Note_on_c, 0, 62, 0
4, 10680, Note_on_c, 0, 69, 100
4, 10720, Note_on_c, 0, 69, 0
4, 10740, Note_on_c, 0, 69, 100
4, 10780, Note_on_c, 0, 69, 0
4, 10800, Note_on_c, 0, 66, 100
4, 10880, Note_on_c, 0, 66, 0
4, 11580, Note_on_c, 0, 57, 100
4, 11620, Note_on_c, 0, 57, 0
4, 11640, Note_on_c, 0, 62, 100
4, 11680, Note_on_c, 0, 62, 0
4, 11700, Note_on_c, 0, 66, 100
4, 11740, Note_on_c, 0, 66, 0
4, 11760, Note_on_c, 0, 66, 100
4, 11800, Note_on_c, 0, 66, 0
4, 11820, Note_on_c, 0, 62, 100
4, 11860, Note_on_c, 0, 62, 0
4, 11880, Note_on_c, 0, 57, 100
4, 11920, Note_on_c, 0, 57, 0
4, 11940, Note_on_c, 0, 62, 100
4, 11980, Note_on_c, 0, 62, 0
4, 12000, Note_on_c, 0, 66, 100
4, 12040, Note_on_c, 0, 66, 0
4, 12060, Note_on_c, 0, 69, 100
4, 12100, Note_on_c, 0, 69, 0
4, 12120, Note_on_c, 0, 69, 100
4, 12160, Note_on_c, 0, 69, 0
4, 12180, Note_on_c, 0, 66, 100
4, 12220, Note_on_c, 0, 66, 0
4, 12240, Note_on_c, 0, 62, 100
4, 12280, Note_on_c, 0, 62, 0
4, 12960, Note_on_c, 0, 74, 100
4, 13000, Note_on_c, 0, 74, 0
4, 13020, Note_on_c, 0, 69, 100
4, 13060, Note_on_c, 0, 69, 0
4, 13320, Note_on_c, 0, 74, 100
4, 13360, Note_on_c, 0, 74, 0
4, 13380, Note_on_c, 0, 80, 100
4, 13420, Note_on_c, 0, 80, 0
4, 13740, Note_on_c, 0, 57, 100
4, 13780, Note_on_c, 0, 57, 0
4, 13800, Note_on_c, 0, 62, 100
4, 13840, Note_on_c, 0, 62, 0
4, 13860, Note_on_c, 0, 66, 100
4, 13900, Note_on_c, 0, 66, 0
4, 13920, Note_on_c, 0, 66, 100
4, 13960, Note_on_c, 0, 66, 0
4, 14100, Note_on_c, 0, 57, 100
4, 14140, Note_on_c, 0, 57, 0
4, 14160, Note_on_c, 0, 62, 100
4, 14200, Note_on_c, 0, 62, 0
4, 14220, Note_on_c, 0, 66, 100
4, 14260, Note_on_c, 0, 66, 0
4, 14280, Note_on_c, 0, 62, 100
4, 14320, Note_on_c, 0, 62, 0
4, 15540, Note_on_c, 0, 76, 100
4, 15560, Note_on_c, 0, 76, 0
4, 15570, Note_on_c, 0, 76, 100
4, 15590, Note_on_c, 0, 76, 0
4, 15600, Note_on_c, 0, 76, 100
4, 15640, Note_on_c, 0, 76, 0
4, 15840, Note_on_c, 0, 69, 100
4, 15920, Note_on_c, 0, 69, 0
4, 16560, Note_on_c, 0, 69, 100
4, 16600, Note_on_c, 0, 69, 0
4, 16620, Note_on_c, 0, 57, 100
4, 16660, Note_on_c, 0, 57, 0
4, 16920, Note_on_c, 0, 76, 100
4, 16960, Note_on_c, 0, 76, 0
4, 16980, Note_on_c, 0, 69, 100
4, 17020, Note_on_c, 0, 69, 0
4, 17280, Note_on_c, 0, 81, 100
4, 17320, Note_on_c, 0, 81, 0
4, 17340, Note_on_c, 0, 76, 100
4, 17380, Note_on_c, 0, 76, 0
4, 20160, Note_on_c, 0, 66, 100
4, 20200, Note_on_c, 0, 66, 0
4, 20220, Note_on_c, 0, 66, 100
4, 20260, Note_on_c, 0, 66, 0
4, 20520, Note_on_c, 0, 69, 100
4, 20560, Note_on_c, 0, 69, 0
4, 20580, Note_on_c, 0, 66, 100
4, 20620, Note_on_c, 0, 66, 0
4, 20880, Note_on_c, 0, 74, 100
4, 20920, Note_on_c, 0, 74, 0
4, 20940, Note_on_c, 0, 66, 100
4, 20980, Note_on_c, 0, 66, 0
4, 21000, Note_on_c, 0, 69, 100
4, 21040, Note_on_c, 0, 69, 0
4, 21060, Note_on_c, 0, 74, 100
4, 21100, Note_on_c, 0, 74, 0
4, 21180, Note_on_c, 0, 69, 100
4, 21220, Note_on_c, 0, 69, 0
4, 21240, Note_on_c, 0, 69, 100
4, 21280, Note_on_c, 0, 69, 0
4, 21300, Note_on_c, 0, 66, 100
4, 21340, Note_on_c, 0, 66, 0
4, 21360, Note_on_c, 0, 69, 100
4, 21400, Note_on_c, 0, 69, 0
4, 21420, Note_on_c, 0, 74, 100
4, 21460, Note_on_c, 0, 74, 0
4, 21540, Note_on_c, 0, 69, 100
4, 21580, Note_on_c, 0, 69, 0
4, 21600, Note_on_c, 0, 69, 100
4, 21640, Note_on_c, 0, 69, 0
4, 21660, Note_on_c, 0, 66, 100
4, 21700, Note_on_c, 0, 66, 0
4, 23760, Note_on_c, 0, 76, 100
4, 23800, Note_on_c, 0, 76, 0
4, 23820, Note_on_c, 0, 79, 100
4, 23860, Note_on_c, 0, 79, 0
4, 24120, Note_on_c, 0, 69, 100
4, 24160, Note_on_c, 0, 69, 0
4, 24180, Note_on_c, 0, 76, 100
4, 24220, Note_on_c, 0, 76, 0
4, 24540, Note_on_c, 0, 62, 100
4, 24580, Note_on_c, 0, 62, 0
4, 24600, Note_on_c, 0, 74, 100
4, 24640, Note_on_c, 0, 74, 0
4, 24660, Note_on_c, 0, 79, 100
4, 24700, Note_on_c, 0, 79, 0
4, 24720, Note_on_c, 0, 79, 100
4, 24760, Note_on_c, 0, 79, 0
4, 24900, Note_on_c, 0, 79, 100
4, 24940, Note_on_c, 0, 79, 0
4, 24960, Note_on_c, 0, 83, 100
4, 25000, Note_on_c, 0, 83, 0
4, 25020, Note_on_c, 0, 79, 100
4, 25060, Note_on_c, 0, 79, 0
4, 25080, Note_on_c, 0, 76, 100
4, 25120, Note_on_c, 0, 76, 0
4, 25380, Note_on_c, 0, 76, 100
4, 25420, Note_on_c, 0, 76, 0
4, 25440, Note_on_c, 0, 69, 100
4, 25480, Note_on_c, 0, 69, 0
4, 25500, Note_on_c, 0, 76, 100
4, 25540, Note_on_c, 0, 76, 0
4, 25560, Note_on_c, 0, 81, 100
4, 25600, Note_on_c, 0, 81, 0
4, 25740, Note_on_c, 0, 69, 100
4, 25780, Note_on_c, 0, 69, 0
4, 25800, Note_on_c, 0, 74, 100
4, 25840, Note_on_c, 0, 74, 0
4, 25860, Note_on_c, 0, 69, 100
4, 25900, Note_on_c, 0, 69, 0
4, 25920, Note_on_c, 0, 62, 100
4, 25960, Note_on_c, 0, 62, 0
4, 26340, Note_on_c, 0, 69, 100
4, 26380, Note_on_c, 0, 69, 0
4, 26400, Note_on_c, 0, 69, 100
4, 26440, Note_on_c, 0, 69, 0
4, 26460, Note_on_c, 0, 66, 100
4, 26480, Note_on_c, 0, 66, 0
4, 26490, Note_on_c, 0, 62, 100
4, 26510, Note_on_c, 0, 62, 0
4, 26520, Note_on_c, 0, 69, 100
4, 26560, Note_on_c, 0, 69, 0
4, 26580, Note_on_c, 0, 69, 100
4, 26620, Note_on_c, 0, 69, 0
4, 26640, Note_on_c, 0, 69, 100
4, 26720, Note_on_c, 0, 69, 0
4, 27420, Note_on_c, 0, 69, 100
4, 27460, Note_on_c, 0, 69, 0
4, 27480, Note_on_c, 0, 74, 100
4, 27520, Note_on_c, 0, 74, 0
4, 27540, Note_on_c, 0, 78, 100
4, 27580, Note_on_c, 0, 78, 0
4, 27600, Note_on_c, 0, 78, 100
4, 27640, Note_on_c, 0, 78, 0
4, 27660, Note_on_c, 0, 78, 100
4, 27700, Note_on_c, 0, 78, 0
4, 27720, Note_on_c, 0, 79, 100
4, 27760, Note_on_c, 0, 79, 0
4, 27780, Note_on_c, 0, 74, 100
4, 27820, Note_on_c, 0, 74, 0
4, 29220, Note_on_c, 0, 66, 100
4, 29260, Note_on_c, 0, 66, 0
4, 29280, Note_on_c, 0, 69, 100
4, 29320, Note_on_c, 0, 69, 0
4, 29340, Note_on_c, 0, 74, 100
4, 29380, Note_on_c, 0, 74, 0
4, 29400, Note_on_c, 0, 74, 100
4, 29440, Note_on_c, 0, 74, 0
4, 29460, Note_on_c, 0, 69, 100
4, 29500, Note_on_c, 0, 69, 0
4, 29520, Note_on_c, 0, 66, 100
4, 29560, Note_on_c, 0, 66, 0
4, 29580, Note_on_c, 0, 69, 100
4, 29620, Note_on_c, 0, 69, 0
4, 29640, Note_on_c, 0, 74, 100
4, 29680, Note_on_c, 0, 74, 0
4, 29700, Note_on_c, 0, 78, 100
4, 29740, Note_on_c, 0, 78, 0
4, 29760, Note_on_c, 0, 78, 100
4, 29800, Note_on_c, 0, 78, 0
4, 29820, Note_on_c, 0, 74, 100
4, 29860, Note_on_c, 0, 74, 0
4, 29880, Note_on_c, 0, 69, 100
4, 29920, Note_on_c, 0, 69, 0
4, 29940, Note_on_c, 0, 66, 100
4, 29980, Note_on_c, 0, 66, 0
4, 30240, Note_on_c, 0, 66, 100
4, 30280, Note_on_c, 0, 66, 0
4, 30300, Note_on_c, 0, 62, 100
4, 30340, Note_on_c, 0, 62, 0
4, 30600, Note_on_c, 0, 74, 100
4, 30640, Note_on_c, 0, 74, 0
4, 30660, Note_on_c, 0, 69, 100
4, 30700, Note_on_c, 0, 69, 0
4, 30780, Note_on_c, 0, 62, 100
4, 30820, Note_on_c, 0, 62, 0
4, 30840, Note_on_c, 0, 69, 100
4, 30880, Note_on_c, 0, 69, 0
4, 30900, Note_on_c, 0, 74, 100
4, 30940, Note_on_c, 0, 74, 0
4, 30960, Note_on_c, 0, 74, 100
4, 31040, Note_on_c, 0, 74, 0
4, 31140, Note_on_c, 0, 62, 100
4, 31180, Note_on_c, 0, 62, 0
4, 31200, Note_on_c, 0, 69, 100
4, 31240, Note_on_c, 0, 69, 0
4, 31260, Note_on_c, 0, 74, 100
4, 31300, Note_on_c, 0, 74, 0
4, 31320, Note_on_c, 0, 74, 100
4, 31400, Note_on_c, 0, 74, 0
4, 31500, Note_on_c, 0, 74, 100
4, 31540, Note_on_c, 0, 74, 0
4, 31560, Note_on_c, 0, 74, 100
4, 31600, Note_on_c, 0, 74, 0
4, 31620, Note_on_c, 0, 69, 100
4, 31660, Note_on_c, 0, 69, 0
4, 31680, Note_on_c, 0, 69, 100
4, 31720, Note_on_c, 0, 69, 0
4, 31740, Note_on_c, 0, 66, 100
4, 31780, Note_on_c, 0, 66, 0
4, 31800, Note_on_c, 0, 62, 100
4, 31840, Note_on_c, 0, 62, 0
4, 31860, Note_on_c, 0, 62, 100
4, 31900, Note_on_c, 0, 62, 0
4, 31920, Note_on_c, 0, 69, 100
4, 31960, Note_on_c, 0, 69, 0
4, 31980, Note_on_c, 0, 69, 100
4, 32020, Note_on_c, 0, 69, 0
4, 32040, Note_on_c, 0, 66, 100
4, 32120, Note_on_c, 0, 66, 0
4, 117180, Control_c, 0, 0, 0
4, 123000, Note_on_c, 0, 66, 100
4, 123040, Note_on_c, 0, 66, 0
4, 123060, Note_on_c, 0, 69, 100
4, 123100, Note_on_c, 0, 69, 0
4, 123120, Note_on_c, 0, 69, 100
4, 123160, Note_on_c, 0, 69, 0
4, 123180, Note_on_c, 0, 74, 100
4, 123240, Note_on_c, 0, 74, 0
4, 123270, Note_on_c, 0, 74, 100
4, 123290, Note_on_c, 0, 74, 0
4, 123300, Note_on_c, 0, 74, 100
4, 123380, Note_on_c, 0, 74, 0
4, 123480, Note_on_c, 0, 62, 100
4, 123520, Note_on_c, 0, 62, 0
4, 123540, Note_on_c, 0, 74, 100
4, 123580, Note_on_c, 0, 74, 0
4, 123600, Note_on_c, 0, 74, 100
4, 123640, Note_on_c, 0, 74, 0
4, 123660, Note_on_c, 0, 78, 100
4, 123720, Note_on_c, 0, 78, 0
4, 123750, Note_on_c, 0, 78, 100
4, 123770, Note_on_c, 0, 78, 0
4, 123780, Note_on_c, 0, 78, 100
4, 123860, Note_on_c, 0, 78, 0
4, 124920, Note_on_c, 0, 69, 100
4, 124960, Note_on_c, 0, 69, 0
4, 124980, Note_on_c, 0, 76, 100
4, 125020, Note_on_c, 0, 76, 0
4, 125040, Note_on_c, 0, 76, 100
4, 125080, Note_on_c, 0, 76, 0
4, 125100, Note_on_c, 0, 81, 100
4, 125160, Note_on_c, 0, 81, 0
4, 125190, Note_on_c, 0, 81, 100
4, 125210, Note_on_c, 0, 81, 0
4, 125220, Note_on_c, 0, 81, 100
4, 125300, Note_on_c, 0, 81, 0
4, 125400, Note_on_c, 0, 57, 100
4, 125440, Note_on_c, 0, 57, 0
4, 125460, Note_on_c, 0, 69, 100
4, 125500, Note_on_c, 0, 69, 0
4, 125520, Note_on_c, 0, 69, 100
4, 125560, Note_on_c, 0, 69, 0
4, 125580, Note_on_c, 0, 69, 100
4, 125640, Note_on_c, 0, 69, 0
4, 125670, Note_on_c, 0, 69, 100
4, 125690, Note_on_c, 0, 69, 0
4, 125700, Note_on_c, 0, 69, 100
4, 125780, Note_on_c, 0, 69, 0
4, 127080, Note_on_c, 0, 69, 100
4, 127120, Note_on_c, 0, 69, 0
4, 127140, Note_on_c, 0, 66, 100
4, 127180, Note_on_c, 0, 66, 0
4, 127200, Note_on_c, 0, 69, 100
4, 127240, Note_on_c, 0, 69, 0
4, 127260, Note_on_c, 0, 62, 100
4, 127320, Note_on_c, 0, 62, 0
4, 127350, Note_on_c, 0, 62, 100
4, 127370, Note_on_c, 0, 62, 0
4, 127380, Note_on_c, 0, 62, 100
4, 127460, Note_on_c, 0, 62, 0
4, 127560, Note_on_c, 0, 69, 100
4, 127600, Note_on_c, 0, 69, 0
4, 127620, Note_on_c, 0, 66, 100
4, 127660, Note_on_c, 0, 66, 0
4, 127680, Note_on_c, 0, 69, 100
4, 127720, Note_on_c, 0, 69, 0
4, 127740, Note_on_c, 0, 62, 100
4, 127800, Note_on_c, 0, 62, 0
4, 127830, Note_on_c, 0, 62, 100
4, 127850, Note_on_c, 0, 62, 0
4, 127860, Note_on_c, 0, 62, 100
4, 127940, Note_on_c, 0, 62, 0
4, 128520, Note_on_c, 0, 69, 100
4, 128540, Note_on_c, 0, 69, 0
4, 128550, Note_on_c, 0, 69, 100
4, 128570, Note_on_c, 0, 69, 0
4, 128580, Note_on_c, 0, 64, 100
4, 128620, Note_on_c, 0, 64, 0
4, 128640, Note_on_c, 0, 64, 100
4, 128660, Note_on_c, 0, 64, 0
4, 128670, Note_on_c, 0, 64, 100
4, 128690, Note_on_c, 0, 64, 0
4, 128700, Note_on_c, 0, 69, 100
4, 128780, Note_on_c, 0, 69, 0
4, 129480, Note_on_c, 0, 78, 100
4, 129520, Note_on_c, 0, 78, 0
4, 129540, Note_on_c, 0, 78, 100
4, 129580, Note_on_c, 0, 78, 0
4, 129720, Note_on_c, 0, 76, 100
4, 129760, Note_on_c, 0, 76, 0
4, 129780, Note_on_c, 0, 76, 100
4, 129820, Note_on_c, 0, 76, 0
4, 132180, Note_on_c, 0, 74, 100
4, 132418, Note_on_c, 0, 74, 0
4, 132420, Note_on_c, 0, 79, 100
4, 132478, Note_on_c, 0, 79, 0
4, 132480, Note_on_c, 0, 76, 100
4, 132538, Note_on_c, 0, 76, 0
4, 132540, Note_on_c, 0, 69, 100
4, 132778, Note_on_c, 0, 69, 0
4, 132780, Note_on_c, 0, 62, 100
4, 133018, Note_on_c, 0, 62, 0
4, 133020, Note_on_c, 0, 69, 100
4, 133498, Note_on_c, 0, 69, 0
4, 133500, Note_on_c, 0, 69, 100
4, 133978, Note_on_c, 0, 69, 0
4, 226380, Note_on_c, 0, 74, 100
4, 226500, Note_on_c, 0, 74, 0
4, 226500, Note_on_c, 0, 74, 100
4, 226560, Note_on_c, 0, 74, 0
4, 226560, Note_on_c, 0, 74, 100
4, 226620, Note_on_c, 0, 74, 0
4, 226620, Note_on_c, 0, 74, 100
4, 226740, Note_on_c, 0, 74, 0
4, 226740, Note_on_c, 0, 74, 100
4, 226860, Note_on_c, 0, 74, 0
4, 226860, Note_on_c, 0, 79, 100
4, 226920, Note_on_c, 0, 79, 0
4, 226920, Note_on_c, 0, 81, 100
4, 226980, Note_on_c, 0, 81, 0
4, 226980, Note_on_c, 0, 79, 100
4, 227040, Note_on_c, 0, 79, 0
4, 227040, Note_on_c, 0, 78, 100
4, 227100, Note_on_c, 0, 78, 0
4, 227100, Note_on_c, 0, 76, 100
4, 227460, Note_on_c, 0, 76, 0
4, 227460, Note_on_c, 0, 69, 100
4, 227700, Note_on_c, 0, 69, 0
4, 227700, Note_on_c, 0, 69, 100
4, 227820, Note_on_c, 0, 69, 0
4, 227820, Note_on_c, 0, 66, 100
4, 227940, Note_on_c, 0, 66, 0
4, 227940, Note_on_c, 0, 62, 100
4, 228000, Note_on_c, 0, 62, 0
4, 228000, Note_on_c, 0, 62, 100
4, 228060, Note_on_c, 0, 62, 0
4, 228060, Note_on_c, 0, 62, 100
4, 228180, Note_on_c, 0, 62, 0
4, 228180, Note_on_c, 0, 62, 100
4, 228300, Note_on_c, 0, 62, 0
4, 228300, Note_on_c, 0, 69, 100
4, 228780, Note_on_c, 0, 69, 0
4, 228840, Note_on_c, 0, 57, 90
4, 228899, Note_on_c, 0, 57, 0
4, 228900, Note_on_c, 0, 62, 90
4, 228959, Note_on_c, 0, 62, 0
4, 228960, Note_on_c, 0, 66, 90
4, 229019, Note_on_c, 0, 66, 0
4, 229020, Note_on_c, 0, 66, 90
4, 229079, Note_on_c, 0, 66, 0
4, 229080, Note_on_c, 0, 62, 90
4, 229139, Note_on_c, 0, 62, 0
4, 229140, Note_on_c, 0, 57, 90
4, 229199, Note_on_c, 0, 57, 0
4, 229200, Note_on_c, 0, 62, 90
4, 229259, Note_on_c, 0, 62, 0
4, 229260, Note_on_c, 0, 66, 90
4, 229319, Note_on_c, 0, 66, 0
4, 229320, Note_on_c, 0, 69, 90
4, 229379, Note_on_c, 0, 69, 0
4, 229380, Note_on_c, 0, 69, 90
4, 229439, Note_on_c, 0, 69, 0
4, 229440, Note_on_c, 0, 66, 90
4, 229499, Note_on_c, 0, 66, 0
4, 229500, Note_on_c, 0, 62, 90
4, 229559, Note_on_c, 0, 62, 0
4, 230220, Note_on_c, 0, 74, 90
4, 230279, Note_on_c, 0, 74, 0
4, 230280, Note_on_c, 0, 69, 90
4, 230339, Note_on_c, 0, 69, 0
4, 230580, Note_on_c, 0, 69, 90
4, 230639, Note_on_c, 0, 69, 0
4, 230640, Note_on_c, 0, 66, 90
4, 230699, Note_on_c, 0, 66, 0
4, 230940, Note_on_c, 0, 66, 90
4, 230999, Note_on_c, 0, 66, 0
4, 231000, Note_on_c, 0, 62, 90
4, 231059, Note_on_c, 0, 62, 0
4, 231720, Note_on_c, 0, 69, 90
4, 231749, Note_on_c, 0, 69, 0
4, 231750, Note_on_c, 0, 69, 90
4, 231779, Note_on_c, 0, 69, 0
4, 231780, Note_on_c, 0, 74, 90
4, 231839, Note_on_c, 0, 74, 0
4, 231840, Note_on_c, 0, 69, 90
4, 231899, Note_on_c, 0, 69, 0
4, 231900, Note_on_c, 0, 69, 90
4, 231959, Note_on_c, 0, 69, 0
4, 231960, Note_on_c, 0, 69, 90
4, 232019, Note_on_c, 0, 69, 0
4, 232020, Note_on_c, 0, 62, 90
4, 232079, Note_on_c, 0, 62, 0
4, 234600, Note_on_c, 0, 57, 90
4, 234659, Note_on_c, 0, 57, 0
4, 234660, Note_on_c, 0, 62, 90
4, 234719, Note_on_c, 0, 62, 0
4, 234720, Note_on_c, 0, 66, 90
4, 234779, Note_on_c, 0, 66, 0
4, 234780, Note_on_c, 0, 66, 90
4, 234839, Note_on_c, 0, 66, 0
4, 234840, Note_on_c, 0, 62, 90
4, 234899, Note_on_c, 0, 62, 0
4, 234900, Note_on_c, 0, 57, 90
4, 234959, Note_on_c, 0, 57, 0
4, 234960, Note_on_c, 0, 62, 90
4, 235019, Note_on_c, 0, 62, 0
4, 235020, Note_on_c, 0, 66, 90
4, 235079, Note_on_c, 0, 66, 0
4, 235080, Note_on_c, 0, 69, 90
4, 235139, Note_on_c, 0, 69, 0
4, 235140, Note_on_c, 0, 69, 90
4, 235199, Note_on_c, 0, 69, 0
4, 235200, Note_on_c, 0, 66, 90
4, 235259, Note_on_c, 0, 66, 0
4, 235260, Note_on_c, 0, 62, 90
4, 235319, Note_on_c, 0, 62, 0
4, 235320, Note_on_c, 0, 66, 90
4, 235379, Note_on_c, 0, 66, 0
4, 235380, Note_on_c, 0, 69, 90
4, 235439, Note_on_c, 0, 69, 0
4, 235440, Note_on_c, 0, 74, 90
4, 235499, Note_on_c, 0, 74, 0
4, 235500, Note_on_c, 0, 69, 90
4, 235529, Note_on_c, 0, 69, 0
4, 235530, Note_on_c, 0, 69, 90
4, 235559, Note_on_c, 0, 69, 0
4, 235560, Note_on_c, 0, 69, 90
4, 235589, Note_on_c, 0, 69, 0
4, 235590, Note_on_c, 0, 69, 90
4, 235619, Note_on_c, 0, 69, 0
4, 235620, Note_on_c, 0, 69, 90
4, 235679, Note_on_c, 0, 69, 0
4, 235680, Note_on_c, 0, 69, 90
4, 235739, Note_on_c, 0, 69, 0
4, 236040, Note_on_c, 0, 66, 90
4, 236099, Note_on_c, 0, 66, 0
4, 236100, Note_on_c, 0, 69, 90
4, 236159, Note_on_c, 0, 69, 0
4, 236160, Note_on_c, 0, 74, 90
4, 236219, Note_on_c, 0, 74, 0
4, 236220, Note_on_c, 0, 74, 90
4, 236279, Note_on_c, 0, 74, 0
4, 236280, Note_on_c, 0, 69, 90
4, 236339, Note_on_c, 0, 69, 0
4, 236340, Note_on_c, 0, 69, 90
4, 236399, Note_on_c, 0, 69, 0
4, 236400, Note_on_c, 0, 66, 90
4, 236459, Note_on_c, 0, 66, 0
4, 236460, Note_on_c, 0, 62, 90
4, 236519, Note_on_c, 0, 62, 0
4, 236520, Note_on_c, 0, 62, 90
4, 236579, Note_on_c, 0, 62, 0
4, 236580, Note_on_c, 0, 69, 90
4, 236639, Note_on_c, 0, 69, 0
4, 236640, Note_on_c, 0, 69, 90
4, 236699, Note_on_c, 0, 69, 0
4, 236700, Note_on_c, 0, 66, 90
4, 236819, Note_on_c, 0, 66, 0
4, 236819, End_track
5, 0, Start_track
5, 0, MIDI_port, 0
5, 0, Title_t, "timbal"
5, 0, Program_c, 9, 2
5, 0, Control_c, 9, 7, 127
5, 0, Control_c, 9, 10, 0
5, 0, Note_on_c, 9, 50, 100
5, 80, Note_on_c, 9, 50, 0
5, 360, Note_on_c, 9, 50, 100
5, 440, Note_on_c, 9, 50, 0
5, 720, Note_on_c, 9, 50, 100
5, 800, Note_on_c, 9, 50, 0
5, 900, Note_on_c, 9, 50, 100
5, 940, Note_on_c, 9, 50, 0
5, 960, Note_on_c, 9, 45, 100
5, 1000, Note_on_c, 9, 45, 0
5, 1020, Note_on_c, 9, 45, 100
5, 1060, Note_on_c, 9, 45, 0
5, 1080, Note_on_c, 9, 50, 100
5, 1160, Note_on_c, 9, 50, 0
5, 1260, Note_on_c, 9, 50, 100
5, 1300, Note_on_c, 9, 50, 0
5, 1320, Note_on_c, 9, 45, 100
5, 1360, Note_on_c, 9, 45, 0
5, 1380, Note_on_c, 9, 45, 100
5, 1420, Note_on_c, 9, 45, 0
5, 1440, Note_on_c, 9, 50, 100
5, 1520, Note_on_c, 9, 50, 0
5, 2160, Note_on_c, 9, 50, 100
5, 2240, Note_on_c, 9, 50, 0
5, 2520, Note_on_c, 9, 50, 100
5, 2600, Note_on_c, 9, 50, 0
5, 4320, Note_on_c, 9, 45, 100
5, 4400, Note_on_c, 9, 45, 0
5, 4680, Note_on_c, 9, 45, 100
5, 4760, Note_on_c, 9, 45, 0
5, 5040, Note_on_c, 9, 45, 100
5, 5120, Note_on_c, 9, 45, 0
5, 6120, Note_on_c, 9, 50, 100
5, 6200, Note_on_c, 9, 50, 0
5, 6480, Note_on_c, 9, 50, 100
5, 6560, Note_on_c, 9, 50, 0
5, 7920, Note_on_c, 9, 50, 100
5, 8000, Note_on_c, 9, 50, 0
5, 8280, Note_on_c, 9, 45, 100
5, 8360, Note_on_c, 9, 45, 0
5, 8640, Note_on_c, 9, 50, 100
5, 8720, Note_on_c, 9, 50, 0
5, 9000, Note_on_c, 9, 50, 100
5, 9080, Note_on_c, 9, 50, 0
5, 9360, Note_on_c, 9, 50, 100
5, 9440, Note_on_c, 9, 50, 0
5, 9540, Note_on_c, 9, 50, 100
5, 9580, Note_on_c, 9, 50, 0
5, 9600, Note_on_c, 9, 45, 100
5, 9640, Note_on_c, 9, 45, 0
5, 9660, Note_on_c, 9, 45, 100
5, 9700, Note_on_c, 9, 45, 0
5, 9720, Note_on_c, 9, 50, 100
5, 9800, Note_on_c, 9, 50, 0
5, 9900, Note_on_c, 9, 50, 100
5, 9940, Note_on_c, 9, 50, 0
5, 9960, Note_on_c, 9, 50, 100
5, 10000, Note_on_c, 9, 50, 0
5, 10020, Note_on_c, 9, 50, 100
5, 10060, Note_on_c, 9, 50, 0
5, 10080, Note_on_c, 9, 50, 100
5, 10160, Note_on_c, 9, 50, 0
5, 10260, Note_on_c, 9, 50, 100
5, 10300, Note_on_c, 9, 50, 0
5, 10320, Note_on_c, 9, 45, 100
5, 10360, Note_on_c, 9, 45, 0
5, 10380, Note_on_c, 9, 45, 100
5, 10420, Note_on_c, 9, 45, 0
5, 10440, Note_on_c, 9, 50, 100
5, 10480, Note_on_c, 9, 50, 0
5, 10500, Note_on_c, 9, 50, 100
5, 10520, Note_on_c, 9, 50, 0
5, 10530, Note_on_c, 9, 50, 100
5, 10550, Note_on_c, 9, 50, 0
5, 10560, Note_on_c, 9, 50, 100
5, 10600, Note_on_c, 9, 50, 0
5, 10620, Note_on_c, 9, 50, 100
5, 10660, Note_on_c, 9, 50, 0
5, 10680, Note_on_c, 9, 45, 100
5, 10720, Note_on_c, 9, 45, 0
5, 10740, Note_on_c, 9, 45, 100
5, 10780, Note_on_c, 9, 45, 0
5, 10800, Note_on_c, 9, 50, 100
5, 10880, Note_on_c, 9, 50, 0
5, 11520, Note_on_c, 9, 50, 100
5, 11600, Note_on_c, 9, 50, 0
5, 11880, Note_on_c, 9, 50, 100
5, 11960, Note_on_c, 9, 50, 0
5, 12240, Note_on_c, 9, 50, 100
5, 12320, Note_on_c, 9, 50, 0
5, 12960, Note_on_c, 9, 50, 100
5, 13040, Note_on_c, 9, 50, 0
5, 13320, Note_on_c, 9, 50, 100
5, 13400, Note_on_c, 9, 50, 0
5, 13680, Note_on_c, 9, 50, 100
5, 13760, Note_on_c, 9, 50, 0
5, 14040, Note_on_c, 9, 50, 100
5, 14120, Note_on_c, 9, 50, 0
5, 15840, Note_on_c, 9, 45, 100
5, 15920, Note_on_c, 9, 45, 0
5, 16560, Note_on_c, 9, 45, 100
5, 16640, Note_on_c, 9, 45, 0
5, 16920, Note_on_c, 9, 45, 100
5, 17000, Note_on_c, 9, 45, 0
5, 17280, Note_on_c, 9, 45, 100
5, 17360, Note_on_c, 9, 45, 0
5, 20160, Note_on_c, 9, 50, 100
5, 20240, Note_on_c, 9, 50, 0
5, 20520, Note_on_c, 9, 50, 100
5, 20600, Note_on_c, 9, 50, 0
5, 20880, Note_on_c, 9, 50, 100
5, 20960, Note_on_c, 9, 50, 0
5, 21060, Note_on_c, 9, 50, 100
5, 21100, Note_on_c, 9, 50, 0
5, 21120, Note_on_c, 9, 45, 100
5, 21160, Note_on_c, 9, 45, 0
5, 21180, Note_on_c, 9, 45, 100
5, 21220, Note_on_c, 9, 45, 0
5, 21240, Note_on_c, 9, 50, 100
5, 21320, Note_on_c, 9, 50, 0
5, 21420, Note_on_c, 9, 50, 100
5, 21460, Note_on_c, 9, 50, 0
5, 21480, Note_on_c, 9, 45, 100
5, 21520, Note_on_c, 9, 45, 0
5, 21540, Note_on_c, 9, 45, 100
5, 21580, Note_on_c, 9, 45, 0
5, 21600, Note_on_c, 9, 50, 100
5, 21680, Note_on_c, 9, 50, 0
5, 24120, Note_on_c, 9, 45, 100
5, 24200, Note_on_c, 9, 45, 0
5, 24480, Note_on_c, 9, 50, 100
5, 24560, Note_on_c, 9, 50, 0
5, 25200, Note_on_c, 9, 45, 100
5, 25280, Note_on_c, 9, 45, 0
5, 25560, Note_on_c, 9, 50, 100
5, 25640, Note_on_c, 9, 50, 0
5, 25920, Note_on_c, 9, 50, 100
5, 26000, Note_on_c, 9, 50, 0
5, 26340, Note_on_c, 9, 45, 100
5, 26380, Note_on_c, 9, 45, 0
5, 26400, Note_on_c, 9, 50, 100
5, 26440, Note_on_c, 9, 50, 0
5, 26460, Note_on_c, 9, 50, 100
5, 26500, Note_on_c, 9, 50, 0
5, 26520, Note_on_c, 9, 45, 100
5, 26560, Note_on_c, 9, 45, 0
5, 26580, Note_on_c, 9, 45, 100
5, 26620, Note_on_c, 9, 45, 0
5, 26640, Note_on_c, 9, 50, 100
5, 26720, Note_on_c, 9, 50, 0
5, 27360, Note_on_c, 9, 50, 100
5, 27440, Note_on_c, 9, 50, 0
5, 27720, Note_on_c, 9, 50, 100
5, 27800, Note_on_c, 9, 50, 0
5, 29160, Note_on_c, 9, 50, 100
5, 29240, Note_on_c, 9, 50, 0
5, 29520, Note_on_c, 9, 45, 100
5, 29600, Note_on_c, 9, 45, 0
5, 29880, Note_on_c, 9, 50, 100
5, 29960, Note_on_c, 9, 50, 0
5, 30240, Note_on_c, 9, 50, 100
5, 30320, Note_on_c, 9, 50, 0
5, 30600, Note_on_c, 9, 50, 100
5, 30680, Note_on_c, 9, 50, 0
5, 30780, Note_on_c, 9, 50, 100
5, 30820, Note_on_c, 9, 50, 0
5, 30840, Note_on_c, 9, 45, 100
5, 30880, Note_on_c, 9, 45, 0
5, 30900, Note_on_c, 9, 45, 100
5, 30940, Note_on_c, 9, 45, 0
5, 30960, Note_on_c, 9, 50, 100
5, 31040, Note_on_c, 9, 50, 0
5, 31140, Note_on_c, 9, 50, 100
5, 31180, Note_on_c, 9, 50, 0
5, 31200, Note_on_c, 9, 50, 100
5, 31240, Note_on_c, 9, 50, 0
5, 31260, Note_on_c, 9, 50, 100
5, 31300, Note_on_c, 9, 50, 0
5, 31320, Note_on_c, 9, 50, 100
5, 31400, Note_on_c, 9, 50, 0
5, 31500, Note_on_c, 9, 50, 100
5, 31540, Note_on_c, 9, 50, 0
5, 31560, Note_on_c, 9, 45, 100
5, 31600, Note_on_c, 9, 45, 0
5, 31620, Note_on_c, 9, 45, 100
5, 31660, Note_on_c, 9, 45, 0
5, 31680, Note_on_c, 9, 50, 100
5, 31720, Note_on_c, 9, 50, 0
5, 31740, Note_on_c, 9, 50, 100
5, 31760, Note_on_c, 9, 50, 0
5, 31770, Note_on_c, 9, 50, 100
5, 31790, Note_on_c, 9, 50, 0
5, 31800, Note_on_c, 9, 50, 100
5, 31840, Note_on_c, 9, 50, 0
5, 31860, Note_on_c, 9, 50, 100
5, 31900, Note_on_c, 9, 50, 0
5, 31920, Note_on_c, 9, 45, 100
5, 31960, Note_on_c, 9, 45, 0
5, 31980, Note_on_c, 9, 45, 100
5, 32020, Note_on_c, 9, 45, 0
5, 32040, Note_on_c, 9, 50, 100
5, 32120, Note_on_c, 9, 50, 0
5, 117180, Control_c, 9, 0, 0
5, 123000, Note_on_c, 9, 50, 100
5, 123040, Note_on_c, 9, 50, 0
5, 123060, Note_on_c, 9, 50, 100
5, 123100, Note_on_c, 9, 50, 0
5, 123120, Note_on_c, 9, 50, 100
5, 123160, Note_on_c, 9, 50, 0
5, 123180, Note_on_c, 9, 50, 100
5, 123240, Note_on_c, 9, 50, 0
5, 123270, Note_on_c, 9, 50, 100
5, 123290, Note_on_c, 9, 50, 0
5, 123300, Note_on_c, 9, 50, 100
5, 123380, Note_on_c, 9, 50, 0
5, 123480, Note_on_c, 9, 50, 100
5, 123520, Note_on_c, 9, 50, 0
5, 123540, Note_on_c, 9, 50, 100
5, 123580, Note_on_c, 9, 50, 0
5, 123600, Note_on_c, 9, 50, 100
5, 123640, Note_on_c, 9, 50, 0
5, 123660, Note_on_c, 9, 50, 100
5, 123720, Note_on_c, 9, 50, 0
5, 123750, Note_on_c, 9, 50, 100
5, 123770, Note_on_c, 9, 50, 0
5, 123780, Note_on_c, 9, 50, 100
5, 123860, Note_on_c, 9, 50, 0
5, 124920, Note_on_c, 9, 45, 100
5, 124960, Note_on_c, 9, 45, 0
5, 124980, Note_on_c, 9, 45, 100
5, 125020, Note_on_c, 9, 45, 0
5, 125040, Note_on_c, 9, 45, 100
5, 125080, Note_on_c, 9, 45, 0
5, 125100, Note_on_c, 9, 45, 100
5, 125160, Note_on_c, 9, 45, 0
5, 125190, Note_on_c, 9, 45, 100
5, 125210, Note_on_c, 9, 45, 0
5, 125220, Note_on_c, 9, 45, 100
5, 125300, Note_on_c, 9, 45, 0
5, 125400, Note_on_c, 9, 50, 100
5, 125440, Note_on_c, 9, 50, 0
5, 125460, Note_on_c, 9, 50, 100
5, 125500, Note_on_c, 9, 50, 0
5, 125520, Note_on_c, 9, 50, 100
5, 125560, Note_on_c, 9, 50, 0
5, 125580, Note_on_c, 9, 45, 100
5, 125640, Note_on_c, 9, 45, 0
5, 125670, Note_on_c, 9, 45, 100
5, 125690, Note_on_c, 9, 45, 0
5, 125700, Note_on_c, 9, 45, 100
5, 125780, Note_on_c, 9, 45, 0
5, 126780, Note_on_c, 9, 50, 100
5, 126860, Note_on_c, 9, 50, 0
5, 127020, Note_on_c, 9, 45, 100
5, 127100, Note_on_c, 9, 45, 0
5, 127260, Note_on_c, 9, 50, 100
5, 127340, Note_on_c, 9, 50, 0
5, 127500, Note_on_c, 9, 45, 100
5, 127580, Note_on_c, 9, 45, 0
5, 127740, Note_on_c, 9, 50, 100
5, 127820, Note_on_c, 9, 50, 0
5, 128400, Note_on_c, 9, 45, 100
5, 128440, Note_on_c, 9, 45, 0
5, 128460, Note_on_c, 9, 50, 100
5, 128500, Note_on_c, 9, 50, 0
5, 128520, Note_on_c, 9, 50, 100
5, 128540, Note_on_c, 9, 50, 0
5, 128550, Note_on_c, 9, 50, 100
5, 128570, Note_on_c, 9, 50, 0
5, 128580, Note_on_c, 9, 50, 100
5, 128620, Note_on_c, 9, 50, 0
5, 128640, Note_on_c, 9, 50, 100
5, 128660, Note_on_c, 9, 50, 0
5, 128670, Note_on_c, 9, 50, 100
5, 128690, Note_on_c, 9, 50, 0
5, 128700, Note_on_c, 9, 45, 100
5, 128780, Note_on_c, 9, 45, 0
5, 129480, Note_on_c, 9, 45, 100
5, 129520, Note_on_c, 9, 45, 0
5, 129540, Note_on_c, 9, 50, 100
5, 129580, Note_on_c, 9, 50, 0
5, 129720, Note_on_c, 9, 50, 100
5, 129760, Note_on_c, 9, 50, 0
5, 129780, Note_on_c, 9, 45, 100
5, 129820, Note_on_c, 9, 45, 0
5, 132180, Note_on_c, 9, 50, 100
5, 132238, Note_on_c, 9, 50, 0
5, 132240, Note_on_c, 9, 50, 100
5, 132298, Note_on_c, 9, 50, 0
5, 132300, Note_on_c, 9, 50, 100
5, 132418, Note_on_c, 9, 50, 0
5, 132540, Note_on_c, 9, 45, 100
5, 132778, Note_on_c, 9, 45, 0
5, 132780, Note_on_c, 9, 50, 100
5, 133018, Note_on_c, 9, 50, 0
5, 133020, Note_on_c, 9, 43, 100
5, 133498, Note_on_c, 9, 43, 0
5, 133500, Note_on_c, 9, 50, 100
5, 133513, Note_on_c, 9, 50, 100
5, 133514, Note_on_c, 9, 50, 0
5, 133528, Note_on_c, 9, 50, 0
5, 133530, Note_on_c, 9, 50, 100
5, 133545, Note_on_c, 9, 50, 0
5, 133545, Note_on_c, 9, 50, 100
5, 133560, Note_on_c, 9, 50, 0
5, 133560, Note_on_c, 9, 50, 100
5, 133575, Note_on_c, 9, 50, 0
5, 133575, Note_on_c, 9, 50, 100
5, 133590, Note_on_c, 9, 50, 0
5, 133590, Note_on_c, 9, 50, 100
5, 133605, Note_on_c, 9, 50, 0
5, 133605, Note_on_c, 9, 50, 100
5, 133620, Note_on_c, 9, 50, 0
5, 133620, Note_on_c, 9, 50, 100
5, 133633, Note_on_c, 9, 50, 100
5, 133634, Note_on_c, 9, 50, 0
5, 133648, Note_on_c, 9, 50, 0
5, 133650, Note_on_c, 9, 50, 100
5, 133665, Note_on_c, 9, 50, 0
5, 133665, Note_on_c, 9, 50, 100
5, 133680, Note_on_c, 9, 50, 0
5, 133680, Note_on_c, 9, 50, 100
5, 133695, Note_on_c, 9, 50, 0
5, 133695, Note_on_c, 9, 50, 100
5, 133710, Note_on_c, 9, 50, 0
5, 133710, Note_on_c, 9, 50, 100
5, 133725, Note_on_c, 9, 50, 0
5, 133725, Note_on_c, 9, 50, 100
5, 133740, Note_on_c, 9, 50, 0
5, 133740, Note_on_c, 9, 50, 100
5, 133740, Note_on_c, 9, 50, 100
5, 133755, Note_on_c, 9, 50, 0
5, 133755, Note_on_c, 9, 50, 0
5, 133770, Note_on_c, 9, 50, 100
5, 133800, Note_on_c, 9, 50, 0
5, 133800, Note_on_c, 9, 50, 100
5, 133830, Note_on_c, 9, 50, 0
5, 133830, Note_on_c, 9, 50, 100
5, 133860, Note_on_c, 9, 50, 0
5, 133860, Note_on_c, 9, 50, 100
5, 133980, Note_on_c, 9, 50, 0
5, 226380, Note_on_c, 9, 50, 100
5, 226500, Note_on_c, 9, 50, 0
5, 226500, Note_on_c, 9, 50, 100
5, 226560, Note_on_c, 9, 50, 0
5, 226560, Note_on_c, 9, 50, 100
5, 226620, Note_on_c, 9, 50, 0
5, 226620, Note_on_c, 9, 50, 100
5, 226740, Note_on_c, 9, 50, 0
5, 226740, Note_on_c, 9, 50, 100
5, 226860, Note_on_c, 9, 50, 0
5, 226860, Note_on_c, 9, 50, 100
5, 226980, Note_on_c, 9, 50, 0
5, 227460, Note_on_c, 9, 45, 100
5, 227520, Note_on_c, 9, 45, 0
5, 227520, Note_on_c, 9, 45, 100
5, 227580, Note_on_c, 9, 45, 0
5, 227580, Note_on_c, 9, 50, 100
5, 227700, Note_on_c, 9, 50, 0
5, 227700, Note_on_c, 9, 50, 100
5, 227820, Note_on_c, 9, 50, 0
5, 227820, Note_on_c, 9, 50, 100
5, 227940, Note_on_c, 9, 50, 0
5, 227940, Note_on_c, 9, 50, 100
5, 228000, Note_on_c, 9, 50, 0
5, 228000, Note_on_c, 9, 50, 100
5, 228060, Note_on_c, 9, 50, 0
5, 228060, Note_on_c, 9, 50, 100
5, 228180, Note_on_c, 9, 50, 0
5, 228180, Note_on_c, 9, 50, 100
5, 228300, Note_on_c, 9, 50, 0
5, 228300, Note_on_c, 9, 43, 100
5, 228780, Note_on_c, 9, 43, 0
5, 228780, Note_on_c, 9, 50, 90
5, 228899, Note_on_c, 9, 50, 0
5, 229140, Note_on_c, 9, 50, 90
5, 229259, Note_on_c, 9, 50, 0
5, 229500, Note_on_c, 9, 50, 90
5, 229619, Note_on_c, 9, 50, 0
5, 230220, Note_on_c, 9, 50, 90
5, 230339, Note_on_c, 9, 50, 0
5, 230580, Note_on_c, 9, 50, 90
5, 230699, Note_on_c, 9, 50, 0
5, 230940, Note_on_c, 9, 50, 90
5, 231059, Note_on_c, 9, 50, 0
5, 231720, Note_on_c, 9, 50, 90
5, 231749, Note_on_c, 9, 50, 0
5, 231750, Note_on_c, 9, 50, 90
5, 231779, Note_on_c, 9, 50, 0
5, 231780, Note_on_c, 9, 50, 90
5, 231839, Note_on_c, 9, 50, 0
5, 231840, Note_on_c, 9, 50, 90
5, 231899, Note_on_c, 9, 50, 0
5, 231900, Note_on_c, 9, 45, 90
5, 231959, Note_on_c, 9, 45, 0
5, 231960, Note_on_c, 9, 45, 90
5, 232019, Note_on_c, 9, 45, 0
5, 232020, Note_on_c, 9, 50, 90
5, 232079, Note_on_c, 9, 50, 0
5, 234540, Note_on_c, 9, 50, 90
5, 234659, Note_on_c, 9, 50, 0
5, 234900, Note_on_c, 9, 50, 90
5, 235019, Note_on_c, 9, 50, 0
5, 235260, Note_on_c, 9, 50, 90
5, 235379, Note_on_c, 9, 50, 0
5, 235440, Note_on_c, 9, 50, 90
5, 235499, Note_on_c, 9, 50, 0
5, 235500, Note_on_c, 9, 45, 90
5, 235559, Note_on_c, 9, 45, 0
5, 235560, Note_on_c, 9, 45, 90
5, 235619, Note_on_c, 9, 45, 0
5, 235620, Note_on_c, 9, 50, 90
5, 235739, Note_on_c, 9, 50, 0
5, 235980, Note_on_c, 9, 50, 90
5, 236099, Note_on_c, 9, 50, 0
5, 236160, Note_on_c, 9, 50, 90
5, 236219, Note_on_c, 9, 50, 0
5, 236220, Note_on_c, 9, 45, 90
5, 236279, Note_on_c, 9, 45, 0
5, 236280, Note_on_c, 9, 45, 90
5, 236339, Note_on_c, 9, 45, 0
5, 236340, Note_on_c, 9, 50, 90
5, 236399, Note_on_c, 9, 50, 0
5, 236400, Note_on_c, 9, 50, 90
5, 236429, Note_on_c, 9, 50, 0
5, 236430, Note_on_c, 9, 50, 90
5, 236459, Note_on_c, 9, 50, 0
5, 236460, Note_on_c, 9, 50, 90
5, 236519, Note_on_c, 9, 50, 0
5, 236520, Note_on_c, 9, 50, 90
5, 236579, Note_on_c, 9, 50, 0
5, 236580, Note_on_c, 9, 45, 90
5, 236639, Note_on_c, 9, 45, 0
5, 236640, Note_on_c, 9, 45, 90
5, 236699, Note_on_c, 9, 45, 0
5, 236700, Note_on_c, 9, 50, 90
5, 236819, Note_on_c, 9, 50, 0
5, 236819, End_track
6, 0, Start_track
6, 0, MIDI_port, 0
6, 0, Title_t, "flauta I"
6, 0, Program_c, 2, 73
6, 0, Control_c, 2, 7, 127
6, 0, Control_c, 2, 10, 8
6, 0, Note_on_c, 2, 86, 100
6, 897, Note_on_c, 2, 86, 0
6, 900, Note_on_c, 2, 85, 100
6, 927, Note_on_c, 2, 85, 0
6, 930, Note_on_c, 2, 83, 100
6, 957, Note_on_c, 2, 83, 0
6, 960, Note_on_c, 2, 81, 100
6, 987, Note_on_c, 2, 81, 0
6, 990, Note_on_c, 2, 83, 100
6, 1017, Note_on_c, 2, 83, 0
6, 1020, Note_on_c, 2, 81, 100
6, 1047, Note_on_c, 2, 81, 0
6, 1050, Note_on_c, 2, 79, 100
6, 1077, Note_on_c, 2, 79, 0
6, 1080, Note_on_c, 2, 78, 100
6, 1107, Note_on_c, 2, 78, 0
6, 1110, Note_on_c, 2, 79, 100
6, 1137, Note_on_c, 2, 79, 0
6, 1140, Note_on_c, 2, 78, 100
6, 1167, Note_on_c, 2, 78, 0
6, 1170, Note_on_c, 2, 76, 100
6, 1197, Note_on_c, 2, 76, 0
6, 1200, Note_on_c, 2, 74, 100
6, 1227, Note_on_c, 2, 74, 0
6, 1230, Note_on_c, 2, 86, 100
6, 1257, Note_on_c, 2, 86, 0
6, 1260, Note_on_c, 2, 85, 100
6, 1287, Note_on_c, 2, 85, 0
6, 1290, Note_on_c, 2, 83, 100
6, 1317, Note_on_c, 2, 83, 0
6, 1320, Note_on_c, 2, 81, 100
6, 1347, Note_on_c, 2, 81, 0
6, 1350, Note_on_c, 2, 83, 100
6, 1377, Note_on_c, 2, 83, 0
6, 1380, Note_on_c, 2, 81, 100
6, 1407, Note_on_c, 2, 81, 0
6, 1410, Note_on_c, 2, 79, 100
6, 1437, Note_on_c, 2, 79, 0
6, 1440, Note_on_c, 2, 78, 100
6, 1467, Note_on_c, 2, 78, 0
6, 1470, Note_on_c, 2, 79, 100
6, 1497, Note_on_c, 2, 79, 0
6, 1500, Note_on_c, 2, 78, 100
6, 1527, Note_on_c, 2, 78, 0
6, 1530, Note_on_c, 2, 76, 100
6, 1557, Note_on_c, 2, 76, 0
6, 1560, Note_on_c, 2, 74, 100
6, 1587, Note_on_c, 2, 74, 0
6, 1590, Note_on_c, 2, 76, 100
6, 1617, Note_on_c, 2, 76, 0
6, 1620, Note_on_c, 2, 78, 100
6, 1647, Note_on_c, 2, 78, 0
6, 1650, Note_on_c, 2, 79, 100
6, 1677, Note_on_c, 2, 79, 0
6, 1680, Note_on_c, 2, 78, 100
6, 1707, Note_on_c, 2, 78, 0
6, 1710, Note_on_c, 2, 76, 100
6, 1737, Note_on_c, 2, 76, 0
6, 1740, Note_on_c, 2, 74, 100
6, 1767, Note_on_c, 2, 74, 0
6, 1770, Note_on_c, 2, 73, 100
6, 1797, Note_on_c, 2, 73, 0
6, 1800, Note_on_c, 2, 71, 100
6, 1827, Note_on_c, 2, 71, 0
6, 1830, Note_on_c, 2, 78, 100
6, 1857, Note_on_c, 2, 78, 0
6, 1860, Note_on_c, 2, 76, 100
6, 1887, Note_on_c, 2, 76, 0
6, 1890, Note_on_c, 2, 74, 100
6, 1917, Note_on_c, 2, 74, 0
6, 1920, Note_on_c, 2, 73, 100
6, 1947, Note_on_c, 2, 73, 0
6, 1950, Note_on_c, 2, 74, 100
6, 1977, Note_on_c, 2, 74, 0
6, 1980, Note_on_c, 2, 76, 100
6, 2007, Note_on_c, 2, 76, 0
6, 2010, Note_on_c, 2, 78, 100
6, 2037, Note_on_c, 2, 78, 0
6, 2040, Note_on_c, 2, 76, 100
6, 2067, Note_on_c, 2, 76, 0
6, 2070, Note_on_c, 2, 74, 100
6, 2097, Note_on_c, 2, 74, 0
6, 2100, Note_on_c, 2, 73, 100
6, 2127, Note_on_c, 2, 73, 0
6, 2130, Note_on_c, 2, 71, 100
6, 2157, Note_on_c, 2, 71, 0
6, 2160, Note_on_c, 2, 69, 100
6, 2200, Note_on_c, 2, 69, 0
6, 2220, Note_on_c, 2, 81, 100
6, 2240, Note_on_c, 2, 81, 0
6, 2250, Note_on_c, 2, 83, 100
6, 2270, Note_on_c, 2, 83, 0
6, 2280, Note_on_c, 2, 81, 100
6, 2300, Note_on_c, 2, 81, 0
6, 2310, Note_on_c, 2, 79, 100
6, 2330, Note_on_c, 2, 79, 0
6, 2340, Note_on_c, 2, 78, 100
6, 2360, Note_on_c, 2, 78, 0
6, 2370, Note_on_c, 2, 76, 100
6, 2390, Note_on_c, 2, 76, 0
6, 2400, Note_on_c, 2, 74, 100
6, 2420, Note_on_c, 2, 74, 0
6, 2430, Note_on_c, 2, 73, 100
6, 2450, Note_on_c, 2, 73, 0
6, 2460, Note_on_c, 2, 71, 100
6, 2480, Note_on_c, 2, 71, 0
6, 2490, Note_on_c, 2, 73, 100
6, 2510, Note_on_c, 2, 73, 0
6, 2520, Note_on_c, 2, 74, 100
6, 2540, Note_on_c, 2, 74, 0
6, 2550, Note_on_c, 2, 73, 100
6, 2570, Note_on_c, 2, 73, 0
6, 2580, Note_on_c, 2, 74, 100
6, 2600, Note_on_c, 2, 74, 0
6, 2610, Note_on_c, 2, 76, 100
6, 2630, Note_on_c, 2, 76, 0
6, 2640, Note_on_c, 2, 74, 100
6, 2660, Note_on_c, 2, 74, 0
6, 2670, Note_on_c, 2, 73, 100
6, 2690, Note_on_c, 2, 73, 0
6, 2700, Note_on_c, 2, 71, 100
6, 2720, Note_on_c, 2, 71, 0
6, 2730, Note_on_c, 2, 69, 100
6, 2750, Note_on_c, 2, 69, 0
6, 2760, Note_on_c, 2, 68, 100
6, 2780, Note_on_c, 2, 68, 0
6, 2790, Note_on_c, 2, 66, 100
6, 2810, Note_on_c, 2, 66, 0
6, 2820, Note_on_c, 2, 64, 100
6, 2840, Note_on_c, 2, 64, 0
6, 2850, Note_on_c, 2, 66, 100
6, 2870, Note_on_c, 2, 66, 0
6, 2880, Note_on_c, 2, 68, 100
6, 2920, Note_on_c, 2, 68, 0
6, 2940, Note_on_c, 2, 71, 100
6, 2960, Note_on_c, 2, 71, 0
6, 2970, Note_on_c, 2, 73, 100
6, 2990, Note_on_c, 2, 73, 0
6, 3000, Note_on_c, 2, 74, 100
6, 3020, Note_on_c, 2, 74, 0
6, 3030, Note_on_c, 2, 73, 100
6, 3050, Note_on_c, 2, 73, 0
6, 3060, Note_on_c, 2, 71, 100
6, 3080, Note_on_c, 2, 71, 0
6, 3090, Note_on_c, 2, 69, 100
6, 3110, Note_on_c, 2, 69, 0
6, 3120, Note_on_c, 2, 76, 100
6, 3280, Note_on_c, 2, 76, 0
6, 3300, Note_on_c, 2, 78, 100
6, 3320, Note_on_c, 2, 78, 0
6, 3330, Note_on_c, 2, 76, 100
6, 3350, Note_on_c, 2, 76, 0
6, 3360, Note_on_c, 2, 74, 100
6, 3380, Note_on_c, 2, 74, 0
6, 3390, Note_on_c, 2, 73, 100
6, 3410, Note_on_c, 2, 73, 0
6, 3420, Note_on_c, 2, 71, 100
6, 3440, Note_on_c, 2, 71, 0
6, 3450, Note_on_c, 2, 69, 100
6, 3470, Note_on_c, 2, 69, 0
6, 3480, Note_on_c, 2, 81, 100
6, 3640, Note_on_c, 2, 81, 0
6, 3660, Note_on_c, 2, 66, 100
6, 3700, Note_on_c, 2, 66, 0
6, 3720, Note_on_c, 2, 71, 100
6, 3760, Note_on_c, 2, 71, 0
6, 3780, Note_on_c, 2, 74, 100
6, 3820, Note_on_c, 2, 74, 0
6, 3840, Note_on_c, 2, 74, 100
6, 3880, Note_on_c, 2, 74, 0
6, 3900, Note_on_c, 2, 73, 100
6, 3920, Note_on_c, 2, 73, 0
6, 3930, Note_on_c, 2, 71, 100
6, 3950, Note_on_c, 2, 71, 0
6, 3960, Note_on_c, 2, 80, 100
6, 4000, Note_on_c, 2, 80, 0
6, 4020, Note_on_c, 2, 81, 100
6, 4060, Note_on_c, 2, 81, 0
6, 4080, Note_on_c, 2, 76, 100
6, 4120, Note_on_c, 2, 76, 0
6, 4140, Note_on_c, 2, 81, 100
6, 4180, Note_on_c, 2, 81, 0
6, 4200, Note_on_c, 2, 71, 100
6, 4240, Note_on_c, 2, 71, 0
6, 4260, Note_on_c, 2, 80, 100
6, 4300, Note_on_c, 2, 80, 0
6, 4320, Note_on_c, 2, 81, 100
6, 4400, Note_on_c, 2, 81, 0
6, 4500, Note_on_c, 2, 81, 100
6, 4520, Note_on_c, 2, 81, 0
6, 4530, Note_on_c, 2, 83, 100
6, 4550, Note_on_c, 2, 83, 0
6, 4560, Note_on_c, 2, 85, 100
6, 4580, Note_on_c, 2, 85, 0
6, 4590, Note_on_c, 2, 86, 100
6, 4610, Note_on_c, 2, 86, 0
6, 4620, Note_on_c, 2, 85, 100
6, 4640, Note_on_c, 2, 85, 0
6, 4650, Note_on_c, 2, 86, 100
6, 4670, Note_on_c, 2, 86, 0
6, 4680, Note_on_c, 2, 85, 100
6, 4740, Note_on_c, 2, 85, 0
6, 4770, Note_on_c, 2, 86, 100
6, 4790, Note_on_c, 2, 86, 0
6, 4800, Note_on_c, 2, 85, 100
6, 4820, Note_on_c, 2, 85, 0
6, 4830, Note_on_c, 2, 83, 100
6, 4850, Note_on_c, 2, 83, 0
6, 4860, Note_on_c, 2, 81, 100
6, 4880, Note_on_c, 2, 81, 0
6, 4890, Note_on_c, 2, 83, 100
6, 4910, Note_on_c, 2, 83, 0
6, 4920, Note_on_c, 2, 85, 100
6, 4940, Note_on_c, 2, 85, 0
6, 4950, Note_on_c, 2, 86, 100
6, 4970, Note_on_c, 2, 86, 0
6, 4980, Note_on_c, 2, 85, 100
6, 5000, Note_on_c, 2, 85, 0
6, 5010, Note_on_c, 2, 86, 100
6, 5030, Note_on_c, 2, 86, 0
6, 5040, Note_on_c, 2, 85, 100
6, 5060, Note_on_c, 2, 85, 0
6, 5070, Note_on_c, 2, 81, 100
6, 5090, Note_on_c, 2, 81, 0
6, 5100, Note_on_c, 2, 80, 100
6, 5120, Note_on_c, 2, 80, 0
6, 5130, Note_on_c, 2, 78, 100
6, 5150, Note_on_c, 2, 78, 0
6, 5160, Note_on_c, 2, 76, 100
6, 5180, Note_on_c, 2, 76, 0
6, 5190, Note_on_c, 2, 85, 100
6, 5210, Note_on_c, 2, 85, 0
6, 5220, Note_on_c, 2, 83, 100
6, 5240, Note_on_c, 2, 83, 0
6, 5250, Note_on_c, 2, 81, 100
6, 5270, Note_on_c, 2, 81, 0
6, 5280, Note_on_c, 2, 79, 100
6, 5300, Note_on_c, 2, 79, 0
6, 5310, Note_on_c, 2, 78, 100
6, 5330, Note_on_c, 2, 78, 0
6, 5340, Note_on_c, 2, 76, 100
6, 5360, Note_on_c, 2, 76, 0
6, 5370, Note_on_c, 2, 74, 100
6, 5390, Note_on_c, 2, 74, 0
6, 5400, Note_on_c, 2, 73, 100
6, 5420, Note_on_c, 2, 73, 0
6, 5430, Note_on_c, 2, 74, 100
6, 5450, Note_on_c, 2, 74, 0
6, 5460, Note_on_c, 2, 73, 100
6, 5480, Note_on_c, 2, 73, 0
6, 5490, Note_on_c, 2, 71, 100
6, 5510, Note_on_c, 2, 71, 0
6, 5520, Note_on_c, 2, 69, 100
6, 5540, Note_on_c, 2, 69, 0
6, 5550, Note_on_c, 2, 85, 100
6, 5570, Note_on_c, 2, 85, 0
6, 5580, Note_on_c, 2, 83, 100
6, 5600, Note_on_c, 2, 83, 0
6, 5610, Note_on_c, 2, 81, 100
6, 5630, Note_on_c, 2, 81, 0
6, 5640, Note_on_c, 2, 80, 100
6, 5660, Note_on_c, 2, 80, 0
6, 5670, Note_on_c, 2, 78, 100
6, 5690, Note_on_c, 2, 78, 0
6, 5700, Note_on_c, 2, 76, 100
6, 5720, Note_on_c, 2, 76, 0
6, 5730, Note_on_c, 2, 74, 100
6, 5750, Note_on_c, 2, 74, 0
6, 5760, Note_on_c, 2, 73, 100
6, 5780, Note_on_c, 2, 73, 0
6, 5790, Note_on_c, 2, 69, 100
6, 5810, Note_on_c, 2, 69, 0
6, 5820, Note_on_c, 2, 73, 100
6, 5840, Note_on_c, 2, 73, 0
6, 5850, Note_on_c, 2, 74, 100
6, 5870, Note_on_c, 2, 74, 0
6, 5880, Note_on_c, 2, 81, 100
6, 5920, Note_on_c, 2, 81, 0
6, 5940, Note_on_c, 2, 85, 100
6, 5980, Note_on_c, 2, 85, 0
6, 6000, Note_on_c, 2, 85, 100
6, 6040, Note_on_c, 2, 85, 0
6, 6060, Note_on_c, 2, 81, 100
6, 6100, Note_on_c, 2, 81, 0
6, 6120, Note_on_c, 2, 78, 100
6, 6140, Note_on_c, 2, 78, 0
6, 6150, Note_on_c, 2, 69, 100
6, 6170, Note_on_c, 2, 69, 0
6, 6180, Note_on_c, 2, 74, 100
6, 6200, Note_on_c, 2, 74, 0
6, 6210, Note_on_c, 2, 78, 100
6, 6230, Note_on_c, 2, 78, 0
6, 6240, Note_on_c, 2, 81, 100
6, 6280, Note_on_c, 2, 81, 0
6, 6300, Note_on_c, 2, 86, 100
6, 6340, Note_on_c, 2, 86, 0
6, 6360, Note_on_c, 2, 86, 100
6, 6400, Note_on_c, 2, 86, 0
6, 6420, Note_on_c, 2, 81, 100
6, 6460, Note_on_c, 2, 81, 0
6, 6480, Note_on_c, 2, 83, 100
6, 6520, Note_on_c, 2, 83, 0
6, 6540, Note_on_c, 2, 79, 100
6, 6580, Note_on_c, 2, 79, 0
6, 6600, Note_on_c, 2, 76, 100
6, 6640, Note_on_c, 2, 76, 0
6, 6660, Note_on_c, 2, 71, 100
6, 6700, Note_on_c, 2, 71, 0
6, 6720, Note_on_c, 2, 76, 100
6, 6760, Note_on_c, 2, 76, 0
6, 6780, Note_on_c, 2, 79, 100
6, 6880, Note_on_c, 2, 79, 0
6, 6900, Note_on_c, 2, 76, 100
6, 6940, Note_on_c, 2, 76, 0
6, 6960, Note_on_c, 2, 81, 100
6, 7000, Note_on_c, 2, 81, 0
6, 7020, Note_on_c, 2, 85, 100
6, 7060, Note_on_c, 2, 85, 0
6, 7080, Note_on_c, 2, 85, 100
6, 7120, Note_on_c, 2, 85, 0
6, 7140, Note_on_c, 2, 81, 100
6, 7180, Note_on_c, 2, 81, 0
6, 7200, Note_on_c, 2, 86, 100
6, 7240, Note_on_c, 2, 86, 0
6, 7260, Note_on_c, 2, 83, 100
6, 7300, Note_on_c, 2, 83, 0
6, 7320, Note_on_c, 2, 80, 100
6, 7360, Note_on_c, 2, 80, 0
6, 7380, Note_on_c, 2, 74, 100
6, 7420, Note_on_c, 2, 74, 0
6, 7440, Note_on_c, 2, 74, 100
6, 7480, Note_on_c, 2, 74, 0
6, 7500, Note_on_c, 2, 81, 100
6, 7540, Note_on_c, 2, 81, 0
6, 7560, Note_on_c, 2, 81, 100
6, 7600, Note_on_c, 2, 81, 0
6, 7620, Note_on_c, 2, 73, 100
6, 7660, Note_on_c, 2, 73, 0
6, 7680, Note_on_c, 2, 76, 100
6, 7720, Note_on_c, 2, 76, 0
6, 7740, Note_on_c, 2, 81, 100
6, 7780, Note_on_c, 2, 81, 0
6, 7800, Note_on_c, 2, 81, 100
6, 8680, Note_on_c, 2, 81, 0
6, 8700, Note_on_c, 2, 69, 100
6, 8740, Note_on_c, 2, 69, 0
6, 8760, Note_on_c, 2, 74, 100
6, 8800, Note_on_c, 2, 74, 0
6, 8820, Note_on_c, 2, 78, 100
6, 8860, Note_on_c, 2, 78, 0
6, 8880, Note_on_c, 2, 78, 100
6, 8920, Note_on_c, 2, 78, 0
6, 8940, Note_on_c, 2, 74, 100
6, 8980, Note_on_c, 2, 74, 0
6, 9000, Note_on_c, 2, 69, 100
6, 9040, Note_on_c, 2, 69, 0
6, 9060, Note_on_c, 2, 74, 100
6, 9100, Note_on_c, 2, 74, 0
6, 9120, Note_on_c, 2, 78, 100
6, 9160, Note_on_c, 2, 78, 0
6, 9180, Note_on_c, 2, 81, 100
6, 9220, Note_on_c, 2, 81, 0
6, 9240, Note_on_c, 2, 81, 100
6, 9280, Note_on_c, 2, 81, 0
6, 9300, Note_on_c, 2, 78, 100
6, 9340, Note_on_c, 2, 78, 0
6, 9360, Note_on_c, 2, 74, 100
6, 9440, Note_on_c, 2, 74, 0
6, 9780, Note_on_c, 2, 74, 100
6, 9800, Note_on_c, 2, 74, 0
6, 9810, Note_on_c, 2, 76, 100
6, 9830, Note_on_c, 2, 76, 0
6, 9840, Note_on_c, 2, 78, 100
6, 9860, Note_on_c, 2, 78, 0
6, 9870, Note_on_c, 2, 79, 100
6, 9890, Note_on_c, 2, 79, 0
6, 9900, Note_on_c, 2, 81, 100
6, 9940, Note_on_c, 2, 81, 0
6, 9960, Note_on_c, 2, 81, 100
6, 9980, Note_on_c, 2, 81, 0
6, 9990, Note_on_c, 2, 79, 100
6, 10010, Note_on_c, 2, 79, 0
6, 10020, Note_on_c, 2, 78, 100
6, 10040, Note_on_c, 2, 78, 0
6, 10050, Note_on_c, 2, 76, 100
6, 10070, Note_on_c, 2, 76, 0
6, 10080, Note_on_c, 2, 74, 100
6, 10100, Note_on_c, 2, 74, 0
6, 10110, Note_on_c, 2, 73, 100
6, 10130, Note_on_c, 2, 73, 0
6, 10140, Note_on_c, 2, 74, 100
6, 10160, Note_on_c, 2, 74, 0
6, 10170, Note_on_c, 2, 76, 100
6, 10190, Note_on_c, 2, 76, 0
6, 10200, Note_on_c, 2, 78, 100
6, 10220, Note_on_c, 2, 78, 0
6, 10230, Note_on_c, 2, 79, 100
6, 10250, Note_on_c, 2, 79, 0
6, 10260, Note_on_c, 2, 81, 100
6, 10300, Note_on_c, 2, 81, 0
6, 10320, Note_on_c, 2, 81, 100
6, 10340, Note_on_c, 2, 81, 0
6, 10350, Note_on_c, 2, 79, 100
6, 10370, Note_on_c, 2, 79, 0
6, 10380, Note_on_c, 2, 78, 100
6, 10400, Note_on_c, 2, 78, 0
6, 10410, Note_on_c, 2, 76, 100
6, 10430, Note_on_c, 2, 76, 0
6, 10440, Note_on_c, 2, 78, 100
6, 10460, Note_on_c, 2, 78, 0
6, 10470, Note_on_c, 2, 76, 100
6, 10490, Note_on_c, 2, 76, 0
6, 10500, Note_on_c, 2, 78, 100
6, 10520, Note_on_c, 2, 78, 0
6, 10530, Note_on_c, 2, 79, 100
6, 10550, Note_on_c, 2, 79, 0
6, 10560, Note_on_c, 2, 81, 100
6, 10600, Note_on_c, 2, 81, 0
6, 10620, Note_on_c, 2, 83, 100
6, 10640, Note_on_c, 2, 83, 0
6, 10650, Note_on_c, 2, 81, 100
6, 10670, Note_on_c, 2, 81, 0
6, 10680, Note_on_c, 2, 79, 100
6, 10700, Note_on_c, 2, 79, 0
6, 10710, Note_on_c, 2, 78, 100
6, 10730, Note_on_c, 2, 78, 0
6, 10740, Note_on_c, 2, 76, 100
6, 10760, Note_on_c, 2, 76, 0
6, 10770, Note_on_c, 2, 74, 100
6, 10790, Note_on_c, 2, 74, 0
6, 10800, Note_on_c, 2, 74, 100
6, 10880, Note_on_c, 2, 74, 0
6, 11520, Note_on_c, 2, 86, 100
6, 12297, Note_on_c, 2, 86, 0
6, 13020, Note_on_c, 2, 78, 100
6, 13047, Note_on_c, 2, 78, 0
6, 13050, Note_on_c, 2, 76, 100
6, 13077, Note_on_c, 2, 76, 0
6, 13080, Note_on_c, 2, 74, 100
6, 13107, Note_on_c, 2, 74, 0
6, 13110, Note_on_c, 2, 76, 100
6, 13137, Note_on_c, 2, 76, 0
6, 13140, Note_on_c, 2, 78, 100
6, 13167, Note_on_c, 2, 78, 0
6, 13170, Note_on_c, 2, 79, 100
6, 13197, Note_on_c, 2, 79, 0
6, 13200, Note_on_c, 2, 78, 100
6, 13227, Note_on_c, 2, 78, 0
6, 13230, Note_on_c, 2, 76, 100
6, 13257, Note_on_c, 2, 76, 0
6, 13260, Note_on_c, 2, 74, 100
6, 13287, Note_on_c, 2, 74, 0
6, 13290, Note_on_c, 2, 73, 100
6, 13317, Note_on_c, 2, 73, 0
6, 13320, Note_on_c, 2, 71, 100
6, 13347, Note_on_c, 2, 71, 0
6, 13350, Note_on_c, 2, 78, 100
6, 13377, Note_on_c, 2, 78, 0
6, 13380, Note_on_c, 2, 76, 100
6, 13407, Note_on_c, 2, 76, 0
6, 13410, Note_on_c, 2, 74, 100
6, 13437, Note_on_c, 2, 74, 0
6, 13440, Note_on_c, 2, 73, 100
6, 13467, Note_on_c, 2, 73, 0
6, 13470, Note_on_c, 2, 74, 100
6, 13497, Note_on_c, 2, 74, 0
6, 13500, Note_on_c, 2, 76, 100
6, 13527, Note_on_c, 2, 76, 0
6, 13530, Note_on_c, 2, 78, 100
6, 13557, Note_on_c, 2, 78, 0
6, 13560, Note_on_c, 2, 76, 100
6, 13587, Note_on_c, 2, 76, 0
6, 13590, Note_on_c, 2, 74, 100
6, 13617, Note_on_c, 2, 74, 0
6, 13620, Note_on_c, 2, 73, 100
6, 13647, Note_on_c, 2, 73, 0
6, 13650, Note_on_c, 2, 71, 100
6, 13677, Note_on_c, 2, 71, 0
6, 13680, Note_on_c, 2, 69, 100
6, 13720, Note_on_c, 2, 69, 0
6, 13740, Note_on_c, 2, 81, 100
6, 13760, Note_on_c, 2, 81, 0
6, 13770, Note_on_c, 2, 83, 100
6, 13790, Note_on_c, 2, 83, 0
6, 13800, Note_on_c, 2, 81, 100
6, 13820, Note_on_c, 2, 81, 0
6, 13830, Note_on_c, 2, 79, 100
6, 13850, Note_on_c, 2, 79, 0
6, 13860, Note_on_c, 2, 78, 100
6, 13880, Note_on_c, 2, 78, 0
6, 13890, Note_on_c, 2, 76, 100
6, 13910, Note_on_c, 2, 76, 0
6, 13920, Note_on_c, 2, 74, 100
6, 13940, Note_on_c, 2, 74, 0
6, 13950, Note_on_c, 2, 73, 100
6, 13970, Note_on_c, 2, 73, 0
6, 13980, Note_on_c, 2, 71, 100
6, 14000, Note_on_c, 2, 71, 0
6, 14010, Note_on_c, 2, 73, 100
6, 14030, Note_on_c, 2, 73, 0
6, 14040, Note_on_c, 2, 74, 100
6, 14060, Note_on_c, 2, 74, 0
6, 14070, Note_on_c, 2, 73, 100
6, 14090, Note_on_c, 2, 73, 0
6, 14100, Note_on_c, 2, 74, 100
6, 14120, Note_on_c, 2, 74, 0
6, 14130, Note_on_c, 2, 76, 100
6, 14150, Note_on_c, 2, 76, 0
6, 14160, Note_on_c, 2, 74, 100
6, 14180, Note_on_c, 2, 74, 0
6, 14190, Note_on_c, 2, 73, 100
6, 14210, Note_on_c, 2, 73, 0
6, 14220, Note_on_c, 2, 71, 100
6, 14240, Note_on_c, 2, 71, 0
6, 14250, Note_on_c, 2, 69, 100
6, 14270, Note_on_c, 2, 69, 0
6, 14280, Note_on_c, 2, 68, 100
6, 14300, Note_on_c, 2, 68, 0
6, 14310, Note_on_c, 2, 66, 100
6, 14330, Note_on_c, 2, 66, 0
6, 14340, Note_on_c, 2, 64, 100
6, 14360, Note_on_c, 2, 64, 0
6, 14370, Note_on_c, 2, 66, 100
6, 14390, Note_on_c, 2, 66, 0
6, 14400, Note_on_c, 2, 68, 100
6, 14440, Note_on_c, 2, 68, 0
6, 14460, Note_on_c, 2, 71, 100
6, 14480, Note_on_c, 2, 71, 0
6, 14490, Note_on_c, 2, 73, 100
6, 14510, Note_on_c, 2, 73, 0
6, 14520, Note_on_c, 2, 74, 100
6, 14540, Note_on_c, 2, 74, 0
6, 14550, Note_on_c, 2, 73, 100
6, 14570, Note_on_c, 2, 73, 0
6, 14580, Note_on_c, 2, 71, 100
6, 14600, Note_on_c, 2, 71, 0
6, 14610, Note_on_c, 2, 69, 100
6, 14630, Note_on_c, 2, 69, 0
6, 14640, Note_on_c, 2, 76, 100
6, 14800, Note_on_c, 2, 76, 0
6, 14820, Note_on_c, 2, 78, 100
6, 14840, Note_on_c, 2, 78, 0
6, 14850, Note_on_c, 2, 76, 100
6, 14870, Note_on_c, 2, 76, 0
6, 14880, Note_on_c, 2, 74, 100
6, 14900, Note_on_c, 2, 74, 0
6, 14910, Note_on_c, 2, 73, 100
6, 14930, Note_on_c, 2, 73, 0
6, 14940, Note_on_c, 2, 71, 100
6, 14960, Note_on_c, 2, 71, 0
6, 14970, Note_on_c, 2, 69, 100
6, 14990, Note_on_c, 2, 69, 0
6, 15000, Note_on_c, 2, 81, 100
6, 15160, Note_on_c, 2, 81, 0
6, 15180, Note_on_c, 2, 66, 100
6, 15220, Note_on_c, 2, 66, 0
6, 15240, Note_on_c, 2, 71, 100
6, 15280, Note_on_c, 2, 71, 0
6, 15300, Note_on_c, 2, 74, 100
6, 15340, Note_on_c, 2, 74, 0
6, 15360, Note_on_c, 2, 74, 100
6, 15400, Note_on_c, 2, 74, 0
6, 15420, Note_on_c, 2, 73, 100
6, 15440, Note_on_c, 2, 73, 0
6, 15450, Note_on_c, 2, 71, 100
6, 15470, Note_on_c, 2, 71, 0
6, 15480, Note_on_c, 2, 80, 100
6, 15520, Note_on_c, 2, 80, 0
6, 15540, Note_on_c, 2, 81, 100
6, 15580, Note_on_c, 2, 81, 0
6, 15600, Note_on_c, 2, 76, 100
6, 15640, Note_on_c, 2, 76, 0
6, 15660, Note_on_c, 2, 81, 100
6, 15700, Note_on_c, 2, 81, 0
6, 15720, Note_on_c, 2, 71, 100
6, 15760, Note_on_c, 2, 71, 0
6, 15780, Note_on_c, 2, 80, 100
6, 15820, Note_on_c, 2, 80, 0
6, 15840, Note_on_c, 2, 81, 100
6, 15920, Note_on_c, 2, 81, 0
6, 16560, Note_on_c, 2, 85, 100
6, 16620, Note_on_c, 2, 85, 0
6, 16650, Note_on_c, 2, 86, 100
6, 16670, Note_on_c, 2, 86, 0
6, 16680, Note_on_c, 2, 85, 100
6, 16700, Note_on_c, 2, 85, 0
6, 16710, Note_on_c, 2, 83, 100
6, 16730, Note_on_c, 2, 83, 0
6, 16740, Note_on_c, 2, 81, 100
6, 16760, Note_on_c, 2, 81, 0
6, 16770, Note_on_c, 2, 83, 100
6, 16790, Note_on_c, 2, 83, 0
6, 16800, Note_on_c, 2, 85, 100
6, 16820, Note_on_c, 2, 85, 0
6, 16830, Note_on_c, 2, 86, 100
6, 16850, Note_on_c, 2, 86, 0
6, 16860, Note_on_c, 2, 85, 100
6, 16880, Note_on_c, 2, 85, 0
6, 16890, Note_on_c, 2, 86, 100
6, 16910, Note_on_c, 2, 86, 0
6, 16920, Note_on_c, 2, 85, 100
6, 16980, Note_on_c, 2, 85, 0
6, 17010, Note_on_c, 2, 86, 100
6, 17030, Note_on_c, 2, 86, 0
6, 17040, Note_on_c, 2, 85, 100
6, 17060, Note_on_c, 2, 85, 0
6, 17070, Note_on_c, 2, 83, 100
6, 17090, Note_on_c, 2, 83, 0
6, 17100, Note_on_c, 2, 81, 100
6, 17120, Note_on_c, 2, 81, 0
6, 17130, Note_on_c, 2, 83, 100
6, 17150, Note_on_c, 2, 83, 0
6, 17160, Note_on_c, 2, 85, 100
6, 17180, Note_on_c, 2, 85, 0
6, 17190, Note_on_c, 2, 86, 100
6, 17210, Note_on_c, 2, 86, 0
6, 17220, Note_on_c, 2, 85, 100
6, 17240, Note_on_c, 2, 85, 0
6, 17250, Note_on_c, 2, 86, 100
6, 17270, Note_on_c, 2, 86, 0
6, 17280, Note_on_c, 2, 85, 100
6, 17360, Note_on_c, 2, 85, 0
6, 18000, Note_on_c, 2, 88, 100
6, 18040, Note_on_c, 2, 88, 0
6, 18060, Note_on_c, 2, 85, 100
6, 18100, Note_on_c, 2, 85, 0
6, 18360, Note_on_c, 2, 85, 100
6, 18400, Note_on_c, 2, 85, 0
6, 18420, Note_on_c, 2, 78, 100
6, 18460, Note_on_c, 2, 78, 0
6, 18720, Note_on_c, 2, 83, 100
6, 18760, Note_on_c, 2, 83, 0
6, 18780, Note_on_c, 2, 78, 100
6, 18820, Note_on_c, 2, 78, 0
6, 19080, Note_on_c, 2, 83, 100
6, 19120, Note_on_c, 2, 83, 0
6, 19140, Note_on_c, 2, 80, 100
6, 19180, Note_on_c, 2, 80, 0
6, 19440, Note_on_c, 2, 85, 100
6, 19480, Note_on_c, 2, 85, 0
6, 19500, Note_on_c, 2, 81, 100
6, 19540, Note_on_c, 2, 81, 0
6, 19800, Note_on_c, 2, 88, 100
6, 19840, Note_on_c, 2, 88, 0
6, 19860, Note_on_c, 2, 81, 100
6, 19900, Note_on_c, 2, 81, 0
6, 20280, Note_on_c, 2, 74, 100
6, 20320, Note_on_c, 2, 74, 0
6, 20340, Note_on_c, 2, 69, 100
6, 20380, Note_on_c, 2, 69, 0
6, 20640, Note_on_c, 2, 78, 100
6, 20680, Note_on_c, 2, 78, 0
6, 20700, Note_on_c, 2, 74, 100
6, 20740, Note_on_c, 2, 74, 0
6, 20760, Note_on_c, 2, 86, 100
6, 21000, Note_on_c, 2, 86, 0
6, 21060, Note_on_c, 2, 85, 100
6, 21080, Note_on_c, 2, 85, 0
6, 21090, Note_on_c, 2, 83, 100
6, 21110, Note_on_c, 2, 83, 0
6, 21120, Note_on_c, 2, 81, 100
6, 21140, Note_on_c, 2, 81, 0
6, 21150, Note_on_c, 2, 83, 100
6, 21170, Note_on_c, 2, 83, 0
6, 21180, Note_on_c, 2, 81, 100
6, 21200, Note_on_c, 2, 81, 0
6, 21210, Note_on_c, 2, 79, 100
6, 21230, Note_on_c, 2, 79, 0
6, 21240, Note_on_c, 2, 78, 100
6, 21260, Note_on_c, 2, 78, 0
6, 21270, Note_on_c, 2, 79, 100
6, 21290, Note_on_c, 2, 79, 0
6, 21300, Note_on_c, 2, 78, 100
6, 21320, Note_on_c, 2, 78, 0
6, 21330, Note_on_c, 2, 76, 100
6, 21350, Note_on_c, 2, 76, 0
6, 21360, Note_on_c, 2, 74, 100
6, 21380, Note_on_c, 2, 74, 0
6, 21390, Note_on_c, 2, 86, 100
6, 21410, Note_on_c, 2, 86, 0
6, 21420, Note_on_c, 2, 85, 100
6, 21440, Note_on_c, 2, 85, 0
6, 21450, Note_on_c, 2, 83, 100
6, 21470, Note_on_c, 2, 83, 0
6, 21480, Note_on_c, 2, 81, 100
6, 21500, Note_on_c, 2, 81, 0
6, 21510, Note_on_c, 2, 83, 100
6, 21530, Note_on_c, 2, 83, 0
6, 21540, Note_on_c, 2, 81, 100
6, 21560, Note_on_c, 2, 81, 0
6, 21570, Note_on_c, 2, 79, 100
6, 21590, Note_on_c, 2, 79, 0
6, 21600, Note_on_c, 2, 78, 100
6, 21620, Note_on_c, 2, 78, 0
6, 21630, Note_on_c, 2, 79, 100
6, 21650, Note_on_c, 2, 79, 0
6, 21660, Note_on_c, 2, 78, 100
6, 21680, Note_on_c, 2, 78, 0
6, 21690, Note_on_c, 2, 76, 100
6, 21710, Note_on_c, 2, 76, 0
6, 21720, Note_on_c, 2, 74, 100
6, 21760, Note_on_c, 2, 74, 0
6, 22740, Note_on_c, 2, 79, 100
6, 22760, Note_on_c, 2, 79, 0
6, 22770, Note_on_c, 2, 81, 100
6, 22790, Note_on_c, 2, 81, 0
6, 22800, Note_on_c, 2, 83, 100
6, 22820, Note_on_c, 2, 83, 0
6, 22830, Note_on_c, 2, 84, 100
6, 22850, Note_on_c, 2, 84, 0
6, 22860, Note_on_c, 2, 86, 100
6, 22900, Note_on_c, 2, 86, 0
6, 22920, Note_on_c, 2, 86, 100
6, 22940, Note_on_c, 2, 86, 0
6, 22950, Note_on_c, 2, 84, 100
6, 22970, Note_on_c, 2, 84, 0
6, 22980, Note_on_c, 2, 83, 100
6, 23000, Note_on_c, 2, 83, 0
6, 23010, Note_on_c, 2, 81, 100
6, 23030, Note_on_c, 2, 81, 0
6, 23040, Note_on_c, 2, 83, 100
6, 23080, Note_on_c, 2, 83, 0
6, 23100, Note_on_c, 2, 79, 100
6, 23140, Note_on_c, 2, 79, 0
6, 23820, Note_on_c, 2, 71, 100
6, 23860, Note_on_c, 2, 71, 0
6, 23880, Note_on_c, 2, 79, 100
6, 24120, Note_on_c, 2, 79, 100
6, 24160, Note_on_c, 2, 79, 0
6, 24160, Note_on_c, 2, 79, 0
6, 24180, Note_on_c, 2, 73, 100
6, 24220, Note_on_c, 2, 73, 0
6, 24240, Note_on_c, 2, 78, 100
6, 24480, Note_on_c, 2, 78, 100
6, 24520, Note_on_c, 2, 78, 0
6, 24520, Note_on_c, 2, 78, 0
6, 24540, Note_on_c, 2, 83, 100
6, 24560, Note_on_c, 2, 83, 0
6, 24570, Note_on_c, 2, 84, 100
6, 24590, Note_on_c, 2, 84, 0
6, 24600, Note_on_c, 2, 83, 100
6, 24620, Note_on_c, 2, 83, 0
6, 24630, Note_on_c, 2, 81, 100
6, 24650, Note_on_c, 2, 81, 0
6, 24660, Note_on_c, 2, 79, 100
6, 24680, Note_on_c, 2, 79, 0
6, 24690, Note_on_c, 2, 78, 100
6, 24710, Note_on_c, 2, 78, 0
6, 24720, Note_on_c, 2, 86, 100
6, 24840, Note_on_c, 2, 86, 100
6, 24860, Note_on_c, 2, 86, 0
6, 24860, Note_on_c, 2, 86, 0
6, 24870, Note_on_c, 2, 81, 100
6, 24890, Note_on_c, 2, 81, 0
6, 24900, Note_on_c, 2, 83, 100
6, 24920, Note_on_c, 2, 83, 0
6, 24930, Note_on_c, 2, 85, 100
6, 24950, Note_on_c, 2, 85, 0
6, 24960, Note_on_c, 2, 83, 100
6, 24980, Note_on_c, 2, 83, 0
6, 24990, Note_on_c, 2, 81, 100
6, 25010, Note_on_c, 2, 81, 0
6, 25020, Note_on_c, 2, 79, 100
6, 25040, Note_on_c, 2, 79, 0
6, 25050, Note_on_c, 2, 78, 100
6, 25070, Note_on_c, 2, 78, 0
6, 25080, Note_on_c, 2, 88, 100
6, 25200, Note_on_c, 2, 88, 100
6, 25240, Note_on_c, 2, 88, 0
6, 25240, Note_on_c, 2, 88, 0
6, 25260, Note_on_c, 2, 64, 100
6, 25300, Note_on_c, 2, 64, 0
6, 25320, Note_on_c, 2, 64, 100
6, 25360, Note_on_c, 2, 64, 0
6, 25380, Note_on_c, 2, 67, 100
6, 25420, Note_on_c, 2, 67, 0
6, 25440, Note_on_c, 2, 67, 100
6, 25480, Note_on_c, 2, 67, 0
6, 25500, Note_on_c, 2, 66, 100
6, 25520, Note_on_c, 2, 66, 0
6, 25530, Note_on_c, 2, 64, 100
6, 25550, Note_on_c, 2, 64, 0
6, 25560, Note_on_c, 2, 62, 100
6, 25600, Note_on_c, 2, 62, 0
6, 25620, Note_on_c, 2, 66, 100
6, 25660, Note_on_c, 2, 66, 0
6, 25680, Note_on_c, 2, 69, 100
6, 25720, Note_on_c, 2, 69, 0
6, 25740, Note_on_c, 2, 72, 100
6, 25780, Note_on_c, 2, 72, 0
6, 25800, Note_on_c, 2, 72, 100
6, 25840, Note_on_c, 2, 72, 0
6, 25860, Note_on_c, 2, 71, 100
6, 25880, Note_on_c, 2, 71, 0
6, 25890, Note_on_c, 2, 69, 100
6, 25910, Note_on_c, 2, 69, 0
6, 25920, Note_on_c, 2, 67, 100
6, 25960, Note_on_c, 2, 67, 0
6, 25980, Note_on_c, 2, 79, 100
6, 26000, Note_on_c, 2, 79, 0
6, 26010, Note_on_c, 2, 78, 100
6, 26030, Note_on_c, 2, 78, 0
6, 26040, Note_on_c, 2, 79, 100
6, 26060, Note_on_c, 2, 79, 0
6, 26070, Note_on_c, 2, 78, 100
6, 26090, Note_on_c, 2, 78, 0
6, 26100, Note_on_c, 2, 76, 100
6, 26120, Note_on_c, 2, 76, 0
6, 26130, Note_on_c, 2, 74, 100
6, 26150, Note_on_c, 2, 74, 0
6, 26160, Note_on_c, 2, 79, 100
6, 26320, Note_on_c, 2, 79, 0
6, 26340, Note_on_c, 2, 81, 100
6, 26360, Note_on_c, 2, 81, 0
6, 26370, Note_on_c, 2, 83, 100
6, 26390, Note_on_c, 2, 83, 0
6, 26400, Note_on_c, 2, 81, 100
6, 26420, Note_on_c, 2, 81, 0
6, 26430, Note_on_c, 2, 79, 100
6, 26450, Note_on_c, 2, 79, 0
6, 26460, Note_on_c, 2, 78, 100
6, 26480, Note_on_c, 2, 78, 0
6, 26490, Note_on_c, 2, 76, 100
6, 26510, Note_on_c, 2, 76, 0
6, 26520, Note_on_c, 2, 74, 100
6, 26540, Note_on_c, 2, 74, 0
6, 26550, Note_on_c, 2, 73, 100
6, 26570, Note_on_c, 2, 73, 0
6, 26580, Note_on_c, 2, 79, 100
6, 26620, Note_on_c, 2, 79, 0
6, 26640, Note_on_c, 2, 78, 100
6, 26680, Note_on_c, 2, 78, 0
6, 26700, Note_on_c, 2, 74, 100
6, 26740, Note_on_c, 2, 74, 0
6, 27000, Note_on_c, 2, 73, 100
6, 27020, Note_on_c, 2, 73, 0
6, 27030, Note_on_c, 2, 69, 100
6, 27050, Note_on_c, 2, 69, 0
6, 27060, Note_on_c, 2, 73, 100
6, 27080, Note_on_c, 2, 73, 0
6, 27090, Note_on_c, 2, 74, 100
6, 27110, Note_on_c, 2, 74, 0
6, 27120, Note_on_c, 2, 81, 100
6, 27160, Note_on_c, 2, 81, 0
6, 27180, Note_on_c, 2, 85, 100
6, 27220, Note_on_c, 2, 85, 0
6, 27240, Note_on_c, 2, 85, 100
6, 27280, Note_on_c, 2, 85, 0
6, 27300, Note_on_c, 2, 81, 100
6, 27340, Note_on_c, 2, 81, 0
6, 27360, Note_on_c, 2, 78, 100
6, 27380, Note_on_c, 2, 78, 0
6, 27390, Note_on_c, 2, 69, 100
6, 27410, Note_on_c, 2, 69, 0
6, 27420, Note_on_c, 2, 74, 100
6, 27440, Note_on_c, 2, 74, 0
6, 27450, Note_on_c, 2, 78, 100
6, 27470, Note_on_c, 2, 78, 0
6, 27480, Note_on_c, 2, 81, 100
6, 27520, Note_on_c, 2, 81, 0
6, 27540, Note_on_c, 2, 86, 100
6, 27580, Note_on_c, 2, 86, 0
6, 27600, Note_on_c, 2, 86, 100
6, 27640, Note_on_c, 2, 86, 0
6, 27660, Note_on_c, 2, 81, 100
6, 27700, Note_on_c, 2, 81, 0
6, 27720, Note_on_c, 2, 83, 100
6, 27760, Note_on_c, 2, 83, 0
6, 27780, Note_on_c, 2, 79, 100
6, 27820, Note_on_c, 2, 79, 0
6, 27840, Note_on_c, 2, 76, 100
6, 27880, Note_on_c, 2, 76, 0
6, 27900, Note_on_c, 2, 71, 100
6, 27940, Note_on_c, 2, 71, 0
6, 27960, Note_on_c, 2, 76, 100
6, 28000, Note_on_c, 2, 76, 0
6, 28020, Note_on_c, 2, 79, 100
6, 28120, Note_on_c, 2, 79, 0
6, 28140, Note_on_c, 2, 76, 100
6, 28180, Note_on_c, 2, 76, 0
6, 28200, Note_on_c, 2, 81, 100
6, 28240, Note_on_c, 2, 81, 0
6, 28260, Note_on_c, 2, 85, 100
6, 28300, Note_on_c, 2, 85, 0
6, 28320, Note_on_c, 2, 85, 100
6, 28360, Note_on_c, 2, 85, 0
6, 28380, Note_on_c, 2, 81, 100
6, 28420, Note_on_c, 2, 81, 0
6, 28440, Note_on_c, 2, 86, 100
6, 28480, Note_on_c, 2, 86, 0
6, 28500, Note_on_c, 2, 83, 100
6, 28540, Note_on_c, 2, 83, 0
6, 28560, Note_on_c, 2, 80, 100
6, 28600, Note_on_c, 2, 80, 0
6, 28620, Note_on_c, 2, 74, 100
6, 28660, Note_on_c, 2, 74, 0
6, 28680, Note_on_c, 2, 74, 100
6, 28720, Note_on_c, 2, 74, 0
6, 28740, Note_on_c, 2, 81, 100
6, 28780, Note_on_c, 2, 81, 0
6, 28800, Note_on_c, 2, 81, 100
6, 28840, Note_on_c, 2, 81, 0
6, 28860, Note_on_c, 2, 73, 100
6, 28900, Note_on_c, 2, 73, 0
6, 28920, Note_on_c, 2, 76, 100
6, 28960, Note_on_c, 2, 76, 0
6, 28980, Note_on_c, 2, 81, 100
6, 29020, Note_on_c, 2, 81, 0
6, 29040, Note_on_c, 2, 81, 100
6, 29920, Note_on_c, 2, 81, 0
6, 29940, Note_on_c, 2, 69, 100
6, 29980, Note_on_c, 2, 69, 0
6, 30000, Note_on_c, 2, 74, 100
6, 30040, Note_on_c, 2, 74, 0
6, 30060, Note_on_c, 2, 78, 100
6, 30100, Note_on_c, 2, 78, 0
6, 30120, Note_on_c, 2, 78, 100
6, 30160, Note_on_c, 2, 78, 0
6, 30180, Note_on_c, 2, 74, 100
6, 30220, Note_on_c, 2, 74, 0
6, 30240, Note_on_c, 2, 69, 100
6, 30280, Note_on_c, 2, 69, 0
6, 30300, Note_on_c, 2, 74, 100
6, 30340, Note_on_c, 2, 74, 0
6, 30360, Note_on_c, 2, 78, 100
6, 30400, Note_on_c, 2, 78, 0
6, 30420, Note_on_c, 2, 81, 100
6, 30460, Note_on_c, 2, 81, 0
6, 30480, Note_on_c, 2, 81, 100
6, 30520, Note_on_c, 2, 81, 0
6, 30540, Note_on_c, 2, 78, 100
6, 30580, Note_on_c, 2, 78, 0
6, 30600, Note_on_c, 2, 74, 100
6, 30680, Note_on_c, 2, 74, 0
6, 31020, Note_on_c, 2, 74, 100
6, 31040, Note_on_c, 2, 74, 0
6, 31050, Note_on_c, 2, 76, 100
6, 31070, Note_on_c, 2, 76, 0
6, 31080, Note_on_c, 2, 78, 100
6, 31100, Note_on_c, 2, 78, 0
6, 31110, Note_on_c, 2, 79, 100
6, 31130, Note_on_c, 2, 79, 0
6, 31140, Note_on_c, 2, 81, 100
6, 31180, Note_on_c, 2, 81, 0
6, 31200, Note_on_c, 2, 81, 100
6, 31220, Note_on_c, 2, 81, 0
6, 31230, Note_on_c, 2, 79, 100
6, 31250, Note_on_c, 2, 79, 0
6, 31260, Note_on_c, 2, 78, 100
6, 31280, Note_on_c, 2, 78, 0
6, 31290, Note_on_c, 2, 76, 100
6, 31310, Note_on_c, 2, 76, 0
6, 31320, Note_on_c, 2, 74, 100
6, 31340, Note_on_c, 2, 74, 0
6, 31350, Note_on_c, 2, 73, 100
6, 31370, Note_on_c, 2, 73, 0
6, 31380, Note_on_c, 2, 74, 100
6, 31400, Note_on_c, 2, 74, 0
6, 31410, Note_on_c, 2, 76, 100
6, 31430, Note_on_c, 2, 76, 0
6, 31440, Note_on_c, 2, 78, 100
6, 31460, Note_on_c, 2, 78, 0
6, 31470, Note_on_c, 2, 79, 100
6, 31490, Note_on_c, 2, 79, 0
6, 31500, Note_on_c, 2, 81, 100
6, 31540, Note_on_c, 2, 81, 0
6, 31560, Note_on_c, 2, 81, 100
6, 31580, Note_on_c, 2, 81, 0
6, 31590, Note_on_c, 2, 79, 100
6, 31610, Note_on_c, 2, 79, 0
6, 31620, Note_on_c, 2, 78, 100
6, 31640, Note_on_c, 2, 78, 0
6, 31650, Note_on_c, 2, 76, 100
6, 31670, Note_on_c, 2, 76, 0
6, 31680, Note_on_c, 2, 78, 100
6, 31700, Note_on_c, 2, 78, 0
6, 31710, Note_on_c, 2, 76, 100
6, 31730, Note_on_c, 2, 76, 0
6, 31740, Note_on_c, 2, 78, 100
6, 31760, Note_on_c, 2, 78, 0
6, 31770, Note_on_c, 2, 79, 100
6, 31790, Note_on_c, 2, 79, 0
6, 31800, Note_on_c, 2, 81, 100
6, 31840, Note_on_c, 2, 81, 0
6, 31860, Note_on_c, 2, 83, 100
6, 31880, Note_on_c, 2, 83, 0
6, 31890, Note_on_c, 2, 81, 100
6, 31910, Note_on_c, 2, 81, 0
6, 31920, Note_on_c, 2, 79, 100
6, 31940, Note_on_c, 2, 79, 0
6, 31950, Note_on_c, 2, 78, 100
6, 31970, Note_on_c, 2, 78, 0
6, 31980, Note_on_c, 2, 76, 100
6, 32000, Note_on_c, 2, 76, 0
6, 32010, Note_on_c, 2, 74, 100
6, 32030, Note_on_c, 2, 74, 0
6, 32040, Note_on_c, 2, 74, 100
6, 32120, Note_on_c, 2, 74, 0
6, 61020, Control_c, 2, 0, 0
6, 61500, Note_on_c, 2, 78, 100
6, 61540, Note_on_c, 2, 78, 0
6, 61560, Note_on_c, 2, 78, 100
6, 61600, Note_on_c, 2, 78, 0
6, 61620, Note_on_c, 2, 78, 100
6, 61660, Note_on_c, 2, 78, 0
6, 61680, Note_on_c, 2, 78, 100
6, 61720, Note_on_c, 2, 78, 0
6, 61740, Note_on_c, 2, 78, 100
6, 61780, Note_on_c, 2, 78, 0
6, 61800, Note_on_c, 2, 77, 100
6, 61820, Note_on_c, 2, 77, 0
6, 61830, Note_on_c, 2, 75, 100
6, 61850, Note_on_c, 2, 75, 0
6, 61872, Note_on_c, 2, 73, 90
6, 61919, Note_on_c, 2, 73, 0
6, 61920, Note_on_c, 2, 71, 90
6, 61980, Note_on_c, 2, 71, 0
6, 61980, Note_on_c, 2, 69, 90
6, 62010, Note_on_c, 2, 69, 0
6, 62010, Note_on_c, 2, 68, 90
6, 62040, Note_on_c, 2, 68, 0
6, 62040, Note_on_c, 2, 66, 90
6, 62070, Note_on_c, 2, 66, 0
6, 62070, Note_on_c, 2, 68, 90
6, 62100, Note_on_c, 2, 68, 0
6, 62100, Note_on_c, 2, 69, 90
6, 62130, Note_on_c, 2, 69, 0
6, 62130, Note_on_c, 2, 68, 90
6, 62160, Note_on_c, 2, 68, 0
6, 62160, Note_on_c, 2, 69, 90
6, 62190, Note_on_c, 2, 69, 0
6, 62190, Note_on_c, 2, 71, 90
6, 62220, Note_on_c, 2, 71, 0
6, 62220, Note_on_c, 2, 73, 90
6, 62250, Note_on_c, 2, 73, 0
6, 62250, Note_on_c, 2, 68, 90
6, 62280, Note_on_c, 2, 68, 0
6, 62280, Note_on_c, 2, 69, 90
6, 62310, Note_on_c, 2, 69, 0
6, 62310, Note_on_c, 2, 71, 90
6, 62340, Note_on_c, 2, 71, 0
6, 62340, Note_on_c, 2, 73, 90
6, 62370, Note_on_c, 2, 73, 0
6, 62370, Note_on_c, 2, 74, 90
6, 62400, Note_on_c, 2, 74, 0
6, 62400, Note_on_c, 2, 73, 90
6, 62430, Note_on_c, 2, 73, 0
6, 62430, Note_on_c, 2, 71, 90
6, 62460, Note_on_c, 2, 71, 0
6, 62460, Note_on_c, 2, 69, 90
6, 62490, Note_on_c, 2, 69, 0
6, 62490, Note_on_c, 2, 68, 90
6, 62520, Note_on_c, 2, 68, 0
6, 62520, Note_on_c, 2, 69, 90
6, 62550, Note_on_c, 2, 69, 0
6, 62550, Note_on_c, 2, 71, 90
6, 62580, Note_on_c, 2, 71, 0
6, 62580, Note_on_c, 2, 73, 90
6, 62610, Note_on_c, 2, 73, 0
6, 62610, Note_on_c, 2, 71, 90
6, 62640, Note_on_c, 2, 71, 0
6, 62640, Note_on_c, 2, 73, 90
6, 62670, Note_on_c, 2, 73, 0
6, 62670, Note_on_c, 2, 74, 90
6, 62700, Note_on_c, 2, 74, 0
6, 62700, Note_on_c, 2, 68, 90
6, 62760, Note_on_c, 2, 68, 0
6, 62760, Note_on_c, 2, 68, 90
6, 62820, Note_on_c, 2, 68, 0
6, 62820, Note_on_c, 2, 73, 90
6, 62970, Note_on_c, 2, 73, 0
6, 62970, Note_on_c, 2, 71, 90
6, 63000, Note_on_c, 2, 71, 0
6, 63000, Note_on_c, 2, 69, 90
6, 63030, Note_on_c, 2, 69, 0
6, 63030, Note_on_c, 2, 68, 90
6, 63060, Note_on_c, 2, 68, 0
6, 63060, Note_on_c, 2, 66, 90
6, 63090, Note_on_c, 2, 66, 0
6, 63090, Note_on_c, 2, 69, 90
6, 63120, Note_on_c, 2, 69, 0
6, 63120, Note_on_c, 2, 68, 90
6, 63150, Note_on_c, 2, 68, 0
6, 63150, Note_on_c, 2, 66, 90
6, 63180, Note_on_c, 2, 66, 0
6, 63180, Note_on_c, 2, 73, 90
6, 63300, Note_on_c, 2, 73, 0
6, 63420, Note_on_c, 2, 69, 90
6, 63480, Note_on_c, 2, 69, 0
6, 63480, Note_on_c, 2, 69, 90
6, 63540, Note_on_c, 2, 69, 0
6, 63540, Note_on_c, 2, 69, 90
6, 63600, Note_on_c, 2, 69, 0
6, 63600, Note_on_c, 2, 69, 90
6, 63660, Note_on_c, 2, 69, 0
6, 63660, Note_on_c, 2, 69, 90
6, 63720, Note_on_c, 2, 69, 0
6, 63720, Note_on_c, 2, 68, 90
6, 63750, Note_on_c, 2, 68, 0
6, 63750, Note_on_c, 2, 66, 90
6, 63780, Note_on_c, 2, 66, 0
6, 63780, Note_on_c, 2, 64, 90
6, 63810, Note_on_c, 2, 64, 0
6, 63810, Note_on_c, 2, 68, 90
6, 63840, Note_on_c, 2, 68, 0
6, 63840, Note_on_c, 2, 69, 90
6, 63870, Note_on_c, 2, 69, 0
6, 63870, Note_on_c, 2, 71, 90
6, 63900, Note_on_c, 2, 71, 0
6, 63900, Note_on_c, 2, 73, 90
6, 63960, Note_on_c, 2, 73, 0
6, 63960, Note_on_c, 2, 76, 90
6, 64020, Note_on_c, 2, 76, 0
6, 64020, Note_on_c, 2, 66, 90
6, 64200, Note_on_c, 2, 66, 0
6, 64200, Note_on_c, 2, 74, 90
6, 64290, Note_on_c, 2, 74, 0
6, 64290, Note_on_c, 2, 73, 90
6, 64320, Note_on_c, 2, 73, 0
6, 64320, Note_on_c, 2, 71, 90
6, 64350, Note_on_c, 2, 71, 0
6, 64350, Note_on_c, 2, 69, 90
6, 64380, Note_on_c, 2, 69, 0
6, 64380, Note_on_c, 2, 68, 90
6, 64410, Note_on_c, 2, 68, 0
6, 64410, Note_on_c, 2, 71, 90
6, 64440, Note_on_c, 2, 71, 0
6, 64440, Note_on_c, 2, 73, 90
6, 64470, Note_on_c, 2, 73, 0
6, 64470, Note_on_c, 2, 74, 90
6, 64500, Note_on_c, 2, 74, 0
6, 64500, Note_on_c, 2, 76, 90
6, 64530, Note_on_c, 2, 76, 0
6, 64530, Note_on_c, 2, 73, 90
6, 64560, Note_on_c, 2, 73, 0
6, 64560, Note_on_c, 2, 74, 90
6, 64590, Note_on_c, 2, 74, 0
6, 64590, Note_on_c, 2, 76, 90
6, 64620, Note_on_c, 2, 76, 0
6, 64620, Note_on_c, 2, 78, 90
6, 64680, Note_on_c, 2, 78, 0
6, 64680, Note_on_c, 2, 78, 90
6, 64740, Note_on_c, 2, 78, 0
6, 64740, Note_on_c, 2, 78, 90
6, 64800, Note_on_c, 2, 78, 0
6, 64800, Note_on_c, 2, 78, 90
6, 64860, Note_on_c, 2, 78, 0
6, 64860, Note_on_c, 2, 78, 90
6, 64920, Note_on_c, 2, 78, 0
6, 64920, Note_on_c, 2, 76, 90
6, 64950, Note_on_c, 2, 76, 0
6, 64950, Note_on_c, 2, 74, 90
6, 64980, Note_on_c, 2, 74, 0
6, 64980, Note_on_c, 2, 73, 90
6, 65040, Note_on_c, 2, 73, 0
6, 65040, Note_on_c, 2, 71, 90
6, 65100, Note_on_c, 2, 71, 0
6, 65100, Note_on_c, 2, 69, 90
6, 65130, Note_on_c, 2, 69, 0
6, 65130, Note_on_c, 2, 68, 90
6, 65160, Note_on_c, 2, 68, 0
6, 65160, Note_on_c, 2, 69, 90
6, 65190, Note_on_c, 2, 69, 0
6, 65190, Note_on_c, 2, 71, 90
6, 65220, Note_on_c, 2, 71, 0
6, 65220, Note_on_c, 2, 68, 90
6, 65340, Note_on_c, 2, 68, 0
6, 65340, Note_on_c, 2, 69, 90
6, 65460, Note_on_c, 2, 69, 0
6, 65580, Note_on_c, 2, 76, 90
6, 65640, Note_on_c, 2, 76, 0
6, 65640, Note_on_c, 2, 76, 90
6, 65700, Note_on_c, 2, 76, 0
6, 65700, Note_on_c, 2, 76, 90
6, 65760, Note_on_c, 2, 76, 0
6, 65760, Note_on_c, 2, 76, 90
6, 65820, Note_on_c, 2, 76, 0
6, 65820, Note_on_c, 2, 76, 90
6, 65880, Note_on_c, 2, 76, 0
6, 65880, Note_on_c, 2, 74, 90
6, 65910, Note_on_c, 2, 74, 0
6, 65910, Note_on_c, 2, 73, 90
6, 65940, Note_on_c, 2, 73, 0
6, 65940, Note_on_c, 2, 71, 90
6, 66000, Note_on_c, 2, 71, 0
6, 66000, Note_on_c, 2, 69, 90
6, 66060, Note_on_c, 2, 69, 0
6, 66060, Note_on_c, 2, 68, 90
6, 66090, Note_on_c, 2, 68, 0
6, 66090, Note_on_c, 2, 66, 90
6, 66120, Note_on_c, 2, 66, 0
6, 66120, Note_on_c, 2, 64, 90
6, 66150, Note_on_c, 2, 64, 0
6, 66150, Note_on_c, 2, 66, 90
6, 66180, Note_on_c, 2, 66, 0
6, 66180, Note_on_c, 2, 68, 90
6, 66210, Note_on_c, 2, 68, 0
6, 66210, Note_on_c, 2, 66, 90
6, 66240, Note_on_c, 2, 66, 0
6, 66240, Note_on_c, 2, 68, 90
6, 66270, Note_on_c, 2, 68, 0
6, 66270, Note_on_c, 2, 69, 90
6, 66300, Note_on_c, 2, 69, 0
6, 66300, Note_on_c, 2, 71, 90
6, 66330, Note_on_c, 2, 71, 0
6, 66330, Note_on_c, 2, 66, 90
6, 66360, Note_on_c, 2, 66, 0
6, 66360, Note_on_c, 2, 68, 90
6, 66390, Note_on_c, 2, 68, 0
6, 66390, Note_on_c, 2, 70, 90
6, 66420, Note_on_c, 2, 70, 0
6, 66420, Note_on_c, 2, 71, 90
6, 66450, Note_on_c, 2, 71, 0
6, 66450, Note_on_c, 2, 70, 90
6, 66480, Note_on_c, 2, 70, 0
6, 66480, Note_on_c, 2, 71, 90
6, 66510, Note_on_c, 2, 71, 0
6, 66510, Note_on_c, 2, 73, 90
6, 66540, Note_on_c, 2, 73, 0
6, 66540, Note_on_c, 2, 74, 90
6, 66600, Note_on_c, 2, 74, 0
6, 66600, Note_on_c, 2, 78, 90
6, 66660, Note_on_c, 2, 78, 0
6, 66780, Note_on_c, 2, 78, 90
6, 66840, Note_on_c, 2, 78, 0
6, 66840, Note_on_c, 2, 78, 90
6, 66900, Note_on_c, 2, 78, 0
6, 66900, Note_on_c, 2, 78, 90
6, 66960, Note_on_c, 2, 78, 0
6, 66960, Note_on_c, 2, 78, 90
6, 67020, Note_on_c, 2, 78, 0
6, 67020, Note_on_c, 2, 78, 90
6, 67080, Note_on_c, 2, 78, 0
6, 67080, Note_on_c, 2, 76, 90
6, 67110, Note_on_c, 2, 76, 0
6, 67110, Note_on_c, 2, 74, 90
6, 67140, Note_on_c, 2, 74, 0
6, 67140, Note_on_c, 2, 73, 90
6, 67200, Note_on_c, 2, 73, 0
6, 67200, Note_on_c, 2, 71, 90
6, 67260, Note_on_c, 2, 71, 0
6, 67260, Note_on_c, 2, 69, 90
6, 67290, Note_on_c, 2, 69, 0
6, 67290, Note_on_c, 2, 68, 90
6, 67320, Note_on_c, 2, 68, 0
6, 67320, Note_on_c, 2, 66, 90
6, 67350, Note_on_c, 2, 66, 0
6, 67350, Note_on_c, 2, 68, 90
6, 67380, Note_on_c, 2, 68, 0
6, 67380, Note_on_c, 2, 69, 90
6, 67410, Note_on_c, 2, 69, 0
6, 67410, Note_on_c, 2, 68, 90
6, 67440, Note_on_c, 2, 68, 0
6, 67440, Note_on_c, 2, 69, 90
6, 67470, Note_on_c, 2, 69, 0
6, 67470, Note_on_c, 2, 71, 90
6, 67500, Note_on_c, 2, 71, 0
6, 67500, Note_on_c, 2, 73, 90
6, 67530, Note_on_c, 2, 73, 0
6, 67530, Note_on_c, 2, 68, 90
6, 67560, Note_on_c, 2, 68, 0
6, 67560, Note_on_c, 2, 69, 90
6, 67590, Note_on_c, 2, 69, 0
6, 67590, Note_on_c, 2, 71, 90
6, 67620, Note_on_c, 2, 71, 0
6, 67620, Note_on_c, 2, 73, 90
6, 67650, Note_on_c, 2, 73, 0
6, 67650, Note_on_c, 2, 71, 90
6, 67680, Note_on_c, 2, 71, 0
6, 67680, Note_on_c, 2, 73, 90
6, 67710, Note_on_c, 2, 73, 0
6, 67710, Note_on_c, 2, 74, 90
6, 67740, Note_on_c, 2, 74, 0
6, 67740, Note_on_c, 2, 68, 90
6, 67800, Note_on_c, 2, 68, 0
6, 67800, Note_on_c, 2, 68, 90
6, 67860, Note_on_c, 2, 68, 0
6, 67860, Note_on_c, 2, 73, 90
6, 67920, Note_on_c, 2, 73, 0
6, 67920, Note_on_c, 2, 73, 90
6, 67980, Note_on_c, 2, 73, 0
6, 67980, Note_on_c, 2, 73, 90
6, 68040, Note_on_c, 2, 73, 0
6, 68040, Note_on_c, 2, 71, 90
6, 68070, Note_on_c, 2, 71, 0
6, 68070, Note_on_c, 2, 69, 90
6, 68100, Note_on_c, 2, 69, 0
6, 68100, Note_on_c, 2, 68, 90
6, 68160, Note_on_c, 2, 68, 0
6, 68160, Note_on_c, 2, 73, 90
6, 68220, Note_on_c, 2, 73, 0
6, 68220, Note_on_c, 2, 73, 90
6, 68280, Note_on_c, 2, 73, 0
6, 68280, Note_on_c, 2, 66, 90
6, 68340, Note_on_c, 2, 66, 0
6, 68460, Note_on_c, 2, 71, 90
6, 68520, Note_on_c, 2, 71, 0
6, 68520, Note_on_c, 2, 71, 90
6, 68580, Note_on_c, 2, 71, 0
6, 68580, Note_on_c, 2, 71, 90
6, 68640, Note_on_c, 2, 71, 0
6, 68640, Note_on_c, 2, 71, 90
6, 68700, Note_on_c, 2, 71, 0
6, 68700, Note_on_c, 2, 71, 90
6, 68760, Note_on_c, 2, 71, 0
6, 68760, Note_on_c, 2, 69, 90
6, 68790, Note_on_c, 2, 69, 0
6, 68790, Note_on_c, 2, 68, 90
6, 68820, Note_on_c, 2, 68, 0
6, 68820, Note_on_c, 2, 66, 90
6, 68880, Note_on_c, 2, 66, 0
6, 68880, Note_on_c, 2, 64, 90
6, 68940, Note_on_c, 2, 64, 0
6, 68940, Note_on_c, 2, 62, 90
6, 69000, Note_on_c, 2, 62, 0
6, 69000, Note_on_c, 2, 64, 90
6, 69030, Note_on_c, 2, 64, 0
6, 69030, Note_on_c, 2, 66, 90
6, 69060, Note_on_c, 2, 66, 0
6, 69060, Note_on_c, 2, 67, 90
6, 69240, Note_on_c, 2, 67, 0
6, 69240, Note_on_c, 2, 66, 90
6, 69270, Note_on_c, 2, 66, 0
6, 69270, Note_on_c, 2, 64, 90
6, 69300, Note_on_c, 2, 64, 0
6, 69300, Note_on_c, 2, 76, 90
6, 69330, Note_on_c, 2, 76, 0
6, 69330, Note_on_c, 2, 73, 90
6, 69360, Note_on_c, 2, 73, 0
6, 69360, Note_on_c, 2, 74, 90
6, 69390, Note_on_c, 2, 74, 0
6, 69390, Note_on_c, 2, 76, 90
6, 69420, Note_on_c, 2, 76, 0
6, 69420, Note_on_c, 2, 78, 90
6, 69480, Note_on_c, 2, 78, 0
6, 69480, Note_on_c, 2, 78, 90
6, 69540, Note_on_c, 2, 78, 0
6, 69540, Note_on_c, 2, 78, 90
6, 69600, Note_on_c, 2, 78, 0
6, 69600, Note_on_c, 2, 78, 90
6, 69660, Note_on_c, 2, 78, 0
6, 69660, Note_on_c, 2, 78, 90
6, 69720, Note_on_c, 2, 78, 0
6, 69720, Note_on_c, 2, 76, 90
6, 69750, Note_on_c, 2, 76, 0
6, 69750, Note_on_c, 2, 74, 90
6, 69780, Note_on_c, 2, 74, 0
6, 69780, Note_on_c, 2, 73, 90
6, 69840, Note_on_c, 2, 73, 0
6, 69840, Note_on_c, 2, 71, 90
6, 69900, Note_on_c, 2, 71, 0
6, 69900, Note_on_c, 2, 69, 90
6, 69930, Note_on_c, 2, 69, 0
6, 69930, Note_on_c, 2, 68, 90
6, 69960, Note_on_c, 2, 68, 0
6, 69960, Note_on_c, 2, 66, 90
6, 69990, Note_on_c, 2, 66, 0
6, 69990, Note_on_c, 2, 68, 90
6, 70020, Note_on_c, 2, 68, 0
6, 70020, Note_on_c, 2, 69, 90
6, 70050, Note_on_c, 2, 69, 0
6, 70050, Note_on_c, 2, 66, 90
6, 70080, Note_on_c, 2, 66, 0
6, 70080, Note_on_c, 2, 68, 90
6, 70110, Note_on_c, 2, 68, 0
6, 70110, Note_on_c, 2, 69, 90
6, 70140, Note_on_c, 2, 69, 0
6, 70140, Note_on_c, 2, 63, 90
6, 70260, Note_on_c, 2, 63, 0
6, 70320, Note_on_c, 2, 73, 90
6, 70350, Note_on_c, 2, 73, 0
6, 70350, Note_on_c, 2, 72, 90
6, 70380, Note_on_c, 2, 72, 0
6, 70380, Note_on_c, 2, 76, 90
6, 70470, Note_on_c, 2, 76, 0
6, 70470, Note_on_c, 2, 75, 90
6, 70500, Note_on_c, 2, 75, 0
6, 70500, Note_on_c, 2, 75, 90
6, 70620, Note_on_c, 2, 75, 0
6, 70620, Note_on_c, 2, 73, 90
6, 70740, Note_on_c, 2, 73, 0
6, 70860, Note_on_c, 2, 77, 90
6, 70980, Note_on_c, 2, 77, 0
6, 71100, Note_on_c, 2, 80, 90
6, 71220, Note_on_c, 2, 80, 0
6, 71340, Note_on_c, 2, 85, 90
6, 71460, Note_on_c, 2, 85, 0
6, 71580, Note_on_c, 2, 80, 90
6, 71700, Note_on_c, 2, 80, 0
6, 71820, Note_on_c, 2, 77, 90
6, 71940, Note_on_c, 2, 77, 0
6, 72060, Note_on_c, 2, 77, 90
6, 72300, Note_on_c, 2, 77, 0
6, 72810, Note_on_c, 2, 68, 90
6, 72840, Note_on_c, 2, 68, 0
6, 72840, Note_on_c, 2, 69, 90
6, 72870, Note_on_c, 2, 69, 0
6, 72870, Note_on_c, 2, 71, 90
6, 72900, Note_on_c, 2, 71, 0
6, 72900, Note_on_c, 2, 73, 90
6, 72930, Note_on_c, 2, 73, 0
6, 72930, Note_on_c, 2, 73, 90
6, 72960, Note_on_c, 2, 73, 0
6, 72960, Note_on_c, 2, 75, 90
6, 72990, Note_on_c, 2, 75, 0
6, 72990, Note_on_c, 2, 77, 90
6, 73020, Note_on_c, 2, 77, 0
6, 73020, Note_on_c, 2, 78, 90
6, 73080, Note_on_c, 2, 78, 0
6, 73080, Note_on_c, 2, 78, 90
6, 73140, Note_on_c, 2, 78, 0
6, 73140, Note_on_c, 2, 78, 90
6, 73200, Note_on_c, 2, 78, 0
6, 73200, Note_on_c, 2, 78, 90
6, 73260, Note_on_c, 2, 78, 0
6, 73260, Note_on_c, 2, 78, 90
6, 73320, Note_on_c, 2, 78, 0
6, 73320, Note_on_c, 2, 77, 90
6, 73350, Note_on_c, 2, 77, 0
6, 73350, Note_on_c, 2, 75, 90
6, 73380, Note_on_c, 2, 75, 0
6, 73380, Note_on_c, 2, 73, 90
6, 73440, Note_on_c, 2, 73, 0
6, 73440, Note_on_c, 2, 71, 90
6, 73500, Note_on_c, 2, 71, 0
6, 73500, Note_on_c, 2, 69, 90
6, 73590, Note_on_c, 2, 69, 0
6, 73590, Note_on_c, 2, 71, 90
6, 73620, Note_on_c, 2, 71, 0
6, 73620, Note_on_c, 2, 68, 90
6, 73740, Note_on_c, 2, 68, 0
6, 73740, Note_on_c, 2, 66, 90
6, 73980, Note_on_c, 2, 66, 0
6, 91260, Control_c, 2, 0, 0
6, 91260, Note_on_c, 2, 71, 100
6, 91377, Note_on_c, 2, 71, 0
6, 91380, Note_on_c, 2, 69, 100
6, 91437, Note_on_c, 2, 69, 0
6, 91440, Note_on_c, 2, 72, 100
6, 91497, Note_on_c, 2, 72, 0
6, 91500, Note_on_c, 2, 71, 100
6, 91557, Note_on_c, 2, 71, 0
6, 91560, Note_on_c, 2, 69, 100
6, 91617, Note_on_c, 2, 69, 0
6, 91620, Note_on_c, 2, 69, 100
6, 91677, Note_on_c, 2, 69, 0
6, 91680, Note_on_c, 2, 71, 100
6, 91737, Note_on_c, 2, 71, 0
6, 91740, Note_on_c, 2, 72, 100
6, 91797, Note_on_c, 2, 72, 0
6, 91800, Note_on_c, 2, 72, 100
6, 92038, Note_on_c, 2, 72, 0
6, 92040, Note_on_c, 2, 71, 100
6, 92097, Note_on_c, 2, 71, 0
6, 92100, Note_on_c, 2, 69, 100
6, 92157, Note_on_c, 2, 69, 0
6, 92160, Note_on_c, 2, 78, 100
6, 92217, Note_on_c, 2, 78, 0
6, 92220, Note_on_c, 2, 71, 100
6, 92277, Note_on_c, 2, 71, 0
6, 92280, Note_on_c, 2, 69, 100
6, 92337, Note_on_c, 2, 69, 0
6, 92340, Note_on_c, 2, 68, 100
6, 92397, Note_on_c, 2, 68, 0
6, 92400, Note_on_c, 2, 69, 100
6, 92457, Note_on_c, 2, 69, 0
6, 92460, Note_on_c, 2, 71, 100
6, 92517, Note_on_c, 2, 71, 0
6, 92520, Note_on_c, 2, 71, 100
6, 92760, Note_on_c, 2, 71, 0
6, 92760, Note_on_c, 2, 69, 100
6, 92817, Note_on_c, 2, 69, 0
6, 92820, Note_on_c, 2, 68, 100
6, 92877, Note_on_c, 2, 68, 0
6, 92880, Note_on_c, 2, 76, 100
6, 92937, Note_on_c, 2, 76, 0
6, 92940, Note_on_c, 2, 69, 100
6, 93000, Note_on_c, 2, 69, 0
6, 93000, Note_on_c, 2, 67, 100
6, 93057, Note_on_c, 2, 67, 0
6, 93060, Note_on_c, 2, 69, 100
6, 93117, Note_on_c, 2, 69, 0
6, 93120, Note_on_c, 2, 67, 100
6, 93177, Note_on_c, 2, 67, 0
6, 93180, Note_on_c, 2, 66, 100
6, 93237, Note_on_c, 2, 66, 0
6, 93240, Note_on_c, 2, 75, 100
6, 93297, Note_on_c, 2, 75, 0
6, 93300, Note_on_c, 2, 76, 100
6, 93357, Note_on_c, 2, 76, 0
6, 93360, Note_on_c, 2, 78, 100
6, 93417, Note_on_c, 2, 78, 0
6, 93420, Note_on_c, 2, 67, 100
6, 93477, Note_on_c, 2, 67, 0
6, 93480, Note_on_c, 2, 72, 100
6, 93537, Note_on_c, 2, 72, 0
6, 93540, Note_on_c, 2, 71, 100
6, 93597, Note_on_c, 2, 71, 0
6, 93600, Note_on_c, 2, 69, 100
6, 93657, Note_on_c, 2, 69, 0
6, 93660, Note_on_c, 2, 67, 100
6, 93717, Note_on_c, 2, 67, 0
6, 93720, Note_on_c, 2, 66, 100
6, 93777, Note_on_c, 2, 66, 0
6, 93780, Note_on_c, 2, 64, 100
6, 93897, Note_on_c, 2, 64, 0
6, 96300, Note_on_c, 2, 71, 100
6, 96417, Note_on_c, 2, 71, 0
6, 96420, Note_on_c, 2, 69, 100
6, 96477, Note_on_c, 2, 69, 0
6, 96480, Note_on_c, 2, 72, 100
6, 96537, Note_on_c, 2, 72, 0
6, 96540, Note_on_c, 2, 71, 100
6, 96597, Note_on_c, 2, 71, 0
6, 96600, Note_on_c, 2, 69, 100
6, 96657, Note_on_c, 2, 69, 0
6, 96660, Note_on_c, 2, 69, 100
6, 96717, Note_on_c, 2, 69, 0
6, 96720, Note_on_c, 2, 71, 100
6, 96777, Note_on_c, 2, 71, 0
6, 96780, Note_on_c, 2, 72, 100
6, 96837, Note_on_c, 2, 72, 0
6, 96840, Note_on_c, 2, 72, 100
6, 97080, Note_on_c, 2, 72, 0
6, 97080, Note_on_c, 2, 71, 100
6, 97140, Note_on_c, 2, 71, 0
6, 97140, Note_on_c, 2, 69, 100
6, 97197, Note_on_c, 2, 69, 0
6, 97200, Note_on_c, 2, 78, 100
6, 97257, Note_on_c, 2, 78, 0
6, 97260, Note_on_c, 2, 71, 100
6, 97317, Note_on_c, 2, 71, 0
6, 97320, Note_on_c, 2, 69, 100
6, 97377, Note_on_c, 2, 69, 0
6, 97380, Note_on_c, 2, 68, 100
6, 97437, Note_on_c, 2, 68, 0
6, 97440, Note_on_c, 2, 69, 100
6, 97497, Note_on_c, 2, 69, 0
6, 97500, Note_on_c, 2, 71, 100
6, 97557, Note_on_c, 2, 71, 0
6, 97560, Note_on_c, 2, 71, 100
6, 97800, Note_on_c, 2, 71, 0
6, 97800, Note_on_c, 2, 69, 100
6, 97857, Note_on_c, 2, 69, 0
6, 97860, Note_on_c, 2, 68, 100
6, 97917, Note_on_c, 2, 68, 0
6, 97920, Note_on_c, 2, 80, 100
6, 97977, Note_on_c, 2, 80, 0
6, 97980, Note_on_c, 2, 73, 100
6, 98037, Note_on_c, 2, 73, 0
6, 98040, Note_on_c, 2, 71, 100
6, 98097, Note_on_c, 2, 71, 0
6, 98100, Note_on_c, 2, 70, 100
6, 98217, Note_on_c, 2, 70, 0
6, 98220, Note_on_c, 2, 73, 100
6, 98277, Note_on_c, 2, 73, 0
6, 98280, Note_on_c, 2, 76, 100
6, 98397, Note_on_c, 2, 76, 0
6, 98400, Note_on_c, 2, 79, 100
6, 98457, Note_on_c, 2, 79, 0
6, 98460, Note_on_c, 2, 78, 100
6, 98517, Note_on_c, 2, 78, 0
6, 98520, Note_on_c, 2, 76, 100
6, 98577, Note_on_c, 2, 76, 0
6, 98580, Note_on_c, 2, 74, 100
6, 98637, Note_on_c, 2, 74, 0
6, 98640, Note_on_c, 2, 73, 100
6, 98697, Note_on_c, 2, 73, 0
6, 98700, Note_on_c, 2, 71, 100
6, 98757, Note_on_c, 2, 71, 0
6, 98760, Note_on_c, 2, 70, 100
6, 98817, Note_on_c, 2, 70, 0
6, 98820, Note_on_c, 2, 71, 100
6, 98937, Note_on_c, 2, 71, 0
6, 99180, Note_on_c, 2, 79, 100
6, 99237, Note_on_c, 2, 79, 0
6, 99240, Note_on_c, 2, 78, 100
6, 99297, Note_on_c, 2, 78, 0
6, 99300, Note_on_c, 2, 76, 100
6, 99357, Note_on_c, 2, 76, 0
6, 99360, Note_on_c, 2, 76, 100
6, 99417, Note_on_c, 2, 76, 0
6, 99420, Note_on_c, 2, 74, 100
6, 99477, Note_on_c, 2, 74, 0
6, 99480, Note_on_c, 2, 73, 100
6, 99537, Note_on_c, 2, 73, 0
6, 99540, Note_on_c, 2, 73, 100
6, 99657, Note_on_c, 2, 73, 0
6, 99900, Note_on_c, 2, 78, 100
6, 99957, Note_on_c, 2, 78, 0
6, 99960, Note_on_c, 2, 76, 100
6, 100017, Note_on_c, 2, 76, 0
6, 100020, Note_on_c, 2, 75, 100
6, 100077, Note_on_c, 2, 75, 0
6, 100080, Note_on_c, 2, 75, 100
6, 100137, Note_on_c, 2, 75, 0
6, 100140, Note_on_c, 2, 73, 100
6, 100197, Note_on_c, 2, 73, 0
6, 100200, Note_on_c, 2, 71, 100
6, 100257, Note_on_c, 2, 71, 0
6, 100260, Note_on_c, 2, 71, 100
6, 100617, Note_on_c, 2, 71, 0
6, 100620, Note_on_c, 2, 70, 100
6, 100737, Note_on_c, 2, 70, 0
6, 100920, Note_on_c, 2, 73, 100
6, 100977, Note_on_c, 2, 73, 0
6, 100980, Note_on_c, 2, 74, 100
6, 101037, Note_on_c, 2, 74, 0
6, 101040, Note_on_c, 2, 73, 100
6, 101097, Note_on_c, 2, 73, 0
6, 101100, Note_on_c, 2, 71, 100
6, 101157, Note_on_c, 2, 71, 0
6, 101160, Note_on_c, 2, 70, 100
6, 101217, Note_on_c, 2, 70, 0
6, 101220, Note_on_c, 2, 66, 100
6, 101277, Note_on_c, 2, 66, 0
6, 101280, Note_on_c, 2, 64, 100
6, 101337, Note_on_c, 2, 64, 0
6, 101340, Note_on_c, 2, 62, 100
6, 101457, Note_on_c, 2, 62, 0
6, 102180, Note_on_c, 2, 69, 100
6, 102237, Note_on_c, 2, 69, 0
6, 102240, Note_on_c, 2, 72, 100
6, 102478, Note_on_c, 2, 72, 0
6, 102480, Note_on_c, 2, 71, 100
6, 102537, Note_on_c, 2, 71, 0
6, 102540, Note_on_c, 2, 69, 100
6, 102657, Note_on_c, 2, 69, 0
6, 102660, Note_on_c, 2, 67, 100
6, 102717, Note_on_c, 2, 67, 0
6, 102720, Note_on_c, 2, 66, 100
6, 102777, Note_on_c, 2, 66, 0
6, 102780, Note_on_c, 2, 67, 100
6, 102837, Note_on_c, 2, 67, 0
6, 102840, Note_on_c, 2, 69, 100
6, 102897, Note_on_c, 2, 69, 0
6, 102900, Note_on_c, 2, 71, 100
6, 102957, Note_on_c, 2, 71, 0
6, 103500, Note_on_c, 2, 77, 100
6, 103617, Note_on_c, 2, 77, 0
6, 103620, Note_on_c, 2, 74, 100
6, 103677, Note_on_c, 2, 74, 0
6, 103680, Note_on_c, 2, 79, 100
6, 103737, Note_on_c, 2, 79, 0
6, 103740, Note_on_c, 2, 77, 100
6, 103797, Note_on_c, 2, 77, 0
6, 103800, Note_on_c, 2, 76, 100
6, 103857, Note_on_c, 2, 76, 0
6, 103860, Note_on_c, 2, 76, 100
6, 103917, Note_on_c, 2, 76, 0
6, 103920, Note_on_c, 2, 77, 100
6, 103977, Note_on_c, 2, 77, 0
6, 103980, Note_on_c, 2, 79, 100
6, 104037, Note_on_c, 2, 79, 0
6, 104040, Note_on_c, 2, 79, 100
6, 104280, Note_on_c, 2, 79, 0
6, 104280, Note_on_c, 2, 77, 100
6, 104337, Note_on_c, 2, 77, 0
6, 104340, Note_on_c, 2, 76, 100
6, 104397, Note_on_c, 2, 76, 0
6, 104400, Note_on_c, 2, 82, 100
6, 104457, Note_on_c, 2, 82, 0
6, 104460, Note_on_c, 2, 81, 100
6, 104517, Note_on_c, 2, 81, 0
6, 104520, Note_on_c, 2, 79, 100
6, 104578, Note_on_c, 2, 79, 0
6, 104580, Note_on_c, 2, 77, 100
6, 104998, Note_on_c, 2, 77, 0
6, 105000, Note_on_c, 2, 76, 100
6, 105057, Note_on_c, 2, 76, 0
6, 105060, Note_on_c, 2, 74, 100
6, 105117, Note_on_c, 2, 74, 0
6, 105120, Note_on_c, 2, 74, 100
6, 105177, Note_on_c, 2, 74, 0
6, 105180, Note_on_c, 2, 72, 100
6, 105237, Note_on_c, 2, 72, 0
6, 105240, Note_on_c, 2, 71, 100
6, 105297, Note_on_c, 2, 71, 0
6, 105300, Note_on_c, 2, 72, 100
6, 105357, Note_on_c, 2, 72, 0
6, 105360, Note_on_c, 2, 71, 100
6, 105417, Note_on_c, 2, 71, 0
6, 105420, Note_on_c, 2, 74, 100
6, 105477, Note_on_c, 2, 74, 0
6, 105660, Note_on_c, 2, 77, 100
6, 105717, Note_on_c, 2, 77, 0
6, 105720, Note_on_c, 2, 76, 100
6, 105777, Note_on_c, 2, 76, 0
6, 105780, Note_on_c, 2, 74, 100
6, 105837, Note_on_c, 2, 74, 0
6, 105840, Note_on_c, 2, 74, 100
6, 105897, Note_on_c, 2, 74, 0
6, 105900, Note_on_c, 2, 72, 100
6, 105957, Note_on_c, 2, 72, 0
6, 105960, Note_on_c, 2, 71, 100
6, 106017, Note_on_c, 2, 71, 0
6, 106020, Note_on_c, 2, 71, 100
6, 106137, Note_on_c, 2, 71, 0
6, 106380, Note_on_c, 2, 76, 100
6, 106437, Note_on_c, 2, 76, 0
6, 106440, Note_on_c, 2, 74, 100
6, 106497, Note_on_c, 2, 74, 0
6, 106500, Note_on_c, 2, 73, 100
6, 106557, Note_on_c, 2, 73, 0
6, 106560, Note_on_c, 2, 73, 100
6, 106617, Note_on_c, 2, 73, 0
6, 106620, Note_on_c, 2, 71, 100
6, 106677, Note_on_c, 2, 71, 0
6, 106680, Note_on_c, 2, 69, 100
6, 106737, Note_on_c, 2, 69, 0
6, 106740, Note_on_c, 2, 69, 100
6, 107097, Note_on_c, 2, 69, 0
6, 107100, Note_on_c, 2, 68, 100
6, 107277, Note_on_c, 2, 68, 0
6, 107400, Note_on_c, 2, 71, 100
6, 107457, Note_on_c, 2, 71, 0
6, 107460, Note_on_c, 2, 72, 100
6, 107517, Note_on_c, 2, 72, 0
6, 107520, Note_on_c, 2, 71, 100
6, 107577, Note_on_c, 2, 71, 0
6, 107580, Note_on_c, 2, 69, 100
6, 107637, Note_on_c, 2, 69, 0
6, 107640, Note_on_c, 2, 68, 100
6, 107697, Note_on_c, 2, 68, 0
6, 107700, Note_on_c, 2, 65, 100
6, 107757, Note_on_c, 2, 65, 0
6, 107760, Note_on_c, 2, 64, 100
6, 107817, Note_on_c, 2, 64, 0
6, 107820, Note_on_c, 2, 60, 100
6, 107937, Note_on_c, 2, 60, 0
6, 108660, Note_on_c, 2, 76, 100
6, 108717, Note_on_c, 2, 76, 0
6, 108720, Note_on_c, 2, 79, 100
6, 108957, Note_on_c, 2, 79, 0
6, 108960, Note_on_c, 2, 78, 100
6, 109017, Note_on_c, 2, 78, 0
6, 109020, Note_on_c, 2, 76, 100
6, 109137, Note_on_c, 2, 76, 0
6, 109140, Note_on_c, 2, 75, 100
6, 109197, Note_on_c, 2, 75, 0
6, 109200, Note_on_c, 2, 73, 100
6, 109257, Note_on_c, 2, 73, 0
6, 109260, Note_on_c, 2, 75, 100
6, 109317, Note_on_c, 2, 75, 0
6, 109320, Note_on_c, 2, 76, 100
6, 109377, Note_on_c, 2, 76, 0
6, 109380, Note_on_c, 2, 78, 100
6, 109437, Note_on_c, 2, 78, 0
6, 109440, Note_on_c, 2, 78, 100
6, 109497, Note_on_c, 2, 78, 0
6, 109500, Note_on_c, 2, 79, 100
6, 109557, Note_on_c, 2, 79, 0
6, 109560, Note_on_c, 2, 81, 100
6, 109617, Note_on_c, 2, 81, 0
6, 109620, Note_on_c, 2, 81, 100
6, 109737, Note_on_c, 2, 81, 0
6, 109980, Note_on_c, 2, 71, 100
6, 110037, Note_on_c, 2, 71, 0
6, 110040, Note_on_c, 2, 69, 100
6, 110097, Note_on_c, 2, 69, 0
6, 110100, Note_on_c, 2, 67, 100
6, 110157, Note_on_c, 2, 67, 0
6, 110160, Note_on_c, 2, 72, 100
6, 110217, Note_on_c, 2, 72, 0
6, 110220, Note_on_c, 2, 71, 100
6, 110277, Note_on_c, 2, 71, 0
6, 110280, Note_on_c, 2, 69, 100
6, 110337, Note_on_c, 2, 69, 0
6, 110340, Note_on_c, 2, 69, 100
6, 110397, Note_on_c, 2, 69, 0
6, 110400, Note_on_c, 2, 71, 100
6, 110457, Note_on_c, 2, 71, 0
6, 110460, Note_on_c, 2, 72, 100
6, 110517, Note_on_c, 2, 72, 0
6, 110520, Note_on_c, 2, 72, 100
6, 110760, Note_on_c, 2, 72, 0
6, 110760, Note_on_c, 2, 71, 100
6, 110820, Note_on_c, 2, 71, 0
6, 110820, Note_on_c, 2, 69, 100
6, 110877, Note_on_c, 2, 69, 0
6, 110880, Note_on_c, 2, 78, 100
6, 110937, Note_on_c, 2, 78, 0
6, 110940, Note_on_c, 2, 71, 100
6, 110998, Note_on_c, 2, 71, 0
6, 111000, Note_on_c, 2, 69, 100
6, 111057, Note_on_c, 2, 69, 0
6, 111060, Note_on_c, 2, 68, 100
6, 111117, Note_on_c, 2, 68, 0
6, 111120, Note_on_c, 2, 69, 100
6, 111177, Note_on_c, 2, 69, 0
6, 111180, Note_on_c, 2, 71, 100
6, 111237, Note_on_c, 2, 71, 0
6, 111240, Note_on_c, 2, 71, 100
6, 111480, Note_on_c, 2, 71, 0
6, 111480, Note_on_c, 2, 69, 100
6, 111537, Note_on_c, 2, 69, 0
6, 111540, Note_on_c, 2, 68, 100
6, 111597, Note_on_c, 2, 68, 0
6, 111600, Note_on_c, 2, 76, 100
6, 111657, Note_on_c, 2, 76, 0
6, 111660, Note_on_c, 2, 69, 100
6, 111717, Note_on_c, 2, 69, 0
6, 111720, Note_on_c, 2, 67, 100
6, 111777, Note_on_c, 2, 67, 0
6, 111780, Note_on_c, 2, 69, 100
6, 111837, Note_on_c, 2, 69, 0
6, 111840, Note_on_c, 2, 67, 100
6, 111897, Note_on_c, 2, 67, 0
6, 111900, Note_on_c, 2, 66, 100
6, 111957, Note_on_c, 2, 66, 0
6, 111960, Note_on_c, 2, 75, 100
6, 112017, Note_on_c, 2, 75, 0
6, 112020, Note_on_c, 2, 76, 100
6, 112077, Note_on_c, 2, 76, 0
6, 112080, Note_on_c, 2, 78, 100
6, 112137, Note_on_c, 2, 78, 0
6, 112140, Note_on_c, 2, 67, 100
6, 112197, Note_on_c, 2, 67, 0
6, 112200, Note_on_c, 2, 72, 100
6, 112258, Note_on_c, 2, 72, 0
6, 112260, Note_on_c, 2, 71, 100
6, 112317, Note_on_c, 2, 71, 0
6, 112320, Note_on_c, 2, 69, 100
6, 112377, Note_on_c, 2, 69, 0
6, 112380, Note_on_c, 2, 67, 100
6, 112437, Note_on_c, 2, 67, 0
6, 112440, Note_on_c, 2, 66, 100
6, 112497, Note_on_c, 2, 66, 0
6, 112500, Note_on_c, 2, 64, 100
6, 112617, Note_on_c, 2, 64, 0
6, 113580, Note_on_c, 2, 71, 100
6, 113697, Note_on_c, 2, 71, 0
6, 113700, Note_on_c, 2, 69, 100
6, 113757, Note_on_c, 2, 69, 0
6, 113760, Note_on_c, 2, 72, 100
6, 113817, Note_on_c, 2, 72, 0
6, 113820, Note_on_c, 2, 71, 100
6, 113877, Note_on_c, 2, 71, 0
6, 113880, Note_on_c, 2, 69, 100
6, 113937, Note_on_c, 2, 69, 0
6, 113940, Note_on_c, 2, 69, 100
6, 113997, Note_on_c, 2, 69, 0
6, 114000, Note_on_c, 2, 71, 100
6, 114057, Note_on_c, 2, 71, 0
6, 114060, Note_on_c, 2, 72, 100
6, 114117, Note_on_c, 2, 72, 0
6, 114120, Note_on_c, 2, 72, 100
6, 114358, Note_on_c, 2, 72, 0
6, 114360, Note_on_c, 2, 71, 100
6, 114417, Note_on_c, 2, 71, 0
6, 114420, Note_on_c, 2, 69, 100
6, 114477, Note_on_c, 2, 69, 0
6, 114480, Note_on_c, 2, 78, 100
6, 114537, Note_on_c, 2, 78, 0
6, 114540, Note_on_c, 2, 71, 100
6, 114597, Note_on_c, 2, 71, 0
6, 114600, Note_on_c, 2, 69, 100
6, 114657, Note_on_c, 2, 69, 0
6, 114660, Note_on_c, 2, 68, 100
6, 114717, Note_on_c, 2, 68, 0
6, 114720, Note_on_c, 2, 69, 100
6, 114777, Note_on_c, 2, 69, 0
6, 114780, Note_on_c, 2, 71, 100
6, 114837, Note_on_c, 2, 71, 0
6, 114840, Note_on_c, 2, 71, 100
6, 115080, Note_on_c, 2, 71, 0
6, 115080, Note_on_c, 2, 69, 100
6, 115137, Note_on_c, 2, 69, 0
6, 115140, Note_on_c, 2, 68, 100
6, 115197, Note_on_c, 2, 68, 0
6, 115200, Note_on_c, 2, 76, 100
6, 115257, Note_on_c, 2, 76, 0
6, 115260, Note_on_c, 2, 69, 100
6, 115320, Note_on_c, 2, 69, 0
6, 115320, Note_on_c, 2, 67, 100
6, 115377, Note_on_c, 2, 67, 0
6, 115380, Note_on_c, 2, 69, 100
6, 115437, Note_on_c, 2, 69, 0
6, 115440, Note_on_c, 2, 67, 100
6, 115497, Note_on_c, 2, 67, 0
6, 115500, Note_on_c, 2, 66, 100
6, 115557, Note_on_c, 2, 66, 0
6, 115560, Note_on_c, 2, 75, 100
6, 115617, Note_on_c, 2, 75, 0
6, 115620, Note_on_c, 2, 76, 100
6, 115677, Note_on_c, 2, 76, 0
6, 115680, Note_on_c, 2, 78, 100
6, 115737, Note_on_c, 2, 78, 0
6, 115740, Note_on_c, 2, 67, 100
6, 115797, Note_on_c, 2, 67, 0
6, 115800, Note_on_c, 2, 72, 100
6, 115857, Note_on_c, 2, 72, 0
6, 115860, Note_on_c, 2, 71, 100
6, 115917, Note_on_c, 2, 71, 0
6, 115920, Note_on_c, 2, 69, 100
6, 115977, Note_on_c, 2, 69, 0
6, 115980, Note_on_c, 2, 67, 100
6, 116037, Note_on_c, 2, 67, 0
6, 116040, Note_on_c, 2, 66, 100
6, 116097, Note_on_c, 2, 66, 0
6, 116100, Note_on_c, 2, 64, 100
6, 116337, Note_on_c, 2, 64, 0
6, 117180, Control_c, 2, 0, 0
6, 117480, Note_on_c, 2, 79, 100
6, 117520, Note_on_c, 2, 79, 0
6, 117540, Note_on_c, 2, 74, 100
6, 117580, Note_on_c, 2, 74, 0
6, 117600, Note_on_c, 2, 79, 100
6, 117640, Note_on_c, 2, 79, 0
6, 117660, Note_on_c, 2, 72, 100
6, 117720, Note_on_c, 2, 72, 0
6, 117750, Note_on_c, 2, 72, 100
6, 117770, Note_on_c, 2, 72, 0
6, 117780, Note_on_c, 2, 72, 100
6, 117860, Note_on_c, 2, 72, 0
6, 117960, Note_on_c, 2, 79, 100
6, 118000, Note_on_c, 2, 79, 0
6, 118020, Note_on_c, 2, 74, 100
6, 118060, Note_on_c, 2, 74, 0
6, 118080, Note_on_c, 2, 79, 100
6, 118120, Note_on_c, 2, 79, 0
6, 118140, Note_on_c, 2, 76, 100
6, 118200, Note_on_c, 2, 76, 0
6, 118230, Note_on_c, 2, 76, 100
6, 118250, Note_on_c, 2, 76, 0
6, 118260, Note_on_c, 2, 76, 100
6, 118340, Note_on_c, 2, 76, 0
6, 119400, Note_on_c, 2, 86, 100
6, 119440, Note_on_c, 2, 86, 0
6, 119460, Note_on_c, 2, 81, 100
6, 119500, Note_on_c, 2, 81, 0
6, 119520, Note_on_c, 2, 86, 100
6, 119560, Note_on_c, 2, 86, 0
6, 119580, Note_on_c, 2, 79, 100
6, 119640, Note_on_c, 2, 79, 0
6, 119670, Note_on_c, 2, 79, 100
6, 119690, Note_on_c, 2, 79, 0
6, 119700, Note_on_c, 2, 79, 100
6, 119780, Note_on_c, 2, 79, 0
6, 119880, Note_on_c, 2, 86, 100
6, 119920, Note_on_c, 2, 86, 0
6, 119940, Note_on_c, 2, 81, 100
6, 119980, Note_on_c, 2, 81, 0
6, 120000, Note_on_c, 2, 86, 100
6, 120040, Note_on_c, 2, 86, 0
6, 120060, Note_on_c, 2, 83, 100
6, 120120, Note_on_c, 2, 83, 0
6, 120150, Note_on_c, 2, 83, 100
6, 120170, Note_on_c, 2, 83, 0
6, 120180, Note_on_c, 2, 83, 100
6, 120260, Note_on_c, 2, 83, 0
6, 121320, Note_on_c, 2, 79, 100
6, 121360, Note_on_c, 2, 79, 0
6, 121380, Note_on_c, 2, 74, 100
6, 121420, Note_on_c, 2, 74, 0
6, 121440, Note_on_c, 2, 79, 100
6, 121480, Note_on_c, 2, 79, 0
6, 121500, Note_on_c, 2, 72, 100
6, 121560, Note_on_c, 2, 72, 0
6, 121590, Note_on_c, 2, 72, 100
6, 121610, Note_on_c, 2, 72, 0
6, 121620, Note_on_c, 2, 72, 100
6, 121700, Note_on_c, 2, 72, 0
6, 121800, Note_on_c, 2, 79, 100
6, 121840, Note_on_c, 2, 79, 0
6, 121860, Note_on_c, 2, 74, 100
6, 121900, Note_on_c, 2, 74, 0
6, 121920, Note_on_c, 2, 79, 100
6, 121960, Note_on_c, 2, 79, 0
6, 121980, Note_on_c, 2, 76, 100
6, 122040, Note_on_c, 2, 76, 0
6, 122070, Note_on_c, 2, 76, 100
6, 122090, Note_on_c, 2, 76, 0
6, 122100, Note_on_c, 2, 76, 100
6, 122180, Note_on_c, 2, 76, 0
6, 123240, Note_on_c, 2, 86, 100
6, 123280, Note_on_c, 2, 86, 0
6, 123300, Note_on_c, 2, 81, 100
6, 123340, Note_on_c, 2, 81, 0
6, 123360, Note_on_c, 2, 86, 100
6, 123400, Note_on_c, 2, 86, 0
6, 123420, Note_on_c, 2, 79, 100
6, 123480, Note_on_c, 2, 79, 0
6, 123510, Note_on_c, 2, 79, 100
6, 123530, Note_on_c, 2, 79, 0
6, 123540, Note_on_c, 2, 79, 100
6, 123620, Note_on_c, 2, 79, 0
6, 123720, Note_on_c, 2, 86, 100
6, 123760, Note_on_c, 2, 86, 0
6, 123780, Note_on_c, 2, 81, 100
6, 123820, Note_on_c, 2, 81, 0
6, 123840, Note_on_c, 2, 86, 100
6, 123880, Note_on_c, 2, 86, 0
6, 123900, Note_on_c, 2, 83, 100
6, 123960, Note_on_c, 2, 83, 0
6, 123990, Note_on_c, 2, 83, 100
6, 124010, Note_on_c, 2, 83, 0
6, 124020, Note_on_c, 2, 83, 100
6, 124100, Note_on_c, 2, 83, 0
6, 125160, Note_on_c, 2, 81, 100
6, 125200, Note_on_c, 2, 81, 0
6, 125220, Note_on_c, 2, 76, 100
6, 125260, Note_on_c, 2, 76, 0
6, 125280, Note_on_c, 2, 81, 100
6, 125320, Note_on_c, 2, 81, 0
6, 125340, Note_on_c, 2, 74, 100
6, 125400, Note_on_c, 2, 74, 0
6, 125430, Note_on_c, 2, 74, 100
6, 125450, Note_on_c, 2, 74, 0
6, 125460, Note_on_c, 2, 74, 100
6, 125540, Note_on_c, 2, 74, 0
6, 125640, Note_on_c, 2, 81, 100
6, 125680, Note_on_c, 2, 81, 0
6, 125700, Note_on_c, 2, 76, 100
6, 125740, Note_on_c, 2, 76, 0
6, 125760, Note_on_c, 2, 81, 100
6, 125800, Note_on_c, 2, 81, 0
6, 125820, Note_on_c, 2, 78, 100
6, 125880, Note_on_c, 2, 78, 0
6, 125910, Note_on_c, 2, 78, 100
6, 125930, Note_on_c, 2, 78, 0
6, 125940, Note_on_c, 2, 78, 100
6, 126020, Note_on_c, 2, 78, 0
6, 126780, Note_on_c, 2, 74, 100
6, 126820, Note_on_c, 2, 74, 0
6, 126840, Note_on_c, 2, 78, 100
6, 126860, Note_on_c, 2, 78, 0
6, 126870, Note_on_c, 2, 76, 100
6, 126890, Note_on_c, 2, 76, 0
6, 126900, Note_on_c, 2, 74, 100
6, 126940, Note_on_c, 2, 74, 0
6, 126960, Note_on_c, 2, 74, 100
6, 127000, Note_on_c, 2, 74, 0
6, 127020, Note_on_c, 2, 74, 100
6, 127040, Note_on_c, 2, 74, 0
6, 127050, Note_on_c, 2, 78, 100
6, 127070, Note_on_c, 2, 78, 0
6, 127080, Note_on_c, 2, 76, 100
6, 127100, Note_on_c, 2, 76, 0
6, 127110, Note_on_c, 2, 78, 100
6, 127130, Note_on_c, 2, 78, 0
6, 127140, Note_on_c, 2, 74, 100
6, 127160, Note_on_c, 2, 74, 0
6, 127170, Note_on_c, 2, 78, 100
6, 127190, Note_on_c, 2, 78, 0
6, 127200, Note_on_c, 2, 76, 100
6, 127220, Note_on_c, 2, 76, 0
6, 127230, Note_on_c, 2, 74, 100
6, 127250, Note_on_c, 2, 74, 0
6, 127260, Note_on_c, 2, 79, 100
6, 127280, Note_on_c, 2, 79, 0
6, 127290, Note_on_c, 2, 78, 100
6, 127310, Note_on_c, 2, 78, 0
6, 127320, Note_on_c, 2, 76, 100
6, 127340, Note_on_c, 2, 76, 0
6, 127350, Note_on_c, 2, 78, 100
6, 127370, Note_on_c, 2, 78, 0
6, 127380, Note_on_c, 2, 74, 100
6, 127400, Note_on_c, 2, 74, 0
6, 127410, Note_on_c, 2, 78, 100
6, 127430, Note_on_c, 2, 78, 0
6, 127440, Note_on_c, 2, 76, 100
6, 127460, Note_on_c, 2, 76, 0
6, 127470, Note_on_c, 2, 74, 100
6, 127490, Note_on_c, 2, 74, 0
6, 127500, Note_on_c, 2, 81, 100
6, 127520, Note_on_c, 2, 81, 0
6, 127530, Note_on_c, 2, 78, 100
6, 127550, Note_on_c, 2, 78, 0
6, 127560, Note_on_c, 2, 76, 100
6, 127580, Note_on_c, 2, 76, 0
6, 127590, Note_on_c, 2, 78, 100
6, 127610, Note_on_c, 2, 78, 0
6, 127620, Note_on_c, 2, 74, 100
6, 127640, Note_on_c, 2, 74, 0
6, 127650, Note_on_c, 2, 78, 100
6, 127670, Note_on_c, 2, 78, 0
6, 127680, Note_on_c, 2, 76, 100
6, 127700, Note_on_c, 2, 76, 0
6, 127710, Note_on_c, 2, 74, 100
6, 127730, Note_on_c, 2, 74, 0
6, 127740, Note_on_c, 2, 83, 100
6, 127760, Note_on_c, 2, 83, 0
6, 127770, Note_on_c, 2, 86, 100
6, 127790, Note_on_c, 2, 86, 0
6, 127800, Note_on_c, 2, 85, 100
6, 127820, Note_on_c, 2, 85, 0
6, 127830, Note_on_c, 2, 86, 100
6, 127850, Note_on_c, 2, 86, 0
6, 127860, Note_on_c, 2, 83, 100
6, 127880, Note_on_c, 2, 83, 0
6, 127890, Note_on_c, 2, 85, 100
6, 127910, Note_on_c, 2, 85, 0
6, 127920, Note_on_c, 2, 81, 100
6, 127940, Note_on_c, 2, 81, 0
6, 127950, Note_on_c, 2, 83, 100
6, 127970, Note_on_c, 2, 83, 0
6, 127980, Note_on_c, 2, 79, 100
6, 128000, Note_on_c, 2, 79, 0
6, 128010, Note_on_c, 2, 81, 100
6, 128030, Note_on_c, 2, 81, 0
6, 128040, Note_on_c, 2, 78, 100
6, 128060, Note_on_c, 2, 78, 0
6, 128070, Note_on_c, 2, 79, 100
6, 128090, Note_on_c, 2, 79, 0
6, 128100, Note_on_c, 2, 76, 100
6, 128120, Note_on_c, 2, 76, 0
6, 128130, Note_on_c, 2, 81, 100
6, 128150, Note_on_c, 2, 81, 0
6, 128160, Note_on_c, 2, 79, 100
6, 128180, Note_on_c, 2, 79, 0
6, 128190, Note_on_c, 2, 81, 100
6, 128210, Note_on_c, 2, 81, 0
6, 128220, Note_on_c, 2, 78, 100
6, 128260, Note_on_c, 2, 78, 0
6, 128280, Note_on_c, 2, 76, 100
6, 128300, Note_on_c, 2, 76, 0
6, 128310, Note_on_c, 2, 78, 100
6, 128330, Note_on_c, 2, 78, 0
6, 128340, Note_on_c, 2, 74, 100
6, 128380, Note_on_c, 2, 74, 0
6, 128400, Note_on_c, 2, 76, 100
6, 128440, Note_on_c, 2, 76, 0
6, 128460, Note_on_c, 2, 78, 100
6, 128500, Note_on_c, 2, 78, 0
6, 128520, Note_on_c, 2, 74, 100
6, 128540, Note_on_c, 2, 74, 0
6, 128550, Note_on_c, 2, 78, 100
6, 128570, Note_on_c, 2, 78, 0
6, 128580, Note_on_c, 2, 80, 100
6, 128620, Note_on_c, 2, 80, 0
6, 128640, Note_on_c, 2, 74, 100
6, 128660, Note_on_c, 2, 74, 0
6, 128670, Note_on_c, 2, 80, 100
6, 128690, Note_on_c, 2, 80, 0
6, 128700, Note_on_c, 2, 81, 100
6, 128740, Note_on_c, 2, 81, 0
6, 128760, Note_on_c, 2, 69, 100
6, 128780, Note_on_c, 2, 69, 0
6, 128790, Note_on_c, 2, 73, 100
6, 128810, Note_on_c, 2, 73, 0
6, 128820, Note_on_c, 2, 75, 100
6, 128860, Note_on_c, 2, 75, 0
6, 128880, Note_on_c, 2, 69, 100
6, 128900, Note_on_c, 2, 69, 0
6, 128910, Note_on_c, 2, 75, 100
6, 128930, Note_on_c, 2, 75, 0
6, 128940, Note_on_c, 2, 80, 100
6, 128980, Note_on_c, 2, 80, 0
6, 129000, Note_on_c, 2, 76, 100
6, 129020, Note_on_c, 2, 76, 0
6, 129030, Note_on_c, 2, 80, 100
6, 129050, Note_on_c, 2, 80, 0
6, 129060, Note_on_c, 2, 82, 100
6, 129100, Note_on_c, 2, 82, 0
6, 129120, Note_on_c, 2, 76, 100
6, 129140, Note_on_c, 2, 76, 0
6, 129150, Note_on_c, 2, 82, 100
6, 129170, Note_on_c, 2, 82, 0
6, 129180, Note_on_c, 2, 83, 100
6, 129220, Note_on_c, 2, 83, 0
6, 129240, Note_on_c, 2, 74, 100
6, 129260, Note_on_c, 2, 74, 0
6, 129270, Note_on_c, 2, 78, 100
6, 129290, Note_on_c, 2, 78, 0
6, 129300, Note_on_c, 2, 79, 100
6, 129340, Note_on_c, 2, 79, 0
6, 129360, Note_on_c, 2, 76, 100
6, 129380, Note_on_c, 2, 76, 0
6, 129390, Note_on_c, 2, 79, 100
6, 129410, Note_on_c, 2, 79, 0
6, 129420, Note_on_c, 2, 73, 100
6, 129460, Note_on_c, 2, 73, 0
6, 129600, Note_on_c, 2, 86, 100
6, 129640, Note_on_c, 2, 86, 0
6, 129660, Note_on_c, 2, 86, 100
6, 129700, Note_on_c, 2, 86, 0
6, 129840, Note_on_c, 2, 85, 100
6, 129880, Note_on_c, 2, 85, 0
6, 129900, Note_on_c, 2, 85, 100
6, 129940, Note_on_c, 2, 85, 0
6, 130170, Note_on_c, 2, 64, 100
6, 130190, Note_on_c, 2, 64, 0
6, 130200, Note_on_c, 2, 69, 100
6, 130220, Note_on_c, 2, 69, 0
6, 130230, Note_on_c, 2, 73, 100
6, 130250, Note_on_c, 2, 73, 0
6, 130260, Note_on_c, 2, 76, 100
6, 130280, Note_on_c, 2, 76, 0
6, 130290, Note_on_c, 2, 69, 100
6, 130310, Note_on_c, 2, 69, 0
6, 130320, Note_on_c, 2, 73, 100
6, 130340, Note_on_c, 2, 73, 0
6, 130350, Note_on_c, 2, 76, 100
6, 130370, Note_on_c, 2, 76, 0
6, 130380, Note_on_c, 2, 80, 100
6, 130420, Note_on_c, 2, 80, 0
6, 130440, Note_on_c, 2, 80, 100
6, 130480, Note_on_c, 2, 80, 0
6, 130740, Note_on_c, 2, 78, 100
6, 130978, Note_on_c, 2, 78, 0
6, 130980, Note_on_c, 2, 78, 100
6, 131098, Note_on_c, 2, 78, 0
6, 131100, Note_on_c, 2, 74, 100
6, 131338, Note_on_c, 2, 74, 0
6, 131340, Note_on_c, 2, 74, 100
6, 131578, Note_on_c, 2, 74, 0
6, 131580, Note_on_c, 2, 74, 100
6, 131818, Note_on_c, 2, 74, 0
6, 131820, Note_on_c, 2, 73, 100
6, 132058, Note_on_c, 2, 73, 0
6, 132060, Note_on_c, 2, 71, 100
6, 132178, Note_on_c, 2, 71, 0
6, 132180, Note_on_c, 2, 78, 100
6, 132418, Note_on_c, 2, 78, 0
6, 132420, Note_on_c, 2, 79, 100
6, 132478, Note_on_c, 2, 79, 0
6, 132480, Note_on_c, 2, 76, 100
6, 132538, Note_on_c, 2, 76, 0
6, 132540, Note_on_c, 2, 76, 100
6, 132778, Note_on_c, 2, 76, 0
6, 132780, Note_on_c, 2, 74, 100
6, 133018, Note_on_c, 2, 74, 0
6, 133020, Note_on_c, 2, 74, 100
6, 133258, Note_on_c, 2, 74, 0
6, 133260, Note_on_c, 2, 73, 100
6, 133498, Note_on_c, 2, 73, 0
6, 133500, Note_on_c, 2, 74, 100
6, 133978, Note_on_c, 2, 74, 0
6, 159300, Control_c, 2, 0, 0
6, 159300, Note_on_c, 2, 76, 100
6, 159330, Note_on_c, 2, 76, 0
6, 159330, Note_on_c, 2, 78, 100
6, 159360, Note_on_c, 2, 78, 0
6, 159360, Note_on_c, 2, 80, 100
6, 159450, Note_on_c, 2, 80, 0
6, 159450, Note_on_c, 2, 81, 100
6, 159480, Note_on_c, 2, 81, 0
6, 159480, Note_on_c, 2, 78, 100
6, 159540, Note_on_c, 2, 78, 0
6, 159540, Note_on_c, 2, 80, 100
6, 159570, Note_on_c, 2, 80, 0
6, 159570, Note_on_c, 2, 78, 100
6, 159600, Note_on_c, 2, 78, 0
6, 159600, Note_on_c, 2, 76, 100
6, 159690, Note_on_c, 2, 76, 0
6, 159690, Note_on_c, 2, 78, 100
6, 159720, Note_on_c, 2, 78, 0
6, 159720, Note_on_c, 2, 75, 100
6, 159780, Note_on_c, 2, 75, 0
6, 159780, Note_on_c, 2, 76, 100
6, 159810, Note_on_c, 2, 76, 0
6, 159810, Note_on_c, 2, 78, 100
6, 159840, Note_on_c, 2, 78, 0
6, 159840, Note_on_c, 2, 80, 100
6, 159870, Note_on_c, 2, 80, 0
6, 159870, Note_on_c, 2, 81, 100
6, 159900, Note_on_c, 2, 81, 0
6, 159900, Note_on_c, 2, 83, 100
6, 159930, Note_on_c, 2, 83, 0
6, 159930, Note_on_c, 2, 86, 100
6, 159960, Note_on_c, 2, 86, 0
6, 159960, Note_on_c, 2, 85, 100
6, 160020, Note_on_c, 2, 85, 0
6, 160020, Note_on_c, 2, 83, 100
6, 160027, Note_on_c, 2, 83, 0
6, 160027, Note_on_c, 2, 85, 100
6, 160034, Note_on_c, 2, 85, 0
6, 160035, Note_on_c, 2, 83, 100
6, 160042, Note_on_c, 2, 83, 0
6, 160042, Note_on_c, 2, 85, 100
6, 160049, Note_on_c, 2, 85, 0
6, 160050, Note_on_c, 2, 83, 100
6, 160060, Note_on_c, 2, 83, 0
6, 160060, Note_on_c, 2, 85, 100
6, 160070, Note_on_c, 2, 85, 0
6, 160070, Note_on_c, 2, 83, 100
6, 160080, Note_on_c, 2, 83, 0
6, 160080, Note_on_c, 2, 81, 100
6, 160140, Note_on_c, 2, 81, 0
6, 160260, Note_on_c, 2, 78, 100
6, 160290, Note_on_c, 2, 78, 0
6, 160290, Note_on_c, 2, 80, 100
6, 160320, Note_on_c, 2, 80, 0
6, 160320, Note_on_c, 2, 81, 100
6, 160410, Note_on_c, 2, 81, 0
6, 160410, Note_on_c, 2, 83, 100
6, 160440, Note_on_c, 2, 83, 0
6, 160440, Note_on_c, 2, 80, 100
6, 160500, Note_on_c, 2, 80, 0
6, 160500, Note_on_c, 2, 81, 100
6, 160530, Note_on_c, 2, 81, 0
6, 160530, Note_on_c, 2, 80, 100
6, 160560, Note_on_c, 2, 80, 0
6, 160560, Note_on_c, 2, 78, 100
6, 160650, Note_on_c, 2, 78, 0
6, 160650, Note_on_c, 2, 80, 100
6, 160680, Note_on_c, 2, 80, 0
6, 160680, Note_on_c, 2, 77, 100
6, 160740, Note_on_c, 2, 77, 0
6, 160740, Note_on_c, 2, 78, 100
6, 160770, Note_on_c, 2, 78, 0
6, 160770, Note_on_c, 2, 80, 100
6, 160800, Note_on_c, 2, 80, 0
6, 160800, Note_on_c, 2, 81, 100
6, 160830, Note_on_c, 2, 81, 0
6, 160830, Note_on_c, 2, 83, 100
6, 160860, Note_on_c, 2, 83, 0
6, 160860, Note_on_c, 2, 85, 100
6, 160890, Note_on_c, 2, 85, 0
6, 160890, Note_on_c, 2, 81, 100
6, 160920, Note_on_c, 2, 81, 0
6, 160920, Note_on_c, 2, 83, 100
6, 160980, Note_on_c, 2, 83, 0
6, 160980, Note_on_c, 2, 81, 100
6, 160987, Note_on_c, 2, 81, 0
6, 160987, Note_on_c, 2, 83, 100
6, 160994, Note_on_c, 2, 83, 0
6, 160995, Note_on_c, 2, 81, 100
6, 161002, Note_on_c, 2, 81, 0
6, 161002, Note_on_c, 2, 83, 100
6, 161009, Note_on_c, 2, 83, 0
6, 161010, Note_on_c, 2, 81, 100
6, 161020, Note_on_c, 2, 81, 0
6, 161020, Note_on_c, 2, 83, 100
6, 161030, Note_on_c, 2, 83, 0
6, 161030, Note_on_c, 2, 81, 100
6, 161040, Note_on_c, 2, 81, 0
6, 161040, Note_on_c, 2, 80, 100
6, 161100, Note_on_c, 2, 80, 0
6, 161100, Note_on_c, 2, 83, 100
6, 161250, Note_on_c, 2, 83, 0
6, 161250, Note_on_c, 2, 85, 100
6, 161280, Note_on_c, 2, 85, 0
6, 161280, Note_on_c, 2, 83, 100
6, 161310, Note_on_c, 2, 83, 0
6, 161310, Note_on_c, 2, 81, 100
6, 161340, Note_on_c, 2, 81, 0
6, 161340, Note_on_c, 2, 80, 100
6, 161370, Note_on_c, 2, 80, 0
6, 161370, Note_on_c, 2, 78, 100
6, 161400, Note_on_c, 2, 78, 0
6, 161400, Note_on_c, 2, 76, 100
6, 161430, Note_on_c, 2, 76, 0
6, 161430, Note_on_c, 2, 74, 100
6, 161460, Note_on_c, 2, 74, 0
6, 161460, Note_on_c, 2, 73, 100
6, 161520, Note_on_c, 2, 73, 0
6, 161520, Note_on_c, 2, 69, 100
6, 161580, Note_on_c, 2, 69, 0
6, 161580, Note_on_c, 2, 78, 100
6, 161730, Note_on_c, 2, 78, 0
6, 161730, Note_on_c, 2, 80, 100
6, 161760, Note_on_c, 2, 80, 0
6, 161760, Note_on_c, 2, 78, 100
6, 161790, Note_on_c, 2, 78, 0
6, 161790, Note_on_c, 2, 76, 100
6, 161820, Note_on_c, 2, 76, 0
6, 161820, Note_on_c, 2, 75, 100
6, 161850, Note_on_c, 2, 75, 0
6, 161850, Note_on_c, 2, 73, 100
6, 161880, Note_on_c, 2, 73, 0
6, 161880, Note_on_c, 2, 71, 100
6, 161910, Note_on_c, 2, 71, 0
6, 161910, Note_on_c, 2, 69, 100
6, 161940, Note_on_c, 2, 69, 0
6, 161940, Note_on_c, 2, 68, 100
6, 162000, Note_on_c, 2, 68, 0
6, 162000, Note_on_c, 2, 64, 100
6, 162060, Note_on_c, 2, 64, 0
6, 162060, Note_on_c, 2, 80, 100
6, 162210, Note_on_c, 2, 80, 0
6, 162210, Note_on_c, 2, 78, 100
6, 162240, Note_on_c, 2, 78, 0
6, 162240, Note_on_c, 2, 80, 100
6, 162270, Note_on_c, 2, 80, 0
6, 162270, Note_on_c, 2, 81, 100
6, 162300, Note_on_c, 2, 81, 0
6, 162300, Note_on_c, 2, 78, 100
6, 162307, Note_on_c, 2, 78, 0
6, 162307, Note_on_c, 2, 80, 100
6, 162314, Note_on_c, 2, 80, 0
6, 162315, Note_on_c, 2, 78, 100
6, 162322, Note_on_c, 2, 78, 0
6, 162322, Note_on_c, 2, 80, 100
6, 162329, Note_on_c, 2, 80, 0
6, 162330, Note_on_c, 2, 78, 100
6, 162337, Note_on_c, 2, 78, 0
6, 162337, Note_on_c, 2, 80, 100
6, 162344, Note_on_c, 2, 80, 0
6, 162345, Note_on_c, 2, 78, 100
6, 162352, Note_on_c, 2, 78, 0
6, 162352, Note_on_c, 2, 80, 100
6, 162359, Note_on_c, 2, 80, 0
6, 162360, Note_on_c, 2, 78, 100
6, 162370, Note_on_c, 2, 78, 0
6, 162370, Note_on_c, 2, 80, 100
6, 162380, Note_on_c, 2, 80, 0
6, 162380, Note_on_c, 2, 78, 100
6, 162390, Note_on_c, 2, 78, 0
6, 162390, Note_on_c, 2, 76, 100
6, 162405, Note_on_c, 2, 76, 0
6, 162405, Note_on_c, 2, 78, 100
6, 162420, Note_on_c, 2, 78, 0
6, 162420, Note_on_c, 2, 76, 100
6, 162450, Note_on_c, 2, 76, 0
6, 162450, Note_on_c, 2, 78, 100
6, 162480, Note_on_c, 2, 78, 0
6, 162480, Note_on_c, 2, 80, 100
6, 162510, Note_on_c, 2, 80, 0
6, 162510, Note_on_c, 2, 81, 100
6, 162540, Note_on_c, 2, 81, 0
6, 162540, Note_on_c, 2, 83, 100
6, 162570, Note_on_c, 2, 83, 0
6, 162570, Note_on_c, 2, 80, 100
6, 162600, Note_on_c, 2, 80, 0
6, 162600, Note_on_c, 2, 81, 100
6, 162660, Note_on_c, 2, 81, 0
6, 162660, Note_on_c, 2, 80, 100
6, 162720, Note_on_c, 2, 80, 0
6, 162900, Note_on_c, 2, 76, 100
6, 162930, Note_on_c, 2, 76, 0
6, 162930, Note_on_c, 2, 78, 100
6, 162960, Note_on_c, 2, 78, 0
6, 162960, Note_on_c, 2, 80, 100
6, 163050, Note_on_c, 2, 80, 0
6, 163050, Note_on_c, 2, 81, 100
6, 163080, Note_on_c, 2, 81, 0
6, 163080, Note_on_c, 2, 78, 100
6, 163140, Note_on_c, 2, 78, 0
6, 163140, Note_on_c, 2, 80, 100
6, 163170, Note_on_c, 2, 80, 0
6, 163170, Note_on_c, 2, 78, 100
6, 163200, Note_on_c, 2, 78, 0
6, 163200, Note_on_c, 2, 76, 100
6, 163230, Note_on_c, 2, 76, 0
6, 163230, Note_on_c, 2, 78, 100
6, 163260, Note_on_c, 2, 78, 0
6, 163260, Note_on_c, 2, 80, 100
6, 163290, Note_on_c, 2, 80, 0
6, 163290, Note_on_c, 2, 83, 100
6, 163320, Note_on_c, 2, 83, 0
6, 163320, Note_on_c, 2, 81, 100
6, 163380, Note_on_c, 2, 81, 0
6, 163380, Note_on_c, 2, 80, 100
6, 163387, Note_on_c, 2, 80, 0
6, 163387, Note_on_c, 2, 81, 100
6, 163394, Note_on_c, 2, 81, 0
6, 163395, Note_on_c, 2, 80, 100
6, 163402, Note_on_c, 2, 80, 0
6, 163402, Note_on_c, 2, 81, 100
6, 163409, Note_on_c, 2, 81, 0
6, 163410, Note_on_c, 2, 80, 100
6, 163420, Note_on_c, 2, 80, 0
6, 163420, Note_on_c, 2, 81, 100
6, 163430, Note_on_c, 2, 81, 0
6, 163430, Note_on_c, 2, 80, 100
6, 163440, Note_on_c, 2, 80, 0
6, 163440, Note_on_c, 2, 78, 100
6, 163500, Note_on_c, 2, 78, 0
6, 163860, Note_on_c, 2, 78, 100
6, 163890, Note_on_c, 2, 78, 0
6, 163890, Note_on_c, 2, 80, 100
6, 163920, Note_on_c, 2, 80, 0
6, 163920, Note_on_c, 2, 81, 100
6, 164010, Note_on_c, 2, 81, 0
6, 164010, Note_on_c, 2, 83, 100
6, 164040, Note_on_c, 2, 83, 0
6, 164040, Note_on_c, 2, 80, 100
6, 164100, Note_on_c, 2, 80, 0
6, 164100, Note_on_c, 2, 81, 100
6, 164130, Note_on_c, 2, 81, 0
6, 164130, Note_on_c, 2, 80, 100
6, 164160, Note_on_c, 2, 80, 0
6, 164160, Note_on_c, 2, 78, 100
6, 164190, Note_on_c, 2, 78, 0
6, 164190, Note_on_c, 2, 80, 100
6, 164220, Note_on_c, 2, 80, 0
6, 164220, Note_on_c, 2, 81, 100
6, 164250, Note_on_c, 2, 81, 0
6, 164250, Note_on_c, 2, 78, 100
6, 164280, Note_on_c, 2, 78, 0
6, 164280, Note_on_c, 2, 80, 100
6, 164340, Note_on_c, 2, 80, 0
6, 164340, Note_on_c, 2, 78, 100
6, 164347, Note_on_c, 2, 78, 0
6, 164347, Note_on_c, 2, 80, 100
6, 164354, Note_on_c, 2, 80, 0
6, 164355, Note_on_c, 2, 78, 100
6, 164362, Note_on_c, 2, 78, 0
6, 164362, Note_on_c, 2, 80, 100
6, 164369, Note_on_c, 2, 80, 0
6, 164370, Note_on_c, 2, 78, 100
6, 164380, Note_on_c, 2, 78, 0
6, 164380, Note_on_c, 2, 80, 100
6, 164390, Note_on_c, 2, 80, 0
6, 164390, Note_on_c, 2, 78, 100
6, 164400, Note_on_c, 2, 78, 0
6, 164400, Note_on_c, 2, 76, 100
6, 164460, Note_on_c, 2, 76, 0
6, 164640, Note_on_c, 2, 83, 100
6, 164670, Note_on_c, 2, 83, 0
6, 164670, Note_on_c, 2, 85, 100
6, 164700, Note_on_c, 2, 85, 0
6, 164700, Note_on_c, 2, 83, 100
6, 164730, Note_on_c, 2, 83, 0
6, 164730, Note_on_c, 2, 81, 100
6, 164760, Note_on_c, 2, 81, 0
6, 164760, Note_on_c, 2, 80, 100
6, 164790, Note_on_c, 2, 80, 0
6, 164790, Note_on_c, 2, 78, 100
6, 164820, Note_on_c, 2, 78, 0
6, 164820, Note_on_c, 2, 76, 100
6, 164850, Note_on_c, 2, 76, 0
6, 164850, Note_on_c, 2, 74, 100
6, 164880, Note_on_c, 2, 74, 0
6, 164880, Note_on_c, 2, 76, 100
6, 164910, Note_on_c, 2, 76, 0
6, 164910, Note_on_c, 2, 78, 100
6, 164940, Note_on_c, 2, 78, 0
6, 164940, Note_on_c, 2, 76, 100
6, 164970, Note_on_c, 2, 76, 0
6, 164970, Note_on_c, 2, 74, 100
6, 165000, Note_on_c, 2, 74, 0
6, 165000, Note_on_c, 2, 73, 100
6, 165030, Note_on_c, 2, 73, 0
6, 165030, Note_on_c, 2, 71, 100
6, 165060, Note_on_c, 2, 71, 0
6, 165060, Note_on_c, 2, 69, 100
6, 165120, Note_on_c, 2, 69, 0
6, 165120, Note_on_c, 2, 85, 100
6, 165150, Note_on_c, 2, 85, 0
6, 165150, Note_on_c, 2, 86, 100
6, 165180, Note_on_c, 2, 86, 0
6, 165180, Note_on_c, 2, 85, 100
6, 165210, Note_on_c, 2, 85, 0
6, 165210, Note_on_c, 2, 83, 100
6, 165240, Note_on_c, 2, 83, 0
6, 165240, Note_on_c, 2, 81, 100
6, 165270, Note_on_c, 2, 81, 0
6, 165270, Note_on_c, 2, 80, 100
6, 165300, Note_on_c, 2, 80, 0
6, 165300, Note_on_c, 2, 78, 100
6, 165330, Note_on_c, 2, 78, 0
6, 165330, Note_on_c, 2, 76, 100
6, 165360, Note_on_c, 2, 76, 0
6, 165360, Note_on_c, 2, 78, 100
6, 165390, Note_on_c, 2, 78, 0
6, 165390, Note_on_c, 2, 80, 100
6, 165420, Note_on_c, 2, 80, 0
6, 165420, Note_on_c, 2, 78, 100
6, 165450, Note_on_c, 2, 78, 0
6, 165450, Note_on_c, 2, 76, 100
6, 165480, Note_on_c, 2, 76, 0
6, 165480, Note_on_c, 2, 75, 100
6, 165510, Note_on_c, 2, 75, 0
6, 165510, Note_on_c, 2, 73, 100
6, 165540, Note_on_c, 2, 73, 0
6, 165540, Note_on_c, 2, 71, 100
6, 165600, Note_on_c, 2, 71, 0
6, 165600, Note_on_c, 2, 78, 100
6, 165660, Note_on_c, 2, 78, 0
6, 165660, Note_on_c, 2, 82, 100
6, 165720, Note_on_c, 2, 82, 0
6, 165720, Note_on_c, 2, 83, 100
6, 165780, Note_on_c, 2, 83, 0
6, 165840, Note_on_c, 2, 83, 100
6, 165900, Note_on_c, 2, 83, 0
6, 165900, Note_on_c, 2, 77, 100
6, 165960, Note_on_c, 2, 77, 0
6, 165960, Note_on_c, 2, 78, 100
6, 166020, Note_on_c, 2, 78, 0
6, 166080, Note_on_c, 2, 87, 100
6, 166140, Note_on_c, 2, 87, 0
6, 166140, Note_on_c, 2, 82, 100
6, 166200, Note_on_c, 2, 82, 0
6, 166200, Note_on_c, 2, 83, 100
6, 166260, Note_on_c, 2, 83, 0
6, 166320, Note_on_c, 2, 88, 100
6, 166380, Note_on_c, 2, 88, 0
6, 166380, Note_on_c, 2, 82, 100
6, 166440, Note_on_c, 2, 82, 0
6, 166440, Note_on_c, 2, 83, 100
6, 166500, Note_on_c, 2, 83, 0
6, 166560, Note_on_c, 2, 90, 100
6, 166620, Note_on_c, 2, 90, 0
6, 166620, Note_on_c, 2, 82, 100
6, 166680, Note_on_c, 2, 82, 0
6, 166680, Note_on_c, 2, 83, 100
6, 166740, Note_on_c, 2, 83, 0
6, 166980, Note_on_c, 2, 75, 100
6, 167010, Note_on_c, 2, 75, 0
6, 167010, Note_on_c, 2, 76, 100
6, 167040, Note_on_c, 2, 76, 0
6, 167040, Note_on_c, 2, 78, 100
6, 167130, Note_on_c, 2, 78, 0
6, 167130, Note_on_c, 2, 80, 100
6, 167160, Note_on_c, 2, 80, 0
6, 167160, Note_on_c, 2, 76, 100
6, 167220, Note_on_c, 2, 76, 0
6, 167220, Note_on_c, 2, 78, 100
6, 167250, Note_on_c, 2, 78, 0
6, 167250, Note_on_c, 2, 76, 100
6, 167280, Note_on_c, 2, 76, 0
6, 167280, Note_on_c, 2, 75, 100
6, 167370, Note_on_c, 2, 75, 0
6, 167370, Note_on_c, 2, 76, 100
6, 167400, Note_on_c, 2, 76, 0
6, 167400, Note_on_c, 2, 73, 100
6, 167460, Note_on_c, 2, 73, 0
6, 167460, Note_on_c, 2, 75, 100
6, 167520, Note_on_c, 2, 75, 0
6, 167520, Note_on_c, 2, 83, 100
6, 167550, Note_on_c, 2, 83, 0
6, 167550, Note_on_c, 2, 85, 100
6, 167580, Note_on_c, 2, 85, 0
6, 167580, Note_on_c, 2, 87, 100
6, 167610, Note_on_c, 2, 87, 0
6, 167610, Note_on_c, 2, 90, 100
6, 167640, Note_on_c, 2, 90, 0
6, 167640, Note_on_c, 2, 88, 100
6, 167680, Note_on_c, 2, 88, 0
6, 167700, Note_on_c, 2, 87, 100
6, 167707, Note_on_c, 2, 87, 0
6, 167707, Note_on_c, 2, 88, 100
6, 167714, Note_on_c, 2, 88, 0
6, 167715, Note_on_c, 2, 87, 100
6, 167722, Note_on_c, 2, 87, 0
6, 167722, Note_on_c, 2, 88, 100
6, 167729, Note_on_c, 2, 88, 0
6, 167730, Note_on_c, 2, 87, 100
6, 167740, Note_on_c, 2, 87, 0
6, 167740, Note_on_c, 2, 88, 100
6, 167750, Note_on_c, 2, 88, 0
6, 167750, Note_on_c, 2, 87, 100
6, 167760, Note_on_c, 2, 87, 0
6, 167760, Note_on_c, 2, 85, 100
6, 167820, Note_on_c, 2, 85, 0
6, 167940, Note_on_c, 2, 76, 100
6, 167970, Note_on_c, 2, 76, 0
6, 167970, Note_on_c, 2, 78, 100
6, 168000, Note_on_c, 2, 78, 0
6, 168000, Note_on_c, 2, 80, 100
6, 168090, Note_on_c, 2, 80, 0
6, 168090, Note_on_c, 2, 81, 100
6, 168120, Note_on_c, 2, 81, 0
6, 168120, Note_on_c, 2, 78, 100
6, 168180, Note_on_c, 2, 78, 0
6, 168180, Note_on_c, 2, 80, 100
6, 168210, Note_on_c, 2, 80, 0
6, 168210, Note_on_c, 2, 78, 100
6, 168240, Note_on_c, 2, 78, 0
6, 168240, Note_on_c, 2, 76, 100
6, 168330, Note_on_c, 2, 76, 0
6, 168330, Note_on_c, 2, 78, 100
6, 168360, Note_on_c, 2, 78, 0
6, 168360, Note_on_c, 2, 75, 100
6, 168420, Note_on_c, 2, 75, 0
6, 168420, Note_on_c, 2, 76, 100
6, 168480, Note_on_c, 2, 76, 0
6, 168480, Note_on_c, 2, 85, 100
6, 168510, Note_on_c, 2, 85, 0
6, 168510, Note_on_c, 2, 87, 100
6, 168540, Note_on_c, 2, 87, 0
6, 168540, Note_on_c, 2, 88, 100
6, 168570, Note_on_c, 2, 88, 0
6, 168570, Note_on_c, 2, 85, 100
6, 168600, Note_on_c, 2, 85, 0
6, 168600, Note_on_c, 2, 87, 100
6, 168660, Note_on_c, 2, 87, 0
6, 168660, Note_on_c, 2, 85, 100
6, 168667, Note_on_c, 2, 85, 0
6, 168667, Note_on_c, 2, 87, 100
6, 168674, Note_on_c, 2, 87, 0
6, 168675, Note_on_c, 2, 85, 100
6, 168682, Note_on_c, 2, 85, 0
6, 168682, Note_on_c, 2, 87, 100
6, 168689, Note_on_c, 2, 87, 0
6, 168690, Note_on_c, 2, 85, 100
6, 168700, Note_on_c, 2, 85, 0
6, 168700, Note_on_c, 2, 87, 100
6, 168710, Note_on_c, 2, 87, 0
6, 168710, Note_on_c, 2, 85, 100
6, 168720, Note_on_c, 2, 85, 0
6, 168720, Note_on_c, 2, 83, 100
6, 168780, Note_on_c, 2, 83, 0
6, 168900, Note_on_c, 2, 71, 100
6, 168930, Note_on_c, 2, 73, 100
6, 168937, Note_on_c, 2, 71, 0
6, 168960, Note_on_c, 2, 73, 0
6, 168960, Note_on_c, 2, 75, 100
6, 169050, Note_on_c, 2, 75, 0
6, 169050, Note_on_c, 2, 78, 100
6, 169080, Note_on_c, 2, 78, 0
6, 169080, Note_on_c, 2, 77, 100
6, 169140, Note_on_c, 2, 77, 0
6, 169140, Note_on_c, 2, 78, 100
6, 169170, Note_on_c, 2, 78, 0
6, 169170, Note_on_c, 2, 80, 100
6, 169200, Note_on_c, 2, 80, 0
6, 169200, Note_on_c, 2, 81, 100
6, 169290, Note_on_c, 2, 81, 0
6, 169290, Note_on_c, 2, 85, 100
6, 169320, Note_on_c, 2, 85, 0
6, 169320, Note_on_c, 2, 83, 100
6, 169380, Note_on_c, 2, 83, 0
6, 169380, Note_on_c, 2, 83, 100
6, 169438, Note_on_c, 2, 83, 0
6, 169440, Note_on_c, 2, 76, 100
6, 169468, Note_on_c, 2, 76, 0
6, 169470, Note_on_c, 2, 78, 100
6, 169498, Note_on_c, 2, 78, 0
6, 169500, Note_on_c, 2, 80, 100
6, 169528, Note_on_c, 2, 80, 0
6, 169530, Note_on_c, 2, 78, 100
6, 169558, Note_on_c, 2, 78, 0
6, 169560, Note_on_c, 2, 76, 100
6, 169588, Note_on_c, 2, 76, 0
6, 169590, Note_on_c, 2, 78, 100
6, 169618, Note_on_c, 2, 78, 0
6, 169620, Note_on_c, 2, 80, 100
6, 169678, Note_on_c, 2, 80, 0
6, 169680, Note_on_c, 2, 81, 100
6, 169768, Note_on_c, 2, 81, 0
6, 169770, Note_on_c, 2, 83, 100
6, 169798, Note_on_c, 2, 83, 0
6, 169800, Note_on_c, 2, 80, 100
6, 169858, Note_on_c, 2, 80, 0
6, 169860, Note_on_c, 2, 81, 100
6, 169920, Note_on_c, 2, 81, 0
6, 169920, Note_on_c, 2, 85, 100
6, 169980, Note_on_c, 2, 85, 0
6, 170040, Note_on_c, 2, 81, 100
6, 170098, Note_on_c, 2, 81, 0
6, 170160, Note_on_c, 2, 78, 100
6, 170218, Note_on_c, 2, 78, 0
6, 170280, Note_on_c, 2, 75, 100
6, 170338, Note_on_c, 2, 75, 0
6, 170400, Note_on_c, 2, 83, 100
6, 170460, Note_on_c, 2, 83, 0
6, 170520, Note_on_c, 2, 80, 100
6, 170578, Note_on_c, 2, 80, 0
6, 170640, Note_on_c, 2, 76, 100
6, 170698, Note_on_c, 2, 76, 0
6, 170760, Note_on_c, 2, 73, 100
6, 170818, Note_on_c, 2, 73, 0
6, 170880, Note_on_c, 2, 81, 100
6, 170940, Note_on_c, 2, 81, 0
6, 171000, Note_on_c, 2, 78, 100
6, 171058, Note_on_c, 2, 78, 0
6, 171120, Note_on_c, 2, 90, 100
6, 171180, Note_on_c, 2, 90, 0
6, 171240, Note_on_c, 2, 87, 100
6, 171300, Note_on_c, 2, 87, 0
6, 171360, Note_on_c, 2, 83, 100
6, 171420, Note_on_c, 2, 83, 0
6, 171480, Note_on_c, 2, 81, 100
6, 171540, Note_on_c, 2, 81, 0
6, 171540, Note_on_c, 2, 80, 100
6, 171570, Note_on_c, 2, 80, 0
6, 171570, Note_on_c, 2, 81, 100
6, 171600, Note_on_c, 2, 81, 0
6, 171600, Note_on_c, 2, 83, 100
6, 171690, Note_on_c, 2, 83, 0
6, 171690, Note_on_c, 2, 85, 100
6, 171720, Note_on_c, 2, 85, 0
6, 171720, Note_on_c, 2, 81, 100
6, 171780, Note_on_c, 2, 81, 0
6, 171780, Note_on_c, 2, 83, 100
6, 171810, Note_on_c, 2, 83, 0
6, 171810, Note_on_c, 2, 81, 100
6, 171840, Note_on_c, 2, 81, 0
6, 171840, Note_on_c, 2, 80, 100
6, 171930, Note_on_c, 2, 80, 0
6, 171930, Note_on_c, 2, 81, 100
6, 171960, Note_on_c, 2, 81, 0
6, 171960, Note_on_c, 2, 78, 100
6, 172020, Note_on_c, 2, 78, 0
6, 172020, Note_on_c, 2, 80, 100
6, 172080, Note_on_c, 2, 80, 0
6, 172260, Note_on_c, 2, 76, 100
6, 172290, Note_on_c, 2, 76, 0
6, 172290, Note_on_c, 2, 78, 100
6, 172320, Note_on_c, 2, 78, 0
6, 172320, Note_on_c, 2, 80, 100
6, 172410, Note_on_c, 2, 80, 0
6, 172410, Note_on_c, 2, 83, 100
6, 172440, Note_on_c, 2, 83, 0
6, 172440, Note_on_c, 2, 81, 100
6, 172500, Note_on_c, 2, 81, 0
6, 172500, Note_on_c, 2, 80, 100
6, 172507, Note_on_c, 2, 80, 0
6, 172507, Note_on_c, 2, 81, 100
6, 172514, Note_on_c, 2, 81, 0
6, 172515, Note_on_c, 2, 80, 100
6, 172522, Note_on_c, 2, 80, 0
6, 172522, Note_on_c, 2, 81, 100
6, 172529, Note_on_c, 2, 81, 0
6, 172530, Note_on_c, 2, 80, 100
6, 172540, Note_on_c, 2, 80, 0
6, 172540, Note_on_c, 2, 81, 100
6, 172550, Note_on_c, 2, 81, 0
6, 172550, Note_on_c, 2, 80, 100
6, 172560, Note_on_c, 2, 80, 0
6, 172560, Note_on_c, 2, 78, 100
6, 172620, Note_on_c, 2, 78, 0
6, 172740, Note_on_c, 2, 75, 100
6, 172770, Note_on_c, 2, 75, 0
6, 172770, Note_on_c, 2, 76, 100
6, 172800, Note_on_c, 2, 76, 0
6, 172800, Note_on_c, 2, 78, 100
6, 172890, Note_on_c, 2, 78, 0
6, 172890, Note_on_c, 2, 81, 100
6, 172920, Note_on_c, 2, 81, 0
6, 172920, Note_on_c, 2, 80, 100
6, 172980, Note_on_c, 2, 80, 0
6, 172980, Note_on_c, 2, 78, 100
6, 172987, Note_on_c, 2, 78, 0
6, 172987, Note_on_c, 2, 80, 100
6, 172994, Note_on_c, 2, 80, 0
6, 172995, Note_on_c, 2, 78, 100
6, 173002, Note_on_c, 2, 78, 0
6, 173002, Note_on_c, 2, 80, 100
6, 173009, Note_on_c, 2, 80, 0
6, 173010, Note_on_c, 2, 78, 100
6, 173020, Note_on_c, 2, 78, 0
6, 173020, Note_on_c, 2, 80, 100
6, 173030, Note_on_c, 2, 80, 0
6, 173030, Note_on_c, 2, 78, 100
6, 173040, Note_on_c, 2, 78, 0
6, 173040, Note_on_c, 2, 76, 100
6, 173100, Note_on_c, 2, 76, 0
6, 174000, Note_on_c, 2, 83, 100
6, 174060, Note_on_c, 2, 83, 0
6, 174060, Note_on_c, 2, 88, 100
6, 174210, Note_on_c, 2, 88, 0
6, 174210, Note_on_c, 2, 90, 100
6, 174240, Note_on_c, 2, 90, 0
6, 174240, Note_on_c, 2, 88, 100
6, 174270, Note_on_c, 2, 88, 0
6, 174270, Note_on_c, 2, 87, 100
6, 174300, Note_on_c, 2, 87, 0
6, 174300, Note_on_c, 2, 85, 100
6, 174330, Note_on_c, 2, 85, 0
6, 174330, Note_on_c, 2, 83, 100
6, 174360, Note_on_c, 2, 83, 0
6, 174360, Note_on_c, 2, 81, 100
6, 174390, Note_on_c, 2, 81, 0
6, 174390, Note_on_c, 2, 80, 100
6, 174420, Note_on_c, 2, 80, 0
6, 174420, Note_on_c, 2, 78, 100
6, 174480, Note_on_c, 2, 78, 0
6, 174480, Note_on_c, 2, 75, 100
6, 174540, Note_on_c, 2, 75, 0
6, 174540, Note_on_c, 2, 87, 100
6, 174690, Note_on_c, 2, 87, 0
6, 174690, Note_on_c, 2, 88, 100
6, 174720, Note_on_c, 2, 88, 0
6, 174720, Note_on_c, 2, 87, 100
6, 174750, Note_on_c, 2, 87, 0
6, 174750, Note_on_c, 2, 85, 100
6, 174780, Note_on_c, 2, 85, 0
6, 174780, Note_on_c, 2, 83, 100
6, 174810, Note_on_c, 2, 83, 0
6, 174810, Note_on_c, 2, 81, 100
6, 174840, Note_on_c, 2, 81, 0
6, 174840, Note_on_c, 2, 80, 100
6, 174870, Note_on_c, 2, 80, 0
6, 174870, Note_on_c, 2, 78, 100
6, 174900, Note_on_c, 2, 78, 0
6, 174900, Note_on_c, 2, 76, 100
6, 174960, Note_on_c, 2, 76, 0
6, 174960, Note_on_c, 2, 80, 100
6, 175020, Note_on_c, 2, 80, 0
6, 175020, Note_on_c, 2, 85, 100
6, 175170, Note_on_c, 2, 85, 0
6, 175170, Note_on_c, 2, 86, 100
6, 175200, Note_on_c, 2, 86, 0
6, 175200, Note_on_c, 2, 85, 100
6, 175230, Note_on_c, 2, 85, 0
6, 175230, Note_on_c, 2, 83, 100
6, 175260, Note_on_c, 2, 83, 0
6, 175260, Note_on_c, 2, 81, 100
6, 175290, Note_on_c, 2, 81, 0
6, 175290, Note_on_c, 2, 80, 100
6, 175320, Note_on_c, 2, 80, 0
6, 175320, Note_on_c, 2, 78, 100
6, 175350, Note_on_c, 2, 78, 0
6, 175350, Note_on_c, 2, 76, 100
6, 175380, Note_on_c, 2, 76, 0
6, 175380, Note_on_c, 2, 75, 100
6, 175440, Note_on_c, 2, 75, 0
6, 175440, Note_on_c, 2, 83, 100
6, 175500, Note_on_c, 2, 83, 0
6, 176100, Note_on_c, 2, 76, 100
6, 176130, Note_on_c, 2, 76, 0
6, 176130, Note_on_c, 2, 78, 100
6, 176160, Note_on_c, 2, 78, 0
6, 176160, Note_on_c, 2, 80, 100
6, 176250, Note_on_c, 2, 80, 0
6, 176250, Note_on_c, 2, 81, 100
6, 176280, Note_on_c, 2, 81, 0
6, 176280, Note_on_c, 2, 78, 100
6, 176340, Note_on_c, 2, 78, 0
6, 176340, Note_on_c, 2, 80, 100
6, 176370, Note_on_c, 2, 80, 0
6, 176370, Note_on_c, 2, 78, 100
6, 176400, Note_on_c, 2, 78, 0
6, 176400, Note_on_c, 2, 76, 100
6, 176490, Note_on_c, 2, 76, 0
6, 176490, Note_on_c, 2, 78, 100
6, 176520, Note_on_c, 2, 78, 0
6, 176520, Note_on_c, 2, 75, 100
6, 176580, Note_on_c, 2, 75, 0
6, 176580, Note_on_c, 2, 76, 100
6, 176610, Note_on_c, 2, 76, 0
6, 176610, Note_on_c, 2, 78, 100
6, 176640, Note_on_c, 2, 78, 0
6, 176640, Note_on_c, 2, 80, 100
6, 176670, Note_on_c, 2, 80, 0
6, 176670, Note_on_c, 2, 81, 100
6, 176700, Note_on_c, 2, 81, 0
6, 176700, Note_on_c, 2, 83, 100
6, 176730, Note_on_c, 2, 83, 0
6, 176730, Note_on_c, 2, 86, 100
6, 176760, Note_on_c, 2, 86, 0
6, 176760, Note_on_c, 2, 85, 100
6, 176820, Note_on_c, 2, 85, 0
6, 176820, Note_on_c, 2, 83, 100
6, 176827, Note_on_c, 2, 83, 0
6, 176827, Note_on_c, 2, 85, 100
6, 176834, Note_on_c, 2, 85, 0
6, 176835, Note_on_c, 2, 83, 100
6, 176842, Note_on_c, 2, 83, 0
6, 176842, Note_on_c, 2, 85, 100
6, 176849, Note_on_c, 2, 85, 0
6, 176850, Note_on_c, 2, 83, 100
6, 176860, Note_on_c, 2, 83, 0
6, 176860, Note_on_c, 2, 85, 100
6, 176870, Note_on_c, 2, 85, 0
6, 176870, Note_on_c, 2, 83, 100
6, 176880, Note_on_c, 2, 83, 0
6, 176880, Note_on_c, 2, 81, 100
6, 176940, Note_on_c, 2, 81, 0
6, 177060, Note_on_c, 2, 78, 100
6, 177090, Note_on_c, 2, 78, 0
6, 177090, Note_on_c, 2, 80, 100
6, 177120, Note_on_c, 2, 80, 0
6, 177120, Note_on_c, 2, 81, 100
6, 177210, Note_on_c, 2, 81, 0
6, 177210, Note_on_c, 2, 83, 100
6, 177240, Note_on_c, 2, 83, 0
6, 177240, Note_on_c, 2, 80, 100
6, 177300, Note_on_c, 2, 80, 0
6, 177300, Note_on_c, 2, 81, 100
6, 177330, Note_on_c, 2, 81, 0
6, 177330, Note_on_c, 2, 80, 100
6, 177360, Note_on_c, 2, 80, 0
6, 177360, Note_on_c, 2, 78, 100
6, 177450, Note_on_c, 2, 78, 0
6, 177450, Note_on_c, 2, 80, 100
6, 177480, Note_on_c, 2, 80, 0
6, 177480, Note_on_c, 2, 77, 100
6, 177540, Note_on_c, 2, 77, 0
6, 177540, Note_on_c, 2, 78, 100
6, 177570, Note_on_c, 2, 78, 0
6, 177570, Note_on_c, 2, 80, 100
6, 177600, Note_on_c, 2, 80, 0
6, 177600, Note_on_c, 2, 81, 100
6, 177630, Note_on_c, 2, 81, 0
6, 177630, Note_on_c, 2, 83, 100
6, 177660, Note_on_c, 2, 83, 0
6, 177660, Note_on_c, 2, 85, 100
6, 177690, Note_on_c, 2, 85, 0
6, 177690, Note_on_c, 2, 81, 100
6, 177720, Note_on_c, 2, 81, 0
6, 177720, Note_on_c, 2, 83, 100
6, 177780, Note_on_c, 2, 83, 0
6, 177780, Note_on_c, 2, 81, 100
6, 177787, Note_on_c, 2, 81, 0
6, 177787, Note_on_c, 2, 83, 100
6, 177794, Note_on_c, 2, 83, 0
6, 177795, Note_on_c, 2, 81, 100
6, 177802, Note_on_c, 2, 81, 0
6, 177802, Note_on_c, 2, 83, 100
6, 177809, Note_on_c, 2, 83, 0
6, 177810, Note_on_c, 2, 81, 100
6, 177820, Note_on_c, 2, 81, 0
6, 177820, Note_on_c, 2, 83, 100
6, 177830, Note_on_c, 2, 83, 0
6, 177830, Note_on_c, 2, 81, 100
6, 177840, Note_on_c, 2, 81, 0
6, 177840, Note_on_c, 2, 80, 100
6, 177900, Note_on_c, 2, 80, 0
6, 177900, Note_on_c, 2, 83, 100
6, 178050, Note_on_c, 2, 83, 0
6, 178050, Note_on_c, 2, 85, 100
6, 178080, Note_on_c, 2, 85, 0
6, 178080, Note_on_c, 2, 83, 100
6, 178110, Note_on_c, 2, 83, 0
6, 178110, Note_on_c, 2, 81, 100
6, 178140, Note_on_c, 2, 81, 0
6, 178140, Note_on_c, 2, 80, 100
6, 178170, Note_on_c, 2, 80, 0
6, 178170, Note_on_c, 2, 78, 100
6, 178200, Note_on_c, 2, 78, 0
6, 178200, Note_on_c, 2, 76, 100
6, 178230, Note_on_c, 2, 76, 0
6, 178230, Note_on_c, 2, 74, 100
6, 178260, Note_on_c, 2, 74, 0
6, 178260, Note_on_c, 2, 73, 100
6, 178320, Note_on_c, 2, 73, 0
6, 178320, Note_on_c, 2, 69, 100
6, 178380, Note_on_c, 2, 69, 0
6, 178380, Note_on_c, 2, 78, 100
6, 178530, Note_on_c, 2, 78, 0
6, 178530, Note_on_c, 2, 80, 100
6, 178560, Note_on_c, 2, 80, 0
6, 178560, Note_on_c, 2, 78, 100
6, 178590, Note_on_c, 2, 78, 0
6, 178590, Note_on_c, 2, 76, 100
6, 178620, Note_on_c, 2, 76, 0
6, 178620, Note_on_c, 2, 75, 100
6, 178650, Note_on_c, 2, 75, 0
6, 178650, Note_on_c, 2, 73, 100
6, 178680, Note_on_c, 2, 73, 0
6, 178680, Note_on_c, 2, 71, 100
6, 178710, Note_on_c, 2, 71, 0
6, 178710, Note_on_c, 2, 69, 100
6, 178740, Note_on_c, 2, 69, 0
6, 178740, Note_on_c, 2, 68, 100
6, 178800, Note_on_c, 2, 68, 0
6, 178800, Note_on_c, 2, 64, 100
6, 178860, Note_on_c, 2, 64, 0
6, 178860, Note_on_c, 2, 80, 100
6, 179010, Note_on_c, 2, 80, 0
6, 179010, Note_on_c, 2, 78, 100
6, 179040, Note_on_c, 2, 78, 0
6, 179040, Note_on_c, 2, 80, 100
6, 179070, Note_on_c, 2, 80, 0
6, 179070, Note_on_c, 2, 81, 100
6, 179100, Note_on_c, 2, 81, 0
6, 179100, Note_on_c, 2, 78, 100
6, 179107, Note_on_c, 2, 78, 0
6, 179107, Note_on_c, 2, 80, 100
6, 179114, Note_on_c, 2, 80, 0
6, 179115, Note_on_c, 2, 78, 100
6, 179122, Note_on_c, 2, 78, 0
6, 179122, Note_on_c, 2, 80, 100
6, 179129, Note_on_c, 2, 80, 0
6, 179130, Note_on_c, 2, 78, 100
6, 179137, Note_on_c, 2, 78, 0
6, 179137, Note_on_c, 2, 80, 100
6, 179144, Note_on_c, 2, 80, 0
6, 179145, Note_on_c, 2, 78, 100
6, 179152, Note_on_c, 2, 78, 0
6, 179152, Note_on_c, 2, 80, 100
6, 179159, Note_on_c, 2, 80, 0
6, 179160, Note_on_c, 2, 78, 100
6, 179170, Note_on_c, 2, 78, 0
6, 179170, Note_on_c, 2, 80, 100
6, 179180, Note_on_c, 2, 80, 0
6, 179180, Note_on_c, 2, 78, 100
6, 179190, Note_on_c, 2, 78, 0
6, 179190, Note_on_c, 2, 76, 100
6, 179205, Note_on_c, 2, 76, 0
6, 179205, Note_on_c, 2, 78, 100
6, 179220, Note_on_c, 2, 78, 0
6, 179220, Note_on_c, 2, 76, 100
6, 179250, Note_on_c, 2, 76, 0
6, 179250, Note_on_c, 2, 78, 100
6, 179280, Note_on_c, 2, 78, 0
6, 179280, Note_on_c, 2, 80, 100
6, 179310, Note_on_c, 2, 80, 0
6, 179310, Note_on_c, 2, 81, 100
6, 179340, Note_on_c, 2, 81, 0
6, 179340, Note_on_c, 2, 83, 100
6, 179370, Note_on_c, 2, 83, 0
6, 179370, Note_on_c, 2, 80, 100
6, 179400, Note_on_c, 2, 80, 0
6, 179400, Note_on_c, 2, 81, 100
6, 179460, Note_on_c, 2, 81, 0
6, 219660, Control_c, 2, 0, 0
6, 219660, Note_on_c, 2, 88, 100
6, 219780, Note_on_c, 2, 88, 0
6, 219840, Note_on_c, 2, 88, 100
6, 219880, Note_on_c, 2, 88, 0
6, 219900, Note_on_c, 2, 88, 100
6, 220060, Note_on_c, 2, 88, 0
6, 221580, Note_on_c, 2, 83, 100
6, 221700, Note_on_c, 2, 83, 0
6, 221760, Note_on_c, 2, 83, 100
6, 221818, Note_on_c, 2, 83, 0
6, 221820, Note_on_c, 2, 83, 100
6, 222058, Note_on_c, 2, 83, 0
6, 222060, Note_on_c, 2, 83, 100
6, 222298, Note_on_c, 2, 83, 0
6, 222300, Note_on_c, 2, 83, 100
6, 222538, Note_on_c, 2, 83, 0
6, 223980, Note_on_c, 2, 85, 90
6, 224099, Note_on_c, 2, 85, 0
6, 224160, Note_on_c, 2, 85, 90
6, 224219, Note_on_c, 2, 85, 0
6, 224220, Note_on_c, 2, 85, 90
6, 224459, Note_on_c, 2, 85, 0
6, 224460, Note_on_c, 2, 86, 90
6, 224579, Note_on_c, 2, 86, 0
6, 224640, Note_on_c, 2, 86, 90
6, 224699, Note_on_c, 2, 86, 0
6, 224700, Note_on_c, 2, 86, 90
6, 224939, Note_on_c, 2, 86, 0
6, 226380, Note_on_c, 2, 86, 100
6, 226500, Note_on_c, 2, 86, 0
6, 226500, Note_on_c, 2, 86, 100
6, 226560, Note_on_c, 2, 86, 0
6, 226560, Note_on_c, 2, 86, 100
6, 226620, Note_on_c, 2, 86, 0
6, 226620, Note_on_c, 2, 86, 100
6, 226740, Note_on_c, 2, 86, 0
6, 226740, Note_on_c, 2, 86, 100
6, 226860, Note_on_c, 2, 86, 0
6, 226860, Note_on_c, 2, 86, 100
6, 227040, Note_on_c, 2, 86, 0
6, 227040, Note_on_c, 2, 83, 100
6, 227100, Note_on_c, 2, 83, 0
6, 227100, Note_on_c, 2, 79, 100
6, 227160, Note_on_c, 2, 79, 0
6, 227160, Note_on_c, 2, 83, 100
6, 227220, Note_on_c, 2, 83, 0
6, 227220, Note_on_c, 2, 88, 100
6, 227340, Note_on_c, 2, 88, 0
6, 227340, Note_on_c, 2, 88, 100
6, 227580, Note_on_c, 2, 88, 0
6, 227580, Note_on_c, 2, 86, 100
6, 228000, Note_on_c, 2, 86, 0
6, 228000, Note_on_c, 2, 85, 100
6, 228060, Note_on_c, 2, 85, 0
6, 228060, Note_on_c, 2, 83, 100
6, 228300, Note_on_c, 2, 83, 0
6, 228300, Note_on_c, 2, 85, 100
6, 228780, Note_on_c, 2, 85, 0
6, 228780, Note_on_c, 2, 86, 100
6, 229560, Note_on_c, 2, 86, 0
6, 230220, Note_on_c, 2, 81, 90
6, 230249, Note_on_c, 2, 81, 0
6, 230250, Note_on_c, 2, 86, 90
6, 230279, Note_on_c, 2, 86, 0
6, 230280, Note_on_c, 2, 85, 90
6, 230309, Note_on_c, 2, 85, 0
6, 230310, Note_on_c, 2, 83, 90
6, 230339, Note_on_c, 2, 83, 0
6, 230340, Note_on_c, 2, 81, 90
6, 230369, Note_on_c, 2, 81, 0
6, 230370, Note_on_c, 2, 79, 90
6, 230399, Note_on_c, 2, 79, 0
6, 230400, Note_on_c, 2, 78, 90
6, 230429, Note_on_c, 2, 78, 0
6, 230430, Note_on_c, 2, 79, 90
6, 230459, Note_on_c, 2, 79, 0
6, 230460, Note_on_c, 2, 81, 90
6, 230489, Note_on_c, 2, 81, 0
6, 230490, Note_on_c, 2, 83, 90
6, 230519, Note_on_c, 2, 83, 0
6, 230520, Note_on_c, 2, 81, 90
6, 230549, Note_on_c, 2, 81, 0
6, 230550, Note_on_c, 2, 83, 90
6, 230579, Note_on_c, 2, 83, 0
6, 230580, Note_on_c, 2, 81, 90
6, 230609, Note_on_c, 2, 81, 0
6, 230610, Note_on_c, 2, 86, 90
6, 230639, Note_on_c, 2, 86, 0
6, 230640, Note_on_c, 2, 85, 90
6, 230669, Note_on_c, 2, 85, 0
6, 230670, Note_on_c, 2, 83, 90
6, 230699, Note_on_c, 2, 83, 0
6, 230700, Note_on_c, 2, 81, 90
6, 230729, Note_on_c, 2, 81, 0
6, 230730, Note_on_c, 2, 79, 90
6, 230759, Note_on_c, 2, 79, 0
6, 230760, Note_on_c, 2, 78, 90
6, 230789, Note_on_c, 2, 78, 0
6, 230790, Note_on_c, 2, 79, 90
6, 230819, Note_on_c, 2, 79, 0
6, 230820, Note_on_c, 2, 81, 90
6, 230849, Note_on_c, 2, 81, 0
6, 230850, Note_on_c, 2, 83, 90
6, 230879, Note_on_c, 2, 83, 0
6, 230880, Note_on_c, 2, 81, 90
6, 230909, Note_on_c, 2, 81, 0
6, 230910, Note_on_c, 2, 83, 90
6, 230939, Note_on_c, 2, 83, 0
6, 230940, Note_on_c, 2, 81, 90
6, 230999, Note_on_c, 2, 81, 0
6, 231360, Note_on_c, 2, 81, 90
6, 231419, Note_on_c, 2, 81, 0
6, 231420, Note_on_c, 2, 86, 90
6, 231479, Note_on_c, 2, 86, 0
6, 231480, Note_on_c, 2, 85, 90
6, 231509, Note_on_c, 2, 85, 0
6, 231510, Note_on_c, 2, 83, 90
6, 231539, Note_on_c, 2, 83, 0
6, 231540, Note_on_c, 2, 81, 90
6, 231569, Note_on_c, 2, 81, 0
6, 231570, Note_on_c, 2, 79, 90
6, 231599, Note_on_c, 2, 79, 0
6, 231600, Note_on_c, 2, 78, 90
6, 231629, Note_on_c, 2, 78, 0
6, 231630, Note_on_c, 2, 76, 90
6, 231659, Note_on_c, 2, 76, 0
6, 231660, Note_on_c, 2, 78, 90
6, 231749, Note_on_c, 2, 78, 0
6, 231750, Note_on_c, 2, 76, 90
6, 231779, Note_on_c, 2, 76, 0
6, 231780, Note_on_c, 2, 74, 90
6, 231899, Note_on_c, 2, 74, 0
6, 232440, Note_on_c, 2, 79, 90
6, 232469, Note_on_c, 2, 79, 0
6, 232470, Note_on_c, 2, 81, 90
6, 232499, Note_on_c, 2, 81, 0
6, 232500, Note_on_c, 2, 83, 90
6, 232529, Note_on_c, 2, 83, 0
6, 232530, Note_on_c, 2, 84, 90
6, 232559, Note_on_c, 2, 84, 0
6, 232560, Note_on_c, 2, 86, 90
6, 232619, Note_on_c, 2, 86, 0
6, 232620, Note_on_c, 2, 86, 90
6, 232649, Note_on_c, 2, 86, 0
6, 232650, Note_on_c, 2, 84, 90
6, 232679, Note_on_c, 2, 84, 0
6, 232680, Note_on_c, 2, 83, 90
6, 232709, Note_on_c, 2, 83, 0
6, 232710, Note_on_c, 2, 81, 90
6, 232739, Note_on_c, 2, 81, 0
6, 232740, Note_on_c, 2, 79, 90
6, 232799, Note_on_c, 2, 79, 0
6, 233880, Note_on_c, 2, 73, 90
6, 233909, Note_on_c, 2, 73, 0
6, 233910, Note_on_c, 2, 74, 90
6, 233939, Note_on_c, 2, 74, 0
6, 233940, Note_on_c, 2, 76, 90
6, 233969, Note_on_c, 2, 76, 0
6, 233970, Note_on_c, 2, 78, 90
6, 233999, Note_on_c, 2, 78, 0
6, 234000, Note_on_c, 2, 79, 90
6, 234029, Note_on_c, 2, 79, 0
6, 234060, Note_on_c, 2, 79, 90
6, 234089, Note_on_c, 2, 79, 0
6, 234090, Note_on_c, 2, 78, 90
6, 234119, Note_on_c, 2, 78, 0
6, 234120, Note_on_c, 2, 76, 90
6, 234149, Note_on_c, 2, 76, 0
6, 234150, Note_on_c, 2, 74, 90
6, 234179, Note_on_c, 2, 74, 0
6, 234180, Note_on_c, 2, 73, 90
6, 234209, Note_on_c, 2, 73, 0
6, 234210, Note_on_c, 2, 71, 90
6, 234239, Note_on_c, 2, 71, 0
6, 234240, Note_on_c, 2, 69, 90
6, 234269, Note_on_c, 2, 69, 0
6, 234270, Note_on_c, 2, 71, 90
6, 234299, Note_on_c, 2, 71, 0
6, 234300, Note_on_c, 2, 73, 90
6, 234329, Note_on_c, 2, 73, 0
6, 234330, Note_on_c, 2, 74, 90
6, 234359, Note_on_c, 2, 74, 0
6, 234360, Note_on_c, 2, 76, 90
6, 234449, Note_on_c, 2, 76, 0
6, 234450, Note_on_c, 2, 81, 90
6, 234479, Note_on_c, 2, 81, 0
6, 234480, Note_on_c, 2, 76, 90
6, 234509, Note_on_c, 2, 76, 0
6, 234510, Note_on_c, 2, 73, 90
6, 234539, Note_on_c, 2, 73, 0
6, 234540, Note_on_c, 2, 69, 90
6, 234599, Note_on_c, 2, 69, 0
6, 234660, Note_on_c, 2, 86, 90
6, 234719, Note_on_c, 2, 86, 0
6, 234720, Note_on_c, 2, 81, 90
6, 234779, Note_on_c, 2, 81, 0
6, 234930, Note_on_c, 2, 86, 90
6, 234959, Note_on_c, 2, 86, 0
6, 234960, Note_on_c, 2, 85, 90
6, 234989, Note_on_c, 2, 85, 0
6, 234990, Note_on_c, 2, 83, 90
6, 235019, Note_on_c, 2, 83, 0
6, 235020, Note_on_c, 2, 81, 90
6, 235049, Note_on_c, 2, 81, 0
6, 235050, Note_on_c, 2, 79, 90
6, 235079, Note_on_c, 2, 79, 0
6, 235080, Note_on_c, 2, 78, 90
6, 235109, Note_on_c, 2, 78, 0
6, 235110, Note_on_c, 2, 79, 90
6, 235139, Note_on_c, 2, 79, 0
6, 235140, Note_on_c, 2, 81, 90
6, 235169, Note_on_c, 2, 81, 0
6, 235170, Note_on_c, 2, 83, 90
6, 235199, Note_on_c, 2, 83, 0
6, 235200, Note_on_c, 2, 81, 90
6, 235229, Note_on_c, 2, 81, 0
6, 235230, Note_on_c, 2, 83, 90
6, 235259, Note_on_c, 2, 83, 0
6, 235260, Note_on_c, 2, 81, 90
6, 235289, Note_on_c, 2, 81, 0
6, 235290, Note_on_c, 2, 83, 90
6, 235319, Note_on_c, 2, 83, 0
6, 235320, Note_on_c, 2, 81, 90
6, 235349, Note_on_c, 2, 81, 0
6, 235350, Note_on_c, 2, 79, 90
6, 235379, Note_on_c, 2, 79, 0
6, 235380, Note_on_c, 2, 78, 90
6, 235409, Note_on_c, 2, 78, 0
6, 235410, Note_on_c, 2, 76, 90
6, 235439, Note_on_c, 2, 76, 0
6, 235440, Note_on_c, 2, 74, 90
6, 235499, Note_on_c, 2, 74, 0
6, 235650, Note_on_c, 2, 71, 90
6, 235679, Note_on_c, 2, 71, 0
6, 235680, Note_on_c, 2, 69, 90
6, 235709, Note_on_c, 2, 69, 0
6, 235710, Note_on_c, 2, 67, 90
6, 235739, Note_on_c, 2, 67, 0
6, 235740, Note_on_c, 2, 66, 90
6, 235769, Note_on_c, 2, 66, 0
6, 235770, Note_on_c, 2, 64, 90
6, 235799, Note_on_c, 2, 64, 0
6, 235800, Note_on_c, 2, 62, 90
6, 235859, Note_on_c, 2, 62, 0
6, 236040, Note_on_c, 2, 74, 90
6, 236069, Note_on_c, 2, 74, 0
6, 236070, Note_on_c, 2, 76, 90
6, 236099, Note_on_c, 2, 76, 0
6, 236100, Note_on_c, 2, 78, 90
6, 236129, Note_on_c, 2, 78, 0
6, 236130, Note_on_c, 2, 79, 90
6, 236159, Note_on_c, 2, 79, 0
6, 236160, Note_on_c, 2, 81, 90
6, 236189, Note_on_c, 2, 81, 0
6, 236220, Note_on_c, 2, 81, 90
6, 236249, Note_on_c, 2, 81, 0
6, 236250, Note_on_c, 2, 79, 90
6, 236279, Note_on_c, 2, 79, 0
6, 236280, Note_on_c, 2, 78, 90
6, 236309, Note_on_c, 2, 78, 0
6, 236310, Note_on_c, 2, 76, 90
6, 236339, Note_on_c, 2, 76, 0
6, 236340, Note_on_c, 2, 78, 90
6, 236369, Note_on_c, 2, 78, 0
6, 236370, Note_on_c, 2, 76, 90
6, 236399, Note_on_c, 2, 76, 0
6, 236400, Note_on_c, 2, 78, 90
6, 236429, Note_on_c, 2, 78, 0
6, 236430, Note_on_c, 2, 79, 90
6, 236459, Note_on_c, 2, 79, 0
6, 236460, Note_on_c, 2, 81, 90
6, 236519, Note_on_c, 2, 81, 0
6, 236520, Note_on_c, 2, 83, 100
6, 236550, Note_on_c, 2, 83, 0
6, 236550, Note_on_c, 2, 81, 100
6, 236580, Note_on_c, 2, 81, 0
6, 236580, Note_on_c, 2, 79, 100
6, 236610, Note_on_c, 2, 79, 0
6, 236610, Note_on_c, 2, 78, 100
6, 236640, Note_on_c, 2, 78, 0
6, 236640, Note_on_c, 2, 76, 100
6, 236670, Note_on_c, 2, 76, 0
6, 236670, Note_on_c, 2, 74, 100
6, 236700, Note_on_c, 2, 74, 0
6, 236700, Note_on_c, 2, 74, 100
6, 236820, Note_on_c, 2, 74, 0
6, 236820, End_track
7, 0, Start_track
7, 0, MIDI_port, 0
7, 0, Title_t, "flauta II"
7, 0, Program_c, 2, 73
7, 0, Control_c, 2, 10, 127
7, 0, Note_on_c, 2, 86, 100
7, 897, Note_on_c, 2, 86, 0
7, 900, Note_on_c, 2, 85, 100
7, 927, Note_on_c, 2, 85, 0
7, 930, Note_on_c, 2, 83, 100
7, 957, Note_on_c, 2, 83, 0
7, 960, Note_on_c, 2, 81, 100
7, 987, Note_on_c, 2, 81, 0
7, 990, Note_on_c, 2, 83, 100
7, 1017, Note_on_c, 2, 83, 0
7, 1020, Note_on_c, 2, 81, 100
7, 1047, Note_on_c, 2, 81, 0
7, 1050, Note_on_c, 2, 79, 100
7, 1077, Note_on_c, 2, 79, 0
7, 1080, Note_on_c, 2, 78, 100
7, 1107, Note_on_c, 2, 78, 0
7, 1110, Note_on_c, 2, 79, 100
7, 1137, Note_on_c, 2, 79, 0
7, 1140, Note_on_c, 2, 78, 100
7, 1167, Note_on_c, 2, 78, 0
7, 1170, Note_on_c, 2, 76, 100
7, 1197, Note_on_c, 2, 76, 0
7, 1200, Note_on_c, 2, 74, 100
7, 1227, Note_on_c, 2, 74, 0
7, 1230, Note_on_c, 2, 86, 100
7, 1257, Note_on_c, 2, 86, 0
7, 1260, Note_on_c, 2, 85, 100
7, 1287, Note_on_c, 2, 85, 0
7, 1290, Note_on_c, 2, 83, 100
7, 1317, Note_on_c, 2, 83, 0
7, 1320, Note_on_c, 2, 81, 100
7, 1347, Note_on_c, 2, 81, 0
7, 1350, Note_on_c, 2, 83, 100
7, 1377, Note_on_c, 2, 83, 0
7, 1380, Note_on_c, 2, 81, 100
7, 1407, Note_on_c, 2, 81, 0
7, 1410, Note_on_c, 2, 79, 100
7, 1437, Note_on_c, 2, 79, 0
7, 1440, Note_on_c, 2, 78, 100
7, 1467, Note_on_c, 2, 78, 0
7, 1470, Note_on_c, 2, 79, 100
7, 1497, Note_on_c, 2, 79, 0
7, 1500, Note_on_c, 2, 78, 100
7, 1527, Note_on_c, 2, 78, 0
7, 1530, Note_on_c, 2, 76, 100
7, 1557, Note_on_c, 2, 76, 0
7, 1560, Note_on_c, 2, 74, 100
7, 1840, Note_on_c, 2, 74, 0
7, 1860, Note_on_c, 2, 68, 100
7, 1900, Note_on_c, 2, 68, 0
7, 1920, Note_on_c, 2, 73, 100
7, 2200, Note_on_c, 2, 73, 0
7, 2220, Note_on_c, 2, 78, 100
7, 2250, Note_on_c, 2, 79, 100
7, 2270, Note_on_c, 2, 79, 0
7, 2280, Note_on_c, 2, 78, 100
7, 2300, Note_on_c, 2, 78, 0
7, 2300, Note_on_c, 2, 78, 0
7, 2310, Note_on_c, 2, 76, 100
7, 2330, Note_on_c, 2, 76, 0
7, 2340, Note_on_c, 2, 74, 100
7, 2360, Note_on_c, 2, 74, 0
7, 2370, Note_on_c, 2, 73, 100
7, 2390, Note_on_c, 2, 73, 0
7, 2400, Note_on_c, 2, 81, 100
7, 2540, Note_on_c, 2, 81, 0
7, 2550, Note_on_c, 2, 76, 100
7, 2570, Note_on_c, 2, 76, 0
7, 2580, Note_on_c, 2, 78, 100
7, 2600, Note_on_c, 2, 78, 0
7, 2610, Note_on_c, 2, 79, 100
7, 2630, Note_on_c, 2, 79, 0
7, 2640, Note_on_c, 2, 78, 100
7, 2660, Note_on_c, 2, 78, 0
7, 2670, Note_on_c, 2, 76, 100
7, 2690, Note_on_c, 2, 76, 0
7, 2700, Note_on_c, 2, 74, 100
7, 2720, Note_on_c, 2, 74, 0
7, 2730, Note_on_c, 2, 73, 100
7, 2750, Note_on_c, 2, 73, 0
7, 2760, Note_on_c, 2, 83, 100
7, 2920, Note_on_c, 2, 83, 0
7, 2940, Note_on_c, 2, 71, 100
7, 2980, Note_on_c, 2, 71, 0
7, 3000, Note_on_c, 2, 71, 100
7, 3040, Note_on_c, 2, 71, 0
7, 3060, Note_on_c, 2, 74, 100
7, 3100, Note_on_c, 2, 74, 0
7, 3120, Note_on_c, 2, 74, 100
7, 3160, Note_on_c, 2, 74, 0
7, 3180, Note_on_c, 2, 73, 100
7, 3200, Note_on_c, 2, 73, 0
7, 3210, Note_on_c, 2, 71, 100
7, 3230, Note_on_c, 2, 71, 0
7, 3240, Note_on_c, 2, 69, 100
7, 3280, Note_on_c, 2, 69, 0
7, 3300, Note_on_c, 2, 73, 100
7, 3340, Note_on_c, 2, 73, 0
7, 3360, Note_on_c, 2, 76, 100
7, 3400, Note_on_c, 2, 76, 0
7, 3420, Note_on_c, 2, 79, 100
7, 3460, Note_on_c, 2, 79, 0
7, 3480, Note_on_c, 2, 79, 100
7, 3520, Note_on_c, 2, 79, 0
7, 3540, Note_on_c, 2, 78, 100
7, 3560, Note_on_c, 2, 78, 0
7, 3570, Note_on_c, 2, 76, 100
7, 3590, Note_on_c, 2, 76, 0
7, 3600, Note_on_c, 2, 74, 100
7, 3620, Note_on_c, 2, 74, 0
7, 3630, Note_on_c, 2, 76, 100
7, 3650, Note_on_c, 2, 76, 0
7, 3660, Note_on_c, 2, 74, 100
7, 3680, Note_on_c, 2, 74, 0
7, 3690, Note_on_c, 2, 73, 100
7, 3710, Note_on_c, 2, 73, 0
7, 3720, Note_on_c, 2, 74, 100
7, 3740, Note_on_c, 2, 74, 0
7, 3750, Note_on_c, 2, 73, 100
7, 3770, Note_on_c, 2, 73, 0
7, 3780, Note_on_c, 2, 71, 100
7, 3800, Note_on_c, 2, 71, 0
7, 3810, Note_on_c, 2, 69, 100
7, 3830, Note_on_c, 2, 69, 0
7, 3840, Note_on_c, 2, 74, 100
7, 4000, Note_on_c, 2, 74, 0
7, 4020, Note_on_c, 2, 76, 100
7, 4040, Note_on_c, 2, 76, 0
7, 4050, Note_on_c, 2, 78, 100
7, 4070, Note_on_c, 2, 78, 0
7, 4080, Note_on_c, 2, 76, 100
7, 4100, Note_on_c, 2, 76, 0
7, 4110, Note_on_c, 2, 74, 100
7, 4130, Note_on_c, 2, 74, 0
7, 4140, Note_on_c, 2, 73, 100
7, 4160, Note_on_c, 2, 73, 0
7, 4170, Note_on_c, 2, 71, 100
7, 4190, Note_on_c, 2, 71, 0
7, 4200, Note_on_c, 2, 69, 100
7, 4220, Note_on_c, 2, 69, 0
7, 4230, Note_on_c, 2, 68, 100
7, 4250, Note_on_c, 2, 68, 0
7, 4260, Note_on_c, 2, 74, 100
7, 4300, Note_on_c, 2, 74, 0
7, 4320, Note_on_c, 2, 73, 100
7, 4340, Note_on_c, 2, 73, 0
7, 4350, Note_on_c, 2, 81, 100
7, 4370, Note_on_c, 2, 81, 0
7, 4380, Note_on_c, 2, 80, 100
7, 4400, Note_on_c, 2, 80, 0
7, 4410, Note_on_c, 2, 78, 100
7, 4430, Note_on_c, 2, 78, 0
7, 4440, Note_on_c, 2, 76, 100
7, 4460, Note_on_c, 2, 76, 0
7, 4470, Note_on_c, 2, 74, 100
7, 4490, Note_on_c, 2, 74, 0
7, 4500, Note_on_c, 2, 73, 100
7, 4520, Note_on_c, 2, 73, 0
7, 4530, Note_on_c, 2, 74, 100
7, 4550, Note_on_c, 2, 74, 0
7, 4560, Note_on_c, 2, 76, 100
7, 4580, Note_on_c, 2, 76, 0
7, 4590, Note_on_c, 2, 78, 100
7, 4610, Note_on_c, 2, 78, 0
7, 4620, Note_on_c, 2, 76, 100
7, 4640, Note_on_c, 2, 76, 0
7, 4650, Note_on_c, 2, 78, 100
7, 4670, Note_on_c, 2, 78, 0
7, 4680, Note_on_c, 2, 76, 100
7, 4700, Note_on_c, 2, 76, 0
7, 4710, Note_on_c, 2, 81, 100
7, 4730, Note_on_c, 2, 81, 0
7, 4740, Note_on_c, 2, 80, 100
7, 4760, Note_on_c, 2, 80, 0
7, 4770, Note_on_c, 2, 78, 100
7, 4790, Note_on_c, 2, 78, 0
7, 4800, Note_on_c, 2, 76, 100
7, 4820, Note_on_c, 2, 76, 0
7, 4830, Note_on_c, 2, 74, 100
7, 4850, Note_on_c, 2, 74, 0
7, 4860, Note_on_c, 2, 73, 100
7, 4880, Note_on_c, 2, 73, 0
7, 4890, Note_on_c, 2, 74, 100
7, 4910, Note_on_c, 2, 74, 0
7, 4920, Note_on_c, 2, 76, 100
7, 4940, Note_on_c, 2, 76, 0
7, 4950, Note_on_c, 2, 78, 100
7, 4970, Note_on_c, 2, 78, 0
7, 4980, Note_on_c, 2, 76, 100
7, 5000, Note_on_c, 2, 76, 0
7, 5010, Note_on_c, 2, 78, 100
7, 5030, Note_on_c, 2, 78, 0
7, 5040, Note_on_c, 2, 76, 100
7, 5060, Note_on_c, 2, 76, 0
7, 5070, Note_on_c, 2, 78, 100
7, 5090, Note_on_c, 2, 78, 0
7, 5100, Note_on_c, 2, 76, 100
7, 5120, Note_on_c, 2, 76, 0
7, 5130, Note_on_c, 2, 74, 100
7, 5150, Note_on_c, 2, 74, 0
7, 5160, Note_on_c, 2, 73, 100
7, 5180, Note_on_c, 2, 73, 0
7, 5190, Note_on_c, 2, 76, 100
7, 5210, Note_on_c, 2, 76, 0
7, 5220, Note_on_c, 2, 74, 100
7, 5240, Note_on_c, 2, 74, 0
7, 5250, Note_on_c, 2, 73, 100
7, 5270, Note_on_c, 2, 73, 0
7, 5280, Note_on_c, 2, 71, 100
7, 5320, Note_on_c, 2, 71, 0
7, 5340, Note_on_c, 2, 80, 100
7, 5380, Note_on_c, 2, 80, 0
7, 5400, Note_on_c, 2, 81, 100
7, 5440, Note_on_c, 2, 81, 0
7, 5460, Note_on_c, 2, 76, 100
7, 5500, Note_on_c, 2, 76, 0
7, 5580, Note_on_c, 2, 76, 100
7, 5620, Note_on_c, 2, 76, 0
7, 5640, Note_on_c, 2, 64, 100
7, 5680, Note_on_c, 2, 64, 0
7, 5700, Note_on_c, 2, 68, 100
7, 5740, Note_on_c, 2, 68, 0
7, 5760, Note_on_c, 2, 69, 100
7, 5800, Note_on_c, 2, 69, 0
7, 5820, Note_on_c, 2, 73, 100
7, 5840, Note_on_c, 2, 73, 0
7, 5850, Note_on_c, 2, 76, 100
7, 5870, Note_on_c, 2, 76, 0
7, 5880, Note_on_c, 2, 81, 100
7, 5920, Note_on_c, 2, 81, 0
7, 5940, Note_on_c, 2, 85, 100
7, 5980, Note_on_c, 2, 85, 0
7, 6000, Note_on_c, 2, 85, 100
7, 6040, Note_on_c, 2, 85, 0
7, 6060, Note_on_c, 2, 81, 100
7, 6100, Note_on_c, 2, 81, 0
7, 6120, Note_on_c, 2, 78, 100
7, 6140, Note_on_c, 2, 78, 0
7, 6150, Note_on_c, 2, 69, 100
7, 6170, Note_on_c, 2, 69, 0
7, 6180, Note_on_c, 2, 74, 100
7, 6200, Note_on_c, 2, 74, 0
7, 6210, Note_on_c, 2, 78, 100
7, 6230, Note_on_c, 2, 78, 0
7, 6240, Note_on_c, 2, 81, 100
7, 6280, Note_on_c, 2, 81, 0
7, 6300, Note_on_c, 2, 86, 100
7, 6340, Note_on_c, 2, 86, 0
7, 6360, Note_on_c, 2, 86, 100
7, 6400, Note_on_c, 2, 86, 0
7, 6420, Note_on_c, 2, 81, 100
7, 6460, Note_on_c, 2, 81, 0
7, 6480, Note_on_c, 2, 83, 100
7, 6520, Note_on_c, 2, 83, 0
7, 6540, Note_on_c, 2, 79, 100
7, 6580, Note_on_c, 2, 79, 0
7, 6600, Note_on_c, 2, 76, 100
7, 6640, Note_on_c, 2, 76, 0
7, 6660, Note_on_c, 2, 71, 100
7, 6700, Note_on_c, 2, 71, 0
7, 6720, Note_on_c, 2, 76, 100
7, 6760, Note_on_c, 2, 76, 0
7, 6780, Note_on_c, 2, 79, 100
7, 6880, Note_on_c, 2, 79, 0
7, 6900, Note_on_c, 2, 76, 100
7, 6940, Note_on_c, 2, 76, 0
7, 6960, Note_on_c, 2, 81, 100
7, 7000, Note_on_c, 2, 81, 0
7, 7020, Note_on_c, 2, 85, 100
7, 7060, Note_on_c, 2, 85, 0
7, 7080, Note_on_c, 2, 85, 100
7, 7120, Note_on_c, 2, 85, 0
7, 7140, Note_on_c, 2, 81, 100
7, 7180, Note_on_c, 2, 81, 0
7, 7200, Note_on_c, 2, 86, 100
7, 7240, Note_on_c, 2, 86, 0
7, 7260, Note_on_c, 2, 83, 100
7, 7300, Note_on_c, 2, 83, 0
7, 7320, Note_on_c, 2, 80, 100
7, 7360, Note_on_c, 2, 80, 0
7, 7380, Note_on_c, 2, 74, 100
7, 7420, Note_on_c, 2, 74, 0
7, 7440, Note_on_c, 2, 74, 100
7, 7480, Note_on_c, 2, 74, 0
7, 7500, Note_on_c, 2, 81, 100
7, 7540, Note_on_c, 2, 81, 0
7, 7560, Note_on_c, 2, 81, 100
7, 7600, Note_on_c, 2, 81, 0
7, 7620, Note_on_c, 2, 73, 100
7, 7660, Note_on_c, 2, 73, 0
7, 7680, Note_on_c, 2, 76, 100
7, 7720, Note_on_c, 2, 76, 0
7, 7740, Note_on_c, 2, 81, 100
7, 7780, Note_on_c, 2, 81, 0
7, 7800, Note_on_c, 2, 81, 100
7, 8680, Note_on_c, 2, 81, 0
7, 8700, Note_on_c, 2, 69, 100
7, 8740, Note_on_c, 2, 69, 0
7, 8760, Note_on_c, 2, 74, 100
7, 8800, Note_on_c, 2, 74, 0
7, 8820, Note_on_c, 2, 78, 100
7, 8860, Note_on_c, 2, 78, 0
7, 8880, Note_on_c, 2, 78, 100
7, 8920, Note_on_c, 2, 78, 0
7, 8940, Note_on_c, 2, 74, 100
7, 8980, Note_on_c, 2, 74, 0
7, 9000, Note_on_c, 2, 69, 100
7, 9040, Note_on_c, 2, 69, 0
7, 9060, Note_on_c, 2, 74, 100
7, 9100, Note_on_c, 2, 74, 0
7, 9120, Note_on_c, 2, 78, 100
7, 9160, Note_on_c, 2, 78, 0
7, 9180, Note_on_c, 2, 81, 100
7, 9220, Note_on_c, 2, 81, 0
7, 9240, Note_on_c, 2, 81, 100
7, 9280, Note_on_c, 2, 81, 0
7, 9300, Note_on_c, 2, 78, 100
7, 9340, Note_on_c, 2, 78, 0
7, 9360, Note_on_c, 2, 74, 100
7, 9440, Note_on_c, 2, 74, 0
7, 9780, Note_on_c, 2, 69, 100
7, 9820, Note_on_c, 2, 69, 0
7, 9840, Note_on_c, 2, 74, 100
7, 9860, Note_on_c, 2, 74, 0
7, 9870, Note_on_c, 2, 76, 100
7, 9890, Note_on_c, 2, 76, 0
7, 9900, Note_on_c, 2, 78, 100
7, 9940, Note_on_c, 2, 78, 0
7, 9960, Note_on_c, 2, 78, 100
7, 9980, Note_on_c, 2, 78, 0
7, 9990, Note_on_c, 2, 76, 100
7, 10010, Note_on_c, 2, 76, 0
7, 10020, Note_on_c, 2, 74, 100
7, 10040, Note_on_c, 2, 74, 0
7, 10050, Note_on_c, 2, 73, 100
7, 10070, Note_on_c, 2, 73, 0
7, 10080, Note_on_c, 2, 74, 100
7, 10100, Note_on_c, 2, 74, 0
7, 10110, Note_on_c, 2, 73, 100
7, 10130, Note_on_c, 2, 73, 0
7, 10140, Note_on_c, 2, 74, 100
7, 10160, Note_on_c, 2, 74, 0
7, 10170, Note_on_c, 2, 76, 100
7, 10190, Note_on_c, 2, 76, 0
7, 10200, Note_on_c, 2, 78, 100
7, 10220, Note_on_c, 2, 78, 0
7, 10230, Note_on_c, 2, 79, 100
7, 10250, Note_on_c, 2, 79, 0
7, 10260, Note_on_c, 2, 81, 100
7, 10300, Note_on_c, 2, 81, 0
7, 10320, Note_on_c, 2, 81, 100
7, 10340, Note_on_c, 2, 81, 0
7, 10350, Note_on_c, 2, 79, 100
7, 10370, Note_on_c, 2, 79, 0
7, 10380, Note_on_c, 2, 78, 100
7, 10400, Note_on_c, 2, 78, 0
7, 10410, Note_on_c, 2, 76, 100
7, 10430, Note_on_c, 2, 76, 0
7, 10440, Note_on_c, 2, 78, 100
7, 10460, Note_on_c, 2, 78, 0
7, 10470, Note_on_c, 2, 76, 100
7, 10490, Note_on_c, 2, 76, 0
7, 10500, Note_on_c, 2, 78, 100
7, 10520, Note_on_c, 2, 78, 0
7, 10530, Note_on_c, 2, 79, 100
7, 10550, Note_on_c, 2, 79, 0
7, 10560, Note_on_c, 2, 81, 100
7, 10600, Note_on_c, 2, 81, 0
7, 10620, Note_on_c, 2, 83, 100
7, 10640, Note_on_c, 2, 83, 0
7, 10650, Note_on_c, 2, 81, 100
7, 10670, Note_on_c, 2, 81, 0
7, 10680, Note_on_c, 2, 79, 100
7, 10700, Note_on_c, 2, 79, 0
7, 10710, Note_on_c, 2, 78, 100
7, 10730, Note_on_c, 2, 78, 0
7, 10740, Note_on_c, 2, 76, 100
7, 10760, Note_on_c, 2, 76, 0
7, 10770, Note_on_c, 2, 74, 100
7, 10790, Note_on_c, 2, 74, 0
7, 10800, Note_on_c, 2, 74, 100
7, 10880, Note_on_c, 2, 74, 0
7, 11520, Note_on_c, 2, 86, 100
7, 12297, Note_on_c, 2, 86, 0
7, 13020, Note_on_c, 2, 69, 100
7, 13060, Note_on_c, 2, 69, 0
7, 13080, Note_on_c, 2, 74, 100
7, 13360, Note_on_c, 2, 74, 0
7, 13380, Note_on_c, 2, 68, 100
7, 13420, Note_on_c, 2, 68, 0
7, 13440, Note_on_c, 2, 73, 100
7, 13720, Note_on_c, 2, 73, 0
7, 13740, Note_on_c, 2, 78, 100
7, 13770, Note_on_c, 2, 79, 100
7, 13790, Note_on_c, 2, 79, 0
7, 13800, Note_on_c, 2, 78, 100
7, 13820, Note_on_c, 2, 78, 0
7, 13820, Note_on_c, 2, 78, 0
7, 13830, Note_on_c, 2, 76, 100
7, 13850, Note_on_c, 2, 76, 0
7, 13860, Note_on_c, 2, 74, 100
7, 13880, Note_on_c, 2, 74, 0
7, 13890, Note_on_c, 2, 73, 100
7, 13910, Note_on_c, 2, 73, 0
7, 13920, Note_on_c, 2, 81, 100
7, 14060, Note_on_c, 2, 81, 0
7, 14070, Note_on_c, 2, 76, 100
7, 14090, Note_on_c, 2, 76, 0
7, 14100, Note_on_c, 2, 78, 100
7, 14120, Note_on_c, 2, 78, 0
7, 14130, Note_on_c, 2, 79, 100
7, 14150, Note_on_c, 2, 79, 0
7, 14160, Note_on_c, 2, 78, 100
7, 14180, Note_on_c, 2, 78, 0
7, 14190, Note_on_c, 2, 76, 100
7, 14210, Note_on_c, 2, 76, 0
7, 14220, Note_on_c, 2, 74, 100
7, 14240, Note_on_c, 2, 74, 0
7, 14250, Note_on_c, 2, 73, 100
7, 14270, Note_on_c, 2, 73, 0
7, 14280, Note_on_c, 2, 83, 100
7, 14440, Note_on_c, 2, 83, 0
7, 14460, Note_on_c, 2, 71, 100
7, 14500, Note_on_c, 2, 71, 0
7, 14520, Note_on_c, 2, 71, 100
7, 14560, Note_on_c, 2, 71, 0
7, 14580, Note_on_c, 2, 74, 100
7, 14620, Note_on_c, 2, 74, 0
7, 14640, Note_on_c, 2, 74, 100
7, 14680, Note_on_c, 2, 74, 0
7, 14700, Note_on_c, 2, 73, 100
7, 14720, Note_on_c, 2, 73, 0
7, 14730, Note_on_c, 2, 71, 100
7, 14750, Note_on_c, 2, 71, 0
7, 14760, Note_on_c, 2, 69, 100
7, 14800, Note_on_c, 2, 69, 0
7, 14820, Note_on_c, 2, 73, 100
7, 14860, Note_on_c, 2, 73, 0
7, 14880, Note_on_c, 2, 76, 100
7, 14920, Note_on_c, 2, 76, 0
7, 14940, Note_on_c, 2, 79, 100
7, 14980, Note_on_c, 2, 79, 0
7, 15000, Note_on_c, 2, 79, 100
7, 15040, Note_on_c, 2, 79, 0
7, 15060, Note_on_c, 2, 78, 100
7, 15080, Note_on_c, 2, 78, 0
7, 15090, Note_on_c, 2, 76, 100
7, 15110, Note_on_c, 2, 76, 0
7, 15120, Note_on_c, 2, 74, 100
7, 15140, Note_on_c, 2, 74, 0
7, 15150, Note_on_c, 2, 76, 100
7, 15170, Note_on_c, 2, 76, 0
7, 15180, Note_on_c, 2, 74, 100
7, 15200, Note_on_c, 2, 74, 0
7, 15210, Note_on_c, 2, 73, 100
7, 15230, Note_on_c, 2, 73, 0
7, 15240, Note_on_c, 2, 74, 100
7, 15260, Note_on_c, 2, 74, 0
7, 15270, Note_on_c, 2, 73, 100
7, 15290, Note_on_c, 2, 73, 0
7, 15300, Note_on_c, 2, 71, 100
7, 15320, Note_on_c, 2, 71, 0
7, 15330, Note_on_c, 2, 69, 100
7, 15350, Note_on_c, 2, 69, 0
7, 15360, Note_on_c, 2, 74, 100
7, 15520, Note_on_c, 2, 74, 0
7, 15540, Note_on_c, 2, 76, 100
7, 15560, Note_on_c, 2, 76, 0
7, 15570, Note_on_c, 2, 78, 100
7, 15590, Note_on_c, 2, 78, 0
7, 15600, Note_on_c, 2, 76, 100
7, 15620, Note_on_c, 2, 76, 0
7, 15630, Note_on_c, 2, 74, 100
7, 15650, Note_on_c, 2, 74, 0
7, 15660, Note_on_c, 2, 73, 100
7, 15680, Note_on_c, 2, 73, 0
7, 15690, Note_on_c, 2, 71, 100
7, 15710, Note_on_c, 2, 71, 0
7, 15720, Note_on_c, 2, 69, 100
7, 15740, Note_on_c, 2, 69, 0
7, 15750, Note_on_c, 2, 68, 100
7, 15770, Note_on_c, 2, 68, 0
7, 15780, Note_on_c, 2, 74, 100
7, 15820, Note_on_c, 2, 74, 0
7, 15840, Note_on_c, 2, 73, 100
7, 15920, Note_on_c, 2, 73, 0
7, 16560, Note_on_c, 2, 73, 100
7, 16580, Note_on_c, 2, 73, 0
7, 16590, Note_on_c, 2, 81, 100
7, 16610, Note_on_c, 2, 81, 0
7, 16620, Note_on_c, 2, 80, 100
7, 16640, Note_on_c, 2, 80, 0
7, 16650, Note_on_c, 2, 78, 100
7, 16670, Note_on_c, 2, 78, 0
7, 16680, Note_on_c, 2, 76, 100
7, 16700, Note_on_c, 2, 76, 0
7, 16710, Note_on_c, 2, 74, 100
7, 16730, Note_on_c, 2, 74, 0
7, 16740, Note_on_c, 2, 73, 100
7, 16760, Note_on_c, 2, 73, 0
7, 16770, Note_on_c, 2, 74, 100
7, 16790, Note_on_c, 2, 74, 0
7, 16800, Note_on_c, 2, 76, 100
7, 16820, Note_on_c, 2, 76, 0
7, 16830, Note_on_c, 2, 78, 100
7, 16850, Note_on_c, 2, 78, 0
7, 16860, Note_on_c, 2, 76, 100
7, 16880, Note_on_c, 2, 76, 0
7, 16890, Note_on_c, 2, 78, 100
7, 16910, Note_on_c, 2, 78, 0
7, 16920, Note_on_c, 2, 76, 100
7, 16940, Note_on_c, 2, 76, 0
7, 16950, Note_on_c, 2, 81, 100
7, 16970, Note_on_c, 2, 81, 0
7, 16980, Note_on_c, 2, 80, 100
7, 17000, Note_on_c, 2, 80, 0
7, 17010, Note_on_c, 2, 78, 100
7, 17030, Note_on_c, 2, 78, 0
7, 17040, Note_on_c, 2, 76, 100
7, 17060, Note_on_c, 2, 76, 0
7, 17070, Note_on_c, 2, 74, 100
7, 17090, Note_on_c, 2, 74, 0
7, 17100, Note_on_c, 2, 73, 100
7, 17120, Note_on_c, 2, 73, 0
7, 17130, Note_on_c, 2, 74, 100
7, 17150, Note_on_c, 2, 74, 0
7, 17160, Note_on_c, 2, 76, 100
7, 17180, Note_on_c, 2, 76, 0
7, 17190, Note_on_c, 2, 78, 100
7, 17210, Note_on_c, 2, 78, 0
7, 17220, Note_on_c, 2, 76, 100
7, 17240, Note_on_c, 2, 76, 0
7, 17250, Note_on_c, 2, 78, 100
7, 17270, Note_on_c, 2, 78, 0
7, 17280, Note_on_c, 2, 76, 100
7, 17360, Note_on_c, 2, 76, 0
7, 18000, Note_on_c, 2, 85, 100
7, 18040, Note_on_c, 2, 85, 0
7, 18060, Note_on_c, 2, 81, 100
7, 18100, Note_on_c, 2, 81, 0
7, 18360, Note_on_c, 2, 78, 100
7, 18400, Note_on_c, 2, 78, 0
7, 18420, Note_on_c, 2, 73, 100
7, 18460, Note_on_c, 2, 73, 0
7, 18720, Note_on_c, 2, 78, 100
7, 18760, Note_on_c, 2, 78, 0
7, 18780, Note_on_c, 2, 74, 100
7, 18820, Note_on_c, 2, 74, 0
7, 19080, Note_on_c, 2, 80, 100
7, 19120, Note_on_c, 2, 80, 0
7, 19140, Note_on_c, 2, 71, 100
7, 19180, Note_on_c, 2, 71, 0
7, 19440, Note_on_c, 2, 81, 100
7, 19480, Note_on_c, 2, 81, 0
7, 19500, Note_on_c, 2, 69, 100
7, 19540, Note_on_c, 2, 69, 0
7, 19800, Note_on_c, 2, 81, 100
7, 19840, Note_on_c, 2, 81, 0
7, 19860, Note_on_c, 2, 76, 100
7, 19900, Note_on_c, 2, 76, 0
7, 20280, Note_on_c, 2, 74, 100
7, 20320, Note_on_c, 2, 74, 0
7, 20340, Note_on_c, 2, 69, 100
7, 20380, Note_on_c, 2, 69, 0
7, 20640, Note_on_c, 2, 78, 100
7, 20680, Note_on_c, 2, 78, 0
7, 20700, Note_on_c, 2, 74, 100
7, 20740, Note_on_c, 2, 74, 0
7, 20760, Note_on_c, 2, 86, 100
7, 21000, Note_on_c, 2, 86, 0
7, 21060, Note_on_c, 2, 85, 100
7, 21080, Note_on_c, 2, 85, 0
7, 21090, Note_on_c, 2, 83, 100
7, 21110, Note_on_c, 2, 83, 0
7, 21120, Note_on_c, 2, 81, 100
7, 21140, Note_on_c, 2, 81, 0
7, 21150, Note_on_c, 2, 83, 100
7, 21170, Note_on_c, 2, 83, 0
7, 21180, Note_on_c, 2, 81, 100
7, 21200, Note_on_c, 2, 81, 0
7, 21210, Note_on_c, 2, 79, 100
7, 21230, Note_on_c, 2, 79, 0
7, 21240, Note_on_c, 2, 78, 100
7, 21260, Note_on_c, 2, 78, 0
7, 21270, Note_on_c, 2, 79, 100
7, 21290, Note_on_c, 2, 79, 0
7, 21300, Note_on_c, 2, 78, 100
7, 21320, Note_on_c, 2, 78, 0
7, 21330, Note_on_c, 2, 76, 100
7, 21350, Note_on_c, 2, 76, 0
7, 21360, Note_on_c, 2, 74, 100
7, 21380, Note_on_c, 2, 74, 0
7, 21390, Note_on_c, 2, 86, 100
7, 21410, Note_on_c, 2, 86, 0
7, 21420, Note_on_c, 2, 85, 100
7, 21440, Note_on_c, 2, 85, 0
7, 21450, Note_on_c, 2, 83, 100
7, 21470, Note_on_c, 2, 83, 0
7, 21480, Note_on_c, 2, 81, 100
7, 21500, Note_on_c, 2, 81, 0
7, 21510, Note_on_c, 2, 83, 100
7, 21530, Note_on_c, 2, 83, 0
7, 21540, Note_on_c, 2, 81, 100
7, 21560, Note_on_c, 2, 81, 0
7, 21570, Note_on_c, 2, 79, 100
7, 21590, Note_on_c, 2, 79, 0
7, 21600, Note_on_c, 2, 78, 100
7, 21620, Note_on_c, 2, 78, 0
7, 21630, Note_on_c, 2, 79, 100
7, 21650, Note_on_c, 2, 79, 0
7, 21660, Note_on_c, 2, 78, 100
7, 21680, Note_on_c, 2, 78, 0
7, 21690, Note_on_c, 2, 76, 100
7, 21710, Note_on_c, 2, 76, 0
7, 21720, Note_on_c, 2, 74, 100
7, 21760, Note_on_c, 2, 74, 0
7, 22740, Note_on_c, 2, 74, 100
7, 22780, Note_on_c, 2, 74, 0
7, 22800, Note_on_c, 2, 79, 100
7, 22820, Note_on_c, 2, 79, 0
7, 22830, Note_on_c, 2, 81, 100
7, 22850, Note_on_c, 2, 81, 0
7, 22860, Note_on_c, 2, 83, 100
7, 22900, Note_on_c, 2, 83, 0
7, 22920, Note_on_c, 2, 83, 100
7, 22940, Note_on_c, 2, 83, 0
7, 22950, Note_on_c, 2, 81, 100
7, 22970, Note_on_c, 2, 81, 0
7, 22980, Note_on_c, 2, 79, 100
7, 23000, Note_on_c, 2, 79, 0
7, 23010, Note_on_c, 2, 78, 100
7, 23030, Note_on_c, 2, 78, 0
7, 23040, Note_on_c, 2, 79, 100
7, 23080, Note_on_c, 2, 79, 0
7, 23100, Note_on_c, 2, 74, 100
7, 23140, Note_on_c, 2, 74, 0
7, 23940, Note_on_c, 2, 71, 100
7, 23960, Note_on_c, 2, 71, 0
7, 23970, Note_on_c, 2, 72, 100
7, 23990, Note_on_c, 2, 72, 0
7, 24000, Note_on_c, 2, 71, 100
7, 24020, Note_on_c, 2, 71, 0
7, 24030, Note_on_c, 2, 69, 100
7, 24050, Note_on_c, 2, 69, 0
7, 24060, Note_on_c, 2, 67, 100
7, 24080, Note_on_c, 2, 67, 0
7, 24090, Note_on_c, 2, 66, 100
7, 24110, Note_on_c, 2, 66, 0
7, 24120, Note_on_c, 2, 64, 100
7, 24140, Note_on_c, 2, 64, 0
7, 24150, Note_on_c, 2, 71, 100
7, 24170, Note_on_c, 2, 71, 0
7, 24180, Note_on_c, 2, 69, 100
7, 24200, Note_on_c, 2, 69, 0
7, 24210, Note_on_c, 2, 67, 100
7, 24230, Note_on_c, 2, 67, 0
7, 24240, Note_on_c, 2, 66, 100
7, 24260, Note_on_c, 2, 66, 0
7, 24270, Note_on_c, 2, 67, 100
7, 24290, Note_on_c, 2, 67, 0
7, 24300, Note_on_c, 2, 69, 100
7, 24320, Note_on_c, 2, 69, 0
7, 24330, Note_on_c, 2, 71, 100
7, 24350, Note_on_c, 2, 71, 0
7, 24360, Note_on_c, 2, 69, 100
7, 24380, Note_on_c, 2, 69, 0
7, 24390, Note_on_c, 2, 67, 100
7, 24410, Note_on_c, 2, 67, 0
7, 24420, Note_on_c, 2, 66, 100
7, 24440, Note_on_c, 2, 66, 0
7, 24450, Note_on_c, 2, 64, 100
7, 24470, Note_on_c, 2, 64, 0
7, 24480, Note_on_c, 2, 62, 100
7, 24520, Note_on_c, 2, 62, 0
7, 24540, Note_on_c, 2, 74, 100
7, 24560, Note_on_c, 2, 74, 0
7, 24570, Note_on_c, 2, 76, 100
7, 24590, Note_on_c, 2, 76, 0
7, 24600, Note_on_c, 2, 74, 100
7, 24620, Note_on_c, 2, 74, 0
7, 24630, Note_on_c, 2, 72, 100
7, 24650, Note_on_c, 2, 72, 0
7, 24660, Note_on_c, 2, 71, 100
7, 24680, Note_on_c, 2, 71, 0
7, 24690, Note_on_c, 2, 69, 100
7, 24710, Note_on_c, 2, 69, 0
7, 24720, Note_on_c, 2, 67, 100
7, 24740, Note_on_c, 2, 67, 0
7, 24750, Note_on_c, 2, 66, 100
7, 24770, Note_on_c, 2, 66, 0
7, 24780, Note_on_c, 2, 64, 100
7, 24800, Note_on_c, 2, 64, 0
7, 24810, Note_on_c, 2, 66, 100
7, 24830, Note_on_c, 2, 66, 0
7, 24840, Note_on_c, 2, 67, 100
7, 24860, Note_on_c, 2, 67, 0
7, 24870, Note_on_c, 2, 66, 100
7, 24890, Note_on_c, 2, 66, 0
7, 24900, Note_on_c, 2, 67, 100
7, 24920, Note_on_c, 2, 67, 0
7, 24930, Note_on_c, 2, 69, 100
7, 24950, Note_on_c, 2, 69, 0
7, 24960, Note_on_c, 2, 67, 100
7, 24980, Note_on_c, 2, 67, 0
7, 24990, Note_on_c, 2, 66, 100
7, 25010, Note_on_c, 2, 66, 0
7, 25020, Note_on_c, 2, 64, 100
7, 25040, Note_on_c, 2, 64, 0
7, 25050, Note_on_c, 2, 74, 100
7, 25070, Note_on_c, 2, 74, 0
7, 25080, Note_on_c, 2, 73, 100
7, 25100, Note_on_c, 2, 73, 0
7, 25110, Note_on_c, 2, 71, 100
7, 25130, Note_on_c, 2, 71, 0
7, 25140, Note_on_c, 2, 69, 100
7, 25160, Note_on_c, 2, 69, 0
7, 25170, Note_on_c, 2, 71, 100
7, 25190, Note_on_c, 2, 71, 0
7, 25200, Note_on_c, 2, 73, 100
7, 25240, Note_on_c, 2, 73, 0
7, 25260, Note_on_c, 2, 76, 100
7, 25280, Note_on_c, 2, 76, 0
7, 25290, Note_on_c, 2, 78, 100
7, 25310, Note_on_c, 2, 78, 0
7, 25320, Note_on_c, 2, 79, 100
7, 25340, Note_on_c, 2, 79, 0
7, 25350, Note_on_c, 2, 78, 100
7, 25370, Note_on_c, 2, 78, 0
7, 25380, Note_on_c, 2, 76, 100
7, 25400, Note_on_c, 2, 76, 0
7, 25410, Note_on_c, 2, 74, 100
7, 25430, Note_on_c, 2, 74, 0
7, 25440, Note_on_c, 2, 81, 100
7, 25600, Note_on_c, 2, 81, 0
7, 25620, Note_on_c, 2, 83, 100
7, 25640, Note_on_c, 2, 83, 0
7, 25650, Note_on_c, 2, 81, 100
7, 25670, Note_on_c, 2, 81, 0
7, 25680, Note_on_c, 2, 79, 100
7, 25700, Note_on_c, 2, 79, 0
7, 25710, Note_on_c, 2, 78, 100
7, 25730, Note_on_c, 2, 78, 0
7, 25740, Note_on_c, 2, 76, 100
7, 25760, Note_on_c, 2, 76, 0
7, 25770, Note_on_c, 2, 74, 100
7, 25790, Note_on_c, 2, 74, 0
7, 25800, Note_on_c, 2, 86, 100
7, 25960, Note_on_c, 2, 86, 0
7, 25980, Note_on_c, 2, 71, 100
7, 26020, Note_on_c, 2, 71, 0
7, 26040, Note_on_c, 2, 76, 100
7, 26080, Note_on_c, 2, 76, 0
7, 26100, Note_on_c, 2, 79, 100
7, 26140, Note_on_c, 2, 79, 0
7, 26160, Note_on_c, 2, 79, 100
7, 26180, Note_on_c, 2, 79, 0
7, 26190, Note_on_c, 2, 78, 100
7, 26210, Note_on_c, 2, 78, 0
7, 26220, Note_on_c, 2, 76, 100
7, 26240, Note_on_c, 2, 76, 0
7, 26250, Note_on_c, 2, 74, 100
7, 26270, Note_on_c, 2, 74, 0
7, 26280, Note_on_c, 2, 73, 100
7, 26320, Note_on_c, 2, 73, 0
7, 26340, Note_on_c, 2, 76, 100
7, 26380, Note_on_c, 2, 76, 0
7, 26400, Note_on_c, 2, 69, 100
7, 26440, Note_on_c, 2, 69, 0
7, 26460, Note_on_c, 2, 74, 100
7, 26500, Note_on_c, 2, 74, 0
7, 26520, Note_on_c, 2, 64, 100
7, 26560, Note_on_c, 2, 64, 0
7, 26580, Note_on_c, 2, 73, 100
7, 26620, Note_on_c, 2, 73, 0
7, 26640, Note_on_c, 2, 74, 100
7, 26680, Note_on_c, 2, 74, 0
7, 26700, Note_on_c, 2, 66, 100
7, 26740, Note_on_c, 2, 66, 0
7, 27000, Note_on_c, 2, 69, 100
7, 27040, Note_on_c, 2, 69, 0
7, 27060, Note_on_c, 2, 73, 100
7, 27080, Note_on_c, 2, 73, 0
7, 27090, Note_on_c, 2, 76, 100
7, 27110, Note_on_c, 2, 76, 0
7, 27120, Note_on_c, 2, 81, 100
7, 27160, Note_on_c, 2, 81, 0
7, 27180, Note_on_c, 2, 85, 100
7, 27220, Note_on_c, 2, 85, 0
7, 27240, Note_on_c, 2, 85, 100
7, 27280, Note_on_c, 2, 85, 0
7, 27300, Note_on_c, 2, 81, 100
7, 27340, Note_on_c, 2, 81, 0
7, 27360, Note_on_c, 2, 78, 100
7, 27380, Note_on_c, 2, 78, 0
7, 27390, Note_on_c, 2, 69, 100
7, 27410, Note_on_c, 2, 69, 0
7, 27420, Note_on_c, 2, 74, 100
7, 27440, Note_on_c, 2, 74, 0
7, 27450, Note_on_c, 2, 78, 100
7, 27470, Note_on_c, 2, 78, 0
7, 27480, Note_on_c, 2, 81, 100
7, 27520, Note_on_c, 2, 81, 0
7, 27540, Note_on_c, 2, 86, 100
7, 27580, Note_on_c, 2, 86, 0
7, 27600, Note_on_c, 2, 86, 100
7, 27640, Note_on_c, 2, 86, 0
7, 27660, Note_on_c, 2, 81, 100
7, 27700, Note_on_c, 2, 81, 0
7, 27720, Note_on_c, 2, 83, 100
7, 27760, Note_on_c, 2, 83, 0
7, 27780, Note_on_c, 2, 79, 100
7, 27820, Note_on_c, 2, 79, 0
7, 27840, Note_on_c, 2, 76, 100
7, 27880, Note_on_c, 2, 76, 0
7, 27900, Note_on_c, 2, 71, 100
7, 27940, Note_on_c, 2, 71, 0
7, 27960, Note_on_c, 2, 76, 100
7, 28000, Note_on_c, 2, 76, 0
7, 28020, Note_on_c, 2, 79, 100
7, 28120, Note_on_c, 2, 79, 0
7, 28140, Note_on_c, 2, 76, 100
7, 28180, Note_on_c, 2, 76, 0
7, 28200, Note_on_c, 2, 81, 100
7, 28240, Note_on_c, 2, 81, 0
7, 28260, Note_on_c, 2, 85, 100
7, 28300, Note_on_c, 2, 85, 0
7, 28320, Note_on_c, 2, 85, 100
7, 28360, Note_on_c, 2, 85, 0
7, 28380, Note_on_c, 2, 81, 100
7, 28420, Note_on_c, 2, 81, 0
7, 28440, Note_on_c, 2, 86, 100
7, 28480, Note_on_c, 2, 86, 0
7, 28500, Note_on_c, 2, 83, 100
7, 28540, Note_on_c, 2, 83, 0
7, 28560, Note_on_c, 2, 80, 100
7, 28600, Note_on_c, 2, 80, 0
7, 28620, Note_on_c, 2, 74, 100
7, 28660, Note_on_c, 2, 74, 0
7, 28680, Note_on_c, 2, 74, 100
7, 28720, Note_on_c, 2, 74, 0
7, 28740, Note_on_c, 2, 81, 100
7, 28780, Note_on_c, 2, 81, 0
7, 28800, Note_on_c, 2, 81, 100
7, 28840, Note_on_c, 2, 81, 0
7, 28860, Note_on_c, 2, 73, 100
7, 28900, Note_on_c, 2, 73, 0
7, 28920, Note_on_c, 2, 76, 100
7, 28960, Note_on_c, 2, 76, 0
7, 28980, Note_on_c, 2, 81, 100
7, 29020, Note_on_c, 2, 81, 0
7, 29040, Note_on_c, 2, 81, 100
7, 29920, Note_on_c, 2, 81, 0
7, 29940, Note_on_c, 2, 69, 100
7, 29980, Note_on_c, 2, 69, 0
7, 30000, Note_on_c, 2, 74, 100
7, 30040, Note_on_c, 2, 74, 0
7, 30060, Note_on_c, 2, 78, 100
7, 30100, Note_on_c, 2, 78, 0
7, 30120, Note_on_c, 2, 78, 100
7, 30160, Note_on_c, 2, 78, 0
7, 30180, Note_on_c, 2, 74, 100
7, 30220, Note_on_c, 2, 74, 0
7, 30240, Note_on_c, 2, 69, 100
7, 30280, Note_on_c, 2, 69, 0
7, 30300, Note_on_c, 2, 74, 100
7, 30340, Note_on_c, 2, 74, 0
7, 30360, Note_on_c, 2, 78, 100
7, 30400, Note_on_c, 2, 78, 0
7, 30420, Note_on_c, 2, 81, 100
7, 30460, Note_on_c, 2, 81, 0
7, 30480, Note_on_c, 2, 81, 100
7, 30520, Note_on_c, 2, 81, 0
7, 30540, Note_on_c, 2, 78, 100
7, 30580, Note_on_c, 2, 78, 0
7, 30600, Note_on_c, 2, 74, 100
7, 30680, Note_on_c, 2, 74, 0
7, 31020, Note_on_c, 2, 69, 100
7, 31060, Note_on_c, 2, 69, 0
7, 31080, Note_on_c, 2, 74, 100
7, 31100, Note_on_c, 2, 74, 0
7, 31110, Note_on_c, 2, 76, 100
7, 31130, Note_on_c, 2, 76, 0
7, 31140, Note_on_c, 2, 78, 100
7, 31180, Note_on_c, 2, 78, 0
7, 31200, Note_on_c, 2, 78, 100
7, 31220, Note_on_c, 2, 78, 0
7, 31230, Note_on_c, 2, 76, 100
7, 31250, Note_on_c, 2, 76, 0
7, 31260, Note_on_c, 2, 74, 100
7, 31280, Note_on_c, 2, 74, 0
7, 31290, Note_on_c, 2, 73, 100
7, 31310, Note_on_c, 2, 73, 0
7, 31320, Note_on_c, 2, 74, 100
7, 31340, Note_on_c, 2, 74, 0
7, 31350, Note_on_c, 2, 73, 100
7, 31370, Note_on_c, 2, 73, 0
7, 31380, Note_on_c, 2, 74, 100
7, 31400, Note_on_c, 2, 74, 0
7, 31410, Note_on_c, 2, 76, 100
7, 31430, Note_on_c, 2, 76, 0
7, 31440, Note_on_c, 2, 78, 100
7, 31460, Note_on_c, 2, 78, 0
7, 31470, Note_on_c, 2, 79, 100
7, 31490, Note_on_c, 2, 79, 0
7, 31500, Note_on_c, 2, 81, 100
7, 31540, Note_on_c, 2, 81, 0
7, 31560, Note_on_c, 2, 81, 100
7, 31580, Note_on_c, 2, 81, 0
7, 31590, Note_on_c, 2, 79, 100
7, 31610, Note_on_c, 2, 79, 0
7, 31620, Note_on_c, 2, 78, 100
7, 31640, Note_on_c, 2, 78, 0
7, 31650, Note_on_c, 2, 76, 100
7, 31670, Note_on_c, 2, 76, 0
7, 31680, Note_on_c, 2, 78, 100
7, 31700, Note_on_c, 2, 78, 0
7, 31710, Note_on_c, 2, 76, 100
7, 31730, Note_on_c, 2, 76, 0
7, 31740, Note_on_c, 2, 78, 100
7, 31760, Note_on_c, 2, 78, 0
7, 31770, Note_on_c, 2, 79, 100
7, 31790, Note_on_c, 2, 79, 0
7, 31800, Note_on_c, 2, 81, 100
7, 31840, Note_on_c, 2, 81, 0
7, 31860, Note_on_c, 2, 83, 100
7, 31880, Note_on_c, 2, 83, 0
7, 31890, Note_on_c, 2, 81, 100
7, 31910, Note_on_c, 2, 81, 0
7, 31920, Note_on_c, 2, 79, 100
7, 31940, Note_on_c, 2, 79, 0
7, 31950, Note_on_c, 2, 78, 100
7, 31970, Note_on_c, 2, 78, 0
7, 31980, Note_on_c, 2, 76, 100
7, 32000, Note_on_c, 2, 76, 0
7, 32010, Note_on_c, 2, 74, 100
7, 32030, Note_on_c, 2, 74, 0
7, 32040, Note_on_c, 2, 74, 100
7, 32120, Note_on_c, 2, 74, 0
7, 61020, Control_c, 2, 0, 0
7, 61080, Note_on_c, 2, 66, 90
7, 61110, Note_on_c, 2, 66, 0
7, 61110, Note_on_c, 2, 68, 90
7, 61140, Note_on_c, 2, 68, 0
7, 61140, Note_on_c, 2, 69, 90
7, 61170, Note_on_c, 2, 69, 0
7, 61170, Note_on_c, 2, 66, 90
7, 61200, Note_on_c, 2, 66, 0
7, 61200, Note_on_c, 2, 68, 90
7, 61230, Note_on_c, 2, 68, 0
7, 61230, Note_on_c, 2, 69, 90
7, 61260, Note_on_c, 2, 69, 0
7, 61260, Note_on_c, 2, 71, 90
7, 61290, Note_on_c, 2, 71, 0
7, 61290, Note_on_c, 2, 69, 90
7, 61320, Note_on_c, 2, 69, 0
7, 61320, Note_on_c, 2, 68, 90
7, 61350, Note_on_c, 2, 68, 0
7, 61350, Note_on_c, 2, 69, 90
7, 61380, Note_on_c, 2, 69, 0
7, 61380, Note_on_c, 2, 71, 90
7, 61410, Note_on_c, 2, 71, 0
7, 61410, Note_on_c, 2, 68, 90
7, 61440, Note_on_c, 2, 68, 0
7, 61440, Note_on_c, 2, 69, 90
7, 61470, Note_on_c, 2, 69, 0
7, 61470, Note_on_c, 2, 71, 90
7, 61500, Note_on_c, 2, 71, 0
7, 61500, Note_on_c, 2, 73, 90
7, 61620, Note_on_c, 2, 73, 0
7, 61740, Note_on_c, 2, 73, 90
7, 61800, Note_on_c, 2, 73, 0
7, 61800, Note_on_c, 2, 73, 90
7, 61860, Note_on_c, 2, 73, 0
7, 61860, Note_on_c, 2, 73, 90
7, 61920, Note_on_c, 2, 73, 0
7, 61920, Note_on_c, 2, 73, 90
7, 61980, Note_on_c, 2, 73, 0
7, 61980, Note_on_c, 2, 73, 90
7, 62040, Note_on_c, 2, 73, 0
7, 62040, Note_on_c, 2, 71, 90
7, 62070, Note_on_c, 2, 71, 0
7, 62070, Note_on_c, 2, 69, 90
7, 62100, Note_on_c, 2, 69, 0
7, 62100, Note_on_c, 2, 68, 90
7, 62160, Note_on_c, 2, 68, 0
7, 62160, Note_on_c, 2, 66, 90
7, 62220, Note_on_c, 2, 66, 0
7, 62220, Note_on_c, 2, 65, 90
7, 62280, Note_on_c, 2, 65, 0
7, 62280, Note_on_c, 2, 73, 90
7, 62370, Note_on_c, 2, 73, 0
7, 62370, Note_on_c, 2, 71, 90
7, 62400, Note_on_c, 2, 71, 0
7, 62400, Note_on_c, 2, 69, 90
7, 62430, Note_on_c, 2, 69, 0
7, 62430, Note_on_c, 2, 68, 90
7, 62460, Note_on_c, 2, 68, 0
7, 62460, Note_on_c, 2, 66, 90
7, 62490, Note_on_c, 2, 66, 0
7, 62490, Note_on_c, 2, 65, 90
7, 62520, Note_on_c, 2, 65, 0
7, 62520, Note_on_c, 2, 66, 90
7, 62550, Note_on_c, 2, 66, 0
7, 62550, Note_on_c, 2, 68, 90
7, 62580, Note_on_c, 2, 68, 0
7, 62580, Note_on_c, 2, 69, 90
7, 62610, Note_on_c, 2, 69, 0
7, 62610, Note_on_c, 2, 68, 90
7, 62640, Note_on_c, 2, 68, 0
7, 62640, Note_on_c, 2, 69, 90
7, 62670, Note_on_c, 2, 69, 0
7, 62670, Note_on_c, 2, 71, 90
7, 62700, Note_on_c, 2, 71, 0
7, 62700, Note_on_c, 2, 73, 90
7, 62880, Note_on_c, 2, 73, 0
7, 62880, Note_on_c, 2, 68, 90
7, 62940, Note_on_c, 2, 68, 0
7, 62940, Note_on_c, 2, 69, 90
7, 62970, Note_on_c, 2, 69, 0
7, 62970, Note_on_c, 2, 68, 90
7, 63000, Note_on_c, 2, 68, 0
7, 63000, Note_on_c, 2, 69, 90
7, 63030, Note_on_c, 2, 69, 0
7, 63030, Note_on_c, 2, 71, 90
7, 63060, Note_on_c, 2, 71, 0
7, 63060, Note_on_c, 2, 73, 90
7, 63090, Note_on_c, 2, 73, 0
7, 63090, Note_on_c, 2, 71, 90
7, 63120, Note_on_c, 2, 71, 0
7, 63120, Note_on_c, 2, 73, 90
7, 63150, Note_on_c, 2, 73, 0
7, 63150, Note_on_c, 2, 74, 90
7, 63180, Note_on_c, 2, 74, 0
7, 63180, Note_on_c, 2, 68, 90
7, 63240, Note_on_c, 2, 68, 0
7, 63240, Note_on_c, 2, 68, 90
7, 63300, Note_on_c, 2, 68, 0
7, 63300, Note_on_c, 2, 68, 90
7, 63360, Note_on_c, 2, 68, 0
7, 63360, Note_on_c, 2, 68, 90
7, 63420, Note_on_c, 2, 68, 0
7, 63420, Note_on_c, 2, 68, 90
7, 63480, Note_on_c, 2, 68, 0
7, 63480, Note_on_c, 2, 66, 90
7, 63510, Note_on_c, 2, 66, 0
7, 63510, Note_on_c, 2, 64, 90
7, 63540, Note_on_c, 2, 64, 0
7, 63540, Note_on_c, 2, 62, 90
7, 63600, Note_on_c, 2, 62, 0
7, 63600, Note_on_c, 2, 69, 90
7, 63660, Note_on_c, 2, 69, 0
7, 63660, Note_on_c, 2, 71, 90
7, 63720, Note_on_c, 2, 71, 0
7, 63720, Note_on_c, 2, 76, 90
7, 63780, Note_on_c, 2, 76, 0
7, 63780, Note_on_c, 2, 64, 90
7, 63960, Note_on_c, 2, 64, 0
7, 63960, Note_on_c, 2, 73, 90
7, 63990, Note_on_c, 2, 73, 0
7, 63990, Note_on_c, 2, 71, 90
7, 64020, Note_on_c, 2, 71, 0
7, 64020, Note_on_c, 2, 69, 90
7, 64050, Note_on_c, 2, 69, 0
7, 64050, Note_on_c, 2, 71, 90
7, 64080, Note_on_c, 2, 71, 0
7, 64080, Note_on_c, 2, 69, 90
7, 64110, Note_on_c, 2, 69, 0
7, 64110, Note_on_c, 2, 68, 90
7, 64140, Note_on_c, 2, 68, 0
7, 64140, Note_on_c, 2, 66, 90
7, 64200, Note_on_c, 2, 66, 0
7, 64200, Note_on_c, 2, 71, 90
7, 64230, Note_on_c, 2, 71, 0
7, 64230, Note_on_c, 2, 73, 90
7, 64260, Note_on_c, 2, 73, 0
7, 64260, Note_on_c, 2, 74, 90
7, 64290, Note_on_c, 2, 74, 0
7, 64290, Note_on_c, 2, 71, 90
7, 64320, Note_on_c, 2, 71, 0
7, 64320, Note_on_c, 2, 73, 90
7, 64350, Note_on_c, 2, 73, 0
7, 64350, Note_on_c, 2, 74, 90
7, 64380, Note_on_c, 2, 74, 0
7, 64380, Note_on_c, 2, 76, 90
7, 64440, Note_on_c, 2, 76, 0
7, 64440, Note_on_c, 2, 76, 90
7, 64500, Note_on_c, 2, 76, 0
7, 64500, Note_on_c, 2, 76, 90
7, 64560, Note_on_c, 2, 76, 0
7, 64560, Note_on_c, 2, 76, 90
7, 64620, Note_on_c, 2, 76, 0
7, 64620, Note_on_c, 2, 76, 90
7, 64680, Note_on_c, 2, 76, 0
7, 64680, Note_on_c, 2, 74, 90
7, 64710, Note_on_c, 2, 74, 0
7, 64710, Note_on_c, 2, 73, 90
7, 64740, Note_on_c, 2, 73, 0
7, 64740, Note_on_c, 2, 71, 90
7, 64800, Note_on_c, 2, 71, 0
7, 64800, Note_on_c, 2, 69, 90
7, 64860, Note_on_c, 2, 69, 0
7, 64860, Note_on_c, 2, 68, 90
7, 64920, Note_on_c, 2, 68, 0
7, 64920, Note_on_c, 2, 69, 90
7, 64950, Note_on_c, 2, 69, 0
7, 64950, Note_on_c, 2, 71, 90
7, 64980, Note_on_c, 2, 71, 0
7, 64980, Note_on_c, 2, 73, 90
7, 65130, Note_on_c, 2, 73, 0
7, 65130, Note_on_c, 2, 71, 90
7, 65160, Note_on_c, 2, 71, 0
7, 65160, Note_on_c, 2, 73, 90
7, 65190, Note_on_c, 2, 73, 0
7, 65190, Note_on_c, 2, 74, 90
7, 65220, Note_on_c, 2, 74, 0
7, 65220, Note_on_c, 2, 71, 90
7, 65340, Note_on_c, 2, 71, 0
7, 65340, Note_on_c, 2, 69, 90
7, 65460, Note_on_c, 2, 69, 0
7, 66060, Note_on_c, 2, 71, 90
7, 66120, Note_on_c, 2, 71, 0
7, 66120, Note_on_c, 2, 71, 90
7, 66180, Note_on_c, 2, 71, 0
7, 66180, Note_on_c, 2, 71, 90
7, 66240, Note_on_c, 2, 71, 0
7, 66240, Note_on_c, 2, 71, 90
7, 66300, Note_on_c, 2, 71, 0
7, 66300, Note_on_c, 2, 71, 90
7, 66360, Note_on_c, 2, 71, 0
7, 66360, Note_on_c, 2, 69, 90
7, 66390, Note_on_c, 2, 69, 0
7, 66390, Note_on_c, 2, 67, 90
7, 66420, Note_on_c, 2, 67, 0
7, 66420, Note_on_c, 2, 66, 90
7, 66480, Note_on_c, 2, 66, 0
7, 66480, Note_on_c, 2, 64, 90
7, 66540, Note_on_c, 2, 64, 0
7, 66540, Note_on_c, 2, 62, 90
7, 66690, Note_on_c, 2, 62, 0
7, 66690, Note_on_c, 2, 64, 90
7, 66720, Note_on_c, 2, 64, 0
7, 66720, Note_on_c, 2, 62, 90
7, 66750, Note_on_c, 2, 62, 0
7, 66750, Note_on_c, 2, 64, 90
7, 66780, Note_on_c, 2, 64, 0
7, 66780, Note_on_c, 2, 66, 90
7, 66930, Note_on_c, 2, 66, 0
7, 66930, Note_on_c, 2, 65, 90
7, 66960, Note_on_c, 2, 65, 0
7, 66960, Note_on_c, 2, 66, 90
7, 66990, Note_on_c, 2, 66, 0
7, 66990, Note_on_c, 2, 68, 90
7, 67020, Note_on_c, 2, 68, 0
7, 67020, Note_on_c, 2, 69, 90
7, 67080, Note_on_c, 2, 69, 0
7, 67080, Note_on_c, 2, 73, 90
7, 67140, Note_on_c, 2, 73, 0
7, 67260, Note_on_c, 2, 73, 90
7, 67320, Note_on_c, 2, 73, 0
7, 67320, Note_on_c, 2, 73, 90
7, 67380, Note_on_c, 2, 73, 0
7, 67380, Note_on_c, 2, 73, 90
7, 67440, Note_on_c, 2, 73, 0
7, 67440, Note_on_c, 2, 73, 90
7, 67500, Note_on_c, 2, 73, 0
7, 67500, Note_on_c, 2, 73, 90
7, 67560, Note_on_c, 2, 73, 0
7, 67560, Note_on_c, 2, 71, 90
7, 67590, Note_on_c, 2, 71, 0
7, 67590, Note_on_c, 2, 69, 90
7, 67620, Note_on_c, 2, 69, 0
7, 67620, Note_on_c, 2, 68, 90
7, 67680, Note_on_c, 2, 68, 0
7, 67680, Note_on_c, 2, 66, 90
7, 67740, Note_on_c, 2, 66, 0
7, 67740, Note_on_c, 2, 65, 90
7, 67890, Note_on_c, 2, 65, 0
7, 67890, Note_on_c, 2, 63, 90
7, 67920, Note_on_c, 2, 63, 0
7, 67920, Note_on_c, 2, 65, 90
7, 67950, Note_on_c, 2, 65, 0
7, 67950, Note_on_c, 2, 66, 90
7, 67980, Note_on_c, 2, 66, 0
7, 67980, Note_on_c, 2, 68, 90
7, 68010, Note_on_c, 2, 68, 0
7, 68010, Note_on_c, 2, 66, 90
7, 68040, Note_on_c, 2, 66, 0
7, 68040, Note_on_c, 2, 65, 90
7, 68070, Note_on_c, 2, 65, 0
7, 68070, Note_on_c, 2, 66, 90
7, 68100, Note_on_c, 2, 66, 0
7, 68100, Note_on_c, 2, 68, 90
7, 68130, Note_on_c, 2, 68, 0
7, 68130, Note_on_c, 2, 65, 90
7, 68160, Note_on_c, 2, 65, 0
7, 68160, Note_on_c, 2, 66, 90
7, 68190, Note_on_c, 2, 66, 0
7, 68190, Note_on_c, 2, 68, 90
7, 68220, Note_on_c, 2, 68, 0
7, 68220, Note_on_c, 2, 69, 90
7, 68280, Note_on_c, 2, 69, 0
7, 68280, Note_on_c, 2, 69, 90
7, 68340, Note_on_c, 2, 69, 0
7, 68340, Note_on_c, 2, 69, 90
7, 68400, Note_on_c, 2, 69, 0
7, 68400, Note_on_c, 2, 69, 90
7, 68460, Note_on_c, 2, 69, 0
7, 68460, Note_on_c, 2, 69, 90
7, 68520, Note_on_c, 2, 69, 0
7, 68520, Note_on_c, 2, 68, 90
7, 68550, Note_on_c, 2, 68, 0
7, 68550, Note_on_c, 2, 66, 90
7, 68580, Note_on_c, 2, 66, 0
7, 68580, Note_on_c, 2, 64, 90
7, 68760, Note_on_c, 2, 64, 0
7, 68760, Note_on_c, 2, 69, 90
7, 68820, Note_on_c, 2, 69, 0
7, 68820, Note_on_c, 2, 69, 90
7, 68880, Note_on_c, 2, 69, 0
7, 68880, Note_on_c, 2, 71, 90
7, 68910, Note_on_c, 2, 71, 0
7, 68910, Note_on_c, 2, 73, 90
7, 68940, Note_on_c, 2, 73, 0
7, 68940, Note_on_c, 2, 74, 90
7, 69000, Note_on_c, 2, 74, 0
7, 69180, Note_on_c, 2, 76, 90
7, 69240, Note_on_c, 2, 76, 0
7, 69240, Note_on_c, 2, 76, 90
7, 69300, Note_on_c, 2, 76, 0
7, 69300, Note_on_c, 2, 76, 90
7, 69360, Note_on_c, 2, 76, 0
7, 69360, Note_on_c, 2, 76, 90
7, 69420, Note_on_c, 2, 76, 0
7, 69420, Note_on_c, 2, 76, 90
7, 69480, Note_on_c, 2, 76, 0
7, 69480, Note_on_c, 2, 74, 90
7, 69510, Note_on_c, 2, 74, 0
7, 69510, Note_on_c, 2, 73, 90
7, 69540, Note_on_c, 2, 73, 0
7, 69540, Note_on_c, 2, 71, 90
7, 69600, Note_on_c, 2, 71, 0
7, 69600, Note_on_c, 2, 69, 90
7, 69660, Note_on_c, 2, 69, 0
7, 69660, Note_on_c, 2, 68, 90
7, 69720, Note_on_c, 2, 68, 0
7, 69720, Note_on_c, 2, 69, 90
7, 69750, Note_on_c, 2, 69, 0
7, 69750, Note_on_c, 2, 71, 90
7, 69780, Note_on_c, 2, 71, 0
7, 69780, Note_on_c, 2, 73, 90
7, 69960, Note_on_c, 2, 73, 0
7, 69960, Note_on_c, 2, 75, 90
7, 69990, Note_on_c, 2, 75, 0
7, 69990, Note_on_c, 2, 73, 90
7, 70020, Note_on_c, 2, 73, 0
7, 70020, Note_on_c, 2, 72, 90
7, 70080, Note_on_c, 2, 72, 0
7, 70080, Note_on_c, 2, 73, 90
7, 70110, Note_on_c, 2, 73, 0
7, 70110, Note_on_c, 2, 75, 90
7, 70140, Note_on_c, 2, 75, 0
7, 70140, Note_on_c, 2, 66, 90
7, 70260, Note_on_c, 2, 66, 0
7, 70320, Note_on_c, 2, 68, 90
7, 70350, Note_on_c, 2, 68, 0
7, 70350, Note_on_c, 2, 66, 90
7, 70380, Note_on_c, 2, 66, 0
7, 70380, Note_on_c, 2, 64, 90
7, 70440, Note_on_c, 2, 64, 0
7, 70440, Note_on_c, 2, 73, 90
7, 70500, Note_on_c, 2, 73, 0
7, 70500, Note_on_c, 2, 68, 90
7, 70620, Note_on_c, 2, 68, 0
7, 70620, Note_on_c, 2, 68, 90
7, 70740, Note_on_c, 2, 68, 0
7, 70860, Note_on_c, 2, 73, 90
7, 70980, Note_on_c, 2, 73, 0
7, 71100, Note_on_c, 2, 77, 90
7, 71220, Note_on_c, 2, 77, 0
7, 71340, Note_on_c, 2, 80, 90
7, 71460, Note_on_c, 2, 80, 0
7, 71580, Note_on_c, 2, 77, 90
7, 71700, Note_on_c, 2, 77, 0
7, 71820, Note_on_c, 2, 73, 90
7, 71940, Note_on_c, 2, 73, 0
7, 72060, Note_on_c, 2, 71, 90
7, 72300, Note_on_c, 2, 71, 0
7, 72930, Note_on_c, 2, 68, 90
7, 72960, Note_on_c, 2, 68, 0
7, 72960, Note_on_c, 2, 69, 90
7, 72990, Note_on_c, 2, 69, 0
7, 72990, Note_on_c, 2, 71, 90
7, 73020, Note_on_c, 2, 71, 0
7, 73020, Note_on_c, 2, 73, 90
7, 73050, Note_on_c, 2, 73, 0
7, 73050, Note_on_c, 2, 71, 90
7, 73080, Note_on_c, 2, 71, 0
7, 73080, Note_on_c, 2, 69, 90
7, 73110, Note_on_c, 2, 69, 0
7, 73110, Note_on_c, 2, 71, 90
7, 73140, Note_on_c, 2, 71, 0
7, 73140, Note_on_c, 2, 73, 90
7, 73170, Note_on_c, 2, 73, 0
7, 73170, Note_on_c, 2, 71, 90
7, 73200, Note_on_c, 2, 71, 0
7, 73200, Note_on_c, 2, 73, 90
7, 73230, Note_on_c, 2, 73, 0
7, 73230, Note_on_c, 2, 74, 90
7, 73260, Note_on_c, 2, 74, 0
7, 73260, Note_on_c, 2, 68, 90
7, 73320, Note_on_c, 2, 68, 0
7, 73320, Note_on_c, 2, 71, 90
7, 73350, Note_on_c, 2, 71, 0
7, 73350, Note_on_c, 2, 69, 90
7, 73380, Note_on_c, 2, 69, 0
7, 73380, Note_on_c, 2, 68, 90
7, 73440, Note_on_c, 2, 68, 0
7, 73440, Note_on_c, 2, 68, 90
7, 73500, Note_on_c, 2, 68, 0
7, 73500, Note_on_c, 2, 66, 90
7, 73590, Note_on_c, 2, 66, 0
7, 73590, Note_on_c, 2, 68, 90
7, 73620, Note_on_c, 2, 68, 0
7, 73620, Note_on_c, 2, 65, 90
7, 73740, Note_on_c, 2, 65, 0
7, 73740, Note_on_c, 2, 66, 90
7, 73980, Note_on_c, 2, 66, 0
7, 129600, Note_on_c, 2, 83, 100
7, 129640, Note_on_c, 2, 83, 0
7, 129660, Note_on_c, 2, 83, 100
7, 129700, Note_on_c, 2, 83, 0
7, 129840, Note_on_c, 2, 81, 100
7, 129880, Note_on_c, 2, 81, 0
7, 129900, Note_on_c, 2, 81, 100
7, 129940, Note_on_c, 2, 81, 0
7, 130290, Note_on_c, 2, 64, 100
7, 130310, Note_on_c, 2, 64, 0
7, 130320, Note_on_c, 2, 69, 100
7, 130340, Note_on_c, 2, 69, 0
7, 130350, Note_on_c, 2, 73, 100
7, 130370, Note_on_c, 2, 73, 0
7, 130380, Note_on_c, 2, 71, 100
7, 130420, Note_on_c, 2, 71, 0
7, 130440, Note_on_c, 2, 71, 100
7, 130480, Note_on_c, 2, 71, 0
7, 130740, Note_on_c, 2, 74, 100
7, 130978, Note_on_c, 2, 74, 0
7, 130980, Note_on_c, 2, 74, 100
7, 131098, Note_on_c, 2, 74, 0
7, 131100, Note_on_c, 2, 71, 100
7, 131338, Note_on_c, 2, 71, 0
7, 131340, Note_on_c, 2, 71, 100
7, 131578, Note_on_c, 2, 71, 0
7, 131580, Note_on_c, 2, 71, 100
7, 131818, Note_on_c, 2, 71, 0
7, 131820, Note_on_c, 2, 70, 100
7, 132058, Note_on_c, 2, 70, 0
7, 132180, Note_on_c, 2, 74, 100
7, 132418, Note_on_c, 2, 74, 0
7, 132420, Note_on_c, 2, 76, 100
7, 132538, Note_on_c, 2, 76, 0
7, 132540, Note_on_c, 2, 76, 100
7, 132778, Note_on_c, 2, 76, 0
7, 132780, Note_on_c, 2, 81, 100
7, 133018, Note_on_c, 2, 81, 0
7, 133020, Note_on_c, 2, 76, 100
7, 133498, Note_on_c, 2, 76, 0
7, 219660, Control_c, 2, 0, 0
7, 219660, Note_on_c, 2, 85, 100
7, 219780, Note_on_c, 2, 85, 0
7, 219840, Note_on_c, 2, 85, 100
7, 219880, Note_on_c, 2, 85, 0
7, 219900, Note_on_c, 2, 85, 100
7, 220060, Note_on_c, 2, 85, 0
7, 221580, Note_on_c, 2, 81, 100
7, 221700, Note_on_c, 2, 81, 0
7, 221760, Note_on_c, 2, 81, 100
7, 221818, Note_on_c, 2, 81, 0
7, 221820, Note_on_c, 2, 81, 100
7, 222058, Note_on_c, 2, 81, 0
7, 222060, Note_on_c, 2, 80, 100
7, 222298, Note_on_c, 2, 80, 0
7, 222300, Note_on_c, 2, 80, 100
7, 222538, Note_on_c, 2, 80, 0
7, 223980, Note_on_c, 2, 78, 90
7, 224099, Note_on_c, 2, 78, 0
7, 224160, Note_on_c, 2, 78, 90
7, 224219, Note_on_c, 2, 78, 0
7, 224220, Note_on_c, 2, 78, 90
7, 224459, Note_on_c, 2, 78, 0
7, 224460, Note_on_c, 2, 83, 90
7, 224579, Note_on_c, 2, 83, 0
7, 224640, Note_on_c, 2, 83, 90
7, 224699, Note_on_c, 2, 83, 0
7, 224700, Note_on_c, 2, 83, 90
7, 224939, Note_on_c, 2, 83, 0
7, 226380, Note_on_c, 2, 81, 100
7, 226500, Note_on_c, 2, 81, 0
7, 226500, Note_on_c, 2, 81, 100
7, 226560, Note_on_c, 2, 81, 0
7, 226560, Note_on_c, 2, 81, 100
7, 226620, Note_on_c, 2, 81, 0
7, 226620, Note_on_c, 2, 81, 100
7, 226740, Note_on_c, 2, 81, 0
7, 226740, Note_on_c, 2, 81, 100
7, 226860, Note_on_c, 2, 81, 0
7, 226860, Note_on_c, 2, 79, 100
7, 227040, Note_on_c, 2, 79, 0
7, 227040, Note_on_c, 2, 74, 100
7, 227100, Note_on_c, 2, 74, 0
7, 227100, Note_on_c, 2, 83, 100
7, 227160, Note_on_c, 2, 83, 0
7, 227160, Note_on_c, 2, 79, 100
7, 227220, Note_on_c, 2, 79, 0
7, 227220, Note_on_c, 2, 76, 100
7, 227280, Note_on_c, 2, 76, 0
7, 227280, Note_on_c, 2, 71, 100
7, 227340, Note_on_c, 2, 71, 0
7, 227340, Note_on_c, 2, 73, 100
7, 227580, Note_on_c, 2, 73, 0
7, 227580, Note_on_c, 2, 81, 100
7, 227820, Note_on_c, 2, 81, 0
7, 227820, Note_on_c, 2, 78, 100
7, 227880, Note_on_c, 2, 78, 0
7, 227880, Note_on_c, 2, 76, 100
7, 227940, Note_on_c, 2, 76, 0
7, 227940, Note_on_c, 2, 74, 100
7, 228120, Note_on_c, 2, 74, 0
7, 228120, Note_on_c, 2, 73, 100
7, 228180, Note_on_c, 2, 73, 0
7, 228180, Note_on_c, 2, 71, 100
7, 228300, Note_on_c, 2, 71, 0
7, 228300, Note_on_c, 2, 76, 100
7, 228780, Note_on_c, 2, 76, 0
7, 230220, Note_on_c, 2, 78, 90
7, 230309, Note_on_c, 2, 78, 0
7, 230310, Note_on_c, 2, 79, 90
7, 230339, Note_on_c, 2, 79, 0
7, 230340, Note_on_c, 2, 78, 90
7, 230369, Note_on_c, 2, 78, 0
7, 230370, Note_on_c, 2, 76, 90
7, 230399, Note_on_c, 2, 76, 0
7, 230400, Note_on_c, 2, 74, 90
7, 230429, Note_on_c, 2, 74, 0
7, 230430, Note_on_c, 2, 76, 90
7, 230459, Note_on_c, 2, 76, 0
7, 230460, Note_on_c, 2, 78, 90
7, 230489, Note_on_c, 2, 78, 0
7, 230490, Note_on_c, 2, 79, 90
7, 230519, Note_on_c, 2, 79, 0
7, 230520, Note_on_c, 2, 78, 90
7, 230549, Note_on_c, 2, 78, 0
7, 230550, Note_on_c, 2, 79, 90
7, 230579, Note_on_c, 2, 79, 0
7, 230580, Note_on_c, 2, 78, 90
7, 230669, Note_on_c, 2, 78, 0
7, 230670, Note_on_c, 2, 79, 90
7, 230699, Note_on_c, 2, 79, 0
7, 230700, Note_on_c, 2, 78, 90
7, 230729, Note_on_c, 2, 78, 0
7, 230730, Note_on_c, 2, 76, 90
7, 230759, Note_on_c, 2, 76, 0
7, 230760, Note_on_c, 2, 74, 90
7, 230789, Note_on_c, 2, 74, 0
7, 230790, Note_on_c, 2, 76, 90
7, 230819, Note_on_c, 2, 76, 0
7, 230820, Note_on_c, 2, 78, 90
7, 230849, Note_on_c, 2, 78, 0
7, 230850, Note_on_c, 2, 79, 90
7, 230879, Note_on_c, 2, 79, 0
7, 230880, Note_on_c, 2, 78, 90
7, 230909, Note_on_c, 2, 78, 0
7, 230910, Note_on_c, 2, 79, 90
7, 230939, Note_on_c, 2, 79, 0
7, 230940, Note_on_c, 2, 78, 90
7, 230999, Note_on_c, 2, 78, 0
7, 232440, Note_on_c, 2, 71, 90
7, 232470, Note_on_c, 2, 71, 0
7, 232470, Note_on_c, 2, 72, 90
7, 232500, Note_on_c, 2, 72, 0
7, 232500, Note_on_c, 2, 74, 90
7, 232560, Note_on_c, 2, 74, 0
7, 232560, Note_on_c, 2, 83, 90
7, 232620, Note_on_c, 2, 83, 0
7, 232620, Note_on_c, 2, 81, 90
7, 232680, Note_on_c, 2, 81, 0
7, 232680, Note_on_c, 2, 78, 90
7, 232740, Note_on_c, 2, 78, 0
7, 232740, Note_on_c, 2, 71, 90
7, 232800, Note_on_c, 2, 71, 0
7, 233880, Note_on_c, 2, 69, 90
7, 233909, Note_on_c, 2, 69, 0
7, 233910, Note_on_c, 2, 71, 90
7, 233939, Note_on_c, 2, 71, 0
7, 233940, Note_on_c, 2, 73, 90
7, 233969, Note_on_c, 2, 73, 0
7, 233970, Note_on_c, 2, 74, 90
7, 233999, Note_on_c, 2, 74, 0
7, 234000, Note_on_c, 2, 76, 90
7, 234029, Note_on_c, 2, 76, 0
7, 234060, Note_on_c, 2, 76, 90
7, 234089, Note_on_c, 2, 76, 0
7, 234090, Note_on_c, 2, 74, 90
7, 234119, Note_on_c, 2, 74, 0
7, 234120, Note_on_c, 2, 73, 90
7, 234149, Note_on_c, 2, 73, 0
7, 234150, Note_on_c, 2, 71, 90
7, 234179, Note_on_c, 2, 71, 0
7, 234180, Note_on_c, 2, 69, 90
7, 234209, Note_on_c, 2, 69, 0
7, 234210, Note_on_c, 2, 71, 90
7, 234239, Note_on_c, 2, 71, 0
7, 234240, Note_on_c, 2, 73, 90
7, 234329, Note_on_c, 2, 73, 0
7, 234330, Note_on_c, 2, 71, 90
7, 234359, Note_on_c, 2, 71, 0
7, 234360, Note_on_c, 2, 69, 90
7, 234389, Note_on_c, 2, 69, 0
7, 234390, Note_on_c, 2, 67, 90
7, 234419, Note_on_c, 2, 67, 0
7, 234420, Note_on_c, 2, 66, 90
7, 234449, Note_on_c, 2, 66, 0
7, 234450, Note_on_c, 2, 64, 90
7, 234479, Note_on_c, 2, 64, 0
7, 234480, Note_on_c, 2, 67, 90
7, 234509, Note_on_c, 2, 67, 0
7, 234510, Note_on_c, 2, 66, 90
7, 234539, Note_on_c, 2, 66, 0
7, 234900, Note_on_c, 2, 81, 90
7, 234989, Note_on_c, 2, 81, 0
7, 234990, Note_on_c, 2, 79, 90
7, 235019, Note_on_c, 2, 79, 0
7, 235020, Note_on_c, 2, 78, 90
7, 235049, Note_on_c, 2, 78, 0
7, 235050, Note_on_c, 2, 76, 90
7, 235079, Note_on_c, 2, 76, 0
7, 235080, Note_on_c, 2, 74, 90
7, 235109, Note_on_c, 2, 74, 0
7, 235110, Note_on_c, 2, 76, 90
7, 235139, Note_on_c, 2, 76, 0
7, 235140, Note_on_c, 2, 78, 90
7, 235169, Note_on_c, 2, 78, 0
7, 235170, Note_on_c, 2, 79, 90
7, 235199, Note_on_c, 2, 79, 0
7, 235200, Note_on_c, 2, 78, 90
7, 235229, Note_on_c, 2, 78, 0
7, 235230, Note_on_c, 2, 79, 90
7, 235259, Note_on_c, 2, 79, 0
7, 235260, Note_on_c, 2, 78, 90
7, 235289, Note_on_c, 2, 78, 0
7, 235289, End_track
8, 0, Start_track
8, 0, MIDI_port, 0
8, 0, Title_t, "oboe I"
8, 0, Program_c, 3, 68
8, 0, Control_c, 3, 7, 127
8, 0, Control_c, 3, 10, 127
8, 0, Note_on_c, 3, 69, 100
8, 20, Note_on_c, 3, 69, 0
8, 30, Note_on_c, 3, 74, 100
8, 50, Note_on_c, 3, 74, 0
8, 60, Note_on_c, 3, 73, 100
8, 80, Note_on_c, 3, 73, 0
8, 90, Note_on_c, 3, 71, 100
8, 110, Note_on_c, 3, 71, 0
8, 120, Note_on_c, 3, 69, 100
8, 140, Note_on_c, 3, 69, 0
8, 150, Note_on_c, 3, 67, 100
8, 170, Note_on_c, 3, 67, 0
8, 180, Note_on_c, 3, 66, 100
8, 200, Note_on_c, 3, 66, 0
8, 210, Note_on_c, 3, 67, 100
8, 230, Note_on_c, 3, 67, 0
8, 240, Note_on_c, 3, 69, 100
8, 260, Note_on_c, 3, 69, 0
8, 270, Note_on_c, 3, 71, 100
8, 290, Note_on_c, 3, 71, 0
8, 300, Note_on_c, 3, 69, 100
8, 320, Note_on_c, 3, 69, 0
8, 330, Note_on_c, 3, 71, 100
8, 350, Note_on_c, 3, 71, 0
8, 360, Note_on_c, 3, 69, 100
8, 380, Note_on_c, 3, 69, 0
8, 390, Note_on_c, 3, 74, 100
8, 410, Note_on_c, 3, 74, 0
8, 420, Note_on_c, 3, 73, 100
8, 440, Note_on_c, 3, 73, 0
8, 450, Note_on_c, 3, 71, 100
8, 470, Note_on_c, 3, 71, 0
8, 480, Note_on_c, 3, 69, 100
8, 500, Note_on_c, 3, 69, 0
8, 510, Note_on_c, 3, 67, 100
8, 530, Note_on_c, 3, 67, 0
8, 540, Note_on_c, 3, 66, 100
8, 560, Note_on_c, 3, 66, 0
8, 570, Note_on_c, 3, 67, 100
8, 590, Note_on_c, 3, 67, 0
8, 600, Note_on_c, 3, 69, 100
8, 620, Note_on_c, 3, 69, 0
8, 630, Note_on_c, 3, 71, 100
8, 650, Note_on_c, 3, 71, 0
8, 660, Note_on_c, 3, 69, 100
8, 680, Note_on_c, 3, 69, 0
8, 690, Note_on_c, 3, 71, 100
8, 710, Note_on_c, 3, 71, 0
8, 720, Note_on_c, 3, 69, 100
8, 740, Note_on_c, 3, 69, 0
8, 750, Note_on_c, 3, 74, 100
8, 770, Note_on_c, 3, 74, 0
8, 780, Note_on_c, 3, 73, 100
8, 800, Note_on_c, 3, 73, 0
8, 810, Note_on_c, 3, 71, 100
8, 830, Note_on_c, 3, 71, 0
8, 840, Note_on_c, 3, 69, 100
8, 860, Note_on_c, 3, 69, 0
8, 870, Note_on_c, 3, 78, 100
8, 890, Note_on_c, 3, 78, 0
8, 900, Note_on_c, 3, 76, 100
8, 920, Note_on_c, 3, 76, 0
8, 930, Note_on_c, 3, 74, 100
8, 950, Note_on_c, 3, 74, 0
8, 960, Note_on_c, 3, 73, 100
8, 980, Note_on_c, 3, 73, 0
8, 990, Note_on_c, 3, 83, 100
8, 1010, Note_on_c, 3, 83, 0
8, 1020, Note_on_c, 3, 81, 100
8, 1040, Note_on_c, 3, 81, 0
8, 1050, Note_on_c, 3, 79, 100
8, 1070, Note_on_c, 3, 79, 0
8, 1080, Note_on_c, 3, 78, 100
8, 1100, Note_on_c, 3, 78, 0
8, 1110, Note_on_c, 3, 79, 100
8, 1130, Note_on_c, 3, 79, 0
8, 1140, Note_on_c, 3, 78, 100
8, 1160, Note_on_c, 3, 78, 0
8, 1170, Note_on_c, 3, 76, 100
8, 1190, Note_on_c, 3, 76, 0
8, 1200, Note_on_c, 3, 74, 100
8, 1240, Note_on_c, 3, 74, 0
8, 1260, Note_on_c, 3, 81, 100
8, 1300, Note_on_c, 3, 81, 0
8, 1320, Note_on_c, 3, 69, 100
8, 1360, Note_on_c, 3, 69, 0
8, 1380, Note_on_c, 3, 73, 100
8, 1420, Note_on_c, 3, 73, 0
8, 1440, Note_on_c, 3, 74, 100
8, 1480, Note_on_c, 3, 74, 0
8, 1500, Note_on_c, 3, 69, 100
8, 1540, Note_on_c, 3, 69, 0
8, 1620, Note_on_c, 3, 78, 100
8, 1640, Note_on_c, 3, 78, 0
8, 1650, Note_on_c, 3, 79, 100
8, 1670, Note_on_c, 3, 79, 0
8, 1680, Note_on_c, 3, 78, 100
8, 1700, Note_on_c, 3, 78, 0
8, 1710, Note_on_c, 3, 76, 100
8, 1730, Note_on_c, 3, 76, 0
8, 1740, Note_on_c, 3, 74, 100
8, 1760, Note_on_c, 3, 74, 0
8, 1770, Note_on_c, 3, 73, 100
8, 1790, Note_on_c, 3, 73, 0
8, 1800, Note_on_c, 3, 71, 100
8, 1840, Note_on_c, 3, 71, 0
8, 1860, Note_on_c, 3, 68, 100
8, 1900, Note_on_c, 3, 68, 0
8, 1980, Note_on_c, 3, 76, 100
8, 2000, Note_on_c, 3, 76, 0
8, 2010, Note_on_c, 3, 78, 100
8, 2030, Note_on_c, 3, 78, 0
8, 2040, Note_on_c, 3, 76, 100
8, 2060, Note_on_c, 3, 76, 0
8, 2070, Note_on_c, 3, 74, 100
8, 2090, Note_on_c, 3, 74, 0
8, 2100, Note_on_c, 3, 73, 100
8, 2120, Note_on_c, 3, 73, 0
8, 2130, Note_on_c, 3, 71, 100
8, 2150, Note_on_c, 3, 71, 0
8, 2160, Note_on_c, 3, 69, 100
8, 2200, Note_on_c, 3, 69, 0
8, 2220, Note_on_c, 3, 81, 100
8, 2240, Note_on_c, 3, 81, 0
8, 2250, Note_on_c, 3, 83, 100
8, 2270, Note_on_c, 3, 83, 0
8, 2280, Note_on_c, 3, 81, 100
8, 2300, Note_on_c, 3, 81, 0
8, 2310, Note_on_c, 3, 79, 100
8, 2330, Note_on_c, 3, 79, 0
8, 2340, Note_on_c, 3, 78, 100
8, 2360, Note_on_c, 3, 78, 0
8, 2370, Note_on_c, 3, 76, 100
8, 2390, Note_on_c, 3, 76, 0
8, 2400, Note_on_c, 3, 74, 100
8, 2420, Note_on_c, 3, 74, 0
8, 2430, Note_on_c, 3, 73, 100
8, 2450, Note_on_c, 3, 73, 0
8, 2460, Note_on_c, 3, 71, 100
8, 2480, Note_on_c, 3, 71, 0
8, 2490, Note_on_c, 3, 73, 100
8, 2510, Note_on_c, 3, 73, 0
8, 2520, Note_on_c, 3, 74, 100
8, 2540, Note_on_c, 3, 74, 0
8, 2550, Note_on_c, 3, 73, 100
8, 2570, Note_on_c, 3, 73, 0
8, 2580, Note_on_c, 3, 74, 100
8, 2600, Note_on_c, 3, 74, 0
8, 2610, Note_on_c, 3, 76, 100
8, 2630, Note_on_c, 3, 76, 0
8, 2640, Note_on_c, 3, 74, 100
8, 2660, Note_on_c, 3, 74, 0
8, 2670, Note_on_c, 3, 73, 100
8, 2690, Note_on_c, 3, 73, 0
8, 2700, Note_on_c, 3, 71, 100
8, 2720, Note_on_c, 3, 71, 0
8, 2730, Note_on_c, 3, 69, 100
8, 2750, Note_on_c, 3, 69, 0
8, 2760, Note_on_c, 3, 68, 100
8, 2780, Note_on_c, 3, 68, 0
8, 2790, Note_on_c, 3, 66, 100
8, 2810, Note_on_c, 3, 66, 0
8, 2820, Note_on_c, 3, 64, 100
8, 2840, Note_on_c, 3, 64, 0
8, 2850, Note_on_c, 3, 66, 100
8, 2870, Note_on_c, 3, 66, 0
8, 2880, Note_on_c, 3, 68, 100
8, 2920, Note_on_c, 3, 68, 0
8, 2940, Note_on_c, 3, 71, 100
8, 2980, Note_on_c, 3, 71, 0
8, 3000, Note_on_c, 3, 71, 100
8, 3040, Note_on_c, 3, 71, 0
8, 3060, Note_on_c, 3, 74, 100
8, 3100, Note_on_c, 3, 74, 0
8, 3120, Note_on_c, 3, 74, 100
8, 3160, Note_on_c, 3, 74, 0
8, 3180, Note_on_c, 3, 73, 100
8, 3200, Note_on_c, 3, 73, 0
8, 3210, Note_on_c, 3, 71, 100
8, 3230, Note_on_c, 3, 71, 0
8, 3240, Note_on_c, 3, 69, 100
8, 3280, Note_on_c, 3, 69, 0
8, 3300, Note_on_c, 3, 73, 100
8, 3340, Note_on_c, 3, 73, 0
8, 3360, Note_on_c, 3, 76, 100
8, 3400, Note_on_c, 3, 76, 0
8, 3420, Note_on_c, 3, 79, 100
8, 3460, Note_on_c, 3, 79, 0
8, 3480, Note_on_c, 3, 79, 100
8, 3520, Note_on_c, 3, 79, 0
8, 3540, Note_on_c, 3, 78, 100
8, 3560, Note_on_c, 3, 78, 0
8, 3570, Note_on_c, 3, 76, 100
8, 3590, Note_on_c, 3, 76, 0
8, 3600, Note_on_c, 3, 74, 100
8, 3640, Note_on_c, 3, 74, 0
8, 3660, Note_on_c, 3, 66, 100
8, 3700, Note_on_c, 3, 66, 0
8, 3720, Note_on_c, 3, 71, 100
8, 3760, Note_on_c, 3, 71, 0
8, 3780, Note_on_c, 3, 74, 100
8, 3820, Note_on_c, 3, 74, 0
8, 3840, Note_on_c, 3, 74, 100
8, 3880, Note_on_c, 3, 74, 0
8, 3900, Note_on_c, 3, 73, 100
8, 3920, Note_on_c, 3, 73, 0
8, 3930, Note_on_c, 3, 71, 100
8, 3950, Note_on_c, 3, 71, 0
8, 3960, Note_on_c, 3, 80, 100
8, 4000, Note_on_c, 3, 80, 0
8, 4020, Note_on_c, 3, 81, 100
8, 4060, Note_on_c, 3, 81, 0
8, 4080, Note_on_c, 3, 76, 100
8, 4120, Note_on_c, 3, 76, 0
8, 4140, Note_on_c, 3, 81, 100
8, 4180, Note_on_c, 3, 81, 0
8, 4200, Note_on_c, 3, 71, 100
8, 4240, Note_on_c, 3, 71, 0
8, 4260, Note_on_c, 3, 80, 100
8, 4300, Note_on_c, 3, 80, 0
8, 4320, Note_on_c, 3, 81, 100
8, 5080, Note_on_c, 3, 81, 0
8, 5100, Note_on_c, 3, 80, 100
8, 5120, Note_on_c, 3, 80, 0
8, 5130, Note_on_c, 3, 78, 100
8, 5150, Note_on_c, 3, 78, 0
8, 5160, Note_on_c, 3, 76, 100
8, 5180, Note_on_c, 3, 76, 0
8, 5190, Note_on_c, 3, 85, 100
8, 5210, Note_on_c, 3, 85, 0
8, 5220, Note_on_c, 3, 83, 100
8, 5240, Note_on_c, 3, 83, 0
8, 5250, Note_on_c, 3, 81, 100
8, 5270, Note_on_c, 3, 81, 0
8, 5280, Note_on_c, 3, 79, 100
8, 5300, Note_on_c, 3, 79, 0
8, 5310, Note_on_c, 3, 78, 100
8, 5330, Note_on_c, 3, 78, 0
8, 5340, Note_on_c, 3, 76, 100
8, 5360, Note_on_c, 3, 76, 0
8, 5370, Note_on_c, 3, 74, 100
8, 5390, Note_on_c, 3, 74, 0
8, 5400, Note_on_c, 3, 73, 100
8, 5420, Note_on_c, 3, 73, 0
8, 5430, Note_on_c, 3, 74, 100
8, 5450, Note_on_c, 3, 74, 0
8, 5460, Note_on_c, 3, 73, 100
8, 5480, Note_on_c, 3, 73, 0
8, 5490, Note_on_c, 3, 71, 100
8, 5510, Note_on_c, 3, 71, 0
8, 5520, Note_on_c, 3, 69, 100
8, 5540, Note_on_c, 3, 69, 0
8, 5550, Note_on_c, 3, 85, 100
8, 5570, Note_on_c, 3, 85, 0
8, 5580, Note_on_c, 3, 83, 100
8, 5600, Note_on_c, 3, 83, 0
8, 5610, Note_on_c, 3, 81, 100
8, 5630, Note_on_c, 3, 81, 0
8, 5640, Note_on_c, 3, 79, 100
8, 5660, Note_on_c, 3, 79, 0
8, 5670, Note_on_c, 3, 78, 100
8, 5690, Note_on_c, 3, 78, 0
8, 5700, Note_on_c, 3, 76, 100
8, 5720, Note_on_c, 3, 76, 0
8, 5730, Note_on_c, 3, 74, 100
8, 5750, Note_on_c, 3, 74, 0
8, 5760, Note_on_c, 3, 73, 100
8, 6117, Note_on_c, 3, 73, 0
8, 6120, Note_on_c, 3, 72, 100
8, 6477, Note_on_c, 3, 72, 0
8, 6480, Note_on_c, 3, 71, 100
8, 6520, Note_on_c, 3, 71, 0
8, 6540, Note_on_c, 3, 71, 100
8, 6580, Note_on_c, 3, 71, 0
8, 6600, Note_on_c, 3, 76, 100
8, 6640, Note_on_c, 3, 76, 0
8, 6660, Note_on_c, 3, 79, 100
8, 6700, Note_on_c, 3, 79, 0
8, 6720, Note_on_c, 3, 79, 100
8, 6760, Note_on_c, 3, 79, 0
8, 6780, Note_on_c, 3, 76, 100
8, 6820, Note_on_c, 3, 76, 0
8, 6840, Note_on_c, 3, 73, 100
8, 6860, Note_on_c, 3, 73, 0
8, 6870, Note_on_c, 3, 81, 100
8, 6890, Note_on_c, 3, 81, 0
8, 6900, Note_on_c, 3, 79, 100
8, 6920, Note_on_c, 3, 79, 0
8, 6930, Note_on_c, 3, 78, 100
8, 6950, Note_on_c, 3, 78, 0
8, 6960, Note_on_c, 3, 76, 100
8, 6980, Note_on_c, 3, 76, 0
8, 6990, Note_on_c, 3, 74, 100
8, 7010, Note_on_c, 3, 74, 0
8, 7020, Note_on_c, 3, 73, 100
8, 7040, Note_on_c, 3, 73, 0
8, 7050, Note_on_c, 3, 74, 100
8, 7070, Note_on_c, 3, 74, 0
8, 7080, Note_on_c, 3, 76, 100
8, 7100, Note_on_c, 3, 76, 0
8, 7110, Note_on_c, 3, 78, 100
8, 7130, Note_on_c, 3, 78, 0
8, 7140, Note_on_c, 3, 76, 100
8, 7160, Note_on_c, 3, 76, 0
8, 7170, Note_on_c, 3, 78, 100
8, 7190, Note_on_c, 3, 78, 0
8, 7200, Note_on_c, 3, 74, 100
8, 7260, Note_on_c, 3, 74, 0
8, 7290, Note_on_c, 3, 76, 100
8, 7310, Note_on_c, 3, 76, 0
8, 7320, Note_on_c, 3, 74, 100
8, 7340, Note_on_c, 3, 74, 0
8, 7350, Note_on_c, 3, 73, 100
8, 7370, Note_on_c, 3, 73, 0
8, 7380, Note_on_c, 3, 71, 100
8, 7400, Note_on_c, 3, 71, 0
8, 7410, Note_on_c, 3, 71, 100
8, 7430, Note_on_c, 3, 71, 0
8, 7440, Note_on_c, 3, 74, 100
8, 7460, Note_on_c, 3, 74, 0
8, 7470, Note_on_c, 3, 76, 100
8, 7490, Note_on_c, 3, 76, 0
8, 7500, Note_on_c, 3, 73, 100
8, 7520, Note_on_c, 3, 73, 0
8, 7530, Note_on_c, 3, 74, 100
8, 7550, Note_on_c, 3, 74, 0
8, 7560, Note_on_c, 3, 73, 100
8, 7580, Note_on_c, 3, 73, 0
8, 7590, Note_on_c, 3, 81, 100
8, 7610, Note_on_c, 3, 81, 0
8, 7620, Note_on_c, 3, 79, 100
8, 7640, Note_on_c, 3, 79, 0
8, 7650, Note_on_c, 3, 78, 100
8, 7670, Note_on_c, 3, 78, 0
8, 7680, Note_on_c, 3, 76, 100
8, 7700, Note_on_c, 3, 76, 0
8, 7710, Note_on_c, 3, 74, 100
8, 7730, Note_on_c, 3, 74, 0
8, 7740, Note_on_c, 3, 73, 100
8, 7760, Note_on_c, 3, 73, 0
8, 7770, Note_on_c, 3, 74, 100
8, 7790, Note_on_c, 3, 74, 0
8, 7800, Note_on_c, 3, 76, 100
8, 7820, Note_on_c, 3, 76, 0
8, 7830, Note_on_c, 3, 78, 100
8, 7850, Note_on_c, 3, 78, 0
8, 7860, Note_on_c, 3, 74, 100
8, 7880, Note_on_c, 3, 74, 0
8, 7890, Note_on_c, 3, 76, 100
8, 7910, Note_on_c, 3, 76, 0
8, 7920, Note_on_c, 3, 78, 100
8, 8680, Note_on_c, 3, 78, 0
8, 8700, Note_on_c, 3, 66, 100
8, 8740, Note_on_c, 3, 66, 0
8, 8760, Note_on_c, 3, 69, 100
8, 8800, Note_on_c, 3, 69, 0
8, 8820, Note_on_c, 3, 74, 100
8, 8860, Note_on_c, 3, 74, 0
8, 8880, Note_on_c, 3, 74, 100
8, 8920, Note_on_c, 3, 74, 0
8, 8940, Note_on_c, 3, 69, 100
8, 8980, Note_on_c, 3, 69, 0
8, 9000, Note_on_c, 3, 66, 100
8, 9040, Note_on_c, 3, 66, 0
8, 9060, Note_on_c, 3, 69, 100
8, 9100, Note_on_c, 3, 69, 0
8, 9120, Note_on_c, 3, 74, 100
8, 9160, Note_on_c, 3, 74, 0
8, 9180, Note_on_c, 3, 78, 100
8, 9220, Note_on_c, 3, 78, 0
8, 9240, Note_on_c, 3, 78, 100
8, 9280, Note_on_c, 3, 78, 0
8, 9300, Note_on_c, 3, 74, 100
8, 9340, Note_on_c, 3, 74, 0
8, 9360, Note_on_c, 3, 66, 100
8, 9400, Note_on_c, 3, 66, 0
8, 9420, Note_on_c, 3, 74, 100
8, 9460, Note_on_c, 3, 74, 0
8, 9480, Note_on_c, 3, 78, 100
8, 9520, Note_on_c, 3, 78, 0
8, 9540, Note_on_c, 3, 81, 100
8, 9580, Note_on_c, 3, 81, 0
8, 9600, Note_on_c, 3, 81, 100
8, 9620, Note_on_c, 3, 81, 0
8, 9630, Note_on_c, 3, 79, 100
8, 9650, Note_on_c, 3, 79, 0
8, 9660, Note_on_c, 3, 78, 100
8, 9680, Note_on_c, 3, 78, 0
8, 9690, Note_on_c, 3, 76, 100
8, 9710, Note_on_c, 3, 76, 0
8, 9720, Note_on_c, 3, 78, 100
8, 9760, Note_on_c, 3, 78, 0
8, 9780, Note_on_c, 3, 74, 100
8, 9820, Note_on_c, 3, 74, 0
8, 10140, Note_on_c, 3, 74, 100
8, 10160, Note_on_c, 3, 74, 0
8, 10170, Note_on_c, 3, 76, 100
8, 10190, Note_on_c, 3, 76, 0
8, 10200, Note_on_c, 3, 78, 100
8, 10220, Note_on_c, 3, 78, 0
8, 10230, Note_on_c, 3, 79, 100
8, 10250, Note_on_c, 3, 79, 0
8, 10260, Note_on_c, 3, 81, 100
8, 10300, Note_on_c, 3, 81, 0
8, 10320, Note_on_c, 3, 81, 100
8, 10340, Note_on_c, 3, 81, 0
8, 10350, Note_on_c, 3, 79, 100
8, 10370, Note_on_c, 3, 79, 0
8, 10380, Note_on_c, 3, 78, 100
8, 10400, Note_on_c, 3, 78, 0
8, 10410, Note_on_c, 3, 76, 100
8, 10430, Note_on_c, 3, 76, 0
8, 10440, Note_on_c, 3, 78, 100
8, 10460, Note_on_c, 3, 78, 0
8, 10470, Note_on_c, 3, 76, 100
8, 10490, Note_on_c, 3, 76, 0
8, 10500, Note_on_c, 3, 78, 100
8, 10520, Note_on_c, 3, 78, 0
8, 10530, Note_on_c, 3, 79, 100
8, 10550, Note_on_c, 3, 79, 0
8, 10560, Note_on_c, 3, 81, 100
8, 10600, Note_on_c, 3, 81, 0
8, 10620, Note_on_c, 3, 83, 100
8, 10640, Note_on_c, 3, 83, 0
8, 10650, Note_on_c, 3, 81, 100
8, 10670, Note_on_c, 3, 81, 0
8, 10680, Note_on_c, 3, 79, 100
8, 10700, Note_on_c, 3, 79, 0
8, 10710, Note_on_c, 3, 78, 100
8, 10730, Note_on_c, 3, 78, 0
8, 10740, Note_on_c, 3, 76, 100
8, 10760, Note_on_c, 3, 76, 0
8, 10770, Note_on_c, 3, 74, 100
8, 10790, Note_on_c, 3, 74, 0
8, 10800, Note_on_c, 3, 74, 100
8, 10880, Note_on_c, 3, 74, 0
8, 11520, Note_on_c, 3, 69, 100
8, 11540, Note_on_c, 3, 69, 0
8, 11550, Note_on_c, 3, 74, 100
8, 11570, Note_on_c, 3, 74, 0
8, 11580, Note_on_c, 3, 73, 100
8, 11600, Note_on_c, 3, 73, 0
8, 11610, Note_on_c, 3, 71, 100
8, 11630, Note_on_c, 3, 71, 0
8, 11640, Note_on_c, 3, 69, 100
8, 11660, Note_on_c, 3, 69, 0
8, 11670, Note_on_c, 3, 67, 100
8, 11690, Note_on_c, 3, 67, 0
8, 11700, Note_on_c, 3, 66, 100
8, 11720, Note_on_c, 3, 66, 0
8, 11730, Note_on_c, 3, 67, 100
8, 11750, Note_on_c, 3, 67, 0
8, 11760, Note_on_c, 3, 69, 100
8, 11780, Note_on_c, 3, 69, 0
8, 11790, Note_on_c, 3, 71, 100
8, 11810, Note_on_c, 3, 71, 0
8, 11820, Note_on_c, 3, 69, 100
8, 11840, Note_on_c, 3, 69, 0
8, 11850, Note_on_c, 3, 71, 100
8, 11870, Note_on_c, 3, 71, 0
8, 11880, Note_on_c, 3, 69, 100
8, 11900, Note_on_c, 3, 69, 0
8, 11910, Note_on_c, 3, 74, 100
8, 11930, Note_on_c, 3, 74, 0
8, 11940, Note_on_c, 3, 73, 100
8, 11960, Note_on_c, 3, 73, 0
8, 11970, Note_on_c, 3, 71, 100
8, 11990, Note_on_c, 3, 71, 0
8, 12000, Note_on_c, 3, 69, 100
8, 12020, Note_on_c, 3, 69, 0
8, 12030, Note_on_c, 3, 67, 100
8, 12050, Note_on_c, 3, 67, 0
8, 12060, Note_on_c, 3, 66, 100
8, 12080, Note_on_c, 3, 66, 0
8, 12090, Note_on_c, 3, 67, 100
8, 12110, Note_on_c, 3, 67, 0
8, 12120, Note_on_c, 3, 69, 100
8, 12140, Note_on_c, 3, 69, 0
8, 12150, Note_on_c, 3, 71, 100
8, 12170, Note_on_c, 3, 71, 0
8, 12180, Note_on_c, 3, 69, 100
8, 12200, Note_on_c, 3, 69, 0
8, 12210, Note_on_c, 3, 71, 100
8, 12230, Note_on_c, 3, 71, 0
8, 12240, Note_on_c, 3, 69, 100
8, 12280, Note_on_c, 3, 69, 0
8, 13140, Note_on_c, 3, 78, 100
8, 13160, Note_on_c, 3, 78, 0
8, 13170, Note_on_c, 3, 79, 100
8, 13190, Note_on_c, 3, 79, 0
8, 13200, Note_on_c, 3, 78, 100
8, 13220, Note_on_c, 3, 78, 0
8, 13230, Note_on_c, 3, 76, 100
8, 13250, Note_on_c, 3, 76, 0
8, 13260, Note_on_c, 3, 74, 100
8, 13280, Note_on_c, 3, 74, 0
8, 13290, Note_on_c, 3, 73, 100
8, 13310, Note_on_c, 3, 73, 0
8, 13320, Note_on_c, 3, 71, 100
8, 13360, Note_on_c, 3, 71, 0
8, 13380, Note_on_c, 3, 68, 100
8, 13420, Note_on_c, 3, 68, 0
8, 13500, Note_on_c, 3, 76, 100
8, 13520, Note_on_c, 3, 76, 0
8, 13530, Note_on_c, 3, 78, 100
8, 13550, Note_on_c, 3, 78, 0
8, 13560, Note_on_c, 3, 76, 100
8, 13580, Note_on_c, 3, 76, 0
8, 13590, Note_on_c, 3, 74, 100
8, 13610, Note_on_c, 3, 74, 0
8, 13620, Note_on_c, 3, 73, 100
8, 13640, Note_on_c, 3, 73, 0
8, 13650, Note_on_c, 3, 71, 100
8, 13670, Note_on_c, 3, 71, 0
8, 13680, Note_on_c, 3, 69, 100
8, 13720, Note_on_c, 3, 69, 0
8, 13740, Note_on_c, 3, 81, 100
8, 13760, Note_on_c, 3, 81, 0
8, 13770, Note_on_c, 3, 83, 100
8, 13790, Note_on_c, 3, 83, 0
8, 13800, Note_on_c, 3, 81, 100
8, 13820, Note_on_c, 3, 81, 0
8, 13830, Note_on_c, 3, 79, 100
8, 13850, Note_on_c, 3, 79, 0
8, 13860, Note_on_c, 3, 78, 100
8, 13880, Note_on_c, 3, 78, 0
8, 13890, Note_on_c, 3, 76, 100
8, 13910, Note_on_c, 3, 76, 0
8, 13920, Note_on_c, 3, 74, 100
8, 13940, Note_on_c, 3, 74, 0
8, 13950, Note_on_c, 3, 73, 100
8, 13970, Note_on_c, 3, 73, 0
8, 13980, Note_on_c, 3, 71, 100
8, 14000, Note_on_c, 3, 71, 0
8, 14010, Note_on_c, 3, 73, 100
8, 14030, Note_on_c, 3, 73, 0
8, 14040, Note_on_c, 3, 74, 100
8, 14060, Note_on_c, 3, 74, 0
8, 14070, Note_on_c, 3, 73, 100
8, 14090, Note_on_c, 3, 73, 0
8, 14100, Note_on_c, 3, 74, 100
8, 14120, Note_on_c, 3, 74, 0
8, 14130, Note_on_c, 3, 76, 100
8, 14150, Note_on_c, 3, 76, 0
8, 14160, Note_on_c, 3, 74, 100
8, 14180, Note_on_c, 3, 74, 0
8, 14190, Note_on_c, 3, 73, 100
8, 14210, Note_on_c, 3, 73, 0
8, 14220, Note_on_c, 3, 71, 100
8, 14240, Note_on_c, 3, 71, 0
8, 14250, Note_on_c, 3, 69, 100
8, 14270, Note_on_c, 3, 69, 0
8, 14280, Note_on_c, 3, 68, 100
8, 14300, Note_on_c, 3, 68, 0
8, 14310, Note_on_c, 3, 66, 100
8, 14330, Note_on_c, 3, 66, 0
8, 14340, Note_on_c, 3, 64, 100
8, 14360, Note_on_c, 3, 64, 0
8, 14370, Note_on_c, 3, 66, 100
8, 14390, Note_on_c, 3, 66, 0
8, 14400, Note_on_c, 3, 68, 100
8, 14440, Note_on_c, 3, 68, 0
8, 14460, Note_on_c, 3, 71, 100
8, 14500, Note_on_c, 3, 71, 0
8, 14520, Note_on_c, 3, 71, 100
8, 14560, Note_on_c, 3, 71, 0
8, 14580, Note_on_c, 3, 74, 100
8, 14620, Note_on_c, 3, 74, 0
8, 14640, Note_on_c, 3, 74, 100
8, 14680, Note_on_c, 3, 74, 0
8, 14700, Note_on_c, 3, 73, 100
8, 14720, Note_on_c, 3, 73, 0
8, 14730, Note_on_c, 3, 71, 100
8, 14750, Note_on_c, 3, 71, 0
8, 14760, Note_on_c, 3, 69, 100
8, 14800, Note_on_c, 3, 69, 0
8, 14820, Note_on_c, 3, 73, 100
8, 14860, Note_on_c, 3, 73, 0
8, 14880, Note_on_c, 3, 76, 100
8, 14920, Note_on_c, 3, 76, 0
8, 14940, Note_on_c, 3, 79, 100
8, 14980, Note_on_c, 3, 79, 0
8, 15000, Note_on_c, 3, 79, 100
8, 15040, Note_on_c, 3, 79, 0
8, 15060, Note_on_c, 3, 78, 100
8, 15080, Note_on_c, 3, 78, 0
8, 15090, Note_on_c, 3, 76, 100
8, 15110, Note_on_c, 3, 76, 0
8, 15120, Note_on_c, 3, 74, 100
8, 15160, Note_on_c, 3, 74, 0
8, 15180, Note_on_c, 3, 66, 100
8, 15220, Note_on_c, 3, 66, 0
8, 15240, Note_on_c, 3, 71, 100
8, 15280, Note_on_c, 3, 71, 0
8, 15300, Note_on_c, 3, 74, 100
8, 15340, Note_on_c, 3, 74, 0
8, 15360, Note_on_c, 3, 74, 100
8, 15400, Note_on_c, 3, 74, 0
8, 15420, Note_on_c, 3, 73, 100
8, 15440, Note_on_c, 3, 73, 0
8, 15450, Note_on_c, 3, 71, 100
8, 15470, Note_on_c, 3, 71, 0
8, 15480, Note_on_c, 3, 80, 100
8, 15520, Note_on_c, 3, 80, 0
8, 15540, Note_on_c, 3, 81, 100
8, 15580, Note_on_c, 3, 81, 0
8, 15600, Note_on_c, 3, 76, 100
8, 15640, Note_on_c, 3, 76, 0
8, 15660, Note_on_c, 3, 81, 100
8, 15700, Note_on_c, 3, 81, 0
8, 15720, Note_on_c, 3, 71, 100
8, 15760, Note_on_c, 3, 71, 0
8, 15780, Note_on_c, 3, 80, 100
8, 15820, Note_on_c, 3, 80, 0
8, 15840, Note_on_c, 3, 81, 100
8, 15920, Note_on_c, 3, 81, 0
8, 16560, Note_on_c, 3, 81, 100
8, 17320, Note_on_c, 3, 81, 0
8, 18060, Note_on_c, 3, 73, 100
8, 18080, Note_on_c, 3, 73, 0
8, 18090, Note_on_c, 3, 74, 100
8, 18110, Note_on_c, 3, 74, 0
8, 18120, Note_on_c, 3, 76, 100
8, 18160, Note_on_c, 3, 76, 0
8, 18180, Note_on_c, 3, 81, 100
8, 18220, Note_on_c, 3, 81, 0
8, 18240, Note_on_c, 3, 81, 100
8, 18260, Note_on_c, 3, 81, 0
8, 18270, Note_on_c, 3, 79, 100
8, 18290, Note_on_c, 3, 79, 0
8, 18300, Note_on_c, 3, 78, 100
8, 18320, Note_on_c, 3, 78, 0
8, 18330, Note_on_c, 3, 76, 100
8, 18350, Note_on_c, 3, 76, 0
8, 18360, Note_on_c, 3, 78, 100
8, 18960, Note_on_c, 3, 78, 0
8, 19080, Note_on_c, 3, 80, 100
8, 19520, Note_on_c, 3, 80, 0
8, 19560, Note_on_c, 3, 78, 100
8, 19720, Note_on_c, 3, 78, 0
8, 19800, Note_on_c, 3, 76, 100
8, 20040, Note_on_c, 3, 76, 0
8, 20160, Note_on_c, 3, 74, 100
8, 20240, Note_on_c, 3, 74, 0
8, 20280, Note_on_c, 3, 69, 100
8, 20320, Note_on_c, 3, 69, 0
8, 20340, Note_on_c, 3, 66, 100
8, 20380, Note_on_c, 3, 66, 0
8, 20640, Note_on_c, 3, 74, 100
8, 20680, Note_on_c, 3, 74, 0
8, 20700, Note_on_c, 3, 69, 100
8, 20740, Note_on_c, 3, 69, 0
8, 20910, Note_on_c, 3, 74, 100
8, 20930, Note_on_c, 3, 74, 0
8, 20940, Note_on_c, 3, 73, 100
8, 20960, Note_on_c, 3, 73, 0
8, 20970, Note_on_c, 3, 71, 100
8, 20990, Note_on_c, 3, 71, 0
8, 21000, Note_on_c, 3, 69, 100
8, 21020, Note_on_c, 3, 69, 0
8, 21030, Note_on_c, 3, 78, 100
8, 21050, Note_on_c, 3, 78, 0
8, 21060, Note_on_c, 3, 76, 100
8, 21080, Note_on_c, 3, 76, 0
8, 21090, Note_on_c, 3, 74, 100
8, 21110, Note_on_c, 3, 74, 0
8, 21120, Note_on_c, 3, 73, 100
8, 21140, Note_on_c, 3, 73, 0
8, 21150, Note_on_c, 3, 83, 100
8, 21170, Note_on_c, 3, 83, 0
8, 21180, Note_on_c, 3, 81, 100
8, 21200, Note_on_c, 3, 81, 0
8, 21210, Note_on_c, 3, 79, 100
8, 21230, Note_on_c, 3, 79, 0
8, 21240, Note_on_c, 3, 78, 100
8, 21260, Note_on_c, 3, 78, 0
8, 21270, Note_on_c, 3, 79, 100
8, 21290, Note_on_c, 3, 79, 0
8, 21300, Note_on_c, 3, 78, 100
8, 21320, Note_on_c, 3, 78, 0
8, 21330, Note_on_c, 3, 76, 100
8, 21350, Note_on_c, 3, 76, 0
8, 21360, Note_on_c, 3, 74, 100
8, 21400, Note_on_c, 3, 74, 0
8, 21420, Note_on_c, 3, 81, 100
8, 21460, Note_on_c, 3, 81, 0
8, 21480, Note_on_c, 3, 69, 100
8, 21520, Note_on_c, 3, 69, 0
8, 21540, Note_on_c, 3, 73, 100
8, 21580, Note_on_c, 3, 73, 0
8, 21600, Note_on_c, 3, 74, 100
8, 21680, Note_on_c, 3, 74, 0
8, 22020, Note_on_c, 3, 71, 100
8, 22040, Note_on_c, 3, 71, 0
8, 22050, Note_on_c, 3, 73, 100
8, 22070, Note_on_c, 3, 73, 0
8, 22080, Note_on_c, 3, 74, 100
8, 22100, Note_on_c, 3, 74, 0
8, 22110, Note_on_c, 3, 76, 100
8, 22130, Note_on_c, 3, 76, 0
8, 22140, Note_on_c, 3, 78, 100
8, 22180, Note_on_c, 3, 78, 0
8, 22200, Note_on_c, 3, 78, 100
8, 22220, Note_on_c, 3, 78, 0
8, 22230, Note_on_c, 3, 76, 100
8, 22250, Note_on_c, 3, 76, 0
8, 22260, Note_on_c, 3, 74, 100
8, 22280, Note_on_c, 3, 74, 0
8, 22290, Note_on_c, 3, 73, 100
8, 22310, Note_on_c, 3, 73, 0
8, 22320, Note_on_c, 3, 74, 100
8, 22360, Note_on_c, 3, 74, 0
8, 22380, Note_on_c, 3, 71, 100
8, 22420, Note_on_c, 3, 71, 0
8, 23820, Note_on_c, 3, 71, 100
8, 23860, Note_on_c, 3, 71, 0
8, 23880, Note_on_c, 3, 79, 100
8, 24120, Note_on_c, 3, 79, 100
8, 24160, Note_on_c, 3, 79, 0
8, 24160, Note_on_c, 3, 79, 0
8, 24180, Note_on_c, 3, 73, 100
8, 24220, Note_on_c, 3, 73, 0
8, 24240, Note_on_c, 3, 78, 100
8, 24480, Note_on_c, 3, 78, 100
8, 24520, Note_on_c, 3, 78, 0
8, 24520, Note_on_c, 3, 78, 0
8, 24540, Note_on_c, 3, 67, 100
8, 24580, Note_on_c, 3, 67, 0
8, 24600, Note_on_c, 3, 71, 100
8, 24640, Note_on_c, 3, 71, 0
8, 24660, Note_on_c, 3, 74, 100
8, 24700, Note_on_c, 3, 74, 0
8, 24720, Note_on_c, 3, 74, 100
8, 24760, Note_on_c, 3, 74, 0
8, 24780, Note_on_c, 3, 71, 100
8, 24820, Note_on_c, 3, 71, 0
8, 24840, Note_on_c, 3, 67, 100
8, 24880, Note_on_c, 3, 67, 0
8, 24900, Note_on_c, 3, 71, 100
8, 24940, Note_on_c, 3, 71, 0
8, 24960, Note_on_c, 3, 76, 100
8, 25000, Note_on_c, 3, 76, 0
8, 25020, Note_on_c, 3, 79, 100
8, 25060, Note_on_c, 3, 79, 0
8, 25080, Note_on_c, 3, 79, 100
8, 25120, Note_on_c, 3, 79, 0
8, 25140, Note_on_c, 3, 76, 100
8, 25180, Note_on_c, 3, 76, 0
8, 25200, Note_on_c, 3, 76, 100
8, 25280, Note_on_c, 3, 76, 0
8, 25380, Note_on_c, 3, 76, 100
8, 25420, Note_on_c, 3, 76, 0
8, 25440, Note_on_c, 3, 76, 100
8, 25480, Note_on_c, 3, 76, 0
8, 25500, Note_on_c, 3, 74, 100
8, 25520, Note_on_c, 3, 74, 0
8, 25530, Note_on_c, 3, 73, 100
8, 25550, Note_on_c, 3, 73, 0
8, 25560, Note_on_c, 3, 81, 100
8, 25600, Note_on_c, 3, 81, 0
8, 25620, Note_on_c, 3, 74, 100
8, 25660, Note_on_c, 3, 74, 0
8, 25680, Note_on_c, 3, 78, 100
8, 25720, Note_on_c, 3, 78, 0
8, 25740, Note_on_c, 3, 81, 100
8, 25780, Note_on_c, 3, 81, 0
8, 25800, Note_on_c, 3, 81, 100
8, 25840, Note_on_c, 3, 81, 0
8, 25860, Note_on_c, 3, 79, 100
8, 25880, Note_on_c, 3, 79, 0
8, 25890, Note_on_c, 3, 78, 100
8, 25910, Note_on_c, 3, 78, 0
8, 25920, Note_on_c, 3, 86, 100
8, 25960, Note_on_c, 3, 86, 0
8, 25980, Note_on_c, 3, 71, 100
8, 26020, Note_on_c, 3, 71, 0
8, 26040, Note_on_c, 3, 76, 100
8, 26080, Note_on_c, 3, 76, 0
8, 26100, Note_on_c, 3, 79, 100
8, 26140, Note_on_c, 3, 79, 0
8, 26160, Note_on_c, 3, 79, 100
8, 26180, Note_on_c, 3, 79, 0
8, 26190, Note_on_c, 3, 78, 100
8, 26210, Note_on_c, 3, 78, 0
8, 26220, Note_on_c, 3, 76, 100
8, 26240, Note_on_c, 3, 76, 0
8, 26250, Note_on_c, 3, 74, 100
8, 26270, Note_on_c, 3, 74, 0
8, 26280, Note_on_c, 3, 73, 100
8, 26320, Note_on_c, 3, 73, 0
8, 26340, Note_on_c, 3, 76, 100
8, 26380, Note_on_c, 3, 76, 0
8, 26400, Note_on_c, 3, 69, 100
8, 26440, Note_on_c, 3, 69, 0
8, 26460, Note_on_c, 3, 74, 100
8, 26500, Note_on_c, 3, 74, 0
8, 26520, Note_on_c, 3, 64, 100
8, 26560, Note_on_c, 3, 64, 0
8, 26580, Note_on_c, 3, 73, 100
8, 26620, Note_on_c, 3, 73, 0
8, 26640, Note_on_c, 3, 74, 100
8, 26680, Note_on_c, 3, 74, 0
8, 26700, Note_on_c, 3, 66, 100
8, 26740, Note_on_c, 3, 66, 0
8, 26760, Note_on_c, 3, 74, 100
8, 26780, Note_on_c, 3, 74, 0
8, 26790, Note_on_c, 3, 76, 100
8, 26810, Note_on_c, 3, 76, 0
8, 26820, Note_on_c, 3, 78, 100
8, 26840, Note_on_c, 3, 78, 0
8, 26850, Note_on_c, 3, 76, 100
8, 26870, Note_on_c, 3, 76, 0
8, 26880, Note_on_c, 3, 79, 100
8, 26900, Note_on_c, 3, 79, 0
8, 26910, Note_on_c, 3, 78, 100
8, 26930, Note_on_c, 3, 78, 0
8, 26940, Note_on_c, 3, 76, 100
8, 26960, Note_on_c, 3, 76, 0
8, 26970, Note_on_c, 3, 74, 100
8, 26990, Note_on_c, 3, 74, 0
8, 27000, Note_on_c, 3, 73, 100
8, 27357, Note_on_c, 3, 73, 0
8, 27360, Note_on_c, 3, 72, 100
8, 27717, Note_on_c, 3, 72, 0
8, 27720, Note_on_c, 3, 71, 100
8, 27760, Note_on_c, 3, 71, 0
8, 27780, Note_on_c, 3, 71, 100
8, 27820, Note_on_c, 3, 71, 0
8, 27840, Note_on_c, 3, 76, 100
8, 27880, Note_on_c, 3, 76, 0
8, 27900, Note_on_c, 3, 79, 100
8, 27940, Note_on_c, 3, 79, 0
8, 27960, Note_on_c, 3, 79, 100
8, 28000, Note_on_c, 3, 79, 0
8, 28020, Note_on_c, 3, 76, 100
8, 28060, Note_on_c, 3, 76, 0
8, 28080, Note_on_c, 3, 73, 100
8, 28100, Note_on_c, 3, 73, 0
8, 28110, Note_on_c, 3, 81, 100
8, 28130, Note_on_c, 3, 81, 0
8, 28140, Note_on_c, 3, 79, 100
8, 28160, Note_on_c, 3, 79, 0
8, 28170, Note_on_c, 3, 78, 100
8, 28190, Note_on_c, 3, 78, 0
8, 28200, Note_on_c, 3, 76, 100
8, 28220, Note_on_c, 3, 76, 0
8, 28230, Note_on_c, 3, 74, 100
8, 28250, Note_on_c, 3, 74, 0
8, 28260, Note_on_c, 3, 73, 100
8, 28280, Note_on_c, 3, 73, 0
8, 28290, Note_on_c, 3, 74, 100
8, 28310, Note_on_c, 3, 74, 0
8, 28320, Note_on_c, 3, 76, 100
8, 28340, Note_on_c, 3, 76, 0
8, 28350, Note_on_c, 3, 78, 100
8, 28370, Note_on_c, 3, 78, 0
8, 28380, Note_on_c, 3, 76, 100
8, 28400, Note_on_c, 3, 76, 0
8, 28410, Note_on_c, 3, 78, 100
8, 28430, Note_on_c, 3, 78, 0
8, 28440, Note_on_c, 3, 74, 100
8, 28500, Note_on_c, 3, 74, 0
8, 28530, Note_on_c, 3, 76, 100
8, 28550, Note_on_c, 3, 76, 0
8, 28560, Note_on_c, 3, 74, 100
8, 28580, Note_on_c, 3, 74, 0
8, 28590, Note_on_c, 3, 73, 100
8, 28610, Note_on_c, 3, 73, 0
8, 28620, Note_on_c, 3, 71, 100
8, 28640, Note_on_c, 3, 71, 0
8, 28650, Note_on_c, 3, 71, 100
8, 28670, Note_on_c, 3, 71, 0
8, 28680, Note_on_c, 3, 74, 100
8, 28700, Note_on_c, 3, 74, 0
8, 28710, Note_on_c, 3, 76, 100
8, 28730, Note_on_c, 3, 76, 0
8, 28740, Note_on_c, 3, 73, 100
8, 28760, Note_on_c, 3, 73, 0
8, 28770, Note_on_c, 3, 74, 100
8, 28790, Note_on_c, 3, 74, 0
8, 28800, Note_on_c, 3, 73, 100
8, 28820, Note_on_c, 3, 73, 0
8, 28830, Note_on_c, 3, 81, 100
8, 28850, Note_on_c, 3, 81, 0
8, 28860, Note_on_c, 3, 79, 100
8, 28880, Note_on_c, 3, 79, 0
8, 28890, Note_on_c, 3, 78, 100
8, 28910, Note_on_c, 3, 78, 0
8, 28920, Note_on_c, 3, 76, 100
8, 28940, Note_on_c, 3, 76, 0
8, 28950, Note_on_c, 3, 74, 100
8, 28970, Note_on_c, 3, 74, 0
8, 28980, Note_on_c, 3, 73, 100
8, 29000, Note_on_c, 3, 73, 0
8, 29010, Note_on_c, 3, 74, 100
8, 29030, Note_on_c, 3, 74, 0
8, 29040, Note_on_c, 3, 76, 100
8, 29060, Note_on_c, 3, 76, 0
8, 29070, Note_on_c, 3, 78, 100
8, 29090, Note_on_c, 3, 78, 0
8, 29100, Note_on_c, 3, 74, 100
8, 29120, Note_on_c, 3, 74, 0
8, 29130, Note_on_c, 3, 76, 100
8, 29150, Note_on_c, 3, 76, 0
8, 29160, Note_on_c, 3, 78, 100
8, 29920, Note_on_c, 3, 78, 0
8, 29940, Note_on_c, 3, 66, 100
8, 29980, Note_on_c, 3, 66, 0
8, 30000, Note_on_c, 3, 69, 100
8, 30040, Note_on_c, 3, 69, 0
8, 30060, Note_on_c, 3, 74, 100
8, 30100, Note_on_c, 3, 74, 0
8, 30120, Note_on_c, 3, 74, 100
8, 30160, Note_on_c, 3, 74, 0
8, 30180, Note_on_c, 3, 69, 100
8, 30220, Note_on_c, 3, 69, 0
8, 30240, Note_on_c, 3, 66, 100
8, 30280, Note_on_c, 3, 66, 0
8, 30300, Note_on_c, 3, 69, 100
8, 30340, Note_on_c, 3, 69, 0
8, 30360, Note_on_c, 3, 74, 100
8, 30400, Note_on_c, 3, 74, 0
8, 30420, Note_on_c, 3, 78, 100
8, 30460, Note_on_c, 3, 78, 0
8, 30480, Note_on_c, 3, 78, 100
8, 30520, Note_on_c, 3, 78, 0
8, 30540, Note_on_c, 3, 74, 100
8, 30580, Note_on_c, 3, 74, 0
8, 30600, Note_on_c, 3, 66, 100
8, 30640, Note_on_c, 3, 66, 0
8, 30660, Note_on_c, 3, 74, 100
8, 30700, Note_on_c, 3, 74, 0
8, 30720, Note_on_c, 3, 78, 100
8, 30760, Note_on_c, 3, 78, 0
8, 30780, Note_on_c, 3, 81, 100
8, 30820, Note_on_c, 3, 81, 0
8, 30840, Note_on_c, 3, 81, 100
8, 30860, Note_on_c, 3, 81, 0
8, 30870, Note_on_c, 3, 79, 100
8, 30890, Note_on_c, 3, 79, 0
8, 30900, Note_on_c, 3, 78, 100
8, 30920, Note_on_c, 3, 78, 0
8, 30930, Note_on_c, 3, 76, 100
8, 30950, Note_on_c, 3, 76, 0
8, 30960, Note_on_c, 3, 78, 100
8, 31000, Note_on_c, 3, 78, 0
8, 31020, Note_on_c, 3, 74, 100
8, 31060, Note_on_c, 3, 74, 0
8, 31380, Note_on_c, 3, 74, 100
8, 31400, Note_on_c, 3, 74, 0
8, 31410, Note_on_c, 3, 76, 100
8, 31430, Note_on_c, 3, 76, 0
8, 31440, Note_on_c, 3, 78, 100
8, 31460, Note_on_c, 3, 78, 0
8, 31470, Note_on_c, 3, 79, 100
8, 31490, Note_on_c, 3, 79, 0
8, 31500, Note_on_c, 3, 81, 100
8, 31540, Note_on_c, 3, 81, 0
8, 31560, Note_on_c, 3, 81, 100
8, 31580, Note_on_c, 3, 81, 0
8, 31590, Note_on_c, 3, 79, 100
8, 31610, Note_on_c, 3, 79, 0
8, 31620, Note_on_c, 3, 78, 100
8, 31640, Note_on_c, 3, 78, 0
8, 31650, Note_on_c, 3, 76, 100
8, 31670, Note_on_c, 3, 76, 0
8, 31680, Note_on_c, 3, 78, 100
8, 31700, Note_on_c, 3, 78, 0
8, 31710, Note_on_c, 3, 76, 100
8, 31730, Note_on_c, 3, 76, 0
8, 31740, Note_on_c, 3, 78, 100
8, 31760, Note_on_c, 3, 78, 0
8, 31770, Note_on_c, 3, 79, 100
8, 31790, Note_on_c, 3, 79, 0
8, 31800, Note_on_c, 3, 81, 100
8, 31840, Note_on_c, 3, 81, 0
8, 31860, Note_on_c, 3, 83, 100
8, 31880, Note_on_c, 3, 83, 0
8, 31890, Note_on_c, 3, 81, 100
8, 31910, Note_on_c, 3, 81, 0
8, 31920, Note_on_c, 3, 79, 100
8, 31940, Note_on_c, 3, 79, 0
8, 31950, Note_on_c, 3, 78, 100
8, 31970, Note_on_c, 3, 78, 0
8, 31980, Note_on_c, 3, 76, 100
8, 32000, Note_on_c, 3, 76, 0
8, 32010, Note_on_c, 3, 74, 100
8, 32030, Note_on_c, 3, 74, 0
8, 32040, Note_on_c, 3, 74, 100
8, 32120, Note_on_c, 3, 74, 0
8, 49500, Control_c, 3, 0, 0
8, 49560, Note_on_c, 3, 74, 100
8, 49588, Note_on_c, 3, 74, 0
8, 49590, Note_on_c, 3, 73, 100
8, 49618, Note_on_c, 3, 73, 0
8, 49620, Note_on_c, 3, 76, 100
8, 49648, Note_on_c, 3, 76, 0
8, 49650, Note_on_c, 3, 74, 100
8, 49678, Note_on_c, 3, 74, 0
8, 49680, Note_on_c, 3, 73, 100
8, 49708, Note_on_c, 3, 73, 0
8, 49710, Note_on_c, 3, 71, 100
8, 49738, Note_on_c, 3, 71, 0
8, 49740, Note_on_c, 3, 70, 100
8, 49828, Note_on_c, 3, 70, 0
8, 49830, Note_on_c, 3, 71, 100
8, 49843, Note_on_c, 3, 71, 0
8, 49845, Note_on_c, 3, 73, 100
8, 49858, Note_on_c, 3, 73, 0
8, 49860, Note_on_c, 3, 64, 100
8, 50008, Note_on_c, 3, 64, 0
8, 50010, Note_on_c, 3, 74, 100
8, 50038, Note_on_c, 3, 74, 0
8, 50040, Note_on_c, 3, 73, 100
8, 50068, Note_on_c, 3, 73, 0
8, 50070, Note_on_c, 3, 71, 100
8, 50098, Note_on_c, 3, 71, 0
8, 50100, Note_on_c, 3, 70, 100
8, 50128, Note_on_c, 3, 70, 0
8, 50130, Note_on_c, 3, 67, 100
8, 50158, Note_on_c, 3, 67, 0
8, 50160, Note_on_c, 3, 66, 100
8, 50188, Note_on_c, 3, 66, 0
8, 50190, Note_on_c, 3, 64, 100
8, 50218, Note_on_c, 3, 64, 0
8, 50220, Note_on_c, 3, 63, 100
8, 50248, Note_on_c, 3, 63, 0
8, 50250, Note_on_c, 3, 64, 100
8, 50278, Note_on_c, 3, 64, 0
8, 50280, Note_on_c, 3, 66, 100
8, 50308, Note_on_c, 3, 66, 0
8, 50310, Note_on_c, 3, 67, 100
8, 50338, Note_on_c, 3, 67, 0
8, 50340, Note_on_c, 3, 69, 100
8, 50458, Note_on_c, 3, 69, 0
8, 50490, Note_on_c, 3, 79, 100
8, 50518, Note_on_c, 3, 79, 0
8, 50520, Note_on_c, 3, 78, 100
8, 50548, Note_on_c, 3, 78, 0
8, 50550, Note_on_c, 3, 76, 100
8, 50578, Note_on_c, 3, 76, 0
8, 50580, Note_on_c, 3, 75, 100
8, 50608, Note_on_c, 3, 75, 0
8, 50610, Note_on_c, 3, 72, 100
8, 50638, Note_on_c, 3, 72, 0
8, 50640, Note_on_c, 3, 71, 100
8, 50668, Note_on_c, 3, 71, 0
8, 50670, Note_on_c, 3, 69, 100
8, 50698, Note_on_c, 3, 69, 0
8, 50700, Note_on_c, 3, 67, 100
8, 50728, Note_on_c, 3, 67, 0
8, 50730, Note_on_c, 3, 69, 100
8, 50758, Note_on_c, 3, 69, 0
8, 50760, Note_on_c, 3, 71, 100
8, 50788, Note_on_c, 3, 71, 0
8, 50790, Note_on_c, 3, 73, 100
8, 50818, Note_on_c, 3, 73, 0
8, 50820, Note_on_c, 3, 74, 100
8, 50938, Note_on_c, 3, 74, 0
8, 50970, Note_on_c, 3, 81, 100
8, 50998, Note_on_c, 3, 81, 0
8, 51000, Note_on_c, 3, 80, 100
8, 51028, Note_on_c, 3, 80, 0
8, 51030, Note_on_c, 3, 78, 100
8, 51058, Note_on_c, 3, 78, 0
8, 51060, Note_on_c, 3, 77, 100
8, 51088, Note_on_c, 3, 77, 0
8, 51090, Note_on_c, 3, 74, 100
8, 51118, Note_on_c, 3, 74, 0
8, 51120, Note_on_c, 3, 73, 100
8, 51148, Note_on_c, 3, 73, 0
8, 51150, Note_on_c, 3, 71, 100
8, 51178, Note_on_c, 3, 71, 0
8, 51180, Note_on_c, 3, 70, 100
8, 51208, Note_on_c, 3, 70, 0
8, 51210, Note_on_c, 3, 67, 100
8, 51238, Note_on_c, 3, 67, 0
8, 51240, Note_on_c, 3, 66, 100
8, 51268, Note_on_c, 3, 66, 0
8, 51270, Note_on_c, 3, 64, 100
8, 51298, Note_on_c, 3, 64, 0
8, 51300, Note_on_c, 3, 62, 100
8, 51328, Note_on_c, 3, 62, 0
8, 51330, Note_on_c, 3, 72, 100
8, 51358, Note_on_c, 3, 72, 0
8, 51360, Note_on_c, 3, 71, 100
8, 51388, Note_on_c, 3, 71, 0
8, 51390, Note_on_c, 3, 70, 100
8, 51418, Note_on_c, 3, 70, 0
8, 51420, Note_on_c, 3, 71, 100
8, 51448, Note_on_c, 3, 71, 0
8, 51450, Note_on_c, 3, 67, 100
8, 51478, Note_on_c, 3, 67, 0
8, 51480, Note_on_c, 3, 66, 100
8, 51508, Note_on_c, 3, 66, 0
8, 51510, Note_on_c, 3, 65, 100
8, 51538, Note_on_c, 3, 65, 0
8, 51540, Note_on_c, 3, 65, 100
8, 51568, Note_on_c, 3, 65, 0
8, 51570, Note_on_c, 3, 66, 100
8, 51598, Note_on_c, 3, 66, 0
8, 51600, Note_on_c, 3, 64, 100
8, 51628, Note_on_c, 3, 64, 0
8, 51630, Note_on_c, 3, 62, 100
8, 51658, Note_on_c, 3, 62, 0
8, 51660, Note_on_c, 3, 59, 100
8, 51688, Note_on_c, 3, 59, 0
8, 51690, Note_on_c, 3, 66, 100
8, 51718, Note_on_c, 3, 66, 0
8, 51720, Note_on_c, 3, 68, 100
8, 51748, Note_on_c, 3, 68, 0
8, 51750, Note_on_c, 3, 70, 100
8, 51778, Note_on_c, 3, 70, 0
8, 51780, Note_on_c, 3, 71, 100
8, 51898, Note_on_c, 3, 71, 0
8, 52170, Note_on_c, 3, 78, 100
8, 52200, Note_on_c, 3, 78, 0
8, 52200, Note_on_c, 3, 76, 100
8, 52230, Note_on_c, 3, 76, 0
8, 52230, Note_on_c, 3, 74, 100
8, 52260, Note_on_c, 3, 74, 0
8, 52260, Note_on_c, 3, 73, 100
8, 52290, Note_on_c, 3, 73, 0
8, 52290, Note_on_c, 3, 71, 100
8, 52320, Note_on_c, 3, 71, 0
8, 52320, Note_on_c, 3, 70, 100
8, 52350, Note_on_c, 3, 70, 0
8, 52350, Note_on_c, 3, 68, 100
8, 52380, Note_on_c, 3, 68, 0
8, 52380, Note_on_c, 3, 70, 100
8, 52410, Note_on_c, 3, 70, 0
8, 52410, Note_on_c, 3, 71, 100
8, 52440, Note_on_c, 3, 71, 0
8, 52440, Note_on_c, 3, 73, 100
8, 52470, Note_on_c, 3, 73, 0
8, 52470, Note_on_c, 3, 74, 100
8, 52500, Note_on_c, 3, 74, 0
8, 52500, Note_on_c, 3, 76, 100
8, 52560, Note_on_c, 3, 76, 0
8, 52680, Note_on_c, 3, 79, 100
8, 52710, Note_on_c, 3, 79, 0
8, 52710, Note_on_c, 3, 78, 100
8, 52740, Note_on_c, 3, 78, 0
8, 52740, Note_on_c, 3, 81, 100
8, 52770, Note_on_c, 3, 81, 0
8, 52770, Note_on_c, 3, 79, 100
8, 52800, Note_on_c, 3, 79, 0
8, 52800, Note_on_c, 3, 78, 100
8, 52830, Note_on_c, 3, 78, 0
8, 52830, Note_on_c, 3, 76, 100
8, 52860, Note_on_c, 3, 76, 0
8, 52860, Note_on_c, 3, 75, 100
8, 52950, Note_on_c, 3, 75, 0
8, 52950, Note_on_c, 3, 76, 100
8, 52965, Note_on_c, 3, 76, 0
8, 52965, Note_on_c, 3, 78, 100
8, 52980, Note_on_c, 3, 78, 0
8, 52980, Note_on_c, 3, 69, 100
8, 53100, Note_on_c, 3, 69, 0
8, 53130, Note_on_c, 3, 66, 100
8, 53160, Note_on_c, 3, 66, 0
8, 53160, Note_on_c, 3, 64, 100
8, 53190, Note_on_c, 3, 64, 0
8, 53190, Note_on_c, 3, 63, 100
8, 53220, Note_on_c, 3, 63, 0
8, 53220, Note_on_c, 3, 64, 100
8, 53250, Note_on_c, 3, 64, 0
8, 53250, Note_on_c, 3, 72, 100
8, 53280, Note_on_c, 3, 72, 0
8, 53280, Note_on_c, 3, 71, 100
8, 53310, Note_on_c, 3, 71, 0
8, 53310, Note_on_c, 3, 70, 100
8, 53340, Note_on_c, 3, 70, 0
8, 53340, Note_on_c, 3, 71, 100
8, 53370, Note_on_c, 3, 71, 0
8, 53370, Note_on_c, 3, 78, 100
8, 53400, Note_on_c, 3, 78, 0
8, 53400, Note_on_c, 3, 76, 100
8, 53430, Note_on_c, 3, 76, 0
8, 53430, Note_on_c, 3, 74, 100
8, 53460, Note_on_c, 3, 74, 0
8, 53460, Note_on_c, 3, 76, 100
8, 53490, Note_on_c, 3, 76, 0
8, 53490, Note_on_c, 3, 74, 100
8, 53520, Note_on_c, 3, 74, 0
8, 53520, Note_on_c, 3, 73, 100
8, 53550, Note_on_c, 3, 73, 0
8, 53550, Note_on_c, 3, 71, 100
8, 53580, Note_on_c, 3, 71, 0
8, 53580, Note_on_c, 3, 70, 100
8, 53670, Note_on_c, 3, 70, 0
8, 53670, Note_on_c, 3, 71, 100
8, 53685, Note_on_c, 3, 71, 0
8, 53685, Note_on_c, 3, 73, 100
8, 53700, Note_on_c, 3, 73, 0
8, 53700, Note_on_c, 3, 64, 100
8, 53820, Note_on_c, 3, 64, 0
8, 53850, Note_on_c, 3, 74, 100
8, 53880, Note_on_c, 3, 74, 0
8, 53880, Note_on_c, 3, 73, 100
8, 53910, Note_on_c, 3, 73, 0
8, 53910, Note_on_c, 3, 71, 100
8, 53940, Note_on_c, 3, 71, 0
8, 53940, Note_on_c, 3, 70, 100
8, 53970, Note_on_c, 3, 70, 0
8, 53970, Note_on_c, 3, 67, 100
8, 54000, Note_on_c, 3, 67, 0
8, 54000, Note_on_c, 3, 66, 100
8, 54030, Note_on_c, 3, 66, 0
8, 54030, Note_on_c, 3, 64, 100
8, 54060, Note_on_c, 3, 64, 0
8, 54060, Note_on_c, 3, 62, 100
8, 54090, Note_on_c, 3, 62, 0
8, 54090, Note_on_c, 3, 66, 100
8, 54120, Note_on_c, 3, 66, 0
8, 54120, Note_on_c, 3, 68, 100
8, 54150, Note_on_c, 3, 68, 0
8, 54150, Note_on_c, 3, 70, 100
8, 54180, Note_on_c, 3, 70, 0
8, 54180, Note_on_c, 3, 71, 100
8, 54210, Note_on_c, 3, 71, 0
8, 54210, Note_on_c, 3, 74, 100
8, 54240, Note_on_c, 3, 74, 0
8, 54240, Note_on_c, 3, 73, 100
8, 54270, Note_on_c, 3, 73, 0
8, 54270, Note_on_c, 3, 76, 100
8, 54300, Note_on_c, 3, 76, 0
8, 54300, Note_on_c, 3, 74, 100
8, 54330, Note_on_c, 3, 74, 0
8, 54330, Note_on_c, 3, 73, 100
8, 54360, Note_on_c, 3, 73, 0
8, 54360, Note_on_c, 3, 71, 100
8, 54390, Note_on_c, 3, 71, 0
8, 54390, Note_on_c, 3, 69, 100
8, 54420, Note_on_c, 3, 69, 0
8, 54420, Note_on_c, 3, 67, 100
8, 54450, Note_on_c, 3, 67, 0
8, 54450, Note_on_c, 3, 66, 100
8, 54480, Note_on_c, 3, 66, 0
8, 54480, Note_on_c, 3, 64, 100
8, 54510, Note_on_c, 3, 64, 0
8, 54510, Note_on_c, 3, 62, 100
8, 54540, Note_on_c, 3, 62, 0
8, 54540, Note_on_c, 3, 64, 100
8, 54570, Note_on_c, 3, 64, 0
8, 54570, Note_on_c, 3, 74, 100
8, 54600, Note_on_c, 3, 74, 0
8, 54600, Note_on_c, 3, 73, 100
8, 54630, Note_on_c, 3, 73, 0
8, 54630, Note_on_c, 3, 71, 100
8, 54660, Note_on_c, 3, 71, 0
8, 54660, Note_on_c, 3, 70, 100
8, 54690, Note_on_c, 3, 70, 0
8, 54690, Note_on_c, 3, 67, 100
8, 54720, Note_on_c, 3, 67, 0
8, 54720, Note_on_c, 3, 66, 100
8, 54750, Note_on_c, 3, 66, 0
8, 54750, Note_on_c, 3, 64, 100
8, 54780, Note_on_c, 3, 64, 0
8, 54780, Note_on_c, 3, 63, 100
8, 54810, Note_on_c, 3, 63, 0
8, 54810, Note_on_c, 3, 64, 100
8, 54840, Note_on_c, 3, 64, 0
8, 54840, Note_on_c, 3, 66, 100
8, 54870, Note_on_c, 3, 66, 0
8, 54870, Note_on_c, 3, 67, 100
8, 54900, Note_on_c, 3, 67, 0
8, 54900, Note_on_c, 3, 69, 100
8, 54960, Note_on_c, 3, 69, 0
8, 55050, Note_on_c, 3, 72, 100
8, 55080, Note_on_c, 3, 72, 0
8, 55080, Note_on_c, 3, 71, 100
8, 55110, Note_on_c, 3, 71, 0
8, 55110, Note_on_c, 3, 69, 100
8, 55140, Note_on_c, 3, 69, 0
8, 55140, Note_on_c, 3, 67, 100
8, 55170, Note_on_c, 3, 67, 0
8, 55170, Note_on_c, 3, 66, 100
8, 55200, Note_on_c, 3, 66, 0
8, 55200, Note_on_c, 3, 64, 100
8, 55230, Note_on_c, 3, 64, 0
8, 55230, Note_on_c, 3, 62, 100
8, 55260, Note_on_c, 3, 62, 0
8, 55260, Note_on_c, 3, 61, 100
8, 55290, Note_on_c, 3, 61, 0
8, 55290, Note_on_c, 3, 62, 100
8, 55320, Note_on_c, 3, 62, 0
8, 55320, Note_on_c, 3, 64, 100
8, 55350, Note_on_c, 3, 64, 0
8, 55350, Note_on_c, 3, 66, 100
8, 55380, Note_on_c, 3, 66, 0
8, 55380, Note_on_c, 3, 67, 100
8, 55440, Note_on_c, 3, 67, 0
8, 55530, Note_on_c, 3, 71, 100
8, 55560, Note_on_c, 3, 71, 0
8, 55560, Note_on_c, 3, 69, 100
8, 55590, Note_on_c, 3, 69, 0
8, 55590, Note_on_c, 3, 67, 100
8, 55620, Note_on_c, 3, 67, 0
8, 55620, Note_on_c, 3, 66, 100
8, 55650, Note_on_c, 3, 66, 0
8, 55650, Note_on_c, 3, 64, 100
8, 55680, Note_on_c, 3, 64, 0
8, 55680, Note_on_c, 3, 62, 100
8, 55710, Note_on_c, 3, 62, 0
8, 55710, Note_on_c, 3, 61, 100
8, 55740, Note_on_c, 3, 61, 0
8, 55740, Note_on_c, 3, 62, 100
8, 55770, Note_on_c, 3, 62, 0
8, 55770, Note_on_c, 3, 79, 100
8, 55800, Note_on_c, 3, 79, 0
8, 55800, Note_on_c, 3, 78, 100
8, 55830, Note_on_c, 3, 78, 0
8, 55830, Note_on_c, 3, 76, 100
8, 55860, Note_on_c, 3, 76, 0
8, 55860, Note_on_c, 3, 74, 100
8, 55890, Note_on_c, 3, 74, 0
8, 55890, Note_on_c, 3, 73, 100
8, 55920, Note_on_c, 3, 73, 0
8, 55920, Note_on_c, 3, 76, 100
8, 55950, Note_on_c, 3, 76, 0
8, 55950, Note_on_c, 3, 67, 100
8, 55980, Note_on_c, 3, 67, 0
8, 55980, Note_on_c, 3, 67, 100
8, 56010, Note_on_c, 3, 67, 0
8, 56010, Note_on_c, 3, 64, 100
8, 56040, Note_on_c, 3, 64, 0
8, 56040, Note_on_c, 3, 66, 100
8, 56070, Note_on_c, 3, 66, 0
8, 56070, Note_on_c, 3, 69, 100
8, 56100, Note_on_c, 3, 69, 0
8, 56100, Note_on_c, 3, 74, 100
8, 56160, Note_on_c, 3, 74, 0
8, 56250, Note_on_c, 3, 78, 100
8, 56280, Note_on_c, 3, 78, 0
8, 56280, Note_on_c, 3, 76, 100
8, 56310, Note_on_c, 3, 76, 0
8, 56310, Note_on_c, 3, 74, 100
8, 56340, Note_on_c, 3, 74, 0
8, 56340, Note_on_c, 3, 73, 100
8, 56370, Note_on_c, 3, 73, 0
8, 56370, Note_on_c, 3, 71, 100
8, 56400, Note_on_c, 3, 71, 0
8, 56400, Note_on_c, 3, 74, 100
8, 56430, Note_on_c, 3, 74, 0
8, 56430, Note_on_c, 3, 66, 100
8, 56460, Note_on_c, 3, 66, 0
8, 56460, Note_on_c, 3, 66, 100
8, 56490, Note_on_c, 3, 66, 0
8, 56490, Note_on_c, 3, 62, 100
8, 56520, Note_on_c, 3, 62, 0
8, 56520, Note_on_c, 3, 64, 100
8, 56550, Note_on_c, 3, 64, 0
8, 56550, Note_on_c, 3, 67, 100
8, 56580, Note_on_c, 3, 67, 0
8, 56580, Note_on_c, 3, 73, 100
8, 56640, Note_on_c, 3, 73, 0
8, 56730, Note_on_c, 3, 76, 100
8, 56760, Note_on_c, 3, 76, 0
8, 56760, Note_on_c, 3, 74, 100
8, 56790, Note_on_c, 3, 74, 0
8, 56790, Note_on_c, 3, 73, 100
8, 56820, Note_on_c, 3, 73, 0
8, 56820, Note_on_c, 3, 71, 100
8, 56850, Note_on_c, 3, 71, 0
8, 56850, Note_on_c, 3, 69, 100
8, 56880, Note_on_c, 3, 69, 0
8, 56880, Note_on_c, 3, 73, 100
8, 56910, Note_on_c, 3, 73, 0
8, 56910, Note_on_c, 3, 64, 100
8, 56940, Note_on_c, 3, 64, 0
8, 56940, Note_on_c, 3, 64, 100
8, 56970, Note_on_c, 3, 64, 0
8, 56970, Note_on_c, 3, 61, 100
8, 57000, Note_on_c, 3, 61, 0
8, 57000, Note_on_c, 3, 62, 100
8, 57030, Note_on_c, 3, 62, 0
8, 57030, Note_on_c, 3, 66, 100
8, 57060, Note_on_c, 3, 66, 0
8, 57060, Note_on_c, 3, 71, 100
8, 57090, Note_on_c, 3, 71, 0
8, 57090, Note_on_c, 3, 66, 100
8, 57120, Note_on_c, 3, 66, 0
8, 57120, Note_on_c, 3, 67, 100
8, 57150, Note_on_c, 3, 67, 0
8, 57150, Note_on_c, 3, 64, 100
8, 57180, Note_on_c, 3, 64, 0
8, 57180, Note_on_c, 3, 62, 100
8, 57210, Note_on_c, 3, 62, 0
8, 57210, Note_on_c, 3, 59, 100
8, 57240, Note_on_c, 3, 59, 0
8, 57240, Note_on_c, 3, 61, 100
8, 57270, Note_on_c, 3, 61, 0
8, 57270, Note_on_c, 3, 64, 100
8, 57300, Note_on_c, 3, 64, 0
8, 57300, Note_on_c, 3, 69, 100
8, 57330, Note_on_c, 3, 69, 0
8, 57330, Note_on_c, 3, 64, 100
8, 57360, Note_on_c, 3, 64, 0
8, 57360, Note_on_c, 3, 66, 100
8, 57390, Note_on_c, 3, 66, 0
8, 57390, Note_on_c, 3, 61, 100
8, 57420, Note_on_c, 3, 61, 0
8, 57420, Note_on_c, 3, 62, 100
8, 57510, Note_on_c, 3, 62, 0
8, 57510, Note_on_c, 3, 67, 100
8, 57540, Note_on_c, 3, 67, 0
8, 57540, Note_on_c, 3, 64, 100
8, 57630, Note_on_c, 3, 64, 0
8, 57630, Note_on_c, 3, 62, 100
8, 57660, Note_on_c, 3, 62, 0
8, 57660, Note_on_c, 3, 62, 100
8, 57780, Note_on_c, 3, 62, 0
8, 57960, Note_on_c, 3, 73, 100
8, 57990, Note_on_c, 3, 73, 0
8, 57990, Note_on_c, 3, 71, 100
8, 58020, Note_on_c, 3, 71, 0
8, 58020, Note_on_c, 3, 74, 100
8, 58050, Note_on_c, 3, 74, 0
8, 58050, Note_on_c, 3, 73, 100
8, 58080, Note_on_c, 3, 73, 0
8, 58080, Note_on_c, 3, 71, 100
8, 58110, Note_on_c, 3, 71, 0
8, 58110, Note_on_c, 3, 69, 100
8, 58140, Note_on_c, 3, 69, 0
8, 58140, Note_on_c, 3, 67, 100
8, 58230, Note_on_c, 3, 67, 0
8, 58230, Note_on_c, 3, 69, 100
8, 58245, Note_on_c, 3, 69, 0
8, 58245, Note_on_c, 3, 71, 100
8, 58260, Note_on_c, 3, 71, 0
8, 58260, Note_on_c, 3, 64, 100
8, 58380, Note_on_c, 3, 64, 0
8, 58440, Note_on_c, 3, 74, 100
8, 58470, Note_on_c, 3, 74, 0
8, 58470, Note_on_c, 3, 73, 100
8, 58500, Note_on_c, 3, 73, 0
8, 58500, Note_on_c, 3, 76, 100
8, 58530, Note_on_c, 3, 76, 0
8, 58530, Note_on_c, 3, 74, 100
8, 58560, Note_on_c, 3, 74, 0
8, 58560, Note_on_c, 3, 73, 100
8, 58590, Note_on_c, 3, 73, 0
8, 58590, Note_on_c, 3, 71, 100
8, 58620, Note_on_c, 3, 71, 0
8, 58620, Note_on_c, 3, 70, 100
8, 58710, Note_on_c, 3, 70, 0
8, 58710, Note_on_c, 3, 71, 100
8, 58725, Note_on_c, 3, 71, 0
8, 58725, Note_on_c, 3, 73, 100
8, 58740, Note_on_c, 3, 73, 0
8, 58740, Note_on_c, 3, 66, 100
8, 58860, Note_on_c, 3, 66, 0
8, 58920, Note_on_c, 3, 69, 100
8, 58950, Note_on_c, 3, 69, 0
8, 58950, Note_on_c, 3, 68, 100
8, 58980, Note_on_c, 3, 68, 0
8, 58980, Note_on_c, 3, 71, 100
8, 59010, Note_on_c, 3, 71, 0
8, 59010, Note_on_c, 3, 69, 100
8, 59040, Note_on_c, 3, 69, 0
8, 59040, Note_on_c, 3, 68, 100
8, 59070, Note_on_c, 3, 68, 0
8, 59070, Note_on_c, 3, 66, 100
8, 59100, Note_on_c, 3, 66, 0
8, 59100, Note_on_c, 3, 64, 100
8, 59190, Note_on_c, 3, 64, 0
8, 59190, Note_on_c, 3, 66, 100
8, 59205, Note_on_c, 3, 66, 0
8, 59205, Note_on_c, 3, 68, 100
8, 59220, Note_on_c, 3, 68, 0
8, 59220, Note_on_c, 3, 59, 100
8, 59340, Note_on_c, 3, 59, 0
8, 59370, Note_on_c, 3, 69, 100
8, 59400, Note_on_c, 3, 69, 0
8, 59400, Note_on_c, 3, 68, 100
8, 59430, Note_on_c, 3, 68, 0
8, 59430, Note_on_c, 3, 66, 100
8, 59460, Note_on_c, 3, 66, 0
8, 59460, Note_on_c, 3, 65, 100
8, 59490, Note_on_c, 3, 65, 0
8, 59490, Note_on_c, 3, 62, 100
8, 59520, Note_on_c, 3, 62, 0
8, 59520, Note_on_c, 3, 61, 100
8, 59550, Note_on_c, 3, 61, 0
8, 59550, Note_on_c, 3, 59, 100
8, 59580, Note_on_c, 3, 59, 0
8, 59580, Note_on_c, 3, 57, 100
8, 59610, Note_on_c, 3, 57, 0
8, 59610, Note_on_c, 3, 59, 100
8, 59640, Note_on_c, 3, 59, 0
8, 59640, Note_on_c, 3, 61, 100
8, 59670, Note_on_c, 3, 61, 0
8, 59670, Note_on_c, 3, 62, 100
8, 59700, Note_on_c, 3, 62, 0
8, 59700, Note_on_c, 3, 64, 100
8, 59820, Note_on_c, 3, 64, 0
8, 59850, Note_on_c, 3, 74, 100
8, 59880, Note_on_c, 3, 74, 0
8, 59880, Note_on_c, 3, 73, 100
8, 59910, Note_on_c, 3, 73, 0
8, 59910, Note_on_c, 3, 71, 100
8, 59940, Note_on_c, 3, 71, 0
8, 59940, Note_on_c, 3, 70, 100
8, 59970, Note_on_c, 3, 70, 0
8, 59970, Note_on_c, 3, 67, 100
8, 60000, Note_on_c, 3, 67, 0
8, 60000, Note_on_c, 3, 66, 100
8, 60030, Note_on_c, 3, 66, 0
8, 60030, Note_on_c, 3, 64, 100
8, 60060, Note_on_c, 3, 64, 0
8, 60060, Note_on_c, 3, 62, 100
8, 60090, Note_on_c, 3, 62, 0
8, 60090, Note_on_c, 3, 64, 100
8, 60120, Note_on_c, 3, 64, 0
8, 60120, Note_on_c, 3, 66, 100
8, 60150, Note_on_c, 3, 66, 0
8, 60150, Note_on_c, 3, 68, 100
8, 60180, Note_on_c, 3, 68, 0
8, 60180, Note_on_c, 3, 69, 100
8, 60300, Note_on_c, 3, 69, 0
8, 60330, Note_on_c, 3, 76, 100
8, 60360, Note_on_c, 3, 76, 0
8, 60360, Note_on_c, 3, 75, 100
8, 60390, Note_on_c, 3, 75, 0
8, 60390, Note_on_c, 3, 73, 100
8, 60420, Note_on_c, 3, 73, 0
8, 60420, Note_on_c, 3, 72, 100
8, 60450, Note_on_c, 3, 72, 0
8, 60450, Note_on_c, 3, 69, 100
8, 60480, Note_on_c, 3, 69, 0
8, 60480, Note_on_c, 3, 68, 100
8, 60510, Note_on_c, 3, 68, 0
8, 60510, Note_on_c, 3, 66, 100
8, 60540, Note_on_c, 3, 66, 0
8, 60540, Note_on_c, 3, 65, 100
8, 60570, Note_on_c, 3, 65, 0
8, 60570, Note_on_c, 3, 74, 100
8, 60600, Note_on_c, 3, 74, 0
8, 60600, Note_on_c, 3, 73, 100
8, 60630, Note_on_c, 3, 73, 0
8, 60630, Note_on_c, 3, 71, 100
8, 60660, Note_on_c, 3, 71, 0
8, 60660, Note_on_c, 3, 69, 100
8, 60690, Note_on_c, 3, 69, 0
8, 60690, Note_on_c, 3, 79, 100
8, 60720, Note_on_c, 3, 79, 0
8, 60720, Note_on_c, 3, 78, 100
8, 60750, Note_on_c, 3, 78, 0
8, 60750, Note_on_c, 3, 77, 100
8, 60780, Note_on_c, 3, 77, 0
8, 60780, Note_on_c, 3, 78, 100
8, 60810, Note_on_c, 3, 78, 0
8, 60810, Note_on_c, 3, 74, 100
8, 60840, Note_on_c, 3, 74, 0
8, 60840, Note_on_c, 3, 73, 100
8, 60870, Note_on_c, 3, 73, 0
8, 60870, Note_on_c, 3, 72, 100
8, 60900, Note_on_c, 3, 72, 0
8, 60900, Note_on_c, 3, 73, 100
8, 60960, Note_on_c, 3, 73, 0
8, 60960, Note_on_c, 3, 71, 100
8, 60990, Note_on_c, 3, 71, 0
8, 60990, Note_on_c, 3, 69, 100
8, 61020, Note_on_c, 3, 69, 0
8, 61020, Note_on_c, 3, 66, 100
8, 61140, Note_on_c, 3, 66, 0
8, 61500, Note_on_c, 3, 78, 100
8, 61545, Note_on_c, 3, 78, 0
8, 61560, Note_on_c, 3, 78, 100
8, 61605, Note_on_c, 3, 78, 0
8, 61620, Note_on_c, 3, 78, 100
8, 61665, Note_on_c, 3, 78, 0
8, 61680, Note_on_c, 3, 78, 100
8, 61725, Note_on_c, 3, 78, 0
8, 61740, Note_on_c, 3, 78, 100
8, 61800, Note_on_c, 3, 78, 0
8, 61800, Note_on_c, 3, 77, 100
8, 61830, Note_on_c, 3, 77, 0
8, 61830, Note_on_c, 3, 75, 100
8, 61860, Note_on_c, 3, 75, 0
8, 61860, Note_on_c, 3, 73, 100
8, 61920, Note_on_c, 3, 73, 0
8, 61920, Note_on_c, 3, 71, 100
8, 61980, Note_on_c, 3, 71, 0
8, 61980, Note_on_c, 3, 69, 90
8, 62010, Note_on_c, 3, 69, 0
8, 62010, Note_on_c, 3, 68, 90
8, 62040, Note_on_c, 3, 68, 0
8, 62040, Note_on_c, 3, 66, 90
8, 62070, Note_on_c, 3, 66, 0
8, 62070, Note_on_c, 3, 68, 90
8, 62100, Note_on_c, 3, 68, 0
8, 62100, Note_on_c, 3, 69, 90
8, 62130, Note_on_c, 3, 69, 0
8, 62130, Note_on_c, 3, 68, 90
8, 62160, Note_on_c, 3, 68, 0
8, 62160, Note_on_c, 3, 69, 90
8, 62190, Note_on_c, 3, 69, 0
8, 62190, Note_on_c, 3, 71, 90
8, 62220, Note_on_c, 3, 71, 0
8, 62220, Note_on_c, 3, 73, 90
8, 62250, Note_on_c, 3, 73, 0
8, 62250, Note_on_c, 3, 68, 90
8, 62280, Note_on_c, 3, 68, 0
8, 62280, Note_on_c, 3, 69, 90
8, 62310, Note_on_c, 3, 69, 0
8, 62310, Note_on_c, 3, 71, 90
8, 62340, Note_on_c, 3, 71, 0
8, 62340, Note_on_c, 3, 73, 90
8, 62370, Note_on_c, 3, 73, 0
8, 62370, Note_on_c, 3, 74, 90
8, 62400, Note_on_c, 3, 74, 0
8, 62400, Note_on_c, 3, 73, 90
8, 62430, Note_on_c, 3, 73, 0
8, 62430, Note_on_c, 3, 71, 90
8, 62460, Note_on_c, 3, 71, 0
8, 62460, Note_on_c, 3, 69, 90
8, 62490, Note_on_c, 3, 69, 0
8, 62490, Note_on_c, 3, 68, 90
8, 62520, Note_on_c, 3, 68, 0
8, 62520, Note_on_c, 3, 69, 90
8, 62550, Note_on_c, 3, 69, 0
8, 62550, Note_on_c, 3, 71, 90
8, 62580, Note_on_c, 3, 71, 0
8, 62580, Note_on_c, 3, 73, 90
8, 62610, Note_on_c, 3, 73, 0
8, 62610, Note_on_c, 3, 71, 90
8, 62640, Note_on_c, 3, 71, 0
8, 62640, Note_on_c, 3, 73, 90
8, 62670, Note_on_c, 3, 73, 0
8, 62670, Note_on_c, 3, 74, 90
8, 62700, Note_on_c, 3, 74, 0
8, 62700, Note_on_c, 3, 68, 90
8, 62760, Note_on_c, 3, 68, 0
8, 62760, Note_on_c, 3, 68, 90
8, 62820, Note_on_c, 3, 68, 0
8, 62820, Note_on_c, 3, 68, 90
8, 62850, Note_on_c, 3, 68, 0
8, 62850, Note_on_c, 3, 65, 90
8, 62880, Note_on_c, 3, 65, 0
8, 62880, Note_on_c, 3, 66, 90
8, 62910, Note_on_c, 3, 66, 0
8, 62910, Note_on_c, 3, 68, 90
8, 62940, Note_on_c, 3, 68, 0
8, 62940, Note_on_c, 3, 61, 90
8, 62968, Note_on_c, 3, 61, 0
8, 62970, Note_on_c, 3, 71, 90
8, 62998, Note_on_c, 3, 71, 0
8, 63000, Note_on_c, 3, 69, 90
8, 63028, Note_on_c, 3, 69, 0
8, 63030, Note_on_c, 3, 68, 90
8, 63058, Note_on_c, 3, 68, 0
8, 63060, Note_on_c, 3, 66, 90
8, 63088, Note_on_c, 3, 66, 0
8, 63090, Note_on_c, 3, 69, 90
8, 63118, Note_on_c, 3, 69, 0
8, 63120, Note_on_c, 3, 68, 90
8, 63148, Note_on_c, 3, 68, 0
8, 63150, Note_on_c, 3, 66, 90
8, 63178, Note_on_c, 3, 66, 0
8, 63180, Note_on_c, 3, 73, 90
8, 63238, Note_on_c, 3, 73, 0
8, 63240, Note_on_c, 3, 73, 90
8, 63298, Note_on_c, 3, 73, 0
8, 63420, Note_on_c, 3, 69, 90
8, 63478, Note_on_c, 3, 69, 0
8, 63480, Note_on_c, 3, 69, 90
8, 63538, Note_on_c, 3, 69, 0
8, 63540, Note_on_c, 3, 69, 90
8, 63598, Note_on_c, 3, 69, 0
8, 63600, Note_on_c, 3, 69, 90
8, 63658, Note_on_c, 3, 69, 0
8, 63660, Note_on_c, 3, 69, 90
8, 63718, Note_on_c, 3, 69, 0
8, 63720, Note_on_c, 3, 68, 90
8, 63748, Note_on_c, 3, 68, 0
8, 63750, Note_on_c, 3, 66, 90
8, 63778, Note_on_c, 3, 66, 0
8, 63780, Note_on_c, 3, 64, 90
8, 63838, Note_on_c, 3, 64, 0
8, 63840, Note_on_c, 3, 62, 90
8, 63898, Note_on_c, 3, 62, 0
8, 63900, Note_on_c, 3, 61, 90
8, 63958, Note_on_c, 3, 61, 0
8, 63960, Note_on_c, 3, 62, 90
8, 63988, Note_on_c, 3, 62, 0
8, 63990, Note_on_c, 3, 64, 90
8, 64018, Note_on_c, 3, 64, 0
8, 64020, Note_on_c, 3, 66, 90
8, 64198, Note_on_c, 3, 66, 0
8, 64200, Note_on_c, 3, 59, 90
8, 64258, Note_on_c, 3, 59, 0
8, 64260, Note_on_c, 3, 71, 90
8, 64288, Note_on_c, 3, 71, 0
8, 64290, Note_on_c, 3, 73, 90
8, 64318, Note_on_c, 3, 73, 0
8, 64320, Note_on_c, 3, 71, 90
8, 64348, Note_on_c, 3, 71, 0
8, 64350, Note_on_c, 3, 69, 90
8, 64378, Note_on_c, 3, 69, 0
8, 64380, Note_on_c, 3, 68, 90
8, 64408, Note_on_c, 3, 68, 0
8, 64410, Note_on_c, 3, 71, 90
8, 64438, Note_on_c, 3, 71, 0
8, 64440, Note_on_c, 3, 73, 90
8, 64468, Note_on_c, 3, 73, 0
8, 64470, Note_on_c, 3, 74, 90
8, 64498, Note_on_c, 3, 74, 0
8, 64500, Note_on_c, 3, 76, 90
8, 64528, Note_on_c, 3, 76, 0
8, 64530, Note_on_c, 3, 73, 90
8, 64558, Note_on_c, 3, 73, 0
8, 64560, Note_on_c, 3, 74, 90
8, 64588, Note_on_c, 3, 74, 0
8, 64590, Note_on_c, 3, 76, 90
8, 64618, Note_on_c, 3, 76, 0
8, 64620, Note_on_c, 3, 78, 90
8, 64678, Note_on_c, 3, 78, 0
8, 64680, Note_on_c, 3, 78, 90
8, 64738, Note_on_c, 3, 78, 0
8, 64740, Note_on_c, 3, 78, 90
8, 64798, Note_on_c, 3, 78, 0
8, 64800, Note_on_c, 3, 78, 90
8, 64858, Note_on_c, 3, 78, 0
8, 64860, Note_on_c, 3, 78, 90
8, 64918, Note_on_c, 3, 78, 0
8, 64920, Note_on_c, 3, 76, 90
8, 64948, Note_on_c, 3, 76, 0
8, 64950, Note_on_c, 3, 74, 90
8, 64978, Note_on_c, 3, 74, 0
8, 64980, Note_on_c, 3, 73, 90
8, 65038, Note_on_c, 3, 73, 0
8, 65040, Note_on_c, 3, 71, 90
8, 65098, Note_on_c, 3, 71, 0
8, 65100, Note_on_c, 3, 69, 90
8, 65128, Note_on_c, 3, 69, 0
8, 65130, Note_on_c, 3, 68, 90
8, 65158, Note_on_c, 3, 68, 0
8, 65160, Note_on_c, 3, 69, 90
8, 65188, Note_on_c, 3, 69, 0
8, 65190, Note_on_c, 3, 71, 90
8, 65218, Note_on_c, 3, 71, 0
8, 65220, Note_on_c, 3, 68, 90
8, 65338, Note_on_c, 3, 68, 0
8, 65340, Note_on_c, 3, 69, 90
8, 65458, Note_on_c, 3, 69, 0
8, 65580, Note_on_c, 3, 76, 90
8, 65638, Note_on_c, 3, 76, 0
8, 65640, Note_on_c, 3, 76, 90
8, 65698, Note_on_c, 3, 76, 0
8, 65700, Note_on_c, 3, 76, 90
8, 65758, Note_on_c, 3, 76, 0
8, 65760, Note_on_c, 3, 76, 90
8, 65818, Note_on_c, 3, 76, 0
8, 65820, Note_on_c, 3, 76, 90
8, 65878, Note_on_c, 3, 76, 0
8, 65880, Note_on_c, 3, 74, 90
8, 65908, Note_on_c, 3, 74, 0
8, 65910, Note_on_c, 3, 73, 90
8, 65938, Note_on_c, 3, 73, 0
8, 65940, Note_on_c, 3, 71, 90
8, 65998, Note_on_c, 3, 71, 0
8, 66000, Note_on_c, 3, 69, 90
8, 66058, Note_on_c, 3, 69, 0
8, 66060, Note_on_c, 3, 68, 90
8, 66088, Note_on_c, 3, 68, 0
8, 66090, Note_on_c, 3, 66, 90
8, 66118, Note_on_c, 3, 66, 0
8, 66120, Note_on_c, 3, 64, 90
8, 66148, Note_on_c, 3, 64, 0
8, 66150, Note_on_c, 3, 66, 90
8, 66178, Note_on_c, 3, 66, 0
8, 66180, Note_on_c, 3, 68, 90
8, 66208, Note_on_c, 3, 68, 0
8, 66210, Note_on_c, 3, 66, 90
8, 66238, Note_on_c, 3, 66, 0
8, 66240, Note_on_c, 3, 68, 90
8, 66268, Note_on_c, 3, 68, 0
8, 66270, Note_on_c, 3, 69, 90
8, 66298, Note_on_c, 3, 69, 0
8, 66300, Note_on_c, 3, 71, 90
8, 66328, Note_on_c, 3, 71, 0
8, 66330, Note_on_c, 3, 66, 90
8, 66358, Note_on_c, 3, 66, 0
8, 66360, Note_on_c, 3, 68, 90
8, 66388, Note_on_c, 3, 68, 0
8, 66390, Note_on_c, 3, 70, 90
8, 66418, Note_on_c, 3, 70, 0
8, 66420, Note_on_c, 3, 71, 90
8, 66448, Note_on_c, 3, 71, 0
8, 66450, Note_on_c, 3, 70, 90
8, 66478, Note_on_c, 3, 70, 0
8, 66480, Note_on_c, 3, 71, 90
8, 66508, Note_on_c, 3, 71, 0
8, 66510, Note_on_c, 3, 73, 90
8, 66538, Note_on_c, 3, 73, 0
8, 66540, Note_on_c, 3, 74, 90
8, 66598, Note_on_c, 3, 74, 0
8, 66600, Note_on_c, 3, 78, 90
8, 66658, Note_on_c, 3, 78, 0
8, 66780, Note_on_c, 3, 78, 90
8, 66838, Note_on_c, 3, 78, 0
8, 66840, Note_on_c, 3, 78, 90
8, 66898, Note_on_c, 3, 78, 0
8, 66900, Note_on_c, 3, 78, 90
8, 66958, Note_on_c, 3, 78, 0
8, 66960, Note_on_c, 3, 78, 90
8, 67018, Note_on_c, 3, 78, 0
8, 67020, Note_on_c, 3, 78, 90
8, 67078, Note_on_c, 3, 78, 0
8, 67080, Note_on_c, 3, 76, 90
8, 67108, Note_on_c, 3, 76, 0
8, 67110, Note_on_c, 3, 74, 90
8, 67138, Note_on_c, 3, 74, 0
8, 67140, Note_on_c, 3, 73, 90
8, 67198, Note_on_c, 3, 73, 0
8, 67200, Note_on_c, 3, 71, 90
8, 67258, Note_on_c, 3, 71, 0
8, 67260, Note_on_c, 3, 69, 90
8, 67288, Note_on_c, 3, 69, 0
8, 67290, Note_on_c, 3, 68, 90
8, 67318, Note_on_c, 3, 68, 0
8, 67320, Note_on_c, 3, 66, 90
8, 67348, Note_on_c, 3, 66, 0
8, 67350, Note_on_c, 3, 68, 90
8, 67378, Note_on_c, 3, 68, 0
8, 67380, Note_on_c, 3, 69, 90
8, 67408, Note_on_c, 3, 69, 0
8, 67410, Note_on_c, 3, 68, 90
8, 67438, Note_on_c, 3, 68, 0
8, 67440, Note_on_c, 3, 69, 90
8, 67468, Note_on_c, 3, 69, 0
8, 67470, Note_on_c, 3, 71, 90
8, 67498, Note_on_c, 3, 71, 0
8, 67500, Note_on_c, 3, 73, 90
8, 67528, Note_on_c, 3, 73, 0
8, 67530, Note_on_c, 3, 68, 90
8, 67558, Note_on_c, 3, 68, 0
8, 67560, Note_on_c, 3, 69, 90
8, 67588, Note_on_c, 3, 69, 0
8, 67590, Note_on_c, 3, 71, 90
8, 67618, Note_on_c, 3, 71, 0
8, 67620, Note_on_c, 3, 73, 90
8, 67648, Note_on_c, 3, 73, 0
8, 67650, Note_on_c, 3, 71, 90
8, 67678, Note_on_c, 3, 71, 0
8, 67680, Note_on_c, 3, 73, 90
8, 67708, Note_on_c, 3, 73, 0
8, 67710, Note_on_c, 3, 74, 90
8, 67738, Note_on_c, 3, 74, 0
8, 67740, Note_on_c, 3, 68, 90
8, 67798, Note_on_c, 3, 68, 0
8, 67800, Note_on_c, 3, 68, 90
8, 67858, Note_on_c, 3, 68, 0
8, 67860, Note_on_c, 3, 73, 90
8, 67918, Note_on_c, 3, 73, 0
8, 67920, Note_on_c, 3, 73, 90
8, 67978, Note_on_c, 3, 73, 0
8, 67980, Note_on_c, 3, 73, 90
8, 68038, Note_on_c, 3, 73, 0
8, 68040, Note_on_c, 3, 71, 90
8, 68068, Note_on_c, 3, 71, 0
8, 68070, Note_on_c, 3, 69, 90
8, 68098, Note_on_c, 3, 69, 0
8, 68160, Note_on_c, 3, 73, 90
8, 68218, Note_on_c, 3, 73, 0
8, 68220, Note_on_c, 3, 73, 90
8, 68278, Note_on_c, 3, 73, 0
8, 68280, Note_on_c, 3, 66, 90
8, 68338, Note_on_c, 3, 66, 0
8, 68460, Note_on_c, 3, 71, 90
8, 68518, Note_on_c, 3, 71, 0
8, 68520, Note_on_c, 3, 71, 90
8, 68578, Note_on_c, 3, 71, 0
8, 68580, Note_on_c, 3, 71, 90
8, 68638, Note_on_c, 3, 71, 0
8, 68640, Note_on_c, 3, 71, 90
8, 68698, Note_on_c, 3, 71, 0
8, 68700, Note_on_c, 3, 71, 90
8, 68758, Note_on_c, 3, 71, 0
8, 68760, Note_on_c, 3, 69, 90
8, 68788, Note_on_c, 3, 69, 0
8, 68790, Note_on_c, 3, 68, 90
8, 68818, Note_on_c, 3, 68, 0
8, 68820, Note_on_c, 3, 66, 90
8, 68878, Note_on_c, 3, 66, 0
8, 68880, Note_on_c, 3, 64, 90
8, 68938, Note_on_c, 3, 64, 0
8, 68940, Note_on_c, 3, 62, 90
8, 68998, Note_on_c, 3, 62, 0
8, 69000, Note_on_c, 3, 64, 90
8, 69028, Note_on_c, 3, 64, 0
8, 69030, Note_on_c, 3, 66, 90
8, 69058, Note_on_c, 3, 66, 0
8, 69060, Note_on_c, 3, 67, 90
8, 69238, Note_on_c, 3, 67, 0
8, 69240, Note_on_c, 3, 66, 90
8, 69268, Note_on_c, 3, 66, 0
8, 69270, Note_on_c, 3, 64, 90
8, 69298, Note_on_c, 3, 64, 0
8, 69300, Note_on_c, 3, 76, 90
8, 69328, Note_on_c, 3, 76, 0
8, 69330, Note_on_c, 3, 73, 90
8, 69358, Note_on_c, 3, 73, 0
8, 69360, Note_on_c, 3, 74, 90
8, 69388, Note_on_c, 3, 74, 0
8, 69390, Note_on_c, 3, 76, 90
8, 69418, Note_on_c, 3, 76, 0
8, 69420, Note_on_c, 3, 78, 90
8, 69478, Note_on_c, 3, 78, 0
8, 69480, Note_on_c, 3, 78, 90
8, 69538, Note_on_c, 3, 78, 0
8, 69540, Note_on_c, 3, 78, 90
8, 69598, Note_on_c, 3, 78, 0
8, 69600, Note_on_c, 3, 78, 90
8, 69658, Note_on_c, 3, 78, 0
8, 69660, Note_on_c, 3, 78, 90
8, 69718, Note_on_c, 3, 78, 0
8, 69720, Note_on_c, 3, 76, 90
8, 69748, Note_on_c, 3, 76, 0
8, 69750, Note_on_c, 3, 74, 90
8, 69778, Note_on_c, 3, 74, 0
8, 69780, Note_on_c, 3, 73, 90
8, 69838, Note_on_c, 3, 73, 0
8, 69840, Note_on_c, 3, 71, 90
8, 69898, Note_on_c, 3, 71, 0
8, 69900, Note_on_c, 3, 69, 90
8, 69928, Note_on_c, 3, 69, 0
8, 69930, Note_on_c, 3, 68, 90
8, 69958, Note_on_c, 3, 68, 0
8, 69960, Note_on_c, 3, 66, 90
8, 69988, Note_on_c, 3, 66, 0
8, 69990, Note_on_c, 3, 68, 90
8, 70018, Note_on_c, 3, 68, 0
8, 70020, Note_on_c, 3, 69, 90
8, 70048, Note_on_c, 3, 69, 0
8, 70050, Note_on_c, 3, 66, 90
8, 70078, Note_on_c, 3, 66, 0
8, 70080, Note_on_c, 3, 68, 90
8, 70108, Note_on_c, 3, 68, 0
8, 70110, Note_on_c, 3, 69, 90
8, 70138, Note_on_c, 3, 69, 0
8, 70140, Note_on_c, 3, 63, 90
8, 70258, Note_on_c, 3, 63, 0
8, 70320, Note_on_c, 3, 73, 90
8, 70348, Note_on_c, 3, 73, 0
8, 70350, Note_on_c, 3, 72, 90
8, 70378, Note_on_c, 3, 72, 0
8, 70380, Note_on_c, 3, 76, 90
8, 70468, Note_on_c, 3, 76, 0
8, 70470, Note_on_c, 3, 75, 90
8, 70498, Note_on_c, 3, 75, 0
8, 70500, Note_on_c, 3, 76, 90
8, 70618, Note_on_c, 3, 76, 0
8, 70620, Note_on_c, 3, 73, 90
8, 70738, Note_on_c, 3, 73, 0
8, 70860, Note_on_c, 3, 77, 90
8, 70978, Note_on_c, 3, 77, 0
8, 71100, Note_on_c, 3, 80, 90
8, 71218, Note_on_c, 3, 80, 0
8, 71340, Note_on_c, 3, 77, 90
8, 71458, Note_on_c, 3, 77, 0
8, 71580, Note_on_c, 3, 73, 90
8, 71698, Note_on_c, 3, 73, 0
8, 71820, Note_on_c, 3, 77, 90
8, 71938, Note_on_c, 3, 77, 0
8, 72060, Note_on_c, 3, 80, 90
8, 72298, Note_on_c, 3, 80, 0
8, 72540, Note_on_c, 3, 80, 90
8, 72778, Note_on_c, 3, 80, 0
8, 72810, Note_on_c, 3, 68, 90
8, 72840, Note_on_c, 3, 68, 0
8, 72840, Note_on_c, 3, 69, 90
8, 72870, Note_on_c, 3, 69, 0
8, 72870, Note_on_c, 3, 71, 90
8, 72900, Note_on_c, 3, 71, 0
8, 72900, Note_on_c, 3, 73, 90
8, 72930, Note_on_c, 3, 73, 0
8, 72930, Note_on_c, 3, 73, 90
8, 72960, Note_on_c, 3, 73, 0
8, 72960, Note_on_c, 3, 75, 90
8, 72990, Note_on_c, 3, 75, 0
8, 72990, Note_on_c, 3, 77, 90
8, 73020, Note_on_c, 3, 77, 0
8, 73020, Note_on_c, 3, 78, 90
8, 73080, Note_on_c, 3, 78, 0
8, 73080, Note_on_c, 3, 78, 90
8, 73140, Note_on_c, 3, 78, 0
8, 73140, Note_on_c, 3, 78, 90
8, 73200, Note_on_c, 3, 78, 0
8, 73200, Note_on_c, 3, 78, 90
8, 73260, Note_on_c, 3, 78, 0
8, 73260, Note_on_c, 3, 78, 90
8, 73320, Note_on_c, 3, 78, 0
8, 73320, Note_on_c, 3, 77, 90
8, 73350, Note_on_c, 3, 77, 0
8, 73350, Note_on_c, 3, 75, 90
8, 73380, Note_on_c, 3, 75, 0
8, 73380, Note_on_c, 3, 73, 90
8, 73440, Note_on_c, 3, 73, 0
8, 73440, Note_on_c, 3, 71, 90
8, 73500, Note_on_c, 3, 71, 0
8, 73500, Note_on_c, 3, 69, 90
8, 73590, Note_on_c, 3, 69, 0
8, 73590, Note_on_c, 3, 71, 90
8, 73620, Note_on_c, 3, 71, 0
8, 73620, Note_on_c, 3, 68, 90
8, 73740, Note_on_c, 3, 68, 0
8, 73740, Note_on_c, 3, 66, 90
8, 73980, Note_on_c, 3, 66, 0
8, 91215, Control_c, 3, 0, 10
8, 91215, Program_c, 3, 73
8, 91260, Control_c, 3, 0, 0
8, 91260, Note_on_c, 3, 67, 100
8, 91377, Note_on_c, 3, 67, 0
8, 91380, Note_on_c, 3, 66, 100
8, 91437, Note_on_c, 3, 66, 0
8, 91440, Note_on_c, 3, 69, 100
8, 91497, Note_on_c, 3, 69, 0
8, 91500, Note_on_c, 3, 67, 100
8, 91557, Note_on_c, 3, 67, 0
8, 91560, Note_on_c, 3, 66, 100
8, 91617, Note_on_c, 3, 66, 0
8, 91620, Note_on_c, 3, 66, 100
8, 91677, Note_on_c, 3, 66, 0
8, 91680, Note_on_c, 3, 67, 100
8, 91737, Note_on_c, 3, 67, 0
8, 91740, Note_on_c, 3, 69, 100
8, 91797, Note_on_c, 3, 69, 0
8, 91800, Note_on_c, 3, 69, 100
8, 92038, Note_on_c, 3, 69, 0
8, 92040, Note_on_c, 3, 67, 100
8, 92097, Note_on_c, 3, 67, 0
8, 92100, Note_on_c, 3, 66, 100
8, 92157, Note_on_c, 3, 66, 0
8, 92160, Note_on_c, 3, 69, 100
8, 92217, Note_on_c, 3, 69, 0
8, 92220, Note_on_c, 3, 67, 100
8, 92277, Note_on_c, 3, 67, 0
8, 92280, Note_on_c, 3, 66, 100
8, 92337, Note_on_c, 3, 66, 0
8, 92340, Note_on_c, 3, 64, 100
8, 92397, Note_on_c, 3, 64, 0
8, 92400, Note_on_c, 3, 66, 100
8, 92457, Note_on_c, 3, 66, 0
8, 92460, Note_on_c, 3, 68, 100
8, 92517, Note_on_c, 3, 68, 0
8, 92520, Note_on_c, 3, 68, 100
8, 92760, Note_on_c, 3, 68, 0
8, 92760, Note_on_c, 3, 69, 100
8, 92817, Note_on_c, 3, 69, 0
8, 92820, Note_on_c, 3, 71, 100
8, 92877, Note_on_c, 3, 71, 0
8, 92880, Note_on_c, 3, 69, 100
8, 92937, Note_on_c, 3, 69, 0
8, 92940, Note_on_c, 3, 66, 100
8, 92997, Note_on_c, 3, 66, 0
8, 93000, Note_on_c, 3, 64, 100
8, 93057, Note_on_c, 3, 64, 0
8, 93060, Note_on_c, 3, 63, 100
8, 93177, Note_on_c, 3, 63, 0
8, 93180, Note_on_c, 3, 66, 100
8, 93237, Note_on_c, 3, 66, 0
8, 93240, Note_on_c, 3, 69, 100
8, 93357, Note_on_c, 3, 69, 0
8, 93360, Note_on_c, 3, 72, 100
8, 93417, Note_on_c, 3, 72, 0
8, 93420, Note_on_c, 3, 71, 100
8, 93477, Note_on_c, 3, 71, 0
8, 93480, Note_on_c, 3, 69, 100
8, 93537, Note_on_c, 3, 69, 0
8, 93540, Note_on_c, 3, 67, 100
8, 93597, Note_on_c, 3, 67, 0
8, 93600, Note_on_c, 3, 66, 100
8, 93657, Note_on_c, 3, 66, 0
8, 93660, Note_on_c, 3, 64, 100
8, 93717, Note_on_c, 3, 64, 0
8, 93720, Note_on_c, 3, 63, 100
8, 93777, Note_on_c, 3, 63, 0
8, 93780, Note_on_c, 3, 64, 100
8, 93897, Note_on_c, 3, 64, 0
8, 96300, Note_on_c, 3, 66, 100
8, 96417, Note_on_c, 3, 66, 0
8, 96420, Note_on_c, 3, 66, 100
8, 96477, Note_on_c, 3, 66, 0
8, 96480, Note_on_c, 3, 69, 100
8, 96537, Note_on_c, 3, 69, 0
8, 96540, Note_on_c, 3, 67, 100
8, 96597, Note_on_c, 3, 67, 0
8, 96600, Note_on_c, 3, 66, 100
8, 96657, Note_on_c, 3, 66, 0
8, 96660, Note_on_c, 3, 66, 100
8, 96717, Note_on_c, 3, 66, 0
8, 96720, Note_on_c, 3, 67, 100
8, 96777, Note_on_c, 3, 67, 0
8, 96780, Note_on_c, 3, 69, 100
8, 96837, Note_on_c, 3, 69, 0
8, 96840, Note_on_c, 3, 69, 100
8, 97080, Note_on_c, 3, 69, 0
8, 97080, Note_on_c, 3, 67, 100
8, 97137, Note_on_c, 3, 67, 0
8, 97140, Note_on_c, 3, 66, 100
8, 97197, Note_on_c, 3, 66, 0
8, 97200, Note_on_c, 3, 69, 100
8, 97257, Note_on_c, 3, 69, 0
8, 97260, Note_on_c, 3, 67, 100
8, 97317, Note_on_c, 3, 67, 0
8, 97320, Note_on_c, 3, 66, 100
8, 97377, Note_on_c, 3, 66, 0
8, 97380, Note_on_c, 3, 64, 100
8, 97437, Note_on_c, 3, 64, 0
8, 97440, Note_on_c, 3, 66, 100
8, 97497, Note_on_c, 3, 66, 0
8, 97500, Note_on_c, 3, 68, 100
8, 97560, Note_on_c, 3, 68, 0
8, 97560, Note_on_c, 3, 68, 100
8, 97800, Note_on_c, 3, 68, 0
8, 97800, Note_on_c, 3, 66, 100
8, 97857, Note_on_c, 3, 66, 0
8, 97860, Note_on_c, 3, 65, 100
8, 97917, Note_on_c, 3, 65, 0
8, 97920, Note_on_c, 3, 65, 100
8, 98037, Note_on_c, 3, 65, 0
8, 98040, Note_on_c, 3, 64, 100
8, 98157, Note_on_c, 3, 64, 0
8, 98160, Note_on_c, 3, 62, 100
8, 98217, Note_on_c, 3, 62, 0
8, 98220, Note_on_c, 3, 61, 100
8, 98220, Note_on_c, 3, 64, 100
8, 98277, Note_on_c, 3, 64, 0
8, 98277, Note_on_c, 3, 61, 0
8, 98280, Note_on_c, 3, 70, 100
8, 98337, Note_on_c, 3, 70, 0
8, 98340, Note_on_c, 3, 71, 100
8, 98397, Note_on_c, 3, 71, 0
8, 98400, Note_on_c, 3, 73, 100
8, 98457, Note_on_c, 3, 73, 0
8, 98460, Note_on_c, 3, 62, 100
8, 98517, Note_on_c, 3, 62, 0
8, 98520, Note_on_c, 3, 67, 100
8, 98577, Note_on_c, 3, 67, 0
8, 98580, Note_on_c, 3, 66, 100
8, 98637, Note_on_c, 3, 66, 0
8, 98640, Note_on_c, 3, 64, 100
8, 98697, Note_on_c, 3, 64, 0
8, 98700, Note_on_c, 3, 62, 100
8, 98757, Note_on_c, 3, 62, 0
8, 98760, Note_on_c, 3, 64, 100
8, 98817, Note_on_c, 3, 64, 0
8, 98820, Note_on_c, 3, 62, 100
8, 98937, Note_on_c, 3, 62, 0
8, 99180, Note_on_c, 3, 76, 100
8, 99237, Note_on_c, 3, 76, 0
8, 99240, Note_on_c, 3, 74, 100
8, 99297, Note_on_c, 3, 74, 0
8, 99300, Note_on_c, 3, 73, 100
8, 99357, Note_on_c, 3, 73, 0
8, 99360, Note_on_c, 3, 67, 100
8, 99417, Note_on_c, 3, 67, 0
8, 99420, Note_on_c, 3, 66, 100
8, 99477, Note_on_c, 3, 66, 0
8, 99480, Note_on_c, 3, 64, 100
8, 99537, Note_on_c, 3, 64, 0
8, 99540, Note_on_c, 3, 64, 100
8, 99657, Note_on_c, 3, 64, 0
8, 99900, Note_on_c, 3, 75, 100
8, 99957, Note_on_c, 3, 75, 0
8, 99960, Note_on_c, 3, 73, 100
8, 100017, Note_on_c, 3, 73, 0
8, 100020, Note_on_c, 3, 71, 100
8, 100077, Note_on_c, 3, 71, 0
8, 100080, Note_on_c, 3, 66, 100
8, 100137, Note_on_c, 3, 66, 0
8, 100140, Note_on_c, 3, 64, 100
8, 100197, Note_on_c, 3, 64, 0
8, 100200, Note_on_c, 3, 63, 100
8, 100257, Note_on_c, 3, 63, 0
8, 100260, Note_on_c, 3, 63, 100
8, 100317, Note_on_c, 3, 63, 0
8, 100320, Note_on_c, 3, 67, 100
8, 100377, Note_on_c, 3, 67, 0
8, 100380, Note_on_c, 3, 66, 100
8, 100437, Note_on_c, 3, 66, 0
8, 100440, Note_on_c, 3, 64, 100
8, 100557, Note_on_c, 3, 64, 0
8, 100560, Note_on_c, 3, 59, 100
8, 100617, Note_on_c, 3, 59, 0
8, 100620, Note_on_c, 3, 61, 100
8, 100737, Note_on_c, 3, 61, 0
8, 100920, Note_on_c, 3, 66, 100
8, 100977, Note_on_c, 3, 66, 0
8, 100980, Note_on_c, 3, 66, 100
8, 101037, Note_on_c, 3, 66, 0
8, 101040, Note_on_c, 3, 70, 100
8, 101097, Note_on_c, 3, 70, 0
8, 101100, Note_on_c, 3, 71, 100
8, 101157, Note_on_c, 3, 71, 0
8, 101160, Note_on_c, 3, 66, 100
8, 101337, Note_on_c, 3, 66, 0
8, 101340, Note_on_c, 3, 66, 100
8, 101457, Note_on_c, 3, 66, 0
8, 102360, Note_on_c, 3, 64, 100
8, 102417, Note_on_c, 3, 64, 0
8, 102420, Note_on_c, 3, 63, 100
8, 102477, Note_on_c, 3, 63, 0
8, 102480, Note_on_c, 3, 64, 100
8, 102537, Note_on_c, 3, 64, 0
8, 102540, Note_on_c, 3, 66, 100
8, 102657, Note_on_c, 3, 66, 0
8, 102660, Note_on_c, 3, 64, 100
8, 102717, Note_on_c, 3, 64, 0
8, 102720, Note_on_c, 3, 63, 100
8, 102777, Note_on_c, 3, 63, 0
8, 102780, Note_on_c, 3, 64, 100
8, 102837, Note_on_c, 3, 64, 0
8, 102840, Note_on_c, 3, 66, 100
8, 102897, Note_on_c, 3, 66, 0
8, 102900, Note_on_c, 3, 67, 100
8, 102957, Note_on_c, 3, 67, 0
8, 103500, Note_on_c, 3, 74, 100
8, 103617, Note_on_c, 3, 74, 0
8, 103620, Note_on_c, 3, 69, 100
8, 103677, Note_on_c, 3, 69, 0
8, 103680, Note_on_c, 3, 76, 100
8, 103737, Note_on_c, 3, 76, 0
8, 103740, Note_on_c, 3, 74, 100
8, 103797, Note_on_c, 3, 74, 0
8, 103800, Note_on_c, 3, 73, 100
8, 103857, Note_on_c, 3, 73, 0
8, 103860, Note_on_c, 3, 73, 100
8, 103917, Note_on_c, 3, 73, 0
8, 103920, Note_on_c, 3, 74, 100
8, 103977, Note_on_c, 3, 74, 0
8, 103980, Note_on_c, 3, 76, 100
8, 104037, Note_on_c, 3, 76, 0
8, 104040, Note_on_c, 3, 76, 100
8, 104640, Note_on_c, 3, 76, 0
8, 104640, Note_on_c, 3, 74, 100
8, 104697, Note_on_c, 3, 74, 0
8, 104700, Note_on_c, 3, 72, 100
8, 104757, Note_on_c, 3, 72, 0
8, 104760, Note_on_c, 3, 72, 100
8, 104817, Note_on_c, 3, 72, 0
8, 104820, Note_on_c, 3, 70, 100
8, 104877, Note_on_c, 3, 70, 0
8, 104880, Note_on_c, 3, 69, 100
8, 104937, Note_on_c, 3, 69, 0
8, 104940, Note_on_c, 3, 68, 100
8, 105297, Note_on_c, 3, 68, 0
8, 105300, Note_on_c, 3, 69, 100
8, 105357, Note_on_c, 3, 69, 0
8, 105360, Note_on_c, 3, 68, 100
8, 105417, Note_on_c, 3, 68, 0
8, 105420, Note_on_c, 3, 69, 100
8, 105477, Note_on_c, 3, 69, 0
8, 105660, Note_on_c, 3, 74, 100
8, 105717, Note_on_c, 3, 74, 0
8, 105720, Note_on_c, 3, 72, 100
8, 105777, Note_on_c, 3, 72, 0
8, 105780, Note_on_c, 3, 71, 100
8, 105837, Note_on_c, 3, 71, 0
8, 105840, Note_on_c, 3, 71, 100
8, 105897, Note_on_c, 3, 71, 0
8, 105900, Note_on_c, 3, 69, 100
8, 105957, Note_on_c, 3, 69, 0
8, 105960, Note_on_c, 3, 68, 100
8, 106017, Note_on_c, 3, 68, 0
8, 106020, Note_on_c, 3, 68, 100
8, 106137, Note_on_c, 3, 68, 0
8, 106380, Note_on_c, 3, 73, 100
8, 106437, Note_on_c, 3, 73, 0
8, 106440, Note_on_c, 3, 71, 100
8, 106497, Note_on_c, 3, 71, 0
8, 106500, Note_on_c, 3, 69, 100
8, 106557, Note_on_c, 3, 69, 0
8, 106560, Note_on_c, 3, 64, 100
8, 106617, Note_on_c, 3, 64, 0
8, 106620, Note_on_c, 3, 62, 100
8, 106677, Note_on_c, 3, 62, 0
8, 106680, Note_on_c, 3, 61, 100
8, 106797, Note_on_c, 3, 61, 0
8, 106800, Note_on_c, 3, 65, 100
8, 106857, Note_on_c, 3, 65, 0
8, 106860, Note_on_c, 3, 64, 100
8, 106917, Note_on_c, 3, 64, 0
8, 106920, Note_on_c, 3, 62, 100
8, 107097, Note_on_c, 3, 62, 0
8, 107100, Note_on_c, 3, 64, 100
8, 107217, Note_on_c, 3, 64, 0
8, 107400, Note_on_c, 3, 64, 100
8, 107457, Note_on_c, 3, 64, 0
8, 107460, Note_on_c, 3, 64, 100
8, 107517, Note_on_c, 3, 64, 0
8, 107520, Note_on_c, 3, 68, 100
8, 107577, Note_on_c, 3, 68, 0
8, 107580, Note_on_c, 3, 69, 100
8, 107637, Note_on_c, 3, 69, 0
8, 107640, Note_on_c, 3, 64, 100
8, 107817, Note_on_c, 3, 64, 0
8, 107820, Note_on_c, 3, 64, 100
8, 107937, Note_on_c, 3, 64, 0
8, 108840, Note_on_c, 3, 71, 100
8, 108897, Note_on_c, 3, 71, 0
8, 108900, Note_on_c, 3, 70, 100
8, 108957, Note_on_c, 3, 70, 0
8, 108960, Note_on_c, 3, 71, 100
8, 109017, Note_on_c, 3, 71, 0
8, 109020, Note_on_c, 3, 73, 100
8, 109137, Note_on_c, 3, 73, 0
8, 109140, Note_on_c, 3, 71, 100
8, 109197, Note_on_c, 3, 71, 0
8, 109200, Note_on_c, 3, 70, 100
8, 109257, Note_on_c, 3, 70, 0
8, 109260, Note_on_c, 3, 71, 100
8, 109317, Note_on_c, 3, 71, 0
8, 109320, Note_on_c, 3, 73, 100
8, 109377, Note_on_c, 3, 73, 0
8, 109380, Note_on_c, 3, 75, 100
8, 109437, Note_on_c, 3, 75, 0
8, 109440, Note_on_c, 3, 75, 100
8, 109497, Note_on_c, 3, 75, 0
8, 109500, Note_on_c, 3, 76, 100
8, 109557, Note_on_c, 3, 76, 0
8, 109560, Note_on_c, 3, 78, 100
8, 109617, Note_on_c, 3, 78, 0
8, 109620, Note_on_c, 3, 78, 100
8, 109737, Note_on_c, 3, 78, 0
8, 109980, Note_on_c, 3, 67, 100
8, 110037, Note_on_c, 3, 67, 0
8, 110040, Note_on_c, 3, 66, 100
8, 110097, Note_on_c, 3, 66, 0
8, 110100, Note_on_c, 3, 64, 100
8, 110157, Note_on_c, 3, 64, 0
8, 110160, Note_on_c, 3, 69, 100
8, 110217, Note_on_c, 3, 69, 0
8, 110220, Note_on_c, 3, 67, 100
8, 110277, Note_on_c, 3, 67, 0
8, 110280, Note_on_c, 3, 66, 100
8, 110337, Note_on_c, 3, 66, 0
8, 110340, Note_on_c, 3, 66, 100
8, 110397, Note_on_c, 3, 66, 0
8, 110400, Note_on_c, 3, 67, 100
8, 110457, Note_on_c, 3, 67, 0
8, 110460, Note_on_c, 3, 69, 100
8, 110517, Note_on_c, 3, 69, 0
8, 110520, Note_on_c, 3, 69, 100
8, 110760, Note_on_c, 3, 69, 0
8, 110760, Note_on_c, 3, 67, 100
8, 110817, Note_on_c, 3, 67, 0
8, 110820, Note_on_c, 3, 66, 100
8, 110877, Note_on_c, 3, 66, 0
8, 110880, Note_on_c, 3, 69, 100
8, 110940, Note_on_c, 3, 69, 0
8, 110940, Note_on_c, 3, 67, 100
8, 110997, Note_on_c, 3, 67, 0
8, 111000, Note_on_c, 3, 66, 100
8, 111057, Note_on_c, 3, 66, 0
8, 111060, Note_on_c, 3, 64, 100
8, 111117, Note_on_c, 3, 64, 0
8, 111120, Note_on_c, 3, 66, 100
8, 111177, Note_on_c, 3, 66, 0
8, 111180, Note_on_c, 3, 68, 100
8, 111237, Note_on_c, 3, 68, 0
8, 111240, Note_on_c, 3, 68, 100
8, 111480, Note_on_c, 3, 68, 0
8, 111480, Note_on_c, 3, 69, 100
8, 111537, Note_on_c, 3, 69, 0
8, 111540, Note_on_c, 3, 62, 100
8, 111597, Note_on_c, 3, 62, 0
8, 111600, Note_on_c, 3, 67, 100
8, 111657, Note_on_c, 3, 67, 0
8, 111660, Note_on_c, 3, 66, 100
8, 111837, Note_on_c, 3, 66, 0
8, 111840, Note_on_c, 3, 64, 100
8, 111897, Note_on_c, 3, 64, 0
8, 111900, Note_on_c, 3, 63, 100
8, 111957, Note_on_c, 3, 63, 0
8, 111960, Note_on_c, 3, 71, 100
8, 112200, Note_on_c, 3, 71, 0
8, 112200, Note_on_c, 3, 69, 100
8, 112260, Note_on_c, 3, 69, 0
8, 112260, Note_on_c, 3, 67, 100
8, 112317, Note_on_c, 3, 67, 0
8, 112320, Note_on_c, 3, 66, 100
8, 112377, Note_on_c, 3, 66, 0
8, 112380, Note_on_c, 3, 64, 100
8, 112437, Note_on_c, 3, 64, 0
8, 112440, Note_on_c, 3, 63, 100
8, 112497, Note_on_c, 3, 63, 0
8, 112500, Note_on_c, 3, 67, 100
8, 112617, Note_on_c, 3, 67, 0
8, 113580, Note_on_c, 3, 67, 100
8, 113697, Note_on_c, 3, 67, 0
8, 113700, Note_on_c, 3, 66, 100
8, 113757, Note_on_c, 3, 66, 0
8, 113760, Note_on_c, 3, 69, 100
8, 113817, Note_on_c, 3, 69, 0
8, 113820, Note_on_c, 3, 67, 100
8, 113877, Note_on_c, 3, 67, 0
8, 113880, Note_on_c, 3, 66, 100
8, 113937, Note_on_c, 3, 66, 0
8, 113940, Note_on_c, 3, 66, 100
8, 113997, Note_on_c, 3, 66, 0
8, 114000, Note_on_c, 3, 67, 100
8, 114057, Note_on_c, 3, 67, 0
8, 114060, Note_on_c, 3, 69, 100
8, 114117, Note_on_c, 3, 69, 0
8, 114120, Note_on_c, 3, 69, 100
8, 114300, Note_on_c, 3, 69, 0
8, 114360, Note_on_c, 3, 67, 100
8, 114417, Note_on_c, 3, 67, 0
8, 114420, Note_on_c, 3, 66, 100
8, 114477, Note_on_c, 3, 66, 0
8, 114480, Note_on_c, 3, 69, 100
8, 114537, Note_on_c, 3, 69, 0
8, 114540, Note_on_c, 3, 67, 100
8, 114597, Note_on_c, 3, 67, 0
8, 114600, Note_on_c, 3, 66, 100
8, 114657, Note_on_c, 3, 66, 0
8, 114660, Note_on_c, 3, 64, 100
8, 114717, Note_on_c, 3, 64, 0
8, 114720, Note_on_c, 3, 66, 100
8, 114777, Note_on_c, 3, 66, 0
8, 114780, Note_on_c, 3, 68, 100
8, 114840, Note_on_c, 3, 68, 0
8, 114840, Note_on_c, 3, 68, 100
8, 115080, Note_on_c, 3, 68, 0
8, 115080, Note_on_c, 3, 69, 100
8, 115137, Note_on_c, 3, 69, 0
8, 115140, Note_on_c, 3, 71, 100
8, 115197, Note_on_c, 3, 71, 0
8, 115200, Note_on_c, 3, 69, 100
8, 115257, Note_on_c, 3, 69, 0
8, 115260, Note_on_c, 3, 66, 100
8, 115317, Note_on_c, 3, 66, 0
8, 115320, Note_on_c, 3, 64, 100
8, 115377, Note_on_c, 3, 64, 0
8, 115380, Note_on_c, 3, 63, 100
8, 115497, Note_on_c, 3, 63, 0
8, 115500, Note_on_c, 3, 66, 100
8, 115557, Note_on_c, 3, 66, 0
8, 115560, Note_on_c, 3, 69, 100
8, 115677, Note_on_c, 3, 69, 0
8, 115680, Note_on_c, 3, 72, 100
8, 115737, Note_on_c, 3, 72, 0
8, 115740, Note_on_c, 3, 71, 100
8, 115797, Note_on_c, 3, 71, 0
8, 115800, Note_on_c, 3, 69, 100
8, 115857, Note_on_c, 3, 69, 0
8, 115860, Note_on_c, 3, 67, 100
8, 115917, Note_on_c, 3, 67, 0
8, 115920, Note_on_c, 3, 66, 100
8, 115977, Note_on_c, 3, 66, 0
8, 115980, Note_on_c, 3, 64, 100
8, 116037, Note_on_c, 3, 64, 0
8, 116040, Note_on_c, 3, 63, 100
8, 116097, Note_on_c, 3, 63, 0
8, 116100, Note_on_c, 3, 64, 100
8, 116337, Note_on_c, 3, 64, 0
8, 116340, Control_c, 3, 0, 10
8, 116340, Control_c, 3, 0, 10
8, 116340, Control_c, 3, 0, 10
8, 116340, Control_c, 3, 0, 10
8, 116340, Control_c, 3, 0, 10
8, 116340, Program_c, 3, 68
8, 117180, Control_c, 3, 0, 0
8, 117480, Note_on_c, 3, 74, 100
8, 117520, Note_on_c, 3, 74, 0
8, 117540, Note_on_c, 3, 71, 100
8, 117580, Note_on_c, 3, 71, 0
8, 117600, Note_on_c, 3, 74, 100
8, 117640, Note_on_c, 3, 74, 0
8, 117660, Note_on_c, 3, 67, 100
8, 117720, Note_on_c, 3, 67, 0
8, 117750, Note_on_c, 3, 67, 100
8, 117770, Note_on_c, 3, 67, 0
8, 117780, Note_on_c, 3, 67, 100
8, 117860, Note_on_c, 3, 67, 0
8, 117960, Note_on_c, 3, 74, 100
8, 118000, Note_on_c, 3, 74, 0
8, 118020, Note_on_c, 3, 71, 100
8, 118060, Note_on_c, 3, 71, 0
8, 118080, Note_on_c, 3, 67, 100
8, 118120, Note_on_c, 3, 67, 0
8, 118140, Note_on_c, 3, 72, 100
8, 118200, Note_on_c, 3, 72, 0
8, 118230, Note_on_c, 3, 72, 100
8, 118250, Note_on_c, 3, 72, 0
8, 118260, Note_on_c, 3, 72, 100
8, 118340, Note_on_c, 3, 72, 0
8, 119400, Note_on_c, 3, 81, 100
8, 119440, Note_on_c, 3, 81, 0
8, 119460, Note_on_c, 3, 74, 100
8, 119500, Note_on_c, 3, 74, 0
8, 119520, Note_on_c, 3, 81, 100
8, 119560, Note_on_c, 3, 81, 0
8, 119580, Note_on_c, 3, 74, 100
8, 119640, Note_on_c, 3, 74, 0
8, 119670, Note_on_c, 3, 74, 100
8, 119690, Note_on_c, 3, 74, 0
8, 119700, Note_on_c, 3, 74, 100
8, 119780, Note_on_c, 3, 74, 0
8, 119880, Note_on_c, 3, 81, 100
8, 119920, Note_on_c, 3, 81, 0
8, 119940, Note_on_c, 3, 78, 100
8, 119980, Note_on_c, 3, 78, 0
8, 120000, Note_on_c, 3, 74, 100
8, 120040, Note_on_c, 3, 74, 0
8, 120060, Note_on_c, 3, 79, 100
8, 120120, Note_on_c, 3, 79, 0
8, 120150, Note_on_c, 3, 79, 100
8, 120170, Note_on_c, 3, 79, 0
8, 120180, Note_on_c, 3, 79, 100
8, 120260, Note_on_c, 3, 79, 0
8, 121320, Note_on_c, 3, 74, 100
8, 121360, Note_on_c, 3, 74, 0
8, 121380, Note_on_c, 3, 71, 100
8, 121420, Note_on_c, 3, 71, 0
8, 121440, Note_on_c, 3, 74, 100
8, 121480, Note_on_c, 3, 74, 0
8, 121500, Note_on_c, 3, 67, 100
8, 121560, Note_on_c, 3, 67, 0
8, 121590, Note_on_c, 3, 67, 100
8, 121610, Note_on_c, 3, 67, 0
8, 121620, Note_on_c, 3, 67, 100
8, 121700, Note_on_c, 3, 67, 0
8, 121800, Note_on_c, 3, 74, 100
8, 121840, Note_on_c, 3, 74, 0
8, 121860, Note_on_c, 3, 71, 100
8, 121900, Note_on_c, 3, 71, 0
8, 121920, Note_on_c, 3, 67, 100
8, 121960, Note_on_c, 3, 67, 0
8, 121980, Note_on_c, 3, 72, 100
8, 122040, Note_on_c, 3, 72, 0
8, 122070, Note_on_c, 3, 72, 100
8, 122090, Note_on_c, 3, 72, 0
8, 122100, Note_on_c, 3, 72, 100
8, 122180, Note_on_c, 3, 72, 0
8, 123240, Note_on_c, 3, 81, 100
8, 123280, Note_on_c, 3, 81, 0
8, 123300, Note_on_c, 3, 74, 100
8, 123340, Note_on_c, 3, 74, 0
8, 123360, Note_on_c, 3, 81, 100
8, 123400, Note_on_c, 3, 81, 0
8, 123420, Note_on_c, 3, 74, 100
8, 123480, Note_on_c, 3, 74, 0
8, 123510, Note_on_c, 3, 74, 100
8, 123530, Note_on_c, 3, 74, 0
8, 123540, Note_on_c, 3, 74, 100
8, 123620, Note_on_c, 3, 74, 0
8, 123720, Note_on_c, 3, 81, 100
8, 123760, Note_on_c, 3, 81, 0
8, 123780, Note_on_c, 3, 78, 100
8, 123820, Note_on_c, 3, 78, 0
8, 123840, Note_on_c, 3, 74, 100
8, 123880, Note_on_c, 3, 74, 0
8, 123900, Note_on_c, 3, 79, 100
8, 123960, Note_on_c, 3, 79, 0
8, 123990, Note_on_c, 3, 79, 100
8, 124010, Note_on_c, 3, 79, 0
8, 124020, Note_on_c, 3, 79, 100
8, 124100, Note_on_c, 3, 79, 0
8, 125160, Note_on_c, 3, 76, 100
8, 125200, Note_on_c, 3, 76, 0
8, 125220, Note_on_c, 3, 73, 100
8, 125260, Note_on_c, 3, 73, 0
8, 125280, Note_on_c, 3, 76, 100
8, 125320, Note_on_c, 3, 76, 0
8, 125340, Note_on_c, 3, 69, 100
8, 125400, Note_on_c, 3, 69, 0
8, 125430, Note_on_c, 3, 69, 100
8, 125450, Note_on_c, 3, 69, 0
8, 125460, Note_on_c, 3, 69, 100
8, 125540, Note_on_c, 3, 69, 0
8, 125640, Note_on_c, 3, 76, 100
8, 125680, Note_on_c, 3, 76, 0
8, 125700, Note_on_c, 3, 73, 100
8, 125740, Note_on_c, 3, 73, 0
8, 125760, Note_on_c, 3, 69, 100
8, 125800, Note_on_c, 3, 69, 0
8, 125820, Note_on_c, 3, 74, 100
8, 125880, Note_on_c, 3, 74, 0
8, 125910, Note_on_c, 3, 74, 100
8, 125930, Note_on_c, 3, 74, 0
8, 125940, Note_on_c, 3, 74, 100
8, 126020, Note_on_c, 3, 74, 0
8, 126840, Note_on_c, 3, 62, 100
8, 126880, Note_on_c, 3, 62, 0
8, 126900, Note_on_c, 3, 66, 100
8, 126940, Note_on_c, 3, 66, 0
8, 126960, Note_on_c, 3, 62, 100
8, 127000, Note_on_c, 3, 62, 0
8, 127020, Note_on_c, 3, 69, 100
8, 127080, Note_on_c, 3, 69, 0
8, 127110, Note_on_c, 3, 69, 100
8, 127130, Note_on_c, 3, 69, 0
8, 127140, Note_on_c, 3, 69, 100
8, 127220, Note_on_c, 3, 69, 0
8, 127320, Note_on_c, 3, 67, 100
8, 127360, Note_on_c, 3, 67, 0
8, 127380, Note_on_c, 3, 71, 100
8, 127420, Note_on_c, 3, 71, 0
8, 127440, Note_on_c, 3, 74, 100
8, 127480, Note_on_c, 3, 74, 0
8, 127500, Note_on_c, 3, 74, 100
8, 127560, Note_on_c, 3, 74, 0
8, 127590, Note_on_c, 3, 74, 100
8, 127610, Note_on_c, 3, 74, 0
8, 127620, Note_on_c, 3, 74, 100
8, 127700, Note_on_c, 3, 74, 0
8, 127800, Note_on_c, 3, 62, 100
8, 127840, Note_on_c, 3, 62, 0
8, 127860, Note_on_c, 3, 74, 100
8, 127980, Note_on_c, 3, 74, 0
8, 128040, Note_on_c, 3, 76, 100
8, 128060, Note_on_c, 3, 76, 0
8, 128070, Note_on_c, 3, 74, 100
8, 128090, Note_on_c, 3, 74, 0
8, 128100, Note_on_c, 3, 73, 100
8, 128180, Note_on_c, 3, 73, 0
8, 128220, Note_on_c, 3, 74, 100
8, 128260, Note_on_c, 3, 74, 0
8, 128280, Note_on_c, 3, 69, 100
8, 128320, Note_on_c, 3, 69, 0
8, 128340, Note_on_c, 3, 71, 100
8, 128360, Note_on_c, 3, 71, 0
8, 128370, Note_on_c, 3, 73, 100
8, 128390, Note_on_c, 3, 73, 0
8, 128400, Note_on_c, 3, 71, 100
8, 128420, Note_on_c, 3, 71, 0
8, 128430, Note_on_c, 3, 73, 100
8, 128450, Note_on_c, 3, 73, 0
8, 128460, Note_on_c, 3, 74, 100
8, 128480, Note_on_c, 3, 74, 0
8, 128490, Note_on_c, 3, 76, 100
8, 128510, Note_on_c, 3, 76, 0
8, 128520, Note_on_c, 3, 78, 100
8, 128540, Note_on_c, 3, 78, 0
8, 128550, Note_on_c, 3, 74, 100
8, 128570, Note_on_c, 3, 74, 0
8, 128580, Note_on_c, 3, 71, 100
8, 128600, Note_on_c, 3, 71, 0
8, 128610, Note_on_c, 3, 73, 100
8, 128630, Note_on_c, 3, 73, 0
8, 128640, Note_on_c, 3, 74, 100
8, 128660, Note_on_c, 3, 74, 0
8, 128670, Note_on_c, 3, 71, 100
8, 128690, Note_on_c, 3, 71, 0
8, 128700, Note_on_c, 3, 73, 100
8, 128740, Note_on_c, 3, 73, 0
8, 128760, Note_on_c, 3, 69, 100
8, 128780, Note_on_c, 3, 69, 0
8, 128790, Note_on_c, 3, 73, 100
8, 128810, Note_on_c, 3, 73, 0
8, 128820, Note_on_c, 3, 75, 100
8, 128860, Note_on_c, 3, 75, 0
8, 128880, Note_on_c, 3, 69, 100
8, 128900, Note_on_c, 3, 69, 0
8, 128910, Note_on_c, 3, 75, 100
8, 128930, Note_on_c, 3, 75, 0
8, 128940, Note_on_c, 3, 76, 100
8, 128980, Note_on_c, 3, 76, 0
8, 129120, Note_on_c, 3, 76, 100
8, 129160, Note_on_c, 3, 76, 0
8, 129180, Note_on_c, 3, 74, 100
8, 129200, Note_on_c, 3, 74, 0
8, 129210, Note_on_c, 3, 76, 100
8, 129230, Note_on_c, 3, 76, 0
8, 129240, Note_on_c, 3, 78, 100
8, 129260, Note_on_c, 3, 78, 0
8, 129270, Note_on_c, 3, 74, 100
8, 129290, Note_on_c, 3, 74, 0
8, 129300, Note_on_c, 3, 79, 100
8, 129340, Note_on_c, 3, 79, 0
8, 129360, Note_on_c, 3, 71, 100
8, 129400, Note_on_c, 3, 71, 0
8, 129720, Note_on_c, 3, 76, 100
8, 129760, Note_on_c, 3, 76, 0
8, 129780, Note_on_c, 3, 73, 100
8, 129820, Note_on_c, 3, 73, 0
8, 129840, Note_on_c, 3, 69, 100
8, 129880, Note_on_c, 3, 69, 0
8, 129960, Note_on_c, 3, 76, 100
8, 130000, Note_on_c, 3, 76, 0
8, 130020, Note_on_c, 3, 73, 100
8, 130060, Note_on_c, 3, 73, 0
8, 130080, Note_on_c, 3, 69, 100
8, 130120, Note_on_c, 3, 69, 0
8, 130200, Note_on_c, 3, 81, 100
8, 130240, Note_on_c, 3, 81, 0
8, 130260, Note_on_c, 3, 76, 100
8, 130300, Note_on_c, 3, 76, 0
8, 130320, Note_on_c, 3, 73, 100
8, 130360, Note_on_c, 3, 73, 0
8, 130380, Note_on_c, 3, 74, 100
8, 130420, Note_on_c, 3, 74, 0
8, 130440, Note_on_c, 3, 74, 100
8, 130480, Note_on_c, 3, 74, 0
8, 130740, Note_on_c, 3, 74, 100
8, 130918, Note_on_c, 3, 74, 0
8, 130920, Note_on_c, 3, 76, 100
8, 130978, Note_on_c, 3, 76, 0
8, 130980, Note_on_c, 3, 78, 100
8, 131038, Note_on_c, 3, 78, 0
8, 131040, Note_on_c, 3, 74, 100
8, 131098, Note_on_c, 3, 74, 0
8, 131100, Note_on_c, 3, 71, 100
8, 131338, Note_on_c, 3, 71, 0
8, 131340, Note_on_c, 3, 71, 100
8, 131578, Note_on_c, 3, 71, 0
8, 131580, Note_on_c, 3, 71, 100
8, 131818, Note_on_c, 3, 71, 0
8, 131820, Note_on_c, 3, 70, 100
8, 132058, Note_on_c, 3, 70, 0
8, 132060, Note_on_c, 3, 71, 100
8, 132178, Note_on_c, 3, 71, 0
8, 132180, Note_on_c, 3, 74, 100
8, 132418, Note_on_c, 3, 74, 0
8, 132420, Note_on_c, 3, 76, 100
8, 132538, Note_on_c, 3, 76, 0
8, 132540, Note_on_c, 3, 73, 100
8, 132778, Note_on_c, 3, 73, 0
8, 132780, Note_on_c, 3, 74, 100
8, 133018, Note_on_c, 3, 74, 0
8, 133020, Note_on_c, 3, 74, 100
8, 133258, Note_on_c, 3, 74, 0
8, 133260, Note_on_c, 3, 73, 100
8, 133498, Note_on_c, 3, 73, 0
8, 133500, Note_on_c, 3, 74, 100
8, 133978, Note_on_c, 3, 74, 0
8, 159240, Control_c, 3, 0, 10
8, 159240, Program_c, 3, 73
8, 159300, Control_c, 3, 0, 0
8, 159300, Note_on_c, 3, 68, 100
8, 159330, Note_on_c, 3, 68, 0
8, 159330, Note_on_c, 3, 69, 100
8, 159360, Note_on_c, 3, 69, 0
8, 159360, Note_on_c, 3, 71, 100
8, 159450, Note_on_c, 3, 71, 0
8, 159450, Note_on_c, 3, 73, 100
8, 159480, Note_on_c, 3, 73, 0
8, 159480, Note_on_c, 3, 69, 100
8, 159540, Note_on_c, 3, 69, 0
8, 159540, Note_on_c, 3, 71, 100
8, 159570, Note_on_c, 3, 71, 0
8, 159570, Note_on_c, 3, 69, 100
8, 159600, Note_on_c, 3, 69, 0
8, 159600, Note_on_c, 3, 68, 100
8, 159690, Note_on_c, 3, 68, 0
8, 159690, Note_on_c, 3, 69, 100
8, 159720, Note_on_c, 3, 69, 0
8, 159720, Note_on_c, 3, 66, 100
8, 159780, Note_on_c, 3, 66, 0
8, 159780, Note_on_c, 3, 68, 100
8, 159840, Note_on_c, 3, 68, 0
8, 159840, Note_on_c, 3, 76, 100
8, 159870, Note_on_c, 3, 76, 0
8, 159870, Note_on_c, 3, 78, 100
8, 159900, Note_on_c, 3, 78, 0
8, 159900, Note_on_c, 3, 80, 100
8, 159930, Note_on_c, 3, 80, 0
8, 159930, Note_on_c, 3, 83, 100
8, 159960, Note_on_c, 3, 83, 0
8, 159960, Note_on_c, 3, 81, 100
8, 160020, Note_on_c, 3, 81, 0
8, 160020, Note_on_c, 3, 80, 100
8, 160027, Note_on_c, 3, 80, 0
8, 160027, Note_on_c, 3, 81, 100
8, 160034, Note_on_c, 3, 81, 0
8, 160035, Note_on_c, 3, 80, 100
8, 160042, Note_on_c, 3, 80, 0
8, 160042, Note_on_c, 3, 81, 100
8, 160049, Note_on_c, 3, 81, 0
8, 160050, Note_on_c, 3, 80, 100
8, 160060, Note_on_c, 3, 80, 0
8, 160060, Note_on_c, 3, 81, 100
8, 160070, Note_on_c, 3, 81, 0
8, 160070, Note_on_c, 3, 80, 100
8, 160080, Note_on_c, 3, 80, 0
8, 160080, Note_on_c, 3, 78, 100
8, 160140, Note_on_c, 3, 78, 0
8, 160260, Note_on_c, 3, 69, 100
8, 160290, Note_on_c, 3, 69, 0
8, 160290, Note_on_c, 3, 71, 100
8, 160320, Note_on_c, 3, 71, 0
8, 160320, Note_on_c, 3, 73, 100
8, 160410, Note_on_c, 3, 73, 0
8, 160410, Note_on_c, 3, 74, 100
8, 160440, Note_on_c, 3, 74, 0
8, 160440, Note_on_c, 3, 71, 100
8, 160500, Note_on_c, 3, 71, 0
8, 160500, Note_on_c, 3, 73, 100
8, 160530, Note_on_c, 3, 73, 0
8, 160530, Note_on_c, 3, 71, 100
8, 160560, Note_on_c, 3, 71, 0
8, 160560, Note_on_c, 3, 69, 100
8, 160650, Note_on_c, 3, 69, 0
8, 160650, Note_on_c, 3, 71, 100
8, 160680, Note_on_c, 3, 71, 0
8, 160680, Note_on_c, 3, 68, 100
8, 160740, Note_on_c, 3, 68, 0
8, 160740, Note_on_c, 3, 69, 100
8, 160800, Note_on_c, 3, 69, 0
8, 160800, Note_on_c, 3, 78, 100
8, 160830, Note_on_c, 3, 78, 0
8, 160830, Note_on_c, 3, 80, 100
8, 160860, Note_on_c, 3, 80, 0
8, 160860, Note_on_c, 3, 81, 100
8, 160890, Note_on_c, 3, 81, 0
8, 160890, Note_on_c, 3, 78, 100
8, 160920, Note_on_c, 3, 78, 0
8, 160920, Note_on_c, 3, 80, 100
8, 160980, Note_on_c, 3, 80, 0
8, 160980, Note_on_c, 3, 78, 100
8, 160987, Note_on_c, 3, 78, 0
8, 160987, Note_on_c, 3, 80, 100
8, 160994, Note_on_c, 3, 80, 0
8, 160995, Note_on_c, 3, 78, 100
8, 161002, Note_on_c, 3, 78, 0
8, 161002, Note_on_c, 3, 80, 100
8, 161009, Note_on_c, 3, 80, 0
8, 161010, Note_on_c, 3, 78, 100
8, 161020, Note_on_c, 3, 78, 0
8, 161020, Note_on_c, 3, 80, 100
8, 161030, Note_on_c, 3, 80, 0
8, 161030, Note_on_c, 3, 78, 100
8, 161040, Note_on_c, 3, 78, 0
8, 161040, Note_on_c, 3, 76, 100
8, 161100, Note_on_c, 3, 76, 0
8, 161340, Note_on_c, 3, 83, 100
8, 161490, Note_on_c, 3, 83, 0
8, 161490, Note_on_c, 3, 86, 100
8, 161520, Note_on_c, 3, 86, 0
8, 161520, Note_on_c, 3, 85, 100
8, 161550, Note_on_c, 3, 85, 0
8, 161550, Note_on_c, 3, 83, 100
8, 161580, Note_on_c, 3, 83, 0
8, 161580, Note_on_c, 3, 81, 100
8, 161610, Note_on_c, 3, 81, 0
8, 161610, Note_on_c, 3, 80, 100
8, 161640, Note_on_c, 3, 80, 0
8, 161640, Note_on_c, 3, 78, 100
8, 161670, Note_on_c, 3, 78, 0
8, 161670, Note_on_c, 3, 76, 100
8, 161700, Note_on_c, 3, 76, 0
8, 161700, Note_on_c, 3, 75, 100
8, 161760, Note_on_c, 3, 75, 0
8, 161760, Note_on_c, 3, 71, 100
8, 161820, Note_on_c, 3, 71, 0
8, 161820, Note_on_c, 3, 78, 100
8, 161970, Note_on_c, 3, 78, 0
8, 161970, Note_on_c, 3, 81, 100
8, 162000, Note_on_c, 3, 81, 0
8, 162000, Note_on_c, 3, 80, 100
8, 162030, Note_on_c, 3, 80, 0
8, 162030, Note_on_c, 3, 78, 100
8, 162060, Note_on_c, 3, 78, 0
8, 162060, Note_on_c, 3, 76, 100
8, 162090, Note_on_c, 3, 76, 0
8, 162090, Note_on_c, 3, 75, 100
8, 162120, Note_on_c, 3, 75, 0
8, 162120, Note_on_c, 3, 73, 100
8, 162150, Note_on_c, 3, 73, 0
8, 162150, Note_on_c, 3, 71, 100
8, 162180, Note_on_c, 3, 71, 0
8, 162180, Note_on_c, 3, 73, 100
8, 162210, Note_on_c, 3, 73, 0
8, 162210, Note_on_c, 3, 75, 100
8, 162240, Note_on_c, 3, 75, 0
8, 162240, Note_on_c, 3, 76, 100
8, 162270, Note_on_c, 3, 76, 0
8, 162270, Note_on_c, 3, 78, 100
8, 162300, Note_on_c, 3, 78, 0
8, 162300, Note_on_c, 3, 75, 100
8, 162307, Note_on_c, 3, 75, 0
8, 162307, Note_on_c, 3, 76, 100
8, 162314, Note_on_c, 3, 76, 0
8, 162315, Note_on_c, 3, 75, 100
8, 162322, Note_on_c, 3, 75, 0
8, 162322, Note_on_c, 3, 76, 100
8, 162329, Note_on_c, 3, 76, 0
8, 162330, Note_on_c, 3, 75, 100
8, 162337, Note_on_c, 3, 75, 0
8, 162337, Note_on_c, 3, 76, 100
8, 162344, Note_on_c, 3, 76, 0
8, 162345, Note_on_c, 3, 75, 100
8, 162352, Note_on_c, 3, 75, 0
8, 162352, Note_on_c, 3, 76, 100
8, 162359, Note_on_c, 3, 76, 0
8, 162360, Note_on_c, 3, 75, 100
8, 162370, Note_on_c, 3, 75, 0
8, 162370, Note_on_c, 3, 76, 100
8, 162380, Note_on_c, 3, 76, 0
8, 162380, Note_on_c, 3, 75, 100
8, 162390, Note_on_c, 3, 75, 0
8, 162390, Note_on_c, 3, 73, 100
8, 162405, Note_on_c, 3, 73, 0
8, 162405, Note_on_c, 3, 75, 100
8, 162420, Note_on_c, 3, 75, 0
8, 162420, Note_on_c, 3, 76, 100
8, 162450, Note_on_c, 3, 76, 0
8, 162450, Note_on_c, 3, 75, 100
8, 162480, Note_on_c, 3, 75, 0
8, 162480, Note_on_c, 3, 76, 100
8, 162510, Note_on_c, 3, 76, 0
8, 162510, Note_on_c, 3, 78, 100
8, 162540, Note_on_c, 3, 78, 0
8, 162540, Note_on_c, 3, 80, 100
8, 162570, Note_on_c, 3, 80, 0
8, 162570, Note_on_c, 3, 76, 100
8, 162600, Note_on_c, 3, 76, 0
8, 162600, Note_on_c, 3, 78, 100
8, 162660, Note_on_c, 3, 78, 0
8, 162660, Note_on_c, 3, 76, 100
8, 162720, Note_on_c, 3, 76, 0
8, 162900, Note_on_c, 3, 68, 100
8, 162930, Note_on_c, 3, 68, 0
8, 162930, Note_on_c, 3, 69, 100
8, 162960, Note_on_c, 3, 69, 0
8, 162960, Note_on_c, 3, 71, 100
8, 163050, Note_on_c, 3, 71, 0
8, 163050, Note_on_c, 3, 73, 100
8, 163080, Note_on_c, 3, 73, 0
8, 163080, Note_on_c, 3, 69, 100
8, 163140, Note_on_c, 3, 69, 0
8, 163140, Note_on_c, 3, 68, 100
8, 163170, Note_on_c, 3, 68, 0
8, 163170, Note_on_c, 3, 69, 100
8, 163200, Note_on_c, 3, 69, 0
8, 163200, Note_on_c, 3, 71, 100
8, 163230, Note_on_c, 3, 71, 0
8, 163230, Note_on_c, 3, 73, 100
8, 163260, Note_on_c, 3, 73, 0
8, 163260, Note_on_c, 3, 74, 100
8, 163320, Note_on_c, 3, 74, 0
8, 163320, Note_on_c, 3, 65, 100
8, 163380, Note_on_c, 3, 65, 0
8, 163380, Note_on_c, 3, 73, 100
8, 163408, Note_on_c, 3, 73, 0
8, 163410, Note_on_c, 3, 71, 100
8, 163438, Note_on_c, 3, 71, 0
8, 163440, Note_on_c, 3, 73, 100
8, 163498, Note_on_c, 3, 73, 0
8, 163860, Note_on_c, 3, 69, 100
8, 163890, Note_on_c, 3, 69, 0
8, 163890, Note_on_c, 3, 71, 100
8, 163920, Note_on_c, 3, 71, 0
8, 163920, Note_on_c, 3, 73, 100
8, 164010, Note_on_c, 3, 73, 0
8, 164010, Note_on_c, 3, 74, 100
8, 164040, Note_on_c, 3, 74, 0
8, 164040, Note_on_c, 3, 71, 100
8, 164100, Note_on_c, 3, 71, 0
8, 164100, Note_on_c, 3, 69, 100
8, 164130, Note_on_c, 3, 69, 0
8, 164130, Note_on_c, 3, 71, 100
8, 164160, Note_on_c, 3, 71, 0
8, 164160, Note_on_c, 3, 73, 100
8, 164220, Note_on_c, 3, 73, 0
8, 164220, Note_on_c, 3, 66, 100
8, 164280, Note_on_c, 3, 66, 0
8, 164280, Note_on_c, 3, 75, 100
8, 164340, Note_on_c, 3, 75, 0
8, 164340, Note_on_c, 3, 71, 100
8, 164368, Note_on_c, 3, 71, 0
8, 164370, Note_on_c, 3, 69, 100
8, 164398, Note_on_c, 3, 69, 0
8, 164400, Note_on_c, 3, 71, 100
8, 164458, Note_on_c, 3, 71, 0
8, 164760, Note_on_c, 3, 76, 100
8, 164850, Note_on_c, 3, 76, 0
8, 164850, Note_on_c, 3, 78, 100
8, 164880, Note_on_c, 3, 78, 0
8, 164880, Note_on_c, 3, 76, 100
8, 164910, Note_on_c, 3, 76, 0
8, 164910, Note_on_c, 3, 74, 100
8, 164940, Note_on_c, 3, 74, 0
8, 164940, Note_on_c, 3, 73, 100
8, 164970, Note_on_c, 3, 73, 0
8, 164970, Note_on_c, 3, 71, 100
8, 165000, Note_on_c, 3, 71, 0
8, 165000, Note_on_c, 3, 69, 100
8, 165030, Note_on_c, 3, 69, 0
8, 165030, Note_on_c, 3, 68, 100
8, 165060, Note_on_c, 3, 68, 0
8, 165060, Note_on_c, 3, 66, 100
8, 165120, Note_on_c, 3, 66, 0
8, 165240, Note_on_c, 3, 78, 100
8, 165330, Note_on_c, 3, 78, 0
8, 165330, Note_on_c, 3, 80, 100
8, 165360, Note_on_c, 3, 80, 0
8, 165360, Note_on_c, 3, 78, 100
8, 165390, Note_on_c, 3, 78, 0
8, 165390, Note_on_c, 3, 76, 100
8, 165420, Note_on_c, 3, 76, 0
8, 165420, Note_on_c, 3, 75, 100
8, 165450, Note_on_c, 3, 75, 0
8, 165450, Note_on_c, 3, 73, 100
8, 165480, Note_on_c, 3, 73, 0
8, 165480, Note_on_c, 3, 71, 100
8, 165510, Note_on_c, 3, 71, 0
8, 165510, Note_on_c, 3, 69, 100
8, 165540, Note_on_c, 3, 69, 0
8, 165540, Note_on_c, 3, 68, 100
8, 165600, Note_on_c, 3, 68, 0
8, 165600, Note_on_c, 3, 73, 100
8, 165660, Note_on_c, 3, 73, 0
8, 165660, Note_on_c, 3, 73, 100
8, 165720, Note_on_c, 3, 73, 0
8, 165720, Note_on_c, 3, 75, 100
8, 165780, Note_on_c, 3, 75, 0
8, 165840, Note_on_c, 3, 75, 100
8, 165900, Note_on_c, 3, 75, 0
8, 165900, Note_on_c, 3, 75, 100
8, 165960, Note_on_c, 3, 75, 0
8, 165960, Note_on_c, 3, 73, 100
8, 166020, Note_on_c, 3, 73, 0
8, 166200, Note_on_c, 3, 87, 100
8, 166260, Note_on_c, 3, 87, 0
8, 166260, Note_on_c, 3, 82, 100
8, 166320, Note_on_c, 3, 82, 0
8, 166320, Note_on_c, 3, 83, 100
8, 166380, Note_on_c, 3, 83, 0
8, 166440, Note_on_c, 3, 88, 100
8, 166500, Note_on_c, 3, 88, 0
8, 166500, Note_on_c, 3, 82, 100
8, 166560, Note_on_c, 3, 82, 0
8, 166560, Note_on_c, 3, 83, 100
8, 166620, Note_on_c, 3, 83, 0
8, 166980, Note_on_c, 3, 71, 100
8, 167010, Note_on_c, 3, 71, 0
8, 167010, Note_on_c, 3, 73, 100
8, 167040, Note_on_c, 3, 73, 0
8, 167040, Note_on_c, 3, 75, 100
8, 167130, Note_on_c, 3, 75, 0
8, 167130, Note_on_c, 3, 76, 100
8, 167160, Note_on_c, 3, 76, 0
8, 167160, Note_on_c, 3, 73, 100
8, 167220, Note_on_c, 3, 73, 0
8, 167220, Note_on_c, 3, 75, 100
8, 167250, Note_on_c, 3, 75, 0
8, 167250, Note_on_c, 3, 73, 100
8, 167280, Note_on_c, 3, 73, 0
8, 167280, Note_on_c, 3, 71, 100
8, 167370, Note_on_c, 3, 71, 0
8, 167370, Note_on_c, 3, 73, 100
8, 167400, Note_on_c, 3, 73, 0
8, 167400, Note_on_c, 3, 70, 100
8, 167460, Note_on_c, 3, 70, 0
8, 167460, Note_on_c, 3, 71, 100
8, 167490, Note_on_c, 3, 71, 0
8, 167490, Note_on_c, 3, 73, 100
8, 167520, Note_on_c, 3, 73, 0
8, 167520, Note_on_c, 3, 75, 100
8, 167550, Note_on_c, 3, 75, 0
8, 167550, Note_on_c, 3, 76, 100
8, 167580, Note_on_c, 3, 76, 0
8, 167580, Note_on_c, 3, 78, 100
8, 167608, Note_on_c, 3, 78, 0
8, 167610, Note_on_c, 3, 81, 100
8, 167638, Note_on_c, 3, 81, 0
8, 167640, Note_on_c, 3, 80, 100
8, 167698, Note_on_c, 3, 80, 0
8, 167700, Note_on_c, 3, 78, 100
8, 167707, Note_on_c, 3, 78, 0
8, 167707, Note_on_c, 3, 80, 100
8, 167714, Note_on_c, 3, 80, 0
8, 167715, Note_on_c, 3, 78, 100
8, 167722, Note_on_c, 3, 78, 0
8, 167722, Note_on_c, 3, 80, 100
8, 167729, Note_on_c, 3, 80, 0
8, 167730, Note_on_c, 3, 78, 100
8, 167740, Note_on_c, 3, 78, 0
8, 167740, Note_on_c, 3, 80, 100
8, 167750, Note_on_c, 3, 80, 0
8, 167750, Note_on_c, 3, 78, 100
8, 167760, Note_on_c, 3, 78, 0
8, 167760, Note_on_c, 3, 76, 100
8, 167820, Note_on_c, 3, 76, 0
8, 167940, Note_on_c, 3, 73, 100
8, 167970, Note_on_c, 3, 73, 0
8, 167970, Note_on_c, 3, 75, 100
8, 168000, Note_on_c, 3, 75, 0
8, 168000, Note_on_c, 3, 76, 100
8, 168090, Note_on_c, 3, 76, 0
8, 168090, Note_on_c, 3, 78, 100
8, 168120, Note_on_c, 3, 78, 0
8, 168120, Note_on_c, 3, 75, 100
8, 168180, Note_on_c, 3, 75, 0
8, 168180, Note_on_c, 3, 76, 100
8, 168210, Note_on_c, 3, 76, 0
8, 168210, Note_on_c, 3, 75, 100
8, 168240, Note_on_c, 3, 75, 0
8, 168240, Note_on_c, 3, 73, 100
8, 168330, Note_on_c, 3, 73, 0
8, 168330, Note_on_c, 3, 75, 100
8, 168360, Note_on_c, 3, 75, 0
8, 168360, Note_on_c, 3, 72, 100
8, 168420, Note_on_c, 3, 72, 0
8, 168420, Note_on_c, 3, 73, 100
8, 168450, Note_on_c, 3, 73, 0
8, 168450, Note_on_c, 3, 75, 100
8, 168480, Note_on_c, 3, 75, 0
8, 168480, Note_on_c, 3, 76, 100
8, 168510, Note_on_c, 3, 76, 0
8, 168510, Note_on_c, 3, 78, 100
8, 168540, Note_on_c, 3, 78, 0
8, 168540, Note_on_c, 3, 80, 100
8, 168570, Note_on_c, 3, 80, 0
8, 168570, Note_on_c, 3, 76, 100
8, 168600, Note_on_c, 3, 76, 0
8, 168600, Note_on_c, 3, 78, 100
8, 168660, Note_on_c, 3, 78, 0
8, 168660, Note_on_c, 3, 76, 100
8, 168667, Note_on_c, 3, 76, 0
8, 168667, Note_on_c, 3, 78, 100
8, 168674, Note_on_c, 3, 78, 0
8, 168675, Note_on_c, 3, 76, 100
8, 168682, Note_on_c, 3, 76, 0
8, 168682, Note_on_c, 3, 78, 100
8, 168689, Note_on_c, 3, 78, 0
8, 168690, Note_on_c, 3, 76, 100
8, 168700, Note_on_c, 3, 76, 0
8, 168700, Note_on_c, 3, 78, 100
8, 168710, Note_on_c, 3, 78, 0
8, 168710, Note_on_c, 3, 76, 100
8, 168720, Note_on_c, 3, 76, 0
8, 168720, Note_on_c, 3, 75, 100
8, 168780, Note_on_c, 3, 75, 0
8, 169140, Note_on_c, 3, 69, 100
8, 169170, Note_on_c, 3, 69, 0
8, 169170, Note_on_c, 3, 71, 100
8, 169200, Note_on_c, 3, 71, 0
8, 169200, Note_on_c, 3, 73, 100
8, 169290, Note_on_c, 3, 73, 0
8, 169290, Note_on_c, 3, 76, 100
8, 169320, Note_on_c, 3, 76, 0
8, 169320, Note_on_c, 3, 74, 100
8, 169380, Note_on_c, 3, 74, 0
8, 169380, Note_on_c, 3, 74, 100
8, 169680, Note_on_c, 3, 74, 0
8, 169680, Note_on_c, 3, 73, 100
8, 169768, Note_on_c, 3, 73, 0
8, 169770, Note_on_c, 3, 74, 100
8, 169798, Note_on_c, 3, 74, 0
8, 169800, Note_on_c, 3, 71, 100
8, 169858, Note_on_c, 3, 71, 0
8, 169860, Note_on_c, 3, 73, 100
8, 169920, Note_on_c, 3, 73, 0
8, 169920, Note_on_c, 3, 76, 100
8, 169980, Note_on_c, 3, 76, 0
8, 170040, Note_on_c, 3, 85, 100
8, 170100, Note_on_c, 3, 85, 0
8, 170160, Note_on_c, 3, 83, 100
8, 170220, Note_on_c, 3, 83, 0
8, 170280, Note_on_c, 3, 78, 100
8, 170340, Note_on_c, 3, 78, 0
8, 170400, Note_on_c, 3, 76, 100
8, 170460, Note_on_c, 3, 76, 0
8, 170520, Note_on_c, 3, 83, 100
8, 170580, Note_on_c, 3, 83, 0
8, 170640, Note_on_c, 3, 81, 100
8, 170700, Note_on_c, 3, 81, 0
8, 170760, Note_on_c, 3, 76, 100
8, 170820, Note_on_c, 3, 76, 0
8, 170880, Note_on_c, 3, 73, 100
8, 170940, Note_on_c, 3, 73, 0
8, 171000, Note_on_c, 3, 81, 100
8, 171060, Note_on_c, 3, 81, 0
8, 171120, Note_on_c, 3, 81, 100
8, 171180, Note_on_c, 3, 81, 0
8, 171240, Note_on_c, 3, 81, 100
8, 171300, Note_on_c, 3, 81, 0
8, 171360, Note_on_c, 3, 80, 100
8, 171420, Note_on_c, 3, 80, 0
8, 171480, Note_on_c, 3, 78, 100
8, 171540, Note_on_c, 3, 78, 0
8, 171540, Note_on_c, 3, 76, 100
8, 171570, Note_on_c, 3, 76, 0
8, 171570, Note_on_c, 3, 78, 100
8, 171600, Note_on_c, 3, 78, 0
8, 171600, Note_on_c, 3, 80, 100
8, 171690, Note_on_c, 3, 80, 0
8, 171690, Note_on_c, 3, 81, 100
8, 171720, Note_on_c, 3, 81, 0
8, 171720, Note_on_c, 3, 78, 100
8, 171780, Note_on_c, 3, 78, 0
8, 171780, Note_on_c, 3, 80, 100
8, 171810, Note_on_c, 3, 80, 0
8, 171810, Note_on_c, 3, 78, 100
8, 171840, Note_on_c, 3, 78, 0
8, 171840, Note_on_c, 3, 76, 100
8, 171930, Note_on_c, 3, 76, 0
8, 171930, Note_on_c, 3, 78, 100
8, 171960, Note_on_c, 3, 78, 0
8, 171960, Note_on_c, 3, 75, 100
8, 172020, Note_on_c, 3, 75, 0
8, 172020, Note_on_c, 3, 76, 100
8, 172080, Note_on_c, 3, 76, 0
8, 172260, Note_on_c, 3, 68, 100
8, 172290, Note_on_c, 3, 68, 0
8, 172290, Note_on_c, 3, 69, 100
8, 172320, Note_on_c, 3, 69, 0
8, 172320, Note_on_c, 3, 71, 100
8, 172410, Note_on_c, 3, 71, 0
8, 172410, Note_on_c, 3, 75, 100
8, 172440, Note_on_c, 3, 75, 0
8, 172440, Note_on_c, 3, 73, 100
8, 172500, Note_on_c, 3, 73, 0
8, 172500, Note_on_c, 3, 71, 100
8, 172507, Note_on_c, 3, 71, 0
8, 172507, Note_on_c, 3, 73, 100
8, 172514, Note_on_c, 3, 73, 0
8, 172515, Note_on_c, 3, 71, 100
8, 172522, Note_on_c, 3, 71, 0
8, 172522, Note_on_c, 3, 73, 100
8, 172529, Note_on_c, 3, 73, 0
8, 172530, Note_on_c, 3, 71, 100
8, 172540, Note_on_c, 3, 71, 0
8, 172540, Note_on_c, 3, 73, 100
8, 172550, Note_on_c, 3, 73, 0
8, 172550, Note_on_c, 3, 71, 100
8, 172560, Note_on_c, 3, 71, 0
8, 172560, Note_on_c, 3, 69, 100
8, 172620, Note_on_c, 3, 69, 0
8, 172740, Note_on_c, 3, 66, 100
8, 172770, Note_on_c, 3, 66, 0
8, 172770, Note_on_c, 3, 68, 100
8, 172800, Note_on_c, 3, 68, 0
8, 172800, Note_on_c, 3, 69, 100
8, 172890, Note_on_c, 3, 69, 0
8, 172890, Note_on_c, 3, 73, 100
8, 172920, Note_on_c, 3, 73, 0
8, 172920, Note_on_c, 3, 71, 100
8, 172980, Note_on_c, 3, 71, 0
8, 172980, Note_on_c, 3, 69, 100
8, 172987, Note_on_c, 3, 69, 0
8, 172987, Note_on_c, 3, 71, 100
8, 172994, Note_on_c, 3, 71, 0
8, 172995, Note_on_c, 3, 69, 100
8, 173002, Note_on_c, 3, 69, 0
8, 173002, Note_on_c, 3, 71, 100
8, 173009, Note_on_c, 3, 71, 0
8, 173010, Note_on_c, 3, 69, 100
8, 173020, Note_on_c, 3, 69, 0
8, 173020, Note_on_c, 3, 71, 100
8, 173030, Note_on_c, 3, 71, 0
8, 173030, Note_on_c, 3, 69, 100
8, 173040, Note_on_c, 3, 69, 0
8, 173040, Note_on_c, 3, 68, 100
8, 173100, Note_on_c, 3, 68, 0
8, 173760, Note_on_c, 3, 71, 100
8, 173820, Note_on_c, 3, 71, 0
8, 173820, Note_on_c, 3, 78, 100
8, 173970, Note_on_c, 3, 78, 0
8, 173970, Note_on_c, 3, 81, 100
8, 174000, Note_on_c, 3, 81, 0
8, 174000, Note_on_c, 3, 80, 100
8, 174030, Note_on_c, 3, 80, 0
8, 174030, Note_on_c, 3, 85, 100
8, 174060, Note_on_c, 3, 85, 0
8, 174060, Note_on_c, 3, 83, 100
8, 174090, Note_on_c, 3, 83, 0
8, 174090, Note_on_c, 3, 81, 100
8, 174120, Note_on_c, 3, 81, 0
8, 174120, Note_on_c, 3, 80, 100
8, 174150, Note_on_c, 3, 80, 0
8, 174150, Note_on_c, 3, 78, 100
8, 174180, Note_on_c, 3, 78, 0
8, 174180, Note_on_c, 3, 76, 100
8, 174240, Note_on_c, 3, 76, 0
8, 174240, Note_on_c, 3, 73, 100
8, 174300, Note_on_c, 3, 73, 0
8, 174300, Note_on_c, 3, 76, 100
8, 174450, Note_on_c, 3, 76, 0
8, 174450, Note_on_c, 3, 80, 100
8, 174480, Note_on_c, 3, 80, 0
8, 174480, Note_on_c, 3, 78, 100
8, 174510, Note_on_c, 3, 78, 0
8, 174510, Note_on_c, 3, 83, 100
8, 174540, Note_on_c, 3, 83, 0
8, 174540, Note_on_c, 3, 81, 100
8, 174570, Note_on_c, 3, 81, 0
8, 174570, Note_on_c, 3, 80, 100
8, 174600, Note_on_c, 3, 80, 0
8, 174600, Note_on_c, 3, 78, 100
8, 174630, Note_on_c, 3, 78, 0
8, 174630, Note_on_c, 3, 76, 100
8, 174660, Note_on_c, 3, 76, 0
8, 174660, Note_on_c, 3, 75, 100
8, 174720, Note_on_c, 3, 75, 0
8, 174720, Note_on_c, 3, 71, 100
8, 174780, Note_on_c, 3, 71, 0
8, 174780, Note_on_c, 3, 75, 100
8, 174930, Note_on_c, 3, 75, 0
8, 174930, Note_on_c, 3, 78, 100
8, 174960, Note_on_c, 3, 78, 0
8, 174960, Note_on_c, 3, 76, 100
8, 174990, Note_on_c, 3, 76, 0
8, 174990, Note_on_c, 3, 81, 100
8, 175020, Note_on_c, 3, 81, 0
8, 175020, Note_on_c, 3, 80, 100
8, 175050, Note_on_c, 3, 80, 0
8, 175050, Note_on_c, 3, 78, 100
8, 175080, Note_on_c, 3, 78, 0
8, 175080, Note_on_c, 3, 76, 100
8, 175110, Note_on_c, 3, 76, 0
8, 175111, Note_on_c, 3, 75, 100
8, 175140, Note_on_c, 3, 73, 100
8, 175141, Note_on_c, 3, 75, 0
8, 175170, Note_on_c, 3, 73, 0
8, 175170, Note_on_c, 3, 71, 100
8, 175200, Note_on_c, 3, 71, 0
8, 175200, Note_on_c, 3, 69, 100
8, 175230, Note_on_c, 3, 69, 0
8, 175230, Note_on_c, 3, 74, 100
8, 175260, Note_on_c, 3, 74, 0
8, 175260, Note_on_c, 3, 73, 100
8, 175290, Note_on_c, 3, 73, 0
8, 175290, Note_on_c, 3, 71, 100
8, 175320, Note_on_c, 3, 71, 0
8, 175320, Note_on_c, 3, 69, 100
8, 175350, Note_on_c, 3, 69, 0
8, 175350, Note_on_c, 3, 68, 100
8, 175380, Note_on_c, 3, 68, 0
8, 175380, Note_on_c, 3, 66, 100
8, 175440, Note_on_c, 3, 66, 0
8, 175440, Note_on_c, 3, 78, 100
8, 175500, Note_on_c, 3, 78, 0
8, 176100, Note_on_c, 3, 68, 100
8, 176130, Note_on_c, 3, 68, 0
8, 176130, Note_on_c, 3, 69, 100
8, 176160, Note_on_c, 3, 69, 0
8, 176160, Note_on_c, 3, 71, 100
8, 176250, Note_on_c, 3, 71, 0
8, 176250, Note_on_c, 3, 73, 100
8, 176280, Note_on_c, 3, 73, 0
8, 176280, Note_on_c, 3, 69, 100
8, 176340, Note_on_c, 3, 69, 0
8, 176340, Note_on_c, 3, 71, 100
8, 176370, Note_on_c, 3, 71, 0
8, 176370, Note_on_c, 3, 69, 100
8, 176400, Note_on_c, 3, 69, 0
8, 176400, Note_on_c, 3, 68, 100
8, 176490, Note_on_c, 3, 68, 0
8, 176490, Note_on_c, 3, 69, 100
8, 176520, Note_on_c, 3, 69, 0
8, 176520, Note_on_c, 3, 66, 100
8, 176580, Note_on_c, 3, 66, 0
8, 176580, Note_on_c, 3, 68, 100
8, 176640, Note_on_c, 3, 68, 0
8, 176640, Note_on_c, 3, 76, 100
8, 176670, Note_on_c, 3, 76, 0
8, 176670, Note_on_c, 3, 78, 100
8, 176700, Note_on_c, 3, 78, 0
8, 176700, Note_on_c, 3, 80, 100
8, 176730, Note_on_c, 3, 80, 0
8, 176730, Note_on_c, 3, 83, 100
8, 176760, Note_on_c, 3, 83, 0
8, 176760, Note_on_c, 3, 81, 100
8, 176820, Note_on_c, 3, 81, 0
8, 176820, Note_on_c, 3, 80, 100
8, 176827, Note_on_c, 3, 80, 0
8, 176827, Note_on_c, 3, 81, 100
8, 176834, Note_on_c, 3, 81, 0
8, 176835, Note_on_c, 3, 80, 100
8, 176842, Note_on_c, 3, 80, 0
8, 176842, Note_on_c, 3, 81, 100
8, 176849, Note_on_c, 3, 81, 0
8, 176850, Note_on_c, 3, 80, 100
8, 176860, Note_on_c, 3, 80, 0
8, 176860, Note_on_c, 3, 81, 100
8, 176870, Note_on_c, 3, 81, 0
8, 176870, Note_on_c, 3, 80, 100
8, 176880, Note_on_c, 3, 80, 0
8, 176880, Note_on_c, 3, 78, 100
8, 176940, Note_on_c, 3, 78, 0
8, 177060, Note_on_c, 3, 69, 100
8, 177090, Note_on_c, 3, 69, 0
8, 177090, Note_on_c, 3, 71, 100
8, 177120, Note_on_c, 3, 71, 0
8, 177120, Note_on_c, 3, 73, 100
8, 177210, Note_on_c, 3, 73, 0
8, 177210, Note_on_c, 3, 74, 100
8, 177240, Note_on_c, 3, 74, 0
8, 177240, Note_on_c, 3, 71, 100
8, 177300, Note_on_c, 3, 71, 0
8, 177300, Note_on_c, 3, 73, 100
8, 177330, Note_on_c, 3, 73, 0
8, 177330, Note_on_c, 3, 71, 100
8, 177360, Note_on_c, 3, 71, 0
8, 177360, Note_on_c, 3, 69, 100
8, 177450, Note_on_c, 3, 69, 0
8, 177450, Note_on_c, 3, 71, 100
8, 177480, Note_on_c, 3, 71, 0
8, 177480, Note_on_c, 3, 68, 100
8, 177540, Note_on_c, 3, 68, 0
8, 177540, Note_on_c, 3, 69, 100
8, 177600, Note_on_c, 3, 69, 0
8, 177600, Note_on_c, 3, 78, 100
8, 177630, Note_on_c, 3, 78, 0
8, 177630, Note_on_c, 3, 80, 100
8, 177660, Note_on_c, 3, 80, 0
8, 177660, Note_on_c, 3, 81, 100
8, 177690, Note_on_c, 3, 81, 0
8, 177690, Note_on_c, 3, 78, 100
8, 177720, Note_on_c, 3, 78, 0
8, 177720, Note_on_c, 3, 80, 100
8, 177780, Note_on_c, 3, 80, 0
8, 177780, Note_on_c, 3, 78, 100
8, 177787, Note_on_c, 3, 78, 0
8, 177787, Note_on_c, 3, 80, 100
8, 177794, Note_on_c, 3, 80, 0
8, 177795, Note_on_c, 3, 78, 100
8, 177802, Note_on_c, 3, 78, 0
8, 177802, Note_on_c, 3, 80, 100
8, 177809, Note_on_c, 3, 80, 0
8, 177810, Note_on_c, 3, 78, 100
8, 177820, Note_on_c, 3, 78, 0
8, 177820, Note_on_c, 3, 80, 100
8, 177830, Note_on_c, 3, 80, 0
8, 177830, Note_on_c, 3, 78, 100
8, 177840, Note_on_c, 3, 78, 0
8, 177840, Note_on_c, 3, 76, 100
8, 177900, Note_on_c, 3, 76, 0
8, 178140, Note_on_c, 3, 83, 100
8, 178290, Note_on_c, 3, 83, 0
8, 178290, Note_on_c, 3, 86, 100
8, 178320, Note_on_c, 3, 86, 0
8, 178320, Note_on_c, 3, 85, 100
8, 178350, Note_on_c, 3, 85, 0
8, 178350, Note_on_c, 3, 83, 100
8, 178380, Note_on_c, 3, 83, 0
8, 178380, Note_on_c, 3, 81, 100
8, 178410, Note_on_c, 3, 81, 0
8, 178410, Note_on_c, 3, 80, 100
8, 178440, Note_on_c, 3, 80, 0
8, 178440, Note_on_c, 3, 78, 100
8, 178470, Note_on_c, 3, 78, 0
8, 178470, Note_on_c, 3, 76, 100
8, 178500, Note_on_c, 3, 76, 0
8, 178500, Note_on_c, 3, 75, 100
8, 178560, Note_on_c, 3, 75, 0
8, 178560, Note_on_c, 3, 71, 100
8, 178620, Note_on_c, 3, 71, 0
8, 178620, Note_on_c, 3, 78, 100
8, 178770, Note_on_c, 3, 78, 0
8, 178770, Note_on_c, 3, 81, 100
8, 178800, Note_on_c, 3, 81, 0
8, 178800, Note_on_c, 3, 80, 100
8, 178830, Note_on_c, 3, 80, 0
8, 178830, Note_on_c, 3, 78, 100
8, 178860, Note_on_c, 3, 78, 0
8, 178860, Note_on_c, 3, 76, 100
8, 178890, Note_on_c, 3, 76, 0
8, 178890, Note_on_c, 3, 75, 100
8, 178920, Note_on_c, 3, 75, 0
8, 178920, Note_on_c, 3, 73, 100
8, 178950, Note_on_c, 3, 73, 0
8, 178950, Note_on_c, 3, 71, 100
8, 178980, Note_on_c, 3, 71, 0
8, 178980, Note_on_c, 3, 73, 100
8, 179010, Note_on_c, 3, 73, 0
8, 179010, Note_on_c, 3, 75, 100
8, 179040, Note_on_c, 3, 75, 0
8, 179040, Note_on_c, 3, 76, 100
8, 179070, Note_on_c, 3, 76, 0
8, 179070, Note_on_c, 3, 78, 100
8, 179100, Note_on_c, 3, 78, 0
8, 179100, Note_on_c, 3, 75, 100
8, 179107, Note_on_c, 3, 75, 0
8, 179107, Note_on_c, 3, 76, 100
8, 179114, Note_on_c, 3, 76, 0
8, 179115, Note_on_c, 3, 75, 100
8, 179122, Note_on_c, 3, 75, 0
8, 179122, Note_on_c, 3, 76, 100
8, 179129, Note_on_c, 3, 76, 0
8, 179130, Note_on_c, 3, 75, 100
8, 179137, Note_on_c, 3, 75, 0
8, 179137, Note_on_c, 3, 76, 100
8, 179144, Note_on_c, 3, 76, 0
8, 179145, Note_on_c, 3, 75, 100
8, 179152, Note_on_c, 3, 75, 0
8, 179152, Note_on_c, 3, 76, 100
8, 179159, Note_on_c, 3, 76, 0
8, 179160, Note_on_c, 3, 75, 100
8, 179170, Note_on_c, 3, 75, 0
8, 179170, Note_on_c, 3, 76, 100
8, 179180, Note_on_c, 3, 76, 0
8, 179180, Note_on_c, 3, 75, 100
8, 179190, Note_on_c, 3, 75, 0
8, 179190, Note_on_c, 3, 73, 100
8, 179205, Note_on_c, 3, 73, 0
8, 179205, Note_on_c, 3, 75, 100
8, 179220, Note_on_c, 3, 75, 0
8, 179220, Note_on_c, 3, 76, 100
8, 179250, Note_on_c, 3, 76, 0
8, 179250, Note_on_c, 3, 75, 100
8, 179280, Note_on_c, 3, 75, 0
8, 179280, Note_on_c, 3, 76, 100
8, 179310, Note_on_c, 3, 76, 0
8, 179310, Note_on_c, 3, 78, 100
8, 179340, Note_on_c, 3, 78, 0
8, 179340, Note_on_c, 3, 80, 100
8, 179370, Note_on_c, 3, 80, 0
8, 179370, Note_on_c, 3, 76, 100
8, 179400, Note_on_c, 3, 76, 0
8, 179400, Note_on_c, 3, 78, 100
8, 179460, Note_on_c, 3, 78, 0
8, 181320, Program_c, 3, 68
8, 181380, Note_on_c, 3, 78, 100
8, 181738, Note_on_c, 3, 78, 0
8, 181740, Note_on_c, 3, 81, 100
8, 182098, Note_on_c, 3, 81, 0
8, 182100, Note_on_c, 3, 78, 100
8, 182458, Note_on_c, 3, 78, 0
8, 182460, Note_on_c, 3, 78, 100
8, 182818, Note_on_c, 3, 78, 0
8, 182820, Note_on_c, 3, 79, 100
8, 183178, Note_on_c, 3, 79, 0
8, 183180, Note_on_c, 3, 78, 100
8, 183538, Note_on_c, 3, 78, 0
8, 183540, Note_on_c, 3, 76, 100
8, 184258, Note_on_c, 3, 76, 0
8, 184260, Note_on_c, 3, 74, 100
8, 184618, Note_on_c, 3, 74, 0
8, 186060, Note_on_c, 3, 78, 100
8, 186418, Note_on_c, 3, 78, 0
8, 186420, Note_on_c, 3, 81, 100
8, 186778, Note_on_c, 3, 81, 0
8, 186780, Note_on_c, 3, 76, 100
8, 187138, Note_on_c, 3, 76, 0
8, 187140, Note_on_c, 3, 76, 100
8, 187498, Note_on_c, 3, 76, 0
8, 187500, Note_on_c, 3, 76, 100
8, 187858, Note_on_c, 3, 76, 0
8, 187860, Note_on_c, 3, 76, 100
8, 188218, Note_on_c, 3, 76, 0
8, 188220, Note_on_c, 3, 76, 100
8, 188578, Note_on_c, 3, 76, 0
8, 188580, Note_on_c, 3, 76, 100
8, 188938, Note_on_c, 3, 76, 0
8, 188940, Note_on_c, 3, 71, 100
8, 189298, Note_on_c, 3, 71, 0
8, 189300, Note_on_c, 3, 74, 100
8, 189658, Note_on_c, 3, 74, 0
8, 189660, Note_on_c, 3, 73, 100
8, 190378, Note_on_c, 3, 73, 0
8, 190380, Note_on_c, 3, 71, 100
8, 193258, Note_on_c, 3, 71, 0
8, 219660, Control_c, 3, 0, 0
8, 219660, Note_on_c, 3, 81, 100
8, 219780, Note_on_c, 3, 81, 0
8, 219840, Note_on_c, 3, 81, 100
8, 219880, Note_on_c, 3, 81, 0
8, 219900, Note_on_c, 3, 81, 100
8, 220060, Note_on_c, 3, 81, 0
8, 221580, Note_on_c, 3, 78, 100
8, 221700, Note_on_c, 3, 78, 0
8, 221760, Note_on_c, 3, 78, 100
8, 221818, Note_on_c, 3, 78, 0
8, 221820, Note_on_c, 3, 78, 100
8, 222058, Note_on_c, 3, 78, 0
8, 222060, Note_on_c, 3, 71, 100
8, 222298, Note_on_c, 3, 71, 0
8, 222300, Note_on_c, 3, 71, 100
8, 222538, Note_on_c, 3, 71, 0
8, 223980, Note_on_c, 3, 76, 90
8, 224099, Note_on_c, 3, 76, 0
8, 224160, Note_on_c, 3, 76, 90
8, 224219, Note_on_c, 3, 76, 0
8, 224220, Note_on_c, 3, 76, 90
8, 224459, Note_on_c, 3, 76, 0
8, 224460, Note_on_c, 3, 74, 90
8, 224579, Note_on_c, 3, 74, 0
8, 224640, Note_on_c, 3, 74, 90
8, 224699, Note_on_c, 3, 74, 0
8, 224700, Note_on_c, 3, 74, 90
8, 224939, Note_on_c, 3, 74, 0
8, 226380, Note_on_c, 3, 74, 100
8, 226500, Note_on_c, 3, 74, 0
8, 226500, Note_on_c, 3, 74, 100
8, 226560, Note_on_c, 3, 74, 0
8, 226560, Note_on_c, 3, 74, 100
8, 226620, Note_on_c, 3, 74, 0
8, 226620, Note_on_c, 3, 74, 100
8, 226740, Note_on_c, 3, 74, 0
8, 226740, Note_on_c, 3, 74, 100
8, 226860, Note_on_c, 3, 74, 0
8, 226860, Note_on_c, 3, 74, 100
8, 227040, Note_on_c, 3, 74, 0
8, 227040, Note_on_c, 3, 74, 100
8, 227100, Note_on_c, 3, 74, 0
8, 227100, Note_on_c, 3, 76, 100
8, 227340, Note_on_c, 3, 76, 0
8, 227340, Note_on_c, 3, 73, 100
8, 227580, Note_on_c, 3, 73, 0
8, 227580, Note_on_c, 3, 74, 100
8, 227880, Note_on_c, 3, 74, 0
8, 227880, Note_on_c, 3, 73, 100
8, 227940, Note_on_c, 3, 73, 0
8, 227940, Note_on_c, 3, 71, 100
8, 228000, Note_on_c, 3, 71, 0
8, 228000, Note_on_c, 3, 73, 100
8, 228060, Note_on_c, 3, 73, 0
8, 228060, Note_on_c, 3, 74, 100
8, 228300, Note_on_c, 3, 74, 0
8, 228300, Note_on_c, 3, 73, 100
8, 228780, Note_on_c, 3, 73, 0
8, 228780, Note_on_c, 3, 69, 90
8, 228809, Note_on_c, 3, 69, 0
8, 228810, Note_on_c, 3, 74, 90
8, 228839, Note_on_c, 3, 74, 0
8, 228840, Note_on_c, 3, 73, 90
8, 228869, Note_on_c, 3, 73, 0
8, 228870, Note_on_c, 3, 71, 90
8, 228899, Note_on_c, 3, 71, 0
8, 228900, Note_on_c, 3, 69, 90
8, 228929, Note_on_c, 3, 69, 0
8, 228930, Note_on_c, 3, 67, 90
8, 228959, Note_on_c, 3, 67, 0
8, 228960, Note_on_c, 3, 66, 90
8, 228989, Note_on_c, 3, 66, 0
8, 228990, Note_on_c, 3, 67, 90
8, 229019, Note_on_c, 3, 67, 0
8, 229020, Note_on_c, 3, 69, 90
8, 229049, Note_on_c, 3, 69, 0
8, 229050, Note_on_c, 3, 71, 90
8, 229079, Note_on_c, 3, 71, 0
8, 229080, Note_on_c, 3, 69, 90
8, 229109, Note_on_c, 3, 69, 0
8, 229110, Note_on_c, 3, 71, 90
8, 229139, Note_on_c, 3, 71, 0
8, 229140, Note_on_c, 3, 69, 90
8, 229169, Note_on_c, 3, 69, 0
8, 229170, Note_on_c, 3, 74, 90
8, 229199, Note_on_c, 3, 74, 0
8, 229200, Note_on_c, 3, 73, 90
8, 229229, Note_on_c, 3, 73, 0
8, 229230, Note_on_c, 3, 71, 90
8, 229259, Note_on_c, 3, 71, 0
8, 229260, Note_on_c, 3, 69, 90
8, 229289, Note_on_c, 3, 69, 0
8, 229290, Note_on_c, 3, 67, 90
8, 229319, Note_on_c, 3, 67, 0
8, 229320, Note_on_c, 3, 66, 90
8, 229349, Note_on_c, 3, 66, 0
8, 229350, Note_on_c, 3, 67, 90
8, 229379, Note_on_c, 3, 67, 0
8, 229380, Note_on_c, 3, 69, 90
8, 229409, Note_on_c, 3, 69, 0
8, 229410, Note_on_c, 3, 71, 90
8, 229439, Note_on_c, 3, 71, 0
8, 229440, Note_on_c, 3, 69, 90
8, 229469, Note_on_c, 3, 69, 0
8, 229470, Note_on_c, 3, 71, 90
8, 229499, Note_on_c, 3, 71, 0
8, 229500, Note_on_c, 3, 69, 90
8, 229559, Note_on_c, 3, 69, 0
8, 230220, Note_on_c, 3, 74, 100
8, 231000, Note_on_c, 3, 74, 0
8, 231360, Note_on_c, 3, 74, 90
8, 231389, Note_on_c, 3, 74, 0
8, 231390, Note_on_c, 3, 76, 90
8, 231419, Note_on_c, 3, 76, 0
8, 231420, Note_on_c, 3, 78, 90
8, 231449, Note_on_c, 3, 78, 0
8, 231450, Note_on_c, 3, 79, 90
8, 231479, Note_on_c, 3, 79, 0
8, 231480, Note_on_c, 3, 81, 90
8, 231509, Note_on_c, 3, 81, 0
8, 231540, Note_on_c, 3, 81, 90
8, 231569, Note_on_c, 3, 81, 0
8, 231570, Note_on_c, 3, 79, 90
8, 231599, Note_on_c, 3, 79, 0
8, 231600, Note_on_c, 3, 78, 90
8, 231629, Note_on_c, 3, 78, 0
8, 231630, Note_on_c, 3, 76, 90
8, 231659, Note_on_c, 3, 76, 0
8, 231660, Note_on_c, 3, 78, 90
8, 231749, Note_on_c, 3, 78, 0
8, 231750, Note_on_c, 3, 76, 90
8, 231779, Note_on_c, 3, 76, 0
8, 231780, Note_on_c, 3, 74, 90
8, 231899, Note_on_c, 3, 74, 0
8, 233160, Note_on_c, 3, 76, 90
8, 233189, Note_on_c, 3, 76, 0
8, 233190, Note_on_c, 3, 78, 90
8, 233219, Note_on_c, 3, 78, 0
8, 233220, Note_on_c, 3, 79, 90
8, 233249, Note_on_c, 3, 79, 0
8, 233250, Note_on_c, 3, 81, 90
8, 233279, Note_on_c, 3, 81, 0
8, 233280, Note_on_c, 3, 83, 90
8, 233309, Note_on_c, 3, 83, 0
8, 233340, Note_on_c, 3, 83, 90
8, 233369, Note_on_c, 3, 83, 0
8, 233370, Note_on_c, 3, 81, 90
8, 233399, Note_on_c, 3, 81, 0
8, 233400, Note_on_c, 3, 79, 90
8, 233429, Note_on_c, 3, 79, 0
8, 233430, Note_on_c, 3, 78, 90
8, 233459, Note_on_c, 3, 78, 0
8, 233460, Note_on_c, 3, 76, 90
8, 233489, Note_on_c, 3, 76, 0
8, 233490, Note_on_c, 3, 78, 90
8, 233519, Note_on_c, 3, 78, 0
8, 233520, Note_on_c, 3, 79, 90
8, 233549, Note_on_c, 3, 79, 0
8, 233580, Note_on_c, 3, 79, 100
8, 234420, Note_on_c, 3, 79, 0
8, 234540, Note_on_c, 3, 78, 90
8, 234569, Note_on_c, 3, 78, 0
8, 234570, Note_on_c, 3, 74, 90
8, 234599, Note_on_c, 3, 74, 0
8, 234600, Note_on_c, 3, 73, 90
8, 234629, Note_on_c, 3, 73, 0
8, 234630, Note_on_c, 3, 71, 90
8, 234659, Note_on_c, 3, 71, 0
8, 234660, Note_on_c, 3, 69, 90
8, 234689, Note_on_c, 3, 69, 0
8, 234690, Note_on_c, 3, 67, 90
8, 234719, Note_on_c, 3, 67, 0
8, 234720, Note_on_c, 3, 66, 90
8, 234749, Note_on_c, 3, 66, 0
8, 234750, Note_on_c, 3, 67, 90
8, 234779, Note_on_c, 3, 67, 0
8, 234780, Note_on_c, 3, 69, 90
8, 234809, Note_on_c, 3, 69, 0
8, 234810, Note_on_c, 3, 71, 90
8, 234839, Note_on_c, 3, 71, 0
8, 234840, Note_on_c, 3, 69, 90
8, 234869, Note_on_c, 3, 69, 0
8, 234870, Note_on_c, 3, 71, 90
8, 234899, Note_on_c, 3, 71, 0
8, 234900, Note_on_c, 3, 69, 90
8, 234959, Note_on_c, 3, 69, 0
8, 235020, Note_on_c, 3, 74, 90
8, 235079, Note_on_c, 3, 74, 0
8, 235080, Note_on_c, 3, 69, 90
8, 235139, Note_on_c, 3, 69, 0
8, 235440, Note_on_c, 3, 69, 90
8, 235469, Note_on_c, 3, 69, 0
8, 235470, Note_on_c, 3, 67, 90
8, 235499, Note_on_c, 3, 67, 0
8, 235500, Note_on_c, 3, 66, 90
8, 235559, Note_on_c, 3, 66, 0
8, 235680, Note_on_c, 3, 74, 90
8, 235709, Note_on_c, 3, 74, 0
8, 235710, Note_on_c, 3, 76, 90
8, 235739, Note_on_c, 3, 76, 0
8, 235740, Note_on_c, 3, 78, 90
8, 235769, Note_on_c, 3, 78, 0
8, 235770, Note_on_c, 3, 79, 90
8, 235799, Note_on_c, 3, 79, 0
8, 235800, Note_on_c, 3, 81, 90
8, 235829, Note_on_c, 3, 81, 0
8, 235860, Note_on_c, 3, 81, 90
8, 235889, Note_on_c, 3, 81, 0
8, 235890, Note_on_c, 3, 79, 90
8, 235919, Note_on_c, 3, 79, 0
8, 235920, Note_on_c, 3, 78, 90
8, 235949, Note_on_c, 3, 78, 0
8, 235950, Note_on_c, 3, 76, 90
8, 235979, Note_on_c, 3, 76, 0
8, 235980, Note_on_c, 3, 74, 90
8, 236009, Note_on_c, 3, 74, 0
8, 236010, Note_on_c, 3, 73, 90
8, 236039, Note_on_c, 3, 73, 0
8, 236040, Note_on_c, 3, 74, 90
8, 236069, Note_on_c, 3, 74, 0
8, 236070, Note_on_c, 3, 76, 90
8, 236099, Note_on_c, 3, 76, 0
8, 236100, Note_on_c, 3, 78, 90
8, 236129, Note_on_c, 3, 78, 0
8, 236130, Note_on_c, 3, 79, 90
8, 236159, Note_on_c, 3, 79, 0
8, 236160, Note_on_c, 3, 81, 90
8, 236189, Note_on_c, 3, 81, 0
8, 236220, Note_on_c, 3, 81, 90
8, 236249, Note_on_c, 3, 81, 0
8, 236250, Note_on_c, 3, 79, 90
8, 236279, Note_on_c, 3, 79, 0
8, 236280, Note_on_c, 3, 78, 90
8, 236309, Note_on_c, 3, 78, 0
8, 236310, Note_on_c, 3, 76, 90
8, 236339, Note_on_c, 3, 76, 0
8, 236340, Note_on_c, 3, 78, 90
8, 236369, Note_on_c, 3, 78, 0
8, 236370, Note_on_c, 3, 76, 90
8, 236399, Note_on_c, 3, 76, 0
8, 236400, Note_on_c, 3, 78, 90
8, 236429, Note_on_c, 3, 78, 0
8, 236430, Note_on_c, 3, 79, 90
8, 236459, Note_on_c, 3, 79, 0
8, 236460, Note_on_c, 3, 81, 90
8, 236519, Note_on_c, 3, 81, 0
8, 236520, Note_on_c, 3, 83, 90
8, 236549, Note_on_c, 3, 83, 0
8, 236550, Note_on_c, 3, 81, 90
8, 236579, Note_on_c, 3, 81, 0
8, 236580, Note_on_c, 3, 79, 90
8, 236609, Note_on_c, 3, 79, 0
8, 236610, Note_on_c, 3, 78, 90
8, 236639, Note_on_c, 3, 78, 0
8, 236640, Note_on_c, 3, 76, 90
8, 236669, Note_on_c, 3, 76, 0
8, 236670, Note_on_c, 3, 74, 90
8, 236699, Note_on_c, 3, 74, 0
8, 236700, Note_on_c, 3, 74, 90
8, 236819, Note_on_c, 3, 74, 0
8, 236819, End_track
9, 0, Start_track
9, 0, MIDI_port, 0
9, 0, Title_t, "oboe II"
9, 0, Program_c, 3, 68
9, 0, Control_c, 3, 10, 6
9, 0, Note_on_c, 3, 66, 100
9, 60, Note_on_c, 3, 66, 0
9, 90, Note_on_c, 3, 67, 100
9, 110, Note_on_c, 3, 67, 0
9, 120, Note_on_c, 3, 66, 100
9, 140, Note_on_c, 3, 66, 0
9, 150, Note_on_c, 3, 64, 100
9, 170, Note_on_c, 3, 64, 0
9, 180, Note_on_c, 3, 62, 100
9, 200, Note_on_c, 3, 62, 0
9, 210, Note_on_c, 3, 64, 100
9, 230, Note_on_c, 3, 64, 0
9, 240, Note_on_c, 3, 66, 100
9, 260, Note_on_c, 3, 66, 0
9, 270, Note_on_c, 3, 67, 100
9, 290, Note_on_c, 3, 67, 0
9, 300, Note_on_c, 3, 66, 100
9, 320, Note_on_c, 3, 66, 0
9, 330, Note_on_c, 3, 67, 100
9, 350, Note_on_c, 3, 67, 0
9, 360, Note_on_c, 3, 66, 100
9, 420, Note_on_c, 3, 66, 0
9, 450, Note_on_c, 3, 67, 100
9, 470, Note_on_c, 3, 67, 0
9, 480, Note_on_c, 3, 66, 100
9, 500, Note_on_c, 3, 66, 0
9, 510, Note_on_c, 3, 64, 100
9, 530, Note_on_c, 3, 64, 0
9, 540, Note_on_c, 3, 62, 100
9, 560, Note_on_c, 3, 62, 0
9, 570, Note_on_c, 3, 64, 100
9, 590, Note_on_c, 3, 64, 0
9, 600, Note_on_c, 3, 66, 100
9, 620, Note_on_c, 3, 66, 0
9, 630, Note_on_c, 3, 67, 100
9, 650, Note_on_c, 3, 67, 0
9, 660, Note_on_c, 3, 66, 100
9, 680, Note_on_c, 3, 66, 0
9, 690, Note_on_c, 3, 67, 100
9, 710, Note_on_c, 3, 67, 0
9, 720, Note_on_c, 3, 66, 100
9, 780, Note_on_c, 3, 66, 0
9, 810, Note_on_c, 3, 67, 100
9, 830, Note_on_c, 3, 67, 0
9, 840, Note_on_c, 3, 66, 100
9, 860, Note_on_c, 3, 66, 0
9, 870, Note_on_c, 3, 69, 100
9, 890, Note_on_c, 3, 69, 0
9, 900, Note_on_c, 3, 67, 100
9, 920, Note_on_c, 3, 67, 0
9, 930, Note_on_c, 3, 66, 100
9, 950, Note_on_c, 3, 66, 0
9, 960, Note_on_c, 3, 64, 100
9, 1000, Note_on_c, 3, 64, 0
9, 1020, Note_on_c, 3, 69, 100
9, 1060, Note_on_c, 3, 69, 0
9, 1080, Note_on_c, 3, 69, 100
9, 1120, Note_on_c, 3, 69, 0
9, 1140, Note_on_c, 3, 74, 100
9, 1180, Note_on_c, 3, 74, 0
9, 1200, Note_on_c, 3, 66, 100
9, 1240, Note_on_c, 3, 66, 0
9, 1260, Note_on_c, 3, 78, 100
9, 1300, Note_on_c, 3, 78, 0
9, 1320, Note_on_c, 3, 73, 100
9, 1360, Note_on_c, 3, 73, 0
9, 1380, Note_on_c, 3, 69, 100
9, 1420, Note_on_c, 3, 69, 0
9, 1440, Note_on_c, 3, 69, 100
9, 1480, Note_on_c, 3, 69, 0
9, 1500, Note_on_c, 3, 66, 100
9, 1540, Note_on_c, 3, 66, 0
9, 1560, Note_on_c, 3, 74, 100
9, 1840, Note_on_c, 3, 74, 0
9, 1860, Note_on_c, 3, 64, 100
9, 1900, Note_on_c, 3, 64, 0
9, 1920, Note_on_c, 3, 73, 100
9, 2200, Note_on_c, 3, 73, 0
9, 2220, Note_on_c, 3, 62, 100
9, 2260, Note_on_c, 3, 62, 0
9, 2280, Note_on_c, 3, 66, 100
9, 2320, Note_on_c, 3, 66, 0
9, 2340, Note_on_c, 3, 69, 100
9, 2380, Note_on_c, 3, 69, 0
9, 2400, Note_on_c, 3, 69, 100
9, 2440, Note_on_c, 3, 69, 0
9, 2460, Note_on_c, 3, 66, 100
9, 2500, Note_on_c, 3, 66, 0
9, 2520, Note_on_c, 3, 62, 100
9, 2560, Note_on_c, 3, 62, 0
9, 2580, Note_on_c, 3, 66, 100
9, 2620, Note_on_c, 3, 66, 0
9, 2640, Note_on_c, 3, 69, 100
9, 2680, Note_on_c, 3, 69, 0
9, 2700, Note_on_c, 3, 74, 100
9, 2740, Note_on_c, 3, 74, 0
9, 2760, Note_on_c, 3, 74, 100
9, 2800, Note_on_c, 3, 74, 0
9, 2820, Note_on_c, 3, 71, 100
9, 2860, Note_on_c, 3, 71, 0
9, 2880, Note_on_c, 3, 71, 100
9, 2960, Note_on_c, 3, 71, 0
9, 3060, Note_on_c, 3, 71, 100
9, 3100, Note_on_c, 3, 71, 0
9, 3120, Note_on_c, 3, 71, 100
9, 3160, Note_on_c, 3, 71, 0
9, 3180, Note_on_c, 3, 69, 100
9, 3200, Note_on_c, 3, 69, 0
9, 3210, Note_on_c, 3, 68, 100
9, 3230, Note_on_c, 3, 68, 0
9, 3240, Note_on_c, 3, 76, 100
9, 3280, Note_on_c, 3, 76, 0
9, 3300, Note_on_c, 3, 69, 100
9, 3340, Note_on_c, 3, 69, 0
9, 3360, Note_on_c, 3, 73, 100
9, 3400, Note_on_c, 3, 73, 0
9, 3420, Note_on_c, 3, 76, 100
9, 3460, Note_on_c, 3, 76, 0
9, 3480, Note_on_c, 3, 76, 100
9, 3520, Note_on_c, 3, 76, 0
9, 3540, Note_on_c, 3, 74, 100
9, 3560, Note_on_c, 3, 74, 0
9, 3570, Note_on_c, 3, 73, 100
9, 3590, Note_on_c, 3, 73, 0
9, 3600, Note_on_c, 3, 81, 100
9, 3680, Note_on_c, 3, 81, 0
9, 4020, Note_on_c, 3, 64, 100
9, 4060, Note_on_c, 3, 64, 0
9, 4080, Note_on_c, 3, 69, 100
9, 4120, Note_on_c, 3, 69, 0
9, 4140, Note_on_c, 3, 73, 100
9, 4180, Note_on_c, 3, 73, 0
9, 4200, Note_on_c, 3, 64, 100
9, 4240, Note_on_c, 3, 64, 0
9, 4260, Note_on_c, 3, 71, 100
9, 4300, Note_on_c, 3, 71, 0
9, 4320, Note_on_c, 3, 73, 100
9, 5060, Note_on_c, 3, 73, 0
9, 5070, Note_on_c, 3, 78, 100
9, 5090, Note_on_c, 3, 78, 0
9, 5100, Note_on_c, 3, 76, 100
9, 5120, Note_on_c, 3, 76, 0
9, 5130, Note_on_c, 3, 74, 100
9, 5150, Note_on_c, 3, 74, 0
9, 5160, Note_on_c, 3, 73, 100
9, 5180, Note_on_c, 3, 73, 0
9, 5190, Note_on_c, 3, 76, 100
9, 5210, Note_on_c, 3, 76, 0
9, 5220, Note_on_c, 3, 74, 100
9, 5240, Note_on_c, 3, 74, 0
9, 5250, Note_on_c, 3, 73, 100
9, 5270, Note_on_c, 3, 73, 0
9, 5280, Note_on_c, 3, 71, 100
9, 5320, Note_on_c, 3, 71, 0
9, 5340, Note_on_c, 3, 80, 100
9, 5380, Note_on_c, 3, 80, 0
9, 5400, Note_on_c, 3, 81, 100
9, 5440, Note_on_c, 3, 81, 0
9, 5460, Note_on_c, 3, 76, 100
9, 5500, Note_on_c, 3, 76, 0
9, 5580, Note_on_c, 3, 76, 100
9, 5620, Note_on_c, 3, 76, 0
9, 5640, Note_on_c, 3, 64, 100
9, 5680, Note_on_c, 3, 64, 0
9, 5700, Note_on_c, 3, 68, 100
9, 5740, Note_on_c, 3, 68, 0
9, 5760, Note_on_c, 3, 69, 100
9, 5800, Note_on_c, 3, 69, 0
9, 5820, Note_on_c, 3, 67, 100
9, 5840, Note_on_c, 3, 67, 0
9, 5850, Note_on_c, 3, 66, 100
9, 5870, Note_on_c, 3, 66, 0
9, 5880, Note_on_c, 3, 64, 100
9, 5900, Note_on_c, 3, 64, 0
9, 5910, Note_on_c, 3, 66, 100
9, 5930, Note_on_c, 3, 66, 0
9, 5940, Note_on_c, 3, 64, 100
9, 5960, Note_on_c, 3, 64, 0
9, 5970, Note_on_c, 3, 62, 100
9, 5990, Note_on_c, 3, 62, 0
9, 6000, Note_on_c, 3, 64, 100
9, 6040, Note_on_c, 3, 64, 0
9, 6150, Note_on_c, 3, 74, 100
9, 6170, Note_on_c, 3, 74, 0
9, 6180, Note_on_c, 3, 72, 100
9, 6200, Note_on_c, 3, 72, 0
9, 6210, Note_on_c, 3, 71, 100
9, 6230, Note_on_c, 3, 71, 0
9, 6240, Note_on_c, 3, 69, 100
9, 6260, Note_on_c, 3, 69, 0
9, 6270, Note_on_c, 3, 71, 100
9, 6290, Note_on_c, 3, 71, 0
9, 6300, Note_on_c, 3, 69, 100
9, 6320, Note_on_c, 3, 69, 0
9, 6330, Note_on_c, 3, 67, 100
9, 6350, Note_on_c, 3, 67, 0
9, 6360, Note_on_c, 3, 66, 100
9, 6400, Note_on_c, 3, 66, 0
9, 6540, Note_on_c, 3, 67, 100
9, 6580, Note_on_c, 3, 67, 0
9, 6600, Note_on_c, 3, 73, 100
9, 6640, Note_on_c, 3, 73, 0
9, 6660, Note_on_c, 3, 76, 100
9, 6700, Note_on_c, 3, 76, 0
9, 6720, Note_on_c, 3, 76, 100
9, 6760, Note_on_c, 3, 76, 0
9, 6780, Note_on_c, 3, 64, 100
9, 6820, Note_on_c, 3, 64, 0
9, 6840, Note_on_c, 3, 69, 100
9, 6900, Note_on_c, 3, 69, 0
9, 6930, Note_on_c, 3, 71, 100
9, 6950, Note_on_c, 3, 71, 0
9, 6960, Note_on_c, 3, 73, 100
9, 6980, Note_on_c, 3, 73, 0
9, 6990, Note_on_c, 3, 71, 100
9, 7010, Note_on_c, 3, 71, 0
9, 7020, Note_on_c, 3, 69, 100
9, 7040, Note_on_c, 3, 69, 0
9, 7050, Note_on_c, 3, 71, 100
9, 7070, Note_on_c, 3, 71, 0
9, 7080, Note_on_c, 3, 73, 100
9, 7100, Note_on_c, 3, 73, 0
9, 7110, Note_on_c, 3, 74, 100
9, 7130, Note_on_c, 3, 74, 0
9, 7140, Note_on_c, 3, 73, 100
9, 7160, Note_on_c, 3, 73, 0
9, 7170, Note_on_c, 3, 74, 100
9, 7190, Note_on_c, 3, 74, 0
9, 7200, Note_on_c, 3, 71, 100
9, 7220, Note_on_c, 3, 71, 0
9, 7230, Note_on_c, 3, 76, 100
9, 7250, Note_on_c, 3, 76, 0
9, 7260, Note_on_c, 3, 74, 100
9, 7280, Note_on_c, 3, 74, 0
9, 7290, Note_on_c, 3, 73, 100
9, 7310, Note_on_c, 3, 73, 0
9, 7320, Note_on_c, 3, 71, 100
9, 7340, Note_on_c, 3, 71, 0
9, 7350, Note_on_c, 3, 69, 100
9, 7370, Note_on_c, 3, 69, 0
9, 7380, Note_on_c, 3, 68, 100
9, 7400, Note_on_c, 3, 68, 0
9, 7410, Note_on_c, 3, 69, 100
9, 7430, Note_on_c, 3, 69, 0
9, 7440, Note_on_c, 3, 71, 100
9, 7460, Note_on_c, 3, 71, 0
9, 7470, Note_on_c, 3, 73, 100
9, 7490, Note_on_c, 3, 73, 0
9, 7500, Note_on_c, 3, 69, 100
9, 7520, Note_on_c, 3, 69, 0
9, 7530, Note_on_c, 3, 71, 100
9, 7550, Note_on_c, 3, 71, 0
9, 7560, Note_on_c, 3, 73, 100
9, 7620, Note_on_c, 3, 73, 0
9, 7650, Note_on_c, 3, 74, 100
9, 7670, Note_on_c, 3, 74, 0
9, 7680, Note_on_c, 3, 73, 100
9, 7700, Note_on_c, 3, 73, 0
9, 7710, Note_on_c, 3, 71, 100
9, 7730, Note_on_c, 3, 71, 0
9, 7740, Note_on_c, 3, 69, 100
9, 7760, Note_on_c, 3, 69, 0
9, 7770, Note_on_c, 3, 71, 100
9, 7790, Note_on_c, 3, 71, 0
9, 7800, Note_on_c, 3, 73, 100
9, 7820, Note_on_c, 3, 73, 0
9, 7830, Note_on_c, 3, 74, 100
9, 7850, Note_on_c, 3, 74, 0
9, 7860, Note_on_c, 3, 71, 100
9, 7880, Note_on_c, 3, 71, 0
9, 7890, Note_on_c, 3, 73, 100
9, 7910, Note_on_c, 3, 73, 0
9, 7920, Note_on_c, 3, 74, 100
9, 8680, Note_on_c, 3, 74, 0
9, 8700, Note_on_c, 3, 62, 100
9, 8740, Note_on_c, 3, 62, 0
9, 8760, Note_on_c, 3, 66, 100
9, 8800, Note_on_c, 3, 66, 0
9, 8820, Note_on_c, 3, 69, 100
9, 8860, Note_on_c, 3, 69, 0
9, 8880, Note_on_c, 3, 69, 100
9, 8920, Note_on_c, 3, 69, 0
9, 8940, Note_on_c, 3, 66, 100
9, 8980, Note_on_c, 3, 66, 0
9, 9000, Note_on_c, 3, 62, 100
9, 9040, Note_on_c, 3, 62, 0
9, 9060, Note_on_c, 3, 66, 100
9, 9100, Note_on_c, 3, 66, 0
9, 9120, Note_on_c, 3, 69, 100
9, 9160, Note_on_c, 3, 69, 0
9, 9180, Note_on_c, 3, 74, 100
9, 9220, Note_on_c, 3, 74, 0
9, 9240, Note_on_c, 3, 74, 100
9, 9280, Note_on_c, 3, 74, 0
9, 9300, Note_on_c, 3, 69, 100
9, 9340, Note_on_c, 3, 69, 0
9, 9360, Note_on_c, 3, 66, 100
9, 9400, Note_on_c, 3, 66, 0
9, 9420, Note_on_c, 3, 69, 100
9, 9460, Note_on_c, 3, 69, 0
9, 9480, Note_on_c, 3, 74, 100
9, 9520, Note_on_c, 3, 74, 0
9, 9540, Note_on_c, 3, 78, 100
9, 9580, Note_on_c, 3, 78, 0
9, 9600, Note_on_c, 3, 78, 100
9, 9620, Note_on_c, 3, 78, 0
9, 9630, Note_on_c, 3, 76, 100
9, 9650, Note_on_c, 3, 76, 0
9, 9660, Note_on_c, 3, 74, 100
9, 9680, Note_on_c, 3, 74, 0
9, 9690, Note_on_c, 3, 73, 100
9, 9710, Note_on_c, 3, 73, 0
9, 9720, Note_on_c, 3, 74, 100
9, 9760, Note_on_c, 3, 74, 0
9, 9780, Note_on_c, 3, 66, 100
9, 9820, Note_on_c, 3, 66, 0
9, 10140, Note_on_c, 3, 66, 100
9, 10170, Note_on_c, 3, 67, 100
9, 10180, Note_on_c, 3, 66, 0
9, 10190, Note_on_c, 3, 67, 0
9, 10200, Note_on_c, 3, 69, 100
9, 10240, Note_on_c, 3, 69, 0
9, 10260, Note_on_c, 3, 74, 100
9, 10300, Note_on_c, 3, 74, 0
9, 10320, Note_on_c, 3, 74, 100
9, 10340, Note_on_c, 3, 74, 0
9, 10350, Note_on_c, 3, 76, 100
9, 10370, Note_on_c, 3, 76, 0
9, 10380, Note_on_c, 3, 74, 100
9, 10400, Note_on_c, 3, 74, 0
9, 10410, Note_on_c, 3, 73, 100
9, 10430, Note_on_c, 3, 73, 0
9, 10440, Note_on_c, 3, 74, 100
9, 10460, Note_on_c, 3, 74, 0
9, 10470, Note_on_c, 3, 73, 100
9, 10490, Note_on_c, 3, 73, 0
9, 10500, Note_on_c, 3, 74, 100
9, 10520, Note_on_c, 3, 74, 0
9, 10530, Note_on_c, 3, 76, 100
9, 10550, Note_on_c, 3, 76, 0
9, 10560, Note_on_c, 3, 78, 100
9, 10600, Note_on_c, 3, 78, 0
9, 10620, Note_on_c, 3, 74, 100
9, 10660, Note_on_c, 3, 74, 0
9, 10680, Note_on_c, 3, 74, 100
9, 10720, Note_on_c, 3, 74, 0
9, 10740, Note_on_c, 3, 73, 100
9, 10780, Note_on_c, 3, 73, 0
9, 10800, Note_on_c, 3, 74, 100
9, 10880, Note_on_c, 3, 74, 0
9, 11520, Note_on_c, 3, 66, 100
9, 11580, Note_on_c, 3, 66, 0
9, 11610, Note_on_c, 3, 67, 100
9, 11630, Note_on_c, 3, 67, 0
9, 11640, Note_on_c, 3, 66, 100
9, 11660, Note_on_c, 3, 66, 0
9, 11670, Note_on_c, 3, 64, 100
9, 11690, Note_on_c, 3, 64, 0
9, 11700, Note_on_c, 3, 62, 100
9, 11720, Note_on_c, 3, 62, 0
9, 11730, Note_on_c, 3, 64, 100
9, 11750, Note_on_c, 3, 64, 0
9, 11760, Note_on_c, 3, 66, 100
9, 11780, Note_on_c, 3, 66, 0
9, 11790, Note_on_c, 3, 67, 100
9, 11810, Note_on_c, 3, 67, 0
9, 11820, Note_on_c, 3, 66, 100
9, 11840, Note_on_c, 3, 66, 0
9, 11850, Note_on_c, 3, 67, 100
9, 11870, Note_on_c, 3, 67, 0
9, 11880, Note_on_c, 3, 66, 100
9, 11940, Note_on_c, 3, 66, 0
9, 11970, Note_on_c, 3, 67, 100
9, 11990, Note_on_c, 3, 67, 0
9, 12000, Note_on_c, 3, 66, 100
9, 12020, Note_on_c, 3, 66, 0
9, 12030, Note_on_c, 3, 64, 100
9, 12050, Note_on_c, 3, 64, 0
9, 12060, Note_on_c, 3, 62, 100
9, 12080, Note_on_c, 3, 62, 0
9, 12090, Note_on_c, 3, 64, 100
9, 12110, Note_on_c, 3, 64, 0
9, 12120, Note_on_c, 3, 66, 100
9, 12140, Note_on_c, 3, 66, 0
9, 12150, Note_on_c, 3, 67, 100
9, 12170, Note_on_c, 3, 67, 0
9, 12180, Note_on_c, 3, 66, 100
9, 12200, Note_on_c, 3, 66, 0
9, 12210, Note_on_c, 3, 67, 100
9, 12230, Note_on_c, 3, 67, 0
9, 12240, Note_on_c, 3, 66, 100
9, 12280, Note_on_c, 3, 66, 0
9, 13020, Note_on_c, 3, 66, 100
9, 13060, Note_on_c, 3, 66, 0
9, 13080, Note_on_c, 3, 74, 100
9, 13320, Note_on_c, 3, 76, 100
9, 13320, Note_on_c, 3, 76, 100
9, 13360, Note_on_c, 3, 74, 0
9, 13380, Note_on_c, 3, 64, 100
9, 13420, Note_on_c, 3, 64, 0
9, 13440, Note_on_c, 3, 73, 100
9, 13677, Note_on_c, 3, 76, 0
9, 13677, Note_on_c, 3, 76, 0
9, 13680, Note_on_c, 3, 74, 100
9, 13680, Note_on_c, 3, 74, 100
9, 13720, Note_on_c, 3, 73, 0
9, 13740, Note_on_c, 3, 62, 100
9, 13780, Note_on_c, 3, 62, 0
9, 13800, Note_on_c, 3, 66, 100
9, 13840, Note_on_c, 3, 66, 0
9, 13860, Note_on_c, 3, 69, 100
9, 13900, Note_on_c, 3, 69, 0
9, 13920, Note_on_c, 3, 69, 100
9, 13960, Note_on_c, 3, 69, 0
9, 13980, Note_on_c, 3, 66, 100
9, 14020, Note_on_c, 3, 66, 0
9, 14040, Note_on_c, 3, 62, 100
9, 14080, Note_on_c, 3, 62, 0
9, 14100, Note_on_c, 3, 66, 100
9, 14140, Note_on_c, 3, 66, 0
9, 14160, Note_on_c, 3, 69, 100
9, 14200, Note_on_c, 3, 69, 0
9, 14220, Note_on_c, 3, 74, 100
9, 14260, Note_on_c, 3, 74, 0
9, 14280, Note_on_c, 3, 74, 100
9, 14320, Note_on_c, 3, 74, 0
9, 14340, Note_on_c, 3, 71, 100
9, 14380, Note_on_c, 3, 71, 0
9, 14400, Note_on_c, 3, 71, 100
9, 14427, Note_on_c, 3, 74, 0
9, 14430, Note_on_c, 3, 76, 100
9, 14430, Note_on_c, 3, 76, 100
9, 14457, Note_on_c, 3, 76, 0
9, 14457, Note_on_c, 3, 76, 0
9, 14460, Note_on_c, 3, 74, 100
9, 14460, Note_on_c, 3, 74, 100
9, 14480, Note_on_c, 3, 71, 0
9, 14487, Note_on_c, 3, 74, 0
9, 14487, Note_on_c, 3, 74, 0
9, 14490, Note_on_c, 3, 76, 100
9, 14490, Note_on_c, 3, 76, 100
9, 14517, Note_on_c, 3, 76, 0
9, 14517, Note_on_c, 3, 76, 0
9, 14520, Note_on_c, 3, 78, 100
9, 14520, Note_on_c, 3, 78, 100
9, 14547, Note_on_c, 3, 78, 0
9, 14547, Note_on_c, 3, 78, 0
9, 14580, Note_on_c, 3, 71, 100
9, 14620, Note_on_c, 3, 71, 0
9, 14640, Note_on_c, 3, 71, 100
9, 14680, Note_on_c, 3, 71, 0
9, 14700, Note_on_c, 3, 69, 100
9, 14720, Note_on_c, 3, 69, 0
9, 14730, Note_on_c, 3, 68, 100
9, 14750, Note_on_c, 3, 68, 0
9, 14760, Note_on_c, 3, 76, 100
9, 14800, Note_on_c, 3, 76, 0
9, 14820, Note_on_c, 3, 69, 100
9, 14860, Note_on_c, 3, 69, 0
9, 14880, Note_on_c, 3, 73, 100
9, 14920, Note_on_c, 3, 73, 0
9, 14940, Note_on_c, 3, 76, 100
9, 14980, Note_on_c, 3, 76, 0
9, 15000, Note_on_c, 3, 76, 100
9, 15040, Note_on_c, 3, 76, 0
9, 15060, Note_on_c, 3, 74, 100
9, 15080, Note_on_c, 3, 74, 0
9, 15090, Note_on_c, 3, 73, 100
9, 15110, Note_on_c, 3, 73, 0
9, 15120, Note_on_c, 3, 81, 100
9, 15200, Note_on_c, 3, 81, 0
9, 15540, Note_on_c, 3, 64, 100
9, 15580, Note_on_c, 3, 64, 0
9, 15600, Note_on_c, 3, 69, 100
9, 15640, Note_on_c, 3, 69, 0
9, 15660, Note_on_c, 3, 73, 100
9, 15700, Note_on_c, 3, 73, 0
9, 15720, Note_on_c, 3, 64, 100
9, 15760, Note_on_c, 3, 64, 0
9, 15780, Note_on_c, 3, 71, 100
9, 15820, Note_on_c, 3, 71, 0
9, 15840, Note_on_c, 3, 73, 100
9, 15920, Note_on_c, 3, 73, 0
9, 16560, Note_on_c, 3, 73, 100
9, 17320, Note_on_c, 3, 73, 0
9, 18060, Note_on_c, 3, 69, 100
9, 18080, Note_on_c, 3, 69, 0
9, 18090, Note_on_c, 3, 71, 100
9, 18110, Note_on_c, 3, 71, 0
9, 18120, Note_on_c, 3, 73, 100
9, 18140, Note_on_c, 3, 73, 0
9, 18150, Note_on_c, 3, 74, 100
9, 18170, Note_on_c, 3, 74, 0
9, 18180, Note_on_c, 3, 76, 100
9, 18220, Note_on_c, 3, 76, 0
9, 18240, Note_on_c, 3, 73, 100
9, 18280, Note_on_c, 3, 73, 0
9, 18300, Note_on_c, 3, 69, 100
9, 18340, Note_on_c, 3, 69, 0
9, 18360, Note_on_c, 3, 73, 100
9, 18380, Note_on_c, 3, 73, 0
9, 18390, Note_on_c, 3, 74, 100
9, 18410, Note_on_c, 3, 74, 0
9, 18420, Note_on_c, 3, 76, 100
9, 18460, Note_on_c, 3, 76, 0
9, 18480, Note_on_c, 3, 76, 100
9, 18717, Note_on_c, 3, 76, 0
9, 18720, Note_on_c, 3, 74, 100
9, 19197, Note_on_c, 3, 74, 0
9, 19200, Note_on_c, 3, 73, 100
9, 19317, Note_on_c, 3, 73, 0
9, 19320, Note_on_c, 3, 71, 100
9, 19437, Note_on_c, 3, 71, 0
9, 19440, Note_on_c, 3, 69, 100
9, 20277, Note_on_c, 3, 69, 0
9, 20280, Note_on_c, 3, 66, 100
9, 20337, Note_on_c, 3, 66, 0
9, 20340, Note_on_c, 3, 62, 100
9, 20397, Note_on_c, 3, 62, 0
9, 20640, Note_on_c, 3, 69, 100
9, 20697, Note_on_c, 3, 69, 0
9, 20700, Note_on_c, 3, 66, 100
9, 20757, Note_on_c, 3, 66, 0
9, 21030, Note_on_c, 3, 69, 100
9, 21057, Note_on_c, 3, 69, 0
9, 21060, Note_on_c, 3, 67, 100
9, 21087, Note_on_c, 3, 67, 0
9, 21090, Note_on_c, 3, 66, 100
9, 21117, Note_on_c, 3, 66, 0
9, 21120, Note_on_c, 3, 64, 100
9, 21177, Note_on_c, 3, 64, 0
9, 21180, Note_on_c, 3, 69, 100
9, 21237, Note_on_c, 3, 69, 0
9, 21240, Note_on_c, 3, 69, 100
9, 21280, Note_on_c, 3, 69, 0
9, 21300, Note_on_c, 3, 74, 100
9, 21340, Note_on_c, 3, 74, 0
9, 21360, Note_on_c, 3, 66, 100
9, 21400, Note_on_c, 3, 66, 0
9, 21420, Note_on_c, 3, 78, 100
9, 21460, Note_on_c, 3, 78, 0
9, 21480, Note_on_c, 3, 76, 100
9, 21520, Note_on_c, 3, 76, 0
9, 21540, Note_on_c, 3, 69, 100
9, 21580, Note_on_c, 3, 69, 0
9, 21600, Note_on_c, 3, 69, 100
9, 21680, Note_on_c, 3, 69, 0
9, 22020, Note_on_c, 3, 66, 100
9, 22060, Note_on_c, 3, 66, 0
9, 22080, Note_on_c, 3, 71, 100
9, 22100, Note_on_c, 3, 71, 0
9, 22110, Note_on_c, 3, 73, 100
9, 22130, Note_on_c, 3, 73, 0
9, 22140, Note_on_c, 3, 74, 100
9, 22180, Note_on_c, 3, 74, 0
9, 22200, Note_on_c, 3, 74, 100
9, 22220, Note_on_c, 3, 74, 0
9, 22230, Note_on_c, 3, 73, 100
9, 22250, Note_on_c, 3, 73, 0
9, 22260, Note_on_c, 3, 71, 100
9, 22280, Note_on_c, 3, 71, 0
9, 22290, Note_on_c, 3, 70, 100
9, 22310, Note_on_c, 3, 70, 0
9, 22320, Note_on_c, 3, 71, 100
9, 22360, Note_on_c, 3, 71, 0
9, 22380, Note_on_c, 3, 66, 100
9, 22420, Note_on_c, 3, 66, 0
9, 23940, Note_on_c, 3, 71, 100
9, 23960, Note_on_c, 3, 71, 0
9, 23970, Note_on_c, 3, 72, 100
9, 23990, Note_on_c, 3, 72, 0
9, 24000, Note_on_c, 3, 71, 100
9, 24020, Note_on_c, 3, 71, 0
9, 24030, Note_on_c, 3, 69, 100
9, 24050, Note_on_c, 3, 69, 0
9, 24060, Note_on_c, 3, 67, 100
9, 24080, Note_on_c, 3, 67, 0
9, 24090, Note_on_c, 3, 66, 100
9, 24110, Note_on_c, 3, 66, 0
9, 24120, Note_on_c, 3, 64, 100
9, 24160, Note_on_c, 3, 64, 0
9, 24180, Note_on_c, 3, 72, 100
9, 24220, Note_on_c, 3, 72, 0
9, 24300, Note_on_c, 3, 69, 100
9, 24320, Note_on_c, 3, 69, 0
9, 24330, Note_on_c, 3, 71, 100
9, 24350, Note_on_c, 3, 71, 0
9, 24360, Note_on_c, 3, 69, 100
9, 24380, Note_on_c, 3, 69, 0
9, 24390, Note_on_c, 3, 67, 100
9, 24410, Note_on_c, 3, 67, 0
9, 24420, Note_on_c, 3, 66, 100
9, 24440, Note_on_c, 3, 66, 0
9, 24450, Note_on_c, 3, 64, 100
9, 24470, Note_on_c, 3, 64, 0
9, 24480, Note_on_c, 3, 62, 100
9, 24520, Note_on_c, 3, 62, 0
9, 24540, Note_on_c, 3, 74, 100
9, 24560, Note_on_c, 3, 74, 0
9, 24570, Note_on_c, 3, 76, 100
9, 24590, Note_on_c, 3, 76, 0
9, 24600, Note_on_c, 3, 74, 100
9, 24620, Note_on_c, 3, 74, 0
9, 24630, Note_on_c, 3, 72, 100
9, 24650, Note_on_c, 3, 72, 0
9, 24660, Note_on_c, 3, 71, 100
9, 24680, Note_on_c, 3, 71, 0
9, 24690, Note_on_c, 3, 69, 100
9, 24710, Note_on_c, 3, 69, 0
9, 24720, Note_on_c, 3, 67, 100
9, 24740, Note_on_c, 3, 67, 0
9, 24750, Note_on_c, 3, 66, 100
9, 24770, Note_on_c, 3, 66, 0
9, 24780, Note_on_c, 3, 64, 100
9, 24800, Note_on_c, 3, 64, 0
9, 24810, Note_on_c, 3, 66, 100
9, 24830, Note_on_c, 3, 66, 0
9, 24840, Note_on_c, 3, 67, 100
9, 24860, Note_on_c, 3, 67, 0
9, 24870, Note_on_c, 3, 66, 100
9, 24890, Note_on_c, 3, 66, 0
9, 24900, Note_on_c, 3, 67, 100
9, 24920, Note_on_c, 3, 67, 0
9, 24930, Note_on_c, 3, 69, 100
9, 24950, Note_on_c, 3, 69, 0
9, 24960, Note_on_c, 3, 67, 100
9, 24980, Note_on_c, 3, 67, 0
9, 24990, Note_on_c, 3, 66, 100
9, 25010, Note_on_c, 3, 66, 0
9, 25020, Note_on_c, 3, 64, 100
9, 25040, Note_on_c, 3, 64, 0
9, 25050, Note_on_c, 3, 74, 100
9, 25070, Note_on_c, 3, 74, 0
9, 25080, Note_on_c, 3, 73, 100
9, 25100, Note_on_c, 3, 73, 0
9, 25110, Note_on_c, 3, 71, 100
9, 25130, Note_on_c, 3, 71, 0
9, 25140, Note_on_c, 3, 69, 100
9, 25160, Note_on_c, 3, 69, 0
9, 25170, Note_on_c, 3, 71, 100
9, 25190, Note_on_c, 3, 71, 0
9, 25200, Note_on_c, 3, 73, 100
9, 25240, Note_on_c, 3, 73, 0
9, 25260, Note_on_c, 3, 64, 100
9, 25300, Note_on_c, 3, 64, 0
9, 25320, Note_on_c, 3, 64, 100
9, 25360, Note_on_c, 3, 64, 0
9, 25380, Note_on_c, 3, 67, 100
9, 25420, Note_on_c, 3, 67, 0
9, 25440, Note_on_c, 3, 67, 100
9, 25480, Note_on_c, 3, 67, 0
9, 25500, Note_on_c, 3, 66, 100
9, 25520, Note_on_c, 3, 66, 0
9, 25560, Note_on_c, 3, 62, 100
9, 25600, Note_on_c, 3, 62, 0
9, 25620, Note_on_c, 3, 66, 100
9, 25660, Note_on_c, 3, 66, 0
9, 25680, Note_on_c, 3, 69, 100
9, 25720, Note_on_c, 3, 69, 0
9, 25740, Note_on_c, 3, 72, 100
9, 25780, Note_on_c, 3, 72, 0
9, 25800, Note_on_c, 3, 72, 100
9, 25840, Note_on_c, 3, 72, 0
9, 25860, Note_on_c, 3, 71, 100
9, 25880, Note_on_c, 3, 71, 0
9, 25890, Note_on_c, 3, 69, 100
9, 25910, Note_on_c, 3, 69, 0
9, 25920, Note_on_c, 3, 67, 100
9, 26000, Note_on_c, 3, 67, 0
9, 26340, Note_on_c, 3, 69, 100
9, 26380, Note_on_c, 3, 69, 0
9, 26400, Note_on_c, 3, 74, 100
9, 26440, Note_on_c, 3, 74, 0
9, 26460, Note_on_c, 3, 78, 100
9, 26500, Note_on_c, 3, 78, 0
9, 26520, Note_on_c, 3, 69, 100
9, 26560, Note_on_c, 3, 69, 0
9, 26580, Note_on_c, 3, 76, 100
9, 26620, Note_on_c, 3, 76, 0
9, 26640, Note_on_c, 3, 78, 100
9, 26680, Note_on_c, 3, 78, 0
9, 26700, Note_on_c, 3, 62, 100
9, 26720, Note_on_c, 3, 62, 0
9, 26730, Note_on_c, 3, 64, 100
9, 26750, Note_on_c, 3, 64, 0
9, 26760, Note_on_c, 3, 66, 100
9, 26780, Note_on_c, 3, 66, 0
9, 26790, Note_on_c, 3, 67, 100
9, 26810, Note_on_c, 3, 67, 0
9, 26820, Note_on_c, 3, 69, 100
9, 26840, Note_on_c, 3, 69, 0
9, 26850, Note_on_c, 3, 67, 100
9, 26870, Note_on_c, 3, 67, 0
9, 26880, Note_on_c, 3, 71, 100
9, 26900, Note_on_c, 3, 71, 0
9, 26910, Note_on_c, 3, 69, 100
9, 26930, Note_on_c, 3, 69, 0
9, 26940, Note_on_c, 3, 67, 100
9, 26960, Note_on_c, 3, 67, 0
9, 26970, Note_on_c, 3, 66, 100
9, 26990, Note_on_c, 3, 66, 0
9, 27000, Note_on_c, 3, 64, 100
9, 27020, Note_on_c, 3, 64, 0
9, 27030, Note_on_c, 3, 69, 100
9, 27050, Note_on_c, 3, 69, 0
9, 27060, Note_on_c, 3, 67, 100
9, 27080, Note_on_c, 3, 67, 0
9, 27090, Note_on_c, 3, 66, 100
9, 27110, Note_on_c, 3, 66, 0
9, 27120, Note_on_c, 3, 64, 100
9, 27140, Note_on_c, 3, 64, 0
9, 27150, Note_on_c, 3, 66, 100
9, 27170, Note_on_c, 3, 66, 0
9, 27180, Note_on_c, 3, 64, 100
9, 27200, Note_on_c, 3, 64, 0
9, 27210, Note_on_c, 3, 62, 100
9, 27230, Note_on_c, 3, 62, 0
9, 27240, Note_on_c, 3, 64, 100
9, 27280, Note_on_c, 3, 64, 0
9, 27390, Note_on_c, 3, 74, 100
9, 27410, Note_on_c, 3, 74, 0
9, 27420, Note_on_c, 3, 72, 100
9, 27440, Note_on_c, 3, 72, 0
9, 27450, Note_on_c, 3, 71, 100
9, 27470, Note_on_c, 3, 71, 0
9, 27480, Note_on_c, 3, 69, 100
9, 27500, Note_on_c, 3, 69, 0
9, 27510, Note_on_c, 3, 71, 100
9, 27530, Note_on_c, 3, 71, 0
9, 27540, Note_on_c, 3, 69, 100
9, 27560, Note_on_c, 3, 69, 0
9, 27570, Note_on_c, 3, 67, 100
9, 27590, Note_on_c, 3, 67, 0
9, 27600, Note_on_c, 3, 66, 100
9, 27640, Note_on_c, 3, 66, 0
9, 27780, Note_on_c, 3, 67, 100
9, 27820, Note_on_c, 3, 67, 0
9, 27840, Note_on_c, 3, 73, 100
9, 27880, Note_on_c, 3, 73, 0
9, 27900, Note_on_c, 3, 76, 100
9, 27940, Note_on_c, 3, 76, 0
9, 27960, Note_on_c, 3, 76, 100
9, 28000, Note_on_c, 3, 76, 0
9, 28020, Note_on_c, 3, 64, 100
9, 28060, Note_on_c, 3, 64, 0
9, 28080, Note_on_c, 3, 69, 100
9, 28140, Note_on_c, 3, 69, 0
9, 28170, Note_on_c, 3, 71, 100
9, 28190, Note_on_c, 3, 71, 0
9, 28200, Note_on_c, 3, 73, 100
9, 28220, Note_on_c, 3, 73, 0
9, 28230, Note_on_c, 3, 71, 100
9, 28250, Note_on_c, 3, 71, 0
9, 28260, Note_on_c, 3, 69, 100
9, 28280, Note_on_c, 3, 69, 0
9, 28290, Note_on_c, 3, 71, 100
9, 28310, Note_on_c, 3, 71, 0
9, 28320, Note_on_c, 3, 73, 100
9, 28340, Note_on_c, 3, 73, 0
9, 28350, Note_on_c, 3, 74, 100
9, 28370, Note_on_c, 3, 74, 0
9, 28380, Note_on_c, 3, 73, 100
9, 28400, Note_on_c, 3, 73, 0
9, 28410, Note_on_c, 3, 74, 100
9, 28430, Note_on_c, 3, 74, 0
9, 28440, Note_on_c, 3, 71, 100
9, 28460, Note_on_c, 3, 71, 0
9, 28470, Note_on_c, 3, 76, 100
9, 28490, Note_on_c, 3, 76, 0
9, 28500, Note_on_c, 3, 74, 100
9, 28520, Note_on_c, 3, 74, 0
9, 28530, Note_on_c, 3, 73, 100
9, 28550, Note_on_c, 3, 73, 0
9, 28560, Note_on_c, 3, 71, 100
9, 28580, Note_on_c, 3, 71, 0
9, 28590, Note_on_c, 3, 69, 100
9, 28610, Note_on_c, 3, 69, 0
9, 28620, Note_on_c, 3, 68, 100
9, 28640, Note_on_c, 3, 68, 0
9, 28650, Note_on_c, 3, 69, 100
9, 28670, Note_on_c, 3, 69, 0
9, 28680, Note_on_c, 3, 71, 100
9, 28700, Note_on_c, 3, 71, 0
9, 28710, Note_on_c, 3, 73, 100
9, 28730, Note_on_c, 3, 73, 0
9, 28740, Note_on_c, 3, 69, 100
9, 28760, Note_on_c, 3, 69, 0
9, 28770, Note_on_c, 3, 71, 100
9, 28790, Note_on_c, 3, 71, 0
9, 28800, Note_on_c, 3, 73, 100
9, 28860, Note_on_c, 3, 73, 0
9, 28890, Note_on_c, 3, 74, 100
9, 28910, Note_on_c, 3, 74, 0
9, 28920, Note_on_c, 3, 73, 100
9, 28940, Note_on_c, 3, 73, 0
9, 28950, Note_on_c, 3, 71, 100
9, 28970, Note_on_c, 3, 71, 0
9, 28980, Note_on_c, 3, 69, 100
9, 29000, Note_on_c, 3, 69, 0
9, 29010, Note_on_c, 3, 71, 100
9, 29030, Note_on_c, 3, 71, 0
9, 29040, Note_on_c, 3, 73, 100
9, 29060, Note_on_c, 3, 73, 0
9, 29070, Note_on_c, 3, 74, 100
9, 29090, Note_on_c, 3, 74, 0
9, 29100, Note_on_c, 3, 71, 100
9, 29120, Note_on_c, 3, 71, 0
9, 29130, Note_on_c, 3, 73, 100
9, 29150, Note_on_c, 3, 73, 0
9, 29160, Note_on_c, 3, 74, 100
9, 29920, Note_on_c, 3, 74, 0
9, 29940, Note_on_c, 3, 62, 100
9, 29980, Note_on_c, 3, 62, 0
9, 30000, Note_on_c, 3, 66, 100
9, 30040, Note_on_c, 3, 66, 0
9, 30060, Note_on_c, 3, 69, 100
9, 30062, Note_on_c, 3, 74, 0
9, 30100, Note_on_c, 3, 69, 0
9, 30120, Note_on_c, 3, 69, 100
9, 30160, Note_on_c, 3, 69, 0
9, 30180, Note_on_c, 3, 66, 100
9, 30220, Note_on_c, 3, 66, 0
9, 30240, Note_on_c, 3, 62, 100
9, 30280, Note_on_c, 3, 62, 0
9, 30300, Note_on_c, 3, 66, 100
9, 30340, Note_on_c, 3, 66, 0
9, 30360, Note_on_c, 3, 69, 100
9, 30400, Note_on_c, 3, 69, 0
9, 30420, Note_on_c, 3, 74, 100
9, 30460, Note_on_c, 3, 74, 0
9, 30480, Note_on_c, 3, 74, 100
9, 30520, Note_on_c, 3, 74, 0
9, 30540, Note_on_c, 3, 69, 100
9, 30580, Note_on_c, 3, 69, 0
9, 30600, Note_on_c, 3, 66, 100
9, 30640, Note_on_c, 3, 66, 0
9, 30660, Note_on_c, 3, 69, 100
9, 30700, Note_on_c, 3, 69, 0
9, 30720, Note_on_c, 3, 74, 100
9, 30760, Note_on_c, 3, 74, 0
9, 30780, Note_on_c, 3, 78, 100
9, 30820, Note_on_c, 3, 78, 0
9, 30840, Note_on_c, 3, 78, 100
9, 30860, Note_on_c, 3, 78, 0
9, 30870, Note_on_c, 3, 76, 100
9, 30890, Note_on_c, 3, 76, 0
9, 30900, Note_on_c, 3, 74, 100
9, 30920, Note_on_c, 3, 74, 0
9, 30930, Note_on_c, 3, 73, 100
9, 30950, Note_on_c, 3, 73, 0
9, 30960, Note_on_c, 3, 74, 100
9, 31000, Note_on_c, 3, 74, 0
9, 31020, Note_on_c, 3, 66, 100
9, 31060, Note_on_c, 3, 66, 0
9, 31380, Note_on_c, 3, 66, 100
9, 31410, Note_on_c, 3, 67, 100
9, 31420, Note_on_c, 3, 66, 0
9, 31430, Note_on_c, 3, 67, 0
9, 31440, Note_on_c, 3, 69, 100
9, 31480, Note_on_c, 3, 69, 0
9, 31500, Note_on_c, 3, 74, 100
9, 31540, Note_on_c, 3, 74, 0
9, 31560, Note_on_c, 3, 74, 100
9, 31580, Note_on_c, 3, 74, 0
9, 31590, Note_on_c, 3, 76, 100
9, 31610, Note_on_c, 3, 76, 0
9, 31620, Note_on_c, 3, 74, 100
9, 31640, Note_on_c, 3, 74, 0
9, 31650, Note_on_c, 3, 73, 100
9, 31670, Note_on_c, 3, 73, 0
9, 31680, Note_on_c, 3, 74, 100
9, 31700, Note_on_c, 3, 74, 0
9, 31710, Note_on_c, 3, 73, 100
9, 31730, Note_on_c, 3, 73, 0
9, 31740, Note_on_c, 3, 74, 100
9, 31760, Note_on_c, 3, 74, 0
9, 31770, Note_on_c, 3, 76, 100
9, 31790, Note_on_c, 3, 76, 0
9, 31800, Note_on_c, 3, 78, 100
9, 31840, Note_on_c, 3, 78, 0
9, 31860, Note_on_c, 3, 74, 100
9, 31900, Note_on_c, 3, 74, 0
9, 31920, Note_on_c, 3, 74, 100
9, 31960, Note_on_c, 3, 74, 0
9, 31980, Note_on_c, 3, 73, 100
9, 32020, Note_on_c, 3, 73, 0
9, 32040, Note_on_c, 3, 74, 100
9, 32120, Note_on_c, 3, 74, 0
9, 61080, Note_on_c, 3, 66, 100
9, 61110, Note_on_c, 3, 66, 0
9, 61110, Note_on_c, 3, 68, 100
9, 61140, Note_on_c, 3, 68, 0
9, 61140, Note_on_c, 3, 69, 100
9, 61170, Note_on_c, 3, 69, 0
9, 61170, Note_on_c, 3, 66, 100
9, 61200, Note_on_c, 3, 66, 0
9, 61200, Note_on_c, 3, 68, 100
9, 61230, Note_on_c, 3, 68, 0
9, 61230, Note_on_c, 3, 69, 100
9, 61260, Note_on_c, 3, 69, 0
9, 61260, Note_on_c, 3, 71, 100
9, 61290, Note_on_c, 3, 71, 0
9, 61290, Note_on_c, 3, 69, 100
9, 61320, Note_on_c, 3, 69, 0
9, 61320, Note_on_c, 3, 68, 100
9, 61350, Note_on_c, 3, 68, 0
9, 61350, Note_on_c, 3, 69, 100
9, 61380, Note_on_c, 3, 69, 0
9, 61380, Note_on_c, 3, 71, 100
9, 61410, Note_on_c, 3, 71, 0
9, 61410, Note_on_c, 3, 68, 100
9, 61440, Note_on_c, 3, 68, 0
9, 61440, Note_on_c, 3, 69, 100
9, 61470, Note_on_c, 3, 69, 0
9, 61470, Note_on_c, 3, 71, 100
9, 61500, Note_on_c, 3, 71, 0
9, 61500, Note_on_c, 3, 73, 100
9, 61620, Note_on_c, 3, 73, 0
9, 61740, Note_on_c, 3, 73, 100
9, 61785, Note_on_c, 3, 73, 0
9, 61800, Note_on_c, 3, 73, 100
9, 61845, Note_on_c, 3, 73, 0
9, 61860, Note_on_c, 3, 73, 100
9, 61905, Note_on_c, 3, 73, 0
9, 61920, Note_on_c, 3, 73, 100
9, 61965, Note_on_c, 3, 73, 0
9, 61980, Note_on_c, 3, 73, 100
9, 62040, Note_on_c, 3, 73, 0
9, 62040, Note_on_c, 3, 71, 90
9, 62070, Note_on_c, 3, 71, 0
9, 62070, Note_on_c, 3, 69, 90
9, 62100, Note_on_c, 3, 69, 0
9, 62100, Note_on_c, 3, 68, 100
9, 62160, Note_on_c, 3, 68, 0
9, 62160, Note_on_c, 3, 66, 100
9, 62220, Note_on_c, 3, 66, 0
9, 62220, Note_on_c, 3, 65, 90
9, 62250, Note_on_c, 3, 65, 0
9, 62250, Note_on_c, 3, 63, 90
9, 62280, Note_on_c, 3, 63, 0
9, 62280, Note_on_c, 3, 61, 90
9, 62310, Note_on_c, 3, 61, 0
9, 62310, Note_on_c, 3, 63, 90
9, 62340, Note_on_c, 3, 63, 0
9, 62340, Note_on_c, 3, 65, 90
9, 62370, Note_on_c, 3, 65, 0
9, 62370, Note_on_c, 3, 61, 90
9, 62400, Note_on_c, 3, 61, 0
9, 62400, Note_on_c, 3, 63, 90
9, 62430, Note_on_c, 3, 63, 0
9, 62430, Note_on_c, 3, 65, 90
9, 62460, Note_on_c, 3, 65, 0
9, 62460, Note_on_c, 3, 66, 90
9, 62490, Note_on_c, 3, 66, 0
9, 62490, Note_on_c, 3, 65, 90
9, 62520, Note_on_c, 3, 65, 0
9, 62520, Note_on_c, 3, 66, 90
9, 62550, Note_on_c, 3, 66, 0
9, 62550, Note_on_c, 3, 68, 90
9, 62580, Note_on_c, 3, 68, 0
9, 62580, Note_on_c, 3, 69, 90
9, 62610, Note_on_c, 3, 69, 0
9, 62610, Note_on_c, 3, 68, 90
9, 62640, Note_on_c, 3, 68, 0
9, 62640, Note_on_c, 3, 69, 90
9, 62670, Note_on_c, 3, 69, 0
9, 62670, Note_on_c, 3, 71, 90
9, 62700, Note_on_c, 3, 71, 0
9, 62700, Note_on_c, 3, 73, 90
9, 62760, Note_on_c, 3, 73, 0
9, 62760, Note_on_c, 3, 61, 90
9, 62820, Note_on_c, 3, 61, 0
9, 62820, Note_on_c, 3, 73, 90
9, 62880, Note_on_c, 3, 73, 0
9, 62880, Note_on_c, 3, 68, 90
9, 62940, Note_on_c, 3, 68, 0
9, 62940, Note_on_c, 3, 69, 90
9, 62968, Note_on_c, 3, 69, 0
9, 62970, Note_on_c, 3, 68, 90
9, 62998, Note_on_c, 3, 68, 0
9, 63000, Note_on_c, 3, 69, 90
9, 63028, Note_on_c, 3, 69, 0
9, 63030, Note_on_c, 3, 71, 90
9, 63058, Note_on_c, 3, 71, 0
9, 63060, Note_on_c, 3, 73, 90
9, 63088, Note_on_c, 3, 73, 0
9, 63090, Note_on_c, 3, 71, 90
9, 63118, Note_on_c, 3, 71, 0
9, 63120, Note_on_c, 3, 73, 90
9, 63148, Note_on_c, 3, 73, 0
9, 63150, Note_on_c, 3, 74, 90
9, 63178, Note_on_c, 3, 74, 0
9, 63180, Note_on_c, 3, 68, 90
9, 63238, Note_on_c, 3, 68, 0
9, 63240, Note_on_c, 3, 68, 90
9, 63298, Note_on_c, 3, 68, 0
9, 63300, Note_on_c, 3, 68, 90
9, 63358, Note_on_c, 3, 68, 0
9, 63360, Note_on_c, 3, 68, 90
9, 63418, Note_on_c, 3, 68, 0
9, 63420, Note_on_c, 3, 68, 90
9, 63478, Note_on_c, 3, 68, 0
9, 63480, Note_on_c, 3, 66, 90
9, 63508, Note_on_c, 3, 66, 0
9, 63510, Note_on_c, 3, 64, 90
9, 63538, Note_on_c, 3, 64, 0
9, 63540, Note_on_c, 3, 62, 90
9, 63598, Note_on_c, 3, 62, 0
9, 63600, Note_on_c, 3, 61, 90
9, 63658, Note_on_c, 3, 61, 0
9, 63660, Note_on_c, 3, 59, 90
9, 63718, Note_on_c, 3, 59, 0
9, 63720, Note_on_c, 3, 61, 90
9, 63748, Note_on_c, 3, 61, 0
9, 63750, Note_on_c, 3, 62, 90
9, 63778, Note_on_c, 3, 62, 0
9, 63780, Note_on_c, 3, 64, 90
9, 63958, Note_on_c, 3, 64, 0
9, 63960, Note_on_c, 3, 73, 90
9, 63988, Note_on_c, 3, 73, 0
9, 63990, Note_on_c, 3, 71, 90
9, 64018, Note_on_c, 3, 71, 0
9, 64020, Note_on_c, 3, 69, 90
9, 64048, Note_on_c, 3, 69, 0
9, 64050, Note_on_c, 3, 71, 90
9, 64078, Note_on_c, 3, 71, 0
9, 64080, Note_on_c, 3, 69, 90
9, 64108, Note_on_c, 3, 69, 0
9, 64110, Note_on_c, 3, 68, 90
9, 64138, Note_on_c, 3, 68, 0
9, 64140, Note_on_c, 3, 66, 90
9, 64198, Note_on_c, 3, 66, 0
9, 64200, Note_on_c, 3, 71, 90
9, 64228, Note_on_c, 3, 71, 0
9, 64230, Note_on_c, 3, 73, 90
9, 64258, Note_on_c, 3, 73, 0
9, 64260, Note_on_c, 3, 74, 90
9, 64288, Note_on_c, 3, 74, 0
9, 64290, Note_on_c, 3, 71, 90
9, 64318, Note_on_c, 3, 71, 0
9, 64320, Note_on_c, 3, 73, 90
9, 64348, Note_on_c, 3, 73, 0
9, 64350, Note_on_c, 3, 74, 90
9, 64378, Note_on_c, 3, 74, 0
9, 64380, Note_on_c, 3, 76, 90
9, 64438, Note_on_c, 3, 76, 0
9, 64440, Note_on_c, 3, 76, 90
9, 64498, Note_on_c, 3, 76, 0
9, 64500, Note_on_c, 3, 76, 90
9, 64558, Note_on_c, 3, 76, 0
9, 64560, Note_on_c, 3, 76, 90
9, 64618, Note_on_c, 3, 76, 0
9, 64620, Note_on_c, 3, 76, 90
9, 64678, Note_on_c, 3, 76, 0
9, 64680, Note_on_c, 3, 74, 90
9, 64708, Note_on_c, 3, 74, 0
9, 64710, Note_on_c, 3, 73, 90
9, 64738, Note_on_c, 3, 73, 0
9, 64740, Note_on_c, 3, 71, 90
9, 64798, Note_on_c, 3, 71, 0
9, 64800, Note_on_c, 3, 69, 90
9, 64858, Note_on_c, 3, 69, 0
9, 64860, Note_on_c, 3, 68, 90
9, 64918, Note_on_c, 3, 68, 0
9, 64920, Note_on_c, 3, 69, 90
9, 64948, Note_on_c, 3, 69, 0
9, 64950, Note_on_c, 3, 71, 90
9, 64978, Note_on_c, 3, 71, 0
9, 64980, Note_on_c, 3, 73, 90
9, 65130, Note_on_c, 3, 73, 0
9, 65130, Note_on_c, 3, 71, 90
9, 65158, Note_on_c, 3, 71, 0
9, 65160, Note_on_c, 3, 73, 90
9, 65188, Note_on_c, 3, 73, 0
9, 65190, Note_on_c, 3, 74, 90
9, 65218, Note_on_c, 3, 74, 0
9, 65220, Note_on_c, 3, 71, 90
9, 65338, Note_on_c, 3, 71, 0
9, 65340, Note_on_c, 3, 69, 90
9, 65458, Note_on_c, 3, 69, 0
9, 66060, Note_on_c, 3, 71, 90
9, 66119, Note_on_c, 3, 71, 0
9, 66120, Note_on_c, 3, 71, 90
9, 66179, Note_on_c, 3, 71, 0
9, 66180, Note_on_c, 3, 71, 90
9, 66239, Note_on_c, 3, 71, 0
9, 66240, Note_on_c, 3, 71, 90
9, 66299, Note_on_c, 3, 71, 0
9, 66300, Note_on_c, 3, 71, 90
9, 66359, Note_on_c, 3, 71, 0
9, 66360, Note_on_c, 3, 69, 90
9, 66389, Note_on_c, 3, 69, 0
9, 66390, Note_on_c, 3, 67, 90
9, 66419, Note_on_c, 3, 67, 0
9, 66420, Note_on_c, 3, 66, 90
9, 66479, Note_on_c, 3, 66, 0
9, 66480, Note_on_c, 3, 64, 90
9, 66539, Note_on_c, 3, 64, 0
9, 66540, Note_on_c, 3, 62, 90
9, 66569, Note_on_c, 3, 62, 0
9, 66570, Note_on_c, 3, 61, 90
9, 66599, Note_on_c, 3, 61, 0
9, 66600, Note_on_c, 3, 59, 90
9, 66629, Note_on_c, 3, 59, 0
9, 66630, Note_on_c, 3, 61, 90
9, 66659, Note_on_c, 3, 61, 0
9, 66660, Note_on_c, 3, 62, 90
9, 66689, Note_on_c, 3, 62, 0
9, 66690, Note_on_c, 3, 61, 90
9, 66719, Note_on_c, 3, 61, 0
9, 66720, Note_on_c, 3, 62, 90
9, 66749, Note_on_c, 3, 62, 0
9, 66750, Note_on_c, 3, 64, 90
9, 66779, Note_on_c, 3, 64, 0
9, 66780, Note_on_c, 3, 66, 90
9, 66809, Note_on_c, 3, 66, 0
9, 66810, Note_on_c, 3, 62, 90
9, 66839, Note_on_c, 3, 62, 0
9, 66840, Note_on_c, 3, 63, 90
9, 66869, Note_on_c, 3, 63, 0
9, 66870, Note_on_c, 3, 65, 90
9, 66899, Note_on_c, 3, 65, 0
9, 66900, Note_on_c, 3, 66, 90
9, 66929, Note_on_c, 3, 66, 0
9, 66930, Note_on_c, 3, 65, 90
9, 66959, Note_on_c, 3, 65, 0
9, 66960, Note_on_c, 3, 66, 90
9, 66989, Note_on_c, 3, 66, 0
9, 66990, Note_on_c, 3, 68, 90
9, 67019, Note_on_c, 3, 68, 0
9, 67020, Note_on_c, 3, 69, 90
9, 67079, Note_on_c, 3, 69, 0
9, 67080, Note_on_c, 3, 73, 90
9, 67139, Note_on_c, 3, 73, 0
9, 67260, Note_on_c, 3, 73, 90
9, 67319, Note_on_c, 3, 73, 0
9, 67320, Note_on_c, 3, 73, 90
9, 67379, Note_on_c, 3, 73, 0
9, 67380, Note_on_c, 3, 73, 90
9, 67439, Note_on_c, 3, 73, 0
9, 67440, Note_on_c, 3, 73, 90
9, 67499, Note_on_c, 3, 73, 0
9, 67500, Note_on_c, 3, 73, 90
9, 67559, Note_on_c, 3, 73, 0
9, 67560, Note_on_c, 3, 71, 90
9, 67589, Note_on_c, 3, 71, 0
9, 67590, Note_on_c, 3, 69, 90
9, 67619, Note_on_c, 3, 69, 0
9, 67620, Note_on_c, 3, 68, 90
9, 67679, Note_on_c, 3, 68, 0
9, 67680, Note_on_c, 3, 66, 90
9, 67739, Note_on_c, 3, 66, 0
9, 67740, Note_on_c, 3, 65, 90
9, 67769, Note_on_c, 3, 65, 0
9, 67770, Note_on_c, 3, 63, 90
9, 67799, Note_on_c, 3, 63, 0
9, 67800, Note_on_c, 3, 61, 90
9, 67829, Note_on_c, 3, 61, 0
9, 67830, Note_on_c, 3, 63, 90
9, 67859, Note_on_c, 3, 63, 0
9, 67860, Note_on_c, 3, 65, 90
9, 67889, Note_on_c, 3, 65, 0
9, 67890, Note_on_c, 3, 63, 90
9, 67919, Note_on_c, 3, 63, 0
9, 67920, Note_on_c, 3, 65, 90
9, 67949, Note_on_c, 3, 65, 0
9, 67950, Note_on_c, 3, 66, 90
9, 67979, Note_on_c, 3, 66, 0
9, 67980, Note_on_c, 3, 68, 90
9, 68009, Note_on_c, 3, 68, 0
9, 68010, Note_on_c, 3, 66, 90
9, 68039, Note_on_c, 3, 66, 0
9, 68040, Note_on_c, 3, 65, 90
9, 68069, Note_on_c, 3, 65, 0
9, 68070, Note_on_c, 3, 66, 90
9, 68099, Note_on_c, 3, 66, 0
9, 68100, Note_on_c, 3, 68, 90
9, 68129, Note_on_c, 3, 68, 0
9, 68130, Note_on_c, 3, 65, 90
9, 68159, Note_on_c, 3, 65, 0
9, 68160, Note_on_c, 3, 66, 90
9, 68189, Note_on_c, 3, 66, 0
9, 68190, Note_on_c, 3, 68, 90
9, 68219, Note_on_c, 3, 68, 0
9, 68220, Note_on_c, 3, 69, 90
9, 68279, Note_on_c, 3, 69, 0
9, 68280, Note_on_c, 3, 69, 90
9, 68339, Note_on_c, 3, 69, 0
9, 68340, Note_on_c, 3, 69, 90
9, 68399, Note_on_c, 3, 69, 0
9, 68400, Note_on_c, 3, 69, 90
9, 68459, Note_on_c, 3, 69, 0
9, 68460, Note_on_c, 3, 69, 90
9, 68519, Note_on_c, 3, 69, 0
9, 68520, Note_on_c, 3, 68, 90
9, 68549, Note_on_c, 3, 68, 0
9, 68550, Note_on_c, 3, 66, 90
9, 68579, Note_on_c, 3, 66, 0
9, 68580, Note_on_c, 3, 64, 90
9, 68639, Note_on_c, 3, 64, 0
9, 68640, Note_on_c, 3, 62, 90
9, 68699, Note_on_c, 3, 62, 0
9, 68700, Note_on_c, 3, 61, 90
9, 68759, Note_on_c, 3, 61, 0
9, 68760, Note_on_c, 3, 62, 90
9, 68789, Note_on_c, 3, 62, 0
9, 68790, Note_on_c, 3, 64, 90
9, 68819, Note_on_c, 3, 64, 0
9, 68820, Note_on_c, 3, 66, 90
9, 68999, Note_on_c, 3, 66, 0
9, 69000, Note_on_c, 3, 67, 90
9, 69029, Note_on_c, 3, 67, 0
9, 69030, Note_on_c, 3, 66, 90
9, 69059, Note_on_c, 3, 66, 0
9, 69060, Note_on_c, 3, 64, 90
9, 69119, Note_on_c, 3, 64, 0
9, 69120, Note_on_c, 3, 62, 90
9, 69179, Note_on_c, 3, 62, 0
9, 69180, Note_on_c, 3, 61, 90
9, 69239, Note_on_c, 3, 61, 0
9, 69240, Note_on_c, 3, 76, 90
9, 69299, Note_on_c, 3, 76, 0
9, 69300, Note_on_c, 3, 76, 90
9, 69359, Note_on_c, 3, 76, 0
9, 69360, Note_on_c, 3, 76, 90
9, 69419, Note_on_c, 3, 76, 0
9, 69420, Note_on_c, 3, 76, 90
9, 69479, Note_on_c, 3, 76, 0
9, 69480, Note_on_c, 3, 74, 90
9, 69509, Note_on_c, 3, 74, 0
9, 69510, Note_on_c, 3, 73, 90
9, 69539, Note_on_c, 3, 73, 0
9, 69540, Note_on_c, 3, 71, 90
9, 69599, Note_on_c, 3, 71, 0
9, 69600, Note_on_c, 3, 69, 90
9, 69659, Note_on_c, 3, 69, 0
9, 69660, Note_on_c, 3, 68, 90
9, 69719, Note_on_c, 3, 68, 0
9, 69720, Note_on_c, 3, 69, 90
9, 69749, Note_on_c, 3, 69, 0
9, 69750, Note_on_c, 3, 71, 90
9, 69779, Note_on_c, 3, 71, 0
9, 69780, Note_on_c, 3, 73, 90
9, 69959, Note_on_c, 3, 73, 0
9, 69960, Note_on_c, 3, 75, 90
9, 69989, Note_on_c, 3, 75, 0
9, 69990, Note_on_c, 3, 73, 90
9, 70019, Note_on_c, 3, 73, 0
9, 70020, Note_on_c, 3, 72, 90
9, 70079, Note_on_c, 3, 72, 0
9, 70080, Note_on_c, 3, 73, 90
9, 70109, Note_on_c, 3, 73, 0
9, 70110, Note_on_c, 3, 75, 90
9, 70139, Note_on_c, 3, 75, 0
9, 70140, Note_on_c, 3, 66, 90
9, 70259, Note_on_c, 3, 66, 0
9, 70320, Note_on_c, 3, 68, 90
9, 70349, Note_on_c, 3, 68, 0
9, 70350, Note_on_c, 3, 66, 90
9, 70379, Note_on_c, 3, 66, 0
9, 70380, Note_on_c, 3, 64, 90
9, 70439, Note_on_c, 3, 64, 0
9, 70440, Note_on_c, 3, 61, 90
9, 70499, Note_on_c, 3, 61, 0
9, 70500, Note_on_c, 3, 68, 90
9, 70619, Note_on_c, 3, 68, 0
9, 70620, Note_on_c, 3, 68, 90
9, 70739, Note_on_c, 3, 68, 0
9, 70860, Note_on_c, 3, 73, 90
9, 70979, Note_on_c, 3, 73, 0
9, 71100, Note_on_c, 3, 77, 90
9, 71219, Note_on_c, 3, 77, 0
9, 71340, Note_on_c, 3, 80, 90
9, 71459, Note_on_c, 3, 80, 0
9, 71580, Note_on_c, 3, 77, 90
9, 71699, Note_on_c, 3, 77, 0
9, 71820, Note_on_c, 3, 73, 90
9, 71939, Note_on_c, 3, 73, 0
9, 72060, Note_on_c, 3, 77, 90
9, 72299, Note_on_c, 3, 77, 0
9, 72930, Note_on_c, 3, 68, 90
9, 72960, Note_on_c, 3, 68, 0
9, 72960, Note_on_c, 3, 69, 90
9, 72990, Note_on_c, 3, 69, 0
9, 72990, Note_on_c, 3, 71, 90
9, 73020, Note_on_c, 3, 71, 0
9, 73020, Note_on_c, 3, 73, 90
9, 73050, Note_on_c, 3, 73, 0
9, 73050, Note_on_c, 3, 71, 90
9, 73080, Note_on_c, 3, 71, 0
9, 73080, Note_on_c, 3, 69, 90
9, 73110, Note_on_c, 3, 69, 0
9, 73110, Note_on_c, 3, 71, 90
9, 73140, Note_on_c, 3, 71, 0
9, 73140, Note_on_c, 3, 73, 90
9, 73170, Note_on_c, 3, 73, 0
9, 73170, Note_on_c, 3, 71, 90
9, 73200, Note_on_c, 3, 71, 0
9, 73200, Note_on_c, 3, 73, 90
9, 73230, Note_on_c, 3, 73, 0
9, 73230, Note_on_c, 3, 74, 90
9, 73260, Note_on_c, 3, 74, 0
9, 73260, Note_on_c, 3, 68, 90
9, 73320, Note_on_c, 3, 68, 0
9, 73320, Note_on_c, 3, 71, 90
9, 73350, Note_on_c, 3, 71, 0
9, 73350, Note_on_c, 3, 69, 90
9, 73380, Note_on_c, 3, 69, 0
9, 73380, Note_on_c, 3, 68, 90
9, 73440, Note_on_c, 3, 68, 0
9, 73440, Note_on_c, 3, 68, 90
9, 73500, Note_on_c, 3, 68, 0
9, 73500, Note_on_c, 3, 66, 90
9, 73590, Note_on_c, 3, 66, 0
9, 73590, Note_on_c, 3, 68, 90
9, 73620, Note_on_c, 3, 68, 0
9, 73620, Note_on_c, 3, 65, 90
9, 73740, Note_on_c, 3, 65, 0
9, 73740, Note_on_c, 3, 66, 90
9, 73980, Note_on_c, 3, 66, 0
9, 117180, Control_c, 3, 0, 0
9, 117480, Note_on_c, 3, 71, 100
9, 117520, Note_on_c, 3, 71, 0
9, 117540, Note_on_c, 3, 67, 100
9, 117580, Note_on_c, 3, 67, 0
9, 117600, Note_on_c, 3, 62, 100
9, 117640, Note_on_c, 3, 62, 0
9, 117660, Note_on_c, 3, 64, 100
9, 117720, Note_on_c, 3, 64, 0
9, 117750, Note_on_c, 3, 64, 100
9, 117770, Note_on_c, 3, 64, 0
9, 117780, Note_on_c, 3, 64, 100
9, 117860, Note_on_c, 3, 64, 0
9, 117960, Note_on_c, 3, 71, 100
9, 118000, Note_on_c, 3, 71, 0
9, 118020, Note_on_c, 3, 67, 100
9, 118060, Note_on_c, 3, 67, 0
9, 118080, Note_on_c, 3, 74, 100
9, 118120, Note_on_c, 3, 74, 0
9, 118140, Note_on_c, 3, 67, 100
9, 118200, Note_on_c, 3, 67, 0
9, 118230, Note_on_c, 3, 67, 100
9, 118250, Note_on_c, 3, 67, 0
9, 118260, Note_on_c, 3, 67, 100
9, 118340, Note_on_c, 3, 67, 0
9, 119400, Note_on_c, 3, 78, 100
9, 119440, Note_on_c, 3, 78, 0
9, 119460, Note_on_c, 3, 74, 100
9, 119500, Note_on_c, 3, 74, 0
9, 119520, Note_on_c, 3, 69, 100
9, 119560, Note_on_c, 3, 69, 0
9, 119580, Note_on_c, 3, 71, 100
9, 119640, Note_on_c, 3, 71, 0
9, 119670, Note_on_c, 3, 71, 100
9, 119690, Note_on_c, 3, 71, 0
9, 119700, Note_on_c, 3, 71, 100
9, 119780, Note_on_c, 3, 71, 0
9, 119880, Note_on_c, 3, 78, 100
9, 119920, Note_on_c, 3, 78, 0
9, 119940, Note_on_c, 3, 74, 100
9, 119980, Note_on_c, 3, 74, 0
9, 120000, Note_on_c, 3, 81, 100
9, 120040, Note_on_c, 3, 81, 0
9, 120060, Note_on_c, 3, 74, 100
9, 120120, Note_on_c, 3, 74, 0
9, 120150, Note_on_c, 3, 74, 100
9, 120170, Note_on_c, 3, 74, 0
9, 120180, Note_on_c, 3, 74, 100
9, 120260, Note_on_c, 3, 74, 0
9, 121320, Note_on_c, 3, 71, 100
9, 121360, Note_on_c, 3, 71, 0
9, 121380, Note_on_c, 3, 67, 100
9, 121420, Note_on_c, 3, 67, 0
9, 121440, Note_on_c, 3, 62, 100
9, 121480, Note_on_c, 3, 62, 0
9, 121500, Note_on_c, 3, 64, 100
9, 121560, Note_on_c, 3, 64, 0
9, 121590, Note_on_c, 3, 64, 100
9, 121610, Note_on_c, 3, 64, 0
9, 121620, Note_on_c, 3, 64, 100
9, 121700, Note_on_c, 3, 64, 0
9, 121800, Note_on_c, 3, 71, 100
9, 121840, Note_on_c, 3, 71, 0
9, 121860, Note_on_c, 3, 67, 100
9, 121900, Note_on_c, 3, 67, 0
9, 121920, Note_on_c, 3, 74, 100
9, 121960, Note_on_c, 3, 74, 0
9, 121980, Note_on_c, 3, 67, 100
9, 122040, Note_on_c, 3, 67, 0
9, 122070, Note_on_c, 3, 67, 100
9, 122090, Note_on_c, 3, 67, 0
9, 122100, Note_on_c, 3, 67, 100
9, 122180, Note_on_c, 3, 67, 0
9, 123240, Note_on_c, 3, 78, 100
9, 123280, Note_on_c, 3, 78, 0
9, 123300, Note_on_c, 3, 74, 100
9, 123340, Note_on_c, 3, 74, 0
9, 123360, Note_on_c, 3, 69, 100
9, 123400, Note_on_c, 3, 69, 0
9, 123420, Note_on_c, 3, 71, 100
9, 123480, Note_on_c, 3, 71, 0
9, 123510, Note_on_c, 3, 71, 100
9, 123530, Note_on_c, 3, 71, 0
9, 123540, Note_on_c, 3, 71, 100
9, 123620, Note_on_c, 3, 71, 0
9, 123720, Note_on_c, 3, 78, 100
9, 123760, Note_on_c, 3, 78, 0
9, 123780, Note_on_c, 3, 74, 100
9, 123820, Note_on_c, 3, 74, 0
9, 123840, Note_on_c, 3, 81, 100
9, 123880, Note_on_c, 3, 81, 0
9, 123900, Note_on_c, 3, 74, 100
9, 123960, Note_on_c, 3, 74, 0
9, 123990, Note_on_c, 3, 74, 100
9, 124010, Note_on_c, 3, 74, 0
9, 124020, Note_on_c, 3, 74, 100
9, 124100, Note_on_c, 3, 74, 0
9, 125160, Note_on_c, 3, 73, 100
9, 125200, Note_on_c, 3, 73, 0
9, 125220, Note_on_c, 3, 69, 100
9, 125260, Note_on_c, 3, 69, 0
9, 125280, Note_on_c, 3, 64, 100
9, 125320, Note_on_c, 3, 64, 0
9, 125340, Note_on_c, 3, 66, 100
9, 125400, Note_on_c, 3, 66, 0
9, 125430, Note_on_c, 3, 66, 100
9, 125450, Note_on_c, 3, 66, 0
9, 125460, Note_on_c, 3, 66, 100
9, 125540, Note_on_c, 3, 66, 0
9, 125640, Note_on_c, 3, 73, 100
9, 125680, Note_on_c, 3, 73, 0
9, 125700, Note_on_c, 3, 69, 100
9, 125740, Note_on_c, 3, 69, 0
9, 125760, Note_on_c, 3, 76, 100
9, 125800, Note_on_c, 3, 76, 0
9, 125820, Note_on_c, 3, 69, 100
9, 125880, Note_on_c, 3, 69, 0
9, 125910, Note_on_c, 3, 69, 100
9, 125930, Note_on_c, 3, 69, 0
9, 125940, Note_on_c, 3, 69, 100
9, 126020, Note_on_c, 3, 69, 0
9, 126840, Note_on_c, 3, 62, 100
9, 126880, Note_on_c, 3, 62, 0
9, 126900, Note_on_c, 3, 66, 100
9, 126940, Note_on_c, 3, 66, 0
9, 126960, Note_on_c, 3, 62, 100
9, 127000, Note_on_c, 3, 62, 0
9, 127020, Note_on_c, 3, 69, 100
9, 127080, Note_on_c, 3, 69, 0
9, 127110, Note_on_c, 3, 69, 100
9, 127130, Note_on_c, 3, 69, 0
9, 127140, Note_on_c, 3, 69, 100
9, 127220, Note_on_c, 3, 69, 0
9, 127320, Note_on_c, 3, 67, 100
9, 127360, Note_on_c, 3, 67, 0
9, 127380, Note_on_c, 3, 71, 100
9, 127420, Note_on_c, 3, 71, 0
9, 127440, Note_on_c, 3, 74, 100
9, 127480, Note_on_c, 3, 74, 0
9, 127500, Note_on_c, 3, 74, 100
9, 127560, Note_on_c, 3, 74, 0
9, 127590, Note_on_c, 3, 74, 100
9, 127610, Note_on_c, 3, 74, 0
9, 127620, Note_on_c, 3, 74, 100
9, 127660, Note_on_c, 3, 74, 0
9, 127680, Note_on_c, 3, 74, 100
9, 127720, Note_on_c, 3, 74, 0
9, 127740, Note_on_c, 3, 74, 100
9, 127780, Note_on_c, 3, 74, 0
9, 127800, Note_on_c, 3, 62, 100
9, 127840, Note_on_c, 3, 62, 0
9, 127920, Note_on_c, 3, 74, 100
9, 127960, Note_on_c, 3, 74, 0
9, 127980, Note_on_c, 3, 71, 100
9, 128020, Note_on_c, 3, 71, 0
9, 128040, Note_on_c, 3, 67, 100
9, 128080, Note_on_c, 3, 67, 0
9, 128160, Note_on_c, 3, 73, 100
9, 128200, Note_on_c, 3, 73, 0
9, 128220, Note_on_c, 3, 69, 100
9, 128260, Note_on_c, 3, 69, 0
9, 128280, Note_on_c, 3, 66, 100
9, 128320, Note_on_c, 3, 66, 0
9, 128400, Note_on_c, 3, 76, 100
9, 128440, Note_on_c, 3, 76, 0
9, 128460, Note_on_c, 3, 74, 100
9, 128500, Note_on_c, 3, 74, 0
9, 128520, Note_on_c, 3, 69, 100
9, 128540, Note_on_c, 3, 69, 0
9, 128550, Note_on_c, 3, 73, 100
9, 128570, Note_on_c, 3, 73, 0
9, 128580, Note_on_c, 3, 74, 100
9, 128620, Note_on_c, 3, 74, 0
9, 128640, Note_on_c, 3, 69, 100
9, 128660, Note_on_c, 3, 69, 0
9, 128670, Note_on_c, 3, 76, 100
9, 128690, Note_on_c, 3, 76, 0
9, 128700, Note_on_c, 3, 64, 100
9, 128740, Note_on_c, 3, 64, 0
9, 128760, Note_on_c, 3, 61, 100
9, 128780, Note_on_c, 3, 61, 0
9, 128790, Note_on_c, 3, 64, 100
9, 128810, Note_on_c, 3, 64, 0
9, 128820, Note_on_c, 3, 66, 100
9, 128860, Note_on_c, 3, 66, 0
9, 128880, Note_on_c, 3, 63, 100
9, 128900, Note_on_c, 3, 63, 0
9, 128910, Note_on_c, 3, 66, 100
9, 128930, Note_on_c, 3, 66, 0
9, 128940, Note_on_c, 3, 68, 100
9, 128960, Note_on_c, 3, 68, 0
9, 128970, Note_on_c, 3, 69, 100
9, 128990, Note_on_c, 3, 69, 0
9, 129000, Note_on_c, 3, 71, 100
9, 129020, Note_on_c, 3, 71, 0
9, 129030, Note_on_c, 3, 68, 100
9, 129050, Note_on_c, 3, 68, 0
9, 129060, Note_on_c, 3, 64, 100
9, 129080, Note_on_c, 3, 64, 0
9, 129090, Note_on_c, 3, 66, 100
9, 129110, Note_on_c, 3, 66, 0
9, 129120, Note_on_c, 3, 67, 100
9, 129140, Note_on_c, 3, 67, 0
9, 129150, Note_on_c, 3, 64, 100
9, 129170, Note_on_c, 3, 64, 0
9, 129180, Note_on_c, 3, 71, 100
9, 129200, Note_on_c, 3, 71, 0
9, 129210, Note_on_c, 3, 73, 100
9, 129230, Note_on_c, 3, 73, 0
9, 129240, Note_on_c, 3, 74, 100
9, 129260, Note_on_c, 3, 74, 0
9, 129270, Note_on_c, 3, 71, 100
9, 129290, Note_on_c, 3, 71, 0
9, 129300, Note_on_c, 3, 73, 100
9, 129320, Note_on_c, 3, 73, 0
9, 129330, Note_on_c, 3, 74, 100
9, 129350, Note_on_c, 3, 74, 0
9, 129360, Note_on_c, 3, 76, 100
9, 129380, Note_on_c, 3, 76, 0
9, 129390, Note_on_c, 3, 73, 100
9, 129410, Note_on_c, 3, 73, 0
9, 129420, Note_on_c, 3, 69, 100
9, 129460, Note_on_c, 3, 69, 0
9, 129480, Note_on_c, 3, 66, 100
9, 129520, Note_on_c, 3, 66, 0
9, 129720, Note_on_c, 3, 71, 100
9, 129760, Note_on_c, 3, 71, 0
9, 129780, Note_on_c, 3, 69, 100
9, 129820, Note_on_c, 3, 69, 0
9, 129840, Note_on_c, 3, 64, 100
9, 129880, Note_on_c, 3, 64, 0
9, 130080, Note_on_c, 3, 73, 100
9, 130120, Note_on_c, 3, 73, 0
9, 130140, Note_on_c, 3, 69, 100
9, 130180, Note_on_c, 3, 69, 0
9, 130200, Note_on_c, 3, 64, 100
9, 130240, Note_on_c, 3, 64, 0
9, 130320, Note_on_c, 3, 64, 100
9, 130360, Note_on_c, 3, 64, 0
9, 130380, Note_on_c, 3, 71, 100
9, 130420, Note_on_c, 3, 71, 0
9, 130440, Note_on_c, 3, 71, 100
9, 130480, Note_on_c, 3, 71, 0
9, 130740, Note_on_c, 3, 70, 100
9, 130978, Note_on_c, 3, 70, 0
9, 130980, Note_on_c, 3, 70, 100
9, 131098, Note_on_c, 3, 70, 0
9, 131100, Note_on_c, 3, 71, 100
9, 131338, Note_on_c, 3, 71, 0
9, 131340, Note_on_c, 3, 62, 100
9, 131578, Note_on_c, 3, 62, 0
9, 131580, Note_on_c, 3, 64, 100
9, 131818, Note_on_c, 3, 64, 0
9, 131820, Note_on_c, 3, 66, 100
9, 132058, Note_on_c, 3, 66, 0
9, 132060, Note_on_c, 3, 62, 100
9, 132178, Note_on_c, 3, 62, 0
9, 132180, Note_on_c, 3, 66, 100
9, 132418, Note_on_c, 3, 66, 0
9, 132420, Note_on_c, 3, 79, 100
9, 132478, Note_on_c, 3, 79, 0
9, 132480, Note_on_c, 3, 76, 100
9, 132538, Note_on_c, 3, 76, 0
9, 132540, Note_on_c, 3, 67, 100
9, 132778, Note_on_c, 3, 67, 0
9, 132780, Note_on_c, 3, 65, 100
9, 133018, Note_on_c, 3, 65, 0
9, 133020, Note_on_c, 3, 64, 100
9, 133498, Note_on_c, 3, 64, 0
9, 133500, Note_on_c, 3, 66, 100
9, 133978, Note_on_c, 3, 66, 0
9, 219660, Control_c, 3, 0, 0
9, 219660, Note_on_c, 3, 76, 100
9, 219780, Note_on_c, 3, 76, 0
9, 219840, Note_on_c, 3, 76, 100
9, 219880, Note_on_c, 3, 76, 0
9, 219900, Note_on_c, 3, 76, 100
9, 220060, Note_on_c, 3, 76, 0
9, 221580, Note_on_c, 3, 71, 100
9, 221700, Note_on_c, 3, 71, 0
9, 221760, Note_on_c, 3, 71, 100
9, 221818, Note_on_c, 3, 71, 0
9, 221820, Note_on_c, 3, 71, 100
9, 222058, Note_on_c, 3, 71, 0
9, 222060, Note_on_c, 3, 76, 100
9, 222298, Note_on_c, 3, 76, 0
9, 222300, Note_on_c, 3, 76, 100
9, 222538, Note_on_c, 3, 76, 0
9, 223980, Note_on_c, 3, 73, 90
9, 224099, Note_on_c, 3, 73, 0
9, 224160, Note_on_c, 3, 73, 90
9, 224219, Note_on_c, 3, 73, 0
9, 224220, Note_on_c, 3, 73, 90
9, 224459, Note_on_c, 3, 73, 0
9, 224460, Note_on_c, 3, 71, 90
9, 224579, Note_on_c, 3, 71, 0
9, 224640, Note_on_c, 3, 71, 90
9, 224699, Note_on_c, 3, 71, 0
9, 224700, Note_on_c, 3, 71, 90
9, 224939, Note_on_c, 3, 71, 0
9, 226380, Note_on_c, 3, 72, 100
9, 226500, Note_on_c, 3, 72, 0
9, 226500, Note_on_c, 3, 72, 100
9, 226560, Note_on_c, 3, 72, 0
9, 226560, Note_on_c, 3, 72, 100
9, 226620, Note_on_c, 3, 72, 0
9, 226620, Note_on_c, 3, 72, 100
9, 226740, Note_on_c, 3, 72, 0
9, 226740, Note_on_c, 3, 72, 100
9, 226860, Note_on_c, 3, 72, 0
9, 226860, Note_on_c, 3, 71, 100
9, 227040, Note_on_c, 3, 71, 0
9, 227040, Note_on_c, 3, 71, 100
9, 227100, Note_on_c, 3, 71, 0
9, 227100, Note_on_c, 3, 71, 100
9, 227340, Note_on_c, 3, 71, 0
9, 227340, Note_on_c, 3, 69, 100
9, 228060, Note_on_c, 3, 69, 0
9, 228060, Note_on_c, 3, 68, 100
9, 228180, Note_on_c, 3, 68, 0
9, 228180, Note_on_c, 3, 69, 100
9, 228240, Note_on_c, 3, 69, 0
9, 228240, Note_on_c, 3, 71, 100
9, 228300, Note_on_c, 3, 71, 0
9, 228300, Note_on_c, 3, 64, 100
9, 228780, Note_on_c, 3, 64, 0
9, 228780, Note_on_c, 3, 66, 90
9, 228869, Note_on_c, 3, 66, 0
9, 228870, Note_on_c, 3, 67, 90
9, 228899, Note_on_c, 3, 67, 0
9, 228900, Note_on_c, 3, 66, 90
9, 228929, Note_on_c, 3, 66, 0
9, 228930, Note_on_c, 3, 64, 90
9, 228959, Note_on_c, 3, 64, 0
9, 228960, Note_on_c, 3, 62, 90
9, 228989, Note_on_c, 3, 62, 0
9, 228990, Note_on_c, 3, 64, 90
9, 229019, Note_on_c, 3, 64, 0
9, 229020, Note_on_c, 3, 66, 90
9, 229049, Note_on_c, 3, 66, 0
9, 229050, Note_on_c, 3, 67, 90
9, 229079, Note_on_c, 3, 67, 0
9, 229080, Note_on_c, 3, 66, 90
9, 229109, Note_on_c, 3, 66, 0
9, 229110, Note_on_c, 3, 67, 90
9, 229139, Note_on_c, 3, 67, 0
9, 229140, Note_on_c, 3, 66, 90
9, 229229, Note_on_c, 3, 66, 0
9, 229230, Note_on_c, 3, 67, 90
9, 229259, Note_on_c, 3, 67, 0
9, 229260, Note_on_c, 3, 66, 90
9, 229289, Note_on_c, 3, 66, 0
9, 229290, Note_on_c, 3, 64, 90
9, 229319, Note_on_c, 3, 64, 0
9, 229320, Note_on_c, 3, 62, 90
9, 229349, Note_on_c, 3, 62, 0
9, 229350, Note_on_c, 3, 64, 90
9, 229379, Note_on_c, 3, 64, 0
9, 229380, Note_on_c, 3, 66, 90
9, 229409, Note_on_c, 3, 66, 0
9, 229410, Note_on_c, 3, 67, 90
9, 229439, Note_on_c, 3, 67, 0
9, 229440, Note_on_c, 3, 66, 90
9, 229469, Note_on_c, 3, 66, 0
9, 229470, Note_on_c, 3, 67, 90
9, 229499, Note_on_c, 3, 67, 0
9, 229500, Note_on_c, 3, 66, 90
9, 229559, Note_on_c, 3, 66, 0
9, 231360, Note_on_c, 3, 78, 90
9, 231389, Note_on_c, 3, 78, 0
9, 231390, Note_on_c, 3, 76, 90
9, 231419, Note_on_c, 3, 76, 0
9, 231420, Note_on_c, 3, 74, 90
9, 231449, Note_on_c, 3, 74, 0
9, 231450, Note_on_c, 3, 76, 90
9, 231479, Note_on_c, 3, 76, 0
9, 231480, Note_on_c, 3, 78, 90
9, 231509, Note_on_c, 3, 78, 0
9, 231540, Note_on_c, 3, 78, 90
9, 231569, Note_on_c, 3, 78, 0
9, 231570, Note_on_c, 3, 76, 90
9, 231599, Note_on_c, 3, 76, 0
9, 231600, Note_on_c, 3, 74, 90
9, 231629, Note_on_c, 3, 74, 0
9, 231630, Note_on_c, 3, 73, 90
9, 231659, Note_on_c, 3, 73, 0
9, 231660, Note_on_c, 3, 74, 90
9, 231749, Note_on_c, 3, 74, 0
9, 231750, Note_on_c, 3, 73, 90
9, 231779, Note_on_c, 3, 73, 0
9, 233160, Note_on_c, 3, 71, 90
9, 233219, Note_on_c, 3, 71, 0
9, 233220, Note_on_c, 3, 76, 90
9, 233249, Note_on_c, 3, 76, 0
9, 233250, Note_on_c, 3, 78, 90
9, 233279, Note_on_c, 3, 78, 0
9, 233280, Note_on_c, 3, 79, 90
9, 233309, Note_on_c, 3, 79, 0
9, 233340, Note_on_c, 3, 79, 90
9, 233369, Note_on_c, 3, 79, 0
9, 233370, Note_on_c, 3, 78, 90
9, 233399, Note_on_c, 3, 78, 0
9, 233400, Note_on_c, 3, 76, 90
9, 233429, Note_on_c, 3, 76, 0
9, 233430, Note_on_c, 3, 74, 90
9, 233459, Note_on_c, 3, 74, 0
9, 233460, Note_on_c, 3, 81, 90
9, 233519, Note_on_c, 3, 81, 0
9, 233520, Note_on_c, 3, 76, 90
9, 233579, Note_on_c, 3, 76, 0
9, 233580, Note_on_c, 3, 76, 100
9, 234420, Note_on_c, 3, 76, 0
9, 234540, Note_on_c, 3, 74, 90
9, 234569, Note_on_c, 3, 74, 0
9, 234570, Note_on_c, 3, 71, 90
9, 234599, Note_on_c, 3, 71, 0
9, 234600, Note_on_c, 3, 69, 90
9, 234629, Note_on_c, 3, 69, 0
9, 234630, Note_on_c, 3, 67, 90
9, 234659, Note_on_c, 3, 67, 0
9, 234660, Note_on_c, 3, 66, 90
9, 234689, Note_on_c, 3, 66, 0
9, 234690, Note_on_c, 3, 64, 90
9, 234719, Note_on_c, 3, 64, 0
9, 234720, Note_on_c, 3, 66, 90
9, 234749, Note_on_c, 3, 66, 0
9, 234750, Note_on_c, 3, 67, 90
9, 234779, Note_on_c, 3, 67, 0
9, 234780, Note_on_c, 3, 66, 90
9, 234809, Note_on_c, 3, 66, 0
9, 234810, Note_on_c, 3, 67, 90
9, 234839, Note_on_c, 3, 67, 0
9, 234840, Note_on_c, 3, 66, 90
9, 234869, Note_on_c, 3, 66, 0
9, 234870, Note_on_c, 3, 67, 90
9, 234899, Note_on_c, 3, 67, 0
9, 234900, Note_on_c, 3, 66, 90
9, 234959, Note_on_c, 3, 66, 0
9, 235020, Note_on_c, 3, 69, 90
9, 235079, Note_on_c, 3, 69, 0
9, 235080, Note_on_c, 3, 66, 90
9, 235139, Note_on_c, 3, 66, 0
9, 235560, Note_on_c, 3, 69, 90
9, 235589, Note_on_c, 3, 69, 0
9, 235590, Note_on_c, 3, 67, 90
9, 235619, Note_on_c, 3, 67, 0
9, 235620, Note_on_c, 3, 66, 90
9, 235679, Note_on_c, 3, 66, 0
9, 235680, Note_on_c, 3, 69, 90
9, 235739, Note_on_c, 3, 69, 0
9, 235740, Note_on_c, 3, 74, 90
9, 235769, Note_on_c, 3, 74, 0
9, 235770, Note_on_c, 3, 76, 90
9, 235799, Note_on_c, 3, 76, 0
9, 235800, Note_on_c, 3, 78, 90
9, 235829, Note_on_c, 3, 78, 0
9, 235860, Note_on_c, 3, 78, 90
9, 235889, Note_on_c, 3, 78, 0
9, 235890, Note_on_c, 3, 76, 90
9, 235919, Note_on_c, 3, 76, 0
9, 235920, Note_on_c, 3, 74, 90
9, 235949, Note_on_c, 3, 74, 0
9, 235950, Note_on_c, 3, 73, 90
9, 235979, Note_on_c, 3, 73, 0
9, 235980, Note_on_c, 3, 74, 90
9, 236039, Note_on_c, 3, 74, 0
9, 236040, Note_on_c, 3, 66, 90
9, 236069, Note_on_c, 3, 66, 0
9, 236070, Note_on_c, 3, 67, 90
9, 236099, Note_on_c, 3, 67, 0
9, 236100, Note_on_c, 3, 69, 90
9, 236159, Note_on_c, 3, 69, 0
9, 236160, Note_on_c, 3, 74, 90
9, 236219, Note_on_c, 3, 74, 0
9, 236220, Note_on_c, 3, 74, 90
9, 236249, Note_on_c, 3, 74, 0
9, 236250, Note_on_c, 3, 76, 90
9, 236279, Note_on_c, 3, 76, 0
9, 236280, Note_on_c, 3, 74, 90
9, 236309, Note_on_c, 3, 74, 0
9, 236310, Note_on_c, 3, 73, 90
9, 236339, Note_on_c, 3, 73, 0
9, 236340, Note_on_c, 3, 74, 90
9, 236369, Note_on_c, 3, 74, 0
9, 236370, Note_on_c, 3, 73, 90
9, 236399, Note_on_c, 3, 73, 0
9, 236400, Note_on_c, 3, 74, 90
9, 236429, Note_on_c, 3, 74, 0
9, 236430, Note_on_c, 3, 76, 90
9, 236459, Note_on_c, 3, 76, 0
9, 236460, Note_on_c, 3, 78, 90
9, 236519, Note_on_c, 3, 78, 0
9, 236520, Note_on_c, 3, 74, 90
9, 236579, Note_on_c, 3, 74, 0
9, 236580, Note_on_c, 3, 74, 90
9, 236639, Note_on_c, 3, 74, 0
9, 236640, Note_on_c, 3, 73, 90
9, 236699, Note_on_c, 3, 73, 0
9, 236699, End_track
10, 0, Start_track
10, 0, MIDI_port, 0
10, 0, Title_t, "violin I"
10, 0, Program_c, 4, 48
10, 0, Control_c, 4, 7, 127
10, 0, Control_c, 4, 10, 35
10, 0, Note_on_c, 4, 81, 100
10, 40, Note_on_c, 4, 81, 0
10, 60, Note_on_c, 4, 78, 100
10, 100, Note_on_c, 4, 78, 0
10, 360, Note_on_c, 4, 78, 100
10, 400, Note_on_c, 4, 78, 0
10, 420, Note_on_c, 4, 74, 100
10, 460, Note_on_c, 4, 74, 0
10, 720, Note_on_c, 4, 74, 100
10, 760, Note_on_c, 4, 74, 0
10, 780, Note_on_c, 4, 69, 100
10, 820, Note_on_c, 4, 69, 0
10, 900, Note_on_c, 4, 69, 100
10, 920, Note_on_c, 4, 69, 0
10, 930, Note_on_c, 4, 71, 100
10, 950, Note_on_c, 4, 71, 0
10, 960, Note_on_c, 4, 73, 100
10, 980, Note_on_c, 4, 73, 0
10, 990, Note_on_c, 4, 74, 100
10, 1010, Note_on_c, 4, 74, 0
10, 1020, Note_on_c, 4, 71, 100
10, 1040, Note_on_c, 4, 71, 0
10, 1050, Note_on_c, 4, 73, 100
10, 1070, Note_on_c, 4, 73, 0
10, 1080, Note_on_c, 4, 74, 100
10, 1120, Note_on_c, 4, 74, 0
10, 1140, Note_on_c, 4, 62, 100
10, 1180, Note_on_c, 4, 62, 0
10, 1230, Note_on_c, 4, 86, 100
10, 1250, Note_on_c, 4, 86, 0
10, 1260, Note_on_c, 4, 85, 100
10, 1280, Note_on_c, 4, 85, 0
10, 1290, Note_on_c, 4, 83, 100
10, 1310, Note_on_c, 4, 83, 0
10, 1320, Note_on_c, 4, 81, 100
10, 1340, Note_on_c, 4, 81, 0
10, 1350, Note_on_c, 4, 83, 100
10, 1370, Note_on_c, 4, 83, 0
10, 1380, Note_on_c, 4, 81, 100
10, 1400, Note_on_c, 4, 81, 0
10, 1410, Note_on_c, 4, 79, 100
10, 1430, Note_on_c, 4, 79, 0
10, 1440, Note_on_c, 4, 78, 100
10, 1460, Note_on_c, 4, 78, 0
10, 1470, Note_on_c, 4, 79, 100
10, 1490, Note_on_c, 4, 79, 0
10, 1500, Note_on_c, 4, 78, 100
10, 1520, Note_on_c, 4, 78, 0
10, 1530, Note_on_c, 4, 76, 100
10, 1550, Note_on_c, 4, 76, 0
10, 1560, Note_on_c, 4, 74, 100
10, 1600, Note_on_c, 4, 74, 0
10, 1620, Note_on_c, 4, 71, 100
10, 1660, Note_on_c, 4, 71, 0
10, 1740, Note_on_c, 4, 71, 100
10, 1780, Note_on_c, 4, 71, 0
10, 1800, Note_on_c, 4, 76, 100
10, 1820, Note_on_c, 4, 76, 0
10, 1830, Note_on_c, 4, 78, 100
10, 1850, Note_on_c, 4, 78, 0
10, 1860, Note_on_c, 4, 76, 100
10, 1880, Note_on_c, 4, 76, 0
10, 1890, Note_on_c, 4, 74, 100
10, 1910, Note_on_c, 4, 74, 0
10, 1920, Note_on_c, 4, 73, 100
10, 1960, Note_on_c, 4, 73, 0
10, 1980, Note_on_c, 4, 69, 100
10, 2020, Note_on_c, 4, 69, 0
10, 2100, Note_on_c, 4, 69, 100
10, 2140, Note_on_c, 4, 69, 0
10, 2160, Note_on_c, 4, 74, 100
10, 2180, Note_on_c, 4, 74, 0
10, 2190, Note_on_c, 4, 76, 100
10, 2210, Note_on_c, 4, 76, 0
10, 2220, Note_on_c, 4, 78, 100
10, 2240, Note_on_c, 4, 78, 0
10, 2250, Note_on_c, 4, 79, 100
10, 2270, Note_on_c, 4, 79, 0
10, 2280, Note_on_c, 4, 78, 100
10, 2300, Note_on_c, 4, 78, 0
10, 2310, Note_on_c, 4, 76, 100
10, 2330, Note_on_c, 4, 76, 0
10, 2340, Note_on_c, 4, 74, 100
10, 2360, Note_on_c, 4, 74, 0
10, 2370, Note_on_c, 4, 73, 100
10, 2390, Note_on_c, 4, 73, 0
10, 2400, Note_on_c, 4, 81, 100
10, 2540, Note_on_c, 4, 81, 0
10, 2550, Note_on_c, 4, 76, 100
10, 2570, Note_on_c, 4, 76, 0
10, 2580, Note_on_c, 4, 78, 100
10, 2600, Note_on_c, 4, 78, 0
10, 2610, Note_on_c, 4, 79, 100
10, 2630, Note_on_c, 4, 79, 0
10, 2640, Note_on_c, 4, 78, 100
10, 2660, Note_on_c, 4, 78, 0
10, 2670, Note_on_c, 4, 76, 100
10, 2690, Note_on_c, 4, 76, 0
10, 2700, Note_on_c, 4, 74, 100
10, 2720, Note_on_c, 4, 74, 0
10, 2730, Note_on_c, 4, 73, 100
10, 2750, Note_on_c, 4, 73, 0
10, 2760, Note_on_c, 4, 83, 100
10, 2920, Note_on_c, 4, 83, 0
10, 2940, Note_on_c, 4, 71, 100
10, 2960, Note_on_c, 4, 71, 0
10, 2970, Note_on_c, 4, 73, 100
10, 3000, Note_on_c, 4, 74, 100
10, 3020, Note_on_c, 4, 74, 0
10, 3030, Note_on_c, 4, 73, 100
10, 3050, Note_on_c, 4, 73, 0
10, 3050, Note_on_c, 4, 73, 0
10, 3060, Note_on_c, 4, 71, 100
10, 3080, Note_on_c, 4, 71, 0
10, 3090, Note_on_c, 4, 69, 100
10, 3110, Note_on_c, 4, 69, 0
10, 3120, Note_on_c, 4, 76, 100
10, 3280, Note_on_c, 4, 76, 0
10, 3300, Note_on_c, 4, 78, 100
10, 3320, Note_on_c, 4, 78, 0
10, 3330, Note_on_c, 4, 76, 100
10, 3350, Note_on_c, 4, 76, 0
10, 3360, Note_on_c, 4, 74, 100
10, 3380, Note_on_c, 4, 74, 0
10, 3390, Note_on_c, 4, 73, 100
10, 3410, Note_on_c, 4, 73, 0
10, 3420, Note_on_c, 4, 71, 100
10, 3440, Note_on_c, 4, 71, 0
10, 3450, Note_on_c, 4, 69, 100
10, 3470, Note_on_c, 4, 69, 0
10, 3480, Note_on_c, 4, 81, 100
10, 3640, Note_on_c, 4, 81, 0
10, 3660, Note_on_c, 4, 74, 100
10, 3680, Note_on_c, 4, 74, 0
10, 3690, Note_on_c, 4, 73, 100
10, 3710, Note_on_c, 4, 73, 0
10, 3720, Note_on_c, 4, 74, 100
10, 3740, Note_on_c, 4, 74, 0
10, 3750, Note_on_c, 4, 73, 100
10, 3770, Note_on_c, 4, 73, 0
10, 3780, Note_on_c, 4, 71, 100
10, 3800, Note_on_c, 4, 71, 0
10, 3810, Note_on_c, 4, 69, 100
10, 3830, Note_on_c, 4, 69, 0
10, 3840, Note_on_c, 4, 74, 100
10, 4000, Note_on_c, 4, 74, 0
10, 4020, Note_on_c, 4, 76, 100
10, 4040, Note_on_c, 4, 76, 0
10, 4050, Note_on_c, 4, 78, 100
10, 4070, Note_on_c, 4, 78, 0
10, 4080, Note_on_c, 4, 76, 100
10, 4100, Note_on_c, 4, 76, 0
10, 4110, Note_on_c, 4, 74, 100
10, 4130, Note_on_c, 4, 74, 0
10, 4140, Note_on_c, 4, 73, 100
10, 4160, Note_on_c, 4, 73, 0
10, 4170, Note_on_c, 4, 71, 100
10, 4190, Note_on_c, 4, 71, 0
10, 4200, Note_on_c, 4, 69, 100
10, 4220, Note_on_c, 4, 69, 0
10, 4230, Note_on_c, 4, 68, 100
10, 4250, Note_on_c, 4, 68, 0
10, 4260, Note_on_c, 4, 74, 100
10, 4300, Note_on_c, 4, 74, 0
10, 4320, Note_on_c, 4, 73, 100
10, 4360, Note_on_c, 4, 73, 0
10, 4380, Note_on_c, 4, 61, 100
10, 4420, Note_on_c, 4, 61, 0
10, 4440, Note_on_c, 4, 64, 100
10, 4480, Note_on_c, 4, 64, 0
10, 4500, Note_on_c, 4, 69, 100
10, 4540, Note_on_c, 4, 69, 0
10, 4560, Note_on_c, 4, 69, 100
10, 4600, Note_on_c, 4, 69, 0
10, 4620, Note_on_c, 4, 64, 100
10, 4660, Note_on_c, 4, 64, 0
10, 4680, Note_on_c, 4, 61, 100
10, 4720, Note_on_c, 4, 61, 0
10, 4740, Note_on_c, 4, 64, 100
10, 4780, Note_on_c, 4, 64, 0
10, 4800, Note_on_c, 4, 69, 100
10, 4840, Note_on_c, 4, 69, 0
10, 4860, Note_on_c, 4, 73, 100
10, 4900, Note_on_c, 4, 73, 0
10, 4920, Note_on_c, 4, 73, 100
10, 4960, Note_on_c, 4, 73, 0
10, 4980, Note_on_c, 4, 69, 100
10, 5020, Note_on_c, 4, 69, 0
10, 5040, Note_on_c, 4, 64, 100
10, 5080, Note_on_c, 4, 64, 0
10, 5100, Note_on_c, 4, 69, 100
10, 5140, Note_on_c, 4, 69, 0
10, 5160, Note_on_c, 4, 73, 100
10, 5200, Note_on_c, 4, 73, 0
10, 5220, Note_on_c, 4, 76, 100
10, 5260, Note_on_c, 4, 76, 0
10, 5280, Note_on_c, 4, 76, 100
10, 5300, Note_on_c, 4, 76, 0
10, 5310, Note_on_c, 4, 74, 100
10, 5330, Note_on_c, 4, 74, 0
10, 5340, Note_on_c, 4, 73, 100
10, 5360, Note_on_c, 4, 73, 0
10, 5370, Note_on_c, 4, 71, 100
10, 5390, Note_on_c, 4, 71, 0
10, 5400, Note_on_c, 4, 73, 100
10, 5420, Note_on_c, 4, 73, 0
10, 5430, Note_on_c, 4, 71, 100
10, 5450, Note_on_c, 4, 71, 0
10, 5460, Note_on_c, 4, 69, 100
10, 5480, Note_on_c, 4, 69, 0
10, 5490, Note_on_c, 4, 71, 100
10, 5510, Note_on_c, 4, 71, 0
10, 5520, Note_on_c, 4, 73, 100
10, 5540, Note_on_c, 4, 73, 0
10, 5550, Note_on_c, 4, 74, 100
10, 5570, Note_on_c, 4, 74, 0
10, 5580, Note_on_c, 4, 76, 100
10, 5620, Note_on_c, 4, 76, 0
10, 5640, Note_on_c, 4, 76, 100
10, 5660, Note_on_c, 4, 76, 0
10, 5670, Note_on_c, 4, 74, 100
10, 5690, Note_on_c, 4, 74, 0
10, 5700, Note_on_c, 4, 73, 100
10, 5720, Note_on_c, 4, 73, 0
10, 5730, Note_on_c, 4, 71, 100
10, 5750, Note_on_c, 4, 71, 0
10, 5760, Note_on_c, 4, 73, 100
10, 5800, Note_on_c, 4, 73, 0
10, 5820, Note_on_c, 4, 76, 100
10, 5860, Note_on_c, 4, 76, 0
10, 5880, Note_on_c, 4, 81, 100
10, 5920, Note_on_c, 4, 81, 0
10, 5940, Note_on_c, 4, 85, 100
10, 5980, Note_on_c, 4, 85, 0
10, 6000, Note_on_c, 4, 85, 100
10, 6040, Note_on_c, 4, 85, 0
10, 6060, Note_on_c, 4, 81, 100
10, 6100, Note_on_c, 4, 81, 0
10, 6120, Note_on_c, 4, 78, 100
10, 6160, Note_on_c, 4, 78, 0
10, 6180, Note_on_c, 4, 74, 100
10, 6220, Note_on_c, 4, 74, 0
10, 6300, Note_on_c, 4, 66, 100
10, 6340, Note_on_c, 4, 66, 0
10, 6360, Note_on_c, 4, 69, 100
10, 6400, Note_on_c, 4, 69, 0
10, 6420, Note_on_c, 4, 74, 100
10, 6460, Note_on_c, 4, 74, 0
10, 6480, Note_on_c, 4, 74, 100
10, 6500, Note_on_c, 4, 74, 0
10, 6510, Note_on_c, 4, 76, 100
10, 6530, Note_on_c, 4, 76, 0
10, 6540, Note_on_c, 4, 74, 100
10, 6560, Note_on_c, 4, 74, 0
10, 6570, Note_on_c, 4, 73, 100
10, 6590, Note_on_c, 4, 73, 0
10, 6600, Note_on_c, 4, 71, 100
10, 6620, Note_on_c, 4, 71, 0
10, 6630, Note_on_c, 4, 69, 100
10, 6650, Note_on_c, 4, 69, 0
10, 6660, Note_on_c, 4, 67, 100
10, 6680, Note_on_c, 4, 67, 0
10, 6690, Note_on_c, 4, 69, 100
10, 6710, Note_on_c, 4, 69, 0
10, 6720, Note_on_c, 4, 71, 100
10, 6740, Note_on_c, 4, 71, 0
10, 6750, Note_on_c, 4, 73, 100
10, 6770, Note_on_c, 4, 73, 0
10, 6780, Note_on_c, 4, 69, 100
10, 6800, Note_on_c, 4, 69, 0
10, 6810, Note_on_c, 4, 71, 100
10, 6830, Note_on_c, 4, 71, 0
10, 6840, Note_on_c, 4, 73, 100
10, 6880, Note_on_c, 4, 73, 0
10, 6900, Note_on_c, 4, 61, 100
10, 6940, Note_on_c, 4, 61, 0
10, 6960, Note_on_c, 4, 66, 100
10, 7000, Note_on_c, 4, 66, 0
10, 7020, Note_on_c, 4, 69, 100
10, 7060, Note_on_c, 4, 69, 0
10, 7080, Note_on_c, 4, 69, 100
10, 7120, Note_on_c, 4, 69, 0
10, 7140, Note_on_c, 4, 66, 100
10, 7180, Note_on_c, 4, 66, 0
10, 7200, Note_on_c, 4, 71, 100
10, 7240, Note_on_c, 4, 71, 0
10, 7260, Note_on_c, 4, 59, 100
10, 7300, Note_on_c, 4, 59, 0
10, 7320, Note_on_c, 4, 64, 100
10, 7360, Note_on_c, 4, 64, 0
10, 7380, Note_on_c, 4, 71, 100
10, 7420, Note_on_c, 4, 71, 0
10, 7440, Note_on_c, 4, 71, 100
10, 7480, Note_on_c, 4, 71, 0
10, 7500, Note_on_c, 4, 64, 100
10, 7540, Note_on_c, 4, 64, 0
10, 7560, Note_on_c, 4, 73, 100
10, 7600, Note_on_c, 4, 73, 0
10, 7620, Note_on_c, 4, 64, 100
10, 7660, Note_on_c, 4, 64, 0
10, 7680, Note_on_c, 4, 69, 100
10, 7720, Note_on_c, 4, 69, 0
10, 7740, Note_on_c, 4, 73, 100
10, 7780, Note_on_c, 4, 73, 0
10, 7800, Note_on_c, 4, 73, 100
10, 7840, Note_on_c, 4, 73, 0
10, 7860, Note_on_c, 4, 69, 100
10, 7900, Note_on_c, 4, 69, 0
10, 7920, Note_on_c, 4, 74, 100
10, 8000, Note_on_c, 4, 74, 0
10, 8100, Note_on_c, 4, 69, 100
10, 8140, Note_on_c, 4, 69, 0
10, 8160, Note_on_c, 4, 74, 100
10, 8200, Note_on_c, 4, 74, 0
10, 8220, Note_on_c, 4, 78, 100
10, 8260, Note_on_c, 4, 78, 0
10, 8280, Note_on_c, 4, 78, 100
10, 8360, Note_on_c, 4, 78, 0
10, 8460, Note_on_c, 4, 69, 100
10, 8500, Note_on_c, 4, 69, 0
10, 8520, Note_on_c, 4, 74, 100
10, 8560, Note_on_c, 4, 74, 0
10, 8580, Note_on_c, 4, 78, 100
10, 8620, Note_on_c, 4, 78, 0
10, 8640, Note_on_c, 4, 81, 100
10, 8660, Note_on_c, 4, 81, 0
10, 8670, Note_on_c, 4, 74, 100
10, 8690, Note_on_c, 4, 74, 0
10, 8700, Note_on_c, 4, 73, 100
10, 8720, Note_on_c, 4, 73, 0
10, 8730, Note_on_c, 4, 71, 100
10, 8750, Note_on_c, 4, 71, 0
10, 8760, Note_on_c, 4, 69, 100
10, 8780, Note_on_c, 4, 69, 0
10, 8790, Note_on_c, 4, 67, 100
10, 8810, Note_on_c, 4, 67, 0
10, 8820, Note_on_c, 4, 66, 100
10, 8840, Note_on_c, 4, 66, 0
10, 8850, Note_on_c, 4, 67, 100
10, 8870, Note_on_c, 4, 67, 0
10, 8880, Note_on_c, 4, 69, 100
10, 8900, Note_on_c, 4, 69, 0
10, 8910, Note_on_c, 4, 71, 100
10, 8930, Note_on_c, 4, 71, 0
10, 8940, Note_on_c, 4, 69, 100
10, 8960, Note_on_c, 4, 69, 0
10, 8970, Note_on_c, 4, 71, 100
10, 8990, Note_on_c, 4, 71, 0
10, 9000, Note_on_c, 4, 69, 100
10, 9020, Note_on_c, 4, 69, 0
10, 9030, Note_on_c, 4, 74, 100
10, 9050, Note_on_c, 4, 74, 0
10, 9060, Note_on_c, 4, 73, 100
10, 9080, Note_on_c, 4, 73, 0
10, 9090, Note_on_c, 4, 71, 100
10, 9110, Note_on_c, 4, 71, 0
10, 9120, Note_on_c, 4, 69, 100
10, 9140, Note_on_c, 4, 69, 0
10, 9150, Note_on_c, 4, 67, 100
10, 9170, Note_on_c, 4, 67, 0
10, 9180, Note_on_c, 4, 66, 100
10, 9200, Note_on_c, 4, 66, 0
10, 9210, Note_on_c, 4, 67, 100
10, 9230, Note_on_c, 4, 67, 0
10, 9240, Note_on_c, 4, 69, 100
10, 9260, Note_on_c, 4, 69, 0
10, 9270, Note_on_c, 4, 71, 100
10, 9290, Note_on_c, 4, 71, 0
10, 9300, Note_on_c, 4, 69, 100
10, 9320, Note_on_c, 4, 69, 0
10, 9330, Note_on_c, 4, 71, 100
10, 9350, Note_on_c, 4, 71, 0
10, 9360, Note_on_c, 4, 69, 100
10, 9400, Note_on_c, 4, 69, 0
10, 9420, Note_on_c, 4, 66, 100
10, 9460, Note_on_c, 4, 66, 0
10, 10140, Note_on_c, 4, 74, 100
10, 10160, Note_on_c, 4, 74, 0
10, 10170, Note_on_c, 4, 76, 100
10, 10190, Note_on_c, 4, 76, 0
10, 10200, Note_on_c, 4, 78, 100
10, 10220, Note_on_c, 4, 78, 0
10, 10230, Note_on_c, 4, 79, 100
10, 10250, Note_on_c, 4, 79, 0
10, 10260, Note_on_c, 4, 81, 100
10, 10300, Note_on_c, 4, 81, 0
10, 10320, Note_on_c, 4, 81, 100
10, 10340, Note_on_c, 4, 81, 0
10, 10350, Note_on_c, 4, 79, 100
10, 10370, Note_on_c, 4, 79, 0
10, 10380, Note_on_c, 4, 78, 100
10, 10400, Note_on_c, 4, 78, 0
10, 10410, Note_on_c, 4, 76, 100
10, 10430, Note_on_c, 4, 76, 0
10, 10440, Note_on_c, 4, 78, 100
10, 10460, Note_on_c, 4, 78, 0
10, 10470, Note_on_c, 4, 76, 100
10, 10490, Note_on_c, 4, 76, 0
10, 10500, Note_on_c, 4, 78, 100
10, 10520, Note_on_c, 4, 78, 0
10, 10530, Note_on_c, 4, 79, 100
10, 10550, Note_on_c, 4, 79, 0
10, 10560, Note_on_c, 4, 81, 100
10, 10600, Note_on_c, 4, 81, 0
10, 10620, Note_on_c, 4, 83, 100
10, 10640, Note_on_c, 4, 83, 0
10, 10650, Note_on_c, 4, 81, 100
10, 10670, Note_on_c, 4, 81, 0
10, 10680, Note_on_c, 4, 79, 100
10, 10700, Note_on_c, 4, 79, 0
10, 10710, Note_on_c, 4, 78, 100
10, 10730, Note_on_c, 4, 78, 0
10, 10740, Note_on_c, 4, 76, 100
10, 10760, Note_on_c, 4, 76, 0
10, 10770, Note_on_c, 4, 74, 100
10, 10790, Note_on_c, 4, 74, 0
10, 10800, Note_on_c, 4, 74, 100
10, 10880, Note_on_c, 4, 74, 0
10, 11520, Note_on_c, 4, 81, 100
10, 11560, Note_on_c, 4, 81, 0
10, 11580, Note_on_c, 4, 78, 100
10, 11620, Note_on_c, 4, 78, 0
10, 11880, Note_on_c, 4, 78, 100
10, 11920, Note_on_c, 4, 78, 0
10, 11940, Note_on_c, 4, 74, 100
10, 11980, Note_on_c, 4, 74, 0
10, 12240, Note_on_c, 4, 74, 100
10, 12280, Note_on_c, 4, 74, 0
10, 12300, Note_on_c, 4, 69, 100
10, 12340, Note_on_c, 4, 69, 0
10, 12900, Note_on_c, 4, 73, 100
10, 12940, Note_on_c, 4, 73, 0
10, 12960, Note_on_c, 4, 78, 100
10, 12980, Note_on_c, 4, 78, 0
10, 12990, Note_on_c, 4, 79, 100
10, 13010, Note_on_c, 4, 79, 0
10, 13020, Note_on_c, 4, 78, 100
10, 13040, Note_on_c, 4, 78, 0
10, 13050, Note_on_c, 4, 76, 100
10, 13070, Note_on_c, 4, 76, 0
10, 13080, Note_on_c, 4, 74, 100
10, 13120, Note_on_c, 4, 74, 0
10, 13140, Note_on_c, 4, 71, 100
10, 13180, Note_on_c, 4, 71, 0
10, 13260, Note_on_c, 4, 71, 100
10, 13300, Note_on_c, 4, 71, 0
10, 13320, Note_on_c, 4, 76, 100
10, 13340, Note_on_c, 4, 76, 0
10, 13350, Note_on_c, 4, 78, 100
10, 13370, Note_on_c, 4, 78, 0
10, 13380, Note_on_c, 4, 76, 100
10, 13400, Note_on_c, 4, 76, 0
10, 13410, Note_on_c, 4, 74, 100
10, 13430, Note_on_c, 4, 74, 0
10, 13440, Note_on_c, 4, 73, 100
10, 13480, Note_on_c, 4, 73, 0
10, 13500, Note_on_c, 4, 69, 100
10, 13540, Note_on_c, 4, 69, 0
10, 13620, Note_on_c, 4, 69, 100
10, 13660, Note_on_c, 4, 69, 0
10, 13680, Note_on_c, 4, 74, 100
10, 13700, Note_on_c, 4, 74, 0
10, 13710, Note_on_c, 4, 76, 100
10, 13730, Note_on_c, 4, 76, 0
10, 13740, Note_on_c, 4, 78, 100
10, 13760, Note_on_c, 4, 78, 0
10, 13770, Note_on_c, 4, 79, 100
10, 13790, Note_on_c, 4, 79, 0
10, 13800, Note_on_c, 4, 78, 100
10, 13820, Note_on_c, 4, 78, 0
10, 13830, Note_on_c, 4, 76, 100
10, 13850, Note_on_c, 4, 76, 0
10, 13860, Note_on_c, 4, 74, 100
10, 13880, Note_on_c, 4, 74, 0
10, 13890, Note_on_c, 4, 73, 100
10, 13910, Note_on_c, 4, 73, 0
10, 13920, Note_on_c, 4, 81, 100
10, 14060, Note_on_c, 4, 81, 0
10, 14070, Note_on_c, 4, 76, 100
10, 14090, Note_on_c, 4, 76, 0
10, 14100, Note_on_c, 4, 78, 100
10, 14120, Note_on_c, 4, 78, 0
10, 14130, Note_on_c, 4, 79, 100
10, 14150, Note_on_c, 4, 79, 0
10, 14160, Note_on_c, 4, 78, 100
10, 14180, Note_on_c, 4, 78, 0
10, 14190, Note_on_c, 4, 76, 100
10, 14210, Note_on_c, 4, 76, 0
10, 14220, Note_on_c, 4, 74, 100
10, 14240, Note_on_c, 4, 74, 0
10, 14250, Note_on_c, 4, 73, 100
10, 14270, Note_on_c, 4, 73, 0
10, 14280, Note_on_c, 4, 83, 100
10, 14440, Note_on_c, 4, 83, 0
10, 14460, Note_on_c, 4, 71, 100
10, 14480, Note_on_c, 4, 71, 0
10, 14490, Note_on_c, 4, 73, 100
10, 14520, Note_on_c, 4, 74, 100
10, 14540, Note_on_c, 4, 74, 0
10, 14550, Note_on_c, 4, 73, 100
10, 14570, Note_on_c, 4, 73, 0
10, 14570, Note_on_c, 4, 73, 0
10, 14580, Note_on_c, 4, 71, 100
10, 14600, Note_on_c, 4, 71, 0
10, 14610, Note_on_c, 4, 69, 100
10, 14630, Note_on_c, 4, 69, 0
10, 14640, Note_on_c, 4, 76, 100
10, 14800, Note_on_c, 4, 76, 0
10, 14820, Note_on_c, 4, 78, 100
10, 14840, Note_on_c, 4, 78, 0
10, 14850, Note_on_c, 4, 76, 100
10, 14870, Note_on_c, 4, 76, 0
10, 14880, Note_on_c, 4, 74, 100
10, 14900, Note_on_c, 4, 74, 0
10, 14910, Note_on_c, 4, 73, 100
10, 14930, Note_on_c, 4, 73, 0
10, 14940, Note_on_c, 4, 71, 100
10, 14960, Note_on_c, 4, 71, 0
10, 14970, Note_on_c, 4, 69, 100
10, 14990, Note_on_c, 4, 69, 0
10, 15000, Note_on_c, 4, 81, 100
10, 15160, Note_on_c, 4, 81, 0
10, 15180, Note_on_c, 4, 74, 100
10, 15200, Note_on_c, 4, 74, 0
10, 15210, Note_on_c, 4, 73, 100
10, 15230, Note_on_c, 4, 73, 0
10, 15240, Note_on_c, 4, 74, 100
10, 15260, Note_on_c, 4, 74, 0
10, 15270, Note_on_c, 4, 73, 100
10, 15290, Note_on_c, 4, 73, 0
10, 15300, Note_on_c, 4, 71, 100
10, 15320, Note_on_c, 4, 71, 0
10, 15330, Note_on_c, 4, 69, 100
10, 15350, Note_on_c, 4, 69, 0
10, 15360, Note_on_c, 4, 74, 100
10, 15520, Note_on_c, 4, 74, 0
10, 15540, Note_on_c, 4, 76, 100
10, 15560, Note_on_c, 4, 76, 0
10, 15570, Note_on_c, 4, 78, 100
10, 15590, Note_on_c, 4, 78, 0
10, 15600, Note_on_c, 4, 76, 100
10, 15620, Note_on_c, 4, 76, 0
10, 15630, Note_on_c, 4, 74, 100
10, 15650, Note_on_c, 4, 74, 0
10, 15660, Note_on_c, 4, 73, 100
10, 15680, Note_on_c, 4, 73, 0
10, 15690, Note_on_c, 4, 71, 100
10, 15710, Note_on_c, 4, 71, 0
10, 15720, Note_on_c, 4, 69, 100
10, 15740, Note_on_c, 4, 69, 0
10, 15750, Note_on_c, 4, 68, 100
10, 15770, Note_on_c, 4, 68, 0
10, 15780, Note_on_c, 4, 74, 100
10, 15820, Note_on_c, 4, 74, 0
10, 15840, Note_on_c, 4, 73, 100
10, 15920, Note_on_c, 4, 73, 0
10, 16620, Note_on_c, 4, 73, 100
10, 16660, Note_on_c, 4, 73, 0
10, 16680, Note_on_c, 4, 76, 100
10, 16720, Note_on_c, 4, 76, 0
10, 16740, Note_on_c, 4, 81, 100
10, 16780, Note_on_c, 4, 81, 0
10, 16800, Note_on_c, 4, 81, 100
10, 16840, Note_on_c, 4, 81, 0
10, 16860, Note_on_c, 4, 76, 100
10, 16900, Note_on_c, 4, 76, 0
10, 16920, Note_on_c, 4, 73, 100
10, 16960, Note_on_c, 4, 73, 0
10, 16980, Note_on_c, 4, 76, 100
10, 17020, Note_on_c, 4, 76, 0
10, 17040, Note_on_c, 4, 81, 100
10, 17080, Note_on_c, 4, 81, 0
10, 17100, Note_on_c, 4, 85, 100
10, 17140, Note_on_c, 4, 85, 0
10, 17160, Note_on_c, 4, 85, 100
10, 17200, Note_on_c, 4, 85, 0
10, 17220, Note_on_c, 4, 81, 100
10, 17260, Note_on_c, 4, 81, 0
10, 17280, Note_on_c, 4, 76, 100
10, 17360, Note_on_c, 4, 76, 0
10, 18120, Note_on_c, 4, 64, 100
10, 18160, Note_on_c, 4, 64, 0
10, 18180, Note_on_c, 4, 69, 100
10, 18220, Note_on_c, 4, 69, 0
10, 18240, Note_on_c, 4, 73, 100
10, 18280, Note_on_c, 4, 73, 0
10, 18360, Note_on_c, 4, 73, 100
10, 18440, Note_on_c, 4, 73, 0
10, 18540, Note_on_c, 4, 70, 100
10, 18580, Note_on_c, 4, 70, 0
10, 18600, Note_on_c, 4, 73, 100
10, 18640, Note_on_c, 4, 73, 0
10, 18660, Note_on_c, 4, 78, 100
10, 18700, Note_on_c, 4, 78, 0
10, 18720, Note_on_c, 4, 78, 100
10, 18800, Note_on_c, 4, 78, 0
10, 18900, Note_on_c, 4, 74, 100
10, 18940, Note_on_c, 4, 74, 0
10, 18960, Note_on_c, 4, 78, 100
10, 19000, Note_on_c, 4, 78, 0
10, 19020, Note_on_c, 4, 83, 100
10, 19060, Note_on_c, 4, 83, 0
10, 19080, Note_on_c, 4, 83, 100
10, 19160, Note_on_c, 4, 83, 0
10, 19260, Note_on_c, 4, 77, 100
10, 19300, Note_on_c, 4, 77, 0
10, 19320, Note_on_c, 4, 80, 100
10, 19360, Note_on_c, 4, 80, 0
10, 19380, Note_on_c, 4, 85, 100
10, 19420, Note_on_c, 4, 85, 0
10, 19440, Note_on_c, 4, 85, 100
10, 19520, Note_on_c, 4, 85, 0
10, 19620, Note_on_c, 4, 73, 100
10, 19660, Note_on_c, 4, 73, 0
10, 19680, Note_on_c, 4, 78, 100
10, 19720, Note_on_c, 4, 78, 0
10, 19740, Note_on_c, 4, 81, 100
10, 19780, Note_on_c, 4, 81, 0
10, 19800, Note_on_c, 4, 81, 100
10, 19880, Note_on_c, 4, 81, 0
10, 19980, Note_on_c, 4, 73, 100
10, 20020, Note_on_c, 4, 73, 0
10, 20040, Note_on_c, 4, 76, 100
10, 20080, Note_on_c, 4, 76, 0
10, 20100, Note_on_c, 4, 81, 100
10, 20140, Note_on_c, 4, 81, 0
10, 20160, Note_on_c, 4, 81, 100
10, 20240, Note_on_c, 4, 81, 0
10, 20340, Note_on_c, 4, 74, 100
10, 20380, Note_on_c, 4, 74, 0
10, 20400, Note_on_c, 4, 78, 100
10, 20440, Note_on_c, 4, 78, 0
10, 20460, Note_on_c, 4, 81, 100
10, 20500, Note_on_c, 4, 81, 0
10, 20520, Note_on_c, 4, 81, 100
10, 20600, Note_on_c, 4, 81, 0
10, 20700, Note_on_c, 4, 74, 100
10, 20740, Note_on_c, 4, 74, 0
10, 20760, Note_on_c, 4, 78, 100
10, 20800, Note_on_c, 4, 78, 0
10, 20820, Note_on_c, 4, 81, 100
10, 20860, Note_on_c, 4, 81, 0
10, 20880, Note_on_c, 4, 81, 100
10, 20960, Note_on_c, 4, 81, 0
10, 21060, Note_on_c, 4, 69, 100
10, 21080, Note_on_c, 4, 69, 0
10, 21090, Note_on_c, 4, 71, 100
10, 21110, Note_on_c, 4, 71, 0
10, 21120, Note_on_c, 4, 73, 100
10, 21140, Note_on_c, 4, 73, 0
10, 21150, Note_on_c, 4, 74, 100
10, 21170, Note_on_c, 4, 74, 0
10, 21180, Note_on_c, 4, 71, 100
10, 21200, Note_on_c, 4, 71, 0
10, 21210, Note_on_c, 4, 73, 100
10, 21230, Note_on_c, 4, 73, 0
10, 21240, Note_on_c, 4, 74, 100
10, 21280, Note_on_c, 4, 74, 0
10, 21300, Note_on_c, 4, 62, 100
10, 21340, Note_on_c, 4, 62, 0
10, 21390, Note_on_c, 4, 86, 100
10, 21410, Note_on_c, 4, 86, 0
10, 21420, Note_on_c, 4, 85, 100
10, 21440, Note_on_c, 4, 85, 0
10, 21450, Note_on_c, 4, 83, 100
10, 21470, Note_on_c, 4, 83, 0
10, 21480, Note_on_c, 4, 81, 100
10, 21500, Note_on_c, 4, 81, 0
10, 21510, Note_on_c, 4, 83, 100
10, 21530, Note_on_c, 4, 83, 0
10, 21540, Note_on_c, 4, 81, 100
10, 21560, Note_on_c, 4, 81, 0
10, 21570, Note_on_c, 4, 79, 100
10, 21590, Note_on_c, 4, 79, 0
10, 21600, Note_on_c, 4, 78, 100
10, 21620, Note_on_c, 4, 78, 0
10, 21630, Note_on_c, 4, 79, 100
10, 21650, Note_on_c, 4, 79, 0
10, 21660, Note_on_c, 4, 78, 100
10, 21680, Note_on_c, 4, 78, 0
10, 21690, Note_on_c, 4, 76, 100
10, 21710, Note_on_c, 4, 76, 0
10, 21720, Note_on_c, 4, 74, 100
10, 21760, Note_on_c, 4, 74, 0
10, 23460, Note_on_c, 4, 64, 100
10, 23480, Note_on_c, 4, 64, 0
10, 23490, Note_on_c, 4, 66, 100
10, 23510, Note_on_c, 4, 66, 0
10, 23520, Note_on_c, 4, 67, 100
10, 23540, Note_on_c, 4, 67, 0
10, 23550, Note_on_c, 4, 69, 100
10, 23570, Note_on_c, 4, 69, 0
10, 23580, Note_on_c, 4, 71, 100
10, 23620, Note_on_c, 4, 71, 0
10, 23640, Note_on_c, 4, 71, 100
10, 23660, Note_on_c, 4, 71, 0
10, 23670, Note_on_c, 4, 69, 100
10, 23690, Note_on_c, 4, 69, 0
10, 23700, Note_on_c, 4, 67, 100
10, 23720, Note_on_c, 4, 67, 0
10, 23730, Note_on_c, 4, 66, 100
10, 23750, Note_on_c, 4, 66, 0
10, 23760, Note_on_c, 4, 67, 100
10, 23800, Note_on_c, 4, 67, 0
10, 23820, Note_on_c, 4, 64, 100
10, 23860, Note_on_c, 4, 64, 0
10, 24060, Note_on_c, 4, 64, 100
10, 24100, Note_on_c, 4, 64, 0
10, 24120, Note_on_c, 4, 69, 100
10, 24140, Note_on_c, 4, 69, 0
10, 24150, Note_on_c, 4, 71, 100
10, 24170, Note_on_c, 4, 71, 0
10, 24180, Note_on_c, 4, 69, 100
10, 24200, Note_on_c, 4, 69, 0
10, 24210, Note_on_c, 4, 67, 100
10, 24230, Note_on_c, 4, 67, 0
10, 24240, Note_on_c, 4, 66, 100
10, 24280, Note_on_c, 4, 66, 0
10, 24300, Note_on_c, 4, 62, 100
10, 24340, Note_on_c, 4, 62, 0
10, 24420, Note_on_c, 4, 74, 100
10, 24460, Note_on_c, 4, 74, 0
10, 24480, Note_on_c, 4, 79, 100
10, 24500, Note_on_c, 4, 79, 0
10, 24510, Note_on_c, 4, 81, 100
10, 24530, Note_on_c, 4, 81, 0
10, 24540, Note_on_c, 4, 83, 100
10, 24560, Note_on_c, 4, 83, 0
10, 24570, Note_on_c, 4, 84, 100
10, 24590, Note_on_c, 4, 84, 0
10, 24600, Note_on_c, 4, 83, 100
10, 24620, Note_on_c, 4, 83, 0
10, 24630, Note_on_c, 4, 81, 100
10, 24650, Note_on_c, 4, 81, 0
10, 24660, Note_on_c, 4, 79, 100
10, 24680, Note_on_c, 4, 79, 0
10, 24690, Note_on_c, 4, 78, 100
10, 24710, Note_on_c, 4, 78, 0
10, 24720, Note_on_c, 4, 86, 100
10, 24860, Note_on_c, 4, 86, 0
10, 24870, Note_on_c, 4, 81, 100
10, 24890, Note_on_c, 4, 81, 0
10, 24900, Note_on_c, 4, 83, 100
10, 24920, Note_on_c, 4, 83, 0
10, 24930, Note_on_c, 4, 84, 100
10, 24950, Note_on_c, 4, 84, 0
10, 24960, Note_on_c, 4, 83, 100
10, 24980, Note_on_c, 4, 83, 0
10, 24990, Note_on_c, 4, 81, 100
10, 25010, Note_on_c, 4, 81, 0
10, 25020, Note_on_c, 4, 79, 100
10, 25040, Note_on_c, 4, 79, 0
10, 25050, Note_on_c, 4, 78, 100
10, 25070, Note_on_c, 4, 78, 0
10, 25080, Note_on_c, 4, 88, 100
10, 25240, Note_on_c, 4, 88, 0
10, 25260, Note_on_c, 4, 76, 100
10, 25280, Note_on_c, 4, 76, 0
10, 25290, Note_on_c, 4, 78, 100
10, 25310, Note_on_c, 4, 78, 0
10, 25320, Note_on_c, 4, 79, 100
10, 25340, Note_on_c, 4, 79, 0
10, 25350, Note_on_c, 4, 78, 100
10, 25370, Note_on_c, 4, 78, 0
10, 25380, Note_on_c, 4, 76, 100
10, 25400, Note_on_c, 4, 76, 0
10, 25410, Note_on_c, 4, 74, 100
10, 25430, Note_on_c, 4, 74, 0
10, 25440, Note_on_c, 4, 81, 100
10, 25600, Note_on_c, 4, 81, 0
10, 25620, Note_on_c, 4, 83, 100
10, 25640, Note_on_c, 4, 83, 0
10, 25650, Note_on_c, 4, 81, 100
10, 25670, Note_on_c, 4, 81, 0
10, 25680, Note_on_c, 4, 79, 100
10, 25700, Note_on_c, 4, 79, 0
10, 25710, Note_on_c, 4, 78, 100
10, 25730, Note_on_c, 4, 78, 0
10, 25740, Note_on_c, 4, 76, 100
10, 25760, Note_on_c, 4, 76, 0
10, 25770, Note_on_c, 4, 74, 100
10, 25790, Note_on_c, 4, 74, 0
10, 25800, Note_on_c, 4, 86, 100
10, 25960, Note_on_c, 4, 86, 0
10, 25980, Note_on_c, 4, 79, 100
10, 26000, Note_on_c, 4, 79, 0
10, 26010, Note_on_c, 4, 78, 100
10, 26030, Note_on_c, 4, 78, 0
10, 26040, Note_on_c, 4, 79, 100
10, 26060, Note_on_c, 4, 79, 0
10, 26070, Note_on_c, 4, 78, 100
10, 26090, Note_on_c, 4, 78, 0
10, 26100, Note_on_c, 4, 76, 100
10, 26120, Note_on_c, 4, 76, 0
10, 26130, Note_on_c, 4, 74, 100
10, 26150, Note_on_c, 4, 74, 0
10, 26160, Note_on_c, 4, 79, 100
10, 26320, Note_on_c, 4, 79, 0
10, 26340, Note_on_c, 4, 81, 100
10, 26360, Note_on_c, 4, 81, 0
10, 26370, Note_on_c, 4, 83, 100
10, 26390, Note_on_c, 4, 83, 0
10, 26400, Note_on_c, 4, 81, 100
10, 26420, Note_on_c, 4, 81, 0
10, 26430, Note_on_c, 4, 79, 100
10, 26450, Note_on_c, 4, 79, 0
10, 26460, Note_on_c, 4, 78, 100
10, 26480, Note_on_c, 4, 78, 0
10, 26490, Note_on_c, 4, 76, 100
10, 26510, Note_on_c, 4, 76, 0
10, 26520, Note_on_c, 4, 74, 100
10, 26540, Note_on_c, 4, 74, 0
10, 26550, Note_on_c, 4, 73, 100
10, 26570, Note_on_c, 4, 73, 0
10, 26580, Note_on_c, 4, 79, 100
10, 26620, Note_on_c, 4, 79, 0
10, 26640, Note_on_c, 4, 78, 100
10, 26720, Note_on_c, 4, 78, 0
10, 27060, Note_on_c, 4, 76, 100
10, 27100, Note_on_c, 4, 76, 0
10, 27120, Note_on_c, 4, 81, 100
10, 27160, Note_on_c, 4, 81, 0
10, 27180, Note_on_c, 4, 85, 100
10, 27220, Note_on_c, 4, 85, 0
10, 27240, Note_on_c, 4, 85, 100
10, 27280, Note_on_c, 4, 85, 0
10, 27300, Note_on_c, 4, 81, 100
10, 27340, Note_on_c, 4, 81, 0
10, 27360, Note_on_c, 4, 78, 100
10, 27400, Note_on_c, 4, 78, 0
10, 27420, Note_on_c, 4, 74, 100
10, 27460, Note_on_c, 4, 74, 0
10, 27540, Note_on_c, 4, 66, 100
10, 27580, Note_on_c, 4, 66, 0
10, 27600, Note_on_c, 4, 69, 100
10, 27640, Note_on_c, 4, 69, 0
10, 27660, Note_on_c, 4, 74, 100
10, 27700, Note_on_c, 4, 74, 0
10, 27720, Note_on_c, 4, 74, 100
10, 27740, Note_on_c, 4, 74, 0
10, 27750, Note_on_c, 4, 76, 100
10, 27770, Note_on_c, 4, 76, 0
10, 27780, Note_on_c, 4, 74, 100
10, 27800, Note_on_c, 4, 74, 0
10, 27810, Note_on_c, 4, 73, 100
10, 27830, Note_on_c, 4, 73, 0
10, 27840, Note_on_c, 4, 71, 100
10, 27860, Note_on_c, 4, 71, 0
10, 27870, Note_on_c, 4, 69, 100
10, 27890, Note_on_c, 4, 69, 0
10, 27900, Note_on_c, 4, 67, 100
10, 27920, Note_on_c, 4, 67, 0
10, 27930, Note_on_c, 4, 69, 100
10, 27950, Note_on_c, 4, 69, 0
10, 27960, Note_on_c, 4, 71, 100
10, 27980, Note_on_c, 4, 71, 0
10, 27990, Note_on_c, 4, 73, 100
10, 28010, Note_on_c, 4, 73, 0
10, 28020, Note_on_c, 4, 69, 100
10, 28040, Note_on_c, 4, 69, 0
10, 28050, Note_on_c, 4, 71, 100
10, 28070, Note_on_c, 4, 71, 0
10, 28080, Note_on_c, 4, 73, 100
10, 28120, Note_on_c, 4, 73, 0
10, 28140, Note_on_c, 4, 61, 100
10, 28180, Note_on_c, 4, 61, 0
10, 28200, Note_on_c, 4, 66, 100
10, 28240, Note_on_c, 4, 66, 0
10, 28260, Note_on_c, 4, 69, 100
10, 28300, Note_on_c, 4, 69, 0
10, 28320, Note_on_c, 4, 69, 100
10, 28360, Note_on_c, 4, 69, 0
10, 28380, Note_on_c, 4, 66, 100
10, 28420, Note_on_c, 4, 66, 0
10, 28440, Note_on_c, 4, 71, 100
10, 28480, Note_on_c, 4, 71, 0
10, 28500, Note_on_c, 4, 59, 100
10, 28540, Note_on_c, 4, 59, 0
10, 28560, Note_on_c, 4, 64, 100
10, 28600, Note_on_c, 4, 64, 0
10, 28620, Note_on_c, 4, 71, 100
10, 28660, Note_on_c, 4, 71, 0
10, 28680, Note_on_c, 4, 71, 100
10, 28720, Note_on_c, 4, 71, 0
10, 28740, Note_on_c, 4, 64, 100
10, 28780, Note_on_c, 4, 64, 0
10, 28800, Note_on_c, 4, 73, 100
10, 28840, Note_on_c, 4, 73, 0
10, 28860, Note_on_c, 4, 64, 100
10, 28900, Note_on_c, 4, 64, 0
10, 28920, Note_on_c, 4, 69, 100
10, 28960, Note_on_c, 4, 69, 0
10, 28980, Note_on_c, 4, 73, 100
10, 29020, Note_on_c, 4, 73, 0
10, 29040, Note_on_c, 4, 73, 100
10, 29080, Note_on_c, 4, 73, 0
10, 29100, Note_on_c, 4, 69, 100
10, 29140, Note_on_c, 4, 69, 0
10, 29160, Note_on_c, 4, 74, 100
10, 29240, Note_on_c, 4, 74, 0
10, 29340, Note_on_c, 4, 69, 100
10, 29380, Note_on_c, 4, 69, 0
10, 29400, Note_on_c, 4, 74, 100
10, 29440, Note_on_c, 4, 74, 0
10, 29460, Note_on_c, 4, 78, 100
10, 29500, Note_on_c, 4, 78, 0
10, 29520, Note_on_c, 4, 78, 100
10, 29600, Note_on_c, 4, 78, 0
10, 29700, Note_on_c, 4, 69, 100
10, 29740, Note_on_c, 4, 69, 0
10, 29760, Note_on_c, 4, 74, 100
10, 29800, Note_on_c, 4, 74, 0
10, 29820, Note_on_c, 4, 78, 100
10, 29860, Note_on_c, 4, 78, 0
10, 29880, Note_on_c, 4, 81, 100
10, 29900, Note_on_c, 4, 81, 0
10, 29910, Note_on_c, 4, 74, 100
10, 29930, Note_on_c, 4, 74, 0
10, 29940, Note_on_c, 4, 73, 100
10, 29960, Note_on_c, 4, 73, 0
10, 29970, Note_on_c, 4, 71, 100
10, 29990, Note_on_c, 4, 71, 0
10, 30000, Note_on_c, 4, 69, 100
10, 30020, Note_on_c, 4, 69, 0
10, 30030, Note_on_c, 4, 67, 100
10, 30050, Note_on_c, 4, 67, 0
10, 30060, Note_on_c, 4, 66, 100
10, 30080, Note_on_c, 4, 66, 0
10, 30090, Note_on_c, 4, 67, 100
10, 30110, Note_on_c, 4, 67, 0
10, 30120, Note_on_c, 4, 69, 100
10, 30140, Note_on_c, 4, 69, 0
10, 30150, Note_on_c, 4, 71, 100
10, 30170, Note_on_c, 4, 71, 0
10, 30180, Note_on_c, 4, 69, 100
10, 30200, Note_on_c, 4, 69, 0
10, 30210, Note_on_c, 4, 71, 100
10, 30230, Note_on_c, 4, 71, 0
10, 30240, Note_on_c, 4, 69, 100
10, 30260, Note_on_c, 4, 69, 0
10, 30270, Note_on_c, 4, 74, 100
10, 30290, Note_on_c, 4, 74, 0
10, 30300, Note_on_c, 4, 73, 100
10, 30320, Note_on_c, 4, 73, 0
10, 30330, Note_on_c, 4, 71, 100
10, 30350, Note_on_c, 4, 71, 0
10, 30360, Note_on_c, 4, 69, 100
10, 30380, Note_on_c, 4, 69, 0
10, 30390, Note_on_c, 4, 67, 100
10, 30410, Note_on_c, 4, 67, 0
10, 30420, Note_on_c, 4, 66, 100
10, 30440, Note_on_c, 4, 66, 0
10, 30450, Note_on_c, 4, 67, 100
10, 30470, Note_on_c, 4, 67, 0
10, 30480, Note_on_c, 4, 69, 100
10, 30500, Note_on_c, 4, 69, 0
10, 30510, Note_on_c, 4, 71, 100
10, 30530, Note_on_c, 4, 71, 0
10, 30540, Note_on_c, 4, 69, 100
10, 30560, Note_on_c, 4, 69, 0
10, 30570, Note_on_c, 4, 71, 100
10, 30590, Note_on_c, 4, 71, 0
10, 30600, Note_on_c, 4, 69, 100
10, 30640, Note_on_c, 4, 69, 0
10, 30660, Note_on_c, 4, 66, 100
10, 30700, Note_on_c, 4, 66, 0
10, 31380, Note_on_c, 4, 74, 100
10, 31400, Note_on_c, 4, 74, 0
10, 31410, Note_on_c, 4, 76, 100
10, 31430, Note_on_c, 4, 76, 0
10, 31440, Note_on_c, 4, 78, 100
10, 31460, Note_on_c, 4, 78, 0
10, 31470, Note_on_c, 4, 79, 100
10, 31490, Note_on_c, 4, 79, 0
10, 31500, Note_on_c, 4, 81, 100
10, 31540, Note_on_c, 4, 81, 0
10, 31560, Note_on_c, 4, 81, 100
10, 31580, Note_on_c, 4, 81, 0
10, 31590, Note_on_c, 4, 79, 100
10, 31610, Note_on_c, 4, 79, 0
10, 31620, Note_on_c, 4, 78, 100
10, 31640, Note_on_c, 4, 78, 0
10, 31650, Note_on_c, 4, 76, 100
10, 31670, Note_on_c, 4, 76, 0
10, 31680, Note_on_c, 4, 78, 100
10, 31700, Note_on_c, 4, 78, 0
10, 31710, Note_on_c, 4, 76, 100
10, 31730, Note_on_c, 4, 76, 0
10, 31740, Note_on_c, 4, 78, 100
10, 31760, Note_on_c, 4, 78, 0
10, 31770, Note_on_c, 4, 79, 100
10, 31790, Note_on_c, 4, 79, 0
10, 31800, Note_on_c, 4, 81, 100
10, 31840, Note_on_c, 4, 81, 0
10, 31860, Note_on_c, 4, 83, 100
10, 31880, Note_on_c, 4, 83, 0
10, 31890, Note_on_c, 4, 81, 100
10, 31910, Note_on_c, 4, 81, 0
10, 31920, Note_on_c, 4, 79, 100
10, 31940, Note_on_c, 4, 79, 0
10, 31950, Note_on_c, 4, 78, 100
10, 31970, Note_on_c, 4, 78, 0
10, 31980, Note_on_c, 4, 76, 100
10, 32000, Note_on_c, 4, 76, 0
10, 32010, Note_on_c, 4, 74, 100
10, 32030, Note_on_c, 4, 74, 0
10, 32040, Note_on_c, 4, 74, 100
10, 32120, Note_on_c, 4, 74, 0
10, 32760, Control_c, 4, 0, 0
10, 32760, Note_on_c, 4, 62, 100
10, 32800, Note_on_c, 4, 62, 0
10, 32820, Note_on_c, 4, 66, 100
10, 32860, Note_on_c, 4, 66, 0
10, 32880, Note_on_c, 4, 69, 100
10, 32920, Note_on_c, 4, 69, 0
10, 32940, Note_on_c, 4, 71, 100
10, 32970, Note_on_c, 4, 71, 0
10, 32970, Note_on_c, 4, 67, 100
10, 33000, Note_on_c, 4, 67, 0
10, 33000, Note_on_c, 4, 69, 100
10, 33060, Note_on_c, 4, 69, 0
10, 33120, Note_on_c, 4, 61, 100
10, 33150, Note_on_c, 4, 61, 0
10, 33150, Note_on_c, 4, 71, 100
10, 33180, Note_on_c, 4, 71, 0
10, 33180, Note_on_c, 4, 69, 100
10, 33210, Note_on_c, 4, 69, 0
10, 33210, Note_on_c, 4, 67, 100
10, 33240, Note_on_c, 4, 67, 0
10, 33240, Note_on_c, 4, 66, 100
10, 33270, Note_on_c, 4, 66, 0
10, 33270, Note_on_c, 4, 64, 100
10, 33300, Note_on_c, 4, 64, 0
10, 33300, Note_on_c, 4, 62, 100
10, 33330, Note_on_c, 4, 62, 0
10, 33330, Note_on_c, 4, 61, 100
10, 33360, Note_on_c, 4, 61, 0
10, 33360, Note_on_c, 4, 59, 100
10, 33390, Note_on_c, 4, 59, 0
10, 33390, Note_on_c, 4, 57, 100
10, 33410, Note_on_c, 4, 57, 0
10, 33420, Note_on_c, 4, 59, 100
10, 33440, Note_on_c, 4, 59, 0
10, 33450, Note_on_c, 4, 61, 100
10, 33470, Note_on_c, 4, 61, 0
10, 33480, Note_on_c, 4, 62, 100
10, 33500, Note_on_c, 4, 62, 0
10, 33510, Note_on_c, 4, 64, 100
10, 33530, Note_on_c, 4, 64, 0
10, 33540, Note_on_c, 4, 66, 100
10, 33560, Note_on_c, 4, 66, 0
10, 33570, Note_on_c, 4, 67, 100
10, 33590, Note_on_c, 4, 67, 0
10, 33600, Note_on_c, 4, 69, 100
10, 33620, Note_on_c, 4, 69, 0
10, 33630, Note_on_c, 4, 71, 100
10, 33650, Note_on_c, 4, 71, 0
10, 33660, Note_on_c, 4, 72, 100
10, 33690, Note_on_c, 4, 72, 0
10, 33690, Note_on_c, 4, 69, 100
10, 33720, Note_on_c, 4, 69, 0
10, 33720, Note_on_c, 4, 71, 100
10, 33760, Note_on_c, 4, 71, 0
10, 33840, Note_on_c, 4, 64, 100
10, 33880, Note_on_c, 4, 64, 0
10, 33900, Note_on_c, 4, 68, 100
10, 33940, Note_on_c, 4, 68, 0
10, 33960, Note_on_c, 4, 71, 100
10, 34000, Note_on_c, 4, 71, 0
10, 34020, Note_on_c, 4, 74, 100
10, 34050, Note_on_c, 4, 74, 0
10, 34050, Note_on_c, 4, 71, 100
10, 34080, Note_on_c, 4, 71, 0
10, 34080, Note_on_c, 4, 73, 100
10, 34140, Note_on_c, 4, 73, 0
10, 34200, Note_on_c, 4, 69, 100
10, 34220, Note_on_c, 4, 69, 0
10, 34230, Note_on_c, 4, 71, 100
10, 34250, Note_on_c, 4, 71, 0
10, 34260, Note_on_c, 4, 73, 100
10, 34280, Note_on_c, 4, 73, 0
10, 34290, Note_on_c, 4, 74, 100
10, 34310, Note_on_c, 4, 74, 0
10, 34320, Note_on_c, 4, 76, 100
10, 34340, Note_on_c, 4, 76, 0
10, 34350, Note_on_c, 4, 78, 100
10, 34370, Note_on_c, 4, 78, 0
10, 34380, Note_on_c, 4, 79, 100
10, 34410, Note_on_c, 4, 79, 0
10, 34410, Note_on_c, 4, 76, 100
10, 34430, Note_on_c, 4, 76, 0
10, 34440, Note_on_c, 4, 78, 100
10, 34470, Note_on_c, 4, 78, 0
10, 34470, Note_on_c, 4, 74, 100
10, 34490, Note_on_c, 4, 74, 0
10, 34500, Note_on_c, 4, 76, 100
10, 34530, Note_on_c, 4, 76, 0
10, 34530, Note_on_c, 4, 73, 100
10, 34550, Note_on_c, 4, 73, 0
10, 34560, Note_on_c, 4, 74, 100
10, 34590, Note_on_c, 4, 74, 0
10, 34590, Note_on_c, 4, 71, 100
10, 34610, Note_on_c, 4, 71, 0
10, 34620, Note_on_c, 4, 71, 100
10, 34627, Note_on_c, 4, 71, 0
10, 34627, Note_on_c, 4, 73, 100
10, 34634, Note_on_c, 4, 73, 0
10, 34635, Note_on_c, 4, 71, 100
10, 34642, Note_on_c, 4, 71, 0
10, 34642, Note_on_c, 4, 73, 100
10, 34649, Note_on_c, 4, 73, 0
10, 34650, Note_on_c, 4, 71, 100
10, 34657, Note_on_c, 4, 71, 0
10, 34657, Note_on_c, 4, 73, 100
10, 34664, Note_on_c, 4, 73, 0
10, 34665, Note_on_c, 4, 71, 100
10, 34672, Note_on_c, 4, 71, 0
10, 34672, Note_on_c, 4, 73, 100
10, 34679, Note_on_c, 4, 73, 0
10, 34680, Note_on_c, 4, 71, 100
10, 34687, Note_on_c, 4, 71, 0
10, 34687, Note_on_c, 4, 73, 100
10, 34694, Note_on_c, 4, 73, 0
10, 34695, Note_on_c, 4, 71, 100
10, 34702, Note_on_c, 4, 71, 0
10, 34702, Note_on_c, 4, 73, 100
10, 34709, Note_on_c, 4, 73, 0
10, 34710, Note_on_c, 4, 74, 100
10, 34730, Note_on_c, 4, 74, 0
10, 34740, Note_on_c, 4, 74, 100
10, 34760, Note_on_c, 4, 74, 0
10, 34770, Note_on_c, 4, 69, 100
10, 34785, Note_on_c, 4, 69, 0
10, 34785, Note_on_c, 4, 71, 100
10, 34800, Note_on_c, 4, 71, 0
10, 34800, Note_on_c, 4, 69, 100
10, 34820, Note_on_c, 4, 69, 0
10, 34830, Note_on_c, 4, 66, 100
10, 34845, Note_on_c, 4, 66, 0
10, 34845, Note_on_c, 4, 67, 100
10, 34860, Note_on_c, 4, 67, 0
10, 34860, Note_on_c, 4, 66, 100
10, 34880, Note_on_c, 4, 66, 0
10, 34890, Note_on_c, 4, 62, 100
10, 34905, Note_on_c, 4, 62, 0
10, 34905, Note_on_c, 4, 64, 100
10, 34920, Note_on_c, 4, 64, 0
10, 34920, Note_on_c, 4, 62, 100
10, 34960, Note_on_c, 4, 62, 0
10, 34980, Note_on_c, 4, 74, 100
10, 35020, Note_on_c, 4, 74, 0
10, 35040, Note_on_c, 4, 66, 100
10, 35080, Note_on_c, 4, 66, 0
10, 35100, Note_on_c, 4, 67, 100
10, 35130, Note_on_c, 4, 67, 0
10, 35130, Note_on_c, 4, 66, 100
10, 35160, Note_on_c, 4, 66, 0
10, 35160, Note_on_c, 4, 67, 100
10, 35220, Note_on_c, 4, 67, 0
10, 35280, Note_on_c, 4, 74, 100
10, 35320, Note_on_c, 4, 74, 0
10, 35340, Note_on_c, 4, 79, 100
10, 35380, Note_on_c, 4, 79, 0
10, 35400, Note_on_c, 4, 73, 100
10, 35440, Note_on_c, 4, 73, 0
10, 35460, Note_on_c, 4, 74, 100
10, 35490, Note_on_c, 4, 74, 0
10, 35490, Note_on_c, 4, 71, 100
10, 35520, Note_on_c, 4, 71, 0
10, 35520, Note_on_c, 4, 73, 100
10, 35580, Note_on_c, 4, 73, 0
10, 35640, Note_on_c, 4, 69, 100
10, 35660, Note_on_c, 4, 69, 0
10, 35670, Note_on_c, 4, 71, 100
10, 35690, Note_on_c, 4, 71, 0
10, 35700, Note_on_c, 4, 73, 100
10, 35720, Note_on_c, 4, 73, 0
10, 35730, Note_on_c, 4, 74, 100
10, 35750, Note_on_c, 4, 74, 0
10, 35760, Note_on_c, 4, 76, 100
10, 35780, Note_on_c, 4, 76, 0
10, 35790, Note_on_c, 4, 78, 100
10, 35810, Note_on_c, 4, 78, 0
10, 35820, Note_on_c, 4, 79, 100
10, 35850, Note_on_c, 4, 79, 0
10, 35850, Note_on_c, 4, 76, 100
10, 35870, Note_on_c, 4, 76, 0
10, 35880, Note_on_c, 4, 78, 100
10, 35910, Note_on_c, 4, 78, 0
10, 35910, Note_on_c, 4, 74, 100
10, 35930, Note_on_c, 4, 74, 0
10, 35940, Note_on_c, 4, 76, 100
10, 35970, Note_on_c, 4, 76, 0
10, 35970, Note_on_c, 4, 73, 100
10, 35990, Note_on_c, 4, 73, 0
10, 36000, Note_on_c, 4, 74, 100
10, 36030, Note_on_c, 4, 74, 0
10, 36030, Note_on_c, 4, 71, 100
10, 36050, Note_on_c, 4, 71, 0
10, 36060, Note_on_c, 4, 73, 100
10, 36067, Note_on_c, 4, 73, 0
10, 36067, Note_on_c, 4, 71, 100
10, 36074, Note_on_c, 4, 71, 0
10, 36075, Note_on_c, 4, 73, 100
10, 36082, Note_on_c, 4, 73, 0
10, 36082, Note_on_c, 4, 71, 100
10, 36089, Note_on_c, 4, 71, 0
10, 36090, Note_on_c, 4, 73, 100
10, 36097, Note_on_c, 4, 73, 0
10, 36097, Note_on_c, 4, 71, 100
10, 36104, Note_on_c, 4, 71, 0
10, 36105, Note_on_c, 4, 73, 100
10, 36112, Note_on_c, 4, 73, 0
10, 36112, Note_on_c, 4, 71, 100
10, 36119, Note_on_c, 4, 71, 0
10, 36120, Note_on_c, 4, 73, 100
10, 36130, Note_on_c, 4, 73, 0
10, 36130, Note_on_c, 4, 71, 100
10, 36140, Note_on_c, 4, 71, 0
10, 36140, Note_on_c, 4, 73, 100
10, 36150, Note_on_c, 4, 73, 0
10, 36150, Note_on_c, 4, 74, 100
10, 36170, Note_on_c, 4, 74, 0
10, 36180, Note_on_c, 4, 74, 100
10, 36200, Note_on_c, 4, 74, 0
10, 36210, Note_on_c, 4, 69, 100
10, 36225, Note_on_c, 4, 69, 0
10, 36225, Note_on_c, 4, 71, 100
10, 36240, Note_on_c, 4, 71, 0
10, 36240, Note_on_c, 4, 69, 100
10, 36260, Note_on_c, 4, 69, 0
10, 36270, Note_on_c, 4, 66, 100
10, 36285, Note_on_c, 4, 66, 0
10, 36285, Note_on_c, 4, 67, 100
10, 36300, Note_on_c, 4, 67, 0
10, 36300, Note_on_c, 4, 66, 100
10, 36320, Note_on_c, 4, 66, 0
10, 36330, Note_on_c, 4, 62, 100
10, 36345, Note_on_c, 4, 62, 0
10, 36345, Note_on_c, 4, 64, 100
10, 36360, Note_on_c, 4, 64, 0
10, 36360, Note_on_c, 4, 62, 100
10, 36400, Note_on_c, 4, 62, 0
10, 36420, Note_on_c, 4, 66, 100
10, 36460, Note_on_c, 4, 66, 0
10, 36480, Note_on_c, 4, 69, 100
10, 36520, Note_on_c, 4, 69, 0
10, 36540, Note_on_c, 4, 71, 100
10, 36570, Note_on_c, 4, 71, 0
10, 36570, Note_on_c, 4, 67, 100
10, 36600, Note_on_c, 4, 67, 0
10, 36600, Note_on_c, 4, 69, 100
10, 36660, Note_on_c, 4, 69, 0
10, 36720, Note_on_c, 4, 62, 100
10, 36740, Note_on_c, 4, 62, 0
10, 36750, Note_on_c, 4, 71, 100
10, 36770, Note_on_c, 4, 71, 0
10, 36780, Note_on_c, 4, 69, 100
10, 36800, Note_on_c, 4, 69, 0
10, 36810, Note_on_c, 4, 67, 100
10, 36830, Note_on_c, 4, 67, 0
10, 36840, Note_on_c, 4, 66, 100
10, 36860, Note_on_c, 4, 66, 0
10, 36870, Note_on_c, 4, 64, 100
10, 36890, Note_on_c, 4, 64, 0
10, 36900, Note_on_c, 4, 62, 100
10, 36920, Note_on_c, 4, 62, 0
10, 36930, Note_on_c, 4, 74, 100
10, 36950, Note_on_c, 4, 74, 0
10, 36960, Note_on_c, 4, 73, 100
10, 36980, Note_on_c, 4, 73, 0
10, 36990, Note_on_c, 4, 71, 100
10, 37010, Note_on_c, 4, 71, 0
10, 37020, Note_on_c, 4, 69, 100
10, 37040, Note_on_c, 4, 69, 0
10, 37050, Note_on_c, 4, 68, 100
10, 37070, Note_on_c, 4, 68, 0
10, 37080, Note_on_c, 4, 69, 100
10, 37120, Note_on_c, 4, 69, 0
10, 37140, Note_on_c, 4, 73, 100
10, 37180, Note_on_c, 4, 73, 0
10, 37200, Note_on_c, 4, 76, 100
10, 37240, Note_on_c, 4, 76, 0
10, 37260, Note_on_c, 4, 78, 100
10, 37290, Note_on_c, 4, 78, 0
10, 37290, Note_on_c, 4, 74, 100
10, 37320, Note_on_c, 4, 74, 0
10, 37320, Note_on_c, 4, 76, 100
10, 37360, Note_on_c, 4, 76, 0
10, 37440, Note_on_c, 4, 68, 100
10, 37460, Note_on_c, 4, 68, 0
10, 37470, Note_on_c, 4, 78, 100
10, 37500, Note_on_c, 4, 78, 0
10, 37500, Note_on_c, 4, 76, 100
10, 37530, Note_on_c, 4, 76, 0
10, 37530, Note_on_c, 4, 74, 100
10, 37560, Note_on_c, 4, 74, 0
10, 37560, Note_on_c, 4, 73, 100
10, 37590, Note_on_c, 4, 73, 0
10, 37590, Note_on_c, 4, 71, 100
10, 37620, Note_on_c, 4, 71, 0
10, 37620, Note_on_c, 4, 69, 100
10, 37650, Note_on_c, 4, 69, 0
10, 37650, Note_on_c, 4, 67, 100
10, 37680, Note_on_c, 4, 67, 0
10, 37680, Note_on_c, 4, 66, 100
10, 37710, Note_on_c, 4, 66, 0
10, 37710, Note_on_c, 4, 64, 100
10, 37730, Note_on_c, 4, 64, 0
10, 37740, Note_on_c, 4, 66, 100
10, 37760, Note_on_c, 4, 66, 0
10, 37770, Note_on_c, 4, 67, 100
10, 37790, Note_on_c, 4, 67, 0
10, 37800, Note_on_c, 4, 69, 100
10, 37820, Note_on_c, 4, 69, 0
10, 37830, Note_on_c, 4, 71, 100
10, 37850, Note_on_c, 4, 71, 0
10, 37860, Note_on_c, 4, 73, 100
10, 37880, Note_on_c, 4, 73, 0
10, 37890, Note_on_c, 4, 74, 100
10, 37910, Note_on_c, 4, 74, 0
10, 37920, Note_on_c, 4, 76, 100
10, 37940, Note_on_c, 4, 76, 0
10, 37950, Note_on_c, 4, 78, 100
10, 37970, Note_on_c, 4, 78, 0
10, 37980, Note_on_c, 4, 79, 100
10, 38010, Note_on_c, 4, 79, 0
10, 38010, Note_on_c, 4, 76, 100
10, 38040, Note_on_c, 4, 76, 0
10, 38040, Note_on_c, 4, 78, 100
10, 38080, Note_on_c, 4, 78, 0
10, 38160, Note_on_c, 4, 71, 100
10, 38200, Note_on_c, 4, 71, 0
10, 38220, Note_on_c, 4, 75, 100
10, 38260, Note_on_c, 4, 75, 0
10, 38280, Note_on_c, 4, 78, 100
10, 38320, Note_on_c, 4, 78, 0
10, 38340, Note_on_c, 4, 81, 100
10, 38370, Note_on_c, 4, 81, 0
10, 38370, Note_on_c, 4, 78, 100
10, 38400, Note_on_c, 4, 78, 0
10, 38400, Note_on_c, 4, 80, 100
10, 38440, Note_on_c, 4, 80, 0
10, 38520, Note_on_c, 4, 64, 100
10, 38540, Note_on_c, 4, 64, 0
10, 38550, Note_on_c, 4, 66, 100
10, 38570, Note_on_c, 4, 66, 0
10, 38580, Note_on_c, 4, 68, 100
10, 38600, Note_on_c, 4, 68, 0
10, 38610, Note_on_c, 4, 69, 100
10, 38630, Note_on_c, 4, 69, 0
10, 38640, Note_on_c, 4, 71, 100
10, 38660, Note_on_c, 4, 71, 0
10, 38670, Note_on_c, 4, 73, 100
10, 38690, Note_on_c, 4, 73, 0
10, 38700, Note_on_c, 4, 74, 100
10, 38730, Note_on_c, 4, 74, 0
10, 38730, Note_on_c, 4, 71, 100
10, 38750, Note_on_c, 4, 71, 0
10, 38760, Note_on_c, 4, 73, 100
10, 38790, Note_on_c, 4, 73, 0
10, 38790, Note_on_c, 4, 69, 100
10, 38810, Note_on_c, 4, 69, 0
10, 38820, Note_on_c, 4, 71, 100
10, 38850, Note_on_c, 4, 71, 0
10, 38850, Note_on_c, 4, 68, 100
10, 38870, Note_on_c, 4, 68, 0
10, 38880, Note_on_c, 4, 69, 100
10, 38910, Note_on_c, 4, 69, 0
10, 38910, Note_on_c, 4, 66, 100
10, 38940, Note_on_c, 4, 66, 0
10, 38940, Note_on_c, 4, 68, 100
10, 39000, Note_on_c, 4, 68, 0
10, 39030, Note_on_c, 4, 69, 100
10, 39050, Note_on_c, 4, 69, 0
10, 39060, Note_on_c, 4, 69, 100
10, 39080, Note_on_c, 4, 69, 0
10, 39090, Note_on_c, 4, 64, 100
10, 39105, Note_on_c, 4, 64, 0
10, 39105, Note_on_c, 4, 66, 100
10, 39120, Note_on_c, 4, 66, 0
10, 39120, Note_on_c, 4, 64, 100
10, 39140, Note_on_c, 4, 64, 0
10, 39150, Note_on_c, 4, 61, 100
10, 39165, Note_on_c, 4, 61, 0
10, 39165, Note_on_c, 4, 62, 100
10, 39180, Note_on_c, 4, 62, 0
10, 39180, Note_on_c, 4, 61, 100
10, 39200, Note_on_c, 4, 61, 0
10, 39210, Note_on_c, 4, 57, 100
10, 39225, Note_on_c, 4, 57, 0
10, 39225, Note_on_c, 4, 59, 100
10, 39240, Note_on_c, 4, 59, 0
10, 39240, Note_on_c, 4, 57, 100
10, 39260, Note_on_c, 4, 57, 0
10, 39270, Note_on_c, 4, 69, 100
10, 39285, Note_on_c, 4, 69, 0
10, 39285, Note_on_c, 4, 71, 100
10, 39300, Note_on_c, 4, 71, 0
10, 39300, Note_on_c, 4, 69, 100
10, 39320, Note_on_c, 4, 69, 0
10, 39330, Note_on_c, 4, 66, 100
10, 39345, Note_on_c, 4, 66, 0
10, 39345, Note_on_c, 4, 67, 100
10, 39360, Note_on_c, 4, 67, 0
10, 39360, Note_on_c, 4, 66, 100
10, 39380, Note_on_c, 4, 66, 0
10, 39390, Note_on_c, 4, 62, 100
10, 39405, Note_on_c, 4, 62, 0
10, 39405, Note_on_c, 4, 64, 100
10, 39420, Note_on_c, 4, 64, 0
10, 39420, Note_on_c, 4, 62, 100
10, 39460, Note_on_c, 4, 62, 0
10, 39630, Note_on_c, 4, 76, 100
10, 39645, Note_on_c, 4, 76, 0
10, 39645, Note_on_c, 4, 78, 100
10, 39660, Note_on_c, 4, 78, 0
10, 39660, Note_on_c, 4, 76, 100
10, 39680, Note_on_c, 4, 76, 0
10, 39690, Note_on_c, 4, 73, 100
10, 39705, Note_on_c, 4, 73, 0
10, 39705, Note_on_c, 4, 74, 100
10, 39720, Note_on_c, 4, 74, 0
10, 39720, Note_on_c, 4, 73, 100
10, 39740, Note_on_c, 4, 73, 0
10, 39750, Note_on_c, 4, 70, 100
10, 39765, Note_on_c, 4, 70, 0
10, 39765, Note_on_c, 4, 71, 100
10, 39780, Note_on_c, 4, 71, 0
10, 39780, Note_on_c, 4, 70, 100
10, 39840, Note_on_c, 4, 70, 0
10, 40170, Note_on_c, 4, 71, 100
10, 40185, Note_on_c, 4, 71, 0
10, 40185, Note_on_c, 4, 73, 100
10, 40200, Note_on_c, 4, 73, 0
10, 40200, Note_on_c, 4, 71, 100
10, 40220, Note_on_c, 4, 71, 0
10, 40230, Note_on_c, 4, 67, 100
10, 40245, Note_on_c, 4, 67, 0
10, 40245, Note_on_c, 4, 69, 100
10, 40260, Note_on_c, 4, 69, 0
10, 40260, Note_on_c, 4, 67, 100
10, 40280, Note_on_c, 4, 67, 0
10, 40290, Note_on_c, 4, 64, 100
10, 40305, Note_on_c, 4, 64, 0
10, 40305, Note_on_c, 4, 66, 100
10, 40320, Note_on_c, 4, 66, 0
10, 40320, Note_on_c, 4, 64, 100
10, 40380, Note_on_c, 4, 64, 0
10, 40530, Note_on_c, 4, 69, 100
10, 40545, Note_on_c, 4, 69, 0
10, 40545, Note_on_c, 4, 71, 100
10, 40560, Note_on_c, 4, 71, 0
10, 40560, Note_on_c, 4, 69, 100
10, 40580, Note_on_c, 4, 69, 0
10, 40590, Note_on_c, 4, 66, 100
10, 40605, Note_on_c, 4, 66, 0
10, 40605, Note_on_c, 4, 67, 100
10, 40620, Note_on_c, 4, 67, 0
10, 40620, Note_on_c, 4, 66, 100
10, 40640, Note_on_c, 4, 66, 0
10, 40650, Note_on_c, 4, 62, 100
10, 40665, Note_on_c, 4, 62, 0
10, 40665, Note_on_c, 4, 64, 100
10, 40680, Note_on_c, 4, 64, 0
10, 40680, Note_on_c, 4, 62, 100
10, 40720, Note_on_c, 4, 62, 0
10, 41760, Note_on_c, 4, 71, 100
10, 41780, Note_on_c, 4, 71, 0
10, 41790, Note_on_c, 4, 73, 100
10, 41810, Note_on_c, 4, 73, 0
10, 41820, Note_on_c, 4, 74, 100
10, 41840, Note_on_c, 4, 74, 0
10, 41850, Note_on_c, 4, 76, 100
10, 41870, Note_on_c, 4, 76, 0
10, 41880, Note_on_c, 4, 78, 100
10, 41900, Note_on_c, 4, 78, 0
10, 41910, Note_on_c, 4, 80, 100
10, 41930, Note_on_c, 4, 80, 0
10, 41940, Note_on_c, 4, 81, 100
10, 41970, Note_on_c, 4, 81, 0
10, 41970, Note_on_c, 4, 78, 100
10, 42000, Note_on_c, 4, 78, 0
10, 42000, Note_on_c, 4, 80, 100
10, 42040, Note_on_c, 4, 80, 0
10, 42120, Note_on_c, 4, 73, 100
10, 42160, Note_on_c, 4, 73, 0
10, 42180, Note_on_c, 4, 77, 100
10, 42220, Note_on_c, 4, 77, 0
10, 42240, Note_on_c, 4, 80, 100
10, 42280, Note_on_c, 4, 80, 0
10, 42300, Note_on_c, 4, 83, 100
10, 42330, Note_on_c, 4, 83, 0
10, 42330, Note_on_c, 4, 80, 100
10, 42360, Note_on_c, 4, 80, 0
10, 42360, Note_on_c, 4, 82, 100
10, 42400, Note_on_c, 4, 82, 0
10, 42480, Note_on_c, 4, 66, 100
10, 42500, Note_on_c, 4, 66, 0
10, 42510, Note_on_c, 4, 68, 100
10, 42530, Note_on_c, 4, 68, 0
10, 42540, Note_on_c, 4, 70, 100
10, 42560, Note_on_c, 4, 70, 0
10, 42570, Note_on_c, 4, 71, 100
10, 42590, Note_on_c, 4, 71, 0
10, 42600, Note_on_c, 4, 73, 100
10, 42620, Note_on_c, 4, 73, 0
10, 42630, Note_on_c, 4, 74, 100
10, 42650, Note_on_c, 4, 74, 0
10, 42660, Note_on_c, 4, 76, 100
10, 42690, Note_on_c, 4, 76, 0
10, 42690, Note_on_c, 4, 73, 100
10, 42710, Note_on_c, 4, 73, 0
10, 42720, Note_on_c, 4, 74, 100
10, 42750, Note_on_c, 4, 74, 0
10, 42750, Note_on_c, 4, 71, 100
10, 42770, Note_on_c, 4, 71, 0
10, 42780, Note_on_c, 4, 73, 100
10, 42810, Note_on_c, 4, 73, 0
10, 42810, Note_on_c, 4, 70, 100
10, 42830, Note_on_c, 4, 70, 0
10, 42840, Note_on_c, 4, 71, 100
10, 42870, Note_on_c, 4, 71, 0
10, 42870, Note_on_c, 4, 67, 100
10, 42900, Note_on_c, 4, 67, 0
10, 42900, Note_on_c, 4, 70, 100
10, 42907, Note_on_c, 4, 70, 0
10, 42907, Note_on_c, 4, 67, 100
10, 42914, Note_on_c, 4, 67, 0
10, 42915, Note_on_c, 4, 70, 100
10, 42922, Note_on_c, 4, 70, 0
10, 42922, Note_on_c, 4, 67, 100
10, 42929, Note_on_c, 4, 67, 0
10, 42930, Note_on_c, 4, 70, 100
10, 42937, Note_on_c, 4, 70, 0
10, 42937, Note_on_c, 4, 67, 100
10, 42944, Note_on_c, 4, 67, 0
10, 42945, Note_on_c, 4, 70, 100
10, 42952, Note_on_c, 4, 70, 0
10, 42952, Note_on_c, 4, 67, 100
10, 42959, Note_on_c, 4, 67, 0
10, 42960, Note_on_c, 4, 70, 100
10, 42970, Note_on_c, 4, 70, 0
10, 42970, Note_on_c, 4, 67, 100
10, 42980, Note_on_c, 4, 67, 0
10, 42980, Note_on_c, 4, 70, 100
10, 42990, Note_on_c, 4, 70, 0
10, 42990, Note_on_c, 4, 71, 100
10, 43010, Note_on_c, 4, 71, 0
10, 43020, Note_on_c, 4, 71, 100
10, 43040, Note_on_c, 4, 71, 0
10, 43050, Note_on_c, 4, 66, 100
10, 43065, Note_on_c, 4, 66, 0
10, 43065, Note_on_c, 4, 67, 100
10, 43080, Note_on_c, 4, 67, 0
10, 43080, Note_on_c, 4, 66, 100
10, 43100, Note_on_c, 4, 66, 0
10, 43110, Note_on_c, 4, 62, 100
10, 43125, Note_on_c, 4, 62, 0
10, 43125, Note_on_c, 4, 64, 100
10, 43140, Note_on_c, 4, 64, 0
10, 43140, Note_on_c, 4, 62, 100
10, 43160, Note_on_c, 4, 62, 0
10, 43170, Note_on_c, 4, 59, 100
10, 43185, Note_on_c, 4, 59, 0
10, 43185, Note_on_c, 4, 61, 100
10, 43200, Note_on_c, 4, 61, 0
10, 43200, Note_on_c, 4, 59, 100
10, 43280, Note_on_c, 4, 59, 0
10, 44130, Note_on_c, 4, 69, 100
10, 44145, Note_on_c, 4, 69, 0
10, 44145, Note_on_c, 4, 71, 100
10, 44160, Note_on_c, 4, 71, 0
10, 44160, Note_on_c, 4, 69, 100
10, 44180, Note_on_c, 4, 69, 0
10, 44190, Note_on_c, 4, 66, 100
10, 44205, Note_on_c, 4, 66, 0
10, 44205, Note_on_c, 4, 67, 100
10, 44220, Note_on_c, 4, 67, 0
10, 44220, Note_on_c, 4, 66, 100
10, 44240, Note_on_c, 4, 66, 0
10, 44250, Note_on_c, 4, 62, 100
10, 44265, Note_on_c, 4, 62, 0
10, 44265, Note_on_c, 4, 64, 100
10, 44280, Note_on_c, 4, 64, 0
10, 44280, Note_on_c, 4, 62, 100
10, 44490, Note_on_c, 4, 62, 0
10, 44490, Note_on_c, 4, 71, 100
10, 44505, Note_on_c, 4, 71, 0
10, 44505, Note_on_c, 4, 72, 100
10, 44520, Note_on_c, 4, 72, 0
10, 44520, Note_on_c, 4, 71, 100
10, 44540, Note_on_c, 4, 71, 0
10, 44550, Note_on_c, 4, 67, 100
10, 44565, Note_on_c, 4, 67, 0
10, 44565, Note_on_c, 4, 69, 100
10, 44580, Note_on_c, 4, 69, 0
10, 44580, Note_on_c, 4, 67, 100
10, 44600, Note_on_c, 4, 67, 0
10, 44610, Note_on_c, 4, 64, 100
10, 44625, Note_on_c, 4, 64, 0
10, 44625, Note_on_c, 4, 66, 100
10, 44640, Note_on_c, 4, 66, 0
10, 44640, Note_on_c, 4, 64, 100
10, 44720, Note_on_c, 4, 64, 0
10, 45210, Note_on_c, 4, 69, 100
10, 45225, Note_on_c, 4, 69, 0
10, 45225, Note_on_c, 4, 71, 100
10, 45240, Note_on_c, 4, 71, 0
10, 45240, Note_on_c, 4, 69, 100
10, 45260, Note_on_c, 4, 69, 0
10, 45270, Note_on_c, 4, 66, 100
10, 45285, Note_on_c, 4, 66, 0
10, 45285, Note_on_c, 4, 67, 100
10, 45300, Note_on_c, 4, 67, 0
10, 45300, Note_on_c, 4, 66, 100
10, 45320, Note_on_c, 4, 66, 0
10, 45330, Note_on_c, 4, 62, 100
10, 45345, Note_on_c, 4, 62, 0
10, 45345, Note_on_c, 4, 64, 100
10, 45360, Note_on_c, 4, 64, 0
10, 45360, Note_on_c, 4, 62, 100
10, 45380, Note_on_c, 4, 62, 0
10, 45390, Note_on_c, 4, 64, 100
10, 45410, Note_on_c, 4, 64, 0
10, 45420, Note_on_c, 4, 66, 100
10, 45440, Note_on_c, 4, 66, 0
10, 45450, Note_on_c, 4, 67, 100
10, 45470, Note_on_c, 4, 67, 0
10, 45480, Note_on_c, 4, 69, 100
10, 45500, Note_on_c, 4, 69, 0
10, 45510, Note_on_c, 4, 71, 100
10, 45530, Note_on_c, 4, 71, 0
10, 45540, Note_on_c, 4, 72, 100
10, 45570, Note_on_c, 4, 72, 0
10, 45570, Note_on_c, 4, 69, 100
10, 45600, Note_on_c, 4, 69, 0
10, 45600, Note_on_c, 4, 71, 100
10, 45640, Note_on_c, 4, 71, 0
10, 45720, Note_on_c, 4, 64, 100
10, 45760, Note_on_c, 4, 64, 0
10, 45780, Note_on_c, 4, 68, 100
10, 45820, Note_on_c, 4, 68, 0
10, 45840, Note_on_c, 4, 71, 100
10, 45880, Note_on_c, 4, 71, 0
10, 45900, Note_on_c, 4, 74, 100
10, 45930, Note_on_c, 4, 74, 0
10, 45930, Note_on_c, 4, 71, 100
10, 45960, Note_on_c, 4, 71, 0
10, 45960, Note_on_c, 4, 73, 100
10, 46000, Note_on_c, 4, 73, 0
10, 46080, Note_on_c, 4, 69, 100
10, 46100, Note_on_c, 4, 69, 0
10, 46110, Note_on_c, 4, 71, 100
10, 46130, Note_on_c, 4, 71, 0
10, 46140, Note_on_c, 4, 73, 100
10, 46160, Note_on_c, 4, 73, 0
10, 46170, Note_on_c, 4, 74, 100
10, 46190, Note_on_c, 4, 74, 0
10, 46200, Note_on_c, 4, 76, 100
10, 46220, Note_on_c, 4, 76, 0
10, 46230, Note_on_c, 4, 78, 100
10, 46250, Note_on_c, 4, 78, 0
10, 46260, Note_on_c, 4, 76, 100
10, 46290, Note_on_c, 4, 76, 0
10, 46290, Note_on_c, 4, 73, 100
10, 46320, Note_on_c, 4, 73, 0
10, 46320, Note_on_c, 4, 81, 100
10, 46360, Note_on_c, 4, 81, 0
10, 46410, Note_on_c, 4, 79, 100
10, 46430, Note_on_c, 4, 79, 0
10, 46440, Note_on_c, 4, 78, 100
10, 46470, Note_on_c, 4, 78, 0
10, 46470, Note_on_c, 4, 74, 100
10, 46500, Note_on_c, 4, 74, 0
10, 46500, Note_on_c, 4, 73, 100
10, 46590, Note_on_c, 4, 73, 0
10, 46590, Note_on_c, 4, 74, 100
10, 46610, Note_on_c, 4, 74, 0
10, 46620, Note_on_c, 4, 74, 100
10, 46660, Note_on_c, 4, 74, 0
10, 47160, Note_on_c, 4, 62, 100
10, 47200, Note_on_c, 4, 62, 0
10, 47220, Note_on_c, 4, 66, 100
10, 47260, Note_on_c, 4, 66, 0
10, 47280, Note_on_c, 4, 69, 100
10, 47320, Note_on_c, 4, 69, 0
10, 47340, Note_on_c, 4, 71, 100
10, 47370, Note_on_c, 4, 71, 0
10, 47370, Note_on_c, 4, 67, 100
10, 47400, Note_on_c, 4, 67, 0
10, 47400, Note_on_c, 4, 69, 100
10, 47460, Note_on_c, 4, 69, 0
10, 47520, Note_on_c, 4, 61, 100
10, 47550, Note_on_c, 4, 61, 0
10, 47550, Note_on_c, 4, 71, 100
10, 47580, Note_on_c, 4, 71, 0
10, 47580, Note_on_c, 4, 69, 100
10, 47610, Note_on_c, 4, 69, 0
10, 47610, Note_on_c, 4, 67, 100
10, 47640, Note_on_c, 4, 67, 0
10, 47640, Note_on_c, 4, 66, 100
10, 47670, Note_on_c, 4, 66, 0
10, 47670, Note_on_c, 4, 64, 100
10, 47700, Note_on_c, 4, 64, 0
10, 47700, Note_on_c, 4, 62, 100
10, 47730, Note_on_c, 4, 62, 0
10, 47730, Note_on_c, 4, 61, 100
10, 47760, Note_on_c, 4, 61, 0
10, 47760, Note_on_c, 4, 59, 100
10, 47790, Note_on_c, 4, 59, 0
10, 47790, Note_on_c, 4, 57, 100
10, 47810, Note_on_c, 4, 57, 0
10, 47820, Note_on_c, 4, 59, 100
10, 47840, Note_on_c, 4, 59, 0
10, 47850, Note_on_c, 4, 61, 100
10, 47870, Note_on_c, 4, 61, 0
10, 47880, Note_on_c, 4, 62, 100
10, 47900, Note_on_c, 4, 62, 0
10, 47910, Note_on_c, 4, 64, 100
10, 47930, Note_on_c, 4, 64, 0
10, 47940, Note_on_c, 4, 66, 100
10, 47960, Note_on_c, 4, 66, 0
10, 47970, Note_on_c, 4, 67, 100
10, 47990, Note_on_c, 4, 67, 0
10, 48000, Note_on_c, 4, 69, 100
10, 48020, Note_on_c, 4, 69, 0
10, 48030, Note_on_c, 4, 71, 100
10, 48050, Note_on_c, 4, 71, 0
10, 48060, Note_on_c, 4, 72, 100
10, 48090, Note_on_c, 4, 72, 0
10, 48090, Note_on_c, 4, 69, 100
10, 48120, Note_on_c, 4, 69, 0
10, 48120, Note_on_c, 4, 71, 100
10, 48160, Note_on_c, 4, 71, 0
10, 48240, Note_on_c, 4, 64, 100
10, 48280, Note_on_c, 4, 64, 0
10, 48300, Note_on_c, 4, 68, 100
10, 48340, Note_on_c, 4, 68, 0
10, 48360, Note_on_c, 4, 71, 100
10, 48400, Note_on_c, 4, 71, 0
10, 48420, Note_on_c, 4, 74, 100
10, 48450, Note_on_c, 4, 74, 0
10, 48450, Note_on_c, 4, 71, 100
10, 48480, Note_on_c, 4, 71, 0
10, 48480, Note_on_c, 4, 73, 100
10, 48540, Note_on_c, 4, 73, 0
10, 48600, Note_on_c, 4, 69, 100
10, 48620, Note_on_c, 4, 69, 0
10, 48630, Note_on_c, 4, 71, 100
10, 48650, Note_on_c, 4, 71, 0
10, 48660, Note_on_c, 4, 73, 100
10, 48680, Note_on_c, 4, 73, 0
10, 48690, Note_on_c, 4, 74, 100
10, 48710, Note_on_c, 4, 74, 0
10, 48720, Note_on_c, 4, 76, 100
10, 48740, Note_on_c, 4, 76, 0
10, 48750, Note_on_c, 4, 78, 100
10, 48770, Note_on_c, 4, 78, 0
10, 48780, Note_on_c, 4, 79, 100
10, 48810, Note_on_c, 4, 79, 0
10, 48810, Note_on_c, 4, 76, 100
10, 48830, Note_on_c, 4, 76, 0
10, 48840, Note_on_c, 4, 78, 100
10, 48870, Note_on_c, 4, 78, 0
10, 48870, Note_on_c, 4, 74, 100
10, 48890, Note_on_c, 4, 74, 0
10, 48900, Note_on_c, 4, 76, 100
10, 48930, Note_on_c, 4, 76, 0
10, 48930, Note_on_c, 4, 73, 100
10, 48950, Note_on_c, 4, 73, 0
10, 48960, Note_on_c, 4, 74, 100
10, 48990, Note_on_c, 4, 74, 0
10, 48990, Note_on_c, 4, 71, 100
10, 49010, Note_on_c, 4, 71, 0
10, 49020, Note_on_c, 4, 73, 100
10, 49110, Note_on_c, 4, 73, 0
10, 49110, Note_on_c, 4, 74, 100
10, 49130, Note_on_c, 4, 74, 0
10, 49140, Note_on_c, 4, 74, 100
10, 49260, Note_on_c, 4, 74, 0
10, 61020, Control_c, 4, 0, 0
10, 61020, Note_on_c, 4, 78, 100
10, 61060, Note_on_c, 4, 78, 0
10, 61080, Note_on_c, 4, 73, 100
10, 61120, Note_on_c, 4, 73, 0
10, 61140, Note_on_c, 4, 78, 100
10, 61180, Note_on_c, 4, 78, 0
10, 61200, Note_on_c, 4, 73, 100
10, 61240, Note_on_c, 4, 73, 0
10, 61260, Note_on_c, 4, 80, 100
10, 61400, Note_on_c, 4, 80, 0
10, 61410, Note_on_c, 4, 78, 100
10, 61430, Note_on_c, 4, 78, 0
10, 61440, Note_on_c, 4, 77, 100
10, 61460, Note_on_c, 4, 77, 0
10, 61470, Note_on_c, 4, 75, 100
10, 61490, Note_on_c, 4, 75, 0
10, 61500, Note_on_c, 4, 73, 100
10, 61520, Note_on_c, 4, 73, 0
10, 61530, Note_on_c, 4, 71, 100
10, 61550, Note_on_c, 4, 71, 0
10, 61560, Note_on_c, 4, 69, 100
10, 61580, Note_on_c, 4, 69, 0
10, 61590, Note_on_c, 4, 68, 100
10, 61610, Note_on_c, 4, 68, 0
10, 61620, Note_on_c, 4, 66, 100
10, 61640, Note_on_c, 4, 66, 0
10, 61650, Note_on_c, 4, 69, 100
10, 61670, Note_on_c, 4, 69, 0
10, 61680, Note_on_c, 4, 68, 100
10, 61700, Note_on_c, 4, 68, 0
10, 61710, Note_on_c, 4, 66, 100
10, 61730, Note_on_c, 4, 66, 0
10, 61740, Note_on_c, 4, 73, 100
10, 61780, Note_on_c, 4, 73, 0
10, 61800, Note_on_c, 4, 61, 100
10, 61840, Note_on_c, 4, 61, 0
10, 61980, Note_on_c, 4, 85, 100
10, 62020, Note_on_c, 4, 85, 0
10, 62040, Note_on_c, 4, 85, 100
10, 62080, Note_on_c, 4, 85, 0
10, 62100, Note_on_c, 4, 85, 100
10, 62140, Note_on_c, 4, 85, 0
10, 62160, Note_on_c, 4, 85, 100
10, 62200, Note_on_c, 4, 85, 0
10, 62220, Note_on_c, 4, 85, 100
10, 62260, Note_on_c, 4, 85, 0
10, 62280, Note_on_c, 4, 83, 100
10, 62300, Note_on_c, 4, 83, 0
10, 62310, Note_on_c, 4, 81, 100
10, 62330, Note_on_c, 4, 81, 0
10, 62340, Note_on_c, 4, 80, 100
10, 62380, Note_on_c, 4, 80, 0
10, 62400, Note_on_c, 4, 78, 100
10, 62420, Note_on_c, 4, 78, 0
10, 62430, Note_on_c, 4, 80, 100
10, 62450, Note_on_c, 4, 80, 0
10, 62460, Note_on_c, 4, 81, 100
10, 62500, Note_on_c, 4, 81, 0
10, 62520, Note_on_c, 4, 78, 100
10, 62560, Note_on_c, 4, 78, 0
10, 62700, Note_on_c, 4, 80, 100
10, 62740, Note_on_c, 4, 80, 0
10, 62760, Note_on_c, 4, 80, 100
10, 62800, Note_on_c, 4, 80, 0
10, 62820, Note_on_c, 4, 80, 100
10, 62860, Note_on_c, 4, 80, 0
10, 62880, Note_on_c, 4, 80, 100
10, 62920, Note_on_c, 4, 80, 0
10, 62940, Note_on_c, 4, 80, 100
10, 62980, Note_on_c, 4, 80, 0
10, 63000, Note_on_c, 4, 78, 100
10, 63020, Note_on_c, 4, 78, 0
10, 63030, Note_on_c, 4, 77, 100
10, 63050, Note_on_c, 4, 77, 0
10, 63060, Note_on_c, 4, 78, 100
10, 63100, Note_on_c, 4, 78, 0
10, 63120, Note_on_c, 4, 78, 100
10, 63160, Note_on_c, 4, 78, 0
10, 63180, Note_on_c, 4, 78, 100
10, 63220, Note_on_c, 4, 78, 0
10, 63240, Note_on_c, 4, 77, 100
10, 63260, Note_on_c, 4, 77, 0
10, 63270, Note_on_c, 4, 75, 100
10, 63290, Note_on_c, 4, 75, 0
10, 63300, Note_on_c, 4, 73, 100
10, 63340, Note_on_c, 4, 73, 0
10, 63360, Note_on_c, 4, 71, 100
10, 63400, Note_on_c, 4, 71, 0
10, 63420, Note_on_c, 4, 69, 100
10, 63460, Note_on_c, 4, 69, 0
10, 63480, Note_on_c, 4, 71, 100
10, 63500, Note_on_c, 4, 71, 0
10, 63510, Note_on_c, 4, 73, 100
10, 63530, Note_on_c, 4, 73, 0
10, 63540, Note_on_c, 4, 74, 100
10, 63660, Note_on_c, 4, 74, 0
10, 63720, Note_on_c, 4, 76, 100
10, 63740, Note_on_c, 4, 76, 0
10, 63750, Note_on_c, 4, 74, 100
10, 63770, Note_on_c, 4, 74, 0
10, 63780, Note_on_c, 4, 73, 100
10, 63820, Note_on_c, 4, 73, 0
10, 63840, Note_on_c, 4, 71, 100
10, 63880, Note_on_c, 4, 71, 0
10, 63900, Note_on_c, 4, 69, 100
10, 63940, Note_on_c, 4, 69, 0
10, 63960, Note_on_c, 4, 85, 100
10, 63980, Note_on_c, 4, 85, 0
10, 63990, Note_on_c, 4, 85, 100
10, 64010, Note_on_c, 4, 85, 0
10, 64020, Note_on_c, 4, 85, 100
10, 64060, Note_on_c, 4, 85, 0
10, 64080, Note_on_c, 4, 85, 100
10, 64120, Note_on_c, 4, 85, 0
10, 64140, Note_on_c, 4, 85, 100
10, 64180, Note_on_c, 4, 85, 0
10, 64200, Note_on_c, 4, 83, 100
10, 64220, Note_on_c, 4, 83, 0
10, 64230, Note_on_c, 4, 81, 100
10, 64250, Note_on_c, 4, 81, 0
10, 64260, Note_on_c, 4, 80, 100
10, 64300, Note_on_c, 4, 80, 0
10, 64320, Note_on_c, 4, 78, 100
10, 64360, Note_on_c, 4, 78, 0
10, 64380, Note_on_c, 4, 76, 100
10, 64420, Note_on_c, 4, 76, 0
10, 64440, Note_on_c, 4, 81, 100
10, 64460, Note_on_c, 4, 81, 0
10, 64470, Note_on_c, 4, 80, 100
10, 64490, Note_on_c, 4, 80, 0
10, 64500, Note_on_c, 4, 81, 100
10, 64620, Note_on_c, 4, 81, 0
10, 64680, Note_on_c, 4, 83, 100
10, 64700, Note_on_c, 4, 83, 0
10, 64710, Note_on_c, 4, 81, 100
10, 64730, Note_on_c, 4, 81, 0
10, 64740, Note_on_c, 4, 80, 100
10, 64780, Note_on_c, 4, 80, 0
10, 64800, Note_on_c, 4, 78, 100
10, 64840, Note_on_c, 4, 78, 0
10, 64860, Note_on_c, 4, 80, 100
10, 65000, Note_on_c, 4, 80, 0
10, 65010, Note_on_c, 4, 76, 100
10, 65030, Note_on_c, 4, 76, 0
10, 65040, Note_on_c, 4, 78, 100
10, 65060, Note_on_c, 4, 78, 0
10, 65070, Note_on_c, 4, 80, 100
10, 65090, Note_on_c, 4, 80, 0
10, 65100, Note_on_c, 4, 81, 100
10, 65140, Note_on_c, 4, 81, 0
10, 65160, Note_on_c, 4, 78, 100
10, 65200, Note_on_c, 4, 78, 0
10, 65220, Note_on_c, 4, 76, 100
10, 65260, Note_on_c, 4, 76, 0
10, 65280, Note_on_c, 4, 74, 100
10, 65320, Note_on_c, 4, 74, 0
10, 65340, Note_on_c, 4, 73, 100
10, 65360, Note_on_c, 4, 73, 0
10, 65370, Note_on_c, 4, 71, 100
10, 65390, Note_on_c, 4, 71, 0
10, 65400, Note_on_c, 4, 69, 100
10, 65420, Note_on_c, 4, 69, 0
10, 65430, Note_on_c, 4, 71, 100
10, 65450, Note_on_c, 4, 71, 0
10, 65460, Note_on_c, 4, 73, 100
10, 65480, Note_on_c, 4, 73, 0
10, 65490, Note_on_c, 4, 71, 100
10, 65510, Note_on_c, 4, 71, 0
10, 65520, Note_on_c, 4, 73, 100
10, 65540, Note_on_c, 4, 73, 0
10, 65550, Note_on_c, 4, 75, 100
10, 65570, Note_on_c, 4, 75, 0
10, 65580, Note_on_c, 4, 76, 100
10, 65600, Note_on_c, 4, 76, 0
10, 65610, Note_on_c, 4, 75, 100
10, 65630, Note_on_c, 4, 75, 0
10, 65640, Note_on_c, 4, 76, 100
10, 65660, Note_on_c, 4, 76, 0
10, 65670, Note_on_c, 4, 78, 100
10, 65690, Note_on_c, 4, 78, 0
10, 65700, Note_on_c, 4, 80, 100
10, 65720, Note_on_c, 4, 80, 0
10, 65730, Note_on_c, 4, 76, 100
10, 65750, Note_on_c, 4, 76, 0
10, 65760, Note_on_c, 4, 78, 100
10, 65780, Note_on_c, 4, 78, 0
10, 65790, Note_on_c, 4, 80, 100
10, 65810, Note_on_c, 4, 80, 0
10, 65820, Note_on_c, 4, 81, 100
10, 65860, Note_on_c, 4, 81, 0
10, 65880, Note_on_c, 4, 76, 100
10, 65960, Note_on_c, 4, 76, 0
10, 66000, Note_on_c, 4, 74, 100
10, 66020, Note_on_c, 4, 74, 0
10, 66030, Note_on_c, 4, 73, 100
10, 66050, Note_on_c, 4, 73, 0
10, 66060, Note_on_c, 4, 71, 100
10, 66140, Note_on_c, 4, 71, 0
10, 66540, Note_on_c, 4, 78, 100
10, 66580, Note_on_c, 4, 78, 0
10, 66600, Note_on_c, 4, 78, 100
10, 66640, Note_on_c, 4, 78, 0
10, 66660, Note_on_c, 4, 78, 100
10, 66700, Note_on_c, 4, 78, 0
10, 66720, Note_on_c, 4, 78, 100
10, 66760, Note_on_c, 4, 78, 0
10, 66780, Note_on_c, 4, 78, 100
10, 66820, Note_on_c, 4, 78, 0
10, 66840, Note_on_c, 4, 76, 100
10, 66860, Note_on_c, 4, 76, 0
10, 66870, Note_on_c, 4, 74, 100
10, 66890, Note_on_c, 4, 74, 0
10, 66900, Note_on_c, 4, 73, 100
10, 66940, Note_on_c, 4, 73, 0
10, 66960, Note_on_c, 4, 71, 100
10, 67000, Note_on_c, 4, 71, 0
10, 67020, Note_on_c, 4, 69, 100
10, 67040, Note_on_c, 4, 69, 0
10, 67050, Note_on_c, 4, 68, 100
10, 67070, Note_on_c, 4, 68, 0
10, 67080, Note_on_c, 4, 66, 100
10, 67100, Note_on_c, 4, 66, 0
10, 67110, Note_on_c, 4, 68, 100
10, 67130, Note_on_c, 4, 68, 0
10, 67140, Note_on_c, 4, 69, 100
10, 67160, Note_on_c, 4, 69, 0
10, 67170, Note_on_c, 4, 68, 100
10, 67190, Note_on_c, 4, 68, 0
10, 67200, Note_on_c, 4, 69, 100
10, 67220, Note_on_c, 4, 69, 0
10, 67230, Note_on_c, 4, 71, 100
10, 67250, Note_on_c, 4, 71, 0
10, 67260, Note_on_c, 4, 73, 100
10, 67280, Note_on_c, 4, 73, 0
10, 67290, Note_on_c, 4, 68, 100
10, 67310, Note_on_c, 4, 68, 0
10, 67320, Note_on_c, 4, 69, 100
10, 67340, Note_on_c, 4, 69, 0
10, 67350, Note_on_c, 4, 71, 100
10, 67370, Note_on_c, 4, 71, 0
10, 67380, Note_on_c, 4, 73, 100
10, 67400, Note_on_c, 4, 73, 0
10, 67410, Note_on_c, 4, 71, 100
10, 67430, Note_on_c, 4, 71, 0
10, 67440, Note_on_c, 4, 73, 100
10, 67460, Note_on_c, 4, 73, 0
10, 67470, Note_on_c, 4, 74, 100
10, 67490, Note_on_c, 4, 74, 0
10, 67500, Note_on_c, 4, 68, 100
10, 67580, Note_on_c, 4, 68, 0
10, 67980, Note_on_c, 4, 80, 100
10, 68020, Note_on_c, 4, 80, 0
10, 68040, Note_on_c, 4, 80, 100
10, 68080, Note_on_c, 4, 80, 0
10, 68100, Note_on_c, 4, 80, 100
10, 68140, Note_on_c, 4, 80, 0
10, 68160, Note_on_c, 4, 80, 100
10, 68200, Note_on_c, 4, 80, 0
10, 68220, Note_on_c, 4, 80, 100
10, 68260, Note_on_c, 4, 80, 0
10, 68280, Note_on_c, 4, 78, 100
10, 68300, Note_on_c, 4, 78, 0
10, 68310, Note_on_c, 4, 76, 100
10, 68330, Note_on_c, 4, 76, 0
10, 68340, Note_on_c, 4, 74, 100
10, 68380, Note_on_c, 4, 74, 0
10, 68400, Note_on_c, 4, 73, 100
10, 68440, Note_on_c, 4, 73, 0
10, 68460, Note_on_c, 4, 71, 100
10, 68500, Note_on_c, 4, 71, 0
10, 68520, Note_on_c, 4, 73, 100
10, 68540, Note_on_c, 4, 73, 0
10, 68550, Note_on_c, 4, 74, 100
10, 68570, Note_on_c, 4, 74, 0
10, 68580, Note_on_c, 4, 76, 100
10, 68740, Note_on_c, 4, 76, 0
10, 68760, Note_on_c, 4, 78, 100
10, 68800, Note_on_c, 4, 78, 0
10, 68820, Note_on_c, 4, 73, 100
10, 68840, Note_on_c, 4, 73, 0
10, 68850, Note_on_c, 4, 71, 100
10, 68870, Note_on_c, 4, 71, 0
10, 68880, Note_on_c, 4, 69, 100
10, 68900, Note_on_c, 4, 69, 0
10, 68910, Note_on_c, 4, 67, 100
10, 68930, Note_on_c, 4, 67, 0
10, 68940, Note_on_c, 4, 66, 100
10, 68980, Note_on_c, 4, 66, 0
10, 69000, Note_on_c, 4, 59, 100
10, 69020, Note_on_c, 4, 59, 0
10, 69030, Note_on_c, 4, 61, 100
10, 69050, Note_on_c, 4, 61, 0
10, 69060, Note_on_c, 4, 62, 100
10, 69080, Note_on_c, 4, 62, 0
10, 69090, Note_on_c, 4, 59, 100
10, 69110, Note_on_c, 4, 59, 0
10, 69120, Note_on_c, 4, 61, 100
10, 69140, Note_on_c, 4, 61, 0
10, 69150, Note_on_c, 4, 62, 100
10, 69170, Note_on_c, 4, 62, 0
10, 69180, Note_on_c, 4, 64, 100
10, 69320, Note_on_c, 4, 64, 0
10, 69330, Note_on_c, 4, 67, 100
10, 69350, Note_on_c, 4, 67, 0
10, 69360, Note_on_c, 4, 66, 100
10, 69380, Note_on_c, 4, 66, 0
10, 69390, Note_on_c, 4, 64, 100
10, 69410, Note_on_c, 4, 64, 0
10, 69420, Note_on_c, 4, 62, 100
10, 69460, Note_on_c, 4, 62, 0
10, 69480, Note_on_c, 4, 71, 100
10, 69520, Note_on_c, 4, 71, 0
10, 69660, Note_on_c, 4, 80, 100
10, 69700, Note_on_c, 4, 80, 0
10, 69720, Note_on_c, 4, 80, 100
10, 69760, Note_on_c, 4, 80, 0
10, 69780, Note_on_c, 4, 80, 100
10, 69820, Note_on_c, 4, 80, 0
10, 69840, Note_on_c, 4, 80, 100
10, 69880, Note_on_c, 4, 80, 0
10, 69900, Note_on_c, 4, 80, 100
10, 69940, Note_on_c, 4, 80, 0
10, 69960, Note_on_c, 4, 78, 100
10, 69980, Note_on_c, 4, 78, 0
10, 69990, Note_on_c, 4, 76, 100
10, 70010, Note_on_c, 4, 76, 0
10, 70020, Note_on_c, 4, 75, 100
10, 70060, Note_on_c, 4, 75, 0
10, 70080, Note_on_c, 4, 73, 100
10, 70120, Note_on_c, 4, 73, 0
10, 70140, Note_on_c, 4, 72, 100
10, 70180, Note_on_c, 4, 72, 0
10, 70200, Note_on_c, 4, 73, 100
10, 70220, Note_on_c, 4, 73, 0
10, 70230, Note_on_c, 4, 75, 100
10, 70250, Note_on_c, 4, 75, 0
10, 70260, Note_on_c, 4, 76, 100
10, 70380, Note_on_c, 4, 76, 0
10, 70440, Note_on_c, 4, 81, 100
10, 70480, Note_on_c, 4, 81, 0
10, 70500, Note_on_c, 4, 75, 100
10, 70580, Note_on_c, 4, 75, 0
10, 70620, Note_on_c, 4, 77, 100
10, 70700, Note_on_c, 4, 77, 0
10, 70860, Note_on_c, 4, 80, 100
10, 70940, Note_on_c, 4, 80, 0
10, 71100, Note_on_c, 4, 85, 100
10, 71180, Note_on_c, 4, 85, 0
10, 71340, Note_on_c, 4, 68, 100
10, 71420, Note_on_c, 4, 68, 0
10, 71580, Note_on_c, 4, 71, 100
10, 71660, Note_on_c, 4, 71, 0
10, 71820, Note_on_c, 4, 77, 100
10, 71900, Note_on_c, 4, 77, 0
10, 72060, Note_on_c, 4, 80, 100
10, 72297, Note_on_c, 4, 80, 0
10, 72810, Note_on_c, 4, 68, 90
10, 72840, Note_on_c, 4, 68, 0
10, 72840, Note_on_c, 4, 69, 90
10, 72870, Note_on_c, 4, 69, 0
10, 72870, Note_on_c, 4, 71, 90
10, 72900, Note_on_c, 4, 71, 0
10, 72900, Note_on_c, 4, 73, 90
10, 72930, Note_on_c, 4, 73, 0
10, 72930, Note_on_c, 4, 73, 90
10, 72960, Note_on_c, 4, 73, 0
10, 72960, Note_on_c, 4, 75, 90
10, 72990, Note_on_c, 4, 75, 0
10, 72990, Note_on_c, 4, 77, 90
10, 73020, Note_on_c, 4, 77, 0
10, 73020, Note_on_c, 4, 78, 100
10, 73040, Note_on_c, 4, 78, 0
10, 73050, Note_on_c, 4, 80, 100
10, 73070, Note_on_c, 4, 80, 0
10, 73080, Note_on_c, 4, 81, 100
10, 73100, Note_on_c, 4, 81, 0
10, 73110, Note_on_c, 4, 80, 100
10, 73130, Note_on_c, 4, 80, 0
10, 73140, Note_on_c, 4, 78, 100
10, 73160, Note_on_c, 4, 78, 0
10, 73170, Note_on_c, 4, 81, 100
10, 73190, Note_on_c, 4, 81, 0
10, 73200, Note_on_c, 4, 80, 100
10, 73220, Note_on_c, 4, 80, 0
10, 73230, Note_on_c, 4, 78, 100
10, 73250, Note_on_c, 4, 78, 0
10, 73260, Note_on_c, 4, 85, 100
10, 73300, Note_on_c, 4, 85, 0
10, 73320, Note_on_c, 4, 77, 100
10, 73340, Note_on_c, 4, 77, 0
10, 73350, Note_on_c, 4, 78, 100
10, 73370, Note_on_c, 4, 78, 0
10, 73380, Note_on_c, 4, 80, 100
10, 73420, Note_on_c, 4, 80, 0
10, 73440, Note_on_c, 4, 77, 100
10, 73480, Note_on_c, 4, 77, 0
10, 73500, Note_on_c, 4, 73, 100
10, 73560, Note_on_c, 4, 73, 0
10, 73590, Note_on_c, 4, 71, 100
10, 73610, Note_on_c, 4, 71, 0
10, 73620, Note_on_c, 4, 71, 100
10, 73738, Note_on_c, 4, 71, 0
10, 73740, Note_on_c, 4, 69, 100
10, 73978, Note_on_c, 4, 69, 0
10, 91260, Control_c, 4, 0, 0
10, 91260, Note_on_c, 4, 71, 100
10, 91377, Note_on_c, 4, 71, 0
10, 91380, Note_on_c, 4, 69, 100
10, 91437, Note_on_c, 4, 69, 0
10, 91440, Note_on_c, 4, 72, 100
10, 91497, Note_on_c, 4, 72, 0
10, 91500, Note_on_c, 4, 71, 100
10, 91557, Note_on_c, 4, 71, 0
10, 91560, Note_on_c, 4, 69, 100
10, 91617, Note_on_c, 4, 69, 0
10, 91620, Note_on_c, 4, 69, 100
10, 91677, Note_on_c, 4, 69, 0
10, 91680, Note_on_c, 4, 71, 100
10, 91737, Note_on_c, 4, 71, 0
10, 91740, Note_on_c, 4, 72, 100
10, 91797, Note_on_c, 4, 72, 0
10, 91800, Note_on_c, 4, 72, 100
10, 92038, Note_on_c, 4, 72, 0
10, 92040, Note_on_c, 4, 71, 100
10, 92097, Note_on_c, 4, 71, 0
10, 92100, Note_on_c, 4, 69, 100
10, 92157, Note_on_c, 4, 69, 0
10, 92160, Note_on_c, 4, 78, 100
10, 92217, Note_on_c, 4, 78, 0
10, 92220, Note_on_c, 4, 71, 100
10, 92277, Note_on_c, 4, 71, 0
10, 92280, Note_on_c, 4, 69, 100
10, 92337, Note_on_c, 4, 69, 0
10, 92340, Note_on_c, 4, 68, 100
10, 92397, Note_on_c, 4, 68, 0
10, 92400, Note_on_c, 4, 69, 100
10, 92457, Note_on_c, 4, 69, 0
10, 92460, Note_on_c, 4, 71, 100
10, 92517, Note_on_c, 4, 71, 0
10, 92520, Note_on_c, 4, 71, 100
10, 92760, Note_on_c, 4, 71, 0
10, 92760, Note_on_c, 4, 69, 100
10, 92817, Note_on_c, 4, 69, 0
10, 92820, Note_on_c, 4, 68, 100
10, 92877, Note_on_c, 4, 68, 0
10, 92880, Note_on_c, 4, 76, 100
10, 92937, Note_on_c, 4, 76, 0
10, 92940, Note_on_c, 4, 69, 100
10, 93000, Note_on_c, 4, 69, 0
10, 93000, Note_on_c, 4, 67, 100
10, 93057, Note_on_c, 4, 67, 0
10, 93060, Note_on_c, 4, 69, 100
10, 93117, Note_on_c, 4, 69, 0
10, 93120, Note_on_c, 4, 67, 100
10, 93177, Note_on_c, 4, 67, 0
10, 93180, Note_on_c, 4, 66, 100
10, 93237, Note_on_c, 4, 66, 0
10, 93240, Note_on_c, 4, 75, 100
10, 93297, Note_on_c, 4, 75, 0
10, 93300, Note_on_c, 4, 76, 100
10, 93357, Note_on_c, 4, 76, 0
10, 93360, Note_on_c, 4, 78, 100
10, 93417, Note_on_c, 4, 78, 0
10, 93420, Note_on_c, 4, 67, 100
10, 93477, Note_on_c, 4, 67, 0
10, 93480, Note_on_c, 4, 72, 100
10, 93537, Note_on_c, 4, 72, 0
10, 93540, Note_on_c, 4, 71, 100
10, 93597, Note_on_c, 4, 71, 0
10, 93600, Note_on_c, 4, 69, 100
10, 93657, Note_on_c, 4, 69, 0
10, 93660, Note_on_c, 4, 67, 100
10, 93717, Note_on_c, 4, 67, 0
10, 93720, Note_on_c, 4, 66, 100
10, 93777, Note_on_c, 4, 66, 0
10, 93780, Note_on_c, 4, 64, 100
10, 93897, Note_on_c, 4, 64, 0
10, 96300, Note_on_c, 4, 71, 100
10, 96417, Note_on_c, 4, 71, 0
10, 96420, Note_on_c, 4, 69, 100
10, 96477, Note_on_c, 4, 69, 0
10, 96480, Note_on_c, 4, 72, 100
10, 96537, Note_on_c, 4, 72, 0
10, 96540, Note_on_c, 4, 71, 100
10, 96597, Note_on_c, 4, 71, 0
10, 96600, Note_on_c, 4, 69, 100
10, 96657, Note_on_c, 4, 69, 0
10, 96660, Note_on_c, 4, 69, 100
10, 96717, Note_on_c, 4, 69, 0
10, 96720, Note_on_c, 4, 71, 100
10, 96777, Note_on_c, 4, 71, 0
10, 96780, Note_on_c, 4, 72, 100
10, 96837, Note_on_c, 4, 72, 0
10, 96840, Note_on_c, 4, 72, 100
10, 97080, Note_on_c, 4, 72, 0
10, 97080, Note_on_c, 4, 71, 100
10, 97140, Note_on_c, 4, 71, 0
10, 97140, Note_on_c, 4, 69, 100
10, 97197, Note_on_c, 4, 69, 0
10, 97200, Note_on_c, 4, 78, 100
10, 97257, Note_on_c, 4, 78, 0
10, 97260, Note_on_c, 4, 71, 100
10, 97317, Note_on_c, 4, 71, 0
10, 97320, Note_on_c, 4, 69, 100
10, 97377, Note_on_c, 4, 69, 0
10, 97380, Note_on_c, 4, 68, 100
10, 97437, Note_on_c, 4, 68, 0
10, 97440, Note_on_c, 4, 69, 100
10, 97497, Note_on_c, 4, 69, 0
10, 97500, Note_on_c, 4, 71, 100
10, 97557, Note_on_c, 4, 71, 0
10, 97560, Note_on_c, 4, 71, 100
10, 97800, Note_on_c, 4, 71, 0
10, 97800, Note_on_c, 4, 69, 100
10, 97857, Note_on_c, 4, 69, 0
10, 97860, Note_on_c, 4, 68, 100
10, 97917, Note_on_c, 4, 68, 0
10, 97920, Note_on_c, 4, 80, 100
10, 97977, Note_on_c, 4, 80, 0
10, 97980, Note_on_c, 4, 73, 100
10, 98037, Note_on_c, 4, 73, 0
10, 98040, Note_on_c, 4, 71, 100
10, 98097, Note_on_c, 4, 71, 0
10, 98100, Note_on_c, 4, 70, 100
10, 98217, Note_on_c, 4, 70, 0
10, 98220, Note_on_c, 4, 73, 100
10, 98277, Note_on_c, 4, 73, 0
10, 98280, Note_on_c, 4, 76, 100
10, 98397, Note_on_c, 4, 76, 0
10, 98400, Note_on_c, 4, 79, 100
10, 98457, Note_on_c, 4, 79, 0
10, 98460, Note_on_c, 4, 78, 100
10, 98517, Note_on_c, 4, 78, 0
10, 98520, Note_on_c, 4, 76, 100
10, 98577, Note_on_c, 4, 76, 0
10, 98580, Note_on_c, 4, 74, 100
10, 98637, Note_on_c, 4, 74, 0
10, 98640, Note_on_c, 4, 73, 100
10, 98697, Note_on_c, 4, 73, 0
10, 98700, Note_on_c, 4, 71, 100
10, 98757, Note_on_c, 4, 71, 0
10, 98760, Note_on_c, 4, 70, 100
10, 98817, Note_on_c, 4, 70, 0
10, 98820, Note_on_c, 4, 71, 100
10, 98937, Note_on_c, 4, 71, 0
10, 99180, Note_on_c, 4, 79, 100
10, 99237, Note_on_c, 4, 79, 0
10, 99240, Note_on_c, 4, 78, 100
10, 99297, Note_on_c, 4, 78, 0
10, 99300, Note_on_c, 4, 76, 100
10, 99357, Note_on_c, 4, 76, 0
10, 99360, Note_on_c, 4, 76, 100
10, 99417, Note_on_c, 4, 76, 0
10, 99420, Note_on_c, 4, 74, 100
10, 99477, Note_on_c, 4, 74, 0
10, 99480, Note_on_c, 4, 73, 100
10, 99537, Note_on_c, 4, 73, 0
10, 99540, Note_on_c, 4, 73, 100
10, 99657, Note_on_c, 4, 73, 0
10, 99900, Note_on_c, 4, 78, 100
10, 99957, Note_on_c, 4, 78, 0
10, 99960, Note_on_c, 4, 76, 100
10, 100017, Note_on_c, 4, 76, 0
10, 100020, Note_on_c, 4, 75, 100
10, 100077, Note_on_c, 4, 75, 0
10, 100080, Note_on_c, 4, 75, 100
10, 100137, Note_on_c, 4, 75, 0
10, 100140, Note_on_c, 4, 73, 100
10, 100197, Note_on_c, 4, 73, 0
10, 100200, Note_on_c, 4, 71, 100
10, 100257, Note_on_c, 4, 71, 0
10, 100260, Note_on_c, 4, 71, 100
10, 100617, Note_on_c, 4, 71, 0
10, 100620, Note_on_c, 4, 70, 100
10, 100737, Note_on_c, 4, 70, 0
10, 100920, Note_on_c, 4, 73, 100
10, 100977, Note_on_c, 4, 73, 0
10, 100980, Note_on_c, 4, 74, 100
10, 101037, Note_on_c, 4, 74, 0
10, 101040, Note_on_c, 4, 73, 100
10, 101097, Note_on_c, 4, 73, 0
10, 101100, Note_on_c, 4, 71, 100
10, 101157, Note_on_c, 4, 71, 0
10, 101160, Note_on_c, 4, 70, 100
10, 101217, Note_on_c, 4, 70, 0
10, 101220, Note_on_c, 4, 66, 100
10, 101277, Note_on_c, 4, 66, 0
10, 101280, Note_on_c, 4, 64, 100
10, 101337, Note_on_c, 4, 64, 0
10, 101340, Note_on_c, 4, 62, 100
10, 101457, Note_on_c, 4, 62, 0
10, 102180, Note_on_c, 4, 69, 100
10, 102237, Note_on_c, 4, 69, 0
10, 102240, Note_on_c, 4, 72, 100
10, 102478, Note_on_c, 4, 72, 0
10, 102480, Note_on_c, 4, 71, 100
10, 102537, Note_on_c, 4, 71, 0
10, 102540, Note_on_c, 4, 69, 100
10, 102657, Note_on_c, 4, 69, 0
10, 102660, Note_on_c, 4, 67, 100
10, 102717, Note_on_c, 4, 67, 0
10, 102720, Note_on_c, 4, 66, 100
10, 102777, Note_on_c, 4, 66, 0
10, 102780, Note_on_c, 4, 67, 100
10, 102837, Note_on_c, 4, 67, 0
10, 102840, Note_on_c, 4, 69, 100
10, 102897, Note_on_c, 4, 69, 0
10, 102900, Note_on_c, 4, 71, 100
10, 102957, Note_on_c, 4, 71, 0
10, 103500, Note_on_c, 4, 77, 100
10, 103617, Note_on_c, 4, 77, 0
10, 103620, Note_on_c, 4, 74, 100
10, 103677, Note_on_c, 4, 74, 0
10, 103680, Note_on_c, 4, 79, 100
10, 103737, Note_on_c, 4, 79, 0
10, 103740, Note_on_c, 4, 77, 100
10, 103797, Note_on_c, 4, 77, 0
10, 103800, Note_on_c, 4, 76, 100
10, 103857, Note_on_c, 4, 76, 0
10, 103860, Note_on_c, 4, 76, 100
10, 103917, Note_on_c, 4, 76, 0
10, 103920, Note_on_c, 4, 77, 100
10, 103977, Note_on_c, 4, 77, 0
10, 103980, Note_on_c, 4, 79, 100
10, 104037, Note_on_c, 4, 79, 0
10, 104040, Note_on_c, 4, 79, 100
10, 104280, Note_on_c, 4, 79, 0
10, 104280, Note_on_c, 4, 77, 100
10, 104337, Note_on_c, 4, 77, 0
10, 104340, Note_on_c, 4, 76, 100
10, 104397, Note_on_c, 4, 76, 0
10, 104400, Note_on_c, 4, 82, 100
10, 104457, Note_on_c, 4, 82, 0
10, 104460, Note_on_c, 4, 81, 100
10, 104517, Note_on_c, 4, 81, 0
10, 104520, Note_on_c, 4, 79, 100
10, 104578, Note_on_c, 4, 79, 0
10, 104580, Note_on_c, 4, 77, 100
10, 104998, Note_on_c, 4, 77, 0
10, 105000, Note_on_c, 4, 76, 100
10, 105057, Note_on_c, 4, 76, 0
10, 105060, Note_on_c, 4, 74, 100
10, 105117, Note_on_c, 4, 74, 0
10, 105120, Note_on_c, 4, 74, 100
10, 105177, Note_on_c, 4, 74, 0
10, 105180, Note_on_c, 4, 72, 100
10, 105237, Note_on_c, 4, 72, 0
10, 105240, Note_on_c, 4, 71, 100
10, 105297, Note_on_c, 4, 71, 0
10, 105300, Note_on_c, 4, 72, 100
10, 105357, Note_on_c, 4, 72, 0
10, 105360, Note_on_c, 4, 71, 100
10, 105417, Note_on_c, 4, 71, 0
10, 105420, Note_on_c, 4, 74, 100
10, 105477, Note_on_c, 4, 74, 0
10, 105660, Note_on_c, 4, 77, 100
10, 105717, Note_on_c, 4, 77, 0
10, 105720, Note_on_c, 4, 76, 100
10, 105777, Note_on_c, 4, 76, 0
10, 105780, Note_on_c, 4, 74, 100
10, 105837, Note_on_c, 4, 74, 0
10, 105840, Note_on_c, 4, 74, 100
10, 105897, Note_on_c, 4, 74, 0
10, 105900, Note_on_c, 4, 72, 100
10, 105957, Note_on_c, 4, 72, 0
10, 105960, Note_on_c, 4, 71, 100
10, 106017, Note_on_c, 4, 71, 0
10, 106020, Note_on_c, 4, 71, 100
10, 106137, Note_on_c, 4, 71, 0
10, 106380, Note_on_c, 4, 76, 100
10, 106437, Note_on_c, 4, 76, 0
10, 106440, Note_on_c, 4, 74, 100
10, 106497, Note_on_c, 4, 74, 0
10, 106500, Note_on_c, 4, 73, 100
10, 106557, Note_on_c, 4, 73, 0
10, 106560, Note_on_c, 4, 73, 100
10, 106617, Note_on_c, 4, 73, 0
10, 106620, Note_on_c, 4, 71, 100
10, 106677, Note_on_c, 4, 71, 0
10, 106680, Note_on_c, 4, 69, 100
10, 106737, Note_on_c, 4, 69, 0
10, 106740, Note_on_c, 4, 69, 100
10, 107097, Note_on_c, 4, 69, 0
10, 107100, Note_on_c, 4, 68, 100
10, 107277, Note_on_c, 4, 68, 0
10, 107400, Note_on_c, 4, 71, 100
10, 107457, Note_on_c, 4, 71, 0
10, 107460, Note_on_c, 4, 72, 100
10, 107517, Note_on_c, 4, 72, 0
10, 107520, Note_on_c, 4, 71, 100
10, 107577, Note_on_c, 4, 71, 0
10, 107580, Note_on_c, 4, 69, 100
10, 107637, Note_on_c, 4, 69, 0
10, 107640, Note_on_c, 4, 68, 100
10, 107697, Note_on_c, 4, 68, 0
10, 107700, Note_on_c, 4, 65, 100
10, 107757, Note_on_c, 4, 65, 0
10, 107760, Note_on_c, 4, 64, 100
10, 107817, Note_on_c, 4, 64, 0
10, 107820, Note_on_c, 4, 60, 100
10, 107937, Note_on_c, 4, 60, 0
10, 108660, Note_on_c, 4, 76, 100
10, 108717, Note_on_c, 4, 76, 0
10, 108720, Note_on_c, 4, 79, 100
10, 108957, Note_on_c, 4, 79, 0
10, 108960, Note_on_c, 4, 78, 100
10, 109017, Note_on_c, 4, 78, 0
10, 109020, Note_on_c, 4, 76, 100
10, 109137, Note_on_c, 4, 76, 0
10, 109140, Note_on_c, 4, 75, 100
10, 109197, Note_on_c, 4, 75, 0
10, 109200, Note_on_c, 4, 73, 100
10, 109257, Note_on_c, 4, 73, 0
10, 109260, Note_on_c, 4, 75, 100
10, 109317, Note_on_c, 4, 75, 0
10, 109320, Note_on_c, 4, 76, 100
10, 109377, Note_on_c, 4, 76, 0
10, 109380, Note_on_c, 4, 78, 100
10, 109437, Note_on_c, 4, 78, 0
10, 109440, Note_on_c, 4, 78, 100
10, 109497, Note_on_c, 4, 78, 0
10, 109500, Note_on_c, 4, 79, 100
10, 109557, Note_on_c, 4, 79, 0
10, 109560, Note_on_c, 4, 81, 100
10, 109617, Note_on_c, 4, 81, 0
10, 109620, Note_on_c, 4, 81, 100
10, 109737, Note_on_c, 4, 81, 0
10, 109980, Note_on_c, 4, 71, 100
10, 110037, Note_on_c, 4, 71, 0
10, 110040, Note_on_c, 4, 69, 100
10, 110097, Note_on_c, 4, 69, 0
10, 110100, Note_on_c, 4, 67, 100
10, 110157, Note_on_c, 4, 67, 0
10, 110160, Note_on_c, 4, 72, 100
10, 110217, Note_on_c, 4, 72, 0
10, 110220, Note_on_c, 4, 71, 100
10, 110277, Note_on_c, 4, 71, 0
10, 110280, Note_on_c, 4, 69, 100
10, 110337, Note_on_c, 4, 69, 0
10, 110340, Note_on_c, 4, 69, 100
10, 110397, Note_on_c, 4, 69, 0
10, 110400, Note_on_c, 4, 71, 100
10, 110457, Note_on_c, 4, 71, 0
10, 110460, Note_on_c, 4, 72, 100
10, 110517, Note_on_c, 4, 72, 0
10, 110520, Note_on_c, 4, 72, 100
10, 110760, Note_on_c, 4, 72, 0
10, 110760, Note_on_c, 4, 71, 100
10, 110820, Note_on_c, 4, 71, 0
10, 110820, Note_on_c, 4, 69, 100
10, 110877, Note_on_c, 4, 69, 0
10, 110880, Note_on_c, 4, 78, 100
10, 110937, Note_on_c, 4, 78, 0
10, 110940, Note_on_c, 4, 71, 100
10, 110998, Note_on_c, 4, 71, 0
10, 111000, Note_on_c, 4, 69, 100
10, 111057, Note_on_c, 4, 69, 0
10, 111060, Note_on_c, 4, 68, 100
10, 111117, Note_on_c, 4, 68, 0
10, 111120, Note_on_c, 4, 69, 100
10, 111177, Note_on_c, 4, 69, 0
10, 111180, Note_on_c, 4, 71, 100
10, 111237, Note_on_c, 4, 71, 0
10, 111240, Note_on_c, 4, 71, 100
10, 111480, Note_on_c, 4, 71, 0
10, 111480, Note_on_c, 4, 69, 100
10, 111537, Note_on_c, 4, 69, 0
10, 111540, Note_on_c, 4, 68, 100
10, 111597, Note_on_c, 4, 68, 0
10, 111600, Note_on_c, 4, 76, 100
10, 111657, Note_on_c, 4, 76, 0
10, 111660, Note_on_c, 4, 69, 100
10, 111717, Note_on_c, 4, 69, 0
10, 111720, Note_on_c, 4, 67, 100
10, 111777, Note_on_c, 4, 67, 0
10, 111780, Note_on_c, 4, 69, 100
10, 111837, Note_on_c, 4, 69, 0
10, 111840, Note_on_c, 4, 67, 100
10, 111897, Note_on_c, 4, 67, 0
10, 111900, Note_on_c, 4, 66, 100
10, 111957, Note_on_c, 4, 66, 0
10, 111960, Note_on_c, 4, 75, 100
10, 112017, Note_on_c, 4, 75, 0
10, 112020, Note_on_c, 4, 76, 100
10, 112077, Note_on_c, 4, 76, 0
10, 112080, Note_on_c, 4, 78, 100
10, 112137, Note_on_c, 4, 78, 0
10, 112140, Note_on_c, 4, 67, 100
10, 112197, Note_on_c, 4, 67, 0
10, 112200, Note_on_c, 4, 72, 100
10, 112258, Note_on_c, 4, 72, 0
10, 112260, Note_on_c, 4, 71, 100
10, 112317, Note_on_c, 4, 71, 0
10, 112320, Note_on_c, 4, 69, 100
10, 112377, Note_on_c, 4, 69, 0
10, 112380, Note_on_c, 4, 67, 100
10, 112437, Note_on_c, 4, 67, 0
10, 112440, Note_on_c, 4, 66, 100
10, 112497, Note_on_c, 4, 66, 0
10, 112500, Note_on_c, 4, 64, 100
10, 112617, Note_on_c, 4, 64, 0
10, 113580, Note_on_c, 4, 71, 100
10, 113697, Note_on_c, 4, 71, 0
10, 113700, Note_on_c, 4, 69, 100
10, 113757, Note_on_c, 4, 69, 0
10, 113760, Note_on_c, 4, 72, 100
10, 113817, Note_on_c, 4, 72, 0
10, 113820, Note_on_c, 4, 71, 100
10, 113877, Note_on_c, 4, 71, 0
10, 113880, Note_on_c, 4, 69, 100
10, 113937, Note_on_c, 4, 69, 0
10, 113940, Note_on_c, 4, 69, 100
10, 113997, Note_on_c, 4, 69, 0
10, 114000, Note_on_c, 4, 71, 100
10, 114057, Note_on_c, 4, 71, 0
10, 114060, Note_on_c, 4, 72, 100
10, 114117, Note_on_c, 4, 72, 0
10, 114120, Note_on_c, 4, 72, 100
10, 114358, Note_on_c, 4, 72, 0
10, 114360, Note_on_c, 4, 71, 100
10, 114417, Note_on_c, 4, 71, 0
10, 114420, Note_on_c, 4, 69, 100
10, 114477, Note_on_c, 4, 69, 0
10, 114480, Note_on_c, 4, 78, 100
10, 114537, Note_on_c, 4, 78, 0
10, 114540, Note_on_c, 4, 71, 100
10, 114597, Note_on_c, 4, 71, 0
10, 114600, Note_on_c, 4, 69, 100
10, 114657, Note_on_c, 4, 69, 0
10, 114660, Note_on_c, 4, 68, 100
10, 114717, Note_on_c, 4, 68, 0
10, 114720, Note_on_c, 4, 69, 100
10, 114777, Note_on_c, 4, 69, 0
10, 114780, Note_on_c, 4, 71, 100
10, 114837, Note_on_c, 4, 71, 0
10, 114840, Note_on_c, 4, 71, 100
10, 115080, Note_on_c, 4, 71, 0
10, 115080, Note_on_c, 4, 69, 100
10, 115137, Note_on_c, 4, 69, 0
10, 115140, Note_on_c, 4, 68, 100
10, 115197, Note_on_c, 4, 68, 0
10, 115200, Note_on_c, 4, 76, 100
10, 115257, Note_on_c, 4, 76, 0
10, 115260, Note_on_c, 4, 69, 100
10, 115320, Note_on_c, 4, 69, 0
10, 115320, Note_on_c, 4, 67, 100
10, 115377, Note_on_c, 4, 67, 0
10, 115380, Note_on_c, 4, 69, 100
10, 115437, Note_on_c, 4, 69, 0
10, 115440, Note_on_c, 4, 67, 100
10, 115497, Note_on_c, 4, 67, 0
10, 115500, Note_on_c, 4, 66, 100
10, 115557, Note_on_c, 4, 66, 0
10, 115560, Note_on_c, 4, 75, 100
10, 115617, Note_on_c, 4, 75, 0
10, 115620, Note_on_c, 4, 76, 100
10, 115677, Note_on_c, 4, 76, 0
10, 115680, Note_on_c, 4, 78, 100
10, 115737, Note_on_c, 4, 78, 0
10, 115740, Note_on_c, 4, 67, 100
10, 115797, Note_on_c, 4, 67, 0
10, 115800, Note_on_c, 4, 72, 100
10, 115857, Note_on_c, 4, 72, 0
10, 115860, Note_on_c, 4, 71, 100
10, 115917, Note_on_c, 4, 71, 0
10, 115920, Note_on_c, 4, 69, 100
10, 115977, Note_on_c, 4, 69, 0
10, 115980, Note_on_c, 4, 67, 100
10, 116037, Note_on_c, 4, 67, 0
10, 116040, Note_on_c, 4, 66, 100
10, 116097, Note_on_c, 4, 66, 0
10, 116100, Note_on_c, 4, 64, 100
10, 116337, Note_on_c, 4, 64, 0
10, 117180, Control_c, 4, 0, 0
10, 117360, Note_on_c, 4, 74, 100
10, 117400, Note_on_c, 4, 74, 0
10, 117420, Note_on_c, 4, 71, 100
10, 117460, Note_on_c, 4, 71, 0
10, 117480, Note_on_c, 4, 74, 100
10, 117520, Note_on_c, 4, 74, 0
10, 117540, Note_on_c, 4, 67, 100
10, 117600, Note_on_c, 4, 67, 0
10, 117630, Note_on_c, 4, 67, 100
10, 117650, Note_on_c, 4, 67, 0
10, 117660, Note_on_c, 4, 67, 100
10, 117740, Note_on_c, 4, 67, 0
10, 117840, Note_on_c, 4, 72, 100
10, 117880, Note_on_c, 4, 72, 0
10, 117900, Note_on_c, 4, 71, 100
10, 117940, Note_on_c, 4, 71, 0
10, 117960, Note_on_c, 4, 74, 100
10, 118000, Note_on_c, 4, 74, 0
10, 118020, Note_on_c, 4, 67, 100
10, 118080, Note_on_c, 4, 67, 0
10, 118110, Note_on_c, 4, 67, 100
10, 118130, Note_on_c, 4, 67, 0
10, 118140, Note_on_c, 4, 67, 100
10, 118220, Note_on_c, 4, 67, 0
10, 119280, Note_on_c, 4, 81, 100
10, 119320, Note_on_c, 4, 81, 0
10, 119340, Note_on_c, 4, 78, 100
10, 119380, Note_on_c, 4, 78, 0
10, 119400, Note_on_c, 4, 81, 100
10, 119440, Note_on_c, 4, 81, 0
10, 119460, Note_on_c, 4, 74, 100
10, 119520, Note_on_c, 4, 74, 0
10, 119550, Note_on_c, 4, 74, 100
10, 119570, Note_on_c, 4, 74, 0
10, 119580, Note_on_c, 4, 74, 100
10, 119660, Note_on_c, 4, 74, 0
10, 119760, Note_on_c, 4, 79, 100
10, 119800, Note_on_c, 4, 79, 0
10, 119820, Note_on_c, 4, 78, 100
10, 119860, Note_on_c, 4, 78, 0
10, 119880, Note_on_c, 4, 81, 100
10, 119920, Note_on_c, 4, 81, 0
10, 119940, Note_on_c, 4, 74, 100
10, 120000, Note_on_c, 4, 74, 0
10, 120030, Note_on_c, 4, 74, 100
10, 120050, Note_on_c, 4, 74, 0
10, 120060, Note_on_c, 4, 74, 100
10, 120140, Note_on_c, 4, 74, 0
10, 121200, Note_on_c, 4, 74, 100
10, 121240, Note_on_c, 4, 74, 0
10, 121260, Note_on_c, 4, 71, 100
10, 121300, Note_on_c, 4, 71, 0
10, 121320, Note_on_c, 4, 74, 100
10, 121360, Note_on_c, 4, 74, 0
10, 121380, Note_on_c, 4, 67, 100
10, 121440, Note_on_c, 4, 67, 0
10, 121470, Note_on_c, 4, 67, 100
10, 121490, Note_on_c, 4, 67, 0
10, 121500, Note_on_c, 4, 67, 100
10, 121580, Note_on_c, 4, 67, 0
10, 121680, Note_on_c, 4, 72, 100
10, 121720, Note_on_c, 4, 72, 0
10, 121740, Note_on_c, 4, 71, 100
10, 121780, Note_on_c, 4, 71, 0
10, 121800, Note_on_c, 4, 74, 100
10, 121840, Note_on_c, 4, 74, 0
10, 121860, Note_on_c, 4, 67, 100
10, 121920, Note_on_c, 4, 67, 0
10, 121950, Note_on_c, 4, 67, 100
10, 121970, Note_on_c, 4, 67, 0
10, 121980, Note_on_c, 4, 67, 100
10, 122060, Note_on_c, 4, 67, 0
10, 123120, Note_on_c, 4, 81, 100
10, 123160, Note_on_c, 4, 81, 0
10, 123180, Note_on_c, 4, 78, 100
10, 123220, Note_on_c, 4, 78, 0
10, 123240, Note_on_c, 4, 81, 100
10, 123280, Note_on_c, 4, 81, 0
10, 123300, Note_on_c, 4, 74, 100
10, 123360, Note_on_c, 4, 74, 0
10, 123390, Note_on_c, 4, 74, 100
10, 123410, Note_on_c, 4, 74, 0
10, 123420, Note_on_c, 4, 74, 100
10, 123500, Note_on_c, 4, 74, 0
10, 123600, Note_on_c, 4, 79, 100
10, 123640, Note_on_c, 4, 79, 0
10, 123660, Note_on_c, 4, 78, 100
10, 123700, Note_on_c, 4, 78, 0
10, 123720, Note_on_c, 4, 81, 100
10, 123760, Note_on_c, 4, 81, 0
10, 123780, Note_on_c, 4, 74, 100
10, 123840, Note_on_c, 4, 74, 0
10, 123870, Note_on_c, 4, 74, 100
10, 123890, Note_on_c, 4, 74, 0
10, 123900, Note_on_c, 4, 74, 100
10, 123980, Note_on_c, 4, 74, 0
10, 125040, Note_on_c, 4, 76, 100
10, 125080, Note_on_c, 4, 76, 0
10, 125100, Note_on_c, 4, 73, 100
10, 125140, Note_on_c, 4, 73, 0
10, 125160, Note_on_c, 4, 76, 100
10, 125200, Note_on_c, 4, 76, 0
10, 125220, Note_on_c, 4, 69, 100
10, 125280, Note_on_c, 4, 69, 0
10, 125310, Note_on_c, 4, 69, 100
10, 125330, Note_on_c, 4, 69, 0
10, 125340, Note_on_c, 4, 67, 100
10, 125420, Note_on_c, 4, 67, 0
10, 125520, Note_on_c, 4, 74, 100
10, 125560, Note_on_c, 4, 74, 0
10, 125580, Note_on_c, 4, 73, 100
10, 125620, Note_on_c, 4, 73, 0
10, 125640, Note_on_c, 4, 76, 100
10, 125680, Note_on_c, 4, 76, 0
10, 125700, Note_on_c, 4, 69, 100
10, 125760, Note_on_c, 4, 69, 0
10, 125790, Note_on_c, 4, 69, 100
10, 125810, Note_on_c, 4, 69, 0
10, 125820, Note_on_c, 4, 67, 100
10, 125900, Note_on_c, 4, 67, 0
10, 126840, Note_on_c, 4, 69, 100
10, 126860, Note_on_c, 4, 69, 0
10, 126870, Note_on_c, 4, 67, 100
10, 126890, Note_on_c, 4, 67, 0
10, 126900, Note_on_c, 4, 66, 100
10, 126940, Note_on_c, 4, 66, 0
10, 126960, Note_on_c, 4, 69, 100
10, 127000, Note_on_c, 4, 69, 0
10, 127020, Note_on_c, 4, 78, 100
10, 127080, Note_on_c, 4, 78, 0
10, 127110, Note_on_c, 4, 78, 100
10, 127130, Note_on_c, 4, 78, 0
10, 127140, Note_on_c, 4, 78, 100
10, 127220, Note_on_c, 4, 78, 0
10, 127320, Note_on_c, 4, 74, 100
10, 127360, Note_on_c, 4, 74, 0
10, 127380, Note_on_c, 4, 74, 100
10, 127420, Note_on_c, 4, 74, 0
10, 127440, Note_on_c, 4, 74, 100
10, 127480, Note_on_c, 4, 74, 0
10, 127500, Note_on_c, 4, 69, 100
10, 127560, Note_on_c, 4, 69, 0
10, 127590, Note_on_c, 4, 69, 100
10, 127610, Note_on_c, 4, 69, 0
10, 127620, Note_on_c, 4, 69, 100
10, 127660, Note_on_c, 4, 69, 0
10, 127680, Note_on_c, 4, 81, 100
10, 127720, Note_on_c, 4, 81, 0
10, 127740, Note_on_c, 4, 79, 100
10, 127760, Note_on_c, 4, 79, 0
10, 127770, Note_on_c, 4, 83, 100
10, 127790, Note_on_c, 4, 83, 0
10, 127800, Note_on_c, 4, 81, 100
10, 127820, Note_on_c, 4, 81, 0
10, 127830, Note_on_c, 4, 83, 100
10, 127850, Note_on_c, 4, 83, 0
10, 127860, Note_on_c, 4, 79, 100
10, 127880, Note_on_c, 4, 79, 0
10, 127890, Note_on_c, 4, 81, 100
10, 127910, Note_on_c, 4, 81, 0
10, 127920, Note_on_c, 4, 78, 100
10, 127940, Note_on_c, 4, 78, 0
10, 127950, Note_on_c, 4, 79, 100
10, 127970, Note_on_c, 4, 79, 0
10, 127980, Note_on_c, 4, 76, 100
10, 128020, Note_on_c, 4, 76, 0
10, 128040, Note_on_c, 4, 79, 100
10, 128060, Note_on_c, 4, 79, 0
10, 128070, Note_on_c, 4, 76, 100
10, 128090, Note_on_c, 4, 76, 0
10, 128100, Note_on_c, 4, 81, 100
10, 128140, Note_on_c, 4, 81, 0
10, 128160, Note_on_c, 4, 69, 100
10, 128200, Note_on_c, 4, 69, 0
10, 128280, Note_on_c, 4, 74, 100
10, 128320, Note_on_c, 4, 74, 0
10, 128340, Note_on_c, 4, 79, 100
10, 128360, Note_on_c, 4, 79, 0
10, 128370, Note_on_c, 4, 78, 100
10, 128390, Note_on_c, 4, 78, 0
10, 128400, Note_on_c, 4, 79, 100
10, 128420, Note_on_c, 4, 79, 0
10, 128430, Note_on_c, 4, 76, 100
10, 128450, Note_on_c, 4, 76, 0
10, 128460, Note_on_c, 4, 81, 100
10, 128480, Note_on_c, 4, 81, 0
10, 128490, Note_on_c, 4, 79, 100
10, 128510, Note_on_c, 4, 79, 0
10, 128520, Note_on_c, 4, 81, 100
10, 128540, Note_on_c, 4, 81, 0
10, 128550, Note_on_c, 4, 78, 100
10, 128570, Note_on_c, 4, 78, 0
10, 128580, Note_on_c, 4, 83, 100
10, 128600, Note_on_c, 4, 83, 0
10, 128610, Note_on_c, 4, 81, 100
10, 128630, Note_on_c, 4, 81, 0
10, 128640, Note_on_c, 4, 83, 100
10, 128660, Note_on_c, 4, 83, 0
10, 128670, Note_on_c, 4, 80, 100
10, 128690, Note_on_c, 4, 80, 0
10, 128700, Note_on_c, 4, 76, 100
10, 128780, Note_on_c, 4, 76, 0
10, 128880, Note_on_c, 4, 81, 100
10, 128920, Note_on_c, 4, 81, 0
10, 128940, Note_on_c, 4, 80, 100
10, 128980, Note_on_c, 4, 80, 0
10, 129000, Note_on_c, 4, 76, 100
10, 129020, Note_on_c, 4, 76, 0
10, 129030, Note_on_c, 4, 80, 100
10, 129050, Note_on_c, 4, 80, 0
10, 129060, Note_on_c, 4, 82, 100
10, 129100, Note_on_c, 4, 82, 0
10, 129120, Note_on_c, 4, 76, 100
10, 129140, Note_on_c, 4, 76, 0
10, 129150, Note_on_c, 4, 82, 100
10, 129170, Note_on_c, 4, 82, 0
10, 129180, Note_on_c, 4, 83, 100
10, 129220, Note_on_c, 4, 83, 0
10, 129240, Note_on_c, 4, 74, 100
10, 129260, Note_on_c, 4, 74, 0
10, 129270, Note_on_c, 4, 78, 100
10, 129290, Note_on_c, 4, 78, 0
10, 129300, Note_on_c, 4, 79, 100
10, 129340, Note_on_c, 4, 79, 0
10, 129360, Note_on_c, 4, 76, 100
10, 129380, Note_on_c, 4, 76, 0
10, 129390, Note_on_c, 4, 79, 100
10, 129410, Note_on_c, 4, 79, 0
10, 129420, Note_on_c, 4, 73, 100
10, 129460, Note_on_c, 4, 73, 0
10, 129600, Note_on_c, 4, 83, 100
10, 129640, Note_on_c, 4, 83, 0
10, 129660, Note_on_c, 4, 79, 100
10, 129700, Note_on_c, 4, 79, 0
10, 129720, Note_on_c, 4, 76, 100
10, 129760, Note_on_c, 4, 76, 0
10, 130170, Note_on_c, 4, 64, 100
10, 130190, Note_on_c, 4, 64, 0
10, 130200, Note_on_c, 4, 69, 100
10, 130220, Note_on_c, 4, 69, 0
10, 130230, Note_on_c, 4, 73, 100
10, 130250, Note_on_c, 4, 73, 0
10, 130260, Note_on_c, 4, 76, 100
10, 130280, Note_on_c, 4, 76, 0
10, 130290, Note_on_c, 4, 69, 100
10, 130310, Note_on_c, 4, 69, 0
10, 130320, Note_on_c, 4, 73, 100
10, 130340, Note_on_c, 4, 73, 0
10, 130350, Note_on_c, 4, 76, 100
10, 130370, Note_on_c, 4, 76, 0
10, 130380, Note_on_c, 4, 80, 100
10, 130420, Note_on_c, 4, 80, 0
10, 130440, Note_on_c, 4, 80, 100
10, 130480, Note_on_c, 4, 80, 0
10, 130740, Note_on_c, 4, 78, 100
10, 130978, Note_on_c, 4, 78, 0
10, 130980, Note_on_c, 4, 78, 100
10, 131098, Note_on_c, 4, 78, 0
10, 131100, Note_on_c, 4, 78, 100
10, 131338, Note_on_c, 4, 78, 0
10, 131340, Note_on_c, 4, 77, 100
10, 131578, Note_on_c, 4, 77, 0
10, 131580, Note_on_c, 4, 78, 100
10, 132058, Note_on_c, 4, 78, 0
10, 132060, Note_on_c, 4, 78, 100
10, 132178, Note_on_c, 4, 78, 0
10, 132180, Note_on_c, 4, 83, 100
10, 132418, Note_on_c, 4, 83, 0
10, 132420, Note_on_c, 4, 83, 100
10, 132538, Note_on_c, 4, 83, 0
10, 132540, Note_on_c, 4, 81, 100
10, 132778, Note_on_c, 4, 81, 0
10, 132780, Note_on_c, 4, 83, 100
10, 133018, Note_on_c, 4, 83, 0
10, 133020, Note_on_c, 4, 81, 100
10, 133498, Note_on_c, 4, 81, 0
10, 133500, Note_on_c, 4, 81, 100
10, 133978, Note_on_c, 4, 81, 0
10, 134460, Control_c, 4, 0, 0
10, 134790, Note_on_c, 4, 78, 100
10, 134811, Note_on_c, 4, 78, 0
10, 134820, Note_on_c, 4, 78, 100
10, 134998, Note_on_c, 4, 78, 0
10, 135000, Note_on_c, 4, 76, 100
10, 135028, Note_on_c, 4, 76, 0
10, 135030, Note_on_c, 4, 74, 100
10, 135058, Note_on_c, 4, 74, 0
10, 135060, Note_on_c, 4, 73, 100
10, 135088, Note_on_c, 4, 73, 0
10, 135090, Note_on_c, 4, 71, 100
10, 135118, Note_on_c, 4, 71, 0
10, 135120, Note_on_c, 4, 69, 100
10, 135148, Note_on_c, 4, 69, 0
10, 135150, Note_on_c, 4, 68, 100
10, 135178, Note_on_c, 4, 68, 0
10, 135180, Note_on_c, 4, 69, 100
10, 135268, Note_on_c, 4, 69, 0
10, 135270, Note_on_c, 4, 66, 100
10, 135298, Note_on_c, 4, 66, 0
10, 135300, Note_on_c, 4, 72, 100
10, 135358, Note_on_c, 4, 72, 0
10, 135510, Note_on_c, 4, 73, 100
10, 135531, Note_on_c, 4, 73, 0
10, 135540, Note_on_c, 4, 73, 100
10, 135718, Note_on_c, 4, 73, 0
10, 135720, Note_on_c, 4, 71, 100
10, 135748, Note_on_c, 4, 71, 0
10, 135750, Note_on_c, 4, 69, 100
10, 135778, Note_on_c, 4, 69, 0
10, 135780, Note_on_c, 4, 68, 100
10, 135808, Note_on_c, 4, 68, 0
10, 135810, Note_on_c, 4, 66, 100
10, 135838, Note_on_c, 4, 66, 0
10, 135840, Note_on_c, 4, 65, 100
10, 135868, Note_on_c, 4, 65, 0
10, 135870, Note_on_c, 4, 63, 100
10, 135898, Note_on_c, 4, 63, 0
10, 135900, Note_on_c, 4, 65, 100
10, 135988, Note_on_c, 4, 65, 0
10, 135988, Note_on_c, 4, 68, 100
10, 136003, Note_on_c, 4, 68, 0
10, 136005, Note_on_c, 4, 71, 100
10, 136020, Note_on_c, 4, 71, 0
10, 136020, Note_on_c, 4, 74, 100
10, 136078, Note_on_c, 4, 74, 0
10, 136170, Note_on_c, 4, 74, 100
10, 136198, Note_on_c, 4, 74, 0
10, 136200, Note_on_c, 4, 73, 100
10, 136228, Note_on_c, 4, 73, 0
10, 136230, Note_on_c, 4, 71, 100
10, 136258, Note_on_c, 4, 71, 0
10, 136260, Note_on_c, 4, 69, 100
10, 136310, Note_on_c, 4, 69, 0
10, 136320, Note_on_c, 4, 73, 100
10, 136348, Note_on_c, 4, 73, 0
10, 136350, Note_on_c, 4, 69, 100
10, 136378, Note_on_c, 4, 69, 0
10, 136380, Note_on_c, 4, 68, 100
10, 136430, Note_on_c, 4, 68, 0
10, 136440, Note_on_c, 4, 73, 100
10, 136468, Note_on_c, 4, 73, 0
10, 136470, Note_on_c, 4, 68, 100
10, 136498, Note_on_c, 4, 68, 0
10, 136500, Note_on_c, 4, 66, 100
10, 136550, Note_on_c, 4, 66, 0
10, 136560, Note_on_c, 4, 74, 100
10, 136588, Note_on_c, 4, 74, 0
10, 136590, Note_on_c, 4, 66, 100
10, 136618, Note_on_c, 4, 66, 0
10, 136620, Note_on_c, 4, 65, 100
10, 136678, Note_on_c, 4, 65, 0
10, 136680, Note_on_c, 4, 61, 100
10, 136738, Note_on_c, 4, 61, 0
10, 136890, Note_on_c, 4, 61, 100
10, 136910, Note_on_c, 4, 61, 0
10, 136920, Note_on_c, 4, 65, 100
10, 136940, Note_on_c, 4, 65, 0
10, 136950, Note_on_c, 4, 68, 100
10, 136970, Note_on_c, 4, 68, 0
10, 136980, Note_on_c, 4, 73, 100
10, 137000, Note_on_c, 4, 73, 0
10, 137010, Note_on_c, 4, 71, 100
10, 137030, Note_on_c, 4, 71, 0
10, 137040, Note_on_c, 4, 69, 100
10, 137060, Note_on_c, 4, 69, 0
10, 137070, Note_on_c, 4, 73, 100
10, 137090, Note_on_c, 4, 73, 0
10, 137100, Note_on_c, 4, 71, 100
10, 137120, Note_on_c, 4, 71, 0
10, 137130, Note_on_c, 4, 69, 100
10, 137150, Note_on_c, 4, 69, 0
10, 137160, Note_on_c, 4, 68, 100
10, 137180, Note_on_c, 4, 68, 0
10, 137190, Note_on_c, 4, 71, 100
10, 137210, Note_on_c, 4, 71, 0
10, 137220, Note_on_c, 4, 69, 100
10, 137240, Note_on_c, 4, 69, 0
10, 137250, Note_on_c, 4, 68, 100
10, 137270, Note_on_c, 4, 68, 0
10, 137280, Note_on_c, 4, 66, 100
10, 137300, Note_on_c, 4, 66, 0
10, 137310, Note_on_c, 4, 69, 100
10, 137330, Note_on_c, 4, 69, 0
10, 137340, Note_on_c, 4, 68, 100
10, 137360, Note_on_c, 4, 68, 0
10, 137370, Note_on_c, 4, 66, 100
10, 137390, Note_on_c, 4, 66, 0
10, 137400, Note_on_c, 4, 65, 100
10, 137420, Note_on_c, 4, 65, 0
10, 137430, Note_on_c, 4, 63, 100
10, 137450, Note_on_c, 4, 63, 0
10, 137460, Note_on_c, 4, 61, 100
10, 137540, Note_on_c, 4, 61, 0
10, 137640, Note_on_c, 4, 61, 100
10, 137698, Note_on_c, 4, 61, 0
10, 137700, Note_on_c, 4, 63, 100
10, 137728, Note_on_c, 4, 63, 0
10, 137730, Note_on_c, 4, 61, 100
10, 137758, Note_on_c, 4, 61, 0
10, 137760, Note_on_c, 4, 63, 100
10, 137788, Note_on_c, 4, 63, 0
10, 137790, Note_on_c, 4, 65, 100
10, 137818, Note_on_c, 4, 65, 0
10, 137820, Note_on_c, 4, 66, 100
10, 137848, Note_on_c, 4, 66, 0
10, 137850, Note_on_c, 4, 65, 100
10, 137878, Note_on_c, 4, 65, 0
10, 137880, Note_on_c, 4, 66, 100
10, 137908, Note_on_c, 4, 66, 0
10, 137910, Note_on_c, 4, 68, 100
10, 137938, Note_on_c, 4, 68, 0
10, 137940, Note_on_c, 4, 69, 100
10, 137968, Note_on_c, 4, 69, 0
10, 137970, Note_on_c, 4, 68, 100
10, 137998, Note_on_c, 4, 68, 0
10, 138000, Note_on_c, 4, 69, 100
10, 138028, Note_on_c, 4, 69, 0
10, 138030, Note_on_c, 4, 71, 100
10, 138058, Note_on_c, 4, 71, 0
10, 138060, Note_on_c, 4, 65, 100
10, 138088, Note_on_c, 4, 65, 0
10, 138090, Note_on_c, 4, 63, 100
10, 138118, Note_on_c, 4, 63, 0
10, 138120, Note_on_c, 4, 65, 100
10, 138148, Note_on_c, 4, 65, 0
10, 138150, Note_on_c, 4, 66, 100
10, 138178, Note_on_c, 4, 66, 0
10, 138180, Note_on_c, 4, 68, 100
10, 138208, Note_on_c, 4, 68, 0
10, 138210, Note_on_c, 4, 66, 100
10, 138238, Note_on_c, 4, 66, 0
10, 138240, Note_on_c, 4, 68, 100
10, 138268, Note_on_c, 4, 68, 0
10, 138270, Note_on_c, 4, 69, 100
10, 138298, Note_on_c, 4, 69, 0
10, 138300, Note_on_c, 4, 71, 100
10, 138328, Note_on_c, 4, 71, 0
10, 138330, Note_on_c, 4, 69, 100
10, 138358, Note_on_c, 4, 69, 0
10, 138360, Note_on_c, 4, 71, 100
10, 138388, Note_on_c, 4, 71, 0
10, 138390, Note_on_c, 4, 73, 100
10, 138418, Note_on_c, 4, 73, 0
10, 138420, Note_on_c, 4, 66, 100
10, 138448, Note_on_c, 4, 66, 0
10, 138450, Note_on_c, 4, 65, 100
10, 138478, Note_on_c, 4, 65, 0
10, 138480, Note_on_c, 4, 66, 100
10, 138508, Note_on_c, 4, 66, 0
10, 138510, Note_on_c, 4, 68, 100
10, 138538, Note_on_c, 4, 68, 0
10, 138540, Note_on_c, 4, 69, 100
10, 138568, Note_on_c, 4, 69, 0
10, 138570, Note_on_c, 4, 68, 100
10, 138598, Note_on_c, 4, 68, 0
10, 138600, Note_on_c, 4, 69, 100
10, 138628, Note_on_c, 4, 69, 0
10, 138630, Note_on_c, 4, 71, 100
10, 138658, Note_on_c, 4, 71, 0
10, 138660, Note_on_c, 4, 73, 100
10, 138688, Note_on_c, 4, 73, 0
10, 138690, Note_on_c, 4, 71, 100
10, 138718, Note_on_c, 4, 71, 0
10, 138720, Note_on_c, 4, 73, 100
10, 138748, Note_on_c, 4, 73, 0
10, 138750, Note_on_c, 4, 74, 100
10, 138778, Note_on_c, 4, 74, 0
10, 138780, Note_on_c, 4, 74, 100
10, 138820, Note_on_c, 4, 74, 0
10, 138840, Note_on_c, 4, 73, 100
10, 138920, Note_on_c, 4, 73, 0
10, 138960, Note_on_c, 4, 71, 100
10, 138988, Note_on_c, 4, 71, 0
10, 138990, Note_on_c, 4, 69, 100
10, 139018, Note_on_c, 4, 69, 0
10, 139020, Note_on_c, 4, 68, 100
10, 139048, Note_on_c, 4, 68, 0
10, 139050, Note_on_c, 4, 66, 100
10, 139078, Note_on_c, 4, 66, 0
10, 139080, Note_on_c, 4, 65, 100
10, 139108, Note_on_c, 4, 65, 0
10, 139110, Note_on_c, 4, 68, 100
10, 139138, Note_on_c, 4, 68, 0
10, 139140, Note_on_c, 4, 61, 100
10, 139228, Note_on_c, 4, 61, 0
10, 139230, Note_on_c, 4, 66, 100
10, 139258, Note_on_c, 4, 66, 0
10, 139260, Note_on_c, 4, 57, 100
10, 139300, Note_on_c, 4, 57, 0
10, 139320, Note_on_c, 4, 56, 100
10, 139360, Note_on_c, 4, 56, 0
10, 139380, Note_on_c, 4, 56, 100
10, 139420, Note_on_c, 4, 56, 0
10, 139440, Note_on_c, 4, 65, 100
10, 139480, Note_on_c, 4, 65, 0
10, 139500, Note_on_c, 4, 66, 100
10, 139520, Note_on_c, 4, 66, 0
10, 139530, Note_on_c, 4, 68, 100
10, 139540, Note_on_c, 4, 68, 0
10, 139545, Note_on_c, 4, 69, 100
10, 139555, Note_on_c, 4, 69, 0
10, 139560, Note_on_c, 4, 71, 100
10, 139570, Note_on_c, 4, 71, 0
10, 139575, Note_on_c, 4, 73, 100
10, 139585, Note_on_c, 4, 73, 0
10, 139590, Note_on_c, 4, 74, 100
10, 139600, Note_on_c, 4, 74, 0
10, 139605, Note_on_c, 4, 77, 100
10, 139615, Note_on_c, 4, 77, 0
10, 139620, Note_on_c, 4, 78, 100
10, 139660, Note_on_c, 4, 78, 0
10, 140250, Note_on_c, 4, 69, 100
10, 140270, Note_on_c, 4, 69, 0
10, 140280, Note_on_c, 4, 66, 100
10, 140300, Note_on_c, 4, 66, 0
10, 140310, Note_on_c, 4, 61, 100
10, 140330, Note_on_c, 4, 61, 0
10, 140340, Note_on_c, 4, 56, 100
10, 140940, Note_on_c, 4, 56, 0
10, 140970, Note_on_c, 4, 74, 100
10, 140990, Note_on_c, 4, 74, 0
10, 141000, Note_on_c, 4, 71, 100
10, 141020, Note_on_c, 4, 71, 0
10, 141030, Note_on_c, 4, 68, 100
10, 141050, Note_on_c, 4, 68, 0
10, 141060, Note_on_c, 4, 65, 100
10, 141220, Note_on_c, 4, 65, 0
10, 141330, Note_on_c, 4, 73, 100
10, 141350, Note_on_c, 4, 73, 0
10, 141360, Note_on_c, 4, 69, 100
10, 141380, Note_on_c, 4, 69, 0
10, 141390, Note_on_c, 4, 66, 100
10, 141410, Note_on_c, 4, 66, 0
10, 141420, Note_on_c, 4, 61, 100
10, 141540, Note_on_c, 4, 61, 0
10, 141690, Note_on_c, 4, 73, 100
10, 141710, Note_on_c, 4, 73, 0
10, 141720, Note_on_c, 4, 68, 100
10, 141740, Note_on_c, 4, 68, 0
10, 141750, Note_on_c, 4, 65, 100
10, 141770, Note_on_c, 4, 65, 0
10, 141780, Note_on_c, 4, 61, 100
10, 142060, Note_on_c, 4, 61, 0
10, 142080, Note_on_c, 4, 66, 100
10, 142100, Note_on_c, 4, 66, 0
10, 142110, Note_on_c, 4, 69, 100
10, 142130, Note_on_c, 4, 69, 0
10, 142140, Note_on_c, 4, 73, 100
10, 142500, Note_on_c, 4, 73, 0
10, 142560, Note_on_c, 4, 68, 100
10, 142580, Note_on_c, 4, 68, 0
10, 142590, Note_on_c, 4, 65, 100
10, 142610, Note_on_c, 4, 65, 0
10, 142620, Note_on_c, 4, 61, 100
10, 142660, Note_on_c, 4, 61, 0
10, 142770, Note_on_c, 4, 61, 100
10, 142790, Note_on_c, 4, 61, 0
10, 142800, Note_on_c, 4, 63, 100
10, 142820, Note_on_c, 4, 63, 0
10, 142830, Note_on_c, 4, 65, 100
10, 142850, Note_on_c, 4, 65, 0
10, 142860, Note_on_c, 4, 66, 100
10, 142880, Note_on_c, 4, 66, 0
10, 142890, Note_on_c, 4, 65, 100
10, 142910, Note_on_c, 4, 65, 0
10, 142920, Note_on_c, 4, 66, 100
10, 142940, Note_on_c, 4, 66, 0
10, 142950, Note_on_c, 4, 68, 100
10, 142970, Note_on_c, 4, 68, 0
10, 142980, Note_on_c, 4, 69, 100
10, 143020, Note_on_c, 4, 69, 0
10, 143130, Note_on_c, 4, 59, 100
10, 143150, Note_on_c, 4, 59, 0
10, 143160, Note_on_c, 4, 64, 100
10, 143180, Note_on_c, 4, 64, 0
10, 143190, Note_on_c, 4, 66, 100
10, 143210, Note_on_c, 4, 66, 0
10, 143220, Note_on_c, 4, 68, 100
10, 143240, Note_on_c, 4, 68, 0
10, 143250, Note_on_c, 4, 66, 100
10, 143270, Note_on_c, 4, 66, 0
10, 143280, Note_on_c, 4, 68, 100
10, 143300, Note_on_c, 4, 68, 0
10, 143310, Note_on_c, 4, 69, 100
10, 143330, Note_on_c, 4, 69, 0
10, 143340, Note_on_c, 4, 71, 100
10, 143380, Note_on_c, 4, 71, 0
10, 143490, Note_on_c, 4, 64, 100
10, 143510, Note_on_c, 4, 64, 0
10, 143520, Note_on_c, 4, 66, 100
10, 143540, Note_on_c, 4, 66, 0
10, 143550, Note_on_c, 4, 68, 100
10, 143570, Note_on_c, 4, 68, 0
10, 143580, Note_on_c, 4, 69, 100
10, 143600, Note_on_c, 4, 69, 0
10, 143610, Note_on_c, 4, 68, 100
10, 143630, Note_on_c, 4, 68, 0
10, 143640, Note_on_c, 4, 69, 100
10, 143660, Note_on_c, 4, 69, 0
10, 143670, Note_on_c, 4, 71, 100
10, 143690, Note_on_c, 4, 71, 0
10, 143700, Note_on_c, 4, 73, 100
10, 143740, Note_on_c, 4, 73, 0
10, 144510, Note_on_c, 4, 81, 100
10, 144530, Note_on_c, 4, 81, 0
10, 144540, Note_on_c, 4, 81, 100
10, 144660, Note_on_c, 4, 81, 0
10, 144720, Note_on_c, 4, 80, 100
10, 144740, Note_on_c, 4, 80, 0
10, 144750, Note_on_c, 4, 78, 100
10, 144770, Note_on_c, 4, 78, 0
10, 144780, Note_on_c, 4, 76, 100
10, 144800, Note_on_c, 4, 76, 0
10, 144810, Note_on_c, 4, 74, 100
10, 144830, Note_on_c, 4, 74, 0
10, 144840, Note_on_c, 4, 73, 100
10, 144860, Note_on_c, 4, 73, 0
10, 144870, Note_on_c, 4, 71, 100
10, 144890, Note_on_c, 4, 71, 0
10, 144900, Note_on_c, 4, 73, 100
10, 144960, Note_on_c, 4, 73, 0
10, 144990, Note_on_c, 4, 69, 100
10, 145010, Note_on_c, 4, 69, 0
10, 145020, Note_on_c, 4, 75, 100
10, 145060, Note_on_c, 4, 75, 0
10, 145230, Note_on_c, 4, 76, 100
10, 145250, Note_on_c, 4, 76, 0
10, 145260, Note_on_c, 4, 76, 100
10, 145380, Note_on_c, 4, 76, 0
10, 145440, Note_on_c, 4, 74, 100
10, 145460, Note_on_c, 4, 74, 0
10, 145470, Note_on_c, 4, 73, 100
10, 145490, Note_on_c, 4, 73, 0
10, 145500, Note_on_c, 4, 71, 100
10, 145520, Note_on_c, 4, 71, 0
10, 145530, Note_on_c, 4, 69, 100
10, 145550, Note_on_c, 4, 69, 0
10, 145560, Note_on_c, 4, 68, 100
10, 145580, Note_on_c, 4, 68, 0
10, 145590, Note_on_c, 4, 66, 100
10, 145610, Note_on_c, 4, 66, 0
10, 145620, Note_on_c, 4, 68, 100
10, 145680, Note_on_c, 4, 68, 0
10, 145710, Note_on_c, 4, 64, 100
10, 145718, Note_on_c, 4, 64, 0
10, 145718, Note_on_c, 4, 68, 100
10, 145725, Note_on_c, 4, 71, 100
10, 145726, Note_on_c, 4, 68, 0
10, 145733, Note_on_c, 4, 71, 0
10, 145740, Note_on_c, 4, 74, 100
10, 145780, Note_on_c, 4, 74, 0
10, 145890, Note_on_c, 4, 78, 100
10, 145910, Note_on_c, 4, 78, 0
10, 145920, Note_on_c, 4, 76, 100
10, 145940, Note_on_c, 4, 76, 0
10, 145950, Note_on_c, 4, 74, 100
10, 145970, Note_on_c, 4, 74, 0
10, 145980, Note_on_c, 4, 73, 100
10, 146000, Note_on_c, 4, 73, 0
10, 146010, Note_on_c, 4, 71, 100
10, 146030, Note_on_c, 4, 71, 0
10, 146040, Note_on_c, 4, 69, 100
10, 146060, Note_on_c, 4, 69, 0
10, 146070, Note_on_c, 4, 73, 100
10, 146090, Note_on_c, 4, 73, 0
10, 146100, Note_on_c, 4, 71, 100
10, 146120, Note_on_c, 4, 71, 0
10, 146130, Note_on_c, 4, 69, 100
10, 146150, Note_on_c, 4, 69, 0
10, 146160, Note_on_c, 4, 68, 100
10, 146180, Note_on_c, 4, 68, 0
10, 146190, Note_on_c, 4, 71, 100
10, 146210, Note_on_c, 4, 71, 0
10, 146220, Note_on_c, 4, 69, 100
10, 146240, Note_on_c, 4, 69, 0
10, 146250, Note_on_c, 4, 68, 100
10, 146270, Note_on_c, 4, 68, 0
10, 146280, Note_on_c, 4, 66, 100
10, 146300, Note_on_c, 4, 66, 0
10, 146310, Note_on_c, 4, 69, 100
10, 146330, Note_on_c, 4, 69, 0
10, 146340, Note_on_c, 4, 68, 100
10, 146360, Note_on_c, 4, 68, 0
10, 146370, Note_on_c, 4, 66, 100
10, 146390, Note_on_c, 4, 66, 0
10, 146400, Note_on_c, 4, 64, 100
10, 146420, Note_on_c, 4, 64, 0
10, 146430, Note_on_c, 4, 71, 100
10, 146450, Note_on_c, 4, 71, 0
10, 146460, Note_on_c, 4, 62, 100
10, 146600, Note_on_c, 4, 62, 0
10, 146610, Note_on_c, 4, 66, 100
10, 146630, Note_on_c, 4, 66, 0
10, 146640, Note_on_c, 4, 64, 100
10, 146660, Note_on_c, 4, 64, 0
10, 146670, Note_on_c, 4, 62, 100
10, 146690, Note_on_c, 4, 62, 0
10, 146700, Note_on_c, 4, 61, 100
10, 146720, Note_on_c, 4, 61, 0
10, 146730, Note_on_c, 4, 59, 100
10, 146750, Note_on_c, 4, 59, 0
10, 146760, Note_on_c, 4, 57, 100
10, 146780, Note_on_c, 4, 57, 0
10, 146790, Note_on_c, 4, 66, 100
10, 146810, Note_on_c, 4, 66, 0
10, 146820, Note_on_c, 4, 57, 100
10, 146860, Note_on_c, 4, 57, 0
10, 146880, Note_on_c, 4, 56, 100
10, 146960, Note_on_c, 4, 56, 0
10, 147030, Note_on_c, 4, 57, 100
10, 147050, Note_on_c, 4, 57, 0
10, 147060, Note_on_c, 4, 57, 100
10, 147140, Note_on_c, 4, 57, 0
10, 147450, Note_on_c, 4, 76, 100
10, 147470, Note_on_c, 4, 76, 0
10, 147480, Note_on_c, 4, 73, 100
10, 147500, Note_on_c, 4, 73, 0
10, 147510, Note_on_c, 4, 70, 100
10, 147530, Note_on_c, 4, 70, 0
10, 147540, Note_on_c, 4, 66, 100
10, 147860, Note_on_c, 4, 66, 0
10, 148170, Note_on_c, 4, 68, 100
10, 148190, Note_on_c, 4, 68, 0
10, 148200, Note_on_c, 4, 65, 100
10, 148220, Note_on_c, 4, 65, 0
10, 148230, Note_on_c, 4, 59, 100
10, 148250, Note_on_c, 4, 59, 0
10, 148260, Note_on_c, 4, 56, 100
10, 148420, Note_on_c, 4, 56, 0
10, 148890, Note_on_c, 4, 61, 100
10, 148910, Note_on_c, 4, 61, 0
10, 148920, Note_on_c, 4, 65, 100
10, 148940, Note_on_c, 4, 65, 0
10, 148950, Note_on_c, 4, 68, 100
10, 148970, Note_on_c, 4, 68, 0
10, 148980, Note_on_c, 4, 73, 100
10, 149020, Note_on_c, 4, 73, 0
10, 149040, Note_on_c, 4, 61, 100
10, 149060, Note_on_c, 4, 61, 0
10, 149070, Note_on_c, 4, 73, 100
10, 149090, Note_on_c, 4, 73, 0
10, 149100, Note_on_c, 4, 71, 100
10, 149140, Note_on_c, 4, 71, 0
10, 149160, Note_on_c, 4, 61, 100
10, 149180, Note_on_c, 4, 61, 0
10, 149190, Note_on_c, 4, 71, 100
10, 149210, Note_on_c, 4, 71, 0
10, 149220, Note_on_c, 4, 69, 100
10, 149260, Note_on_c, 4, 69, 0
10, 149280, Note_on_c, 4, 61, 100
10, 149300, Note_on_c, 4, 61, 0
10, 149310, Note_on_c, 4, 69, 100
10, 149330, Note_on_c, 4, 69, 0
10, 149340, Note_on_c, 4, 68, 100
10, 149380, Note_on_c, 4, 68, 0
10, 149400, Note_on_c, 4, 61, 100
10, 149420, Note_on_c, 4, 61, 0
10, 149430, Note_on_c, 4, 68, 100
10, 149450, Note_on_c, 4, 68, 0
10, 149460, Note_on_c, 4, 66, 100
10, 149500, Note_on_c, 4, 66, 0
10, 149520, Note_on_c, 4, 61, 100
10, 149540, Note_on_c, 4, 61, 0
10, 149550, Note_on_c, 4, 66, 100
10, 149570, Note_on_c, 4, 66, 0
10, 149580, Note_on_c, 4, 65, 100
10, 149620, Note_on_c, 4, 65, 0
10, 149640, Note_on_c, 4, 61, 100
10, 149680, Note_on_c, 4, 61, 0
10, 149730, Note_on_c, 4, 61, 100
10, 149750, Note_on_c, 4, 61, 0
10, 149760, Note_on_c, 4, 63, 100
10, 149780, Note_on_c, 4, 63, 0
10, 149790, Note_on_c, 4, 65, 100
10, 149810, Note_on_c, 4, 65, 0
10, 149820, Note_on_c, 4, 66, 100
10, 149840, Note_on_c, 4, 66, 0
10, 149850, Note_on_c, 4, 68, 100
10, 149870, Note_on_c, 4, 68, 0
10, 149880, Note_on_c, 4, 69, 100
10, 149900, Note_on_c, 4, 69, 0
10, 149910, Note_on_c, 4, 66, 100
10, 149930, Note_on_c, 4, 66, 0
10, 149940, Note_on_c, 4, 63, 100
10, 149960, Note_on_c, 4, 63, 0
10, 149970, Note_on_c, 4, 61, 100
10, 149990, Note_on_c, 4, 61, 0
10, 150000, Note_on_c, 4, 63, 100
10, 150020, Note_on_c, 4, 63, 0
10, 150030, Note_on_c, 4, 65, 100
10, 150050, Note_on_c, 4, 65, 0
10, 150060, Note_on_c, 4, 66, 100
10, 150080, Note_on_c, 4, 66, 0
10, 150090, Note_on_c, 4, 65, 100
10, 150110, Note_on_c, 4, 65, 0
10, 150120, Note_on_c, 4, 66, 100
10, 150140, Note_on_c, 4, 66, 0
10, 150150, Note_on_c, 4, 68, 100
10, 150170, Note_on_c, 4, 68, 0
10, 150180, Note_on_c, 4, 69, 100
10, 150200, Note_on_c, 4, 69, 0
10, 150210, Note_on_c, 4, 68, 100
10, 150230, Note_on_c, 4, 68, 0
10, 150240, Note_on_c, 4, 69, 100
10, 150260, Note_on_c, 4, 69, 0
10, 150270, Note_on_c, 4, 71, 100
10, 150290, Note_on_c, 4, 71, 0
10, 150300, Note_on_c, 4, 65, 100
10, 150320, Note_on_c, 4, 65, 0
10, 150330, Note_on_c, 4, 63, 100
10, 150350, Note_on_c, 4, 63, 0
10, 150360, Note_on_c, 4, 65, 100
10, 150380, Note_on_c, 4, 65, 0
10, 150390, Note_on_c, 4, 66, 100
10, 150410, Note_on_c, 4, 66, 0
10, 150420, Note_on_c, 4, 68, 100
10, 150440, Note_on_c, 4, 68, 0
10, 150450, Note_on_c, 4, 66, 100
10, 150470, Note_on_c, 4, 66, 0
10, 150480, Note_on_c, 4, 68, 100
10, 150500, Note_on_c, 4, 68, 0
10, 150510, Note_on_c, 4, 69, 100
10, 150530, Note_on_c, 4, 69, 0
10, 150540, Note_on_c, 4, 71, 100
10, 150560, Note_on_c, 4, 71, 0
10, 150570, Note_on_c, 4, 69, 100
10, 150590, Note_on_c, 4, 69, 0
10, 150600, Note_on_c, 4, 71, 100
10, 150620, Note_on_c, 4, 71, 0
10, 150630, Note_on_c, 4, 73, 100
10, 150650, Note_on_c, 4, 73, 0
10, 150660, Note_on_c, 4, 66, 100
10, 150740, Note_on_c, 4, 66, 0
10, 151050, Note_on_c, 4, 73, 100
10, 151070, Note_on_c, 4, 73, 0
10, 151080, Note_on_c, 4, 77, 100
10, 151100, Note_on_c, 4, 77, 0
10, 151110, Note_on_c, 4, 80, 100
10, 151130, Note_on_c, 4, 80, 0
10, 151140, Note_on_c, 4, 83, 100
10, 151400, Note_on_c, 4, 83, 0
10, 151410, Note_on_c, 4, 81, 100
10, 151430, Note_on_c, 4, 81, 0
10, 151440, Note_on_c, 4, 80, 100
10, 151460, Note_on_c, 4, 80, 0
10, 151470, Note_on_c, 4, 78, 100
10, 151490, Note_on_c, 4, 78, 0
10, 151500, Note_on_c, 4, 77, 100
10, 151520, Note_on_c, 4, 77, 0
10, 151530, Note_on_c, 4, 75, 100
10, 151550, Note_on_c, 4, 75, 0
10, 151560, Note_on_c, 4, 73, 100
10, 151580, Note_on_c, 4, 73, 0
10, 151590, Note_on_c, 4, 78, 100
10, 151610, Note_on_c, 4, 78, 0
10, 151620, Note_on_c, 4, 77, 100
10, 151640, Note_on_c, 4, 77, 0
10, 151650, Note_on_c, 4, 75, 100
10, 151670, Note_on_c, 4, 75, 0
10, 151680, Note_on_c, 4, 73, 100
10, 151700, Note_on_c, 4, 73, 0
10, 151710, Note_on_c, 4, 71, 100
10, 151730, Note_on_c, 4, 71, 0
10, 151740, Note_on_c, 4, 69, 100
10, 151760, Note_on_c, 4, 69, 0
10, 151770, Note_on_c, 4, 74, 100
10, 151790, Note_on_c, 4, 74, 0
10, 151800, Note_on_c, 4, 73, 100
10, 151820, Note_on_c, 4, 73, 0
10, 151830, Note_on_c, 4, 71, 100
10, 151850, Note_on_c, 4, 71, 0
10, 151860, Note_on_c, 4, 69, 100
10, 151880, Note_on_c, 4, 69, 0
10, 151890, Note_on_c, 4, 68, 100
10, 151910, Note_on_c, 4, 68, 0
10, 151920, Note_on_c, 4, 66, 100
10, 151940, Note_on_c, 4, 66, 0
10, 151950, Note_on_c, 4, 68, 100
10, 151970, Note_on_c, 4, 68, 0
10, 151980, Note_on_c, 4, 70, 100
10, 152000, Note_on_c, 4, 70, 0
10, 152010, Note_on_c, 4, 71, 100
10, 152030, Note_on_c, 4, 71, 0
10, 152040, Note_on_c, 4, 73, 100
10, 152060, Note_on_c, 4, 73, 0
10, 152070, Note_on_c, 4, 74, 100
10, 152090, Note_on_c, 4, 74, 0
10, 152100, Note_on_c, 4, 76, 100
10, 152240, Note_on_c, 4, 76, 0
10, 152250, Note_on_c, 4, 78, 100
10, 152270, Note_on_c, 4, 78, 0
10, 152280, Note_on_c, 4, 76, 100
10, 152300, Note_on_c, 4, 76, 0
10, 152310, Note_on_c, 4, 74, 100
10, 152330, Note_on_c, 4, 74, 0
10, 152340, Note_on_c, 4, 73, 100
10, 152360, Note_on_c, 4, 73, 0
10, 152370, Note_on_c, 4, 71, 100
10, 152390, Note_on_c, 4, 71, 0
10, 152400, Note_on_c, 4, 70, 100
10, 152420, Note_on_c, 4, 70, 0
10, 152430, Note_on_c, 4, 68, 100
10, 152450, Note_on_c, 4, 68, 0
10, 152460, Note_on_c, 4, 70, 100
10, 152520, Note_on_c, 4, 70, 0
10, 152550, Note_on_c, 4, 66, 100
10, 152570, Note_on_c, 4, 66, 0
10, 152580, Note_on_c, 4, 76, 100
10, 152620, Note_on_c, 4, 76, 0
10, 152790, Note_on_c, 4, 74, 100
10, 152810, Note_on_c, 4, 74, 0
10, 152820, Note_on_c, 4, 74, 100
10, 152960, Note_on_c, 4, 74, 0
10, 152970, Note_on_c, 4, 76, 100
10, 152990, Note_on_c, 4, 76, 0
10, 153000, Note_on_c, 4, 74, 100
10, 153020, Note_on_c, 4, 74, 0
10, 153030, Note_on_c, 4, 73, 100
10, 153050, Note_on_c, 4, 73, 0
10, 153060, Note_on_c, 4, 71, 100
10, 153080, Note_on_c, 4, 71, 0
10, 153090, Note_on_c, 4, 69, 100
10, 153110, Note_on_c, 4, 69, 0
10, 153120, Note_on_c, 4, 68, 100
10, 153140, Note_on_c, 4, 68, 0
10, 153150, Note_on_c, 4, 66, 100
10, 153170, Note_on_c, 4, 66, 0
10, 153180, Note_on_c, 4, 65, 100
10, 153240, Note_on_c, 4, 65, 0
10, 153270, Note_on_c, 4, 61, 100
10, 153290, Note_on_c, 4, 61, 0
10, 153300, Note_on_c, 4, 71, 100
10, 153340, Note_on_c, 4, 71, 0
10, 153870, Note_on_c, 4, 78, 100
10, 153890, Note_on_c, 4, 78, 0
10, 153900, Note_on_c, 4, 78, 100
10, 154078, Note_on_c, 4, 78, 0
10, 154080, Note_on_c, 4, 76, 100
10, 154108, Note_on_c, 4, 76, 0
10, 154110, Note_on_c, 4, 74, 100
10, 154138, Note_on_c, 4, 74, 0
10, 154140, Note_on_c, 4, 73, 100
10, 154168, Note_on_c, 4, 73, 0
10, 154170, Note_on_c, 4, 71, 100
10, 154198, Note_on_c, 4, 71, 0
10, 154200, Note_on_c, 4, 69, 100
10, 154228, Note_on_c, 4, 69, 0
10, 154230, Note_on_c, 4, 68, 100
10, 154258, Note_on_c, 4, 68, 0
10, 154260, Note_on_c, 4, 69, 100
10, 154348, Note_on_c, 4, 69, 0
10, 154350, Note_on_c, 4, 66, 100
10, 154378, Note_on_c, 4, 66, 0
10, 154380, Note_on_c, 4, 72, 100
10, 154438, Note_on_c, 4, 72, 0
10, 154590, Note_on_c, 4, 73, 100
10, 154611, Note_on_c, 4, 73, 0
10, 154620, Note_on_c, 4, 73, 100
10, 154798, Note_on_c, 4, 73, 0
10, 154800, Note_on_c, 4, 71, 100
10, 154828, Note_on_c, 4, 71, 0
10, 154830, Note_on_c, 4, 69, 100
10, 154858, Note_on_c, 4, 69, 0
10, 154860, Note_on_c, 4, 68, 100
10, 154888, Note_on_c, 4, 68, 0
10, 154890, Note_on_c, 4, 66, 100
10, 154918, Note_on_c, 4, 66, 0
10, 154920, Note_on_c, 4, 65, 100
10, 154948, Note_on_c, 4, 65, 0
10, 154950, Note_on_c, 4, 63, 100
10, 154978, Note_on_c, 4, 63, 0
10, 154980, Note_on_c, 4, 65, 100
10, 155068, Note_on_c, 4, 65, 0
10, 155068, Note_on_c, 4, 68, 100
10, 155083, Note_on_c, 4, 68, 0
10, 155085, Note_on_c, 4, 71, 100
10, 155100, Note_on_c, 4, 71, 0
10, 155100, Note_on_c, 4, 74, 100
10, 155158, Note_on_c, 4, 74, 0
10, 155250, Note_on_c, 4, 74, 100
10, 155278, Note_on_c, 4, 74, 0
10, 155280, Note_on_c, 4, 73, 100
10, 155308, Note_on_c, 4, 73, 0
10, 155310, Note_on_c, 4, 71, 100
10, 155338, Note_on_c, 4, 71, 0
10, 155340, Note_on_c, 4, 69, 100
10, 155390, Note_on_c, 4, 69, 0
10, 155400, Note_on_c, 4, 73, 100
10, 155428, Note_on_c, 4, 73, 0
10, 155430, Note_on_c, 4, 69, 100
10, 155458, Note_on_c, 4, 69, 0
10, 155460, Note_on_c, 4, 68, 100
10, 155510, Note_on_c, 4, 68, 0
10, 155520, Note_on_c, 4, 73, 100
10, 155548, Note_on_c, 4, 73, 0
10, 155550, Note_on_c, 4, 68, 100
10, 155578, Note_on_c, 4, 68, 0
10, 155580, Note_on_c, 4, 66, 100
10, 155630, Note_on_c, 4, 66, 0
10, 155640, Note_on_c, 4, 74, 100
10, 155668, Note_on_c, 4, 74, 0
10, 155670, Note_on_c, 4, 66, 100
10, 155698, Note_on_c, 4, 66, 0
10, 155700, Note_on_c, 4, 65, 100
10, 155758, Note_on_c, 4, 65, 0
10, 155760, Note_on_c, 4, 61, 100
10, 155818, Note_on_c, 4, 61, 0
10, 155970, Note_on_c, 4, 61, 100
10, 155990, Note_on_c, 4, 61, 0
10, 156000, Note_on_c, 4, 65, 100
10, 156020, Note_on_c, 4, 65, 0
10, 156030, Note_on_c, 4, 68, 100
10, 156050, Note_on_c, 4, 68, 0
10, 156060, Note_on_c, 4, 73, 100
10, 156080, Note_on_c, 4, 73, 0
10, 156090, Note_on_c, 4, 71, 100
10, 156110, Note_on_c, 4, 71, 0
10, 156120, Note_on_c, 4, 69, 100
10, 156140, Note_on_c, 4, 69, 0
10, 156150, Note_on_c, 4, 73, 100
10, 156170, Note_on_c, 4, 73, 0
10, 156180, Note_on_c, 4, 71, 100
10, 156200, Note_on_c, 4, 71, 0
10, 156210, Note_on_c, 4, 69, 100
10, 156230, Note_on_c, 4, 69, 0
10, 156240, Note_on_c, 4, 68, 100
10, 156260, Note_on_c, 4, 68, 0
10, 156270, Note_on_c, 4, 71, 100
10, 156290, Note_on_c, 4, 71, 0
10, 156300, Note_on_c, 4, 69, 100
10, 156320, Note_on_c, 4, 69, 0
10, 156330, Note_on_c, 4, 68, 100
10, 156350, Note_on_c, 4, 68, 0
10, 156360, Note_on_c, 4, 66, 100
10, 156380, Note_on_c, 4, 66, 0
10, 156390, Note_on_c, 4, 69, 100
10, 156410, Note_on_c, 4, 69, 0
10, 156420, Note_on_c, 4, 68, 100
10, 156440, Note_on_c, 4, 68, 0
10, 156450, Note_on_c, 4, 66, 100
10, 156470, Note_on_c, 4, 66, 0
10, 156480, Note_on_c, 4, 65, 100
10, 156500, Note_on_c, 4, 65, 0
10, 156510, Note_on_c, 4, 63, 100
10, 156530, Note_on_c, 4, 63, 0
10, 156540, Note_on_c, 4, 61, 100
10, 156620, Note_on_c, 4, 61, 0
10, 156720, Note_on_c, 4, 61, 100
10, 156778, Note_on_c, 4, 61, 0
10, 156780, Note_on_c, 4, 63, 100
10, 156808, Note_on_c, 4, 63, 0
10, 156810, Note_on_c, 4, 61, 100
10, 156838, Note_on_c, 4, 61, 0
10, 156840, Note_on_c, 4, 63, 100
10, 156868, Note_on_c, 4, 63, 0
10, 156870, Note_on_c, 4, 65, 100
10, 156898, Note_on_c, 4, 65, 0
10, 156900, Note_on_c, 4, 66, 100
10, 156928, Note_on_c, 4, 66, 0
10, 156930, Note_on_c, 4, 65, 100
10, 156958, Note_on_c, 4, 65, 0
10, 156960, Note_on_c, 4, 66, 100
10, 156988, Note_on_c, 4, 66, 0
10, 156990, Note_on_c, 4, 68, 100
10, 157018, Note_on_c, 4, 68, 0
10, 157020, Note_on_c, 4, 69, 100
10, 157048, Note_on_c, 4, 69, 0
10, 157050, Note_on_c, 4, 68, 100
10, 157078, Note_on_c, 4, 68, 0
10, 157080, Note_on_c, 4, 69, 100
10, 157108, Note_on_c, 4, 69, 0
10, 157110, Note_on_c, 4, 71, 100
10, 157138, Note_on_c, 4, 71, 0
10, 157140, Note_on_c, 4, 65, 100
10, 157168, Note_on_c, 4, 65, 0
10, 157170, Note_on_c, 4, 63, 100
10, 157198, Note_on_c, 4, 63, 0
10, 157200, Note_on_c, 4, 65, 100
10, 157228, Note_on_c, 4, 65, 0
10, 157230, Note_on_c, 4, 66, 100
10, 157258, Note_on_c, 4, 66, 0
10, 157260, Note_on_c, 4, 68, 100
10, 157288, Note_on_c, 4, 68, 0
10, 157290, Note_on_c, 4, 66, 100
10, 157318, Note_on_c, 4, 66, 0
10, 157320, Note_on_c, 4, 68, 100
10, 157348, Note_on_c, 4, 68, 0
10, 157350, Note_on_c, 4, 69, 100
10, 157378, Note_on_c, 4, 69, 0
10, 157380, Note_on_c, 4, 71, 100
10, 157408, Note_on_c, 4, 71, 0
10, 157410, Note_on_c, 4, 69, 100
10, 157438, Note_on_c, 4, 69, 0
10, 157440, Note_on_c, 4, 71, 100
10, 157468, Note_on_c, 4, 71, 0
10, 157470, Note_on_c, 4, 73, 100
10, 157498, Note_on_c, 4, 73, 0
10, 157500, Note_on_c, 4, 66, 100
10, 157528, Note_on_c, 4, 66, 0
10, 157530, Note_on_c, 4, 65, 100
10, 157558, Note_on_c, 4, 65, 0
10, 157560, Note_on_c, 4, 66, 100
10, 157588, Note_on_c, 4, 66, 0
10, 157590, Note_on_c, 4, 68, 100
10, 157618, Note_on_c, 4, 68, 0
10, 157620, Note_on_c, 4, 69, 100
10, 157648, Note_on_c, 4, 69, 0
10, 157650, Note_on_c, 4, 68, 100
10, 157678, Note_on_c, 4, 68, 0
10, 157680, Note_on_c, 4, 69, 100
10, 157708, Note_on_c, 4, 69, 0
10, 157710, Note_on_c, 4, 71, 100
10, 157738, Note_on_c, 4, 71, 0
10, 157740, Note_on_c, 4, 73, 100
10, 157768, Note_on_c, 4, 73, 0
10, 157770, Note_on_c, 4, 71, 100
10, 157798, Note_on_c, 4, 71, 0
10, 157800, Note_on_c, 4, 73, 100
10, 157828, Note_on_c, 4, 73, 0
10, 157830, Note_on_c, 4, 74, 100
10, 157858, Note_on_c, 4, 74, 0
10, 157860, Note_on_c, 4, 74, 100
10, 157900, Note_on_c, 4, 74, 0
10, 157920, Note_on_c, 4, 73, 100
10, 158000, Note_on_c, 4, 73, 0
10, 158040, Note_on_c, 4, 71, 100
10, 158068, Note_on_c, 4, 71, 0
10, 158070, Note_on_c, 4, 69, 100
10, 158098, Note_on_c, 4, 69, 0
10, 158100, Note_on_c, 4, 68, 100
10, 158128, Note_on_c, 4, 68, 0
10, 158130, Note_on_c, 4, 66, 100
10, 158158, Note_on_c, 4, 66, 0
10, 158160, Note_on_c, 4, 65, 100
10, 158188, Note_on_c, 4, 65, 0
10, 158190, Note_on_c, 4, 68, 100
10, 158218, Note_on_c, 4, 68, 0
10, 158220, Note_on_c, 4, 61, 100
10, 158308, Note_on_c, 4, 61, 0
10, 158310, Note_on_c, 4, 66, 100
10, 158338, Note_on_c, 4, 66, 0
10, 158340, Note_on_c, 4, 57, 100
10, 158380, Note_on_c, 4, 57, 0
10, 158400, Note_on_c, 4, 56, 100
10, 158440, Note_on_c, 4, 56, 0
10, 158460, Note_on_c, 4, 56, 100
10, 158500, Note_on_c, 4, 56, 0
10, 158520, Note_on_c, 4, 65, 100
10, 158560, Note_on_c, 4, 65, 0
10, 158580, Note_on_c, 4, 66, 100
10, 158660, Note_on_c, 4, 66, 0
10, 219660, Control_c, 4, 0, 0
10, 219660, Note_on_c, 4, 73, 100
10, 219780, Note_on_c, 4, 73, 0
10, 219840, Note_on_c, 4, 73, 100
10, 219880, Note_on_c, 4, 73, 0
10, 219900, Note_on_c, 4, 73, 100
10, 220060, Note_on_c, 4, 73, 0
10, 221580, Note_on_c, 4, 78, 100
10, 221700, Note_on_c, 4, 78, 0
10, 221760, Note_on_c, 4, 78, 100
10, 221818, Note_on_c, 4, 78, 0
10, 221820, Note_on_c, 4, 78, 100
10, 222058, Note_on_c, 4, 78, 0
10, 222060, Note_on_c, 4, 76, 100
10, 222298, Note_on_c, 4, 76, 0
10, 222300, Note_on_c, 4, 76, 100
10, 222538, Note_on_c, 4, 76, 0
10, 223980, Note_on_c, 4, 78, 90
10, 224099, Note_on_c, 4, 78, 0
10, 224160, Note_on_c, 4, 78, 90
10, 224219, Note_on_c, 4, 78, 0
10, 224220, Note_on_c, 4, 78, 90
10, 224459, Note_on_c, 4, 78, 0
10, 224460, Note_on_c, 4, 78, 90
10, 224579, Note_on_c, 4, 78, 0
10, 224640, Note_on_c, 4, 78, 90
10, 224699, Note_on_c, 4, 78, 0
10, 224700, Note_on_c, 4, 78, 90
10, 224939, Note_on_c, 4, 78, 0
10, 226380, Note_on_c, 4, 81, 100
10, 226500, Note_on_c, 4, 81, 0
10, 226500, Note_on_c, 4, 81, 100
10, 226560, Note_on_c, 4, 81, 0
10, 226560, Note_on_c, 4, 81, 100
10, 226620, Note_on_c, 4, 81, 0
10, 226620, Note_on_c, 4, 81, 100
10, 226740, Note_on_c, 4, 81, 0
10, 226740, Note_on_c, 4, 81, 100
10, 226860, Note_on_c, 4, 81, 0
10, 226860, Note_on_c, 4, 83, 100
10, 227040, Note_on_c, 4, 83, 0
10, 227040, Note_on_c, 4, 83, 100
10, 227100, Note_on_c, 4, 83, 0
10, 227100, Note_on_c, 4, 83, 100
10, 227340, Note_on_c, 4, 83, 0
10, 227340, Note_on_c, 4, 76, 100
10, 227580, Note_on_c, 4, 76, 0
10, 227580, Note_on_c, 4, 81, 100
10, 227940, Note_on_c, 4, 81, 0
10, 227940, Note_on_c, 4, 86, 100
10, 228000, Note_on_c, 4, 86, 0
10, 228000, Note_on_c, 4, 78, 100
10, 228060, Note_on_c, 4, 78, 0
10, 228060, Note_on_c, 4, 80, 100
10, 228300, Note_on_c, 4, 80, 0
10, 228300, Note_on_c, 4, 81, 100
10, 228780, Note_on_c, 4, 81, 0
10, 228780, Note_on_c, 4, 81, 90
10, 228839, Note_on_c, 4, 81, 0
10, 228840, Note_on_c, 4, 78, 90
10, 228899, Note_on_c, 4, 78, 0
10, 229140, Note_on_c, 4, 78, 90
10, 229199, Note_on_c, 4, 78, 0
10, 229200, Note_on_c, 4, 74, 90
10, 229259, Note_on_c, 4, 74, 0
10, 229500, Note_on_c, 4, 74, 90
10, 229559, Note_on_c, 4, 74, 0
10, 229560, Note_on_c, 4, 69, 90
10, 229619, Note_on_c, 4, 69, 0
10, 230280, Note_on_c, 4, 69, 90
10, 230339, Note_on_c, 4, 69, 0
10, 230340, Note_on_c, 4, 74, 90
10, 230399, Note_on_c, 4, 74, 0
10, 230400, Note_on_c, 4, 78, 90
10, 230459, Note_on_c, 4, 78, 0
10, 230460, Note_on_c, 4, 78, 90
10, 230519, Note_on_c, 4, 78, 0
10, 230520, Note_on_c, 4, 74, 90
10, 230579, Note_on_c, 4, 74, 0
10, 230580, Note_on_c, 4, 69, 90
10, 230639, Note_on_c, 4, 69, 0
10, 230640, Note_on_c, 4, 74, 90
10, 230699, Note_on_c, 4, 74, 0
10, 230700, Note_on_c, 4, 78, 90
10, 230759, Note_on_c, 4, 78, 0
10, 230760, Note_on_c, 4, 81, 90
10, 230819, Note_on_c, 4, 81, 0
10, 230820, Note_on_c, 4, 81, 90
10, 230879, Note_on_c, 4, 81, 0
10, 230880, Note_on_c, 4, 78, 90
10, 230939, Note_on_c, 4, 78, 0
10, 230940, Note_on_c, 4, 74, 90
10, 230999, Note_on_c, 4, 74, 0
10, 231360, Note_on_c, 4, 78, 90
10, 231419, Note_on_c, 4, 78, 0
10, 231420, Note_on_c, 4, 83, 90
10, 231479, Note_on_c, 4, 83, 0
10, 231480, Note_on_c, 4, 74, 90
10, 231509, Note_on_c, 4, 74, 0
10, 231510, Note_on_c, 4, 76, 90
10, 231539, Note_on_c, 4, 76, 0
10, 231540, Note_on_c, 4, 78, 90
10, 231569, Note_on_c, 4, 78, 0
10, 231570, Note_on_c, 4, 79, 90
10, 231599, Note_on_c, 4, 79, 0
10, 231600, Note_on_c, 4, 81, 90
10, 231629, Note_on_c, 4, 81, 0
10, 231660, Note_on_c, 4, 81, 90
10, 231749, Note_on_c, 4, 81, 0
10, 231750, Note_on_c, 4, 79, 90
10, 231779, Note_on_c, 4, 79, 0
10, 231780, Note_on_c, 4, 78, 90
10, 231899, Note_on_c, 4, 78, 0
10, 233520, Note_on_c, 4, 69, 90
10, 233549, Note_on_c, 4, 69, 0
10, 233550, Note_on_c, 4, 71, 90
10, 233579, Note_on_c, 4, 71, 0
10, 233580, Note_on_c, 4, 73, 90
10, 233609, Note_on_c, 4, 73, 0
10, 233610, Note_on_c, 4, 74, 90
10, 233639, Note_on_c, 4, 74, 0
10, 233640, Note_on_c, 4, 76, 90
10, 233669, Note_on_c, 4, 76, 0
10, 233700, Note_on_c, 4, 76, 90
10, 233729, Note_on_c, 4, 76, 0
10, 233730, Note_on_c, 4, 74, 90
10, 233759, Note_on_c, 4, 74, 0
10, 233760, Note_on_c, 4, 73, 90
10, 233789, Note_on_c, 4, 73, 0
10, 233790, Note_on_c, 4, 71, 90
10, 233819, Note_on_c, 4, 71, 0
10, 233820, Note_on_c, 4, 73, 90
10, 234539, Note_on_c, 4, 73, 0
10, 234540, Note_on_c, 4, 81, 90
10, 234599, Note_on_c, 4, 81, 0
10, 234600, Note_on_c, 4, 78, 90
10, 234659, Note_on_c, 4, 78, 0
10, 234900, Note_on_c, 4, 78, 90
10, 234959, Note_on_c, 4, 78, 0
10, 234960, Note_on_c, 4, 74, 90
10, 235019, Note_on_c, 4, 74, 0
10, 235260, Note_on_c, 4, 74, 90
10, 235319, Note_on_c, 4, 74, 0
10, 235320, Note_on_c, 4, 69, 90
10, 235379, Note_on_c, 4, 69, 0
10, 235440, Note_on_c, 4, 74, 90
10, 235499, Note_on_c, 4, 74, 0
10, 235500, Note_on_c, 4, 78, 90
10, 235559, Note_on_c, 4, 78, 0
10, 235560, Note_on_c, 4, 81, 90
10, 235619, Note_on_c, 4, 81, 0
10, 235620, Note_on_c, 4, 81, 90
10, 235739, Note_on_c, 4, 81, 0
10, 235800, Note_on_c, 4, 74, 90
10, 235859, Note_on_c, 4, 74, 0
10, 235860, Note_on_c, 4, 78, 90
10, 235919, Note_on_c, 4, 78, 0
10, 235920, Note_on_c, 4, 81, 90
10, 235979, Note_on_c, 4, 81, 0
10, 235980, Note_on_c, 4, 86, 90
10, 236039, Note_on_c, 4, 86, 0
10, 236040, Note_on_c, 4, 74, 90
10, 236069, Note_on_c, 4, 74, 0
10, 236070, Note_on_c, 4, 76, 90
10, 236099, Note_on_c, 4, 76, 0
10, 236100, Note_on_c, 4, 78, 90
10, 236129, Note_on_c, 4, 78, 0
10, 236130, Note_on_c, 4, 79, 90
10, 236159, Note_on_c, 4, 79, 0
10, 236160, Note_on_c, 4, 81, 90
10, 236189, Note_on_c, 4, 81, 0
10, 236220, Note_on_c, 4, 81, 90
10, 236249, Note_on_c, 4, 81, 0
10, 236250, Note_on_c, 4, 79, 90
10, 236279, Note_on_c, 4, 79, 0
10, 236280, Note_on_c, 4, 78, 90
10, 236309, Note_on_c, 4, 78, 0
10, 236310, Note_on_c, 4, 76, 90
10, 236339, Note_on_c, 4, 76, 0
10, 236340, Note_on_c, 4, 78, 90
10, 236369, Note_on_c, 4, 78, 0
10, 236370, Note_on_c, 4, 76, 90
10, 236399, Note_on_c, 4, 76, 0
10, 236400, Note_on_c, 4, 78, 90
10, 236429, Note_on_c, 4, 78, 0
10, 236430, Note_on_c, 4, 79, 90
10, 236459, Note_on_c, 4, 79, 0
10, 236460, Note_on_c, 4, 81, 90
10, 236519, Note_on_c, 4, 81, 0
10, 236520, Note_on_c, 4, 83, 90
10, 236549, Note_on_c, 4, 83, 0
10, 236550, Note_on_c, 4, 81, 90
10, 236579, Note_on_c, 4, 81, 0
10, 236580, Note_on_c, 4, 79, 90
10, 236609, Note_on_c, 4, 79, 0
10, 236610, Note_on_c, 4, 78, 90
10, 236639, Note_on_c, 4, 78, 0
10, 236640, Note_on_c, 4, 76, 90
10, 236669, Note_on_c, 4, 76, 0
10, 236670, Note_on_c, 4, 74, 90
10, 236699, Note_on_c, 4, 74, 0
10, 236700, Note_on_c, 4, 74, 90
10, 236819, Note_on_c, 4, 74, 0
10, 236819, End_track
11, 0, Start_track
11, 0, MIDI_port, 0
11, 0, Title_t, "violin II"
11, 0, Program_c, 5, 48
11, 0, Control_c, 5, 7, 127
11, 0, Control_c, 5, 10, 63
11, 0, Note_on_c, 5, 78, 100
11, 40, Note_on_c, 5, 78, 0
11, 60, Note_on_c, 5, 74, 100
11, 100, Note_on_c, 5, 74, 0
11, 360, Note_on_c, 5, 74, 100
11, 400, Note_on_c, 5, 74, 0
11, 420, Note_on_c, 5, 69, 100
11, 460, Note_on_c, 5, 69, 0
11, 720, Note_on_c, 5, 69, 100
11, 760, Note_on_c, 5, 69, 0
11, 780, Note_on_c, 5, 66, 100
11, 820, Note_on_c, 5, 66, 0
11, 900, Note_on_c, 5, 69, 100
11, 940, Note_on_c, 5, 69, 0
11, 960, Note_on_c, 5, 64, 100
11, 1000, Note_on_c, 5, 64, 0
11, 1020, Note_on_c, 5, 64, 100
11, 1060, Note_on_c, 5, 64, 0
11, 1080, Note_on_c, 5, 62, 100
11, 1120, Note_on_c, 5, 62, 0
11, 1140, Note_on_c, 5, 66, 100
11, 1180, Note_on_c, 5, 66, 0
11, 1260, Note_on_c, 5, 69, 100
11, 1300, Note_on_c, 5, 69, 0
11, 1320, Note_on_c, 5, 73, 100
11, 1360, Note_on_c, 5, 73, 0
11, 1380, Note_on_c, 5, 76, 100
11, 1420, Note_on_c, 5, 76, 0
11, 1440, Note_on_c, 5, 69, 100
11, 1460, Note_on_c, 5, 69, 0
11, 1470, Note_on_c, 5, 71, 100
11, 1490, Note_on_c, 5, 71, 0
11, 1500, Note_on_c, 5, 69, 100
11, 1520, Note_on_c, 5, 69, 0
11, 1530, Note_on_c, 5, 67, 100
11, 1550, Note_on_c, 5, 67, 0
11, 1560, Note_on_c, 5, 66, 100
11, 1600, Note_on_c, 5, 66, 0
11, 1620, Note_on_c, 5, 62, 100
11, 1660, Note_on_c, 5, 62, 0
11, 1740, Note_on_c, 5, 66, 100
11, 1780, Note_on_c, 5, 66, 0
11, 1800, Note_on_c, 5, 71, 100
11, 1820, Note_on_c, 5, 71, 0
11, 1830, Note_on_c, 5, 69, 100
11, 1850, Note_on_c, 5, 69, 0
11, 1860, Note_on_c, 5, 68, 100
11, 1880, Note_on_c, 5, 68, 0
11, 1890, Note_on_c, 5, 66, 100
11, 1910, Note_on_c, 5, 66, 0
11, 1920, Note_on_c, 5, 64, 100
11, 1960, Note_on_c, 5, 64, 0
11, 1980, Note_on_c, 5, 61, 100
11, 2020, Note_on_c, 5, 61, 0
11, 2100, Note_on_c, 5, 64, 100
11, 2140, Note_on_c, 5, 64, 0
11, 2160, Note_on_c, 5, 69, 100
11, 2200, Note_on_c, 5, 69, 0
11, 2220, Note_on_c, 5, 74, 100
11, 2260, Note_on_c, 5, 74, 0
11, 2280, Note_on_c, 5, 69, 100
11, 2320, Note_on_c, 5, 69, 0
11, 2340, Note_on_c, 5, 66, 100
11, 2380, Note_on_c, 5, 66, 0
11, 2400, Note_on_c, 5, 69, 100
11, 2440, Note_on_c, 5, 69, 0
11, 2460, Note_on_c, 5, 74, 100
11, 2500, Note_on_c, 5, 74, 0
11, 2520, Note_on_c, 5, 74, 100
11, 2600, Note_on_c, 5, 74, 0
11, 2700, Note_on_c, 5, 66, 100
11, 2740, Note_on_c, 5, 66, 0
11, 2760, Note_on_c, 5, 71, 100
11, 2800, Note_on_c, 5, 71, 0
11, 2820, Note_on_c, 5, 74, 100
11, 2860, Note_on_c, 5, 74, 0
11, 2880, Note_on_c, 5, 68, 100
11, 2960, Note_on_c, 5, 68, 0
11, 3060, Note_on_c, 5, 68, 100
11, 3100, Note_on_c, 5, 68, 0
11, 3120, Note_on_c, 5, 71, 100
11, 3160, Note_on_c, 5, 71, 0
11, 3180, Note_on_c, 5, 76, 100
11, 3220, Note_on_c, 5, 76, 0
11, 3240, Note_on_c, 5, 76, 100
11, 3320, Note_on_c, 5, 76, 0
11, 3420, Note_on_c, 5, 61, 100
11, 3460, Note_on_c, 5, 61, 0
11, 3480, Note_on_c, 5, 64, 100
11, 3520, Note_on_c, 5, 64, 0
11, 3540, Note_on_c, 5, 69, 100
11, 3580, Note_on_c, 5, 69, 0
11, 3600, Note_on_c, 5, 69, 100
11, 3680, Note_on_c, 5, 69, 0
11, 4020, Note_on_c, 5, 71, 100
11, 4060, Note_on_c, 5, 71, 0
11, 4080, Note_on_c, 5, 73, 100
11, 4120, Note_on_c, 5, 73, 0
11, 4140, Note_on_c, 5, 69, 100
11, 4180, Note_on_c, 5, 69, 0
11, 4200, Note_on_c, 5, 64, 100
11, 4240, Note_on_c, 5, 64, 0
11, 4260, Note_on_c, 5, 64, 100
11, 4300, Note_on_c, 5, 64, 0
11, 4320, Note_on_c, 5, 64, 100
11, 4360, Note_on_c, 5, 64, 0
11, 4380, Note_on_c, 5, 57, 100
11, 4420, Note_on_c, 5, 57, 0
11, 4440, Note_on_c, 5, 61, 100
11, 4480, Note_on_c, 5, 61, 0
11, 4500, Note_on_c, 5, 64, 100
11, 4540, Note_on_c, 5, 64, 0
11, 4560, Note_on_c, 5, 64, 100
11, 4600, Note_on_c, 5, 64, 0
11, 4620, Note_on_c, 5, 61, 100
11, 4660, Note_on_c, 5, 61, 0
11, 4680, Note_on_c, 5, 57, 100
11, 4720, Note_on_c, 5, 57, 0
11, 4740, Note_on_c, 5, 61, 100
11, 4780, Note_on_c, 5, 61, 0
11, 4800, Note_on_c, 5, 64, 100
11, 4840, Note_on_c, 5, 64, 0
11, 4860, Note_on_c, 5, 69, 100
11, 4900, Note_on_c, 5, 69, 0
11, 4920, Note_on_c, 5, 69, 100
11, 4960, Note_on_c, 5, 69, 0
11, 4980, Note_on_c, 5, 64, 100
11, 5020, Note_on_c, 5, 64, 0
11, 5040, Note_on_c, 5, 61, 100
11, 5080, Note_on_c, 5, 61, 0
11, 5100, Note_on_c, 5, 64, 100
11, 5140, Note_on_c, 5, 64, 0
11, 5160, Note_on_c, 5, 69, 100
11, 5200, Note_on_c, 5, 69, 0
11, 5220, Note_on_c, 5, 73, 100
11, 5260, Note_on_c, 5, 73, 0
11, 5280, Note_on_c, 5, 71, 100
11, 5300, Note_on_c, 5, 71, 0
11, 5310, Note_on_c, 5, 69, 100
11, 5330, Note_on_c, 5, 69, 0
11, 5340, Note_on_c, 5, 68, 100
11, 5360, Note_on_c, 5, 68, 0
11, 5370, Note_on_c, 5, 66, 100
11, 5390, Note_on_c, 5, 66, 0
11, 5400, Note_on_c, 5, 64, 100
11, 5440, Note_on_c, 5, 64, 0
11, 5460, Note_on_c, 5, 64, 100
11, 5500, Note_on_c, 5, 64, 0
11, 5520, Note_on_c, 5, 69, 100
11, 5560, Note_on_c, 5, 69, 0
11, 5580, Note_on_c, 5, 73, 100
11, 5620, Note_on_c, 5, 73, 0
11, 5640, Note_on_c, 5, 71, 100
11, 5660, Note_on_c, 5, 71, 0
11, 5670, Note_on_c, 5, 69, 100
11, 5690, Note_on_c, 5, 69, 0
11, 5700, Note_on_c, 5, 68, 100
11, 5720, Note_on_c, 5, 68, 0
11, 5730, Note_on_c, 5, 66, 100
11, 5750, Note_on_c, 5, 66, 0
11, 5760, Note_on_c, 5, 64, 100
11, 5800, Note_on_c, 5, 64, 0
11, 5820, Note_on_c, 5, 69, 100
11, 5860, Note_on_c, 5, 69, 0
11, 5880, Note_on_c, 5, 73, 100
11, 5920, Note_on_c, 5, 73, 0
11, 5940, Note_on_c, 5, 76, 100
11, 5980, Note_on_c, 5, 76, 0
11, 6000, Note_on_c, 5, 76, 100
11, 6040, Note_on_c, 5, 76, 0
11, 6060, Note_on_c, 5, 76, 100
11, 6100, Note_on_c, 5, 76, 0
11, 6120, Note_on_c, 5, 69, 100
11, 6160, Note_on_c, 5, 69, 0
11, 6180, Note_on_c, 5, 66, 100
11, 6220, Note_on_c, 5, 66, 0
11, 6300, Note_on_c, 5, 62, 100
11, 6340, Note_on_c, 5, 62, 0
11, 6360, Note_on_c, 5, 66, 100
11, 6400, Note_on_c, 5, 66, 0
11, 6420, Note_on_c, 5, 69, 100
11, 6460, Note_on_c, 5, 69, 0
11, 6480, Note_on_c, 5, 62, 100
11, 6520, Note_on_c, 5, 62, 0
11, 6540, Note_on_c, 5, 71, 100
11, 6560, Note_on_c, 5, 71, 0
11, 6570, Note_on_c, 5, 69, 100
11, 6590, Note_on_c, 5, 69, 0
11, 6600, Note_on_c, 5, 67, 100
11, 6620, Note_on_c, 5, 67, 0
11, 6630, Note_on_c, 5, 66, 100
11, 6650, Note_on_c, 5, 66, 0
11, 6660, Note_on_c, 5, 64, 100
11, 6680, Note_on_c, 5, 64, 0
11, 6690, Note_on_c, 5, 66, 100
11, 6710, Note_on_c, 5, 66, 0
11, 6720, Note_on_c, 5, 67, 100
11, 6740, Note_on_c, 5, 67, 0
11, 6750, Note_on_c, 5, 69, 100
11, 6770, Note_on_c, 5, 69, 0
11, 6780, Note_on_c, 5, 66, 100
11, 6800, Note_on_c, 5, 66, 0
11, 6810, Note_on_c, 5, 67, 100
11, 6830, Note_on_c, 5, 67, 0
11, 6840, Note_on_c, 5, 69, 100
11, 6880, Note_on_c, 5, 69, 0
11, 6900, Note_on_c, 5, 61, 100
11, 6940, Note_on_c, 5, 61, 0
11, 6960, Note_on_c, 5, 66, 100
11, 7000, Note_on_c, 5, 66, 0
11, 7020, Note_on_c, 5, 69, 100
11, 7060, Note_on_c, 5, 69, 0
11, 7080, Note_on_c, 5, 69, 100
11, 7120, Note_on_c, 5, 69, 0
11, 7140, Note_on_c, 5, 66, 100
11, 7180, Note_on_c, 5, 66, 0
11, 7200, Note_on_c, 5, 71, 100
11, 7240, Note_on_c, 5, 71, 0
11, 7260, Note_on_c, 5, 59, 100
11, 7300, Note_on_c, 5, 59, 0
11, 7320, Note_on_c, 5, 64, 100
11, 7360, Note_on_c, 5, 64, 0
11, 7380, Note_on_c, 5, 71, 100
11, 7420, Note_on_c, 5, 71, 0
11, 7440, Note_on_c, 5, 71, 100
11, 7480, Note_on_c, 5, 71, 0
11, 7500, Note_on_c, 5, 64, 100
11, 7540, Note_on_c, 5, 64, 0
11, 7560, Note_on_c, 5, 73, 100
11, 7600, Note_on_c, 5, 73, 0
11, 7620, Note_on_c, 5, 64, 100
11, 7660, Note_on_c, 5, 64, 0
11, 7680, Note_on_c, 5, 69, 100
11, 7720, Note_on_c, 5, 69, 0
11, 7740, Note_on_c, 5, 73, 100
11, 7780, Note_on_c, 5, 73, 0
11, 7800, Note_on_c, 5, 73, 100
11, 7840, Note_on_c, 5, 73, 0
11, 7860, Note_on_c, 5, 69, 100
11, 7900, Note_on_c, 5, 69, 0
11, 7920, Note_on_c, 5, 74, 100
11, 8000, Note_on_c, 5, 74, 0
11, 8100, Note_on_c, 5, 66, 100
11, 8140, Note_on_c, 5, 66, 0
11, 8160, Note_on_c, 5, 69, 100
11, 8200, Note_on_c, 5, 69, 0
11, 8220, Note_on_c, 5, 74, 100
11, 8260, Note_on_c, 5, 74, 0
11, 8280, Note_on_c, 5, 74, 100
11, 8360, Note_on_c, 5, 74, 0
11, 8460, Note_on_c, 5, 69, 100
11, 8500, Note_on_c, 5, 69, 0
11, 8520, Note_on_c, 5, 69, 100
11, 8560, Note_on_c, 5, 69, 0
11, 8580, Note_on_c, 5, 74, 100
11, 8620, Note_on_c, 5, 74, 0
11, 8640, Note_on_c, 5, 78, 100
11, 8700, Note_on_c, 5, 78, 0
11, 8730, Note_on_c, 5, 67, 100
11, 8750, Note_on_c, 5, 67, 0
11, 8760, Note_on_c, 5, 66, 100
11, 8780, Note_on_c, 5, 66, 0
11, 8790, Note_on_c, 5, 64, 100
11, 8810, Note_on_c, 5, 64, 0
11, 8820, Note_on_c, 5, 62, 100
11, 8840, Note_on_c, 5, 62, 0
11, 8850, Note_on_c, 5, 64, 100
11, 8870, Note_on_c, 5, 64, 0
11, 8880, Note_on_c, 5, 66, 100
11, 8900, Note_on_c, 5, 66, 0
11, 8910, Note_on_c, 5, 67, 100
11, 8930, Note_on_c, 5, 67, 0
11, 8940, Note_on_c, 5, 66, 100
11, 8960, Note_on_c, 5, 66, 0
11, 8970, Note_on_c, 5, 67, 100
11, 8990, Note_on_c, 5, 67, 0
11, 9000, Note_on_c, 5, 66, 100
11, 9060, Note_on_c, 5, 66, 0
11, 9090, Note_on_c, 5, 67, 100
11, 9110, Note_on_c, 5, 67, 0
11, 9120, Note_on_c, 5, 66, 100
11, 9140, Note_on_c, 5, 66, 0
11, 9150, Note_on_c, 5, 64, 100
11, 9170, Note_on_c, 5, 64, 0
11, 9180, Note_on_c, 5, 62, 100
11, 9200, Note_on_c, 5, 62, 0
11, 9210, Note_on_c, 5, 64, 100
11, 9230, Note_on_c, 5, 64, 0
11, 9240, Note_on_c, 5, 66, 100
11, 9260, Note_on_c, 5, 66, 0
11, 9270, Note_on_c, 5, 67, 100
11, 9290, Note_on_c, 5, 67, 0
11, 9300, Note_on_c, 5, 66, 100
11, 9320, Note_on_c, 5, 66, 0
11, 9330, Note_on_c, 5, 67, 100
11, 9350, Note_on_c, 5, 67, 0
11, 9360, Note_on_c, 5, 66, 100
11, 9400, Note_on_c, 5, 66, 0
11, 9420, Note_on_c, 5, 62, 100
11, 9460, Note_on_c, 5, 62, 0
11, 10140, Note_on_c, 5, 66, 100
11, 10170, Note_on_c, 5, 67, 100
11, 10180, Note_on_c, 5, 66, 0
11, 10190, Note_on_c, 5, 67, 0
11, 10200, Note_on_c, 5, 69, 100
11, 10240, Note_on_c, 5, 69, 0
11, 10260, Note_on_c, 5, 74, 100
11, 10300, Note_on_c, 5, 74, 0
11, 10320, Note_on_c, 5, 74, 100
11, 10340, Note_on_c, 5, 74, 0
11, 10350, Note_on_c, 5, 76, 100
11, 10370, Note_on_c, 5, 76, 0
11, 10380, Note_on_c, 5, 74, 100
11, 10400, Note_on_c, 5, 74, 0
11, 10410, Note_on_c, 5, 73, 100
11, 10430, Note_on_c, 5, 73, 0
11, 10440, Note_on_c, 5, 74, 100
11, 10460, Note_on_c, 5, 74, 0
11, 10470, Note_on_c, 5, 73, 100
11, 10490, Note_on_c, 5, 73, 0
11, 10500, Note_on_c, 5, 74, 100
11, 10520, Note_on_c, 5, 74, 0
11, 10530, Note_on_c, 5, 76, 100
11, 10550, Note_on_c, 5, 76, 0
11, 10560, Note_on_c, 5, 78, 100
11, 10600, Note_on_c, 5, 78, 0
11, 10620, Note_on_c, 5, 74, 100
11, 10660, Note_on_c, 5, 74, 0
11, 10680, Note_on_c, 5, 74, 100
11, 10720, Note_on_c, 5, 74, 0
11, 10740, Note_on_c, 5, 73, 100
11, 10780, Note_on_c, 5, 73, 0
11, 10800, Note_on_c, 5, 74, 100
11, 10880, Note_on_c, 5, 74, 0
11, 11520, Note_on_c, 5, 78, 100
11, 11560, Note_on_c, 5, 78, 0
11, 11580, Note_on_c, 5, 74, 100
11, 11620, Note_on_c, 5, 74, 0
11, 11880, Note_on_c, 5, 74, 100
11, 11920, Note_on_c, 5, 74, 0
11, 11940, Note_on_c, 5, 69, 100
11, 11980, Note_on_c, 5, 69, 0
11, 12240, Note_on_c, 5, 69, 100
11, 12280, Note_on_c, 5, 69, 0
11, 12300, Note_on_c, 5, 66, 100
11, 12340, Note_on_c, 5, 66, 0
11, 12900, Note_on_c, 5, 69, 100
11, 12940, Note_on_c, 5, 69, 0
11, 12960, Note_on_c, 5, 69, 100
11, 12980, Note_on_c, 5, 69, 0
11, 12990, Note_on_c, 5, 71, 100
11, 13010, Note_on_c, 5, 71, 0
11, 13020, Note_on_c, 5, 69, 100
11, 13040, Note_on_c, 5, 69, 0
11, 13050, Note_on_c, 5, 67, 100
11, 13070, Note_on_c, 5, 67, 0
11, 13080, Note_on_c, 5, 66, 100
11, 13120, Note_on_c, 5, 66, 0
11, 13140, Note_on_c, 5, 62, 100
11, 13180, Note_on_c, 5, 62, 0
11, 13260, Note_on_c, 5, 66, 100
11, 13300, Note_on_c, 5, 66, 0
11, 13320, Note_on_c, 5, 71, 100
11, 13340, Note_on_c, 5, 71, 0
11, 13350, Note_on_c, 5, 69, 100
11, 13370, Note_on_c, 5, 69, 0
11, 13380, Note_on_c, 5, 68, 100
11, 13400, Note_on_c, 5, 68, 0
11, 13410, Note_on_c, 5, 66, 100
11, 13430, Note_on_c, 5, 66, 0
11, 13440, Note_on_c, 5, 64, 100
11, 13480, Note_on_c, 5, 64, 0
11, 13500, Note_on_c, 5, 61, 100
11, 13540, Note_on_c, 5, 61, 0
11, 13620, Note_on_c, 5, 64, 100
11, 13660, Note_on_c, 5, 64, 0
11, 13680, Note_on_c, 5, 69, 100
11, 13720, Note_on_c, 5, 69, 0
11, 13740, Note_on_c, 5, 74, 100
11, 13780, Note_on_c, 5, 74, 0
11, 13800, Note_on_c, 5, 69, 100
11, 13840, Note_on_c, 5, 69, 0
11, 13860, Note_on_c, 5, 66, 100
11, 13900, Note_on_c, 5, 66, 0
11, 13920, Note_on_c, 5, 69, 100
11, 13960, Note_on_c, 5, 69, 0
11, 13980, Note_on_c, 5, 74, 100
11, 14020, Note_on_c, 5, 74, 0
11, 14040, Note_on_c, 5, 74, 100
11, 14120, Note_on_c, 5, 74, 0
11, 14220, Note_on_c, 5, 66, 100
11, 14260, Note_on_c, 5, 66, 0
11, 14280, Note_on_c, 5, 71, 100
11, 14320, Note_on_c, 5, 71, 0
11, 14340, Note_on_c, 5, 74, 100
11, 14380, Note_on_c, 5, 74, 0
11, 14400, Note_on_c, 5, 68, 100
11, 14480, Note_on_c, 5, 68, 0
11, 14580, Note_on_c, 5, 68, 100
11, 14620, Note_on_c, 5, 68, 0
11, 14640, Note_on_c, 5, 71, 100
11, 14680, Note_on_c, 5, 71, 0
11, 14700, Note_on_c, 5, 76, 100
11, 14740, Note_on_c, 5, 76, 0
11, 14760, Note_on_c, 5, 76, 100
11, 14840, Note_on_c, 5, 76, 0
11, 14940, Note_on_c, 5, 61, 100
11, 14980, Note_on_c, 5, 61, 0
11, 15000, Note_on_c, 5, 64, 100
11, 15040, Note_on_c, 5, 64, 0
11, 15060, Note_on_c, 5, 69, 100
11, 15100, Note_on_c, 5, 69, 0
11, 15120, Note_on_c, 5, 69, 100
11, 15200, Note_on_c, 5, 69, 0
11, 15540, Note_on_c, 5, 71, 100
11, 15580, Note_on_c, 5, 71, 0
11, 15600, Note_on_c, 5, 73, 100
11, 15640, Note_on_c, 5, 73, 0
11, 15660, Note_on_c, 5, 69, 100
11, 15700, Note_on_c, 5, 69, 0
11, 15720, Note_on_c, 5, 64, 100
11, 15760, Note_on_c, 5, 64, 0
11, 15780, Note_on_c, 5, 64, 100
11, 15820, Note_on_c, 5, 64, 0
11, 15840, Note_on_c, 5, 64, 100
11, 15920, Note_on_c, 5, 64, 0
11, 16620, Note_on_c, 5, 69, 100
11, 16660, Note_on_c, 5, 69, 0
11, 16680, Note_on_c, 5, 73, 100
11, 16720, Note_on_c, 5, 73, 0
11, 16740, Note_on_c, 5, 76, 100
11, 16780, Note_on_c, 5, 76, 0
11, 16800, Note_on_c, 5, 76, 100
11, 16840, Note_on_c, 5, 76, 0
11, 16860, Note_on_c, 5, 73, 100
11, 16900, Note_on_c, 5, 73, 0
11, 16920, Note_on_c, 5, 69, 100
11, 16960, Note_on_c, 5, 69, 0
11, 16980, Note_on_c, 5, 73, 100
11, 17020, Note_on_c, 5, 73, 0
11, 17040, Note_on_c, 5, 76, 100
11, 17080, Note_on_c, 5, 76, 0
11, 17100, Note_on_c, 5, 81, 100
11, 17140, Note_on_c, 5, 81, 0
11, 17160, Note_on_c, 5, 81, 100
11, 17200, Note_on_c, 5, 81, 0
11, 17220, Note_on_c, 5, 76, 100
11, 17260, Note_on_c, 5, 76, 0
11, 17280, Note_on_c, 5, 73, 100
11, 17360, Note_on_c, 5, 73, 0
11, 18120, Note_on_c, 5, 61, 100
11, 18160, Note_on_c, 5, 61, 0
11, 18180, Note_on_c, 5, 64, 100
11, 18220, Note_on_c, 5, 64, 0
11, 18240, Note_on_c, 5, 69, 100
11, 18280, Note_on_c, 5, 69, 0
11, 18360, Note_on_c, 5, 66, 100
11, 18440, Note_on_c, 5, 66, 0
11, 18540, Note_on_c, 5, 66, 100
11, 18580, Note_on_c, 5, 66, 0
11, 18600, Note_on_c, 5, 70, 100
11, 18640, Note_on_c, 5, 70, 0
11, 18660, Note_on_c, 5, 73, 100
11, 18700, Note_on_c, 5, 73, 0
11, 18720, Note_on_c, 5, 71, 100
11, 18800, Note_on_c, 5, 71, 0
11, 18900, Note_on_c, 5, 66, 100
11, 18940, Note_on_c, 5, 66, 0
11, 18960, Note_on_c, 5, 71, 100
11, 19000, Note_on_c, 5, 71, 0
11, 19020, Note_on_c, 5, 74, 100
11, 19060, Note_on_c, 5, 74, 0
11, 19080, Note_on_c, 5, 74, 100
11, 19160, Note_on_c, 5, 74, 0
11, 19260, Note_on_c, 5, 73, 100
11, 19300, Note_on_c, 5, 73, 0
11, 19320, Note_on_c, 5, 77, 100
11, 19360, Note_on_c, 5, 77, 0
11, 19380, Note_on_c, 5, 80, 100
11, 19420, Note_on_c, 5, 80, 0
11, 19440, Note_on_c, 5, 73, 100
11, 19520, Note_on_c, 5, 73, 0
11, 19620, Note_on_c, 5, 69, 100
11, 19660, Note_on_c, 5, 69, 0
11, 19680, Note_on_c, 5, 73, 100
11, 19720, Note_on_c, 5, 73, 0
11, 19740, Note_on_c, 5, 78, 100
11, 19780, Note_on_c, 5, 78, 0
11, 19800, Note_on_c, 5, 76, 100
11, 19880, Note_on_c, 5, 76, 0
11, 19980, Note_on_c, 5, 69, 100
11, 20020, Note_on_c, 5, 69, 0
11, 20040, Note_on_c, 5, 73, 100
11, 20080, Note_on_c, 5, 73, 0
11, 20100, Note_on_c, 5, 76, 100
11, 20140, Note_on_c, 5, 76, 0
11, 20160, Note_on_c, 5, 74, 100
11, 20240, Note_on_c, 5, 74, 0
11, 20340, Note_on_c, 5, 69, 100
11, 20380, Note_on_c, 5, 69, 0
11, 20400, Note_on_c, 5, 74, 100
11, 20440, Note_on_c, 5, 74, 0
11, 20460, Note_on_c, 5, 78, 100
11, 20500, Note_on_c, 5, 78, 0
11, 20520, Note_on_c, 5, 78, 100
11, 20600, Note_on_c, 5, 78, 0
11, 20700, Note_on_c, 5, 69, 100
11, 20740, Note_on_c, 5, 69, 0
11, 20760, Note_on_c, 5, 74, 100
11, 20800, Note_on_c, 5, 74, 0
11, 20820, Note_on_c, 5, 78, 100
11, 20860, Note_on_c, 5, 78, 0
11, 20880, Note_on_c, 5, 78, 100
11, 20960, Note_on_c, 5, 78, 0
11, 21060, Note_on_c, 5, 69, 100
11, 21100, Note_on_c, 5, 69, 0
11, 21120, Note_on_c, 5, 64, 100
11, 21160, Note_on_c, 5, 64, 0
11, 21180, Note_on_c, 5, 64, 100
11, 21220, Note_on_c, 5, 64, 0
11, 21240, Note_on_c, 5, 62, 100
11, 21280, Note_on_c, 5, 62, 0
11, 21300, Note_on_c, 5, 66, 100
11, 21340, Note_on_c, 5, 66, 0
11, 21420, Note_on_c, 5, 69, 100
11, 21460, Note_on_c, 5, 69, 0
11, 21480, Note_on_c, 5, 73, 100
11, 21520, Note_on_c, 5, 73, 0
11, 21540, Note_on_c, 5, 76, 100
11, 21580, Note_on_c, 5, 76, 0
11, 21600, Note_on_c, 5, 69, 100
11, 21620, Note_on_c, 5, 69, 0
11, 21630, Note_on_c, 5, 71, 100
11, 21650, Note_on_c, 5, 71, 0
11, 21660, Note_on_c, 5, 69, 100
11, 21680, Note_on_c, 5, 69, 0
11, 21690, Note_on_c, 5, 67, 100
11, 21710, Note_on_c, 5, 67, 0
11, 21720, Note_on_c, 5, 66, 100
11, 21760, Note_on_c, 5, 66, 0
11, 23460, Note_on_c, 5, 59, 100
11, 23500, Note_on_c, 5, 59, 0
11, 23520, Note_on_c, 5, 64, 100
11, 23540, Note_on_c, 5, 64, 0
11, 23550, Note_on_c, 5, 66, 100
11, 23570, Note_on_c, 5, 66, 0
11, 23580, Note_on_c, 5, 67, 100
11, 23620, Note_on_c, 5, 67, 0
11, 23640, Note_on_c, 5, 67, 100
11, 23660, Note_on_c, 5, 67, 0
11, 23670, Note_on_c, 5, 66, 100
11, 23690, Note_on_c, 5, 66, 0
11, 23700, Note_on_c, 5, 64, 100
11, 23720, Note_on_c, 5, 64, 0
11, 23730, Note_on_c, 5, 63, 100
11, 23750, Note_on_c, 5, 63, 0
11, 23760, Note_on_c, 5, 64, 100
11, 23800, Note_on_c, 5, 64, 0
11, 23820, Note_on_c, 5, 59, 100
11, 23860, Note_on_c, 5, 59, 0
11, 24060, Note_on_c, 5, 59, 100
11, 24100, Note_on_c, 5, 59, 0
11, 24120, Note_on_c, 5, 64, 100
11, 24140, Note_on_c, 5, 64, 0
11, 24150, Note_on_c, 5, 62, 100
11, 24170, Note_on_c, 5, 62, 0
11, 24180, Note_on_c, 5, 61, 100
11, 24200, Note_on_c, 5, 61, 0
11, 24210, Note_on_c, 5, 59, 100
11, 24230, Note_on_c, 5, 59, 0
11, 24240, Note_on_c, 5, 57, 100
11, 24280, Note_on_c, 5, 57, 0
11, 24300, Note_on_c, 5, 66, 100
11, 24340, Note_on_c, 5, 66, 0
11, 24420, Note_on_c, 5, 69, 100
11, 24460, Note_on_c, 5, 69, 0
11, 24480, Note_on_c, 5, 74, 100
11, 24520, Note_on_c, 5, 74, 0
11, 24540, Note_on_c, 5, 79, 100
11, 24580, Note_on_c, 5, 79, 0
11, 24600, Note_on_c, 5, 74, 100
11, 24640, Note_on_c, 5, 74, 0
11, 24660, Note_on_c, 5, 71, 100
11, 24700, Note_on_c, 5, 71, 0
11, 24720, Note_on_c, 5, 74, 100
11, 24760, Note_on_c, 5, 74, 0
11, 24780, Note_on_c, 5, 79, 100
11, 24820, Note_on_c, 5, 79, 0
11, 24840, Note_on_c, 5, 79, 100
11, 24920, Note_on_c, 5, 79, 0
11, 25020, Note_on_c, 5, 71, 100
11, 25060, Note_on_c, 5, 71, 0
11, 25080, Note_on_c, 5, 76, 100
11, 25120, Note_on_c, 5, 76, 0
11, 25140, Note_on_c, 5, 79, 100
11, 25180, Note_on_c, 5, 79, 0
11, 25200, Note_on_c, 5, 73, 100
11, 25280, Note_on_c, 5, 73, 0
11, 25380, Note_on_c, 5, 73, 100
11, 25420, Note_on_c, 5, 73, 0
11, 25440, Note_on_c, 5, 76, 100
11, 25480, Note_on_c, 5, 76, 0
11, 25500, Note_on_c, 5, 81, 100
11, 25540, Note_on_c, 5, 81, 0
11, 25560, Note_on_c, 5, 81, 100
11, 25640, Note_on_c, 5, 81, 0
11, 25740, Note_on_c, 5, 66, 100
11, 25780, Note_on_c, 5, 66, 0
11, 25800, Note_on_c, 5, 69, 100
11, 25840, Note_on_c, 5, 69, 0
11, 25860, Note_on_c, 5, 74, 100
11, 25900, Note_on_c, 5, 74, 0
11, 25920, Note_on_c, 5, 74, 100
11, 26000, Note_on_c, 5, 74, 0
11, 26340, Note_on_c, 5, 76, 100
11, 26380, Note_on_c, 5, 76, 0
11, 26400, Note_on_c, 5, 78, 100
11, 26440, Note_on_c, 5, 78, 0
11, 26460, Note_on_c, 5, 74, 100
11, 26500, Note_on_c, 5, 74, 0
11, 26520, Note_on_c, 5, 69, 100
11, 26560, Note_on_c, 5, 69, 0
11, 26580, Note_on_c, 5, 69, 100
11, 26620, Note_on_c, 5, 69, 0
11, 26640, Note_on_c, 5, 69, 100
11, 26720, Note_on_c, 5, 69, 0
11, 27060, Note_on_c, 5, 69, 100
11, 27100, Note_on_c, 5, 69, 0
11, 27120, Note_on_c, 5, 73, 100
11, 27160, Note_on_c, 5, 73, 0
11, 27180, Note_on_c, 5, 76, 100
11, 27220, Note_on_c, 5, 76, 0
11, 27240, Note_on_c, 5, 76, 100
11, 27280, Note_on_c, 5, 76, 0
11, 27300, Note_on_c, 5, 76, 100
11, 27340, Note_on_c, 5, 76, 0
11, 27360, Note_on_c, 5, 69, 100
11, 27400, Note_on_c, 5, 69, 0
11, 27420, Note_on_c, 5, 66, 100
11, 27460, Note_on_c, 5, 66, 0
11, 27540, Note_on_c, 5, 62, 100
11, 27580, Note_on_c, 5, 62, 0
11, 27600, Note_on_c, 5, 66, 100
11, 27640, Note_on_c, 5, 66, 0
11, 27660, Note_on_c, 5, 69, 100
11, 27700, Note_on_c, 5, 69, 0
11, 27720, Note_on_c, 5, 62, 100
11, 27760, Note_on_c, 5, 62, 0
11, 27780, Note_on_c, 5, 71, 100
11, 27800, Note_on_c, 5, 71, 0
11, 27810, Note_on_c, 5, 69, 100
11, 27830, Note_on_c, 5, 69, 0
11, 27840, Note_on_c, 5, 67, 100
11, 27860, Note_on_c, 5, 67, 0
11, 27870, Note_on_c, 5, 66, 100
11, 27890, Note_on_c, 5, 66, 0
11, 27900, Note_on_c, 5, 64, 100
11, 27920, Note_on_c, 5, 64, 0
11, 27930, Note_on_c, 5, 66, 100
11, 27950, Note_on_c, 5, 66, 0
11, 27960, Note_on_c, 5, 67, 100
11, 27980, Note_on_c, 5, 67, 0
11, 27990, Note_on_c, 5, 69, 100
11, 28010, Note_on_c, 5, 69, 0
11, 28020, Note_on_c, 5, 66, 100
11, 28040, Note_on_c, 5, 66, 0
11, 28050, Note_on_c, 5, 67, 100
11, 28070, Note_on_c, 5, 67, 0
11, 28080, Note_on_c, 5, 69, 100
11, 28120, Note_on_c, 5, 69, 0
11, 28140, Note_on_c, 5, 61, 100
11, 28180, Note_on_c, 5, 61, 0
11, 28200, Note_on_c, 5, 66, 100
11, 28240, Note_on_c, 5, 66, 0
11, 28260, Note_on_c, 5, 69, 100
11, 28300, Note_on_c, 5, 69, 0
11, 28320, Note_on_c, 5, 69, 100
11, 28360, Note_on_c, 5, 69, 0
11, 28380, Note_on_c, 5, 66, 100
11, 28420, Note_on_c, 5, 66, 0
11, 28440, Note_on_c, 5, 71, 100
11, 28480, Note_on_c, 5, 71, 0
11, 28500, Note_on_c, 5, 59, 100
11, 28540, Note_on_c, 5, 59, 0
11, 28560, Note_on_c, 5, 64, 100
11, 28600, Note_on_c, 5, 64, 0
11, 28620, Note_on_c, 5, 71, 100
11, 28660, Note_on_c, 5, 71, 0
11, 28680, Note_on_c, 5, 71, 100
11, 28720, Note_on_c, 5, 71, 0
11, 28740, Note_on_c, 5, 64, 100
11, 28780, Note_on_c, 5, 64, 0
11, 28800, Note_on_c, 5, 73, 100
11, 28840, Note_on_c, 5, 73, 0
11, 28860, Note_on_c, 5, 64, 100
11, 28900, Note_on_c, 5, 64, 0
11, 28920, Note_on_c, 5, 69, 100
11, 28960, Note_on_c, 5, 69, 0
11, 28980, Note_on_c, 5, 73, 100
11, 29020, Note_on_c, 5, 73, 0
11, 29040, Note_on_c, 5, 73, 100
11, 29080, Note_on_c, 5, 73, 0
11, 29100, Note_on_c, 5, 69, 100
11, 29140, Note_on_c, 5, 69, 0
11, 29160, Note_on_c, 5, 74, 100
11, 29240, Note_on_c, 5, 74, 0
11, 29340, Note_on_c, 5, 66, 100
11, 29380, Note_on_c, 5, 66, 0
11, 29400, Note_on_c, 5, 69, 100
11, 29440, Note_on_c, 5, 69, 0
11, 29460, Note_on_c, 5, 74, 100
11, 29500, Note_on_c, 5, 74, 0
11, 29520, Note_on_c, 5, 74, 100
11, 29600, Note_on_c, 5, 74, 0
11, 29700, Note_on_c, 5, 69, 100
11, 29740, Note_on_c, 5, 69, 0
11, 29760, Note_on_c, 5, 69, 100
11, 29800, Note_on_c, 5, 69, 0
11, 29820, Note_on_c, 5, 74, 100
11, 29860, Note_on_c, 5, 74, 0
11, 29880, Note_on_c, 5, 78, 100
11, 29940, Note_on_c, 5, 78, 0
11, 29970, Note_on_c, 5, 67, 100
11, 29990, Note_on_c, 5, 67, 0
11, 30000, Note_on_c, 5, 66, 100
11, 30020, Note_on_c, 5, 66, 0
11, 30030, Note_on_c, 5, 64, 100
11, 30050, Note_on_c, 5, 64, 0
11, 30060, Note_on_c, 5, 62, 100
11, 30080, Note_on_c, 5, 62, 0
11, 30090, Note_on_c, 5, 64, 100
11, 30110, Note_on_c, 5, 64, 0
11, 30120, Note_on_c, 5, 66, 100
11, 30140, Note_on_c, 5, 66, 0
11, 30150, Note_on_c, 5, 67, 100
11, 30170, Note_on_c, 5, 67, 0
11, 30180, Note_on_c, 5, 66, 100
11, 30200, Note_on_c, 5, 66, 0
11, 30210, Note_on_c, 5, 67, 100
11, 30230, Note_on_c, 5, 67, 0
11, 30240, Note_on_c, 5, 66, 100
11, 30300, Note_on_c, 5, 66, 0
11, 30330, Note_on_c, 5, 67, 100
11, 30350, Note_on_c, 5, 67, 0
11, 30360, Note_on_c, 5, 66, 100
11, 30380, Note_on_c, 5, 66, 0
11, 30390, Note_on_c, 5, 64, 100
11, 30410, Note_on_c, 5, 64, 0
11, 30420, Note_on_c, 5, 62, 100
11, 30440, Note_on_c, 5, 62, 0
11, 30450, Note_on_c, 5, 64, 100
11, 30470, Note_on_c, 5, 64, 0
11, 30480, Note_on_c, 5, 66, 100
11, 30500, Note_on_c, 5, 66, 0
11, 30510, Note_on_c, 5, 67, 100
11, 30530, Note_on_c, 5, 67, 0
11, 30540, Note_on_c, 5, 66, 100
11, 30560, Note_on_c, 5, 66, 0
11, 30570, Note_on_c, 5, 67, 100
11, 30590, Note_on_c, 5, 67, 0
11, 30600, Note_on_c, 5, 66, 100
11, 30640, Note_on_c, 5, 66, 0
11, 30660, Note_on_c, 5, 62, 100
11, 30700, Note_on_c, 5, 62, 0
11, 31380, Note_on_c, 5, 66, 100
11, 31410, Note_on_c, 5, 67, 100
11, 31420, Note_on_c, 5, 66, 0
11, 31430, Note_on_c, 5, 67, 0
11, 31440, Note_on_c, 5, 69, 100
11, 31480, Note_on_c, 5, 69, 0
11, 31500, Note_on_c, 5, 74, 100
11, 31540, Note_on_c, 5, 74, 0
11, 31560, Note_on_c, 5, 74, 100
11, 31580, Note_on_c, 5, 74, 0
11, 31590, Note_on_c, 5, 76, 100
11, 31610, Note_on_c, 5, 76, 0
11, 31620, Note_on_c, 5, 74, 100
11, 31640, Note_on_c, 5, 74, 0
11, 31650, Note_on_c, 5, 73, 100
11, 31670, Note_on_c, 5, 73, 0
11, 31680, Note_on_c, 5, 74, 100
11, 31700, Note_on_c, 5, 74, 0
11, 31710, Note_on_c, 5, 73, 100
11, 31730, Note_on_c, 5, 73, 0
11, 31740, Note_on_c, 5, 74, 100
11, 31760, Note_on_c, 5, 74, 0
11, 31770, Note_on_c, 5, 76, 100
11, 31790, Note_on_c, 5, 76, 0
11, 31800, Note_on_c, 5, 78, 100
11, 31840, Note_on_c, 5, 78, 0
11, 31860, Note_on_c, 5, 74, 100
11, 31900, Note_on_c, 5, 74, 0
11, 31920, Note_on_c, 5, 74, 100
11, 31960, Note_on_c, 5, 74, 0
11, 31980, Note_on_c, 5, 73, 100
11, 32020, Note_on_c, 5, 73, 0
11, 32040, Note_on_c, 5, 74, 100
11, 32120, Note_on_c, 5, 74, 0
11, 32760, Control_c, 5, 0, 0
11, 32760, Note_on_c, 5, 57, 100
11, 32800, Note_on_c, 5, 57, 0
11, 32820, Note_on_c, 5, 62, 100
11, 32860, Note_on_c, 5, 62, 0
11, 32880, Note_on_c, 5, 66, 100
11, 32920, Note_on_c, 5, 66, 0
11, 32940, Note_on_c, 5, 67, 100
11, 32970, Note_on_c, 5, 67, 0
11, 32970, Note_on_c, 5, 64, 100
11, 33000, Note_on_c, 5, 64, 0
11, 33000, Note_on_c, 5, 66, 100
11, 33060, Note_on_c, 5, 66, 0
11, 33120, Note_on_c, 5, 67, 100
11, 33160, Note_on_c, 5, 67, 0
11, 33180, Note_on_c, 5, 66, 100
11, 33220, Note_on_c, 5, 66, 0
11, 33240, Note_on_c, 5, 71, 100
11, 33280, Note_on_c, 5, 71, 0
11, 33300, Note_on_c, 5, 64, 100
11, 33340, Note_on_c, 5, 64, 0
11, 33360, Note_on_c, 5, 69, 100
11, 33400, Note_on_c, 5, 69, 0
11, 33480, Note_on_c, 5, 57, 100
11, 33520, Note_on_c, 5, 57, 0
11, 33540, Note_on_c, 5, 62, 100
11, 33560, Note_on_c, 5, 62, 0
11, 33570, Note_on_c, 5, 64, 100
11, 33590, Note_on_c, 5, 64, 0
11, 33600, Note_on_c, 5, 66, 100
11, 33620, Note_on_c, 5, 66, 0
11, 33630, Note_on_c, 5, 67, 100
11, 33650, Note_on_c, 5, 67, 0
11, 33660, Note_on_c, 5, 69, 100
11, 33700, Note_on_c, 5, 69, 0
11, 33720, Note_on_c, 5, 67, 100
11, 33760, Note_on_c, 5, 67, 0
11, 33840, Note_on_c, 5, 59, 100
11, 33880, Note_on_c, 5, 59, 0
11, 33900, Note_on_c, 5, 64, 100
11, 33940, Note_on_c, 5, 64, 0
11, 33960, Note_on_c, 5, 68, 100
11, 34000, Note_on_c, 5, 68, 0
11, 34020, Note_on_c, 5, 71, 100
11, 34060, Note_on_c, 5, 71, 0
11, 34080, Note_on_c, 5, 69, 100
11, 34120, Note_on_c, 5, 69, 0
11, 34200, Note_on_c, 5, 64, 100
11, 34240, Note_on_c, 5, 64, 0
11, 34260, Note_on_c, 5, 67, 100
11, 34280, Note_on_c, 5, 67, 0
11, 34290, Note_on_c, 5, 71, 100
11, 34310, Note_on_c, 5, 71, 0
11, 34320, Note_on_c, 5, 73, 100
11, 34340, Note_on_c, 5, 73, 0
11, 34350, Note_on_c, 5, 74, 100
11, 34370, Note_on_c, 5, 74, 0
11, 34380, Note_on_c, 5, 76, 100
11, 34410, Note_on_c, 5, 76, 0
11, 34410, Note_on_c, 5, 73, 100
11, 34430, Note_on_c, 5, 73, 0
11, 34440, Note_on_c, 5, 69, 100
11, 34470, Note_on_c, 5, 69, 0
11, 34470, Note_on_c, 5, 66, 100
11, 34490, Note_on_c, 5, 66, 0
11, 34500, Note_on_c, 5, 67, 100
11, 34530, Note_on_c, 5, 67, 0
11, 34530, Note_on_c, 5, 64, 100
11, 34550, Note_on_c, 5, 64, 0
11, 34560, Note_on_c, 5, 66, 100
11, 34590, Note_on_c, 5, 66, 0
11, 34590, Note_on_c, 5, 67, 100
11, 34620, Note_on_c, 5, 67, 0
11, 34620, Note_on_c, 5, 64, 100
11, 34710, Note_on_c, 5, 64, 0
11, 34710, Note_on_c, 5, 66, 100
11, 34730, Note_on_c, 5, 66, 0
11, 34740, Note_on_c, 5, 66, 100
11, 34760, Note_on_c, 5, 66, 0
11, 34770, Note_on_c, 5, 66, 100
11, 34790, Note_on_c, 5, 66, 0
11, 34800, Note_on_c, 5, 66, 100
11, 34820, Note_on_c, 5, 66, 0
11, 34830, Note_on_c, 5, 62, 100
11, 34850, Note_on_c, 5, 62, 0
11, 34860, Note_on_c, 5, 62, 100
11, 34880, Note_on_c, 5, 62, 0
11, 34890, Note_on_c, 5, 57, 100
11, 34910, Note_on_c, 5, 57, 0
11, 34920, Note_on_c, 5, 57, 100
11, 34960, Note_on_c, 5, 57, 0
11, 35640, Note_on_c, 5, 64, 100
11, 35680, Note_on_c, 5, 64, 0
11, 35700, Note_on_c, 5, 67, 100
11, 35720, Note_on_c, 5, 67, 0
11, 35730, Note_on_c, 5, 71, 100
11, 35750, Note_on_c, 5, 71, 0
11, 35760, Note_on_c, 5, 73, 100
11, 35780, Note_on_c, 5, 73, 0
11, 35790, Note_on_c, 5, 74, 100
11, 35810, Note_on_c, 5, 74, 0
11, 35820, Note_on_c, 5, 76, 100
11, 35850, Note_on_c, 5, 76, 0
11, 35850, Note_on_c, 5, 73, 100
11, 35870, Note_on_c, 5, 73, 0
11, 35880, Note_on_c, 5, 69, 100
11, 35910, Note_on_c, 5, 69, 0
11, 35910, Note_on_c, 5, 66, 100
11, 35930, Note_on_c, 5, 66, 0
11, 35940, Note_on_c, 5, 67, 100
11, 35970, Note_on_c, 5, 67, 0
11, 35970, Note_on_c, 5, 64, 100
11, 35990, Note_on_c, 5, 64, 0
11, 36000, Note_on_c, 5, 66, 100
11, 36030, Note_on_c, 5, 66, 0
11, 36030, Note_on_c, 5, 67, 100
11, 36060, Note_on_c, 5, 67, 0
11, 36060, Note_on_c, 5, 64, 100
11, 36150, Note_on_c, 5, 64, 0
11, 36150, Note_on_c, 5, 66, 100
11, 36170, Note_on_c, 5, 66, 0
11, 36180, Note_on_c, 5, 66, 100
11, 36200, Note_on_c, 5, 66, 0
11, 36210, Note_on_c, 5, 66, 100
11, 36230, Note_on_c, 5, 66, 0
11, 36240, Note_on_c, 5, 66, 100
11, 36260, Note_on_c, 5, 66, 0
11, 36270, Note_on_c, 5, 62, 100
11, 36290, Note_on_c, 5, 62, 0
11, 36300, Note_on_c, 5, 62, 100
11, 36320, Note_on_c, 5, 62, 0
11, 36330, Note_on_c, 5, 57, 100
11, 36350, Note_on_c, 5, 57, 0
11, 36360, Note_on_c, 5, 57, 100
11, 36400, Note_on_c, 5, 57, 0
11, 36420, Note_on_c, 5, 62, 100
11, 36460, Note_on_c, 5, 62, 0
11, 36480, Note_on_c, 5, 66, 100
11, 36520, Note_on_c, 5, 66, 0
11, 36540, Note_on_c, 5, 67, 100
11, 36570, Note_on_c, 5, 67, 0
11, 36570, Note_on_c, 5, 64, 100
11, 36600, Note_on_c, 5, 64, 0
11, 36600, Note_on_c, 5, 66, 100
11, 36660, Note_on_c, 5, 66, 0
11, 36720, Note_on_c, 5, 67, 100
11, 36760, Note_on_c, 5, 67, 0
11, 36780, Note_on_c, 5, 64, 100
11, 36820, Note_on_c, 5, 64, 0
11, 36840, Note_on_c, 5, 69, 100
11, 36880, Note_on_c, 5, 69, 0
11, 36900, Note_on_c, 5, 62, 100
11, 36940, Note_on_c, 5, 62, 0
11, 36960, Note_on_c, 5, 64, 100
11, 37000, Note_on_c, 5, 64, 0
11, 37020, Note_on_c, 5, 64, 100
11, 37060, Note_on_c, 5, 64, 0
11, 37080, Note_on_c, 5, 64, 100
11, 37120, Note_on_c, 5, 64, 0
11, 37140, Note_on_c, 5, 69, 100
11, 37180, Note_on_c, 5, 69, 0
11, 37200, Note_on_c, 5, 73, 100
11, 37240, Note_on_c, 5, 73, 0
11, 37260, Note_on_c, 5, 74, 100
11, 37290, Note_on_c, 5, 74, 0
11, 37290, Note_on_c, 5, 71, 100
11, 37320, Note_on_c, 5, 71, 0
11, 37320, Note_on_c, 5, 73, 100
11, 37360, Note_on_c, 5, 73, 0
11, 37440, Note_on_c, 5, 71, 100
11, 37480, Note_on_c, 5, 71, 0
11, 37500, Note_on_c, 5, 73, 100
11, 37540, Note_on_c, 5, 73, 0
11, 37560, Note_on_c, 5, 76, 100
11, 37600, Note_on_c, 5, 76, 0
11, 37620, Note_on_c, 5, 64, 100
11, 37660, Note_on_c, 5, 64, 0
11, 37680, Note_on_c, 5, 69, 100
11, 37720, Note_on_c, 5, 69, 0
11, 37740, Note_on_c, 5, 64, 100
11, 37780, Note_on_c, 5, 64, 0
11, 37800, Note_on_c, 5, 64, 100
11, 37840, Note_on_c, 5, 64, 0
11, 37860, Note_on_c, 5, 69, 100
11, 37880, Note_on_c, 5, 69, 0
11, 37890, Note_on_c, 5, 71, 100
11, 37910, Note_on_c, 5, 71, 0
11, 37920, Note_on_c, 5, 73, 100
11, 37940, Note_on_c, 5, 73, 0
11, 37950, Note_on_c, 5, 74, 100
11, 37970, Note_on_c, 5, 74, 0
11, 37980, Note_on_c, 5, 76, 100
11, 38010, Note_on_c, 5, 76, 0
11, 38010, Note_on_c, 5, 73, 100
11, 38040, Note_on_c, 5, 73, 0
11, 38040, Note_on_c, 5, 74, 100
11, 38080, Note_on_c, 5, 74, 0
11, 38160, Note_on_c, 5, 66, 100
11, 38200, Note_on_c, 5, 66, 0
11, 38220, Note_on_c, 5, 71, 100
11, 38260, Note_on_c, 5, 71, 0
11, 38280, Note_on_c, 5, 71, 100
11, 38320, Note_on_c, 5, 71, 0
11, 38340, Note_on_c, 5, 71, 100
11, 38380, Note_on_c, 5, 71, 0
11, 38400, Note_on_c, 5, 76, 100
11, 38440, Note_on_c, 5, 76, 0
11, 38520, Note_on_c, 5, 59, 100
11, 38560, Note_on_c, 5, 59, 0
11, 38580, Note_on_c, 5, 64, 100
11, 38620, Note_on_c, 5, 64, 0
11, 38640, Note_on_c, 5, 64, 100
11, 38680, Note_on_c, 5, 64, 0
11, 38700, Note_on_c, 5, 64, 100
11, 38740, Note_on_c, 5, 64, 0
11, 38760, Note_on_c, 5, 64, 100
11, 38800, Note_on_c, 5, 64, 0
11, 38820, Note_on_c, 5, 66, 100
11, 38860, Note_on_c, 5, 66, 0
11, 38880, Note_on_c, 5, 66, 100
11, 38920, Note_on_c, 5, 66, 0
11, 38940, Note_on_c, 5, 64, 100
11, 38980, Note_on_c, 5, 64, 0
11, 39000, Note_on_c, 5, 64, 100
11, 39040, Note_on_c, 5, 64, 0
11, 39060, Note_on_c, 5, 64, 100
11, 39080, Note_on_c, 5, 64, 0
11, 39090, Note_on_c, 5, 61, 100
11, 39110, Note_on_c, 5, 61, 0
11, 39120, Note_on_c, 5, 61, 100
11, 39140, Note_on_c, 5, 61, 0
11, 39150, Note_on_c, 5, 57, 100
11, 39170, Note_on_c, 5, 57, 0
11, 39180, Note_on_c, 5, 57, 100
11, 39200, Note_on_c, 5, 57, 0
11, 39210, Note_on_c, 5, 57, 100
11, 39230, Note_on_c, 5, 57, 0
11, 39240, Note_on_c, 5, 57, 100
11, 39260, Note_on_c, 5, 57, 0
11, 39270, Note_on_c, 5, 66, 100
11, 39290, Note_on_c, 5, 66, 0
11, 39300, Note_on_c, 5, 66, 100
11, 39320, Note_on_c, 5, 66, 0
11, 39330, Note_on_c, 5, 62, 100
11, 39350, Note_on_c, 5, 62, 0
11, 39360, Note_on_c, 5, 62, 100
11, 39380, Note_on_c, 5, 62, 0
11, 39390, Note_on_c, 5, 59, 100
11, 39410, Note_on_c, 5, 59, 0
11, 39420, Note_on_c, 5, 59, 100
11, 39460, Note_on_c, 5, 59, 0
11, 39630, Note_on_c, 5, 73, 100
11, 39650, Note_on_c, 5, 73, 0
11, 39660, Note_on_c, 5, 73, 100
11, 39680, Note_on_c, 5, 73, 0
11, 39690, Note_on_c, 5, 70, 100
11, 39710, Note_on_c, 5, 70, 0
11, 39720, Note_on_c, 5, 70, 100
11, 39740, Note_on_c, 5, 70, 0
11, 39750, Note_on_c, 5, 66, 100
11, 39770, Note_on_c, 5, 66, 0
11, 39780, Note_on_c, 5, 66, 100
11, 39820, Note_on_c, 5, 66, 0
11, 41760, Note_on_c, 5, 66, 100
11, 41800, Note_on_c, 5, 66, 0
11, 41820, Note_on_c, 5, 71, 100
11, 41860, Note_on_c, 5, 71, 0
11, 41880, Note_on_c, 5, 74, 100
11, 41920, Note_on_c, 5, 74, 0
11, 41940, Note_on_c, 5, 78, 100
11, 41980, Note_on_c, 5, 78, 0
11, 42000, Note_on_c, 5, 76, 100
11, 42040, Note_on_c, 5, 76, 0
11, 42120, Note_on_c, 5, 68, 100
11, 42160, Note_on_c, 5, 68, 0
11, 42180, Note_on_c, 5, 73, 100
11, 42220, Note_on_c, 5, 73, 0
11, 42240, Note_on_c, 5, 77, 100
11, 42280, Note_on_c, 5, 77, 0
11, 42300, Note_on_c, 5, 80, 100
11, 42340, Note_on_c, 5, 80, 0
11, 42360, Note_on_c, 5, 78, 100
11, 42400, Note_on_c, 5, 78, 0
11, 42480, Note_on_c, 5, 61, 100
11, 42520, Note_on_c, 5, 61, 0
11, 42540, Note_on_c, 5, 66, 100
11, 42580, Note_on_c, 5, 66, 0
11, 42600, Note_on_c, 5, 70, 100
11, 42640, Note_on_c, 5, 70, 0
11, 42660, Note_on_c, 5, 73, 100
11, 42700, Note_on_c, 5, 73, 0
11, 42720, Note_on_c, 5, 66, 100
11, 42750, Note_on_c, 5, 66, 0
11, 42750, Note_on_c, 5, 62, 100
11, 42770, Note_on_c, 5, 62, 0
11, 42780, Note_on_c, 5, 62, 100
11, 42810, Note_on_c, 5, 62, 0
11, 42810, Note_on_c, 5, 61, 100
11, 42830, Note_on_c, 5, 61, 0
11, 42840, Note_on_c, 5, 62, 100
11, 42870, Note_on_c, 5, 62, 0
11, 42870, Note_on_c, 5, 64, 100
11, 42900, Note_on_c, 5, 64, 0
11, 42900, Note_on_c, 5, 61, 100
11, 42990, Note_on_c, 5, 61, 0
11, 42990, Note_on_c, 5, 62, 100
11, 43010, Note_on_c, 5, 62, 0
11, 43020, Note_on_c, 5, 62, 100
11, 43040, Note_on_c, 5, 62, 0
11, 43050, Note_on_c, 5, 62, 100
11, 43070, Note_on_c, 5, 62, 0
11, 43080, Note_on_c, 5, 62, 100
11, 43100, Note_on_c, 5, 62, 0
11, 43110, Note_on_c, 5, 59, 100
11, 43130, Note_on_c, 5, 59, 0
11, 43140, Note_on_c, 5, 59, 100
11, 43160, Note_on_c, 5, 59, 0
11, 43170, Note_on_c, 5, 59, 100
11, 43190, Note_on_c, 5, 59, 0
11, 43200, Note_on_c, 5, 59, 100
11, 43280, Note_on_c, 5, 59, 0
11, 45210, Note_on_c, 5, 64, 100
11, 45230, Note_on_c, 5, 64, 0
11, 45240, Note_on_c, 5, 64, 100
11, 45260, Note_on_c, 5, 64, 0
11, 45270, Note_on_c, 5, 61, 100
11, 45290, Note_on_c, 5, 61, 0
11, 45300, Note_on_c, 5, 61, 100
11, 45320, Note_on_c, 5, 61, 0
11, 45330, Note_on_c, 5, 57, 100
11, 45350, Note_on_c, 5, 57, 0
11, 45360, Note_on_c, 5, 57, 100
11, 45400, Note_on_c, 5, 57, 0
11, 45420, Note_on_c, 5, 62, 100
11, 45440, Note_on_c, 5, 62, 0
11, 45450, Note_on_c, 5, 64, 100
11, 45470, Note_on_c, 5, 64, 0
11, 45480, Note_on_c, 5, 66, 100
11, 45500, Note_on_c, 5, 66, 0
11, 45510, Note_on_c, 5, 67, 100
11, 45530, Note_on_c, 5, 67, 0
11, 45540, Note_on_c, 5, 69, 100
11, 45580, Note_on_c, 5, 69, 0
11, 45600, Note_on_c, 5, 67, 100
11, 45640, Note_on_c, 5, 67, 0
11, 45720, Note_on_c, 5, 59, 100
11, 45760, Note_on_c, 5, 59, 0
11, 45780, Note_on_c, 5, 64, 100
11, 45820, Note_on_c, 5, 64, 0
11, 45840, Note_on_c, 5, 68, 100
11, 45880, Note_on_c, 5, 68, 0
11, 45900, Note_on_c, 5, 71, 100
11, 45940, Note_on_c, 5, 71, 0
11, 45960, Note_on_c, 5, 69, 100
11, 46000, Note_on_c, 5, 69, 0
11, 46080, Note_on_c, 5, 69, 100
11, 46120, Note_on_c, 5, 69, 0
11, 46140, Note_on_c, 5, 69, 100
11, 46160, Note_on_c, 5, 69, 0
11, 46170, Note_on_c, 5, 71, 100
11, 46190, Note_on_c, 5, 71, 0
11, 46200, Note_on_c, 5, 73, 100
11, 46220, Note_on_c, 5, 73, 0
11, 46230, Note_on_c, 5, 74, 100
11, 46250, Note_on_c, 5, 74, 0
11, 46260, Note_on_c, 5, 73, 100
11, 46290, Note_on_c, 5, 73, 0
11, 46290, Note_on_c, 5, 79, 100
11, 46320, Note_on_c, 5, 79, 0
11, 46320, Note_on_c, 5, 78, 100
11, 46360, Note_on_c, 5, 78, 0
11, 46410, Note_on_c, 5, 67, 100
11, 46430, Note_on_c, 5, 67, 0
11, 46440, Note_on_c, 5, 69, 100
11, 46470, Note_on_c, 5, 69, 0
11, 46470, Note_on_c, 5, 71, 100
11, 46500, Note_on_c, 5, 71, 0
11, 46500, Note_on_c, 5, 69, 100
11, 46540, Note_on_c, 5, 69, 0
11, 46560, Note_on_c, 5, 67, 100
11, 46600, Note_on_c, 5, 67, 0
11, 46620, Note_on_c, 5, 66, 100
11, 46660, Note_on_c, 5, 66, 0
11, 47160, Note_on_c, 5, 57, 100
11, 47200, Note_on_c, 5, 57, 0
11, 47220, Note_on_c, 5, 62, 100
11, 47260, Note_on_c, 5, 62, 0
11, 47280, Note_on_c, 5, 66, 100
11, 47320, Note_on_c, 5, 66, 0
11, 47340, Note_on_c, 5, 67, 100
11, 47370, Note_on_c, 5, 67, 0
11, 47370, Note_on_c, 5, 64, 100
11, 47400, Note_on_c, 5, 64, 0
11, 47400, Note_on_c, 5, 66, 100
11, 47460, Note_on_c, 5, 66, 0
11, 47520, Note_on_c, 5, 67, 100
11, 47560, Note_on_c, 5, 67, 0
11, 47580, Note_on_c, 5, 66, 100
11, 47620, Note_on_c, 5, 66, 0
11, 47640, Note_on_c, 5, 71, 100
11, 47680, Note_on_c, 5, 71, 0
11, 47700, Note_on_c, 5, 64, 100
11, 47740, Note_on_c, 5, 64, 0
11, 47760, Note_on_c, 5, 69, 100
11, 47800, Note_on_c, 5, 69, 0
11, 47880, Note_on_c, 5, 57, 100
11, 47920, Note_on_c, 5, 57, 0
11, 47940, Note_on_c, 5, 62, 100
11, 47960, Note_on_c, 5, 62, 0
11, 47970, Note_on_c, 5, 64, 100
11, 47990, Note_on_c, 5, 64, 0
11, 48000, Note_on_c, 5, 66, 100
11, 48020, Note_on_c, 5, 66, 0
11, 48030, Note_on_c, 5, 67, 100
11, 48050, Note_on_c, 5, 67, 0
11, 48060, Note_on_c, 5, 69, 100
11, 48100, Note_on_c, 5, 69, 0
11, 48120, Note_on_c, 5, 67, 100
11, 48160, Note_on_c, 5, 67, 0
11, 48240, Note_on_c, 5, 59, 100
11, 48280, Note_on_c, 5, 59, 0
11, 48300, Note_on_c, 5, 64, 100
11, 48340, Note_on_c, 5, 64, 0
11, 48360, Note_on_c, 5, 68, 100
11, 48400, Note_on_c, 5, 68, 0
11, 48420, Note_on_c, 5, 71, 100
11, 48460, Note_on_c, 5, 71, 0
11, 48480, Note_on_c, 5, 69, 100
11, 48520, Note_on_c, 5, 69, 0
11, 48600, Note_on_c, 5, 64, 100
11, 48640, Note_on_c, 5, 64, 0
11, 48660, Note_on_c, 5, 67, 100
11, 48680, Note_on_c, 5, 67, 0
11, 48690, Note_on_c, 5, 71, 100
11, 48710, Note_on_c, 5, 71, 0
11, 48720, Note_on_c, 5, 73, 100
11, 48740, Note_on_c, 5, 73, 0
11, 48750, Note_on_c, 5, 74, 100
11, 48770, Note_on_c, 5, 74, 0
11, 48780, Note_on_c, 5, 76, 100
11, 48810, Note_on_c, 5, 76, 0
11, 48810, Note_on_c, 5, 73, 100
11, 48830, Note_on_c, 5, 73, 0
11, 48840, Note_on_c, 5, 69, 100
11, 48870, Note_on_c, 5, 69, 0
11, 48870, Note_on_c, 5, 66, 100
11, 48890, Note_on_c, 5, 66, 0
11, 48900, Note_on_c, 5, 67, 100
11, 48930, Note_on_c, 5, 67, 0
11, 48930, Note_on_c, 5, 64, 100
11, 48950, Note_on_c, 5, 64, 0
11, 48960, Note_on_c, 5, 66, 100
11, 48990, Note_on_c, 5, 66, 0
11, 48990, Note_on_c, 5, 67, 100
11, 49020, Note_on_c, 5, 67, 0
11, 49020, Note_on_c, 5, 64, 100
11, 49110, Note_on_c, 5, 64, 0
11, 49110, Note_on_c, 5, 66, 100
11, 49130, Note_on_c, 5, 66, 0
11, 49140, Note_on_c, 5, 66, 100
11, 49260, Note_on_c, 5, 66, 0
11, 61020, Control_c, 5, 0, 0
11, 61080, Note_on_c, 5, 69, 100
11, 61108, Note_on_c, 5, 69, 0
11, 61110, Note_on_c, 5, 71, 100
11, 61138, Note_on_c, 5, 71, 0
11, 61140, Note_on_c, 5, 73, 100
11, 61168, Note_on_c, 5, 73, 0
11, 61170, Note_on_c, 5, 78, 100
11, 61198, Note_on_c, 5, 78, 0
11, 61200, Note_on_c, 5, 77, 100
11, 61228, Note_on_c, 5, 77, 0
11, 61230, Note_on_c, 5, 78, 100
11, 61258, Note_on_c, 5, 78, 0
11, 61260, Note_on_c, 5, 74, 100
11, 61300, Note_on_c, 5, 74, 0
11, 61320, Note_on_c, 5, 71, 100
11, 61360, Note_on_c, 5, 71, 0
11, 61380, Note_on_c, 5, 73, 100
11, 61420, Note_on_c, 5, 73, 0
11, 61440, Note_on_c, 5, 68, 100
11, 61480, Note_on_c, 5, 68, 0
11, 61500, Note_on_c, 5, 69, 100
11, 61520, Note_on_c, 5, 69, 0
11, 61530, Note_on_c, 5, 71, 100
11, 61550, Note_on_c, 5, 71, 0
11, 61560, Note_on_c, 5, 73, 100
11, 61580, Note_on_c, 5, 73, 0
11, 61590, Note_on_c, 5, 71, 100
11, 61610, Note_on_c, 5, 71, 0
11, 61620, Note_on_c, 5, 69, 100
11, 61640, Note_on_c, 5, 69, 0
11, 61650, Note_on_c, 5, 73, 100
11, 61670, Note_on_c, 5, 73, 0
11, 61680, Note_on_c, 5, 71, 100
11, 61700, Note_on_c, 5, 71, 0
11, 61710, Note_on_c, 5, 69, 100
11, 61730, Note_on_c, 5, 69, 0
11, 61740, Note_on_c, 5, 68, 100
11, 61780, Note_on_c, 5, 68, 0
11, 61800, Note_on_c, 5, 73, 100
11, 61840, Note_on_c, 5, 73, 0
11, 62220, Note_on_c, 5, 73, 100
11, 62260, Note_on_c, 5, 73, 0
11, 62280, Note_on_c, 5, 73, 100
11, 62320, Note_on_c, 5, 73, 0
11, 62340, Note_on_c, 5, 73, 100
11, 62380, Note_on_c, 5, 73, 0
11, 62400, Note_on_c, 5, 73, 100
11, 62440, Note_on_c, 5, 73, 0
11, 62460, Note_on_c, 5, 73, 100
11, 62500, Note_on_c, 5, 73, 0
11, 62520, Note_on_c, 5, 71, 100
11, 62540, Note_on_c, 5, 71, 0
11, 62550, Note_on_c, 5, 69, 100
11, 62570, Note_on_c, 5, 69, 0
11, 62580, Note_on_c, 5, 68, 100
11, 62620, Note_on_c, 5, 68, 0
11, 62640, Note_on_c, 5, 66, 100
11, 62680, Note_on_c, 5, 66, 0
11, 62700, Note_on_c, 5, 65, 100
11, 62720, Note_on_c, 5, 65, 0
11, 62730, Note_on_c, 5, 63, 100
11, 62750, Note_on_c, 5, 63, 0
11, 62760, Note_on_c, 5, 65, 100
11, 62780, Note_on_c, 5, 65, 0
11, 62790, Note_on_c, 5, 66, 100
11, 62810, Note_on_c, 5, 66, 0
11, 62820, Note_on_c, 5, 68, 100
11, 62860, Note_on_c, 5, 68, 0
11, 62880, Note_on_c, 5, 65, 100
11, 62920, Note_on_c, 5, 65, 0
11, 62940, Note_on_c, 5, 73, 100
11, 62960, Note_on_c, 5, 73, 0
11, 62970, Note_on_c, 5, 74, 100
11, 62990, Note_on_c, 5, 74, 0
11, 63000, Note_on_c, 5, 73, 100
11, 63020, Note_on_c, 5, 73, 0
11, 63030, Note_on_c, 5, 71, 100
11, 63050, Note_on_c, 5, 71, 0
11, 63060, Note_on_c, 5, 69, 100
11, 63080, Note_on_c, 5, 69, 0
11, 63090, Note_on_c, 5, 73, 100
11, 63110, Note_on_c, 5, 73, 0
11, 63120, Note_on_c, 5, 71, 100
11, 63140, Note_on_c, 5, 71, 0
11, 63150, Note_on_c, 5, 69, 100
11, 63170, Note_on_c, 5, 69, 0
11, 63180, Note_on_c, 5, 68, 100
11, 63220, Note_on_c, 5, 68, 0
11, 63240, Note_on_c, 5, 69, 100
11, 63260, Note_on_c, 5, 69, 0
11, 63270, Note_on_c, 5, 71, 100
11, 63290, Note_on_c, 5, 71, 0
11, 63300, Note_on_c, 5, 73, 100
11, 63460, Note_on_c, 5, 73, 0
11, 63480, Note_on_c, 5, 74, 100
11, 63500, Note_on_c, 5, 74, 0
11, 63510, Note_on_c, 5, 73, 100
11, 63530, Note_on_c, 5, 73, 0
11, 63540, Note_on_c, 5, 71, 100
11, 63580, Note_on_c, 5, 71, 0
11, 63600, Note_on_c, 5, 69, 100
11, 63640, Note_on_c, 5, 69, 0
11, 63660, Note_on_c, 5, 76, 100
11, 63700, Note_on_c, 5, 76, 0
11, 64140, Note_on_c, 5, 74, 100
11, 64180, Note_on_c, 5, 74, 0
11, 64200, Note_on_c, 5, 74, 100
11, 64240, Note_on_c, 5, 74, 0
11, 64260, Note_on_c, 5, 74, 100
11, 64300, Note_on_c, 5, 74, 0
11, 64320, Note_on_c, 5, 74, 100
11, 64360, Note_on_c, 5, 74, 0
11, 64380, Note_on_c, 5, 74, 100
11, 64420, Note_on_c, 5, 74, 0
11, 64440, Note_on_c, 5, 73, 100
11, 64460, Note_on_c, 5, 73, 0
11, 64470, Note_on_c, 5, 71, 100
11, 64490, Note_on_c, 5, 71, 0
11, 64500, Note_on_c, 5, 69, 100
11, 64540, Note_on_c, 5, 69, 0
11, 64560, Note_on_c, 5, 68, 100
11, 64600, Note_on_c, 5, 68, 0
11, 64620, Note_on_c, 5, 66, 100
11, 64660, Note_on_c, 5, 66, 0
11, 64680, Note_on_c, 5, 67, 100
11, 64700, Note_on_c, 5, 67, 0
11, 64710, Note_on_c, 5, 69, 100
11, 64730, Note_on_c, 5, 69, 0
11, 64740, Note_on_c, 5, 71, 100
11, 64900, Note_on_c, 5, 71, 0
11, 64920, Note_on_c, 5, 73, 100
11, 64940, Note_on_c, 5, 73, 0
11, 64950, Note_on_c, 5, 71, 100
11, 64970, Note_on_c, 5, 71, 0
11, 64980, Note_on_c, 5, 69, 100
11, 65020, Note_on_c, 5, 69, 0
11, 65040, Note_on_c, 5, 68, 100
11, 65080, Note_on_c, 5, 68, 0
11, 65100, Note_on_c, 5, 66, 100
11, 65140, Note_on_c, 5, 66, 0
11, 65160, Note_on_c, 5, 69, 100
11, 65200, Note_on_c, 5, 69, 0
11, 65220, Note_on_c, 5, 76, 100
11, 65360, Note_on_c, 5, 76, 0
11, 65370, Note_on_c, 5, 74, 100
11, 65390, Note_on_c, 5, 74, 0
11, 65400, Note_on_c, 5, 73, 100
11, 65420, Note_on_c, 5, 73, 0
11, 65430, Note_on_c, 5, 74, 100
11, 65450, Note_on_c, 5, 74, 0
11, 65460, Note_on_c, 5, 76, 100
11, 65480, Note_on_c, 5, 76, 0
11, 65490, Note_on_c, 5, 74, 100
11, 65510, Note_on_c, 5, 74, 0
11, 65520, Note_on_c, 5, 76, 100
11, 65540, Note_on_c, 5, 76, 0
11, 65550, Note_on_c, 5, 78, 100
11, 65570, Note_on_c, 5, 78, 0
11, 65580, Note_on_c, 5, 71, 100
11, 65660, Note_on_c, 5, 71, 0
11, 65820, Note_on_c, 5, 76, 100
11, 65860, Note_on_c, 5, 76, 0
11, 65880, Note_on_c, 5, 76, 100
11, 65920, Note_on_c, 5, 76, 0
11, 65940, Note_on_c, 5, 76, 100
11, 65980, Note_on_c, 5, 76, 0
11, 66000, Note_on_c, 5, 76, 100
11, 66040, Note_on_c, 5, 76, 0
11, 66060, Note_on_c, 5, 76, 100
11, 66100, Note_on_c, 5, 76, 0
11, 66120, Note_on_c, 5, 74, 100
11, 66140, Note_on_c, 5, 74, 0
11, 66150, Note_on_c, 5, 73, 100
11, 66170, Note_on_c, 5, 73, 0
11, 66180, Note_on_c, 5, 71, 100
11, 66220, Note_on_c, 5, 71, 0
11, 66240, Note_on_c, 5, 69, 100
11, 66280, Note_on_c, 5, 69, 0
11, 66300, Note_on_c, 5, 68, 100
11, 66320, Note_on_c, 5, 68, 0
11, 66330, Note_on_c, 5, 69, 100
11, 66350, Note_on_c, 5, 69, 0
11, 66360, Note_on_c, 5, 71, 100
11, 66440, Note_on_c, 5, 71, 0
11, 66480, Note_on_c, 5, 64, 100
11, 66520, Note_on_c, 5, 64, 0
11, 66540, Note_on_c, 5, 66, 100
11, 66580, Note_on_c, 5, 66, 0
11, 66600, Note_on_c, 5, 68, 100
11, 66620, Note_on_c, 5, 68, 0
11, 66630, Note_on_c, 5, 70, 100
11, 66650, Note_on_c, 5, 70, 0
11, 66660, Note_on_c, 5, 71, 100
11, 66680, Note_on_c, 5, 71, 0
11, 66690, Note_on_c, 5, 70, 100
11, 66710, Note_on_c, 5, 70, 0
11, 66720, Note_on_c, 5, 71, 100
11, 66740, Note_on_c, 5, 71, 0
11, 66750, Note_on_c, 5, 73, 100
11, 66770, Note_on_c, 5, 73, 0
11, 66780, Note_on_c, 5, 74, 100
11, 66820, Note_on_c, 5, 74, 0
11, 66840, Note_on_c, 5, 78, 100
11, 66880, Note_on_c, 5, 78, 0
11, 67020, Note_on_c, 5, 73, 100
11, 67060, Note_on_c, 5, 73, 0
11, 67080, Note_on_c, 5, 73, 100
11, 67120, Note_on_c, 5, 73, 0
11, 67140, Note_on_c, 5, 73, 100
11, 67180, Note_on_c, 5, 73, 0
11, 67200, Note_on_c, 5, 73, 100
11, 67240, Note_on_c, 5, 73, 0
11, 67260, Note_on_c, 5, 73, 100
11, 67300, Note_on_c, 5, 73, 0
11, 67320, Note_on_c, 5, 71, 100
11, 67340, Note_on_c, 5, 71, 0
11, 67350, Note_on_c, 5, 69, 100
11, 67370, Note_on_c, 5, 69, 0
11, 67380, Note_on_c, 5, 68, 100
11, 67420, Note_on_c, 5, 68, 0
11, 67440, Note_on_c, 5, 66, 100
11, 67480, Note_on_c, 5, 66, 0
11, 67500, Note_on_c, 5, 65, 100
11, 67520, Note_on_c, 5, 65, 0
11, 67530, Note_on_c, 5, 63, 100
11, 67550, Note_on_c, 5, 63, 0
11, 67560, Note_on_c, 5, 61, 100
11, 67580, Note_on_c, 5, 61, 0
11, 67590, Note_on_c, 5, 63, 100
11, 67610, Note_on_c, 5, 63, 0
11, 67620, Note_on_c, 5, 65, 100
11, 67640, Note_on_c, 5, 65, 0
11, 67650, Note_on_c, 5, 63, 100
11, 67670, Note_on_c, 5, 63, 0
11, 67680, Note_on_c, 5, 65, 100
11, 67700, Note_on_c, 5, 65, 0
11, 67710, Note_on_c, 5, 66, 100
11, 67730, Note_on_c, 5, 66, 0
11, 67740, Note_on_c, 5, 68, 100
11, 67760, Note_on_c, 5, 68, 0
11, 67770, Note_on_c, 5, 66, 100
11, 67790, Note_on_c, 5, 66, 0
11, 67800, Note_on_c, 5, 65, 100
11, 67820, Note_on_c, 5, 65, 0
11, 67830, Note_on_c, 5, 66, 100
11, 67850, Note_on_c, 5, 66, 0
11, 67860, Note_on_c, 5, 68, 100
11, 67880, Note_on_c, 5, 68, 0
11, 67890, Note_on_c, 5, 66, 100
11, 67910, Note_on_c, 5, 66, 0
11, 67920, Note_on_c, 5, 68, 100
11, 67940, Note_on_c, 5, 68, 0
11, 67950, Note_on_c, 5, 69, 100
11, 67970, Note_on_c, 5, 69, 0
11, 67980, Note_on_c, 5, 71, 100
11, 68000, Note_on_c, 5, 71, 0
11, 68010, Note_on_c, 5, 73, 100
11, 68030, Note_on_c, 5, 73, 0
11, 68040, Note_on_c, 5, 74, 100
11, 68120, Note_on_c, 5, 74, 0
11, 68160, Note_on_c, 5, 73, 100
11, 68180, Note_on_c, 5, 73, 0
11, 68190, Note_on_c, 5, 71, 100
11, 68210, Note_on_c, 5, 71, 0
11, 68220, Note_on_c, 5, 69, 100
11, 68260, Note_on_c, 5, 69, 0
11, 68280, Note_on_c, 5, 74, 100
11, 68320, Note_on_c, 5, 74, 0
11, 68700, Note_on_c, 5, 73, 100
11, 68740, Note_on_c, 5, 73, 0
11, 68760, Note_on_c, 5, 73, 100
11, 68800, Note_on_c, 5, 73, 0
11, 68820, Note_on_c, 5, 73, 100
11, 68860, Note_on_c, 5, 73, 0
11, 68880, Note_on_c, 5, 73, 100
11, 68920, Note_on_c, 5, 73, 0
11, 68940, Note_on_c, 5, 73, 100
11, 68980, Note_on_c, 5, 73, 0
11, 69000, Note_on_c, 5, 71, 100
11, 69020, Note_on_c, 5, 71, 0
11, 69030, Note_on_c, 5, 69, 100
11, 69050, Note_on_c, 5, 69, 0
11, 69060, Note_on_c, 5, 67, 100
11, 69100, Note_on_c, 5, 67, 0
11, 69120, Note_on_c, 5, 66, 100
11, 69160, Note_on_c, 5, 66, 0
11, 69180, Note_on_c, 5, 64, 100
11, 69220, Note_on_c, 5, 64, 0
11, 69240, Note_on_c, 5, 66, 100
11, 69260, Note_on_c, 5, 66, 0
11, 69270, Note_on_c, 5, 67, 100
11, 69290, Note_on_c, 5, 67, 0
11, 69300, Note_on_c, 5, 69, 100
11, 69420, Note_on_c, 5, 69, 0
11, 69480, Note_on_c, 5, 62, 100
11, 69500, Note_on_c, 5, 62, 0
11, 69510, Note_on_c, 5, 64, 100
11, 69530, Note_on_c, 5, 64, 0
11, 69540, Note_on_c, 5, 66, 100
11, 69560, Note_on_c, 5, 66, 0
11, 69570, Note_on_c, 5, 62, 100
11, 69590, Note_on_c, 5, 62, 0
11, 69600, Note_on_c, 5, 64, 100
11, 69620, Note_on_c, 5, 64, 0
11, 69630, Note_on_c, 5, 66, 100
11, 69650, Note_on_c, 5, 66, 0
11, 69660, Note_on_c, 5, 59, 100
11, 69700, Note_on_c, 5, 59, 0
11, 69720, Note_on_c, 5, 64, 100
11, 69760, Note_on_c, 5, 64, 0
11, 70140, Note_on_c, 5, 72, 100
11, 70180, Note_on_c, 5, 72, 0
11, 70200, Note_on_c, 5, 72, 100
11, 70240, Note_on_c, 5, 72, 0
11, 70260, Note_on_c, 5, 72, 100
11, 70300, Note_on_c, 5, 72, 0
11, 70320, Note_on_c, 5, 72, 100
11, 70360, Note_on_c, 5, 72, 0
11, 70380, Note_on_c, 5, 73, 100
11, 70440, Note_on_c, 5, 73, 0
11, 70470, Note_on_c, 5, 75, 100
11, 70490, Note_on_c, 5, 75, 0
11, 70500, Note_on_c, 5, 72, 100
11, 70580, Note_on_c, 5, 72, 0
11, 70620, Note_on_c, 5, 73, 100
11, 70700, Note_on_c, 5, 73, 0
11, 70860, Note_on_c, 5, 68, 100
11, 70940, Note_on_c, 5, 68, 0
11, 71100, Note_on_c, 5, 65, 100
11, 71180, Note_on_c, 5, 65, 0
11, 71340, Note_on_c, 5, 65, 100
11, 71420, Note_on_c, 5, 65, 0
11, 71580, Note_on_c, 5, 68, 100
11, 71660, Note_on_c, 5, 68, 0
11, 71820, Note_on_c, 5, 71, 100
11, 71900, Note_on_c, 5, 71, 0
11, 72060, Note_on_c, 5, 77, 100
11, 72298, Note_on_c, 5, 77, 0
11, 72930, Note_on_c, 5, 65, 100
11, 72950, Note_on_c, 5, 65, 0
11, 72960, Note_on_c, 5, 66, 100
11, 72980, Note_on_c, 5, 66, 0
11, 72990, Note_on_c, 5, 68, 100
11, 73010, Note_on_c, 5, 68, 0
11, 73020, Note_on_c, 5, 69, 100
11, 73040, Note_on_c, 5, 69, 0
11, 73050, Note_on_c, 5, 71, 100
11, 73070, Note_on_c, 5, 71, 0
11, 73080, Note_on_c, 5, 73, 100
11, 73100, Note_on_c, 5, 73, 0
11, 73110, Note_on_c, 5, 71, 100
11, 73130, Note_on_c, 5, 71, 0
11, 73140, Note_on_c, 5, 69, 100
11, 73160, Note_on_c, 5, 69, 0
11, 73170, Note_on_c, 5, 73, 100
11, 73190, Note_on_c, 5, 73, 0
11, 73200, Note_on_c, 5, 71, 100
11, 73220, Note_on_c, 5, 71, 0
11, 73230, Note_on_c, 5, 69, 100
11, 73250, Note_on_c, 5, 69, 0
11, 73260, Note_on_c, 5, 68, 100
11, 73280, Note_on_c, 5, 68, 0
11, 73290, Note_on_c, 5, 69, 100
11, 73310, Note_on_c, 5, 69, 0
11, 73320, Note_on_c, 5, 68, 100
11, 73340, Note_on_c, 5, 68, 0
11, 73350, Note_on_c, 5, 66, 100
11, 73370, Note_on_c, 5, 66, 0
11, 73380, Note_on_c, 5, 65, 100
11, 73420, Note_on_c, 5, 65, 0
11, 73440, Note_on_c, 5, 61, 100
11, 73480, Note_on_c, 5, 61, 0
11, 73500, Note_on_c, 5, 61, 100
11, 73560, Note_on_c, 5, 61, 0
11, 73590, Note_on_c, 5, 62, 100
11, 73610, Note_on_c, 5, 62, 0
11, 73620, Note_on_c, 5, 61, 100
11, 73738, Note_on_c, 5, 61, 0
11, 73740, Note_on_c, 5, 61, 100
11, 73978, Note_on_c, 5, 61, 0
11, 91260, Control_c, 5, 0, 0
11, 91260, Note_on_c, 5, 67, 100
11, 91377, Note_on_c, 5, 67, 0
11, 91380, Note_on_c, 5, 66, 100
11, 91437, Note_on_c, 5, 66, 0
11, 91440, Note_on_c, 5, 69, 100
11, 91497, Note_on_c, 5, 69, 0
11, 91500, Note_on_c, 5, 67, 100
11, 91557, Note_on_c, 5, 67, 0
11, 91560, Note_on_c, 5, 66, 100
11, 91617, Note_on_c, 5, 66, 0
11, 91620, Note_on_c, 5, 66, 100
11, 91677, Note_on_c, 5, 66, 0
11, 91680, Note_on_c, 5, 67, 100
11, 91737, Note_on_c, 5, 67, 0
11, 91740, Note_on_c, 5, 69, 100
11, 91797, Note_on_c, 5, 69, 0
11, 91800, Note_on_c, 5, 69, 100
11, 92038, Note_on_c, 5, 69, 0
11, 92040, Note_on_c, 5, 67, 100
11, 92097, Note_on_c, 5, 67, 0
11, 92100, Note_on_c, 5, 66, 100
11, 92157, Note_on_c, 5, 66, 0
11, 92160, Note_on_c, 5, 69, 100
11, 92217, Note_on_c, 5, 69, 0
11, 92220, Note_on_c, 5, 67, 100
11, 92277, Note_on_c, 5, 67, 0
11, 92280, Note_on_c, 5, 66, 100
11, 92337, Note_on_c, 5, 66, 0
11, 92340, Note_on_c, 5, 64, 100
11, 92397, Note_on_c, 5, 64, 0
11, 92400, Note_on_c, 5, 66, 100
11, 92457, Note_on_c, 5, 66, 0
11, 92460, Note_on_c, 5, 68, 100
11, 92517, Note_on_c, 5, 68, 0
11, 92520, Note_on_c, 5, 68, 100
11, 92760, Note_on_c, 5, 68, 0
11, 92760, Note_on_c, 5, 69, 100
11, 92817, Note_on_c, 5, 69, 0
11, 92820, Note_on_c, 5, 71, 100
11, 92877, Note_on_c, 5, 71, 0
11, 92880, Note_on_c, 5, 69, 100
11, 92937, Note_on_c, 5, 69, 0
11, 92940, Note_on_c, 5, 66, 100
11, 92997, Note_on_c, 5, 66, 0
11, 93000, Note_on_c, 5, 64, 100
11, 93057, Note_on_c, 5, 64, 0
11, 93060, Note_on_c, 5, 63, 100
11, 93177, Note_on_c, 5, 63, 0
11, 93180, Note_on_c, 5, 66, 100
11, 93237, Note_on_c, 5, 66, 0
11, 93240, Note_on_c, 5, 69, 100
11, 93357, Note_on_c, 5, 69, 0
11, 93360, Note_on_c, 5, 72, 100
11, 93417, Note_on_c, 5, 72, 0
11, 93420, Note_on_c, 5, 71, 100
11, 93477, Note_on_c, 5, 71, 0
11, 93480, Note_on_c, 5, 69, 100
11, 93537, Note_on_c, 5, 69, 0
11, 93540, Note_on_c, 5, 67, 100
11, 93597, Note_on_c, 5, 67, 0
11, 93600, Note_on_c, 5, 66, 100
11, 93657, Note_on_c, 5, 66, 0
11, 93660, Note_on_c, 5, 64, 100
11, 93717, Note_on_c, 5, 64, 0
11, 93720, Note_on_c, 5, 63, 100
11, 93777, Note_on_c, 5, 63, 0
11, 93780, Note_on_c, 5, 64, 100
11, 93897, Note_on_c, 5, 64, 0
11, 96300, Note_on_c, 5, 66, 100
11, 96417, Note_on_c, 5, 66, 0
11, 96420, Note_on_c, 5, 66, 100
11, 96477, Note_on_c, 5, 66, 0
11, 96480, Note_on_c, 5, 69, 100
11, 96537, Note_on_c, 5, 69, 0
11, 96540, Note_on_c, 5, 67, 100
11, 96597, Note_on_c, 5, 67, 0
11, 96600, Note_on_c, 5, 66, 100
11, 96657, Note_on_c, 5, 66, 0
11, 96660, Note_on_c, 5, 66, 100
11, 96717, Note_on_c, 5, 66, 0
11, 96720, Note_on_c, 5, 67, 100
11, 96777, Note_on_c, 5, 67, 0
11, 96780, Note_on_c, 5, 69, 100
11, 96837, Note_on_c, 5, 69, 0
11, 96840, Note_on_c, 5, 69, 100
11, 97080, Note_on_c, 5, 69, 0
11, 97080, Note_on_c, 5, 67, 100
11, 97137, Note_on_c, 5, 67, 0
11, 97140, Note_on_c, 5, 66, 100
11, 97197, Note_on_c, 5, 66, 0
11, 97200, Note_on_c, 5, 69, 100
11, 97257, Note_on_c, 5, 69, 0
11, 97260, Note_on_c, 5, 67, 100
11, 97317, Note_on_c, 5, 67, 0
11, 97320, Note_on_c, 5, 66, 100
11, 97377, Note_on_c, 5, 66, 0
11, 97380, Note_on_c, 5, 64, 100
11, 97437, Note_on_c, 5, 64, 0
11, 97440, Note_on_c, 5, 66, 100
11, 97497, Note_on_c, 5, 66, 0
11, 97500, Note_on_c, 5, 68, 100
11, 97560, Note_on_c, 5, 68, 0
11, 97560, Note_on_c, 5, 68, 100
11, 97800, Note_on_c, 5, 68, 0
11, 97800, Note_on_c, 5, 66, 100
11, 97857, Note_on_c, 5, 66, 0
11, 97860, Note_on_c, 5, 65, 100
11, 97917, Note_on_c, 5, 65, 0
11, 97920, Note_on_c, 5, 65, 100
11, 98037, Note_on_c, 5, 65, 0
11, 98040, Note_on_c, 5, 64, 100
11, 98157, Note_on_c, 5, 64, 0
11, 98160, Note_on_c, 5, 62, 100
11, 98217, Note_on_c, 5, 62, 0
11, 98220, Note_on_c, 5, 61, 100
11, 98220, Note_on_c, 5, 64, 100
11, 98277, Note_on_c, 5, 64, 0
11, 98277, Note_on_c, 5, 61, 0
11, 98280, Note_on_c, 5, 70, 100
11, 98337, Note_on_c, 5, 70, 0
11, 98340, Note_on_c, 5, 71, 100
11, 98397, Note_on_c, 5, 71, 0
11, 98400, Note_on_c, 5, 73, 100
11, 98457, Note_on_c, 5, 73, 0
11, 98460, Note_on_c, 5, 62, 100
11, 98517, Note_on_c, 5, 62, 0
11, 98520, Note_on_c, 5, 67, 100
11, 98577, Note_on_c, 5, 67, 0
11, 98580, Note_on_c, 5, 66, 100
11, 98637, Note_on_c, 5, 66, 0
11, 98640, Note_on_c, 5, 64, 100
11, 98697, Note_on_c, 5, 64, 0
11, 98700, Note_on_c, 5, 62, 100
11, 98757, Note_on_c, 5, 62, 0
11, 98760, Note_on_c, 5, 61, 100
11, 98817, Note_on_c, 5, 61, 0
11, 98820, Note_on_c, 5, 59, 100
11, 98937, Note_on_c, 5, 59, 0
11, 99180, Note_on_c, 5, 76, 100
11, 99237, Note_on_c, 5, 76, 0
11, 99240, Note_on_c, 5, 74, 100
11, 99297, Note_on_c, 5, 74, 0
11, 99300, Note_on_c, 5, 73, 100
11, 99357, Note_on_c, 5, 73, 0
11, 99360, Note_on_c, 5, 67, 100
11, 99417, Note_on_c, 5, 67, 0
11, 99420, Note_on_c, 5, 66, 100
11, 99477, Note_on_c, 5, 66, 0
11, 99480, Note_on_c, 5, 64, 100
11, 99537, Note_on_c, 5, 64, 0
11, 99540, Note_on_c, 5, 64, 100
11, 99657, Note_on_c, 5, 64, 0
11, 99900, Note_on_c, 5, 75, 100
11, 99957, Note_on_c, 5, 75, 0
11, 99960, Note_on_c, 5, 73, 100
11, 100017, Note_on_c, 5, 73, 0
11, 100020, Note_on_c, 5, 71, 100
11, 100077, Note_on_c, 5, 71, 0
11, 100080, Note_on_c, 5, 66, 100
11, 100137, Note_on_c, 5, 66, 0
11, 100140, Note_on_c, 5, 64, 100
11, 100197, Note_on_c, 5, 64, 0
11, 100200, Note_on_c, 5, 63, 100
11, 100257, Note_on_c, 5, 63, 0
11, 100260, Note_on_c, 5, 63, 100
11, 100317, Note_on_c, 5, 63, 0
11, 100320, Note_on_c, 5, 67, 100
11, 100377, Note_on_c, 5, 67, 0
11, 100380, Note_on_c, 5, 66, 100
11, 100437, Note_on_c, 5, 66, 0
11, 100440, Note_on_c, 5, 64, 100
11, 100557, Note_on_c, 5, 64, 0
11, 100560, Note_on_c, 5, 59, 100
11, 100617, Note_on_c, 5, 59, 0
11, 100620, Note_on_c, 5, 61, 100
11, 100737, Note_on_c, 5, 61, 0
11, 100920, Note_on_c, 5, 66, 100
11, 100977, Note_on_c, 5, 66, 0
11, 100980, Note_on_c, 5, 66, 100
11, 101037, Note_on_c, 5, 66, 0
11, 101040, Note_on_c, 5, 70, 100
11, 101097, Note_on_c, 5, 70, 0
11, 101100, Note_on_c, 5, 71, 100
11, 101157, Note_on_c, 5, 71, 0
11, 101160, Note_on_c, 5, 66, 100
11, 101337, Note_on_c, 5, 66, 0
11, 101340, Note_on_c, 5, 66, 100
11, 101457, Note_on_c, 5, 66, 0
11, 102360, Note_on_c, 5, 64, 100
11, 102417, Note_on_c, 5, 64, 0
11, 102420, Note_on_c, 5, 63, 100
11, 102477, Note_on_c, 5, 63, 0
11, 102480, Note_on_c, 5, 64, 100
11, 102537, Note_on_c, 5, 64, 0
11, 102540, Note_on_c, 5, 66, 100
11, 102657, Note_on_c, 5, 66, 0
11, 102660, Note_on_c, 5, 64, 100
11, 102717, Note_on_c, 5, 64, 0
11, 102720, Note_on_c, 5, 63, 100
11, 102777, Note_on_c, 5, 63, 0
11, 102780, Note_on_c, 5, 64, 100
11, 102837, Note_on_c, 5, 64, 0
11, 102840, Note_on_c, 5, 66, 100
11, 102897, Note_on_c, 5, 66, 0
11, 102900, Note_on_c, 5, 67, 100
11, 102957, Note_on_c, 5, 67, 0
11, 103500, Note_on_c, 5, 74, 100
11, 103617, Note_on_c, 5, 74, 0
11, 103620, Note_on_c, 5, 69, 100
11, 103677, Note_on_c, 5, 69, 0
11, 103680, Note_on_c, 5, 76, 100
11, 103737, Note_on_c, 5, 76, 0
11, 103740, Note_on_c, 5, 74, 100
11, 103797, Note_on_c, 5, 74, 0
11, 103800, Note_on_c, 5, 73, 100
11, 103857, Note_on_c, 5, 73, 0
11, 103860, Note_on_c, 5, 73, 100
11, 103917, Note_on_c, 5, 73, 0
11, 103920, Note_on_c, 5, 74, 100
11, 103977, Note_on_c, 5, 74, 0
11, 103980, Note_on_c, 5, 76, 100
11, 104037, Note_on_c, 5, 76, 0
11, 104040, Note_on_c, 5, 76, 100
11, 104640, Note_on_c, 5, 76, 0
11, 104640, Note_on_c, 5, 74, 100
11, 104697, Note_on_c, 5, 74, 0
11, 104700, Note_on_c, 5, 72, 100
11, 104757, Note_on_c, 5, 72, 0
11, 104760, Note_on_c, 5, 72, 100
11, 104817, Note_on_c, 5, 72, 0
11, 104820, Note_on_c, 5, 70, 100
11, 104877, Note_on_c, 5, 70, 0
11, 104880, Note_on_c, 5, 69, 100
11, 104937, Note_on_c, 5, 69, 0
11, 104940, Note_on_c, 5, 68, 100
11, 105297, Note_on_c, 5, 68, 0
11, 105300, Note_on_c, 5, 69, 100
11, 105357, Note_on_c, 5, 69, 0
11, 105360, Note_on_c, 5, 68, 100
11, 105417, Note_on_c, 5, 68, 0
11, 105420, Note_on_c, 5, 69, 100
11, 105477, Note_on_c, 5, 69, 0
11, 105660, Note_on_c, 5, 74, 100
11, 105717, Note_on_c, 5, 74, 0
11, 105720, Note_on_c, 5, 72, 100
11, 105777, Note_on_c, 5, 72, 0
11, 105780, Note_on_c, 5, 71, 100
11, 105837, Note_on_c, 5, 71, 0
11, 105840, Note_on_c, 5, 71, 100
11, 105897, Note_on_c, 5, 71, 0
11, 105900, Note_on_c, 5, 69, 100
11, 105957, Note_on_c, 5, 69, 0
11, 105960, Note_on_c, 5, 68, 100
11, 106017, Note_on_c, 5, 68, 0
11, 106020, Note_on_c, 5, 68, 100
11, 106137, Note_on_c, 5, 68, 0
11, 106380, Note_on_c, 5, 73, 100
11, 106437, Note_on_c, 5, 73, 0
11, 106440, Note_on_c, 5, 71, 100
11, 106497, Note_on_c, 5, 71, 0
11, 106500, Note_on_c, 5, 69, 100
11, 106557, Note_on_c, 5, 69, 0
11, 106560, Note_on_c, 5, 64, 100
11, 106617, Note_on_c, 5, 64, 0
11, 106620, Note_on_c, 5, 62, 100
11, 106677, Note_on_c, 5, 62, 0
11, 106680, Note_on_c, 5, 61, 100
11, 106797, Note_on_c, 5, 61, 0
11, 106800, Note_on_c, 5, 65, 100
11, 106857, Note_on_c, 5, 65, 0
11, 106860, Note_on_c, 5, 64, 100
11, 106917, Note_on_c, 5, 64, 0
11, 106920, Note_on_c, 5, 62, 100
11, 107037, Note_on_c, 5, 62, 0
11, 107040, Note_on_c, 5, 57, 100
11, 107097, Note_on_c, 5, 57, 0
11, 107100, Note_on_c, 5, 59, 100
11, 107217, Note_on_c, 5, 59, 0
11, 107400, Note_on_c, 5, 64, 100
11, 107457, Note_on_c, 5, 64, 0
11, 107460, Note_on_c, 5, 64, 100
11, 107517, Note_on_c, 5, 64, 0
11, 107520, Note_on_c, 5, 68, 100
11, 107577, Note_on_c, 5, 68, 0
11, 107580, Note_on_c, 5, 69, 100
11, 107637, Note_on_c, 5, 69, 0
11, 107640, Note_on_c, 5, 64, 100
11, 107817, Note_on_c, 5, 64, 0
11, 107820, Note_on_c, 5, 64, 100
11, 107937, Note_on_c, 5, 64, 0
11, 108840, Note_on_c, 5, 71, 100
11, 108897, Note_on_c, 5, 71, 0
11, 108900, Note_on_c, 5, 70, 100
11, 108957, Note_on_c, 5, 70, 0
11, 108960, Note_on_c, 5, 71, 100
11, 109017, Note_on_c, 5, 71, 0
11, 109020, Note_on_c, 5, 73, 100
11, 109137, Note_on_c, 5, 73, 0
11, 109140, Note_on_c, 5, 71, 100
11, 109197, Note_on_c, 5, 71, 0
11, 109200, Note_on_c, 5, 70, 100
11, 109257, Note_on_c, 5, 70, 0
11, 109260, Note_on_c, 5, 71, 100
11, 109317, Note_on_c, 5, 71, 0
11, 109320, Note_on_c, 5, 73, 100
11, 109377, Note_on_c, 5, 73, 0
11, 109380, Note_on_c, 5, 75, 100
11, 109437, Note_on_c, 5, 75, 0
11, 109440, Note_on_c, 5, 75, 100
11, 109497, Note_on_c, 5, 75, 0
11, 109500, Note_on_c, 5, 76, 100
11, 109557, Note_on_c, 5, 76, 0
11, 109560, Note_on_c, 5, 78, 100
11, 109617, Note_on_c, 5, 78, 0
11, 109620, Note_on_c, 5, 78, 100
11, 109737, Note_on_c, 5, 78, 0
11, 109980, Note_on_c, 5, 67, 100
11, 110037, Note_on_c, 5, 67, 0
11, 110040, Note_on_c, 5, 66, 100
11, 110097, Note_on_c, 5, 66, 0
11, 110100, Note_on_c, 5, 64, 100
11, 110157, Note_on_c, 5, 64, 0
11, 110160, Note_on_c, 5, 69, 100
11, 110217, Note_on_c, 5, 69, 0
11, 110220, Note_on_c, 5, 67, 100
11, 110277, Note_on_c, 5, 67, 0
11, 110280, Note_on_c, 5, 66, 100
11, 110337, Note_on_c, 5, 66, 0
11, 110340, Note_on_c, 5, 66, 100
11, 110397, Note_on_c, 5, 66, 0
11, 110400, Note_on_c, 5, 67, 100
11, 110457, Note_on_c, 5, 67, 0
11, 110460, Note_on_c, 5, 69, 100
11, 110517, Note_on_c, 5, 69, 0
11, 110520, Note_on_c, 5, 69, 100
11, 110760, Note_on_c, 5, 69, 0
11, 110760, Note_on_c, 5, 67, 100
11, 110817, Note_on_c, 5, 67, 0
11, 110820, Note_on_c, 5, 66, 100
11, 110877, Note_on_c, 5, 66, 0
11, 110880, Note_on_c, 5, 69, 100
11, 110940, Note_on_c, 5, 69, 0
11, 110940, Note_on_c, 5, 67, 100
11, 110997, Note_on_c, 5, 67, 0
11, 111000, Note_on_c, 5, 66, 100
11, 111057, Note_on_c, 5, 66, 0
11, 111060, Note_on_c, 5, 64, 100
11, 111117, Note_on_c, 5, 64, 0
11, 111120, Note_on_c, 5, 66, 100
11, 111177, Note_on_c, 5, 66, 0
11, 111180, Note_on_c, 5, 68, 100
11, 111237, Note_on_c, 5, 68, 0
11, 111240, Note_on_c, 5, 68, 100
11, 111480, Note_on_c, 5, 68, 0
11, 111480, Note_on_c, 5, 69, 100
11, 111537, Note_on_c, 5, 69, 0
11, 111540, Note_on_c, 5, 62, 100
11, 111597, Note_on_c, 5, 62, 0
11, 111600, Note_on_c, 5, 67, 100
11, 111657, Note_on_c, 5, 67, 0
11, 111660, Note_on_c, 5, 66, 100
11, 111837, Note_on_c, 5, 66, 0
11, 111840, Note_on_c, 5, 64, 100
11, 111897, Note_on_c, 5, 64, 0
11, 111900, Note_on_c, 5, 63, 100
11, 111957, Note_on_c, 5, 63, 0
11, 111960, Note_on_c, 5, 71, 100
11, 112200, Note_on_c, 5, 71, 0
11, 112200, Note_on_c, 5, 69, 100
11, 112260, Note_on_c, 5, 69, 0
11, 112260, Note_on_c, 5, 67, 100
11, 112317, Note_on_c, 5, 67, 0
11, 112320, Note_on_c, 5, 66, 100
11, 112377, Note_on_c, 5, 66, 0
11, 112380, Note_on_c, 5, 64, 100
11, 112437, Note_on_c, 5, 64, 0
11, 112440, Note_on_c, 5, 63, 100
11, 112497, Note_on_c, 5, 63, 0
11, 112500, Note_on_c, 5, 67, 100
11, 112617, Note_on_c, 5, 67, 0
11, 113580, Note_on_c, 5, 67, 100
11, 113697, Note_on_c, 5, 67, 0
11, 113700, Note_on_c, 5, 66, 100
11, 113757, Note_on_c, 5, 66, 0
11, 113760, Note_on_c, 5, 69, 100
11, 113817, Note_on_c, 5, 69, 0
11, 113820, Note_on_c, 5, 67, 100
11, 113877, Note_on_c, 5, 67, 0
11, 113880, Note_on_c, 5, 66, 100
11, 113937, Note_on_c, 5, 66, 0
11, 113940, Note_on_c, 5, 66, 100
11, 113997, Note_on_c, 5, 66, 0
11, 114000, Note_on_c, 5, 67, 100
11, 114057, Note_on_c, 5, 67, 0
11, 114060, Note_on_c, 5, 69, 100
11, 114117, Note_on_c, 5, 69, 0
11, 114120, Note_on_c, 5, 69, 100
11, 114300, Note_on_c, 5, 69, 0
11, 114360, Note_on_c, 5, 67, 100
11, 114417, Note_on_c, 5, 67, 0
11, 114420, Note_on_c, 5, 66, 100
11, 114477, Note_on_c, 5, 66, 0
11, 114480, Note_on_c, 5, 69, 100
11, 114537, Note_on_c, 5, 69, 0
11, 114540, Note_on_c, 5, 67, 100
11, 114597, Note_on_c, 5, 67, 0
11, 114600, Note_on_c, 5, 66, 100
11, 114657, Note_on_c, 5, 66, 0
11, 114660, Note_on_c, 5, 64, 100
11, 114717, Note_on_c, 5, 64, 0
11, 114720, Note_on_c, 5, 66, 100
11, 114777, Note_on_c, 5, 66, 0
11, 114780, Note_on_c, 5, 68, 100
11, 114840, Note_on_c, 5, 68, 0
11, 114840, Note_on_c, 5, 68, 100
11, 115080, Note_on_c, 5, 68, 0
11, 115080, Note_on_c, 5, 69, 100
11, 115137, Note_on_c, 5, 69, 0
11, 115140, Note_on_c, 5, 71, 100
11, 115197, Note_on_c, 5, 71, 0
11, 115200, Note_on_c, 5, 69, 100
11, 115257, Note_on_c, 5, 69, 0
11, 115260, Note_on_c, 5, 66, 100
11, 115317, Note_on_c, 5, 66, 0
11, 115320, Note_on_c, 5, 64, 100
11, 115377, Note_on_c, 5, 64, 0
11, 115380, Note_on_c, 5, 63, 100
11, 115497, Note_on_c, 5, 63, 0
11, 115500, Note_on_c, 5, 66, 100
11, 115557, Note_on_c, 5, 66, 0
11, 115560, Note_on_c, 5, 69, 100
11, 115677, Note_on_c, 5, 69, 0
11, 115680, Note_on_c, 5, 72, 100
11, 115737, Note_on_c, 5, 72, 0
11, 115740, Note_on_c, 5, 71, 100
11, 115797, Note_on_c, 5, 71, 0
11, 115800, Note_on_c, 5, 69, 100
11, 115857, Note_on_c, 5, 69, 0
11, 115860, Note_on_c, 5, 67, 100
11, 115917, Note_on_c, 5, 67, 0
11, 115920, Note_on_c, 5, 66, 100
11, 115977, Note_on_c, 5, 66, 0
11, 115980, Note_on_c, 5, 64, 100
11, 116037, Note_on_c, 5, 64, 0
11, 116040, Note_on_c, 5, 63, 100
11, 116097, Note_on_c, 5, 63, 0
11, 116100, Note_on_c, 5, 64, 100
11, 116337, Note_on_c, 5, 64, 0
11, 117180, Control_c, 5, 0, 0
11, 117360, Note_on_c, 5, 71, 100
11, 117400, Note_on_c, 5, 71, 0
11, 117420, Note_on_c, 5, 67, 100
11, 117460, Note_on_c, 5, 67, 0
11, 117480, Note_on_c, 5, 71, 100
11, 117520, Note_on_c, 5, 71, 0
11, 117540, Note_on_c, 5, 62, 100
11, 117600, Note_on_c, 5, 62, 0
11, 117630, Note_on_c, 5, 62, 100
11, 117650, Note_on_c, 5, 62, 0
11, 117660, Note_on_c, 5, 60, 100
11, 117740, Note_on_c, 5, 60, 0
11, 117840, Note_on_c, 5, 67, 100
11, 117880, Note_on_c, 5, 67, 0
11, 117900, Note_on_c, 5, 67, 100
11, 117940, Note_on_c, 5, 67, 0
11, 117960, Note_on_c, 5, 71, 100
11, 118000, Note_on_c, 5, 71, 0
11, 118020, Note_on_c, 5, 62, 100
11, 118080, Note_on_c, 5, 62, 0
11, 118110, Note_on_c, 5, 62, 100
11, 118130, Note_on_c, 5, 62, 0
11, 118140, Note_on_c, 5, 60, 100
11, 118220, Note_on_c, 5, 60, 0
11, 119280, Note_on_c, 5, 78, 100
11, 119320, Note_on_c, 5, 78, 0
11, 119340, Note_on_c, 5, 74, 100
11, 119380, Note_on_c, 5, 74, 0
11, 119400, Note_on_c, 5, 78, 100
11, 119440, Note_on_c, 5, 78, 0
11, 119460, Note_on_c, 5, 69, 100
11, 119520, Note_on_c, 5, 69, 0
11, 119550, Note_on_c, 5, 69, 100
11, 119570, Note_on_c, 5, 69, 0
11, 119580, Note_on_c, 5, 67, 100
11, 119660, Note_on_c, 5, 67, 0
11, 119760, Note_on_c, 5, 74, 100
11, 119800, Note_on_c, 5, 74, 0
11, 119820, Note_on_c, 5, 74, 100
11, 119860, Note_on_c, 5, 74, 0
11, 119880, Note_on_c, 5, 78, 100
11, 119920, Note_on_c, 5, 78, 0
11, 119940, Note_on_c, 5, 69, 100
11, 120000, Note_on_c, 5, 69, 0
11, 120030, Note_on_c, 5, 69, 100
11, 120050, Note_on_c, 5, 69, 0
11, 120060, Note_on_c, 5, 67, 100
11, 120140, Note_on_c, 5, 67, 0
11, 121200, Note_on_c, 5, 71, 100
11, 121240, Note_on_c, 5, 71, 0
11, 121260, Note_on_c, 5, 67, 100
11, 121300, Note_on_c, 5, 67, 0
11, 121320, Note_on_c, 5, 71, 100
11, 121360, Note_on_c, 5, 71, 0
11, 121380, Note_on_c, 5, 62, 100
11, 121440, Note_on_c, 5, 62, 0
11, 121470, Note_on_c, 5, 62, 100
11, 121490, Note_on_c, 5, 62, 0
11, 121500, Note_on_c, 5, 60, 100
11, 121580, Note_on_c, 5, 60, 0
11, 121680, Note_on_c, 5, 67, 100
11, 121720, Note_on_c, 5, 67, 0
11, 121740, Note_on_c, 5, 67, 100
11, 121780, Note_on_c, 5, 67, 0
11, 121800, Note_on_c, 5, 71, 100
11, 121840, Note_on_c, 5, 71, 0
11, 121860, Note_on_c, 5, 62, 100
11, 121920, Note_on_c, 5, 62, 0
11, 121950, Note_on_c, 5, 62, 100
11, 121970, Note_on_c, 5, 62, 0
11, 121980, Note_on_c, 5, 60, 100
11, 122060, Note_on_c, 5, 60, 0
11, 123120, Note_on_c, 5, 78, 100
11, 123160, Note_on_c, 5, 78, 0
11, 123180, Note_on_c, 5, 74, 100
11, 123220, Note_on_c, 5, 74, 0
11, 123240, Note_on_c, 5, 78, 100
11, 123280, Note_on_c, 5, 78, 0
11, 123300, Note_on_c, 5, 69, 100
11, 123360, Note_on_c, 5, 69, 0
11, 123390, Note_on_c, 5, 69, 100
11, 123410, Note_on_c, 5, 69, 0
11, 123420, Note_on_c, 5, 67, 100
11, 123500, Note_on_c, 5, 67, 0
11, 123600, Note_on_c, 5, 74, 100
11, 123640, Note_on_c, 5, 74, 0
11, 123660, Note_on_c, 5, 74, 100
11, 123700, Note_on_c, 5, 74, 0
11, 123720, Note_on_c, 5, 78, 100
11, 123760, Note_on_c, 5, 78, 0
11, 123780, Note_on_c, 5, 69, 100
11, 123840, Note_on_c, 5, 69, 0
11, 123870, Note_on_c, 5, 69, 100
11, 123890, Note_on_c, 5, 69, 0
11, 123900, Note_on_c, 5, 67, 100
11, 123980, Note_on_c, 5, 67, 0
11, 125040, Note_on_c, 5, 73, 100
11, 125080, Note_on_c, 5, 73, 0
11, 125100, Note_on_c, 5, 69, 100
11, 125140, Note_on_c, 5, 69, 0
11, 125160, Note_on_c, 5, 73, 100
11, 125200, Note_on_c, 5, 73, 0
11, 125220, Note_on_c, 5, 64, 100
11, 125280, Note_on_c, 5, 64, 0
11, 125310, Note_on_c, 5, 64, 100
11, 125330, Note_on_c, 5, 64, 0
11, 125340, Note_on_c, 5, 62, 100
11, 125420, Note_on_c, 5, 62, 0
11, 125520, Note_on_c, 5, 69, 100
11, 125560, Note_on_c, 5, 69, 0
11, 125580, Note_on_c, 5, 69, 100
11, 125620, Note_on_c, 5, 69, 0
11, 125640, Note_on_c, 5, 73, 100
11, 125680, Note_on_c, 5, 73, 0
11, 125700, Note_on_c, 5, 64, 100
11, 125760, Note_on_c, 5, 64, 0
11, 125790, Note_on_c, 5, 64, 100
11, 125810, Note_on_c, 5, 64, 0
11, 125820, Note_on_c, 5, 62, 100
11, 125900, Note_on_c, 5, 62, 0
11, 126840, Note_on_c, 5, 74, 100
11, 126860, Note_on_c, 5, 74, 0
11, 126870, Note_on_c, 5, 73, 100
11, 126890, Note_on_c, 5, 73, 0
11, 126900, Note_on_c, 5, 74, 100
11, 126940, Note_on_c, 5, 74, 0
11, 126960, Note_on_c, 5, 69, 100
11, 127000, Note_on_c, 5, 69, 0
11, 127020, Note_on_c, 5, 69, 100
11, 127080, Note_on_c, 5, 69, 0
11, 127110, Note_on_c, 5, 69, 100
11, 127130, Note_on_c, 5, 69, 0
11, 127140, Note_on_c, 5, 69, 100
11, 127220, Note_on_c, 5, 69, 0
11, 127320, Note_on_c, 5, 71, 100
11, 127360, Note_on_c, 5, 71, 0
11, 127380, Note_on_c, 5, 67, 100
11, 127420, Note_on_c, 5, 67, 0
11, 127440, Note_on_c, 5, 62, 100
11, 127480, Note_on_c, 5, 62, 0
11, 127500, Note_on_c, 5, 74, 100
11, 127560, Note_on_c, 5, 74, 0
11, 127590, Note_on_c, 5, 74, 100
11, 127610, Note_on_c, 5, 74, 0
11, 127620, Note_on_c, 5, 74, 100
11, 127660, Note_on_c, 5, 74, 0
11, 127680, Note_on_c, 5, 74, 100
11, 127720, Note_on_c, 5, 74, 0
11, 127740, Note_on_c, 5, 67, 100
11, 127780, Note_on_c, 5, 67, 0
11, 127800, Note_on_c, 5, 62, 100
11, 127840, Note_on_c, 5, 62, 0
11, 127920, Note_on_c, 5, 66, 100
11, 127960, Note_on_c, 5, 66, 0
11, 127980, Note_on_c, 5, 67, 100
11, 128020, Note_on_c, 5, 67, 0
11, 128040, Note_on_c, 5, 71, 100
11, 128080, Note_on_c, 5, 71, 0
11, 128160, Note_on_c, 5, 64, 100
11, 128200, Note_on_c, 5, 64, 0
11, 128220, Note_on_c, 5, 66, 100
11, 128260, Note_on_c, 5, 66, 0
11, 128280, Note_on_c, 5, 69, 100
11, 128320, Note_on_c, 5, 69, 0
11, 128400, Note_on_c, 5, 71, 100
11, 128440, Note_on_c, 5, 71, 0
11, 128460, Note_on_c, 5, 69, 100
11, 128500, Note_on_c, 5, 69, 0
11, 128520, Note_on_c, 5, 66, 100
11, 128560, Note_on_c, 5, 66, 0
11, 128640, Note_on_c, 5, 68, 100
11, 128680, Note_on_c, 5, 68, 0
11, 128700, Note_on_c, 5, 73, 100
11, 128720, Note_on_c, 5, 73, 0
11, 128730, Note_on_c, 5, 74, 100
11, 128750, Note_on_c, 5, 74, 0
11, 128760, Note_on_c, 5, 76, 100
11, 128780, Note_on_c, 5, 76, 0
11, 128790, Note_on_c, 5, 73, 100
11, 128810, Note_on_c, 5, 73, 0
11, 128820, Note_on_c, 5, 69, 100
11, 128840, Note_on_c, 5, 69, 0
11, 128850, Note_on_c, 5, 71, 100
11, 128870, Note_on_c, 5, 71, 0
11, 128880, Note_on_c, 5, 72, 100
11, 128900, Note_on_c, 5, 72, 0
11, 128910, Note_on_c, 5, 69, 100
11, 128930, Note_on_c, 5, 69, 0
11, 128940, Note_on_c, 5, 71, 100
11, 128980, Note_on_c, 5, 71, 0
11, 129000, Note_on_c, 5, 68, 100
11, 129020, Note_on_c, 5, 68, 0
11, 129030, Note_on_c, 5, 71, 100
11, 129050, Note_on_c, 5, 71, 0
11, 129060, Note_on_c, 5, 73, 100
11, 129100, Note_on_c, 5, 73, 0
11, 129120, Note_on_c, 5, 70, 100
11, 129140, Note_on_c, 5, 70, 0
11, 129150, Note_on_c, 5, 73, 100
11, 129170, Note_on_c, 5, 73, 0
11, 129180, Note_on_c, 5, 66, 100
11, 129220, Note_on_c, 5, 66, 0
11, 129240, Note_on_c, 5, 66, 100
11, 129280, Note_on_c, 5, 66, 0
11, 129300, Note_on_c, 5, 64, 100
11, 129320, Note_on_c, 5, 64, 0
11, 129330, Note_on_c, 5, 66, 100
11, 129350, Note_on_c, 5, 66, 0
11, 129360, Note_on_c, 5, 67, 100
11, 129380, Note_on_c, 5, 67, 0
11, 129390, Note_on_c, 5, 64, 100
11, 129410, Note_on_c, 5, 64, 0
11, 129420, Note_on_c, 5, 69, 100
11, 129460, Note_on_c, 5, 69, 0
11, 129600, Note_on_c, 5, 78, 100
11, 129640, Note_on_c, 5, 78, 0
11, 129660, Note_on_c, 5, 76, 100
11, 129700, Note_on_c, 5, 76, 0
11, 129720, Note_on_c, 5, 71, 100
11, 129760, Note_on_c, 5, 71, 0
11, 130050, Note_on_c, 5, 61, 100
11, 130070, Note_on_c, 5, 61, 0
11, 130080, Note_on_c, 5, 64, 100
11, 130100, Note_on_c, 5, 64, 0
11, 130110, Note_on_c, 5, 69, 100
11, 130130, Note_on_c, 5, 69, 0
11, 130140, Note_on_c, 5, 73, 100
11, 130160, Note_on_c, 5, 73, 0
11, 130170, Note_on_c, 5, 69, 100
11, 130190, Note_on_c, 5, 69, 0
11, 130200, Note_on_c, 5, 64, 100
11, 130220, Note_on_c, 5, 64, 0
11, 130230, Note_on_c, 5, 69, 100
11, 130250, Note_on_c, 5, 69, 0
11, 130260, Note_on_c, 5, 73, 100
11, 130280, Note_on_c, 5, 73, 0
11, 130290, Note_on_c, 5, 69, 100
11, 130310, Note_on_c, 5, 69, 0
11, 130320, Note_on_c, 5, 66, 100
11, 130340, Note_on_c, 5, 66, 0
11, 130350, Note_on_c, 5, 69, 100
11, 130370, Note_on_c, 5, 69, 0
11, 130380, Note_on_c, 5, 71, 100
11, 130420, Note_on_c, 5, 71, 0
11, 130440, Note_on_c, 5, 71, 100
11, 130480, Note_on_c, 5, 71, 0
11, 130740, Note_on_c, 5, 70, 100
11, 130978, Note_on_c, 5, 70, 0
11, 130980, Note_on_c, 5, 66, 100
11, 131098, Note_on_c, 5, 66, 0
11, 131100, Note_on_c, 5, 74, 100
11, 131338, Note_on_c, 5, 74, 0
11, 131340, Note_on_c, 5, 71, 100
11, 131578, Note_on_c, 5, 71, 0
11, 131580, Note_on_c, 5, 71, 100
11, 131698, Note_on_c, 5, 71, 0
11, 131700, Note_on_c, 5, 73, 100
11, 131758, Note_on_c, 5, 73, 0
11, 131760, Note_on_c, 5, 74, 100
11, 131818, Note_on_c, 5, 74, 0
11, 131820, Note_on_c, 5, 76, 100
11, 132058, Note_on_c, 5, 76, 0
11, 132060, Note_on_c, 5, 74, 100
11, 132178, Note_on_c, 5, 74, 0
11, 132180, Note_on_c, 5, 74, 100
11, 132418, Note_on_c, 5, 74, 0
11, 132420, Note_on_c, 5, 76, 100
11, 132538, Note_on_c, 5, 76, 0
11, 132540, Note_on_c, 5, 76, 100
11, 132778, Note_on_c, 5, 76, 0
11, 132780, Note_on_c, 5, 78, 100
11, 132838, Note_on_c, 5, 78, 0
11, 132840, Note_on_c, 5, 76, 100
11, 132898, Note_on_c, 5, 76, 0
11, 132900, Note_on_c, 5, 74, 100
11, 132958, Note_on_c, 5, 74, 0
11, 132960, Note_on_c, 5, 76, 100
11, 133018, Note_on_c, 5, 76, 0
11, 133020, Note_on_c, 5, 76, 100
11, 133498, Note_on_c, 5, 76, 0
11, 133500, Note_on_c, 5, 78, 100
11, 133978, Note_on_c, 5, 78, 0
11, 219660, Control_c, 5, 0, 0
11, 219660, Note_on_c, 5, 69, 100
11, 219780, Note_on_c, 5, 69, 0
11, 219840, Note_on_c, 5, 69, 100
11, 219880, Note_on_c, 5, 69, 0
11, 219900, Note_on_c, 5, 69, 100
11, 220060, Note_on_c, 5, 69, 0
11, 221580, Note_on_c, 5, 66, 100
11, 221700, Note_on_c, 5, 66, 0
11, 221760, Note_on_c, 5, 66, 100
11, 221818, Note_on_c, 5, 66, 0
11, 221820, Note_on_c, 5, 66, 100
11, 222058, Note_on_c, 5, 66, 0
11, 222060, Note_on_c, 5, 68, 100
11, 222298, Note_on_c, 5, 68, 0
11, 222300, Note_on_c, 5, 68, 100
11, 222538, Note_on_c, 5, 68, 0
11, 223980, Note_on_c, 5, 73, 90
11, 224099, Note_on_c, 5, 73, 0
11, 224160, Note_on_c, 5, 73, 90
11, 224219, Note_on_c, 5, 73, 0
11, 224220, Note_on_c, 5, 73, 90
11, 224459, Note_on_c, 5, 73, 0
11, 224460, Note_on_c, 5, 66, 90
11, 224579, Note_on_c, 5, 66, 0
11, 224580, Note_on_c, 5, 71, 90
11, 224639, Note_on_c, 5, 71, 0
11, 224700, Note_on_c, 5, 71, 90
11, 224939, Note_on_c, 5, 71, 0
11, 226380, Note_on_c, 5, 78, 100
11, 226500, Note_on_c, 5, 78, 0
11, 226500, Note_on_c, 5, 78, 90
11, 226560, Note_on_c, 5, 78, 0
11, 226560, Note_on_c, 5, 78, 90
11, 226620, Note_on_c, 5, 78, 0
11, 226620, Note_on_c, 5, 78, 100
11, 226740, Note_on_c, 5, 78, 0
11, 226740, Note_on_c, 5, 78, 100
11, 226860, Note_on_c, 5, 78, 0
11, 226860, Note_on_c, 5, 74, 100
11, 227040, Note_on_c, 5, 74, 0
11, 227040, Note_on_c, 5, 74, 90
11, 227100, Note_on_c, 5, 74, 0
11, 227100, Note_on_c, 5, 79, 90
11, 227160, Note_on_c, 5, 79, 0
11, 227160, Note_on_c, 5, 76, 90
11, 227220, Note_on_c, 5, 76, 0
11, 227220, Note_on_c, 5, 79, 90
11, 227280, Note_on_c, 5, 79, 0
11, 227280, Note_on_c, 5, 83, 90
11, 227340, Note_on_c, 5, 83, 0
11, 227340, Note_on_c, 5, 81, 90
11, 227400, Note_on_c, 5, 81, 0
11, 227400, Note_on_c, 5, 79, 90
11, 227460, Note_on_c, 5, 79, 0
11, 227460, Note_on_c, 5, 78, 90
11, 227520, Note_on_c, 5, 78, 0
11, 227520, Note_on_c, 5, 76, 90
11, 227580, Note_on_c, 5, 76, 0
11, 227580, Note_on_c, 5, 74, 90
11, 227880, Note_on_c, 5, 74, 0
11, 227880, Note_on_c, 5, 76, 90
11, 227940, Note_on_c, 5, 76, 0
11, 227940, Note_on_c, 5, 78, 90
11, 228000, Note_on_c, 5, 78, 0
11, 228000, Note_on_c, 5, 69, 90
11, 228060, Note_on_c, 5, 69, 0
11, 228060, Note_on_c, 5, 71, 90
11, 228120, Note_on_c, 5, 71, 0
11, 228120, Note_on_c, 5, 73, 90
11, 228180, Note_on_c, 5, 73, 0
11, 228180, Note_on_c, 5, 74, 90
11, 228300, Note_on_c, 5, 74, 0
11, 228300, Note_on_c, 5, 73, 100
11, 228780, Note_on_c, 5, 73, 0
11, 228780, Note_on_c, 5, 78, 90
11, 228839, Note_on_c, 5, 78, 0
11, 228840, Note_on_c, 5, 74, 90
11, 228899, Note_on_c, 5, 74, 0
11, 229140, Note_on_c, 5, 74, 90
11, 229199, Note_on_c, 5, 74, 0
11, 229200, Note_on_c, 5, 69, 90
11, 229259, Note_on_c, 5, 69, 0
11, 229500, Note_on_c, 5, 69, 90
11, 229559, Note_on_c, 5, 69, 0
11, 229560, Note_on_c, 5, 66, 90
11, 229619, Note_on_c, 5, 66, 0
11, 230280, Note_on_c, 5, 66, 90
11, 230339, Note_on_c, 5, 66, 0
11, 230340, Note_on_c, 5, 69, 90
11, 230399, Note_on_c, 5, 69, 0
11, 230400, Note_on_c, 5, 74, 90
11, 230459, Note_on_c, 5, 74, 0
11, 230460, Note_on_c, 5, 74, 90
11, 230519, Note_on_c, 5, 74, 0
11, 230520, Note_on_c, 5, 69, 90
11, 230579, Note_on_c, 5, 69, 0
11, 230580, Note_on_c, 5, 66, 90
11, 230639, Note_on_c, 5, 66, 0
11, 230640, Note_on_c, 5, 69, 90
11, 230699, Note_on_c, 5, 69, 0
11, 230700, Note_on_c, 5, 74, 90
11, 230759, Note_on_c, 5, 74, 0
11, 230760, Note_on_c, 5, 78, 90
11, 230819, Note_on_c, 5, 78, 0
11, 230820, Note_on_c, 5, 78, 90
11, 230879, Note_on_c, 5, 78, 0
11, 230880, Note_on_c, 5, 74, 90
11, 230939, Note_on_c, 5, 74, 0
11, 230940, Note_on_c, 5, 69, 90
11, 230999, Note_on_c, 5, 69, 0
11, 231360, Note_on_c, 5, 74, 90
11, 231449, Note_on_c, 5, 74, 0
11, 231450, Note_on_c, 5, 76, 90
11, 231479, Note_on_c, 5, 76, 0
11, 231480, Note_on_c, 5, 78, 90
11, 231569, Note_on_c, 5, 78, 0
11, 231570, Note_on_c, 5, 76, 90
11, 231599, Note_on_c, 5, 76, 0
11, 231600, Note_on_c, 5, 74, 90
11, 231629, Note_on_c, 5, 74, 0
11, 231630, Note_on_c, 5, 73, 90
11, 231659, Note_on_c, 5, 73, 0
11, 231660, Note_on_c, 5, 74, 90
11, 231749, Note_on_c, 5, 74, 0
11, 231750, Note_on_c, 5, 69, 90
11, 231779, Note_on_c, 5, 69, 0
11, 231780, Note_on_c, 5, 69, 90
11, 231899, Note_on_c, 5, 69, 0
11, 233520, Note_on_c, 5, 61, 90
11, 233549, Note_on_c, 5, 61, 0
11, 233550, Note_on_c, 5, 62, 90
11, 233579, Note_on_c, 5, 62, 0
11, 233580, Note_on_c, 5, 64, 90
11, 233609, Note_on_c, 5, 64, 0
11, 233610, Note_on_c, 5, 66, 90
11, 233639, Note_on_c, 5, 66, 0
11, 233640, Note_on_c, 5, 67, 90
11, 233669, Note_on_c, 5, 67, 0
11, 233700, Note_on_c, 5, 67, 90
11, 233729, Note_on_c, 5, 67, 0
11, 233730, Note_on_c, 5, 66, 90
11, 233759, Note_on_c, 5, 66, 0
11, 233760, Note_on_c, 5, 64, 90
11, 233789, Note_on_c, 5, 64, 0
11, 233790, Note_on_c, 5, 62, 90
11, 233819, Note_on_c, 5, 62, 0
11, 233820, Note_on_c, 5, 64, 90
11, 234179, Note_on_c, 5, 64, 0
11, 234180, Note_on_c, 5, 69, 90
11, 234539, Note_on_c, 5, 69, 0
11, 234540, Note_on_c, 5, 78, 90
11, 234599, Note_on_c, 5, 78, 0
11, 234600, Note_on_c, 5, 74, 90
11, 234659, Note_on_c, 5, 74, 0
11, 234900, Note_on_c, 5, 74, 90
11, 234959, Note_on_c, 5, 74, 0
11, 234960, Note_on_c, 5, 69, 90
11, 235019, Note_on_c, 5, 69, 0
11, 235260, Note_on_c, 5, 69, 90
11, 235319, Note_on_c, 5, 69, 0
11, 235320, Note_on_c, 5, 66, 90
11, 235379, Note_on_c, 5, 66, 0
11, 235440, Note_on_c, 5, 69, 90
11, 235499, Note_on_c, 5, 69, 0
11, 235500, Note_on_c, 5, 74, 90
11, 235559, Note_on_c, 5, 74, 0
11, 235560, Note_on_c, 5, 78, 90
11, 235619, Note_on_c, 5, 78, 0
11, 235620, Note_on_c, 5, 78, 90
11, 235739, Note_on_c, 5, 78, 0
11, 235800, Note_on_c, 5, 69, 90
11, 235859, Note_on_c, 5, 69, 0
11, 235860, Note_on_c, 5, 74, 90
11, 235919, Note_on_c, 5, 74, 0
11, 235920, Note_on_c, 5, 78, 90
11, 235979, Note_on_c, 5, 78, 0
11, 235980, Note_on_c, 5, 78, 90
11, 236039, Note_on_c, 5, 78, 0
11, 236040, Note_on_c, 5, 66, 90
11, 236069, Note_on_c, 5, 66, 0
11, 236070, Note_on_c, 5, 67, 90
11, 236099, Note_on_c, 5, 67, 0
11, 236100, Note_on_c, 5, 69, 90
11, 236159, Note_on_c, 5, 69, 0
11, 236160, Note_on_c, 5, 74, 90
11, 236219, Note_on_c, 5, 74, 0
11, 236220, Note_on_c, 5, 74, 90
11, 236250, Note_on_c, 5, 74, 0
11, 236250, Note_on_c, 5, 76, 90
11, 236280, Note_on_c, 5, 76, 0
11, 236280, Note_on_c, 5, 74, 90
11, 236310, Note_on_c, 5, 74, 0
11, 236310, Note_on_c, 5, 73, 90
11, 236340, Note_on_c, 5, 73, 0
11, 236340, Note_on_c, 5, 74, 90
11, 236370, Note_on_c, 5, 74, 0
11, 236370, Note_on_c, 5, 73, 90
11, 236400, Note_on_c, 5, 73, 0
11, 236400, Note_on_c, 5, 74, 90
11, 236430, Note_on_c, 5, 74, 0
11, 236430, Note_on_c, 5, 76, 90
11, 236460, Note_on_c, 5, 76, 0
11, 236460, Note_on_c, 5, 78, 90
11, 236519, Note_on_c, 5, 78, 0
11, 236520, Note_on_c, 5, 74, 90
11, 236579, Note_on_c, 5, 74, 0
11, 236580, Note_on_c, 5, 74, 90
11, 236639, Note_on_c, 5, 74, 0
11, 236640, Note_on_c, 5, 73, 90
11, 236699, Note_on_c, 5, 73, 0
11, 236700, Note_on_c, 5, 69, 90
11, 236820, Note_on_c, 5, 69, 0
11, 236820, End_track
12, 0, Start_track
12, 0, MIDI_port, 0
12, 0, Title_t, "viola"
12, 0, Program_c, 6, 48
12, 0, Control_c, 6, 7, 127
12, 0, Control_c, 6, 10, 30
12, 0, Note_on_c, 6, 74, 100
12, 40, Note_on_c, 6, 74, 0
12, 60, Note_on_c, 6, 69, 100
12, 100, Note_on_c, 6, 69, 0
12, 360, Note_on_c, 6, 69, 100
12, 400, Note_on_c, 6, 69, 0
12, 420, Note_on_c, 6, 66, 100
12, 460, Note_on_c, 6, 66, 0
12, 720, Note_on_c, 6, 66, 100
12, 760, Note_on_c, 6, 66, 0
12, 780, Note_on_c, 6, 62, 100
12, 820, Note_on_c, 6, 62, 0
12, 900, Note_on_c, 6, 62, 100
12, 940, Note_on_c, 6, 62, 0
12, 960, Note_on_c, 6, 69, 100
12, 1000, Note_on_c, 6, 69, 0
12, 1020, Note_on_c, 6, 69, 100
12, 1060, Note_on_c, 6, 69, 0
12, 1080, Note_on_c, 6, 69, 100
12, 1120, Note_on_c, 6, 69, 0
12, 1140, Note_on_c, 6, 57, 100
12, 1180, Note_on_c, 6, 57, 0
12, 1260, Note_on_c, 6, 69, 100
12, 1300, Note_on_c, 6, 69, 0
12, 1320, Note_on_c, 6, 64, 100
12, 1360, Note_on_c, 6, 64, 0
12, 1380, Note_on_c, 6, 61, 100
12, 1420, Note_on_c, 6, 61, 0
12, 1440, Note_on_c, 6, 57, 100
12, 1480, Note_on_c, 6, 57, 0
12, 1500, Note_on_c, 6, 62, 100
12, 1540, Note_on_c, 6, 62, 0
12, 1560, Note_on_c, 6, 66, 100
12, 1580, Note_on_c, 6, 66, 0
12, 1590, Note_on_c, 6, 67, 100
12, 1610, Note_on_c, 6, 67, 0
12, 1620, Note_on_c, 6, 66, 100
12, 1640, Note_on_c, 6, 66, 0
12, 1650, Note_on_c, 6, 64, 100
12, 1670, Note_on_c, 6, 64, 0
12, 1680, Note_on_c, 6, 62, 100
12, 1700, Note_on_c, 6, 62, 0
12, 1710, Note_on_c, 6, 64, 100
12, 1730, Note_on_c, 6, 64, 0
12, 1740, Note_on_c, 6, 66, 100
12, 1780, Note_on_c, 6, 66, 0
12, 1800, Note_on_c, 6, 68, 100
12, 1840, Note_on_c, 6, 68, 0
12, 1860, Note_on_c, 6, 71, 100
12, 1900, Note_on_c, 6, 71, 0
12, 1920, Note_on_c, 6, 64, 100
12, 1940, Note_on_c, 6, 64, 0
12, 1950, Note_on_c, 6, 66, 100
12, 1970, Note_on_c, 6, 66, 0
12, 1980, Note_on_c, 6, 64, 100
12, 2000, Note_on_c, 6, 64, 0
12, 2010, Note_on_c, 6, 62, 100
12, 2030, Note_on_c, 6, 62, 0
12, 2040, Note_on_c, 6, 61, 100
12, 2060, Note_on_c, 6, 61, 0
12, 2070, Note_on_c, 6, 62, 100
12, 2090, Note_on_c, 6, 62, 0
12, 2100, Note_on_c, 6, 64, 100
12, 2140, Note_on_c, 6, 64, 0
12, 2160, Note_on_c, 6, 66, 100
12, 2200, Note_on_c, 6, 66, 0
12, 2220, Note_on_c, 6, 69, 100
12, 2260, Note_on_c, 6, 69, 0
12, 2280, Note_on_c, 6, 66, 100
12, 2320, Note_on_c, 6, 66, 0
12, 2340, Note_on_c, 6, 62, 100
12, 2380, Note_on_c, 6, 62, 0
12, 2400, Note_on_c, 6, 66, 100
12, 2440, Note_on_c, 6, 66, 0
12, 2460, Note_on_c, 6, 69, 100
12, 2500, Note_on_c, 6, 69, 0
12, 2520, Note_on_c, 6, 71, 100
12, 2600, Note_on_c, 6, 71, 0
12, 2700, Note_on_c, 6, 59, 100
12, 2740, Note_on_c, 6, 59, 0
12, 2760, Note_on_c, 6, 62, 100
12, 2800, Note_on_c, 6, 62, 0
12, 2820, Note_on_c, 6, 59, 100
12, 2860, Note_on_c, 6, 59, 0
12, 2880, Note_on_c, 6, 64, 100
12, 2960, Note_on_c, 6, 64, 0
12, 3060, Note_on_c, 6, 71, 100
12, 3100, Note_on_c, 6, 71, 0
12, 3120, Note_on_c, 6, 68, 100
12, 3160, Note_on_c, 6, 68, 0
12, 3180, Note_on_c, 6, 64, 100
12, 3220, Note_on_c, 6, 64, 0
12, 3240, Note_on_c, 6, 64, 100
12, 3320, Note_on_c, 6, 64, 0
12, 3420, Note_on_c, 6, 64, 100
12, 3460, Note_on_c, 6, 64, 0
12, 3480, Note_on_c, 6, 61, 100
12, 3520, Note_on_c, 6, 61, 0
12, 3540, Note_on_c, 6, 57, 100
12, 3580, Note_on_c, 6, 57, 0
12, 3600, Note_on_c, 6, 57, 100
12, 3680, Note_on_c, 6, 57, 0
12, 4020, Note_on_c, 6, 64, 100
12, 4060, Note_on_c, 6, 64, 0
12, 4080, Note_on_c, 6, 64, 100
12, 4120, Note_on_c, 6, 64, 0
12, 4140, Note_on_c, 6, 66, 100
12, 4180, Note_on_c, 6, 66, 0
12, 4200, Note_on_c, 6, 59, 100
12, 4240, Note_on_c, 6, 59, 0
12, 4260, Note_on_c, 6, 64, 100
12, 4300, Note_on_c, 6, 64, 0
12, 4320, Note_on_c, 6, 64, 100
12, 4360, Note_on_c, 6, 64, 0
12, 4380, Note_on_c, 6, 52, 100
12, 4420, Note_on_c, 6, 52, 0
12, 4440, Note_on_c, 6, 57, 100
12, 4480, Note_on_c, 6, 57, 0
12, 4500, Note_on_c, 6, 61, 100
12, 4540, Note_on_c, 6, 61, 0
12, 4560, Note_on_c, 6, 61, 100
12, 4600, Note_on_c, 6, 61, 0
12, 4620, Note_on_c, 6, 57, 100
12, 4660, Note_on_c, 6, 57, 0
12, 4680, Note_on_c, 6, 52, 100
12, 4720, Note_on_c, 6, 52, 0
12, 4740, Note_on_c, 6, 57, 100
12, 4780, Note_on_c, 6, 57, 0
12, 4800, Note_on_c, 6, 61, 100
12, 4840, Note_on_c, 6, 61, 0
12, 4860, Note_on_c, 6, 64, 100
12, 4900, Note_on_c, 6, 64, 0
12, 4920, Note_on_c, 6, 64, 100
12, 4960, Note_on_c, 6, 64, 0
12, 4980, Note_on_c, 6, 61, 100
12, 5020, Note_on_c, 6, 61, 0
12, 5040, Note_on_c, 6, 57, 100
12, 5080, Note_on_c, 6, 57, 0
12, 5100, Note_on_c, 6, 61, 100
12, 5140, Note_on_c, 6, 61, 0
12, 5160, Note_on_c, 6, 64, 100
12, 5200, Note_on_c, 6, 64, 0
12, 5220, Note_on_c, 6, 69, 100
12, 5260, Note_on_c, 6, 69, 0
12, 5280, Note_on_c, 6, 64, 100
12, 5320, Note_on_c, 6, 64, 0
12, 5340, Note_on_c, 6, 64, 100
12, 5380, Note_on_c, 6, 64, 0
12, 5400, Note_on_c, 6, 64, 100
12, 5440, Note_on_c, 6, 64, 0
12, 5460, Note_on_c, 6, 61, 100
12, 5500, Note_on_c, 6, 61, 0
12, 5520, Note_on_c, 6, 64, 100
12, 5560, Note_on_c, 6, 64, 0
12, 5580, Note_on_c, 6, 69, 100
12, 5620, Note_on_c, 6, 69, 0
12, 5640, Note_on_c, 6, 64, 100
12, 5680, Note_on_c, 6, 64, 0
12, 5700, Note_on_c, 6, 64, 100
12, 5740, Note_on_c, 6, 64, 0
12, 5760, Note_on_c, 6, 64, 100
12, 5800, Note_on_c, 6, 64, 0
12, 5820, Note_on_c, 6, 61, 100
12, 5860, Note_on_c, 6, 61, 0
12, 5880, Note_on_c, 6, 64, 100
12, 5920, Note_on_c, 6, 64, 0
12, 5940, Note_on_c, 6, 69, 100
12, 5980, Note_on_c, 6, 69, 0
12, 6000, Note_on_c, 6, 69, 100
12, 6040, Note_on_c, 6, 69, 0
12, 6060, Note_on_c, 6, 73, 100
12, 6100, Note_on_c, 6, 73, 0
12, 6120, Note_on_c, 6, 74, 100
12, 6160, Note_on_c, 6, 74, 0
12, 6180, Note_on_c, 6, 69, 100
12, 6220, Note_on_c, 6, 69, 0
12, 6300, Note_on_c, 6, 57, 100
12, 6340, Note_on_c, 6, 57, 0
12, 6360, Note_on_c, 6, 62, 100
12, 6400, Note_on_c, 6, 62, 0
12, 6420, Note_on_c, 6, 66, 100
12, 6460, Note_on_c, 6, 66, 0
12, 6480, Note_on_c, 6, 59, 100
12, 6520, Note_on_c, 6, 59, 0
12, 6540, Note_on_c, 6, 62, 100
12, 6580, Note_on_c, 6, 62, 0
12, 6600, Note_on_c, 6, 67, 100
12, 6640, Note_on_c, 6, 67, 0
12, 6660, Note_on_c, 6, 71, 100
12, 6700, Note_on_c, 6, 71, 0
12, 6720, Note_on_c, 6, 71, 100
12, 6760, Note_on_c, 6, 71, 0
12, 6780, Note_on_c, 6, 59, 100
12, 6820, Note_on_c, 6, 59, 0
12, 6840, Note_on_c, 6, 64, 100
12, 6880, Note_on_c, 6, 64, 0
12, 6900, Note_on_c, 6, 61, 100
12, 6940, Note_on_c, 6, 61, 0
12, 6960, Note_on_c, 6, 66, 100
12, 7000, Note_on_c, 6, 66, 0
12, 7020, Note_on_c, 6, 69, 100
12, 7060, Note_on_c, 6, 69, 0
12, 7080, Note_on_c, 6, 69, 100
12, 7120, Note_on_c, 6, 69, 0
12, 7140, Note_on_c, 6, 66, 100
12, 7180, Note_on_c, 6, 66, 0
12, 7200, Note_on_c, 6, 71, 100
12, 7240, Note_on_c, 6, 71, 0
12, 7260, Note_on_c, 6, 59, 100
12, 7300, Note_on_c, 6, 59, 0
12, 7320, Note_on_c, 6, 64, 100
12, 7360, Note_on_c, 6, 64, 0
12, 7380, Note_on_c, 6, 71, 100
12, 7420, Note_on_c, 6, 71, 0
12, 7440, Note_on_c, 6, 71, 100
12, 7480, Note_on_c, 6, 71, 0
12, 7500, Note_on_c, 6, 64, 100
12, 7540, Note_on_c, 6, 64, 0
12, 7560, Note_on_c, 6, 73, 100
12, 7600, Note_on_c, 6, 73, 0
12, 7620, Note_on_c, 6, 64, 100
12, 7660, Note_on_c, 6, 64, 0
12, 7680, Note_on_c, 6, 69, 100
12, 7720, Note_on_c, 6, 69, 0
12, 7740, Note_on_c, 6, 73, 100
12, 7780, Note_on_c, 6, 73, 0
12, 7800, Note_on_c, 6, 73, 100
12, 7840, Note_on_c, 6, 73, 0
12, 7860, Note_on_c, 6, 69, 100
12, 7900, Note_on_c, 6, 69, 0
12, 7920, Note_on_c, 6, 74, 100
12, 8000, Note_on_c, 6, 74, 0
12, 8100, Note_on_c, 6, 62, 100
12, 8140, Note_on_c, 6, 62, 0
12, 8160, Note_on_c, 6, 66, 100
12, 8200, Note_on_c, 6, 66, 0
12, 8220, Note_on_c, 6, 69, 100
12, 8260, Note_on_c, 6, 69, 0
12, 8280, Note_on_c, 6, 69, 100
12, 8360, Note_on_c, 6, 69, 0
12, 8460, Note_on_c, 6, 66, 100
12, 8500, Note_on_c, 6, 66, 0
12, 8520, Note_on_c, 6, 66, 100
12, 8560, Note_on_c, 6, 66, 0
12, 8580, Note_on_c, 6, 69, 100
12, 8620, Note_on_c, 6, 69, 0
12, 8640, Note_on_c, 6, 74, 100
12, 8680, Note_on_c, 6, 74, 0
12, 8700, Note_on_c, 6, 69, 100
12, 8740, Note_on_c, 6, 69, 0
12, 9000, Note_on_c, 6, 69, 100
12, 9040, Note_on_c, 6, 69, 0
12, 9060, Note_on_c, 6, 66, 100
12, 9100, Note_on_c, 6, 66, 0
12, 9420, Note_on_c, 6, 66, 100
12, 9460, Note_on_c, 6, 66, 0
12, 9480, Note_on_c, 6, 69, 100
12, 9520, Note_on_c, 6, 69, 0
12, 9540, Note_on_c, 6, 74, 100
12, 9580, Note_on_c, 6, 74, 0
12, 9600, Note_on_c, 6, 74, 100
12, 9640, Note_on_c, 6, 74, 0
12, 9660, Note_on_c, 6, 69, 100
12, 9700, Note_on_c, 6, 69, 0
12, 9720, Note_on_c, 6, 62, 100
12, 9740, Note_on_c, 6, 62, 0
12, 9750, Note_on_c, 6, 64, 100
12, 9770, Note_on_c, 6, 64, 0
12, 9780, Note_on_c, 6, 66, 100
12, 9800, Note_on_c, 6, 66, 0
12, 9810, Note_on_c, 6, 67, 100
12, 9830, Note_on_c, 6, 67, 0
12, 9840, Note_on_c, 6, 69, 100
12, 9880, Note_on_c, 6, 69, 0
12, 9900, Note_on_c, 6, 62, 100
12, 9940, Note_on_c, 6, 62, 0
12, 9960, Note_on_c, 6, 57, 100
12, 10000, Note_on_c, 6, 57, 0
12, 10020, Note_on_c, 6, 69, 100
12, 10060, Note_on_c, 6, 69, 0
12, 10080, Note_on_c, 6, 66, 100
12, 10100, Note_on_c, 6, 66, 0
12, 10110, Note_on_c, 6, 67, 100
12, 10130, Note_on_c, 6, 67, 0
12, 10140, Note_on_c, 6, 66, 100
12, 10160, Note_on_c, 6, 66, 0
12, 10170, Note_on_c, 6, 64, 100
12, 10190, Note_on_c, 6, 64, 0
12, 10200, Note_on_c, 6, 62, 100
12, 10220, Note_on_c, 6, 62, 0
12, 10230, Note_on_c, 6, 64, 100
12, 10250, Note_on_c, 6, 64, 0
12, 10260, Note_on_c, 6, 66, 100
12, 10280, Note_on_c, 6, 66, 0
12, 10290, Note_on_c, 6, 67, 100
12, 10310, Note_on_c, 6, 67, 0
12, 10320, Note_on_c, 6, 69, 100
12, 10360, Note_on_c, 6, 69, 0
12, 10380, Note_on_c, 6, 69, 100
12, 10420, Note_on_c, 6, 69, 0
12, 10440, Note_on_c, 6, 69, 100
12, 10480, Note_on_c, 6, 69, 0
12, 10500, Note_on_c, 6, 66, 100
12, 10540, Note_on_c, 6, 66, 0
12, 10560, Note_on_c, 6, 62, 100
12, 10600, Note_on_c, 6, 62, 0
12, 10620, Note_on_c, 6, 62, 100
12, 10660, Note_on_c, 6, 62, 0
12, 10680, Note_on_c, 6, 69, 100
12, 10720, Note_on_c, 6, 69, 0
12, 10740, Note_on_c, 6, 67, 100
12, 10780, Note_on_c, 6, 67, 0
12, 10800, Note_on_c, 6, 66, 100
12, 10880, Note_on_c, 6, 66, 0
12, 11520, Note_on_c, 6, 74, 100
12, 11560, Note_on_c, 6, 74, 0
12, 11580, Note_on_c, 6, 69, 100
12, 11620, Note_on_c, 6, 69, 0
12, 11880, Note_on_c, 6, 69, 100
12, 11920, Note_on_c, 6, 69, 0
12, 11940, Note_on_c, 6, 66, 100
12, 11980, Note_on_c, 6, 66, 0
12, 12240, Note_on_c, 6, 66, 100
12, 12280, Note_on_c, 6, 66, 0
12, 12300, Note_on_c, 6, 62, 100
12, 12340, Note_on_c, 6, 62, 0
12, 12900, Note_on_c, 6, 64, 100
12, 12940, Note_on_c, 6, 64, 0
12, 12960, Note_on_c, 6, 62, 100
12, 12980, Note_on_c, 6, 62, 0
12, 12990, Note_on_c, 6, 61, 100
12, 13010, Note_on_c, 6, 61, 0
12, 13020, Note_on_c, 6, 62, 100
12, 13040, Note_on_c, 6, 62, 0
12, 13050, Note_on_c, 6, 64, 100
12, 13070, Note_on_c, 6, 64, 0
12, 13080, Note_on_c, 6, 66, 100
12, 13100, Note_on_c, 6, 66, 0
12, 13110, Note_on_c, 6, 67, 100
12, 13130, Note_on_c, 6, 67, 0
12, 13140, Note_on_c, 6, 66, 100
12, 13160, Note_on_c, 6, 66, 0
12, 13170, Note_on_c, 6, 64, 100
12, 13190, Note_on_c, 6, 64, 0
12, 13200, Note_on_c, 6, 62, 100
12, 13220, Note_on_c, 6, 62, 0
12, 13230, Note_on_c, 6, 64, 100
12, 13250, Note_on_c, 6, 64, 0
12, 13260, Note_on_c, 6, 66, 100
12, 13300, Note_on_c, 6, 66, 0
12, 13320, Note_on_c, 6, 68, 100
12, 13360, Note_on_c, 6, 68, 0
12, 13380, Note_on_c, 6, 71, 100
12, 13420, Note_on_c, 6, 71, 0
12, 13440, Note_on_c, 6, 64, 100
12, 13460, Note_on_c, 6, 64, 0
12, 13470, Note_on_c, 6, 66, 100
12, 13490, Note_on_c, 6, 66, 0
12, 13500, Note_on_c, 6, 64, 100
12, 13520, Note_on_c, 6, 64, 0
12, 13530, Note_on_c, 6, 62, 100
12, 13550, Note_on_c, 6, 62, 0
12, 13560, Note_on_c, 6, 61, 100
12, 13580, Note_on_c, 6, 61, 0
12, 13590, Note_on_c, 6, 62, 100
12, 13610, Note_on_c, 6, 62, 0
12, 13620, Note_on_c, 6, 64, 100
12, 13660, Note_on_c, 6, 64, 0
12, 13680, Note_on_c, 6, 66, 100
12, 13720, Note_on_c, 6, 66, 0
12, 13740, Note_on_c, 6, 69, 100
12, 13780, Note_on_c, 6, 69, 0
12, 13800, Note_on_c, 6, 66, 100
12, 13840, Note_on_c, 6, 66, 0
12, 13860, Note_on_c, 6, 62, 100
12, 13900, Note_on_c, 6, 62, 0
12, 13920, Note_on_c, 6, 66, 100
12, 13960, Note_on_c, 6, 66, 0
12, 13980, Note_on_c, 6, 69, 100
12, 14020, Note_on_c, 6, 69, 0
12, 14040, Note_on_c, 6, 71, 100
12, 14120, Note_on_c, 6, 71, 0
12, 14220, Note_on_c, 6, 59, 100
12, 14260, Note_on_c, 6, 59, 0
12, 14280, Note_on_c, 6, 62, 100
12, 14320, Note_on_c, 6, 62, 0
12, 14340, Note_on_c, 6, 59, 100
12, 14380, Note_on_c, 6, 59, 0
12, 14400, Note_on_c, 6, 64, 100
12, 14480, Note_on_c, 6, 64, 0
12, 14580, Note_on_c, 6, 71, 100
12, 14620, Note_on_c, 6, 71, 0
12, 14640, Note_on_c, 6, 68, 100
12, 14680, Note_on_c, 6, 68, 0
12, 14700, Note_on_c, 6, 64, 100
12, 14740, Note_on_c, 6, 64, 0
12, 14760, Note_on_c, 6, 64, 100
12, 14840, Note_on_c, 6, 64, 0
12, 14940, Note_on_c, 6, 64, 100
12, 14980, Note_on_c, 6, 64, 0
12, 15000, Note_on_c, 6, 61, 100
12, 15040, Note_on_c, 6, 61, 0
12, 15060, Note_on_c, 6, 57, 100
12, 15100, Note_on_c, 6, 57, 0
12, 15120, Note_on_c, 6, 57, 100
12, 15200, Note_on_c, 6, 57, 0
12, 15540, Note_on_c, 6, 64, 100
12, 15580, Note_on_c, 6, 64, 0
12, 15600, Note_on_c, 6, 64, 100
12, 15640, Note_on_c, 6, 64, 0
12, 15660, Note_on_c, 6, 66, 100
12, 15700, Note_on_c, 6, 66, 0
12, 15720, Note_on_c, 6, 59, 100
12, 15760, Note_on_c, 6, 59, 0
12, 15780, Note_on_c, 6, 64, 100
12, 15820, Note_on_c, 6, 64, 0
12, 15840, Note_on_c, 6, 64, 100
12, 15920, Note_on_c, 6, 64, 0
12, 16620, Note_on_c, 6, 64, 100
12, 16660, Note_on_c, 6, 64, 0
12, 16680, Note_on_c, 6, 69, 100
12, 16720, Note_on_c, 6, 69, 0
12, 16740, Note_on_c, 6, 73, 100
12, 16780, Note_on_c, 6, 73, 0
12, 16800, Note_on_c, 6, 73, 100
12, 16840, Note_on_c, 6, 73, 0
12, 16860, Note_on_c, 6, 69, 100
12, 16900, Note_on_c, 6, 69, 0
12, 16920, Note_on_c, 6, 64, 100
12, 16960, Note_on_c, 6, 64, 0
12, 16980, Note_on_c, 6, 69, 100
12, 17020, Note_on_c, 6, 69, 0
12, 17040, Note_on_c, 6, 73, 100
12, 17080, Note_on_c, 6, 73, 0
12, 17100, Note_on_c, 6, 76, 100
12, 17140, Note_on_c, 6, 76, 0
12, 17160, Note_on_c, 6, 76, 100
12, 17200, Note_on_c, 6, 76, 0
12, 17220, Note_on_c, 6, 73, 100
12, 17260, Note_on_c, 6, 73, 0
12, 17280, Note_on_c, 6, 69, 100
12, 17360, Note_on_c, 6, 69, 0
12, 18120, Note_on_c, 6, 57, 100
12, 18160, Note_on_c, 6, 57, 0
12, 18180, Note_on_c, 6, 61, 100
12, 18220, Note_on_c, 6, 61, 0
12, 18240, Note_on_c, 6, 66, 100
12, 18280, Note_on_c, 6, 66, 0
12, 18360, Note_on_c, 6, 61, 100
12, 18440, Note_on_c, 6, 61, 0
12, 18540, Note_on_c, 6, 66, 100
12, 18580, Note_on_c, 6, 66, 0
12, 18600, Note_on_c, 6, 66, 100
12, 18640, Note_on_c, 6, 66, 0
12, 18660, Note_on_c, 6, 70, 100
12, 18700, Note_on_c, 6, 70, 0
12, 18720, Note_on_c, 6, 66, 100
12, 18800, Note_on_c, 6, 66, 0
12, 18900, Note_on_c, 6, 59, 100
12, 18940, Note_on_c, 6, 59, 0
12, 18960, Note_on_c, 6, 62, 100
12, 19000, Note_on_c, 6, 62, 0
12, 19020, Note_on_c, 6, 66, 100
12, 19060, Note_on_c, 6, 66, 0
12, 19080, Note_on_c, 6, 71, 100
12, 19160, Note_on_c, 6, 71, 0
12, 19260, Note_on_c, 6, 70, 100
12, 19300, Note_on_c, 6, 70, 0
12, 19320, Note_on_c, 6, 61, 100
12, 19360, Note_on_c, 6, 61, 0
12, 19380, Note_on_c, 6, 65, 100
12, 19420, Note_on_c, 6, 65, 0
12, 19440, Note_on_c, 6, 69, 100
12, 19520, Note_on_c, 6, 69, 0
12, 19620, Note_on_c, 6, 66, 100
12, 19660, Note_on_c, 6, 66, 0
12, 19680, Note_on_c, 6, 69, 100
12, 19720, Note_on_c, 6, 69, 0
12, 19740, Note_on_c, 6, 74, 100
12, 19780, Note_on_c, 6, 74, 0
12, 19800, Note_on_c, 6, 69, 100
12, 19880, Note_on_c, 6, 69, 0
12, 19980, Note_on_c, 6, 64, 100
12, 20020, Note_on_c, 6, 64, 0
12, 20040, Note_on_c, 6, 69, 100
12, 20080, Note_on_c, 6, 69, 0
12, 20100, Note_on_c, 6, 73, 100
12, 20140, Note_on_c, 6, 73, 0
12, 20160, Note_on_c, 6, 66, 100
12, 20240, Note_on_c, 6, 66, 0
12, 20340, Note_on_c, 6, 66, 100
12, 20380, Note_on_c, 6, 66, 0
12, 20400, Note_on_c, 6, 69, 100
12, 20440, Note_on_c, 6, 69, 0
12, 20460, Note_on_c, 6, 74, 100
12, 20500, Note_on_c, 6, 74, 0
12, 20520, Note_on_c, 6, 74, 100
12, 20600, Note_on_c, 6, 74, 0
12, 20700, Note_on_c, 6, 66, 100
12, 20740, Note_on_c, 6, 66, 0
12, 20760, Note_on_c, 6, 69, 100
12, 20800, Note_on_c, 6, 69, 0
12, 20820, Note_on_c, 6, 74, 100
12, 20860, Note_on_c, 6, 74, 0
12, 20880, Note_on_c, 6, 74, 100
12, 20960, Note_on_c, 6, 74, 0
12, 21060, Note_on_c, 6, 62, 100
12, 21100, Note_on_c, 6, 62, 0
12, 21120, Note_on_c, 6, 69, 100
12, 21160, Note_on_c, 6, 69, 0
12, 21180, Note_on_c, 6, 69, 100
12, 21220, Note_on_c, 6, 69, 0
12, 21240, Note_on_c, 6, 69, 100
12, 21280, Note_on_c, 6, 69, 0
12, 21300, Note_on_c, 6, 57, 100
12, 21340, Note_on_c, 6, 57, 0
12, 21420, Note_on_c, 6, 69, 100
12, 21460, Note_on_c, 6, 69, 0
12, 21480, Note_on_c, 6, 64, 100
12, 21520, Note_on_c, 6, 64, 0
12, 21540, Note_on_c, 6, 61, 100
12, 21580, Note_on_c, 6, 61, 0
12, 21600, Note_on_c, 6, 57, 100
12, 21640, Note_on_c, 6, 57, 0
12, 21660, Note_on_c, 6, 62, 100
12, 21700, Note_on_c, 6, 62, 0
12, 23460, Note_on_c, 6, 67, 100
12, 23480, Note_on_c, 6, 67, 0
12, 23490, Note_on_c, 6, 66, 100
12, 23510, Note_on_c, 6, 66, 0
12, 23520, Note_on_c, 6, 64, 100
12, 23560, Note_on_c, 6, 64, 0
12, 23580, Note_on_c, 6, 64, 100
12, 23620, Note_on_c, 6, 64, 0
12, 23640, Note_on_c, 6, 64, 100
12, 23680, Note_on_c, 6, 64, 0
12, 23700, Note_on_c, 6, 59, 100
12, 23740, Note_on_c, 6, 59, 0
12, 23760, Note_on_c, 6, 59, 100
12, 23800, Note_on_c, 6, 59, 0
12, 23820, Note_on_c, 6, 55, 100
12, 23840, Note_on_c, 6, 55, 0
12, 23850, Note_on_c, 6, 57, 100
12, 23870, Note_on_c, 6, 57, 0
12, 23880, Note_on_c, 6, 59, 100
12, 23900, Note_on_c, 6, 59, 0
12, 23910, Note_on_c, 6, 60, 100
12, 23930, Note_on_c, 6, 60, 0
12, 23940, Note_on_c, 6, 59, 100
12, 23960, Note_on_c, 6, 59, 0
12, 23970, Note_on_c, 6, 57, 100
12, 23990, Note_on_c, 6, 57, 0
12, 24000, Note_on_c, 6, 55, 100
12, 24020, Note_on_c, 6, 55, 0
12, 24030, Note_on_c, 6, 57, 100
12, 24050, Note_on_c, 6, 57, 0
12, 24060, Note_on_c, 6, 59, 100
12, 24100, Note_on_c, 6, 59, 0
12, 24120, Note_on_c, 6, 61, 100
12, 24160, Note_on_c, 6, 61, 0
12, 24180, Note_on_c, 6, 64, 100
12, 24220, Note_on_c, 6, 64, 0
12, 24240, Note_on_c, 6, 62, 100
12, 24260, Note_on_c, 6, 62, 0
12, 24270, Note_on_c, 6, 71, 100
12, 24290, Note_on_c, 6, 71, 0
12, 24300, Note_on_c, 6, 69, 100
12, 24320, Note_on_c, 6, 69, 0
12, 24330, Note_on_c, 6, 67, 100
12, 24350, Note_on_c, 6, 67, 0
12, 24360, Note_on_c, 6, 66, 100
12, 24380, Note_on_c, 6, 66, 0
12, 24390, Note_on_c, 6, 67, 100
12, 24410, Note_on_c, 6, 67, 0
12, 24420, Note_on_c, 6, 69, 100
12, 24460, Note_on_c, 6, 69, 0
12, 24480, Note_on_c, 6, 71, 100
12, 24520, Note_on_c, 6, 71, 0
12, 24540, Note_on_c, 6, 74, 100
12, 24580, Note_on_c, 6, 74, 0
12, 24600, Note_on_c, 6, 71, 100
12, 24640, Note_on_c, 6, 71, 0
12, 24660, Note_on_c, 6, 67, 100
12, 24700, Note_on_c, 6, 67, 0
12, 24720, Note_on_c, 6, 71, 100
12, 24760, Note_on_c, 6, 71, 0
12, 24780, Note_on_c, 6, 74, 100
12, 24820, Note_on_c, 6, 74, 0
12, 24840, Note_on_c, 6, 64, 100
12, 24920, Note_on_c, 6, 64, 0
12, 25020, Note_on_c, 6, 64, 100
12, 25060, Note_on_c, 6, 64, 0
12, 25080, Note_on_c, 6, 67, 100
12, 25120, Note_on_c, 6, 67, 0
12, 25140, Note_on_c, 6, 64, 100
12, 25180, Note_on_c, 6, 64, 0
12, 25200, Note_on_c, 6, 69, 100
12, 25280, Note_on_c, 6, 69, 0
12, 25380, Note_on_c, 6, 64, 100
12, 25420, Note_on_c, 6, 64, 0
12, 25440, Note_on_c, 6, 61, 100
12, 25480, Note_on_c, 6, 61, 0
12, 25500, Note_on_c, 6, 57, 100
12, 25540, Note_on_c, 6, 57, 0
12, 25560, Note_on_c, 6, 69, 100
12, 25640, Note_on_c, 6, 69, 0
12, 25740, Note_on_c, 6, 69, 100
12, 25780, Note_on_c, 6, 69, 0
12, 25800, Note_on_c, 6, 66, 100
12, 25840, Note_on_c, 6, 66, 0
12, 25860, Note_on_c, 6, 62, 100
12, 25900, Note_on_c, 6, 62, 0
12, 25920, Note_on_c, 6, 62, 100
12, 26000, Note_on_c, 6, 62, 0
12, 26340, Note_on_c, 6, 69, 100
12, 26380, Note_on_c, 6, 69, 0
12, 26400, Note_on_c, 6, 69, 100
12, 26440, Note_on_c, 6, 69, 0
12, 26460, Note_on_c, 6, 71, 100
12, 26500, Note_on_c, 6, 71, 0
12, 26520, Note_on_c, 6, 64, 100
12, 26560, Note_on_c, 6, 64, 0
12, 26580, Note_on_c, 6, 69, 100
12, 26620, Note_on_c, 6, 69, 0
12, 26640, Note_on_c, 6, 69, 100
12, 26720, Note_on_c, 6, 69, 0
12, 27060, Note_on_c, 6, 61, 100
12, 27100, Note_on_c, 6, 61, 0
12, 27120, Note_on_c, 6, 64, 100
12, 27160, Note_on_c, 6, 64, 0
12, 27180, Note_on_c, 6, 69, 100
12, 27220, Note_on_c, 6, 69, 0
12, 27240, Note_on_c, 6, 69, 100
12, 27280, Note_on_c, 6, 69, 0
12, 27300, Note_on_c, 6, 73, 100
12, 27340, Note_on_c, 6, 73, 0
12, 27360, Note_on_c, 6, 74, 100
12, 27400, Note_on_c, 6, 74, 0
12, 27420, Note_on_c, 6, 69, 100
12, 27460, Note_on_c, 6, 69, 0
12, 27540, Note_on_c, 6, 57, 100
12, 27580, Note_on_c, 6, 57, 0
12, 27600, Note_on_c, 6, 62, 100
12, 27640, Note_on_c, 6, 62, 0
12, 27660, Note_on_c, 6, 66, 100
12, 27700, Note_on_c, 6, 66, 0
12, 27720, Note_on_c, 6, 59, 100
12, 27760, Note_on_c, 6, 59, 0
12, 27780, Note_on_c, 6, 62, 100
12, 27820, Note_on_c, 6, 62, 0
12, 27840, Note_on_c, 6, 67, 100
12, 27880, Note_on_c, 6, 67, 0
12, 27900, Note_on_c, 6, 71, 100
12, 27940, Note_on_c, 6, 71, 0
12, 27960, Note_on_c, 6, 71, 100
12, 28000, Note_on_c, 6, 71, 0
12, 28020, Note_on_c, 6, 59, 100
12, 28060, Note_on_c, 6, 59, 0
12, 28080, Note_on_c, 6, 64, 100
12, 28120, Note_on_c, 6, 64, 0
12, 28140, Note_on_c, 6, 61, 100
12, 28180, Note_on_c, 6, 61, 0
12, 28200, Note_on_c, 6, 66, 100
12, 28240, Note_on_c, 6, 66, 0
12, 28260, Note_on_c, 6, 69, 100
12, 28300, Note_on_c, 6, 69, 0
12, 28320, Note_on_c, 6, 69, 100
12, 28360, Note_on_c, 6, 69, 0
12, 28380, Note_on_c, 6, 66, 100
12, 28420, Note_on_c, 6, 66, 0
12, 28440, Note_on_c, 6, 71, 100
12, 28480, Note_on_c, 6, 71, 0
12, 28500, Note_on_c, 6, 59, 100
12, 28540, Note_on_c, 6, 59, 0
12, 28560, Note_on_c, 6, 64, 100
12, 28600, Note_on_c, 6, 64, 0
12, 28620, Note_on_c, 6, 71, 100
12, 28660, Note_on_c, 6, 71, 0
12, 28680, Note_on_c, 6, 71, 100
12, 28720, Note_on_c, 6, 71, 0
12, 28740, Note_on_c, 6, 64, 100
12, 28780, Note_on_c, 6, 64, 0
12, 28800, Note_on_c, 6, 73, 100
12, 28840, Note_on_c, 6, 73, 0
12, 28860, Note_on_c, 6, 64, 100
12, 28900, Note_on_c, 6, 64, 0
12, 28920, Note_on_c, 6, 69, 100
12, 28960, Note_on_c, 6, 69, 0
12, 28980, Note_on_c, 6, 73, 100
12, 29020, Note_on_c, 6, 73, 0
12, 29040, Note_on_c, 6, 73, 100
12, 29080, Note_on_c, 6, 73, 0
12, 29100, Note_on_c, 6, 69, 100
12, 29140, Note_on_c, 6, 69, 0
12, 29160, Note_on_c, 6, 74, 100
12, 29240, Note_on_c, 6, 74, 0
12, 29340, Note_on_c, 6, 62, 100
12, 29380, Note_on_c, 6, 62, 0
12, 29400, Note_on_c, 6, 66, 100
12, 29440, Note_on_c, 6, 66, 0
12, 29460, Note_on_c, 6, 69, 100
12, 29500, Note_on_c, 6, 69, 0
12, 29520, Note_on_c, 6, 69, 100
12, 29600, Note_on_c, 6, 69, 0
12, 29700, Note_on_c, 6, 66, 100
12, 29740, Note_on_c, 6, 66, 0
12, 29760, Note_on_c, 6, 66, 100
12, 29800, Note_on_c, 6, 66, 0
12, 29820, Note_on_c, 6, 69, 100
12, 29860, Note_on_c, 6, 69, 0
12, 29880, Note_on_c, 6, 74, 100
12, 29920, Note_on_c, 6, 74, 0
12, 29940, Note_on_c, 6, 69, 100
12, 29980, Note_on_c, 6, 69, 0
12, 30240, Note_on_c, 6, 69, 100
12, 30280, Note_on_c, 6, 69, 0
12, 30300, Note_on_c, 6, 66, 100
12, 30340, Note_on_c, 6, 66, 0
12, 30660, Note_on_c, 6, 66, 100
12, 30700, Note_on_c, 6, 66, 0
12, 30720, Note_on_c, 6, 69, 100
12, 30760, Note_on_c, 6, 69, 0
12, 30780, Note_on_c, 6, 74, 100
12, 30820, Note_on_c, 6, 74, 0
12, 30840, Note_on_c, 6, 74, 100
12, 30880, Note_on_c, 6, 74, 0
12, 30900, Note_on_c, 6, 69, 100
12, 30940, Note_on_c, 6, 69, 0
12, 30960, Note_on_c, 6, 62, 100
12, 30980, Note_on_c, 6, 62, 0
12, 30990, Note_on_c, 6, 64, 100
12, 31010, Note_on_c, 6, 64, 0
12, 31020, Note_on_c, 6, 66, 100
12, 31040, Note_on_c, 6, 66, 0
12, 31050, Note_on_c, 6, 67, 100
12, 31070, Note_on_c, 6, 67, 0
12, 31080, Note_on_c, 6, 69, 100
12, 31120, Note_on_c, 6, 69, 0
12, 31140, Note_on_c, 6, 62, 100
12, 31180, Note_on_c, 6, 62, 0
12, 31200, Note_on_c, 6, 57, 100
12, 31240, Note_on_c, 6, 57, 0
12, 31260, Note_on_c, 6, 69, 100
12, 31300, Note_on_c, 6, 69, 0
12, 31320, Note_on_c, 6, 66, 100
12, 31340, Note_on_c, 6, 66, 0
12, 31350, Note_on_c, 6, 67, 100
12, 31370, Note_on_c, 6, 67, 0
12, 31380, Note_on_c, 6, 66, 100
12, 31400, Note_on_c, 6, 66, 0
12, 31410, Note_on_c, 6, 64, 100
12, 31430, Note_on_c, 6, 64, 0
12, 31440, Note_on_c, 6, 62, 100
12, 31460, Note_on_c, 6, 62, 0
12, 31470, Note_on_c, 6, 64, 100
12, 31490, Note_on_c, 6, 64, 0
12, 31500, Note_on_c, 6, 66, 100
12, 31520, Note_on_c, 6, 66, 0
12, 31530, Note_on_c, 6, 67, 100
12, 31550, Note_on_c, 6, 67, 0
12, 31560, Note_on_c, 6, 69, 100
12, 31600, Note_on_c, 6, 69, 0
12, 31620, Note_on_c, 6, 69, 100
12, 31660, Note_on_c, 6, 69, 0
12, 31680, Note_on_c, 6, 69, 100
12, 31720, Note_on_c, 6, 69, 0
12, 31740, Note_on_c, 6, 66, 100
12, 31780, Note_on_c, 6, 66, 0
12, 31800, Note_on_c, 6, 62, 100
12, 31840, Note_on_c, 6, 62, 0
12, 31860, Note_on_c, 6, 62, 100
12, 31900, Note_on_c, 6, 62, 0
12, 31920, Note_on_c, 6, 69, 100
12, 31960, Note_on_c, 6, 69, 0
12, 31980, Note_on_c, 6, 67, 100
12, 32020, Note_on_c, 6, 67, 0
12, 32040, Note_on_c, 6, 66, 100
12, 32120, Note_on_c, 6, 66, 0
12, 32760, Control_c, 6, 0, 0
12, 32760, Note_on_c, 6, 54, 100
12, 32800, Note_on_c, 6, 54, 0
12, 32820, Note_on_c, 6, 57, 100
12, 32860, Note_on_c, 6, 57, 0
12, 32880, Note_on_c, 6, 62, 100
12, 32920, Note_on_c, 6, 62, 0
12, 32940, Note_on_c, 6, 55, 100
12, 32980, Note_on_c, 6, 55, 0
12, 33000, Note_on_c, 6, 62, 100
12, 33040, Note_on_c, 6, 62, 0
12, 33120, Note_on_c, 6, 61, 100
12, 33160, Note_on_c, 6, 61, 0
12, 33180, Note_on_c, 6, 62, 100
12, 33220, Note_on_c, 6, 62, 0
12, 33240, Note_on_c, 6, 62, 100
12, 33280, Note_on_c, 6, 62, 0
12, 33300, Note_on_c, 6, 57, 100
12, 33340, Note_on_c, 6, 57, 0
12, 33360, Note_on_c, 6, 64, 100
12, 33400, Note_on_c, 6, 64, 0
12, 33480, Note_on_c, 6, 54, 100
12, 33520, Note_on_c, 6, 54, 0
12, 33540, Note_on_c, 6, 57, 100
12, 33580, Note_on_c, 6, 57, 0
12, 33600, Note_on_c, 6, 62, 100
12, 33640, Note_on_c, 6, 62, 0
12, 33660, Note_on_c, 6, 50, 100
12, 33700, Note_on_c, 6, 50, 0
12, 33720, Note_on_c, 6, 62, 100
12, 33760, Note_on_c, 6, 62, 0
12, 33840, Note_on_c, 6, 64, 100
12, 33880, Note_on_c, 6, 64, 0
12, 33900, Note_on_c, 6, 59, 100
12, 33940, Note_on_c, 6, 59, 0
12, 33960, Note_on_c, 6, 64, 100
12, 34000, Note_on_c, 6, 64, 0
12, 34020, Note_on_c, 6, 52, 100
12, 34060, Note_on_c, 6, 52, 0
12, 34080, Note_on_c, 6, 64, 100
12, 34120, Note_on_c, 6, 64, 0
12, 34200, Note_on_c, 6, 69, 100
12, 34240, Note_on_c, 6, 69, 0
12, 34260, Note_on_c, 6, 64, 100
12, 34300, Note_on_c, 6, 64, 0
12, 34320, Note_on_c, 6, 69, 100
12, 34360, Note_on_c, 6, 69, 0
12, 34380, Note_on_c, 6, 61, 100
12, 34420, Note_on_c, 6, 61, 0
12, 34440, Note_on_c, 6, 62, 100
12, 34480, Note_on_c, 6, 62, 0
12, 34500, Note_on_c, 6, 67, 100
12, 34540, Note_on_c, 6, 67, 0
12, 34560, Note_on_c, 6, 71, 100
12, 34600, Note_on_c, 6, 71, 0
12, 34620, Note_on_c, 6, 69, 100
12, 34660, Note_on_c, 6, 69, 0
12, 34680, Note_on_c, 6, 57, 100
12, 34720, Note_on_c, 6, 57, 0
12, 34740, Note_on_c, 6, 57, 100
12, 34760, Note_on_c, 6, 57, 0
12, 34770, Note_on_c, 6, 62, 100
12, 34790, Note_on_c, 6, 62, 0
12, 34800, Note_on_c, 6, 62, 100
12, 34820, Note_on_c, 6, 62, 0
12, 34830, Note_on_c, 6, 57, 100
12, 34850, Note_on_c, 6, 57, 0
12, 34860, Note_on_c, 6, 57, 100
12, 34880, Note_on_c, 6, 57, 0
12, 34890, Note_on_c, 6, 54, 100
12, 34910, Note_on_c, 6, 54, 0
12, 34920, Note_on_c, 6, 54, 100
12, 34960, Note_on_c, 6, 54, 0
12, 35640, Note_on_c, 6, 69, 100
12, 35680, Note_on_c, 6, 69, 0
12, 35700, Note_on_c, 6, 64, 100
12, 35740, Note_on_c, 6, 64, 0
12, 35760, Note_on_c, 6, 69, 100
12, 35800, Note_on_c, 6, 69, 0
12, 35820, Note_on_c, 6, 61, 100
12, 35860, Note_on_c, 6, 61, 0
12, 35880, Note_on_c, 6, 62, 100
12, 35920, Note_on_c, 6, 62, 0
12, 35940, Note_on_c, 6, 67, 100
12, 35980, Note_on_c, 6, 67, 0
12, 36000, Note_on_c, 6, 71, 100
12, 36040, Note_on_c, 6, 71, 0
12, 36060, Note_on_c, 6, 69, 100
12, 36100, Note_on_c, 6, 69, 0
12, 36120, Note_on_c, 6, 57, 100
12, 36160, Note_on_c, 6, 57, 0
12, 36180, Note_on_c, 6, 57, 100
12, 36200, Note_on_c, 6, 57, 0
12, 36210, Note_on_c, 6, 62, 100
12, 36230, Note_on_c, 6, 62, 0
12, 36240, Note_on_c, 6, 62, 100
12, 36260, Note_on_c, 6, 62, 0
12, 36270, Note_on_c, 6, 57, 100
12, 36290, Note_on_c, 6, 57, 0
12, 36300, Note_on_c, 6, 57, 100
12, 36320, Note_on_c, 6, 57, 0
12, 36330, Note_on_c, 6, 54, 100
12, 36350, Note_on_c, 6, 54, 0
12, 36360, Note_on_c, 6, 54, 100
12, 36400, Note_on_c, 6, 54, 0
12, 36420, Note_on_c, 6, 57, 100
12, 36460, Note_on_c, 6, 57, 0
12, 36480, Note_on_c, 6, 62, 100
12, 36520, Note_on_c, 6, 62, 0
12, 36540, Note_on_c, 6, 55, 100
12, 36580, Note_on_c, 6, 55, 0
12, 36600, Note_on_c, 6, 62, 100
12, 36640, Note_on_c, 6, 62, 0
12, 36720, Note_on_c, 6, 62, 100
12, 36760, Note_on_c, 6, 62, 0
12, 36780, Note_on_c, 6, 57, 100
12, 36820, Note_on_c, 6, 57, 0
12, 36840, Note_on_c, 6, 62, 100
12, 36880, Note_on_c, 6, 62, 0
12, 36900, Note_on_c, 6, 66, 100
12, 36940, Note_on_c, 6, 66, 0
12, 36960, Note_on_c, 6, 69, 100
12, 37000, Note_on_c, 6, 69, 0
12, 37020, Note_on_c, 6, 62, 100
12, 37060, Note_on_c, 6, 62, 0
12, 37080, Note_on_c, 6, 61, 100
12, 37120, Note_on_c, 6, 61, 0
12, 37140, Note_on_c, 6, 64, 100
12, 37180, Note_on_c, 6, 64, 0
12, 37200, Note_on_c, 6, 69, 100
12, 37240, Note_on_c, 6, 69, 0
12, 37260, Note_on_c, 6, 62, 100
12, 37300, Note_on_c, 6, 62, 0
12, 37320, Note_on_c, 6, 69, 100
12, 37360, Note_on_c, 6, 69, 0
12, 37440, Note_on_c, 6, 68, 100
12, 37480, Note_on_c, 6, 68, 0
12, 37500, Note_on_c, 6, 69, 100
12, 37540, Note_on_c, 6, 69, 0
12, 37560, Note_on_c, 6, 64, 100
12, 37600, Note_on_c, 6, 64, 0
12, 37620, Note_on_c, 6, 64, 100
12, 37660, Note_on_c, 6, 64, 0
12, 37680, Note_on_c, 6, 62, 100
12, 37720, Note_on_c, 6, 62, 0
12, 37740, Note_on_c, 6, 59, 100
12, 37780, Note_on_c, 6, 59, 0
12, 37800, Note_on_c, 6, 57, 100
12, 37840, Note_on_c, 6, 57, 0
12, 37860, Note_on_c, 6, 64, 100
12, 37900, Note_on_c, 6, 64, 0
12, 37920, Note_on_c, 6, 69, 100
12, 37960, Note_on_c, 6, 69, 0
12, 37980, Note_on_c, 6, 61, 100
12, 38020, Note_on_c, 6, 61, 0
12, 38040, Note_on_c, 6, 69, 100
12, 38080, Note_on_c, 6, 69, 0
12, 38160, Note_on_c, 6, 63, 100
12, 38200, Note_on_c, 6, 63, 0
12, 38220, Note_on_c, 6, 66, 100
12, 38260, Note_on_c, 6, 66, 0
12, 38280, Note_on_c, 6, 66, 100
12, 38320, Note_on_c, 6, 66, 0
12, 38340, Note_on_c, 6, 64, 100
12, 38380, Note_on_c, 6, 64, 0
12, 38400, Note_on_c, 6, 71, 100
12, 38440, Note_on_c, 6, 71, 0
12, 38520, Note_on_c, 6, 56, 100
12, 38560, Note_on_c, 6, 56, 0
12, 38580, Note_on_c, 6, 59, 100
12, 38620, Note_on_c, 6, 59, 0
12, 38640, Note_on_c, 6, 62, 100
12, 38680, Note_on_c, 6, 62, 0
12, 38700, Note_on_c, 6, 71, 100
12, 38740, Note_on_c, 6, 71, 0
12, 38760, Note_on_c, 6, 69, 100
12, 38800, Note_on_c, 6, 69, 0
12, 38820, Note_on_c, 6, 62, 100
12, 38860, Note_on_c, 6, 62, 0
12, 38880, Note_on_c, 6, 57, 100
12, 38920, Note_on_c, 6, 57, 0
12, 38940, Note_on_c, 6, 61, 100
12, 38980, Note_on_c, 6, 61, 0
12, 39000, Note_on_c, 6, 57, 100
12, 39040, Note_on_c, 6, 57, 0
12, 39060, Note_on_c, 6, 61, 100
12, 39080, Note_on_c, 6, 61, 0
12, 39090, Note_on_c, 6, 57, 100
12, 39110, Note_on_c, 6, 57, 0
12, 39120, Note_on_c, 6, 57, 100
12, 39140, Note_on_c, 6, 57, 0
12, 39150, Note_on_c, 6, 52, 100
12, 39170, Note_on_c, 6, 52, 0
12, 39180, Note_on_c, 6, 52, 100
12, 39200, Note_on_c, 6, 52, 0
12, 39210, Note_on_c, 6, 50, 100
12, 39230, Note_on_c, 6, 50, 0
12, 39240, Note_on_c, 6, 50, 100
12, 39260, Note_on_c, 6, 50, 0
12, 39270, Note_on_c, 6, 62, 100
12, 39290, Note_on_c, 6, 62, 0
12, 39300, Note_on_c, 6, 62, 100
12, 39320, Note_on_c, 6, 62, 0
12, 39330, Note_on_c, 6, 57, 100
12, 39350, Note_on_c, 6, 57, 0
12, 39360, Note_on_c, 6, 57, 100
12, 39380, Note_on_c, 6, 57, 0
12, 39390, Note_on_c, 6, 55, 100
12, 39410, Note_on_c, 6, 55, 0
12, 39420, Note_on_c, 6, 55, 100
12, 39460, Note_on_c, 6, 55, 0
12, 39630, Note_on_c, 6, 64, 100
12, 39650, Note_on_c, 6, 64, 0
12, 39660, Note_on_c, 6, 61, 100
12, 39680, Note_on_c, 6, 61, 0
12, 39690, Note_on_c, 6, 64, 100
12, 39710, Note_on_c, 6, 64, 0
12, 39720, Note_on_c, 6, 64, 100
12, 39740, Note_on_c, 6, 64, 0
12, 39750, Note_on_c, 6, 61, 100
12, 39770, Note_on_c, 6, 61, 0
12, 39780, Note_on_c, 6, 61, 100
12, 39820, Note_on_c, 6, 61, 0
12, 41760, Note_on_c, 6, 62, 100
12, 41800, Note_on_c, 6, 62, 0
12, 41820, Note_on_c, 6, 66, 100
12, 41860, Note_on_c, 6, 66, 0
12, 41880, Note_on_c, 6, 71, 100
12, 41920, Note_on_c, 6, 71, 0
12, 41940, Note_on_c, 6, 63, 100
12, 41980, Note_on_c, 6, 63, 0
12, 42000, Note_on_c, 6, 71, 100
12, 42040, Note_on_c, 6, 71, 0
12, 42120, Note_on_c, 6, 73, 100
12, 42160, Note_on_c, 6, 73, 0
12, 42180, Note_on_c, 6, 68, 100
12, 42220, Note_on_c, 6, 68, 0
12, 42240, Note_on_c, 6, 73, 100
12, 42280, Note_on_c, 6, 73, 0
12, 42300, Note_on_c, 6, 74, 100
12, 42340, Note_on_c, 6, 74, 0
12, 42360, Note_on_c, 6, 73, 100
12, 42400, Note_on_c, 6, 73, 0
12, 42480, Note_on_c, 6, 58, 100
12, 42520, Note_on_c, 6, 58, 0
12, 42540, Note_on_c, 6, 61, 100
12, 42580, Note_on_c, 6, 61, 0
12, 42600, Note_on_c, 6, 66, 100
12, 42640, Note_on_c, 6, 66, 0
12, 42660, Note_on_c, 6, 66, 100
12, 42700, Note_on_c, 6, 66, 0
12, 42720, Note_on_c, 6, 71, 100
12, 42760, Note_on_c, 6, 71, 0
12, 42780, Note_on_c, 6, 64, 100
12, 42820, Note_on_c, 6, 64, 0
12, 42840, Note_on_c, 6, 59, 100
12, 42880, Note_on_c, 6, 59, 0
12, 42900, Note_on_c, 6, 54, 100
12, 42940, Note_on_c, 6, 54, 0
12, 42960, Note_on_c, 6, 54, 100
12, 43000, Note_on_c, 6, 54, 0
12, 43020, Note_on_c, 6, 54, 100
12, 43040, Note_on_c, 6, 54, 0
12, 43050, Note_on_c, 6, 59, 100
12, 43070, Note_on_c, 6, 59, 0
12, 43080, Note_on_c, 6, 59, 100
12, 43100, Note_on_c, 6, 59, 0
12, 43110, Note_on_c, 6, 54, 100
12, 43130, Note_on_c, 6, 54, 0
12, 43140, Note_on_c, 6, 54, 100
12, 43160, Note_on_c, 6, 54, 0
12, 43170, Note_on_c, 6, 50, 100
12, 43190, Note_on_c, 6, 50, 0
12, 43200, Note_on_c, 6, 50, 100
12, 43280, Note_on_c, 6, 50, 0
12, 45210, Note_on_c, 6, 61, 100
12, 45230, Note_on_c, 6, 61, 0
12, 45240, Note_on_c, 6, 61, 100
12, 45260, Note_on_c, 6, 61, 0
12, 45270, Note_on_c, 6, 57, 100
12, 45290, Note_on_c, 6, 57, 0
12, 45300, Note_on_c, 6, 57, 100
12, 45320, Note_on_c, 6, 57, 0
12, 45330, Note_on_c, 6, 52, 100
12, 45350, Note_on_c, 6, 52, 0
12, 45360, Note_on_c, 6, 54, 100
12, 45400, Note_on_c, 6, 54, 0
12, 45420, Note_on_c, 6, 57, 100
12, 45460, Note_on_c, 6, 57, 0
12, 45480, Note_on_c, 6, 62, 100
12, 45520, Note_on_c, 6, 62, 0
12, 45540, Note_on_c, 6, 50, 100
12, 45580, Note_on_c, 6, 50, 0
12, 45600, Note_on_c, 6, 62, 100
12, 45640, Note_on_c, 6, 62, 0
12, 45720, Note_on_c, 6, 64, 100
12, 45760, Note_on_c, 6, 64, 0
12, 45780, Note_on_c, 6, 59, 100
12, 45820, Note_on_c, 6, 59, 0
12, 45840, Note_on_c, 6, 64, 100
12, 45880, Note_on_c, 6, 64, 0
12, 45900, Note_on_c, 6, 52, 100
12, 45940, Note_on_c, 6, 52, 0
12, 45960, Note_on_c, 6, 64, 100
12, 46000, Note_on_c, 6, 64, 0
12, 46080, Note_on_c, 6, 69, 100
12, 46120, Note_on_c, 6, 69, 0
12, 46140, Note_on_c, 6, 64, 100
12, 46180, Note_on_c, 6, 64, 0
12, 46200, Note_on_c, 6, 69, 100
12, 46240, Note_on_c, 6, 69, 0
12, 46260, Note_on_c, 6, 64, 100
12, 46300, Note_on_c, 6, 64, 0
12, 46320, Note_on_c, 6, 62, 100
12, 46360, Note_on_c, 6, 62, 0
12, 46410, Note_on_c, 6, 74, 100
12, 46430, Note_on_c, 6, 74, 0
12, 46440, Note_on_c, 6, 62, 100
12, 46460, Note_on_c, 6, 62, 0
12, 46470, Note_on_c, 6, 64, 100
12, 46490, Note_on_c, 6, 64, 0
12, 46500, Note_on_c, 6, 66, 100
12, 46520, Note_on_c, 6, 66, 0
12, 46530, Note_on_c, 6, 67, 100
12, 46550, Note_on_c, 6, 67, 0
12, 46560, Note_on_c, 6, 69, 100
12, 46600, Note_on_c, 6, 69, 0
12, 46620, Note_on_c, 6, 62, 100
12, 46660, Note_on_c, 6, 62, 0
12, 47160, Note_on_c, 6, 54, 100
12, 47200, Note_on_c, 6, 54, 0
12, 47220, Note_on_c, 6, 57, 100
12, 47260, Note_on_c, 6, 57, 0
12, 47280, Note_on_c, 6, 62, 100
12, 47320, Note_on_c, 6, 62, 0
12, 47340, Note_on_c, 6, 55, 100
12, 47380, Note_on_c, 6, 55, 0
12, 47400, Note_on_c, 6, 62, 100
12, 47440, Note_on_c, 6, 62, 0
12, 47520, Note_on_c, 6, 61, 100
12, 47560, Note_on_c, 6, 61, 0
12, 47580, Note_on_c, 6, 62, 100
12, 47620, Note_on_c, 6, 62, 0
12, 47640, Note_on_c, 6, 62, 100
12, 47680, Note_on_c, 6, 62, 0
12, 47700, Note_on_c, 6, 57, 100
12, 47740, Note_on_c, 6, 57, 0
12, 47760, Note_on_c, 6, 64, 100
12, 47800, Note_on_c, 6, 64, 0
12, 47880, Note_on_c, 6, 54, 100
12, 47920, Note_on_c, 6, 54, 0
12, 47940, Note_on_c, 6, 57, 100
12, 47980, Note_on_c, 6, 57, 0
12, 48000, Note_on_c, 6, 62, 100
12, 48040, Note_on_c, 6, 62, 0
12, 48060, Note_on_c, 6, 50, 100
12, 48100, Note_on_c, 6, 50, 0
12, 48120, Note_on_c, 6, 62, 100
12, 48160, Note_on_c, 6, 62, 0
12, 48240, Note_on_c, 6, 64, 100
12, 48280, Note_on_c, 6, 64, 0
12, 48300, Note_on_c, 6, 59, 100
12, 48340, Note_on_c, 6, 59, 0
12, 48360, Note_on_c, 6, 64, 100
12, 48400, Note_on_c, 6, 64, 0
12, 48420, Note_on_c, 6, 52, 100
12, 48460, Note_on_c, 6, 52, 0
12, 48480, Note_on_c, 6, 64, 100
12, 48520, Note_on_c, 6, 64, 0
12, 48600, Note_on_c, 6, 69, 100
12, 48640, Note_on_c, 6, 69, 0
12, 48660, Note_on_c, 6, 64, 100
12, 48700, Note_on_c, 6, 64, 0
12, 48720, Note_on_c, 6, 69, 100
12, 48760, Note_on_c, 6, 69, 0
12, 48780, Note_on_c, 6, 61, 100
12, 48820, Note_on_c, 6, 61, 0
12, 48840, Note_on_c, 6, 62, 100
12, 48880, Note_on_c, 6, 62, 0
12, 48900, Note_on_c, 6, 67, 100
12, 48940, Note_on_c, 6, 67, 0
12, 48960, Note_on_c, 6, 71, 100
12, 49000, Note_on_c, 6, 71, 0
12, 49020, Note_on_c, 6, 69, 100
12, 49060, Note_on_c, 6, 69, 0
12, 49080, Note_on_c, 6, 57, 100
12, 49120, Note_on_c, 6, 57, 0
12, 49140, Note_on_c, 6, 57, 100
12, 49260, Note_on_c, 6, 57, 0
12, 61080, Note_on_c, 6, 61, 90
12, 61109, Note_on_c, 6, 61, 0
12, 61110, Note_on_c, 6, 59, 90
12, 61139, Note_on_c, 6, 59, 0
12, 61140, Note_on_c, 6, 57, 90
12, 61169, Note_on_c, 6, 57, 0
12, 61170, Note_on_c, 6, 61, 90
12, 61199, Note_on_c, 6, 61, 0
12, 61200, Note_on_c, 6, 59, 90
12, 61229, Note_on_c, 6, 59, 0
12, 61230, Note_on_c, 6, 57, 90
12, 61259, Note_on_c, 6, 57, 0
12, 61260, Note_on_c, 6, 56, 90
12, 61319, Note_on_c, 6, 56, 0
12, 61320, Note_on_c, 6, 68, 90
12, 61379, Note_on_c, 6, 68, 0
12, 61380, Note_on_c, 6, 68, 90
12, 61439, Note_on_c, 6, 68, 0
12, 61440, Note_on_c, 6, 73, 90
12, 61499, Note_on_c, 6, 73, 0
12, 61500, Note_on_c, 6, 66, 90
12, 61559, Note_on_c, 6, 66, 0
12, 61560, Note_on_c, 6, 57, 90
12, 61589, Note_on_c, 6, 57, 0
12, 61590, Note_on_c, 6, 59, 90
12, 61619, Note_on_c, 6, 59, 0
12, 61620, Note_on_c, 6, 61, 90
12, 61649, Note_on_c, 6, 61, 0
12, 61650, Note_on_c, 6, 59, 90
12, 61679, Note_on_c, 6, 59, 0
12, 61680, Note_on_c, 6, 61, 90
12, 61709, Note_on_c, 6, 61, 0
12, 61710, Note_on_c, 6, 62, 90
12, 61739, Note_on_c, 6, 62, 0
12, 61740, Note_on_c, 6, 56, 90
12, 61799, Note_on_c, 6, 56, 0
12, 61800, Note_on_c, 6, 57, 90
12, 61829, Note_on_c, 6, 57, 0
12, 61830, Note_on_c, 6, 59, 90
12, 61859, Note_on_c, 6, 59, 0
12, 61860, Note_on_c, 6, 61, 90
12, 61889, Note_on_c, 6, 61, 0
12, 61890, Note_on_c, 6, 65, 90
12, 61919, Note_on_c, 6, 65, 0
12, 61920, Note_on_c, 6, 66, 90
12, 61949, Note_on_c, 6, 66, 0
12, 61950, Note_on_c, 6, 68, 90
12, 61979, Note_on_c, 6, 68, 0
12, 61980, Note_on_c, 6, 69, 90
12, 62039, Note_on_c, 6, 69, 0
12, 62040, Note_on_c, 6, 61, 90
12, 62099, Note_on_c, 6, 61, 0
12, 62100, Note_on_c, 6, 66, 90
12, 62219, Note_on_c, 6, 66, 0
12, 62220, Note_on_c, 6, 68, 90
12, 62339, Note_on_c, 6, 68, 0
12, 62460, Note_on_c, 6, 61, 90
12, 62519, Note_on_c, 6, 61, 0
12, 62520, Note_on_c, 6, 61, 90
12, 62579, Note_on_c, 6, 61, 0
12, 62580, Note_on_c, 6, 61, 90
12, 62639, Note_on_c, 6, 61, 0
12, 62640, Note_on_c, 6, 61, 90
12, 62699, Note_on_c, 6, 61, 0
12, 62700, Note_on_c, 6, 61, 90
12, 62759, Note_on_c, 6, 61, 0
12, 62760, Note_on_c, 6, 59, 90
12, 62789, Note_on_c, 6, 59, 0
12, 62790, Note_on_c, 6, 57, 90
12, 62819, Note_on_c, 6, 57, 0
12, 62820, Note_on_c, 6, 56, 90
12, 62879, Note_on_c, 6, 56, 0
12, 62880, Note_on_c, 6, 61, 90
12, 62939, Note_on_c, 6, 61, 0
12, 62940, Note_on_c, 6, 57, 90
12, 62999, Note_on_c, 6, 57, 0
12, 63000, Note_on_c, 6, 54, 90
12, 63029, Note_on_c, 6, 54, 0
12, 63030, Note_on_c, 6, 56, 90
12, 63059, Note_on_c, 6, 56, 0
12, 63060, Note_on_c, 6, 57, 90
12, 63089, Note_on_c, 6, 57, 0
12, 63090, Note_on_c, 6, 56, 90
12, 63119, Note_on_c, 6, 56, 0
12, 63120, Note_on_c, 6, 57, 90
12, 63149, Note_on_c, 6, 57, 0
12, 63150, Note_on_c, 6, 59, 90
12, 63179, Note_on_c, 6, 59, 0
12, 63180, Note_on_c, 6, 61, 90
12, 63330, Note_on_c, 6, 61, 0
12, 63330, Note_on_c, 6, 59, 90
12, 63359, Note_on_c, 6, 59, 0
12, 63360, Note_on_c, 6, 57, 90
12, 63389, Note_on_c, 6, 57, 0
12, 63390, Note_on_c, 6, 56, 90
12, 63419, Note_on_c, 6, 56, 0
12, 63420, Note_on_c, 6, 54, 90
12, 63479, Note_on_c, 6, 54, 0
12, 63660, Note_on_c, 6, 71, 90
12, 63719, Note_on_c, 6, 71, 0
12, 63720, Note_on_c, 6, 71, 90
12, 63779, Note_on_c, 6, 71, 0
12, 63780, Note_on_c, 6, 71, 90
12, 63839, Note_on_c, 6, 71, 0
12, 63840, Note_on_c, 6, 71, 90
12, 63899, Note_on_c, 6, 71, 0
12, 63900, Note_on_c, 6, 71, 90
12, 63959, Note_on_c, 6, 71, 0
12, 63960, Note_on_c, 6, 69, 90
12, 63989, Note_on_c, 6, 69, 0
12, 63990, Note_on_c, 6, 68, 90
12, 64019, Note_on_c, 6, 68, 0
12, 64020, Note_on_c, 6, 66, 90
12, 64079, Note_on_c, 6, 66, 0
12, 64080, Note_on_c, 6, 64, 90
12, 64139, Note_on_c, 6, 64, 0
12, 64140, Note_on_c, 6, 62, 90
12, 64199, Note_on_c, 6, 62, 0
12, 64200, Note_on_c, 6, 68, 90
12, 64259, Note_on_c, 6, 68, 0
12, 64320, Note_on_c, 6, 54, 90
12, 64379, Note_on_c, 6, 54, 0
12, 64380, Note_on_c, 6, 61, 90
12, 64439, Note_on_c, 6, 61, 0
12, 64440, Note_on_c, 6, 64, 90
12, 64499, Note_on_c, 6, 64, 0
12, 64560, Note_on_c, 6, 61, 90
12, 64619, Note_on_c, 6, 61, 0
12, 64620, Note_on_c, 6, 57, 90
12, 64679, Note_on_c, 6, 57, 0
12, 64680, Note_on_c, 6, 62, 90
12, 64739, Note_on_c, 6, 62, 0
12, 64800, Note_on_c, 6, 66, 90
12, 64859, Note_on_c, 6, 66, 0
12, 64860, Note_on_c, 6, 59, 90
12, 64919, Note_on_c, 6, 59, 0
12, 64920, Note_on_c, 6, 64, 90
12, 64979, Note_on_c, 6, 64, 0
12, 65040, Note_on_c, 6, 64, 90
12, 65069, Note_on_c, 6, 64, 0
12, 65070, Note_on_c, 6, 62, 90
12, 65099, Note_on_c, 6, 62, 0
12, 65100, Note_on_c, 6, 61, 90
12, 65159, Note_on_c, 6, 61, 0
12, 65160, Note_on_c, 6, 66, 90
12, 65219, Note_on_c, 6, 66, 0
12, 65220, Note_on_c, 6, 59, 90
12, 65339, Note_on_c, 6, 59, 0
12, 65340, Note_on_c, 6, 61, 90
12, 65399, Note_on_c, 6, 61, 0
12, 65400, Note_on_c, 6, 64, 90
12, 65459, Note_on_c, 6, 64, 0
12, 65460, Note_on_c, 6, 69, 90
12, 65519, Note_on_c, 6, 69, 0
12, 65520, Note_on_c, 6, 64, 90
12, 65609, Note_on_c, 6, 64, 0
12, 65610, Note_on_c, 6, 66, 90
12, 65639, Note_on_c, 6, 66, 0
12, 65640, Note_on_c, 6, 68, 90
12, 65669, Note_on_c, 6, 68, 0
12, 65670, Note_on_c, 6, 69, 90
12, 65699, Note_on_c, 6, 69, 0
12, 65700, Note_on_c, 6, 71, 90
12, 65759, Note_on_c, 6, 71, 0
12, 65760, Note_on_c, 6, 59, 90
12, 65819, Note_on_c, 6, 59, 0
12, 65820, Note_on_c, 6, 57, 90
12, 65849, Note_on_c, 6, 57, 0
12, 65850, Note_on_c, 6, 59, 90
12, 65879, Note_on_c, 6, 59, 0
12, 65880, Note_on_c, 6, 61, 90
12, 65909, Note_on_c, 6, 61, 0
12, 65910, Note_on_c, 6, 62, 90
12, 65939, Note_on_c, 6, 62, 0
12, 65940, Note_on_c, 6, 64, 90
12, 65969, Note_on_c, 6, 64, 0
12, 65970, Note_on_c, 6, 62, 90
12, 65999, Note_on_c, 6, 62, 0
12, 66000, Note_on_c, 6, 64, 90
12, 66029, Note_on_c, 6, 64, 0
12, 66030, Note_on_c, 6, 66, 90
12, 66059, Note_on_c, 6, 66, 0
12, 66060, Note_on_c, 6, 68, 90
12, 66179, Note_on_c, 6, 68, 0
12, 66300, Note_on_c, 6, 71, 90
12, 66359, Note_on_c, 6, 71, 0
12, 66360, Note_on_c, 6, 71, 90
12, 66419, Note_on_c, 6, 71, 0
12, 66420, Note_on_c, 6, 71, 90
12, 66479, Note_on_c, 6, 71, 0
12, 66480, Note_on_c, 6, 71, 90
12, 66539, Note_on_c, 6, 71, 0
12, 66540, Note_on_c, 6, 71, 90
12, 66599, Note_on_c, 6, 71, 0
12, 66600, Note_on_c, 6, 66, 90
12, 66629, Note_on_c, 6, 66, 0
12, 66630, Note_on_c, 6, 64, 90
12, 66659, Note_on_c, 6, 64, 0
12, 66660, Note_on_c, 6, 62, 90
12, 66719, Note_on_c, 6, 62, 0
12, 66720, Note_on_c, 6, 61, 90
12, 66779, Note_on_c, 6, 61, 0
12, 66780, Note_on_c, 6, 59, 90
12, 66839, Note_on_c, 6, 59, 0
12, 66840, Note_on_c, 6, 54, 90
12, 66899, Note_on_c, 6, 54, 0
12, 66960, Note_on_c, 6, 59, 90
12, 67019, Note_on_c, 6, 59, 0
12, 67020, Note_on_c, 6, 66, 90
12, 67079, Note_on_c, 6, 66, 0
12, 67080, Note_on_c, 6, 61, 90
12, 67139, Note_on_c, 6, 61, 0
12, 67200, Note_on_c, 6, 66, 90
12, 67259, Note_on_c, 6, 66, 0
12, 67260, Note_on_c, 6, 61, 90
12, 67319, Note_on_c, 6, 61, 0
12, 67320, Note_on_c, 6, 66, 90
12, 67379, Note_on_c, 6, 66, 0
12, 67500, Note_on_c, 6, 61, 90
12, 67559, Note_on_c, 6, 61, 0
12, 67560, Note_on_c, 6, 61, 90
12, 67619, Note_on_c, 6, 61, 0
12, 67620, Note_on_c, 6, 61, 90
12, 67679, Note_on_c, 6, 61, 0
12, 67680, Note_on_c, 6, 61, 90
12, 67739, Note_on_c, 6, 61, 0
12, 67740, Note_on_c, 6, 61, 90
12, 67799, Note_on_c, 6, 61, 0
12, 67800, Note_on_c, 6, 59, 90
12, 67829, Note_on_c, 6, 59, 0
12, 67830, Note_on_c, 6, 57, 90
12, 67859, Note_on_c, 6, 57, 0
12, 67860, Note_on_c, 6, 56, 90
12, 67919, Note_on_c, 6, 56, 0
12, 67920, Note_on_c, 6, 54, 90
12, 67979, Note_on_c, 6, 54, 0
12, 67980, Note_on_c, 6, 53, 90
12, 68039, Note_on_c, 6, 53, 0
12, 68040, Note_on_c, 6, 61, 90
12, 68099, Note_on_c, 6, 61, 0
12, 68160, Note_on_c, 6, 61, 90
12, 68219, Note_on_c, 6, 61, 0
12, 68220, Note_on_c, 6, 61, 90
12, 68279, Note_on_c, 6, 61, 0
12, 68280, Note_on_c, 6, 69, 90
12, 68339, Note_on_c, 6, 69, 0
12, 68400, Note_on_c, 6, 66, 90
12, 68459, Note_on_c, 6, 66, 0
12, 68460, Note_on_c, 6, 64, 90
12, 68519, Note_on_c, 6, 64, 0
12, 68520, Note_on_c, 6, 68, 90
12, 68579, Note_on_c, 6, 68, 0
12, 68640, Note_on_c, 6, 59, 90
12, 68699, Note_on_c, 6, 59, 0
12, 68700, Note_on_c, 6, 61, 90
12, 68759, Note_on_c, 6, 61, 0
12, 68760, Note_on_c, 6, 66, 90
12, 68819, Note_on_c, 6, 66, 0
12, 68940, Note_on_c, 6, 62, 90
12, 68999, Note_on_c, 6, 62, 0
12, 69000, Note_on_c, 6, 62, 90
12, 69059, Note_on_c, 6, 62, 0
12, 69060, Note_on_c, 6, 62, 90
12, 69119, Note_on_c, 6, 62, 0
12, 69120, Note_on_c, 6, 62, 90
12, 69179, Note_on_c, 6, 62, 0
12, 69180, Note_on_c, 6, 62, 90
12, 69239, Note_on_c, 6, 62, 0
12, 69240, Note_on_c, 6, 61, 90
12, 69269, Note_on_c, 6, 61, 0
12, 69270, Note_on_c, 6, 59, 90
12, 69299, Note_on_c, 6, 59, 0
12, 69300, Note_on_c, 6, 57, 90
12, 69359, Note_on_c, 6, 57, 0
12, 69360, Note_on_c, 6, 55, 90
12, 69419, Note_on_c, 6, 55, 0
12, 69420, Note_on_c, 6, 54, 90
12, 69479, Note_on_c, 6, 54, 0
12, 69480, Note_on_c, 6, 59, 90
12, 69509, Note_on_c, 6, 59, 0
12, 69510, Note_on_c, 6, 58, 90
12, 69539, Note_on_c, 6, 58, 0
12, 69540, Note_on_c, 6, 59, 90
12, 69719, Note_on_c, 6, 59, 0
12, 69720, Note_on_c, 6, 64, 90
12, 69749, Note_on_c, 6, 64, 0
12, 69750, Note_on_c, 6, 66, 90
12, 69779, Note_on_c, 6, 66, 0
12, 69780, Note_on_c, 6, 68, 90
12, 69809, Note_on_c, 6, 68, 0
12, 69810, Note_on_c, 6, 64, 90
12, 69839, Note_on_c, 6, 64, 0
12, 69840, Note_on_c, 6, 66, 90
12, 69869, Note_on_c, 6, 66, 0
12, 69870, Note_on_c, 6, 68, 90
12, 69899, Note_on_c, 6, 68, 0
12, 69900, Note_on_c, 6, 69, 90
12, 69959, Note_on_c, 6, 69, 0
12, 69960, Note_on_c, 6, 69, 90
12, 70019, Note_on_c, 6, 69, 0
12, 70020, Note_on_c, 6, 69, 90
12, 70079, Note_on_c, 6, 69, 0
12, 70080, Note_on_c, 6, 69, 90
12, 70139, Note_on_c, 6, 69, 0
12, 70140, Note_on_c, 6, 69, 90
12, 70199, Note_on_c, 6, 69, 0
12, 70200, Note_on_c, 6, 68, 90
12, 70229, Note_on_c, 6, 68, 0
12, 70230, Note_on_c, 6, 66, 90
12, 70259, Note_on_c, 6, 66, 0
12, 70260, Note_on_c, 6, 64, 90
12, 70319, Note_on_c, 6, 64, 0
12, 70320, Note_on_c, 6, 63, 90
12, 70379, Note_on_c, 6, 63, 0
12, 70380, Note_on_c, 6, 61, 90
12, 70439, Note_on_c, 6, 61, 0
12, 70440, Note_on_c, 6, 66, 90
12, 70559, Note_on_c, 6, 66, 0
12, 70560, Note_on_c, 6, 68, 90
12, 70589, Note_on_c, 6, 68, 0
12, 70590, Note_on_c, 6, 66, 90
12, 70619, Note_on_c, 6, 66, 0
12, 70620, Note_on_c, 6, 65, 90
12, 70739, Note_on_c, 6, 65, 0
12, 70860, Note_on_c, 6, 61, 90
12, 70979, Note_on_c, 6, 61, 0
12, 71100, Note_on_c, 6, 61, 90
12, 71219, Note_on_c, 6, 61, 0
12, 71340, Note_on_c, 6, 61, 90
12, 71459, Note_on_c, 6, 61, 0
12, 71580, Note_on_c, 6, 65, 90
12, 71699, Note_on_c, 6, 65, 0
12, 71820, Note_on_c, 6, 68, 90
12, 71939, Note_on_c, 6, 68, 0
12, 72060, Note_on_c, 6, 71, 90
12, 72299, Note_on_c, 6, 71, 0
12, 72930, Note_on_c, 6, 71, 90
12, 72959, Note_on_c, 6, 71, 0
12, 72960, Note_on_c, 6, 69, 90
12, 72989, Note_on_c, 6, 69, 0
12, 72990, Note_on_c, 6, 68, 90
12, 73019, Note_on_c, 6, 68, 0
12, 73020, Note_on_c, 6, 66, 90
12, 73079, Note_on_c, 6, 66, 0
12, 73080, Note_on_c, 6, 61, 90
12, 73139, Note_on_c, 6, 61, 0
12, 73140, Note_on_c, 6, 66, 90
12, 73199, Note_on_c, 6, 66, 0
12, 73200, Note_on_c, 6, 61, 90
12, 73259, Note_on_c, 6, 61, 0
12, 73260, Note_on_c, 6, 61, 90
12, 73319, Note_on_c, 6, 61, 0
12, 73320, Note_on_c, 6, 61, 90
12, 73379, Note_on_c, 6, 61, 0
12, 73380, Note_on_c, 6, 61, 90
12, 73439, Note_on_c, 6, 61, 0
12, 73440, Note_on_c, 6, 56, 90
12, 73499, Note_on_c, 6, 56, 0
12, 73500, Note_on_c, 6, 57, 90
12, 73589, Note_on_c, 6, 57, 0
12, 73590, Note_on_c, 6, 56, 90
12, 73619, Note_on_c, 6, 56, 0
12, 73620, Note_on_c, 6, 56, 90
12, 73679, Note_on_c, 6, 56, 0
12, 73680, Note_on_c, 6, 49, 90
12, 73739, Note_on_c, 6, 49, 0
12, 73740, Note_on_c, 6, 49, 90
12, 73979, Note_on_c, 6, 49, 0
12, 91260, Control_c, 6, 0, 0
12, 91260, Note_on_c, 6, 64, 100
12, 91497, Note_on_c, 6, 64, 0
12, 91500, Note_on_c, 6, 62, 100
12, 91557, Note_on_c, 6, 62, 0
12, 91560, Note_on_c, 6, 60, 100
12, 91617, Note_on_c, 6, 60, 0
12, 91620, Note_on_c, 6, 60, 100
12, 91677, Note_on_c, 6, 60, 0
12, 91680, Note_on_c, 6, 59, 100
12, 91737, Note_on_c, 6, 59, 0
12, 91740, Note_on_c, 6, 57, 100
12, 91797, Note_on_c, 6, 57, 0
12, 91800, Note_on_c, 6, 64, 100
12, 91857, Note_on_c, 6, 64, 0
12, 91860, Note_on_c, 6, 63, 100
12, 91917, Note_on_c, 6, 63, 0
12, 91920, Note_on_c, 6, 64, 100
12, 91977, Note_on_c, 6, 64, 0
12, 91980, Note_on_c, 6, 66, 100
12, 92157, Note_on_c, 6, 66, 0
12, 92160, Note_on_c, 6, 59, 100
12, 92457, Note_on_c, 6, 59, 0
12, 92460, Note_on_c, 6, 64, 100
12, 92517, Note_on_c, 6, 64, 0
12, 92520, Note_on_c, 6, 64, 100
12, 92577, Note_on_c, 6, 64, 0
12, 92580, Note_on_c, 6, 62, 100
12, 92637, Note_on_c, 6, 62, 0
12, 92640, Note_on_c, 6, 64, 100
12, 92697, Note_on_c, 6, 64, 0
12, 92700, Note_on_c, 6, 64, 100
12, 92937, Note_on_c, 6, 64, 0
12, 92940, Note_on_c, 6, 63, 100
12, 92997, Note_on_c, 6, 63, 0
12, 93000, Note_on_c, 6, 64, 100
12, 93057, Note_on_c, 6, 64, 0
12, 93060, Note_on_c, 6, 66, 100
12, 93177, Note_on_c, 6, 66, 0
12, 93180, Note_on_c, 6, 63, 100
12, 93237, Note_on_c, 6, 63, 0
12, 93240, Note_on_c, 6, 59, 100
12, 93357, Note_on_c, 6, 59, 0
12, 93360, Note_on_c, 6, 69, 100
12, 93417, Note_on_c, 6, 69, 0
12, 93420, Note_on_c, 6, 67, 100
12, 93477, Note_on_c, 6, 67, 0
12, 93480, Note_on_c, 6, 63, 100
12, 93537, Note_on_c, 6, 63, 0
12, 93540, Note_on_c, 6, 64, 100
12, 93597, Note_on_c, 6, 64, 0
12, 93600, Note_on_c, 6, 59, 100
12, 93717, Note_on_c, 6, 59, 0
12, 93720, Note_on_c, 6, 57, 100
12, 93777, Note_on_c, 6, 57, 0
12, 93780, Note_on_c, 6, 55, 100
12, 93897, Note_on_c, 6, 55, 0
12, 96300, Note_on_c, 6, 63, 100
12, 96897, Note_on_c, 6, 63, 0
12, 96900, Note_on_c, 6, 64, 100
12, 96957, Note_on_c, 6, 64, 0
12, 96960, Note_on_c, 6, 66, 100
12, 97017, Note_on_c, 6, 66, 0
12, 97020, Note_on_c, 6, 66, 100
12, 97200, Note_on_c, 6, 66, 0
12, 97200, Note_on_c, 6, 59, 100
12, 97497, Note_on_c, 6, 59, 0
12, 97500, Note_on_c, 6, 64, 100
12, 97557, Note_on_c, 6, 64, 0
12, 97560, Note_on_c, 6, 64, 100
12, 97617, Note_on_c, 6, 64, 0
12, 97620, Note_on_c, 6, 68, 100
12, 97677, Note_on_c, 6, 68, 0
12, 97680, Note_on_c, 6, 66, 100
12, 97737, Note_on_c, 6, 66, 0
12, 97740, Note_on_c, 6, 65, 100
12, 97797, Note_on_c, 6, 65, 0
12, 97800, Note_on_c, 6, 66, 100
12, 97857, Note_on_c, 6, 66, 0
12, 97860, Note_on_c, 6, 68, 100
12, 97917, Note_on_c, 6, 68, 0
12, 97920, Note_on_c, 6, 61, 100
12, 98217, Note_on_c, 6, 61, 0
12, 98220, Note_on_c, 6, 58, 100
12, 98277, Note_on_c, 6, 58, 0
12, 98280, Note_on_c, 6, 61, 100
12, 98337, Note_on_c, 6, 61, 0
12, 98340, Note_on_c, 6, 62, 100
12, 98397, Note_on_c, 6, 62, 0
12, 98400, Note_on_c, 6, 64, 100
12, 98457, Note_on_c, 6, 64, 0
12, 98460, Note_on_c, 6, 62, 100
12, 98517, Note_on_c, 6, 62, 0
12, 98520, Note_on_c, 6, 58, 100
12, 98577, Note_on_c, 6, 58, 0
12, 98580, Note_on_c, 6, 59, 100
12, 98637, Note_on_c, 6, 59, 0
12, 98640, Note_on_c, 6, 67, 100
12, 98757, Note_on_c, 6, 67, 0
12, 98760, Note_on_c, 6, 66, 100
12, 98817, Note_on_c, 6, 66, 0
12, 98820, Note_on_c, 6, 66, 100
12, 98937, Note_on_c, 6, 66, 0
12, 99180, Note_on_c, 6, 70, 100
12, 99237, Note_on_c, 6, 70, 0
12, 99240, Note_on_c, 6, 71, 100
12, 99297, Note_on_c, 6, 71, 0
12, 99300, Note_on_c, 6, 73, 100
12, 99357, Note_on_c, 6, 73, 0
12, 99360, Note_on_c, 6, 64, 100
12, 99417, Note_on_c, 6, 64, 0
12, 99420, Note_on_c, 6, 66, 100
12, 99477, Note_on_c, 6, 66, 0
12, 99480, Note_on_c, 6, 67, 100
12, 99537, Note_on_c, 6, 67, 0
12, 99540, Note_on_c, 6, 67, 100
12, 99657, Note_on_c, 6, 67, 0
12, 99900, Note_on_c, 6, 54, 100
12, 99957, Note_on_c, 6, 54, 0
12, 99960, Note_on_c, 6, 55, 100
12, 100017, Note_on_c, 6, 55, 0
12, 100020, Note_on_c, 6, 57, 100
12, 100077, Note_on_c, 6, 57, 0
12, 100080, Note_on_c, 6, 54, 100
12, 100137, Note_on_c, 6, 54, 0
12, 100140, Note_on_c, 6, 55, 100
12, 100197, Note_on_c, 6, 55, 0
12, 100200, Note_on_c, 6, 57, 100
12, 100257, Note_on_c, 6, 57, 0
12, 100260, Note_on_c, 6, 59, 100
12, 100497, Note_on_c, 6, 59, 0
12, 100500, Note_on_c, 6, 58, 100
12, 100557, Note_on_c, 6, 58, 0
12, 100560, Note_on_c, 6, 59, 100
12, 100617, Note_on_c, 6, 59, 0
12, 100620, Note_on_c, 6, 66, 100
12, 100797, Note_on_c, 6, 66, 0
12, 100920, Note_on_c, 6, 64, 100
12, 100977, Note_on_c, 6, 64, 0
12, 100980, Note_on_c, 6, 62, 100
12, 101037, Note_on_c, 6, 62, 0
12, 101040, Note_on_c, 6, 64, 100
12, 101097, Note_on_c, 6, 64, 0
12, 101100, Note_on_c, 6, 66, 100
12, 101157, Note_on_c, 6, 66, 0
12, 101160, Note_on_c, 6, 61, 100
12, 101337, Note_on_c, 6, 61, 0
12, 101340, Note_on_c, 6, 62, 100
12, 101457, Note_on_c, 6, 62, 0
12, 102360, Note_on_c, 6, 57, 100
12, 102417, Note_on_c, 6, 57, 0
12, 102420, Note_on_c, 6, 54, 100
12, 102537, Note_on_c, 6, 54, 0
12, 102540, Note_on_c, 6, 63, 100
12, 102597, Note_on_c, 6, 63, 0
12, 102600, Note_on_c, 6, 63, 100
12, 102717, Note_on_c, 6, 63, 0
12, 102720, Note_on_c, 6, 63, 100
12, 102777, Note_on_c, 6, 63, 0
12, 102780, Note_on_c, 6, 59, 100
12, 102897, Note_on_c, 6, 59, 0
12, 102900, Note_on_c, 6, 64, 100
12, 102957, Note_on_c, 6, 64, 0
12, 103500, Note_on_c, 6, 69, 100
12, 103620, Note_on_c, 6, 69, 0
12, 103620, Note_on_c, 6, 65, 100
12, 103677, Note_on_c, 6, 65, 0
12, 103680, Note_on_c, 6, 70, 100
12, 103737, Note_on_c, 6, 70, 0
12, 103740, Note_on_c, 6, 69, 100
12, 103797, Note_on_c, 6, 69, 0
12, 103800, Note_on_c, 6, 67, 100
12, 103857, Note_on_c, 6, 67, 0
12, 103860, Note_on_c, 6, 67, 100
12, 103917, Note_on_c, 6, 67, 0
12, 103920, Note_on_c, 6, 69, 100
12, 103977, Note_on_c, 6, 69, 0
12, 103980, Note_on_c, 6, 70, 100
12, 104037, Note_on_c, 6, 70, 0
12, 104040, Note_on_c, 6, 70, 100
12, 104277, Note_on_c, 6, 70, 0
12, 104280, Note_on_c, 6, 69, 100
12, 104337, Note_on_c, 6, 69, 0
12, 104340, Note_on_c, 6, 67, 100
12, 104397, Note_on_c, 6, 67, 0
12, 104400, Note_on_c, 6, 67, 100
12, 104457, Note_on_c, 6, 67, 0
12, 104460, Note_on_c, 6, 65, 100
12, 104517, Note_on_c, 6, 65, 0
12, 104520, Note_on_c, 6, 64, 100
12, 104577, Note_on_c, 6, 64, 0
12, 104580, Note_on_c, 6, 69, 100
12, 104817, Note_on_c, 6, 69, 0
12, 104820, Note_on_c, 6, 62, 100
12, 104877, Note_on_c, 6, 62, 0
12, 104880, Note_on_c, 6, 60, 100
12, 104937, Note_on_c, 6, 60, 0
12, 104940, Note_on_c, 6, 59, 100
12, 105117, Note_on_c, 6, 59, 0
12, 105120, Note_on_c, 6, 64, 100
12, 105357, Note_on_c, 6, 64, 0
12, 105360, Note_on_c, 6, 62, 100
12, 105417, Note_on_c, 6, 62, 0
12, 105420, Note_on_c, 6, 65, 100
12, 105477, Note_on_c, 6, 65, 0
12, 105660, Note_on_c, 6, 68, 100
12, 105717, Note_on_c, 6, 68, 0
12, 105720, Note_on_c, 6, 69, 100
12, 105777, Note_on_c, 6, 69, 0
12, 105780, Note_on_c, 6, 71, 100
12, 105837, Note_on_c, 6, 71, 0
12, 105840, Note_on_c, 6, 62, 100
12, 105897, Note_on_c, 6, 62, 0
12, 105900, Note_on_c, 6, 64, 100
12, 105957, Note_on_c, 6, 64, 0
12, 105960, Note_on_c, 6, 65, 100
12, 106017, Note_on_c, 6, 65, 0
12, 106020, Note_on_c, 6, 65, 100
12, 106137, Note_on_c, 6, 65, 0
12, 106380, Note_on_c, 6, 52, 100
12, 106437, Note_on_c, 6, 52, 0
12, 106440, Note_on_c, 6, 53, 100
12, 106497, Note_on_c, 6, 53, 0
12, 106500, Note_on_c, 6, 55, 100
12, 106557, Note_on_c, 6, 55, 0
12, 106560, Note_on_c, 6, 52, 100
12, 106617, Note_on_c, 6, 52, 0
12, 106620, Note_on_c, 6, 53, 100
12, 106677, Note_on_c, 6, 53, 0
12, 106680, Note_on_c, 6, 55, 100
12, 106737, Note_on_c, 6, 55, 0
12, 106740, Note_on_c, 6, 57, 100
12, 106977, Note_on_c, 6, 57, 0
12, 106980, Note_on_c, 6, 56, 100
12, 107037, Note_on_c, 6, 56, 0
12, 107040, Note_on_c, 6, 57, 100
12, 107097, Note_on_c, 6, 57, 0
12, 107100, Note_on_c, 6, 64, 100
12, 107277, Note_on_c, 6, 64, 0
12, 107400, Note_on_c, 6, 62, 100
12, 107457, Note_on_c, 6, 62, 0
12, 107460, Note_on_c, 6, 60, 100
12, 107517, Note_on_c, 6, 60, 0
12, 107520, Note_on_c, 6, 62, 100
12, 107577, Note_on_c, 6, 62, 0
12, 107580, Note_on_c, 6, 64, 100
12, 107637, Note_on_c, 6, 64, 0
12, 107640, Note_on_c, 6, 59, 100
12, 107817, Note_on_c, 6, 59, 0
12, 107820, Note_on_c, 6, 60, 100
12, 107937, Note_on_c, 6, 60, 0
12, 108840, Note_on_c, 6, 64, 100
12, 108897, Note_on_c, 6, 64, 0
12, 108900, Note_on_c, 6, 61, 100
12, 109017, Note_on_c, 6, 61, 0
12, 109020, Note_on_c, 6, 70, 100
12, 109077, Note_on_c, 6, 70, 0
12, 109080, Note_on_c, 6, 70, 100
12, 109197, Note_on_c, 6, 70, 0
12, 109200, Note_on_c, 6, 70, 100
12, 109257, Note_on_c, 6, 70, 0
12, 109260, Note_on_c, 6, 66, 100
12, 109377, Note_on_c, 6, 66, 0
12, 109380, Note_on_c, 6, 71, 100
12, 109437, Note_on_c, 6, 71, 0
12, 109440, Note_on_c, 6, 66, 100
12, 109497, Note_on_c, 6, 66, 0
12, 109500, Note_on_c, 6, 64, 100
12, 109557, Note_on_c, 6, 64, 0
12, 109560, Note_on_c, 6, 63, 100
12, 109617, Note_on_c, 6, 63, 0
12, 109620, Note_on_c, 6, 63, 100
12, 109737, Note_on_c, 6, 63, 0
12, 109980, Note_on_c, 6, 64, 100
12, 110337, Note_on_c, 6, 64, 0
12, 110340, Note_on_c, 6, 63, 100
12, 110577, Note_on_c, 6, 63, 0
12, 110580, Note_on_c, 6, 64, 100
12, 110637, Note_on_c, 6, 64, 0
12, 110640, Note_on_c, 6, 66, 100
12, 110697, Note_on_c, 6, 66, 0
12, 110700, Note_on_c, 6, 66, 100
12, 110877, Note_on_c, 6, 66, 0
12, 110880, Note_on_c, 6, 59, 100
12, 111117, Note_on_c, 6, 59, 0
12, 111120, Note_on_c, 6, 60, 100
12, 111177, Note_on_c, 6, 60, 0
12, 111180, Note_on_c, 6, 62, 100
12, 111237, Note_on_c, 6, 62, 0
12, 111240, Note_on_c, 6, 64, 100
12, 111657, Note_on_c, 6, 64, 0
12, 111660, Note_on_c, 6, 54, 100
12, 111717, Note_on_c, 6, 54, 0
12, 111720, Note_on_c, 6, 52, 100
12, 111777, Note_on_c, 6, 52, 0
12, 111780, Note_on_c, 6, 59, 100
12, 111957, Note_on_c, 6, 59, 0
12, 111960, Note_on_c, 6, 66, 100
12, 112257, Note_on_c, 6, 66, 0
12, 112260, Note_on_c, 6, 64, 100
12, 112317, Note_on_c, 6, 64, 0
12, 112320, Note_on_c, 6, 66, 100
12, 112437, Note_on_c, 6, 66, 0
12, 112440, Note_on_c, 6, 59, 100
12, 112497, Note_on_c, 6, 59, 0
12, 112500, Note_on_c, 6, 64, 100
12, 112617, Note_on_c, 6, 64, 0
12, 113580, Note_on_c, 6, 64, 100
12, 113817, Note_on_c, 6, 64, 0
12, 113820, Note_on_c, 6, 62, 100
12, 113877, Note_on_c, 6, 62, 0
12, 113880, Note_on_c, 6, 60, 100
12, 113937, Note_on_c, 6, 60, 0
12, 113940, Note_on_c, 6, 60, 100
12, 113997, Note_on_c, 6, 60, 0
12, 114000, Note_on_c, 6, 59, 100
12, 114057, Note_on_c, 6, 59, 0
12, 114060, Note_on_c, 6, 57, 100
12, 114117, Note_on_c, 6, 57, 0
12, 114120, Note_on_c, 6, 64, 100
12, 114177, Note_on_c, 6, 64, 0
12, 114180, Note_on_c, 6, 63, 100
12, 114237, Note_on_c, 6, 63, 0
12, 114240, Note_on_c, 6, 64, 100
12, 114297, Note_on_c, 6, 64, 0
12, 114300, Note_on_c, 6, 66, 100
12, 114477, Note_on_c, 6, 66, 0
12, 114480, Note_on_c, 6, 59, 100
12, 114777, Note_on_c, 6, 59, 0
12, 114780, Note_on_c, 6, 64, 100
12, 114837, Note_on_c, 6, 64, 0
12, 114840, Note_on_c, 6, 64, 100
12, 114897, Note_on_c, 6, 64, 0
12, 114900, Note_on_c, 6, 62, 100
12, 114957, Note_on_c, 6, 62, 0
12, 114960, Note_on_c, 6, 64, 100
12, 115017, Note_on_c, 6, 64, 0
12, 115020, Note_on_c, 6, 64, 100
12, 115257, Note_on_c, 6, 64, 0
12, 115260, Note_on_c, 6, 63, 100
12, 115317, Note_on_c, 6, 63, 0
12, 115320, Note_on_c, 6, 64, 100
12, 115377, Note_on_c, 6, 64, 0
12, 115380, Note_on_c, 6, 66, 100
12, 115497, Note_on_c, 6, 66, 0
12, 115500, Note_on_c, 6, 63, 100
12, 115557, Note_on_c, 6, 63, 0
12, 115560, Note_on_c, 6, 59, 100
12, 115677, Note_on_c, 6, 59, 0
12, 115680, Note_on_c, 6, 69, 100
12, 115737, Note_on_c, 6, 69, 0
12, 115740, Note_on_c, 6, 67, 100
12, 115797, Note_on_c, 6, 67, 0
12, 115800, Note_on_c, 6, 63, 100
12, 115857, Note_on_c, 6, 63, 0
12, 115860, Note_on_c, 6, 64, 100
12, 115917, Note_on_c, 6, 64, 0
12, 115920, Note_on_c, 6, 59, 100
12, 116037, Note_on_c, 6, 59, 0
12, 116040, Note_on_c, 6, 57, 100
12, 116097, Note_on_c, 6, 57, 0
12, 116100, Note_on_c, 6, 55, 100
12, 116337, Note_on_c, 6, 55, 0
12, 117180, Control_c, 6, 0, 0
12, 117360, Note_on_c, 6, 67, 100
12, 117400, Note_on_c, 6, 67, 0
12, 117420, Note_on_c, 6, 62, 100
12, 117460, Note_on_c, 6, 62, 0
12, 117480, Note_on_c, 6, 67, 100
12, 117520, Note_on_c, 6, 67, 0
12, 117540, Note_on_c, 6, 59, 100
12, 117600, Note_on_c, 6, 59, 0
12, 117630, Note_on_c, 6, 59, 100
12, 117650, Note_on_c, 6, 59, 0
12, 117660, Note_on_c, 6, 64, 100
12, 117740, Note_on_c, 6, 64, 0
12, 117840, Note_on_c, 6, 64, 100
12, 117880, Note_on_c, 6, 64, 0
12, 117900, Note_on_c, 6, 62, 100
12, 117940, Note_on_c, 6, 62, 0
12, 117960, Note_on_c, 6, 67, 100
12, 118000, Note_on_c, 6, 67, 0
12, 118020, Note_on_c, 6, 59, 100
12, 118080, Note_on_c, 6, 59, 0
12, 118110, Note_on_c, 6, 59, 100
12, 118130, Note_on_c, 6, 59, 0
12, 118140, Note_on_c, 6, 64, 100
12, 118220, Note_on_c, 6, 64, 0
12, 119280, Note_on_c, 6, 74, 100
12, 119320, Note_on_c, 6, 74, 0
12, 119340, Note_on_c, 6, 69, 100
12, 119380, Note_on_c, 6, 69, 0
12, 119400, Note_on_c, 6, 74, 100
12, 119440, Note_on_c, 6, 74, 0
12, 119460, Note_on_c, 6, 66, 100
12, 119520, Note_on_c, 6, 66, 0
12, 119550, Note_on_c, 6, 66, 100
12, 119570, Note_on_c, 6, 66, 0
12, 119580, Note_on_c, 6, 71, 100
12, 119660, Note_on_c, 6, 71, 0
12, 119760, Note_on_c, 6, 71, 100
12, 119800, Note_on_c, 6, 71, 0
12, 119820, Note_on_c, 6, 69, 100
12, 119860, Note_on_c, 6, 69, 0
12, 119880, Note_on_c, 6, 74, 100
12, 119920, Note_on_c, 6, 74, 0
12, 119940, Note_on_c, 6, 66, 100
12, 120000, Note_on_c, 6, 66, 0
12, 120030, Note_on_c, 6, 66, 100
12, 120050, Note_on_c, 6, 66, 0
12, 120060, Note_on_c, 6, 71, 100
12, 120140, Note_on_c, 6, 71, 0
12, 121200, Note_on_c, 6, 67, 100
12, 121240, Note_on_c, 6, 67, 0
12, 121260, Note_on_c, 6, 62, 100
12, 121300, Note_on_c, 6, 62, 0
12, 121320, Note_on_c, 6, 67, 100
12, 121360, Note_on_c, 6, 67, 0
12, 121380, Note_on_c, 6, 59, 100
12, 121440, Note_on_c, 6, 59, 0
12, 121470, Note_on_c, 6, 59, 100
12, 121490, Note_on_c, 6, 59, 0
12, 121500, Note_on_c, 6, 64, 100
12, 121580, Note_on_c, 6, 64, 0
12, 121680, Note_on_c, 6, 64, 100
12, 121720, Note_on_c, 6, 64, 0
12, 121740, Note_on_c, 6, 62, 100
12, 121780, Note_on_c, 6, 62, 0
12, 121800, Note_on_c, 6, 67, 100
12, 121840, Note_on_c, 6, 67, 0
12, 121860, Note_on_c, 6, 59, 100
12, 121920, Note_on_c, 6, 59, 0
12, 121950, Note_on_c, 6, 59, 100
12, 121970, Note_on_c, 6, 59, 0
12, 121980, Note_on_c, 6, 64, 100
12, 122060, Note_on_c, 6, 64, 0
12, 123120, Note_on_c, 6, 74, 100
12, 123160, Note_on_c, 6, 74, 0
12, 123180, Note_on_c, 6, 69, 100
12, 123220, Note_on_c, 6, 69, 0
12, 123240, Note_on_c, 6, 74, 100
12, 123280, Note_on_c, 6, 74, 0
12, 123300, Note_on_c, 6, 66, 100
12, 123360, Note_on_c, 6, 66, 0
12, 123390, Note_on_c, 6, 66, 100
12, 123410, Note_on_c, 6, 66, 0
12, 123420, Note_on_c, 6, 71, 100
12, 123500, Note_on_c, 6, 71, 0
12, 123600, Note_on_c, 6, 71, 100
12, 123640, Note_on_c, 6, 71, 0
12, 123660, Note_on_c, 6, 69, 100
12, 123700, Note_on_c, 6, 69, 0
12, 123720, Note_on_c, 6, 74, 100
12, 123760, Note_on_c, 6, 74, 0
12, 123780, Note_on_c, 6, 66, 100
12, 123840, Note_on_c, 6, 66, 0
12, 123870, Note_on_c, 6, 66, 100
12, 123890, Note_on_c, 6, 66, 0
12, 123900, Note_on_c, 6, 71, 100
12, 123980, Note_on_c, 6, 71, 0
12, 125040, Note_on_c, 6, 69, 100
12, 125080, Note_on_c, 6, 69, 0
12, 125100, Note_on_c, 6, 64, 100
12, 125140, Note_on_c, 6, 64, 0
12, 125160, Note_on_c, 6, 69, 100
12, 125200, Note_on_c, 6, 69, 0
12, 125220, Note_on_c, 6, 61, 100
12, 125280, Note_on_c, 6, 61, 0
12, 125310, Note_on_c, 6, 61, 100
12, 125330, Note_on_c, 6, 61, 0
12, 125340, Note_on_c, 6, 66, 100
12, 125420, Note_on_c, 6, 66, 0
12, 125520, Note_on_c, 6, 66, 100
12, 125560, Note_on_c, 6, 66, 0
12, 125580, Note_on_c, 6, 64, 100
12, 125620, Note_on_c, 6, 64, 0
12, 125640, Note_on_c, 6, 69, 100
12, 125680, Note_on_c, 6, 69, 0
12, 125700, Note_on_c, 6, 61, 100
12, 125760, Note_on_c, 6, 61, 0
12, 125790, Note_on_c, 6, 61, 100
12, 125810, Note_on_c, 6, 61, 0
12, 125820, Note_on_c, 6, 66, 100
12, 125900, Note_on_c, 6, 66, 0
12, 126840, Note_on_c, 6, 66, 100
12, 126860, Note_on_c, 6, 66, 0
12, 126870, Note_on_c, 6, 67, 100
12, 126890, Note_on_c, 6, 67, 0
12, 126900, Note_on_c, 6, 69, 100
12, 126940, Note_on_c, 6, 69, 0
12, 126960, Note_on_c, 6, 74, 100
12, 127000, Note_on_c, 6, 74, 0
12, 127020, Note_on_c, 6, 62, 100
12, 127080, Note_on_c, 6, 62, 0
12, 127110, Note_on_c, 6, 62, 100
12, 127130, Note_on_c, 6, 62, 0
12, 127140, Note_on_c, 6, 62, 100
12, 127220, Note_on_c, 6, 62, 0
12, 127320, Note_on_c, 6, 62, 100
12, 127360, Note_on_c, 6, 62, 0
12, 127380, Note_on_c, 6, 67, 100
12, 127420, Note_on_c, 6, 67, 0
12, 127440, Note_on_c, 6, 71, 100
12, 127480, Note_on_c, 6, 71, 0
12, 127500, Note_on_c, 6, 69, 100
12, 127560, Note_on_c, 6, 69, 0
12, 127590, Note_on_c, 6, 62, 100
12, 127610, Note_on_c, 6, 62, 0
12, 127620, Note_on_c, 6, 62, 100
12, 127660, Note_on_c, 6, 62, 0
12, 127680, Note_on_c, 6, 66, 100
12, 127720, Note_on_c, 6, 66, 0
12, 127740, Note_on_c, 6, 59, 100
12, 127780, Note_on_c, 6, 59, 0
12, 127800, Note_on_c, 6, 67, 100
12, 127840, Note_on_c, 6, 67, 0
12, 127860, Note_on_c, 6, 62, 100
12, 127900, Note_on_c, 6, 62, 0
12, 127920, Note_on_c, 6, 59, 100
12, 127960, Note_on_c, 6, 59, 0
12, 128040, Note_on_c, 6, 71, 100
12, 128080, Note_on_c, 6, 71, 0
12, 128100, Note_on_c, 6, 61, 100
12, 128140, Note_on_c, 6, 61, 0
12, 128160, Note_on_c, 6, 64, 100
12, 128200, Note_on_c, 6, 64, 0
12, 128280, Note_on_c, 6, 69, 100
12, 128320, Note_on_c, 6, 69, 0
12, 128340, Note_on_c, 6, 74, 100
12, 128380, Note_on_c, 6, 74, 0
12, 128400, Note_on_c, 6, 67, 100
12, 128440, Note_on_c, 6, 67, 0
12, 128520, Note_on_c, 6, 69, 100
12, 128560, Note_on_c, 6, 69, 0
12, 128580, Note_on_c, 6, 68, 100
12, 128620, Note_on_c, 6, 68, 0
12, 128640, Note_on_c, 6, 71, 100
12, 128680, Note_on_c, 6, 71, 0
12, 128760, Note_on_c, 6, 61, 100
12, 128800, Note_on_c, 6, 61, 0
12, 128820, Note_on_c, 6, 66, 100
12, 128860, Note_on_c, 6, 66, 0
12, 128880, Note_on_c, 6, 54, 100
12, 128920, Note_on_c, 6, 54, 0
12, 129000, Note_on_c, 6, 59, 100
12, 129040, Note_on_c, 6, 59, 0
12, 129060, Note_on_c, 6, 64, 100
12, 129100, Note_on_c, 6, 64, 0
12, 129120, Note_on_c, 6, 52, 100
12, 129160, Note_on_c, 6, 52, 0
12, 129240, Note_on_c, 6, 59, 100
12, 129280, Note_on_c, 6, 59, 0
12, 129300, Note_on_c, 6, 64, 100
12, 129340, Note_on_c, 6, 64, 0
12, 129360, Note_on_c, 6, 61, 100
12, 129400, Note_on_c, 6, 61, 0
12, 129420, Note_on_c, 6, 66, 100
12, 129460, Note_on_c, 6, 66, 0
12, 129600, Note_on_c, 6, 74, 100
12, 129640, Note_on_c, 6, 74, 0
12, 129660, Note_on_c, 6, 71, 100
12, 129700, Note_on_c, 6, 71, 0
12, 129720, Note_on_c, 6, 67, 100
12, 129760, Note_on_c, 6, 67, 0
12, 129930, Note_on_c, 6, 57, 100
12, 129950, Note_on_c, 6, 57, 0
12, 129960, Note_on_c, 6, 61, 100
12, 129980, Note_on_c, 6, 61, 0
12, 129990, Note_on_c, 6, 64, 100
12, 130010, Note_on_c, 6, 64, 0
12, 130020, Note_on_c, 6, 69, 100
12, 130040, Note_on_c, 6, 69, 0
12, 130050, Note_on_c, 6, 64, 100
12, 130070, Note_on_c, 6, 64, 0
12, 130080, Note_on_c, 6, 61, 100
12, 130100, Note_on_c, 6, 61, 0
12, 130110, Note_on_c, 6, 64, 100
12, 130130, Note_on_c, 6, 64, 0
12, 130140, Note_on_c, 6, 69, 100
12, 130160, Note_on_c, 6, 69, 0
12, 130170, Note_on_c, 6, 64, 100
12, 130190, Note_on_c, 6, 64, 0
12, 130200, Note_on_c, 6, 61, 100
12, 130220, Note_on_c, 6, 61, 0
12, 130230, Note_on_c, 6, 64, 100
12, 130250, Note_on_c, 6, 64, 0
12, 130260, Note_on_c, 6, 69, 100
12, 130280, Note_on_c, 6, 69, 0
12, 130290, Note_on_c, 6, 64, 100
12, 130310, Note_on_c, 6, 64, 0
12, 130320, Note_on_c, 6, 69, 100
12, 130340, Note_on_c, 6, 69, 0
12, 130350, Note_on_c, 6, 73, 100
12, 130370, Note_on_c, 6, 73, 0
12, 130380, Note_on_c, 6, 68, 100
12, 130420, Note_on_c, 6, 68, 0
12, 130440, Note_on_c, 6, 68, 100
12, 130480, Note_on_c, 6, 68, 0
12, 130740, Note_on_c, 6, 66, 100
12, 130978, Note_on_c, 6, 66, 0
12, 130980, Note_on_c, 6, 66, 100
12, 131098, Note_on_c, 6, 66, 0
12, 131100, Note_on_c, 6, 71, 100
12, 131338, Note_on_c, 6, 71, 0
12, 131340, Note_on_c, 6, 68, 100
12, 131458, Note_on_c, 6, 68, 0
12, 131460, Note_on_c, 6, 59, 100
12, 131518, Note_on_c, 6, 59, 0
12, 131520, Note_on_c, 6, 61, 100
12, 131578, Note_on_c, 6, 61, 0
12, 131580, Note_on_c, 6, 62, 100
12, 131698, Note_on_c, 6, 62, 0
12, 131700, Note_on_c, 6, 64, 100
12, 131758, Note_on_c, 6, 64, 0
12, 131760, Note_on_c, 6, 66, 100
12, 131818, Note_on_c, 6, 66, 0
12, 131820, Note_on_c, 6, 61, 100
12, 131938, Note_on_c, 6, 61, 0
12, 131940, Note_on_c, 6, 70, 100
12, 132058, Note_on_c, 6, 70, 0
12, 132060, Note_on_c, 6, 66, 100
12, 132178, Note_on_c, 6, 66, 0
12, 132180, Note_on_c, 6, 66, 100
12, 132418, Note_on_c, 6, 66, 0
12, 132420, Note_on_c, 6, 67, 100
12, 132538, Note_on_c, 6, 67, 0
12, 132540, Note_on_c, 6, 61, 100
12, 132778, Note_on_c, 6, 61, 0
12, 132780, Note_on_c, 6, 59, 100
12, 132838, Note_on_c, 6, 59, 0
12, 132840, Note_on_c, 6, 61, 100
12, 132898, Note_on_c, 6, 61, 0
12, 132900, Note_on_c, 6, 62, 100
12, 132958, Note_on_c, 6, 62, 0
12, 132960, Note_on_c, 6, 61, 100
12, 133018, Note_on_c, 6, 61, 0
12, 133020, Note_on_c, 6, 64, 100
12, 133138, Note_on_c, 6, 64, 0
12, 133140, Note_on_c, 6, 69, 100
12, 133198, Note_on_c, 6, 69, 0
12, 133200, Note_on_c, 6, 71, 100
12, 133258, Note_on_c, 6, 71, 0
12, 133260, Note_on_c, 6, 73, 100
12, 133498, Note_on_c, 6, 73, 0
12, 133500, Note_on_c, 6, 69, 100
12, 133978, Note_on_c, 6, 69, 0
12, 219660, Control_c, 6, 0, 0
12, 219660, Note_on_c, 6, 64, 100
12, 219780, Note_on_c, 6, 64, 0
12, 219840, Note_on_c, 6, 64, 100
12, 219880, Note_on_c, 6, 64, 0
12, 219900, Note_on_c, 6, 64, 100
12, 220060, Note_on_c, 6, 64, 0
12, 221580, Note_on_c, 6, 59, 100
12, 221758, Note_on_c, 6, 59, 0
12, 221760, Note_on_c, 6, 59, 100
12, 221818, Note_on_c, 6, 59, 0
12, 221820, Note_on_c, 6, 59, 100
12, 222058, Note_on_c, 6, 59, 0
12, 222060, Note_on_c, 6, 59, 100
12, 222298, Note_on_c, 6, 59, 0
12, 222300, Note_on_c, 6, 59, 100
12, 222538, Note_on_c, 6, 59, 0
12, 223980, Note_on_c, 6, 66, 90
12, 224099, Note_on_c, 6, 66, 0
12, 224160, Note_on_c, 6, 66, 90
12, 224219, Note_on_c, 6, 66, 0
12, 224220, Note_on_c, 6, 66, 90
12, 224459, Note_on_c, 6, 66, 0
12, 224460, Note_on_c, 6, 66, 90
12, 224579, Note_on_c, 6, 66, 0
12, 224580, Note_on_c, 6, 62, 90
12, 224639, Note_on_c, 6, 62, 0
12, 224700, Note_on_c, 6, 62, 90
12, 224939, Note_on_c, 6, 62, 0
12, 226380, Note_on_c, 6, 74, 100
12, 226500, Note_on_c, 6, 74, 0
12, 226500, Note_on_c, 6, 74, 90
12, 226560, Note_on_c, 6, 74, 0
12, 226560, Note_on_c, 6, 74, 90
12, 226620, Note_on_c, 6, 74, 0
12, 226620, Note_on_c, 6, 74, 100
12, 226740, Note_on_c, 6, 74, 0
12, 226740, Note_on_c, 6, 74, 100
12, 226860, Note_on_c, 6, 74, 0
12, 226860, Note_on_c, 6, 67, 100
12, 227040, Note_on_c, 6, 67, 0
12, 227040, Note_on_c, 6, 71, 90
12, 227100, Note_on_c, 6, 71, 0
12, 227100, Note_on_c, 6, 76, 90
12, 227160, Note_on_c, 6, 76, 0
12, 227160, Note_on_c, 6, 71, 90
12, 227220, Note_on_c, 6, 71, 0
12, 227220, Note_on_c, 6, 67, 90
12, 227280, Note_on_c, 6, 67, 0
12, 227280, Note_on_c, 6, 64, 90
12, 227340, Note_on_c, 6, 64, 0
12, 227340, Note_on_c, 6, 73, 90
12, 227400, Note_on_c, 6, 73, 0
12, 227400, Note_on_c, 6, 71, 90
12, 227460, Note_on_c, 6, 71, 0
12, 227460, Note_on_c, 6, 69, 90
12, 227640, Note_on_c, 6, 69, 0
12, 227640, Note_on_c, 6, 67, 90
12, 227700, Note_on_c, 6, 67, 0
12, 227700, Note_on_c, 6, 66, 90
12, 227760, Note_on_c, 6, 66, 0
12, 227760, Note_on_c, 6, 64, 90
12, 227820, Note_on_c, 6, 64, 0
12, 227820, Note_on_c, 6, 62, 100
12, 228300, Note_on_c, 6, 62, 0
12, 228300, Note_on_c, 6, 69, 100
12, 228780, Note_on_c, 6, 69, 0
12, 228780, Note_on_c, 6, 74, 90
12, 228839, Note_on_c, 6, 74, 0
12, 228840, Note_on_c, 6, 69, 90
12, 228899, Note_on_c, 6, 69, 0
12, 229140, Note_on_c, 6, 69, 90
12, 229199, Note_on_c, 6, 69, 0
12, 229200, Note_on_c, 6, 66, 90
12, 229259, Note_on_c, 6, 66, 0
12, 229500, Note_on_c, 6, 66, 90
12, 229559, Note_on_c, 6, 66, 0
12, 229560, Note_on_c, 6, 62, 90
12, 229619, Note_on_c, 6, 62, 0
12, 230280, Note_on_c, 6, 62, 90
12, 230339, Note_on_c, 6, 62, 0
12, 230340, Note_on_c, 6, 66, 90
12, 230399, Note_on_c, 6, 66, 0
12, 230400, Note_on_c, 6, 69, 90
12, 230459, Note_on_c, 6, 69, 0
12, 230460, Note_on_c, 6, 69, 90
12, 230519, Note_on_c, 6, 69, 0
12, 230520, Note_on_c, 6, 66, 90
12, 230579, Note_on_c, 6, 66, 0
12, 230580, Note_on_c, 6, 62, 90
12, 230639, Note_on_c, 6, 62, 0
12, 230640, Note_on_c, 6, 66, 90
12, 230699, Note_on_c, 6, 66, 0
12, 230700, Note_on_c, 6, 69, 90
12, 230759, Note_on_c, 6, 69, 0
12, 230760, Note_on_c, 6, 74, 90
12, 230819, Note_on_c, 6, 74, 0
12, 230820, Note_on_c, 6, 74, 90
12, 230879, Note_on_c, 6, 74, 0
12, 230880, Note_on_c, 6, 69, 90
12, 230939, Note_on_c, 6, 69, 0
12, 230940, Note_on_c, 6, 66, 90
12, 230999, Note_on_c, 6, 66, 0
12, 231360, Note_on_c, 6, 57, 90
12, 231419, Note_on_c, 6, 57, 0
12, 231420, Note_on_c, 6, 54, 90
12, 231479, Note_on_c, 6, 54, 0
12, 231480, Note_on_c, 6, 62, 90
12, 231599, Note_on_c, 6, 62, 0
12, 231600, Note_on_c, 6, 57, 90
12, 231659, Note_on_c, 6, 57, 0
12, 231660, Note_on_c, 6, 69, 90
12, 231749, Note_on_c, 6, 69, 0
12, 231750, Note_on_c, 6, 67, 90
12, 231779, Note_on_c, 6, 67, 0
12, 231780, Note_on_c, 6, 66, 90
12, 231899, Note_on_c, 6, 66, 0
12, 234240, Note_on_c, 6, 54, 90
12, 234269, Note_on_c, 6, 54, 0
12, 234270, Note_on_c, 6, 55, 90
12, 234299, Note_on_c, 6, 55, 0
12, 234300, Note_on_c, 6, 57, 90
12, 234329, Note_on_c, 6, 57, 0
12, 234330, Note_on_c, 6, 59, 90
12, 234359, Note_on_c, 6, 59, 0
12, 234360, Note_on_c, 6, 61, 90
12, 234389, Note_on_c, 6, 61, 0
12, 234390, Note_on_c, 6, 59, 90
12, 234419, Note_on_c, 6, 59, 0
12, 234420, Note_on_c, 6, 62, 90
12, 234449, Note_on_c, 6, 62, 0
12, 234450, Note_on_c, 6, 61, 90
12, 234479, Note_on_c, 6, 61, 0
12, 234480, Note_on_c, 6, 59, 90
12, 234509, Note_on_c, 6, 59, 0
12, 234510, Note_on_c, 6, 57, 90
12, 234539, Note_on_c, 6, 57, 0
12, 234540, Note_on_c, 6, 74, 90
12, 234599, Note_on_c, 6, 74, 0
12, 234600, Note_on_c, 6, 69, 90
12, 234659, Note_on_c, 6, 69, 0
12, 234900, Note_on_c, 6, 69, 90
12, 234959, Note_on_c, 6, 69, 0
12, 234960, Note_on_c, 6, 66, 90
12, 235019, Note_on_c, 6, 66, 0
12, 235260, Note_on_c, 6, 66, 90
12, 235319, Note_on_c, 6, 66, 0
12, 235320, Note_on_c, 6, 62, 90
12, 235379, Note_on_c, 6, 62, 0
12, 235440, Note_on_c, 6, 62, 90
12, 235499, Note_on_c, 6, 62, 0
12, 235500, Note_on_c, 6, 69, 90
12, 235559, Note_on_c, 6, 69, 0
12, 235560, Note_on_c, 6, 74, 90
12, 235619, Note_on_c, 6, 74, 0
12, 235620, Note_on_c, 6, 74, 90
12, 235739, Note_on_c, 6, 74, 0
12, 235800, Note_on_c, 6, 62, 90
12, 235859, Note_on_c, 6, 62, 0
12, 235860, Note_on_c, 6, 69, 90
12, 235919, Note_on_c, 6, 69, 0
12, 235920, Note_on_c, 6, 74, 90
12, 235979, Note_on_c, 6, 74, 0
12, 235980, Note_on_c, 6, 66, 90
12, 236009, Note_on_c, 6, 66, 0
12, 236010, Note_on_c, 6, 67, 90
12, 236039, Note_on_c, 6, 67, 0
12, 236040, Note_on_c, 6, 66, 90
12, 236069, Note_on_c, 6, 66, 0
12, 236070, Note_on_c, 6, 64, 90
12, 236099, Note_on_c, 6, 64, 0
12, 236100, Note_on_c, 6, 62, 90
12, 236159, Note_on_c, 6, 62, 0
12, 236160, Note_on_c, 6, 57, 90
12, 236219, Note_on_c, 6, 57, 0
12, 236220, Note_on_c, 6, 69, 90
12, 236279, Note_on_c, 6, 69, 0
12, 236280, Note_on_c, 6, 69, 90
12, 236339, Note_on_c, 6, 69, 0
12, 236340, Note_on_c, 6, 69, 90
12, 236399, Note_on_c, 6, 69, 0
12, 236400, Note_on_c, 6, 66, 90
12, 236459, Note_on_c, 6, 66, 0
12, 236460, Note_on_c, 6, 62, 90
12, 236519, Note_on_c, 6, 62, 0
12, 236520, Note_on_c, 6, 62, 90
12, 236579, Note_on_c, 6, 62, 0
12, 236580, Note_on_c, 6, 69, 90
12, 236639, Note_on_c, 6, 69, 0
12, 236640, Note_on_c, 6, 67, 90
12, 236699, Note_on_c, 6, 67, 0
12, 236700, Note_on_c, 6, 66, 90
12, 236820, Note_on_c, 6, 66, 0
12, 236820, End_track
13, 0, Start_track
13, 0, MIDI_port, 0
13, 0, Title_t, "soprano I"
13, 0, Program_c, 7, 52
13, 0, Control_c, 7, 7, 127
13, 0, Control_c, 7, 10, 11
13, 10860, Note_on_c, 7, 66, 100
13, 10880, Note_on_c, 7, 66, 0
13, 10890, Note_on_c, 7, 67, 100
13, 10910, Note_on_c, 7, 67, 0
13, 10920, Note_on_c, 7, 69, 100
13, 10940, Note_on_c, 7, 69, 0
13, 10950, Note_on_c, 7, 74, 100
13, 10970, Note_on_c, 7, 74, 0
13, 10980, Note_on_c, 7, 73, 100
13, 11000, Note_on_c, 7, 73, 0
13, 11010, Note_on_c, 7, 71, 100
13, 11030, Note_on_c, 7, 71, 0
13, 11040, Note_on_c, 7, 69, 100
13, 11060, Note_on_c, 7, 69, 0
13, 11070, Note_on_c, 7, 71, 100
13, 11090, Note_on_c, 7, 71, 0
13, 11100, Note_on_c, 7, 69, 100
13, 11120, Note_on_c, 7, 69, 0
13, 11130, Note_on_c, 7, 71, 100
13, 11150, Note_on_c, 7, 71, 0
13, 11160, Note_on_c, 7, 69, 100
13, 11220, Note_on_c, 7, 69, 0
13, 11250, Note_on_c, 7, 67, 100
13, 11270, Note_on_c, 7, 67, 0
13, 11280, Note_on_c, 7, 66, 100
13, 11360, Note_on_c, 7, 66, 0
13, 11580, Note_on_c, 7, 69, 100
13, 11620, Note_on_c, 7, 69, 0
13, 11640, Note_on_c, 7, 74, 100
13, 11700, Note_on_c, 7, 74, 0
13, 11730, Note_on_c, 7, 74, 100
13, 11750, Note_on_c, 7, 74, 0
13, 11760, Note_on_c, 7, 74, 100
13, 11840, Note_on_c, 7, 74, 0
13, 11940, Note_on_c, 7, 74, 100
13, 11980, Note_on_c, 7, 74, 0
13, 12000, Note_on_c, 7, 78, 100
13, 12060, Note_on_c, 7, 78, 0
13, 12090, Note_on_c, 7, 78, 100
13, 12110, Note_on_c, 7, 78, 0
13, 12120, Note_on_c, 7, 78, 100
13, 12200, Note_on_c, 7, 78, 0
13, 12660, Note_on_c, 7, 69, 100
13, 12700, Note_on_c, 7, 69, 0
13, 12720, Note_on_c, 7, 74, 100
13, 12740, Note_on_c, 7, 74, 0
13, 12750, Note_on_c, 7, 76, 100
13, 12770, Note_on_c, 7, 76, 0
13, 12780, Note_on_c, 7, 78, 100
13, 12820, Note_on_c, 7, 78, 0
13, 12840, Note_on_c, 7, 78, 100
13, 12860, Note_on_c, 7, 78, 0
13, 12870, Note_on_c, 7, 76, 100
13, 12890, Note_on_c, 7, 76, 0
13, 12900, Note_on_c, 7, 74, 100
13, 12920, Note_on_c, 7, 74, 0
13, 12930, Note_on_c, 7, 73, 100
13, 12950, Note_on_c, 7, 73, 0
13, 12960, Note_on_c, 7, 74, 100
13, 13020, Note_on_c, 7, 74, 0
13, 13050, Note_on_c, 7, 74, 100
13, 13070, Note_on_c, 7, 74, 0
13, 13080, Note_on_c, 7, 74, 100
13, 13120, Note_on_c, 7, 74, 0
13, 13140, Note_on_c, 7, 78, 100
13, 13160, Note_on_c, 7, 78, 0
13, 13170, Note_on_c, 7, 79, 100
13, 13190, Note_on_c, 7, 79, 0
13, 13200, Note_on_c, 7, 78, 100
13, 13220, Note_on_c, 7, 78, 0
13, 13230, Note_on_c, 7, 76, 100
13, 13250, Note_on_c, 7, 76, 0
13, 13260, Note_on_c, 7, 74, 100
13, 13280, Note_on_c, 7, 74, 0
13, 13290, Note_on_c, 7, 73, 100
13, 13310, Note_on_c, 7, 73, 0
13, 13320, Note_on_c, 7, 71, 100
13, 13340, Note_on_c, 7, 71, 0
13, 13350, Note_on_c, 7, 69, 100
13, 13370, Note_on_c, 7, 69, 0
13, 13380, Note_on_c, 7, 68, 100
13, 13420, Note_on_c, 7, 68, 0
13, 13500, Note_on_c, 7, 76, 100
13, 13520, Note_on_c, 7, 76, 0
13, 13530, Note_on_c, 7, 78, 100
13, 13550, Note_on_c, 7, 78, 0
13, 13560, Note_on_c, 7, 76, 100
13, 13580, Note_on_c, 7, 76, 0
13, 13590, Note_on_c, 7, 74, 100
13, 13610, Note_on_c, 7, 74, 0
13, 13620, Note_on_c, 7, 73, 100
13, 13640, Note_on_c, 7, 73, 0
13, 13650, Note_on_c, 7, 71, 100
13, 13670, Note_on_c, 7, 71, 0
13, 13680, Note_on_c, 7, 69, 100
13, 13700, Note_on_c, 7, 69, 0
13, 13710, Note_on_c, 7, 69, 100
13, 13730, Note_on_c, 7, 69, 0
13, 13740, Note_on_c, 7, 66, 100
13, 13780, Note_on_c, 7, 66, 0
13, 13860, Note_on_c, 7, 78, 100
13, 13880, Note_on_c, 7, 78, 0
13, 13890, Note_on_c, 7, 76, 100
13, 13910, Note_on_c, 7, 76, 0
13, 13920, Note_on_c, 7, 74, 100
13, 13940, Note_on_c, 7, 74, 0
13, 13950, Note_on_c, 7, 73, 100
13, 13970, Note_on_c, 7, 73, 0
13, 13980, Note_on_c, 7, 71, 100
13, 14000, Note_on_c, 7, 71, 0
13, 14010, Note_on_c, 7, 73, 100
13, 14030, Note_on_c, 7, 73, 0
13, 14040, Note_on_c, 7, 74, 100
13, 14060, Note_on_c, 7, 74, 0
13, 14070, Note_on_c, 7, 73, 100
13, 14090, Note_on_c, 7, 73, 0
13, 14100, Note_on_c, 7, 74, 100
13, 14120, Note_on_c, 7, 74, 0
13, 14130, Note_on_c, 7, 76, 100
13, 14150, Note_on_c, 7, 76, 0
13, 14160, Note_on_c, 7, 74, 100
13, 14180, Note_on_c, 7, 74, 0
13, 14190, Note_on_c, 7, 73, 100
13, 14210, Note_on_c, 7, 73, 0
13, 14220, Note_on_c, 7, 71, 100
13, 14240, Note_on_c, 7, 71, 0
13, 14250, Note_on_c, 7, 69, 100
13, 14270, Note_on_c, 7, 69, 0
13, 14280, Note_on_c, 7, 68, 100
13, 14300, Note_on_c, 7, 68, 0
13, 14310, Note_on_c, 7, 66, 100
13, 14330, Note_on_c, 7, 66, 0
13, 14340, Note_on_c, 7, 64, 100
13, 14360, Note_on_c, 7, 64, 0
13, 14370, Note_on_c, 7, 66, 100
13, 14390, Note_on_c, 7, 66, 0
13, 14400, Note_on_c, 7, 68, 100
13, 14440, Note_on_c, 7, 68, 0
13, 14460, Note_on_c, 7, 71, 100
13, 14500, Note_on_c, 7, 71, 0
13, 14580, Note_on_c, 7, 71, 100
13, 14600, Note_on_c, 7, 71, 0
13, 14610, Note_on_c, 7, 73, 100
13, 14630, Note_on_c, 7, 73, 0
13, 14640, Note_on_c, 7, 74, 100
13, 14680, Note_on_c, 7, 74, 0
13, 14700, Note_on_c, 7, 73, 100
13, 14720, Note_on_c, 7, 73, 0
13, 14730, Note_on_c, 7, 71, 100
13, 14750, Note_on_c, 7, 71, 0
13, 14760, Note_on_c, 7, 69, 100
13, 14800, Note_on_c, 7, 69, 0
13, 14820, Note_on_c, 7, 73, 100
13, 14860, Note_on_c, 7, 73, 0
13, 14940, Note_on_c, 7, 73, 100
13, 14960, Note_on_c, 7, 73, 0
13, 14970, Note_on_c, 7, 74, 100
13, 14990, Note_on_c, 7, 74, 0
13, 15000, Note_on_c, 7, 76, 100
13, 15040, Note_on_c, 7, 76, 0
13, 15060, Note_on_c, 7, 74, 100
13, 15080, Note_on_c, 7, 74, 0
13, 15090, Note_on_c, 7, 76, 100
13, 15110, Note_on_c, 7, 76, 0
13, 15120, Note_on_c, 7, 78, 100
13, 15160, Note_on_c, 7, 78, 0
13, 15180, Note_on_c, 7, 66, 100
13, 15220, Note_on_c, 7, 66, 0
13, 15240, Note_on_c, 7, 74, 100
13, 15520, Note_on_c, 7, 74, 0
13, 15540, Note_on_c, 7, 76, 100
13, 15560, Note_on_c, 7, 76, 0
13, 15570, Note_on_c, 7, 78, 100
13, 15590, Note_on_c, 7, 78, 0
13, 15600, Note_on_c, 7, 76, 100
13, 15620, Note_on_c, 7, 76, 0
13, 15630, Note_on_c, 7, 74, 100
13, 15650, Note_on_c, 7, 74, 0
13, 15660, Note_on_c, 7, 73, 100
13, 15680, Note_on_c, 7, 73, 0
13, 15690, Note_on_c, 7, 71, 100
13, 15710, Note_on_c, 7, 71, 0
13, 15720, Note_on_c, 7, 69, 100
13, 15740, Note_on_c, 7, 69, 0
13, 15750, Note_on_c, 7, 68, 100
13, 15770, Note_on_c, 7, 68, 0
13, 15780, Note_on_c, 7, 74, 100
13, 15820, Note_on_c, 7, 74, 0
13, 15840, Note_on_c, 7, 73, 100
13, 15920, Note_on_c, 7, 73, 0
13, 16260, Note_on_c, 7, 69, 100
13, 16280, Note_on_c, 7, 69, 0
13, 16290, Note_on_c, 7, 71, 100
13, 16310, Note_on_c, 7, 71, 0
13, 16320, Note_on_c, 7, 73, 100
13, 16380, Note_on_c, 7, 73, 0
13, 16410, Note_on_c, 7, 74, 100
13, 16430, Note_on_c, 7, 74, 0
13, 16440, Note_on_c, 7, 73, 100
13, 16460, Note_on_c, 7, 73, 0
13, 16470, Note_on_c, 7, 74, 100
13, 16490, Note_on_c, 7, 74, 0
13, 16500, Note_on_c, 7, 73, 100
13, 16520, Note_on_c, 7, 73, 0
13, 16530, Note_on_c, 7, 74, 100
13, 16550, Note_on_c, 7, 74, 0
13, 16560, Note_on_c, 7, 73, 100
13, 16580, Note_on_c, 7, 73, 0
13, 16590, Note_on_c, 7, 78, 100
13, 16610, Note_on_c, 7, 78, 0
13, 16620, Note_on_c, 7, 76, 100
13, 16640, Note_on_c, 7, 76, 0
13, 16650, Note_on_c, 7, 74, 100
13, 16670, Note_on_c, 7, 74, 0
13, 16680, Note_on_c, 7, 76, 100
13, 16740, Note_on_c, 7, 76, 0
13, 16770, Note_on_c, 7, 74, 100
13, 16790, Note_on_c, 7, 74, 0
13, 16800, Note_on_c, 7, 73, 100
13, 16880, Note_on_c, 7, 73, 0
13, 16980, Note_on_c, 7, 73, 100
13, 17020, Note_on_c, 7, 73, 0
13, 17040, Note_on_c, 7, 73, 100
13, 17100, Note_on_c, 7, 73, 0
13, 17130, Note_on_c, 7, 73, 100
13, 17150, Note_on_c, 7, 73, 0
13, 17160, Note_on_c, 7, 73, 100
13, 17240, Note_on_c, 7, 73, 0
13, 17340, Note_on_c, 7, 69, 100
13, 17360, Note_on_c, 7, 69, 0
13, 17370, Note_on_c, 7, 71, 100
13, 17390, Note_on_c, 7, 71, 0
13, 17400, Note_on_c, 7, 73, 100
13, 17420, Note_on_c, 7, 73, 0
13, 17430, Note_on_c, 7, 74, 100
13, 17450, Note_on_c, 7, 74, 0
13, 17460, Note_on_c, 7, 76, 100
13, 17500, Note_on_c, 7, 76, 0
13, 17520, Note_on_c, 7, 76, 100
13, 17540, Note_on_c, 7, 76, 0
13, 17550, Note_on_c, 7, 74, 100
13, 17570, Note_on_c, 7, 74, 0
13, 17580, Note_on_c, 7, 73, 100
13, 17600, Note_on_c, 7, 73, 0
13, 17610, Note_on_c, 7, 71, 100
13, 17630, Note_on_c, 7, 71, 0
13, 17640, Note_on_c, 7, 73, 100
13, 17700, Note_on_c, 7, 73, 0
13, 17730, Note_on_c, 7, 73, 100
13, 17750, Note_on_c, 7, 73, 0
13, 17760, Note_on_c, 7, 73, 100
13, 17840, Note_on_c, 7, 73, 0
13, 18000, Note_on_c, 7, 76, 100
13, 18060, Note_on_c, 7, 76, 0
13, 18090, Note_on_c, 7, 76, 100
13, 18110, Note_on_c, 7, 76, 0
13, 18120, Note_on_c, 7, 76, 100
13, 18200, Note_on_c, 7, 76, 0
13, 18420, Note_on_c, 7, 66, 100
13, 18440, Note_on_c, 7, 66, 0
13, 18450, Note_on_c, 7, 68, 100
13, 18470, Note_on_c, 7, 68, 0
13, 18480, Note_on_c, 7, 70, 100
13, 18500, Note_on_c, 7, 70, 0
13, 18510, Note_on_c, 7, 71, 100
13, 18530, Note_on_c, 7, 71, 0
13, 18540, Note_on_c, 7, 73, 100
13, 18560, Note_on_c, 7, 73, 0
13, 18570, Note_on_c, 7, 74, 100
13, 18590, Note_on_c, 7, 74, 0
13, 18600, Note_on_c, 7, 76, 100
13, 18620, Note_on_c, 7, 76, 0
13, 18630, Note_on_c, 7, 74, 100
13, 18650, Note_on_c, 7, 74, 0
13, 18660, Note_on_c, 7, 76, 100
13, 18680, Note_on_c, 7, 76, 0
13, 18690, Note_on_c, 7, 73, 100
13, 18710, Note_on_c, 7, 73, 0
13, 18720, Note_on_c, 7, 74, 100
13, 18740, Note_on_c, 7, 74, 0
13, 18750, Note_on_c, 7, 73, 100
13, 18770, Note_on_c, 7, 73, 0
13, 18780, Note_on_c, 7, 71, 100
13, 18800, Note_on_c, 7, 71, 0
13, 18810, Note_on_c, 7, 73, 100
13, 18830, Note_on_c, 7, 73, 0
13, 18840, Note_on_c, 7, 74, 100
13, 18860, Note_on_c, 7, 74, 0
13, 18870, Note_on_c, 7, 76, 100
13, 18890, Note_on_c, 7, 76, 0
13, 18900, Note_on_c, 7, 78, 100
13, 18940, Note_on_c, 7, 78, 0
13, 18960, Note_on_c, 7, 78, 100
13, 18980, Note_on_c, 7, 78, 0
13, 18990, Note_on_c, 7, 76, 100
13, 19010, Note_on_c, 7, 76, 0
13, 19020, Note_on_c, 7, 74, 100
13, 19040, Note_on_c, 7, 74, 0
13, 19050, Note_on_c, 7, 73, 100
13, 19070, Note_on_c, 7, 73, 0
13, 19080, Note_on_c, 7, 74, 100
13, 19140, Note_on_c, 7, 74, 0
13, 19170, Note_on_c, 7, 73, 100
13, 19190, Note_on_c, 7, 73, 0
13, 19200, Note_on_c, 7, 71, 100
13, 19280, Note_on_c, 7, 71, 0
13, 19380, Note_on_c, 7, 73, 100
13, 19420, Note_on_c, 7, 73, 0
13, 19440, Note_on_c, 7, 73, 100
13, 19500, Note_on_c, 7, 73, 0
13, 19530, Note_on_c, 7, 71, 100
13, 19550, Note_on_c, 7, 71, 0
13, 19560, Note_on_c, 7, 69, 100
13, 19640, Note_on_c, 7, 69, 0
13, 19740, Note_on_c, 7, 78, 100
13, 19780, Note_on_c, 7, 78, 0
13, 19800, Note_on_c, 7, 76, 100
13, 19860, Note_on_c, 7, 76, 0
13, 19890, Note_on_c, 7, 74, 100
13, 19910, Note_on_c, 7, 74, 0
13, 19920, Note_on_c, 7, 73, 100
13, 20000, Note_on_c, 7, 73, 0
13, 20100, Note_on_c, 7, 76, 100
13, 20140, Note_on_c, 7, 76, 0
13, 20160, Note_on_c, 7, 74, 100
13, 20220, Note_on_c, 7, 74, 0
13, 20250, Note_on_c, 7, 73, 100
13, 20270, Note_on_c, 7, 73, 0
13, 20280, Note_on_c, 7, 74, 100
13, 20360, Note_on_c, 7, 74, 0
13, 20580, Note_on_c, 7, 69, 100
13, 20620, Note_on_c, 7, 69, 0
13, 20640, Note_on_c, 7, 74, 100
13, 20660, Note_on_c, 7, 74, 0
13, 20670, Note_on_c, 7, 76, 100
13, 20690, Note_on_c, 7, 76, 0
13, 20700, Note_on_c, 7, 78, 100
13, 20740, Note_on_c, 7, 78, 0
13, 20760, Note_on_c, 7, 78, 100
13, 20780, Note_on_c, 7, 78, 0
13, 20790, Note_on_c, 7, 76, 100
13, 20810, Note_on_c, 7, 76, 0
13, 20820, Note_on_c, 7, 74, 100
13, 20840, Note_on_c, 7, 74, 0
13, 20850, Note_on_c, 7, 73, 100
13, 20870, Note_on_c, 7, 73, 0
13, 20880, Note_on_c, 7, 74, 100
13, 20940, Note_on_c, 7, 74, 0
13, 20970, Note_on_c, 7, 74, 100
13, 20990, Note_on_c, 7, 74, 0
13, 21000, Note_on_c, 7, 74, 100
13, 21040, Note_on_c, 7, 74, 0
13, 21060, Note_on_c, 7, 74, 100
13, 21100, Note_on_c, 7, 74, 0
13, 21120, Note_on_c, 7, 73, 100
13, 21180, Note_on_c, 7, 73, 0
13, 21210, Note_on_c, 7, 73, 100
13, 21230, Note_on_c, 7, 73, 0
13, 21240, Note_on_c, 7, 74, 100
13, 21320, Note_on_c, 7, 74, 0
13, 21420, Note_on_c, 7, 74, 100
13, 21460, Note_on_c, 7, 74, 0
13, 21480, Note_on_c, 7, 73, 100
13, 21540, Note_on_c, 7, 73, 0
13, 21570, Note_on_c, 7, 73, 100
13, 21590, Note_on_c, 7, 73, 0
13, 21600, Note_on_c, 7, 74, 100
13, 21680, Note_on_c, 7, 74, 0
13, 22260, Note_on_c, 7, 78, 100
13, 22300, Note_on_c, 7, 78, 0
13, 22320, Note_on_c, 7, 74, 100
13, 22380, Note_on_c, 7, 74, 0
13, 22410, Note_on_c, 7, 73, 100
13, 22430, Note_on_c, 7, 73, 0
13, 22440, Note_on_c, 7, 71, 100
13, 22520, Note_on_c, 7, 71, 0
13, 23100, Note_on_c, 7, 67, 100
13, 23120, Note_on_c, 7, 67, 0
13, 23130, Note_on_c, 7, 69, 100
13, 23150, Note_on_c, 7, 69, 0
13, 23160, Note_on_c, 7, 71, 100
13, 23180, Note_on_c, 7, 71, 0
13, 23190, Note_on_c, 7, 76, 100
13, 23210, Note_on_c, 7, 76, 0
13, 23220, Note_on_c, 7, 74, 100
13, 23240, Note_on_c, 7, 74, 0
13, 23250, Note_on_c, 7, 72, 100
13, 23270, Note_on_c, 7, 72, 0
13, 23280, Note_on_c, 7, 71, 100
13, 23300, Note_on_c, 7, 71, 0
13, 23310, Note_on_c, 7, 72, 100
13, 23330, Note_on_c, 7, 72, 0
13, 23340, Note_on_c, 7, 71, 100
13, 23360, Note_on_c, 7, 71, 0
13, 23370, Note_on_c, 7, 72, 100
13, 23390, Note_on_c, 7, 72, 0
13, 23400, Note_on_c, 7, 71, 100
13, 23460, Note_on_c, 7, 71, 0
13, 23490, Note_on_c, 7, 71, 100
13, 23510, Note_on_c, 7, 71, 0
13, 23520, Note_on_c, 7, 72, 100
13, 23600, Note_on_c, 7, 72, 0
13, 23700, Note_on_c, 7, 71, 100
13, 23740, Note_on_c, 7, 71, 0
13, 23760, Note_on_c, 7, 71, 100
13, 23820, Note_on_c, 7, 71, 0
13, 23850, Note_on_c, 7, 69, 100
13, 23870, Note_on_c, 7, 69, 0
13, 23880, Note_on_c, 7, 67, 100
13, 23960, Note_on_c, 7, 67, 0
13, 24060, Note_on_c, 7, 76, 100
13, 24100, Note_on_c, 7, 76, 0
13, 24120, Note_on_c, 7, 76, 100
13, 24180, Note_on_c, 7, 76, 0
13, 24210, Note_on_c, 7, 76, 100
13, 24230, Note_on_c, 7, 76, 0
13, 24240, Note_on_c, 7, 78, 100
13, 24320, Note_on_c, 7, 78, 0
13, 24420, Note_on_c, 7, 78, 100
13, 24460, Note_on_c, 7, 78, 0
13, 24480, Note_on_c, 7, 79, 100
13, 24540, Note_on_c, 7, 79, 0
13, 24570, Note_on_c, 7, 67, 100
13, 24590, Note_on_c, 7, 67, 0
13, 24600, Note_on_c, 7, 67, 100
13, 24640, Note_on_c, 7, 67, 0
13, 24660, Note_on_c, 7, 67, 100
13, 24700, Note_on_c, 7, 67, 0
13, 24720, Note_on_c, 7, 74, 100
13, 24760, Note_on_c, 7, 74, 0
13, 24780, Note_on_c, 7, 79, 100
13, 24820, Note_on_c, 7, 79, 0
13, 24840, Note_on_c, 7, 71, 100
13, 24900, Note_on_c, 7, 71, 0
13, 24930, Note_on_c, 7, 71, 100
13, 24950, Note_on_c, 7, 71, 0
13, 24960, Note_on_c, 7, 71, 100
13, 25000, Note_on_c, 7, 71, 0
13, 25020, Note_on_c, 7, 71, 100
13, 25060, Note_on_c, 7, 71, 0
13, 25080, Note_on_c, 7, 76, 100
13, 25120, Note_on_c, 7, 76, 0
13, 25140, Note_on_c, 7, 79, 100
13, 25180, Note_on_c, 7, 79, 0
13, 25200, Note_on_c, 7, 69, 100
13, 25260, Note_on_c, 7, 69, 0
13, 25290, Note_on_c, 7, 69, 100
13, 25310, Note_on_c, 7, 69, 0
13, 25320, Note_on_c, 7, 69, 100
13, 25360, Note_on_c, 7, 69, 0
13, 25380, Note_on_c, 7, 73, 100
13, 25400, Note_on_c, 7, 73, 0
13, 25410, Note_on_c, 7, 74, 100
13, 25430, Note_on_c, 7, 74, 0
13, 25440, Note_on_c, 7, 76, 100
13, 25480, Note_on_c, 7, 76, 0
13, 25500, Note_on_c, 7, 78, 100
13, 25520, Note_on_c, 7, 78, 0
13, 25530, Note_on_c, 7, 79, 100
13, 25550, Note_on_c, 7, 79, 0
13, 25560, Note_on_c, 7, 69, 100
13, 25600, Note_on_c, 7, 69, 0
13, 25620, Note_on_c, 7, 78, 100
13, 25660, Note_on_c, 7, 78, 0
13, 25740, Note_on_c, 7, 69, 100
13, 25780, Note_on_c, 7, 69, 0
13, 25800, Note_on_c, 7, 74, 100
13, 25860, Note_on_c, 7, 74, 0
13, 25890, Note_on_c, 7, 74, 100
13, 25910, Note_on_c, 7, 74, 0
13, 25920, Note_on_c, 7, 74, 100
13, 25960, Note_on_c, 7, 74, 0
13, 25980, Note_on_c, 7, 76, 100
13, 26000, Note_on_c, 7, 76, 0
13, 26010, Note_on_c, 7, 78, 100
13, 26030, Note_on_c, 7, 78, 0
13, 26040, Note_on_c, 7, 76, 100
13, 26080, Note_on_c, 7, 76, 0
13, 26100, Note_on_c, 7, 74, 100
13, 26140, Note_on_c, 7, 74, 0
13, 26160, Note_on_c, 7, 73, 100
13, 26200, Note_on_c, 7, 73, 0
13, 26220, Note_on_c, 7, 74, 100
13, 26260, Note_on_c, 7, 74, 0
13, 26280, Note_on_c, 7, 76, 100
13, 26320, Note_on_c, 7, 76, 0
13, 26340, Note_on_c, 7, 78, 100
13, 26360, Note_on_c, 7, 78, 0
13, 26370, Note_on_c, 7, 79, 100
13, 26390, Note_on_c, 7, 79, 0
13, 26400, Note_on_c, 7, 78, 100
13, 26420, Note_on_c, 7, 78, 0
13, 26430, Note_on_c, 7, 76, 100
13, 26450, Note_on_c, 7, 76, 0
13, 26460, Note_on_c, 7, 74, 100
13, 26480, Note_on_c, 7, 74, 0
13, 26490, Note_on_c, 7, 76, 100
13, 26510, Note_on_c, 7, 76, 0
13, 26520, Note_on_c, 7, 69, 100
13, 26560, Note_on_c, 7, 69, 0
13, 26580, Note_on_c, 7, 73, 100
13, 26620, Note_on_c, 7, 73, 0
13, 26640, Note_on_c, 7, 74, 100
13, 26720, Note_on_c, 7, 74, 0
13, 51660, Program_c, 7, 64
13, 51900, Note_on_c, 7, 74, 100
13, 51990, Note_on_c, 7, 74, 0
13, 51990, Note_on_c, 7, 76, 100
13, 52005, Note_on_c, 7, 76, 0
13, 52005, Note_on_c, 7, 78, 100
13, 52020, Note_on_c, 7, 78, 0
13, 52020, Note_on_c, 7, 76, 100
13, 52050, Note_on_c, 7, 76, 0
13, 52050, Note_on_c, 7, 74, 100
13, 52080, Note_on_c, 7, 74, 0
13, 52080, Note_on_c, 7, 73, 100
13, 52110, Note_on_c, 7, 73, 0
13, 52110, Note_on_c, 7, 71, 100
13, 52140, Note_on_c, 7, 71, 0
13, 52140, Note_on_c, 7, 70, 100
13, 52230, Note_on_c, 7, 70, 0
13, 52230, Note_on_c, 7, 71, 100
13, 52245, Note_on_c, 7, 71, 0
13, 52245, Note_on_c, 7, 73, 100
13, 52260, Note_on_c, 7, 73, 0
13, 52260, Note_on_c, 7, 64, 100
13, 52380, Note_on_c, 7, 64, 0
13, 52440, Note_on_c, 7, 73, 100
13, 52500, Note_on_c, 7, 73, 0
13, 52500, Note_on_c, 7, 71, 100
13, 52530, Note_on_c, 7, 71, 0
13, 52530, Note_on_c, 7, 70, 100
13, 52560, Note_on_c, 7, 70, 0
13, 52560, Note_on_c, 7, 67, 100
13, 52590, Note_on_c, 7, 67, 0
13, 52590, Note_on_c, 7, 66, 100
13, 52620, Note_on_c, 7, 66, 0
13, 52620, Note_on_c, 7, 64, 100
13, 52680, Note_on_c, 7, 64, 0
13, 52680, Note_on_c, 7, 62, 100
13, 52740, Note_on_c, 7, 62, 0
13, 52740, Note_on_c, 7, 62, 100
13, 52860, Note_on_c, 7, 62, 0
13, 52920, Note_on_c, 7, 78, 100
13, 52980, Note_on_c, 7, 78, 0
13, 52980, Note_on_c, 7, 76, 100
13, 53010, Note_on_c, 7, 76, 0
13, 53010, Note_on_c, 7, 75, 100
13, 53040, Note_on_c, 7, 75, 0
13, 53040, Note_on_c, 7, 72, 100
13, 53070, Note_on_c, 7, 72, 0
13, 53070, Note_on_c, 7, 71, 100
13, 53100, Note_on_c, 7, 71, 0
13, 53100, Note_on_c, 7, 69, 100
13, 53160, Note_on_c, 7, 69, 0
13, 53160, Note_on_c, 7, 67, 100
13, 53220, Note_on_c, 7, 67, 0
13, 53220, Note_on_c, 7, 67, 100
13, 53280, Note_on_c, 7, 67, 0
13, 53280, Note_on_c, 7, 66, 100
13, 53340, Note_on_c, 7, 66, 0
13, 53340, Note_on_c, 7, 71, 100
13, 53400, Note_on_c, 7, 71, 0
13, 53400, Note_on_c, 7, 67, 100
13, 53460, Note_on_c, 7, 67, 0
13, 53460, Note_on_c, 7, 64, 100
13, 53580, Note_on_c, 7, 64, 0
13, 53580, Note_on_c, 7, 66, 100
13, 53700, Note_on_c, 7, 66, 0
13, 54300, Note_on_c, 7, 74, 100
13, 54390, Note_on_c, 7, 74, 0
13, 54390, Note_on_c, 7, 76, 100
13, 54405, Note_on_c, 7, 76, 0
13, 54405, Note_on_c, 7, 78, 100
13, 54420, Note_on_c, 7, 78, 0
13, 54420, Note_on_c, 7, 76, 100
13, 54450, Note_on_c, 7, 76, 0
13, 54450, Note_on_c, 7, 74, 100
13, 54480, Note_on_c, 7, 74, 0
13, 54480, Note_on_c, 7, 73, 100
13, 54510, Note_on_c, 7, 73, 0
13, 54510, Note_on_c, 7, 71, 100
13, 54540, Note_on_c, 7, 71, 0
13, 54540, Note_on_c, 7, 70, 100
13, 54630, Note_on_c, 7, 70, 0
13, 54630, Note_on_c, 7, 71, 100
13, 54645, Note_on_c, 7, 71, 0
13, 54645, Note_on_c, 7, 73, 100
13, 54660, Note_on_c, 7, 73, 0
13, 54660, Note_on_c, 7, 66, 100
13, 54780, Note_on_c, 7, 66, 0
13, 54840, Note_on_c, 7, 78, 100
13, 54900, Note_on_c, 7, 78, 0
13, 54900, Note_on_c, 7, 76, 100
13, 54930, Note_on_c, 7, 76, 0
13, 54930, Note_on_c, 7, 75, 100
13, 54960, Note_on_c, 7, 75, 0
13, 54960, Note_on_c, 7, 72, 100
13, 54990, Note_on_c, 7, 72, 0
13, 54990, Note_on_c, 7, 71, 100
13, 55020, Note_on_c, 7, 71, 0
13, 55020, Note_on_c, 7, 69, 100
13, 55080, Note_on_c, 7, 69, 0
13, 55080, Note_on_c, 7, 67, 100
13, 55140, Note_on_c, 7, 67, 0
13, 55140, Note_on_c, 7, 67, 100
13, 55260, Note_on_c, 7, 67, 0
13, 55320, Note_on_c, 7, 76, 100
13, 55380, Note_on_c, 7, 76, 0
13, 55380, Note_on_c, 7, 74, 100
13, 55410, Note_on_c, 7, 74, 0
13, 55410, Note_on_c, 7, 73, 100
13, 55440, Note_on_c, 7, 73, 0
13, 55440, Note_on_c, 7, 71, 100
13, 55470, Note_on_c, 7, 71, 0
13, 55470, Note_on_c, 7, 69, 100
13, 55500, Note_on_c, 7, 69, 0
13, 55500, Note_on_c, 7, 67, 100
13, 55560, Note_on_c, 7, 67, 0
13, 55560, Note_on_c, 7, 66, 100
13, 55620, Note_on_c, 7, 66, 0
13, 55620, Note_on_c, 7, 66, 100
13, 55680, Note_on_c, 7, 66, 0
13, 55680, Note_on_c, 7, 74, 100
13, 55740, Note_on_c, 7, 74, 0
13, 55740, Note_on_c, 7, 71, 100
13, 55800, Note_on_c, 7, 71, 0
13, 55800, Note_on_c, 7, 69, 100
13, 55830, Note_on_c, 7, 69, 0
13, 55830, Note_on_c, 7, 67, 100
13, 55860, Note_on_c, 7, 67, 0
13, 55860, Note_on_c, 7, 64, 100
13, 55920, Note_on_c, 7, 64, 0
13, 55920, Note_on_c, 7, 66, 100
13, 55927, Note_on_c, 7, 66, 0
13, 55927, Note_on_c, 7, 64, 100
13, 55934, Note_on_c, 7, 64, 0
13, 55935, Note_on_c, 7, 66, 100
13, 55942, Note_on_c, 7, 66, 0
13, 55942, Note_on_c, 7, 64, 100
13, 55949, Note_on_c, 7, 64, 0
13, 55950, Note_on_c, 7, 66, 100
13, 55957, Note_on_c, 7, 66, 0
13, 55957, Note_on_c, 7, 64, 100
13, 55964, Note_on_c, 7, 64, 0
13, 55965, Note_on_c, 7, 66, 100
13, 55972, Note_on_c, 7, 66, 0
13, 55972, Note_on_c, 7, 64, 100
13, 55979, Note_on_c, 7, 64, 0
13, 55980, Note_on_c, 7, 62, 100
13, 56100, Note_on_c, 7, 62, 0
13, 57780, Note_on_c, 7, 69, 100
13, 57840, Note_on_c, 7, 69, 0
13, 57840, Note_on_c, 7, 74, 100
13, 57900, Note_on_c, 7, 74, 0
13, 57900, Note_on_c, 7, 73, 100
13, 57930, Note_on_c, 7, 73, 0
13, 57930, Note_on_c, 7, 74, 100
13, 57945, Note_on_c, 7, 74, 0
13, 57945, Note_on_c, 7, 76, 100
13, 57960, Note_on_c, 7, 76, 0
13, 57960, Note_on_c, 7, 76, 100
13, 58020, Note_on_c, 7, 76, 0
13, 58260, Note_on_c, 7, 71, 100
13, 58320, Note_on_c, 7, 71, 0
13, 58320, Note_on_c, 7, 76, 100
13, 58380, Note_on_c, 7, 76, 0
13, 58380, Note_on_c, 7, 74, 100
13, 58410, Note_on_c, 7, 74, 0
13, 58410, Note_on_c, 7, 76, 100
13, 58425, Note_on_c, 7, 76, 0
13, 58425, Note_on_c, 7, 78, 100
13, 58440, Note_on_c, 7, 78, 0
13, 58440, Note_on_c, 7, 78, 100
13, 58500, Note_on_c, 7, 78, 0
13, 58800, Note_on_c, 7, 78, 100
13, 58830, Note_on_c, 7, 78, 0
13, 58830, Note_on_c, 7, 76, 100
13, 58860, Note_on_c, 7, 76, 0
13, 58860, Note_on_c, 7, 74, 100
13, 58920, Note_on_c, 7, 74, 0
13, 58920, Note_on_c, 7, 73, 100
13, 58950, Note_on_c, 7, 73, 0
13, 58950, Note_on_c, 7, 71, 100
13, 58980, Note_on_c, 7, 71, 0
13, 58980, Note_on_c, 7, 76, 100
13, 59040, Note_on_c, 7, 76, 0
13, 59040, Note_on_c, 7, 71, 100
13, 59100, Note_on_c, 7, 71, 0
13, 59100, Note_on_c, 7, 73, 100
13, 59160, Note_on_c, 7, 73, 0
13, 59160, Note_on_c, 7, 69, 100
13, 59220, Note_on_c, 7, 69, 0
13, 59280, Note_on_c, 7, 74, 100
13, 59310, Note_on_c, 7, 74, 0
13, 59310, Note_on_c, 7, 73, 100
13, 59340, Note_on_c, 7, 73, 0
13, 59340, Note_on_c, 7, 71, 100
13, 59400, Note_on_c, 7, 71, 0
13, 59400, Note_on_c, 7, 69, 100
13, 59430, Note_on_c, 7, 69, 0
13, 59430, Note_on_c, 7, 68, 100
13, 59460, Note_on_c, 7, 68, 0
13, 59460, Note_on_c, 7, 73, 100
13, 59520, Note_on_c, 7, 73, 0
13, 59520, Note_on_c, 7, 68, 100
13, 59580, Note_on_c, 7, 68, 0
13, 59580, Note_on_c, 7, 69, 100
13, 59640, Note_on_c, 7, 69, 0
13, 59640, Note_on_c, 7, 66, 100
13, 59700, Note_on_c, 7, 66, 0
13, 59760, Note_on_c, 7, 66, 100
13, 59820, Note_on_c, 7, 66, 0
13, 59820, Note_on_c, 7, 73, 100
13, 60120, Note_on_c, 7, 73, 0
13, 60120, Note_on_c, 7, 74, 100
13, 60150, Note_on_c, 7, 74, 0
13, 60150, Note_on_c, 7, 73, 100
13, 60180, Note_on_c, 7, 73, 0
13, 60180, Note_on_c, 7, 71, 100
13, 60210, Note_on_c, 7, 71, 0
13, 60210, Note_on_c, 7, 69, 100
13, 60240, Note_on_c, 7, 69, 0
13, 60240, Note_on_c, 7, 68, 100
13, 60270, Note_on_c, 7, 68, 0
13, 60270, Note_on_c, 7, 66, 100
13, 60300, Note_on_c, 7, 66, 0
13, 60300, Note_on_c, 7, 72, 100
13, 60480, Note_on_c, 7, 72, 0
13, 60480, Note_on_c, 7, 73, 100
13, 60510, Note_on_c, 7, 73, 0
13, 60510, Note_on_c, 7, 75, 100
13, 60540, Note_on_c, 7, 75, 0
13, 60540, Note_on_c, 7, 73, 100
13, 60570, Note_on_c, 7, 73, 0
13, 60570, Note_on_c, 7, 78, 100
13, 60600, Note_on_c, 7, 78, 0
13, 60600, Note_on_c, 7, 77, 100
13, 60630, Note_on_c, 7, 77, 0
13, 60630, Note_on_c, 7, 74, 100
13, 60660, Note_on_c, 7, 74, 0
13, 60660, Note_on_c, 7, 73, 100
13, 60690, Note_on_c, 7, 73, 0
13, 60690, Note_on_c, 7, 71, 100
13, 60720, Note_on_c, 7, 71, 0
13, 60720, Note_on_c, 7, 69, 100
13, 60750, Note_on_c, 7, 69, 0
13, 60750, Note_on_c, 7, 68, 100
13, 60780, Note_on_c, 7, 68, 0
13, 60780, Note_on_c, 7, 69, 100
13, 60810, Note_on_c, 7, 69, 0
13, 60810, Note_on_c, 7, 68, 100
13, 60840, Note_on_c, 7, 68, 0
13, 60840, Note_on_c, 7, 69, 100
13, 60870, Note_on_c, 7, 69, 0
13, 60870, Note_on_c, 7, 66, 100
13, 60900, Note_on_c, 7, 66, 0
13, 60900, Note_on_c, 7, 65, 100
13, 60990, Note_on_c, 7, 65, 0
13, 60990, Note_on_c, 7, 66, 100
13, 61020, Note_on_c, 7, 66, 0
13, 61020, Note_on_c, 7, 66, 100
13, 61140, Note_on_c, 7, 66, 0
13, 61380, Program_c, 7, 52
13, 61500, Note_on_c, 7, 78, 90
13, 61559, Note_on_c, 7, 78, 0
13, 61560, Note_on_c, 7, 78, 90
13, 61619, Note_on_c, 7, 78, 0
13, 61620, Note_on_c, 7, 78, 90
13, 61679, Note_on_c, 7, 78, 0
13, 61680, Note_on_c, 7, 78, 90
13, 61739, Note_on_c, 7, 78, 0
13, 61740, Note_on_c, 7, 78, 90
13, 61799, Note_on_c, 7, 78, 0
13, 61800, Note_on_c, 7, 77, 90
13, 61829, Note_on_c, 7, 77, 0
13, 61830, Note_on_c, 7, 75, 90
13, 61859, Note_on_c, 7, 75, 0
13, 61860, Note_on_c, 7, 73, 90
13, 61919, Note_on_c, 7, 73, 0
13, 61920, Note_on_c, 7, 71, 90
13, 61979, Note_on_c, 7, 71, 0
13, 61980, Note_on_c, 7, 69, 90
13, 62009, Note_on_c, 7, 69, 0
13, 62010, Note_on_c, 7, 68, 90
13, 62039, Note_on_c, 7, 68, 0
13, 62040, Note_on_c, 7, 66, 90
13, 62069, Note_on_c, 7, 66, 0
13, 62070, Note_on_c, 7, 68, 90
13, 62099, Note_on_c, 7, 68, 0
13, 62100, Note_on_c, 7, 69, 90
13, 62129, Note_on_c, 7, 69, 0
13, 62130, Note_on_c, 7, 68, 90
13, 62159, Note_on_c, 7, 68, 0
13, 62160, Note_on_c, 7, 69, 90
13, 62189, Note_on_c, 7, 69, 0
13, 62190, Note_on_c, 7, 71, 90
13, 62219, Note_on_c, 7, 71, 0
13, 62220, Note_on_c, 7, 73, 90
13, 62249, Note_on_c, 7, 73, 0
13, 62250, Note_on_c, 7, 68, 90
13, 62279, Note_on_c, 7, 68, 0
13, 62280, Note_on_c, 7, 69, 90
13, 62309, Note_on_c, 7, 69, 0
13, 62310, Note_on_c, 7, 71, 90
13, 62339, Note_on_c, 7, 71, 0
13, 62340, Note_on_c, 7, 73, 90
13, 62369, Note_on_c, 7, 73, 0
13, 62370, Note_on_c, 7, 74, 90
13, 62399, Note_on_c, 7, 74, 0
13, 62400, Note_on_c, 7, 73, 90
13, 62429, Note_on_c, 7, 73, 0
13, 62430, Note_on_c, 7, 71, 90
13, 62459, Note_on_c, 7, 71, 0
13, 62460, Note_on_c, 7, 69, 90
13, 62489, Note_on_c, 7, 69, 0
13, 62490, Note_on_c, 7, 68, 90
13, 62519, Note_on_c, 7, 68, 0
13, 62520, Note_on_c, 7, 69, 90
13, 62549, Note_on_c, 7, 69, 0
13, 62550, Note_on_c, 7, 71, 90
13, 62579, Note_on_c, 7, 71, 0
13, 62580, Note_on_c, 7, 73, 90
13, 62609, Note_on_c, 7, 73, 0
13, 62610, Note_on_c, 7, 71, 90
13, 62639, Note_on_c, 7, 71, 0
13, 62640, Note_on_c, 7, 73, 90
13, 62669, Note_on_c, 7, 73, 0
13, 62670, Note_on_c, 7, 74, 90
13, 62699, Note_on_c, 7, 74, 0
13, 62700, Note_on_c, 7, 68, 90
13, 62850, Note_on_c, 7, 68, 0
13, 62850, Note_on_c, 7, 65, 90
13, 62879, Note_on_c, 7, 65, 0
13, 62880, Note_on_c, 7, 66, 90
13, 62909, Note_on_c, 7, 66, 0
13, 62910, Note_on_c, 7, 68, 90
13, 62939, Note_on_c, 7, 68, 0
13, 62940, Note_on_c, 7, 61, 90
13, 62969, Note_on_c, 7, 61, 0
13, 62970, Note_on_c, 7, 71, 90
13, 62999, Note_on_c, 7, 71, 0
13, 63000, Note_on_c, 7, 69, 90
13, 63029, Note_on_c, 7, 69, 0
13, 63030, Note_on_c, 7, 68, 90
13, 63059, Note_on_c, 7, 68, 0
13, 63060, Note_on_c, 7, 66, 90
13, 63089, Note_on_c, 7, 66, 0
13, 63090, Note_on_c, 7, 69, 90
13, 63119, Note_on_c, 7, 69, 0
13, 63120, Note_on_c, 7, 68, 90
13, 63149, Note_on_c, 7, 68, 0
13, 63150, Note_on_c, 7, 66, 90
13, 63179, Note_on_c, 7, 66, 0
13, 63180, Note_on_c, 7, 73, 90
13, 63239, Note_on_c, 7, 73, 0
13, 63240, Note_on_c, 7, 73, 90
13, 63299, Note_on_c, 7, 73, 0
13, 63420, Note_on_c, 7, 69, 90
13, 63479, Note_on_c, 7, 69, 0
13, 63480, Note_on_c, 7, 69, 90
13, 63539, Note_on_c, 7, 69, 0
13, 63540, Note_on_c, 7, 69, 90
13, 63599, Note_on_c, 7, 69, 0
13, 63600, Note_on_c, 7, 69, 90
13, 63659, Note_on_c, 7, 69, 0
13, 63660, Note_on_c, 7, 69, 90
13, 63719, Note_on_c, 7, 69, 0
13, 63720, Note_on_c, 7, 68, 90
13, 63749, Note_on_c, 7, 68, 0
13, 63750, Note_on_c, 7, 66, 90
13, 63779, Note_on_c, 7, 66, 0
13, 63780, Note_on_c, 7, 64, 90
13, 63839, Note_on_c, 7, 64, 0
13, 63840, Note_on_c, 7, 62, 90
13, 63899, Note_on_c, 7, 62, 0
13, 63900, Note_on_c, 7, 61, 90
13, 63959, Note_on_c, 7, 61, 0
13, 63960, Note_on_c, 7, 62, 90
13, 63989, Note_on_c, 7, 62, 0
13, 63990, Note_on_c, 7, 64, 90
13, 64019, Note_on_c, 7, 64, 0
13, 64020, Note_on_c, 7, 66, 90
13, 64199, Note_on_c, 7, 66, 0
13, 64200, Note_on_c, 7, 59, 90
13, 64259, Note_on_c, 7, 59, 0
13, 64260, Note_on_c, 7, 71, 90
13, 64289, Note_on_c, 7, 71, 0
13, 64290, Note_on_c, 7, 73, 90
13, 64319, Note_on_c, 7, 73, 0
13, 64320, Note_on_c, 7, 71, 90
13, 64349, Note_on_c, 7, 71, 0
13, 64350, Note_on_c, 7, 69, 90
13, 64379, Note_on_c, 7, 69, 0
13, 64380, Note_on_c, 7, 68, 90
13, 64409, Note_on_c, 7, 68, 0
13, 64410, Note_on_c, 7, 71, 90
13, 64439, Note_on_c, 7, 71, 0
13, 64440, Note_on_c, 7, 73, 90
13, 64469, Note_on_c, 7, 73, 0
13, 64470, Note_on_c, 7, 74, 90
13, 64499, Note_on_c, 7, 74, 0
13, 64500, Note_on_c, 7, 76, 90
13, 64529, Note_on_c, 7, 76, 0
13, 64530, Note_on_c, 7, 73, 90
13, 64559, Note_on_c, 7, 73, 0
13, 64560, Note_on_c, 7, 74, 90
13, 64589, Note_on_c, 7, 74, 0
13, 64590, Note_on_c, 7, 76, 90
13, 64619, Note_on_c, 7, 76, 0
13, 64620, Note_on_c, 7, 78, 90
13, 64679, Note_on_c, 7, 78, 0
13, 64680, Note_on_c, 7, 78, 90
13, 64739, Note_on_c, 7, 78, 0
13, 64740, Note_on_c, 7, 78, 90
13, 64799, Note_on_c, 7, 78, 0
13, 64800, Note_on_c, 7, 78, 90
13, 64859, Note_on_c, 7, 78, 0
13, 64860, Note_on_c, 7, 78, 90
13, 64919, Note_on_c, 7, 78, 0
13, 64920, Note_on_c, 7, 76, 90
13, 64949, Note_on_c, 7, 76, 0
13, 64950, Note_on_c, 7, 74, 90
13, 64979, Note_on_c, 7, 74, 0
13, 64980, Note_on_c, 7, 73, 90
13, 65039, Note_on_c, 7, 73, 0
13, 65040, Note_on_c, 7, 71, 90
13, 65099, Note_on_c, 7, 71, 0
13, 65100, Note_on_c, 7, 69, 90
13, 65129, Note_on_c, 7, 69, 0
13, 65130, Note_on_c, 7, 68, 90
13, 65159, Note_on_c, 7, 68, 0
13, 65160, Note_on_c, 7, 69, 90
13, 65189, Note_on_c, 7, 69, 0
13, 65190, Note_on_c, 7, 71, 90
13, 65219, Note_on_c, 7, 71, 0
13, 65220, Note_on_c, 7, 68, 90
13, 65339, Note_on_c, 7, 68, 0
13, 65340, Note_on_c, 7, 69, 90
13, 65459, Note_on_c, 7, 69, 0
13, 65580, Note_on_c, 7, 76, 90
13, 65639, Note_on_c, 7, 76, 0
13, 65640, Note_on_c, 7, 76, 90
13, 65699, Note_on_c, 7, 76, 0
13, 65700, Note_on_c, 7, 76, 90
13, 65759, Note_on_c, 7, 76, 0
13, 65760, Note_on_c, 7, 76, 90
13, 65819, Note_on_c, 7, 76, 0
13, 65820, Note_on_c, 7, 76, 90
13, 65879, Note_on_c, 7, 76, 0
13, 65880, Note_on_c, 7, 74, 90
13, 65909, Note_on_c, 7, 74, 0
13, 65910, Note_on_c, 7, 73, 90
13, 65939, Note_on_c, 7, 73, 0
13, 65940, Note_on_c, 7, 71, 90
13, 65999, Note_on_c, 7, 71, 0
13, 66000, Note_on_c, 7, 69, 90
13, 66059, Note_on_c, 7, 69, 0
13, 66060, Note_on_c, 7, 68, 90
13, 66089, Note_on_c, 7, 68, 0
13, 66090, Note_on_c, 7, 66, 90
13, 66119, Note_on_c, 7, 66, 0
13, 66120, Note_on_c, 7, 64, 90
13, 66149, Note_on_c, 7, 64, 0
13, 66150, Note_on_c, 7, 66, 90
13, 66179, Note_on_c, 7, 66, 0
13, 66180, Note_on_c, 7, 68, 90
13, 66209, Note_on_c, 7, 68, 0
13, 66210, Note_on_c, 7, 66, 90
13, 66239, Note_on_c, 7, 66, 0
13, 66240, Note_on_c, 7, 68, 90
13, 66269, Note_on_c, 7, 68, 0
13, 66270, Note_on_c, 7, 69, 90
13, 66299, Note_on_c, 7, 69, 0
13, 66300, Note_on_c, 7, 71, 90
13, 66329, Note_on_c, 7, 71, 0
13, 66330, Note_on_c, 7, 66, 90
13, 66359, Note_on_c, 7, 66, 0
13, 66360, Note_on_c, 7, 68, 90
13, 66389, Note_on_c, 7, 68, 0
13, 66390, Note_on_c, 7, 69, 90
13, 66419, Note_on_c, 7, 69, 0
13, 66420, Note_on_c, 7, 71, 90
13, 66449, Note_on_c, 7, 71, 0
13, 66450, Note_on_c, 7, 69, 90
13, 66479, Note_on_c, 7, 69, 0
13, 66480, Note_on_c, 7, 71, 90
13, 66509, Note_on_c, 7, 71, 0
13, 66510, Note_on_c, 7, 73, 90
13, 66539, Note_on_c, 7, 73, 0
13, 66540, Note_on_c, 7, 74, 90
13, 66599, Note_on_c, 7, 74, 0
13, 66600, Note_on_c, 7, 74, 90
13, 66659, Note_on_c, 7, 74, 0
13, 66780, Note_on_c, 7, 78, 90
13, 66839, Note_on_c, 7, 78, 0
13, 66840, Note_on_c, 7, 78, 90
13, 66899, Note_on_c, 7, 78, 0
13, 66900, Note_on_c, 7, 78, 90
13, 66959, Note_on_c, 7, 78, 0
13, 66960, Note_on_c, 7, 78, 90
13, 67019, Note_on_c, 7, 78, 0
13, 67020, Note_on_c, 7, 78, 90
13, 67079, Note_on_c, 7, 78, 0
13, 67080, Note_on_c, 7, 76, 90
13, 67109, Note_on_c, 7, 76, 0
13, 67110, Note_on_c, 7, 74, 90
13, 67139, Note_on_c, 7, 74, 0
13, 67140, Note_on_c, 7, 73, 90
13, 67199, Note_on_c, 7, 73, 0
13, 67200, Note_on_c, 7, 71, 90
13, 67259, Note_on_c, 7, 71, 0
13, 67260, Note_on_c, 7, 69, 90
13, 67289, Note_on_c, 7, 69, 0
13, 67290, Note_on_c, 7, 68, 90
13, 67319, Note_on_c, 7, 68, 0
13, 67320, Note_on_c, 7, 66, 90
13, 67349, Note_on_c, 7, 66, 0
13, 67350, Note_on_c, 7, 68, 90
13, 67379, Note_on_c, 7, 68, 0
13, 67380, Note_on_c, 7, 69, 90
13, 67409, Note_on_c, 7, 69, 0
13, 67410, Note_on_c, 7, 68, 90
13, 67439, Note_on_c, 7, 68, 0
13, 67440, Note_on_c, 7, 69, 90
13, 67469, Note_on_c, 7, 69, 0
13, 67470, Note_on_c, 7, 71, 90
13, 67499, Note_on_c, 7, 71, 0
13, 67500, Note_on_c, 7, 73, 90
13, 67529, Note_on_c, 7, 73, 0
13, 67530, Note_on_c, 7, 68, 90
13, 67559, Note_on_c, 7, 68, 0
13, 67560, Note_on_c, 7, 69, 90
13, 67589, Note_on_c, 7, 69, 0
13, 67590, Note_on_c, 7, 71, 90
13, 67619, Note_on_c, 7, 71, 0
13, 67620, Note_on_c, 7, 73, 90
13, 67649, Note_on_c, 7, 73, 0
13, 67650, Note_on_c, 7, 71, 90
13, 67679, Note_on_c, 7, 71, 0
13, 67680, Note_on_c, 7, 73, 90
13, 67709, Note_on_c, 7, 73, 0
13, 67710, Note_on_c, 7, 74, 90
13, 67739, Note_on_c, 7, 74, 0
13, 67740, Note_on_c, 7, 68, 90
13, 67799, Note_on_c, 7, 68, 0
13, 67800, Note_on_c, 7, 68, 90
13, 67859, Note_on_c, 7, 68, 0
13, 67860, Note_on_c, 7, 73, 90
13, 67919, Note_on_c, 7, 73, 0
13, 67920, Note_on_c, 7, 73, 90
13, 67979, Note_on_c, 7, 73, 0
13, 67980, Note_on_c, 7, 73, 90
13, 68039, Note_on_c, 7, 73, 0
13, 68040, Note_on_c, 7, 71, 90
13, 68069, Note_on_c, 7, 71, 0
13, 68070, Note_on_c, 7, 69, 90
13, 68099, Note_on_c, 7, 69, 0
13, 68100, Note_on_c, 7, 68, 90
13, 68159, Note_on_c, 7, 68, 0
13, 68160, Note_on_c, 7, 73, 90
13, 68219, Note_on_c, 7, 73, 0
13, 68220, Note_on_c, 7, 73, 90
13, 68279, Note_on_c, 7, 73, 0
13, 68280, Note_on_c, 7, 66, 90
13, 68339, Note_on_c, 7, 66, 0
13, 68460, Note_on_c, 7, 71, 90
13, 68519, Note_on_c, 7, 71, 0
13, 68520, Note_on_c, 7, 71, 90
13, 68579, Note_on_c, 7, 71, 0
13, 68580, Note_on_c, 7, 71, 90
13, 68639, Note_on_c, 7, 71, 0
13, 68640, Note_on_c, 7, 71, 90
13, 68699, Note_on_c, 7, 71, 0
13, 68700, Note_on_c, 7, 71, 90
13, 68759, Note_on_c, 7, 71, 0
13, 68760, Note_on_c, 7, 69, 90
13, 68789, Note_on_c, 7, 69, 0
13, 68790, Note_on_c, 7, 68, 90
13, 68819, Note_on_c, 7, 68, 0
13, 68820, Note_on_c, 7, 66, 90
13, 68879, Note_on_c, 7, 66, 0
13, 68880, Note_on_c, 7, 64, 90
13, 68939, Note_on_c, 7, 64, 0
13, 68940, Note_on_c, 7, 62, 90
13, 68999, Note_on_c, 7, 62, 0
13, 69000, Note_on_c, 7, 64, 90
13, 69029, Note_on_c, 7, 64, 0
13, 69030, Note_on_c, 7, 66, 90
13, 69059, Note_on_c, 7, 66, 0
13, 69060, Note_on_c, 7, 67, 90
13, 69239, Note_on_c, 7, 67, 0
13, 69240, Note_on_c, 7, 66, 90
13, 69269, Note_on_c, 7, 66, 0
13, 69270, Note_on_c, 7, 64, 90
13, 69299, Note_on_c, 7, 64, 0
13, 69300, Note_on_c, 7, 76, 90
13, 69329, Note_on_c, 7, 76, 0
13, 69330, Note_on_c, 7, 73, 90
13, 69359, Note_on_c, 7, 73, 0
13, 69360, Note_on_c, 7, 74, 90
13, 69389, Note_on_c, 7, 74, 0
13, 69390, Note_on_c, 7, 76, 90
13, 69419, Note_on_c, 7, 76, 0
13, 69420, Note_on_c, 7, 78, 90
13, 69479, Note_on_c, 7, 78, 0
13, 69480, Note_on_c, 7, 78, 90
13, 69539, Note_on_c, 7, 78, 0
13, 69540, Note_on_c, 7, 78, 90
13, 69599, Note_on_c, 7, 78, 0
13, 69600, Note_on_c, 7, 78, 90
13, 69659, Note_on_c, 7, 78, 0
13, 69660, Note_on_c, 7, 78, 90
13, 69719, Note_on_c, 7, 78, 0
13, 69720, Note_on_c, 7, 76, 90
13, 69749, Note_on_c, 7, 76, 0
13, 69750, Note_on_c, 7, 74, 90
13, 69779, Note_on_c, 7, 74, 0
13, 69780, Note_on_c, 7, 73, 90
13, 69839, Note_on_c, 7, 73, 0
13, 69840, Note_on_c, 7, 71, 90
13, 69899, Note_on_c, 7, 71, 0
13, 69900, Note_on_c, 7, 69, 90
13, 69929, Note_on_c, 7, 69, 0
13, 69930, Note_on_c, 7, 68, 90
13, 69959, Note_on_c, 7, 68, 0
13, 69960, Note_on_c, 7, 66, 90
13, 69989, Note_on_c, 7, 66, 0
13, 69990, Note_on_c, 7, 68, 90
13, 70019, Note_on_c, 7, 68, 0
13, 70020, Note_on_c, 7, 69, 90
13, 70049, Note_on_c, 7, 69, 0
13, 70050, Note_on_c, 7, 66, 90
13, 70079, Note_on_c, 7, 66, 0
13, 70080, Note_on_c, 7, 68, 90
13, 70109, Note_on_c, 7, 68, 0
13, 70110, Note_on_c, 7, 69, 90
13, 70139, Note_on_c, 7, 69, 0
13, 70140, Note_on_c, 7, 63, 90
13, 70199, Note_on_c, 7, 63, 0
13, 70200, Note_on_c, 7, 63, 90
13, 70259, Note_on_c, 7, 63, 0
13, 70320, Note_on_c, 7, 73, 90
13, 70349, Note_on_c, 7, 73, 0
13, 70350, Note_on_c, 7, 72, 90
13, 70379, Note_on_c, 7, 72, 0
13, 70380, Note_on_c, 7, 76, 90
13, 70469, Note_on_c, 7, 76, 0
13, 70470, Note_on_c, 7, 75, 90
13, 70499, Note_on_c, 7, 75, 0
13, 70500, Note_on_c, 7, 75, 90
13, 70619, Note_on_c, 7, 75, 0
13, 70620, Note_on_c, 7, 73, 90
13, 70739, Note_on_c, 7, 73, 0
13, 71160, Note_on_c, 7, 73, 90
13, 71189, Note_on_c, 7, 73, 0
13, 71190, Note_on_c, 7, 73, 90
13, 71219, Note_on_c, 7, 73, 0
13, 71220, Note_on_c, 7, 73, 90
13, 71279, Note_on_c, 7, 73, 0
13, 71280, Note_on_c, 7, 73, 90
13, 71339, Note_on_c, 7, 73, 0
13, 71340, Note_on_c, 7, 73, 90
13, 71399, Note_on_c, 7, 73, 0
13, 71400, Note_on_c, 7, 71, 90
13, 71429, Note_on_c, 7, 71, 0
13, 71430, Note_on_c, 7, 69, 90
13, 71459, Note_on_c, 7, 69, 0
13, 71460, Note_on_c, 7, 68, 90
13, 71519, Note_on_c, 7, 68, 0
13, 71520, Note_on_c, 7, 66, 90
13, 71579, Note_on_c, 7, 66, 0
13, 71580, Note_on_c, 7, 65, 90
13, 71609, Note_on_c, 7, 65, 0
13, 71610, Note_on_c, 7, 63, 90
13, 71639, Note_on_c, 7, 63, 0
13, 71640, Note_on_c, 7, 61, 90
13, 71669, Note_on_c, 7, 61, 0
13, 71670, Note_on_c, 7, 63, 90
13, 71699, Note_on_c, 7, 63, 0
13, 71700, Note_on_c, 7, 65, 90
13, 71729, Note_on_c, 7, 65, 0
13, 71730, Note_on_c, 7, 66, 90
13, 71759, Note_on_c, 7, 66, 0
13, 71760, Note_on_c, 7, 65, 90
13, 71789, Note_on_c, 7, 65, 0
13, 71790, Note_on_c, 7, 66, 90
13, 71819, Note_on_c, 7, 66, 0
13, 71820, Note_on_c, 7, 68, 90
13, 71849, Note_on_c, 7, 68, 0
13, 71850, Note_on_c, 7, 66, 90
13, 71879, Note_on_c, 7, 66, 0
13, 71880, Note_on_c, 7, 68, 90
13, 71909, Note_on_c, 7, 68, 0
13, 71910, Note_on_c, 7, 69, 90
13, 71939, Note_on_c, 7, 69, 0
13, 71940, Note_on_c, 7, 71, 90
13, 72179, Note_on_c, 7, 71, 0
13, 72180, Note_on_c, 7, 71, 90
13, 72299, Note_on_c, 7, 71, 0
13, 72300, Note_on_c, 7, 71, 90
13, 72359, Note_on_c, 7, 71, 0
13, 72360, Note_on_c, 7, 71, 90
13, 72419, Note_on_c, 7, 71, 0
13, 72420, Note_on_c, 7, 71, 90
13, 72479, Note_on_c, 7, 71, 0
13, 72480, Note_on_c, 7, 71, 90
13, 72539, Note_on_c, 7, 71, 0
13, 72540, Note_on_c, 7, 71, 90
13, 72599, Note_on_c, 7, 71, 0
13, 72600, Note_on_c, 7, 69, 90
13, 72629, Note_on_c, 7, 69, 0
13, 72630, Note_on_c, 7, 68, 90
13, 72659, Note_on_c, 7, 68, 0
13, 72660, Note_on_c, 7, 69, 90
13, 72719, Note_on_c, 7, 69, 0
13, 72720, Note_on_c, 7, 71, 90
13, 72779, Note_on_c, 7, 71, 0
13, 72780, Note_on_c, 7, 73, 90
13, 72839, Note_on_c, 7, 73, 0
13, 72840, Note_on_c, 7, 73, 90
13, 72899, Note_on_c, 7, 73, 0
13, 73020, Note_on_c, 7, 78, 90
13, 73079, Note_on_c, 7, 78, 0
13, 73080, Note_on_c, 7, 78, 90
13, 73139, Note_on_c, 7, 78, 0
13, 73140, Note_on_c, 7, 78, 90
13, 73199, Note_on_c, 7, 78, 0
13, 73200, Note_on_c, 7, 78, 90
13, 73259, Note_on_c, 7, 78, 0
13, 73260, Note_on_c, 7, 78, 90
13, 73319, Note_on_c, 7, 78, 0
13, 73320, Note_on_c, 7, 77, 90
13, 73349, Note_on_c, 7, 77, 0
13, 73350, Note_on_c, 7, 75, 90
13, 73379, Note_on_c, 7, 75, 0
13, 73380, Note_on_c, 7, 73, 90
13, 73439, Note_on_c, 7, 73, 0
13, 73440, Note_on_c, 7, 71, 90
13, 73499, Note_on_c, 7, 71, 0
13, 73500, Note_on_c, 7, 69, 90
13, 73589, Note_on_c, 7, 69, 0
13, 73590, Note_on_c, 7, 71, 90
13, 73619, Note_on_c, 7, 71, 0
13, 73620, Note_on_c, 7, 68, 90
13, 73739, Note_on_c, 7, 68, 0
13, 73740, Note_on_c, 7, 66, 90
13, 73979, Note_on_c, 7, 66, 0
13, 117240, Note_on_c, 7, 67, 100
13, 117280, Note_on_c, 7, 67, 0
13, 117300, Note_on_c, 7, 71, 100
13, 117340, Note_on_c, 7, 71, 0
13, 117360, Note_on_c, 7, 67, 100
13, 117400, Note_on_c, 7, 67, 0
13, 117420, Note_on_c, 7, 74, 100
13, 117480, Note_on_c, 7, 74, 0
13, 117510, Note_on_c, 7, 74, 100
13, 117530, Note_on_c, 7, 74, 0
13, 117540, Note_on_c, 7, 74, 100
13, 117620, Note_on_c, 7, 74, 0
13, 117720, Note_on_c, 7, 72, 100
13, 117760, Note_on_c, 7, 72, 0
13, 117780, Note_on_c, 7, 76, 100
13, 117820, Note_on_c, 7, 76, 0
13, 117840, Note_on_c, 7, 72, 100
13, 117880, Note_on_c, 7, 72, 0
13, 117900, Note_on_c, 7, 79, 100
13, 117960, Note_on_c, 7, 79, 0
13, 117990, Note_on_c, 7, 79, 100
13, 118010, Note_on_c, 7, 79, 0
13, 118020, Note_on_c, 7, 79, 100
13, 118100, Note_on_c, 7, 79, 0
13, 119160, Note_on_c, 7, 66, 100
13, 119200, Note_on_c, 7, 66, 0
13, 119220, Note_on_c, 7, 69, 100
13, 119260, Note_on_c, 7, 69, 0
13, 119280, Note_on_c, 7, 74, 100
13, 119320, Note_on_c, 7, 74, 0
13, 119340, Note_on_c, 7, 74, 100
13, 119400, Note_on_c, 7, 74, 0
13, 119430, Note_on_c, 7, 74, 100
13, 119450, Note_on_c, 7, 74, 0
13, 119460, Note_on_c, 7, 74, 100
13, 119540, Note_on_c, 7, 74, 0
13, 119640, Note_on_c, 7, 62, 100
13, 119680, Note_on_c, 7, 62, 0
13, 119700, Note_on_c, 7, 67, 100
13, 119740, Note_on_c, 7, 67, 0
13, 119760, Note_on_c, 7, 71, 100
13, 119800, Note_on_c, 7, 71, 0
13, 119820, Note_on_c, 7, 69, 100
13, 119880, Note_on_c, 7, 69, 0
13, 119910, Note_on_c, 7, 69, 100
13, 119930, Note_on_c, 7, 69, 0
13, 119940, Note_on_c, 7, 69, 100
13, 120020, Note_on_c, 7, 69, 0
13, 121080, Note_on_c, 7, 67, 100
13, 121120, Note_on_c, 7, 67, 0
13, 121140, Note_on_c, 7, 71, 100
13, 121180, Note_on_c, 7, 71, 0
13, 121200, Note_on_c, 7, 67, 100
13, 121240, Note_on_c, 7, 67, 0
13, 121260, Note_on_c, 7, 74, 100
13, 121348, Note_on_c, 7, 74, 0
13, 121350, Note_on_c, 7, 74, 100
13, 121378, Note_on_c, 7, 74, 0
13, 121380, Note_on_c, 7, 74, 100
13, 121498, Note_on_c, 7, 74, 0
13, 121560, Note_on_c, 7, 72, 100
13, 121618, Note_on_c, 7, 72, 0
13, 121620, Note_on_c, 7, 76, 100
13, 121678, Note_on_c, 7, 76, 0
13, 121680, Note_on_c, 7, 72, 100
13, 121738, Note_on_c, 7, 72, 0
13, 121740, Note_on_c, 7, 79, 100
13, 121828, Note_on_c, 7, 79, 0
13, 121830, Note_on_c, 7, 79, 100
13, 121858, Note_on_c, 7, 79, 0
13, 121860, Note_on_c, 7, 79, 100
13, 121978, Note_on_c, 7, 79, 0
13, 123000, Note_on_c, 7, 62, 100
13, 123058, Note_on_c, 7, 62, 0
13, 123060, Note_on_c, 7, 66, 100
13, 123118, Note_on_c, 7, 66, 0
13, 123120, Note_on_c, 7, 62, 100
13, 123178, Note_on_c, 7, 62, 0
13, 123180, Note_on_c, 7, 69, 100
13, 123268, Note_on_c, 7, 69, 0
13, 123270, Note_on_c, 7, 69, 100
13, 123298, Note_on_c, 7, 69, 0
13, 123300, Note_on_c, 7, 69, 100
13, 123418, Note_on_c, 7, 69, 0
13, 123480, Note_on_c, 7, 67, 100
13, 123538, Note_on_c, 7, 67, 0
13, 123540, Note_on_c, 7, 71, 100
13, 123598, Note_on_c, 7, 71, 0
13, 123600, Note_on_c, 7, 67, 100
13, 123658, Note_on_c, 7, 67, 0
13, 123660, Note_on_c, 7, 74, 100
13, 123748, Note_on_c, 7, 74, 0
13, 123750, Note_on_c, 7, 74, 100
13, 123778, Note_on_c, 7, 74, 0
13, 123780, Note_on_c, 7, 74, 100
13, 123898, Note_on_c, 7, 74, 0
13, 124860, Note_on_c, 7, 69, 100
13, 124918, Note_on_c, 7, 69, 0
13, 124920, Note_on_c, 7, 73, 100
13, 124948, Note_on_c, 7, 73, 0
13, 124950, Note_on_c, 7, 71, 100
13, 124978, Note_on_c, 7, 71, 0
13, 124980, Note_on_c, 7, 69, 100
13, 125038, Note_on_c, 7, 69, 0
13, 125040, Note_on_c, 7, 69, 100
13, 125098, Note_on_c, 7, 69, 0
13, 125100, Note_on_c, 7, 69, 100
13, 125128, Note_on_c, 7, 69, 0
13, 125130, Note_on_c, 7, 64, 100
13, 125158, Note_on_c, 7, 64, 0
13, 125160, Note_on_c, 7, 66, 100
13, 125188, Note_on_c, 7, 66, 0
13, 125190, Note_on_c, 7, 67, 100
13, 125218, Note_on_c, 7, 67, 0
13, 125220, Note_on_c, 7, 69, 100
13, 125248, Note_on_c, 7, 69, 0
13, 125250, Note_on_c, 7, 73, 100
13, 125278, Note_on_c, 7, 73, 0
13, 125280, Note_on_c, 7, 71, 100
13, 125308, Note_on_c, 7, 71, 0
13, 125310, Note_on_c, 7, 69, 100
13, 125338, Note_on_c, 7, 69, 0
13, 125340, Note_on_c, 7, 74, 100
13, 125368, Note_on_c, 7, 74, 0
13, 125370, Note_on_c, 7, 64, 100
13, 125398, Note_on_c, 7, 64, 0
13, 125400, Note_on_c, 7, 66, 100
13, 125428, Note_on_c, 7, 66, 0
13, 125430, Note_on_c, 7, 67, 100
13, 125458, Note_on_c, 7, 67, 0
13, 125460, Note_on_c, 7, 69, 100
13, 125488, Note_on_c, 7, 69, 0
13, 125490, Note_on_c, 7, 73, 100
13, 125518, Note_on_c, 7, 73, 0
13, 125520, Note_on_c, 7, 71, 100
13, 125548, Note_on_c, 7, 71, 0
13, 125550, Note_on_c, 7, 69, 100
13, 125578, Note_on_c, 7, 69, 0
13, 125580, Note_on_c, 7, 76, 100
13, 125608, Note_on_c, 7, 76, 0
13, 125610, Note_on_c, 7, 66, 100
13, 125638, Note_on_c, 7, 66, 0
13, 125640, Note_on_c, 7, 66, 100
13, 125668, Note_on_c, 7, 66, 0
13, 125670, Note_on_c, 7, 67, 100
13, 125698, Note_on_c, 7, 67, 0
13, 125700, Note_on_c, 7, 69, 100
13, 125728, Note_on_c, 7, 69, 0
13, 125730, Note_on_c, 7, 73, 100
13, 125758, Note_on_c, 7, 73, 0
13, 125760, Note_on_c, 7, 71, 100
13, 125788, Note_on_c, 7, 71, 0
13, 125790, Note_on_c, 7, 69, 100
13, 125818, Note_on_c, 7, 69, 0
13, 125820, Note_on_c, 7, 78, 100
13, 125848, Note_on_c, 7, 78, 0
13, 125850, Note_on_c, 7, 81, 100
13, 125878, Note_on_c, 7, 81, 0
13, 125880, Note_on_c, 7, 79, 100
13, 125908, Note_on_c, 7, 79, 0
13, 125910, Note_on_c, 7, 81, 100
13, 125938, Note_on_c, 7, 81, 0
13, 125940, Note_on_c, 7, 78, 100
13, 125968, Note_on_c, 7, 78, 0
13, 125970, Note_on_c, 7, 79, 100
13, 125998, Note_on_c, 7, 79, 0
13, 126000, Note_on_c, 7, 76, 100
13, 126028, Note_on_c, 7, 76, 0
13, 126030, Note_on_c, 7, 78, 100
13, 126058, Note_on_c, 7, 78, 0
13, 126060, Note_on_c, 7, 74, 100
13, 126088, Note_on_c, 7, 74, 0
13, 126090, Note_on_c, 7, 76, 100
13, 126118, Note_on_c, 7, 76, 0
13, 126120, Note_on_c, 7, 73, 100
13, 126148, Note_on_c, 7, 73, 0
13, 126150, Note_on_c, 7, 74, 100
13, 126178, Note_on_c, 7, 74, 0
13, 126180, Note_on_c, 7, 71, 100
13, 126208, Note_on_c, 7, 71, 0
13, 126210, Note_on_c, 7, 76, 100
13, 126238, Note_on_c, 7, 76, 0
13, 126240, Note_on_c, 7, 74, 100
13, 126268, Note_on_c, 7, 74, 0
13, 126270, Note_on_c, 7, 76, 100
13, 126298, Note_on_c, 7, 76, 0
13, 126300, Note_on_c, 7, 73, 100
13, 126358, Note_on_c, 7, 73, 0
13, 126360, Note_on_c, 7, 71, 100
13, 126388, Note_on_c, 7, 71, 0
13, 126390, Note_on_c, 7, 73, 100
13, 126418, Note_on_c, 7, 73, 0
13, 126420, Note_on_c, 7, 69, 100
13, 126478, Note_on_c, 7, 69, 0
13, 126480, Note_on_c, 7, 69, 100
13, 126538, Note_on_c, 7, 69, 0
13, 126540, Note_on_c, 7, 71, 100
13, 126598, Note_on_c, 7, 71, 0
13, 126600, Note_on_c, 7, 67, 100
13, 126628, Note_on_c, 7, 67, 0
13, 126630, Note_on_c, 7, 71, 100
13, 126658, Note_on_c, 7, 71, 0
13, 126660, Note_on_c, 7, 73, 100
13, 126718, Note_on_c, 7, 73, 0
13, 126720, Note_on_c, 7, 69, 100
13, 126748, Note_on_c, 7, 69, 0
13, 126750, Note_on_c, 7, 73, 100
13, 126778, Note_on_c, 7, 73, 0
13, 126780, Note_on_c, 7, 74, 100
13, 126838, Note_on_c, 7, 74, 0
13, 126840, Note_on_c, 7, 69, 100
13, 126868, Note_on_c, 7, 69, 0
13, 126870, Note_on_c, 7, 67, 100
13, 126898, Note_on_c, 7, 67, 0
13, 126900, Note_on_c, 7, 66, 100
13, 126958, Note_on_c, 7, 66, 0
13, 126960, Note_on_c, 7, 69, 100
13, 127018, Note_on_c, 7, 69, 0
13, 127020, Note_on_c, 7, 78, 100
13, 127108, Note_on_c, 7, 78, 0
13, 127110, Note_on_c, 7, 78, 100
13, 127138, Note_on_c, 7, 78, 0
13, 127140, Note_on_c, 7, 78, 100
13, 127258, Note_on_c, 7, 78, 0
13, 127320, Note_on_c, 7, 74, 100
13, 127378, Note_on_c, 7, 74, 0
13, 127380, Note_on_c, 7, 74, 100
13, 127438, Note_on_c, 7, 74, 0
13, 127440, Note_on_c, 7, 74, 100
13, 127498, Note_on_c, 7, 74, 0
13, 127500, Note_on_c, 7, 74, 100
13, 127588, Note_on_c, 7, 74, 0
13, 127590, Note_on_c, 7, 74, 100
13, 127618, Note_on_c, 7, 74, 0
13, 127620, Note_on_c, 7, 74, 100
13, 127738, Note_on_c, 7, 74, 0
13, 127800, Note_on_c, 7, 62, 100
13, 127858, Note_on_c, 7, 62, 0
13, 127860, Note_on_c, 7, 74, 100
13, 128038, Note_on_c, 7, 74, 0
13, 128040, Note_on_c, 7, 76, 100
13, 128068, Note_on_c, 7, 76, 0
13, 128070, Note_on_c, 7, 74, 100
13, 128098, Note_on_c, 7, 74, 0
13, 128100, Note_on_c, 7, 73, 100
13, 128218, Note_on_c, 7, 73, 0
13, 128220, Note_on_c, 7, 74, 100
13, 128278, Note_on_c, 7, 74, 0
13, 128280, Note_on_c, 7, 69, 100
13, 128338, Note_on_c, 7, 69, 0
13, 128340, Note_on_c, 7, 71, 100
13, 128368, Note_on_c, 7, 71, 0
13, 128370, Note_on_c, 7, 73, 100
13, 128398, Note_on_c, 7, 73, 0
13, 128400, Note_on_c, 7, 71, 100
13, 128428, Note_on_c, 7, 71, 0
13, 128430, Note_on_c, 7, 73, 100
13, 128458, Note_on_c, 7, 73, 0
13, 128460, Note_on_c, 7, 74, 100
13, 128488, Note_on_c, 7, 74, 0
13, 128490, Note_on_c, 7, 76, 100
13, 128518, Note_on_c, 7, 76, 0
13, 128520, Note_on_c, 7, 78, 100
13, 128548, Note_on_c, 7, 78, 0
13, 128550, Note_on_c, 7, 74, 100
13, 128578, Note_on_c, 7, 74, 0
13, 128580, Note_on_c, 7, 71, 100
13, 128608, Note_on_c, 7, 71, 0
13, 128610, Note_on_c, 7, 73, 100
13, 128638, Note_on_c, 7, 73, 0
13, 128640, Note_on_c, 7, 74, 100
13, 128668, Note_on_c, 7, 74, 0
13, 128670, Note_on_c, 7, 71, 100
13, 128698, Note_on_c, 7, 71, 0
13, 128700, Note_on_c, 7, 73, 100
13, 128758, Note_on_c, 7, 73, 0
13, 128760, Note_on_c, 7, 69, 100
13, 128788, Note_on_c, 7, 69, 0
13, 128790, Note_on_c, 7, 73, 100
13, 128818, Note_on_c, 7, 73, 0
13, 128820, Note_on_c, 7, 75, 100
13, 128878, Note_on_c, 7, 75, 0
13, 128880, Note_on_c, 7, 69, 100
13, 128908, Note_on_c, 7, 69, 0
13, 128910, Note_on_c, 7, 74, 100
13, 128938, Note_on_c, 7, 74, 0
13, 128940, Note_on_c, 7, 76, 100
13, 128998, Note_on_c, 7, 76, 0
13, 129000, Note_on_c, 7, 76, 100
13, 129058, Note_on_c, 7, 76, 0
13, 129120, Note_on_c, 7, 76, 100
13, 129178, Note_on_c, 7, 76, 0
13, 129180, Note_on_c, 7, 74, 100
13, 129208, Note_on_c, 7, 74, 0
13, 129210, Note_on_c, 7, 76, 100
13, 129238, Note_on_c, 7, 76, 0
13, 129240, Note_on_c, 7, 78, 100
13, 129268, Note_on_c, 7, 78, 0
13, 129270, Note_on_c, 7, 74, 100
13, 129298, Note_on_c, 7, 74, 0
13, 129300, Note_on_c, 7, 79, 100
13, 129358, Note_on_c, 7, 79, 0
13, 129360, Note_on_c, 7, 71, 100
13, 129418, Note_on_c, 7, 71, 0
13, 129480, Note_on_c, 7, 78, 100
13, 129538, Note_on_c, 7, 78, 0
13, 129540, Note_on_c, 7, 74, 100
13, 129598, Note_on_c, 7, 74, 0
13, 129600, Note_on_c, 7, 71, 100
13, 129658, Note_on_c, 7, 71, 0
13, 129840, Note_on_c, 7, 76, 100
13, 129898, Note_on_c, 7, 76, 0
13, 129900, Note_on_c, 7, 73, 100
13, 129958, Note_on_c, 7, 73, 0
13, 129960, Note_on_c, 7, 69, 100
13, 130018, Note_on_c, 7, 69, 0
13, 130350, Note_on_c, 7, 73, 100
13, 130378, Note_on_c, 7, 73, 0
13, 130380, Note_on_c, 7, 80, 100
13, 130438, Note_on_c, 7, 80, 0
13, 130440, Note_on_c, 7, 80, 100
13, 130498, Note_on_c, 7, 80, 0
13, 130740, Note_on_c, 7, 78, 100
13, 130978, Note_on_c, 7, 78, 0
13, 130980, Note_on_c, 7, 74, 100
13, 131098, Note_on_c, 7, 74, 0
13, 131100, Note_on_c, 7, 71, 100
13, 131338, Note_on_c, 7, 71, 0
13, 131340, Note_on_c, 7, 71, 100
13, 131578, Note_on_c, 7, 71, 0
13, 131580, Note_on_c, 7, 71, 100
13, 131818, Note_on_c, 7, 71, 0
13, 131820, Note_on_c, 7, 70, 100
13, 132058, Note_on_c, 7, 70, 0
13, 132060, Note_on_c, 7, 71, 100
13, 132178, Note_on_c, 7, 71, 0
13, 132180, Note_on_c, 7, 74, 100
13, 132418, Note_on_c, 7, 74, 0
13, 132420, Note_on_c, 7, 74, 100
13, 132538, Note_on_c, 7, 74, 0
13, 132540, Note_on_c, 7, 73, 100
13, 132778, Note_on_c, 7, 73, 0
13, 132780, Note_on_c, 7, 74, 100
13, 133018, Note_on_c, 7, 74, 0
13, 133020, Note_on_c, 7, 74, 100
13, 133258, Note_on_c, 7, 74, 0
13, 133260, Note_on_c, 7, 73, 100
13, 133498, Note_on_c, 7, 73, 0
13, 133500, Note_on_c, 7, 74, 100
13, 133978, Note_on_c, 7, 74, 0
13, 179955, Program_c, 7, 64
13, 180000, Note_on_c, 7, 70, 100
13, 180058, Note_on_c, 7, 70, 0
13, 180060, Note_on_c, 7, 71, 100
13, 180118, Note_on_c, 7, 71, 0
13, 180120, Note_on_c, 7, 73, 100
13, 180178, Note_on_c, 7, 73, 0
13, 180180, Note_on_c, 7, 74, 100
13, 180238, Note_on_c, 7, 74, 0
13, 180240, Note_on_c, 7, 76, 100
13, 180298, Note_on_c, 7, 76, 0
13, 180300, Note_on_c, 7, 78, 100
13, 180478, Note_on_c, 7, 78, 0
13, 180480, Note_on_c, 7, 78, 100
13, 180538, Note_on_c, 7, 78, 0
13, 180540, Note_on_c, 7, 78, 100
13, 180658, Note_on_c, 7, 78, 0
13, 180660, Note_on_c, 7, 78, 100
13, 180778, Note_on_c, 7, 78, 0
13, 180780, Note_on_c, 7, 76, 100
13, 180838, Note_on_c, 7, 76, 0
13, 180840, Note_on_c, 7, 74, 100
13, 180898, Note_on_c, 7, 74, 0
13, 180900, Note_on_c, 7, 73, 100
13, 180958, Note_on_c, 7, 73, 0
13, 180960, Note_on_c, 7, 71, 100
13, 181018, Note_on_c, 7, 71, 0
13, 181020, Note_on_c, 7, 70, 100
13, 181198, Note_on_c, 7, 70, 0
13, 181200, Note_on_c, 7, 68, 100
13, 181258, Note_on_c, 7, 68, 0
13, 181260, Note_on_c, 7, 66, 100
13, 181378, Note_on_c, 7, 66, 0
13, 181440, Note_on_c, 7, 74, 100
13, 181498, Note_on_c, 7, 74, 0
13, 181500, Note_on_c, 7, 73, 100
13, 181558, Note_on_c, 7, 73, 0
13, 181560, Note_on_c, 7, 71, 100
13, 181618, Note_on_c, 7, 71, 0
13, 181620, Note_on_c, 7, 69, 100
13, 181678, Note_on_c, 7, 69, 0
13, 181680, Note_on_c, 7, 67, 100
13, 181738, Note_on_c, 7, 67, 0
13, 181740, Note_on_c, 7, 76, 100
13, 181918, Note_on_c, 7, 76, 0
13, 181920, Note_on_c, 7, 76, 100
13, 181978, Note_on_c, 7, 76, 0
13, 181980, Note_on_c, 7, 76, 100
13, 182098, Note_on_c, 7, 76, 0
13, 182160, Note_on_c, 7, 76, 100
13, 182218, Note_on_c, 7, 76, 0
13, 182220, Note_on_c, 7, 74, 100
13, 182278, Note_on_c, 7, 74, 0
13, 182280, Note_on_c, 7, 73, 100
13, 182338, Note_on_c, 7, 73, 0
13, 182340, Note_on_c, 7, 71, 100
13, 182398, Note_on_c, 7, 71, 0
13, 182400, Note_on_c, 7, 70, 100
13, 182458, Note_on_c, 7, 70, 0
13, 182460, Note_on_c, 7, 71, 100
13, 182638, Note_on_c, 7, 71, 0
13, 182640, Note_on_c, 7, 71, 100
13, 182698, Note_on_c, 7, 71, 0
13, 182700, Note_on_c, 7, 71, 100
13, 182818, Note_on_c, 7, 71, 0
13, 182880, Note_on_c, 7, 66, 100
13, 182938, Note_on_c, 7, 66, 0
13, 182940, Note_on_c, 7, 67, 100
13, 182998, Note_on_c, 7, 67, 0
13, 183000, Note_on_c, 7, 69, 100
13, 183058, Note_on_c, 7, 69, 0
13, 183060, Note_on_c, 7, 71, 100
13, 183118, Note_on_c, 7, 71, 0
13, 183120, Note_on_c, 7, 73, 100
13, 183178, Note_on_c, 7, 73, 0
13, 183180, Note_on_c, 7, 74, 100
13, 183358, Note_on_c, 7, 74, 0
13, 183360, Note_on_c, 7, 74, 100
13, 183418, Note_on_c, 7, 74, 0
13, 183420, Note_on_c, 7, 74, 100
13, 183538, Note_on_c, 7, 74, 0
13, 183600, Note_on_c, 7, 78, 100
13, 183658, Note_on_c, 7, 78, 0
13, 183660, Note_on_c, 7, 76, 100
13, 183718, Note_on_c, 7, 76, 0
13, 183720, Note_on_c, 7, 74, 100
13, 183778, Note_on_c, 7, 74, 0
13, 183780, Note_on_c, 7, 73, 100
13, 183838, Note_on_c, 7, 73, 0
13, 183840, Note_on_c, 7, 71, 100
13, 183898, Note_on_c, 7, 71, 0
13, 183900, Note_on_c, 7, 73, 100
13, 183958, Note_on_c, 7, 73, 0
13, 183960, Note_on_c, 7, 74, 100
13, 184018, Note_on_c, 7, 74, 0
13, 184020, Note_on_c, 7, 73, 100
13, 184078, Note_on_c, 7, 73, 0
13, 184080, Note_on_c, 7, 71, 100
13, 184138, Note_on_c, 7, 71, 0
13, 184140, Note_on_c, 7, 69, 100
13, 184198, Note_on_c, 7, 69, 0
13, 184200, Note_on_c, 7, 67, 100
13, 184258, Note_on_c, 7, 67, 0
13, 184260, Note_on_c, 7, 66, 100
13, 184318, Note_on_c, 7, 66, 0
13, 184320, Note_on_c, 7, 62, 100
13, 184378, Note_on_c, 7, 62, 0
13, 184380, Note_on_c, 7, 67, 100
13, 184438, Note_on_c, 7, 67, 0
13, 184440, Note_on_c, 7, 66, 100
13, 184498, Note_on_c, 7, 66, 0
13, 184500, Note_on_c, 7, 64, 100
13, 184558, Note_on_c, 7, 64, 0
13, 184560, Note_on_c, 7, 62, 100
13, 184618, Note_on_c, 7, 62, 0
13, 184620, Note_on_c, 7, 61, 100
13, 184678, Note_on_c, 7, 61, 0
13, 184680, Note_on_c, 7, 69, 100
13, 184738, Note_on_c, 7, 69, 0
13, 184740, Note_on_c, 7, 74, 100
13, 184798, Note_on_c, 7, 74, 0
13, 184800, Note_on_c, 7, 76, 100
13, 184858, Note_on_c, 7, 76, 0
13, 184860, Note_on_c, 7, 78, 100
13, 184978, Note_on_c, 7, 78, 0
13, 185040, Note_on_c, 7, 71, 100
13, 185098, Note_on_c, 7, 71, 0
13, 185100, Note_on_c, 7, 73, 100
13, 185158, Note_on_c, 7, 73, 0
13, 185160, Note_on_c, 7, 74, 100
13, 185218, Note_on_c, 7, 74, 0
13, 185220, Note_on_c, 7, 76, 100
13, 185398, Note_on_c, 7, 76, 0
13, 185400, Note_on_c, 7, 78, 100
13, 185428, Note_on_c, 7, 78, 0
13, 185430, Note_on_c, 7, 79, 100
13, 185458, Note_on_c, 7, 79, 0
13, 185460, Note_on_c, 7, 78, 100
13, 185518, Note_on_c, 7, 78, 0
13, 185520, Note_on_c, 7, 76, 100
13, 185578, Note_on_c, 7, 76, 0
13, 185580, Note_on_c, 7, 74, 100
13, 185638, Note_on_c, 7, 74, 0
13, 185640, Note_on_c, 7, 73, 100
13, 185698, Note_on_c, 7, 73, 0
13, 185700, Note_on_c, 7, 74, 100
13, 185758, Note_on_c, 7, 74, 0
13, 185760, Note_on_c, 7, 76, 100
13, 185818, Note_on_c, 7, 76, 0
13, 185820, Note_on_c, 7, 73, 100
13, 185998, Note_on_c, 7, 73, 0
13, 186000, Note_on_c, 7, 74, 100
13, 186058, Note_on_c, 7, 74, 0
13, 186060, Note_on_c, 7, 74, 100
13, 186178, Note_on_c, 7, 74, 0
13, 186540, Note_on_c, 7, 76, 100
13, 186598, Note_on_c, 7, 76, 0
13, 186600, Note_on_c, 7, 71, 100
13, 186658, Note_on_c, 7, 71, 0
13, 186660, Note_on_c, 7, 73, 100
13, 186718, Note_on_c, 7, 73, 0
13, 186720, Note_on_c, 7, 68, 100
13, 186778, Note_on_c, 7, 68, 0
13, 186780, Note_on_c, 7, 69, 100
13, 186898, Note_on_c, 7, 69, 0
13, 186900, Note_on_c, 7, 64, 100
13, 187018, Note_on_c, 7, 64, 0
13, 187020, Note_on_c, 7, 69, 100
13, 187138, Note_on_c, 7, 69, 0
13, 187140, Note_on_c, 7, 74, 100
13, 187198, Note_on_c, 7, 74, 0
13, 187200, Note_on_c, 7, 72, 100
13, 187258, Note_on_c, 7, 72, 0
13, 187260, Note_on_c, 7, 71, 100
13, 187318, Note_on_c, 7, 71, 0
13, 187320, Note_on_c, 7, 73, 100
13, 187378, Note_on_c, 7, 73, 0
13, 187380, Note_on_c, 7, 74, 100
13, 187558, Note_on_c, 7, 74, 0
13, 187560, Note_on_c, 7, 72, 100
13, 187618, Note_on_c, 7, 72, 0
13, 187620, Note_on_c, 7, 71, 100
13, 187678, Note_on_c, 7, 71, 0
13, 187680, Note_on_c, 7, 69, 100
13, 187738, Note_on_c, 7, 69, 0
13, 187740, Note_on_c, 7, 68, 100
13, 187798, Note_on_c, 7, 68, 0
13, 187800, Note_on_c, 7, 69, 100
13, 187858, Note_on_c, 7, 69, 0
13, 187860, Note_on_c, 7, 71, 100
13, 188278, Note_on_c, 7, 71, 0
13, 188280, Note_on_c, 7, 74, 100
13, 188338, Note_on_c, 7, 74, 0
13, 188340, Note_on_c, 7, 73, 100
13, 188398, Note_on_c, 7, 73, 0
13, 188400, Note_on_c, 7, 71, 100
13, 188458, Note_on_c, 7, 71, 0
13, 188460, Note_on_c, 7, 70, 100
13, 188518, Note_on_c, 7, 70, 0
13, 188520, Note_on_c, 7, 71, 100
13, 188578, Note_on_c, 7, 71, 0
13, 188580, Note_on_c, 7, 70, 100
13, 188758, Note_on_c, 7, 70, 0
13, 188760, Note_on_c, 7, 71, 100
13, 188818, Note_on_c, 7, 71, 0
13, 188820, Note_on_c, 7, 73, 100
13, 188938, Note_on_c, 7, 73, 0
13, 188940, Note_on_c, 7, 66, 100
13, 189058, Note_on_c, 7, 66, 0
13, 189060, Note_on_c, 7, 66, 100
13, 189178, Note_on_c, 7, 66, 0
13, 189420, Note_on_c, 7, 73, 100
13, 189478, Note_on_c, 7, 73, 0
13, 189480, Note_on_c, 7, 70, 100
13, 189538, Note_on_c, 7, 70, 0
13, 189540, Note_on_c, 7, 71, 100
13, 189598, Note_on_c, 7, 71, 0
13, 189600, Note_on_c, 7, 66, 100
13, 189658, Note_on_c, 7, 66, 0
13, 189660, Note_on_c, 7, 67, 100
13, 189778, Note_on_c, 7, 67, 0
13, 189780, Note_on_c, 7, 67, 100
13, 189898, Note_on_c, 7, 67, 0
13, 189900, Note_on_c, 7, 73, 100
13, 190078, Note_on_c, 7, 73, 0
13, 190080, Note_on_c, 7, 76, 100
13, 190138, Note_on_c, 7, 76, 0
13, 190140, Note_on_c, 7, 75, 100
13, 190198, Note_on_c, 7, 75, 0
13, 190200, Note_on_c, 7, 73, 100
13, 190258, Note_on_c, 7, 73, 0
13, 190260, Note_on_c, 7, 78, 100
13, 190378, Note_on_c, 7, 78, 0
13, 190380, Note_on_c, 7, 66, 100
13, 190438, Note_on_c, 7, 66, 0
13, 190440, Note_on_c, 7, 72, 100
13, 190498, Note_on_c, 7, 72, 0
13, 190500, Note_on_c, 7, 71, 100
13, 190558, Note_on_c, 7, 71, 0
13, 190560, Note_on_c, 7, 69, 100
13, 190618, Note_on_c, 7, 69, 0
13, 190620, Note_on_c, 7, 67, 100
13, 190678, Note_on_c, 7, 67, 0
13, 190680, Note_on_c, 7, 66, 100
13, 190738, Note_on_c, 7, 66, 0
13, 190740, Note_on_c, 7, 67, 100
13, 190858, Note_on_c, 7, 67, 0
13, 190860, Note_on_c, 7, 71, 100
13, 190978, Note_on_c, 7, 71, 0
13, 190980, Note_on_c, 7, 76, 100
13, 191098, Note_on_c, 7, 76, 0
13, 191100, Note_on_c, 7, 75, 100
13, 191218, Note_on_c, 7, 75, 0
13, 191220, Note_on_c, 7, 76, 100
13, 191338, Note_on_c, 7, 76, 0
13, 191340, Note_on_c, 7, 78, 100
13, 191458, Note_on_c, 7, 78, 0
13, 191460, Note_on_c, 7, 71, 100
13, 191518, Note_on_c, 7, 71, 0
13, 191520, Note_on_c, 7, 74, 100
13, 191578, Note_on_c, 7, 74, 0
13, 191580, Note_on_c, 7, 72, 100
13, 191638, Note_on_c, 7, 72, 0
13, 191640, Note_on_c, 7, 71, 100
13, 191698, Note_on_c, 7, 71, 0
13, 191700, Note_on_c, 7, 69, 100
13, 191758, Note_on_c, 7, 69, 0
13, 191760, Note_on_c, 7, 67, 100
13, 191818, Note_on_c, 7, 67, 0
13, 191820, Note_on_c, 7, 69, 100
13, 191878, Note_on_c, 7, 69, 0
13, 191880, Note_on_c, 7, 72, 100
13, 191938, Note_on_c, 7, 72, 0
13, 191940, Note_on_c, 7, 71, 100
13, 191998, Note_on_c, 7, 71, 0
13, 192000, Note_on_c, 7, 69, 100
13, 192058, Note_on_c, 7, 69, 0
13, 192060, Note_on_c, 7, 67, 100
13, 192118, Note_on_c, 7, 67, 0
13, 192120, Note_on_c, 7, 66, 100
13, 192178, Note_on_c, 7, 66, 0
13, 192180, Note_on_c, 7, 67, 100
13, 192298, Note_on_c, 7, 67, 0
13, 192300, Note_on_c, 7, 66, 100
13, 192418, Note_on_c, 7, 66, 0
13, 192420, Note_on_c, 7, 67, 100
13, 192598, Note_on_c, 7, 67, 0
13, 192600, Note_on_c, 7, 69, 100
13, 192628, Note_on_c, 7, 69, 0
13, 192630, Note_on_c, 7, 71, 100
13, 192658, Note_on_c, 7, 71, 0
13, 192660, Note_on_c, 7, 67, 100
13, 192838, Note_on_c, 7, 67, 0
13, 192840, Note_on_c, 7, 66, 100
13, 192898, Note_on_c, 7, 66, 0
13, 192900, Note_on_c, 7, 66, 100
13, 193258, Note_on_c, 7, 66, 0
13, 203280, Program_c, 7, 52
13, 203340, Note_on_c, 7, 69, 100
13, 203578, Note_on_c, 7, 69, 0
13, 203580, Note_on_c, 7, 69, 100
13, 203698, Note_on_c, 7, 69, 0
13, 203700, Note_on_c, 7, 69, 100
13, 203818, Note_on_c, 7, 69, 0
13, 203820, Note_on_c, 7, 71, 100
13, 203878, Note_on_c, 7, 71, 0
13, 203880, Note_on_c, 7, 69, 100
13, 203938, Note_on_c, 7, 69, 0
13, 203940, Note_on_c, 7, 67, 100
13, 203998, Note_on_c, 7, 67, 0
13, 204000, Note_on_c, 7, 69, 100
13, 204058, Note_on_c, 7, 69, 0
13, 204060, Note_on_c, 7, 71, 100
13, 204118, Note_on_c, 7, 71, 0
13, 204120, Note_on_c, 7, 73, 100
13, 204178, Note_on_c, 7, 73, 0
13, 204180, Note_on_c, 7, 74, 100
13, 204298, Note_on_c, 7, 74, 0
13, 204300, Note_on_c, 7, 74, 100
13, 204418, Note_on_c, 7, 74, 0
13, 204420, Note_on_c, 7, 69, 100
13, 204538, Note_on_c, 7, 69, 0
13, 204540, Note_on_c, 7, 74, 100
13, 204658, Note_on_c, 7, 74, 0
13, 204660, Note_on_c, 7, 66, 100
13, 204778, Note_on_c, 7, 66, 0
13, 204780, Note_on_c, 7, 64, 100
13, 205018, Note_on_c, 7, 64, 0
13, 205020, Note_on_c, 7, 73, 100
13, 205258, Note_on_c, 7, 73, 0
13, 205260, Note_on_c, 7, 74, 100
13, 205498, Note_on_c, 7, 74, 0
13, 205500, Note_on_c, 7, 73, 100
13, 205678, Note_on_c, 7, 73, 0
13, 205680, Note_on_c, 7, 73, 100
13, 205738, Note_on_c, 7, 73, 0
13, 205740, Note_on_c, 7, 74, 100
13, 205858, Note_on_c, 7, 74, 0
13, 205860, Note_on_c, 7, 62, 100
13, 205978, Note_on_c, 7, 62, 0
13, 205980, Note_on_c, 7, 74, 100
13, 206098, Note_on_c, 7, 74, 0
13, 206100, Note_on_c, 7, 73, 100
13, 206158, Note_on_c, 7, 73, 0
13, 206160, Note_on_c, 7, 71, 100
13, 206218, Note_on_c, 7, 71, 0
13, 206220, Note_on_c, 7, 73, 100
13, 206278, Note_on_c, 7, 73, 0
13, 206280, Note_on_c, 7, 71, 100
13, 206338, Note_on_c, 7, 71, 0
13, 206340, Note_on_c, 7, 69, 100
13, 206398, Note_on_c, 7, 69, 0
13, 206400, Note_on_c, 7, 71, 100
13, 206458, Note_on_c, 7, 71, 0
13, 206460, Note_on_c, 7, 73, 100
13, 206518, Note_on_c, 7, 73, 0
13, 206520, Note_on_c, 7, 74, 100
13, 206578, Note_on_c, 7, 74, 0
13, 206580, Note_on_c, 7, 76, 100
13, 206698, Note_on_c, 7, 76, 0
13, 206700, Note_on_c, 7, 74, 100
13, 206818, Note_on_c, 7, 74, 0
13, 206820, Note_on_c, 7, 73, 100
13, 206938, Note_on_c, 7, 73, 0
13, 206940, Note_on_c, 7, 71, 100
13, 207178, Note_on_c, 7, 71, 0
13, 207180, Note_on_c, 7, 69, 100
13, 207298, Note_on_c, 7, 69, 0
13, 207300, Note_on_c, 7, 69, 100
13, 207418, Note_on_c, 7, 69, 0
13, 207420, Note_on_c, 7, 74, 100
13, 207538, Note_on_c, 7, 74, 0
13, 207540, Note_on_c, 7, 72, 100
13, 207658, Note_on_c, 7, 72, 0
13, 207660, Note_on_c, 7, 71, 100
13, 207838, Note_on_c, 7, 71, 0
13, 207840, Note_on_c, 7, 69, 100
13, 207898, Note_on_c, 7, 69, 0
13, 207900, Note_on_c, 7, 67, 100
13, 208138, Note_on_c, 7, 67, 0
13, 208380, Note_on_c, 7, 66, 100
13, 208618, Note_on_c, 7, 66, 0
13, 208620, Note_on_c, 7, 67, 100
13, 208858, Note_on_c, 7, 67, 0
13, 208860, Note_on_c, 7, 69, 100
13, 209098, Note_on_c, 7, 69, 0
13, 209100, Note_on_c, 7, 62, 100
13, 209338, Note_on_c, 7, 62, 0
13, 209700, Note_on_c, 7, 69, 100
13, 209818, Note_on_c, 7, 69, 0
13, 209820, Note_on_c, 7, 74, 100
13, 209938, Note_on_c, 7, 74, 0
13, 209940, Note_on_c, 7, 74, 100
13, 210058, Note_on_c, 7, 74, 0
13, 210060, Note_on_c, 7, 73, 100
13, 210238, Note_on_c, 7, 73, 0
13, 210240, Note_on_c, 7, 71, 100
13, 210298, Note_on_c, 7, 71, 0
13, 210300, Note_on_c, 7, 69, 100
13, 210418, Note_on_c, 7, 69, 0
13, 210420, Note_on_c, 7, 73, 100
13, 210538, Note_on_c, 7, 73, 0
13, 210540, Note_on_c, 7, 78, 100
13, 210778, Note_on_c, 7, 78, 0
13, 210780, Note_on_c, 7, 76, 100
13, 211018, Note_on_c, 7, 76, 0
13, 211020, Note_on_c, 7, 76, 100
13, 211258, Note_on_c, 7, 76, 0
13, 211260, Note_on_c, 7, 73, 100
13, 211438, Note_on_c, 7, 73, 0
13, 211440, Note_on_c, 7, 73, 100
13, 211498, Note_on_c, 7, 73, 0
13, 211500, Note_on_c, 7, 74, 100
13, 211618, Note_on_c, 7, 74, 0
13, 211620, Note_on_c, 7, 62, 100
13, 211738, Note_on_c, 7, 62, 0
13, 211740, Note_on_c, 7, 74, 100
13, 211858, Note_on_c, 7, 74, 0
13, 211860, Note_on_c, 7, 73, 100
13, 211918, Note_on_c, 7, 73, 0
13, 211920, Note_on_c, 7, 71, 100
13, 211978, Note_on_c, 7, 71, 0
13, 211980, Note_on_c, 7, 73, 100
13, 212098, Note_on_c, 7, 73, 0
13, 212100, Note_on_c, 7, 69, 100
13, 212218, Note_on_c, 7, 69, 0
13, 212220, Note_on_c, 7, 75, 100
13, 212398, Note_on_c, 7, 75, 0
13, 212400, Note_on_c, 7, 75, 100
13, 212458, Note_on_c, 7, 75, 0
13, 212460, Note_on_c, 7, 76, 100
13, 212578, Note_on_c, 7, 76, 0
13, 212580, Note_on_c, 7, 64, 100
13, 212698, Note_on_c, 7, 64, 0
13, 212700, Note_on_c, 7, 76, 100
13, 212818, Note_on_c, 7, 76, 0
13, 212820, Note_on_c, 7, 74, 100
13, 212878, Note_on_c, 7, 74, 0
13, 212880, Note_on_c, 7, 73, 100
13, 212938, Note_on_c, 7, 73, 0
13, 212940, Note_on_c, 7, 74, 100
13, 213058, Note_on_c, 7, 74, 0
13, 213060, Note_on_c, 7, 73, 100
13, 213118, Note_on_c, 7, 73, 0
13, 213120, Note_on_c, 7, 71, 100
13, 213178, Note_on_c, 7, 71, 0
13, 213180, Note_on_c, 7, 79, 100
13, 213658, Note_on_c, 7, 79, 0
13, 213660, Note_on_c, 7, 78, 100
13, 214138, Note_on_c, 7, 78, 0
13, 214140, Note_on_c, 7, 76, 100
13, 214618, Note_on_c, 7, 76, 0
13, 214620, Note_on_c, 7, 74, 100
13, 215098, Note_on_c, 7, 74, 0
13, 215100, Note_on_c, 7, 72, 100
13, 215578, Note_on_c, 7, 72, 0
13, 215580, Note_on_c, 7, 71, 100
13, 215818, Note_on_c, 7, 71, 0
13, 215820, Note_on_c, 7, 69, 100
13, 216058, Note_on_c, 7, 69, 0
13, 216060, Note_on_c, 7, 69, 100
13, 216298, Note_on_c, 7, 69, 0
13, 216300, Note_on_c, 7, 71, 100
13, 216538, Note_on_c, 7, 71, 0
13, 216540, Note_on_c, 7, 69, 100
13, 216778, Note_on_c, 7, 69, 0
13, 216780, Note_on_c, 7, 69, 100
13, 217018, Note_on_c, 7, 69, 0
13, 217020, Note_on_c, 7, 74, 100
13, 217198, Note_on_c, 7, 74, 0
13, 217200, Note_on_c, 7, 72, 100
13, 217258, Note_on_c, 7, 72, 0
13, 217260, Note_on_c, 7, 71, 100
13, 217378, Note_on_c, 7, 71, 0
13, 217380, Note_on_c, 7, 71, 100
13, 217498, Note_on_c, 7, 71, 0
13, 217500, Note_on_c, 7, 76, 100
13, 217618, Note_on_c, 7, 76, 0
13, 217620, Note_on_c, 7, 78, 100
13, 217678, Note_on_c, 7, 78, 0
13, 217680, Note_on_c, 7, 79, 100
13, 217738, Note_on_c, 7, 79, 0
13, 217740, Note_on_c, 7, 73, 100
13, 217978, Note_on_c, 7, 73, 0
13, 217980, Note_on_c, 7, 74, 100
13, 218098, Note_on_c, 7, 74, 0
13, 218100, Note_on_c, 7, 74, 100
13, 218218, Note_on_c, 7, 74, 0
13, 218220, Note_on_c, 7, 74, 100
13, 218458, Note_on_c, 7, 74, 0
13, 218460, Note_on_c, 7, 73, 100
13, 218698, Note_on_c, 7, 73, 0
13, 218700, Note_on_c, 7, 74, 100
13, 219178, Note_on_c, 7, 74, 0
13, 219660, Control_c, 7, 0, 0
13, 219660, Note_on_c, 7, 76, 100
13, 219780, Note_on_c, 7, 76, 0
13, 219840, Note_on_c, 7, 76, 100
13, 219880, Note_on_c, 7, 76, 0
13, 219900, Note_on_c, 7, 76, 100
13, 220060, Note_on_c, 7, 76, 0
13, 221140, Note_on_c, 7, 64, 100
13, 221177, Note_on_c, 7, 64, 0
13, 221180, Note_on_c, 7, 66, 100
13, 221217, Note_on_c, 7, 66, 0
13, 221220, Note_on_c, 7, 68, 100
13, 221257, Note_on_c, 7, 68, 0
13, 221260, Note_on_c, 7, 69, 100
13, 221297, Note_on_c, 7, 69, 0
13, 221300, Note_on_c, 7, 71, 100
13, 221337, Note_on_c, 7, 71, 0
13, 221340, Note_on_c, 7, 73, 100
13, 221377, Note_on_c, 7, 73, 0
13, 221380, Note_on_c, 7, 69, 100
13, 221417, Note_on_c, 7, 69, 0
13, 221420, Note_on_c, 7, 71, 100
13, 221457, Note_on_c, 7, 71, 0
13, 221460, Note_on_c, 7, 73, 100
13, 221497, Note_on_c, 7, 73, 0
13, 221500, Note_on_c, 7, 74, 100
13, 221537, Note_on_c, 7, 74, 0
13, 221540, Note_on_c, 7, 76, 100
13, 221577, Note_on_c, 7, 76, 0
13, 221580, Note_on_c, 7, 78, 100
13, 221700, Note_on_c, 7, 78, 0
13, 221760, Note_on_c, 7, 78, 100
13, 221800, Note_on_c, 7, 78, 0
13, 221820, Note_on_c, 7, 78, 100
13, 221980, Note_on_c, 7, 78, 0
13, 222060, Note_on_c, 7, 71, 100
13, 222298, Note_on_c, 7, 71, 0
13, 222300, Note_on_c, 7, 71, 100
13, 222540, Note_on_c, 7, 71, 0
13, 222580, Note_on_c, 7, 64, 90
13, 222619, Note_on_c, 7, 64, 0
13, 222620, Note_on_c, 7, 66, 90
13, 222659, Note_on_c, 7, 66, 0
13, 222660, Note_on_c, 7, 68, 90
13, 222699, Note_on_c, 7, 68, 0
13, 222700, Note_on_c, 7, 69, 90
13, 222739, Note_on_c, 7, 69, 0
13, 222740, Note_on_c, 7, 71, 90
13, 222779, Note_on_c, 7, 71, 0
13, 222780, Note_on_c, 7, 73, 90
13, 222869, Note_on_c, 7, 73, 0
13, 222870, Note_on_c, 7, 75, 90
13, 222899, Note_on_c, 7, 75, 0
13, 222900, Note_on_c, 7, 76, 90
13, 222940, Note_on_c, 7, 76, 0
13, 222940, Note_on_c, 7, 78, 90
13, 222980, Note_on_c, 7, 78, 0
13, 222980, Note_on_c, 7, 80, 90
13, 223020, Note_on_c, 7, 80, 0
13, 223020, Note_on_c, 7, 69, 90
13, 223590, Note_on_c, 7, 69, 0
13, 223590, Note_on_c, 7, 68, 90
13, 223620, Note_on_c, 7, 68, 0
13, 223620, Note_on_c, 7, 66, 90
13, 223659, Note_on_c, 7, 66, 0
13, 223660, Note_on_c, 7, 64, 90
13, 223699, Note_on_c, 7, 64, 0
13, 223700, Note_on_c, 7, 63, 90
13, 223739, Note_on_c, 7, 63, 0
13, 223740, Note_on_c, 7, 64, 90
13, 223779, Note_on_c, 7, 64, 0
13, 223780, Note_on_c, 7, 68, 90
13, 223819, Note_on_c, 7, 68, 0
13, 223820, Note_on_c, 7, 69, 90
13, 223859, Note_on_c, 7, 69, 0
13, 223860, Note_on_c, 7, 71, 90
13, 223899, Note_on_c, 7, 71, 0
13, 223900, Note_on_c, 7, 73, 90
13, 223939, Note_on_c, 7, 73, 0
13, 223940, Note_on_c, 7, 74, 90
13, 223979, Note_on_c, 7, 74, 0
13, 223980, Note_on_c, 7, 76, 90
13, 224160, Note_on_c, 7, 76, 0
13, 224160, Note_on_c, 7, 76, 90
13, 224220, Note_on_c, 7, 76, 0
13, 224220, Note_on_c, 7, 76, 90
13, 224460, Note_on_c, 7, 76, 0
13, 224460, Note_on_c, 7, 74, 90
13, 224640, Note_on_c, 7, 74, 0
13, 224640, Note_on_c, 7, 74, 90
13, 224700, Note_on_c, 7, 74, 0
13, 224700, Note_on_c, 7, 74, 90
13, 224940, Note_on_c, 7, 74, 0
13, 224980, Note_on_c, 7, 78, 90
13, 225020, Note_on_c, 7, 78, 0
13, 225020, Note_on_c, 7, 76, 90
13, 225060, Note_on_c, 7, 76, 0
13, 225060, Note_on_c, 7, 78, 90
13, 225100, Note_on_c, 7, 78, 0
13, 225100, Note_on_c, 7, 74, 90
13, 225140, Note_on_c, 7, 74, 0
13, 225140, Note_on_c, 7, 73, 90
13, 225180, Note_on_c, 7, 73, 0
13, 225180, Note_on_c, 7, 74, 90
13, 225220, Note_on_c, 7, 74, 0
13, 225220, Note_on_c, 7, 71, 90
13, 225260, Note_on_c, 7, 71, 0
13, 225260, Note_on_c, 7, 70, 90
13, 225300, Note_on_c, 7, 70, 0
13, 225300, Note_on_c, 7, 71, 90
13, 225340, Note_on_c, 7, 71, 0
13, 225340, Note_on_c, 7, 74, 90
13, 225380, Note_on_c, 7, 74, 0
13, 225380, Note_on_c, 7, 78, 90
13, 225420, Note_on_c, 7, 78, 0
13, 225420, Note_on_c, 7, 74, 90
13, 225820, Note_on_c, 7, 74, 0
13, 225820, Note_on_c, 7, 78, 90
13, 225860, Note_on_c, 7, 78, 0
13, 225860, Note_on_c, 7, 76, 90
13, 225900, Note_on_c, 7, 76, 0
13, 225900, Note_on_c, 7, 78, 90
13, 225940, Note_on_c, 7, 78, 0
13, 225940, Note_on_c, 7, 74, 90
13, 225980, Note_on_c, 7, 74, 0
13, 225980, Note_on_c, 7, 73, 90
13, 226020, Note_on_c, 7, 73, 0
13, 226020, Note_on_c, 7, 74, 90
13, 226060, Note_on_c, 7, 74, 0
13, 226060, Note_on_c, 7, 76, 90
13, 226100, Note_on_c, 7, 76, 0
13, 226100, Note_on_c, 7, 74, 90
13, 226140, Note_on_c, 7, 74, 0
13, 226140, Note_on_c, 7, 73, 90
13, 226180, Note_on_c, 7, 73, 0
13, 226180, Note_on_c, 7, 71, 90
13, 226220, Note_on_c, 7, 71, 0
13, 226220, Note_on_c, 7, 70, 90
13, 226260, Note_on_c, 7, 70, 0
13, 226260, Note_on_c, 7, 71, 90
13, 226300, Note_on_c, 7, 71, 0
13, 226300, Note_on_c, 7, 66, 90
13, 226340, Note_on_c, 7, 66, 0
13, 226340, Note_on_c, 7, 71, 90
13, 226380, Note_on_c, 7, 71, 0
13, 226380, Note_on_c, 7, 74, 90
13, 226500, Note_on_c, 7, 74, 0
13, 226500, Note_on_c, 7, 74, 90
13, 226560, Note_on_c, 7, 74, 0
13, 226560, Note_on_c, 7, 74, 90
13, 226620, Note_on_c, 7, 74, 0
13, 226620, Note_on_c, 7, 74, 90
13, 226740, Note_on_c, 7, 74, 0
13, 226740, Note_on_c, 7, 74, 90
13, 226860, Note_on_c, 7, 74, 0
13, 226860, Note_on_c, 7, 74, 90
13, 227040, Note_on_c, 7, 74, 0
13, 227040, Note_on_c, 7, 74, 90
13, 227100, Note_on_c, 7, 74, 0
13, 227100, Note_on_c, 7, 74, 90
13, 227340, Note_on_c, 7, 74, 0
13, 227340, Note_on_c, 7, 73, 90
13, 227580, Note_on_c, 7, 73, 0
13, 227580, Note_on_c, 7, 74, 90
13, 227880, Note_on_c, 7, 74, 0
13, 227880, Note_on_c, 7, 73, 90
13, 227940, Note_on_c, 7, 73, 0
13, 227940, Note_on_c, 7, 71, 90
13, 228000, Note_on_c, 7, 71, 0
13, 228000, Note_on_c, 7, 73, 90
13, 228060, Note_on_c, 7, 73, 0
13, 228060, Note_on_c, 7, 74, 90
13, 228300, Note_on_c, 7, 74, 0
13, 228300, Note_on_c, 7, 73, 90
13, 228780, Note_on_c, 7, 73, 0
13, 229920, Note_on_c, 7, 78, 90
13, 229949, Note_on_c, 7, 78, 0
13, 229950, Note_on_c, 7, 76, 90
13, 229979, Note_on_c, 7, 76, 0
13, 229980, Note_on_c, 7, 74, 90
13, 230009, Note_on_c, 7, 74, 0
13, 230010, Note_on_c, 7, 76, 90
13, 230039, Note_on_c, 7, 76, 0
13, 230040, Note_on_c, 7, 78, 90
13, 230070, Note_on_c, 7, 78, 0
13, 230100, Note_on_c, 7, 78, 90
13, 230129, Note_on_c, 7, 78, 0
13, 230130, Note_on_c, 7, 76, 90
13, 230159, Note_on_c, 7, 76, 0
13, 230160, Note_on_c, 7, 74, 90
13, 230189, Note_on_c, 7, 74, 0
13, 230190, Note_on_c, 7, 73, 90
13, 230219, Note_on_c, 7, 73, 0
13, 230220, Note_on_c, 7, 74, 90
13, 230309, Note_on_c, 7, 74, 0
13, 230310, Note_on_c, 7, 74, 90
13, 230339, Note_on_c, 7, 74, 0
13, 230340, Note_on_c, 7, 74, 90
13, 230459, Note_on_c, 7, 74, 0
13, 231360, Note_on_c, 7, 74, 90
13, 231389, Note_on_c, 7, 74, 0
13, 231390, Note_on_c, 7, 76, 90
13, 231419, Note_on_c, 7, 76, 0
13, 231420, Note_on_c, 7, 78, 90
13, 231449, Note_on_c, 7, 78, 0
13, 231450, Note_on_c, 7, 79, 90
13, 231479, Note_on_c, 7, 79, 0
13, 231480, Note_on_c, 7, 81, 90
13, 231510, Note_on_c, 7, 81, 0
13, 231540, Note_on_c, 7, 81, 90
13, 231569, Note_on_c, 7, 81, 0
13, 231570, Note_on_c, 7, 79, 90
13, 231599, Note_on_c, 7, 79, 0
13, 231600, Note_on_c, 7, 78, 90
13, 231629, Note_on_c, 7, 78, 0
13, 231630, Note_on_c, 7, 76, 90
13, 231659, Note_on_c, 7, 76, 0
13, 231660, Note_on_c, 7, 78, 90
13, 231749, Note_on_c, 7, 78, 0
13, 231750, Note_on_c, 7, 76, 90
13, 231779, Note_on_c, 7, 76, 0
13, 231780, Note_on_c, 7, 74, 90
13, 231899, Note_on_c, 7, 74, 0
13, 232080, Note_on_c, 7, 71, 90
13, 232109, Note_on_c, 7, 71, 0
13, 232110, Note_on_c, 7, 73, 90
13, 232139, Note_on_c, 7, 73, 0
13, 232140, Note_on_c, 7, 74, 90
13, 232169, Note_on_c, 7, 74, 0
13, 232170, Note_on_c, 7, 76, 90
13, 232199, Note_on_c, 7, 76, 0
13, 232200, Note_on_c, 7, 78, 90
13, 232230, Note_on_c, 7, 78, 0
13, 232260, Note_on_c, 7, 78, 90
13, 232289, Note_on_c, 7, 78, 0
13, 232290, Note_on_c, 7, 76, 90
13, 232319, Note_on_c, 7, 76, 0
13, 232320, Note_on_c, 7, 74, 90
13, 232349, Note_on_c, 7, 74, 0
13, 232350, Note_on_c, 7, 73, 90
13, 232379, Note_on_c, 7, 73, 0
13, 232380, Note_on_c, 7, 71, 90
13, 232439, Note_on_c, 7, 71, 0
13, 232800, Note_on_c, 7, 76, 90
13, 232829, Note_on_c, 7, 76, 0
13, 232830, Note_on_c, 7, 75, 90
13, 232859, Note_on_c, 7, 75, 0
13, 232860, Note_on_c, 7, 76, 90
13, 232889, Note_on_c, 7, 76, 0
13, 232890, Note_on_c, 7, 78, 90
13, 232919, Note_on_c, 7, 78, 0
13, 232920, Note_on_c, 7, 79, 90
13, 232979, Note_on_c, 7, 79, 0
13, 232980, Note_on_c, 7, 78, 90
13, 233039, Note_on_c, 7, 78, 0
13, 233040, Note_on_c, 7, 75, 90
13, 233099, Note_on_c, 7, 75, 0
13, 233100, Note_on_c, 7, 76, 90
13, 233189, Note_on_c, 7, 76, 0
13, 233190, Note_on_c, 7, 75, 90
13, 233219, Note_on_c, 7, 75, 0
13, 233220, Note_on_c, 7, 76, 90
13, 233339, Note_on_c, 7, 76, 0
13, 233520, Note_on_c, 7, 69, 90
13, 233549, Note_on_c, 7, 69, 0
13, 233550, Note_on_c, 7, 71, 90
13, 233579, Note_on_c, 7, 71, 0
13, 233580, Note_on_c, 7, 73, 90
13, 233609, Note_on_c, 7, 73, 0
13, 233610, Note_on_c, 7, 74, 90
13, 233639, Note_on_c, 7, 74, 0
13, 233640, Note_on_c, 7, 76, 90
13, 233670, Note_on_c, 7, 76, 0
13, 233700, Note_on_c, 7, 76, 90
13, 233729, Note_on_c, 7, 76, 0
13, 233730, Note_on_c, 7, 74, 90
13, 233759, Note_on_c, 7, 74, 0
13, 233760, Note_on_c, 7, 73, 90
13, 233789, Note_on_c, 7, 73, 0
13, 233790, Note_on_c, 7, 71, 90
13, 233819, Note_on_c, 7, 71, 0
13, 233820, Note_on_c, 7, 73, 90
13, 234539, Note_on_c, 7, 73, 0
13, 234540, Note_on_c, 7, 74, 90
13, 235890, Note_on_c, 7, 74, 0
13, 235890, Note_on_c, 7, 73, 90
13, 235919, Note_on_c, 7, 73, 0
13, 235920, Note_on_c, 7, 74, 90
13, 235949, Note_on_c, 7, 74, 0
13, 235950, Note_on_c, 7, 73, 90
13, 235979, Note_on_c, 7, 73, 0
13, 235980, Note_on_c, 7, 74, 90
13, 236039, Note_on_c, 7, 74, 0
13, 236040, Note_on_c, 7, 69, 90
13, 236099, Note_on_c, 7, 69, 0
13, 236100, Note_on_c, 7, 74, 90
13, 236129, Note_on_c, 7, 74, 0
13, 236130, Note_on_c, 7, 76, 90
13, 236159, Note_on_c, 7, 76, 0
13, 236160, Note_on_c, 7, 78, 90
13, 236189, Note_on_c, 7, 78, 0
13, 236220, Note_on_c, 7, 78, 90
13, 236249, Note_on_c, 7, 78, 0
13, 236250, Note_on_c, 7, 76, 90
13, 236279, Note_on_c, 7, 76, 0
13, 236280, Note_on_c, 7, 74, 90
13, 236309, Note_on_c, 7, 74, 0
13, 236310, Note_on_c, 7, 73, 90
13, 236339, Note_on_c, 7, 73, 0
13, 236340, Note_on_c, 7, 74, 90
13, 236369, Note_on_c, 7, 74, 0
13, 236370, Note_on_c, 7, 73, 90
13, 236399, Note_on_c, 7, 73, 0
13, 236400, Note_on_c, 7, 74, 90
13, 236429, Note_on_c, 7, 74, 0
13, 236430, Note_on_c, 7, 76, 90
13, 236459, Note_on_c, 7, 76, 0
13, 236460, Note_on_c, 7, 78, 90
13, 236519, Note_on_c, 7, 78, 0
13, 236520, Note_on_c, 7, 74, 90
13, 236579, Note_on_c, 7, 74, 0
13, 236580, Note_on_c, 7, 74, 90
13, 236639, Note_on_c, 7, 74, 0
13, 236640, Note_on_c, 7, 73, 90
13, 236699, Note_on_c, 7, 73, 0
13, 236700, Note_on_c, 7, 74, 90
13, 236819, Note_on_c, 7, 74, 0
13, 236819, End_track
14, 0, Start_track
14, 0, MIDI_port, 0
14, 0, Title_t, "soprano II"
14, 0, Program_c, 8, 52
14, 0, Control_c, 8, 7, 127
14, 0, Control_c, 8, 10, 121
14, 10860, Note_on_c, 8, 62, 100
14, 10880, Note_on_c, 8, 62, 0
14, 10890, Note_on_c, 8, 64, 100
14, 10910, Note_on_c, 8, 64, 0
14, 10920, Note_on_c, 8, 66, 100
14, 10980, Note_on_c, 8, 66, 0
14, 11010, Note_on_c, 8, 67, 100
14, 11030, Note_on_c, 8, 67, 0
14, 11040, Note_on_c, 8, 66, 100
14, 11060, Note_on_c, 8, 66, 0
14, 11070, Note_on_c, 8, 67, 100
14, 11090, Note_on_c, 8, 67, 0
14, 11100, Note_on_c, 8, 66, 100
14, 11120, Note_on_c, 8, 66, 0
14, 11130, Note_on_c, 8, 67, 100
14, 11150, Note_on_c, 8, 67, 0
14, 11160, Note_on_c, 8, 66, 100
14, 11220, Note_on_c, 8, 66, 0
14, 11250, Note_on_c, 8, 64, 100
14, 11270, Note_on_c, 8, 64, 0
14, 11280, Note_on_c, 8, 62, 100
14, 11360, Note_on_c, 8, 62, 0
14, 11580, Note_on_c, 8, 66, 100
14, 11620, Note_on_c, 8, 66, 0
14, 11640, Note_on_c, 8, 69, 100
14, 11700, Note_on_c, 8, 69, 0
14, 11730, Note_on_c, 8, 69, 100
14, 11750, Note_on_c, 8, 69, 0
14, 11760, Note_on_c, 8, 69, 100
14, 11840, Note_on_c, 8, 69, 0
14, 11940, Note_on_c, 8, 69, 100
14, 11980, Note_on_c, 8, 69, 0
14, 12000, Note_on_c, 8, 74, 100
14, 12060, Note_on_c, 8, 74, 0
14, 12090, Note_on_c, 8, 74, 100
14, 12110, Note_on_c, 8, 74, 0
14, 12120, Note_on_c, 8, 74, 100
14, 12200, Note_on_c, 8, 74, 0
14, 12660, Note_on_c, 8, 62, 100
14, 12680, Note_on_c, 8, 62, 0
14, 12690, Note_on_c, 8, 64, 100
14, 12710, Note_on_c, 8, 64, 0
14, 12720, Note_on_c, 8, 66, 100
14, 12740, Note_on_c, 8, 66, 0
14, 12750, Note_on_c, 8, 67, 100
14, 12770, Note_on_c, 8, 67, 0
14, 12780, Note_on_c, 8, 69, 100
14, 12820, Note_on_c, 8, 69, 0
14, 12840, Note_on_c, 8, 69, 100
14, 12860, Note_on_c, 8, 69, 0
14, 12870, Note_on_c, 8, 67, 100
14, 12890, Note_on_c, 8, 67, 0
14, 12900, Note_on_c, 8, 66, 100
14, 12920, Note_on_c, 8, 66, 0
14, 12930, Note_on_c, 8, 64, 100
14, 12950, Note_on_c, 8, 64, 0
14, 12960, Note_on_c, 8, 66, 100
14, 13020, Note_on_c, 8, 66, 0
14, 13050, Note_on_c, 8, 66, 100
14, 13070, Note_on_c, 8, 66, 0
14, 13080, Note_on_c, 8, 66, 100
14, 13160, Note_on_c, 8, 66, 0
14, 13200, Note_on_c, 8, 74, 100
14, 13360, Note_on_c, 8, 74, 0
14, 13380, Note_on_c, 8, 76, 100
14, 13400, Note_on_c, 8, 76, 0
14, 13410, Note_on_c, 8, 74, 100
14, 13430, Note_on_c, 8, 74, 0
14, 13440, Note_on_c, 8, 73, 100
14, 13520, Note_on_c, 8, 73, 0
14, 13560, Note_on_c, 8, 73, 100
14, 13640, Note_on_c, 8, 73, 0
14, 13740, Note_on_c, 8, 62, 100
14, 13780, Note_on_c, 8, 62, 0
14, 13800, Note_on_c, 8, 66, 100
14, 13840, Note_on_c, 8, 66, 0
14, 13860, Note_on_c, 8, 69, 100
14, 13900, Note_on_c, 8, 69, 0
14, 13920, Note_on_c, 8, 74, 100
14, 13980, Note_on_c, 8, 74, 0
14, 14010, Note_on_c, 8, 74, 100
14, 14030, Note_on_c, 8, 74, 0
14, 14040, Note_on_c, 8, 74, 100
14, 14080, Note_on_c, 8, 74, 0
14, 14100, Note_on_c, 8, 66, 100
14, 14140, Note_on_c, 8, 66, 0
14, 14160, Note_on_c, 8, 71, 100
14, 14200, Note_on_c, 8, 71, 0
14, 14220, Note_on_c, 8, 74, 100
14, 14260, Note_on_c, 8, 74, 0
14, 14280, Note_on_c, 8, 78, 100
14, 14320, Note_on_c, 8, 78, 0
14, 14340, Note_on_c, 8, 71, 100
14, 14360, Note_on_c, 8, 71, 0
14, 14370, Note_on_c, 8, 69, 100
14, 14390, Note_on_c, 8, 69, 0
14, 14400, Note_on_c, 8, 68, 100
14, 14440, Note_on_c, 8, 68, 0
14, 14460, Note_on_c, 8, 66, 100
14, 14480, Note_on_c, 8, 66, 0
14, 14490, Note_on_c, 8, 64, 100
14, 14510, Note_on_c, 8, 64, 0
14, 14520, Note_on_c, 8, 71, 100
14, 14640, Note_on_c, 8, 71, 0
14, 14700, Note_on_c, 8, 69, 100
14, 14720, Note_on_c, 8, 69, 0
14, 14730, Note_on_c, 8, 68, 100
14, 14750, Note_on_c, 8, 68, 0
14, 14760, Note_on_c, 8, 76, 100
14, 14800, Note_on_c, 8, 76, 0
14, 14820, Note_on_c, 8, 69, 100
14, 14860, Note_on_c, 8, 69, 0
14, 14880, Note_on_c, 8, 67, 100
14, 15000, Note_on_c, 8, 67, 0
14, 15060, Note_on_c, 8, 66, 100
14, 15080, Note_on_c, 8, 66, 0
14, 15090, Note_on_c, 8, 67, 100
14, 15110, Note_on_c, 8, 67, 0
14, 15120, Note_on_c, 8, 69, 100
14, 15160, Note_on_c, 8, 69, 0
14, 15180, Note_on_c, 8, 74, 100
14, 15200, Note_on_c, 8, 74, 0
14, 15210, Note_on_c, 8, 73, 100
14, 15230, Note_on_c, 8, 73, 0
14, 15240, Note_on_c, 8, 74, 100
14, 15260, Note_on_c, 8, 74, 0
14, 15270, Note_on_c, 8, 73, 100
14, 15290, Note_on_c, 8, 73, 0
14, 15300, Note_on_c, 8, 71, 100
14, 15320, Note_on_c, 8, 71, 0
14, 15330, Note_on_c, 8, 69, 100
14, 15350, Note_on_c, 8, 69, 0
14, 15360, Note_on_c, 8, 71, 100
14, 15400, Note_on_c, 8, 71, 0
14, 15420, Note_on_c, 8, 73, 100
14, 15440, Note_on_c, 8, 73, 0
14, 15450, Note_on_c, 8, 74, 100
14, 15470, Note_on_c, 8, 74, 0
14, 15480, Note_on_c, 8, 68, 100
14, 15520, Note_on_c, 8, 68, 0
14, 15540, Note_on_c, 8, 64, 100
14, 15580, Note_on_c, 8, 64, 0
14, 15600, Note_on_c, 8, 69, 100
14, 15640, Note_on_c, 8, 69, 0
14, 15660, Note_on_c, 8, 73, 100
14, 15700, Note_on_c, 8, 73, 0
14, 15720, Note_on_c, 8, 71, 100
14, 15760, Note_on_c, 8, 71, 0
14, 15780, Note_on_c, 8, 64, 100
14, 15820, Note_on_c, 8, 64, 0
14, 15840, Note_on_c, 8, 64, 100
14, 15920, Note_on_c, 8, 64, 0
14, 16260, Note_on_c, 8, 61, 100
14, 16280, Note_on_c, 8, 61, 0
14, 16290, Note_on_c, 8, 62, 100
14, 16310, Note_on_c, 8, 62, 0
14, 16320, Note_on_c, 8, 64, 100
14, 16340, Note_on_c, 8, 64, 0
14, 16350, Note_on_c, 8, 69, 100
14, 16370, Note_on_c, 8, 69, 0
14, 16380, Note_on_c, 8, 68, 100
14, 16400, Note_on_c, 8, 68, 0
14, 16410, Note_on_c, 8, 66, 100
14, 16430, Note_on_c, 8, 66, 0
14, 16440, Note_on_c, 8, 64, 100
14, 16460, Note_on_c, 8, 64, 0
14, 16470, Note_on_c, 8, 66, 100
14, 16490, Note_on_c, 8, 66, 0
14, 16500, Note_on_c, 8, 64, 100
14, 16520, Note_on_c, 8, 64, 0
14, 16530, Note_on_c, 8, 66, 100
14, 16550, Note_on_c, 8, 66, 0
14, 16560, Note_on_c, 8, 64, 100
14, 16580, Note_on_c, 8, 64, 0
14, 16590, Note_on_c, 8, 66, 100
14, 16610, Note_on_c, 8, 66, 0
14, 16620, Note_on_c, 8, 68, 100
14, 16640, Note_on_c, 8, 68, 0
14, 16650, Note_on_c, 8, 69, 100
14, 16670, Note_on_c, 8, 69, 0
14, 16680, Note_on_c, 8, 64, 100
14, 16740, Note_on_c, 8, 64, 0
14, 16770, Note_on_c, 8, 64, 100
14, 16790, Note_on_c, 8, 64, 0
14, 16800, Note_on_c, 8, 64, 100
14, 16880, Note_on_c, 8, 64, 0
14, 16980, Note_on_c, 8, 69, 100
14, 17020, Note_on_c, 8, 69, 0
14, 17040, Note_on_c, 8, 69, 100
14, 17100, Note_on_c, 8, 69, 0
14, 17130, Note_on_c, 8, 69, 100
14, 17150, Note_on_c, 8, 69, 0
14, 17160, Note_on_c, 8, 69, 100
14, 17240, Note_on_c, 8, 69, 0
14, 17340, Note_on_c, 8, 64, 100
14, 17380, Note_on_c, 8, 64, 0
14, 17400, Note_on_c, 8, 69, 100
14, 17420, Note_on_c, 8, 69, 0
14, 17430, Note_on_c, 8, 71, 100
14, 17450, Note_on_c, 8, 71, 0
14, 17460, Note_on_c, 8, 73, 100
14, 17500, Note_on_c, 8, 73, 0
14, 17520, Note_on_c, 8, 73, 100
14, 17540, Note_on_c, 8, 73, 0
14, 17550, Note_on_c, 8, 71, 100
14, 17570, Note_on_c, 8, 71, 0
14, 17580, Note_on_c, 8, 69, 100
14, 17600, Note_on_c, 8, 69, 0
14, 17610, Note_on_c, 8, 68, 100
14, 17630, Note_on_c, 8, 68, 0
14, 17640, Note_on_c, 8, 69, 100
14, 17700, Note_on_c, 8, 69, 0
14, 17730, Note_on_c, 8, 69, 100
14, 17750, Note_on_c, 8, 69, 0
14, 17760, Note_on_c, 8, 69, 100
14, 17840, Note_on_c, 8, 69, 0
14, 18000, Note_on_c, 8, 73, 100
14, 18060, Note_on_c, 8, 73, 0
14, 18090, Note_on_c, 8, 73, 100
14, 18110, Note_on_c, 8, 73, 0
14, 18120, Note_on_c, 8, 73, 100
14, 18200, Note_on_c, 8, 73, 0
14, 18780, Note_on_c, 8, 66, 100
14, 18820, Note_on_c, 8, 66, 0
14, 18840, Note_on_c, 8, 71, 100
14, 18860, Note_on_c, 8, 71, 0
14, 18870, Note_on_c, 8, 73, 100
14, 18890, Note_on_c, 8, 73, 0
14, 18900, Note_on_c, 8, 74, 100
14, 18940, Note_on_c, 8, 74, 0
14, 18960, Note_on_c, 8, 74, 100
14, 18980, Note_on_c, 8, 74, 0
14, 18990, Note_on_c, 8, 73, 100
14, 19010, Note_on_c, 8, 73, 0
14, 19020, Note_on_c, 8, 71, 100
14, 19040, Note_on_c, 8, 71, 0
14, 19050, Note_on_c, 8, 69, 100
14, 19070, Note_on_c, 8, 69, 0
14, 19080, Note_on_c, 8, 71, 100
14, 19140, Note_on_c, 8, 71, 0
14, 19170, Note_on_c, 8, 69, 100
14, 19190, Note_on_c, 8, 69, 0
14, 19200, Note_on_c, 8, 68, 100
14, 19280, Note_on_c, 8, 68, 0
14, 19380, Note_on_c, 8, 68, 100
14, 19400, Note_on_c, 8, 68, 0
14, 19410, Note_on_c, 8, 69, 100
14, 19420, Note_on_c, 8, 69, 0
14, 19420, Note_on_c, 8, 71, 100
14, 19430, Note_on_c, 8, 71, 0
14, 19440, Note_on_c, 8, 69, 100
14, 19500, Note_on_c, 8, 69, 0
14, 19530, Note_on_c, 8, 68, 100
14, 19550, Note_on_c, 8, 68, 0
14, 19560, Note_on_c, 8, 66, 100
14, 19640, Note_on_c, 8, 66, 0
14, 19740, Note_on_c, 8, 69, 100
14, 19780, Note_on_c, 8, 69, 0
14, 19800, Note_on_c, 8, 67, 100
14, 19860, Note_on_c, 8, 67, 0
14, 19890, Note_on_c, 8, 66, 100
14, 19910, Note_on_c, 8, 66, 0
14, 19920, Note_on_c, 8, 64, 100
14, 20000, Note_on_c, 8, 64, 0
14, 20100, Note_on_c, 8, 69, 100
14, 20140, Note_on_c, 8, 69, 0
14, 20160, Note_on_c, 8, 69, 100
14, 20220, Note_on_c, 8, 69, 0
14, 20250, Note_on_c, 8, 67, 100
14, 20270, Note_on_c, 8, 67, 0
14, 20280, Note_on_c, 8, 66, 100
14, 20360, Note_on_c, 8, 66, 0
14, 20580, Note_on_c, 8, 66, 100
14, 20600, Note_on_c, 8, 66, 0
14, 20610, Note_on_c, 8, 67, 100
14, 20630, Note_on_c, 8, 67, 0
14, 20640, Note_on_c, 8, 69, 100
14, 20680, Note_on_c, 8, 69, 0
14, 20700, Note_on_c, 8, 74, 100
14, 20740, Note_on_c, 8, 74, 0
14, 20760, Note_on_c, 8, 74, 100
14, 20800, Note_on_c, 8, 74, 0
14, 20820, Note_on_c, 8, 69, 100
14, 20860, Note_on_c, 8, 69, 0
14, 20880, Note_on_c, 8, 69, 100
14, 20940, Note_on_c, 8, 69, 0
14, 20970, Note_on_c, 8, 69, 100
14, 20990, Note_on_c, 8, 69, 0
14, 21000, Note_on_c, 8, 69, 100
14, 21040, Note_on_c, 8, 69, 0
14, 21060, Note_on_c, 8, 69, 100
14, 21100, Note_on_c, 8, 69, 0
14, 21120, Note_on_c, 8, 69, 100
14, 21180, Note_on_c, 8, 69, 0
14, 21210, Note_on_c, 8, 69, 100
14, 21230, Note_on_c, 8, 69, 0
14, 21240, Note_on_c, 8, 69, 100
14, 21320, Note_on_c, 8, 69, 0
14, 21420, Note_on_c, 8, 69, 100
14, 21460, Note_on_c, 8, 69, 0
14, 21480, Note_on_c, 8, 69, 100
14, 21540, Note_on_c, 8, 69, 0
14, 21570, Note_on_c, 8, 69, 100
14, 21590, Note_on_c, 8, 69, 0
14, 21600, Note_on_c, 8, 69, 100
14, 21680, Note_on_c, 8, 69, 0
14, 22260, Note_on_c, 8, 73, 100
14, 22300, Note_on_c, 8, 73, 0
14, 22320, Note_on_c, 8, 71, 100
14, 22380, Note_on_c, 8, 71, 0
14, 22410, Note_on_c, 8, 66, 100
14, 22430, Note_on_c, 8, 66, 0
14, 22440, Note_on_c, 8, 66, 100
14, 22520, Note_on_c, 8, 66, 0
14, 23100, Note_on_c, 8, 62, 100
14, 23140, Note_on_c, 8, 62, 0
14, 23160, Note_on_c, 8, 67, 100
14, 23220, Note_on_c, 8, 67, 0
14, 23250, Note_on_c, 8, 69, 100
14, 23270, Note_on_c, 8, 69, 0
14, 23280, Note_on_c, 8, 67, 100
14, 23300, Note_on_c, 8, 67, 0
14, 23310, Note_on_c, 8, 69, 100
14, 23330, Note_on_c, 8, 69, 0
14, 23340, Note_on_c, 8, 67, 100
14, 23360, Note_on_c, 8, 67, 0
14, 23370, Note_on_c, 8, 69, 100
14, 23390, Note_on_c, 8, 69, 0
14, 23400, Note_on_c, 8, 67, 100
14, 23460, Note_on_c, 8, 67, 0
14, 23490, Note_on_c, 8, 66, 100
14, 23510, Note_on_c, 8, 66, 0
14, 23520, Note_on_c, 8, 64, 100
14, 23600, Note_on_c, 8, 64, 0
14, 23700, Note_on_c, 8, 69, 100
14, 23740, Note_on_c, 8, 69, 0
14, 23760, Note_on_c, 8, 67, 100
14, 23820, Note_on_c, 8, 67, 0
14, 23850, Note_on_c, 8, 66, 100
14, 23870, Note_on_c, 8, 66, 0
14, 23880, Note_on_c, 8, 64, 100
14, 23940, Note_on_c, 8, 71, 100
14, 23960, Note_on_c, 8, 71, 0
14, 23960, Note_on_c, 8, 64, 0
14, 23970, Note_on_c, 8, 72, 100
14, 23990, Note_on_c, 8, 72, 0
14, 24000, Note_on_c, 8, 71, 100
14, 24020, Note_on_c, 8, 71, 0
14, 24030, Note_on_c, 8, 69, 100
14, 24050, Note_on_c, 8, 69, 0
14, 24060, Note_on_c, 8, 67, 100
14, 24080, Note_on_c, 8, 67, 0
14, 24090, Note_on_c, 8, 66, 100
14, 24110, Note_on_c, 8, 66, 0
14, 24120, Note_on_c, 8, 64, 100
14, 24140, Note_on_c, 8, 64, 0
14, 24150, Note_on_c, 8, 62, 100
14, 24170, Note_on_c, 8, 62, 0
14, 24180, Note_on_c, 8, 61, 100
14, 24220, Note_on_c, 8, 61, 0
14, 24300, Note_on_c, 8, 69, 100
14, 24320, Note_on_c, 8, 69, 0
14, 24330, Note_on_c, 8, 71, 100
14, 24350, Note_on_c, 8, 71, 0
14, 24360, Note_on_c, 8, 69, 100
14, 24380, Note_on_c, 8, 69, 0
14, 24390, Note_on_c, 8, 67, 100
14, 24410, Note_on_c, 8, 67, 0
14, 24420, Note_on_c, 8, 66, 100
14, 24440, Note_on_c, 8, 66, 0
14, 24450, Note_on_c, 8, 64, 100
14, 24470, Note_on_c, 8, 64, 0
14, 24480, Note_on_c, 8, 62, 100
14, 24520, Note_on_c, 8, 62, 0
14, 24540, Note_on_c, 8, 59, 100
14, 24580, Note_on_c, 8, 59, 0
14, 24660, Note_on_c, 8, 71, 100
14, 24680, Note_on_c, 8, 71, 0
14, 24690, Note_on_c, 8, 69, 100
14, 24710, Note_on_c, 8, 69, 0
14, 24720, Note_on_c, 8, 67, 100
14, 24740, Note_on_c, 8, 67, 0
14, 24750, Note_on_c, 8, 66, 100
14, 24770, Note_on_c, 8, 66, 0
14, 24780, Note_on_c, 8, 64, 100
14, 24800, Note_on_c, 8, 64, 0
14, 24810, Note_on_c, 8, 66, 100
14, 24830, Note_on_c, 8, 66, 0
14, 24840, Note_on_c, 8, 67, 100
14, 24860, Note_on_c, 8, 67, 0
14, 24870, Note_on_c, 8, 66, 100
14, 24890, Note_on_c, 8, 66, 0
14, 24900, Note_on_c, 8, 67, 100
14, 24920, Note_on_c, 8, 67, 0
14, 24930, Note_on_c, 8, 69, 100
14, 24950, Note_on_c, 8, 69, 0
14, 24960, Note_on_c, 8, 67, 100
14, 24980, Note_on_c, 8, 67, 0
14, 24990, Note_on_c, 8, 66, 100
14, 25010, Note_on_c, 8, 66, 0
14, 25020, Note_on_c, 8, 64, 100
14, 25040, Note_on_c, 8, 64, 0
14, 25050, Note_on_c, 8, 74, 100
14, 25070, Note_on_c, 8, 74, 0
14, 25080, Note_on_c, 8, 73, 100
14, 25100, Note_on_c, 8, 73, 0
14, 25110, Note_on_c, 8, 71, 100
14, 25130, Note_on_c, 8, 71, 0
14, 25140, Note_on_c, 8, 69, 100
14, 25160, Note_on_c, 8, 69, 0
14, 25170, Note_on_c, 8, 71, 100
14, 25190, Note_on_c, 8, 71, 0
14, 25200, Note_on_c, 8, 73, 100
14, 25240, Note_on_c, 8, 73, 0
14, 25260, Note_on_c, 8, 76, 100
14, 25300, Note_on_c, 8, 76, 0
14, 25380, Note_on_c, 8, 64, 100
14, 25400, Note_on_c, 8, 64, 0
14, 25410, Note_on_c, 8, 66, 100
14, 25430, Note_on_c, 8, 66, 0
14, 25440, Note_on_c, 8, 67, 100
14, 25480, Note_on_c, 8, 67, 0
14, 25500, Note_on_c, 8, 66, 100
14, 25520, Note_on_c, 8, 66, 0
14, 25530, Note_on_c, 8, 64, 100
14, 25550, Note_on_c, 8, 64, 0
14, 25560, Note_on_c, 8, 62, 100
14, 25600, Note_on_c, 8, 62, 0
14, 25620, Note_on_c, 8, 66, 100
14, 25660, Note_on_c, 8, 66, 0
14, 25740, Note_on_c, 8, 66, 100
14, 25760, Note_on_c, 8, 66, 0
14, 25770, Note_on_c, 8, 67, 100
14, 25790, Note_on_c, 8, 67, 0
14, 25800, Note_on_c, 8, 69, 100
14, 25840, Note_on_c, 8, 69, 0
14, 25860, Note_on_c, 8, 67, 100
14, 25880, Note_on_c, 8, 67, 0
14, 25890, Note_on_c, 8, 69, 100
14, 25910, Note_on_c, 8, 69, 0
14, 25920, Note_on_c, 8, 73, 100
14, 25960, Note_on_c, 8, 73, 0
14, 25980, Note_on_c, 8, 59, 100
14, 26020, Note_on_c, 8, 59, 0
14, 26040, Note_on_c, 8, 67, 100
14, 26320, Note_on_c, 8, 67, 0
14, 26340, Note_on_c, 8, 69, 100
14, 26360, Note_on_c, 8, 69, 0
14, 26370, Note_on_c, 8, 71, 100
14, 26390, Note_on_c, 8, 71, 0
14, 26400, Note_on_c, 8, 69, 100
14, 26420, Note_on_c, 8, 69, 0
14, 26430, Note_on_c, 8, 67, 100
14, 26450, Note_on_c, 8, 67, 0
14, 26460, Note_on_c, 8, 66, 100
14, 26480, Note_on_c, 8, 66, 0
14, 26490, Note_on_c, 8, 64, 100
14, 26510, Note_on_c, 8, 64, 0
14, 26520, Note_on_c, 8, 62, 100
14, 26540, Note_on_c, 8, 62, 0
14, 26550, Note_on_c, 8, 61, 100
14, 26570, Note_on_c, 8, 61, 0
14, 26580, Note_on_c, 8, 67, 100
14, 26620, Note_on_c, 8, 67, 0
14, 26640, Note_on_c, 8, 66, 100
14, 26720, Note_on_c, 8, 66, 0
14, 34740, Program_c, 8, 69
14, 34920, Note_on_c, 8, 62, 100
14, 34980, Note_on_c, 8, 62, 0
14, 34980, Note_on_c, 8, 66, 100
14, 35040, Note_on_c, 8, 66, 0
14, 35040, Note_on_c, 8, 69, 100
14, 35100, Note_on_c, 8, 69, 0
14, 35100, Note_on_c, 8, 71, 100
14, 35130, Note_on_c, 8, 71, 0
14, 35130, Note_on_c, 8, 67, 100
14, 35160, Note_on_c, 8, 67, 0
14, 35160, Note_on_c, 8, 69, 100
14, 35220, Note_on_c, 8, 69, 0
14, 35280, Note_on_c, 8, 71, 100
14, 35310, Note_on_c, 8, 71, 0
14, 35310, Note_on_c, 8, 74, 100
14, 35340, Note_on_c, 8, 74, 0
14, 35340, Note_on_c, 8, 73, 100
14, 35370, Note_on_c, 8, 73, 0
14, 35370, Note_on_c, 8, 71, 100
14, 35400, Note_on_c, 8, 71, 0
14, 35400, Note_on_c, 8, 69, 100
14, 35430, Note_on_c, 8, 69, 0
14, 35430, Note_on_c, 8, 67, 100
14, 35460, Note_on_c, 8, 67, 0
14, 35460, Note_on_c, 8, 66, 100
14, 35490, Note_on_c, 8, 66, 0
14, 35490, Note_on_c, 8, 62, 100
14, 35520, Note_on_c, 8, 62, 0
14, 35520, Note_on_c, 8, 64, 100
14, 35580, Note_on_c, 8, 64, 0
14, 36360, Note_on_c, 8, 62, 100
14, 36420, Note_on_c, 8, 62, 0
14, 36420, Note_on_c, 8, 66, 100
14, 36480, Note_on_c, 8, 66, 0
14, 36480, Note_on_c, 8, 69, 100
14, 36540, Note_on_c, 8, 69, 0
14, 36540, Note_on_c, 8, 71, 100
14, 36570, Note_on_c, 8, 71, 0
14, 36570, Note_on_c, 8, 67, 100
14, 36600, Note_on_c, 8, 67, 0
14, 36600, Note_on_c, 8, 69, 100
14, 36640, Note_on_c, 8, 69, 0
14, 36720, Note_on_c, 8, 71, 100
14, 36750, Note_on_c, 8, 71, 0
14, 36750, Note_on_c, 8, 74, 100
14, 36780, Note_on_c, 8, 74, 0
14, 36780, Note_on_c, 8, 73, 100
14, 36810, Note_on_c, 8, 73, 0
14, 36810, Note_on_c, 8, 71, 100
14, 36840, Note_on_c, 8, 71, 0
14, 36840, Note_on_c, 8, 69, 100
14, 36870, Note_on_c, 8, 69, 0
14, 36870, Note_on_c, 8, 67, 100
14, 36900, Note_on_c, 8, 67, 0
14, 36900, Note_on_c, 8, 66, 100
14, 36960, Note_on_c, 8, 66, 0
14, 36960, Note_on_c, 8, 64, 100
14, 37000, Note_on_c, 8, 64, 0
14, 37080, Note_on_c, 8, 64, 100
14, 37140, Note_on_c, 8, 64, 0
14, 37140, Note_on_c, 8, 69, 100
14, 37200, Note_on_c, 8, 69, 0
14, 37200, Note_on_c, 8, 73, 100
14, 37260, Note_on_c, 8, 73, 0
14, 37260, Note_on_c, 8, 74, 100
14, 37290, Note_on_c, 8, 74, 0
14, 37290, Note_on_c, 8, 71, 100
14, 37320, Note_on_c, 8, 71, 0
14, 37320, Note_on_c, 8, 73, 100
14, 37380, Note_on_c, 8, 73, 0
14, 37440, Note_on_c, 8, 71, 100
14, 37470, Note_on_c, 8, 71, 0
14, 37470, Note_on_c, 8, 74, 100
14, 37500, Note_on_c, 8, 74, 0
14, 37500, Note_on_c, 8, 73, 100
14, 37530, Note_on_c, 8, 73, 0
14, 37530, Note_on_c, 8, 71, 100
14, 37560, Note_on_c, 8, 71, 0
14, 37560, Note_on_c, 8, 69, 100
14, 37590, Note_on_c, 8, 69, 0
14, 37590, Note_on_c, 8, 68, 100
14, 37620, Note_on_c, 8, 68, 0
14, 37620, Note_on_c, 8, 69, 100
14, 37650, Note_on_c, 8, 69, 0
14, 37650, Note_on_c, 8, 71, 100
14, 37665, Note_on_c, 8, 71, 0
14, 37665, Note_on_c, 8, 73, 100
14, 37680, Note_on_c, 8, 73, 0
14, 37680, Note_on_c, 8, 71, 100
14, 37740, Note_on_c, 8, 71, 0
14, 37800, Note_on_c, 8, 64, 100
14, 37860, Note_on_c, 8, 64, 0
14, 37860, Note_on_c, 8, 69, 100
14, 37890, Note_on_c, 8, 69, 0
14, 37890, Note_on_c, 8, 71, 100
14, 37920, Note_on_c, 8, 71, 0
14, 37920, Note_on_c, 8, 73, 100
14, 37950, Note_on_c, 8, 73, 0
14, 37950, Note_on_c, 8, 74, 100
14, 37980, Note_on_c, 8, 74, 0
14, 37980, Note_on_c, 8, 76, 100
14, 38010, Note_on_c, 8, 76, 0
14, 38010, Note_on_c, 8, 78, 100
14, 38025, Note_on_c, 8, 78, 0
14, 38025, Note_on_c, 8, 76, 100
14, 38040, Note_on_c, 8, 76, 0
14, 38040, Note_on_c, 8, 74, 100
14, 38070, Note_on_c, 8, 74, 0
14, 38070, Note_on_c, 8, 73, 100
14, 38100, Note_on_c, 8, 73, 0
14, 38100, Note_on_c, 8, 71, 100
14, 38130, Note_on_c, 8, 71, 0
14, 38130, Note_on_c, 8, 69, 100
14, 38160, Note_on_c, 8, 69, 0
14, 38160, Note_on_c, 8, 78, 100
14, 38370, Note_on_c, 8, 78, 0
14, 38370, Note_on_c, 8, 76, 100
14, 38400, Note_on_c, 8, 76, 0
14, 38400, Note_on_c, 8, 74, 100
14, 38430, Note_on_c, 8, 74, 0
14, 38430, Note_on_c, 8, 73, 100
14, 38460, Note_on_c, 8, 73, 0
14, 38460, Note_on_c, 8, 71, 100
14, 38490, Note_on_c, 8, 71, 0
14, 38490, Note_on_c, 8, 69, 100
14, 38520, Note_on_c, 8, 69, 0
14, 38520, Note_on_c, 8, 68, 100
14, 38550, Note_on_c, 8, 68, 0
14, 38550, Note_on_c, 8, 66, 100
14, 38580, Note_on_c, 8, 66, 0
14, 38580, Note_on_c, 8, 64, 100
14, 38610, Note_on_c, 8, 64, 0
14, 38610, Note_on_c, 8, 66, 100
14, 38640, Note_on_c, 8, 66, 0
14, 38640, Note_on_c, 8, 68, 100
14, 38670, Note_on_c, 8, 68, 0
14, 38670, Note_on_c, 8, 69, 100
14, 38700, Note_on_c, 8, 69, 0
14, 38700, Note_on_c, 8, 71, 100
14, 38790, Note_on_c, 8, 71, 0
14, 38790, Note_on_c, 8, 73, 100
14, 38820, Note_on_c, 8, 73, 0
14, 38820, Note_on_c, 8, 74, 100
14, 38850, Note_on_c, 8, 74, 0
14, 38850, Note_on_c, 8, 76, 100
14, 38865, Note_on_c, 8, 76, 0
14, 38865, Note_on_c, 8, 78, 100
14, 38880, Note_on_c, 8, 78, 0
14, 38880, Note_on_c, 8, 76, 100
14, 38910, Note_on_c, 8, 76, 0
14, 38910, Note_on_c, 8, 74, 100
14, 38940, Note_on_c, 8, 74, 0
14, 38940, Note_on_c, 8, 73, 100
14, 39000, Note_on_c, 8, 73, 0
14, 39000, Note_on_c, 8, 74, 100
14, 39030, Note_on_c, 8, 74, 0
14, 39030, Note_on_c, 8, 71, 100
14, 39060, Note_on_c, 8, 71, 0
14, 39060, Note_on_c, 8, 69, 100
14, 39140, Note_on_c, 8, 69, 0
14, 39180, Note_on_c, 8, 69, 100
14, 39240, Note_on_c, 8, 69, 0
14, 39240, Note_on_c, 8, 74, 100
14, 39450, Note_on_c, 8, 74, 0
14, 39450, Note_on_c, 8, 71, 100
14, 39480, Note_on_c, 8, 71, 0
14, 39480, Note_on_c, 8, 69, 100
14, 39510, Note_on_c, 8, 69, 0
14, 39510, Note_on_c, 8, 67, 100
14, 39540, Note_on_c, 8, 67, 0
14, 39540, Note_on_c, 8, 66, 100
14, 39570, Note_on_c, 8, 66, 0
14, 39570, Note_on_c, 8, 67, 100
14, 39600, Note_on_c, 8, 67, 0
14, 39600, Note_on_c, 8, 76, 100
14, 39810, Note_on_c, 8, 76, 0
14, 39810, Note_on_c, 8, 73, 100
14, 39840, Note_on_c, 8, 73, 0
14, 39840, Note_on_c, 8, 71, 100
14, 39870, Note_on_c, 8, 71, 0
14, 39870, Note_on_c, 8, 70, 100
14, 39900, Note_on_c, 8, 70, 0
14, 39900, Note_on_c, 8, 68, 100
14, 39930, Note_on_c, 8, 68, 0
14, 39930, Note_on_c, 8, 66, 100
14, 39960, Note_on_c, 8, 66, 0
14, 39960, Note_on_c, 8, 74, 100
14, 39990, Note_on_c, 8, 74, 0
14, 39990, Note_on_c, 8, 71, 100
14, 40020, Note_on_c, 8, 71, 0
14, 40020, Note_on_c, 8, 73, 100
14, 40050, Note_on_c, 8, 73, 0
14, 40050, Note_on_c, 8, 74, 100
14, 40080, Note_on_c, 8, 74, 0
14, 40080, Note_on_c, 8, 66, 100
14, 40110, Note_on_c, 8, 66, 0
14, 40110, Note_on_c, 8, 69, 100
14, 40140, Note_on_c, 8, 69, 0
14, 40140, Note_on_c, 8, 67, 100
14, 40170, Note_on_c, 8, 67, 0
14, 40170, Note_on_c, 8, 71, 100
14, 40200, Note_on_c, 8, 71, 0
14, 40200, Note_on_c, 8, 76, 100
14, 40230, Note_on_c, 8, 76, 0
14, 40230, Note_on_c, 8, 74, 100
14, 40260, Note_on_c, 8, 74, 0
14, 40260, Note_on_c, 8, 73, 100
14, 40290, Note_on_c, 8, 73, 0
14, 40290, Note_on_c, 8, 71, 100
14, 40320, Note_on_c, 8, 71, 0
14, 40320, Note_on_c, 8, 73, 100
14, 40350, Note_on_c, 8, 73, 0
14, 40350, Note_on_c, 8, 69, 100
14, 40380, Note_on_c, 8, 69, 0
14, 40380, Note_on_c, 8, 71, 100
14, 40410, Note_on_c, 8, 71, 0
14, 40410, Note_on_c, 8, 73, 100
14, 40440, Note_on_c, 8, 73, 0
14, 40440, Note_on_c, 8, 64, 100
14, 40470, Note_on_c, 8, 64, 0
14, 40470, Note_on_c, 8, 67, 100
14, 40500, Note_on_c, 8, 67, 0
14, 40500, Note_on_c, 8, 66, 100
14, 40530, Note_on_c, 8, 66, 0
14, 40530, Note_on_c, 8, 69, 100
14, 40560, Note_on_c, 8, 69, 0
14, 40560, Note_on_c, 8, 74, 100
14, 40590, Note_on_c, 8, 74, 0
14, 40590, Note_on_c, 8, 73, 100
14, 40620, Note_on_c, 8, 73, 0
14, 40620, Note_on_c, 8, 71, 100
14, 40650, Note_on_c, 8, 71, 0
14, 40650, Note_on_c, 8, 70, 100
14, 40680, Note_on_c, 8, 70, 0
14, 40680, Note_on_c, 8, 71, 100
14, 40710, Note_on_c, 8, 71, 0
14, 40710, Note_on_c, 8, 74, 100
14, 40740, Note_on_c, 8, 74, 0
14, 40740, Note_on_c, 8, 73, 100
14, 40770, Note_on_c, 8, 73, 0
14, 40770, Note_on_c, 8, 70, 100
14, 40800, Note_on_c, 8, 70, 0
14, 40800, Note_on_c, 8, 71, 100
14, 40830, Note_on_c, 8, 71, 0
14, 40830, Note_on_c, 8, 67, 100
14, 40860, Note_on_c, 8, 67, 0
14, 40860, Note_on_c, 8, 64, 100
14, 40890, Note_on_c, 8, 64, 0
14, 40890, Note_on_c, 8, 74, 100
14, 40920, Note_on_c, 8, 74, 0
14, 40920, Note_on_c, 8, 73, 100
14, 40950, Note_on_c, 8, 73, 0
14, 40950, Note_on_c, 8, 71, 100
14, 40980, Note_on_c, 8, 71, 0
14, 40980, Note_on_c, 8, 70, 100
14, 41010, Note_on_c, 8, 70, 0
14, 41010, Note_on_c, 8, 71, 100
14, 41040, Note_on_c, 8, 71, 0
14, 41040, Note_on_c, 8, 70, 100
14, 41100, Note_on_c, 8, 70, 0
14, 41100, Note_on_c, 8, 68, 100
14, 41130, Note_on_c, 8, 68, 0
14, 41130, Note_on_c, 8, 66, 100
14, 41160, Note_on_c, 8, 66, 0
14, 41160, Note_on_c, 8, 76, 100
14, 41220, Note_on_c, 8, 76, 0
14, 41220, Note_on_c, 8, 76, 100
14, 41280, Note_on_c, 8, 76, 0
14, 41280, Note_on_c, 8, 78, 100
14, 41310, Note_on_c, 8, 78, 0
14, 41310, Note_on_c, 8, 76, 100
14, 41340, Note_on_c, 8, 76, 0
14, 41340, Note_on_c, 8, 74, 100
14, 41370, Note_on_c, 8, 74, 0
14, 41370, Note_on_c, 8, 73, 100
14, 41400, Note_on_c, 8, 73, 0
14, 41400, Note_on_c, 8, 78, 100
14, 41430, Note_on_c, 8, 78, 0
14, 41430, Note_on_c, 8, 76, 100
14, 41460, Note_on_c, 8, 76, 0
14, 41460, Note_on_c, 8, 74, 100
14, 41490, Note_on_c, 8, 74, 0
14, 41490, Note_on_c, 8, 73, 100
14, 41520, Note_on_c, 8, 73, 0
14, 41520, Note_on_c, 8, 71, 100
14, 41550, Note_on_c, 8, 71, 0
14, 41550, Note_on_c, 8, 70, 100
14, 41580, Note_on_c, 8, 70, 0
14, 41580, Note_on_c, 8, 71, 100
14, 41610, Note_on_c, 8, 71, 0
14, 41610, Note_on_c, 8, 68, 100
14, 41640, Note_on_c, 8, 68, 0
14, 41640, Note_on_c, 8, 70, 100
14, 41640, Note_on_c, 8, 70, 90
14, 41646, Note_on_c, 8, 70, 0
14, 41647, Note_on_c, 8, 71, 90
14, 41653, Note_on_c, 8, 71, 0
14, 41655, Note_on_c, 8, 70, 90
14, 41661, Note_on_c, 8, 70, 0
14, 41662, Note_on_c, 8, 71, 90
14, 41668, Note_on_c, 8, 71, 0
14, 41670, Note_on_c, 8, 70, 0
14, 41670, Note_on_c, 8, 70, 90
14, 41676, Note_on_c, 8, 70, 0
14, 41677, Note_on_c, 8, 71, 90
14, 41683, Note_on_c, 8, 71, 0
14, 41685, Note_on_c, 8, 70, 90
14, 41691, Note_on_c, 8, 70, 0
14, 41692, Note_on_c, 8, 71, 90
14, 41698, Note_on_c, 8, 71, 0
14, 41700, Note_on_c, 8, 70, 90
14, 41706, Note_on_c, 8, 70, 0
14, 41707, Note_on_c, 8, 71, 90
14, 41713, Note_on_c, 8, 71, 0
14, 41715, Note_on_c, 8, 70, 90
14, 41721, Note_on_c, 8, 70, 0
14, 41722, Note_on_c, 8, 71, 90
14, 41728, Note_on_c, 8, 71, 0
14, 41730, Note_on_c, 8, 71, 100
14, 41760, Note_on_c, 8, 71, 0
14, 41760, Note_on_c, 8, 71, 100
14, 41880, Note_on_c, 8, 71, 0
14, 43200, Note_on_c, 8, 62, 100
14, 43260, Note_on_c, 8, 62, 0
14, 43260, Note_on_c, 8, 66, 100
14, 43320, Note_on_c, 8, 66, 0
14, 43320, Note_on_c, 8, 69, 100
14, 43380, Note_on_c, 8, 69, 0
14, 43380, Note_on_c, 8, 72, 100
14, 43470, Note_on_c, 8, 72, 0
14, 43470, Note_on_c, 8, 74, 100
14, 43485, Note_on_c, 8, 74, 0
14, 43485, Note_on_c, 8, 76, 100
14, 43500, Note_on_c, 8, 76, 0
14, 43500, Note_on_c, 8, 74, 100
14, 43560, Note_on_c, 8, 74, 0
14, 43560, Note_on_c, 8, 66, 100
14, 43620, Note_on_c, 8, 66, 0
14, 43620, Note_on_c, 8, 69, 100
14, 43650, Note_on_c, 8, 69, 0
14, 43650, Note_on_c, 8, 67, 100
14, 43680, Note_on_c, 8, 67, 0
14, 43680, Note_on_c, 8, 71, 100
14, 43710, Note_on_c, 8, 71, 0
14, 43710, Note_on_c, 8, 69, 100
14, 43740, Note_on_c, 8, 69, 0
14, 43740, Note_on_c, 8, 69, 100
14, 43770, Note_on_c, 8, 69, 0
14, 43770, Note_on_c, 8, 71, 100
14, 43785, Note_on_c, 8, 71, 0
14, 43785, Note_on_c, 8, 72, 100
14, 43800, Note_on_c, 8, 72, 0
14, 43800, Note_on_c, 8, 71, 100
14, 43840, Note_on_c, 8, 71, 0
14, 43860, Note_on_c, 8, 64, 100
14, 43920, Note_on_c, 8, 64, 0
14, 43920, Note_on_c, 8, 69, 100
14, 44130, Note_on_c, 8, 69, 0
14, 44130, Note_on_c, 8, 66, 100
14, 44160, Note_on_c, 8, 66, 0
14, 44160, Note_on_c, 8, 64, 100
14, 44190, Note_on_c, 8, 64, 0
14, 44190, Note_on_c, 8, 62, 100
14, 44220, Note_on_c, 8, 62, 0
14, 44220, Note_on_c, 8, 61, 100
14, 44250, Note_on_c, 8, 61, 0
14, 44250, Note_on_c, 8, 62, 100
14, 44280, Note_on_c, 8, 62, 0
14, 44280, Note_on_c, 8, 71, 100
14, 44490, Note_on_c, 8, 71, 0
14, 44490, Note_on_c, 8, 69, 100
14, 44510, Note_on_c, 8, 69, 0
14, 44520, Note_on_c, 8, 67, 100
14, 44550, Note_on_c, 8, 67, 0
14, 44550, Note_on_c, 8, 66, 100
14, 44580, Note_on_c, 8, 66, 0
14, 44580, Note_on_c, 8, 64, 100
14, 44610, Note_on_c, 8, 64, 0
14, 44610, Note_on_c, 8, 62, 100
14, 44640, Note_on_c, 8, 62, 0
14, 44640, Note_on_c, 8, 73, 100
14, 44670, Note_on_c, 8, 73, 0
14, 44670, Note_on_c, 8, 76, 100
14, 44700, Note_on_c, 8, 76, 0
14, 44700, Note_on_c, 8, 74, 100
14, 44730, Note_on_c, 8, 74, 0
14, 44730, Note_on_c, 8, 73, 100
14, 44760, Note_on_c, 8, 73, 0
14, 44760, Note_on_c, 8, 71, 100
14, 44790, Note_on_c, 8, 71, 0
14, 44790, Note_on_c, 8, 69, 100
14, 44820, Note_on_c, 8, 69, 0
14, 44820, Note_on_c, 8, 74, 100
14, 44880, Note_on_c, 8, 74, 0
14, 44880, Note_on_c, 8, 73, 100
14, 44910, Note_on_c, 8, 73, 0
14, 44910, Note_on_c, 8, 71, 100
14, 44940, Note_on_c, 8, 71, 0
14, 44940, Note_on_c, 8, 69, 100
14, 45030, Note_on_c, 8, 69, 0
14, 45030, Note_on_c, 8, 71, 100
14, 45060, Note_on_c, 8, 71, 0
14, 45060, Note_on_c, 8, 67, 100
14, 45120, Note_on_c, 8, 66, 100
14, 45122, Note_on_c, 8, 67, 0
14, 45150, Note_on_c, 8, 66, 0
14, 45150, Note_on_c, 8, 64, 100
14, 45180, Note_on_c, 8, 64, 0
14, 45180, Note_on_c, 8, 64, 100
14, 45260, Note_on_c, 8, 64, 0
14, 45360, Note_on_c, 8, 62, 100
14, 45390, Note_on_c, 8, 62, 0
14, 45390, Note_on_c, 8, 64, 100
14, 45420, Note_on_c, 8, 64, 0
14, 45420, Note_on_c, 8, 66, 100
14, 45450, Note_on_c, 8, 66, 0
14, 45450, Note_on_c, 8, 67, 100
14, 45480, Note_on_c, 8, 67, 0
14, 45480, Note_on_c, 8, 69, 100
14, 45510, Note_on_c, 8, 69, 0
14, 45510, Note_on_c, 8, 71, 100
14, 45540, Note_on_c, 8, 71, 0
14, 45540, Note_on_c, 8, 72, 100
14, 45570, Note_on_c, 8, 72, 0
14, 45570, Note_on_c, 8, 69, 100
14, 45600, Note_on_c, 8, 69, 0
14, 45600, Note_on_c, 8, 71, 100
14, 45640, Note_on_c, 8, 71, 0
14, 45720, Note_on_c, 8, 64, 100
14, 45750, Note_on_c, 8, 64, 0
14, 45750, Note_on_c, 8, 66, 100
14, 45780, Note_on_c, 8, 66, 0
14, 45780, Note_on_c, 8, 68, 100
14, 45810, Note_on_c, 8, 68, 0
14, 45810, Note_on_c, 8, 69, 100
14, 45840, Note_on_c, 8, 69, 0
14, 45840, Note_on_c, 8, 71, 100
14, 45870, Note_on_c, 8, 71, 0
14, 45870, Note_on_c, 8, 73, 100
14, 45900, Note_on_c, 8, 73, 0
14, 45900, Note_on_c, 8, 74, 100
14, 45930, Note_on_c, 8, 74, 0
14, 45930, Note_on_c, 8, 71, 100
14, 45960, Note_on_c, 8, 71, 0
14, 45960, Note_on_c, 8, 73, 100
14, 46000, Note_on_c, 8, 73, 0
14, 46080, Note_on_c, 8, 69, 100
14, 46110, Note_on_c, 8, 69, 0
14, 46110, Note_on_c, 8, 71, 100
14, 46140, Note_on_c, 8, 71, 0
14, 46140, Note_on_c, 8, 73, 100
14, 46170, Note_on_c, 8, 73, 0
14, 46170, Note_on_c, 8, 74, 100
14, 46200, Note_on_c, 8, 74, 0
14, 46200, Note_on_c, 8, 76, 100
14, 46230, Note_on_c, 8, 76, 0
14, 46230, Note_on_c, 8, 78, 100
14, 46260, Note_on_c, 8, 78, 0
14, 46260, Note_on_c, 8, 67, 100
14, 46275, Note_on_c, 8, 67, 0
14, 46275, Note_on_c, 8, 66, 100
14, 46290, Note_on_c, 8, 66, 0
14, 46290, Note_on_c, 8, 64, 100
14, 46320, Note_on_c, 8, 64, 0
14, 46320, Note_on_c, 8, 66, 100
14, 46350, Note_on_c, 8, 66, 0
14, 46350, Note_on_c, 8, 69, 100
14, 46380, Note_on_c, 8, 69, 0
14, 46380, Note_on_c, 8, 74, 100
14, 46470, Note_on_c, 8, 74, 0
14, 46470, Note_on_c, 8, 67, 100
14, 46500, Note_on_c, 8, 67, 0
14, 46500, Note_on_c, 8, 66, 100
14, 46560, Note_on_c, 8, 66, 0
14, 46560, Note_on_c, 8, 64, 100
14, 46590, Note_on_c, 8, 64, 0
14, 46590, Note_on_c, 8, 62, 100
14, 46620, Note_on_c, 8, 62, 0
14, 46620, Note_on_c, 8, 62, 100
14, 46650, Note_on_c, 8, 62, 0
14, 46650, Note_on_c, 8, 74, 100
14, 46680, Note_on_c, 8, 74, 0
14, 46680, Note_on_c, 8, 73, 100
14, 46710, Note_on_c, 8, 73, 0
14, 46710, Note_on_c, 8, 69, 100
14, 46740, Note_on_c, 8, 69, 0
14, 46740, Note_on_c, 8, 71, 100
14, 46770, Note_on_c, 8, 71, 0
14, 46770, Note_on_c, 8, 67, 100
14, 46800, Note_on_c, 8, 67, 0
14, 46800, Note_on_c, 8, 69, 100
14, 46830, Note_on_c, 8, 69, 0
14, 46830, Note_on_c, 8, 66, 100
14, 46860, Note_on_c, 8, 66, 0
14, 46860, Note_on_c, 8, 67, 100
14, 46890, Note_on_c, 8, 67, 0
14, 46890, Note_on_c, 8, 64, 100
14, 46920, Note_on_c, 8, 64, 0
14, 46920, Note_on_c, 8, 66, 100
14, 46950, Note_on_c, 8, 66, 0
14, 46950, Note_on_c, 8, 69, 100
14, 46980, Note_on_c, 8, 69, 0
14, 46980, Note_on_c, 8, 74, 100
14, 47010, Note_on_c, 8, 74, 0
14, 47010, Note_on_c, 8, 71, 100
14, 47040, Note_on_c, 8, 71, 0
14, 47040, Note_on_c, 8, 73, 90
14, 47050, Note_on_c, 8, 73, 0
14, 47050, Note_on_c, 8, 74, 90
14, 47060, Note_on_c, 8, 74, 0
14, 47060, Note_on_c, 8, 73, 90
14, 47070, Note_on_c, 8, 73, 0
14, 47070, Note_on_c, 8, 74, 90
14, 47077, Note_on_c, 8, 74, 0
14, 47077, Note_on_c, 8, 73, 90
14, 47084, Note_on_c, 8, 73, 0
14, 47085, Note_on_c, 8, 74, 90
14, 47092, Note_on_c, 8, 74, 0
14, 47092, Note_on_c, 8, 73, 90
14, 47099, Note_on_c, 8, 73, 0
14, 47100, Note_on_c, 8, 74, 90
14, 47107, Note_on_c, 8, 74, 0
14, 47107, Note_on_c, 8, 73, 90
14, 47114, Note_on_c, 8, 73, 0
14, 47115, Note_on_c, 8, 74, 90
14, 47122, Note_on_c, 8, 74, 0
14, 47122, Note_on_c, 8, 73, 90
14, 47129, Note_on_c, 8, 73, 0
14, 47130, Note_on_c, 8, 74, 100
14, 47160, Note_on_c, 8, 74, 0
14, 47160, Note_on_c, 8, 74, 100
14, 47280, Note_on_c, 8, 74, 0
14, 61020, Program_c, 8, 52
14, 61080, Note_on_c, 8, 66, 90
14, 61109, Note_on_c, 8, 66, 0
14, 61110, Note_on_c, 8, 68, 90
14, 61139, Note_on_c, 8, 68, 0
14, 61140, Note_on_c, 8, 69, 90
14, 61169, Note_on_c, 8, 69, 0
14, 61170, Note_on_c, 8, 66, 90
14, 61199, Note_on_c, 8, 66, 0
14, 61200, Note_on_c, 8, 68, 90
14, 61229, Note_on_c, 8, 68, 0
14, 61230, Note_on_c, 8, 69, 90
14, 61259, Note_on_c, 8, 69, 0
14, 61260, Note_on_c, 8, 71, 90
14, 61289, Note_on_c, 8, 71, 0
14, 61290, Note_on_c, 8, 69, 90
14, 61319, Note_on_c, 8, 69, 0
14, 61320, Note_on_c, 8, 68, 90
14, 61349, Note_on_c, 8, 68, 0
14, 61350, Note_on_c, 8, 69, 90
14, 61379, Note_on_c, 8, 69, 0
14, 61380, Note_on_c, 8, 71, 90
14, 61409, Note_on_c, 8, 71, 0
14, 61410, Note_on_c, 8, 68, 90
14, 61439, Note_on_c, 8, 68, 0
14, 61440, Note_on_c, 8, 69, 90
14, 61469, Note_on_c, 8, 69, 0
14, 61470, Note_on_c, 8, 71, 90
14, 61499, Note_on_c, 8, 71, 0
14, 61500, Note_on_c, 8, 73, 90
14, 61559, Note_on_c, 8, 73, 0
14, 61560, Note_on_c, 8, 66, 90
14, 61619, Note_on_c, 8, 66, 0
14, 61740, Note_on_c, 8, 73, 90
14, 61799, Note_on_c, 8, 73, 0
14, 61800, Note_on_c, 8, 73, 90
14, 61859, Note_on_c, 8, 73, 0
14, 61860, Note_on_c, 8, 73, 90
14, 61919, Note_on_c, 8, 73, 0
14, 61920, Note_on_c, 8, 73, 90
14, 61979, Note_on_c, 8, 73, 0
14, 61980, Note_on_c, 8, 73, 90
14, 62039, Note_on_c, 8, 73, 0
14, 62040, Note_on_c, 8, 71, 90
14, 62069, Note_on_c, 8, 71, 0
14, 62070, Note_on_c, 8, 69, 90
14, 62099, Note_on_c, 8, 69, 0
14, 62100, Note_on_c, 8, 68, 90
14, 62159, Note_on_c, 8, 68, 0
14, 62160, Note_on_c, 8, 66, 90
14, 62219, Note_on_c, 8, 66, 0
14, 62220, Note_on_c, 8, 65, 90
14, 62249, Note_on_c, 8, 65, 0
14, 62250, Note_on_c, 8, 63, 90
14, 62279, Note_on_c, 8, 63, 0
14, 62280, Note_on_c, 8, 61, 90
14, 62309, Note_on_c, 8, 61, 0
14, 62310, Note_on_c, 8, 63, 90
14, 62339, Note_on_c, 8, 63, 0
14, 62340, Note_on_c, 8, 65, 90
14, 62369, Note_on_c, 8, 65, 0
14, 62370, Note_on_c, 8, 61, 90
14, 62399, Note_on_c, 8, 61, 0
14, 62400, Note_on_c, 8, 63, 90
14, 62429, Note_on_c, 8, 63, 0
14, 62430, Note_on_c, 8, 65, 90
14, 62459, Note_on_c, 8, 65, 0
14, 62460, Note_on_c, 8, 66, 90
14, 62489, Note_on_c, 8, 66, 0
14, 62490, Note_on_c, 8, 65, 90
14, 62519, Note_on_c, 8, 65, 0
14, 62520, Note_on_c, 8, 66, 90
14, 62549, Note_on_c, 8, 66, 0
14, 62550, Note_on_c, 8, 68, 90
14, 62579, Note_on_c, 8, 68, 0
14, 62580, Note_on_c, 8, 69, 90
14, 62609, Note_on_c, 8, 69, 0
14, 62610, Note_on_c, 8, 68, 90
14, 62639, Note_on_c, 8, 68, 0
14, 62640, Note_on_c, 8, 69, 90
14, 62669, Note_on_c, 8, 69, 0
14, 62670, Note_on_c, 8, 71, 90
14, 62699, Note_on_c, 8, 71, 0
14, 62700, Note_on_c, 8, 73, 90
14, 62759, Note_on_c, 8, 73, 0
14, 62760, Note_on_c, 8, 73, 90
14, 62819, Note_on_c, 8, 73, 0
14, 62820, Note_on_c, 8, 73, 90
14, 62879, Note_on_c, 8, 73, 0
14, 62880, Note_on_c, 8, 68, 90
14, 62939, Note_on_c, 8, 68, 0
14, 62940, Note_on_c, 8, 69, 90
14, 62969, Note_on_c, 8, 69, 0
14, 62970, Note_on_c, 8, 68, 90
14, 62999, Note_on_c, 8, 68, 0
14, 63000, Note_on_c, 8, 69, 90
14, 63029, Note_on_c, 8, 69, 0
14, 63030, Note_on_c, 8, 71, 90
14, 63059, Note_on_c, 8, 71, 0
14, 63060, Note_on_c, 8, 73, 90
14, 63089, Note_on_c, 8, 73, 0
14, 63090, Note_on_c, 8, 71, 90
14, 63119, Note_on_c, 8, 71, 0
14, 63120, Note_on_c, 8, 73, 90
14, 63149, Note_on_c, 8, 73, 0
14, 63150, Note_on_c, 8, 74, 90
14, 63179, Note_on_c, 8, 74, 0
14, 63180, Note_on_c, 8, 68, 90
14, 63239, Note_on_c, 8, 68, 0
14, 63240, Note_on_c, 8, 68, 90
14, 63299, Note_on_c, 8, 68, 0
14, 63300, Note_on_c, 8, 68, 90
14, 63359, Note_on_c, 8, 68, 0
14, 63360, Note_on_c, 8, 68, 90
14, 63419, Note_on_c, 8, 68, 0
14, 63420, Note_on_c, 8, 68, 90
14, 63479, Note_on_c, 8, 68, 0
14, 63480, Note_on_c, 8, 66, 90
14, 63509, Note_on_c, 8, 66, 0
14, 63510, Note_on_c, 8, 64, 90
14, 63539, Note_on_c, 8, 64, 0
14, 63540, Note_on_c, 8, 62, 90
14, 63599, Note_on_c, 8, 62, 0
14, 63600, Note_on_c, 8, 61, 90
14, 63659, Note_on_c, 8, 61, 0
14, 63660, Note_on_c, 8, 59, 90
14, 63719, Note_on_c, 8, 59, 0
14, 63720, Note_on_c, 8, 61, 90
14, 63749, Note_on_c, 8, 61, 0
14, 63750, Note_on_c, 8, 62, 90
14, 63779, Note_on_c, 8, 62, 0
14, 63780, Note_on_c, 8, 64, 90
14, 63959, Note_on_c, 8, 64, 0
14, 63960, Note_on_c, 8, 73, 90
14, 63989, Note_on_c, 8, 73, 0
14, 63990, Note_on_c, 8, 71, 90
14, 64019, Note_on_c, 8, 71, 0
14, 64020, Note_on_c, 8, 69, 90
14, 64049, Note_on_c, 8, 69, 0
14, 64050, Note_on_c, 8, 71, 90
14, 64079, Note_on_c, 8, 71, 0
14, 64080, Note_on_c, 8, 69, 90
14, 64109, Note_on_c, 8, 69, 0
14, 64110, Note_on_c, 8, 68, 90
14, 64139, Note_on_c, 8, 68, 0
14, 64140, Note_on_c, 8, 66, 90
14, 64199, Note_on_c, 8, 66, 0
14, 64200, Note_on_c, 8, 71, 90
14, 64229, Note_on_c, 8, 71, 0
14, 64230, Note_on_c, 8, 73, 90
14, 64259, Note_on_c, 8, 73, 0
14, 64260, Note_on_c, 8, 74, 90
14, 64289, Note_on_c, 8, 74, 0
14, 64290, Note_on_c, 8, 71, 90
14, 64319, Note_on_c, 8, 71, 0
14, 64320, Note_on_c, 8, 73, 90
14, 64349, Note_on_c, 8, 73, 0
14, 64350, Note_on_c, 8, 74, 90
14, 64379, Note_on_c, 8, 74, 0
14, 64380, Note_on_c, 8, 76, 90
14, 64439, Note_on_c, 8, 76, 0
14, 64440, Note_on_c, 8, 76, 90
14, 64499, Note_on_c, 8, 76, 0
14, 64500, Note_on_c, 8, 76, 90
14, 64559, Note_on_c, 8, 76, 0
14, 64560, Note_on_c, 8, 76, 90
14, 64619, Note_on_c, 8, 76, 0
14, 64620, Note_on_c, 8, 76, 90
14, 64679, Note_on_c, 8, 76, 0
14, 64680, Note_on_c, 8, 74, 90
14, 64709, Note_on_c, 8, 74, 0
14, 64710, Note_on_c, 8, 73, 90
14, 64739, Note_on_c, 8, 73, 0
14, 64740, Note_on_c, 8, 71, 90
14, 64799, Note_on_c, 8, 71, 0
14, 64800, Note_on_c, 8, 69, 90
14, 64859, Note_on_c, 8, 69, 0
14, 64860, Note_on_c, 8, 68, 90
14, 64919, Note_on_c, 8, 68, 0
14, 64920, Note_on_c, 8, 69, 90
14, 64949, Note_on_c, 8, 69, 0
14, 64950, Note_on_c, 8, 71, 90
14, 64979, Note_on_c, 8, 71, 0
14, 64980, Note_on_c, 8, 73, 90
14, 65130, Note_on_c, 8, 73, 0
14, 65130, Note_on_c, 8, 71, 90
14, 65159, Note_on_c, 8, 71, 0
14, 65160, Note_on_c, 8, 73, 90
14, 65189, Note_on_c, 8, 73, 0
14, 65190, Note_on_c, 8, 74, 90
14, 65219, Note_on_c, 8, 74, 0
14, 65220, Note_on_c, 8, 71, 90
14, 65339, Note_on_c, 8, 71, 0
14, 65340, Note_on_c, 8, 69, 90
14, 65459, Note_on_c, 8, 69, 0
14, 66060, Note_on_c, 8, 71, 90
14, 66119, Note_on_c, 8, 71, 0
14, 66120, Note_on_c, 8, 71, 90
14, 66179, Note_on_c, 8, 71, 0
14, 66180, Note_on_c, 8, 71, 90
14, 66239, Note_on_c, 8, 71, 0
14, 66240, Note_on_c, 8, 71, 90
14, 66299, Note_on_c, 8, 71, 0
14, 66300, Note_on_c, 8, 71, 90
14, 66359, Note_on_c, 8, 71, 0
14, 66360, Note_on_c, 8, 69, 90
14, 66389, Note_on_c, 8, 69, 0
14, 66390, Note_on_c, 8, 67, 90
14, 66419, Note_on_c, 8, 67, 0
14, 66420, Note_on_c, 8, 66, 90
14, 66479, Note_on_c, 8, 66, 0
14, 66480, Note_on_c, 8, 64, 90
14, 66539, Note_on_c, 8, 64, 0
14, 66540, Note_on_c, 8, 62, 90
14, 66569, Note_on_c, 8, 62, 0
14, 66570, Note_on_c, 8, 61, 90
14, 66599, Note_on_c, 8, 61, 0
14, 66600, Note_on_c, 8, 59, 90
14, 66629, Note_on_c, 8, 59, 0
14, 66630, Note_on_c, 8, 61, 90
14, 66659, Note_on_c, 8, 61, 0
14, 66660, Note_on_c, 8, 62, 90
14, 66689, Note_on_c, 8, 62, 0
14, 66690, Note_on_c, 8, 61, 90
14, 66719, Note_on_c, 8, 61, 0
14, 66720, Note_on_c, 8, 62, 90
14, 66749, Note_on_c, 8, 62, 0
14, 66750, Note_on_c, 8, 64, 90
14, 66779, Note_on_c, 8, 64, 0
14, 66780, Note_on_c, 8, 66, 90
14, 66809, Note_on_c, 8, 66, 0
14, 66810, Note_on_c, 8, 61, 90
14, 66839, Note_on_c, 8, 61, 0
14, 66840, Note_on_c, 8, 63, 90
14, 66869, Note_on_c, 8, 63, 0
14, 66870, Note_on_c, 8, 65, 90
14, 66899, Note_on_c, 8, 65, 0
14, 66900, Note_on_c, 8, 66, 90
14, 66929, Note_on_c, 8, 66, 0
14, 66930, Note_on_c, 8, 65, 90
14, 66959, Note_on_c, 8, 65, 0
14, 66960, Note_on_c, 8, 66, 90
14, 66989, Note_on_c, 8, 66, 0
14, 66990, Note_on_c, 8, 68, 90
14, 67019, Note_on_c, 8, 68, 0
14, 67020, Note_on_c, 8, 69, 90
14, 67079, Note_on_c, 8, 69, 0
14, 67080, Note_on_c, 8, 69, 90
14, 67139, Note_on_c, 8, 69, 0
14, 67260, Note_on_c, 8, 73, 90
14, 67319, Note_on_c, 8, 73, 0
14, 67320, Note_on_c, 8, 73, 90
14, 67379, Note_on_c, 8, 73, 0
14, 67380, Note_on_c, 8, 73, 90
14, 67439, Note_on_c, 8, 73, 0
14, 67440, Note_on_c, 8, 73, 90
14, 67499, Note_on_c, 8, 73, 0
14, 67500, Note_on_c, 8, 73, 90
14, 67559, Note_on_c, 8, 73, 0
14, 67560, Note_on_c, 8, 71, 90
14, 67589, Note_on_c, 8, 71, 0
14, 67590, Note_on_c, 8, 69, 90
14, 67619, Note_on_c, 8, 69, 0
14, 67620, Note_on_c, 8, 68, 90
14, 67679, Note_on_c, 8, 68, 0
14, 67680, Note_on_c, 8, 66, 90
14, 67739, Note_on_c, 8, 66, 0
14, 67740, Note_on_c, 8, 65, 90
14, 67769, Note_on_c, 8, 65, 0
14, 67770, Note_on_c, 8, 63, 90
14, 67799, Note_on_c, 8, 63, 0
14, 67800, Note_on_c, 8, 61, 90
14, 67829, Note_on_c, 8, 61, 0
14, 67830, Note_on_c, 8, 63, 90
14, 67859, Note_on_c, 8, 63, 0
14, 67860, Note_on_c, 8, 65, 90
14, 67889, Note_on_c, 8, 65, 0
14, 67890, Note_on_c, 8, 63, 90
14, 67919, Note_on_c, 8, 63, 0
14, 67920, Note_on_c, 8, 65, 90
14, 67949, Note_on_c, 8, 65, 0
14, 67950, Note_on_c, 8, 66, 90
14, 67979, Note_on_c, 8, 66, 0
14, 67980, Note_on_c, 8, 68, 90
14, 68009, Note_on_c, 8, 68, 0
14, 68010, Note_on_c, 8, 66, 90
14, 68039, Note_on_c, 8, 66, 0
14, 68040, Note_on_c, 8, 65, 90
14, 68069, Note_on_c, 8, 65, 0
14, 68070, Note_on_c, 8, 66, 90
14, 68099, Note_on_c, 8, 66, 0
14, 68100, Note_on_c, 8, 68, 90
14, 68129, Note_on_c, 8, 68, 0
14, 68130, Note_on_c, 8, 65, 90
14, 68159, Note_on_c, 8, 65, 0
14, 68160, Note_on_c, 8, 66, 90
14, 68189, Note_on_c, 8, 66, 0
14, 68190, Note_on_c, 8, 68, 90
14, 68219, Note_on_c, 8, 68, 0
14, 68220, Note_on_c, 8, 69, 90
14, 68279, Note_on_c, 8, 69, 0
14, 68280, Note_on_c, 8, 69, 90
14, 68339, Note_on_c, 8, 69, 0
14, 68340, Note_on_c, 8, 69, 90
14, 68399, Note_on_c, 8, 69, 0
14, 68400, Note_on_c, 8, 69, 90
14, 68459, Note_on_c, 8, 69, 0
14, 68460, Note_on_c, 8, 69, 90
14, 68519, Note_on_c, 8, 69, 0
14, 68520, Note_on_c, 8, 68, 90
14, 68549, Note_on_c, 8, 68, 0
14, 68550, Note_on_c, 8, 66, 90
14, 68579, Note_on_c, 8, 66, 0
14, 68580, Note_on_c, 8, 64, 90
14, 68639, Note_on_c, 8, 64, 0
14, 68640, Note_on_c, 8, 62, 90
14, 68699, Note_on_c, 8, 62, 0
14, 68700, Note_on_c, 8, 61, 90
14, 68759, Note_on_c, 8, 61, 0
14, 68760, Note_on_c, 8, 62, 90
14, 68789, Note_on_c, 8, 62, 0
14, 68790, Note_on_c, 8, 64, 90
14, 68819, Note_on_c, 8, 64, 0
14, 68820, Note_on_c, 8, 66, 90
14, 68879, Note_on_c, 8, 66, 0
14, 68880, Note_on_c, 8, 66, 90
14, 68939, Note_on_c, 8, 66, 0
14, 69180, Note_on_c, 8, 76, 90
14, 69239, Note_on_c, 8, 76, 0
14, 69240, Note_on_c, 8, 76, 90
14, 69299, Note_on_c, 8, 76, 0
14, 69300, Note_on_c, 8, 76, 90
14, 69359, Note_on_c, 8, 76, 0
14, 69360, Note_on_c, 8, 76, 90
14, 69419, Note_on_c, 8, 76, 0
14, 69420, Note_on_c, 8, 76, 90
14, 69479, Note_on_c, 8, 76, 0
14, 69480, Note_on_c, 8, 74, 90
14, 69509, Note_on_c, 8, 74, 0
14, 69510, Note_on_c, 8, 73, 90
14, 69539, Note_on_c, 8, 73, 0
14, 69540, Note_on_c, 8, 71, 90
14, 69599, Note_on_c, 8, 71, 0
14, 69600, Note_on_c, 8, 69, 90
14, 69659, Note_on_c, 8, 69, 0
14, 69660, Note_on_c, 8, 68, 90
14, 69719, Note_on_c, 8, 68, 0
14, 69720, Note_on_c, 8, 69, 90
14, 69749, Note_on_c, 8, 69, 0
14, 69750, Note_on_c, 8, 71, 90
14, 69779, Note_on_c, 8, 71, 0
14, 69780, Note_on_c, 8, 73, 90
14, 69959, Note_on_c, 8, 73, 0
14, 69960, Note_on_c, 8, 75, 90
14, 69989, Note_on_c, 8, 75, 0
14, 69990, Note_on_c, 8, 73, 90
14, 70019, Note_on_c, 8, 73, 0
14, 70020, Note_on_c, 8, 72, 90
14, 70079, Note_on_c, 8, 72, 0
14, 70080, Note_on_c, 8, 73, 90
14, 70109, Note_on_c, 8, 73, 0
14, 70110, Note_on_c, 8, 75, 90
14, 70139, Note_on_c, 8, 75, 0
14, 70140, Note_on_c, 8, 66, 90
14, 70200, Note_on_c, 8, 66, 0
14, 70200, Note_on_c, 8, 66, 90
14, 70260, Note_on_c, 8, 66, 0
14, 70320, Note_on_c, 8, 68, 90
14, 70349, Note_on_c, 8, 68, 0
14, 70350, Note_on_c, 8, 66, 90
14, 70379, Note_on_c, 8, 66, 0
14, 70380, Note_on_c, 8, 64, 90
14, 70439, Note_on_c, 8, 64, 0
14, 70440, Note_on_c, 8, 61, 90
14, 70499, Note_on_c, 8, 61, 0
14, 70500, Note_on_c, 8, 68, 90
14, 70620, Note_on_c, 8, 68, 0
14, 70620, Note_on_c, 8, 68, 90
14, 70740, Note_on_c, 8, 68, 0
14, 71040, Note_on_c, 8, 73, 90
14, 71069, Note_on_c, 8, 73, 0
14, 71070, Note_on_c, 8, 73, 90
14, 71099, Note_on_c, 8, 73, 0
14, 71100, Note_on_c, 8, 73, 90
14, 71159, Note_on_c, 8, 73, 0
14, 71160, Note_on_c, 8, 73, 90
14, 71219, Note_on_c, 8, 73, 0
14, 71220, Note_on_c, 8, 73, 90
14, 71279, Note_on_c, 8, 73, 0
14, 71280, Note_on_c, 8, 71, 90
14, 71309, Note_on_c, 8, 71, 0
14, 71310, Note_on_c, 8, 69, 90
14, 71339, Note_on_c, 8, 69, 0
14, 71340, Note_on_c, 8, 68, 90
14, 71399, Note_on_c, 8, 68, 0
14, 71400, Note_on_c, 8, 66, 90
14, 71459, Note_on_c, 8, 66, 0
14, 71460, Note_on_c, 8, 65, 90
14, 71489, Note_on_c, 8, 65, 0
14, 71490, Note_on_c, 8, 63, 90
14, 71519, Note_on_c, 8, 63, 0
14, 71520, Note_on_c, 8, 61, 90
14, 71549, Note_on_c, 8, 61, 0
14, 71550, Note_on_c, 8, 63, 90
14, 71579, Note_on_c, 8, 63, 0
14, 71580, Note_on_c, 8, 65, 90
14, 71609, Note_on_c, 8, 65, 0
14, 71610, Note_on_c, 8, 66, 90
14, 71639, Note_on_c, 8, 66, 0
14, 71640, Note_on_c, 8, 65, 90
14, 71669, Note_on_c, 8, 65, 0
14, 71670, Note_on_c, 8, 66, 90
14, 71699, Note_on_c, 8, 66, 0
14, 71700, Note_on_c, 8, 68, 90
14, 71729, Note_on_c, 8, 68, 0
14, 71730, Note_on_c, 8, 69, 90
14, 71759, Note_on_c, 8, 69, 0
14, 71760, Note_on_c, 8, 68, 90
14, 71789, Note_on_c, 8, 68, 0
14, 71790, Note_on_c, 8, 69, 90
14, 71819, Note_on_c, 8, 69, 0
14, 71820, Note_on_c, 8, 71, 90
14, 71970, Note_on_c, 8, 71, 0
14, 71970, Note_on_c, 8, 73, 90
14, 71999, Note_on_c, 8, 73, 0
14, 72000, Note_on_c, 8, 71, 90
14, 72029, Note_on_c, 8, 71, 0
14, 72030, Note_on_c, 8, 73, 90
14, 72059, Note_on_c, 8, 73, 0
14, 72060, Note_on_c, 8, 74, 90
14, 72119, Note_on_c, 8, 74, 0
14, 72120, Note_on_c, 8, 73, 90
14, 72179, Note_on_c, 8, 73, 0
14, 72180, Note_on_c, 8, 73, 90
14, 72299, Note_on_c, 8, 73, 0
14, 72300, Note_on_c, 8, 68, 90
14, 72359, Note_on_c, 8, 68, 0
14, 72360, Note_on_c, 8, 68, 90
14, 72419, Note_on_c, 8, 68, 0
14, 72420, Note_on_c, 8, 68, 90
14, 72479, Note_on_c, 8, 68, 0
14, 72480, Note_on_c, 8, 68, 90
14, 72539, Note_on_c, 8, 68, 0
14, 72540, Note_on_c, 8, 68, 90
14, 72599, Note_on_c, 8, 68, 0
14, 72600, Note_on_c, 8, 66, 90
14, 72629, Note_on_c, 8, 66, 0
14, 72630, Note_on_c, 8, 65, 90
14, 72659, Note_on_c, 8, 65, 0
14, 72660, Note_on_c, 8, 66, 90
14, 72719, Note_on_c, 8, 66, 0
14, 72720, Note_on_c, 8, 66, 90
14, 72779, Note_on_c, 8, 66, 0
14, 72780, Note_on_c, 8, 68, 90
14, 72839, Note_on_c, 8, 68, 0
14, 72840, Note_on_c, 8, 68, 90
14, 72899, Note_on_c, 8, 68, 0
14, 73020, Note_on_c, 8, 73, 90
14, 73049, Note_on_c, 8, 73, 0
14, 73050, Note_on_c, 8, 71, 90
14, 73079, Note_on_c, 8, 71, 0
14, 73080, Note_on_c, 8, 69, 90
14, 73109, Note_on_c, 8, 69, 0
14, 73110, Note_on_c, 8, 71, 90
14, 73139, Note_on_c, 8, 71, 0
14, 73140, Note_on_c, 8, 73, 90
14, 73169, Note_on_c, 8, 73, 0
14, 73170, Note_on_c, 8, 71, 90
14, 73199, Note_on_c, 8, 71, 0
14, 73200, Note_on_c, 8, 73, 90
14, 73229, Note_on_c, 8, 73, 0
14, 73230, Note_on_c, 8, 74, 90
14, 73259, Note_on_c, 8, 74, 0
14, 73260, Note_on_c, 8, 68, 90
14, 73319, Note_on_c, 8, 68, 0
14, 73320, Note_on_c, 8, 68, 90
14, 73379, Note_on_c, 8, 68, 0
14, 73380, Note_on_c, 8, 68, 90
14, 73439, Note_on_c, 8, 68, 0
14, 73440, Note_on_c, 8, 68, 90
14, 73499, Note_on_c, 8, 68, 0
14, 73500, Note_on_c, 8, 66, 90
14, 73589, Note_on_c, 8, 66, 0
14, 73590, Note_on_c, 8, 68, 90
14, 73619, Note_on_c, 8, 68, 0
14, 73620, Note_on_c, 8, 65, 90
14, 73739, Note_on_c, 8, 65, 0
14, 73740, Note_on_c, 8, 66, 90
14, 73979, Note_on_c, 8, 66, 0
14, 117240, Note_on_c, 8, 62, 100
14, 117280, Note_on_c, 8, 62, 0
14, 117300, Note_on_c, 8, 67, 100
14, 117340, Note_on_c, 8, 67, 0
14, 117360, Note_on_c, 8, 62, 100
14, 117400, Note_on_c, 8, 62, 0
14, 117420, Note_on_c, 8, 71, 100
14, 117480, Note_on_c, 8, 71, 0
14, 117510, Note_on_c, 8, 71, 100
14, 117530, Note_on_c, 8, 71, 0
14, 117540, Note_on_c, 8, 71, 100
14, 117620, Note_on_c, 8, 71, 0
14, 117720, Note_on_c, 8, 67, 100
14, 117760, Note_on_c, 8, 67, 0
14, 117780, Note_on_c, 8, 72, 100
14, 117820, Note_on_c, 8, 72, 0
14, 117840, Note_on_c, 8, 76, 100
14, 117880, Note_on_c, 8, 76, 0
14, 117900, Note_on_c, 8, 74, 100
14, 117960, Note_on_c, 8, 74, 0
14, 117990, Note_on_c, 8, 74, 100
14, 118010, Note_on_c, 8, 74, 0
14, 118020, Note_on_c, 8, 74, 100
14, 118100, Note_on_c, 8, 74, 0
14, 119160, Note_on_c, 8, 62, 100
14, 119200, Note_on_c, 8, 62, 0
14, 119220, Note_on_c, 8, 66, 100
14, 119260, Note_on_c, 8, 66, 0
14, 119280, Note_on_c, 8, 62, 100
14, 119320, Note_on_c, 8, 62, 0
14, 119340, Note_on_c, 8, 69, 100
14, 119400, Note_on_c, 8, 69, 0
14, 119430, Note_on_c, 8, 69, 100
14, 119450, Note_on_c, 8, 69, 0
14, 119460, Note_on_c, 8, 69, 100
14, 119540, Note_on_c, 8, 69, 0
14, 119640, Note_on_c, 8, 67, 100
14, 119680, Note_on_c, 8, 67, 0
14, 119700, Note_on_c, 8, 71, 100
14, 119740, Note_on_c, 8, 71, 0
14, 119760, Note_on_c, 8, 67, 100
14, 119800, Note_on_c, 8, 67, 0
14, 119820, Note_on_c, 8, 74, 100
14, 119880, Note_on_c, 8, 74, 0
14, 119910, Note_on_c, 8, 74, 100
14, 119930, Note_on_c, 8, 74, 0
14, 119940, Note_on_c, 8, 74, 100
14, 120020, Note_on_c, 8, 74, 0
14, 121020, Note_on_c, 8, 67, 100
14, 121060, Note_on_c, 8, 67, 0
14, 121080, Note_on_c, 8, 71, 100
14, 121100, Note_on_c, 8, 71, 0
14, 121110, Note_on_c, 8, 69, 100
14, 121130, Note_on_c, 8, 69, 0
14, 121140, Note_on_c, 8, 67, 100
14, 121180, Note_on_c, 8, 67, 0
14, 121200, Note_on_c, 8, 67, 100
14, 121240, Note_on_c, 8, 67, 0
14, 121260, Note_on_c, 8, 67, 100
14, 121288, Note_on_c, 8, 67, 0
14, 121290, Note_on_c, 8, 62, 100
14, 121318, Note_on_c, 8, 62, 0
14, 121320, Note_on_c, 8, 64, 100
14, 121348, Note_on_c, 8, 64, 0
14, 121350, Note_on_c, 8, 65, 100
14, 121378, Note_on_c, 8, 65, 0
14, 121380, Note_on_c, 8, 67, 100
14, 121408, Note_on_c, 8, 67, 0
14, 121410, Note_on_c, 8, 71, 100
14, 121438, Note_on_c, 8, 71, 0
14, 121440, Note_on_c, 8, 69, 100
14, 121468, Note_on_c, 8, 69, 0
14, 121470, Note_on_c, 8, 67, 100
14, 121498, Note_on_c, 8, 67, 0
14, 121500, Note_on_c, 8, 72, 100
14, 121528, Note_on_c, 8, 72, 0
14, 121530, Note_on_c, 8, 62, 100
14, 121558, Note_on_c, 8, 62, 0
14, 121560, Note_on_c, 8, 64, 100
14, 121588, Note_on_c, 8, 64, 0
14, 121590, Note_on_c, 8, 66, 100
14, 121618, Note_on_c, 8, 66, 0
14, 121620, Note_on_c, 8, 67, 100
14, 121648, Note_on_c, 8, 67, 0
14, 121650, Note_on_c, 8, 71, 100
14, 121678, Note_on_c, 8, 71, 0
14, 121680, Note_on_c, 8, 69, 100
14, 121708, Note_on_c, 8, 69, 0
14, 121710, Note_on_c, 8, 67, 100
14, 121738, Note_on_c, 8, 67, 0
14, 121740, Note_on_c, 8, 74, 100
14, 121768, Note_on_c, 8, 74, 0
14, 121770, Note_on_c, 8, 62, 100
14, 121798, Note_on_c, 8, 62, 0
14, 121800, Note_on_c, 8, 64, 100
14, 121828, Note_on_c, 8, 64, 0
14, 121830, Note_on_c, 8, 66, 100
14, 121858, Note_on_c, 8, 66, 0
14, 121860, Note_on_c, 8, 67, 100
14, 121888, Note_on_c, 8, 67, 0
14, 121890, Note_on_c, 8, 71, 100
14, 121918, Note_on_c, 8, 71, 0
14, 121920, Note_on_c, 8, 69, 100
14, 121948, Note_on_c, 8, 69, 0
14, 121950, Note_on_c, 8, 67, 100
14, 121978, Note_on_c, 8, 67, 0
14, 121980, Note_on_c, 8, 76, 100
14, 122008, Note_on_c, 8, 76, 0
14, 122010, Note_on_c, 8, 79, 100
14, 122038, Note_on_c, 8, 79, 0
14, 122040, Note_on_c, 8, 77, 100
14, 122068, Note_on_c, 8, 77, 0
14, 122070, Note_on_c, 8, 79, 100
14, 122098, Note_on_c, 8, 79, 0
14, 122100, Note_on_c, 8, 76, 100
14, 122128, Note_on_c, 8, 76, 0
14, 122130, Note_on_c, 8, 77, 100
14, 122158, Note_on_c, 8, 77, 0
14, 122160, Note_on_c, 8, 74, 100
14, 122188, Note_on_c, 8, 74, 0
14, 122190, Note_on_c, 8, 76, 100
14, 122218, Note_on_c, 8, 76, 0
14, 122220, Note_on_c, 8, 72, 100
14, 122248, Note_on_c, 8, 72, 0
14, 122250, Note_on_c, 8, 74, 100
14, 122278, Note_on_c, 8, 74, 0
14, 122280, Note_on_c, 8, 71, 100
14, 122308, Note_on_c, 8, 71, 0
14, 122310, Note_on_c, 8, 72, 100
14, 122338, Note_on_c, 8, 72, 0
14, 122340, Note_on_c, 8, 69, 100
14, 122368, Note_on_c, 8, 69, 0
14, 122370, Note_on_c, 8, 74, 100
14, 122398, Note_on_c, 8, 74, 0
14, 122400, Note_on_c, 8, 72, 100
14, 122428, Note_on_c, 8, 72, 0
14, 122430, Note_on_c, 8, 74, 100
14, 122458, Note_on_c, 8, 74, 0
14, 122460, Note_on_c, 8, 71, 100
14, 122518, Note_on_c, 8, 71, 0
14, 122520, Note_on_c, 8, 69, 100
14, 122548, Note_on_c, 8, 69, 0
14, 122550, Note_on_c, 8, 71, 100
14, 122578, Note_on_c, 8, 71, 0
14, 122580, Note_on_c, 8, 67, 100
14, 122638, Note_on_c, 8, 67, 0
14, 122640, Note_on_c, 8, 69, 100
14, 122698, Note_on_c, 8, 69, 0
14, 122700, Note_on_c, 8, 71, 100
14, 122758, Note_on_c, 8, 71, 0
14, 122760, Note_on_c, 8, 67, 100
14, 122788, Note_on_c, 8, 67, 0
14, 122790, Note_on_c, 8, 71, 100
14, 122818, Note_on_c, 8, 71, 0
14, 122820, Note_on_c, 8, 73, 100
14, 122878, Note_on_c, 8, 73, 0
14, 122880, Note_on_c, 8, 69, 100
14, 122908, Note_on_c, 8, 69, 0
14, 122910, Note_on_c, 8, 73, 100
14, 122938, Note_on_c, 8, 73, 0
14, 122940, Note_on_c, 8, 74, 100
14, 122998, Note_on_c, 8, 74, 0
14, 123000, Note_on_c, 8, 69, 100
14, 123028, Note_on_c, 8, 69, 0
14, 123030, Note_on_c, 8, 67, 100
14, 123058, Note_on_c, 8, 67, 0
14, 123060, Note_on_c, 8, 66, 100
14, 123118, Note_on_c, 8, 66, 0
14, 123120, Note_on_c, 8, 69, 100
14, 123178, Note_on_c, 8, 69, 0
14, 123180, Note_on_c, 8, 78, 100
14, 123268, Note_on_c, 8, 78, 0
14, 123270, Note_on_c, 8, 78, 100
14, 123298, Note_on_c, 8, 78, 0
14, 123300, Note_on_c, 8, 78, 100
14, 123418, Note_on_c, 8, 78, 0
14, 123480, Note_on_c, 8, 74, 100
14, 123538, Note_on_c, 8, 74, 0
14, 123540, Note_on_c, 8, 74, 100
14, 123598, Note_on_c, 8, 74, 0
14, 123600, Note_on_c, 8, 74, 100
14, 123658, Note_on_c, 8, 74, 0
14, 123660, Note_on_c, 8, 74, 100
14, 123748, Note_on_c, 8, 74, 0
14, 123750, Note_on_c, 8, 74, 100
14, 123778, Note_on_c, 8, 74, 0
14, 123780, Note_on_c, 8, 74, 100
14, 123898, Note_on_c, 8, 74, 0
14, 123960, Note_on_c, 8, 62, 100
14, 124018, Note_on_c, 8, 62, 0
14, 124020, Note_on_c, 8, 74, 100
14, 124198, Note_on_c, 8, 74, 0
14, 124200, Note_on_c, 8, 76, 100
14, 124228, Note_on_c, 8, 76, 0
14, 124230, Note_on_c, 8, 74, 100
14, 124258, Note_on_c, 8, 74, 0
14, 124260, Note_on_c, 8, 73, 100
14, 124378, Note_on_c, 8, 73, 0
14, 124380, Note_on_c, 8, 74, 100
14, 124438, Note_on_c, 8, 74, 0
14, 124440, Note_on_c, 8, 69, 100
14, 124498, Note_on_c, 8, 69, 0
14, 124500, Note_on_c, 8, 71, 100
14, 124528, Note_on_c, 8, 71, 0
14, 124530, Note_on_c, 8, 73, 100
14, 124558, Note_on_c, 8, 73, 0
14, 124560, Note_on_c, 8, 71, 100
14, 124588, Note_on_c, 8, 71, 0
14, 124590, Note_on_c, 8, 73, 100
14, 124618, Note_on_c, 8, 73, 0
14, 124620, Note_on_c, 8, 74, 100
14, 124648, Note_on_c, 8, 74, 0
14, 124650, Note_on_c, 8, 76, 100
14, 124678, Note_on_c, 8, 76, 0
14, 124680, Note_on_c, 8, 78, 100
14, 124708, Note_on_c, 8, 78, 0
14, 124710, Note_on_c, 8, 74, 100
14, 124738, Note_on_c, 8, 74, 0
14, 124740, Note_on_c, 8, 71, 100
14, 124768, Note_on_c, 8, 71, 0
14, 124770, Note_on_c, 8, 73, 100
14, 124798, Note_on_c, 8, 73, 0
14, 124800, Note_on_c, 8, 74, 100
14, 124828, Note_on_c, 8, 74, 0
14, 124830, Note_on_c, 8, 71, 100
14, 124858, Note_on_c, 8, 71, 0
14, 124860, Note_on_c, 8, 73, 100
14, 124918, Note_on_c, 8, 73, 0
14, 124920, Note_on_c, 8, 73, 100
14, 124948, Note_on_c, 8, 73, 0
14, 124950, Note_on_c, 8, 74, 100
14, 124978, Note_on_c, 8, 74, 0
14, 124980, Note_on_c, 8, 76, 100
14, 125038, Note_on_c, 8, 76, 0
14, 125040, Note_on_c, 8, 81, 100
14, 125098, Note_on_c, 8, 81, 0
14, 125100, Note_on_c, 8, 69, 100
14, 125188, Note_on_c, 8, 69, 0
14, 125190, Note_on_c, 8, 69, 100
14, 125218, Note_on_c, 8, 69, 0
14, 125220, Note_on_c, 8, 69, 100
14, 125338, Note_on_c, 8, 69, 0
14, 125400, Note_on_c, 8, 69, 100
14, 125458, Note_on_c, 8, 69, 0
14, 125460, Note_on_c, 8, 74, 100
14, 125518, Note_on_c, 8, 74, 0
14, 125520, Note_on_c, 8, 78, 100
14, 125578, Note_on_c, 8, 78, 0
14, 125580, Note_on_c, 8, 76, 100
14, 125668, Note_on_c, 8, 76, 0
14, 125670, Note_on_c, 8, 76, 100
14, 125698, Note_on_c, 8, 76, 0
14, 125700, Note_on_c, 8, 76, 100
14, 125758, Note_on_c, 8, 76, 0
14, 125760, Note_on_c, 8, 76, 100
14, 125818, Note_on_c, 8, 76, 0
14, 125820, Note_on_c, 8, 74, 100
14, 125848, Note_on_c, 8, 74, 0
14, 125850, Note_on_c, 8, 78, 100
14, 125878, Note_on_c, 8, 78, 0
14, 125880, Note_on_c, 8, 76, 100
14, 125908, Note_on_c, 8, 76, 0
14, 125910, Note_on_c, 8, 78, 100
14, 125938, Note_on_c, 8, 78, 0
14, 125940, Note_on_c, 8, 74, 100
14, 125968, Note_on_c, 8, 74, 0
14, 125970, Note_on_c, 8, 76, 100
14, 125998, Note_on_c, 8, 76, 0
14, 126000, Note_on_c, 8, 73, 100
14, 126028, Note_on_c, 8, 73, 0
14, 126030, Note_on_c, 8, 74, 100
14, 126058, Note_on_c, 8, 74, 0
14, 126060, Note_on_c, 8, 71, 100
14, 126118, Note_on_c, 8, 71, 0
14, 126120, Note_on_c, 8, 74, 100
14, 126148, Note_on_c, 8, 74, 0
14, 126150, Note_on_c, 8, 71, 100
14, 126178, Note_on_c, 8, 71, 0
14, 126180, Note_on_c, 8, 76, 100
14, 126238, Note_on_c, 8, 76, 0
14, 126240, Note_on_c, 8, 64, 100
14, 126298, Note_on_c, 8, 64, 0
14, 126360, Note_on_c, 8, 69, 100
14, 126418, Note_on_c, 8, 69, 0
14, 126420, Note_on_c, 8, 74, 100
14, 126448, Note_on_c, 8, 74, 0
14, 126450, Note_on_c, 8, 73, 100
14, 126478, Note_on_c, 8, 73, 0
14, 126480, Note_on_c, 8, 74, 100
14, 126508, Note_on_c, 8, 74, 0
14, 126510, Note_on_c, 8, 69, 100
14, 126538, Note_on_c, 8, 69, 0
14, 126540, Note_on_c, 8, 74, 100
14, 126568, Note_on_c, 8, 74, 0
14, 126570, Note_on_c, 8, 73, 100
14, 126598, Note_on_c, 8, 73, 0
14, 126600, Note_on_c, 8, 74, 100
14, 126628, Note_on_c, 8, 74, 0
14, 126630, Note_on_c, 8, 71, 100
14, 126658, Note_on_c, 8, 71, 0
14, 126660, Note_on_c, 8, 76, 100
14, 126688, Note_on_c, 8, 76, 0
14, 126690, Note_on_c, 8, 74, 100
14, 126718, Note_on_c, 8, 74, 0
14, 126720, Note_on_c, 8, 76, 100
14, 126748, Note_on_c, 8, 76, 0
14, 126750, Note_on_c, 8, 73, 100
14, 126778, Note_on_c, 8, 73, 0
14, 126780, Note_on_c, 8, 69, 100
14, 126838, Note_on_c, 8, 69, 0
14, 126840, Note_on_c, 8, 74, 100
14, 126868, Note_on_c, 8, 74, 0
14, 126870, Note_on_c, 8, 73, 100
14, 126898, Note_on_c, 8, 73, 0
14, 126900, Note_on_c, 8, 74, 100
14, 126958, Note_on_c, 8, 74, 0
14, 126960, Note_on_c, 8, 69, 100
14, 127018, Note_on_c, 8, 69, 0
14, 127020, Note_on_c, 8, 69, 100
14, 127108, Note_on_c, 8, 69, 0
14, 127110, Note_on_c, 8, 69, 100
14, 127138, Note_on_c, 8, 69, 0
14, 127140, Note_on_c, 8, 69, 100
14, 127258, Note_on_c, 8, 69, 0
14, 127320, Note_on_c, 8, 71, 100
14, 127378, Note_on_c, 8, 71, 0
14, 127380, Note_on_c, 8, 67, 100
14, 127438, Note_on_c, 8, 67, 0
14, 127440, Note_on_c, 8, 62, 100
14, 127498, Note_on_c, 8, 62, 0
14, 127500, Note_on_c, 8, 66, 100
14, 127588, Note_on_c, 8, 66, 0
14, 127590, Note_on_c, 8, 66, 100
14, 127618, Note_on_c, 8, 66, 0
14, 127620, Note_on_c, 8, 66, 100
14, 127678, Note_on_c, 8, 66, 0
14, 127680, Note_on_c, 8, 74, 100
14, 127738, Note_on_c, 8, 74, 0
14, 127740, Note_on_c, 8, 74, 100
14, 127798, Note_on_c, 8, 74, 0
14, 127800, Note_on_c, 8, 62, 100
14, 127858, Note_on_c, 8, 62, 0
14, 127920, Note_on_c, 8, 74, 100
14, 127978, Note_on_c, 8, 74, 0
14, 127980, Note_on_c, 8, 71, 100
14, 128038, Note_on_c, 8, 71, 0
14, 128040, Note_on_c, 8, 67, 100
14, 128098, Note_on_c, 8, 67, 0
14, 128160, Note_on_c, 8, 73, 100
14, 128218, Note_on_c, 8, 73, 0
14, 128220, Note_on_c, 8, 69, 100
14, 128278, Note_on_c, 8, 69, 0
14, 128280, Note_on_c, 8, 66, 100
14, 128338, Note_on_c, 8, 66, 0
14, 128400, Note_on_c, 8, 76, 100
14, 128458, Note_on_c, 8, 76, 0
14, 128460, Note_on_c, 8, 74, 100
14, 128518, Note_on_c, 8, 74, 0
14, 128520, Note_on_c, 8, 69, 100
14, 128548, Note_on_c, 8, 69, 0
14, 128550, Note_on_c, 8, 73, 100
14, 128578, Note_on_c, 8, 73, 0
14, 128580, Note_on_c, 8, 74, 100
14, 128638, Note_on_c, 8, 74, 0
14, 128640, Note_on_c, 8, 71, 100
14, 128668, Note_on_c, 8, 71, 0
14, 128670, Note_on_c, 8, 76, 100
14, 128698, Note_on_c, 8, 76, 0
14, 128700, Note_on_c, 8, 73, 100
14, 128758, Note_on_c, 8, 73, 0
14, 128760, Note_on_c, 8, 73, 100
14, 128818, Note_on_c, 8, 73, 0
14, 128880, Note_on_c, 8, 69, 100
14, 128938, Note_on_c, 8, 69, 0
14, 128940, Note_on_c, 8, 68, 100
14, 128998, Note_on_c, 8, 68, 0
14, 129000, Note_on_c, 8, 64, 100
14, 129028, Note_on_c, 8, 64, 0
14, 129030, Note_on_c, 8, 67, 100
14, 129058, Note_on_c, 8, 67, 0
14, 129060, Note_on_c, 8, 70, 100
14, 129118, Note_on_c, 8, 70, 0
14, 129120, Note_on_c, 8, 64, 100
14, 129148, Note_on_c, 8, 64, 0
14, 129150, Note_on_c, 8, 70, 100
14, 129178, Note_on_c, 8, 70, 0
14, 129180, Note_on_c, 8, 71, 100
14, 129208, Note_on_c, 8, 71, 0
14, 129210, Note_on_c, 8, 73, 100
14, 129238, Note_on_c, 8, 73, 0
14, 129240, Note_on_c, 8, 74, 100
14, 129268, Note_on_c, 8, 74, 0
14, 129270, Note_on_c, 8, 71, 100
14, 129298, Note_on_c, 8, 71, 0
14, 129300, Note_on_c, 8, 73, 100
14, 129328, Note_on_c, 8, 73, 0
14, 129330, Note_on_c, 8, 74, 100
14, 129358, Note_on_c, 8, 74, 0
14, 129360, Note_on_c, 8, 76, 100
14, 129388, Note_on_c, 8, 76, 0
14, 129390, Note_on_c, 8, 73, 100
14, 129418, Note_on_c, 8, 73, 0
14, 129420, Note_on_c, 8, 69, 100
14, 129478, Note_on_c, 8, 69, 0
14, 129480, Note_on_c, 8, 66, 100
14, 129508, Note_on_c, 8, 66, 0
14, 129510, Note_on_c, 8, 73, 100
14, 129538, Note_on_c, 8, 73, 0
14, 129540, Note_on_c, 8, 71, 100
14, 129598, Note_on_c, 8, 71, 0
14, 129600, Note_on_c, 8, 66, 100
14, 129658, Note_on_c, 8, 66, 0
14, 129960, Note_on_c, 8, 73, 100
14, 130018, Note_on_c, 8, 73, 0
14, 130020, Note_on_c, 8, 69, 100
14, 130078, Note_on_c, 8, 69, 0
14, 130080, Note_on_c, 8, 64, 100
14, 130138, Note_on_c, 8, 64, 0
14, 130350, Note_on_c, 8, 69, 100
14, 130378, Note_on_c, 8, 69, 0
14, 130380, Note_on_c, 8, 74, 100
14, 130438, Note_on_c, 8, 74, 0
14, 130440, Note_on_c, 8, 74, 100
14, 130498, Note_on_c, 8, 74, 0
14, 130740, Note_on_c, 8, 74, 100
14, 130978, Note_on_c, 8, 74, 0
14, 130980, Note_on_c, 8, 70, 100
14, 131098, Note_on_c, 8, 70, 0
14, 131100, Note_on_c, 8, 71, 100
14, 131338, Note_on_c, 8, 71, 0
14, 131340, Note_on_c, 8, 62, 100
14, 131578, Note_on_c, 8, 62, 0
14, 131580, Note_on_c, 8, 62, 100
14, 131818, Note_on_c, 8, 62, 0
14, 131820, Note_on_c, 8, 61, 100
14, 132058, Note_on_c, 8, 61, 0
14, 132060, Note_on_c, 8, 59, 100
14, 132178, Note_on_c, 8, 59, 0
14, 132180, Note_on_c, 8, 66, 100
14, 132418, Note_on_c, 8, 66, 0
14, 132420, Note_on_c, 8, 67, 100
14, 132538, Note_on_c, 8, 67, 0
14, 132540, Note_on_c, 8, 67, 100
14, 132778, Note_on_c, 8, 67, 0
14, 132780, Note_on_c, 8, 65, 100
14, 133018, Note_on_c, 8, 65, 0
14, 133020, Note_on_c, 8, 64, 100
14, 133498, Note_on_c, 8, 64, 0
14, 133500, Note_on_c, 8, 66, 100
14, 133978, Note_on_c, 8, 66, 0
14, 180660, Program_c, 8, 69
14, 180720, Note_on_c, 8, 70, 100
14, 180778, Note_on_c, 8, 70, 0
14, 180780, Note_on_c, 8, 71, 100
14, 180838, Note_on_c, 8, 71, 0
14, 180840, Note_on_c, 8, 73, 100
14, 180898, Note_on_c, 8, 73, 0
14, 180900, Note_on_c, 8, 74, 100
14, 180958, Note_on_c, 8, 74, 0
14, 180960, Note_on_c, 8, 76, 100
14, 181018, Note_on_c, 8, 76, 0
14, 181020, Note_on_c, 8, 78, 100
14, 181198, Note_on_c, 8, 78, 0
14, 181200, Note_on_c, 8, 78, 100
14, 181258, Note_on_c, 8, 78, 0
14, 181260, Note_on_c, 8, 78, 100
14, 181378, Note_on_c, 8, 78, 0
14, 181380, Note_on_c, 8, 78, 100
14, 181498, Note_on_c, 8, 78, 0
14, 181500, Note_on_c, 8, 76, 100
14, 181558, Note_on_c, 8, 76, 0
14, 181560, Note_on_c, 8, 74, 100
14, 181618, Note_on_c, 8, 74, 0
14, 181620, Note_on_c, 8, 73, 100
14, 181678, Note_on_c, 8, 73, 0
14, 181680, Note_on_c, 8, 71, 100
14, 181738, Note_on_c, 8, 71, 0
14, 181740, Note_on_c, 8, 69, 100
14, 181978, Note_on_c, 8, 69, 0
14, 181980, Note_on_c, 8, 69, 100
14, 182098, Note_on_c, 8, 69, 0
14, 182520, Note_on_c, 8, 72, 100
14, 182578, Note_on_c, 8, 72, 0
14, 182580, Note_on_c, 8, 71, 100
14, 182638, Note_on_c, 8, 71, 0
14, 182640, Note_on_c, 8, 69, 100
14, 182698, Note_on_c, 8, 69, 0
14, 182700, Note_on_c, 8, 67, 100
14, 182758, Note_on_c, 8, 67, 0
14, 182760, Note_on_c, 8, 66, 100
14, 182818, Note_on_c, 8, 66, 0
14, 182820, Note_on_c, 8, 64, 100
14, 182998, Note_on_c, 8, 64, 0
14, 183000, Note_on_c, 8, 64, 100
14, 183058, Note_on_c, 8, 64, 0
14, 183060, Note_on_c, 8, 64, 100
14, 183178, Note_on_c, 8, 64, 0
14, 183240, Note_on_c, 8, 62, 100
14, 183298, Note_on_c, 8, 62, 0
14, 183300, Note_on_c, 8, 64, 100
14, 183358, Note_on_c, 8, 64, 0
14, 183360, Note_on_c, 8, 66, 100
14, 183418, Note_on_c, 8, 66, 0
14, 183420, Note_on_c, 8, 67, 100
14, 183478, Note_on_c, 8, 67, 0
14, 183480, Note_on_c, 8, 69, 100
14, 183538, Note_on_c, 8, 69, 0
14, 183540, Note_on_c, 8, 71, 100
14, 183718, Note_on_c, 8, 71, 0
14, 183720, Note_on_c, 8, 71, 100
14, 183778, Note_on_c, 8, 71, 0
14, 183780, Note_on_c, 8, 71, 100
14, 183898, Note_on_c, 8, 71, 0
14, 183960, Note_on_c, 8, 62, 100
14, 184018, Note_on_c, 8, 62, 0
14, 184020, Note_on_c, 8, 64, 100
14, 184078, Note_on_c, 8, 64, 0
14, 184080, Note_on_c, 8, 66, 100
14, 184138, Note_on_c, 8, 66, 0
14, 184140, Note_on_c, 8, 67, 100
14, 184198, Note_on_c, 8, 67, 0
14, 184200, Note_on_c, 8, 69, 100
14, 184258, Note_on_c, 8, 69, 0
14, 184260, Note_on_c, 8, 71, 100
14, 184318, Note_on_c, 8, 71, 0
14, 184320, Note_on_c, 8, 72, 100
14, 184378, Note_on_c, 8, 72, 0
14, 184380, Note_on_c, 8, 71, 100
14, 184438, Note_on_c, 8, 71, 0
14, 184440, Note_on_c, 8, 69, 100
14, 184498, Note_on_c, 8, 69, 0
14, 184500, Note_on_c, 8, 67, 100
14, 184558, Note_on_c, 8, 67, 0
14, 184560, Note_on_c, 8, 66, 100
14, 184618, Note_on_c, 8, 66, 0
14, 184620, Note_on_c, 8, 64, 100
14, 184738, Note_on_c, 8, 64, 0
14, 184740, Note_on_c, 8, 69, 100
14, 184798, Note_on_c, 8, 69, 0
14, 184800, Note_on_c, 8, 67, 100
14, 184858, Note_on_c, 8, 67, 0
14, 184860, Note_on_c, 8, 69, 100
14, 185098, Note_on_c, 8, 69, 0
14, 185100, Note_on_c, 8, 67, 100
14, 185158, Note_on_c, 8, 67, 0
14, 185160, Note_on_c, 8, 66, 100
14, 185218, Note_on_c, 8, 66, 0
14, 185220, Note_on_c, 8, 67, 100
14, 185338, Note_on_c, 8, 67, 0
14, 185340, Note_on_c, 8, 67, 100
14, 185518, Note_on_c, 8, 67, 0
14, 185520, Note_on_c, 8, 69, 100
14, 185578, Note_on_c, 8, 69, 0
14, 185580, Note_on_c, 8, 66, 100
14, 185758, Note_on_c, 8, 66, 0
14, 185760, Note_on_c, 8, 67, 100
14, 185818, Note_on_c, 8, 67, 0
14, 185820, Note_on_c, 8, 64, 100
14, 185998, Note_on_c, 8, 64, 0
14, 186000, Note_on_c, 8, 66, 100
14, 186058, Note_on_c, 8, 66, 0
14, 186060, Note_on_c, 8, 66, 100
14, 186178, Note_on_c, 8, 66, 0
14, 186900, Note_on_c, 8, 76, 100
14, 186958, Note_on_c, 8, 76, 0
14, 186960, Note_on_c, 8, 71, 100
14, 187018, Note_on_c, 8, 71, 0
14, 187020, Note_on_c, 8, 72, 100
14, 187078, Note_on_c, 8, 72, 0
14, 187080, Note_on_c, 8, 69, 100
14, 187138, Note_on_c, 8, 69, 0
14, 187140, Note_on_c, 8, 68, 100
14, 187258, Note_on_c, 8, 68, 0
14, 187260, Note_on_c, 8, 71, 100
14, 187378, Note_on_c, 8, 71, 0
14, 187380, Note_on_c, 8, 68, 100
14, 187498, Note_on_c, 8, 68, 0
14, 187500, Note_on_c, 8, 64, 100
14, 187678, Note_on_c, 8, 64, 0
14, 187680, Note_on_c, 8, 65, 100
14, 187738, Note_on_c, 8, 65, 0
14, 187740, Note_on_c, 8, 64, 100
14, 187858, Note_on_c, 8, 64, 0
14, 187860, Note_on_c, 8, 64, 100
14, 188158, Note_on_c, 8, 64, 0
14, 188160, Note_on_c, 8, 66, 100
14, 188218, Note_on_c, 8, 66, 0
14, 188220, Note_on_c, 8, 67, 100
14, 188278, Note_on_c, 8, 67, 0
14, 188280, Note_on_c, 8, 66, 100
14, 188338, Note_on_c, 8, 66, 0
14, 188340, Note_on_c, 8, 64, 100
14, 188398, Note_on_c, 8, 64, 0
14, 188400, Note_on_c, 8, 62, 100
14, 188458, Note_on_c, 8, 62, 0
14, 188460, Note_on_c, 8, 64, 100
14, 188578, Note_on_c, 8, 64, 0
14, 188580, Note_on_c, 8, 66, 100
14, 188698, Note_on_c, 8, 66, 0
14, 188700, Note_on_c, 8, 73, 100
14, 188758, Note_on_c, 8, 73, 0
14, 188760, Note_on_c, 8, 68, 100
14, 188818, Note_on_c, 8, 68, 0
14, 188820, Note_on_c, 8, 70, 100
14, 188878, Note_on_c, 8, 70, 0
14, 188880, Note_on_c, 8, 66, 100
14, 188938, Note_on_c, 8, 66, 0
14, 188940, Note_on_c, 8, 71, 100
14, 188998, Note_on_c, 8, 71, 0
14, 189000, Note_on_c, 8, 70, 100
14, 189058, Note_on_c, 8, 70, 0
14, 189060, Note_on_c, 8, 71, 100
14, 189178, Note_on_c, 8, 71, 0
14, 189180, Note_on_c, 8, 66, 100
14, 189418, Note_on_c, 8, 66, 0
14, 189420, Note_on_c, 8, 71, 100
14, 189538, Note_on_c, 8, 71, 0
14, 189540, Note_on_c, 8, 71, 100
14, 189658, Note_on_c, 8, 71, 0
14, 189660, Note_on_c, 8, 71, 100
14, 189718, Note_on_c, 8, 71, 0
14, 189720, Note_on_c, 8, 74, 100
14, 189778, Note_on_c, 8, 74, 0
14, 189780, Note_on_c, 8, 73, 100
14, 189838, Note_on_c, 8, 73, 0
14, 189840, Note_on_c, 8, 71, 100
14, 189898, Note_on_c, 8, 71, 0
14, 189900, Note_on_c, 8, 70, 100
14, 189958, Note_on_c, 8, 70, 0
14, 189960, Note_on_c, 8, 71, 100
14, 190018, Note_on_c, 8, 71, 0
14, 190020, Note_on_c, 8, 70, 100
14, 190138, Note_on_c, 8, 70, 0
14, 190140, Note_on_c, 8, 69, 100
14, 190498, Note_on_c, 8, 69, 0
14, 190500, Note_on_c, 8, 67, 100
14, 190558, Note_on_c, 8, 67, 0
14, 190560, Note_on_c, 8, 66, 100
14, 190618, Note_on_c, 8, 66, 0
14, 190620, Note_on_c, 8, 71, 100
14, 190738, Note_on_c, 8, 71, 0
14, 190740, Note_on_c, 8, 71, 100
14, 190798, Note_on_c, 8, 71, 0
14, 190800, Note_on_c, 8, 74, 100
14, 190858, Note_on_c, 8, 74, 0
14, 190860, Note_on_c, 8, 72, 100
14, 190918, Note_on_c, 8, 72, 0
14, 190920, Note_on_c, 8, 71, 100
14, 190978, Note_on_c, 8, 71, 0
14, 190980, Note_on_c, 8, 69, 100
14, 191038, Note_on_c, 8, 69, 0
14, 191040, Note_on_c, 8, 67, 100
14, 191098, Note_on_c, 8, 67, 0
14, 191100, Note_on_c, 8, 69, 100
14, 191158, Note_on_c, 8, 69, 0
14, 191160, Note_on_c, 8, 72, 100
14, 191218, Note_on_c, 8, 72, 0
14, 191220, Note_on_c, 8, 71, 100
14, 191278, Note_on_c, 8, 71, 0
14, 191280, Note_on_c, 8, 69, 100
14, 191338, Note_on_c, 8, 69, 0
14, 191340, Note_on_c, 8, 67, 100
14, 191398, Note_on_c, 8, 67, 0
14, 191400, Note_on_c, 8, 66, 100
14, 191458, Note_on_c, 8, 66, 0
14, 191460, Note_on_c, 8, 67, 100
14, 191518, Note_on_c, 8, 67, 0
14, 191520, Note_on_c, 8, 71, 100
14, 191578, Note_on_c, 8, 71, 0
14, 191580, Note_on_c, 8, 69, 100
14, 191638, Note_on_c, 8, 69, 0
14, 191640, Note_on_c, 8, 67, 100
14, 191698, Note_on_c, 8, 67, 0
14, 191700, Note_on_c, 8, 66, 100
14, 191758, Note_on_c, 8, 66, 0
14, 191760, Note_on_c, 8, 64, 100
14, 191818, Note_on_c, 8, 64, 0
14, 191820, Note_on_c, 8, 66, 100
14, 191878, Note_on_c, 8, 66, 0
14, 191880, Note_on_c, 8, 69, 100
14, 191938, Note_on_c, 8, 69, 0
14, 191940, Note_on_c, 8, 67, 100
14, 191998, Note_on_c, 8, 67, 0
14, 192000, Note_on_c, 8, 66, 100
14, 192058, Note_on_c, 8, 66, 0
14, 192060, Note_on_c, 8, 64, 100
14, 192118, Note_on_c, 8, 64, 0
14, 192120, Note_on_c, 8, 63, 100
14, 192178, Note_on_c, 8, 63, 0
14, 192180, Note_on_c, 8, 64, 100
14, 192298, Note_on_c, 8, 64, 0
14, 192300, Note_on_c, 8, 63, 100
14, 192358, Note_on_c, 8, 63, 0
14, 192360, Note_on_c, 8, 66, 100
14, 192418, Note_on_c, 8, 66, 0
14, 192420, Note_on_c, 8, 64, 100
14, 192598, Note_on_c, 8, 64, 0
14, 192600, Note_on_c, 8, 63, 100
14, 192658, Note_on_c, 8, 63, 0
14, 192660, Note_on_c, 8, 64, 100
14, 192898, Note_on_c, 8, 64, 0
14, 192900, Note_on_c, 8, 63, 100
14, 193258, Note_on_c, 8, 63, 0
14, 199455, Program_c, 8, 52
14, 199500, Note_on_c, 8, 69, 100
14, 199738, Note_on_c, 8, 69, 0
14, 199740, Note_on_c, 8, 69, 100
14, 199858, Note_on_c, 8, 69, 0
14, 199860, Note_on_c, 8, 69, 100
14, 199978, Note_on_c, 8, 69, 0
14, 199980, Note_on_c, 8, 71, 100
14, 200038, Note_on_c, 8, 71, 0
14, 200040, Note_on_c, 8, 69, 100
14, 200098, Note_on_c, 8, 69, 0
14, 200100, Note_on_c, 8, 67, 100
14, 200158, Note_on_c, 8, 67, 0
14, 200160, Note_on_c, 8, 69, 100
14, 200218, Note_on_c, 8, 69, 0
14, 200220, Note_on_c, 8, 71, 100
14, 200278, Note_on_c, 8, 71, 0
14, 200280, Note_on_c, 8, 73, 100
14, 200338, Note_on_c, 8, 73, 0
14, 200340, Note_on_c, 8, 74, 100
14, 200458, Note_on_c, 8, 74, 0
14, 200460, Note_on_c, 8, 74, 100
14, 200578, Note_on_c, 8, 74, 0
14, 200580, Note_on_c, 8, 69, 100
14, 200698, Note_on_c, 8, 69, 0
14, 200700, Note_on_c, 8, 74, 100
14, 200818, Note_on_c, 8, 74, 0
14, 200820, Note_on_c, 8, 66, 100
14, 200938, Note_on_c, 8, 66, 0
14, 200940, Note_on_c, 8, 64, 100
14, 201178, Note_on_c, 8, 64, 0
14, 201180, Note_on_c, 8, 73, 100
14, 201418, Note_on_c, 8, 73, 0
14, 201420, Note_on_c, 8, 74, 100
14, 201658, Note_on_c, 8, 74, 0
14, 201660, Note_on_c, 8, 73, 100
14, 201838, Note_on_c, 8, 73, 0
14, 201840, Note_on_c, 8, 73, 100
14, 201898, Note_on_c, 8, 73, 0
14, 201900, Note_on_c, 8, 74, 100
14, 202018, Note_on_c, 8, 74, 0
14, 202020, Note_on_c, 8, 62, 100
14, 202138, Note_on_c, 8, 62, 0
14, 202140, Note_on_c, 8, 74, 100
14, 202258, Note_on_c, 8, 74, 0
14, 202260, Note_on_c, 8, 73, 100
14, 202318, Note_on_c, 8, 73, 0
14, 202320, Note_on_c, 8, 71, 100
14, 202378, Note_on_c, 8, 71, 0
14, 202380, Note_on_c, 8, 73, 100
14, 202438, Note_on_c, 8, 73, 0
14, 202440, Note_on_c, 8, 71, 100
14, 202498, Note_on_c, 8, 71, 0
14, 202500, Note_on_c, 8, 69, 100
14, 202558, Note_on_c, 8, 69, 0
14, 202560, Note_on_c, 8, 71, 100
14, 202618, Note_on_c, 8, 71, 0
14, 202620, Note_on_c, 8, 73, 100
14, 202678, Note_on_c, 8, 73, 0
14, 202680, Note_on_c, 8, 74, 100
14, 202738, Note_on_c, 8, 74, 0
14, 202740, Note_on_c, 8, 76, 100
14, 202858, Note_on_c, 8, 76, 0
14, 202860, Note_on_c, 8, 74, 100
14, 202978, Note_on_c, 8, 74, 0
14, 202980, Note_on_c, 8, 73, 100
14, 203098, Note_on_c, 8, 73, 0
14, 203100, Note_on_c, 8, 71, 100
14, 203338, Note_on_c, 8, 71, 0
14, 203340, Note_on_c, 8, 69, 100
14, 203578, Note_on_c, 8, 69, 0
14, 203580, Note_on_c, 8, 66, 100
14, 203758, Note_on_c, 8, 66, 0
14, 203760, Note_on_c, 8, 66, 100
14, 203818, Note_on_c, 8, 66, 0
14, 203820, Note_on_c, 8, 67, 100
14, 203938, Note_on_c, 8, 67, 0
14, 203940, Note_on_c, 8, 62, 100
14, 204058, Note_on_c, 8, 62, 0
14, 204060, Note_on_c, 8, 67, 100
14, 204178, Note_on_c, 8, 67, 0
14, 204180, Note_on_c, 8, 66, 100
14, 204238, Note_on_c, 8, 66, 0
14, 204240, Note_on_c, 8, 64, 100
14, 204298, Note_on_c, 8, 64, 0
14, 204300, Note_on_c, 8, 66, 100
14, 204358, Note_on_c, 8, 66, 0
14, 204360, Note_on_c, 8, 64, 100
14, 204418, Note_on_c, 8, 64, 0
14, 204420, Note_on_c, 8, 62, 100
14, 204478, Note_on_c, 8, 62, 0
14, 204480, Note_on_c, 8, 64, 100
14, 204538, Note_on_c, 8, 64, 0
14, 204540, Note_on_c, 8, 66, 100
14, 204598, Note_on_c, 8, 66, 0
14, 204600, Note_on_c, 8, 67, 100
14, 204658, Note_on_c, 8, 67, 0
14, 204660, Note_on_c, 8, 69, 100
14, 204778, Note_on_c, 8, 69, 0
14, 204780, Note_on_c, 8, 67, 100
14, 204898, Note_on_c, 8, 67, 0
14, 204900, Note_on_c, 8, 66, 100
14, 205018, Note_on_c, 8, 66, 0
14, 205020, Note_on_c, 8, 64, 100
14, 205258, Note_on_c, 8, 64, 0
14, 205260, Note_on_c, 8, 62, 100
14, 205378, Note_on_c, 8, 62, 0
14, 205380, Note_on_c, 8, 66, 100
14, 205498, Note_on_c, 8, 66, 0
14, 205500, Note_on_c, 8, 67, 100
14, 205618, Note_on_c, 8, 67, 0
14, 205620, Note_on_c, 8, 67, 100
14, 205738, Note_on_c, 8, 67, 0
14, 205740, Note_on_c, 8, 69, 100
14, 205798, Note_on_c, 8, 69, 0
14, 205800, Note_on_c, 8, 67, 100
14, 205858, Note_on_c, 8, 67, 0
14, 205860, Note_on_c, 8, 66, 100
14, 205918, Note_on_c, 8, 66, 0
14, 205920, Note_on_c, 8, 67, 100
14, 205978, Note_on_c, 8, 67, 0
14, 205980, Note_on_c, 8, 69, 100
14, 206038, Note_on_c, 8, 69, 0
14, 206040, Note_on_c, 8, 71, 100
14, 206098, Note_on_c, 8, 71, 0
14, 206100, Note_on_c, 8, 73, 100
14, 206158, Note_on_c, 8, 73, 0
14, 206160, Note_on_c, 8, 74, 100
14, 206218, Note_on_c, 8, 74, 0
14, 206220, Note_on_c, 8, 76, 100
14, 206458, Note_on_c, 8, 76, 0
14, 206580, Note_on_c, 8, 69, 100
14, 206698, Note_on_c, 8, 69, 0
14, 206700, Note_on_c, 8, 78, 100
14, 206818, Note_on_c, 8, 78, 0
14, 206820, Note_on_c, 8, 76, 100
14, 206938, Note_on_c, 8, 76, 0
14, 206940, Note_on_c, 8, 74, 100
14, 207178, Note_on_c, 8, 74, 0
14, 207180, Note_on_c, 8, 73, 100
14, 207418, Note_on_c, 8, 73, 0
14, 207420, Note_on_c, 8, 74, 100
14, 207658, Note_on_c, 8, 74, 0
14, 207660, Note_on_c, 8, 74, 100
14, 207898, Note_on_c, 8, 74, 0
14, 207900, Note_on_c, 8, 76, 100
14, 208138, Note_on_c, 8, 76, 0
14, 208140, Note_on_c, 8, 69, 100
14, 208258, Note_on_c, 8, 69, 0
14, 208260, Note_on_c, 8, 66, 100
14, 208378, Note_on_c, 8, 66, 0
14, 208380, Note_on_c, 8, 71, 100
14, 208498, Note_on_c, 8, 71, 0
14, 208500, Note_on_c, 8, 62, 100
14, 208618, Note_on_c, 8, 62, 0
14, 208620, Note_on_c, 8, 64, 100
14, 208738, Note_on_c, 8, 64, 0
14, 208740, Note_on_c, 8, 66, 100
14, 208858, Note_on_c, 8, 66, 0
14, 208860, Note_on_c, 8, 67, 100
14, 209098, Note_on_c, 8, 67, 0
14, 209100, Note_on_c, 8, 66, 100
14, 209338, Note_on_c, 8, 66, 0
14, 209460, Note_on_c, 8, 64, 100
14, 209578, Note_on_c, 8, 64, 0
14, 209580, Note_on_c, 8, 69, 100
14, 209698, Note_on_c, 8, 69, 0
14, 209700, Note_on_c, 8, 69, 100
14, 209818, Note_on_c, 8, 69, 0
14, 209820, Note_on_c, 8, 66, 100
14, 209998, Note_on_c, 8, 66, 0
14, 210000, Note_on_c, 8, 64, 100
14, 210058, Note_on_c, 8, 64, 0
14, 210060, Note_on_c, 8, 64, 100
14, 210178, Note_on_c, 8, 64, 0
14, 210180, Note_on_c, 8, 73, 100
14, 210298, Note_on_c, 8, 73, 0
14, 210300, Note_on_c, 8, 78, 100
14, 210418, Note_on_c, 8, 78, 0
14, 210420, Note_on_c, 8, 69, 100
14, 210538, Note_on_c, 8, 69, 0
14, 210540, Note_on_c, 8, 71, 100
14, 210658, Note_on_c, 8, 71, 0
14, 210660, Note_on_c, 8, 73, 100
14, 210778, Note_on_c, 8, 73, 0
14, 210780, Note_on_c, 8, 74, 100
14, 211018, Note_on_c, 8, 74, 0
14, 211020, Note_on_c, 8, 73, 100
14, 211258, Note_on_c, 8, 73, 0
14, 211260, Note_on_c, 8, 69, 100
14, 211438, Note_on_c, 8, 69, 0
14, 211440, Note_on_c, 8, 69, 100
14, 211498, Note_on_c, 8, 69, 0
14, 211500, Note_on_c, 8, 69, 100
14, 211738, Note_on_c, 8, 69, 0
14, 211740, Note_on_c, 8, 71, 100
14, 211918, Note_on_c, 8, 71, 0
14, 211920, Note_on_c, 8, 71, 100
14, 211978, Note_on_c, 8, 71, 0
14, 211980, Note_on_c, 8, 69, 100
14, 212098, Note_on_c, 8, 69, 0
14, 212100, Note_on_c, 8, 64, 100
14, 212218, Note_on_c, 8, 64, 0
14, 212220, Note_on_c, 8, 71, 100
14, 212338, Note_on_c, 8, 71, 0
14, 212340, Note_on_c, 8, 71, 100
14, 212398, Note_on_c, 8, 71, 0
14, 212400, Note_on_c, 8, 71, 100
14, 212458, Note_on_c, 8, 71, 0
14, 212460, Note_on_c, 8, 71, 100
14, 212578, Note_on_c, 8, 71, 0
14, 212580, Note_on_c, 8, 67, 100
14, 212698, Note_on_c, 8, 67, 0
14, 212700, Note_on_c, 8, 66, 100
14, 212878, Note_on_c, 8, 66, 0
14, 212880, Note_on_c, 8, 66, 100
14, 212938, Note_on_c, 8, 66, 0
14, 212940, Note_on_c, 8, 71, 100
14, 213058, Note_on_c, 8, 71, 0
14, 213060, Note_on_c, 8, 66, 100
14, 213178, Note_on_c, 8, 66, 0
14, 213180, Note_on_c, 8, 74, 100
14, 213298, Note_on_c, 8, 74, 0
14, 213300, Note_on_c, 8, 73, 100
14, 213358, Note_on_c, 8, 73, 0
14, 213360, Note_on_c, 8, 71, 100
14, 213418, Note_on_c, 8, 71, 0
14, 213420, Note_on_c, 8, 73, 100
14, 213538, Note_on_c, 8, 73, 0
14, 213540, Note_on_c, 8, 69, 100
14, 213598, Note_on_c, 8, 69, 0
14, 213600, Note_on_c, 8, 71, 100
14, 213658, Note_on_c, 8, 71, 0
14, 213660, Note_on_c, 8, 72, 100
14, 213778, Note_on_c, 8, 72, 0
14, 213780, Note_on_c, 8, 71, 100
14, 213838, Note_on_c, 8, 71, 0
14, 213840, Note_on_c, 8, 69, 100
14, 213898, Note_on_c, 8, 69, 0
14, 213900, Note_on_c, 8, 71, 100
14, 214258, Note_on_c, 8, 71, 0
14, 214260, Note_on_c, 8, 69, 100
14, 214318, Note_on_c, 8, 69, 0
14, 214320, Note_on_c, 8, 67, 100
14, 214378, Note_on_c, 8, 67, 0
14, 214380, Note_on_c, 8, 69, 100
14, 214738, Note_on_c, 8, 69, 0
14, 214740, Note_on_c, 8, 67, 100
14, 214798, Note_on_c, 8, 67, 0
14, 214800, Note_on_c, 8, 66, 100
14, 214858, Note_on_c, 8, 66, 0
14, 214860, Note_on_c, 8, 64, 100
14, 215098, Note_on_c, 8, 64, 0
14, 215100, Note_on_c, 8, 69, 100
14, 215338, Note_on_c, 8, 69, 0
14, 215340, Note_on_c, 8, 62, 100
14, 216418, Note_on_c, 8, 62, 0
14, 216420, Note_on_c, 8, 64, 100
14, 216478, Note_on_c, 8, 64, 0
14, 216480, Note_on_c, 8, 66, 100
14, 216538, Note_on_c, 8, 66, 0
14, 216540, Note_on_c, 8, 67, 100
14, 216658, Note_on_c, 8, 67, 0
14, 216660, Note_on_c, 8, 67, 100
14, 216778, Note_on_c, 8, 67, 0
14, 216780, Note_on_c, 8, 66, 100
14, 217018, Note_on_c, 8, 66, 0
14, 217020, Note_on_c, 8, 69, 100
14, 217198, Note_on_c, 8, 69, 0
14, 217200, Note_on_c, 8, 69, 100
14, 217258, Note_on_c, 8, 69, 0
14, 217260, Note_on_c, 8, 69, 100
14, 217378, Note_on_c, 8, 69, 0
14, 217380, Note_on_c, 8, 67, 100
14, 217438, Note_on_c, 8, 67, 0
14, 217440, Note_on_c, 8, 66, 100
14, 217498, Note_on_c, 8, 66, 0
14, 217500, Note_on_c, 8, 67, 100
14, 217618, Note_on_c, 8, 67, 0
14, 217620, Note_on_c, 8, 69, 100
14, 217678, Note_on_c, 8, 69, 0
14, 217680, Note_on_c, 8, 71, 100
14, 217738, Note_on_c, 8, 71, 0
14, 217740, Note_on_c, 8, 64, 100
14, 217978, Note_on_c, 8, 64, 0
14, 217980, Note_on_c, 8, 69, 100
14, 218098, Note_on_c, 8, 69, 0
14, 218100, Note_on_c, 8, 69, 100
14, 218218, Note_on_c, 8, 69, 0
14, 218220, Note_on_c, 8, 69, 100
14, 218458, Note_on_c, 8, 69, 0
14, 218460, Note_on_c, 8, 69, 100
14, 218698, Note_on_c, 8, 69, 0
14, 218700, Note_on_c, 8, 69, 100
14, 219178, Note_on_c, 8, 69, 0
14, 219660, Note_on_c, 8, 73, 100
14, 219780, Note_on_c, 8, 73, 0
14, 219840, Note_on_c, 8, 73, 100
14, 219880, Note_on_c, 8, 73, 0
14, 219900, Note_on_c, 8, 73, 100
14, 220060, Note_on_c, 8, 73, 0
14, 220900, Note_on_c, 8, 59, 100
14, 220937, Note_on_c, 8, 59, 0
14, 220940, Note_on_c, 8, 61, 100
14, 220977, Note_on_c, 8, 61, 0
14, 220980, Note_on_c, 8, 62, 100
14, 221017, Note_on_c, 8, 62, 0
14, 221020, Note_on_c, 8, 64, 100
14, 221057, Note_on_c, 8, 64, 0
14, 221060, Note_on_c, 8, 66, 100
14, 221097, Note_on_c, 8, 66, 0
14, 221100, Note_on_c, 8, 68, 100
14, 221177, Note_on_c, 8, 68, 0
14, 221180, Note_on_c, 8, 69, 100
14, 221217, Note_on_c, 8, 69, 0
14, 221220, Note_on_c, 8, 71, 100
14, 221257, Note_on_c, 8, 71, 0
14, 221260, Note_on_c, 8, 73, 100
14, 221297, Note_on_c, 8, 73, 0
14, 221300, Note_on_c, 8, 74, 100
14, 221337, Note_on_c, 8, 74, 0
14, 221340, Note_on_c, 8, 73, 100
14, 221377, Note_on_c, 8, 73, 0
14, 221380, Note_on_c, 8, 76, 100
14, 221417, Note_on_c, 8, 76, 0
14, 221420, Note_on_c, 8, 74, 100
14, 221457, Note_on_c, 8, 74, 0
14, 221460, Note_on_c, 8, 73, 100
14, 221497, Note_on_c, 8, 73, 0
14, 221500, Note_on_c, 8, 71, 100
14, 221537, Note_on_c, 8, 71, 0
14, 221540, Note_on_c, 8, 69, 100
14, 221577, Note_on_c, 8, 69, 0
14, 221580, Note_on_c, 8, 69, 100
14, 221700, Note_on_c, 8, 69, 0
14, 221760, Note_on_c, 8, 69, 100
14, 221800, Note_on_c, 8, 69, 0
14, 221820, Note_on_c, 8, 69, 100
14, 221980, Note_on_c, 8, 69, 0
14, 222060, Note_on_c, 8, 68, 100
14, 222298, Note_on_c, 8, 68, 0
14, 222300, Note_on_c, 8, 68, 100
14, 222540, Note_on_c, 8, 68, 0
14, 223060, Note_on_c, 8, 63, 90
14, 223099, Note_on_c, 8, 63, 0
14, 223100, Note_on_c, 8, 64, 90
14, 223139, Note_on_c, 8, 64, 0
14, 223140, Note_on_c, 8, 66, 90
14, 223179, Note_on_c, 8, 66, 0
14, 223180, Note_on_c, 8, 68, 90
14, 223219, Note_on_c, 8, 68, 0
14, 223220, Note_on_c, 8, 69, 90
14, 223259, Note_on_c, 8, 69, 0
14, 223260, Note_on_c, 8, 71, 90
14, 223299, Note_on_c, 8, 71, 0
14, 223300, Note_on_c, 8, 66, 90
14, 223339, Note_on_c, 8, 66, 0
14, 223340, Note_on_c, 8, 68, 90
14, 223379, Note_on_c, 8, 68, 0
14, 223380, Note_on_c, 8, 69, 90
14, 223419, Note_on_c, 8, 69, 0
14, 223420, Note_on_c, 8, 71, 90
14, 223459, Note_on_c, 8, 71, 0
14, 223460, Note_on_c, 8, 73, 90
14, 223499, Note_on_c, 8, 73, 0
14, 223500, Note_on_c, 8, 66, 90
14, 223780, Note_on_c, 8, 66, 0
14, 223780, Note_on_c, 8, 71, 90
14, 223819, Note_on_c, 8, 71, 0
14, 223820, Note_on_c, 8, 69, 90
14, 223859, Note_on_c, 8, 69, 0
14, 223860, Note_on_c, 8, 68, 90
14, 223899, Note_on_c, 8, 68, 0
14, 223900, Note_on_c, 8, 66, 90
14, 223939, Note_on_c, 8, 66, 0
14, 223940, Note_on_c, 8, 64, 90
14, 223979, Note_on_c, 8, 64, 0
14, 223980, Note_on_c, 8, 73, 90
14, 224160, Note_on_c, 8, 73, 0
14, 224160, Note_on_c, 8, 73, 90
14, 224220, Note_on_c, 8, 73, 0
14, 224220, Note_on_c, 8, 73, 90
14, 224460, Note_on_c, 8, 73, 0
14, 224460, Note_on_c, 8, 71, 90
14, 224640, Note_on_c, 8, 71, 0
14, 224640, Note_on_c, 8, 71, 90
14, 224700, Note_on_c, 8, 71, 0
14, 224700, Note_on_c, 8, 71, 90
14, 224940, Note_on_c, 8, 71, 0
14, 225100, Note_on_c, 8, 78, 90
14, 225140, Note_on_c, 8, 78, 0
14, 225140, Note_on_c, 8, 76, 90
14, 225180, Note_on_c, 8, 76, 0
14, 225180, Note_on_c, 8, 78, 90
14, 225220, Note_on_c, 8, 78, 0
14, 225220, Note_on_c, 8, 74, 90
14, 225260, Note_on_c, 8, 74, 0
14, 225260, Note_on_c, 8, 73, 90
14, 225300, Note_on_c, 8, 73, 0
14, 225300, Note_on_c, 8, 74, 90
14, 225340, Note_on_c, 8, 74, 0
14, 225340, Note_on_c, 8, 71, 90
14, 225380, Note_on_c, 8, 71, 0
14, 225380, Note_on_c, 8, 70, 90
14, 225420, Note_on_c, 8, 70, 0
14, 225420, Note_on_c, 8, 71, 90
14, 225820, Note_on_c, 8, 71, 0
14, 225820, Note_on_c, 8, 66, 90
14, 225860, Note_on_c, 8, 66, 0
14, 225860, Note_on_c, 8, 70, 90
14, 225900, Note_on_c, 8, 70, 0
14, 225900, Note_on_c, 8, 71, 90
14, 226060, Note_on_c, 8, 71, 0
14, 226060, Note_on_c, 8, 64, 90
14, 226100, Note_on_c, 8, 64, 0
14, 226100, Note_on_c, 8, 66, 90
14, 226140, Note_on_c, 8, 66, 0
14, 226140, Note_on_c, 8, 67, 90
14, 226180, Note_on_c, 8, 67, 0
14, 226180, Note_on_c, 8, 71, 90
14, 226220, Note_on_c, 8, 71, 0
14, 226220, Note_on_c, 8, 73, 90
14, 226260, Note_on_c, 8, 73, 0
14, 226260, Note_on_c, 8, 74, 90
14, 226300, Note_on_c, 8, 74, 0
14, 226300, Note_on_c, 8, 69, 90
14, 226340, Note_on_c, 8, 69, 0
14, 226340, Note_on_c, 8, 71, 90
14, 226380, Note_on_c, 8, 71, 0
14, 226380, Note_on_c, 8, 72, 90
14, 226500, Note_on_c, 8, 72, 0
14, 226500, Note_on_c, 8, 72, 90
14, 226560, Note_on_c, 8, 72, 0
14, 226560, Note_on_c, 8, 72, 90
14, 226620, Note_on_c, 8, 72, 0
14, 226620, Note_on_c, 8, 72, 90
14, 226740, Note_on_c, 8, 72, 0
14, 226740, Note_on_c, 8, 72, 90
14, 226860, Note_on_c, 8, 72, 0
14, 226860, Note_on_c, 8, 71, 90
14, 227040, Note_on_c, 8, 71, 0
14, 227040, Note_on_c, 8, 71, 90
14, 227100, Note_on_c, 8, 71, 0
14, 227100, Note_on_c, 8, 71, 90
14, 227340, Note_on_c, 8, 71, 0
14, 227340, Note_on_c, 8, 69, 90
14, 228060, Note_on_c, 8, 69, 0
14, 228060, Note_on_c, 8, 68, 90
14, 228180, Note_on_c, 8, 68, 0
14, 228180, Note_on_c, 8, 69, 90
14, 228240, Note_on_c, 8, 69, 0
14, 228240, Note_on_c, 8, 71, 90
14, 228300, Note_on_c, 8, 71, 0
14, 228300, Note_on_c, 8, 64, 90
14, 228780, Note_on_c, 8, 64, 0
14, 229920, Note_on_c, 8, 62, 90
14, 229949, Note_on_c, 8, 62, 0
14, 229950, Note_on_c, 8, 64, 90
14, 229979, Note_on_c, 8, 64, 0
14, 229980, Note_on_c, 8, 66, 90
14, 230009, Note_on_c, 8, 66, 0
14, 230010, Note_on_c, 8, 67, 90
14, 230039, Note_on_c, 8, 67, 0
14, 230040, Note_on_c, 8, 69, 90
14, 230070, Note_on_c, 8, 69, 0
14, 230100, Note_on_c, 8, 69, 90
14, 230129, Note_on_c, 8, 69, 0
14, 230130, Note_on_c, 8, 67, 90
14, 230159, Note_on_c, 8, 67, 0
14, 230160, Note_on_c, 8, 66, 90
14, 230189, Note_on_c, 8, 66, 0
14, 230190, Note_on_c, 8, 64, 90
14, 230219, Note_on_c, 8, 64, 0
14, 230220, Note_on_c, 8, 66, 90
14, 230309, Note_on_c, 8, 66, 0
14, 230310, Note_on_c, 8, 66, 90
14, 230339, Note_on_c, 8, 66, 0
14, 230340, Note_on_c, 8, 66, 90
14, 230459, Note_on_c, 8, 66, 0
14, 231360, Note_on_c, 8, 78, 90
14, 231389, Note_on_c, 8, 78, 0
14, 231390, Note_on_c, 8, 76, 90
14, 231419, Note_on_c, 8, 76, 0
14, 231420, Note_on_c, 8, 74, 90
14, 231449, Note_on_c, 8, 74, 0
14, 231450, Note_on_c, 8, 76, 90
14, 231479, Note_on_c, 8, 76, 0
14, 231480, Note_on_c, 8, 78, 90
14, 231509, Note_on_c, 8, 78, 0
14, 231540, Note_on_c, 8, 78, 90
14, 231569, Note_on_c, 8, 78, 0
14, 231570, Note_on_c, 8, 76, 90
14, 231599, Note_on_c, 8, 76, 0
14, 231600, Note_on_c, 8, 74, 90
14, 231629, Note_on_c, 8, 74, 0
14, 231630, Note_on_c, 8, 73, 90
14, 231659, Note_on_c, 8, 73, 0
14, 231660, Note_on_c, 8, 74, 90
14, 231749, Note_on_c, 8, 74, 0
14, 231750, Note_on_c, 8, 69, 90
14, 231779, Note_on_c, 8, 69, 0
14, 231780, Note_on_c, 8, 69, 90
14, 231899, Note_on_c, 8, 69, 0
14, 232080, Note_on_c, 8, 71, 90
14, 232109, Note_on_c, 8, 71, 0
14, 232110, Note_on_c, 8, 70, 90
14, 232139, Note_on_c, 8, 70, 0
14, 232140, Note_on_c, 8, 71, 90
14, 232169, Note_on_c, 8, 71, 0
14, 232170, Note_on_c, 8, 73, 90
14, 232199, Note_on_c, 8, 73, 0
14, 232200, Note_on_c, 8, 74, 90
14, 232230, Note_on_c, 8, 74, 0
14, 232260, Note_on_c, 8, 73, 90
14, 232319, Note_on_c, 8, 73, 0
14, 232320, Note_on_c, 8, 69, 90
14, 232379, Note_on_c, 8, 69, 0
14, 232380, Note_on_c, 8, 71, 90
14, 232439, Note_on_c, 8, 71, 0
14, 232800, Note_on_c, 8, 64, 90
14, 232829, Note_on_c, 8, 64, 0
14, 232830, Note_on_c, 8, 66, 90
14, 232859, Note_on_c, 8, 66, 0
14, 232860, Note_on_c, 8, 67, 90
14, 232889, Note_on_c, 8, 67, 0
14, 232890, Note_on_c, 8, 69, 90
14, 232919, Note_on_c, 8, 69, 0
14, 232920, Note_on_c, 8, 71, 90
14, 232949, Note_on_c, 8, 71, 0
14, 232980, Note_on_c, 8, 71, 90
14, 233009, Note_on_c, 8, 71, 0
14, 233010, Note_on_c, 8, 69, 90
14, 233039, Note_on_c, 8, 69, 0
14, 233040, Note_on_c, 8, 67, 90
14, 233069, Note_on_c, 8, 67, 0
14, 233070, Note_on_c, 8, 66, 90
14, 233099, Note_on_c, 8, 66, 0
14, 233100, Note_on_c, 8, 67, 90
14, 233189, Note_on_c, 8, 67, 0
14, 233190, Note_on_c, 8, 66, 90
14, 233219, Note_on_c, 8, 66, 0
14, 233220, Note_on_c, 8, 64, 90
14, 233339, Note_on_c, 8, 64, 0
14, 233880, Note_on_c, 8, 69, 90
14, 233909, Note_on_c, 8, 69, 0
14, 233910, Note_on_c, 8, 71, 90
14, 233939, Note_on_c, 8, 71, 0
14, 233940, Note_on_c, 8, 73, 90
14, 233969, Note_on_c, 8, 73, 0
14, 233970, Note_on_c, 8, 74, 90
14, 233999, Note_on_c, 8, 74, 0
14, 234000, Note_on_c, 8, 76, 90
14, 234029, Note_on_c, 8, 76, 0
14, 234060, Note_on_c, 8, 76, 90
14, 234089, Note_on_c, 8, 76, 0
14, 234090, Note_on_c, 8, 74, 90
14, 234119, Note_on_c, 8, 74, 0
14, 234120, Note_on_c, 8, 73, 90
14, 234149, Note_on_c, 8, 73, 0
14, 234150, Note_on_c, 8, 71, 90
14, 234179, Note_on_c, 8, 71, 0
14, 234180, Note_on_c, 8, 69, 100
14, 235950, Note_on_c, 8, 69, 0
14, 235950, Note_on_c, 8, 67, 90
14, 235979, Note_on_c, 8, 67, 0
14, 235980, Note_on_c, 8, 66, 90
14, 236009, Note_on_c, 8, 66, 0
14, 236010, Note_on_c, 8, 64, 90
14, 236039, Note_on_c, 8, 64, 0
14, 236040, Note_on_c, 8, 66, 90
14, 236069, Note_on_c, 8, 66, 0
14, 236070, Note_on_c, 8, 67, 90
14, 236099, Note_on_c, 8, 67, 0
14, 236100, Note_on_c, 8, 69, 90
14, 236159, Note_on_c, 8, 69, 0
14, 236160, Note_on_c, 8, 74, 90
14, 236279, Note_on_c, 8, 74, 0
14, 236280, Note_on_c, 8, 69, 90
14, 236399, Note_on_c, 8, 69, 0
14, 236400, Note_on_c, 8, 74, 90
14, 236429, Note_on_c, 8, 74, 0
14, 236430, Note_on_c, 8, 73, 90
14, 236459, Note_on_c, 8, 73, 0
14, 236460, Note_on_c, 8, 74, 90
14, 236519, Note_on_c, 8, 74, 0
14, 236520, Note_on_c, 8, 71, 90
14, 236579, Note_on_c, 8, 71, 0
14, 236580, Note_on_c, 8, 69, 90
14, 236699, Note_on_c, 8, 69, 0
14, 236700, Note_on_c, 8, 69, 90
14, 236819, Note_on_c, 8, 69, 0
14, 236819, End_track
15, 0, Start_track
15, 0, MIDI_port, 0
15, 0, Title_t, "alto"
15, 0, Program_c, 10, 52
15, 0, Control_c, 10, 7, 127
15, 0, Control_c, 10, 10, 8
15, 11220, Note_on_c, 10, 62, 100
15, 11240, Note_on_c, 10, 62, 0
15, 11250, Note_on_c, 10, 64, 100
15, 11270, Note_on_c, 10, 64, 0
15, 11280, Note_on_c, 10, 66, 100
15, 11340, Note_on_c, 10, 66, 0
15, 11370, Note_on_c, 10, 67, 100
15, 11390, Note_on_c, 10, 67, 0
15, 11400, Note_on_c, 10, 66, 100
15, 11420, Note_on_c, 10, 66, 0
15, 11430, Note_on_c, 10, 67, 100
15, 11450, Note_on_c, 10, 67, 0
15, 11460, Note_on_c, 10, 66, 100
15, 11480, Note_on_c, 10, 66, 0
15, 11490, Note_on_c, 10, 67, 100
15, 11510, Note_on_c, 10, 67, 0
15, 11520, Note_on_c, 10, 66, 100
15, 11540, Note_on_c, 10, 66, 0
15, 11550, Note_on_c, 10, 71, 100
15, 11570, Note_on_c, 10, 71, 0
15, 11580, Note_on_c, 10, 69, 100
15, 11600, Note_on_c, 10, 69, 0
15, 11610, Note_on_c, 10, 67, 100
15, 11630, Note_on_c, 10, 67, 0
15, 11640, Note_on_c, 10, 66, 100
15, 11700, Note_on_c, 10, 66, 0
15, 11730, Note_on_c, 10, 66, 100
15, 11750, Note_on_c, 10, 66, 0
15, 11760, Note_on_c, 10, 66, 100
15, 11840, Note_on_c, 10, 66, 0
15, 11940, Note_on_c, 10, 66, 100
15, 11980, Note_on_c, 10, 66, 0
15, 12000, Note_on_c, 10, 66, 100
15, 12060, Note_on_c, 10, 66, 0
15, 12090, Note_on_c, 10, 66, 100
15, 12110, Note_on_c, 10, 66, 0
15, 12120, Note_on_c, 10, 66, 100
15, 12200, Note_on_c, 10, 66, 0
15, 12300, Note_on_c, 10, 62, 100
15, 12320, Note_on_c, 10, 62, 0
15, 12330, Note_on_c, 10, 64, 100
15, 12350, Note_on_c, 10, 64, 0
15, 12360, Note_on_c, 10, 66, 100
15, 12380, Note_on_c, 10, 66, 0
15, 12390, Note_on_c, 10, 67, 100
15, 12410, Note_on_c, 10, 67, 0
15, 12420, Note_on_c, 10, 69, 100
15, 12460, Note_on_c, 10, 69, 0
15, 12480, Note_on_c, 10, 69, 100
15, 12500, Note_on_c, 10, 69, 0
15, 12510, Note_on_c, 10, 67, 100
15, 12530, Note_on_c, 10, 67, 0
15, 12540, Note_on_c, 10, 66, 100
15, 12560, Note_on_c, 10, 66, 0
15, 12570, Note_on_c, 10, 64, 100
15, 12590, Note_on_c, 10, 64, 0
15, 12600, Note_on_c, 10, 66, 100
15, 12660, Note_on_c, 10, 66, 0
15, 12690, Note_on_c, 10, 66, 100
15, 12710, Note_on_c, 10, 66, 0
15, 12720, Note_on_c, 10, 66, 100
15, 12800, Note_on_c, 10, 66, 0
15, 12900, Note_on_c, 10, 69, 100
15, 12940, Note_on_c, 10, 69, 0
15, 12960, Note_on_c, 10, 69, 100
15, 13020, Note_on_c, 10, 69, 0
15, 13050, Note_on_c, 10, 69, 100
15, 13070, Note_on_c, 10, 69, 0
15, 13080, Note_on_c, 10, 62, 100
15, 13160, Note_on_c, 10, 62, 0
15, 13260, Note_on_c, 10, 62, 100
15, 13300, Note_on_c, 10, 62, 0
15, 13320, Note_on_c, 10, 64, 100
15, 13380, Note_on_c, 10, 64, 0
15, 13410, Note_on_c, 10, 64, 100
15, 13430, Note_on_c, 10, 64, 0
15, 13440, Note_on_c, 10, 64, 100
15, 13520, Note_on_c, 10, 64, 0
15, 13620, Note_on_c, 10, 64, 100
15, 13660, Note_on_c, 10, 64, 0
15, 13680, Note_on_c, 10, 66, 100
15, 13740, Note_on_c, 10, 66, 0
15, 13770, Note_on_c, 10, 66, 100
15, 13790, Note_on_c, 10, 66, 0
15, 13800, Note_on_c, 10, 66, 100
15, 13840, Note_on_c, 10, 66, 0
15, 13860, Note_on_c, 10, 62, 100
15, 13900, Note_on_c, 10, 62, 0
15, 13920, Note_on_c, 10, 66, 100
15, 13960, Note_on_c, 10, 66, 0
15, 13980, Note_on_c, 10, 69, 100
15, 14020, Note_on_c, 10, 69, 0
15, 14040, Note_on_c, 10, 71, 100
15, 14100, Note_on_c, 10, 71, 0
15, 14130, Note_on_c, 10, 71, 100
15, 14150, Note_on_c, 10, 71, 0
15, 14160, Note_on_c, 10, 71, 100
15, 14200, Note_on_c, 10, 71, 0
15, 14220, Note_on_c, 10, 59, 100
15, 14260, Note_on_c, 10, 59, 0
15, 14280, Note_on_c, 10, 62, 100
15, 14320, Note_on_c, 10, 62, 0
15, 14340, Note_on_c, 10, 59, 100
15, 14380, Note_on_c, 10, 59, 0
15, 14400, Note_on_c, 10, 71, 100
15, 14460, Note_on_c, 10, 71, 0
15, 14490, Note_on_c, 10, 71, 100
15, 14510, Note_on_c, 10, 71, 0
15, 14520, Note_on_c, 10, 71, 100
15, 14560, Note_on_c, 10, 71, 0
15, 14580, Note_on_c, 10, 71, 100
15, 14600, Note_on_c, 10, 71, 0
15, 14610, Note_on_c, 10, 69, 100
15, 14630, Note_on_c, 10, 69, 0
15, 14640, Note_on_c, 10, 68, 100
15, 14680, Note_on_c, 10, 68, 0
15, 14700, Note_on_c, 10, 69, 100
15, 14720, Note_on_c, 10, 69, 0
15, 14730, Note_on_c, 10, 71, 100
15, 14750, Note_on_c, 10, 71, 0
15, 14760, Note_on_c, 10, 69, 100
15, 14800, Note_on_c, 10, 69, 0
15, 14820, Note_on_c, 10, 64, 100
15, 14860, Note_on_c, 10, 64, 0
15, 14940, Note_on_c, 10, 64, 100
15, 14960, Note_on_c, 10, 64, 0
15, 14970, Note_on_c, 10, 62, 100
15, 14990, Note_on_c, 10, 62, 0
15, 15000, Note_on_c, 10, 61, 100
15, 15040, Note_on_c, 10, 61, 0
15, 15060, Note_on_c, 10, 66, 100
15, 15080, Note_on_c, 10, 66, 0
15, 15090, Note_on_c, 10, 64, 100
15, 15110, Note_on_c, 10, 64, 0
15, 15120, Note_on_c, 10, 62, 100
15, 15160, Note_on_c, 10, 62, 0
15, 15180, Note_on_c, 10, 66, 100
15, 15220, Note_on_c, 10, 66, 0
15, 15240, Note_on_c, 10, 66, 100
15, 15260, Note_on_c, 10, 66, 0
15, 15270, Note_on_c, 10, 64, 100
15, 15290, Note_on_c, 10, 64, 0
15, 15300, Note_on_c, 10, 62, 100
15, 15320, Note_on_c, 10, 62, 0
15, 15330, Note_on_c, 10, 61, 100
15, 15350, Note_on_c, 10, 61, 0
15, 15360, Note_on_c, 10, 62, 100
15, 15400, Note_on_c, 10, 62, 0
15, 15420, Note_on_c, 10, 64, 100
15, 15440, Note_on_c, 10, 64, 0
15, 15450, Note_on_c, 10, 66, 100
15, 15470, Note_on_c, 10, 66, 0
15, 15480, Note_on_c, 10, 59, 100
15, 15520, Note_on_c, 10, 59, 0
15, 15540, Note_on_c, 10, 59, 100
15, 15580, Note_on_c, 10, 59, 0
15, 15600, Note_on_c, 10, 61, 100
15, 15640, Note_on_c, 10, 61, 0
15, 15660, Note_on_c, 10, 66, 100
15, 15700, Note_on_c, 10, 66, 0
15, 15720, Note_on_c, 10, 59, 100
15, 15800, Note_on_c, 10, 59, 0
15, 15840, Note_on_c, 10, 61, 100
15, 15880, Note_on_c, 10, 61, 0
15, 15900, Note_on_c, 10, 61, 100
15, 15920, Note_on_c, 10, 61, 0
15, 15930, Note_on_c, 10, 62, 100
15, 15950, Note_on_c, 10, 62, 0
15, 15960, Note_on_c, 10, 64, 100
15, 15980, Note_on_c, 10, 64, 0
15, 15990, Note_on_c, 10, 69, 100
15, 16010, Note_on_c, 10, 69, 0
15, 16020, Note_on_c, 10, 68, 100
15, 16040, Note_on_c, 10, 68, 0
15, 16050, Note_on_c, 10, 66, 100
15, 16070, Note_on_c, 10, 66, 0
15, 16080, Note_on_c, 10, 64, 100
15, 16100, Note_on_c, 10, 64, 0
15, 16110, Note_on_c, 10, 66, 100
15, 16130, Note_on_c, 10, 66, 0
15, 16140, Note_on_c, 10, 64, 100
15, 16160, Note_on_c, 10, 64, 0
15, 16170, Note_on_c, 10, 66, 100
15, 16190, Note_on_c, 10, 66, 0
15, 16200, Note_on_c, 10, 64, 100
15, 16260, Note_on_c, 10, 64, 0
15, 16290, Note_on_c, 10, 62, 100
15, 16310, Note_on_c, 10, 62, 0
15, 16320, Note_on_c, 10, 61, 100
15, 16400, Note_on_c, 10, 61, 0
15, 16620, Note_on_c, 10, 64, 100
15, 16660, Note_on_c, 10, 64, 0
15, 16680, Note_on_c, 10, 69, 100
15, 16740, Note_on_c, 10, 69, 0
15, 16770, Note_on_c, 10, 69, 100
15, 16790, Note_on_c, 10, 69, 0
15, 16800, Note_on_c, 10, 69, 100
15, 16880, Note_on_c, 10, 69, 0
15, 16980, Note_on_c, 10, 69, 100
15, 17020, Note_on_c, 10, 69, 0
15, 17040, Note_on_c, 10, 66, 100
15, 17100, Note_on_c, 10, 66, 0
15, 17130, Note_on_c, 10, 66, 100
15, 17150, Note_on_c, 10, 66, 0
15, 17160, Note_on_c, 10, 66, 100
15, 17240, Note_on_c, 10, 66, 0
15, 17700, Note_on_c, 10, 64, 100
15, 17740, Note_on_c, 10, 64, 0
15, 17760, Note_on_c, 10, 69, 100
15, 17780, Note_on_c, 10, 69, 0
15, 17790, Note_on_c, 10, 71, 100
15, 17810, Note_on_c, 10, 71, 0
15, 17820, Note_on_c, 10, 73, 100
15, 17860, Note_on_c, 10, 73, 0
15, 17880, Note_on_c, 10, 73, 100
15, 17900, Note_on_c, 10, 73, 0
15, 17910, Note_on_c, 10, 71, 100
15, 17930, Note_on_c, 10, 71, 0
15, 17940, Note_on_c, 10, 69, 100
15, 17960, Note_on_c, 10, 69, 0
15, 17970, Note_on_c, 10, 68, 100
15, 17990, Note_on_c, 10, 68, 0
15, 18000, Note_on_c, 10, 69, 100
15, 18060, Note_on_c, 10, 69, 0
15, 18090, Note_on_c, 10, 69, 100
15, 18110, Note_on_c, 10, 69, 0
15, 18120, Note_on_c, 10, 69, 100
15, 18200, Note_on_c, 10, 69, 0
15, 19140, Note_on_c, 10, 61, 100
15, 19160, Note_on_c, 10, 61, 0
15, 19170, Note_on_c, 10, 63, 100
15, 19190, Note_on_c, 10, 63, 0
15, 19200, Note_on_c, 10, 65, 100
15, 19220, Note_on_c, 10, 65, 0
15, 19230, Note_on_c, 10, 66, 100
15, 19250, Note_on_c, 10, 66, 0
15, 19260, Note_on_c, 10, 68, 100
15, 19280, Note_on_c, 10, 68, 0
15, 19290, Note_on_c, 10, 69, 100
15, 19310, Note_on_c, 10, 69, 0
15, 19320, Note_on_c, 10, 71, 100
15, 19340, Note_on_c, 10, 71, 0
15, 19350, Note_on_c, 10, 69, 100
15, 19370, Note_on_c, 10, 69, 0
15, 19380, Note_on_c, 10, 71, 100
15, 19400, Note_on_c, 10, 71, 0
15, 19410, Note_on_c, 10, 68, 100
15, 19430, Note_on_c, 10, 68, 0
15, 19440, Note_on_c, 10, 69, 100
15, 19480, Note_on_c, 10, 69, 0
15, 19500, Note_on_c, 10, 61, 100
15, 19540, Note_on_c, 10, 61, 0
15, 19560, Note_on_c, 10, 66, 100
15, 19580, Note_on_c, 10, 66, 0
15, 19590, Note_on_c, 10, 68, 100
15, 19610, Note_on_c, 10, 68, 0
15, 19620, Note_on_c, 10, 69, 100
15, 19660, Note_on_c, 10, 69, 0
15, 19680, Note_on_c, 10, 67, 100
15, 19700, Note_on_c, 10, 67, 0
15, 19710, Note_on_c, 10, 66, 100
15, 19730, Note_on_c, 10, 66, 0
15, 19740, Note_on_c, 10, 64, 100
15, 19760, Note_on_c, 10, 64, 0
15, 19770, Note_on_c, 10, 62, 100
15, 19790, Note_on_c, 10, 62, 0
15, 19800, Note_on_c, 10, 64, 100
15, 19860, Note_on_c, 10, 64, 0
15, 19890, Note_on_c, 10, 69, 100
15, 19910, Note_on_c, 10, 69, 0
15, 19920, Note_on_c, 10, 69, 100
15, 20000, Note_on_c, 10, 69, 0
15, 20100, Note_on_c, 10, 67, 100
15, 20140, Note_on_c, 10, 67, 0
15, 20160, Note_on_c, 10, 66, 100
15, 20220, Note_on_c, 10, 66, 0
15, 20250, Note_on_c, 10, 64, 100
15, 20270, Note_on_c, 10, 64, 0
15, 20280, Note_on_c, 10, 62, 100
15, 20360, Note_on_c, 10, 62, 0
15, 20580, Note_on_c, 10, 62, 100
15, 20600, Note_on_c, 10, 62, 0
15, 20610, Note_on_c, 10, 64, 100
15, 20630, Note_on_c, 10, 64, 0
15, 20640, Note_on_c, 10, 66, 100
15, 20660, Note_on_c, 10, 66, 0
15, 20670, Note_on_c, 10, 67, 100
15, 20690, Note_on_c, 10, 67, 0
15, 20700, Note_on_c, 10, 69, 100
15, 20740, Note_on_c, 10, 69, 0
15, 20760, Note_on_c, 10, 69, 100
15, 20780, Note_on_c, 10, 69, 0
15, 20790, Note_on_c, 10, 67, 100
15, 20810, Note_on_c, 10, 67, 0
15, 20820, Note_on_c, 10, 66, 100
15, 20840, Note_on_c, 10, 66, 0
15, 20850, Note_on_c, 10, 64, 100
15, 20870, Note_on_c, 10, 64, 0
15, 20880, Note_on_c, 10, 66, 100
15, 20940, Note_on_c, 10, 66, 0
15, 20970, Note_on_c, 10, 66, 100
15, 20990, Note_on_c, 10, 66, 0
15, 21000, Note_on_c, 10, 66, 100
15, 21040, Note_on_c, 10, 66, 0
15, 21060, Note_on_c, 10, 66, 100
15, 21100, Note_on_c, 10, 66, 0
15, 21120, Note_on_c, 10, 64, 100
15, 21180, Note_on_c, 10, 64, 0
15, 21210, Note_on_c, 10, 64, 100
15, 21230, Note_on_c, 10, 64, 0
15, 21240, Note_on_c, 10, 66, 100
15, 21320, Note_on_c, 10, 66, 0
15, 21420, Note_on_c, 10, 66, 100
15, 21460, Note_on_c, 10, 66, 0
15, 21480, Note_on_c, 10, 64, 100
15, 21540, Note_on_c, 10, 64, 0
15, 21570, Note_on_c, 10, 64, 100
15, 21590, Note_on_c, 10, 64, 0
15, 21600, Note_on_c, 10, 66, 100
15, 21640, Note_on_c, 10, 66, 0
15, 21660, Note_on_c, 10, 62, 100
15, 21680, Note_on_c, 10, 62, 0
15, 21690, Note_on_c, 10, 64, 100
15, 21710, Note_on_c, 10, 64, 0
15, 21720, Note_on_c, 10, 66, 100
15, 21740, Note_on_c, 10, 66, 0
15, 21750, Note_on_c, 10, 71, 100
15, 21770, Note_on_c, 10, 71, 0
15, 21780, Note_on_c, 10, 69, 100
15, 21800, Note_on_c, 10, 69, 0
15, 21810, Note_on_c, 10, 67, 100
15, 21830, Note_on_c, 10, 67, 0
15, 21840, Note_on_c, 10, 66, 100
15, 21860, Note_on_c, 10, 66, 0
15, 21870, Note_on_c, 10, 67, 100
15, 21890, Note_on_c, 10, 67, 0
15, 21900, Note_on_c, 10, 66, 100
15, 21920, Note_on_c, 10, 66, 0
15, 21930, Note_on_c, 10, 67, 100
15, 21950, Note_on_c, 10, 67, 0
15, 21960, Note_on_c, 10, 66, 100
15, 22020, Note_on_c, 10, 66, 0
15, 22050, Note_on_c, 10, 66, 100
15, 22070, Note_on_c, 10, 66, 0
15, 22080, Note_on_c, 10, 67, 100
15, 22160, Note_on_c, 10, 67, 0
15, 22260, Note_on_c, 10, 66, 100
15, 22300, Note_on_c, 10, 66, 0
15, 22320, Note_on_c, 10, 66, 100
15, 22380, Note_on_c, 10, 66, 0
15, 22410, Note_on_c, 10, 64, 100
15, 22430, Note_on_c, 10, 64, 0
15, 22440, Note_on_c, 10, 62, 100
15, 22520, Note_on_c, 10, 62, 0
15, 22980, Note_on_c, 10, 62, 100
15, 23020, Note_on_c, 10, 62, 0
15, 23040, Note_on_c, 10, 62, 100
15, 23100, Note_on_c, 10, 62, 0
15, 23130, Note_on_c, 10, 60, 100
15, 23150, Note_on_c, 10, 60, 0
15, 23160, Note_on_c, 10, 59, 100
15, 23240, Note_on_c, 10, 59, 0
15, 23700, Note_on_c, 10, 66, 100
15, 23740, Note_on_c, 10, 66, 0
15, 23760, Note_on_c, 10, 64, 100
15, 23820, Note_on_c, 10, 64, 0
15, 23850, Note_on_c, 10, 66, 100
15, 23870, Note_on_c, 10, 66, 0
15, 23880, Note_on_c, 10, 67, 100
15, 23960, Note_on_c, 10, 67, 0
15, 24000, Note_on_c, 10, 67, 100
15, 24160, Note_on_c, 10, 67, 0
15, 24180, Note_on_c, 10, 69, 100
15, 24200, Note_on_c, 10, 69, 0
15, 24210, Note_on_c, 10, 67, 100
15, 24230, Note_on_c, 10, 67, 0
15, 24240, Note_on_c, 10, 66, 100
15, 24320, Note_on_c, 10, 66, 0
15, 24360, Note_on_c, 10, 66, 100
15, 24440, Note_on_c, 10, 66, 0
15, 24540, Note_on_c, 10, 55, 100
15, 24580, Note_on_c, 10, 55, 0
15, 24600, Note_on_c, 10, 59, 100
15, 24640, Note_on_c, 10, 59, 0
15, 24660, Note_on_c, 10, 62, 100
15, 24700, Note_on_c, 10, 62, 0
15, 24720, Note_on_c, 10, 67, 100
15, 24780, Note_on_c, 10, 67, 0
15, 24810, Note_on_c, 10, 67, 100
15, 24830, Note_on_c, 10, 67, 0
15, 24840, Note_on_c, 10, 67, 100
15, 24880, Note_on_c, 10, 67, 0
15, 24900, Note_on_c, 10, 59, 100
15, 24940, Note_on_c, 10, 59, 0
15, 24960, Note_on_c, 10, 64, 100
15, 25000, Note_on_c, 10, 64, 0
15, 25020, Note_on_c, 10, 67, 100
15, 25060, Note_on_c, 10, 67, 0
15, 25080, Note_on_c, 10, 71, 100
15, 25120, Note_on_c, 10, 71, 0
15, 25140, Note_on_c, 10, 64, 100
15, 25160, Note_on_c, 10, 64, 0
15, 25170, Note_on_c, 10, 62, 100
15, 25190, Note_on_c, 10, 62, 0
15, 25200, Note_on_c, 10, 61, 100
15, 25240, Note_on_c, 10, 61, 0
15, 25260, Note_on_c, 10, 59, 100
15, 25280, Note_on_c, 10, 59, 0
15, 25290, Note_on_c, 10, 57, 100
15, 25310, Note_on_c, 10, 57, 0
15, 25320, Note_on_c, 10, 64, 100
15, 25440, Note_on_c, 10, 64, 0
15, 25500, Note_on_c, 10, 62, 100
15, 25520, Note_on_c, 10, 62, 0
15, 25530, Note_on_c, 10, 61, 100
15, 25550, Note_on_c, 10, 61, 0
15, 25560, Note_on_c, 10, 69, 100
15, 25600, Note_on_c, 10, 69, 0
15, 25620, Note_on_c, 10, 62, 100
15, 25660, Note_on_c, 10, 62, 0
15, 25680, Note_on_c, 10, 60, 100
15, 25800, Note_on_c, 10, 60, 0
15, 25860, Note_on_c, 10, 59, 100
15, 25880, Note_on_c, 10, 59, 0
15, 25890, Note_on_c, 10, 60, 100
15, 25910, Note_on_c, 10, 60, 0
15, 25920, Note_on_c, 10, 62, 100
15, 25960, Note_on_c, 10, 62, 0
15, 25980, Note_on_c, 10, 67, 100
15, 26000, Note_on_c, 10, 67, 0
15, 26010, Note_on_c, 10, 66, 100
15, 26030, Note_on_c, 10, 66, 0
15, 26040, Note_on_c, 10, 67, 100
15, 26060, Note_on_c, 10, 67, 0
15, 26070, Note_on_c, 10, 66, 100
15, 26090, Note_on_c, 10, 66, 0
15, 26100, Note_on_c, 10, 64, 100
15, 26120, Note_on_c, 10, 64, 0
15, 26130, Note_on_c, 10, 62, 100
15, 26150, Note_on_c, 10, 62, 0
15, 26160, Note_on_c, 10, 64, 100
15, 26200, Note_on_c, 10, 64, 0
15, 26220, Note_on_c, 10, 66, 100
15, 26240, Note_on_c, 10, 66, 0
15, 26250, Note_on_c, 10, 67, 100
15, 26270, Note_on_c, 10, 67, 0
15, 26280, Note_on_c, 10, 61, 100
15, 26320, Note_on_c, 10, 61, 0
15, 26340, Note_on_c, 10, 57, 100
15, 26380, Note_on_c, 10, 57, 0
15, 26400, Note_on_c, 10, 62, 100
15, 26440, Note_on_c, 10, 62, 0
15, 26460, Note_on_c, 10, 66, 100
15, 26500, Note_on_c, 10, 66, 0
15, 26520, Note_on_c, 10, 64, 100
15, 26560, Note_on_c, 10, 64, 0
15, 26580, Note_on_c, 10, 57, 100
15, 26620, Note_on_c, 10, 57, 0
15, 26640, Note_on_c, 10, 57, 100
15, 26720, Note_on_c, 10, 57, 0
15, 61020, Note_on_c, 10, 66, 90
15, 61079, Note_on_c, 10, 66, 0
15, 61080, Note_on_c, 10, 61, 90
15, 61139, Note_on_c, 10, 61, 0
15, 61140, Note_on_c, 10, 66, 90
15, 61199, Note_on_c, 10, 66, 0
15, 61200, Note_on_c, 10, 61, 90
15, 61259, Note_on_c, 10, 61, 0
15, 61260, Note_on_c, 10, 68, 90
15, 61319, Note_on_c, 10, 68, 0
15, 61320, Note_on_c, 10, 68, 90
15, 61349, Note_on_c, 10, 68, 0
15, 61350, Note_on_c, 10, 66, 90
15, 61379, Note_on_c, 10, 66, 0
15, 61380, Note_on_c, 10, 65, 90
15, 61439, Note_on_c, 10, 65, 0
15, 61440, Note_on_c, 10, 68, 90
15, 61499, Note_on_c, 10, 68, 0
15, 61500, Note_on_c, 10, 61, 90
15, 61559, Note_on_c, 10, 61, 0
15, 61560, Note_on_c, 10, 61, 90
15, 61619, Note_on_c, 10, 61, 0
15, 61980, Note_on_c, 10, 73, 90
15, 62039, Note_on_c, 10, 73, 0
15, 62040, Note_on_c, 10, 73, 90
15, 62099, Note_on_c, 10, 73, 0
15, 62100, Note_on_c, 10, 73, 90
15, 62159, Note_on_c, 10, 73, 0
15, 62160, Note_on_c, 10, 73, 90
15, 62219, Note_on_c, 10, 73, 0
15, 62220, Note_on_c, 10, 73, 90
15, 62279, Note_on_c, 10, 73, 0
15, 62280, Note_on_c, 10, 71, 90
15, 62309, Note_on_c, 10, 71, 0
15, 62310, Note_on_c, 10, 69, 90
15, 62339, Note_on_c, 10, 69, 0
15, 62340, Note_on_c, 10, 68, 90
15, 62399, Note_on_c, 10, 68, 0
15, 62400, Note_on_c, 10, 66, 90
15, 62429, Note_on_c, 10, 66, 0
15, 62430, Note_on_c, 10, 68, 90
15, 62459, Note_on_c, 10, 68, 0
15, 62460, Note_on_c, 10, 69, 90
15, 62519, Note_on_c, 10, 69, 0
15, 62520, Note_on_c, 10, 66, 90
15, 62579, Note_on_c, 10, 66, 0
15, 62940, Note_on_c, 10, 66, 90
15, 62999, Note_on_c, 10, 66, 0
15, 63000, Note_on_c, 10, 66, 90
15, 63059, Note_on_c, 10, 66, 0
15, 63060, Note_on_c, 10, 66, 90
15, 63119, Note_on_c, 10, 66, 0
15, 63120, Note_on_c, 10, 66, 90
15, 63179, Note_on_c, 10, 66, 0
15, 63180, Note_on_c, 10, 66, 90
15, 63239, Note_on_c, 10, 66, 0
15, 63240, Note_on_c, 10, 65, 90
15, 63269, Note_on_c, 10, 65, 0
15, 63270, Note_on_c, 10, 63, 90
15, 63299, Note_on_c, 10, 63, 0
15, 63300, Note_on_c, 10, 61, 90
15, 63359, Note_on_c, 10, 61, 0
15, 63360, Note_on_c, 10, 59, 90
15, 63419, Note_on_c, 10, 59, 0
15, 63420, Note_on_c, 10, 57, 90
15, 63479, Note_on_c, 10, 57, 0
15, 63480, Note_on_c, 10, 59, 90
15, 63509, Note_on_c, 10, 59, 0
15, 63510, Note_on_c, 10, 61, 90
15, 63539, Note_on_c, 10, 61, 0
15, 63540, Note_on_c, 10, 62, 90
15, 63719, Note_on_c, 10, 62, 0
15, 63720, Note_on_c, 10, 56, 90
15, 63749, Note_on_c, 10, 56, 0
15, 63750, Note_on_c, 10, 57, 90
15, 63779, Note_on_c, 10, 57, 0
15, 63780, Note_on_c, 10, 59, 90
15, 63809, Note_on_c, 10, 59, 0
15, 63810, Note_on_c, 10, 64, 90
15, 63839, Note_on_c, 10, 64, 0
15, 63840, Note_on_c, 10, 69, 90
15, 63869, Note_on_c, 10, 69, 0
15, 63870, Note_on_c, 10, 71, 90
15, 63899, Note_on_c, 10, 71, 0
15, 63900, Note_on_c, 10, 73, 90
15, 63959, Note_on_c, 10, 73, 0
15, 63960, Note_on_c, 10, 73, 90
15, 64019, Note_on_c, 10, 73, 0
15, 64020, Note_on_c, 10, 73, 90
15, 64079, Note_on_c, 10, 73, 0
15, 64080, Note_on_c, 10, 73, 90
15, 64139, Note_on_c, 10, 73, 0
15, 64140, Note_on_c, 10, 73, 90
15, 64199, Note_on_c, 10, 73, 0
15, 64200, Note_on_c, 10, 71, 90
15, 64229, Note_on_c, 10, 71, 0
15, 64230, Note_on_c, 10, 69, 90
15, 64259, Note_on_c, 10, 69, 0
15, 64260, Note_on_c, 10, 68, 90
15, 64319, Note_on_c, 10, 68, 0
15, 64320, Note_on_c, 10, 66, 90
15, 64379, Note_on_c, 10, 66, 0
15, 64380, Note_on_c, 10, 64, 90
15, 64439, Note_on_c, 10, 64, 0
15, 64440, Note_on_c, 10, 69, 90
15, 64469, Note_on_c, 10, 69, 0
15, 64470, Note_on_c, 10, 68, 90
15, 64499, Note_on_c, 10, 68, 0
15, 64500, Note_on_c, 10, 69, 90
15, 64679, Note_on_c, 10, 69, 0
15, 64680, Note_on_c, 10, 71, 90
15, 64709, Note_on_c, 10, 71, 0
15, 64710, Note_on_c, 10, 69, 90
15, 64739, Note_on_c, 10, 69, 0
15, 64740, Note_on_c, 10, 68, 90
15, 64799, Note_on_c, 10, 68, 0
15, 64800, Note_on_c, 10, 66, 90
15, 64859, Note_on_c, 10, 66, 0
15, 64860, Note_on_c, 10, 68, 90
15, 64949, Note_on_c, 10, 68, 0
15, 64950, Note_on_c, 10, 66, 90
15, 64979, Note_on_c, 10, 66, 0
15, 64980, Note_on_c, 10, 64, 90
15, 65069, Note_on_c, 10, 64, 0
15, 65070, Note_on_c, 10, 62, 90
15, 65099, Note_on_c, 10, 62, 0
15, 65100, Note_on_c, 10, 61, 90
15, 65160, Note_on_c, 10, 61, 0
15, 65160, Note_on_c, 10, 66, 90
15, 65220, Note_on_c, 10, 66, 0
15, 65220, Note_on_c, 10, 59, 90
15, 65339, Note_on_c, 10, 59, 0
15, 65340, Note_on_c, 10, 61, 90
15, 65459, Note_on_c, 10, 61, 0
15, 66540, Note_on_c, 10, 66, 90
15, 66599, Note_on_c, 10, 66, 0
15, 66600, Note_on_c, 10, 66, 90
15, 66659, Note_on_c, 10, 66, 0
15, 66660, Note_on_c, 10, 66, 90
15, 66719, Note_on_c, 10, 66, 0
15, 66720, Note_on_c, 10, 66, 90
15, 66779, Note_on_c, 10, 66, 0
15, 66780, Note_on_c, 10, 66, 90
15, 66839, Note_on_c, 10, 66, 0
15, 66840, Note_on_c, 10, 64, 90
15, 66869, Note_on_c, 10, 64, 0
15, 66870, Note_on_c, 10, 62, 90
15, 66899, Note_on_c, 10, 62, 0
15, 66900, Note_on_c, 10, 61, 90
15, 66959, Note_on_c, 10, 61, 0
15, 66960, Note_on_c, 10, 59, 90
15, 67019, Note_on_c, 10, 59, 0
15, 67020, Note_on_c, 10, 57, 90
15, 67049, Note_on_c, 10, 57, 0
15, 67050, Note_on_c, 10, 56, 90
15, 67079, Note_on_c, 10, 56, 0
15, 67080, Note_on_c, 10, 54, 90
15, 67109, Note_on_c, 10, 54, 0
15, 67110, Note_on_c, 10, 56, 90
15, 67139, Note_on_c, 10, 56, 0
15, 67140, Note_on_c, 10, 57, 90
15, 67169, Note_on_c, 10, 57, 0
15, 67170, Note_on_c, 10, 56, 90
15, 67199, Note_on_c, 10, 56, 0
15, 67200, Note_on_c, 10, 57, 90
15, 67229, Note_on_c, 10, 57, 0
15, 67230, Note_on_c, 10, 59, 90
15, 67259, Note_on_c, 10, 59, 0
15, 67260, Note_on_c, 10, 61, 90
15, 67289, Note_on_c, 10, 61, 0
15, 67290, Note_on_c, 10, 56, 90
15, 67319, Note_on_c, 10, 56, 0
15, 67320, Note_on_c, 10, 57, 90
15, 67349, Note_on_c, 10, 57, 0
15, 67350, Note_on_c, 10, 59, 90
15, 67379, Note_on_c, 10, 59, 0
15, 67380, Note_on_c, 10, 61, 90
15, 67409, Note_on_c, 10, 61, 0
15, 67410, Note_on_c, 10, 59, 90
15, 67439, Note_on_c, 10, 59, 0
15, 67440, Note_on_c, 10, 61, 90
15, 67469, Note_on_c, 10, 61, 0
15, 67470, Note_on_c, 10, 62, 90
15, 67499, Note_on_c, 10, 62, 0
15, 67500, Note_on_c, 10, 56, 90
15, 67559, Note_on_c, 10, 56, 0
15, 67560, Note_on_c, 10, 56, 90
15, 67619, Note_on_c, 10, 56, 0
15, 67980, Note_on_c, 10, 68, 90
15, 68039, Note_on_c, 10, 68, 0
15, 68040, Note_on_c, 10, 68, 90
15, 68099, Note_on_c, 10, 68, 0
15, 68100, Note_on_c, 10, 68, 90
15, 68159, Note_on_c, 10, 68, 0
15, 68160, Note_on_c, 10, 68, 90
15, 68219, Note_on_c, 10, 68, 0
15, 68220, Note_on_c, 10, 68, 90
15, 68279, Note_on_c, 10, 68, 0
15, 68280, Note_on_c, 10, 66, 90
15, 68309, Note_on_c, 10, 66, 0
15, 68310, Note_on_c, 10, 64, 90
15, 68339, Note_on_c, 10, 64, 0
15, 68340, Note_on_c, 10, 62, 90
15, 68399, Note_on_c, 10, 62, 0
15, 68400, Note_on_c, 10, 61, 90
15, 68459, Note_on_c, 10, 61, 0
15, 68460, Note_on_c, 10, 59, 90
15, 68519, Note_on_c, 10, 59, 0
15, 68520, Note_on_c, 10, 61, 90
15, 68549, Note_on_c, 10, 61, 0
15, 68550, Note_on_c, 10, 62, 90
15, 68579, Note_on_c, 10, 62, 0
15, 68580, Note_on_c, 10, 64, 90
15, 68759, Note_on_c, 10, 64, 0
15, 68760, Note_on_c, 10, 73, 90
15, 68789, Note_on_c, 10, 73, 0
15, 68790, Note_on_c, 10, 71, 90
15, 68819, Note_on_c, 10, 71, 0
15, 68820, Note_on_c, 10, 69, 90
15, 68849, Note_on_c, 10, 69, 0
15, 68850, Note_on_c, 10, 71, 90
15, 68879, Note_on_c, 10, 71, 0
15, 68880, Note_on_c, 10, 69, 90
15, 68909, Note_on_c, 10, 69, 0
15, 68910, Note_on_c, 10, 67, 90
15, 68939, Note_on_c, 10, 67, 0
15, 68940, Note_on_c, 10, 66, 90
15, 68999, Note_on_c, 10, 66, 0
15, 69000, Note_on_c, 10, 59, 90
15, 69029, Note_on_c, 10, 59, 0
15, 69030, Note_on_c, 10, 61, 90
15, 69059, Note_on_c, 10, 61, 0
15, 69060, Note_on_c, 10, 62, 90
15, 69089, Note_on_c, 10, 62, 0
15, 69090, Note_on_c, 10, 59, 90
15, 69119, Note_on_c, 10, 59, 0
15, 69120, Note_on_c, 10, 61, 90
15, 69149, Note_on_c, 10, 61, 0
15, 69150, Note_on_c, 10, 62, 90
15, 69179, Note_on_c, 10, 62, 0
15, 69180, Note_on_c, 10, 64, 90
15, 69330, Note_on_c, 10, 64, 0
15, 69330, Note_on_c, 10, 68, 90
15, 69359, Note_on_c, 10, 68, 0
15, 69360, Note_on_c, 10, 66, 90
15, 69389, Note_on_c, 10, 66, 0
15, 69390, Note_on_c, 10, 64, 90
15, 69419, Note_on_c, 10, 64, 0
15, 69420, Note_on_c, 10, 62, 90
15, 69479, Note_on_c, 10, 62, 0
15, 69480, Note_on_c, 10, 62, 90
15, 69539, Note_on_c, 10, 62, 0
15, 69660, Note_on_c, 10, 68, 90
15, 69719, Note_on_c, 10, 68, 0
15, 69720, Note_on_c, 10, 68, 90
15, 69779, Note_on_c, 10, 68, 0
15, 69780, Note_on_c, 10, 68, 90
15, 69839, Note_on_c, 10, 68, 0
15, 69840, Note_on_c, 10, 68, 90
15, 69899, Note_on_c, 10, 68, 0
15, 69900, Note_on_c, 10, 68, 90
15, 69959, Note_on_c, 10, 68, 0
15, 69960, Note_on_c, 10, 66, 90
15, 69989, Note_on_c, 10, 66, 0
15, 69990, Note_on_c, 10, 64, 90
15, 70019, Note_on_c, 10, 64, 0
15, 70020, Note_on_c, 10, 63, 90
15, 70079, Note_on_c, 10, 63, 0
15, 70080, Note_on_c, 10, 61, 90
15, 70139, Note_on_c, 10, 61, 0
15, 70140, Note_on_c, 10, 61, 90
15, 70199, Note_on_c, 10, 61, 0
15, 70200, Note_on_c, 10, 61, 90
15, 70229, Note_on_c, 10, 61, 0
15, 70230, Note_on_c, 10, 63, 90
15, 70259, Note_on_c, 10, 63, 0
15, 70260, Note_on_c, 10, 64, 90
15, 70439, Note_on_c, 10, 64, 0
15, 70440, Note_on_c, 10, 69, 90
15, 70499, Note_on_c, 10, 69, 0
15, 70500, Note_on_c, 10, 63, 90
15, 70619, Note_on_c, 10, 63, 0
15, 70620, Note_on_c, 10, 65, 90
15, 70739, Note_on_c, 10, 65, 0
15, 70920, Note_on_c, 10, 73, 90
15, 70949, Note_on_c, 10, 73, 0
15, 70950, Note_on_c, 10, 73, 90
15, 70979, Note_on_c, 10, 73, 0
15, 70980, Note_on_c, 10, 73, 90
15, 71039, Note_on_c, 10, 73, 0
15, 71040, Note_on_c, 10, 73, 90
15, 71099, Note_on_c, 10, 73, 0
15, 71100, Note_on_c, 10, 73, 90
15, 71159, Note_on_c, 10, 73, 0
15, 71160, Note_on_c, 10, 71, 90
15, 71189, Note_on_c, 10, 71, 0
15, 71190, Note_on_c, 10, 69, 90
15, 71219, Note_on_c, 10, 69, 0
15, 71220, Note_on_c, 10, 68, 90
15, 71279, Note_on_c, 10, 68, 0
15, 71280, Note_on_c, 10, 66, 90
15, 71339, Note_on_c, 10, 66, 0
15, 71340, Note_on_c, 10, 65, 90
15, 71369, Note_on_c, 10, 65, 0
15, 71370, Note_on_c, 10, 63, 90
15, 71399, Note_on_c, 10, 63, 0
15, 71400, Note_on_c, 10, 61, 90
15, 71429, Note_on_c, 10, 61, 0
15, 71430, Note_on_c, 10, 63, 90
15, 71459, Note_on_c, 10, 63, 0
15, 71460, Note_on_c, 10, 65, 90
15, 71489, Note_on_c, 10, 65, 0
15, 71490, Note_on_c, 10, 66, 90
15, 71519, Note_on_c, 10, 66, 0
15, 71520, Note_on_c, 10, 65, 90
15, 71549, Note_on_c, 10, 65, 0
15, 71550, Note_on_c, 10, 66, 90
15, 71579, Note_on_c, 10, 66, 0
15, 71580, Note_on_c, 10, 68, 90
15, 71609, Note_on_c, 10, 68, 0
15, 71610, Note_on_c, 10, 69, 90
15, 71639, Note_on_c, 10, 69, 0
15, 71640, Note_on_c, 10, 68, 90
15, 71669, Note_on_c, 10, 68, 0
15, 71670, Note_on_c, 10, 69, 90
15, 71699, Note_on_c, 10, 69, 0
15, 71700, Note_on_c, 10, 71, 90
15, 71850, Note_on_c, 10, 71, 0
15, 71850, Note_on_c, 10, 69, 90
15, 71879, Note_on_c, 10, 69, 0
15, 71880, Note_on_c, 10, 71, 90
15, 71909, Note_on_c, 10, 71, 0
15, 71910, Note_on_c, 10, 69, 90
15, 71939, Note_on_c, 10, 69, 0
15, 71940, Note_on_c, 10, 68, 90
15, 71969, Note_on_c, 10, 68, 0
15, 71970, Note_on_c, 10, 66, 90
15, 71999, Note_on_c, 10, 66, 0
15, 72000, Note_on_c, 10, 68, 90
15, 72029, Note_on_c, 10, 68, 0
15, 72030, Note_on_c, 10, 66, 90
15, 72059, Note_on_c, 10, 66, 0
15, 72060, Note_on_c, 10, 65, 90
15, 72179, Note_on_c, 10, 65, 0
15, 72180, Note_on_c, 10, 65, 90
15, 72299, Note_on_c, 10, 65, 0
15, 72300, Note_on_c, 10, 65, 90
15, 72359, Note_on_c, 10, 65, 0
15, 72360, Note_on_c, 10, 65, 90
15, 72419, Note_on_c, 10, 65, 0
15, 72420, Note_on_c, 10, 65, 90
15, 72479, Note_on_c, 10, 65, 0
15, 72480, Note_on_c, 10, 65, 90
15, 72539, Note_on_c, 10, 65, 0
15, 72540, Note_on_c, 10, 65, 90
15, 72599, Note_on_c, 10, 65, 0
15, 72600, Note_on_c, 10, 61, 90
15, 72659, Note_on_c, 10, 61, 0
15, 72660, Note_on_c, 10, 66, 90
15, 72719, Note_on_c, 10, 66, 0
15, 72720, Note_on_c, 10, 62, 90
15, 72779, Note_on_c, 10, 62, 0
15, 72780, Note_on_c, 10, 61, 90
15, 72839, Note_on_c, 10, 61, 0
15, 72840, Note_on_c, 10, 61, 90
15, 72899, Note_on_c, 10, 61, 0
15, 73020, Note_on_c, 10, 66, 90
15, 73049, Note_on_c, 10, 66, 0
15, 73050, Note_on_c, 10, 68, 90
15, 73079, Note_on_c, 10, 68, 0
15, 73080, Note_on_c, 10, 69, 90
15, 73109, Note_on_c, 10, 69, 0
15, 73110, Note_on_c, 10, 68, 90
15, 73139, Note_on_c, 10, 68, 0
15, 73140, Note_on_c, 10, 66, 90
15, 73169, Note_on_c, 10, 66, 0
15, 73170, Note_on_c, 10, 69, 90
15, 73199, Note_on_c, 10, 69, 0
15, 73200, Note_on_c, 10, 68, 90
15, 73229, Note_on_c, 10, 68, 0
15, 73230, Note_on_c, 10, 66, 90
15, 73259, Note_on_c, 10, 66, 0
15, 73260, Note_on_c, 10, 73, 90
15, 73319, Note_on_c, 10, 73, 0
15, 73320, Note_on_c, 10, 61, 90
15, 73379, Note_on_c, 10, 61, 0
15, 73380, Note_on_c, 10, 61, 90
15, 73439, Note_on_c, 10, 61, 0
15, 73440, Note_on_c, 10, 61, 90
15, 73499, Note_on_c, 10, 61, 0
15, 73500, Note_on_c, 10, 61, 90
15, 73590, Note_on_c, 10, 61, 0
15, 73590, Note_on_c, 10, 62, 90
15, 73619, Note_on_c, 10, 62, 0
15, 73620, Note_on_c, 10, 61, 90
15, 73739, Note_on_c, 10, 61, 0
15, 73740, Note_on_c, 10, 61, 90
15, 73979, Note_on_c, 10, 61, 0
15, 92700, Program_c, 10, 71
15, 93780, Note_on_c, 10, 67, 100
15, 93897, Note_on_c, 10, 67, 0
15, 93900, Note_on_c, 10, 66, 100
15, 93957, Note_on_c, 10, 66, 0
15, 93960, Note_on_c, 10, 69, 100
15, 94017, Note_on_c, 10, 69, 0
15, 94020, Note_on_c, 10, 67, 100
15, 94077, Note_on_c, 10, 67, 0
15, 94080, Note_on_c, 10, 66, 100
15, 94137, Note_on_c, 10, 66, 0
15, 94140, Note_on_c, 10, 66, 100
15, 94197, Note_on_c, 10, 66, 0
15, 94200, Note_on_c, 10, 67, 100
15, 94257, Note_on_c, 10, 67, 0
15, 94260, Note_on_c, 10, 69, 100
15, 94317, Note_on_c, 10, 69, 0
15, 94320, Note_on_c, 10, 69, 100
15, 94557, Note_on_c, 10, 69, 0
15, 94560, Note_on_c, 10, 67, 100
15, 94617, Note_on_c, 10, 67, 0
15, 94620, Note_on_c, 10, 66, 100
15, 94677, Note_on_c, 10, 66, 0
15, 94680, Note_on_c, 10, 69, 100
15, 94737, Note_on_c, 10, 69, 0
15, 94740, Note_on_c, 10, 67, 100
15, 94797, Note_on_c, 10, 67, 0
15, 94800, Note_on_c, 10, 66, 100
15, 94857, Note_on_c, 10, 66, 0
15, 94860, Note_on_c, 10, 64, 100
15, 94917, Note_on_c, 10, 64, 0
15, 94920, Note_on_c, 10, 66, 100
15, 94977, Note_on_c, 10, 66, 0
15, 94980, Note_on_c, 10, 68, 100
15, 95037, Note_on_c, 10, 68, 0
15, 95040, Note_on_c, 10, 68, 100
15, 95277, Note_on_c, 10, 68, 0
15, 95280, Note_on_c, 10, 69, 100
15, 95337, Note_on_c, 10, 69, 0
15, 95340, Note_on_c, 10, 64, 100
15, 95397, Note_on_c, 10, 64, 0
15, 95400, Note_on_c, 10, 67, 100
15, 95457, Note_on_c, 10, 67, 0
15, 95460, Note_on_c, 10, 66, 100
15, 95637, Note_on_c, 10, 66, 0
15, 95640, Note_on_c, 10, 64, 100
15, 95697, Note_on_c, 10, 64, 0
15, 95700, Note_on_c, 10, 63, 100
15, 95757, Note_on_c, 10, 63, 0
15, 95760, Note_on_c, 10, 71, 100
15, 96000, Note_on_c, 10, 71, 0
15, 96000, Note_on_c, 10, 69, 100
15, 96057, Note_on_c, 10, 69, 0
15, 96060, Note_on_c, 10, 67, 100
15, 96117, Note_on_c, 10, 67, 0
15, 96120, Note_on_c, 10, 67, 100
15, 96177, Note_on_c, 10, 67, 0
15, 96180, Note_on_c, 10, 66, 100
15, 96237, Note_on_c, 10, 66, 0
15, 96240, Note_on_c, 10, 64, 100
15, 96297, Note_on_c, 10, 64, 0
15, 96300, Note_on_c, 10, 63, 100
15, 96417, Note_on_c, 10, 63, 0
15, 98820, Note_on_c, 10, 66, 100
15, 98937, Note_on_c, 10, 66, 0
15, 98940, Note_on_c, 10, 64, 100
15, 98997, Note_on_c, 10, 64, 0
15, 99000, Note_on_c, 10, 67, 100
15, 99057, Note_on_c, 10, 67, 0
15, 99060, Note_on_c, 10, 66, 100
15, 99117, Note_on_c, 10, 66, 0
15, 99120, Note_on_c, 10, 64, 100
15, 99177, Note_on_c, 10, 64, 0
15, 99180, Note_on_c, 10, 64, 100
15, 99237, Note_on_c, 10, 64, 0
15, 99240, Note_on_c, 10, 66, 100
15, 99297, Note_on_c, 10, 66, 0
15, 99300, Note_on_c, 10, 67, 100
15, 99357, Note_on_c, 10, 67, 0
15, 99360, Note_on_c, 10, 67, 100
15, 99597, Note_on_c, 10, 67, 0
15, 99600, Note_on_c, 10, 66, 100
15, 99657, Note_on_c, 10, 66, 0
15, 99660, Note_on_c, 10, 64, 100
15, 99717, Note_on_c, 10, 64, 0
15, 99720, Note_on_c, 10, 73, 100
15, 99777, Note_on_c, 10, 73, 0
15, 99780, Note_on_c, 10, 66, 100
15, 99837, Note_on_c, 10, 66, 0
15, 99840, Note_on_c, 10, 64, 100
15, 99897, Note_on_c, 10, 64, 0
15, 99900, Note_on_c, 10, 63, 100
15, 99957, Note_on_c, 10, 63, 0
15, 99960, Note_on_c, 10, 64, 100
15, 100017, Note_on_c, 10, 64, 0
15, 100020, Note_on_c, 10, 66, 100
15, 100077, Note_on_c, 10, 66, 0
15, 100080, Note_on_c, 10, 66, 100
15, 100317, Note_on_c, 10, 66, 0
15, 100320, Note_on_c, 10, 64, 100
15, 100377, Note_on_c, 10, 64, 0
15, 100380, Note_on_c, 10, 63, 100
15, 100437, Note_on_c, 10, 63, 0
15, 100440, Note_on_c, 10, 71, 100
15, 100497, Note_on_c, 10, 71, 0
15, 100500, Note_on_c, 10, 64, 100
15, 100557, Note_on_c, 10, 64, 0
15, 100560, Note_on_c, 10, 62, 100
15, 100617, Note_on_c, 10, 62, 0
15, 100620, Note_on_c, 10, 64, 100
15, 100677, Note_on_c, 10, 64, 0
15, 100680, Note_on_c, 10, 62, 100
15, 100737, Note_on_c, 10, 62, 0
15, 100740, Note_on_c, 10, 61, 100
15, 100797, Note_on_c, 10, 61, 0
15, 100800, Note_on_c, 10, 70, 100
15, 100857, Note_on_c, 10, 70, 0
15, 100860, Note_on_c, 10, 71, 100
15, 100917, Note_on_c, 10, 71, 0
15, 100920, Note_on_c, 10, 73, 100
15, 100977, Note_on_c, 10, 73, 0
15, 100980, Note_on_c, 10, 62, 100
15, 101037, Note_on_c, 10, 62, 0
15, 101040, Note_on_c, 10, 67, 100
15, 101097, Note_on_c, 10, 67, 0
15, 101100, Note_on_c, 10, 66, 100
15, 101157, Note_on_c, 10, 66, 0
15, 101160, Note_on_c, 10, 64, 100
15, 101217, Note_on_c, 10, 64, 0
15, 101220, Note_on_c, 10, 62, 100
15, 101277, Note_on_c, 10, 62, 0
15, 101280, Note_on_c, 10, 61, 100
15, 101337, Note_on_c, 10, 61, 0
15, 101340, Note_on_c, 10, 59, 100
15, 101457, Note_on_c, 10, 59, 0
15, 101640, Note_on_c, 10, 69, 100
15, 101697, Note_on_c, 10, 69, 0
15, 101700, Note_on_c, 10, 68, 100
15, 101757, Note_on_c, 10, 68, 0
15, 101760, Note_on_c, 10, 69, 100
15, 101817, Note_on_c, 10, 69, 0
15, 101820, Note_on_c, 10, 71, 100
15, 101937, Note_on_c, 10, 71, 0
15, 101940, Note_on_c, 10, 69, 100
15, 101997, Note_on_c, 10, 69, 0
15, 102000, Note_on_c, 10, 68, 100
15, 102057, Note_on_c, 10, 68, 0
15, 102060, Note_on_c, 10, 69, 100
15, 102117, Note_on_c, 10, 69, 0
15, 102120, Note_on_c, 10, 71, 100
15, 102177, Note_on_c, 10, 71, 0
15, 102180, Note_on_c, 10, 72, 100
15, 102237, Note_on_c, 10, 72, 0
15, 102900, Note_on_c, 10, 67, 100
15, 102957, Note_on_c, 10, 67, 0
15, 102960, Note_on_c, 10, 70, 100
15, 103197, Note_on_c, 10, 70, 0
15, 103200, Note_on_c, 10, 69, 100
15, 103257, Note_on_c, 10, 69, 0
15, 103260, Note_on_c, 10, 67, 100
15, 103377, Note_on_c, 10, 67, 0
15, 103380, Note_on_c, 10, 65, 100
15, 103437, Note_on_c, 10, 65, 0
15, 103440, Note_on_c, 10, 64, 100
15, 103497, Note_on_c, 10, 64, 0
15, 103500, Note_on_c, 10, 65, 100
15, 103557, Note_on_c, 10, 65, 0
15, 103560, Note_on_c, 10, 67, 100
15, 103617, Note_on_c, 10, 67, 0
15, 103620, Note_on_c, 10, 69, 100
15, 103677, Note_on_c, 10, 69, 0
15, 105300, Note_on_c, 10, 64, 100
15, 105417, Note_on_c, 10, 64, 0
15, 105420, Note_on_c, 10, 62, 100
15, 105477, Note_on_c, 10, 62, 0
15, 105480, Note_on_c, 10, 65, 100
15, 105537, Note_on_c, 10, 65, 0
15, 105540, Note_on_c, 10, 64, 100
15, 105597, Note_on_c, 10, 64, 0
15, 105600, Note_on_c, 10, 62, 100
15, 105657, Note_on_c, 10, 62, 0
15, 105660, Note_on_c, 10, 62, 100
15, 105717, Note_on_c, 10, 62, 0
15, 105720, Note_on_c, 10, 64, 100
15, 105777, Note_on_c, 10, 64, 0
15, 105780, Note_on_c, 10, 65, 100
15, 105837, Note_on_c, 10, 65, 0
15, 105840, Note_on_c, 10, 65, 100
15, 106077, Note_on_c, 10, 65, 0
15, 106080, Note_on_c, 10, 64, 100
15, 106137, Note_on_c, 10, 64, 0
15, 106140, Note_on_c, 10, 62, 100
15, 106197, Note_on_c, 10, 62, 0
15, 106200, Note_on_c, 10, 71, 100
15, 106257, Note_on_c, 10, 71, 0
15, 106260, Note_on_c, 10, 64, 100
15, 106317, Note_on_c, 10, 64, 0
15, 106320, Note_on_c, 10, 62, 100
15, 106377, Note_on_c, 10, 62, 0
15, 106380, Note_on_c, 10, 61, 100
15, 106437, Note_on_c, 10, 61, 0
15, 106440, Note_on_c, 10, 62, 100
15, 106497, Note_on_c, 10, 62, 0
15, 106500, Note_on_c, 10, 64, 100
15, 106557, Note_on_c, 10, 64, 0
15, 106560, Note_on_c, 10, 64, 100
15, 106797, Note_on_c, 10, 64, 0
15, 106800, Note_on_c, 10, 62, 100
15, 106857, Note_on_c, 10, 62, 0
15, 106860, Note_on_c, 10, 61, 100
15, 106917, Note_on_c, 10, 61, 0
15, 106920, Note_on_c, 10, 69, 100
15, 106977, Note_on_c, 10, 69, 0
15, 106980, Note_on_c, 10, 62, 100
15, 107037, Note_on_c, 10, 62, 0
15, 107040, Note_on_c, 10, 60, 100
15, 107097, Note_on_c, 10, 60, 0
15, 107100, Note_on_c, 10, 62, 100
15, 107157, Note_on_c, 10, 62, 0
15, 107160, Note_on_c, 10, 60, 100
15, 107217, Note_on_c, 10, 60, 0
15, 107220, Note_on_c, 10, 59, 100
15, 107277, Note_on_c, 10, 59, 0
15, 107280, Note_on_c, 10, 68, 100
15, 107337, Note_on_c, 10, 68, 0
15, 107340, Note_on_c, 10, 69, 100
15, 107397, Note_on_c, 10, 69, 0
15, 107400, Note_on_c, 10, 71, 100
15, 107457, Note_on_c, 10, 71, 0
15, 107460, Note_on_c, 10, 60, 100
15, 107517, Note_on_c, 10, 60, 0
15, 107520, Note_on_c, 10, 65, 100
15, 107577, Note_on_c, 10, 65, 0
15, 107580, Note_on_c, 10, 64, 100
15, 107637, Note_on_c, 10, 64, 0
15, 107640, Note_on_c, 10, 62, 100
15, 107697, Note_on_c, 10, 62, 0
15, 107700, Note_on_c, 10, 60, 100
15, 107757, Note_on_c, 10, 60, 0
15, 107760, Note_on_c, 10, 59, 100
15, 107817, Note_on_c, 10, 59, 0
15, 107820, Note_on_c, 10, 57, 100
15, 107937, Note_on_c, 10, 57, 0
15, 108120, Note_on_c, 10, 64, 100
15, 108177, Note_on_c, 10, 64, 0
15, 108180, Note_on_c, 10, 63, 100
15, 108237, Note_on_c, 10, 63, 0
15, 108240, Note_on_c, 10, 64, 100
15, 108297, Note_on_c, 10, 64, 0
15, 108300, Note_on_c, 10, 66, 100
15, 108417, Note_on_c, 10, 66, 0
15, 108420, Note_on_c, 10, 64, 100
15, 108477, Note_on_c, 10, 64, 0
15, 108480, Note_on_c, 10, 63, 100
15, 108537, Note_on_c, 10, 63, 0
15, 108540, Note_on_c, 10, 64, 100
15, 108597, Note_on_c, 10, 64, 0
15, 108600, Note_on_c, 10, 66, 100
15, 108657, Note_on_c, 10, 66, 0
15, 108660, Note_on_c, 10, 67, 100
15, 108717, Note_on_c, 10, 67, 0
15, 109380, Note_on_c, 10, 66, 100
15, 109437, Note_on_c, 10, 66, 0
15, 109440, Note_on_c, 10, 72, 100
15, 109677, Note_on_c, 10, 72, 0
15, 109680, Note_on_c, 10, 71, 100
15, 109737, Note_on_c, 10, 71, 0
15, 109740, Note_on_c, 10, 69, 100
15, 109857, Note_on_c, 10, 69, 0
15, 109860, Note_on_c, 10, 67, 100
15, 109917, Note_on_c, 10, 67, 0
15, 109920, Note_on_c, 10, 66, 100
15, 109977, Note_on_c, 10, 66, 0
15, 109980, Note_on_c, 10, 67, 100
15, 110037, Note_on_c, 10, 67, 0
15, 110040, Note_on_c, 10, 69, 100
15, 110097, Note_on_c, 10, 69, 0
15, 110100, Note_on_c, 10, 71, 100
15, 110157, Note_on_c, 10, 71, 0
15, 110280, Note_on_c, 10, 72, 100
15, 110337, Note_on_c, 10, 72, 0
15, 110340, Note_on_c, 10, 72, 100
15, 110397, Note_on_c, 10, 72, 0
15, 110400, Note_on_c, 10, 71, 100
15, 110457, Note_on_c, 10, 71, 0
15, 110460, Note_on_c, 10, 69, 100
15, 110577, Note_on_c, 10, 69, 0
15, 110580, Note_on_c, 10, 67, 100
15, 110637, Note_on_c, 10, 67, 0
15, 110640, Note_on_c, 10, 66, 100
15, 110697, Note_on_c, 10, 66, 0
15, 110700, Note_on_c, 10, 66, 100
15, 110877, Note_on_c, 10, 66, 0
15, 111000, Note_on_c, 10, 71, 100
15, 111057, Note_on_c, 10, 71, 0
15, 111060, Note_on_c, 10, 71, 100
15, 111117, Note_on_c, 10, 71, 0
15, 111120, Note_on_c, 10, 69, 100
15, 111177, Note_on_c, 10, 69, 0
15, 111180, Note_on_c, 10, 68, 100
15, 111297, Note_on_c, 10, 68, 0
15, 111300, Note_on_c, 10, 66, 100
15, 111357, Note_on_c, 10, 66, 0
15, 111360, Note_on_c, 10, 64, 100
15, 111657, Note_on_c, 10, 64, 0
15, 111660, Note_on_c, 10, 63, 100
15, 111717, Note_on_c, 10, 63, 0
15, 111720, Note_on_c, 10, 64, 100
15, 111777, Note_on_c, 10, 64, 0
15, 111780, Note_on_c, 10, 63, 100
15, 112017, Note_on_c, 10, 63, 0
15, 112080, Note_on_c, 10, 69, 100
15, 112137, Note_on_c, 10, 69, 0
15, 112140, Note_on_c, 10, 67, 100
15, 112197, Note_on_c, 10, 67, 0
15, 112200, Note_on_c, 10, 66, 100
15, 112257, Note_on_c, 10, 66, 0
15, 112260, Note_on_c, 10, 67, 100
15, 112317, Note_on_c, 10, 67, 0
15, 112320, Note_on_c, 10, 63, 100
15, 112437, Note_on_c, 10, 63, 0
15, 112500, Note_on_c, 10, 64, 100
15, 112617, Note_on_c, 10, 64, 0
15, 112620, Note_on_c, 10, 64, 100
15, 112677, Note_on_c, 10, 64, 0
15, 112680, Note_on_c, 10, 65, 100
15, 112917, Note_on_c, 10, 65, 0
15, 112920, Note_on_c, 10, 64, 100
15, 112977, Note_on_c, 10, 64, 0
15, 112980, Note_on_c, 10, 63, 100
15, 113097, Note_on_c, 10, 63, 0
15, 113100, Note_on_c, 10, 64, 100
15, 113157, Note_on_c, 10, 64, 0
15, 113160, Note_on_c, 10, 66, 100
15, 113277, Note_on_c, 10, 66, 0
15, 113280, Note_on_c, 10, 70, 100
15, 113337, Note_on_c, 10, 70, 0
15, 113340, Note_on_c, 10, 71, 100
15, 113397, Note_on_c, 10, 71, 0
15, 113400, Note_on_c, 10, 64, 100
15, 113457, Note_on_c, 10, 64, 0
15, 113460, Note_on_c, 10, 63, 100
15, 113517, Note_on_c, 10, 63, 0
15, 113520, Note_on_c, 10, 64, 100
15, 113577, Note_on_c, 10, 64, 0
15, 113580, Note_on_c, 10, 64, 100
15, 113697, Note_on_c, 10, 64, 0
15, 117180, Program_c, 10, 52
15, 117180, Control_c, 10, 0, 0
15, 117240, Note_on_c, 10, 59, 100
15, 117280, Note_on_c, 10, 59, 0
15, 117300, Note_on_c, 10, 62, 100
15, 117340, Note_on_c, 10, 62, 0
15, 117360, Note_on_c, 10, 67, 100
15, 117400, Note_on_c, 10, 67, 0
15, 117420, Note_on_c, 10, 67, 100
15, 117480, Note_on_c, 10, 67, 0
15, 117510, Note_on_c, 10, 67, 100
15, 117530, Note_on_c, 10, 67, 0
15, 117540, Note_on_c, 10, 67, 100
15, 117620, Note_on_c, 10, 67, 0
15, 117720, Note_on_c, 10, 67, 100
15, 117760, Note_on_c, 10, 67, 0
15, 117780, Note_on_c, 10, 67, 100
15, 117820, Note_on_c, 10, 67, 0
15, 117840, Note_on_c, 10, 67, 100
15, 117880, Note_on_c, 10, 67, 0
15, 117900, Note_on_c, 10, 67, 100
15, 117960, Note_on_c, 10, 67, 0
15, 117990, Note_on_c, 10, 67, 100
15, 118010, Note_on_c, 10, 67, 0
15, 118020, Note_on_c, 10, 67, 100
15, 118100, Note_on_c, 10, 67, 0
15, 119100, Note_on_c, 10, 62, 100
15, 119140, Note_on_c, 10, 62, 0
15, 119160, Note_on_c, 10, 66, 100
15, 119180, Note_on_c, 10, 66, 0
15, 119190, Note_on_c, 10, 64, 100
15, 119210, Note_on_c, 10, 64, 0
15, 119220, Note_on_c, 10, 62, 100
15, 119260, Note_on_c, 10, 62, 0
15, 119280, Note_on_c, 10, 62, 100
15, 119320, Note_on_c, 10, 62, 0
15, 119340, Note_on_c, 10, 62, 100
15, 119360, Note_on_c, 10, 62, 0
15, 119370, Note_on_c, 10, 57, 100
15, 119390, Note_on_c, 10, 57, 0
15, 119400, Note_on_c, 10, 59, 100
15, 119420, Note_on_c, 10, 59, 0
15, 119430, Note_on_c, 10, 60, 100
15, 119450, Note_on_c, 10, 60, 0
15, 119460, Note_on_c, 10, 62, 100
15, 119480, Note_on_c, 10, 62, 0
15, 119490, Note_on_c, 10, 66, 100
15, 119510, Note_on_c, 10, 66, 0
15, 119520, Note_on_c, 10, 64, 100
15, 119540, Note_on_c, 10, 64, 0
15, 119550, Note_on_c, 10, 62, 100
15, 119570, Note_on_c, 10, 62, 0
15, 119580, Note_on_c, 10, 67, 100
15, 119600, Note_on_c, 10, 67, 0
15, 119610, Note_on_c, 10, 57, 100
15, 119630, Note_on_c, 10, 57, 0
15, 119640, Note_on_c, 10, 59, 100
15, 119660, Note_on_c, 10, 59, 0
15, 119670, Note_on_c, 10, 61, 100
15, 119690, Note_on_c, 10, 61, 0
15, 119700, Note_on_c, 10, 62, 100
15, 119720, Note_on_c, 10, 62, 0
15, 119730, Note_on_c, 10, 66, 100
15, 119750, Note_on_c, 10, 66, 0
15, 119760, Note_on_c, 10, 64, 100
15, 119780, Note_on_c, 10, 64, 0
15, 119790, Note_on_c, 10, 62, 100
15, 119810, Note_on_c, 10, 62, 0
15, 119820, Note_on_c, 10, 69, 100
15, 119840, Note_on_c, 10, 69, 0
15, 119850, Note_on_c, 10, 57, 100
15, 119870, Note_on_c, 10, 57, 0
15, 119880, Note_on_c, 10, 59, 100
15, 119900, Note_on_c, 10, 59, 0
15, 119910, Note_on_c, 10, 61, 100
15, 119930, Note_on_c, 10, 61, 0
15, 119940, Note_on_c, 10, 62, 100
15, 119960, Note_on_c, 10, 62, 0
15, 119970, Note_on_c, 10, 66, 100
15, 119990, Note_on_c, 10, 66, 0
15, 120000, Note_on_c, 10, 64, 100
15, 120020, Note_on_c, 10, 64, 0
15, 120030, Note_on_c, 10, 62, 100
15, 120050, Note_on_c, 10, 62, 0
15, 120060, Note_on_c, 10, 71, 100
15, 120080, Note_on_c, 10, 71, 0
15, 120090, Note_on_c, 10, 74, 100
15, 120110, Note_on_c, 10, 74, 0
15, 120120, Note_on_c, 10, 72, 100
15, 120140, Note_on_c, 10, 72, 0
15, 120150, Note_on_c, 10, 74, 100
15, 120170, Note_on_c, 10, 74, 0
15, 120180, Note_on_c, 10, 71, 100
15, 120200, Note_on_c, 10, 71, 0
15, 120210, Note_on_c, 10, 72, 100
15, 120230, Note_on_c, 10, 72, 0
15, 120240, Note_on_c, 10, 69, 100
15, 120260, Note_on_c, 10, 69, 0
15, 120270, Note_on_c, 10, 71, 100
15, 120290, Note_on_c, 10, 71, 0
15, 120300, Note_on_c, 10, 67, 100
15, 120320, Note_on_c, 10, 67, 0
15, 120330, Note_on_c, 10, 69, 100
15, 120350, Note_on_c, 10, 69, 0
15, 120360, Note_on_c, 10, 66, 100
15, 120380, Note_on_c, 10, 66, 0
15, 120390, Note_on_c, 10, 67, 100
15, 120410, Note_on_c, 10, 67, 0
15, 120420, Note_on_c, 10, 64, 100
15, 120440, Note_on_c, 10, 64, 0
15, 120450, Note_on_c, 10, 69, 100
15, 120470, Note_on_c, 10, 69, 0
15, 120480, Note_on_c, 10, 67, 100
15, 120500, Note_on_c, 10, 67, 0
15, 120510, Note_on_c, 10, 69, 100
15, 120530, Note_on_c, 10, 69, 0
15, 120540, Note_on_c, 10, 66, 100
15, 120580, Note_on_c, 10, 66, 0
15, 120600, Note_on_c, 10, 64, 100
15, 120620, Note_on_c, 10, 64, 0
15, 120630, Note_on_c, 10, 66, 100
15, 120650, Note_on_c, 10, 66, 0
15, 120660, Note_on_c, 10, 62, 100
15, 120700, Note_on_c, 10, 62, 0
15, 120720, Note_on_c, 10, 62, 100
15, 120760, Note_on_c, 10, 62, 0
15, 120780, Note_on_c, 10, 64, 100
15, 120820, Note_on_c, 10, 64, 0
15, 120840, Note_on_c, 10, 60, 100
15, 120860, Note_on_c, 10, 60, 0
15, 120870, Note_on_c, 10, 64, 100
15, 120890, Note_on_c, 10, 64, 0
15, 120900, Note_on_c, 10, 66, 100
15, 120940, Note_on_c, 10, 66, 0
15, 120960, Note_on_c, 10, 62, 100
15, 120980, Note_on_c, 10, 62, 0
15, 120990, Note_on_c, 10, 66, 100
15, 121010, Note_on_c, 10, 66, 0
15, 121020, Note_on_c, 10, 67, 100
15, 121060, Note_on_c, 10, 67, 0
15, 121080, Note_on_c, 10, 62, 100
15, 121100, Note_on_c, 10, 62, 0
15, 121110, Note_on_c, 10, 60, 100
15, 121130, Note_on_c, 10, 60, 0
15, 121140, Note_on_c, 10, 59, 100
15, 121180, Note_on_c, 10, 59, 0
15, 121200, Note_on_c, 10, 62, 100
15, 121240, Note_on_c, 10, 62, 0
15, 121260, Note_on_c, 10, 71, 100
15, 121348, Note_on_c, 10, 71, 0
15, 121350, Note_on_c, 10, 71, 100
15, 121378, Note_on_c, 10, 71, 0
15, 121380, Note_on_c, 10, 71, 100
15, 121498, Note_on_c, 10, 71, 0
15, 121560, Note_on_c, 10, 67, 100
15, 121618, Note_on_c, 10, 67, 0
15, 121620, Note_on_c, 10, 67, 100
15, 121678, Note_on_c, 10, 67, 0
15, 121680, Note_on_c, 10, 67, 100
15, 121738, Note_on_c, 10, 67, 0
15, 121740, Note_on_c, 10, 67, 100
15, 121828, Note_on_c, 10, 67, 0
15, 121830, Note_on_c, 10, 67, 100
15, 121858, Note_on_c, 10, 67, 0
15, 121860, Note_on_c, 10, 67, 100
15, 121978, Note_on_c, 10, 67, 0
15, 122040, Note_on_c, 10, 55, 100
15, 122098, Note_on_c, 10, 55, 0
15, 122100, Note_on_c, 10, 67, 100
15, 122278, Note_on_c, 10, 67, 0
15, 122280, Note_on_c, 10, 69, 100
15, 122308, Note_on_c, 10, 69, 0
15, 122310, Note_on_c, 10, 67, 100
15, 122338, Note_on_c, 10, 67, 0
15, 122340, Note_on_c, 10, 66, 100
15, 122458, Note_on_c, 10, 66, 0
15, 122460, Note_on_c, 10, 67, 100
15, 122518, Note_on_c, 10, 67, 0
15, 122520, Note_on_c, 10, 62, 100
15, 122578, Note_on_c, 10, 62, 0
15, 122580, Note_on_c, 10, 64, 100
15, 122608, Note_on_c, 10, 64, 0
15, 122610, Note_on_c, 10, 66, 100
15, 122638, Note_on_c, 10, 66, 0
15, 122640, Note_on_c, 10, 64, 100
15, 122668, Note_on_c, 10, 64, 0
15, 122670, Note_on_c, 10, 66, 100
15, 122698, Note_on_c, 10, 66, 0
15, 122700, Note_on_c, 10, 67, 100
15, 122728, Note_on_c, 10, 67, 0
15, 122730, Note_on_c, 10, 69, 100
15, 122758, Note_on_c, 10, 69, 0
15, 122760, Note_on_c, 10, 71, 100
15, 122788, Note_on_c, 10, 71, 0
15, 122790, Note_on_c, 10, 67, 100
15, 122818, Note_on_c, 10, 67, 0
15, 122820, Note_on_c, 10, 64, 100
15, 122848, Note_on_c, 10, 64, 0
15, 122850, Note_on_c, 10, 66, 100
15, 122878, Note_on_c, 10, 66, 0
15, 122880, Note_on_c, 10, 67, 100
15, 122908, Note_on_c, 10, 67, 0
15, 122910, Note_on_c, 10, 64, 100
15, 122938, Note_on_c, 10, 64, 0
15, 122940, Note_on_c, 10, 66, 100
15, 122998, Note_on_c, 10, 66, 0
15, 123000, Note_on_c, 10, 66, 100
15, 123028, Note_on_c, 10, 66, 0
15, 123030, Note_on_c, 10, 67, 100
15, 123058, Note_on_c, 10, 67, 0
15, 123060, Note_on_c, 10, 69, 100
15, 123118, Note_on_c, 10, 69, 0
15, 123120, Note_on_c, 10, 74, 100
15, 123178, Note_on_c, 10, 74, 0
15, 123180, Note_on_c, 10, 74, 100
15, 123268, Note_on_c, 10, 74, 0
15, 123270, Note_on_c, 10, 74, 100
15, 123298, Note_on_c, 10, 74, 0
15, 123300, Note_on_c, 10, 74, 100
15, 123418, Note_on_c, 10, 74, 0
15, 123480, Note_on_c, 10, 62, 100
15, 123538, Note_on_c, 10, 62, 0
15, 123540, Note_on_c, 10, 67, 100
15, 123598, Note_on_c, 10, 67, 0
15, 123600, Note_on_c, 10, 71, 100
15, 123658, Note_on_c, 10, 71, 0
15, 123660, Note_on_c, 10, 69, 100
15, 123748, Note_on_c, 10, 69, 0
15, 123750, Note_on_c, 10, 69, 100
15, 123778, Note_on_c, 10, 69, 0
15, 123780, Note_on_c, 10, 69, 100
15, 123838, Note_on_c, 10, 69, 0
15, 123840, Note_on_c, 10, 69, 100
15, 123898, Note_on_c, 10, 69, 0
15, 123900, Note_on_c, 10, 67, 100
15, 123928, Note_on_c, 10, 67, 0
15, 123930, Note_on_c, 10, 71, 100
15, 123958, Note_on_c, 10, 71, 0
15, 123960, Note_on_c, 10, 69, 100
15, 123988, Note_on_c, 10, 69, 0
15, 123990, Note_on_c, 10, 71, 100
15, 124018, Note_on_c, 10, 71, 0
15, 124020, Note_on_c, 10, 67, 100
15, 124048, Note_on_c, 10, 67, 0
15, 124050, Note_on_c, 10, 69, 100
15, 124078, Note_on_c, 10, 69, 0
15, 124080, Note_on_c, 10, 66, 100
15, 124108, Note_on_c, 10, 66, 0
15, 124110, Note_on_c, 10, 67, 100
15, 124138, Note_on_c, 10, 67, 0
15, 124140, Note_on_c, 10, 64, 100
15, 124198, Note_on_c, 10, 64, 0
15, 124200, Note_on_c, 10, 67, 100
15, 124228, Note_on_c, 10, 67, 0
15, 124230, Note_on_c, 10, 64, 100
15, 124258, Note_on_c, 10, 64, 0
15, 124260, Note_on_c, 10, 69, 100
15, 124318, Note_on_c, 10, 69, 0
15, 124320, Note_on_c, 10, 57, 100
15, 124378, Note_on_c, 10, 57, 0
15, 124440, Note_on_c, 10, 62, 100
15, 124498, Note_on_c, 10, 62, 0
15, 124500, Note_on_c, 10, 67, 100
15, 124528, Note_on_c, 10, 67, 0
15, 124530, Note_on_c, 10, 66, 100
15, 124558, Note_on_c, 10, 66, 0
15, 124560, Note_on_c, 10, 67, 100
15, 124588, Note_on_c, 10, 67, 0
15, 124590, Note_on_c, 10, 64, 100
15, 124618, Note_on_c, 10, 64, 0
15, 124620, Note_on_c, 10, 69, 100
15, 124648, Note_on_c, 10, 69, 0
15, 124650, Note_on_c, 10, 67, 100
15, 124678, Note_on_c, 10, 67, 0
15, 124680, Note_on_c, 10, 69, 100
15, 124708, Note_on_c, 10, 69, 0
15, 124710, Note_on_c, 10, 66, 100
15, 124738, Note_on_c, 10, 66, 0
15, 124740, Note_on_c, 10, 71, 100
15, 124768, Note_on_c, 10, 71, 0
15, 124770, Note_on_c, 10, 69, 100
15, 124798, Note_on_c, 10, 69, 0
15, 124800, Note_on_c, 10, 71, 100
15, 124828, Note_on_c, 10, 71, 0
15, 124830, Note_on_c, 10, 68, 100
15, 124858, Note_on_c, 10, 68, 0
15, 124860, Note_on_c, 10, 64, 100
15, 124918, Note_on_c, 10, 64, 0
15, 124920, Note_on_c, 10, 69, 100
15, 124948, Note_on_c, 10, 69, 0
15, 124950, Note_on_c, 10, 68, 100
15, 124978, Note_on_c, 10, 68, 0
15, 124980, Note_on_c, 10, 69, 100
15, 125038, Note_on_c, 10, 69, 0
15, 125040, Note_on_c, 10, 64, 100
15, 125098, Note_on_c, 10, 64, 0
15, 125100, Note_on_c, 10, 64, 100
15, 125188, Note_on_c, 10, 64, 0
15, 125190, Note_on_c, 10, 64, 100
15, 125218, Note_on_c, 10, 64, 0
15, 125220, Note_on_c, 10, 64, 100
15, 125338, Note_on_c, 10, 64, 0
15, 125400, Note_on_c, 10, 66, 100
15, 125458, Note_on_c, 10, 66, 0
15, 125460, Note_on_c, 10, 62, 100
15, 125518, Note_on_c, 10, 62, 0
15, 125520, Note_on_c, 10, 57, 100
15, 125578, Note_on_c, 10, 57, 0
15, 125580, Note_on_c, 10, 61, 100
15, 125668, Note_on_c, 10, 61, 0
15, 125670, Note_on_c, 10, 61, 100
15, 125698, Note_on_c, 10, 61, 0
15, 125700, Note_on_c, 10, 61, 100
15, 125758, Note_on_c, 10, 61, 0
15, 125760, Note_on_c, 10, 69, 100
15, 125818, Note_on_c, 10, 69, 0
15, 125820, Note_on_c, 10, 69, 100
15, 125878, Note_on_c, 10, 69, 0
15, 125880, Note_on_c, 10, 57, 100
15, 125938, Note_on_c, 10, 57, 0
15, 126000, Note_on_c, 10, 69, 100
15, 126058, Note_on_c, 10, 69, 0
15, 126060, Note_on_c, 10, 66, 100
15, 126118, Note_on_c, 10, 66, 0
15, 126120, Note_on_c, 10, 62, 100
15, 126178, Note_on_c, 10, 62, 0
15, 126240, Note_on_c, 10, 68, 100
15, 126298, Note_on_c, 10, 68, 0
15, 126300, Note_on_c, 10, 64, 100
15, 126358, Note_on_c, 10, 64, 0
15, 126360, Note_on_c, 10, 61, 100
15, 126418, Note_on_c, 10, 61, 0
15, 126480, Note_on_c, 10, 69, 100
15, 126538, Note_on_c, 10, 69, 0
15, 126540, Note_on_c, 10, 67, 100
15, 126598, Note_on_c, 10, 67, 0
15, 126600, Note_on_c, 10, 62, 100
15, 126628, Note_on_c, 10, 62, 0
15, 126630, Note_on_c, 10, 66, 100
15, 126658, Note_on_c, 10, 66, 0
15, 126660, Note_on_c, 10, 67, 100
15, 126718, Note_on_c, 10, 67, 0
15, 126720, Note_on_c, 10, 64, 100
15, 126748, Note_on_c, 10, 64, 0
15, 126750, Note_on_c, 10, 69, 100
15, 126778, Note_on_c, 10, 69, 0
15, 126780, Note_on_c, 10, 66, 100
15, 126838, Note_on_c, 10, 66, 0
15, 126840, Note_on_c, 10, 66, 100
15, 126868, Note_on_c, 10, 66, 0
15, 126870, Note_on_c, 10, 67, 100
15, 126898, Note_on_c, 10, 67, 0
15, 126900, Note_on_c, 10, 69, 100
15, 126958, Note_on_c, 10, 69, 0
15, 126960, Note_on_c, 10, 74, 100
15, 127018, Note_on_c, 10, 74, 0
15, 127020, Note_on_c, 10, 62, 100
15, 127108, Note_on_c, 10, 62, 0
15, 127110, Note_on_c, 10, 62, 100
15, 127138, Note_on_c, 10, 62, 0
15, 127140, Note_on_c, 10, 62, 100
15, 127258, Note_on_c, 10, 62, 0
15, 127320, Note_on_c, 10, 62, 100
15, 127378, Note_on_c, 10, 62, 0
15, 127380, Note_on_c, 10, 67, 100
15, 127438, Note_on_c, 10, 67, 0
15, 127440, Note_on_c, 10, 71, 100
15, 127498, Note_on_c, 10, 71, 0
15, 127500, Note_on_c, 10, 69, 100
15, 127588, Note_on_c, 10, 69, 0
15, 127590, Note_on_c, 10, 69, 100
15, 127618, Note_on_c, 10, 69, 0
15, 127620, Note_on_c, 10, 69, 100
15, 127678, Note_on_c, 10, 69, 0
15, 127680, Note_on_c, 10, 69, 100
15, 127738, Note_on_c, 10, 69, 0
15, 127740, Note_on_c, 10, 67, 100
15, 127768, Note_on_c, 10, 67, 0
15, 127770, Note_on_c, 10, 71, 100
15, 127798, Note_on_c, 10, 71, 0
15, 127800, Note_on_c, 10, 69, 100
15, 127828, Note_on_c, 10, 69, 0
15, 127830, Note_on_c, 10, 71, 100
15, 127858, Note_on_c, 10, 71, 0
15, 127860, Note_on_c, 10, 67, 100
15, 127888, Note_on_c, 10, 67, 0
15, 127890, Note_on_c, 10, 69, 100
15, 127918, Note_on_c, 10, 69, 0
15, 127920, Note_on_c, 10, 66, 100
15, 127948, Note_on_c, 10, 66, 0
15, 127950, Note_on_c, 10, 67, 100
15, 127978, Note_on_c, 10, 67, 0
15, 127980, Note_on_c, 10, 64, 100
15, 128038, Note_on_c, 10, 64, 0
15, 128100, Note_on_c, 10, 69, 100
15, 128158, Note_on_c, 10, 69, 0
15, 128160, Note_on_c, 10, 57, 100
15, 128218, Note_on_c, 10, 57, 0
15, 128280, Note_on_c, 10, 62, 100
15, 128338, Note_on_c, 10, 62, 0
15, 128340, Note_on_c, 10, 67, 100
15, 128368, Note_on_c, 10, 67, 0
15, 128370, Note_on_c, 10, 66, 100
15, 128398, Note_on_c, 10, 66, 0
15, 128400, Note_on_c, 10, 67, 100
15, 128428, Note_on_c, 10, 67, 0
15, 128430, Note_on_c, 10, 64, 100
15, 128458, Note_on_c, 10, 64, 0
15, 128460, Note_on_c, 10, 69, 100
15, 128488, Note_on_c, 10, 69, 0
15, 128490, Note_on_c, 10, 67, 100
15, 128518, Note_on_c, 10, 67, 0
15, 128520, Note_on_c, 10, 69, 100
15, 128548, Note_on_c, 10, 69, 0
15, 128550, Note_on_c, 10, 66, 100
15, 128578, Note_on_c, 10, 66, 0
15, 128580, Note_on_c, 10, 71, 100
15, 128608, Note_on_c, 10, 71, 0
15, 128610, Note_on_c, 10, 69, 100
15, 128638, Note_on_c, 10, 69, 0
15, 128640, Note_on_c, 10, 71, 100
15, 128668, Note_on_c, 10, 71, 0
15, 128670, Note_on_c, 10, 68, 100
15, 128698, Note_on_c, 10, 68, 0
15, 128700, Note_on_c, 10, 64, 100
15, 128758, Note_on_c, 10, 64, 0
15, 128760, Note_on_c, 10, 61, 100
15, 128788, Note_on_c, 10, 61, 0
15, 128790, Note_on_c, 10, 64, 100
15, 128818, Note_on_c, 10, 64, 0
15, 128820, Note_on_c, 10, 66, 100
15, 128878, Note_on_c, 10, 66, 0
15, 128880, Note_on_c, 10, 63, 100
15, 128908, Note_on_c, 10, 63, 0
15, 128910, Note_on_c, 10, 66, 100
15, 128938, Note_on_c, 10, 66, 0
15, 128940, Note_on_c, 10, 68, 100
15, 128968, Note_on_c, 10, 68, 0
15, 128970, Note_on_c, 10, 69, 100
15, 128998, Note_on_c, 10, 69, 0
15, 129000, Note_on_c, 10, 71, 100
15, 129028, Note_on_c, 10, 71, 0
15, 129030, Note_on_c, 10, 68, 100
15, 129058, Note_on_c, 10, 68, 0
15, 129060, Note_on_c, 10, 64, 100
15, 129088, Note_on_c, 10, 64, 0
15, 129090, Note_on_c, 10, 66, 100
15, 129118, Note_on_c, 10, 66, 0
15, 129120, Note_on_c, 10, 68, 100
15, 129148, Note_on_c, 10, 68, 0
15, 129150, Note_on_c, 10, 64, 100
15, 129178, Note_on_c, 10, 64, 0
15, 129180, Note_on_c, 10, 66, 100
15, 129238, Note_on_c, 10, 66, 0
15, 129240, Note_on_c, 10, 62, 100
15, 129268, Note_on_c, 10, 62, 0
15, 129270, Note_on_c, 10, 66, 100
15, 129298, Note_on_c, 10, 66, 0
15, 129300, Note_on_c, 10, 67, 100
15, 129358, Note_on_c, 10, 67, 0
15, 129360, Note_on_c, 10, 64, 100
15, 129388, Note_on_c, 10, 64, 0
15, 129390, Note_on_c, 10, 67, 100
15, 129418, Note_on_c, 10, 67, 0
15, 129420, Note_on_c, 10, 61, 100
15, 129478, Note_on_c, 10, 61, 0
15, 129480, Note_on_c, 10, 61, 100
15, 129508, Note_on_c, 10, 61, 0
15, 129510, Note_on_c, 10, 69, 100
15, 129538, Note_on_c, 10, 69, 0
15, 129540, Note_on_c, 10, 66, 100
15, 129598, Note_on_c, 10, 66, 0
15, 129600, Note_on_c, 10, 62, 100
15, 129628, Note_on_c, 10, 62, 0
15, 129630, Note_on_c, 10, 66, 100
15, 129658, Note_on_c, 10, 66, 0
15, 129660, Note_on_c, 10, 67, 100
15, 129718, Note_on_c, 10, 67, 0
15, 129720, Note_on_c, 10, 67, 100
15, 129778, Note_on_c, 10, 67, 0
15, 130080, Note_on_c, 10, 67, 100
15, 130138, Note_on_c, 10, 67, 0
15, 130140, Note_on_c, 10, 64, 100
15, 130198, Note_on_c, 10, 64, 0
15, 130200, Note_on_c, 10, 61, 100
15, 130258, Note_on_c, 10, 61, 0
15, 130350, Note_on_c, 10, 64, 100
15, 130378, Note_on_c, 10, 64, 0
15, 130380, Note_on_c, 10, 71, 100
15, 130438, Note_on_c, 10, 71, 0
15, 130440, Note_on_c, 10, 71, 100
15, 130498, Note_on_c, 10, 71, 0
15, 130740, Note_on_c, 10, 66, 100
15, 130978, Note_on_c, 10, 66, 0
15, 130980, Note_on_c, 10, 66, 100
15, 131098, Note_on_c, 10, 66, 0
15, 131100, Note_on_c, 10, 66, 100
15, 131338, Note_on_c, 10, 66, 0
15, 131340, Note_on_c, 10, 65, 100
15, 131578, Note_on_c, 10, 65, 0
15, 131580, Note_on_c, 10, 66, 100
15, 132058, Note_on_c, 10, 66, 0
15, 132060, Note_on_c, 10, 66, 100
15, 132178, Note_on_c, 10, 66, 0
15, 132180, Note_on_c, 10, 59, 100
15, 132418, Note_on_c, 10, 59, 0
15, 132420, Note_on_c, 10, 71, 100
15, 132538, Note_on_c, 10, 71, 0
15, 132540, Note_on_c, 10, 69, 100
15, 132778, Note_on_c, 10, 69, 0
15, 132780, Note_on_c, 10, 71, 100
15, 133018, Note_on_c, 10, 71, 0
15, 133020, Note_on_c, 10, 69, 100
15, 133498, Note_on_c, 10, 69, 0
15, 133500, Note_on_c, 10, 69, 100
15, 133978, Note_on_c, 10, 69, 0
15, 162600, Program_c, 10, 71
15, 162660, Note_on_c, 10, 64, 100
15, 162690, Note_on_c, 10, 64, 0
15, 162690, Note_on_c, 10, 66, 100
15, 162720, Note_on_c, 10, 66, 0
15, 162720, Note_on_c, 10, 68, 100
15, 162810, Note_on_c, 10, 68, 0
15, 162810, Note_on_c, 10, 69, 100
15, 162840, Note_on_c, 10, 69, 0
15, 162840, Note_on_c, 10, 66, 100
15, 162900, Note_on_c, 10, 66, 0
15, 162900, Note_on_c, 10, 68, 100
15, 162930, Note_on_c, 10, 68, 0
15, 162930, Note_on_c, 10, 66, 100
15, 162960, Note_on_c, 10, 66, 0
15, 162960, Note_on_c, 10, 64, 100
15, 163020, Note_on_c, 10, 64, 0
15, 163080, Note_on_c, 10, 63, 100
15, 163140, Note_on_c, 10, 63, 0
15, 163140, Note_on_c, 10, 64, 100
15, 163170, Note_on_c, 10, 64, 0
15, 163170, Note_on_c, 10, 66, 100
15, 163200, Note_on_c, 10, 66, 0
15, 163200, Note_on_c, 10, 68, 100
15, 163230, Note_on_c, 10, 68, 0
15, 163230, Note_on_c, 10, 69, 100
15, 163260, Note_on_c, 10, 69, 0
15, 163260, Note_on_c, 10, 71, 100
15, 163290, Note_on_c, 10, 71, 0
15, 163290, Note_on_c, 10, 74, 100
15, 163320, Note_on_c, 10, 74, 0
15, 163320, Note_on_c, 10, 73, 100
15, 163380, Note_on_c, 10, 73, 0
15, 163380, Note_on_c, 10, 71, 100
15, 163387, Note_on_c, 10, 71, 0
15, 163387, Note_on_c, 10, 73, 100
15, 163394, Note_on_c, 10, 73, 0
15, 163395, Note_on_c, 10, 71, 100
15, 163402, Note_on_c, 10, 71, 0
15, 163402, Note_on_c, 10, 73, 100
15, 163409, Note_on_c, 10, 73, 0
15, 163410, Note_on_c, 10, 71, 100
15, 163420, Note_on_c, 10, 71, 0
15, 163420, Note_on_c, 10, 73, 100
15, 163430, Note_on_c, 10, 73, 0
15, 163430, Note_on_c, 10, 71, 100
15, 163440, Note_on_c, 10, 71, 0
15, 163440, Note_on_c, 10, 69, 100
15, 163500, Note_on_c, 10, 69, 0
15, 163620, Note_on_c, 10, 66, 100
15, 163650, Note_on_c, 10, 66, 0
15, 163650, Note_on_c, 10, 68, 100
15, 163680, Note_on_c, 10, 68, 0
15, 163680, Note_on_c, 10, 69, 100
15, 163770, Note_on_c, 10, 69, 0
15, 163770, Note_on_c, 10, 71, 100
15, 163800, Note_on_c, 10, 71, 0
15, 163800, Note_on_c, 10, 68, 100
15, 163860, Note_on_c, 10, 68, 0
15, 163860, Note_on_c, 10, 69, 100
15, 163890, Note_on_c, 10, 69, 0
15, 163890, Note_on_c, 10, 68, 100
15, 163920, Note_on_c, 10, 68, 0
15, 163920, Note_on_c, 10, 66, 100
15, 163980, Note_on_c, 10, 66, 0
15, 164040, Note_on_c, 10, 65, 100
15, 164100, Note_on_c, 10, 65, 0
15, 164100, Note_on_c, 10, 66, 100
15, 164130, Note_on_c, 10, 66, 0
15, 164130, Note_on_c, 10, 68, 100
15, 164160, Note_on_c, 10, 68, 0
15, 164160, Note_on_c, 10, 69, 100
15, 164190, Note_on_c, 10, 69, 0
15, 164190, Note_on_c, 10, 71, 100
15, 164220, Note_on_c, 10, 71, 0
15, 164220, Note_on_c, 10, 73, 100
15, 164250, Note_on_c, 10, 73, 0
15, 164250, Note_on_c, 10, 69, 100
15, 164280, Note_on_c, 10, 69, 0
15, 164280, Note_on_c, 10, 71, 100
15, 164340, Note_on_c, 10, 71, 0
15, 164340, Note_on_c, 10, 69, 100
15, 164400, Note_on_c, 10, 69, 0
15, 164400, Note_on_c, 10, 68, 100
15, 164460, Note_on_c, 10, 68, 0
15, 164520, Note_on_c, 10, 71, 100
15, 164580, Note_on_c, 10, 71, 0
15, 164580, Note_on_c, 10, 71, 100
15, 164610, Note_on_c, 10, 71, 0
15, 164610, Note_on_c, 10, 73, 100
15, 164640, Note_on_c, 10, 73, 0
15, 164640, Note_on_c, 10, 71, 100
15, 164670, Note_on_c, 10, 71, 0
15, 164670, Note_on_c, 10, 69, 100
15, 164700, Note_on_c, 10, 69, 0
15, 164700, Note_on_c, 10, 68, 100
15, 164730, Note_on_c, 10, 68, 0
15, 164730, Note_on_c, 10, 66, 100
15, 164760, Note_on_c, 10, 66, 0
15, 164760, Note_on_c, 10, 64, 100
15, 164790, Note_on_c, 10, 64, 0
15, 164790, Note_on_c, 10, 62, 100
15, 164820, Note_on_c, 10, 62, 0
15, 164820, Note_on_c, 10, 61, 100
15, 164880, Note_on_c, 10, 61, 0
15, 164880, Note_on_c, 10, 57, 100
15, 164940, Note_on_c, 10, 57, 0
15, 165000, Note_on_c, 10, 73, 100
15, 165060, Note_on_c, 10, 73, 0
15, 165060, Note_on_c, 10, 73, 100
15, 165090, Note_on_c, 10, 73, 0
15, 165090, Note_on_c, 10, 74, 100
15, 165120, Note_on_c, 10, 74, 0
15, 165120, Note_on_c, 10, 73, 100
15, 165150, Note_on_c, 10, 73, 0
15, 165150, Note_on_c, 10, 71, 100
15, 165180, Note_on_c, 10, 71, 0
15, 165180, Note_on_c, 10, 69, 100
15, 165210, Note_on_c, 10, 69, 0
15, 165210, Note_on_c, 10, 68, 100
15, 165240, Note_on_c, 10, 68, 0
15, 165240, Note_on_c, 10, 66, 100
15, 165270, Note_on_c, 10, 66, 0
15, 165270, Note_on_c, 10, 64, 100
15, 165300, Note_on_c, 10, 64, 0
15, 165300, Note_on_c, 10, 63, 100
15, 165360, Note_on_c, 10, 63, 0
15, 165360, Note_on_c, 10, 59, 100
15, 165420, Note_on_c, 10, 59, 0
15, 165480, Note_on_c, 10, 66, 100
15, 165540, Note_on_c, 10, 66, 0
15, 165540, Note_on_c, 10, 68, 100
15, 165600, Note_on_c, 10, 68, 0
15, 165600, Note_on_c, 10, 70, 100
15, 165660, Note_on_c, 10, 70, 0
15, 165720, Note_on_c, 10, 71, 100
15, 165780, Note_on_c, 10, 71, 0
15, 165780, Note_on_c, 10, 65, 100
15, 165840, Note_on_c, 10, 65, 0
15, 165840, Note_on_c, 10, 66, 100
15, 165900, Note_on_c, 10, 66, 0
15, 165960, Note_on_c, 10, 66, 100
15, 166020, Note_on_c, 10, 66, 0
15, 166020, Note_on_c, 10, 63, 100
15, 166050, Note_on_c, 10, 63, 0
15, 166050, Note_on_c, 10, 61, 100
15, 166080, Note_on_c, 10, 61, 0
15, 166080, Note_on_c, 10, 59, 100
15, 166110, Note_on_c, 10, 59, 0
15, 166110, Note_on_c, 10, 61, 100
15, 166140, Note_on_c, 10, 61, 0
15, 166140, Note_on_c, 10, 63, 100
15, 166170, Note_on_c, 10, 63, 0
15, 166170, Note_on_c, 10, 64, 100
15, 166200, Note_on_c, 10, 64, 0
15, 166200, Note_on_c, 10, 66, 100
15, 166230, Note_on_c, 10, 66, 0
15, 166230, Note_on_c, 10, 68, 100
15, 166260, Note_on_c, 10, 68, 0
15, 166260, Note_on_c, 10, 64, 100
15, 166290, Note_on_c, 10, 64, 0
15, 166290, Note_on_c, 10, 63, 100
15, 166320, Note_on_c, 10, 63, 0
15, 166320, Note_on_c, 10, 61, 100
15, 166350, Note_on_c, 10, 61, 0
15, 166350, Note_on_c, 10, 63, 100
15, 166380, Note_on_c, 10, 63, 0
15, 166380, Note_on_c, 10, 64, 100
15, 166410, Note_on_c, 10, 64, 0
15, 166410, Note_on_c, 10, 66, 100
15, 166440, Note_on_c, 10, 66, 0
15, 166440, Note_on_c, 10, 68, 100
15, 166470, Note_on_c, 10, 68, 0
15, 166470, Note_on_c, 10, 70, 100
15, 166500, Note_on_c, 10, 70, 0
15, 166500, Note_on_c, 10, 66, 100
15, 166530, Note_on_c, 10, 66, 0
15, 166530, Note_on_c, 10, 71, 100
15, 166560, Note_on_c, 10, 71, 0
15, 166560, Note_on_c, 10, 70, 100
15, 166590, Note_on_c, 10, 70, 0
15, 166590, Note_on_c, 10, 68, 100
15, 166620, Note_on_c, 10, 68, 0
15, 166620, Note_on_c, 10, 66, 100
15, 166650, Note_on_c, 10, 66, 0
15, 166650, Note_on_c, 10, 64, 100
15, 166680, Note_on_c, 10, 64, 0
15, 166680, Note_on_c, 10, 63, 100
15, 166710, Note_on_c, 10, 63, 0
15, 166710, Note_on_c, 10, 61, 100
15, 166740, Note_on_c, 10, 61, 0
15, 166740, Note_on_c, 10, 59, 100
15, 166770, Note_on_c, 10, 59, 0
15, 166770, Note_on_c, 10, 58, 100
15, 166800, Note_on_c, 10, 58, 0
15, 166800, Note_on_c, 10, 59, 100
15, 166830, Note_on_c, 10, 59, 0
15, 166830, Note_on_c, 10, 68, 100
15, 166860, Note_on_c, 10, 68, 0
15, 166860, Note_on_c, 10, 61, 100
15, 166867, Note_on_c, 10, 61, 0
15, 166867, Note_on_c, 10, 63, 100
15, 166874, Note_on_c, 10, 63, 0
15, 166875, Note_on_c, 10, 61, 100
15, 166882, Note_on_c, 10, 61, 0
15, 166882, Note_on_c, 10, 63, 100
15, 166889, Note_on_c, 10, 63, 0
15, 166890, Note_on_c, 10, 61, 100
15, 166897, Note_on_c, 10, 61, 0
15, 166897, Note_on_c, 10, 63, 100
15, 166904, Note_on_c, 10, 63, 0
15, 166905, Note_on_c, 10, 61, 100
15, 166912, Note_on_c, 10, 61, 0
15, 166912, Note_on_c, 10, 63, 100
15, 166919, Note_on_c, 10, 63, 0
15, 166920, Note_on_c, 10, 61, 100
15, 166930, Note_on_c, 10, 61, 0
15, 166930, Note_on_c, 10, 63, 100
15, 166940, Note_on_c, 10, 63, 0
15, 166940, Note_on_c, 10, 61, 100
15, 166950, Note_on_c, 10, 61, 0
15, 166950, Note_on_c, 10, 63, 100
15, 166965, Note_on_c, 10, 63, 0
15, 166965, Note_on_c, 10, 61, 100
15, 166980, Note_on_c, 10, 61, 0
15, 166980, Note_on_c, 10, 59, 100
15, 167100, Note_on_c, 10, 59, 0
15, 168900, Note_on_c, 10, 63, 100
15, 168930, Note_on_c, 10, 63, 0
15, 168930, Note_on_c, 10, 64, 100
15, 168960, Note_on_c, 10, 64, 0
15, 168960, Note_on_c, 10, 66, 100
15, 169050, Note_on_c, 10, 66, 0
15, 169050, Note_on_c, 10, 69, 100
15, 169080, Note_on_c, 10, 69, 0
15, 169080, Note_on_c, 10, 68, 100
15, 169140, Note_on_c, 10, 68, 0
15, 169140, Note_on_c, 10, 69, 100
15, 169170, Note_on_c, 10, 69, 0
15, 169170, Note_on_c, 10, 68, 100
15, 169200, Note_on_c, 10, 68, 0
15, 169200, Note_on_c, 10, 66, 100
15, 169290, Note_on_c, 10, 66, 0
15, 169320, Note_on_c, 10, 66, 100
15, 169380, Note_on_c, 10, 66, 0
15, 169380, Note_on_c, 10, 64, 100
15, 169410, Note_on_c, 10, 64, 0
15, 169410, Note_on_c, 10, 66, 100
15, 169440, Note_on_c, 10, 66, 0
15, 169440, Note_on_c, 10, 68, 100
15, 169470, Note_on_c, 10, 68, 0
15, 169470, Note_on_c, 10, 69, 100
15, 169500, Note_on_c, 10, 69, 0
15, 169500, Note_on_c, 10, 71, 100
15, 169515, Note_on_c, 10, 71, 0
15, 169515, Note_on_c, 10, 73, 100
15, 169530, Note_on_c, 10, 73, 0
15, 169530, Note_on_c, 10, 74, 100
15, 169560, Note_on_c, 10, 74, 0
15, 169560, Note_on_c, 10, 73, 100
15, 169590, Note_on_c, 10, 73, 0
15, 169590, Note_on_c, 10, 71, 100
15, 169620, Note_on_c, 10, 71, 0
15, 169620, Note_on_c, 10, 71, 100
15, 169627, Note_on_c, 10, 71, 0
15, 169627, Note_on_c, 10, 73, 100
15, 169634, Note_on_c, 10, 73, 0
15, 169635, Note_on_c, 10, 71, 100
15, 169642, Note_on_c, 10, 71, 0
15, 169642, Note_on_c, 10, 73, 100
15, 169649, Note_on_c, 10, 73, 0
15, 169650, Note_on_c, 10, 71, 100
15, 169660, Note_on_c, 10, 71, 0
15, 169660, Note_on_c, 10, 73, 100
15, 169670, Note_on_c, 10, 73, 0
15, 169670, Note_on_c, 10, 71, 100
15, 169680, Note_on_c, 10, 71, 0
15, 169680, Note_on_c, 10, 69, 100
15, 169740, Note_on_c, 10, 69, 0
15, 169860, Note_on_c, 10, 73, 100
15, 169890, Note_on_c, 10, 73, 0
15, 169890, Note_on_c, 10, 71, 100
15, 169920, Note_on_c, 10, 71, 0
15, 169920, Note_on_c, 10, 69, 100
15, 170010, Note_on_c, 10, 69, 0
15, 170010, Note_on_c, 10, 68, 100
15, 170040, Note_on_c, 10, 68, 0
15, 170040, Note_on_c, 10, 66, 100
15, 170100, Note_on_c, 10, 66, 0
15, 170100, Note_on_c, 10, 64, 100
15, 170130, Note_on_c, 10, 64, 0
15, 170130, Note_on_c, 10, 63, 100
15, 170160, Note_on_c, 10, 63, 0
15, 170160, Note_on_c, 10, 63, 100
15, 170220, Note_on_c, 10, 63, 0
15, 170280, Note_on_c, 10, 59, 100
15, 170340, Note_on_c, 10, 59, 0
15, 170340, Note_on_c, 10, 71, 100
15, 170370, Note_on_c, 10, 71, 0
15, 170370, Note_on_c, 10, 69, 100
15, 170400, Note_on_c, 10, 69, 0
15, 170400, Note_on_c, 10, 68, 100
15, 170490, Note_on_c, 10, 68, 0
15, 170490, Note_on_c, 10, 66, 100
15, 170520, Note_on_c, 10, 66, 0
15, 170520, Note_on_c, 10, 64, 100
15, 170580, Note_on_c, 10, 64, 0
15, 170580, Note_on_c, 10, 64, 100
15, 170610, Note_on_c, 10, 64, 0
15, 170610, Note_on_c, 10, 63, 100
15, 170640, Note_on_c, 10, 63, 0
15, 170640, Note_on_c, 10, 61, 100
15, 170670, Note_on_c, 10, 61, 0
15, 170670, Note_on_c, 10, 63, 100
15, 170700, Note_on_c, 10, 63, 0
15, 170700, Note_on_c, 10, 64, 100
15, 170730, Note_on_c, 10, 64, 0
15, 170730, Note_on_c, 10, 66, 100
15, 170760, Note_on_c, 10, 66, 0
15, 170760, Note_on_c, 10, 68, 100
15, 170790, Note_on_c, 10, 68, 0
15, 170790, Note_on_c, 10, 64, 100
15, 170820, Note_on_c, 10, 64, 0
15, 170820, Note_on_c, 10, 69, 100
15, 170850, Note_on_c, 10, 69, 0
15, 170850, Note_on_c, 10, 71, 100
15, 170880, Note_on_c, 10, 71, 0
15, 170880, Note_on_c, 10, 69, 100
15, 170910, Note_on_c, 10, 69, 0
15, 170910, Note_on_c, 10, 68, 100
15, 170940, Note_on_c, 10, 68, 0
15, 170940, Note_on_c, 10, 66, 100
15, 170970, Note_on_c, 10, 66, 0
15, 170970, Note_on_c, 10, 64, 100
15, 171000, Note_on_c, 10, 64, 0
15, 171000, Note_on_c, 10, 63, 100
15, 171030, Note_on_c, 10, 63, 0
15, 171030, Note_on_c, 10, 61, 100
15, 171060, Note_on_c, 10, 61, 0
15, 171060, Note_on_c, 10, 59, 100
15, 171090, Note_on_c, 10, 59, 0
15, 171090, Note_on_c, 10, 63, 100
15, 171120, Note_on_c, 10, 63, 0
15, 171120, Note_on_c, 10, 61, 100
15, 171150, Note_on_c, 10, 61, 0
15, 171150, Note_on_c, 10, 59, 100
15, 171180, Note_on_c, 10, 59, 0
15, 171180, Note_on_c, 10, 66, 100
15, 171210, Note_on_c, 10, 66, 0
15, 171210, Note_on_c, 10, 63, 100
15, 171240, Note_on_c, 10, 63, 0
15, 171240, Note_on_c, 10, 61, 100
15, 171270, Note_on_c, 10, 61, 0
15, 171270, Note_on_c, 10, 59, 100
15, 171300, Note_on_c, 10, 59, 0
15, 171300, Note_on_c, 10, 68, 100
15, 171330, Note_on_c, 10, 68, 0
15, 171330, Note_on_c, 10, 64, 100
15, 171360, Note_on_c, 10, 64, 0
15, 171360, Note_on_c, 10, 63, 100
15, 171390, Note_on_c, 10, 63, 0
15, 171390, Note_on_c, 10, 61, 100
15, 171420, Note_on_c, 10, 61, 0
15, 171420, Note_on_c, 10, 69, 100
15, 171450, Note_on_c, 10, 69, 0
15, 171450, Note_on_c, 10, 64, 100
15, 171480, Note_on_c, 10, 64, 0
15, 171480, Note_on_c, 10, 63, 100
15, 171510, Note_on_c, 10, 63, 0
15, 171510, Note_on_c, 10, 61, 100
15, 171540, Note_on_c, 10, 61, 0
15, 171540, Note_on_c, 10, 71, 100
15, 171600, Note_on_c, 10, 71, 0
15, 171600, Note_on_c, 10, 64, 100
15, 171660, Note_on_c, 10, 64, 0
15, 171720, Note_on_c, 10, 59, 100
15, 171780, Note_on_c, 10, 59, 0
15, 171780, Note_on_c, 10, 71, 100
15, 172050, Note_on_c, 10, 71, 0
15, 172050, Note_on_c, 10, 73, 100
15, 172080, Note_on_c, 10, 73, 0
15, 172080, Note_on_c, 10, 71, 100
15, 172110, Note_on_c, 10, 71, 0
15, 172110, Note_on_c, 10, 68, 100
15, 172140, Note_on_c, 10, 68, 0
15, 172140, Note_on_c, 10, 69, 100
15, 172170, Note_on_c, 10, 69, 0
15, 172170, Note_on_c, 10, 71, 100
15, 172200, Note_on_c, 10, 71, 0
15, 172200, Note_on_c, 10, 69, 100
15, 172230, Note_on_c, 10, 69, 0
15, 172230, Note_on_c, 10, 66, 100
15, 172260, Note_on_c, 10, 66, 0
15, 172260, Note_on_c, 10, 68, 100
15, 172290, Note_on_c, 10, 68, 0
15, 172290, Note_on_c, 10, 64, 100
15, 172320, Note_on_c, 10, 64, 0
15, 172320, Note_on_c, 10, 63, 100
15, 172350, Note_on_c, 10, 63, 0
15, 172350, Note_on_c, 10, 61, 100
15, 172380, Note_on_c, 10, 61, 0
15, 172380, Note_on_c, 10, 63, 100
15, 172410, Note_on_c, 10, 63, 0
15, 172410, Note_on_c, 10, 64, 100
15, 172440, Note_on_c, 10, 64, 0
15, 172440, Note_on_c, 10, 66, 100
15, 172470, Note_on_c, 10, 66, 0
15, 172470, Note_on_c, 10, 68, 100
15, 172500, Note_on_c, 10, 68, 0
15, 172500, Note_on_c, 10, 69, 100
15, 172530, Note_on_c, 10, 69, 0
15, 172530, Note_on_c, 10, 71, 100
15, 172560, Note_on_c, 10, 71, 0
15, 172560, Note_on_c, 10, 69, 100
15, 172590, Note_on_c, 10, 69, 0
15, 172590, Note_on_c, 10, 66, 100
15, 172620, Note_on_c, 10, 66, 0
15, 172620, Note_on_c, 10, 68, 100
15, 172650, Note_on_c, 10, 68, 0
15, 172650, Note_on_c, 10, 69, 100
15, 172680, Note_on_c, 10, 69, 0
15, 172680, Note_on_c, 10, 68, 100
15, 172710, Note_on_c, 10, 68, 0
15, 172710, Note_on_c, 10, 64, 100
15, 172740, Note_on_c, 10, 64, 0
15, 172740, Note_on_c, 10, 66, 100
15, 172770, Note_on_c, 10, 66, 0
15, 172770, Note_on_c, 10, 63, 100
15, 172800, Note_on_c, 10, 63, 0
15, 172800, Note_on_c, 10, 61, 100
15, 172830, Note_on_c, 10, 61, 0
15, 172830, Note_on_c, 10, 59, 100
15, 172860, Note_on_c, 10, 59, 0
15, 172860, Note_on_c, 10, 61, 100
15, 172890, Note_on_c, 10, 61, 0
15, 172890, Note_on_c, 10, 63, 100
15, 172920, Note_on_c, 10, 63, 0
15, 172920, Note_on_c, 10, 64, 100
15, 172950, Note_on_c, 10, 64, 0
15, 172950, Note_on_c, 10, 66, 100
15, 172980, Note_on_c, 10, 66, 0
15, 172980, Note_on_c, 10, 68, 100
15, 173010, Note_on_c, 10, 68, 0
15, 173010, Note_on_c, 10, 69, 100
15, 173040, Note_on_c, 10, 69, 0
15, 173040, Note_on_c, 10, 68, 100
15, 173070, Note_on_c, 10, 68, 0
15, 173070, Note_on_c, 10, 64, 100
15, 173100, Note_on_c, 10, 64, 0
15, 173100, Note_on_c, 10, 66, 100
15, 173130, Note_on_c, 10, 66, 0
15, 173130, Note_on_c, 10, 68, 100
15, 173160, Note_on_c, 10, 68, 0
15, 173160, Note_on_c, 10, 66, 100
15, 173190, Note_on_c, 10, 66, 0
15, 173190, Note_on_c, 10, 63, 100
15, 173220, Note_on_c, 10, 63, 0
15, 173220, Note_on_c, 10, 64, 100
15, 173250, Note_on_c, 10, 64, 0
15, 173250, Note_on_c, 10, 61, 100
15, 173280, Note_on_c, 10, 61, 0
15, 173280, Note_on_c, 10, 63, 100
15, 173310, Note_on_c, 10, 63, 0
15, 173310, Note_on_c, 10, 64, 100
15, 173340, Note_on_c, 10, 64, 0
15, 173340, Note_on_c, 10, 66, 100
15, 173370, Note_on_c, 10, 66, 0
15, 173370, Note_on_c, 10, 68, 100
15, 173400, Note_on_c, 10, 68, 0
15, 173400, Note_on_c, 10, 69, 100
15, 173430, Note_on_c, 10, 69, 0
15, 173430, Note_on_c, 10, 71, 100
15, 173460, Note_on_c, 10, 71, 0
15, 173460, Note_on_c, 10, 73, 100
15, 173490, Note_on_c, 10, 73, 0
15, 173490, Note_on_c, 10, 74, 100
15, 173520, Note_on_c, 10, 74, 0
15, 173520, Note_on_c, 10, 73, 100
15, 173550, Note_on_c, 10, 73, 0
15, 173550, Note_on_c, 10, 71, 100
15, 173580, Note_on_c, 10, 71, 0
15, 173580, Note_on_c, 10, 69, 100
15, 173610, Note_on_c, 10, 69, 0
15, 173610, Note_on_c, 10, 68, 100
15, 173640, Note_on_c, 10, 68, 0
15, 173640, Note_on_c, 10, 66, 100
15, 173670, Note_on_c, 10, 66, 0
15, 173670, Note_on_c, 10, 64, 100
15, 173700, Note_on_c, 10, 64, 0
15, 173700, Note_on_c, 10, 63, 100
15, 173760, Note_on_c, 10, 63, 0
15, 173760, Note_on_c, 10, 59, 100
15, 173820, Note_on_c, 10, 59, 0
15, 173880, Note_on_c, 10, 71, 100
15, 173940, Note_on_c, 10, 71, 0
15, 173940, Note_on_c, 10, 71, 100
15, 173970, Note_on_c, 10, 71, 0
15, 173970, Note_on_c, 10, 73, 100
15, 174000, Note_on_c, 10, 73, 0
15, 174000, Note_on_c, 10, 71, 100
15, 174030, Note_on_c, 10, 71, 0
15, 174030, Note_on_c, 10, 69, 100
15, 174060, Note_on_c, 10, 69, 0
15, 174060, Note_on_c, 10, 68, 100
15, 174090, Note_on_c, 10, 68, 0
15, 174090, Note_on_c, 10, 66, 100
15, 174120, Note_on_c, 10, 66, 0
15, 174120, Note_on_c, 10, 64, 100
15, 174150, Note_on_c, 10, 64, 0
15, 174150, Note_on_c, 10, 62, 100
15, 174180, Note_on_c, 10, 62, 0
15, 174180, Note_on_c, 10, 61, 100
15, 174240, Note_on_c, 10, 61, 0
15, 174240, Note_on_c, 10, 57, 100
15, 174300, Note_on_c, 10, 57, 0
15, 174360, Note_on_c, 10, 69, 100
15, 174420, Note_on_c, 10, 69, 0
15, 174420, Note_on_c, 10, 69, 100
15, 174450, Note_on_c, 10, 69, 0
15, 174450, Note_on_c, 10, 71, 100
15, 174480, Note_on_c, 10, 71, 0
15, 174480, Note_on_c, 10, 69, 100
15, 174510, Note_on_c, 10, 69, 0
15, 174510, Note_on_c, 10, 68, 100
15, 174540, Note_on_c, 10, 68, 0
15, 174540, Note_on_c, 10, 66, 100
15, 174570, Note_on_c, 10, 66, 0
15, 174570, Note_on_c, 10, 64, 100
15, 174600, Note_on_c, 10, 64, 0
15, 174600, Note_on_c, 10, 63, 100
15, 174630, Note_on_c, 10, 63, 0
15, 174630, Note_on_c, 10, 61, 100
15, 174660, Note_on_c, 10, 61, 0
15, 174660, Note_on_c, 10, 59, 100
15, 174720, Note_on_c, 10, 59, 0
15, 174720, Note_on_c, 10, 56, 100
15, 174780, Note_on_c, 10, 56, 0
15, 174840, Note_on_c, 10, 63, 100
15, 174900, Note_on_c, 10, 63, 0
15, 174900, Note_on_c, 10, 64, 100
15, 174930, Note_on_c, 10, 64, 0
15, 174930, Note_on_c, 10, 63, 100
15, 174960, Note_on_c, 10, 63, 0
15, 174960, Note_on_c, 10, 61, 100
15, 174990, Note_on_c, 10, 61, 0
15, 174990, Note_on_c, 10, 63, 100
15, 175020, Note_on_c, 10, 63, 0
15, 175020, Note_on_c, 10, 64, 100
15, 175050, Note_on_c, 10, 64, 0
15, 175050, Note_on_c, 10, 66, 100
15, 175080, Note_on_c, 10, 66, 0
15, 175080, Note_on_c, 10, 68, 100
15, 175140, Note_on_c, 10, 68, 0
15, 175200, Note_on_c, 10, 66, 100
15, 175230, Note_on_c, 10, 66, 0
15, 175230, Note_on_c, 10, 65, 100
15, 175260, Note_on_c, 10, 65, 0
15, 175260, Note_on_c, 10, 66, 100
15, 175320, Note_on_c, 10, 66, 0
15, 175320, Note_on_c, 10, 61, 100
15, 175380, Note_on_c, 10, 61, 0
15, 175380, Note_on_c, 10, 69, 100
15, 175410, Note_on_c, 10, 69, 0
15, 175410, Note_on_c, 10, 68, 100
15, 175440, Note_on_c, 10, 68, 0
15, 175440, Note_on_c, 10, 69, 100
15, 175500, Note_on_c, 10, 69, 0
15, 175560, Note_on_c, 10, 59, 100
15, 175620, Note_on_c, 10, 59, 0
15, 175620, Note_on_c, 10, 67, 100
15, 175650, Note_on_c, 10, 67, 0
15, 175650, Note_on_c, 10, 66, 100
15, 175680, Note_on_c, 10, 66, 0
15, 175680, Note_on_c, 10, 67, 100
15, 175740, Note_on_c, 10, 67, 0
15, 175800, Note_on_c, 10, 66, 100
15, 175860, Note_on_c, 10, 66, 0
15, 175860, Note_on_c, 10, 63, 100
15, 175920, Note_on_c, 10, 63, 0
15, 175920, Note_on_c, 10, 64, 100
15, 175950, Note_on_c, 10, 64, 0
15, 175950, Note_on_c, 10, 71, 100
15, 175980, Note_on_c, 10, 71, 0
15, 175980, Note_on_c, 10, 69, 100
15, 176010, Note_on_c, 10, 69, 0
15, 176010, Note_on_c, 10, 68, 100
15, 176040, Note_on_c, 10, 68, 0
15, 176040, Note_on_c, 10, 69, 100
15, 176070, Note_on_c, 10, 69, 0
15, 176070, Note_on_c, 10, 66, 100
15, 176100, Note_on_c, 10, 66, 0
15, 176100, Note_on_c, 10, 64, 100
15, 176220, Note_on_c, 10, 64, 0
15, 180300, Program_c, 10, 71
15, 180360, Note_on_c, 10, 67, 100
15, 180418, Note_on_c, 10, 67, 0
15, 180420, Note_on_c, 10, 66, 100
15, 180478, Note_on_c, 10, 66, 0
15, 180480, Note_on_c, 10, 64, 100
15, 180538, Note_on_c, 10, 64, 0
15, 180540, Note_on_c, 10, 62, 100
15, 180598, Note_on_c, 10, 62, 0
15, 180600, Note_on_c, 10, 61, 100
15, 180658, Note_on_c, 10, 61, 0
15, 180660, Note_on_c, 10, 59, 100
15, 180838, Note_on_c, 10, 59, 0
15, 180840, Note_on_c, 10, 59, 100
15, 180898, Note_on_c, 10, 59, 0
15, 180900, Note_on_c, 10, 59, 100
15, 181018, Note_on_c, 10, 59, 0
15, 181020, Note_on_c, 10, 61, 100
15, 181078, Note_on_c, 10, 61, 0
15, 181080, Note_on_c, 10, 59, 100
15, 181138, Note_on_c, 10, 59, 0
15, 181140, Note_on_c, 10, 61, 100
15, 181198, Note_on_c, 10, 61, 0
15, 181200, Note_on_c, 10, 62, 100
15, 181258, Note_on_c, 10, 62, 0
15, 181260, Note_on_c, 10, 64, 100
15, 181318, Note_on_c, 10, 64, 0
15, 181320, Note_on_c, 10, 66, 100
15, 181378, Note_on_c, 10, 66, 0
15, 181380, Note_on_c, 10, 62, 100
15, 181438, Note_on_c, 10, 62, 0
15, 181440, Note_on_c, 10, 64, 100
15, 181498, Note_on_c, 10, 64, 0
15, 181500, Note_on_c, 10, 66, 100
15, 181618, Note_on_c, 10, 66, 0
15, 181800, Note_on_c, 10, 71, 100
15, 181858, Note_on_c, 10, 71, 0
15, 181860, Note_on_c, 10, 69, 100
15, 181918, Note_on_c, 10, 69, 0
15, 181920, Note_on_c, 10, 67, 100
15, 181978, Note_on_c, 10, 67, 0
15, 181980, Note_on_c, 10, 66, 100
15, 182038, Note_on_c, 10, 66, 0
15, 182040, Note_on_c, 10, 64, 100
15, 182098, Note_on_c, 10, 64, 0
15, 182100, Note_on_c, 10, 62, 100
15, 182278, Note_on_c, 10, 62, 0
15, 182280, Note_on_c, 10, 62, 100
15, 182338, Note_on_c, 10, 62, 0
15, 182340, Note_on_c, 10, 62, 100
15, 182458, Note_on_c, 10, 62, 0
15, 182520, Note_on_c, 10, 69, 100
15, 182578, Note_on_c, 10, 69, 0
15, 182580, Note_on_c, 10, 67, 100
15, 182638, Note_on_c, 10, 67, 0
15, 182640, Note_on_c, 10, 66, 100
15, 182698, Note_on_c, 10, 66, 0
15, 182700, Note_on_c, 10, 64, 100
15, 182758, Note_on_c, 10, 64, 0
15, 182760, Note_on_c, 10, 63, 100
15, 182818, Note_on_c, 10, 63, 0
15, 182820, Note_on_c, 10, 64, 100
15, 182878, Note_on_c, 10, 64, 0
15, 182880, Note_on_c, 10, 63, 100
15, 182938, Note_on_c, 10, 63, 0
15, 182940, Note_on_c, 10, 64, 100
15, 182998, Note_on_c, 10, 64, 0
15, 183000, Note_on_c, 10, 66, 100
15, 183058, Note_on_c, 10, 66, 0
15, 183060, Note_on_c, 10, 67, 100
15, 183118, Note_on_c, 10, 67, 0
15, 183120, Note_on_c, 10, 64, 100
15, 183178, Note_on_c, 10, 64, 0
15, 183180, Note_on_c, 10, 66, 100
15, 183298, Note_on_c, 10, 66, 0
15, 183300, Note_on_c, 10, 67, 100
15, 183358, Note_on_c, 10, 67, 0
15, 183360, Note_on_c, 10, 66, 100
15, 183418, Note_on_c, 10, 66, 0
15, 183420, Note_on_c, 10, 64, 100
15, 183478, Note_on_c, 10, 64, 0
15, 183480, Note_on_c, 10, 62, 100
15, 183538, Note_on_c, 10, 62, 0
15, 183540, Note_on_c, 10, 67, 100
15, 183598, Note_on_c, 10, 67, 0
15, 183600, Note_on_c, 10, 69, 100
15, 183658, Note_on_c, 10, 69, 0
15, 183660, Note_on_c, 10, 67, 100
15, 183718, Note_on_c, 10, 67, 0
15, 183720, Note_on_c, 10, 66, 100
15, 183778, Note_on_c, 10, 66, 0
15, 183780, Note_on_c, 10, 67, 100
15, 183838, Note_on_c, 10, 67, 0
15, 183840, Note_on_c, 10, 64, 100
15, 183898, Note_on_c, 10, 64, 0
15, 183900, Note_on_c, 10, 69, 100
15, 184018, Note_on_c, 10, 69, 0
15, 184020, Note_on_c, 10, 57, 100
15, 184138, Note_on_c, 10, 57, 0
15, 184140, Note_on_c, 10, 69, 100
15, 184318, Note_on_c, 10, 69, 0
15, 184320, Note_on_c, 10, 66, 100
15, 184378, Note_on_c, 10, 66, 0
15, 184380, Note_on_c, 10, 67, 100
15, 184498, Note_on_c, 10, 67, 0
15, 184680, Note_on_c, 10, 67, 100
15, 184738, Note_on_c, 10, 67, 0
15, 184740, Note_on_c, 10, 66, 100
15, 184798, Note_on_c, 10, 66, 0
15, 184800, Note_on_c, 10, 64, 100
15, 184858, Note_on_c, 10, 64, 0
15, 184860, Note_on_c, 10, 62, 100
15, 184918, Note_on_c, 10, 62, 0
15, 184920, Note_on_c, 10, 61, 100
15, 184978, Note_on_c, 10, 61, 0
15, 184980, Note_on_c, 10, 59, 100
15, 185038, Note_on_c, 10, 59, 0
15, 185040, Note_on_c, 10, 66, 100
15, 185098, Note_on_c, 10, 66, 0
15, 185100, Note_on_c, 10, 64, 100
15, 185158, Note_on_c, 10, 64, 0
15, 185160, Note_on_c, 10, 62, 100
15, 185218, Note_on_c, 10, 62, 0
15, 185220, Note_on_c, 10, 61, 100
15, 185278, Note_on_c, 10, 61, 0
15, 185280, Note_on_c, 10, 59, 100
15, 185338, Note_on_c, 10, 59, 0
15, 185340, Note_on_c, 10, 57, 100
15, 185458, Note_on_c, 10, 57, 0
15, 185460, Note_on_c, 10, 62, 100
15, 185518, Note_on_c, 10, 62, 0
15, 185520, Note_on_c, 10, 61, 100
15, 185578, Note_on_c, 10, 61, 0
15, 185580, Note_on_c, 10, 59, 100
15, 185638, Note_on_c, 10, 59, 0
15, 185640, Note_on_c, 10, 57, 100
15, 185698, Note_on_c, 10, 57, 0
15, 185700, Note_on_c, 10, 55, 100
15, 185818, Note_on_c, 10, 55, 0
15, 185820, Note_on_c, 10, 57, 100
15, 186058, Note_on_c, 10, 57, 0
15, 186060, Note_on_c, 10, 62, 100
15, 186178, Note_on_c, 10, 62, 0
15, 186180, Note_on_c, 10, 69, 100
15, 186238, Note_on_c, 10, 69, 0
15, 186240, Note_on_c, 10, 64, 100
15, 186298, Note_on_c, 10, 64, 0
15, 186300, Note_on_c, 10, 66, 100
15, 186358, Note_on_c, 10, 66, 0
15, 186360, Note_on_c, 10, 62, 100
15, 186418, Note_on_c, 10, 62, 0
15, 186420, Note_on_c, 10, 64, 100
15, 186538, Note_on_c, 10, 64, 0
15, 186540, Note_on_c, 10, 57, 100
15, 186658, Note_on_c, 10, 57, 0
15, 186780, Note_on_c, 10, 57, 100
15, 186898, Note_on_c, 10, 57, 0
15, 186900, Note_on_c, 10, 57, 100
15, 187018, Note_on_c, 10, 57, 0
15, 187020, Note_on_c, 10, 57, 100
15, 187138, Note_on_c, 10, 57, 0
15, 187140, Note_on_c, 10, 59, 100
15, 187198, Note_on_c, 10, 59, 0
15, 187200, Note_on_c, 10, 57, 100
15, 187258, Note_on_c, 10, 57, 0
15, 187260, Note_on_c, 10, 56, 100
15, 187318, Note_on_c, 10, 56, 0
15, 187320, Note_on_c, 10, 57, 100
15, 187378, Note_on_c, 10, 57, 0
15, 187380, Note_on_c, 10, 59, 100
15, 187558, Note_on_c, 10, 59, 0
15, 187560, Note_on_c, 10, 57, 100
15, 187618, Note_on_c, 10, 57, 0
15, 187620, Note_on_c, 10, 59, 100
15, 187678, Note_on_c, 10, 59, 0
15, 187680, Note_on_c, 10, 60, 100
15, 187738, Note_on_c, 10, 60, 0
15, 187740, Note_on_c, 10, 62, 100
15, 187918, Note_on_c, 10, 62, 0
15, 187920, Note_on_c, 10, 65, 100
15, 187978, Note_on_c, 10, 65, 0
15, 187980, Note_on_c, 10, 64, 100
15, 188038, Note_on_c, 10, 64, 0
15, 188040, Note_on_c, 10, 62, 100
15, 188098, Note_on_c, 10, 62, 0
15, 188100, Note_on_c, 10, 61, 100
15, 188158, Note_on_c, 10, 61, 0
15, 188160, Note_on_c, 10, 62, 100
15, 188218, Note_on_c, 10, 62, 0
15, 188220, Note_on_c, 10, 61, 100
15, 188818, Note_on_c, 10, 61, 0
15, 188820, Note_on_c, 10, 61, 100
15, 188938, Note_on_c, 10, 61, 0
15, 188940, Note_on_c, 10, 62, 100
15, 189058, Note_on_c, 10, 62, 0
15, 189060, Note_on_c, 10, 66, 100
15, 189118, Note_on_c, 10, 66, 0
15, 189120, Note_on_c, 10, 64, 100
15, 189178, Note_on_c, 10, 64, 0
15, 189180, Note_on_c, 10, 62, 100
15, 189238, Note_on_c, 10, 62, 0
15, 189240, Note_on_c, 10, 61, 100
15, 189298, Note_on_c, 10, 61, 0
15, 189300, Note_on_c, 10, 59, 100
15, 189358, Note_on_c, 10, 59, 0
15, 189360, Note_on_c, 10, 57, 100
15, 189418, Note_on_c, 10, 57, 0
15, 189420, Note_on_c, 10, 55, 100
15, 189538, Note_on_c, 10, 55, 0
15, 189540, Note_on_c, 10, 67, 100
15, 189598, Note_on_c, 10, 67, 0
15, 189600, Note_on_c, 10, 66, 100
15, 189658, Note_on_c, 10, 66, 0
15, 189660, Note_on_c, 10, 65, 100
15, 189898, Note_on_c, 10, 65, 0
15, 189900, Note_on_c, 10, 65, 100
15, 190018, Note_on_c, 10, 65, 0
15, 190020, Note_on_c, 10, 66, 100
15, 190078, Note_on_c, 10, 66, 0
15, 190080, Note_on_c, 10, 67, 100
15, 190138, Note_on_c, 10, 67, 0
15, 190140, Note_on_c, 10, 66, 100
15, 190198, Note_on_c, 10, 66, 0
15, 190200, Note_on_c, 10, 64, 100
15, 190258, Note_on_c, 10, 64, 0
15, 190260, Note_on_c, 10, 63, 100
15, 190318, Note_on_c, 10, 63, 0
15, 190320, Note_on_c, 10, 64, 100
15, 190378, Note_on_c, 10, 64, 0
15, 190380, Note_on_c, 10, 63, 100
15, 190618, Note_on_c, 10, 63, 0
15, 190620, Note_on_c, 10, 63, 100
15, 190738, Note_on_c, 10, 63, 0
15, 190740, Note_on_c, 10, 64, 100
15, 190798, Note_on_c, 10, 64, 0
15, 190800, Note_on_c, 10, 71, 100
15, 190858, Note_on_c, 10, 71, 0
15, 190860, Note_on_c, 10, 69, 100
15, 190918, Note_on_c, 10, 69, 0
15, 190920, Note_on_c, 10, 67, 100
15, 190978, Note_on_c, 10, 67, 0
15, 190980, Note_on_c, 10, 66, 100
15, 191038, Note_on_c, 10, 66, 0
15, 191040, Note_on_c, 10, 64, 100
15, 191098, Note_on_c, 10, 64, 0
15, 191100, Note_on_c, 10, 66, 100
15, 191158, Note_on_c, 10, 66, 0
15, 191160, Note_on_c, 10, 69, 100
15, 191218, Note_on_c, 10, 69, 0
15, 191220, Note_on_c, 10, 67, 100
15, 191278, Note_on_c, 10, 67, 0
15, 191280, Note_on_c, 10, 66, 100
15, 191338, Note_on_c, 10, 66, 0
15, 191340, Note_on_c, 10, 64, 100
15, 191398, Note_on_c, 10, 64, 0
15, 191400, Note_on_c, 10, 63, 100
15, 191458, Note_on_c, 10, 63, 0
15, 191460, Note_on_c, 10, 64, 100
15, 191578, Note_on_c, 10, 64, 0
15, 191580, Note_on_c, 10, 66, 100
15, 191698, Note_on_c, 10, 66, 0
15, 191700, Note_on_c, 10, 67, 100
15, 191818, Note_on_c, 10, 67, 0
15, 191820, Note_on_c, 10, 63, 100
15, 191938, Note_on_c, 10, 63, 0
15, 191940, Note_on_c, 10, 61, 100
15, 192058, Note_on_c, 10, 61, 0
15, 192060, Note_on_c, 10, 59, 100
15, 192178, Note_on_c, 10, 59, 0
15, 192180, Note_on_c, 10, 64, 100
15, 192298, Note_on_c, 10, 64, 0
15, 192300, Note_on_c, 10, 66, 100
15, 192358, Note_on_c, 10, 66, 0
15, 192360, Note_on_c, 10, 63, 100
15, 192418, Note_on_c, 10, 63, 0
15, 192420, Note_on_c, 10, 64, 100
15, 192538, Note_on_c, 10, 64, 0
15, 192540, Note_on_c, 10, 59, 100
15, 193258, Note_on_c, 10, 59, 0
15, 197520, Program_c, 10, 52
15, 197580, Note_on_c, 10, 62, 100
15, 197818, Note_on_c, 10, 62, 0
15, 197820, Note_on_c, 10, 64, 100
15, 197938, Note_on_c, 10, 64, 0
15, 197940, Note_on_c, 10, 64, 100
15, 198058, Note_on_c, 10, 64, 0
15, 198060, Note_on_c, 10, 66, 100
15, 198118, Note_on_c, 10, 66, 0
15, 198120, Note_on_c, 10, 64, 100
15, 198178, Note_on_c, 10, 64, 0
15, 198180, Note_on_c, 10, 62, 100
15, 198238, Note_on_c, 10, 62, 0
15, 198240, Note_on_c, 10, 64, 100
15, 198298, Note_on_c, 10, 64, 0
15, 198300, Note_on_c, 10, 66, 100
15, 198358, Note_on_c, 10, 66, 0
15, 198360, Note_on_c, 10, 67, 100
15, 198418, Note_on_c, 10, 67, 0
15, 198420, Note_on_c, 10, 69, 100
15, 198538, Note_on_c, 10, 69, 0
15, 198540, Note_on_c, 10, 69, 100
15, 198658, Note_on_c, 10, 69, 0
15, 198660, Note_on_c, 10, 64, 100
15, 198778, Note_on_c, 10, 64, 0
15, 198780, Note_on_c, 10, 69, 100
15, 198898, Note_on_c, 10, 69, 0
15, 198900, Note_on_c, 10, 61, 100
15, 199018, Note_on_c, 10, 61, 0
15, 199020, Note_on_c, 10, 59, 100
15, 199258, Note_on_c, 10, 59, 0
15, 199260, Note_on_c, 10, 68, 100
15, 199498, Note_on_c, 10, 68, 0
15, 199500, Note_on_c, 10, 69, 100
15, 199738, Note_on_c, 10, 69, 0
15, 199740, Note_on_c, 10, 66, 100
15, 199918, Note_on_c, 10, 66, 0
15, 199920, Note_on_c, 10, 66, 100
15, 199978, Note_on_c, 10, 66, 0
15, 199980, Note_on_c, 10, 67, 100
15, 200098, Note_on_c, 10, 67, 0
15, 200100, Note_on_c, 10, 55, 100
15, 200218, Note_on_c, 10, 55, 0
15, 200220, Note_on_c, 10, 67, 100
15, 200338, Note_on_c, 10, 67, 0
15, 200340, Note_on_c, 10, 66, 100
15, 200398, Note_on_c, 10, 66, 0
15, 200400, Note_on_c, 10, 64, 100
15, 200458, Note_on_c, 10, 64, 0
15, 200460, Note_on_c, 10, 66, 100
15, 200518, Note_on_c, 10, 66, 0
15, 200520, Note_on_c, 10, 64, 100
15, 200578, Note_on_c, 10, 64, 0
15, 200580, Note_on_c, 10, 62, 100
15, 200638, Note_on_c, 10, 62, 0
15, 200640, Note_on_c, 10, 64, 100
15, 200698, Note_on_c, 10, 64, 0
15, 200700, Note_on_c, 10, 66, 100
15, 200758, Note_on_c, 10, 66, 0
15, 200760, Note_on_c, 10, 67, 100
15, 200818, Note_on_c, 10, 67, 0
15, 200820, Note_on_c, 10, 69, 100
15, 200938, Note_on_c, 10, 69, 0
15, 200940, Note_on_c, 10, 67, 100
15, 201058, Note_on_c, 10, 67, 0
15, 201060, Note_on_c, 10, 66, 100
15, 201178, Note_on_c, 10, 66, 0
15, 201180, Note_on_c, 10, 64, 100
15, 201418, Note_on_c, 10, 64, 0
15, 201420, Note_on_c, 10, 62, 100
15, 201658, Note_on_c, 10, 62, 0
15, 201660, Note_on_c, 10, 64, 100
15, 201898, Note_on_c, 10, 64, 0
15, 201900, Note_on_c, 10, 66, 100
15, 202138, Note_on_c, 10, 66, 0
15, 202140, Note_on_c, 10, 68, 100
15, 202378, Note_on_c, 10, 68, 0
15, 202380, Note_on_c, 10, 69, 100
15, 202498, Note_on_c, 10, 69, 0
15, 202500, Note_on_c, 10, 57, 100
15, 202618, Note_on_c, 10, 57, 0
15, 202620, Note_on_c, 10, 69, 100
15, 203098, Note_on_c, 10, 69, 0
15, 203100, Note_on_c, 10, 68, 100
15, 203338, Note_on_c, 10, 68, 0
15, 203340, Note_on_c, 10, 69, 100
15, 203578, Note_on_c, 10, 69, 0
15, 205260, Note_on_c, 10, 62, 100
15, 205498, Note_on_c, 10, 62, 0
15, 205500, Note_on_c, 10, 64, 100
15, 205618, Note_on_c, 10, 64, 0
15, 205620, Note_on_c, 10, 64, 100
15, 205738, Note_on_c, 10, 64, 0
15, 205740, Note_on_c, 10, 66, 100
15, 205798, Note_on_c, 10, 66, 0
15, 205800, Note_on_c, 10, 64, 100
15, 205858, Note_on_c, 10, 64, 0
15, 205860, Note_on_c, 10, 62, 100
15, 205918, Note_on_c, 10, 62, 0
15, 205920, Note_on_c, 10, 64, 100
15, 205978, Note_on_c, 10, 64, 0
15, 205980, Note_on_c, 10, 66, 100
15, 206038, Note_on_c, 10, 66, 0
15, 206040, Note_on_c, 10, 67, 100
15, 206098, Note_on_c, 10, 67, 0
15, 206100, Note_on_c, 10, 69, 100
15, 206218, Note_on_c, 10, 69, 0
15, 206220, Note_on_c, 10, 69, 100
15, 206338, Note_on_c, 10, 69, 0
15, 206340, Note_on_c, 10, 64, 100
15, 206458, Note_on_c, 10, 64, 0
15, 206460, Note_on_c, 10, 69, 100
15, 206578, Note_on_c, 10, 69, 0
15, 206580, Note_on_c, 10, 61, 100
15, 206698, Note_on_c, 10, 61, 0
15, 206700, Note_on_c, 10, 59, 100
15, 206938, Note_on_c, 10, 59, 0
15, 206940, Note_on_c, 10, 68, 100
15, 207178, Note_on_c, 10, 68, 0
15, 207180, Note_on_c, 10, 69, 100
15, 207418, Note_on_c, 10, 69, 0
15, 207420, Note_on_c, 10, 66, 100
15, 207598, Note_on_c, 10, 66, 0
15, 207600, Note_on_c, 10, 66, 100
15, 207658, Note_on_c, 10, 66, 0
15, 207660, Note_on_c, 10, 67, 100
15, 207778, Note_on_c, 10, 67, 0
15, 207780, Note_on_c, 10, 55, 100
15, 207898, Note_on_c, 10, 55, 0
15, 207900, Note_on_c, 10, 67, 100
15, 208018, Note_on_c, 10, 67, 0
15, 208020, Note_on_c, 10, 66, 100
15, 208078, Note_on_c, 10, 66, 0
15, 208080, Note_on_c, 10, 64, 100
15, 208138, Note_on_c, 10, 64, 0
15, 208140, Note_on_c, 10, 66, 100
15, 208198, Note_on_c, 10, 66, 0
15, 208200, Note_on_c, 10, 64, 100
15, 208258, Note_on_c, 10, 64, 0
15, 208260, Note_on_c, 10, 62, 100
15, 208318, Note_on_c, 10, 62, 0
15, 208320, Note_on_c, 10, 64, 100
15, 208378, Note_on_c, 10, 64, 0
15, 208380, Note_on_c, 10, 66, 100
15, 208438, Note_on_c, 10, 66, 0
15, 208440, Note_on_c, 10, 67, 100
15, 208498, Note_on_c, 10, 67, 0
15, 208500, Note_on_c, 10, 69, 100
15, 208618, Note_on_c, 10, 69, 0
15, 208620, Note_on_c, 10, 67, 100
15, 208738, Note_on_c, 10, 67, 0
15, 208740, Note_on_c, 10, 66, 100
15, 208858, Note_on_c, 10, 66, 0
15, 208860, Note_on_c, 10, 64, 100
15, 209098, Note_on_c, 10, 64, 0
15, 209100, Note_on_c, 10, 62, 100
15, 209218, Note_on_c, 10, 62, 0
15, 209220, Note_on_c, 10, 62, 100
15, 209338, Note_on_c, 10, 62, 0
15, 209340, Note_on_c, 10, 67, 100
15, 209458, Note_on_c, 10, 67, 0
15, 209460, Note_on_c, 10, 67, 100
15, 209578, Note_on_c, 10, 67, 0
15, 209580, Note_on_c, 10, 66, 100
15, 209758, Note_on_c, 10, 66, 0
15, 209760, Note_on_c, 10, 64, 100
15, 209818, Note_on_c, 10, 64, 0
15, 209820, Note_on_c, 10, 62, 100
15, 210058, Note_on_c, 10, 62, 0
15, 210300, Note_on_c, 10, 61, 100
15, 210538, Note_on_c, 10, 61, 0
15, 210540, Note_on_c, 10, 62, 100
15, 210778, Note_on_c, 10, 62, 0
15, 210780, Note_on_c, 10, 64, 100
15, 211018, Note_on_c, 10, 64, 0
15, 211020, Note_on_c, 10, 57, 100
15, 211258, Note_on_c, 10, 57, 0
15, 211260, Note_on_c, 10, 64, 100
15, 211438, Note_on_c, 10, 64, 0
15, 211440, Note_on_c, 10, 64, 100
15, 211498, Note_on_c, 10, 64, 0
15, 211500, Note_on_c, 10, 66, 100
15, 211738, Note_on_c, 10, 66, 0
15, 211740, Note_on_c, 10, 64, 100
15, 211918, Note_on_c, 10, 64, 0
15, 211920, Note_on_c, 10, 64, 100
15, 211978, Note_on_c, 10, 64, 0
15, 211980, Note_on_c, 10, 64, 100
15, 212098, Note_on_c, 10, 64, 0
15, 212100, Note_on_c, 10, 64, 100
15, 212218, Note_on_c, 10, 64, 0
15, 212220, Note_on_c, 10, 66, 100
15, 212338, Note_on_c, 10, 66, 0
15, 212340, Note_on_c, 10, 66, 100
15, 212398, Note_on_c, 10, 66, 0
15, 212400, Note_on_c, 10, 66, 100
15, 212458, Note_on_c, 10, 66, 0
15, 212460, Note_on_c, 10, 64, 100
15, 212578, Note_on_c, 10, 64, 0
15, 212580, Note_on_c, 10, 64, 100
15, 212698, Note_on_c, 10, 64, 0
15, 212700, Note_on_c, 10, 66, 100
15, 212878, Note_on_c, 10, 66, 0
15, 212880, Note_on_c, 10, 66, 100
15, 212938, Note_on_c, 10, 66, 0
15, 212940, Note_on_c, 10, 66, 100
15, 213058, Note_on_c, 10, 66, 0
15, 213060, Note_on_c, 10, 66, 100
15, 213178, Note_on_c, 10, 66, 0
15, 213180, Note_on_c, 10, 67, 100
15, 213298, Note_on_c, 10, 67, 0
15, 213300, Note_on_c, 10, 69, 100
15, 213358, Note_on_c, 10, 69, 0
15, 213360, Note_on_c, 10, 71, 100
15, 213418, Note_on_c, 10, 71, 0
15, 213420, Note_on_c, 10, 69, 100
15, 213658, Note_on_c, 10, 69, 0
15, 213660, Note_on_c, 10, 69, 100
15, 213778, Note_on_c, 10, 69, 0
15, 213780, Note_on_c, 10, 69, 100
15, 213898, Note_on_c, 10, 69, 0
15, 213900, Note_on_c, 10, 69, 100
15, 214138, Note_on_c, 10, 69, 0
15, 214140, Note_on_c, 10, 67, 100
15, 214618, Note_on_c, 10, 67, 0
15, 214620, Note_on_c, 10, 66, 100
15, 214738, Note_on_c, 10, 66, 0
15, 214740, Note_on_c, 10, 64, 100
15, 214798, Note_on_c, 10, 64, 0
15, 214800, Note_on_c, 10, 62, 100
15, 214858, Note_on_c, 10, 62, 0
15, 214860, Note_on_c, 10, 69, 100
15, 215098, Note_on_c, 10, 69, 0
15, 215100, Note_on_c, 10, 66, 100
15, 215278, Note_on_c, 10, 66, 0
15, 215280, Note_on_c, 10, 66, 100
15, 215338, Note_on_c, 10, 66, 0
15, 215340, Note_on_c, 10, 67, 100
15, 215458, Note_on_c, 10, 67, 0
15, 215460, Note_on_c, 10, 55, 100
15, 215578, Note_on_c, 10, 55, 0
15, 215580, Note_on_c, 10, 67, 100
15, 215698, Note_on_c, 10, 67, 0
15, 215700, Note_on_c, 10, 66, 100
15, 215758, Note_on_c, 10, 66, 0
15, 215760, Note_on_c, 10, 64, 100
15, 215818, Note_on_c, 10, 64, 0
15, 215820, Note_on_c, 10, 66, 100
15, 215878, Note_on_c, 10, 66, 0
15, 215880, Note_on_c, 10, 64, 100
15, 215938, Note_on_c, 10, 64, 0
15, 215940, Note_on_c, 10, 62, 100
15, 215998, Note_on_c, 10, 62, 0
15, 216000, Note_on_c, 10, 64, 100
15, 216058, Note_on_c, 10, 64, 0
15, 216060, Note_on_c, 10, 66, 100
15, 216118, Note_on_c, 10, 66, 0
15, 216120, Note_on_c, 10, 67, 100
15, 216178, Note_on_c, 10, 67, 0
15, 216180, Note_on_c, 10, 69, 100
15, 216298, Note_on_c, 10, 69, 0
15, 216300, Note_on_c, 10, 67, 100
15, 216418, Note_on_c, 10, 67, 0
15, 216420, Note_on_c, 10, 66, 100
15, 216538, Note_on_c, 10, 66, 0
15, 216540, Note_on_c, 10, 64, 100
15, 216778, Note_on_c, 10, 64, 0
15, 216780, Note_on_c, 10, 62, 100
15, 217018, Note_on_c, 10, 62, 0
15, 217020, Note_on_c, 10, 62, 100
15, 217198, Note_on_c, 10, 62, 0
15, 217200, Note_on_c, 10, 62, 100
15, 217258, Note_on_c, 10, 62, 0
15, 217260, Note_on_c, 10, 62, 100
15, 217378, Note_on_c, 10, 62, 0
15, 217380, Note_on_c, 10, 62, 100
15, 217498, Note_on_c, 10, 62, 0
15, 217500, Note_on_c, 10, 59, 100
15, 217618, Note_on_c, 10, 59, 0
15, 217620, Note_on_c, 10, 59, 100
15, 217678, Note_on_c, 10, 59, 0
15, 217680, Note_on_c, 10, 59, 100
15, 217738, Note_on_c, 10, 59, 0
15, 217740, Note_on_c, 10, 57, 100
15, 217978, Note_on_c, 10, 57, 0
15, 217980, Note_on_c, 10, 57, 100
15, 218098, Note_on_c, 10, 57, 0
15, 218100, Note_on_c, 10, 66, 100
15, 218218, Note_on_c, 10, 66, 0
15, 218220, Note_on_c, 10, 66, 100
15, 218338, Note_on_c, 10, 66, 0
15, 218340, Note_on_c, 10, 64, 100
15, 218398, Note_on_c, 10, 64, 0
15, 218400, Note_on_c, 10, 62, 100
15, 218458, Note_on_c, 10, 62, 0
15, 218460, Note_on_c, 10, 64, 100
15, 218518, Note_on_c, 10, 64, 0
15, 218520, Note_on_c, 10, 66, 100
15, 218578, Note_on_c, 10, 66, 0
15, 218580, Note_on_c, 10, 67, 100
15, 218698, Note_on_c, 10, 67, 0
15, 218700, Note_on_c, 10, 66, 100
15, 219178, Note_on_c, 10, 66, 0
15, 219660, Control_c, 10, 0, 0
15, 219660, Note_on_c, 10, 69, 100
15, 219780, Note_on_c, 10, 69, 0
15, 219840, Note_on_c, 10, 69, 100
15, 219880, Note_on_c, 10, 69, 0
15, 219900, Note_on_c, 10, 69, 100
15, 220060, Note_on_c, 10, 69, 0
15, 220660, Note_on_c, 10, 56, 100
15, 220697, Note_on_c, 10, 56, 0
15, 220700, Note_on_c, 10, 57, 100
15, 220737, Note_on_c, 10, 57, 0
15, 220740, Note_on_c, 10, 59, 100
15, 220777, Note_on_c, 10, 59, 0
15, 220780, Note_on_c, 10, 61, 100
15, 220817, Note_on_c, 10, 61, 0
15, 220820, Note_on_c, 10, 62, 100
15, 220857, Note_on_c, 10, 62, 0
15, 220860, Note_on_c, 10, 64, 100
15, 220897, Note_on_c, 10, 64, 0
15, 220900, Note_on_c, 10, 68, 100
15, 220937, Note_on_c, 10, 68, 0
15, 220940, Note_on_c, 10, 69, 100
15, 220977, Note_on_c, 10, 69, 0
15, 220980, Note_on_c, 10, 71, 100
15, 221017, Note_on_c, 10, 71, 0
15, 221020, Note_on_c, 10, 73, 100
15, 221057, Note_on_c, 10, 73, 0
15, 221060, Note_on_c, 10, 74, 100
15, 221097, Note_on_c, 10, 74, 0
15, 221100, Note_on_c, 10, 71, 100
15, 221337, Note_on_c, 10, 71, 0
15, 221380, Note_on_c, 10, 73, 100
15, 221417, Note_on_c, 10, 73, 0
15, 221420, Note_on_c, 10, 71, 100
15, 221457, Note_on_c, 10, 71, 0
15, 221460, Note_on_c, 10, 69, 100
15, 221497, Note_on_c, 10, 69, 0
15, 221500, Note_on_c, 10, 68, 100
15, 221537, Note_on_c, 10, 68, 0
15, 221540, Note_on_c, 10, 69, 100
15, 221577, Note_on_c, 10, 69, 0
15, 221580, Note_on_c, 10, 66, 100
15, 221700, Note_on_c, 10, 66, 0
15, 221760, Note_on_c, 10, 66, 100
15, 221800, Note_on_c, 10, 66, 0
15, 221820, Note_on_c, 10, 66, 100
15, 221980, Note_on_c, 10, 66, 0
15, 222060, Note_on_c, 10, 64, 100
15, 222298, Note_on_c, 10, 64, 0
15, 222300, Note_on_c, 10, 64, 100
15, 222540, Note_on_c, 10, 64, 0
15, 222820, Note_on_c, 10, 57, 90
15, 222859, Note_on_c, 10, 57, 0
15, 222860, Note_on_c, 10, 59, 90
15, 222899, Note_on_c, 10, 59, 0
15, 222900, Note_on_c, 10, 61, 90
15, 222939, Note_on_c, 10, 61, 0
15, 222940, Note_on_c, 10, 63, 90
15, 222979, Note_on_c, 10, 63, 0
15, 222980, Note_on_c, 10, 64, 90
15, 223019, Note_on_c, 10, 64, 0
15, 223020, Note_on_c, 10, 66, 90
15, 223110, Note_on_c, 10, 66, 0
15, 223110, Note_on_c, 10, 68, 90
15, 223140, Note_on_c, 10, 68, 0
15, 223140, Note_on_c, 10, 69, 90
15, 223179, Note_on_c, 10, 69, 0
15, 223180, Note_on_c, 10, 71, 90
15, 223219, Note_on_c, 10, 71, 0
15, 223220, Note_on_c, 10, 73, 90
15, 223259, Note_on_c, 10, 73, 0
15, 223260, Note_on_c, 10, 63, 90
15, 223590, Note_on_c, 10, 63, 0
15, 223590, Note_on_c, 10, 64, 90
15, 223620, Note_on_c, 10, 64, 0
15, 223620, Note_on_c, 10, 66, 90
15, 223659, Note_on_c, 10, 66, 0
15, 223660, Note_on_c, 10, 68, 90
15, 223699, Note_on_c, 10, 68, 0
15, 223700, Note_on_c, 10, 69, 90
15, 223739, Note_on_c, 10, 69, 0
15, 223740, Note_on_c, 10, 68, 90
15, 223779, Note_on_c, 10, 68, 0
15, 223780, Note_on_c, 10, 66, 90
15, 223819, Note_on_c, 10, 66, 0
15, 223820, Note_on_c, 10, 64, 90
15, 223859, Note_on_c, 10, 64, 0
15, 223860, Note_on_c, 10, 62, 90
15, 223899, Note_on_c, 10, 62, 0
15, 223900, Note_on_c, 10, 61, 90
15, 223939, Note_on_c, 10, 61, 0
15, 223940, Note_on_c, 10, 59, 90
15, 223979, Note_on_c, 10, 59, 0
15, 223980, Note_on_c, 10, 61, 90
15, 224160, Note_on_c, 10, 61, 0
15, 224160, Note_on_c, 10, 61, 90
15, 224220, Note_on_c, 10, 61, 0
15, 224220, Note_on_c, 10, 61, 90
15, 224460, Note_on_c, 10, 61, 0
15, 224460, Note_on_c, 10, 62, 90
15, 224640, Note_on_c, 10, 62, 0
15, 224640, Note_on_c, 10, 62, 90
15, 224700, Note_on_c, 10, 62, 0
15, 224700, Note_on_c, 10, 62, 90
15, 224940, Note_on_c, 10, 62, 0
15, 225220, Note_on_c, 10, 66, 90
15, 225260, Note_on_c, 10, 66, 0
15, 225260, Note_on_c, 10, 64, 90
15, 225300, Note_on_c, 10, 64, 0
15, 225300, Note_on_c, 10, 66, 90
15, 225340, Note_on_c, 10, 66, 0
15, 225340, Note_on_c, 10, 62, 90
15, 225380, Note_on_c, 10, 62, 0
15, 225380, Note_on_c, 10, 61, 90
15, 225420, Note_on_c, 10, 61, 0
15, 225420, Note_on_c, 10, 62, 90
15, 225460, Note_on_c, 10, 62, 0
15, 225460, Note_on_c, 10, 59, 90
15, 225500, Note_on_c, 10, 59, 0
15, 225500, Note_on_c, 10, 58, 90
15, 225540, Note_on_c, 10, 58, 0
15, 225540, Note_on_c, 10, 59, 90
15, 225580, Note_on_c, 10, 59, 0
15, 225580, Note_on_c, 10, 62, 90
15, 225620, Note_on_c, 10, 62, 0
15, 225620, Note_on_c, 10, 66, 90
15, 225660, Note_on_c, 10, 66, 0
15, 225660, Note_on_c, 10, 66, 90
15, 226020, Note_on_c, 10, 66, 0
15, 226020, Note_on_c, 10, 66, 90
15, 226060, Note_on_c, 10, 66, 0
15, 226060, Note_on_c, 10, 71, 90
15, 226100, Note_on_c, 10, 71, 0
15, 226100, Note_on_c, 10, 69, 90
15, 226140, Note_on_c, 10, 69, 0
15, 226140, Note_on_c, 10, 67, 90
15, 226180, Note_on_c, 10, 67, 0
15, 226180, Note_on_c, 10, 66, 90
15, 226220, Note_on_c, 10, 66, 0
15, 226220, Note_on_c, 10, 64, 90
15, 226260, Note_on_c, 10, 64, 0
15, 226260, Note_on_c, 10, 62, 90
15, 226300, Note_on_c, 10, 62, 0
15, 226300, Note_on_c, 10, 61, 90
15, 226340, Note_on_c, 10, 61, 0
15, 226340, Note_on_c, 10, 59, 90
15, 226380, Note_on_c, 10, 59, 0
15, 226380, Note_on_c, 10, 69, 90
15, 226500, Note_on_c, 10, 69, 0
15, 226500, Note_on_c, 10, 69, 90
15, 226560, Note_on_c, 10, 69, 0
15, 226560, Note_on_c, 10, 69, 90
15, 226620, Note_on_c, 10, 69, 0
15, 226620, Note_on_c, 10, 69, 90
15, 226740, Note_on_c, 10, 69, 0
15, 226740, Note_on_c, 10, 69, 90
15, 226860, Note_on_c, 10, 69, 0
15, 226860, Note_on_c, 10, 67, 90
15, 227040, Note_on_c, 10, 67, 0
15, 227040, Note_on_c, 10, 67, 90
15, 227100, Note_on_c, 10, 67, 0
15, 227100, Note_on_c, 10, 67, 90
15, 227340, Note_on_c, 10, 67, 0
15, 227340, Note_on_c, 10, 64, 90
15, 227580, Note_on_c, 10, 64, 0
15, 227580, Note_on_c, 10, 66, 90
15, 228060, Note_on_c, 10, 66, 0
15, 228060, Note_on_c, 10, 64, 90
15, 228180, Note_on_c, 10, 64, 0
15, 228180, Note_on_c, 10, 62, 90
15, 228300, Note_on_c, 10, 62, 0
15, 228300, Note_on_c, 10, 69, 90
15, 228780, Note_on_c, 10, 69, 0
15, 229560, Note_on_c, 10, 62, 90
15, 229589, Note_on_c, 10, 62, 0
15, 229590, Note_on_c, 10, 64, 90
15, 229619, Note_on_c, 10, 64, 0
15, 229620, Note_on_c, 10, 66, 90
15, 229649, Note_on_c, 10, 66, 0
15, 229650, Note_on_c, 10, 67, 90
15, 229679, Note_on_c, 10, 67, 0
15, 229680, Note_on_c, 10, 69, 90
15, 229710, Note_on_c, 10, 69, 0
15, 229740, Note_on_c, 10, 69, 90
15, 229769, Note_on_c, 10, 69, 0
15, 229770, Note_on_c, 10, 67, 90
15, 229799, Note_on_c, 10, 67, 0
15, 229800, Note_on_c, 10, 66, 90
15, 229829, Note_on_c, 10, 66, 0
15, 229830, Note_on_c, 10, 64, 90
15, 229859, Note_on_c, 10, 64, 0
15, 229860, Note_on_c, 10, 66, 90
15, 229950, Note_on_c, 10, 66, 0
15, 229950, Note_on_c, 10, 66, 90
15, 229979, Note_on_c, 10, 66, 0
15, 229980, Note_on_c, 10, 66, 90
15, 230100, Note_on_c, 10, 66, 0
15, 231000, Note_on_c, 10, 62, 90
15, 231029, Note_on_c, 10, 62, 0
15, 231030, Note_on_c, 10, 61, 90
15, 231059, Note_on_c, 10, 61, 0
15, 231060, Note_on_c, 10, 62, 90
15, 231089, Note_on_c, 10, 62, 0
15, 231090, Note_on_c, 10, 64, 90
15, 231119, Note_on_c, 10, 64, 0
15, 231120, Note_on_c, 10, 66, 90
15, 231149, Note_on_c, 10, 66, 0
15, 231180, Note_on_c, 10, 66, 90
15, 231209, Note_on_c, 10, 66, 0
15, 231210, Note_on_c, 10, 64, 90
15, 231239, Note_on_c, 10, 64, 0
15, 231240, Note_on_c, 10, 62, 90
15, 231269, Note_on_c, 10, 62, 0
15, 231270, Note_on_c, 10, 61, 90
15, 231299, Note_on_c, 10, 61, 0
15, 231300, Note_on_c, 10, 62, 90
15, 231389, Note_on_c, 10, 62, 0
15, 231390, Note_on_c, 10, 62, 90
15, 231419, Note_on_c, 10, 62, 0
15, 231420, Note_on_c, 10, 62, 90
15, 231479, Note_on_c, 10, 62, 0
15, 231480, Note_on_c, 10, 62, 90
15, 231509, Note_on_c, 10, 62, 0
15, 231510, Note_on_c, 10, 64, 90
15, 231539, Note_on_c, 10, 64, 0
15, 231540, Note_on_c, 10, 66, 90
15, 231569, Note_on_c, 10, 66, 0
15, 231570, Note_on_c, 10, 67, 90
15, 231599, Note_on_c, 10, 67, 0
15, 231600, Note_on_c, 10, 69, 90
15, 231659, Note_on_c, 10, 69, 0
15, 231660, Note_on_c, 10, 69, 90
15, 231749, Note_on_c, 10, 69, 0
15, 231750, Note_on_c, 10, 67, 90
15, 231779, Note_on_c, 10, 67, 0
15, 231780, Note_on_c, 10, 66, 90
15, 231899, Note_on_c, 10, 66, 0
15, 232080, Note_on_c, 10, 66, 90
15, 232109, Note_on_c, 10, 66, 0
15, 232110, Note_on_c, 10, 64, 90
15, 232139, Note_on_c, 10, 64, 0
15, 232140, Note_on_c, 10, 62, 90
15, 232199, Note_on_c, 10, 62, 0
15, 232200, Note_on_c, 10, 59, 90
15, 232259, Note_on_c, 10, 59, 0
15, 232260, Note_on_c, 10, 61, 90
15, 232319, Note_on_c, 10, 61, 0
15, 232320, Note_on_c, 10, 66, 90
15, 232379, Note_on_c, 10, 66, 0
15, 232380, Note_on_c, 10, 62, 90
15, 232439, Note_on_c, 10, 62, 0
15, 232800, Note_on_c, 10, 67, 90
15, 232829, Note_on_c, 10, 67, 0
15, 232830, Note_on_c, 10, 69, 90
15, 232859, Note_on_c, 10, 69, 0
15, 232860, Note_on_c, 10, 71, 90
15, 232919, Note_on_c, 10, 71, 0
15, 232920, Note_on_c, 10, 67, 90
15, 232979, Note_on_c, 10, 67, 0
15, 232980, Note_on_c, 10, 69, 90
15, 233039, Note_on_c, 10, 69, 0
15, 233040, Note_on_c, 10, 71, 90
15, 233099, Note_on_c, 10, 71, 0
15, 233100, Note_on_c, 10, 71, 90
15, 233189, Note_on_c, 10, 71, 0
15, 233190, Note_on_c, 10, 69, 90
15, 233219, Note_on_c, 10, 69, 0
15, 233220, Note_on_c, 10, 67, 90
15, 233339, Note_on_c, 10, 67, 0
15, 233520, Note_on_c, 10, 61, 90
15, 233549, Note_on_c, 10, 61, 0
15, 233550, Note_on_c, 10, 62, 90
15, 233579, Note_on_c, 10, 62, 0
15, 233580, Note_on_c, 10, 64, 90
15, 233609, Note_on_c, 10, 64, 0
15, 233610, Note_on_c, 10, 66, 90
15, 233639, Note_on_c, 10, 66, 0
15, 233640, Note_on_c, 10, 67, 90
15, 233669, Note_on_c, 10, 67, 0
15, 233700, Note_on_c, 10, 67, 90
15, 233729, Note_on_c, 10, 67, 0
15, 233730, Note_on_c, 10, 66, 90
15, 233759, Note_on_c, 10, 66, 0
15, 233760, Note_on_c, 10, 64, 90
15, 233789, Note_on_c, 10, 64, 0
15, 233790, Note_on_c, 10, 62, 90
15, 233819, Note_on_c, 10, 62, 0
15, 233820, Note_on_c, 10, 64, 90
15, 234179, Note_on_c, 10, 64, 0
15, 234180, Note_on_c, 10, 66, 100
15, 235890, Note_on_c, 10, 66, 0
15, 235890, Note_on_c, 10, 67, 90
15, 235919, Note_on_c, 10, 67, 0
15, 235920, Note_on_c, 10, 69, 90
15, 235979, Note_on_c, 10, 69, 0
15, 235980, Note_on_c, 10, 62, 90
15, 236009, Note_on_c, 10, 62, 0
15, 236010, Note_on_c, 10, 64, 90
15, 236039, Note_on_c, 10, 64, 0
15, 236040, Note_on_c, 10, 62, 90
15, 236069, Note_on_c, 10, 62, 0
15, 236070, Note_on_c, 10, 61, 90
15, 236099, Note_on_c, 10, 61, 0
15, 236100, Note_on_c, 10, 62, 90
15, 236129, Note_on_c, 10, 62, 0
15, 236130, Note_on_c, 10, 67, 90
15, 236159, Note_on_c, 10, 67, 0
15, 236160, Note_on_c, 10, 66, 90
15, 236189, Note_on_c, 10, 66, 0
15, 236190, Note_on_c, 10, 67, 90
15, 236219, Note_on_c, 10, 67, 0
15, 236220, Note_on_c, 10, 69, 90
15, 236249, Note_on_c, 10, 69, 0
15, 236250, Note_on_c, 10, 71, 90
15, 236279, Note_on_c, 10, 71, 0
15, 236280, Note_on_c, 10, 69, 90
15, 236309, Note_on_c, 10, 69, 0
15, 236310, Note_on_c, 10, 67, 90
15, 236339, Note_on_c, 10, 67, 0
15, 236340, Note_on_c, 10, 66, 90
15, 236399, Note_on_c, 10, 66, 0
15, 236400, Note_on_c, 10, 71, 90
15, 236459, Note_on_c, 10, 71, 0
15, 236460, Note_on_c, 10, 69, 90
15, 236519, Note_on_c, 10, 69, 0
15, 236520, Note_on_c, 10, 67, 90
15, 236549, Note_on_c, 10, 67, 0
15, 236550, Note_on_c, 10, 66, 90
15, 236579, Note_on_c, 10, 66, 0
15, 236580, Note_on_c, 10, 64, 90
15, 236699, Note_on_c, 10, 64, 0
15, 236700, Note_on_c, 10, 66, 90
15, 236819, Note_on_c, 10, 66, 0
15, 236819, End_track
16, 0, Start_track
16, 0, MIDI_port, 0
16, 0, Title_t, "tenor"
16, 0, Program_c, 11, 52
16, 0, Control_c, 11, 7, 127
16, 0, Control_c, 11, 10, 124
16, 11220, Note_on_c, 11, 54, 100
16, 11220, Lyric_t, "Mag"
16, 11240, Note_on_c, 11, 54, 0
16, 11250, Note_on_c, 11, 55, 100
16, 11270, Note_on_c, 11, 55, 0
16, 11280, Note_on_c, 11, 57, 100
16, 11300, Note_on_c, 11, 57, 0
16, 11310, Note_on_c, 11, 62, 100
16, 11330, Note_on_c, 11, 62, 0
16, 11340, Note_on_c, 11, 61, 100
16, 11360, Note_on_c, 11, 61, 0
16, 11370, Note_on_c, 11, 59, 100
16, 11390, Note_on_c, 11, 59, 0
16, 11400, Note_on_c, 11, 57, 100
16, 11420, Note_on_c, 11, 57, 0
16, 11430, Note_on_c, 11, 59, 100
16, 11450, Note_on_c, 11, 59, 0
16, 11460, Note_on_c, 11, 57, 100
16, 11480, Note_on_c, 11, 57, 0
16, 11490, Note_on_c, 11, 59, 100
16, 11510, Note_on_c, 11, 59, 0
16, 11520, Note_on_c, 11, 57, 100
16, 11540, Note_on_c, 11, 57, 0
16, 11550, Note_on_c, 11, 59, 100
16, 11570, Note_on_c, 11, 59, 0
16, 11580, Note_on_c, 11, 61, 100
16, 11600, Note_on_c, 11, 61, 0
16, 11610, Note_on_c, 11, 62, 100
16, 11630, Note_on_c, 11, 62, 0
16, 11640, Note_on_c, 11, 57, 100
16, 11640, Lyric_t, "ni"
16, 11700, Note_on_c, 11, 57, 0
16, 11730, Note_on_c, 11, 57, 100
16, 11730, Lyric_t, "fi"
16, 11750, Note_on_c, 11, 57, 0
16, 11760, Note_on_c, 11, 57, 100
16, 11760, Lyric_t, "cat, "
16, 11840, Note_on_c, 11, 57, 0
16, 11940, Note_on_c, 11, 62, 100
16, 11940, Lyric_t, "mag"
16, 11980, Note_on_c, 11, 62, 0
16, 12000, Note_on_c, 11, 62, 100
16, 12000, Lyric_t, "ni"
16, 12060, Note_on_c, 11, 62, 0
16, 12090, Note_on_c, 11, 62, 100
16, 12090, Lyric_t, "fi"
16, 12110, Note_on_c, 11, 62, 0
16, 12120, Note_on_c, 11, 62, 100
16, 12120, Lyric_t, "cat, "
16, 12200, Note_on_c, 11, 62, 0
16, 12300, Note_on_c, 11, 57, 100
16, 12300, Lyric_t, "mag"
16, 12340, Note_on_c, 11, 57, 0
16, 12360, Note_on_c, 11, 62, 100
16, 12380, Note_on_c, 11, 62, 0
16, 12390, Note_on_c, 11, 64, 100
16, 12410, Note_on_c, 11, 64, 0
16, 12420, Note_on_c, 11, 66, 100
16, 12460, Note_on_c, 11, 66, 0
16, 12480, Note_on_c, 11, 66, 100
16, 12500, Note_on_c, 11, 66, 0
16, 12510, Note_on_c, 11, 64, 100
16, 12530, Note_on_c, 11, 64, 0
16, 12540, Note_on_c, 11, 62, 100
16, 12560, Note_on_c, 11, 62, 0
16, 12570, Note_on_c, 11, 61, 100
16, 12590, Note_on_c, 11, 61, 0
16, 12600, Note_on_c, 11, 62, 100
16, 12600, Lyric_t, "ni"
16, 12660, Note_on_c, 11, 62, 0
16, 12690, Note_on_c, 11, 62, 100
16, 12690, Lyric_t, "fi"
16, 12710, Note_on_c, 11, 62, 0
16, 12720, Note_on_c, 11, 62, 100
16, 12720, Lyric_t, "cat, "
16, 12800, Note_on_c, 11, 62, 0
16, 12900, Note_on_c, 11, 57, 100
16, 12900, Lyric_t, "mag"
16, 12940, Note_on_c, 11, 57, 0
16, 12960, Note_on_c, 11, 62, 100
16, 12960, Lyric_t, "ni"
16, 13020, Note_on_c, 11, 62, 0
16, 13050, Note_on_c, 11, 62, 100
16, 13050, Lyric_t, "fi"
16, 13070, Note_on_c, 11, 62, 0
16, 13080, Note_on_c, 11, 59, 100
16, 13080, Lyric_t, "cat, "
16, 13160, Note_on_c, 11, 59, 0
16, 13260, Note_on_c, 11, 59, 100
16, 13260, Lyric_t, "mag"
16, 13300, Note_on_c, 11, 59, 0
16, 13320, Note_on_c, 11, 59, 100
16, 13320, Lyric_t, "ni"
16, 13380, Note_on_c, 11, 59, 0
16, 13410, Note_on_c, 11, 59, 100
16, 13410, Lyric_t, "fi"
16, 13430, Note_on_c, 11, 59, 0
16, 13440, Note_on_c, 11, 61, 100
16, 13440, Lyric_t, "cat, "
16, 13520, Note_on_c, 11, 61, 0
16, 13620, Note_on_c, 11, 61, 100
16, 13620, Lyric_t, "mag"
16, 13660, Note_on_c, 11, 61, 0
16, 13680, Note_on_c, 11, 62, 100
16, 13680, Lyric_t, "ni"
16, 13740, Note_on_c, 11, 62, 0
16, 13770, Note_on_c, 11, 62, 100
16, 13770, Lyric_t, "fi"
16, 13790, Note_on_c, 11, 62, 0
16, 13800, Note_on_c, 11, 62, 100
16, 13800, Lyric_t, "cat, "
16, 13840, Note_on_c, 11, 62, 0
16, 13860, Note_on_c, 11, 54, 100
16, 13860, Lyric_t, "mag"
16, 13900, Note_on_c, 11, 54, 0
16, 13920, Note_on_c, 11, 57, 100
16, 13960, Note_on_c, 11, 57, 0
16, 13980, Note_on_c, 11, 62, 100
16, 14020, Note_on_c, 11, 62, 0
16, 14040, Note_on_c, 11, 66, 100
16, 14040, Lyric_t, "ni"
16, 14100, Note_on_c, 11, 66, 0
16, 14130, Note_on_c, 11, 66, 100
16, 14130, Lyric_t, "fi"
16, 14150, Note_on_c, 11, 66, 0
16, 14160, Note_on_c, 11, 66, 100
16, 14160, Lyric_t, "cat, "
16, 14200, Note_on_c, 11, 66, 0
16, 14220, Note_on_c, 11, 54, 100
16, 14220, Lyric_t, "mag"
16, 14260, Note_on_c, 11, 54, 0
16, 14280, Note_on_c, 11, 59, 100
16, 14320, Note_on_c, 11, 59, 0
16, 14340, Note_on_c, 11, 62, 100
16, 14380, Note_on_c, 11, 62, 0
16, 14400, Note_on_c, 11, 64, 100
16, 14400, Lyric_t, "ni"
16, 14460, Note_on_c, 11, 64, 0
16, 14490, Note_on_c, 11, 64, 100
16, 14490, Lyric_t, "fi"
16, 14510, Note_on_c, 11, 64, 0
16, 14520, Note_on_c, 11, 64, 100
16, 14520, Lyric_t, "cat, "
16, 14560, Note_on_c, 11, 64, 0
16, 14580, Note_on_c, 11, 56, 100
16, 14580, Lyric_t, "a"
16, 14600, Note_on_c, 11, 56, 0
16, 14610, Note_on_c, 11, 57, 100
16, 14630, Note_on_c, 11, 57, 0
16, 14640, Note_on_c, 11, 59, 100
16, 14680, Note_on_c, 11, 59, 0
16, 14700, Note_on_c, 11, 61, 100
16, 14700, Lyric_t, "ni"
16, 14720, Note_on_c, 11, 61, 0
16, 14730, Note_on_c, 11, 62, 100
16, 14730, Lyric_t, "ma "
16, 14750, Note_on_c, 11, 62, 0
16, 14760, Note_on_c, 11, 64, 100
16, 14760, Lyric_t, "me"
16, 14800, Note_on_c, 11, 64, 0
16, 14820, Note_on_c, 11, 61, 100
16, 14820, Lyric_t, "a "
16, 14860, Note_on_c, 11, 61, 0
16, 14940, Note_on_c, 11, 52, 100
16, 14940, Lyric_t, "mag"
16, 14980, Note_on_c, 11, 52, 0
16, 15000, Note_on_c, 11, 57, 100
16, 15000, Lyric_t, "ni"
16, 15060, Note_on_c, 11, 57, 0
16, 15090, Note_on_c, 11, 57, 100
16, 15090, Lyric_t, "fi"
16, 15110, Note_on_c, 11, 57, 0
16, 15120, Note_on_c, 11, 57, 100
16, 15120, Lyric_t, "cat "
16, 15160, Note_on_c, 11, 57, 0
16, 15180, Note_on_c, 11, 59, 100
16, 15180, Lyric_t, "a"
16, 15200, Note_on_c, 11, 59, 0
16, 15210, Note_on_c, 11, 61, 100
16, 15230, Note_on_c, 11, 61, 0
16, 15240, Note_on_c, 11, 59, 100
16, 15280, Note_on_c, 11, 59, 0
16, 15300, Note_on_c, 11, 57, 100
16, 15340, Note_on_c, 11, 57, 0
16, 15360, Note_on_c, 11, 56, 100
16, 15360, Lyric_t, "ni"
16, 15400, Note_on_c, 11, 56, 0
16, 15420, Note_on_c, 11, 57, 100
16, 15420, Lyric_t, "ma "
16, 15460, Note_on_c, 11, 57, 0
16, 15480, Note_on_c, 11, 59, 100
16, 15480, Lyric_t, "me"
16, 15520, Note_on_c, 11, 59, 0
16, 15540, Note_on_c, 11, 64, 100
16, 15540, Lyric_t, "a"
16, 15560, Note_on_c, 11, 64, 0
16, 15570, Note_on_c, 11, 62, 100
16, 15590, Note_on_c, 11, 62, 0
16, 15600, Note_on_c, 11, 61, 100
16, 15600, Lyric_t, "Do"
16, 15620, Note_on_c, 11, 61, 0
16, 15630, Note_on_c, 11, 59, 100
16, 15650, Note_on_c, 11, 59, 0
16, 15660, Note_on_c, 11, 57, 100
16, 15670, Note_on_c, 11, 57, 0
16, 15670, Note_on_c, 11, 59, 100
16, 15680, Note_on_c, 11, 59, 0
16, 15690, Note_on_c, 11, 61, 100
16, 15710, Note_on_c, 11, 61, 0
16, 15720, Note_on_c, 11, 52, 100
16, 15760, Note_on_c, 11, 52, 0
16, 15780, Note_on_c, 11, 56, 100
16, 15780, Lyric_t, "ni"
16, 15820, Note_on_c, 11, 56, 0
16, 15840, Note_on_c, 11, 57, 100
16, 15840, Lyric_t, "num "
16, 15880, Note_on_c, 11, 57, 0
16, 15900, Note_on_c, 11, 57, 100
16, 15900, Lyric_t, "mag"
16, 15920, Note_on_c, 11, 57, 0
16, 15930, Note_on_c, 11, 59, 100
16, 15950, Note_on_c, 11, 59, 0
16, 15960, Note_on_c, 11, 61, 100
16, 16020, Note_on_c, 11, 61, 0
16, 16050, Note_on_c, 11, 62, 100
16, 16070, Note_on_c, 11, 62, 0
16, 16080, Note_on_c, 11, 61, 100
16, 16100, Note_on_c, 11, 61, 0
16, 16110, Note_on_c, 11, 62, 100
16, 16130, Note_on_c, 11, 62, 0
16, 16140, Note_on_c, 11, 61, 100
16, 16160, Note_on_c, 11, 61, 0
16, 16170, Note_on_c, 11, 62, 100
16, 16190, Note_on_c, 11, 62, 0
16, 16200, Note_on_c, 11, 61, 100
16, 16200, Lyric_t, "ni"
16, 16260, Note_on_c, 11, 61, 0
16, 16290, Note_on_c, 11, 57, 100
16, 16290, Lyric_t, "fi"
16, 16310, Note_on_c, 11, 57, 0
16, 16320, Note_on_c, 11, 57, 100
16, 16320, Lyric_t, "cat, "
16, 16400, Note_on_c, 11, 57, 0
16, 16620, Note_on_c, 11, 61, 100
16, 16620, Lyric_t, "mag"
16, 16660, Note_on_c, 11, 61, 0
16, 16680, Note_on_c, 11, 64, 100
16, 16680, Lyric_t, "ni"
16, 16740, Note_on_c, 11, 64, 0
16, 16770, Note_on_c, 11, 64, 100
16, 16770, Lyric_t, "fi"
16, 16790, Note_on_c, 11, 64, 0
16, 16800, Note_on_c, 11, 64, 100
16, 16800, Lyric_t, "cat, "
16, 16880, Note_on_c, 11, 64, 0
16, 16980, Note_on_c, 11, 66, 100
16, 16980, Lyric_t, "mag"
16, 17020, Note_on_c, 11, 66, 0
16, 17040, Note_on_c, 11, 61, 100
16, 17040, Lyric_t, "ni"
16, 17100, Note_on_c, 11, 61, 0
16, 17130, Note_on_c, 11, 61, 100
16, 17130, Lyric_t, "fi"
16, 17150, Note_on_c, 11, 61, 0
16, 17160, Note_on_c, 11, 61, 100
16, 17160, Lyric_t, "cat, "
16, 17240, Note_on_c, 11, 61, 0
16, 17700, Note_on_c, 11, 57, 100
16, 17700, Lyric_t, "mag"
16, 17720, Note_on_c, 11, 57, 0
16, 17730, Note_on_c, 11, 59, 100
16, 17750, Note_on_c, 11, 59, 0
16, 17760, Note_on_c, 11, 61, 100
16, 17780, Note_on_c, 11, 61, 0
16, 17790, Note_on_c, 11, 62, 100
16, 17810, Note_on_c, 11, 62, 0
16, 17820, Note_on_c, 11, 64, 100
16, 17860, Note_on_c, 11, 64, 0
16, 17880, Note_on_c, 11, 64, 100
16, 17900, Note_on_c, 11, 64, 0
16, 17910, Note_on_c, 11, 62, 100
16, 17930, Note_on_c, 11, 62, 0
16, 17940, Note_on_c, 11, 61, 100
16, 17960, Note_on_c, 11, 61, 0
16, 17970, Note_on_c, 11, 59, 100
16, 17990, Note_on_c, 11, 59, 0
16, 18000, Note_on_c, 11, 57, 100
16, 18000, Lyric_t, "ni"
16, 18060, Note_on_c, 11, 57, 0
16, 18090, Note_on_c, 11, 52, 100
16, 18090, Lyric_t, "fi"
16, 18110, Note_on_c, 11, 52, 0
16, 18120, Note_on_c, 11, 52, 100
16, 18120, Lyric_t, "cat, "
16, 18200, Note_on_c, 11, 52, 0
16, 19500, Note_on_c, 11, 54, 100
16, 19500, Lyric_t, "mag"
16, 19520, Note_on_c, 11, 54, 0
16, 19530, Note_on_c, 11, 56, 100
16, 19550, Note_on_c, 11, 56, 0
16, 19560, Note_on_c, 11, 57, 100
16, 19580, Note_on_c, 11, 57, 0
16, 19590, Note_on_c, 11, 59, 100
16, 19610, Note_on_c, 11, 59, 0
16, 19620, Note_on_c, 11, 61, 100
16, 19660, Note_on_c, 11, 61, 0
16, 19680, Note_on_c, 11, 59, 100
16, 19700, Note_on_c, 11, 59, 0
16, 19710, Note_on_c, 11, 57, 100
16, 19730, Note_on_c, 11, 57, 0
16, 19740, Note_on_c, 11, 55, 100
16, 19760, Note_on_c, 11, 55, 0
16, 19770, Note_on_c, 11, 54, 100
16, 19790, Note_on_c, 11, 54, 0
16, 19800, Note_on_c, 11, 55, 100
16, 19800, Lyric_t, "ni"
16, 19860, Note_on_c, 11, 55, 0
16, 19890, Note_on_c, 11, 55, 100
16, 19890, Lyric_t, "fi"
16, 19910, Note_on_c, 11, 55, 0
16, 19920, Note_on_c, 11, 55, 100
16, 19920, Lyric_t, "cat, "
16, 20000, Note_on_c, 11, 55, 0
16, 20220, Note_on_c, 11, 57, 100
16, 20220, Lyric_t, "mag"
16, 20260, Note_on_c, 11, 57, 0
16, 20280, Note_on_c, 11, 62, 100
16, 20300, Note_on_c, 11, 62, 0
16, 20310, Note_on_c, 11, 64, 100
16, 20330, Note_on_c, 11, 64, 0
16, 20340, Note_on_c, 11, 66, 100
16, 20380, Note_on_c, 11, 66, 0
16, 20400, Note_on_c, 11, 66, 100
16, 20420, Note_on_c, 11, 66, 0
16, 20430, Note_on_c, 11, 64, 100
16, 20450, Note_on_c, 11, 64, 0
16, 20460, Note_on_c, 11, 62, 100
16, 20480, Note_on_c, 11, 62, 0
16, 20490, Note_on_c, 11, 61, 100
16, 20510, Note_on_c, 11, 61, 0
16, 20520, Note_on_c, 11, 62, 100
16, 20520, Lyric_t, "ni"
16, 20580, Note_on_c, 11, 62, 0
16, 20610, Note_on_c, 11, 62, 100
16, 20610, Lyric_t, "fi"
16, 20630, Note_on_c, 11, 62, 0
16, 20640, Note_on_c, 11, 62, 100
16, 20640, Lyric_t, "cat, "
16, 20720, Note_on_c, 11, 62, 0
16, 21060, Note_on_c, 11, 57, 100
16, 21060, Lyric_t, "mag"
16, 21100, Note_on_c, 11, 57, 0
16, 21120, Note_on_c, 11, 57, 100
16, 21120, Lyric_t, "ni"
16, 21180, Note_on_c, 11, 57, 0
16, 21210, Note_on_c, 11, 57, 100
16, 21210, Lyric_t, "fi"
16, 21230, Note_on_c, 11, 57, 0
16, 21240, Note_on_c, 11, 57, 100
16, 21240, Lyric_t, "cat, "
16, 21320, Note_on_c, 11, 57, 0
16, 21420, Note_on_c, 11, 57, 100
16, 21420, Lyric_t, "mag"
16, 21460, Note_on_c, 11, 57, 0
16, 21480, Note_on_c, 11, 57, 100
16, 21480, Lyric_t, "ni"
16, 21540, Note_on_c, 11, 57, 0
16, 21570, Note_on_c, 11, 57, 100
16, 21570, Lyric_t, "fi"
16, 21590, Note_on_c, 11, 57, 0
16, 21600, Note_on_c, 11, 57, 100
16, 21600, Lyric_t, "cat, "
16, 21640, Note_on_c, 11, 57, 0
16, 21660, Note_on_c, 11, 57, 100
16, 21660, Lyric_t, "mag"
16, 21700, Note_on_c, 11, 57, 0
16, 21720, Note_on_c, 11, 62, 100
16, 21780, Note_on_c, 11, 62, 0
16, 21810, Note_on_c, 11, 64, 100
16, 21830, Note_on_c, 11, 64, 0
16, 21840, Note_on_c, 11, 62, 100
16, 21860, Note_on_c, 11, 62, 0
16, 21870, Note_on_c, 11, 64, 100
16, 21890, Note_on_c, 11, 64, 0
16, 21900, Note_on_c, 11, 62, 100
16, 21920, Note_on_c, 11, 62, 0
16, 21930, Note_on_c, 11, 64, 100
16, 21950, Note_on_c, 11, 64, 0
16, 21960, Note_on_c, 11, 62, 100
16, 21960, Lyric_t, "ni"
16, 22020, Note_on_c, 11, 62, 0
16, 22050, Note_on_c, 11, 61, 100
16, 22050, Lyric_t, "fi"
16, 22070, Note_on_c, 11, 61, 0
16, 22080, Note_on_c, 11, 59, 100
16, 22080, Lyric_t, "cat, "
16, 22160, Note_on_c, 11, 59, 0
16, 22380, Note_on_c, 11, 59, 100
16, 22380, Lyric_t, "mag"
16, 22400, Note_on_c, 11, 59, 0
16, 22410, Note_on_c, 11, 61, 100
16, 22430, Note_on_c, 11, 61, 0
16, 22440, Note_on_c, 11, 62, 100
16, 22460, Note_on_c, 11, 62, 0
16, 22470, Note_on_c, 11, 67, 100
16, 22490, Note_on_c, 11, 67, 0
16, 22500, Note_on_c, 11, 66, 100
16, 22520, Note_on_c, 11, 66, 0
16, 22530, Note_on_c, 11, 64, 100
16, 22550, Note_on_c, 11, 64, 0
16, 22560, Note_on_c, 11, 62, 100
16, 22580, Note_on_c, 11, 62, 0
16, 22590, Note_on_c, 11, 64, 100
16, 22610, Note_on_c, 11, 64, 0
16, 22620, Note_on_c, 11, 62, 100
16, 22640, Note_on_c, 11, 62, 0
16, 22650, Note_on_c, 11, 64, 100
16, 22670, Note_on_c, 11, 64, 0
16, 22680, Note_on_c, 11, 62, 100
16, 22680, Lyric_t, "ni"
16, 22740, Note_on_c, 11, 62, 0
16, 22770, Note_on_c, 11, 66, 100
16, 22770, Lyric_t, "fi"
16, 22790, Note_on_c, 11, 66, 0
16, 22800, Note_on_c, 11, 59, 100
16, 22800, Lyric_t, "cat, "
16, 22880, Note_on_c, 11, 59, 0
16, 22980, Note_on_c, 11, 62, 100
16, 22980, Lyric_t, "mag"
16, 23020, Note_on_c, 11, 62, 0
16, 23040, Note_on_c, 11, 59, 100
16, 23040, Lyric_t, "ni"
16, 23100, Note_on_c, 11, 59, 0
16, 23130, Note_on_c, 11, 57, 100
16, 23130, Lyric_t, "fi"
16, 23150, Note_on_c, 11, 57, 0
16, 23160, Note_on_c, 11, 55, 100
16, 23160, Lyric_t, "cat, "
16, 23240, Note_on_c, 11, 55, 0
16, 23700, Note_on_c, 11, 63, 100
16, 23700, Lyric_t, "mag"
16, 23740, Note_on_c, 11, 63, 0
16, 23760, Note_on_c, 11, 64, 100
16, 23760, Lyric_t, "ni"
16, 23820, Note_on_c, 11, 64, 0
16, 23850, Note_on_c, 11, 59, 100
16, 23850, Lyric_t, "fi"
16, 23870, Note_on_c, 11, 59, 0
16, 23880, Note_on_c, 11, 59, 100
16, 23880, Lyric_t, "cat, "
16, 23960, Note_on_c, 11, 59, 0
16, 24060, Note_on_c, 11, 55, 100
16, 24060, Lyric_t, "mag"
16, 24100, Note_on_c, 11, 55, 0
16, 24120, Note_on_c, 11, 57, 100
16, 24120, Lyric_t, "ni"
16, 24180, Note_on_c, 11, 57, 0
16, 24210, Note_on_c, 11, 57, 100
16, 24210, Lyric_t, "fi"
16, 24230, Note_on_c, 11, 57, 0
16, 24240, Note_on_c, 11, 57, 100
16, 24240, Lyric_t, "cat, "
16, 24320, Note_on_c, 11, 57, 0
16, 24420, Note_on_c, 11, 57, 100
16, 24420, Lyric_t, "mag"
16, 24460, Note_on_c, 11, 57, 0
16, 24480, Note_on_c, 11, 59, 100
16, 24480, Lyric_t, "ni"
16, 24540, Note_on_c, 11, 59, 0
16, 24570, Note_on_c, 11, 59, 100
16, 24570, Lyric_t, "fi"
16, 24590, Note_on_c, 11, 59, 0
16, 24600, Note_on_c, 11, 59, 100
16, 24600, Lyric_t, "cat, "
16, 24640, Note_on_c, 11, 59, 0
16, 24660, Note_on_c, 11, 55, 100
16, 24660, Lyric_t, "mag"
16, 24700, Note_on_c, 11, 55, 0
16, 24720, Note_on_c, 11, 59, 100
16, 24760, Note_on_c, 11, 59, 0
16, 24780, Note_on_c, 11, 62, 100
16, 24820, Note_on_c, 11, 62, 0
16, 24840, Note_on_c, 11, 64, 100
16, 24840, Lyric_t, "ni"
16, 24900, Note_on_c, 11, 64, 0
16, 24930, Note_on_c, 11, 64, 100
16, 24930, Lyric_t, "fi"
16, 24950, Note_on_c, 11, 64, 0
16, 24960, Note_on_c, 11, 64, 100
16, 24960, Lyric_t, "cat, "
16, 25000, Note_on_c, 11, 64, 0
16, 25020, Note_on_c, 11, 52, 100
16, 25020, Lyric_t, "mag"
16, 25060, Note_on_c, 11, 52, 0
16, 25080, Note_on_c, 11, 55, 100
16, 25120, Note_on_c, 11, 55, 0
16, 25140, Note_on_c, 11, 52, 100
16, 25180, Note_on_c, 11, 52, 0
16, 25200, Note_on_c, 11, 64, 100
16, 25200, Lyric_t, "ni"
16, 25260, Note_on_c, 11, 64, 0
16, 25290, Note_on_c, 11, 64, 100
16, 25290, Lyric_t, "fi"
16, 25310, Note_on_c, 11, 64, 0
16, 25320, Note_on_c, 11, 64, 100
16, 25320, Lyric_t, "cat "
16, 25360, Note_on_c, 11, 64, 0
16, 25380, Note_on_c, 11, 64, 100
16, 25380, Lyric_t, "a"
16, 25400, Note_on_c, 11, 64, 0
16, 25410, Note_on_c, 11, 62, 100
16, 25430, Note_on_c, 11, 62, 0
16, 25440, Note_on_c, 11, 61, 100
16, 25480, Note_on_c, 11, 61, 0
16, 25500, Note_on_c, 11, 62, 100
16, 25500, Lyric_t, "ni"
16, 25520, Note_on_c, 11, 62, 0
16, 25530, Note_on_c, 11, 64, 100
16, 25530, Lyric_t, "ma "
16, 25550, Note_on_c, 11, 64, 0
16, 25560, Note_on_c, 11, 57, 100
16, 25560, Lyric_t, "me"
16, 25600, Note_on_c, 11, 57, 0
16, 25620, Note_on_c, 11, 57, 100
16, 25620, Lyric_t, "a "
16, 25660, Note_on_c, 11, 57, 0
16, 25740, Note_on_c, 11, 57, 100
16, 25740, Lyric_t, "a"
16, 25760, Note_on_c, 11, 57, 0
16, 25770, Note_on_c, 11, 55, 100
16, 25790, Note_on_c, 11, 55, 0
16, 25800, Note_on_c, 11, 54, 100
16, 25840, Note_on_c, 11, 54, 0
16, 25860, Note_on_c, 11, 59, 100
16, 25860, Lyric_t, "ni"
16, 25880, Note_on_c, 11, 59, 0
16, 25890, Note_on_c, 11, 57, 100
16, 25890, Lyric_t, "ma "
16, 25910, Note_on_c, 11, 57, 0
16, 25920, Note_on_c, 11, 55, 100
16, 25920, Lyric_t, "me"
16, 25960, Note_on_c, 11, 55, 0
16, 25980, Note_on_c, 11, 59, 100
16, 25980, Lyric_t, "a "
16, 26020, Note_on_c, 11, 59, 0
16, 26040, Note_on_c, 11, 59, 100
16, 26040, Lyric_t, "a"
16, 26060, Note_on_c, 11, 59, 0
16, 26070, Note_on_c, 11, 57, 100
16, 26090, Note_on_c, 11, 57, 0
16, 26100, Note_on_c, 11, 55, 100
16, 26120, Note_on_c, 11, 55, 0
16, 26130, Note_on_c, 11, 54, 100
16, 26150, Note_on_c, 11, 54, 0
16, 26160, Note_on_c, 11, 55, 100
16, 26200, Note_on_c, 11, 55, 0
16, 26220, Note_on_c, 11, 57, 100
16, 26220, Lyric_t, "ni"
16, 26240, Note_on_c, 11, 57, 0
16, 26250, Note_on_c, 11, 59, 100
16, 26250, Lyric_t, "ma "
16, 26270, Note_on_c, 11, 59, 0
16, 26280, Note_on_c, 11, 52, 100
16, 26280, Lyric_t, "me"
16, 26320, Note_on_c, 11, 52, 0
16, 26340, Note_on_c, 11, 52, 100
16, 26340, Lyric_t, "a "
16, 26380, Note_on_c, 11, 52, 0
16, 26400, Note_on_c, 11, 54, 100
16, 26400, Lyric_t, "do"
16, 26440, Note_on_c, 11, 54, 0
16, 26460, Note_on_c, 11, 59, 100
16, 26500, Note_on_c, 11, 59, 0
16, 26520, Note_on_c, 11, 52, 100
16, 26560, Note_on_c, 11, 52, 0
16, 26580, Note_on_c, 11, 64, 100
16, 26580, Lyric_t, "ni"
16, 26620, Note_on_c, 11, 64, 0
16, 26640, Note_on_c, 11, 66, 100
16, 26640, Lyric_t, "num. "
16, 26720, Note_on_c, 11, 66, 0
16, 61080, Note_on_c, 11, 57, 90
16, 61109, Note_on_c, 11, 57, 0
16, 61110, Note_on_c, 11, 59, 90
16, 61139, Note_on_c, 11, 59, 0
16, 61140, Note_on_c, 11, 61, 90
16, 61169, Note_on_c, 11, 61, 0
16, 61170, Note_on_c, 11, 66, 90
16, 61199, Note_on_c, 11, 66, 0
16, 61200, Note_on_c, 11, 65, 90
16, 61229, Note_on_c, 11, 65, 0
16, 61230, Note_on_c, 11, 66, 90
16, 61259, Note_on_c, 11, 66, 0
16, 61260, Note_on_c, 11, 62, 90
16, 61319, Note_on_c, 11, 62, 0
16, 61320, Note_on_c, 11, 59, 90
16, 61379, Note_on_c, 11, 59, 0
16, 61380, Note_on_c, 11, 61, 90
16, 61439, Note_on_c, 11, 61, 0
16, 61440, Note_on_c, 11, 53, 90
16, 61499, Note_on_c, 11, 53, 0
16, 61500, Note_on_c, 11, 54, 90
16, 61529, Note_on_c, 11, 54, 0
16, 61530, Note_on_c, 11, 56, 90
16, 61559, Note_on_c, 11, 56, 0
16, 61560, Note_on_c, 11, 57, 90
16, 61589, Note_on_c, 11, 57, 0
16, 61590, Note_on_c, 11, 59, 90
16, 61619, Note_on_c, 11, 59, 0
16, 61620, Note_on_c, 11, 61, 90
16, 61649, Note_on_c, 11, 61, 0
16, 61650, Note_on_c, 11, 59, 90
16, 61679, Note_on_c, 11, 59, 0
16, 61680, Note_on_c, 11, 61, 90
16, 61709, Note_on_c, 11, 61, 0
16, 61710, Note_on_c, 11, 62, 90
16, 61739, Note_on_c, 11, 62, 0
16, 61740, Note_on_c, 11, 56, 90
16, 61799, Note_on_c, 11, 56, 0
16, 61800, Note_on_c, 11, 56, 90
16, 61859, Note_on_c, 11, 56, 0
16, 62220, Note_on_c, 11, 61, 90
16, 62279, Note_on_c, 11, 61, 0
16, 62280, Note_on_c, 11, 61, 90
16, 62339, Note_on_c, 11, 61, 0
16, 62340, Note_on_c, 11, 61, 90
16, 62399, Note_on_c, 11, 61, 0
16, 62400, Note_on_c, 11, 61, 90
16, 62459, Note_on_c, 11, 61, 0
16, 62460, Note_on_c, 11, 61, 90
16, 62519, Note_on_c, 11, 61, 0
16, 62520, Note_on_c, 11, 59, 90
16, 62549, Note_on_c, 11, 59, 0
16, 62550, Note_on_c, 11, 57, 90
16, 62579, Note_on_c, 11, 57, 0
16, 62580, Note_on_c, 11, 56, 90
16, 62639, Note_on_c, 11, 56, 0
16, 62640, Note_on_c, 11, 54, 90
16, 62699, Note_on_c, 11, 54, 0
16, 62700, Note_on_c, 11, 53, 90
16, 62729, Note_on_c, 11, 53, 0
16, 62730, Note_on_c, 11, 51, 90
16, 62759, Note_on_c, 11, 51, 0
16, 62760, Note_on_c, 11, 49, 90
16, 62789, Note_on_c, 11, 49, 0
16, 62790, Note_on_c, 11, 51, 90
16, 62819, Note_on_c, 11, 51, 0
16, 62820, Note_on_c, 11, 53, 90
16, 62849, Note_on_c, 11, 53, 0
16, 62850, Note_on_c, 11, 49, 90
16, 62879, Note_on_c, 11, 49, 0
16, 62880, Note_on_c, 11, 51, 90
16, 62909, Note_on_c, 11, 51, 0
16, 62910, Note_on_c, 11, 53, 90
16, 62939, Note_on_c, 11, 53, 0
16, 62940, Note_on_c, 11, 54, 90
16, 62969, Note_on_c, 11, 54, 0
16, 62970, Note_on_c, 11, 53, 90
16, 62999, Note_on_c, 11, 53, 0
16, 63000, Note_on_c, 11, 54, 90
16, 63029, Note_on_c, 11, 54, 0
16, 63030, Note_on_c, 11, 56, 90
16, 63059, Note_on_c, 11, 56, 0
16, 63060, Note_on_c, 11, 57, 90
16, 63089, Note_on_c, 11, 57, 0
16, 63090, Note_on_c, 11, 56, 90
16, 63119, Note_on_c, 11, 56, 0
16, 63120, Note_on_c, 11, 57, 90
16, 63149, Note_on_c, 11, 57, 0
16, 63150, Note_on_c, 11, 59, 90
16, 63179, Note_on_c, 11, 59, 0
16, 63180, Note_on_c, 11, 61, 90
16, 63239, Note_on_c, 11, 61, 0
16, 63240, Note_on_c, 11, 61, 90
16, 63299, Note_on_c, 11, 61, 0
16, 63960, Note_on_c, 11, 57, 90
16, 63989, Note_on_c, 11, 57, 0
16, 63990, Note_on_c, 11, 59, 90
16, 64019, Note_on_c, 11, 59, 0
16, 64020, Note_on_c, 11, 61, 90
16, 64049, Note_on_c, 11, 61, 0
16, 64050, Note_on_c, 11, 57, 90
16, 64079, Note_on_c, 11, 57, 0
16, 64080, Note_on_c, 11, 59, 90
16, 64109, Note_on_c, 11, 59, 0
16, 64110, Note_on_c, 11, 61, 90
16, 64139, Note_on_c, 11, 61, 0
16, 64140, Note_on_c, 11, 62, 90
16, 64199, Note_on_c, 11, 62, 0
16, 64200, Note_on_c, 11, 62, 90
16, 64259, Note_on_c, 11, 62, 0
16, 64260, Note_on_c, 11, 62, 90
16, 64319, Note_on_c, 11, 62, 0
16, 64320, Note_on_c, 11, 62, 90
16, 64379, Note_on_c, 11, 62, 0
16, 64380, Note_on_c, 11, 62, 90
16, 64439, Note_on_c, 11, 62, 0
16, 64440, Note_on_c, 11, 61, 90
16, 64469, Note_on_c, 11, 61, 0
16, 64470, Note_on_c, 11, 59, 90
16, 64499, Note_on_c, 11, 59, 0
16, 64500, Note_on_c, 11, 57, 90
16, 64559, Note_on_c, 11, 57, 0
16, 64560, Note_on_c, 11, 56, 90
16, 64619, Note_on_c, 11, 56, 0
16, 64620, Note_on_c, 11, 54, 90
16, 64679, Note_on_c, 11, 54, 0
16, 64680, Note_on_c, 11, 56, 90
16, 64709, Note_on_c, 11, 56, 0
16, 64710, Note_on_c, 11, 57, 90
16, 64739, Note_on_c, 11, 57, 0
16, 64740, Note_on_c, 11, 59, 90
16, 64919, Note_on_c, 11, 59, 0
16, 64920, Note_on_c, 11, 61, 90
16, 65009, Note_on_c, 11, 61, 0
16, 65010, Note_on_c, 11, 52, 90
16, 65039, Note_on_c, 11, 52, 0
16, 65040, Note_on_c, 11, 54, 90
16, 65069, Note_on_c, 11, 54, 0
16, 65070, Note_on_c, 11, 56, 90
16, 65099, Note_on_c, 11, 56, 0
16, 65100, Note_on_c, 11, 57, 90
16, 65129, Note_on_c, 11, 57, 0
16, 65130, Note_on_c, 11, 62, 90
16, 65159, Note_on_c, 11, 62, 0
16, 65160, Note_on_c, 11, 61, 90
16, 65189, Note_on_c, 11, 61, 0
16, 65190, Note_on_c, 11, 59, 90
16, 65219, Note_on_c, 11, 59, 0
16, 65220, Note_on_c, 11, 64, 90
16, 65339, Note_on_c, 11, 64, 0
16, 65340, Note_on_c, 11, 64, 90
16, 65459, Note_on_c, 11, 64, 0
16, 65820, Note_on_c, 11, 64, 90
16, 65879, Note_on_c, 11, 64, 0
16, 65880, Note_on_c, 11, 64, 90
16, 65939, Note_on_c, 11, 64, 0
16, 65940, Note_on_c, 11, 64, 90
16, 65999, Note_on_c, 11, 64, 0
16, 66000, Note_on_c, 11, 64, 90
16, 66059, Note_on_c, 11, 64, 0
16, 66060, Note_on_c, 11, 64, 90
16, 66119, Note_on_c, 11, 64, 0
16, 66120, Note_on_c, 11, 62, 90
16, 66149, Note_on_c, 11, 62, 0
16, 66150, Note_on_c, 11, 61, 90
16, 66179, Note_on_c, 11, 61, 0
16, 66180, Note_on_c, 11, 59, 90
16, 66239, Note_on_c, 11, 59, 0
16, 66240, Note_on_c, 11, 57, 90
16, 66299, Note_on_c, 11, 57, 0
16, 66300, Note_on_c, 11, 56, 90
16, 66329, Note_on_c, 11, 56, 0
16, 66330, Note_on_c, 11, 54, 90
16, 66359, Note_on_c, 11, 54, 0
16, 66360, Note_on_c, 11, 52, 90
16, 66389, Note_on_c, 11, 52, 0
16, 66390, Note_on_c, 11, 54, 90
16, 66419, Note_on_c, 11, 54, 0
16, 66420, Note_on_c, 11, 56, 90
16, 66449, Note_on_c, 11, 56, 0
16, 66450, Note_on_c, 11, 54, 90
16, 66479, Note_on_c, 11, 54, 0
16, 66480, Note_on_c, 11, 56, 90
16, 66509, Note_on_c, 11, 56, 0
16, 66510, Note_on_c, 11, 58, 90
16, 66539, Note_on_c, 11, 58, 0
16, 66540, Note_on_c, 11, 59, 90
16, 66569, Note_on_c, 11, 59, 0
16, 66570, Note_on_c, 11, 54, 90
16, 66599, Note_on_c, 11, 54, 0
16, 66600, Note_on_c, 11, 56, 90
16, 66629, Note_on_c, 11, 56, 0
16, 66630, Note_on_c, 11, 58, 90
16, 66659, Note_on_c, 11, 58, 0
16, 66660, Note_on_c, 11, 59, 90
16, 66689, Note_on_c, 11, 59, 0
16, 66690, Note_on_c, 11, 58, 90
16, 66719, Note_on_c, 11, 58, 0
16, 66720, Note_on_c, 11, 59, 90
16, 66749, Note_on_c, 11, 59, 0
16, 66750, Note_on_c, 11, 61, 90
16, 66779, Note_on_c, 11, 61, 0
16, 66780, Note_on_c, 11, 62, 90
16, 66839, Note_on_c, 11, 62, 0
16, 66840, Note_on_c, 11, 62, 90
16, 66899, Note_on_c, 11, 62, 0
16, 67020, Note_on_c, 11, 61, 90
16, 67079, Note_on_c, 11, 61, 0
16, 67080, Note_on_c, 11, 61, 90
16, 67139, Note_on_c, 11, 61, 0
16, 67140, Note_on_c, 11, 61, 90
16, 67199, Note_on_c, 11, 61, 0
16, 67200, Note_on_c, 11, 61, 90
16, 67259, Note_on_c, 11, 61, 0
16, 67260, Note_on_c, 11, 61, 90
16, 67319, Note_on_c, 11, 61, 0
16, 67320, Note_on_c, 11, 59, 90
16, 67349, Note_on_c, 11, 59, 0
16, 67350, Note_on_c, 11, 57, 90
16, 67379, Note_on_c, 11, 57, 0
16, 67380, Note_on_c, 11, 56, 90
16, 67439, Note_on_c, 11, 56, 0
16, 67440, Note_on_c, 11, 54, 90
16, 67499, Note_on_c, 11, 54, 0
16, 67500, Note_on_c, 11, 53, 90
16, 67529, Note_on_c, 11, 53, 0
16, 67530, Note_on_c, 11, 51, 90
16, 67559, Note_on_c, 11, 51, 0
16, 67560, Note_on_c, 11, 49, 90
16, 67589, Note_on_c, 11, 49, 0
16, 67590, Note_on_c, 11, 51, 90
16, 67619, Note_on_c, 11, 51, 0
16, 67620, Note_on_c, 11, 53, 90
16, 67649, Note_on_c, 11, 53, 0
16, 67650, Note_on_c, 11, 51, 90
16, 67679, Note_on_c, 11, 51, 0
16, 67680, Note_on_c, 11, 53, 90
16, 67709, Note_on_c, 11, 53, 0
16, 67710, Note_on_c, 11, 54, 90
16, 67739, Note_on_c, 11, 54, 0
16, 67740, Note_on_c, 11, 56, 90
16, 67769, Note_on_c, 11, 56, 0
16, 67770, Note_on_c, 11, 54, 90
16, 67799, Note_on_c, 11, 54, 0
16, 67800, Note_on_c, 11, 53, 90
16, 67829, Note_on_c, 11, 53, 0
16, 67830, Note_on_c, 11, 54, 90
16, 67859, Note_on_c, 11, 54, 0
16, 67860, Note_on_c, 11, 56, 90
16, 67889, Note_on_c, 11, 56, 0
16, 67890, Note_on_c, 11, 54, 90
16, 67919, Note_on_c, 11, 54, 0
16, 67920, Note_on_c, 11, 56, 90
16, 67949, Note_on_c, 11, 56, 0
16, 67950, Note_on_c, 11, 57, 90
16, 67979, Note_on_c, 11, 57, 0
16, 67980, Note_on_c, 11, 59, 90
16, 68009, Note_on_c, 11, 59, 0
16, 68010, Note_on_c, 11, 61, 90
16, 68039, Note_on_c, 11, 61, 0
16, 68040, Note_on_c, 11, 62, 90
16, 68159, Note_on_c, 11, 62, 0
16, 68160, Note_on_c, 11, 61, 90
16, 68189, Note_on_c, 11, 61, 0
16, 68190, Note_on_c, 11, 59, 90
16, 68219, Note_on_c, 11, 59, 0
16, 68220, Note_on_c, 11, 57, 90
16, 68279, Note_on_c, 11, 57, 0
16, 68280, Note_on_c, 11, 57, 90
16, 68339, Note_on_c, 11, 57, 0
16, 68700, Note_on_c, 11, 61, 90
16, 68759, Note_on_c, 11, 61, 0
16, 68760, Note_on_c, 11, 61, 90
16, 68819, Note_on_c, 11, 61, 0
16, 68820, Note_on_c, 11, 61, 90
16, 68879, Note_on_c, 11, 61, 0
16, 68880, Note_on_c, 11, 61, 90
16, 68939, Note_on_c, 11, 61, 0
16, 68940, Note_on_c, 11, 61, 90
16, 68999, Note_on_c, 11, 61, 0
16, 69000, Note_on_c, 11, 59, 90
16, 69029, Note_on_c, 11, 59, 0
16, 69030, Note_on_c, 11, 57, 90
16, 69059, Note_on_c, 11, 57, 0
16, 69060, Note_on_c, 11, 55, 90
16, 69119, Note_on_c, 11, 55, 0
16, 69120, Note_on_c, 11, 54, 90
16, 69179, Note_on_c, 11, 54, 0
16, 69180, Note_on_c, 11, 52, 90
16, 69239, Note_on_c, 11, 52, 0
16, 69240, Note_on_c, 11, 54, 90
16, 69269, Note_on_c, 11, 54, 0
16, 69270, Note_on_c, 11, 55, 90
16, 69299, Note_on_c, 11, 55, 0
16, 69300, Note_on_c, 11, 57, 90
16, 69479, Note_on_c, 11, 57, 0
16, 69480, Note_on_c, 11, 62, 90
16, 69509, Note_on_c, 11, 62, 0
16, 69510, Note_on_c, 11, 64, 90
16, 69539, Note_on_c, 11, 64, 0
16, 69540, Note_on_c, 11, 66, 90
16, 69569, Note_on_c, 11, 66, 0
16, 69570, Note_on_c, 11, 62, 90
16, 69599, Note_on_c, 11, 62, 0
16, 69600, Note_on_c, 11, 64, 90
16, 69629, Note_on_c, 11, 64, 0
16, 69630, Note_on_c, 11, 66, 90
16, 69659, Note_on_c, 11, 66, 0
16, 69660, Note_on_c, 11, 59, 90
16, 69719, Note_on_c, 11, 59, 0
16, 69720, Note_on_c, 11, 64, 90
16, 69779, Note_on_c, 11, 64, 0
16, 70140, Note_on_c, 11, 60, 90
16, 70199, Note_on_c, 11, 60, 0
16, 70200, Note_on_c, 11, 60, 90
16, 70259, Note_on_c, 11, 60, 0
16, 70260, Note_on_c, 11, 60, 90
16, 70319, Note_on_c, 11, 60, 0
16, 70320, Note_on_c, 11, 60, 90
16, 70379, Note_on_c, 11, 60, 0
16, 70380, Note_on_c, 11, 61, 90
16, 70469, Note_on_c, 11, 61, 0
16, 70470, Note_on_c, 11, 63, 90
16, 70499, Note_on_c, 11, 63, 0
16, 70500, Note_on_c, 11, 60, 90
16, 70619, Note_on_c, 11, 60, 0
16, 70620, Note_on_c, 11, 61, 90
16, 70739, Note_on_c, 11, 61, 0
16, 70800, Note_on_c, 11, 61, 90
16, 70829, Note_on_c, 11, 61, 0
16, 70830, Note_on_c, 11, 61, 90
16, 70859, Note_on_c, 11, 61, 0
16, 70860, Note_on_c, 11, 61, 90
16, 70919, Note_on_c, 11, 61, 0
16, 70920, Note_on_c, 11, 61, 90
16, 70979, Note_on_c, 11, 61, 0
16, 70980, Note_on_c, 11, 61, 90
16, 71039, Note_on_c, 11, 61, 0
16, 71040, Note_on_c, 11, 59, 90
16, 71069, Note_on_c, 11, 59, 0
16, 71070, Note_on_c, 11, 57, 90
16, 71099, Note_on_c, 11, 57, 0
16, 71100, Note_on_c, 11, 56, 90
16, 71159, Note_on_c, 11, 56, 0
16, 71160, Note_on_c, 11, 54, 90
16, 71219, Note_on_c, 11, 54, 0
16, 71220, Note_on_c, 11, 53, 90
16, 71249, Note_on_c, 11, 53, 0
16, 71250, Note_on_c, 11, 51, 90
16, 71279, Note_on_c, 11, 51, 0
16, 71280, Note_on_c, 11, 49, 90
16, 71309, Note_on_c, 11, 49, 0
16, 71310, Note_on_c, 11, 51, 90
16, 71339, Note_on_c, 11, 51, 0
16, 71340, Note_on_c, 11, 53, 90
16, 71369, Note_on_c, 11, 53, 0
16, 71370, Note_on_c, 11, 54, 90
16, 71399, Note_on_c, 11, 54, 0
16, 71400, Note_on_c, 11, 53, 90
16, 71429, Note_on_c, 11, 53, 0
16, 71430, Note_on_c, 11, 54, 90
16, 71459, Note_on_c, 11, 54, 0
16, 71460, Note_on_c, 11, 56, 90
16, 71489, Note_on_c, 11, 56, 0
16, 71490, Note_on_c, 11, 57, 90
16, 71519, Note_on_c, 11, 57, 0
16, 71520, Note_on_c, 11, 56, 90
16, 71549, Note_on_c, 11, 56, 0
16, 71550, Note_on_c, 11, 57, 90
16, 71579, Note_on_c, 11, 57, 0
16, 71580, Note_on_c, 11, 59, 90
16, 71730, Note_on_c, 11, 59, 0
16, 71730, Note_on_c, 11, 61, 90
16, 71759, Note_on_c, 11, 61, 0
16, 71760, Note_on_c, 11, 62, 90
16, 71789, Note_on_c, 11, 62, 0
16, 71790, Note_on_c, 11, 61, 90
16, 71819, Note_on_c, 11, 61, 0
16, 71820, Note_on_c, 11, 59, 90
16, 71970, Note_on_c, 11, 59, 0
16, 71970, Note_on_c, 11, 57, 90
16, 71999, Note_on_c, 11, 57, 0
16, 72000, Note_on_c, 11, 59, 90
16, 72029, Note_on_c, 11, 59, 0
16, 72030, Note_on_c, 11, 57, 90
16, 72059, Note_on_c, 11, 57, 0
16, 72060, Note_on_c, 11, 56, 90
16, 72179, Note_on_c, 11, 56, 0
16, 72180, Note_on_c, 11, 56, 90
16, 72299, Note_on_c, 11, 56, 0
16, 72300, Note_on_c, 11, 61, 90
16, 72359, Note_on_c, 11, 61, 0
16, 72360, Note_on_c, 11, 61, 90
16, 72419, Note_on_c, 11, 61, 0
16, 72420, Note_on_c, 11, 61, 90
16, 72479, Note_on_c, 11, 61, 0
16, 72480, Note_on_c, 11, 61, 90
16, 72539, Note_on_c, 11, 61, 0
16, 72540, Note_on_c, 11, 61, 90
16, 72599, Note_on_c, 11, 61, 0
16, 72600, Note_on_c, 11, 66, 90
16, 72659, Note_on_c, 11, 66, 0
16, 72660, Note_on_c, 11, 61, 90
16, 72719, Note_on_c, 11, 61, 0
16, 72720, Note_on_c, 11, 59, 90
16, 72749, Note_on_c, 11, 59, 0
16, 72750, Note_on_c, 11, 57, 90
16, 72779, Note_on_c, 11, 57, 0
16, 72780, Note_on_c, 11, 56, 90
16, 72839, Note_on_c, 11, 56, 0
16, 72840, Note_on_c, 11, 56, 90
16, 72899, Note_on_c, 11, 56, 0
16, 73020, Note_on_c, 11, 57, 90
16, 73049, Note_on_c, 11, 57, 0
16, 73050, Note_on_c, 11, 59, 90
16, 73079, Note_on_c, 11, 59, 0
16, 73080, Note_on_c, 11, 61, 90
16, 73109, Note_on_c, 11, 61, 0
16, 73110, Note_on_c, 11, 59, 90
16, 73139, Note_on_c, 11, 59, 0
16, 73140, Note_on_c, 11, 57, 90
16, 73169, Note_on_c, 11, 57, 0
16, 73170, Note_on_c, 11, 61, 90
16, 73199, Note_on_c, 11, 61, 0
16, 73200, Note_on_c, 11, 59, 90
16, 73229, Note_on_c, 11, 59, 0
16, 73230, Note_on_c, 11, 57, 90
16, 73259, Note_on_c, 11, 57, 0
16, 73260, Note_on_c, 11, 56, 90
16, 73319, Note_on_c, 11, 56, 0
16, 73320, Note_on_c, 11, 56, 90
16, 73349, Note_on_c, 11, 56, 0
16, 73350, Note_on_c, 11, 54, 90
16, 73379, Note_on_c, 11, 54, 0
16, 73380, Note_on_c, 11, 53, 90
16, 73439, Note_on_c, 11, 53, 0
16, 73440, Note_on_c, 11, 56, 90
16, 73499, Note_on_c, 11, 56, 0
16, 73500, Note_on_c, 11, 57, 90
16, 73589, Note_on_c, 11, 57, 0
16, 73590, Note_on_c, 11, 56, 90
16, 73619, Note_on_c, 11, 56, 0
16, 73620, Note_on_c, 11, 56, 90
16, 73739, Note_on_c, 11, 56, 0
16, 73740, Note_on_c, 11, 57, 90
16, 73979, Note_on_c, 11, 57, 0
16, 92700, Program_c, 11, 65
16, 93780, Note_on_c, 11, 59, 100
16, 93897, Note_on_c, 11, 59, 0
16, 93900, Note_on_c, 11, 57, 100
16, 93957, Note_on_c, 11, 57, 0
16, 93960, Note_on_c, 11, 60, 100
16, 94017, Note_on_c, 11, 60, 0
16, 94020, Note_on_c, 11, 59, 100
16, 94077, Note_on_c, 11, 59, 0
16, 94080, Note_on_c, 11, 57, 100
16, 94137, Note_on_c, 11, 57, 0
16, 94140, Note_on_c, 11, 57, 100
16, 94197, Note_on_c, 11, 57, 0
16, 94200, Note_on_c, 11, 59, 100
16, 94257, Note_on_c, 11, 59, 0
16, 94260, Note_on_c, 11, 60, 100
16, 94317, Note_on_c, 11, 60, 0
16, 94320, Note_on_c, 11, 60, 100
16, 94557, Note_on_c, 11, 60, 0
16, 94560, Note_on_c, 11, 59, 100
16, 94617, Note_on_c, 11, 59, 0
16, 94620, Note_on_c, 11, 57, 100
16, 94677, Note_on_c, 11, 57, 0
16, 94680, Note_on_c, 11, 66, 100
16, 94737, Note_on_c, 11, 66, 0
16, 94740, Note_on_c, 11, 59, 100
16, 94797, Note_on_c, 11, 59, 0
16, 94800, Note_on_c, 11, 57, 100
16, 94857, Note_on_c, 11, 57, 0
16, 94860, Note_on_c, 11, 56, 100
16, 94917, Note_on_c, 11, 56, 0
16, 94920, Note_on_c, 11, 57, 100
16, 94977, Note_on_c, 11, 57, 0
16, 94980, Note_on_c, 11, 59, 100
16, 95037, Note_on_c, 11, 59, 0
16, 95040, Note_on_c, 11, 59, 100
16, 95277, Note_on_c, 11, 59, 0
16, 95280, Note_on_c, 11, 57, 100
16, 95337, Note_on_c, 11, 57, 0
16, 95340, Note_on_c, 11, 56, 100
16, 95397, Note_on_c, 11, 56, 0
16, 95400, Note_on_c, 11, 64, 100
16, 95457, Note_on_c, 11, 64, 0
16, 95460, Note_on_c, 11, 57, 100
16, 95517, Note_on_c, 11, 57, 0
16, 95520, Note_on_c, 11, 55, 100
16, 95577, Note_on_c, 11, 55, 0
16, 95580, Note_on_c, 11, 57, 100
16, 95637, Note_on_c, 11, 57, 0
16, 95640, Note_on_c, 11, 55, 100
16, 95697, Note_on_c, 11, 55, 0
16, 95700, Note_on_c, 11, 54, 100
16, 95757, Note_on_c, 11, 54, 0
16, 95760, Note_on_c, 11, 63, 100
16, 95817, Note_on_c, 11, 63, 0
16, 95820, Note_on_c, 11, 64, 100
16, 95877, Note_on_c, 11, 64, 0
16, 95880, Note_on_c, 11, 66, 100
16, 95937, Note_on_c, 11, 66, 0
16, 95940, Note_on_c, 11, 55, 100
16, 95997, Note_on_c, 11, 55, 0
16, 96000, Note_on_c, 11, 60, 100
16, 96057, Note_on_c, 11, 60, 0
16, 96060, Note_on_c, 11, 59, 100
16, 96117, Note_on_c, 11, 59, 0
16, 96120, Note_on_c, 11, 59, 100
16, 96177, Note_on_c, 11, 59, 0
16, 96180, Note_on_c, 11, 57, 100
16, 96237, Note_on_c, 11, 57, 0
16, 96240, Note_on_c, 11, 59, 100
16, 96297, Note_on_c, 11, 59, 0
16, 96300, Note_on_c, 11, 59, 100
16, 96417, Note_on_c, 11, 59, 0
16, 98820, Note_on_c, 11, 62, 100
16, 98937, Note_on_c, 11, 62, 0
16, 98940, Note_on_c, 11, 61, 100
16, 98997, Note_on_c, 11, 61, 0
16, 99000, Note_on_c, 11, 64, 100
16, 99057, Note_on_c, 11, 64, 0
16, 99060, Note_on_c, 11, 62, 100
16, 99117, Note_on_c, 11, 62, 0
16, 99120, Note_on_c, 11, 61, 100
16, 99177, Note_on_c, 11, 61, 0
16, 99180, Note_on_c, 11, 61, 100
16, 99237, Note_on_c, 11, 61, 0
16, 99240, Note_on_c, 11, 62, 100
16, 99297, Note_on_c, 11, 62, 0
16, 99300, Note_on_c, 11, 64, 100
16, 99357, Note_on_c, 11, 64, 0
16, 99360, Note_on_c, 11, 64, 100
16, 99597, Note_on_c, 11, 64, 0
16, 99600, Note_on_c, 11, 62, 100
16, 99657, Note_on_c, 11, 62, 0
16, 99660, Note_on_c, 11, 61, 100
16, 99717, Note_on_c, 11, 61, 0
16, 99720, Note_on_c, 11, 64, 100
16, 99777, Note_on_c, 11, 64, 0
16, 99780, Note_on_c, 11, 62, 100
16, 99837, Note_on_c, 11, 62, 0
16, 99840, Note_on_c, 11, 61, 100
16, 99897, Note_on_c, 11, 61, 0
16, 99900, Note_on_c, 11, 59, 100
16, 99957, Note_on_c, 11, 59, 0
16, 99960, Note_on_c, 11, 61, 100
16, 100017, Note_on_c, 11, 61, 0
16, 100020, Note_on_c, 11, 63, 100
16, 100077, Note_on_c, 11, 63, 0
16, 100080, Note_on_c, 11, 63, 100
16, 100317, Note_on_c, 11, 63, 0
16, 100320, Note_on_c, 11, 64, 100
16, 100377, Note_on_c, 11, 64, 0
16, 100380, Note_on_c, 11, 59, 100
16, 100437, Note_on_c, 11, 59, 0
16, 100440, Note_on_c, 11, 62, 100
16, 100497, Note_on_c, 11, 62, 0
16, 100500, Note_on_c, 11, 61, 100
16, 100677, Note_on_c, 11, 61, 0
16, 100680, Note_on_c, 11, 59, 100
16, 100737, Note_on_c, 11, 59, 0
16, 100740, Note_on_c, 11, 58, 100
16, 100797, Note_on_c, 11, 58, 0
16, 100800, Note_on_c, 11, 66, 100
16, 101037, Note_on_c, 11, 66, 0
16, 101040, Note_on_c, 11, 64, 100
16, 101097, Note_on_c, 11, 64, 0
16, 101100, Note_on_c, 11, 62, 100
16, 101157, Note_on_c, 11, 62, 0
16, 101160, Note_on_c, 11, 61, 100
16, 101217, Note_on_c, 11, 61, 0
16, 101220, Note_on_c, 11, 59, 100
16, 101277, Note_on_c, 11, 59, 0
16, 101280, Note_on_c, 11, 58, 100
16, 101337, Note_on_c, 11, 58, 0
16, 101340, Note_on_c, 11, 59, 100
16, 101457, Note_on_c, 11, 59, 0
16, 101460, Note_on_c, 11, 62, 100
16, 101517, Note_on_c, 11, 62, 0
16, 101520, Note_on_c, 11, 65, 100
16, 101757, Note_on_c, 11, 65, 0
16, 101760, Note_on_c, 11, 64, 100
16, 101817, Note_on_c, 11, 64, 0
16, 101820, Note_on_c, 11, 62, 100
16, 101937, Note_on_c, 11, 62, 0
16, 101940, Note_on_c, 11, 60, 100
16, 101997, Note_on_c, 11, 60, 0
16, 102000, Note_on_c, 11, 59, 100
16, 102057, Note_on_c, 11, 59, 0
16, 102060, Note_on_c, 11, 60, 100
16, 102117, Note_on_c, 11, 60, 0
16, 102120, Note_on_c, 11, 62, 100
16, 102177, Note_on_c, 11, 62, 0
16, 102180, Note_on_c, 11, 64, 100
16, 102237, Note_on_c, 11, 64, 0
16, 103080, Note_on_c, 11, 62, 100
16, 103137, Note_on_c, 11, 62, 0
16, 103140, Note_on_c, 11, 61, 100
16, 103197, Note_on_c, 11, 61, 0
16, 103200, Note_on_c, 11, 62, 100
16, 103257, Note_on_c, 11, 62, 0
16, 103260, Note_on_c, 11, 64, 100
16, 103377, Note_on_c, 11, 64, 0
16, 103380, Note_on_c, 11, 62, 100
16, 103437, Note_on_c, 11, 62, 0
16, 103440, Note_on_c, 11, 61, 100
16, 103497, Note_on_c, 11, 61, 0
16, 103500, Note_on_c, 11, 62, 100
16, 103557, Note_on_c, 11, 62, 0
16, 103560, Note_on_c, 11, 64, 100
16, 103617, Note_on_c, 11, 64, 0
16, 103620, Note_on_c, 11, 65, 100
16, 103677, Note_on_c, 11, 65, 0
16, 105300, Note_on_c, 11, 60, 100
16, 105417, Note_on_c, 11, 60, 0
16, 105420, Note_on_c, 11, 59, 100
16, 105477, Note_on_c, 11, 59, 0
16, 105480, Note_on_c, 11, 62, 100
16, 105537, Note_on_c, 11, 62, 0
16, 105540, Note_on_c, 11, 60, 100
16, 105597, Note_on_c, 11, 60, 0
16, 105600, Note_on_c, 11, 59, 100
16, 105657, Note_on_c, 11, 59, 0
16, 105660, Note_on_c, 11, 59, 100
16, 105717, Note_on_c, 11, 59, 0
16, 105720, Note_on_c, 11, 60, 100
16, 105777, Note_on_c, 11, 60, 0
16, 105780, Note_on_c, 11, 62, 100
16, 105837, Note_on_c, 11, 62, 0
16, 105840, Note_on_c, 11, 62, 100
16, 106077, Note_on_c, 11, 62, 0
16, 106080, Note_on_c, 11, 60, 100
16, 106137, Note_on_c, 11, 60, 0
16, 106140, Note_on_c, 11, 59, 100
16, 106197, Note_on_c, 11, 59, 0
16, 106200, Note_on_c, 11, 62, 100
16, 106257, Note_on_c, 11, 62, 0
16, 106260, Note_on_c, 11, 60, 100
16, 106317, Note_on_c, 11, 60, 0
16, 106320, Note_on_c, 11, 59, 100
16, 106377, Note_on_c, 11, 59, 0
16, 106380, Note_on_c, 11, 57, 100
16, 106437, Note_on_c, 11, 57, 0
16, 106440, Note_on_c, 11, 59, 100
16, 106497, Note_on_c, 11, 59, 0
16, 106500, Note_on_c, 11, 61, 100
16, 106557, Note_on_c, 11, 61, 0
16, 106560, Note_on_c, 11, 61, 100
16, 106797, Note_on_c, 11, 61, 0
16, 106800, Note_on_c, 11, 62, 100
16, 106857, Note_on_c, 11, 62, 0
16, 106860, Note_on_c, 11, 57, 100
16, 106917, Note_on_c, 11, 57, 0
16, 106920, Note_on_c, 11, 60, 100
16, 106977, Note_on_c, 11, 60, 0
16, 106980, Note_on_c, 11, 59, 100
16, 107157, Note_on_c, 11, 59, 0
16, 107160, Note_on_c, 11, 57, 100
16, 107217, Note_on_c, 11, 57, 0
16, 107220, Note_on_c, 11, 56, 100
16, 107277, Note_on_c, 11, 56, 0
16, 107280, Note_on_c, 11, 64, 100
16, 107517, Note_on_c, 11, 64, 0
16, 107520, Note_on_c, 11, 62, 100
16, 107577, Note_on_c, 11, 62, 0
16, 107580, Note_on_c, 11, 60, 100
16, 107637, Note_on_c, 11, 60, 0
16, 107640, Note_on_c, 11, 59, 100
16, 107697, Note_on_c, 11, 59, 0
16, 107700, Note_on_c, 11, 57, 100
16, 107757, Note_on_c, 11, 57, 0
16, 107760, Note_on_c, 11, 55, 100
16, 107817, Note_on_c, 11, 55, 0
16, 107820, Note_on_c, 11, 57, 100
16, 107937, Note_on_c, 11, 57, 0
16, 107940, Note_on_c, 11, 59, 100
16, 107997, Note_on_c, 11, 59, 0
16, 108000, Note_on_c, 11, 60, 100
16, 108237, Note_on_c, 11, 60, 0
16, 108240, Note_on_c, 11, 59, 100
16, 108297, Note_on_c, 11, 59, 0
16, 108300, Note_on_c, 11, 57, 100
16, 108417, Note_on_c, 11, 57, 0
16, 108420, Note_on_c, 11, 55, 100
16, 108477, Note_on_c, 11, 55, 0
16, 108480, Note_on_c, 11, 54, 100
16, 108537, Note_on_c, 11, 54, 0
16, 108540, Note_on_c, 11, 55, 100
16, 108597, Note_on_c, 11, 55, 0
16, 108600, Note_on_c, 11, 57, 100
16, 108657, Note_on_c, 11, 57, 0
16, 108660, Note_on_c, 11, 59, 100
16, 108717, Note_on_c, 11, 59, 0
16, 109560, Note_on_c, 11, 57, 100
16, 109617, Note_on_c, 11, 57, 0
16, 109620, Note_on_c, 11, 63, 100
16, 109677, Note_on_c, 11, 63, 0
16, 109680, Note_on_c, 11, 64, 100
16, 109737, Note_on_c, 11, 64, 0
16, 109740, Note_on_c, 11, 66, 100
16, 109857, Note_on_c, 11, 66, 0
16, 109860, Note_on_c, 11, 64, 100
16, 109917, Note_on_c, 11, 64, 0
16, 109920, Note_on_c, 11, 63, 100
16, 109977, Note_on_c, 11, 63, 0
16, 109980, Note_on_c, 11, 64, 100
16, 110037, Note_on_c, 11, 64, 0
16, 110040, Note_on_c, 11, 66, 100
16, 110097, Note_on_c, 11, 66, 0
16, 110100, Note_on_c, 11, 67, 100
16, 110157, Note_on_c, 11, 67, 0
16, 110280, Note_on_c, 11, 57, 100
16, 110337, Note_on_c, 11, 57, 0
16, 110340, Note_on_c, 11, 57, 100
16, 110397, Note_on_c, 11, 57, 0
16, 110400, Note_on_c, 11, 55, 100
16, 110457, Note_on_c, 11, 55, 0
16, 110460, Note_on_c, 11, 54, 100
16, 110517, Note_on_c, 11, 54, 0
16, 110520, Note_on_c, 11, 60, 100
16, 110577, Note_on_c, 11, 60, 0
16, 110580, Note_on_c, 11, 59, 100
16, 110637, Note_on_c, 11, 59, 0
16, 110640, Note_on_c, 11, 57, 100
16, 110697, Note_on_c, 11, 57, 0
16, 110700, Note_on_c, 11, 57, 100
16, 110877, Note_on_c, 11, 57, 0
16, 111000, Note_on_c, 11, 54, 100
16, 111057, Note_on_c, 11, 54, 0
16, 111060, Note_on_c, 11, 56, 100
16, 111117, Note_on_c, 11, 56, 0
16, 111120, Note_on_c, 11, 54, 100
16, 111177, Note_on_c, 11, 54, 0
16, 111180, Note_on_c, 11, 52, 100
16, 111237, Note_on_c, 11, 52, 0
16, 111240, Note_on_c, 11, 59, 100
16, 111297, Note_on_c, 11, 59, 0
16, 111300, Note_on_c, 11, 57, 100
16, 111357, Note_on_c, 11, 57, 0
16, 111360, Note_on_c, 11, 56, 100
16, 111477, Note_on_c, 11, 56, 0
16, 111480, Note_on_c, 11, 60, 100
16, 111537, Note_on_c, 11, 60, 0
16, 111540, Note_on_c, 11, 59, 100
16, 111597, Note_on_c, 11, 59, 0
16, 111600, Note_on_c, 11, 57, 100
16, 111657, Note_on_c, 11, 57, 0
16, 111660, Note_on_c, 11, 59, 100
16, 111717, Note_on_c, 11, 59, 0
16, 111720, Note_on_c, 11, 60, 100
16, 111777, Note_on_c, 11, 60, 0
16, 111780, Note_on_c, 11, 54, 100
16, 111957, Note_on_c, 11, 54, 0
16, 112080, Note_on_c, 11, 59, 100
16, 112137, Note_on_c, 11, 59, 0
16, 112140, Note_on_c, 11, 59, 100
16, 112197, Note_on_c, 11, 59, 0
16, 112200, Note_on_c, 11, 63, 100
16, 112257, Note_on_c, 11, 63, 0
16, 112260, Note_on_c, 11, 64, 100
16, 112317, Note_on_c, 11, 64, 0
16, 112320, Note_on_c, 11, 60, 100
16, 112377, Note_on_c, 11, 60, 0
16, 112380, Note_on_c, 11, 59, 100
16, 112437, Note_on_c, 11, 59, 0
16, 112440, Note_on_c, 11, 57, 100
16, 112497, Note_on_c, 11, 57, 0
16, 112500, Note_on_c, 11, 55, 100
16, 112617, Note_on_c, 11, 55, 0
16, 112800, Note_on_c, 11, 60, 100
16, 112857, Note_on_c, 11, 60, 0
16, 112860, Note_on_c, 11, 58, 100
16, 112917, Note_on_c, 11, 58, 0
16, 112920, Note_on_c, 11, 58, 100
16, 112977, Note_on_c, 11, 58, 0
16, 112980, Note_on_c, 11, 58, 100
16, 113037, Note_on_c, 11, 58, 0
16, 113040, Note_on_c, 11, 57, 100
16, 113097, Note_on_c, 11, 57, 0
16, 113100, Note_on_c, 11, 57, 100
16, 113157, Note_on_c, 11, 57, 0
16, 113160, Note_on_c, 11, 57, 100
16, 113217, Note_on_c, 11, 57, 0
16, 113220, Note_on_c, 11, 56, 100
16, 113277, Note_on_c, 11, 56, 0
16, 113280, Note_on_c, 11, 54, 100
16, 113337, Note_on_c, 11, 54, 0
16, 113340, Note_on_c, 11, 55, 100
16, 113397, Note_on_c, 11, 55, 0
16, 113400, Note_on_c, 11, 54, 100
16, 113517, Note_on_c, 11, 54, 0
16, 113520, Note_on_c, 11, 52, 100
16, 113577, Note_on_c, 11, 52, 0
16, 113580, Note_on_c, 11, 52, 100
16, 113697, Note_on_c, 11, 52, 0
16, 117120, Program_c, 11, 51
16, 117180, Control_c, 11, 0, 0
16, 117180, Note_on_c, 11, 55, 100
16, 117220, Note_on_c, 11, 55, 0
16, 117240, Note_on_c, 11, 59, 100
16, 117260, Note_on_c, 11, 59, 0
16, 117270, Note_on_c, 11, 57, 100
16, 117290, Note_on_c, 11, 57, 0
16, 117300, Note_on_c, 11, 55, 100
16, 117340, Note_on_c, 11, 55, 0
16, 117360, Note_on_c, 11, 55, 100
16, 117400, Note_on_c, 11, 55, 0
16, 117420, Note_on_c, 11, 55, 100
16, 117440, Note_on_c, 11, 55, 0
16, 117450, Note_on_c, 11, 50, 100
16, 117470, Note_on_c, 11, 50, 0
16, 117480, Note_on_c, 11, 52, 100
16, 117500, Note_on_c, 11, 52, 0
16, 117510, Note_on_c, 11, 53, 100
16, 117530, Note_on_c, 11, 53, 0
16, 117540, Note_on_c, 11, 55, 100
16, 117560, Note_on_c, 11, 55, 0
16, 117570, Note_on_c, 11, 59, 100
16, 117590, Note_on_c, 11, 59, 0
16, 117600, Note_on_c, 11, 57, 100
16, 117620, Note_on_c, 11, 57, 0
16, 117630, Note_on_c, 11, 55, 100
16, 117650, Note_on_c, 11, 55, 0
16, 117660, Note_on_c, 11, 60, 100
16, 117680, Note_on_c, 11, 60, 0
16, 117690, Note_on_c, 11, 50, 100
16, 117710, Note_on_c, 11, 50, 0
16, 117720, Note_on_c, 11, 52, 100
16, 117740, Note_on_c, 11, 52, 0
16, 117750, Note_on_c, 11, 54, 100
16, 117770, Note_on_c, 11, 54, 0
16, 117780, Note_on_c, 11, 55, 100
16, 117800, Note_on_c, 11, 55, 0
16, 117810, Note_on_c, 11, 57, 100
16, 117830, Note_on_c, 11, 57, 0
16, 117840, Note_on_c, 11, 59, 100
16, 117860, Note_on_c, 11, 59, 0
16, 117870, Note_on_c, 11, 57, 100
16, 117890, Note_on_c, 11, 57, 0
16, 117900, Note_on_c, 11, 55, 100
16, 117920, Note_on_c, 11, 55, 0
16, 117930, Note_on_c, 11, 62, 100
16, 117950, Note_on_c, 11, 62, 0
16, 117960, Note_on_c, 11, 50, 100
16, 117980, Note_on_c, 11, 50, 0
16, 117990, Note_on_c, 11, 52, 100
16, 118010, Note_on_c, 11, 52, 0
16, 118020, Note_on_c, 11, 54, 100
16, 118040, Note_on_c, 11, 54, 0
16, 118050, Note_on_c, 11, 55, 100
16, 118070, Note_on_c, 11, 55, 0
16, 118080, Note_on_c, 11, 57, 100
16, 118100, Note_on_c, 11, 57, 0
16, 118110, Note_on_c, 11, 59, 100
16, 118130, Note_on_c, 11, 59, 0
16, 118140, Note_on_c, 11, 64, 100
16, 118160, Note_on_c, 11, 64, 0
16, 118170, Note_on_c, 11, 67, 100
16, 118190, Note_on_c, 11, 67, 0
16, 118200, Note_on_c, 11, 65, 100
16, 118220, Note_on_c, 11, 65, 0
16, 118230, Note_on_c, 11, 67, 100
16, 118250, Note_on_c, 11, 67, 0
16, 118260, Note_on_c, 11, 64, 100
16, 118280, Note_on_c, 11, 64, 0
16, 118290, Note_on_c, 11, 65, 100
16, 118310, Note_on_c, 11, 65, 0
16, 118320, Note_on_c, 11, 62, 100
16, 118340, Note_on_c, 11, 62, 0
16, 118350, Note_on_c, 11, 64, 100
16, 118370, Note_on_c, 11, 64, 0
16, 118380, Note_on_c, 11, 60, 100
16, 118400, Note_on_c, 11, 60, 0
16, 118410, Note_on_c, 11, 62, 100
16, 118430, Note_on_c, 11, 62, 0
16, 118440, Note_on_c, 11, 59, 100
16, 118460, Note_on_c, 11, 59, 0
16, 118470, Note_on_c, 11, 60, 100
16, 118490, Note_on_c, 11, 60, 0
16, 118500, Note_on_c, 11, 57, 100
16, 118520, Note_on_c, 11, 57, 0
16, 118530, Note_on_c, 11, 62, 100
16, 118550, Note_on_c, 11, 62, 0
16, 118560, Note_on_c, 11, 60, 100
16, 118580, Note_on_c, 11, 60, 0
16, 118590, Note_on_c, 11, 62, 100
16, 118610, Note_on_c, 11, 62, 0
16, 118620, Note_on_c, 11, 59, 100
16, 118660, Note_on_c, 11, 59, 0
16, 118680, Note_on_c, 11, 57, 100
16, 118700, Note_on_c, 11, 57, 0
16, 118710, Note_on_c, 11, 59, 100
16, 118730, Note_on_c, 11, 59, 0
16, 118740, Note_on_c, 11, 55, 100
16, 118780, Note_on_c, 11, 55, 0
16, 118800, Note_on_c, 11, 57, 100
16, 118840, Note_on_c, 11, 57, 0
16, 118860, Note_on_c, 11, 59, 100
16, 118900, Note_on_c, 11, 59, 0
16, 118920, Note_on_c, 11, 55, 100
16, 118940, Note_on_c, 11, 55, 0
16, 118950, Note_on_c, 11, 59, 100
16, 118970, Note_on_c, 11, 59, 0
16, 118980, Note_on_c, 11, 61, 100
16, 119020, Note_on_c, 11, 61, 0
16, 119040, Note_on_c, 11, 57, 100
16, 119060, Note_on_c, 11, 57, 0
16, 119070, Note_on_c, 11, 61, 100
16, 119090, Note_on_c, 11, 61, 0
16, 119100, Note_on_c, 11, 62, 100
16, 119140, Note_on_c, 11, 62, 0
16, 119160, Note_on_c, 11, 57, 100
16, 119180, Note_on_c, 11, 57, 0
16, 119190, Note_on_c, 11, 55, 100
16, 119210, Note_on_c, 11, 55, 0
16, 119220, Note_on_c, 11, 54, 100
16, 119260, Note_on_c, 11, 54, 0
16, 119280, Note_on_c, 11, 57, 100
16, 119320, Note_on_c, 11, 57, 0
16, 119340, Note_on_c, 11, 66, 100
16, 119400, Note_on_c, 11, 66, 0
16, 119430, Note_on_c, 11, 66, 100
16, 119450, Note_on_c, 11, 66, 0
16, 119460, Note_on_c, 11, 66, 100
16, 119540, Note_on_c, 11, 66, 0
16, 119640, Note_on_c, 11, 62, 100
16, 119680, Note_on_c, 11, 62, 0
16, 119700, Note_on_c, 11, 62, 100
16, 119740, Note_on_c, 11, 62, 0
16, 119760, Note_on_c, 11, 62, 100
16, 119800, Note_on_c, 11, 62, 0
16, 119820, Note_on_c, 11, 62, 100
16, 119880, Note_on_c, 11, 62, 0
16, 119910, Note_on_c, 11, 62, 100
16, 119930, Note_on_c, 11, 62, 0
16, 119940, Note_on_c, 11, 62, 100
16, 120020, Note_on_c, 11, 62, 0
16, 120120, Note_on_c, 11, 50, 100
16, 120178, Note_on_c, 11, 50, 0
16, 120180, Note_on_c, 11, 62, 100
16, 120358, Note_on_c, 11, 62, 0
16, 120360, Note_on_c, 11, 64, 100
16, 120388, Note_on_c, 11, 64, 0
16, 120390, Note_on_c, 11, 62, 100
16, 120418, Note_on_c, 11, 62, 0
16, 120420, Note_on_c, 11, 61, 100
16, 120538, Note_on_c, 11, 61, 0
16, 120540, Note_on_c, 11, 62, 100
16, 120580, Note_on_c, 11, 62, 0
16, 120600, Note_on_c, 11, 57, 100
16, 120640, Note_on_c, 11, 57, 0
16, 120660, Note_on_c, 11, 59, 100
16, 120680, Note_on_c, 11, 59, 0
16, 120690, Note_on_c, 11, 60, 100
16, 120710, Note_on_c, 11, 60, 0
16, 120720, Note_on_c, 11, 57, 100
16, 120740, Note_on_c, 11, 57, 0
16, 120750, Note_on_c, 11, 59, 100
16, 120770, Note_on_c, 11, 59, 0
16, 120780, Note_on_c, 11, 60, 100
16, 120800, Note_on_c, 11, 60, 0
16, 120810, Note_on_c, 11, 62, 100
16, 120830, Note_on_c, 11, 62, 0
16, 120840, Note_on_c, 11, 64, 100
16, 120860, Note_on_c, 11, 64, 0
16, 120870, Note_on_c, 11, 60, 100
16, 120890, Note_on_c, 11, 60, 0
16, 120900, Note_on_c, 11, 57, 100
16, 120920, Note_on_c, 11, 57, 0
16, 120930, Note_on_c, 11, 59, 100
16, 120950, Note_on_c, 11, 59, 0
16, 120960, Note_on_c, 11, 60, 100
16, 120980, Note_on_c, 11, 60, 0
16, 120990, Note_on_c, 11, 57, 100
16, 121010, Note_on_c, 11, 57, 0
16, 121020, Note_on_c, 11, 57, 100
16, 121060, Note_on_c, 11, 57, 0
16, 121080, Note_on_c, 11, 59, 100
16, 121100, Note_on_c, 11, 59, 0
16, 121110, Note_on_c, 11, 60, 100
16, 121130, Note_on_c, 11, 60, 0
16, 121140, Note_on_c, 11, 62, 100
16, 121180, Note_on_c, 11, 62, 0
16, 121200, Note_on_c, 11, 67, 100
16, 121240, Note_on_c, 11, 67, 0
16, 121260, Note_on_c, 11, 55, 100
16, 121348, Note_on_c, 11, 55, 0
16, 121350, Note_on_c, 11, 55, 100
16, 121378, Note_on_c, 11, 55, 0
16, 121380, Note_on_c, 11, 55, 100
16, 121498, Note_on_c, 11, 55, 0
16, 121560, Note_on_c, 11, 55, 100
16, 121618, Note_on_c, 11, 55, 0
16, 121620, Note_on_c, 11, 60, 100
16, 121678, Note_on_c, 11, 60, 0
16, 121680, Note_on_c, 11, 64, 100
16, 121738, Note_on_c, 11, 64, 0
16, 121740, Note_on_c, 11, 62, 100
16, 121828, Note_on_c, 11, 62, 0
16, 121830, Note_on_c, 11, 62, 100
16, 121858, Note_on_c, 11, 62, 0
16, 121860, Note_on_c, 11, 62, 100
16, 121918, Note_on_c, 11, 62, 0
16, 121920, Note_on_c, 11, 62, 100
16, 121978, Note_on_c, 11, 62, 0
16, 121980, Note_on_c, 11, 60, 100
16, 122008, Note_on_c, 11, 60, 0
16, 122010, Note_on_c, 11, 64, 100
16, 122038, Note_on_c, 11, 64, 0
16, 122040, Note_on_c, 11, 62, 100
16, 122068, Note_on_c, 11, 62, 0
16, 122070, Note_on_c, 11, 64, 100
16, 122098, Note_on_c, 11, 64, 0
16, 122100, Note_on_c, 11, 60, 100
16, 122128, Note_on_c, 11, 60, 0
16, 122130, Note_on_c, 11, 62, 100
16, 122158, Note_on_c, 11, 62, 0
16, 122160, Note_on_c, 11, 59, 100
16, 122188, Note_on_c, 11, 59, 0
16, 122190, Note_on_c, 11, 60, 100
16, 122218, Note_on_c, 11, 60, 0
16, 122220, Note_on_c, 11, 57, 100
16, 122278, Note_on_c, 11, 57, 0
16, 122280, Note_on_c, 11, 60, 100
16, 122308, Note_on_c, 11, 60, 0
16, 122310, Note_on_c, 11, 57, 100
16, 122338, Note_on_c, 11, 57, 0
16, 122340, Note_on_c, 11, 62, 100
16, 122398, Note_on_c, 11, 62, 0
16, 122400, Note_on_c, 11, 50, 100
16, 122458, Note_on_c, 11, 50, 0
16, 122520, Note_on_c, 11, 55, 100
16, 122578, Note_on_c, 11, 55, 0
16, 122580, Note_on_c, 11, 60, 100
16, 122608, Note_on_c, 11, 60, 0
16, 122610, Note_on_c, 11, 57, 100
16, 122638, Note_on_c, 11, 57, 0
16, 122640, Note_on_c, 11, 60, 100
16, 122668, Note_on_c, 11, 60, 0
16, 122670, Note_on_c, 11, 57, 100
16, 122698, Note_on_c, 11, 57, 0
16, 122700, Note_on_c, 11, 62, 100
16, 122728, Note_on_c, 11, 62, 0
16, 122730, Note_on_c, 11, 60, 100
16, 122758, Note_on_c, 11, 60, 0
16, 122760, Note_on_c, 11, 62, 100
16, 122788, Note_on_c, 11, 62, 0
16, 122790, Note_on_c, 11, 59, 100
16, 122818, Note_on_c, 11, 59, 0
16, 122820, Note_on_c, 11, 64, 100
16, 122848, Note_on_c, 11, 64, 0
16, 122850, Note_on_c, 11, 62, 100
16, 122878, Note_on_c, 11, 62, 0
16, 122880, Note_on_c, 11, 64, 100
16, 122908, Note_on_c, 11, 64, 0
16, 122910, Note_on_c, 11, 61, 100
16, 122938, Note_on_c, 11, 61, 0
16, 122940, Note_on_c, 11, 57, 100
16, 122998, Note_on_c, 11, 57, 0
16, 123000, Note_on_c, 11, 62, 100
16, 123028, Note_on_c, 11, 62, 0
16, 123030, Note_on_c, 11, 61, 100
16, 123058, Note_on_c, 11, 61, 0
16, 123060, Note_on_c, 11, 62, 100
16, 123118, Note_on_c, 11, 62, 0
16, 123120, Note_on_c, 11, 57, 100
16, 123178, Note_on_c, 11, 57, 0
16, 123180, Note_on_c, 11, 57, 100
16, 123268, Note_on_c, 11, 57, 0
16, 123270, Note_on_c, 11, 57, 100
16, 123298, Note_on_c, 11, 57, 0
16, 123300, Note_on_c, 11, 57, 100
16, 123418, Note_on_c, 11, 57, 0
16, 123480, Note_on_c, 11, 59, 100
16, 123538, Note_on_c, 11, 59, 0
16, 123540, Note_on_c, 11, 55, 100
16, 123598, Note_on_c, 11, 55, 0
16, 123600, Note_on_c, 11, 50, 100
16, 123658, Note_on_c, 11, 50, 0
16, 123660, Note_on_c, 11, 54, 100
16, 123748, Note_on_c, 11, 54, 0
16, 123750, Note_on_c, 11, 54, 100
16, 123778, Note_on_c, 11, 54, 0
16, 123780, Note_on_c, 11, 54, 100
16, 123838, Note_on_c, 11, 54, 0
16, 123840, Note_on_c, 11, 62, 100
16, 123898, Note_on_c, 11, 62, 0
16, 123900, Note_on_c, 11, 62, 100
16, 123958, Note_on_c, 11, 62, 0
16, 123960, Note_on_c, 11, 50, 100
16, 124018, Note_on_c, 11, 50, 0
16, 124080, Note_on_c, 11, 62, 100
16, 124138, Note_on_c, 11, 62, 0
16, 124140, Note_on_c, 11, 59, 100
16, 124198, Note_on_c, 11, 59, 0
16, 124200, Note_on_c, 11, 55, 100
16, 124258, Note_on_c, 11, 55, 0
16, 124320, Note_on_c, 11, 61, 100
16, 124378, Note_on_c, 11, 61, 0
16, 124380, Note_on_c, 11, 57, 100
16, 124438, Note_on_c, 11, 57, 0
16, 124440, Note_on_c, 11, 54, 100
16, 124498, Note_on_c, 11, 54, 0
16, 124560, Note_on_c, 11, 64, 100
16, 124618, Note_on_c, 11, 64, 0
16, 124620, Note_on_c, 11, 62, 100
16, 124678, Note_on_c, 11, 62, 0
16, 124680, Note_on_c, 11, 57, 100
16, 124708, Note_on_c, 11, 57, 0
16, 124710, Note_on_c, 11, 62, 100
16, 124738, Note_on_c, 11, 62, 0
16, 124740, Note_on_c, 11, 64, 100
16, 124798, Note_on_c, 11, 64, 0
16, 124800, Note_on_c, 11, 59, 100
16, 124828, Note_on_c, 11, 59, 0
16, 124830, Note_on_c, 11, 64, 100
16, 124858, Note_on_c, 11, 64, 0
16, 124860, Note_on_c, 11, 61, 100
16, 124918, Note_on_c, 11, 61, 0
16, 124920, Note_on_c, 11, 64, 100
16, 124948, Note_on_c, 11, 64, 0
16, 124950, Note_on_c, 11, 62, 100
16, 124978, Note_on_c, 11, 62, 0
16, 124980, Note_on_c, 11, 61, 100
16, 125038, Note_on_c, 11, 61, 0
16, 125040, Note_on_c, 11, 52, 100
16, 125098, Note_on_c, 11, 52, 0
16, 125100, Note_on_c, 11, 61, 100
16, 125188, Note_on_c, 11, 61, 0
16, 125190, Note_on_c, 11, 61, 100
16, 125218, Note_on_c, 11, 61, 0
16, 125220, Note_on_c, 11, 61, 100
16, 125338, Note_on_c, 11, 61, 0
16, 125400, Note_on_c, 11, 57, 100
16, 125458, Note_on_c, 11, 57, 0
16, 125460, Note_on_c, 11, 57, 100
16, 125518, Note_on_c, 11, 57, 0
16, 125520, Note_on_c, 11, 57, 100
16, 125578, Note_on_c, 11, 57, 0
16, 125580, Note_on_c, 11, 57, 100
16, 125668, Note_on_c, 11, 57, 0
16, 125670, Note_on_c, 11, 57, 100
16, 125698, Note_on_c, 11, 57, 0
16, 125700, Note_on_c, 11, 57, 100
16, 125818, Note_on_c, 11, 57, 0
16, 125880, Note_on_c, 11, 62, 100
16, 125938, Note_on_c, 11, 62, 0
16, 125940, Note_on_c, 11, 57, 100
16, 125998, Note_on_c, 11, 57, 0
16, 126000, Note_on_c, 11, 54, 100
16, 126058, Note_on_c, 11, 54, 0
16, 126120, Note_on_c, 11, 54, 100
16, 126178, Note_on_c, 11, 54, 0
16, 126180, Note_on_c, 11, 56, 100
16, 126238, Note_on_c, 11, 56, 0
16, 126240, Note_on_c, 11, 59, 100
16, 126298, Note_on_c, 11, 59, 0
16, 126360, Note_on_c, 11, 52, 100
16, 126418, Note_on_c, 11, 52, 0
16, 126420, Note_on_c, 11, 57, 100
16, 126478, Note_on_c, 11, 57, 0
16, 126480, Note_on_c, 11, 50, 100
16, 126538, Note_on_c, 11, 50, 0
16, 126600, Note_on_c, 11, 62, 100
16, 126658, Note_on_c, 11, 62, 0
16, 126660, Note_on_c, 11, 61, 100
16, 126718, Note_on_c, 11, 61, 0
16, 126720, Note_on_c, 11, 64, 100
16, 126778, Note_on_c, 11, 64, 0
16, 126840, Note_on_c, 11, 62, 100
16, 126868, Note_on_c, 11, 62, 0
16, 126870, Note_on_c, 11, 64, 100
16, 126898, Note_on_c, 11, 64, 0
16, 126900, Note_on_c, 11, 66, 100
16, 126958, Note_on_c, 11, 66, 0
16, 126960, Note_on_c, 11, 62, 100
16, 127018, Note_on_c, 11, 62, 0
16, 127020, Note_on_c, 11, 57, 100
16, 127108, Note_on_c, 11, 57, 0
16, 127110, Note_on_c, 11, 57, 100
16, 127138, Note_on_c, 11, 57, 0
16, 127140, Note_on_c, 11, 57, 100
16, 127258, Note_on_c, 11, 57, 0
16, 127320, Note_on_c, 11, 55, 100
16, 127378, Note_on_c, 11, 55, 0
16, 127380, Note_on_c, 11, 59, 100
16, 127438, Note_on_c, 11, 59, 0
16, 127440, Note_on_c, 11, 62, 100
16, 127498, Note_on_c, 11, 62, 0
16, 127500, Note_on_c, 11, 62, 100
16, 127588, Note_on_c, 11, 62, 0
16, 127590, Note_on_c, 11, 62, 100
16, 127618, Note_on_c, 11, 62, 0
16, 127620, Note_on_c, 11, 62, 100
16, 127678, Note_on_c, 11, 62, 0
16, 127680, Note_on_c, 11, 54, 100
16, 127738, Note_on_c, 11, 54, 0
16, 127740, Note_on_c, 11, 55, 100
16, 127798, Note_on_c, 11, 55, 0
16, 127800, Note_on_c, 11, 50, 100
16, 127858, Note_on_c, 11, 50, 0
16, 127920, Note_on_c, 11, 54, 100
16, 127978, Note_on_c, 11, 54, 0
16, 127980, Note_on_c, 11, 55, 100
16, 128038, Note_on_c, 11, 55, 0
16, 128040, Note_on_c, 11, 59, 100
16, 128098, Note_on_c, 11, 59, 0
16, 128160, Note_on_c, 11, 52, 100
16, 128218, Note_on_c, 11, 52, 0
16, 128220, Note_on_c, 11, 54, 100
16, 128278, Note_on_c, 11, 54, 0
16, 128280, Note_on_c, 11, 57, 100
16, 128338, Note_on_c, 11, 57, 0
16, 128400, Note_on_c, 11, 59, 100
16, 128458, Note_on_c, 11, 59, 0
16, 128460, Note_on_c, 11, 57, 100
16, 128518, Note_on_c, 11, 57, 0
16, 128520, Note_on_c, 11, 54, 100
16, 128578, Note_on_c, 11, 54, 0
16, 128640, Note_on_c, 11, 56, 100
16, 128698, Note_on_c, 11, 56, 0
16, 128700, Note_on_c, 11, 57, 100
16, 128728, Note_on_c, 11, 57, 0
16, 128730, Note_on_c, 11, 59, 100
16, 128758, Note_on_c, 11, 59, 0
16, 128760, Note_on_c, 11, 61, 100
16, 128788, Note_on_c, 11, 61, 0
16, 128790, Note_on_c, 11, 57, 100
16, 128818, Note_on_c, 11, 57, 0
16, 128820, Note_on_c, 11, 54, 100
16, 128848, Note_on_c, 11, 54, 0
16, 128850, Note_on_c, 11, 55, 100
16, 128878, Note_on_c, 11, 55, 0
16, 128880, Note_on_c, 11, 57, 100
16, 128908, Note_on_c, 11, 57, 0
16, 128910, Note_on_c, 11, 54, 100
16, 128938, Note_on_c, 11, 54, 0
16, 128940, Note_on_c, 11, 59, 100
16, 128998, Note_on_c, 11, 59, 0
16, 129000, Note_on_c, 11, 56, 100
16, 129028, Note_on_c, 11, 56, 0
16, 129030, Note_on_c, 11, 59, 100
16, 129058, Note_on_c, 11, 59, 0
16, 129060, Note_on_c, 11, 61, 100
16, 129118, Note_on_c, 11, 61, 0
16, 129120, Note_on_c, 11, 58, 100
16, 129148, Note_on_c, 11, 58, 0
16, 129150, Note_on_c, 11, 61, 100
16, 129178, Note_on_c, 11, 61, 0
16, 129180, Note_on_c, 11, 54, 100
16, 129238, Note_on_c, 11, 54, 0
16, 129240, Note_on_c, 11, 54, 100
16, 129268, Note_on_c, 11, 54, 0
16, 129270, Note_on_c, 11, 54, 100
16, 129298, Note_on_c, 11, 54, 0
16, 129300, Note_on_c, 11, 52, 100
16, 129328, Note_on_c, 11, 52, 0
16, 129330, Note_on_c, 11, 54, 100
16, 129358, Note_on_c, 11, 54, 0
16, 129360, Note_on_c, 11, 55, 100
16, 129388, Note_on_c, 11, 55, 0
16, 129390, Note_on_c, 11, 52, 100
16, 129418, Note_on_c, 11, 52, 0
16, 129420, Note_on_c, 11, 57, 100
16, 129478, Note_on_c, 11, 57, 0
16, 129480, Note_on_c, 11, 57, 100
16, 129538, Note_on_c, 11, 57, 0
16, 129600, Note_on_c, 11, 59, 100
16, 129658, Note_on_c, 11, 59, 0
16, 129660, Note_on_c, 11, 64, 100
16, 129718, Note_on_c, 11, 64, 0
16, 129720, Note_on_c, 11, 52, 100
16, 129778, Note_on_c, 11, 52, 0
16, 130200, Note_on_c, 11, 64, 100
16, 130258, Note_on_c, 11, 64, 0
16, 130260, Note_on_c, 11, 61, 100
16, 130318, Note_on_c, 11, 61, 0
16, 130320, Note_on_c, 11, 57, 100
16, 130348, Note_on_c, 11, 57, 0
16, 130350, Note_on_c, 11, 61, 100
16, 130378, Note_on_c, 11, 61, 0
16, 130380, Note_on_c, 11, 59, 100
16, 130438, Note_on_c, 11, 59, 0
16, 130440, Note_on_c, 11, 56, 100
16, 130498, Note_on_c, 11, 56, 0
16, 130740, Note_on_c, 11, 58, 100
16, 130978, Note_on_c, 11, 58, 0
16, 130980, Note_on_c, 11, 54, 100
16, 131098, Note_on_c, 11, 54, 0
16, 131100, Note_on_c, 11, 62, 100
16, 131338, Note_on_c, 11, 62, 0
16, 131340, Note_on_c, 11, 59, 100
16, 131578, Note_on_c, 11, 59, 0
16, 131580, Note_on_c, 11, 59, 100
16, 131698, Note_on_c, 11, 59, 0
16, 131700, Note_on_c, 11, 61, 100
16, 131758, Note_on_c, 11, 61, 0
16, 131760, Note_on_c, 11, 62, 100
16, 131818, Note_on_c, 11, 62, 0
16, 131820, Note_on_c, 11, 64, 100
16, 132058, Note_on_c, 11, 64, 0
16, 132060, Note_on_c, 11, 62, 100
16, 132178, Note_on_c, 11, 62, 0
16, 132180, Note_on_c, 11, 62, 100
16, 132418, Note_on_c, 11, 62, 0
16, 132420, Note_on_c, 11, 64, 100
16, 132538, Note_on_c, 11, 64, 0
16, 132540, Note_on_c, 11, 64, 100
16, 132778, Note_on_c, 11, 64, 0
16, 132780, Note_on_c, 11, 65, 100
16, 132898, Note_on_c, 11, 65, 0
16, 132900, Note_on_c, 11, 62, 100
16, 133018, Note_on_c, 11, 62, 0
16, 133020, Note_on_c, 11, 57, 100
16, 133498, Note_on_c, 11, 57, 0
16, 133500, Note_on_c, 11, 57, 100
16, 133978, Note_on_c, 11, 57, 0
16, 139740, Program_c, 11, 65
16, 139830, Note_on_c, 11, 66, 100
16, 139850, Note_on_c, 11, 66, 0
16, 139860, Note_on_c, 11, 66, 100
16, 139988, Note_on_c, 11, 66, 0
16, 140040, Note_on_c, 11, 64, 100
16, 140070, Note_on_c, 11, 64, 0
16, 140070, Note_on_c, 11, 62, 100
16, 140100, Note_on_c, 11, 62, 0
16, 140100, Note_on_c, 11, 61, 100
16, 140130, Note_on_c, 11, 59, 100
16, 140131, Note_on_c, 11, 61, 0
16, 140157, Note_on_c, 11, 59, 0
16, 140160, Note_on_c, 11, 57, 100
16, 140187, Note_on_c, 11, 57, 0
16, 140190, Note_on_c, 11, 56, 100
16, 140217, Note_on_c, 11, 56, 0
16, 140220, Note_on_c, 11, 57, 100
16, 140290, Note_on_c, 11, 57, 0
16, 140310, Note_on_c, 11, 54, 100
16, 140340, Note_on_c, 11, 60, 100
16, 140341, Note_on_c, 11, 54, 0
16, 140391, Note_on_c, 11, 60, 0
16, 140550, Note_on_c, 11, 61, 100
16, 140578, Note_on_c, 11, 61, 0
16, 140580, Note_on_c, 11, 61, 100
16, 140725, Note_on_c, 11, 61, 0
16, 140760, Note_on_c, 11, 59, 100
16, 140790, Note_on_c, 11, 59, 0
16, 140790, Note_on_c, 11, 57, 100
16, 140818, Note_on_c, 11, 57, 0
16, 140820, Note_on_c, 11, 56, 100
16, 140847, Note_on_c, 11, 56, 0
16, 140850, Note_on_c, 11, 54, 100
16, 140877, Note_on_c, 11, 54, 0
16, 140880, Note_on_c, 11, 53, 100
16, 140906, Note_on_c, 11, 53, 0
16, 140910, Note_on_c, 11, 51, 100
16, 140940, Note_on_c, 11, 51, 0
16, 140940, Note_on_c, 11, 53, 100
16, 141000, Note_on_c, 11, 53, 0
16, 141030, Note_on_c, 11, 56, 100
16, 141042, Note_on_c, 11, 56, 0
16, 141045, Note_on_c, 11, 59, 100
16, 141057, Note_on_c, 11, 59, 0
16, 141060, Note_on_c, 11, 62, 100
16, 141103, Note_on_c, 11, 62, 0
16, 141240, Note_on_c, 11, 61, 100
16, 141283, Note_on_c, 11, 61, 0
16, 141300, Note_on_c, 11, 57, 100
16, 141346, Note_on_c, 11, 57, 0
16, 141360, Note_on_c, 11, 61, 100
16, 141387, Note_on_c, 11, 61, 0
16, 141390, Note_on_c, 11, 57, 100
16, 141415, Note_on_c, 11, 57, 0
16, 141420, Note_on_c, 11, 56, 100
16, 141465, Note_on_c, 11, 56, 0
16, 141480, Note_on_c, 11, 61, 100
16, 141506, Note_on_c, 11, 61, 0
16, 141510, Note_on_c, 11, 56, 100
16, 141533, Note_on_c, 11, 56, 0
16, 141540, Note_on_c, 11, 54, 100
16, 141587, Note_on_c, 11, 54, 0
16, 141600, Note_on_c, 11, 62, 100
16, 141626, Note_on_c, 11, 62, 0
16, 141630, Note_on_c, 11, 56, 100
16, 141656, Note_on_c, 11, 56, 0
16, 141660, Note_on_c, 11, 53, 100
16, 141720, Note_on_c, 11, 53, 0
16, 141720, Note_on_c, 11, 49, 100
16, 141760, Note_on_c, 11, 49, 0
16, 141960, Note_on_c, 11, 49, 100
16, 142000, Note_on_c, 11, 49, 0
16, 142020, Note_on_c, 11, 61, 100
16, 142040, Note_on_c, 11, 61, 0
16, 142050, Note_on_c, 11, 59, 100
16, 142070, Note_on_c, 11, 59, 0
16, 142080, Note_on_c, 11, 57, 100
16, 142100, Note_on_c, 11, 57, 0
16, 142110, Note_on_c, 11, 61, 100
16, 142130, Note_on_c, 11, 61, 0
16, 142140, Note_on_c, 11, 59, 100
16, 142160, Note_on_c, 11, 59, 0
16, 142170, Note_on_c, 11, 57, 100
16, 142190, Note_on_c, 11, 57, 0
16, 142200, Note_on_c, 11, 56, 100
16, 142220, Note_on_c, 11, 56, 0
16, 142230, Note_on_c, 11, 59, 100
16, 142250, Note_on_c, 11, 59, 0
16, 142260, Note_on_c, 11, 57, 100
16, 142280, Note_on_c, 11, 57, 0
16, 142290, Note_on_c, 11, 56, 100
16, 142310, Note_on_c, 11, 56, 0
16, 142320, Note_on_c, 11, 54, 100
16, 142340, Note_on_c, 11, 54, 0
16, 142350, Note_on_c, 11, 57, 100
16, 142370, Note_on_c, 11, 57, 0
16, 142380, Note_on_c, 11, 56, 100
16, 142400, Note_on_c, 11, 56, 0
16, 142410, Note_on_c, 11, 54, 100
16, 142430, Note_on_c, 11, 54, 0
16, 142440, Note_on_c, 11, 53, 100
16, 142460, Note_on_c, 11, 53, 0
16, 142470, Note_on_c, 11, 51, 100
16, 142490, Note_on_c, 11, 51, 0
16, 142500, Note_on_c, 11, 49, 100
16, 142580, Note_on_c, 11, 49, 0
16, 142680, Note_on_c, 11, 56, 100
16, 142720, Note_on_c, 11, 56, 0
16, 142740, Note_on_c, 11, 57, 100
16, 142780, Note_on_c, 11, 57, 0
16, 142800, Note_on_c, 11, 54, 100
16, 142840, Note_on_c, 11, 54, 0
16, 142860, Note_on_c, 11, 62, 100
16, 143000, Note_on_c, 11, 62, 0
16, 143010, Note_on_c, 11, 61, 100
16, 143030, Note_on_c, 11, 61, 0
16, 143040, Note_on_c, 11, 59, 100
16, 143060, Note_on_c, 11, 59, 0
16, 143070, Note_on_c, 11, 57, 100
16, 143090, Note_on_c, 11, 57, 0
16, 143100, Note_on_c, 11, 59, 100
16, 143120, Note_on_c, 11, 59, 0
16, 143130, Note_on_c, 11, 57, 100
16, 143150, Note_on_c, 11, 57, 0
16, 143160, Note_on_c, 11, 56, 100
16, 143180, Note_on_c, 11, 56, 0
16, 143190, Note_on_c, 11, 59, 100
16, 143210, Note_on_c, 11, 59, 0
16, 143220, Note_on_c, 11, 64, 100
16, 143360, Note_on_c, 11, 64, 0
16, 143370, Note_on_c, 11, 62, 100
16, 143390, Note_on_c, 11, 62, 0
16, 143400, Note_on_c, 11, 61, 100
16, 143420, Note_on_c, 11, 61, 0
16, 143430, Note_on_c, 11, 59, 100
16, 143450, Note_on_c, 11, 59, 0
16, 143460, Note_on_c, 11, 61, 100
16, 143480, Note_on_c, 11, 61, 0
16, 143490, Note_on_c, 11, 59, 100
16, 143510, Note_on_c, 11, 59, 0
16, 143520, Note_on_c, 11, 57, 100
16, 143540, Note_on_c, 11, 57, 0
16, 143550, Note_on_c, 11, 61, 100
16, 143570, Note_on_c, 11, 61, 0
16, 143580, Note_on_c, 11, 66, 100
16, 143720, Note_on_c, 11, 66, 0
16, 143730, Note_on_c, 11, 64, 100
16, 143750, Note_on_c, 11, 64, 0
16, 143760, Note_on_c, 11, 62, 100
16, 143780, Note_on_c, 11, 62, 0
16, 143790, Note_on_c, 11, 61, 100
16, 143810, Note_on_c, 11, 61, 0
16, 143820, Note_on_c, 11, 62, 100
16, 143840, Note_on_c, 11, 62, 0
16, 143850, Note_on_c, 11, 61, 100
16, 143870, Note_on_c, 11, 61, 0
16, 143880, Note_on_c, 11, 59, 100
16, 143900, Note_on_c, 11, 59, 0
16, 143910, Note_on_c, 11, 61, 100
16, 143930, Note_on_c, 11, 61, 0
16, 143940, Note_on_c, 11, 62, 100
16, 143960, Note_on_c, 11, 62, 0
16, 143970, Note_on_c, 11, 61, 100
16, 143990, Note_on_c, 11, 61, 0
16, 144000, Note_on_c, 11, 62, 100
16, 144020, Note_on_c, 11, 62, 0
16, 144030, Note_on_c, 11, 64, 100
16, 144050, Note_on_c, 11, 64, 0
16, 144060, Note_on_c, 11, 66, 100
16, 144080, Note_on_c, 11, 66, 0
16, 144090, Note_on_c, 11, 64, 100
16, 144110, Note_on_c, 11, 64, 0
16, 144120, Note_on_c, 11, 66, 100
16, 144140, Note_on_c, 11, 66, 0
16, 144150, Note_on_c, 11, 68, 100
16, 144170, Note_on_c, 11, 68, 0
16, 144180, Note_on_c, 11, 69, 100
16, 144240, Note_on_c, 11, 69, 0
16, 144240, Note_on_c, 11, 64, 100
16, 144300, Note_on_c, 11, 64, 0
16, 144300, Note_on_c, 11, 62, 100
16, 144360, Note_on_c, 11, 62, 0
16, 144360, Note_on_c, 11, 61, 100
16, 144420, Note_on_c, 11, 61, 0
16, 144420, Note_on_c, 11, 59, 100
16, 144480, Note_on_c, 11, 59, 0
16, 144480, Note_on_c, 11, 57, 100
16, 144540, Note_on_c, 11, 57, 0
16, 144540, Note_on_c, 11, 57, 100
16, 144700, Note_on_c, 11, 57, 0
16, 147030, Note_on_c, 11, 64, 100
16, 147050, Note_on_c, 11, 64, 0
16, 147060, Note_on_c, 11, 64, 100
16, 147200, Note_on_c, 11, 64, 0
16, 147210, Note_on_c, 11, 66, 100
16, 147230, Note_on_c, 11, 66, 0
16, 147240, Note_on_c, 11, 64, 100
16, 147260, Note_on_c, 11, 64, 0
16, 147270, Note_on_c, 11, 62, 100
16, 147290, Note_on_c, 11, 62, 0
16, 147300, Note_on_c, 11, 61, 100
16, 147320, Note_on_c, 11, 61, 0
16, 147330, Note_on_c, 11, 59, 100
16, 147350, Note_on_c, 11, 59, 0
16, 147360, Note_on_c, 11, 58, 100
16, 147380, Note_on_c, 11, 58, 0
16, 147390, Note_on_c, 11, 56, 100
16, 147410, Note_on_c, 11, 56, 0
16, 147420, Note_on_c, 11, 58, 100
16, 147480, Note_on_c, 11, 58, 0
16, 147510, Note_on_c, 11, 54, 100
16, 147530, Note_on_c, 11, 54, 0
16, 147540, Note_on_c, 11, 64, 100
16, 147580, Note_on_c, 11, 64, 0
16, 147750, Note_on_c, 11, 62, 100
16, 147770, Note_on_c, 11, 62, 0
16, 147780, Note_on_c, 11, 62, 100
16, 147920, Note_on_c, 11, 62, 0
16, 147930, Note_on_c, 11, 64, 100
16, 147950, Note_on_c, 11, 64, 0
16, 147960, Note_on_c, 11, 62, 100
16, 147980, Note_on_c, 11, 62, 0
16, 147990, Note_on_c, 11, 61, 100
16, 148010, Note_on_c, 11, 61, 0
16, 148020, Note_on_c, 11, 59, 100
16, 148040, Note_on_c, 11, 59, 0
16, 148050, Note_on_c, 11, 57, 100
16, 148070, Note_on_c, 11, 57, 0
16, 148080, Note_on_c, 11, 56, 100
16, 148100, Note_on_c, 11, 56, 0
16, 148110, Note_on_c, 11, 54, 100
16, 148130, Note_on_c, 11, 54, 0
16, 148140, Note_on_c, 11, 56, 100
16, 148200, Note_on_c, 11, 56, 0
16, 148230, Note_on_c, 11, 53, 100
16, 148250, Note_on_c, 11, 53, 0
16, 148260, Note_on_c, 11, 62, 100
16, 148300, Note_on_c, 11, 62, 0
16, 148440, Note_on_c, 11, 61, 100
16, 148480, Note_on_c, 11, 61, 0
16, 148500, Note_on_c, 11, 57, 100
16, 148540, Note_on_c, 11, 57, 0
16, 148560, Note_on_c, 11, 61, 100
16, 148580, Note_on_c, 11, 61, 0
16, 148590, Note_on_c, 11, 57, 100
16, 148610, Note_on_c, 11, 57, 0
16, 148620, Note_on_c, 11, 56, 100
16, 148660, Note_on_c, 11, 56, 0
16, 148680, Note_on_c, 11, 61, 100
16, 148700, Note_on_c, 11, 61, 0
16, 148710, Note_on_c, 11, 56, 100
16, 148730, Note_on_c, 11, 56, 0
16, 148740, Note_on_c, 11, 54, 100
16, 148780, Note_on_c, 11, 54, 0
16, 148800, Note_on_c, 11, 62, 100
16, 148820, Note_on_c, 11, 62, 0
16, 148830, Note_on_c, 11, 54, 100
16, 148850, Note_on_c, 11, 54, 0
16, 148860, Note_on_c, 11, 53, 100
16, 148920, Note_on_c, 11, 53, 0
16, 148920, Note_on_c, 11, 49, 100
16, 148960, Note_on_c, 11, 49, 0
16, 149160, Note_on_c, 11, 49, 100
16, 149200, Note_on_c, 11, 49, 0
16, 149220, Note_on_c, 11, 61, 100
16, 149240, Note_on_c, 11, 61, 0
16, 149250, Note_on_c, 11, 59, 100
16, 149270, Note_on_c, 11, 59, 0
16, 149280, Note_on_c, 11, 57, 100
16, 149300, Note_on_c, 11, 57, 0
16, 149310, Note_on_c, 11, 61, 100
16, 149330, Note_on_c, 11, 61, 0
16, 149340, Note_on_c, 11, 59, 100
16, 149360, Note_on_c, 11, 59, 0
16, 149370, Note_on_c, 11, 57, 100
16, 149390, Note_on_c, 11, 57, 0
16, 149400, Note_on_c, 11, 56, 100
16, 149420, Note_on_c, 11, 56, 0
16, 149430, Note_on_c, 11, 59, 100
16, 149450, Note_on_c, 11, 59, 0
16, 149460, Note_on_c, 11, 57, 100
16, 149480, Note_on_c, 11, 57, 0
16, 149490, Note_on_c, 11, 56, 100
16, 149510, Note_on_c, 11, 56, 0
16, 149520, Note_on_c, 11, 54, 100
16, 149540, Note_on_c, 11, 54, 0
16, 149550, Note_on_c, 11, 57, 100
16, 149570, Note_on_c, 11, 57, 0
16, 149580, Note_on_c, 11, 56, 100
16, 149600, Note_on_c, 11, 56, 0
16, 149610, Note_on_c, 11, 54, 100
16, 149630, Note_on_c, 11, 54, 0
16, 149640, Note_on_c, 11, 53, 100
16, 149660, Note_on_c, 11, 53, 0
16, 149670, Note_on_c, 11, 51, 100
16, 149690, Note_on_c, 11, 51, 0
16, 149700, Note_on_c, 11, 49, 100
16, 149780, Note_on_c, 11, 49, 0
16, 149880, Note_on_c, 11, 61, 100
16, 149920, Note_on_c, 11, 61, 0
16, 149940, Note_on_c, 11, 61, 100
16, 149960, Note_on_c, 11, 61, 0
16, 149970, Note_on_c, 11, 57, 100
16, 149990, Note_on_c, 11, 57, 0
16, 150000, Note_on_c, 11, 56, 100
16, 150020, Note_on_c, 11, 56, 0
16, 150030, Note_on_c, 11, 54, 100
16, 150050, Note_on_c, 11, 54, 0
16, 150060, Note_on_c, 11, 63, 100
16, 150320, Note_on_c, 11, 63, 0
16, 150330, Note_on_c, 11, 59, 100
16, 150350, Note_on_c, 11, 59, 0
16, 150360, Note_on_c, 11, 57, 100
16, 150380, Note_on_c, 11, 57, 0
16, 150390, Note_on_c, 11, 56, 100
16, 150410, Note_on_c, 11, 56, 0
16, 150420, Note_on_c, 11, 65, 100
16, 150440, Note_on_c, 11, 65, 0
16, 150450, Note_on_c, 11, 63, 100
16, 150470, Note_on_c, 11, 63, 0
16, 150480, Note_on_c, 11, 65, 100
16, 150500, Note_on_c, 11, 65, 0
16, 150510, Note_on_c, 11, 66, 100
16, 150530, Note_on_c, 11, 66, 0
16, 150540, Note_on_c, 11, 65, 100
16, 150560, Note_on_c, 11, 65, 0
16, 150570, Note_on_c, 11, 61, 100
16, 150590, Note_on_c, 11, 61, 0
16, 150600, Note_on_c, 11, 63, 100
16, 150620, Note_on_c, 11, 63, 0
16, 150630, Note_on_c, 11, 65, 100
16, 150650, Note_on_c, 11, 65, 0
16, 150660, Note_on_c, 11, 66, 100
16, 150700, Note_on_c, 11, 66, 0
16, 150720, Note_on_c, 11, 54, 100
16, 150740, Note_on_c, 11, 54, 0
16, 150750, Note_on_c, 11, 56, 100
16, 150770, Note_on_c, 11, 56, 0
16, 150780, Note_on_c, 11, 57, 100
16, 150800, Note_on_c, 11, 57, 0
16, 150810, Note_on_c, 11, 56, 100
16, 150830, Note_on_c, 11, 56, 0
16, 150840, Note_on_c, 11, 57, 100
16, 150860, Note_on_c, 11, 57, 0
16, 150870, Note_on_c, 11, 59, 100
16, 150890, Note_on_c, 11, 59, 0
16, 150900, Note_on_c, 11, 61, 100
16, 150920, Note_on_c, 11, 61, 0
16, 150930, Note_on_c, 11, 59, 100
16, 150950, Note_on_c, 11, 59, 0
16, 150960, Note_on_c, 11, 61, 100
16, 150980, Note_on_c, 11, 61, 0
16, 150990, Note_on_c, 11, 62, 100
16, 151010, Note_on_c, 11, 62, 0
16, 151020, Note_on_c, 11, 61, 100
16, 151140, Note_on_c, 11, 61, 0
16, 151200, Note_on_c, 11, 62, 100
16, 151220, Note_on_c, 11, 62, 0
16, 151230, Note_on_c, 11, 59, 100
16, 151250, Note_on_c, 11, 59, 0
16, 151260, Note_on_c, 11, 68, 100
16, 151280, Note_on_c, 11, 68, 0
16, 151290, Note_on_c, 11, 66, 100
16, 151310, Note_on_c, 11, 66, 0
16, 151320, Note_on_c, 11, 65, 100
16, 151340, Note_on_c, 11, 65, 0
16, 151350, Note_on_c, 11, 63, 100
16, 151370, Note_on_c, 11, 63, 0
16, 151380, Note_on_c, 11, 61, 100
16, 151440, Note_on_c, 11, 61, 0
16, 151470, Note_on_c, 11, 66, 100
16, 151490, Note_on_c, 11, 66, 0
16, 151500, Note_on_c, 11, 57, 100
16, 151620, Note_on_c, 11, 57, 0
16, 151620, Note_on_c, 11, 56, 100
16, 151740, Note_on_c, 11, 56, 0
16, 151740, Note_on_c, 11, 54, 100
16, 152860, Note_on_c, 11, 54, 0
16, 152880, Note_on_c, 11, 54, 100
16, 152920, Note_on_c, 11, 54, 0
16, 152940, Note_on_c, 11, 56, 100
16, 152980, Note_on_c, 11, 56, 0
16, 153000, Note_on_c, 11, 57, 100
16, 153040, Note_on_c, 11, 57, 0
16, 153060, Note_on_c, 11, 59, 100
16, 153200, Note_on_c, 11, 59, 0
16, 153210, Note_on_c, 11, 57, 100
16, 153230, Note_on_c, 11, 57, 0
16, 153240, Note_on_c, 11, 56, 100
16, 153260, Note_on_c, 11, 56, 0
16, 153270, Note_on_c, 11, 54, 100
16, 153290, Note_on_c, 11, 54, 0
16, 153300, Note_on_c, 11, 53, 100
16, 153320, Note_on_c, 11, 53, 0
16, 153330, Note_on_c, 11, 54, 100
16, 153350, Note_on_c, 11, 54, 0
16, 153360, Note_on_c, 11, 56, 100
16, 153380, Note_on_c, 11, 56, 0
16, 153390, Note_on_c, 11, 57, 100
16, 153410, Note_on_c, 11, 57, 0
16, 153420, Note_on_c, 11, 59, 100
16, 153440, Note_on_c, 11, 59, 0
16, 153450, Note_on_c, 11, 61, 100
16, 153470, Note_on_c, 11, 61, 0
16, 153480, Note_on_c, 11, 63, 100
16, 153500, Note_on_c, 11, 63, 0
16, 153510, Note_on_c, 11, 65, 100
16, 153530, Note_on_c, 11, 65, 0
16, 153540, Note_on_c, 11, 66, 100
16, 153600, Note_on_c, 11, 66, 0
16, 153600, Note_on_c, 11, 61, 100
16, 153660, Note_on_c, 11, 61, 0
16, 153660, Note_on_c, 11, 59, 100
16, 153720, Note_on_c, 11, 59, 0
16, 153720, Note_on_c, 11, 57, 100
16, 153780, Note_on_c, 11, 57, 0
16, 153780, Note_on_c, 11, 56, 100
16, 153840, Note_on_c, 11, 56, 0
16, 153840, Note_on_c, 11, 54, 100
16, 153900, Note_on_c, 11, 54, 0
16, 153900, Note_on_c, 11, 54, 100
16, 153980, Note_on_c, 11, 54, 0
16, 195615, Program_c, 11, 51
16, 195660, Note_on_c, 11, 57, 100
16, 195898, Note_on_c, 11, 57, 0
16, 195900, Note_on_c, 11, 57, 100
16, 196018, Note_on_c, 11, 57, 0
16, 196020, Note_on_c, 11, 57, 100
16, 196138, Note_on_c, 11, 57, 0
16, 196140, Note_on_c, 11, 59, 100
16, 196198, Note_on_c, 11, 59, 0
16, 196200, Note_on_c, 11, 57, 100
16, 196258, Note_on_c, 11, 57, 0
16, 196260, Note_on_c, 11, 55, 100
16, 196318, Note_on_c, 11, 55, 0
16, 196320, Note_on_c, 11, 57, 100
16, 196378, Note_on_c, 11, 57, 0
16, 196380, Note_on_c, 11, 59, 100
16, 196438, Note_on_c, 11, 59, 0
16, 196440, Note_on_c, 11, 61, 100
16, 196498, Note_on_c, 11, 61, 0
16, 196500, Note_on_c, 11, 62, 100
16, 196618, Note_on_c, 11, 62, 0
16, 196620, Note_on_c, 11, 62, 100
16, 196738, Note_on_c, 11, 62, 0
16, 196740, Note_on_c, 11, 57, 100
16, 196858, Note_on_c, 11, 57, 0
16, 196860, Note_on_c, 11, 62, 100
16, 196978, Note_on_c, 11, 62, 0
16, 196980, Note_on_c, 11, 54, 100
16, 197098, Note_on_c, 11, 54, 0
16, 197100, Note_on_c, 11, 52, 100
16, 197338, Note_on_c, 11, 52, 0
16, 197340, Note_on_c, 11, 61, 100
16, 197578, Note_on_c, 11, 61, 0
16, 197580, Note_on_c, 11, 62, 100
16, 197818, Note_on_c, 11, 62, 0
16, 197820, Note_on_c, 11, 61, 100
16, 197998, Note_on_c, 11, 61, 0
16, 198000, Note_on_c, 11, 61, 100
16, 198058, Note_on_c, 11, 61, 0
16, 198060, Note_on_c, 11, 62, 100
16, 198178, Note_on_c, 11, 62, 0
16, 198180, Note_on_c, 11, 50, 100
16, 198298, Note_on_c, 11, 50, 0
16, 198300, Note_on_c, 11, 62, 100
16, 198418, Note_on_c, 11, 62, 0
16, 198420, Note_on_c, 11, 61, 100
16, 198478, Note_on_c, 11, 61, 0
16, 198480, Note_on_c, 11, 59, 100
16, 198538, Note_on_c, 11, 59, 0
16, 198540, Note_on_c, 11, 61, 100
16, 198598, Note_on_c, 11, 61, 0
16, 198600, Note_on_c, 11, 59, 100
16, 198658, Note_on_c, 11, 59, 0
16, 198660, Note_on_c, 11, 57, 100
16, 198718, Note_on_c, 11, 57, 0
16, 198720, Note_on_c, 11, 59, 100
16, 198778, Note_on_c, 11, 59, 0
16, 198780, Note_on_c, 11, 61, 100
16, 198838, Note_on_c, 11, 61, 0
16, 198840, Note_on_c, 11, 62, 100
16, 198898, Note_on_c, 11, 62, 0
16, 198900, Note_on_c, 11, 64, 100
16, 199018, Note_on_c, 11, 64, 0
16, 199020, Note_on_c, 11, 62, 100
16, 199138, Note_on_c, 11, 62, 0
16, 199140, Note_on_c, 11, 61, 100
16, 199258, Note_on_c, 11, 61, 0
16, 199260, Note_on_c, 11, 59, 100
16, 199498, Note_on_c, 11, 59, 0
16, 199500, Note_on_c, 11, 57, 100
16, 199618, Note_on_c, 11, 57, 0
16, 199620, Note_on_c, 11, 57, 100
16, 199738, Note_on_c, 11, 57, 0
16, 199740, Note_on_c, 11, 62, 100
16, 199858, Note_on_c, 11, 62, 0
16, 199860, Note_on_c, 11, 60, 100
16, 199978, Note_on_c, 11, 60, 0
16, 199980, Note_on_c, 11, 59, 100
16, 200158, Note_on_c, 11, 59, 0
16, 200160, Note_on_c, 11, 57, 100
16, 200218, Note_on_c, 11, 57, 0
16, 200220, Note_on_c, 11, 55, 100
16, 200458, Note_on_c, 11, 55, 0
16, 200700, Note_on_c, 11, 54, 100
16, 200938, Note_on_c, 11, 54, 0
16, 200940, Note_on_c, 11, 55, 100
16, 201178, Note_on_c, 11, 55, 0
16, 201180, Note_on_c, 11, 57, 100
16, 201418, Note_on_c, 11, 57, 0
16, 201420, Note_on_c, 11, 50, 100
16, 201658, Note_on_c, 11, 50, 0
16, 201780, Note_on_c, 11, 57, 100
16, 201898, Note_on_c, 11, 57, 0
16, 201900, Note_on_c, 11, 62, 100
16, 202018, Note_on_c, 11, 62, 0
16, 202020, Note_on_c, 11, 61, 100
16, 202138, Note_on_c, 11, 61, 0
16, 202140, Note_on_c, 11, 59, 100
16, 202318, Note_on_c, 11, 59, 0
16, 202320, Note_on_c, 11, 59, 100
16, 202378, Note_on_c, 11, 59, 0
16, 202380, Note_on_c, 11, 57, 100
16, 202498, Note_on_c, 11, 57, 0
16, 202500, Note_on_c, 11, 61, 100
16, 202618, Note_on_c, 11, 61, 0
16, 202620, Note_on_c, 11, 66, 100
16, 202738, Note_on_c, 11, 66, 0
16, 202740, Note_on_c, 11, 57, 100
16, 202858, Note_on_c, 11, 57, 0
16, 202860, Note_on_c, 11, 59, 100
16, 202978, Note_on_c, 11, 59, 0
16, 202980, Note_on_c, 11, 61, 100
16, 203098, Note_on_c, 11, 61, 0
16, 203100, Note_on_c, 11, 62, 100
16, 203338, Note_on_c, 11, 62, 0
16, 203340, Note_on_c, 11, 61, 100
16, 203458, Note_on_c, 11, 61, 0
16, 203460, Note_on_c, 11, 57, 100
16, 203578, Note_on_c, 11, 57, 0
16, 203580, Note_on_c, 11, 62, 100
16, 203698, Note_on_c, 11, 62, 0
16, 203700, Note_on_c, 11, 60, 100
16, 203818, Note_on_c, 11, 60, 0
16, 203820, Note_on_c, 11, 59, 100
16, 203998, Note_on_c, 11, 59, 0
16, 204000, Note_on_c, 11, 57, 100
16, 204058, Note_on_c, 11, 57, 0
16, 204060, Note_on_c, 11, 55, 100
16, 204298, Note_on_c, 11, 55, 0
16, 204540, Note_on_c, 11, 54, 100
16, 204778, Note_on_c, 11, 54, 0
16, 204780, Note_on_c, 11, 55, 100
16, 205018, Note_on_c, 11, 55, 0
16, 205020, Note_on_c, 11, 57, 100
16, 205258, Note_on_c, 11, 57, 0
16, 205260, Note_on_c, 11, 50, 100
16, 205498, Note_on_c, 11, 50, 0
16, 207180, Note_on_c, 11, 57, 100
16, 207418, Note_on_c, 11, 57, 0
16, 207420, Note_on_c, 11, 57, 100
16, 207538, Note_on_c, 11, 57, 0
16, 207540, Note_on_c, 11, 57, 100
16, 207658, Note_on_c, 11, 57, 0
16, 207660, Note_on_c, 11, 59, 100
16, 207718, Note_on_c, 11, 59, 0
16, 207720, Note_on_c, 11, 57, 100
16, 207778, Note_on_c, 11, 57, 0
16, 207780, Note_on_c, 11, 55, 100
16, 207838, Note_on_c, 11, 55, 0
16, 207840, Note_on_c, 11, 57, 100
16, 207898, Note_on_c, 11, 57, 0
16, 207900, Note_on_c, 11, 59, 100
16, 207958, Note_on_c, 11, 59, 0
16, 207960, Note_on_c, 11, 61, 100
16, 208018, Note_on_c, 11, 61, 0
16, 208020, Note_on_c, 11, 62, 100
16, 208138, Note_on_c, 11, 62, 0
16, 208140, Note_on_c, 11, 62, 100
16, 208258, Note_on_c, 11, 62, 0
16, 208260, Note_on_c, 11, 57, 100
16, 208378, Note_on_c, 11, 57, 0
16, 208380, Note_on_c, 11, 62, 100
16, 208498, Note_on_c, 11, 62, 0
16, 208500, Note_on_c, 11, 54, 100
16, 208618, Note_on_c, 11, 54, 0
16, 208620, Note_on_c, 11, 52, 100
16, 208858, Note_on_c, 11, 52, 0
16, 208860, Note_on_c, 11, 61, 100
16, 209098, Note_on_c, 11, 61, 0
16, 209100, Note_on_c, 11, 62, 100
16, 209338, Note_on_c, 11, 62, 0
16, 209340, Note_on_c, 11, 61, 100
16, 209518, Note_on_c, 11, 61, 0
16, 209520, Note_on_c, 11, 61, 100
16, 209578, Note_on_c, 11, 61, 0
16, 209580, Note_on_c, 11, 62, 100
16, 209698, Note_on_c, 11, 62, 0
16, 209700, Note_on_c, 11, 50, 100
16, 209818, Note_on_c, 11, 50, 0
16, 209820, Note_on_c, 11, 62, 100
16, 209938, Note_on_c, 11, 62, 0
16, 209940, Note_on_c, 11, 61, 100
16, 209998, Note_on_c, 11, 61, 0
16, 210000, Note_on_c, 11, 59, 100
16, 210058, Note_on_c, 11, 59, 0
16, 210060, Note_on_c, 11, 61, 100
16, 210118, Note_on_c, 11, 61, 0
16, 210120, Note_on_c, 11, 59, 100
16, 210178, Note_on_c, 11, 59, 0
16, 210180, Note_on_c, 11, 57, 100
16, 210238, Note_on_c, 11, 57, 0
16, 210240, Note_on_c, 11, 59, 100
16, 210298, Note_on_c, 11, 59, 0
16, 210300, Note_on_c, 11, 61, 100
16, 210358, Note_on_c, 11, 61, 0
16, 210360, Note_on_c, 11, 62, 100
16, 210418, Note_on_c, 11, 62, 0
16, 210420, Note_on_c, 11, 64, 100
16, 210538, Note_on_c, 11, 64, 0
16, 210540, Note_on_c, 11, 62, 100
16, 210658, Note_on_c, 11, 62, 0
16, 210660, Note_on_c, 11, 61, 100
16, 210778, Note_on_c, 11, 61, 0
16, 210780, Note_on_c, 11, 59, 100
16, 211018, Note_on_c, 11, 59, 0
16, 211020, Note_on_c, 11, 57, 100
16, 211258, Note_on_c, 11, 57, 0
16, 211260, Note_on_c, 11, 57, 100
16, 211438, Note_on_c, 11, 57, 0
16, 211440, Note_on_c, 11, 57, 100
16, 211498, Note_on_c, 11, 57, 0
16, 211500, Note_on_c, 11, 62, 100
16, 211738, Note_on_c, 11, 62, 0
16, 211740, Note_on_c, 11, 59, 100
16, 211918, Note_on_c, 11, 59, 0
16, 211920, Note_on_c, 11, 59, 100
16, 211978, Note_on_c, 11, 59, 0
16, 211980, Note_on_c, 11, 64, 100
16, 212098, Note_on_c, 11, 64, 0
16, 212100, Note_on_c, 11, 61, 100
16, 212218, Note_on_c, 11, 61, 0
16, 212220, Note_on_c, 11, 59, 100
16, 212338, Note_on_c, 11, 59, 0
16, 212340, Note_on_c, 11, 59, 100
16, 212398, Note_on_c, 11, 59, 0
16, 212400, Note_on_c, 11, 59, 100
16, 212458, Note_on_c, 11, 59, 0
16, 212460, Note_on_c, 11, 59, 100
16, 212578, Note_on_c, 11, 59, 0
16, 212580, Note_on_c, 11, 59, 100
16, 212698, Note_on_c, 11, 59, 0
16, 212700, Note_on_c, 11, 61, 100
16, 212878, Note_on_c, 11, 61, 0
16, 212880, Note_on_c, 11, 61, 100
16, 212938, Note_on_c, 11, 61, 0
16, 212940, Note_on_c, 11, 66, 100
16, 213058, Note_on_c, 11, 66, 0
16, 213060, Note_on_c, 11, 62, 100
16, 213178, Note_on_c, 11, 62, 0
16, 213180, Note_on_c, 11, 62, 100
16, 213298, Note_on_c, 11, 62, 0
16, 213300, Note_on_c, 11, 64, 100
16, 213358, Note_on_c, 11, 64, 0
16, 213360, Note_on_c, 11, 66, 100
16, 213418, Note_on_c, 11, 66, 0
16, 213420, Note_on_c, 11, 64, 100
16, 213658, Note_on_c, 11, 64, 0
16, 213660, Note_on_c, 11, 57, 100
16, 213778, Note_on_c, 11, 57, 0
16, 213780, Note_on_c, 11, 57, 100
16, 213898, Note_on_c, 11, 57, 0
16, 213900, Note_on_c, 11, 62, 100
16, 214138, Note_on_c, 11, 62, 0
16, 214140, Note_on_c, 11, 64, 100
16, 214378, Note_on_c, 11, 64, 0
16, 214380, Note_on_c, 11, 57, 100
16, 214438, Note_on_c, 11, 57, 0
16, 214440, Note_on_c, 11, 55, 100
16, 214498, Note_on_c, 11, 55, 0
16, 214500, Note_on_c, 11, 54, 100
16, 214558, Note_on_c, 11, 54, 0
16, 214560, Note_on_c, 11, 55, 100
16, 214618, Note_on_c, 11, 55, 0
16, 214620, Note_on_c, 11, 57, 100
16, 214738, Note_on_c, 11, 57, 0
16, 214740, Note_on_c, 11, 59, 100
16, 214858, Note_on_c, 11, 59, 0
16, 214860, Note_on_c, 11, 52, 100
16, 215098, Note_on_c, 11, 52, 0
16, 215580, Note_on_c, 11, 50, 100
16, 215818, Note_on_c, 11, 50, 0
16, 215820, Note_on_c, 11, 57, 100
16, 215878, Note_on_c, 11, 57, 0
16, 215880, Note_on_c, 11, 55, 100
16, 215938, Note_on_c, 11, 55, 0
16, 215940, Note_on_c, 11, 54, 100
16, 215998, Note_on_c, 11, 54, 0
16, 216000, Note_on_c, 11, 55, 100
16, 216058, Note_on_c, 11, 55, 0
16, 216060, Note_on_c, 11, 57, 100
16, 216118, Note_on_c, 11, 57, 0
16, 216120, Note_on_c, 11, 62, 100
16, 216178, Note_on_c, 11, 62, 0
16, 216180, Note_on_c, 11, 61, 100
16, 216238, Note_on_c, 11, 61, 0
16, 216240, Note_on_c, 11, 62, 100
16, 216298, Note_on_c, 11, 62, 0
16, 216300, Note_on_c, 11, 59, 100
16, 216538, Note_on_c, 11, 59, 0
16, 216540, Note_on_c, 11, 61, 100
16, 216778, Note_on_c, 11, 61, 0
16, 216780, Note_on_c, 11, 57, 100
16, 217018, Note_on_c, 11, 57, 0
16, 217020, Note_on_c, 11, 57, 100
16, 217198, Note_on_c, 11, 57, 0
16, 217200, Note_on_c, 11, 57, 100
16, 217258, Note_on_c, 11, 57, 0
16, 217260, Note_on_c, 11, 59, 100
16, 217378, Note_on_c, 11, 59, 0
16, 217380, Note_on_c, 11, 59, 100
16, 217498, Note_on_c, 11, 59, 0
16, 217500, Note_on_c, 11, 55, 100
16, 217618, Note_on_c, 11, 55, 0
16, 217620, Note_on_c, 11, 54, 100
16, 217678, Note_on_c, 11, 54, 0
16, 217680, Note_on_c, 11, 52, 100
16, 217738, Note_on_c, 11, 52, 0
16, 217740, Note_on_c, 11, 64, 100
16, 217978, Note_on_c, 11, 64, 0
16, 217980, Note_on_c, 11, 62, 100
16, 218098, Note_on_c, 11, 62, 0
16, 218100, Note_on_c, 11, 62, 100
16, 218218, Note_on_c, 11, 62, 0
16, 218220, Note_on_c, 11, 57, 100
16, 218458, Note_on_c, 11, 57, 0
16, 218460, Note_on_c, 11, 57, 100
16, 218698, Note_on_c, 11, 57, 0
16, 218700, Note_on_c, 11, 57, 100
16, 219178, Note_on_c, 11, 57, 0
16, 219660, Control_c, 11, 0, 0
16, 219660, Note_on_c, 11, 64, 100
16, 219780, Note_on_c, 11, 64, 0
16, 219840, Note_on_c, 11, 64, 100
16, 219880, Note_on_c, 11, 64, 0
16, 219900, Note_on_c, 11, 64, 100
16, 220060, Note_on_c, 11, 64, 0
16, 220420, Note_on_c, 11, 50, 100
16, 220457, Note_on_c, 11, 50, 0
16, 220460, Note_on_c, 11, 52, 100
16, 220497, Note_on_c, 11, 52, 0
16, 220500, Note_on_c, 11, 54, 100
16, 220537, Note_on_c, 11, 54, 0
16, 220540, Note_on_c, 11, 56, 100
16, 220577, Note_on_c, 11, 56, 0
16, 220580, Note_on_c, 11, 57, 100
16, 220617, Note_on_c, 11, 57, 0
16, 220620, Note_on_c, 11, 59, 100
16, 220697, Note_on_c, 11, 59, 0
16, 220700, Note_on_c, 11, 61, 100
16, 220737, Note_on_c, 11, 61, 0
16, 220740, Note_on_c, 11, 62, 100
16, 220777, Note_on_c, 11, 62, 0
16, 220780, Note_on_c, 11, 64, 100
16, 220817, Note_on_c, 11, 64, 0
16, 220820, Note_on_c, 11, 66, 100
16, 220857, Note_on_c, 11, 66, 0
16, 220860, Note_on_c, 11, 56, 100
16, 221137, Note_on_c, 11, 56, 0
16, 221140, Note_on_c, 11, 59, 100
16, 221177, Note_on_c, 11, 59, 0
16, 221180, Note_on_c, 11, 57, 100
16, 221217, Note_on_c, 11, 57, 0
16, 221220, Note_on_c, 11, 56, 100
16, 221257, Note_on_c, 11, 56, 0
16, 221260, Note_on_c, 11, 54, 100
16, 221297, Note_on_c, 11, 54, 0
16, 221300, Note_on_c, 11, 52, 100
16, 221337, Note_on_c, 11, 52, 0
16, 221340, Note_on_c, 11, 64, 100
16, 221457, Note_on_c, 11, 64, 0
16, 221500, Note_on_c, 11, 62, 100
16, 221537, Note_on_c, 11, 62, 0
16, 221540, Note_on_c, 11, 61, 100
16, 221577, Note_on_c, 11, 61, 0
16, 221580, Note_on_c, 11, 59, 100
16, 221700, Note_on_c, 11, 59, 0
16, 221760, Note_on_c, 11, 59, 100
16, 221800, Note_on_c, 11, 59, 0
16, 221820, Note_on_c, 11, 59, 100
16, 221980, Note_on_c, 11, 59, 0
16, 222060, Note_on_c, 11, 59, 100
16, 222298, Note_on_c, 11, 59, 0
16, 222300, Note_on_c, 11, 59, 100
16, 222540, Note_on_c, 11, 59, 0
16, 223300, Note_on_c, 11, 51, 90
16, 223339, Note_on_c, 11, 51, 0
16, 223340, Note_on_c, 11, 52, 90
16, 223379, Note_on_c, 11, 52, 0
16, 223380, Note_on_c, 11, 54, 90
16, 223419, Note_on_c, 11, 54, 0
16, 223420, Note_on_c, 11, 56, 90
16, 223459, Note_on_c, 11, 56, 0
16, 223460, Note_on_c, 11, 57, 90
16, 223499, Note_on_c, 11, 57, 0
16, 223500, Note_on_c, 11, 59, 90
16, 223539, Note_on_c, 11, 59, 0
16, 223540, Note_on_c, 11, 66, 90
16, 223579, Note_on_c, 11, 66, 0
16, 223580, Note_on_c, 11, 64, 90
16, 223619, Note_on_c, 11, 64, 0
16, 223620, Note_on_c, 11, 63, 90
16, 223659, Note_on_c, 11, 63, 0
16, 223660, Note_on_c, 11, 61, 90
16, 223699, Note_on_c, 11, 61, 0
16, 223700, Note_on_c, 11, 59, 90
16, 223780, Note_on_c, 11, 59, 0
16, 223780, Note_on_c, 11, 62, 90
16, 223819, Note_on_c, 11, 62, 0
16, 223820, Note_on_c, 11, 61, 90
16, 223859, Note_on_c, 11, 61, 0
16, 223860, Note_on_c, 11, 59, 90
16, 223900, Note_on_c, 11, 59, 0
16, 223900, Note_on_c, 11, 58, 90
16, 223940, Note_on_c, 11, 58, 0
16, 223940, Note_on_c, 11, 56, 90
16, 223980, Note_on_c, 11, 56, 0
16, 223980, Note_on_c, 11, 54, 90
16, 224160, Note_on_c, 11, 54, 0
16, 224160, Note_on_c, 11, 54, 90
16, 224220, Note_on_c, 11, 54, 0
16, 224220, Note_on_c, 11, 54, 90
16, 224460, Note_on_c, 11, 54, 0
16, 224460, Note_on_c, 11, 66, 90
16, 224640, Note_on_c, 11, 66, 0
16, 224640, Note_on_c, 11, 66, 90
16, 224700, Note_on_c, 11, 66, 0
16, 224700, Note_on_c, 11, 66, 90
16, 224940, Note_on_c, 11, 66, 0
16, 225340, Note_on_c, 11, 66, 90
16, 225380, Note_on_c, 11, 66, 0
16, 225380, Note_on_c, 11, 64, 90
16, 225420, Note_on_c, 11, 64, 0
16, 225420, Note_on_c, 11, 66, 90
16, 225460, Note_on_c, 11, 66, 0
16, 225460, Note_on_c, 11, 62, 90
16, 225500, Note_on_c, 11, 62, 0
16, 225500, Note_on_c, 11, 61, 90
16, 225540, Note_on_c, 11, 61, 0
16, 225540, Note_on_c, 11, 62, 90
16, 225580, Note_on_c, 11, 62, 0
16, 225580, Note_on_c, 11, 59, 90
16, 225620, Note_on_c, 11, 59, 0
16, 225620, Note_on_c, 11, 58, 90
16, 225660, Note_on_c, 11, 58, 0
16, 225660, Note_on_c, 11, 59, 90
16, 225700, Note_on_c, 11, 59, 0
16, 225700, Note_on_c, 11, 62, 90
16, 225740, Note_on_c, 11, 62, 0
16, 225740, Note_on_c, 11, 61, 90
16, 225780, Note_on_c, 11, 61, 0
16, 225780, Note_on_c, 11, 62, 90
16, 225820, Note_on_c, 11, 62, 0
16, 225820, Note_on_c, 11, 59, 90
16, 225860, Note_on_c, 11, 59, 0
16, 225860, Note_on_c, 11, 64, 90
16, 225900, Note_on_c, 11, 64, 0
16, 225900, Note_on_c, 11, 62, 90
16, 225940, Note_on_c, 11, 62, 0
16, 225940, Note_on_c, 11, 59, 90
16, 225980, Note_on_c, 11, 59, 0
16, 225980, Note_on_c, 11, 58, 90
16, 226020, Note_on_c, 11, 58, 0
16, 226020, Note_on_c, 11, 59, 90
16, 226180, Note_on_c, 11, 59, 0
16, 226180, Note_on_c, 11, 62, 90
16, 226220, Note_on_c, 11, 62, 0
16, 226220, Note_on_c, 11, 64, 90
16, 226260, Note_on_c, 11, 64, 0
16, 226260, Note_on_c, 11, 66, 90
16, 226350, Note_on_c, 11, 66, 0
16, 226350, Note_on_c, 11, 64, 90
16, 226380, Note_on_c, 11, 64, 0
16, 226380, Note_on_c, 11, 62, 90
16, 226500, Note_on_c, 11, 62, 0
16, 226500, Note_on_c, 11, 62, 90
16, 226560, Note_on_c, 11, 62, 0
16, 226560, Note_on_c, 11, 62, 90
16, 226620, Note_on_c, 11, 62, 0
16, 226620, Note_on_c, 11, 62, 90
16, 226740, Note_on_c, 11, 62, 0
16, 226740, Note_on_c, 11, 62, 90
16, 226860, Note_on_c, 11, 62, 0
16, 226860, Note_on_c, 11, 62, 90
16, 227040, Note_on_c, 11, 62, 0
16, 227040, Note_on_c, 11, 62, 90
16, 227100, Note_on_c, 11, 62, 0
16, 227100, Note_on_c, 11, 62, 90
16, 227340, Note_on_c, 11, 62, 0
16, 227340, Note_on_c, 11, 64, 90
16, 227580, Note_on_c, 11, 64, 0
16, 227580, Note_on_c, 11, 57, 90
16, 227820, Note_on_c, 11, 57, 0
16, 227820, Note_on_c, 11, 62, 90
16, 227880, Note_on_c, 11, 62, 0
16, 227880, Note_on_c, 11, 64, 90
16, 227940, Note_on_c, 11, 64, 0
16, 227940, Note_on_c, 11, 62, 90
16, 228000, Note_on_c, 11, 62, 0
16, 228000, Note_on_c, 11, 61, 90
16, 228060, Note_on_c, 11, 61, 0
16, 228060, Note_on_c, 11, 59, 90
16, 228300, Note_on_c, 11, 59, 0
16, 228300, Note_on_c, 11, 61, 90
16, 228780, Note_on_c, 11, 61, 0
16, 229560, Note_on_c, 11, 62, 90
16, 229589, Note_on_c, 11, 62, 0
16, 229590, Note_on_c, 11, 61, 90
16, 229619, Note_on_c, 11, 61, 0
16, 229620, Note_on_c, 11, 62, 90
16, 229649, Note_on_c, 11, 62, 0
16, 229650, Note_on_c, 11, 64, 90
16, 229679, Note_on_c, 11, 64, 0
16, 229680, Note_on_c, 11, 66, 90
16, 229710, Note_on_c, 11, 66, 0
16, 229740, Note_on_c, 11, 66, 90
16, 229769, Note_on_c, 11, 66, 0
16, 229770, Note_on_c, 11, 64, 90
16, 229799, Note_on_c, 11, 64, 0
16, 229800, Note_on_c, 11, 62, 90
16, 229829, Note_on_c, 11, 62, 0
16, 229830, Note_on_c, 11, 61, 90
16, 229859, Note_on_c, 11, 61, 0
16, 229860, Note_on_c, 11, 62, 90
16, 229950, Note_on_c, 11, 62, 0
16, 229950, Note_on_c, 11, 62, 90
16, 229979, Note_on_c, 11, 62, 0
16, 229980, Note_on_c, 11, 62, 90
16, 230100, Note_on_c, 11, 62, 0
16, 231000, Note_on_c, 11, 57, 90
16, 231029, Note_on_c, 11, 57, 0
16, 231030, Note_on_c, 11, 55, 90
16, 231059, Note_on_c, 11, 55, 0
16, 231060, Note_on_c, 11, 57, 90
16, 231119, Note_on_c, 11, 57, 0
16, 231120, Note_on_c, 11, 62, 90
16, 231179, Note_on_c, 11, 62, 0
16, 231180, Note_on_c, 11, 62, 90
16, 231239, Note_on_c, 11, 62, 0
16, 231240, Note_on_c, 11, 57, 90
16, 231299, Note_on_c, 11, 57, 0
16, 231300, Note_on_c, 11, 57, 90
16, 231389, Note_on_c, 11, 57, 0
16, 231390, Note_on_c, 11, 57, 90
16, 231419, Note_on_c, 11, 57, 0
16, 231420, Note_on_c, 11, 54, 90
16, 231479, Note_on_c, 11, 54, 0
16, 231480, Note_on_c, 11, 62, 90
16, 231539, Note_on_c, 11, 62, 0
16, 231540, Note_on_c, 11, 62, 90
16, 231599, Note_on_c, 11, 62, 0
16, 231600, Note_on_c, 11, 57, 90
16, 231659, Note_on_c, 11, 57, 0
16, 231660, Note_on_c, 11, 57, 90
16, 231749, Note_on_c, 11, 57, 0
16, 231750, Note_on_c, 11, 57, 90
16, 231779, Note_on_c, 11, 57, 0
16, 231780, Note_on_c, 11, 57, 90
16, 231899, Note_on_c, 11, 57, 0
16, 232080, Note_on_c, 11, 62, 90
16, 232109, Note_on_c, 11, 62, 0
16, 232110, Note_on_c, 11, 61, 90
16, 232139, Note_on_c, 11, 61, 0
16, 232140, Note_on_c, 11, 59, 90
16, 232199, Note_on_c, 11, 59, 0
16, 232200, Note_on_c, 11, 54, 90
16, 232259, Note_on_c, 11, 54, 0
16, 232260, Note_on_c, 11, 57, 90
16, 232319, Note_on_c, 11, 57, 0
16, 232320, Note_on_c, 11, 62, 90
16, 232379, Note_on_c, 11, 62, 0
16, 232380, Note_on_c, 11, 55, 90
16, 232439, Note_on_c, 11, 55, 0
16, 232800, Note_on_c, 11, 59, 90
16, 232829, Note_on_c, 11, 59, 0
16, 232830, Note_on_c, 11, 57, 90
16, 232859, Note_on_c, 11, 57, 0
16, 232860, Note_on_c, 11, 55, 90
16, 232919, Note_on_c, 11, 55, 0
16, 232920, Note_on_c, 11, 52, 90
16, 232979, Note_on_c, 11, 52, 0
16, 232980, Note_on_c, 11, 54, 90
16, 233039, Note_on_c, 11, 54, 0
16, 233040, Note_on_c, 11, 59, 90
16, 233099, Note_on_c, 11, 59, 0
16, 233100, Note_on_c, 11, 59, 90
16, 233189, Note_on_c, 11, 59, 0
16, 233190, Note_on_c, 11, 59, 90
16, 233219, Note_on_c, 11, 59, 0
16, 233220, Note_on_c, 11, 59, 90
16, 233339, Note_on_c, 11, 59, 0
16, 233880, Note_on_c, 11, 61, 90
16, 233909, Note_on_c, 11, 61, 0
16, 233910, Note_on_c, 11, 62, 90
16, 233939, Note_on_c, 11, 62, 0
16, 233940, Note_on_c, 11, 64, 90
16, 233969, Note_on_c, 11, 64, 0
16, 233970, Note_on_c, 11, 66, 90
16, 233999, Note_on_c, 11, 66, 0
16, 234000, Note_on_c, 11, 67, 90
16, 234029, Note_on_c, 11, 67, 0
16, 234060, Note_on_c, 11, 67, 90
16, 234089, Note_on_c, 11, 67, 0
16, 234090, Note_on_c, 11, 66, 90
16, 234119, Note_on_c, 11, 66, 0
16, 234120, Note_on_c, 11, 64, 90
16, 234149, Note_on_c, 11, 64, 0
16, 234150, Note_on_c, 11, 62, 90
16, 234179, Note_on_c, 11, 62, 0
16, 234180, Note_on_c, 11, 61, 90
16, 234330, Note_on_c, 11, 61, 0
16, 234330, Note_on_c, 11, 59, 90
16, 234359, Note_on_c, 11, 59, 0
16, 234360, Note_on_c, 11, 57, 90
16, 234389, Note_on_c, 11, 57, 0
16, 234390, Note_on_c, 11, 55, 90
16, 234419, Note_on_c, 11, 55, 0
16, 234420, Note_on_c, 11, 54, 90
16, 234449, Note_on_c, 11, 54, 0
16, 234450, Note_on_c, 11, 52, 90
16, 234479, Note_on_c, 11, 52, 0
16, 234480, Note_on_c, 11, 55, 90
16, 234509, Note_on_c, 11, 55, 0
16, 234510, Note_on_c, 11, 54, 90
16, 234539, Note_on_c, 11, 54, 0
16, 234540, Note_on_c, 11, 57, 90
16, 235950, Note_on_c, 11, 57, 0
16, 235950, Note_on_c, 11, 61, 90
16, 235979, Note_on_c, 11, 61, 0
16, 235980, Note_on_c, 11, 66, 90
16, 236009, Note_on_c, 11, 66, 0
16, 236010, Note_on_c, 11, 67, 90
16, 236039, Note_on_c, 11, 67, 0
16, 236040, Note_on_c, 11, 66, 90
16, 236069, Note_on_c, 11, 66, 0
16, 236070, Note_on_c, 11, 64, 90
16, 236099, Note_on_c, 11, 64, 0
16, 236100, Note_on_c, 11, 62, 90
16, 236129, Note_on_c, 11, 62, 0
16, 236130, Note_on_c, 11, 61, 90
16, 236159, Note_on_c, 11, 61, 0
16, 236160, Note_on_c, 11, 62, 90
16, 236249, Note_on_c, 11, 62, 0
16, 236250, Note_on_c, 11, 61, 90
16, 236279, Note_on_c, 11, 61, 0
16, 236280, Note_on_c, 11, 62, 90
16, 236309, Note_on_c, 11, 62, 0
16, 236310, Note_on_c, 11, 64, 90
16, 236339, Note_on_c, 11, 64, 0
16, 236340, Note_on_c, 11, 62, 90
16, 236399, Note_on_c, 11, 62, 0
16, 236400, Note_on_c, 11, 66, 90
16, 236459, Note_on_c, 11, 66, 0
16, 236460, Note_on_c, 11, 62, 90
16, 236519, Note_on_c, 11, 62, 0
16, 236520, Note_on_c, 11, 62, 90
16, 236579, Note_on_c, 11, 62, 0
16, 236580, Note_on_c, 11, 57, 90
16, 236699, Note_on_c, 11, 57, 0
16, 236700, Note_on_c, 11, 57, 90
16, 236819, Note_on_c, 11, 57, 0
16, 236819, End_track
17, 0, Start_track
17, 0, MIDI_port, 0
17, 0, Title_t, "bajo"
17, 0, Program_c, 12, 52
17, 0, Control_c, 12, 7, 127
17, 0, Control_c, 12, 10, 107
17, 11580, Note_on_c, 12, 50, 100
17, 11620, Note_on_c, 12, 50, 0
17, 11640, Note_on_c, 12, 62, 100
17, 11700, Note_on_c, 12, 62, 0
17, 11730, Note_on_c, 12, 62, 100
17, 11750, Note_on_c, 12, 62, 0
17, 11760, Note_on_c, 12, 62, 100
17, 11840, Note_on_c, 12, 62, 0
17, 11940, Note_on_c, 12, 47, 100
17, 11980, Note_on_c, 12, 47, 0
17, 12000, Note_on_c, 12, 59, 100
17, 12060, Note_on_c, 12, 59, 0
17, 12090, Note_on_c, 12, 59, 100
17, 12110, Note_on_c, 12, 59, 0
17, 12120, Note_on_c, 12, 59, 100
17, 12200, Note_on_c, 12, 59, 0
17, 12540, Note_on_c, 12, 45, 100
17, 12580, Note_on_c, 12, 45, 0
17, 12600, Note_on_c, 12, 50, 100
17, 12660, Note_on_c, 12, 50, 0
17, 12690, Note_on_c, 12, 50, 100
17, 12710, Note_on_c, 12, 50, 0
17, 12720, Note_on_c, 12, 50, 100
17, 12800, Note_on_c, 12, 50, 0
17, 13020, Note_on_c, 12, 54, 100
17, 13060, Note_on_c, 12, 54, 0
17, 13080, Note_on_c, 12, 59, 100
17, 13100, Note_on_c, 12, 59, 0
17, 13110, Note_on_c, 12, 61, 100
17, 13130, Note_on_c, 12, 61, 0
17, 13140, Note_on_c, 12, 62, 100
17, 13180, Note_on_c, 12, 62, 0
17, 13200, Note_on_c, 12, 62, 100
17, 13220, Note_on_c, 12, 62, 0
17, 13230, Note_on_c, 12, 61, 100
17, 13250, Note_on_c, 12, 61, 0
17, 13260, Note_on_c, 12, 59, 100
17, 13280, Note_on_c, 12, 59, 0
17, 13290, Note_on_c, 12, 57, 100
17, 13310, Note_on_c, 12, 57, 0
17, 13320, Note_on_c, 12, 56, 100
17, 13360, Note_on_c, 12, 56, 0
17, 13380, Note_on_c, 12, 52, 100
17, 13420, Note_on_c, 12, 52, 0
17, 13440, Note_on_c, 12, 57, 100
17, 13460, Note_on_c, 12, 57, 0
17, 13470, Note_on_c, 12, 59, 100
17, 13490, Note_on_c, 12, 59, 0
17, 13500, Note_on_c, 12, 61, 100
17, 13540, Note_on_c, 12, 61, 0
17, 13560, Note_on_c, 12, 61, 100
17, 13580, Note_on_c, 12, 61, 0
17, 13590, Note_on_c, 12, 59, 100
17, 13610, Note_on_c, 12, 59, 0
17, 13620, Note_on_c, 12, 57, 100
17, 13640, Note_on_c, 12, 57, 0
17, 13650, Note_on_c, 12, 55, 100
17, 13670, Note_on_c, 12, 55, 0
17, 13680, Note_on_c, 12, 54, 100
17, 13700, Note_on_c, 12, 54, 0
17, 13710, Note_on_c, 12, 52, 100
17, 13730, Note_on_c, 12, 52, 0
17, 13740, Note_on_c, 12, 50, 100
17, 13780, Note_on_c, 12, 50, 0
17, 13860, Note_on_c, 12, 54, 100
17, 13880, Note_on_c, 12, 54, 0
17, 13890, Note_on_c, 12, 55, 100
17, 13910, Note_on_c, 12, 55, 0
17, 13920, Note_on_c, 12, 54, 100
17, 13940, Note_on_c, 12, 54, 0
17, 13950, Note_on_c, 12, 52, 100
17, 13970, Note_on_c, 12, 52, 0
17, 13980, Note_on_c, 12, 50, 100
17, 14000, Note_on_c, 12, 50, 0
17, 14010, Note_on_c, 12, 49, 100
17, 14030, Note_on_c, 12, 49, 0
17, 14040, Note_on_c, 12, 47, 100
17, 14080, Note_on_c, 12, 47, 0
17, 14100, Note_on_c, 12, 59, 100
17, 14140, Note_on_c, 12, 59, 0
17, 14220, Note_on_c, 12, 59, 100
17, 14240, Note_on_c, 12, 59, 0
17, 14250, Note_on_c, 12, 61, 100
17, 14270, Note_on_c, 12, 61, 0
17, 14280, Note_on_c, 12, 59, 100
17, 14300, Note_on_c, 12, 59, 0
17, 14310, Note_on_c, 12, 57, 100
17, 14330, Note_on_c, 12, 57, 0
17, 14340, Note_on_c, 12, 56, 100
17, 14360, Note_on_c, 12, 56, 0
17, 14370, Note_on_c, 12, 54, 100
17, 14390, Note_on_c, 12, 54, 0
17, 14400, Note_on_c, 12, 52, 100
17, 14440, Note_on_c, 12, 52, 0
17, 14460, Note_on_c, 12, 56, 100
17, 14500, Note_on_c, 12, 56, 0
17, 14580, Note_on_c, 12, 56, 100
17, 14600, Note_on_c, 12, 56, 0
17, 14610, Note_on_c, 12, 54, 100
17, 14630, Note_on_c, 12, 54, 0
17, 14640, Note_on_c, 12, 52, 100
17, 14660, Note_on_c, 12, 52, 0
17, 14670, Note_on_c, 12, 54, 100
17, 14690, Note_on_c, 12, 54, 0
17, 14700, Note_on_c, 12, 52, 100
17, 14720, Note_on_c, 12, 52, 0
17, 14730, Note_on_c, 12, 50, 100
17, 14750, Note_on_c, 12, 50, 0
17, 14760, Note_on_c, 12, 49, 100
17, 14800, Note_on_c, 12, 49, 0
17, 14820, Note_on_c, 12, 57, 100
17, 14860, Note_on_c, 12, 57, 0
17, 14940, Note_on_c, 12, 61, 100
17, 14960, Note_on_c, 12, 61, 0
17, 14970, Note_on_c, 12, 59, 100
17, 14990, Note_on_c, 12, 59, 0
17, 15000, Note_on_c, 12, 57, 100
17, 15020, Note_on_c, 12, 57, 0
17, 15030, Note_on_c, 12, 59, 100
17, 15050, Note_on_c, 12, 59, 0
17, 15060, Note_on_c, 12, 57, 100
17, 15080, Note_on_c, 12, 57, 0
17, 15090, Note_on_c, 12, 55, 100
17, 15110, Note_on_c, 12, 55, 0
17, 15120, Note_on_c, 12, 54, 100
17, 15160, Note_on_c, 12, 54, 0
17, 15180, Note_on_c, 12, 50, 100
17, 15200, Note_on_c, 12, 50, 0
17, 15210, Note_on_c, 12, 52, 100
17, 15230, Note_on_c, 12, 52, 0
17, 15240, Note_on_c, 12, 54, 100
17, 15280, Note_on_c, 12, 54, 0
17, 15300, Note_on_c, 12, 59, 100
17, 15360, Note_on_c, 12, 59, 0
17, 15390, Note_on_c, 12, 57, 100
17, 15410, Note_on_c, 12, 57, 0
17, 15420, Note_on_c, 12, 56, 100
17, 15440, Note_on_c, 12, 56, 0
17, 15450, Note_on_c, 12, 54, 100
17, 15470, Note_on_c, 12, 54, 0
17, 15480, Note_on_c, 12, 52, 100
17, 15520, Note_on_c, 12, 52, 0
17, 15540, Note_on_c, 12, 56, 100
17, 15580, Note_on_c, 12, 56, 0
17, 15600, Note_on_c, 12, 57, 100
17, 15640, Note_on_c, 12, 57, 0
17, 15660, Note_on_c, 12, 50, 100
17, 15700, Note_on_c, 12, 50, 0
17, 15720, Note_on_c, 12, 52, 100
17, 15760, Note_on_c, 12, 52, 0
17, 15780, Note_on_c, 12, 52, 100
17, 15820, Note_on_c, 12, 52, 0
17, 15840, Note_on_c, 12, 45, 100
17, 15920, Note_on_c, 12, 45, 0
17, 16620, Note_on_c, 12, 45, 100
17, 16660, Note_on_c, 12, 45, 0
17, 16680, Note_on_c, 12, 57, 100
17, 16740, Note_on_c, 12, 57, 0
17, 16770, Note_on_c, 12, 57, 100
17, 16790, Note_on_c, 12, 57, 0
17, 16800, Note_on_c, 12, 57, 100
17, 16880, Note_on_c, 12, 57, 0
17, 16980, Note_on_c, 12, 42, 100
17, 17020, Note_on_c, 12, 42, 0
17, 17040, Note_on_c, 12, 54, 100
17, 17100, Note_on_c, 12, 54, 0
17, 17130, Note_on_c, 12, 54, 100
17, 17150, Note_on_c, 12, 54, 0
17, 17160, Note_on_c, 12, 54, 100
17, 17240, Note_on_c, 12, 54, 0
17, 17700, Note_on_c, 12, 57, 100
17, 17720, Note_on_c, 12, 57, 0
17, 17730, Note_on_c, 12, 56, 100
17, 17750, Note_on_c, 12, 56, 0
17, 17760, Note_on_c, 12, 54, 100
17, 17800, Note_on_c, 12, 54, 0
17, 17820, Note_on_c, 12, 49, 100
17, 17840, Note_on_c, 12, 49, 0
17, 17850, Note_on_c, 12, 50, 100
17, 17870, Note_on_c, 12, 50, 0
17, 17880, Note_on_c, 12, 52, 100
17, 17920, Note_on_c, 12, 52, 0
17, 17940, Note_on_c, 12, 64, 100
17, 17980, Note_on_c, 12, 64, 0
17, 18000, Note_on_c, 12, 57, 100
17, 18060, Note_on_c, 12, 57, 0
17, 18090, Note_on_c, 12, 57, 100
17, 18110, Note_on_c, 12, 57, 0
17, 18120, Note_on_c, 12, 57, 100
17, 18200, Note_on_c, 12, 57, 0
17, 19860, Note_on_c, 12, 45, 100
17, 19880, Note_on_c, 12, 45, 0
17, 19890, Note_on_c, 12, 47, 100
17, 19910, Note_on_c, 12, 47, 0
17, 19920, Note_on_c, 12, 49, 100
17, 19940, Note_on_c, 12, 49, 0
17, 19950, Note_on_c, 12, 50, 100
17, 19970, Note_on_c, 12, 50, 0
17, 19980, Note_on_c, 12, 52, 100
17, 20000, Note_on_c, 12, 52, 0
17, 20010, Note_on_c, 12, 54, 100
17, 20030, Note_on_c, 12, 54, 0
17, 20040, Note_on_c, 12, 55, 100
17, 20060, Note_on_c, 12, 55, 0
17, 20070, Note_on_c, 12, 54, 100
17, 20090, Note_on_c, 12, 54, 0
17, 20100, Note_on_c, 12, 55, 100
17, 20120, Note_on_c, 12, 55, 0
17, 20130, Note_on_c, 12, 52, 100
17, 20150, Note_on_c, 12, 52, 0
17, 20160, Note_on_c, 12, 54, 100
17, 20180, Note_on_c, 12, 54, 0
17, 20190, Note_on_c, 12, 52, 100
17, 20210, Note_on_c, 12, 52, 0
17, 20220, Note_on_c, 12, 50, 100
17, 20240, Note_on_c, 12, 50, 0
17, 20250, Note_on_c, 12, 52, 100
17, 20270, Note_on_c, 12, 52, 0
17, 20280, Note_on_c, 12, 54, 100
17, 20300, Note_on_c, 12, 54, 0
17, 20310, Note_on_c, 12, 55, 100
17, 20330, Note_on_c, 12, 55, 0
17, 20340, Note_on_c, 12, 57, 100
17, 20380, Note_on_c, 12, 57, 0
17, 20400, Note_on_c, 12, 57, 100
17, 20420, Note_on_c, 12, 57, 0
17, 20430, Note_on_c, 12, 55, 100
17, 20450, Note_on_c, 12, 55, 0
17, 20460, Note_on_c, 12, 54, 100
17, 20480, Note_on_c, 12, 54, 0
17, 20490, Note_on_c, 12, 52, 100
17, 20510, Note_on_c, 12, 52, 0
17, 20520, Note_on_c, 12, 54, 100
17, 20580, Note_on_c, 12, 54, 0
17, 20610, Note_on_c, 12, 54, 100
17, 20630, Note_on_c, 12, 54, 0
17, 20640, Note_on_c, 12, 54, 100
17, 20720, Note_on_c, 12, 54, 0
17, 21060, Note_on_c, 12, 54, 100
17, 21080, Note_on_c, 12, 54, 0
17, 21090, Note_on_c, 12, 55, 100
17, 21110, Note_on_c, 12, 55, 0
17, 21120, Note_on_c, 12, 57, 100
17, 21160, Note_on_c, 12, 57, 0
17, 21180, Note_on_c, 12, 45, 100
17, 21220, Note_on_c, 12, 45, 0
17, 21240, Note_on_c, 12, 50, 100
17, 21280, Note_on_c, 12, 50, 0
17, 21300, Note_on_c, 12, 62, 100
17, 21320, Note_on_c, 12, 62, 0
17, 21330, Note_on_c, 12, 61, 100
17, 21350, Note_on_c, 12, 61, 0
17, 21360, Note_on_c, 12, 59, 100
17, 21400, Note_on_c, 12, 59, 0
17, 21420, Note_on_c, 12, 57, 100
17, 21440, Note_on_c, 12, 57, 0
17, 21450, Note_on_c, 12, 55, 100
17, 21470, Note_on_c, 12, 55, 0
17, 21480, Note_on_c, 12, 57, 100
17, 21520, Note_on_c, 12, 57, 0
17, 21540, Note_on_c, 12, 45, 100
17, 21580, Note_on_c, 12, 45, 0
17, 21600, Note_on_c, 12, 50, 100
17, 21680, Note_on_c, 12, 50, 0
17, 22020, Note_on_c, 12, 59, 100
17, 22040, Note_on_c, 12, 59, 0
17, 22050, Note_on_c, 12, 57, 100
17, 22070, Note_on_c, 12, 57, 0
17, 22080, Note_on_c, 12, 55, 100
17, 22120, Note_on_c, 12, 55, 0
17, 22140, Note_on_c, 12, 54, 100
17, 22160, Note_on_c, 12, 54, 0
17, 22170, Note_on_c, 12, 52, 100
17, 22190, Note_on_c, 12, 52, 0
17, 22200, Note_on_c, 12, 54, 100
17, 22240, Note_on_c, 12, 54, 0
17, 22260, Note_on_c, 12, 42, 100
17, 22300, Note_on_c, 12, 42, 0
17, 22320, Note_on_c, 12, 47, 100
17, 22360, Note_on_c, 12, 47, 0
17, 22380, Note_on_c, 12, 54, 100
17, 22420, Note_on_c, 12, 54, 0
17, 22440, Note_on_c, 12, 59, 100
17, 22500, Note_on_c, 12, 59, 0
17, 22530, Note_on_c, 12, 60, 100
17, 22550, Note_on_c, 12, 60, 0
17, 22560, Note_on_c, 12, 59, 100
17, 22580, Note_on_c, 12, 59, 0
17, 22590, Note_on_c, 12, 60, 100
17, 22610, Note_on_c, 12, 60, 0
17, 22620, Note_on_c, 12, 59, 100
17, 22640, Note_on_c, 12, 59, 0
17, 22650, Note_on_c, 12, 60, 100
17, 22670, Note_on_c, 12, 60, 0
17, 22680, Note_on_c, 12, 59, 100
17, 22740, Note_on_c, 12, 59, 0
17, 22770, Note_on_c, 12, 57, 100
17, 22790, Note_on_c, 12, 57, 0
17, 22800, Note_on_c, 12, 55, 100
17, 22880, Note_on_c, 12, 55, 0
17, 22980, Note_on_c, 12, 50, 100
17, 23020, Note_on_c, 12, 50, 0
17, 23040, Note_on_c, 12, 55, 100
17, 23100, Note_on_c, 12, 55, 0
17, 23130, Note_on_c, 12, 43, 100
17, 23150, Note_on_c, 12, 43, 0
17, 23160, Note_on_c, 12, 43, 100
17, 23240, Note_on_c, 12, 43, 0
17, 23460, Note_on_c, 12, 52, 100
17, 23480, Note_on_c, 12, 52, 0
17, 23490, Note_on_c, 12, 50, 100
17, 23510, Note_on_c, 12, 50, 0
17, 23520, Note_on_c, 12, 48, 100
17, 23560, Note_on_c, 12, 48, 0
17, 23580, Note_on_c, 12, 47, 100
17, 23600, Note_on_c, 12, 47, 0
17, 23610, Note_on_c, 12, 45, 100
17, 23630, Note_on_c, 12, 45, 0
17, 23640, Note_on_c, 12, 47, 100
17, 23680, Note_on_c, 12, 47, 0
17, 23700, Note_on_c, 12, 47, 100
17, 23740, Note_on_c, 12, 47, 0
17, 23760, Note_on_c, 12, 52, 100
17, 23800, Note_on_c, 12, 52, 0
17, 23820, Note_on_c, 12, 47, 100
17, 23860, Note_on_c, 12, 47, 0
17, 23880, Note_on_c, 12, 52, 100
17, 23900, Note_on_c, 12, 52, 0
17, 23910, Note_on_c, 12, 54, 100
17, 23930, Note_on_c, 12, 54, 0
17, 23940, Note_on_c, 12, 55, 100
17, 23980, Note_on_c, 12, 55, 0
17, 24000, Note_on_c, 12, 55, 100
17, 24020, Note_on_c, 12, 55, 0
17, 24030, Note_on_c, 12, 54, 100
17, 24050, Note_on_c, 12, 54, 0
17, 24060, Note_on_c, 12, 52, 100
17, 24080, Note_on_c, 12, 52, 0
17, 24090, Note_on_c, 12, 50, 100
17, 24110, Note_on_c, 12, 50, 0
17, 24120, Note_on_c, 12, 49, 100
17, 24160, Note_on_c, 12, 49, 0
17, 24180, Note_on_c, 12, 45, 100
17, 24220, Note_on_c, 12, 45, 0
17, 24240, Note_on_c, 12, 50, 100
17, 24260, Note_on_c, 12, 50, 0
17, 24270, Note_on_c, 12, 52, 100
17, 24290, Note_on_c, 12, 52, 0
17, 24300, Note_on_c, 12, 54, 100
17, 24340, Note_on_c, 12, 54, 0
17, 24360, Note_on_c, 12, 54, 100
17, 24380, Note_on_c, 12, 54, 0
17, 24390, Note_on_c, 12, 52, 100
17, 24410, Note_on_c, 12, 52, 0
17, 24420, Note_on_c, 12, 50, 100
17, 24440, Note_on_c, 12, 50, 0
17, 24450, Note_on_c, 12, 48, 100
17, 24470, Note_on_c, 12, 48, 0
17, 24480, Note_on_c, 12, 47, 100
17, 24500, Note_on_c, 12, 47, 0
17, 24510, Note_on_c, 12, 45, 100
17, 24530, Note_on_c, 12, 45, 0
17, 24540, Note_on_c, 12, 43, 100
17, 24580, Note_on_c, 12, 43, 0
17, 24660, Note_on_c, 12, 59, 100
17, 24680, Note_on_c, 12, 59, 0
17, 24690, Note_on_c, 12, 60, 100
17, 24710, Note_on_c, 12, 60, 0
17, 24720, Note_on_c, 12, 59, 100
17, 24740, Note_on_c, 12, 59, 0
17, 24750, Note_on_c, 12, 57, 100
17, 24770, Note_on_c, 12, 57, 0
17, 24780, Note_on_c, 12, 55, 100
17, 24800, Note_on_c, 12, 55, 0
17, 24810, Note_on_c, 12, 54, 100
17, 24830, Note_on_c, 12, 54, 0
17, 24840, Note_on_c, 12, 52, 100
17, 24880, Note_on_c, 12, 52, 0
17, 24900, Note_on_c, 12, 52, 100
17, 24940, Note_on_c, 12, 52, 0
17, 25020, Note_on_c, 12, 52, 100
17, 25040, Note_on_c, 12, 52, 0
17, 25050, Note_on_c, 12, 54, 100
17, 25070, Note_on_c, 12, 54, 0
17, 25080, Note_on_c, 12, 52, 100
17, 25100, Note_on_c, 12, 52, 0
17, 25110, Note_on_c, 12, 50, 100
17, 25130, Note_on_c, 12, 50, 0
17, 25140, Note_on_c, 12, 49, 100
17, 25160, Note_on_c, 12, 49, 0
17, 25170, Note_on_c, 12, 47, 100
17, 25190, Note_on_c, 12, 47, 0
17, 25200, Note_on_c, 12, 45, 100
17, 25240, Note_on_c, 12, 45, 0
17, 25260, Note_on_c, 12, 49, 100
17, 25300, Note_on_c, 12, 49, 0
17, 25380, Note_on_c, 12, 61, 100
17, 25400, Note_on_c, 12, 61, 0
17, 25410, Note_on_c, 12, 59, 100
17, 25430, Note_on_c, 12, 59, 0
17, 25440, Note_on_c, 12, 57, 100
17, 25460, Note_on_c, 12, 57, 0
17, 25470, Note_on_c, 12, 59, 100
17, 25490, Note_on_c, 12, 59, 0
17, 25500, Note_on_c, 12, 57, 100
17, 25520, Note_on_c, 12, 57, 0
17, 25530, Note_on_c, 12, 55, 100
17, 25550, Note_on_c, 12, 55, 0
17, 25560, Note_on_c, 12, 54, 100
17, 25600, Note_on_c, 12, 54, 0
17, 25620, Note_on_c, 12, 50, 100
17, 25660, Note_on_c, 12, 50, 0
17, 25740, Note_on_c, 12, 55, 100
17, 25760, Note_on_c, 12, 55, 0
17, 25770, Note_on_c, 12, 52, 100
17, 25790, Note_on_c, 12, 52, 0
17, 25800, Note_on_c, 12, 50, 100
17, 25820, Note_on_c, 12, 50, 0
17, 25830, Note_on_c, 12, 52, 100
17, 25850, Note_on_c, 12, 52, 0
17, 25860, Note_on_c, 12, 50, 100
17, 25880, Note_on_c, 12, 50, 0
17, 25890, Note_on_c, 12, 48, 100
17, 25910, Note_on_c, 12, 48, 0
17, 25920, Note_on_c, 12, 47, 100
17, 25960, Note_on_c, 12, 47, 0
17, 25980, Note_on_c, 12, 43, 100
17, 26000, Note_on_c, 12, 43, 0
17, 26010, Note_on_c, 12, 45, 100
17, 26030, Note_on_c, 12, 45, 0
17, 26040, Note_on_c, 12, 47, 100
17, 26080, Note_on_c, 12, 47, 0
17, 26100, Note_on_c, 12, 52, 100
17, 26140, Note_on_c, 12, 52, 0
17, 26160, Note_on_c, 12, 52, 100
17, 26180, Note_on_c, 12, 52, 0
17, 26190, Note_on_c, 12, 50, 100
17, 26210, Note_on_c, 12, 50, 0
17, 26220, Note_on_c, 12, 49, 100
17, 26240, Note_on_c, 12, 49, 0
17, 26250, Note_on_c, 12, 47, 100
17, 26270, Note_on_c, 12, 47, 0
17, 26280, Note_on_c, 12, 45, 100
17, 26320, Note_on_c, 12, 45, 0
17, 26340, Note_on_c, 12, 49, 100
17, 26380, Note_on_c, 12, 49, 0
17, 26400, Note_on_c, 12, 50, 100
17, 26440, Note_on_c, 12, 50, 0
17, 26460, Note_on_c, 12, 55, 100
17, 26500, Note_on_c, 12, 55, 0
17, 26520, Note_on_c, 12, 57, 100
17, 26560, Note_on_c, 12, 57, 0
17, 26580, Note_on_c, 12, 45, 100
17, 26620, Note_on_c, 12, 45, 0
17, 26640, Note_on_c, 12, 50, 100
17, 26720, Note_on_c, 12, 50, 0
17, 61020, Note_on_c, 12, 54, 90
17, 61079, Note_on_c, 12, 54, 0
17, 61080, Note_on_c, 12, 54, 90
17, 61139, Note_on_c, 12, 54, 0
17, 61140, Note_on_c, 12, 54, 90
17, 61199, Note_on_c, 12, 54, 0
17, 61200, Note_on_c, 12, 54, 90
17, 61259, Note_on_c, 12, 54, 0
17, 61260, Note_on_c, 12, 54, 90
17, 61319, Note_on_c, 12, 54, 0
17, 61320, Note_on_c, 12, 53, 90
17, 61349, Note_on_c, 12, 53, 0
17, 61350, Note_on_c, 12, 51, 90
17, 61379, Note_on_c, 12, 51, 0
17, 61380, Note_on_c, 12, 49, 90
17, 61439, Note_on_c, 12, 49, 0
17, 61440, Note_on_c, 12, 47, 90
17, 61499, Note_on_c, 12, 47, 0
17, 61500, Note_on_c, 12, 45, 90
17, 61529, Note_on_c, 12, 45, 0
17, 61530, Note_on_c, 12, 44, 90
17, 61559, Note_on_c, 12, 44, 0
17, 61560, Note_on_c, 12, 42, 90
17, 61589, Note_on_c, 12, 42, 0
17, 61590, Note_on_c, 12, 44, 90
17, 61619, Note_on_c, 12, 44, 0
17, 61620, Note_on_c, 12, 45, 90
17, 61649, Note_on_c, 12, 45, 0
17, 61650, Note_on_c, 12, 44, 90
17, 61679, Note_on_c, 12, 44, 0
17, 61680, Note_on_c, 12, 45, 90
17, 61709, Note_on_c, 12, 45, 0
17, 61710, Note_on_c, 12, 47, 90
17, 61739, Note_on_c, 12, 47, 0
17, 61740, Note_on_c, 12, 49, 90
17, 61769, Note_on_c, 12, 49, 0
17, 61770, Note_on_c, 12, 47, 90
17, 61799, Note_on_c, 12, 47, 0
17, 61800, Note_on_c, 12, 49, 90
17, 61829, Note_on_c, 12, 49, 0
17, 61830, Note_on_c, 12, 51, 90
17, 61859, Note_on_c, 12, 51, 0
17, 61860, Note_on_c, 12, 53, 90
17, 61889, Note_on_c, 12, 53, 0
17, 61890, Note_on_c, 12, 49, 90
17, 61919, Note_on_c, 12, 49, 0
17, 61920, Note_on_c, 12, 50, 90
17, 61949, Note_on_c, 12, 50, 0
17, 61950, Note_on_c, 12, 53, 90
17, 61979, Note_on_c, 12, 53, 0
17, 61980, Note_on_c, 12, 54, 90
17, 62009, Note_on_c, 12, 54, 0
17, 62010, Note_on_c, 12, 56, 90
17, 62039, Note_on_c, 12, 56, 0
17, 62040, Note_on_c, 12, 57, 90
17, 62069, Note_on_c, 12, 57, 0
17, 62070, Note_on_c, 12, 59, 90
17, 62099, Note_on_c, 12, 59, 0
17, 62100, Note_on_c, 12, 61, 90
17, 62159, Note_on_c, 12, 61, 0
17, 62160, Note_on_c, 12, 49, 90
17, 62219, Note_on_c, 12, 49, 0
17, 62460, Note_on_c, 12, 61, 90
17, 62519, Note_on_c, 12, 61, 0
17, 62520, Note_on_c, 12, 61, 90
17, 62579, Note_on_c, 12, 61, 0
17, 62580, Note_on_c, 12, 61, 90
17, 62639, Note_on_c, 12, 61, 0
17, 62640, Note_on_c, 12, 61, 90
17, 62699, Note_on_c, 12, 61, 0
17, 62700, Note_on_c, 12, 61, 90
17, 62759, Note_on_c, 12, 61, 0
17, 62760, Note_on_c, 12, 59, 90
17, 62789, Note_on_c, 12, 59, 0
17, 62790, Note_on_c, 12, 57, 90
17, 62819, Note_on_c, 12, 57, 0
17, 62820, Note_on_c, 12, 56, 90
17, 62879, Note_on_c, 12, 56, 0
17, 62880, Note_on_c, 12, 61, 90
17, 62939, Note_on_c, 12, 61, 0
17, 62940, Note_on_c, 12, 57, 90
17, 62999, Note_on_c, 12, 57, 0
17, 63000, Note_on_c, 12, 54, 90
17, 63059, Note_on_c, 12, 54, 0
17, 63480, Note_on_c, 12, 54, 90
17, 63509, Note_on_c, 12, 54, 0
17, 63510, Note_on_c, 12, 56, 90
17, 63539, Note_on_c, 12, 56, 0
17, 63540, Note_on_c, 12, 57, 90
17, 63569, Note_on_c, 12, 57, 0
17, 63570, Note_on_c, 12, 54, 90
17, 63599, Note_on_c, 12, 54, 0
17, 63600, Note_on_c, 12, 56, 90
17, 63629, Note_on_c, 12, 56, 0
17, 63630, Note_on_c, 12, 57, 90
17, 63659, Note_on_c, 12, 57, 0
17, 63660, Note_on_c, 12, 59, 90
17, 63719, Note_on_c, 12, 59, 0
17, 63720, Note_on_c, 12, 59, 90
17, 63779, Note_on_c, 12, 59, 0
17, 63780, Note_on_c, 12, 59, 90
17, 63839, Note_on_c, 12, 59, 0
17, 63840, Note_on_c, 12, 59, 90
17, 63899, Note_on_c, 12, 59, 0
17, 63900, Note_on_c, 12, 59, 90
17, 63959, Note_on_c, 12, 59, 0
17, 63960, Note_on_c, 12, 57, 90
17, 63989, Note_on_c, 12, 57, 0
17, 63990, Note_on_c, 12, 56, 90
17, 64019, Note_on_c, 12, 56, 0
17, 64020, Note_on_c, 12, 54, 90
17, 64079, Note_on_c, 12, 54, 0
17, 64080, Note_on_c, 12, 52, 90
17, 64139, Note_on_c, 12, 52, 0
17, 64140, Note_on_c, 12, 50, 90
17, 64229, Note_on_c, 12, 50, 0
17, 64230, Note_on_c, 12, 49, 90
17, 64259, Note_on_c, 12, 49, 0
17, 64260, Note_on_c, 12, 47, 90
17, 64289, Note_on_c, 12, 47, 0
17, 64290, Note_on_c, 12, 44, 90
17, 64319, Note_on_c, 12, 44, 0
17, 64320, Note_on_c, 12, 45, 90
17, 64349, Note_on_c, 12, 45, 0
17, 64350, Note_on_c, 12, 47, 90
17, 64379, Note_on_c, 12, 47, 0
17, 64380, Note_on_c, 12, 49, 90
17, 64409, Note_on_c, 12, 49, 0
17, 64410, Note_on_c, 12, 47, 90
17, 64439, Note_on_c, 12, 47, 0
17, 64440, Note_on_c, 12, 45, 90
17, 64469, Note_on_c, 12, 45, 0
17, 64470, Note_on_c, 12, 47, 90
17, 64499, Note_on_c, 12, 47, 0
17, 64500, Note_on_c, 12, 49, 90
17, 64529, Note_on_c, 12, 49, 0
17, 64530, Note_on_c, 12, 45, 90
17, 64559, Note_on_c, 12, 45, 0
17, 64560, Note_on_c, 12, 47, 90
17, 64589, Note_on_c, 12, 47, 0
17, 64590, Note_on_c, 12, 49, 90
17, 64619, Note_on_c, 12, 49, 0
17, 64620, Note_on_c, 12, 50, 90
17, 64649, Note_on_c, 12, 50, 0
17, 64650, Note_on_c, 12, 49, 90
17, 64679, Note_on_c, 12, 49, 0
17, 64680, Note_on_c, 12, 47, 90
17, 64709, Note_on_c, 12, 47, 0
17, 64710, Note_on_c, 12, 49, 90
17, 64739, Note_on_c, 12, 49, 0
17, 64740, Note_on_c, 12, 50, 90
17, 64769, Note_on_c, 12, 50, 0
17, 64770, Note_on_c, 12, 47, 90
17, 64799, Note_on_c, 12, 47, 0
17, 64800, Note_on_c, 12, 49, 90
17, 64829, Note_on_c, 12, 49, 0
17, 64830, Note_on_c, 12, 50, 90
17, 64859, Note_on_c, 12, 50, 0
17, 64860, Note_on_c, 12, 52, 90
17, 64889, Note_on_c, 12, 52, 0
17, 64890, Note_on_c, 12, 50, 90
17, 64919, Note_on_c, 12, 50, 0
17, 64920, Note_on_c, 12, 49, 90
17, 64949, Note_on_c, 12, 49, 0
17, 64950, Note_on_c, 12, 50, 90
17, 64979, Note_on_c, 12, 50, 0
17, 64980, Note_on_c, 12, 52, 90
17, 65009, Note_on_c, 12, 52, 0
17, 65010, Note_on_c, 12, 49, 90
17, 65039, Note_on_c, 12, 49, 0
17, 65040, Note_on_c, 12, 50, 90
17, 65069, Note_on_c, 12, 50, 0
17, 65070, Note_on_c, 12, 52, 90
17, 65099, Note_on_c, 12, 52, 0
17, 65100, Note_on_c, 12, 54, 90
17, 65159, Note_on_c, 12, 54, 0
17, 65160, Note_on_c, 12, 52, 90
17, 65189, Note_on_c, 12, 52, 0
17, 65190, Note_on_c, 12, 50, 90
17, 65219, Note_on_c, 12, 50, 0
17, 65220, Note_on_c, 12, 52, 90
17, 65339, Note_on_c, 12, 52, 0
17, 65340, Note_on_c, 12, 45, 90
17, 65399, Note_on_c, 12, 45, 0
17, 65400, Note_on_c, 12, 57, 90
17, 65429, Note_on_c, 12, 57, 0
17, 65430, Note_on_c, 12, 57, 90
17, 65459, Note_on_c, 12, 57, 0
17, 65460, Note_on_c, 12, 57, 90
17, 65519, Note_on_c, 12, 57, 0
17, 65520, Note_on_c, 12, 57, 90
17, 65579, Note_on_c, 12, 57, 0
17, 65580, Note_on_c, 12, 57, 90
17, 65639, Note_on_c, 12, 57, 0
17, 65640, Note_on_c, 12, 56, 90
17, 65669, Note_on_c, 12, 56, 0
17, 65670, Note_on_c, 12, 54, 90
17, 65699, Note_on_c, 12, 54, 0
17, 65700, Note_on_c, 12, 52, 90
17, 65759, Note_on_c, 12, 52, 0
17, 65760, Note_on_c, 12, 50, 90
17, 65819, Note_on_c, 12, 50, 0
17, 65820, Note_on_c, 12, 49, 90
17, 65849, Note_on_c, 12, 49, 0
17, 65850, Note_on_c, 12, 47, 90
17, 65879, Note_on_c, 12, 47, 0
17, 65880, Note_on_c, 12, 45, 90
17, 65909, Note_on_c, 12, 45, 0
17, 65910, Note_on_c, 12, 47, 90
17, 65939, Note_on_c, 12, 47, 0
17, 65940, Note_on_c, 12, 49, 90
17, 65969, Note_on_c, 12, 49, 0
17, 65970, Note_on_c, 12, 47, 90
17, 65999, Note_on_c, 12, 47, 0
17, 66000, Note_on_c, 12, 49, 90
17, 66029, Note_on_c, 12, 49, 0
17, 66030, Note_on_c, 12, 50, 90
17, 66059, Note_on_c, 12, 50, 0
17, 66060, Note_on_c, 12, 52, 90
17, 66119, Note_on_c, 12, 52, 0
17, 66120, Note_on_c, 12, 52, 90
17, 66179, Note_on_c, 12, 52, 0
17, 66300, Note_on_c, 12, 59, 90
17, 66359, Note_on_c, 12, 59, 0
17, 66360, Note_on_c, 12, 59, 90
17, 66419, Note_on_c, 12, 59, 0
17, 66420, Note_on_c, 12, 59, 90
17, 66479, Note_on_c, 12, 59, 0
17, 66480, Note_on_c, 12, 59, 90
17, 66539, Note_on_c, 12, 59, 0
17, 66540, Note_on_c, 12, 59, 90
17, 66599, Note_on_c, 12, 59, 0
17, 66600, Note_on_c, 12, 58, 90
17, 66629, Note_on_c, 12, 58, 0
17, 66630, Note_on_c, 12, 56, 90
17, 66659, Note_on_c, 12, 56, 0
17, 66660, Note_on_c, 12, 54, 90
17, 66719, Note_on_c, 12, 54, 0
17, 66720, Note_on_c, 12, 52, 90
17, 66779, Note_on_c, 12, 52, 0
17, 66780, Note_on_c, 12, 50, 90
17, 66809, Note_on_c, 12, 50, 0
17, 66810, Note_on_c, 12, 49, 90
17, 66839, Note_on_c, 12, 49, 0
17, 66840, Note_on_c, 12, 47, 90
17, 66869, Note_on_c, 12, 47, 0
17, 66870, Note_on_c, 12, 49, 90
17, 66899, Note_on_c, 12, 49, 0
17, 66900, Note_on_c, 12, 51, 90
17, 66929, Note_on_c, 12, 51, 0
17, 66930, Note_on_c, 12, 50, 90
17, 66959, Note_on_c, 12, 50, 0
17, 66960, Note_on_c, 12, 51, 90
17, 66989, Note_on_c, 12, 51, 0
17, 66990, Note_on_c, 12, 53, 90
17, 67019, Note_on_c, 12, 53, 0
17, 67020, Note_on_c, 12, 54, 90
17, 67049, Note_on_c, 12, 54, 0
17, 67050, Note_on_c, 12, 49, 90
17, 67079, Note_on_c, 12, 49, 0
17, 67080, Note_on_c, 12, 51, 90
17, 67109, Note_on_c, 12, 51, 0
17, 67110, Note_on_c, 12, 53, 90
17, 67139, Note_on_c, 12, 53, 0
17, 67140, Note_on_c, 12, 54, 90
17, 67169, Note_on_c, 12, 54, 0
17, 67170, Note_on_c, 12, 53, 90
17, 67199, Note_on_c, 12, 53, 0
17, 67200, Note_on_c, 12, 54, 90
17, 67229, Note_on_c, 12, 54, 0
17, 67230, Note_on_c, 12, 56, 90
17, 67259, Note_on_c, 12, 56, 0
17, 67260, Note_on_c, 12, 57, 90
17, 67319, Note_on_c, 12, 57, 0
17, 67320, Note_on_c, 12, 57, 90
17, 67379, Note_on_c, 12, 57, 0
17, 67500, Note_on_c, 12, 61, 90
17, 67559, Note_on_c, 12, 61, 0
17, 67560, Note_on_c, 12, 61, 90
17, 67619, Note_on_c, 12, 61, 0
17, 67620, Note_on_c, 12, 61, 90
17, 67679, Note_on_c, 12, 61, 0
17, 67680, Note_on_c, 12, 61, 90
17, 67739, Note_on_c, 12, 61, 0
17, 67740, Note_on_c, 12, 61, 90
17, 67799, Note_on_c, 12, 61, 0
17, 67800, Note_on_c, 12, 59, 90
17, 67829, Note_on_c, 12, 59, 0
17, 67830, Note_on_c, 12, 57, 90
17, 67859, Note_on_c, 12, 57, 0
17, 67860, Note_on_c, 12, 56, 90
17, 67919, Note_on_c, 12, 56, 0
17, 67920, Note_on_c, 12, 54, 90
17, 67979, Note_on_c, 12, 54, 0
17, 67980, Note_on_c, 12, 53, 90
17, 68009, Note_on_c, 12, 53, 0
17, 68010, Note_on_c, 12, 51, 90
17, 68039, Note_on_c, 12, 51, 0
17, 68040, Note_on_c, 12, 49, 90
17, 68069, Note_on_c, 12, 49, 0
17, 68070, Note_on_c, 12, 51, 90
17, 68099, Note_on_c, 12, 51, 0
17, 68100, Note_on_c, 12, 53, 90
17, 68129, Note_on_c, 12, 53, 0
17, 68130, Note_on_c, 12, 49, 90
17, 68159, Note_on_c, 12, 49, 0
17, 68160, Note_on_c, 12, 51, 90
17, 68189, Note_on_c, 12, 51, 0
17, 68190, Note_on_c, 12, 53, 90
17, 68219, Note_on_c, 12, 53, 0
17, 68220, Note_on_c, 12, 54, 90
17, 68249, Note_on_c, 12, 54, 0
17, 68250, Note_on_c, 12, 52, 90
17, 68279, Note_on_c, 12, 52, 0
17, 68280, Note_on_c, 12, 50, 90
17, 68309, Note_on_c, 12, 50, 0
17, 68310, Note_on_c, 12, 52, 90
17, 68339, Note_on_c, 12, 52, 0
17, 68340, Note_on_c, 12, 54, 90
17, 68369, Note_on_c, 12, 54, 0
17, 68370, Note_on_c, 12, 50, 90
17, 68399, Note_on_c, 12, 50, 0
17, 68400, Note_on_c, 12, 52, 90
17, 68429, Note_on_c, 12, 52, 0
17, 68430, Note_on_c, 12, 54, 90
17, 68459, Note_on_c, 12, 54, 0
17, 68460, Note_on_c, 12, 56, 90
17, 68489, Note_on_c, 12, 56, 0
17, 68490, Note_on_c, 12, 54, 90
17, 68519, Note_on_c, 12, 54, 0
17, 68520, Note_on_c, 12, 52, 90
17, 68549, Note_on_c, 12, 52, 0
17, 68550, Note_on_c, 12, 54, 90
17, 68579, Note_on_c, 12, 54, 0
17, 68580, Note_on_c, 12, 56, 90
17, 68609, Note_on_c, 12, 56, 0
17, 68610, Note_on_c, 12, 52, 90
17, 68639, Note_on_c, 12, 52, 0
17, 68640, Note_on_c, 12, 54, 90
17, 68669, Note_on_c, 12, 54, 0
17, 68670, Note_on_c, 12, 56, 90
17, 68699, Note_on_c, 12, 56, 0
17, 68700, Note_on_c, 12, 57, 90
17, 68759, Note_on_c, 12, 57, 0
17, 68760, Note_on_c, 12, 57, 90
17, 68819, Note_on_c, 12, 57, 0
17, 68940, Note_on_c, 12, 62, 90
17, 68999, Note_on_c, 12, 62, 0
17, 69000, Note_on_c, 12, 62, 90
17, 69059, Note_on_c, 12, 62, 0
17, 69060, Note_on_c, 12, 62, 90
17, 69119, Note_on_c, 12, 62, 0
17, 69120, Note_on_c, 12, 62, 90
17, 69179, Note_on_c, 12, 62, 0
17, 69180, Note_on_c, 12, 62, 90
17, 69239, Note_on_c, 12, 62, 0
17, 69240, Note_on_c, 12, 61, 90
17, 69269, Note_on_c, 12, 61, 0
17, 69270, Note_on_c, 12, 59, 90
17, 69299, Note_on_c, 12, 59, 0
17, 69300, Note_on_c, 12, 57, 90
17, 69359, Note_on_c, 12, 57, 0
17, 69360, Note_on_c, 12, 55, 90
17, 69419, Note_on_c, 12, 55, 0
17, 69420, Note_on_c, 12, 54, 90
17, 69479, Note_on_c, 12, 54, 0
17, 69480, Note_on_c, 12, 59, 90
17, 69509, Note_on_c, 12, 59, 0
17, 69510, Note_on_c, 12, 58, 90
17, 69539, Note_on_c, 12, 58, 0
17, 69540, Note_on_c, 12, 59, 90
17, 69719, Note_on_c, 12, 59, 0
17, 69720, Note_on_c, 12, 52, 90
17, 69749, Note_on_c, 12, 52, 0
17, 69750, Note_on_c, 12, 54, 90
17, 69779, Note_on_c, 12, 54, 0
17, 69780, Note_on_c, 12, 56, 90
17, 69809, Note_on_c, 12, 56, 0
17, 69810, Note_on_c, 12, 52, 90
17, 69839, Note_on_c, 12, 52, 0
17, 69840, Note_on_c, 12, 54, 90
17, 69869, Note_on_c, 12, 54, 0
17, 69870, Note_on_c, 12, 56, 90
17, 69899, Note_on_c, 12, 56, 0
17, 69900, Note_on_c, 12, 57, 90
17, 69959, Note_on_c, 12, 57, 0
17, 69960, Note_on_c, 12, 57, 90
17, 70019, Note_on_c, 12, 57, 0
17, 70020, Note_on_c, 12, 57, 90
17, 70079, Note_on_c, 12, 57, 0
17, 70080, Note_on_c, 12, 57, 90
17, 70139, Note_on_c, 12, 57, 0
17, 70140, Note_on_c, 12, 57, 90
17, 70199, Note_on_c, 12, 57, 0
17, 70200, Note_on_c, 12, 56, 90
17, 70229, Note_on_c, 12, 56, 0
17, 70230, Note_on_c, 12, 54, 90
17, 70259, Note_on_c, 12, 54, 0
17, 70260, Note_on_c, 12, 52, 90
17, 70319, Note_on_c, 12, 52, 0
17, 70320, Note_on_c, 12, 51, 90
17, 70379, Note_on_c, 12, 51, 0
17, 70380, Note_on_c, 12, 49, 90
17, 70439, Note_on_c, 12, 49, 0
17, 70440, Note_on_c, 12, 54, 90
17, 70499, Note_on_c, 12, 54, 0
17, 70500, Note_on_c, 12, 56, 90
17, 70619, Note_on_c, 12, 56, 0
17, 70620, Note_on_c, 12, 49, 90
17, 70679, Note_on_c, 12, 49, 0
17, 70680, Note_on_c, 12, 61, 90
17, 70709, Note_on_c, 12, 61, 0
17, 70710, Note_on_c, 12, 61, 90
17, 70739, Note_on_c, 12, 61, 0
17, 70740, Note_on_c, 12, 61, 90
17, 70799, Note_on_c, 12, 61, 0
17, 70800, Note_on_c, 12, 61, 90
17, 70859, Note_on_c, 12, 61, 0
17, 70860, Note_on_c, 12, 61, 90
17, 70919, Note_on_c, 12, 61, 0
17, 70920, Note_on_c, 12, 59, 90
17, 70949, Note_on_c, 12, 59, 0
17, 70950, Note_on_c, 12, 57, 90
17, 70979, Note_on_c, 12, 57, 0
17, 70980, Note_on_c, 12, 56, 90
17, 71039, Note_on_c, 12, 56, 0
17, 71040, Note_on_c, 12, 54, 90
17, 71099, Note_on_c, 12, 54, 0
17, 71100, Note_on_c, 12, 53, 90
17, 71129, Note_on_c, 12, 53, 0
17, 71130, Note_on_c, 12, 51, 90
17, 71159, Note_on_c, 12, 51, 0
17, 71160, Note_on_c, 12, 49, 90
17, 71189, Note_on_c, 12, 49, 0
17, 71190, Note_on_c, 12, 51, 90
17, 71219, Note_on_c, 12, 51, 0
17, 71220, Note_on_c, 12, 53, 90
17, 71249, Note_on_c, 12, 53, 0
17, 71250, Note_on_c, 12, 54, 90
17, 71279, Note_on_c, 12, 54, 0
17, 71280, Note_on_c, 12, 53, 90
17, 71309, Note_on_c, 12, 53, 0
17, 71310, Note_on_c, 12, 54, 90
17, 71339, Note_on_c, 12, 54, 0
17, 71340, Note_on_c, 12, 56, 90
17, 71369, Note_on_c, 12, 56, 0
17, 71370, Note_on_c, 12, 57, 90
17, 71399, Note_on_c, 12, 57, 0
17, 71400, Note_on_c, 12, 56, 90
17, 71429, Note_on_c, 12, 56, 0
17, 71430, Note_on_c, 12, 57, 90
17, 71459, Note_on_c, 12, 57, 0
17, 71460, Note_on_c, 12, 59, 90
17, 71519, Note_on_c, 12, 59, 0
17, 71520, Note_on_c, 12, 57, 90
17, 71579, Note_on_c, 12, 57, 0
17, 71580, Note_on_c, 12, 56, 90
17, 71639, Note_on_c, 12, 56, 0
17, 71640, Note_on_c, 12, 61, 90
17, 71699, Note_on_c, 12, 61, 0
17, 71700, Note_on_c, 12, 59, 90
17, 71759, Note_on_c, 12, 59, 0
17, 71760, Note_on_c, 12, 57, 90
17, 71819, Note_on_c, 12, 57, 0
17, 71820, Note_on_c, 12, 56, 90
17, 71879, Note_on_c, 12, 56, 0
17, 71880, Note_on_c, 12, 54, 90
17, 71939, Note_on_c, 12, 54, 0
17, 71940, Note_on_c, 12, 53, 90
17, 71999, Note_on_c, 12, 53, 0
17, 72000, Note_on_c, 12, 54, 90
17, 72059, Note_on_c, 12, 54, 0
17, 72060, Note_on_c, 12, 49, 90
17, 72179, Note_on_c, 12, 49, 0
17, 72180, Note_on_c, 12, 49, 90
17, 72299, Note_on_c, 12, 49, 0
17, 72540, Note_on_c, 12, 54, 90
17, 72599, Note_on_c, 12, 54, 0
17, 72600, Note_on_c, 12, 54, 90
17, 72659, Note_on_c, 12, 54, 0
17, 72660, Note_on_c, 12, 54, 90
17, 72719, Note_on_c, 12, 54, 0
17, 72720, Note_on_c, 12, 54, 90
17, 72779, Note_on_c, 12, 54, 0
17, 72780, Note_on_c, 12, 54, 90
17, 72839, Note_on_c, 12, 54, 0
17, 72840, Note_on_c, 12, 53, 90
17, 72869, Note_on_c, 12, 53, 0
17, 72870, Note_on_c, 12, 51, 90
17, 72899, Note_on_c, 12, 51, 0
17, 72900, Note_on_c, 12, 49, 90
17, 72959, Note_on_c, 12, 49, 0
17, 72960, Note_on_c, 12, 47, 90
17, 73019, Note_on_c, 12, 47, 0
17, 73020, Note_on_c, 12, 45, 90
17, 73049, Note_on_c, 12, 45, 0
17, 73050, Note_on_c, 12, 44, 90
17, 73079, Note_on_c, 12, 44, 0
17, 73080, Note_on_c, 12, 42, 90
17, 73109, Note_on_c, 12, 42, 0
17, 73110, Note_on_c, 12, 44, 90
17, 73139, Note_on_c, 12, 44, 0
17, 73140, Note_on_c, 12, 45, 90
17, 73169, Note_on_c, 12, 45, 0
17, 73170, Note_on_c, 12, 44, 90
17, 73199, Note_on_c, 12, 44, 0
17, 73200, Note_on_c, 12, 45, 90
17, 73229, Note_on_c, 12, 45, 0
17, 73230, Note_on_c, 12, 47, 90
17, 73259, Note_on_c, 12, 47, 0
17, 73260, Note_on_c, 12, 49, 90
17, 73289, Note_on_c, 12, 49, 0
17, 73290, Note_on_c, 12, 47, 90
17, 73319, Note_on_c, 12, 47, 0
17, 73320, Note_on_c, 12, 49, 90
17, 73349, Note_on_c, 12, 49, 0
17, 73350, Note_on_c, 12, 51, 90
17, 73379, Note_on_c, 12, 51, 0
17, 73380, Note_on_c, 12, 53, 90
17, 73409, Note_on_c, 12, 53, 0
17, 73410, Note_on_c, 12, 51, 90
17, 73439, Note_on_c, 12, 51, 0
17, 73440, Note_on_c, 12, 53, 90
17, 73469, Note_on_c, 12, 53, 0
17, 73470, Note_on_c, 12, 49, 90
17, 73499, Note_on_c, 12, 49, 0
17, 73500, Note_on_c, 12, 54, 90
17, 73559, Note_on_c, 12, 54, 0
17, 73560, Note_on_c, 12, 47, 90
17, 73619, Note_on_c, 12, 47, 0
17, 73620, Note_on_c, 12, 49, 90
17, 73739, Note_on_c, 12, 49, 0
17, 73740, Note_on_c, 12, 42, 90
17, 73979, Note_on_c, 12, 42, 0
17, 76380, Program_c, 12, 70
17, 76500, Note_on_c, 12, 57, 100
17, 76540, Note_on_c, 12, 57, 0
17, 76560, Note_on_c, 12, 57, 100
17, 76600, Note_on_c, 12, 57, 0
17, 76620, Note_on_c, 12, 57, 100
17, 76678, Note_on_c, 12, 57, 0
17, 76680, Note_on_c, 12, 56, 100
17, 76708, Note_on_c, 12, 56, 0
17, 76710, Note_on_c, 12, 57, 100
17, 76738, Note_on_c, 12, 57, 0
17, 76740, Note_on_c, 12, 59, 100
17, 76798, Note_on_c, 12, 59, 0
17, 76800, Note_on_c, 12, 50, 100
17, 76858, Note_on_c, 12, 50, 0
17, 76860, Note_on_c, 12, 49, 100
17, 76900, Note_on_c, 12, 49, 0
17, 76920, Note_on_c, 12, 45, 100
17, 76960, Note_on_c, 12, 45, 0
17, 78420, Note_on_c, 12, 57, 100
17, 78460, Note_on_c, 12, 57, 0
17, 78480, Note_on_c, 12, 57, 100
17, 78520, Note_on_c, 12, 57, 0
17, 78540, Note_on_c, 12, 57, 100
17, 78598, Note_on_c, 12, 57, 0
17, 78600, Note_on_c, 12, 56, 100
17, 78628, Note_on_c, 12, 56, 0
17, 78630, Note_on_c, 12, 57, 100
17, 78658, Note_on_c, 12, 57, 0
17, 78660, Note_on_c, 12, 59, 100
17, 78718, Note_on_c, 12, 59, 0
17, 78720, Note_on_c, 12, 50, 100
17, 78778, Note_on_c, 12, 50, 0
17, 78780, Note_on_c, 12, 49, 100
17, 78838, Note_on_c, 12, 49, 0
17, 78840, Note_on_c, 12, 45, 100
17, 78898, Note_on_c, 12, 45, 0
17, 78960, Note_on_c, 12, 52, 100
17, 79018, Note_on_c, 12, 52, 0
17, 79020, Note_on_c, 12, 50, 100
17, 79048, Note_on_c, 12, 50, 0
17, 79050, Note_on_c, 12, 49, 100
17, 79078, Note_on_c, 12, 49, 0
17, 79080, Note_on_c, 12, 50, 100
17, 79108, Note_on_c, 12, 50, 0
17, 79110, Note_on_c, 12, 54, 100
17, 79138, Note_on_c, 12, 54, 0
17, 79140, Note_on_c, 12, 59, 100
17, 79198, Note_on_c, 12, 59, 0
17, 79200, Note_on_c, 12, 50, 100
17, 79258, Note_on_c, 12, 50, 0
17, 79260, Note_on_c, 12, 49, 100
17, 79288, Note_on_c, 12, 49, 0
17, 79290, Note_on_c, 12, 47, 100
17, 79318, Note_on_c, 12, 47, 0
17, 79320, Note_on_c, 12, 49, 100
17, 79348, Note_on_c, 12, 49, 0
17, 79350, Note_on_c, 12, 52, 100
17, 79378, Note_on_c, 12, 52, 0
17, 79380, Note_on_c, 12, 57, 100
17, 79438, Note_on_c, 12, 57, 0
17, 79440, Note_on_c, 12, 49, 100
17, 79498, Note_on_c, 12, 49, 0
17, 79500, Note_on_c, 12, 47, 100
17, 79558, Note_on_c, 12, 47, 0
17, 79560, Note_on_c, 12, 49, 100
17, 79588, Note_on_c, 12, 49, 0
17, 79590, Note_on_c, 12, 50, 100
17, 79618, Note_on_c, 12, 50, 0
17, 79620, Note_on_c, 12, 52, 100
17, 79648, Note_on_c, 12, 52, 0
17, 79650, Note_on_c, 12, 54, 100
17, 79678, Note_on_c, 12, 54, 0
17, 79680, Note_on_c, 12, 56, 100
17, 79708, Note_on_c, 12, 56, 0
17, 79710, Note_on_c, 12, 52, 100
17, 79738, Note_on_c, 12, 52, 0
17, 79740, Note_on_c, 12, 57, 100
17, 79768, Note_on_c, 12, 57, 0
17, 79770, Note_on_c, 12, 59, 100
17, 79798, Note_on_c, 12, 59, 0
17, 79800, Note_on_c, 12, 61, 100
17, 79828, Note_on_c, 12, 61, 0
17, 79830, Note_on_c, 12, 59, 100
17, 79858, Note_on_c, 12, 59, 0
17, 79860, Note_on_c, 12, 57, 100
17, 79888, Note_on_c, 12, 57, 0
17, 79890, Note_on_c, 12, 56, 100
17, 79918, Note_on_c, 12, 56, 0
17, 79920, Note_on_c, 12, 54, 100
17, 79948, Note_on_c, 12, 54, 0
17, 79950, Note_on_c, 12, 52, 100
17, 79978, Note_on_c, 12, 52, 0
17, 79980, Note_on_c, 12, 59, 100
17, 80038, Note_on_c, 12, 59, 0
17, 80040, Note_on_c, 12, 56, 100
17, 80068, Note_on_c, 12, 56, 0
17, 80070, Note_on_c, 12, 54, 100
17, 80098, Note_on_c, 12, 54, 0
17, 80100, Note_on_c, 12, 47, 100
17, 80158, Note_on_c, 12, 47, 0
17, 80160, Note_on_c, 12, 51, 100
17, 80218, Note_on_c, 12, 51, 0
17, 80220, Note_on_c, 12, 52, 100
17, 80338, Note_on_c, 12, 52, 0
17, 80820, Note_on_c, 12, 52, 100
17, 80878, Note_on_c, 12, 52, 0
17, 80880, Note_on_c, 12, 52, 100
17, 80938, Note_on_c, 12, 52, 0
17, 80940, Note_on_c, 12, 52, 100
17, 80998, Note_on_c, 12, 52, 0
17, 81000, Note_on_c, 12, 51, 100
17, 81028, Note_on_c, 12, 51, 0
17, 81030, Note_on_c, 12, 52, 100
17, 81058, Note_on_c, 12, 52, 0
17, 81060, Note_on_c, 12, 54, 100
17, 81118, Note_on_c, 12, 54, 0
17, 81120, Note_on_c, 12, 45, 100
17, 81178, Note_on_c, 12, 45, 0
17, 81180, Note_on_c, 12, 44, 100
17, 81208, Note_on_c, 12, 44, 0
17, 81210, Note_on_c, 12, 47, 100
17, 81238, Note_on_c, 12, 47, 0
17, 81240, Note_on_c, 12, 49, 100
17, 81268, Note_on_c, 12, 49, 0
17, 81270, Note_on_c, 12, 50, 100
17, 81298, Note_on_c, 12, 50, 0
17, 81300, Note_on_c, 12, 52, 100
17, 81328, Note_on_c, 12, 52, 0
17, 81330, Note_on_c, 12, 54, 100
17, 81358, Note_on_c, 12, 54, 0
17, 81360, Note_on_c, 12, 56, 100
17, 81388, Note_on_c, 12, 56, 0
17, 81390, Note_on_c, 12, 52, 100
17, 81418, Note_on_c, 12, 52, 0
17, 81420, Note_on_c, 12, 49, 100
17, 81448, Note_on_c, 12, 49, 0
17, 81450, Note_on_c, 12, 52, 100
17, 81478, Note_on_c, 12, 52, 0
17, 81480, Note_on_c, 12, 54, 100
17, 81508, Note_on_c, 12, 54, 0
17, 81510, Note_on_c, 12, 56, 100
17, 81538, Note_on_c, 12, 56, 0
17, 81540, Note_on_c, 12, 57, 100
17, 81568, Note_on_c, 12, 57, 0
17, 81570, Note_on_c, 12, 59, 100
17, 81598, Note_on_c, 12, 59, 0
17, 81600, Note_on_c, 12, 61, 100
17, 81628, Note_on_c, 12, 61, 0
17, 81630, Note_on_c, 12, 57, 100
17, 81658, Note_on_c, 12, 57, 0
17, 81660, Note_on_c, 12, 59, 100
17, 81718, Note_on_c, 12, 59, 0
17, 81720, Note_on_c, 12, 56, 100
17, 81748, Note_on_c, 12, 56, 0
17, 81750, Note_on_c, 12, 52, 100
17, 81778, Note_on_c, 12, 52, 0
17, 81780, Note_on_c, 12, 61, 100
17, 81898, Note_on_c, 12, 61, 0
17, 81930, Note_on_c, 12, 59, 100
17, 81958, Note_on_c, 12, 59, 0
17, 81960, Note_on_c, 12, 57, 100
17, 81988, Note_on_c, 12, 57, 0
17, 81990, Note_on_c, 12, 56, 100
17, 82018, Note_on_c, 12, 56, 0
17, 82020, Note_on_c, 12, 54, 100
17, 82048, Note_on_c, 12, 54, 0
17, 82050, Note_on_c, 12, 52, 100
17, 82078, Note_on_c, 12, 52, 0
17, 82080, Note_on_c, 12, 59, 100
17, 82138, Note_on_c, 12, 59, 0
17, 82140, Note_on_c, 12, 52, 100
17, 82198, Note_on_c, 12, 52, 0
17, 82200, Note_on_c, 12, 56, 100
17, 82258, Note_on_c, 12, 56, 0
17, 82260, Note_on_c, 12, 57, 100
17, 82318, Note_on_c, 12, 57, 0
17, 82320, Note_on_c, 12, 59, 100
17, 82378, Note_on_c, 12, 59, 0
17, 82380, Note_on_c, 12, 53, 100
17, 82498, Note_on_c, 12, 53, 0
17, 82500, Note_on_c, 12, 54, 100
17, 82558, Note_on_c, 12, 54, 0
17, 82590, Note_on_c, 12, 56, 100
17, 82605, Note_on_c, 12, 56, 0
17, 82605, Note_on_c, 12, 57, 100
17, 82620, Note_on_c, 12, 57, 0
17, 82620, Note_on_c, 12, 56, 100
17, 82678, Note_on_c, 12, 56, 0
17, 82680, Note_on_c, 12, 49, 100
17, 82738, Note_on_c, 12, 49, 0
17, 82800, Note_on_c, 12, 56, 100
17, 82858, Note_on_c, 12, 56, 0
17, 82860, Note_on_c, 12, 61, 100
17, 82888, Note_on_c, 12, 61, 0
17, 82890, Note_on_c, 12, 62, 100
17, 82918, Note_on_c, 12, 62, 0
17, 82920, Note_on_c, 12, 61, 100
17, 82948, Note_on_c, 12, 61, 0
17, 82950, Note_on_c, 12, 59, 100
17, 82978, Note_on_c, 12, 59, 0
17, 82980, Note_on_c, 12, 57, 100
17, 83008, Note_on_c, 12, 57, 0
17, 83010, Note_on_c, 12, 56, 100
17, 83038, Note_on_c, 12, 56, 0
17, 83040, Note_on_c, 12, 54, 100
17, 83068, Note_on_c, 12, 54, 0
17, 83070, Note_on_c, 12, 52, 100
17, 83098, Note_on_c, 12, 52, 0
17, 83100, Note_on_c, 12, 50, 100
17, 83128, Note_on_c, 12, 50, 0
17, 83130, Note_on_c, 12, 49, 100
17, 83158, Note_on_c, 12, 49, 0
17, 83160, Note_on_c, 12, 47, 100
17, 83188, Note_on_c, 12, 47, 0
17, 83190, Note_on_c, 12, 49, 100
17, 83218, Note_on_c, 12, 49, 0
17, 83220, Note_on_c, 12, 50, 100
17, 83278, Note_on_c, 12, 50, 0
17, 83280, Note_on_c, 12, 59, 100
17, 83338, Note_on_c, 12, 59, 0
17, 83340, Note_on_c, 12, 59, 100
17, 83398, Note_on_c, 12, 59, 0
17, 83400, Note_on_c, 12, 49, 100
17, 83458, Note_on_c, 12, 49, 0
17, 83520, Note_on_c, 12, 57, 100
17, 83578, Note_on_c, 12, 57, 0
17, 83580, Note_on_c, 12, 57, 100
17, 83638, Note_on_c, 12, 57, 0
17, 83640, Note_on_c, 12, 47, 100
17, 83698, Note_on_c, 12, 47, 0
17, 83700, Note_on_c, 12, 47, 100
17, 83758, Note_on_c, 12, 47, 0
17, 83760, Note_on_c, 12, 56, 100
17, 83818, Note_on_c, 12, 56, 0
17, 83820, Note_on_c, 12, 56, 100
17, 83878, Note_on_c, 12, 56, 0
17, 83880, Note_on_c, 12, 54, 100
17, 83908, Note_on_c, 12, 54, 0
17, 83910, Note_on_c, 12, 53, 100
17, 83938, Note_on_c, 12, 53, 0
17, 83940, Note_on_c, 12, 54, 100
17, 83998, Note_on_c, 12, 54, 0
17, 84000, Note_on_c, 12, 56, 100
17, 84028, Note_on_c, 12, 56, 0
17, 84030, Note_on_c, 12, 57, 100
17, 84058, Note_on_c, 12, 57, 0
17, 84060, Note_on_c, 12, 59, 100
17, 84118, Note_on_c, 12, 59, 0
17, 84120, Note_on_c, 12, 61, 100
17, 84148, Note_on_c, 12, 61, 0
17, 84150, Note_on_c, 12, 62, 100
17, 84178, Note_on_c, 12, 62, 0
17, 84180, Note_on_c, 12, 56, 100
17, 84238, Note_on_c, 12, 56, 0
17, 84240, Note_on_c, 12, 61, 100
17, 84298, Note_on_c, 12, 61, 0
17, 84300, Note_on_c, 12, 57, 100
17, 84358, Note_on_c, 12, 57, 0
17, 84360, Note_on_c, 12, 56, 100
17, 84388, Note_on_c, 12, 56, 0
17, 84390, Note_on_c, 12, 57, 100
17, 84418, Note_on_c, 12, 57, 0
17, 84420, Note_on_c, 12, 59, 100
17, 84448, Note_on_c, 12, 59, 0
17, 84450, Note_on_c, 12, 57, 100
17, 84478, Note_on_c, 12, 57, 0
17, 84480, Note_on_c, 12, 56, 100
17, 84508, Note_on_c, 12, 56, 0
17, 84510, Note_on_c, 12, 54, 100
17, 84538, Note_on_c, 12, 54, 0
17, 84540, Note_on_c, 12, 60, 100
17, 84570, Note_on_c, 12, 60, 0
17, 84570, Note_on_c, 12, 61, 100
17, 84600, Note_on_c, 12, 61, 0
17, 84600, Note_on_c, 12, 60, 100
17, 84630, Note_on_c, 12, 60, 0
17, 84630, Note_on_c, 12, 61, 100
17, 84660, Note_on_c, 12, 61, 0
17, 84660, Note_on_c, 12, 63, 100
17, 84675, Note_on_c, 12, 63, 0
17, 84675, Note_on_c, 12, 61, 100
17, 84690, Note_on_c, 12, 61, 0
17, 84690, Note_on_c, 12, 63, 100
17, 84705, Note_on_c, 12, 63, 0
17, 84705, Note_on_c, 12, 61, 100
17, 84720, Note_on_c, 12, 61, 0
17, 84720, Note_on_c, 12, 63, 100
17, 84735, Note_on_c, 12, 63, 0
17, 84735, Note_on_c, 12, 61, 100
17, 84748, Note_on_c, 12, 60, 100
17, 84750, Note_on_c, 12, 61, 0
17, 84763, Note_on_c, 12, 60, 0
17, 84765, Note_on_c, 12, 61, 100
17, 84780, Note_on_c, 12, 61, 0
17, 84780, Note_on_c, 12, 63, 100
17, 84838, Note_on_c, 12, 63, 0
17, 84840, Note_on_c, 12, 56, 100
17, 84898, Note_on_c, 12, 56, 0
17, 84960, Note_on_c, 12, 56, 100
17, 85018, Note_on_c, 12, 56, 0
17, 85020, Note_on_c, 12, 49, 100
17, 85048, Note_on_c, 12, 49, 0
17, 85050, Note_on_c, 12, 48, 100
17, 85078, Note_on_c, 12, 48, 0
17, 85080, Note_on_c, 12, 51, 100
17, 85108, Note_on_c, 12, 51, 0
17, 85110, Note_on_c, 12, 49, 100
17, 85138, Note_on_c, 12, 49, 0
17, 85140, Note_on_c, 12, 52, 100
17, 85168, Note_on_c, 12, 52, 0
17, 85170, Note_on_c, 12, 51, 100
17, 85198, Note_on_c, 12, 51, 0
17, 85200, Note_on_c, 12, 54, 100
17, 85228, Note_on_c, 12, 54, 0
17, 85230, Note_on_c, 12, 52, 100
17, 85258, Note_on_c, 12, 52, 0
17, 85260, Note_on_c, 12, 57, 100
17, 85288, Note_on_c, 12, 57, 0
17, 85290, Note_on_c, 12, 56, 100
17, 85318, Note_on_c, 12, 56, 0
17, 85320, Note_on_c, 12, 60, 100
17, 85348, Note_on_c, 12, 60, 0
17, 85350, Note_on_c, 12, 61, 100
17, 85378, Note_on_c, 12, 61, 0
17, 85380, Note_on_c, 12, 56, 100
17, 85438, Note_on_c, 12, 56, 0
17, 85440, Note_on_c, 12, 60, 100
17, 85498, Note_on_c, 12, 60, 0
17, 85500, Note_on_c, 12, 49, 100
17, 85618, Note_on_c, 12, 49, 0
17, 86100, Note_on_c, 12, 61, 100
17, 86158, Note_on_c, 12, 61, 0
17, 86160, Note_on_c, 12, 56, 100
17, 86218, Note_on_c, 12, 56, 0
17, 86220, Note_on_c, 12, 57, 100
17, 86278, Note_on_c, 12, 57, 0
17, 86280, Note_on_c, 12, 54, 100
17, 86338, Note_on_c, 12, 54, 0
17, 86340, Note_on_c, 12, 51, 100
17, 86398, Note_on_c, 12, 51, 0
17, 86400, Note_on_c, 12, 54, 100
17, 86458, Note_on_c, 12, 54, 0
17, 86460, Note_on_c, 12, 59, 100
17, 86488, Note_on_c, 12, 59, 0
17, 86490, Note_on_c, 12, 57, 100
17, 86518, Note_on_c, 12, 57, 0
17, 86520, Note_on_c, 12, 56, 100
17, 86548, Note_on_c, 12, 56, 0
17, 86550, Note_on_c, 12, 54, 100
17, 86578, Note_on_c, 12, 54, 0
17, 86580, Note_on_c, 12, 52, 100
17, 86638, Note_on_c, 12, 52, 0
17, 86640, Note_on_c, 12, 50, 100
17, 86668, Note_on_c, 12, 50, 0
17, 86670, Note_on_c, 12, 49, 100
17, 86698, Note_on_c, 12, 49, 0
17, 86700, Note_on_c, 12, 54, 100
17, 86758, Note_on_c, 12, 54, 0
17, 86760, Note_on_c, 12, 52, 100
17, 86788, Note_on_c, 12, 52, 0
17, 86790, Note_on_c, 12, 54, 100
17, 86818, Note_on_c, 12, 54, 0
17, 86820, Note_on_c, 12, 56, 100
17, 86878, Note_on_c, 12, 56, 0
17, 86880, Note_on_c, 12, 54, 100
17, 86908, Note_on_c, 12, 54, 0
17, 86910, Note_on_c, 12, 56, 100
17, 86938, Note_on_c, 12, 56, 0
17, 86940, Note_on_c, 12, 57, 100
17, 86998, Note_on_c, 12, 57, 0
17, 87000, Note_on_c, 12, 45, 100
17, 87058, Note_on_c, 12, 45, 0
17, 87060, Note_on_c, 12, 55, 100
17, 87118, Note_on_c, 12, 55, 0
17, 87120, Note_on_c, 12, 54, 100
17, 87148, Note_on_c, 12, 54, 0
17, 87150, Note_on_c, 12, 52, 100
17, 87178, Note_on_c, 12, 52, 0
17, 87180, Note_on_c, 12, 54, 100
17, 87328, Note_on_c, 12, 54, 0
17, 87330, Note_on_c, 12, 50, 100
17, 87358, Note_on_c, 12, 50, 0
17, 87360, Note_on_c, 12, 49, 100
17, 87388, Note_on_c, 12, 49, 0
17, 87390, Note_on_c, 12, 50, 100
17, 87418, Note_on_c, 12, 50, 0
17, 87420, Note_on_c, 12, 57, 100
17, 87448, Note_on_c, 12, 57, 0
17, 87450, Note_on_c, 12, 56, 100
17, 87478, Note_on_c, 12, 56, 0
17, 87480, Note_on_c, 12, 54, 100
17, 87508, Note_on_c, 12, 54, 0
17, 87510, Note_on_c, 12, 52, 100
17, 87538, Note_on_c, 12, 52, 0
17, 87540, Note_on_c, 12, 57, 100
17, 87568, Note_on_c, 12, 57, 0
17, 87570, Note_on_c, 12, 59, 100
17, 87598, Note_on_c, 12, 59, 0
17, 87600, Note_on_c, 12, 61, 100
17, 87658, Note_on_c, 12, 61, 0
17, 87660, Note_on_c, 12, 61, 100
17, 87718, Note_on_c, 12, 61, 0
17, 87720, Note_on_c, 12, 59, 100
17, 87778, Note_on_c, 12, 59, 0
17, 87780, Note_on_c, 12, 59, 100
17, 87838, Note_on_c, 12, 59, 0
17, 87960, Note_on_c, 12, 57, 100
17, 87988, Note_on_c, 12, 57, 0
17, 87990, Note_on_c, 12, 59, 100
17, 88018, Note_on_c, 12, 59, 0
17, 88020, Note_on_c, 12, 61, 100
17, 88048, Note_on_c, 12, 61, 0
17, 88050, Note_on_c, 12, 59, 100
17, 88078, Note_on_c, 12, 59, 0
17, 88080, Note_on_c, 12, 62, 100
17, 88108, Note_on_c, 12, 62, 0
17, 88110, Note_on_c, 12, 61, 100
17, 88138, Note_on_c, 12, 61, 0
17, 88140, Note_on_c, 12, 59, 100
17, 88168, Note_on_c, 12, 59, 0
17, 88170, Note_on_c, 12, 57, 100
17, 88198, Note_on_c, 12, 57, 0
17, 88200, Note_on_c, 12, 56, 100
17, 88228, Note_on_c, 12, 56, 0
17, 88230, Note_on_c, 12, 57, 100
17, 88258, Note_on_c, 12, 57, 0
17, 88260, Note_on_c, 12, 52, 100
17, 88378, Note_on_c, 12, 52, 0
17, 88380, Note_on_c, 12, 45, 100
17, 88498, Note_on_c, 12, 45, 0
17, 117180, Program_c, 12, 51
17, 117180, Control_c, 12, 0, 0
17, 117240, Note_on_c, 12, 55, 100
17, 117280, Note_on_c, 12, 55, 0
17, 117300, Note_on_c, 12, 55, 100
17, 117340, Note_on_c, 12, 55, 0
17, 117360, Note_on_c, 12, 55, 100
17, 117400, Note_on_c, 12, 55, 0
17, 117420, Note_on_c, 12, 53, 100
17, 117480, Note_on_c, 12, 53, 0
17, 117510, Note_on_c, 12, 53, 100
17, 117530, Note_on_c, 12, 53, 0
17, 117540, Note_on_c, 12, 53, 100
17, 117620, Note_on_c, 12, 53, 0
17, 117720, Note_on_c, 12, 52, 100
17, 117760, Note_on_c, 12, 52, 0
17, 117780, Note_on_c, 12, 52, 100
17, 117820, Note_on_c, 12, 52, 0
17, 117840, Note_on_c, 12, 52, 100
17, 117880, Note_on_c, 12, 52, 0
17, 117900, Note_on_c, 12, 47, 100
17, 117960, Note_on_c, 12, 47, 0
17, 117990, Note_on_c, 12, 47, 100
17, 118010, Note_on_c, 12, 47, 0
17, 118020, Note_on_c, 12, 47, 100
17, 118100, Note_on_c, 12, 47, 0
17, 119160, Note_on_c, 12, 50, 100
17, 119200, Note_on_c, 12, 50, 0
17, 119220, Note_on_c, 12, 50, 100
17, 119260, Note_on_c, 12, 50, 0
17, 119280, Note_on_c, 12, 50, 100
17, 119320, Note_on_c, 12, 50, 0
17, 119340, Note_on_c, 12, 48, 100
17, 119400, Note_on_c, 12, 48, 0
17, 119430, Note_on_c, 12, 48, 100
17, 119450, Note_on_c, 12, 48, 0
17, 119460, Note_on_c, 12, 48, 100
17, 119540, Note_on_c, 12, 48, 0
17, 119640, Note_on_c, 12, 47, 100
17, 119680, Note_on_c, 12, 47, 0
17, 119700, Note_on_c, 12, 47, 100
17, 119740, Note_on_c, 12, 47, 0
17, 119760, Note_on_c, 12, 47, 100
17, 119800, Note_on_c, 12, 47, 0
17, 119820, Note_on_c, 12, 54, 100
17, 119880, Note_on_c, 12, 54, 0
17, 119910, Note_on_c, 12, 54, 100
17, 119930, Note_on_c, 12, 54, 0
17, 119940, Note_on_c, 12, 54, 100
17, 120020, Note_on_c, 12, 54, 0
17, 121080, Note_on_c, 12, 55, 100
17, 121120, Note_on_c, 12, 55, 0
17, 121140, Note_on_c, 12, 55, 100
17, 121180, Note_on_c, 12, 55, 0
17, 121200, Note_on_c, 12, 55, 100
17, 121240, Note_on_c, 12, 55, 0
17, 121260, Note_on_c, 12, 53, 100
17, 121348, Note_on_c, 12, 53, 0
17, 121350, Note_on_c, 12, 53, 100
17, 121378, Note_on_c, 12, 53, 0
17, 121380, Note_on_c, 12, 53, 100
17, 121498, Note_on_c, 12, 53, 0
17, 121560, Note_on_c, 12, 52, 100
17, 121618, Note_on_c, 12, 52, 0
17, 121620, Note_on_c, 12, 52, 100
17, 121678, Note_on_c, 12, 52, 0
17, 121680, Note_on_c, 12, 52, 100
17, 121738, Note_on_c, 12, 52, 0
17, 121740, Note_on_c, 12, 47, 100
17, 121828, Note_on_c, 12, 47, 0
17, 121830, Note_on_c, 12, 47, 100
17, 121858, Note_on_c, 12, 47, 0
17, 121860, Note_on_c, 12, 47, 100
17, 121978, Note_on_c, 12, 47, 0
17, 122940, Note_on_c, 12, 50, 100
17, 122998, Note_on_c, 12, 50, 0
17, 123000, Note_on_c, 12, 54, 100
17, 123028, Note_on_c, 12, 54, 0
17, 123030, Note_on_c, 12, 52, 100
17, 123058, Note_on_c, 12, 52, 0
17, 123060, Note_on_c, 12, 50, 100
17, 123118, Note_on_c, 12, 50, 0
17, 123120, Note_on_c, 12, 50, 100
17, 123178, Note_on_c, 12, 50, 0
17, 123180, Note_on_c, 12, 50, 100
17, 123208, Note_on_c, 12, 50, 0
17, 123210, Note_on_c, 12, 45, 100
17, 123238, Note_on_c, 12, 45, 0
17, 123240, Note_on_c, 12, 47, 100
17, 123268, Note_on_c, 12, 47, 0
17, 123270, Note_on_c, 12, 48, 100
17, 123298, Note_on_c, 12, 48, 0
17, 123300, Note_on_c, 12, 50, 100
17, 123328, Note_on_c, 12, 50, 0
17, 123330, Note_on_c, 12, 54, 100
17, 123358, Note_on_c, 12, 54, 0
17, 123360, Note_on_c, 12, 52, 100
17, 123388, Note_on_c, 12, 52, 0
17, 123390, Note_on_c, 12, 50, 100
17, 123418, Note_on_c, 12, 50, 0
17, 123420, Note_on_c, 12, 55, 100
17, 123448, Note_on_c, 12, 55, 0
17, 123450, Note_on_c, 12, 45, 100
17, 123478, Note_on_c, 12, 45, 0
17, 123480, Note_on_c, 12, 47, 100
17, 123508, Note_on_c, 12, 47, 0
17, 123510, Note_on_c, 12, 49, 100
17, 123538, Note_on_c, 12, 49, 0
17, 123540, Note_on_c, 12, 50, 100
17, 123568, Note_on_c, 12, 50, 0
17, 123570, Note_on_c, 12, 54, 100
17, 123598, Note_on_c, 12, 54, 0
17, 123600, Note_on_c, 12, 52, 100
17, 123628, Note_on_c, 12, 52, 0
17, 123630, Note_on_c, 12, 50, 100
17, 123658, Note_on_c, 12, 50, 0
17, 123660, Note_on_c, 12, 57, 100
17, 123688, Note_on_c, 12, 57, 0
17, 123690, Note_on_c, 12, 45, 100
17, 123718, Note_on_c, 12, 45, 0
17, 123720, Note_on_c, 12, 47, 100
17, 123748, Note_on_c, 12, 47, 0
17, 123750, Note_on_c, 12, 49, 100
17, 123778, Note_on_c, 12, 49, 0
17, 123780, Note_on_c, 12, 50, 100
17, 123808, Note_on_c, 12, 50, 0
17, 123810, Note_on_c, 12, 54, 100
17, 123838, Note_on_c, 12, 54, 0
17, 123840, Note_on_c, 12, 52, 100
17, 123868, Note_on_c, 12, 52, 0
17, 123870, Note_on_c, 12, 50, 100
17, 123898, Note_on_c, 12, 50, 0
17, 123900, Note_on_c, 12, 59, 100
17, 123928, Note_on_c, 12, 59, 0
17, 123930, Note_on_c, 12, 62, 100
17, 123958, Note_on_c, 12, 62, 0
17, 123960, Note_on_c, 12, 60, 100
17, 123988, Note_on_c, 12, 60, 0
17, 123990, Note_on_c, 12, 62, 100
17, 124018, Note_on_c, 12, 62, 0
17, 124020, Note_on_c, 12, 59, 100
17, 124048, Note_on_c, 12, 59, 0
17, 124050, Note_on_c, 12, 60, 100
17, 124078, Note_on_c, 12, 60, 0
17, 124080, Note_on_c, 12, 57, 100
17, 124108, Note_on_c, 12, 57, 0
17, 124110, Note_on_c, 12, 59, 100
17, 124138, Note_on_c, 12, 59, 0
17, 124140, Note_on_c, 12, 55, 100
17, 124168, Note_on_c, 12, 55, 0
17, 124170, Note_on_c, 12, 57, 100
17, 124198, Note_on_c, 12, 57, 0
17, 124200, Note_on_c, 12, 54, 100
17, 124228, Note_on_c, 12, 54, 0
17, 124230, Note_on_c, 12, 55, 100
17, 124258, Note_on_c, 12, 55, 0
17, 124260, Note_on_c, 12, 52, 100
17, 124288, Note_on_c, 12, 52, 0
17, 124290, Note_on_c, 12, 57, 100
17, 124318, Note_on_c, 12, 57, 0
17, 124320, Note_on_c, 12, 55, 100
17, 124348, Note_on_c, 12, 55, 0
17, 124350, Note_on_c, 12, 57, 100
17, 124378, Note_on_c, 12, 57, 0
17, 124380, Note_on_c, 12, 54, 100
17, 124438, Note_on_c, 12, 54, 0
17, 124440, Note_on_c, 12, 52, 100
17, 124468, Note_on_c, 12, 52, 0
17, 124470, Note_on_c, 12, 54, 100
17, 124498, Note_on_c, 12, 54, 0
17, 124500, Note_on_c, 12, 50, 100
17, 124558, Note_on_c, 12, 50, 0
17, 124560, Note_on_c, 12, 52, 100
17, 124618, Note_on_c, 12, 52, 0
17, 124620, Note_on_c, 12, 54, 100
17, 124678, Note_on_c, 12, 54, 0
17, 124680, Note_on_c, 12, 50, 100
17, 124708, Note_on_c, 12, 50, 0
17, 124710, Note_on_c, 12, 54, 100
17, 124738, Note_on_c, 12, 54, 0
17, 124740, Note_on_c, 12, 56, 100
17, 124798, Note_on_c, 12, 56, 0
17, 124800, Note_on_c, 12, 52, 100
17, 124828, Note_on_c, 12, 52, 0
17, 124830, Note_on_c, 12, 56, 100
17, 124858, Note_on_c, 12, 56, 0
17, 124860, Note_on_c, 12, 57, 100
17, 124918, Note_on_c, 12, 57, 0
17, 124920, Note_on_c, 12, 45, 100
17, 124948, Note_on_c, 12, 45, 0
17, 124950, Note_on_c, 12, 57, 100
17, 124978, Note_on_c, 12, 57, 0
17, 124980, Note_on_c, 12, 57, 100
17, 125038, Note_on_c, 12, 57, 0
17, 125040, Note_on_c, 12, 57, 100
17, 125098, Note_on_c, 12, 57, 0
17, 125100, Note_on_c, 12, 55, 100
17, 125188, Note_on_c, 12, 55, 0
17, 125190, Note_on_c, 12, 55, 100
17, 125218, Note_on_c, 12, 55, 0
17, 125220, Note_on_c, 12, 55, 100
17, 125338, Note_on_c, 12, 55, 0
17, 125400, Note_on_c, 12, 54, 100
17, 125458, Note_on_c, 12, 54, 0
17, 125460, Note_on_c, 12, 54, 100
17, 125518, Note_on_c, 12, 54, 0
17, 125520, Note_on_c, 12, 54, 100
17, 125578, Note_on_c, 12, 54, 0
17, 125580, Note_on_c, 12, 49, 100
17, 125668, Note_on_c, 12, 49, 0
17, 125670, Note_on_c, 12, 49, 100
17, 125698, Note_on_c, 12, 49, 0
17, 125700, Note_on_c, 12, 49, 100
17, 125818, Note_on_c, 12, 49, 0
17, 125880, Note_on_c, 12, 45, 100
17, 125938, Note_on_c, 12, 45, 0
17, 125940, Note_on_c, 12, 57, 100
17, 126118, Note_on_c, 12, 57, 0
17, 126120, Note_on_c, 12, 59, 100
17, 126148, Note_on_c, 12, 59, 0
17, 126150, Note_on_c, 12, 57, 100
17, 126178, Note_on_c, 12, 57, 0
17, 126180, Note_on_c, 12, 56, 100
17, 126298, Note_on_c, 12, 56, 0
17, 126300, Note_on_c, 12, 57, 100
17, 126358, Note_on_c, 12, 57, 0
17, 126360, Note_on_c, 12, 52, 100
17, 126418, Note_on_c, 12, 52, 0
17, 126420, Note_on_c, 12, 54, 100
17, 126448, Note_on_c, 12, 54, 0
17, 126450, Note_on_c, 12, 55, 100
17, 126478, Note_on_c, 12, 55, 0
17, 126480, Note_on_c, 12, 52, 100
17, 126508, Note_on_c, 12, 52, 0
17, 126510, Note_on_c, 12, 54, 100
17, 126538, Note_on_c, 12, 54, 0
17, 126540, Note_on_c, 12, 55, 100
17, 126568, Note_on_c, 12, 55, 0
17, 126570, Note_on_c, 12, 57, 100
17, 126598, Note_on_c, 12, 57, 0
17, 126600, Note_on_c, 12, 59, 100
17, 126628, Note_on_c, 12, 59, 0
17, 126630, Note_on_c, 12, 55, 100
17, 126658, Note_on_c, 12, 55, 0
17, 126660, Note_on_c, 12, 52, 100
17, 126688, Note_on_c, 12, 52, 0
17, 126690, Note_on_c, 12, 54, 100
17, 126718, Note_on_c, 12, 54, 0
17, 126720, Note_on_c, 12, 55, 100
17, 126748, Note_on_c, 12, 55, 0
17, 126750, Note_on_c, 12, 52, 100
17, 126778, Note_on_c, 12, 52, 0
17, 126780, Note_on_c, 12, 54, 100
17, 126838, Note_on_c, 12, 54, 0
17, 126840, Note_on_c, 12, 50, 100
17, 126868, Note_on_c, 12, 50, 0
17, 126870, Note_on_c, 12, 62, 100
17, 126898, Note_on_c, 12, 62, 0
17, 126900, Note_on_c, 12, 62, 100
17, 126958, Note_on_c, 12, 62, 0
17, 126960, Note_on_c, 12, 62, 100
17, 127018, Note_on_c, 12, 62, 0
17, 127020, Note_on_c, 12, 60, 100
17, 127108, Note_on_c, 12, 60, 0
17, 127110, Note_on_c, 12, 60, 100
17, 127138, Note_on_c, 12, 60, 0
17, 127140, Note_on_c, 12, 60, 100
17, 127258, Note_on_c, 12, 60, 0
17, 127320, Note_on_c, 12, 59, 100
17, 127378, Note_on_c, 12, 59, 0
17, 127380, Note_on_c, 12, 59, 100
17, 127438, Note_on_c, 12, 59, 0
17, 127440, Note_on_c, 12, 59, 100
17, 127498, Note_on_c, 12, 59, 0
17, 127500, Note_on_c, 12, 54, 100
17, 127588, Note_on_c, 12, 54, 0
17, 127590, Note_on_c, 12, 54, 100
17, 127618, Note_on_c, 12, 54, 0
17, 127620, Note_on_c, 12, 54, 100
17, 127678, Note_on_c, 12, 54, 0
17, 127800, Note_on_c, 12, 55, 100
17, 127858, Note_on_c, 12, 55, 0
17, 127860, Note_on_c, 12, 50, 100
17, 127918, Note_on_c, 12, 50, 0
17, 127920, Note_on_c, 12, 47, 100
17, 127978, Note_on_c, 12, 47, 0
17, 128040, Note_on_c, 12, 59, 100
17, 128098, Note_on_c, 12, 59, 0
17, 128100, Note_on_c, 12, 49, 100
17, 128158, Note_on_c, 12, 49, 0
17, 128160, Note_on_c, 12, 52, 100
17, 128218, Note_on_c, 12, 52, 0
17, 128280, Note_on_c, 12, 57, 100
17, 128338, Note_on_c, 12, 57, 0
17, 128340, Note_on_c, 12, 62, 100
17, 128398, Note_on_c, 12, 62, 0
17, 128400, Note_on_c, 12, 55, 100
17, 128458, Note_on_c, 12, 55, 0
17, 128520, Note_on_c, 12, 57, 100
17, 128578, Note_on_c, 12, 57, 0
17, 128580, Note_on_c, 12, 56, 100
17, 128638, Note_on_c, 12, 56, 0
17, 128640, Note_on_c, 12, 59, 100
17, 128698, Note_on_c, 12, 59, 0
17, 128880, Note_on_c, 12, 54, 100
17, 128938, Note_on_c, 12, 54, 0
17, 128940, Note_on_c, 12, 52, 100
17, 128968, Note_on_c, 12, 52, 0
17, 128970, Note_on_c, 12, 54, 100
17, 128998, Note_on_c, 12, 54, 0
17, 129000, Note_on_c, 12, 56, 100
17, 129028, Note_on_c, 12, 56, 0
17, 129030, Note_on_c, 12, 52, 100
17, 129058, Note_on_c, 12, 52, 0
17, 129060, Note_on_c, 12, 49, 100
17, 129088, Note_on_c, 12, 49, 0
17, 129090, Note_on_c, 12, 50, 100
17, 129118, Note_on_c, 12, 50, 0
17, 129120, Note_on_c, 12, 52, 100
17, 129148, Note_on_c, 12, 52, 0
17, 129150, Note_on_c, 12, 49, 100
17, 129178, Note_on_c, 12, 49, 0
17, 129180, Note_on_c, 12, 50, 100
17, 129238, Note_on_c, 12, 50, 0
17, 129240, Note_on_c, 12, 47, 100
17, 129268, Note_on_c, 12, 47, 0
17, 129270, Note_on_c, 12, 50, 100
17, 129298, Note_on_c, 12, 50, 0
17, 129300, Note_on_c, 12, 52, 100
17, 129358, Note_on_c, 12, 52, 0
17, 129360, Note_on_c, 12, 49, 100
17, 129388, Note_on_c, 12, 49, 0
17, 129390, Note_on_c, 12, 52, 100
17, 129418, Note_on_c, 12, 52, 0
17, 129420, Note_on_c, 12, 54, 100
17, 129478, Note_on_c, 12, 54, 0
17, 129480, Note_on_c, 12, 42, 100
17, 129508, Note_on_c, 12, 42, 0
17, 129510, Note_on_c, 12, 54, 100
17, 129538, Note_on_c, 12, 54, 0
17, 129540, Note_on_c, 12, 59, 100
17, 129598, Note_on_c, 12, 59, 0
17, 129600, Note_on_c, 12, 47, 100
17, 129658, Note_on_c, 12, 47, 0
17, 129720, Note_on_c, 12, 52, 100
17, 129778, Note_on_c, 12, 52, 0
17, 129780, Note_on_c, 12, 57, 100
17, 129838, Note_on_c, 12, 57, 0
17, 129840, Note_on_c, 12, 45, 100
17, 129898, Note_on_c, 12, 45, 0
17, 130350, Note_on_c, 12, 57, 100
17, 130378, Note_on_c, 12, 57, 0
17, 130380, Note_on_c, 12, 52, 100
17, 130438, Note_on_c, 12, 52, 0
17, 130440, Note_on_c, 12, 52, 100
17, 130498, Note_on_c, 12, 52, 0
17, 130740, Note_on_c, 12, 54, 100
17, 130978, Note_on_c, 12, 54, 0
17, 130980, Note_on_c, 12, 54, 100
17, 131098, Note_on_c, 12, 54, 0
17, 131100, Note_on_c, 12, 55, 100
17, 131338, Note_on_c, 12, 55, 0
17, 131340, Note_on_c, 12, 56, 100
17, 131578, Note_on_c, 12, 56, 0
17, 131580, Note_on_c, 12, 54, 100
17, 132058, Note_on_c, 12, 54, 0
17, 132060, Note_on_c, 12, 47, 100
17, 132178, Note_on_c, 12, 47, 0
17, 132180, Note_on_c, 12, 59, 100
17, 132418, Note_on_c, 12, 59, 0
17, 132420, Note_on_c, 12, 52, 100
17, 132538, Note_on_c, 12, 52, 0
17, 132540, Note_on_c, 12, 57, 100
17, 132778, Note_on_c, 12, 57, 0
17, 132780, Note_on_c, 12, 56, 100
17, 133018, Note_on_c, 12, 56, 0
17, 133020, Note_on_c, 12, 57, 100
17, 133258, Note_on_c, 12, 57, 0
17, 133260, Note_on_c, 12, 45, 100
17, 133498, Note_on_c, 12, 45, 0
17, 133500, Note_on_c, 12, 50, 100
17, 133978, Note_on_c, 12, 50, 0
17, 193740, Note_on_c, 12, 50, 100
17, 193978, Note_on_c, 12, 50, 0
17, 193980, Note_on_c, 12, 52, 100
17, 194098, Note_on_c, 12, 52, 0
17, 194100, Note_on_c, 12, 52, 100
17, 194218, Note_on_c, 12, 52, 0
17, 194220, Note_on_c, 12, 54, 100
17, 194278, Note_on_c, 12, 54, 0
17, 194280, Note_on_c, 12, 52, 100
17, 194338, Note_on_c, 12, 52, 0
17, 194340, Note_on_c, 12, 50, 100
17, 194398, Note_on_c, 12, 50, 0
17, 194400, Note_on_c, 12, 52, 100
17, 194458, Note_on_c, 12, 52, 0
17, 194460, Note_on_c, 12, 54, 100
17, 194518, Note_on_c, 12, 54, 0
17, 194520, Note_on_c, 12, 55, 100
17, 194578, Note_on_c, 12, 55, 0
17, 194580, Note_on_c, 12, 57, 100
17, 194698, Note_on_c, 12, 57, 0
17, 194700, Note_on_c, 12, 57, 100
17, 194818, Note_on_c, 12, 57, 0
17, 194820, Note_on_c, 12, 52, 100
17, 194938, Note_on_c, 12, 52, 0
17, 194940, Note_on_c, 12, 57, 100
17, 195058, Note_on_c, 12, 57, 0
17, 195060, Note_on_c, 12, 49, 100
17, 195178, Note_on_c, 12, 49, 0
17, 195180, Note_on_c, 12, 47, 100
17, 195418, Note_on_c, 12, 47, 0
17, 195420, Note_on_c, 12, 56, 100
17, 195658, Note_on_c, 12, 56, 0
17, 195660, Note_on_c, 12, 57, 100
17, 195898, Note_on_c, 12, 57, 0
17, 195900, Note_on_c, 12, 54, 100
17, 196078, Note_on_c, 12, 54, 0
17, 196080, Note_on_c, 12, 54, 100
17, 196138, Note_on_c, 12, 54, 0
17, 196140, Note_on_c, 12, 55, 100
17, 196258, Note_on_c, 12, 55, 0
17, 196260, Note_on_c, 12, 43, 100
17, 196378, Note_on_c, 12, 43, 0
17, 196380, Note_on_c, 12, 55, 100
17, 196498, Note_on_c, 12, 55, 0
17, 196500, Note_on_c, 12, 54, 100
17, 196558, Note_on_c, 12, 54, 0
17, 196560, Note_on_c, 12, 52, 100
17, 196618, Note_on_c, 12, 52, 0
17, 196620, Note_on_c, 12, 54, 100
17, 196678, Note_on_c, 12, 54, 0
17, 196680, Note_on_c, 12, 52, 100
17, 196738, Note_on_c, 12, 52, 0
17, 196740, Note_on_c, 12, 50, 100
17, 196798, Note_on_c, 12, 50, 0
17, 196800, Note_on_c, 12, 52, 100
17, 196858, Note_on_c, 12, 52, 0
17, 196860, Note_on_c, 12, 54, 100
17, 196918, Note_on_c, 12, 54, 0
17, 196920, Note_on_c, 12, 55, 100
17, 196978, Note_on_c, 12, 55, 0
17, 196980, Note_on_c, 12, 57, 100
17, 197098, Note_on_c, 12, 57, 0
17, 197100, Note_on_c, 12, 55, 100
17, 197218, Note_on_c, 12, 55, 0
17, 197220, Note_on_c, 12, 54, 100
17, 197338, Note_on_c, 12, 54, 0
17, 197340, Note_on_c, 12, 52, 100
17, 197578, Note_on_c, 12, 52, 0
17, 197580, Note_on_c, 12, 50, 100
17, 197698, Note_on_c, 12, 50, 0
17, 197700, Note_on_c, 12, 50, 100
17, 197818, Note_on_c, 12, 50, 0
17, 197820, Note_on_c, 12, 57, 100
17, 197938, Note_on_c, 12, 57, 0
17, 197940, Note_on_c, 12, 55, 100
17, 198058, Note_on_c, 12, 55, 0
17, 198060, Note_on_c, 12, 54, 100
17, 198238, Note_on_c, 12, 54, 0
17, 198240, Note_on_c, 12, 52, 100
17, 198298, Note_on_c, 12, 52, 0
17, 198300, Note_on_c, 12, 50, 100
17, 198538, Note_on_c, 12, 50, 0
17, 198780, Note_on_c, 12, 49, 100
17, 199018, Note_on_c, 12, 49, 0
17, 199020, Note_on_c, 12, 50, 100
17, 199258, Note_on_c, 12, 50, 0
17, 199260, Note_on_c, 12, 52, 100
17, 199498, Note_on_c, 12, 52, 0
17, 199500, Note_on_c, 12, 45, 100
17, 199738, Note_on_c, 12, 45, 0
17, 199860, Note_on_c, 12, 50, 100
17, 199978, Note_on_c, 12, 50, 0
17, 199980, Note_on_c, 12, 55, 100
17, 200098, Note_on_c, 12, 55, 0
17, 200100, Note_on_c, 12, 54, 100
17, 200218, Note_on_c, 12, 54, 0
17, 200220, Note_on_c, 12, 52, 100
17, 200398, Note_on_c, 12, 52, 0
17, 200400, Note_on_c, 12, 50, 100
17, 200458, Note_on_c, 12, 50, 0
17, 200460, Note_on_c, 12, 50, 100
17, 200578, Note_on_c, 12, 50, 0
17, 200580, Note_on_c, 12, 54, 100
17, 200698, Note_on_c, 12, 54, 0
17, 200700, Note_on_c, 12, 59, 100
17, 200818, Note_on_c, 12, 59, 0
17, 200820, Note_on_c, 12, 50, 100
17, 200938, Note_on_c, 12, 50, 0
17, 200940, Note_on_c, 12, 52, 100
17, 201058, Note_on_c, 12, 52, 0
17, 201060, Note_on_c, 12, 54, 100
17, 201178, Note_on_c, 12, 54, 0
17, 201180, Note_on_c, 12, 55, 100
17, 201418, Note_on_c, 12, 55, 0
17, 201420, Note_on_c, 12, 54, 100
17, 201538, Note_on_c, 12, 54, 0
17, 201540, Note_on_c, 12, 50, 100
17, 201658, Note_on_c, 12, 50, 0
17, 201660, Note_on_c, 12, 57, 100
17, 201778, Note_on_c, 12, 57, 0
17, 201780, Note_on_c, 12, 55, 100
17, 201898, Note_on_c, 12, 55, 0
17, 201900, Note_on_c, 12, 54, 100
17, 202078, Note_on_c, 12, 54, 0
17, 202080, Note_on_c, 12, 52, 100
17, 202138, Note_on_c, 12, 52, 0
17, 202140, Note_on_c, 12, 50, 100
17, 202378, Note_on_c, 12, 50, 0
17, 202620, Note_on_c, 12, 49, 100
17, 202858, Note_on_c, 12, 49, 0
17, 202860, Note_on_c, 12, 50, 100
17, 203098, Note_on_c, 12, 50, 0
17, 203100, Note_on_c, 12, 52, 100
17, 203338, Note_on_c, 12, 52, 0
17, 203340, Note_on_c, 12, 45, 100
17, 203578, Note_on_c, 12, 45, 0
17, 209100, Note_on_c, 12, 50, 100
17, 209338, Note_on_c, 12, 50, 0
17, 209340, Note_on_c, 12, 52, 100
17, 209458, Note_on_c, 12, 52, 0
17, 209460, Note_on_c, 12, 52, 100
17, 209578, Note_on_c, 12, 52, 0
17, 209580, Note_on_c, 12, 54, 100
17, 209638, Note_on_c, 12, 54, 0
17, 209640, Note_on_c, 12, 52, 100
17, 209698, Note_on_c, 12, 52, 0
17, 209700, Note_on_c, 12, 50, 100
17, 209758, Note_on_c, 12, 50, 0
17, 209760, Note_on_c, 12, 52, 100
17, 209818, Note_on_c, 12, 52, 0
17, 209820, Note_on_c, 12, 54, 100
17, 209878, Note_on_c, 12, 54, 0
17, 209880, Note_on_c, 12, 55, 100
17, 209938, Note_on_c, 12, 55, 0
17, 209940, Note_on_c, 12, 57, 100
17, 210058, Note_on_c, 12, 57, 0
17, 210060, Note_on_c, 12, 57, 100
17, 210178, Note_on_c, 12, 57, 0
17, 210180, Note_on_c, 12, 52, 100
17, 210298, Note_on_c, 12, 52, 0
17, 210300, Note_on_c, 12, 57, 100
17, 210418, Note_on_c, 12, 57, 0
17, 210420, Note_on_c, 12, 49, 100
17, 210538, Note_on_c, 12, 49, 0
17, 210540, Note_on_c, 12, 47, 100
17, 210778, Note_on_c, 12, 47, 0
17, 210780, Note_on_c, 12, 56, 100
17, 211018, Note_on_c, 12, 56, 0
17, 211020, Note_on_c, 12, 57, 100
17, 211258, Note_on_c, 12, 57, 0
17, 211260, Note_on_c, 12, 55, 100
17, 211438, Note_on_c, 12, 55, 0
17, 211440, Note_on_c, 12, 55, 100
17, 211498, Note_on_c, 12, 55, 0
17, 211500, Note_on_c, 12, 54, 100
17, 211738, Note_on_c, 12, 54, 0
17, 211740, Note_on_c, 12, 56, 100
17, 211918, Note_on_c, 12, 56, 0
17, 211920, Note_on_c, 12, 56, 100
17, 211978, Note_on_c, 12, 56, 0
17, 211980, Note_on_c, 12, 57, 100
17, 212098, Note_on_c, 12, 57, 0
17, 212100, Note_on_c, 12, 45, 100
17, 212218, Note_on_c, 12, 45, 0
17, 212220, Note_on_c, 12, 57, 100
17, 212338, Note_on_c, 12, 57, 0
17, 212340, Note_on_c, 12, 55, 100
17, 212398, Note_on_c, 12, 55, 0
17, 212400, Note_on_c, 12, 54, 100
17, 212458, Note_on_c, 12, 54, 0
17, 212460, Note_on_c, 12, 55, 100
17, 212578, Note_on_c, 12, 55, 0
17, 212580, Note_on_c, 12, 52, 100
17, 212698, Note_on_c, 12, 52, 0
17, 212700, Note_on_c, 12, 58, 100
17, 212878, Note_on_c, 12, 58, 0
17, 212880, Note_on_c, 12, 58, 100
17, 212938, Note_on_c, 12, 58, 0
17, 212940, Note_on_c, 12, 59, 100
17, 213058, Note_on_c, 12, 59, 0
17, 213060, Note_on_c, 12, 47, 100
17, 213178, Note_on_c, 12, 47, 0
17, 213180, Note_on_c, 12, 59, 100
17, 213298, Note_on_c, 12, 59, 0
17, 213300, Note_on_c, 12, 57, 100
17, 213358, Note_on_c, 12, 57, 0
17, 213360, Note_on_c, 12, 55, 100
17, 213418, Note_on_c, 12, 55, 0
17, 213420, Note_on_c, 12, 57, 100
17, 213538, Note_on_c, 12, 57, 0
17, 213540, Note_on_c, 12, 45, 100
17, 213658, Note_on_c, 12, 45, 0
17, 213660, Note_on_c, 12, 57, 100
17, 213778, Note_on_c, 12, 57, 0
17, 213780, Note_on_c, 12, 55, 100
17, 213838, Note_on_c, 12, 55, 0
17, 213840, Note_on_c, 12, 54, 100
17, 213898, Note_on_c, 12, 54, 0
17, 213900, Note_on_c, 12, 55, 100
17, 214018, Note_on_c, 12, 55, 0
17, 214020, Note_on_c, 12, 43, 100
17, 214138, Note_on_c, 12, 43, 0
17, 214140, Note_on_c, 12, 55, 100
17, 214258, Note_on_c, 12, 55, 0
17, 214260, Note_on_c, 12, 54, 100
17, 214318, Note_on_c, 12, 54, 0
17, 214320, Note_on_c, 12, 52, 100
17, 214378, Note_on_c, 12, 52, 0
17, 214380, Note_on_c, 12, 54, 100
17, 214498, Note_on_c, 12, 54, 0
17, 214500, Note_on_c, 12, 50, 100
17, 214558, Note_on_c, 12, 50, 0
17, 214560, Note_on_c, 12, 52, 100
17, 214618, Note_on_c, 12, 52, 0
17, 214620, Note_on_c, 12, 54, 100
17, 214738, Note_on_c, 12, 54, 0
17, 214740, Note_on_c, 12, 55, 100
17, 214858, Note_on_c, 12, 55, 0
17, 214860, Note_on_c, 12, 57, 100
17, 214978, Note_on_c, 12, 57, 0
17, 214980, Note_on_c, 12, 45, 100
17, 215098, Note_on_c, 12, 45, 0
17, 215100, Note_on_c, 12, 45, 100
17, 215218, Note_on_c, 12, 45, 0
17, 215220, Note_on_c, 12, 45, 100
17, 215338, Note_on_c, 12, 45, 0
17, 215340, Note_on_c, 12, 47, 100
17, 215398, Note_on_c, 12, 47, 0
17, 215400, Note_on_c, 12, 45, 100
17, 215458, Note_on_c, 12, 45, 0
17, 215460, Note_on_c, 12, 43, 100
17, 215518, Note_on_c, 12, 43, 0
17, 215520, Note_on_c, 12, 45, 100
17, 215578, Note_on_c, 12, 45, 0
17, 215580, Note_on_c, 12, 47, 100
17, 215638, Note_on_c, 12, 47, 0
17, 215640, Note_on_c, 12, 49, 100
17, 215698, Note_on_c, 12, 49, 0
17, 215700, Note_on_c, 12, 50, 100
17, 215818, Note_on_c, 12, 50, 0
17, 215820, Note_on_c, 12, 50, 100
17, 215938, Note_on_c, 12, 50, 0
17, 215940, Note_on_c, 12, 57, 100
17, 216058, Note_on_c, 12, 57, 0
17, 216060, Note_on_c, 12, 62, 100
17, 216178, Note_on_c, 12, 62, 0
17, 216180, Note_on_c, 12, 54, 100
17, 216298, Note_on_c, 12, 54, 0
17, 216300, Note_on_c, 12, 52, 100
17, 216538, Note_on_c, 12, 52, 0
17, 216540, Note_on_c, 12, 57, 100
17, 216778, Note_on_c, 12, 57, 0
17, 216780, Note_on_c, 12, 50, 100
17, 217018, Note_on_c, 12, 50, 0
17, 217020, Note_on_c, 12, 54, 100
17, 217198, Note_on_c, 12, 54, 0
17, 217200, Note_on_c, 12, 54, 100
17, 217258, Note_on_c, 12, 54, 0
17, 217260, Note_on_c, 12, 55, 100
17, 217378, Note_on_c, 12, 55, 0
17, 217380, Note_on_c, 12, 43, 100
17, 217498, Note_on_c, 12, 43, 0
17, 217500, Note_on_c, 12, 55, 100
17, 217858, Note_on_c, 12, 55, 0
17, 217860, Note_on_c, 12, 54, 100
17, 217918, Note_on_c, 12, 54, 0
17, 217920, Note_on_c, 12, 52, 100
17, 217978, Note_on_c, 12, 52, 0
17, 217980, Note_on_c, 12, 54, 100
17, 218038, Note_on_c, 12, 54, 0
17, 218040, Note_on_c, 12, 52, 100
17, 218098, Note_on_c, 12, 52, 0
17, 218100, Note_on_c, 12, 50, 100
17, 218158, Note_on_c, 12, 50, 0
17, 218160, Note_on_c, 12, 52, 100
17, 218218, Note_on_c, 12, 52, 0
17, 218220, Note_on_c, 12, 54, 100
17, 218278, Note_on_c, 12, 54, 0
17, 218280, Note_on_c, 12, 55, 100
17, 218338, Note_on_c, 12, 55, 0
17, 218340, Note_on_c, 12, 57, 100
17, 218458, Note_on_c, 12, 57, 0
17, 218460, Note_on_c, 12, 45, 100
17, 218638, Note_on_c, 12, 45, 0
17, 218640, Note_on_c, 12, 45, 100
17, 218698, Note_on_c, 12, 45, 0
17, 218700, Note_on_c, 12, 50, 100
17, 219178, Note_on_c, 12, 50, 0
17, 219660, Control_c, 12, 0, 0
17, 219660, Note_on_c, 12, 57, 100
17, 219780, Note_on_c, 12, 57, 0
17, 219840, Note_on_c, 12, 57, 100
17, 219880, Note_on_c, 12, 57, 0
17, 219900, Note_on_c, 12, 57, 100
17, 220060, Note_on_c, 12, 57, 0
17, 220180, Note_on_c, 12, 45, 100
17, 220217, Note_on_c, 12, 45, 0
17, 220220, Note_on_c, 12, 47, 100
17, 220257, Note_on_c, 12, 47, 0
17, 220260, Note_on_c, 12, 49, 100
17, 220297, Note_on_c, 12, 49, 0
17, 220300, Note_on_c, 12, 50, 100
17, 220337, Note_on_c, 12, 50, 0
17, 220340, Note_on_c, 12, 52, 100
17, 220377, Note_on_c, 12, 52, 0
17, 220380, Note_on_c, 12, 54, 100
17, 220457, Note_on_c, 12, 54, 0
17, 220460, Note_on_c, 12, 56, 100
17, 220497, Note_on_c, 12, 56, 0
17, 220500, Note_on_c, 12, 57, 100
17, 220537, Note_on_c, 12, 57, 0
17, 220540, Note_on_c, 12, 59, 100
17, 220577, Note_on_c, 12, 59, 0
17, 220580, Note_on_c, 12, 61, 100
17, 220617, Note_on_c, 12, 61, 0
17, 220620, Note_on_c, 12, 50, 100
17, 221177, Note_on_c, 12, 50, 0
17, 221180, Note_on_c, 12, 49, 100
17, 221217, Note_on_c, 12, 49, 0
17, 221220, Note_on_c, 12, 47, 100
17, 221257, Note_on_c, 12, 47, 0
17, 221260, Note_on_c, 12, 45, 100
17, 221297, Note_on_c, 12, 45, 0
17, 221300, Note_on_c, 12, 43, 100
17, 221337, Note_on_c, 12, 43, 0
17, 221340, Note_on_c, 12, 45, 100
17, 221377, Note_on_c, 12, 45, 0
17, 221380, Note_on_c, 12, 49, 100
17, 221417, Note_on_c, 12, 49, 0
17, 221420, Note_on_c, 12, 50, 100
17, 221457, Note_on_c, 12, 50, 0
17, 221460, Note_on_c, 12, 52, 100
17, 221497, Note_on_c, 12, 52, 0
17, 221500, Note_on_c, 12, 54, 100
17, 221537, Note_on_c, 12, 54, 0
17, 221540, Note_on_c, 12, 52, 100
17, 221577, Note_on_c, 12, 52, 0
17, 221580, Note_on_c, 12, 51, 100
17, 221700, Note_on_c, 12, 51, 0
17, 221760, Note_on_c, 12, 51, 100
17, 221800, Note_on_c, 12, 51, 0
17, 221820, Note_on_c, 12, 51, 100
17, 221980, Note_on_c, 12, 51, 0
17, 222060, Note_on_c, 12, 52, 100
17, 222298, Note_on_c, 12, 52, 0
17, 222300, Note_on_c, 12, 52, 100
17, 222540, Note_on_c, 12, 52, 0
17, 223540, Note_on_c, 12, 47, 90
17, 223580, Note_on_c, 12, 47, 0
17, 223580, Note_on_c, 12, 49, 90
17, 223620, Note_on_c, 12, 49, 0
17, 223620, Note_on_c, 12, 51, 90
17, 223660, Note_on_c, 12, 51, 0
17, 223660, Note_on_c, 12, 52, 90
17, 223700, Note_on_c, 12, 52, 0
17, 223700, Note_on_c, 12, 54, 90
17, 223740, Note_on_c, 12, 54, 0
17, 223740, Note_on_c, 12, 56, 90
17, 223780, Note_on_c, 12, 56, 0
17, 223780, Note_on_c, 12, 52, 90
17, 223820, Note_on_c, 12, 52, 0
17, 223820, Note_on_c, 12, 54, 90
17, 223860, Note_on_c, 12, 54, 0
17, 223860, Note_on_c, 12, 56, 90
17, 223900, Note_on_c, 12, 56, 0
17, 223900, Note_on_c, 12, 58, 90
17, 223940, Note_on_c, 12, 58, 0
17, 223940, Note_on_c, 12, 59, 90
17, 223980, Note_on_c, 12, 59, 0
17, 223980, Note_on_c, 12, 58, 90
17, 224160, Note_on_c, 12, 58, 0
17, 224160, Note_on_c, 12, 58, 90
17, 224220, Note_on_c, 12, 58, 0
17, 224220, Note_on_c, 12, 58, 90
17, 224460, Note_on_c, 12, 58, 0
17, 224460, Note_on_c, 12, 59, 90
17, 224640, Note_on_c, 12, 59, 0
17, 224640, Note_on_c, 12, 59, 90
17, 224700, Note_on_c, 12, 59, 0
17, 224700, Note_on_c, 12, 59, 90
17, 224940, Note_on_c, 12, 59, 0
17, 225460, Note_on_c, 12, 54, 90
17, 225500, Note_on_c, 12, 54, 0
17, 225500, Note_on_c, 12, 52, 90
17, 225540, Note_on_c, 12, 52, 0
17, 225540, Note_on_c, 12, 54, 90
17, 225580, Note_on_c, 12, 54, 0
17, 225580, Note_on_c, 12, 50, 90
17, 225620, Note_on_c, 12, 50, 0
17, 225620, Note_on_c, 12, 49, 90
17, 225660, Note_on_c, 12, 49, 0
17, 225660, Note_on_c, 12, 50, 90
17, 225700, Note_on_c, 12, 50, 0
17, 225700, Note_on_c, 12, 47, 90
17, 225740, Note_on_c, 12, 47, 0
17, 225740, Note_on_c, 12, 46, 90
17, 225780, Note_on_c, 12, 46, 0
17, 225780, Note_on_c, 12, 47, 90
17, 225820, Note_on_c, 12, 47, 0
17, 225820, Note_on_c, 12, 50, 90
17, 225860, Note_on_c, 12, 50, 0
17, 225860, Note_on_c, 12, 49, 90
17, 225900, Note_on_c, 12, 49, 0
17, 225900, Note_on_c, 12, 50, 90
17, 225940, Note_on_c, 12, 50, 0
17, 225940, Note_on_c, 12, 54, 90
17, 225980, Note_on_c, 12, 54, 0
17, 225980, Note_on_c, 12, 52, 90
17, 226020, Note_on_c, 12, 52, 0
17, 226020, Note_on_c, 12, 54, 90
17, 226060, Note_on_c, 12, 54, 0
17, 226060, Note_on_c, 12, 55, 90
17, 226100, Note_on_c, 12, 55, 0
17, 226100, Note_on_c, 12, 54, 90
17, 226140, Note_on_c, 12, 54, 0
17, 226140, Note_on_c, 12, 52, 90
17, 226180, Note_on_c, 12, 52, 0
17, 226180, Note_on_c, 12, 50, 90
17, 226220, Note_on_c, 12, 50, 0
17, 226220, Note_on_c, 12, 49, 90
17, 226260, Note_on_c, 12, 49, 0
17, 226260, Note_on_c, 12, 47, 90
17, 226300, Note_on_c, 12, 47, 0
17, 226300, Note_on_c, 12, 45, 90
17, 226340, Note_on_c, 12, 45, 0
17, 226340, Note_on_c, 12, 43, 90
17, 226380, Note_on_c, 12, 43, 0
17, 226380, Note_on_c, 12, 42, 90
17, 226500, Note_on_c, 12, 42, 0
17, 226500, Note_on_c, 12, 42, 90
17, 226560, Note_on_c, 12, 42, 0
17, 226560, Note_on_c, 12, 42, 90
17, 226620, Note_on_c, 12, 42, 0
17, 226620, Note_on_c, 12, 54, 90
17, 226740, Note_on_c, 12, 54, 0
17, 226740, Note_on_c, 12, 54, 90
17, 226860, Note_on_c, 12, 54, 0
17, 226860, Note_on_c, 12, 55, 90
17, 227040, Note_on_c, 12, 55, 0
17, 227040, Note_on_c, 12, 55, 90
17, 227100, Note_on_c, 12, 55, 0
17, 227100, Note_on_c, 12, 55, 90
17, 227340, Note_on_c, 12, 55, 0
17, 227340, Note_on_c, 12, 55, 90
17, 227580, Note_on_c, 12, 55, 0
17, 227580, Note_on_c, 12, 54, 90
17, 227820, Note_on_c, 12, 54, 0
17, 227820, Note_on_c, 12, 59, 90
17, 228300, Note_on_c, 12, 59, 0
17, 228300, Note_on_c, 12, 57, 90
17, 228780, Note_on_c, 12, 57, 0
17, 229920, Note_on_c, 12, 62, 90
17, 229949, Note_on_c, 12, 62, 0
17, 229950, Note_on_c, 12, 61, 90
17, 229979, Note_on_c, 12, 61, 0
17, 229980, Note_on_c, 12, 59, 90
17, 230039, Note_on_c, 12, 59, 0
17, 230040, Note_on_c, 12, 54, 90
17, 230069, Note_on_c, 12, 54, 0
17, 230070, Note_on_c, 12, 55, 90
17, 230099, Note_on_c, 12, 55, 0
17, 230100, Note_on_c, 12, 57, 90
17, 230159, Note_on_c, 12, 57, 0
17, 230160, Note_on_c, 12, 45, 90
17, 230219, Note_on_c, 12, 45, 0
17, 230220, Note_on_c, 12, 50, 90
17, 230309, Note_on_c, 12, 50, 0
17, 230310, Note_on_c, 12, 50, 90
17, 230339, Note_on_c, 12, 50, 0
17, 230340, Note_on_c, 12, 50, 90
17, 230459, Note_on_c, 12, 50, 0
17, 231000, Note_on_c, 12, 50, 90
17, 231029, Note_on_c, 12, 50, 0
17, 231030, Note_on_c, 12, 52, 90
17, 231059, Note_on_c, 12, 52, 0
17, 231060, Note_on_c, 12, 54, 90
17, 231089, Note_on_c, 12, 54, 0
17, 231090, Note_on_c, 12, 55, 90
17, 231119, Note_on_c, 12, 55, 0
17, 231120, Note_on_c, 12, 57, 90
17, 231149, Note_on_c, 12, 57, 0
17, 231180, Note_on_c, 12, 57, 90
17, 231209, Note_on_c, 12, 57, 0
17, 231210, Note_on_c, 12, 55, 90
17, 231239, Note_on_c, 12, 55, 0
17, 231240, Note_on_c, 12, 54, 90
17, 231269, Note_on_c, 12, 54, 0
17, 231270, Note_on_c, 12, 52, 90
17, 231299, Note_on_c, 12, 52, 0
17, 231300, Note_on_c, 12, 54, 90
17, 231389, Note_on_c, 12, 54, 0
17, 231390, Note_on_c, 12, 54, 90
17, 231419, Note_on_c, 12, 54, 0
17, 231420, Note_on_c, 12, 54, 90
17, 231479, Note_on_c, 12, 54, 0
17, 231480, Note_on_c, 12, 54, 90
17, 231509, Note_on_c, 12, 54, 0
17, 231510, Note_on_c, 12, 55, 90
17, 231539, Note_on_c, 12, 55, 0
17, 231540, Note_on_c, 12, 57, 90
17, 231599, Note_on_c, 12, 57, 0
17, 231600, Note_on_c, 12, 45, 90
17, 231659, Note_on_c, 12, 45, 0
17, 231660, Note_on_c, 12, 50, 90
17, 231749, Note_on_c, 12, 50, 0
17, 231750, Note_on_c, 12, 50, 90
17, 231779, Note_on_c, 12, 50, 0
17, 231780, Note_on_c, 12, 50, 90
17, 231899, Note_on_c, 12, 50, 0
17, 232080, Note_on_c, 12, 50, 90
17, 232109, Note_on_c, 12, 50, 0
17, 232110, Note_on_c, 12, 52, 90
17, 232139, Note_on_c, 12, 52, 0
17, 232140, Note_on_c, 12, 54, 90
17, 232199, Note_on_c, 12, 54, 0
17, 232200, Note_on_c, 12, 59, 90
17, 232259, Note_on_c, 12, 59, 0
17, 232260, Note_on_c, 12, 57, 90
17, 232319, Note_on_c, 12, 57, 0
17, 232320, Note_on_c, 12, 54, 90
17, 232379, Note_on_c, 12, 54, 0
17, 232380, Note_on_c, 12, 55, 90
17, 232439, Note_on_c, 12, 55, 0
17, 232800, Note_on_c, 12, 55, 90
17, 232829, Note_on_c, 12, 55, 0
17, 232830, Note_on_c, 12, 54, 90
17, 232859, Note_on_c, 12, 54, 0
17, 232860, Note_on_c, 12, 52, 90
17, 232919, Note_on_c, 12, 52, 0
17, 232920, Note_on_c, 12, 52, 90
17, 232979, Note_on_c, 12, 52, 0
17, 232980, Note_on_c, 12, 51, 90
17, 233039, Note_on_c, 12, 51, 0
17, 233040, Note_on_c, 12, 47, 90
17, 233099, Note_on_c, 12, 47, 0
17, 233100, Note_on_c, 12, 52, 90
17, 233189, Note_on_c, 12, 52, 0
17, 233190, Note_on_c, 12, 52, 90
17, 233220, Note_on_c, 12, 52, 0
17, 233220, Note_on_c, 12, 52, 90
17, 233340, Note_on_c, 12, 52, 0
17, 234240, Note_on_c, 12, 54, 90
17, 234269, Note_on_c, 12, 54, 0
17, 234270, Note_on_c, 12, 55, 90
17, 234299, Note_on_c, 12, 55, 0
17, 234300, Note_on_c, 12, 57, 90
17, 234329, Note_on_c, 12, 57, 0
17, 234330, Note_on_c, 12, 59, 90
17, 234359, Note_on_c, 12, 59, 0
17, 234360, Note_on_c, 12, 61, 90
17, 234389, Note_on_c, 12, 61, 0
17, 234390, Note_on_c, 12, 59, 90
17, 234419, Note_on_c, 12, 59, 0
17, 234420, Note_on_c, 12, 62, 90
17, 234449, Note_on_c, 12, 62, 0
17, 234450, Note_on_c, 12, 61, 90
17, 234479, Note_on_c, 12, 61, 0
17, 234480, Note_on_c, 12, 59, 90
17, 234509, Note_on_c, 12, 59, 0
17, 234510, Note_on_c, 12, 57, 90
17, 234539, Note_on_c, 12, 57, 0
17, 234540, Note_on_c, 12, 62, 90
17, 235320, Note_on_c, 12, 62, 0
17, 235320, Note_on_c, 12, 61, 90
17, 235349, Note_on_c, 12, 61, 0
17, 235350, Note_on_c, 12, 59, 90
17, 235379, Note_on_c, 12, 59, 0
17, 235380, Note_on_c, 12, 57, 90
17, 235409, Note_on_c, 12, 57, 0
17, 235410, Note_on_c, 12, 55, 90
17, 235439, Note_on_c, 12, 55, 0
17, 235440, Note_on_c, 12, 54, 90
17, 235469, Note_on_c, 12, 54, 0
17, 235470, Note_on_c, 12, 55, 90
17, 235499, Note_on_c, 12, 55, 0
17, 235500, Note_on_c, 12, 57, 90
17, 235529, Note_on_c, 12, 57, 0
17, 235530, Note_on_c, 12, 59, 90
17, 235559, Note_on_c, 12, 59, 0
17, 235560, Note_on_c, 12, 57, 90
17, 235589, Note_on_c, 12, 57, 0
17, 235590, Note_on_c, 12, 59, 90
17, 235619, Note_on_c, 12, 59, 0
17, 235620, Note_on_c, 12, 57, 90
17, 235649, Note_on_c, 12, 57, 0
17, 235650, Note_on_c, 12, 62, 90
17, 235679, Note_on_c, 12, 62, 0
17, 235680, Note_on_c, 12, 61, 90
17, 235709, Note_on_c, 12, 61, 0
17, 235710, Note_on_c, 12, 59, 90
17, 235739, Note_on_c, 12, 59, 0
17, 235740, Note_on_c, 12, 57, 90
17, 235769, Note_on_c, 12, 57, 0
17, 235770, Note_on_c, 12, 55, 90
17, 235799, Note_on_c, 12, 55, 0
17, 235800, Note_on_c, 12, 54, 90
17, 235829, Note_on_c, 12, 54, 0
17, 235830, Note_on_c, 12, 55, 90
17, 235859, Note_on_c, 12, 55, 0
17, 235860, Note_on_c, 12, 57, 90
17, 235889, Note_on_c, 12, 57, 0
17, 235890, Note_on_c, 12, 59, 90
17, 235919, Note_on_c, 12, 59, 0
17, 235920, Note_on_c, 12, 55, 90
17, 235949, Note_on_c, 12, 55, 0
17, 235950, Note_on_c, 12, 57, 90
17, 235979, Note_on_c, 12, 57, 0
17, 235980, Note_on_c, 12, 59, 90
17, 236039, Note_on_c, 12, 59, 0
17, 236040, Note_on_c, 12, 57, 90
17, 236069, Note_on_c, 12, 57, 0
17, 236070, Note_on_c, 12, 55, 90
17, 236099, Note_on_c, 12, 55, 0
17, 236100, Note_on_c, 12, 54, 90
17, 236129, Note_on_c, 12, 54, 0
17, 236130, Note_on_c, 12, 52, 90
17, 236159, Note_on_c, 12, 52, 0
17, 236160, Note_on_c, 12, 50, 90
17, 236189, Note_on_c, 12, 50, 0
17, 236190, Note_on_c, 12, 52, 90
17, 236219, Note_on_c, 12, 52, 0
17, 236220, Note_on_c, 12, 54, 90
17, 236249, Note_on_c, 12, 54, 0
17, 236250, Note_on_c, 12, 55, 90
17, 236279, Note_on_c, 12, 55, 0
17, 236280, Note_on_c, 12, 57, 90
17, 236339, Note_on_c, 12, 57, 0
17, 236340, Note_on_c, 12, 50, 90
17, 236400, Note_on_c, 12, 50, 0
17, 236400, Note_on_c, 12, 59, 90
17, 236460, Note_on_c, 12, 59, 0
17, 236460, Note_on_c, 12, 54, 90
17, 236520, Note_on_c, 12, 54, 0
17, 236520, Note_on_c, 12, 55, 90
17, 236580, Note_on_c, 12, 55, 0
17, 236580, Note_on_c, 12, 57, 90
17, 236700, Note_on_c, 12, 57, 0
17, 236700, Note_on_c, 12, 50, 90
17, 236820, Note_on_c, 12, 50, 0
17, 236820, End_track
18, 0, Start_track
18, 0, MIDI_port, 0
18, 0, Title_t, "cello"
18, 0, Program_c, 13, 42
18, 0, Control_c, 13, 7, 127
18, 0, Control_c, 13, 10, 87
18, 0, Note_on_c, 13, 62, 100
18, 40, Note_on_c, 13, 62, 0
18, 60, Note_on_c, 13, 50, 100
18, 100, Note_on_c, 13, 50, 0
18, 360, Note_on_c, 13, 59, 100
18, 400, Note_on_c, 13, 59, 0
18, 420, Note_on_c, 13, 47, 100
18, 460, Note_on_c, 13, 47, 0
18, 720, Note_on_c, 13, 54, 100
18, 760, Note_on_c, 13, 54, 0
18, 780, Note_on_c, 13, 42, 100
18, 820, Note_on_c, 13, 42, 0
18, 900, Note_on_c, 13, 54, 100
18, 920, Note_on_c, 13, 54, 0
18, 930, Note_on_c, 13, 55, 100
18, 950, Note_on_c, 13, 55, 0
18, 960, Note_on_c, 13, 57, 100
18, 1000, Note_on_c, 13, 57, 0
18, 1020, Note_on_c, 13, 45, 100
18, 1060, Note_on_c, 13, 45, 0
18, 1080, Note_on_c, 13, 50, 100
18, 1120, Note_on_c, 13, 50, 0
18, 1140, Note_on_c, 13, 62, 100
18, 1160, Note_on_c, 13, 62, 0
18, 1170, Note_on_c, 13, 61, 100
18, 1190, Note_on_c, 13, 61, 0
18, 1200, Note_on_c, 13, 59, 100
18, 1240, Note_on_c, 13, 59, 0
18, 1260, Note_on_c, 13, 57, 100
18, 1280, Note_on_c, 13, 57, 0
18, 1290, Note_on_c, 13, 55, 100
18, 1310, Note_on_c, 13, 55, 0
18, 1320, Note_on_c, 13, 57, 100
18, 1360, Note_on_c, 13, 57, 0
18, 1380, Note_on_c, 13, 45, 100
18, 1420, Note_on_c, 13, 45, 0
18, 1440, Note_on_c, 13, 50, 100
18, 1480, Note_on_c, 13, 50, 0
18, 1500, Note_on_c, 13, 54, 100
18, 1540, Note_on_c, 13, 54, 0
18, 1560, Note_on_c, 13, 57, 100
18, 1600, Note_on_c, 13, 57, 0
18, 1620, Note_on_c, 13, 62, 100
18, 1660, Note_on_c, 13, 62, 0
18, 1680, Note_on_c, 13, 62, 100
18, 1720, Note_on_c, 13, 62, 0
18, 1740, Note_on_c, 13, 57, 100
18, 1780, Note_on_c, 13, 57, 0
18, 1800, Note_on_c, 13, 56, 100
18, 1840, Note_on_c, 13, 56, 0
18, 1860, Note_on_c, 13, 52, 100
18, 1900, Note_on_c, 13, 52, 0
18, 1920, Note_on_c, 13, 57, 100
18, 1960, Note_on_c, 13, 57, 0
18, 1980, Note_on_c, 13, 61, 100
18, 2020, Note_on_c, 13, 61, 0
18, 2040, Note_on_c, 13, 61, 100
18, 2080, Note_on_c, 13, 61, 0
18, 2100, Note_on_c, 13, 57, 100
18, 2140, Note_on_c, 13, 57, 0
18, 2160, Note_on_c, 13, 54, 100
18, 2200, Note_on_c, 13, 54, 0
18, 2220, Note_on_c, 13, 50, 100
18, 2260, Note_on_c, 13, 50, 0
18, 2340, Note_on_c, 13, 54, 100
18, 2360, Note_on_c, 13, 54, 0
18, 2370, Note_on_c, 13, 55, 100
18, 2390, Note_on_c, 13, 55, 0
18, 2400, Note_on_c, 13, 54, 100
18, 2420, Note_on_c, 13, 54, 0
18, 2430, Note_on_c, 13, 52, 100
18, 2450, Note_on_c, 13, 52, 0
18, 2460, Note_on_c, 13, 50, 100
18, 2480, Note_on_c, 13, 50, 0
18, 2490, Note_on_c, 13, 49, 100
18, 2510, Note_on_c, 13, 49, 0
18, 2520, Note_on_c, 13, 47, 100
18, 2560, Note_on_c, 13, 47, 0
18, 2580, Note_on_c, 13, 59, 100
18, 2620, Note_on_c, 13, 59, 0
18, 2700, Note_on_c, 13, 47, 100
18, 2720, Note_on_c, 13, 47, 0
18, 2730, Note_on_c, 13, 49, 100
18, 2750, Note_on_c, 13, 49, 0
18, 2760, Note_on_c, 13, 47, 100
18, 2780, Note_on_c, 13, 47, 0
18, 2790, Note_on_c, 13, 45, 100
18, 2810, Note_on_c, 13, 45, 0
18, 2820, Note_on_c, 13, 44, 100
18, 2840, Note_on_c, 13, 44, 0
18, 2850, Note_on_c, 13, 42, 100
18, 2870, Note_on_c, 13, 42, 0
18, 2880, Note_on_c, 13, 40, 100
18, 2920, Note_on_c, 13, 40, 0
18, 2940, Note_on_c, 13, 52, 100
18, 2980, Note_on_c, 13, 52, 0
18, 3000, Note_on_c, 13, 47, 100
18, 3040, Note_on_c, 13, 47, 0
18, 3060, Note_on_c, 13, 44, 100
18, 3100, Note_on_c, 13, 44, 0
18, 3120, Note_on_c, 13, 40, 100
18, 3160, Note_on_c, 13, 40, 0
18, 3180, Note_on_c, 13, 50, 100
18, 3220, Note_on_c, 13, 50, 0
18, 3240, Note_on_c, 13, 49, 100
18, 3280, Note_on_c, 13, 49, 0
18, 3300, Note_on_c, 13, 57, 100
18, 3340, Note_on_c, 13, 57, 0
18, 3360, Note_on_c, 13, 52, 100
18, 3400, Note_on_c, 13, 52, 0
18, 3420, Note_on_c, 13, 49, 100
18, 3460, Note_on_c, 13, 49, 0
18, 3480, Note_on_c, 13, 45, 100
18, 3520, Note_on_c, 13, 45, 0
18, 3540, Note_on_c, 13, 55, 100
18, 3580, Note_on_c, 13, 55, 0
18, 3600, Note_on_c, 13, 54, 100
18, 3640, Note_on_c, 13, 54, 0
18, 3660, Note_on_c, 13, 50, 100
18, 3700, Note_on_c, 13, 50, 0
18, 3720, Note_on_c, 13, 54, 100
18, 3760, Note_on_c, 13, 54, 0
18, 3780, Note_on_c, 13, 59, 100
18, 3820, Note_on_c, 13, 59, 0
18, 3840, Note_on_c, 13, 59, 100
18, 3880, Note_on_c, 13, 59, 0
18, 3900, Note_on_c, 13, 56, 100
18, 3940, Note_on_c, 13, 56, 0
18, 3960, Note_on_c, 13, 52, 100
18, 4000, Note_on_c, 13, 52, 0
18, 4020, Note_on_c, 13, 56, 100
18, 4060, Note_on_c, 13, 56, 0
18, 4080, Note_on_c, 13, 57, 100
18, 4120, Note_on_c, 13, 57, 0
18, 4140, Note_on_c, 13, 50, 100
18, 4180, Note_on_c, 13, 50, 0
18, 4200, Note_on_c, 13, 52, 100
18, 4240, Note_on_c, 13, 52, 0
18, 4260, Note_on_c, 13, 40, 100
18, 4300, Note_on_c, 13, 40, 0
18, 4320, Note_on_c, 13, 45, 100
18, 4360, Note_on_c, 13, 45, 0
18, 4380, Note_on_c, 13, 57, 100
18, 4420, Note_on_c, 13, 57, 0
18, 4680, Note_on_c, 13, 42, 100
18, 4720, Note_on_c, 13, 42, 0
18, 4740, Note_on_c, 13, 54, 100
18, 4780, Note_on_c, 13, 54, 0
18, 5040, Note_on_c, 13, 37, 100
18, 5080, Note_on_c, 13, 37, 0
18, 5100, Note_on_c, 13, 49, 100
18, 5140, Note_on_c, 13, 49, 0
18, 5220, Note_on_c, 13, 49, 100
18, 5240, Note_on_c, 13, 49, 0
18, 5250, Note_on_c, 13, 50, 100
18, 5270, Note_on_c, 13, 50, 0
18, 5280, Note_on_c, 13, 52, 100
18, 5320, Note_on_c, 13, 52, 0
18, 5340, Note_on_c, 13, 40, 100
18, 5380, Note_on_c, 13, 40, 0
18, 5400, Note_on_c, 13, 45, 100
18, 5440, Note_on_c, 13, 45, 0
18, 5460, Note_on_c, 13, 57, 100
18, 5480, Note_on_c, 13, 57, 0
18, 5490, Note_on_c, 13, 56, 100
18, 5510, Note_on_c, 13, 56, 0
18, 5520, Note_on_c, 13, 54, 100
18, 5560, Note_on_c, 13, 54, 0
18, 5580, Note_on_c, 13, 52, 100
18, 5600, Note_on_c, 13, 52, 0
18, 5610, Note_on_c, 13, 50, 100
18, 5630, Note_on_c, 13, 50, 0
18, 5640, Note_on_c, 13, 52, 100
18, 5680, Note_on_c, 13, 52, 0
18, 5700, Note_on_c, 13, 40, 100
18, 5740, Note_on_c, 13, 40, 0
18, 5760, Note_on_c, 13, 45, 100
18, 5800, Note_on_c, 13, 45, 0
18, 5820, Note_on_c, 13, 57, 100
18, 5860, Note_on_c, 13, 57, 0
18, 5940, Note_on_c, 13, 57, 100
18, 5960, Note_on_c, 13, 57, 0
18, 5970, Note_on_c, 13, 59, 100
18, 5990, Note_on_c, 13, 59, 0
18, 6000, Note_on_c, 13, 57, 100
18, 6020, Note_on_c, 13, 57, 0
18, 6030, Note_on_c, 13, 55, 100
18, 6050, Note_on_c, 13, 55, 0
18, 6060, Note_on_c, 13, 54, 100
18, 6080, Note_on_c, 13, 54, 0
18, 6090, Note_on_c, 13, 52, 100
18, 6110, Note_on_c, 13, 52, 0
18, 6120, Note_on_c, 13, 50, 100
18, 6160, Note_on_c, 13, 50, 0
18, 6180, Note_on_c, 13, 62, 100
18, 6220, Note_on_c, 13, 62, 0
18, 6300, Note_on_c, 13, 50, 100
18, 6320, Note_on_c, 13, 50, 0
18, 6330, Note_on_c, 13, 52, 100
18, 6350, Note_on_c, 13, 52, 0
18, 6360, Note_on_c, 13, 50, 100
18, 6380, Note_on_c, 13, 50, 0
18, 6390, Note_on_c, 13, 48, 100
18, 6410, Note_on_c, 13, 48, 0
18, 6420, Note_on_c, 13, 47, 100
18, 6440, Note_on_c, 13, 47, 0
18, 6450, Note_on_c, 13, 45, 100
18, 6470, Note_on_c, 13, 45, 0
18, 6480, Note_on_c, 13, 43, 100
18, 6520, Note_on_c, 13, 43, 0
18, 6540, Note_on_c, 13, 55, 100
18, 6580, Note_on_c, 13, 55, 0
18, 6660, Note_on_c, 13, 55, 100
18, 6680, Note_on_c, 13, 55, 0
18, 6690, Note_on_c, 13, 54, 100
18, 6710, Note_on_c, 13, 54, 0
18, 6720, Note_on_c, 13, 52, 100
18, 6740, Note_on_c, 13, 52, 0
18, 6750, Note_on_c, 13, 50, 100
18, 6770, Note_on_c, 13, 50, 0
18, 6780, Note_on_c, 13, 49, 100
18, 6800, Note_on_c, 13, 49, 0
18, 6810, Note_on_c, 13, 47, 100
18, 6830, Note_on_c, 13, 47, 0
18, 6840, Note_on_c, 13, 45, 100
18, 6880, Note_on_c, 13, 45, 0
18, 6900, Note_on_c, 13, 57, 100
18, 6940, Note_on_c, 13, 57, 0
18, 7980, Note_on_c, 13, 45, 100
18, 8020, Note_on_c, 13, 45, 0
18, 8040, Note_on_c, 13, 50, 100
18, 8080, Note_on_c, 13, 50, 0
18, 8100, Note_on_c, 13, 54, 100
18, 8140, Note_on_c, 13, 54, 0
18, 8160, Note_on_c, 13, 54, 100
18, 8200, Note_on_c, 13, 54, 0
18, 8220, Note_on_c, 13, 50, 100
18, 8260, Note_on_c, 13, 50, 0
18, 8280, Note_on_c, 13, 45, 100
18, 8320, Note_on_c, 13, 45, 0
18, 8340, Note_on_c, 13, 50, 100
18, 8380, Note_on_c, 13, 50, 0
18, 8400, Note_on_c, 13, 54, 100
18, 8440, Note_on_c, 13, 54, 0
18, 8460, Note_on_c, 13, 57, 100
18, 8500, Note_on_c, 13, 57, 0
18, 8520, Note_on_c, 13, 57, 100
18, 8560, Note_on_c, 13, 57, 0
18, 8580, Note_on_c, 13, 54, 100
18, 8620, Note_on_c, 13, 54, 0
18, 8640, Note_on_c, 13, 50, 100
18, 8680, Note_on_c, 13, 50, 0
18, 8700, Note_on_c, 13, 62, 100
18, 8740, Note_on_c, 13, 62, 0
18, 9000, Note_on_c, 13, 47, 100
18, 9040, Note_on_c, 13, 47, 0
18, 9060, Note_on_c, 13, 59, 100
18, 9100, Note_on_c, 13, 59, 0
18, 9360, Note_on_c, 13, 42, 100
18, 9380, Note_on_c, 13, 42, 0
18, 9390, Note_on_c, 13, 62, 100
18, 9410, Note_on_c, 13, 62, 0
18, 9420, Note_on_c, 13, 61, 100
18, 9440, Note_on_c, 13, 61, 0
18, 9450, Note_on_c, 13, 59, 100
18, 9470, Note_on_c, 13, 59, 0
18, 9480, Note_on_c, 13, 57, 100
18, 9500, Note_on_c, 13, 57, 0
18, 9510, Note_on_c, 13, 55, 100
18, 9530, Note_on_c, 13, 55, 0
18, 9540, Note_on_c, 13, 54, 100
18, 9560, Note_on_c, 13, 54, 0
18, 9570, Note_on_c, 13, 55, 100
18, 9590, Note_on_c, 13, 55, 0
18, 9600, Note_on_c, 13, 57, 100
18, 9620, Note_on_c, 13, 57, 0
18, 9630, Note_on_c, 13, 59, 100
18, 9650, Note_on_c, 13, 59, 0
18, 9660, Note_on_c, 13, 57, 100
18, 9680, Note_on_c, 13, 57, 0
18, 9690, Note_on_c, 13, 59, 100
18, 9710, Note_on_c, 13, 59, 0
18, 9720, Note_on_c, 13, 57, 100
18, 9740, Note_on_c, 13, 57, 0
18, 9750, Note_on_c, 13, 62, 100
18, 9770, Note_on_c, 13, 62, 0
18, 9780, Note_on_c, 13, 61, 100
18, 9800, Note_on_c, 13, 61, 0
18, 9810, Note_on_c, 13, 59, 100
18, 9830, Note_on_c, 13, 59, 0
18, 9840, Note_on_c, 13, 57, 100
18, 9860, Note_on_c, 13, 57, 0
18, 9870, Note_on_c, 13, 55, 100
18, 9890, Note_on_c, 13, 55, 0
18, 9900, Note_on_c, 13, 54, 100
18, 9920, Note_on_c, 13, 54, 0
18, 9930, Note_on_c, 13, 55, 100
18, 9950, Note_on_c, 13, 55, 0
18, 9960, Note_on_c, 13, 57, 100
18, 9980, Note_on_c, 13, 57, 0
18, 9990, Note_on_c, 13, 59, 100
18, 10010, Note_on_c, 13, 59, 0
18, 10020, Note_on_c, 13, 55, 100
18, 10040, Note_on_c, 13, 55, 0
18, 10050, Note_on_c, 13, 57, 100
18, 10070, Note_on_c, 13, 57, 0
18, 10080, Note_on_c, 13, 59, 100
18, 10120, Note_on_c, 13, 59, 0
18, 10140, Note_on_c, 13, 57, 100
18, 10160, Note_on_c, 13, 57, 0
18, 10170, Note_on_c, 13, 55, 100
18, 10190, Note_on_c, 13, 55, 0
18, 10200, Note_on_c, 13, 54, 100
18, 10220, Note_on_c, 13, 54, 0
18, 10230, Note_on_c, 13, 52, 100
18, 10250, Note_on_c, 13, 52, 0
18, 10260, Note_on_c, 13, 50, 100
18, 10280, Note_on_c, 13, 50, 0
18, 10290, Note_on_c, 13, 52, 100
18, 10310, Note_on_c, 13, 52, 0
18, 10320, Note_on_c, 13, 54, 100
18, 10340, Note_on_c, 13, 54, 0
18, 10350, Note_on_c, 13, 55, 100
18, 10370, Note_on_c, 13, 55, 0
18, 10380, Note_on_c, 13, 57, 100
18, 10420, Note_on_c, 13, 57, 0
18, 10440, Note_on_c, 13, 50, 100
18, 10480, Note_on_c, 13, 50, 0
18, 10500, Note_on_c, 13, 59, 100
18, 10540, Note_on_c, 13, 59, 0
18, 10560, Note_on_c, 13, 54, 100
18, 10600, Note_on_c, 13, 54, 0
18, 10620, Note_on_c, 13, 55, 100
18, 10660, Note_on_c, 13, 55, 0
18, 10680, Note_on_c, 13, 57, 100
18, 10720, Note_on_c, 13, 57, 0
18, 10740, Note_on_c, 13, 45, 100
18, 10780, Note_on_c, 13, 45, 0
18, 10800, Note_on_c, 13, 50, 100
18, 10840, Note_on_c, 13, 50, 0
18, 10860, Note_on_c, 13, 38, 100
18, 10900, Note_on_c, 13, 38, 0
18, 11160, Note_on_c, 13, 50, 100
18, 11200, Note_on_c, 13, 50, 0
18, 11220, Note_on_c, 13, 38, 100
18, 11260, Note_on_c, 13, 38, 0
18, 11520, Note_on_c, 13, 62, 100
18, 11560, Note_on_c, 13, 62, 0
18, 11580, Note_on_c, 13, 50, 100
18, 11620, Note_on_c, 13, 50, 0
18, 11880, Note_on_c, 13, 59, 100
18, 11920, Note_on_c, 13, 59, 0
18, 11940, Note_on_c, 13, 47, 100
18, 11980, Note_on_c, 13, 47, 0
18, 12240, Note_on_c, 13, 54, 100
18, 12280, Note_on_c, 13, 54, 0
18, 12300, Note_on_c, 13, 42, 100
18, 12340, Note_on_c, 13, 42, 0
18, 12420, Note_on_c, 13, 54, 100
18, 12440, Note_on_c, 13, 54, 0
18, 12450, Note_on_c, 13, 55, 100
18, 12470, Note_on_c, 13, 55, 0
18, 12480, Note_on_c, 13, 57, 100
18, 12520, Note_on_c, 13, 57, 0
18, 12540, Note_on_c, 13, 45, 100
18, 12580, Note_on_c, 13, 45, 0
18, 12600, Note_on_c, 13, 50, 100
18, 12640, Note_on_c, 13, 50, 0
18, 12660, Note_on_c, 13, 62, 100
18, 12680, Note_on_c, 13, 62, 0
18, 12690, Note_on_c, 13, 61, 100
18, 12710, Note_on_c, 13, 61, 0
18, 12720, Note_on_c, 13, 59, 100
18, 12760, Note_on_c, 13, 59, 0
18, 12780, Note_on_c, 13, 57, 100
18, 12800, Note_on_c, 13, 57, 0
18, 12810, Note_on_c, 13, 55, 100
18, 12830, Note_on_c, 13, 55, 0
18, 12840, Note_on_c, 13, 57, 100
18, 12880, Note_on_c, 13, 57, 0
18, 12900, Note_on_c, 13, 45, 100
18, 12940, Note_on_c, 13, 45, 0
18, 12960, Note_on_c, 13, 50, 100
18, 13000, Note_on_c, 13, 50, 0
18, 13020, Note_on_c, 13, 54, 100
18, 13060, Note_on_c, 13, 54, 0
18, 13080, Note_on_c, 13, 57, 100
18, 13120, Note_on_c, 13, 57, 0
18, 13140, Note_on_c, 13, 62, 100
18, 13180, Note_on_c, 13, 62, 0
18, 13200, Note_on_c, 13, 62, 100
18, 13240, Note_on_c, 13, 62, 0
18, 13260, Note_on_c, 13, 57, 100
18, 13300, Note_on_c, 13, 57, 0
18, 13320, Note_on_c, 13, 56, 100
18, 13360, Note_on_c, 13, 56, 0
18, 13380, Note_on_c, 13, 52, 100
18, 13420, Note_on_c, 13, 52, 0
18, 13440, Note_on_c, 13, 57, 100
18, 13480, Note_on_c, 13, 57, 0
18, 13500, Note_on_c, 13, 61, 100
18, 13540, Note_on_c, 13, 61, 0
18, 13560, Note_on_c, 13, 61, 100
18, 13600, Note_on_c, 13, 61, 0
18, 13620, Note_on_c, 13, 57, 100
18, 13660, Note_on_c, 13, 57, 0
18, 13680, Note_on_c, 13, 54, 100
18, 13720, Note_on_c, 13, 54, 0
18, 13740, Note_on_c, 13, 50, 100
18, 13780, Note_on_c, 13, 50, 0
18, 13860, Note_on_c, 13, 54, 100
18, 13880, Note_on_c, 13, 54, 0
18, 13890, Note_on_c, 13, 55, 100
18, 13910, Note_on_c, 13, 55, 0
18, 13920, Note_on_c, 13, 54, 100
18, 13940, Note_on_c, 13, 54, 0
18, 13950, Note_on_c, 13, 52, 100
18, 13970, Note_on_c, 13, 52, 0
18, 13980, Note_on_c, 13, 50, 100
18, 14000, Note_on_c, 13, 50, 0
18, 14010, Note_on_c, 13, 49, 100
18, 14030, Note_on_c, 13, 49, 0
18, 14040, Note_on_c, 13, 47, 100
18, 14080, Note_on_c, 13, 47, 0
18, 14100, Note_on_c, 13, 59, 100
18, 14140, Note_on_c, 13, 59, 0
18, 14220, Note_on_c, 13, 47, 100
18, 14240, Note_on_c, 13, 47, 0
18, 14250, Note_on_c, 13, 49, 100
18, 14270, Note_on_c, 13, 49, 0
18, 14280, Note_on_c, 13, 47, 100
18, 14300, Note_on_c, 13, 47, 0
18, 14310, Note_on_c, 13, 45, 100
18, 14330, Note_on_c, 13, 45, 0
18, 14340, Note_on_c, 13, 44, 100
18, 14360, Note_on_c, 13, 44, 0
18, 14370, Note_on_c, 13, 42, 100
18, 14390, Note_on_c, 13, 42, 0
18, 14400, Note_on_c, 13, 40, 100
18, 14440, Note_on_c, 13, 40, 0
18, 14460, Note_on_c, 13, 52, 100
18, 14500, Note_on_c, 13, 52, 0
18, 14520, Note_on_c, 13, 47, 100
18, 14560, Note_on_c, 13, 47, 0
18, 14580, Note_on_c, 13, 44, 100
18, 14620, Note_on_c, 13, 44, 0
18, 14640, Note_on_c, 13, 40, 100
18, 14680, Note_on_c, 13, 40, 0
18, 14700, Note_on_c, 13, 50, 100
18, 14740, Note_on_c, 13, 50, 0
18, 14760, Note_on_c, 13, 49, 100
18, 14800, Note_on_c, 13, 49, 0
18, 14820, Note_on_c, 13, 57, 100
18, 14860, Note_on_c, 13, 57, 0
18, 14880, Note_on_c, 13, 52, 100
18, 14920, Note_on_c, 13, 52, 0
18, 14940, Note_on_c, 13, 49, 100
18, 14980, Note_on_c, 13, 49, 0
18, 15000, Note_on_c, 13, 45, 100
18, 15040, Note_on_c, 13, 45, 0
18, 15060, Note_on_c, 13, 55, 100
18, 15100, Note_on_c, 13, 55, 0
18, 15120, Note_on_c, 13, 54, 100
18, 15160, Note_on_c, 13, 54, 0
18, 15180, Note_on_c, 13, 50, 100
18, 15220, Note_on_c, 13, 50, 0
18, 15240, Note_on_c, 13, 54, 100
18, 15280, Note_on_c, 13, 54, 0
18, 15300, Note_on_c, 13, 59, 100
18, 15340, Note_on_c, 13, 59, 0
18, 15360, Note_on_c, 13, 59, 100
18, 15400, Note_on_c, 13, 59, 0
18, 15420, Note_on_c, 13, 56, 100
18, 15460, Note_on_c, 13, 56, 0
18, 15480, Note_on_c, 13, 52, 100
18, 15520, Note_on_c, 13, 52, 0
18, 15540, Note_on_c, 13, 56, 100
18, 15580, Note_on_c, 13, 56, 0
18, 15600, Note_on_c, 13, 57, 100
18, 15640, Note_on_c, 13, 57, 0
18, 15660, Note_on_c, 13, 50, 100
18, 15700, Note_on_c, 13, 50, 0
18, 15720, Note_on_c, 13, 52, 100
18, 15760, Note_on_c, 13, 52, 0
18, 15780, Note_on_c, 13, 40, 100
18, 15820, Note_on_c, 13, 40, 0
18, 15840, Note_on_c, 13, 45, 100
18, 15880, Note_on_c, 13, 45, 0
18, 15900, Note_on_c, 13, 57, 100
18, 15940, Note_on_c, 13, 57, 0
18, 16200, Note_on_c, 13, 45, 100
18, 16240, Note_on_c, 13, 45, 0
18, 16260, Note_on_c, 13, 57, 100
18, 16300, Note_on_c, 13, 57, 0
18, 16560, Note_on_c, 13, 45, 100
18, 16600, Note_on_c, 13, 45, 0
18, 16620, Note_on_c, 13, 57, 100
18, 16660, Note_on_c, 13, 57, 0
18, 16920, Note_on_c, 13, 42, 100
18, 16960, Note_on_c, 13, 42, 0
18, 16980, Note_on_c, 13, 54, 100
18, 17020, Note_on_c, 13, 54, 0
18, 17280, Note_on_c, 13, 37, 100
18, 17320, Note_on_c, 13, 37, 0
18, 17340, Note_on_c, 13, 49, 100
18, 17380, Note_on_c, 13, 49, 0
18, 17460, Note_on_c, 13, 49, 100
18, 17480, Note_on_c, 13, 49, 0
18, 17490, Note_on_c, 13, 50, 100
18, 17510, Note_on_c, 13, 50, 0
18, 17520, Note_on_c, 13, 52, 100
18, 17560, Note_on_c, 13, 52, 0
18, 17580, Note_on_c, 13, 40, 100
18, 17620, Note_on_c, 13, 40, 0
18, 17640, Note_on_c, 13, 45, 100
18, 17680, Note_on_c, 13, 45, 0
18, 17700, Note_on_c, 13, 57, 100
18, 17720, Note_on_c, 13, 57, 0
18, 17730, Note_on_c, 13, 56, 100
18, 17750, Note_on_c, 13, 56, 0
18, 17760, Note_on_c, 13, 54, 100
18, 17800, Note_on_c, 13, 54, 0
18, 17820, Note_on_c, 13, 52, 100
18, 17840, Note_on_c, 13, 52, 0
18, 17850, Note_on_c, 13, 50, 100
18, 17870, Note_on_c, 13, 50, 0
18, 17880, Note_on_c, 13, 52, 100
18, 17920, Note_on_c, 13, 52, 0
18, 17940, Note_on_c, 13, 40, 100
18, 17980, Note_on_c, 13, 40, 0
18, 18000, Note_on_c, 13, 45, 100
18, 18040, Note_on_c, 13, 45, 0
18, 18060, Note_on_c, 13, 57, 100
18, 18100, Note_on_c, 13, 57, 0
18, 18360, Note_on_c, 13, 46, 100
18, 18400, Note_on_c, 13, 46, 0
18, 18420, Note_on_c, 13, 58, 100
18, 18460, Note_on_c, 13, 58, 0
18, 18720, Note_on_c, 13, 47, 100
18, 18760, Note_on_c, 13, 47, 0
18, 18780, Note_on_c, 13, 59, 100
18, 18820, Note_on_c, 13, 59, 0
18, 19080, Note_on_c, 13, 41, 100
18, 19120, Note_on_c, 13, 41, 0
18, 19140, Note_on_c, 13, 53, 100
18, 19180, Note_on_c, 13, 53, 0
18, 19440, Note_on_c, 13, 42, 100
18, 19480, Note_on_c, 13, 42, 0
18, 19500, Note_on_c, 13, 54, 100
18, 19540, Note_on_c, 13, 54, 0
18, 19800, Note_on_c, 13, 37, 100
18, 19840, Note_on_c, 13, 37, 0
18, 19860, Note_on_c, 13, 49, 100
18, 19900, Note_on_c, 13, 49, 0
18, 20160, Note_on_c, 13, 62, 100
18, 20200, Note_on_c, 13, 62, 0
18, 20220, Note_on_c, 13, 50, 100
18, 20260, Note_on_c, 13, 50, 0
18, 20520, Note_on_c, 13, 59, 100
18, 20560, Note_on_c, 13, 59, 0
18, 20580, Note_on_c, 13, 47, 100
18, 20620, Note_on_c, 13, 47, 0
18, 20880, Note_on_c, 13, 54, 100
18, 20920, Note_on_c, 13, 54, 0
18, 20940, Note_on_c, 13, 42, 100
18, 20980, Note_on_c, 13, 42, 0
18, 21060, Note_on_c, 13, 54, 100
18, 21080, Note_on_c, 13, 54, 0
18, 21090, Note_on_c, 13, 55, 100
18, 21110, Note_on_c, 13, 55, 0
18, 21120, Note_on_c, 13, 57, 100
18, 21160, Note_on_c, 13, 57, 0
18, 21180, Note_on_c, 13, 45, 100
18, 21220, Note_on_c, 13, 45, 0
18, 21240, Note_on_c, 13, 50, 100
18, 21280, Note_on_c, 13, 50, 0
18, 21300, Note_on_c, 13, 62, 100
18, 21320, Note_on_c, 13, 62, 0
18, 21330, Note_on_c, 13, 61, 100
18, 21350, Note_on_c, 13, 61, 0
18, 21360, Note_on_c, 13, 59, 100
18, 21400, Note_on_c, 13, 59, 0
18, 21420, Note_on_c, 13, 54, 100
18, 21440, Note_on_c, 13, 54, 0
18, 21450, Note_on_c, 13, 55, 100
18, 21470, Note_on_c, 13, 55, 0
18, 21480, Note_on_c, 13, 57, 100
18, 21520, Note_on_c, 13, 57, 0
18, 21540, Note_on_c, 13, 45, 100
18, 21580, Note_on_c, 13, 45, 0
18, 21600, Note_on_c, 13, 50, 100
18, 21640, Note_on_c, 13, 50, 0
18, 21660, Note_on_c, 13, 62, 100
18, 21700, Note_on_c, 13, 62, 0
18, 21960, Note_on_c, 13, 50, 100
18, 22000, Note_on_c, 13, 50, 0
18, 22020, Note_on_c, 13, 59, 100
18, 22040, Note_on_c, 13, 59, 0
18, 22050, Note_on_c, 13, 57, 100
18, 22070, Note_on_c, 13, 57, 0
18, 22080, Note_on_c, 13, 55, 100
18, 22120, Note_on_c, 13, 55, 0
18, 22140, Note_on_c, 13, 50, 100
18, 22160, Note_on_c, 13, 50, 0
18, 22170, Note_on_c, 13, 52, 100
18, 22190, Note_on_c, 13, 52, 0
18, 22200, Note_on_c, 13, 54, 100
18, 22240, Note_on_c, 13, 54, 0
18, 22260, Note_on_c, 13, 42, 100
18, 22300, Note_on_c, 13, 42, 0
18, 22320, Note_on_c, 13, 47, 100
18, 22360, Note_on_c, 13, 47, 0
18, 22380, Note_on_c, 13, 59, 100
18, 22420, Note_on_c, 13, 59, 0
18, 22680, Note_on_c, 13, 43, 100
18, 22720, Note_on_c, 13, 43, 0
18, 22740, Note_on_c, 13, 55, 100
18, 22760, Note_on_c, 13, 55, 0
18, 22770, Note_on_c, 13, 54, 100
18, 22790, Note_on_c, 13, 54, 0
18, 22800, Note_on_c, 13, 52, 100
18, 22840, Note_on_c, 13, 52, 0
18, 22860, Note_on_c, 13, 47, 100
18, 22880, Note_on_c, 13, 47, 0
18, 22890, Note_on_c, 13, 49, 100
18, 22910, Note_on_c, 13, 49, 0
18, 22920, Note_on_c, 13, 50, 100
18, 22960, Note_on_c, 13, 50, 0
18, 22980, Note_on_c, 13, 38, 100
18, 23020, Note_on_c, 13, 38, 0
18, 23040, Note_on_c, 13, 43, 100
18, 23080, Note_on_c, 13, 43, 0
18, 23100, Note_on_c, 13, 55, 100
18, 23140, Note_on_c, 13, 55, 0
18, 23400, Note_on_c, 13, 40, 100
18, 23440, Note_on_c, 13, 40, 0
18, 23460, Note_on_c, 13, 52, 100
18, 23480, Note_on_c, 13, 52, 0
18, 23490, Note_on_c, 13, 50, 100
18, 23510, Note_on_c, 13, 50, 0
18, 23520, Note_on_c, 13, 48, 100
18, 23560, Note_on_c, 13, 48, 0
18, 23580, Note_on_c, 13, 43, 100
18, 23600, Note_on_c, 13, 43, 0
18, 23610, Note_on_c, 13, 45, 100
18, 23630, Note_on_c, 13, 45, 0
18, 23640, Note_on_c, 13, 47, 100
18, 23680, Note_on_c, 13, 47, 0
18, 23700, Note_on_c, 13, 47, 100
18, 23740, Note_on_c, 13, 47, 0
18, 23760, Note_on_c, 13, 40, 100
18, 23800, Note_on_c, 13, 40, 0
18, 23820, Note_on_c, 13, 47, 100
18, 23860, Note_on_c, 13, 47, 0
18, 23880, Note_on_c, 13, 52, 100
18, 23920, Note_on_c, 13, 52, 0
18, 23940, Note_on_c, 13, 55, 100
18, 23980, Note_on_c, 13, 55, 0
18, 24000, Note_on_c, 13, 55, 100
18, 24040, Note_on_c, 13, 55, 0
18, 24060, Note_on_c, 13, 52, 100
18, 24100, Note_on_c, 13, 52, 0
18, 24120, Note_on_c, 13, 49, 100
18, 24160, Note_on_c, 13, 49, 0
18, 24180, Note_on_c, 13, 45, 100
18, 24220, Note_on_c, 13, 45, 0
18, 24240, Note_on_c, 13, 50, 100
18, 24280, Note_on_c, 13, 50, 0
18, 24300, Note_on_c, 13, 54, 100
18, 24340, Note_on_c, 13, 54, 0
18, 24360, Note_on_c, 13, 54, 100
18, 24400, Note_on_c, 13, 54, 0
18, 24420, Note_on_c, 13, 50, 100
18, 24460, Note_on_c, 13, 50, 0
18, 24480, Note_on_c, 13, 47, 100
18, 24520, Note_on_c, 13, 47, 0
18, 24540, Note_on_c, 13, 43, 100
18, 24580, Note_on_c, 13, 43, 0
18, 24660, Note_on_c, 13, 47, 100
18, 24680, Note_on_c, 13, 47, 0
18, 24690, Note_on_c, 13, 48, 100
18, 24710, Note_on_c, 13, 48, 0
18, 24720, Note_on_c, 13, 47, 100
18, 24740, Note_on_c, 13, 47, 0
18, 24750, Note_on_c, 13, 45, 100
18, 24770, Note_on_c, 13, 45, 0
18, 24780, Note_on_c, 13, 43, 100
18, 24800, Note_on_c, 13, 43, 0
18, 24810, Note_on_c, 13, 42, 100
18, 24830, Note_on_c, 13, 42, 0
18, 24840, Note_on_c, 13, 40, 100
18, 24880, Note_on_c, 13, 40, 0
18, 24900, Note_on_c, 13, 52, 100
18, 24940, Note_on_c, 13, 52, 0
18, 25020, Note_on_c, 13, 52, 100
18, 25040, Note_on_c, 13, 52, 0
18, 25050, Note_on_c, 13, 54, 100
18, 25070, Note_on_c, 13, 54, 0
18, 25080, Note_on_c, 13, 52, 100
18, 25100, Note_on_c, 13, 52, 0
18, 25110, Note_on_c, 13, 50, 100
18, 25130, Note_on_c, 13, 50, 0
18, 25140, Note_on_c, 13, 49, 100
18, 25160, Note_on_c, 13, 49, 0
18, 25170, Note_on_c, 13, 47, 100
18, 25190, Note_on_c, 13, 47, 0
18, 25200, Note_on_c, 13, 45, 100
18, 25240, Note_on_c, 13, 45, 0
18, 25260, Note_on_c, 13, 57, 100
18, 25300, Note_on_c, 13, 57, 0
18, 25320, Note_on_c, 13, 52, 100
18, 25360, Note_on_c, 13, 52, 0
18, 25380, Note_on_c, 13, 49, 100
18, 25420, Note_on_c, 13, 49, 0
18, 25440, Note_on_c, 13, 45, 100
18, 25480, Note_on_c, 13, 45, 0
18, 25500, Note_on_c, 13, 55, 100
18, 25540, Note_on_c, 13, 55, 0
18, 25560, Note_on_c, 13, 54, 100
18, 25600, Note_on_c, 13, 54, 0
18, 25620, Note_on_c, 13, 50, 100
18, 25660, Note_on_c, 13, 50, 0
18, 25680, Note_on_c, 13, 45, 100
18, 25720, Note_on_c, 13, 45, 0
18, 25740, Note_on_c, 13, 42, 100
18, 25780, Note_on_c, 13, 42, 0
18, 25800, Note_on_c, 13, 38, 100
18, 25840, Note_on_c, 13, 38, 0
18, 25860, Note_on_c, 13, 48, 100
18, 25900, Note_on_c, 13, 48, 0
18, 25920, Note_on_c, 13, 47, 100
18, 25960, Note_on_c, 13, 47, 0
18, 25980, Note_on_c, 13, 43, 100
18, 26020, Note_on_c, 13, 43, 0
18, 26040, Note_on_c, 13, 47, 100
18, 26080, Note_on_c, 13, 47, 0
18, 26100, Note_on_c, 13, 52, 100
18, 26140, Note_on_c, 13, 52, 0
18, 26160, Note_on_c, 13, 52, 100
18, 26200, Note_on_c, 13, 52, 0
18, 26220, Note_on_c, 13, 50, 100
18, 26260, Note_on_c, 13, 50, 0
18, 26280, Note_on_c, 13, 45, 100
18, 26320, Note_on_c, 13, 45, 0
18, 26340, Note_on_c, 13, 49, 100
18, 26380, Note_on_c, 13, 49, 0
18, 26400, Note_on_c, 13, 50, 100
18, 26440, Note_on_c, 13, 50, 0
18, 26460, Note_on_c, 13, 55, 100
18, 26500, Note_on_c, 13, 55, 0
18, 26520, Note_on_c, 13, 57, 100
18, 26560, Note_on_c, 13, 57, 0
18, 26580, Note_on_c, 13, 45, 100
18, 26620, Note_on_c, 13, 45, 0
18, 26640, Note_on_c, 13, 38, 100
18, 26680, Note_on_c, 13, 38, 0
18, 26700, Note_on_c, 13, 50, 100
18, 26740, Note_on_c, 13, 50, 0
18, 26820, Note_on_c, 13, 50, 100
18, 26860, Note_on_c, 13, 50, 0
18, 26880, Note_on_c, 13, 49, 100
18, 26920, Note_on_c, 13, 49, 0
18, 26940, Note_on_c, 13, 50, 100
18, 26980, Note_on_c, 13, 50, 0
18, 27000, Note_on_c, 13, 45, 100
18, 27040, Note_on_c, 13, 45, 0
18, 27060, Note_on_c, 13, 57, 100
18, 27100, Note_on_c, 13, 57, 0
18, 27180, Note_on_c, 13, 57, 100
18, 27200, Note_on_c, 13, 57, 0
18, 27210, Note_on_c, 13, 59, 100
18, 27230, Note_on_c, 13, 59, 0
18, 27240, Note_on_c, 13, 57, 100
18, 27260, Note_on_c, 13, 57, 0
18, 27270, Note_on_c, 13, 55, 100
18, 27290, Note_on_c, 13, 55, 0
18, 27300, Note_on_c, 13, 54, 100
18, 27320, Note_on_c, 13, 54, 0
18, 27330, Note_on_c, 13, 52, 100
18, 27350, Note_on_c, 13, 52, 0
18, 27360, Note_on_c, 13, 50, 100
18, 27400, Note_on_c, 13, 50, 0
18, 27420, Note_on_c, 13, 62, 100
18, 27460, Note_on_c, 13, 62, 0
18, 27540, Note_on_c, 13, 50, 100
18, 27560, Note_on_c, 13, 50, 0
18, 27570, Note_on_c, 13, 52, 100
18, 27590, Note_on_c, 13, 52, 0
18, 27600, Note_on_c, 13, 50, 100
18, 27620, Note_on_c, 13, 50, 0
18, 27630, Note_on_c, 13, 48, 100
18, 27650, Note_on_c, 13, 48, 0
18, 27660, Note_on_c, 13, 47, 100
18, 27680, Note_on_c, 13, 47, 0
18, 27690, Note_on_c, 13, 45, 100
18, 27710, Note_on_c, 13, 45, 0
18, 27720, Note_on_c, 13, 43, 100
18, 27760, Note_on_c, 13, 43, 0
18, 27780, Note_on_c, 13, 55, 100
18, 27820, Note_on_c, 13, 55, 0
18, 27900, Note_on_c, 13, 55, 100
18, 27920, Note_on_c, 13, 55, 0
18, 27930, Note_on_c, 13, 54, 100
18, 27950, Note_on_c, 13, 54, 0
18, 27960, Note_on_c, 13, 52, 100
18, 27980, Note_on_c, 13, 52, 0
18, 27990, Note_on_c, 13, 50, 100
18, 28010, Note_on_c, 13, 50, 0
18, 28020, Note_on_c, 13, 49, 100
18, 28040, Note_on_c, 13, 49, 0
18, 28050, Note_on_c, 13, 47, 100
18, 28070, Note_on_c, 13, 47, 0
18, 28080, Note_on_c, 13, 45, 100
18, 28120, Note_on_c, 13, 45, 0
18, 28140, Note_on_c, 13, 57, 100
18, 28180, Note_on_c, 13, 57, 0
18, 29220, Note_on_c, 13, 45, 100
18, 29260, Note_on_c, 13, 45, 0
18, 29280, Note_on_c, 13, 50, 100
18, 29320, Note_on_c, 13, 50, 0
18, 29340, Note_on_c, 13, 54, 100
18, 29380, Note_on_c, 13, 54, 0
18, 29400, Note_on_c, 13, 54, 100
18, 29440, Note_on_c, 13, 54, 0
18, 29460, Note_on_c, 13, 50, 100
18, 29500, Note_on_c, 13, 50, 0
18, 29520, Note_on_c, 13, 45, 100
18, 29560, Note_on_c, 13, 45, 0
18, 29580, Note_on_c, 13, 50, 100
18, 29620, Note_on_c, 13, 50, 0
18, 29640, Note_on_c, 13, 54, 100
18, 29680, Note_on_c, 13, 54, 0
18, 29700, Note_on_c, 13, 57, 100
18, 29740, Note_on_c, 13, 57, 0
18, 29760, Note_on_c, 13, 57, 100
18, 29800, Note_on_c, 13, 57, 0
18, 29820, Note_on_c, 13, 54, 100
18, 29860, Note_on_c, 13, 54, 0
18, 29880, Note_on_c, 13, 50, 100
18, 29920, Note_on_c, 13, 50, 0
18, 29940, Note_on_c, 13, 62, 100
18, 29980, Note_on_c, 13, 62, 0
18, 30240, Note_on_c, 13, 47, 100
18, 30280, Note_on_c, 13, 47, 0
18, 30300, Note_on_c, 13, 59, 100
18, 30340, Note_on_c, 13, 59, 0
18, 30600, Note_on_c, 13, 42, 100
18, 30620, Note_on_c, 13, 42, 0
18, 30630, Note_on_c, 13, 62, 100
18, 30650, Note_on_c, 13, 62, 0
18, 30660, Note_on_c, 13, 61, 100
18, 30680, Note_on_c, 13, 61, 0
18, 30690, Note_on_c, 13, 59, 100
18, 30710, Note_on_c, 13, 59, 0
18, 30720, Note_on_c, 13, 57, 100
18, 30740, Note_on_c, 13, 57, 0
18, 30750, Note_on_c, 13, 55, 100
18, 30770, Note_on_c, 13, 55, 0
18, 30780, Note_on_c, 13, 54, 100
18, 30800, Note_on_c, 13, 54, 0
18, 30810, Note_on_c, 13, 55, 100
18, 30830, Note_on_c, 13, 55, 0
18, 30840, Note_on_c, 13, 57, 100
18, 30860, Note_on_c, 13, 57, 0
18, 30870, Note_on_c, 13, 59, 100
18, 30890, Note_on_c, 13, 59, 0
18, 30900, Note_on_c, 13, 57, 100
18, 30920, Note_on_c, 13, 57, 0
18, 30930, Note_on_c, 13, 59, 100
18, 30950, Note_on_c, 13, 59, 0
18, 30960, Note_on_c, 13, 57, 100
18, 30980, Note_on_c, 13, 57, 0
18, 30990, Note_on_c, 13, 62, 100
18, 31010, Note_on_c, 13, 62, 0
18, 31020, Note_on_c, 13, 61, 100
18, 31040, Note_on_c, 13, 61, 0
18, 31050, Note_on_c, 13, 59, 100
18, 31070, Note_on_c, 13, 59, 0
18, 31080, Note_on_c, 13, 57, 100
18, 31100, Note_on_c, 13, 57, 0
18, 31110, Note_on_c, 13, 55, 100
18, 31130, Note_on_c, 13, 55, 0
18, 31140, Note_on_c, 13, 54, 100
18, 31160, Note_on_c, 13, 54, 0
18, 31170, Note_on_c, 13, 55, 100
18, 31190, Note_on_c, 13, 55, 0
18, 31200, Note_on_c, 13, 57, 100
18, 31220, Note_on_c, 13, 57, 0
18, 31230, Note_on_c, 13, 59, 100
18, 31250, Note_on_c, 13, 59, 0
18, 31260, Note_on_c, 13, 55, 100
18, 31280, Note_on_c, 13, 55, 0
18, 31290, Note_on_c, 13, 57, 100
18, 31310, Note_on_c, 13, 57, 0
18, 31320, Note_on_c, 13, 59, 100
18, 31360, Note_on_c, 13, 59, 0
18, 31380, Note_on_c, 13, 57, 100
18, 31400, Note_on_c, 13, 57, 0
18, 31410, Note_on_c, 13, 55, 100
18, 31430, Note_on_c, 13, 55, 0
18, 31440, Note_on_c, 13, 54, 100
18, 31460, Note_on_c, 13, 54, 0
18, 31470, Note_on_c, 13, 52, 100
18, 31490, Note_on_c, 13, 52, 0
18, 31500, Note_on_c, 13, 50, 100
18, 31520, Note_on_c, 13, 50, 0
18, 31530, Note_on_c, 13, 52, 100
18, 31550, Note_on_c, 13, 52, 0
18, 31560, Note_on_c, 13, 54, 100
18, 31580, Note_on_c, 13, 54, 0
18, 31590, Note_on_c, 13, 55, 100
18, 31610, Note_on_c, 13, 55, 0
18, 31620, Note_on_c, 13, 57, 100
18, 31660, Note_on_c, 13, 57, 0
18, 31680, Note_on_c, 13, 50, 100
18, 31720, Note_on_c, 13, 50, 0
18, 31740, Note_on_c, 13, 59, 100
18, 31780, Note_on_c, 13, 59, 0
18, 31800, Note_on_c, 13, 54, 100
18, 31840, Note_on_c, 13, 54, 0
18, 31860, Note_on_c, 13, 55, 100
18, 31900, Note_on_c, 13, 55, 0
18, 31920, Note_on_c, 13, 57, 100
18, 31960, Note_on_c, 13, 57, 0
18, 31980, Note_on_c, 13, 45, 100
18, 32020, Note_on_c, 13, 45, 0
18, 32040, Note_on_c, 13, 50, 100
18, 32120, Note_on_c, 13, 50, 0
18, 32760, Control_c, 13, 0, 0
18, 32760, Note_on_c, 13, 50, 100
18, 32840, Note_on_c, 13, 50, 0
18, 32970, Note_on_c, 13, 62, 100
18, 32980, Note_on_c, 13, 62, 0
18, 32985, Note_on_c, 13, 61, 100
18, 32995, Note_on_c, 13, 61, 0
18, 33000, Note_on_c, 13, 62, 100
18, 33020, Note_on_c, 13, 62, 0
18, 33030, Note_on_c, 13, 57, 100
18, 33050, Note_on_c, 13, 57, 0
18, 33060, Note_on_c, 13, 54, 100
18, 33080, Note_on_c, 13, 54, 0
18, 33090, Note_on_c, 13, 50, 100
18, 33110, Note_on_c, 13, 50, 0
18, 33120, Note_on_c, 13, 52, 100
18, 33160, Note_on_c, 13, 52, 0
18, 33180, Note_on_c, 13, 54, 100
18, 33220, Note_on_c, 13, 54, 0
18, 33240, Note_on_c, 13, 55, 100
18, 33280, Note_on_c, 13, 55, 0
18, 33300, Note_on_c, 13, 57, 100
18, 33340, Note_on_c, 13, 57, 0
18, 33360, Note_on_c, 13, 55, 100
18, 33400, Note_on_c, 13, 55, 0
18, 33480, Note_on_c, 13, 54, 100
18, 33560, Note_on_c, 13, 54, 0
18, 33690, Note_on_c, 13, 55, 100
18, 33700, Note_on_c, 13, 55, 0
18, 33705, Note_on_c, 13, 54, 100
18, 33715, Note_on_c, 13, 54, 0
18, 33720, Note_on_c, 13, 55, 100
18, 33740, Note_on_c, 13, 55, 0
18, 33750, Note_on_c, 13, 50, 100
18, 33770, Note_on_c, 13, 50, 0
18, 33780, Note_on_c, 13, 47, 100
18, 33800, Note_on_c, 13, 47, 0
18, 33810, Note_on_c, 13, 43, 100
18, 33830, Note_on_c, 13, 43, 0
18, 33840, Note_on_c, 13, 56, 100
18, 33920, Note_on_c, 13, 56, 0
18, 34050, Note_on_c, 13, 57, 100
18, 34060, Note_on_c, 13, 57, 0
18, 34065, Note_on_c, 13, 56, 100
18, 34075, Note_on_c, 13, 56, 0
18, 34080, Note_on_c, 13, 57, 100
18, 34100, Note_on_c, 13, 57, 0
18, 34110, Note_on_c, 13, 52, 100
18, 34130, Note_on_c, 13, 52, 0
18, 34140, Note_on_c, 13, 49, 100
18, 34160, Note_on_c, 13, 49, 0
18, 34170, Note_on_c, 13, 45, 100
18, 34190, Note_on_c, 13, 45, 0
18, 34200, Note_on_c, 13, 49, 100
18, 34280, Note_on_c, 13, 49, 0
18, 34380, Note_on_c, 13, 45, 100
18, 34420, Note_on_c, 13, 45, 0
18, 34440, Note_on_c, 13, 50, 100
18, 34480, Note_on_c, 13, 50, 0
18, 34500, Note_on_c, 13, 47, 100
18, 34540, Note_on_c, 13, 47, 0
18, 34560, Note_on_c, 13, 43, 100
18, 34600, Note_on_c, 13, 43, 0
18, 34620, Note_on_c, 13, 45, 100
18, 34660, Note_on_c, 13, 45, 0
18, 34680, Note_on_c, 13, 45, 100
18, 34720, Note_on_c, 13, 45, 0
18, 34740, Note_on_c, 13, 38, 100
18, 34780, Note_on_c, 13, 38, 0
18, 34800, Note_on_c, 13, 42, 100
18, 34840, Note_on_c, 13, 42, 0
18, 34860, Note_on_c, 13, 45, 100
18, 34900, Note_on_c, 13, 45, 0
18, 34920, Note_on_c, 13, 50, 100
18, 35000, Note_on_c, 13, 50, 0
18, 35130, Note_on_c, 13, 62, 100
18, 35140, Note_on_c, 13, 62, 0
18, 35145, Note_on_c, 13, 61, 100
18, 35155, Note_on_c, 13, 61, 0
18, 35160, Note_on_c, 13, 62, 100
18, 35180, Note_on_c, 13, 62, 0
18, 35190, Note_on_c, 13, 57, 100
18, 35210, Note_on_c, 13, 57, 0
18, 35220, Note_on_c, 13, 54, 100
18, 35240, Note_on_c, 13, 54, 0
18, 35250, Note_on_c, 13, 50, 100
18, 35270, Note_on_c, 13, 50, 0
18, 35280, Note_on_c, 13, 55, 100
18, 35320, Note_on_c, 13, 55, 0
18, 35340, Note_on_c, 13, 52, 100
18, 35380, Note_on_c, 13, 52, 0
18, 35400, Note_on_c, 13, 57, 100
18, 35440, Note_on_c, 13, 57, 0
18, 35460, Note_on_c, 13, 50, 100
18, 35480, Note_on_c, 13, 50, 0
18, 35490, Note_on_c, 13, 57, 100
18, 35500, Note_on_c, 13, 57, 0
18, 35505, Note_on_c, 13, 56, 100
18, 35515, Note_on_c, 13, 56, 0
18, 35520, Note_on_c, 13, 57, 100
18, 35540, Note_on_c, 13, 57, 0
18, 35550, Note_on_c, 13, 52, 100
18, 35570, Note_on_c, 13, 52, 0
18, 35580, Note_on_c, 13, 49, 100
18, 35600, Note_on_c, 13, 49, 0
18, 35610, Note_on_c, 13, 45, 100
18, 35630, Note_on_c, 13, 45, 0
18, 35640, Note_on_c, 13, 49, 100
18, 35720, Note_on_c, 13, 49, 0
18, 35820, Note_on_c, 13, 45, 100
18, 35860, Note_on_c, 13, 45, 0
18, 35880, Note_on_c, 13, 50, 100
18, 35920, Note_on_c, 13, 50, 0
18, 35940, Note_on_c, 13, 47, 100
18, 35980, Note_on_c, 13, 47, 0
18, 36000, Note_on_c, 13, 43, 100
18, 36040, Note_on_c, 13, 43, 0
18, 36060, Note_on_c, 13, 45, 100
18, 36100, Note_on_c, 13, 45, 0
18, 36120, Note_on_c, 13, 45, 100
18, 36160, Note_on_c, 13, 45, 0
18, 36180, Note_on_c, 13, 38, 100
18, 36220, Note_on_c, 13, 38, 0
18, 36240, Note_on_c, 13, 42, 100
18, 36280, Note_on_c, 13, 42, 0
18, 36300, Note_on_c, 13, 45, 100
18, 36340, Note_on_c, 13, 45, 0
18, 36360, Note_on_c, 13, 50, 100
18, 36440, Note_on_c, 13, 50, 0
18, 36570, Note_on_c, 13, 62, 100
18, 36580, Note_on_c, 13, 62, 0
18, 36585, Note_on_c, 13, 61, 100
18, 36595, Note_on_c, 13, 61, 0
18, 36600, Note_on_c, 13, 62, 100
18, 36620, Note_on_c, 13, 62, 0
18, 36630, Note_on_c, 13, 57, 100
18, 36650, Note_on_c, 13, 57, 0
18, 36660, Note_on_c, 13, 54, 100
18, 36680, Note_on_c, 13, 54, 0
18, 36690, Note_on_c, 13, 50, 100
18, 36710, Note_on_c, 13, 50, 0
18, 36720, Note_on_c, 13, 55, 100
18, 36760, Note_on_c, 13, 55, 0
18, 36780, Note_on_c, 13, 57, 100
18, 36820, Note_on_c, 13, 57, 0
18, 36840, Note_on_c, 13, 45, 100
18, 36880, Note_on_c, 13, 45, 0
18, 36900, Note_on_c, 13, 50, 100
18, 36940, Note_on_c, 13, 50, 0
18, 36960, Note_on_c, 13, 45, 100
18, 37000, Note_on_c, 13, 45, 0
18, 37020, Note_on_c, 13, 47, 100
18, 37060, Note_on_c, 13, 47, 0
18, 37080, Note_on_c, 13, 49, 100
18, 37140, Note_on_c, 13, 49, 0
18, 37140, Note_on_c, 13, 45, 100
18, 37200, Note_on_c, 13, 45, 0
18, 37290, Note_on_c, 13, 57, 100
18, 37305, Note_on_c, 13, 57, 0
18, 37305, Note_on_c, 13, 56, 100
18, 37320, Note_on_c, 13, 56, 0
18, 37320, Note_on_c, 13, 57, 100
18, 37350, Note_on_c, 13, 57, 0
18, 37350, Note_on_c, 13, 52, 100
18, 37380, Note_on_c, 13, 52, 0
18, 37380, Note_on_c, 13, 49, 100
18, 37410, Note_on_c, 13, 49, 0
18, 37410, Note_on_c, 13, 45, 100
18, 37440, Note_on_c, 13, 45, 0
18, 37440, Note_on_c, 13, 47, 100
18, 37500, Note_on_c, 13, 47, 0
18, 37500, Note_on_c, 13, 40, 100
18, 37560, Note_on_c, 13, 40, 0
18, 37560, Note_on_c, 13, 50, 100
18, 37620, Note_on_c, 13, 50, 0
18, 37620, Note_on_c, 13, 49, 100
18, 37680, Note_on_c, 13, 49, 0
18, 37680, Note_on_c, 13, 50, 100
18, 37740, Note_on_c, 13, 50, 0
18, 37740, Note_on_c, 13, 52, 100
18, 37800, Note_on_c, 13, 52, 0
18, 37800, Note_on_c, 13, 49, 100
18, 37830, Note_on_c, 13, 49, 0
18, 37830, Note_on_c, 13, 52, 100
18, 37845, Note_on_c, 13, 52, 0
18, 37845, Note_on_c, 13, 54, 100
18, 37860, Note_on_c, 13, 54, 0
18, 37860, Note_on_c, 13, 52, 100
18, 37890, Note_on_c, 13, 52, 0
18, 37890, Note_on_c, 13, 49, 100
18, 37905, Note_on_c, 13, 49, 0
18, 37905, Note_on_c, 13, 50, 100
18, 37920, Note_on_c, 13, 50, 0
18, 37920, Note_on_c, 13, 49, 100
18, 37950, Note_on_c, 13, 49, 0
18, 37950, Note_on_c, 13, 45, 100
18, 37965, Note_on_c, 13, 45, 0
18, 37965, Note_on_c, 13, 47, 100
18, 37980, Note_on_c, 13, 47, 0
18, 37980, Note_on_c, 13, 45, 100
18, 38040, Note_on_c, 13, 45, 0
18, 38040, Note_on_c, 13, 50, 100
18, 38100, Note_on_c, 13, 50, 0
18, 38190, Note_on_c, 13, 59, 100
18, 38205, Note_on_c, 13, 59, 0
18, 38205, Note_on_c, 13, 57, 100
18, 38220, Note_on_c, 13, 57, 0
18, 38220, Note_on_c, 13, 59, 100
18, 38250, Note_on_c, 13, 59, 0
18, 38250, Note_on_c, 13, 54, 100
18, 38280, Note_on_c, 13, 54, 0
18, 38280, Note_on_c, 13, 51, 100
18, 38310, Note_on_c, 13, 51, 0
18, 38310, Note_on_c, 13, 47, 100
18, 38340, Note_on_c, 13, 47, 0
18, 38340, Note_on_c, 13, 52, 100
18, 38400, Note_on_c, 13, 52, 0
18, 38400, Note_on_c, 13, 40, 100
18, 38460, Note_on_c, 13, 40, 0
18, 38520, Note_on_c, 13, 52, 100
18, 38580, Note_on_c, 13, 52, 0
18, 38580, Note_on_c, 13, 50, 100
18, 38610, Note_on_c, 13, 50, 0
18, 38610, Note_on_c, 13, 49, 100
18, 38640, Note_on_c, 13, 49, 0
18, 38640, Note_on_c, 13, 47, 100
18, 38670, Note_on_c, 13, 47, 0
18, 38670, Note_on_c, 13, 45, 100
18, 38700, Note_on_c, 13, 45, 0
18, 38700, Note_on_c, 13, 44, 100
18, 38740, Note_on_c, 13, 44, 0
18, 38760, Note_on_c, 13, 45, 100
18, 38800, Note_on_c, 13, 45, 0
18, 38820, Note_on_c, 13, 42, 100
18, 38860, Note_on_c, 13, 42, 0
18, 38880, Note_on_c, 13, 38, 100
18, 38920, Note_on_c, 13, 38, 0
18, 38940, Note_on_c, 13, 40, 100
18, 38980, Note_on_c, 13, 40, 0
18, 39000, Note_on_c, 13, 52, 100
18, 39040, Note_on_c, 13, 52, 0
18, 39060, Note_on_c, 13, 45, 100
18, 39090, Note_on_c, 13, 45, 0
18, 39090, Note_on_c, 13, 47, 100
18, 39120, Note_on_c, 13, 47, 0
18, 39120, Note_on_c, 13, 49, 100
18, 39150, Note_on_c, 13, 49, 0
18, 39150, Note_on_c, 13, 50, 100
18, 39180, Note_on_c, 13, 50, 0
18, 39180, Note_on_c, 13, 52, 100
18, 39210, Note_on_c, 13, 52, 0
18, 39210, Note_on_c, 13, 54, 100
18, 39240, Note_on_c, 13, 54, 0
18, 39240, Note_on_c, 13, 55, 100
18, 39270, Note_on_c, 13, 55, 0
18, 39270, Note_on_c, 13, 52, 100
18, 39300, Note_on_c, 13, 52, 0
18, 39300, Note_on_c, 13, 54, 100
18, 39340, Note_on_c, 13, 54, 0
18, 39420, Note_on_c, 13, 43, 100
18, 39440, Note_on_c, 13, 43, 0
18, 39450, Note_on_c, 13, 55, 100
18, 39480, Note_on_c, 13, 55, 0
18, 39480, Note_on_c, 13, 54, 100
18, 39510, Note_on_c, 13, 54, 0
18, 39510, Note_on_c, 13, 52, 100
18, 39540, Note_on_c, 13, 52, 0
18, 39540, Note_on_c, 13, 50, 100
18, 39570, Note_on_c, 13, 50, 0
18, 39570, Note_on_c, 13, 49, 100
18, 39600, Note_on_c, 13, 49, 0
18, 39600, Note_on_c, 13, 47, 100
18, 39630, Note_on_c, 13, 47, 0
18, 39630, Note_on_c, 13, 44, 100
18, 39660, Note_on_c, 13, 44, 0
18, 39660, Note_on_c, 13, 46, 100
18, 39720, Note_on_c, 13, 46, 0
18, 39780, Note_on_c, 13, 42, 100
18, 39820, Note_on_c, 13, 42, 0
18, 39840, Note_on_c, 13, 44, 100
18, 39880, Note_on_c, 13, 44, 0
18, 39900, Note_on_c, 13, 46, 100
18, 39940, Note_on_c, 13, 46, 0
18, 39960, Note_on_c, 13, 47, 100
18, 40000, Note_on_c, 13, 47, 0
18, 40020, Note_on_c, 13, 59, 100
18, 40060, Note_on_c, 13, 59, 0
18, 40080, Note_on_c, 13, 50, 100
18, 40120, Note_on_c, 13, 50, 0
18, 40140, Note_on_c, 13, 52, 100
18, 40180, Note_on_c, 13, 52, 0
18, 40200, Note_on_c, 13, 43, 100
18, 40240, Note_on_c, 13, 43, 0
18, 40260, Note_on_c, 13, 40, 100
18, 40300, Note_on_c, 13, 40, 0
18, 40320, Note_on_c, 13, 45, 100
18, 40360, Note_on_c, 13, 45, 0
18, 40380, Note_on_c, 13, 57, 100
18, 40420, Note_on_c, 13, 57, 0
18, 40440, Note_on_c, 13, 49, 100
18, 40480, Note_on_c, 13, 49, 0
18, 40500, Note_on_c, 13, 50, 100
18, 40540, Note_on_c, 13, 50, 0
18, 40560, Note_on_c, 13, 42, 100
18, 40600, Note_on_c, 13, 42, 0
18, 40620, Note_on_c, 13, 38, 100
18, 40660, Note_on_c, 13, 38, 0
18, 40680, Note_on_c, 13, 43, 100
18, 40720, Note_on_c, 13, 43, 0
18, 40740, Note_on_c, 13, 55, 100
18, 40780, Note_on_c, 13, 55, 0
18, 40800, Note_on_c, 13, 52, 100
18, 40840, Note_on_c, 13, 52, 0
18, 40860, Note_on_c, 13, 49, 100
18, 40900, Note_on_c, 13, 49, 0
18, 40920, Note_on_c, 13, 50, 100
18, 40960, Note_on_c, 13, 50, 0
18, 40980, Note_on_c, 13, 52, 100
18, 41020, Note_on_c, 13, 52, 0
18, 41040, Note_on_c, 13, 42, 100
18, 41060, Note_on_c, 13, 42, 0
18, 41070, Note_on_c, 13, 54, 100
18, 41090, Note_on_c, 13, 54, 0
18, 41100, Note_on_c, 13, 52, 100
18, 41130, Note_on_c, 13, 52, 0
18, 41130, Note_on_c, 13, 49, 100
18, 41150, Note_on_c, 13, 49, 0
18, 41160, Note_on_c, 13, 50, 100
18, 41190, Note_on_c, 13, 50, 0
18, 41190, Note_on_c, 13, 47, 100
18, 41210, Note_on_c, 13, 47, 0
18, 41220, Note_on_c, 13, 46, 100
18, 41260, Note_on_c, 13, 46, 0
18, 41310, Note_on_c, 13, 46, 100
18, 41340, Note_on_c, 13, 46, 0
18, 41340, Note_on_c, 13, 47, 100
18, 41370, Note_on_c, 13, 47, 0
18, 41370, Note_on_c, 13, 49, 100
18, 41400, Note_on_c, 13, 49, 0
18, 41400, Note_on_c, 13, 50, 100
18, 41420, Note_on_c, 13, 50, 0
18, 41430, Note_on_c, 13, 52, 100
18, 41450, Note_on_c, 13, 52, 0
18, 41460, Note_on_c, 13, 54, 100
18, 41480, Note_on_c, 13, 54, 0
18, 41490, Note_on_c, 13, 50, 100
18, 41510, Note_on_c, 13, 50, 0
18, 41520, Note_on_c, 13, 55, 100
18, 41560, Note_on_c, 13, 55, 0
18, 41580, Note_on_c, 13, 52, 100
18, 41620, Note_on_c, 13, 52, 0
18, 41640, Note_on_c, 13, 54, 100
18, 41680, Note_on_c, 13, 54, 0
18, 41700, Note_on_c, 13, 42, 100
18, 41740, Note_on_c, 13, 42, 0
18, 41760, Note_on_c, 13, 47, 100
18, 41840, Note_on_c, 13, 47, 0
18, 41970, Note_on_c, 13, 52, 100
18, 41980, Note_on_c, 13, 52, 0
18, 41985, Note_on_c, 13, 51, 100
18, 41995, Note_on_c, 13, 51, 0
18, 42000, Note_on_c, 13, 52, 100
18, 42020, Note_on_c, 13, 52, 0
18, 42030, Note_on_c, 13, 47, 100
18, 42050, Note_on_c, 13, 47, 0
18, 42060, Note_on_c, 13, 44, 100
18, 42080, Note_on_c, 13, 44, 0
18, 42090, Note_on_c, 13, 40, 100
18, 42110, Note_on_c, 13, 40, 0
18, 42120, Note_on_c, 13, 53, 100
18, 42200, Note_on_c, 13, 53, 0
18, 42330, Note_on_c, 13, 54, 100
18, 42340, Note_on_c, 13, 54, 0
18, 42345, Note_on_c, 13, 53, 100
18, 42355, Note_on_c, 13, 53, 0
18, 42360, Note_on_c, 13, 54, 100
18, 42380, Note_on_c, 13, 54, 0
18, 42390, Note_on_c, 13, 49, 100
18, 42410, Note_on_c, 13, 49, 0
18, 42420, Note_on_c, 13, 46, 100
18, 42440, Note_on_c, 13, 46, 0
18, 42450, Note_on_c, 13, 42, 100
18, 42470, Note_on_c, 13, 42, 0
18, 42480, Note_on_c, 13, 52, 100
18, 42560, Note_on_c, 13, 52, 0
18, 42660, Note_on_c, 13, 46, 100
18, 42700, Note_on_c, 13, 46, 0
18, 42720, Note_on_c, 13, 47, 100
18, 42760, Note_on_c, 13, 47, 0
18, 42780, Note_on_c, 13, 43, 100
18, 42820, Note_on_c, 13, 43, 0
18, 42840, Note_on_c, 13, 40, 100
18, 42880, Note_on_c, 13, 40, 0
18, 42900, Note_on_c, 13, 42, 100
18, 42940, Note_on_c, 13, 42, 0
18, 42960, Note_on_c, 13, 42, 100
18, 43000, Note_on_c, 13, 42, 0
18, 43020, Note_on_c, 13, 47, 100
18, 43060, Note_on_c, 13, 47, 0
18, 43080, Note_on_c, 13, 50, 100
18, 43120, Note_on_c, 13, 50, 0
18, 43140, Note_on_c, 13, 54, 100
18, 43180, Note_on_c, 13, 54, 0
18, 43200, Note_on_c, 13, 47, 100
18, 43220, Note_on_c, 13, 47, 0
18, 43230, Note_on_c, 13, 49, 100
18, 43250, Note_on_c, 13, 49, 0
18, 43260, Note_on_c, 13, 50, 100
18, 43280, Note_on_c, 13, 50, 0
18, 43290, Note_on_c, 13, 52, 100
18, 43310, Note_on_c, 13, 52, 0
18, 43320, Note_on_c, 13, 54, 100
18, 43340, Note_on_c, 13, 54, 0
18, 43350, Note_on_c, 13, 55, 100
18, 43370, Note_on_c, 13, 55, 0
18, 43380, Note_on_c, 13, 57, 100
18, 43410, Note_on_c, 13, 57, 0
18, 43410, Note_on_c, 13, 54, 100
18, 43440, Note_on_c, 13, 54, 0
18, 43440, Note_on_c, 13, 55, 100
18, 43500, Note_on_c, 13, 55, 0
18, 43560, Note_on_c, 13, 48, 100
18, 43600, Note_on_c, 13, 48, 0
18, 43620, Note_on_c, 13, 47, 100
18, 43660, Note_on_c, 13, 47, 0
18, 43680, Note_on_c, 13, 50, 100
18, 43720, Note_on_c, 13, 50, 0
18, 43740, Note_on_c, 13, 43, 100
18, 43820, Note_on_c, 13, 43, 0
18, 43950, Note_on_c, 13, 55, 100
18, 43960, Note_on_c, 13, 55, 0
18, 43965, Note_on_c, 13, 54, 100
18, 43975, Note_on_c, 13, 54, 0
18, 43980, Note_on_c, 13, 55, 100
18, 44000, Note_on_c, 13, 55, 0
18, 44010, Note_on_c, 13, 52, 100
18, 44030, Note_on_c, 13, 52, 0
18, 44040, Note_on_c, 13, 49, 100
18, 44060, Note_on_c, 13, 49, 0
18, 44070, Note_on_c, 13, 45, 100
18, 44090, Note_on_c, 13, 45, 0
18, 44100, Note_on_c, 13, 54, 100
18, 44180, Note_on_c, 13, 54, 0
18, 44310, Note_on_c, 13, 55, 100
18, 44320, Note_on_c, 13, 55, 0
18, 44325, Note_on_c, 13, 54, 100
18, 44335, Note_on_c, 13, 54, 0
18, 44340, Note_on_c, 13, 55, 100
18, 44360, Note_on_c, 13, 55, 0
18, 44370, Note_on_c, 13, 50, 100
18, 44390, Note_on_c, 13, 50, 0
18, 44400, Note_on_c, 13, 47, 100
18, 44420, Note_on_c, 13, 47, 0
18, 44430, Note_on_c, 13, 43, 100
18, 44450, Note_on_c, 13, 43, 0
18, 44460, Note_on_c, 13, 52, 100
18, 44500, Note_on_c, 13, 52, 0
18, 44520, Note_on_c, 13, 54, 100
18, 44560, Note_on_c, 13, 54, 0
18, 44580, Note_on_c, 13, 55, 100
18, 44620, Note_on_c, 13, 55, 0
18, 44640, Note_on_c, 13, 57, 100
18, 44680, Note_on_c, 13, 57, 0
18, 44700, Note_on_c, 13, 45, 100
18, 44740, Note_on_c, 13, 45, 0
18, 44760, Note_on_c, 13, 43, 100
18, 44800, Note_on_c, 13, 43, 0
18, 44820, Note_on_c, 13, 42, 100
18, 44850, Note_on_c, 13, 42, 0
18, 44850, Note_on_c, 13, 45, 100
18, 44880, Note_on_c, 13, 45, 0
18, 44880, Note_on_c, 13, 47, 100
18, 44910, Note_on_c, 13, 47, 0
18, 44910, Note_on_c, 13, 49, 100
18, 44940, Note_on_c, 13, 49, 0
18, 44940, Note_on_c, 13, 50, 100
18, 44970, Note_on_c, 13, 50, 0
18, 44970, Note_on_c, 13, 52, 100
18, 45000, Note_on_c, 13, 52, 0
18, 45000, Note_on_c, 13, 54, 100
18, 45030, Note_on_c, 13, 54, 0
18, 45030, Note_on_c, 13, 50, 100
18, 45050, Note_on_c, 13, 50, 0
18, 45060, Note_on_c, 13, 52, 100
18, 45090, Note_on_c, 13, 52, 0
18, 45090, Note_on_c, 13, 49, 100
18, 45110, Note_on_c, 13, 49, 0
18, 45120, Note_on_c, 13, 50, 100
18, 45150, Note_on_c, 13, 50, 0
18, 45150, Note_on_c, 13, 47, 100
18, 45170, Note_on_c, 13, 47, 0
18, 45180, Note_on_c, 13, 49, 100
18, 45210, Note_on_c, 13, 49, 0
18, 45210, Note_on_c, 13, 45, 100
18, 45240, Note_on_c, 13, 45, 0
18, 45240, Note_on_c, 13, 57, 100
18, 45280, Note_on_c, 13, 57, 0
18, 45300, Note_on_c, 13, 55, 100
18, 45340, Note_on_c, 13, 55, 0
18, 45360, Note_on_c, 13, 54, 100
18, 45440, Note_on_c, 13, 54, 0
18, 45570, Note_on_c, 13, 55, 100
18, 45580, Note_on_c, 13, 55, 0
18, 45585, Note_on_c, 13, 54, 100
18, 45595, Note_on_c, 13, 54, 0
18, 45600, Note_on_c, 13, 55, 100
18, 45620, Note_on_c, 13, 55, 0
18, 45630, Note_on_c, 13, 50, 100
18, 45650, Note_on_c, 13, 50, 0
18, 45660, Note_on_c, 13, 47, 100
18, 45680, Note_on_c, 13, 47, 0
18, 45690, Note_on_c, 13, 43, 100
18, 45710, Note_on_c, 13, 43, 0
18, 45720, Note_on_c, 13, 56, 100
18, 45800, Note_on_c, 13, 56, 0
18, 45930, Note_on_c, 13, 57, 100
18, 45940, Note_on_c, 13, 57, 0
18, 45945, Note_on_c, 13, 56, 100
18, 45955, Note_on_c, 13, 56, 0
18, 45960, Note_on_c, 13, 57, 100
18, 45980, Note_on_c, 13, 57, 0
18, 45990, Note_on_c, 13, 52, 100
18, 46010, Note_on_c, 13, 52, 0
18, 46020, Note_on_c, 13, 49, 100
18, 46040, Note_on_c, 13, 49, 0
18, 46050, Note_on_c, 13, 45, 100
18, 46070, Note_on_c, 13, 45, 0
18, 46080, Note_on_c, 13, 49, 100
18, 46160, Note_on_c, 13, 49, 0
18, 46260, Note_on_c, 13, 45, 100
18, 46300, Note_on_c, 13, 45, 0
18, 46320, Note_on_c, 13, 50, 100
18, 46360, Note_on_c, 13, 50, 0
18, 46380, Note_on_c, 13, 47, 100
18, 46420, Note_on_c, 13, 47, 0
18, 46440, Note_on_c, 13, 43, 100
18, 46480, Note_on_c, 13, 43, 0
18, 46500, Note_on_c, 13, 45, 100
18, 46540, Note_on_c, 13, 45, 0
18, 46560, Note_on_c, 13, 57, 100
18, 46600, Note_on_c, 13, 57, 0
18, 46620, Note_on_c, 13, 59, 100
18, 46660, Note_on_c, 13, 59, 0
18, 46680, Note_on_c, 13, 54, 100
18, 46720, Note_on_c, 13, 54, 0
18, 46740, Note_on_c, 13, 55, 100
18, 46780, Note_on_c, 13, 55, 0
18, 46800, Note_on_c, 13, 49, 100
18, 46820, Note_on_c, 13, 49, 0
18, 46830, Note_on_c, 13, 45, 100
18, 46860, Note_on_c, 13, 45, 0
18, 46860, Note_on_c, 13, 47, 100
18, 46890, Note_on_c, 13, 47, 0
18, 46890, Note_on_c, 13, 49, 100
18, 46920, Note_on_c, 13, 49, 0
18, 46920, Note_on_c, 13, 50, 100
18, 46950, Note_on_c, 13, 50, 0
18, 46950, Note_on_c, 13, 52, 100
18, 46980, Note_on_c, 13, 52, 0
18, 46980, Note_on_c, 13, 54, 100
18, 47010, Note_on_c, 13, 54, 0
18, 47010, Note_on_c, 13, 55, 100
18, 47040, Note_on_c, 13, 55, 0
18, 47040, Note_on_c, 13, 57, 100
18, 47080, Note_on_c, 13, 57, 0
18, 47100, Note_on_c, 13, 45, 100
18, 47140, Note_on_c, 13, 45, 0
18, 47160, Note_on_c, 13, 50, 100
18, 47240, Note_on_c, 13, 50, 0
18, 47370, Note_on_c, 13, 62, 100
18, 47380, Note_on_c, 13, 62, 0
18, 47385, Note_on_c, 13, 61, 100
18, 47395, Note_on_c, 13, 61, 0
18, 47400, Note_on_c, 13, 62, 100
18, 47420, Note_on_c, 13, 62, 0
18, 47430, Note_on_c, 13, 57, 100
18, 47450, Note_on_c, 13, 57, 0
18, 47460, Note_on_c, 13, 54, 100
18, 47480, Note_on_c, 13, 54, 0
18, 47490, Note_on_c, 13, 50, 100
18, 47510, Note_on_c, 13, 50, 0
18, 47520, Note_on_c, 13, 52, 100
18, 47560, Note_on_c, 13, 52, 0
18, 47580, Note_on_c, 13, 54, 100
18, 47620, Note_on_c, 13, 54, 0
18, 47640, Note_on_c, 13, 55, 100
18, 47680, Note_on_c, 13, 55, 0
18, 47700, Note_on_c, 13, 57, 100
18, 47740, Note_on_c, 13, 57, 0
18, 47760, Note_on_c, 13, 55, 100
18, 47800, Note_on_c, 13, 55, 0
18, 47880, Note_on_c, 13, 54, 100
18, 47960, Note_on_c, 13, 54, 0
18, 48090, Note_on_c, 13, 55, 100
18, 48100, Note_on_c, 13, 55, 0
18, 48105, Note_on_c, 13, 54, 100
18, 48115, Note_on_c, 13, 54, 0
18, 48120, Note_on_c, 13, 55, 100
18, 48140, Note_on_c, 13, 55, 0
18, 48150, Note_on_c, 13, 50, 100
18, 48170, Note_on_c, 13, 50, 0
18, 48180, Note_on_c, 13, 47, 100
18, 48200, Note_on_c, 13, 47, 0
18, 48210, Note_on_c, 13, 43, 100
18, 48230, Note_on_c, 13, 43, 0
18, 48240, Note_on_c, 13, 56, 100
18, 48320, Note_on_c, 13, 56, 0
18, 48450, Note_on_c, 13, 57, 100
18, 48460, Note_on_c, 13, 57, 0
18, 48465, Note_on_c, 13, 56, 100
18, 48475, Note_on_c, 13, 56, 0
18, 48480, Note_on_c, 13, 57, 100
18, 48500, Note_on_c, 13, 57, 0
18, 48510, Note_on_c, 13, 52, 100
18, 48530, Note_on_c, 13, 52, 0
18, 48540, Note_on_c, 13, 49, 100
18, 48560, Note_on_c, 13, 49, 0
18, 48570, Note_on_c, 13, 45, 100
18, 48590, Note_on_c, 13, 45, 0
18, 48600, Note_on_c, 13, 49, 100
18, 48680, Note_on_c, 13, 49, 0
18, 48780, Note_on_c, 13, 45, 100
18, 48820, Note_on_c, 13, 45, 0
18, 48840, Note_on_c, 13, 50, 100
18, 48880, Note_on_c, 13, 50, 0
18, 48900, Note_on_c, 13, 47, 100
18, 48940, Note_on_c, 13, 47, 0
18, 48960, Note_on_c, 13, 43, 100
18, 49000, Note_on_c, 13, 43, 0
18, 49020, Note_on_c, 13, 45, 100
18, 49060, Note_on_c, 13, 45, 0
18, 49080, Note_on_c, 13, 45, 100
18, 49120, Note_on_c, 13, 45, 0
18, 49140, Note_on_c, 13, 38, 100
18, 49260, Note_on_c, 13, 38, 0
18, 49500, Control_c, 13, 0, 0
18, 49500, Note_on_c, 13, 47, 100
18, 49618, Note_on_c, 13, 47, 0
18, 49680, Note_on_c, 13, 47, 100
18, 49738, Note_on_c, 13, 47, 0
18, 49740, Note_on_c, 13, 49, 100
18, 49858, Note_on_c, 13, 49, 0
18, 49890, Note_on_c, 13, 49, 100
18, 49918, Note_on_c, 13, 49, 0
18, 49920, Note_on_c, 13, 50, 100
18, 49948, Note_on_c, 13, 50, 0
18, 49950, Note_on_c, 13, 52, 100
18, 49978, Note_on_c, 13, 52, 0
18, 49980, Note_on_c, 13, 42, 100
18, 50098, Note_on_c, 13, 42, 0
18, 50160, Note_on_c, 13, 42, 100
18, 50218, Note_on_c, 13, 42, 0
18, 50220, Note_on_c, 13, 47, 100
18, 50338, Note_on_c, 13, 47, 0
18, 50370, Note_on_c, 13, 51, 100
18, 50398, Note_on_c, 13, 51, 0
18, 50400, Note_on_c, 13, 52, 100
18, 50428, Note_on_c, 13, 52, 0
18, 50430, Note_on_c, 13, 54, 100
18, 50458, Note_on_c, 13, 54, 0
18, 50460, Note_on_c, 13, 47, 100
18, 50578, Note_on_c, 13, 47, 0
18, 50640, Note_on_c, 13, 47, 100
18, 50698, Note_on_c, 13, 47, 0
18, 50700, Note_on_c, 13, 52, 100
18, 50818, Note_on_c, 13, 52, 0
18, 50850, Note_on_c, 13, 53, 100
18, 50878, Note_on_c, 13, 53, 0
18, 50880, Note_on_c, 13, 54, 100
18, 50908, Note_on_c, 13, 54, 0
18, 50910, Note_on_c, 13, 56, 100
18, 50938, Note_on_c, 13, 56, 0
18, 50940, Note_on_c, 13, 49, 100
18, 51058, Note_on_c, 13, 49, 0
18, 51120, Note_on_c, 13, 49, 100
18, 51178, Note_on_c, 13, 49, 0
18, 51180, Note_on_c, 13, 54, 100
18, 51298, Note_on_c, 13, 54, 0
18, 51360, Note_on_c, 13, 54, 100
18, 51418, Note_on_c, 13, 54, 0
18, 51420, Note_on_c, 13, 50, 100
18, 51478, Note_on_c, 13, 50, 0
18, 51480, Note_on_c, 13, 47, 100
18, 51538, Note_on_c, 13, 47, 0
18, 51540, Note_on_c, 13, 54, 100
18, 51598, Note_on_c, 13, 54, 0
18, 51600, Note_on_c, 13, 42, 100
18, 51658, Note_on_c, 13, 42, 0
18, 51660, Note_on_c, 13, 47, 100
18, 51778, Note_on_c, 13, 47, 0
18, 51810, Note_on_c, 13, 50, 100
18, 51838, Note_on_c, 13, 50, 0
18, 51840, Note_on_c, 13, 52, 100
18, 51868, Note_on_c, 13, 52, 0
18, 51870, Note_on_c, 13, 54, 100
18, 51898, Note_on_c, 13, 54, 0
18, 51900, Note_on_c, 13, 47, 100
18, 52018, Note_on_c, 13, 47, 0
18, 52080, Note_on_c, 13, 47, 100
18, 52140, Note_on_c, 13, 47, 0
18, 52140, Note_on_c, 13, 49, 100
18, 52260, Note_on_c, 13, 49, 0
18, 52290, Note_on_c, 13, 49, 100
18, 52320, Note_on_c, 13, 49, 0
18, 52320, Note_on_c, 13, 50, 100
18, 52350, Note_on_c, 13, 50, 0
18, 52350, Note_on_c, 13, 52, 100
18, 52380, Note_on_c, 13, 52, 0
18, 52380, Note_on_c, 13, 42, 100
18, 52500, Note_on_c, 13, 42, 0
18, 52560, Note_on_c, 13, 42, 100
18, 52620, Note_on_c, 13, 42, 0
18, 52620, Note_on_c, 13, 47, 100
18, 52740, Note_on_c, 13, 47, 0
18, 52770, Note_on_c, 13, 50, 100
18, 52800, Note_on_c, 13, 50, 0
18, 52800, Note_on_c, 13, 52, 100
18, 52830, Note_on_c, 13, 52, 0
18, 52830, Note_on_c, 13, 54, 100
18, 52860, Note_on_c, 13, 54, 0
18, 52860, Note_on_c, 13, 47, 100
18, 52980, Note_on_c, 13, 47, 0
18, 53040, Note_on_c, 13, 47, 100
18, 53100, Note_on_c, 13, 47, 0
18, 53100, Note_on_c, 13, 52, 100
18, 53220, Note_on_c, 13, 52, 0
18, 53250, Note_on_c, 13, 50, 100
18, 53280, Note_on_c, 13, 50, 0
18, 53280, Note_on_c, 13, 52, 100
18, 53310, Note_on_c, 13, 52, 0
18, 53310, Note_on_c, 13, 54, 100
18, 53340, Note_on_c, 13, 54, 0
18, 53340, Note_on_c, 13, 55, 100
18, 53460, Note_on_c, 13, 55, 0
18, 53520, Note_on_c, 13, 43, 100
18, 53580, Note_on_c, 13, 43, 0
18, 53580, Note_on_c, 13, 42, 100
18, 53700, Note_on_c, 13, 42, 0
18, 53730, Note_on_c, 13, 49, 100
18, 53760, Note_on_c, 13, 49, 0
18, 53760, Note_on_c, 13, 50, 100
18, 53790, Note_on_c, 13, 50, 0
18, 53790, Note_on_c, 13, 52, 100
18, 53820, Note_on_c, 13, 52, 0
18, 53820, Note_on_c, 13, 46, 100
18, 53940, Note_on_c, 13, 46, 0
18, 54000, Note_on_c, 13, 58, 100
18, 54060, Note_on_c, 13, 58, 0
18, 54060, Note_on_c, 13, 59, 100
18, 54180, Note_on_c, 13, 59, 0
18, 54210, Note_on_c, 13, 50, 100
18, 54240, Note_on_c, 13, 50, 0
18, 54240, Note_on_c, 13, 52, 100
18, 54270, Note_on_c, 13, 52, 0
18, 54270, Note_on_c, 13, 54, 100
18, 54300, Note_on_c, 13, 54, 0
18, 54300, Note_on_c, 13, 47, 100
18, 54420, Note_on_c, 13, 47, 0
18, 54480, Note_on_c, 13, 47, 100
18, 54540, Note_on_c, 13, 47, 0
18, 54540, Note_on_c, 13, 49, 100
18, 54660, Note_on_c, 13, 49, 0
18, 54690, Note_on_c, 13, 54, 100
18, 54720, Note_on_c, 13, 54, 0
18, 54720, Note_on_c, 13, 56, 100
18, 54750, Note_on_c, 13, 56, 0
18, 54750, Note_on_c, 13, 58, 100
18, 54780, Note_on_c, 13, 58, 0
18, 54780, Note_on_c, 13, 48, 100
18, 54900, Note_on_c, 13, 48, 0
18, 54960, Note_on_c, 13, 39, 100
18, 55020, Note_on_c, 13, 39, 0
18, 55020, Note_on_c, 13, 40, 100
18, 55140, Note_on_c, 13, 40, 0
18, 55170, Note_on_c, 13, 52, 100
18, 55200, Note_on_c, 13, 52, 0
18, 55200, Note_on_c, 13, 54, 100
18, 55230, Note_on_c, 13, 54, 0
18, 55230, Note_on_c, 13, 55, 100
18, 55260, Note_on_c, 13, 55, 0
18, 55260, Note_on_c, 13, 45, 100
18, 55380, Note_on_c, 13, 45, 0
18, 55440, Note_on_c, 13, 49, 100
18, 55500, Note_on_c, 13, 49, 0
18, 55500, Note_on_c, 13, 50, 100
18, 55620, Note_on_c, 13, 50, 0
18, 55650, Note_on_c, 13, 50, 100
18, 55680, Note_on_c, 13, 50, 0
18, 55680, Note_on_c, 13, 52, 100
18, 55710, Note_on_c, 13, 52, 0
18, 55710, Note_on_c, 13, 54, 100
18, 55740, Note_on_c, 13, 54, 0
18, 55740, Note_on_c, 13, 43, 100
18, 55800, Note_on_c, 13, 43, 0
18, 55800, Note_on_c, 13, 55, 100
18, 55860, Note_on_c, 13, 55, 0
18, 55860, Note_on_c, 13, 57, 100
18, 55920, Note_on_c, 13, 57, 0
18, 55920, Note_on_c, 13, 45, 100
18, 55980, Note_on_c, 13, 45, 0
18, 55980, Note_on_c, 13, 50, 100
18, 56100, Note_on_c, 13, 50, 0
18, 56130, Note_on_c, 13, 50, 100
18, 56160, Note_on_c, 13, 50, 0
18, 56160, Note_on_c, 13, 52, 100
18, 56190, Note_on_c, 13, 52, 0
18, 56190, Note_on_c, 13, 54, 100
18, 56220, Note_on_c, 13, 54, 0
18, 56220, Note_on_c, 13, 47, 100
18, 56340, Note_on_c, 13, 47, 0
18, 56400, Note_on_c, 13, 43, 100
18, 56460, Note_on_c, 13, 43, 0
18, 56460, Note_on_c, 13, 49, 100
18, 56580, Note_on_c, 13, 49, 0
18, 56610, Note_on_c, 13, 49, 100
18, 56640, Note_on_c, 13, 49, 0
18, 56640, Note_on_c, 13, 50, 100
18, 56670, Note_on_c, 13, 50, 0
18, 56670, Note_on_c, 13, 52, 100
18, 56700, Note_on_c, 13, 52, 0
18, 56700, Note_on_c, 13, 45, 100
18, 56820, Note_on_c, 13, 45, 0
18, 56880, Note_on_c, 13, 42, 100
18, 56940, Note_on_c, 13, 42, 0
18, 56940, Note_on_c, 13, 47, 100
18, 57060, Note_on_c, 13, 47, 0
18, 57120, Note_on_c, 13, 40, 100
18, 57180, Note_on_c, 13, 40, 0
18, 57180, Note_on_c, 13, 45, 100
18, 57300, Note_on_c, 13, 45, 0
18, 57360, Note_on_c, 13, 57, 100
18, 57420, Note_on_c, 13, 57, 0
18, 57420, Note_on_c, 13, 59, 100
18, 57480, Note_on_c, 13, 59, 0
18, 57480, Note_on_c, 13, 55, 100
18, 57540, Note_on_c, 13, 55, 0
18, 57540, Note_on_c, 13, 57, 100
18, 57600, Note_on_c, 13, 57, 0
18, 57600, Note_on_c, 13, 45, 100
18, 57660, Note_on_c, 13, 45, 0
18, 57660, Note_on_c, 13, 50, 100
18, 57720, Note_on_c, 13, 50, 0
18, 57720, Note_on_c, 13, 54, 100
18, 57750, Note_on_c, 13, 54, 0
18, 57750, Note_on_c, 13, 52, 100
18, 57780, Note_on_c, 13, 52, 0
18, 57780, Note_on_c, 13, 55, 100
18, 57810, Note_on_c, 13, 55, 0
18, 57810, Note_on_c, 13, 54, 100
18, 57840, Note_on_c, 13, 54, 0
18, 57840, Note_on_c, 13, 52, 100
18, 57870, Note_on_c, 13, 52, 0
18, 57870, Note_on_c, 13, 50, 100
18, 57900, Note_on_c, 13, 50, 0
18, 57900, Note_on_c, 13, 57, 100
18, 57960, Note_on_c, 13, 57, 0
18, 57960, Note_on_c, 13, 45, 100
18, 58020, Note_on_c, 13, 45, 0
18, 58020, Note_on_c, 13, 43, 100
18, 58080, Note_on_c, 13, 43, 0
18, 58080, Note_on_c, 13, 42, 100
18, 58140, Note_on_c, 13, 42, 0
18, 58140, Note_on_c, 13, 40, 100
18, 58200, Note_on_c, 13, 40, 0
18, 58200, Note_on_c, 13, 55, 100
18, 58230, Note_on_c, 13, 55, 0
18, 58230, Note_on_c, 13, 54, 100
18, 58260, Note_on_c, 13, 54, 0
18, 58260, Note_on_c, 13, 57, 100
18, 58290, Note_on_c, 13, 57, 0
18, 58290, Note_on_c, 13, 55, 100
18, 58320, Note_on_c, 13, 55, 0
18, 58320, Note_on_c, 13, 54, 100
18, 58350, Note_on_c, 13, 54, 0
18, 58350, Note_on_c, 13, 52, 100
18, 58380, Note_on_c, 13, 52, 0
18, 58380, Note_on_c, 13, 59, 100
18, 58440, Note_on_c, 13, 59, 0
18, 58440, Note_on_c, 13, 47, 100
18, 58500, Note_on_c, 13, 47, 0
18, 58500, Note_on_c, 13, 45, 100
18, 58560, Note_on_c, 13, 45, 0
18, 58560, Note_on_c, 13, 43, 100
18, 58620, Note_on_c, 13, 43, 0
18, 58620, Note_on_c, 13, 42, 100
18, 58680, Note_on_c, 13, 42, 0
18, 58680, Note_on_c, 13, 52, 100
18, 58710, Note_on_c, 13, 52, 0
18, 58710, Note_on_c, 13, 50, 100
18, 58740, Note_on_c, 13, 50, 0
18, 58740, Note_on_c, 13, 54, 100
18, 58770, Note_on_c, 13, 54, 0
18, 58770, Note_on_c, 13, 52, 100
18, 58800, Note_on_c, 13, 52, 0
18, 58800, Note_on_c, 13, 50, 100
18, 58830, Note_on_c, 13, 50, 0
18, 58830, Note_on_c, 13, 49, 100
18, 58860, Note_on_c, 13, 49, 0
18, 58860, Note_on_c, 13, 50, 100
18, 58920, Note_on_c, 13, 50, 0
18, 58920, Note_on_c, 13, 54, 100
18, 58980, Note_on_c, 13, 54, 0
18, 58980, Note_on_c, 13, 56, 100
18, 59040, Note_on_c, 13, 56, 0
18, 59040, Note_on_c, 13, 52, 100
18, 59100, Note_on_c, 13, 52, 0
18, 59100, Note_on_c, 13, 45, 100
18, 59130, Note_on_c, 13, 45, 0
18, 59130, Note_on_c, 13, 49, 100
18, 59160, Note_on_c, 13, 49, 0
18, 59160, Note_on_c, 13, 54, 100
18, 59190, Note_on_c, 13, 54, 0
18, 59190, Note_on_c, 13, 52, 100
18, 59220, Note_on_c, 13, 52, 0
18, 59220, Note_on_c, 13, 50, 100
18, 59250, Note_on_c, 13, 50, 0
18, 59250, Note_on_c, 13, 49, 100
18, 59280, Note_on_c, 13, 49, 0
18, 59280, Note_on_c, 13, 47, 100
18, 59310, Note_on_c, 13, 47, 0
18, 59310, Note_on_c, 13, 45, 100
18, 59340, Note_on_c, 13, 45, 0
18, 59340, Note_on_c, 13, 44, 100
18, 59460, Note_on_c, 13, 44, 0
18, 59490, Note_on_c, 13, 49, 100
18, 59520, Note_on_c, 13, 49, 0
18, 59520, Note_on_c, 13, 51, 100
18, 59550, Note_on_c, 13, 51, 0
18, 59550, Note_on_c, 13, 53, 100
18, 59580, Note_on_c, 13, 53, 0
18, 59580, Note_on_c, 13, 54, 100
18, 59700, Note_on_c, 13, 54, 0
18, 59730, Note_on_c, 13, 49, 100
18, 59760, Note_on_c, 13, 49, 0
18, 59760, Note_on_c, 13, 50, 100
18, 59790, Note_on_c, 13, 50, 0
18, 59790, Note_on_c, 13, 52, 100
18, 59820, Note_on_c, 13, 52, 0
18, 59820, Note_on_c, 13, 46, 100
18, 59940, Note_on_c, 13, 46, 0
18, 60000, Note_on_c, 13, 42, 100
18, 60060, Note_on_c, 13, 42, 0
18, 60060, Note_on_c, 13, 47, 100
18, 60180, Note_on_c, 13, 47, 0
18, 60210, Note_on_c, 13, 47, 100
18, 60240, Note_on_c, 13, 47, 0
18, 60240, Note_on_c, 13, 49, 100
18, 60270, Note_on_c, 13, 49, 0
18, 60270, Note_on_c, 13, 50, 100
18, 60300, Note_on_c, 13, 50, 0
18, 60300, Note_on_c, 13, 44, 100
18, 60420, Note_on_c, 13, 44, 0
18, 60480, Note_on_c, 13, 44, 100
18, 60540, Note_on_c, 13, 44, 0
18, 60540, Note_on_c, 13, 49, 100
18, 60660, Note_on_c, 13, 49, 0
18, 60690, Note_on_c, 13, 50, 100
18, 60720, Note_on_c, 13, 50, 0
18, 60720, Note_on_c, 13, 49, 100
18, 60750, Note_on_c, 13, 49, 0
18, 60750, Note_on_c, 13, 47, 100
18, 60780, Note_on_c, 13, 47, 0
18, 60780, Note_on_c, 13, 45, 100
18, 60840, Note_on_c, 13, 45, 0
18, 60840, Note_on_c, 13, 42, 100
18, 60900, Note_on_c, 13, 42, 0
18, 60900, Note_on_c, 13, 49, 100
18, 60960, Note_on_c, 13, 49, 0
18, 60960, Note_on_c, 13, 37, 100
18, 61020, Note_on_c, 13, 37, 0
18, 61020, Control_c, 13, 0, 0
18, 61020, Note_on_c, 13, 54, 90
18, 61080, Note_on_c, 13, 54, 0
18, 61080, Note_on_c, 13, 54, 90
18, 61140, Note_on_c, 13, 54, 0
18, 61140, Note_on_c, 13, 54, 90
18, 61200, Note_on_c, 13, 54, 0
18, 61200, Note_on_c, 13, 54, 90
18, 61260, Note_on_c, 13, 54, 0
18, 61260, Note_on_c, 13, 54, 90
18, 61320, Note_on_c, 13, 54, 0
18, 61320, Note_on_c, 13, 53, 90
18, 61350, Note_on_c, 13, 53, 0
18, 61350, Note_on_c, 13, 51, 90
18, 61380, Note_on_c, 13, 51, 0
18, 61380, Note_on_c, 13, 49, 90
18, 61440, Note_on_c, 13, 49, 0
18, 61440, Note_on_c, 13, 47, 90
18, 61500, Note_on_c, 13, 47, 0
18, 61500, Note_on_c, 13, 45, 90
18, 61530, Note_on_c, 13, 45, 0
18, 61530, Note_on_c, 13, 44, 90
18, 61560, Note_on_c, 13, 44, 0
18, 61560, Note_on_c, 13, 42, 90
18, 61590, Note_on_c, 13, 42, 0
18, 61590, Note_on_c, 13, 44, 90
18, 61620, Note_on_c, 13, 44, 0
18, 61620, Note_on_c, 13, 45, 90
18, 61650, Note_on_c, 13, 45, 0
18, 61650, Note_on_c, 13, 44, 90
18, 61680, Note_on_c, 13, 44, 0
18, 61680, Note_on_c, 13, 45, 90
18, 61710, Note_on_c, 13, 45, 0
18, 61710, Note_on_c, 13, 47, 90
18, 61740, Note_on_c, 13, 47, 0
18, 61740, Note_on_c, 13, 49, 90
18, 61770, Note_on_c, 13, 49, 0
18, 61770, Note_on_c, 13, 47, 90
18, 61800, Note_on_c, 13, 47, 0
18, 61800, Note_on_c, 13, 49, 90
18, 61830, Note_on_c, 13, 49, 0
18, 61830, Note_on_c, 13, 51, 90
18, 61860, Note_on_c, 13, 51, 0
18, 61860, Note_on_c, 13, 53, 90
18, 61890, Note_on_c, 13, 53, 0
18, 61890, Note_on_c, 13, 49, 90
18, 61920, Note_on_c, 13, 49, 0
18, 61920, Note_on_c, 13, 51, 90
18, 61950, Note_on_c, 13, 51, 0
18, 61950, Note_on_c, 13, 53, 90
18, 61980, Note_on_c, 13, 53, 0
18, 61980, Note_on_c, 13, 54, 90
18, 62040, Note_on_c, 13, 54, 0
18, 62040, Note_on_c, 13, 42, 90
18, 62100, Note_on_c, 13, 42, 0
18, 62100, Note_on_c, 13, 42, 90
18, 62160, Note_on_c, 13, 42, 0
18, 62160, Note_on_c, 13, 54, 90
18, 62220, Note_on_c, 13, 54, 0
18, 62220, Note_on_c, 13, 49, 90
18, 62280, Note_on_c, 13, 49, 0
18, 62280, Note_on_c, 13, 61, 90
18, 62340, Note_on_c, 13, 61, 0
18, 62340, Note_on_c, 13, 61, 90
18, 62400, Note_on_c, 13, 61, 0
18, 62400, Note_on_c, 13, 49, 90
18, 62460, Note_on_c, 13, 49, 0
18, 62460, Note_on_c, 13, 42, 90
18, 62520, Note_on_c, 13, 42, 0
18, 62520, Note_on_c, 13, 54, 90
18, 62580, Note_on_c, 13, 54, 0
18, 62580, Note_on_c, 13, 53, 90
18, 62640, Note_on_c, 13, 53, 0
18, 62640, Note_on_c, 13, 54, 90
18, 62700, Note_on_c, 13, 54, 0
18, 62700, Note_on_c, 13, 61, 90
18, 62760, Note_on_c, 13, 61, 0
18, 62760, Note_on_c, 13, 49, 90
18, 62790, Note_on_c, 13, 49, 0
18, 62790, Note_on_c, 13, 51, 90
18, 62820, Note_on_c, 13, 51, 0
18, 62820, Note_on_c, 13, 53, 90
18, 62850, Note_on_c, 13, 53, 0
18, 62850, Note_on_c, 13, 49, 90
18, 62880, Note_on_c, 13, 49, 0
18, 62880, Note_on_c, 13, 51, 90
18, 62910, Note_on_c, 13, 51, 0
18, 62910, Note_on_c, 13, 53, 90
18, 62940, Note_on_c, 13, 53, 0
18, 62940, Note_on_c, 13, 54, 90
18, 62970, Note_on_c, 13, 54, 0
18, 62970, Note_on_c, 13, 53, 90
18, 63000, Note_on_c, 13, 53, 0
18, 63000, Note_on_c, 13, 54, 90
18, 63030, Note_on_c, 13, 54, 0
18, 63030, Note_on_c, 13, 56, 90
18, 63060, Note_on_c, 13, 56, 0
18, 63060, Note_on_c, 13, 57, 90
18, 63090, Note_on_c, 13, 57, 0
18, 63090, Note_on_c, 13, 56, 90
18, 63120, Note_on_c, 13, 56, 0
18, 63120, Note_on_c, 13, 57, 90
18, 63150, Note_on_c, 13, 57, 0
18, 63150, Note_on_c, 13, 59, 90
18, 63180, Note_on_c, 13, 59, 0
18, 63180, Note_on_c, 13, 61, 90
18, 63240, Note_on_c, 13, 61, 0
18, 63240, Note_on_c, 13, 37, 90
18, 63270, Note_on_c, 13, 37, 0
18, 63270, Note_on_c, 13, 39, 90
18, 63300, Note_on_c, 13, 39, 0
18, 63300, Note_on_c, 13, 41, 90
18, 63330, Note_on_c, 13, 41, 0
18, 63330, Note_on_c, 13, 37, 90
18, 63360, Note_on_c, 13, 37, 0
18, 63360, Note_on_c, 13, 39, 90
18, 63390, Note_on_c, 13, 39, 0
18, 63390, Note_on_c, 13, 41, 90
18, 63420, Note_on_c, 13, 41, 0
18, 63420, Note_on_c, 13, 42, 90
18, 63450, Note_on_c, 13, 42, 0
18, 63450, Note_on_c, 13, 40, 90
18, 63480, Note_on_c, 13, 40, 0
18, 63480, Note_on_c, 13, 38, 90
18, 63510, Note_on_c, 13, 38, 0
18, 63510, Note_on_c, 13, 40, 90
18, 63540, Note_on_c, 13, 40, 0
18, 63540, Note_on_c, 13, 42, 90
18, 63570, Note_on_c, 13, 42, 0
18, 63570, Note_on_c, 13, 38, 90
18, 63600, Note_on_c, 13, 38, 0
18, 63600, Note_on_c, 13, 40, 90
18, 63630, Note_on_c, 13, 40, 0
18, 63630, Note_on_c, 13, 42, 90
18, 63660, Note_on_c, 13, 42, 0
18, 63660, Note_on_c, 13, 44, 90
18, 63690, Note_on_c, 13, 44, 0
18, 63690, Note_on_c, 13, 42, 90
18, 63720, Note_on_c, 13, 42, 0
18, 63720, Note_on_c, 13, 40, 90
18, 63750, Note_on_c, 13, 40, 0
18, 63750, Note_on_c, 13, 42, 90
18, 63780, Note_on_c, 13, 42, 0
18, 63780, Note_on_c, 13, 44, 90
18, 63810, Note_on_c, 13, 44, 0
18, 63810, Note_on_c, 13, 40, 90
18, 63840, Note_on_c, 13, 40, 0
18, 63840, Note_on_c, 13, 42, 90
18, 63870, Note_on_c, 13, 42, 0
18, 63870, Note_on_c, 13, 44, 90
18, 63900, Note_on_c, 13, 44, 0
18, 63900, Note_on_c, 13, 45, 90
18, 63930, Note_on_c, 13, 45, 0
18, 63930, Note_on_c, 13, 44, 90
18, 63960, Note_on_c, 13, 44, 0
18, 63960, Note_on_c, 13, 42, 90
18, 63990, Note_on_c, 13, 42, 0
18, 63990, Note_on_c, 13, 44, 90
18, 64020, Note_on_c, 13, 44, 0
18, 64020, Note_on_c, 13, 45, 90
18, 64050, Note_on_c, 13, 45, 0
18, 64050, Note_on_c, 13, 42, 90
18, 64080, Note_on_c, 13, 42, 0
18, 64080, Note_on_c, 13, 44, 90
18, 64110, Note_on_c, 13, 44, 0
18, 64110, Note_on_c, 13, 45, 90
18, 64140, Note_on_c, 13, 45, 0
18, 64140, Note_on_c, 13, 47, 90
18, 64170, Note_on_c, 13, 47, 0
18, 64170, Note_on_c, 13, 45, 90
18, 64200, Note_on_c, 13, 45, 0
18, 64200, Note_on_c, 13, 44, 90
18, 64230, Note_on_c, 13, 44, 0
18, 64230, Note_on_c, 13, 45, 90
18, 64260, Note_on_c, 13, 45, 0
18, 64260, Note_on_c, 13, 47, 90
18, 64290, Note_on_c, 13, 47, 0
18, 64290, Note_on_c, 13, 44, 90
18, 64320, Note_on_c, 13, 44, 0
18, 64320, Note_on_c, 13, 45, 90
18, 64350, Note_on_c, 13, 45, 0
18, 64350, Note_on_c, 13, 47, 90
18, 64380, Note_on_c, 13, 47, 0
18, 64380, Note_on_c, 13, 49, 90
18, 64410, Note_on_c, 13, 49, 0
18, 64410, Note_on_c, 13, 47, 90
18, 64440, Note_on_c, 13, 47, 0
18, 64440, Note_on_c, 13, 45, 90
18, 64470, Note_on_c, 13, 45, 0
18, 64470, Note_on_c, 13, 47, 90
18, 64500, Note_on_c, 13, 47, 0
18, 64500, Note_on_c, 13, 49, 90
18, 64530, Note_on_c, 13, 49, 0
18, 64530, Note_on_c, 13, 45, 90
18, 64560, Note_on_c, 13, 45, 0
18, 64560, Note_on_c, 13, 47, 90
18, 64590, Note_on_c, 13, 47, 0
18, 64590, Note_on_c, 13, 49, 90
18, 64620, Note_on_c, 13, 49, 0
18, 64620, Note_on_c, 13, 50, 90
18, 64650, Note_on_c, 13, 50, 0
18, 64650, Note_on_c, 13, 49, 90
18, 64680, Note_on_c, 13, 49, 0
18, 64680, Note_on_c, 13, 47, 90
18, 64710, Note_on_c, 13, 47, 0
18, 64710, Note_on_c, 13, 49, 90
18, 64740, Note_on_c, 13, 49, 0
18, 64740, Note_on_c, 13, 50, 90
18, 64770, Note_on_c, 13, 50, 0
18, 64770, Note_on_c, 13, 47, 90
18, 64800, Note_on_c, 13, 47, 0
18, 64800, Note_on_c, 13, 49, 90
18, 64830, Note_on_c, 13, 49, 0
18, 64830, Note_on_c, 13, 50, 90
18, 64860, Note_on_c, 13, 50, 0
18, 64860, Note_on_c, 13, 52, 90
18, 64890, Note_on_c, 13, 52, 0
18, 64890, Note_on_c, 13, 50, 90
18, 64920, Note_on_c, 13, 50, 0
18, 64920, Note_on_c, 13, 49, 90
18, 64950, Note_on_c, 13, 49, 0
18, 64950, Note_on_c, 13, 50, 90
18, 64980, Note_on_c, 13, 50, 0
18, 64980, Note_on_c, 13, 52, 90
18, 65010, Note_on_c, 13, 52, 0
18, 65010, Note_on_c, 13, 49, 90
18, 65040, Note_on_c, 13, 49, 0
18, 65040, Note_on_c, 13, 50, 90
18, 65070, Note_on_c, 13, 50, 0
18, 65070, Note_on_c, 13, 52, 90
18, 65100, Note_on_c, 13, 52, 0
18, 65100, Note_on_c, 13, 54, 90
18, 65160, Note_on_c, 13, 54, 0
18, 65160, Note_on_c, 13, 52, 90
18, 65190, Note_on_c, 13, 52, 0
18, 65190, Note_on_c, 13, 51, 90
18, 65220, Note_on_c, 13, 51, 0
18, 65220, Note_on_c, 13, 52, 90
18, 65280, Note_on_c, 13, 52, 0
18, 65280, Note_on_c, 13, 40, 90
18, 65340, Note_on_c, 13, 40, 0
18, 65340, Note_on_c, 13, 57, 90
18, 65400, Note_on_c, 13, 57, 0
18, 65400, Note_on_c, 13, 57, 90
18, 65460, Note_on_c, 13, 57, 0
18, 65460, Note_on_c, 13, 57, 90
18, 65520, Note_on_c, 13, 57, 0
18, 65520, Note_on_c, 13, 57, 90
18, 65580, Note_on_c, 13, 57, 0
18, 65580, Note_on_c, 13, 57, 90
18, 65640, Note_on_c, 13, 57, 0
18, 65640, Note_on_c, 13, 56, 90
18, 65670, Note_on_c, 13, 56, 0
18, 65670, Note_on_c, 13, 54, 90
18, 65700, Note_on_c, 13, 54, 0
18, 65700, Note_on_c, 13, 52, 90
18, 65760, Note_on_c, 13, 52, 0
18, 65760, Note_on_c, 13, 50, 90
18, 65820, Note_on_c, 13, 50, 0
18, 65820, Note_on_c, 13, 49, 90
18, 65850, Note_on_c, 13, 49, 0
18, 65850, Note_on_c, 13, 47, 90
18, 65880, Note_on_c, 13, 47, 0
18, 65880, Note_on_c, 13, 45, 90
18, 65910, Note_on_c, 13, 45, 0
18, 65910, Note_on_c, 13, 47, 90
18, 65940, Note_on_c, 13, 47, 0
18, 65940, Note_on_c, 13, 49, 90
18, 65970, Note_on_c, 13, 49, 0
18, 65970, Note_on_c, 13, 47, 90
18, 66000, Note_on_c, 13, 47, 0
18, 66000, Note_on_c, 13, 49, 90
18, 66030, Note_on_c, 13, 49, 0
18, 66030, Note_on_c, 13, 50, 90
18, 66060, Note_on_c, 13, 50, 0
18, 66060, Note_on_c, 13, 52, 90
18, 66090, Note_on_c, 13, 52, 0
18, 66090, Note_on_c, 13, 47, 90
18, 66120, Note_on_c, 13, 47, 0
18, 66120, Note_on_c, 13, 49, 90
18, 66150, Note_on_c, 13, 49, 0
18, 66150, Note_on_c, 13, 51, 90
18, 66180, Note_on_c, 13, 51, 0
18, 66180, Note_on_c, 13, 52, 90
18, 66210, Note_on_c, 13, 52, 0
18, 66210, Note_on_c, 13, 51, 90
18, 66240, Note_on_c, 13, 51, 0
18, 66240, Note_on_c, 13, 52, 90
18, 66270, Note_on_c, 13, 52, 0
18, 66270, Note_on_c, 13, 54, 90
18, 66300, Note_on_c, 13, 54, 0
18, 66300, Note_on_c, 13, 56, 90
18, 66330, Note_on_c, 13, 56, 0
18, 66330, Note_on_c, 13, 54, 90
18, 66360, Note_on_c, 13, 54, 0
18, 66360, Note_on_c, 13, 52, 90
18, 66390, Note_on_c, 13, 52, 0
18, 66390, Note_on_c, 13, 54, 90
18, 66420, Note_on_c, 13, 54, 0
18, 66420, Note_on_c, 13, 56, 90
18, 66450, Note_on_c, 13, 56, 0
18, 66450, Note_on_c, 13, 54, 90
18, 66480, Note_on_c, 13, 54, 0
18, 66480, Note_on_c, 13, 56, 90
18, 66510, Note_on_c, 13, 56, 0
18, 66510, Note_on_c, 13, 58, 90
18, 66540, Note_on_c, 13, 58, 0
18, 66540, Note_on_c, 13, 59, 90
18, 66600, Note_on_c, 13, 59, 0
18, 66600, Note_on_c, 13, 58, 90
18, 66630, Note_on_c, 13, 58, 0
18, 66630, Note_on_c, 13, 56, 90
18, 66660, Note_on_c, 13, 56, 0
18, 66660, Note_on_c, 13, 54, 90
18, 66720, Note_on_c, 13, 54, 0
18, 66720, Note_on_c, 13, 52, 90
18, 66780, Note_on_c, 13, 52, 0
18, 66780, Note_on_c, 13, 50, 90
18, 66840, Note_on_c, 13, 50, 0
18, 66840, Note_on_c, 13, 47, 90
18, 66900, Note_on_c, 13, 47, 0
18, 66930, Note_on_c, 13, 47, 90
18, 66960, Note_on_c, 13, 47, 0
18, 66960, Note_on_c, 13, 45, 90
18, 66990, Note_on_c, 13, 45, 0
18, 66990, Note_on_c, 13, 44, 90
18, 67020, Note_on_c, 13, 44, 0
18, 67020, Note_on_c, 13, 42, 90
18, 67080, Note_on_c, 13, 42, 0
18, 67080, Note_on_c, 13, 54, 90
18, 67140, Note_on_c, 13, 54, 0
18, 67170, Note_on_c, 13, 59, 90
18, 67200, Note_on_c, 13, 59, 0
18, 67200, Note_on_c, 13, 57, 90
18, 67230, Note_on_c, 13, 57, 0
18, 67230, Note_on_c, 13, 56, 90
18, 67260, Note_on_c, 13, 56, 0
18, 67260, Note_on_c, 13, 54, 90
18, 67290, Note_on_c, 13, 54, 0
18, 67290, Note_on_c, 13, 53, 90
18, 67320, Note_on_c, 13, 53, 0
18, 67320, Note_on_c, 13, 54, 90
18, 67380, Note_on_c, 13, 54, 0
18, 67380, Note_on_c, 13, 42, 90
18, 67440, Note_on_c, 13, 42, 0
18, 67440, Note_on_c, 13, 54, 90
18, 67500, Note_on_c, 13, 54, 0
18, 67500, Note_on_c, 13, 49, 90
18, 67980, Note_on_c, 13, 49, 0
18, 68040, Note_on_c, 13, 37, 90
18, 68070, Note_on_c, 13, 37, 0
18, 68070, Note_on_c, 13, 39, 90
18, 68100, Note_on_c, 13, 39, 0
18, 68100, Note_on_c, 13, 41, 90
18, 68130, Note_on_c, 13, 41, 0
18, 68130, Note_on_c, 13, 37, 90
18, 68160, Note_on_c, 13, 37, 0
18, 68160, Note_on_c, 13, 39, 90
18, 68190, Note_on_c, 13, 39, 0
18, 68190, Note_on_c, 13, 41, 90
18, 68220, Note_on_c, 13, 41, 0
18, 68220, Note_on_c, 13, 42, 90
18, 68250, Note_on_c, 13, 42, 0
18, 68250, Note_on_c, 13, 40, 90
18, 68280, Note_on_c, 13, 40, 0
18, 68280, Note_on_c, 13, 38, 90
18, 68310, Note_on_c, 13, 38, 0
18, 68310, Note_on_c, 13, 40, 90
18, 68340, Note_on_c, 13, 40, 0
18, 68340, Note_on_c, 13, 42, 90
18, 68370, Note_on_c, 13, 42, 0
18, 68370, Note_on_c, 13, 38, 90
18, 68400, Note_on_c, 13, 38, 0
18, 68400, Note_on_c, 13, 40, 90
18, 68430, Note_on_c, 13, 40, 0
18, 68430, Note_on_c, 13, 42, 90
18, 68460, Note_on_c, 13, 42, 0
18, 68460, Note_on_c, 13, 44, 90
18, 68490, Note_on_c, 13, 44, 0
18, 68490, Note_on_c, 13, 42, 90
18, 68520, Note_on_c, 13, 42, 0
18, 68520, Note_on_c, 13, 40, 90
18, 68550, Note_on_c, 13, 40, 0
18, 68550, Note_on_c, 13, 42, 90
18, 68580, Note_on_c, 13, 42, 0
18, 68580, Note_on_c, 13, 44, 90
18, 68610, Note_on_c, 13, 44, 0
18, 68610, Note_on_c, 13, 40, 90
18, 68640, Note_on_c, 13, 40, 0
18, 68640, Note_on_c, 13, 42, 90
18, 68670, Note_on_c, 13, 42, 0
18, 68670, Note_on_c, 13, 44, 90
18, 68700, Note_on_c, 13, 44, 0
18, 68700, Note_on_c, 13, 45, 90
18, 68730, Note_on_c, 13, 45, 0
18, 68730, Note_on_c, 13, 44, 90
18, 68760, Note_on_c, 13, 44, 0
18, 68760, Note_on_c, 13, 42, 90
18, 68790, Note_on_c, 13, 42, 0
18, 68790, Note_on_c, 13, 44, 90
18, 68820, Note_on_c, 13, 44, 0
18, 68820, Note_on_c, 13, 45, 90
18, 68850, Note_on_c, 13, 45, 0
18, 68850, Note_on_c, 13, 42, 90
18, 68880, Note_on_c, 13, 42, 0
18, 68880, Note_on_c, 13, 44, 90
18, 68910, Note_on_c, 13, 44, 0
18, 68910, Note_on_c, 13, 45, 90
18, 68940, Note_on_c, 13, 45, 0
18, 68940, Note_on_c, 13, 47, 90
18, 68970, Note_on_c, 13, 47, 0
18, 68970, Note_on_c, 13, 45, 90
18, 69000, Note_on_c, 13, 45, 0
18, 69000, Note_on_c, 13, 43, 90
18, 69030, Note_on_c, 13, 43, 0
18, 69030, Note_on_c, 13, 45, 90
18, 69060, Note_on_c, 13, 45, 0
18, 69060, Note_on_c, 13, 47, 90
18, 69090, Note_on_c, 13, 47, 0
18, 69090, Note_on_c, 13, 43, 90
18, 69120, Note_on_c, 13, 43, 0
18, 69120, Note_on_c, 13, 45, 90
18, 69150, Note_on_c, 13, 45, 0
18, 69150, Note_on_c, 13, 47, 90
18, 69180, Note_on_c, 13, 47, 0
18, 69180, Note_on_c, 13, 49, 90
18, 69210, Note_on_c, 13, 49, 0
18, 69210, Note_on_c, 13, 47, 90
18, 69240, Note_on_c, 13, 47, 0
18, 69240, Note_on_c, 13, 45, 90
18, 69270, Note_on_c, 13, 45, 0
18, 69270, Note_on_c, 13, 47, 90
18, 69300, Note_on_c, 13, 47, 0
18, 69300, Note_on_c, 13, 49, 90
18, 69330, Note_on_c, 13, 49, 0
18, 69330, Note_on_c, 13, 45, 90
18, 69360, Note_on_c, 13, 45, 0
18, 69360, Note_on_c, 13, 47, 90
18, 69390, Note_on_c, 13, 47, 0
18, 69390, Note_on_c, 13, 49, 90
18, 69420, Note_on_c, 13, 49, 0
18, 69420, Note_on_c, 13, 50, 90
18, 69450, Note_on_c, 13, 50, 0
18, 69450, Note_on_c, 13, 49, 90
18, 69480, Note_on_c, 13, 49, 0
18, 69480, Note_on_c, 13, 47, 90
18, 69510, Note_on_c, 13, 47, 0
18, 69510, Note_on_c, 13, 49, 90
18, 69540, Note_on_c, 13, 49, 0
18, 69540, Note_on_c, 13, 50, 90
18, 69570, Note_on_c, 13, 50, 0
18, 69570, Note_on_c, 13, 47, 90
18, 69600, Note_on_c, 13, 47, 0
18, 69600, Note_on_c, 13, 49, 90
18, 69630, Note_on_c, 13, 49, 0
18, 69630, Note_on_c, 13, 50, 90
18, 69660, Note_on_c, 13, 50, 0
18, 69660, Note_on_c, 13, 52, 90
18, 69690, Note_on_c, 13, 52, 0
18, 69690, Note_on_c, 13, 50, 90
18, 69720, Note_on_c, 13, 50, 0
18, 69720, Note_on_c, 13, 49, 90
18, 69750, Note_on_c, 13, 49, 0
18, 69750, Note_on_c, 13, 50, 90
18, 69780, Note_on_c, 13, 50, 0
18, 69780, Note_on_c, 13, 52, 90
18, 69810, Note_on_c, 13, 52, 0
18, 69810, Note_on_c, 13, 49, 90
18, 69840, Note_on_c, 13, 49, 0
18, 69840, Note_on_c, 13, 50, 90
18, 69870, Note_on_c, 13, 50, 0
18, 69870, Note_on_c, 13, 52, 90
18, 69900, Note_on_c, 13, 52, 0
18, 69900, Note_on_c, 13, 54, 90
18, 69930, Note_on_c, 13, 54, 0
18, 69930, Note_on_c, 13, 52, 90
18, 69960, Note_on_c, 13, 52, 0
18, 69960, Note_on_c, 13, 51, 90
18, 69990, Note_on_c, 13, 51, 0
18, 69990, Note_on_c, 13, 52, 90
18, 70020, Note_on_c, 13, 52, 0
18, 70020, Note_on_c, 13, 54, 90
18, 70050, Note_on_c, 13, 54, 0
18, 70050, Note_on_c, 13, 51, 90
18, 70080, Note_on_c, 13, 51, 0
18, 70080, Note_on_c, 13, 52, 90
18, 70110, Note_on_c, 13, 52, 0
18, 70110, Note_on_c, 13, 54, 90
18, 70140, Note_on_c, 13, 54, 0
18, 70140, Note_on_c, 13, 56, 90
18, 70170, Note_on_c, 13, 56, 0
18, 70170, Note_on_c, 13, 54, 90
18, 70200, Note_on_c, 13, 54, 0
18, 70200, Note_on_c, 13, 52, 90
18, 70230, Note_on_c, 13, 52, 0
18, 70230, Note_on_c, 13, 54, 90
18, 70260, Note_on_c, 13, 54, 0
18, 70260, Note_on_c, 13, 56, 90
18, 70290, Note_on_c, 13, 56, 0
18, 70290, Note_on_c, 13, 52, 90
18, 70320, Note_on_c, 13, 52, 0
18, 70320, Note_on_c, 13, 54, 90
18, 70350, Note_on_c, 13, 54, 0
18, 70350, Note_on_c, 13, 56, 90
18, 70380, Note_on_c, 13, 56, 0
18, 70380, Note_on_c, 13, 57, 90
18, 70440, Note_on_c, 13, 57, 0
18, 70440, Note_on_c, 13, 56, 90
18, 70470, Note_on_c, 13, 56, 0
18, 70470, Note_on_c, 13, 54, 90
18, 70500, Note_on_c, 13, 54, 0
18, 70500, Note_on_c, 13, 56, 90
18, 70560, Note_on_c, 13, 56, 0
18, 70560, Note_on_c, 13, 44, 90
18, 70620, Note_on_c, 13, 44, 0
18, 70620, Note_on_c, 13, 37, 90
18, 70740, Note_on_c, 13, 37, 0
18, 70860, Note_on_c, 13, 37, 90
18, 70980, Note_on_c, 13, 37, 0
18, 71100, Note_on_c, 13, 37, 90
18, 71220, Note_on_c, 13, 37, 0
18, 71340, Note_on_c, 13, 37, 90
18, 71460, Note_on_c, 13, 37, 0
18, 71580, Note_on_c, 13, 37, 90
18, 71700, Note_on_c, 13, 37, 0
18, 71820, Note_on_c, 13, 37, 90
18, 71940, Note_on_c, 13, 37, 0
18, 72060, Note_on_c, 13, 37, 90
18, 72300, Note_on_c, 13, 37, 0
18, 72540, Note_on_c, 13, 54, 90
18, 72600, Note_on_c, 13, 54, 0
18, 72600, Note_on_c, 13, 54, 90
18, 72660, Note_on_c, 13, 54, 0
18, 72660, Note_on_c, 13, 54, 90
18, 72720, Note_on_c, 13, 54, 0
18, 72720, Note_on_c, 13, 54, 90
18, 72780, Note_on_c, 13, 54, 0
18, 72780, Note_on_c, 13, 54, 90
18, 72840, Note_on_c, 13, 54, 0
18, 72840, Note_on_c, 13, 53, 90
18, 72870, Note_on_c, 13, 53, 0
18, 72870, Note_on_c, 13, 51, 90
18, 72900, Note_on_c, 13, 51, 0
18, 72900, Note_on_c, 13, 49, 90
18, 72960, Note_on_c, 13, 49, 0
18, 72960, Note_on_c, 13, 47, 90
18, 73020, Note_on_c, 13, 47, 0
18, 73020, Note_on_c, 13, 45, 90
18, 73050, Note_on_c, 13, 45, 0
18, 73050, Note_on_c, 13, 44, 90
18, 73080, Note_on_c, 13, 44, 0
18, 73080, Note_on_c, 13, 42, 90
18, 73110, Note_on_c, 13, 42, 0
18, 73110, Note_on_c, 13, 44, 90
18, 73140, Note_on_c, 13, 44, 0
18, 73140, Note_on_c, 13, 45, 90
18, 73170, Note_on_c, 13, 45, 0
18, 73170, Note_on_c, 13, 44, 90
18, 73200, Note_on_c, 13, 44, 0
18, 73200, Note_on_c, 13, 45, 90
18, 73230, Note_on_c, 13, 45, 0
18, 73230, Note_on_c, 13, 47, 90
18, 73260, Note_on_c, 13, 47, 0
18, 73260, Note_on_c, 13, 49, 90
18, 73290, Note_on_c, 13, 49, 0
18, 73290, Note_on_c, 13, 47, 90
18, 73320, Note_on_c, 13, 47, 0
18, 73320, Note_on_c, 13, 49, 90
18, 73350, Note_on_c, 13, 49, 0
18, 73350, Note_on_c, 13, 51, 90
18, 73380, Note_on_c, 13, 51, 0
18, 73380, Note_on_c, 13, 53, 90
18, 73410, Note_on_c, 13, 53, 0
18, 73410, Note_on_c, 13, 51, 90
18, 73440, Note_on_c, 13, 51, 0
18, 73440, Note_on_c, 13, 53, 90
18, 73470, Note_on_c, 13, 53, 0
18, 73470, Note_on_c, 13, 49, 90
18, 73500, Note_on_c, 13, 49, 0
18, 73500, Note_on_c, 13, 54, 90
18, 73560, Note_on_c, 13, 54, 0
18, 73560, Note_on_c, 13, 47, 90
18, 73620, Note_on_c, 13, 47, 0
18, 73620, Note_on_c, 13, 49, 90
18, 73680, Note_on_c, 13, 49, 0
18, 73680, Note_on_c, 13, 37, 90
18, 73740, Note_on_c, 13, 37, 0
18, 73740, Note_on_c, 13, 42, 90
18, 73980, Note_on_c, 13, 42, 0
18, 74460, Control_c, 13, 0, 0
18, 74580, Note_on_c, 13, 57, 100
18, 74620, Note_on_c, 13, 57, 0
18, 74640, Note_on_c, 13, 57, 100
18, 74680, Note_on_c, 13, 57, 0
18, 74700, Note_on_c, 13, 57, 100
18, 74758, Note_on_c, 13, 57, 0
18, 74760, Note_on_c, 13, 56, 100
18, 74788, Note_on_c, 13, 56, 0
18, 74790, Note_on_c, 13, 57, 100
18, 74818, Note_on_c, 13, 57, 0
18, 74820, Note_on_c, 13, 59, 100
18, 74878, Note_on_c, 13, 59, 0
18, 74880, Note_on_c, 13, 50, 100
18, 74938, Note_on_c, 13, 50, 0
18, 74940, Note_on_c, 13, 49, 100
18, 75058, Note_on_c, 13, 49, 0
18, 75060, Note_on_c, 13, 61, 100
18, 75100, Note_on_c, 13, 61, 0
18, 75120, Note_on_c, 13, 61, 100
18, 75160, Note_on_c, 13, 61, 0
18, 75180, Note_on_c, 13, 61, 100
18, 75238, Note_on_c, 13, 61, 0
18, 75240, Note_on_c, 13, 59, 100
18, 75268, Note_on_c, 13, 59, 0
18, 75270, Note_on_c, 13, 61, 100
18, 75298, Note_on_c, 13, 61, 0
18, 75300, Note_on_c, 13, 62, 100
18, 75358, Note_on_c, 13, 62, 0
18, 75360, Note_on_c, 13, 54, 100
18, 75418, Note_on_c, 13, 54, 0
18, 75420, Note_on_c, 13, 52, 100
18, 75538, Note_on_c, 13, 52, 0
18, 75540, Note_on_c, 13, 61, 100
18, 75598, Note_on_c, 13, 61, 0
18, 75600, Note_on_c, 13, 52, 100
18, 75658, Note_on_c, 13, 52, 0
18, 75660, Note_on_c, 13, 50, 100
18, 75778, Note_on_c, 13, 50, 0
18, 75780, Note_on_c, 13, 59, 100
18, 75838, Note_on_c, 13, 59, 0
18, 75840, Note_on_c, 13, 50, 100
18, 75898, Note_on_c, 13, 50, 0
18, 75900, Note_on_c, 13, 49, 100
18, 76018, Note_on_c, 13, 49, 0
18, 76020, Note_on_c, 13, 57, 100
18, 76048, Note_on_c, 13, 57, 0
18, 76050, Note_on_c, 13, 56, 100
18, 76078, Note_on_c, 13, 56, 0
18, 76080, Note_on_c, 13, 54, 100
18, 76108, Note_on_c, 13, 54, 0
18, 76110, Note_on_c, 13, 52, 100
18, 76138, Note_on_c, 13, 52, 0
18, 76140, Note_on_c, 13, 50, 100
18, 76168, Note_on_c, 13, 50, 0
18, 76170, Note_on_c, 13, 49, 100
18, 76198, Note_on_c, 13, 49, 0
18, 76200, Note_on_c, 13, 47, 100
18, 76228, Note_on_c, 13, 47, 0
18, 76230, Note_on_c, 13, 45, 100
18, 76258, Note_on_c, 13, 45, 0
18, 76260, Note_on_c, 13, 52, 100
18, 76318, Note_on_c, 13, 52, 0
18, 76320, Note_on_c, 13, 40, 100
18, 76378, Note_on_c, 13, 40, 0
18, 76380, Note_on_c, 13, 45, 100
18, 76438, Note_on_c, 13, 45, 0
18, 76500, Note_on_c, 13, 49, 100
18, 76540, Note_on_c, 13, 49, 0
18, 76620, Note_on_c, 13, 52, 100
18, 76660, Note_on_c, 13, 52, 0
18, 76740, Note_on_c, 13, 40, 100
18, 76780, Note_on_c, 13, 40, 0
18, 76860, Note_on_c, 13, 45, 100
18, 76900, Note_on_c, 13, 45, 0
18, 76980, Note_on_c, 13, 61, 100
18, 77020, Note_on_c, 13, 61, 0
18, 77040, Note_on_c, 13, 61, 100
18, 77080, Note_on_c, 13, 61, 0
18, 77100, Note_on_c, 13, 61, 100
18, 77158, Note_on_c, 13, 61, 0
18, 77160, Note_on_c, 13, 59, 100
18, 77188, Note_on_c, 13, 59, 0
18, 77190, Note_on_c, 13, 61, 100
18, 77218, Note_on_c, 13, 61, 0
18, 77220, Note_on_c, 13, 62, 100
18, 77278, Note_on_c, 13, 62, 0
18, 77280, Note_on_c, 13, 54, 100
18, 77338, Note_on_c, 13, 54, 0
18, 77340, Note_on_c, 13, 52, 100
18, 77458, Note_on_c, 13, 52, 0
18, 77460, Note_on_c, 13, 61, 100
18, 77518, Note_on_c, 13, 61, 0
18, 77520, Note_on_c, 13, 52, 100
18, 77578, Note_on_c, 13, 52, 0
18, 77580, Note_on_c, 13, 50, 100
18, 77698, Note_on_c, 13, 50, 0
18, 77700, Note_on_c, 13, 59, 100
18, 77758, Note_on_c, 13, 59, 0
18, 77760, Note_on_c, 13, 50, 100
18, 77818, Note_on_c, 13, 50, 0
18, 77820, Note_on_c, 13, 49, 100
18, 77938, Note_on_c, 13, 49, 0
18, 77940, Note_on_c, 13, 57, 100
18, 77968, Note_on_c, 13, 57, 0
18, 77970, Note_on_c, 13, 56, 100
18, 77998, Note_on_c, 13, 56, 0
18, 78000, Note_on_c, 13, 54, 100
18, 78028, Note_on_c, 13, 54, 0
18, 78030, Note_on_c, 13, 52, 100
18, 78058, Note_on_c, 13, 52, 0
18, 78060, Note_on_c, 13, 50, 100
18, 78088, Note_on_c, 13, 50, 0
18, 78090, Note_on_c, 13, 49, 100
18, 78118, Note_on_c, 13, 49, 0
18, 78120, Note_on_c, 13, 47, 100
18, 78148, Note_on_c, 13, 47, 0
18, 78150, Note_on_c, 13, 45, 100
18, 78178, Note_on_c, 13, 45, 0
18, 78180, Note_on_c, 13, 52, 100
18, 78238, Note_on_c, 13, 52, 0
18, 78240, Note_on_c, 13, 40, 100
18, 78280, Note_on_c, 13, 40, 0
18, 78300, Note_on_c, 13, 45, 100
18, 78358, Note_on_c, 13, 45, 0
18, 78420, Note_on_c, 13, 49, 100
18, 78460, Note_on_c, 13, 49, 0
18, 78540, Note_on_c, 13, 52, 100
18, 78580, Note_on_c, 13, 52, 0
18, 78660, Note_on_c, 13, 40, 100
18, 78700, Note_on_c, 13, 40, 0
18, 78780, Note_on_c, 13, 45, 100
18, 78820, Note_on_c, 13, 45, 0
18, 78900, Note_on_c, 13, 61, 100
18, 78940, Note_on_c, 13, 61, 0
18, 78960, Note_on_c, 13, 61, 100
18, 79000, Note_on_c, 13, 61, 0
18, 79020, Note_on_c, 13, 61, 100
18, 79078, Note_on_c, 13, 61, 0
18, 79080, Note_on_c, 13, 59, 100
18, 79108, Note_on_c, 13, 59, 0
18, 79110, Note_on_c, 13, 61, 100
18, 79138, Note_on_c, 13, 61, 0
18, 79140, Note_on_c, 13, 62, 100
18, 79198, Note_on_c, 13, 62, 0
18, 79200, Note_on_c, 13, 54, 100
18, 79258, Note_on_c, 13, 54, 0
18, 79260, Note_on_c, 13, 52, 100
18, 79378, Note_on_c, 13, 52, 0
18, 79380, Note_on_c, 13, 61, 100
18, 79438, Note_on_c, 13, 61, 0
18, 79440, Note_on_c, 13, 52, 100
18, 79498, Note_on_c, 13, 52, 0
18, 79500, Note_on_c, 13, 50, 100
18, 79618, Note_on_c, 13, 50, 0
18, 79620, Note_on_c, 13, 59, 100
18, 79678, Note_on_c, 13, 59, 0
18, 79680, Note_on_c, 13, 50, 100
18, 79738, Note_on_c, 13, 50, 0
18, 79740, Note_on_c, 13, 49, 100
18, 79858, Note_on_c, 13, 49, 0
18, 79860, Note_on_c, 13, 57, 100
18, 79888, Note_on_c, 13, 57, 0
18, 79890, Note_on_c, 13, 56, 100
18, 79918, Note_on_c, 13, 56, 0
18, 79920, Note_on_c, 13, 54, 100
18, 79948, Note_on_c, 13, 54, 0
18, 79950, Note_on_c, 13, 52, 100
18, 79978, Note_on_c, 13, 52, 0
18, 79980, Note_on_c, 13, 51, 100
18, 80020, Note_on_c, 13, 51, 0
18, 80040, Note_on_c, 13, 52, 100
18, 80080, Note_on_c, 13, 52, 0
18, 80100, Note_on_c, 13, 59, 100
18, 80140, Note_on_c, 13, 59, 0
18, 80160, Note_on_c, 13, 47, 100
18, 80200, Note_on_c, 13, 47, 0
18, 80220, Note_on_c, 13, 40, 100
18, 80300, Note_on_c, 13, 40, 0
18, 80340, Note_on_c, 13, 52, 100
18, 80380, Note_on_c, 13, 52, 0
18, 80400, Note_on_c, 13, 52, 100
18, 80440, Note_on_c, 13, 52, 0
18, 80460, Note_on_c, 13, 52, 100
18, 80500, Note_on_c, 13, 52, 0
18, 80520, Note_on_c, 13, 51, 100
18, 80540, Note_on_c, 13, 51, 0
18, 80550, Note_on_c, 13, 52, 100
18, 80570, Note_on_c, 13, 52, 0
18, 80580, Note_on_c, 13, 54, 100
18, 80620, Note_on_c, 13, 54, 0
18, 80640, Note_on_c, 13, 45, 100
18, 80680, Note_on_c, 13, 45, 0
18, 80700, Note_on_c, 13, 44, 100
18, 80780, Note_on_c, 13, 44, 0
18, 80820, Note_on_c, 13, 56, 100
18, 80860, Note_on_c, 13, 56, 0
18, 80880, Note_on_c, 13, 56, 100
18, 80920, Note_on_c, 13, 56, 0
18, 80940, Note_on_c, 13, 56, 100
18, 80980, Note_on_c, 13, 56, 0
18, 81000, Note_on_c, 13, 54, 100
18, 81020, Note_on_c, 13, 54, 0
18, 81030, Note_on_c, 13, 56, 100
18, 81050, Note_on_c, 13, 56, 0
18, 81060, Note_on_c, 13, 57, 100
18, 81100, Note_on_c, 13, 57, 0
18, 81120, Note_on_c, 13, 49, 100
18, 81160, Note_on_c, 13, 49, 0
18, 81180, Note_on_c, 13, 47, 100
18, 81260, Note_on_c, 13, 47, 0
18, 81300, Note_on_c, 13, 56, 100
18, 81340, Note_on_c, 13, 56, 0
18, 81360, Note_on_c, 13, 47, 100
18, 81400, Note_on_c, 13, 47, 0
18, 81420, Note_on_c, 13, 45, 100
18, 81500, Note_on_c, 13, 45, 0
18, 81540, Note_on_c, 13, 54, 100
18, 81580, Note_on_c, 13, 54, 0
18, 81600, Note_on_c, 13, 45, 100
18, 81640, Note_on_c, 13, 45, 0
18, 81660, Note_on_c, 13, 44, 100
18, 81740, Note_on_c, 13, 44, 0
18, 81780, Note_on_c, 13, 52, 100
18, 81800, Note_on_c, 13, 52, 0
18, 81810, Note_on_c, 13, 51, 100
18, 81830, Note_on_c, 13, 51, 0
18, 81840, Note_on_c, 13, 49, 100
18, 81860, Note_on_c, 13, 49, 0
18, 81870, Note_on_c, 13, 47, 100
18, 81890, Note_on_c, 13, 47, 0
18, 81900, Note_on_c, 13, 45, 100
18, 81920, Note_on_c, 13, 45, 0
18, 81930, Note_on_c, 13, 44, 100
18, 81950, Note_on_c, 13, 44, 0
18, 81960, Note_on_c, 13, 42, 100
18, 81980, Note_on_c, 13, 42, 0
18, 81990, Note_on_c, 13, 40, 100
18, 82010, Note_on_c, 13, 40, 0
18, 82020, Note_on_c, 13, 47, 100
18, 82060, Note_on_c, 13, 47, 0
18, 82080, Note_on_c, 13, 47, 100
18, 82120, Note_on_c, 13, 47, 0
18, 82140, Note_on_c, 13, 40, 100
18, 82220, Note_on_c, 13, 40, 0
18, 82500, Note_on_c, 13, 54, 100
18, 82540, Note_on_c, 13, 54, 0
18, 82560, Note_on_c, 13, 54, 100
18, 82600, Note_on_c, 13, 54, 0
18, 82620, Note_on_c, 13, 54, 100
18, 82660, Note_on_c, 13, 54, 0
18, 82680, Note_on_c, 13, 53, 100
18, 82700, Note_on_c, 13, 53, 0
18, 82710, Note_on_c, 13, 54, 100
18, 82730, Note_on_c, 13, 54, 0
18, 82740, Note_on_c, 13, 56, 100
18, 82780, Note_on_c, 13, 56, 0
18, 82800, Note_on_c, 13, 47, 100
18, 82840, Note_on_c, 13, 47, 0
18, 82860, Note_on_c, 13, 45, 100
18, 82940, Note_on_c, 13, 45, 0
18, 82980, Note_on_c, 13, 57, 100
18, 83020, Note_on_c, 13, 57, 0
18, 83040, Note_on_c, 13, 57, 100
18, 83080, Note_on_c, 13, 57, 0
18, 83100, Note_on_c, 13, 57, 100
18, 83140, Note_on_c, 13, 57, 0
18, 83160, Note_on_c, 13, 56, 100
18, 83180, Note_on_c, 13, 56, 0
18, 83190, Note_on_c, 13, 57, 100
18, 83210, Note_on_c, 13, 57, 0
18, 83220, Note_on_c, 13, 59, 100
18, 83260, Note_on_c, 13, 59, 0
18, 83280, Note_on_c, 13, 50, 100
18, 83320, Note_on_c, 13, 50, 0
18, 83340, Note_on_c, 13, 49, 100
18, 83420, Note_on_c, 13, 49, 0
18, 83460, Note_on_c, 13, 57, 100
18, 83500, Note_on_c, 13, 57, 0
18, 83520, Note_on_c, 13, 49, 100
18, 83560, Note_on_c, 13, 49, 0
18, 83580, Note_on_c, 13, 47, 100
18, 83660, Note_on_c, 13, 47, 0
18, 83700, Note_on_c, 13, 56, 100
18, 83740, Note_on_c, 13, 56, 0
18, 83760, Note_on_c, 13, 47, 100
18, 83800, Note_on_c, 13, 47, 0
18, 83820, Note_on_c, 13, 45, 100
18, 83900, Note_on_c, 13, 45, 0
18, 83940, Note_on_c, 13, 54, 100
18, 83960, Note_on_c, 13, 54, 0
18, 83970, Note_on_c, 13, 52, 100
18, 83990, Note_on_c, 13, 52, 0
18, 84000, Note_on_c, 13, 50, 100
18, 84020, Note_on_c, 13, 50, 0
18, 84030, Note_on_c, 13, 49, 100
18, 84050, Note_on_c, 13, 49, 0
18, 84060, Note_on_c, 13, 47, 100
18, 84080, Note_on_c, 13, 47, 0
18, 84090, Note_on_c, 13, 45, 100
18, 84110, Note_on_c, 13, 45, 0
18, 84120, Note_on_c, 13, 44, 100
18, 84140, Note_on_c, 13, 44, 0
18, 84150, Note_on_c, 13, 42, 100
18, 84170, Note_on_c, 13, 42, 0
18, 84180, Note_on_c, 13, 49, 100
18, 84220, Note_on_c, 13, 49, 0
18, 84240, Note_on_c, 13, 37, 100
18, 84280, Note_on_c, 13, 37, 0
18, 84300, Note_on_c, 13, 42, 100
18, 84380, Note_on_c, 13, 42, 0
18, 84420, Note_on_c, 13, 54, 100
18, 84460, Note_on_c, 13, 54, 0
18, 84480, Note_on_c, 13, 45, 100
18, 84520, Note_on_c, 13, 45, 0
18, 84540, Note_on_c, 13, 44, 100
18, 84620, Note_on_c, 13, 44, 0
18, 84660, Note_on_c, 13, 52, 100
18, 84700, Note_on_c, 13, 52, 0
18, 84720, Note_on_c, 13, 44, 100
18, 84760, Note_on_c, 13, 44, 0
18, 84780, Note_on_c, 13, 42, 100
18, 84860, Note_on_c, 13, 42, 0
18, 84900, Note_on_c, 13, 51, 100
18, 84940, Note_on_c, 13, 51, 0
18, 84960, Note_on_c, 13, 42, 100
18, 85000, Note_on_c, 13, 42, 0
18, 85020, Note_on_c, 13, 40, 100
18, 85100, Note_on_c, 13, 40, 0
18, 85140, Note_on_c, 13, 61, 100
18, 85160, Note_on_c, 13, 61, 0
18, 85170, Note_on_c, 13, 59, 100
18, 85190, Note_on_c, 13, 59, 0
18, 85200, Note_on_c, 13, 57, 100
18, 85220, Note_on_c, 13, 57, 0
18, 85230, Note_on_c, 13, 56, 100
18, 85250, Note_on_c, 13, 56, 0
18, 85260, Note_on_c, 13, 54, 100
18, 85280, Note_on_c, 13, 54, 0
18, 85290, Note_on_c, 13, 52, 100
18, 85310, Note_on_c, 13, 52, 0
18, 85320, Note_on_c, 13, 51, 100
18, 85340, Note_on_c, 13, 51, 0
18, 85350, Note_on_c, 13, 49, 100
18, 85370, Note_on_c, 13, 49, 0
18, 85380, Note_on_c, 13, 56, 100
18, 85420, Note_on_c, 13, 56, 0
18, 85440, Note_on_c, 13, 44, 100
18, 85480, Note_on_c, 13, 44, 0
18, 85500, Note_on_c, 13, 37, 100
18, 85580, Note_on_c, 13, 37, 0
18, 85620, Note_on_c, 13, 49, 100
18, 85660, Note_on_c, 13, 49, 0
18, 85680, Note_on_c, 13, 49, 100
18, 85720, Note_on_c, 13, 49, 0
18, 85740, Note_on_c, 13, 49, 100
18, 85780, Note_on_c, 13, 49, 0
18, 85800, Note_on_c, 13, 48, 100
18, 85820, Note_on_c, 13, 48, 0
18, 85830, Note_on_c, 13, 49, 100
18, 85850, Note_on_c, 13, 49, 0
18, 85860, Note_on_c, 13, 51, 100
18, 85900, Note_on_c, 13, 51, 0
18, 85920, Note_on_c, 13, 42, 100
18, 85960, Note_on_c, 13, 42, 0
18, 85980, Note_on_c, 13, 40, 100
18, 86060, Note_on_c, 13, 40, 0
18, 86100, Note_on_c, 13, 52, 100
18, 86140, Note_on_c, 13, 52, 0
18, 86160, Note_on_c, 13, 52, 100
18, 86200, Note_on_c, 13, 52, 0
18, 86220, Note_on_c, 13, 52, 100
18, 86260, Note_on_c, 13, 52, 0
18, 86280, Note_on_c, 13, 51, 100
18, 86300, Note_on_c, 13, 51, 0
18, 86310, Note_on_c, 13, 52, 100
18, 86330, Note_on_c, 13, 52, 0
18, 86340, Note_on_c, 13, 54, 100
18, 86380, Note_on_c, 13, 54, 0
18, 86400, Note_on_c, 13, 45, 100
18, 86440, Note_on_c, 13, 45, 0
18, 86460, Note_on_c, 13, 44, 100
18, 86540, Note_on_c, 13, 44, 0
18, 86580, Note_on_c, 13, 57, 100
18, 86620, Note_on_c, 13, 57, 0
18, 86640, Note_on_c, 13, 57, 100
18, 86680, Note_on_c, 13, 57, 0
18, 86700, Note_on_c, 13, 57, 100
18, 86758, Note_on_c, 13, 57, 0
18, 86760, Note_on_c, 13, 56, 100
18, 86788, Note_on_c, 13, 56, 0
18, 86790, Note_on_c, 13, 57, 100
18, 86818, Note_on_c, 13, 57, 0
18, 86820, Note_on_c, 13, 59, 100
18, 86878, Note_on_c, 13, 59, 0
18, 86880, Note_on_c, 13, 50, 100
18, 86938, Note_on_c, 13, 50, 0
18, 86940, Note_on_c, 13, 49, 100
18, 87058, Note_on_c, 13, 49, 0
18, 87060, Note_on_c, 13, 61, 100
18, 87100, Note_on_c, 13, 61, 0
18, 87120, Note_on_c, 13, 61, 100
18, 87160, Note_on_c, 13, 61, 0
18, 87180, Note_on_c, 13, 61, 100
18, 87238, Note_on_c, 13, 61, 0
18, 87240, Note_on_c, 13, 59, 100
18, 87268, Note_on_c, 13, 59, 0
18, 87270, Note_on_c, 13, 61, 100
18, 87298, Note_on_c, 13, 61, 0
18, 87300, Note_on_c, 13, 62, 100
18, 87358, Note_on_c, 13, 62, 0
18, 87360, Note_on_c, 13, 54, 100
18, 87418, Note_on_c, 13, 54, 0
18, 87420, Note_on_c, 13, 52, 100
18, 87538, Note_on_c, 13, 52, 0
18, 87540, Note_on_c, 13, 61, 100
18, 87580, Note_on_c, 13, 61, 0
18, 87600, Note_on_c, 13, 52, 100
18, 87640, Note_on_c, 13, 52, 0
18, 87660, Note_on_c, 13, 50, 100
18, 87740, Note_on_c, 13, 50, 0
18, 87780, Note_on_c, 13, 59, 100
18, 87820, Note_on_c, 13, 59, 0
18, 87840, Note_on_c, 13, 50, 100
18, 87880, Note_on_c, 13, 50, 0
18, 87900, Note_on_c, 13, 49, 100
18, 87980, Note_on_c, 13, 49, 0
18, 88020, Note_on_c, 13, 57, 100
18, 88040, Note_on_c, 13, 57, 0
18, 88050, Note_on_c, 13, 56, 100
18, 88070, Note_on_c, 13, 56, 0
18, 88080, Note_on_c, 13, 54, 100
18, 88100, Note_on_c, 13, 54, 0
18, 88110, Note_on_c, 13, 52, 100
18, 88130, Note_on_c, 13, 52, 0
18, 88140, Note_on_c, 13, 50, 100
18, 88160, Note_on_c, 13, 50, 0
18, 88170, Note_on_c, 13, 49, 100
18, 88190, Note_on_c, 13, 49, 0
18, 88200, Note_on_c, 13, 47, 100
18, 88220, Note_on_c, 13, 47, 0
18, 88230, Note_on_c, 13, 45, 100
18, 88250, Note_on_c, 13, 45, 0
18, 88260, Note_on_c, 13, 52, 100
18, 88300, Note_on_c, 13, 52, 0
18, 88320, Note_on_c, 13, 40, 100
18, 88360, Note_on_c, 13, 40, 0
18, 88380, Note_on_c, 13, 45, 100
18, 88460, Note_on_c, 13, 45, 0
18, 88500, Note_on_c, 13, 57, 100
18, 88540, Note_on_c, 13, 57, 0
18, 88560, Note_on_c, 13, 57, 100
18, 88600, Note_on_c, 13, 57, 0
18, 88620, Note_on_c, 13, 57, 100
18, 88678, Note_on_c, 13, 57, 0
18, 88680, Note_on_c, 13, 56, 100
18, 88708, Note_on_c, 13, 56, 0
18, 88710, Note_on_c, 13, 57, 100
18, 88738, Note_on_c, 13, 57, 0
18, 88740, Note_on_c, 13, 59, 100
18, 88798, Note_on_c, 13, 59, 0
18, 88800, Note_on_c, 13, 50, 100
18, 88858, Note_on_c, 13, 50, 0
18, 88860, Note_on_c, 13, 49, 100
18, 88978, Note_on_c, 13, 49, 0
18, 88980, Note_on_c, 13, 61, 100
18, 89020, Note_on_c, 13, 61, 0
18, 89040, Note_on_c, 13, 61, 100
18, 89080, Note_on_c, 13, 61, 0
18, 89100, Note_on_c, 13, 61, 100
18, 89158, Note_on_c, 13, 61, 0
18, 89160, Note_on_c, 13, 59, 100
18, 89188, Note_on_c, 13, 59, 0
18, 89190, Note_on_c, 13, 61, 100
18, 89218, Note_on_c, 13, 61, 0
18, 89220, Note_on_c, 13, 62, 100
18, 89278, Note_on_c, 13, 62, 0
18, 89280, Note_on_c, 13, 54, 100
18, 89338, Note_on_c, 13, 54, 0
18, 89340, Note_on_c, 13, 52, 100
18, 89458, Note_on_c, 13, 52, 0
18, 89460, Note_on_c, 13, 61, 100
18, 89500, Note_on_c, 13, 61, 0
18, 89520, Note_on_c, 13, 52, 100
18, 89560, Note_on_c, 13, 52, 0
18, 89580, Note_on_c, 13, 50, 100
18, 89660, Note_on_c, 13, 50, 0
18, 89700, Note_on_c, 13, 59, 100
18, 89740, Note_on_c, 13, 59, 0
18, 89760, Note_on_c, 13, 50, 100
18, 89800, Note_on_c, 13, 50, 0
18, 89820, Note_on_c, 13, 49, 100
18, 89900, Note_on_c, 13, 49, 0
18, 89940, Note_on_c, 13, 57, 100
18, 89960, Note_on_c, 13, 57, 0
18, 89970, Note_on_c, 13, 56, 100
18, 89990, Note_on_c, 13, 56, 0
18, 90000, Note_on_c, 13, 54, 100
18, 90020, Note_on_c, 13, 54, 0
18, 90030, Note_on_c, 13, 52, 100
18, 90050, Note_on_c, 13, 52, 0
18, 90060, Note_on_c, 13, 50, 100
18, 90080, Note_on_c, 13, 50, 0
18, 90090, Note_on_c, 13, 49, 100
18, 90110, Note_on_c, 13, 49, 0
18, 90120, Note_on_c, 13, 47, 100
18, 90140, Note_on_c, 13, 47, 0
18, 90150, Note_on_c, 13, 45, 100
18, 90170, Note_on_c, 13, 45, 0
18, 90180, Note_on_c, 13, 52, 100
18, 90220, Note_on_c, 13, 52, 0
18, 90240, Note_on_c, 13, 40, 100
18, 90280, Note_on_c, 13, 40, 0
18, 90300, Note_on_c, 13, 45, 100
18, 90380, Note_on_c, 13, 45, 0
18, 91260, Control_c, 13, 0, 0
18, 91260, Note_on_c, 13, 52, 100
18, 91377, Note_on_c, 13, 52, 0
18, 91380, Note_on_c, 13, 40, 100
18, 91437, Note_on_c, 13, 40, 0
18, 91440, Note_on_c, 13, 40, 100
18, 91557, Note_on_c, 13, 40, 0
18, 91560, Note_on_c, 13, 52, 100
18, 91617, Note_on_c, 13, 52, 0
18, 91620, Note_on_c, 13, 52, 100
18, 91737, Note_on_c, 13, 52, 0
18, 91740, Note_on_c, 13, 40, 100
18, 91797, Note_on_c, 13, 40, 0
18, 91800, Note_on_c, 13, 40, 100
18, 91917, Note_on_c, 13, 40, 0
18, 91920, Note_on_c, 13, 52, 100
18, 91977, Note_on_c, 13, 52, 0
18, 91980, Note_on_c, 13, 51, 100
18, 92097, Note_on_c, 13, 51, 0
18, 92100, Note_on_c, 13, 39, 100
18, 92157, Note_on_c, 13, 39, 0
18, 92160, Note_on_c, 13, 39, 100
18, 92277, Note_on_c, 13, 39, 0
18, 92280, Note_on_c, 13, 51, 100
18, 92337, Note_on_c, 13, 51, 0
18, 92340, Note_on_c, 13, 50, 100
18, 92457, Note_on_c, 13, 50, 0
18, 92460, Note_on_c, 13, 38, 100
18, 92517, Note_on_c, 13, 38, 0
18, 92520, Note_on_c, 13, 38, 100
18, 92637, Note_on_c, 13, 38, 0
18, 92640, Note_on_c, 13, 50, 100
18, 92697, Note_on_c, 13, 50, 0
18, 92700, Note_on_c, 13, 48, 100
18, 92817, Note_on_c, 13, 48, 0
18, 92820, Note_on_c, 13, 36, 100
18, 92877, Note_on_c, 13, 36, 0
18, 92880, Note_on_c, 13, 36, 100
18, 92997, Note_on_c, 13, 36, 0
18, 93000, Note_on_c, 13, 48, 100
18, 93057, Note_on_c, 13, 48, 0
18, 93060, Note_on_c, 13, 47, 100
18, 93177, Note_on_c, 13, 47, 0
18, 93180, Note_on_c, 13, 59, 100
18, 93237, Note_on_c, 13, 59, 0
18, 93240, Note_on_c, 13, 59, 100
18, 93357, Note_on_c, 13, 59, 0
18, 93360, Note_on_c, 13, 51, 100
18, 93417, Note_on_c, 13, 51, 0
18, 93420, Note_on_c, 13, 52, 100
18, 93537, Note_on_c, 13, 52, 0
18, 93540, Note_on_c, 13, 55, 100
18, 93597, Note_on_c, 13, 55, 0
18, 93600, Note_on_c, 13, 59, 100
18, 93717, Note_on_c, 13, 59, 0
18, 93720, Note_on_c, 13, 47, 100
18, 93777, Note_on_c, 13, 47, 0
18, 93780, Note_on_c, 13, 52, 100
18, 93897, Note_on_c, 13, 52, 0
18, 93900, Note_on_c, 13, 40, 100
18, 93957, Note_on_c, 13, 40, 0
18, 93960, Note_on_c, 13, 40, 100
18, 94077, Note_on_c, 13, 40, 0
18, 94080, Note_on_c, 13, 52, 100
18, 94137, Note_on_c, 13, 52, 0
18, 94140, Note_on_c, 13, 52, 100
18, 94257, Note_on_c, 13, 52, 0
18, 94260, Note_on_c, 13, 40, 100
18, 94317, Note_on_c, 13, 40, 0
18, 94320, Note_on_c, 13, 40, 100
18, 94437, Note_on_c, 13, 40, 0
18, 94440, Note_on_c, 13, 52, 100
18, 94497, Note_on_c, 13, 52, 0
18, 94500, Note_on_c, 13, 51, 100
18, 94617, Note_on_c, 13, 51, 0
18, 94620, Note_on_c, 13, 39, 100
18, 94677, Note_on_c, 13, 39, 0
18, 94680, Note_on_c, 13, 39, 100
18, 94797, Note_on_c, 13, 39, 0
18, 94800, Note_on_c, 13, 51, 100
18, 94857, Note_on_c, 13, 51, 0
18, 94860, Note_on_c, 13, 50, 100
18, 94977, Note_on_c, 13, 50, 0
18, 94980, Note_on_c, 13, 38, 100
18, 95037, Note_on_c, 13, 38, 0
18, 95040, Note_on_c, 13, 38, 100
18, 95157, Note_on_c, 13, 38, 0
18, 95160, Note_on_c, 13, 50, 100
18, 95217, Note_on_c, 13, 50, 0
18, 95220, Note_on_c, 13, 48, 100
18, 95337, Note_on_c, 13, 48, 0
18, 95340, Note_on_c, 13, 36, 100
18, 95397, Note_on_c, 13, 36, 0
18, 95400, Note_on_c, 13, 36, 100
18, 95517, Note_on_c, 13, 36, 0
18, 95520, Note_on_c, 13, 48, 100
18, 95577, Note_on_c, 13, 48, 0
18, 95580, Note_on_c, 13, 47, 100
18, 95697, Note_on_c, 13, 47, 0
18, 95700, Note_on_c, 13, 59, 100
18, 95757, Note_on_c, 13, 59, 0
18, 95760, Note_on_c, 13, 59, 100
18, 95877, Note_on_c, 13, 59, 0
18, 95880, Note_on_c, 13, 51, 100
18, 95937, Note_on_c, 13, 51, 0
18, 95940, Note_on_c, 13, 52, 100
18, 96057, Note_on_c, 13, 52, 0
18, 96060, Note_on_c, 13, 50, 100
18, 96117, Note_on_c, 13, 50, 0
18, 96120, Note_on_c, 13, 48, 100
18, 96237, Note_on_c, 13, 48, 0
18, 96240, Note_on_c, 13, 48, 100
18, 96297, Note_on_c, 13, 48, 0
18, 96300, Note_on_c, 13, 47, 100
18, 96417, Note_on_c, 13, 47, 0
18, 96420, Note_on_c, 13, 59, 100
18, 96477, Note_on_c, 13, 59, 0
18, 96480, Note_on_c, 13, 59, 100
18, 96597, Note_on_c, 13, 59, 0
18, 96600, Note_on_c, 13, 47, 100
18, 96657, Note_on_c, 13, 47, 0
18, 96660, Note_on_c, 13, 47, 100
18, 96777, Note_on_c, 13, 47, 0
18, 96780, Note_on_c, 13, 59, 100
18, 96837, Note_on_c, 13, 59, 0
18, 96840, Note_on_c, 13, 59, 100
18, 96957, Note_on_c, 13, 59, 0
18, 96960, Note_on_c, 13, 47, 100
18, 97017, Note_on_c, 13, 47, 0
18, 97020, Note_on_c, 13, 51, 100
18, 97137, Note_on_c, 13, 51, 0
18, 97140, Note_on_c, 13, 39, 100
18, 97197, Note_on_c, 13, 39, 0
18, 97200, Note_on_c, 13, 39, 100
18, 97317, Note_on_c, 13, 39, 0
18, 97320, Note_on_c, 13, 51, 100
18, 97377, Note_on_c, 13, 51, 0
18, 97380, Note_on_c, 13, 50, 100
18, 97497, Note_on_c, 13, 50, 0
18, 97500, Note_on_c, 13, 38, 100
18, 97557, Note_on_c, 13, 38, 0
18, 97560, Note_on_c, 13, 38, 100
18, 97677, Note_on_c, 13, 38, 0
18, 97680, Note_on_c, 13, 50, 100
18, 97737, Note_on_c, 13, 50, 0
18, 97740, Note_on_c, 13, 49, 100
18, 97857, Note_on_c, 13, 49, 0
18, 97860, Note_on_c, 13, 37, 100
18, 97917, Note_on_c, 13, 37, 0
18, 97920, Note_on_c, 13, 37, 100
18, 98037, Note_on_c, 13, 37, 0
18, 98040, Note_on_c, 13, 49, 100
18, 98097, Note_on_c, 13, 49, 0
18, 98100, Note_on_c, 13, 54, 100
18, 98217, Note_on_c, 13, 54, 0
18, 98220, Note_on_c, 13, 42, 100
18, 98277, Note_on_c, 13, 42, 0
18, 98280, Note_on_c, 13, 42, 100
18, 98397, Note_on_c, 13, 42, 0
18, 98400, Note_on_c, 13, 58, 100
18, 98457, Note_on_c, 13, 58, 0
18, 98460, Note_on_c, 13, 59, 100
18, 98577, Note_on_c, 13, 59, 0
18, 98580, Note_on_c, 13, 50, 100
18, 98637, Note_on_c, 13, 50, 0
18, 98640, Note_on_c, 13, 52, 100
18, 98757, Note_on_c, 13, 52, 0
18, 98760, Note_on_c, 13, 54, 100
18, 98817, Note_on_c, 13, 54, 0
18, 98820, Note_on_c, 13, 59, 100
18, 98937, Note_on_c, 13, 59, 0
18, 98940, Note_on_c, 13, 47, 100
18, 98997, Note_on_c, 13, 47, 0
18, 99000, Note_on_c, 13, 47, 100
18, 99117, Note_on_c, 13, 47, 0
18, 99120, Note_on_c, 13, 59, 100
18, 99177, Note_on_c, 13, 59, 0
18, 99180, Note_on_c, 13, 59, 100
18, 99297, Note_on_c, 13, 59, 0
18, 99300, Note_on_c, 13, 47, 100
18, 99357, Note_on_c, 13, 47, 0
18, 99360, Note_on_c, 13, 47, 100
18, 99477, Note_on_c, 13, 47, 0
18, 99480, Note_on_c, 13, 59, 100
18, 99537, Note_on_c, 13, 59, 0
18, 99540, Note_on_c, 13, 58, 100
18, 99657, Note_on_c, 13, 58, 0
18, 99660, Note_on_c, 13, 46, 100
18, 99717, Note_on_c, 13, 46, 0
18, 99720, Note_on_c, 13, 46, 100
18, 99837, Note_on_c, 13, 46, 0
18, 99840, Note_on_c, 13, 58, 100
18, 99897, Note_on_c, 13, 58, 0
18, 99900, Note_on_c, 13, 57, 100
18, 100017, Note_on_c, 13, 57, 0
18, 100020, Note_on_c, 13, 45, 100
18, 100077, Note_on_c, 13, 45, 0
18, 100080, Note_on_c, 13, 45, 100
18, 100197, Note_on_c, 13, 45, 0
18, 100200, Note_on_c, 13, 57, 100
18, 100257, Note_on_c, 13, 57, 0
18, 100260, Note_on_c, 13, 55, 100
18, 100377, Note_on_c, 13, 55, 0
18, 100380, Note_on_c, 13, 43, 100
18, 100437, Note_on_c, 13, 43, 0
18, 100440, Note_on_c, 13, 43, 100
18, 100557, Note_on_c, 13, 43, 0
18, 100560, Note_on_c, 13, 55, 100
18, 100617, Note_on_c, 13, 55, 0
18, 100620, Note_on_c, 13, 54, 100
18, 100737, Note_on_c, 13, 54, 0
18, 100740, Note_on_c, 13, 42, 100
18, 100797, Note_on_c, 13, 42, 0
18, 100800, Note_on_c, 13, 42, 100
18, 100917, Note_on_c, 13, 42, 0
18, 100920, Note_on_c, 13, 58, 100
18, 100977, Note_on_c, 13, 58, 0
18, 100980, Note_on_c, 13, 59, 100
18, 101097, Note_on_c, 13, 59, 0
18, 101100, Note_on_c, 13, 50, 100
18, 101157, Note_on_c, 13, 50, 0
18, 101160, Note_on_c, 13, 54, 100
18, 101277, Note_on_c, 13, 54, 0
18, 101280, Note_on_c, 13, 42, 100
18, 101337, Note_on_c, 13, 42, 0
18, 101340, Note_on_c, 13, 47, 100
18, 101457, Note_on_c, 13, 47, 0
18, 101460, Note_on_c, 13, 59, 100
18, 101517, Note_on_c, 13, 59, 0
18, 101520, Note_on_c, 13, 59, 100
18, 101637, Note_on_c, 13, 59, 0
18, 101640, Note_on_c, 13, 47, 100
18, 101697, Note_on_c, 13, 47, 0
18, 101700, Note_on_c, 13, 52, 100
18, 101817, Note_on_c, 13, 52, 0
18, 101820, Note_on_c, 13, 40, 100
18, 101877, Note_on_c, 13, 40, 0
18, 101880, Note_on_c, 13, 40, 100
18, 101997, Note_on_c, 13, 40, 0
18, 102000, Note_on_c, 13, 52, 100
18, 102057, Note_on_c, 13, 52, 0
18, 102060, Note_on_c, 13, 57, 100
18, 102177, Note_on_c, 13, 57, 0
18, 102180, Note_on_c, 13, 45, 100
18, 102237, Note_on_c, 13, 45, 0
18, 102240, Note_on_c, 13, 45, 100
18, 102357, Note_on_c, 13, 45, 0
18, 102360, Note_on_c, 13, 57, 100
18, 102417, Note_on_c, 13, 57, 0
18, 102420, Note_on_c, 13, 59, 100
18, 102537, Note_on_c, 13, 59, 0
18, 102540, Note_on_c, 13, 47, 100
18, 102597, Note_on_c, 13, 47, 0
18, 102600, Note_on_c, 13, 47, 100
18, 102717, Note_on_c, 13, 47, 0
18, 102720, Note_on_c, 13, 59, 100
18, 102777, Note_on_c, 13, 59, 0
18, 102780, Note_on_c, 13, 52, 100
18, 102897, Note_on_c, 13, 52, 0
18, 102900, Note_on_c, 13, 40, 100
18, 102957, Note_on_c, 13, 40, 0
18, 102960, Note_on_c, 13, 40, 100
18, 103077, Note_on_c, 13, 40, 0
18, 103080, Note_on_c, 13, 52, 100
18, 103137, Note_on_c, 13, 52, 0
18, 103140, Note_on_c, 13, 57, 100
18, 103257, Note_on_c, 13, 57, 0
18, 103260, Note_on_c, 13, 45, 100
18, 103317, Note_on_c, 13, 45, 0
18, 103320, Note_on_c, 13, 45, 100
18, 103437, Note_on_c, 13, 45, 0
18, 103440, Note_on_c, 13, 57, 100
18, 103497, Note_on_c, 13, 57, 0
18, 103500, Note_on_c, 13, 62, 100
18, 103617, Note_on_c, 13, 62, 0
18, 103620, Note_on_c, 13, 50, 100
18, 103677, Note_on_c, 13, 50, 0
18, 103680, Note_on_c, 13, 50, 100
18, 103797, Note_on_c, 13, 50, 0
18, 103800, Note_on_c, 13, 62, 100
18, 103857, Note_on_c, 13, 62, 0
18, 103860, Note_on_c, 13, 62, 100
18, 103977, Note_on_c, 13, 62, 0
18, 103980, Note_on_c, 13, 50, 100
18, 104037, Note_on_c, 13, 50, 0
18, 104040, Note_on_c, 13, 50, 100
18, 104157, Note_on_c, 13, 50, 0
18, 104160, Note_on_c, 13, 62, 100
18, 104217, Note_on_c, 13, 62, 0
18, 104220, Note_on_c, 13, 61, 100
18, 104337, Note_on_c, 13, 61, 0
18, 104340, Note_on_c, 13, 49, 100
18, 104397, Note_on_c, 13, 49, 0
18, 104400, Note_on_c, 13, 49, 100
18, 104517, Note_on_c, 13, 49, 0
18, 104520, Note_on_c, 13, 61, 100
18, 104577, Note_on_c, 13, 61, 0
18, 104580, Note_on_c, 13, 62, 100
18, 104697, Note_on_c, 13, 62, 0
18, 104700, Note_on_c, 13, 50, 100
18, 104757, Note_on_c, 13, 50, 0
18, 104760, Note_on_c, 13, 38, 100
18, 104877, Note_on_c, 13, 38, 0
18, 104880, Note_on_c, 13, 50, 100
18, 104937, Note_on_c, 13, 50, 0
18, 104940, Note_on_c, 13, 52, 100
18, 105057, Note_on_c, 13, 52, 0
18, 105060, Note_on_c, 13, 40, 100
18, 105117, Note_on_c, 13, 40, 0
18, 105120, Note_on_c, 13, 40, 100
18, 105237, Note_on_c, 13, 40, 0
18, 105240, Note_on_c, 13, 52, 100
18, 105297, Note_on_c, 13, 52, 0
18, 105300, Note_on_c, 13, 52, 100
18, 105417, Note_on_c, 13, 52, 0
18, 105420, Note_on_c, 13, 40, 100
18, 105477, Note_on_c, 13, 40, 0
18, 105480, Note_on_c, 13, 40, 100
18, 105597, Note_on_c, 13, 40, 0
18, 105600, Note_on_c, 13, 52, 100
18, 105657, Note_on_c, 13, 52, 0
18, 105660, Note_on_c, 13, 52, 100
18, 105777, Note_on_c, 13, 52, 0
18, 105780, Note_on_c, 13, 40, 100
18, 105837, Note_on_c, 13, 40, 0
18, 105840, Note_on_c, 13, 40, 100
18, 105957, Note_on_c, 13, 40, 0
18, 105960, Note_on_c, 13, 52, 100
18, 106017, Note_on_c, 13, 52, 0
18, 106020, Note_on_c, 13, 52, 100
18, 106137, Note_on_c, 13, 52, 0
18, 106140, Note_on_c, 13, 40, 100
18, 106197, Note_on_c, 13, 40, 0
18, 106200, Note_on_c, 13, 40, 100
18, 106317, Note_on_c, 13, 40, 0
18, 106320, Note_on_c, 13, 52, 100
18, 106377, Note_on_c, 13, 52, 0
18, 106380, Note_on_c, 13, 55, 100
18, 106497, Note_on_c, 13, 55, 0
18, 106500, Note_on_c, 13, 43, 100
18, 106557, Note_on_c, 13, 43, 0
18, 106560, Note_on_c, 13, 43, 100
18, 106677, Note_on_c, 13, 43, 0
18, 106680, Note_on_c, 13, 55, 100
18, 106737, Note_on_c, 13, 55, 0
18, 106740, Note_on_c, 13, 53, 100
18, 106857, Note_on_c, 13, 53, 0
18, 106860, Note_on_c, 13, 41, 100
18, 106917, Note_on_c, 13, 41, 0
18, 106920, Note_on_c, 13, 41, 100
18, 107037, Note_on_c, 13, 41, 0
18, 107040, Note_on_c, 13, 53, 100
18, 107097, Note_on_c, 13, 53, 0
18, 107100, Note_on_c, 13, 52, 100
18, 107217, Note_on_c, 13, 52, 0
18, 107220, Note_on_c, 13, 40, 100
18, 107277, Note_on_c, 13, 40, 0
18, 107280, Note_on_c, 13, 40, 100
18, 107397, Note_on_c, 13, 40, 0
18, 107400, Note_on_c, 13, 56, 100
18, 107457, Note_on_c, 13, 56, 0
18, 107460, Note_on_c, 13, 57, 100
18, 107577, Note_on_c, 13, 57, 0
18, 107580, Note_on_c, 13, 48, 100
18, 107637, Note_on_c, 13, 48, 0
18, 107640, Note_on_c, 13, 52, 100
18, 107757, Note_on_c, 13, 52, 0
18, 107760, Note_on_c, 13, 40, 100
18, 107817, Note_on_c, 13, 40, 0
18, 107820, Note_on_c, 13, 57, 100
18, 107937, Note_on_c, 13, 57, 0
18, 107940, Note_on_c, 13, 45, 100
18, 107997, Note_on_c, 13, 45, 0
18, 108000, Note_on_c, 13, 45, 100
18, 108117, Note_on_c, 13, 45, 0
18, 108120, Note_on_c, 13, 57, 100
18, 108177, Note_on_c, 13, 57, 0
18, 108180, Note_on_c, 13, 59, 100
18, 108297, Note_on_c, 13, 59, 0
18, 108300, Note_on_c, 13, 47, 100
18, 108357, Note_on_c, 13, 47, 0
18, 108360, Note_on_c, 13, 47, 100
18, 108477, Note_on_c, 13, 47, 0
18, 108480, Note_on_c, 13, 59, 100
18, 108537, Note_on_c, 13, 59, 0
18, 108540, Note_on_c, 13, 52, 100
18, 108657, Note_on_c, 13, 52, 0
18, 108660, Note_on_c, 13, 40, 100
18, 108717, Note_on_c, 13, 40, 0
18, 108720, Note_on_c, 13, 40, 100
18, 108837, Note_on_c, 13, 40, 0
18, 108840, Note_on_c, 13, 52, 100
18, 108897, Note_on_c, 13, 52, 0
18, 108900, Note_on_c, 13, 54, 100
18, 109017, Note_on_c, 13, 54, 0
18, 109020, Note_on_c, 13, 42, 100
18, 109077, Note_on_c, 13, 42, 0
18, 109080, Note_on_c, 13, 42, 100
18, 109197, Note_on_c, 13, 42, 0
18, 109200, Note_on_c, 13, 54, 100
18, 109257, Note_on_c, 13, 54, 0
18, 109260, Note_on_c, 13, 59, 100
18, 109377, Note_on_c, 13, 59, 0
18, 109380, Note_on_c, 13, 47, 100
18, 109437, Note_on_c, 13, 47, 0
18, 109440, Note_on_c, 13, 47, 100
18, 109557, Note_on_c, 13, 47, 0
18, 109560, Note_on_c, 13, 59, 100
18, 109617, Note_on_c, 13, 59, 0
18, 109620, Note_on_c, 13, 59, 100
18, 109737, Note_on_c, 13, 59, 0
18, 109740, Note_on_c, 13, 47, 100
18, 109797, Note_on_c, 13, 47, 0
18, 109800, Note_on_c, 13, 47, 100
18, 109917, Note_on_c, 13, 47, 0
18, 109920, Note_on_c, 13, 59, 100
18, 109977, Note_on_c, 13, 59, 0
18, 109980, Note_on_c, 13, 52, 100
18, 110097, Note_on_c, 13, 52, 0
18, 110100, Note_on_c, 13, 40, 100
18, 110157, Note_on_c, 13, 40, 0
18, 110160, Note_on_c, 13, 40, 100
18, 110277, Note_on_c, 13, 40, 0
18, 110280, Note_on_c, 13, 52, 100
18, 110337, Note_on_c, 13, 52, 0
18, 110340, Note_on_c, 13, 52, 100
18, 110457, Note_on_c, 13, 52, 0
18, 110460, Note_on_c, 13, 40, 100
18, 110517, Note_on_c, 13, 40, 0
18, 110520, Note_on_c, 13, 40, 100
18, 110637, Note_on_c, 13, 40, 0
18, 110640, Note_on_c, 13, 52, 100
18, 110697, Note_on_c, 13, 52, 0
18, 110700, Note_on_c, 13, 51, 100
18, 110817, Note_on_c, 13, 51, 0
18, 110820, Note_on_c, 13, 39, 100
18, 110877, Note_on_c, 13, 39, 0
18, 110880, Note_on_c, 13, 39, 100
18, 110997, Note_on_c, 13, 39, 0
18, 111000, Note_on_c, 13, 51, 100
18, 111057, Note_on_c, 13, 51, 0
18, 111060, Note_on_c, 13, 50, 100
18, 111177, Note_on_c, 13, 50, 0
18, 111180, Note_on_c, 13, 38, 100
18, 111237, Note_on_c, 13, 38, 0
18, 111240, Note_on_c, 13, 38, 100
18, 111357, Note_on_c, 13, 38, 0
18, 111360, Note_on_c, 13, 50, 100
18, 111417, Note_on_c, 13, 50, 0
18, 111420, Note_on_c, 13, 48, 100
18, 111537, Note_on_c, 13, 48, 0
18, 111540, Note_on_c, 13, 36, 100
18, 111597, Note_on_c, 13, 36, 0
18, 111600, Note_on_c, 13, 36, 100
18, 111717, Note_on_c, 13, 36, 0
18, 111720, Note_on_c, 13, 48, 100
18, 111777, Note_on_c, 13, 48, 0
18, 111780, Note_on_c, 13, 47, 100
18, 111897, Note_on_c, 13, 47, 0
18, 111900, Note_on_c, 13, 59, 100
18, 111957, Note_on_c, 13, 59, 0
18, 111960, Note_on_c, 13, 59, 100
18, 112077, Note_on_c, 13, 59, 0
18, 112080, Note_on_c, 13, 51, 100
18, 112137, Note_on_c, 13, 51, 0
18, 112140, Note_on_c, 13, 52, 100
18, 112257, Note_on_c, 13, 52, 0
18, 112260, Note_on_c, 13, 43, 100
18, 112317, Note_on_c, 13, 43, 0
18, 112320, Note_on_c, 13, 45, 100
18, 112437, Note_on_c, 13, 45, 0
18, 112440, Note_on_c, 13, 47, 100
18, 112497, Note_on_c, 13, 47, 0
18, 112500, Note_on_c, 13, 48, 100
18, 112557, Note_on_c, 13, 48, 0
18, 112560, Note_on_c, 13, 48, 100
18, 112617, Note_on_c, 13, 48, 0
18, 112620, Note_on_c, 13, 48, 100
18, 112677, Note_on_c, 13, 48, 0
18, 112680, Note_on_c, 13, 45, 100
18, 112737, Note_on_c, 13, 45, 0
18, 112740, Note_on_c, 13, 45, 100
18, 112797, Note_on_c, 13, 45, 0
18, 112800, Note_on_c, 13, 45, 100
18, 112857, Note_on_c, 13, 45, 0
18, 112860, Note_on_c, 13, 43, 100
18, 112917, Note_on_c, 13, 43, 0
18, 112920, Note_on_c, 13, 43, 100
18, 112977, Note_on_c, 13, 43, 0
18, 112980, Note_on_c, 13, 43, 100
18, 113037, Note_on_c, 13, 43, 0
18, 113040, Note_on_c, 13, 48, 100
18, 113097, Note_on_c, 13, 48, 0
18, 113100, Note_on_c, 13, 48, 100
18, 113157, Note_on_c, 13, 48, 0
18, 113160, Note_on_c, 13, 48, 100
18, 113217, Note_on_c, 13, 48, 0
18, 113220, Note_on_c, 13, 47, 100
18, 113277, Note_on_c, 13, 47, 0
18, 113280, Note_on_c, 13, 47, 100
18, 113337, Note_on_c, 13, 47, 0
18, 113340, Note_on_c, 13, 47, 100
18, 113397, Note_on_c, 13, 47, 0
18, 113400, Note_on_c, 13, 47, 100
18, 113457, Note_on_c, 13, 47, 0
18, 113460, Note_on_c, 13, 47, 100
18, 113517, Note_on_c, 13, 47, 0
18, 113520, Note_on_c, 13, 47, 100
18, 113577, Note_on_c, 13, 47, 0
18, 113580, Note_on_c, 13, 52, 100
18, 113697, Note_on_c, 13, 52, 0
18, 113700, Note_on_c, 13, 40, 100
18, 113757, Note_on_c, 13, 40, 0
18, 113760, Note_on_c, 13, 40, 100
18, 113877, Note_on_c, 13, 40, 0
18, 113880, Note_on_c, 13, 52, 100
18, 113937, Note_on_c, 13, 52, 0
18, 113940, Note_on_c, 13, 52, 100
18, 114057, Note_on_c, 13, 52, 0
18, 114060, Note_on_c, 13, 40, 100
18, 114117, Note_on_c, 13, 40, 0
18, 114120, Note_on_c, 13, 40, 100
18, 114237, Note_on_c, 13, 40, 0
18, 114240, Note_on_c, 13, 52, 100
18, 114297, Note_on_c, 13, 52, 0
18, 114300, Note_on_c, 13, 51, 100
18, 114417, Note_on_c, 13, 51, 0
18, 114420, Note_on_c, 13, 39, 100
18, 114477, Note_on_c, 13, 39, 0
18, 114480, Note_on_c, 13, 39, 100
18, 114597, Note_on_c, 13, 39, 0
18, 114600, Note_on_c, 13, 51, 100
18, 114657, Note_on_c, 13, 51, 0
18, 114660, Note_on_c, 13, 50, 100
18, 114777, Note_on_c, 13, 50, 0
18, 114780, Note_on_c, 13, 38, 100
18, 114837, Note_on_c, 13, 38, 0
18, 114840, Note_on_c, 13, 38, 100
18, 114957, Note_on_c, 13, 38, 0
18, 114960, Note_on_c, 13, 50, 100
18, 115017, Note_on_c, 13, 50, 0
18, 115020, Note_on_c, 13, 48, 100
18, 115137, Note_on_c, 13, 48, 0
18, 115140, Note_on_c, 13, 36, 100
18, 115197, Note_on_c, 13, 36, 0
18, 115200, Note_on_c, 13, 36, 100
18, 115317, Note_on_c, 13, 36, 0
18, 115320, Note_on_c, 13, 48, 100
18, 115377, Note_on_c, 13, 48, 0
18, 115380, Note_on_c, 13, 47, 100
18, 115497, Note_on_c, 13, 47, 0
18, 115500, Note_on_c, 13, 59, 100
18, 115557, Note_on_c, 13, 59, 0
18, 115560, Note_on_c, 13, 59, 100
18, 115677, Note_on_c, 13, 59, 0
18, 115680, Note_on_c, 13, 51, 100
18, 115737, Note_on_c, 13, 51, 0
18, 115740, Note_on_c, 13, 52, 100
18, 115857, Note_on_c, 13, 52, 0
18, 115860, Note_on_c, 13, 55, 100
18, 115917, Note_on_c, 13, 55, 0
18, 115920, Note_on_c, 13, 59, 100
18, 116037, Note_on_c, 13, 59, 0
18, 116040, Note_on_c, 13, 47, 100
18, 116097, Note_on_c, 13, 47, 0
18, 116100, Note_on_c, 13, 52, 100
18, 116337, Note_on_c, 13, 52, 0
18, 117180, Control_c, 13, 0, 0
18, 117180, Note_on_c, 13, 55, 100
18, 117220, Note_on_c, 13, 55, 0
18, 117240, Note_on_c, 13, 43, 100
18, 117280, Note_on_c, 13, 43, 0
18, 117330, Note_on_c, 13, 55, 100
18, 117350, Note_on_c, 13, 55, 0
18, 117360, Note_on_c, 13, 55, 100
18, 117380, Note_on_c, 13, 55, 0
18, 117390, Note_on_c, 13, 55, 100
18, 117410, Note_on_c, 13, 55, 0
18, 117420, Note_on_c, 13, 53, 100
18, 117460, Note_on_c, 13, 53, 0
18, 117480, Note_on_c, 13, 41, 100
18, 117520, Note_on_c, 13, 41, 0
18, 117570, Note_on_c, 13, 53, 100
18, 117590, Note_on_c, 13, 53, 0
18, 117600, Note_on_c, 13, 53, 100
18, 117620, Note_on_c, 13, 53, 0
18, 117630, Note_on_c, 13, 53, 100
18, 117650, Note_on_c, 13, 53, 0
18, 117660, Note_on_c, 13, 52, 100
18, 117700, Note_on_c, 13, 52, 0
18, 117720, Note_on_c, 13, 40, 100
18, 117760, Note_on_c, 13, 40, 0
18, 117810, Note_on_c, 13, 52, 100
18, 117830, Note_on_c, 13, 52, 0
18, 117840, Note_on_c, 13, 52, 100
18, 117860, Note_on_c, 13, 52, 0
18, 117870, Note_on_c, 13, 52, 100
18, 117890, Note_on_c, 13, 52, 0
18, 117900, Note_on_c, 13, 47, 100
18, 117940, Note_on_c, 13, 47, 0
18, 117960, Note_on_c, 13, 59, 100
18, 118000, Note_on_c, 13, 59, 0
18, 118050, Note_on_c, 13, 47, 100
18, 118070, Note_on_c, 13, 47, 0
18, 118080, Note_on_c, 13, 47, 100
18, 118100, Note_on_c, 13, 47, 0
18, 118110, Note_on_c, 13, 47, 100
18, 118130, Note_on_c, 13, 47, 0
18, 118140, Note_on_c, 13, 48, 100
18, 118180, Note_on_c, 13, 48, 0
18, 118200, Note_on_c, 13, 60, 100
18, 118240, Note_on_c, 13, 60, 0
18, 118290, Note_on_c, 13, 48, 100
18, 118310, Note_on_c, 13, 48, 0
18, 118320, Note_on_c, 13, 48, 100
18, 118340, Note_on_c, 13, 48, 0
18, 118350, Note_on_c, 13, 48, 100
18, 118370, Note_on_c, 13, 48, 0
18, 118380, Note_on_c, 13, 57, 100
18, 118420, Note_on_c, 13, 57, 0
18, 118440, Note_on_c, 13, 45, 100
18, 118480, Note_on_c, 13, 45, 0
18, 118530, Note_on_c, 13, 54, 100
18, 118550, Note_on_c, 13, 54, 0
18, 118560, Note_on_c, 13, 54, 100
18, 118580, Note_on_c, 13, 54, 0
18, 118590, Note_on_c, 13, 54, 100
18, 118610, Note_on_c, 13, 54, 0
18, 118620, Note_on_c, 13, 55, 100
18, 118678, Note_on_c, 13, 55, 0
18, 118680, Note_on_c, 13, 43, 100
18, 118738, Note_on_c, 13, 43, 0
18, 118770, Note_on_c, 13, 59, 100
18, 118798, Note_on_c, 13, 59, 0
18, 118800, Note_on_c, 13, 59, 100
18, 118828, Note_on_c, 13, 59, 0
18, 118830, Note_on_c, 13, 59, 100
18, 118858, Note_on_c, 13, 59, 0
18, 118860, Note_on_c, 13, 52, 100
18, 118918, Note_on_c, 13, 52, 0
18, 118920, Note_on_c, 13, 40, 100
18, 118978, Note_on_c, 13, 40, 0
18, 119010, Note_on_c, 13, 57, 100
18, 119038, Note_on_c, 13, 57, 0
18, 119040, Note_on_c, 13, 57, 100
18, 119068, Note_on_c, 13, 57, 0
18, 119070, Note_on_c, 13, 57, 100
18, 119098, Note_on_c, 13, 57, 0
18, 119100, Note_on_c, 13, 50, 100
18, 119158, Note_on_c, 13, 50, 0
18, 119160, Note_on_c, 13, 38, 100
18, 119218, Note_on_c, 13, 38, 0
18, 119250, Note_on_c, 13, 50, 100
18, 119278, Note_on_c, 13, 50, 0
18, 119280, Note_on_c, 13, 50, 100
18, 119308, Note_on_c, 13, 50, 0
18, 119310, Note_on_c, 13, 50, 100
18, 119338, Note_on_c, 13, 50, 0
18, 119340, Note_on_c, 13, 48, 100
18, 119398, Note_on_c, 13, 48, 0
18, 119400, Note_on_c, 13, 36, 100
18, 119458, Note_on_c, 13, 36, 0
18, 119490, Note_on_c, 13, 48, 100
18, 119518, Note_on_c, 13, 48, 0
18, 119520, Note_on_c, 13, 48, 100
18, 119548, Note_on_c, 13, 48, 0
18, 119550, Note_on_c, 13, 48, 100
18, 119578, Note_on_c, 13, 48, 0
18, 119580, Note_on_c, 13, 47, 100
18, 119638, Note_on_c, 13, 47, 0
18, 119640, Note_on_c, 13, 59, 100
18, 119698, Note_on_c, 13, 59, 0
18, 119730, Note_on_c, 13, 47, 100
18, 119758, Note_on_c, 13, 47, 0
18, 119760, Note_on_c, 13, 47, 100
18, 119788, Note_on_c, 13, 47, 0
18, 119790, Note_on_c, 13, 47, 100
18, 119818, Note_on_c, 13, 47, 0
18, 119820, Note_on_c, 13, 42, 100
18, 119878, Note_on_c, 13, 42, 0
18, 119880, Note_on_c, 13, 54, 100
18, 119938, Note_on_c, 13, 54, 0
18, 119970, Note_on_c, 13, 54, 100
18, 119998, Note_on_c, 13, 54, 0
18, 120000, Note_on_c, 13, 54, 100
18, 120028, Note_on_c, 13, 54, 0
18, 120030, Note_on_c, 13, 54, 100
18, 120058, Note_on_c, 13, 54, 0
18, 120060, Note_on_c, 13, 55, 100
18, 120118, Note_on_c, 13, 55, 0
18, 120120, Note_on_c, 13, 43, 100
18, 120178, Note_on_c, 13, 43, 0
18, 120210, Note_on_c, 13, 50, 100
18, 120238, Note_on_c, 13, 50, 0
18, 120240, Note_on_c, 13, 50, 100
18, 120268, Note_on_c, 13, 50, 0
18, 120270, Note_on_c, 13, 50, 100
18, 120298, Note_on_c, 13, 50, 0
18, 120300, Note_on_c, 13, 52, 100
18, 120358, Note_on_c, 13, 52, 0
18, 120360, Note_on_c, 13, 40, 100
18, 120418, Note_on_c, 13, 40, 0
18, 120450, Note_on_c, 13, 45, 100
18, 120478, Note_on_c, 13, 45, 0
18, 120480, Note_on_c, 13, 45, 100
18, 120508, Note_on_c, 13, 45, 0
18, 120510, Note_on_c, 13, 45, 100
18, 120538, Note_on_c, 13, 45, 0
18, 120540, Note_on_c, 13, 50, 100
18, 120598, Note_on_c, 13, 50, 0
18, 120600, Note_on_c, 13, 38, 100
18, 120658, Note_on_c, 13, 38, 0
18, 120690, Note_on_c, 13, 43, 100
18, 120718, Note_on_c, 13, 43, 0
18, 120720, Note_on_c, 13, 43, 100
18, 120748, Note_on_c, 13, 43, 0
18, 120750, Note_on_c, 13, 43, 100
18, 120778, Note_on_c, 13, 43, 0
18, 120780, Note_on_c, 13, 48, 100
18, 120838, Note_on_c, 13, 48, 0
18, 120840, Note_on_c, 13, 36, 100
18, 120898, Note_on_c, 13, 36, 0
18, 120930, Note_on_c, 13, 50, 100
18, 120958, Note_on_c, 13, 50, 0
18, 120960, Note_on_c, 13, 50, 100
18, 120988, Note_on_c, 13, 50, 0
18, 120990, Note_on_c, 13, 50, 100
18, 121018, Note_on_c, 13, 50, 0
18, 121020, Note_on_c, 13, 55, 100
18, 121078, Note_on_c, 13, 55, 0
18, 121080, Note_on_c, 13, 43, 100
18, 121138, Note_on_c, 13, 43, 0
18, 121170, Note_on_c, 13, 55, 100
18, 121198, Note_on_c, 13, 55, 0
18, 121200, Note_on_c, 13, 55, 100
18, 121228, Note_on_c, 13, 55, 0
18, 121230, Note_on_c, 13, 55, 100
18, 121258, Note_on_c, 13, 55, 0
18, 121260, Note_on_c, 13, 53, 100
18, 121318, Note_on_c, 13, 53, 0
18, 121320, Note_on_c, 13, 41, 100
18, 121378, Note_on_c, 13, 41, 0
18, 121410, Note_on_c, 13, 53, 100
18, 121438, Note_on_c, 13, 53, 0
18, 121440, Note_on_c, 13, 53, 100
18, 121468, Note_on_c, 13, 53, 0
18, 121470, Note_on_c, 13, 53, 100
18, 121498, Note_on_c, 13, 53, 0
18, 121500, Note_on_c, 13, 52, 100
18, 121558, Note_on_c, 13, 52, 0
18, 121560, Note_on_c, 13, 40, 100
18, 121618, Note_on_c, 13, 40, 0
18, 121650, Note_on_c, 13, 52, 100
18, 121678, Note_on_c, 13, 52, 0
18, 121680, Note_on_c, 13, 52, 100
18, 121708, Note_on_c, 13, 52, 0
18, 121710, Note_on_c, 13, 52, 100
18, 121738, Note_on_c, 13, 52, 0
18, 121740, Note_on_c, 13, 47, 100
18, 121798, Note_on_c, 13, 47, 0
18, 121800, Note_on_c, 13, 59, 100
18, 121858, Note_on_c, 13, 59, 0
18, 121890, Note_on_c, 13, 47, 100
18, 121918, Note_on_c, 13, 47, 0
18, 121920, Note_on_c, 13, 47, 100
18, 121948, Note_on_c, 13, 47, 0
18, 121950, Note_on_c, 13, 47, 100
18, 121978, Note_on_c, 13, 47, 0
18, 121980, Note_on_c, 13, 48, 100
18, 122038, Note_on_c, 13, 48, 0
18, 122040, Note_on_c, 13, 36, 100
18, 122098, Note_on_c, 13, 36, 0
18, 122130, Note_on_c, 13, 55, 100
18, 122158, Note_on_c, 13, 55, 0
18, 122160, Note_on_c, 13, 55, 100
18, 122188, Note_on_c, 13, 55, 0
18, 122190, Note_on_c, 13, 55, 100
18, 122218, Note_on_c, 13, 55, 0
18, 122220, Note_on_c, 13, 57, 100
18, 122278, Note_on_c, 13, 57, 0
18, 122280, Note_on_c, 13, 45, 100
18, 122338, Note_on_c, 13, 45, 0
18, 122370, Note_on_c, 13, 50, 100
18, 122398, Note_on_c, 13, 50, 0
18, 122400, Note_on_c, 13, 50, 100
18, 122428, Note_on_c, 13, 50, 0
18, 122430, Note_on_c, 13, 50, 100
18, 122458, Note_on_c, 13, 50, 0
18, 122460, Note_on_c, 13, 55, 100
18, 122518, Note_on_c, 13, 55, 0
18, 122520, Note_on_c, 13, 43, 100
18, 122578, Note_on_c, 13, 43, 0
18, 122610, Note_on_c, 13, 60, 100
18, 122638, Note_on_c, 13, 60, 0
18, 122640, Note_on_c, 13, 60, 100
18, 122668, Note_on_c, 13, 60, 0
18, 122670, Note_on_c, 13, 60, 100
18, 122698, Note_on_c, 13, 60, 0
18, 122700, Note_on_c, 13, 59, 100
18, 122758, Note_on_c, 13, 59, 0
18, 122760, Note_on_c, 13, 47, 100
18, 122818, Note_on_c, 13, 47, 0
18, 122850, Note_on_c, 13, 57, 100
18, 122878, Note_on_c, 13, 57, 0
18, 122880, Note_on_c, 13, 57, 100
18, 122908, Note_on_c, 13, 57, 0
18, 122910, Note_on_c, 13, 57, 100
18, 122938, Note_on_c, 13, 57, 0
18, 122940, Note_on_c, 13, 50, 100
18, 122998, Note_on_c, 13, 50, 0
18, 123000, Note_on_c, 13, 38, 100
18, 123058, Note_on_c, 13, 38, 0
18, 123090, Note_on_c, 13, 50, 100
18, 123118, Note_on_c, 13, 50, 0
18, 123120, Note_on_c, 13, 50, 100
18, 123148, Note_on_c, 13, 50, 0
18, 123150, Note_on_c, 13, 50, 100
18, 123178, Note_on_c, 13, 50, 0
18, 123180, Note_on_c, 13, 48, 100
18, 123238, Note_on_c, 13, 48, 0
18, 123240, Note_on_c, 13, 36, 100
18, 123298, Note_on_c, 13, 36, 0
18, 123330, Note_on_c, 13, 48, 100
18, 123358, Note_on_c, 13, 48, 0
18, 123360, Note_on_c, 13, 48, 100
18, 123388, Note_on_c, 13, 48, 0
18, 123390, Note_on_c, 13, 48, 100
18, 123418, Note_on_c, 13, 48, 0
18, 123420, Note_on_c, 13, 47, 100
18, 123478, Note_on_c, 13, 47, 0
18, 123480, Note_on_c, 13, 59, 100
18, 123538, Note_on_c, 13, 59, 0
18, 123570, Note_on_c, 13, 47, 100
18, 123598, Note_on_c, 13, 47, 0
18, 123600, Note_on_c, 13, 47, 100
18, 123628, Note_on_c, 13, 47, 0
18, 123630, Note_on_c, 13, 47, 100
18, 123658, Note_on_c, 13, 47, 0
18, 123660, Note_on_c, 13, 42, 100
18, 123718, Note_on_c, 13, 42, 0
18, 123720, Note_on_c, 13, 54, 100
18, 123778, Note_on_c, 13, 54, 0
18, 123810, Note_on_c, 13, 42, 100
18, 123838, Note_on_c, 13, 42, 0
18, 123840, Note_on_c, 13, 42, 100
18, 123868, Note_on_c, 13, 42, 0
18, 123870, Note_on_c, 13, 42, 100
18, 123898, Note_on_c, 13, 42, 0
18, 123900, Note_on_c, 13, 43, 100
18, 123958, Note_on_c, 13, 43, 0
18, 123960, Note_on_c, 13, 55, 100
18, 124018, Note_on_c, 13, 55, 0
18, 124050, Note_on_c, 13, 50, 100
18, 124078, Note_on_c, 13, 50, 0
18, 124080, Note_on_c, 13, 50, 100
18, 124108, Note_on_c, 13, 50, 0
18, 124110, Note_on_c, 13, 50, 100
18, 124138, Note_on_c, 13, 50, 0
18, 124140, Note_on_c, 13, 52, 100
18, 124198, Note_on_c, 13, 52, 0
18, 124200, Note_on_c, 13, 40, 100
18, 124258, Note_on_c, 13, 40, 0
18, 124290, Note_on_c, 13, 45, 100
18, 124318, Note_on_c, 13, 45, 0
18, 124320, Note_on_c, 13, 45, 100
18, 124348, Note_on_c, 13, 45, 0
18, 124350, Note_on_c, 13, 45, 100
18, 124378, Note_on_c, 13, 45, 0
18, 124380, Note_on_c, 13, 50, 100
18, 124438, Note_on_c, 13, 50, 0
18, 124440, Note_on_c, 13, 38, 100
18, 124498, Note_on_c, 13, 38, 0
18, 124530, Note_on_c, 13, 55, 100
18, 124558, Note_on_c, 13, 55, 0
18, 124560, Note_on_c, 13, 55, 100
18, 124588, Note_on_c, 13, 55, 0
18, 124590, Note_on_c, 13, 55, 100
18, 124618, Note_on_c, 13, 55, 0
18, 124620, Note_on_c, 13, 54, 100
18, 124678, Note_on_c, 13, 54, 0
18, 124680, Note_on_c, 13, 42, 100
18, 124738, Note_on_c, 13, 42, 0
18, 124770, Note_on_c, 13, 52, 100
18, 124798, Note_on_c, 13, 52, 0
18, 124800, Note_on_c, 13, 52, 100
18, 124828, Note_on_c, 13, 52, 0
18, 124830, Note_on_c, 13, 52, 100
18, 124858, Note_on_c, 13, 52, 0
18, 124860, Note_on_c, 13, 57, 100
18, 124918, Note_on_c, 13, 57, 0
18, 124920, Note_on_c, 13, 45, 100
18, 124978, Note_on_c, 13, 45, 0
18, 125010, Note_on_c, 13, 57, 100
18, 125038, Note_on_c, 13, 57, 0
18, 125040, Note_on_c, 13, 57, 100
18, 125068, Note_on_c, 13, 57, 0
18, 125070, Note_on_c, 13, 57, 100
18, 125098, Note_on_c, 13, 57, 0
18, 125100, Note_on_c, 13, 55, 100
18, 125158, Note_on_c, 13, 55, 0
18, 125160, Note_on_c, 13, 43, 100
18, 125218, Note_on_c, 13, 43, 0
18, 125250, Note_on_c, 13, 55, 100
18, 125278, Note_on_c, 13, 55, 0
18, 125280, Note_on_c, 13, 55, 100
18, 125308, Note_on_c, 13, 55, 0
18, 125310, Note_on_c, 13, 55, 100
18, 125338, Note_on_c, 13, 55, 0
18, 125340, Note_on_c, 13, 54, 100
18, 125398, Note_on_c, 13, 54, 0
18, 125400, Note_on_c, 13, 42, 100
18, 125458, Note_on_c, 13, 42, 0
18, 125490, Note_on_c, 13, 54, 100
18, 125518, Note_on_c, 13, 54, 0
18, 125520, Note_on_c, 13, 54, 100
18, 125548, Note_on_c, 13, 54, 0
18, 125550, Note_on_c, 13, 54, 100
18, 125578, Note_on_c, 13, 54, 0
18, 125580, Note_on_c, 13, 49, 100
18, 125638, Note_on_c, 13, 49, 0
18, 125640, Note_on_c, 13, 37, 100
18, 125698, Note_on_c, 13, 37, 0
18, 125730, Note_on_c, 13, 49, 100
18, 125758, Note_on_c, 13, 49, 0
18, 125760, Note_on_c, 13, 49, 100
18, 125788, Note_on_c, 13, 49, 0
18, 125790, Note_on_c, 13, 49, 100
18, 125818, Note_on_c, 13, 49, 0
18, 125820, Note_on_c, 13, 50, 100
18, 125878, Note_on_c, 13, 50, 0
18, 125880, Note_on_c, 13, 38, 100
18, 125938, Note_on_c, 13, 38, 0
18, 125970, Note_on_c, 13, 45, 100
18, 125998, Note_on_c, 13, 45, 0
18, 126000, Note_on_c, 13, 45, 100
18, 126028, Note_on_c, 13, 45, 0
18, 126030, Note_on_c, 13, 45, 100
18, 126058, Note_on_c, 13, 45, 0
18, 126060, Note_on_c, 13, 47, 100
18, 126118, Note_on_c, 13, 47, 0
18, 126120, Note_on_c, 13, 59, 100
18, 126178, Note_on_c, 13, 59, 0
18, 126210, Note_on_c, 13, 40, 100
18, 126238, Note_on_c, 13, 40, 0
18, 126240, Note_on_c, 13, 40, 100
18, 126268, Note_on_c, 13, 40, 0
18, 126270, Note_on_c, 13, 40, 100
18, 126298, Note_on_c, 13, 40, 0
18, 126300, Note_on_c, 13, 45, 100
18, 126358, Note_on_c, 13, 45, 0
18, 126360, Note_on_c, 13, 57, 100
18, 126418, Note_on_c, 13, 57, 0
18, 126450, Note_on_c, 13, 54, 100
18, 126478, Note_on_c, 13, 54, 0
18, 126480, Note_on_c, 13, 54, 100
18, 126508, Note_on_c, 13, 54, 0
18, 126510, Note_on_c, 13, 54, 100
18, 126538, Note_on_c, 13, 54, 0
18, 126540, Note_on_c, 13, 55, 100
18, 126598, Note_on_c, 13, 55, 0
18, 126600, Note_on_c, 13, 43, 100
18, 126658, Note_on_c, 13, 43, 0
18, 126690, Note_on_c, 13, 52, 100
18, 126718, Note_on_c, 13, 52, 0
18, 126720, Note_on_c, 13, 52, 100
18, 126748, Note_on_c, 13, 52, 0
18, 126750, Note_on_c, 13, 52, 100
18, 126778, Note_on_c, 13, 52, 0
18, 126780, Note_on_c, 13, 50, 100
18, 126838, Note_on_c, 13, 50, 0
18, 126840, Note_on_c, 13, 38, 100
18, 126898, Note_on_c, 13, 38, 0
18, 126930, Note_on_c, 13, 62, 100
18, 126958, Note_on_c, 13, 62, 0
18, 126960, Note_on_c, 13, 62, 100
18, 126988, Note_on_c, 13, 62, 0
18, 126990, Note_on_c, 13, 62, 100
18, 127018, Note_on_c, 13, 62, 0
18, 127020, Note_on_c, 13, 60, 100
18, 127078, Note_on_c, 13, 60, 0
18, 127080, Note_on_c, 13, 48, 100
18, 127138, Note_on_c, 13, 48, 0
18, 127170, Note_on_c, 13, 60, 100
18, 127198, Note_on_c, 13, 60, 0
18, 127200, Note_on_c, 13, 60, 100
18, 127228, Note_on_c, 13, 60, 0
18, 127230, Note_on_c, 13, 60, 100
18, 127258, Note_on_c, 13, 60, 0
18, 127260, Note_on_c, 13, 59, 100
18, 127318, Note_on_c, 13, 59, 0
18, 127320, Note_on_c, 13, 47, 100
18, 127378, Note_on_c, 13, 47, 0
18, 127410, Note_on_c, 13, 59, 100
18, 127438, Note_on_c, 13, 59, 0
18, 127440, Note_on_c, 13, 59, 100
18, 127468, Note_on_c, 13, 59, 0
18, 127470, Note_on_c, 13, 59, 100
18, 127498, Note_on_c, 13, 59, 0
18, 127500, Note_on_c, 13, 54, 100
18, 127558, Note_on_c, 13, 54, 0
18, 127560, Note_on_c, 13, 45, 100
18, 127618, Note_on_c, 13, 45, 0
18, 127650, Note_on_c, 13, 54, 100
18, 127678, Note_on_c, 13, 54, 0
18, 127680, Note_on_c, 13, 54, 100
18, 127708, Note_on_c, 13, 54, 0
18, 127710, Note_on_c, 13, 54, 100
18, 127738, Note_on_c, 13, 54, 0
18, 127740, Note_on_c, 13, 55, 100
18, 127798, Note_on_c, 13, 55, 0
18, 127800, Note_on_c, 13, 43, 100
18, 127858, Note_on_c, 13, 43, 0
18, 127890, Note_on_c, 13, 50, 100
18, 127918, Note_on_c, 13, 50, 0
18, 127920, Note_on_c, 13, 50, 100
18, 127948, Note_on_c, 13, 50, 0
18, 127950, Note_on_c, 13, 50, 100
18, 127978, Note_on_c, 13, 50, 0
18, 127980, Note_on_c, 13, 52, 100
18, 128038, Note_on_c, 13, 52, 0
18, 128040, Note_on_c, 13, 40, 100
18, 128098, Note_on_c, 13, 40, 0
18, 128130, Note_on_c, 13, 45, 100
18, 128158, Note_on_c, 13, 45, 0
18, 128160, Note_on_c, 13, 45, 100
18, 128188, Note_on_c, 13, 45, 0
18, 128190, Note_on_c, 13, 45, 100
18, 128218, Note_on_c, 13, 45, 0
18, 128220, Note_on_c, 13, 50, 100
18, 128278, Note_on_c, 13, 50, 0
18, 128280, Note_on_c, 13, 38, 100
18, 128338, Note_on_c, 13, 38, 0
18, 128370, Note_on_c, 13, 55, 100
18, 128398, Note_on_c, 13, 55, 0
18, 128400, Note_on_c, 13, 55, 100
18, 128428, Note_on_c, 13, 55, 0
18, 128430, Note_on_c, 13, 55, 100
18, 128458, Note_on_c, 13, 55, 0
18, 128460, Note_on_c, 13, 54, 100
18, 128518, Note_on_c, 13, 54, 0
18, 128520, Note_on_c, 13, 42, 100
18, 128578, Note_on_c, 13, 42, 0
18, 128610, Note_on_c, 13, 52, 100
18, 128638, Note_on_c, 13, 52, 0
18, 128640, Note_on_c, 13, 52, 100
18, 128668, Note_on_c, 13, 52, 0
18, 128670, Note_on_c, 13, 52, 100
18, 128698, Note_on_c, 13, 52, 0
18, 128700, Note_on_c, 13, 57, 100
18, 128758, Note_on_c, 13, 57, 0
18, 128760, Note_on_c, 13, 45, 100
18, 128818, Note_on_c, 13, 45, 0
18, 128850, Note_on_c, 13, 54, 100
18, 128878, Note_on_c, 13, 54, 0
18, 128880, Note_on_c, 13, 54, 100
18, 128908, Note_on_c, 13, 54, 0
18, 128910, Note_on_c, 13, 54, 100
18, 128938, Note_on_c, 13, 54, 0
18, 128940, Note_on_c, 13, 52, 100
18, 128998, Note_on_c, 13, 52, 0
18, 129000, Note_on_c, 13, 40, 100
18, 129058, Note_on_c, 13, 40, 0
18, 129090, Note_on_c, 13, 49, 100
18, 129118, Note_on_c, 13, 49, 0
18, 129120, Note_on_c, 13, 49, 100
18, 129148, Note_on_c, 13, 49, 0
18, 129150, Note_on_c, 13, 49, 100
18, 129178, Note_on_c, 13, 49, 0
18, 129180, Note_on_c, 13, 47, 100
18, 129238, Note_on_c, 13, 47, 0
18, 129240, Note_on_c, 13, 59, 100
18, 129298, Note_on_c, 13, 59, 0
18, 129330, Note_on_c, 13, 55, 100
18, 129358, Note_on_c, 13, 55, 0
18, 129360, Note_on_c, 13, 55, 100
18, 129388, Note_on_c, 13, 55, 0
18, 129390, Note_on_c, 13, 55, 100
18, 129418, Note_on_c, 13, 55, 0
18, 129420, Note_on_c, 13, 54, 100
18, 129478, Note_on_c, 13, 54, 0
18, 129480, Note_on_c, 13, 42, 100
18, 129538, Note_on_c, 13, 42, 0
18, 129570, Note_on_c, 13, 47, 100
18, 129598, Note_on_c, 13, 47, 0
18, 129600, Note_on_c, 13, 50, 100
18, 129628, Note_on_c, 13, 50, 0
18, 129630, Note_on_c, 13, 47, 100
18, 129658, Note_on_c, 13, 47, 0
18, 129660, Note_on_c, 13, 52, 100
18, 129718, Note_on_c, 13, 52, 0
18, 129720, Note_on_c, 13, 40, 100
18, 129778, Note_on_c, 13, 40, 0
18, 129810, Note_on_c, 13, 45, 100
18, 129838, Note_on_c, 13, 45, 0
18, 129840, Note_on_c, 13, 49, 100
18, 129868, Note_on_c, 13, 49, 0
18, 129870, Note_on_c, 13, 52, 100
18, 129898, Note_on_c, 13, 52, 0
18, 129900, Note_on_c, 13, 57, 100
18, 129958, Note_on_c, 13, 57, 0
18, 129960, Note_on_c, 13, 45, 100
18, 130018, Note_on_c, 13, 45, 0
18, 130290, Note_on_c, 13, 52, 100
18, 130318, Note_on_c, 13, 52, 0
18, 130320, Note_on_c, 13, 49, 100
18, 130348, Note_on_c, 13, 49, 0
18, 130350, Note_on_c, 13, 45, 100
18, 130378, Note_on_c, 13, 45, 0
18, 130380, Note_on_c, 13, 41, 100
18, 130438, Note_on_c, 13, 41, 0
18, 130440, Note_on_c, 13, 53, 100
18, 130498, Note_on_c, 13, 53, 0
18, 130740, Note_on_c, 13, 42, 100
18, 130978, Note_on_c, 13, 42, 0
18, 130980, Note_on_c, 13, 42, 100
18, 131098, Note_on_c, 13, 42, 0
18, 131100, Note_on_c, 13, 43, 100
18, 131338, Note_on_c, 13, 43, 0
18, 131340, Note_on_c, 13, 44, 100
18, 131578, Note_on_c, 13, 44, 0
18, 131580, Note_on_c, 13, 42, 100
18, 132058, Note_on_c, 13, 42, 0
18, 132060, Note_on_c, 13, 47, 100
18, 132178, Note_on_c, 13, 47, 0
18, 132180, Note_on_c, 13, 47, 100
18, 132418, Note_on_c, 13, 47, 0
18, 132420, Note_on_c, 13, 40, 100
18, 132538, Note_on_c, 13, 40, 0
18, 132540, Note_on_c, 13, 45, 100
18, 132778, Note_on_c, 13, 45, 0
18, 132780, Note_on_c, 13, 44, 100
18, 133018, Note_on_c, 13, 44, 0
18, 133020, Note_on_c, 13, 45, 100
18, 133498, Note_on_c, 13, 45, 0
18, 133500, Note_on_c, 13, 38, 100
18, 133978, Note_on_c, 13, 38, 0
18, 134460, Control_c, 13, 0, 0
18, 134820, Note_on_c, 13, 42, 100
18, 134938, Note_on_c, 13, 42, 0
18, 134940, Note_on_c, 13, 45, 100
18, 135058, Note_on_c, 13, 45, 0
18, 135060, Note_on_c, 13, 49, 100
18, 135178, Note_on_c, 13, 49, 0
18, 135180, Note_on_c, 13, 54, 100
18, 135358, Note_on_c, 13, 54, 0
18, 135360, Note_on_c, 13, 56, 100
18, 135388, Note_on_c, 13, 56, 0
18, 135390, Note_on_c, 13, 57, 100
18, 135418, Note_on_c, 13, 57, 0
18, 135420, Note_on_c, 13, 56, 100
18, 135448, Note_on_c, 13, 56, 0
18, 135450, Note_on_c, 13, 54, 100
18, 135478, Note_on_c, 13, 54, 0
18, 135480, Note_on_c, 13, 53, 100
18, 135508, Note_on_c, 13, 53, 0
18, 135510, Note_on_c, 13, 51, 100
18, 135538, Note_on_c, 13, 51, 0
18, 135540, Note_on_c, 13, 49, 100
18, 135658, Note_on_c, 13, 49, 0
18, 135660, Note_on_c, 13, 53, 100
18, 135778, Note_on_c, 13, 53, 0
18, 135780, Note_on_c, 13, 56, 100
18, 135898, Note_on_c, 13, 56, 0
18, 135900, Note_on_c, 13, 59, 100
18, 136078, Note_on_c, 13, 59, 0
18, 136080, Note_on_c, 13, 61, 100
18, 136108, Note_on_c, 13, 61, 0
18, 136110, Note_on_c, 13, 62, 100
18, 136138, Note_on_c, 13, 62, 0
18, 136140, Note_on_c, 13, 61, 100
18, 136168, Note_on_c, 13, 61, 0
18, 136170, Note_on_c, 13, 59, 100
18, 136198, Note_on_c, 13, 59, 0
18, 136200, Note_on_c, 13, 57, 100
18, 136228, Note_on_c, 13, 57, 0
18, 136230, Note_on_c, 13, 56, 100
18, 136258, Note_on_c, 13, 56, 0
18, 136260, Note_on_c, 13, 54, 100
18, 136340, Note_on_c, 13, 54, 0
18, 136380, Note_on_c, 13, 52, 100
18, 136460, Note_on_c, 13, 52, 0
18, 136500, Note_on_c, 13, 50, 100
18, 136580, Note_on_c, 13, 50, 0
18, 136620, Note_on_c, 13, 49, 100
18, 136660, Note_on_c, 13, 49, 0
18, 136680, Note_on_c, 13, 53, 100
18, 136700, Note_on_c, 13, 53, 0
18, 136710, Note_on_c, 13, 56, 100
18, 136730, Note_on_c, 13, 56, 0
18, 136740, Note_on_c, 13, 61, 100
18, 136780, Note_on_c, 13, 61, 0
18, 136800, Note_on_c, 13, 49, 100
18, 136820, Note_on_c, 13, 49, 0
18, 136830, Note_on_c, 13, 61, 100
18, 136850, Note_on_c, 13, 61, 0
18, 136860, Note_on_c, 13, 59, 100
18, 136900, Note_on_c, 13, 59, 0
18, 136920, Note_on_c, 13, 49, 100
18, 136940, Note_on_c, 13, 49, 0
18, 136950, Note_on_c, 13, 59, 100
18, 136970, Note_on_c, 13, 59, 0
18, 136980, Note_on_c, 13, 57, 100
18, 137020, Note_on_c, 13, 57, 0
18, 137040, Note_on_c, 13, 49, 100
18, 137060, Note_on_c, 13, 49, 0
18, 137070, Note_on_c, 13, 57, 100
18, 137090, Note_on_c, 13, 57, 0
18, 137100, Note_on_c, 13, 56, 100
18, 137140, Note_on_c, 13, 56, 0
18, 137160, Note_on_c, 13, 49, 100
18, 137180, Note_on_c, 13, 49, 0
18, 137190, Note_on_c, 13, 56, 100
18, 137210, Note_on_c, 13, 56, 0
18, 137220, Note_on_c, 13, 54, 100
18, 137260, Note_on_c, 13, 54, 0
18, 137280, Note_on_c, 13, 49, 100
18, 137300, Note_on_c, 13, 49, 0
18, 137310, Note_on_c, 13, 54, 100
18, 137330, Note_on_c, 13, 54, 0
18, 137340, Note_on_c, 13, 53, 100
18, 137488, Note_on_c, 13, 53, 0
18, 137490, Note_on_c, 13, 49, 100
18, 137518, Note_on_c, 13, 49, 0
18, 137520, Note_on_c, 13, 51, 100
18, 137548, Note_on_c, 13, 51, 0
18, 137550, Note_on_c, 13, 53, 100
18, 137578, Note_on_c, 13, 53, 0
18, 137580, Note_on_c, 13, 54, 100
18, 137608, Note_on_c, 13, 54, 0
18, 137610, Note_on_c, 13, 56, 100
18, 137638, Note_on_c, 13, 56, 0
18, 137640, Note_on_c, 13, 57, 100
18, 137668, Note_on_c, 13, 57, 0
18, 137670, Note_on_c, 13, 54, 100
18, 137698, Note_on_c, 13, 54, 0
18, 137700, Note_on_c, 13, 47, 100
18, 137818, Note_on_c, 13, 47, 0
18, 138060, Note_on_c, 13, 49, 100
18, 138140, Note_on_c, 13, 49, 0
18, 138420, Note_on_c, 13, 50, 100
18, 138500, Note_on_c, 13, 50, 0
18, 138780, Note_on_c, 13, 41, 100
18, 138840, Note_on_c, 13, 41, 0
18, 138870, Note_on_c, 13, 44, 100
18, 138880, Note_on_c, 13, 44, 0
18, 138885, Note_on_c, 13, 45, 100
18, 138895, Note_on_c, 13, 45, 0
18, 138900, Note_on_c, 13, 47, 100
18, 138940, Note_on_c, 13, 47, 0
18, 139080, Note_on_c, 13, 44, 100
18, 139120, Note_on_c, 13, 44, 0
18, 139140, Note_on_c, 13, 45, 100
18, 139200, Note_on_c, 13, 45, 0
18, 139230, Note_on_c, 13, 47, 100
18, 139250, Note_on_c, 13, 47, 0
18, 139260, Note_on_c, 13, 49, 100
18, 139340, Note_on_c, 13, 49, 0
18, 139380, Note_on_c, 13, 37, 100
18, 139440, Note_on_c, 13, 37, 0
18, 139470, Note_on_c, 13, 54, 100
18, 139490, Note_on_c, 13, 54, 0
18, 139500, Note_on_c, 13, 54, 100
18, 139620, Note_on_c, 13, 54, 0
18, 139680, Note_on_c, 13, 52, 100
18, 139700, Note_on_c, 13, 52, 0
18, 139710, Note_on_c, 13, 50, 100
18, 139730, Note_on_c, 13, 50, 0
18, 139740, Note_on_c, 13, 49, 100
18, 139760, Note_on_c, 13, 49, 0
18, 139770, Note_on_c, 13, 47, 100
18, 139790, Note_on_c, 13, 47, 0
18, 139800, Note_on_c, 13, 45, 100
18, 139820, Note_on_c, 13, 45, 0
18, 139830, Note_on_c, 13, 44, 100
18, 139850, Note_on_c, 13, 44, 0
18, 139860, Note_on_c, 13, 42, 100
18, 139978, Note_on_c, 13, 42, 0
18, 139980, Note_on_c, 13, 45, 100
18, 140098, Note_on_c, 13, 45, 0
18, 140100, Note_on_c, 13, 49, 100
18, 140218, Note_on_c, 13, 49, 0
18, 140220, Note_on_c, 13, 54, 100
18, 140398, Note_on_c, 13, 54, 0
18, 140400, Note_on_c, 13, 56, 100
18, 140428, Note_on_c, 13, 56, 0
18, 140430, Note_on_c, 13, 57, 100
18, 140458, Note_on_c, 13, 57, 0
18, 140460, Note_on_c, 13, 56, 100
18, 140488, Note_on_c, 13, 56, 0
18, 140490, Note_on_c, 13, 54, 100
18, 140518, Note_on_c, 13, 54, 0
18, 140520, Note_on_c, 13, 53, 100
18, 140548, Note_on_c, 13, 53, 0
18, 140550, Note_on_c, 13, 51, 100
18, 140578, Note_on_c, 13, 51, 0
18, 140580, Note_on_c, 13, 49, 100
18, 140698, Note_on_c, 13, 49, 0
18, 140700, Note_on_c, 13, 53, 100
18, 140818, Note_on_c, 13, 53, 0
18, 140820, Note_on_c, 13, 56, 100
18, 140938, Note_on_c, 13, 56, 0
18, 140940, Note_on_c, 13, 59, 100
18, 141118, Note_on_c, 13, 59, 0
18, 141120, Note_on_c, 13, 61, 100
18, 141148, Note_on_c, 13, 61, 0
18, 141150, Note_on_c, 13, 62, 100
18, 141178, Note_on_c, 13, 62, 0
18, 141180, Note_on_c, 13, 61, 100
18, 141208, Note_on_c, 13, 61, 0
18, 141210, Note_on_c, 13, 59, 100
18, 141238, Note_on_c, 13, 59, 0
18, 141240, Note_on_c, 13, 57, 100
18, 141268, Note_on_c, 13, 57, 0
18, 141270, Note_on_c, 13, 56, 100
18, 141298, Note_on_c, 13, 56, 0
18, 141300, Note_on_c, 13, 54, 100
18, 141380, Note_on_c, 13, 54, 0
18, 141420, Note_on_c, 13, 52, 100
18, 141500, Note_on_c, 13, 52, 0
18, 141540, Note_on_c, 13, 50, 100
18, 141620, Note_on_c, 13, 50, 0
18, 141660, Note_on_c, 13, 49, 100
18, 141700, Note_on_c, 13, 49, 0
18, 141720, Note_on_c, 13, 53, 100
18, 141740, Note_on_c, 13, 53, 0
18, 141750, Note_on_c, 13, 56, 100
18, 141770, Note_on_c, 13, 56, 0
18, 141780, Note_on_c, 13, 61, 100
18, 141820, Note_on_c, 13, 61, 0
18, 141840, Note_on_c, 13, 49, 100
18, 141860, Note_on_c, 13, 49, 0
18, 141870, Note_on_c, 13, 61, 100
18, 141890, Note_on_c, 13, 61, 0
18, 141900, Note_on_c, 13, 59, 100
18, 141940, Note_on_c, 13, 59, 0
18, 141960, Note_on_c, 13, 49, 100
18, 141980, Note_on_c, 13, 49, 0
18, 141990, Note_on_c, 13, 59, 100
18, 142010, Note_on_c, 13, 59, 0
18, 142020, Note_on_c, 13, 57, 100
18, 142060, Note_on_c, 13, 57, 0
18, 142080, Note_on_c, 13, 49, 100
18, 142100, Note_on_c, 13, 49, 0
18, 142110, Note_on_c, 13, 57, 100
18, 142130, Note_on_c, 13, 57, 0
18, 142140, Note_on_c, 13, 56, 100
18, 142180, Note_on_c, 13, 56, 0
18, 142200, Note_on_c, 13, 49, 100
18, 142220, Note_on_c, 13, 49, 0
18, 142230, Note_on_c, 13, 56, 100
18, 142250, Note_on_c, 13, 56, 0
18, 142260, Note_on_c, 13, 54, 100
18, 142300, Note_on_c, 13, 54, 0
18, 142320, Note_on_c, 13, 49, 100
18, 142340, Note_on_c, 13, 49, 0
18, 142350, Note_on_c, 13, 54, 100
18, 142370, Note_on_c, 13, 54, 0
18, 142380, Note_on_c, 13, 53, 100
18, 142528, Note_on_c, 13, 53, 0
18, 142530, Note_on_c, 13, 51, 100
18, 142558, Note_on_c, 13, 51, 0
18, 142560, Note_on_c, 13, 49, 100
18, 142588, Note_on_c, 13, 49, 0
18, 142590, Note_on_c, 13, 51, 100
18, 142618, Note_on_c, 13, 51, 0
18, 142620, Note_on_c, 13, 53, 100
18, 142648, Note_on_c, 13, 53, 0
18, 142650, Note_on_c, 13, 54, 100
18, 142678, Note_on_c, 13, 54, 0
18, 142680, Note_on_c, 13, 56, 100
18, 142708, Note_on_c, 13, 56, 0
18, 142710, Note_on_c, 13, 53, 100
18, 142738, Note_on_c, 13, 53, 0
18, 142740, Note_on_c, 13, 54, 100
18, 142820, Note_on_c, 13, 54, 0
18, 142860, Note_on_c, 13, 42, 100
18, 142940, Note_on_c, 13, 42, 0
18, 142980, Note_on_c, 13, 54, 100
18, 143060, Note_on_c, 13, 54, 0
18, 143100, Note_on_c, 13, 56, 100
18, 143180, Note_on_c, 13, 56, 0
18, 143220, Note_on_c, 13, 44, 100
18, 143300, Note_on_c, 13, 44, 0
18, 143340, Note_on_c, 13, 56, 100
18, 143420, Note_on_c, 13, 56, 0
18, 143460, Note_on_c, 13, 57, 100
18, 143540, Note_on_c, 13, 57, 0
18, 143580, Note_on_c, 13, 45, 100
18, 143660, Note_on_c, 13, 45, 0
18, 143700, Note_on_c, 13, 57, 100
18, 143780, Note_on_c, 13, 57, 0
18, 143820, Note_on_c, 13, 59, 100
18, 143900, Note_on_c, 13, 59, 0
18, 143940, Note_on_c, 13, 47, 100
18, 144020, Note_on_c, 13, 47, 0
18, 144120, Note_on_c, 13, 47, 100
18, 144160, Note_on_c, 13, 47, 0
18, 144180, Note_on_c, 13, 49, 100
18, 144220, Note_on_c, 13, 49, 0
18, 144240, Note_on_c, 13, 45, 100
18, 144280, Note_on_c, 13, 45, 0
18, 144300, Note_on_c, 13, 52, 100
18, 144380, Note_on_c, 13, 52, 0
18, 144420, Note_on_c, 13, 40, 100
18, 144500, Note_on_c, 13, 40, 0
18, 144540, Note_on_c, 13, 45, 100
18, 144620, Note_on_c, 13, 45, 0
18, 144660, Note_on_c, 13, 49, 100
18, 144740, Note_on_c, 13, 49, 0
18, 144780, Note_on_c, 13, 52, 100
18, 144860, Note_on_c, 13, 52, 0
18, 144900, Note_on_c, 13, 57, 100
18, 145020, Note_on_c, 13, 57, 0
18, 145080, Note_on_c, 13, 59, 100
18, 145100, Note_on_c, 13, 59, 0
18, 145110, Note_on_c, 13, 61, 100
18, 145130, Note_on_c, 13, 61, 0
18, 145140, Note_on_c, 13, 59, 100
18, 145160, Note_on_c, 13, 59, 0
18, 145170, Note_on_c, 13, 57, 100
18, 145190, Note_on_c, 13, 57, 0
18, 145200, Note_on_c, 13, 56, 100
18, 145220, Note_on_c, 13, 56, 0
18, 145230, Note_on_c, 13, 54, 100
18, 145250, Note_on_c, 13, 54, 0
18, 145260, Note_on_c, 13, 52, 100
18, 145340, Note_on_c, 13, 52, 0
18, 145380, Note_on_c, 13, 44, 100
18, 145460, Note_on_c, 13, 44, 0
18, 145500, Note_on_c, 13, 47, 100
18, 145580, Note_on_c, 13, 47, 0
18, 145620, Note_on_c, 13, 40, 100
18, 145740, Note_on_c, 13, 40, 0
18, 145800, Note_on_c, 13, 52, 100
18, 145820, Note_on_c, 13, 52, 0
18, 145830, Note_on_c, 13, 54, 100
18, 145850, Note_on_c, 13, 54, 0
18, 145860, Note_on_c, 13, 52, 100
18, 145880, Note_on_c, 13, 52, 0
18, 145890, Note_on_c, 13, 50, 100
18, 145910, Note_on_c, 13, 50, 0
18, 145920, Note_on_c, 13, 49, 100
18, 145940, Note_on_c, 13, 49, 0
18, 145950, Note_on_c, 13, 47, 100
18, 145970, Note_on_c, 13, 47, 0
18, 145980, Note_on_c, 13, 45, 100
18, 146060, Note_on_c, 13, 45, 0
18, 146100, Note_on_c, 13, 44, 100
18, 146180, Note_on_c, 13, 44, 0
18, 146220, Note_on_c, 13, 42, 100
18, 146300, Note_on_c, 13, 42, 0
18, 146340, Note_on_c, 13, 40, 100
18, 146460, Note_on_c, 13, 40, 0
18, 146520, Note_on_c, 13, 52, 100
18, 146540, Note_on_c, 13, 52, 0
18, 146550, Note_on_c, 13, 54, 100
18, 146570, Note_on_c, 13, 54, 0
18, 146580, Note_on_c, 13, 52, 100
18, 146600, Note_on_c, 13, 52, 0
18, 146610, Note_on_c, 13, 50, 100
18, 146630, Note_on_c, 13, 50, 0
18, 146640, Note_on_c, 13, 49, 100
18, 146660, Note_on_c, 13, 49, 0
18, 146670, Note_on_c, 13, 47, 100
18, 146690, Note_on_c, 13, 47, 0
18, 146700, Note_on_c, 13, 45, 100
18, 146760, Note_on_c, 13, 45, 0
18, 146790, Note_on_c, 13, 50, 100
18, 146810, Note_on_c, 13, 50, 0
18, 146820, Note_on_c, 13, 52, 100
18, 146900, Note_on_c, 13, 52, 0
18, 146940, Note_on_c, 13, 40, 100
18, 147020, Note_on_c, 13, 40, 0
18, 147060, Note_on_c, 13, 45, 100
18, 147140, Note_on_c, 13, 45, 0
18, 147180, Note_on_c, 13, 49, 100
18, 147260, Note_on_c, 13, 49, 0
18, 147300, Note_on_c, 13, 52, 100
18, 147380, Note_on_c, 13, 52, 0
18, 147420, Note_on_c, 13, 42, 100
18, 147540, Note_on_c, 13, 42, 0
18, 147600, Note_on_c, 13, 54, 100
18, 147620, Note_on_c, 13, 54, 0
18, 147630, Note_on_c, 13, 55, 100
18, 147650, Note_on_c, 13, 55, 0
18, 147660, Note_on_c, 13, 54, 100
18, 147680, Note_on_c, 13, 54, 0
18, 147690, Note_on_c, 13, 52, 100
18, 147710, Note_on_c, 13, 52, 0
18, 147720, Note_on_c, 13, 50, 100
18, 147740, Note_on_c, 13, 50, 0
18, 147750, Note_on_c, 13, 49, 100
18, 147770, Note_on_c, 13, 49, 0
18, 147780, Note_on_c, 13, 47, 100
18, 147860, Note_on_c, 13, 47, 0
18, 147900, Note_on_c, 13, 54, 100
18, 147980, Note_on_c, 13, 54, 0
18, 148020, Note_on_c, 13, 59, 100
18, 148100, Note_on_c, 13, 59, 0
18, 148140, Note_on_c, 13, 53, 100
18, 148280, Note_on_c, 13, 53, 0
18, 148290, Note_on_c, 13, 54, 100
18, 148310, Note_on_c, 13, 54, 0
18, 148320, Note_on_c, 13, 53, 100
18, 148340, Note_on_c, 13, 53, 0
18, 148350, Note_on_c, 13, 51, 100
18, 148370, Note_on_c, 13, 51, 0
18, 148380, Note_on_c, 13, 49, 100
18, 148400, Note_on_c, 13, 49, 0
18, 148410, Note_on_c, 13, 47, 100
18, 148430, Note_on_c, 13, 47, 0
18, 148440, Note_on_c, 13, 45, 100
18, 148460, Note_on_c, 13, 45, 0
18, 148470, Note_on_c, 13, 44, 100
18, 148490, Note_on_c, 13, 44, 0
18, 148500, Note_on_c, 13, 42, 100
18, 148580, Note_on_c, 13, 42, 0
18, 148620, Note_on_c, 13, 40, 100
18, 148700, Note_on_c, 13, 40, 0
18, 148740, Note_on_c, 13, 38, 100
18, 148820, Note_on_c, 13, 38, 0
18, 148860, Note_on_c, 13, 37, 100
18, 148900, Note_on_c, 13, 37, 0
18, 148920, Note_on_c, 13, 49, 100
18, 148960, Note_on_c, 13, 49, 0
18, 148980, Note_on_c, 13, 53, 100
18, 149020, Note_on_c, 13, 53, 0
18, 149040, Note_on_c, 13, 56, 100
18, 149080, Note_on_c, 13, 56, 0
18, 149100, Note_on_c, 13, 53, 100
18, 149140, Note_on_c, 13, 53, 0
18, 149160, Note_on_c, 13, 49, 100
18, 149200, Note_on_c, 13, 49, 0
18, 149220, Note_on_c, 13, 37, 100
18, 149620, Note_on_c, 13, 37, 0
18, 149640, Note_on_c, 13, 56, 100
18, 149680, Note_on_c, 13, 56, 0
18, 149700, Note_on_c, 13, 57, 100
18, 149740, Note_on_c, 13, 57, 0
18, 149760, Note_on_c, 13, 61, 100
18, 149800, Note_on_c, 13, 61, 0
18, 149820, Note_on_c, 13, 57, 100
18, 149860, Note_on_c, 13, 57, 0
18, 149880, Note_on_c, 13, 54, 100
18, 149920, Note_on_c, 13, 54, 0
18, 149940, Note_on_c, 13, 47, 100
18, 150020, Note_on_c, 13, 47, 0
18, 150300, Note_on_c, 13, 49, 100
18, 150380, Note_on_c, 13, 49, 0
18, 150660, Note_on_c, 13, 50, 100
18, 150740, Note_on_c, 13, 50, 0
18, 151020, Note_on_c, 13, 41, 100
18, 151060, Note_on_c, 13, 41, 0
18, 151080, Note_on_c, 13, 49, 100
18, 151120, Note_on_c, 13, 49, 0
18, 151140, Note_on_c, 13, 53, 100
18, 151180, Note_on_c, 13, 53, 0
18, 151200, Note_on_c, 13, 56, 100
18, 151240, Note_on_c, 13, 56, 0
18, 151260, Note_on_c, 13, 53, 100
18, 151300, Note_on_c, 13, 53, 0
18, 151320, Note_on_c, 13, 49, 100
18, 151360, Note_on_c, 13, 49, 0
18, 151380, Note_on_c, 13, 54, 100
18, 151420, Note_on_c, 13, 54, 0
18, 151440, Note_on_c, 13, 57, 100
18, 151480, Note_on_c, 13, 57, 0
18, 151500, Note_on_c, 13, 61, 100
18, 151540, Note_on_c, 13, 61, 0
18, 151560, Note_on_c, 13, 59, 100
18, 151600, Note_on_c, 13, 59, 0
18, 151620, Note_on_c, 13, 61, 100
18, 151660, Note_on_c, 13, 61, 0
18, 151680, Note_on_c, 13, 49, 100
18, 151720, Note_on_c, 13, 49, 0
18, 151740, Note_on_c, 13, 50, 100
18, 151820, Note_on_c, 13, 50, 0
18, 151920, Note_on_c, 13, 50, 100
18, 151960, Note_on_c, 13, 50, 0
18, 151980, Note_on_c, 13, 49, 100
18, 152020, Note_on_c, 13, 49, 0
18, 152040, Note_on_c, 13, 47, 100
18, 152080, Note_on_c, 13, 47, 0
18, 152100, Note_on_c, 13, 46, 100
18, 152140, Note_on_c, 13, 46, 0
18, 152160, Note_on_c, 13, 42, 100
18, 152200, Note_on_c, 13, 42, 0
18, 152220, Note_on_c, 13, 46, 100
18, 152260, Note_on_c, 13, 46, 0
18, 152280, Note_on_c, 13, 49, 100
18, 152320, Note_on_c, 13, 49, 0
18, 152340, Note_on_c, 13, 46, 100
18, 152380, Note_on_c, 13, 46, 0
18, 152400, Note_on_c, 13, 42, 100
18, 152440, Note_on_c, 13, 42, 0
18, 152460, Note_on_c, 13, 54, 100
18, 152600, Note_on_c, 13, 54, 0
18, 152610, Note_on_c, 13, 52, 100
18, 152630, Note_on_c, 13, 52, 0
18, 152640, Note_on_c, 13, 54, 100
18, 152660, Note_on_c, 13, 54, 0
18, 152670, Note_on_c, 13, 55, 100
18, 152690, Note_on_c, 13, 55, 0
18, 152700, Note_on_c, 13, 54, 100
18, 152720, Note_on_c, 13, 54, 0
18, 152730, Note_on_c, 13, 52, 100
18, 152750, Note_on_c, 13, 52, 0
18, 152760, Note_on_c, 13, 50, 100
18, 152780, Note_on_c, 13, 50, 0
18, 152790, Note_on_c, 13, 49, 100
18, 152810, Note_on_c, 13, 49, 0
18, 152820, Note_on_c, 13, 47, 100
18, 152840, Note_on_c, 13, 47, 0
18, 152850, Note_on_c, 13, 59, 100
18, 152870, Note_on_c, 13, 59, 0
18, 152880, Note_on_c, 13, 54, 100
18, 152900, Note_on_c, 13, 54, 0
18, 152910, Note_on_c, 13, 50, 100
18, 152930, Note_on_c, 13, 50, 0
18, 152940, Note_on_c, 13, 47, 100
18, 153020, Note_on_c, 13, 47, 0
18, 153060, Note_on_c, 13, 44, 100
18, 153140, Note_on_c, 13, 44, 0
18, 153180, Note_on_c, 13, 49, 100
18, 153260, Note_on_c, 13, 49, 0
18, 153360, Note_on_c, 13, 50, 100
18, 153400, Note_on_c, 13, 50, 0
18, 153420, Note_on_c, 13, 49, 100
18, 153460, Note_on_c, 13, 49, 0
18, 153480, Note_on_c, 13, 47, 100
18, 153520, Note_on_c, 13, 47, 0
18, 153540, Note_on_c, 13, 45, 100
18, 153580, Note_on_c, 13, 45, 0
18, 153600, Note_on_c, 13, 42, 100
18, 153640, Note_on_c, 13, 42, 0
18, 153660, Note_on_c, 13, 49, 100
18, 153740, Note_on_c, 13, 49, 0
18, 153780, Note_on_c, 13, 37, 100
18, 153860, Note_on_c, 13, 37, 0
18, 153900, Note_on_c, 13, 42, 100
18, 154018, Note_on_c, 13, 42, 0
18, 154020, Note_on_c, 13, 45, 100
18, 154138, Note_on_c, 13, 45, 0
18, 154140, Note_on_c, 13, 49, 100
18, 154258, Note_on_c, 13, 49, 0
18, 154260, Note_on_c, 13, 54, 100
18, 154438, Note_on_c, 13, 54, 0
18, 154440, Note_on_c, 13, 56, 100
18, 154468, Note_on_c, 13, 56, 0
18, 154470, Note_on_c, 13, 57, 100
18, 154498, Note_on_c, 13, 57, 0
18, 154500, Note_on_c, 13, 56, 100
18, 154528, Note_on_c, 13, 56, 0
18, 154530, Note_on_c, 13, 54, 100
18, 154558, Note_on_c, 13, 54, 0
18, 154560, Note_on_c, 13, 53, 100
18, 154588, Note_on_c, 13, 53, 0
18, 154590, Note_on_c, 13, 51, 100
18, 154618, Note_on_c, 13, 51, 0
18, 154620, Note_on_c, 13, 49, 100
18, 154738, Note_on_c, 13, 49, 0
18, 154740, Note_on_c, 13, 53, 100
18, 154858, Note_on_c, 13, 53, 0
18, 154860, Note_on_c, 13, 56, 100
18, 154978, Note_on_c, 13, 56, 0
18, 154980, Note_on_c, 13, 59, 100
18, 155158, Note_on_c, 13, 59, 0
18, 155160, Note_on_c, 13, 61, 100
18, 155188, Note_on_c, 13, 61, 0
18, 155190, Note_on_c, 13, 62, 100
18, 155218, Note_on_c, 13, 62, 0
18, 155220, Note_on_c, 13, 61, 100
18, 155248, Note_on_c, 13, 61, 0
18, 155250, Note_on_c, 13, 59, 100
18, 155278, Note_on_c, 13, 59, 0
18, 155280, Note_on_c, 13, 57, 100
18, 155308, Note_on_c, 13, 57, 0
18, 155310, Note_on_c, 13, 56, 100
18, 155338, Note_on_c, 13, 56, 0
18, 155340, Note_on_c, 13, 54, 100
18, 155420, Note_on_c, 13, 54, 0
18, 155460, Note_on_c, 13, 52, 100
18, 155540, Note_on_c, 13, 52, 0
18, 155580, Note_on_c, 13, 50, 100
18, 155660, Note_on_c, 13, 50, 0
18, 155700, Note_on_c, 13, 49, 100
18, 155740, Note_on_c, 13, 49, 0
18, 155760, Note_on_c, 13, 53, 100
18, 155780, Note_on_c, 13, 53, 0
18, 155790, Note_on_c, 13, 56, 100
18, 155810, Note_on_c, 13, 56, 0
18, 155820, Note_on_c, 13, 61, 100
18, 155860, Note_on_c, 13, 61, 0
18, 155880, Note_on_c, 13, 49, 100
18, 155900, Note_on_c, 13, 49, 0
18, 155910, Note_on_c, 13, 61, 100
18, 155930, Note_on_c, 13, 61, 0
18, 155940, Note_on_c, 13, 59, 100
18, 155980, Note_on_c, 13, 59, 0
18, 156000, Note_on_c, 13, 49, 100
18, 156020, Note_on_c, 13, 49, 0
18, 156030, Note_on_c, 13, 59, 100
18, 156050, Note_on_c, 13, 59, 0
18, 156060, Note_on_c, 13, 57, 100
18, 156100, Note_on_c, 13, 57, 0
18, 156120, Note_on_c, 13, 49, 100
18, 156140, Note_on_c, 13, 49, 0
18, 156150, Note_on_c, 13, 57, 100
18, 156170, Note_on_c, 13, 57, 0
18, 156180, Note_on_c, 13, 56, 100
18, 156220, Note_on_c, 13, 56, 0
18, 156240, Note_on_c, 13, 49, 100
18, 156260, Note_on_c, 13, 49, 0
18, 156270, Note_on_c, 13, 56, 100
18, 156290, Note_on_c, 13, 56, 0
18, 156300, Note_on_c, 13, 54, 100
18, 156340, Note_on_c, 13, 54, 0
18, 156360, Note_on_c, 13, 49, 100
18, 156380, Note_on_c, 13, 49, 0
18, 156390, Note_on_c, 13, 54, 100
18, 156410, Note_on_c, 13, 54, 0
18, 156420, Note_on_c, 13, 53, 100
18, 156568, Note_on_c, 13, 53, 0
18, 156570, Note_on_c, 13, 49, 100
18, 156598, Note_on_c, 13, 49, 0
18, 156600, Note_on_c, 13, 51, 100
18, 156628, Note_on_c, 13, 51, 0
18, 156630, Note_on_c, 13, 53, 100
18, 156658, Note_on_c, 13, 53, 0
18, 156660, Note_on_c, 13, 54, 100
18, 156688, Note_on_c, 13, 54, 0
18, 156690, Note_on_c, 13, 56, 100
18, 156718, Note_on_c, 13, 56, 0
18, 156720, Note_on_c, 13, 57, 100
18, 156748, Note_on_c, 13, 57, 0
18, 156750, Note_on_c, 13, 54, 100
18, 156778, Note_on_c, 13, 54, 0
18, 156780, Note_on_c, 13, 47, 100
18, 156898, Note_on_c, 13, 47, 0
18, 157140, Note_on_c, 13, 49, 100
18, 157220, Note_on_c, 13, 49, 0
18, 157500, Note_on_c, 13, 50, 100
18, 157580, Note_on_c, 13, 50, 0
18, 157860, Note_on_c, 13, 41, 100
18, 157920, Note_on_c, 13, 41, 0
18, 157950, Note_on_c, 13, 44, 100
18, 157960, Note_on_c, 13, 44, 0
18, 157965, Note_on_c, 13, 45, 100
18, 157975, Note_on_c, 13, 45, 0
18, 157980, Note_on_c, 13, 47, 100
18, 158020, Note_on_c, 13, 47, 0
18, 158160, Note_on_c, 13, 44, 100
18, 158200, Note_on_c, 13, 44, 0
18, 158220, Note_on_c, 13, 45, 100
18, 158280, Note_on_c, 13, 45, 0
18, 158310, Note_on_c, 13, 47, 100
18, 158330, Note_on_c, 13, 47, 0
18, 158340, Note_on_c, 13, 49, 100
18, 158420, Note_on_c, 13, 49, 0
18, 158460, Note_on_c, 13, 37, 100
18, 158540, Note_on_c, 13, 37, 0
18, 158580, Note_on_c, 13, 42, 100
18, 158660, Note_on_c, 13, 42, 0
18, 159240, Control_c, 13, 0, 0
18, 159240, Program_c, 13, 45
18, 159300, Control_c, 13, 0, 0
18, 159300, Note_on_c, 13, 52, 100
18, 159360, Note_on_c, 13, 52, 0
18, 159420, Note_on_c, 13, 47, 100
18, 159480, Note_on_c, 13, 47, 0
18, 159540, Note_on_c, 13, 40, 100
18, 159600, Note_on_c, 13, 40, 0
18, 159660, Note_on_c, 13, 47, 100
18, 159720, Note_on_c, 13, 47, 0
18, 159780, Note_on_c, 13, 40, 100
18, 159840, Note_on_c, 13, 40, 0
18, 159900, Note_on_c, 13, 41, 100
18, 159960, Note_on_c, 13, 41, 0
18, 160020, Note_on_c, 13, 42, 100
18, 160080, Note_on_c, 13, 42, 0
18, 160140, Note_on_c, 13, 37, 100
18, 160200, Note_on_c, 13, 37, 0
18, 160260, Note_on_c, 13, 42, 100
18, 160320, Note_on_c, 13, 42, 0
18, 160380, Note_on_c, 13, 49, 100
18, 160440, Note_on_c, 13, 49, 0
18, 160500, Note_on_c, 13, 54, 100
18, 160560, Note_on_c, 13, 54, 0
18, 160620, Note_on_c, 13, 49, 100
18, 160680, Note_on_c, 13, 49, 0
18, 160740, Note_on_c, 13, 42, 100
18, 160800, Note_on_c, 13, 42, 0
18, 160860, Note_on_c, 13, 51, 100
18, 160920, Note_on_c, 13, 51, 0
18, 160980, Note_on_c, 13, 52, 100
18, 161040, Note_on_c, 13, 52, 0
18, 161040, Note_on_c, 13, 47, 100
18, 161100, Note_on_c, 13, 47, 0
18, 161100, Note_on_c, 13, 44, 100
18, 161160, Note_on_c, 13, 44, 0
18, 161160, Note_on_c, 13, 47, 100
18, 161220, Note_on_c, 13, 47, 0
18, 161220, Note_on_c, 13, 40, 100
18, 161280, Note_on_c, 13, 40, 0
18, 161280, Note_on_c, 13, 56, 100
18, 161340, Note_on_c, 13, 56, 0
18, 161340, Note_on_c, 13, 52, 100
18, 161400, Note_on_c, 13, 52, 0
18, 161400, Note_on_c, 13, 56, 100
18, 161460, Note_on_c, 13, 56, 0
18, 161460, Note_on_c, 13, 57, 100
18, 161520, Note_on_c, 13, 57, 0
18, 161520, Note_on_c, 13, 61, 100
18, 161580, Note_on_c, 13, 61, 0
18, 161580, Note_on_c, 13, 54, 100
18, 161640, Note_on_c, 13, 54, 0
18, 161640, Note_on_c, 13, 57, 100
18, 161700, Note_on_c, 13, 57, 0
18, 161700, Note_on_c, 13, 59, 100
18, 161760, Note_on_c, 13, 59, 0
18, 161760, Note_on_c, 13, 51, 100
18, 161820, Note_on_c, 13, 51, 0
18, 161820, Note_on_c, 13, 47, 100
18, 161880, Note_on_c, 13, 47, 0
18, 161880, Note_on_c, 13, 51, 100
18, 161940, Note_on_c, 13, 51, 0
18, 161940, Note_on_c, 13, 40, 100
18, 162000, Note_on_c, 13, 40, 0
18, 162000, Note_on_c, 13, 56, 100
18, 162060, Note_on_c, 13, 56, 0
18, 162060, Note_on_c, 13, 49, 100
18, 162120, Note_on_c, 13, 49, 0
18, 162120, Note_on_c, 13, 52, 100
18, 162180, Note_on_c, 13, 52, 0
18, 162180, Note_on_c, 13, 45, 100
18, 162240, Note_on_c, 13, 45, 0
18, 162240, Note_on_c, 13, 57, 100
18, 162300, Note_on_c, 13, 57, 0
18, 162300, Note_on_c, 13, 59, 100
18, 162360, Note_on_c, 13, 59, 0
18, 162360, Note_on_c, 13, 47, 100
18, 162420, Note_on_c, 13, 47, 0
18, 162420, Note_on_c, 13, 40, 100
18, 162480, Note_on_c, 13, 40, 0
18, 162660, Note_on_c, 13, 52, 100
18, 162720, Note_on_c, 13, 52, 0
18, 162780, Note_on_c, 13, 47, 100
18, 162840, Note_on_c, 13, 47, 0
18, 162900, Note_on_c, 13, 40, 100
18, 162960, Note_on_c, 13, 40, 0
18, 163020, Note_on_c, 13, 47, 100
18, 163080, Note_on_c, 13, 47, 0
18, 163140, Note_on_c, 13, 40, 100
18, 163200, Note_on_c, 13, 40, 0
18, 163260, Note_on_c, 13, 41, 100
18, 163320, Note_on_c, 13, 41, 0
18, 163380, Note_on_c, 13, 42, 100
18, 163440, Note_on_c, 13, 42, 0
18, 163500, Note_on_c, 13, 37, 100
18, 163560, Note_on_c, 13, 37, 0
18, 163620, Note_on_c, 13, 42, 100
18, 163680, Note_on_c, 13, 42, 0
18, 163740, Note_on_c, 13, 49, 100
18, 163800, Note_on_c, 13, 49, 0
18, 163860, Note_on_c, 13, 54, 100
18, 163920, Note_on_c, 13, 54, 0
18, 163980, Note_on_c, 13, 49, 100
18, 164040, Note_on_c, 13, 49, 0
18, 164100, Note_on_c, 13, 42, 100
18, 164160, Note_on_c, 13, 42, 0
18, 164220, Note_on_c, 13, 51, 100
18, 164280, Note_on_c, 13, 51, 0
18, 164340, Note_on_c, 13, 52, 100
18, 164400, Note_on_c, 13, 52, 0
18, 164400, Note_on_c, 13, 47, 100
18, 164460, Note_on_c, 13, 47, 0
18, 164460, Note_on_c, 13, 44, 100
18, 164520, Note_on_c, 13, 44, 0
18, 164520, Note_on_c, 13, 47, 100
18, 164580, Note_on_c, 13, 47, 0
18, 164580, Note_on_c, 13, 40, 100
18, 164640, Note_on_c, 13, 40, 0
18, 164640, Note_on_c, 13, 56, 100
18, 164700, Note_on_c, 13, 56, 0
18, 164700, Note_on_c, 13, 52, 100
18, 164760, Note_on_c, 13, 52, 0
18, 164760, Note_on_c, 13, 56, 100
18, 164820, Note_on_c, 13, 56, 0
18, 164820, Note_on_c, 13, 57, 100
18, 164880, Note_on_c, 13, 57, 0
18, 164880, Note_on_c, 13, 49, 100
18, 164940, Note_on_c, 13, 49, 0
18, 164940, Note_on_c, 13, 45, 100
18, 165000, Note_on_c, 13, 45, 0
18, 165000, Note_on_c, 13, 49, 100
18, 165060, Note_on_c, 13, 49, 0
18, 165060, Note_on_c, 13, 42, 100
18, 165120, Note_on_c, 13, 42, 0
18, 165120, Note_on_c, 13, 57, 100
18, 165180, Note_on_c, 13, 57, 0
18, 165180, Note_on_c, 13, 54, 100
18, 165240, Note_on_c, 13, 54, 0
18, 165240, Note_on_c, 13, 57, 100
18, 165300, Note_on_c, 13, 57, 0
18, 165300, Note_on_c, 13, 59, 100
18, 165360, Note_on_c, 13, 59, 0
18, 165360, Note_on_c, 13, 51, 100
18, 165420, Note_on_c, 13, 51, 0
18, 165420, Note_on_c, 13, 47, 100
18, 165480, Note_on_c, 13, 47, 0
18, 165480, Note_on_c, 13, 51, 100
18, 165540, Note_on_c, 13, 51, 0
18, 165540, Note_on_c, 13, 52, 100
18, 165600, Note_on_c, 13, 52, 0
18, 165660, Note_on_c, 13, 51, 100
18, 165720, Note_on_c, 13, 51, 0
18, 165780, Note_on_c, 13, 44, 100
18, 165840, Note_on_c, 13, 44, 0
18, 165900, Note_on_c, 13, 46, 100
18, 165960, Note_on_c, 13, 46, 0
18, 166020, Note_on_c, 13, 47, 100
18, 166080, Note_on_c, 13, 47, 0
18, 166080, Note_on_c, 13, 51, 100
18, 166140, Note_on_c, 13, 51, 0
18, 166140, Note_on_c, 13, 47, 100
18, 166200, Note_on_c, 13, 47, 0
18, 166200, Note_on_c, 13, 51, 100
18, 166260, Note_on_c, 13, 51, 0
18, 166260, Note_on_c, 13, 49, 100
18, 166320, Note_on_c, 13, 49, 0
18, 166320, Note_on_c, 13, 52, 100
18, 166380, Note_on_c, 13, 52, 0
18, 166380, Note_on_c, 13, 49, 100
18, 166440, Note_on_c, 13, 49, 0
18, 166440, Note_on_c, 13, 52, 100
18, 166500, Note_on_c, 13, 52, 0
18, 166500, Note_on_c, 13, 51, 100
18, 166560, Note_on_c, 13, 51, 0
18, 166560, Note_on_c, 13, 54, 100
18, 166620, Note_on_c, 13, 54, 0
18, 166620, Note_on_c, 13, 51, 100
18, 166680, Note_on_c, 13, 51, 0
18, 166680, Note_on_c, 13, 54, 100
18, 166740, Note_on_c, 13, 54, 0
18, 166740, Note_on_c, 13, 56, 100
18, 166800, Note_on_c, 13, 56, 0
18, 166800, Note_on_c, 13, 52, 100
18, 166860, Note_on_c, 13, 52, 0
18, 166860, Note_on_c, 13, 54, 100
18, 166920, Note_on_c, 13, 54, 0
18, 166920, Note_on_c, 13, 42, 100
18, 166980, Note_on_c, 13, 42, 0
18, 166980, Note_on_c, 13, 47, 100
18, 167040, Note_on_c, 13, 47, 0
18, 167100, Note_on_c, 13, 54, 100
18, 167160, Note_on_c, 13, 54, 0
18, 167220, Note_on_c, 13, 59, 100
18, 167280, Note_on_c, 13, 59, 0
18, 167340, Note_on_c, 13, 54, 100
18, 167400, Note_on_c, 13, 54, 0
18, 167460, Note_on_c, 13, 47, 100
18, 167520, Note_on_c, 13, 47, 0
18, 167580, Note_on_c, 13, 48, 100
18, 167640, Note_on_c, 13, 48, 0
18, 167700, Note_on_c, 13, 49, 100
18, 167760, Note_on_c, 13, 49, 0
18, 167820, Note_on_c, 13, 56, 100
18, 167880, Note_on_c, 13, 56, 0
18, 167940, Note_on_c, 13, 61, 100
18, 168000, Note_on_c, 13, 61, 0
18, 168060, Note_on_c, 13, 56, 100
18, 168120, Note_on_c, 13, 56, 0
18, 168180, Note_on_c, 13, 49, 100
18, 168240, Note_on_c, 13, 49, 0
18, 168300, Note_on_c, 13, 56, 100
18, 168360, Note_on_c, 13, 56, 0
18, 168420, Note_on_c, 13, 61, 100
18, 168480, Note_on_c, 13, 61, 0
18, 168540, Note_on_c, 13, 58, 100
18, 168600, Note_on_c, 13, 58, 0
18, 168660, Note_on_c, 13, 59, 100
18, 168720, Note_on_c, 13, 59, 0
18, 168720, Note_on_c, 13, 54, 100
18, 168780, Note_on_c, 13, 54, 0
18, 168780, Note_on_c, 13, 51, 100
18, 168840, Note_on_c, 13, 51, 0
18, 168840, Note_on_c, 13, 54, 100
18, 168900, Note_on_c, 13, 54, 0
18, 168900, Note_on_c, 13, 47, 100
18, 168960, Note_on_c, 13, 47, 0
18, 169020, Note_on_c, 13, 44, 100
18, 169080, Note_on_c, 13, 44, 0
18, 169140, Note_on_c, 13, 42, 100
18, 169200, Note_on_c, 13, 42, 0
18, 169260, Note_on_c, 13, 54, 100
18, 169320, Note_on_c, 13, 54, 0
18, 169380, Note_on_c, 13, 56, 100
18, 169440, Note_on_c, 13, 56, 0
18, 169500, Note_on_c, 13, 52, 100
18, 169560, Note_on_c, 13, 52, 0
18, 169620, Note_on_c, 13, 57, 100
18, 169680, Note_on_c, 13, 57, 0
18, 169740, Note_on_c, 13, 52, 100
18, 169800, Note_on_c, 13, 52, 0
18, 169860, Note_on_c, 13, 45, 100
18, 169920, Note_on_c, 13, 45, 0
18, 169920, Note_on_c, 13, 57, 100
18, 169980, Note_on_c, 13, 57, 0
18, 169980, Note_on_c, 13, 45, 100
18, 170040, Note_on_c, 13, 45, 0
18, 170040, Note_on_c, 13, 57, 100
18, 170100, Note_on_c, 13, 57, 0
18, 170100, Note_on_c, 13, 45, 100
18, 170160, Note_on_c, 13, 45, 0
18, 170160, Note_on_c, 13, 57, 100
18, 170220, Note_on_c, 13, 57, 0
18, 170220, Note_on_c, 13, 45, 100
18, 170280, Note_on_c, 13, 45, 0
18, 170280, Note_on_c, 13, 57, 100
18, 170340, Note_on_c, 13, 57, 0
18, 170340, Note_on_c, 13, 44, 100
18, 170400, Note_on_c, 13, 44, 0
18, 170400, Note_on_c, 13, 56, 100
18, 170460, Note_on_c, 13, 56, 0
18, 170460, Note_on_c, 13, 44, 100
18, 170520, Note_on_c, 13, 44, 0
18, 170520, Note_on_c, 13, 56, 100
18, 170580, Note_on_c, 13, 56, 0
18, 170580, Note_on_c, 13, 44, 100
18, 170640, Note_on_c, 13, 44, 0
18, 170640, Note_on_c, 13, 56, 100
18, 170700, Note_on_c, 13, 56, 0
18, 170700, Note_on_c, 13, 44, 100
18, 170760, Note_on_c, 13, 44, 0
18, 170760, Note_on_c, 13, 56, 100
18, 170820, Note_on_c, 13, 56, 0
18, 170820, Note_on_c, 13, 42, 100
18, 170880, Note_on_c, 13, 42, 0
18, 170880, Note_on_c, 13, 54, 100
18, 170940, Note_on_c, 13, 54, 0
18, 170940, Note_on_c, 13, 40, 100
18, 171000, Note_on_c, 13, 40, 0
18, 171000, Note_on_c, 13, 52, 100
18, 171060, Note_on_c, 13, 52, 0
18, 171060, Note_on_c, 13, 39, 100
18, 171120, Note_on_c, 13, 39, 0
18, 171120, Note_on_c, 13, 51, 100
18, 171180, Note_on_c, 13, 51, 0
18, 171180, Note_on_c, 13, 35, 100
18, 171240, Note_on_c, 13, 35, 0
18, 171240, Note_on_c, 13, 47, 100
18, 171300, Note_on_c, 13, 47, 0
18, 171300, Note_on_c, 13, 40, 100
18, 171360, Note_on_c, 13, 40, 0
18, 171360, Note_on_c, 13, 52, 100
18, 171420, Note_on_c, 13, 52, 0
18, 171420, Note_on_c, 13, 42, 100
18, 171480, Note_on_c, 13, 42, 0
18, 171480, Note_on_c, 13, 54, 100
18, 171540, Note_on_c, 13, 54, 0
18, 171540, Note_on_c, 13, 44, 100
18, 171600, Note_on_c, 13, 44, 0
18, 171660, Note_on_c, 13, 47, 100
18, 171720, Note_on_c, 13, 47, 0
18, 171780, Note_on_c, 13, 52, 100
18, 171840, Note_on_c, 13, 52, 0
18, 171900, Note_on_c, 13, 47, 100
18, 171960, Note_on_c, 13, 47, 0
18, 172020, Note_on_c, 13, 40, 100
18, 172080, Note_on_c, 13, 40, 0
18, 172080, Note_on_c, 13, 44, 100
18, 172140, Note_on_c, 13, 44, 0
18, 172140, Note_on_c, 13, 47, 100
18, 172200, Note_on_c, 13, 47, 0
18, 172200, Note_on_c, 13, 51, 100
18, 172260, Note_on_c, 13, 51, 0
18, 172260, Note_on_c, 13, 40, 100
18, 172320, Note_on_c, 13, 40, 0
18, 172320, Note_on_c, 13, 52, 100
18, 172380, Note_on_c, 13, 52, 0
18, 172380, Note_on_c, 13, 37, 100
18, 172440, Note_on_c, 13, 37, 0
18, 172440, Note_on_c, 13, 49, 100
18, 172500, Note_on_c, 13, 49, 0
18, 172500, Note_on_c, 13, 54, 100
18, 172560, Note_on_c, 13, 54, 0
18, 172560, Note_on_c, 13, 51, 100
18, 172620, Note_on_c, 13, 51, 0
18, 172620, Note_on_c, 13, 52, 100
18, 172680, Note_on_c, 13, 52, 0
18, 172680, Note_on_c, 13, 40, 100
18, 172740, Note_on_c, 13, 40, 0
18, 172740, Note_on_c, 13, 35, 100
18, 172800, Note_on_c, 13, 35, 0
18, 172800, Note_on_c, 13, 47, 100
18, 172860, Note_on_c, 13, 47, 0
18, 172860, Note_on_c, 13, 39, 100
18, 172920, Note_on_c, 13, 39, 0
18, 172920, Note_on_c, 13, 51, 100
18, 172980, Note_on_c, 13, 51, 0
18, 172980, Note_on_c, 13, 52, 100
18, 173040, Note_on_c, 13, 52, 0
18, 173040, Note_on_c, 13, 49, 100
18, 173100, Note_on_c, 13, 49, 0
18, 173100, Note_on_c, 13, 46, 100
18, 173160, Note_on_c, 13, 46, 0
18, 173160, Note_on_c, 13, 48, 100
18, 173220, Note_on_c, 13, 48, 0
18, 173220, Note_on_c, 13, 49, 100
18, 173280, Note_on_c, 13, 49, 0
18, 173280, Note_on_c, 13, 47, 100
18, 173340, Note_on_c, 13, 47, 0
18, 173340, Note_on_c, 13, 45, 100
18, 173400, Note_on_c, 13, 45, 0
18, 173400, Note_on_c, 13, 44, 100
18, 173460, Note_on_c, 13, 44, 0
18, 173460, Note_on_c, 13, 45, 100
18, 173520, Note_on_c, 13, 45, 0
18, 173520, Note_on_c, 13, 47, 100
18, 173580, Note_on_c, 13, 47, 0
18, 173580, Note_on_c, 13, 49, 100
18, 173640, Note_on_c, 13, 49, 0
18, 173640, Note_on_c, 13, 45, 100
18, 173700, Note_on_c, 13, 45, 0
18, 173700, Note_on_c, 13, 47, 100
18, 173760, Note_on_c, 13, 47, 0
18, 173760, Note_on_c, 13, 51, 100
18, 173820, Note_on_c, 13, 51, 0
18, 173820, Note_on_c, 13, 47, 100
18, 173880, Note_on_c, 13, 47, 0
18, 173880, Note_on_c, 13, 51, 100
18, 173940, Note_on_c, 13, 51, 0
18, 173940, Note_on_c, 13, 52, 100
18, 174000, Note_on_c, 13, 52, 0
18, 174000, Note_on_c, 13, 56, 100
18, 174060, Note_on_c, 13, 56, 0
18, 174060, Note_on_c, 13, 52, 100
18, 174120, Note_on_c, 13, 52, 0
18, 174120, Note_on_c, 13, 56, 100
18, 174180, Note_on_c, 13, 56, 0
18, 174180, Note_on_c, 13, 45, 100
18, 174240, Note_on_c, 13, 45, 0
18, 174240, Note_on_c, 13, 49, 100
18, 174300, Note_on_c, 13, 49, 0
18, 174300, Note_on_c, 13, 45, 100
18, 174360, Note_on_c, 13, 45, 0
18, 174360, Note_on_c, 13, 49, 100
18, 174420, Note_on_c, 13, 49, 0
18, 174420, Note_on_c, 13, 51, 100
18, 174480, Note_on_c, 13, 51, 0
18, 174480, Note_on_c, 13, 54, 100
18, 174540, Note_on_c, 13, 54, 0
18, 174540, Note_on_c, 13, 51, 100
18, 174600, Note_on_c, 13, 51, 0
18, 174605, Note_on_c, 13, 54, 100
18, 174660, Note_on_c, 13, 44, 100
18, 174665, Note_on_c, 13, 54, 0
18, 174720, Note_on_c, 13, 44, 0
18, 174720, Note_on_c, 13, 47, 100
18, 174780, Note_on_c, 13, 47, 0
18, 174780, Note_on_c, 13, 44, 100
18, 174840, Note_on_c, 13, 44, 0
18, 174840, Note_on_c, 13, 47, 100
18, 174900, Note_on_c, 13, 47, 0
18, 174900, Note_on_c, 13, 49, 100
18, 174960, Note_on_c, 13, 49, 0
18, 174960, Note_on_c, 13, 52, 100
18, 175020, Note_on_c, 13, 52, 0
18, 175020, Note_on_c, 13, 49, 100
18, 175080, Note_on_c, 13, 49, 0
18, 175080, Note_on_c, 13, 52, 100
18, 175140, Note_on_c, 13, 52, 0
18, 175140, Note_on_c, 13, 42, 100
18, 175200, Note_on_c, 13, 42, 0
18, 175200, Note_on_c, 13, 45, 100
18, 175260, Note_on_c, 13, 45, 0
18, 175260, Note_on_c, 13, 42, 100
18, 175320, Note_on_c, 13, 42, 0
18, 175320, Note_on_c, 13, 45, 100
18, 175380, Note_on_c, 13, 45, 0
18, 175380, Note_on_c, 13, 47, 100
18, 175440, Note_on_c, 13, 47, 0
18, 175440, Note_on_c, 13, 51, 100
18, 175500, Note_on_c, 13, 51, 0
18, 175740, Note_on_c, 13, 46, 100
18, 175800, Note_on_c, 13, 46, 0
18, 175860, Note_on_c, 13, 45, 100
18, 175920, Note_on_c, 13, 45, 0
18, 175920, Note_on_c, 13, 44, 100
18, 175950, Note_on_c, 13, 44, 0
18, 175950, Note_on_c, 13, 40, 100
18, 175980, Note_on_c, 13, 40, 0
18, 175980, Note_on_c, 13, 47, 100
18, 176040, Note_on_c, 13, 47, 0
18, 176040, Note_on_c, 13, 59, 100
18, 176100, Note_on_c, 13, 59, 0
18, 176100, Note_on_c, 13, 52, 100
18, 176160, Note_on_c, 13, 52, 0
18, 176220, Note_on_c, 13, 47, 100
18, 176280, Note_on_c, 13, 47, 0
18, 176340, Note_on_c, 13, 40, 100
18, 176400, Note_on_c, 13, 40, 0
18, 176460, Note_on_c, 13, 47, 100
18, 176520, Note_on_c, 13, 47, 0
18, 176580, Note_on_c, 13, 40, 100
18, 176640, Note_on_c, 13, 40, 0
18, 176700, Note_on_c, 13, 41, 100
18, 176760, Note_on_c, 13, 41, 0
18, 176820, Note_on_c, 13, 42, 100
18, 176880, Note_on_c, 13, 42, 0
18, 176940, Note_on_c, 13, 37, 100
18, 177000, Note_on_c, 13, 37, 0
18, 177060, Note_on_c, 13, 42, 100
18, 177120, Note_on_c, 13, 42, 0
18, 177180, Note_on_c, 13, 49, 100
18, 177240, Note_on_c, 13, 49, 0
18, 177300, Note_on_c, 13, 54, 100
18, 177360, Note_on_c, 13, 54, 0
18, 177420, Note_on_c, 13, 49, 100
18, 177480, Note_on_c, 13, 49, 0
18, 177540, Note_on_c, 13, 42, 100
18, 177600, Note_on_c, 13, 42, 0
18, 177660, Note_on_c, 13, 51, 100
18, 177720, Note_on_c, 13, 51, 0
18, 177780, Note_on_c, 13, 52, 100
18, 177840, Note_on_c, 13, 52, 0
18, 177840, Note_on_c, 13, 47, 100
18, 177900, Note_on_c, 13, 47, 0
18, 177900, Note_on_c, 13, 44, 100
18, 177960, Note_on_c, 13, 44, 0
18, 177960, Note_on_c, 13, 47, 100
18, 178020, Note_on_c, 13, 47, 0
18, 178020, Note_on_c, 13, 40, 100
18, 178080, Note_on_c, 13, 40, 0
18, 178080, Note_on_c, 13, 56, 100
18, 178140, Note_on_c, 13, 56, 0
18, 178140, Note_on_c, 13, 52, 100
18, 178200, Note_on_c, 13, 52, 0
18, 178200, Note_on_c, 13, 56, 100
18, 178260, Note_on_c, 13, 56, 0
18, 178260, Note_on_c, 13, 57, 100
18, 178320, Note_on_c, 13, 57, 0
18, 178320, Note_on_c, 13, 61, 100
18, 178380, Note_on_c, 13, 61, 0
18, 178380, Note_on_c, 13, 54, 100
18, 178440, Note_on_c, 13, 54, 0
18, 178440, Note_on_c, 13, 57, 100
18, 178500, Note_on_c, 13, 57, 0
18, 178500, Note_on_c, 13, 59, 100
18, 178560, Note_on_c, 13, 59, 0
18, 178560, Note_on_c, 13, 51, 100
18, 178620, Note_on_c, 13, 51, 0
18, 178620, Note_on_c, 13, 47, 100
18, 178680, Note_on_c, 13, 47, 0
18, 178680, Note_on_c, 13, 51, 100
18, 178740, Note_on_c, 13, 51, 0
18, 178740, Note_on_c, 13, 40, 100
18, 178800, Note_on_c, 13, 40, 0
18, 178800, Note_on_c, 13, 56, 100
18, 178860, Note_on_c, 13, 56, 0
18, 178860, Note_on_c, 13, 49, 100
18, 178920, Note_on_c, 13, 49, 0
18, 178920, Note_on_c, 13, 52, 100
18, 178980, Note_on_c, 13, 52, 0
18, 178980, Note_on_c, 13, 45, 100
18, 179040, Note_on_c, 13, 45, 0
18, 179040, Note_on_c, 13, 57, 100
18, 179100, Note_on_c, 13, 57, 0
18, 179100, Note_on_c, 13, 59, 100
18, 179160, Note_on_c, 13, 59, 0
18, 179160, Note_on_c, 13, 47, 100
18, 179220, Note_on_c, 13, 47, 0
18, 179220, Note_on_c, 13, 40, 100
18, 179280, Note_on_c, 13, 40, 0
18, 179460, Note_on_c, 13, 40, 100
18, 179460, Note_on_c, 13, 28, 100
18, 179565, Control_c, 13, 0, 100
18, 179565, Control_c, 13, 0, 100
18, 179565, Control_c, 13, 0, 100
18, 179565, Control_c, 13, 0, 100
18, 179565, Control_c, 13, 0, 100
18, 179565, Program_c, 13, 42
18, 179580, Note_on_c, 13, 28, 0
18, 179580, Note_on_c, 13, 40, 0
18, 179940, Control_c, 13, 0, 0
18, 179940, Note_on_c, 13, 59, 100
18, 180058, Note_on_c, 13, 59, 0
18, 180060, Note_on_c, 13, 59, 100
18, 180178, Note_on_c, 13, 59, 0
18, 180180, Note_on_c, 13, 59, 100
18, 180298, Note_on_c, 13, 59, 0
18, 180300, Note_on_c, 13, 57, 100
18, 180418, Note_on_c, 13, 57, 0
18, 180420, Note_on_c, 13, 57, 100
18, 180538, Note_on_c, 13, 57, 0
18, 180540, Note_on_c, 13, 57, 100
18, 180658, Note_on_c, 13, 57, 0
18, 180660, Note_on_c, 13, 55, 100
18, 180778, Note_on_c, 13, 55, 0
18, 180780, Note_on_c, 13, 55, 100
18, 180898, Note_on_c, 13, 55, 0
18, 180900, Note_on_c, 13, 55, 100
18, 181018, Note_on_c, 13, 55, 0
18, 181020, Note_on_c, 13, 54, 100
18, 181138, Note_on_c, 13, 54, 0
18, 181140, Note_on_c, 13, 54, 100
18, 181258, Note_on_c, 13, 54, 0
18, 181260, Note_on_c, 13, 54, 100
18, 181378, Note_on_c, 13, 54, 0
18, 181380, Note_on_c, 13, 59, 100
18, 181498, Note_on_c, 13, 59, 0
18, 181500, Note_on_c, 13, 59, 100
18, 181618, Note_on_c, 13, 59, 0
18, 181620, Note_on_c, 13, 59, 100
18, 181738, Note_on_c, 13, 59, 0
18, 181740, Note_on_c, 13, 61, 100
18, 181858, Note_on_c, 13, 61, 0
18, 181860, Note_on_c, 13, 61, 100
18, 181978, Note_on_c, 13, 61, 0
18, 181980, Note_on_c, 13, 61, 100
18, 182098, Note_on_c, 13, 61, 0
18, 182100, Note_on_c, 13, 62, 100
18, 182218, Note_on_c, 13, 62, 0
18, 182220, Note_on_c, 13, 62, 100
18, 182338, Note_on_c, 13, 62, 0
18, 182340, Note_on_c, 13, 62, 100
18, 182458, Note_on_c, 13, 62, 0
18, 182460, Note_on_c, 13, 63, 100
18, 182578, Note_on_c, 13, 63, 0
18, 182580, Note_on_c, 13, 63, 100
18, 182698, Note_on_c, 13, 63, 0
18, 182700, Note_on_c, 13, 63, 100
18, 182818, Note_on_c, 13, 63, 0
18, 182820, Note_on_c, 13, 64, 100
18, 182938, Note_on_c, 13, 64, 0
18, 182940, Note_on_c, 13, 64, 100
18, 183058, Note_on_c, 13, 64, 0
18, 183060, Note_on_c, 13, 64, 100
18, 183178, Note_on_c, 13, 64, 0
18, 183180, Note_on_c, 13, 66, 100
18, 183298, Note_on_c, 13, 66, 0
18, 183300, Note_on_c, 13, 66, 100
18, 183418, Note_on_c, 13, 66, 0
18, 183420, Note_on_c, 13, 66, 100
18, 183538, Note_on_c, 13, 66, 0
18, 183540, Note_on_c, 13, 67, 100
18, 183658, Note_on_c, 13, 67, 0
18, 183660, Note_on_c, 13, 67, 100
18, 183778, Note_on_c, 13, 67, 0
18, 183780, Note_on_c, 13, 67, 100
18, 183898, Note_on_c, 13, 67, 0
18, 183900, Note_on_c, 13, 69, 100
18, 184018, Note_on_c, 13, 69, 0
18, 184020, Note_on_c, 13, 69, 100
18, 184138, Note_on_c, 13, 69, 0
18, 184140, Note_on_c, 13, 69, 100
18, 184258, Note_on_c, 13, 69, 0
18, 184260, Note_on_c, 13, 69, 100
18, 184378, Note_on_c, 13, 69, 0
18, 184380, Note_on_c, 13, 67, 100
18, 184498, Note_on_c, 13, 67, 0
18, 184500, Note_on_c, 13, 67, 100
18, 184618, Note_on_c, 13, 67, 0
18, 184620, Note_on_c, 13, 67, 100
18, 184738, Note_on_c, 13, 67, 0
18, 184740, Note_on_c, 13, 66, 100
18, 184798, Note_on_c, 13, 66, 0
18, 184800, Note_on_c, 13, 64, 100
18, 184858, Note_on_c, 13, 64, 0
18, 184860, Note_on_c, 13, 62, 100
18, 184918, Note_on_c, 13, 62, 0
18, 184920, Note_on_c, 13, 61, 100
18, 184978, Note_on_c, 13, 61, 0
18, 184980, Note_on_c, 13, 59, 100
18, 185098, Note_on_c, 13, 59, 0
18, 185100, Note_on_c, 13, 64, 100
18, 185158, Note_on_c, 13, 64, 0
18, 185160, Note_on_c, 13, 62, 100
18, 185218, Note_on_c, 13, 62, 0
18, 185220, Note_on_c, 13, 61, 100
18, 185278, Note_on_c, 13, 61, 0
18, 185280, Note_on_c, 13, 59, 100
18, 185338, Note_on_c, 13, 59, 0
18, 185340, Note_on_c, 13, 57, 100
18, 185458, Note_on_c, 13, 57, 0
18, 185460, Note_on_c, 13, 62, 100
18, 185518, Note_on_c, 13, 62, 0
18, 185520, Note_on_c, 13, 61, 100
18, 185578, Note_on_c, 13, 61, 0
18, 185580, Note_on_c, 13, 59, 100
18, 185638, Note_on_c, 13, 59, 0
18, 185640, Note_on_c, 13, 57, 100
18, 185698, Note_on_c, 13, 57, 0
18, 185700, Note_on_c, 13, 55, 100
18, 185818, Note_on_c, 13, 55, 0
18, 185820, Note_on_c, 13, 57, 100
18, 185938, Note_on_c, 13, 57, 0
18, 185940, Note_on_c, 13, 57, 100
18, 186058, Note_on_c, 13, 57, 0
18, 186060, Note_on_c, 13, 62, 100
18, 186178, Note_on_c, 13, 62, 0
18, 186180, Note_on_c, 13, 62, 100
18, 186298, Note_on_c, 13, 62, 0
18, 186300, Note_on_c, 13, 62, 100
18, 186418, Note_on_c, 13, 62, 0
18, 186420, Note_on_c, 13, 61, 100
18, 186538, Note_on_c, 13, 61, 0
18, 186540, Note_on_c, 13, 61, 100
18, 186658, Note_on_c, 13, 61, 0
18, 186660, Note_on_c, 13, 61, 100
18, 186778, Note_on_c, 13, 61, 0
18, 186780, Note_on_c, 13, 60, 100
18, 186898, Note_on_c, 13, 60, 0
18, 186900, Note_on_c, 13, 60, 100
18, 187018, Note_on_c, 13, 60, 0
18, 187020, Note_on_c, 13, 60, 100
18, 187138, Note_on_c, 13, 60, 0
18, 187140, Note_on_c, 13, 59, 100
18, 187258, Note_on_c, 13, 59, 0
18, 187260, Note_on_c, 13, 59, 100
18, 187378, Note_on_c, 13, 59, 0
18, 187380, Note_on_c, 13, 59, 100
18, 187498, Note_on_c, 13, 59, 0
18, 187500, Note_on_c, 13, 57, 100
18, 187618, Note_on_c, 13, 57, 0
18, 187620, Note_on_c, 13, 57, 100
18, 187738, Note_on_c, 13, 57, 0
18, 187740, Note_on_c, 13, 57, 100
18, 187858, Note_on_c, 13, 57, 0
18, 187860, Note_on_c, 13, 56, 100
18, 187978, Note_on_c, 13, 56, 0
18, 187980, Note_on_c, 13, 56, 100
18, 188098, Note_on_c, 13, 56, 0
18, 188100, Note_on_c, 13, 56, 100
18, 188218, Note_on_c, 13, 56, 0
18, 188220, Note_on_c, 13, 55, 100
18, 188338, Note_on_c, 13, 55, 0
18, 188340, Note_on_c, 13, 55, 100
18, 188458, Note_on_c, 13, 55, 0
18, 188460, Note_on_c, 13, 55, 100
18, 188578, Note_on_c, 13, 55, 0
18, 188580, Note_on_c, 13, 54, 100
18, 188698, Note_on_c, 13, 54, 0
18, 188700, Note_on_c, 13, 49, 100
18, 188818, Note_on_c, 13, 49, 0
18, 188820, Note_on_c, 13, 49, 100
18, 188938, Note_on_c, 13, 49, 0
18, 188940, Note_on_c, 13, 50, 100
18, 189058, Note_on_c, 13, 50, 0
18, 189060, Note_on_c, 13, 62, 100
18, 189178, Note_on_c, 13, 62, 0
18, 189180, Note_on_c, 13, 61, 100
18, 189298, Note_on_c, 13, 61, 0
18, 189300, Note_on_c, 13, 59, 100
18, 189418, Note_on_c, 13, 59, 0
18, 189420, Note_on_c, 13, 67, 100
18, 189538, Note_on_c, 13, 67, 0
18, 189540, Note_on_c, 13, 66, 100
18, 189658, Note_on_c, 13, 66, 0
18, 189660, Note_on_c, 13, 65, 100
18, 189778, Note_on_c, 13, 65, 0
18, 189780, Note_on_c, 13, 65, 100
18, 189898, Note_on_c, 13, 65, 0
18, 189900, Note_on_c, 13, 65, 100
18, 190018, Note_on_c, 13, 65, 0
18, 190020, Note_on_c, 13, 66, 100
18, 190138, Note_on_c, 13, 66, 0
18, 190140, Note_on_c, 13, 66, 100
18, 190258, Note_on_c, 13, 66, 0
18, 190260, Note_on_c, 13, 64, 100
18, 190378, Note_on_c, 13, 64, 0
18, 190380, Note_on_c, 13, 63, 100
18, 190498, Note_on_c, 13, 63, 0
18, 190500, Note_on_c, 13, 63, 100
18, 190618, Note_on_c, 13, 63, 0
18, 190620, Note_on_c, 13, 63, 100
18, 190738, Note_on_c, 13, 63, 0
18, 190740, Note_on_c, 13, 64, 100
18, 190858, Note_on_c, 13, 64, 0
18, 190860, Note_on_c, 13, 64, 100
18, 190978, Note_on_c, 13, 64, 0
18, 190980, Note_on_c, 13, 64, 100
18, 191098, Note_on_c, 13, 64, 0
18, 191100, Note_on_c, 13, 59, 100
18, 191218, Note_on_c, 13, 59, 0
18, 191220, Note_on_c, 13, 61, 100
18, 191338, Note_on_c, 13, 61, 0
18, 191340, Note_on_c, 13, 63, 100
18, 191458, Note_on_c, 13, 63, 0
18, 191460, Note_on_c, 13, 64, 100
18, 191578, Note_on_c, 13, 64, 0
18, 191580, Note_on_c, 13, 66, 100
18, 191698, Note_on_c, 13, 66, 0
18, 191700, Note_on_c, 13, 67, 100
18, 191818, Note_on_c, 13, 67, 0
18, 191820, Note_on_c, 13, 63, 100
18, 191938, Note_on_c, 13, 63, 0
18, 191940, Note_on_c, 13, 61, 100
18, 192058, Note_on_c, 13, 61, 0
18, 192060, Note_on_c, 13, 59, 100
18, 192178, Note_on_c, 13, 59, 0
18, 192180, Note_on_c, 13, 64, 100
18, 192238, Note_on_c, 13, 64, 0
18, 192240, Note_on_c, 13, 59, 100
18, 192298, Note_on_c, 13, 59, 0
18, 192300, Note_on_c, 13, 57, 100
18, 192358, Note_on_c, 13, 57, 0
18, 192360, Note_on_c, 13, 55, 100
18, 192418, Note_on_c, 13, 55, 0
18, 192420, Note_on_c, 13, 54, 100
18, 192478, Note_on_c, 13, 54, 0
18, 192480, Note_on_c, 13, 52, 100
18, 192538, Note_on_c, 13, 52, 0
18, 192540, Note_on_c, 13, 59, 100
18, 192898, Note_on_c, 13, 59, 0
18, 192900, Note_on_c, 13, 47, 100
18, 193258, Note_on_c, 13, 47, 0
18, 193740, Note_on_c, 13, 50, 100
18, 193978, Note_on_c, 13, 50, 0
18, 193980, Note_on_c, 13, 52, 100
18, 194098, Note_on_c, 13, 52, 0
18, 194100, Note_on_c, 13, 52, 100
18, 194218, Note_on_c, 13, 52, 0
18, 194220, Note_on_c, 13, 54, 100
18, 194278, Note_on_c, 13, 54, 0
18, 194280, Note_on_c, 13, 52, 100
18, 194338, Note_on_c, 13, 52, 0
18, 194340, Note_on_c, 13, 50, 100
18, 194398, Note_on_c, 13, 50, 0
18, 194400, Note_on_c, 13, 52, 100
18, 194458, Note_on_c, 13, 52, 0
18, 194460, Note_on_c, 13, 54, 100
18, 194518, Note_on_c, 13, 54, 0
18, 194520, Note_on_c, 13, 55, 100
18, 194578, Note_on_c, 13, 55, 0
18, 194580, Note_on_c, 13, 57, 100
18, 194698, Note_on_c, 13, 57, 0
18, 194700, Note_on_c, 13, 57, 100
18, 194818, Note_on_c, 13, 57, 0
18, 194820, Note_on_c, 13, 52, 100
18, 194938, Note_on_c, 13, 52, 0
18, 194940, Note_on_c, 13, 57, 100
18, 195058, Note_on_c, 13, 57, 0
18, 195060, Note_on_c, 13, 49, 100
18, 195178, Note_on_c, 13, 49, 0
18, 195180, Note_on_c, 13, 47, 100
18, 195418, Note_on_c, 13, 47, 0
18, 195420, Note_on_c, 13, 56, 100
18, 195658, Note_on_c, 13, 56, 0
18, 195660, Note_on_c, 13, 57, 100
18, 195898, Note_on_c, 13, 57, 0
18, 195900, Note_on_c, 13, 54, 100
18, 196078, Note_on_c, 13, 54, 0
18, 196080, Note_on_c, 13, 54, 100
18, 196138, Note_on_c, 13, 54, 0
18, 196140, Note_on_c, 13, 55, 100
18, 196258, Note_on_c, 13, 55, 0
18, 196260, Note_on_c, 13, 43, 100
18, 196378, Note_on_c, 13, 43, 0
18, 196380, Note_on_c, 13, 55, 100
18, 196498, Note_on_c, 13, 55, 0
18, 196500, Note_on_c, 13, 54, 100
18, 196558, Note_on_c, 13, 54, 0
18, 196560, Note_on_c, 13, 52, 100
18, 196618, Note_on_c, 13, 52, 0
18, 196620, Note_on_c, 13, 54, 100
18, 196678, Note_on_c, 13, 54, 0
18, 196680, Note_on_c, 13, 52, 100
18, 196738, Note_on_c, 13, 52, 0
18, 196740, Note_on_c, 13, 50, 100
18, 196798, Note_on_c, 13, 50, 0
18, 196800, Note_on_c, 13, 52, 100
18, 196858, Note_on_c, 13, 52, 0
18, 196860, Note_on_c, 13, 54, 100
18, 196918, Note_on_c, 13, 54, 0
18, 196920, Note_on_c, 13, 55, 100
18, 196978, Note_on_c, 13, 55, 0
18, 196980, Note_on_c, 13, 57, 100
18, 197098, Note_on_c, 13, 57, 0
18, 197100, Note_on_c, 13, 55, 100
18, 197218, Note_on_c, 13, 55, 0
18, 197220, Note_on_c, 13, 54, 100
18, 197338, Note_on_c, 13, 54, 0
18, 197340, Note_on_c, 13, 52, 100
18, 197578, Note_on_c, 13, 52, 0
18, 197580, Note_on_c, 13, 50, 100
18, 197698, Note_on_c, 13, 50, 0
18, 197700, Note_on_c, 13, 50, 100
18, 197818, Note_on_c, 13, 50, 0
18, 197820, Note_on_c, 13, 57, 100
18, 197938, Note_on_c, 13, 57, 0
18, 197940, Note_on_c, 13, 55, 100
18, 198058, Note_on_c, 13, 55, 0
18, 198060, Note_on_c, 13, 54, 100
18, 198238, Note_on_c, 13, 54, 0
18, 198240, Note_on_c, 13, 52, 100
18, 198298, Note_on_c, 13, 52, 0
18, 198300, Note_on_c, 13, 50, 100
18, 198538, Note_on_c, 13, 50, 0
18, 198780, Note_on_c, 13, 49, 100
18, 199018, Note_on_c, 13, 49, 0
18, 199020, Note_on_c, 13, 50, 100
18, 199258, Note_on_c, 13, 50, 0
18, 199260, Note_on_c, 13, 52, 100
18, 199498, Note_on_c, 13, 52, 0
18, 199500, Note_on_c, 13, 45, 100
18, 199738, Note_on_c, 13, 45, 0
18, 199860, Note_on_c, 13, 50, 100
18, 199978, Note_on_c, 13, 50, 0
18, 199980, Note_on_c, 13, 55, 100
18, 200098, Note_on_c, 13, 55, 0
18, 200100, Note_on_c, 13, 54, 100
18, 200218, Note_on_c, 13, 54, 0
18, 200220, Note_on_c, 13, 52, 100
18, 200398, Note_on_c, 13, 52, 0
18, 200400, Note_on_c, 13, 50, 100
18, 200458, Note_on_c, 13, 50, 0
18, 200460, Note_on_c, 13, 50, 100
18, 200578, Note_on_c, 13, 50, 0
18, 200580, Note_on_c, 13, 54, 100
18, 200698, Note_on_c, 13, 54, 0
18, 200700, Note_on_c, 13, 59, 100
18, 200818, Note_on_c, 13, 59, 0
18, 200820, Note_on_c, 13, 50, 100
18, 200938, Note_on_c, 13, 50, 0
18, 200940, Note_on_c, 13, 52, 100
18, 201058, Note_on_c, 13, 52, 0
18, 201060, Note_on_c, 13, 54, 100
18, 201178, Note_on_c, 13, 54, 0
18, 201180, Note_on_c, 13, 55, 100
18, 201418, Note_on_c, 13, 55, 0
18, 201420, Note_on_c, 13, 54, 100
18, 201538, Note_on_c, 13, 54, 0
18, 201540, Note_on_c, 13, 50, 100
18, 201658, Note_on_c, 13, 50, 0
18, 201660, Note_on_c, 13, 57, 100
18, 201778, Note_on_c, 13, 57, 0
18, 201780, Note_on_c, 13, 55, 100
18, 201898, Note_on_c, 13, 55, 0
18, 201900, Note_on_c, 13, 54, 100
18, 202078, Note_on_c, 13, 54, 0
18, 202080, Note_on_c, 13, 52, 100
18, 202138, Note_on_c, 13, 52, 0
18, 202140, Note_on_c, 13, 50, 100
18, 202378, Note_on_c, 13, 50, 0
18, 202620, Note_on_c, 13, 49, 100
18, 202858, Note_on_c, 13, 49, 0
18, 202860, Note_on_c, 13, 50, 100
18, 203098, Note_on_c, 13, 50, 0
18, 203100, Note_on_c, 13, 52, 100
18, 203338, Note_on_c, 13, 52, 0
18, 203340, Note_on_c, 13, 45, 100
18, 203578, Note_on_c, 13, 45, 0
18, 209100, Note_on_c, 13, 50, 100
18, 209338, Note_on_c, 13, 50, 0
18, 209340, Note_on_c, 13, 52, 100
18, 209458, Note_on_c, 13, 52, 0
18, 209460, Note_on_c, 13, 52, 100
18, 209578, Note_on_c, 13, 52, 0
18, 209580, Note_on_c, 13, 54, 100
18, 209638, Note_on_c, 13, 54, 0
18, 209640, Note_on_c, 13, 52, 100
18, 209698, Note_on_c, 13, 52, 0
18, 209700, Note_on_c, 13, 50, 100
18, 209758, Note_on_c, 13, 50, 0
18, 209760, Note_on_c, 13, 52, 100
18, 209818, Note_on_c, 13, 52, 0
18, 209820, Note_on_c, 13, 54, 100
18, 209878, Note_on_c, 13, 54, 0
18, 209880, Note_on_c, 13, 55, 100
18, 209938, Note_on_c, 13, 55, 0
18, 209940, Note_on_c, 13, 57, 100
18, 210058, Note_on_c, 13, 57, 0
18, 210060, Note_on_c, 13, 57, 100
18, 210178, Note_on_c, 13, 57, 0
18, 210180, Note_on_c, 13, 52, 100
18, 210298, Note_on_c, 13, 52, 0
18, 210300, Note_on_c, 13, 57, 100
18, 210418, Note_on_c, 13, 57, 0
18, 210420, Note_on_c, 13, 49, 100
18, 210538, Note_on_c, 13, 49, 0
18, 210540, Note_on_c, 13, 47, 100
18, 210778, Note_on_c, 13, 47, 0
18, 210780, Note_on_c, 13, 56, 100
18, 211018, Note_on_c, 13, 56, 0
18, 211020, Note_on_c, 13, 57, 100
18, 211258, Note_on_c, 13, 57, 0
18, 211260, Note_on_c, 13, 55, 100
18, 211438, Note_on_c, 13, 55, 0
18, 211440, Note_on_c, 13, 55, 100
18, 211498, Note_on_c, 13, 55, 0
18, 211500, Note_on_c, 13, 54, 100
18, 211738, Note_on_c, 13, 54, 0
18, 211740, Note_on_c, 13, 56, 100
18, 211918, Note_on_c, 13, 56, 0
18, 211920, Note_on_c, 13, 56, 100
18, 211978, Note_on_c, 13, 56, 0
18, 211980, Note_on_c, 13, 57, 100
18, 212098, Note_on_c, 13, 57, 0
18, 212100, Note_on_c, 13, 45, 100
18, 212218, Note_on_c, 13, 45, 0
18, 212220, Note_on_c, 13, 57, 100
18, 212338, Note_on_c, 13, 57, 0
18, 212340, Note_on_c, 13, 55, 100
18, 212398, Note_on_c, 13, 55, 0
18, 212400, Note_on_c, 13, 54, 100
18, 212458, Note_on_c, 13, 54, 0
18, 212460, Note_on_c, 13, 55, 100
18, 212578, Note_on_c, 13, 55, 0
18, 212580, Note_on_c, 13, 52, 100
18, 212698, Note_on_c, 13, 52, 0
18, 212700, Note_on_c, 13, 58, 100
18, 212878, Note_on_c, 13, 58, 0
18, 212880, Note_on_c, 13, 58, 100
18, 212938, Note_on_c, 13, 58, 0
18, 212940, Note_on_c, 13, 59, 100
18, 213058, Note_on_c, 13, 59, 0
18, 213060, Note_on_c, 13, 47, 100
18, 213178, Note_on_c, 13, 47, 0
18, 213180, Note_on_c, 13, 59, 100
18, 213298, Note_on_c, 13, 59, 0
18, 213300, Note_on_c, 13, 57, 100
18, 213358, Note_on_c, 13, 57, 0
18, 213360, Note_on_c, 13, 55, 100
18, 213418, Note_on_c, 13, 55, 0
18, 213420, Note_on_c, 13, 57, 100
18, 213538, Note_on_c, 13, 57, 0
18, 213540, Note_on_c, 13, 45, 100
18, 213658, Note_on_c, 13, 45, 0
18, 213660, Note_on_c, 13, 57, 100
18, 213778, Note_on_c, 13, 57, 0
18, 213780, Note_on_c, 13, 55, 100
18, 213838, Note_on_c, 13, 55, 0
18, 213840, Note_on_c, 13, 54, 100
18, 213898, Note_on_c, 13, 54, 0
18, 213900, Note_on_c, 13, 55, 100
18, 214018, Note_on_c, 13, 55, 0
18, 214020, Note_on_c, 13, 43, 100
18, 214138, Note_on_c, 13, 43, 0
18, 214140, Note_on_c, 13, 55, 100
18, 214258, Note_on_c, 13, 55, 0
18, 214260, Note_on_c, 13, 54, 100
18, 214318, Note_on_c, 13, 54, 0
18, 214320, Note_on_c, 13, 52, 100
18, 214378, Note_on_c, 13, 52, 0
18, 214380, Note_on_c, 13, 54, 100
18, 214498, Note_on_c, 13, 54, 0
18, 214500, Note_on_c, 13, 50, 100
18, 214558, Note_on_c, 13, 50, 0
18, 214560, Note_on_c, 13, 52, 100
18, 214618, Note_on_c, 13, 52, 0
18, 214620, Note_on_c, 13, 54, 100
18, 214738, Note_on_c, 13, 54, 0
18, 214740, Note_on_c, 13, 55, 100
18, 214858, Note_on_c, 13, 55, 0
18, 214860, Note_on_c, 13, 57, 100
18, 214978, Note_on_c, 13, 57, 0
18, 214980, Note_on_c, 13, 45, 100
18, 215098, Note_on_c, 13, 45, 0
18, 215100, Note_on_c, 13, 45, 100
18, 215218, Note_on_c, 13, 45, 0
18, 215220, Note_on_c, 13, 45, 100
18, 215338, Note_on_c, 13, 45, 0
18, 215340, Note_on_c, 13, 47, 100
18, 215398, Note_on_c, 13, 47, 0
18, 215400, Note_on_c, 13, 45, 100
18, 215458, Note_on_c, 13, 45, 0
18, 215460, Note_on_c, 13, 43, 100
18, 215518, Note_on_c, 13, 43, 0
18, 215520, Note_on_c, 13, 45, 100
18, 215578, Note_on_c, 13, 45, 0
18, 215580, Note_on_c, 13, 47, 100
18, 215638, Note_on_c, 13, 47, 0
18, 215640, Note_on_c, 13, 49, 100
18, 215698, Note_on_c, 13, 49, 0
18, 215700, Note_on_c, 13, 50, 100
18, 215818, Note_on_c, 13, 50, 0
18, 215820, Note_on_c, 13, 50, 100
18, 215938, Note_on_c, 13, 50, 0
18, 215940, Note_on_c, 13, 57, 100
18, 216058, Note_on_c, 13, 57, 0
18, 216060, Note_on_c, 13, 62, 100
18, 216178, Note_on_c, 13, 62, 0
18, 216180, Note_on_c, 13, 54, 100
18, 216298, Note_on_c, 13, 54, 0
18, 216300, Note_on_c, 13, 52, 100
18, 216538, Note_on_c, 13, 52, 0
18, 216540, Note_on_c, 13, 57, 100
18, 216778, Note_on_c, 13, 57, 0
18, 216780, Note_on_c, 13, 50, 100
18, 217018, Note_on_c, 13, 50, 0
18, 217020, Note_on_c, 13, 54, 100
18, 217198, Note_on_c, 13, 54, 0
18, 217200, Note_on_c, 13, 54, 100
18, 217258, Note_on_c, 13, 54, 0
18, 217260, Note_on_c, 13, 55, 100
18, 217378, Note_on_c, 13, 55, 0
18, 217380, Note_on_c, 13, 43, 100
18, 217498, Note_on_c, 13, 43, 0
18, 217500, Note_on_c, 13, 55, 100
18, 217858, Note_on_c, 13, 55, 0
18, 217860, Note_on_c, 13, 54, 100
18, 217918, Note_on_c, 13, 54, 0
18, 217920, Note_on_c, 13, 52, 100
18, 217978, Note_on_c, 13, 52, 0
18, 217980, Note_on_c, 13, 54, 100
18, 218038, Note_on_c, 13, 54, 0
18, 218040, Note_on_c, 13, 52, 100
18, 218098, Note_on_c, 13, 52, 0
18, 218100, Note_on_c, 13, 50, 100
18, 218158, Note_on_c, 13, 50, 0
18, 218160, Note_on_c, 13, 52, 100
18, 218218, Note_on_c, 13, 52, 0
18, 218220, Note_on_c, 13, 54, 100
18, 218278, Note_on_c, 13, 54, 0
18, 218280, Note_on_c, 13, 55, 100
18, 218338, Note_on_c, 13, 55, 0
18, 218340, Note_on_c, 13, 57, 100
18, 218458, Note_on_c, 13, 57, 0
18, 218460, Note_on_c, 13, 45, 100
18, 218638, Note_on_c, 13, 45, 0
18, 218640, Note_on_c, 13, 45, 100
18, 218698, Note_on_c, 13, 45, 0
18, 218700, Note_on_c, 13, 50, 100
18, 219178, Note_on_c, 13, 50, 0
18, 219660, Control_c, 13, 0, 0
18, 219660, Note_on_c, 13, 45, 100
18, 219780, Note_on_c, 13, 45, 0
18, 219840, Note_on_c, 13, 45, 100
18, 219880, Note_on_c, 13, 45, 0
18, 219900, Note_on_c, 13, 45, 100
18, 220060, Note_on_c, 13, 45, 0
18, 220140, Note_on_c, 13, 45, 100
18, 221577, Note_on_c, 13, 45, 0
18, 221580, Note_on_c, 13, 39, 100
18, 221700, Note_on_c, 13, 39, 0
18, 221760, Note_on_c, 13, 39, 100
18, 221800, Note_on_c, 13, 39, 0
18, 221820, Note_on_c, 13, 39, 100
18, 221980, Note_on_c, 13, 39, 0
18, 222060, Note_on_c, 13, 40, 100
18, 222298, Note_on_c, 13, 40, 0
18, 222300, Note_on_c, 13, 40, 100
18, 222538, Note_on_c, 13, 40, 0
18, 222540, Note_on_c, 13, 52, 100
18, 223978, Note_on_c, 13, 52, 0
18, 223980, Note_on_c, 13, 46, 90
18, 224160, Note_on_c, 13, 46, 0
18, 224160, Note_on_c, 13, 46, 90
18, 224220, Note_on_c, 13, 46, 0
18, 224220, Note_on_c, 13, 46, 90
18, 224460, Note_on_c, 13, 46, 0
18, 224460, Note_on_c, 13, 47, 90
18, 224640, Note_on_c, 13, 47, 0
18, 224640, Note_on_c, 13, 47, 90
18, 224700, Note_on_c, 13, 47, 0
18, 224700, Note_on_c, 13, 47, 90
18, 224940, Note_on_c, 13, 47, 0
18, 224940, Note_on_c, 13, 47, 90
18, 226140, Note_on_c, 13, 47, 0
18, 226140, Note_on_c, 13, 47, 90
18, 226180, Note_on_c, 13, 47, 0
18, 226180, Note_on_c, 13, 50, 90
18, 226220, Note_on_c, 13, 50, 0
18, 226220, Note_on_c, 13, 49, 90
18, 226260, Note_on_c, 13, 49, 0
18, 226260, Note_on_c, 13, 47, 90
18, 226300, Note_on_c, 13, 47, 0
18, 226300, Note_on_c, 13, 45, 90
18, 226340, Note_on_c, 13, 45, 0
18, 226340, Note_on_c, 13, 43, 90
18, 226380, Note_on_c, 13, 43, 0
18, 226380, Note_on_c, 13, 42, 90
18, 226500, Note_on_c, 13, 42, 0
18, 226500, Note_on_c, 13, 42, 90
18, 226560, Note_on_c, 13, 42, 0
18, 226560, Note_on_c, 13, 42, 90
18, 226620, Note_on_c, 13, 42, 0
18, 226620, Note_on_c, 13, 42, 90
18, 226740, Note_on_c, 13, 42, 0
18, 226740, Note_on_c, 13, 42, 90
18, 226860, Note_on_c, 13, 42, 0
18, 226860, Note_on_c, 13, 43, 90
18, 227040, Note_on_c, 13, 43, 0
18, 227040, Note_on_c, 13, 43, 90
18, 227100, Note_on_c, 13, 43, 0
18, 227100, Note_on_c, 13, 43, 90
18, 227580, Note_on_c, 13, 43, 0
18, 227580, Note_on_c, 13, 42, 90
18, 227820, Note_on_c, 13, 42, 0
18, 227820, Note_on_c, 13, 47, 90
18, 228300, Note_on_c, 13, 47, 0
18, 228300, Note_on_c, 13, 45, 90
18, 228780, Note_on_c, 13, 45, 0
18, 228780, Note_on_c, 13, 62, 90
18, 228839, Note_on_c, 13, 62, 0
18, 228840, Note_on_c, 13, 50, 90
18, 228899, Note_on_c, 13, 50, 0
18, 229140, Note_on_c, 13, 59, 90
18, 229199, Note_on_c, 13, 59, 0
18, 229200, Note_on_c, 13, 47, 90
18, 229259, Note_on_c, 13, 47, 0
18, 229500, Note_on_c, 13, 54, 90
18, 229559, Note_on_c, 13, 54, 0
18, 229560, Note_on_c, 13, 42, 90
18, 229619, Note_on_c, 13, 42, 0
18, 229680, Note_on_c, 13, 54, 90
18, 229709, Note_on_c, 13, 54, 0
18, 229710, Note_on_c, 13, 55, 90
18, 229739, Note_on_c, 13, 55, 0
18, 229740, Note_on_c, 13, 57, 90
18, 229799, Note_on_c, 13, 57, 0
18, 229800, Note_on_c, 13, 45, 90
18, 229859, Note_on_c, 13, 45, 0
18, 229860, Note_on_c, 13, 50, 90
18, 229919, Note_on_c, 13, 50, 0
18, 229920, Note_on_c, 13, 62, 90
18, 229949, Note_on_c, 13, 62, 0
18, 229950, Note_on_c, 13, 61, 90
18, 229979, Note_on_c, 13, 61, 0
18, 229980, Note_on_c, 13, 59, 90
18, 230039, Note_on_c, 13, 59, 0
18, 230040, Note_on_c, 13, 57, 90
18, 230069, Note_on_c, 13, 57, 0
18, 230070, Note_on_c, 13, 55, 90
18, 230099, Note_on_c, 13, 55, 0
18, 230100, Note_on_c, 13, 57, 90
18, 230159, Note_on_c, 13, 57, 0
18, 230160, Note_on_c, 13, 45, 90
18, 230219, Note_on_c, 13, 45, 0
18, 230220, Note_on_c, 13, 50, 90
18, 230279, Note_on_c, 13, 50, 0
18, 230280, Note_on_c, 13, 62, 90
18, 230339, Note_on_c, 13, 62, 0
18, 230580, Note_on_c, 13, 47, 90
18, 230639, Note_on_c, 13, 47, 0
18, 230640, Note_on_c, 13, 59, 90
18, 230699, Note_on_c, 13, 59, 0
18, 230940, Note_on_c, 13, 42, 90
18, 230999, Note_on_c, 13, 42, 0
18, 231000, Note_on_c, 13, 54, 90
18, 231059, Note_on_c, 13, 54, 0
18, 231120, Note_on_c, 13, 54, 90
18, 231149, Note_on_c, 13, 54, 0
18, 231150, Note_on_c, 13, 55, 90
18, 231179, Note_on_c, 13, 55, 0
18, 231180, Note_on_c, 13, 57, 90
18, 231239, Note_on_c, 13, 57, 0
18, 231240, Note_on_c, 13, 45, 90
18, 231299, Note_on_c, 13, 45, 0
18, 231300, Note_on_c, 13, 50, 90
18, 231359, Note_on_c, 13, 50, 0
18, 231360, Note_on_c, 13, 62, 90
18, 231389, Note_on_c, 13, 62, 0
18, 231390, Note_on_c, 13, 61, 90
18, 231419, Note_on_c, 13, 61, 0
18, 231420, Note_on_c, 13, 59, 90
18, 231479, Note_on_c, 13, 59, 0
18, 231480, Note_on_c, 13, 57, 90
18, 231509, Note_on_c, 13, 57, 0
18, 231510, Note_on_c, 13, 55, 90
18, 231539, Note_on_c, 13, 55, 0
18, 231540, Note_on_c, 13, 57, 90
18, 231599, Note_on_c, 13, 57, 0
18, 231600, Note_on_c, 13, 45, 90
18, 231659, Note_on_c, 13, 45, 0
18, 231660, Note_on_c, 13, 50, 90
18, 231719, Note_on_c, 13, 50, 0
18, 231720, Note_on_c, 13, 38, 90
18, 231779, Note_on_c, 13, 38, 0
18, 231840, Note_on_c, 13, 62, 90
18, 231899, Note_on_c, 13, 62, 0
18, 231900, Note_on_c, 13, 61, 90
18, 231959, Note_on_c, 13, 61, 0
18, 231960, Note_on_c, 13, 57, 90
18, 232019, Note_on_c, 13, 57, 0
18, 232020, Note_on_c, 13, 59, 90
18, 232079, Note_on_c, 13, 59, 0
18, 232080, Note_on_c, 13, 47, 90
18, 232139, Note_on_c, 13, 47, 0
18, 232200, Note_on_c, 13, 59, 90
18, 232259, Note_on_c, 13, 59, 0
18, 232260, Note_on_c, 13, 57, 90
18, 232319, Note_on_c, 13, 57, 0
18, 232320, Note_on_c, 13, 54, 90
18, 232379, Note_on_c, 13, 54, 0
18, 232380, Note_on_c, 13, 55, 90
18, 232439, Note_on_c, 13, 55, 0
18, 232440, Note_on_c, 13, 43, 90
18, 232499, Note_on_c, 13, 43, 0
18, 232560, Note_on_c, 13, 55, 90
18, 232619, Note_on_c, 13, 55, 0
18, 232620, Note_on_c, 13, 54, 90
18, 232679, Note_on_c, 13, 54, 0
18, 232680, Note_on_c, 13, 50, 90
18, 232739, Note_on_c, 13, 50, 0
18, 232740, Note_on_c, 13, 52, 90
18, 232799, Note_on_c, 13, 52, 0
18, 232800, Note_on_c, 13, 40, 90
18, 232859, Note_on_c, 13, 40, 0
18, 232920, Note_on_c, 13, 52, 90
18, 232979, Note_on_c, 13, 52, 0
18, 232980, Note_on_c, 13, 51, 90
18, 233039, Note_on_c, 13, 51, 0
18, 233040, Note_on_c, 13, 47, 90
18, 233099, Note_on_c, 13, 47, 0
18, 233100, Note_on_c, 13, 52, 90
18, 233159, Note_on_c, 13, 52, 0
18, 233160, Note_on_c, 13, 40, 90
18, 233219, Note_on_c, 13, 40, 0
18, 233280, Note_on_c, 13, 52, 90
18, 233309, Note_on_c, 13, 52, 0
18, 233310, Note_on_c, 13, 54, 90
18, 233339, Note_on_c, 13, 54, 0
18, 233340, Note_on_c, 13, 55, 90
18, 233369, Note_on_c, 13, 55, 0
18, 233370, Note_on_c, 13, 57, 90
18, 233399, Note_on_c, 13, 57, 0
18, 233400, Note_on_c, 13, 59, 90
18, 233459, Note_on_c, 13, 59, 0
18, 233460, Note_on_c, 13, 49, 90
18, 233519, Note_on_c, 13, 49, 0
18, 233520, Note_on_c, 13, 61, 90
18, 233579, Note_on_c, 13, 61, 0
18, 233640, Note_on_c, 13, 49, 90
18, 233669, Note_on_c, 13, 49, 0
18, 233670, Note_on_c, 13, 50, 90
18, 233699, Note_on_c, 13, 50, 0
18, 233700, Note_on_c, 13, 52, 90
18, 233729, Note_on_c, 13, 52, 0
18, 233730, Note_on_c, 13, 54, 90
18, 233759, Note_on_c, 13, 54, 0
18, 233760, Note_on_c, 13, 55, 90
18, 233819, Note_on_c, 13, 55, 0
18, 233820, Note_on_c, 13, 45, 90
18, 233879, Note_on_c, 13, 45, 0
18, 233880, Note_on_c, 13, 57, 90
18, 233939, Note_on_c, 13, 57, 0
18, 234000, Note_on_c, 13, 45, 90
18, 234029, Note_on_c, 13, 45, 0
18, 234030, Note_on_c, 13, 47, 90
18, 234059, Note_on_c, 13, 47, 0
18, 234060, Note_on_c, 13, 49, 90
18, 234089, Note_on_c, 13, 49, 0
18, 234090, Note_on_c, 13, 50, 90
18, 234119, Note_on_c, 13, 50, 0
18, 234120, Note_on_c, 13, 52, 90
18, 234179, Note_on_c, 13, 52, 0
18, 234180, Note_on_c, 13, 42, 90
18, 234239, Note_on_c, 13, 42, 0
18, 234240, Note_on_c, 13, 54, 90
18, 234299, Note_on_c, 13, 54, 0
18, 234360, Note_on_c, 13, 42, 90
18, 234389, Note_on_c, 13, 42, 0
18, 234390, Note_on_c, 13, 43, 90
18, 234419, Note_on_c, 13, 43, 0
18, 234420, Note_on_c, 13, 45, 90
18, 234449, Note_on_c, 13, 45, 0
18, 234450, Note_on_c, 13, 47, 90
18, 234479, Note_on_c, 13, 47, 0
18, 234480, Note_on_c, 13, 49, 90
18, 234539, Note_on_c, 13, 49, 0
18, 234540, Note_on_c, 13, 38, 90
18, 234599, Note_on_c, 13, 38, 0
18, 234600, Note_on_c, 13, 50, 90
18, 234659, Note_on_c, 13, 50, 0
18, 234900, Note_on_c, 13, 47, 90
18, 234959, Note_on_c, 13, 47, 0
18, 234960, Note_on_c, 13, 59, 90
18, 235019, Note_on_c, 13, 59, 0
18, 235260, Note_on_c, 13, 42, 90
18, 235289, Note_on_c, 13, 42, 0
18, 235290, Note_on_c, 13, 50, 90
18, 235319, Note_on_c, 13, 50, 0
18, 235320, Note_on_c, 13, 49, 90
18, 235349, Note_on_c, 13, 49, 0
18, 235350, Note_on_c, 13, 47, 90
18, 235379, Note_on_c, 13, 47, 0
18, 235380, Note_on_c, 13, 45, 90
18, 235409, Note_on_c, 13, 45, 0
18, 235410, Note_on_c, 13, 43, 90
18, 235439, Note_on_c, 13, 43, 0
18, 235440, Note_on_c, 13, 42, 90
18, 235469, Note_on_c, 13, 42, 0
18, 235470, Note_on_c, 13, 43, 90
18, 235499, Note_on_c, 13, 43, 0
18, 235500, Note_on_c, 13, 45, 90
18, 235529, Note_on_c, 13, 45, 0
18, 235530, Note_on_c, 13, 47, 90
18, 235559, Note_on_c, 13, 47, 0
18, 235560, Note_on_c, 13, 45, 90
18, 235589, Note_on_c, 13, 45, 0
18, 235590, Note_on_c, 13, 47, 90
18, 235619, Note_on_c, 13, 47, 0
18, 235620, Note_on_c, 13, 45, 90
18, 235649, Note_on_c, 13, 45, 0
18, 235650, Note_on_c, 13, 50, 90
18, 235679, Note_on_c, 13, 50, 0
18, 235680, Note_on_c, 13, 49, 90
18, 235709, Note_on_c, 13, 49, 0
18, 235710, Note_on_c, 13, 47, 90
18, 235739, Note_on_c, 13, 47, 0
18, 235740, Note_on_c, 13, 45, 90
18, 235769, Note_on_c, 13, 45, 0
18, 235770, Note_on_c, 13, 43, 90
18, 235799, Note_on_c, 13, 43, 0
18, 235800, Note_on_c, 13, 42, 90
18, 235829, Note_on_c, 13, 42, 0
18, 235830, Note_on_c, 13, 43, 90
18, 235859, Note_on_c, 13, 43, 0
18, 235860, Note_on_c, 13, 45, 90
18, 235889, Note_on_c, 13, 45, 0
18, 235890, Note_on_c, 13, 47, 90
18, 235919, Note_on_c, 13, 47, 0
18, 235920, Note_on_c, 13, 43, 90
18, 235949, Note_on_c, 13, 43, 0
18, 235950, Note_on_c, 13, 45, 90
18, 235979, Note_on_c, 13, 45, 0
18, 235980, Note_on_c, 13, 47, 90
18, 236039, Note_on_c, 13, 47, 0
18, 236040, Note_on_c, 13, 45, 90
18, 236069, Note_on_c, 13, 45, 0
18, 236070, Note_on_c, 13, 43, 90
18, 236099, Note_on_c, 13, 43, 0
18, 236100, Note_on_c, 13, 42, 90
18, 236129, Note_on_c, 13, 42, 0
18, 236130, Note_on_c, 13, 40, 90
18, 236159, Note_on_c, 13, 40, 0
18, 236160, Note_on_c, 13, 38, 90
18, 236189, Note_on_c, 13, 38, 0
18, 236190, Note_on_c, 13, 40, 90
18, 236219, Note_on_c, 13, 40, 0
18, 236220, Note_on_c, 13, 42, 90
18, 236249, Note_on_c, 13, 42, 0
18, 236250, Note_on_c, 13, 43, 90
18, 236279, Note_on_c, 13, 43, 0
18, 236280, Note_on_c, 13, 45, 90
18, 236339, Note_on_c, 13, 45, 0
18, 236340, Note_on_c, 13, 50, 90
18, 236399, Note_on_c, 13, 50, 0
18, 236400, Note_on_c, 13, 47, 90
18, 236459, Note_on_c, 13, 47, 0
18, 236460, Note_on_c, 13, 42, 90
18, 236519, Note_on_c, 13, 42, 0
18, 236520, Note_on_c, 13, 43, 90
18, 236579, Note_on_c, 13, 43, 0
18, 236580, Note_on_c, 13, 45, 90
18, 236699, Note_on_c, 13, 45, 0
18, 236700, Note_on_c, 13, 38, 90
18, 236819, Note_on_c, 13, 38, 0
18, 236819, End_track
19, 0, Start_track
19, 0, MIDI_port, 0
19, 0, Title_t, "c bajo"
19, 0, Program_c, 14, 43
19, 0, Control_c, 14, 7, 127
19, 0, Control_c, 14, 10, 1
19, 0, Note_on_c, 14, 50, 100
19, 40, Note_on_c, 14, 50, 0
19, 60, Note_on_c, 14, 38, 100
19, 100, Note_on_c, 14, 38, 0
19, 360, Note_on_c, 14, 47, 100
19, 400, Note_on_c, 14, 47, 0
19, 420, Note_on_c, 14, 35, 100
19, 460, Note_on_c, 14, 35, 0
19, 720, Note_on_c, 14, 42, 100
19, 760, Note_on_c, 14, 42, 0
19, 780, Note_on_c, 14, 30, 100
19, 820, Note_on_c, 14, 30, 0
19, 900, Note_on_c, 14, 42, 100
19, 920, Note_on_c, 14, 42, 0
19, 930, Note_on_c, 14, 43, 100
19, 950, Note_on_c, 14, 43, 0
19, 960, Note_on_c, 14, 45, 100
19, 1000, Note_on_c, 14, 45, 0
19, 1020, Note_on_c, 14, 33, 100
19, 1060, Note_on_c, 14, 33, 0
19, 1080, Note_on_c, 14, 38, 100
19, 1120, Note_on_c, 14, 38, 0
19, 1140, Note_on_c, 14, 50, 100
19, 1160, Note_on_c, 14, 50, 0
19, 1170, Note_on_c, 14, 49, 100
19, 1190, Note_on_c, 14, 49, 0
19, 1200, Note_on_c, 14, 47, 100
19, 1240, Note_on_c, 14, 47, 0
19, 1260, Note_on_c, 14, 45, 100
19, 1280, Note_on_c, 14, 45, 0
19, 1290, Note_on_c, 14, 43, 100
19, 1310, Note_on_c, 14, 43, 0
19, 1320, Note_on_c, 14, 45, 100
19, 1360, Note_on_c, 14, 45, 0
19, 1380, Note_on_c, 14, 33, 100
19, 1420, Note_on_c, 14, 33, 0
19, 1440, Note_on_c, 14, 38, 100
19, 1480, Note_on_c, 14, 38, 0
19, 1500, Note_on_c, 14, 42, 100
19, 1540, Note_on_c, 14, 42, 0
19, 1560, Note_on_c, 14, 45, 100
19, 1600, Note_on_c, 14, 45, 0
19, 1620, Note_on_c, 14, 50, 100
19, 1660, Note_on_c, 14, 50, 0
19, 1680, Note_on_c, 14, 50, 100
19, 1720, Note_on_c, 14, 50, 0
19, 1740, Note_on_c, 14, 45, 100
19, 1780, Note_on_c, 14, 45, 0
19, 1800, Note_on_c, 14, 44, 100
19, 1840, Note_on_c, 14, 44, 0
19, 1860, Note_on_c, 14, 40, 100
19, 1900, Note_on_c, 14, 40, 0
19, 1920, Note_on_c, 14, 45, 100
19, 1960, Note_on_c, 14, 45, 0
19, 1980, Note_on_c, 14, 49, 100
19, 2020, Note_on_c, 14, 49, 0
19, 2040, Note_on_c, 14, 49, 100
19, 2080, Note_on_c, 14, 49, 0
19, 2100, Note_on_c, 14, 45, 100
19, 2140, Note_on_c, 14, 45, 0
19, 2160, Note_on_c, 14, 42, 100
19, 2200, Note_on_c, 14, 42, 0
19, 2220, Note_on_c, 14, 38, 100
19, 2260, Note_on_c, 14, 38, 0
19, 2340, Note_on_c, 14, 42, 100
19, 2360, Note_on_c, 14, 42, 0
19, 2370, Note_on_c, 14, 43, 100
19, 2390, Note_on_c, 14, 43, 0
19, 2400, Note_on_c, 14, 42, 100
19, 2420, Note_on_c, 14, 42, 0
19, 2430, Note_on_c, 14, 40, 100
19, 2450, Note_on_c, 14, 40, 0
19, 2460, Note_on_c, 14, 38, 100
19, 2480, Note_on_c, 14, 38, 0
19, 2490, Note_on_c, 14, 37, 100
19, 2510, Note_on_c, 14, 37, 0
19, 2520, Note_on_c, 14, 35, 100
19, 2560, Note_on_c, 14, 35, 0
19, 2580, Note_on_c, 14, 47, 100
19, 2620, Note_on_c, 14, 47, 0
19, 2700, Note_on_c, 14, 35, 100
19, 2720, Note_on_c, 14, 35, 0
19, 2730, Note_on_c, 14, 37, 100
19, 2750, Note_on_c, 14, 37, 0
19, 2760, Note_on_c, 14, 35, 100
19, 2780, Note_on_c, 14, 35, 0
19, 2790, Note_on_c, 14, 33, 100
19, 2810, Note_on_c, 14, 33, 0
19, 2820, Note_on_c, 14, 32, 100
19, 2840, Note_on_c, 14, 32, 0
19, 2850, Note_on_c, 14, 30, 100
19, 2870, Note_on_c, 14, 30, 0
19, 2880, Note_on_c, 14, 28, 100
19, 2920, Note_on_c, 14, 28, 0
19, 2940, Note_on_c, 14, 40, 100
19, 2980, Note_on_c, 14, 40, 0
19, 3000, Note_on_c, 14, 35, 100
19, 3040, Note_on_c, 14, 35, 0
19, 3060, Note_on_c, 14, 32, 100
19, 3100, Note_on_c, 14, 32, 0
19, 3120, Note_on_c, 14, 28, 100
19, 3160, Note_on_c, 14, 28, 0
19, 3180, Note_on_c, 14, 38, 100
19, 3220, Note_on_c, 14, 38, 0
19, 3240, Note_on_c, 14, 37, 100
19, 3280, Note_on_c, 14, 37, 0
19, 3300, Note_on_c, 14, 45, 100
19, 3340, Note_on_c, 14, 45, 0
19, 3360, Note_on_c, 14, 40, 100
19, 3400, Note_on_c, 14, 40, 0
19, 3420, Note_on_c, 14, 37, 100
19, 3460, Note_on_c, 14, 37, 0
19, 3480, Note_on_c, 14, 33, 100
19, 3520, Note_on_c, 14, 33, 0
19, 3540, Note_on_c, 14, 43, 100
19, 3580, Note_on_c, 14, 43, 0
19, 3600, Note_on_c, 14, 42, 100
19, 3640, Note_on_c, 14, 42, 0
19, 3660, Note_on_c, 14, 38, 100
19, 3700, Note_on_c, 14, 38, 0
19, 3720, Note_on_c, 14, 42, 100
19, 3760, Note_on_c, 14, 42, 0
19, 3780, Note_on_c, 14, 47, 100
19, 3820, Note_on_c, 14, 47, 0
19, 3840, Note_on_c, 14, 47, 100
19, 3880, Note_on_c, 14, 47, 0
19, 3900, Note_on_c, 14, 44, 100
19, 3940, Note_on_c, 14, 44, 0
19, 3960, Note_on_c, 14, 40, 100
19, 4000, Note_on_c, 14, 40, 0
19, 4020, Note_on_c, 14, 44, 100
19, 4060, Note_on_c, 14, 44, 0
19, 4080, Note_on_c, 14, 45, 100
19, 4120, Note_on_c, 14, 45, 0
19, 4140, Note_on_c, 14, 38, 100
19, 4180, Note_on_c, 14, 38, 0
19, 4200, Note_on_c, 14, 40, 100
19, 4240, Note_on_c, 14, 40, 0
19, 4260, Note_on_c, 14, 28, 100
19, 4300, Note_on_c, 14, 28, 0
19, 4320, Note_on_c, 14, 33, 100
19, 4360, Note_on_c, 14, 33, 0
19, 4380, Note_on_c, 14, 45, 100
19, 4420, Note_on_c, 14, 45, 0
19, 4680, Note_on_c, 14, 30, 100
19, 4720, Note_on_c, 14, 30, 0
19, 4740, Note_on_c, 14, 42, 100
19, 4780, Note_on_c, 14, 42, 0
19, 5040, Note_on_c, 14, 25, 100
19, 5080, Note_on_c, 14, 25, 0
19, 5100, Note_on_c, 14, 37, 100
19, 5140, Note_on_c, 14, 37, 0
19, 5220, Note_on_c, 14, 37, 100
19, 5240, Note_on_c, 14, 37, 0
19, 5250, Note_on_c, 14, 38, 100
19, 5270, Note_on_c, 14, 38, 0
19, 5280, Note_on_c, 14, 40, 100
19, 5320, Note_on_c, 14, 40, 0
19, 5340, Note_on_c, 14, 28, 100
19, 5380, Note_on_c, 14, 28, 0
19, 5400, Note_on_c, 14, 33, 100
19, 5440, Note_on_c, 14, 33, 0
19, 5460, Note_on_c, 14, 45, 100
19, 5480, Note_on_c, 14, 45, 0
19, 5490, Note_on_c, 14, 44, 100
19, 5510, Note_on_c, 14, 44, 0
19, 5520, Note_on_c, 14, 42, 100
19, 5560, Note_on_c, 14, 42, 0
19, 5580, Note_on_c, 14, 40, 100
19, 5600, Note_on_c, 14, 40, 0
19, 5610, Note_on_c, 14, 38, 100
19, 5630, Note_on_c, 14, 38, 0
19, 5640, Note_on_c, 14, 40, 100
19, 5680, Note_on_c, 14, 40, 0
19, 5700, Note_on_c, 14, 28, 100
19, 5740, Note_on_c, 14, 28, 0
19, 5760, Note_on_c, 14, 33, 100
19, 5800, Note_on_c, 14, 33, 0
19, 5820, Note_on_c, 14, 45, 100
19, 5860, Note_on_c, 14, 45, 0
19, 5940, Note_on_c, 14, 45, 100
19, 5960, Note_on_c, 14, 45, 0
19, 5970, Note_on_c, 14, 47, 100
19, 5990, Note_on_c, 14, 47, 0
19, 6000, Note_on_c, 14, 45, 100
19, 6020, Note_on_c, 14, 45, 0
19, 6030, Note_on_c, 14, 43, 100
19, 6050, Note_on_c, 14, 43, 0
19, 6060, Note_on_c, 14, 42, 100
19, 6080, Note_on_c, 14, 42, 0
19, 6090, Note_on_c, 14, 40, 100
19, 6110, Note_on_c, 14, 40, 0
19, 6120, Note_on_c, 14, 38, 100
19, 6160, Note_on_c, 14, 38, 0
19, 6180, Note_on_c, 14, 50, 100
19, 6220, Note_on_c, 14, 50, 0
19, 6300, Note_on_c, 14, 38, 100
19, 6320, Note_on_c, 14, 38, 0
19, 6330, Note_on_c, 14, 40, 100
19, 6350, Note_on_c, 14, 40, 0
19, 6360, Note_on_c, 14, 38, 100
19, 6380, Note_on_c, 14, 38, 0
19, 6390, Note_on_c, 14, 36, 100
19, 6410, Note_on_c, 14, 36, 0
19, 6420, Note_on_c, 14, 35, 100
19, 6440, Note_on_c, 14, 35, 0
19, 6450, Note_on_c, 14, 33, 100
19, 6470, Note_on_c, 14, 33, 0
19, 6480, Note_on_c, 14, 31, 100
19, 6520, Note_on_c, 14, 31, 0
19, 6540, Note_on_c, 14, 43, 100
19, 6580, Note_on_c, 14, 43, 0
19, 6660, Note_on_c, 14, 43, 100
19, 6680, Note_on_c, 14, 43, 0
19, 6690, Note_on_c, 14, 42, 100
19, 6710, Note_on_c, 14, 42, 0
19, 6720, Note_on_c, 14, 40, 100
19, 6740, Note_on_c, 14, 40, 0
19, 6750, Note_on_c, 14, 38, 100
19, 6770, Note_on_c, 14, 38, 0
19, 6780, Note_on_c, 14, 37, 100
19, 6800, Note_on_c, 14, 37, 0
19, 6810, Note_on_c, 14, 35, 100
19, 6830, Note_on_c, 14, 35, 0
19, 6840, Note_on_c, 14, 33, 100
19, 6880, Note_on_c, 14, 33, 0
19, 6900, Note_on_c, 14, 45, 100
19, 6940, Note_on_c, 14, 45, 0
19, 7980, Note_on_c, 14, 33, 100
19, 8020, Note_on_c, 14, 33, 0
19, 8040, Note_on_c, 14, 38, 100
19, 8080, Note_on_c, 14, 38, 0
19, 8100, Note_on_c, 14, 42, 100
19, 8140, Note_on_c, 14, 42, 0
19, 8160, Note_on_c, 14, 42, 100
19, 8200, Note_on_c, 14, 42, 0
19, 8220, Note_on_c, 14, 38, 100
19, 8260, Note_on_c, 14, 38, 0
19, 8280, Note_on_c, 14, 33, 100
19, 8320, Note_on_c, 14, 33, 0
19, 8340, Note_on_c, 14, 38, 100
19, 8380, Note_on_c, 14, 38, 0
19, 8400, Note_on_c, 14, 42, 100
19, 8440, Note_on_c, 14, 42, 0
19, 8460, Note_on_c, 14, 45, 100
19, 8500, Note_on_c, 14, 45, 0
19, 8520, Note_on_c, 14, 45, 100
19, 8560, Note_on_c, 14, 45, 0
19, 8580, Note_on_c, 14, 42, 100
19, 8620, Note_on_c, 14, 42, 0
19, 8640, Note_on_c, 14, 38, 100
19, 8680, Note_on_c, 14, 38, 0
19, 8700, Note_on_c, 14, 50, 100
19, 8740, Note_on_c, 14, 50, 0
19, 9000, Note_on_c, 14, 35, 100
19, 9040, Note_on_c, 14, 35, 0
19, 9060, Note_on_c, 14, 47, 100
19, 9100, Note_on_c, 14, 47, 0
19, 9360, Note_on_c, 14, 30, 100
19, 9380, Note_on_c, 14, 30, 0
19, 9390, Note_on_c, 14, 50, 100
19, 9410, Note_on_c, 14, 50, 0
19, 9420, Note_on_c, 14, 49, 100
19, 9440, Note_on_c, 14, 49, 0
19, 9450, Note_on_c, 14, 47, 100
19, 9470, Note_on_c, 14, 47, 0
19, 9480, Note_on_c, 14, 45, 100
19, 9500, Note_on_c, 14, 45, 0
19, 9510, Note_on_c, 14, 43, 100
19, 9530, Note_on_c, 14, 43, 0
19, 9540, Note_on_c, 14, 42, 100
19, 9560, Note_on_c, 14, 42, 0
19, 9570, Note_on_c, 14, 43, 100
19, 9590, Note_on_c, 14, 43, 0
19, 9600, Note_on_c, 14, 45, 100
19, 9620, Note_on_c, 14, 45, 0
19, 9630, Note_on_c, 14, 47, 100
19, 9650, Note_on_c, 14, 47, 0
19, 9660, Note_on_c, 14, 45, 100
19, 9680, Note_on_c, 14, 45, 0
19, 9690, Note_on_c, 14, 47, 100
19, 9710, Note_on_c, 14, 47, 0
19, 9720, Note_on_c, 14, 45, 100
19, 9740, Note_on_c, 14, 45, 0
19, 9750, Note_on_c, 14, 50, 100
19, 9770, Note_on_c, 14, 50, 0
19, 9780, Note_on_c, 14, 49, 100
19, 9800, Note_on_c, 14, 49, 0
19, 9810, Note_on_c, 14, 47, 100
19, 9830, Note_on_c, 14, 47, 0
19, 9840, Note_on_c, 14, 45, 100
19, 9860, Note_on_c, 14, 45, 0
19, 9870, Note_on_c, 14, 43, 100
19, 9890, Note_on_c, 14, 43, 0
19, 9900, Note_on_c, 14, 42, 100
19, 9920, Note_on_c, 14, 42, 0
19, 9930, Note_on_c, 14, 43, 100
19, 9950, Note_on_c, 14, 43, 0
19, 9960, Note_on_c, 14, 45, 100
19, 9980, Note_on_c, 14, 45, 0
19, 9990, Note_on_c, 14, 47, 100
19, 10010, Note_on_c, 14, 47, 0
19, 10020, Note_on_c, 14, 43, 100
19, 10040, Note_on_c, 14, 43, 0
19, 10050, Note_on_c, 14, 45, 100
19, 10070, Note_on_c, 14, 45, 0
19, 10080, Note_on_c, 14, 47, 100
19, 10120, Note_on_c, 14, 47, 0
19, 10140, Note_on_c, 14, 45, 100
19, 10160, Note_on_c, 14, 45, 0
19, 10170, Note_on_c, 14, 43, 100
19, 10190, Note_on_c, 14, 43, 0
19, 10200, Note_on_c, 14, 42, 100
19, 10220, Note_on_c, 14, 42, 0
19, 10230, Note_on_c, 14, 40, 100
19, 10250, Note_on_c, 14, 40, 0
19, 10260, Note_on_c, 14, 38, 100
19, 10280, Note_on_c, 14, 38, 0
19, 10290, Note_on_c, 14, 40, 100
19, 10310, Note_on_c, 14, 40, 0
19, 10320, Note_on_c, 14, 42, 100
19, 10340, Note_on_c, 14, 42, 0
19, 10350, Note_on_c, 14, 43, 100
19, 10370, Note_on_c, 14, 43, 0
19, 10380, Note_on_c, 14, 45, 100
19, 10420, Note_on_c, 14, 45, 0
19, 10440, Note_on_c, 14, 38, 100
19, 10480, Note_on_c, 14, 38, 0
19, 10500, Note_on_c, 14, 47, 100
19, 10540, Note_on_c, 14, 47, 0
19, 10560, Note_on_c, 14, 42, 100
19, 10600, Note_on_c, 14, 42, 0
19, 10620, Note_on_c, 14, 43, 100
19, 10660, Note_on_c, 14, 43, 0
19, 10680, Note_on_c, 14, 45, 100
19, 10720, Note_on_c, 14, 45, 0
19, 10740, Note_on_c, 14, 33, 100
19, 10780, Note_on_c, 14, 33, 0
19, 10800, Note_on_c, 14, 38, 100
19, 10840, Note_on_c, 14, 38, 0
19, 10860, Note_on_c, 14, 26, 100
19, 10900, Note_on_c, 14, 26, 0
19, 11160, Note_on_c, 14, 38, 100
19, 11200, Note_on_c, 14, 38, 0
19, 11220, Note_on_c, 14, 26, 100
19, 11260, Note_on_c, 14, 26, 0
19, 11520, Note_on_c, 14, 50, 100
19, 11560, Note_on_c, 14, 50, 0
19, 11580, Note_on_c, 14, 38, 100
19, 11620, Note_on_c, 14, 38, 0
19, 11880, Note_on_c, 14, 47, 100
19, 11920, Note_on_c, 14, 47, 0
19, 11940, Note_on_c, 14, 35, 100
19, 11980, Note_on_c, 14, 35, 0
19, 12240, Note_on_c, 14, 42, 100
19, 12280, Note_on_c, 14, 42, 0
19, 12300, Note_on_c, 14, 30, 100
19, 12340, Note_on_c, 14, 30, 0
19, 12420, Note_on_c, 14, 42, 100
19, 12440, Note_on_c, 14, 42, 0
19, 12450, Note_on_c, 14, 43, 100
19, 12470, Note_on_c, 14, 43, 0
19, 12480, Note_on_c, 14, 45, 100
19, 12520, Note_on_c, 14, 45, 0
19, 12540, Note_on_c, 14, 33, 100
19, 12580, Note_on_c, 14, 33, 0
19, 12600, Note_on_c, 14, 38, 100
19, 12640, Note_on_c, 14, 38, 0
19, 12660, Note_on_c, 14, 50, 100
19, 12680, Note_on_c, 14, 50, 0
19, 12690, Note_on_c, 14, 49, 100
19, 12710, Note_on_c, 14, 49, 0
19, 12720, Note_on_c, 14, 47, 100
19, 12760, Note_on_c, 14, 47, 0
19, 12780, Note_on_c, 14, 45, 100
19, 12800, Note_on_c, 14, 45, 0
19, 12810, Note_on_c, 14, 43, 100
19, 12830, Note_on_c, 14, 43, 0
19, 12840, Note_on_c, 14, 45, 100
19, 12880, Note_on_c, 14, 45, 0
19, 12900, Note_on_c, 14, 33, 100
19, 12940, Note_on_c, 14, 33, 0
19, 12960, Note_on_c, 14, 38, 100
19, 13000, Note_on_c, 14, 38, 0
19, 13020, Note_on_c, 14, 42, 100
19, 13060, Note_on_c, 14, 42, 0
19, 13080, Note_on_c, 14, 45, 100
19, 13120, Note_on_c, 14, 45, 0
19, 13140, Note_on_c, 14, 50, 100
19, 13180, Note_on_c, 14, 50, 0
19, 13200, Note_on_c, 14, 50, 100
19, 13240, Note_on_c, 14, 50, 0
19, 13260, Note_on_c, 14, 45, 100
19, 13300, Note_on_c, 14, 45, 0
19, 13320, Note_on_c, 14, 44, 100
19, 13360, Note_on_c, 14, 44, 0
19, 13380, Note_on_c, 14, 40, 100
19, 13420, Note_on_c, 14, 40, 0
19, 13440, Note_on_c, 14, 45, 100
19, 13480, Note_on_c, 14, 45, 0
19, 13500, Note_on_c, 14, 49, 100
19, 13540, Note_on_c, 14, 49, 0
19, 13560, Note_on_c, 14, 49, 100
19, 13600, Note_on_c, 14, 49, 0
19, 13620, Note_on_c, 14, 45, 100
19, 13660, Note_on_c, 14, 45, 0
19, 13680, Note_on_c, 14, 42, 100
19, 13720, Note_on_c, 14, 42, 0
19, 13740, Note_on_c, 14, 38, 100
19, 13780, Note_on_c, 14, 38, 0
19, 13860, Note_on_c, 14, 42, 100
19, 13880, Note_on_c, 14, 42, 0
19, 13890, Note_on_c, 14, 43, 100
19, 13910, Note_on_c, 14, 43, 0
19, 13920, Note_on_c, 14, 42, 100
19, 13940, Note_on_c, 14, 42, 0
19, 13950, Note_on_c, 14, 40, 100
19, 13970, Note_on_c, 14, 40, 0
19, 13980, Note_on_c, 14, 38, 100
19, 14000, Note_on_c, 14, 38, 0
19, 14010, Note_on_c, 14, 37, 100
19, 14030, Note_on_c, 14, 37, 0
19, 14040, Note_on_c, 14, 35, 100
19, 14080, Note_on_c, 14, 35, 0
19, 14100, Note_on_c, 14, 47, 100
19, 14140, Note_on_c, 14, 47, 0
19, 14220, Note_on_c, 14, 35, 100
19, 14240, Note_on_c, 14, 35, 0
19, 14250, Note_on_c, 14, 37, 100
19, 14270, Note_on_c, 14, 37, 0
19, 14280, Note_on_c, 14, 35, 100
19, 14300, Note_on_c, 14, 35, 0
19, 14310, Note_on_c, 14, 33, 100
19, 14330, Note_on_c, 14, 33, 0
19, 14340, Note_on_c, 14, 32, 100
19, 14360, Note_on_c, 14, 32, 0
19, 14370, Note_on_c, 14, 30, 100
19, 14390, Note_on_c, 14, 30, 0
19, 14400, Note_on_c, 14, 28, 100
19, 14440, Note_on_c, 14, 28, 0
19, 14460, Note_on_c, 14, 40, 100
19, 14500, Note_on_c, 14, 40, 0
19, 14520, Note_on_c, 14, 35, 100
19, 14560, Note_on_c, 14, 35, 0
19, 14580, Note_on_c, 14, 32, 100
19, 14620, Note_on_c, 14, 32, 0
19, 14640, Note_on_c, 14, 28, 100
19, 14680, Note_on_c, 14, 28, 0
19, 14700, Note_on_c, 14, 38, 100
19, 14740, Note_on_c, 14, 38, 0
19, 14760, Note_on_c, 14, 37, 100
19, 14800, Note_on_c, 14, 37, 0
19, 14820, Note_on_c, 14, 45, 100
19, 14860, Note_on_c, 14, 45, 0
19, 14880, Note_on_c, 14, 40, 100
19, 14920, Note_on_c, 14, 40, 0
19, 14940, Note_on_c, 14, 37, 100
19, 14980, Note_on_c, 14, 37, 0
19, 15000, Note_on_c, 14, 33, 100
19, 15040, Note_on_c, 14, 33, 0
19, 15060, Note_on_c, 14, 43, 100
19, 15100, Note_on_c, 14, 43, 0
19, 15120, Note_on_c, 14, 42, 100
19, 15160, Note_on_c, 14, 42, 0
19, 15180, Note_on_c, 14, 38, 100
19, 15220, Note_on_c, 14, 38, 0
19, 15240, Note_on_c, 14, 42, 100
19, 15280, Note_on_c, 14, 42, 0
19, 15300, Note_on_c, 14, 47, 100
19, 15340, Note_on_c, 14, 47, 0
19, 15360, Note_on_c, 14, 47, 100
19, 15400, Note_on_c, 14, 47, 0
19, 15420, Note_on_c, 14, 44, 100
19, 15460, Note_on_c, 14, 44, 0
19, 15480, Note_on_c, 14, 40, 100
19, 15520, Note_on_c, 14, 40, 0
19, 15540, Note_on_c, 14, 44, 100
19, 15580, Note_on_c, 14, 44, 0
19, 15600, Note_on_c, 14, 45, 100
19, 15640, Note_on_c, 14, 45, 0
19, 15660, Note_on_c, 14, 38, 100
19, 15700, Note_on_c, 14, 38, 0
19, 15720, Note_on_c, 14, 40, 100
19, 15760, Note_on_c, 14, 40, 0
19, 15780, Note_on_c, 14, 28, 100
19, 15820, Note_on_c, 14, 28, 0
19, 15840, Note_on_c, 14, 33, 100
19, 15880, Note_on_c, 14, 33, 0
19, 15900, Note_on_c, 14, 45, 100
19, 15940, Note_on_c, 14, 45, 0
19, 16200, Note_on_c, 14, 33, 100
19, 16240, Note_on_c, 14, 33, 0
19, 16260, Note_on_c, 14, 45, 100
19, 16300, Note_on_c, 14, 45, 0
19, 16560, Note_on_c, 14, 33, 100
19, 16600, Note_on_c, 14, 33, 0
19, 16620, Note_on_c, 14, 45, 100
19, 16660, Note_on_c, 14, 45, 0
19, 16920, Note_on_c, 14, 30, 100
19, 16960, Note_on_c, 14, 30, 0
19, 16980, Note_on_c, 14, 42, 100
19, 17020, Note_on_c, 14, 42, 0
19, 17280, Note_on_c, 14, 25, 100
19, 17320, Note_on_c, 14, 25, 0
19, 17340, Note_on_c, 14, 37, 100
19, 17380, Note_on_c, 14, 37, 0
19, 17460, Note_on_c, 14, 37, 100
19, 17480, Note_on_c, 14, 37, 0
19, 17490, Note_on_c, 14, 38, 100
19, 17510, Note_on_c, 14, 38, 0
19, 17520, Note_on_c, 14, 40, 100
19, 17560, Note_on_c, 14, 40, 0
19, 17580, Note_on_c, 14, 28, 100
19, 17620, Note_on_c, 14, 28, 0
19, 17640, Note_on_c, 14, 33, 100
19, 17680, Note_on_c, 14, 33, 0
19, 17700, Note_on_c, 14, 45, 100
19, 17720, Note_on_c, 14, 45, 0
19, 17730, Note_on_c, 14, 44, 100
19, 17750, Note_on_c, 14, 44, 0
19, 17760, Note_on_c, 14, 42, 100
19, 17800, Note_on_c, 14, 42, 0
19, 17820, Note_on_c, 14, 40, 100
19, 17840, Note_on_c, 14, 40, 0
19, 17850, Note_on_c, 14, 38, 100
19, 17870, Note_on_c, 14, 38, 0
19, 17880, Note_on_c, 14, 40, 100
19, 17920, Note_on_c, 14, 40, 0
19, 17940, Note_on_c, 14, 28, 100
19, 17980, Note_on_c, 14, 28, 0
19, 18000, Note_on_c, 14, 33, 100
19, 18040, Note_on_c, 14, 33, 0
19, 18060, Note_on_c, 14, 45, 100
19, 18100, Note_on_c, 14, 45, 0
19, 18360, Note_on_c, 14, 34, 100
19, 18400, Note_on_c, 14, 34, 0
19, 18420, Note_on_c, 14, 46, 100
19, 18460, Note_on_c, 14, 46, 0
19, 18720, Note_on_c, 14, 35, 100
19, 18760, Note_on_c, 14, 35, 0
19, 18780, Note_on_c, 14, 47, 100
19, 18820, Note_on_c, 14, 47, 0
19, 19080, Note_on_c, 14, 29, 100
19, 19120, Note_on_c, 14, 29, 0
19, 19140, Note_on_c, 14, 41, 100
19, 19180, Note_on_c, 14, 41, 0
19, 19440, Note_on_c, 14, 30, 100
19, 19480, Note_on_c, 14, 30, 0
19, 19500, Note_on_c, 14, 42, 100
19, 19540, Note_on_c, 14, 42, 0
19, 19800, Note_on_c, 14, 25, 100
19, 19840, Note_on_c, 14, 25, 0
19, 19860, Note_on_c, 14, 37, 100
19, 19900, Note_on_c, 14, 37, 0
19, 20160, Note_on_c, 14, 50, 100
19, 20200, Note_on_c, 14, 50, 0
19, 20220, Note_on_c, 14, 38, 100
19, 20260, Note_on_c, 14, 38, 0
19, 20520, Note_on_c, 14, 47, 100
19, 20560, Note_on_c, 14, 47, 0
19, 20580, Note_on_c, 14, 35, 100
19, 20620, Note_on_c, 14, 35, 0
19, 20880, Note_on_c, 14, 42, 100
19, 20920, Note_on_c, 14, 42, 0
19, 20940, Note_on_c, 14, 30, 100
19, 20980, Note_on_c, 14, 30, 0
19, 21060, Note_on_c, 14, 42, 100
19, 21080, Note_on_c, 14, 42, 0
19, 21090, Note_on_c, 14, 43, 100
19, 21110, Note_on_c, 14, 43, 0
19, 21120, Note_on_c, 14, 45, 100
19, 21160, Note_on_c, 14, 45, 0
19, 21180, Note_on_c, 14, 33, 100
19, 21220, Note_on_c, 14, 33, 0
19, 21240, Note_on_c, 14, 38, 100
19, 21280, Note_on_c, 14, 38, 0
19, 21300, Note_on_c, 14, 50, 100
19, 21320, Note_on_c, 14, 50, 0
19, 21330, Note_on_c, 14, 49, 100
19, 21350, Note_on_c, 14, 49, 0
19, 21360, Note_on_c, 14, 47, 100
19, 21400, Note_on_c, 14, 47, 0
19, 21420, Note_on_c, 14, 42, 100
19, 21440, Note_on_c, 14, 42, 0
19, 21450, Note_on_c, 14, 43, 100
19, 21470, Note_on_c, 14, 43, 0
19, 21480, Note_on_c, 14, 45, 100
19, 21520, Note_on_c, 14, 45, 0
19, 21540, Note_on_c, 14, 33, 100
19, 21580, Note_on_c, 14, 33, 0
19, 21600, Note_on_c, 14, 38, 100
19, 21640, Note_on_c, 14, 38, 0
19, 21660, Note_on_c, 14, 50, 100
19, 21700, Note_on_c, 14, 50, 0
19, 21960, Note_on_c, 14, 38, 100
19, 22000, Note_on_c, 14, 38, 0
19, 22020, Note_on_c, 14, 47, 100
19, 22040, Note_on_c, 14, 47, 0
19, 22050, Note_on_c, 14, 45, 100
19, 22070, Note_on_c, 14, 45, 0
19, 22080, Note_on_c, 14, 43, 100
19, 22120, Note_on_c, 14, 43, 0
19, 22140, Note_on_c, 14, 38, 100
19, 22160, Note_on_c, 14, 38, 0
19, 22170, Note_on_c, 14, 40, 100
19, 22190, Note_on_c, 14, 40, 0
19, 22200, Note_on_c, 14, 42, 100
19, 22240, Note_on_c, 14, 42, 0
19, 22260, Note_on_c, 14, 30, 100
19, 22300, Note_on_c, 14, 30, 0
19, 22320, Note_on_c, 14, 35, 100
19, 22360, Note_on_c, 14, 35, 0
19, 22380, Note_on_c, 14, 47, 100
19, 22420, Note_on_c, 14, 47, 0
19, 22680, Note_on_c, 14, 31, 100
19, 22720, Note_on_c, 14, 31, 0
19, 22740, Note_on_c, 14, 43, 100
19, 22760, Note_on_c, 14, 43, 0
19, 22770, Note_on_c, 14, 42, 100
19, 22790, Note_on_c, 14, 42, 0
19, 22800, Note_on_c, 14, 40, 100
19, 22840, Note_on_c, 14, 40, 0
19, 22860, Note_on_c, 14, 35, 100
19, 22880, Note_on_c, 14, 35, 0
19, 22890, Note_on_c, 14, 37, 100
19, 22910, Note_on_c, 14, 37, 0
19, 22920, Note_on_c, 14, 38, 100
19, 22960, Note_on_c, 14, 38, 0
19, 22980, Note_on_c, 14, 26, 100
19, 23020, Note_on_c, 14, 26, 0
19, 23040, Note_on_c, 14, 31, 100
19, 23080, Note_on_c, 14, 31, 0
19, 23100, Note_on_c, 14, 43, 100
19, 23140, Note_on_c, 14, 43, 0
19, 23400, Note_on_c, 14, 28, 100
19, 23440, Note_on_c, 14, 28, 0
19, 23460, Note_on_c, 14, 40, 100
19, 23480, Note_on_c, 14, 40, 0
19, 23490, Note_on_c, 14, 38, 100
19, 23510, Note_on_c, 14, 38, 0
19, 23520, Note_on_c, 14, 36, 100
19, 23560, Note_on_c, 14, 36, 0
19, 23580, Note_on_c, 14, 31, 100
19, 23600, Note_on_c, 14, 31, 0
19, 23610, Note_on_c, 14, 33, 100
19, 23630, Note_on_c, 14, 33, 0
19, 23640, Note_on_c, 14, 35, 100
19, 23680, Note_on_c, 14, 35, 0
19, 23700, Note_on_c, 14, 35, 100
19, 23740, Note_on_c, 14, 35, 0
19, 23760, Note_on_c, 14, 28, 100
19, 23800, Note_on_c, 14, 28, 0
19, 23820, Note_on_c, 14, 35, 100
19, 23860, Note_on_c, 14, 35, 0
19, 23880, Note_on_c, 14, 40, 100
19, 23920, Note_on_c, 14, 40, 0
19, 23940, Note_on_c, 14, 43, 100
19, 23980, Note_on_c, 14, 43, 0
19, 24000, Note_on_c, 14, 43, 100
19, 24040, Note_on_c, 14, 43, 0
19, 24060, Note_on_c, 14, 40, 100
19, 24100, Note_on_c, 14, 40, 0
19, 24120, Note_on_c, 14, 37, 100
19, 24160, Note_on_c, 14, 37, 0
19, 24180, Note_on_c, 14, 33, 100
19, 24220, Note_on_c, 14, 33, 0
19, 24240, Note_on_c, 14, 38, 100
19, 24280, Note_on_c, 14, 38, 0
19, 24300, Note_on_c, 14, 42, 100
19, 24340, Note_on_c, 14, 42, 0
19, 24360, Note_on_c, 14, 42, 100
19, 24400, Note_on_c, 14, 42, 0
19, 24420, Note_on_c, 14, 38, 100
19, 24460, Note_on_c, 14, 38, 0
19, 24480, Note_on_c, 14, 35, 100
19, 24520, Note_on_c, 14, 35, 0
19, 24540, Note_on_c, 14, 31, 100
19, 24580, Note_on_c, 14, 31, 0
19, 24660, Note_on_c, 14, 35, 100
19, 24680, Note_on_c, 14, 35, 0
19, 24690, Note_on_c, 14, 36, 100
19, 24710, Note_on_c, 14, 36, 0
19, 24720, Note_on_c, 14, 35, 100
19, 24740, Note_on_c, 14, 35, 0
19, 24750, Note_on_c, 14, 33, 100
19, 24770, Note_on_c, 14, 33, 0
19, 24780, Note_on_c, 14, 31, 100
19, 24800, Note_on_c, 14, 31, 0
19, 24810, Note_on_c, 14, 30, 100
19, 24830, Note_on_c, 14, 30, 0
19, 24840, Note_on_c, 14, 28, 100
19, 24880, Note_on_c, 14, 28, 0
19, 24900, Note_on_c, 14, 40, 100
19, 24940, Note_on_c, 14, 40, 0
19, 25020, Note_on_c, 14, 40, 100
19, 25040, Note_on_c, 14, 40, 0
19, 25050, Note_on_c, 14, 42, 100
19, 25070, Note_on_c, 14, 42, 0
19, 25080, Note_on_c, 14, 40, 100
19, 25100, Note_on_c, 14, 40, 0
19, 25110, Note_on_c, 14, 38, 100
19, 25130, Note_on_c, 14, 38, 0
19, 25140, Note_on_c, 14, 37, 100
19, 25160, Note_on_c, 14, 37, 0
19, 25170, Note_on_c, 14, 35, 100
19, 25190, Note_on_c, 14, 35, 0
19, 25200, Note_on_c, 14, 33, 100
19, 25240, Note_on_c, 14, 33, 0
19, 25260, Note_on_c, 14, 45, 100
19, 25300, Note_on_c, 14, 45, 0
19, 25320, Note_on_c, 14, 40, 100
19, 25360, Note_on_c, 14, 40, 0
19, 25380, Note_on_c, 14, 37, 100
19, 25420, Note_on_c, 14, 37, 0
19, 25440, Note_on_c, 14, 33, 100
19, 25480, Note_on_c, 14, 33, 0
19, 25500, Note_on_c, 14, 43, 100
19, 25540, Note_on_c, 14, 43, 0
19, 25560, Note_on_c, 14, 42, 100
19, 25600, Note_on_c, 14, 42, 0
19, 25620, Note_on_c, 14, 38, 100
19, 25660, Note_on_c, 14, 38, 0
19, 25680, Note_on_c, 14, 33, 100
19, 25720, Note_on_c, 14, 33, 0
19, 25740, Note_on_c, 14, 30, 100
19, 25780, Note_on_c, 14, 30, 0
19, 25800, Note_on_c, 14, 26, 100
19, 25840, Note_on_c, 14, 26, 0
19, 25860, Note_on_c, 14, 36, 100
19, 25900, Note_on_c, 14, 36, 0
19, 25920, Note_on_c, 14, 35, 100
19, 25960, Note_on_c, 14, 35, 0
19, 25980, Note_on_c, 14, 31, 100
19, 26020, Note_on_c, 14, 31, 0
19, 26040, Note_on_c, 14, 35, 100
19, 26080, Note_on_c, 14, 35, 0
19, 26100, Note_on_c, 14, 40, 100
19, 26140, Note_on_c, 14, 40, 0
19, 26160, Note_on_c, 14, 40, 100
19, 26200, Note_on_c, 14, 40, 0
19, 26220, Note_on_c, 14, 38, 100
19, 26260, Note_on_c, 14, 38, 0
19, 26280, Note_on_c, 14, 33, 100
19, 26320, Note_on_c, 14, 33, 0
19, 26340, Note_on_c, 14, 37, 100
19, 26380, Note_on_c, 14, 37, 0
19, 26400, Note_on_c, 14, 38, 100
19, 26440, Note_on_c, 14, 38, 0
19, 26460, Note_on_c, 14, 43, 100
19, 26500, Note_on_c, 14, 43, 0
19, 26520, Note_on_c, 14, 45, 100
19, 26560, Note_on_c, 14, 45, 0
19, 26580, Note_on_c, 14, 33, 100
19, 26620, Note_on_c, 14, 33, 0
19, 26640, Note_on_c, 14, 26, 100
19, 26680, Note_on_c, 14, 26, 0
19, 26700, Note_on_c, 14, 38, 100
19, 26740, Note_on_c, 14, 38, 0
19, 26820, Note_on_c, 14, 38, 100
19, 26860, Note_on_c, 14, 38, 0
19, 26880, Note_on_c, 14, 37, 100
19, 26920, Note_on_c, 14, 37, 0
19, 26940, Note_on_c, 14, 38, 100
19, 26980, Note_on_c, 14, 38, 0
19, 27000, Note_on_c, 14, 33, 100
19, 27040, Note_on_c, 14, 33, 0
19, 27060, Note_on_c, 14, 45, 100
19, 27100, Note_on_c, 14, 45, 0
19, 27180, Note_on_c, 14, 45, 100
19, 27200, Note_on_c, 14, 45, 0
19, 27210, Note_on_c, 14, 47, 100
19, 27230, Note_on_c, 14, 47, 0
19, 27240, Note_on_c, 14, 45, 100
19, 27260, Note_on_c, 14, 45, 0
19, 27270, Note_on_c, 14, 43, 100
19, 27290, Note_on_c, 14, 43, 0
19, 27300, Note_on_c, 14, 42, 100
19, 27320, Note_on_c, 14, 42, 0
19, 27330, Note_on_c, 14, 40, 100
19, 27350, Note_on_c, 14, 40, 0
19, 27360, Note_on_c, 14, 38, 100
19, 27400, Note_on_c, 14, 38, 0
19, 27420, Note_on_c, 14, 50, 100
19, 27460, Note_on_c, 14, 50, 0
19, 27540, Note_on_c, 14, 38, 100
19, 27560, Note_on_c, 14, 38, 0
19, 27570, Note_on_c, 14, 40, 100
19, 27590, Note_on_c, 14, 40, 0
19, 27600, Note_on_c, 14, 38, 100
19, 27620, Note_on_c, 14, 38, 0
19, 27630, Note_on_c, 14, 36, 100
19, 27650, Note_on_c, 14, 36, 0
19, 27660, Note_on_c, 14, 35, 100
19, 27680, Note_on_c, 14, 35, 0
19, 27690, Note_on_c, 14, 33, 100
19, 27710, Note_on_c, 14, 33, 0
19, 27720, Note_on_c, 14, 31, 100
19, 27760, Note_on_c, 14, 31, 0
19, 27780, Note_on_c, 14, 43, 100
19, 27820, Note_on_c, 14, 43, 0
19, 27900, Note_on_c, 14, 43, 100
19, 27920, Note_on_c, 14, 43, 0
19, 27930, Note_on_c, 14, 42, 100
19, 27950, Note_on_c, 14, 42, 0
19, 27960, Note_on_c, 14, 40, 100
19, 27980, Note_on_c, 14, 40, 0
19, 27990, Note_on_c, 14, 38, 100
19, 28010, Note_on_c, 14, 38, 0
19, 28020, Note_on_c, 14, 37, 100
19, 28040, Note_on_c, 14, 37, 0
19, 28050, Note_on_c, 14, 35, 100
19, 28070, Note_on_c, 14, 35, 0
19, 28080, Note_on_c, 14, 33, 100
19, 28120, Note_on_c, 14, 33, 0
19, 28140, Note_on_c, 14, 45, 100
19, 28180, Note_on_c, 14, 45, 0
19, 29220, Note_on_c, 14, 33, 100
19, 29260, Note_on_c, 14, 33, 0
19, 29280, Note_on_c, 14, 38, 100
19, 29320, Note_on_c, 14, 38, 0
19, 29340, Note_on_c, 14, 42, 100
19, 29380, Note_on_c, 14, 42, 0
19, 29400, Note_on_c, 14, 42, 100
19, 29440, Note_on_c, 14, 42, 0
19, 29460, Note_on_c, 14, 38, 100
19, 29500, Note_on_c, 14, 38, 0
19, 29520, Note_on_c, 14, 33, 100
19, 29560, Note_on_c, 14, 33, 0
19, 29580, Note_on_c, 14, 38, 100
19, 29620, Note_on_c, 14, 38, 0
19, 29640, Note_on_c, 14, 42, 100
19, 29680, Note_on_c, 14, 42, 0
19, 29700, Note_on_c, 14, 45, 100
19, 29740, Note_on_c, 14, 45, 0
19, 29760, Note_on_c, 14, 45, 100
19, 29800, Note_on_c, 14, 45, 0
19, 29820, Note_on_c, 14, 42, 100
19, 29860, Note_on_c, 14, 42, 0
19, 29880, Note_on_c, 14, 38, 100
19, 29920, Note_on_c, 14, 38, 0
19, 29940, Note_on_c, 14, 50, 100
19, 29980, Note_on_c, 14, 50, 0
19, 30240, Note_on_c, 14, 35, 100
19, 30280, Note_on_c, 14, 35, 0
19, 30300, Note_on_c, 14, 47, 100
19, 30340, Note_on_c, 14, 47, 0
19, 30600, Note_on_c, 14, 30, 100
19, 30620, Note_on_c, 14, 30, 0
19, 30630, Note_on_c, 14, 50, 100
19, 30650, Note_on_c, 14, 50, 0
19, 30660, Note_on_c, 14, 49, 100
19, 30680, Note_on_c, 14, 49, 0
19, 30690, Note_on_c, 14, 47, 100
19, 30710, Note_on_c, 14, 47, 0
19, 30720, Note_on_c, 14, 45, 100
19, 30740, Note_on_c, 14, 45, 0
19, 30750, Note_on_c, 14, 43, 100
19, 30770, Note_on_c, 14, 43, 0
19, 30780, Note_on_c, 14, 42, 100
19, 30800, Note_on_c, 14, 42, 0
19, 30810, Note_on_c, 14, 43, 100
19, 30830, Note_on_c, 14, 43, 0
19, 30840, Note_on_c, 14, 45, 100
19, 30860, Note_on_c, 14, 45, 0
19, 30870, Note_on_c, 14, 47, 100
19, 30890, Note_on_c, 14, 47, 0
19, 30900, Note_on_c, 14, 45, 100
19, 30920, Note_on_c, 14, 45, 0
19, 30930, Note_on_c, 14, 47, 100
19, 30950, Note_on_c, 14, 47, 0
19, 30960, Note_on_c, 14, 45, 100
19, 30980, Note_on_c, 14, 45, 0
19, 30990, Note_on_c, 14, 50, 100
19, 31010, Note_on_c, 14, 50, 0
19, 31020, Note_on_c, 14, 49, 100
19, 31040, Note_on_c, 14, 49, 0
19, 31050, Note_on_c, 14, 47, 100
19, 31070, Note_on_c, 14, 47, 0
19, 31080, Note_on_c, 14, 45, 100
19, 31100, Note_on_c, 14, 45, 0
19, 31110, Note_on_c, 14, 43, 100
19, 31130, Note_on_c, 14, 43, 0
19, 31140, Note_on_c, 14, 42, 100
19, 31160, Note_on_c, 14, 42, 0
19, 31170, Note_on_c, 14, 43, 100
19, 31190, Note_on_c, 14, 43, 0
19, 31200, Note_on_c, 14, 45, 100
19, 31220, Note_on_c, 14, 45, 0
19, 31230, Note_on_c, 14, 47, 100
19, 31250, Note_on_c, 14, 47, 0
19, 31260, Note_on_c, 14, 43, 100
19, 31280, Note_on_c, 14, 43, 0
19, 31290, Note_on_c, 14, 45, 100
19, 31310, Note_on_c, 14, 45, 0
19, 31320, Note_on_c, 14, 47, 100
19, 31360, Note_on_c, 14, 47, 0
19, 31380, Note_on_c, 14, 45, 100
19, 31400, Note_on_c, 14, 45, 0
19, 31410, Note_on_c, 14, 43, 100
19, 31430, Note_on_c, 14, 43, 0
19, 31440, Note_on_c, 14, 42, 100
19, 31460, Note_on_c, 14, 42, 0
19, 31470, Note_on_c, 14, 40, 100
19, 31490, Note_on_c, 14, 40, 0
19, 31500, Note_on_c, 14, 38, 100
19, 31520, Note_on_c, 14, 38, 0
19, 31530, Note_on_c, 14, 40, 100
19, 31550, Note_on_c, 14, 40, 0
19, 31560, Note_on_c, 14, 42, 100
19, 31580, Note_on_c, 14, 42, 0
19, 31590, Note_on_c, 14, 43, 100
19, 31610, Note_on_c, 14, 43, 0
19, 31620, Note_on_c, 14, 45, 100
19, 31660, Note_on_c, 14, 45, 0
19, 31680, Note_on_c, 14, 38, 100
19, 31720, Note_on_c, 14, 38, 0
19, 31740, Note_on_c, 14, 47, 100
19, 31780, Note_on_c, 14, 47, 0
19, 31800, Note_on_c, 14, 42, 100
19, 31840, Note_on_c, 14, 42, 0
19, 31860, Note_on_c, 14, 43, 100
19, 31900, Note_on_c, 14, 43, 0
19, 31920, Note_on_c, 14, 45, 100
19, 31960, Note_on_c, 14, 45, 0
19, 31980, Note_on_c, 14, 33, 100
19, 32020, Note_on_c, 14, 33, 0
19, 32040, Note_on_c, 14, 38, 100
19, 32120, Note_on_c, 14, 38, 0
19, 32760, Control_c, 14, 0, 0
19, 32760, Note_on_c, 14, 38, 100
19, 32840, Note_on_c, 14, 38, 0
19, 32970, Note_on_c, 14, 50, 100
19, 32980, Note_on_c, 14, 50, 0
19, 32985, Note_on_c, 14, 49, 100
19, 32995, Note_on_c, 14, 49, 0
19, 33000, Note_on_c, 14, 50, 100
19, 33020, Note_on_c, 14, 50, 0
19, 33030, Note_on_c, 14, 45, 100
19, 33050, Note_on_c, 14, 45, 0
19, 33060, Note_on_c, 14, 42, 100
19, 33080, Note_on_c, 14, 42, 0
19, 33090, Note_on_c, 14, 38, 100
19, 33110, Note_on_c, 14, 38, 0
19, 33120, Note_on_c, 14, 40, 100
19, 33160, Note_on_c, 14, 40, 0
19, 33180, Note_on_c, 14, 42, 100
19, 33220, Note_on_c, 14, 42, 0
19, 33240, Note_on_c, 14, 43, 100
19, 33280, Note_on_c, 14, 43, 0
19, 33300, Note_on_c, 14, 45, 100
19, 33340, Note_on_c, 14, 45, 0
19, 33360, Note_on_c, 14, 43, 100
19, 33400, Note_on_c, 14, 43, 0
19, 33480, Note_on_c, 14, 42, 100
19, 33560, Note_on_c, 14, 42, 0
19, 33690, Note_on_c, 14, 43, 100
19, 33700, Note_on_c, 14, 43, 0
19, 33705, Note_on_c, 14, 42, 100
19, 33715, Note_on_c, 14, 42, 0
19, 33720, Note_on_c, 14, 43, 100
19, 33740, Note_on_c, 14, 43, 0
19, 33750, Note_on_c, 14, 38, 100
19, 33770, Note_on_c, 14, 38, 0
19, 33780, Note_on_c, 14, 35, 100
19, 33800, Note_on_c, 14, 35, 0
19, 33810, Note_on_c, 14, 31, 100
19, 33830, Note_on_c, 14, 31, 0
19, 33840, Note_on_c, 14, 44, 100
19, 33920, Note_on_c, 14, 44, 0
19, 34050, Note_on_c, 14, 45, 100
19, 34060, Note_on_c, 14, 45, 0
19, 34065, Note_on_c, 14, 44, 100
19, 34075, Note_on_c, 14, 44, 0
19, 34080, Note_on_c, 14, 45, 100
19, 34100, Note_on_c, 14, 45, 0
19, 34110, Note_on_c, 14, 40, 100
19, 34130, Note_on_c, 14, 40, 0
19, 34140, Note_on_c, 14, 37, 100
19, 34160, Note_on_c, 14, 37, 0
19, 34170, Note_on_c, 14, 33, 100
19, 34190, Note_on_c, 14, 33, 0
19, 34200, Note_on_c, 14, 37, 100
19, 34280, Note_on_c, 14, 37, 0
19, 34380, Note_on_c, 14, 33, 100
19, 34420, Note_on_c, 14, 33, 0
19, 34440, Note_on_c, 14, 38, 100
19, 34480, Note_on_c, 14, 38, 0
19, 34500, Note_on_c, 14, 35, 100
19, 34540, Note_on_c, 14, 35, 0
19, 34560, Note_on_c, 14, 31, 100
19, 34600, Note_on_c, 14, 31, 0
19, 34620, Note_on_c, 14, 33, 100
19, 34660, Note_on_c, 14, 33, 0
19, 34680, Note_on_c, 14, 33, 100
19, 34720, Note_on_c, 14, 33, 0
19, 34740, Note_on_c, 14, 26, 100
19, 34780, Note_on_c, 14, 26, 0
19, 34800, Note_on_c, 14, 30, 100
19, 34840, Note_on_c, 14, 30, 0
19, 34860, Note_on_c, 14, 33, 100
19, 34900, Note_on_c, 14, 33, 0
19, 34920, Note_on_c, 14, 38, 100
19, 35000, Note_on_c, 14, 38, 0
19, 35130, Note_on_c, 14, 50, 100
19, 35140, Note_on_c, 14, 50, 0
19, 35145, Note_on_c, 14, 49, 100
19, 35155, Note_on_c, 14, 49, 0
19, 35160, Note_on_c, 14, 50, 100
19, 35180, Note_on_c, 14, 50, 0
19, 35190, Note_on_c, 14, 45, 100
19, 35210, Note_on_c, 14, 45, 0
19, 35220, Note_on_c, 14, 42, 100
19, 35240, Note_on_c, 14, 42, 0
19, 35250, Note_on_c, 14, 38, 100
19, 35270, Note_on_c, 14, 38, 0
19, 35280, Note_on_c, 14, 43, 100
19, 35320, Note_on_c, 14, 43, 0
19, 35340, Note_on_c, 14, 40, 100
19, 35380, Note_on_c, 14, 40, 0
19, 35400, Note_on_c, 14, 45, 100
19, 35440, Note_on_c, 14, 45, 0
19, 35460, Note_on_c, 14, 38, 100
19, 35480, Note_on_c, 14, 38, 0
19, 35490, Note_on_c, 14, 45, 100
19, 35500, Note_on_c, 14, 45, 0
19, 35505, Note_on_c, 14, 44, 100
19, 35515, Note_on_c, 14, 44, 0
19, 35520, Note_on_c, 14, 45, 100
19, 35540, Note_on_c, 14, 45, 0
19, 35550, Note_on_c, 14, 40, 100
19, 35570, Note_on_c, 14, 40, 0
19, 35580, Note_on_c, 14, 37, 100
19, 35600, Note_on_c, 14, 37, 0
19, 35610, Note_on_c, 14, 33, 100
19, 35630, Note_on_c, 14, 33, 0
19, 35640, Note_on_c, 14, 37, 100
19, 35720, Note_on_c, 14, 37, 0
19, 35820, Note_on_c, 14, 33, 100
19, 35860, Note_on_c, 14, 33, 0
19, 35880, Note_on_c, 14, 38, 100
19, 35920, Note_on_c, 14, 38, 0
19, 35940, Note_on_c, 14, 35, 100
19, 35980, Note_on_c, 14, 35, 0
19, 36000, Note_on_c, 14, 31, 100
19, 36040, Note_on_c, 14, 31, 0
19, 36060, Note_on_c, 14, 33, 100
19, 36100, Note_on_c, 14, 33, 0
19, 36120, Note_on_c, 14, 33, 100
19, 36160, Note_on_c, 14, 33, 0
19, 36180, Note_on_c, 14, 26, 100
19, 36220, Note_on_c, 14, 26, 0
19, 36240, Note_on_c, 14, 30, 100
19, 36280, Note_on_c, 14, 30, 0
19, 36300, Note_on_c, 14, 33, 100
19, 36340, Note_on_c, 14, 33, 0
19, 36360, Note_on_c, 14, 38, 100
19, 36440, Note_on_c, 14, 38, 0
19, 36570, Note_on_c, 14, 50, 100
19, 36580, Note_on_c, 14, 50, 0
19, 36585, Note_on_c, 14, 49, 100
19, 36595, Note_on_c, 14, 49, 0
19, 36600, Note_on_c, 14, 50, 100
19, 36620, Note_on_c, 14, 50, 0
19, 36630, Note_on_c, 14, 45, 100
19, 36650, Note_on_c, 14, 45, 0
19, 36660, Note_on_c, 14, 42, 100
19, 36680, Note_on_c, 14, 42, 0
19, 36690, Note_on_c, 14, 38, 100
19, 36710, Note_on_c, 14, 38, 0
19, 36720, Note_on_c, 14, 43, 100
19, 36760, Note_on_c, 14, 43, 0
19, 36780, Note_on_c, 14, 45, 100
19, 36820, Note_on_c, 14, 45, 0
19, 36840, Note_on_c, 14, 33, 100
19, 36880, Note_on_c, 14, 33, 0
19, 36900, Note_on_c, 14, 38, 100
19, 36940, Note_on_c, 14, 38, 0
19, 36960, Note_on_c, 14, 33, 100
19, 37000, Note_on_c, 14, 33, 0
19, 37020, Note_on_c, 14, 35, 100
19, 37060, Note_on_c, 14, 35, 0
19, 37080, Note_on_c, 14, 37, 100
19, 37140, Note_on_c, 14, 37, 0
19, 37140, Note_on_c, 14, 33, 100
19, 37200, Note_on_c, 14, 33, 0
19, 37290, Note_on_c, 14, 45, 100
19, 37305, Note_on_c, 14, 45, 0
19, 37305, Note_on_c, 14, 44, 100
19, 37320, Note_on_c, 14, 44, 0
19, 37320, Note_on_c, 14, 45, 100
19, 37350, Note_on_c, 14, 45, 0
19, 37350, Note_on_c, 14, 40, 100
19, 37380, Note_on_c, 14, 40, 0
19, 37380, Note_on_c, 14, 37, 100
19, 37410, Note_on_c, 14, 37, 0
19, 37410, Note_on_c, 14, 33, 100
19, 37440, Note_on_c, 14, 33, 0
19, 37440, Note_on_c, 14, 35, 100
19, 37500, Note_on_c, 14, 35, 0
19, 37500, Note_on_c, 14, 28, 100
19, 37560, Note_on_c, 14, 28, 0
19, 37560, Note_on_c, 14, 38, 100
19, 37620, Note_on_c, 14, 38, 0
19, 37620, Note_on_c, 14, 37, 100
19, 37680, Note_on_c, 14, 37, 0
19, 37680, Note_on_c, 14, 38, 100
19, 37740, Note_on_c, 14, 38, 0
19, 37740, Note_on_c, 14, 40, 100
19, 37800, Note_on_c, 14, 40, 0
19, 37800, Note_on_c, 14, 37, 100
19, 37830, Note_on_c, 14, 37, 0
19, 37830, Note_on_c, 14, 40, 100
19, 37845, Note_on_c, 14, 40, 0
19, 37845, Note_on_c, 14, 42, 100
19, 37860, Note_on_c, 14, 42, 0
19, 37860, Note_on_c, 14, 40, 100
19, 37890, Note_on_c, 14, 40, 0
19, 37890, Note_on_c, 14, 37, 100
19, 37905, Note_on_c, 14, 37, 0
19, 37905, Note_on_c, 14, 38, 100
19, 37920, Note_on_c, 14, 38, 0
19, 37920, Note_on_c, 14, 37, 100
19, 37950, Note_on_c, 14, 37, 0
19, 37950, Note_on_c, 14, 33, 100
19, 37965, Note_on_c, 14, 33, 0
19, 37965, Note_on_c, 14, 35, 100
19, 37980, Note_on_c, 14, 35, 0
19, 37980, Note_on_c, 14, 33, 100
19, 38040, Note_on_c, 14, 33, 0
19, 38040, Note_on_c, 14, 38, 100
19, 38100, Note_on_c, 14, 38, 0
19, 38190, Note_on_c, 14, 47, 100
19, 38205, Note_on_c, 14, 47, 0
19, 38205, Note_on_c, 14, 45, 100
19, 38220, Note_on_c, 14, 45, 0
19, 38220, Note_on_c, 14, 47, 100
19, 38250, Note_on_c, 14, 47, 0
19, 38250, Note_on_c, 14, 42, 100
19, 38280, Note_on_c, 14, 42, 0
19, 38280, Note_on_c, 14, 39, 100
19, 38310, Note_on_c, 14, 39, 0
19, 38310, Note_on_c, 14, 35, 100
19, 38340, Note_on_c, 14, 35, 0
19, 38340, Note_on_c, 14, 40, 100
19, 38400, Note_on_c, 14, 40, 0
19, 38400, Note_on_c, 14, 28, 100
19, 38460, Note_on_c, 14, 28, 0
19, 38520, Note_on_c, 14, 40, 100
19, 38580, Note_on_c, 14, 40, 0
19, 38580, Note_on_c, 14, 38, 100
19, 38610, Note_on_c, 14, 38, 0
19, 38610, Note_on_c, 14, 37, 100
19, 38640, Note_on_c, 14, 37, 0
19, 38640, Note_on_c, 14, 35, 100
19, 38670, Note_on_c, 14, 35, 0
19, 38670, Note_on_c, 14, 33, 100
19, 38700, Note_on_c, 14, 33, 0
19, 38700, Note_on_c, 14, 32, 100
19, 38740, Note_on_c, 14, 32, 0
19, 38760, Note_on_c, 14, 33, 100
19, 38800, Note_on_c, 14, 33, 0
19, 38820, Note_on_c, 14, 30, 100
19, 38860, Note_on_c, 14, 30, 0
19, 38880, Note_on_c, 14, 26, 100
19, 38920, Note_on_c, 14, 26, 0
19, 38940, Note_on_c, 14, 28, 100
19, 38980, Note_on_c, 14, 28, 0
19, 39000, Note_on_c, 14, 40, 100
19, 39040, Note_on_c, 14, 40, 0
19, 39060, Note_on_c, 14, 33, 100
19, 39090, Note_on_c, 14, 33, 0
19, 39090, Note_on_c, 14, 35, 100
19, 39120, Note_on_c, 14, 35, 0
19, 39120, Note_on_c, 14, 37, 100
19, 39150, Note_on_c, 14, 37, 0
19, 39150, Note_on_c, 14, 38, 100
19, 39180, Note_on_c, 14, 38, 0
19, 39180, Note_on_c, 14, 40, 100
19, 39210, Note_on_c, 14, 40, 0
19, 39210, Note_on_c, 14, 42, 100
19, 39240, Note_on_c, 14, 42, 0
19, 39240, Note_on_c, 14, 43, 100
19, 39270, Note_on_c, 14, 43, 0
19, 39270, Note_on_c, 14, 40, 100
19, 39300, Note_on_c, 14, 40, 0
19, 39300, Note_on_c, 14, 42, 100
19, 39340, Note_on_c, 14, 42, 0
19, 39420, Note_on_c, 14, 31, 100
19, 39440, Note_on_c, 14, 31, 0
19, 39450, Note_on_c, 14, 43, 100
19, 39480, Note_on_c, 14, 43, 0
19, 39480, Note_on_c, 14, 42, 100
19, 39510, Note_on_c, 14, 42, 0
19, 39510, Note_on_c, 14, 40, 100
19, 39540, Note_on_c, 14, 40, 0
19, 39540, Note_on_c, 14, 38, 100
19, 39570, Note_on_c, 14, 38, 0
19, 39570, Note_on_c, 14, 37, 100
19, 39600, Note_on_c, 14, 37, 0
19, 39600, Note_on_c, 14, 35, 100
19, 39630, Note_on_c, 14, 35, 0
19, 39630, Note_on_c, 14, 32, 100
19, 39660, Note_on_c, 14, 32, 0
19, 39660, Note_on_c, 14, 34, 100
19, 39720, Note_on_c, 14, 34, 0
19, 39780, Note_on_c, 14, 30, 100
19, 39820, Note_on_c, 14, 30, 0
19, 39840, Note_on_c, 14, 32, 100
19, 39880, Note_on_c, 14, 32, 0
19, 39900, Note_on_c, 14, 34, 100
19, 39940, Note_on_c, 14, 34, 0
19, 39960, Note_on_c, 14, 35, 100
19, 40000, Note_on_c, 14, 35, 0
19, 40020, Note_on_c, 14, 47, 100
19, 40060, Note_on_c, 14, 47, 0
19, 40080, Note_on_c, 14, 38, 100
19, 40120, Note_on_c, 14, 38, 0
19, 40140, Note_on_c, 14, 40, 100
19, 40180, Note_on_c, 14, 40, 0
19, 40200, Note_on_c, 14, 31, 100
19, 40240, Note_on_c, 14, 31, 0
19, 40260, Note_on_c, 14, 28, 100
19, 40300, Note_on_c, 14, 28, 0
19, 40320, Note_on_c, 14, 33, 100
19, 40360, Note_on_c, 14, 33, 0
19, 40380, Note_on_c, 14, 45, 100
19, 40420, Note_on_c, 14, 45, 0
19, 40440, Note_on_c, 14, 37, 100
19, 40480, Note_on_c, 14, 37, 0
19, 40500, Note_on_c, 14, 38, 100
19, 40540, Note_on_c, 14, 38, 0
19, 40560, Note_on_c, 14, 30, 100
19, 40600, Note_on_c, 14, 30, 0
19, 40620, Note_on_c, 14, 26, 100
19, 40660, Note_on_c, 14, 26, 0
19, 40680, Note_on_c, 14, 31, 100
19, 40720, Note_on_c, 14, 31, 0
19, 40740, Note_on_c, 14, 43, 100
19, 40780, Note_on_c, 14, 43, 0
19, 40800, Note_on_c, 14, 40, 100
19, 40840, Note_on_c, 14, 40, 0
19, 40860, Note_on_c, 14, 37, 100
19, 40900, Note_on_c, 14, 37, 0
19, 40920, Note_on_c, 14, 38, 100
19, 40960, Note_on_c, 14, 38, 0
19, 40980, Note_on_c, 14, 40, 100
19, 41020, Note_on_c, 14, 40, 0
19, 41040, Note_on_c, 14, 30, 100
19, 41060, Note_on_c, 14, 30, 0
19, 41070, Note_on_c, 14, 42, 100
19, 41090, Note_on_c, 14, 42, 0
19, 41100, Note_on_c, 14, 40, 100
19, 41130, Note_on_c, 14, 40, 0
19, 41130, Note_on_c, 14, 37, 100
19, 41150, Note_on_c, 14, 37, 0
19, 41160, Note_on_c, 14, 38, 100
19, 41190, Note_on_c, 14, 38, 0
19, 41190, Note_on_c, 14, 35, 100
19, 41210, Note_on_c, 14, 35, 0
19, 41220, Note_on_c, 14, 34, 100
19, 41260, Note_on_c, 14, 34, 0
19, 41310, Note_on_c, 14, 34, 100
19, 41340, Note_on_c, 14, 34, 0
19, 41340, Note_on_c, 14, 35, 100
19, 41370, Note_on_c, 14, 35, 0
19, 41370, Note_on_c, 14, 37, 100
19, 41400, Note_on_c, 14, 37, 0
19, 41400, Note_on_c, 14, 38, 100
19, 41420, Note_on_c, 14, 38, 0
19, 41430, Note_on_c, 14, 40, 100
19, 41450, Note_on_c, 14, 40, 0
19, 41460, Note_on_c, 14, 42, 100
19, 41480, Note_on_c, 14, 42, 0
19, 41490, Note_on_c, 14, 38, 100
19, 41510, Note_on_c, 14, 38, 0
19, 41520, Note_on_c, 14, 43, 100
19, 41560, Note_on_c, 14, 43, 0
19, 41580, Note_on_c, 14, 40, 100
19, 41620, Note_on_c, 14, 40, 0
19, 41640, Note_on_c, 14, 42, 100
19, 41680, Note_on_c, 14, 42, 0
19, 41700, Note_on_c, 14, 30, 100
19, 41740, Note_on_c, 14, 30, 0
19, 41760, Note_on_c, 14, 35, 100
19, 41840, Note_on_c, 14, 35, 0
19, 41970, Note_on_c, 14, 40, 100
19, 41980, Note_on_c, 14, 40, 0
19, 41985, Note_on_c, 14, 39, 100
19, 41995, Note_on_c, 14, 39, 0
19, 42000, Note_on_c, 14, 40, 100
19, 42020, Note_on_c, 14, 40, 0
19, 42030, Note_on_c, 14, 35, 100
19, 42050, Note_on_c, 14, 35, 0
19, 42060, Note_on_c, 14, 32, 100
19, 42080, Note_on_c, 14, 32, 0
19, 42090, Note_on_c, 14, 28, 100
19, 42110, Note_on_c, 14, 28, 0
19, 42120, Note_on_c, 14, 41, 100
19, 42200, Note_on_c, 14, 41, 0
19, 42330, Note_on_c, 14, 42, 100
19, 42340, Note_on_c, 14, 42, 0
19, 42345, Note_on_c, 14, 41, 100
19, 42355, Note_on_c, 14, 41, 0
19, 42360, Note_on_c, 14, 42, 100
19, 42380, Note_on_c, 14, 42, 0
19, 42390, Note_on_c, 14, 37, 100
19, 42410, Note_on_c, 14, 37, 0
19, 42420, Note_on_c, 14, 34, 100
19, 42440, Note_on_c, 14, 34, 0
19, 42450, Note_on_c, 14, 30, 100
19, 42470, Note_on_c, 14, 30, 0
19, 42480, Note_on_c, 14, 40, 100
19, 42560, Note_on_c, 14, 40, 0
19, 42660, Note_on_c, 14, 34, 100
19, 42700, Note_on_c, 14, 34, 0
19, 42720, Note_on_c, 14, 35, 100
19, 42760, Note_on_c, 14, 35, 0
19, 42780, Note_on_c, 14, 31, 100
19, 42820, Note_on_c, 14, 31, 0
19, 42840, Note_on_c, 14, 28, 100
19, 42880, Note_on_c, 14, 28, 0
19, 42900, Note_on_c, 14, 30, 100
19, 42940, Note_on_c, 14, 30, 0
19, 42960, Note_on_c, 14, 30, 100
19, 43000, Note_on_c, 14, 30, 0
19, 43020, Note_on_c, 14, 35, 100
19, 43060, Note_on_c, 14, 35, 0
19, 43080, Note_on_c, 14, 38, 100
19, 43120, Note_on_c, 14, 38, 0
19, 43140, Note_on_c, 14, 42, 100
19, 43180, Note_on_c, 14, 42, 0
19, 43200, Note_on_c, 14, 35, 100
19, 43220, Note_on_c, 14, 35, 0
19, 43230, Note_on_c, 14, 37, 100
19, 43250, Note_on_c, 14, 37, 0
19, 43260, Note_on_c, 14, 38, 100
19, 43280, Note_on_c, 14, 38, 0
19, 43290, Note_on_c, 14, 40, 100
19, 43310, Note_on_c, 14, 40, 0
19, 43320, Note_on_c, 14, 42, 100
19, 43340, Note_on_c, 14, 42, 0
19, 43350, Note_on_c, 14, 43, 100
19, 43370, Note_on_c, 14, 43, 0
19, 43380, Note_on_c, 14, 45, 100
19, 43410, Note_on_c, 14, 45, 0
19, 43410, Note_on_c, 14, 42, 100
19, 43440, Note_on_c, 14, 42, 0
19, 43440, Note_on_c, 14, 43, 100
19, 43500, Note_on_c, 14, 43, 0
19, 43560, Note_on_c, 14, 36, 100
19, 43600, Note_on_c, 14, 36, 0
19, 43620, Note_on_c, 14, 35, 100
19, 43660, Note_on_c, 14, 35, 0
19, 43680, Note_on_c, 14, 38, 100
19, 43720, Note_on_c, 14, 38, 0
19, 43740, Note_on_c, 14, 31, 100
19, 43820, Note_on_c, 14, 31, 0
19, 43950, Note_on_c, 14, 43, 100
19, 43960, Note_on_c, 14, 43, 0
19, 43965, Note_on_c, 14, 42, 100
19, 43975, Note_on_c, 14, 42, 0
19, 43980, Note_on_c, 14, 43, 100
19, 44000, Note_on_c, 14, 43, 0
19, 44010, Note_on_c, 14, 40, 100
19, 44030, Note_on_c, 14, 40, 0
19, 44040, Note_on_c, 14, 37, 100
19, 44060, Note_on_c, 14, 37, 0
19, 44070, Note_on_c, 14, 33, 100
19, 44090, Note_on_c, 14, 33, 0
19, 44100, Note_on_c, 14, 42, 100
19, 44180, Note_on_c, 14, 42, 0
19, 44310, Note_on_c, 14, 43, 100
19, 44320, Note_on_c, 14, 43, 0
19, 44325, Note_on_c, 14, 42, 100
19, 44335, Note_on_c, 14, 42, 0
19, 44340, Note_on_c, 14, 43, 100
19, 44360, Note_on_c, 14, 43, 0
19, 44370, Note_on_c, 14, 38, 100
19, 44390, Note_on_c, 14, 38, 0
19, 44400, Note_on_c, 14, 35, 100
19, 44420, Note_on_c, 14, 35, 0
19, 44430, Note_on_c, 14, 31, 100
19, 44450, Note_on_c, 14, 31, 0
19, 44460, Note_on_c, 14, 40, 100
19, 44500, Note_on_c, 14, 40, 0
19, 44520, Note_on_c, 14, 42, 100
19, 44560, Note_on_c, 14, 42, 0
19, 44580, Note_on_c, 14, 43, 100
19, 44620, Note_on_c, 14, 43, 0
19, 44640, Note_on_c, 14, 45, 100
19, 44680, Note_on_c, 14, 45, 0
19, 44700, Note_on_c, 14, 33, 100
19, 44740, Note_on_c, 14, 33, 0
19, 44760, Note_on_c, 14, 31, 100
19, 44800, Note_on_c, 14, 31, 0
19, 44820, Note_on_c, 14, 30, 100
19, 44850, Note_on_c, 14, 30, 0
19, 44850, Note_on_c, 14, 33, 100
19, 44880, Note_on_c, 14, 33, 0
19, 44880, Note_on_c, 14, 35, 100
19, 44910, Note_on_c, 14, 35, 0
19, 44910, Note_on_c, 14, 37, 100
19, 44940, Note_on_c, 14, 37, 0
19, 44940, Note_on_c, 14, 38, 100
19, 44970, Note_on_c, 14, 38, 0
19, 44970, Note_on_c, 14, 40, 100
19, 45000, Note_on_c, 14, 40, 0
19, 45000, Note_on_c, 14, 42, 100
19, 45030, Note_on_c, 14, 42, 0
19, 45030, Note_on_c, 14, 38, 100
19, 45050, Note_on_c, 14, 38, 0
19, 45060, Note_on_c, 14, 40, 100
19, 45090, Note_on_c, 14, 40, 0
19, 45090, Note_on_c, 14, 37, 100
19, 45110, Note_on_c, 14, 37, 0
19, 45120, Note_on_c, 14, 38, 100
19, 45150, Note_on_c, 14, 38, 0
19, 45150, Note_on_c, 14, 35, 100
19, 45170, Note_on_c, 14, 35, 0
19, 45180, Note_on_c, 14, 37, 100
19, 45210, Note_on_c, 14, 37, 0
19, 45210, Note_on_c, 14, 33, 100
19, 45240, Note_on_c, 14, 33, 0
19, 45240, Note_on_c, 14, 45, 100
19, 45280, Note_on_c, 14, 45, 0
19, 45300, Note_on_c, 14, 43, 100
19, 45340, Note_on_c, 14, 43, 0
19, 45360, Note_on_c, 14, 42, 100
19, 45440, Note_on_c, 14, 42, 0
19, 45570, Note_on_c, 14, 43, 100
19, 45580, Note_on_c, 14, 43, 0
19, 45585, Note_on_c, 14, 42, 100
19, 45595, Note_on_c, 14, 42, 0
19, 45600, Note_on_c, 14, 43, 100
19, 45620, Note_on_c, 14, 43, 0
19, 45630, Note_on_c, 14, 38, 100
19, 45650, Note_on_c, 14, 38, 0
19, 45660, Note_on_c, 14, 35, 100
19, 45680, Note_on_c, 14, 35, 0
19, 45690, Note_on_c, 14, 31, 100
19, 45710, Note_on_c, 14, 31, 0
19, 45720, Note_on_c, 14, 44, 100
19, 45800, Note_on_c, 14, 44, 0
19, 45930, Note_on_c, 14, 45, 100
19, 45940, Note_on_c, 14, 45, 0
19, 45945, Note_on_c, 14, 44, 100
19, 45955, Note_on_c, 14, 44, 0
19, 45960, Note_on_c, 14, 45, 100
19, 45980, Note_on_c, 14, 45, 0
19, 45990, Note_on_c, 14, 40, 100
19, 46010, Note_on_c, 14, 40, 0
19, 46020, Note_on_c, 14, 37, 100
19, 46040, Note_on_c, 14, 37, 0
19, 46050, Note_on_c, 14, 33, 100
19, 46070, Note_on_c, 14, 33, 0
19, 46080, Note_on_c, 14, 37, 100
19, 46160, Note_on_c, 14, 37, 0
19, 46260, Note_on_c, 14, 33, 100
19, 46300, Note_on_c, 14, 33, 0
19, 46320, Note_on_c, 14, 38, 100
19, 46360, Note_on_c, 14, 38, 0
19, 46380, Note_on_c, 14, 35, 100
19, 46420, Note_on_c, 14, 35, 0
19, 46440, Note_on_c, 14, 31, 100
19, 46480, Note_on_c, 14, 31, 0
19, 46500, Note_on_c, 14, 33, 100
19, 46540, Note_on_c, 14, 33, 0
19, 46560, Note_on_c, 14, 45, 100
19, 46600, Note_on_c, 14, 45, 0
19, 46620, Note_on_c, 14, 47, 100
19, 46660, Note_on_c, 14, 47, 0
19, 46680, Note_on_c, 14, 42, 100
19, 46720, Note_on_c, 14, 42, 0
19, 46740, Note_on_c, 14, 43, 100
19, 46780, Note_on_c, 14, 43, 0
19, 46800, Note_on_c, 14, 37, 100
19, 46820, Note_on_c, 14, 37, 0
19, 46830, Note_on_c, 14, 33, 100
19, 46860, Note_on_c, 14, 33, 0
19, 46860, Note_on_c, 14, 35, 100
19, 46890, Note_on_c, 14, 35, 0
19, 46890, Note_on_c, 14, 37, 100
19, 46920, Note_on_c, 14, 37, 0
19, 46920, Note_on_c, 14, 38, 100
19, 46950, Note_on_c, 14, 38, 0
19, 46950, Note_on_c, 14, 40, 100
19, 46980, Note_on_c, 14, 40, 0
19, 46980, Note_on_c, 14, 42, 100
19, 47010, Note_on_c, 14, 42, 0
19, 47010, Note_on_c, 14, 43, 100
19, 47040, Note_on_c, 14, 43, 0
19, 47040, Note_on_c, 14, 45, 100
19, 47080, Note_on_c, 14, 45, 0
19, 47100, Note_on_c, 14, 33, 100
19, 47140, Note_on_c, 14, 33, 0
19, 47160, Note_on_c, 14, 38, 100
19, 47240, Note_on_c, 14, 38, 0
19, 47370, Note_on_c, 14, 50, 100
19, 47380, Note_on_c, 14, 50, 0
19, 47385, Note_on_c, 14, 49, 100
19, 47395, Note_on_c, 14, 49, 0
19, 47400, Note_on_c, 14, 50, 100
19, 47420, Note_on_c, 14, 50, 0
19, 47430, Note_on_c, 14, 45, 100
19, 47450, Note_on_c, 14, 45, 0
19, 47460, Note_on_c, 14, 42, 100
19, 47480, Note_on_c, 14, 42, 0
19, 47490, Note_on_c, 14, 38, 100
19, 47510, Note_on_c, 14, 38, 0
19, 47520, Note_on_c, 14, 40, 100
19, 47560, Note_on_c, 14, 40, 0
19, 47580, Note_on_c, 14, 42, 100
19, 47620, Note_on_c, 14, 42, 0
19, 47640, Note_on_c, 14, 43, 100
19, 47680, Note_on_c, 14, 43, 0
19, 47700, Note_on_c, 14, 45, 100
19, 47740, Note_on_c, 14, 45, 0
19, 47760, Note_on_c, 14, 43, 100
19, 47800, Note_on_c, 14, 43, 0
19, 47880, Note_on_c, 14, 42, 100
19, 47960, Note_on_c, 14, 42, 0
19, 48090, Note_on_c, 14, 43, 100
19, 48100, Note_on_c, 14, 43, 0
19, 48105, Note_on_c, 14, 42, 100
19, 48115, Note_on_c, 14, 42, 0
19, 48120, Note_on_c, 14, 43, 100
19, 48140, Note_on_c, 14, 43, 0
19, 48150, Note_on_c, 14, 38, 100
19, 48170, Note_on_c, 14, 38, 0
19, 48180, Note_on_c, 14, 35, 100
19, 48200, Note_on_c, 14, 35, 0
19, 48210, Note_on_c, 14, 31, 100
19, 48230, Note_on_c, 14, 31, 0
19, 48240, Note_on_c, 14, 44, 100
19, 48320, Note_on_c, 14, 44, 0
19, 48450, Note_on_c, 14, 45, 100
19, 48460, Note_on_c, 14, 45, 0
19, 48465, Note_on_c, 14, 44, 100
19, 48475, Note_on_c, 14, 44, 0
19, 48480, Note_on_c, 14, 45, 100
19, 48500, Note_on_c, 14, 45, 0
19, 48510, Note_on_c, 14, 40, 100
19, 48530, Note_on_c, 14, 40, 0
19, 48540, Note_on_c, 14, 37, 100
19, 48560, Note_on_c, 14, 37, 0
19, 48570, Note_on_c, 14, 33, 100
19, 48590, Note_on_c, 14, 33, 0
19, 48600, Note_on_c, 14, 37, 100
19, 48680, Note_on_c, 14, 37, 0
19, 48780, Note_on_c, 14, 33, 100
19, 48820, Note_on_c, 14, 33, 0
19, 48840, Note_on_c, 14, 38, 100
19, 48880, Note_on_c, 14, 38, 0
19, 48900, Note_on_c, 14, 35, 100
19, 48940, Note_on_c, 14, 35, 0
19, 48960, Note_on_c, 14, 31, 100
19, 49000, Note_on_c, 14, 31, 0
19, 49020, Note_on_c, 14, 33, 100
19, 49060, Note_on_c, 14, 33, 0
19, 49080, Note_on_c, 14, 33, 100
19, 49120, Note_on_c, 14, 33, 0
19, 49140, Note_on_c, 14, 26, 100
19, 49260, Note_on_c, 14, 26, 0
19, 49500, Control_c, 14, 0, 0
19, 49500, Note_on_c, 14, 35, 100
19, 49618, Note_on_c, 14, 35, 0
19, 49680, Note_on_c, 14, 35, 100
19, 49738, Note_on_c, 14, 35, 0
19, 49740, Note_on_c, 14, 37, 100
19, 49858, Note_on_c, 14, 37, 0
19, 49890, Note_on_c, 14, 37, 100
19, 49918, Note_on_c, 14, 37, 0
19, 49920, Note_on_c, 14, 38, 100
19, 49948, Note_on_c, 14, 38, 0
19, 49950, Note_on_c, 14, 40, 100
19, 49978, Note_on_c, 14, 40, 0
19, 49980, Note_on_c, 14, 30, 100
19, 50098, Note_on_c, 14, 30, 0
19, 50160, Note_on_c, 14, 30, 100
19, 50218, Note_on_c, 14, 30, 0
19, 50220, Note_on_c, 14, 35, 100
19, 50338, Note_on_c, 14, 35, 0
19, 50370, Note_on_c, 14, 39, 100
19, 50398, Note_on_c, 14, 39, 0
19, 50400, Note_on_c, 14, 40, 100
19, 50428, Note_on_c, 14, 40, 0
19, 50430, Note_on_c, 14, 42, 100
19, 50458, Note_on_c, 14, 42, 0
19, 50460, Note_on_c, 14, 35, 100
19, 50578, Note_on_c, 14, 35, 0
19, 50640, Note_on_c, 14, 35, 100
19, 50698, Note_on_c, 14, 35, 0
19, 50700, Note_on_c, 14, 40, 100
19, 50818, Note_on_c, 14, 40, 0
19, 50850, Note_on_c, 14, 41, 100
19, 50878, Note_on_c, 14, 41, 0
19, 50880, Note_on_c, 14, 42, 100
19, 50908, Note_on_c, 14, 42, 0
19, 50910, Note_on_c, 14, 44, 100
19, 50938, Note_on_c, 14, 44, 0
19, 50940, Note_on_c, 14, 37, 100
19, 51058, Note_on_c, 14, 37, 0
19, 51120, Note_on_c, 14, 37, 100
19, 51178, Note_on_c, 14, 37, 0
19, 51180, Note_on_c, 14, 42, 100
19, 51298, Note_on_c, 14, 42, 0
19, 51360, Note_on_c, 14, 42, 100
19, 51418, Note_on_c, 14, 42, 0
19, 51420, Note_on_c, 14, 38, 100
19, 51478, Note_on_c, 14, 38, 0
19, 51480, Note_on_c, 14, 35, 100
19, 51538, Note_on_c, 14, 35, 0
19, 51540, Note_on_c, 14, 42, 100
19, 51598, Note_on_c, 14, 42, 0
19, 51600, Note_on_c, 14, 30, 100
19, 51658, Note_on_c, 14, 30, 0
19, 51660, Note_on_c, 14, 35, 100
19, 51778, Note_on_c, 14, 35, 0
19, 51810, Note_on_c, 14, 38, 100
19, 51838, Note_on_c, 14, 38, 0
19, 51840, Note_on_c, 14, 40, 100
19, 51868, Note_on_c, 14, 40, 0
19, 51870, Note_on_c, 14, 42, 100
19, 51898, Note_on_c, 14, 42, 0
19, 51900, Note_on_c, 14, 35, 100
19, 52018, Note_on_c, 14, 35, 0
19, 52080, Note_on_c, 14, 35, 100
19, 52140, Note_on_c, 14, 35, 0
19, 52140, Note_on_c, 14, 37, 100
19, 52260, Note_on_c, 14, 37, 0
19, 52290, Note_on_c, 14, 37, 100
19, 52320, Note_on_c, 14, 37, 0
19, 52320, Note_on_c, 14, 38, 100
19, 52350, Note_on_c, 14, 38, 0
19, 52350, Note_on_c, 14, 40, 100
19, 52380, Note_on_c, 14, 40, 0
19, 52380, Note_on_c, 14, 30, 100
19, 52500, Note_on_c, 14, 30, 0
19, 52560, Note_on_c, 14, 30, 100
19, 52620, Note_on_c, 14, 30, 0
19, 52620, Note_on_c, 14, 35, 100
19, 52740, Note_on_c, 14, 35, 0
19, 52770, Note_on_c, 14, 38, 100
19, 52800, Note_on_c, 14, 38, 0
19, 52800, Note_on_c, 14, 40, 100
19, 52830, Note_on_c, 14, 40, 0
19, 52830, Note_on_c, 14, 42, 100
19, 52860, Note_on_c, 14, 42, 0
19, 52860, Note_on_c, 14, 35, 100
19, 52980, Note_on_c, 14, 35, 0
19, 53040, Note_on_c, 14, 35, 100
19, 53100, Note_on_c, 14, 35, 0
19, 53100, Note_on_c, 14, 40, 100
19, 53220, Note_on_c, 14, 40, 0
19, 53250, Note_on_c, 14, 38, 100
19, 53280, Note_on_c, 14, 38, 0
19, 53280, Note_on_c, 14, 40, 100
19, 53310, Note_on_c, 14, 40, 0
19, 53310, Note_on_c, 14, 42, 100
19, 53340, Note_on_c, 14, 42, 0
19, 53340, Note_on_c, 14, 43, 100
19, 53460, Note_on_c, 14, 43, 0
19, 53520, Note_on_c, 14, 31, 100
19, 53580, Note_on_c, 14, 31, 0
19, 53580, Note_on_c, 14, 30, 100
19, 53700, Note_on_c, 14, 30, 0
19, 53730, Note_on_c, 14, 37, 100
19, 53760, Note_on_c, 14, 37, 0
19, 53760, Note_on_c, 14, 38, 100
19, 53790, Note_on_c, 14, 38, 0
19, 53790, Note_on_c, 14, 40, 100
19, 53820, Note_on_c, 14, 40, 0
19, 53820, Note_on_c, 14, 34, 100
19, 53940, Note_on_c, 14, 34, 0
19, 54000, Note_on_c, 14, 46, 100
19, 54060, Note_on_c, 14, 46, 0
19, 54060, Note_on_c, 14, 47, 100
19, 54180, Note_on_c, 14, 47, 0
19, 54210, Note_on_c, 14, 38, 100
19, 54240, Note_on_c, 14, 38, 0
19, 54240, Note_on_c, 14, 40, 100
19, 54270, Note_on_c, 14, 40, 0
19, 54270, Note_on_c, 14, 42, 100
19, 54300, Note_on_c, 14, 42, 0
19, 54300, Note_on_c, 14, 35, 100
19, 54420, Note_on_c, 14, 35, 0
19, 54480, Note_on_c, 14, 35, 100
19, 54540, Note_on_c, 14, 35, 0
19, 54540, Note_on_c, 14, 37, 100
19, 54660, Note_on_c, 14, 37, 0
19, 54690, Note_on_c, 14, 42, 100
19, 54720, Note_on_c, 14, 42, 0
19, 54720, Note_on_c, 14, 44, 100
19, 54750, Note_on_c, 14, 44, 0
19, 54750, Note_on_c, 14, 46, 100
19, 54780, Note_on_c, 14, 46, 0
19, 54780, Note_on_c, 14, 36, 100
19, 54900, Note_on_c, 14, 36, 0
19, 54960, Note_on_c, 14, 27, 100
19, 55020, Note_on_c, 14, 27, 0
19, 55020, Note_on_c, 14, 28, 100
19, 55140, Note_on_c, 14, 28, 0
19, 55170, Note_on_c, 14, 40, 100
19, 55200, Note_on_c, 14, 40, 0
19, 55200, Note_on_c, 14, 42, 100
19, 55230, Note_on_c, 14, 42, 0
19, 55230, Note_on_c, 14, 43, 100
19, 55260, Note_on_c, 14, 43, 0
19, 55260, Note_on_c, 14, 33, 100
19, 55380, Note_on_c, 14, 33, 0
19, 55440, Note_on_c, 14, 37, 100
19, 55500, Note_on_c, 14, 37, 0
19, 55500, Note_on_c, 14, 38, 100
19, 55620, Note_on_c, 14, 38, 0
19, 55650, Note_on_c, 14, 38, 100
19, 55680, Note_on_c, 14, 38, 0
19, 55680, Note_on_c, 14, 40, 100
19, 55710, Note_on_c, 14, 40, 0
19, 55710, Note_on_c, 14, 42, 100
19, 55740, Note_on_c, 14, 42, 0
19, 55740, Note_on_c, 14, 31, 100
19, 55800, Note_on_c, 14, 31, 0
19, 55800, Note_on_c, 14, 43, 100
19, 55860, Note_on_c, 14, 43, 0
19, 55860, Note_on_c, 14, 45, 100
19, 55920, Note_on_c, 14, 45, 0
19, 55920, Note_on_c, 14, 33, 100
19, 55980, Note_on_c, 14, 33, 0
19, 55980, Note_on_c, 14, 38, 100
19, 56100, Note_on_c, 14, 38, 0
19, 56130, Note_on_c, 14, 38, 100
19, 56160, Note_on_c, 14, 38, 0
19, 56160, Note_on_c, 14, 40, 100
19, 56190, Note_on_c, 14, 40, 0
19, 56190, Note_on_c, 14, 42, 100
19, 56220, Note_on_c, 14, 42, 0
19, 56220, Note_on_c, 14, 35, 100
19, 56340, Note_on_c, 14, 35, 0
19, 56400, Note_on_c, 14, 31, 100
19, 56460, Note_on_c, 14, 31, 0
19, 56460, Note_on_c, 14, 37, 100
19, 56580, Note_on_c, 14, 37, 0
19, 56610, Note_on_c, 14, 37, 100
19, 56640, Note_on_c, 14, 37, 0
19, 56640, Note_on_c, 14, 38, 100
19, 56670, Note_on_c, 14, 38, 0
19, 56670, Note_on_c, 14, 40, 100
19, 56700, Note_on_c, 14, 40, 0
19, 56700, Note_on_c, 14, 33, 100
19, 56820, Note_on_c, 14, 33, 0
19, 56880, Note_on_c, 14, 30, 100
19, 56940, Note_on_c, 14, 30, 0
19, 56940, Note_on_c, 14, 35, 100
19, 57060, Note_on_c, 14, 35, 0
19, 57120, Note_on_c, 14, 28, 100
19, 57180, Note_on_c, 14, 28, 0
19, 57180, Note_on_c, 14, 33, 100
19, 57300, Note_on_c, 14, 33, 0
19, 57360, Note_on_c, 14, 45, 100
19, 57420, Note_on_c, 14, 45, 0
19, 57420, Note_on_c, 14, 47, 100
19, 57480, Note_on_c, 14, 47, 0
19, 57480, Note_on_c, 14, 43, 100
19, 57540, Note_on_c, 14, 43, 0
19, 57540, Note_on_c, 14, 45, 100
19, 57600, Note_on_c, 14, 45, 0
19, 57600, Note_on_c, 14, 33, 100
19, 57660, Note_on_c, 14, 33, 0
19, 57660, Note_on_c, 14, 38, 100
19, 57720, Note_on_c, 14, 38, 0
19, 57720, Note_on_c, 14, 42, 100
19, 57750, Note_on_c, 14, 42, 0
19, 57750, Note_on_c, 14, 40, 100
19, 57780, Note_on_c, 14, 40, 0
19, 57780, Note_on_c, 14, 43, 100
19, 57810, Note_on_c, 14, 43, 0
19, 57810, Note_on_c, 14, 42, 100
19, 57840, Note_on_c, 14, 42, 0
19, 57840, Note_on_c, 14, 40, 100
19, 57870, Note_on_c, 14, 40, 0
19, 57870, Note_on_c, 14, 38, 100
19, 57900, Note_on_c, 14, 38, 0
19, 57900, Note_on_c, 14, 45, 100
19, 57960, Note_on_c, 14, 45, 0
19, 57960, Note_on_c, 14, 33, 100
19, 58020, Note_on_c, 14, 33, 0
19, 58020, Note_on_c, 14, 31, 100
19, 58080, Note_on_c, 14, 31, 0
19, 58080, Note_on_c, 14, 30, 100
19, 58140, Note_on_c, 14, 30, 0
19, 58140, Note_on_c, 14, 28, 100
19, 58200, Note_on_c, 14, 28, 0
19, 58200, Note_on_c, 14, 43, 100
19, 58230, Note_on_c, 14, 43, 0
19, 58230, Note_on_c, 14, 42, 100
19, 58260, Note_on_c, 14, 42, 0
19, 58260, Note_on_c, 14, 45, 100
19, 58290, Note_on_c, 14, 45, 0
19, 58290, Note_on_c, 14, 43, 100
19, 58320, Note_on_c, 14, 43, 0
19, 58320, Note_on_c, 14, 42, 100
19, 58350, Note_on_c, 14, 42, 0
19, 58350, Note_on_c, 14, 40, 100
19, 58380, Note_on_c, 14, 40, 0
19, 58380, Note_on_c, 14, 47, 100
19, 58440, Note_on_c, 14, 47, 0
19, 58440, Note_on_c, 14, 35, 100
19, 58500, Note_on_c, 14, 35, 0
19, 58500, Note_on_c, 14, 33, 100
19, 58560, Note_on_c, 14, 33, 0
19, 58560, Note_on_c, 14, 31, 100
19, 58620, Note_on_c, 14, 31, 0
19, 58620, Note_on_c, 14, 30, 100
19, 58680, Note_on_c, 14, 30, 0
19, 58680, Note_on_c, 14, 40, 100
19, 58710, Note_on_c, 14, 40, 0
19, 58710, Note_on_c, 14, 38, 100
19, 58740, Note_on_c, 14, 38, 0
19, 58740, Note_on_c, 14, 42, 100
19, 58770, Note_on_c, 14, 42, 0
19, 58770, Note_on_c, 14, 40, 100
19, 58800, Note_on_c, 14, 40, 0
19, 58800, Note_on_c, 14, 38, 100
19, 58830, Note_on_c, 14, 38, 0
19, 58830, Note_on_c, 14, 37, 100
19, 58860, Note_on_c, 14, 37, 0
19, 58860, Note_on_c, 14, 38, 100
19, 58920, Note_on_c, 14, 38, 0
19, 58920, Note_on_c, 14, 42, 100
19, 58980, Note_on_c, 14, 42, 0
19, 58980, Note_on_c, 14, 44, 100
19, 59040, Note_on_c, 14, 44, 0
19, 59040, Note_on_c, 14, 40, 100
19, 59100, Note_on_c, 14, 40, 0
19, 59100, Note_on_c, 14, 33, 100
19, 59130, Note_on_c, 14, 33, 0
19, 59130, Note_on_c, 14, 37, 100
19, 59160, Note_on_c, 14, 37, 0
19, 59160, Note_on_c, 14, 42, 100
19, 59190, Note_on_c, 14, 42, 0
19, 59190, Note_on_c, 14, 40, 100
19, 59220, Note_on_c, 14, 40, 0
19, 59220, Note_on_c, 14, 38, 100
19, 59250, Note_on_c, 14, 38, 0
19, 59250, Note_on_c, 14, 37, 100
19, 59280, Note_on_c, 14, 37, 0
19, 59280, Note_on_c, 14, 35, 100
19, 59310, Note_on_c, 14, 35, 0
19, 59310, Note_on_c, 14, 33, 100
19, 59340, Note_on_c, 14, 33, 0
19, 59340, Note_on_c, 14, 32, 100
19, 59460, Note_on_c, 14, 32, 0
19, 59490, Note_on_c, 14, 37, 100
19, 59520, Note_on_c, 14, 37, 0
19, 59520, Note_on_c, 14, 39, 100
19, 59550, Note_on_c, 14, 39, 0
19, 59550, Note_on_c, 14, 41, 100
19, 59580, Note_on_c, 14, 41, 0
19, 59580, Note_on_c, 14, 42, 100
19, 59700, Note_on_c, 14, 42, 0
19, 59730, Note_on_c, 14, 37, 100
19, 59760, Note_on_c, 14, 37, 0
19, 59760, Note_on_c, 14, 38, 100
19, 59790, Note_on_c, 14, 38, 0
19, 59790, Note_on_c, 14, 40, 100
19, 59820, Note_on_c, 14, 40, 0
19, 59820, Note_on_c, 14, 34, 100
19, 59940, Note_on_c, 14, 34, 0
19, 60000, Note_on_c, 14, 30, 100
19, 60060, Note_on_c, 14, 30, 0
19, 60060, Note_on_c, 14, 35, 100
19, 60180, Note_on_c, 14, 35, 0
19, 60210, Note_on_c, 14, 35, 100
19, 60240, Note_on_c, 14, 35, 0
19, 60240, Note_on_c, 14, 37, 100
19, 60270, Note_on_c, 14, 37, 0
19, 60270, Note_on_c, 14, 38, 100
19, 60300, Note_on_c, 14, 38, 0
19, 60300, Note_on_c, 14, 32, 100
19, 60420, Note_on_c, 14, 32, 0
19, 60480, Note_on_c, 14, 32, 100
19, 60540, Note_on_c, 14, 32, 0
19, 60540, Note_on_c, 14, 37, 100
19, 60660, Note_on_c, 14, 37, 0
19, 60690, Note_on_c, 14, 38, 100
19, 60720, Note_on_c, 14, 38, 0
19, 60720, Note_on_c, 14, 37, 100
19, 60750, Note_on_c, 14, 37, 0
19, 60750, Note_on_c, 14, 35, 100
19, 60780, Note_on_c, 14, 35, 0
19, 60780, Note_on_c, 14, 33, 100
19, 60840, Note_on_c, 14, 33, 0
19, 60840, Note_on_c, 14, 30, 100
19, 60900, Note_on_c, 14, 30, 0
19, 60900, Note_on_c, 14, 37, 100
19, 60960, Note_on_c, 14, 37, 0
19, 60960, Note_on_c, 14, 25, 100
19, 61020, Note_on_c, 14, 25, 0
19, 61020, Control_c, 14, 0, 0
19, 61020, Note_on_c, 14, 42, 90
19, 61080, Note_on_c, 14, 42, 0
19, 61080, Note_on_c, 14, 42, 90
19, 61140, Note_on_c, 14, 42, 0
19, 61140, Note_on_c, 14, 42, 90
19, 61200, Note_on_c, 14, 42, 0
19, 61200, Note_on_c, 14, 42, 90
19, 61260, Note_on_c, 14, 42, 0
19, 61260, Note_on_c, 14, 42, 90
19, 61320, Note_on_c, 14, 42, 0
19, 61320, Note_on_c, 14, 41, 90
19, 61350, Note_on_c, 14, 41, 0
19, 61350, Note_on_c, 14, 39, 90
19, 61380, Note_on_c, 14, 39, 0
19, 61380, Note_on_c, 14, 37, 90
19, 61440, Note_on_c, 14, 37, 0
19, 61440, Note_on_c, 14, 35, 90
19, 61500, Note_on_c, 14, 35, 0
19, 61500, Note_on_c, 14, 33, 90
19, 61530, Note_on_c, 14, 33, 0
19, 61530, Note_on_c, 14, 32, 90
19, 61560, Note_on_c, 14, 32, 0
19, 61560, Note_on_c, 14, 30, 90
19, 61590, Note_on_c, 14, 30, 0
19, 61590, Note_on_c, 14, 32, 90
19, 61620, Note_on_c, 14, 32, 0
19, 61620, Note_on_c, 14, 33, 90
19, 61650, Note_on_c, 14, 33, 0
19, 61650, Note_on_c, 14, 32, 90
19, 61680, Note_on_c, 14, 32, 0
19, 61680, Note_on_c, 14, 33, 90
19, 61710, Note_on_c, 14, 33, 0
19, 61710, Note_on_c, 14, 35, 90
19, 61740, Note_on_c, 14, 35, 0
19, 61740, Note_on_c, 14, 37, 90
19, 61770, Note_on_c, 14, 37, 0
19, 61770, Note_on_c, 14, 35, 90
19, 61800, Note_on_c, 14, 35, 0
19, 61800, Note_on_c, 14, 37, 90
19, 61830, Note_on_c, 14, 37, 0
19, 61830, Note_on_c, 14, 39, 90
19, 61860, Note_on_c, 14, 39, 0
19, 61860, Note_on_c, 14, 41, 90
19, 61890, Note_on_c, 14, 41, 0
19, 61890, Note_on_c, 14, 37, 90
19, 61920, Note_on_c, 14, 37, 0
19, 61920, Note_on_c, 14, 39, 90
19, 61950, Note_on_c, 14, 39, 0
19, 61950, Note_on_c, 14, 41, 90
19, 61980, Note_on_c, 14, 41, 0
19, 61980, Note_on_c, 14, 42, 90
19, 62040, Note_on_c, 14, 42, 0
19, 62040, Note_on_c, 14, 30, 90
19, 62100, Note_on_c, 14, 30, 0
19, 62100, Note_on_c, 14, 30, 90
19, 62160, Note_on_c, 14, 30, 0
19, 62160, Note_on_c, 14, 42, 90
19, 62220, Note_on_c, 14, 42, 0
19, 62220, Note_on_c, 14, 37, 90
19, 62280, Note_on_c, 14, 37, 0
19, 62280, Note_on_c, 14, 49, 90
19, 62340, Note_on_c, 14, 49, 0
19, 62340, Note_on_c, 14, 49, 90
19, 62400, Note_on_c, 14, 49, 0
19, 62400, Note_on_c, 14, 37, 90
19, 62460, Note_on_c, 14, 37, 0
19, 62460, Note_on_c, 14, 30, 90
19, 62520, Note_on_c, 14, 30, 0
19, 62520, Note_on_c, 14, 42, 90
19, 62580, Note_on_c, 14, 42, 0
19, 62580, Note_on_c, 14, 41, 90
19, 62640, Note_on_c, 14, 41, 0
19, 62640, Note_on_c, 14, 42, 90
19, 62700, Note_on_c, 14, 42, 0
19, 62700, Note_on_c, 14, 49, 90
19, 62760, Note_on_c, 14, 49, 0
19, 62760, Note_on_c, 14, 37, 90
19, 62790, Note_on_c, 14, 37, 0
19, 62790, Note_on_c, 14, 39, 90
19, 62820, Note_on_c, 14, 39, 0
19, 62820, Note_on_c, 14, 41, 90
19, 62850, Note_on_c, 14, 41, 0
19, 62850, Note_on_c, 14, 37, 90
19, 62880, Note_on_c, 14, 37, 0
19, 62880, Note_on_c, 14, 39, 90
19, 62910, Note_on_c, 14, 39, 0
19, 62910, Note_on_c, 14, 41, 90
19, 62940, Note_on_c, 14, 41, 0
19, 62940, Note_on_c, 14, 42, 90
19, 62970, Note_on_c, 14, 42, 0
19, 62970, Note_on_c, 14, 41, 90
19, 63000, Note_on_c, 14, 41, 0
19, 63000, Note_on_c, 14, 42, 90
19, 63030, Note_on_c, 14, 42, 0
19, 63030, Note_on_c, 14, 44, 90
19, 63060, Note_on_c, 14, 44, 0
19, 63060, Note_on_c, 14, 45, 90
19, 63090, Note_on_c, 14, 45, 0
19, 63090, Note_on_c, 14, 44, 90
19, 63120, Note_on_c, 14, 44, 0
19, 63120, Note_on_c, 14, 45, 90
19, 63150, Note_on_c, 14, 45, 0
19, 63150, Note_on_c, 14, 47, 90
19, 63180, Note_on_c, 14, 47, 0
19, 63180, Note_on_c, 14, 49, 90
19, 63240, Note_on_c, 14, 49, 0
19, 63240, Note_on_c, 14, 25, 90
19, 63270, Note_on_c, 14, 25, 0
19, 63270, Note_on_c, 14, 27, 90
19, 63300, Note_on_c, 14, 27, 0
19, 63300, Note_on_c, 14, 29, 90
19, 63330, Note_on_c, 14, 29, 0
19, 63330, Note_on_c, 14, 25, 90
19, 63360, Note_on_c, 14, 25, 0
19, 63360, Note_on_c, 14, 27, 90
19, 63390, Note_on_c, 14, 27, 0
19, 63390, Note_on_c, 14, 29, 90
19, 63420, Note_on_c, 14, 29, 0
19, 63420, Note_on_c, 14, 30, 90
19, 63450, Note_on_c, 14, 30, 0
19, 63450, Note_on_c, 14, 28, 90
19, 63480, Note_on_c, 14, 28, 0
19, 63480, Note_on_c, 14, 26, 90
19, 63510, Note_on_c, 14, 26, 0
19, 63510, Note_on_c, 14, 28, 90
19, 63540, Note_on_c, 14, 28, 0
19, 63540, Note_on_c, 14, 30, 90
19, 63570, Note_on_c, 14, 30, 0
19, 63570, Note_on_c, 14, 26, 90
19, 63600, Note_on_c, 14, 26, 0
19, 63600, Note_on_c, 14, 28, 90
19, 63630, Note_on_c, 14, 28, 0
19, 63630, Note_on_c, 14, 30, 90
19, 63660, Note_on_c, 14, 30, 0
19, 63660, Note_on_c, 14, 32, 90
19, 63690, Note_on_c, 14, 32, 0
19, 63690, Note_on_c, 14, 30, 90
19, 63720, Note_on_c, 14, 30, 0
19, 63720, Note_on_c, 14, 28, 90
19, 63750, Note_on_c, 14, 28, 0
19, 63750, Note_on_c, 14, 30, 90
19, 63780, Note_on_c, 14, 30, 0
19, 63780, Note_on_c, 14, 32, 90
19, 63810, Note_on_c, 14, 32, 0
19, 63810, Note_on_c, 14, 28, 90
19, 63840, Note_on_c, 14, 28, 0
19, 63840, Note_on_c, 14, 30, 90
19, 63870, Note_on_c, 14, 30, 0
19, 63870, Note_on_c, 14, 32, 90
19, 63900, Note_on_c, 14, 32, 0
19, 63900, Note_on_c, 14, 33, 90
19, 63930, Note_on_c, 14, 33, 0
19, 63930, Note_on_c, 14, 32, 90
19, 63960, Note_on_c, 14, 32, 0
19, 63960, Note_on_c, 14, 30, 90
19, 63990, Note_on_c, 14, 30, 0
19, 63990, Note_on_c, 14, 32, 90
19, 64020, Note_on_c, 14, 32, 0
19, 64020, Note_on_c, 14, 33, 90
19, 64050, Note_on_c, 14, 33, 0
19, 64050, Note_on_c, 14, 30, 90
19, 64080, Note_on_c, 14, 30, 0
19, 64080, Note_on_c, 14, 32, 90
19, 64110, Note_on_c, 14, 32, 0
19, 64110, Note_on_c, 14, 33, 90
19, 64140, Note_on_c, 14, 33, 0
19, 64140, Note_on_c, 14, 35, 90
19, 64170, Note_on_c, 14, 35, 0
19, 64170, Note_on_c, 14, 33, 90
19, 64200, Note_on_c, 14, 33, 0
19, 64200, Note_on_c, 14, 32, 90
19, 64230, Note_on_c, 14, 32, 0
19, 64230, Note_on_c, 14, 33, 90
19, 64260, Note_on_c, 14, 33, 0
19, 64260, Note_on_c, 14, 35, 90
19, 64290, Note_on_c, 14, 35, 0
19, 64290, Note_on_c, 14, 32, 90
19, 64320, Note_on_c, 14, 32, 0
19, 64320, Note_on_c, 14, 33, 90
19, 64350, Note_on_c, 14, 33, 0
19, 64350, Note_on_c, 14, 35, 90
19, 64380, Note_on_c, 14, 35, 0
19, 64380, Note_on_c, 14, 37, 90
19, 64410, Note_on_c, 14, 37, 0
19, 64410, Note_on_c, 14, 35, 90
19, 64440, Note_on_c, 14, 35, 0
19, 64440, Note_on_c, 14, 33, 90
19, 64470, Note_on_c, 14, 33, 0
19, 64470, Note_on_c, 14, 35, 90
19, 64500, Note_on_c, 14, 35, 0
19, 64500, Note_on_c, 14, 37, 90
19, 64530, Note_on_c, 14, 37, 0
19, 64530, Note_on_c, 14, 33, 90
19, 64560, Note_on_c, 14, 33, 0
19, 64560, Note_on_c, 14, 35, 90
19, 64590, Note_on_c, 14, 35, 0
19, 64590, Note_on_c, 14, 37, 90
19, 64620, Note_on_c, 14, 37, 0
19, 64620, Note_on_c, 14, 38, 90
19, 64650, Note_on_c, 14, 38, 0
19, 64650, Note_on_c, 14, 37, 90
19, 64680, Note_on_c, 14, 37, 0
19, 64680, Note_on_c, 14, 35, 90
19, 64710, Note_on_c, 14, 35, 0
19, 64710, Note_on_c, 14, 37, 90
19, 64740, Note_on_c, 14, 37, 0
19, 64740, Note_on_c, 14, 38, 90
19, 64770, Note_on_c, 14, 38, 0
19, 64770, Note_on_c, 14, 35, 90
19, 64800, Note_on_c, 14, 35, 0
19, 64800, Note_on_c, 14, 37, 90
19, 64830, Note_on_c, 14, 37, 0
19, 64830, Note_on_c, 14, 38, 90
19, 64860, Note_on_c, 14, 38, 0
19, 64860, Note_on_c, 14, 40, 90
19, 64890, Note_on_c, 14, 40, 0
19, 64890, Note_on_c, 14, 38, 90
19, 64920, Note_on_c, 14, 38, 0
19, 64920, Note_on_c, 14, 37, 90
19, 64950, Note_on_c, 14, 37, 0
19, 64950, Note_on_c, 14, 38, 90
19, 64980, Note_on_c, 14, 38, 0
19, 64980, Note_on_c, 14, 40, 90
19, 65010, Note_on_c, 14, 40, 0
19, 65010, Note_on_c, 14, 37, 90
19, 65040, Note_on_c, 14, 37, 0
19, 65040, Note_on_c, 14, 38, 90
19, 65070, Note_on_c, 14, 38, 0
19, 65070, Note_on_c, 14, 40, 90
19, 65100, Note_on_c, 14, 40, 0
19, 65100, Note_on_c, 14, 42, 90
19, 65160, Note_on_c, 14, 42, 0
19, 65160, Note_on_c, 14, 40, 90
19, 65190, Note_on_c, 14, 40, 0
19, 65190, Note_on_c, 14, 39, 90
19, 65220, Note_on_c, 14, 39, 0
19, 65220, Note_on_c, 14, 40, 90
19, 65280, Note_on_c, 14, 40, 0
19, 65280, Note_on_c, 14, 28, 90
19, 65340, Note_on_c, 14, 28, 0
19, 65340, Note_on_c, 14, 45, 90
19, 65400, Note_on_c, 14, 45, 0
19, 65400, Note_on_c, 14, 45, 90
19, 65460, Note_on_c, 14, 45, 0
19, 65460, Note_on_c, 14, 45, 90
19, 65520, Note_on_c, 14, 45, 0
19, 65520, Note_on_c, 14, 45, 90
19, 65580, Note_on_c, 14, 45, 0
19, 65580, Note_on_c, 14, 45, 90
19, 65640, Note_on_c, 14, 45, 0
19, 65640, Note_on_c, 14, 44, 90
19, 65670, Note_on_c, 14, 44, 0
19, 65670, Note_on_c, 14, 42, 90
19, 65700, Note_on_c, 14, 42, 0
19, 65700, Note_on_c, 14, 40, 90
19, 65760, Note_on_c, 14, 40, 0
19, 65760, Note_on_c, 14, 38, 90
19, 65820, Note_on_c, 14, 38, 0
19, 65820, Note_on_c, 14, 37, 90
19, 65850, Note_on_c, 14, 37, 0
19, 65850, Note_on_c, 14, 35, 90
19, 65880, Note_on_c, 14, 35, 0
19, 65880, Note_on_c, 14, 33, 90
19, 65910, Note_on_c, 14, 33, 0
19, 65910, Note_on_c, 14, 35, 90
19, 65940, Note_on_c, 14, 35, 0
19, 65940, Note_on_c, 14, 37, 90
19, 65970, Note_on_c, 14, 37, 0
19, 65970, Note_on_c, 14, 35, 90
19, 66000, Note_on_c, 14, 35, 0
19, 66000, Note_on_c, 14, 37, 90
19, 66030, Note_on_c, 14, 37, 0
19, 66030, Note_on_c, 14, 38, 90
19, 66060, Note_on_c, 14, 38, 0
19, 66060, Note_on_c, 14, 40, 90
19, 66090, Note_on_c, 14, 40, 0
19, 66090, Note_on_c, 14, 35, 90
19, 66120, Note_on_c, 14, 35, 0
19, 66120, Note_on_c, 14, 37, 90
19, 66150, Note_on_c, 14, 37, 0
19, 66150, Note_on_c, 14, 39, 90
19, 66180, Note_on_c, 14, 39, 0
19, 66180, Note_on_c, 14, 40, 90
19, 66210, Note_on_c, 14, 40, 0
19, 66210, Note_on_c, 14, 39, 90
19, 66240, Note_on_c, 14, 39, 0
19, 66240, Note_on_c, 14, 40, 90
19, 66270, Note_on_c, 14, 40, 0
19, 66270, Note_on_c, 14, 42, 90
19, 66300, Note_on_c, 14, 42, 0
19, 66300, Note_on_c, 14, 44, 90
19, 66330, Note_on_c, 14, 44, 0
19, 66330, Note_on_c, 14, 42, 90
19, 66360, Note_on_c, 14, 42, 0
19, 66360, Note_on_c, 14, 40, 90
19, 66390, Note_on_c, 14, 40, 0
19, 66390, Note_on_c, 14, 42, 90
19, 66420, Note_on_c, 14, 42, 0
19, 66420, Note_on_c, 14, 44, 90
19, 66450, Note_on_c, 14, 44, 0
19, 66450, Note_on_c, 14, 42, 90
19, 66480, Note_on_c, 14, 42, 0
19, 66480, Note_on_c, 14, 44, 90
19, 66510, Note_on_c, 14, 44, 0
19, 66510, Note_on_c, 14, 46, 90
19, 66540, Note_on_c, 14, 46, 0
19, 66540, Note_on_c, 14, 47, 90
19, 66600, Note_on_c, 14, 47, 0
19, 66600, Note_on_c, 14, 46, 90
19, 66630, Note_on_c, 14, 46, 0
19, 66630, Note_on_c, 14, 44, 90
19, 66660, Note_on_c, 14, 44, 0
19, 66660, Note_on_c, 14, 42, 90
19, 66720, Note_on_c, 14, 42, 0
19, 66720, Note_on_c, 14, 40, 90
19, 66780, Note_on_c, 14, 40, 0
19, 66780, Note_on_c, 14, 38, 90
19, 66840, Note_on_c, 14, 38, 0
19, 66840, Note_on_c, 14, 35, 90
19, 66900, Note_on_c, 14, 35, 0
19, 66930, Note_on_c, 14, 35, 90
19, 66960, Note_on_c, 14, 35, 0
19, 66960, Note_on_c, 14, 33, 90
19, 66990, Note_on_c, 14, 33, 0
19, 66990, Note_on_c, 14, 32, 90
19, 67020, Note_on_c, 14, 32, 0
19, 67020, Note_on_c, 14, 30, 90
19, 67080, Note_on_c, 14, 30, 0
19, 67080, Note_on_c, 14, 42, 90
19, 67140, Note_on_c, 14, 42, 0
19, 67170, Note_on_c, 14, 47, 90
19, 67200, Note_on_c, 14, 47, 0
19, 67200, Note_on_c, 14, 45, 90
19, 67230, Note_on_c, 14, 45, 0
19, 67230, Note_on_c, 14, 44, 90
19, 67260, Note_on_c, 14, 44, 0
19, 67260, Note_on_c, 14, 42, 90
19, 67290, Note_on_c, 14, 42, 0
19, 67290, Note_on_c, 14, 41, 90
19, 67320, Note_on_c, 14, 41, 0
19, 67320, Note_on_c, 14, 42, 90
19, 67380, Note_on_c, 14, 42, 0
19, 67380, Note_on_c, 14, 30, 90
19, 67440, Note_on_c, 14, 30, 0
19, 67440, Note_on_c, 14, 42, 90
19, 67500, Note_on_c, 14, 42, 0
19, 67500, Note_on_c, 14, 37, 90
19, 67980, Note_on_c, 14, 37, 0
19, 68040, Note_on_c, 14, 25, 90
19, 68070, Note_on_c, 14, 25, 0
19, 68070, Note_on_c, 14, 27, 90
19, 68100, Note_on_c, 14, 27, 0
19, 68100, Note_on_c, 14, 29, 90
19, 68130, Note_on_c, 14, 29, 0
19, 68130, Note_on_c, 14, 25, 90
19, 68160, Note_on_c, 14, 25, 0
19, 68160, Note_on_c, 14, 27, 90
19, 68190, Note_on_c, 14, 27, 0
19, 68190, Note_on_c, 14, 29, 90
19, 68220, Note_on_c, 14, 29, 0
19, 68220, Note_on_c, 14, 30, 90
19, 68250, Note_on_c, 14, 30, 0
19, 68250, Note_on_c, 14, 28, 90
19, 68280, Note_on_c, 14, 28, 0
19, 68280, Note_on_c, 14, 26, 90
19, 68310, Note_on_c, 14, 26, 0
19, 68310, Note_on_c, 14, 28, 90
19, 68340, Note_on_c, 14, 28, 0
19, 68340, Note_on_c, 14, 30, 90
19, 68370, Note_on_c, 14, 30, 0
19, 68370, Note_on_c, 14, 26, 90
19, 68400, Note_on_c, 14, 26, 0
19, 68400, Note_on_c, 14, 28, 90
19, 68430, Note_on_c, 14, 28, 0
19, 68430, Note_on_c, 14, 30, 90
19, 68460, Note_on_c, 14, 30, 0
19, 68460, Note_on_c, 14, 32, 90
19, 68490, Note_on_c, 14, 32, 0
19, 68490, Note_on_c, 14, 30, 90
19, 68520, Note_on_c, 14, 30, 0
19, 68520, Note_on_c, 14, 28, 90
19, 68550, Note_on_c, 14, 28, 0
19, 68550, Note_on_c, 14, 30, 90
19, 68580, Note_on_c, 14, 30, 0
19, 68580, Note_on_c, 14, 32, 90
19, 68610, Note_on_c, 14, 32, 0
19, 68610, Note_on_c, 14, 28, 90
19, 68640, Note_on_c, 14, 28, 0
19, 68640, Note_on_c, 14, 30, 90
19, 68670, Note_on_c, 14, 30, 0
19, 68670, Note_on_c, 14, 32, 90
19, 68700, Note_on_c, 14, 32, 0
19, 68700, Note_on_c, 14, 33, 90
19, 68730, Note_on_c, 14, 33, 0
19, 68730, Note_on_c, 14, 32, 90
19, 68760, Note_on_c, 14, 32, 0
19, 68760, Note_on_c, 14, 30, 90
19, 68790, Note_on_c, 14, 30, 0
19, 68790, Note_on_c, 14, 32, 90
19, 68820, Note_on_c, 14, 32, 0
19, 68820, Note_on_c, 14, 33, 90
19, 68850, Note_on_c, 14, 33, 0
19, 68850, Note_on_c, 14, 30, 90
19, 68880, Note_on_c, 14, 30, 0
19, 68880, Note_on_c, 14, 32, 90
19, 68910, Note_on_c, 14, 32, 0
19, 68910, Note_on_c, 14, 33, 90
19, 68940, Note_on_c, 14, 33, 0
19, 68940, Note_on_c, 14, 35, 90
19, 68970, Note_on_c, 14, 35, 0
19, 68970, Note_on_c, 14, 33, 90
19, 69000, Note_on_c, 14, 33, 0
19, 69000, Note_on_c, 14, 31, 90
19, 69030, Note_on_c, 14, 31, 0
19, 69030, Note_on_c, 14, 33, 90
19, 69060, Note_on_c, 14, 33, 0
19, 69060, Note_on_c, 14, 35, 90
19, 69090, Note_on_c, 14, 35, 0
19, 69090, Note_on_c, 14, 31, 90
19, 69120, Note_on_c, 14, 31, 0
19, 69120, Note_on_c, 14, 33, 90
19, 69150, Note_on_c, 14, 33, 0
19, 69150, Note_on_c, 14, 35, 90
19, 69180, Note_on_c, 14, 35, 0
19, 69180, Note_on_c, 14, 37, 90
19, 69210, Note_on_c, 14, 37, 0
19, 69210, Note_on_c, 14, 35, 90
19, 69240, Note_on_c, 14, 35, 0
19, 69240, Note_on_c, 14, 33, 90
19, 69270, Note_on_c, 14, 33, 0
19, 69270, Note_on_c, 14, 35, 90
19, 69300, Note_on_c, 14, 35, 0
19, 69300, Note_on_c, 14, 37, 90
19, 69330, Note_on_c, 14, 37, 0
19, 69330, Note_on_c, 14, 33, 90
19, 69360, Note_on_c, 14, 33, 0
19, 69360, Note_on_c, 14, 35, 90
19, 69390, Note_on_c, 14, 35, 0
19, 69390, Note_on_c, 14, 37, 90
19, 69420, Note_on_c, 14, 37, 0
19, 69420, Note_on_c, 14, 38, 90
19, 69450, Note_on_c, 14, 38, 0
19, 69450, Note_on_c, 14, 37, 90
19, 69480, Note_on_c, 14, 37, 0
19, 69480, Note_on_c, 14, 35, 90
19, 69510, Note_on_c, 14, 35, 0
19, 69510, Note_on_c, 14, 37, 90
19, 69540, Note_on_c, 14, 37, 0
19, 69540, Note_on_c, 14, 38, 90
19, 69570, Note_on_c, 14, 38, 0
19, 69570, Note_on_c, 14, 35, 90
19, 69600, Note_on_c, 14, 35, 0
19, 69600, Note_on_c, 14, 37, 90
19, 69630, Note_on_c, 14, 37, 0
19, 69630, Note_on_c, 14, 38, 90
19, 69660, Note_on_c, 14, 38, 0
19, 69660, Note_on_c, 14, 40, 90
19, 69690, Note_on_c, 14, 40, 0
19, 69690, Note_on_c, 14, 38, 90
19, 69720, Note_on_c, 14, 38, 0
19, 69720, Note_on_c, 14, 37, 90
19, 69750, Note_on_c, 14, 37, 0
19, 69750, Note_on_c, 14, 38, 90
19, 69780, Note_on_c, 14, 38, 0
19, 69780, Note_on_c, 14, 40, 90
19, 69810, Note_on_c, 14, 40, 0
19, 69810, Note_on_c, 14, 37, 90
19, 69840, Note_on_c, 14, 37, 0
19, 69840, Note_on_c, 14, 38, 90
19, 69870, Note_on_c, 14, 38, 0
19, 69870, Note_on_c, 14, 40, 90
19, 69900, Note_on_c, 14, 40, 0
19, 69900, Note_on_c, 14, 42, 90
19, 69930, Note_on_c, 14, 42, 0
19, 69930, Note_on_c, 14, 40, 90
19, 69960, Note_on_c, 14, 40, 0
19, 69960, Note_on_c, 14, 39, 90
19, 69990, Note_on_c, 14, 39, 0
19, 69990, Note_on_c, 14, 40, 90
19, 70020, Note_on_c, 14, 40, 0
19, 70020, Note_on_c, 14, 42, 90
19, 70050, Note_on_c, 14, 42, 0
19, 70050, Note_on_c, 14, 39, 90
19, 70080, Note_on_c, 14, 39, 0
19, 70080, Note_on_c, 14, 40, 90
19, 70110, Note_on_c, 14, 40, 0
19, 70110, Note_on_c, 14, 42, 90
19, 70140, Note_on_c, 14, 42, 0
19, 70140, Note_on_c, 14, 44, 90
19, 70170, Note_on_c, 14, 44, 0
19, 70170, Note_on_c, 14, 42, 90
19, 70200, Note_on_c, 14, 42, 0
19, 70200, Note_on_c, 14, 40, 90
19, 70230, Note_on_c, 14, 40, 0
19, 70230, Note_on_c, 14, 42, 90
19, 70260, Note_on_c, 14, 42, 0
19, 70260, Note_on_c, 14, 44, 90
19, 70290, Note_on_c, 14, 44, 0
19, 70290, Note_on_c, 14, 40, 90
19, 70320, Note_on_c, 14, 40, 0
19, 70320, Note_on_c, 14, 42, 90
19, 70350, Note_on_c, 14, 42, 0
19, 70350, Note_on_c, 14, 44, 90
19, 70380, Note_on_c, 14, 44, 0
19, 70380, Note_on_c, 14, 45, 90
19, 70440, Note_on_c, 14, 45, 0
19, 70440, Note_on_c, 14, 44, 90
19, 70470, Note_on_c, 14, 44, 0
19, 70470, Note_on_c, 14, 42, 90
19, 70500, Note_on_c, 14, 42, 0
19, 70500, Note_on_c, 14, 44, 90
19, 70560, Note_on_c, 14, 44, 0
19, 70560, Note_on_c, 14, 32, 90
19, 70620, Note_on_c, 14, 32, 0
19, 70620, Note_on_c, 14, 25, 90
19, 70740, Note_on_c, 14, 25, 0
19, 70860, Note_on_c, 14, 25, 90
19, 70980, Note_on_c, 14, 25, 0
19, 71100, Note_on_c, 14, 25, 90
19, 71220, Note_on_c, 14, 25, 0
19, 71340, Note_on_c, 14, 25, 90
19, 71460, Note_on_c, 14, 25, 0
19, 71580, Note_on_c, 14, 25, 90
19, 71700, Note_on_c, 14, 25, 0
19, 71820, Note_on_c, 14, 25, 90
19, 71940, Note_on_c, 14, 25, 0
19, 72060, Note_on_c, 14, 25, 90
19, 72300, Note_on_c, 14, 25, 0
19, 72540, Note_on_c, 14, 42, 90
19, 72600, Note_on_c, 14, 42, 0
19, 72600, Note_on_c, 14, 42, 90
19, 72660, Note_on_c, 14, 42, 0
19, 72660, Note_on_c, 14, 42, 90
19, 72720, Note_on_c, 14, 42, 0
19, 72720, Note_on_c, 14, 42, 90
19, 72780, Note_on_c, 14, 42, 0
19, 72780, Note_on_c, 14, 42, 90
19, 72840, Note_on_c, 14, 42, 0
19, 72840, Note_on_c, 14, 41, 90
19, 72870, Note_on_c, 14, 41, 0
19, 72870, Note_on_c, 14, 39, 90
19, 72900, Note_on_c, 14, 39, 0
19, 72900, Note_on_c, 14, 37, 90
19, 72960, Note_on_c, 14, 37, 0
19, 72960, Note_on_c, 14, 35, 90
19, 73020, Note_on_c, 14, 35, 0
19, 73020, Note_on_c, 14, 33, 90
19, 73050, Note_on_c, 14, 33, 0
19, 73050, Note_on_c, 14, 32, 90
19, 73080, Note_on_c, 14, 32, 0
19, 73080, Note_on_c, 14, 30, 90
19, 73110, Note_on_c, 14, 30, 0
19, 73110, Note_on_c, 14, 32, 90
19, 73140, Note_on_c, 14, 32, 0
19, 73140, Note_on_c, 14, 33, 90
19, 73170, Note_on_c, 14, 33, 0
19, 73170, Note_on_c, 14, 32, 90
19, 73200, Note_on_c, 14, 32, 0
19, 73200, Note_on_c, 14, 33, 90
19, 73230, Note_on_c, 14, 33, 0
19, 73230, Note_on_c, 14, 35, 90
19, 73260, Note_on_c, 14, 35, 0
19, 73260, Note_on_c, 14, 37, 90
19, 73290, Note_on_c, 14, 37, 0
19, 73290, Note_on_c, 14, 35, 90
19, 73320, Note_on_c, 14, 35, 0
19, 73320, Note_on_c, 14, 37, 90
19, 73350, Note_on_c, 14, 37, 0
19, 73350, Note_on_c, 14, 39, 90
19, 73380, Note_on_c, 14, 39, 0
19, 73380, Note_on_c, 14, 41, 90
19, 73410, Note_on_c, 14, 41, 0
19, 73410, Note_on_c, 14, 39, 90
19, 73440, Note_on_c, 14, 39, 0
19, 73440, Note_on_c, 14, 41, 90
19, 73470, Note_on_c, 14, 41, 0
19, 73470, Note_on_c, 14, 37, 90
19, 73500, Note_on_c, 14, 37, 0
19, 73500, Note_on_c, 14, 42, 90
19, 73560, Note_on_c, 14, 42, 0
19, 73560, Note_on_c, 14, 35, 90
19, 73620, Note_on_c, 14, 35, 0
19, 73620, Note_on_c, 14, 37, 90
19, 73680, Note_on_c, 14, 37, 0
19, 73680, Note_on_c, 14, 25, 90
19, 73740, Note_on_c, 14, 25, 0
19, 73740, Note_on_c, 14, 30, 90
19, 73980, Note_on_c, 14, 30, 0
19, 74460, Control_c, 14, 0, 0
19, 74580, Note_on_c, 14, 45, 100
19, 74620, Note_on_c, 14, 45, 0
19, 74640, Note_on_c, 14, 45, 100
19, 74680, Note_on_c, 14, 45, 0
19, 74700, Note_on_c, 14, 45, 100
19, 74758, Note_on_c, 14, 45, 0
19, 74760, Note_on_c, 14, 44, 100
19, 74788, Note_on_c, 14, 44, 0
19, 74790, Note_on_c, 14, 45, 100
19, 74818, Note_on_c, 14, 45, 0
19, 74820, Note_on_c, 14, 47, 100
19, 74878, Note_on_c, 14, 47, 0
19, 74880, Note_on_c, 14, 38, 100
19, 74938, Note_on_c, 14, 38, 0
19, 74940, Note_on_c, 14, 37, 100
19, 75058, Note_on_c, 14, 37, 0
19, 75060, Note_on_c, 14, 49, 100
19, 75100, Note_on_c, 14, 49, 0
19, 75120, Note_on_c, 14, 49, 100
19, 75160, Note_on_c, 14, 49, 0
19, 75180, Note_on_c, 14, 49, 100
19, 75238, Note_on_c, 14, 49, 0
19, 75240, Note_on_c, 14, 47, 100
19, 75268, Note_on_c, 14, 47, 0
19, 75270, Note_on_c, 14, 49, 100
19, 75298, Note_on_c, 14, 49, 0
19, 75300, Note_on_c, 14, 50, 100
19, 75358, Note_on_c, 14, 50, 0
19, 75360, Note_on_c, 14, 42, 100
19, 75418, Note_on_c, 14, 42, 0
19, 75420, Note_on_c, 14, 40, 100
19, 75538, Note_on_c, 14, 40, 0
19, 75540, Note_on_c, 14, 49, 100
19, 75598, Note_on_c, 14, 49, 0
19, 75600, Note_on_c, 14, 40, 100
19, 75658, Note_on_c, 14, 40, 0
19, 75660, Note_on_c, 14, 38, 100
19, 75778, Note_on_c, 14, 38, 0
19, 75780, Note_on_c, 14, 47, 100
19, 75838, Note_on_c, 14, 47, 0
19, 75840, Note_on_c, 14, 38, 100
19, 75898, Note_on_c, 14, 38, 0
19, 75900, Note_on_c, 14, 37, 100
19, 76018, Note_on_c, 14, 37, 0
19, 76020, Note_on_c, 14, 45, 100
19, 76048, Note_on_c, 14, 45, 0
19, 76050, Note_on_c, 14, 44, 100
19, 76078, Note_on_c, 14, 44, 0
19, 76080, Note_on_c, 14, 42, 100
19, 76108, Note_on_c, 14, 42, 0
19, 76110, Note_on_c, 14, 40, 100
19, 76138, Note_on_c, 14, 40, 0
19, 76140, Note_on_c, 14, 38, 100
19, 76168, Note_on_c, 14, 38, 0
19, 76170, Note_on_c, 14, 37, 100
19, 76198, Note_on_c, 14, 37, 0
19, 76200, Note_on_c, 14, 35, 100
19, 76228, Note_on_c, 14, 35, 0
19, 76230, Note_on_c, 14, 33, 100
19, 76258, Note_on_c, 14, 33, 0
19, 76260, Note_on_c, 14, 40, 100
19, 76318, Note_on_c, 14, 40, 0
19, 76320, Note_on_c, 14, 28, 100
19, 76378, Note_on_c, 14, 28, 0
19, 76380, Note_on_c, 14, 33, 100
19, 76438, Note_on_c, 14, 33, 0
19, 76500, Note_on_c, 14, 37, 100
19, 76540, Note_on_c, 14, 37, 0
19, 76620, Note_on_c, 14, 40, 100
19, 76660, Note_on_c, 14, 40, 0
19, 76740, Note_on_c, 14, 28, 100
19, 76780, Note_on_c, 14, 28, 0
19, 76860, Note_on_c, 14, 33, 100
19, 76900, Note_on_c, 14, 33, 0
19, 76980, Note_on_c, 14, 49, 100
19, 77020, Note_on_c, 14, 49, 0
19, 77040, Note_on_c, 14, 49, 100
19, 77080, Note_on_c, 14, 49, 0
19, 77100, Note_on_c, 14, 49, 100
19, 77158, Note_on_c, 14, 49, 0
19, 77160, Note_on_c, 14, 47, 100
19, 77188, Note_on_c, 14, 47, 0
19, 77190, Note_on_c, 14, 49, 100
19, 77218, Note_on_c, 14, 49, 0
19, 77220, Note_on_c, 14, 50, 100
19, 77278, Note_on_c, 14, 50, 0
19, 77280, Note_on_c, 14, 42, 100
19, 77338, Note_on_c, 14, 42, 0
19, 77340, Note_on_c, 14, 40, 100
19, 77458, Note_on_c, 14, 40, 0
19, 77460, Note_on_c, 14, 49, 100
19, 77518, Note_on_c, 14, 49, 0
19, 77520, Note_on_c, 14, 40, 100
19, 77578, Note_on_c, 14, 40, 0
19, 77580, Note_on_c, 14, 38, 100
19, 77698, Note_on_c, 14, 38, 0
19, 77700, Note_on_c, 14, 47, 100
19, 77758, Note_on_c, 14, 47, 0
19, 77760, Note_on_c, 14, 38, 100
19, 77818, Note_on_c, 14, 38, 0
19, 77820, Note_on_c, 14, 37, 100
19, 77938, Note_on_c, 14, 37, 0
19, 77940, Note_on_c, 14, 45, 100
19, 77968, Note_on_c, 14, 45, 0
19, 77970, Note_on_c, 14, 44, 100
19, 77998, Note_on_c, 14, 44, 0
19, 78000, Note_on_c, 14, 42, 100
19, 78028, Note_on_c, 14, 42, 0
19, 78030, Note_on_c, 14, 40, 100
19, 78058, Note_on_c, 14, 40, 0
19, 78060, Note_on_c, 14, 38, 100
19, 78088, Note_on_c, 14, 38, 0
19, 78090, Note_on_c, 14, 37, 100
19, 78118, Note_on_c, 14, 37, 0
19, 78120, Note_on_c, 14, 35, 100
19, 78148, Note_on_c, 14, 35, 0
19, 78150, Note_on_c, 14, 33, 100
19, 78178, Note_on_c, 14, 33, 0
19, 78180, Note_on_c, 14, 40, 100
19, 78238, Note_on_c, 14, 40, 0
19, 78240, Note_on_c, 14, 28, 100
19, 78280, Note_on_c, 14, 28, 0
19, 78300, Note_on_c, 14, 33, 100
19, 78358, Note_on_c, 14, 33, 0
19, 78420, Note_on_c, 14, 37, 100
19, 78460, Note_on_c, 14, 37, 0
19, 78540, Note_on_c, 14, 40, 100
19, 78580, Note_on_c, 14, 40, 0
19, 78660, Note_on_c, 14, 28, 100
19, 78700, Note_on_c, 14, 28, 0
19, 78780, Note_on_c, 14, 33, 100
19, 78820, Note_on_c, 14, 33, 0
19, 78900, Note_on_c, 14, 49, 100
19, 78940, Note_on_c, 14, 49, 0
19, 78960, Note_on_c, 14, 49, 100
19, 79000, Note_on_c, 14, 49, 0
19, 79020, Note_on_c, 14, 49, 100
19, 79078, Note_on_c, 14, 49, 0
19, 79080, Note_on_c, 14, 47, 100
19, 79108, Note_on_c, 14, 47, 0
19, 79110, Note_on_c, 14, 49, 100
19, 79138, Note_on_c, 14, 49, 0
19, 79140, Note_on_c, 14, 50, 100
19, 79198, Note_on_c, 14, 50, 0
19, 79200, Note_on_c, 14, 42, 100
19, 79258, Note_on_c, 14, 42, 0
19, 79260, Note_on_c, 14, 40, 100
19, 79378, Note_on_c, 14, 40, 0
19, 79380, Note_on_c, 14, 49, 100
19, 79438, Note_on_c, 14, 49, 0
19, 79440, Note_on_c, 14, 40, 100
19, 79498, Note_on_c, 14, 40, 0
19, 79500, Note_on_c, 14, 38, 100
19, 79618, Note_on_c, 14, 38, 0
19, 79620, Note_on_c, 14, 47, 100
19, 79678, Note_on_c, 14, 47, 0
19, 79680, Note_on_c, 14, 38, 100
19, 79738, Note_on_c, 14, 38, 0
19, 79740, Note_on_c, 14, 37, 100
19, 79858, Note_on_c, 14, 37, 0
19, 79860, Note_on_c, 14, 45, 100
19, 79888, Note_on_c, 14, 45, 0
19, 79890, Note_on_c, 14, 44, 100
19, 79918, Note_on_c, 14, 44, 0
19, 79920, Note_on_c, 14, 42, 100
19, 79948, Note_on_c, 14, 42, 0
19, 79950, Note_on_c, 14, 40, 100
19, 79978, Note_on_c, 14, 40, 0
19, 79980, Note_on_c, 14, 39, 100
19, 80020, Note_on_c, 14, 39, 0
19, 80040, Note_on_c, 14, 40, 100
19, 80080, Note_on_c, 14, 40, 0
19, 80100, Note_on_c, 14, 47, 100
19, 80140, Note_on_c, 14, 47, 0
19, 80160, Note_on_c, 14, 35, 100
19, 80200, Note_on_c, 14, 35, 0
19, 80220, Note_on_c, 14, 28, 100
19, 80300, Note_on_c, 14, 28, 0
19, 80340, Note_on_c, 14, 40, 100
19, 80380, Note_on_c, 14, 40, 0
19, 80400, Note_on_c, 14, 40, 100
19, 80440, Note_on_c, 14, 40, 0
19, 80460, Note_on_c, 14, 40, 100
19, 80500, Note_on_c, 14, 40, 0
19, 80520, Note_on_c, 14, 39, 100
19, 80540, Note_on_c, 14, 39, 0
19, 80550, Note_on_c, 14, 40, 100
19, 80570, Note_on_c, 14, 40, 0
19, 80580, Note_on_c, 14, 42, 100
19, 80620, Note_on_c, 14, 42, 0
19, 80640, Note_on_c, 14, 33, 100
19, 80680, Note_on_c, 14, 33, 0
19, 80700, Note_on_c, 14, 32, 100
19, 80780, Note_on_c, 14, 32, 0
19, 80820, Note_on_c, 14, 44, 100
19, 80860, Note_on_c, 14, 44, 0
19, 80880, Note_on_c, 14, 44, 100
19, 80920, Note_on_c, 14, 44, 0
19, 80940, Note_on_c, 14, 44, 100
19, 80980, Note_on_c, 14, 44, 0
19, 81000, Note_on_c, 14, 42, 100
19, 81020, Note_on_c, 14, 42, 0
19, 81030, Note_on_c, 14, 44, 100
19, 81050, Note_on_c, 14, 44, 0
19, 81060, Note_on_c, 14, 45, 100
19, 81100, Note_on_c, 14, 45, 0
19, 81120, Note_on_c, 14, 37, 100
19, 81160, Note_on_c, 14, 37, 0
19, 81180, Note_on_c, 14, 35, 100
19, 81260, Note_on_c, 14, 35, 0
19, 81300, Note_on_c, 14, 44, 100
19, 81340, Note_on_c, 14, 44, 0
19, 81360, Note_on_c, 14, 35, 100
19, 81400, Note_on_c, 14, 35, 0
19, 81420, Note_on_c, 14, 33, 100
19, 81500, Note_on_c, 14, 33, 0
19, 81540, Note_on_c, 14, 42, 100
19, 81580, Note_on_c, 14, 42, 0
19, 81600, Note_on_c, 14, 33, 100
19, 81640, Note_on_c, 14, 33, 0
19, 81660, Note_on_c, 14, 32, 100
19, 81740, Note_on_c, 14, 32, 0
19, 81780, Note_on_c, 14, 40, 100
19, 81800, Note_on_c, 14, 40, 0
19, 81810, Note_on_c, 14, 39, 100
19, 81830, Note_on_c, 14, 39, 0
19, 81840, Note_on_c, 14, 37, 100
19, 81860, Note_on_c, 14, 37, 0
19, 81870, Note_on_c, 14, 35, 100
19, 81890, Note_on_c, 14, 35, 0
19, 81900, Note_on_c, 14, 33, 100
19, 81920, Note_on_c, 14, 33, 0
19, 81930, Note_on_c, 14, 32, 100
19, 81950, Note_on_c, 14, 32, 0
19, 81960, Note_on_c, 14, 30, 100
19, 81980, Note_on_c, 14, 30, 0
19, 81990, Note_on_c, 14, 28, 100
19, 82010, Note_on_c, 14, 28, 0
19, 82020, Note_on_c, 14, 35, 100
19, 82060, Note_on_c, 14, 35, 0
19, 82080, Note_on_c, 14, 35, 100
19, 82120, Note_on_c, 14, 35, 0
19, 82140, Note_on_c, 14, 28, 100
19, 82220, Note_on_c, 14, 28, 0
19, 82500, Note_on_c, 14, 42, 100
19, 82540, Note_on_c, 14, 42, 0
19, 82560, Note_on_c, 14, 42, 100
19, 82600, Note_on_c, 14, 42, 0
19, 82620, Note_on_c, 14, 42, 100
19, 82660, Note_on_c, 14, 42, 0
19, 82680, Note_on_c, 14, 41, 100
19, 82700, Note_on_c, 14, 41, 0
19, 82710, Note_on_c, 14, 42, 100
19, 82730, Note_on_c, 14, 42, 0
19, 82740, Note_on_c, 14, 44, 100
19, 82780, Note_on_c, 14, 44, 0
19, 82800, Note_on_c, 14, 35, 100
19, 82840, Note_on_c, 14, 35, 0
19, 82860, Note_on_c, 14, 33, 100
19, 82940, Note_on_c, 14, 33, 0
19, 82980, Note_on_c, 14, 45, 100
19, 83020, Note_on_c, 14, 45, 0
19, 83040, Note_on_c, 14, 45, 100
19, 83080, Note_on_c, 14, 45, 0
19, 83100, Note_on_c, 14, 45, 100
19, 83140, Note_on_c, 14, 45, 0
19, 83160, Note_on_c, 14, 44, 100
19, 83180, Note_on_c, 14, 44, 0
19, 83190, Note_on_c, 14, 45, 100
19, 83210, Note_on_c, 14, 45, 0
19, 83220, Note_on_c, 14, 47, 100
19, 83260, Note_on_c, 14, 47, 0
19, 83280, Note_on_c, 14, 38, 100
19, 83320, Note_on_c, 14, 38, 0
19, 83340, Note_on_c, 14, 37, 100
19, 83420, Note_on_c, 14, 37, 0
19, 83460, Note_on_c, 14, 45, 100
19, 83500, Note_on_c, 14, 45, 0
19, 83520, Note_on_c, 14, 37, 100
19, 83560, Note_on_c, 14, 37, 0
19, 83580, Note_on_c, 14, 35, 100
19, 83660, Note_on_c, 14, 35, 0
19, 83700, Note_on_c, 14, 44, 100
19, 83740, Note_on_c, 14, 44, 0
19, 83760, Note_on_c, 14, 35, 100
19, 83800, Note_on_c, 14, 35, 0
19, 83820, Note_on_c, 14, 33, 100
19, 83900, Note_on_c, 14, 33, 0
19, 83940, Note_on_c, 14, 42, 100
19, 83960, Note_on_c, 14, 42, 0
19, 83970, Note_on_c, 14, 40, 100
19, 83990, Note_on_c, 14, 40, 0
19, 84000, Note_on_c, 14, 38, 100
19, 84020, Note_on_c, 14, 38, 0
19, 84030, Note_on_c, 14, 37, 100
19, 84050, Note_on_c, 14, 37, 0
19, 84060, Note_on_c, 14, 35, 100
19, 84080, Note_on_c, 14, 35, 0
19, 84090, Note_on_c, 14, 33, 100
19, 84110, Note_on_c, 14, 33, 0
19, 84120, Note_on_c, 14, 32, 100
19, 84140, Note_on_c, 14, 32, 0
19, 84150, Note_on_c, 14, 30, 100
19, 84170, Note_on_c, 14, 30, 0
19, 84180, Note_on_c, 14, 37, 100
19, 84220, Note_on_c, 14, 37, 0
19, 84240, Note_on_c, 14, 25, 100
19, 84280, Note_on_c, 14, 25, 0
19, 84300, Note_on_c, 14, 30, 100
19, 84380, Note_on_c, 14, 30, 0
19, 84420, Note_on_c, 14, 42, 100
19, 84460, Note_on_c, 14, 42, 0
19, 84480, Note_on_c, 14, 33, 100
19, 84520, Note_on_c, 14, 33, 0
19, 84540, Note_on_c, 14, 32, 100
19, 84620, Note_on_c, 14, 32, 0
19, 84660, Note_on_c, 14, 40, 100
19, 84700, Note_on_c, 14, 40, 0
19, 84720, Note_on_c, 14, 32, 100
19, 84760, Note_on_c, 14, 32, 0
19, 84780, Note_on_c, 14, 30, 100
19, 84860, Note_on_c, 14, 30, 0
19, 84900, Note_on_c, 14, 39, 100
19, 84940, Note_on_c, 14, 39, 0
19, 84960, Note_on_c, 14, 30, 100
19, 85000, Note_on_c, 14, 30, 0
19, 85020, Note_on_c, 14, 28, 100
19, 85100, Note_on_c, 14, 28, 0
19, 85140, Note_on_c, 14, 49, 100
19, 85160, Note_on_c, 14, 49, 0
19, 85170, Note_on_c, 14, 47, 100
19, 85190, Note_on_c, 14, 47, 0
19, 85200, Note_on_c, 14, 45, 100
19, 85220, Note_on_c, 14, 45, 0
19, 85230, Note_on_c, 14, 44, 100
19, 85250, Note_on_c, 14, 44, 0
19, 85260, Note_on_c, 14, 42, 100
19, 85280, Note_on_c, 14, 42, 0
19, 85290, Note_on_c, 14, 40, 100
19, 85310, Note_on_c, 14, 40, 0
19, 85320, Note_on_c, 14, 39, 100
19, 85340, Note_on_c, 14, 39, 0
19, 85350, Note_on_c, 14, 37, 100
19, 85370, Note_on_c, 14, 37, 0
19, 85380, Note_on_c, 14, 44, 100
19, 85420, Note_on_c, 14, 44, 0
19, 85440, Note_on_c, 14, 32, 100
19, 85480, Note_on_c, 14, 32, 0
19, 85500, Note_on_c, 14, 25, 100
19, 85580, Note_on_c, 14, 25, 0
19, 85620, Note_on_c, 14, 37, 100
19, 85660, Note_on_c, 14, 37, 0
19, 85680, Note_on_c, 14, 37, 100
19, 85720, Note_on_c, 14, 37, 0
19, 85740, Note_on_c, 14, 37, 100
19, 85780, Note_on_c, 14, 37, 0
19, 85800, Note_on_c, 14, 36, 100
19, 85820, Note_on_c, 14, 36, 0
19, 85830, Note_on_c, 14, 37, 100
19, 85850, Note_on_c, 14, 37, 0
19, 85860, Note_on_c, 14, 39, 100
19, 85900, Note_on_c, 14, 39, 0
19, 85920, Note_on_c, 14, 30, 100
19, 85960, Note_on_c, 14, 30, 0
19, 85980, Note_on_c, 14, 28, 100
19, 86060, Note_on_c, 14, 28, 0
19, 86100, Note_on_c, 14, 40, 100
19, 86140, Note_on_c, 14, 40, 0
19, 86160, Note_on_c, 14, 40, 100
19, 86200, Note_on_c, 14, 40, 0
19, 86220, Note_on_c, 14, 40, 100
19, 86260, Note_on_c, 14, 40, 0
19, 86280, Note_on_c, 14, 39, 100
19, 86300, Note_on_c, 14, 39, 0
19, 86310, Note_on_c, 14, 40, 100
19, 86330, Note_on_c, 14, 40, 0
19, 86340, Note_on_c, 14, 42, 100
19, 86380, Note_on_c, 14, 42, 0
19, 86400, Note_on_c, 14, 33, 100
19, 86440, Note_on_c, 14, 33, 0
19, 86460, Note_on_c, 14, 32, 100
19, 86540, Note_on_c, 14, 32, 0
19, 86580, Note_on_c, 14, 45, 100
19, 86620, Note_on_c, 14, 45, 0
19, 86640, Note_on_c, 14, 45, 100
19, 86680, Note_on_c, 14, 45, 0
19, 86700, Note_on_c, 14, 45, 100
19, 86758, Note_on_c, 14, 45, 0
19, 86760, Note_on_c, 14, 44, 100
19, 86788, Note_on_c, 14, 44, 0
19, 86790, Note_on_c, 14, 45, 100
19, 86818, Note_on_c, 14, 45, 0
19, 86820, Note_on_c, 14, 47, 100
19, 86878, Note_on_c, 14, 47, 0
19, 86880, Note_on_c, 14, 38, 100
19, 86938, Note_on_c, 14, 38, 0
19, 86940, Note_on_c, 14, 37, 100
19, 87058, Note_on_c, 14, 37, 0
19, 87060, Note_on_c, 14, 49, 100
19, 87100, Note_on_c, 14, 49, 0
19, 87120, Note_on_c, 14, 49, 100
19, 87160, Note_on_c, 14, 49, 0
19, 87180, Note_on_c, 14, 49, 100
19, 87238, Note_on_c, 14, 49, 0
19, 87240, Note_on_c, 14, 47, 100
19, 87268, Note_on_c, 14, 47, 0
19, 87270, Note_on_c, 14, 49, 100
19, 87298, Note_on_c, 14, 49, 0
19, 87300, Note_on_c, 14, 50, 100
19, 87358, Note_on_c, 14, 50, 0
19, 87360, Note_on_c, 14, 42, 100
19, 87418, Note_on_c, 14, 42, 0
19, 87420, Note_on_c, 14, 40, 100
19, 87538, Note_on_c, 14, 40, 0
19, 87540, Note_on_c, 14, 49, 100
19, 87580, Note_on_c, 14, 49, 0
19, 87600, Note_on_c, 14, 40, 100
19, 87640, Note_on_c, 14, 40, 0
19, 87660, Note_on_c, 14, 38, 100
19, 87740, Note_on_c, 14, 38, 0
19, 87780, Note_on_c, 14, 47, 100
19, 87820, Note_on_c, 14, 47, 0
19, 87840, Note_on_c, 14, 38, 100
19, 87880, Note_on_c, 14, 38, 0
19, 87900, Note_on_c, 14, 37, 100
19, 87980, Note_on_c, 14, 37, 0
19, 88020, Note_on_c, 14, 45, 100
19, 88040, Note_on_c, 14, 45, 0
19, 88050, Note_on_c, 14, 44, 100
19, 88070, Note_on_c, 14, 44, 0
19, 88080, Note_on_c, 14, 42, 100
19, 88100, Note_on_c, 14, 42, 0
19, 88110, Note_on_c, 14, 40, 100
19, 88130, Note_on_c, 14, 40, 0
19, 88140, Note_on_c, 14, 38, 100
19, 88160, Note_on_c, 14, 38, 0
19, 88170, Note_on_c, 14, 37, 100
19, 88190, Note_on_c, 14, 37, 0
19, 88200, Note_on_c, 14, 35, 100
19, 88220, Note_on_c, 14, 35, 0
19, 88230, Note_on_c, 14, 33, 100
19, 88250, Note_on_c, 14, 33, 0
19, 88260, Note_on_c, 14, 40, 100
19, 88300, Note_on_c, 14, 40, 0
19, 88320, Note_on_c, 14, 28, 100
19, 88360, Note_on_c, 14, 28, 0
19, 88380, Note_on_c, 14, 33, 100
19, 88460, Note_on_c, 14, 33, 0
19, 88500, Note_on_c, 14, 45, 100
19, 88540, Note_on_c, 14, 45, 0
19, 88560, Note_on_c, 14, 45, 100
19, 88600, Note_on_c, 14, 45, 0
19, 88620, Note_on_c, 14, 45, 100
19, 88678, Note_on_c, 14, 45, 0
19, 88680, Note_on_c, 14, 44, 100
19, 88708, Note_on_c, 14, 44, 0
19, 88710, Note_on_c, 14, 45, 100
19, 88738, Note_on_c, 14, 45, 0
19, 88740, Note_on_c, 14, 47, 100
19, 88798, Note_on_c, 14, 47, 0
19, 88800, Note_on_c, 14, 38, 100
19, 88858, Note_on_c, 14, 38, 0
19, 88860, Note_on_c, 14, 37, 100
19, 88978, Note_on_c, 14, 37, 0
19, 88980, Note_on_c, 14, 49, 100
19, 89020, Note_on_c, 14, 49, 0
19, 89040, Note_on_c, 14, 49, 100
19, 89080, Note_on_c, 14, 49, 0
19, 89100, Note_on_c, 14, 49, 100
19, 89158, Note_on_c, 14, 49, 0
19, 89160, Note_on_c, 14, 47, 100
19, 89188, Note_on_c, 14, 47, 0
19, 89190, Note_on_c, 14, 49, 100
19, 89218, Note_on_c, 14, 49, 0
19, 89220, Note_on_c, 14, 50, 100
19, 89278, Note_on_c, 14, 50, 0
19, 89280, Note_on_c, 14, 42, 100
19, 89338, Note_on_c, 14, 42, 0
19, 89340, Note_on_c, 14, 40, 100
19, 89458, Note_on_c, 14, 40, 0
19, 89460, Note_on_c, 14, 49, 100
19, 89500, Note_on_c, 14, 49, 0
19, 89520, Note_on_c, 14, 40, 100
19, 89560, Note_on_c, 14, 40, 0
19, 89580, Note_on_c, 14, 38, 100
19, 89660, Note_on_c, 14, 38, 0
19, 89700, Note_on_c, 14, 47, 100
19, 89740, Note_on_c, 14, 47, 0
19, 89760, Note_on_c, 14, 38, 100
19, 89800, Note_on_c, 14, 38, 0
19, 89820, Note_on_c, 14, 37, 100
19, 89900, Note_on_c, 14, 37, 0
19, 89940, Note_on_c, 14, 45, 100
19, 89960, Note_on_c, 14, 45, 0
19, 89970, Note_on_c, 14, 44, 100
19, 89990, Note_on_c, 14, 44, 0
19, 90000, Note_on_c, 14, 42, 100
19, 90020, Note_on_c, 14, 42, 0
19, 90030, Note_on_c, 14, 40, 100
19, 90050, Note_on_c, 14, 40, 0
19, 90060, Note_on_c, 14, 38, 100
19, 90080, Note_on_c, 14, 38, 0
19, 90090, Note_on_c, 14, 37, 100
19, 90110, Note_on_c, 14, 37, 0
19, 90120, Note_on_c, 14, 35, 100
19, 90140, Note_on_c, 14, 35, 0
19, 90150, Note_on_c, 14, 33, 100
19, 90170, Note_on_c, 14, 33, 0
19, 90180, Note_on_c, 14, 40, 100
19, 90220, Note_on_c, 14, 40, 0
19, 90240, Note_on_c, 14, 28, 100
19, 90280, Note_on_c, 14, 28, 0
19, 90300, Note_on_c, 14, 33, 100
19, 90380, Note_on_c, 14, 33, 0
19, 91260, Control_c, 14, 0, 0
19, 91260, Note_on_c, 14, 40, 100
19, 91377, Note_on_c, 14, 40, 0
19, 91380, Note_on_c, 14, 28, 100
19, 91437, Note_on_c, 14, 28, 0
19, 91440, Note_on_c, 14, 28, 100
19, 91557, Note_on_c, 14, 28, 0
19, 91560, Note_on_c, 14, 40, 100
19, 91617, Note_on_c, 14, 40, 0
19, 91620, Note_on_c, 14, 40, 100
19, 91737, Note_on_c, 14, 40, 0
19, 91740, Note_on_c, 14, 28, 100
19, 91797, Note_on_c, 14, 28, 0
19, 91800, Note_on_c, 14, 28, 100
19, 91917, Note_on_c, 14, 28, 0
19, 91920, Note_on_c, 14, 40, 100
19, 91977, Note_on_c, 14, 40, 0
19, 91980, Note_on_c, 14, 39, 100
19, 92097, Note_on_c, 14, 39, 0
19, 92100, Note_on_c, 14, 27, 100
19, 92157, Note_on_c, 14, 27, 0
19, 92160, Note_on_c, 14, 27, 100
19, 92277, Note_on_c, 14, 27, 0
19, 92280, Note_on_c, 14, 39, 100
19, 92337, Note_on_c, 14, 39, 0
19, 92340, Note_on_c, 14, 38, 100
19, 92457, Note_on_c, 14, 38, 0
19, 92460, Note_on_c, 14, 26, 100
19, 92517, Note_on_c, 14, 26, 0
19, 92520, Note_on_c, 14, 26, 100
19, 92637, Note_on_c, 14, 26, 0
19, 92640, Note_on_c, 14, 38, 100
19, 92697, Note_on_c, 14, 38, 0
19, 92700, Note_on_c, 14, 36, 100
19, 92817, Note_on_c, 14, 36, 0
19, 92820, Note_on_c, 14, 24, 100
19, 92877, Note_on_c, 14, 24, 0
19, 92880, Note_on_c, 14, 24, 100
19, 92997, Note_on_c, 14, 24, 0
19, 93000, Note_on_c, 14, 36, 100
19, 93057, Note_on_c, 14, 36, 0
19, 93060, Note_on_c, 14, 35, 100
19, 93177, Note_on_c, 14, 35, 0
19, 93180, Note_on_c, 14, 47, 100
19, 93237, Note_on_c, 14, 47, 0
19, 93240, Note_on_c, 14, 47, 100
19, 93357, Note_on_c, 14, 47, 0
19, 93360, Note_on_c, 14, 39, 100
19, 93417, Note_on_c, 14, 39, 0
19, 93420, Note_on_c, 14, 40, 100
19, 93537, Note_on_c, 14, 40, 0
19, 93540, Note_on_c, 14, 43, 100
19, 93597, Note_on_c, 14, 43, 0
19, 93600, Note_on_c, 14, 47, 100
19, 93717, Note_on_c, 14, 47, 0
19, 93720, Note_on_c, 14, 35, 100
19, 93777, Note_on_c, 14, 35, 0
19, 93780, Note_on_c, 14, 40, 100
19, 93897, Note_on_c, 14, 40, 0
19, 93900, Note_on_c, 14, 28, 100
19, 93957, Note_on_c, 14, 28, 0
19, 93960, Note_on_c, 14, 28, 100
19, 94077, Note_on_c, 14, 28, 0
19, 94080, Note_on_c, 14, 40, 100
19, 94137, Note_on_c, 14, 40, 0
19, 94140, Note_on_c, 14, 40, 100
19, 94257, Note_on_c, 14, 40, 0
19, 94260, Note_on_c, 14, 28, 100
19, 94317, Note_on_c, 14, 28, 0
19, 94320, Note_on_c, 14, 28, 100
19, 94437, Note_on_c, 14, 28, 0
19, 94440, Note_on_c, 14, 40, 100
19, 94497, Note_on_c, 14, 40, 0
19, 94500, Note_on_c, 14, 39, 100
19, 94617, Note_on_c, 14, 39, 0
19, 94620, Note_on_c, 14, 27, 100
19, 94677, Note_on_c, 14, 27, 0
19, 94680, Note_on_c, 14, 27, 100
19, 94797, Note_on_c, 14, 27, 0
19, 94800, Note_on_c, 14, 39, 100
19, 94857, Note_on_c, 14, 39, 0
19, 94860, Note_on_c, 14, 38, 100
19, 94977, Note_on_c, 14, 38, 0
19, 94980, Note_on_c, 14, 26, 100
19, 95037, Note_on_c, 14, 26, 0
19, 95040, Note_on_c, 14, 26, 100
19, 95157, Note_on_c, 14, 26, 0
19, 95160, Note_on_c, 14, 38, 100
19, 95217, Note_on_c, 14, 38, 0
19, 95220, Note_on_c, 14, 36, 100
19, 95337, Note_on_c, 14, 36, 0
19, 95340, Note_on_c, 14, 24, 100
19, 95397, Note_on_c, 14, 24, 0
19, 95400, Note_on_c, 14, 24, 100
19, 95517, Note_on_c, 14, 24, 0
19, 95520, Note_on_c, 14, 36, 100
19, 95577, Note_on_c, 14, 36, 0
19, 95580, Note_on_c, 14, 35, 100
19, 95697, Note_on_c, 14, 35, 0
19, 95700, Note_on_c, 14, 47, 100
19, 95757, Note_on_c, 14, 47, 0
19, 95760, Note_on_c, 14, 47, 100
19, 95877, Note_on_c, 14, 47, 0
19, 95880, Note_on_c, 14, 39, 100
19, 95937, Note_on_c, 14, 39, 0
19, 95940, Note_on_c, 14, 40, 100
19, 96057, Note_on_c, 14, 40, 0
19, 96060, Note_on_c, 14, 38, 100
19, 96117, Note_on_c, 14, 38, 0
19, 96120, Note_on_c, 14, 36, 100
19, 96237, Note_on_c, 14, 36, 0
19, 96240, Note_on_c, 14, 36, 100
19, 96297, Note_on_c, 14, 36, 0
19, 96300, Note_on_c, 14, 35, 100
19, 96417, Note_on_c, 14, 35, 0
19, 96420, Note_on_c, 14, 47, 100
19, 96477, Note_on_c, 14, 47, 0
19, 96480, Note_on_c, 14, 47, 100
19, 96597, Note_on_c, 14, 47, 0
19, 96600, Note_on_c, 14, 35, 100
19, 96657, Note_on_c, 14, 35, 0
19, 96660, Note_on_c, 14, 35, 100
19, 96777, Note_on_c, 14, 35, 0
19, 96780, Note_on_c, 14, 47, 100
19, 96837, Note_on_c, 14, 47, 0
19, 96840, Note_on_c, 14, 47, 100
19, 96957, Note_on_c, 14, 47, 0
19, 96960, Note_on_c, 14, 35, 100
19, 97017, Note_on_c, 14, 35, 0
19, 97020, Note_on_c, 14, 39, 100
19, 97137, Note_on_c, 14, 39, 0
19, 97140, Note_on_c, 14, 27, 100
19, 97197, Note_on_c, 14, 27, 0
19, 97200, Note_on_c, 14, 27, 100
19, 97317, Note_on_c, 14, 27, 0
19, 97320, Note_on_c, 14, 39, 100
19, 97377, Note_on_c, 14, 39, 0
19, 97380, Note_on_c, 14, 38, 100
19, 97497, Note_on_c, 14, 38, 0
19, 97500, Note_on_c, 14, 26, 100
19, 97557, Note_on_c, 14, 26, 0
19, 97560, Note_on_c, 14, 26, 100
19, 97677, Note_on_c, 14, 26, 0
19, 97680, Note_on_c, 14, 38, 100
19, 97737, Note_on_c, 14, 38, 0
19, 97740, Note_on_c, 14, 37, 100
19, 97857, Note_on_c, 14, 37, 0
19, 97860, Note_on_c, 14, 25, 100
19, 97917, Note_on_c, 14, 25, 0
19, 97920, Note_on_c, 14, 25, 100
19, 98037, Note_on_c, 14, 25, 0
19, 98040, Note_on_c, 14, 37, 100
19, 98097, Note_on_c, 14, 37, 0
19, 98100, Note_on_c, 14, 42, 100
19, 98217, Note_on_c, 14, 42, 0
19, 98220, Note_on_c, 14, 30, 100
19, 98277, Note_on_c, 14, 30, 0
19, 98280, Note_on_c, 14, 30, 100
19, 98397, Note_on_c, 14, 30, 0
19, 98400, Note_on_c, 14, 46, 100
19, 98457, Note_on_c, 14, 46, 0
19, 98460, Note_on_c, 14, 47, 100
19, 98577, Note_on_c, 14, 47, 0
19, 98580, Note_on_c, 14, 38, 100
19, 98637, Note_on_c, 14, 38, 0
19, 98640, Note_on_c, 14, 40, 100
19, 98757, Note_on_c, 14, 40, 0
19, 98760, Note_on_c, 14, 42, 100
19, 98817, Note_on_c, 14, 42, 0
19, 98820, Note_on_c, 14, 47, 100
19, 98937, Note_on_c, 14, 47, 0
19, 98940, Note_on_c, 14, 35, 100
19, 98997, Note_on_c, 14, 35, 0
19, 99000, Note_on_c, 14, 35, 100
19, 99117, Note_on_c, 14, 35, 0
19, 99120, Note_on_c, 14, 47, 100
19, 99177, Note_on_c, 14, 47, 0
19, 99180, Note_on_c, 14, 47, 100
19, 99297, Note_on_c, 14, 47, 0
19, 99300, Note_on_c, 14, 35, 100
19, 99357, Note_on_c, 14, 35, 0
19, 99360, Note_on_c, 14, 35, 100
19, 99477, Note_on_c, 14, 35, 0
19, 99480, Note_on_c, 14, 47, 100
19, 99537, Note_on_c, 14, 47, 0
19, 99540, Note_on_c, 14, 46, 100
19, 99657, Note_on_c, 14, 46, 0
19, 99660, Note_on_c, 14, 34, 100
19, 99717, Note_on_c, 14, 34, 0
19, 99720, Note_on_c, 14, 34, 100
19, 99837, Note_on_c, 14, 34, 0
19, 99840, Note_on_c, 14, 46, 100
19, 99897, Note_on_c, 14, 46, 0
19, 99900, Note_on_c, 14, 45, 100
19, 100017, Note_on_c, 14, 45, 0
19, 100020, Note_on_c, 14, 33, 100
19, 100077, Note_on_c, 14, 33, 0
19, 100080, Note_on_c, 14, 33, 100
19, 100197, Note_on_c, 14, 33, 0
19, 100200, Note_on_c, 14, 45, 100
19, 100257, Note_on_c, 14, 45, 0
19, 100260, Note_on_c, 14, 43, 100
19, 100377, Note_on_c, 14, 43, 0
19, 100380, Note_on_c, 14, 31, 100
19, 100437, Note_on_c, 14, 31, 0
19, 100440, Note_on_c, 14, 31, 100
19, 100557, Note_on_c, 14, 31, 0
19, 100560, Note_on_c, 14, 43, 100
19, 100617, Note_on_c, 14, 43, 0
19, 100620, Note_on_c, 14, 42, 100
19, 100737, Note_on_c, 14, 42, 0
19, 100740, Note_on_c, 14, 30, 100
19, 100797, Note_on_c, 14, 30, 0
19, 100800, Note_on_c, 14, 30, 100
19, 100917, Note_on_c, 14, 30, 0
19, 100920, Note_on_c, 14, 46, 100
19, 100977, Note_on_c, 14, 46, 0
19, 100980, Note_on_c, 14, 47, 100
19, 101097, Note_on_c, 14, 47, 0
19, 101100, Note_on_c, 14, 38, 100
19, 101157, Note_on_c, 14, 38, 0
19, 101160, Note_on_c, 14, 42, 100
19, 101277, Note_on_c, 14, 42, 0
19, 101280, Note_on_c, 14, 30, 100
19, 101337, Note_on_c, 14, 30, 0
19, 101340, Note_on_c, 14, 35, 100
19, 101457, Note_on_c, 14, 35, 0
19, 101460, Note_on_c, 14, 47, 100
19, 101517, Note_on_c, 14, 47, 0
19, 101520, Note_on_c, 14, 47, 100
19, 101637, Note_on_c, 14, 47, 0
19, 101640, Note_on_c, 14, 35, 100
19, 101697, Note_on_c, 14, 35, 0
19, 101700, Note_on_c, 14, 40, 100
19, 101817, Note_on_c, 14, 40, 0
19, 101820, Note_on_c, 14, 28, 100
19, 101877, Note_on_c, 14, 28, 0
19, 101880, Note_on_c, 14, 28, 100
19, 101997, Note_on_c, 14, 28, 0
19, 102000, Note_on_c, 14, 40, 100
19, 102057, Note_on_c, 14, 40, 0
19, 102060, Note_on_c, 14, 45, 100
19, 102177, Note_on_c, 14, 45, 0
19, 102180, Note_on_c, 14, 33, 100
19, 102237, Note_on_c, 14, 33, 0
19, 102240, Note_on_c, 14, 33, 100
19, 102357, Note_on_c, 14, 33, 0
19, 102360, Note_on_c, 14, 45, 100
19, 102417, Note_on_c, 14, 45, 0
19, 102420, Note_on_c, 14, 47, 100
19, 102537, Note_on_c, 14, 47, 0
19, 102540, Note_on_c, 14, 35, 100
19, 102597, Note_on_c, 14, 35, 0
19, 102600, Note_on_c, 14, 35, 100
19, 102717, Note_on_c, 14, 35, 0
19, 102720, Note_on_c, 14, 47, 100
19, 102777, Note_on_c, 14, 47, 0
19, 102780, Note_on_c, 14, 40, 100
19, 102897, Note_on_c, 14, 40, 0
19, 102900, Note_on_c, 14, 28, 100
19, 102957, Note_on_c, 14, 28, 0
19, 102960, Note_on_c, 14, 28, 100
19, 103077, Note_on_c, 14, 28, 0
19, 103080, Note_on_c, 14, 40, 100
19, 103137, Note_on_c, 14, 40, 0
19, 103140, Note_on_c, 14, 45, 100
19, 103257, Note_on_c, 14, 45, 0
19, 103260, Note_on_c, 14, 33, 100
19, 103317, Note_on_c, 14, 33, 0
19, 103320, Note_on_c, 14, 33, 100
19, 103437, Note_on_c, 14, 33, 0
19, 103440, Note_on_c, 14, 45, 100
19, 103497, Note_on_c, 14, 45, 0
19, 103500, Note_on_c, 14, 50, 100
19, 103617, Note_on_c, 14, 50, 0
19, 103620, Note_on_c, 14, 38, 100
19, 103677, Note_on_c, 14, 38, 0
19, 103680, Note_on_c, 14, 38, 100
19, 103797, Note_on_c, 14, 38, 0
19, 103800, Note_on_c, 14, 50, 100
19, 103857, Note_on_c, 14, 50, 0
19, 103860, Note_on_c, 14, 50, 100
19, 103977, Note_on_c, 14, 50, 0
19, 103980, Note_on_c, 14, 38, 100
19, 104037, Note_on_c, 14, 38, 0
19, 104040, Note_on_c, 14, 38, 100
19, 104157, Note_on_c, 14, 38, 0
19, 104160, Note_on_c, 14, 50, 100
19, 104217, Note_on_c, 14, 50, 0
19, 104220, Note_on_c, 14, 49, 100
19, 104337, Note_on_c, 14, 49, 0
19, 104340, Note_on_c, 14, 37, 100
19, 104397, Note_on_c, 14, 37, 0
19, 104400, Note_on_c, 14, 37, 100
19, 104517, Note_on_c, 14, 37, 0
19, 104520, Note_on_c, 14, 49, 100
19, 104577, Note_on_c, 14, 49, 0
19, 104580, Note_on_c, 14, 50, 100
19, 104697, Note_on_c, 14, 50, 0
19, 104700, Note_on_c, 14, 38, 100
19, 104757, Note_on_c, 14, 38, 0
19, 104760, Note_on_c, 14, 26, 100
19, 104877, Note_on_c, 14, 26, 0
19, 104880, Note_on_c, 14, 38, 100
19, 104937, Note_on_c, 14, 38, 0
19, 104940, Note_on_c, 14, 40, 100
19, 105057, Note_on_c, 14, 40, 0
19, 105060, Note_on_c, 14, 28, 100
19, 105117, Note_on_c, 14, 28, 0
19, 105120, Note_on_c, 14, 28, 100
19, 105237, Note_on_c, 14, 28, 0
19, 105240, Note_on_c, 14, 40, 100
19, 105297, Note_on_c, 14, 40, 0
19, 105300, Note_on_c, 14, 40, 100
19, 105417, Note_on_c, 14, 40, 0
19, 105420, Note_on_c, 14, 28, 100
19, 105477, Note_on_c, 14, 28, 0
19, 105480, Note_on_c, 14, 28, 100
19, 105597, Note_on_c, 14, 28, 0
19, 105600, Note_on_c, 14, 40, 100
19, 105657, Note_on_c, 14, 40, 0
19, 105660, Note_on_c, 14, 40, 100
19, 105777, Note_on_c, 14, 40, 0
19, 105780, Note_on_c, 14, 28, 100
19, 105837, Note_on_c, 14, 28, 0
19, 105840, Note_on_c, 14, 28, 100
19, 105957, Note_on_c, 14, 28, 0
19, 105960, Note_on_c, 14, 40, 100
19, 106017, Note_on_c, 14, 40, 0
19, 106020, Note_on_c, 14, 40, 100
19, 106137, Note_on_c, 14, 40, 0
19, 106140, Note_on_c, 14, 28, 100
19, 106197, Note_on_c, 14, 28, 0
19, 106200, Note_on_c, 14, 28, 100
19, 106317, Note_on_c, 14, 28, 0
19, 106320, Note_on_c, 14, 40, 100
19, 106377, Note_on_c, 14, 40, 0
19, 106380, Note_on_c, 14, 43, 100
19, 106497, Note_on_c, 14, 43, 0
19, 106500, Note_on_c, 14, 31, 100
19, 106557, Note_on_c, 14, 31, 0
19, 106560, Note_on_c, 14, 31, 100
19, 106677, Note_on_c, 14, 31, 0
19, 106680, Note_on_c, 14, 43, 100
19, 106737, Note_on_c, 14, 43, 0
19, 106740, Note_on_c, 14, 41, 100
19, 106857, Note_on_c, 14, 41, 0
19, 106860, Note_on_c, 14, 29, 100
19, 106917, Note_on_c, 14, 29, 0
19, 106920, Note_on_c, 14, 29, 100
19, 107037, Note_on_c, 14, 29, 0
19, 107040, Note_on_c, 14, 41, 100
19, 107097, Note_on_c, 14, 41, 0
19, 107100, Note_on_c, 14, 40, 100
19, 107217, Note_on_c, 14, 40, 0
19, 107220, Note_on_c, 14, 28, 100
19, 107277, Note_on_c, 14, 28, 0
19, 107280, Note_on_c, 14, 28, 100
19, 107397, Note_on_c, 14, 28, 0
19, 107400, Note_on_c, 14, 44, 100
19, 107457, Note_on_c, 14, 44, 0
19, 107460, Note_on_c, 14, 45, 100
19, 107577, Note_on_c, 14, 45, 0
19, 107580, Note_on_c, 14, 36, 100
19, 107637, Note_on_c, 14, 36, 0
19, 107640, Note_on_c, 14, 40, 100
19, 107757, Note_on_c, 14, 40, 0
19, 107760, Note_on_c, 14, 28, 100
19, 107817, Note_on_c, 14, 28, 0
19, 107820, Note_on_c, 14, 45, 100
19, 107937, Note_on_c, 14, 45, 0
19, 107940, Note_on_c, 14, 33, 100
19, 107997, Note_on_c, 14, 33, 0
19, 108000, Note_on_c, 14, 33, 100
19, 108117, Note_on_c, 14, 33, 0
19, 108120, Note_on_c, 14, 45, 100
19, 108177, Note_on_c, 14, 45, 0
19, 108180, Note_on_c, 14, 47, 100
19, 108297, Note_on_c, 14, 47, 0
19, 108300, Note_on_c, 14, 35, 100
19, 108357, Note_on_c, 14, 35, 0
19, 108360, Note_on_c, 14, 35, 100
19, 108477, Note_on_c, 14, 35, 0
19, 108480, Note_on_c, 14, 47, 100
19, 108537, Note_on_c, 14, 47, 0
19, 108540, Note_on_c, 14, 40, 100
19, 108657, Note_on_c, 14, 40, 0
19, 108660, Note_on_c, 14, 28, 100
19, 108717, Note_on_c, 14, 28, 0
19, 108720, Note_on_c, 14, 28, 100
19, 108837, Note_on_c, 14, 28, 0
19, 108840, Note_on_c, 14, 40, 100
19, 108897, Note_on_c, 14, 40, 0
19, 108900, Note_on_c, 14, 42, 100
19, 109017, Note_on_c, 14, 42, 0
19, 109020, Note_on_c, 14, 30, 100
19, 109077, Note_on_c, 14, 30, 0
19, 109080, Note_on_c, 14, 30, 100
19, 109197, Note_on_c, 14, 30, 0
19, 109200, Note_on_c, 14, 42, 100
19, 109257, Note_on_c, 14, 42, 0
19, 109260, Note_on_c, 14, 47, 100
19, 109377, Note_on_c, 14, 47, 0
19, 109380, Note_on_c, 14, 35, 100
19, 109437, Note_on_c, 14, 35, 0
19, 109440, Note_on_c, 14, 35, 100
19, 109557, Note_on_c, 14, 35, 0
19, 109560, Note_on_c, 14, 47, 100
19, 109617, Note_on_c, 14, 47, 0
19, 109620, Note_on_c, 14, 47, 100
19, 109737, Note_on_c, 14, 47, 0
19, 109740, Note_on_c, 14, 35, 100
19, 109797, Note_on_c, 14, 35, 0
19, 109800, Note_on_c, 14, 35, 100
19, 109917, Note_on_c, 14, 35, 0
19, 109920, Note_on_c, 14, 47, 100
19, 109977, Note_on_c, 14, 47, 0
19, 109980, Note_on_c, 14, 40, 100
19, 110097, Note_on_c, 14, 40, 0
19, 110100, Note_on_c, 14, 28, 100
19, 110157, Note_on_c, 14, 28, 0
19, 110160, Note_on_c, 14, 28, 100
19, 110277, Note_on_c, 14, 28, 0
19, 110280, Note_on_c, 14, 40, 100
19, 110337, Note_on_c, 14, 40, 0
19, 110340, Note_on_c, 14, 40, 100
19, 110457, Note_on_c, 14, 40, 0
19, 110460, Note_on_c, 14, 28, 100
19, 110517, Note_on_c, 14, 28, 0
19, 110520, Note_on_c, 14, 28, 100
19, 110637, Note_on_c, 14, 28, 0
19, 110640, Note_on_c, 14, 40, 100
19, 110697, Note_on_c, 14, 40, 0
19, 110700, Note_on_c, 14, 39, 100
19, 110817, Note_on_c, 14, 39, 0
19, 110820, Note_on_c, 14, 27, 100
19, 110877, Note_on_c, 14, 27, 0
19, 110880, Note_on_c, 14, 27, 100
19, 110997, Note_on_c, 14, 27, 0
19, 111000, Note_on_c, 14, 39, 100
19, 111057, Note_on_c, 14, 39, 0
19, 111060, Note_on_c, 14, 38, 100
19, 111177, Note_on_c, 14, 38, 0
19, 111180, Note_on_c, 14, 26, 100
19, 111237, Note_on_c, 14, 26, 0
19, 111240, Note_on_c, 14, 26, 100
19, 111357, Note_on_c, 14, 26, 0
19, 111360, Note_on_c, 14, 38, 100
19, 111417, Note_on_c, 14, 38, 0
19, 111420, Note_on_c, 14, 36, 100
19, 111537, Note_on_c, 14, 36, 0
19, 111540, Note_on_c, 14, 24, 100
19, 111597, Note_on_c, 14, 24, 0
19, 111600, Note_on_c, 14, 24, 100
19, 111717, Note_on_c, 14, 24, 0
19, 111720, Note_on_c, 14, 36, 100
19, 111777, Note_on_c, 14, 36, 0
19, 111780, Note_on_c, 14, 35, 100
19, 111897, Note_on_c, 14, 35, 0
19, 111900, Note_on_c, 14, 47, 100
19, 111957, Note_on_c, 14, 47, 0
19, 111960, Note_on_c, 14, 47, 100
19, 112077, Note_on_c, 14, 47, 0
19, 112080, Note_on_c, 14, 39, 100
19, 112137, Note_on_c, 14, 39, 0
19, 112140, Note_on_c, 14, 40, 100
19, 112257, Note_on_c, 14, 40, 0
19, 112260, Note_on_c, 14, 31, 100
19, 112317, Note_on_c, 14, 31, 0
19, 112320, Note_on_c, 14, 33, 100
19, 112437, Note_on_c, 14, 33, 0
19, 112440, Note_on_c, 14, 35, 100
19, 112497, Note_on_c, 14, 35, 0
19, 112500, Note_on_c, 14, 36, 100
19, 112557, Note_on_c, 14, 36, 0
19, 112560, Note_on_c, 14, 36, 100
19, 112617, Note_on_c, 14, 36, 0
19, 112620, Note_on_c, 14, 36, 100
19, 112677, Note_on_c, 14, 36, 0
19, 112680, Note_on_c, 14, 33, 100
19, 112737, Note_on_c, 14, 33, 0
19, 112740, Note_on_c, 14, 33, 100
19, 112797, Note_on_c, 14, 33, 0
19, 112800, Note_on_c, 14, 33, 100
19, 112857, Note_on_c, 14, 33, 0
19, 112860, Note_on_c, 14, 31, 100
19, 112917, Note_on_c, 14, 31, 0
19, 112920, Note_on_c, 14, 31, 100
19, 112977, Note_on_c, 14, 31, 0
19, 112980, Note_on_c, 14, 31, 100
19, 113037, Note_on_c, 14, 31, 0
19, 113040, Note_on_c, 14, 36, 100
19, 113097, Note_on_c, 14, 36, 0
19, 113100, Note_on_c, 14, 36, 100
19, 113157, Note_on_c, 14, 36, 0
19, 113160, Note_on_c, 14, 36, 100
19, 113217, Note_on_c, 14, 36, 0
19, 113220, Note_on_c, 14, 35, 100
19, 113277, Note_on_c, 14, 35, 0
19, 113280, Note_on_c, 14, 35, 100
19, 113337, Note_on_c, 14, 35, 0
19, 113340, Note_on_c, 14, 35, 100
19, 113397, Note_on_c, 14, 35, 0
19, 113400, Note_on_c, 14, 35, 100
19, 113457, Note_on_c, 14, 35, 0
19, 113460, Note_on_c, 14, 35, 100
19, 113517, Note_on_c, 14, 35, 0
19, 113520, Note_on_c, 14, 35, 100
19, 113577, Note_on_c, 14, 35, 0
19, 113580, Note_on_c, 14, 40, 100
19, 113697, Note_on_c, 14, 40, 0
19, 113700, Note_on_c, 14, 28, 100
19, 113757, Note_on_c, 14, 28, 0
19, 113760, Note_on_c, 14, 28, 100
19, 113877, Note_on_c, 14, 28, 0
19, 113880, Note_on_c, 14, 40, 100
19, 113937, Note_on_c, 14, 40, 0
19, 113940, Note_on_c, 14, 40, 100
19, 114057, Note_on_c, 14, 40, 0
19, 114060, Note_on_c, 14, 28, 100
19, 114117, Note_on_c, 14, 28, 0
19, 114120, Note_on_c, 14, 28, 100
19, 114237, Note_on_c, 14, 28, 0
19, 114240, Note_on_c, 14, 40, 100
19, 114297, Note_on_c, 14, 40, 0
19, 114300, Note_on_c, 14, 39, 100
19, 114417, Note_on_c, 14, 39, 0
19, 114420, Note_on_c, 14, 27, 100
19, 114477, Note_on_c, 14, 27, 0
19, 114480, Note_on_c, 14, 27, 100
19, 114597, Note_on_c, 14, 27, 0
19, 114600, Note_on_c, 14, 39, 100
19, 114657, Note_on_c, 14, 39, 0
19, 114660, Note_on_c, 14, 38, 100
19, 114777, Note_on_c, 14, 38, 0
19, 114780, Note_on_c, 14, 26, 100
19, 114837, Note_on_c, 14, 26, 0
19, 114840, Note_on_c, 14, 26, 100
19, 114957, Note_on_c, 14, 26, 0
19, 114960, Note_on_c, 14, 38, 100
19, 115017, Note_on_c, 14, 38, 0
19, 115020, Note_on_c, 14, 36, 100
19, 115137, Note_on_c, 14, 36, 0
19, 115140, Note_on_c, 14, 24, 100
19, 115197, Note_on_c, 14, 24, 0
19, 115200, Note_on_c, 14, 24, 100
19, 115317, Note_on_c, 14, 24, 0
19, 115320, Note_on_c, 14, 36, 100
19, 115377, Note_on_c, 14, 36, 0
19, 115380, Note_on_c, 14, 35, 100
19, 115497, Note_on_c, 14, 35, 0
19, 115500, Note_on_c, 14, 47, 100
19, 115557, Note_on_c, 14, 47, 0
19, 115560, Note_on_c, 14, 47, 100
19, 115677, Note_on_c, 14, 47, 0
19, 115680, Note_on_c, 14, 39, 100
19, 115737, Note_on_c, 14, 39, 0
19, 115740, Note_on_c, 14, 40, 100
19, 115857, Note_on_c, 14, 40, 0
19, 115860, Note_on_c, 14, 43, 100
19, 115917, Note_on_c, 14, 43, 0
19, 115920, Note_on_c, 14, 47, 100
19, 116037, Note_on_c, 14, 47, 0
19, 116040, Note_on_c, 14, 35, 100
19, 116097, Note_on_c, 14, 35, 0
19, 116100, Note_on_c, 14, 40, 100
19, 116337, Note_on_c, 14, 40, 0
19, 117180, Control_c, 14, 0, 0
19, 117180, Note_on_c, 14, 43, 100
19, 117220, Note_on_c, 14, 43, 0
19, 117240, Note_on_c, 14, 31, 100
19, 117280, Note_on_c, 14, 31, 0
19, 117330, Note_on_c, 14, 43, 100
19, 117350, Note_on_c, 14, 43, 0
19, 117360, Note_on_c, 14, 43, 100
19, 117380, Note_on_c, 14, 43, 0
19, 117390, Note_on_c, 14, 43, 100
19, 117410, Note_on_c, 14, 43, 0
19, 117420, Note_on_c, 14, 41, 100
19, 117460, Note_on_c, 14, 41, 0
19, 117480, Note_on_c, 14, 29, 100
19, 117520, Note_on_c, 14, 29, 0
19, 117570, Note_on_c, 14, 41, 100
19, 117590, Note_on_c, 14, 41, 0
19, 117600, Note_on_c, 14, 41, 100
19, 117620, Note_on_c, 14, 41, 0
19, 117630, Note_on_c, 14, 41, 100
19, 117650, Note_on_c, 14, 41, 0
19, 117660, Note_on_c, 14, 40, 100
19, 117700, Note_on_c, 14, 40, 0
19, 117720, Note_on_c, 14, 28, 100
19, 117760, Note_on_c, 14, 28, 0
19, 117810, Note_on_c, 14, 40, 100
19, 117830, Note_on_c, 14, 40, 0
19, 117840, Note_on_c, 14, 40, 100
19, 117860, Note_on_c, 14, 40, 0
19, 117870, Note_on_c, 14, 40, 100
19, 117890, Note_on_c, 14, 40, 0
19, 117900, Note_on_c, 14, 35, 100
19, 117940, Note_on_c, 14, 35, 0
19, 117960, Note_on_c, 14, 47, 100
19, 118000, Note_on_c, 14, 47, 0
19, 118050, Note_on_c, 14, 35, 100
19, 118070, Note_on_c, 14, 35, 0
19, 118080, Note_on_c, 14, 35, 100
19, 118100, Note_on_c, 14, 35, 0
19, 118110, Note_on_c, 14, 35, 100
19, 118130, Note_on_c, 14, 35, 0
19, 118140, Note_on_c, 14, 36, 100
19, 118180, Note_on_c, 14, 36, 0
19, 118200, Note_on_c, 14, 48, 100
19, 118240, Note_on_c, 14, 48, 0
19, 118290, Note_on_c, 14, 36, 100
19, 118310, Note_on_c, 14, 36, 0
19, 118320, Note_on_c, 14, 36, 100
19, 118340, Note_on_c, 14, 36, 0
19, 118350, Note_on_c, 14, 36, 100
19, 118370, Note_on_c, 14, 36, 0
19, 118380, Note_on_c, 14, 45, 100
19, 118420, Note_on_c, 14, 45, 0
19, 118440, Note_on_c, 14, 33, 100
19, 118480, Note_on_c, 14, 33, 0
19, 118530, Note_on_c, 14, 42, 100
19, 118550, Note_on_c, 14, 42, 0
19, 118560, Note_on_c, 14, 42, 100
19, 118580, Note_on_c, 14, 42, 0
19, 118590, Note_on_c, 14, 42, 100
19, 118610, Note_on_c, 14, 42, 0
19, 118620, Note_on_c, 14, 43, 100
19, 118678, Note_on_c, 14, 43, 0
19, 118680, Note_on_c, 14, 31, 100
19, 118738, Note_on_c, 14, 31, 0
19, 118770, Note_on_c, 14, 47, 100
19, 118798, Note_on_c, 14, 47, 0
19, 118800, Note_on_c, 14, 47, 100
19, 118828, Note_on_c, 14, 47, 0
19, 118830, Note_on_c, 14, 47, 100
19, 118858, Note_on_c, 14, 47, 0
19, 118860, Note_on_c, 14, 40, 100
19, 118918, Note_on_c, 14, 40, 0
19, 118920, Note_on_c, 14, 28, 100
19, 118978, Note_on_c, 14, 28, 0
19, 119010, Note_on_c, 14, 45, 100
19, 119038, Note_on_c, 14, 45, 0
19, 119040, Note_on_c, 14, 45, 100
19, 119068, Note_on_c, 14, 45, 0
19, 119070, Note_on_c, 14, 45, 100
19, 119098, Note_on_c, 14, 45, 0
19, 119100, Note_on_c, 14, 38, 100
19, 119158, Note_on_c, 14, 38, 0
19, 119160, Note_on_c, 14, 26, 100
19, 119218, Note_on_c, 14, 26, 0
19, 119250, Note_on_c, 14, 38, 100
19, 119278, Note_on_c, 14, 38, 0
19, 119280, Note_on_c, 14, 38, 100
19, 119308, Note_on_c, 14, 38, 0
19, 119310, Note_on_c, 14, 38, 100
19, 119338, Note_on_c, 14, 38, 0
19, 119340, Note_on_c, 14, 36, 100
19, 119398, Note_on_c, 14, 36, 0
19, 119400, Note_on_c, 14, 24, 100
19, 119458, Note_on_c, 14, 24, 0
19, 119490, Note_on_c, 14, 36, 100
19, 119518, Note_on_c, 14, 36, 0
19, 119520, Note_on_c, 14, 36, 100
19, 119548, Note_on_c, 14, 36, 0
19, 119550, Note_on_c, 14, 36, 100
19, 119578, Note_on_c, 14, 36, 0
19, 119580, Note_on_c, 14, 35, 100
19, 119638, Note_on_c, 14, 35, 0
19, 119640, Note_on_c, 14, 47, 100
19, 119698, Note_on_c, 14, 47, 0
19, 119730, Note_on_c, 14, 35, 100
19, 119758, Note_on_c, 14, 35, 0
19, 119760, Note_on_c, 14, 35, 100
19, 119788, Note_on_c, 14, 35, 0
19, 119790, Note_on_c, 14, 35, 100
19, 119818, Note_on_c, 14, 35, 0
19, 119820, Note_on_c, 14, 30, 100
19, 119878, Note_on_c, 14, 30, 0
19, 119880, Note_on_c, 14, 42, 100
19, 119938, Note_on_c, 14, 42, 0
19, 119970, Note_on_c, 14, 42, 100
19, 119998, Note_on_c, 14, 42, 0
19, 120000, Note_on_c, 14, 42, 100
19, 120028, Note_on_c, 14, 42, 0
19, 120030, Note_on_c, 14, 42, 100
19, 120058, Note_on_c, 14, 42, 0
19, 120060, Note_on_c, 14, 43, 100
19, 120118, Note_on_c, 14, 43, 0
19, 120120, Note_on_c, 14, 31, 100
19, 120178, Note_on_c, 14, 31, 0
19, 120210, Note_on_c, 14, 38, 100
19, 120238, Note_on_c, 14, 38, 0
19, 120240, Note_on_c, 14, 38, 100
19, 120268, Note_on_c, 14, 38, 0
19, 120270, Note_on_c, 14, 38, 100
19, 120298, Note_on_c, 14, 38, 0
19, 120300, Note_on_c, 14, 40, 100
19, 120358, Note_on_c, 14, 40, 0
19, 120360, Note_on_c, 14, 28, 100
19, 120418, Note_on_c, 14, 28, 0
19, 120450, Note_on_c, 14, 33, 100
19, 120478, Note_on_c, 14, 33, 0
19, 120480, Note_on_c, 14, 33, 100
19, 120508, Note_on_c, 14, 33, 0
19, 120510, Note_on_c, 14, 33, 100
19, 120538, Note_on_c, 14, 33, 0
19, 120540, Note_on_c, 14, 38, 100
19, 120598, Note_on_c, 14, 38, 0
19, 120600, Note_on_c, 14, 26, 100
19, 120658, Note_on_c, 14, 26, 0
19, 120690, Note_on_c, 14, 31, 100
19, 120718, Note_on_c, 14, 31, 0
19, 120720, Note_on_c, 14, 31, 100
19, 120748, Note_on_c, 14, 31, 0
19, 120750, Note_on_c, 14, 31, 100
19, 120778, Note_on_c, 14, 31, 0
19, 120780, Note_on_c, 14, 36, 100
19, 120838, Note_on_c, 14, 36, 0
19, 120840, Note_on_c, 14, 24, 100
19, 120898, Note_on_c, 14, 24, 0
19, 120930, Note_on_c, 14, 38, 100
19, 120958, Note_on_c, 14, 38, 0
19, 120960, Note_on_c, 14, 38, 100
19, 120988, Note_on_c, 14, 38, 0
19, 120990, Note_on_c, 14, 38, 100
19, 121018, Note_on_c, 14, 38, 0
19, 121020, Note_on_c, 14, 43, 100
19, 121078, Note_on_c, 14, 43, 0
19, 121080, Note_on_c, 14, 31, 100
19, 121138, Note_on_c, 14, 31, 0
19, 121170, Note_on_c, 14, 43, 100
19, 121198, Note_on_c, 14, 43, 0
19, 121200, Note_on_c, 14, 43, 100
19, 121228, Note_on_c, 14, 43, 0
19, 121230, Note_on_c, 14, 43, 100
19, 121258, Note_on_c, 14, 43, 0
19, 121260, Note_on_c, 14, 41, 100
19, 121318, Note_on_c, 14, 41, 0
19, 121320, Note_on_c, 14, 29, 100
19, 121378, Note_on_c, 14, 29, 0
19, 121410, Note_on_c, 14, 41, 100
19, 121438, Note_on_c, 14, 41, 0
19, 121440, Note_on_c, 14, 41, 100
19, 121468, Note_on_c, 14, 41, 0
19, 121470, Note_on_c, 14, 41, 100
19, 121498, Note_on_c, 14, 41, 0
19, 121500, Note_on_c, 14, 40, 100
19, 121558, Note_on_c, 14, 40, 0
19, 121560, Note_on_c, 14, 28, 100
19, 121618, Note_on_c, 14, 28, 0
19, 121650, Note_on_c, 14, 40, 100
19, 121678, Note_on_c, 14, 40, 0
19, 121680, Note_on_c, 14, 40, 100
19, 121708, Note_on_c, 14, 40, 0
19, 121710, Note_on_c, 14, 40, 100
19, 121738, Note_on_c, 14, 40, 0
19, 121740, Note_on_c, 14, 35, 100
19, 121798, Note_on_c, 14, 35, 0
19, 121800, Note_on_c, 14, 47, 100
19, 121858, Note_on_c, 14, 47, 0
19, 121890, Note_on_c, 14, 35, 100
19, 121918, Note_on_c, 14, 35, 0
19, 121920, Note_on_c, 14, 35, 100
19, 121948, Note_on_c, 14, 35, 0
19, 121950, Note_on_c, 14, 35, 100
19, 121978, Note_on_c, 14, 35, 0
19, 121980, Note_on_c, 14, 36, 100
19, 122038, Note_on_c, 14, 36, 0
19, 122040, Note_on_c, 14, 24, 100
19, 122098, Note_on_c, 14, 24, 0
19, 122130, Note_on_c, 14, 43, 100
19, 122158, Note_on_c, 14, 43, 0
19, 122160, Note_on_c, 14, 43, 100
19, 122188, Note_on_c, 14, 43, 0
19, 122190, Note_on_c, 14, 43, 100
19, 122218, Note_on_c, 14, 43, 0
19, 122220, Note_on_c, 14, 45, 100
19, 122278, Note_on_c, 14, 45, 0
19, 122280, Note_on_c, 14, 33, 100
19, 122338, Note_on_c, 14, 33, 0
19, 122370, Note_on_c, 14, 38, 100
19, 122398, Note_on_c, 14, 38, 0
19, 122400, Note_on_c, 14, 38, 100
19, 122428, Note_on_c, 14, 38, 0
19, 122430, Note_on_c, 14, 38, 100
19, 122458, Note_on_c, 14, 38, 0
19, 122460, Note_on_c, 14, 43, 100
19, 122518, Note_on_c, 14, 43, 0
19, 122520, Note_on_c, 14, 31, 100
19, 122578, Note_on_c, 14, 31, 0
19, 122610, Note_on_c, 14, 48, 100
19, 122638, Note_on_c, 14, 48, 0
19, 122640, Note_on_c, 14, 48, 100
19, 122668, Note_on_c, 14, 48, 0
19, 122670, Note_on_c, 14, 48, 100
19, 122698, Note_on_c, 14, 48, 0
19, 122700, Note_on_c, 14, 47, 100
19, 122758, Note_on_c, 14, 47, 0
19, 122760, Note_on_c, 14, 35, 100
19, 122818, Note_on_c, 14, 35, 0
19, 122850, Note_on_c, 14, 45, 100
19, 122878, Note_on_c, 14, 45, 0
19, 122880, Note_on_c, 14, 45, 100
19, 122908, Note_on_c, 14, 45, 0
19, 122910, Note_on_c, 14, 45, 100
19, 122938, Note_on_c, 14, 45, 0
19, 122940, Note_on_c, 14, 38, 100
19, 122998, Note_on_c, 14, 38, 0
19, 123000, Note_on_c, 14, 26, 100
19, 123058, Note_on_c, 14, 26, 0
19, 123090, Note_on_c, 14, 38, 100
19, 123118, Note_on_c, 14, 38, 0
19, 123120, Note_on_c, 14, 38, 100
19, 123148, Note_on_c, 14, 38, 0
19, 123150, Note_on_c, 14, 38, 100
19, 123178, Note_on_c, 14, 38, 0
19, 123180, Note_on_c, 14, 36, 100
19, 123238, Note_on_c, 14, 36, 0
19, 123240, Note_on_c, 14, 24, 100
19, 123298, Note_on_c, 14, 24, 0
19, 123330, Note_on_c, 14, 36, 100
19, 123358, Note_on_c, 14, 36, 0
19, 123360, Note_on_c, 14, 36, 100
19, 123388, Note_on_c, 14, 36, 0
19, 123390, Note_on_c, 14, 36, 100
19, 123418, Note_on_c, 14, 36, 0
19, 123420, Note_on_c, 14, 35, 100
19, 123478, Note_on_c, 14, 35, 0
19, 123480, Note_on_c, 14, 47, 100
19, 123538, Note_on_c, 14, 47, 0
19, 123570, Note_on_c, 14, 35, 100
19, 123598, Note_on_c, 14, 35, 0
19, 123600, Note_on_c, 14, 35, 100
19, 123628, Note_on_c, 14, 35, 0
19, 123630, Note_on_c, 14, 35, 100
19, 123658, Note_on_c, 14, 35, 0
19, 123660, Note_on_c, 14, 30, 100
19, 123718, Note_on_c, 14, 30, 0
19, 123720, Note_on_c, 14, 42, 100
19, 123778, Note_on_c, 14, 42, 0
19, 123810, Note_on_c, 14, 30, 100
19, 123838, Note_on_c, 14, 30, 0
19, 123840, Note_on_c, 14, 30, 100
19, 123868, Note_on_c, 14, 30, 0
19, 123870, Note_on_c, 14, 30, 100
19, 123898, Note_on_c, 14, 30, 0
19, 123900, Note_on_c, 14, 31, 100
19, 123958, Note_on_c, 14, 31, 0
19, 123960, Note_on_c, 14, 43, 100
19, 124018, Note_on_c, 14, 43, 0
19, 124050, Note_on_c, 14, 38, 100
19, 124078, Note_on_c, 14, 38, 0
19, 124080, Note_on_c, 14, 38, 100
19, 124108, Note_on_c, 14, 38, 0
19, 124110, Note_on_c, 14, 38, 100
19, 124138, Note_on_c, 14, 38, 0
19, 124140, Note_on_c, 14, 40, 100
19, 124198, Note_on_c, 14, 40, 0
19, 124200, Note_on_c, 14, 28, 100
19, 124258, Note_on_c, 14, 28, 0
19, 124290, Note_on_c, 14, 33, 100
19, 124318, Note_on_c, 14, 33, 0
19, 124320, Note_on_c, 14, 33, 100
19, 124348, Note_on_c, 14, 33, 0
19, 124350, Note_on_c, 14, 33, 100
19, 124378, Note_on_c, 14, 33, 0
19, 124380, Note_on_c, 14, 38, 100
19, 124438, Note_on_c, 14, 38, 0
19, 124440, Note_on_c, 14, 26, 100
19, 124498, Note_on_c, 14, 26, 0
19, 124530, Note_on_c, 14, 43, 100
19, 124558, Note_on_c, 14, 43, 0
19, 124560, Note_on_c, 14, 43, 100
19, 124588, Note_on_c, 14, 43, 0
19, 124590, Note_on_c, 14, 43, 100
19, 124618, Note_on_c, 14, 43, 0
19, 124620, Note_on_c, 14, 42, 100
19, 124678, Note_on_c, 14, 42, 0
19, 124680, Note_on_c, 14, 30, 100
19, 124738, Note_on_c, 14, 30, 0
19, 124770, Note_on_c, 14, 40, 100
19, 124798, Note_on_c, 14, 40, 0
19, 124800, Note_on_c, 14, 40, 100
19, 124828, Note_on_c, 14, 40, 0
19, 124830, Note_on_c, 14, 40, 100
19, 124858, Note_on_c, 14, 40, 0
19, 124860, Note_on_c, 14, 45, 100
19, 124918, Note_on_c, 14, 45, 0
19, 124920, Note_on_c, 14, 33, 100
19, 124978, Note_on_c, 14, 33, 0
19, 125010, Note_on_c, 14, 45, 100
19, 125038, Note_on_c, 14, 45, 0
19, 125040, Note_on_c, 14, 45, 100
19, 125068, Note_on_c, 14, 45, 0
19, 125070, Note_on_c, 14, 45, 100
19, 125098, Note_on_c, 14, 45, 0
19, 125100, Note_on_c, 14, 43, 100
19, 125158, Note_on_c, 14, 43, 0
19, 125160, Note_on_c, 14, 31, 100
19, 125218, Note_on_c, 14, 31, 0
19, 125250, Note_on_c, 14, 43, 100
19, 125278, Note_on_c, 14, 43, 0
19, 125280, Note_on_c, 14, 43, 100
19, 125308, Note_on_c, 14, 43, 0
19, 125310, Note_on_c, 14, 43, 100
19, 125338, Note_on_c, 14, 43, 0
19, 125340, Note_on_c, 14, 42, 100
19, 125398, Note_on_c, 14, 42, 0
19, 125400, Note_on_c, 14, 30, 100
19, 125458, Note_on_c, 14, 30, 0
19, 125490, Note_on_c, 14, 42, 100
19, 125518, Note_on_c, 14, 42, 0
19, 125520, Note_on_c, 14, 42, 100
19, 125548, Note_on_c, 14, 42, 0
19, 125550, Note_on_c, 14, 42, 100
19, 125578, Note_on_c, 14, 42, 0
19, 125580, Note_on_c, 14, 37, 100
19, 125638, Note_on_c, 14, 37, 0
19, 125640, Note_on_c, 14, 25, 100
19, 125698, Note_on_c, 14, 25, 0
19, 125730, Note_on_c, 14, 37, 100
19, 125758, Note_on_c, 14, 37, 0
19, 125760, Note_on_c, 14, 37, 100
19, 125788, Note_on_c, 14, 37, 0
19, 125790, Note_on_c, 14, 37, 100
19, 125818, Note_on_c, 14, 37, 0
19, 125820, Note_on_c, 14, 38, 100
19, 125878, Note_on_c, 14, 38, 0
19, 125880, Note_on_c, 14, 26, 100
19, 125938, Note_on_c, 14, 26, 0
19, 125970, Note_on_c, 14, 33, 100
19, 125998, Note_on_c, 14, 33, 0
19, 126000, Note_on_c, 14, 33, 100
19, 126028, Note_on_c, 14, 33, 0
19, 126030, Note_on_c, 14, 33, 100
19, 126058, Note_on_c, 14, 33, 0
19, 126060, Note_on_c, 14, 35, 100
19, 126118, Note_on_c, 14, 35, 0
19, 126120, Note_on_c, 14, 47, 100
19, 126178, Note_on_c, 14, 47, 0
19, 126210, Note_on_c, 14, 28, 100
19, 126238, Note_on_c, 14, 28, 0
19, 126240, Note_on_c, 14, 28, 100
19, 126268, Note_on_c, 14, 28, 0
19, 126270, Note_on_c, 14, 28, 100
19, 126298, Note_on_c, 14, 28, 0
19, 126300, Note_on_c, 14, 33, 100
19, 126358, Note_on_c, 14, 33, 0
19, 126360, Note_on_c, 14, 45, 100
19, 126418, Note_on_c, 14, 45, 0
19, 126450, Note_on_c, 14, 42, 100
19, 126478, Note_on_c, 14, 42, 0
19, 126480, Note_on_c, 14, 42, 100
19, 126508, Note_on_c, 14, 42, 0
19, 126510, Note_on_c, 14, 42, 100
19, 126538, Note_on_c, 14, 42, 0
19, 126540, Note_on_c, 14, 43, 100
19, 126598, Note_on_c, 14, 43, 0
19, 126600, Note_on_c, 14, 31, 100
19, 126658, Note_on_c, 14, 31, 0
19, 126690, Note_on_c, 14, 40, 100
19, 126718, Note_on_c, 14, 40, 0
19, 126720, Note_on_c, 14, 40, 100
19, 126748, Note_on_c, 14, 40, 0
19, 126750, Note_on_c, 14, 40, 100
19, 126778, Note_on_c, 14, 40, 0
19, 126780, Note_on_c, 14, 38, 100
19, 126838, Note_on_c, 14, 38, 0
19, 126840, Note_on_c, 14, 26, 100
19, 126898, Note_on_c, 14, 26, 0
19, 126930, Note_on_c, 14, 50, 100
19, 126958, Note_on_c, 14, 50, 0
19, 126960, Note_on_c, 14, 50, 100
19, 126988, Note_on_c, 14, 50, 0
19, 126990, Note_on_c, 14, 50, 100
19, 127018, Note_on_c, 14, 50, 0
19, 127020, Note_on_c, 14, 48, 100
19, 127078, Note_on_c, 14, 48, 0
19, 127080, Note_on_c, 14, 36, 100
19, 127138, Note_on_c, 14, 36, 0
19, 127170, Note_on_c, 14, 48, 100
19, 127198, Note_on_c, 14, 48, 0
19, 127200, Note_on_c, 14, 48, 100
19, 127228, Note_on_c, 14, 48, 0
19, 127230, Note_on_c, 14, 48, 100
19, 127258, Note_on_c, 14, 48, 0
19, 127260, Note_on_c, 14, 47, 100
19, 127318, Note_on_c, 14, 47, 0
19, 127320, Note_on_c, 14, 35, 100
19, 127378, Note_on_c, 14, 35, 0
19, 127410, Note_on_c, 14, 47, 100
19, 127438, Note_on_c, 14, 47, 0
19, 127440, Note_on_c, 14, 47, 100
19, 127468, Note_on_c, 14, 47, 0
19, 127470, Note_on_c, 14, 47, 100
19, 127498, Note_on_c, 14, 47, 0
19, 127500, Note_on_c, 14, 42, 100
19, 127558, Note_on_c, 14, 42, 0
19, 127560, Note_on_c, 14, 33, 100
19, 127618, Note_on_c, 14, 33, 0
19, 127650, Note_on_c, 14, 42, 100
19, 127678, Note_on_c, 14, 42, 0
19, 127680, Note_on_c, 14, 42, 100
19, 127708, Note_on_c, 14, 42, 0
19, 127710, Note_on_c, 14, 42, 100
19, 127738, Note_on_c, 14, 42, 0
19, 127740, Note_on_c, 14, 43, 100
19, 127798, Note_on_c, 14, 43, 0
19, 127800, Note_on_c, 14, 31, 100
19, 127858, Note_on_c, 14, 31, 0
19, 127890, Note_on_c, 14, 38, 100
19, 127918, Note_on_c, 14, 38, 0
19, 127920, Note_on_c, 14, 38, 100
19, 127948, Note_on_c, 14, 38, 0
19, 127950, Note_on_c, 14, 38, 100
19, 127978, Note_on_c, 14, 38, 0
19, 127980, Note_on_c, 14, 40, 100
19, 128038, Note_on_c, 14, 40, 0
19, 128040, Note_on_c, 14, 28, 100
19, 128098, Note_on_c, 14, 28, 0
19, 128130, Note_on_c, 14, 33, 100
19, 128158, Note_on_c, 14, 33, 0
19, 128160, Note_on_c, 14, 33, 100
19, 128188, Note_on_c, 14, 33, 0
19, 128190, Note_on_c, 14, 33, 100
19, 128218, Note_on_c, 14, 33, 0
19, 128220, Note_on_c, 14, 38, 100
19, 128278, Note_on_c, 14, 38, 0
19, 128280, Note_on_c, 14, 26, 100
19, 128338, Note_on_c, 14, 26, 0
19, 128370, Note_on_c, 14, 43, 100
19, 128398, Note_on_c, 14, 43, 0
19, 128400, Note_on_c, 14, 43, 100
19, 128428, Note_on_c, 14, 43, 0
19, 128430, Note_on_c, 14, 43, 100
19, 128458, Note_on_c, 14, 43, 0
19, 128460, Note_on_c, 14, 42, 100
19, 128518, Note_on_c, 14, 42, 0
19, 128520, Note_on_c, 14, 30, 100
19, 128578, Note_on_c, 14, 30, 0
19, 128610, Note_on_c, 14, 40, 100
19, 128638, Note_on_c, 14, 40, 0
19, 128640, Note_on_c, 14, 40, 100
19, 128668, Note_on_c, 14, 40, 0
19, 128670, Note_on_c, 14, 40, 100
19, 128698, Note_on_c, 14, 40, 0
19, 128700, Note_on_c, 14, 45, 100
19, 128758, Note_on_c, 14, 45, 0
19, 128760, Note_on_c, 14, 33, 100
19, 128818, Note_on_c, 14, 33, 0
19, 128850, Note_on_c, 14, 42, 100
19, 128878, Note_on_c, 14, 42, 0
19, 128880, Note_on_c, 14, 42, 100
19, 128908, Note_on_c, 14, 42, 0
19, 128910, Note_on_c, 14, 42, 100
19, 128938, Note_on_c, 14, 42, 0
19, 128940, Note_on_c, 14, 40, 100
19, 128998, Note_on_c, 14, 40, 0
19, 129000, Note_on_c, 14, 28, 100
19, 129058, Note_on_c, 14, 28, 0
19, 129090, Note_on_c, 14, 37, 100
19, 129118, Note_on_c, 14, 37, 0
19, 129120, Note_on_c, 14, 37, 100
19, 129148, Note_on_c, 14, 37, 0
19, 129150, Note_on_c, 14, 37, 100
19, 129178, Note_on_c, 14, 37, 0
19, 129180, Note_on_c, 14, 35, 100
19, 129238, Note_on_c, 14, 35, 0
19, 129240, Note_on_c, 14, 47, 100
19, 129298, Note_on_c, 14, 47, 0
19, 129330, Note_on_c, 14, 43, 100
19, 129358, Note_on_c, 14, 43, 0
19, 129360, Note_on_c, 14, 43, 100
19, 129388, Note_on_c, 14, 43, 0
19, 129390, Note_on_c, 14, 43, 100
19, 129418, Note_on_c, 14, 43, 0
19, 129420, Note_on_c, 14, 42, 100
19, 129478, Note_on_c, 14, 42, 0
19, 129480, Note_on_c, 14, 30, 100
19, 129538, Note_on_c, 14, 30, 0
19, 129570, Note_on_c, 14, 35, 100
19, 129598, Note_on_c, 14, 35, 0
19, 129600, Note_on_c, 14, 38, 100
19, 129628, Note_on_c, 14, 38, 0
19, 129630, Note_on_c, 14, 35, 100
19, 129658, Note_on_c, 14, 35, 0
19, 129660, Note_on_c, 14, 40, 100
19, 129718, Note_on_c, 14, 40, 0
19, 129720, Note_on_c, 14, 28, 100
19, 129778, Note_on_c, 14, 28, 0
19, 129810, Note_on_c, 14, 33, 100
19, 129838, Note_on_c, 14, 33, 0
19, 129840, Note_on_c, 14, 37, 100
19, 129868, Note_on_c, 14, 37, 0
19, 129870, Note_on_c, 14, 40, 100
19, 129898, Note_on_c, 14, 40, 0
19, 129900, Note_on_c, 14, 45, 100
19, 129958, Note_on_c, 14, 45, 0
19, 129960, Note_on_c, 14, 33, 100
19, 130018, Note_on_c, 14, 33, 0
19, 130290, Note_on_c, 14, 40, 100
19, 130318, Note_on_c, 14, 40, 0
19, 130320, Note_on_c, 14, 37, 100
19, 130348, Note_on_c, 14, 37, 0
19, 130350, Note_on_c, 14, 33, 100
19, 130378, Note_on_c, 14, 33, 0
19, 130380, Note_on_c, 14, 29, 100
19, 130438, Note_on_c, 14, 29, 0
19, 130440, Note_on_c, 14, 41, 100
19, 130498, Note_on_c, 14, 41, 0
19, 130740, Note_on_c, 14, 30, 100
19, 130978, Note_on_c, 14, 30, 0
19, 130980, Note_on_c, 14, 30, 100
19, 131098, Note_on_c, 14, 30, 0
19, 131100, Note_on_c, 14, 31, 100
19, 131338, Note_on_c, 14, 31, 0
19, 131340, Note_on_c, 14, 32, 100
19, 131578, Note_on_c, 14, 32, 0
19, 131580, Note_on_c, 14, 30, 100
19, 132058, Note_on_c, 14, 30, 0
19, 132060, Note_on_c, 14, 35, 100
19, 132178, Note_on_c, 14, 35, 0
19, 132180, Note_on_c, 14, 35, 100
19, 132418, Note_on_c, 14, 35, 0
19, 132420, Note_on_c, 14, 28, 100
19, 132538, Note_on_c, 14, 28, 0
19, 132540, Note_on_c, 14, 33, 100
19, 132778, Note_on_c, 14, 33, 0
19, 132780, Note_on_c, 14, 32, 100
19, 133018, Note_on_c, 14, 32, 0
19, 133020, Note_on_c, 14, 33, 100
19, 133498, Note_on_c, 14, 33, 0
19, 133500, Note_on_c, 14, 26, 100
19, 133978, Note_on_c, 14, 26, 0
19, 134460, Control_c, 14, 0, 0
19, 134820, Note_on_c, 14, 30, 100
19, 134938, Note_on_c, 14, 30, 0
19, 134940, Note_on_c, 14, 33, 100
19, 135058, Note_on_c, 14, 33, 0
19, 135060, Note_on_c, 14, 37, 100
19, 135178, Note_on_c, 14, 37, 0
19, 135180, Note_on_c, 14, 42, 100
19, 135358, Note_on_c, 14, 42, 0
19, 135360, Note_on_c, 14, 44, 100
19, 135388, Note_on_c, 14, 44, 0
19, 135390, Note_on_c, 14, 45, 100
19, 135418, Note_on_c, 14, 45, 0
19, 135420, Note_on_c, 14, 44, 100
19, 135448, Note_on_c, 14, 44, 0
19, 135450, Note_on_c, 14, 42, 100
19, 135478, Note_on_c, 14, 42, 0
19, 135480, Note_on_c, 14, 41, 100
19, 135508, Note_on_c, 14, 41, 0
19, 135510, Note_on_c, 14, 39, 100
19, 135538, Note_on_c, 14, 39, 0
19, 135540, Note_on_c, 14, 37, 100
19, 135658, Note_on_c, 14, 37, 0
19, 135660, Note_on_c, 14, 41, 100
19, 135778, Note_on_c, 14, 41, 0
19, 135780, Note_on_c, 14, 44, 100
19, 135898, Note_on_c, 14, 44, 0
19, 135900, Note_on_c, 14, 47, 100
19, 136078, Note_on_c, 14, 47, 0
19, 136080, Note_on_c, 14, 49, 100
19, 136108, Note_on_c, 14, 49, 0
19, 136110, Note_on_c, 14, 50, 100
19, 136138, Note_on_c, 14, 50, 0
19, 136140, Note_on_c, 14, 49, 100
19, 136168, Note_on_c, 14, 49, 0
19, 136170, Note_on_c, 14, 47, 100
19, 136198, Note_on_c, 14, 47, 0
19, 136200, Note_on_c, 14, 45, 100
19, 136228, Note_on_c, 14, 45, 0
19, 136230, Note_on_c, 14, 44, 100
19, 136258, Note_on_c, 14, 44, 0
19, 136260, Note_on_c, 14, 42, 100
19, 136340, Note_on_c, 14, 42, 0
19, 136380, Note_on_c, 14, 40, 100
19, 136460, Note_on_c, 14, 40, 0
19, 136500, Note_on_c, 14, 38, 100
19, 136580, Note_on_c, 14, 38, 0
19, 136620, Note_on_c, 14, 37, 100
19, 136660, Note_on_c, 14, 37, 0
19, 136680, Note_on_c, 14, 41, 100
19, 136700, Note_on_c, 14, 41, 0
19, 136710, Note_on_c, 14, 44, 100
19, 136730, Note_on_c, 14, 44, 0
19, 136740, Note_on_c, 14, 49, 100
19, 136780, Note_on_c, 14, 49, 0
19, 136800, Note_on_c, 14, 37, 100
19, 136820, Note_on_c, 14, 37, 0
19, 136830, Note_on_c, 14, 49, 100
19, 136850, Note_on_c, 14, 49, 0
19, 136860, Note_on_c, 14, 47, 100
19, 136900, Note_on_c, 14, 47, 0
19, 136920, Note_on_c, 14, 37, 100
19, 136940, Note_on_c, 14, 37, 0
19, 136950, Note_on_c, 14, 47, 100
19, 136970, Note_on_c, 14, 47, 0
19, 136980, Note_on_c, 14, 45, 100
19, 137020, Note_on_c, 14, 45, 0
19, 137040, Note_on_c, 14, 37, 100
19, 137060, Note_on_c, 14, 37, 0
19, 137070, Note_on_c, 14, 45, 100
19, 137090, Note_on_c, 14, 45, 0
19, 137100, Note_on_c, 14, 44, 100
19, 137140, Note_on_c, 14, 44, 0
19, 137160, Note_on_c, 14, 37, 100
19, 137180, Note_on_c, 14, 37, 0
19, 137190, Note_on_c, 14, 44, 100
19, 137210, Note_on_c, 14, 44, 0
19, 137220, Note_on_c, 14, 42, 100
19, 137260, Note_on_c, 14, 42, 0
19, 137280, Note_on_c, 14, 37, 100
19, 137300, Note_on_c, 14, 37, 0
19, 137310, Note_on_c, 14, 42, 100
19, 137330, Note_on_c, 14, 42, 0
19, 137340, Note_on_c, 14, 41, 100
19, 137488, Note_on_c, 14, 41, 0
19, 137490, Note_on_c, 14, 37, 100
19, 137518, Note_on_c, 14, 37, 0
19, 137520, Note_on_c, 14, 39, 100
19, 137548, Note_on_c, 14, 39, 0
19, 137550, Note_on_c, 14, 41, 100
19, 137578, Note_on_c, 14, 41, 0
19, 137580, Note_on_c, 14, 42, 100
19, 137608, Note_on_c, 14, 42, 0
19, 137610, Note_on_c, 14, 44, 100
19, 137638, Note_on_c, 14, 44, 0
19, 137640, Note_on_c, 14, 45, 100
19, 137668, Note_on_c, 14, 45, 0
19, 137670, Note_on_c, 14, 42, 100
19, 137698, Note_on_c, 14, 42, 0
19, 137700, Note_on_c, 14, 35, 100
19, 137818, Note_on_c, 14, 35, 0
19, 138060, Note_on_c, 14, 37, 100
19, 138140, Note_on_c, 14, 37, 0
19, 138420, Note_on_c, 14, 38, 100
19, 138500, Note_on_c, 14, 38, 0
19, 138780, Note_on_c, 14, 29, 100
19, 138840, Note_on_c, 14, 29, 0
19, 138870, Note_on_c, 14, 32, 100
19, 138880, Note_on_c, 14, 32, 0
19, 138885, Note_on_c, 14, 33, 100
19, 138895, Note_on_c, 14, 33, 0
19, 138900, Note_on_c, 14, 35, 100
19, 138940, Note_on_c, 14, 35, 0
19, 139080, Note_on_c, 14, 32, 100
19, 139120, Note_on_c, 14, 32, 0
19, 139140, Note_on_c, 14, 33, 100
19, 139200, Note_on_c, 14, 33, 0
19, 139230, Note_on_c, 14, 35, 100
19, 139250, Note_on_c, 14, 35, 0
19, 139260, Note_on_c, 14, 37, 100
19, 139340, Note_on_c, 14, 37, 0
19, 139380, Note_on_c, 14, 25, 100
19, 139440, Note_on_c, 14, 25, 0
19, 139470, Note_on_c, 14, 42, 100
19, 139490, Note_on_c, 14, 42, 0
19, 139500, Note_on_c, 14, 42, 100
19, 139620, Note_on_c, 14, 42, 0
19, 139680, Note_on_c, 14, 40, 100
19, 139700, Note_on_c, 14, 40, 0
19, 139710, Note_on_c, 14, 38, 100
19, 139730, Note_on_c, 14, 38, 0
19, 139740, Note_on_c, 14, 37, 100
19, 139760, Note_on_c, 14, 37, 0
19, 139770, Note_on_c, 14, 35, 100
19, 139790, Note_on_c, 14, 35, 0
19, 139800, Note_on_c, 14, 33, 100
19, 139820, Note_on_c, 14, 33, 0
19, 139830, Note_on_c, 14, 32, 100
19, 139850, Note_on_c, 14, 32, 0
19, 139860, Note_on_c, 14, 30, 100
19, 139978, Note_on_c, 14, 30, 0
19, 139980, Note_on_c, 14, 33, 100
19, 140098, Note_on_c, 14, 33, 0
19, 140100, Note_on_c, 14, 37, 100
19, 140218, Note_on_c, 14, 37, 0
19, 140220, Note_on_c, 14, 42, 100
19, 140398, Note_on_c, 14, 42, 0
19, 140400, Note_on_c, 14, 44, 100
19, 140428, Note_on_c, 14, 44, 0
19, 140430, Note_on_c, 14, 45, 100
19, 140458, Note_on_c, 14, 45, 0
19, 140460, Note_on_c, 14, 44, 100
19, 140488, Note_on_c, 14, 44, 0
19, 140490, Note_on_c, 14, 42, 100
19, 140518, Note_on_c, 14, 42, 0
19, 140520, Note_on_c, 14, 41, 100
19, 140548, Note_on_c, 14, 41, 0
19, 140550, Note_on_c, 14, 39, 100
19, 140578, Note_on_c, 14, 39, 0
19, 140580, Note_on_c, 14, 37, 100
19, 140698, Note_on_c, 14, 37, 0
19, 140700, Note_on_c, 14, 41, 100
19, 140818, Note_on_c, 14, 41, 0
19, 140820, Note_on_c, 14, 44, 100
19, 140938, Note_on_c, 14, 44, 0
19, 140940, Note_on_c, 14, 47, 100
19, 141118, Note_on_c, 14, 47, 0
19, 141120, Note_on_c, 14, 49, 100
19, 141148, Note_on_c, 14, 49, 0
19, 141150, Note_on_c, 14, 50, 100
19, 141178, Note_on_c, 14, 50, 0
19, 141180, Note_on_c, 14, 49, 100
19, 141208, Note_on_c, 14, 49, 0
19, 141210, Note_on_c, 14, 47, 100
19, 141238, Note_on_c, 14, 47, 0
19, 141240, Note_on_c, 14, 45, 100
19, 141268, Note_on_c, 14, 45, 0
19, 141270, Note_on_c, 14, 44, 100
19, 141298, Note_on_c, 14, 44, 0
19, 141300, Note_on_c, 14, 42, 100
19, 141380, Note_on_c, 14, 42, 0
19, 141420, Note_on_c, 14, 40, 100
19, 141500, Note_on_c, 14, 40, 0
19, 141540, Note_on_c, 14, 38, 100
19, 141620, Note_on_c, 14, 38, 0
19, 141660, Note_on_c, 14, 37, 100
19, 141700, Note_on_c, 14, 37, 0
19, 141720, Note_on_c, 14, 41, 100
19, 141740, Note_on_c, 14, 41, 0
19, 141750, Note_on_c, 14, 44, 100
19, 141770, Note_on_c, 14, 44, 0
19, 141780, Note_on_c, 14, 49, 100
19, 141820, Note_on_c, 14, 49, 0
19, 141840, Note_on_c, 14, 37, 100
19, 141860, Note_on_c, 14, 37, 0
19, 141870, Note_on_c, 14, 49, 100
19, 141890, Note_on_c, 14, 49, 0
19, 141900, Note_on_c, 14, 47, 100
19, 141940, Note_on_c, 14, 47, 0
19, 141960, Note_on_c, 14, 37, 100
19, 141980, Note_on_c, 14, 37, 0
19, 141990, Note_on_c, 14, 47, 100
19, 142010, Note_on_c, 14, 47, 0
19, 142020, Note_on_c, 14, 45, 100
19, 142060, Note_on_c, 14, 45, 0
19, 142080, Note_on_c, 14, 37, 100
19, 142100, Note_on_c, 14, 37, 0
19, 142110, Note_on_c, 14, 45, 100
19, 142130, Note_on_c, 14, 45, 0
19, 142140, Note_on_c, 14, 44, 100
19, 142180, Note_on_c, 14, 44, 0
19, 142200, Note_on_c, 14, 37, 100
19, 142220, Note_on_c, 14, 37, 0
19, 142230, Note_on_c, 14, 44, 100
19, 142250, Note_on_c, 14, 44, 0
19, 142260, Note_on_c, 14, 42, 100
19, 142300, Note_on_c, 14, 42, 0
19, 142320, Note_on_c, 14, 37, 100
19, 142340, Note_on_c, 14, 37, 0
19, 142350, Note_on_c, 14, 42, 100
19, 142370, Note_on_c, 14, 42, 0
19, 142380, Note_on_c, 14, 41, 100
19, 142528, Note_on_c, 14, 41, 0
19, 142530, Note_on_c, 14, 39, 100
19, 142558, Note_on_c, 14, 39, 0
19, 142560, Note_on_c, 14, 37, 100
19, 142588, Note_on_c, 14, 37, 0
19, 142590, Note_on_c, 14, 39, 100
19, 142618, Note_on_c, 14, 39, 0
19, 142620, Note_on_c, 14, 41, 100
19, 142648, Note_on_c, 14, 41, 0
19, 142650, Note_on_c, 14, 42, 100
19, 142678, Note_on_c, 14, 42, 0
19, 142680, Note_on_c, 14, 44, 100
19, 142708, Note_on_c, 14, 44, 0
19, 142710, Note_on_c, 14, 41, 100
19, 142738, Note_on_c, 14, 41, 0
19, 142740, Note_on_c, 14, 42, 100
19, 142820, Note_on_c, 14, 42, 0
19, 142860, Note_on_c, 14, 30, 100
19, 142940, Note_on_c, 14, 30, 0
19, 142980, Note_on_c, 14, 42, 100
19, 143060, Note_on_c, 14, 42, 0
19, 143100, Note_on_c, 14, 44, 100
19, 143180, Note_on_c, 14, 44, 0
19, 143220, Note_on_c, 14, 32, 100
19, 143300, Note_on_c, 14, 32, 0
19, 143340, Note_on_c, 14, 44, 100
19, 143420, Note_on_c, 14, 44, 0
19, 143460, Note_on_c, 14, 45, 100
19, 143540, Note_on_c, 14, 45, 0
19, 143580, Note_on_c, 14, 33, 100
19, 143660, Note_on_c, 14, 33, 0
19, 143700, Note_on_c, 14, 45, 100
19, 143780, Note_on_c, 14, 45, 0
19, 143820, Note_on_c, 14, 47, 100
19, 143900, Note_on_c, 14, 47, 0
19, 143940, Note_on_c, 14, 35, 100
19, 144020, Note_on_c, 14, 35, 0
19, 144120, Note_on_c, 14, 35, 100
19, 144160, Note_on_c, 14, 35, 0
19, 144180, Note_on_c, 14, 37, 100
19, 144220, Note_on_c, 14, 37, 0
19, 144240, Note_on_c, 14, 33, 100
19, 144280, Note_on_c, 14, 33, 0
19, 144300, Note_on_c, 14, 40, 100
19, 144380, Note_on_c, 14, 40, 0
19, 144420, Note_on_c, 14, 28, 100
19, 144500, Note_on_c, 14, 28, 0
19, 144540, Note_on_c, 14, 33, 100
19, 144620, Note_on_c, 14, 33, 0
19, 144660, Note_on_c, 14, 37, 100
19, 144740, Note_on_c, 14, 37, 0
19, 144780, Note_on_c, 14, 40, 100
19, 144860, Note_on_c, 14, 40, 0
19, 144900, Note_on_c, 14, 45, 100
19, 145020, Note_on_c, 14, 45, 0
19, 145080, Note_on_c, 14, 47, 100
19, 145100, Note_on_c, 14, 47, 0
19, 145110, Note_on_c, 14, 49, 100
19, 145130, Note_on_c, 14, 49, 0
19, 145140, Note_on_c, 14, 47, 100
19, 145160, Note_on_c, 14, 47, 0
19, 145170, Note_on_c, 14, 45, 100
19, 145190, Note_on_c, 14, 45, 0
19, 145200, Note_on_c, 14, 44, 100
19, 145220, Note_on_c, 14, 44, 0
19, 145230, Note_on_c, 14, 42, 100
19, 145250, Note_on_c, 14, 42, 0
19, 145260, Note_on_c, 14, 40, 100
19, 145340, Note_on_c, 14, 40, 0
19, 145380, Note_on_c, 14, 32, 100
19, 145460, Note_on_c, 14, 32, 0
19, 145500, Note_on_c, 14, 35, 100
19, 145580, Note_on_c, 14, 35, 0
19, 145620, Note_on_c, 14, 28, 100
19, 145740, Note_on_c, 14, 28, 0
19, 145800, Note_on_c, 14, 40, 100
19, 145820, Note_on_c, 14, 40, 0
19, 145830, Note_on_c, 14, 42, 100
19, 145850, Note_on_c, 14, 42, 0
19, 145860, Note_on_c, 14, 40, 100
19, 145880, Note_on_c, 14, 40, 0
19, 145890, Note_on_c, 14, 38, 100
19, 145910, Note_on_c, 14, 38, 0
19, 145920, Note_on_c, 14, 37, 100
19, 145940, Note_on_c, 14, 37, 0
19, 145950, Note_on_c, 14, 35, 100
19, 145970, Note_on_c, 14, 35, 0
19, 145980, Note_on_c, 14, 33, 100
19, 146060, Note_on_c, 14, 33, 0
19, 146100, Note_on_c, 14, 32, 100
19, 146180, Note_on_c, 14, 32, 0
19, 146220, Note_on_c, 14, 30, 100
19, 146300, Note_on_c, 14, 30, 0
19, 146340, Note_on_c, 14, 28, 100
19, 146460, Note_on_c, 14, 28, 0
19, 146520, Note_on_c, 14, 40, 100
19, 146540, Note_on_c, 14, 40, 0
19, 146550, Note_on_c, 14, 42, 100
19, 146570, Note_on_c, 14, 42, 0
19, 146580, Note_on_c, 14, 40, 100
19, 146600, Note_on_c, 14, 40, 0
19, 146610, Note_on_c, 14, 38, 100
19, 146630, Note_on_c, 14, 38, 0
19, 146640, Note_on_c, 14, 37, 100
19, 146660, Note_on_c, 14, 37, 0
19, 146670, Note_on_c, 14, 35, 100
19, 146690, Note_on_c, 14, 35, 0
19, 146700, Note_on_c, 14, 33, 100
19, 146760, Note_on_c, 14, 33, 0
19, 146790, Note_on_c, 14, 38, 100
19, 146810, Note_on_c, 14, 38, 0
19, 146820, Note_on_c, 14, 40, 100
19, 146900, Note_on_c, 14, 40, 0
19, 146940, Note_on_c, 14, 28, 100
19, 147020, Note_on_c, 14, 28, 0
19, 147060, Note_on_c, 14, 33, 100
19, 147140, Note_on_c, 14, 33, 0
19, 147180, Note_on_c, 14, 37, 100
19, 147260, Note_on_c, 14, 37, 0
19, 147300, Note_on_c, 14, 40, 100
19, 147380, Note_on_c, 14, 40, 0
19, 147420, Note_on_c, 14, 30, 100
19, 147540, Note_on_c, 14, 30, 0
19, 147600, Note_on_c, 14, 42, 100
19, 147620, Note_on_c, 14, 42, 0
19, 147630, Note_on_c, 14, 43, 100
19, 147650, Note_on_c, 14, 43, 0
19, 147660, Note_on_c, 14, 42, 100
19, 147680, Note_on_c, 14, 42, 0
19, 147690, Note_on_c, 14, 40, 100
19, 147710, Note_on_c, 14, 40, 0
19, 147720, Note_on_c, 14, 38, 100
19, 147740, Note_on_c, 14, 38, 0
19, 147750, Note_on_c, 14, 37, 100
19, 147770, Note_on_c, 14, 37, 0
19, 147780, Note_on_c, 14, 35, 100
19, 147860, Note_on_c, 14, 35, 0
19, 147900, Note_on_c, 14, 42, 100
19, 147980, Note_on_c, 14, 42, 0
19, 148020, Note_on_c, 14, 47, 100
19, 148100, Note_on_c, 14, 47, 0
19, 148140, Note_on_c, 14, 41, 100
19, 148280, Note_on_c, 14, 41, 0
19, 148290, Note_on_c, 14, 42, 100
19, 148310, Note_on_c, 14, 42, 0
19, 148320, Note_on_c, 14, 41, 100
19, 148340, Note_on_c, 14, 41, 0
19, 148350, Note_on_c, 14, 39, 100
19, 148370, Note_on_c, 14, 39, 0
19, 148380, Note_on_c, 14, 37, 100
19, 148400, Note_on_c, 14, 37, 0
19, 148410, Note_on_c, 14, 35, 100
19, 148430, Note_on_c, 14, 35, 0
19, 148440, Note_on_c, 14, 33, 100
19, 148460, Note_on_c, 14, 33, 0
19, 148470, Note_on_c, 14, 32, 100
19, 148490, Note_on_c, 14, 32, 0
19, 148500, Note_on_c, 14, 30, 100
19, 148580, Note_on_c, 14, 30, 0
19, 148620, Note_on_c, 14, 28, 100
19, 148700, Note_on_c, 14, 28, 0
19, 148740, Note_on_c, 14, 26, 100
19, 148820, Note_on_c, 14, 26, 0
19, 148860, Note_on_c, 14, 25, 100
19, 148900, Note_on_c, 14, 25, 0
19, 148920, Note_on_c, 14, 37, 100
19, 148960, Note_on_c, 14, 37, 0
19, 148980, Note_on_c, 14, 41, 100
19, 149020, Note_on_c, 14, 41, 0
19, 149040, Note_on_c, 14, 44, 100
19, 149080, Note_on_c, 14, 44, 0
19, 149100, Note_on_c, 14, 41, 100
19, 149140, Note_on_c, 14, 41, 0
19, 149160, Note_on_c, 14, 37, 100
19, 149200, Note_on_c, 14, 37, 0
19, 149220, Note_on_c, 14, 25, 100
19, 149620, Note_on_c, 14, 25, 0
19, 149640, Note_on_c, 14, 44, 100
19, 149680, Note_on_c, 14, 44, 0
19, 149700, Note_on_c, 14, 45, 100
19, 149740, Note_on_c, 14, 45, 0
19, 149760, Note_on_c, 14, 49, 100
19, 149800, Note_on_c, 14, 49, 0
19, 149820, Note_on_c, 14, 45, 100
19, 149860, Note_on_c, 14, 45, 0
19, 149880, Note_on_c, 14, 42, 100
19, 149920, Note_on_c, 14, 42, 0
19, 149940, Note_on_c, 14, 35, 100
19, 150020, Note_on_c, 14, 35, 0
19, 150300, Note_on_c, 14, 37, 100
19, 150380, Note_on_c, 14, 37, 0
19, 150660, Note_on_c, 14, 38, 100
19, 150740, Note_on_c, 14, 38, 0
19, 151020, Note_on_c, 14, 29, 100
19, 151060, Note_on_c, 14, 29, 0
19, 151080, Note_on_c, 14, 37, 100
19, 151120, Note_on_c, 14, 37, 0
19, 151140, Note_on_c, 14, 41, 100
19, 151180, Note_on_c, 14, 41, 0
19, 151200, Note_on_c, 14, 44, 100
19, 151240, Note_on_c, 14, 44, 0
19, 151260, Note_on_c, 14, 41, 100
19, 151300, Note_on_c, 14, 41, 0
19, 151320, Note_on_c, 14, 37, 100
19, 151360, Note_on_c, 14, 37, 0
19, 151380, Note_on_c, 14, 42, 100
19, 151420, Note_on_c, 14, 42, 0
19, 151440, Note_on_c, 14, 45, 100
19, 151480, Note_on_c, 14, 45, 0
19, 151500, Note_on_c, 14, 49, 100
19, 151540, Note_on_c, 14, 49, 0
19, 151560, Note_on_c, 14, 47, 100
19, 151600, Note_on_c, 14, 47, 0
19, 151620, Note_on_c, 14, 49, 100
19, 151660, Note_on_c, 14, 49, 0
19, 151680, Note_on_c, 14, 37, 100
19, 151720, Note_on_c, 14, 37, 0
19, 151740, Note_on_c, 14, 38, 100
19, 151820, Note_on_c, 14, 38, 0
19, 151920, Note_on_c, 14, 38, 100
19, 151960, Note_on_c, 14, 38, 0
19, 151980, Note_on_c, 14, 37, 100
19, 152020, Note_on_c, 14, 37, 0
19, 152040, Note_on_c, 14, 35, 100
19, 152080, Note_on_c, 14, 35, 0
19, 152100, Note_on_c, 14, 34, 100
19, 152140, Note_on_c, 14, 34, 0
19, 152160, Note_on_c, 14, 30, 100
19, 152200, Note_on_c, 14, 30, 0
19, 152220, Note_on_c, 14, 34, 100
19, 152260, Note_on_c, 14, 34, 0
19, 152280, Note_on_c, 14, 37, 100
19, 152320, Note_on_c, 14, 37, 0
19, 152340, Note_on_c, 14, 34, 100
19, 152380, Note_on_c, 14, 34, 0
19, 152400, Note_on_c, 14, 30, 100
19, 152440, Note_on_c, 14, 30, 0
19, 152460, Note_on_c, 14, 42, 100
19, 152600, Note_on_c, 14, 42, 0
19, 152610, Note_on_c, 14, 40, 100
19, 152630, Note_on_c, 14, 40, 0
19, 152640, Note_on_c, 14, 42, 100
19, 152660, Note_on_c, 14, 42, 0
19, 152670, Note_on_c, 14, 43, 100
19, 152690, Note_on_c, 14, 43, 0
19, 152700, Note_on_c, 14, 42, 100
19, 152720, Note_on_c, 14, 42, 0
19, 152730, Note_on_c, 14, 40, 100
19, 152750, Note_on_c, 14, 40, 0
19, 152760, Note_on_c, 14, 38, 100
19, 152780, Note_on_c, 14, 38, 0
19, 152790, Note_on_c, 14, 37, 100
19, 152810, Note_on_c, 14, 37, 0
19, 152820, Note_on_c, 14, 35, 100
19, 152840, Note_on_c, 14, 35, 0
19, 152850, Note_on_c, 14, 47, 100
19, 152870, Note_on_c, 14, 47, 0
19, 152880, Note_on_c, 14, 42, 100
19, 152900, Note_on_c, 14, 42, 0
19, 152910, Note_on_c, 14, 38, 100
19, 152930, Note_on_c, 14, 38, 0
19, 152940, Note_on_c, 14, 35, 100
19, 153020, Note_on_c, 14, 35, 0
19, 153060, Note_on_c, 14, 32, 100
19, 153140, Note_on_c, 14, 32, 0
19, 153180, Note_on_c, 14, 37, 100
19, 153260, Note_on_c, 14, 37, 0
19, 153360, Note_on_c, 14, 38, 100
19, 153400, Note_on_c, 14, 38, 0
19, 153420, Note_on_c, 14, 37, 100
19, 153460, Note_on_c, 14, 37, 0
19, 153480, Note_on_c, 14, 35, 100
19, 153520, Note_on_c, 14, 35, 0
19, 153540, Note_on_c, 14, 33, 100
19, 153580, Note_on_c, 14, 33, 0
19, 153600, Note_on_c, 14, 30, 100
19, 153640, Note_on_c, 14, 30, 0
19, 153660, Note_on_c, 14, 37, 100
19, 153740, Note_on_c, 14, 37, 0
19, 153780, Note_on_c, 14, 25, 100
19, 153860, Note_on_c, 14, 25, 0
19, 153900, Note_on_c, 14, 30, 100
19, 154018, Note_on_c, 14, 30, 0
19, 154020, Note_on_c, 14, 33, 100
19, 154138, Note_on_c, 14, 33, 0
19, 154140, Note_on_c, 14, 37, 100
19, 154258, Note_on_c, 14, 37, 0
19, 154260, Note_on_c, 14, 42, 100
19, 154438, Note_on_c, 14, 42, 0
19, 154440, Note_on_c, 14, 44, 100
19, 154468, Note_on_c, 14, 44, 0
19, 154470, Note_on_c, 14, 45, 100
19, 154498, Note_on_c, 14, 45, 0
19, 154500, Note_on_c, 14, 44, 100
19, 154528, Note_on_c, 14, 44, 0
19, 154530, Note_on_c, 14, 42, 100
19, 154558, Note_on_c, 14, 42, 0
19, 154560, Note_on_c, 14, 41, 100
19, 154588, Note_on_c, 14, 41, 0
19, 154590, Note_on_c, 14, 39, 100
19, 154618, Note_on_c, 14, 39, 0
19, 154620, Note_on_c, 14, 37, 100
19, 154738, Note_on_c, 14, 37, 0
19, 154740, Note_on_c, 14, 41, 100
19, 154858, Note_on_c, 14, 41, 0
19, 154860, Note_on_c, 14, 44, 100
19, 154978, Note_on_c, 14, 44, 0
19, 154980, Note_on_c, 14, 47, 100
19, 155158, Note_on_c, 14, 47, 0
19, 155160, Note_on_c, 14, 49, 100
19, 155188, Note_on_c, 14, 49, 0
19, 155190, Note_on_c, 14, 50, 100
19, 155218, Note_on_c, 14, 50, 0
19, 155220, Note_on_c, 14, 49, 100
19, 155248, Note_on_c, 14, 49, 0
19, 155250, Note_on_c, 14, 47, 100
19, 155278, Note_on_c, 14, 47, 0
19, 155280, Note_on_c, 14, 45, 100
19, 155308, Note_on_c, 14, 45, 0
19, 155310, Note_on_c, 14, 44, 100
19, 155338, Note_on_c, 14, 44, 0
19, 155340, Note_on_c, 14, 42, 100
19, 155420, Note_on_c, 14, 42, 0
19, 155460, Note_on_c, 14, 40, 100
19, 155540, Note_on_c, 14, 40, 0
19, 155580, Note_on_c, 14, 38, 100
19, 155660, Note_on_c, 14, 38, 0
19, 155700, Note_on_c, 14, 37, 100
19, 155740, Note_on_c, 14, 37, 0
19, 155760, Note_on_c, 14, 41, 100
19, 155780, Note_on_c, 14, 41, 0
19, 155790, Note_on_c, 14, 44, 100
19, 155810, Note_on_c, 14, 44, 0
19, 155820, Note_on_c, 14, 49, 100
19, 155860, Note_on_c, 14, 49, 0
19, 155880, Note_on_c, 14, 37, 100
19, 155900, Note_on_c, 14, 37, 0
19, 155910, Note_on_c, 14, 49, 100
19, 155930, Note_on_c, 14, 49, 0
19, 155940, Note_on_c, 14, 47, 100
19, 155980, Note_on_c, 14, 47, 0
19, 156000, Note_on_c, 14, 37, 100
19, 156020, Note_on_c, 14, 37, 0
19, 156030, Note_on_c, 14, 47, 100
19, 156050, Note_on_c, 14, 47, 0
19, 156060, Note_on_c, 14, 45, 100
19, 156100, Note_on_c, 14, 45, 0
19, 156120, Note_on_c, 14, 37, 100
19, 156140, Note_on_c, 14, 37, 0
19, 156150, Note_on_c, 14, 45, 100
19, 156170, Note_on_c, 14, 45, 0
19, 156180, Note_on_c, 14, 44, 100
19, 156220, Note_on_c, 14, 44, 0
19, 156240, Note_on_c, 14, 37, 100
19, 156260, Note_on_c, 14, 37, 0
19, 156270, Note_on_c, 14, 44, 100
19, 156290, Note_on_c, 14, 44, 0
19, 156300, Note_on_c, 14, 42, 100
19, 156340, Note_on_c, 14, 42, 0
19, 156360, Note_on_c, 14, 37, 100
19, 156380, Note_on_c, 14, 37, 0
19, 156390, Note_on_c, 14, 42, 100
19, 156410, Note_on_c, 14, 42, 0
19, 156420, Note_on_c, 14, 41, 100
19, 156568, Note_on_c, 14, 41, 0
19, 156570, Note_on_c, 14, 37, 100
19, 156598, Note_on_c, 14, 37, 0
19, 156600, Note_on_c, 14, 39, 100
19, 156628, Note_on_c, 14, 39, 0
19, 156630, Note_on_c, 14, 41, 100
19, 156658, Note_on_c, 14, 41, 0
19, 156660, Note_on_c, 14, 42, 100
19, 156688, Note_on_c, 14, 42, 0
19, 156690, Note_on_c, 14, 44, 100
19, 156718, Note_on_c, 14, 44, 0
19, 156720, Note_on_c, 14, 45, 100
19, 156748, Note_on_c, 14, 45, 0
19, 156750, Note_on_c, 14, 42, 100
19, 156778, Note_on_c, 14, 42, 0
19, 156780, Note_on_c, 14, 35, 100
19, 156898, Note_on_c, 14, 35, 0
19, 157140, Note_on_c, 14, 37, 100
19, 157220, Note_on_c, 14, 37, 0
19, 157500, Note_on_c, 14, 38, 100
19, 157580, Note_on_c, 14, 38, 0
19, 157860, Note_on_c, 14, 29, 100
19, 157920, Note_on_c, 14, 29, 0
19, 157950, Note_on_c, 14, 32, 100
19, 157960, Note_on_c, 14, 32, 0
19, 157965, Note_on_c, 14, 33, 100
19, 157975, Note_on_c, 14, 33, 0
19, 157980, Note_on_c, 14, 35, 100
19, 158020, Note_on_c, 14, 35, 0
19, 158160, Note_on_c, 14, 32, 100
19, 158200, Note_on_c, 14, 32, 0
19, 158220, Note_on_c, 14, 33, 100
19, 158280, Note_on_c, 14, 33, 0
19, 158310, Note_on_c, 14, 35, 100
19, 158330, Note_on_c, 14, 35, 0
19, 158340, Note_on_c, 14, 37, 100
19, 158420, Note_on_c, 14, 37, 0
19, 158460, Note_on_c, 14, 25, 100
19, 158540, Note_on_c, 14, 25, 0
19, 158580, Note_on_c, 14, 30, 100
19, 158660, Note_on_c, 14, 30, 0
19, 159240, Control_c, 14, 0, 0
19, 159240, Program_c, 14, 45
19, 159300, Control_c, 14, 0, 0
19, 159300, Note_on_c, 14, 40, 100
19, 159360, Note_on_c, 14, 40, 0
19, 159420, Note_on_c, 14, 35, 100
19, 159480, Note_on_c, 14, 35, 0
19, 159540, Note_on_c, 14, 28, 100
19, 159600, Note_on_c, 14, 28, 0
19, 159660, Note_on_c, 14, 35, 100
19, 159720, Note_on_c, 14, 35, 0
19, 159780, Note_on_c, 14, 28, 100
19, 159840, Note_on_c, 14, 28, 0
19, 159900, Note_on_c, 14, 29, 100
19, 159960, Note_on_c, 14, 29, 0
19, 160020, Note_on_c, 14, 30, 100
19, 160080, Note_on_c, 14, 30, 0
19, 160140, Note_on_c, 14, 25, 100
19, 160200, Note_on_c, 14, 25, 0
19, 160260, Note_on_c, 14, 30, 100
19, 160320, Note_on_c, 14, 30, 0
19, 160380, Note_on_c, 14, 37, 100
19, 160440, Note_on_c, 14, 37, 0
19, 160500, Note_on_c, 14, 42, 100
19, 160560, Note_on_c, 14, 42, 0
19, 160620, Note_on_c, 14, 37, 100
19, 160680, Note_on_c, 14, 37, 0
19, 160740, Note_on_c, 14, 30, 100
19, 160800, Note_on_c, 14, 30, 0
19, 160860, Note_on_c, 14, 39, 100
19, 160920, Note_on_c, 14, 39, 0
19, 160980, Note_on_c, 14, 40, 100
19, 161040, Note_on_c, 14, 40, 0
19, 161040, Note_on_c, 14, 35, 100
19, 161100, Note_on_c, 14, 35, 0
19, 161100, Note_on_c, 14, 32, 100
19, 161160, Note_on_c, 14, 32, 0
19, 161160, Note_on_c, 14, 35, 100
19, 161220, Note_on_c, 14, 35, 0
19, 161220, Note_on_c, 14, 28, 100
19, 161280, Note_on_c, 14, 28, 0
19, 161280, Note_on_c, 14, 44, 100
19, 161340, Note_on_c, 14, 44, 0
19, 161340, Note_on_c, 14, 40, 100
19, 161400, Note_on_c, 14, 40, 0
19, 161400, Note_on_c, 14, 44, 100
19, 161460, Note_on_c, 14, 44, 0
19, 161460, Note_on_c, 14, 45, 100
19, 161520, Note_on_c, 14, 45, 0
19, 161520, Note_on_c, 14, 49, 100
19, 161580, Note_on_c, 14, 49, 0
19, 161580, Note_on_c, 14, 42, 100
19, 161640, Note_on_c, 14, 42, 0
19, 161640, Note_on_c, 14, 45, 100
19, 161700, Note_on_c, 14, 45, 0
19, 161700, Note_on_c, 14, 47, 100
19, 161760, Note_on_c, 14, 47, 0
19, 161760, Note_on_c, 14, 39, 100
19, 161820, Note_on_c, 14, 39, 0
19, 161820, Note_on_c, 14, 35, 100
19, 161880, Note_on_c, 14, 35, 0
19, 161880, Note_on_c, 14, 39, 100
19, 161940, Note_on_c, 14, 39, 0
19, 161940, Note_on_c, 14, 28, 100
19, 162000, Note_on_c, 14, 28, 0
19, 162000, Note_on_c, 14, 44, 100
19, 162060, Note_on_c, 14, 44, 0
19, 162060, Note_on_c, 14, 37, 100
19, 162120, Note_on_c, 14, 37, 0
19, 162120, Note_on_c, 14, 40, 100
19, 162180, Note_on_c, 14, 40, 0
19, 162180, Note_on_c, 14, 33, 100
19, 162240, Note_on_c, 14, 33, 0
19, 162240, Note_on_c, 14, 45, 100
19, 162300, Note_on_c, 14, 45, 0
19, 162300, Note_on_c, 14, 47, 100
19, 162360, Note_on_c, 14, 47, 0
19, 162360, Note_on_c, 14, 35, 100
19, 162420, Note_on_c, 14, 35, 0
19, 162420, Note_on_c, 14, 28, 100
19, 162480, Note_on_c, 14, 28, 0
19, 162660, Note_on_c, 14, 40, 100
19, 162720, Note_on_c, 14, 40, 0
19, 162780, Note_on_c, 14, 35, 100
19, 162840, Note_on_c, 14, 35, 0
19, 162900, Note_on_c, 14, 28, 100
19, 162960, Note_on_c, 14, 28, 0
19, 163020, Note_on_c, 14, 35, 100
19, 163080, Note_on_c, 14, 35, 0
19, 163140, Note_on_c, 14, 28, 100
19, 163200, Note_on_c, 14, 28, 0
19, 163260, Note_on_c, 14, 29, 100
19, 163320, Note_on_c, 14, 29, 0
19, 163380, Note_on_c, 14, 30, 100
19, 163440, Note_on_c, 14, 30, 0
19, 163500, Note_on_c, 14, 25, 100
19, 163560, Note_on_c, 14, 25, 0
19, 163620, Note_on_c, 14, 30, 100
19, 163680, Note_on_c, 14, 30, 0
19, 163740, Note_on_c, 14, 37, 100
19, 163800, Note_on_c, 14, 37, 0
19, 163860, Note_on_c, 14, 42, 100
19, 163920, Note_on_c, 14, 42, 0
19, 163980, Note_on_c, 14, 37, 100
19, 164040, Note_on_c, 14, 37, 0
19, 164100, Note_on_c, 14, 30, 100
19, 164160, Note_on_c, 14, 30, 0
19, 164220, Note_on_c, 14, 39, 100
19, 164280, Note_on_c, 14, 39, 0
19, 164340, Note_on_c, 14, 40, 100
19, 164400, Note_on_c, 14, 40, 0
19, 164400, Note_on_c, 14, 35, 100
19, 164460, Note_on_c, 14, 35, 0
19, 164460, Note_on_c, 14, 32, 100
19, 164520, Note_on_c, 14, 32, 0
19, 164520, Note_on_c, 14, 35, 100
19, 164580, Note_on_c, 14, 35, 0
19, 164580, Note_on_c, 14, 28, 100
19, 164640, Note_on_c, 14, 28, 0
19, 164640, Note_on_c, 14, 44, 100
19, 164700, Note_on_c, 14, 44, 0
19, 164700, Note_on_c, 14, 40, 100
19, 164760, Note_on_c, 14, 40, 0
19, 164760, Note_on_c, 14, 44, 100
19, 164820, Note_on_c, 14, 44, 0
19, 164820, Note_on_c, 14, 45, 100
19, 164880, Note_on_c, 14, 45, 0
19, 164880, Note_on_c, 14, 37, 100
19, 164940, Note_on_c, 14, 37, 0
19, 164940, Note_on_c, 14, 33, 100
19, 165000, Note_on_c, 14, 33, 0
19, 165000, Note_on_c, 14, 37, 100
19, 165060, Note_on_c, 14, 37, 0
19, 165060, Note_on_c, 14, 30, 100
19, 165120, Note_on_c, 14, 30, 0
19, 165120, Note_on_c, 14, 45, 100
19, 165180, Note_on_c, 14, 45, 0
19, 165180, Note_on_c, 14, 42, 100
19, 165240, Note_on_c, 14, 42, 0
19, 165240, Note_on_c, 14, 45, 100
19, 165300, Note_on_c, 14, 45, 0
19, 165300, Note_on_c, 14, 47, 100
19, 165360, Note_on_c, 14, 47, 0
19, 165360, Note_on_c, 14, 39, 100
19, 165420, Note_on_c, 14, 39, 0
19, 165420, Note_on_c, 14, 35, 100
19, 165480, Note_on_c, 14, 35, 0
19, 165480, Note_on_c, 14, 39, 100
19, 165540, Note_on_c, 14, 39, 0
19, 165540, Note_on_c, 14, 40, 100
19, 165600, Note_on_c, 14, 40, 0
19, 165660, Note_on_c, 14, 39, 100
19, 165720, Note_on_c, 14, 39, 0
19, 165780, Note_on_c, 14, 32, 100
19, 165840, Note_on_c, 14, 32, 0
19, 165900, Note_on_c, 14, 34, 100
19, 165960, Note_on_c, 14, 34, 0
19, 166020, Note_on_c, 14, 35, 100
19, 166080, Note_on_c, 14, 35, 0
19, 166080, Note_on_c, 14, 39, 100
19, 166140, Note_on_c, 14, 39, 0
19, 166140, Note_on_c, 14, 35, 100
19, 166200, Note_on_c, 14, 35, 0
19, 166200, Note_on_c, 14, 39, 100
19, 166260, Note_on_c, 14, 39, 0
19, 166260, Note_on_c, 14, 37, 100
19, 166320, Note_on_c, 14, 37, 0
19, 166320, Note_on_c, 14, 40, 100
19, 166380, Note_on_c, 14, 40, 0
19, 166380, Note_on_c, 14, 37, 100
19, 166440, Note_on_c, 14, 37, 0
19, 166440, Note_on_c, 14, 40, 100
19, 166500, Note_on_c, 14, 40, 0
19, 166500, Note_on_c, 14, 39, 100
19, 166560, Note_on_c, 14, 39, 0
19, 166560, Note_on_c, 14, 42, 100
19, 166620, Note_on_c, 14, 42, 0
19, 166620, Note_on_c, 14, 39, 100
19, 166680, Note_on_c, 14, 39, 0
19, 166680, Note_on_c, 14, 42, 100
19, 166740, Note_on_c, 14, 42, 0
19, 166740, Note_on_c, 14, 44, 100
19, 166800, Note_on_c, 14, 44, 0
19, 166800, Note_on_c, 14, 40, 100
19, 166860, Note_on_c, 14, 40, 0
19, 166860, Note_on_c, 14, 42, 100
19, 166920, Note_on_c, 14, 42, 0
19, 166920, Note_on_c, 14, 30, 100
19, 166980, Note_on_c, 14, 30, 0
19, 166980, Note_on_c, 14, 35, 100
19, 167040, Note_on_c, 14, 35, 0
19, 167100, Note_on_c, 14, 42, 100
19, 167160, Note_on_c, 14, 42, 0
19, 167220, Note_on_c, 14, 47, 100
19, 167280, Note_on_c, 14, 47, 0
19, 167340, Note_on_c, 14, 42, 100
19, 167400, Note_on_c, 14, 42, 0
19, 167460, Note_on_c, 14, 35, 100
19, 167520, Note_on_c, 14, 35, 0
19, 167580, Note_on_c, 14, 36, 100
19, 167640, Note_on_c, 14, 36, 0
19, 167700, Note_on_c, 14, 37, 100
19, 167760, Note_on_c, 14, 37, 0
19, 167820, Note_on_c, 14, 44, 100
19, 167880, Note_on_c, 14, 44, 0
19, 167940, Note_on_c, 14, 49, 100
19, 168000, Note_on_c, 14, 49, 0
19, 168060, Note_on_c, 14, 44, 100
19, 168120, Note_on_c, 14, 44, 0
19, 168180, Note_on_c, 14, 37, 100
19, 168240, Note_on_c, 14, 37, 0
19, 168300, Note_on_c, 14, 44, 100
19, 168360, Note_on_c, 14, 44, 0
19, 168420, Note_on_c, 14, 49, 100
19, 168480, Note_on_c, 14, 49, 0
19, 168540, Note_on_c, 14, 46, 100
19, 168600, Note_on_c, 14, 46, 0
19, 168660, Note_on_c, 14, 47, 100
19, 168720, Note_on_c, 14, 47, 0
19, 168720, Note_on_c, 14, 42, 100
19, 168780, Note_on_c, 14, 42, 0
19, 168780, Note_on_c, 14, 39, 100
19, 168840, Note_on_c, 14, 39, 0
19, 168840, Note_on_c, 14, 42, 100
19, 168900, Note_on_c, 14, 42, 0
19, 168900, Note_on_c, 14, 35, 100
19, 168960, Note_on_c, 14, 35, 0
19, 169020, Note_on_c, 14, 32, 100
19, 169080, Note_on_c, 14, 32, 0
19, 169140, Note_on_c, 14, 30, 100
19, 169200, Note_on_c, 14, 30, 0
19, 169260, Note_on_c, 14, 42, 100
19, 169320, Note_on_c, 14, 42, 0
19, 169380, Note_on_c, 14, 44, 100
19, 169440, Note_on_c, 14, 44, 0
19, 169500, Note_on_c, 14, 40, 100
19, 169560, Note_on_c, 14, 40, 0
19, 169620, Note_on_c, 14, 45, 100
19, 169680, Note_on_c, 14, 45, 0
19, 169740, Note_on_c, 14, 40, 100
19, 169800, Note_on_c, 14, 40, 0
19, 169860, Note_on_c, 14, 33, 100
19, 169920, Note_on_c, 14, 33, 0
19, 169920, Note_on_c, 14, 45, 100
19, 169980, Note_on_c, 14, 45, 0
19, 169980, Note_on_c, 14, 33, 100
19, 170040, Note_on_c, 14, 33, 0
19, 170040, Note_on_c, 14, 45, 100
19, 170100, Note_on_c, 14, 45, 0
19, 170100, Note_on_c, 14, 33, 100
19, 170160, Note_on_c, 14, 33, 0
19, 170160, Note_on_c, 14, 45, 100
19, 170220, Note_on_c, 14, 45, 0
19, 170220, Note_on_c, 14, 33, 100
19, 170280, Note_on_c, 14, 33, 0
19, 170280, Note_on_c, 14, 45, 100
19, 170340, Note_on_c, 14, 45, 0
19, 170340, Note_on_c, 14, 32, 100
19, 170400, Note_on_c, 14, 32, 0
19, 170400, Note_on_c, 14, 44, 100
19, 170460, Note_on_c, 14, 44, 0
19, 170460, Note_on_c, 14, 32, 100
19, 170520, Note_on_c, 14, 32, 0
19, 170520, Note_on_c, 14, 44, 100
19, 170580, Note_on_c, 14, 44, 0
19, 170580, Note_on_c, 14, 32, 100
19, 170640, Note_on_c, 14, 32, 0
19, 170640, Note_on_c, 14, 44, 100
19, 170700, Note_on_c, 14, 44, 0
19, 170700, Note_on_c, 14, 32, 100
19, 170760, Note_on_c, 14, 32, 0
19, 170760, Note_on_c, 14, 44, 100
19, 170820, Note_on_c, 14, 44, 0
19, 170820, Note_on_c, 14, 30, 100
19, 170880, Note_on_c, 14, 30, 0
19, 170880, Note_on_c, 14, 42, 100
19, 170940, Note_on_c, 14, 42, 0
19, 170940, Note_on_c, 14, 28, 100
19, 171000, Note_on_c, 14, 28, 0
19, 171000, Note_on_c, 14, 40, 100
19, 171060, Note_on_c, 14, 40, 0
19, 171060, Note_on_c, 14, 27, 100
19, 171120, Note_on_c, 14, 27, 0
19, 171120, Note_on_c, 14, 39, 100
19, 171180, Note_on_c, 14, 39, 0
19, 171180, Note_on_c, 14, 23, 100
19, 171240, Note_on_c, 14, 23, 0
19, 171240, Note_on_c, 14, 35, 100
19, 171300, Note_on_c, 14, 35, 0
19, 171300, Note_on_c, 14, 28, 100
19, 171360, Note_on_c, 14, 28, 0
19, 171360, Note_on_c, 14, 40, 100
19, 171420, Note_on_c, 14, 40, 0
19, 171420, Note_on_c, 14, 30, 100
19, 171480, Note_on_c, 14, 30, 0
19, 171480, Note_on_c, 14, 42, 100
19, 171540, Note_on_c, 14, 42, 0
19, 171540, Note_on_c, 14, 32, 100
19, 171600, Note_on_c, 14, 32, 0
19, 171660, Note_on_c, 14, 35, 100
19, 171720, Note_on_c, 14, 35, 0
19, 171780, Note_on_c, 14, 40, 100
19, 171840, Note_on_c, 14, 40, 0
19, 171900, Note_on_c, 14, 35, 100
19, 171960, Note_on_c, 14, 35, 0
19, 172020, Note_on_c, 14, 28, 100
19, 172080, Note_on_c, 14, 28, 0
19, 172080, Note_on_c, 14, 32, 100
19, 172140, Note_on_c, 14, 32, 0
19, 172140, Note_on_c, 14, 35, 100
19, 172200, Note_on_c, 14, 35, 0
19, 172200, Note_on_c, 14, 39, 100
19, 172260, Note_on_c, 14, 39, 0
19, 172260, Note_on_c, 14, 28, 100
19, 172320, Note_on_c, 14, 28, 0
19, 172320, Note_on_c, 14, 40, 100
19, 172380, Note_on_c, 14, 40, 0
19, 172380, Note_on_c, 14, 25, 100
19, 172440, Note_on_c, 14, 25, 0
19, 172440, Note_on_c, 14, 37, 100
19, 172500, Note_on_c, 14, 37, 0
19, 172500, Note_on_c, 14, 42, 100
19, 172560, Note_on_c, 14, 42, 0
19, 172560, Note_on_c, 14, 39, 100
19, 172620, Note_on_c, 14, 39, 0
19, 172620, Note_on_c, 14, 40, 100
19, 172680, Note_on_c, 14, 40, 0
19, 172680, Note_on_c, 14, 28, 100
19, 172740, Note_on_c, 14, 28, 0
19, 172740, Note_on_c, 14, 23, 100
19, 172800, Note_on_c, 14, 23, 0
19, 172800, Note_on_c, 14, 35, 100
19, 172860, Note_on_c, 14, 35, 0
19, 172860, Note_on_c, 14, 27, 100
19, 172920, Note_on_c, 14, 27, 0
19, 172920, Note_on_c, 14, 39, 100
19, 172980, Note_on_c, 14, 39, 0
19, 172980, Note_on_c, 14, 40, 100
19, 173040, Note_on_c, 14, 40, 0
19, 173040, Note_on_c, 14, 37, 100
19, 173100, Note_on_c, 14, 37, 0
19, 173100, Note_on_c, 14, 34, 100
19, 173160, Note_on_c, 14, 34, 0
19, 173160, Note_on_c, 14, 36, 100
19, 173220, Note_on_c, 14, 36, 0
19, 173220, Note_on_c, 14, 37, 100
19, 173280, Note_on_c, 14, 37, 0
19, 173280, Note_on_c, 14, 35, 100
19, 173340, Note_on_c, 14, 35, 0
19, 173340, Note_on_c, 14, 33, 100
19, 173400, Note_on_c, 14, 33, 0
19, 173400, Note_on_c, 14, 32, 100
19, 173460, Note_on_c, 14, 32, 0
19, 173460, Note_on_c, 14, 33, 100
19, 173520, Note_on_c, 14, 33, 0
19, 173520, Note_on_c, 14, 35, 100
19, 173580, Note_on_c, 14, 35, 0
19, 173580, Note_on_c, 14, 37, 100
19, 173640, Note_on_c, 14, 37, 0
19, 173640, Note_on_c, 14, 33, 100
19, 173700, Note_on_c, 14, 33, 0
19, 173700, Note_on_c, 14, 35, 100
19, 173760, Note_on_c, 14, 35, 0
19, 173760, Note_on_c, 14, 39, 100
19, 173820, Note_on_c, 14, 39, 0
19, 173820, Note_on_c, 14, 35, 100
19, 173880, Note_on_c, 14, 35, 0
19, 173880, Note_on_c, 14, 39, 100
19, 173940, Note_on_c, 14, 39, 0
19, 173940, Note_on_c, 14, 40, 100
19, 174000, Note_on_c, 14, 40, 0
19, 174000, Note_on_c, 14, 44, 100
19, 174060, Note_on_c, 14, 44, 0
19, 174060, Note_on_c, 14, 40, 100
19, 174120, Note_on_c, 14, 40, 0
19, 174120, Note_on_c, 14, 44, 100
19, 174180, Note_on_c, 14, 44, 0
19, 174180, Note_on_c, 14, 33, 100
19, 174240, Note_on_c, 14, 33, 0
19, 174240, Note_on_c, 14, 37, 100
19, 174300, Note_on_c, 14, 37, 0
19, 174300, Note_on_c, 14, 33, 100
19, 174360, Note_on_c, 14, 33, 0
19, 174360, Note_on_c, 14, 37, 100
19, 174420, Note_on_c, 14, 37, 0
19, 174420, Note_on_c, 14, 39, 100
19, 174480, Note_on_c, 14, 39, 0
19, 174480, Note_on_c, 14, 42, 100
19, 174540, Note_on_c, 14, 42, 0
19, 174540, Note_on_c, 14, 39, 100
19, 174600, Note_on_c, 14, 39, 0
19, 174605, Note_on_c, 14, 42, 100
19, 174660, Note_on_c, 14, 32, 100
19, 174665, Note_on_c, 14, 42, 0
19, 174720, Note_on_c, 14, 32, 0
19, 174720, Note_on_c, 14, 35, 100
19, 174780, Note_on_c, 14, 35, 0
19, 174780, Note_on_c, 14, 32, 100
19, 174840, Note_on_c, 14, 32, 0
19, 174840, Note_on_c, 14, 35, 100
19, 174900, Note_on_c, 14, 35, 0
19, 174900, Note_on_c, 14, 37, 100
19, 174960, Note_on_c, 14, 37, 0
19, 174960, Note_on_c, 14, 40, 100
19, 175020, Note_on_c, 14, 40, 0
19, 175020, Note_on_c, 14, 37, 100
19, 175080, Note_on_c, 14, 37, 0
19, 175080, Note_on_c, 14, 40, 100
19, 175140, Note_on_c, 14, 40, 0
19, 175140, Note_on_c, 14, 30, 100
19, 175200, Note_on_c, 14, 30, 0
19, 175200, Note_on_c, 14, 33, 100
19, 175260, Note_on_c, 14, 33, 0
19, 175260, Note_on_c, 14, 30, 100
19, 175320, Note_on_c, 14, 30, 0
19, 175320, Note_on_c, 14, 33, 100
19, 175380, Note_on_c, 14, 33, 0
19, 175380, Note_on_c, 14, 35, 100
19, 175440, Note_on_c, 14, 35, 0
19, 175440, Note_on_c, 14, 39, 100
19, 175500, Note_on_c, 14, 39, 0
19, 175740, Note_on_c, 14, 34, 100
19, 175800, Note_on_c, 14, 34, 0
19, 175860, Note_on_c, 14, 33, 100
19, 175920, Note_on_c, 14, 33, 0
19, 175920, Note_on_c, 14, 32, 100
19, 175950, Note_on_c, 14, 32, 0
19, 175950, Note_on_c, 14, 28, 100
19, 175980, Note_on_c, 14, 28, 0
19, 175980, Note_on_c, 14, 35, 100
19, 176040, Note_on_c, 14, 35, 0
19, 176040, Note_on_c, 14, 47, 100
19, 176100, Note_on_c, 14, 47, 0
19, 176100, Note_on_c, 14, 40, 100
19, 176160, Note_on_c, 14, 40, 0
19, 176220, Note_on_c, 14, 35, 100
19, 176280, Note_on_c, 14, 35, 0
19, 176340, Note_on_c, 14, 28, 100
19, 176400, Note_on_c, 14, 28, 0
19, 176460, Note_on_c, 14, 35, 100
19, 176520, Note_on_c, 14, 35, 0
19, 176580, Note_on_c, 14, 28, 100
19, 176640, Note_on_c, 14, 28, 0
19, 176700, Note_on_c, 14, 29, 100
19, 176760, Note_on_c, 14, 29, 0
19, 176820, Note_on_c, 14, 30, 100
19, 176880, Note_on_c, 14, 30, 0
19, 176940, Note_on_c, 14, 25, 100
19, 177000, Note_on_c, 14, 25, 0
19, 177060, Note_on_c, 14, 30, 100
19, 177120, Note_on_c, 14, 30, 0
19, 177180, Note_on_c, 14, 37, 100
19, 177240, Note_on_c, 14, 37, 0
19, 177300, Note_on_c, 14, 42, 100
19, 177360, Note_on_c, 14, 42, 0
19, 177420, Note_on_c, 14, 37, 100
19, 177480, Note_on_c, 14, 37, 0
19, 177540, Note_on_c, 14, 30, 100
19, 177600, Note_on_c, 14, 30, 0
19, 177660, Note_on_c, 14, 39, 100
19, 177720, Note_on_c, 14, 39, 0
19, 177780, Note_on_c, 14, 40, 100
19, 177840, Note_on_c, 14, 40, 0
19, 177840, Note_on_c, 14, 35, 100
19, 177900, Note_on_c, 14, 35, 0
19, 177900, Note_on_c, 14, 32, 100
19, 177960, Note_on_c, 14, 32, 0
19, 177960, Note_on_c, 14, 35, 100
19, 178020, Note_on_c, 14, 35, 0
19, 178020, Note_on_c, 14, 28, 100
19, 178080, Note_on_c, 14, 28, 0
19, 178080, Note_on_c, 14, 44, 100
19, 178140, Note_on_c, 14, 44, 0
19, 178140, Note_on_c, 14, 40, 100
19, 178200, Note_on_c, 14, 40, 0
19, 178200, Note_on_c, 14, 44, 100
19, 178260, Note_on_c, 14, 44, 0
19, 178260, Note_on_c, 14, 45, 100
19, 178320, Note_on_c, 14, 45, 0
19, 178320, Note_on_c, 14, 49, 100
19, 178380, Note_on_c, 14, 49, 0
19, 178380, Note_on_c, 14, 42, 100
19, 178440, Note_on_c, 14, 42, 0
19, 178440, Note_on_c, 14, 45, 100
19, 178500, Note_on_c, 14, 45, 0
19, 178500, Note_on_c, 14, 47, 100
19, 178560, Note_on_c, 14, 47, 0
19, 178560, Note_on_c, 14, 39, 100
19, 178620, Note_on_c, 14, 39, 0
19, 178620, Note_on_c, 14, 35, 100
19, 178680, Note_on_c, 14, 35, 0
19, 178680, Note_on_c, 14, 39, 100
19, 178740, Note_on_c, 14, 39, 0
19, 178740, Note_on_c, 14, 28, 100
19, 178800, Note_on_c, 14, 28, 0
19, 178800, Note_on_c, 14, 44, 100
19, 178860, Note_on_c, 14, 44, 0
19, 178860, Note_on_c, 14, 37, 100
19, 178920, Note_on_c, 14, 37, 0
19, 178920, Note_on_c, 14, 40, 100
19, 178980, Note_on_c, 14, 40, 0
19, 178980, Note_on_c, 14, 33, 100
19, 179040, Note_on_c, 14, 33, 0
19, 179040, Note_on_c, 14, 45, 100
19, 179100, Note_on_c, 14, 45, 0
19, 179100, Note_on_c, 14, 47, 100
19, 179160, Note_on_c, 14, 47, 0
19, 179160, Note_on_c, 14, 35, 100
19, 179220, Note_on_c, 14, 35, 0
19, 179220, Note_on_c, 14, 28, 100
19, 179280, Note_on_c, 14, 28, 0
19, 179460, Note_on_c, 14, 28, 100
19, 179580, Note_on_c, 14, 28, 0
19, 179580, Control_c, 14, 0, 0
19, 179580, Control_c, 14, 0, 0
19, 179580, Control_c, 14, 0, 0
19, 179580, Control_c, 14, 0, 0
19, 179580, Control_c, 14, 0, 0
19, 179580, Program_c, 14, 43
19, 193740, Note_on_c, 14, 38, 100
19, 193978, Note_on_c, 14, 38, 0
19, 193980, Note_on_c, 14, 40, 100
19, 194098, Note_on_c, 14, 40, 0
19, 194100, Note_on_c, 14, 40, 100
19, 194218, Note_on_c, 14, 40, 0
19, 194220, Note_on_c, 14, 42, 100
19, 194278, Note_on_c, 14, 42, 0
19, 194280, Note_on_c, 14, 40, 100
19, 194338, Note_on_c, 14, 40, 0
19, 194340, Note_on_c, 14, 38, 100
19, 194398, Note_on_c, 14, 38, 0
19, 194400, Note_on_c, 14, 40, 100
19, 194458, Note_on_c, 14, 40, 0
19, 194460, Note_on_c, 14, 42, 100
19, 194518, Note_on_c, 14, 42, 0
19, 194520, Note_on_c, 14, 43, 100
19, 194578, Note_on_c, 14, 43, 0
19, 194580, Note_on_c, 14, 45, 100
19, 194698, Note_on_c, 14, 45, 0
19, 194700, Note_on_c, 14, 45, 100
19, 194818, Note_on_c, 14, 45, 0
19, 194820, Note_on_c, 14, 40, 100
19, 194938, Note_on_c, 14, 40, 0
19, 194940, Note_on_c, 14, 45, 100
19, 195058, Note_on_c, 14, 45, 0
19, 195060, Note_on_c, 14, 37, 100
19, 195178, Note_on_c, 14, 37, 0
19, 195180, Note_on_c, 14, 35, 100
19, 195418, Note_on_c, 14, 35, 0
19, 195420, Note_on_c, 14, 44, 100
19, 195658, Note_on_c, 14, 44, 0
19, 195660, Note_on_c, 14, 45, 100
19, 195898, Note_on_c, 14, 45, 0
19, 195900, Note_on_c, 14, 42, 100
19, 196078, Note_on_c, 14, 42, 0
19, 196080, Note_on_c, 14, 42, 100
19, 196138, Note_on_c, 14, 42, 0
19, 196140, Note_on_c, 14, 43, 100
19, 196258, Note_on_c, 14, 43, 0
19, 196260, Note_on_c, 14, 31, 100
19, 196378, Note_on_c, 14, 31, 0
19, 196380, Note_on_c, 14, 43, 100
19, 196498, Note_on_c, 14, 43, 0
19, 196500, Note_on_c, 14, 42, 100
19, 196558, Note_on_c, 14, 42, 0
19, 196560, Note_on_c, 14, 40, 100
19, 196618, Note_on_c, 14, 40, 0
19, 196620, Note_on_c, 14, 42, 100
19, 196678, Note_on_c, 14, 42, 0
19, 196680, Note_on_c, 14, 40, 100
19, 196738, Note_on_c, 14, 40, 0
19, 196740, Note_on_c, 14, 38, 100
19, 196798, Note_on_c, 14, 38, 0
19, 196800, Note_on_c, 14, 40, 100
19, 196858, Note_on_c, 14, 40, 0
19, 196860, Note_on_c, 14, 42, 100
19, 196918, Note_on_c, 14, 42, 0
19, 196920, Note_on_c, 14, 43, 100
19, 196978, Note_on_c, 14, 43, 0
19, 196980, Note_on_c, 14, 45, 100
19, 197098, Note_on_c, 14, 45, 0
19, 197100, Note_on_c, 14, 43, 100
19, 197218, Note_on_c, 14, 43, 0
19, 197220, Note_on_c, 14, 42, 100
19, 197338, Note_on_c, 14, 42, 0
19, 197340, Note_on_c, 14, 40, 100
19, 197578, Note_on_c, 14, 40, 0
19, 197580, Note_on_c, 14, 38, 100
19, 197698, Note_on_c, 14, 38, 0
19, 197700, Note_on_c, 14, 38, 100
19, 197818, Note_on_c, 14, 38, 0
19, 197820, Note_on_c, 14, 45, 100
19, 197938, Note_on_c, 14, 45, 0
19, 197940, Note_on_c, 14, 43, 100
19, 198058, Note_on_c, 14, 43, 0
19, 198060, Note_on_c, 14, 42, 100
19, 198238, Note_on_c, 14, 42, 0
19, 198240, Note_on_c, 14, 40, 100
19, 198298, Note_on_c, 14, 40, 0
19, 198300, Note_on_c, 14, 38, 100
19, 198538, Note_on_c, 14, 38, 0
19, 198780, Note_on_c, 14, 37, 100
19, 199018, Note_on_c, 14, 37, 0
19, 199020, Note_on_c, 14, 38, 100
19, 199258, Note_on_c, 14, 38, 0
19, 199260, Note_on_c, 14, 40, 100
19, 199498, Note_on_c, 14, 40, 0
19, 199500, Note_on_c, 14, 33, 100
19, 199738, Note_on_c, 14, 33, 0
19, 199860, Note_on_c, 14, 38, 100
19, 199978, Note_on_c, 14, 38, 0
19, 199980, Note_on_c, 14, 43, 100
19, 200098, Note_on_c, 14, 43, 0
19, 200100, Note_on_c, 14, 42, 100
19, 200218, Note_on_c, 14, 42, 0
19, 200220, Note_on_c, 14, 40, 100
19, 200398, Note_on_c, 14, 40, 0
19, 200400, Note_on_c, 14, 38, 100
19, 200458, Note_on_c, 14, 38, 0
19, 200460, Note_on_c, 14, 38, 100
19, 200578, Note_on_c, 14, 38, 0
19, 200580, Note_on_c, 14, 42, 100
19, 200698, Note_on_c, 14, 42, 0
19, 200700, Note_on_c, 14, 47, 100
19, 200818, Note_on_c, 14, 47, 0
19, 200820, Note_on_c, 14, 38, 100
19, 200938, Note_on_c, 14, 38, 0
19, 200940, Note_on_c, 14, 40, 100
19, 201058, Note_on_c, 14, 40, 0
19, 201060, Note_on_c, 14, 42, 100
19, 201178, Note_on_c, 14, 42, 0
19, 201180, Note_on_c, 14, 43, 100
19, 201418, Note_on_c, 14, 43, 0
19, 201420, Note_on_c, 14, 42, 100
19, 201538, Note_on_c, 14, 42, 0
19, 201540, Note_on_c, 14, 38, 100
19, 201658, Note_on_c, 14, 38, 0
19, 201660, Note_on_c, 14, 45, 100
19, 201778, Note_on_c, 14, 45, 0
19, 201780, Note_on_c, 14, 43, 100
19, 201898, Note_on_c, 14, 43, 0
19, 201900, Note_on_c, 14, 42, 100
19, 202078, Note_on_c, 14, 42, 0
19, 202080, Note_on_c, 14, 40, 100
19, 202138, Note_on_c, 14, 40, 0
19, 202140, Note_on_c, 14, 38, 100
19, 202378, Note_on_c, 14, 38, 0
19, 202620, Note_on_c, 14, 37, 100
19, 202858, Note_on_c, 14, 37, 0
19, 202860, Note_on_c, 14, 38, 100
19, 203098, Note_on_c, 14, 38, 0
19, 203100, Note_on_c, 14, 40, 100
19, 203338, Note_on_c, 14, 40, 0
19, 203340, Note_on_c, 14, 33, 100
19, 203578, Note_on_c, 14, 33, 0
19, 209100, Note_on_c, 14, 38, 100
19, 209338, Note_on_c, 14, 38, 0
19, 209340, Note_on_c, 14, 40, 100
19, 209458, Note_on_c, 14, 40, 0
19, 209460, Note_on_c, 14, 40, 100
19, 209578, Note_on_c, 14, 40, 0
19, 209580, Note_on_c, 14, 42, 100
19, 209638, Note_on_c, 14, 42, 0
19, 209640, Note_on_c, 14, 40, 100
19, 209698, Note_on_c, 14, 40, 0
19, 209700, Note_on_c, 14, 38, 100
19, 209758, Note_on_c, 14, 38, 0
19, 209760, Note_on_c, 14, 40, 100
19, 209818, Note_on_c, 14, 40, 0
19, 209820, Note_on_c, 14, 42, 100
19, 209878, Note_on_c, 14, 42, 0
19, 209880, Note_on_c, 14, 43, 100
19, 209938, Note_on_c, 14, 43, 0
19, 209940, Note_on_c, 14, 45, 100
19, 210058, Note_on_c, 14, 45, 0
19, 210060, Note_on_c, 14, 45, 100
19, 210178, Note_on_c, 14, 45, 0
19, 210180, Note_on_c, 14, 40, 100
19, 210298, Note_on_c, 14, 40, 0
19, 210300, Note_on_c, 14, 45, 100
19, 210418, Note_on_c, 14, 45, 0
19, 210420, Note_on_c, 14, 37, 100
19, 210538, Note_on_c, 14, 37, 0
19, 210540, Note_on_c, 14, 35, 100
19, 210778, Note_on_c, 14, 35, 0
19, 210780, Note_on_c, 14, 44, 100
19, 211018, Note_on_c, 14, 44, 0
19, 211020, Note_on_c, 14, 45, 100
19, 211258, Note_on_c, 14, 45, 0
19, 211260, Note_on_c, 14, 43, 100
19, 211438, Note_on_c, 14, 43, 0
19, 211440, Note_on_c, 14, 43, 100
19, 211498, Note_on_c, 14, 43, 0
19, 211500, Note_on_c, 14, 42, 100
19, 211738, Note_on_c, 14, 42, 0
19, 211740, Note_on_c, 14, 44, 100
19, 211918, Note_on_c, 14, 44, 0
19, 211920, Note_on_c, 14, 44, 100
19, 211978, Note_on_c, 14, 44, 0
19, 211980, Note_on_c, 14, 45, 100
19, 212098, Note_on_c, 14, 45, 0
19, 212100, Note_on_c, 14, 33, 100
19, 212218, Note_on_c, 14, 33, 0
19, 212220, Note_on_c, 14, 45, 100
19, 212338, Note_on_c, 14, 45, 0
19, 212340, Note_on_c, 14, 43, 100
19, 212398, Note_on_c, 14, 43, 0
19, 212400, Note_on_c, 14, 42, 100
19, 212458, Note_on_c, 14, 42, 0
19, 212460, Note_on_c, 14, 43, 100
19, 212578, Note_on_c, 14, 43, 0
19, 212580, Note_on_c, 14, 40, 100
19, 212698, Note_on_c, 14, 40, 0
19, 212700, Note_on_c, 14, 46, 100
19, 212878, Note_on_c, 14, 46, 0
19, 212880, Note_on_c, 14, 46, 100
19, 212938, Note_on_c, 14, 46, 0
19, 212940, Note_on_c, 14, 47, 100
19, 213058, Note_on_c, 14, 47, 0
19, 213060, Note_on_c, 14, 35, 100
19, 213178, Note_on_c, 14, 35, 0
19, 213180, Note_on_c, 14, 47, 100
19, 213298, Note_on_c, 14, 47, 0
19, 213300, Note_on_c, 14, 45, 100
19, 213358, Note_on_c, 14, 45, 0
19, 213360, Note_on_c, 14, 43, 100
19, 213418, Note_on_c, 14, 43, 0
19, 213420, Note_on_c, 14, 45, 100
19, 213538, Note_on_c, 14, 45, 0
19, 213540, Note_on_c, 14, 33, 100
19, 213658, Note_on_c, 14, 33, 0
19, 213660, Note_on_c, 14, 45, 100
19, 213778, Note_on_c, 14, 45, 0
19, 213780, Note_on_c, 14, 43, 100
19, 213838, Note_on_c, 14, 43, 0
19, 213840, Note_on_c, 14, 42, 100
19, 213898, Note_on_c, 14, 42, 0
19, 213900, Note_on_c, 14, 43, 100
19, 214018, Note_on_c, 14, 43, 0
19, 214020, Note_on_c, 14, 31, 100
19, 214138, Note_on_c, 14, 31, 0
19, 214140, Note_on_c, 14, 43, 100
19, 214258, Note_on_c, 14, 43, 0
19, 214260, Note_on_c, 14, 42, 100
19, 214318, Note_on_c, 14, 42, 0
19, 214320, Note_on_c, 14, 40, 100
19, 214378, Note_on_c, 14, 40, 0
19, 214380, Note_on_c, 14, 42, 100
19, 214498, Note_on_c, 14, 42, 0
19, 214500, Note_on_c, 14, 38, 100
19, 214558, Note_on_c, 14, 38, 0
19, 214560, Note_on_c, 14, 40, 100
19, 214618, Note_on_c, 14, 40, 0
19, 214620, Note_on_c, 14, 42, 100
19, 214738, Note_on_c, 14, 42, 0
19, 214740, Note_on_c, 14, 43, 100
19, 214858, Note_on_c, 14, 43, 0
19, 214860, Note_on_c, 14, 45, 100
19, 214978, Note_on_c, 14, 45, 0
19, 214980, Note_on_c, 14, 33, 100
19, 215098, Note_on_c, 14, 33, 0
19, 215100, Note_on_c, 14, 33, 100
19, 215218, Note_on_c, 14, 33, 0
19, 215220, Note_on_c, 14, 33, 100
19, 215338, Note_on_c, 14, 33, 0
19, 215340, Note_on_c, 14, 35, 100
19, 215398, Note_on_c, 14, 35, 0
19, 215400, Note_on_c, 14, 33, 100
19, 215458, Note_on_c, 14, 33, 0
19, 215460, Note_on_c, 14, 31, 100
19, 215518, Note_on_c, 14, 31, 0
19, 215520, Note_on_c, 14, 33, 100
19, 215578, Note_on_c, 14, 33, 0
19, 215580, Note_on_c, 14, 35, 100
19, 215638, Note_on_c, 14, 35, 0
19, 215640, Note_on_c, 14, 37, 100
19, 215698, Note_on_c, 14, 37, 0
19, 215700, Note_on_c, 14, 38, 100
19, 215818, Note_on_c, 14, 38, 0
19, 215820, Note_on_c, 14, 38, 100
19, 215938, Note_on_c, 14, 38, 0
19, 215940, Note_on_c, 14, 45, 100
19, 216058, Note_on_c, 14, 45, 0
19, 216060, Note_on_c, 14, 50, 100
19, 216178, Note_on_c, 14, 50, 0
19, 216180, Note_on_c, 14, 42, 100
19, 216298, Note_on_c, 14, 42, 0
19, 216300, Note_on_c, 14, 40, 100
19, 216538, Note_on_c, 14, 40, 0
19, 216540, Note_on_c, 14, 45, 100
19, 216778, Note_on_c, 14, 45, 0
19, 216780, Note_on_c, 14, 38, 100
19, 217018, Note_on_c, 14, 38, 0
19, 217020, Note_on_c, 14, 42, 100
19, 217198, Note_on_c, 14, 42, 0
19, 217200, Note_on_c, 14, 42, 100
19, 217258, Note_on_c, 14, 42, 0
19, 217260, Note_on_c, 14, 43, 100
19, 217378, Note_on_c, 14, 43, 0
19, 217380, Note_on_c, 14, 31, 100
19, 217498, Note_on_c, 14, 31, 0
19, 217500, Note_on_c, 14, 43, 100
19, 217858, Note_on_c, 14, 43, 0
19, 217860, Note_on_c, 14, 42, 100
19, 217918, Note_on_c, 14, 42, 0
19, 217920, Note_on_c, 14, 40, 100
19, 217978, Note_on_c, 14, 40, 0
19, 217980, Note_on_c, 14, 42, 100
19, 218038, Note_on_c, 14, 42, 0
19, 218040, Note_on_c, 14, 40, 100
19, 218098, Note_on_c, 14, 40, 0
19, 218100, Note_on_c, 14, 38, 100
19, 218158, Note_on_c, 14, 38, 0
19, 218160, Note_on_c, 14, 40, 100
19, 218218, Note_on_c, 14, 40, 0
19, 218220, Note_on_c, 14, 42, 100
19, 218278, Note_on_c, 14, 42, 0
19, 218280, Note_on_c, 14, 43, 100
19, 218338, Note_on_c, 14, 43, 0
19, 218340, Note_on_c, 14, 45, 100
19, 218458, Note_on_c, 14, 45, 0
19, 218460, Note_on_c, 14, 33, 100
19, 218638, Note_on_c, 14, 33, 0
19, 218640, Note_on_c, 14, 33, 100
19, 218698, Note_on_c, 14, 33, 0
19, 218700, Note_on_c, 14, 38, 100
19, 219178, Note_on_c, 14, 38, 0
19, 219660, Control_c, 14, 0, 0
19, 219660, Note_on_c, 14, 33, 100
19, 219780, Note_on_c, 14, 33, 0
19, 219840, Note_on_c, 14, 33, 100
19, 219880, Note_on_c, 14, 33, 0
19, 219900, Note_on_c, 14, 33, 100
19, 220060, Note_on_c, 14, 33, 0
19, 220140, Note_on_c, 14, 33, 100
19, 221577, Note_on_c, 14, 33, 0
19, 221580, Note_on_c, 14, 27, 100
19, 221700, Note_on_c, 14, 27, 0
19, 221760, Note_on_c, 14, 27, 100
19, 221800, Note_on_c, 14, 27, 0
19, 221820, Note_on_c, 14, 27, 100
19, 221980, Note_on_c, 14, 27, 0
19, 222060, Note_on_c, 14, 28, 100
19, 222298, Note_on_c, 14, 28, 0
19, 222300, Note_on_c, 14, 28, 100
19, 222538, Note_on_c, 14, 28, 0
19, 222540, Note_on_c, 14, 40, 100
19, 223978, Note_on_c, 14, 40, 0
19, 223980, Note_on_c, 14, 34, 90
19, 224160, Note_on_c, 14, 34, 0
19, 224160, Note_on_c, 14, 34, 90
19, 224220, Note_on_c, 14, 34, 0
19, 224220, Note_on_c, 14, 34, 90
19, 224460, Note_on_c, 14, 34, 0
19, 224460, Note_on_c, 14, 35, 90
19, 224640, Note_on_c, 14, 35, 0
19, 224640, Note_on_c, 14, 35, 90
19, 224700, Note_on_c, 14, 35, 0
19, 224700, Note_on_c, 14, 35, 90
19, 224940, Note_on_c, 14, 35, 0
19, 224940, Note_on_c, 14, 35, 90
19, 226140, Note_on_c, 14, 35, 0
19, 226140, Note_on_c, 14, 35, 90
19, 226180, Note_on_c, 14, 35, 0
19, 226180, Note_on_c, 14, 38, 90
19, 226220, Note_on_c, 14, 38, 0
19, 226220, Note_on_c, 14, 37, 90
19, 226260, Note_on_c, 14, 37, 0
19, 226260, Note_on_c, 14, 35, 90
19, 226300, Note_on_c, 14, 35, 0
19, 226300, Note_on_c, 14, 33, 90
19, 226340, Note_on_c, 14, 33, 0
19, 226340, Note_on_c, 14, 31, 90
19, 226380, Note_on_c, 14, 31, 0
19, 226380, Note_on_c, 14, 30, 90
19, 226500, Note_on_c, 14, 30, 0
19, 226500, Note_on_c, 14, 30, 90
19, 226560, Note_on_c, 14, 30, 0
19, 226560, Note_on_c, 14, 30, 90
19, 226620, Note_on_c, 14, 30, 0
19, 226620, Note_on_c, 14, 30, 90
19, 226740, Note_on_c, 14, 30, 0
19, 226740, Note_on_c, 14, 30, 90
19, 226860, Note_on_c, 14, 30, 0
19, 226860, Note_on_c, 14, 31, 90
19, 227040, Note_on_c, 14, 31, 0
19, 227040, Note_on_c, 14, 31, 90
19, 227100, Note_on_c, 14, 31, 0
19, 227100, Note_on_c, 14, 31, 90
19, 227580, Note_on_c, 14, 31, 0
19, 227580, Note_on_c, 14, 30, 90
19, 227820, Note_on_c, 14, 30, 0
19, 227820, Note_on_c, 14, 35, 90
19, 228300, Note_on_c, 14, 35, 0
19, 228300, Note_on_c, 14, 33, 90
19, 228780, Note_on_c, 14, 33, 0
19, 228780, Note_on_c, 14, 50, 90
19, 228839, Note_on_c, 14, 50, 0
19, 228840, Note_on_c, 14, 38, 90
19, 228899, Note_on_c, 14, 38, 0
19, 229140, Note_on_c, 14, 47, 90
19, 229199, Note_on_c, 14, 47, 0
19, 229200, Note_on_c, 14, 35, 90
19, 229259, Note_on_c, 14, 35, 0
19, 229500, Note_on_c, 14, 42, 90
19, 229559, Note_on_c, 14, 42, 0
19, 229560, Note_on_c, 14, 30, 90
19, 229619, Note_on_c, 14, 30, 0
19, 229680, Note_on_c, 14, 42, 90
19, 229709, Note_on_c, 14, 42, 0
19, 229710, Note_on_c, 14, 43, 90
19, 229739, Note_on_c, 14, 43, 0
19, 229740, Note_on_c, 14, 45, 90
19, 229799, Note_on_c, 14, 45, 0
19, 229800, Note_on_c, 14, 33, 90
19, 229859, Note_on_c, 14, 33, 0
19, 229860, Note_on_c, 14, 38, 90
19, 229919, Note_on_c, 14, 38, 0
19, 229920, Note_on_c, 14, 50, 90
19, 229949, Note_on_c, 14, 50, 0
19, 229950, Note_on_c, 14, 49, 90
19, 229979, Note_on_c, 14, 49, 0
19, 229980, Note_on_c, 14, 47, 90
19, 230039, Note_on_c, 14, 47, 0
19, 230040, Note_on_c, 14, 45, 90
19, 230069, Note_on_c, 14, 45, 0
19, 230070, Note_on_c, 14, 43, 90
19, 230099, Note_on_c, 14, 43, 0
19, 230100, Note_on_c, 14, 45, 90
19, 230159, Note_on_c, 14, 45, 0
19, 230160, Note_on_c, 14, 33, 90
19, 230219, Note_on_c, 14, 33, 0
19, 230220, Note_on_c, 14, 38, 90
19, 230279, Note_on_c, 14, 38, 0
19, 230280, Note_on_c, 14, 50, 90
19, 230339, Note_on_c, 14, 50, 0
19, 230580, Note_on_c, 14, 35, 90
19, 230639, Note_on_c, 14, 35, 0
19, 230640, Note_on_c, 14, 47, 90
19, 230699, Note_on_c, 14, 47, 0
19, 230940, Note_on_c, 14, 30, 90
19, 230999, Note_on_c, 14, 30, 0
19, 231000, Note_on_c, 14, 42, 90
19, 231059, Note_on_c, 14, 42, 0
19, 231120, Note_on_c, 14, 42, 90
19, 231149, Note_on_c, 14, 42, 0
19, 231150, Note_on_c, 14, 43, 90
19, 231179, Note_on_c, 14, 43, 0
19, 231180, Note_on_c, 14, 45, 90
19, 231239, Note_on_c, 14, 45, 0
19, 231240, Note_on_c, 14, 33, 90
19, 231299, Note_on_c, 14, 33, 0
19, 231300, Note_on_c, 14, 38, 90
19, 231359, Note_on_c, 14, 38, 0
19, 231360, Note_on_c, 14, 50, 90
19, 231389, Note_on_c, 14, 50, 0
19, 231390, Note_on_c, 14, 49, 90
19, 231419, Note_on_c, 14, 49, 0
19, 231420, Note_on_c, 14, 47, 90
19, 231479, Note_on_c, 14, 47, 0
19, 231480, Note_on_c, 14, 45, 90
19, 231509, Note_on_c, 14, 45, 0
19, 231510, Note_on_c, 14, 43, 90
19, 231539, Note_on_c, 14, 43, 0
19, 231540, Note_on_c, 14, 45, 90
19, 231599, Note_on_c, 14, 45, 0
19, 231600, Note_on_c, 14, 33, 90
19, 231659, Note_on_c, 14, 33, 0
19, 231660, Note_on_c, 14, 38, 90
19, 231719, Note_on_c, 14, 38, 0
19, 231720, Note_on_c, 14, 26, 90
19, 231779, Note_on_c, 14, 26, 0
19, 231840, Note_on_c, 14, 50, 90
19, 231899, Note_on_c, 14, 50, 0
19, 231900, Note_on_c, 14, 49, 90
19, 231959, Note_on_c, 14, 49, 0
19, 231960, Note_on_c, 14, 45, 90
19, 232019, Note_on_c, 14, 45, 0
19, 232020, Note_on_c, 14, 47, 90
19, 232079, Note_on_c, 14, 47, 0
19, 232080, Note_on_c, 14, 35, 90
19, 232139, Note_on_c, 14, 35, 0
19, 232200, Note_on_c, 14, 47, 90
19, 232259, Note_on_c, 14, 47, 0
19, 232260, Note_on_c, 14, 45, 90
19, 232319, Note_on_c, 14, 45, 0
19, 232320, Note_on_c, 14, 42, 90
19, 232379, Note_on_c, 14, 42, 0
19, 232380, Note_on_c, 14, 43, 90
19, 232439, Note_on_c, 14, 43, 0
19, 232440, Note_on_c, 14, 31, 90
19, 232499, Note_on_c, 14, 31, 0
19, 232560, Note_on_c, 14, 43, 90
19, 232619, Note_on_c, 14, 43, 0
19, 232620, Note_on_c, 14, 42, 90
19, 232679, Note_on_c, 14, 42, 0
19, 232680, Note_on_c, 14, 38, 90
19, 232739, Note_on_c, 14, 38, 0
19, 232740, Note_on_c, 14, 40, 90
19, 232799, Note_on_c, 14, 40, 0
19, 232800, Note_on_c, 14, 28, 90
19, 232859, Note_on_c, 14, 28, 0
19, 232920, Note_on_c, 14, 40, 90
19, 232979, Note_on_c, 14, 40, 0
19, 232980, Note_on_c, 14, 39, 90
19, 233039, Note_on_c, 14, 39, 0
19, 233040, Note_on_c, 14, 35, 90
19, 233099, Note_on_c, 14, 35, 0
19, 233100, Note_on_c, 14, 40, 90
19, 233159, Note_on_c, 14, 40, 0
19, 233160, Note_on_c, 14, 28, 90
19, 233219, Note_on_c, 14, 28, 0
19, 233280, Note_on_c, 14, 40, 90
19, 233309, Note_on_c, 14, 40, 0
19, 233310, Note_on_c, 14, 42, 90
19, 233339, Note_on_c, 14, 42, 0
19, 233340, Note_on_c, 14, 43, 90
19, 233369, Note_on_c, 14, 43, 0
19, 233370, Note_on_c, 14, 45, 90
19, 233399, Note_on_c, 14, 45, 0
19, 233400, Note_on_c, 14, 47, 90
19, 233459, Note_on_c, 14, 47, 0
19, 233460, Note_on_c, 14, 37, 90
19, 233519, Note_on_c, 14, 37, 0
19, 233520, Note_on_c, 14, 49, 90
19, 233579, Note_on_c, 14, 49, 0
19, 233640, Note_on_c, 14, 37, 90
19, 233669, Note_on_c, 14, 37, 0
19, 233670, Note_on_c, 14, 38, 90
19, 233699, Note_on_c, 14, 38, 0
19, 233700, Note_on_c, 14, 40, 90
19, 233729, Note_on_c, 14, 40, 0
19, 233730, Note_on_c, 14, 42, 90
19, 233759, Note_on_c, 14, 42, 0
19, 233760, Note_on_c, 14, 43, 90
19, 233819, Note_on_c, 14, 43, 0
19, 233820, Note_on_c, 14, 33, 90
19, 233879, Note_on_c, 14, 33, 0
19, 233880, Note_on_c, 14, 45, 90
19, 233939, Note_on_c, 14, 45, 0
19, 234000, Note_on_c, 14, 33, 90
19, 234029, Note_on_c, 14, 33, 0
19, 234030, Note_on_c, 14, 35, 90
19, 234059, Note_on_c, 14, 35, 0
19, 234060, Note_on_c, 14, 37, 90
19, 234089, Note_on_c, 14, 37, 0
19, 234090, Note_on_c, 14, 38, 90
19, 234119, Note_on_c, 14, 38, 0
19, 234120, Note_on_c, 14, 40, 90
19, 234179, Note_on_c, 14, 40, 0
19, 234180, Note_on_c, 14, 30, 90
19, 234239, Note_on_c, 14, 30, 0
19, 234240, Note_on_c, 14, 42, 90
19, 234299, Note_on_c, 14, 42, 0
19, 234360, Note_on_c, 14, 30, 90
19, 234389, Note_on_c, 14, 30, 0
19, 234390, Note_on_c, 14, 31, 90
19, 234419, Note_on_c, 14, 31, 0
19, 234420, Note_on_c, 14, 33, 90
19, 234449, Note_on_c, 14, 33, 0
19, 234450, Note_on_c, 14, 35, 90
19, 234479, Note_on_c, 14, 35, 0
19, 234480, Note_on_c, 14, 37, 90
19, 234539, Note_on_c, 14, 37, 0
19, 234540, Note_on_c, 14, 26, 90
19, 234599, Note_on_c, 14, 26, 0
19, 234600, Note_on_c, 14, 38, 90
19, 234659, Note_on_c, 14, 38, 0
19, 234900, Note_on_c, 14, 35, 90
19, 234959, Note_on_c, 14, 35, 0
19, 234960, Note_on_c, 14, 47, 90
19, 235019, Note_on_c, 14, 47, 0
19, 235260, Note_on_c, 14, 30, 90
19, 235289, Note_on_c, 14, 30, 0
19, 235290, Note_on_c, 14, 38, 90
19, 235319, Note_on_c, 14, 38, 0
19, 235320, Note_on_c, 14, 37, 90
19, 235349, Note_on_c, 14, 37, 0
19, 235350, Note_on_c, 14, 35, 90
19, 235379, Note_on_c, 14, 35, 0
19, 235380, Note_on_c, 14, 33, 90
19, 235409, Note_on_c, 14, 33, 0
19, 235410, Note_on_c, 14, 31, 90
19, 235439, Note_on_c, 14, 31, 0
19, 235440, Note_on_c, 14, 30, 90
19, 235469, Note_on_c, 14, 30, 0
19, 235470, Note_on_c, 14, 31, 90
19, 235499, Note_on_c, 14, 31, 0
19, 235500, Note_on_c, 14, 33, 90
19, 235529, Note_on_c, 14, 33, 0
19, 235530, Note_on_c, 14, 35, 90
19, 235559, Note_on_c, 14, 35, 0
19, 235560, Note_on_c, 14, 33, 90
19, 235589, Note_on_c, 14, 33, 0
19, 235590, Note_on_c, 14, 35, 90
19, 235619, Note_on_c, 14, 35, 0
19, 235620, Note_on_c, 14, 33, 90
19, 235649, Note_on_c, 14, 33, 0
19, 235650, Note_on_c, 14, 38, 90
19, 235679, Note_on_c, 14, 38, 0
19, 235680, Note_on_c, 14, 37, 90
19, 235709, Note_on_c, 14, 37, 0
19, 235710, Note_on_c, 14, 35, 90
19, 235739, Note_on_c, 14, 35, 0
19, 235740, Note_on_c, 14, 33, 90
19, 235769, Note_on_c, 14, 33, 0
19, 235770, Note_on_c, 14, 31, 90
19, 235799, Note_on_c, 14, 31, 0
19, 235800, Note_on_c, 14, 30, 90
19, 235829, Note_on_c, 14, 30, 0
19, 235830, Note_on_c, 14, 31, 90
19, 235859, Note_on_c, 14, 31, 0
19, 235860, Note_on_c, 14, 33, 90
19, 235889, Note_on_c, 14, 33, 0
19, 235890, Note_on_c, 14, 35, 90
19, 235919, Note_on_c, 14, 35, 0
19, 235920, Note_on_c, 14, 31, 90
19, 235949, Note_on_c, 14, 31, 0
19, 235950, Note_on_c, 14, 33, 90
19, 235979, Note_on_c, 14, 33, 0
19, 235980, Note_on_c, 14, 35, 90
19, 236039, Note_on_c, 14, 35, 0
19, 236040, Note_on_c, 14, 33, 90
19, 236069, Note_on_c, 14, 33, 0
19, 236070, Note_on_c, 14, 31, 90
19, 236099, Note_on_c, 14, 31, 0
19, 236100, Note_on_c, 14, 30, 90
19, 236129, Note_on_c, 14, 30, 0
19, 236130, Note_on_c, 14, 28, 90
19, 236159, Note_on_c, 14, 28, 0
19, 236160, Note_on_c, 14, 26, 90
19, 236189, Note_on_c, 14, 26, 0
19, 236190, Note_on_c, 14, 28, 90
19, 236219, Note_on_c, 14, 28, 0
19, 236220, Note_on_c, 14, 30, 90
19, 236249, Note_on_c, 14, 30, 0
19, 236250, Note_on_c, 14, 31, 90
19, 236279, Note_on_c, 14, 31, 0
19, 236280, Note_on_c, 14, 33, 90
19, 236339, Note_on_c, 14, 33, 0
19, 236340, Note_on_c, 14, 38, 90
19, 236399, Note_on_c, 14, 38, 0
19, 236400, Note_on_c, 14, 35, 90
19, 236459, Note_on_c, 14, 35, 0
19, 236460, Note_on_c, 14, 30, 90
19, 236519, Note_on_c, 14, 30, 0
19, 236520, Note_on_c, 14, 31, 90
19, 236579, Note_on_c, 14, 31, 0
19, 236580, Note_on_c, 14, 33, 90
19, 236699, Note_on_c, 14, 33, 0
19, 236700, Note_on_c, 14, 26, 90
19, 236819, Note_on_c, 14, 26, 0
19, 236819, End_track
20, 0, Start_track
20, 0, MIDI_port, 0
20, 0, Title_t, "continuo high"
20, 0, Program_c, 15, 6
20, 0, Control_c, 15, 7, 127
20, 0, Control_c, 15, 10, 84
20, 49470, Program_c, 15, 20
20, 49500, Control_c, 15, 0, 0
20, 49500, Note_on_c, 15, 66, 81
20, 49500, Note_on_c, 15, 62, 81
20, 49618, Note_on_c, 15, 62, 0
20, 49618, Note_on_c, 15, 66, 0
20, 49680, Note_on_c, 15, 66, 81
20, 49680, Note_on_c, 15, 62, 81
20, 49738, Note_on_c, 15, 62, 0
20, 49738, Note_on_c, 15, 66, 0
20, 49740, Note_on_c, 15, 64, 81
20, 49858, Note_on_c, 15, 64, 0
20, 49920, Note_on_c, 15, 61, 81
20, 49920, Note_on_c, 15, 59, 81
20, 49978, Note_on_c, 15, 59, 0
20, 49980, Note_on_c, 15, 58, 81
20, 50098, Note_on_c, 15, 58, 0
20, 50098, Note_on_c, 15, 61, 0
20, 50160, Note_on_c, 15, 61, 81
20, 50160, Note_on_c, 15, 58, 81
20, 50218, Note_on_c, 15, 58, 0
20, 50218, Note_on_c, 15, 61, 0
20, 50220, Note_on_c, 15, 57, 81
20, 50220, Note_on_c, 15, 54, 81
20, 50338, Note_on_c, 15, 54, 0
20, 50338, Note_on_c, 15, 57, 0
20, 50400, Note_on_c, 15, 66, 81
20, 50400, Note_on_c, 15, 64, 81
20, 50400, Note_on_c, 15, 61, 81
20, 50458, Note_on_c, 15, 61, 0
20, 50458, Note_on_c, 15, 64, 0
20, 50458, Note_on_c, 15, 66, 0
20, 50460, Note_on_c, 15, 66, 81
20, 50460, Note_on_c, 15, 63, 81
20, 50460, Note_on_c, 15, 59, 81
20, 50578, Note_on_c, 15, 59, 0
20, 50578, Note_on_c, 15, 63, 0
20, 50578, Note_on_c, 15, 66, 0
20, 50640, Note_on_c, 15, 66, 81
20, 50640, Note_on_c, 15, 63, 81
20, 50698, Note_on_c, 15, 63, 0
20, 50698, Note_on_c, 15, 66, 0
20, 50700, Note_on_c, 15, 64, 81
20, 50700, Note_on_c, 15, 61, 81
20, 50818, Note_on_c, 15, 61, 0
20, 50818, Note_on_c, 15, 64, 0
20, 50880, Note_on_c, 15, 71, 81
20, 50880, Note_on_c, 15, 68, 81
20, 50880, Note_on_c, 15, 66, 81
20, 50938, Note_on_c, 15, 66, 0
20, 50938, Note_on_c, 15, 68, 0
20, 50938, Note_on_c, 15, 71, 0
20, 50940, Note_on_c, 15, 71, 81
20, 50940, Note_on_c, 15, 68, 81
20, 50940, Note_on_c, 15, 65, 81
20, 51058, Note_on_c, 15, 65, 0
20, 51058, Note_on_c, 15, 68, 0
20, 51058, Note_on_c, 15, 71, 0
20, 51120, Note_on_c, 15, 65, 81
20, 51120, Note_on_c, 15, 68, 81
20, 51178, Note_on_c, 15, 68, 0
20, 51178, Note_on_c, 15, 65, 0
20, 51180, Note_on_c, 15, 66, 81
20, 51180, Note_on_c, 15, 61, 81
20, 51238, Note_on_c, 15, 61, 0
20, 51238, Note_on_c, 15, 66, 0
20, 51300, Note_on_c, 15, 62, 81
20, 51448, Note_on_c, 15, 62, 0
20, 51450, Note_on_c, 15, 64, 81
20, 51478, Note_on_c, 15, 64, 0
20, 51480, Note_on_c, 15, 62, 81
20, 51508, Note_on_c, 15, 62, 0
20, 51510, Note_on_c, 15, 61, 81
20, 51538, Note_on_c, 15, 61, 0
20, 51540, Note_on_c, 15, 61, 81
20, 51568, Note_on_c, 15, 61, 0
20, 51570, Note_on_c, 15, 62, 81
20, 51598, Note_on_c, 15, 62, 0
20, 51600, Note_on_c, 15, 59, 81
20, 51658, Note_on_c, 15, 59, 0
20, 51660, Note_on_c, 15, 59, 81
20, 51778, Note_on_c, 15, 59, 0
20, 51900, Note_on_c, 15, 62, 100
20, 51900, Note_on_c, 15, 66, 100
20, 52020, Note_on_c, 15, 66, 0
20, 52020, Note_on_c, 15, 62, 0
20, 52080, Note_on_c, 15, 62, 100
20, 52140, Note_on_c, 15, 62, 0
20, 52140, Note_on_c, 15, 64, 100
20, 52260, Note_on_c, 15, 64, 0
20, 52320, Note_on_c, 15, 61, 100
20, 52320, Note_on_c, 15, 64, 100
20, 52380, Note_on_c, 15, 64, 0
20, 52380, Note_on_c, 15, 61, 0
20, 52380, Note_on_c, 15, 61, 100
20, 52380, Note_on_c, 15, 64, 100
20, 52500, Note_on_c, 15, 64, 0
20, 52500, Note_on_c, 15, 61, 0
20, 52560, Note_on_c, 15, 58, 100
20, 52560, Note_on_c, 15, 61, 100
20, 52620, Note_on_c, 15, 61, 0
20, 52620, Note_on_c, 15, 58, 0
20, 52620, Note_on_c, 15, 59, 100
20, 52740, Note_on_c, 15, 59, 0
20, 52860, Note_on_c, 15, 69, 100
20, 52860, Note_on_c, 15, 66, 100
20, 52980, Note_on_c, 15, 66, 0
20, 52980, Note_on_c, 15, 69, 0
20, 53040, Note_on_c, 15, 63, 100
20, 53040, Note_on_c, 15, 66, 100
20, 53100, Note_on_c, 15, 66, 0
20, 53100, Note_on_c, 15, 63, 0
20, 53100, Note_on_c, 15, 59, 100
20, 53220, Note_on_c, 15, 59, 0
20, 53760, Note_on_c, 15, 55, 100
20, 53760, Note_on_c, 15, 61, 100
20, 53820, Note_on_c, 15, 61, 0
20, 53820, Note_on_c, 15, 55, 0
20, 53820, Note_on_c, 15, 54, 100
20, 53820, Note_on_c, 15, 61, 100
20, 53940, Note_on_c, 15, 61, 0
20, 53940, Note_on_c, 15, 54, 0
20, 54000, Note_on_c, 15, 61, 100
20, 54060, Note_on_c, 15, 61, 0
20, 54060, Note_on_c, 15, 62, 100
20, 54180, Note_on_c, 15, 62, 0
20, 54540, Note_on_c, 15, 64, 100
20, 54660, Note_on_c, 15, 64, 0
20, 54690, Note_on_c, 15, 64, 100
20, 54720, Note_on_c, 15, 64, 0
20, 54720, Note_on_c, 15, 62, 100
20, 54750, Note_on_c, 15, 62, 0
20, 54750, Note_on_c, 15, 61, 100
20, 54780, Note_on_c, 15, 61, 0
20, 54780, Note_on_c, 15, 54, 100
20, 54780, Note_on_c, 15, 57, 100
20, 54900, Note_on_c, 15, 57, 0
20, 54900, Note_on_c, 15, 54, 0
20, 54960, Note_on_c, 15, 59, 100
20, 54960, Note_on_c, 15, 66, 100
20, 55020, Note_on_c, 15, 66, 0
20, 55020, Note_on_c, 15, 59, 0
20, 55020, Note_on_c, 15, 64, 100
20, 55020, Note_on_c, 15, 59, 100
20, 55140, Note_on_c, 15, 59, 0
20, 55140, Note_on_c, 15, 64, 0
20, 55260, Note_on_c, 15, 52, 100
20, 55260, Note_on_c, 15, 55, 100
20, 55380, Note_on_c, 15, 55, 0
20, 55380, Note_on_c, 15, 52, 0
20, 55440, Note_on_c, 15, 64, 100
20, 55440, Note_on_c, 15, 57, 100
20, 55500, Note_on_c, 15, 57, 0
20, 55500, Note_on_c, 15, 64, 0
20, 55500, Note_on_c, 15, 62, 100
20, 55500, Note_on_c, 15, 57, 100
20, 55620, Note_on_c, 15, 57, 0
20, 55620, Note_on_c, 15, 62, 0
20, 55740, Note_on_c, 15, 59, 100
20, 55770, Note_on_c, 15, 59, 0
20, 55770, Note_on_c, 15, 71, 100
20, 55800, Note_on_c, 15, 71, 0
20, 55800, Note_on_c, 15, 69, 100
20, 55830, Note_on_c, 15, 69, 0
20, 55830, Note_on_c, 15, 67, 100
20, 55860, Note_on_c, 15, 67, 0
20, 55860, Note_on_c, 15, 66, 100
20, 55890, Note_on_c, 15, 66, 0
20, 55890, Note_on_c, 15, 64, 100
20, 55920, Note_on_c, 15, 64, 0
20, 55920, Note_on_c, 15, 67, 100
20, 55950, Note_on_c, 15, 67, 0
20, 55950, Note_on_c, 15, 61, 100
20, 55980, Note_on_c, 15, 61, 0
20, 55980, Note_on_c, 15, 64, 100
20, 56010, Note_on_c, 15, 64, 0
20, 56010, Note_on_c, 15, 61, 100
20, 56040, Note_on_c, 15, 61, 0
20, 56040, Note_on_c, 15, 62, 100
20, 56100, Note_on_c, 15, 62, 0
20, 56220, Note_on_c, 15, 59, 100
20, 56220, Note_on_c, 15, 62, 100
20, 56340, Note_on_c, 15, 62, 0
20, 56340, Note_on_c, 15, 59, 0
20, 56400, Note_on_c, 15, 59, 100
20, 56460, Note_on_c, 15, 59, 0
20, 56460, Note_on_c, 15, 55, 100
20, 56460, Note_on_c, 15, 59, 100
20, 56580, Note_on_c, 15, 59, 0
20, 56580, Note_on_c, 15, 55, 0
20, 56640, Note_on_c, 15, 67, 100
20, 56640, Note_on_c, 15, 64, 100
20, 56640, Note_on_c, 15, 62, 100
20, 56700, Note_on_c, 15, 62, 0
20, 56700, Note_on_c, 15, 64, 0
20, 56700, Note_on_c, 15, 67, 0
20, 56700, Note_on_c, 15, 61, 100
20, 56700, Note_on_c, 15, 64, 100
20, 56700, Note_on_c, 15, 67, 100
20, 56760, Note_on_c, 15, 52, 100
20, 56820, Note_on_c, 15, 52, 0
20, 56820, Note_on_c, 15, 61, 0
20, 56820, Note_on_c, 15, 64, 0
20, 56820, Note_on_c, 15, 67, 0
20, 56820, Note_on_c, 15, 57, 100
20, 56880, Note_on_c, 15, 61, 100
20, 56940, Note_on_c, 15, 61, 0
20, 56940, Note_on_c, 15, 62, 100
20, 57000, Note_on_c, 15, 57, 0
20, 57000, Note_on_c, 15, 59, 100
20, 57060, Note_on_c, 15, 59, 0
20, 57060, Note_on_c, 15, 62, 0
20, 57060, Note_on_c, 15, 55, 100
20, 57120, Note_on_c, 15, 59, 100
20, 57180, Note_on_c, 15, 59, 0
20, 57180, Note_on_c, 15, 64, 100
20, 57240, Note_on_c, 15, 55, 0
20, 57240, Note_on_c, 15, 57, 100
20, 57300, Note_on_c, 15, 57, 0
20, 57300, Note_on_c, 15, 64, 0
20, 57300, Note_on_c, 15, 54, 100
20, 57420, Note_on_c, 15, 62, 100
20, 57480, Note_on_c, 15, 54, 0
20, 57480, Note_on_c, 15, 52, 100
20, 57540, Note_on_c, 15, 52, 0
20, 57540, Note_on_c, 15, 62, 0
20, 57540, Note_on_c, 15, 55, 100
20, 57540, Note_on_c, 15, 61, 100
20, 57630, Note_on_c, 15, 61, 0
20, 57630, Note_on_c, 15, 55, 0
20, 57630, Note_on_c, 15, 62, 100
20, 57630, Note_on_c, 15, 54, 100
20, 57660, Note_on_c, 15, 54, 0
20, 57660, Note_on_c, 15, 62, 0
20, 57660, Note_on_c, 15, 54, 100
20, 57660, Note_on_c, 15, 62, 100
20, 57780, Note_on_c, 15, 62, 0
20, 57780, Note_on_c, 15, 54, 0
20, 57900, Note_on_c, 15, 57, 100
20, 58020, Note_on_c, 15, 57, 0
20, 58020, Note_on_c, 15, 64, 100
20, 58020, Note_on_c, 15, 61, 100
20, 58020, Note_on_c, 15, 57, 100
20, 58140, Note_on_c, 15, 57, 0
20, 58140, Note_on_c, 15, 61, 0
20, 58140, Note_on_c, 15, 64, 0
20, 58140, Note_on_c, 15, 55, 100
20, 58140, Note_on_c, 15, 59, 100
20, 58140, Note_on_c, 15, 64, 100
20, 58200, Note_on_c, 15, 59, 100
20, 58230, Note_on_c, 15, 59, 0
20, 58230, Note_on_c, 15, 57, 100
20, 58260, Note_on_c, 15, 57, 0
20, 58260, Note_on_c, 15, 64, 0
20, 58260, Note_on_c, 15, 59, 0
20, 58260, Note_on_c, 15, 55, 0
20, 58260, Note_on_c, 15, 61, 100
20, 58290, Note_on_c, 15, 61, 0
20, 58290, Note_on_c, 15, 59, 100
20, 58320, Note_on_c, 15, 59, 0
20, 58320, Note_on_c, 15, 57, 100
20, 58350, Note_on_c, 15, 57, 0
20, 58350, Note_on_c, 15, 55, 100
20, 58380, Note_on_c, 15, 55, 0
20, 58380, Note_on_c, 15, 59, 100
20, 58380, Note_on_c, 15, 62, 100
20, 58380, Note_on_c, 15, 66, 100
20, 58500, Note_on_c, 15, 66, 0
20, 58500, Note_on_c, 15, 62, 0
20, 58500, Note_on_c, 15, 59, 0
20, 58500, Note_on_c, 15, 59, 100
20, 58500, Note_on_c, 15, 62, 100
20, 58500, Note_on_c, 15, 66, 100
20, 58620, Note_on_c, 15, 66, 0
20, 58620, Note_on_c, 15, 62, 0
20, 58620, Note_on_c, 15, 59, 0
20, 58620, Note_on_c, 15, 58, 100
20, 58620, Note_on_c, 15, 61, 100
20, 58620, Note_on_c, 15, 66, 100
20, 58740, Note_on_c, 15, 66, 0
20, 58740, Note_on_c, 15, 61, 0
20, 58740, Note_on_c, 15, 58, 0
20, 58860, Note_on_c, 15, 78, 100
20, 58860, Note_on_c, 15, 57, 100
20, 58860, Note_on_c, 15, 62, 100
20, 58860, Note_on_c, 15, 66, 100
20, 58890, Note_on_c, 15, 78, 0
20, 58890, Note_on_c, 15, 76, 100
20, 58920, Note_on_c, 15, 76, 0
20, 58920, Note_on_c, 15, 74, 100
20, 58980, Note_on_c, 15, 74, 0
20, 58980, Note_on_c, 15, 57, 0
20, 58980, Note_on_c, 15, 62, 0
20, 58980, Note_on_c, 15, 66, 0
20, 58980, Note_on_c, 15, 76, 100
20, 58980, Note_on_c, 15, 59, 100
20, 58980, Note_on_c, 15, 64, 100
20, 59040, Note_on_c, 15, 76, 0
20, 59040, Note_on_c, 15, 71, 100
20, 59100, Note_on_c, 15, 71, 0
20, 59100, Note_on_c, 15, 64, 0
20, 59100, Note_on_c, 15, 59, 0
20, 59100, Note_on_c, 15, 73, 100
20, 59100, Note_on_c, 15, 61, 100
20, 59100, Note_on_c, 15, 64, 100
20, 59160, Note_on_c, 15, 73, 0
20, 59160, Note_on_c, 15, 69, 100
20, 59220, Note_on_c, 15, 69, 0
20, 59220, Note_on_c, 15, 64, 0
20, 59220, Note_on_c, 15, 61, 0
20, 59220, Note_on_c, 15, 59, 100
20, 59220, Note_on_c, 15, 62, 100
20, 59280, Note_on_c, 15, 74, 100
20, 59310, Note_on_c, 15, 74, 0
20, 59310, Note_on_c, 15, 73, 100
20, 59340, Note_on_c, 15, 73, 0
20, 59340, Note_on_c, 15, 62, 0
20, 59340, Note_on_c, 15, 59, 0
20, 59340, Note_on_c, 15, 71, 100
20, 59340, Note_on_c, 15, 59, 100
20, 59340, Note_on_c, 15, 62, 100
20, 59370, Note_on_c, 15, 71, 0
20, 59370, Note_on_c, 15, 69, 100
20, 59400, Note_on_c, 15, 69, 0
20, 59400, Note_on_c, 15, 68, 100
20, 59430, Note_on_c, 15, 68, 0
20, 59430, Note_on_c, 15, 66, 100
20, 59460, Note_on_c, 15, 66, 0
20, 59460, Note_on_c, 15, 62, 0
20, 59460, Note_on_c, 15, 59, 0
20, 59460, Note_on_c, 15, 73, 100
20, 59520, Note_on_c, 15, 73, 0
20, 59520, Note_on_c, 15, 68, 100
20, 59580, Note_on_c, 15, 68, 0
20, 59580, Note_on_c, 15, 69, 100
20, 59640, Note_on_c, 15, 69, 0
20, 59640, Note_on_c, 15, 66, 100
20, 59700, Note_on_c, 15, 66, 0
20, 59760, Note_on_c, 15, 66, 100
20, 59820, Note_on_c, 15, 66, 0
20, 59820, Note_on_c, 15, 73, 100
20, 59850, Note_on_c, 15, 73, 0
20, 59850, Note_on_c, 15, 74, 100
20, 59880, Note_on_c, 15, 74, 0
20, 59880, Note_on_c, 15, 73, 100
20, 59910, Note_on_c, 15, 73, 0
20, 59910, Note_on_c, 15, 71, 100
20, 59940, Note_on_c, 15, 71, 0
20, 59940, Note_on_c, 15, 66, 100
20, 59940, Note_on_c, 15, 70, 100
20, 59970, Note_on_c, 15, 70, 0
20, 59970, Note_on_c, 15, 66, 0
20, 59970, Note_on_c, 15, 64, 100
20, 59970, Note_on_c, 15, 67, 100
20, 60000, Note_on_c, 15, 67, 0
20, 60000, Note_on_c, 15, 64, 0
20, 60000, Note_on_c, 15, 62, 100
20, 60000, Note_on_c, 15, 66, 100
20, 60030, Note_on_c, 15, 66, 0
20, 60030, Note_on_c, 15, 62, 0
20, 60030, Note_on_c, 15, 61, 100
20, 60030, Note_on_c, 15, 64, 100
20, 60060, Note_on_c, 15, 64, 0
20, 60060, Note_on_c, 15, 61, 0
20, 60060, Note_on_c, 15, 62, 100
20, 60060, Note_on_c, 15, 54, 100
20, 60090, Note_on_c, 15, 54, 0
20, 60090, Note_on_c, 15, 62, 0
20, 60090, Note_on_c, 15, 64, 100
20, 60090, Note_on_c, 15, 55, 100
20, 60120, Note_on_c, 15, 55, 0
20, 60120, Note_on_c, 15, 64, 0
20, 60120, Note_on_c, 15, 66, 100
20, 60120, Note_on_c, 15, 54, 100
20, 60150, Note_on_c, 15, 54, 0
20, 60150, Note_on_c, 15, 66, 0
20, 60150, Note_on_c, 15, 68, 100
20, 60150, Note_on_c, 15, 52, 100
20, 60180, Note_on_c, 15, 52, 0
20, 60180, Note_on_c, 15, 68, 0
20, 60180, Note_on_c, 15, 69, 100
20, 60240, Note_on_c, 15, 69, 0
20, 60240, Note_on_c, 15, 66, 100
20, 60240, Note_on_c, 15, 61, 100
20, 60300, Note_on_c, 15, 61, 0
20, 60300, Note_on_c, 15, 66, 0
20, 60300, Note_on_c, 15, 60, 100
20, 60300, Note_on_c, 15, 63, 100
20, 60300, Note_on_c, 15, 66, 100
20, 60420, Note_on_c, 15, 66, 0
20, 60420, Note_on_c, 15, 63, 0
20, 60420, Note_on_c, 15, 60, 0
20, 60480, Note_on_c, 15, 60, 100
20, 60480, Note_on_c, 15, 63, 100
20, 60540, Note_on_c, 15, 63, 0
20, 60540, Note_on_c, 15, 60, 0
20, 60540, Note_on_c, 15, 65, 100
20, 60540, Note_on_c, 15, 61, 100
20, 60660, Note_on_c, 15, 61, 0
20, 60660, Note_on_c, 15, 65, 0
20, 60690, Note_on_c, 15, 71, 100
20, 60690, Note_on_c, 15, 67, 100
20, 60720, Note_on_c, 15, 67, 0
20, 60720, Note_on_c, 15, 71, 0
20, 60720, Note_on_c, 15, 69, 100
20, 60720, Note_on_c, 15, 66, 100
20, 60750, Note_on_c, 15, 66, 0
20, 60750, Note_on_c, 15, 69, 0
20, 60750, Note_on_c, 15, 68, 100
20, 60750, Note_on_c, 15, 65, 100
20, 60780, Note_on_c, 15, 65, 0
20, 60780, Note_on_c, 15, 68, 0
20, 60780, Note_on_c, 15, 66, 100
20, 60810, Note_on_c, 15, 66, 0
20, 60810, Note_on_c, 15, 67, 100
20, 60840, Note_on_c, 15, 67, 0
20, 60840, Note_on_c, 15, 69, 100
20, 60870, Note_on_c, 15, 69, 0
20, 60870, Note_on_c, 15, 66, 100
20, 60900, Note_on_c, 15, 66, 0
20, 60900, Note_on_c, 15, 68, 100
20, 60900, Note_on_c, 15, 65, 100
20, 61020, Note_on_c, 15, 65, 0
20, 61020, Note_on_c, 15, 68, 0
20, 61020, Note_on_c, 15, 69, 100
20, 61020, Note_on_c, 15, 66, 100
20, 61020, Note_on_c, 15, 61, 100
20, 61080, Note_on_c, 15, 61, 0
20, 61080, Note_on_c, 15, 66, 0
20, 61080, Note_on_c, 15, 69, 0
20, 74460, Control_c, 15, 0, 0
20, 74535, Control_c, 15, 0, 0
20, 74535, Program_c, 15, 6
20, 74820, Note_on_c, 15, 64, 100
20, 74820, Note_on_c, 15, 68, 100
20, 74878, Note_on_c, 15, 68, 0
20, 74880, Note_on_c, 15, 69, 100
20, 74908, Note_on_c, 15, 69, 0
20, 74910, Note_on_c, 15, 71, 100
20, 74938, Note_on_c, 15, 71, 0
20, 74940, Note_on_c, 15, 71, 100
20, 74998, Note_on_c, 15, 71, 0
20, 75000, Note_on_c, 15, 69, 100
20, 75058, Note_on_c, 15, 69, 0
20, 75058, Note_on_c, 15, 64, 0
20, 75060, Note_on_c, 15, 64, 100
20, 75060, Note_on_c, 15, 69, 100
20, 75118, Note_on_c, 15, 69, 0
20, 75120, Note_on_c, 15, 68, 100
20, 75178, Note_on_c, 15, 68, 0
20, 75180, Note_on_c, 15, 66, 100
20, 75238, Note_on_c, 15, 64, 0
20, 75240, Note_on_c, 15, 62, 100
20, 75268, Note_on_c, 15, 62, 0
20, 75270, Note_on_c, 15, 64, 100
20, 75298, Note_on_c, 15, 64, 0
20, 75298, Note_on_c, 15, 66, 0
20, 75300, Note_on_c, 15, 66, 100
20, 75300, Note_on_c, 15, 71, 100
20, 75358, Note_on_c, 15, 71, 0
20, 75358, Note_on_c, 15, 66, 0
20, 75360, Note_on_c, 15, 66, 100
20, 75360, Note_on_c, 15, 69, 100
20, 75360, Note_on_c, 15, 62, 100
20, 75418, Note_on_c, 15, 69, 0
20, 75418, Note_on_c, 15, 66, 0
20, 75420, Note_on_c, 15, 66, 100
20, 75420, Note_on_c, 15, 68, 100
20, 75420, Note_on_c, 15, 62, 100
20, 75478, Note_on_c, 15, 66, 0
20, 75480, Note_on_c, 15, 59, 100
20, 75538, Note_on_c, 15, 59, 0
20, 75540, Note_on_c, 15, 76, 100
20, 75540, Note_on_c, 15, 61, 100
20, 75598, Note_on_c, 15, 62, 0
20, 75598, Note_on_c, 15, 62, 0
20, 75598, Note_on_c, 15, 68, 0
20, 75600, Note_on_c, 15, 69, 100
20, 75628, Note_on_c, 15, 69, 0
20, 75630, Note_on_c, 15, 68, 100
20, 75658, Note_on_c, 15, 68, 0
20, 75658, Note_on_c, 15, 61, 0
20, 75660, Note_on_c, 15, 66, 100
20, 75718, Note_on_c, 15, 76, 0
20, 75720, Note_on_c, 15, 69, 100
20, 75720, Note_on_c, 15, 62, 100
20, 75748, Note_on_c, 15, 62, 0
20, 75750, Note_on_c, 15, 61, 100
20, 75778, Note_on_c, 15, 61, 0
20, 75778, Note_on_c, 15, 69, 0
20, 75780, Note_on_c, 15, 74, 100
20, 75780, Note_on_c, 15, 59, 100
20, 75838, Note_on_c, 15, 66, 0
20, 75840, Note_on_c, 15, 68, 100
20, 75868, Note_on_c, 15, 68, 0
20, 75870, Note_on_c, 15, 66, 100
20, 75898, Note_on_c, 15, 66, 0
20, 75900, Note_on_c, 15, 59, 0
20, 75900, Note_on_c, 15, 64, 100
20, 75900, Note_on_c, 15, 52, 100
20, 75920, Note_on_c, 15, 52, 0
20, 75930, Note_on_c, 15, 56, 100
20, 75950, Note_on_c, 15, 56, 0
20, 75958, Note_on_c, 15, 64, 0
20, 75958, Note_on_c, 15, 74, 0
20, 75960, Note_on_c, 15, 73, 100
20, 75960, Note_on_c, 15, 57, 100
20, 75980, Note_on_c, 15, 57, 0
20, 75988, Note_on_c, 15, 73, 0
20, 75990, Note_on_c, 15, 71, 100
20, 75990, Note_on_c, 15, 62, 100
20, 75990, Note_on_c, 15, 59, 100
20, 76010, Note_on_c, 15, 59, 0
20, 76018, Note_on_c, 15, 62, 0
20, 76018, Note_on_c, 15, 71, 0
20, 76020, Note_on_c, 15, 61, 100
20, 76020, Note_on_c, 15, 69, 100
20, 76078, Note_on_c, 15, 61, 0
20, 76080, Note_on_c, 15, 62, 100
20, 76108, Note_on_c, 15, 62, 0
20, 76110, Note_on_c, 15, 61, 100
20, 76138, Note_on_c, 15, 61, 0
20, 76138, Note_on_c, 15, 69, 0
20, 76140, Note_on_c, 15, 66, 100
20, 76168, Note_on_c, 15, 66, 0
20, 76170, Note_on_c, 15, 64, 100
20, 76198, Note_on_c, 15, 64, 0
20, 76200, Note_on_c, 15, 62, 100
20, 76200, Note_on_c, 15, 68, 100
20, 76228, Note_on_c, 15, 68, 0
20, 76228, Note_on_c, 15, 62, 0
20, 76230, Note_on_c, 15, 61, 100
20, 76230, Note_on_c, 15, 69, 100
20, 76258, Note_on_c, 15, 69, 0
20, 76258, Note_on_c, 15, 61, 0
20, 76260, Note_on_c, 15, 64, 100
20, 76260, Note_on_c, 15, 69, 100
20, 76260, Note_on_c, 15, 73, 100
20, 76318, Note_on_c, 15, 73, 0
20, 76318, Note_on_c, 15, 69, 0
20, 76318, Note_on_c, 15, 64, 0
20, 76320, Note_on_c, 15, 64, 100
20, 76320, Note_on_c, 15, 62, 100
20, 76320, Note_on_c, 15, 71, 100
20, 76320, Note_on_c, 15, 68, 100
20, 76348, Note_on_c, 15, 68, 0
20, 76348, Note_on_c, 15, 71, 0
20, 76350, Note_on_c, 15, 69, 100
20, 76378, Note_on_c, 15, 69, 0
20, 76378, Note_on_c, 15, 62, 0
20, 76378, Note_on_c, 15, 64, 0
20, 76380, Note_on_c, 15, 61, 100
20, 76380, Note_on_c, 15, 64, 100
20, 76380, Note_on_c, 15, 69, 100
20, 76438, Note_on_c, 15, 69, 0
20, 76438, Note_on_c, 15, 64, 0
20, 76438, Note_on_c, 15, 61, 0
20, 76500, Note_on_c, 15, 69, 100
20, 76500, Note_on_c, 15, 64, 100
20, 76500, Note_on_c, 15, 61, 100
20, 76500, Note_on_c, 15, 57, 100
20, 76618, Note_on_c, 15, 57, 0
20, 76618, Note_on_c, 15, 69, 0
20, 76618, Note_on_c, 15, 64, 0
20, 76618, Note_on_c, 15, 61, 0
20, 76620, Note_on_c, 15, 64, 100
20, 76620, Note_on_c, 15, 69, 100
20, 76620, Note_on_c, 15, 73, 100
20, 76738, Note_on_c, 15, 73, 0
20, 76738, Note_on_c, 15, 69, 0
20, 76738, Note_on_c, 15, 64, 0
20, 76740, Note_on_c, 15, 64, 100
20, 76740, Note_on_c, 15, 68, 100
20, 76798, Note_on_c, 15, 68, 0
20, 76800, Note_on_c, 15, 69, 100
20, 76828, Note_on_c, 15, 69, 0
20, 76830, Note_on_c, 15, 71, 100
20, 76858, Note_on_c, 15, 71, 0
20, 76860, Note_on_c, 15, 71, 100
20, 76918, Note_on_c, 15, 71, 0
20, 76918, Note_on_c, 15, 64, 0
20, 76920, Note_on_c, 15, 69, 100
20, 76948, Note_on_c, 15, 69, 0
20, 76950, Note_on_c, 15, 68, 100
20, 76978, Note_on_c, 15, 68, 0
20, 76980, Note_on_c, 15, 66, 100
20, 77038, Note_on_c, 15, 66, 0
20, 77040, Note_on_c, 15, 64, 100
20, 77098, Note_on_c, 15, 64, 0
20, 77100, Note_on_c, 15, 62, 100
20, 77218, Note_on_c, 15, 62, 0
20, 77220, Note_on_c, 15, 62, 100
20, 77220, Note_on_c, 15, 71, 100
20, 77278, Note_on_c, 15, 71, 0
20, 77278, Note_on_c, 15, 62, 0
20, 77280, Note_on_c, 15, 64, 100
20, 77280, Note_on_c, 15, 69, 100
20, 77308, Note_on_c, 15, 64, 0
20, 77310, Note_on_c, 15, 66, 100
20, 77338, Note_on_c, 15, 66, 0
20, 77338, Note_on_c, 15, 69, 0
20, 77340, Note_on_c, 15, 68, 100
20, 77400, Note_on_c, 15, 66, 100
20, 77428, Note_on_c, 15, 66, 0
20, 77430, Note_on_c, 15, 64, 100
20, 77458, Note_on_c, 15, 64, 0
20, 77460, Note_on_c, 15, 73, 100
20, 77460, Note_on_c, 15, 61, 100
20, 77518, Note_on_c, 15, 73, 0
20, 77520, Note_on_c, 15, 71, 100
20, 77578, Note_on_c, 15, 71, 0
20, 77578, Note_on_c, 15, 68, 0
20, 77580, Note_on_c, 15, 69, 100
20, 77580, Note_on_c, 15, 66, 100
20, 77638, Note_on_c, 15, 61, 0
20, 77640, Note_on_c, 15, 62, 100
20, 77668, Note_on_c, 15, 62, 0
20, 77670, Note_on_c, 15, 61, 100
20, 77698, Note_on_c, 15, 61, 0
20, 77698, Note_on_c, 15, 66, 0
20, 77698, Note_on_c, 15, 69, 0
20, 77700, Note_on_c, 15, 62, 100
20, 77700, Note_on_c, 15, 59, 100
20, 77730, Note_on_c, 15, 69, 100
20, 77758, Note_on_c, 15, 69, 0
20, 77758, Note_on_c, 15, 59, 0
20, 77760, Note_on_c, 15, 68, 100
20, 77788, Note_on_c, 15, 68, 0
20, 77790, Note_on_c, 15, 66, 100
20, 77818, Note_on_c, 15, 66, 0
20, 77820, Note_on_c, 15, 64, 100
20, 77850, Note_on_c, 15, 52, 100
20, 77878, Note_on_c, 15, 62, 0
20, 77880, Note_on_c, 15, 52, 0
20, 77880, Note_on_c, 15, 52, 100
20, 77880, Note_on_c, 15, 73, 100
20, 77908, Note_on_c, 15, 73, 0
20, 77908, Note_on_c, 15, 64, 0
20, 77910, Note_on_c, 15, 52, 0
20, 77910, Note_on_c, 15, 56, 100
20, 77910, Note_on_c, 15, 71, 100
20, 77910, Note_on_c, 15, 62, 100
20, 77938, Note_on_c, 15, 62, 0
20, 77938, Note_on_c, 15, 71, 0
20, 77940, Note_on_c, 15, 56, 0
20, 77940, Note_on_c, 15, 61, 100
20, 77940, Note_on_c, 15, 69, 100
20, 77998, Note_on_c, 15, 61, 0
20, 78000, Note_on_c, 15, 62, 100
20, 78028, Note_on_c, 15, 62, 0
20, 78030, Note_on_c, 15, 61, 100
20, 78058, Note_on_c, 15, 61, 0
20, 78060, Note_on_c, 15, 66, 100
20, 78088, Note_on_c, 15, 66, 0
20, 78090, Note_on_c, 15, 64, 100
20, 78118, Note_on_c, 15, 64, 0
20, 78118, Note_on_c, 15, 69, 0
20, 78120, Note_on_c, 15, 62, 100
20, 78120, Note_on_c, 15, 68, 100
20, 78148, Note_on_c, 15, 68, 0
20, 78148, Note_on_c, 15, 62, 0
20, 78150, Note_on_c, 15, 61, 100
20, 78150, Note_on_c, 15, 69, 100
20, 78178, Note_on_c, 15, 69, 0
20, 78178, Note_on_c, 15, 61, 0
20, 78180, Note_on_c, 15, 64, 100
20, 78180, Note_on_c, 15, 73, 100
20, 78180, Note_on_c, 15, 69, 100
20, 78238, Note_on_c, 15, 69, 0
20, 78238, Note_on_c, 15, 73, 0
20, 78238, Note_on_c, 15, 64, 0
20, 78240, Note_on_c, 15, 62, 100
20, 78240, Note_on_c, 15, 64, 100
20, 78240, Note_on_c, 15, 68, 100
20, 78240, Note_on_c, 15, 71, 100
20, 78268, Note_on_c, 15, 71, 0
20, 78270, Note_on_c, 15, 69, 100
20, 78298, Note_on_c, 15, 69, 0
20, 78298, Note_on_c, 15, 68, 0
20, 78298, Note_on_c, 15, 64, 0
20, 78298, Note_on_c, 15, 62, 0
20, 78300, Note_on_c, 15, 69, 100
20, 78300, Note_on_c, 15, 64, 100
20, 78300, Note_on_c, 15, 61, 100
20, 78358, Note_on_c, 15, 61, 0
20, 78358, Note_on_c, 15, 64, 0
20, 78358, Note_on_c, 15, 69, 0
20, 78420, Note_on_c, 15, 69, 100
20, 78420, Note_on_c, 15, 64, 100
20, 78420, Note_on_c, 15, 61, 100
20, 78420, Note_on_c, 15, 57, 100
20, 78538, Note_on_c, 15, 57, 0
20, 78538, Note_on_c, 15, 69, 0
20, 78538, Note_on_c, 15, 64, 0
20, 78538, Note_on_c, 15, 61, 0
20, 78540, Note_on_c, 15, 73, 100
20, 78540, Note_on_c, 15, 64, 100
20, 78540, Note_on_c, 15, 69, 100
20, 78540, Note_on_c, 15, 61, 100
20, 78658, Note_on_c, 15, 61, 0
20, 78658, Note_on_c, 15, 73, 0
20, 78658, Note_on_c, 15, 64, 0
20, 78658, Note_on_c, 15, 69, 0
20, 78660, Note_on_c, 15, 71, 100
20, 78718, Note_on_c, 15, 71, 0
20, 78720, Note_on_c, 15, 71, 100
20, 78778, Note_on_c, 15, 71, 0
20, 78780, Note_on_c, 15, 71, 100
20, 78838, Note_on_c, 15, 71, 0
20, 78840, Note_on_c, 15, 69, 100
20, 78868, Note_on_c, 15, 69, 0
20, 78870, Note_on_c, 15, 68, 100
20, 78898, Note_on_c, 15, 68, 0
20, 78900, Note_on_c, 15, 66, 100
20, 78900, Note_on_c, 15, 57, 100
20, 78958, Note_on_c, 15, 57, 0
20, 78958, Note_on_c, 15, 66, 0
20, 78960, Note_on_c, 15, 64, 100
20, 78960, Note_on_c, 15, 57, 100
20, 79018, Note_on_c, 15, 57, 0
20, 79018, Note_on_c, 15, 64, 0
20, 79020, Note_on_c, 15, 62, 100
20, 79020, Note_on_c, 15, 57, 100
20, 79078, Note_on_c, 15, 57, 0
20, 79080, Note_on_c, 15, 56, 100
20, 79108, Note_on_c, 15, 56, 0
20, 79110, Note_on_c, 15, 57, 100
20, 79138, Note_on_c, 15, 57, 0
20, 79138, Note_on_c, 15, 62, 0
20, 79140, Note_on_c, 15, 59, 100
20, 79140, Note_on_c, 15, 71, 100
20, 79198, Note_on_c, 15, 71, 0
20, 79198, Note_on_c, 15, 59, 0
20, 79200, Note_on_c, 15, 62, 100
20, 79200, Note_on_c, 15, 73, 100
20, 79228, Note_on_c, 15, 73, 0
20, 79230, Note_on_c, 15, 74, 100
20, 79258, Note_on_c, 15, 74, 0
20, 79258, Note_on_c, 15, 62, 0
20, 79260, Note_on_c, 15, 76, 100
20, 79290, Note_on_c, 15, 59, 100
20, 79318, Note_on_c, 15, 76, 0
20, 79320, Note_on_c, 15, 59, 0
20, 79320, Note_on_c, 15, 61, 100
20, 79320, Note_on_c, 15, 73, 100
20, 79348, Note_on_c, 15, 73, 0
20, 79350, Note_on_c, 15, 61, 0
20, 79350, Note_on_c, 15, 64, 100
20, 79350, Note_on_c, 15, 71, 100
20, 79378, Note_on_c, 15, 71, 0
20, 79380, Note_on_c, 15, 64, 0
20, 79380, Note_on_c, 15, 69, 100
20, 79410, Note_on_c, 15, 61, 100
20, 79438, Note_on_c, 15, 61, 0
20, 79438, Note_on_c, 15, 69, 0
20, 79440, Note_on_c, 15, 64, 100
20, 79440, Note_on_c, 15, 73, 100
20, 79440, Note_on_c, 15, 69, 100
20, 79468, Note_on_c, 15, 64, 0
20, 79470, Note_on_c, 15, 66, 100
20, 79498, Note_on_c, 15, 66, 0
20, 79498, Note_on_c, 15, 69, 0
20, 79498, Note_on_c, 15, 73, 0
20, 79500, Note_on_c, 15, 66, 100
20, 79500, Note_on_c, 15, 71, 100
20, 79500, Note_on_c, 15, 68, 100
20, 79558, Note_on_c, 15, 66, 0
20, 79560, Note_on_c, 15, 64, 100
20, 79618, Note_on_c, 15, 64, 0
20, 79618, Note_on_c, 15, 68, 0
20, 79618, Note_on_c, 15, 71, 0
20, 79620, Note_on_c, 15, 68, 100
20, 79650, Note_on_c, 15, 59, 100
20, 79678, Note_on_c, 15, 59, 0
20, 79678, Note_on_c, 15, 68, 0
20, 79680, Note_on_c, 15, 64, 100
20, 79680, Note_on_c, 15, 71, 100
20, 79680, Note_on_c, 15, 68, 100
20, 79708, Note_on_c, 15, 64, 0
20, 79710, Note_on_c, 15, 66, 100
20, 79738, Note_on_c, 15, 66, 0
20, 79738, Note_on_c, 15, 68, 0
20, 79738, Note_on_c, 15, 71, 0
20, 79740, Note_on_c, 15, 66, 100
20, 79740, Note_on_c, 15, 73, 100
20, 79740, Note_on_c, 15, 69, 100
20, 79798, Note_on_c, 15, 66, 0
20, 79800, Note_on_c, 15, 64, 100
20, 79858, Note_on_c, 15, 64, 0
20, 79858, Note_on_c, 15, 69, 0
20, 79858, Note_on_c, 15, 73, 0
20, 79860, Note_on_c, 15, 73, 100
20, 79860, Note_on_c, 15, 64, 100
20, 79918, Note_on_c, 15, 64, 0
20, 79920, Note_on_c, 15, 69, 100
20, 79948, Note_on_c, 15, 69, 0
20, 79950, Note_on_c, 15, 68, 100
20, 79978, Note_on_c, 15, 68, 0
20, 79978, Note_on_c, 15, 73, 0
20, 79980, Note_on_c, 15, 66, 100
20, 80010, Note_on_c, 15, 71, 100
20, 80038, Note_on_c, 15, 71, 0
20, 80038, Note_on_c, 15, 66, 0
20, 80040, Note_on_c, 15, 64, 100
20, 80040, Note_on_c, 15, 59, 100
20, 80068, Note_on_c, 15, 59, 0
20, 80070, Note_on_c, 15, 59, 100
20, 80070, Note_on_c, 15, 69, 100
20, 80098, Note_on_c, 15, 69, 0
20, 80098, Note_on_c, 15, 59, 0
20, 80098, Note_on_c, 15, 64, 0
20, 80100, Note_on_c, 15, 68, 100
20, 80100, Note_on_c, 15, 64, 100
20, 80100, Note_on_c, 15, 59, 100
20, 80158, Note_on_c, 15, 59, 0
20, 80158, Note_on_c, 15, 64, 0
20, 80158, Note_on_c, 15, 68, 0
20, 80160, Note_on_c, 15, 59, 100
20, 80160, Note_on_c, 15, 57, 100
20, 80160, Note_on_c, 15, 66, 100
20, 80188, Note_on_c, 15, 66, 0
20, 80190, Note_on_c, 15, 64, 100
20, 80218, Note_on_c, 15, 64, 0
20, 80218, Note_on_c, 15, 57, 0
20, 80218, Note_on_c, 15, 59, 0
20, 80220, Note_on_c, 15, 64, 100
20, 80220, Note_on_c, 15, 59, 100
20, 80220, Note_on_c, 15, 56, 100
20, 80338, Note_on_c, 15, 56, 0
20, 80338, Note_on_c, 15, 59, 0
20, 80338, Note_on_c, 15, 64, 0
20, 80580, Note_on_c, 15, 63, 100
20, 80580, Note_on_c, 15, 63, 100
20, 80608, Note_on_c, 15, 63, 0
20, 80610, Note_on_c, 15, 66, 100
20, 80638, Note_on_c, 15, 66, 0
20, 80638, Note_on_c, 15, 63, 0
20, 80640, Note_on_c, 15, 71, 100
20, 80640, Note_on_c, 15, 66, 100
20, 80640, Note_on_c, 15, 63, 100
20, 80668, Note_on_c, 15, 71, 0
20, 80670, Note_on_c, 15, 73, 100
20, 80698, Note_on_c, 15, 73, 0
20, 80698, Note_on_c, 15, 63, 0
20, 80698, Note_on_c, 15, 66, 0
20, 80700, Note_on_c, 15, 73, 100
20, 80700, Note_on_c, 15, 68, 100
20, 80700, Note_on_c, 15, 64, 100
20, 80758, Note_on_c, 15, 73, 0
20, 80760, Note_on_c, 15, 71, 100
20, 80818, Note_on_c, 15, 71, 0
20, 80818, Note_on_c, 15, 64, 0
20, 80818, Note_on_c, 15, 68, 0
20, 81060, Note_on_c, 15, 73, 100
20, 81088, Note_on_c, 15, 73, 0
20, 81090, Note_on_c, 15, 69, 100
20, 81118, Note_on_c, 15, 69, 0
20, 81120, Note_on_c, 15, 66, 100
20, 81148, Note_on_c, 15, 66, 0
20, 81150, Note_on_c, 15, 64, 100
20, 81178, Note_on_c, 15, 64, 0
20, 81180, Note_on_c, 15, 64, 100
20, 81238, Note_on_c, 15, 64, 0
20, 81240, Note_on_c, 15, 63, 100
20, 81298, Note_on_c, 15, 63, 0
20, 81300, Note_on_c, 15, 71, 100
20, 81328, Note_on_c, 15, 71, 0
20, 81330, Note_on_c, 15, 64, 100
20, 81358, Note_on_c, 15, 64, 0
20, 81360, Note_on_c, 15, 68, 100
20, 81360, Note_on_c, 15, 64, 100
20, 81388, Note_on_c, 15, 68, 0
20, 81390, Note_on_c, 15, 71, 100
20, 81418, Note_on_c, 15, 71, 0
20, 81418, Note_on_c, 15, 64, 0
20, 81420, Note_on_c, 15, 64, 100
20, 81420, Note_on_c, 15, 73, 100
20, 81478, Note_on_c, 15, 73, 0
20, 81478, Note_on_c, 15, 64, 0
20, 81480, Note_on_c, 15, 61, 100
20, 81480, Note_on_c, 15, 69, 100
20, 81538, Note_on_c, 15, 69, 0
20, 81538, Note_on_c, 15, 61, 0
20, 81540, Note_on_c, 15, 66, 100
20, 81540, Note_on_c, 15, 66, 100
20, 81568, Note_on_c, 15, 66, 0
20, 81570, Note_on_c, 15, 71, 100
20, 81598, Note_on_c, 15, 71, 0
20, 81598, Note_on_c, 15, 66, 0
20, 81600, Note_on_c, 15, 73, 100
20, 81600, Note_on_c, 15, 66, 100
20, 81628, Note_on_c, 15, 73, 0
20, 81630, Note_on_c, 15, 75, 100
20, 81658, Note_on_c, 15, 75, 0
20, 81658, Note_on_c, 15, 66, 0
20, 81660, Note_on_c, 15, 75, 100
20, 81660, Note_on_c, 15, 71, 100
20, 81660, Note_on_c, 15, 64, 100
20, 81718, Note_on_c, 15, 75, 0
20, 81720, Note_on_c, 15, 76, 100
20, 81778, Note_on_c, 15, 76, 0
20, 81778, Note_on_c, 15, 64, 0
20, 81778, Note_on_c, 15, 71, 0
20, 81780, Note_on_c, 15, 68, 100
20, 81780, Note_on_c, 15, 64, 100
20, 81838, Note_on_c, 15, 68, 0
20, 81840, Note_on_c, 15, 69, 100
20, 81868, Note_on_c, 15, 69, 0
20, 81870, Note_on_c, 15, 68, 100
20, 81898, Note_on_c, 15, 68, 0
20, 81900, Note_on_c, 15, 73, 100
20, 81958, Note_on_c, 15, 73, 0
20, 81958, Note_on_c, 15, 64, 0
20, 81960, Note_on_c, 15, 63, 100
20, 81960, Note_on_c, 15, 57, 100
20, 81988, Note_on_c, 15, 57, 0
20, 81988, Note_on_c, 15, 63, 0
20, 81990, Note_on_c, 15, 64, 100
20, 81990, Note_on_c, 15, 56, 100
20, 82018, Note_on_c, 15, 56, 0
20, 82018, Note_on_c, 15, 64, 0
20, 82020, Note_on_c, 15, 68, 100
20, 82020, Note_on_c, 15, 64, 100
20, 82020, Note_on_c, 15, 59, 100
20, 82078, Note_on_c, 15, 59, 0
20, 82078, Note_on_c, 15, 64, 0
20, 82078, Note_on_c, 15, 68, 0
20, 82080, Note_on_c, 15, 66, 100
20, 82080, Note_on_c, 15, 57, 100
20, 82080, Note_on_c, 15, 59, 100
20, 82080, Note_on_c, 15, 63, 100
20, 82108, Note_on_c, 15, 66, 0
20, 82110, Note_on_c, 15, 64, 100
20, 82138, Note_on_c, 15, 64, 0
20, 82138, Note_on_c, 15, 63, 0
20, 82138, Note_on_c, 15, 59, 0
20, 82138, Note_on_c, 15, 57, 0
20, 82140, Note_on_c, 15, 64, 100
20, 82140, Note_on_c, 15, 59, 100
20, 82140, Note_on_c, 15, 56, 100
20, 82258, Note_on_c, 15, 56, 0
20, 82258, Note_on_c, 15, 59, 0
20, 82258, Note_on_c, 15, 64, 0
20, 82440, Note_on_c, 15, 68, 100
20, 82498, Note_on_c, 15, 68, 0
20, 82500, Note_on_c, 15, 69, 100
20, 82558, Note_on_c, 15, 69, 0
20, 82560, Note_on_c, 15, 71, 100
20, 82618, Note_on_c, 15, 71, 0
20, 82620, Note_on_c, 15, 62, 100
20, 82740, Note_on_c, 15, 65, 100
20, 82798, Note_on_c, 15, 62, 0
20, 82828, Note_on_c, 15, 65, 0
20, 82830, Note_on_c, 15, 66, 100
20, 82845, Note_on_c, 15, 66, 0
20, 82845, Note_on_c, 15, 68, 100
20, 82860, Note_on_c, 15, 68, 0
20, 82860, Note_on_c, 15, 66, 100
20, 82918, Note_on_c, 15, 66, 0
20, 82920, Note_on_c, 15, 61, 100
20, 82920, Note_on_c, 15, 71, 100
20, 82978, Note_on_c, 15, 71, 0
20, 82978, Note_on_c, 15, 61, 0
20, 82980, Note_on_c, 15, 73, 100
20, 83038, Note_on_c, 15, 73, 0
20, 83040, Note_on_c, 15, 74, 100
20, 83098, Note_on_c, 15, 74, 0
20, 83100, Note_on_c, 15, 66, 100
20, 83218, Note_on_c, 15, 66, 0
20, 83220, Note_on_c, 15, 64, 100
20, 83220, Note_on_c, 15, 68, 100
20, 83308, Note_on_c, 15, 68, 0
20, 83310, Note_on_c, 15, 69, 100
20, 83325, Note_on_c, 15, 69, 0
20, 83325, Note_on_c, 15, 71, 100
20, 83338, Note_on_c, 15, 64, 0
20, 83340, Note_on_c, 15, 71, 0
20, 83340, Note_on_c, 15, 64, 100
20, 83340, Note_on_c, 15, 76, 100
20, 83368, Note_on_c, 15, 76, 0
20, 83370, Note_on_c, 15, 74, 100
20, 83398, Note_on_c, 15, 74, 0
20, 83398, Note_on_c, 15, 64, 0
20, 83400, Note_on_c, 15, 69, 100
20, 83400, Note_on_c, 15, 73, 100
20, 83428, Note_on_c, 15, 73, 0
20, 83430, Note_on_c, 15, 71, 100
20, 83458, Note_on_c, 15, 71, 0
20, 83458, Note_on_c, 15, 69, 0
20, 83460, Note_on_c, 15, 69, 100
20, 83460, Note_on_c, 15, 69, 100
20, 83488, Note_on_c, 15, 69, 0
20, 83490, Note_on_c, 15, 68, 100
20, 83518, Note_on_c, 15, 68, 0
20, 83518, Note_on_c, 15, 69, 0
20, 83520, Note_on_c, 15, 69, 100
20, 83520, Note_on_c, 15, 66, 100
20, 83548, Note_on_c, 15, 66, 0
20, 83550, Note_on_c, 15, 64, 100
20, 83578, Note_on_c, 15, 64, 0
20, 83578, Note_on_c, 15, 69, 0
20, 83580, Note_on_c, 15, 74, 100
20, 83580, Note_on_c, 15, 62, 100
20, 83580, Note_on_c, 15, 69, 100
20, 83608, Note_on_c, 15, 74, 0
20, 83610, Note_on_c, 15, 73, 100
20, 83638, Note_on_c, 15, 73, 0
20, 83638, Note_on_c, 15, 69, 0
20, 83640, Note_on_c, 15, 71, 100
20, 83640, Note_on_c, 15, 68, 100
20, 83668, Note_on_c, 15, 68, 0
20, 83668, Note_on_c, 15, 71, 0
20, 83670, Note_on_c, 15, 69, 100
20, 83698, Note_on_c, 15, 69, 0
20, 83698, Note_on_c, 15, 62, 0
20, 83700, Note_on_c, 15, 68, 100
20, 83700, Note_on_c, 15, 71, 100
20, 83728, Note_on_c, 15, 68, 0
20, 83730, Note_on_c, 15, 66, 100
20, 83758, Note_on_c, 15, 66, 0
20, 83758, Note_on_c, 15, 71, 0
20, 83760, Note_on_c, 15, 64, 100
20, 83760, Note_on_c, 15, 71, 100
20, 83760, Note_on_c, 15, 68, 100
20, 83788, Note_on_c, 15, 64, 0
20, 83790, Note_on_c, 15, 62, 100
20, 83818, Note_on_c, 15, 62, 0
20, 83818, Note_on_c, 15, 68, 0
20, 83818, Note_on_c, 15, 71, 0
20, 83820, Note_on_c, 15, 73, 100
20, 83820, Note_on_c, 15, 61, 100
20, 83820, Note_on_c, 15, 68, 100
20, 83820, Note_on_c, 15, 65, 100
20, 83848, Note_on_c, 15, 73, 0
20, 83850, Note_on_c, 15, 71, 100
20, 83878, Note_on_c, 15, 71, 0
20, 83878, Note_on_c, 15, 65, 0
20, 83878, Note_on_c, 15, 68, 0
20, 83880, Note_on_c, 15, 69, 100
20, 83880, Note_on_c, 15, 66, 100
20, 83908, Note_on_c, 15, 66, 0
20, 83908, Note_on_c, 15, 69, 0
20, 83910, Note_on_c, 15, 68, 100
20, 83938, Note_on_c, 15, 68, 0
20, 83938, Note_on_c, 15, 61, 0
20, 83940, Note_on_c, 15, 66, 100
20, 83940, Note_on_c, 15, 57, 100
20, 83998, Note_on_c, 15, 57, 0
20, 83998, Note_on_c, 15, 66, 0
20, 84000, Note_on_c, 15, 59, 100
20, 84000, Note_on_c, 15, 66, 100
20, 84028, Note_on_c, 15, 59, 0
20, 84030, Note_on_c, 15, 57, 100
20, 84058, Note_on_c, 15, 57, 0
20, 84058, Note_on_c, 15, 66, 0
20, 84060, Note_on_c, 15, 66, 100
20, 84060, Note_on_c, 15, 62, 100
20, 84088, Note_on_c, 15, 62, 0
20, 84090, Note_on_c, 15, 61, 100
20, 84118, Note_on_c, 15, 61, 0
20, 84118, Note_on_c, 15, 66, 0
20, 84120, Note_on_c, 15, 65, 100
20, 84120, Note_on_c, 15, 59, 100
20, 84148, Note_on_c, 15, 59, 0
20, 84148, Note_on_c, 15, 65, 0
20, 84150, Note_on_c, 15, 66, 100
20, 84150, Note_on_c, 15, 57, 100
20, 84178, Note_on_c, 15, 57, 0
20, 84178, Note_on_c, 15, 66, 0
20, 84180, Note_on_c, 15, 61, 100
20, 84180, Note_on_c, 15, 56, 100
20, 84238, Note_on_c, 15, 61, 0
20, 84240, Note_on_c, 15, 65, 100
20, 84298, Note_on_c, 15, 65, 0
20, 84298, Note_on_c, 15, 56, 0
20, 84300, Note_on_c, 15, 66, 100
20, 84300, Note_on_c, 15, 61, 100
20, 84300, Note_on_c, 15, 57, 100
20, 84418, Note_on_c, 15, 57, 0
20, 84418, Note_on_c, 15, 61, 0
20, 84418, Note_on_c, 15, 66, 0
20, 84420, Note_on_c, 15, 66, 100
20, 84420, Note_on_c, 15, 73, 100
20, 84478, Note_on_c, 15, 66, 0
20, 84480, Note_on_c, 15, 66, 100
20, 84538, Note_on_c, 15, 66, 0
20, 84538, Note_on_c, 15, 73, 0
20, 84540, Note_on_c, 15, 72, 100
20, 84540, Note_on_c, 15, 66, 100
20, 84598, Note_on_c, 15, 66, 0
20, 84600, Note_on_c, 15, 64, 100
20, 84628, Note_on_c, 15, 64, 0
20, 84630, Note_on_c, 15, 68, 100
20, 84658, Note_on_c, 15, 68, 0
20, 84658, Note_on_c, 15, 72, 0
20, 84660, Note_on_c, 15, 73, 100
20, 84660, Note_on_c, 15, 68, 100
20, 84718, Note_on_c, 15, 68, 0
20, 84720, Note_on_c, 15, 61, 100
20, 84778, Note_on_c, 15, 61, 0
20, 84778, Note_on_c, 15, 73, 0
20, 84780, Note_on_c, 15, 75, 100
20, 84780, Note_on_c, 15, 68, 100
20, 84780, Note_on_c, 15, 63, 100
20, 84780, Note_on_c, 15, 59, 100
20, 84898, Note_on_c, 15, 59, 0
20, 84898, Note_on_c, 15, 75, 0
20, 84898, Note_on_c, 15, 68, 0
20, 84898, Note_on_c, 15, 63, 0
20, 84960, Note_on_c, 15, 59, 100
20, 84960, Note_on_c, 15, 56, 100
20, 85018, Note_on_c, 15, 59, 0
20, 85020, Note_on_c, 15, 61, 100
20, 85138, Note_on_c, 15, 61, 0
20, 85138, Note_on_c, 15, 56, 0
20, 85140, Note_on_c, 15, 64, 100
20, 85140, Note_on_c, 15, 61, 100
20, 85168, Note_on_c, 15, 64, 0
20, 85170, Note_on_c, 15, 63, 100
20, 85198, Note_on_c, 15, 63, 0
20, 85200, Note_on_c, 15, 66, 100
20, 85228, Note_on_c, 15, 66, 0
20, 85230, Note_on_c, 15, 64, 100
20, 85258, Note_on_c, 15, 64, 0
20, 85260, Note_on_c, 15, 69, 100
20, 85318, Note_on_c, 15, 69, 0
20, 85318, Note_on_c, 15, 61, 0
20, 85320, Note_on_c, 15, 54, 100
20, 85320, Note_on_c, 15, 60, 100
20, 85348, Note_on_c, 15, 60, 0
20, 85348, Note_on_c, 15, 54, 0
20, 85350, Note_on_c, 15, 52, 100
20, 85350, Note_on_c, 15, 61, 100
20, 85378, Note_on_c, 15, 61, 0
20, 85378, Note_on_c, 15, 52, 0
20, 85380, Note_on_c, 15, 51, 100
20, 85380, Note_on_c, 15, 61, 100
20, 85380, Note_on_c, 15, 56, 100
20, 85438, Note_on_c, 15, 61, 0
20, 85440, Note_on_c, 15, 60, 100
20, 85498, Note_on_c, 15, 60, 0
20, 85498, Note_on_c, 15, 56, 0
20, 85498, Note_on_c, 15, 51, 0
20, 85500, Note_on_c, 15, 61, 100
20, 85500, Note_on_c, 15, 56, 100
20, 85500, Note_on_c, 15, 52, 100
20, 85618, Note_on_c, 15, 52, 0
20, 85618, Note_on_c, 15, 56, 0
20, 85618, Note_on_c, 15, 61, 0
20, 85860, Note_on_c, 15, 60, 100
20, 85890, Note_on_c, 15, 63, 100
20, 85918, Note_on_c, 15, 63, 0
20, 85918, Note_on_c, 15, 60, 0
20, 85920, Note_on_c, 15, 68, 100
20, 85920, Note_on_c, 15, 63, 100
20, 85920, Note_on_c, 15, 59, 100
20, 85948, Note_on_c, 15, 68, 0
20, 85950, Note_on_c, 15, 69, 100
20, 85978, Note_on_c, 15, 69, 0
20, 85978, Note_on_c, 15, 59, 0
20, 85978, Note_on_c, 15, 63, 0
20, 85980, Note_on_c, 15, 69, 100
20, 85980, Note_on_c, 15, 64, 100
20, 85980, Note_on_c, 15, 61, 100
20, 86038, Note_on_c, 15, 69, 0
20, 86040, Note_on_c, 15, 68, 100
20, 86068, Note_on_c, 15, 68, 0
20, 86098, Note_on_c, 15, 61, 0
20, 86098, Note_on_c, 15, 64, 0
20, 86340, Note_on_c, 15, 63, 100
20, 86340, Note_on_c, 15, 78, 100
20, 86368, Note_on_c, 15, 78, 0
20, 86370, Note_on_c, 15, 75, 100
20, 86398, Note_on_c, 15, 75, 0
20, 86398, Note_on_c, 15, 63, 0
20, 86400, Note_on_c, 15, 63, 100
20, 86400, Note_on_c, 15, 66, 100
20, 86400, Note_on_c, 15, 71, 100
20, 86428, Note_on_c, 15, 71, 0
20, 86430, Note_on_c, 15, 73, 100
20, 86458, Note_on_c, 15, 73, 0
20, 86458, Note_on_c, 15, 66, 0
20, 86458, Note_on_c, 15, 63, 0
20, 86460, Note_on_c, 15, 73, 100
20, 86460, Note_on_c, 15, 64, 100
20, 86518, Note_on_c, 15, 73, 0
20, 86520, Note_on_c, 15, 71, 100
20, 86548, Note_on_c, 15, 71, 0
20, 86578, Note_on_c, 15, 64, 0
20, 86580, Note_on_c, 15, 69, 100
20, 86580, Note_on_c, 15, 61, 100
20, 86638, Note_on_c, 15, 69, 0
20, 86640, Note_on_c, 15, 66, 100
20, 86698, Note_on_c, 15, 66, 0
20, 86698, Note_on_c, 15, 61, 0
20, 86700, Note_on_c, 15, 62, 100
20, 86700, Note_on_c, 15, 59, 100
20, 86818, Note_on_c, 15, 59, 0
20, 86818, Note_on_c, 15, 62, 0
20, 86820, Note_on_c, 15, 68, 100
20, 86878, Note_on_c, 15, 68, 0
20, 86880, Note_on_c, 15, 69, 100
20, 86880, Note_on_c, 15, 59, 100
20, 86908, Note_on_c, 15, 69, 0
20, 86910, Note_on_c, 15, 71, 100
20, 86938, Note_on_c, 15, 71, 0
20, 86938, Note_on_c, 15, 59, 0
20, 86940, Note_on_c, 15, 71, 100
20, 86940, Note_on_c, 15, 64, 100
20, 86998, Note_on_c, 15, 71, 0
20, 87000, Note_on_c, 15, 69, 100
20, 87058, Note_on_c, 15, 69, 0
20, 87058, Note_on_c, 15, 64, 0
20, 87060, Note_on_c, 15, 69, 100
20, 87060, Note_on_c, 15, 64, 100
20, 87060, Note_on_c, 15, 76, 100
20, 87118, Note_on_c, 15, 69, 0
20, 87120, Note_on_c, 15, 67, 100
20, 87178, Note_on_c, 15, 67, 0
20, 87178, Note_on_c, 15, 76, 0
20, 87178, Note_on_c, 15, 64, 0
20, 87180, Note_on_c, 15, 76, 100
20, 87180, Note_on_c, 15, 66, 100
20, 87238, Note_on_c, 15, 76, 0
20, 87240, Note_on_c, 15, 74, 100
20, 87268, Note_on_c, 15, 74, 0
20, 87270, Note_on_c, 15, 76, 100
20, 87270, Note_on_c, 15, 73, 100
20, 87298, Note_on_c, 15, 73, 0
20, 87298, Note_on_c, 15, 76, 0
20, 87298, Note_on_c, 15, 66, 0
20, 87300, Note_on_c, 15, 78, 100
20, 87300, Note_on_c, 15, 71, 100
20, 87300, Note_on_c, 15, 66, 100
20, 87358, Note_on_c, 15, 66, 0
20, 87358, Note_on_c, 15, 71, 0
20, 87358, Note_on_c, 15, 78, 0
20, 87360, Note_on_c, 15, 69, 100
20, 87360, Note_on_c, 15, 64, 100
20, 87418, Note_on_c, 15, 64, 0
20, 87418, Note_on_c, 15, 69, 0
20, 87420, Note_on_c, 15, 69, 100
20, 87420, Note_on_c, 15, 71, 100
20, 87420, Note_on_c, 15, 62, 100
20, 87478, Note_on_c, 15, 69, 0
20, 87480, Note_on_c, 15, 68, 100
20, 87538, Note_on_c, 15, 68, 0
20, 87538, Note_on_c, 15, 62, 0
20, 87538, Note_on_c, 15, 71, 0
20, 87540, Note_on_c, 15, 69, 100
20, 87540, Note_on_c, 15, 57, 100
20, 87568, Note_on_c, 15, 69, 0
20, 87570, Note_on_c, 15, 68, 100
20, 87598, Note_on_c, 15, 68, 0
20, 87598, Note_on_c, 15, 57, 0
20, 87600, Note_on_c, 15, 66, 100
20, 87600, Note_on_c, 15, 61, 100
20, 87600, Note_on_c, 15, 57, 100
20, 87628, Note_on_c, 15, 66, 0
20, 87630, Note_on_c, 15, 64, 100
20, 87658, Note_on_c, 15, 64, 0
20, 87658, Note_on_c, 15, 57, 0
20, 87658, Note_on_c, 15, 61, 0
20, 87660, Note_on_c, 15, 61, 100
20, 87660, Note_on_c, 15, 57, 100
20, 87660, Note_on_c, 15, 64, 100
20, 87718, Note_on_c, 15, 57, 0
20, 87718, Note_on_c, 15, 61, 0
20, 87720, Note_on_c, 15, 59, 100
20, 87720, Note_on_c, 15, 56, 100
20, 87778, Note_on_c, 15, 56, 0
20, 87778, Note_on_c, 15, 59, 0
20, 87778, Note_on_c, 15, 64, 0
20, 87780, Note_on_c, 15, 71, 100
20, 87780, Note_on_c, 15, 56, 100
20, 87808, Note_on_c, 15, 71, 0
20, 87810, Note_on_c, 15, 68, 100
20, 87838, Note_on_c, 15, 68, 0
20, 87838, Note_on_c, 15, 56, 0
20, 87840, Note_on_c, 15, 66, 100
20, 87840, Note_on_c, 15, 56, 100
20, 87840, Note_on_c, 15, 59, 100
20, 87868, Note_on_c, 15, 66, 0
20, 87870, Note_on_c, 15, 64, 100
20, 87898, Note_on_c, 15, 64, 0
20, 87898, Note_on_c, 15, 59, 0
20, 87898, Note_on_c, 15, 56, 0
20, 87900, Note_on_c, 15, 64, 100
20, 87900, Note_on_c, 15, 59, 100
20, 87900, Note_on_c, 15, 56, 100
20, 87958, Note_on_c, 15, 56, 0
20, 87958, Note_on_c, 15, 59, 0
20, 87960, Note_on_c, 15, 57, 100
20, 88018, Note_on_c, 15, 57, 0
20, 88018, Note_on_c, 15, 64, 0
20, 88020, Note_on_c, 15, 69, 100
20, 88078, Note_on_c, 15, 69, 0
20, 88080, Note_on_c, 15, 74, 100
20, 88108, Note_on_c, 15, 74, 0
20, 88110, Note_on_c, 15, 73, 100
20, 88138, Note_on_c, 15, 73, 0
20, 88140, Note_on_c, 15, 66, 100
20, 88140, Note_on_c, 15, 69, 100
20, 88198, Note_on_c, 15, 69, 0
20, 88198, Note_on_c, 15, 66, 0
20, 88200, Note_on_c, 15, 68, 100
20, 88200, Note_on_c, 15, 62, 100
20, 88228, Note_on_c, 15, 62, 0
20, 88228, Note_on_c, 15, 68, 0
20, 88230, Note_on_c, 15, 69, 100
20, 88230, Note_on_c, 15, 61, 100
20, 88258, Note_on_c, 15, 61, 0
20, 88258, Note_on_c, 15, 69, 0
20, 88260, Note_on_c, 15, 69, 100
20, 88260, Note_on_c, 15, 59, 100
20, 88260, Note_on_c, 15, 64, 100
20, 88318, Note_on_c, 15, 59, 0
20, 88318, Note_on_c, 15, 69, 0
20, 88320, Note_on_c, 15, 68, 100
20, 88320, Note_on_c, 15, 62, 100
20, 88378, Note_on_c, 15, 62, 0
20, 88378, Note_on_c, 15, 68, 0
20, 88378, Note_on_c, 15, 64, 0
20, 88380, Note_on_c, 15, 69, 100
20, 88380, Note_on_c, 15, 64, 100
20, 88380, Note_on_c, 15, 61, 100
20, 88498, Note_on_c, 15, 61, 0
20, 88498, Note_on_c, 15, 64, 0
20, 88498, Note_on_c, 15, 69, 0
20, 88740, Note_on_c, 15, 68, 100
20, 88740, Note_on_c, 15, 64, 100
20, 88798, Note_on_c, 15, 64, 0
20, 88798, Note_on_c, 15, 68, 0
20, 88800, Note_on_c, 15, 69, 100
20, 88800, Note_on_c, 15, 64, 100
20, 88828, Note_on_c, 15, 69, 0
20, 88830, Note_on_c, 15, 71, 100
20, 88858, Note_on_c, 15, 71, 0
20, 88858, Note_on_c, 15, 64, 0
20, 88860, Note_on_c, 15, 71, 100
20, 88860, Note_on_c, 15, 64, 100
20, 88918, Note_on_c, 15, 71, 0
20, 88920, Note_on_c, 15, 69, 100
20, 88948, Note_on_c, 15, 69, 0
20, 88950, Note_on_c, 15, 71, 100
20, 88978, Note_on_c, 15, 71, 0
20, 88978, Note_on_c, 15, 64, 0
20, 88980, Note_on_c, 15, 76, 100
20, 88980, Note_on_c, 15, 73, 100
20, 88980, Note_on_c, 15, 64, 100
20, 89038, Note_on_c, 15, 64, 0
20, 89038, Note_on_c, 15, 73, 0
20, 89038, Note_on_c, 15, 76, 0
20, 89040, Note_on_c, 15, 76, 100
20, 89040, Note_on_c, 15, 68, 100
20, 89040, Note_on_c, 15, 64, 100
20, 89098, Note_on_c, 15, 64, 0
20, 89098, Note_on_c, 15, 68, 0
20, 89098, Note_on_c, 15, 76, 0
20, 89100, Note_on_c, 15, 76, 100
20, 89100, Note_on_c, 15, 66, 100
20, 89158, Note_on_c, 15, 76, 0
20, 89160, Note_on_c, 15, 74, 100
20, 89188, Note_on_c, 15, 74, 0
20, 89190, Note_on_c, 15, 76, 100
20, 89190, Note_on_c, 15, 73, 100
20, 89218, Note_on_c, 15, 73, 0
20, 89218, Note_on_c, 15, 76, 0
20, 89218, Note_on_c, 15, 66, 0
20, 89220, Note_on_c, 15, 78, 100
20, 89220, Note_on_c, 15, 66, 100
20, 89220, Note_on_c, 15, 71, 100
20, 89278, Note_on_c, 15, 71, 0
20, 89278, Note_on_c, 15, 66, 0
20, 89278, Note_on_c, 15, 78, 0
20, 89280, Note_on_c, 15, 69, 100
20, 89280, Note_on_c, 15, 62, 100
20, 89338, Note_on_c, 15, 62, 0
20, 89338, Note_on_c, 15, 69, 0
20, 89340, Note_on_c, 15, 69, 100
20, 89340, Note_on_c, 15, 62, 100
20, 89398, Note_on_c, 15, 69, 0
20, 89400, Note_on_c, 15, 68, 100
20, 89458, Note_on_c, 15, 68, 0
20, 89458, Note_on_c, 15, 62, 0
20, 89460, Note_on_c, 15, 57, 100
20, 89488, Note_on_c, 15, 57, 0
20, 89490, Note_on_c, 15, 61, 100
20, 89518, Note_on_c, 15, 61, 0
20, 89520, Note_on_c, 15, 64, 100
20, 89520, Note_on_c, 15, 73, 100
20, 89520, Note_on_c, 15, 69, 100
20, 89548, Note_on_c, 15, 64, 0
20, 89550, Note_on_c, 15, 66, 100
20, 89578, Note_on_c, 15, 66, 0
20, 89578, Note_on_c, 15, 69, 0
20, 89578, Note_on_c, 15, 73, 0
20, 89580, Note_on_c, 15, 66, 100
20, 89580, Note_on_c, 15, 71, 100
20, 89580, Note_on_c, 15, 68, 100
20, 89638, Note_on_c, 15, 66, 0
20, 89640, Note_on_c, 15, 64, 100
20, 89698, Note_on_c, 15, 64, 0
20, 89698, Note_on_c, 15, 68, 0
20, 89698, Note_on_c, 15, 71, 0
20, 89700, Note_on_c, 15, 56, 100
20, 89728, Note_on_c, 15, 56, 0
20, 89730, Note_on_c, 15, 59, 100
20, 89758, Note_on_c, 15, 59, 0
20, 89760, Note_on_c, 15, 64, 100
20, 89760, Note_on_c, 15, 71, 100
20, 89760, Note_on_c, 15, 68, 100
20, 89788, Note_on_c, 15, 64, 0
20, 89790, Note_on_c, 15, 66, 100
20, 89818, Note_on_c, 15, 66, 0
20, 89818, Note_on_c, 15, 68, 0
20, 89818, Note_on_c, 15, 71, 0
20, 89820, Note_on_c, 15, 66, 100
20, 89820, Note_on_c, 15, 73, 100
20, 89820, Note_on_c, 15, 69, 100
20, 89878, Note_on_c, 15, 66, 0
20, 89880, Note_on_c, 15, 64, 100
20, 89938, Note_on_c, 15, 64, 0
20, 89938, Note_on_c, 15, 69, 0
20, 89938, Note_on_c, 15, 73, 0
20, 89940, Note_on_c, 15, 69, 100
20, 89940, Note_on_c, 15, 61, 100
20, 89998, Note_on_c, 15, 61, 0
20, 90000, Note_on_c, 15, 62, 100
20, 90028, Note_on_c, 15, 62, 0
20, 90030, Note_on_c, 15, 61, 100
20, 90058, Note_on_c, 15, 61, 0
20, 90060, Note_on_c, 15, 66, 100
20, 90088, Note_on_c, 15, 66, 0
20, 90090, Note_on_c, 15, 64, 100
20, 90118, Note_on_c, 15, 64, 0
20, 90118, Note_on_c, 15, 69, 0
20, 90120, Note_on_c, 15, 62, 100
20, 90120, Note_on_c, 15, 68, 100
20, 90148, Note_on_c, 15, 68, 0
20, 90148, Note_on_c, 15, 62, 0
20, 90150, Note_on_c, 15, 61, 100
20, 90150, Note_on_c, 15, 69, 100
20, 90178, Note_on_c, 15, 69, 0
20, 90178, Note_on_c, 15, 61, 0
20, 90180, Note_on_c, 15, 64, 100
20, 90180, Note_on_c, 15, 69, 100
20, 90180, Note_on_c, 15, 73, 100
20, 90238, Note_on_c, 15, 73, 0
20, 90238, Note_on_c, 15, 69, 0
20, 90238, Note_on_c, 15, 64, 0
20, 90240, Note_on_c, 15, 64, 100
20, 90240, Note_on_c, 15, 62, 100
20, 90240, Note_on_c, 15, 71, 100
20, 90268, Note_on_c, 15, 71, 0
20, 90270, Note_on_c, 15, 69, 100
20, 90298, Note_on_c, 15, 69, 0
20, 90298, Note_on_c, 15, 62, 0
20, 90298, Note_on_c, 15, 64, 0
20, 90300, Note_on_c, 15, 69, 100
20, 90300, Note_on_c, 15, 64, 100
20, 90300, Note_on_c, 15, 61, 100
20, 90300, Note_on_c, 15, 57, 100
20, 90418, Note_on_c, 15, 57, 0
20, 90418, Note_on_c, 15, 69, 0
20, 90418, Note_on_c, 15, 64, 0
20, 90418, Note_on_c, 15, 61, 0
20, 91260, Control_c, 15, 0, 0
20, 91260, Note_on_c, 15, 71, 100
20, 91260, Note_on_c, 15, 67, 100
20, 91377, Note_on_c, 15, 67, 0
20, 91377, Note_on_c, 15, 71, 0
20, 91380, Note_on_c, 15, 69, 100
20, 91380, Note_on_c, 15, 66, 100
20, 91437, Note_on_c, 15, 66, 0
20, 91437, Note_on_c, 15, 69, 0
20, 91440, Note_on_c, 15, 69, 100
20, 91440, Note_on_c, 15, 72, 100
20, 91560, Note_on_c, 15, 72, 0
20, 91560, Note_on_c, 15, 69, 0
20, 91560, Note_on_c, 15, 69, 100
20, 91560, Note_on_c, 15, 66, 100
20, 91617, Note_on_c, 15, 66, 0
20, 91617, Note_on_c, 15, 69, 0
20, 91620, Note_on_c, 15, 66, 100
20, 91620, Note_on_c, 15, 69, 100
20, 91737, Note_on_c, 15, 69, 0
20, 91737, Note_on_c, 15, 66, 0
20, 91740, Note_on_c, 15, 72, 100
20, 91740, Note_on_c, 15, 69, 100
20, 91797, Note_on_c, 15, 69, 0
20, 91797, Note_on_c, 15, 72, 0
20, 91800, Note_on_c, 15, 69, 100
20, 91800, Note_on_c, 15, 72, 100
20, 92037, Note_on_c, 15, 72, 0
20, 92037, Note_on_c, 15, 69, 0
20, 92100, Note_on_c, 15, 63, 100
20, 92100, Note_on_c, 15, 66, 100
20, 92157, Note_on_c, 15, 66, 0
20, 92157, Note_on_c, 15, 63, 0
20, 92160, Note_on_c, 15, 66, 100
20, 92160, Note_on_c, 15, 69, 100
20, 92277, Note_on_c, 15, 69, 0
20, 92277, Note_on_c, 15, 66, 0
20, 92280, Note_on_c, 15, 69, 100
20, 92280, Note_on_c, 15, 66, 100
20, 92337, Note_on_c, 15, 66, 0
20, 92337, Note_on_c, 15, 69, 0
20, 92340, Note_on_c, 15, 68, 100
20, 92340, Note_on_c, 15, 64, 100
20, 92397, Note_on_c, 15, 64, 0
20, 92397, Note_on_c, 15, 68, 0
20, 92400, Note_on_c, 15, 69, 100
20, 92400, Note_on_c, 15, 66, 100
20, 92457, Note_on_c, 15, 66, 0
20, 92457, Note_on_c, 15, 69, 0
20, 92460, Note_on_c, 15, 71, 100
20, 92460, Note_on_c, 15, 68, 100
20, 92517, Note_on_c, 15, 68, 0
20, 92517, Note_on_c, 15, 71, 0
20, 92520, Note_on_c, 15, 68, 100
20, 92520, Note_on_c, 15, 71, 100
20, 92757, Note_on_c, 15, 71, 0
20, 92757, Note_on_c, 15, 68, 0
20, 92760, Note_on_c, 15, 69, 100
20, 92760, Note_on_c, 15, 69, 100
20, 92817, Note_on_c, 15, 69, 0
20, 92817, Note_on_c, 15, 69, 0
20, 92820, Note_on_c, 15, 68, 100
20, 92820, Note_on_c, 15, 71, 100
20, 92877, Note_on_c, 15, 71, 0
20, 92877, Note_on_c, 15, 68, 0
20, 92880, Note_on_c, 15, 64, 100
20, 92880, Note_on_c, 15, 69, 100
20, 92937, Note_on_c, 15, 69, 0
20, 92937, Note_on_c, 15, 64, 0
20, 92940, Note_on_c, 15, 69, 100
20, 92940, Note_on_c, 15, 66, 100
20, 92997, Note_on_c, 15, 66, 0
20, 93000, Note_on_c, 15, 69, 0
20, 93000, Note_on_c, 15, 67, 100
20, 93000, Note_on_c, 15, 64, 100
20, 93057, Note_on_c, 15, 64, 0
20, 93057, Note_on_c, 15, 67, 0
20, 93060, Note_on_c, 15, 69, 100
20, 93060, Note_on_c, 15, 63, 100
20, 93117, Note_on_c, 15, 69, 0
20, 93120, Note_on_c, 15, 67, 100
20, 93177, Note_on_c, 15, 67, 0
20, 93177, Note_on_c, 15, 63, 0
20, 93180, Note_on_c, 15, 66, 100
20, 93237, Note_on_c, 15, 66, 0
20, 93240, Note_on_c, 15, 75, 100
20, 93240, Note_on_c, 15, 69, 100
20, 93297, Note_on_c, 15, 75, 0
20, 93300, Note_on_c, 15, 76, 100
20, 93357, Note_on_c, 15, 76, 0
20, 93357, Note_on_c, 15, 69, 0
20, 93360, Note_on_c, 15, 78, 100
20, 93360, Note_on_c, 15, 72, 100
20, 93417, Note_on_c, 15, 72, 0
20, 93417, Note_on_c, 15, 78, 0
20, 93420, Note_on_c, 15, 67, 100
20, 93420, Note_on_c, 15, 71, 100
20, 93477, Note_on_c, 15, 71, 0
20, 93477, Note_on_c, 15, 67, 0
20, 93480, Note_on_c, 15, 72, 100
20, 93480, Note_on_c, 15, 69, 100
20, 93537, Note_on_c, 15, 69, 0
20, 93537, Note_on_c, 15, 72, 0
20, 93540, Note_on_c, 15, 71, 100
20, 93540, Note_on_c, 15, 67, 100
20, 93597, Note_on_c, 15, 67, 0
20, 93597, Note_on_c, 15, 71, 0
20, 93600, Note_on_c, 15, 69, 100
20, 93600, Note_on_c, 15, 66, 100
20, 93657, Note_on_c, 15, 66, 0
20, 93657, Note_on_c, 15, 69, 0
20, 93660, Note_on_c, 15, 67, 100
20, 93660, Note_on_c, 15, 64, 100
20, 93717, Note_on_c, 15, 64, 0
20, 93717, Note_on_c, 15, 67, 0
20, 93720, Note_on_c, 15, 66, 100
20, 93720, Note_on_c, 15, 63, 100
20, 93777, Note_on_c, 15, 63, 0
20, 93777, Note_on_c, 15, 66, 0
20, 93780, Note_on_c, 15, 59, 100
20, 93780, Note_on_c, 15, 64, 100
20, 93897, Note_on_c, 15, 64, 0
20, 93897, Note_on_c, 15, 59, 0
20, 94320, Note_on_c, 15, 66, 100
20, 94320, Note_on_c, 15, 57, 100
20, 94377, Note_on_c, 15, 57, 0
20, 94377, Note_on_c, 15, 66, 0
20, 94380, Note_on_c, 15, 67, 100
20, 94380, Note_on_c, 15, 59, 100
20, 94437, Note_on_c, 15, 59, 0
20, 94437, Note_on_c, 15, 67, 0
20, 94440, Note_on_c, 15, 69, 100
20, 94440, Note_on_c, 15, 60, 100
20, 94497, Note_on_c, 15, 60, 0
20, 94497, Note_on_c, 15, 69, 0
20, 94500, Note_on_c, 15, 69, 100
20, 94500, Note_on_c, 15, 60, 100
20, 94617, Note_on_c, 15, 60, 0
20, 94617, Note_on_c, 15, 69, 0
20, 95040, Note_on_c, 15, 64, 100
20, 95040, Note_on_c, 15, 56, 100
20, 95097, Note_on_c, 15, 56, 0
20, 95097, Note_on_c, 15, 64, 0
20, 95100, Note_on_c, 15, 66, 100
20, 95100, Note_on_c, 15, 57, 100
20, 95157, Note_on_c, 15, 57, 0
20, 95157, Note_on_c, 15, 66, 0
20, 95160, Note_on_c, 15, 68, 100
20, 95160, Note_on_c, 15, 59, 100
20, 95217, Note_on_c, 15, 59, 0
20, 95217, Note_on_c, 15, 68, 0
20, 95220, Note_on_c, 15, 68, 100
20, 95220, Note_on_c, 15, 64, 100
20, 95277, Note_on_c, 15, 68, 0
20, 95280, Note_on_c, 15, 69, 100
20, 95337, Note_on_c, 15, 69, 0
20, 95337, Note_on_c, 15, 64, 0
20, 95340, Note_on_c, 15, 71, 100
20, 95397, Note_on_c, 15, 71, 0
20, 95400, Note_on_c, 15, 72, 100
20, 95457, Note_on_c, 15, 72, 0
20, 95760, Note_on_c, 15, 71, 100
20, 95760, Note_on_c, 15, 66, 100
20, 95760, Note_on_c, 15, 63, 100
20, 95817, Note_on_c, 15, 63, 0
20, 95817, Note_on_c, 15, 66, 0
20, 95820, Note_on_c, 15, 67, 100
20, 95820, Note_on_c, 15, 64, 100
20, 95877, Note_on_c, 15, 64, 0
20, 95877, Note_on_c, 15, 67, 0
20, 95880, Note_on_c, 15, 69, 100
20, 95880, Note_on_c, 15, 66, 100
20, 95937, Note_on_c, 15, 66, 0
20, 95937, Note_on_c, 15, 69, 0
20, 95940, Note_on_c, 15, 67, 100
20, 95940, Note_on_c, 15, 64, 100
20, 96057, Note_on_c, 15, 64, 0
20, 96057, Note_on_c, 15, 67, 0
20, 96057, Note_on_c, 15, 71, 0
20, 96300, Note_on_c, 15, 71, 100
20, 96300, Note_on_c, 15, 66, 100
20, 96417, Note_on_c, 15, 66, 0
20, 96417, Note_on_c, 15, 71, 0
20, 96420, Note_on_c, 15, 69, 100
20, 96420, Note_on_c, 15, 66, 100
20, 96477, Note_on_c, 15, 66, 0
20, 96477, Note_on_c, 15, 69, 0
20, 96480, Note_on_c, 15, 72, 100
20, 96480, Note_on_c, 15, 69, 100
20, 96537, Note_on_c, 15, 69, 0
20, 96537, Note_on_c, 15, 72, 0
20, 96540, Note_on_c, 15, 71, 100
20, 96540, Note_on_c, 15, 67, 100
20, 96597, Note_on_c, 15, 67, 0
20, 96597, Note_on_c, 15, 71, 0
20, 96600, Note_on_c, 15, 69, 100
20, 96600, Note_on_c, 15, 66, 100
20, 96657, Note_on_c, 15, 66, 0
20, 96657, Note_on_c, 15, 69, 0
20, 96660, Note_on_c, 15, 69, 100
20, 96660, Note_on_c, 15, 66, 100
20, 96717, Note_on_c, 15, 66, 0
20, 96717, Note_on_c, 15, 69, 0
20, 96720, Note_on_c, 15, 71, 100
20, 96720, Note_on_c, 15, 67, 100
20, 96777, Note_on_c, 15, 67, 0
20, 96777, Note_on_c, 15, 71, 0
20, 96780, Note_on_c, 15, 72, 100
20, 96780, Note_on_c, 15, 69, 100
20, 96837, Note_on_c, 15, 69, 0
20, 96837, Note_on_c, 15, 72, 0
20, 96840, Note_on_c, 15, 69, 100
20, 96840, Note_on_c, 15, 72, 100
20, 97077, Note_on_c, 15, 72, 0
20, 97077, Note_on_c, 15, 69, 0
20, 97080, Note_on_c, 15, 71, 100
20, 97080, Note_on_c, 15, 67, 100
20, 97137, Note_on_c, 15, 67, 0
20, 97137, Note_on_c, 15, 71, 0
20, 97140, Note_on_c, 15, 69, 100
20, 97140, Note_on_c, 15, 66, 100
20, 97197, Note_on_c, 15, 66, 0
20, 97197, Note_on_c, 15, 69, 0
20, 97200, Note_on_c, 15, 78, 100
20, 97200, Note_on_c, 15, 69, 100
20, 97257, Note_on_c, 15, 69, 0
20, 97257, Note_on_c, 15, 78, 0
20, 97260, Note_on_c, 15, 71, 100
20, 97260, Note_on_c, 15, 67, 100
20, 97317, Note_on_c, 15, 67, 0
20, 97317, Note_on_c, 15, 71, 0
20, 97320, Note_on_c, 15, 69, 100
20, 97320, Note_on_c, 15, 66, 100
20, 97377, Note_on_c, 15, 66, 0
20, 97377, Note_on_c, 15, 69, 0
20, 97380, Note_on_c, 15, 68, 100
20, 97380, Note_on_c, 15, 64, 100
20, 97437, Note_on_c, 15, 64, 0
20, 97437, Note_on_c, 15, 68, 0
20, 97440, Note_on_c, 15, 69, 100
20, 97440, Note_on_c, 15, 66, 100
20, 97497, Note_on_c, 15, 66, 0
20, 97497, Note_on_c, 15, 69, 0
20, 97500, Note_on_c, 15, 71, 100
20, 97500, Note_on_c, 15, 68, 100
20, 97557, Note_on_c, 15, 68, 0
20, 97557, Note_on_c, 15, 71, 0
20, 97560, Note_on_c, 15, 68, 100
20, 97560, Note_on_c, 15, 71, 100
20, 97797, Note_on_c, 15, 71, 0
20, 97797, Note_on_c, 15, 68, 0
20, 97800, Note_on_c, 15, 69, 100
20, 97800, Note_on_c, 15, 66, 100
20, 97857, Note_on_c, 15, 66, 0
20, 97857, Note_on_c, 15, 69, 0
20, 97860, Note_on_c, 15, 68, 100
20, 97860, Note_on_c, 15, 65, 100
20, 97917, Note_on_c, 15, 65, 0
20, 97917, Note_on_c, 15, 68, 0
20, 97920, Note_on_c, 15, 80, 100
20, 97920, Note_on_c, 15, 65, 100
20, 97977, Note_on_c, 15, 80, 0
20, 97980, Note_on_c, 15, 73, 100
20, 98037, Note_on_c, 15, 73, 0
20, 98037, Note_on_c, 15, 65, 0
20, 98040, Note_on_c, 15, 71, 100
20, 98040, Note_on_c, 15, 64, 100
20, 98097, Note_on_c, 15, 71, 0
20, 98100, Note_on_c, 15, 70, 100
20, 98157, Note_on_c, 15, 64, 0
20, 98160, Note_on_c, 15, 62, 100
20, 98217, Note_on_c, 15, 62, 0
20, 98217, Note_on_c, 15, 70, 0
20, 98220, Note_on_c, 15, 73, 100
20, 98220, Note_on_c, 15, 61, 100
20, 98220, Note_on_c, 15, 64, 100
20, 98277, Note_on_c, 15, 64, 0
20, 98277, Note_on_c, 15, 61, 0
20, 98277, Note_on_c, 15, 73, 0
20, 98280, Note_on_c, 15, 76, 100
20, 98280, Note_on_c, 15, 70, 100
20, 98337, Note_on_c, 15, 70, 0
20, 98340, Note_on_c, 15, 71, 100
20, 98397, Note_on_c, 15, 71, 0
20, 98397, Note_on_c, 15, 76, 0
20, 98400, Note_on_c, 15, 79, 100
20, 98400, Note_on_c, 15, 73, 100
20, 98457, Note_on_c, 15, 73, 0
20, 98457, Note_on_c, 15, 79, 0
20, 98460, Note_on_c, 15, 78, 100
20, 98460, Note_on_c, 15, 62, 100
20, 98517, Note_on_c, 15, 62, 0
20, 98517, Note_on_c, 15, 78, 0
20, 98520, Note_on_c, 15, 76, 100
20, 98520, Note_on_c, 15, 67, 100
20, 98577, Note_on_c, 15, 67, 0
20, 98577, Note_on_c, 15, 76, 0
20, 98580, Note_on_c, 15, 74, 100
20, 98580, Note_on_c, 15, 66, 100
20, 98637, Note_on_c, 15, 66, 0
20, 98637, Note_on_c, 15, 74, 0
20, 98640, Note_on_c, 15, 73, 100
20, 98640, Note_on_c, 15, 64, 100
20, 98697, Note_on_c, 15, 64, 0
20, 98697, Note_on_c, 15, 73, 0
20, 98700, Note_on_c, 15, 71, 100
20, 98700, Note_on_c, 15, 62, 100
20, 98757, Note_on_c, 15, 62, 0
20, 98757, Note_on_c, 15, 71, 0
20, 98760, Note_on_c, 15, 70, 100
20, 98760, Note_on_c, 15, 61, 100
20, 98760, Note_on_c, 15, 64, 100
20, 98817, Note_on_c, 15, 64, 0
20, 98817, Note_on_c, 15, 61, 0
20, 98817, Note_on_c, 15, 70, 0
20, 98820, Note_on_c, 15, 71, 100
20, 98820, Note_on_c, 15, 62, 100
20, 98820, Note_on_c, 15, 59, 100
20, 98937, Note_on_c, 15, 59, 0
20, 98937, Note_on_c, 15, 62, 0
20, 98937, Note_on_c, 15, 71, 0
20, 99180, Note_on_c, 15, 64, 100
20, 99180, Note_on_c, 15, 67, 100
20, 99237, Note_on_c, 15, 67, 0
20, 99237, Note_on_c, 15, 64, 0
20, 99240, Note_on_c, 15, 70, 100
20, 99240, Note_on_c, 15, 66, 100
20, 99297, Note_on_c, 15, 66, 0
20, 99297, Note_on_c, 15, 70, 0
20, 99300, Note_on_c, 15, 76, 100
20, 99300, Note_on_c, 15, 73, 100
20, 99357, Note_on_c, 15, 73, 0
20, 99357, Note_on_c, 15, 76, 0
20, 99360, Note_on_c, 15, 76, 100
20, 99360, Note_on_c, 15, 67, 100
20, 99417, Note_on_c, 15, 67, 0
20, 99417, Note_on_c, 15, 76, 0
20, 99420, Note_on_c, 15, 74, 100
20, 99420, Note_on_c, 15, 66, 100
20, 99477, Note_on_c, 15, 66, 0
20, 99477, Note_on_c, 15, 74, 0
20, 99480, Note_on_c, 15, 73, 100
20, 99480, Note_on_c, 15, 64, 100
20, 99537, Note_on_c, 15, 64, 0
20, 99537, Note_on_c, 15, 73, 0
20, 99540, Note_on_c, 15, 73, 100
20, 99540, Note_on_c, 15, 64, 100
20, 99657, Note_on_c, 15, 64, 0
20, 99657, Note_on_c, 15, 73, 0
20, 99900, Note_on_c, 15, 78, 100
20, 99900, Note_on_c, 15, 75, 100
20, 99957, Note_on_c, 15, 75, 0
20, 99957, Note_on_c, 15, 78, 0
20, 99960, Note_on_c, 15, 76, 100
20, 99960, Note_on_c, 15, 73, 100
20, 100017, Note_on_c, 15, 73, 0
20, 100017, Note_on_c, 15, 76, 0
20, 100020, Note_on_c, 15, 75, 100
20, 100020, Note_on_c, 15, 71, 100
20, 100077, Note_on_c, 15, 71, 0
20, 100077, Note_on_c, 15, 75, 0
20, 100080, Note_on_c, 15, 75, 100
20, 100080, Note_on_c, 15, 66, 100
20, 100137, Note_on_c, 15, 66, 0
20, 100137, Note_on_c, 15, 75, 0
20, 100140, Note_on_c, 15, 73, 100
20, 100140, Note_on_c, 15, 64, 100
20, 100197, Note_on_c, 15, 64, 0
20, 100197, Note_on_c, 15, 73, 0
20, 100200, Note_on_c, 15, 71, 100
20, 100200, Note_on_c, 15, 63, 100
20, 100257, Note_on_c, 15, 63, 0
20, 100257, Note_on_c, 15, 71, 0
20, 100260, Note_on_c, 15, 71, 100
20, 100260, Note_on_c, 15, 63, 100
20, 100317, Note_on_c, 15, 63, 0
20, 100320, Note_on_c, 15, 67, 100
20, 100377, Note_on_c, 15, 67, 0
20, 100380, Note_on_c, 15, 66, 100
20, 100437, Note_on_c, 15, 66, 0
20, 100440, Note_on_c, 15, 64, 100
20, 100557, Note_on_c, 15, 64, 0
20, 100560, Note_on_c, 15, 59, 100
20, 100617, Note_on_c, 15, 59, 0
20, 100617, Note_on_c, 15, 71, 0
20, 100620, Note_on_c, 15, 70, 100
20, 100620, Note_on_c, 15, 61, 100
20, 100737, Note_on_c, 15, 61, 0
20, 100737, Note_on_c, 15, 70, 0
20, 100920, Note_on_c, 15, 73, 100
20, 100920, Note_on_c, 15, 66, 100
20, 100977, Note_on_c, 15, 66, 0
20, 100977, Note_on_c, 15, 73, 0
20, 100980, Note_on_c, 15, 74, 100
20, 100980, Note_on_c, 15, 66, 100
20, 101037, Note_on_c, 15, 66, 0
20, 101037, Note_on_c, 15, 74, 0
20, 101040, Note_on_c, 15, 73, 100
20, 101040, Note_on_c, 15, 70, 100
20, 101097, Note_on_c, 15, 70, 0
20, 101097, Note_on_c, 15, 73, 0
20, 101100, Note_on_c, 15, 71, 100
20, 101100, Note_on_c, 15, 71, 100
20, 101157, Note_on_c, 15, 71, 0
20, 101157, Note_on_c, 15, 71, 0
20, 101160, Note_on_c, 15, 70, 100
20, 101160, Note_on_c, 15, 66, 100
20, 101217, Note_on_c, 15, 70, 0
20, 101220, Note_on_c, 15, 66, 100
20, 101277, Note_on_c, 15, 66, 0
20, 101280, Note_on_c, 15, 64, 100
20, 101337, Note_on_c, 15, 64, 0
20, 101337, Note_on_c, 15, 66, 0
20, 101340, Note_on_c, 15, 62, 100
20, 101340, Note_on_c, 15, 66, 100
20, 101457, Note_on_c, 15, 66, 0
20, 101457, Note_on_c, 15, 62, 0
20, 102180, Note_on_c, 15, 69, 100
20, 102237, Note_on_c, 15, 69, 0
20, 102240, Note_on_c, 15, 72, 100
20, 102360, Note_on_c, 15, 64, 100
20, 102417, Note_on_c, 15, 64, 0
20, 102420, Note_on_c, 15, 63, 100
20, 102477, Note_on_c, 15, 63, 0
20, 102477, Note_on_c, 15, 72, 0
20, 102480, Note_on_c, 15, 64, 100
20, 102480, Note_on_c, 15, 71, 100
20, 102537, Note_on_c, 15, 71, 0
20, 102537, Note_on_c, 15, 64, 0
20, 102540, Note_on_c, 15, 66, 100
20, 102540, Note_on_c, 15, 69, 100
20, 102657, Note_on_c, 15, 69, 0
20, 102657, Note_on_c, 15, 66, 0
20, 102660, Note_on_c, 15, 64, 100
20, 102660, Note_on_c, 15, 67, 100
20, 102717, Note_on_c, 15, 67, 0
20, 102717, Note_on_c, 15, 64, 0
20, 102720, Note_on_c, 15, 63, 100
20, 102720, Note_on_c, 15, 66, 100
20, 102777, Note_on_c, 15, 66, 0
20, 102777, Note_on_c, 15, 63, 0
20, 102780, Note_on_c, 15, 64, 100
20, 102780, Note_on_c, 15, 67, 100
20, 102837, Note_on_c, 15, 67, 0
20, 102837, Note_on_c, 15, 64, 0
20, 102840, Note_on_c, 15, 66, 100
20, 102840, Note_on_c, 15, 69, 100
20, 102897, Note_on_c, 15, 69, 0
20, 102897, Note_on_c, 15, 66, 0
20, 102900, Note_on_c, 15, 67, 100
20, 102900, Note_on_c, 15, 71, 100
20, 102957, Note_on_c, 15, 71, 0
20, 102957, Note_on_c, 15, 67, 0
20, 103500, Note_on_c, 15, 74, 100
20, 103500, Note_on_c, 15, 77, 100
20, 103617, Note_on_c, 15, 77, 0
20, 103617, Note_on_c, 15, 74, 0
20, 103620, Note_on_c, 15, 69, 100
20, 103620, Note_on_c, 15, 74, 100
20, 103677, Note_on_c, 15, 74, 0
20, 103677, Note_on_c, 15, 69, 0
20, 103680, Note_on_c, 15, 76, 100
20, 103680, Note_on_c, 15, 79, 100
20, 103737, Note_on_c, 15, 79, 0
20, 103737, Note_on_c, 15, 76, 0
20, 103740, Note_on_c, 15, 74, 100
20, 103740, Note_on_c, 15, 77, 100
20, 103797, Note_on_c, 15, 77, 0
20, 103797, Note_on_c, 15, 74, 0
20, 103800, Note_on_c, 15, 73, 100
20, 103800, Note_on_c, 15, 76, 100
20, 103857, Note_on_c, 15, 76, 0
20, 103857, Note_on_c, 15, 73, 0
20, 103860, Note_on_c, 15, 73, 100
20, 103860, Note_on_c, 15, 76, 100
20, 103917, Note_on_c, 15, 76, 0
20, 103917, Note_on_c, 15, 73, 0
20, 103920, Note_on_c, 15, 74, 100
20, 103920, Note_on_c, 15, 77, 100
20, 103977, Note_on_c, 15, 77, 0
20, 103977, Note_on_c, 15, 74, 0
20, 103980, Note_on_c, 15, 76, 100
20, 103980, Note_on_c, 15, 79, 100
20, 104037, Note_on_c, 15, 79, 0
20, 104037, Note_on_c, 15, 76, 0
20, 104040, Note_on_c, 15, 79, 100
20, 104040, Note_on_c, 15, 76, 100
20, 104277, Note_on_c, 15, 79, 0
20, 104280, Note_on_c, 15, 77, 100
20, 104337, Note_on_c, 15, 77, 0
20, 104340, Note_on_c, 15, 76, 100
20, 104397, Note_on_c, 15, 76, 0
20, 104400, Note_on_c, 15, 82, 100
20, 104457, Note_on_c, 15, 82, 0
20, 104460, Note_on_c, 15, 81, 100
20, 104517, Note_on_c, 15, 81, 0
20, 104520, Note_on_c, 15, 79, 100
20, 104577, Note_on_c, 15, 79, 0
20, 104580, Note_on_c, 15, 77, 100
20, 104637, Note_on_c, 15, 76, 0
20, 104640, Note_on_c, 15, 74, 100
20, 104697, Note_on_c, 15, 74, 0
20, 104700, Note_on_c, 15, 72, 100
20, 104757, Note_on_c, 15, 72, 0
20, 104760, Note_on_c, 15, 72, 100
20, 104817, Note_on_c, 15, 72, 0
20, 104820, Note_on_c, 15, 70, 100
20, 104877, Note_on_c, 15, 70, 0
20, 104880, Note_on_c, 15, 69, 100
20, 104937, Note_on_c, 15, 69, 0
20, 104940, Note_on_c, 15, 68, 100
20, 104997, Note_on_c, 15, 77, 0
20, 105000, Note_on_c, 15, 76, 100
20, 105057, Note_on_c, 15, 76, 0
20, 105060, Note_on_c, 15, 74, 100
20, 105117, Note_on_c, 15, 74, 0
20, 105120, Note_on_c, 15, 74, 100
20, 105177, Note_on_c, 15, 74, 0
20, 105180, Note_on_c, 15, 72, 100
20, 105237, Note_on_c, 15, 72, 0
20, 105240, Note_on_c, 15, 71, 100
20, 105297, Note_on_c, 15, 71, 0
20, 105297, Note_on_c, 15, 68, 0
20, 105300, Note_on_c, 15, 72, 100
20, 105300, Note_on_c, 15, 69, 100
20, 105357, Note_on_c, 15, 69, 0
20, 105357, Note_on_c, 15, 72, 0
20, 105360, Note_on_c, 15, 71, 100
20, 105360, Note_on_c, 15, 68, 100
20, 105417, Note_on_c, 15, 68, 0
20, 105417, Note_on_c, 15, 71, 0
20, 105420, Note_on_c, 15, 74, 100
20, 105420, Note_on_c, 15, 69, 100
20, 105477, Note_on_c, 15, 69, 0
20, 105477, Note_on_c, 15, 74, 0
20, 105660, Note_on_c, 15, 77, 100
20, 105660, Note_on_c, 15, 74, 100
20, 105717, Note_on_c, 15, 74, 0
20, 105717, Note_on_c, 15, 77, 0
20, 105720, Note_on_c, 15, 76, 100
20, 105720, Note_on_c, 15, 72, 100
20, 105777, Note_on_c, 15, 72, 0
20, 105777, Note_on_c, 15, 76, 0
20, 105780, Note_on_c, 15, 74, 100
20, 105780, Note_on_c, 15, 71, 100
20, 105837, Note_on_c, 15, 71, 0
20, 105837, Note_on_c, 15, 74, 0
20, 105840, Note_on_c, 15, 74, 100
20, 105840, Note_on_c, 15, 71, 100
20, 105897, Note_on_c, 15, 71, 0
20, 105897, Note_on_c, 15, 74, 0
20, 105900, Note_on_c, 15, 72, 100
20, 105900, Note_on_c, 15, 69, 100
20, 105957, Note_on_c, 15, 69, 0
20, 105957, Note_on_c, 15, 72, 0
20, 105960, Note_on_c, 15, 71, 100
20, 105960, Note_on_c, 15, 68, 100
20, 106017, Note_on_c, 15, 68, 0
20, 106017, Note_on_c, 15, 71, 0
20, 106020, Note_on_c, 15, 71, 100
20, 106020, Note_on_c, 15, 68, 100
20, 106137, Note_on_c, 15, 68, 0
20, 106137, Note_on_c, 15, 71, 0
20, 106380, Note_on_c, 15, 76, 100
20, 106380, Note_on_c, 15, 73, 100
20, 106437, Note_on_c, 15, 73, 0
20, 106437, Note_on_c, 15, 76, 0
20, 106440, Note_on_c, 15, 74, 100
20, 106440, Note_on_c, 15, 71, 100
20, 106497, Note_on_c, 15, 71, 0
20, 106497, Note_on_c, 15, 74, 0
20, 106500, Note_on_c, 15, 73, 100
20, 106500, Note_on_c, 15, 69, 100
20, 106557, Note_on_c, 15, 69, 0
20, 106557, Note_on_c, 15, 73, 0
20, 106560, Note_on_c, 15, 73, 100
20, 106560, Note_on_c, 15, 64, 100
20, 106617, Note_on_c, 15, 64, 0
20, 106617, Note_on_c, 15, 73, 0
20, 106620, Note_on_c, 15, 71, 100
20, 106620, Note_on_c, 15, 62, 100
20, 106677, Note_on_c, 15, 62, 0
20, 106677, Note_on_c, 15, 71, 0
20, 106680, Note_on_c, 15, 69, 100
20, 106680, Note_on_c, 15, 61, 100
20, 106737, Note_on_c, 15, 69, 0
20, 106740, Note_on_c, 15, 69, 100
20, 106797, Note_on_c, 15, 61, 0
20, 106800, Note_on_c, 15, 65, 100
20, 106857, Note_on_c, 15, 65, 0
20, 106860, Note_on_c, 15, 64, 100
20, 106917, Note_on_c, 15, 64, 0
20, 106920, Note_on_c, 15, 62, 100
20, 107037, Note_on_c, 15, 62, 0
20, 107040, Note_on_c, 15, 57, 100
20, 107097, Note_on_c, 15, 57, 0
20, 107097, Note_on_c, 15, 69, 0
20, 107100, Note_on_c, 15, 68, 100
20, 107100, Note_on_c, 15, 64, 100
20, 107100, Note_on_c, 15, 59, 100
20, 107217, Note_on_c, 15, 59, 0
20, 107217, Note_on_c, 15, 64, 0
20, 107277, Note_on_c, 15, 68, 0
20, 107400, Note_on_c, 15, 71, 100
20, 107400, Note_on_c, 15, 64, 100
20, 107457, Note_on_c, 15, 64, 0
20, 107457, Note_on_c, 15, 71, 0
20, 107460, Note_on_c, 15, 72, 100
20, 107460, Note_on_c, 15, 64, 100
20, 107517, Note_on_c, 15, 64, 0
20, 107517, Note_on_c, 15, 72, 0
20, 107520, Note_on_c, 15, 71, 100
20, 107520, Note_on_c, 15, 68, 100
20, 107577, Note_on_c, 15, 68, 0
20, 107577, Note_on_c, 15, 71, 0
20, 107580, Note_on_c, 15, 69, 100
20, 107580, Note_on_c, 15, 69, 100
20, 107637, Note_on_c, 15, 69, 0
20, 107637, Note_on_c, 15, 69, 0
20, 107640, Note_on_c, 15, 68, 100
20, 107640, Note_on_c, 15, 64, 100
20, 107697, Note_on_c, 15, 68, 0
20, 107700, Note_on_c, 15, 65, 100
20, 107757, Note_on_c, 15, 65, 0
20, 107760, Note_on_c, 15, 64, 100
20, 107817, Note_on_c, 15, 64, 0
20, 107817, Note_on_c, 15, 64, 0
20, 107820, Note_on_c, 15, 60, 100
20, 107820, Note_on_c, 15, 64, 100
20, 107937, Note_on_c, 15, 64, 0
20, 107937, Note_on_c, 15, 60, 0
20, 108660, Note_on_c, 15, 76, 100
20, 108717, Note_on_c, 15, 76, 0
20, 108720, Note_on_c, 15, 79, 100
20, 108840, Note_on_c, 15, 71, 100
20, 108897, Note_on_c, 15, 71, 0
20, 108900, Note_on_c, 15, 70, 100
20, 108957, Note_on_c, 15, 70, 0
20, 108957, Note_on_c, 15, 79, 0
20, 108960, Note_on_c, 15, 78, 100
20, 108960, Note_on_c, 15, 71, 100
20, 109017, Note_on_c, 15, 71, 0
20, 109017, Note_on_c, 15, 78, 0
20, 109020, Note_on_c, 15, 76, 100
20, 109020, Note_on_c, 15, 73, 100
20, 109137, Note_on_c, 15, 73, 0
20, 109137, Note_on_c, 15, 76, 0
20, 109140, Note_on_c, 15, 75, 100
20, 109140, Note_on_c, 15, 71, 100
20, 109197, Note_on_c, 15, 71, 0
20, 109197, Note_on_c, 15, 75, 0
20, 109200, Note_on_c, 15, 73, 100
20, 109200, Note_on_c, 15, 70, 100
20, 109257, Note_on_c, 15, 70, 0
20, 109257, Note_on_c, 15, 73, 0
20, 109260, Note_on_c, 15, 75, 100
20, 109260, Note_on_c, 15, 71, 100
20, 109317, Note_on_c, 15, 71, 0
20, 109317, Note_on_c, 15, 75, 0
20, 109320, Note_on_c, 15, 76, 100
20, 109320, Note_on_c, 15, 73, 100
20, 109377, Note_on_c, 15, 73, 0
20, 109377, Note_on_c, 15, 76, 0
20, 109380, Note_on_c, 15, 78, 100
20, 109380, Note_on_c, 15, 75, 100
20, 109437, Note_on_c, 15, 75, 0
20, 109437, Note_on_c, 15, 78, 0
20, 109440, Note_on_c, 15, 78, 100
20, 109440, Note_on_c, 15, 75, 100
20, 109497, Note_on_c, 15, 75, 0
20, 109497, Note_on_c, 15, 78, 0
20, 109500, Note_on_c, 15, 79, 100
20, 109500, Note_on_c, 15, 76, 100
20, 109557, Note_on_c, 15, 76, 0
20, 109557, Note_on_c, 15, 79, 0
20, 109560, Note_on_c, 15, 81, 100
20, 109560, Note_on_c, 15, 78, 100
20, 109617, Note_on_c, 15, 78, 0
20, 109617, Note_on_c, 15, 81, 0
20, 109620, Note_on_c, 15, 81, 100
20, 109620, Note_on_c, 15, 78, 100
20, 109737, Note_on_c, 15, 78, 0
20, 109737, Note_on_c, 15, 81, 0
20, 109980, Note_on_c, 15, 71, 100
20, 109980, Note_on_c, 15, 67, 100
20, 110037, Note_on_c, 15, 67, 0
20, 110037, Note_on_c, 15, 71, 0
20, 110040, Note_on_c, 15, 69, 100
20, 110040, Note_on_c, 15, 66, 100
20, 110097, Note_on_c, 15, 66, 0
20, 110097, Note_on_c, 15, 69, 0
20, 110100, Note_on_c, 15, 67, 100
20, 110100, Note_on_c, 15, 64, 100
20, 110157, Note_on_c, 15, 64, 0
20, 110157, Note_on_c, 15, 67, 0
20, 110160, Note_on_c, 15, 72, 100
20, 110160, Note_on_c, 15, 69, 100
20, 110217, Note_on_c, 15, 69, 0
20, 110217, Note_on_c, 15, 72, 0
20, 110220, Note_on_c, 15, 71, 100
20, 110220, Note_on_c, 15, 67, 100
20, 110277, Note_on_c, 15, 67, 0
20, 110277, Note_on_c, 15, 71, 0
20, 110280, Note_on_c, 15, 69, 100
20, 110280, Note_on_c, 15, 66, 100
20, 110337, Note_on_c, 15, 66, 0
20, 110337, Note_on_c, 15, 69, 0
20, 110340, Note_on_c, 15, 69, 100
20, 110340, Note_on_c, 15, 66, 100
20, 110397, Note_on_c, 15, 66, 0
20, 110397, Note_on_c, 15, 69, 0
20, 110400, Note_on_c, 15, 71, 100
20, 110400, Note_on_c, 15, 67, 100
20, 110457, Note_on_c, 15, 67, 0
20, 110457, Note_on_c, 15, 71, 0
20, 110460, Note_on_c, 15, 72, 100
20, 110460, Note_on_c, 15, 69, 100
20, 110517, Note_on_c, 15, 69, 0
20, 110517, Note_on_c, 15, 72, 0
20, 110520, Note_on_c, 15, 69, 100
20, 110520, Note_on_c, 15, 72, 100
20, 110757, Note_on_c, 15, 72, 0
20, 110757, Note_on_c, 15, 69, 0
20, 110760, Note_on_c, 15, 71, 100
20, 110760, Note_on_c, 15, 67, 100
20, 110817, Note_on_c, 15, 67, 0
20, 110817, Note_on_c, 15, 71, 0
20, 110820, Note_on_c, 15, 69, 100
20, 110820, Note_on_c, 15, 66, 100
20, 110877, Note_on_c, 15, 66, 0
20, 110877, Note_on_c, 15, 69, 0
20, 110880, Note_on_c, 15, 78, 100
20, 110880, Note_on_c, 15, 69, 100
20, 110937, Note_on_c, 15, 69, 0
20, 110937, Note_on_c, 15, 78, 0
20, 110940, Note_on_c, 15, 71, 100
20, 110940, Note_on_c, 15, 67, 100
20, 110997, Note_on_c, 15, 67, 0
20, 110997, Note_on_c, 15, 71, 0
20, 111000, Note_on_c, 15, 69, 100
20, 111000, Note_on_c, 15, 66, 100
20, 111057, Note_on_c, 15, 66, 0
20, 111057, Note_on_c, 15, 69, 0
20, 111060, Note_on_c, 15, 68, 100
20, 111060, Note_on_c, 15, 64, 100
20, 111117, Note_on_c, 15, 64, 0
20, 111117, Note_on_c, 15, 68, 0
20, 111120, Note_on_c, 15, 69, 100
20, 111120, Note_on_c, 15, 66, 100
20, 111177, Note_on_c, 15, 66, 0
20, 111177, Note_on_c, 15, 69, 0
20, 111180, Note_on_c, 15, 71, 100
20, 111180, Note_on_c, 15, 68, 100
20, 111237, Note_on_c, 15, 68, 0
20, 111237, Note_on_c, 15, 71, 0
20, 111240, Note_on_c, 15, 68, 100
20, 111240, Note_on_c, 15, 71, 100
20, 111477, Note_on_c, 15, 71, 0
20, 111477, Note_on_c, 15, 68, 0
20, 111480, Note_on_c, 15, 69, 100
20, 111480, Note_on_c, 15, 69, 100
20, 111537, Note_on_c, 15, 69, 0
20, 111537, Note_on_c, 15, 69, 0
20, 111540, Note_on_c, 15, 68, 100
20, 111540, Note_on_c, 15, 62, 100
20, 111597, Note_on_c, 15, 62, 0
20, 111597, Note_on_c, 15, 68, 0
20, 111600, Note_on_c, 15, 76, 100
20, 111600, Note_on_c, 15, 67, 100
20, 111657, Note_on_c, 15, 67, 0
20, 111657, Note_on_c, 15, 76, 0
20, 111660, Note_on_c, 15, 69, 100
20, 111660, Note_on_c, 15, 66, 100
20, 111717, Note_on_c, 15, 69, 0
20, 111720, Note_on_c, 15, 67, 100
20, 111777, Note_on_c, 15, 67, 0
20, 111780, Note_on_c, 15, 69, 100
20, 111837, Note_on_c, 15, 69, 0
20, 111837, Note_on_c, 15, 66, 0
20, 111840, Note_on_c, 15, 67, 100
20, 111840, Note_on_c, 15, 64, 100
20, 111897, Note_on_c, 15, 64, 0
20, 111897, Note_on_c, 15, 67, 0
20, 111900, Note_on_c, 15, 66, 100
20, 111900, Note_on_c, 15, 63, 100
20, 111957, Note_on_c, 15, 63, 0
20, 111957, Note_on_c, 15, 66, 0
20, 111960, Note_on_c, 15, 71, 100
20, 111960, Note_on_c, 15, 75, 100
20, 112017, Note_on_c, 15, 75, 0
20, 112020, Note_on_c, 15, 76, 100
20, 112077, Note_on_c, 15, 76, 0
20, 112080, Note_on_c, 15, 78, 100
20, 112137, Note_on_c, 15, 78, 0
20, 112140, Note_on_c, 15, 67, 100
20, 112197, Note_on_c, 15, 67, 0
20, 112197, Note_on_c, 15, 71, 0
20, 112200, Note_on_c, 15, 72, 100
20, 112200, Note_on_c, 15, 69, 100
20, 112257, Note_on_c, 15, 69, 0
20, 112257, Note_on_c, 15, 72, 0
20, 112260, Note_on_c, 15, 71, 100
20, 112260, Note_on_c, 15, 67, 100
20, 112317, Note_on_c, 15, 67, 0
20, 112317, Note_on_c, 15, 71, 0
20, 112320, Note_on_c, 15, 69, 100
20, 112320, Note_on_c, 15, 66, 100
20, 112377, Note_on_c, 15, 66, 0
20, 112377, Note_on_c, 15, 69, 0
20, 112380, Note_on_c, 15, 67, 100
20, 112380, Note_on_c, 15, 64, 100
20, 112437, Note_on_c, 15, 64, 0
20, 112437, Note_on_c, 15, 67, 0
20, 112440, Note_on_c, 15, 66, 100
20, 112440, Note_on_c, 15, 63, 100
20, 112497, Note_on_c, 15, 63, 0
20, 112497, Note_on_c, 15, 66, 0
20, 112500, Note_on_c, 15, 64, 100
20, 112500, Note_on_c, 15, 67, 100
20, 112617, Note_on_c, 15, 67, 0
20, 112617, Note_on_c, 15, 64, 0
20, 113580, Note_on_c, 15, 71, 100
20, 113580, Note_on_c, 15, 67, 100
20, 113697, Note_on_c, 15, 67, 0
20, 113697, Note_on_c, 15, 71, 0
20, 113700, Note_on_c, 15, 69, 100
20, 113700, Note_on_c, 15, 66, 100
20, 113757, Note_on_c, 15, 66, 0
20, 113757, Note_on_c, 15, 69, 0
20, 113760, Note_on_c, 15, 72, 100
20, 113760, Note_on_c, 15, 69, 100
20, 113817, Note_on_c, 15, 69, 0
20, 113817, Note_on_c, 15, 72, 0
20, 113820, Note_on_c, 15, 71, 100
20, 113820, Note_on_c, 15, 67, 100
20, 113877, Note_on_c, 15, 67, 0
20, 113877, Note_on_c, 15, 71, 0
20, 113880, Note_on_c, 15, 69, 100
20, 113880, Note_on_c, 15, 66, 100
20, 113937, Note_on_c, 15, 66, 0
20, 113937, Note_on_c, 15, 69, 0
20, 113940, Note_on_c, 15, 69, 100
20, 113940, Note_on_c, 15, 66, 100
20, 113997, Note_on_c, 15, 66, 0
20, 113997, Note_on_c, 15, 69, 0
20, 114000, Note_on_c, 15, 71, 100
20, 114000, Note_on_c, 15, 67, 100
20, 114057, Note_on_c, 15, 67, 0
20, 114057, Note_on_c, 15, 71, 0
20, 114060, Note_on_c, 15, 72, 100
20, 114060, Note_on_c, 15, 69, 100
20, 114117, Note_on_c, 15, 69, 0
20, 114117, Note_on_c, 15, 72, 0
20, 114120, Note_on_c, 15, 69, 100
20, 114120, Note_on_c, 15, 72, 100
20, 114357, Note_on_c, 15, 72, 0
20, 114357, Note_on_c, 15, 69, 0
20, 114360, Note_on_c, 15, 71, 100
20, 114360, Note_on_c, 15, 67, 100
20, 114417, Note_on_c, 15, 67, 0
20, 114417, Note_on_c, 15, 71, 0
20, 114420, Note_on_c, 15, 69, 100
20, 114420, Note_on_c, 15, 66, 100
20, 114477, Note_on_c, 15, 66, 0
20, 114477, Note_on_c, 15, 69, 0
20, 114480, Note_on_c, 15, 78, 100
20, 114480, Note_on_c, 15, 69, 100
20, 114537, Note_on_c, 15, 69, 0
20, 114537, Note_on_c, 15, 78, 0
20, 114540, Note_on_c, 15, 71, 100
20, 114540, Note_on_c, 15, 67, 100
20, 114597, Note_on_c, 15, 67, 0
20, 114597, Note_on_c, 15, 71, 0
20, 114600, Note_on_c, 15, 69, 100
20, 114600, Note_on_c, 15, 66, 100
20, 114657, Note_on_c, 15, 66, 0
20, 114657, Note_on_c, 15, 69, 0
20, 114660, Note_on_c, 15, 68, 100
20, 114660, Note_on_c, 15, 64, 100
20, 114717, Note_on_c, 15, 64, 0
20, 114717, Note_on_c, 15, 68, 0
20, 114720, Note_on_c, 15, 69, 100
20, 114720, Note_on_c, 15, 66, 100
20, 114777, Note_on_c, 15, 66, 0
20, 114777, Note_on_c, 15, 69, 0
20, 114780, Note_on_c, 15, 71, 100
20, 114780, Note_on_c, 15, 68, 100
20, 114837, Note_on_c, 15, 68, 0
20, 114837, Note_on_c, 15, 71, 0
20, 114840, Note_on_c, 15, 68, 100
20, 114840, Note_on_c, 15, 71, 100
20, 115077, Note_on_c, 15, 71, 0
20, 115077, Note_on_c, 15, 68, 0
20, 115080, Note_on_c, 15, 69, 100
20, 115080, Note_on_c, 15, 69, 100
20, 115137, Note_on_c, 15, 69, 0
20, 115137, Note_on_c, 15, 69, 0
20, 115140, Note_on_c, 15, 68, 100
20, 115140, Note_on_c, 15, 71, 100
20, 115197, Note_on_c, 15, 71, 0
20, 115197, Note_on_c, 15, 68, 0
20, 115200, Note_on_c, 15, 76, 100
20, 115200, Note_on_c, 15, 69, 100
20, 115257, Note_on_c, 15, 69, 0
20, 115257, Note_on_c, 15, 76, 0
20, 115260, Note_on_c, 15, 69, 100
20, 115260, Note_on_c, 15, 66, 100
20, 115300, Note_on_c, 15, 69, 0
20, 115317, Note_on_c, 15, 66, 0
20, 115320, Note_on_c, 15, 67, 100
20, 115320, Note_on_c, 15, 64, 100
20, 115377, Note_on_c, 15, 64, 0
20, 115377, Note_on_c, 15, 67, 0
20, 115380, Note_on_c, 15, 69, 100
20, 115380, Note_on_c, 15, 63, 100
20, 115437, Note_on_c, 15, 69, 0
20, 115440, Note_on_c, 15, 67, 100
20, 115497, Note_on_c, 15, 67, 0
20, 115497, Note_on_c, 15, 63, 0
20, 115500, Note_on_c, 15, 66, 100
20, 115500, Note_on_c, 15, 66, 100
20, 115557, Note_on_c, 15, 66, 0
20, 115557, Note_on_c, 15, 66, 0
20, 115560, Note_on_c, 15, 75, 100
20, 115560, Note_on_c, 15, 69, 100
20, 115617, Note_on_c, 15, 75, 0
20, 115620, Note_on_c, 15, 76, 100
20, 115677, Note_on_c, 15, 76, 0
20, 115677, Note_on_c, 15, 69, 0
20, 115680, Note_on_c, 15, 78, 100
20, 115680, Note_on_c, 15, 72, 100
20, 115737, Note_on_c, 15, 72, 0
20, 115737, Note_on_c, 15, 78, 0
20, 115740, Note_on_c, 15, 67, 100
20, 115740, Note_on_c, 15, 71, 100
20, 115797, Note_on_c, 15, 71, 0
20, 115797, Note_on_c, 15, 67, 0
20, 115800, Note_on_c, 15, 72, 100
20, 115800, Note_on_c, 15, 69, 100
20, 115857, Note_on_c, 15, 69, 0
20, 115857, Note_on_c, 15, 72, 0
20, 115860, Note_on_c, 15, 71, 100
20, 115860, Note_on_c, 15, 67, 100
20, 115917, Note_on_c, 15, 67, 0
20, 115917, Note_on_c, 15, 71, 0
20, 115920, Note_on_c, 15, 69, 100
20, 115920, Note_on_c, 15, 66, 100
20, 115977, Note_on_c, 15, 66, 0
20, 115977, Note_on_c, 15, 69, 0
20, 115980, Note_on_c, 15, 67, 100
20, 115980, Note_on_c, 15, 64, 100
20, 116037, Note_on_c, 15, 64, 0
20, 116037, Note_on_c, 15, 67, 0
20, 116040, Note_on_c, 15, 66, 100
20, 116040, Note_on_c, 15, 63, 100
20, 116097, Note_on_c, 15, 63, 0
20, 116097, Note_on_c, 15, 66, 0
20, 116100, Note_on_c, 15, 64, 100
20, 116337, Note_on_c, 15, 64, 0
20, 134820, Note_on_c, 15, 66, 100
20, 134820, Note_on_c, 15, 69, 100
20, 135060, Note_on_c, 15, 69, 0
20, 135060, Note_on_c, 15, 66, 0
20, 135060, Note_on_c, 15, 61, 100
20, 135060, Note_on_c, 15, 66, 100
20, 135300, Note_on_c, 15, 66, 0
20, 135300, Note_on_c, 15, 61, 0
20, 135300, Note_on_c, 15, 63, 100
20, 135420, Note_on_c, 15, 63, 0
20, 135540, Note_on_c, 15, 65, 100
20, 135540, Note_on_c, 15, 68, 100
20, 135780, Note_on_c, 15, 68, 0
20, 135780, Note_on_c, 15, 65, 0
20, 135780, Note_on_c, 15, 61, 100
20, 135780, Note_on_c, 15, 65, 100
20, 136020, Note_on_c, 15, 65, 0
20, 136020, Note_on_c, 15, 61, 0
20, 136020, Note_on_c, 15, 68, 100
20, 136020, Note_on_c, 15, 65, 100
20, 136140, Note_on_c, 15, 65, 0
20, 136140, Note_on_c, 15, 68, 0
20, 136260, Note_on_c, 15, 61, 100
20, 136260, Note_on_c, 15, 66, 100
20, 136340, Note_on_c, 15, 66, 0
20, 136340, Note_on_c, 15, 61, 0
20, 136380, Note_on_c, 15, 61, 100
20, 136380, Note_on_c, 15, 64, 100
20, 136460, Note_on_c, 15, 64, 0
20, 136460, Note_on_c, 15, 61, 0
20, 136500, Note_on_c, 15, 61, 100
20, 136500, Note_on_c, 15, 62, 100
20, 136580, Note_on_c, 15, 62, 0
20, 136580, Note_on_c, 15, 61, 0
20, 136620, Note_on_c, 15, 56, 100
20, 136620, Note_on_c, 15, 61, 100
20, 136700, Note_on_c, 15, 61, 0
20, 136700, Note_on_c, 15, 56, 0
20, 136740, Note_on_c, 15, 69, 100
20, 136860, Note_on_c, 15, 69, 0
20, 136860, Note_on_c, 15, 68, 100
20, 136980, Note_on_c, 15, 68, 0
20, 136980, Note_on_c, 15, 66, 100
20, 137100, Note_on_c, 15, 66, 0
20, 137760, Note_on_c, 15, 54, 100
20, 137820, Note_on_c, 15, 54, 0
20, 137820, Note_on_c, 15, 59, 100
20, 137880, Note_on_c, 15, 61, 100
20, 137940, Note_on_c, 15, 61, 0
20, 137940, Note_on_c, 15, 59, 0
20, 137940, Note_on_c, 15, 62, 100
20, 138000, Note_on_c, 15, 62, 0
20, 138120, Note_on_c, 15, 57, 100
20, 138180, Note_on_c, 15, 57, 0
20, 138180, Note_on_c, 15, 62, 100
20, 138240, Note_on_c, 15, 61, 100
20, 138300, Note_on_c, 15, 61, 0
20, 138300, Note_on_c, 15, 62, 0
20, 138300, Note_on_c, 15, 59, 100
20, 138360, Note_on_c, 15, 59, 0
20, 138360, Note_on_c, 15, 56, 100
20, 138420, Note_on_c, 15, 56, 0
20, 139470, Note_on_c, 15, 66, 100
20, 139470, Note_on_c, 15, 69, 100
20, 139470, Note_on_c, 15, 73, 100
20, 139490, Note_on_c, 15, 73, 0
20, 139490, Note_on_c, 15, 69, 0
20, 139490, Note_on_c, 15, 66, 0
20, 139500, Note_on_c, 15, 73, 100
20, 139500, Note_on_c, 15, 69, 100
20, 139500, Note_on_c, 15, 66, 100
20, 139620, Note_on_c, 15, 66, 0
20, 139620, Note_on_c, 15, 69, 0
20, 139620, Note_on_c, 15, 73, 0
20, 139860, Note_on_c, 15, 61, 100
20, 139860, Note_on_c, 15, 57, 100
20, 139860, Note_on_c, 15, 66, 100
20, 139980, Note_on_c, 15, 66, 0
20, 139980, Note_on_c, 15, 57, 0
20, 139980, Note_on_c, 15, 61, 0
20, 140580, Note_on_c, 15, 56, 100
20, 140580, Note_on_c, 15, 53, 100
20, 140580, Note_on_c, 15, 61, 100
20, 140700, Note_on_c, 15, 61, 0
20, 140700, Note_on_c, 15, 53, 0
20, 140700, Note_on_c, 15, 56, 0
20, 159300, Control_c, 15, 0, 0
20, 163560, Note_on_c, 15, 65, 100
20, 163560, Note_on_c, 15, 68, 100
20, 163560, Note_on_c, 15, 61, 100
20, 163620, Note_on_c, 15, 61, 0
20, 163620, Note_on_c, 15, 68, 0
20, 163620, Note_on_c, 15, 65, 0
20, 163620, Note_on_c, 15, 69, 100
20, 163620, Note_on_c, 15, 66, 100
20, 163620, Note_on_c, 15, 61, 100
20, 163740, Note_on_c, 15, 61, 0
20, 163740, Note_on_c, 15, 66, 0
20, 163740, Note_on_c, 15, 69, 0
20, 164280, Note_on_c, 15, 71, 100
20, 164280, Note_on_c, 15, 75, 100
20, 164340, Note_on_c, 15, 75, 0
20, 164340, Note_on_c, 15, 71, 0
20, 164340, Note_on_c, 15, 69, 100
20, 164340, Note_on_c, 15, 71, 100
20, 164400, Note_on_c, 15, 71, 0
20, 164400, Note_on_c, 15, 69, 0
20, 164400, Note_on_c, 15, 68, 100
20, 164400, Note_on_c, 15, 71, 100
20, 164460, Note_on_c, 15, 71, 0
20, 164460, Note_on_c, 15, 68, 0
20, 166800, Note_on_c, 15, 64, 100
20, 166800, Note_on_c, 15, 68, 100
20, 166800, Note_on_c, 15, 71, 100
20, 166800, Note_on_c, 15, 52, 100
20, 166860, Note_on_c, 15, 52, 0
20, 166860, Note_on_c, 15, 64, 0
20, 166860, Note_on_c, 15, 68, 0
20, 166860, Note_on_c, 15, 71, 0
20, 166860, Note_on_c, 15, 70, 100
20, 166860, Note_on_c, 15, 61, 100
20, 166860, Note_on_c, 15, 66, 100
20, 166860, Note_on_c, 15, 54, 100
20, 166920, Note_on_c, 15, 54, 0
20, 166920, Note_on_c, 15, 63, 100
20, 166980, Note_on_c, 15, 63, 0
20, 166980, Note_on_c, 15, 66, 0
20, 166980, Note_on_c, 15, 61, 0
20, 166980, Note_on_c, 15, 70, 0
20, 166980, Note_on_c, 15, 47, 100
20, 166980, Note_on_c, 15, 59, 100
20, 166980, Note_on_c, 15, 63, 100
20, 166980, Note_on_c, 15, 66, 100
20, 167100, Note_on_c, 15, 66, 0
20, 167100, Note_on_c, 15, 47, 0
20, 167100, Note_on_c, 15, 59, 0
20, 167100, Note_on_c, 15, 63, 0
20, 169860, Note_on_c, 15, 57, 100
20, 169920, Note_on_c, 15, 57, 0
20, 169920, Note_on_c, 15, 69, 100
20, 169920, Note_on_c, 15, 64, 100
20, 169920, Note_on_c, 15, 73, 100
20, 169980, Note_on_c, 15, 73, 0
20, 169980, Note_on_c, 15, 64, 0
20, 169980, Note_on_c, 15, 69, 0
20, 169980, Note_on_c, 15, 57, 100
20, 170040, Note_on_c, 15, 57, 0
20, 170040, Note_on_c, 15, 66, 100
20, 170040, Note_on_c, 15, 73, 100
20, 170100, Note_on_c, 15, 73, 0
20, 170100, Note_on_c, 15, 66, 0
20, 170100, Note_on_c, 15, 57, 100
20, 170160, Note_on_c, 15, 57, 0
20, 170160, Note_on_c, 15, 71, 100
20, 170160, Note_on_c, 15, 66, 100
20, 170160, Note_on_c, 15, 75, 100
20, 170220, Note_on_c, 15, 75, 0
20, 170220, Note_on_c, 15, 66, 0
20, 170220, Note_on_c, 15, 71, 0
20, 170220, Note_on_c, 15, 57, 100
20, 170280, Note_on_c, 15, 57, 0
20, 170280, Note_on_c, 15, 66, 100
20, 170280, Note_on_c, 15, 63, 100
20, 170280, Note_on_c, 15, 71, 100
20, 170340, Note_on_c, 15, 71, 0
20, 170340, Note_on_c, 15, 63, 0
20, 170340, Note_on_c, 15, 66, 0
20, 170340, Note_on_c, 15, 56, 100
20, 170400, Note_on_c, 15, 56, 0
20, 170400, Note_on_c, 15, 59, 100
20, 170400, Note_on_c, 15, 64, 100
20, 170400, Note_on_c, 15, 68, 100
20, 170460, Note_on_c, 15, 68, 0
20, 170460, Note_on_c, 15, 64, 0
20, 170460, Note_on_c, 15, 59, 0
20, 170460, Note_on_c, 15, 56, 100
20, 170520, Note_on_c, 15, 56, 0
20, 170520, Note_on_c, 15, 64, 100
20, 170520, Note_on_c, 15, 68, 100
20, 170520, Note_on_c, 15, 76, 100
20, 170580, Note_on_c, 15, 76, 0
20, 170580, Note_on_c, 15, 68, 0
20, 170580, Note_on_c, 15, 64, 0
20, 170580, Note_on_c, 15, 54, 100
20, 170640, Note_on_c, 15, 54, 0
20, 170640, Note_on_c, 15, 64, 100
20, 170640, Note_on_c, 15, 69, 100
20, 170640, Note_on_c, 15, 73, 100
20, 170700, Note_on_c, 15, 73, 0
20, 170700, Note_on_c, 15, 69, 0
20, 170700, Note_on_c, 15, 64, 0
20, 170700, Note_on_c, 15, 52, 100
20, 170760, Note_on_c, 15, 52, 0
20, 170760, Note_on_c, 15, 64, 100
20, 170760, Note_on_c, 15, 61, 100
20, 170760, Note_on_c, 15, 69, 100
20, 170820, Note_on_c, 15, 69, 0
20, 170820, Note_on_c, 15, 61, 0
20, 170820, Note_on_c, 15, 64, 0
20, 170820, Note_on_c, 15, 54, 100
20, 170880, Note_on_c, 15, 54, 0
20, 170880, Note_on_c, 15, 61, 100
20, 170880, Note_on_c, 15, 66, 100
20, 170940, Note_on_c, 15, 66, 0
20, 170940, Note_on_c, 15, 61, 0
20, 170940, Note_on_c, 15, 54, 100
20, 171000, Note_on_c, 15, 54, 0
20, 171000, Note_on_c, 15, 66, 100
20, 171000, Note_on_c, 15, 69, 100
20, 171000, Note_on_c, 15, 73, 100
20, 171060, Note_on_c, 15, 73, 0
20, 171060, Note_on_c, 15, 69, 0
20, 171060, Note_on_c, 15, 66, 0
20, 171060, Note_on_c, 15, 52, 100
20, 171120, Note_on_c, 15, 52, 0
20, 171120, Note_on_c, 15, 66, 100
20, 171120, Note_on_c, 15, 69, 100
20, 171120, Note_on_c, 15, 75, 100
20, 171180, Note_on_c, 15, 75, 0
20, 171180, Note_on_c, 15, 69, 0
20, 171180, Note_on_c, 15, 66, 0
20, 171180, Note_on_c, 15, 51, 100
20, 171240, Note_on_c, 15, 51, 0
20, 171240, Note_on_c, 15, 63, 100
20, 171240, Note_on_c, 15, 69, 100
20, 171240, Note_on_c, 15, 75, 100
20, 171300, Note_on_c, 15, 75, 0
20, 171300, Note_on_c, 15, 69, 0
20, 171300, Note_on_c, 15, 63, 0
20, 171300, Note_on_c, 15, 52, 100
20, 171360, Note_on_c, 15, 52, 0
20, 171360, Note_on_c, 15, 64, 100
20, 171360, Note_on_c, 15, 68, 100
20, 171360, Note_on_c, 15, 71, 100
20, 171420, Note_on_c, 15, 71, 0
20, 171420, Note_on_c, 15, 68, 0
20, 171420, Note_on_c, 15, 64, 0
20, 171420, Note_on_c, 15, 54, 100
20, 171480, Note_on_c, 15, 54, 0
20, 171480, Note_on_c, 15, 66, 100
20, 171480, Note_on_c, 15, 63, 100
20, 171480, Note_on_c, 15, 69, 100
20, 171540, Note_on_c, 15, 69, 0
20, 171540, Note_on_c, 15, 63, 0
20, 171540, Note_on_c, 15, 66, 0
20, 171540, Note_on_c, 15, 64, 100
20, 171540, Note_on_c, 15, 68, 100
20, 171540, Note_on_c, 15, 56, 100
20, 171600, Note_on_c, 15, 56, 0
20, 171600, Note_on_c, 15, 68, 0
20, 171600, Note_on_c, 15, 64, 0
20, 171660, Note_on_c, 15, 64, 100
20, 171660, Note_on_c, 15, 68, 100
20, 171660, Note_on_c, 15, 59, 100
20, 171720, Note_on_c, 15, 59, 0
20, 171720, Note_on_c, 15, 68, 0
20, 171720, Note_on_c, 15, 64, 0
20, 171780, Note_on_c, 15, 64, 100
20, 171780, Note_on_c, 15, 68, 100
20, 171840, Note_on_c, 15, 68, 0
20, 171840, Note_on_c, 15, 64, 0
20, 172140, Note_on_c, 15, 66, 100
20, 172140, Note_on_c, 15, 69, 100
20, 172200, Note_on_c, 15, 69, 0
20, 172200, Note_on_c, 15, 66, 0
20, 172260, Note_on_c, 15, 64, 100
20, 172260, Note_on_c, 15, 71, 100
20, 172320, Note_on_c, 15, 71, 0
20, 172320, Note_on_c, 15, 64, 0
20, 172620, Note_on_c, 15, 64, 100
20, 172620, Note_on_c, 15, 68, 100
20, 172680, Note_on_c, 15, 68, 0
20, 172680, Note_on_c, 15, 64, 0
20, 172740, Note_on_c, 15, 63, 100
20, 172740, Note_on_c, 15, 66, 100
20, 172800, Note_on_c, 15, 66, 0
20, 172800, Note_on_c, 15, 63, 0
20, 173160, Note_on_c, 15, 66, 100
20, 173160, Note_on_c, 15, 75, 100
20, 173220, Note_on_c, 15, 75, 0
20, 173220, Note_on_c, 15, 66, 0
20, 173280, Note_on_c, 15, 64, 100
20, 173280, Note_on_c, 15, 73, 100
20, 173340, Note_on_c, 15, 73, 0
20, 173340, Note_on_c, 15, 64, 0
20, 173400, Note_on_c, 15, 64, 100
20, 173400, Note_on_c, 15, 73, 100
20, 173460, Note_on_c, 15, 73, 0
20, 173460, Note_on_c, 15, 64, 0
20, 173520, Note_on_c, 15, 64, 100
20, 173520, Note_on_c, 15, 68, 100
20, 173580, Note_on_c, 15, 68, 0
20, 173580, Note_on_c, 15, 64, 0
20, 173580, Note_on_c, 15, 64, 100
20, 173580, Note_on_c, 15, 69, 100
20, 173610, Note_on_c, 15, 69, 0
20, 173610, Note_on_c, 15, 68, 100
20, 173640, Note_on_c, 15, 68, 0
20, 173640, Note_on_c, 15, 64, 0
20, 173640, Note_on_c, 15, 61, 100
20, 173640, Note_on_c, 15, 66, 100
20, 173670, Note_on_c, 15, 66, 0
20, 173670, Note_on_c, 15, 64, 100
20, 173700, Note_on_c, 15, 64, 0
20, 173700, Note_on_c, 15, 61, 0
20, 173700, Note_on_c, 15, 63, 100
20, 173760, Note_on_c, 15, 63, 0
20, 173760, Note_on_c, 15, 63, 100
20, 173820, Note_on_c, 15, 63, 0
20, 175740, Note_on_c, 15, 67, 100
20, 175740, Note_on_c, 15, 64, 100
20, 175740, Note_on_c, 15, 61, 100
20, 175800, Note_on_c, 15, 61, 0
20, 175800, Note_on_c, 15, 64, 0
20, 175800, Note_on_c, 15, 67, 0
20, 175860, Note_on_c, 15, 66, 100
20, 175860, Note_on_c, 15, 63, 100
20, 175860, Note_on_c, 15, 59, 100
20, 175920, Note_on_c, 15, 59, 0
20, 175920, Note_on_c, 15, 63, 0
20, 175920, Note_on_c, 15, 66, 0
20, 175920, Note_on_c, 15, 71, 100
20, 175920, Note_on_c, 15, 64, 100
20, 175950, Note_on_c, 15, 64, 0
20, 175950, Note_on_c, 15, 71, 0
20, 175980, Note_on_c, 15, 47, 100
20, 176040, Note_on_c, 15, 47, 0
20, 176040, Note_on_c, 15, 63, 100
20, 176040, Note_on_c, 15, 59, 100
20, 176040, Note_on_c, 15, 57, 100
20, 176100, Note_on_c, 15, 57, 0
20, 176100, Note_on_c, 15, 59, 0
20, 176100, Note_on_c, 15, 63, 0
20, 176100, Note_on_c, 15, 64, 100
20, 176100, Note_on_c, 15, 59, 100
20, 176100, Note_on_c, 15, 56, 100
20, 176158, Note_on_c, 15, 56, 0
20, 176158, Note_on_c, 15, 59, 0
20, 176158, Note_on_c, 15, 64, 0
20, 179460, Note_on_c, 15, 76, 100
20, 179460, Note_on_c, 15, 71, 100
20, 179460, Note_on_c, 15, 68, 100
20, 179460, Note_on_c, 15, 64, 100
20, 179460, Note_on_c, 15, 59, 100
20, 179460, Note_on_c, 15, 56, 100
20, 179540, Note_on_c, 15, 56, 0
20, 179540, Note_on_c, 15, 71, 0
20, 179540, Note_on_c, 15, 68, 0
20, 179540, Note_on_c, 15, 76, 0
20, 179540, Note_on_c, 15, 59, 0
20, 179540, Note_on_c, 15, 64, 0
20, 179540, End_track
21, 0, Start_track
21, 0, MIDI_port, 0
21, 0, Title_t, "continuo low"
21, 0, Program_c, 15, 6
21, 0, Note_on_c, 15, 62, 100
21, 40, Note_on_c, 15, 62, 0
21, 60, Note_on_c, 15, 50, 100
21, 100, Note_on_c, 15, 50, 0
21, 360, Note_on_c, 15, 59, 100
21, 400, Note_on_c, 15, 59, 0
21, 420, Note_on_c, 15, 47, 100
21, 460, Note_on_c, 15, 47, 0
21, 720, Note_on_c, 15, 54, 100
21, 760, Note_on_c, 15, 54, 0
21, 780, Note_on_c, 15, 42, 100
21, 820, Note_on_c, 15, 42, 0
21, 900, Note_on_c, 15, 54, 100
21, 920, Note_on_c, 15, 54, 0
21, 930, Note_on_c, 15, 55, 100
21, 950, Note_on_c, 15, 55, 0
21, 960, Note_on_c, 15, 57, 100
21, 1000, Note_on_c, 15, 57, 0
21, 1020, Note_on_c, 15, 45, 100
21, 1060, Note_on_c, 15, 45, 0
21, 1080, Note_on_c, 15, 50, 100
21, 1120, Note_on_c, 15, 50, 0
21, 1140, Note_on_c, 15, 62, 100
21, 1160, Note_on_c, 15, 62, 0
21, 1170, Note_on_c, 15, 61, 100
21, 1190, Note_on_c, 15, 61, 0
21, 1200, Note_on_c, 15, 59, 100
21, 1240, Note_on_c, 15, 59, 0
21, 1260, Note_on_c, 15, 57, 100
21, 1280, Note_on_c, 15, 57, 0
21, 1290, Note_on_c, 15, 55, 100
21, 1310, Note_on_c, 15, 55, 0
21, 1320, Note_on_c, 15, 57, 100
21, 1360, Note_on_c, 15, 57, 0
21, 1380, Note_on_c, 15, 45, 100
21, 1420, Note_on_c, 15, 45, 0
21, 1440, Note_on_c, 15, 50, 100
21, 1480, Note_on_c, 15, 50, 0
21, 1500, Note_on_c, 15, 54, 100
21, 1540, Note_on_c, 15, 54, 0
21, 1560, Note_on_c, 15, 57, 100
21, 1600, Note_on_c, 15, 57, 0
21, 1620, Note_on_c, 15, 62, 100
21, 1660, Note_on_c, 15, 62, 0
21, 1680, Note_on_c, 15, 62, 100
21, 1720, Note_on_c, 15, 62, 0
21, 1740, Note_on_c, 15, 57, 100
21, 1780, Note_on_c, 15, 57, 0
21, 1800, Note_on_c, 15, 56, 100
21, 1840, Note_on_c, 15, 56, 0
21, 1860, Note_on_c, 15, 52, 100
21, 1900, Note_on_c, 15, 52, 0
21, 1920, Note_on_c, 15, 57, 100
21, 1960, Note_on_c, 15, 57, 0
21, 1980, Note_on_c, 15, 61, 100
21, 2020, Note_on_c, 15, 61, 0
21, 2040, Note_on_c, 15, 61, 100
21, 2080, Note_on_c, 15, 61, 0
21, 2100, Note_on_c, 15, 57, 100
21, 2140, Note_on_c, 15, 57, 0
21, 2160, Note_on_c, 15, 54, 100
21, 2200, Note_on_c, 15, 54, 0
21, 2220, Note_on_c, 15, 50, 100
21, 2260, Note_on_c, 15, 50, 0
21, 2340, Note_on_c, 15, 54, 100
21, 2360, Note_on_c, 15, 54, 0
21, 2370, Note_on_c, 15, 55, 100
21, 2390, Note_on_c, 15, 55, 0
21, 2400, Note_on_c, 15, 54, 100
21, 2420, Note_on_c, 15, 54, 0
21, 2430, Note_on_c, 15, 52, 100
21, 2450, Note_on_c, 15, 52, 0
21, 2460, Note_on_c, 15, 50, 100
21, 2480, Note_on_c, 15, 50, 0
21, 2490, Note_on_c, 15, 49, 100
21, 2510, Note_on_c, 15, 49, 0
21, 2520, Note_on_c, 15, 47, 100
21, 2560, Note_on_c, 15, 47, 0
21, 2580, Note_on_c, 15, 59, 100
21, 2620, Note_on_c, 15, 59, 0
21, 2700, Note_on_c, 15, 47, 100
21, 2720, Note_on_c, 15, 47, 0
21, 2730, Note_on_c, 15, 49, 100
21, 2750, Note_on_c, 15, 49, 0
21, 2760, Note_on_c, 15, 47, 100
21, 2780, Note_on_c, 15, 47, 0
21, 2790, Note_on_c, 15, 45, 100
21, 2810, Note_on_c, 15, 45, 0
21, 2820, Note_on_c, 15, 44, 100
21, 2840, Note_on_c, 15, 44, 0
21, 2850, Note_on_c, 15, 42, 100
21, 2870, Note_on_c, 15, 42, 0
21, 2880, Note_on_c, 15, 40, 100
21, 2920, Note_on_c, 15, 40, 0
21, 2940, Note_on_c, 15, 52, 100
21, 2980, Note_on_c, 15, 52, 0
21, 3000, Note_on_c, 15, 47, 100
21, 3040, Note_on_c, 15, 47, 0
21, 3060, Note_on_c, 15, 44, 100
21, 3100, Note_on_c, 15, 44, 0
21, 3120, Note_on_c, 15, 40, 100
21, 3160, Note_on_c, 15, 40, 0
21, 3180, Note_on_c, 15, 50, 100
21, 3220, Note_on_c, 15, 50, 0
21, 3240, Note_on_c, 15, 49, 100
21, 3280, Note_on_c, 15, 49, 0
21, 3300, Note_on_c, 15, 57, 100
21, 3340, Note_on_c, 15, 57, 0
21, 3360, Note_on_c, 15, 52, 100
21, 3400, Note_on_c, 15, 52, 0
21, 3420, Note_on_c, 15, 49, 100
21, 3460, Note_on_c, 15, 49, 0
21, 3480, Note_on_c, 15, 45, 100
21, 3520, Note_on_c, 15, 45, 0
21, 3540, Note_on_c, 15, 55, 100
21, 3580, Note_on_c, 15, 55, 0
21, 3600, Note_on_c, 15, 54, 100
21, 3640, Note_on_c, 15, 54, 0
21, 3660, Note_on_c, 15, 50, 100
21, 3700, Note_on_c, 15, 50, 0
21, 3720, Note_on_c, 15, 54, 100
21, 3760, Note_on_c, 15, 54, 0
21, 3780, Note_on_c, 15, 59, 100
21, 3820, Note_on_c, 15, 59, 0
21, 3840, Note_on_c, 15, 59, 100
21, 3880, Note_on_c, 15, 59, 0
21, 3900, Note_on_c, 15, 56, 100
21, 3940, Note_on_c, 15, 56, 0
21, 3960, Note_on_c, 15, 52, 100
21, 4000, Note_on_c, 15, 52, 0
21, 4020, Note_on_c, 15, 56, 100
21, 4060, Note_on_c, 15, 56, 0
21, 4080, Note_on_c, 15, 57, 100
21, 4120, Note_on_c, 15, 57, 0
21, 4140, Note_on_c, 15, 50, 100
21, 4180, Note_on_c, 15, 50, 0
21, 4200, Note_on_c, 15, 52, 100
21, 4240, Note_on_c, 15, 52, 0
21, 4260, Note_on_c, 15, 40, 100
21, 4300, Note_on_c, 15, 40, 0
21, 4320, Note_on_c, 15, 45, 100
21, 4360, Note_on_c, 15, 45, 0
21, 4380, Note_on_c, 15, 57, 100
21, 4420, Note_on_c, 15, 57, 0
21, 4680, Note_on_c, 15, 42, 100
21, 4720, Note_on_c, 15, 42, 0
21, 4740, Note_on_c, 15, 54, 100
21, 4780, Note_on_c, 15, 54, 0
21, 5040, Note_on_c, 15, 37, 100
21, 5080, Note_on_c, 15, 37, 0
21, 5100, Note_on_c, 15, 49, 100
21, 5140, Note_on_c, 15, 49, 0
21, 5220, Note_on_c, 15, 49, 100
21, 5240, Note_on_c, 15, 49, 0
21, 5250, Note_on_c, 15, 50, 100
21, 5270, Note_on_c, 15, 50, 0
21, 5280, Note_on_c, 15, 52, 100
21, 5320, Note_on_c, 15, 52, 0
21, 5340, Note_on_c, 15, 40, 100
21, 5380, Note_on_c, 15, 40, 0
21, 5400, Note_on_c, 15, 45, 100
21, 5440, Note_on_c, 15, 45, 0
21, 5460, Note_on_c, 15, 57, 100
21, 5480, Note_on_c, 15, 57, 0
21, 5490, Note_on_c, 15, 56, 100
21, 5510, Note_on_c, 15, 56, 0
21, 5520, Note_on_c, 15, 54, 100
21, 5560, Note_on_c, 15, 54, 0
21, 5580, Note_on_c, 15, 52, 100
21, 5600, Note_on_c, 15, 52, 0
21, 5610, Note_on_c, 15, 50, 100
21, 5630, Note_on_c, 15, 50, 0
21, 5640, Note_on_c, 15, 52, 100
21, 5680, Note_on_c, 15, 52, 0
21, 5700, Note_on_c, 15, 40, 100
21, 5740, Note_on_c, 15, 40, 0
21, 5760, Note_on_c, 15, 45, 100
21, 5800, Note_on_c, 15, 45, 0
21, 5820, Note_on_c, 15, 57, 100
21, 5860, Note_on_c, 15, 57, 0
21, 5940, Note_on_c, 15, 57, 100
21, 5960, Note_on_c, 15, 57, 0
21, 5970, Note_on_c, 15, 59, 100
21, 5990, Note_on_c, 15, 59, 0
21, 6000, Note_on_c, 15, 57, 100
21, 6020, Note_on_c, 15, 57, 0
21, 6030, Note_on_c, 15, 55, 100
21, 6050, Note_on_c, 15, 55, 0
21, 6060, Note_on_c, 15, 54, 100
21, 6080, Note_on_c, 15, 54, 0
21, 6090, Note_on_c, 15, 52, 100
21, 6110, Note_on_c, 15, 52, 0
21, 6120, Note_on_c, 15, 50, 100
21, 6160, Note_on_c, 15, 50, 0
21, 6180, Note_on_c, 15, 62, 100
21, 6220, Note_on_c, 15, 62, 0
21, 6300, Note_on_c, 15, 50, 100
21, 6320, Note_on_c, 15, 50, 0
21, 6330, Note_on_c, 15, 52, 100
21, 6350, Note_on_c, 15, 52, 0
21, 6360, Note_on_c, 15, 50, 100
21, 6380, Note_on_c, 15, 50, 0
21, 6390, Note_on_c, 15, 48, 100
21, 6410, Note_on_c, 15, 48, 0
21, 6420, Note_on_c, 15, 47, 100
21, 6440, Note_on_c, 15, 47, 0
21, 6450, Note_on_c, 15, 45, 100
21, 6470, Note_on_c, 15, 45, 0
21, 6480, Note_on_c, 15, 43, 100
21, 6520, Note_on_c, 15, 43, 0
21, 6540, Note_on_c, 15, 55, 100
21, 6580, Note_on_c, 15, 55, 0
21, 6660, Note_on_c, 15, 55, 100
21, 6680, Note_on_c, 15, 55, 0
21, 6690, Note_on_c, 15, 54, 100
21, 6710, Note_on_c, 15, 54, 0
21, 6720, Note_on_c, 15, 52, 100
21, 6740, Note_on_c, 15, 52, 0
21, 6750, Note_on_c, 15, 50, 100
21, 6770, Note_on_c, 15, 50, 0
21, 6780, Note_on_c, 15, 49, 100
21, 6800, Note_on_c, 15, 49, 0
21, 6810, Note_on_c, 15, 47, 100
21, 6830, Note_on_c, 15, 47, 0
21, 6840, Note_on_c, 15, 45, 100
21, 6880, Note_on_c, 15, 45, 0
21, 6900, Note_on_c, 15, 57, 100
21, 6940, Note_on_c, 15, 57, 0
21, 7980, Note_on_c, 15, 45, 100
21, 8020, Note_on_c, 15, 45, 0
21, 8040, Note_on_c, 15, 50, 100
21, 8080, Note_on_c, 15, 50, 0
21, 8100, Note_on_c, 15, 54, 100
21, 8140, Note_on_c, 15, 54, 0
21, 8160, Note_on_c, 15, 54, 100
21, 8200, Note_on_c, 15, 54, 0
21, 8220, Note_on_c, 15, 50, 100
21, 8260, Note_on_c, 15, 50, 0
21, 8280, Note_on_c, 15, 45, 100
21, 8320, Note_on_c, 15, 45, 0
21, 8340, Note_on_c, 15, 50, 100
21, 8380, Note_on_c, 15, 50, 0
21, 8400, Note_on_c, 15, 54, 100
21, 8440, Note_on_c, 15, 54, 0
21, 8460, Note_on_c, 15, 57, 100
21, 8500, Note_on_c, 15, 57, 0
21, 8520, Note_on_c, 15, 57, 100
21, 8560, Note_on_c, 15, 57, 0
21, 8580, Note_on_c, 15, 54, 100
21, 8620, Note_on_c, 15, 54, 0
21, 8640, Note_on_c, 15, 50, 100
21, 8680, Note_on_c, 15, 50, 0
21, 8700, Note_on_c, 15, 62, 100
21, 8740, Note_on_c, 15, 62, 0
21, 9000, Note_on_c, 15, 47, 100
21, 9040, Note_on_c, 15, 47, 0
21, 9060, Note_on_c, 15, 59, 100
21, 9100, Note_on_c, 15, 59, 0
21, 9360, Note_on_c, 15, 42, 100
21, 9380, Note_on_c, 15, 42, 0
21, 9390, Note_on_c, 15, 62, 100
21, 9410, Note_on_c, 15, 62, 0
21, 9420, Note_on_c, 15, 61, 100
21, 9440, Note_on_c, 15, 61, 0
21, 9450, Note_on_c, 15, 59, 100
21, 9470, Note_on_c, 15, 59, 0
21, 9480, Note_on_c, 15, 57, 100
21, 9500, Note_on_c, 15, 57, 0
21, 9510, Note_on_c, 15, 55, 100
21, 9530, Note_on_c, 15, 55, 0
21, 9540, Note_on_c, 15, 54, 100
21, 9560, Note_on_c, 15, 54, 0
21, 9570, Note_on_c, 15, 55, 100
21, 9590, Note_on_c, 15, 55, 0
21, 9600, Note_on_c, 15, 57, 100
21, 9620, Note_on_c, 15, 57, 0
21, 9630, Note_on_c, 15, 59, 100
21, 9650, Note_on_c, 15, 59, 0
21, 9660, Note_on_c, 15, 57, 100
21, 9680, Note_on_c, 15, 57, 0
21, 9690, Note_on_c, 15, 59, 100
21, 9710, Note_on_c, 15, 59, 0
21, 9720, Note_on_c, 15, 57, 100
21, 9740, Note_on_c, 15, 57, 0
21, 9750, Note_on_c, 15, 62, 100
21, 9770, Note_on_c, 15, 62, 0
21, 9780, Note_on_c, 15, 61, 100
21, 9800, Note_on_c, 15, 61, 0
21, 9810, Note_on_c, 15, 59, 100
21, 9830, Note_on_c, 15, 59, 0
21, 9840, Note_on_c, 15, 57, 100
21, 9860, Note_on_c, 15, 57, 0
21, 9870, Note_on_c, 15, 55, 100
21, 9890, Note_on_c, 15, 55, 0
21, 9900, Note_on_c, 15, 54, 100
21, 9920, Note_on_c, 15, 54, 0
21, 9930, Note_on_c, 15, 55, 100
21, 9950, Note_on_c, 15, 55, 0
21, 9960, Note_on_c, 15, 57, 100
21, 9980, Note_on_c, 15, 57, 0
21, 9990, Note_on_c, 15, 59, 100
21, 10010, Note_on_c, 15, 59, 0
21, 10020, Note_on_c, 15, 55, 100
21, 10040, Note_on_c, 15, 55, 0
21, 10050, Note_on_c, 15, 57, 100
21, 10070, Note_on_c, 15, 57, 0
21, 10080, Note_on_c, 15, 59, 100
21, 10120, Note_on_c, 15, 59, 0
21, 10140, Note_on_c, 15, 57, 100
21, 10160, Note_on_c, 15, 57, 0
21, 10170, Note_on_c, 15, 55, 100
21, 10190, Note_on_c, 15, 55, 0
21, 10200, Note_on_c, 15, 54, 100
21, 10220, Note_on_c, 15, 54, 0
21, 10230, Note_on_c, 15, 52, 100
21, 10250, Note_on_c, 15, 52, 0
21, 10260, Note_on_c, 15, 50, 100
21, 10280, Note_on_c, 15, 50, 0
21, 10290, Note_on_c, 15, 52, 100
21, 10310, Note_on_c, 15, 52, 0
21, 10320, Note_on_c, 15, 54, 100
21, 10340, Note_on_c, 15, 54, 0
21, 10350, Note_on_c, 15, 55, 100
21, 10370, Note_on_c, 15, 55, 0
21, 10380, Note_on_c, 15, 57, 100
21, 10420, Note_on_c, 15, 57, 0
21, 10440, Note_on_c, 15, 50, 100
21, 10480, Note_on_c, 15, 50, 0
21, 10500, Note_on_c, 15, 59, 100
21, 10540, Note_on_c, 15, 59, 0
21, 10560, Note_on_c, 15, 54, 100
21, 10600, Note_on_c, 15, 54, 0
21, 10620, Note_on_c, 15, 55, 100
21, 10660, Note_on_c, 15, 55, 0
21, 10680, Note_on_c, 15, 57, 100
21, 10720, Note_on_c, 15, 57, 0
21, 10740, Note_on_c, 15, 45, 100
21, 10780, Note_on_c, 15, 45, 0
21, 10800, Note_on_c, 15, 50, 100
21, 10840, Note_on_c, 15, 50, 0
21, 10860, Note_on_c, 15, 38, 100
21, 10900, Note_on_c, 15, 38, 0
21, 11160, Note_on_c, 15, 50, 100
21, 11200, Note_on_c, 15, 50, 0
21, 11220, Note_on_c, 15, 38, 100
21, 11260, Note_on_c, 15, 38, 0
21, 11520, Note_on_c, 15, 62, 100
21, 11560, Note_on_c, 15, 62, 0
21, 11580, Note_on_c, 15, 50, 100
21, 11620, Note_on_c, 15, 50, 0
21, 11880, Note_on_c, 15, 59, 100
21, 11920, Note_on_c, 15, 59, 0
21, 11940, Note_on_c, 15, 47, 100
21, 11980, Note_on_c, 15, 47, 0
21, 12240, Note_on_c, 15, 54, 100
21, 12280, Note_on_c, 15, 54, 0
21, 12300, Note_on_c, 15, 42, 100
21, 12340, Note_on_c, 15, 42, 0
21, 12420, Note_on_c, 15, 54, 100
21, 12440, Note_on_c, 15, 54, 0
21, 12450, Note_on_c, 15, 55, 100
21, 12470, Note_on_c, 15, 55, 0
21, 12480, Note_on_c, 15, 57, 100
21, 12520, Note_on_c, 15, 57, 0
21, 12540, Note_on_c, 15, 45, 100
21, 12580, Note_on_c, 15, 45, 0
21, 12600, Note_on_c, 15, 50, 100
21, 12640, Note_on_c, 15, 50, 0
21, 12660, Note_on_c, 15, 62, 100
21, 12680, Note_on_c, 15, 62, 0
21, 12690, Note_on_c, 15, 61, 100
21, 12710, Note_on_c, 15, 61, 0
21, 12720, Note_on_c, 15, 59, 100
21, 12760, Note_on_c, 15, 59, 0
21, 12780, Note_on_c, 15, 57, 100
21, 12800, Note_on_c, 15, 57, 0
21, 12810, Note_on_c, 15, 55, 100
21, 12830, Note_on_c, 15, 55, 0
21, 12840, Note_on_c, 15, 57, 100
21, 12880, Note_on_c, 15, 57, 0
21, 12900, Note_on_c, 15, 45, 100
21, 12940, Note_on_c, 15, 45, 0
21, 12960, Note_on_c, 15, 50, 100
21, 13000, Note_on_c, 15, 50, 0
21, 13020, Note_on_c, 15, 54, 100
21, 13060, Note_on_c, 15, 54, 0
21, 13080, Note_on_c, 15, 57, 100
21, 13120, Note_on_c, 15, 57, 0
21, 13140, Note_on_c, 15, 62, 100
21, 13180, Note_on_c, 15, 62, 0
21, 13200, Note_on_c, 15, 62, 100
21, 13240, Note_on_c, 15, 62, 0
21, 13260, Note_on_c, 15, 57, 100
21, 13300, Note_on_c, 15, 57, 0
21, 13320, Note_on_c, 15, 56, 100
21, 13360, Note_on_c, 15, 56, 0
21, 13380, Note_on_c, 15, 52, 100
21, 13420, Note_on_c, 15, 52, 0
21, 13440, Note_on_c, 15, 57, 100
21, 13480, Note_on_c, 15, 57, 0
21, 13500, Note_on_c, 15, 61, 100
21, 13540, Note_on_c, 15, 61, 0
21, 13560, Note_on_c, 15, 61, 100
21, 13600, Note_on_c, 15, 61, 0
21, 13620, Note_on_c, 15, 57, 100
21, 13660, Note_on_c, 15, 57, 0
21, 13680, Note_on_c, 15, 54, 100
21, 13720, Note_on_c, 15, 54, 0
21, 13740, Note_on_c, 15, 50, 100
21, 13780, Note_on_c, 15, 50, 0
21, 13860, Note_on_c, 15, 54, 100
21, 13880, Note_on_c, 15, 54, 0
21, 13890, Note_on_c, 15, 55, 100
21, 13910, Note_on_c, 15, 55, 0
21, 13920, Note_on_c, 15, 54, 100
21, 13940, Note_on_c, 15, 54, 0
21, 13950, Note_on_c, 15, 52, 100
21, 13970, Note_on_c, 15, 52, 0
21, 13980, Note_on_c, 15, 50, 100
21, 14000, Note_on_c, 15, 50, 0
21, 14010, Note_on_c, 15, 49, 100
21, 14030, Note_on_c, 15, 49, 0
21, 14040, Note_on_c, 15, 47, 100
21, 14080, Note_on_c, 15, 47, 0
21, 14100, Note_on_c, 15, 59, 100
21, 14140, Note_on_c, 15, 59, 0
21, 14220, Note_on_c, 15, 47, 100
21, 14240, Note_on_c, 15, 47, 0
21, 14250, Note_on_c, 15, 49, 100
21, 14270, Note_on_c, 15, 49, 0
21, 14280, Note_on_c, 15, 47, 100
21, 14300, Note_on_c, 15, 47, 0
21, 14310, Note_on_c, 15, 45, 100
21, 14330, Note_on_c, 15, 45, 0
21, 14340, Note_on_c, 15, 44, 100
21, 14360, Note_on_c, 15, 44, 0
21, 14370, Note_on_c, 15, 42, 100
21, 14390, Note_on_c, 15, 42, 0
21, 14400, Note_on_c, 15, 40, 100
21, 14440, Note_on_c, 15, 40, 0
21, 14460, Note_on_c, 15, 52, 100
21, 14500, Note_on_c, 15, 52, 0
21, 14520, Note_on_c, 15, 47, 100
21, 14560, Note_on_c, 15, 47, 0
21, 14580, Note_on_c, 15, 44, 100
21, 14620, Note_on_c, 15, 44, 0
21, 14640, Note_on_c, 15, 40, 100
21, 14680, Note_on_c, 15, 40, 0
21, 14700, Note_on_c, 15, 50, 100
21, 14740, Note_on_c, 15, 50, 0
21, 14760, Note_on_c, 15, 49, 100
21, 14800, Note_on_c, 15, 49, 0
21, 14820, Note_on_c, 15, 57, 100
21, 14860, Note_on_c, 15, 57, 0
21, 14880, Note_on_c, 15, 52, 100
21, 14920, Note_on_c, 15, 52, 0
21, 14940, Note_on_c, 15, 49, 100
21, 14980, Note_on_c, 15, 49, 0
21, 15000, Note_on_c, 15, 45, 100
21, 15040, Note_on_c, 15, 45, 0
21, 15060, Note_on_c, 15, 55, 100
21, 15100, Note_on_c, 15, 55, 0
21, 15120, Note_on_c, 15, 54, 100
21, 15160, Note_on_c, 15, 54, 0
21, 15180, Note_on_c, 15, 50, 100
21, 15220, Note_on_c, 15, 50, 0
21, 15240, Note_on_c, 15, 54, 100
21, 15280, Note_on_c, 15, 54, 0
21, 15300, Note_on_c, 15, 59, 100
21, 15340, Note_on_c, 15, 59, 0
21, 15360, Note_on_c, 15, 59, 100
21, 15400, Note_on_c, 15, 59, 0
21, 15420, Note_on_c, 15, 56, 100
21, 15460, Note_on_c, 15, 56, 0
21, 15480, Note_on_c, 15, 52, 100
21, 15520, Note_on_c, 15, 52, 0
21, 15540, Note_on_c, 15, 56, 100
21, 15580, Note_on_c, 15, 56, 0
21, 15600, Note_on_c, 15, 57, 100
21, 15640, Note_on_c, 15, 57, 0
21, 15660, Note_on_c, 15, 50, 100
21, 15700, Note_on_c, 15, 50, 0
21, 15720, Note_on_c, 15, 52, 100
21, 15760, Note_on_c, 15, 52, 0
21, 15780, Note_on_c, 15, 40, 100
21, 15820, Note_on_c, 15, 40, 0
21, 15840, Note_on_c, 15, 45, 100
21, 15880, Note_on_c, 15, 45, 0
21, 15900, Note_on_c, 15, 57, 100
21, 15940, Note_on_c, 15, 57, 0
21, 16200, Note_on_c, 15, 45, 100
21, 16240, Note_on_c, 15, 45, 0
21, 16260, Note_on_c, 15, 57, 100
21, 16300, Note_on_c, 15, 57, 0
21, 16560, Note_on_c, 15, 45, 100
21, 16600, Note_on_c, 15, 45, 0
21, 16620, Note_on_c, 15, 57, 100
21, 16660, Note_on_c, 15, 57, 0
21, 16920, Note_on_c, 15, 42, 100
21, 16960, Note_on_c, 15, 42, 0
21, 16980, Note_on_c, 15, 54, 100
21, 17020, Note_on_c, 15, 54, 0
21, 17280, Note_on_c, 15, 37, 100
21, 17320, Note_on_c, 15, 37, 0
21, 17340, Note_on_c, 15, 49, 100
21, 17380, Note_on_c, 15, 49, 0
21, 17460, Note_on_c, 15, 49, 100
21, 17480, Note_on_c, 15, 49, 0
21, 17490, Note_on_c, 15, 50, 100
21, 17510, Note_on_c, 15, 50, 0
21, 17520, Note_on_c, 15, 52, 100
21, 17560, Note_on_c, 15, 52, 0
21, 17580, Note_on_c, 15, 40, 100
21, 17620, Note_on_c, 15, 40, 0
21, 17640, Note_on_c, 15, 45, 100
21, 17680, Note_on_c, 15, 45, 0
21, 17700, Note_on_c, 15, 57, 100
21, 17720, Note_on_c, 15, 57, 0
21, 17730, Note_on_c, 15, 56, 100
21, 17750, Note_on_c, 15, 56, 0
21, 17760, Note_on_c, 15, 54, 100
21, 17800, Note_on_c, 15, 54, 0
21, 17820, Note_on_c, 15, 52, 100
21, 17840, Note_on_c, 15, 52, 0
21, 17850, Note_on_c, 15, 50, 100
21, 17870, Note_on_c, 15, 50, 0
21, 17880, Note_on_c, 15, 52, 100
21, 17920, Note_on_c, 15, 52, 0
21, 17940, Note_on_c, 15, 40, 100
21, 17980, Note_on_c, 15, 40, 0
21, 18000, Note_on_c, 15, 45, 100
21, 18040, Note_on_c, 15, 45, 0
21, 18060, Note_on_c, 15, 57, 100
21, 18100, Note_on_c, 15, 57, 0
21, 18360, Note_on_c, 15, 46, 100
21, 18400, Note_on_c, 15, 46, 0
21, 18420, Note_on_c, 15, 58, 100
21, 18460, Note_on_c, 15, 58, 0
21, 18720, Note_on_c, 15, 47, 100
21, 18760, Note_on_c, 15, 47, 0
21, 18780, Note_on_c, 15, 59, 100
21, 18820, Note_on_c, 15, 59, 0
21, 19080, Note_on_c, 15, 41, 100
21, 19120, Note_on_c, 15, 41, 0
21, 19140, Note_on_c, 15, 53, 100
21, 19180, Note_on_c, 15, 53, 0
21, 19440, Note_on_c, 15, 42, 100
21, 19480, Note_on_c, 15, 42, 0
21, 19500, Note_on_c, 15, 54, 100
21, 19540, Note_on_c, 15, 54, 0
21, 19800, Note_on_c, 15, 37, 100
21, 19840, Note_on_c, 15, 37, 0
21, 19860, Note_on_c, 15, 49, 100
21, 19900, Note_on_c, 15, 49, 0
21, 20160, Note_on_c, 15, 62, 100
21, 20200, Note_on_c, 15, 62, 0
21, 20220, Note_on_c, 15, 50, 100
21, 20260, Note_on_c, 15, 50, 0
21, 20520, Note_on_c, 15, 59, 100
21, 20560, Note_on_c, 15, 59, 0
21, 20580, Note_on_c, 15, 47, 100
21, 20620, Note_on_c, 15, 47, 0
21, 20880, Note_on_c, 15, 54, 100
21, 20920, Note_on_c, 15, 54, 0
21, 20940, Note_on_c, 15, 42, 100
21, 20980, Note_on_c, 15, 42, 0
21, 21060, Note_on_c, 15, 54, 100
21, 21080, Note_on_c, 15, 54, 0
21, 21090, Note_on_c, 15, 55, 100
21, 21110, Note_on_c, 15, 55, 0
21, 21120, Note_on_c, 15, 57, 100
21, 21160, Note_on_c, 15, 57, 0
21, 21180, Note_on_c, 15, 45, 100
21, 21220, Note_on_c, 15, 45, 0
21, 21240, Note_on_c, 15, 50, 100
21, 21280, Note_on_c, 15, 50, 0
21, 21300, Note_on_c, 15, 62, 100
21, 21320, Note_on_c, 15, 62, 0
21, 21330, Note_on_c, 15, 61, 100
21, 21350, Note_on_c, 15, 61, 0
21, 21360, Note_on_c, 15, 59, 100
21, 21400, Note_on_c, 15, 59, 0
21, 21420, Note_on_c, 15, 54, 100
21, 21440, Note_on_c, 15, 54, 0
21, 21450, Note_on_c, 15, 55, 100
21, 21470, Note_on_c, 15, 55, 0
21, 21480, Note_on_c, 15, 57, 100
21, 21520, Note_on_c, 15, 57, 0
21, 21540, Note_on_c, 15, 45, 100
21, 21580, Note_on_c, 15, 45, 0
21, 21600, Note_on_c, 15, 50, 100
21, 21640, Note_on_c, 15, 50, 0
21, 21660, Note_on_c, 15, 62, 100
21, 21700, Note_on_c, 15, 62, 0
21, 21960, Note_on_c, 15, 50, 100
21, 22000, Note_on_c, 15, 50, 0
21, 22020, Note_on_c, 15, 59, 100
21, 22040, Note_on_c, 15, 59, 0
21, 22050, Note_on_c, 15, 57, 100
21, 22070, Note_on_c, 15, 57, 0
21, 22080, Note_on_c, 15, 55, 100
21, 22120, Note_on_c, 15, 55, 0
21, 22140, Note_on_c, 15, 50, 100
21, 22160, Note_on_c, 15, 50, 0
21, 22170, Note_on_c, 15, 52, 100
21, 22190, Note_on_c, 15, 52, 0
21, 22200, Note_on_c, 15, 54, 100
21, 22240, Note_on_c, 15, 54, 0
21, 22260, Note_on_c, 15, 42, 100
21, 22300, Note_on_c, 15, 42, 0
21, 22320, Note_on_c, 15, 47, 100
21, 22360, Note_on_c, 15, 47, 0
21, 22380, Note_on_c, 15, 59, 100
21, 22420, Note_on_c, 15, 59, 0
21, 22680, Note_on_c, 15, 43, 100
21, 22720, Note_on_c, 15, 43, 0
21, 22740, Note_on_c, 15, 55, 100
21, 22760, Note_on_c, 15, 55, 0
21, 22770, Note_on_c, 15, 54, 100
21, 22790, Note_on_c, 15, 54, 0
21, 22800, Note_on_c, 15, 52, 100
21, 22840, Note_on_c, 15, 52, 0
21, 22860, Note_on_c, 15, 47, 100
21, 22880, Note_on_c, 15, 47, 0
21, 22890, Note_on_c, 15, 49, 100
21, 22910, Note_on_c, 15, 49, 0
21, 22920, Note_on_c, 15, 50, 100
21, 22960, Note_on_c, 15, 50, 0
21, 22980, Note_on_c, 15, 38, 100
21, 23020, Note_on_c, 15, 38, 0
21, 23040, Note_on_c, 15, 43, 100
21, 23080, Note_on_c, 15, 43, 0
21, 23100, Note_on_c, 15, 55, 100
21, 23140, Note_on_c, 15, 55, 0
21, 23400, Note_on_c, 15, 40, 100
21, 23440, Note_on_c, 15, 40, 0
21, 23460, Note_on_c, 15, 52, 100
21, 23480, Note_on_c, 15, 52, 0
21, 23490, Note_on_c, 15, 50, 100
21, 23510, Note_on_c, 15, 50, 0
21, 23520, Note_on_c, 15, 48, 100
21, 23560, Note_on_c, 15, 48, 0
21, 23580, Note_on_c, 15, 43, 100
21, 23600, Note_on_c, 15, 43, 0
21, 23610, Note_on_c, 15, 45, 100
21, 23630, Note_on_c, 15, 45, 0
21, 23640, Note_on_c, 15, 47, 100
21, 23680, Note_on_c, 15, 47, 0
21, 23700, Note_on_c, 15, 47, 100
21, 23740, Note_on_c, 15, 47, 0
21, 23760, Note_on_c, 15, 40, 100
21, 23800, Note_on_c, 15, 40, 0
21, 23820, Note_on_c, 15, 47, 100
21, 23860, Note_on_c, 15, 47, 0
21, 23880, Note_on_c, 15, 52, 100
21, 23920, Note_on_c, 15, 52, 0
21, 23940, Note_on_c, 15, 55, 100
21, 23980, Note_on_c, 15, 55, 0
21, 24000, Note_on_c, 15, 55, 100
21, 24040, Note_on_c, 15, 55, 0
21, 24060, Note_on_c, 15, 52, 100
21, 24100, Note_on_c, 15, 52, 0
21, 24120, Note_on_c, 15, 49, 100
21, 24160, Note_on_c, 15, 49, 0
21, 24180, Note_on_c, 15, 45, 100
21, 24220, Note_on_c, 15, 45, 0
21, 24240, Note_on_c, 15, 50, 100
21, 24280, Note_on_c, 15, 50, 0
21, 24300, Note_on_c, 15, 54, 100
21, 24340, Note_on_c, 15, 54, 0
21, 24360, Note_on_c, 15, 54, 100
21, 24400, Note_on_c, 15, 54, 0
21, 24420, Note_on_c, 15, 50, 100
21, 24460, Note_on_c, 15, 50, 0
21, 24480, Note_on_c, 15, 47, 100
21, 24520, Note_on_c, 15, 47, 0
21, 24540, Note_on_c, 15, 43, 100
21, 24580, Note_on_c, 15, 43, 0
21, 24660, Note_on_c, 15, 47, 100
21, 24680, Note_on_c, 15, 47, 0
21, 24690, Note_on_c, 15, 48, 100
21, 24710, Note_on_c, 15, 48, 0
21, 24720, Note_on_c, 15, 47, 100
21, 24740, Note_on_c, 15, 47, 0
21, 24750, Note_on_c, 15, 45, 100
21, 24770, Note_on_c, 15, 45, 0
21, 24780, Note_on_c, 15, 43, 100
21, 24800, Note_on_c, 15, 43, 0
21, 24810, Note_on_c, 15, 42, 100
21, 24830, Note_on_c, 15, 42, 0
21, 24840, Note_on_c, 15, 40, 100
21, 24880, Note_on_c, 15, 40, 0
21, 24900, Note_on_c, 15, 52, 100
21, 24940, Note_on_c, 15, 52, 0
21, 25020, Note_on_c, 15, 52, 100
21, 25040, Note_on_c, 15, 52, 0
21, 25050, Note_on_c, 15, 54, 100
21, 25070, Note_on_c, 15, 54, 0
21, 25080, Note_on_c, 15, 52, 100
21, 25100, Note_on_c, 15, 52, 0
21, 25110, Note_on_c, 15, 50, 100
21, 25130, Note_on_c, 15, 50, 0
21, 25140, Note_on_c, 15, 49, 100
21, 25160, Note_on_c, 15, 49, 0
21, 25170, Note_on_c, 15, 47, 100
21, 25190, Note_on_c, 15, 47, 0
21, 25200, Note_on_c, 15, 45, 100
21, 25240, Note_on_c, 15, 45, 0
21, 25260, Note_on_c, 15, 57, 100
21, 25300, Note_on_c, 15, 57, 0
21, 25320, Note_on_c, 15, 52, 100
21, 25360, Note_on_c, 15, 52, 0
21, 25380, Note_on_c, 15, 49, 100
21, 25420, Note_on_c, 15, 49, 0
21, 25440, Note_on_c, 15, 45, 100
21, 25480, Note_on_c, 15, 45, 0
21, 25500, Note_on_c, 15, 55, 100
21, 25540, Note_on_c, 15, 55, 0
21, 25560, Note_on_c, 15, 54, 100
21, 25600, Note_on_c, 15, 54, 0
21, 25620, Note_on_c, 15, 50, 100
21, 25660, Note_on_c, 15, 50, 0
21, 25680, Note_on_c, 15, 45, 100
21, 25720, Note_on_c, 15, 45, 0
21, 25740, Note_on_c, 15, 42, 100
21, 25780, Note_on_c, 15, 42, 0
21, 25800, Note_on_c, 15, 38, 100
21, 25840, Note_on_c, 15, 38, 0
21, 25860, Note_on_c, 15, 48, 100
21, 25900, Note_on_c, 15, 48, 0
21, 25920, Note_on_c, 15, 47, 100
21, 25960, Note_on_c, 15, 47, 0
21, 25980, Note_on_c, 15, 43, 100
21, 26020, Note_on_c, 15, 43, 0
21, 26040, Note_on_c, 15, 47, 100
21, 26080, Note_on_c, 15, 47, 0
21, 26100, Note_on_c, 15, 52, 100
21, 26140, Note_on_c, 15, 52, 0
21, 26160, Note_on_c, 15, 52, 100
21, 26200, Note_on_c, 15, 52, 0
21, 26220, Note_on_c, 15, 50, 100
21, 26260, Note_on_c, 15, 50, 0
21, 26280, Note_on_c, 15, 45, 100
21, 26320, Note_on_c, 15, 45, 0
21, 26340, Note_on_c, 15, 49, 100
21, 26380, Note_on_c, 15, 49, 0
21, 26400, Note_on_c, 15, 50, 100
21, 26440, Note_on_c, 15, 50, 0
21, 26460, Note_on_c, 15, 55, 100
21, 26500, Note_on_c, 15, 55, 0
21, 26520, Note_on_c, 15, 57, 100
21, 26560, Note_on_c, 15, 57, 0
21, 26580, Note_on_c, 15, 45, 100
21, 26620, Note_on_c, 15, 45, 0
21, 26640, Note_on_c, 15, 38, 100
21, 26680, Note_on_c, 15, 38, 0
21, 26700, Note_on_c, 15, 50, 100
21, 26740, Note_on_c, 15, 50, 0
21, 26820, Note_on_c, 15, 50, 100
21, 26860, Note_on_c, 15, 50, 0
21, 26880, Note_on_c, 15, 49, 100
21, 26920, Note_on_c, 15, 49, 0
21, 26940, Note_on_c, 15, 50, 100
21, 26980, Note_on_c, 15, 50, 0
21, 27000, Note_on_c, 15, 45, 100
21, 27040, Note_on_c, 15, 45, 0
21, 27060, Note_on_c, 15, 57, 100
21, 27100, Note_on_c, 15, 57, 0
21, 27180, Note_on_c, 15, 57, 100
21, 27200, Note_on_c, 15, 57, 0
21, 27210, Note_on_c, 15, 59, 100
21, 27230, Note_on_c, 15, 59, 0
21, 27240, Note_on_c, 15, 57, 100
21, 27260, Note_on_c, 15, 57, 0
21, 27270, Note_on_c, 15, 55, 100
21, 27290, Note_on_c, 15, 55, 0
21, 27300, Note_on_c, 15, 54, 100
21, 27320, Note_on_c, 15, 54, 0
21, 27330, Note_on_c, 15, 52, 100
21, 27350, Note_on_c, 15, 52, 0
21, 27360, Note_on_c, 15, 50, 100
21, 27400, Note_on_c, 15, 50, 0
21, 27420, Note_on_c, 15, 62, 100
21, 27460, Note_on_c, 15, 62, 0
21, 27540, Note_on_c, 15, 50, 100
21, 27560, Note_on_c, 15, 50, 0
21, 27570, Note_on_c, 15, 52, 100
21, 27590, Note_on_c, 15, 52, 0
21, 27600, Note_on_c, 15, 50, 100
21, 27620, Note_on_c, 15, 50, 0
21, 27630, Note_on_c, 15, 48, 100
21, 27650, Note_on_c, 15, 48, 0
21, 27660, Note_on_c, 15, 47, 100
21, 27680, Note_on_c, 15, 47, 0
21, 27690, Note_on_c, 15, 45, 100
21, 27710, Note_on_c, 15, 45, 0
21, 27720, Note_on_c, 15, 43, 100
21, 27760, Note_on_c, 15, 43, 0
21, 27780, Note_on_c, 15, 55, 100
21, 27820, Note_on_c, 15, 55, 0
21, 27900, Note_on_c, 15, 55, 100
21, 27920, Note_on_c, 15, 55, 0
21, 27930, Note_on_c, 15, 54, 100
21, 27950, Note_on_c, 15, 54, 0
21, 27960, Note_on_c, 15, 52, 100
21, 27980, Note_on_c, 15, 52, 0
21, 27990, Note_on_c, 15, 50, 100
21, 28010, Note_on_c, 15, 50, 0
21, 28020, Note_on_c, 15, 49, 100
21, 28040, Note_on_c, 15, 49, 0
21, 28050, Note_on_c, 15, 47, 100
21, 28070, Note_on_c, 15, 47, 0
21, 28080, Note_on_c, 15, 45, 100
21, 28120, Note_on_c, 15, 45, 0
21, 28140, Note_on_c, 15, 57, 100
21, 28180, Note_on_c, 15, 57, 0
21, 29220, Note_on_c, 15, 45, 100
21, 29260, Note_on_c, 15, 45, 0
21, 29280, Note_on_c, 15, 50, 100
21, 29320, Note_on_c, 15, 50, 0
21, 29340, Note_on_c, 15, 54, 100
21, 29380, Note_on_c, 15, 54, 0
21, 29400, Note_on_c, 15, 54, 100
21, 29440, Note_on_c, 15, 54, 0
21, 29460, Note_on_c, 15, 50, 100
21, 29500, Note_on_c, 15, 50, 0
21, 29520, Note_on_c, 15, 45, 100
21, 29560, Note_on_c, 15, 45, 0
21, 29580, Note_on_c, 15, 50, 100
21, 29620, Note_on_c, 15, 50, 0
21, 29640, Note_on_c, 15, 54, 100
21, 29680, Note_on_c, 15, 54, 0
21, 29700, Note_on_c, 15, 57, 100
21, 29740, Note_on_c, 15, 57, 0
21, 29760, Note_on_c, 15, 57, 100
21, 29800, Note_on_c, 15, 57, 0
21, 29820, Note_on_c, 15, 54, 100
21, 29860, Note_on_c, 15, 54, 0
21, 29880, Note_on_c, 15, 50, 100
21, 29920, Note_on_c, 15, 50, 0
21, 29940, Note_on_c, 15, 62, 100
21, 29980, Note_on_c, 15, 62, 0
21, 30240, Note_on_c, 15, 47, 100
21, 30280, Note_on_c, 15, 47, 0
21, 30300, Note_on_c, 15, 59, 100
21, 30340, Note_on_c, 15, 59, 0
21, 30600, Note_on_c, 15, 42, 100
21, 30620, Note_on_c, 15, 42, 0
21, 30630, Note_on_c, 15, 62, 100
21, 30650, Note_on_c, 15, 62, 0
21, 30660, Note_on_c, 15, 61, 100
21, 30680, Note_on_c, 15, 61, 0
21, 30690, Note_on_c, 15, 59, 100
21, 30710, Note_on_c, 15, 59, 0
21, 30720, Note_on_c, 15, 57, 100
21, 30740, Note_on_c, 15, 57, 0
21, 30750, Note_on_c, 15, 55, 100
21, 30770, Note_on_c, 15, 55, 0
21, 30780, Note_on_c, 15, 54, 100
21, 30800, Note_on_c, 15, 54, 0
21, 30810, Note_on_c, 15, 55, 100
21, 30830, Note_on_c, 15, 55, 0
21, 30840, Note_on_c, 15, 57, 100
21, 30860, Note_on_c, 15, 57, 0
21, 30870, Note_on_c, 15, 59, 100
21, 30890, Note_on_c, 15, 59, 0
21, 30900, Note_on_c, 15, 57, 100
21, 30920, Note_on_c, 15, 57, 0
21, 30930, Note_on_c, 15, 59, 100
21, 30950, Note_on_c, 15, 59, 0
21, 30960, Note_on_c, 15, 57, 100
21, 30980, Note_on_c, 15, 57, 0
21, 30990, Note_on_c, 15, 62, 100
21, 31010, Note_on_c, 15, 62, 0
21, 31020, Note_on_c, 15, 61, 100
21, 31040, Note_on_c, 15, 61, 0
21, 31050, Note_on_c, 15, 59, 100
21, 31070, Note_on_c, 15, 59, 0
21, 31080, Note_on_c, 15, 57, 100
21, 31100, Note_on_c, 15, 57, 0
21, 31110, Note_on_c, 15, 55, 100
21, 31130, Note_on_c, 15, 55, 0
21, 31140, Note_on_c, 15, 54, 100
21, 31160, Note_on_c, 15, 54, 0
21, 31170, Note_on_c, 15, 55, 100
21, 31190, Note_on_c, 15, 55, 0
21, 31200, Note_on_c, 15, 57, 100
21, 31220, Note_on_c, 15, 57, 0
21, 31230, Note_on_c, 15, 59, 100
21, 31250, Note_on_c, 15, 59, 0
21, 31260, Note_on_c, 15, 55, 100
21, 31280, Note_on_c, 15, 55, 0
21, 31290, Note_on_c, 15, 57, 100
21, 31310, Note_on_c, 15, 57, 0
21, 31320, Note_on_c, 15, 59, 100
21, 31360, Note_on_c, 15, 59, 0
21, 31380, Note_on_c, 15, 57, 100
21, 31400, Note_on_c, 15, 57, 0
21, 31410, Note_on_c, 15, 55, 100
21, 31430, Note_on_c, 15, 55, 0
21, 31440, Note_on_c, 15, 54, 100
21, 31460, Note_on_c, 15, 54, 0
21, 31470, Note_on_c, 15, 52, 100
21, 31490, Note_on_c, 15, 52, 0
21, 31500, Note_on_c, 15, 50, 100
21, 31520, Note_on_c, 15, 50, 0
21, 31530, Note_on_c, 15, 52, 100
21, 31550, Note_on_c, 15, 52, 0
21, 31560, Note_on_c, 15, 54, 100
21, 31580, Note_on_c, 15, 54, 0
21, 31590, Note_on_c, 15, 55, 100
21, 31610, Note_on_c, 15, 55, 0
21, 31620, Note_on_c, 15, 57, 100
21, 31660, Note_on_c, 15, 57, 0
21, 31680, Note_on_c, 15, 50, 100
21, 31720, Note_on_c, 15, 50, 0
21, 31740, Note_on_c, 15, 59, 100
21, 31780, Note_on_c, 15, 59, 0
21, 31800, Note_on_c, 15, 54, 100
21, 31840, Note_on_c, 15, 54, 0
21, 31860, Note_on_c, 15, 55, 100
21, 31900, Note_on_c, 15, 55, 0
21, 31920, Note_on_c, 15, 57, 100
21, 31960, Note_on_c, 15, 57, 0
21, 31980, Note_on_c, 15, 45, 100
21, 32020, Note_on_c, 15, 45, 0
21, 32040, Note_on_c, 15, 50, 100
21, 32120, Note_on_c, 15, 50, 0
21, 32760, Control_c, 15, 0, 0
21, 32760, Note_on_c, 15, 50, 100
21, 32840, Note_on_c, 15, 50, 0
21, 32970, Note_on_c, 15, 62, 100
21, 32980, Note_on_c, 15, 62, 0
21, 32985, Note_on_c, 15, 61, 100
21, 32995, Note_on_c, 15, 61, 0
21, 33000, Note_on_c, 15, 62, 100
21, 33020, Note_on_c, 15, 62, 0
21, 33030, Note_on_c, 15, 57, 100
21, 33050, Note_on_c, 15, 57, 0
21, 33060, Note_on_c, 15, 54, 100
21, 33080, Note_on_c, 15, 54, 0
21, 33090, Note_on_c, 15, 50, 100
21, 33110, Note_on_c, 15, 50, 0
21, 33120, Note_on_c, 15, 52, 100
21, 33160, Note_on_c, 15, 52, 0
21, 33180, Note_on_c, 15, 54, 100
21, 33220, Note_on_c, 15, 54, 0
21, 33240, Note_on_c, 15, 55, 100
21, 33280, Note_on_c, 15, 55, 0
21, 33300, Note_on_c, 15, 57, 100
21, 33340, Note_on_c, 15, 57, 0
21, 33360, Note_on_c, 15, 55, 100
21, 33400, Note_on_c, 15, 55, 0
21, 33480, Note_on_c, 15, 54, 100
21, 33560, Note_on_c, 15, 54, 0
21, 33690, Note_on_c, 15, 55, 100
21, 33700, Note_on_c, 15, 55, 0
21, 33705, Note_on_c, 15, 54, 100
21, 33715, Note_on_c, 15, 54, 0
21, 33720, Note_on_c, 15, 55, 100
21, 33740, Note_on_c, 15, 55, 0
21, 33750, Note_on_c, 15, 50, 100
21, 33770, Note_on_c, 15, 50, 0
21, 33780, Note_on_c, 15, 47, 100
21, 33800, Note_on_c, 15, 47, 0
21, 33810, Note_on_c, 15, 43, 100
21, 33830, Note_on_c, 15, 43, 0
21, 33840, Note_on_c, 15, 56, 100
21, 33920, Note_on_c, 15, 56, 0
21, 34050, Note_on_c, 15, 57, 100
21, 34060, Note_on_c, 15, 57, 0
21, 34065, Note_on_c, 15, 56, 100
21, 34075, Note_on_c, 15, 56, 0
21, 34080, Note_on_c, 15, 57, 100
21, 34100, Note_on_c, 15, 57, 0
21, 34110, Note_on_c, 15, 52, 100
21, 34130, Note_on_c, 15, 52, 0
21, 34140, Note_on_c, 15, 49, 100
21, 34160, Note_on_c, 15, 49, 0
21, 34170, Note_on_c, 15, 45, 100
21, 34190, Note_on_c, 15, 45, 0
21, 34200, Note_on_c, 15, 49, 100
21, 34280, Note_on_c, 15, 49, 0
21, 34380, Note_on_c, 15, 45, 100
21, 34420, Note_on_c, 15, 45, 0
21, 34440, Note_on_c, 15, 50, 100
21, 34480, Note_on_c, 15, 50, 0
21, 34500, Note_on_c, 15, 47, 100
21, 34540, Note_on_c, 15, 47, 0
21, 34560, Note_on_c, 15, 43, 100
21, 34600, Note_on_c, 15, 43, 0
21, 34620, Note_on_c, 15, 45, 100
21, 34660, Note_on_c, 15, 45, 0
21, 34680, Note_on_c, 15, 45, 100
21, 34720, Note_on_c, 15, 45, 0
21, 34740, Note_on_c, 15, 38, 100
21, 34780, Note_on_c, 15, 38, 0
21, 34800, Note_on_c, 15, 42, 100
21, 34840, Note_on_c, 15, 42, 0
21, 34860, Note_on_c, 15, 45, 100
21, 34900, Note_on_c, 15, 45, 0
21, 34920, Note_on_c, 15, 50, 100
21, 35000, Note_on_c, 15, 50, 0
21, 35130, Note_on_c, 15, 62, 100
21, 35140, Note_on_c, 15, 62, 0
21, 35145, Note_on_c, 15, 61, 100
21, 35155, Note_on_c, 15, 61, 0
21, 35160, Note_on_c, 15, 62, 100
21, 35180, Note_on_c, 15, 62, 0
21, 35190, Note_on_c, 15, 57, 100
21, 35210, Note_on_c, 15, 57, 0
21, 35220, Note_on_c, 15, 54, 100
21, 35240, Note_on_c, 15, 54, 0
21, 35250, Note_on_c, 15, 50, 100
21, 35270, Note_on_c, 15, 50, 0
21, 35280, Note_on_c, 15, 55, 100
21, 35320, Note_on_c, 15, 55, 0
21, 35340, Note_on_c, 15, 52, 100
21, 35380, Note_on_c, 15, 52, 0
21, 35400, Note_on_c, 15, 57, 100
21, 35440, Note_on_c, 15, 57, 0
21, 35460, Note_on_c, 15, 50, 100
21, 35480, Note_on_c, 15, 50, 0
21, 35490, Note_on_c, 15, 57, 100
21, 35500, Note_on_c, 15, 57, 0
21, 35505, Note_on_c, 15, 56, 100
21, 35515, Note_on_c, 15, 56, 0
21, 35520, Note_on_c, 15, 57, 100
21, 35540, Note_on_c, 15, 57, 0
21, 35550, Note_on_c, 15, 52, 100
21, 35570, Note_on_c, 15, 52, 0
21, 35580, Note_on_c, 15, 49, 100
21, 35600, Note_on_c, 15, 49, 0
21, 35610, Note_on_c, 15, 45, 100
21, 35630, Note_on_c, 15, 45, 0
21, 35640, Note_on_c, 15, 49, 100
21, 35720, Note_on_c, 15, 49, 0
21, 35820, Note_on_c, 15, 45, 100
21, 35860, Note_on_c, 15, 45, 0
21, 35880, Note_on_c, 15, 50, 100
21, 35920, Note_on_c, 15, 50, 0
21, 35940, Note_on_c, 15, 47, 100
21, 35980, Note_on_c, 15, 47, 0
21, 36000, Note_on_c, 15, 43, 100
21, 36040, Note_on_c, 15, 43, 0
21, 36060, Note_on_c, 15, 45, 100
21, 36100, Note_on_c, 15, 45, 0
21, 36120, Note_on_c, 15, 45, 100
21, 36160, Note_on_c, 15, 45, 0
21, 36180, Note_on_c, 15, 38, 100
21, 36220, Note_on_c, 15, 38, 0
21, 36240, Note_on_c, 15, 42, 100
21, 36280, Note_on_c, 15, 42, 0
21, 36300, Note_on_c, 15, 45, 100
21, 36340, Note_on_c, 15, 45, 0
21, 36360, Note_on_c, 15, 50, 100
21, 36440, Note_on_c, 15, 50, 0
21, 36570, Note_on_c, 15, 62, 100
21, 36580, Note_on_c, 15, 62, 0
21, 36585, Note_on_c, 15, 61, 100
21, 36595, Note_on_c, 15, 61, 0
21, 36600, Note_on_c, 15, 62, 100
21, 36620, Note_on_c, 15, 62, 0
21, 36630, Note_on_c, 15, 57, 100
21, 36650, Note_on_c, 15, 57, 0
21, 36660, Note_on_c, 15, 54, 100
21, 36680, Note_on_c, 15, 54, 0
21, 36690, Note_on_c, 15, 50, 100
21, 36710, Note_on_c, 15, 50, 0
21, 36720, Note_on_c, 15, 55, 100
21, 36760, Note_on_c, 15, 55, 0
21, 36780, Note_on_c, 15, 57, 100
21, 36820, Note_on_c, 15, 57, 0
21, 36840, Note_on_c, 15, 45, 100
21, 36880, Note_on_c, 15, 45, 0
21, 36900, Note_on_c, 15, 50, 100
21, 36940, Note_on_c, 15, 50, 0
21, 36960, Note_on_c, 15, 45, 100
21, 37000, Note_on_c, 15, 45, 0
21, 37020, Note_on_c, 15, 47, 100
21, 37060, Note_on_c, 15, 47, 0
21, 37080, Note_on_c, 15, 49, 100
21, 37140, Note_on_c, 15, 49, 0
21, 37140, Note_on_c, 15, 45, 100
21, 37200, Note_on_c, 15, 45, 0
21, 37290, Note_on_c, 15, 57, 100
21, 37305, Note_on_c, 15, 57, 0
21, 37305, Note_on_c, 15, 56, 100
21, 37320, Note_on_c, 15, 56, 0
21, 37320, Note_on_c, 15, 57, 100
21, 37350, Note_on_c, 15, 57, 0
21, 37350, Note_on_c, 15, 52, 100
21, 37380, Note_on_c, 15, 52, 0
21, 37380, Note_on_c, 15, 49, 100
21, 37410, Note_on_c, 15, 49, 0
21, 37410, Note_on_c, 15, 45, 100
21, 37440, Note_on_c, 15, 45, 0
21, 37440, Note_on_c, 15, 47, 100
21, 37500, Note_on_c, 15, 47, 0
21, 37500, Note_on_c, 15, 40, 100
21, 37560, Note_on_c, 15, 40, 0
21, 37560, Note_on_c, 15, 50, 100
21, 37620, Note_on_c, 15, 50, 0
21, 37620, Note_on_c, 15, 49, 100
21, 37680, Note_on_c, 15, 49, 0
21, 37680, Note_on_c, 15, 50, 100
21, 37740, Note_on_c, 15, 50, 0
21, 37740, Note_on_c, 15, 52, 100
21, 37800, Note_on_c, 15, 52, 0
21, 37800, Note_on_c, 15, 49, 100
21, 37830, Note_on_c, 15, 49, 0
21, 37830, Note_on_c, 15, 52, 100
21, 37845, Note_on_c, 15, 52, 0
21, 37845, Note_on_c, 15, 54, 100
21, 37860, Note_on_c, 15, 54, 0
21, 37860, Note_on_c, 15, 52, 100
21, 37890, Note_on_c, 15, 52, 0
21, 37890, Note_on_c, 15, 49, 100
21, 37905, Note_on_c, 15, 49, 0
21, 37905, Note_on_c, 15, 50, 100
21, 37920, Note_on_c, 15, 50, 0
21, 37920, Note_on_c, 15, 49, 100
21, 37950, Note_on_c, 15, 49, 0
21, 37950, Note_on_c, 15, 45, 100
21, 37965, Note_on_c, 15, 45, 0
21, 37965, Note_on_c, 15, 47, 100
21, 37980, Note_on_c, 15, 47, 0
21, 37980, Note_on_c, 15, 45, 100
21, 38040, Note_on_c, 15, 45, 0
21, 38040, Note_on_c, 15, 50, 100
21, 38100, Note_on_c, 15, 50, 0
21, 38190, Note_on_c, 15, 59, 100
21, 38205, Note_on_c, 15, 59, 0
21, 38205, Note_on_c, 15, 57, 100
21, 38220, Note_on_c, 15, 57, 0
21, 38220, Note_on_c, 15, 59, 100
21, 38250, Note_on_c, 15, 59, 0
21, 38250, Note_on_c, 15, 54, 100
21, 38280, Note_on_c, 15, 54, 0
21, 38280, Note_on_c, 15, 51, 100
21, 38310, Note_on_c, 15, 51, 0
21, 38310, Note_on_c, 15, 47, 100
21, 38340, Note_on_c, 15, 47, 0
21, 38340, Note_on_c, 15, 52, 100
21, 38400, Note_on_c, 15, 52, 0
21, 38400, Note_on_c, 15, 40, 100
21, 38460, Note_on_c, 15, 40, 0
21, 38520, Note_on_c, 15, 52, 100
21, 38580, Note_on_c, 15, 52, 0
21, 38580, Note_on_c, 15, 50, 100
21, 38610, Note_on_c, 15, 50, 0
21, 38610, Note_on_c, 15, 49, 100
21, 38640, Note_on_c, 15, 49, 0
21, 38640, Note_on_c, 15, 47, 100
21, 38670, Note_on_c, 15, 47, 0
21, 38670, Note_on_c, 15, 45, 100
21, 38700, Note_on_c, 15, 45, 0
21, 38700, Note_on_c, 15, 44, 100
21, 38740, Note_on_c, 15, 44, 0
21, 38760, Note_on_c, 15, 45, 100
21, 38800, Note_on_c, 15, 45, 0
21, 38820, Note_on_c, 15, 42, 100
21, 38860, Note_on_c, 15, 42, 0
21, 38880, Note_on_c, 15, 38, 100
21, 38920, Note_on_c, 15, 38, 0
21, 38940, Note_on_c, 15, 40, 100
21, 38980, Note_on_c, 15, 40, 0
21, 39000, Note_on_c, 15, 52, 100
21, 39040, Note_on_c, 15, 52, 0
21, 39060, Note_on_c, 15, 45, 100
21, 39090, Note_on_c, 15, 45, 0
21, 39090, Note_on_c, 15, 47, 100
21, 39120, Note_on_c, 15, 47, 0
21, 39120, Note_on_c, 15, 49, 100
21, 39150, Note_on_c, 15, 49, 0
21, 39150, Note_on_c, 15, 50, 100
21, 39180, Note_on_c, 15, 50, 0
21, 39180, Note_on_c, 15, 52, 100
21, 39210, Note_on_c, 15, 52, 0
21, 39210, Note_on_c, 15, 54, 100
21, 39240, Note_on_c, 15, 54, 0
21, 39240, Note_on_c, 15, 55, 100
21, 39270, Note_on_c, 15, 55, 0
21, 39270, Note_on_c, 15, 52, 100
21, 39300, Note_on_c, 15, 52, 0
21, 39300, Note_on_c, 15, 54, 100
21, 39340, Note_on_c, 15, 54, 0
21, 39420, Note_on_c, 15, 43, 100
21, 39440, Note_on_c, 15, 43, 0
21, 39450, Note_on_c, 15, 55, 100
21, 39480, Note_on_c, 15, 55, 0
21, 39480, Note_on_c, 15, 54, 100
21, 39510, Note_on_c, 15, 54, 0
21, 39510, Note_on_c, 15, 52, 100
21, 39540, Note_on_c, 15, 52, 0
21, 39540, Note_on_c, 15, 50, 100
21, 39570, Note_on_c, 15, 50, 0
21, 39570, Note_on_c, 15, 49, 100
21, 39600, Note_on_c, 15, 49, 0
21, 39600, Note_on_c, 15, 47, 100
21, 39630, Note_on_c, 15, 47, 0
21, 39630, Note_on_c, 15, 44, 100
21, 39660, Note_on_c, 15, 44, 0
21, 39660, Note_on_c, 15, 46, 100
21, 39720, Note_on_c, 15, 46, 0
21, 39780, Note_on_c, 15, 42, 100
21, 39820, Note_on_c, 15, 42, 0
21, 39840, Note_on_c, 15, 44, 100
21, 39880, Note_on_c, 15, 44, 0
21, 39900, Note_on_c, 15, 46, 100
21, 39940, Note_on_c, 15, 46, 0
21, 39960, Note_on_c, 15, 47, 100
21, 40000, Note_on_c, 15, 47, 0
21, 40020, Note_on_c, 15, 59, 100
21, 40060, Note_on_c, 15, 59, 0
21, 40080, Note_on_c, 15, 50, 100
21, 40120, Note_on_c, 15, 50, 0
21, 40140, Note_on_c, 15, 52, 100
21, 40180, Note_on_c, 15, 52, 0
21, 40200, Note_on_c, 15, 43, 100
21, 40240, Note_on_c, 15, 43, 0
21, 40260, Note_on_c, 15, 40, 100
21, 40300, Note_on_c, 15, 40, 0
21, 40320, Note_on_c, 15, 45, 100
21, 40360, Note_on_c, 15, 45, 0
21, 40380, Note_on_c, 15, 57, 100
21, 40420, Note_on_c, 15, 57, 0
21, 40440, Note_on_c, 15, 49, 100
21, 40480, Note_on_c, 15, 49, 0
21, 40500, Note_on_c, 15, 50, 100
21, 40540, Note_on_c, 15, 50, 0
21, 40560, Note_on_c, 15, 42, 100
21, 40600, Note_on_c, 15, 42, 0
21, 40620, Note_on_c, 15, 38, 100
21, 40660, Note_on_c, 15, 38, 0
21, 40680, Note_on_c, 15, 43, 100
21, 40720, Note_on_c, 15, 43, 0
21, 40740, Note_on_c, 15, 55, 100
21, 40780, Note_on_c, 15, 55, 0
21, 40800, Note_on_c, 15, 52, 100
21, 40840, Note_on_c, 15, 52, 0
21, 40860, Note_on_c, 15, 49, 100
21, 40900, Note_on_c, 15, 49, 0
21, 40920, Note_on_c, 15, 50, 100
21, 40960, Note_on_c, 15, 50, 0
21, 40980, Note_on_c, 15, 52, 100
21, 41020, Note_on_c, 15, 52, 0
21, 41040, Note_on_c, 15, 42, 100
21, 41060, Note_on_c, 15, 42, 0
21, 41070, Note_on_c, 15, 54, 100
21, 41090, Note_on_c, 15, 54, 0
21, 41100, Note_on_c, 15, 52, 100
21, 41130, Note_on_c, 15, 52, 0
21, 41130, Note_on_c, 15, 49, 100
21, 41150, Note_on_c, 15, 49, 0
21, 41160, Note_on_c, 15, 50, 100
21, 41190, Note_on_c, 15, 50, 0
21, 41190, Note_on_c, 15, 47, 100
21, 41210, Note_on_c, 15, 47, 0
21, 41220, Note_on_c, 15, 46, 100
21, 41260, Note_on_c, 15, 46, 0
21, 41310, Note_on_c, 15, 46, 100
21, 41340, Note_on_c, 15, 46, 0
21, 41340, Note_on_c, 15, 47, 100
21, 41370, Note_on_c, 15, 47, 0
21, 41370, Note_on_c, 15, 49, 100
21, 41400, Note_on_c, 15, 49, 0
21, 41400, Note_on_c, 15, 50, 100
21, 41420, Note_on_c, 15, 50, 0
21, 41430, Note_on_c, 15, 52, 100
21, 41450, Note_on_c, 15, 52, 0
21, 41460, Note_on_c, 15, 54, 100
21, 41480, Note_on_c, 15, 54, 0
21, 41490, Note_on_c, 15, 50, 100
21, 41510, Note_on_c, 15, 50, 0
21, 41520, Note_on_c, 15, 55, 100
21, 41560, Note_on_c, 15, 55, 0
21, 41580, Note_on_c, 15, 52, 100
21, 41620, Note_on_c, 15, 52, 0
21, 41640, Note_on_c, 15, 54, 100
21, 41680, Note_on_c, 15, 54, 0
21, 41700, Note_on_c, 15, 42, 100
21, 41740, Note_on_c, 15, 42, 0
21, 41760, Note_on_c, 15, 47, 100
21, 41840, Note_on_c, 15, 47, 0
21, 41970, Note_on_c, 15, 52, 100
21, 41980, Note_on_c, 15, 52, 0
21, 41985, Note_on_c, 15, 51, 100
21, 41995, Note_on_c, 15, 51, 0
21, 42000, Note_on_c, 15, 52, 100
21, 42020, Note_on_c, 15, 52, 0
21, 42030, Note_on_c, 15, 47, 100
21, 42050, Note_on_c, 15, 47, 0
21, 42060, Note_on_c, 15, 44, 100
21, 42080, Note_on_c, 15, 44, 0
21, 42090, Note_on_c, 15, 40, 100
21, 42110, Note_on_c, 15, 40, 0
21, 42120, Note_on_c, 15, 53, 100
21, 42200, Note_on_c, 15, 53, 0
21, 42330, Note_on_c, 15, 54, 100
21, 42340, Note_on_c, 15, 54, 0
21, 42345, Note_on_c, 15, 53, 100
21, 42355, Note_on_c, 15, 53, 0
21, 42360, Note_on_c, 15, 54, 100
21, 42380, Note_on_c, 15, 54, 0
21, 42390, Note_on_c, 15, 49, 100
21, 42410, Note_on_c, 15, 49, 0
21, 42420, Note_on_c, 15, 46, 100
21, 42440, Note_on_c, 15, 46, 0
21, 42450, Note_on_c, 15, 42, 100
21, 42470, Note_on_c, 15, 42, 0
21, 42480, Note_on_c, 15, 52, 100
21, 42560, Note_on_c, 15, 52, 0
21, 42660, Note_on_c, 15, 46, 100
21, 42700, Note_on_c, 15, 46, 0
21, 42720, Note_on_c, 15, 47, 100
21, 42760, Note_on_c, 15, 47, 0
21, 42780, Note_on_c, 15, 43, 100
21, 42820, Note_on_c, 15, 43, 0
21, 42840, Note_on_c, 15, 40, 100
21, 42880, Note_on_c, 15, 40, 0
21, 42900, Note_on_c, 15, 42, 100
21, 42940, Note_on_c, 15, 42, 0
21, 42960, Note_on_c, 15, 42, 100
21, 43000, Note_on_c, 15, 42, 0
21, 43020, Note_on_c, 15, 47, 100
21, 43060, Note_on_c, 15, 47, 0
21, 43080, Note_on_c, 15, 50, 100
21, 43120, Note_on_c, 15, 50, 0
21, 43140, Note_on_c, 15, 54, 100
21, 43180, Note_on_c, 15, 54, 0
21, 43200, Note_on_c, 15, 47, 100
21, 43220, Note_on_c, 15, 47, 0
21, 43230, Note_on_c, 15, 49, 100
21, 43250, Note_on_c, 15, 49, 0
21, 43260, Note_on_c, 15, 50, 100
21, 43280, Note_on_c, 15, 50, 0
21, 43290, Note_on_c, 15, 52, 100
21, 43310, Note_on_c, 15, 52, 0
21, 43320, Note_on_c, 15, 54, 100
21, 43340, Note_on_c, 15, 54, 0
21, 43350, Note_on_c, 15, 55, 100
21, 43370, Note_on_c, 15, 55, 0
21, 43380, Note_on_c, 15, 57, 100
21, 43410, Note_on_c, 15, 57, 0
21, 43410, Note_on_c, 15, 54, 100
21, 43440, Note_on_c, 15, 54, 0
21, 43440, Note_on_c, 15, 55, 100
21, 43500, Note_on_c, 15, 55, 0
21, 43560, Note_on_c, 15, 48, 100
21, 43600, Note_on_c, 15, 48, 0
21, 43620, Note_on_c, 15, 47, 100
21, 43660, Note_on_c, 15, 47, 0
21, 43680, Note_on_c, 15, 50, 100
21, 43720, Note_on_c, 15, 50, 0
21, 43740, Note_on_c, 15, 43, 100
21, 43820, Note_on_c, 15, 43, 0
21, 43950, Note_on_c, 15, 55, 100
21, 43960, Note_on_c, 15, 55, 0
21, 43965, Note_on_c, 15, 54, 100
21, 43975, Note_on_c, 15, 54, 0
21, 43980, Note_on_c, 15, 55, 100
21, 44000, Note_on_c, 15, 55, 0
21, 44010, Note_on_c, 15, 52, 100
21, 44030, Note_on_c, 15, 52, 0
21, 44040, Note_on_c, 15, 49, 100
21, 44060, Note_on_c, 15, 49, 0
21, 44070, Note_on_c, 15, 45, 100
21, 44090, Note_on_c, 15, 45, 0
21, 44100, Note_on_c, 15, 54, 100
21, 44180, Note_on_c, 15, 54, 0
21, 44310, Note_on_c, 15, 55, 100
21, 44320, Note_on_c, 15, 55, 0
21, 44325, Note_on_c, 15, 54, 100
21, 44335, Note_on_c, 15, 54, 0
21, 44340, Note_on_c, 15, 55, 100
21, 44360, Note_on_c, 15, 55, 0
21, 44370, Note_on_c, 15, 50, 100
21, 44390, Note_on_c, 15, 50, 0
21, 44400, Note_on_c, 15, 47, 100
21, 44420, Note_on_c, 15, 47, 0
21, 44430, Note_on_c, 15, 43, 100
21, 44450, Note_on_c, 15, 43, 0
21, 44460, Note_on_c, 15, 52, 100
21, 44500, Note_on_c, 15, 52, 0
21, 44520, Note_on_c, 15, 54, 100
21, 44560, Note_on_c, 15, 54, 0
21, 44580, Note_on_c, 15, 55, 100
21, 44620, Note_on_c, 15, 55, 0
21, 44640, Note_on_c, 15, 57, 100
21, 44680, Note_on_c, 15, 57, 0
21, 44700, Note_on_c, 15, 45, 100
21, 44740, Note_on_c, 15, 45, 0
21, 44760, Note_on_c, 15, 43, 100
21, 44800, Note_on_c, 15, 43, 0
21, 44820, Note_on_c, 15, 42, 100
21, 44850, Note_on_c, 15, 42, 0
21, 44850, Note_on_c, 15, 45, 100
21, 44880, Note_on_c, 15, 45, 0
21, 44880, Note_on_c, 15, 47, 100
21, 44910, Note_on_c, 15, 47, 0
21, 44910, Note_on_c, 15, 49, 100
21, 44940, Note_on_c, 15, 49, 0
21, 44940, Note_on_c, 15, 50, 100
21, 44970, Note_on_c, 15, 50, 0
21, 44970, Note_on_c, 15, 52, 100
21, 45000, Note_on_c, 15, 52, 0
21, 45000, Note_on_c, 15, 54, 100
21, 45030, Note_on_c, 15, 54, 0
21, 45030, Note_on_c, 15, 50, 100
21, 45050, Note_on_c, 15, 50, 0
21, 45060, Note_on_c, 15, 52, 100
21, 45090, Note_on_c, 15, 52, 0
21, 45090, Note_on_c, 15, 49, 100
21, 45110, Note_on_c, 15, 49, 0
21, 45120, Note_on_c, 15, 50, 100
21, 45150, Note_on_c, 15, 50, 0
21, 45150, Note_on_c, 15, 47, 100
21, 45170, Note_on_c, 15, 47, 0
21, 45180, Note_on_c, 15, 49, 100
21, 45210, Note_on_c, 15, 49, 0
21, 45210, Note_on_c, 15, 45, 100
21, 45240, Note_on_c, 15, 45, 0
21, 45240, Note_on_c, 15, 57, 100
21, 45280, Note_on_c, 15, 57, 0
21, 45300, Note_on_c, 15, 55, 100
21, 45340, Note_on_c, 15, 55, 0
21, 45360, Note_on_c, 15, 54, 100
21, 45440, Note_on_c, 15, 54, 0
21, 45570, Note_on_c, 15, 55, 100
21, 45580, Note_on_c, 15, 55, 0
21, 45585, Note_on_c, 15, 54, 100
21, 45595, Note_on_c, 15, 54, 0
21, 45600, Note_on_c, 15, 55, 100
21, 45620, Note_on_c, 15, 55, 0
21, 45630, Note_on_c, 15, 50, 100
21, 45650, Note_on_c, 15, 50, 0
21, 45660, Note_on_c, 15, 47, 100
21, 45680, Note_on_c, 15, 47, 0
21, 45690, Note_on_c, 15, 43, 100
21, 45710, Note_on_c, 15, 43, 0
21, 45720, Note_on_c, 15, 56, 100
21, 45800, Note_on_c, 15, 56, 0
21, 45930, Note_on_c, 15, 57, 100
21, 45940, Note_on_c, 15, 57, 0
21, 45945, Note_on_c, 15, 56, 100
21, 45955, Note_on_c, 15, 56, 0
21, 45960, Note_on_c, 15, 57, 100
21, 45980, Note_on_c, 15, 57, 0
21, 45990, Note_on_c, 15, 52, 100
21, 46010, Note_on_c, 15, 52, 0
21, 46020, Note_on_c, 15, 49, 100
21, 46040, Note_on_c, 15, 49, 0
21, 46050, Note_on_c, 15, 45, 100
21, 46070, Note_on_c, 15, 45, 0
21, 46080, Note_on_c, 15, 49, 100
21, 46160, Note_on_c, 15, 49, 0
21, 46260, Note_on_c, 15, 45, 100
21, 46300, Note_on_c, 15, 45, 0
21, 46320, Note_on_c, 15, 50, 100
21, 46360, Note_on_c, 15, 50, 0
21, 46380, Note_on_c, 15, 47, 100
21, 46420, Note_on_c, 15, 47, 0
21, 46440, Note_on_c, 15, 43, 100
21, 46480, Note_on_c, 15, 43, 0
21, 46500, Note_on_c, 15, 45, 100
21, 46540, Note_on_c, 15, 45, 0
21, 46560, Note_on_c, 15, 57, 100
21, 46600, Note_on_c, 15, 57, 0
21, 46620, Note_on_c, 15, 59, 100
21, 46660, Note_on_c, 15, 59, 0
21, 46680, Note_on_c, 15, 54, 100
21, 46720, Note_on_c, 15, 54, 0
21, 46740, Note_on_c, 15, 55, 100
21, 46780, Note_on_c, 15, 55, 0
21, 46800, Note_on_c, 15, 49, 100
21, 46820, Note_on_c, 15, 49, 0
21, 46830, Note_on_c, 15, 45, 100
21, 46860, Note_on_c, 15, 45, 0
21, 46860, Note_on_c, 15, 47, 100
21, 46890, Note_on_c, 15, 47, 0
21, 46890, Note_on_c, 15, 49, 100
21, 46920, Note_on_c, 15, 49, 0
21, 46920, Note_on_c, 15, 50, 100
21, 46950, Note_on_c, 15, 50, 0
21, 46950, Note_on_c, 15, 52, 100
21, 46980, Note_on_c, 15, 52, 0
21, 46980, Note_on_c, 15, 54, 100
21, 47010, Note_on_c, 15, 54, 0
21, 47010, Note_on_c, 15, 55, 100
21, 47040, Note_on_c, 15, 55, 0
21, 47040, Note_on_c, 15, 57, 100
21, 47080, Note_on_c, 15, 57, 0
21, 47100, Note_on_c, 15, 45, 100
21, 47140, Note_on_c, 15, 45, 0
21, 47160, Note_on_c, 15, 50, 100
21, 47240, Note_on_c, 15, 50, 0
21, 47370, Note_on_c, 15, 62, 100
21, 47380, Note_on_c, 15, 62, 0
21, 47385, Note_on_c, 15, 61, 100
21, 47395, Note_on_c, 15, 61, 0
21, 47400, Note_on_c, 15, 62, 100
21, 47420, Note_on_c, 15, 62, 0
21, 47430, Note_on_c, 15, 57, 100
21, 47450, Note_on_c, 15, 57, 0
21, 47460, Note_on_c, 15, 54, 100
21, 47480, Note_on_c, 15, 54, 0
21, 47490, Note_on_c, 15, 50, 100
21, 47510, Note_on_c, 15, 50, 0
21, 47520, Note_on_c, 15, 52, 100
21, 47560, Note_on_c, 15, 52, 0
21, 47580, Note_on_c, 15, 54, 100
21, 47620, Note_on_c, 15, 54, 0
21, 47640, Note_on_c, 15, 55, 100
21, 47680, Note_on_c, 15, 55, 0
21, 47700, Note_on_c, 15, 57, 100
21, 47740, Note_on_c, 15, 57, 0
21, 47760, Note_on_c, 15, 55, 100
21, 47800, Note_on_c, 15, 55, 0
21, 47880, Note_on_c, 15, 54, 100
21, 47960, Note_on_c, 15, 54, 0
21, 48090, Note_on_c, 15, 55, 100
21, 48100, Note_on_c, 15, 55, 0
21, 48105, Note_on_c, 15, 54, 100
21, 48115, Note_on_c, 15, 54, 0
21, 48120, Note_on_c, 15, 55, 100
21, 48140, Note_on_c, 15, 55, 0
21, 48150, Note_on_c, 15, 50, 100
21, 48170, Note_on_c, 15, 50, 0
21, 48180, Note_on_c, 15, 47, 100
21, 48200, Note_on_c, 15, 47, 0
21, 48210, Note_on_c, 15, 43, 100
21, 48230, Note_on_c, 15, 43, 0
21, 48240, Note_on_c, 15, 56, 100
21, 48320, Note_on_c, 15, 56, 0
21, 48450, Note_on_c, 15, 57, 100
21, 48460, Note_on_c, 15, 57, 0
21, 48465, Note_on_c, 15, 56, 100
21, 48475, Note_on_c, 15, 56, 0
21, 48480, Note_on_c, 15, 57, 100
21, 48500, Note_on_c, 15, 57, 0
21, 48510, Note_on_c, 15, 52, 100
21, 48530, Note_on_c, 15, 52, 0
21, 48540, Note_on_c, 15, 49, 100
21, 48560, Note_on_c, 15, 49, 0
21, 48570, Note_on_c, 15, 45, 100
21, 48590, Note_on_c, 15, 45, 0
21, 48600, Note_on_c, 15, 49, 100
21, 48680, Note_on_c, 15, 49, 0
21, 48780, Note_on_c, 15, 45, 100
21, 48820, Note_on_c, 15, 45, 0
21, 48840, Note_on_c, 15, 50, 100
21, 48880, Note_on_c, 15, 50, 0
21, 48900, Note_on_c, 15, 47, 100
21, 48940, Note_on_c, 15, 47, 0
21, 48960, Note_on_c, 15, 43, 100
21, 49000, Note_on_c, 15, 43, 0
21, 49020, Note_on_c, 15, 45, 100
21, 49060, Note_on_c, 15, 45, 0
21, 49080, Note_on_c, 15, 45, 100
21, 49120, Note_on_c, 15, 45, 0
21, 49140, Note_on_c, 15, 38, 100
21, 49260, Note_on_c, 15, 38, 0
21, 49500, Control_c, 15, 0, 0
21, 49500, Note_on_c, 15, 47, 100
21, 49618, Note_on_c, 15, 47, 0
21, 49680, Note_on_c, 15, 47, 100
21, 49738, Note_on_c, 15, 47, 0
21, 49740, Note_on_c, 15, 49, 100
21, 49858, Note_on_c, 15, 49, 0
21, 49890, Note_on_c, 15, 49, 100
21, 49918, Note_on_c, 15, 49, 0
21, 49920, Note_on_c, 15, 50, 100
21, 49948, Note_on_c, 15, 50, 0
21, 49950, Note_on_c, 15, 52, 100
21, 49978, Note_on_c, 15, 52, 0
21, 49980, Note_on_c, 15, 42, 100
21, 50098, Note_on_c, 15, 42, 0
21, 50160, Note_on_c, 15, 42, 100
21, 50218, Note_on_c, 15, 42, 0
21, 50220, Note_on_c, 15, 47, 100
21, 50338, Note_on_c, 15, 47, 0
21, 50370, Note_on_c, 15, 51, 100
21, 50398, Note_on_c, 15, 51, 0
21, 50400, Note_on_c, 15, 52, 100
21, 50428, Note_on_c, 15, 52, 0
21, 50430, Note_on_c, 15, 54, 100
21, 50458, Note_on_c, 15, 54, 0
21, 50460, Note_on_c, 15, 47, 100
21, 50578, Note_on_c, 15, 47, 0
21, 50640, Note_on_c, 15, 47, 100
21, 50698, Note_on_c, 15, 47, 0
21, 50700, Note_on_c, 15, 52, 100
21, 50818, Note_on_c, 15, 52, 0
21, 50850, Note_on_c, 15, 53, 100
21, 50878, Note_on_c, 15, 53, 0
21, 50880, Note_on_c, 15, 54, 100
21, 50908, Note_on_c, 15, 54, 0
21, 50910, Note_on_c, 15, 56, 100
21, 50938, Note_on_c, 15, 56, 0
21, 50940, Note_on_c, 15, 49, 100
21, 51058, Note_on_c, 15, 49, 0
21, 51120, Note_on_c, 15, 49, 100
21, 51178, Note_on_c, 15, 49, 0
21, 51180, Note_on_c, 15, 54, 100
21, 51298, Note_on_c, 15, 54, 0
21, 51360, Note_on_c, 15, 54, 100
21, 51418, Note_on_c, 15, 54, 0
21, 51420, Note_on_c, 15, 50, 100
21, 51478, Note_on_c, 15, 50, 0
21, 51480, Note_on_c, 15, 47, 100
21, 51538, Note_on_c, 15, 47, 0
21, 51540, Note_on_c, 15, 54, 100
21, 51598, Note_on_c, 15, 54, 0
21, 51600, Note_on_c, 15, 42, 100
21, 51658, Note_on_c, 15, 42, 0
21, 51660, Note_on_c, 15, 47, 100
21, 51778, Note_on_c, 15, 47, 0
21, 51810, Note_on_c, 15, 50, 100
21, 51838, Note_on_c, 15, 50, 0
21, 51840, Note_on_c, 15, 52, 100
21, 51868, Note_on_c, 15, 52, 0
21, 51870, Note_on_c, 15, 54, 100
21, 51898, Note_on_c, 15, 54, 0
21, 51900, Note_on_c, 15, 47, 100
21, 52018, Note_on_c, 15, 47, 0
21, 52080, Note_on_c, 15, 47, 100
21, 52140, Note_on_c, 15, 47, 0
21, 52140, Note_on_c, 15, 49, 100
21, 52260, Note_on_c, 15, 49, 0
21, 52290, Note_on_c, 15, 49, 100
21, 52320, Note_on_c, 15, 49, 0
21, 52320, Note_on_c, 15, 50, 100
21, 52350, Note_on_c, 15, 50, 0
21, 52350, Note_on_c, 15, 52, 100
21, 52380, Note_on_c, 15, 52, 0
21, 52380, Note_on_c, 15, 42, 100
21, 52500, Note_on_c, 15, 42, 0
21, 52560, Note_on_c, 15, 42, 100
21, 52620, Note_on_c, 15, 42, 0
21, 52620, Note_on_c, 15, 47, 100
21, 52740, Note_on_c, 15, 47, 0
21, 52770, Note_on_c, 15, 50, 100
21, 52800, Note_on_c, 15, 50, 0
21, 52800, Note_on_c, 15, 52, 100
21, 52830, Note_on_c, 15, 52, 0
21, 52830, Note_on_c, 15, 54, 100
21, 52860, Note_on_c, 15, 54, 0
21, 52860, Note_on_c, 15, 47, 100
21, 52980, Note_on_c, 15, 47, 0
21, 53040, Note_on_c, 15, 47, 100
21, 53100, Note_on_c, 15, 47, 0
21, 53100, Note_on_c, 15, 52, 100
21, 53220, Note_on_c, 15, 52, 0
21, 53250, Note_on_c, 15, 50, 100
21, 53280, Note_on_c, 15, 50, 0
21, 53280, Note_on_c, 15, 52, 100
21, 53310, Note_on_c, 15, 52, 0
21, 53310, Note_on_c, 15, 54, 100
21, 53340, Note_on_c, 15, 54, 0
21, 53340, Note_on_c, 15, 55, 100
21, 53460, Note_on_c, 15, 55, 0
21, 53520, Note_on_c, 15, 43, 100
21, 53580, Note_on_c, 15, 43, 0
21, 53580, Note_on_c, 15, 42, 100
21, 53700, Note_on_c, 15, 42, 0
21, 53730, Note_on_c, 15, 49, 100
21, 53760, Note_on_c, 15, 49, 0
21, 53760, Note_on_c, 15, 50, 100
21, 53790, Note_on_c, 15, 50, 0
21, 53790, Note_on_c, 15, 52, 100
21, 53820, Note_on_c, 15, 52, 0
21, 53820, Note_on_c, 15, 46, 100
21, 53940, Note_on_c, 15, 46, 0
21, 54000, Note_on_c, 15, 58, 100
21, 54060, Note_on_c, 15, 58, 0
21, 54060, Note_on_c, 15, 59, 100
21, 54180, Note_on_c, 15, 59, 0
21, 54210, Note_on_c, 15, 50, 100
21, 54240, Note_on_c, 15, 50, 0
21, 54240, Note_on_c, 15, 52, 100
21, 54270, Note_on_c, 15, 52, 0
21, 54270, Note_on_c, 15, 54, 100
21, 54300, Note_on_c, 15, 54, 0
21, 54300, Note_on_c, 15, 47, 100
21, 54420, Note_on_c, 15, 47, 0
21, 54480, Note_on_c, 15, 47, 100
21, 54540, Note_on_c, 15, 47, 0
21, 54540, Note_on_c, 15, 49, 100
21, 54660, Note_on_c, 15, 49, 0
21, 54690, Note_on_c, 15, 54, 100
21, 54720, Note_on_c, 15, 54, 0
21, 54720, Note_on_c, 15, 56, 100
21, 54750, Note_on_c, 15, 56, 0
21, 54750, Note_on_c, 15, 58, 100
21, 54780, Note_on_c, 15, 58, 0
21, 54780, Note_on_c, 15, 48, 100
21, 54900, Note_on_c, 15, 48, 0
21, 54960, Note_on_c, 15, 39, 100
21, 55020, Note_on_c, 15, 39, 0
21, 55020, Note_on_c, 15, 40, 100
21, 55140, Note_on_c, 15, 40, 0
21, 55170, Note_on_c, 15, 52, 100
21, 55200, Note_on_c, 15, 52, 0
21, 55200, Note_on_c, 15, 54, 100
21, 55230, Note_on_c, 15, 54, 0
21, 55230, Note_on_c, 15, 55, 100
21, 55260, Note_on_c, 15, 55, 0
21, 55260, Note_on_c, 15, 45, 100
21, 55380, Note_on_c, 15, 45, 0
21, 55440, Note_on_c, 15, 49, 100
21, 55500, Note_on_c, 15, 49, 0
21, 55500, Note_on_c, 15, 50, 100
21, 55620, Note_on_c, 15, 50, 0
21, 55650, Note_on_c, 15, 50, 100
21, 55680, Note_on_c, 15, 50, 0
21, 55680, Note_on_c, 15, 52, 100
21, 55710, Note_on_c, 15, 52, 0
21, 55710, Note_on_c, 15, 54, 100
21, 55740, Note_on_c, 15, 54, 0
21, 55740, Note_on_c, 15, 43, 100
21, 55800, Note_on_c, 15, 43, 0
21, 55800, Note_on_c, 15, 55, 100
21, 55860, Note_on_c, 15, 55, 0
21, 55860, Note_on_c, 15, 57, 100
21, 55920, Note_on_c, 15, 57, 0
21, 55920, Note_on_c, 15, 45, 100
21, 55980, Note_on_c, 15, 45, 0
21, 55980, Note_on_c, 15, 50, 100
21, 56100, Note_on_c, 15, 50, 0
21, 56130, Note_on_c, 15, 50, 100
21, 56160, Note_on_c, 15, 50, 0
21, 56160, Note_on_c, 15, 52, 100
21, 56190, Note_on_c, 15, 52, 0
21, 56190, Note_on_c, 15, 54, 100
21, 56220, Note_on_c, 15, 54, 0
21, 56220, Note_on_c, 15, 47, 100
21, 56340, Note_on_c, 15, 47, 0
21, 56400, Note_on_c, 15, 43, 100
21, 56460, Note_on_c, 15, 43, 0
21, 56460, Note_on_c, 15, 49, 100
21, 56580, Note_on_c, 15, 49, 0
21, 56610, Note_on_c, 15, 49, 100
21, 56640, Note_on_c, 15, 49, 0
21, 56640, Note_on_c, 15, 50, 100
21, 56670, Note_on_c, 15, 50, 0
21, 56670, Note_on_c, 15, 52, 100
21, 56700, Note_on_c, 15, 52, 0
21, 56700, Note_on_c, 15, 45, 100
21, 56820, Note_on_c, 15, 45, 0
21, 56880, Note_on_c, 15, 42, 100
21, 56940, Note_on_c, 15, 42, 0
21, 56940, Note_on_c, 15, 47, 100
21, 57060, Note_on_c, 15, 47, 0
21, 57120, Note_on_c, 15, 40, 100
21, 57180, Note_on_c, 15, 40, 0
21, 57180, Note_on_c, 15, 45, 100
21, 57300, Note_on_c, 15, 45, 0
21, 57360, Note_on_c, 15, 57, 100
21, 57420, Note_on_c, 15, 57, 0
21, 57420, Note_on_c, 15, 59, 100
21, 57480, Note_on_c, 15, 59, 0
21, 57480, Note_on_c, 15, 55, 100
21, 57540, Note_on_c, 15, 55, 0
21, 57540, Note_on_c, 15, 57, 100
21, 57600, Note_on_c, 15, 57, 0
21, 57600, Note_on_c, 15, 45, 100
21, 57660, Note_on_c, 15, 45, 0
21, 57660, Note_on_c, 15, 50, 100
21, 57720, Note_on_c, 15, 50, 0
21, 57720, Note_on_c, 15, 54, 100
21, 57750, Note_on_c, 15, 54, 0
21, 57750, Note_on_c, 15, 52, 100
21, 57780, Note_on_c, 15, 52, 0
21, 57780, Note_on_c, 15, 55, 100
21, 57810, Note_on_c, 15, 55, 0
21, 57810, Note_on_c, 15, 54, 100
21, 57840, Note_on_c, 15, 54, 0
21, 57840, Note_on_c, 15, 52, 100
21, 57870, Note_on_c, 15, 52, 0
21, 57870, Note_on_c, 15, 50, 100
21, 57900, Note_on_c, 15, 50, 0
21, 57900, Note_on_c, 15, 57, 100
21, 57960, Note_on_c, 15, 57, 0
21, 57960, Note_on_c, 15, 45, 100
21, 58020, Note_on_c, 15, 45, 0
21, 58020, Note_on_c, 15, 43, 100
21, 58080, Note_on_c, 15, 43, 0
21, 58080, Note_on_c, 15, 42, 100
21, 58140, Note_on_c, 15, 42, 0
21, 58140, Note_on_c, 15, 40, 100
21, 58200, Note_on_c, 15, 40, 0
21, 58200, Note_on_c, 15, 55, 100
21, 58230, Note_on_c, 15, 55, 0
21, 58230, Note_on_c, 15, 54, 100
21, 58260, Note_on_c, 15, 54, 0
21, 58260, Note_on_c, 15, 57, 100
21, 58290, Note_on_c, 15, 57, 0
21, 58290, Note_on_c, 15, 55, 100
21, 58320, Note_on_c, 15, 55, 0
21, 58320, Note_on_c, 15, 54, 100
21, 58350, Note_on_c, 15, 54, 0
21, 58350, Note_on_c, 15, 52, 100
21, 58380, Note_on_c, 15, 52, 0
21, 58380, Note_on_c, 15, 59, 100
21, 58440, Note_on_c, 15, 59, 0
21, 58440, Note_on_c, 15, 47, 100
21, 58500, Note_on_c, 15, 47, 0
21, 58500, Note_on_c, 15, 45, 100
21, 58560, Note_on_c, 15, 45, 0
21, 58560, Note_on_c, 15, 43, 100
21, 58620, Note_on_c, 15, 43, 0
21, 58620, Note_on_c, 15, 42, 100
21, 58680, Note_on_c, 15, 42, 0
21, 58680, Note_on_c, 15, 52, 100
21, 58710, Note_on_c, 15, 52, 0
21, 58710, Note_on_c, 15, 50, 100
21, 58740, Note_on_c, 15, 50, 0
21, 58740, Note_on_c, 15, 54, 100
21, 58770, Note_on_c, 15, 54, 0
21, 58770, Note_on_c, 15, 52, 100
21, 58800, Note_on_c, 15, 52, 0
21, 58800, Note_on_c, 15, 50, 100
21, 58830, Note_on_c, 15, 50, 0
21, 58830, Note_on_c, 15, 49, 100
21, 58860, Note_on_c, 15, 49, 0
21, 58860, Note_on_c, 15, 50, 100
21, 58920, Note_on_c, 15, 50, 0
21, 58920, Note_on_c, 15, 54, 100
21, 58980, Note_on_c, 15, 54, 0
21, 58980, Note_on_c, 15, 56, 100
21, 59040, Note_on_c, 15, 56, 0
21, 59040, Note_on_c, 15, 52, 100
21, 59100, Note_on_c, 15, 52, 0
21, 59100, Note_on_c, 15, 45, 100
21, 59130, Note_on_c, 15, 45, 0
21, 59130, Note_on_c, 15, 49, 100
21, 59160, Note_on_c, 15, 49, 0
21, 59160, Note_on_c, 15, 54, 100
21, 59190, Note_on_c, 15, 54, 0
21, 59190, Note_on_c, 15, 52, 100
21, 59220, Note_on_c, 15, 52, 0
21, 59220, Note_on_c, 15, 50, 100
21, 59250, Note_on_c, 15, 50, 0
21, 59250, Note_on_c, 15, 49, 100
21, 59280, Note_on_c, 15, 49, 0
21, 59280, Note_on_c, 15, 47, 100
21, 59310, Note_on_c, 15, 47, 0
21, 59310, Note_on_c, 15, 45, 100
21, 59340, Note_on_c, 15, 45, 0
21, 59340, Note_on_c, 15, 44, 100
21, 59460, Note_on_c, 15, 44, 0
21, 59490, Note_on_c, 15, 49, 100
21, 59520, Note_on_c, 15, 49, 0
21, 59520, Note_on_c, 15, 51, 100
21, 59550, Note_on_c, 15, 51, 0
21, 59550, Note_on_c, 15, 53, 100
21, 59580, Note_on_c, 15, 53, 0
21, 59580, Note_on_c, 15, 54, 100
21, 59700, Note_on_c, 15, 54, 0
21, 59730, Note_on_c, 15, 49, 100
21, 59760, Note_on_c, 15, 49, 0
21, 59760, Note_on_c, 15, 50, 100
21, 59790, Note_on_c, 15, 50, 0
21, 59790, Note_on_c, 15, 52, 100
21, 59820, Note_on_c, 15, 52, 0
21, 59820, Note_on_c, 15, 46, 100
21, 59940, Note_on_c, 15, 46, 0
21, 60000, Note_on_c, 15, 42, 100
21, 60060, Note_on_c, 15, 42, 0
21, 60060, Note_on_c, 15, 47, 100
21, 60180, Note_on_c, 15, 47, 0
21, 60210, Note_on_c, 15, 47, 100
21, 60240, Note_on_c, 15, 47, 0
21, 60240, Note_on_c, 15, 49, 100
21, 60270, Note_on_c, 15, 49, 0
21, 60270, Note_on_c, 15, 50, 100
21, 60300, Note_on_c, 15, 50, 0
21, 60300, Note_on_c, 15, 44, 100
21, 60420, Note_on_c, 15, 44, 0
21, 60480, Note_on_c, 15, 44, 100
21, 60540, Note_on_c, 15, 44, 0
21, 60540, Note_on_c, 15, 49, 100
21, 60660, Note_on_c, 15, 49, 0
21, 60690, Note_on_c, 15, 50, 100
21, 60720, Note_on_c, 15, 50, 0
21, 60720, Note_on_c, 15, 49, 100
21, 60750, Note_on_c, 15, 49, 0
21, 60750, Note_on_c, 15, 47, 100
21, 60780, Note_on_c, 15, 47, 0
21, 60780, Note_on_c, 15, 45, 100
21, 60840, Note_on_c, 15, 45, 0
21, 60840, Note_on_c, 15, 42, 100
21, 60900, Note_on_c, 15, 42, 0
21, 60900, Note_on_c, 15, 49, 100
21, 60960, Note_on_c, 15, 49, 0
21, 60960, Note_on_c, 15, 37, 100
21, 61020, Note_on_c, 15, 37, 0
21, 61020, Control_c, 15, 0, 0
21, 61020, Note_on_c, 15, 54, 90
21, 61080, Note_on_c, 15, 54, 0
21, 61080, Note_on_c, 15, 54, 90
21, 61140, Note_on_c, 15, 54, 0
21, 61140, Note_on_c, 15, 54, 90
21, 61200, Note_on_c, 15, 54, 0
21, 61200, Note_on_c, 15, 54, 90
21, 61260, Note_on_c, 15, 54, 0
21, 61260, Note_on_c, 15, 54, 90
21, 61320, Note_on_c, 15, 54, 0
21, 61320, Note_on_c, 15, 53, 90
21, 61350, Note_on_c, 15, 53, 0
21, 61350, Note_on_c, 15, 51, 90
21, 61380, Note_on_c, 15, 51, 0
21, 61380, Note_on_c, 15, 49, 90
21, 61440, Note_on_c, 15, 49, 0
21, 61440, Note_on_c, 15, 47, 90
21, 61500, Note_on_c, 15, 47, 0
21, 61500, Note_on_c, 15, 45, 90
21, 61530, Note_on_c, 15, 45, 0
21, 61530, Note_on_c, 15, 44, 90
21, 61560, Note_on_c, 15, 44, 0
21, 61560, Note_on_c, 15, 42, 90
21, 61590, Note_on_c, 15, 42, 0
21, 61590, Note_on_c, 15, 44, 90
21, 61620, Note_on_c, 15, 44, 0
21, 61620, Note_on_c, 15, 45, 90
21, 61650, Note_on_c, 15, 45, 0
21, 61650, Note_on_c, 15, 44, 90
21, 61680, Note_on_c, 15, 44, 0
21, 61680, Note_on_c, 15, 45, 90
21, 61710, Note_on_c, 15, 45, 0
21, 61710, Note_on_c, 15, 47, 90
21, 61740, Note_on_c, 15, 47, 0
21, 61740, Note_on_c, 15, 49, 90
21, 61770, Note_on_c, 15, 49, 0
21, 61770, Note_on_c, 15, 47, 90
21, 61800, Note_on_c, 15, 47, 0
21, 61800, Note_on_c, 15, 49, 90
21, 61830, Note_on_c, 15, 49, 0
21, 61830, Note_on_c, 15, 51, 90
21, 61860, Note_on_c, 15, 51, 0
21, 61860, Note_on_c, 15, 53, 90
21, 61890, Note_on_c, 15, 53, 0
21, 61890, Note_on_c, 15, 49, 90
21, 61920, Note_on_c, 15, 49, 0
21, 61920, Note_on_c, 15, 51, 90
21, 61950, Note_on_c, 15, 51, 0
21, 61950, Note_on_c, 15, 53, 90
21, 61980, Note_on_c, 15, 53, 0
21, 61980, Note_on_c, 15, 54, 90
21, 62040, Note_on_c, 15, 54, 0
21, 62040, Note_on_c, 15, 42, 90
21, 62100, Note_on_c, 15, 42, 0
21, 62100, Note_on_c, 15, 42, 90
21, 62160, Note_on_c, 15, 42, 0
21, 62160, Note_on_c, 15, 54, 90
21, 62220, Note_on_c, 15, 54, 0
21, 62220, Note_on_c, 15, 49, 90
21, 62280, Note_on_c, 15, 49, 0
21, 62280, Note_on_c, 15, 61, 90
21, 62340, Note_on_c, 15, 61, 0
21, 62340, Note_on_c, 15, 61, 90
21, 62400, Note_on_c, 15, 61, 0
21, 62400, Note_on_c, 15, 49, 90
21, 62460, Note_on_c, 15, 49, 0
21, 62460, Note_on_c, 15, 42, 90
21, 62520, Note_on_c, 15, 42, 0
21, 62520, Note_on_c, 15, 54, 90
21, 62580, Note_on_c, 15, 54, 0
21, 62580, Note_on_c, 15, 53, 90
21, 62640, Note_on_c, 15, 53, 0
21, 62640, Note_on_c, 15, 54, 90
21, 62700, Note_on_c, 15, 54, 0
21, 62700, Note_on_c, 15, 61, 90
21, 62760, Note_on_c, 15, 61, 0
21, 62760, Note_on_c, 15, 49, 90
21, 62790, Note_on_c, 15, 49, 0
21, 62790, Note_on_c, 15, 51, 90
21, 62820, Note_on_c, 15, 51, 0
21, 62820, Note_on_c, 15, 53, 90
21, 62850, Note_on_c, 15, 53, 0
21, 62850, Note_on_c, 15, 49, 90
21, 62880, Note_on_c, 15, 49, 0
21, 62880, Note_on_c, 15, 51, 90
21, 62910, Note_on_c, 15, 51, 0
21, 62910, Note_on_c, 15, 53, 90
21, 62940, Note_on_c, 15, 53, 0
21, 62940, Note_on_c, 15, 54, 90
21, 62970, Note_on_c, 15, 54, 0
21, 62970, Note_on_c, 15, 53, 90
21, 63000, Note_on_c, 15, 53, 0
21, 63000, Note_on_c, 15, 54, 90
21, 63030, Note_on_c, 15, 54, 0
21, 63030, Note_on_c, 15, 56, 90
21, 63060, Note_on_c, 15, 56, 0
21, 63060, Note_on_c, 15, 57, 90
21, 63090, Note_on_c, 15, 57, 0
21, 63090, Note_on_c, 15, 56, 90
21, 63120, Note_on_c, 15, 56, 0
21, 63120, Note_on_c, 15, 57, 90
21, 63150, Note_on_c, 15, 57, 0
21, 63150, Note_on_c, 15, 59, 90
21, 63180, Note_on_c, 15, 59, 0
21, 63180, Note_on_c, 15, 61, 90
21, 63240, Note_on_c, 15, 61, 0
21, 63240, Note_on_c, 15, 37, 90
21, 63270, Note_on_c, 15, 37, 0
21, 63270, Note_on_c, 15, 39, 90
21, 63300, Note_on_c, 15, 39, 0
21, 63300, Note_on_c, 15, 41, 90
21, 63330, Note_on_c, 15, 41, 0
21, 63330, Note_on_c, 15, 37, 90
21, 63360, Note_on_c, 15, 37, 0
21, 63360, Note_on_c, 15, 39, 90
21, 63390, Note_on_c, 15, 39, 0
21, 63390, Note_on_c, 15, 41, 90
21, 63420, Note_on_c, 15, 41, 0
21, 63420, Note_on_c, 15, 42, 90
21, 63450, Note_on_c, 15, 42, 0
21, 63450, Note_on_c, 15, 40, 90
21, 63480, Note_on_c, 15, 40, 0
21, 63480, Note_on_c, 15, 38, 90
21, 63510, Note_on_c, 15, 38, 0
21, 63510, Note_on_c, 15, 40, 90
21, 63540, Note_on_c, 15, 40, 0
21, 63540, Note_on_c, 15, 42, 90
21, 63570, Note_on_c, 15, 42, 0
21, 63570, Note_on_c, 15, 38, 90
21, 63600, Note_on_c, 15, 38, 0
21, 63600, Note_on_c, 15, 40, 90
21, 63630, Note_on_c, 15, 40, 0
21, 63630, Note_on_c, 15, 42, 90
21, 63660, Note_on_c, 15, 42, 0
21, 63660, Note_on_c, 15, 44, 90
21, 63690, Note_on_c, 15, 44, 0
21, 63690, Note_on_c, 15, 42, 90
21, 63720, Note_on_c, 15, 42, 0
21, 63720, Note_on_c, 15, 40, 90
21, 63750, Note_on_c, 15, 40, 0
21, 63750, Note_on_c, 15, 42, 90
21, 63780, Note_on_c, 15, 42, 0
21, 63780, Note_on_c, 15, 44, 90
21, 63810, Note_on_c, 15, 44, 0
21, 63810, Note_on_c, 15, 40, 90
21, 63840, Note_on_c, 15, 40, 0
21, 63840, Note_on_c, 15, 42, 90
21, 63870, Note_on_c, 15, 42, 0
21, 63870, Note_on_c, 15, 44, 90
21, 63900, Note_on_c, 15, 44, 0
21, 63900, Note_on_c, 15, 45, 90
21, 63930, Note_on_c, 15, 45, 0
21, 63930, Note_on_c, 15, 44, 90
21, 63960, Note_on_c, 15, 44, 0
21, 63960, Note_on_c, 15, 42, 90
21, 63990, Note_on_c, 15, 42, 0
21, 63990, Note_on_c, 15, 44, 90
21, 64020, Note_on_c, 15, 44, 0
21, 64020, Note_on_c, 15, 45, 90
21, 64050, Note_on_c, 15, 45, 0
21, 64050, Note_on_c, 15, 42, 90
21, 64080, Note_on_c, 15, 42, 0
21, 64080, Note_on_c, 15, 44, 90
21, 64110, Note_on_c, 15, 44, 0
21, 64110, Note_on_c, 15, 45, 90
21, 64140, Note_on_c, 15, 45, 0
21, 64140, Note_on_c, 15, 47, 90
21, 64170, Note_on_c, 15, 47, 0
21, 64170, Note_on_c, 15, 45, 90
21, 64200, Note_on_c, 15, 45, 0
21, 64200, Note_on_c, 15, 44, 90
21, 64230, Note_on_c, 15, 44, 0
21, 64230, Note_on_c, 15, 45, 90
21, 64260, Note_on_c, 15, 45, 0
21, 64260, Note_on_c, 15, 47, 90
21, 64290, Note_on_c, 15, 47, 0
21, 64290, Note_on_c, 15, 44, 90
21, 64320, Note_on_c, 15, 44, 0
21, 64320, Note_on_c, 15, 45, 90
21, 64350, Note_on_c, 15, 45, 0
21, 64350, Note_on_c, 15, 47, 90
21, 64380, Note_on_c, 15, 47, 0
21, 64380, Note_on_c, 15, 49, 90
21, 64410, Note_on_c, 15, 49, 0
21, 64410, Note_on_c, 15, 47, 90
21, 64440, Note_on_c, 15, 47, 0
21, 64440, Note_on_c, 15, 45, 90
21, 64470, Note_on_c, 15, 45, 0
21, 64470, Note_on_c, 15, 47, 90
21, 64500, Note_on_c, 15, 47, 0
21, 64500, Note_on_c, 15, 49, 90
21, 64530, Note_on_c, 15, 49, 0
21, 64530, Note_on_c, 15, 45, 90
21, 64560, Note_on_c, 15, 45, 0
21, 64560, Note_on_c, 15, 47, 90
21, 64590, Note_on_c, 15, 47, 0
21, 64590, Note_on_c, 15, 49, 90
21, 64620, Note_on_c, 15, 49, 0
21, 64620, Note_on_c, 15, 50, 90
21, 64650, Note_on_c, 15, 50, 0
21, 64650, Note_on_c, 15, 49, 90
21, 64680, Note_on_c, 15, 49, 0
21, 64680, Note_on_c, 15, 47, 90
21, 64710, Note_on_c, 15, 47, 0
21, 64710, Note_on_c, 15, 49, 90
21, 64740, Note_on_c, 15, 49, 0
21, 64740, Note_on_c, 15, 50, 90
21, 64770, Note_on_c, 15, 50, 0
21, 64770, Note_on_c, 15, 47, 90
21, 64800, Note_on_c, 15, 47, 0
21, 64800, Note_on_c, 15, 49, 90
21, 64830, Note_on_c, 15, 49, 0
21, 64830, Note_on_c, 15, 50, 90
21, 64860, Note_on_c, 15, 50, 0
21, 64860, Note_on_c, 15, 52, 90
21, 64890, Note_on_c, 15, 52, 0
21, 64890, Note_on_c, 15, 50, 90
21, 64920, Note_on_c, 15, 50, 0
21, 64920, Note_on_c, 15, 49, 90
21, 64950, Note_on_c, 15, 49, 0
21, 64950, Note_on_c, 15, 50, 90
21, 64980, Note_on_c, 15, 50, 0
21, 64980, Note_on_c, 15, 52, 90
21, 65010, Note_on_c, 15, 52, 0
21, 65010, Note_on_c, 15, 49, 90
21, 65040, Note_on_c, 15, 49, 0
21, 65040, Note_on_c, 15, 50, 90
21, 65070, Note_on_c, 15, 50, 0
21, 65070, Note_on_c, 15, 52, 90
21, 65100, Note_on_c, 15, 52, 0
21, 65100, Note_on_c, 15, 54, 90
21, 65160, Note_on_c, 15, 54, 0
21, 65160, Note_on_c, 15, 52, 90
21, 65190, Note_on_c, 15, 52, 0
21, 65190, Note_on_c, 15, 51, 90
21, 65220, Note_on_c, 15, 51, 0
21, 65220, Note_on_c, 15, 52, 90
21, 65280, Note_on_c, 15, 52, 0
21, 65280, Note_on_c, 15, 40, 90
21, 65340, Note_on_c, 15, 40, 0
21, 65340, Note_on_c, 15, 57, 90
21, 65400, Note_on_c, 15, 57, 0
21, 65400, Note_on_c, 15, 57, 90
21, 65460, Note_on_c, 15, 57, 0
21, 65460, Note_on_c, 15, 57, 90
21, 65520, Note_on_c, 15, 57, 0
21, 65520, Note_on_c, 15, 57, 90
21, 65580, Note_on_c, 15, 57, 0
21, 65580, Note_on_c, 15, 57, 90
21, 65640, Note_on_c, 15, 57, 0
21, 65640, Note_on_c, 15, 56, 90
21, 65670, Note_on_c, 15, 56, 0
21, 65670, Note_on_c, 15, 54, 90
21, 65700, Note_on_c, 15, 54, 0
21, 65700, Note_on_c, 15, 52, 90
21, 65760, Note_on_c, 15, 52, 0
21, 65760, Note_on_c, 15, 50, 90
21, 65820, Note_on_c, 15, 50, 0
21, 65820, Note_on_c, 15, 49, 90
21, 65850, Note_on_c, 15, 49, 0
21, 65850, Note_on_c, 15, 47, 90
21, 65880, Note_on_c, 15, 47, 0
21, 65880, Note_on_c, 15, 45, 90
21, 65910, Note_on_c, 15, 45, 0
21, 65910, Note_on_c, 15, 47, 90
21, 65940, Note_on_c, 15, 47, 0
21, 65940, Note_on_c, 15, 49, 90
21, 65970, Note_on_c, 15, 49, 0
21, 65970, Note_on_c, 15, 47, 90
21, 66000, Note_on_c, 15, 47, 0
21, 66000, Note_on_c, 15, 49, 90
21, 66030, Note_on_c, 15, 49, 0
21, 66030, Note_on_c, 15, 50, 90
21, 66060, Note_on_c, 15, 50, 0
21, 66060, Note_on_c, 15, 52, 90
21, 66090, Note_on_c, 15, 52, 0
21, 66090, Note_on_c, 15, 47, 90
21, 66120, Note_on_c, 15, 47, 0
21, 66120, Note_on_c, 15, 49, 90
21, 66150, Note_on_c, 15, 49, 0
21, 66150, Note_on_c, 15, 51, 90
21, 66180, Note_on_c, 15, 51, 0
21, 66180, Note_on_c, 15, 52, 90
21, 66210, Note_on_c, 15, 52, 0
21, 66210, Note_on_c, 15, 51, 90
21, 66240, Note_on_c, 15, 51, 0
21, 66240, Note_on_c, 15, 52, 90
21, 66270, Note_on_c, 15, 52, 0
21, 66270, Note_on_c, 15, 54, 90
21, 66300, Note_on_c, 15, 54, 0
21, 66300, Note_on_c, 15, 56, 90
21, 66330, Note_on_c, 15, 56, 0
21, 66330, Note_on_c, 15, 54, 90
21, 66360, Note_on_c, 15, 54, 0
21, 66360, Note_on_c, 15, 52, 90
21, 66390, Note_on_c, 15, 52, 0
21, 66390, Note_on_c, 15, 54, 90
21, 66420, Note_on_c, 15, 54, 0
21, 66420, Note_on_c, 15, 56, 90
21, 66450, Note_on_c, 15, 56, 0
21, 66450, Note_on_c, 15, 54, 90
21, 66480, Note_on_c, 15, 54, 0
21, 66480, Note_on_c, 15, 56, 90
21, 66510, Note_on_c, 15, 56, 0
21, 66510, Note_on_c, 15, 58, 90
21, 66540, Note_on_c, 15, 58, 0
21, 66540, Note_on_c, 15, 59, 90
21, 66600, Note_on_c, 15, 59, 0
21, 66600, Note_on_c, 15, 58, 90
21, 66630, Note_on_c, 15, 58, 0
21, 66630, Note_on_c, 15, 56, 90
21, 66660, Note_on_c, 15, 56, 0
21, 66660, Note_on_c, 15, 54, 90
21, 66720, Note_on_c, 15, 54, 0
21, 66720, Note_on_c, 15, 52, 90
21, 66780, Note_on_c, 15, 52, 0
21, 66780, Note_on_c, 15, 50, 90
21, 66840, Note_on_c, 15, 50, 0
21, 66840, Note_on_c, 15, 47, 90
21, 66900, Note_on_c, 15, 47, 0
21, 66930, Note_on_c, 15, 47, 90
21, 66960, Note_on_c, 15, 47, 0
21, 66960, Note_on_c, 15, 45, 90
21, 66990, Note_on_c, 15, 45, 0
21, 66990, Note_on_c, 15, 44, 90
21, 67020, Note_on_c, 15, 44, 0
21, 67020, Note_on_c, 15, 42, 90
21, 67080, Note_on_c, 15, 42, 0
21, 67080, Note_on_c, 15, 54, 90
21, 67140, Note_on_c, 15, 54, 0
21, 67170, Note_on_c, 15, 59, 90
21, 67200, Note_on_c, 15, 59, 0
21, 67200, Note_on_c, 15, 57, 90
21, 67230, Note_on_c, 15, 57, 0
21, 67230, Note_on_c, 15, 56, 90
21, 67260, Note_on_c, 15, 56, 0
21, 67260, Note_on_c, 15, 54, 90
21, 67290, Note_on_c, 15, 54, 0
21, 67290, Note_on_c, 15, 53, 90
21, 67320, Note_on_c, 15, 53, 0
21, 67320, Note_on_c, 15, 54, 90
21, 67380, Note_on_c, 15, 54, 0
21, 67380, Note_on_c, 15, 42, 90
21, 67440, Note_on_c, 15, 42, 0
21, 67440, Note_on_c, 15, 54, 90
21, 67500, Note_on_c, 15, 54, 0
21, 67500, Note_on_c, 15, 49, 90
21, 67980, Note_on_c, 15, 49, 0
21, 68040, Note_on_c, 15, 37, 90
21, 68070, Note_on_c, 15, 37, 0
21, 68070, Note_on_c, 15, 39, 90
21, 68100, Note_on_c, 15, 39, 0
21, 68100, Note_on_c, 15, 41, 90
21, 68130, Note_on_c, 15, 41, 0
21, 68130, Note_on_c, 15, 37, 90
21, 68160, Note_on_c, 15, 37, 0
21, 68160, Note_on_c, 15, 39, 90
21, 68190, Note_on_c, 15, 39, 0
21, 68190, Note_on_c, 15, 41, 90
21, 68220, Note_on_c, 15, 41, 0
21, 68220, Note_on_c, 15, 42, 90
21, 68250, Note_on_c, 15, 42, 0
21, 68250, Note_on_c, 15, 40, 90
21, 68280, Note_on_c, 15, 40, 0
21, 68280, Note_on_c, 15, 38, 90
21, 68310, Note_on_c, 15, 38, 0
21, 68310, Note_on_c, 15, 40, 90
21, 68340, Note_on_c, 15, 40, 0
21, 68340, Note_on_c, 15, 42, 90
21, 68370, Note_on_c, 15, 42, 0
21, 68370, Note_on_c, 15, 38, 90
21, 68400, Note_on_c, 15, 38, 0
21, 68400, Note_on_c, 15, 40, 90
21, 68430, Note_on_c, 15, 40, 0
21, 68430, Note_on_c, 15, 42, 90
21, 68460, Note_on_c, 15, 42, 0
21, 68460, Note_on_c, 15, 44, 90
21, 68490, Note_on_c, 15, 44, 0
21, 68490, Note_on_c, 15, 42, 90
21, 68520, Note_on_c, 15, 42, 0
21, 68520, Note_on_c, 15, 40, 90
21, 68550, Note_on_c, 15, 40, 0
21, 68550, Note_on_c, 15, 42, 90
21, 68580, Note_on_c, 15, 42, 0
21, 68580, Note_on_c, 15, 44, 90
21, 68610, Note_on_c, 15, 44, 0
21, 68610, Note_on_c, 15, 40, 90
21, 68640, Note_on_c, 15, 40, 0
21, 68640, Note_on_c, 15, 42, 90
21, 68670, Note_on_c, 15, 42, 0
21, 68670, Note_on_c, 15, 44, 90
21, 68700, Note_on_c, 15, 44, 0
21, 68700, Note_on_c, 15, 45, 90
21, 68730, Note_on_c, 15, 45, 0
21, 68730, Note_on_c, 15, 44, 90
21, 68760, Note_on_c, 15, 44, 0
21, 68760, Note_on_c, 15, 42, 90
21, 68790, Note_on_c, 15, 42, 0
21, 68790, Note_on_c, 15, 44, 90
21, 68820, Note_on_c, 15, 44, 0
21, 68820, Note_on_c, 15, 45, 90
21, 68850, Note_on_c, 15, 45, 0
21, 68850, Note_on_c, 15, 42, 90
21, 68880, Note_on_c, 15, 42, 0
21, 68880, Note_on_c, 15, 44, 90
21, 68910, Note_on_c, 15, 44, 0
21, 68910, Note_on_c, 15, 45, 90
21, 68940, Note_on_c, 15, 45, 0
21, 68940, Note_on_c, 15, 47, 90
21, 68970, Note_on_c, 15, 47, 0
21, 68970, Note_on_c, 15, 45, 90
21, 69000, Note_on_c, 15, 45, 0
21, 69000, Note_on_c, 15, 43, 90
21, 69030, Note_on_c, 15, 43, 0
21, 69030, Note_on_c, 15, 45, 90
21, 69060, Note_on_c, 15, 45, 0
21, 69060, Note_on_c, 15, 47, 90
21, 69090, Note_on_c, 15, 47, 0
21, 69090, Note_on_c, 15, 43, 90
21, 69120, Note_on_c, 15, 43, 0
21, 69120, Note_on_c, 15, 45, 90
21, 69150, Note_on_c, 15, 45, 0
21, 69150, Note_on_c, 15, 47, 90
21, 69180, Note_on_c, 15, 47, 0
21, 69180, Note_on_c, 15, 49, 90
21, 69210, Note_on_c, 15, 49, 0
21, 69210, Note_on_c, 15, 47, 90
21, 69240, Note_on_c, 15, 47, 0
21, 69240, Note_on_c, 15, 45, 90
21, 69270, Note_on_c, 15, 45, 0
21, 69270, Note_on_c, 15, 47, 90
21, 69300, Note_on_c, 15, 47, 0
21, 69300, Note_on_c, 15, 49, 90
21, 69330, Note_on_c, 15, 49, 0
21, 69330, Note_on_c, 15, 45, 90
21, 69360, Note_on_c, 15, 45, 0
21, 69360, Note_on_c, 15, 47, 90
21, 69390, Note_on_c, 15, 47, 0
21, 69390, Note_on_c, 15, 49, 90
21, 69420, Note_on_c, 15, 49, 0
21, 69420, Note_on_c, 15, 50, 90
21, 69450, Note_on_c, 15, 50, 0
21, 69450, Note_on_c, 15, 49, 90
21, 69480, Note_on_c, 15, 49, 0
21, 69480, Note_on_c, 15, 47, 90
21, 69510, Note_on_c, 15, 47, 0
21, 69510, Note_on_c, 15, 49, 90
21, 69540, Note_on_c, 15, 49, 0
21, 69540, Note_on_c, 15, 50, 90
21, 69570, Note_on_c, 15, 50, 0
21, 69570, Note_on_c, 15, 47, 90
21, 69600, Note_on_c, 15, 47, 0
21, 69600, Note_on_c, 15, 49, 90
21, 69630, Note_on_c, 15, 49, 0
21, 69630, Note_on_c, 15, 50, 90
21, 69660, Note_on_c, 15, 50, 0
21, 69660, Note_on_c, 15, 52, 90
21, 69690, Note_on_c, 15, 52, 0
21, 69690, Note_on_c, 15, 50, 90
21, 69720, Note_on_c, 15, 50, 0
21, 69720, Note_on_c, 15, 49, 90
21, 69750, Note_on_c, 15, 49, 0
21, 69750, Note_on_c, 15, 50, 90
21, 69780, Note_on_c, 15, 50, 0
21, 69780, Note_on_c, 15, 52, 90
21, 69810, Note_on_c, 15, 52, 0
21, 69810, Note_on_c, 15, 49, 90
21, 69840, Note_on_c, 15, 49, 0
21, 69840, Note_on_c, 15, 50, 90
21, 69870, Note_on_c, 15, 50, 0
21, 69870, Note_on_c, 15, 52, 90
21, 69900, Note_on_c, 15, 52, 0
21, 69900, Note_on_c, 15, 54, 90
21, 69930, Note_on_c, 15, 54, 0
21, 69930, Note_on_c, 15, 52, 90
21, 69960, Note_on_c, 15, 52, 0
21, 69960, Note_on_c, 15, 51, 90
21, 69990, Note_on_c, 15, 51, 0
21, 69990, Note_on_c, 15, 52, 90
21, 70020, Note_on_c, 15, 52, 0
21, 70020, Note_on_c, 15, 54, 90
21, 70050, Note_on_c, 15, 54, 0
21, 70050, Note_on_c, 15, 51, 90
21, 70080, Note_on_c, 15, 51, 0
21, 70080, Note_on_c, 15, 52, 90
21, 70110, Note_on_c, 15, 52, 0
21, 70110, Note_on_c, 15, 54, 90
21, 70140, Note_on_c, 15, 54, 0
21, 70140, Note_on_c, 15, 56, 90
21, 70170, Note_on_c, 15, 56, 0
21, 70170, Note_on_c, 15, 54, 90
21, 70200, Note_on_c, 15, 54, 0
21, 70200, Note_on_c, 15, 52, 90
21, 70230, Note_on_c, 15, 52, 0
21, 70230, Note_on_c, 15, 54, 90
21, 70260, Note_on_c, 15, 54, 0
21, 70260, Note_on_c, 15, 56, 90
21, 70290, Note_on_c, 15, 56, 0
21, 70290, Note_on_c, 15, 52, 90
21, 70320, Note_on_c, 15, 52, 0
21, 70320, Note_on_c, 15, 54, 90
21, 70350, Note_on_c, 15, 54, 0
21, 70350, Note_on_c, 15, 56, 90
21, 70380, Note_on_c, 15, 56, 0
21, 70380, Note_on_c, 15, 57, 90
21, 70440, Note_on_c, 15, 57, 0
21, 70440, Note_on_c, 15, 56, 90
21, 70470, Note_on_c, 15, 56, 0
21, 70470, Note_on_c, 15, 54, 90
21, 70500, Note_on_c, 15, 54, 0
21, 70500, Note_on_c, 15, 56, 90
21, 70560, Note_on_c, 15, 56, 0
21, 70560, Note_on_c, 15, 44, 90
21, 70620, Note_on_c, 15, 44, 0
21, 70620, Note_on_c, 15, 37, 90
21, 70740, Note_on_c, 15, 37, 0
21, 70860, Note_on_c, 15, 37, 90
21, 70980, Note_on_c, 15, 37, 0
21, 71100, Note_on_c, 15, 37, 90
21, 71220, Note_on_c, 15, 37, 0
21, 71340, Note_on_c, 15, 37, 90
21, 71460, Note_on_c, 15, 37, 0
21, 71580, Note_on_c, 15, 37, 90
21, 71700, Note_on_c, 15, 37, 0
21, 71820, Note_on_c, 15, 37, 90
21, 71940, Note_on_c, 15, 37, 0
21, 72060, Note_on_c, 15, 37, 90
21, 72300, Note_on_c, 15, 37, 0
21, 72540, Note_on_c, 15, 54, 90
21, 72600, Note_on_c, 15, 54, 0
21, 72600, Note_on_c, 15, 54, 90
21, 72660, Note_on_c, 15, 54, 0
21, 72660, Note_on_c, 15, 54, 90
21, 72720, Note_on_c, 15, 54, 0
21, 72720, Note_on_c, 15, 54, 90
21, 72780, Note_on_c, 15, 54, 0
21, 72780, Note_on_c, 15, 54, 90
21, 72840, Note_on_c, 15, 54, 0
21, 72840, Note_on_c, 15, 53, 90
21, 72870, Note_on_c, 15, 53, 0
21, 72870, Note_on_c, 15, 51, 90
21, 72900, Note_on_c, 15, 51, 0
21, 72900, Note_on_c, 15, 49, 90
21, 72960, Note_on_c, 15, 49, 0
21, 72960, Note_on_c, 15, 47, 90
21, 73020, Note_on_c, 15, 47, 0
21, 73020, Note_on_c, 15, 45, 90
21, 73050, Note_on_c, 15, 45, 0
21, 73050, Note_on_c, 15, 44, 90
21, 73080, Note_on_c, 15, 44, 0
21, 73080, Note_on_c, 15, 42, 90
21, 73110, Note_on_c, 15, 42, 0
21, 73110, Note_on_c, 15, 44, 90
21, 73140, Note_on_c, 15, 44, 0
21, 73140, Note_on_c, 15, 45, 90
21, 73170, Note_on_c, 15, 45, 0
21, 73170, Note_on_c, 15, 44, 90
21, 73200, Note_on_c, 15, 44, 0
21, 73200, Note_on_c, 15, 45, 90
21, 73230, Note_on_c, 15, 45, 0
21, 73230, Note_on_c, 15, 47, 90
21, 73260, Note_on_c, 15, 47, 0
21, 73260, Note_on_c, 15, 49, 90
21, 73290, Note_on_c, 15, 49, 0
21, 73290, Note_on_c, 15, 47, 90
21, 73320, Note_on_c, 15, 47, 0
21, 73320, Note_on_c, 15, 49, 90
21, 73350, Note_on_c, 15, 49, 0
21, 73350, Note_on_c, 15, 51, 90
21, 73380, Note_on_c, 15, 51, 0
21, 73380, Note_on_c, 15, 53, 90
21, 73410, Note_on_c, 15, 53, 0
21, 73410, Note_on_c, 15, 51, 90
21, 73440, Note_on_c, 15, 51, 0
21, 73440, Note_on_c, 15, 53, 90
21, 73470, Note_on_c, 15, 53, 0
21, 73470, Note_on_c, 15, 49, 90
21, 73500, Note_on_c, 15, 49, 0
21, 73500, Note_on_c, 15, 54, 90
21, 73560, Note_on_c, 15, 54, 0
21, 73560, Note_on_c, 15, 47, 90
21, 73620, Note_on_c, 15, 47, 0
21, 73620, Note_on_c, 15, 49, 90
21, 73680, Note_on_c, 15, 49, 0
21, 73680, Note_on_c, 15, 37, 90
21, 73740, Note_on_c, 15, 37, 0
21, 73740, Note_on_c, 15, 42, 90
21, 73980, Note_on_c, 15, 42, 0
21, 74460, Control_c, 15, 0, 0
21, 74580, Note_on_c, 15, 57, 100
21, 74620, Note_on_c, 15, 57, 0
21, 74640, Note_on_c, 15, 57, 100
21, 74680, Note_on_c, 15, 57, 0
21, 74700, Note_on_c, 15, 57, 100
21, 74758, Note_on_c, 15, 57, 0
21, 74760, Note_on_c, 15, 56, 100
21, 74788, Note_on_c, 15, 56, 0
21, 74790, Note_on_c, 15, 57, 100
21, 74818, Note_on_c, 15, 57, 0
21, 74820, Note_on_c, 15, 59, 100
21, 74878, Note_on_c, 15, 59, 0
21, 74880, Note_on_c, 15, 50, 100
21, 74938, Note_on_c, 15, 50, 0
21, 74940, Note_on_c, 15, 49, 100
21, 75058, Note_on_c, 15, 49, 0
21, 75060, Note_on_c, 15, 61, 100
21, 75100, Note_on_c, 15, 61, 0
21, 75120, Note_on_c, 15, 61, 100
21, 75160, Note_on_c, 15, 61, 0
21, 75180, Note_on_c, 15, 61, 100
21, 75238, Note_on_c, 15, 61, 0
21, 75240, Note_on_c, 15, 59, 100
21, 75268, Note_on_c, 15, 59, 0
21, 75270, Note_on_c, 15, 61, 100
21, 75298, Note_on_c, 15, 61, 0
21, 75300, Note_on_c, 15, 62, 100
21, 75358, Note_on_c, 15, 62, 0
21, 75360, Note_on_c, 15, 54, 100
21, 75418, Note_on_c, 15, 54, 0
21, 75420, Note_on_c, 15, 52, 100
21, 75538, Note_on_c, 15, 52, 0
21, 75540, Note_on_c, 15, 61, 100
21, 75598, Note_on_c, 15, 61, 0
21, 75600, Note_on_c, 15, 52, 100
21, 75658, Note_on_c, 15, 52, 0
21, 75660, Note_on_c, 15, 50, 100
21, 75778, Note_on_c, 15, 50, 0
21, 75780, Note_on_c, 15, 59, 100
21, 75838, Note_on_c, 15, 59, 0
21, 75840, Note_on_c, 15, 50, 100
21, 75898, Note_on_c, 15, 50, 0
21, 75900, Note_on_c, 15, 49, 100
21, 76018, Note_on_c, 15, 49, 0
21, 76020, Note_on_c, 15, 57, 100
21, 76048, Note_on_c, 15, 57, 0
21, 76050, Note_on_c, 15, 56, 100
21, 76078, Note_on_c, 15, 56, 0
21, 76080, Note_on_c, 15, 54, 100
21, 76108, Note_on_c, 15, 54, 0
21, 76110, Note_on_c, 15, 52, 100
21, 76138, Note_on_c, 15, 52, 0
21, 76140, Note_on_c, 15, 50, 100
21, 76168, Note_on_c, 15, 50, 0
21, 76170, Note_on_c, 15, 49, 100
21, 76198, Note_on_c, 15, 49, 0
21, 76200, Note_on_c, 15, 47, 100
21, 76228, Note_on_c, 15, 47, 0
21, 76230, Note_on_c, 15, 45, 100
21, 76258, Note_on_c, 15, 45, 0
21, 76260, Note_on_c, 15, 52, 100
21, 76318, Note_on_c, 15, 52, 0
21, 76320, Note_on_c, 15, 40, 100
21, 76378, Note_on_c, 15, 40, 0
21, 76380, Note_on_c, 15, 45, 100
21, 76438, Note_on_c, 15, 45, 0
21, 76500, Note_on_c, 15, 49, 100
21, 76540, Note_on_c, 15, 49, 0
21, 76620, Note_on_c, 15, 52, 100
21, 76660, Note_on_c, 15, 52, 0
21, 76740, Note_on_c, 15, 40, 100
21, 76780, Note_on_c, 15, 40, 0
21, 76860, Note_on_c, 15, 45, 100
21, 76900, Note_on_c, 15, 45, 0
21, 76980, Note_on_c, 15, 61, 100
21, 77020, Note_on_c, 15, 61, 0
21, 77040, Note_on_c, 15, 61, 100
21, 77080, Note_on_c, 15, 61, 0
21, 77100, Note_on_c, 15, 61, 100
21, 77158, Note_on_c, 15, 61, 0
21, 77160, Note_on_c, 15, 59, 100
21, 77188, Note_on_c, 15, 59, 0
21, 77190, Note_on_c, 15, 61, 100
21, 77218, Note_on_c, 15, 61, 0
21, 77220, Note_on_c, 15, 62, 100
21, 77278, Note_on_c, 15, 62, 0
21, 77280, Note_on_c, 15, 54, 100
21, 77338, Note_on_c, 15, 54, 0
21, 77340, Note_on_c, 15, 52, 100
21, 77458, Note_on_c, 15, 52, 0
21, 77460, Note_on_c, 15, 61, 100
21, 77518, Note_on_c, 15, 61, 0
21, 77520, Note_on_c, 15, 52, 100
21, 77578, Note_on_c, 15, 52, 0
21, 77580, Note_on_c, 15, 50, 100
21, 77698, Note_on_c, 15, 50, 0
21, 77700, Note_on_c, 15, 59, 100
21, 77758, Note_on_c, 15, 59, 0
21, 77760, Note_on_c, 15, 50, 100
21, 77818, Note_on_c, 15, 50, 0
21, 77820, Note_on_c, 15, 49, 100
21, 77938, Note_on_c, 15, 49, 0
21, 77940, Note_on_c, 15, 57, 100
21, 77968, Note_on_c, 15, 57, 0
21, 77970, Note_on_c, 15, 56, 100
21, 77998, Note_on_c, 15, 56, 0
21, 78000, Note_on_c, 15, 54, 100
21, 78028, Note_on_c, 15, 54, 0
21, 78030, Note_on_c, 15, 52, 100
21, 78058, Note_on_c, 15, 52, 0
21, 78060, Note_on_c, 15, 50, 100
21, 78088, Note_on_c, 15, 50, 0
21, 78090, Note_on_c, 15, 49, 100
21, 78118, Note_on_c, 15, 49, 0
21, 78120, Note_on_c, 15, 47, 100
21, 78148, Note_on_c, 15, 47, 0
21, 78150, Note_on_c, 15, 45, 100
21, 78178, Note_on_c, 15, 45, 0
21, 78180, Note_on_c, 15, 52, 100
21, 78238, Note_on_c, 15, 52, 0
21, 78240, Note_on_c, 15, 40, 100
21, 78280, Note_on_c, 15, 40, 0
21, 78300, Note_on_c, 15, 45, 100
21, 78358, Note_on_c, 15, 45, 0
21, 78420, Note_on_c, 15, 49, 100
21, 78460, Note_on_c, 15, 49, 0
21, 78540, Note_on_c, 15, 52, 100
21, 78580, Note_on_c, 15, 52, 0
21, 78660, Note_on_c, 15, 40, 100
21, 78700, Note_on_c, 15, 40, 0
21, 78780, Note_on_c, 15, 45, 100
21, 78820, Note_on_c, 15, 45, 0
21, 78900, Note_on_c, 15, 61, 100
21, 78940, Note_on_c, 15, 61, 0
21, 78960, Note_on_c, 15, 61, 100
21, 79000, Note_on_c, 15, 61, 0
21, 79020, Note_on_c, 15, 61, 100
21, 79078, Note_on_c, 15, 61, 0
21, 79080, Note_on_c, 15, 59, 100
21, 79108, Note_on_c, 15, 59, 0
21, 79110, Note_on_c, 15, 61, 100
21, 79138, Note_on_c, 15, 61, 0
21, 79140, Note_on_c, 15, 62, 100
21, 79198, Note_on_c, 15, 62, 0
21, 79200, Note_on_c, 15, 54, 100
21, 79258, Note_on_c, 15, 54, 0
21, 79260, Note_on_c, 15, 52, 100
21, 79378, Note_on_c, 15, 52, 0
21, 79380, Note_on_c, 15, 61, 100
21, 79438, Note_on_c, 15, 61, 0
21, 79440, Note_on_c, 15, 52, 100
21, 79498, Note_on_c, 15, 52, 0
21, 79500, Note_on_c, 15, 50, 100
21, 79618, Note_on_c, 15, 50, 0
21, 79620, Note_on_c, 15, 59, 100
21, 79678, Note_on_c, 15, 59, 0
21, 79680, Note_on_c, 15, 50, 100
21, 79738, Note_on_c, 15, 50, 0
21, 79740, Note_on_c, 15, 49, 100
21, 79858, Note_on_c, 15, 49, 0
21, 79860, Note_on_c, 15, 57, 100
21, 79888, Note_on_c, 15, 57, 0
21, 79890, Note_on_c, 15, 56, 100
21, 79918, Note_on_c, 15, 56, 0
21, 79920, Note_on_c, 15, 54, 100
21, 79948, Note_on_c, 15, 54, 0
21, 79950, Note_on_c, 15, 52, 100
21, 79978, Note_on_c, 15, 52, 0
21, 79980, Note_on_c, 15, 51, 100
21, 80020, Note_on_c, 15, 51, 0
21, 80040, Note_on_c, 15, 52, 100
21, 80080, Note_on_c, 15, 52, 0
21, 80100, Note_on_c, 15, 59, 100
21, 80140, Note_on_c, 15, 59, 0
21, 80160, Note_on_c, 15, 47, 100
21, 80200, Note_on_c, 15, 47, 0
21, 80220, Note_on_c, 15, 40, 100
21, 80300, Note_on_c, 15, 40, 0
21, 80340, Note_on_c, 15, 52, 100
21, 80380, Note_on_c, 15, 52, 0
21, 80400, Note_on_c, 15, 52, 100
21, 80440, Note_on_c, 15, 52, 0
21, 80460, Note_on_c, 15, 52, 100
21, 80500, Note_on_c, 15, 52, 0
21, 80520, Note_on_c, 15, 51, 100
21, 80540, Note_on_c, 15, 51, 0
21, 80550, Note_on_c, 15, 52, 100
21, 80570, Note_on_c, 15, 52, 0
21, 80580, Note_on_c, 15, 54, 100
21, 80620, Note_on_c, 15, 54, 0
21, 80640, Note_on_c, 15, 45, 100
21, 80680, Note_on_c, 15, 45, 0
21, 80700, Note_on_c, 15, 44, 100
21, 80780, Note_on_c, 15, 44, 0
21, 80820, Note_on_c, 15, 56, 100
21, 80860, Note_on_c, 15, 56, 0
21, 80880, Note_on_c, 15, 56, 100
21, 80920, Note_on_c, 15, 56, 0
21, 80940, Note_on_c, 15, 56, 100
21, 80980, Note_on_c, 15, 56, 0
21, 81000, Note_on_c, 15, 54, 100
21, 81020, Note_on_c, 15, 54, 0
21, 81030, Note_on_c, 15, 56, 100
21, 81050, Note_on_c, 15, 56, 0
21, 81060, Note_on_c, 15, 57, 100
21, 81100, Note_on_c, 15, 57, 0
21, 81120, Note_on_c, 15, 49, 100
21, 81160, Note_on_c, 15, 49, 0
21, 81180, Note_on_c, 15, 47, 100
21, 81260, Note_on_c, 15, 47, 0
21, 81300, Note_on_c, 15, 56, 100
21, 81340, Note_on_c, 15, 56, 0
21, 81360, Note_on_c, 15, 47, 100
21, 81400, Note_on_c, 15, 47, 0
21, 81420, Note_on_c, 15, 45, 100
21, 81500, Note_on_c, 15, 45, 0
21, 81540, Note_on_c, 15, 54, 100
21, 81580, Note_on_c, 15, 54, 0
21, 81600, Note_on_c, 15, 45, 100
21, 81640, Note_on_c, 15, 45, 0
21, 81660, Note_on_c, 15, 44, 100
21, 81740, Note_on_c, 15, 44, 0
21, 81780, Note_on_c, 15, 52, 100
21, 81800, Note_on_c, 15, 52, 0
21, 81810, Note_on_c, 15, 51, 100
21, 81830, Note_on_c, 15, 51, 0
21, 81840, Note_on_c, 15, 49, 100
21, 81860, Note_on_c, 15, 49, 0
21, 81870, Note_on_c, 15, 47, 100
21, 81890, Note_on_c, 15, 47, 0
21, 81900, Note_on_c, 15, 45, 100
21, 81920, Note_on_c, 15, 45, 0
21, 81930, Note_on_c, 15, 44, 100
21, 81950, Note_on_c, 15, 44, 0
21, 81960, Note_on_c, 15, 42, 100
21, 81980, Note_on_c, 15, 42, 0
21, 81990, Note_on_c, 15, 40, 100
21, 82010, Note_on_c, 15, 40, 0
21, 82020, Note_on_c, 15, 47, 100
21, 82060, Note_on_c, 15, 47, 0
21, 82080, Note_on_c, 15, 47, 100
21, 82120, Note_on_c, 15, 47, 0
21, 82140, Note_on_c, 15, 40, 100
21, 82220, Note_on_c, 15, 40, 0
21, 82500, Note_on_c, 15, 54, 100
21, 82540, Note_on_c, 15, 54, 0
21, 82560, Note_on_c, 15, 54, 100
21, 82600, Note_on_c, 15, 54, 0
21, 82620, Note_on_c, 15, 54, 100
21, 82660, Note_on_c, 15, 54, 0
21, 82680, Note_on_c, 15, 53, 100
21, 82700, Note_on_c, 15, 53, 0
21, 82710, Note_on_c, 15, 54, 100
21, 82730, Note_on_c, 15, 54, 0
21, 82740, Note_on_c, 15, 56, 100
21, 82780, Note_on_c, 15, 56, 0
21, 82800, Note_on_c, 15, 47, 100
21, 82840, Note_on_c, 15, 47, 0
21, 82860, Note_on_c, 15, 45, 100
21, 82940, Note_on_c, 15, 45, 0
21, 82980, Note_on_c, 15, 57, 100
21, 83020, Note_on_c, 15, 57, 0
21, 83040, Note_on_c, 15, 57, 100
21, 83080, Note_on_c, 15, 57, 0
21, 83100, Note_on_c, 15, 57, 100
21, 83140, Note_on_c, 15, 57, 0
21, 83160, Note_on_c, 15, 56, 100
21, 83180, Note_on_c, 15, 56, 0
21, 83190, Note_on_c, 15, 57, 100
21, 83210, Note_on_c, 15, 57, 0
21, 83220, Note_on_c, 15, 59, 100
21, 83260, Note_on_c, 15, 59, 0
21, 83280, Note_on_c, 15, 50, 100
21, 83320, Note_on_c, 15, 50, 0
21, 83340, Note_on_c, 15, 49, 100
21, 83420, Note_on_c, 15, 49, 0
21, 83460, Note_on_c, 15, 57, 100
21, 83500, Note_on_c, 15, 57, 0
21, 83520, Note_on_c, 15, 49, 100
21, 83560, Note_on_c, 15, 49, 0
21, 83580, Note_on_c, 15, 47, 100
21, 83660, Note_on_c, 15, 47, 0
21, 83700, Note_on_c, 15, 56, 100
21, 83740, Note_on_c, 15, 56, 0
21, 83760, Note_on_c, 15, 47, 100
21, 83800, Note_on_c, 15, 47, 0
21, 83820, Note_on_c, 15, 45, 100
21, 83900, Note_on_c, 15, 45, 0
21, 83940, Note_on_c, 15, 54, 100
21, 83960, Note_on_c, 15, 54, 0
21, 83970, Note_on_c, 15, 52, 100
21, 83990, Note_on_c, 15, 52, 0
21, 84000, Note_on_c, 15, 50, 100
21, 84020, Note_on_c, 15, 50, 0
21, 84030, Note_on_c, 15, 49, 100
21, 84050, Note_on_c, 15, 49, 0
21, 84060, Note_on_c, 15, 47, 100
21, 84080, Note_on_c, 15, 47, 0
21, 84090, Note_on_c, 15, 45, 100
21, 84110, Note_on_c, 15, 45, 0
21, 84120, Note_on_c, 15, 44, 100
21, 84140, Note_on_c, 15, 44, 0
21, 84150, Note_on_c, 15, 42, 100
21, 84170, Note_on_c, 15, 42, 0
21, 84180, Note_on_c, 15, 49, 100
21, 84220, Note_on_c, 15, 49, 0
21, 84240, Note_on_c, 15, 37, 100
21, 84280, Note_on_c, 15, 37, 0
21, 84300, Note_on_c, 15, 42, 100
21, 84380, Note_on_c, 15, 42, 0
21, 84420, Note_on_c, 15, 54, 100
21, 84460, Note_on_c, 15, 54, 0
21, 84480, Note_on_c, 15, 45, 100
21, 84520, Note_on_c, 15, 45, 0
21, 84540, Note_on_c, 15, 44, 100
21, 84620, Note_on_c, 15, 44, 0
21, 84660, Note_on_c, 15, 52, 100
21, 84700, Note_on_c, 15, 52, 0
21, 84720, Note_on_c, 15, 44, 100
21, 84760, Note_on_c, 15, 44, 0
21, 84780, Note_on_c, 15, 42, 100
21, 84860, Note_on_c, 15, 42, 0
21, 84900, Note_on_c, 15, 51, 100
21, 84940, Note_on_c, 15, 51, 0
21, 84960, Note_on_c, 15, 42, 100
21, 85000, Note_on_c, 15, 42, 0
21, 85020, Note_on_c, 15, 40, 100
21, 85100, Note_on_c, 15, 40, 0
21, 85140, Note_on_c, 15, 61, 100
21, 85160, Note_on_c, 15, 61, 0
21, 85170, Note_on_c, 15, 59, 100
21, 85190, Note_on_c, 15, 59, 0
21, 85200, Note_on_c, 15, 57, 100
21, 85220, Note_on_c, 15, 57, 0
21, 85230, Note_on_c, 15, 56, 100
21, 85250, Note_on_c, 15, 56, 0
21, 85260, Note_on_c, 15, 54, 100
21, 85280, Note_on_c, 15, 54, 0
21, 85290, Note_on_c, 15, 52, 100
21, 85310, Note_on_c, 15, 52, 0
21, 85320, Note_on_c, 15, 51, 100
21, 85340, Note_on_c, 15, 51, 0
21, 85350, Note_on_c, 15, 49, 100
21, 85370, Note_on_c, 15, 49, 0
21, 85380, Note_on_c, 15, 56, 100
21, 85420, Note_on_c, 15, 56, 0
21, 85440, Note_on_c, 15, 44, 100
21, 85480, Note_on_c, 15, 44, 0
21, 85500, Note_on_c, 15, 37, 100
21, 85580, Note_on_c, 15, 37, 0
21, 85620, Note_on_c, 15, 49, 100
21, 85660, Note_on_c, 15, 49, 0
21, 85680, Note_on_c, 15, 49, 100
21, 85720, Note_on_c, 15, 49, 0
21, 85740, Note_on_c, 15, 49, 100
21, 85780, Note_on_c, 15, 49, 0
21, 85800, Note_on_c, 15, 48, 100
21, 85820, Note_on_c, 15, 48, 0
21, 85830, Note_on_c, 15, 49, 100
21, 85850, Note_on_c, 15, 49, 0
21, 85860, Note_on_c, 15, 51, 100
21, 85900, Note_on_c, 15, 51, 0
21, 85920, Note_on_c, 15, 42, 100
21, 85960, Note_on_c, 15, 42, 0
21, 85980, Note_on_c, 15, 40, 100
21, 86060, Note_on_c, 15, 40, 0
21, 86100, Note_on_c, 15, 52, 100
21, 86140, Note_on_c, 15, 52, 0
21, 86160, Note_on_c, 15, 52, 100
21, 86200, Note_on_c, 15, 52, 0
21, 86220, Note_on_c, 15, 52, 100
21, 86260, Note_on_c, 15, 52, 0
21, 86280, Note_on_c, 15, 51, 100
21, 86300, Note_on_c, 15, 51, 0
21, 86310, Note_on_c, 15, 52, 100
21, 86330, Note_on_c, 15, 52, 0
21, 86340, Note_on_c, 15, 54, 100
21, 86380, Note_on_c, 15, 54, 0
21, 86400, Note_on_c, 15, 45, 100
21, 86440, Note_on_c, 15, 45, 0
21, 86460, Note_on_c, 15, 44, 100
21, 86540, Note_on_c, 15, 44, 0
21, 86580, Note_on_c, 15, 57, 100
21, 86620, Note_on_c, 15, 57, 0
21, 86640, Note_on_c, 15, 57, 100
21, 86680, Note_on_c, 15, 57, 0
21, 86700, Note_on_c, 15, 57, 100
21, 86758, Note_on_c, 15, 57, 0
21, 86760, Note_on_c, 15, 56, 100
21, 86788, Note_on_c, 15, 56, 0
21, 86790, Note_on_c, 15, 57, 100
21, 86818, Note_on_c, 15, 57, 0
21, 86820, Note_on_c, 15, 59, 100
21, 86878, Note_on_c, 15, 59, 0
21, 86880, Note_on_c, 15, 50, 100
21, 86938, Note_on_c, 15, 50, 0
21, 86940, Note_on_c, 15, 49, 100
21, 87058, Note_on_c, 15, 49, 0
21, 87060, Note_on_c, 15, 61, 100
21, 87100, Note_on_c, 15, 61, 0
21, 87120, Note_on_c, 15, 61, 100
21, 87160, Note_on_c, 15, 61, 0
21, 87180, Note_on_c, 15, 61, 100
21, 87238, Note_on_c, 15, 61, 0
21, 87240, Note_on_c, 15, 59, 100
21, 87268, Note_on_c, 15, 59, 0
21, 87270, Note_on_c, 15, 61, 100
21, 87298, Note_on_c, 15, 61, 0
21, 87300, Note_on_c, 15, 62, 100
21, 87358, Note_on_c, 15, 62, 0
21, 87360, Note_on_c, 15, 54, 100
21, 87418, Note_on_c, 15, 54, 0
21, 87420, Note_on_c, 15, 52, 100
21, 87538, Note_on_c, 15, 52, 0
21, 87540, Note_on_c, 15, 61, 100
21, 87580, Note_on_c, 15, 61, 0
21, 87600, Note_on_c, 15, 52, 100
21, 87640, Note_on_c, 15, 52, 0
21, 87660, Note_on_c, 15, 50, 100
21, 87740, Note_on_c, 15, 50, 0
21, 87780, Note_on_c, 15, 59, 100
21, 87820, Note_on_c, 15, 59, 0
21, 87840, Note_on_c, 15, 50, 100
21, 87880, Note_on_c, 15, 50, 0
21, 87900, Note_on_c, 15, 49, 100
21, 87980, Note_on_c, 15, 49, 0
21, 88020, Note_on_c, 15, 57, 100
21, 88040, Note_on_c, 15, 57, 0
21, 88050, Note_on_c, 15, 56, 100
21, 88070, Note_on_c, 15, 56, 0
21, 88080, Note_on_c, 15, 54, 100
21, 88100, Note_on_c, 15, 54, 0
21, 88110, Note_on_c, 15, 52, 100
21, 88130, Note_on_c, 15, 52, 0
21, 88140, Note_on_c, 15, 50, 100
21, 88160, Note_on_c, 15, 50, 0
21, 88170, Note_on_c, 15, 49, 100
21, 88190, Note_on_c, 15, 49, 0
21, 88200, Note_on_c, 15, 47, 100
21, 88220, Note_on_c, 15, 47, 0
21, 88230, Note_on_c, 15, 45, 100
21, 88250, Note_on_c, 15, 45, 0
21, 88260, Note_on_c, 15, 52, 100
21, 88300, Note_on_c, 15, 52, 0
21, 88320, Note_on_c, 15, 40, 100
21, 88360, Note_on_c, 15, 40, 0
21, 88380, Note_on_c, 15, 45, 100
21, 88460, Note_on_c, 15, 45, 0
21, 88500, Note_on_c, 15, 57, 100
21, 88540, Note_on_c, 15, 57, 0
21, 88560, Note_on_c, 15, 57, 100
21, 88600, Note_on_c, 15, 57, 0
21, 88620, Note_on_c, 15, 57, 100
21, 88678, Note_on_c, 15, 57, 0
21, 88680, Note_on_c, 15, 56, 100
21, 88708, Note_on_c, 15, 56, 0
21, 88710, Note_on_c, 15, 57, 100
21, 88738, Note_on_c, 15, 57, 0
21, 88740, Note_on_c, 15, 59, 100
21, 88798, Note_on_c, 15, 59, 0
21, 88800, Note_on_c, 15, 50, 100
21, 88858, Note_on_c, 15, 50, 0
21, 88860, Note_on_c, 15, 49, 100
21, 88978, Note_on_c, 15, 49, 0
21, 88980, Note_on_c, 15, 61, 100
21, 89020, Note_on_c, 15, 61, 0
21, 89040, Note_on_c, 15, 61, 100
21, 89080, Note_on_c, 15, 61, 0
21, 89100, Note_on_c, 15, 61, 100
21, 89158, Note_on_c, 15, 61, 0
21, 89160, Note_on_c, 15, 59, 100
21, 89188, Note_on_c, 15, 59, 0
21, 89190, Note_on_c, 15, 61, 100
21, 89218, Note_on_c, 15, 61, 0
21, 89220, Note_on_c, 15, 62, 100
21, 89278, Note_on_c, 15, 62, 0
21, 89280, Note_on_c, 15, 54, 100
21, 89338, Note_on_c, 15, 54, 0
21, 89340, Note_on_c, 15, 52, 100
21, 89458, Note_on_c, 15, 52, 0
21, 89460, Note_on_c, 15, 61, 100
21, 89500, Note_on_c, 15, 61, 0
21, 89520, Note_on_c, 15, 52, 100
21, 89560, Note_on_c, 15, 52, 0
21, 89580, Note_on_c, 15, 50, 100
21, 89660, Note_on_c, 15, 50, 0
21, 89700, Note_on_c, 15, 59, 100
21, 89740, Note_on_c, 15, 59, 0
21, 89760, Note_on_c, 15, 50, 100
21, 89800, Note_on_c, 15, 50, 0
21, 89820, Note_on_c, 15, 49, 100
21, 89900, Note_on_c, 15, 49, 0
21, 89940, Note_on_c, 15, 57, 100
21, 89960, Note_on_c, 15, 57, 0
21, 89970, Note_on_c, 15, 56, 100
21, 89990, Note_on_c, 15, 56, 0
21, 90000, Note_on_c, 15, 54, 100
21, 90020, Note_on_c, 15, 54, 0
21, 90030, Note_on_c, 15, 52, 100
21, 90050, Note_on_c, 15, 52, 0
21, 90060, Note_on_c, 15, 50, 100
21, 90080, Note_on_c, 15, 50, 0
21, 90090, Note_on_c, 15, 49, 100
21, 90110, Note_on_c, 15, 49, 0
21, 90120, Note_on_c, 15, 47, 100
21, 90140, Note_on_c, 15, 47, 0
21, 90150, Note_on_c, 15, 45, 100
21, 90170, Note_on_c, 15, 45, 0
21, 90180, Note_on_c, 15, 52, 100
21, 90220, Note_on_c, 15, 52, 0
21, 90240, Note_on_c, 15, 40, 100
21, 90280, Note_on_c, 15, 40, 0
21, 90300, Note_on_c, 15, 45, 100
21, 90380, Note_on_c, 15, 45, 0
21, 91260, Control_c, 15, 0, 0
21, 91260, Note_on_c, 15, 52, 100
21, 91377, Note_on_c, 15, 52, 0
21, 91380, Note_on_c, 15, 40, 100
21, 91437, Note_on_c, 15, 40, 0
21, 91440, Note_on_c, 15, 40, 100
21, 91557, Note_on_c, 15, 40, 0
21, 91560, Note_on_c, 15, 52, 100
21, 91617, Note_on_c, 15, 52, 0
21, 91620, Note_on_c, 15, 52, 100
21, 91737, Note_on_c, 15, 52, 0
21, 91740, Note_on_c, 15, 40, 100
21, 91797, Note_on_c, 15, 40, 0
21, 91800, Note_on_c, 15, 40, 100
21, 91917, Note_on_c, 15, 40, 0
21, 91920, Note_on_c, 15, 52, 100
21, 91977, Note_on_c, 15, 52, 0
21, 91980, Note_on_c, 15, 51, 100
21, 92097, Note_on_c, 15, 51, 0
21, 92100, Note_on_c, 15, 39, 100
21, 92157, Note_on_c, 15, 39, 0
21, 92160, Note_on_c, 15, 39, 100
21, 92277, Note_on_c, 15, 39, 0
21, 92280, Note_on_c, 15, 51, 100
21, 92337, Note_on_c, 15, 51, 0
21, 92340, Note_on_c, 15, 50, 100
21, 92457, Note_on_c, 15, 50, 0
21, 92460, Note_on_c, 15, 38, 100
21, 92517, Note_on_c, 15, 38, 0
21, 92520, Note_on_c, 15, 38, 100
21, 92637, Note_on_c, 15, 38, 0
21, 92640, Note_on_c, 15, 50, 100
21, 92697, Note_on_c, 15, 50, 0
21, 92700, Note_on_c, 15, 48, 100
21, 92817, Note_on_c, 15, 48, 0
21, 92820, Note_on_c, 15, 36, 100
21, 92877, Note_on_c, 15, 36, 0
21, 92880, Note_on_c, 15, 36, 100
21, 92997, Note_on_c, 15, 36, 0
21, 93000, Note_on_c, 15, 48, 100
21, 93057, Note_on_c, 15, 48, 0
21, 93060, Note_on_c, 15, 47, 100
21, 93177, Note_on_c, 15, 47, 0
21, 93180, Note_on_c, 15, 59, 100
21, 93237, Note_on_c, 15, 59, 0
21, 93240, Note_on_c, 15, 59, 100
21, 93357, Note_on_c, 15, 59, 0
21, 93360, Note_on_c, 15, 51, 100
21, 93417, Note_on_c, 15, 51, 0
21, 93420, Note_on_c, 15, 52, 100
21, 93537, Note_on_c, 15, 52, 0
21, 93540, Note_on_c, 15, 55, 100
21, 93597, Note_on_c, 15, 55, 0
21, 93600, Note_on_c, 15, 59, 100
21, 93717, Note_on_c, 15, 59, 0
21, 93720, Note_on_c, 15, 47, 100
21, 93777, Note_on_c, 15, 47, 0
21, 93780, Note_on_c, 15, 52, 100
21, 93897, Note_on_c, 15, 52, 0
21, 93900, Note_on_c, 15, 40, 100
21, 93957, Note_on_c, 15, 40, 0
21, 93960, Note_on_c, 15, 40, 100
21, 94077, Note_on_c, 15, 40, 0
21, 94080, Note_on_c, 15, 52, 100
21, 94137, Note_on_c, 15, 52, 0
21, 94140, Note_on_c, 15, 52, 100
21, 94257, Note_on_c, 15, 52, 0
21, 94260, Note_on_c, 15, 40, 100
21, 94317, Note_on_c, 15, 40, 0
21, 94320, Note_on_c, 15, 40, 100
21, 94437, Note_on_c, 15, 40, 0
21, 94440, Note_on_c, 15, 52, 100
21, 94497, Note_on_c, 15, 52, 0
21, 94500, Note_on_c, 15, 51, 100
21, 94617, Note_on_c, 15, 51, 0
21, 94620, Note_on_c, 15, 39, 100
21, 94677, Note_on_c, 15, 39, 0
21, 94680, Note_on_c, 15, 39, 100
21, 94797, Note_on_c, 15, 39, 0
21, 94800, Note_on_c, 15, 51, 100
21, 94857, Note_on_c, 15, 51, 0
21, 94860, Note_on_c, 15, 50, 100
21, 94977, Note_on_c, 15, 50, 0
21, 94980, Note_on_c, 15, 38, 100
21, 95037, Note_on_c, 15, 38, 0
21, 95040, Note_on_c, 15, 38, 100
21, 95157, Note_on_c, 15, 38, 0
21, 95160, Note_on_c, 15, 50, 100
21, 95217, Note_on_c, 15, 50, 0
21, 95220, Note_on_c, 15, 48, 100
21, 95337, Note_on_c, 15, 48, 0
21, 95340, Note_on_c, 15, 36, 100
21, 95397, Note_on_c, 15, 36, 0
21, 95400, Note_on_c, 15, 36, 100
21, 95517, Note_on_c, 15, 36, 0
21, 95520, Note_on_c, 15, 48, 100
21, 95577, Note_on_c, 15, 48, 0
21, 95580, Note_on_c, 15, 47, 100
21, 95697, Note_on_c, 15, 47, 0
21, 95700, Note_on_c, 15, 59, 100
21, 95757, Note_on_c, 15, 59, 0
21, 95760, Note_on_c, 15, 59, 100
21, 95877, Note_on_c, 15, 59, 0
21, 95880, Note_on_c, 15, 51, 100
21, 95937, Note_on_c, 15, 51, 0
21, 95940, Note_on_c, 15, 52, 100
21, 96057, Note_on_c, 15, 52, 0
21, 96060, Note_on_c, 15, 50, 100
21, 96117, Note_on_c, 15, 50, 0
21, 96120, Note_on_c, 15, 48, 100
21, 96237, Note_on_c, 15, 48, 0
21, 96240, Note_on_c, 15, 48, 100
21, 96297, Note_on_c, 15, 48, 0
21, 96300, Note_on_c, 15, 47, 100
21, 96417, Note_on_c, 15, 47, 0
21, 96420, Note_on_c, 15, 59, 100
21, 96477, Note_on_c, 15, 59, 0
21, 96480, Note_on_c, 15, 59, 100
21, 96597, Note_on_c, 15, 59, 0
21, 96600, Note_on_c, 15, 47, 100
21, 96657, Note_on_c, 15, 47, 0
21, 96660, Note_on_c, 15, 47, 100
21, 96777, Note_on_c, 15, 47, 0
21, 96780, Note_on_c, 15, 59, 100
21, 96837, Note_on_c, 15, 59, 0
21, 96840, Note_on_c, 15, 59, 100
21, 96957, Note_on_c, 15, 59, 0
21, 96960, Note_on_c, 15, 47, 100
21, 97017, Note_on_c, 15, 47, 0
21, 97020, Note_on_c, 15, 51, 100
21, 97137, Note_on_c, 15, 51, 0
21, 97140, Note_on_c, 15, 39, 100
21, 97197, Note_on_c, 15, 39, 0
21, 97200, Note_on_c, 15, 39, 100
21, 97317, Note_on_c, 15, 39, 0
21, 97320, Note_on_c, 15, 51, 100
21, 97377, Note_on_c, 15, 51, 0
21, 97380, Note_on_c, 15, 50, 100
21, 97497, Note_on_c, 15, 50, 0
21, 97500, Note_on_c, 15, 38, 100
21, 97557, Note_on_c, 15, 38, 0
21, 97560, Note_on_c, 15, 38, 100
21, 97677, Note_on_c, 15, 38, 0
21, 97680, Note_on_c, 15, 50, 100
21, 97737, Note_on_c, 15, 50, 0
21, 97740, Note_on_c, 15, 49, 100
21, 97857, Note_on_c, 15, 49, 0
21, 97860, Note_on_c, 15, 37, 100
21, 97917, Note_on_c, 15, 37, 0
21, 97920, Note_on_c, 15, 37, 100
21, 98037, Note_on_c, 15, 37, 0
21, 98040, Note_on_c, 15, 49, 100
21, 98097, Note_on_c, 15, 49, 0
21, 98100, Note_on_c, 15, 54, 100
21, 98217, Note_on_c, 15, 54, 0
21, 98220, Note_on_c, 15, 42, 100
21, 98277, Note_on_c, 15, 42, 0
21, 98280, Note_on_c, 15, 42, 100
21, 98397, Note_on_c, 15, 42, 0
21, 98400, Note_on_c, 15, 58, 100
21, 98457, Note_on_c, 15, 58, 0
21, 98460, Note_on_c, 15, 59, 100
21, 98577, Note_on_c, 15, 59, 0
21, 98580, Note_on_c, 15, 50, 100
21, 98637, Note_on_c, 15, 50, 0
21, 98640, Note_on_c, 15, 52, 100
21, 98757, Note_on_c, 15, 52, 0
21, 98760, Note_on_c, 15, 54, 100
21, 98817, Note_on_c, 15, 54, 0
21, 98820, Note_on_c, 15, 59, 100
21, 98937, Note_on_c, 15, 59, 0
21, 98940, Note_on_c, 15, 47, 100
21, 98997, Note_on_c, 15, 47, 0
21, 99000, Note_on_c, 15, 47, 100
21, 99117, Note_on_c, 15, 47, 0
21, 99120, Note_on_c, 15, 59, 100
21, 99177, Note_on_c, 15, 59, 0
21, 99180, Note_on_c, 15, 59, 100
21, 99297, Note_on_c, 15, 59, 0
21, 99300, Note_on_c, 15, 47, 100
21, 99357, Note_on_c, 15, 47, 0
21, 99360, Note_on_c, 15, 47, 100
21, 99477, Note_on_c, 15, 47, 0
21, 99480, Note_on_c, 15, 59, 100
21, 99537, Note_on_c, 15, 59, 0
21, 99540, Note_on_c, 15, 58, 100
21, 99657, Note_on_c, 15, 58, 0
21, 99660, Note_on_c, 15, 46, 100
21, 99717, Note_on_c, 15, 46, 0
21, 99720, Note_on_c, 15, 46, 100
21, 99837, Note_on_c, 15, 46, 0
21, 99840, Note_on_c, 15, 58, 100
21, 99897, Note_on_c, 15, 58, 0
21, 99900, Note_on_c, 15, 57, 100
21, 100017, Note_on_c, 15, 57, 0
21, 100020, Note_on_c, 15, 45, 100
21, 100077, Note_on_c, 15, 45, 0
21, 100080, Note_on_c, 15, 45, 100
21, 100197, Note_on_c, 15, 45, 0
21, 100200, Note_on_c, 15, 57, 100
21, 100257, Note_on_c, 15, 57, 0
21, 100260, Note_on_c, 15, 55, 100
21, 100377, Note_on_c, 15, 55, 0
21, 100380, Note_on_c, 15, 43, 100
21, 100437, Note_on_c, 15, 43, 0
21, 100440, Note_on_c, 15, 43, 100
21, 100557, Note_on_c, 15, 43, 0
21, 100560, Note_on_c, 15, 55, 100
21, 100617, Note_on_c, 15, 55, 0
21, 100620, Note_on_c, 15, 54, 100
21, 100737, Note_on_c, 15, 54, 0
21, 100740, Note_on_c, 15, 42, 100
21, 100797, Note_on_c, 15, 42, 0
21, 100800, Note_on_c, 15, 42, 100
21, 100917, Note_on_c, 15, 42, 0
21, 100920, Note_on_c, 15, 58, 100
21, 100977, Note_on_c, 15, 58, 0
21, 100980, Note_on_c, 15, 59, 100
21, 101097, Note_on_c, 15, 59, 0
21, 101100, Note_on_c, 15, 50, 100
21, 101157, Note_on_c, 15, 50, 0
21, 101160, Note_on_c, 15, 54, 100
21, 101277, Note_on_c, 15, 54, 0
21, 101280, Note_on_c, 15, 42, 100
21, 101337, Note_on_c, 15, 42, 0
21, 101340, Note_on_c, 15, 47, 100
21, 101457, Note_on_c, 15, 47, 0
21, 101460, Note_on_c, 15, 59, 100
21, 101517, Note_on_c, 15, 59, 0
21, 101520, Note_on_c, 15, 59, 100
21, 101637, Note_on_c, 15, 59, 0
21, 101640, Note_on_c, 15, 47, 100
21, 101697, Note_on_c, 15, 47, 0
21, 101700, Note_on_c, 15, 52, 100
21, 101817, Note_on_c, 15, 52, 0
21, 101820, Note_on_c, 15, 40, 100
21, 101877, Note_on_c, 15, 40, 0
21, 101880, Note_on_c, 15, 40, 100
21, 101997, Note_on_c, 15, 40, 0
21, 102000, Note_on_c, 15, 52, 100
21, 102057, Note_on_c, 15, 52, 0
21, 102060, Note_on_c, 15, 57, 100
21, 102177, Note_on_c, 15, 57, 0
21, 102180, Note_on_c, 15, 45, 100
21, 102237, Note_on_c, 15, 45, 0
21, 102240, Note_on_c, 15, 45, 100
21, 102357, Note_on_c, 15, 45, 0
21, 102360, Note_on_c, 15, 57, 100
21, 102417, Note_on_c, 15, 57, 0
21, 102420, Note_on_c, 15, 59, 100
21, 102537, Note_on_c, 15, 59, 0
21, 102540, Note_on_c, 15, 47, 100
21, 102597, Note_on_c, 15, 47, 0
21, 102600, Note_on_c, 15, 47, 100
21, 102717, Note_on_c, 15, 47, 0
21, 102720, Note_on_c, 15, 59, 100
21, 102777, Note_on_c, 15, 59, 0
21, 102780, Note_on_c, 15, 52, 100
21, 102897, Note_on_c, 15, 52, 0
21, 102900, Note_on_c, 15, 40, 100
21, 102957, Note_on_c, 15, 40, 0
21, 102960, Note_on_c, 15, 40, 100
21, 103077, Note_on_c, 15, 40, 0
21, 103080, Note_on_c, 15, 52, 100
21, 103137, Note_on_c, 15, 52, 0
21, 103140, Note_on_c, 15, 57, 100
21, 103257, Note_on_c, 15, 57, 0
21, 103260, Note_on_c, 15, 45, 100
21, 103317, Note_on_c, 15, 45, 0
21, 103320, Note_on_c, 15, 45, 100
21, 103437, Note_on_c, 15, 45, 0
21, 103440, Note_on_c, 15, 57, 100
21, 103497, Note_on_c, 15, 57, 0
21, 103500, Note_on_c, 15, 62, 100
21, 103617, Note_on_c, 15, 62, 0
21, 103620, Note_on_c, 15, 50, 100
21, 103677, Note_on_c, 15, 50, 0
21, 103680, Note_on_c, 15, 50, 100
21, 103797, Note_on_c, 15, 50, 0
21, 103800, Note_on_c, 15, 62, 100
21, 103857, Note_on_c, 15, 62, 0
21, 103860, Note_on_c, 15, 62, 100
21, 103977, Note_on_c, 15, 62, 0
21, 103980, Note_on_c, 15, 50, 100
21, 104037, Note_on_c, 15, 50, 0
21, 104040, Note_on_c, 15, 50, 100
21, 104157, Note_on_c, 15, 50, 0
21, 104160, Note_on_c, 15, 62, 100
21, 104217, Note_on_c, 15, 62, 0
21, 104220, Note_on_c, 15, 61, 100
21, 104337, Note_on_c, 15, 61, 0
21, 104340, Note_on_c, 15, 49, 100
21, 104397, Note_on_c, 15, 49, 0
21, 104400, Note_on_c, 15, 49, 100
21, 104517, Note_on_c, 15, 49, 0
21, 104520, Note_on_c, 15, 61, 100
21, 104577, Note_on_c, 15, 61, 0
21, 104580, Note_on_c, 15, 62, 100
21, 104697, Note_on_c, 15, 62, 0
21, 104700, Note_on_c, 15, 50, 100
21, 104757, Note_on_c, 15, 50, 0
21, 104760, Note_on_c, 15, 38, 100
21, 104877, Note_on_c, 15, 38, 0
21, 104880, Note_on_c, 15, 50, 100
21, 104937, Note_on_c, 15, 50, 0
21, 104940, Note_on_c, 15, 52, 100
21, 105057, Note_on_c, 15, 52, 0
21, 105060, Note_on_c, 15, 40, 100
21, 105117, Note_on_c, 15, 40, 0
21, 105120, Note_on_c, 15, 40, 100
21, 105237, Note_on_c, 15, 40, 0
21, 105240, Note_on_c, 15, 52, 100
21, 105297, Note_on_c, 15, 52, 0
21, 105300, Note_on_c, 15, 52, 100
21, 105417, Note_on_c, 15, 52, 0
21, 105420, Note_on_c, 15, 40, 100
21, 105477, Note_on_c, 15, 40, 0
21, 105480, Note_on_c, 15, 40, 100
21, 105597, Note_on_c, 15, 40, 0
21, 105600, Note_on_c, 15, 52, 100
21, 105657, Note_on_c, 15, 52, 0
21, 105660, Note_on_c, 15, 52, 100
21, 105777, Note_on_c, 15, 52, 0
21, 105780, Note_on_c, 15, 40, 100
21, 105837, Note_on_c, 15, 40, 0
21, 105840, Note_on_c, 15, 40, 100
21, 105957, Note_on_c, 15, 40, 0
21, 105960, Note_on_c, 15, 52, 100
21, 106017, Note_on_c, 15, 52, 0
21, 106020, Note_on_c, 15, 52, 100
21, 106137, Note_on_c, 15, 52, 0
21, 106140, Note_on_c, 15, 40, 100
21, 106197, Note_on_c, 15, 40, 0
21, 106200, Note_on_c, 15, 40, 100
21, 106317, Note_on_c, 15, 40, 0
21, 106320, Note_on_c, 15, 52, 100
21, 106377, Note_on_c, 15, 52, 0
21, 106380, Note_on_c, 15, 55, 100
21, 106497, Note_on_c, 15, 55, 0
21, 106500, Note_on_c, 15, 43, 100
21, 106557, Note_on_c, 15, 43, 0
21, 106560, Note_on_c, 15, 43, 100
21, 106677, Note_on_c, 15, 43, 0
21, 106680, Note_on_c, 15, 55, 100
21, 106737, Note_on_c, 15, 55, 0
21, 106740, Note_on_c, 15, 53, 100
21, 106857, Note_on_c, 15, 53, 0
21, 106860, Note_on_c, 15, 41, 100
21, 106917, Note_on_c, 15, 41, 0
21, 106920, Note_on_c, 15, 41, 100
21, 107037, Note_on_c, 15, 41, 0
21, 107040, Note_on_c, 15, 53, 100
21, 107097, Note_on_c, 15, 53, 0
21, 107100, Note_on_c, 15, 52, 100
21, 107217, Note_on_c, 15, 52, 0
21, 107220, Note_on_c, 15, 40, 100
21, 107277, Note_on_c, 15, 40, 0
21, 107280, Note_on_c, 15, 40, 100
21, 107397, Note_on_c, 15, 40, 0
21, 107400, Note_on_c, 15, 56, 100
21, 107457, Note_on_c, 15, 56, 0
21, 107460, Note_on_c, 15, 57, 100
21, 107577, Note_on_c, 15, 57, 0
21, 107580, Note_on_c, 15, 48, 100
21, 107637, Note_on_c, 15, 48, 0
21, 107640, Note_on_c, 15, 52, 100
21, 107757, Note_on_c, 15, 52, 0
21, 107760, Note_on_c, 15, 40, 100
21, 107817, Note_on_c, 15, 40, 0
21, 107820, Note_on_c, 15, 57, 100
21, 107937, Note_on_c, 15, 57, 0
21, 107940, Note_on_c, 15, 45, 100
21, 107997, Note_on_c, 15, 45, 0
21, 108000, Note_on_c, 15, 45, 100
21, 108117, Note_on_c, 15, 45, 0
21, 108120, Note_on_c, 15, 57, 100
21, 108177, Note_on_c, 15, 57, 0
21, 108180, Note_on_c, 15, 59, 100
21, 108297, Note_on_c, 15, 59, 0
21, 108300, Note_on_c, 15, 47, 100
21, 108357, Note_on_c, 15, 47, 0
21, 108360, Note_on_c, 15, 47, 100
21, 108477, Note_on_c, 15, 47, 0
21, 108480, Note_on_c, 15, 59, 100
21, 108537, Note_on_c, 15, 59, 0
21, 108540, Note_on_c, 15, 52, 100
21, 108657, Note_on_c, 15, 52, 0
21, 108660, Note_on_c, 15, 40, 100
21, 108717, Note_on_c, 15, 40, 0
21, 108720, Note_on_c, 15, 40, 100
21, 108837, Note_on_c, 15, 40, 0
21, 108840, Note_on_c, 15, 52, 100
21, 108897, Note_on_c, 15, 52, 0
21, 108900, Note_on_c, 15, 54, 100
21, 109017, Note_on_c, 15, 54, 0
21, 109020, Note_on_c, 15, 42, 100
21, 109077, Note_on_c, 15, 42, 0
21, 109080, Note_on_c, 15, 42, 100
21, 109197, Note_on_c, 15, 42, 0
21, 109200, Note_on_c, 15, 54, 100
21, 109257, Note_on_c, 15, 54, 0
21, 109260, Note_on_c, 15, 59, 100
21, 109377, Note_on_c, 15, 59, 0
21, 109380, Note_on_c, 15, 47, 100
21, 109437, Note_on_c, 15, 47, 0
21, 109440, Note_on_c, 15, 47, 100
21, 109557, Note_on_c, 15, 47, 0
21, 109560, Note_on_c, 15, 59, 100
21, 109617, Note_on_c, 15, 59, 0
21, 109620, Note_on_c, 15, 59, 100
21, 109737, Note_on_c, 15, 59, 0
21, 109740, Note_on_c, 15, 47, 100
21, 109797, Note_on_c, 15, 47, 0
21, 109800, Note_on_c, 15, 47, 100
21, 109917, Note_on_c, 15, 47, 0
21, 109920, Note_on_c, 15, 59, 100
21, 109977, Note_on_c, 15, 59, 0
21, 109980, Note_on_c, 15, 52, 100
21, 110097, Note_on_c, 15, 52, 0
21, 110100, Note_on_c, 15, 40, 100
21, 110157, Note_on_c, 15, 40, 0
21, 110160, Note_on_c, 15, 40, 100
21, 110277, Note_on_c, 15, 40, 0
21, 110280, Note_on_c, 15, 52, 100
21, 110337, Note_on_c, 15, 52, 0
21, 110340, Note_on_c, 15, 52, 100
21, 110457, Note_on_c, 15, 52, 0
21, 110460, Note_on_c, 15, 40, 100
21, 110517, Note_on_c, 15, 40, 0
21, 110520, Note_on_c, 15, 40, 100
21, 110637, Note_on_c, 15, 40, 0
21, 110640, Note_on_c, 15, 52, 100
21, 110697, Note_on_c, 15, 52, 0
21, 110700, Note_on_c, 15, 51, 100
21, 110817, Note_on_c, 15, 51, 0
21, 110820, Note_on_c, 15, 39, 100
21, 110877, Note_on_c, 15, 39, 0
21, 110880, Note_on_c, 15, 39, 100
21, 110997, Note_on_c, 15, 39, 0
21, 111000, Note_on_c, 15, 51, 100
21, 111057, Note_on_c, 15, 51, 0
21, 111060, Note_on_c, 15, 50, 100
21, 111177, Note_on_c, 15, 50, 0
21, 111180, Note_on_c, 15, 38, 100
21, 111237, Note_on_c, 15, 38, 0
21, 111240, Note_on_c, 15, 38, 100
21, 111357, Note_on_c, 15, 38, 0
21, 111360, Note_on_c, 15, 50, 100
21, 111417, Note_on_c, 15, 50, 0
21, 111420, Note_on_c, 15, 48, 100
21, 111537, Note_on_c, 15, 48, 0
21, 111540, Note_on_c, 15, 36, 100
21, 111597, Note_on_c, 15, 36, 0
21, 111600, Note_on_c, 15, 36, 100
21, 111717, Note_on_c, 15, 36, 0
21, 111720, Note_on_c, 15, 48, 100
21, 111777, Note_on_c, 15, 48, 0
21, 111780, Note_on_c, 15, 47, 100
21, 111897, Note_on_c, 15, 47, 0
21, 111900, Note_on_c, 15, 59, 100
21, 111957, Note_on_c, 15, 59, 0
21, 111960, Note_on_c, 15, 59, 100
21, 112077, Note_on_c, 15, 59, 0
21, 112080, Note_on_c, 15, 51, 100
21, 112137, Note_on_c, 15, 51, 0
21, 112140, Note_on_c, 15, 52, 100
21, 112257, Note_on_c, 15, 52, 0
21, 112260, Note_on_c, 15, 43, 100
21, 112317, Note_on_c, 15, 43, 0
21, 112320, Note_on_c, 15, 45, 100
21, 112437, Note_on_c, 15, 45, 0
21, 112440, Note_on_c, 15, 47, 100
21, 112497, Note_on_c, 15, 47, 0
21, 112500, Note_on_c, 15, 48, 100
21, 112557, Note_on_c, 15, 48, 0
21, 112560, Note_on_c, 15, 48, 100
21, 112617, Note_on_c, 15, 48, 0
21, 112620, Note_on_c, 15, 48, 100
21, 112677, Note_on_c, 15, 48, 0
21, 112680, Note_on_c, 15, 45, 100
21, 112737, Note_on_c, 15, 45, 0
21, 112740, Note_on_c, 15, 45, 100
21, 112797, Note_on_c, 15, 45, 0
21, 112800, Note_on_c, 15, 45, 100
21, 112857, Note_on_c, 15, 45, 0
21, 112860, Note_on_c, 15, 43, 100
21, 112917, Note_on_c, 15, 43, 0
21, 112920, Note_on_c, 15, 43, 100
21, 112977, Note_on_c, 15, 43, 0
21, 112980, Note_on_c, 15, 43, 100
21, 113037, Note_on_c, 15, 43, 0
21, 113040, Note_on_c, 15, 48, 100
21, 113097, Note_on_c, 15, 48, 0
21, 113100, Note_on_c, 15, 48, 100
21, 113157, Note_on_c, 15, 48, 0
21, 113160, Note_on_c, 15, 48, 100
21, 113217, Note_on_c, 15, 48, 0
21, 113220, Note_on_c, 15, 47, 100
21, 113277, Note_on_c, 15, 47, 0
21, 113280, Note_on_c, 15, 47, 100
21, 113337, Note_on_c, 15, 47, 0
21, 113340, Note_on_c, 15, 47, 100
21, 113397, Note_on_c, 15, 47, 0
21, 113400, Note_on_c, 15, 47, 100
21, 113457, Note_on_c, 15, 47, 0
21, 113460, Note_on_c, 15, 47, 100
21, 113517, Note_on_c, 15, 47, 0
21, 113520, Note_on_c, 15, 47, 100
21, 113577, Note_on_c, 15, 47, 0
21, 113580, Note_on_c, 15, 52, 100
21, 113697, Note_on_c, 15, 52, 0
21, 113700, Note_on_c, 15, 40, 100
21, 113757, Note_on_c, 15, 40, 0
21, 113760, Note_on_c, 15, 40, 100
21, 113877, Note_on_c, 15, 40, 0
21, 113880, Note_on_c, 15, 52, 100
21, 113937, Note_on_c, 15, 52, 0
21, 113940, Note_on_c, 15, 52, 100
21, 114057, Note_on_c, 15, 52, 0
21, 114060, Note_on_c, 15, 40, 100
21, 114117, Note_on_c, 15, 40, 0
21, 114120, Note_on_c, 15, 40, 100
21, 114237, Note_on_c, 15, 40, 0
21, 114240, Note_on_c, 15, 52, 100
21, 114297, Note_on_c, 15, 52, 0
21, 114300, Note_on_c, 15, 51, 100
21, 114417, Note_on_c, 15, 51, 0
21, 114420, Note_on_c, 15, 39, 100
21, 114477, Note_on_c, 15, 39, 0
21, 114480, Note_on_c, 15, 39, 100
21, 114597, Note_on_c, 15, 39, 0
21, 114600, Note_on_c, 15, 51, 100
21, 114657, Note_on_c, 15, 51, 0
21, 114660, Note_on_c, 15, 50, 100
21, 114777, Note_on_c, 15, 50, 0
21, 114780, Note_on_c, 15, 38, 100
21, 114837, Note_on_c, 15, 38, 0
21, 114840, Note_on_c, 15, 38, 100
21, 114957, Note_on_c, 15, 38, 0
21, 114960, Note_on_c, 15, 50, 100
21, 115017, Note_on_c, 15, 50, 0
21, 115020, Note_on_c, 15, 48, 100
21, 115137, Note_on_c, 15, 48, 0
21, 115140, Note_on_c, 15, 36, 100
21, 115197, Note_on_c, 15, 36, 0
21, 115200, Note_on_c, 15, 36, 100
21, 115317, Note_on_c, 15, 36, 0
21, 115320, Note_on_c, 15, 48, 100
21, 115377, Note_on_c, 15, 48, 0
21, 115380, Note_on_c, 15, 47, 100
21, 115497, Note_on_c, 15, 47, 0
21, 115500, Note_on_c, 15, 59, 100
21, 115557, Note_on_c, 15, 59, 0
21, 115560, Note_on_c, 15, 59, 100
21, 115677, Note_on_c, 15, 59, 0
21, 115680, Note_on_c, 15, 51, 100
21, 115737, Note_on_c, 15, 51, 0
21, 115740, Note_on_c, 15, 52, 100
21, 115857, Note_on_c, 15, 52, 0
21, 115860, Note_on_c, 15, 55, 100
21, 115917, Note_on_c, 15, 55, 0
21, 115920, Note_on_c, 15, 59, 100
21, 116037, Note_on_c, 15, 59, 0
21, 116040, Note_on_c, 15, 47, 100
21, 116097, Note_on_c, 15, 47, 0
21, 116100, Note_on_c, 15, 52, 100
21, 116337, Note_on_c, 15, 52, 0
21, 117180, Control_c, 15, 0, 0
21, 117180, Note_on_c, 15, 55, 100
21, 117220, Note_on_c, 15, 55, 0
21, 117240, Note_on_c, 15, 43, 100
21, 117280, Note_on_c, 15, 43, 0
21, 117330, Note_on_c, 15, 55, 100
21, 117350, Note_on_c, 15, 55, 0
21, 117360, Note_on_c, 15, 55, 100
21, 117380, Note_on_c, 15, 55, 0
21, 117390, Note_on_c, 15, 55, 100
21, 117410, Note_on_c, 15, 55, 0
21, 117420, Note_on_c, 15, 53, 100
21, 117460, Note_on_c, 15, 53, 0
21, 117480, Note_on_c, 15, 41, 100
21, 117520, Note_on_c, 15, 41, 0
21, 117570, Note_on_c, 15, 53, 100
21, 117590, Note_on_c, 15, 53, 0
21, 117600, Note_on_c, 15, 53, 100
21, 117620, Note_on_c, 15, 53, 0
21, 117630, Note_on_c, 15, 53, 100
21, 117650, Note_on_c, 15, 53, 0
21, 117660, Note_on_c, 15, 52, 100
21, 117700, Note_on_c, 15, 52, 0
21, 117720, Note_on_c, 15, 40, 100
21, 117760, Note_on_c, 15, 40, 0
21, 117810, Note_on_c, 15, 52, 100
21, 117830, Note_on_c, 15, 52, 0
21, 117840, Note_on_c, 15, 52, 100
21, 117860, Note_on_c, 15, 52, 0
21, 117870, Note_on_c, 15, 52, 100
21, 117890, Note_on_c, 15, 52, 0
21, 117900, Note_on_c, 15, 47, 100
21, 117940, Note_on_c, 15, 47, 0
21, 117960, Note_on_c, 15, 59, 100
21, 118000, Note_on_c, 15, 59, 0
21, 118050, Note_on_c, 15, 47, 100
21, 118070, Note_on_c, 15, 47, 0
21, 118080, Note_on_c, 15, 47, 100
21, 118100, Note_on_c, 15, 47, 0
21, 118110, Note_on_c, 15, 47, 100
21, 118130, Note_on_c, 15, 47, 0
21, 118140, Note_on_c, 15, 48, 100
21, 118180, Note_on_c, 15, 48, 0
21, 118200, Note_on_c, 15, 60, 100
21, 118240, Note_on_c, 15, 60, 0
21, 118290, Note_on_c, 15, 48, 100
21, 118310, Note_on_c, 15, 48, 0
21, 118320, Note_on_c, 15, 48, 100
21, 118340, Note_on_c, 15, 48, 0
21, 118350, Note_on_c, 15, 48, 100
21, 118370, Note_on_c, 15, 48, 0
21, 118380, Note_on_c, 15, 57, 100
21, 118420, Note_on_c, 15, 57, 0
21, 118440, Note_on_c, 15, 45, 100
21, 118480, Note_on_c, 15, 45, 0
21, 118530, Note_on_c, 15, 54, 100
21, 118550, Note_on_c, 15, 54, 0
21, 118560, Note_on_c, 15, 54, 100
21, 118580, Note_on_c, 15, 54, 0
21, 118590, Note_on_c, 15, 54, 100
21, 118610, Note_on_c, 15, 54, 0
21, 118620, Note_on_c, 15, 55, 100
21, 118678, Note_on_c, 15, 55, 0
21, 118680, Note_on_c, 15, 43, 100
21, 118738, Note_on_c, 15, 43, 0
21, 118770, Note_on_c, 15, 59, 100
21, 118798, Note_on_c, 15, 59, 0
21, 118800, Note_on_c, 15, 59, 100
21, 118828, Note_on_c, 15, 59, 0
21, 118830, Note_on_c, 15, 59, 100
21, 118858, Note_on_c, 15, 59, 0
21, 118860, Note_on_c, 15, 52, 100
21, 118918, Note_on_c, 15, 52, 0
21, 118920, Note_on_c, 15, 40, 100
21, 118978, Note_on_c, 15, 40, 0
21, 119010, Note_on_c, 15, 57, 100
21, 119038, Note_on_c, 15, 57, 0
21, 119040, Note_on_c, 15, 57, 100
21, 119068, Note_on_c, 15, 57, 0
21, 119070, Note_on_c, 15, 57, 100
21, 119098, Note_on_c, 15, 57, 0
21, 119100, Note_on_c, 15, 50, 100
21, 119158, Note_on_c, 15, 50, 0
21, 119160, Note_on_c, 15, 38, 100
21, 119218, Note_on_c, 15, 38, 0
21, 119250, Note_on_c, 15, 50, 100
21, 119278, Note_on_c, 15, 50, 0
21, 119280, Note_on_c, 15, 50, 100
21, 119308, Note_on_c, 15, 50, 0
21, 119310, Note_on_c, 15, 50, 100
21, 119338, Note_on_c, 15, 50, 0
21, 119340, Note_on_c, 15, 48, 100
21, 119398, Note_on_c, 15, 48, 0
21, 119400, Note_on_c, 15, 36, 100
21, 119458, Note_on_c, 15, 36, 0
21, 119490, Note_on_c, 15, 48, 100
21, 119518, Note_on_c, 15, 48, 0
21, 119520, Note_on_c, 15, 48, 100
21, 119548, Note_on_c, 15, 48, 0
21, 119550, Note_on_c, 15, 48, 100
21, 119578, Note_on_c, 15, 48, 0
21, 119580, Note_on_c, 15, 47, 100
21, 119638, Note_on_c, 15, 47, 0
21, 119640, Note_on_c, 15, 59, 100
21, 119698, Note_on_c, 15, 59, 0
21, 119730, Note_on_c, 15, 47, 100
21, 119758, Note_on_c, 15, 47, 0
21, 119760, Note_on_c, 15, 47, 100
21, 119788, Note_on_c, 15, 47, 0
21, 119790, Note_on_c, 15, 47, 100
21, 119818, Note_on_c, 15, 47, 0
21, 119820, Note_on_c, 15, 42, 100
21, 119878, Note_on_c, 15, 42, 0
21, 119880, Note_on_c, 15, 54, 100
21, 119938, Note_on_c, 15, 54, 0
21, 119970, Note_on_c, 15, 54, 100
21, 119998, Note_on_c, 15, 54, 0
21, 120000, Note_on_c, 15, 54, 100
21, 120028, Note_on_c, 15, 54, 0
21, 120030, Note_on_c, 15, 54, 100
21, 120058, Note_on_c, 15, 54, 0
21, 120060, Note_on_c, 15, 55, 100
21, 120118, Note_on_c, 15, 55, 0
21, 120120, Note_on_c, 15, 43, 100
21, 120178, Note_on_c, 15, 43, 0
21, 120210, Note_on_c, 15, 50, 100
21, 120238, Note_on_c, 15, 50, 0
21, 120240, Note_on_c, 15, 50, 100
21, 120268, Note_on_c, 15, 50, 0
21, 120270, Note_on_c, 15, 50, 100
21, 120298, Note_on_c, 15, 50, 0
21, 120300, Note_on_c, 15, 52, 100
21, 120358, Note_on_c, 15, 52, 0
21, 120360, Note_on_c, 15, 40, 100
21, 120418, Note_on_c, 15, 40, 0
21, 120450, Note_on_c, 15, 45, 100
21, 120478, Note_on_c, 15, 45, 0
21, 120480, Note_on_c, 15, 45, 100
21, 120508, Note_on_c, 15, 45, 0
21, 120510, Note_on_c, 15, 45, 100
21, 120538, Note_on_c, 15, 45, 0
21, 120540, Note_on_c, 15, 50, 100
21, 120598, Note_on_c, 15, 50, 0
21, 120600, Note_on_c, 15, 38, 100
21, 120658, Note_on_c, 15, 38, 0
21, 120690, Note_on_c, 15, 43, 100
21, 120718, Note_on_c, 15, 43, 0
21, 120720, Note_on_c, 15, 43, 100
21, 120748, Note_on_c, 15, 43, 0
21, 120750, Note_on_c, 15, 43, 100
21, 120778, Note_on_c, 15, 43, 0
21, 120780, Note_on_c, 15, 48, 100
21, 120838, Note_on_c, 15, 48, 0
21, 120840, Note_on_c, 15, 36, 100
21, 120898, Note_on_c, 15, 36, 0
21, 120930, Note_on_c, 15, 50, 100
21, 120958, Note_on_c, 15, 50, 0
21, 120960, Note_on_c, 15, 50, 100
21, 120988, Note_on_c, 15, 50, 0
21, 120990, Note_on_c, 15, 50, 100
21, 121018, Note_on_c, 15, 50, 0
21, 121020, Note_on_c, 15, 55, 100
21, 121078, Note_on_c, 15, 55, 0
21, 121080, Note_on_c, 15, 43, 100
21, 121138, Note_on_c, 15, 43, 0
21, 121170, Note_on_c, 15, 55, 100
21, 121198, Note_on_c, 15, 55, 0
21, 121200, Note_on_c, 15, 55, 100
21, 121228, Note_on_c, 15, 55, 0
21, 121230, Note_on_c, 15, 55, 100
21, 121258, Note_on_c, 15, 55, 0
21, 121260, Note_on_c, 15, 53, 100
21, 121318, Note_on_c, 15, 53, 0
21, 121320, Note_on_c, 15, 41, 100
21, 121378, Note_on_c, 15, 41, 0
21, 121410, Note_on_c, 15, 53, 100
21, 121438, Note_on_c, 15, 53, 0
21, 121440, Note_on_c, 15, 53, 100
21, 121468, Note_on_c, 15, 53, 0
21, 121470, Note_on_c, 15, 53, 100
21, 121498, Note_on_c, 15, 53, 0
21, 121500, Note_on_c, 15, 52, 100
21, 121558, Note_on_c, 15, 52, 0
21, 121560, Note_on_c, 15, 40, 100
21, 121618, Note_on_c, 15, 40, 0
21, 121650, Note_on_c, 15, 52, 100
21, 121678, Note_on_c, 15, 52, 0
21, 121680, Note_on_c, 15, 52, 100
21, 121708, Note_on_c, 15, 52, 0
21, 121710, Note_on_c, 15, 52, 100
21, 121738, Note_on_c, 15, 52, 0
21, 121740, Note_on_c, 15, 47, 100
21, 121798, Note_on_c, 15, 47, 0
21, 121800, Note_on_c, 15, 59, 100
21, 121858, Note_on_c, 15, 59, 0
21, 121890, Note_on_c, 15, 47, 100
21, 121918, Note_on_c, 15, 47, 0
21, 121920, Note_on_c, 15, 47, 100
21, 121948, Note_on_c, 15, 47, 0
21, 121950, Note_on_c, 15, 47, 100
21, 121978, Note_on_c, 15, 47, 0
21, 121980, Note_on_c, 15, 48, 100
21, 122038, Note_on_c, 15, 48, 0
21, 122040, Note_on_c, 15, 36, 100
21, 122098, Note_on_c, 15, 36, 0
21, 122130, Note_on_c, 15, 55, 100
21, 122158, Note_on_c, 15, 55, 0
21, 122160, Note_on_c, 15, 55, 100
21, 122188, Note_on_c, 15, 55, 0
21, 122190, Note_on_c, 15, 55, 100
21, 122218, Note_on_c, 15, 55, 0
21, 122220, Note_on_c, 15, 57, 100
21, 122278, Note_on_c, 15, 57, 0
21, 122280, Note_on_c, 15, 45, 100
21, 122338, Note_on_c, 15, 45, 0
21, 122370, Note_on_c, 15, 50, 100
21, 122398, Note_on_c, 15, 50, 0
21, 122400, Note_on_c, 15, 50, 100
21, 122428, Note_on_c, 15, 50, 0
21, 122430, Note_on_c, 15, 50, 100
21, 122458, Note_on_c, 15, 50, 0
21, 122460, Note_on_c, 15, 55, 100
21, 122518, Note_on_c, 15, 55, 0
21, 122520, Note_on_c, 15, 43, 100
21, 122578, Note_on_c, 15, 43, 0
21, 122610, Note_on_c, 15, 60, 100
21, 122638, Note_on_c, 15, 60, 0
21, 122640, Note_on_c, 15, 60, 100
21, 122668, Note_on_c, 15, 60, 0
21, 122670, Note_on_c, 15, 60, 100
21, 122698, Note_on_c, 15, 60, 0
21, 122700, Note_on_c, 15, 59, 100
21, 122758, Note_on_c, 15, 59, 0
21, 122760, Note_on_c, 15, 47, 100
21, 122818, Note_on_c, 15, 47, 0
21, 122850, Note_on_c, 15, 57, 100
21, 122878, Note_on_c, 15, 57, 0
21, 122880, Note_on_c, 15, 57, 100
21, 122908, Note_on_c, 15, 57, 0
21, 122910, Note_on_c, 15, 57, 100
21, 122938, Note_on_c, 15, 57, 0
21, 122940, Note_on_c, 15, 50, 100
21, 122998, Note_on_c, 15, 50, 0
21, 123000, Note_on_c, 15, 38, 100
21, 123058, Note_on_c, 15, 38, 0
21, 123090, Note_on_c, 15, 50, 100
21, 123118, Note_on_c, 15, 50, 0
21, 123120, Note_on_c, 15, 50, 100
21, 123148, Note_on_c, 15, 50, 0
21, 123150, Note_on_c, 15, 50, 100
21, 123178, Note_on_c, 15, 50, 0
21, 123180, Note_on_c, 15, 48, 100
21, 123238, Note_on_c, 15, 48, 0
21, 123240, Note_on_c, 15, 36, 100
21, 123298, Note_on_c, 15, 36, 0
21, 123330, Note_on_c, 15, 48, 100
21, 123358, Note_on_c, 15, 48, 0
21, 123360, Note_on_c, 15, 48, 100
21, 123388, Note_on_c, 15, 48, 0
21, 123390, Note_on_c, 15, 48, 100
21, 123418, Note_on_c, 15, 48, 0
21, 123420, Note_on_c, 15, 47, 100
21, 123478, Note_on_c, 15, 47, 0
21, 123480, Note_on_c, 15, 59, 100
21, 123538, Note_on_c, 15, 59, 0
21, 123570, Note_on_c, 15, 47, 100
21, 123598, Note_on_c, 15, 47, 0
21, 123600, Note_on_c, 15, 47, 100
21, 123628, Note_on_c, 15, 47, 0
21, 123630, Note_on_c, 15, 47, 100
21, 123658, Note_on_c, 15, 47, 0
21, 123660, Note_on_c, 15, 42, 100
21, 123718, Note_on_c, 15, 42, 0
21, 123720, Note_on_c, 15, 54, 100
21, 123778, Note_on_c, 15, 54, 0
21, 123810, Note_on_c, 15, 42, 100
21, 123838, Note_on_c, 15, 42, 0
21, 123840, Note_on_c, 15, 42, 100
21, 123868, Note_on_c, 15, 42, 0
21, 123870, Note_on_c, 15, 42, 100
21, 123898, Note_on_c, 15, 42, 0
21, 123900, Note_on_c, 15, 43, 100
21, 123958, Note_on_c, 15, 43, 0
21, 123960, Note_on_c, 15, 55, 100
21, 124018, Note_on_c, 15, 55, 0
21, 124050, Note_on_c, 15, 50, 100
21, 124078, Note_on_c, 15, 50, 0
21, 124080, Note_on_c, 15, 50, 100
21, 124108, Note_on_c, 15, 50, 0
21, 124110, Note_on_c, 15, 50, 100
21, 124138, Note_on_c, 15, 50, 0
21, 124140, Note_on_c, 15, 52, 100
21, 124198, Note_on_c, 15, 52, 0
21, 124200, Note_on_c, 15, 40, 100
21, 124258, Note_on_c, 15, 40, 0
21, 124290, Note_on_c, 15, 45, 100
21, 124318, Note_on_c, 15, 45, 0
21, 124320, Note_on_c, 15, 45, 100
21, 124348, Note_on_c, 15, 45, 0
21, 124350, Note_on_c, 15, 45, 100
21, 124378, Note_on_c, 15, 45, 0
21, 124380, Note_on_c, 15, 50, 100
21, 124438, Note_on_c, 15, 50, 0
21, 124440, Note_on_c, 15, 38, 100
21, 124498, Note_on_c, 15, 38, 0
21, 124530, Note_on_c, 15, 55, 100
21, 124558, Note_on_c, 15, 55, 0
21, 124560, Note_on_c, 15, 55, 100
21, 124588, Note_on_c, 15, 55, 0
21, 124590, Note_on_c, 15, 55, 100
21, 124618, Note_on_c, 15, 55, 0
21, 124620, Note_on_c, 15, 54, 100
21, 124678, Note_on_c, 15, 54, 0
21, 124680, Note_on_c, 15, 42, 100
21, 124738, Note_on_c, 15, 42, 0
21, 124770, Note_on_c, 15, 52, 100
21, 124798, Note_on_c, 15, 52, 0
21, 124800, Note_on_c, 15, 52, 100
21, 124828, Note_on_c, 15, 52, 0
21, 124830, Note_on_c, 15, 52, 100
21, 124858, Note_on_c, 15, 52, 0
21, 124860, Note_on_c, 15, 57, 100
21, 124918, Note_on_c, 15, 57, 0
21, 124920, Note_on_c, 15, 45, 100
21, 124978, Note_on_c, 15, 45, 0
21, 125010, Note_on_c, 15, 57, 100
21, 125038, Note_on_c, 15, 57, 0
21, 125040, Note_on_c, 15, 57, 100
21, 125068, Note_on_c, 15, 57, 0
21, 125070, Note_on_c, 15, 57, 100
21, 125098, Note_on_c, 15, 57, 0
21, 125100, Note_on_c, 15, 55, 100
21, 125158, Note_on_c, 15, 55, 0
21, 125160, Note_on_c, 15, 43, 100
21, 125218, Note_on_c, 15, 43, 0
21, 125250, Note_on_c, 15, 55, 100
21, 125278, Note_on_c, 15, 55, 0
21, 125280, Note_on_c, 15, 55, 100
21, 125308, Note_on_c, 15, 55, 0
21, 125310, Note_on_c, 15, 55, 100
21, 125338, Note_on_c, 15, 55, 0
21, 125340, Note_on_c, 15, 54, 100
21, 125398, Note_on_c, 15, 54, 0
21, 125400, Note_on_c, 15, 42, 100
21, 125458, Note_on_c, 15, 42, 0
21, 125490, Note_on_c, 15, 54, 100
21, 125518, Note_on_c, 15, 54, 0
21, 125520, Note_on_c, 15, 54, 100
21, 125548, Note_on_c, 15, 54, 0
21, 125550, Note_on_c, 15, 54, 100
21, 125578, Note_on_c, 15, 54, 0
21, 125580, Note_on_c, 15, 49, 100
21, 125638, Note_on_c, 15, 49, 0
21, 125640, Note_on_c, 15, 37, 100
21, 125698, Note_on_c, 15, 37, 0
21, 125730, Note_on_c, 15, 49, 100
21, 125758, Note_on_c, 15, 49, 0
21, 125760, Note_on_c, 15, 49, 100
21, 125788, Note_on_c, 15, 49, 0
21, 125790, Note_on_c, 15, 49, 100
21, 125818, Note_on_c, 15, 49, 0
21, 125820, Note_on_c, 15, 50, 100
21, 125878, Note_on_c, 15, 50, 0
21, 125880, Note_on_c, 15, 38, 100
21, 125938, Note_on_c, 15, 38, 0
21, 125970, Note_on_c, 15, 45, 100
21, 125998, Note_on_c, 15, 45, 0
21, 126000, Note_on_c, 15, 45, 100
21, 126028, Note_on_c, 15, 45, 0
21, 126030, Note_on_c, 15, 45, 100
21, 126058, Note_on_c, 15, 45, 0
21, 126060, Note_on_c, 15, 47, 100
21, 126118, Note_on_c, 15, 47, 0
21, 126120, Note_on_c, 15, 59, 100
21, 126178, Note_on_c, 15, 59, 0
21, 126210, Note_on_c, 15, 40, 100
21, 126238, Note_on_c, 15, 40, 0
21, 126240, Note_on_c, 15, 40, 100
21, 126268, Note_on_c, 15, 40, 0
21, 126270, Note_on_c, 15, 40, 100
21, 126298, Note_on_c, 15, 40, 0
21, 126300, Note_on_c, 15, 45, 100
21, 126358, Note_on_c, 15, 45, 0
21, 126360, Note_on_c, 15, 57, 100
21, 126418, Note_on_c, 15, 57, 0
21, 126450, Note_on_c, 15, 54, 100
21, 126478, Note_on_c, 15, 54, 0
21, 126480, Note_on_c, 15, 54, 100
21, 126508, Note_on_c, 15, 54, 0
21, 126510, Note_on_c, 15, 54, 100
21, 126538, Note_on_c, 15, 54, 0
21, 126540, Note_on_c, 15, 55, 100
21, 126598, Note_on_c, 15, 55, 0
21, 126600, Note_on_c, 15, 43, 100
21, 126658, Note_on_c, 15, 43, 0
21, 126690, Note_on_c, 15, 52, 100
21, 126718, Note_on_c, 15, 52, 0
21, 126720, Note_on_c, 15, 52, 100
21, 126748, Note_on_c, 15, 52, 0
21, 126750, Note_on_c, 15, 52, 100
21, 126778, Note_on_c, 15, 52, 0
21, 126780, Note_on_c, 15, 50, 100
21, 126838, Note_on_c, 15, 50, 0
21, 126840, Note_on_c, 15, 38, 100
21, 126898, Note_on_c, 15, 38, 0
21, 126930, Note_on_c, 15, 62, 100
21, 126958, Note_on_c, 15, 62, 0
21, 126960, Note_on_c, 15, 62, 100
21, 126988, Note_on_c, 15, 62, 0
21, 126990, Note_on_c, 15, 62, 100
21, 127018, Note_on_c, 15, 62, 0
21, 127020, Note_on_c, 15, 60, 100
21, 127078, Note_on_c, 15, 60, 0
21, 127080, Note_on_c, 15, 48, 100
21, 127138, Note_on_c, 15, 48, 0
21, 127170, Note_on_c, 15, 60, 100
21, 127198, Note_on_c, 15, 60, 0
21, 127200, Note_on_c, 15, 60, 100
21, 127228, Note_on_c, 15, 60, 0
21, 127230, Note_on_c, 15, 60, 100
21, 127258, Note_on_c, 15, 60, 0
21, 127260, Note_on_c, 15, 59, 100
21, 127318, Note_on_c, 15, 59, 0
21, 127320, Note_on_c, 15, 47, 100
21, 127378, Note_on_c, 15, 47, 0
21, 127410, Note_on_c, 15, 59, 100
21, 127438, Note_on_c, 15, 59, 0
21, 127440, Note_on_c, 15, 59, 100
21, 127468, Note_on_c, 15, 59, 0
21, 127470, Note_on_c, 15, 59, 100
21, 127498, Note_on_c, 15, 59, 0
21, 127500, Note_on_c, 15, 54, 100
21, 127558, Note_on_c, 15, 54, 0
21, 127560, Note_on_c, 15, 45, 100
21, 127618, Note_on_c, 15, 45, 0
21, 127650, Note_on_c, 15, 54, 100
21, 127678, Note_on_c, 15, 54, 0
21, 127680, Note_on_c, 15, 54, 100
21, 127708, Note_on_c, 15, 54, 0
21, 127710, Note_on_c, 15, 54, 100
21, 127738, Note_on_c, 15, 54, 0
21, 127740, Note_on_c, 15, 55, 100
21, 127798, Note_on_c, 15, 55, 0
21, 127800, Note_on_c, 15, 43, 100
21, 127858, Note_on_c, 15, 43, 0
21, 127890, Note_on_c, 15, 50, 100
21, 127918, Note_on_c, 15, 50, 0
21, 127920, Note_on_c, 15, 50, 100
21, 127948, Note_on_c, 15, 50, 0
21, 127950, Note_on_c, 15, 50, 100
21, 127978, Note_on_c, 15, 50, 0
21, 127980, Note_on_c, 15, 52, 100
21, 128038, Note_on_c, 15, 52, 0
21, 128040, Note_on_c, 15, 40, 100
21, 128098, Note_on_c, 15, 40, 0
21, 128130, Note_on_c, 15, 45, 100
21, 128158, Note_on_c, 15, 45, 0
21, 128160, Note_on_c, 15, 45, 100
21, 128188, Note_on_c, 15, 45, 0
21, 128190, Note_on_c, 15, 45, 100
21, 128218, Note_on_c, 15, 45, 0
21, 128220, Note_on_c, 15, 50, 100
21, 128278, Note_on_c, 15, 50, 0
21, 128280, Note_on_c, 15, 38, 100
21, 128338, Note_on_c, 15, 38, 0
21, 128370, Note_on_c, 15, 55, 100
21, 128398, Note_on_c, 15, 55, 0
21, 128400, Note_on_c, 15, 55, 100
21, 128428, Note_on_c, 15, 55, 0
21, 128430, Note_on_c, 15, 55, 100
21, 128458, Note_on_c, 15, 55, 0
21, 128460, Note_on_c, 15, 54, 100
21, 128518, Note_on_c, 15, 54, 0
21, 128520, Note_on_c, 15, 42, 100
21, 128578, Note_on_c, 15, 42, 0
21, 128610, Note_on_c, 15, 52, 100
21, 128638, Note_on_c, 15, 52, 0
21, 128640, Note_on_c, 15, 52, 100
21, 128668, Note_on_c, 15, 52, 0
21, 128670, Note_on_c, 15, 52, 100
21, 128698, Note_on_c, 15, 52, 0
21, 128700, Note_on_c, 15, 57, 100
21, 128758, Note_on_c, 15, 57, 0
21, 128760, Note_on_c, 15, 45, 100
21, 128818, Note_on_c, 15, 45, 0
21, 128850, Note_on_c, 15, 54, 100
21, 128878, Note_on_c, 15, 54, 0
21, 128880, Note_on_c, 15, 54, 100
21, 128908, Note_on_c, 15, 54, 0
21, 128910, Note_on_c, 15, 54, 100
21, 128938, Note_on_c, 15, 54, 0
21, 128940, Note_on_c, 15, 52, 100
21, 128998, Note_on_c, 15, 52, 0
21, 129000, Note_on_c, 15, 40, 100
21, 129058, Note_on_c, 15, 40, 0
21, 129090, Note_on_c, 15, 49, 100
21, 129118, Note_on_c, 15, 49, 0
21, 129120, Note_on_c, 15, 49, 100
21, 129148, Note_on_c, 15, 49, 0
21, 129150, Note_on_c, 15, 49, 100
21, 129178, Note_on_c, 15, 49, 0
21, 129180, Note_on_c, 15, 47, 100
21, 129238, Note_on_c, 15, 47, 0
21, 129240, Note_on_c, 15, 59, 100
21, 129298, Note_on_c, 15, 59, 0
21, 129330, Note_on_c, 15, 55, 100
21, 129358, Note_on_c, 15, 55, 0
21, 129360, Note_on_c, 15, 55, 100
21, 129388, Note_on_c, 15, 55, 0
21, 129390, Note_on_c, 15, 55, 100
21, 129418, Note_on_c, 15, 55, 0
21, 129420, Note_on_c, 15, 54, 100
21, 129478, Note_on_c, 15, 54, 0
21, 129480, Note_on_c, 15, 42, 100
21, 129538, Note_on_c, 15, 42, 0
21, 129570, Note_on_c, 15, 47, 100
21, 129598, Note_on_c, 15, 47, 0
21, 129600, Note_on_c, 15, 50, 100
21, 129628, Note_on_c, 15, 50, 0
21, 129630, Note_on_c, 15, 47, 100
21, 129658, Note_on_c, 15, 47, 0
21, 129660, Note_on_c, 15, 52, 100
21, 129718, Note_on_c, 15, 52, 0
21, 129720, Note_on_c, 15, 40, 100
21, 129778, Note_on_c, 15, 40, 0
21, 129810, Note_on_c, 15, 45, 100
21, 129838, Note_on_c, 15, 45, 0
21, 129840, Note_on_c, 15, 49, 100
21, 129868, Note_on_c, 15, 49, 0
21, 129870, Note_on_c, 15, 52, 100
21, 129898, Note_on_c, 15, 52, 0
21, 129900, Note_on_c, 15, 57, 100
21, 129958, Note_on_c, 15, 57, 0
21, 129960, Note_on_c, 15, 45, 100
21, 130018, Note_on_c, 15, 45, 0
21, 130290, Note_on_c, 15, 52, 100
21, 130318, Note_on_c, 15, 52, 0
21, 130320, Note_on_c, 15, 49, 100
21, 130348, Note_on_c, 15, 49, 0
21, 130350, Note_on_c, 15, 45, 100
21, 130378, Note_on_c, 15, 45, 0
21, 130380, Note_on_c, 15, 41, 100
21, 130438, Note_on_c, 15, 41, 0
21, 130440, Note_on_c, 15, 53, 100
21, 130498, Note_on_c, 15, 53, 0
21, 130740, Note_on_c, 15, 42, 100
21, 130978, Note_on_c, 15, 42, 0
21, 130980, Note_on_c, 15, 42, 100
21, 131098, Note_on_c, 15, 42, 0
21, 131100, Note_on_c, 15, 43, 100
21, 131338, Note_on_c, 15, 43, 0
21, 131340, Note_on_c, 15, 44, 100
21, 131578, Note_on_c, 15, 44, 0
21, 131580, Note_on_c, 15, 42, 100
21, 132058, Note_on_c, 15, 42, 0
21, 132060, Note_on_c, 15, 47, 100
21, 132178, Note_on_c, 15, 47, 0
21, 132180, Note_on_c, 15, 47, 100
21, 132418, Note_on_c, 15, 47, 0
21, 132420, Note_on_c, 15, 40, 100
21, 132538, Note_on_c, 15, 40, 0
21, 132540, Note_on_c, 15, 45, 100
21, 132778, Note_on_c, 15, 45, 0
21, 132780, Note_on_c, 15, 44, 100
21, 133018, Note_on_c, 15, 44, 0
21, 133020, Note_on_c, 15, 45, 100
21, 133498, Note_on_c, 15, 45, 0
21, 133500, Note_on_c, 15, 38, 100
21, 133978, Note_on_c, 15, 38, 0
21, 134460, Control_c, 15, 0, 0
21, 134820, Note_on_c, 15, 42, 100
21, 134938, Note_on_c, 15, 42, 0
21, 134940, Note_on_c, 15, 45, 100
21, 135058, Note_on_c, 15, 45, 0
21, 135060, Note_on_c, 15, 49, 100
21, 135178, Note_on_c, 15, 49, 0
21, 135180, Note_on_c, 15, 54, 100
21, 135358, Note_on_c, 15, 54, 0
21, 135360, Note_on_c, 15, 56, 100
21, 135388, Note_on_c, 15, 56, 0
21, 135390, Note_on_c, 15, 57, 100
21, 135418, Note_on_c, 15, 57, 0
21, 135420, Note_on_c, 15, 56, 100
21, 135448, Note_on_c, 15, 56, 0
21, 135450, Note_on_c, 15, 54, 100
21, 135478, Note_on_c, 15, 54, 0
21, 135480, Note_on_c, 15, 53, 100
21, 135508, Note_on_c, 15, 53, 0
21, 135510, Note_on_c, 15, 51, 100
21, 135538, Note_on_c, 15, 51, 0
21, 135540, Note_on_c, 15, 49, 100
21, 135658, Note_on_c, 15, 49, 0
21, 135660, Note_on_c, 15, 53, 100
21, 135778, Note_on_c, 15, 53, 0
21, 135780, Note_on_c, 15, 56, 100
21, 135898, Note_on_c, 15, 56, 0
21, 135900, Note_on_c, 15, 59, 100
21, 136078, Note_on_c, 15, 59, 0
21, 136080, Note_on_c, 15, 61, 100
21, 136108, Note_on_c, 15, 61, 0
21, 136110, Note_on_c, 15, 62, 100
21, 136138, Note_on_c, 15, 62, 0
21, 136140, Note_on_c, 15, 61, 100
21, 136168, Note_on_c, 15, 61, 0
21, 136170, Note_on_c, 15, 59, 100
21, 136198, Note_on_c, 15, 59, 0
21, 136200, Note_on_c, 15, 57, 100
21, 136228, Note_on_c, 15, 57, 0
21, 136230, Note_on_c, 15, 56, 100
21, 136258, Note_on_c, 15, 56, 0
21, 136260, Note_on_c, 15, 54, 100
21, 136340, Note_on_c, 15, 54, 0
21, 136380, Note_on_c, 15, 52, 100
21, 136460, Note_on_c, 15, 52, 0
21, 136500, Note_on_c, 15, 50, 100
21, 136580, Note_on_c, 15, 50, 0
21, 136620, Note_on_c, 15, 49, 100
21, 136660, Note_on_c, 15, 49, 0
21, 136680, Note_on_c, 15, 53, 100
21, 136700, Note_on_c, 15, 53, 0
21, 136710, Note_on_c, 15, 56, 100
21, 136730, Note_on_c, 15, 56, 0
21, 136740, Note_on_c, 15, 61, 100
21, 136780, Note_on_c, 15, 61, 0
21, 136800, Note_on_c, 15, 49, 100
21, 136820, Note_on_c, 15, 49, 0
21, 136830, Note_on_c, 15, 61, 100
21, 136850, Note_on_c, 15, 61, 0
21, 136860, Note_on_c, 15, 59, 100
21, 136900, Note_on_c, 15, 59, 0
21, 136920, Note_on_c, 15, 49, 100
21, 136940, Note_on_c, 15, 49, 0
21, 136950, Note_on_c, 15, 59, 100
21, 136970, Note_on_c, 15, 59, 0
21, 136980, Note_on_c, 15, 57, 100
21, 137020, Note_on_c, 15, 57, 0
21, 137040, Note_on_c, 15, 49, 100
21, 137060, Note_on_c, 15, 49, 0
21, 137070, Note_on_c, 15, 57, 100
21, 137090, Note_on_c, 15, 57, 0
21, 137100, Note_on_c, 15, 56, 100
21, 137140, Note_on_c, 15, 56, 0
21, 137160, Note_on_c, 15, 49, 100
21, 137180, Note_on_c, 15, 49, 0
21, 137190, Note_on_c, 15, 56, 100
21, 137210, Note_on_c, 15, 56, 0
21, 137220, Note_on_c, 15, 54, 100
21, 137260, Note_on_c, 15, 54, 0
21, 137280, Note_on_c, 15, 49, 100
21, 137300, Note_on_c, 15, 49, 0
21, 137310, Note_on_c, 15, 54, 100
21, 137330, Note_on_c, 15, 54, 0
21, 137340, Note_on_c, 15, 53, 100
21, 137488, Note_on_c, 15, 53, 0
21, 137490, Note_on_c, 15, 49, 100
21, 137518, Note_on_c, 15, 49, 0
21, 137520, Note_on_c, 15, 51, 100
21, 137548, Note_on_c, 15, 51, 0
21, 137550, Note_on_c, 15, 53, 100
21, 137578, Note_on_c, 15, 53, 0
21, 137580, Note_on_c, 15, 54, 100
21, 137608, Note_on_c, 15, 54, 0
21, 137610, Note_on_c, 15, 56, 100
21, 137638, Note_on_c, 15, 56, 0
21, 137640, Note_on_c, 15, 57, 100
21, 137668, Note_on_c, 15, 57, 0
21, 137670, Note_on_c, 15, 54, 100
21, 137698, Note_on_c, 15, 54, 0
21, 137700, Note_on_c, 15, 47, 100
21, 137818, Note_on_c, 15, 47, 0
21, 138060, Note_on_c, 15, 49, 100
21, 138140, Note_on_c, 15, 49, 0
21, 138420, Note_on_c, 15, 50, 100
21, 138500, Note_on_c, 15, 50, 0
21, 138780, Note_on_c, 15, 41, 100
21, 138840, Note_on_c, 15, 41, 0
21, 138870, Note_on_c, 15, 44, 100
21, 138880, Note_on_c, 15, 44, 0
21, 138885, Note_on_c, 15, 45, 100
21, 138895, Note_on_c, 15, 45, 0
21, 138900, Note_on_c, 15, 47, 100
21, 138940, Note_on_c, 15, 47, 0
21, 139080, Note_on_c, 15, 44, 100
21, 139120, Note_on_c, 15, 44, 0
21, 139140, Note_on_c, 15, 45, 100
21, 139200, Note_on_c, 15, 45, 0
21, 139230, Note_on_c, 15, 47, 100
21, 139250, Note_on_c, 15, 47, 0
21, 139260, Note_on_c, 15, 49, 100
21, 139340, Note_on_c, 15, 49, 0
21, 139380, Note_on_c, 15, 37, 100
21, 139440, Note_on_c, 15, 37, 0
21, 139470, Note_on_c, 15, 54, 100
21, 139490, Note_on_c, 15, 54, 0
21, 139500, Note_on_c, 15, 54, 100
21, 139620, Note_on_c, 15, 54, 0
21, 139680, Note_on_c, 15, 52, 100
21, 139700, Note_on_c, 15, 52, 0
21, 139710, Note_on_c, 15, 50, 100
21, 139730, Note_on_c, 15, 50, 0
21, 139740, Note_on_c, 15, 49, 100
21, 139760, Note_on_c, 15, 49, 0
21, 139770, Note_on_c, 15, 47, 100
21, 139790, Note_on_c, 15, 47, 0
21, 139800, Note_on_c, 15, 45, 100
21, 139820, Note_on_c, 15, 45, 0
21, 139830, Note_on_c, 15, 44, 100
21, 139850, Note_on_c, 15, 44, 0
21, 139860, Note_on_c, 15, 42, 100
21, 139978, Note_on_c, 15, 42, 0
21, 139980, Note_on_c, 15, 45, 100
21, 140098, Note_on_c, 15, 45, 0
21, 140100, Note_on_c, 15, 49, 100
21, 140218, Note_on_c, 15, 49, 0
21, 140220, Note_on_c, 15, 54, 100
21, 140398, Note_on_c, 15, 54, 0
21, 140400, Note_on_c, 15, 56, 100
21, 140428, Note_on_c, 15, 56, 0
21, 140430, Note_on_c, 15, 57, 100
21, 140458, Note_on_c, 15, 57, 0
21, 140460, Note_on_c, 15, 56, 100
21, 140488, Note_on_c, 15, 56, 0
21, 140490, Note_on_c, 15, 54, 100
21, 140518, Note_on_c, 15, 54, 0
21, 140520, Note_on_c, 15, 53, 100
21, 140548, Note_on_c, 15, 53, 0
21, 140550, Note_on_c, 15, 51, 100
21, 140578, Note_on_c, 15, 51, 0
21, 140580, Note_on_c, 15, 49, 100
21, 140698, Note_on_c, 15, 49, 0
21, 140700, Note_on_c, 15, 53, 100
21, 140818, Note_on_c, 15, 53, 0
21, 140820, Note_on_c, 15, 56, 100
21, 140938, Note_on_c, 15, 56, 0
21, 140940, Note_on_c, 15, 59, 100
21, 141118, Note_on_c, 15, 59, 0
21, 141120, Note_on_c, 15, 61, 100
21, 141148, Note_on_c, 15, 61, 0
21, 141150, Note_on_c, 15, 62, 100
21, 141178, Note_on_c, 15, 62, 0
21, 141180, Note_on_c, 15, 61, 100
21, 141208, Note_on_c, 15, 61, 0
21, 141210, Note_on_c, 15, 59, 100
21, 141238, Note_on_c, 15, 59, 0
21, 141240, Note_on_c, 15, 57, 100
21, 141268, Note_on_c, 15, 57, 0
21, 141270, Note_on_c, 15, 56, 100
21, 141298, Note_on_c, 15, 56, 0
21, 141300, Note_on_c, 15, 54, 100
21, 141380, Note_on_c, 15, 54, 0
21, 141420, Note_on_c, 15, 52, 100
21, 141500, Note_on_c, 15, 52, 0
21, 141540, Note_on_c, 15, 50, 100
21, 141620, Note_on_c, 15, 50, 0
21, 141660, Note_on_c, 15, 49, 100
21, 141700, Note_on_c, 15, 49, 0
21, 141720, Note_on_c, 15, 53, 100
21, 141740, Note_on_c, 15, 53, 0
21, 141750, Note_on_c, 15, 56, 100
21, 141770, Note_on_c, 15, 56, 0
21, 141780, Note_on_c, 15, 61, 100
21, 141820, Note_on_c, 15, 61, 0
21, 141840, Note_on_c, 15, 49, 100
21, 141860, Note_on_c, 15, 49, 0
21, 141870, Note_on_c, 15, 61, 100
21, 141890, Note_on_c, 15, 61, 0
21, 141900, Note_on_c, 15, 59, 100
21, 141940, Note_on_c, 15, 59, 0
21, 141960, Note_on_c, 15, 49, 100
21, 141980, Note_on_c, 15, 49, 0
21, 141990, Note_on_c, 15, 59, 100
21, 142010, Note_on_c, 15, 59, 0
21, 142020, Note_on_c, 15, 57, 100
21, 142060, Note_on_c, 15, 57, 0
21, 142080, Note_on_c, 15, 49, 100
21, 142100, Note_on_c, 15, 49, 0
21, 142110, Note_on_c, 15, 57, 100
21, 142130, Note_on_c, 15, 57, 0
21, 142140, Note_on_c, 15, 56, 100
21, 142180, Note_on_c, 15, 56, 0
21, 142200, Note_on_c, 15, 49, 100
21, 142220, Note_on_c, 15, 49, 0
21, 142230, Note_on_c, 15, 56, 100
21, 142250, Note_on_c, 15, 56, 0
21, 142260, Note_on_c, 15, 54, 100
21, 142300, Note_on_c, 15, 54, 0
21, 142320, Note_on_c, 15, 49, 100
21, 142340, Note_on_c, 15, 49, 0
21, 142350, Note_on_c, 15, 54, 100
21, 142370, Note_on_c, 15, 54, 0
21, 142380, Note_on_c, 15, 53, 100
21, 142528, Note_on_c, 15, 53, 0
21, 142530, Note_on_c, 15, 51, 100
21, 142558, Note_on_c, 15, 51, 0
21, 142560, Note_on_c, 15, 49, 100
21, 142588, Note_on_c, 15, 49, 0
21, 142590, Note_on_c, 15, 51, 100
21, 142618, Note_on_c, 15, 51, 0
21, 142620, Note_on_c, 15, 53, 100
21, 142648, Note_on_c, 15, 53, 0
21, 142650, Note_on_c, 15, 54, 100
21, 142678, Note_on_c, 15, 54, 0
21, 142680, Note_on_c, 15, 56, 100
21, 142708, Note_on_c, 15, 56, 0
21, 142710, Note_on_c, 15, 53, 100
21, 142738, Note_on_c, 15, 53, 0
21, 142740, Note_on_c, 15, 54, 100
21, 142820, Note_on_c, 15, 54, 0
21, 142860, Note_on_c, 15, 42, 100
21, 142940, Note_on_c, 15, 42, 0
21, 142980, Note_on_c, 15, 54, 100
21, 143060, Note_on_c, 15, 54, 0
21, 143100, Note_on_c, 15, 56, 100
21, 143180, Note_on_c, 15, 56, 0
21, 143220, Note_on_c, 15, 44, 100
21, 143300, Note_on_c, 15, 44, 0
21, 143340, Note_on_c, 15, 56, 100
21, 143420, Note_on_c, 15, 56, 0
21, 143460, Note_on_c, 15, 57, 100
21, 143540, Note_on_c, 15, 57, 0
21, 143580, Note_on_c, 15, 45, 100
21, 143660, Note_on_c, 15, 45, 0
21, 143700, Note_on_c, 15, 57, 100
21, 143780, Note_on_c, 15, 57, 0
21, 143820, Note_on_c, 15, 59, 100
21, 143900, Note_on_c, 15, 59, 0
21, 143940, Note_on_c, 15, 47, 100
21, 144020, Note_on_c, 15, 47, 0
21, 144120, Note_on_c, 15, 47, 100
21, 144160, Note_on_c, 15, 47, 0
21, 144180, Note_on_c, 15, 49, 100
21, 144220, Note_on_c, 15, 49, 0
21, 144240, Note_on_c, 15, 45, 100
21, 144280, Note_on_c, 15, 45, 0
21, 144300, Note_on_c, 15, 52, 100
21, 144380, Note_on_c, 15, 52, 0
21, 144420, Note_on_c, 15, 40, 100
21, 144500, Note_on_c, 15, 40, 0
21, 144540, Note_on_c, 15, 45, 100
21, 144620, Note_on_c, 15, 45, 0
21, 144660, Note_on_c, 15, 49, 100
21, 144740, Note_on_c, 15, 49, 0
21, 144780, Note_on_c, 15, 52, 100
21, 144860, Note_on_c, 15, 52, 0
21, 144900, Note_on_c, 15, 57, 100
21, 145020, Note_on_c, 15, 57, 0
21, 145080, Note_on_c, 15, 59, 100
21, 145100, Note_on_c, 15, 59, 0
21, 145110, Note_on_c, 15, 61, 100
21, 145130, Note_on_c, 15, 61, 0
21, 145140, Note_on_c, 15, 59, 100
21, 145160, Note_on_c, 15, 59, 0
21, 145170, Note_on_c, 15, 57, 100
21, 145190, Note_on_c, 15, 57, 0
21, 145200, Note_on_c, 15, 56, 100
21, 145220, Note_on_c, 15, 56, 0
21, 145230, Note_on_c, 15, 54, 100
21, 145250, Note_on_c, 15, 54, 0
21, 145260, Note_on_c, 15, 52, 100
21, 145340, Note_on_c, 15, 52, 0
21, 145380, Note_on_c, 15, 44, 100
21, 145460, Note_on_c, 15, 44, 0
21, 145500, Note_on_c, 15, 47, 100
21, 145580, Note_on_c, 15, 47, 0
21, 145620, Note_on_c, 15, 40, 100
21, 145740, Note_on_c, 15, 40, 0
21, 145800, Note_on_c, 15, 52, 100
21, 145820, Note_on_c, 15, 52, 0
21, 145830, Note_on_c, 15, 54, 100
21, 145850, Note_on_c, 15, 54, 0
21, 145860, Note_on_c, 15, 52, 100
21, 145880, Note_on_c, 15, 52, 0
21, 145890, Note_on_c, 15, 50, 100
21, 145910, Note_on_c, 15, 50, 0
21, 145920, Note_on_c, 15, 49, 100
21, 145940, Note_on_c, 15, 49, 0
21, 145950, Note_on_c, 15, 47, 100
21, 145970, Note_on_c, 15, 47, 0
21, 145980, Note_on_c, 15, 45, 100
21, 146060, Note_on_c, 15, 45, 0
21, 146100, Note_on_c, 15, 44, 100
21, 146180, Note_on_c, 15, 44, 0
21, 146220, Note_on_c, 15, 42, 100
21, 146300, Note_on_c, 15, 42, 0
21, 146340, Note_on_c, 15, 40, 100
21, 146460, Note_on_c, 15, 40, 0
21, 146520, Note_on_c, 15, 52, 100
21, 146540, Note_on_c, 15, 52, 0
21, 146550, Note_on_c, 15, 54, 100
21, 146570, Note_on_c, 15, 54, 0
21, 146580, Note_on_c, 15, 52, 100
21, 146600, Note_on_c, 15, 52, 0
21, 146610, Note_on_c, 15, 50, 100
21, 146630, Note_on_c, 15, 50, 0
21, 146640, Note_on_c, 15, 49, 100
21, 146660, Note_on_c, 15, 49, 0
21, 146670, Note_on_c, 15, 47, 100
21, 146690, Note_on_c, 15, 47, 0
21, 146700, Note_on_c, 15, 45, 100
21, 146760, Note_on_c, 15, 45, 0
21, 146790, Note_on_c, 15, 50, 100
21, 146810, Note_on_c, 15, 50, 0
21, 146820, Note_on_c, 15, 52, 100
21, 146900, Note_on_c, 15, 52, 0
21, 146940, Note_on_c, 15, 40, 100
21, 147020, Note_on_c, 15, 40, 0
21, 147060, Note_on_c, 15, 45, 100
21, 147140, Note_on_c, 15, 45, 0
21, 147180, Note_on_c, 15, 49, 100
21, 147260, Note_on_c, 15, 49, 0
21, 147300, Note_on_c, 15, 52, 100
21, 147380, Note_on_c, 15, 52, 0
21, 147420, Note_on_c, 15, 42, 100
21, 147540, Note_on_c, 15, 42, 0
21, 147600, Note_on_c, 15, 54, 100
21, 147620, Note_on_c, 15, 54, 0
21, 147630, Note_on_c, 15, 55, 100
21, 147650, Note_on_c, 15, 55, 0
21, 147660, Note_on_c, 15, 54, 100
21, 147680, Note_on_c, 15, 54, 0
21, 147690, Note_on_c, 15, 52, 100
21, 147710, Note_on_c, 15, 52, 0
21, 147720, Note_on_c, 15, 50, 100
21, 147740, Note_on_c, 15, 50, 0
21, 147750, Note_on_c, 15, 49, 100
21, 147770, Note_on_c, 15, 49, 0
21, 147780, Note_on_c, 15, 47, 100
21, 147860, Note_on_c, 15, 47, 0
21, 147900, Note_on_c, 15, 54, 100
21, 147980, Note_on_c, 15, 54, 0
21, 148020, Note_on_c, 15, 59, 100
21, 148100, Note_on_c, 15, 59, 0
21, 148140, Note_on_c, 15, 53, 100
21, 148280, Note_on_c, 15, 53, 0
21, 148290, Note_on_c, 15, 54, 100
21, 148310, Note_on_c, 15, 54, 0
21, 148320, Note_on_c, 15, 53, 100
21, 148340, Note_on_c, 15, 53, 0
21, 148350, Note_on_c, 15, 51, 100
21, 148370, Note_on_c, 15, 51, 0
21, 148380, Note_on_c, 15, 49, 100
21, 148400, Note_on_c, 15, 49, 0
21, 148410, Note_on_c, 15, 47, 100
21, 148430, Note_on_c, 15, 47, 0
21, 148440, Note_on_c, 15, 45, 100
21, 148460, Note_on_c, 15, 45, 0
21, 148470, Note_on_c, 15, 44, 100
21, 148490, Note_on_c, 15, 44, 0
21, 148500, Note_on_c, 15, 42, 100
21, 148580, Note_on_c, 15, 42, 0
21, 148620, Note_on_c, 15, 40, 100
21, 148700, Note_on_c, 15, 40, 0
21, 148740, Note_on_c, 15, 38, 100
21, 148820, Note_on_c, 15, 38, 0
21, 148860, Note_on_c, 15, 37, 100
21, 148900, Note_on_c, 15, 37, 0
21, 148920, Note_on_c, 15, 49, 100
21, 148960, Note_on_c, 15, 49, 0
21, 148980, Note_on_c, 15, 53, 100
21, 149020, Note_on_c, 15, 53, 0
21, 149040, Note_on_c, 15, 56, 100
21, 149080, Note_on_c, 15, 56, 0
21, 149100, Note_on_c, 15, 53, 100
21, 149140, Note_on_c, 15, 53, 0
21, 149160, Note_on_c, 15, 49, 100
21, 149200, Note_on_c, 15, 49, 0
21, 149220, Note_on_c, 15, 37, 100
21, 149620, Note_on_c, 15, 37, 0
21, 149640, Note_on_c, 15, 56, 100
21, 149680, Note_on_c, 15, 56, 0
21, 149700, Note_on_c, 15, 57, 100
21, 149740, Note_on_c, 15, 57, 0
21, 149760, Note_on_c, 15, 61, 100
21, 149800, Note_on_c, 15, 61, 0
21, 149820, Note_on_c, 15, 57, 100
21, 149860, Note_on_c, 15, 57, 0
21, 149880, Note_on_c, 15, 54, 100
21, 149920, Note_on_c, 15, 54, 0
21, 149940, Note_on_c, 15, 47, 100
21, 150020, Note_on_c, 15, 47, 0
21, 150300, Note_on_c, 15, 49, 100
21, 150380, Note_on_c, 15, 49, 0
21, 150660, Note_on_c, 15, 50, 100
21, 150740, Note_on_c, 15, 50, 0
21, 151020, Note_on_c, 15, 41, 100
21, 151060, Note_on_c, 15, 41, 0
21, 151080, Note_on_c, 15, 49, 100
21, 151120, Note_on_c, 15, 49, 0
21, 151140, Note_on_c, 15, 53, 100
21, 151180, Note_on_c, 15, 53, 0
21, 151200, Note_on_c, 15, 56, 100
21, 151240, Note_on_c, 15, 56, 0
21, 151260, Note_on_c, 15, 53, 100
21, 151300, Note_on_c, 15, 53, 0
21, 151320, Note_on_c, 15, 49, 100
21, 151360, Note_on_c, 15, 49, 0
21, 151380, Note_on_c, 15, 54, 100
21, 151420, Note_on_c, 15, 54, 0
21, 151440, Note_on_c, 15, 57, 100
21, 151480, Note_on_c, 15, 57, 0
21, 151500, Note_on_c, 15, 61, 100
21, 151540, Note_on_c, 15, 61, 0
21, 151560, Note_on_c, 15, 59, 100
21, 151600, Note_on_c, 15, 59, 0
21, 151620, Note_on_c, 15, 61, 100
21, 151660, Note_on_c, 15, 61, 0
21, 151680, Note_on_c, 15, 49, 100
21, 151720, Note_on_c, 15, 49, 0
21, 151740, Note_on_c, 15, 50, 100
21, 151820, Note_on_c, 15, 50, 0
21, 151920, Note_on_c, 15, 50, 100
21, 151960, Note_on_c, 15, 50, 0
21, 151980, Note_on_c, 15, 49, 100
21, 152020, Note_on_c, 15, 49, 0
21, 152040, Note_on_c, 15, 47, 100
21, 152080, Note_on_c, 15, 47, 0
21, 152100, Note_on_c, 15, 46, 100
21, 152140, Note_on_c, 15, 46, 0
21, 152160, Note_on_c, 15, 42, 100
21, 152200, Note_on_c, 15, 42, 0
21, 152220, Note_on_c, 15, 46, 100
21, 152260, Note_on_c, 15, 46, 0
21, 152280, Note_on_c, 15, 49, 100
21, 152320, Note_on_c, 15, 49, 0
21, 152340, Note_on_c, 15, 46, 100
21, 152380, Note_on_c, 15, 46, 0
21, 152400, Note_on_c, 15, 42, 100
21, 152440, Note_on_c, 15, 42, 0
21, 152460, Note_on_c, 15, 54, 100
21, 152600, Note_on_c, 15, 54, 0
21, 152610, Note_on_c, 15, 52, 100
21, 152630, Note_on_c, 15, 52, 0
21, 152640, Note_on_c, 15, 54, 100
21, 152660, Note_on_c, 15, 54, 0
21, 152670, Note_on_c, 15, 55, 100
21, 152690, Note_on_c, 15, 55, 0
21, 152700, Note_on_c, 15, 54, 100
21, 152720, Note_on_c, 15, 54, 0
21, 152730, Note_on_c, 15, 52, 100
21, 152750, Note_on_c, 15, 52, 0
21, 152760, Note_on_c, 15, 50, 100
21, 152780, Note_on_c, 15, 50, 0
21, 152790, Note_on_c, 15, 49, 100
21, 152810, Note_on_c, 15, 49, 0
21, 152820, Note_on_c, 15, 47, 100
21, 152840, Note_on_c, 15, 47, 0
21, 152850, Note_on_c, 15, 59, 100
21, 152870, Note_on_c, 15, 59, 0
21, 152880, Note_on_c, 15, 54, 100
21, 152900, Note_on_c, 15, 54, 0
21, 152910, Note_on_c, 15, 50, 100
21, 152930, Note_on_c, 15, 50, 0
21, 152940, Note_on_c, 15, 47, 100
21, 153020, Note_on_c, 15, 47, 0
21, 153060, Note_on_c, 15, 44, 100
21, 153140, Note_on_c, 15, 44, 0
21, 153180, Note_on_c, 15, 49, 100
21, 153260, Note_on_c, 15, 49, 0
21, 153360, Note_on_c, 15, 50, 100
21, 153400, Note_on_c, 15, 50, 0
21, 153420, Note_on_c, 15, 49, 100
21, 153460, Note_on_c, 15, 49, 0
21, 153480, Note_on_c, 15, 47, 100
21, 153520, Note_on_c, 15, 47, 0
21, 153540, Note_on_c, 15, 45, 100
21, 153580, Note_on_c, 15, 45, 0
21, 153600, Note_on_c, 15, 42, 100
21, 153640, Note_on_c, 15, 42, 0
21, 153660, Note_on_c, 15, 49, 100
21, 153740, Note_on_c, 15, 49, 0
21, 153780, Note_on_c, 15, 37, 100
21, 153860, Note_on_c, 15, 37, 0
21, 153900, Note_on_c, 15, 42, 100
21, 154018, Note_on_c, 15, 42, 0
21, 154020, Note_on_c, 15, 45, 100
21, 154138, Note_on_c, 15, 45, 0
21, 154140, Note_on_c, 15, 49, 100
21, 154258, Note_on_c, 15, 49, 0
21, 154260, Note_on_c, 15, 54, 100
21, 154438, Note_on_c, 15, 54, 0
21, 154440, Note_on_c, 15, 56, 100
21, 154468, Note_on_c, 15, 56, 0
21, 154470, Note_on_c, 15, 57, 100
21, 154498, Note_on_c, 15, 57, 0
21, 154500, Note_on_c, 15, 56, 100
21, 154528, Note_on_c, 15, 56, 0
21, 154530, Note_on_c, 15, 54, 100
21, 154558, Note_on_c, 15, 54, 0
21, 154560, Note_on_c, 15, 53, 100
21, 154588, Note_on_c, 15, 53, 0
21, 154590, Note_on_c, 15, 51, 100
21, 154618, Note_on_c, 15, 51, 0
21, 154620, Note_on_c, 15, 49, 100
21, 154738, Note_on_c, 15, 49, 0
21, 154740, Note_on_c, 15, 53, 100
21, 154858, Note_on_c, 15, 53, 0
21, 154860, Note_on_c, 15, 56, 100
21, 154978, Note_on_c, 15, 56, 0
21, 154980, Note_on_c, 15, 59, 100
21, 155158, Note_on_c, 15, 59, 0
21, 155160, Note_on_c, 15, 61, 100
21, 155188, Note_on_c, 15, 61, 0
21, 155190, Note_on_c, 15, 62, 100
21, 155218, Note_on_c, 15, 62, 0
21, 155220, Note_on_c, 15, 61, 100
21, 155248, Note_on_c, 15, 61, 0
21, 155250, Note_on_c, 15, 59, 100
21, 155278, Note_on_c, 15, 59, 0
21, 155280, Note_on_c, 15, 57, 100
21, 155308, Note_on_c, 15, 57, 0
21, 155310, Note_on_c, 15, 56, 100
21, 155338, Note_on_c, 15, 56, 0
21, 155340, Note_on_c, 15, 54, 100
21, 155420, Note_on_c, 15, 54, 0
21, 155460, Note_on_c, 15, 52, 100
21, 155540, Note_on_c, 15, 52, 0
21, 155580, Note_on_c, 15, 50, 100
21, 155660, Note_on_c, 15, 50, 0
21, 155700, Note_on_c, 15, 49, 100
21, 155740, Note_on_c, 15, 49, 0
21, 155760, Note_on_c, 15, 53, 100
21, 155780, Note_on_c, 15, 53, 0
21, 155790, Note_on_c, 15, 56, 100
21, 155810, Note_on_c, 15, 56, 0
21, 155820, Note_on_c, 15, 61, 100
21, 155860, Note_on_c, 15, 61, 0
21, 155880, Note_on_c, 15, 49, 100
21, 155900, Note_on_c, 15, 49, 0
21, 155910, Note_on_c, 15, 61, 100
21, 155930, Note_on_c, 15, 61, 0
21, 155940, Note_on_c, 15, 59, 100
21, 155980, Note_on_c, 15, 59, 0
21, 156000, Note_on_c, 15, 49, 100
21, 156020, Note_on_c, 15, 49, 0
21, 156030, Note_on_c, 15, 59, 100
21, 156050, Note_on_c, 15, 59, 0
21, 156060, Note_on_c, 15, 57, 100
21, 156100, Note_on_c, 15, 57, 0
21, 156120, Note_on_c, 15, 49, 100
21, 156140, Note_on_c, 15, 49, 0
21, 156150, Note_on_c, 15, 57, 100
21, 156170, Note_on_c, 15, 57, 0
21, 156180, Note_on_c, 15, 56, 100
21, 156220, Note_on_c, 15, 56, 0
21, 156240, Note_on_c, 15, 49, 100
21, 156260, Note_on_c, 15, 49, 0
21, 156270, Note_on_c, 15, 56, 100
21, 156290, Note_on_c, 15, 56, 0
21, 156300, Note_on_c, 15, 54, 100
21, 156340, Note_on_c, 15, 54, 0
21, 156360, Note_on_c, 15, 49, 100
21, 156380, Note_on_c, 15, 49, 0
21, 156390, Note_on_c, 15, 54, 100
21, 156410, Note_on_c, 15, 54, 0
21, 156420, Note_on_c, 15, 53, 100
21, 156568, Note_on_c, 15, 53, 0
21, 156570, Note_on_c, 15, 49, 100
21, 156598, Note_on_c, 15, 49, 0
21, 156600, Note_on_c, 15, 51, 100
21, 156628, Note_on_c, 15, 51, 0
21, 156630, Note_on_c, 15, 53, 100
21, 156658, Note_on_c, 15, 53, 0
21, 156660, Note_on_c, 15, 54, 100
21, 156688, Note_on_c, 15, 54, 0
21, 156690, Note_on_c, 15, 56, 100
21, 156718, Note_on_c, 15, 56, 0
21, 156720, Note_on_c, 15, 57, 100
21, 156748, Note_on_c, 15, 57, 0
21, 156750, Note_on_c, 15, 54, 100
21, 156778, Note_on_c, 15, 54, 0
21, 156780, Note_on_c, 15, 47, 100
21, 156898, Note_on_c, 15, 47, 0
21, 157140, Note_on_c, 15, 49, 100
21, 157220, Note_on_c, 15, 49, 0
21, 157500, Note_on_c, 15, 50, 100
21, 157580, Note_on_c, 15, 50, 0
21, 157860, Note_on_c, 15, 41, 100
21, 157920, Note_on_c, 15, 41, 0
21, 157950, Note_on_c, 15, 44, 100
21, 157960, Note_on_c, 15, 44, 0
21, 157965, Note_on_c, 15, 45, 100
21, 157975, Note_on_c, 15, 45, 0
21, 157980, Note_on_c, 15, 47, 100
21, 158020, Note_on_c, 15, 47, 0
21, 158160, Note_on_c, 15, 44, 100
21, 158200, Note_on_c, 15, 44, 0
21, 158220, Note_on_c, 15, 45, 100
21, 158280, Note_on_c, 15, 45, 0
21, 158310, Note_on_c, 15, 47, 100
21, 158330, Note_on_c, 15, 47, 0
21, 158340, Note_on_c, 15, 49, 100
21, 158420, Note_on_c, 15, 49, 0
21, 158460, Note_on_c, 15, 37, 100
21, 158540, Note_on_c, 15, 37, 0
21, 158580, Note_on_c, 15, 42, 100
21, 158660, Note_on_c, 15, 42, 0
21, 159300, Control_c, 15, 0, 0
21, 159300, Note_on_c, 15, 52, 100
21, 159360, Note_on_c, 15, 52, 0
21, 159420, Note_on_c, 15, 47, 100
21, 159480, Note_on_c, 15, 47, 0
21, 159540, Note_on_c, 15, 40, 100
21, 159600, Note_on_c, 15, 40, 0
21, 159660, Note_on_c, 15, 47, 100
21, 159720, Note_on_c, 15, 47, 0
21, 159780, Note_on_c, 15, 40, 100
21, 159840, Note_on_c, 15, 40, 0
21, 159900, Note_on_c, 15, 41, 100
21, 159960, Note_on_c, 15, 41, 0
21, 160020, Note_on_c, 15, 42, 100
21, 160080, Note_on_c, 15, 42, 0
21, 160140, Note_on_c, 15, 37, 100
21, 160200, Note_on_c, 15, 37, 0
21, 160260, Note_on_c, 15, 42, 100
21, 160320, Note_on_c, 15, 42, 0
21, 160380, Note_on_c, 15, 49, 100
21, 160440, Note_on_c, 15, 49, 0
21, 160500, Note_on_c, 15, 54, 100
21, 160560, Note_on_c, 15, 54, 0
21, 160620, Note_on_c, 15, 49, 100
21, 160680, Note_on_c, 15, 49, 0
21, 160740, Note_on_c, 15, 42, 100
21, 160800, Note_on_c, 15, 42, 0
21, 160860, Note_on_c, 15, 51, 100
21, 160920, Note_on_c, 15, 51, 0
21, 160980, Note_on_c, 15, 52, 100
21, 161040, Note_on_c, 15, 52, 0
21, 161040, Note_on_c, 15, 47, 100
21, 161100, Note_on_c, 15, 47, 0
21, 161100, Note_on_c, 15, 44, 100
21, 161160, Note_on_c, 15, 44, 0
21, 161160, Note_on_c, 15, 47, 100
21, 161220, Note_on_c, 15, 47, 0
21, 161220, Note_on_c, 15, 40, 100
21, 161280, Note_on_c, 15, 40, 0
21, 161280, Note_on_c, 15, 56, 100
21, 161340, Note_on_c, 15, 56, 0
21, 161340, Note_on_c, 15, 52, 100
21, 161400, Note_on_c, 15, 52, 0
21, 161400, Note_on_c, 15, 56, 100
21, 161460, Note_on_c, 15, 56, 0
21, 161460, Note_on_c, 15, 57, 100
21, 161520, Note_on_c, 15, 57, 0
21, 161520, Note_on_c, 15, 61, 100
21, 161580, Note_on_c, 15, 61, 0
21, 161580, Note_on_c, 15, 54, 100
21, 161640, Note_on_c, 15, 54, 0
21, 161640, Note_on_c, 15, 57, 100
21, 161700, Note_on_c, 15, 57, 0
21, 161700, Note_on_c, 15, 59, 100
21, 161760, Note_on_c, 15, 59, 0
21, 161760, Note_on_c, 15, 51, 100
21, 161820, Note_on_c, 15, 51, 0
21, 161820, Note_on_c, 15, 47, 100
21, 161880, Note_on_c, 15, 47, 0
21, 161880, Note_on_c, 15, 51, 100
21, 161940, Note_on_c, 15, 51, 0
21, 161940, Note_on_c, 15, 40, 100
21, 162000, Note_on_c, 15, 40, 0
21, 162000, Note_on_c, 15, 56, 100
21, 162060, Note_on_c, 15, 56, 0
21, 162060, Note_on_c, 15, 49, 100
21, 162120, Note_on_c, 15, 49, 0
21, 162120, Note_on_c, 15, 52, 100
21, 162180, Note_on_c, 15, 52, 0
21, 162180, Note_on_c, 15, 45, 100
21, 162240, Note_on_c, 15, 45, 0
21, 162240, Note_on_c, 15, 57, 100
21, 162300, Note_on_c, 15, 57, 0
21, 162300, Note_on_c, 15, 59, 100
21, 162360, Note_on_c, 15, 59, 0
21, 162360, Note_on_c, 15, 47, 100
21, 162420, Note_on_c, 15, 47, 0
21, 162420, Note_on_c, 15, 40, 100
21, 162480, Note_on_c, 15, 40, 0
21, 162660, Note_on_c, 15, 52, 100
21, 162720, Note_on_c, 15, 52, 0
21, 162780, Note_on_c, 15, 47, 100
21, 162840, Note_on_c, 15, 47, 0
21, 162900, Note_on_c, 15, 40, 100
21, 162960, Note_on_c, 15, 40, 0
21, 163020, Note_on_c, 15, 47, 100
21, 163080, Note_on_c, 15, 47, 0
21, 163140, Note_on_c, 15, 40, 100
21, 163200, Note_on_c, 15, 40, 0
21, 163260, Note_on_c, 15, 41, 100
21, 163320, Note_on_c, 15, 41, 0
21, 163380, Note_on_c, 15, 42, 100
21, 163440, Note_on_c, 15, 42, 0
21, 163500, Note_on_c, 15, 37, 100
21, 163560, Note_on_c, 15, 37, 0
21, 163620, Note_on_c, 15, 42, 100
21, 163680, Note_on_c, 15, 42, 0
21, 163740, Note_on_c, 15, 49, 100
21, 163800, Note_on_c, 15, 49, 0
21, 163860, Note_on_c, 15, 54, 100
21, 163920, Note_on_c, 15, 54, 0
21, 163980, Note_on_c, 15, 49, 100
21, 164040, Note_on_c, 15, 49, 0
21, 164100, Note_on_c, 15, 42, 100
21, 164160, Note_on_c, 15, 42, 0
21, 164220, Note_on_c, 15, 51, 100
21, 164280, Note_on_c, 15, 51, 0
21, 164340, Note_on_c, 15, 52, 100
21, 164400, Note_on_c, 15, 52, 0
21, 164400, Note_on_c, 15, 47, 100
21, 164460, Note_on_c, 15, 47, 0
21, 164460, Note_on_c, 15, 44, 100
21, 164520, Note_on_c, 15, 44, 0
21, 164520, Note_on_c, 15, 47, 100
21, 164580, Note_on_c, 15, 47, 0
21, 164580, Note_on_c, 15, 40, 100
21, 164640, Note_on_c, 15, 40, 0
21, 164640, Note_on_c, 15, 56, 100
21, 164700, Note_on_c, 15, 56, 0
21, 164700, Note_on_c, 15, 52, 100
21, 164760, Note_on_c, 15, 52, 0
21, 164760, Note_on_c, 15, 56, 100
21, 164820, Note_on_c, 15, 56, 0
21, 164820, Note_on_c, 15, 57, 100
21, 164880, Note_on_c, 15, 57, 0
21, 164880, Note_on_c, 15, 49, 100
21, 164940, Note_on_c, 15, 49, 0
21, 164940, Note_on_c, 15, 45, 100
21, 165000, Note_on_c, 15, 45, 0
21, 165000, Note_on_c, 15, 49, 100
21, 165060, Note_on_c, 15, 49, 0
21, 165060, Note_on_c, 15, 42, 100
21, 165120, Note_on_c, 15, 42, 0
21, 165120, Note_on_c, 15, 57, 100
21, 165180, Note_on_c, 15, 57, 0
21, 165180, Note_on_c, 15, 54, 100
21, 165240, Note_on_c, 15, 54, 0
21, 165240, Note_on_c, 15, 57, 100
21, 165300, Note_on_c, 15, 57, 0
21, 165300, Note_on_c, 15, 59, 100
21, 165360, Note_on_c, 15, 59, 0
21, 165360, Note_on_c, 15, 51, 100
21, 165420, Note_on_c, 15, 51, 0
21, 165420, Note_on_c, 15, 47, 100
21, 165480, Note_on_c, 15, 47, 0
21, 165480, Note_on_c, 15, 51, 100
21, 165540, Note_on_c, 15, 51, 0
21, 165540, Note_on_c, 15, 52, 100
21, 165600, Note_on_c, 15, 52, 0
21, 165660, Note_on_c, 15, 51, 100
21, 165720, Note_on_c, 15, 51, 0
21, 165780, Note_on_c, 15, 44, 100
21, 165840, Note_on_c, 15, 44, 0
21, 165900, Note_on_c, 15, 46, 100
21, 165960, Note_on_c, 15, 46, 0
21, 166020, Note_on_c, 15, 47, 100
21, 166080, Note_on_c, 15, 47, 0
21, 166080, Note_on_c, 15, 51, 100
21, 166140, Note_on_c, 15, 51, 0
21, 166140, Note_on_c, 15, 47, 100
21, 166200, Note_on_c, 15, 47, 0
21, 166200, Note_on_c, 15, 51, 100
21, 166260, Note_on_c, 15, 51, 0
21, 166260, Note_on_c, 15, 49, 100
21, 166320, Note_on_c, 15, 49, 0
21, 166320, Note_on_c, 15, 52, 100
21, 166380, Note_on_c, 15, 52, 0
21, 166380, Note_on_c, 15, 49, 100
21, 166440, Note_on_c, 15, 49, 0
21, 166440, Note_on_c, 15, 52, 100
21, 166500, Note_on_c, 15, 52, 0
21, 166500, Note_on_c, 15, 51, 100
21, 166560, Note_on_c, 15, 51, 0
21, 166560, Note_on_c, 15, 54, 100
21, 166620, Note_on_c, 15, 54, 0
21, 166620, Note_on_c, 15, 51, 100
21, 166680, Note_on_c, 15, 51, 0
21, 166680, Note_on_c, 15, 54, 100
21, 166740, Note_on_c, 15, 54, 0
21, 166740, Note_on_c, 15, 56, 100
21, 166800, Note_on_c, 15, 56, 0
21, 166800, Note_on_c, 15, 52, 100
21, 166860, Note_on_c, 15, 52, 0
21, 166860, Note_on_c, 15, 54, 100
21, 166920, Note_on_c, 15, 54, 0
21, 166920, Note_on_c, 15, 42, 100
21, 166980, Note_on_c, 15, 42, 0
21, 166980, Note_on_c, 15, 47, 100
21, 167040, Note_on_c, 15, 47, 0
21, 167100, Note_on_c, 15, 54, 100
21, 167160, Note_on_c, 15, 54, 0
21, 167220, Note_on_c, 15, 59, 100
21, 167280, Note_on_c, 15, 59, 0
21, 167340, Note_on_c, 15, 54, 100
21, 167400, Note_on_c, 15, 54, 0
21, 167460, Note_on_c, 15, 47, 100
21, 167520, Note_on_c, 15, 47, 0
21, 167580, Note_on_c, 15, 48, 100
21, 167640, Note_on_c, 15, 48, 0
21, 167700, Note_on_c, 15, 49, 100
21, 167760, Note_on_c, 15, 49, 0
21, 167820, Note_on_c, 15, 56, 100
21, 167880, Note_on_c, 15, 56, 0
21, 167940, Note_on_c, 15, 61, 100
21, 168000, Note_on_c, 15, 61, 0
21, 168060, Note_on_c, 15, 56, 100
21, 168120, Note_on_c, 15, 56, 0
21, 168180, Note_on_c, 15, 49, 100
21, 168240, Note_on_c, 15, 49, 0
21, 168300, Note_on_c, 15, 56, 100
21, 168360, Note_on_c, 15, 56, 0
21, 168420, Note_on_c, 15, 61, 100
21, 168480, Note_on_c, 15, 61, 0
21, 168540, Note_on_c, 15, 58, 100
21, 168600, Note_on_c, 15, 58, 0
21, 168660, Note_on_c, 15, 59, 100
21, 168720, Note_on_c, 15, 59, 0
21, 168720, Note_on_c, 15, 54, 100
21, 168780, Note_on_c, 15, 54, 0
21, 168780, Note_on_c, 15, 51, 100
21, 168840, Note_on_c, 15, 51, 0
21, 168840, Note_on_c, 15, 54, 100
21, 168900, Note_on_c, 15, 54, 0
21, 168900, Note_on_c, 15, 47, 100
21, 168960, Note_on_c, 15, 47, 0
21, 169020, Note_on_c, 15, 44, 100
21, 169080, Note_on_c, 15, 44, 0
21, 169140, Note_on_c, 15, 42, 100
21, 169200, Note_on_c, 15, 42, 0
21, 169260, Note_on_c, 15, 54, 100
21, 169320, Note_on_c, 15, 54, 0
21, 169380, Note_on_c, 15, 56, 100
21, 169440, Note_on_c, 15, 56, 0
21, 169500, Note_on_c, 15, 52, 100
21, 169560, Note_on_c, 15, 52, 0
21, 169620, Note_on_c, 15, 57, 100
21, 169680, Note_on_c, 15, 57, 0
21, 169740, Note_on_c, 15, 52, 100
21, 169800, Note_on_c, 15, 52, 0
21, 169860, Note_on_c, 15, 45, 100
21, 169920, Note_on_c, 15, 45, 0
21, 169920, Note_on_c, 15, 57, 100
21, 169980, Note_on_c, 15, 57, 0
21, 169980, Note_on_c, 15, 45, 100
21, 170040, Note_on_c, 15, 45, 0
21, 170040, Note_on_c, 15, 57, 100
21, 170100, Note_on_c, 15, 57, 0
21, 170100, Note_on_c, 15, 45, 100
21, 170160, Note_on_c, 15, 45, 0
21, 170160, Note_on_c, 15, 57, 100
21, 170220, Note_on_c, 15, 57, 0
21, 170220, Note_on_c, 15, 45, 100
21, 170280, Note_on_c, 15, 45, 0
21, 170280, Note_on_c, 15, 57, 100
21, 170340, Note_on_c, 15, 57, 0
21, 170340, Note_on_c, 15, 44, 100
21, 170400, Note_on_c, 15, 44, 0
21, 170400, Note_on_c, 15, 56, 100
21, 170460, Note_on_c, 15, 56, 0
21, 170460, Note_on_c, 15, 44, 100
21, 170520, Note_on_c, 15, 44, 0
21, 170520, Note_on_c, 15, 56, 100
21, 170580, Note_on_c, 15, 56, 0
21, 170580, Note_on_c, 15, 44, 100
21, 170640, Note_on_c, 15, 44, 0
21, 170640, Note_on_c, 15, 56, 100
21, 170700, Note_on_c, 15, 56, 0
21, 170700, Note_on_c, 15, 44, 100
21, 170760, Note_on_c, 15, 44, 0
21, 170760, Note_on_c, 15, 56, 100
21, 170820, Note_on_c, 15, 56, 0
21, 170820, Note_on_c, 15, 42, 100
21, 170880, Note_on_c, 15, 42, 0
21, 170880, Note_on_c, 15, 54, 100
21, 170940, Note_on_c, 15, 54, 0
21, 170940, Note_on_c, 15, 40, 100
21, 171000, Note_on_c, 15, 40, 0
21, 171000, Note_on_c, 15, 52, 100
21, 171060, Note_on_c, 15, 52, 0
21, 171060, Note_on_c, 15, 39, 100
21, 171120, Note_on_c, 15, 39, 0
21, 171120, Note_on_c, 15, 51, 100
21, 171180, Note_on_c, 15, 51, 0
21, 171180, Note_on_c, 15, 35, 100
21, 171240, Note_on_c, 15, 35, 0
21, 171240, Note_on_c, 15, 47, 100
21, 171300, Note_on_c, 15, 47, 0
21, 171300, Note_on_c, 15, 40, 100
21, 171360, Note_on_c, 15, 40, 0
21, 171360, Note_on_c, 15, 52, 100
21, 171420, Note_on_c, 15, 52, 0
21, 171420, Note_on_c, 15, 42, 100
21, 171480, Note_on_c, 15, 42, 0
21, 171480, Note_on_c, 15, 54, 100
21, 171540, Note_on_c, 15, 54, 0
21, 171540, Note_on_c, 15, 44, 100
21, 171600, Note_on_c, 15, 44, 0
21, 171660, Note_on_c, 15, 47, 100
21, 171720, Note_on_c, 15, 47, 0
21, 171780, Note_on_c, 15, 52, 100
21, 171840, Note_on_c, 15, 52, 0
21, 171900, Note_on_c, 15, 47, 100
21, 171960, Note_on_c, 15, 47, 0
21, 172020, Note_on_c, 15, 40, 100
21, 172080, Note_on_c, 15, 40, 0
21, 172080, Note_on_c, 15, 44, 100
21, 172140, Note_on_c, 15, 44, 0
21, 172140, Note_on_c, 15, 47, 100
21, 172200, Note_on_c, 15, 47, 0
21, 172200, Note_on_c, 15, 51, 100
21, 172260, Note_on_c, 15, 51, 0
21, 172260, Note_on_c, 15, 40, 100
21, 172320, Note_on_c, 15, 40, 0
21, 172320, Note_on_c, 15, 52, 100
21, 172380, Note_on_c, 15, 52, 0
21, 172380, Note_on_c, 15, 37, 100
21, 172440, Note_on_c, 15, 37, 0
21, 172440, Note_on_c, 15, 49, 100
21, 172500, Note_on_c, 15, 49, 0
21, 172500, Note_on_c, 15, 54, 100
21, 172560, Note_on_c, 15, 54, 0
21, 172560, Note_on_c, 15, 51, 100
21, 172620, Note_on_c, 15, 51, 0
21, 172620, Note_on_c, 15, 52, 100
21, 172680, Note_on_c, 15, 52, 0
21, 172680, Note_on_c, 15, 40, 100
21, 172740, Note_on_c, 15, 40, 0
21, 172740, Note_on_c, 15, 35, 100
21, 172800, Note_on_c, 15, 35, 0
21, 172800, Note_on_c, 15, 47, 100
21, 172860, Note_on_c, 15, 47, 0
21, 172860, Note_on_c, 15, 39, 100
21, 172920, Note_on_c, 15, 39, 0
21, 172920, Note_on_c, 15, 51, 100
21, 172980, Note_on_c, 15, 51, 0
21, 172980, Note_on_c, 15, 52, 100
21, 173040, Note_on_c, 15, 52, 0
21, 173040, Note_on_c, 15, 49, 100
21, 173100, Note_on_c, 15, 49, 0
21, 173100, Note_on_c, 15, 46, 100
21, 173160, Note_on_c, 15, 46, 0
21, 173160, Note_on_c, 15, 48, 100
21, 173220, Note_on_c, 15, 48, 0
21, 173220, Note_on_c, 15, 49, 100
21, 173280, Note_on_c, 15, 49, 0
21, 173280, Note_on_c, 15, 47, 100
21, 173340, Note_on_c, 15, 47, 0
21, 173340, Note_on_c, 15, 45, 100
21, 173400, Note_on_c, 15, 45, 0
21, 173400, Note_on_c, 15, 44, 100
21, 173460, Note_on_c, 15, 44, 0
21, 173460, Note_on_c, 15, 45, 100
21, 173520, Note_on_c, 15, 45, 0
21, 173520, Note_on_c, 15, 47, 100
21, 173580, Note_on_c, 15, 47, 0
21, 173580, Note_on_c, 15, 49, 100
21, 173640, Note_on_c, 15, 49, 0
21, 173640, Note_on_c, 15, 45, 100
21, 173700, Note_on_c, 15, 45, 0
21, 173700, Note_on_c, 15, 47, 100
21, 173760, Note_on_c, 15, 47, 0
21, 173760, Note_on_c, 15, 51, 100
21, 173820, Note_on_c, 15, 51, 0
21, 173820, Note_on_c, 15, 47, 100
21, 173880, Note_on_c, 15, 47, 0
21, 173880, Note_on_c, 15, 51, 100
21, 173940, Note_on_c, 15, 51, 0
21, 173940, Note_on_c, 15, 52, 100
21, 174000, Note_on_c, 15, 52, 0
21, 174000, Note_on_c, 15, 56, 100
21, 174060, Note_on_c, 15, 56, 0
21, 174060, Note_on_c, 15, 52, 100
21, 174120, Note_on_c, 15, 52, 0
21, 174120, Note_on_c, 15, 56, 100
21, 174180, Note_on_c, 15, 56, 0
21, 174180, Note_on_c, 15, 45, 100
21, 174240, Note_on_c, 15, 45, 0
21, 174240, Note_on_c, 15, 49, 100
21, 174300, Note_on_c, 15, 49, 0
21, 174300, Note_on_c, 15, 45, 100
21, 174360, Note_on_c, 15, 45, 0
21, 174360, Note_on_c, 15, 49, 100
21, 174420, Note_on_c, 15, 49, 0
21, 174420, Note_on_c, 15, 51, 100
21, 174480, Note_on_c, 15, 51, 0
21, 174480, Note_on_c, 15, 54, 100
21, 174540, Note_on_c, 15, 54, 0
21, 174540, Note_on_c, 15, 51, 100
21, 174600, Note_on_c, 15, 51, 0
21, 174605, Note_on_c, 15, 54, 100
21, 174660, Note_on_c, 15, 44, 100
21, 174665, Note_on_c, 15, 54, 0
21, 174720, Note_on_c, 15, 44, 0
21, 174720, Note_on_c, 15, 47, 100
21, 174780, Note_on_c, 15, 47, 0
21, 174780, Note_on_c, 15, 44, 100
21, 174840, Note_on_c, 15, 44, 0
21, 174840, Note_on_c, 15, 47, 100
21, 174900, Note_on_c, 15, 47, 0
21, 174900, Note_on_c, 15, 49, 100
21, 174960, Note_on_c, 15, 49, 0
21, 174960, Note_on_c, 15, 52, 100
21, 175020, Note_on_c, 15, 52, 0
21, 175020, Note_on_c, 15, 49, 100
21, 175080, Note_on_c, 15, 49, 0
21, 175080, Note_on_c, 15, 52, 100
21, 175140, Note_on_c, 15, 52, 0
21, 175140, Note_on_c, 15, 42, 100
21, 175200, Note_on_c, 15, 42, 0
21, 175200, Note_on_c, 15, 45, 100
21, 175260, Note_on_c, 15, 45, 0
21, 175260, Note_on_c, 15, 42, 100
21, 175320, Note_on_c, 15, 42, 0
21, 175320, Note_on_c, 15, 45, 100
21, 175380, Note_on_c, 15, 45, 0
21, 175380, Note_on_c, 15, 47, 100
21, 175440, Note_on_c, 15, 47, 0
21, 175440, Note_on_c, 15, 51, 100
21, 175500, Note_on_c, 15, 51, 0
21, 175740, Note_on_c, 15, 46, 100
21, 175800, Note_on_c, 15, 46, 0
21, 175860, Note_on_c, 15, 45, 100
21, 175920, Note_on_c, 15, 45, 0
21, 175920, Note_on_c, 15, 44, 100
21, 175950, Note_on_c, 15, 44, 0
21, 175950, Note_on_c, 15, 40, 100
21, 175980, Note_on_c, 15, 40, 0
21, 175980, Note_on_c, 15, 47, 100
21, 176040, Note_on_c, 15, 47, 0
21, 176040, Note_on_c, 15, 59, 100
21, 176100, Note_on_c, 15, 59, 0
21, 176100, Note_on_c, 15, 52, 100
21, 176160, Note_on_c, 15, 52, 0
21, 176220, Note_on_c, 15, 47, 100
21, 176280, Note_on_c, 15, 47, 0
21, 176340, Note_on_c, 15, 40, 100
21, 176400, Note_on_c, 15, 40, 0
21, 176460, Note_on_c, 15, 47, 100
21, 176520, Note_on_c, 15, 47, 0
21, 176580, Note_on_c, 15, 40, 100
21, 176640, Note_on_c, 15, 40, 0
21, 176700, Note_on_c, 15, 41, 100
21, 176760, Note_on_c, 15, 41, 0
21, 176820, Note_on_c, 15, 42, 100
21, 176880, Note_on_c, 15, 42, 0
21, 176940, Note_on_c, 15, 37, 100
21, 177000, Note_on_c, 15, 37, 0
21, 177060, Note_on_c, 15, 42, 100
21, 177120, Note_on_c, 15, 42, 0
21, 177180, Note_on_c, 15, 49, 100
21, 177240, Note_on_c, 15, 49, 0
21, 177300, Note_on_c, 15, 54, 100
21, 177360, Note_on_c, 15, 54, 0
21, 177420, Note_on_c, 15, 49, 100
21, 177480, Note_on_c, 15, 49, 0
21, 177540, Note_on_c, 15, 42, 100
21, 177600, Note_on_c, 15, 42, 0
21, 177660, Note_on_c, 15, 51, 100
21, 177720, Note_on_c, 15, 51, 0
21, 177780, Note_on_c, 15, 52, 100
21, 177840, Note_on_c, 15, 52, 0
21, 177840, Note_on_c, 15, 47, 100
21, 177900, Note_on_c, 15, 47, 0
21, 177900, Note_on_c, 15, 44, 100
21, 177960, Note_on_c, 15, 44, 0
21, 177960, Note_on_c, 15, 47, 100
21, 178020, Note_on_c, 15, 47, 0
21, 178020, Note_on_c, 15, 40, 100
21, 178080, Note_on_c, 15, 40, 0
21, 178080, Note_on_c, 15, 56, 100
21, 178140, Note_on_c, 15, 56, 0
21, 178140, Note_on_c, 15, 52, 100
21, 178200, Note_on_c, 15, 52, 0
21, 178200, Note_on_c, 15, 56, 100
21, 178260, Note_on_c, 15, 56, 0
21, 178260, Note_on_c, 15, 57, 100
21, 178320, Note_on_c, 15, 57, 0
21, 178320, Note_on_c, 15, 61, 100
21, 178380, Note_on_c, 15, 61, 0
21, 178380, Note_on_c, 15, 54, 100
21, 178440, Note_on_c, 15, 54, 0
21, 178440, Note_on_c, 15, 57, 100
21, 178500, Note_on_c, 15, 57, 0
21, 178500, Note_on_c, 15, 59, 100
21, 178560, Note_on_c, 15, 59, 0
21, 178560, Note_on_c, 15, 51, 100
21, 178620, Note_on_c, 15, 51, 0
21, 178620, Note_on_c, 15, 47, 100
21, 178680, Note_on_c, 15, 47, 0
21, 178680, Note_on_c, 15, 51, 100
21, 178740, Note_on_c, 15, 51, 0
21, 178740, Note_on_c, 15, 40, 100
21, 178800, Note_on_c, 15, 40, 0
21, 178800, Note_on_c, 15, 56, 100
21, 178860, Note_on_c, 15, 56, 0
21, 178860, Note_on_c, 15, 49, 100
21, 178920, Note_on_c, 15, 49, 0
21, 178920, Note_on_c, 15, 52, 100
21, 178980, Note_on_c, 15, 52, 0
21, 178980, Note_on_c, 15, 45, 100
21, 179040, Note_on_c, 15, 45, 0
21, 179040, Note_on_c, 15, 57, 100
21, 179100, Note_on_c, 15, 57, 0
21, 179100, Note_on_c, 15, 59, 100
21, 179160, Note_on_c, 15, 59, 0
21, 179160, Note_on_c, 15, 47, 100
21, 179220, Note_on_c, 15, 47, 0
21, 179220, Note_on_c, 15, 40, 100
21, 179280, Note_on_c, 15, 40, 0
21, 179460, Note_on_c, 15, 40, 100
21, 179460, Note_on_c, 15, 28, 100
21, 179580, Note_on_c, 15, 28, 0
21, 179580, Note_on_c, 15, 40, 0
21, 179880, Program_c, 15, 20
21, 179940, Note_on_c, 15, 47, 100
21, 180058, Note_on_c, 15, 47, 0
21, 180060, Note_on_c, 15, 47, 100
21, 180178, Note_on_c, 15, 47, 0
21, 180180, Note_on_c, 15, 47, 100
21, 180298, Note_on_c, 15, 47, 0
21, 180300, Note_on_c, 15, 45, 100
21, 180418, Note_on_c, 15, 45, 0
21, 180420, Note_on_c, 15, 45, 100
21, 180538, Note_on_c, 15, 45, 0
21, 180540, Note_on_c, 15, 45, 100
21, 180658, Note_on_c, 15, 45, 0
21, 180660, Note_on_c, 15, 43, 100
21, 180778, Note_on_c, 15, 43, 0
21, 180780, Note_on_c, 15, 43, 100
21, 180898, Note_on_c, 15, 43, 0
21, 180900, Note_on_c, 15, 43, 100
21, 181018, Note_on_c, 15, 43, 0
21, 181020, Note_on_c, 15, 42, 100
21, 181138, Note_on_c, 15, 42, 0
21, 181140, Note_on_c, 15, 42, 100
21, 181258, Note_on_c, 15, 42, 0
21, 181260, Note_on_c, 15, 42, 100
21, 181378, Note_on_c, 15, 42, 0
21, 181380, Note_on_c, 15, 47, 100
21, 181498, Note_on_c, 15, 47, 0
21, 181500, Note_on_c, 15, 47, 100
21, 181618, Note_on_c, 15, 47, 0
21, 181620, Note_on_c, 15, 47, 100
21, 181738, Note_on_c, 15, 47, 0
21, 181740, Note_on_c, 15, 49, 100
21, 181858, Note_on_c, 15, 49, 0
21, 181860, Note_on_c, 15, 49, 100
21, 181978, Note_on_c, 15, 49, 0
21, 181980, Note_on_c, 15, 49, 100
21, 182098, Note_on_c, 15, 49, 0
21, 182100, Note_on_c, 15, 50, 100
21, 182218, Note_on_c, 15, 50, 0
21, 182220, Note_on_c, 15, 50, 100
21, 182338, Note_on_c, 15, 50, 0
21, 182340, Note_on_c, 15, 50, 100
21, 182458, Note_on_c, 15, 50, 0
21, 182460, Note_on_c, 15, 51, 100
21, 182578, Note_on_c, 15, 51, 0
21, 182580, Note_on_c, 15, 51, 100
21, 182698, Note_on_c, 15, 51, 0
21, 182700, Note_on_c, 15, 51, 100
21, 182818, Note_on_c, 15, 51, 0
21, 182820, Note_on_c, 15, 52, 100
21, 182938, Note_on_c, 15, 52, 0
21, 182940, Note_on_c, 15, 52, 100
21, 183058, Note_on_c, 15, 52, 0
21, 183060, Note_on_c, 15, 52, 100
21, 183178, Note_on_c, 15, 52, 0
21, 183180, Note_on_c, 15, 54, 100
21, 183298, Note_on_c, 15, 54, 0
21, 183300, Note_on_c, 15, 54, 100
21, 183418, Note_on_c, 15, 54, 0
21, 183420, Note_on_c, 15, 54, 100
21, 183538, Note_on_c, 15, 54, 0
21, 183540, Note_on_c, 15, 55, 100
21, 183658, Note_on_c, 15, 55, 0
21, 183660, Note_on_c, 15, 55, 100
21, 183778, Note_on_c, 15, 55, 0
21, 183780, Note_on_c, 15, 55, 100
21, 183898, Note_on_c, 15, 55, 0
21, 183900, Note_on_c, 15, 57, 100
21, 184018, Note_on_c, 15, 57, 0
21, 184020, Note_on_c, 15, 57, 100
21, 184138, Note_on_c, 15, 57, 0
21, 184140, Note_on_c, 15, 57, 100
21, 184258, Note_on_c, 15, 57, 0
21, 184260, Note_on_c, 15, 57, 100
21, 184378, Note_on_c, 15, 57, 0
21, 184380, Note_on_c, 15, 55, 100
21, 184498, Note_on_c, 15, 55, 0
21, 184500, Note_on_c, 15, 55, 100
21, 184618, Note_on_c, 15, 55, 0
21, 184620, Note_on_c, 15, 55, 100
21, 184738, Note_on_c, 15, 55, 0
21, 184740, Note_on_c, 15, 54, 100
21, 184798, Note_on_c, 15, 54, 0
21, 184800, Note_on_c, 15, 52, 100
21, 184858, Note_on_c, 15, 52, 0
21, 184860, Note_on_c, 15, 50, 100
21, 184918, Note_on_c, 15, 50, 0
21, 184920, Note_on_c, 15, 49, 100
21, 184978, Note_on_c, 15, 49, 0
21, 184980, Note_on_c, 15, 47, 100
21, 185098, Note_on_c, 15, 47, 0
21, 185100, Note_on_c, 15, 52, 100
21, 185158, Note_on_c, 15, 52, 0
21, 185160, Note_on_c, 15, 50, 100
21, 185218, Note_on_c, 15, 50, 0
21, 185220, Note_on_c, 15, 49, 100
21, 185278, Note_on_c, 15, 49, 0
21, 185280, Note_on_c, 15, 47, 100
21, 185338, Note_on_c, 15, 47, 0
21, 185340, Note_on_c, 15, 45, 100
21, 185458, Note_on_c, 15, 45, 0
21, 185460, Note_on_c, 15, 50, 100
21, 185518, Note_on_c, 15, 50, 0
21, 185520, Note_on_c, 15, 49, 100
21, 185578, Note_on_c, 15, 49, 0
21, 185580, Note_on_c, 15, 47, 100
21, 185638, Note_on_c, 15, 47, 0
21, 185640, Note_on_c, 15, 45, 100
21, 185698, Note_on_c, 15, 45, 0
21, 185700, Note_on_c, 15, 43, 100
21, 185818, Note_on_c, 15, 43, 0
21, 185820, Note_on_c, 15, 45, 100
21, 185938, Note_on_c, 15, 45, 0
21, 185940, Note_on_c, 15, 45, 100
21, 186058, Note_on_c, 15, 45, 0
21, 186060, Note_on_c, 15, 50, 100
21, 186178, Note_on_c, 15, 50, 0
21, 186180, Note_on_c, 15, 50, 100
21, 186298, Note_on_c, 15, 50, 0
21, 186300, Note_on_c, 15, 50, 100
21, 186418, Note_on_c, 15, 50, 0
21, 186420, Note_on_c, 15, 49, 100
21, 186538, Note_on_c, 15, 49, 0
21, 186540, Note_on_c, 15, 49, 100
21, 186658, Note_on_c, 15, 49, 0
21, 186660, Note_on_c, 15, 49, 100
21, 186778, Note_on_c, 15, 49, 0
21, 186780, Note_on_c, 15, 48, 100
21, 186898, Note_on_c, 15, 48, 0
21, 186900, Note_on_c, 15, 48, 100
21, 187018, Note_on_c, 15, 48, 0
21, 187020, Note_on_c, 15, 48, 100
21, 187138, Note_on_c, 15, 48, 0
21, 187140, Note_on_c, 15, 47, 100
21, 187258, Note_on_c, 15, 47, 0
21, 187260, Note_on_c, 15, 47, 100
21, 187378, Note_on_c, 15, 47, 0
21, 187380, Note_on_c, 15, 47, 100
21, 187498, Note_on_c, 15, 47, 0
21, 187500, Note_on_c, 15, 45, 100
21, 187618, Note_on_c, 15, 45, 0
21, 187620, Note_on_c, 15, 45, 100
21, 187738, Note_on_c, 15, 45, 0
21, 187740, Note_on_c, 15, 45, 100
21, 187858, Note_on_c, 15, 45, 0
21, 187860, Note_on_c, 15, 44, 100
21, 187978, Note_on_c, 15, 44, 0
21, 187980, Note_on_c, 15, 44, 100
21, 188098, Note_on_c, 15, 44, 0
21, 188100, Note_on_c, 15, 44, 100
21, 188218, Note_on_c, 15, 44, 0
21, 188220, Note_on_c, 15, 43, 100
21, 188338, Note_on_c, 15, 43, 0
21, 188340, Note_on_c, 15, 43, 100
21, 188458, Note_on_c, 15, 43, 0
21, 188460, Note_on_c, 15, 43, 100
21, 188578, Note_on_c, 15, 43, 0
21, 188580, Note_on_c, 15, 42, 100
21, 188698, Note_on_c, 15, 42, 0
21, 188700, Note_on_c, 15, 37, 100
21, 188818, Note_on_c, 15, 37, 0
21, 188820, Note_on_c, 15, 37, 100
21, 188938, Note_on_c, 15, 37, 0
21, 188940, Note_on_c, 15, 38, 100
21, 189058, Note_on_c, 15, 38, 0
21, 189060, Note_on_c, 15, 50, 100
21, 189178, Note_on_c, 15, 50, 0
21, 189180, Note_on_c, 15, 49, 100
21, 189298, Note_on_c, 15, 49, 0
21, 189300, Note_on_c, 15, 47, 100
21, 189418, Note_on_c, 15, 47, 0
21, 189420, Note_on_c, 15, 55, 100
21, 189538, Note_on_c, 15, 55, 0
21, 189540, Note_on_c, 15, 54, 100
21, 189658, Note_on_c, 15, 54, 0
21, 189660, Note_on_c, 15, 53, 100
21, 189778, Note_on_c, 15, 53, 0
21, 189780, Note_on_c, 15, 53, 100
21, 189898, Note_on_c, 15, 53, 0
21, 189900, Note_on_c, 15, 53, 100
21, 190018, Note_on_c, 15, 53, 0
21, 190020, Note_on_c, 15, 54, 100
21, 190138, Note_on_c, 15, 54, 0
21, 190140, Note_on_c, 15, 54, 100
21, 190258, Note_on_c, 15, 54, 0
21, 190260, Note_on_c, 15, 52, 100
21, 190378, Note_on_c, 15, 52, 0
21, 190380, Note_on_c, 15, 51, 100
21, 190498, Note_on_c, 15, 51, 0
21, 190500, Note_on_c, 15, 51, 100
21, 190618, Note_on_c, 15, 51, 0
21, 190620, Note_on_c, 15, 51, 100
21, 190738, Note_on_c, 15, 51, 0
21, 190740, Note_on_c, 15, 52, 100
21, 190858, Note_on_c, 15, 52, 0
21, 190860, Note_on_c, 15, 52, 100
21, 190978, Note_on_c, 15, 52, 0
21, 190980, Note_on_c, 15, 52, 100
21, 191098, Note_on_c, 15, 52, 0
21, 191100, Note_on_c, 15, 47, 100
21, 191218, Note_on_c, 15, 47, 0
21, 191220, Note_on_c, 15, 49, 100
21, 191338, Note_on_c, 15, 49, 0
21, 191340, Note_on_c, 15, 51, 100
21, 191458, Note_on_c, 15, 51, 0
21, 191460, Note_on_c, 15, 52, 100
21, 191578, Note_on_c, 15, 52, 0
21, 191580, Note_on_c, 15, 54, 100
21, 191698, Note_on_c, 15, 54, 0
21, 191700, Note_on_c, 15, 55, 100
21, 191818, Note_on_c, 15, 55, 0
21, 191820, Note_on_c, 15, 51, 100
21, 191938, Note_on_c, 15, 51, 0
21, 191940, Note_on_c, 15, 49, 100
21, 192058, Note_on_c, 15, 49, 0
21, 192060, Note_on_c, 15, 47, 100
21, 192178, Note_on_c, 15, 47, 0
21, 192180, Note_on_c, 15, 52, 100
21, 192238, Note_on_c, 15, 52, 0
21, 192240, Note_on_c, 15, 47, 100
21, 192298, Note_on_c, 15, 47, 0
21, 192300, Note_on_c, 15, 45, 100
21, 192358, Note_on_c, 15, 45, 0
21, 192360, Note_on_c, 15, 43, 100
21, 192418, Note_on_c, 15, 43, 0
21, 192420, Note_on_c, 15, 42, 100
21, 192478, Note_on_c, 15, 42, 0
21, 192480, Note_on_c, 15, 40, 100
21, 192538, Note_on_c, 15, 40, 0
21, 192540, Note_on_c, 15, 47, 100
21, 192898, Note_on_c, 15, 47, 0
21, 192900, Note_on_c, 15, 35, 100
21, 193258, Note_on_c, 15, 35, 0
21, 193680, Program_c, 15, 7
21, 193740, Note_on_c, 15, 50, 100
21, 193978, Note_on_c, 15, 50, 0
21, 193980, Note_on_c, 15, 52, 100
21, 194098, Note_on_c, 15, 52, 0
21, 194100, Note_on_c, 15, 52, 100
21, 194218, Note_on_c, 15, 52, 0
21, 194220, Note_on_c, 15, 54, 100
21, 194278, Note_on_c, 15, 54, 0
21, 194280, Note_on_c, 15, 52, 100
21, 194338, Note_on_c, 15, 52, 0
21, 194340, Note_on_c, 15, 50, 100
21, 194398, Note_on_c, 15, 50, 0
21, 194400, Note_on_c, 15, 52, 100
21, 194458, Note_on_c, 15, 52, 0
21, 194460, Note_on_c, 15, 54, 100
21, 194518, Note_on_c, 15, 54, 0
21, 194520, Note_on_c, 15, 55, 100
21, 194578, Note_on_c, 15, 55, 0
21, 194580, Note_on_c, 15, 57, 100
21, 194698, Note_on_c, 15, 57, 0
21, 194700, Note_on_c, 15, 57, 100
21, 194818, Note_on_c, 15, 57, 0
21, 194820, Note_on_c, 15, 52, 100
21, 194938, Note_on_c, 15, 52, 0
21, 194940, Note_on_c, 15, 57, 100
21, 195058, Note_on_c, 15, 57, 0
21, 195060, Note_on_c, 15, 49, 100
21, 195178, Note_on_c, 15, 49, 0
21, 195180, Note_on_c, 15, 47, 100
21, 195418, Note_on_c, 15, 47, 0
21, 195420, Note_on_c, 15, 56, 100
21, 195658, Note_on_c, 15, 56, 0
21, 195660, Note_on_c, 15, 57, 100
21, 195898, Note_on_c, 15, 57, 0
21, 195900, Note_on_c, 15, 54, 100
21, 196078, Note_on_c, 15, 54, 0
21, 196080, Note_on_c, 15, 54, 100
21, 196138, Note_on_c, 15, 54, 0
21, 196140, Note_on_c, 15, 55, 100
21, 196258, Note_on_c, 15, 55, 0
21, 196260, Note_on_c, 15, 43, 100
21, 196378, Note_on_c, 15, 43, 0
21, 196380, Note_on_c, 15, 55, 100
21, 196498, Note_on_c, 15, 55, 0
21, 196500, Note_on_c, 15, 54, 100
21, 196558, Note_on_c, 15, 54, 0
21, 196560, Note_on_c, 15, 52, 100
21, 196618, Note_on_c, 15, 52, 0
21, 196620, Note_on_c, 15, 54, 100
21, 196678, Note_on_c, 15, 54, 0
21, 196680, Note_on_c, 15, 52, 100
21, 196738, Note_on_c, 15, 52, 0
21, 196740, Note_on_c, 15, 50, 100
21, 196798, Note_on_c, 15, 50, 0
21, 196800, Note_on_c, 15, 52, 100
21, 196858, Note_on_c, 15, 52, 0
21, 196860, Note_on_c, 15, 54, 100
21, 196918, Note_on_c, 15, 54, 0
21, 196920, Note_on_c, 15, 55, 100
21, 196978, Note_on_c, 15, 55, 0
21, 196980, Note_on_c, 15, 57, 100
21, 197098, Note_on_c, 15, 57, 0
21, 197100, Note_on_c, 15, 55, 100
21, 197218, Note_on_c, 15, 55, 0
21, 197220, Note_on_c, 15, 54, 100
21, 197338, Note_on_c, 15, 54, 0
21, 197340, Note_on_c, 15, 52, 100
21, 197578, Note_on_c, 15, 52, 0
21, 197580, Note_on_c, 15, 50, 100
21, 197698, Note_on_c, 15, 50, 0
21, 197700, Note_on_c, 15, 50, 100
21, 197818, Note_on_c, 15, 50, 0
21, 197820, Note_on_c, 15, 57, 100
21, 197938, Note_on_c, 15, 57, 0
21, 197940, Note_on_c, 15, 55, 100
21, 198058, Note_on_c, 15, 55, 0
21, 198060, Note_on_c, 15, 54, 100
21, 198238, Note_on_c, 15, 54, 0
21, 198240, Note_on_c, 15, 52, 100
21, 198298, Note_on_c, 15, 52, 0
21, 198300, Note_on_c, 15, 50, 100
21, 198538, Note_on_c, 15, 50, 0
21, 198780, Note_on_c, 15, 49, 100
21, 199018, Note_on_c, 15, 49, 0
21, 199020, Note_on_c, 15, 50, 100
21, 199258, Note_on_c, 15, 50, 0
21, 199260, Note_on_c, 15, 52, 100
21, 199498, Note_on_c, 15, 52, 0
21, 199500, Note_on_c, 15, 45, 100
21, 199738, Note_on_c, 15, 45, 0
21, 199860, Note_on_c, 15, 50, 100
21, 199978, Note_on_c, 15, 50, 0
21, 199980, Note_on_c, 15, 55, 100
21, 200098, Note_on_c, 15, 55, 0
21, 200100, Note_on_c, 15, 54, 100
21, 200218, Note_on_c, 15, 54, 0
21, 200220, Note_on_c, 15, 52, 100
21, 200398, Note_on_c, 15, 52, 0
21, 200400, Note_on_c, 15, 50, 100
21, 200458, Note_on_c, 15, 50, 0
21, 200460, Note_on_c, 15, 50, 100
21, 200578, Note_on_c, 15, 50, 0
21, 200580, Note_on_c, 15, 54, 100
21, 200698, Note_on_c, 15, 54, 0
21, 200700, Note_on_c, 15, 59, 100
21, 200818, Note_on_c, 15, 59, 0
21, 200820, Note_on_c, 15, 50, 100
21, 200938, Note_on_c, 15, 50, 0
21, 200940, Note_on_c, 15, 52, 100
21, 201058, Note_on_c, 15, 52, 0
21, 201060, Note_on_c, 15, 54, 100
21, 201178, Note_on_c, 15, 54, 0
21, 201180, Note_on_c, 15, 55, 100
21, 201418, Note_on_c, 15, 55, 0
21, 201420, Note_on_c, 15, 54, 100
21, 201538, Note_on_c, 15, 54, 0
21, 201540, Note_on_c, 15, 50, 100
21, 201658, Note_on_c, 15, 50, 0
21, 201660, Note_on_c, 15, 57, 100
21, 201778, Note_on_c, 15, 57, 0
21, 201780, Note_on_c, 15, 55, 100
21, 201898, Note_on_c, 15, 55, 0
21, 201900, Note_on_c, 15, 54, 100
21, 202078, Note_on_c, 15, 54, 0
21, 202080, Note_on_c, 15, 52, 100
21, 202138, Note_on_c, 15, 52, 0
21, 202140, Note_on_c, 15, 50, 100
21, 202378, Note_on_c, 15, 50, 0
21, 202620, Note_on_c, 15, 49, 100
21, 202858, Note_on_c, 15, 49, 0
21, 202860, Note_on_c, 15, 50, 100
21, 203098, Note_on_c, 15, 50, 0
21, 203100, Note_on_c, 15, 52, 100
21, 203338, Note_on_c, 15, 52, 0
21, 203340, Note_on_c, 15, 45, 100
21, 203578, Note_on_c, 15, 45, 0
21, 209100, Note_on_c, 15, 50, 100
21, 209338, Note_on_c, 15, 50, 0
21, 209340, Note_on_c, 15, 52, 100
21, 209458, Note_on_c, 15, 52, 0
21, 209460, Note_on_c, 15, 52, 100
21, 209578, Note_on_c, 15, 52, 0
21, 209580, Note_on_c, 15, 54, 100
21, 209638, Note_on_c, 15, 54, 0
21, 209640, Note_on_c, 15, 52, 100
21, 209698, Note_on_c, 15, 52, 0
21, 209700, Note_on_c, 15, 50, 100
21, 209758, Note_on_c, 15, 50, 0
21, 209760, Note_on_c, 15, 52, 100
21, 209818, Note_on_c, 15, 52, 0
21, 209820, Note_on_c, 15, 54, 100
21, 209878, Note_on_c, 15, 54, 0
21, 209880, Note_on_c, 15, 55, 100
21, 209938, Note_on_c, 15, 55, 0
21, 209940, Note_on_c, 15, 57, 100
21, 210058, Note_on_c, 15, 57, 0
21, 210060, Note_on_c, 15, 57, 100
21, 210178, Note_on_c, 15, 57, 0
21, 210180, Note_on_c, 15, 52, 100
21, 210298, Note_on_c, 15, 52, 0
21, 210300, Note_on_c, 15, 57, 100
21, 210418, Note_on_c, 15, 57, 0
21, 210420, Note_on_c, 15, 49, 100
21, 210538, Note_on_c, 15, 49, 0
21, 210540, Note_on_c, 15, 47, 100
21, 210778, Note_on_c, 15, 47, 0
21, 210780, Note_on_c, 15, 56, 100
21, 211018, Note_on_c, 15, 56, 0
21, 211020, Note_on_c, 15, 57, 100
21, 211258, Note_on_c, 15, 57, 0
21, 211260, Note_on_c, 15, 55, 100
21, 211438, Note_on_c, 15, 55, 0
21, 211440, Note_on_c, 15, 55, 100
21, 211498, Note_on_c, 15, 55, 0
21, 211500, Note_on_c, 15, 54, 100
21, 211738, Note_on_c, 15, 54, 0
21, 211740, Note_on_c, 15, 56, 100
21, 211918, Note_on_c, 15, 56, 0
21, 211920, Note_on_c, 15, 56, 100
21, 211978, Note_on_c, 15, 56, 0
21, 211980, Note_on_c, 15, 57, 100
21, 212098, Note_on_c, 15, 57, 0
21, 212100, Note_on_c, 15, 45, 100
21, 212218, Note_on_c, 15, 45, 0
21, 212220, Note_on_c, 15, 57, 100
21, 212338, Note_on_c, 15, 57, 0
21, 212340, Note_on_c, 15, 55, 100
21, 212398, Note_on_c, 15, 55, 0
21, 212400, Note_on_c, 15, 54, 100
21, 212458, Note_on_c, 15, 54, 0
21, 212460, Note_on_c, 15, 55, 100
21, 212578, Note_on_c, 15, 55, 0
21, 212580, Note_on_c, 15, 52, 100
21, 212698, Note_on_c, 15, 52, 0
21, 212700, Note_on_c, 15, 58, 100
21, 212878, Note_on_c, 15, 58, 0
21, 212880, Note_on_c, 15, 58, 100
21, 212938, Note_on_c, 15, 58, 0
21, 212940, Note_on_c, 15, 59, 100
21, 213058, Note_on_c, 15, 59, 0
21, 213060, Note_on_c, 15, 47, 100
21, 213178, Note_on_c, 15, 47, 0
21, 213180, Note_on_c, 15, 59, 100
21, 213298, Note_on_c, 15, 59, 0
21, 213300, Note_on_c, 15, 57, 100
21, 213358, Note_on_c, 15, 57, 0
21, 213360, Note_on_c, 15, 55, 100
21, 213418, Note_on_c, 15, 55, 0
21, 213420, Note_on_c, 15, 57, 100
21, 213538, Note_on_c, 15, 57, 0
21, 213540, Note_on_c, 15, 45, 100
21, 213658, Note_on_c, 15, 45, 0
21, 213660, Note_on_c, 15, 57, 100
21, 213778, Note_on_c, 15, 57, 0
21, 213780, Note_on_c, 15, 55, 100
21, 213838, Note_on_c, 15, 55, 0
21, 213840, Note_on_c, 15, 54, 100
21, 213898, Note_on_c, 15, 54, 0
21, 213900, Note_on_c, 15, 55, 100
21, 214018, Note_on_c, 15, 55, 0
21, 214020, Note_on_c, 15, 43, 100
21, 214138, Note_on_c, 15, 43, 0
21, 214140, Note_on_c, 15, 55, 100
21, 214258, Note_on_c, 15, 55, 0
21, 214260, Note_on_c, 15, 54, 100
21, 214318, Note_on_c, 15, 54, 0
21, 214320, Note_on_c, 15, 52, 100
21, 214378, Note_on_c, 15, 52, 0
21, 214380, Note_on_c, 15, 54, 100
21, 214498, Note_on_c, 15, 54, 0
21, 214500, Note_on_c, 15, 50, 100
21, 214558, Note_on_c, 15, 50, 0
21, 214560, Note_on_c, 15, 52, 100
21, 214618, Note_on_c, 15, 52, 0
21, 214620, Note_on_c, 15, 54, 100
21, 214738, Note_on_c, 15, 54, 0
21, 214740, Note_on_c, 15, 55, 100
21, 214858, Note_on_c, 15, 55, 0
21, 214860, Note_on_c, 15, 57, 100
21, 214978, Note_on_c, 15, 57, 0
21, 214980, Note_on_c, 15, 45, 100
21, 215098, Note_on_c, 15, 45, 0
21, 215100, Note_on_c, 15, 45, 100
21, 215218, Note_on_c, 15, 45, 0
21, 215220, Note_on_c, 15, 45, 100
21, 215338, Note_on_c, 15, 45, 0
21, 215340, Note_on_c, 15, 47, 100
21, 215398, Note_on_c, 15, 47, 0
21, 215400, Note_on_c, 15, 45, 100
21, 215458, Note_on_c, 15, 45, 0
21, 215460, Note_on_c, 15, 43, 100
21, 215518, Note_on_c, 15, 43, 0
21, 215520, Note_on_c, 15, 45, 100
21, 215578, Note_on_c, 15, 45, 0
21, 215580, Note_on_c, 15, 47, 100
21, 215638, Note_on_c, 15, 47, 0
21, 215640, Note_on_c, 15, 49, 100
21, 215698, Note_on_c, 15, 49, 0
21, 215700, Note_on_c, 15, 50, 100
21, 215818, Note_on_c, 15, 50, 0
21, 215820, Note_on_c, 15, 50, 100
21, 215938, Note_on_c, 15, 50, 0
21, 215940, Note_on_c, 15, 57, 100
21, 216058, Note_on_c, 15, 57, 0
21, 216060, Note_on_c, 15, 62, 100
21, 216178, Note_on_c, 15, 62, 0
21, 216180, Note_on_c, 15, 54, 100
21, 216298, Note_on_c, 15, 54, 0
21, 216300, Note_on_c, 15, 52, 100
21, 216538, Note_on_c, 15, 52, 0
21, 216540, Note_on_c, 15, 57, 100
21, 216778, Note_on_c, 15, 57, 0
21, 216780, Note_on_c, 15, 50, 100
21, 217018, Note_on_c, 15, 50, 0
21, 217020, Note_on_c, 15, 54, 100
21, 217198, Note_on_c, 15, 54, 0
21, 217200, Note_on_c, 15, 54, 100
21, 217258, Note_on_c, 15, 54, 0
21, 217260, Note_on_c, 15, 55, 100
21, 217378, Note_on_c, 15, 55, 0
21, 217380, Note_on_c, 15, 43, 100
21, 217498, Note_on_c, 15, 43, 0
21, 217500, Note_on_c, 15, 55, 100
21, 217858, Note_on_c, 15, 55, 0
21, 217860, Note_on_c, 15, 54, 100
21, 217918, Note_on_c, 15, 54, 0
21, 217920, Note_on_c, 15, 52, 100
21, 217978, Note_on_c, 15, 52, 0
21, 217980, Note_on_c, 15, 54, 100
21, 218038, Note_on_c, 15, 54, 0
21, 218040, Note_on_c, 15, 52, 100
21, 218098, Note_on_c, 15, 52, 0
21, 218100, Note_on_c, 15, 50, 100
21, 218158, Note_on_c, 15, 50, 0
21, 218160, Note_on_c, 15, 52, 100
21, 218218, Note_on_c, 15, 52, 0
21, 218220, Note_on_c, 15, 54, 100
21, 218278, Note_on_c, 15, 54, 0
21, 218280, Note_on_c, 15, 55, 100
21, 218338, Note_on_c, 15, 55, 0
21, 218340, Note_on_c, 15, 57, 100
21, 218458, Note_on_c, 15, 57, 0
21, 218460, Note_on_c, 15, 45, 100
21, 218638, Note_on_c, 15, 45, 0
21, 218640, Note_on_c, 15, 45, 100
21, 218698, Note_on_c, 15, 45, 0
21, 218700, Note_on_c, 15, 50, 100
21, 219178, Note_on_c, 15, 50, 0
21, 219660, Control_c, 15, 0, 0
21, 219660, Note_on_c, 15, 45, 100
21, 219780, Note_on_c, 15, 45, 0
21, 219840, Note_on_c, 15, 45, 100
21, 219880, Note_on_c, 15, 45, 0
21, 219900, Note_on_c, 15, 45, 100
21, 220060, Note_on_c, 15, 45, 0
21, 220140, Note_on_c, 15, 45, 100
21, 221577, Note_on_c, 15, 45, 0
21, 221580, Note_on_c, 15, 39, 100
21, 221700, Note_on_c, 15, 39, 0
21, 221760, Note_on_c, 15, 39, 100
21, 221800, Note_on_c, 15, 39, 0
21, 221820, Note_on_c, 15, 39, 100
21, 221980, Note_on_c, 15, 39, 0
21, 222060, Note_on_c, 15, 40, 100
21, 222298, Note_on_c, 15, 40, 0
21, 222300, Note_on_c, 15, 40, 100
21, 222538, Note_on_c, 15, 40, 0
21, 222540, Note_on_c, 15, 52, 100
21, 223978, Note_on_c, 15, 52, 0
21, 223980, Note_on_c, 15, 46, 90
21, 224160, Note_on_c, 15, 46, 0
21, 224160, Note_on_c, 15, 46, 90
21, 224220, Note_on_c, 15, 46, 0
21, 224220, Note_on_c, 15, 46, 90
21, 224460, Note_on_c, 15, 46, 0
21, 224460, Note_on_c, 15, 47, 90
21, 224640, Note_on_c, 15, 47, 0
21, 224640, Note_on_c, 15, 47, 90
21, 224700, Note_on_c, 15, 47, 0
21, 224700, Note_on_c, 15, 47, 90
21, 224940, Note_on_c, 15, 47, 0
21, 224940, Note_on_c, 15, 47, 90
21, 226140, Note_on_c, 15, 47, 0
21, 226140, Note_on_c, 15, 47, 90
21, 226180, Note_on_c, 15, 47, 0
21, 226180, Note_on_c, 15, 50, 90
21, 226220, Note_on_c, 15, 50, 0
21, 226220, Note_on_c, 15, 49, 90
21, 226260, Note_on_c, 15, 49, 0
21, 226260, Note_on_c, 15, 47, 90
21, 226300, Note_on_c, 15, 47, 0
21, 226300, Note_on_c, 15, 45, 90
21, 226340, Note_on_c, 15, 45, 0
21, 226340, Note_on_c, 15, 43, 90
21, 226380, Note_on_c, 15, 43, 0
21, 226380, Note_on_c, 15, 42, 90
21, 226500, Note_on_c, 15, 42, 0
21, 226500, Note_on_c, 15, 42, 90
21, 226560, Note_on_c, 15, 42, 0
21, 226560, Note_on_c, 15, 42, 90
21, 226620, Note_on_c, 15, 42, 0
21, 226620, Note_on_c, 15, 42, 90
21, 226740, Note_on_c, 15, 42, 0
21, 226740, Note_on_c, 15, 42, 90
21, 226860, Note_on_c, 15, 42, 0
21, 226860, Note_on_c, 15, 43, 90
21, 227040, Note_on_c, 15, 43, 0
21, 227040, Note_on_c, 15, 43, 90
21, 227100, Note_on_c, 15, 43, 0
21, 227100, Note_on_c, 15, 43, 90
21, 227580, Note_on_c, 15, 43, 0
21, 227580, Note_on_c, 15, 42, 90
21, 227820, Note_on_c, 15, 42, 0
21, 227820, Note_on_c, 15, 47, 90
21, 228300, Note_on_c, 15, 47, 0
21, 228300, Note_on_c, 15, 45, 90
21, 228780, Note_on_c, 15, 45, 0
21, 228780, Note_on_c, 15, 62, 90
21, 228839, Note_on_c, 15, 62, 0
21, 228840, Note_on_c, 15, 50, 90
21, 228899, Note_on_c, 15, 50, 0
21, 229140, Note_on_c, 15, 59, 90
21, 229199, Note_on_c, 15, 59, 0
21, 229200, Note_on_c, 15, 47, 90
21, 229259, Note_on_c, 15, 47, 0
21, 229500, Note_on_c, 15, 54, 90
21, 229559, Note_on_c, 15, 54, 0
21, 229560, Note_on_c, 15, 42, 90
21, 229619, Note_on_c, 15, 42, 0
21, 229680, Note_on_c, 15, 54, 90
21, 229709, Note_on_c, 15, 54, 0
21, 229710, Note_on_c, 15, 55, 90
21, 229739, Note_on_c, 15, 55, 0
21, 229740, Note_on_c, 15, 57, 90
21, 229799, Note_on_c, 15, 57, 0
21, 229800, Note_on_c, 15, 45, 90
21, 229859, Note_on_c, 15, 45, 0
21, 229860, Note_on_c, 15, 50, 90
21, 229919, Note_on_c, 15, 50, 0
21, 229920, Note_on_c, 15, 62, 90
21, 229949, Note_on_c, 15, 62, 0
21, 229950, Note_on_c, 15, 61, 90
21, 229979, Note_on_c, 15, 61, 0
21, 229980, Note_on_c, 15, 59, 90
21, 230039, Note_on_c, 15, 59, 0
21, 230040, Note_on_c, 15, 57, 90
21, 230069, Note_on_c, 15, 57, 0
21, 230070, Note_on_c, 15, 55, 90
21, 230099, Note_on_c, 15, 55, 0
21, 230100, Note_on_c, 15, 57, 90
21, 230159, Note_on_c, 15, 57, 0
21, 230160, Note_on_c, 15, 45, 90
21, 230219, Note_on_c, 15, 45, 0
21, 230220, Note_on_c, 15, 50, 90
21, 230279, Note_on_c, 15, 50, 0
21, 230280, Note_on_c, 15, 62, 90
21, 230339, Note_on_c, 15, 62, 0
21, 230580, Note_on_c, 15, 47, 90
21, 230639, Note_on_c, 15, 47, 0
21, 230640, Note_on_c, 15, 59, 90
21, 230699, Note_on_c, 15, 59, 0
21, 230940, Note_on_c, 15, 42, 90
21, 230999, Note_on_c, 15, 42, 0
21, 231000, Note_on_c, 15, 54, 90
21, 231059, Note_on_c, 15, 54, 0
21, 231120, Note_on_c, 15, 54, 90
21, 231149, Note_on_c, 15, 54, 0
21, 231150, Note_on_c, 15, 55, 90
21, 231179, Note_on_c, 15, 55, 0
21, 231180, Note_on_c, 15, 57, 90
21, 231239, Note_on_c, 15, 57, 0
21, 231240, Note_on_c, 15, 45, 90
21, 231299, Note_on_c, 15, 45, 0
21, 231300, Note_on_c, 15, 50, 90
21, 231359, Note_on_c, 15, 50, 0
21, 231360, Note_on_c, 15, 62, 90
21, 231389, Note_on_c, 15, 62, 0
21, 231390, Note_on_c, 15, 61, 90
21, 231419, Note_on_c, 15, 61, 0
21, 231420, Note_on_c, 15, 59, 90
21, 231479, Note_on_c, 15, 59, 0
21, 231480, Note_on_c, 15, 57, 90
21, 231509, Note_on_c, 15, 57, 0
21, 231510, Note_on_c, 15, 55, 90
21, 231539, Note_on_c, 15, 55, 0
21, 231540, Note_on_c, 15, 57, 90
21, 231599, Note_on_c, 15, 57, 0
21, 231600, Note_on_c, 15, 45, 90
21, 231659, Note_on_c, 15, 45, 0
21, 231660, Note_on_c, 15, 50, 90
21, 231719, Note_on_c, 15, 50, 0
21, 231720, Note_on_c, 15, 38, 90
21, 231779, Note_on_c, 15, 38, 0
21, 231840, Note_on_c, 15, 62, 90
21, 231899, Note_on_c, 15, 62, 0
21, 231900, Note_on_c, 15, 61, 90
21, 231959, Note_on_c, 15, 61, 0
21, 231960, Note_on_c, 15, 57, 90
21, 232019, Note_on_c, 15, 57, 0
21, 232020, Note_on_c, 15, 59, 90
21, 232079, Note_on_c, 15, 59, 0
21, 232080, Note_on_c, 15, 47, 90
21, 232139, Note_on_c, 15, 47, 0
21, 232200, Note_on_c, 15, 59, 90
21, 232259, Note_on_c, 15, 59, 0
21, 232260, Note_on_c, 15, 57, 90
21, 232319, Note_on_c, 15, 57, 0
21, 232320, Note_on_c, 15, 54, 90
21, 232379, Note_on_c, 15, 54, 0
21, 232380, Note_on_c, 15, 55, 90
21, 232439, Note_on_c, 15, 55, 0
21, 232440, Note_on_c, 15, 43, 90
21, 232499, Note_on_c, 15, 43, 0
21, 232560, Note_on_c, 15, 55, 90
21, 232619, Note_on_c, 15, 55, 0
21, 232620, Note_on_c, 15, 54, 90
21, 232679, Note_on_c, 15, 54, 0
21, 232680, Note_on_c, 15, 50, 90
21, 232739, Note_on_c, 15, 50, 0
21, 232740, Note_on_c, 15, 52, 90
21, 232799, Note_on_c, 15, 52, 0
21, 232800, Note_on_c, 15, 40, 90
21, 232859, Note_on_c, 15, 40, 0
21, 232920, Note_on_c, 15, 52, 90
21, 232979, Note_on_c, 15, 52, 0
21, 232980, Note_on_c, 15, 51, 90
21, 233039, Note_on_c, 15, 51, 0
21, 233040, Note_on_c, 15, 47, 90
21, 233099, Note_on_c, 15, 47, 0
21, 233100, Note_on_c, 15, 52, 90
21, 233159, Note_on_c, 15, 52, 0
21, 233160, Note_on_c, 15, 40, 90
21, 233219, Note_on_c, 15, 40, 0
21, 233280, Note_on_c, 15, 52, 90
21, 233309, Note_on_c, 15, 52, 0
21, 233310, Note_on_c, 15, 54, 90
21, 233339, Note_on_c, 15, 54, 0
21, 233340, Note_on_c, 15, 55, 90
21, 233369, Note_on_c, 15, 55, 0
21, 233370, Note_on_c, 15, 57, 90
21, 233399, Note_on_c, 15, 57, 0
21, 233400, Note_on_c, 15, 59, 90
21, 233459, Note_on_c, 15, 59, 0
21, 233460, Note_on_c, 15, 49, 90
21, 233519, Note_on_c, 15, 49, 0
21, 233520, Note_on_c, 15, 61, 90
21, 233579, Note_on_c, 15, 61, 0
21, 233640, Note_on_c, 15, 49, 90
21, 233669, Note_on_c, 15, 49, 0
21, 233670, Note_on_c, 15, 50, 90
21, 233699, Note_on_c, 15, 50, 0
21, 233700, Note_on_c, 15, 52, 90
21, 233729, Note_on_c, 15, 52, 0
21, 233730, Note_on_c, 15, 54, 90
21, 233759, Note_on_c, 15, 54, 0
21, 233760, Note_on_c, 15, 55, 90
21, 233819, Note_on_c, 15, 55, 0
21, 233820, Note_on_c, 15, 45, 90
21, 233879, Note_on_c, 15, 45, 0
21, 233880, Note_on_c, 15, 57, 90
21, 233939, Note_on_c, 15, 57, 0
21, 234000, Note_on_c, 15, 45, 90
21, 234029, Note_on_c, 15, 45, 0
21, 234030, Note_on_c, 15, 47, 90
21, 234059, Note_on_c, 15, 47, 0
21, 234060, Note_on_c, 15, 49, 90
21, 234089, Note_on_c, 15, 49, 0
21, 234090, Note_on_c, 15, 50, 90
21, 234119, Note_on_c, 15, 50, 0
21, 234120, Note_on_c, 15, 52, 90
21, 234179, Note_on_c, 15, 52, 0
21, 234180, Note_on_c, 15, 42, 90
21, 234239, Note_on_c, 15, 42, 0
21, 234240, Note_on_c, 15, 54, 90
21, 234299, Note_on_c, 15, 54, 0
21, 234360, Note_on_c, 15, 42, 90
21, 234389, Note_on_c, 15, 42, 0
21, 234390, Note_on_c, 15, 43, 90
21, 234419, Note_on_c, 15, 43, 0
21, 234420, Note_on_c, 15, 45, 90
21, 234449, Note_on_c, 15, 45, 0
21, 234450, Note_on_c, 15, 47, 90
21, 234479, Note_on_c, 15, 47, 0
21, 234480, Note_on_c, 15, 49, 90
21, 234539, Note_on_c, 15, 49, 0
21, 234540, Note_on_c, 15, 38, 90
21, 234599, Note_on_c, 15, 38, 0
21, 234600, Note_on_c, 15, 50, 90
21, 234659, Note_on_c, 15, 50, 0
21, 234900, Note_on_c, 15, 47, 90
21, 234959, Note_on_c, 15, 47, 0
21, 234960, Note_on_c, 15, 59, 90
21, 235019, Note_on_c, 15, 59, 0
21, 235260, Note_on_c, 15, 42, 90
21, 235289, Note_on_c, 15, 42, 0
21, 235290, Note_on_c, 15, 50, 90
21, 235319, Note_on_c, 15, 50, 0
21, 235320, Note_on_c, 15, 49, 90
21, 235349, Note_on_c, 15, 49, 0
21, 235350, Note_on_c, 15, 47, 90
21, 235379, Note_on_c, 15, 47, 0
21, 235380, Note_on_c, 15, 45, 90
21, 235409, Note_on_c, 15, 45, 0
21, 235410, Note_on_c, 15, 43, 90
21, 235439, Note_on_c, 15, 43, 0
21, 235440, Note_on_c, 15, 42, 90
21, 235469, Note_on_c, 15, 42, 0
21, 235470, Note_on_c, 15, 43, 90
21, 235499, Note_on_c, 15, 43, 0
21, 235500, Note_on_c, 15, 45, 90
21, 235529, Note_on_c, 15, 45, 0
21, 235530, Note_on_c, 15, 47, 90
21, 235559, Note_on_c, 15, 47, 0
21, 235560, Note_on_c, 15, 45, 90
21, 235589, Note_on_c, 15, 45, 0
21, 235590, Note_on_c, 15, 47, 90
21, 235619, Note_on_c, 15, 47, 0
21, 235620, Note_on_c, 15, 45, 90
21, 235649, Note_on_c, 15, 45, 0
21, 235650, Note_on_c, 15, 50, 90
21, 235679, Note_on_c, 15, 50, 0
21, 235680, Note_on_c, 15, 49, 90
21, 235709, Note_on_c, 15, 49, 0
21, 235710, Note_on_c, 15, 47, 90
21, 235739, Note_on_c, 15, 47, 0
21, 235740, Note_on_c, 15, 45, 90
21, 235769, Note_on_c, 15, 45, 0
21, 235770, Note_on_c, 15, 43, 90
21, 235799, Note_on_c, 15, 43, 0
21, 235800, Note_on_c, 15, 42, 90
21, 235829, Note_on_c, 15, 42, 0
21, 235830, Note_on_c, 15, 43, 90
21, 235859, Note_on_c, 15, 43, 0
21, 235860, Note_on_c, 15, 45, 90
21, 235889, Note_on_c, 15, 45, 0
21, 235890, Note_on_c, 15, 47, 90
21, 235919, Note_on_c, 15, 47, 0
21, 235920, Note_on_c, 15, 43, 90
21, 235949, Note_on_c, 15, 43, 0
21, 235950, Note_on_c, 15, 45, 90
21, 235979, Note_on_c, 15, 45, 0
21, 235980, Note_on_c, 15, 47, 90
21, 236039, Note_on_c, 15, 47, 0
21, 236040, Note_on_c, 15, 45, 90
21, 236069, Note_on_c, 15, 45, 0
21, 236070, Note_on_c, 15, 43, 90
21, 236099, Note_on_c, 15, 43, 0
21, 236100, Note_on_c, 15, 42, 90
21, 236129, Note_on_c, 15, 42, 0
21, 236130, Note_on_c, 15, 40, 90
21, 236159, Note_on_c, 15, 40, 0
21, 236160, Note_on_c, 15, 38, 90
21, 236189, Note_on_c, 15, 38, 0
21, 236190, Note_on_c, 15, 40, 90
21, 236219, Note_on_c, 15, 40, 0
21, 236220, Note_on_c, 15, 42, 90
21, 236249, Note_on_c, 15, 42, 0
21, 236250, Note_on_c, 15, 43, 90
21, 236279, Note_on_c, 15, 43, 0
21, 236280, Note_on_c, 15, 45, 90
21, 236339, Note_on_c, 15, 45, 0
21, 236340, Note_on_c, 15, 50, 90
21, 236399, Note_on_c, 15, 50, 0
21, 236400, Note_on_c, 15, 47, 90
21, 236459, Note_on_c, 15, 47, 0
21, 236460, Note_on_c, 15, 42, 90
21, 236519, Note_on_c, 15, 42, 0
21, 236520, Note_on_c, 15, 43, 90
21, 236579, Note_on_c, 15, 43, 0
21, 236580, Note_on_c, 15, 45, 90
21, 236699, Note_on_c, 15, 45, 0
21, 236700, Note_on_c, 15, 38, 90
21, 236819, Note_on_c, 15, 38, 0
21, 236819, End_track
22, 0, Start_track
22, 0, MIDI_port, 0
22, 0, End_track
23, 0, Start_track
23, 0, MIDI_port, 0
23, 0, Title_t, "J.S.BACH"
23, 0, End_track
24, 0, Start_track
24, 0, MIDI_port, 0
24, 0, Title_t, "BWV 243"
24, 0, End_track
25, 0, Start_track
25, 0, MIDI_port, 0
25, 0, Title_t, "MAGNIFICAT IN D MAJOR"
25, 0, End_track
26, 0, Start_track
26, 0, MIDI_port, 0
26, 0, Title_t, "SECUENCED BY"
26, 0, End_track
27, 0, Start_track
27, 0, MIDI_port, 0
27, 0, Title_t, "MARCELO COPIA M."
27, 0, End_track
28, 0, Start_track
28, 0, MIDI_port, 0
28, 0, Title_t, "mcopia@entelchile.net"
28, 0, End_track
0, 0, End_of_file
