0, 0, Header, 1, 19, 120
1, 0, Start_track
1, 0, Time_signature, 3, 3, 12, 8
1, 0, Key_signature, 2, "major"
1, 0, Tempo, 750000
1, 0, Marker_t, "Coro: Herr, wenn die stolzen Feinde schnauben"
1, 43560, Time_signature, 4, 2, 24, 8
1, 43560, Tempo, 857143
1, 43560, Marker_t, "Recit Evangelist & Herodes"
1, 48840, Marker_t, "Recit Soprano"
1, 54120, Time_signature, 3, 2, 24, 8
1, 54120, Key_signature, 3, "major"
1, 54120, Tempo, 1000000
1, 54120, Marker_t, "Aria Soprano: Nur ein Wink von seinen Händen"
1, 89040, Time_signature, 4, 2, 24, 8
1, 89040, Key_signature, 2, "major"
1, 89040, Marker_t, "Recit. Evangelist"
1, 96720, Key_signature, 1, "major"
1, 96720, Tempo, 1000000
1, 97080, Marker_t, "Choral"
1, 97922, Tempo, 1008403
1, 97942, Tempo, 1016949
1, 97948, Tempo, 1025641
1, 97952, Tempo, 1043478
1, 97954, Tempo, 1052632
1, 97958, Tempo, 1061947
1, 97960, Tempo, 1081081
1, 97962, Tempo, 1090909
1, 97964, Tempo, 1100917
1, 97968, Tempo, 1132075
1, 97972, Tempo, 1153846
1, 97974, Tempo, 1165049
1, 97976, Tempo, 1176471
1, 97978, Tempo, 1200000
1, 97982, Tempo, 1212121
1, 97984, Tempo, 1237113
1, 97986, Tempo, 1263158
1, 97988, Tempo, 1276596
1, 97990, Tempo, 1304348
1, 97992, Tempo, 1318681
1, 97996, Tempo, 1333333
1, 97998, Tempo, 1348315
1, 98000, Tempo, 1363636
1, 98003, Tempo, 1395349
1, 98006, Tempo, 1428571
1, 98013, Tempo, 1578947
1, 98016, Tempo, 1714286
1, 98020, Tempo, 2068966
1, 98023, Tempo, 2264151
1, 98026, Tempo, 5217391
1, 98036, Tempo, 5454545
1, 98040, Tempo, 1008403
1, 98676, Tempo, 1008403
1, 98686, Tempo, 1016949
1, 98698, Tempo, 1025641
1, 98702, Tempo, 1034483
1, 98714, Tempo, 1043478
1, 98718, Tempo, 1052632
1, 98722, Tempo, 1061947
1, 98726, Tempo, 1071429
1, 98730, Tempo, 1081081
1, 98734, Tempo, 1100917
1, 98742, Tempo, 1121495
1, 98746, Tempo, 1132075
1, 98750, Tempo, 1142857
1, 98762, Tempo, 1165049
1, 98774, Tempo, 1188119
1, 98778, Tempo, 1200000
1, 98790, Tempo, 1224490
1, 98794, Tempo, 1237113
1, 98798, Tempo, 1250000
1, 98802, Tempo, 1263158
1, 98806, Tempo, 1290323
1, 98810, Tempo, 1304348
1, 98822, Tempo, 1333333
1, 98826, Tempo, 1348315
1, 98838, Tempo, 1379310
1, 98842, Tempo, 1395349
1, 98854, Tempo, 1411765
1, 98858, Tempo, 1428571
1, 98862, Tempo, 1445783
1, 98866, Tempo, 1463415
1, 98870, Tempo, 1481481
1, 98884, Tempo, 1500000
1, 98902, Tempo, 1518987
1, 98923, Tempo, 1538462
1, 98936, Tempo, 1578947
1, 98956, Tempo, 1764706
1, 98963, Tempo, 2000000
1, 98966, Tempo, 2222222
1, 98973, Tempo, 2448980
1, 98993, Tempo, 2500000
1, 99002, Tempo, 1000000
1, 99738, Tempo, 1000000
1, 99748, Tempo, 1008403
1, 99752, Tempo, 1016949
1, 99764, Tempo, 1025641
1, 99776, Tempo, 1034483
1, 99792, Tempo, 1043478
1, 99808, Tempo, 1052632
1, 99824, Tempo, 1071429
1, 99836, Tempo, 1081081
1, 99852, Tempo, 1090909
1, 99856, Tempo, 1100917
1, 99872, Tempo, 1111111
1, 99888, Tempo, 1121495
1, 99893, Tempo, 1153846
1, 99896, Tempo, 1176471
1, 99900, Tempo, 1250000
1, 99903, Tempo, 1363636
1, 99906, Tempo, 1538462
1, 99913, Tempo, 1935484
1, 99916, Tempo, 2608696
1, 99920, Tempo, 2727273
1, 99923, Tempo, 2790698
1, 99926, Tempo, 2857143
1, 99930, Tempo, 3000000
1, 99936, Tempo, 3157895
1, 99943, Tempo, 3428571
1, 99950, Tempo, 3529412
1, 99953, Tempo, 3636364
1, 99960, Tempo, 1008403
1, 100670, Tempo, 1000000
1, 100694, Tempo, 1008403
1, 100698, Tempo, 1016949
1, 100714, Tempo, 1034483
1, 100718, Tempo, 1043478
1, 100722, Tempo, 1052632
1, 100726, Tempo, 1061947
1, 100730, Tempo, 1081081
1, 100734, Tempo, 1090909
1, 100738, Tempo, 1111111
1, 100750, Tempo, 1121495
1, 100754, Tempo, 1142857
1, 100770, Tempo, 1165049
1, 100774, Tempo, 1176471
1, 100778, Tempo, 1200000
1, 100794, Tempo, 1212121
1, 100798, Tempo, 1237113
1, 100802, Tempo, 1250000
1, 100818, Tempo, 1276596
1, 100822, Tempo, 1290323
1, 100834, Tempo, 1318681
1, 100838, Tempo, 1333333
1, 100842, Tempo, 1348315
1, 100846, Tempo, 1363636
1, 100850, Tempo, 1411765
1, 100856, Tempo, 1518987
1, 100876, Tempo, 1643836
1, 100883, Tempo, 1846154
1, 100890, Tempo, 2033898
1, 100893, Tempo, 2264151
1, 100900, Tempo, 2400000
1, 100903, Tempo, 2448980
1, 100918, Tempo, 1000000
1, 101672, Tempo, 1052632
1, 101674, Tempo, 1034483
1, 101678, Tempo, 1000000
1, 101680, Tempo, 1111111
1, 101682, Tempo, 1121495
1, 101684, Tempo, 1142857
1, 101686, Tempo, 1153846
1, 101690, Tempo, 1176471
1, 101692, Tempo, 1200000
1, 101694, Tempo, 1224490
1, 101698, Tempo, 1250000
1, 101702, Tempo, 1263158
1, 101706, Tempo, 1290323
1, 101710, Tempo, 1318681
1, 101722, Tempo, 1333333
1, 101734, Tempo, 1363636
1, 101738, Tempo, 1395349
1, 101754, Tempo, 1428571
1, 101766, Tempo, 1463415
1, 101778, Tempo, 1500000
1, 101790, Tempo, 1538462
1, 101802, Tempo, 1558442
1, 101806, Tempo, 1578947
1, 101818, Tempo, 1600000
1, 101830, Tempo, 1621622
1, 101874, Tempo, 1600000
1, 101878, Tempo, 1000000
1, 102688, Tempo, 1000000
1, 102692, Tempo, 1025641
1, 102696, Tempo, 1043478
1, 102698, Tempo, 1061947
1, 102700, Tempo, 1071429
1, 102702, Tempo, 1090909
1, 102704, Tempo, 1100917
1, 102706, Tempo, 1111111
1, 102710, Tempo, 1132075
1, 102712, Tempo, 1142857
1, 102714, Tempo, 1165049
1, 102726, Tempo, 1188119
1, 102730, Tempo, 1212121
1, 102742, Tempo, 1290323
1, 102758, Tempo, 1318681
1, 102774, Tempo, 1348315
1, 102790, Tempo, 1363636
1, 102806, Tempo, 1395349
1, 102838, Tempo, 1000000
1, 103428, Tempo, 1000000
1, 103438, Tempo, 1008403
1, 103450, Tempo, 1016949
1, 103454, Tempo, 1025641
1, 103466, Tempo, 1034483
1, 103478, Tempo, 1052632
1, 103494, Tempo, 1061947
1, 103510, Tempo, 1081081
1, 103522, Tempo, 1090909
1, 103534, Tempo, 1100917
1, 103546, Tempo, 1121495
1, 103550, Tempo, 1132075
1, 103562, Tempo, 1142857
1, 103566, Tempo, 1153846
1, 103570, Tempo, 1176471
1, 103594, Tempo, 1200000
1, 103598, Tempo, 1212121
1, 103614, Tempo, 1224490
1, 103630, Tempo, 1250000
1, 103646, Tempo, 1263158
1, 103658, Tempo, 1276596
1, 103674, Tempo, 1290323
1, 103690, Tempo, 1318681
1, 103702, Tempo, 1333333
1, 103718, Tempo, 1348315
1, 103734, Tempo, 1363636
1, 103742, Tempo, 1379310
1, 103800, Tempo, 1008403
1, 103920, Key_signature, 2, "major"
1, 103920, Marker_t, "Recit. Evangelist"
1, 106320, Marker_t, "Recit. Tenore"
1, 108080, Tempo, 911162
1, 108340, Tempo, 911162
1, 108343, Tempo, 911162
1, 108346, Tempo, 919540
1, 108350, Tempo, 929512
1, 108353, Tempo, 939702
1, 108356, Tempo, 950119
1, 108360, Tempo, 960769
1, 108363, Tempo, 971660
1, 108366, Tempo, 982801
1, 108370, Tempo, 994200
1, 108373, Tempo, 1004184
1, 108376, Tempo, 1016088
1, 108380, Tempo, 1028278
1, 108383, Tempo, 1040763
1, 108386, Tempo, 1053556
1, 108433, Tempo, 1000834
1, 109743, Tempo, 909780
1, 109916, Tempo, 1152738
1, 109983, Tempo, 1000834
1, 110876, Tempo, 901578
1, 111086, Tempo, 1152738
1, 111156, Tempo, 999167
1, 112116, Tempo, 893522
1, 112320, Tempo, 997506
1, 113040, Tempo, 893522
1, 113223, Tempo, 1000834
1, 113520, Tempo, 893522
1, 113756, Tempo, 1152738
1, 113816, Tempo, 997506
1, 114713, Tempo, 997506
1, 114720, Tempo, 999167
1, 114726, Tempo, 1000834
1, 114733, Tempo, 1002506
1, 114740, Tempo, 1004184
1, 114743, Tempo, 1005868
1, 114750, Tempo, 1007557
1, 114756, Tempo, 1009251
1, 114763, Tempo, 1010952
1, 114766, Tempo, 1012658
1, 114773, Tempo, 1014370
1, 114780, Tempo, 1016088
1, 114786, Tempo, 1017812
1, 114793, Tempo, 1019541
1, 114796, Tempo, 1021277
1, 114803, Tempo, 1023018
1, 114810, Tempo, 1024765
1, 114816, Tempo, 1026518
1, 114820, Tempo, 1028278
1, 114826, Tempo, 1030043
1, 114833, Tempo, 1031814
1, 114840, Tempo, 1033592
1, 114846, Tempo, 1035375
1, 114850, Tempo, 1037165
1, 114856, Tempo, 1038961
1, 114863, Tempo, 1040763
1, 114870, Tempo, 1042572
1, 114873, Tempo, 1044386
1, 114880, Tempo, 1046207
1, 114886, Tempo, 1048035
1, 114893, Tempo, 1049869
1, 114896, Tempo, 1051709
1, 114903, Tempo, 1053556
1, 114910, Tempo, 1055409
1, 114916, Tempo, 1057269
1, 114923, Tempo, 1059135
1, 114926, Tempo, 1061008
1, 114933, Tempo, 1062888
1, 114940, Tempo, 1064774
1, 114946, Tempo, 1066667
1, 114950, Tempo, 1068566
1, 114956, Tempo, 1070473
1, 114963, Tempo, 1072386
1, 114970, Tempo, 1074306
1, 114976, Tempo, 1076233
1, 114980, Tempo, 1078167
1, 114986, Tempo, 1080108
1, 114993, Tempo, 1082056
1, 115000, Tempo, 1084011
1, 115003, Tempo, 1085973
1, 115010, Tempo, 1087942
1, 115016, Tempo, 1089918
1, 115023, Tempo, 1091902
1, 115030, Tempo, 1093892
1, 115033, Tempo, 1095890
1, 115040, Tempo, 1097896
1, 115046, Tempo, 1099908
1, 115053, Tempo, 1101928
1, 115056, Tempo, 1103956
1, 115063, Tempo, 1105991
1, 115070, Tempo, 1108033
1, 115076, Tempo, 1110083
1, 115080, Tempo, 1112141
1, 116400, Time_signature, 2, 2, 24, 8
1, 116400, Tempo, 750000
1, 116400, Marker_t, "Aria Tenore: Nun mögt ihr stolzen Feinde schrecken"
1, 124143, Tempo, 1034483
1, 124153, Tempo, 1967213
1, 124166, Tempo, 2000000
1, 124203, Tempo, 750939
1, 141120, Tempo, 1518987
1, 141536, Tempo, 754717
1, 149113, Tempo, 1935484
1, 149223, Tempo, 754717
1, 154323, Tempo, 2000000
1, 154500, Tempo, 1250000
1, 154853, Tempo, 754717
1, 158880, Time_signature, 4, 2, 24, 8
1, 158880, Tempo, 1000000
1, 158880, Marker_t, "Recit. Sop, Alto, Ten & Bass"
1, 162600, Tempo, 1200000
1, 163200, Tempo, 750000
1, 163200, Marker_t, "Choral: Nun seid ihr wohl gerochen"
1, 195716, Tempo, 754717
1, 195730, Tempo, 759494
1, 195740, Tempo, 764331
1, 195753, Tempo, 769231
1, 195763, Tempo, 774194
1, 195776, Tempo, 779221
1, 195786, Tempo, 784314
1, 195800, Tempo, 789474
1, 195810, Tempo, 794702
1, 195823, Tempo, 800000
1, 195833, Tempo, 805369
1, 195846, Tempo, 810811
1, 195856, Tempo, 816327
1, 195870, Tempo, 821918
1, 195880, Tempo, 827586
1, 195893, Tempo, 833333
1, 195903, Tempo, 839161
1, 195916, Tempo, 845070
1, 195926, Tempo, 851064
1, 195940, Tempo, 857143
1, 195950, Tempo, 863309
1, 195963, Tempo, 869565
1, 195973, Tempo, 875912
1, 195986, Tempo, 882353
1, 195996, Tempo, 888889
1, 196010, Tempo, 895522
1, 196020, Tempo, 902256
1, 196033, Tempo, 909091
1, 196043, Tempo, 916031
1, 196056, Tempo, 923077
1, 196066, Tempo, 930233
1, 196080, Tempo, 937500
1, 196090, Tempo, 944882
1, 196090, End_track
2, 0, Start_track
2, 0, MIDI_port, 0
2, 0, Title_t, "Tromba I"
2, 0, Program_c, 0, 56
2, 0, Control_c, 0, 7, 127
2, 0, Control_c, 0, 10, 37
2, 0, Control_c, 0, 91, 114
2, 120, Note_on_c, 0, 69, 80
2, 179, Note_on_c, 0, 69, 0
2, 180, Note_on_c, 0, 74, 90
2, 299, Note_on_c, 0, 74, 0
2, 300, Note_on_c, 0, 69, 80
2, 359, Note_on_c, 0, 69, 0
2, 360, Note_on_c, 0, 76, 90
2, 479, Note_on_c, 0, 76, 0
2, 480, Note_on_c, 0, 69, 80
2, 539, Note_on_c, 0, 69, 0
2, 540, Note_on_c, 0, 78, 90
2, 599, Note_on_c, 0, 78, 0
2, 600, Note_on_c, 0, 76, 80
2, 629, Note_on_c, 0, 76, 0
2, 630, Note_on_c, 0, 78, 80
2, 659, Note_on_c, 0, 78, 0
2, 660, Note_on_c, 0, 79, 80
2, 689, Note_on_c, 0, 79, 0
2, 690, Note_on_c, 0, 76, 80
2, 719, Note_on_c, 0, 76, 0
2, 720, Note_on_c, 0, 79, 90
2, 749, Note_on_c, 0, 79, 0
2, 750, Note_on_c, 0, 78, 90
2, 779, Note_on_c, 0, 78, 0
2, 780, Note_on_c, 0, 76, 80
2, 809, Note_on_c, 0, 76, 0
2, 810, Note_on_c, 0, 74, 80
2, 839, Note_on_c, 0, 74, 0
2, 840, Note_on_c, 0, 78, 80
2, 869, Note_on_c, 0, 78, 0
2, 870, Note_on_c, 0, 76, 80
2, 899, Note_on_c, 0, 76, 0
2, 900, Note_on_c, 0, 79, 90
2, 929, Note_on_c, 0, 79, 0
2, 930, Note_on_c, 0, 78, 90
2, 959, Note_on_c, 0, 78, 0
2, 960, Note_on_c, 0, 76, 80
2, 989, Note_on_c, 0, 76, 0
2, 990, Note_on_c, 0, 74, 80
2, 1019, Note_on_c, 0, 74, 0
2, 1020, Note_on_c, 0, 78, 80
2, 1049, Note_on_c, 0, 78, 0
2, 1050, Note_on_c, 0, 76, 80
2, 1079, Note_on_c, 0, 76, 0
2, 1080, Note_on_c, 0, 79, 90
2, 1109, Note_on_c, 0, 79, 0
2, 1110, Note_on_c, 0, 78, 90
2, 1139, Note_on_c, 0, 78, 0
2, 1140, Note_on_c, 0, 76, 80
2, 1169, Note_on_c, 0, 76, 0
2, 1170, Note_on_c, 0, 74, 80
2, 1199, Note_on_c, 0, 74, 0
2, 1200, Note_on_c, 0, 78, 80
2, 1229, Note_on_c, 0, 78, 0
2, 1230, Note_on_c, 0, 76, 80
2, 1259, Note_on_c, 0, 76, 0
2, 1260, Note_on_c, 0, 74, 90
2, 1319, Note_on_c, 0, 74, 0
2, 1320, Note_on_c, 0, 86, 80
2, 1379, Note_on_c, 0, 86, 0
2, 1380, Note_on_c, 0, 85, 80
2, 1439, Note_on_c, 0, 85, 0
2, 1440, Note_on_c, 0, 86, 90
2, 1499, Note_on_c, 0, 86, 0
2, 1560, Note_on_c, 0, 76, 80
2, 1619, Note_on_c, 0, 76, 0
2, 1620, Note_on_c, 0, 78, 90
2, 1649, Note_on_c, 0, 78, 0
2, 1650, Note_on_c, 0, 79, 90
2, 1664, Note_on_c, 0, 79, 0
2, 1665, Note_on_c, 0, 81, 90
2, 1679, Note_on_c, 0, 81, 0
2, 1680, Note_on_c, 0, 83, 80
2, 1709, Note_on_c, 0, 83, 0
2, 1710, Note_on_c, 0, 81, 80
2, 1739, Note_on_c, 0, 81, 0
2, 1740, Note_on_c, 0, 79, 80
2, 1769, Note_on_c, 0, 79, 0
2, 1770, Note_on_c, 0, 78, 80
2, 1799, Note_on_c, 0, 78, 0
2, 1800, Note_on_c, 0, 76, 90
2, 1829, Note_on_c, 0, 76, 0
2, 1830, Note_on_c, 0, 78, 90
2, 1844, Note_on_c, 0, 78, 0
2, 1845, Note_on_c, 0, 79, 90
2, 1859, Note_on_c, 0, 79, 0
2, 1860, Note_on_c, 0, 81, 80
2, 1889, Note_on_c, 0, 81, 0
2, 1890, Note_on_c, 0, 79, 80
2, 1919, Note_on_c, 0, 79, 0
2, 1920, Note_on_c, 0, 78, 80
2, 1949, Note_on_c, 0, 78, 0
2, 1950, Note_on_c, 0, 76, 80
2, 1979, Note_on_c, 0, 76, 0
2, 1980, Note_on_c, 0, 74, 90
2, 2009, Note_on_c, 0, 74, 0
2, 2010, Note_on_c, 0, 76, 90
2, 2024, Note_on_c, 0, 76, 0
2, 2025, Note_on_c, 0, 78, 90
2, 2039, Note_on_c, 0, 78, 0
2, 2040, Note_on_c, 0, 79, 80
2, 2069, Note_on_c, 0, 79, 0
2, 2070, Note_on_c, 0, 81, 80
2, 2084, Note_on_c, 0, 81, 0
2, 2085, Note_on_c, 0, 79, 80
2, 2099, Note_on_c, 0, 79, 0
2, 2100, Note_on_c, 0, 78, 80
2, 2129, Note_on_c, 0, 78, 0
2, 2130, Note_on_c, 0, 79, 80
2, 2144, Note_on_c, 0, 79, 0
2, 2145, Note_on_c, 0, 78, 80
2, 2159, Note_on_c, 0, 78, 0
2, 2160, Note_on_c, 0, 76, 90
2, 2189, Note_on_c, 0, 76, 0
2, 2190, Note_on_c, 0, 74, 90
2, 2219, Note_on_c, 0, 74, 0
2, 2220, Note_on_c, 0, 76, 80
2, 2249, Note_on_c, 0, 76, 0
2, 2250, Note_on_c, 0, 81, 80
2, 2279, Note_on_c, 0, 81, 0
2, 2280, Note_on_c, 0, 79, 80
2, 2309, Note_on_c, 0, 79, 0
2, 2310, Note_on_c, 0, 81, 80
2, 2339, Note_on_c, 0, 81, 0
2, 2340, Note_on_c, 0, 78, 90
2, 2369, Note_on_c, 0, 78, 0
2, 2370, Note_on_c, 0, 76, 90
2, 2399, Note_on_c, 0, 76, 0
2, 2400, Note_on_c, 0, 79, 80
2, 2429, Note_on_c, 0, 79, 0
2, 2430, Note_on_c, 0, 78, 80
2, 2459, Note_on_c, 0, 78, 0
2, 2460, Note_on_c, 0, 76, 80
2, 2489, Note_on_c, 0, 76, 0
2, 2490, Note_on_c, 0, 74, 80
2, 2519, Note_on_c, 0, 74, 0
2, 2520, Note_on_c, 0, 81, 90
2, 2759, Note_on_c, 0, 81, 0
2, 2760, Note_on_c, 0, 69, 80
2, 2789, Note_on_c, 0, 69, 0
2, 2790, Note_on_c, 0, 69, 80
2, 2819, Note_on_c, 0, 69, 0
2, 2820, Note_on_c, 0, 69, 80
2, 2849, Note_on_c, 0, 69, 0
2, 2850, Note_on_c, 0, 69, 80
2, 2879, Note_on_c, 0, 69, 0
2, 2880, Note_on_c, 0, 69, 90
2, 2939, Note_on_c, 0, 69, 0
2, 2940, Note_on_c, 0, 76, 80
2, 2969, Note_on_c, 0, 76, 0
2, 2970, Note_on_c, 0, 78, 80
2, 2999, Note_on_c, 0, 78, 0
2, 3000, Note_on_c, 0, 79, 80
2, 3119, Note_on_c, 0, 79, 0
2, 3120, Note_on_c, 0, 78, 80
2, 3149, Note_on_c, 0, 78, 0
2, 3150, Note_on_c, 0, 80, 80
2, 3179, Note_on_c, 0, 80, 0
2, 3180, Note_on_c, 0, 81, 80
2, 3299, Note_on_c, 0, 81, 0
2, 3300, Note_on_c, 0, 80, 80
2, 3329, Note_on_c, 0, 80, 0
2, 3330, Note_on_c, 0, 81, 80
2, 3359, Note_on_c, 0, 81, 0
2, 3360, Note_on_c, 0, 83, 80
2, 3389, Note_on_c, 0, 83, 0
2, 3390, Note_on_c, 0, 80, 80
2, 3419, Note_on_c, 0, 80, 0
2, 3420, Note_on_c, 0, 83, 90
2, 3449, Note_on_c, 0, 83, 0
2, 3450, Note_on_c, 0, 81, 90
2, 3479, Note_on_c, 0, 81, 0
2, 3480, Note_on_c, 0, 85, 80
2, 3509, Note_on_c, 0, 85, 0
2, 3510, Note_on_c, 0, 83, 80
2, 3539, Note_on_c, 0, 83, 0
2, 3540, Note_on_c, 0, 81, 80
2, 3569, Note_on_c, 0, 81, 0
2, 3570, Note_on_c, 0, 80, 80
2, 3599, Note_on_c, 0, 80, 0
2, 3600, Note_on_c, 0, 81, 65
2, 3659, Note_on_c, 0, 81, 0
2, 3780, Note_on_c, 0, 81, 65
2, 3839, Note_on_c, 0, 81, 0
2, 3960, Note_on_c, 0, 81, 65
2, 4019, Note_on_c, 0, 81, 0
2, 4140, Note_on_c, 0, 85, 65
2, 4199, Note_on_c, 0, 85, 0
2, 4200, Note_on_c, 0, 76, 80
2, 4259, Note_on_c, 0, 76, 0
2, 4260, Note_on_c, 0, 80, 80
2, 4319, Note_on_c, 0, 80, 0
2, 4320, Note_on_c, 0, 81, 90
2, 4439, Note_on_c, 0, 81, 0
2, 4440, Note_on_c, 0, 76, 80
2, 4499, Note_on_c, 0, 76, 0
2, 4500, Note_on_c, 0, 81, 90
2, 4710, Note_on_c, 0, 81, 0
2, 4710, Note_on_c, 0, 79, 90
2, 4739, Note_on_c, 0, 79, 0
2, 4740, Note_on_c, 0, 78, 80
2, 4769, Note_on_c, 0, 78, 0
2, 4770, Note_on_c, 0, 79, 80
2, 4799, Note_on_c, 0, 79, 0
2, 4800, Note_on_c, 0, 81, 80
2, 4889, Note_on_c, 0, 81, 0
2, 4890, Note_on_c, 0, 79, 90
2, 4919, Note_on_c, 0, 79, 0
2, 4920, Note_on_c, 0, 83, 80
2, 4949, Note_on_c, 0, 83, 0
2, 4950, Note_on_c, 0, 81, 80
2, 4979, Note_on_c, 0, 81, 0
2, 4980, Note_on_c, 0, 79, 80
2, 5009, Note_on_c, 0, 79, 0
2, 5010, Note_on_c, 0, 78, 80
2, 5039, Note_on_c, 0, 78, 0
2, 5040, Note_on_c, 0, 81, 90
2, 5069, Note_on_c, 0, 81, 0
2, 5070, Note_on_c, 0, 79, 90
2, 5099, Note_on_c, 0, 79, 0
2, 5100, Note_on_c, 0, 78, 80
2, 5129, Note_on_c, 0, 78, 0
2, 5130, Note_on_c, 0, 76, 80
2, 5159, Note_on_c, 0, 76, 0
2, 5160, Note_on_c, 0, 79, 80
2, 5189, Note_on_c, 0, 79, 0
2, 5190, Note_on_c, 0, 78, 80
2, 5219, Note_on_c, 0, 78, 0
2, 5220, Note_on_c, 0, 79, 90
2, 5430, Note_on_c, 0, 79, 0
2, 5430, Note_on_c, 0, 78, 90
2, 5459, Note_on_c, 0, 78, 0
2, 5460, Note_on_c, 0, 76, 80
2, 5489, Note_on_c, 0, 76, 0
2, 5490, Note_on_c, 0, 78, 80
2, 5519, Note_on_c, 0, 78, 0
2, 5520, Note_on_c, 0, 79, 80
2, 5609, Note_on_c, 0, 79, 0
2, 5610, Note_on_c, 0, 78, 90
2, 5639, Note_on_c, 0, 78, 0
2, 5640, Note_on_c, 0, 81, 80
2, 5669, Note_on_c, 0, 81, 0
2, 5670, Note_on_c, 0, 79, 80
2, 5699, Note_on_c, 0, 79, 0
2, 5700, Note_on_c, 0, 78, 80
2, 5729, Note_on_c, 0, 78, 0
2, 5730, Note_on_c, 0, 76, 80
2, 5759, Note_on_c, 0, 76, 0
2, 5760, Note_on_c, 0, 79, 90
2, 5789, Note_on_c, 0, 79, 0
2, 5790, Note_on_c, 0, 78, 90
2, 5819, Note_on_c, 0, 78, 0
2, 5820, Note_on_c, 0, 76, 80
2, 5849, Note_on_c, 0, 76, 0
2, 5850, Note_on_c, 0, 74, 80
2, 5879, Note_on_c, 0, 74, 0
2, 5880, Note_on_c, 0, 84, 80
2, 5939, Note_on_c, 0, 84, 0
2, 5940, Note_on_c, 0, 74, 90
2, 6059, Note_on_c, 0, 74, 0
2, 6060, Note_on_c, 0, 83, 80
2, 6119, Note_on_c, 0, 83, 0
2, 6120, Note_on_c, 0, 74, 90
2, 6239, Note_on_c, 0, 74, 0
2, 6240, Note_on_c, 0, 81, 80
2, 6299, Note_on_c, 0, 81, 0
2, 6300, Note_on_c, 0, 74, 90
2, 6419, Note_on_c, 0, 74, 0
2, 6420, Note_on_c, 0, 79, 80
2, 6479, Note_on_c, 0, 79, 0
2, 6480, Note_on_c, 0, 74, 90
2, 6599, Note_on_c, 0, 74, 0
2, 6600, Note_on_c, 0, 78, 80
2, 6659, Note_on_c, 0, 78, 0
2, 6660, Note_on_c, 0, 76, 90
2, 7019, Note_on_c, 0, 76, 0
2, 7020, Note_on_c, 0, 78, 90
2, 7379, Note_on_c, 0, 78, 0
2, 7380, Note_on_c, 0, 79, 90
2, 7559, Note_on_c, 0, 79, 0
2, 7560, Note_on_c, 0, 80, 90
2, 7739, Note_on_c, 0, 80, 0
2, 7740, Note_on_c, 0, 81, 90
2, 7799, Note_on_c, 0, 81, 0
2, 7800, Note_on_c, 0, 79, 80
2, 7829, Note_on_c, 0, 79, 0
2, 7830, Note_on_c, 0, 78, 80
2, 7859, Note_on_c, 0, 78, 0
2, 7860, Note_on_c, 0, 76, 80
2, 7889, Note_on_c, 0, 76, 0
2, 7890, Note_on_c, 0, 78, 80
2, 7919, Note_on_c, 0, 78, 0
2, 7920, Note_on_c, 0, 74, 65
2, 8400, Note_on_c, 0, 74, 0
2, 8400, Note_on_c, 0, 83, 80
2, 8459, Note_on_c, 0, 83, 0
2, 8460, Note_on_c, 0, 81, 90
2, 8489, Note_on_c, 0, 81, 0
2, 8490, Note_on_c, 0, 86, 90
2, 8519, Note_on_c, 0, 86, 0
2, 8520, Note_on_c, 0, 85, 80
2, 8549, Note_on_c, 0, 85, 0
2, 8550, Note_on_c, 0, 83, 80
2, 8579, Note_on_c, 0, 83, 0
2, 8580, Note_on_c, 0, 81, 80
2, 8609, Note_on_c, 0, 81, 0
2, 8610, Note_on_c, 0, 79, 80
2, 8639, Note_on_c, 0, 79, 0
2, 8640, Note_on_c, 0, 78, 90
2, 8759, Note_on_c, 0, 78, 0
2, 11640, Note_on_c, 0, 69, 80
2, 11699, Note_on_c, 0, 69, 0
2, 11700, Note_on_c, 0, 74, 90
2, 11819, Note_on_c, 0, 74, 0
2, 11820, Note_on_c, 0, 69, 80
2, 11879, Note_on_c, 0, 69, 0
2, 11880, Note_on_c, 0, 76, 90
2, 11999, Note_on_c, 0, 76, 0
2, 12000, Note_on_c, 0, 69, 80
2, 12059, Note_on_c, 0, 69, 0
2, 12060, Note_on_c, 0, 78, 90
2, 12119, Note_on_c, 0, 78, 0
2, 12120, Note_on_c, 0, 76, 80
2, 12149, Note_on_c, 0, 76, 0
2, 12150, Note_on_c, 0, 78, 80
2, 12179, Note_on_c, 0, 78, 0
2, 12180, Note_on_c, 0, 79, 80
2, 12209, Note_on_c, 0, 79, 0
2, 12210, Note_on_c, 0, 76, 80
2, 12239, Note_on_c, 0, 76, 0
2, 12240, Note_on_c, 0, 79, 90
2, 12269, Note_on_c, 0, 79, 0
2, 12270, Note_on_c, 0, 78, 90
2, 12299, Note_on_c, 0, 78, 0
2, 12300, Note_on_c, 0, 76, 80
2, 12329, Note_on_c, 0, 76, 0
2, 12330, Note_on_c, 0, 74, 80
2, 12359, Note_on_c, 0, 74, 0
2, 12360, Note_on_c, 0, 78, 80
2, 12389, Note_on_c, 0, 78, 0
2, 12390, Note_on_c, 0, 76, 80
2, 12419, Note_on_c, 0, 76, 0
2, 12420, Note_on_c, 0, 79, 90
2, 12449, Note_on_c, 0, 79, 0
2, 12450, Note_on_c, 0, 78, 90
2, 12479, Note_on_c, 0, 78, 0
2, 12480, Note_on_c, 0, 76, 80
2, 12509, Note_on_c, 0, 76, 0
2, 12510, Note_on_c, 0, 74, 80
2, 12539, Note_on_c, 0, 74, 0
2, 12540, Note_on_c, 0, 78, 80
2, 12569, Note_on_c, 0, 78, 0
2, 12570, Note_on_c, 0, 76, 80
2, 12599, Note_on_c, 0, 76, 0
2, 12600, Note_on_c, 0, 79, 90
2, 12629, Note_on_c, 0, 79, 0
2, 12630, Note_on_c, 0, 78, 90
2, 12659, Note_on_c, 0, 78, 0
2, 12660, Note_on_c, 0, 76, 80
2, 12689, Note_on_c, 0, 76, 0
2, 12690, Note_on_c, 0, 74, 80
2, 12719, Note_on_c, 0, 74, 0
2, 12720, Note_on_c, 0, 78, 80
2, 12749, Note_on_c, 0, 78, 0
2, 12750, Note_on_c, 0, 76, 80
2, 12779, Note_on_c, 0, 76, 0
2, 12780, Note_on_c, 0, 74, 90
2, 12839, Note_on_c, 0, 74, 0
2, 12840, Note_on_c, 0, 86, 80
2, 12899, Note_on_c, 0, 86, 0
2, 12900, Note_on_c, 0, 85, 80
2, 12959, Note_on_c, 0, 85, 0
2, 12960, Note_on_c, 0, 86, 90
2, 13019, Note_on_c, 0, 86, 0
2, 13020, Note_on_c, 0, 81, 80
2, 13049, Note_on_c, 0, 81, 0
2, 13050, Note_on_c, 0, 80, 80
2, 13079, Note_on_c, 0, 80, 0
2, 13080, Note_on_c, 0, 81, 80
2, 13109, Note_on_c, 0, 81, 0
2, 13110, Note_on_c, 0, 80, 80
2, 13139, Note_on_c, 0, 80, 0
2, 13140, Note_on_c, 0, 81, 90
2, 13199, Note_on_c, 0, 81, 0
2, 13200, Note_on_c, 0, 83, 80
2, 13259, Note_on_c, 0, 83, 0
2, 13260, Note_on_c, 0, 85, 80
2, 13319, Note_on_c, 0, 85, 0
2, 13320, Note_on_c, 0, 83, 90
2, 13379, Note_on_c, 0, 83, 0
2, 13380, Note_on_c, 0, 76, 80
2, 13439, Note_on_c, 0, 76, 0
2, 13440, Note_on_c, 0, 83, 80
2, 13499, Note_on_c, 0, 83, 0
2, 13500, Note_on_c, 0, 81, 90
2, 13559, Note_on_c, 0, 81, 0
2, 13560, Note_on_c, 0, 76, 80
2, 13619, Note_on_c, 0, 76, 0
2, 13620, Note_on_c, 0, 80, 80
2, 13679, Note_on_c, 0, 80, 0
2, 13680, Note_on_c, 0, 81, 90
2, 13739, Note_on_c, 0, 81, 0
2, 13740, Note_on_c, 0, 79, 80
2, 13769, Note_on_c, 0, 79, 0
2, 13770, Note_on_c, 0, 78, 80
2, 13799, Note_on_c, 0, 78, 0
2, 13800, Note_on_c, 0, 76, 80
2, 13829, Note_on_c, 0, 76, 0
2, 13830, Note_on_c, 0, 78, 80
2, 13859, Note_on_c, 0, 78, 0
2, 13860, Note_on_c, 0, 74, 90
2, 13919, Note_on_c, 0, 74, 0
2, 13920, Note_on_c, 0, 76, 80
2, 13979, Note_on_c, 0, 76, 0
2, 13980, Note_on_c, 0, 78, 80
2, 14039, Note_on_c, 0, 78, 0
2, 14040, Note_on_c, 0, 76, 90
2, 14099, Note_on_c, 0, 76, 0
2, 14100, Note_on_c, 0, 69, 80
2, 14280, Note_on_c, 0, 69, 0
2, 14280, Note_on_c, 0, 69, 80
2, 14309, Note_on_c, 0, 69, 0
2, 14310, Note_on_c, 0, 69, 80
2, 14339, Note_on_c, 0, 69, 0
2, 14340, Note_on_c, 0, 69, 80
2, 14369, Note_on_c, 0, 69, 0
2, 14370, Note_on_c, 0, 69, 80
2, 14399, Note_on_c, 0, 69, 0
2, 14400, Note_on_c, 0, 69, 90
2, 14459, Note_on_c, 0, 69, 0
2, 14460, Note_on_c, 0, 66, 80
2, 14519, Note_on_c, 0, 66, 0
2, 14520, Note_on_c, 0, 62, 80
2, 14579, Note_on_c, 0, 62, 0
2, 15240, Note_on_c, 0, 69, 80
2, 15299, Note_on_c, 0, 69, 0
2, 15300, Note_on_c, 0, 74, 90
2, 15419, Note_on_c, 0, 74, 0
2, 15420, Note_on_c, 0, 69, 80
2, 15479, Note_on_c, 0, 69, 0
2, 15480, Note_on_c, 0, 76, 90
2, 15599, Note_on_c, 0, 76, 0
2, 15600, Note_on_c, 0, 69, 80
2, 15659, Note_on_c, 0, 69, 0
2, 15660, Note_on_c, 0, 78, 90
2, 15719, Note_on_c, 0, 78, 0
2, 15720, Note_on_c, 0, 76, 80
2, 15749, Note_on_c, 0, 76, 0
2, 15750, Note_on_c, 0, 78, 80
2, 15779, Note_on_c, 0, 78, 0
2, 15780, Note_on_c, 0, 79, 80
2, 15809, Note_on_c, 0, 79, 0
2, 15810, Note_on_c, 0, 76, 80
2, 15839, Note_on_c, 0, 76, 0
2, 15840, Note_on_c, 0, 79, 90
2, 15869, Note_on_c, 0, 79, 0
2, 15870, Note_on_c, 0, 78, 90
2, 15899, Note_on_c, 0, 78, 0
2, 15900, Note_on_c, 0, 76, 80
2, 15929, Note_on_c, 0, 76, 0
2, 15930, Note_on_c, 0, 74, 80
2, 15959, Note_on_c, 0, 74, 0
2, 18840, Note_on_c, 0, 76, 80
2, 18899, Note_on_c, 0, 76, 0
2, 18900, Note_on_c, 0, 78, 90
2, 18929, Note_on_c, 0, 78, 0
2, 18930, Note_on_c, 0, 79, 90
2, 18944, Note_on_c, 0, 79, 0
2, 18945, Note_on_c, 0, 81, 90
2, 18959, Note_on_c, 0, 81, 0
2, 18960, Note_on_c, 0, 83, 80
2, 18989, Note_on_c, 0, 83, 0
2, 18990, Note_on_c, 0, 81, 80
2, 19019, Note_on_c, 0, 81, 0
2, 19020, Note_on_c, 0, 79, 80
2, 19049, Note_on_c, 0, 79, 0
2, 19050, Note_on_c, 0, 78, 80
2, 19079, Note_on_c, 0, 78, 0
2, 19080, Note_on_c, 0, 76, 90
2, 19109, Note_on_c, 0, 76, 0
2, 19110, Note_on_c, 0, 78, 90
2, 19124, Note_on_c, 0, 78, 0
2, 19125, Note_on_c, 0, 79, 90
2, 19139, Note_on_c, 0, 79, 0
2, 19140, Note_on_c, 0, 81, 80
2, 19169, Note_on_c, 0, 81, 0
2, 19170, Note_on_c, 0, 79, 80
2, 19199, Note_on_c, 0, 79, 0
2, 19200, Note_on_c, 0, 78, 80
2, 19229, Note_on_c, 0, 78, 0
2, 19230, Note_on_c, 0, 76, 80
2, 19259, Note_on_c, 0, 76, 0
2, 19260, Note_on_c, 0, 74, 90
2, 19289, Note_on_c, 0, 74, 0
2, 19290, Note_on_c, 0, 76, 90
2, 19304, Note_on_c, 0, 76, 0
2, 19305, Note_on_c, 0, 78, 90
2, 19319, Note_on_c, 0, 78, 0
2, 19320, Note_on_c, 0, 79, 80
2, 19349, Note_on_c, 0, 79, 0
2, 19350, Note_on_c, 0, 81, 80
2, 19364, Note_on_c, 0, 81, 0
2, 19365, Note_on_c, 0, 79, 80
2, 19379, Note_on_c, 0, 79, 0
2, 19380, Note_on_c, 0, 78, 80
2, 19409, Note_on_c, 0, 78, 0
2, 19410, Note_on_c, 0, 79, 80
2, 19424, Note_on_c, 0, 79, 0
2, 19425, Note_on_c, 0, 78, 80
2, 19439, Note_on_c, 0, 78, 0
2, 19440, Note_on_c, 0, 76, 90
2, 19469, Note_on_c, 0, 76, 0
2, 19470, Note_on_c, 0, 74, 90
2, 19499, Note_on_c, 0, 74, 0
2, 19500, Note_on_c, 0, 76, 80
2, 19529, Note_on_c, 0, 76, 0
2, 19530, Note_on_c, 0, 81, 80
2, 19559, Note_on_c, 0, 81, 0
2, 19560, Note_on_c, 0, 79, 80
2, 19589, Note_on_c, 0, 79, 0
2, 19590, Note_on_c, 0, 81, 80
2, 19619, Note_on_c, 0, 81, 0
2, 19620, Note_on_c, 0, 78, 90
2, 19649, Note_on_c, 0, 78, 0
2, 19650, Note_on_c, 0, 76, 90
2, 19679, Note_on_c, 0, 76, 0
2, 19680, Note_on_c, 0, 79, 80
2, 19709, Note_on_c, 0, 79, 0
2, 19710, Note_on_c, 0, 78, 80
2, 19739, Note_on_c, 0, 78, 0
2, 19740, Note_on_c, 0, 76, 80
2, 19769, Note_on_c, 0, 76, 0
2, 19770, Note_on_c, 0, 74, 80
2, 19799, Note_on_c, 0, 74, 0
2, 19800, Note_on_c, 0, 81, 90
2, 20039, Note_on_c, 0, 81, 0
2, 20040, Note_on_c, 0, 69, 80
2, 20069, Note_on_c, 0, 69, 0
2, 20070, Note_on_c, 0, 69, 80
2, 20099, Note_on_c, 0, 69, 0
2, 20100, Note_on_c, 0, 69, 80
2, 20129, Note_on_c, 0, 69, 0
2, 20130, Note_on_c, 0, 69, 80
2, 20159, Note_on_c, 0, 69, 0
2, 20160, Note_on_c, 0, 69, 90
2, 20219, Note_on_c, 0, 69, 0
2, 20220, Note_on_c, 0, 76, 80
2, 20249, Note_on_c, 0, 76, 0
2, 20250, Note_on_c, 0, 78, 80
2, 20279, Note_on_c, 0, 78, 0
2, 20280, Note_on_c, 0, 79, 80
2, 20399, Note_on_c, 0, 79, 0
2, 20400, Note_on_c, 0, 78, 80
2, 20429, Note_on_c, 0, 78, 0
2, 20430, Note_on_c, 0, 80, 80
2, 20459, Note_on_c, 0, 80, 0
2, 20460, Note_on_c, 0, 81, 80
2, 20579, Note_on_c, 0, 81, 0
2, 20580, Note_on_c, 0, 80, 80
2, 20609, Note_on_c, 0, 80, 0
2, 20610, Note_on_c, 0, 81, 80
2, 20639, Note_on_c, 0, 81, 0
2, 20640, Note_on_c, 0, 83, 80
2, 20669, Note_on_c, 0, 83, 0
2, 20670, Note_on_c, 0, 80, 80
2, 20699, Note_on_c, 0, 80, 0
2, 20700, Note_on_c, 0, 83, 90
2, 20729, Note_on_c, 0, 83, 0
2, 20730, Note_on_c, 0, 81, 90
2, 20759, Note_on_c, 0, 81, 0
2, 20760, Note_on_c, 0, 85, 80
2, 20789, Note_on_c, 0, 85, 0
2, 20790, Note_on_c, 0, 83, 80
2, 20819, Note_on_c, 0, 83, 0
2, 20820, Note_on_c, 0, 81, 80
2, 20849, Note_on_c, 0, 81, 0
2, 20850, Note_on_c, 0, 80, 80
2, 20879, Note_on_c, 0, 80, 0
2, 20880, Note_on_c, 0, 81, 70
2, 20939, Note_on_c, 0, 81, 0
2, 21060, Note_on_c, 0, 81, 70
2, 21119, Note_on_c, 0, 81, 0
2, 21240, Note_on_c, 0, 81, 70
2, 21299, Note_on_c, 0, 81, 0
2, 21420, Note_on_c, 0, 85, 70
2, 21479, Note_on_c, 0, 85, 0
2, 21480, Note_on_c, 0, 76, 90
2, 21539, Note_on_c, 0, 76, 0
2, 21540, Note_on_c, 0, 80, 90
2, 21599, Note_on_c, 0, 80, 0
2, 21600, Note_on_c, 0, 81, 90
2, 21719, Note_on_c, 0, 81, 0
2, 26040, Note_on_c, 0, 76, 80
2, 26099, Note_on_c, 0, 76, 0
2, 26100, Note_on_c, 0, 81, 90
2, 26310, Note_on_c, 0, 81, 0
2, 26310, Note_on_c, 0, 79, 90
2, 26340, Note_on_c, 0, 79, 0
2, 26340, Note_on_c, 0, 78, 80
2, 26370, Note_on_c, 0, 78, 0
2, 26370, Note_on_c, 0, 79, 80
2, 26400, Note_on_c, 0, 79, 0
2, 26400, Note_on_c, 0, 81, 80
2, 26490, Note_on_c, 0, 81, 0
2, 26490, Note_on_c, 0, 79, 90
2, 26520, Note_on_c, 0, 79, 0
2, 26520, Note_on_c, 0, 83, 80
2, 26550, Note_on_c, 0, 83, 0
2, 26550, Note_on_c, 0, 81, 80
2, 26580, Note_on_c, 0, 81, 0
2, 26580, Note_on_c, 0, 79, 80
2, 26610, Note_on_c, 0, 79, 0
2, 26610, Note_on_c, 0, 78, 80
2, 26640, Note_on_c, 0, 78, 0
2, 26640, Note_on_c, 0, 81, 90
2, 26670, Note_on_c, 0, 81, 0
2, 26670, Note_on_c, 0, 79, 90
2, 26700, Note_on_c, 0, 79, 0
2, 26700, Note_on_c, 0, 78, 80
2, 26730, Note_on_c, 0, 78, 0
2, 26730, Note_on_c, 0, 76, 80
2, 26760, Note_on_c, 0, 76, 0
2, 26760, Note_on_c, 0, 79, 80
2, 26790, Note_on_c, 0, 79, 0
2, 26790, Note_on_c, 0, 78, 80
2, 26820, Note_on_c, 0, 78, 0
2, 26820, Note_on_c, 0, 79, 90
2, 27030, Note_on_c, 0, 79, 0
2, 27030, Note_on_c, 0, 78, 90
2, 27059, Note_on_c, 0, 78, 0
2, 27060, Note_on_c, 0, 76, 80
2, 27089, Note_on_c, 0, 76, 0
2, 27090, Note_on_c, 0, 78, 80
2, 27119, Note_on_c, 0, 78, 0
2, 27120, Note_on_c, 0, 79, 80
2, 27209, Note_on_c, 0, 79, 0
2, 27210, Note_on_c, 0, 78, 90
2, 27239, Note_on_c, 0, 78, 0
2, 27240, Note_on_c, 0, 81, 80
2, 27269, Note_on_c, 0, 81, 0
2, 27270, Note_on_c, 0, 79, 80
2, 27299, Note_on_c, 0, 79, 0
2, 27300, Note_on_c, 0, 78, 80
2, 27329, Note_on_c, 0, 78, 0
2, 27330, Note_on_c, 0, 76, 80
2, 27359, Note_on_c, 0, 76, 0
2, 27360, Note_on_c, 0, 79, 90
2, 27389, Note_on_c, 0, 79, 0
2, 27390, Note_on_c, 0, 78, 90
2, 27419, Note_on_c, 0, 78, 0
2, 27420, Note_on_c, 0, 76, 80
2, 27449, Note_on_c, 0, 76, 0
2, 27450, Note_on_c, 0, 74, 80
2, 27479, Note_on_c, 0, 74, 0
2, 28920, Note_on_c, 0, 69, 90
2, 28979, Note_on_c, 0, 69, 0
2, 28980, Note_on_c, 0, 74, 89
2, 29099, Note_on_c, 0, 74, 0
2, 29100, Note_on_c, 0, 69, 85
2, 29159, Note_on_c, 0, 69, 0
2, 29160, Note_on_c, 0, 76, 84
2, 29279, Note_on_c, 0, 76, 0
2, 29280, Note_on_c, 0, 69, 80
2, 29339, Note_on_c, 0, 69, 0
2, 29340, Note_on_c, 0, 78, 78
2, 29399, Note_on_c, 0, 78, 0
2, 29400, Note_on_c, 0, 76, 77
2, 29429, Note_on_c, 0, 76, 0
2, 29430, Note_on_c, 0, 78, 76
2, 29459, Note_on_c, 0, 78, 0
2, 29460, Note_on_c, 0, 79, 75
2, 29489, Note_on_c, 0, 79, 0
2, 29490, Note_on_c, 0, 76, 74
2, 29519, Note_on_c, 0, 76, 0
2, 29520, Note_on_c, 0, 79, 73
2, 29549, Note_on_c, 0, 79, 0
2, 29550, Note_on_c, 0, 78, 72
2, 29579, Note_on_c, 0, 78, 0
2, 29580, Note_on_c, 0, 76, 71
2, 29609, Note_on_c, 0, 76, 0
2, 29610, Note_on_c, 0, 74, 70
2, 29639, Note_on_c, 0, 74, 0
2, 29640, Note_on_c, 0, 78, 80
2, 29669, Note_on_c, 0, 78, 0
2, 29670, Note_on_c, 0, 76, 80
2, 29699, Note_on_c, 0, 76, 0
2, 29700, Note_on_c, 0, 79, 90
2, 29729, Note_on_c, 0, 79, 0
2, 29730, Note_on_c, 0, 78, 90
2, 29759, Note_on_c, 0, 78, 0
2, 29760, Note_on_c, 0, 76, 80
2, 29789, Note_on_c, 0, 76, 0
2, 29790, Note_on_c, 0, 74, 80
2, 29819, Note_on_c, 0, 74, 0
2, 29820, Note_on_c, 0, 78, 80
2, 29849, Note_on_c, 0, 78, 0
2, 29850, Note_on_c, 0, 76, 80
2, 29879, Note_on_c, 0, 76, 0
2, 29880, Note_on_c, 0, 79, 90
2, 29909, Note_on_c, 0, 79, 0
2, 29910, Note_on_c, 0, 78, 90
2, 29939, Note_on_c, 0, 78, 0
2, 29940, Note_on_c, 0, 76, 80
2, 29969, Note_on_c, 0, 76, 0
2, 29970, Note_on_c, 0, 74, 80
2, 29999, Note_on_c, 0, 74, 0
2, 30000, Note_on_c, 0, 78, 80
2, 30029, Note_on_c, 0, 78, 0
2, 30030, Note_on_c, 0, 76, 80
2, 30059, Note_on_c, 0, 76, 0
2, 30060, Note_on_c, 0, 74, 90
2, 30119, Note_on_c, 0, 74, 0
2, 30120, Note_on_c, 0, 86, 80
2, 30179, Note_on_c, 0, 86, 0
2, 30180, Note_on_c, 0, 85, 80
2, 30239, Note_on_c, 0, 85, 0
2, 30240, Note_on_c, 0, 86, 90
2, 30299, Note_on_c, 0, 86, 0
2, 30300, Note_on_c, 0, 81, 80
2, 30359, Note_on_c, 0, 81, 0
2, 32520, Note_on_c, 0, 69, 80
2, 32579, Note_on_c, 0, 69, 0
2, 32580, Note_on_c, 0, 74, 90
2, 32699, Note_on_c, 0, 74, 0
2, 32700, Note_on_c, 0, 69, 80
2, 32759, Note_on_c, 0, 69, 0
2, 32760, Note_on_c, 0, 76, 90
2, 32879, Note_on_c, 0, 76, 0
2, 32880, Note_on_c, 0, 69, 80
2, 32939, Note_on_c, 0, 69, 0
2, 32940, Note_on_c, 0, 78, 90
2, 32999, Note_on_c, 0, 78, 0
2, 33000, Note_on_c, 0, 76, 80
2, 33029, Note_on_c, 0, 76, 0
2, 33030, Note_on_c, 0, 78, 80
2, 33059, Note_on_c, 0, 78, 0
2, 33060, Note_on_c, 0, 79, 80
2, 33089, Note_on_c, 0, 79, 0
2, 33090, Note_on_c, 0, 76, 80
2, 33119, Note_on_c, 0, 76, 0
2, 33120, Note_on_c, 0, 79, 90
2, 33149, Note_on_c, 0, 79, 0
2, 33150, Note_on_c, 0, 78, 90
2, 33179, Note_on_c, 0, 78, 0
2, 33180, Note_on_c, 0, 76, 80
2, 33209, Note_on_c, 0, 76, 0
2, 33210, Note_on_c, 0, 74, 80
2, 33239, Note_on_c, 0, 74, 0
2, 36840, Note_on_c, 0, 76, 80
2, 36899, Note_on_c, 0, 76, 0
2, 36900, Note_on_c, 0, 78, 90
2, 36929, Note_on_c, 0, 78, 0
2, 36930, Note_on_c, 0, 79, 90
2, 36944, Note_on_c, 0, 79, 0
2, 36945, Note_on_c, 0, 81, 90
2, 36959, Note_on_c, 0, 81, 0
2, 36960, Note_on_c, 0, 83, 80
2, 36989, Note_on_c, 0, 83, 0
2, 36990, Note_on_c, 0, 81, 80
2, 37019, Note_on_c, 0, 81, 0
2, 37020, Note_on_c, 0, 79, 80
2, 37049, Note_on_c, 0, 79, 0
2, 37050, Note_on_c, 0, 78, 80
2, 37079, Note_on_c, 0, 78, 0
2, 37080, Note_on_c, 0, 76, 90
2, 37109, Note_on_c, 0, 76, 0
2, 37110, Note_on_c, 0, 78, 90
2, 37124, Note_on_c, 0, 78, 0
2, 37125, Note_on_c, 0, 79, 90
2, 37139, Note_on_c, 0, 79, 0
2, 37140, Note_on_c, 0, 81, 80
2, 37169, Note_on_c, 0, 81, 0
2, 37170, Note_on_c, 0, 79, 80
2, 37199, Note_on_c, 0, 79, 0
2, 37200, Note_on_c, 0, 78, 80
2, 37229, Note_on_c, 0, 78, 0
2, 37230, Note_on_c, 0, 76, 80
2, 37259, Note_on_c, 0, 76, 0
2, 37260, Note_on_c, 0, 74, 90
2, 37289, Note_on_c, 0, 74, 0
2, 37290, Note_on_c, 0, 76, 90
2, 37304, Note_on_c, 0, 76, 0
2, 37305, Note_on_c, 0, 78, 90
2, 37319, Note_on_c, 0, 78, 0
2, 37320, Note_on_c, 0, 79, 80
2, 37349, Note_on_c, 0, 79, 0
2, 37350, Note_on_c, 0, 81, 80
2, 37364, Note_on_c, 0, 81, 0
2, 37365, Note_on_c, 0, 79, 80
2, 37379, Note_on_c, 0, 79, 0
2, 37380, Note_on_c, 0, 78, 80
2, 37409, Note_on_c, 0, 78, 0
2, 37410, Note_on_c, 0, 79, 80
2, 37424, Note_on_c, 0, 79, 0
2, 37425, Note_on_c, 0, 78, 80
2, 37439, Note_on_c, 0, 78, 0
2, 37440, Note_on_c, 0, 76, 90
2, 37469, Note_on_c, 0, 76, 0
2, 37470, Note_on_c, 0, 74, 90
2, 37499, Note_on_c, 0, 74, 0
2, 37500, Note_on_c, 0, 76, 80
2, 37529, Note_on_c, 0, 76, 0
2, 37530, Note_on_c, 0, 78, 80
2, 37559, Note_on_c, 0, 78, 0
2, 37560, Note_on_c, 0, 79, 80
2, 37679, Note_on_c, 0, 79, 0
2, 37680, Note_on_c, 0, 78, 80
2, 37709, Note_on_c, 0, 78, 0
2, 37710, Note_on_c, 0, 80, 80
2, 37739, Note_on_c, 0, 80, 0
2, 37740, Note_on_c, 0, 81, 80
2, 37859, Note_on_c, 0, 81, 0
2, 37860, Note_on_c, 0, 80, 80
2, 37889, Note_on_c, 0, 80, 0
2, 37890, Note_on_c, 0, 81, 80
2, 37919, Note_on_c, 0, 81, 0
2, 37920, Note_on_c, 0, 83, 80
2, 37949, Note_on_c, 0, 83, 0
2, 37950, Note_on_c, 0, 80, 80
2, 37979, Note_on_c, 0, 80, 0
2, 37980, Note_on_c, 0, 83, 90
2, 38009, Note_on_c, 0, 83, 0
2, 38010, Note_on_c, 0, 81, 90
2, 38039, Note_on_c, 0, 81, 0
2, 38040, Note_on_c, 0, 85, 80
2, 38069, Note_on_c, 0, 85, 0
2, 38070, Note_on_c, 0, 83, 80
2, 38099, Note_on_c, 0, 83, 0
2, 38100, Note_on_c, 0, 81, 80
2, 38129, Note_on_c, 0, 81, 0
2, 38130, Note_on_c, 0, 80, 80
2, 38159, Note_on_c, 0, 80, 0
2, 38160, Note_on_c, 0, 81, 70
2, 38580, Note_on_c, 0, 81, 0
2, 38700, Note_on_c, 0, 85, 90
2, 38760, Note_on_c, 0, 85, 0
2, 38760, Note_on_c, 0, 76, 80
2, 38820, Note_on_c, 0, 76, 0
2, 38820, Note_on_c, 0, 80, 80
2, 38880, Note_on_c, 0, 80, 0
2, 38880, Note_on_c, 0, 81, 90
2, 39000, Note_on_c, 0, 81, 0
2, 39000, Note_on_c, 0, 76, 80
2, 39060, Note_on_c, 0, 76, 0
2, 39060, Note_on_c, 0, 81, 90
2, 39270, Note_on_c, 0, 81, 0
2, 39270, Note_on_c, 0, 79, 90
2, 39299, Note_on_c, 0, 79, 0
2, 39300, Note_on_c, 0, 78, 80
2, 39329, Note_on_c, 0, 78, 0
2, 39330, Note_on_c, 0, 79, 80
2, 39359, Note_on_c, 0, 79, 0
2, 39360, Note_on_c, 0, 81, 80
2, 39449, Note_on_c, 0, 81, 0
2, 39450, Note_on_c, 0, 79, 90
2, 39479, Note_on_c, 0, 79, 0
2, 39480, Note_on_c, 0, 83, 80
2, 39509, Note_on_c, 0, 83, 0
2, 39510, Note_on_c, 0, 81, 80
2, 39539, Note_on_c, 0, 81, 0
2, 39540, Note_on_c, 0, 79, 80
2, 39569, Note_on_c, 0, 79, 0
2, 39570, Note_on_c, 0, 78, 80
2, 39599, Note_on_c, 0, 78, 0
2, 39600, Note_on_c, 0, 81, 90
2, 39629, Note_on_c, 0, 81, 0
2, 39630, Note_on_c, 0, 79, 90
2, 39659, Note_on_c, 0, 79, 0
2, 39660, Note_on_c, 0, 78, 80
2, 39689, Note_on_c, 0, 78, 0
2, 39690, Note_on_c, 0, 76, 80
2, 39719, Note_on_c, 0, 76, 0
2, 39720, Note_on_c, 0, 79, 80
2, 39749, Note_on_c, 0, 79, 0
2, 39750, Note_on_c, 0, 78, 80
2, 39779, Note_on_c, 0, 78, 0
2, 39780, Note_on_c, 0, 79, 90
2, 39990, Note_on_c, 0, 79, 0
2, 39990, Note_on_c, 0, 78, 90
2, 40019, Note_on_c, 0, 78, 0
2, 40020, Note_on_c, 0, 76, 80
2, 40049, Note_on_c, 0, 76, 0
2, 40050, Note_on_c, 0, 78, 80
2, 40079, Note_on_c, 0, 78, 0
2, 40080, Note_on_c, 0, 79, 80
2, 40169, Note_on_c, 0, 79, 0
2, 40170, Note_on_c, 0, 78, 90
2, 40199, Note_on_c, 0, 78, 0
2, 40200, Note_on_c, 0, 81, 80
2, 40229, Note_on_c, 0, 81, 0
2, 40230, Note_on_c, 0, 79, 80
2, 40259, Note_on_c, 0, 79, 0
2, 40260, Note_on_c, 0, 78, 80
2, 40289, Note_on_c, 0, 78, 0
2, 40290, Note_on_c, 0, 76, 80
2, 40319, Note_on_c, 0, 76, 0
2, 40320, Note_on_c, 0, 79, 90
2, 40349, Note_on_c, 0, 79, 0
2, 40350, Note_on_c, 0, 78, 90
2, 40379, Note_on_c, 0, 78, 0
2, 40380, Note_on_c, 0, 76, 80
2, 40409, Note_on_c, 0, 76, 0
2, 40410, Note_on_c, 0, 74, 80
2, 40439, Note_on_c, 0, 74, 0
2, 40440, Note_on_c, 0, 84, 80
2, 40499, Note_on_c, 0, 84, 0
2, 40500, Note_on_c, 0, 74, 90
2, 40619, Note_on_c, 0, 74, 0
2, 40620, Note_on_c, 0, 83, 80
2, 40679, Note_on_c, 0, 83, 0
2, 40680, Note_on_c, 0, 74, 90
2, 40799, Note_on_c, 0, 74, 0
2, 40800, Note_on_c, 0, 81, 80
2, 40859, Note_on_c, 0, 81, 0
2, 40860, Note_on_c, 0, 74, 90
2, 40979, Note_on_c, 0, 74, 0
2, 40980, Note_on_c, 0, 79, 80
2, 41039, Note_on_c, 0, 79, 0
2, 41040, Note_on_c, 0, 74, 90
2, 41159, Note_on_c, 0, 74, 0
2, 41160, Note_on_c, 0, 78, 80
2, 41219, Note_on_c, 0, 78, 0
2, 41220, Note_on_c, 0, 76, 90
2, 41579, Note_on_c, 0, 76, 0
2, 41580, Note_on_c, 0, 78, 90
2, 41939, Note_on_c, 0, 78, 0
2, 41940, Note_on_c, 0, 79, 90
2, 42119, Note_on_c, 0, 79, 0
2, 42120, Note_on_c, 0, 80, 90
2, 42299, Note_on_c, 0, 80, 0
2, 42300, Note_on_c, 0, 81, 90
2, 42359, Note_on_c, 0, 81, 0
2, 42360, Note_on_c, 0, 79, 80
2, 42389, Note_on_c, 0, 79, 0
2, 42390, Note_on_c, 0, 78, 80
2, 42419, Note_on_c, 0, 78, 0
2, 42420, Note_on_c, 0, 76, 80
2, 42449, Note_on_c, 0, 76, 0
2, 42450, Note_on_c, 0, 78, 80
2, 42479, Note_on_c, 0, 78, 0
2, 42480, Note_on_c, 0, 74, 70
2, 42959, Note_on_c, 0, 74, 0
2, 42960, Note_on_c, 0, 83, 80
2, 43019, Note_on_c, 0, 83, 0
2, 43020, Note_on_c, 0, 81, 90
2, 43049, Note_on_c, 0, 81, 0
2, 43050, Note_on_c, 0, 86, 90
2, 43079, Note_on_c, 0, 86, 0
2, 43080, Note_on_c, 0, 85, 80
2, 43109, Note_on_c, 0, 85, 0
2, 43110, Note_on_c, 0, 83, 80
2, 43139, Note_on_c, 0, 83, 0
2, 43140, Note_on_c, 0, 81, 80
2, 43169, Note_on_c, 0, 81, 0
2, 43170, Note_on_c, 0, 79, 80
2, 43199, Note_on_c, 0, 79, 0
2, 43200, Note_on_c, 0, 78, 90
2, 43319, Note_on_c, 0, 78, 0
2, 163200, Control_c, 0, 91, 111
2, 163620, Note_on_c, 0, 69, 80
2, 163667, Note_on_c, 0, 69, 0
2, 163680, Note_on_c, 0, 74, 80
2, 163703, Note_on_c, 0, 74, 0
2, 163710, Note_on_c, 0, 76, 80
2, 163733, Note_on_c, 0, 76, 0
2, 163740, Note_on_c, 0, 78, 80
2, 163763, Note_on_c, 0, 78, 0
2, 163770, Note_on_c, 0, 76, 80
2, 163793, Note_on_c, 0, 76, 0
2, 163800, Note_on_c, 0, 74, 80
2, 163847, Note_on_c, 0, 74, 0
2, 163860, Note_on_c, 0, 69, 80
2, 163883, Note_on_c, 0, 69, 0
2, 163920, Note_on_c, 0, 69, 80
2, 163943, Note_on_c, 0, 69, 0
2, 163980, Note_on_c, 0, 66, 80
2, 164003, Note_on_c, 0, 66, 0
2, 164040, Note_on_c, 0, 66, 80
2, 164063, Note_on_c, 0, 66, 0
2, 164100, Note_on_c, 0, 62, 80
2, 164123, Note_on_c, 0, 62, 0
2, 164160, Note_on_c, 0, 62, 80
2, 164183, Note_on_c, 0, 62, 0
2, 164220, Note_on_c, 0, 81, 100
2, 164267, Note_on_c, 0, 81, 0
2, 164280, Note_on_c, 0, 79, 100
2, 164327, Note_on_c, 0, 79, 0
2, 164340, Note_on_c, 0, 78, 100
2, 164387, Note_on_c, 0, 78, 0
2, 164400, Note_on_c, 0, 78, 100
2, 164447, Note_on_c, 0, 78, 0
2, 164460, Note_on_c, 0, 76, 100
2, 164507, Note_on_c, 0, 76, 0
2, 164580, Note_on_c, 0, 69, 80
2, 164627, Note_on_c, 0, 69, 0
2, 164640, Note_on_c, 0, 74, 80
2, 164663, Note_on_c, 0, 74, 0
2, 164670, Note_on_c, 0, 76, 80
2, 164693, Note_on_c, 0, 76, 0
2, 164700, Note_on_c, 0, 78, 80
2, 164771, Note_on_c, 0, 78, 0
2, 164790, Note_on_c, 0, 79, 80
2, 164813, Note_on_c, 0, 79, 0
2, 164820, Note_on_c, 0, 78, 80
2, 164843, Note_on_c, 0, 78, 0
2, 164850, Note_on_c, 0, 76, 80
2, 164873, Note_on_c, 0, 76, 0
2, 164880, Note_on_c, 0, 78, 80
2, 164903, Note_on_c, 0, 78, 0
2, 164910, Note_on_c, 0, 76, 80
2, 164933, Note_on_c, 0, 76, 0
2, 164940, Note_on_c, 0, 74, 80
2, 165011, Note_on_c, 0, 74, 0
2, 165030, Note_on_c, 0, 69, 80
2, 165053, Note_on_c, 0, 69, 0
2, 165060, Note_on_c, 0, 74, 80
2, 165083, Note_on_c, 0, 74, 0
2, 165090, Note_on_c, 0, 76, 80
2, 165113, Note_on_c, 0, 76, 0
2, 165120, Note_on_c, 0, 78, 80
2, 165143, Note_on_c, 0, 78, 0
2, 165150, Note_on_c, 0, 74, 80
2, 165173, Note_on_c, 0, 74, 0
2, 165180, Note_on_c, 0, 81, 100
2, 165227, Note_on_c, 0, 81, 0
2, 165240, Note_on_c, 0, 79, 100
2, 165287, Note_on_c, 0, 79, 0
2, 165300, Note_on_c, 0, 78, 100
2, 165347, Note_on_c, 0, 78, 0
2, 165360, Note_on_c, 0, 78, 100
2, 165407, Note_on_c, 0, 78, 0
2, 165420, Note_on_c, 0, 76, 100
2, 165467, Note_on_c, 0, 76, 0
2, 165540, Note_on_c, 0, 81, 80
2, 165587, Note_on_c, 0, 81, 0
2, 165600, Note_on_c, 0, 78, 80
2, 165611, Note_on_c, 0, 78, 0
2, 165630, Note_on_c, 0, 78, 80
2, 165653, Note_on_c, 0, 78, 0
2, 165660, Note_on_c, 0, 79, 80
2, 165683, Note_on_c, 0, 79, 0
2, 165690, Note_on_c, 0, 81, 80
2, 165713, Note_on_c, 0, 81, 0
2, 165720, Note_on_c, 0, 78, 80
2, 165731, Note_on_c, 0, 78, 0
2, 165750, Note_on_c, 0, 78, 80
2, 165773, Note_on_c, 0, 78, 0
2, 165780, Note_on_c, 0, 79, 80
2, 165803, Note_on_c, 0, 79, 0
2, 165810, Note_on_c, 0, 81, 80
2, 165833, Note_on_c, 0, 81, 0
2, 165840, Note_on_c, 0, 78, 80
2, 165863, Note_on_c, 0, 78, 0
2, 165900, Note_on_c, 0, 83, 100
2, 165923, Note_on_c, 0, 83, 0
2, 165990, Note_on_c, 0, 81, 100
2, 166013, Note_on_c, 0, 81, 0
2, 166020, Note_on_c, 0, 79, 100
2, 166043, Note_on_c, 0, 79, 0
2, 166050, Note_on_c, 0, 78, 100
2, 166073, Note_on_c, 0, 78, 0
2, 166080, Note_on_c, 0, 76, 100
2, 166091, Note_on_c, 0, 76, 0
2, 166110, Note_on_c, 0, 76, 100
2, 166133, Note_on_c, 0, 76, 0
2, 166140, Note_on_c, 0, 78, 100
2, 166163, Note_on_c, 0, 78, 0
2, 166170, Note_on_c, 0, 79, 100
2, 166193, Note_on_c, 0, 79, 0
2, 166200, Note_on_c, 0, 76, 100
2, 166211, Note_on_c, 0, 76, 0
2, 166230, Note_on_c, 0, 76, 100
2, 166253, Note_on_c, 0, 76, 0
2, 166260, Note_on_c, 0, 78, 100
2, 166283, Note_on_c, 0, 78, 0
2, 166290, Note_on_c, 0, 79, 100
2, 166313, Note_on_c, 0, 79, 0
2, 166320, Note_on_c, 0, 76, 100
2, 166343, Note_on_c, 0, 76, 0
2, 166380, Note_on_c, 0, 81, 100
2, 166403, Note_on_c, 0, 81, 0
2, 166470, Note_on_c, 0, 79, 100
2, 166493, Note_on_c, 0, 79, 0
2, 166500, Note_on_c, 0, 78, 100
2, 166523, Note_on_c, 0, 78, 0
2, 166530, Note_on_c, 0, 76, 100
2, 166553, Note_on_c, 0, 76, 0
2, 166560, Note_on_c, 0, 74, 80
2, 166571, Note_on_c, 0, 74, 0
2, 166590, Note_on_c, 0, 86, 80
2, 166613, Note_on_c, 0, 86, 0
2, 166620, Note_on_c, 0, 85, 80
2, 166643, Note_on_c, 0, 85, 0
2, 166650, Note_on_c, 0, 83, 80
2, 166673, Note_on_c, 0, 83, 0
2, 166680, Note_on_c, 0, 74, 80
2, 166691, Note_on_c, 0, 74, 0
2, 166710, Note_on_c, 0, 85, 80
2, 166733, Note_on_c, 0, 85, 0
2, 166740, Note_on_c, 0, 83, 80
2, 166763, Note_on_c, 0, 83, 0
2, 166770, Note_on_c, 0, 81, 80
2, 166793, Note_on_c, 0, 81, 0
2, 166800, Note_on_c, 0, 74, 80
2, 166811, Note_on_c, 0, 74, 0
2, 166830, Note_on_c, 0, 83, 80
2, 166853, Note_on_c, 0, 83, 0
2, 166860, Note_on_c, 0, 81, 80
2, 166883, Note_on_c, 0, 81, 0
2, 166890, Note_on_c, 0, 79, 80
2, 166913, Note_on_c, 0, 79, 0
2, 166920, Note_on_c, 0, 74, 80
2, 166931, Note_on_c, 0, 74, 0
2, 166950, Note_on_c, 0, 81, 80
2, 166973, Note_on_c, 0, 81, 0
2, 166980, Note_on_c, 0, 79, 80
2, 167003, Note_on_c, 0, 79, 0
2, 167010, Note_on_c, 0, 78, 80
2, 167033, Note_on_c, 0, 78, 0
2, 167040, Note_on_c, 0, 79, 80
2, 167087, Note_on_c, 0, 79, 0
2, 167100, Note_on_c, 0, 76, 80
2, 167147, Note_on_c, 0, 76, 0
2, 167160, Note_on_c, 0, 76, 80
2, 167207, Note_on_c, 0, 76, 0
2, 167220, Note_on_c, 0, 69, 80
2, 167267, Note_on_c, 0, 69, 0
2, 167280, Note_on_c, 0, 69, 80
2, 167327, Note_on_c, 0, 69, 0
2, 167340, Note_on_c, 0, 79, 80
2, 167387, Note_on_c, 0, 79, 0
2, 167460, Note_on_c, 0, 81, 80
2, 167507, Note_on_c, 0, 81, 0
2, 167520, Note_on_c, 0, 79, 80
2, 167543, Note_on_c, 0, 79, 0
2, 167550, Note_on_c, 0, 78, 80
2, 167573, Note_on_c, 0, 78, 0
2, 167580, Note_on_c, 0, 76, 80
2, 167603, Note_on_c, 0, 76, 0
2, 167610, Note_on_c, 0, 74, 80
2, 167633, Note_on_c, 0, 74, 0
2, 167640, Note_on_c, 0, 78, 80
2, 167687, Note_on_c, 0, 78, 0
2, 167700, Note_on_c, 0, 76, 80
2, 167747, Note_on_c, 0, 76, 0
2, 167760, Note_on_c, 0, 74, 80
2, 167879, Note_on_c, 0, 74, 0
2, 167910, Note_on_c, 0, 76, 80
2, 167921, Note_on_c, 0, 76, 0
2, 167925, Note_on_c, 0, 78, 80
2, 167936, Note_on_c, 0, 78, 0
2, 167940, Note_on_c, 0, 79, 80
2, 167963, Note_on_c, 0, 79, 0
2, 167970, Note_on_c, 0, 78, 80
2, 167981, Note_on_c, 0, 78, 0
2, 167985, Note_on_c, 0, 76, 80
2, 167996, Note_on_c, 0, 76, 0
2, 168000, Note_on_c, 0, 74, 80
2, 168119, Note_on_c, 0, 74, 0
2, 168150, Note_on_c, 0, 76, 80
2, 168161, Note_on_c, 0, 76, 0
2, 168165, Note_on_c, 0, 78, 80
2, 168176, Note_on_c, 0, 78, 0
2, 168180, Note_on_c, 0, 79, 80
2, 168203, Note_on_c, 0, 79, 0
2, 168210, Note_on_c, 0, 78, 80
2, 168221, Note_on_c, 0, 78, 0
2, 168225, Note_on_c, 0, 76, 80
2, 168236, Note_on_c, 0, 76, 0
2, 168240, Note_on_c, 0, 74, 80
2, 168263, Note_on_c, 0, 74, 0
2, 168270, Note_on_c, 0, 76, 80
2, 168281, Note_on_c, 0, 76, 0
2, 168285, Note_on_c, 0, 78, 80
2, 168296, Note_on_c, 0, 78, 0
2, 168300, Note_on_c, 0, 79, 81
2, 168323, Note_on_c, 0, 79, 0
2, 168330, Note_on_c, 0, 78, 81
2, 168341, Note_on_c, 0, 78, 0
2, 168345, Note_on_c, 0, 76, 82
2, 168356, Note_on_c, 0, 76, 0
2, 168360, Note_on_c, 0, 74, 82
2, 168383, Note_on_c, 0, 74, 0
2, 168390, Note_on_c, 0, 76, 83
2, 168401, Note_on_c, 0, 76, 0
2, 168405, Note_on_c, 0, 78, 83
2, 168416, Note_on_c, 0, 78, 0
2, 168420, Note_on_c, 0, 79, 83
2, 168443, Note_on_c, 0, 79, 0
2, 168450, Note_on_c, 0, 78, 84
2, 168461, Note_on_c, 0, 78, 0
2, 168465, Note_on_c, 0, 76, 84
2, 168476, Note_on_c, 0, 76, 0
2, 168480, Note_on_c, 0, 74, 85
2, 168503, Note_on_c, 0, 74, 0
2, 168540, Note_on_c, 0, 80, 86
2, 168563, Note_on_c, 0, 80, 0
2, 168630, Note_on_c, 0, 83, 88
2, 168653, Note_on_c, 0, 83, 0
2, 168660, Note_on_c, 0, 81, 88
2, 168683, Note_on_c, 0, 81, 0
2, 168690, Note_on_c, 0, 80, 89
2, 168713, Note_on_c, 0, 80, 0
2, 168720, Note_on_c, 0, 81, 90
2, 168767, Note_on_c, 0, 81, 0
2, 168780, Note_on_c, 0, 69, 91
2, 168827, Note_on_c, 0, 69, 0
2, 168900, Note_on_c, 0, 79, 93
2, 168947, Note_on_c, 0, 79, 0
2, 168960, Note_on_c, 0, 78, 95
2, 169007, Note_on_c, 0, 78, 0
2, 169020, Note_on_c, 0, 86, 96
2, 169067, Note_on_c, 0, 86, 0
2, 169080, Note_on_c, 0, 76, 97
2, 169127, Note_on_c, 0, 76, 0
2, 169140, Note_on_c, 0, 85, 98
2, 169187, Note_on_c, 0, 85, 0
2, 169200, Note_on_c, 0, 86, 100
2, 169295, Note_on_c, 0, 86, 0
2, 170100, Note_on_c, 0, 81, 81
2, 170123, Note_on_c, 0, 81, 0
2, 170130, Note_on_c, 0, 79, 81
2, 170153, Note_on_c, 0, 79, 0
2, 170160, Note_on_c, 0, 78, 81
2, 170183, Note_on_c, 0, 78, 0
2, 170190, Note_on_c, 0, 76, 81
2, 170213, Note_on_c, 0, 76, 0
2, 170220, Note_on_c, 0, 74, 81
2, 170243, Note_on_c, 0, 74, 0
2, 170250, Note_on_c, 0, 76, 81
2, 170273, Note_on_c, 0, 76, 0
2, 170280, Note_on_c, 0, 78, 81
2, 170303, Note_on_c, 0, 78, 0
2, 170310, Note_on_c, 0, 79, 81
2, 170333, Note_on_c, 0, 79, 0
2, 170340, Note_on_c, 0, 78, 81
2, 170363, Note_on_c, 0, 78, 0
2, 170370, Note_on_c, 0, 79, 81
2, 170393, Note_on_c, 0, 79, 0
2, 170400, Note_on_c, 0, 78, 81
2, 171072, Note_on_c, 0, 78, 0
2, 172260, Note_on_c, 0, 69, 100
2, 172307, Note_on_c, 0, 69, 0
2, 172320, Note_on_c, 0, 74, 100
2, 172343, Note_on_c, 0, 74, 0
2, 172350, Note_on_c, 0, 76, 100
2, 172373, Note_on_c, 0, 76, 0
2, 172380, Note_on_c, 0, 78, 100
2, 172403, Note_on_c, 0, 78, 0
2, 172410, Note_on_c, 0, 76, 100
2, 172433, Note_on_c, 0, 76, 0
2, 172440, Note_on_c, 0, 74, 100
2, 172487, Note_on_c, 0, 74, 0
2, 172500, Note_on_c, 0, 69, 100
2, 172523, Note_on_c, 0, 69, 0
2, 172560, Note_on_c, 0, 69, 100
2, 172583, Note_on_c, 0, 69, 0
2, 172620, Note_on_c, 0, 66, 100
2, 172643, Note_on_c, 0, 66, 0
2, 172680, Note_on_c, 0, 66, 100
2, 172703, Note_on_c, 0, 66, 0
2, 172740, Note_on_c, 0, 62, 100
2, 172763, Note_on_c, 0, 62, 0
2, 172800, Note_on_c, 0, 62, 100
2, 172823, Note_on_c, 0, 62, 0
2, 172860, Note_on_c, 0, 81, 110
2, 172907, Note_on_c, 0, 81, 0
2, 172920, Note_on_c, 0, 79, 110
2, 172967, Note_on_c, 0, 79, 0
2, 172980, Note_on_c, 0, 78, 110
2, 173027, Note_on_c, 0, 78, 0
2, 173040, Note_on_c, 0, 78, 110
2, 173087, Note_on_c, 0, 78, 0
2, 173100, Note_on_c, 0, 76, 110
2, 173147, Note_on_c, 0, 76, 0
2, 173220, Note_on_c, 0, 69, 80
2, 173267, Note_on_c, 0, 69, 0
2, 173280, Note_on_c, 0, 74, 80
2, 173303, Note_on_c, 0, 74, 0
2, 173310, Note_on_c, 0, 76, 80
2, 173333, Note_on_c, 0, 76, 0
2, 173340, Note_on_c, 0, 78, 80
2, 173411, Note_on_c, 0, 78, 0
2, 173430, Note_on_c, 0, 79, 80
2, 173453, Note_on_c, 0, 79, 0
2, 173460, Note_on_c, 0, 78, 80
2, 173483, Note_on_c, 0, 78, 0
2, 173490, Note_on_c, 0, 76, 80
2, 173513, Note_on_c, 0, 76, 0
2, 173520, Note_on_c, 0, 78, 80
2, 173543, Note_on_c, 0, 78, 0
2, 173550, Note_on_c, 0, 76, 80
2, 173573, Note_on_c, 0, 76, 0
2, 173580, Note_on_c, 0, 74, 80
2, 173651, Note_on_c, 0, 74, 0
2, 173670, Note_on_c, 0, 69, 80
2, 173693, Note_on_c, 0, 69, 0
2, 173700, Note_on_c, 0, 74, 80
2, 173723, Note_on_c, 0, 74, 0
2, 173730, Note_on_c, 0, 76, 80
2, 173753, Note_on_c, 0, 76, 0
2, 173760, Note_on_c, 0, 78, 80
2, 173783, Note_on_c, 0, 78, 0
2, 173790, Note_on_c, 0, 74, 80
2, 173813, Note_on_c, 0, 74, 0
2, 173820, Note_on_c, 0, 81, 100
2, 173867, Note_on_c, 0, 81, 0
2, 173880, Note_on_c, 0, 79, 100
2, 173927, Note_on_c, 0, 79, 0
2, 173940, Note_on_c, 0, 78, 100
2, 173987, Note_on_c, 0, 78, 0
2, 174000, Note_on_c, 0, 78, 100
2, 174047, Note_on_c, 0, 78, 0
2, 174060, Note_on_c, 0, 76, 100
2, 174107, Note_on_c, 0, 76, 0
2, 174180, Note_on_c, 0, 81, 80
2, 174227, Note_on_c, 0, 81, 0
2, 174240, Note_on_c, 0, 78, 80
2, 174251, Note_on_c, 0, 78, 0
2, 174270, Note_on_c, 0, 78, 80
2, 174293, Note_on_c, 0, 78, 0
2, 174300, Note_on_c, 0, 79, 80
2, 174323, Note_on_c, 0, 79, 0
2, 174330, Note_on_c, 0, 81, 80
2, 174353, Note_on_c, 0, 81, 0
2, 174360, Note_on_c, 0, 78, 80
2, 174371, Note_on_c, 0, 78, 0
2, 174390, Note_on_c, 0, 78, 80
2, 174413, Note_on_c, 0, 78, 0
2, 174420, Note_on_c, 0, 79, 80
2, 174443, Note_on_c, 0, 79, 0
2, 174450, Note_on_c, 0, 81, 80
2, 174473, Note_on_c, 0, 81, 0
2, 174480, Note_on_c, 0, 78, 80
2, 174503, Note_on_c, 0, 78, 0
2, 174540, Note_on_c, 0, 83, 100
2, 174563, Note_on_c, 0, 83, 0
2, 174630, Note_on_c, 0, 81, 100
2, 174653, Note_on_c, 0, 81, 0
2, 174660, Note_on_c, 0, 79, 100
2, 174683, Note_on_c, 0, 79, 0
2, 174690, Note_on_c, 0, 78, 100
2, 174713, Note_on_c, 0, 78, 0
2, 174720, Note_on_c, 0, 76, 80
2, 174731, Note_on_c, 0, 76, 0
2, 174750, Note_on_c, 0, 76, 80
2, 174773, Note_on_c, 0, 76, 0
2, 174780, Note_on_c, 0, 78, 80
2, 174803, Note_on_c, 0, 78, 0
2, 174810, Note_on_c, 0, 79, 80
2, 174833, Note_on_c, 0, 79, 0
2, 174840, Note_on_c, 0, 76, 80
2, 174851, Note_on_c, 0, 76, 0
2, 174870, Note_on_c, 0, 76, 80
2, 174893, Note_on_c, 0, 76, 0
2, 174900, Note_on_c, 0, 78, 80
2, 174923, Note_on_c, 0, 78, 0
2, 174930, Note_on_c, 0, 79, 80
2, 174953, Note_on_c, 0, 79, 0
2, 174960, Note_on_c, 0, 76, 80
2, 174983, Note_on_c, 0, 76, 0
2, 175020, Note_on_c, 0, 81, 100
2, 175043, Note_on_c, 0, 81, 0
2, 175110, Note_on_c, 0, 79, 100
2, 175133, Note_on_c, 0, 79, 0
2, 175140, Note_on_c, 0, 78, 100
2, 175163, Note_on_c, 0, 78, 0
2, 175170, Note_on_c, 0, 76, 100
2, 175193, Note_on_c, 0, 76, 0
2, 175200, Note_on_c, 0, 74, 80
2, 175211, Note_on_c, 0, 74, 0
2, 175230, Note_on_c, 0, 86, 80
2, 175253, Note_on_c, 0, 86, 0
2, 175260, Note_on_c, 0, 85, 80
2, 175283, Note_on_c, 0, 85, 0
2, 175290, Note_on_c, 0, 83, 80
2, 175313, Note_on_c, 0, 83, 0
2, 175320, Note_on_c, 0, 74, 80
2, 175331, Note_on_c, 0, 74, 0
2, 175350, Note_on_c, 0, 85, 80
2, 175373, Note_on_c, 0, 85, 0
2, 175380, Note_on_c, 0, 83, 80
2, 175403, Note_on_c, 0, 83, 0
2, 175410, Note_on_c, 0, 81, 80
2, 175433, Note_on_c, 0, 81, 0
2, 175440, Note_on_c, 0, 74, 80
2, 175451, Note_on_c, 0, 74, 0
2, 175470, Note_on_c, 0, 83, 80
2, 175493, Note_on_c, 0, 83, 0
2, 175500, Note_on_c, 0, 81, 80
2, 175523, Note_on_c, 0, 81, 0
2, 175530, Note_on_c, 0, 79, 80
2, 175553, Note_on_c, 0, 79, 0
2, 175560, Note_on_c, 0, 74, 80
2, 175571, Note_on_c, 0, 74, 0
2, 175590, Note_on_c, 0, 81, 80
2, 175613, Note_on_c, 0, 81, 0
2, 175620, Note_on_c, 0, 79, 80
2, 175643, Note_on_c, 0, 79, 0
2, 175650, Note_on_c, 0, 78, 80
2, 175673, Note_on_c, 0, 78, 0
2, 175680, Note_on_c, 0, 79, 80
2, 175727, Note_on_c, 0, 79, 0
2, 175740, Note_on_c, 0, 76, 80
2, 175787, Note_on_c, 0, 76, 0
2, 175800, Note_on_c, 0, 76, 80
2, 175847, Note_on_c, 0, 76, 0
2, 175860, Note_on_c, 0, 69, 80
2, 175907, Note_on_c, 0, 69, 0
2, 175920, Note_on_c, 0, 69, 80
2, 175967, Note_on_c, 0, 69, 0
2, 175980, Note_on_c, 0, 79, 80
2, 176027, Note_on_c, 0, 79, 0
2, 176100, Note_on_c, 0, 81, 80
2, 176147, Note_on_c, 0, 81, 0
2, 176160, Note_on_c, 0, 79, 80
2, 176183, Note_on_c, 0, 79, 0
2, 176190, Note_on_c, 0, 78, 80
2, 176213, Note_on_c, 0, 78, 0
2, 176220, Note_on_c, 0, 76, 80
2, 176243, Note_on_c, 0, 76, 0
2, 176250, Note_on_c, 0, 74, 80
2, 176273, Note_on_c, 0, 74, 0
2, 176280, Note_on_c, 0, 78, 80
2, 176327, Note_on_c, 0, 78, 0
2, 176340, Note_on_c, 0, 76, 80
2, 176387, Note_on_c, 0, 76, 0
2, 176400, Note_on_c, 0, 74, 80
2, 176519, Note_on_c, 0, 74, 0
2, 176550, Note_on_c, 0, 76, 80
2, 176561, Note_on_c, 0, 76, 0
2, 176565, Note_on_c, 0, 78, 80
2, 176576, Note_on_c, 0, 78, 0
2, 176580, Note_on_c, 0, 79, 80
2, 176603, Note_on_c, 0, 79, 0
2, 176610, Note_on_c, 0, 78, 80
2, 176621, Note_on_c, 0, 78, 0
2, 176625, Note_on_c, 0, 76, 80
2, 176636, Note_on_c, 0, 76, 0
2, 176640, Note_on_c, 0, 74, 80
2, 176759, Note_on_c, 0, 74, 0
2, 176790, Note_on_c, 0, 76, 80
2, 176801, Note_on_c, 0, 76, 0
2, 176805, Note_on_c, 0, 78, 80
2, 176816, Note_on_c, 0, 78, 0
2, 176820, Note_on_c, 0, 79, 80
2, 176843, Note_on_c, 0, 79, 0
2, 176850, Note_on_c, 0, 78, 80
2, 176861, Note_on_c, 0, 78, 0
2, 176865, Note_on_c, 0, 76, 80
2, 176876, Note_on_c, 0, 76, 0
2, 176880, Note_on_c, 0, 74, 80
2, 176903, Note_on_c, 0, 74, 0
2, 176910, Note_on_c, 0, 76, 80
2, 176921, Note_on_c, 0, 76, 0
2, 176925, Note_on_c, 0, 78, 80
2, 176936, Note_on_c, 0, 78, 0
2, 176940, Note_on_c, 0, 79, 80
2, 176963, Note_on_c, 0, 79, 0
2, 176970, Note_on_c, 0, 78, 80
2, 176981, Note_on_c, 0, 78, 0
2, 176985, Note_on_c, 0, 76, 80
2, 176996, Note_on_c, 0, 76, 0
2, 177000, Note_on_c, 0, 74, 80
2, 177023, Note_on_c, 0, 74, 0
2, 177030, Note_on_c, 0, 76, 80
2, 177041, Note_on_c, 0, 76, 0
2, 177045, Note_on_c, 0, 78, 80
2, 177056, Note_on_c, 0, 78, 0
2, 177060, Note_on_c, 0, 79, 80
2, 177083, Note_on_c, 0, 79, 0
2, 177090, Note_on_c, 0, 78, 80
2, 177101, Note_on_c, 0, 78, 0
2, 177105, Note_on_c, 0, 76, 80
2, 177116, Note_on_c, 0, 76, 0
2, 177120, Note_on_c, 0, 74, 80
2, 177143, Note_on_c, 0, 74, 0
2, 177180, Note_on_c, 0, 80, 80
2, 177203, Note_on_c, 0, 80, 0
2, 177270, Note_on_c, 0, 83, 80
2, 177293, Note_on_c, 0, 83, 0
2, 177300, Note_on_c, 0, 81, 80
2, 177323, Note_on_c, 0, 81, 0
2, 177330, Note_on_c, 0, 80, 80
2, 177353, Note_on_c, 0, 80, 0
2, 177360, Note_on_c, 0, 81, 80
2, 177407, Note_on_c, 0, 81, 0
2, 177420, Note_on_c, 0, 69, 80
2, 177467, Note_on_c, 0, 69, 0
2, 177540, Note_on_c, 0, 79, 80
2, 177587, Note_on_c, 0, 79, 0
2, 177600, Note_on_c, 0, 78, 80
2, 177647, Note_on_c, 0, 78, 0
2, 177660, Note_on_c, 0, 86, 80
2, 177707, Note_on_c, 0, 86, 0
2, 177720, Note_on_c, 0, 76, 80
2, 177767, Note_on_c, 0, 76, 0
2, 177780, Note_on_c, 0, 85, 80
2, 177827, Note_on_c, 0, 85, 0
2, 177840, Note_on_c, 0, 86, 80
2, 177935, Note_on_c, 0, 86, 0
2, 178740, Note_on_c, 0, 81, 80
2, 178763, Note_on_c, 0, 81, 0
2, 178770, Note_on_c, 0, 79, 80
2, 178793, Note_on_c, 0, 79, 0
2, 178800, Note_on_c, 0, 78, 80
2, 178823, Note_on_c, 0, 78, 0
2, 178830, Note_on_c, 0, 76, 80
2, 178853, Note_on_c, 0, 76, 0
2, 178860, Note_on_c, 0, 74, 80
2, 178883, Note_on_c, 0, 74, 0
2, 178890, Note_on_c, 0, 76, 80
2, 178913, Note_on_c, 0, 76, 0
2, 178920, Note_on_c, 0, 78, 80
2, 178943, Note_on_c, 0, 78, 0
2, 178950, Note_on_c, 0, 79, 80
2, 178973, Note_on_c, 0, 79, 0
2, 178980, Note_on_c, 0, 78, 80
2, 179003, Note_on_c, 0, 78, 0
2, 179010, Note_on_c, 0, 79, 80
2, 179033, Note_on_c, 0, 79, 0
2, 179040, Note_on_c, 0, 78, 80
2, 179712, Note_on_c, 0, 78, 0
2, 180900, Note_on_c, 0, 69, 100
2, 180947, Note_on_c, 0, 69, 0
2, 180960, Note_on_c, 0, 74, 100
2, 180983, Note_on_c, 0, 74, 0
2, 180990, Note_on_c, 0, 76, 100
2, 181013, Note_on_c, 0, 76, 0
2, 181020, Note_on_c, 0, 78, 100
2, 181043, Note_on_c, 0, 78, 0
2, 181050, Note_on_c, 0, 76, 100
2, 181073, Note_on_c, 0, 76, 0
2, 181080, Note_on_c, 0, 74, 100
2, 181127, Note_on_c, 0, 74, 0
2, 181140, Note_on_c, 0, 69, 100
2, 181163, Note_on_c, 0, 69, 0
2, 181200, Note_on_c, 0, 69, 100
2, 181223, Note_on_c, 0, 69, 0
2, 181260, Note_on_c, 0, 66, 100
2, 181283, Note_on_c, 0, 66, 0
2, 181320, Note_on_c, 0, 66, 100
2, 181343, Note_on_c, 0, 66, 0
2, 181380, Note_on_c, 0, 62, 100
2, 181403, Note_on_c, 0, 62, 0
2, 181440, Note_on_c, 0, 62, 110
2, 181463, Note_on_c, 0, 62, 0
2, 181500, Note_on_c, 0, 81, 110
2, 181547, Note_on_c, 0, 81, 0
2, 181560, Note_on_c, 0, 79, 110
2, 181607, Note_on_c, 0, 79, 0
2, 181620, Note_on_c, 0, 78, 110
2, 181667, Note_on_c, 0, 78, 0
2, 181680, Note_on_c, 0, 78, 110
2, 181727, Note_on_c, 0, 78, 0
2, 181740, Note_on_c, 0, 76, 110
2, 181787, Note_on_c, 0, 76, 0
2, 181860, Note_on_c, 0, 69, 80
2, 181907, Note_on_c, 0, 69, 0
2, 181920, Note_on_c, 0, 74, 80
2, 181943, Note_on_c, 0, 74, 0
2, 181950, Note_on_c, 0, 76, 80
2, 181973, Note_on_c, 0, 76, 0
2, 181980, Note_on_c, 0, 78, 80
2, 182051, Note_on_c, 0, 78, 0
2, 182070, Note_on_c, 0, 79, 80
2, 182093, Note_on_c, 0, 79, 0
2, 182100, Note_on_c, 0, 78, 80
2, 182123, Note_on_c, 0, 78, 0
2, 182130, Note_on_c, 0, 76, 80
2, 182153, Note_on_c, 0, 76, 0
2, 182160, Note_on_c, 0, 78, 80
2, 182183, Note_on_c, 0, 78, 0
2, 182190, Note_on_c, 0, 76, 80
2, 182213, Note_on_c, 0, 76, 0
2, 182220, Note_on_c, 0, 74, 80
2, 182291, Note_on_c, 0, 74, 0
2, 182310, Note_on_c, 0, 69, 80
2, 182333, Note_on_c, 0, 69, 0
2, 182340, Note_on_c, 0, 74, 80
2, 182363, Note_on_c, 0, 74, 0
2, 182370, Note_on_c, 0, 76, 80
2, 182393, Note_on_c, 0, 76, 0
2, 182400, Note_on_c, 0, 78, 80
2, 182423, Note_on_c, 0, 78, 0
2, 182430, Note_on_c, 0, 74, 80
2, 182453, Note_on_c, 0, 74, 0
2, 182460, Note_on_c, 0, 81, 100
2, 182507, Note_on_c, 0, 81, 0
2, 182520, Note_on_c, 0, 79, 100
2, 182567, Note_on_c, 0, 79, 0
2, 182580, Note_on_c, 0, 78, 100
2, 182627, Note_on_c, 0, 78, 0
2, 182640, Note_on_c, 0, 78, 100
2, 182687, Note_on_c, 0, 78, 0
2, 182700, Note_on_c, 0, 76, 100
2, 182747, Note_on_c, 0, 76, 0
2, 183300, Note_on_c, 0, 81, 80
2, 183348, Note_on_c, 0, 81, 0
2, 183360, Note_on_c, 0, 78, 80
2, 183371, Note_on_c, 0, 78, 0
2, 183390, Note_on_c, 0, 78, 80
2, 183413, Note_on_c, 0, 78, 0
2, 183420, Note_on_c, 0, 79, 80
2, 183443, Note_on_c, 0, 79, 0
2, 183450, Note_on_c, 0, 81, 80
2, 183473, Note_on_c, 0, 81, 0
2, 183480, Note_on_c, 0, 78, 80
2, 183491, Note_on_c, 0, 78, 0
2, 183510, Note_on_c, 0, 78, 80
2, 183533, Note_on_c, 0, 78, 0
2, 183540, Note_on_c, 0, 79, 80
2, 183563, Note_on_c, 0, 79, 0
2, 183570, Note_on_c, 0, 81, 80
2, 183593, Note_on_c, 0, 81, 0
2, 183600, Note_on_c, 0, 78, 100
2, 183623, Note_on_c, 0, 78, 0
2, 183660, Note_on_c, 0, 83, 100
2, 183683, Note_on_c, 0, 83, 0
2, 183750, Note_on_c, 0, 81, 80
2, 183773, Note_on_c, 0, 81, 0
2, 183780, Note_on_c, 0, 79, 80
2, 183803, Note_on_c, 0, 79, 0
2, 183810, Note_on_c, 0, 78, 80
2, 183833, Note_on_c, 0, 78, 0
2, 183840, Note_on_c, 0, 76, 80
2, 183851, Note_on_c, 0, 76, 0
2, 183870, Note_on_c, 0, 76, 80
2, 183893, Note_on_c, 0, 76, 0
2, 183900, Note_on_c, 0, 78, 80
2, 183923, Note_on_c, 0, 78, 0
2, 183930, Note_on_c, 0, 79, 80
2, 183953, Note_on_c, 0, 79, 0
2, 183960, Note_on_c, 0, 76, 80
2, 183971, Note_on_c, 0, 76, 0
2, 183990, Note_on_c, 0, 76, 80
2, 184013, Note_on_c, 0, 76, 0
2, 184020, Note_on_c, 0, 78, 80
2, 184043, Note_on_c, 0, 78, 0
2, 184050, Note_on_c, 0, 79, 80
2, 184073, Note_on_c, 0, 79, 0
2, 184080, Note_on_c, 0, 76, 100
2, 184103, Note_on_c, 0, 76, 0
2, 184140, Note_on_c, 0, 81, 100
2, 184163, Note_on_c, 0, 81, 0
2, 184230, Note_on_c, 0, 79, 80
2, 184253, Note_on_c, 0, 79, 0
2, 184260, Note_on_c, 0, 78, 80
2, 184283, Note_on_c, 0, 78, 0
2, 184290, Note_on_c, 0, 76, 80
2, 184313, Note_on_c, 0, 76, 0
2, 184320, Note_on_c, 0, 74, 80
2, 184331, Note_on_c, 0, 74, 0
2, 184350, Note_on_c, 0, 86, 80
2, 184373, Note_on_c, 0, 86, 0
2, 184380, Note_on_c, 0, 85, 80
2, 184403, Note_on_c, 0, 85, 0
2, 184410, Note_on_c, 0, 83, 80
2, 184433, Note_on_c, 0, 83, 0
2, 184440, Note_on_c, 0, 74, 80
2, 184451, Note_on_c, 0, 74, 0
2, 184470, Note_on_c, 0, 85, 80
2, 184493, Note_on_c, 0, 85, 0
2, 184500, Note_on_c, 0, 83, 80
2, 184523, Note_on_c, 0, 83, 0
2, 184530, Note_on_c, 0, 81, 80
2, 184553, Note_on_c, 0, 81, 0
2, 184560, Note_on_c, 0, 74, 80
2, 184571, Note_on_c, 0, 74, 0
2, 184590, Note_on_c, 0, 83, 80
2, 184613, Note_on_c, 0, 83, 0
2, 184620, Note_on_c, 0, 81, 80
2, 184643, Note_on_c, 0, 81, 0
2, 184650, Note_on_c, 0, 79, 80
2, 184673, Note_on_c, 0, 79, 0
2, 184680, Note_on_c, 0, 74, 80
2, 184691, Note_on_c, 0, 74, 0
2, 184710, Note_on_c, 0, 81, 80
2, 184733, Note_on_c, 0, 81, 0
2, 184740, Note_on_c, 0, 79, 80
2, 184763, Note_on_c, 0, 79, 0
2, 184770, Note_on_c, 0, 78, 80
2, 184793, Note_on_c, 0, 78, 0
2, 184800, Note_on_c, 0, 79, 80
2, 184847, Note_on_c, 0, 79, 0
2, 184860, Note_on_c, 0, 76, 80
2, 184907, Note_on_c, 0, 76, 0
2, 184920, Note_on_c, 0, 76, 80
2, 184967, Note_on_c, 0, 76, 0
2, 184980, Note_on_c, 0, 66, 80
2, 185027, Note_on_c, 0, 66, 0
2, 185040, Note_on_c, 0, 66, 80
2, 185087, Note_on_c, 0, 66, 0
2, 185100, Note_on_c, 0, 66, 80
2, 185147, Note_on_c, 0, 66, 0
2, 185160, Note_on_c, 0, 66, 80
2, 185207, Note_on_c, 0, 66, 0
2, 185220, Note_on_c, 0, 66, 80
2, 185267, Note_on_c, 0, 66, 0
2, 185280, Note_on_c, 0, 66, 80
2, 185327, Note_on_c, 0, 66, 0
2, 185340, Note_on_c, 0, 66, 80
2, 185387, Note_on_c, 0, 66, 0
2, 185400, Note_on_c, 0, 66, 80
2, 185447, Note_on_c, 0, 66, 0
2, 185460, Note_on_c, 0, 66, 80
2, 185507, Note_on_c, 0, 66, 0
2, 185520, Note_on_c, 0, 66, 80
2, 185567, Note_on_c, 0, 66, 0
2, 185580, Note_on_c, 0, 66, 80
2, 185627, Note_on_c, 0, 66, 0
2, 185640, Note_on_c, 0, 66, 80
2, 185687, Note_on_c, 0, 66, 0
2, 185700, Note_on_c, 0, 66, 80
2, 185747, Note_on_c, 0, 66, 0
2, 185760, Note_on_c, 0, 66, 100
2, 185807, Note_on_c, 0, 66, 0
2, 185820, Note_on_c, 0, 66, 100
2, 185843, Note_on_c, 0, 66, 0
2, 185850, Note_on_c, 0, 66, 100
2, 185873, Note_on_c, 0, 66, 0
2, 185880, Note_on_c, 0, 66, 100
2, 185927, Note_on_c, 0, 66, 0
2, 185940, Note_on_c, 0, 66, 100
2, 185987, Note_on_c, 0, 66, 0
2, 186000, Note_on_c, 0, 66, 100
2, 186095, Note_on_c, 0, 66, 0
2, 186420, Note_on_c, 0, 83, 80
2, 186444, Note_on_c, 0, 83, 0
2, 186480, Note_on_c, 0, 76, 80
2, 186504, Note_on_c, 0, 76, 0
2, 187380, Note_on_c, 0, 80, 80
2, 187427, Note_on_c, 0, 80, 0
2, 187440, Note_on_c, 0, 81, 80
2, 187463, Note_on_c, 0, 81, 0
2, 187470, Note_on_c, 0, 83, 80
2, 187493, Note_on_c, 0, 83, 0
2, 187500, Note_on_c, 0, 85, 80
2, 187523, Note_on_c, 0, 85, 0
2, 187530, Note_on_c, 0, 83, 80
2, 187553, Note_on_c, 0, 83, 0
2, 187560, Note_on_c, 0, 81, 80
2, 187607, Note_on_c, 0, 81, 0
2, 187620, Note_on_c, 0, 76, 80
2, 187643, Note_on_c, 0, 76, 0
2, 187680, Note_on_c, 0, 76, 80
2, 187703, Note_on_c, 0, 76, 0
2, 187740, Note_on_c, 0, 81, 80
2, 187763, Note_on_c, 0, 81, 0
2, 187800, Note_on_c, 0, 81, 80
2, 187823, Note_on_c, 0, 81, 0
2, 187860, Note_on_c, 0, 69, 80
2, 187883, Note_on_c, 0, 69, 0
2, 187920, Note_on_c, 0, 69, 80
2, 187943, Note_on_c, 0, 69, 0
2, 187980, Note_on_c, 0, 76, 100
2, 188003, Note_on_c, 0, 76, 0
2, 188010, Note_on_c, 0, 76, 100
2, 188033, Note_on_c, 0, 76, 0
2, 188040, Note_on_c, 0, 76, 100
2, 188087, Note_on_c, 0, 76, 0
2, 188100, Note_on_c, 0, 76, 100
2, 188147, Note_on_c, 0, 76, 0
2, 188160, Note_on_c, 0, 76, 100
2, 188183, Note_on_c, 0, 76, 0
2, 188190, Note_on_c, 0, 78, 100
2, 188213, Note_on_c, 0, 78, 0
2, 188220, Note_on_c, 0, 80, 100
2, 188243, Note_on_c, 0, 80, 0
2, 188250, Note_on_c, 0, 81, 80
2, 188273, Note_on_c, 0, 81, 0
2, 188280, Note_on_c, 0, 83, 80
2, 188327, Note_on_c, 0, 83, 0
2, 188460, Note_on_c, 0, 81, 80
2, 188483, Note_on_c, 0, 81, 0
2, 188490, Note_on_c, 0, 83, 80
2, 188513, Note_on_c, 0, 83, 0
2, 188520, Note_on_c, 0, 85, 80
2, 188567, Note_on_c, 0, 85, 0
2, 190080, Control_c, 0, 91, 111
2, 190470, Note_on_c, 0, 79, 80
2, 190493, Note_on_c, 0, 79, 0
2, 190500, Note_on_c, 0, 78, 80
2, 190523, Note_on_c, 0, 78, 0
2, 190530, Note_on_c, 0, 76, 80
2, 190553, Note_on_c, 0, 76, 0
2, 190560, Note_on_c, 0, 74, 80
2, 190583, Note_on_c, 0, 74, 0
2, 190590, Note_on_c, 0, 76, 80
2, 190613, Note_on_c, 0, 76, 0
2, 190620, Note_on_c, 0, 78, 80
2, 190643, Note_on_c, 0, 78, 0
2, 190650, Note_on_c, 0, 76, 80
2, 190673, Note_on_c, 0, 76, 0
2, 190680, Note_on_c, 0, 74, 80
2, 190727, Note_on_c, 0, 74, 0
2, 190740, Note_on_c, 0, 69, 80
2, 190763, Note_on_c, 0, 69, 0
2, 190800, Note_on_c, 0, 69, 80
2, 190823, Note_on_c, 0, 69, 0
2, 190860, Note_on_c, 0, 66, 80
2, 190883, Note_on_c, 0, 66, 0
2, 190920, Note_on_c, 0, 66, 80
2, 190943, Note_on_c, 0, 66, 0
2, 190980, Note_on_c, 0, 62, 80
2, 191003, Note_on_c, 0, 62, 0
2, 191040, Note_on_c, 0, 62, 100
2, 191063, Note_on_c, 0, 62, 0
2, 191100, Note_on_c, 0, 81, 100
2, 191147, Note_on_c, 0, 81, 0
2, 191160, Note_on_c, 0, 79, 100
2, 191207, Note_on_c, 0, 79, 0
2, 191220, Note_on_c, 0, 78, 100
2, 191267, Note_on_c, 0, 78, 0
2, 191280, Note_on_c, 0, 78, 100
2, 191327, Note_on_c, 0, 78, 0
2, 191340, Note_on_c, 0, 76, 100
2, 191387, Note_on_c, 0, 76, 0
2, 191460, Note_on_c, 0, 69, 100
2, 191507, Note_on_c, 0, 69, 0
2, 191520, Note_on_c, 0, 74, 100
2, 191543, Note_on_c, 0, 74, 0
2, 191550, Note_on_c, 0, 76, 100
2, 191573, Note_on_c, 0, 76, 0
2, 191580, Note_on_c, 0, 78, 100
2, 191651, Note_on_c, 0, 78, 0
2, 191670, Note_on_c, 0, 79, 100
2, 191693, Note_on_c, 0, 79, 0
2, 191700, Note_on_c, 0, 78, 100
2, 191723, Note_on_c, 0, 78, 0
2, 191730, Note_on_c, 0, 76, 100
2, 191753, Note_on_c, 0, 76, 0
2, 191760, Note_on_c, 0, 78, 100
2, 191783, Note_on_c, 0, 78, 0
2, 191790, Note_on_c, 0, 76, 100
2, 191813, Note_on_c, 0, 76, 0
2, 191820, Note_on_c, 0, 74, 100
2, 191891, Note_on_c, 0, 74, 0
2, 191910, Note_on_c, 0, 69, 100
2, 191933, Note_on_c, 0, 69, 0
2, 191940, Note_on_c, 0, 74, 100
2, 191963, Note_on_c, 0, 74, 0
2, 191970, Note_on_c, 0, 76, 100
2, 191993, Note_on_c, 0, 76, 0
2, 192000, Note_on_c, 0, 78, 110
2, 192023, Note_on_c, 0, 78, 0
2, 192030, Note_on_c, 0, 74, 110
2, 192053, Note_on_c, 0, 74, 0
2, 192060, Note_on_c, 0, 81, 110
2, 192107, Note_on_c, 0, 81, 0
2, 192120, Note_on_c, 0, 79, 110
2, 192167, Note_on_c, 0, 79, 0
2, 192180, Note_on_c, 0, 78, 110
2, 192227, Note_on_c, 0, 78, 0
2, 192240, Note_on_c, 0, 78, 110
2, 192287, Note_on_c, 0, 78, 0
2, 192300, Note_on_c, 0, 76, 110
2, 192347, Note_on_c, 0, 76, 0
2, 192420, Note_on_c, 0, 81, 100
2, 192467, Note_on_c, 0, 81, 0
2, 192480, Note_on_c, 0, 78, 100
2, 192491, Note_on_c, 0, 78, 0
2, 192510, Note_on_c, 0, 78, 100
2, 192533, Note_on_c, 0, 78, 0
2, 192540, Note_on_c, 0, 79, 100
2, 192563, Note_on_c, 0, 79, 0
2, 192570, Note_on_c, 0, 81, 100
2, 192593, Note_on_c, 0, 81, 0
2, 192600, Note_on_c, 0, 78, 100
2, 192611, Note_on_c, 0, 78, 0
2, 192630, Note_on_c, 0, 78, 100
2, 192653, Note_on_c, 0, 78, 0
2, 192660, Note_on_c, 0, 79, 100
2, 192683, Note_on_c, 0, 79, 0
2, 192690, Note_on_c, 0, 81, 100
2, 192713, Note_on_c, 0, 81, 0
2, 192720, Note_on_c, 0, 78, 110
2, 192743, Note_on_c, 0, 78, 0
2, 192780, Note_on_c, 0, 83, 110
2, 192803, Note_on_c, 0, 83, 0
2, 192870, Note_on_c, 0, 81, 100
2, 192893, Note_on_c, 0, 81, 0
2, 192900, Note_on_c, 0, 79, 100
2, 192923, Note_on_c, 0, 79, 0
2, 192930, Note_on_c, 0, 78, 100
2, 192953, Note_on_c, 0, 78, 0
2, 192960, Note_on_c, 0, 76, 100
2, 192971, Note_on_c, 0, 76, 0
2, 192990, Note_on_c, 0, 76, 100
2, 193013, Note_on_c, 0, 76, 0
2, 193020, Note_on_c, 0, 78, 100
2, 193043, Note_on_c, 0, 78, 0
2, 193050, Note_on_c, 0, 79, 100
2, 193073, Note_on_c, 0, 79, 0
2, 193080, Note_on_c, 0, 76, 100
2, 193091, Note_on_c, 0, 76, 0
2, 193110, Note_on_c, 0, 76, 100
2, 193133, Note_on_c, 0, 76, 0
2, 193140, Note_on_c, 0, 78, 100
2, 193163, Note_on_c, 0, 78, 0
2, 193170, Note_on_c, 0, 79, 100
2, 193193, Note_on_c, 0, 79, 0
2, 193200, Note_on_c, 0, 76, 110
2, 193223, Note_on_c, 0, 76, 0
2, 193260, Note_on_c, 0, 81, 110
2, 193283, Note_on_c, 0, 81, 0
2, 193350, Note_on_c, 0, 79, 110
2, 193373, Note_on_c, 0, 79, 0
2, 193380, Note_on_c, 0, 78, 100
2, 193403, Note_on_c, 0, 78, 0
2, 193410, Note_on_c, 0, 76, 100
2, 193433, Note_on_c, 0, 76, 0
2, 193440, Note_on_c, 0, 74, 100
2, 193451, Note_on_c, 0, 74, 0
2, 193470, Note_on_c, 0, 86, 100
2, 193493, Note_on_c, 0, 86, 0
2, 193500, Note_on_c, 0, 85, 100
2, 193523, Note_on_c, 0, 85, 0
2, 193530, Note_on_c, 0, 83, 100
2, 193553, Note_on_c, 0, 83, 0
2, 193560, Note_on_c, 0, 74, 100
2, 193571, Note_on_c, 0, 74, 0
2, 193590, Note_on_c, 0, 85, 100
2, 193613, Note_on_c, 0, 85, 0
2, 193620, Note_on_c, 0, 83, 100
2, 193643, Note_on_c, 0, 83, 0
2, 193650, Note_on_c, 0, 81, 100
2, 193673, Note_on_c, 0, 81, 0
2, 193680, Note_on_c, 0, 74, 100
2, 193691, Note_on_c, 0, 74, 0
2, 193710, Note_on_c, 0, 83, 100
2, 193733, Note_on_c, 0, 83, 0
2, 193740, Note_on_c, 0, 81, 100
2, 193763, Note_on_c, 0, 81, 0
2, 193770, Note_on_c, 0, 79, 100
2, 193793, Note_on_c, 0, 79, 0
2, 193800, Note_on_c, 0, 74, 100
2, 193811, Note_on_c, 0, 74, 0
2, 193830, Note_on_c, 0, 81, 100
2, 193853, Note_on_c, 0, 81, 0
2, 193860, Note_on_c, 0, 79, 100
2, 193883, Note_on_c, 0, 79, 0
2, 193890, Note_on_c, 0, 78, 100
2, 193913, Note_on_c, 0, 78, 0
2, 193920, Note_on_c, 0, 79, 100
2, 193967, Note_on_c, 0, 79, 0
2, 193980, Note_on_c, 0, 76, 100
2, 194027, Note_on_c, 0, 76, 0
2, 194040, Note_on_c, 0, 76, 100
2, 194087, Note_on_c, 0, 76, 0
2, 194100, Note_on_c, 0, 69, 100
2, 194147, Note_on_c, 0, 69, 0
2, 194160, Note_on_c, 0, 69, 100
2, 194207, Note_on_c, 0, 69, 0
2, 194220, Note_on_c, 0, 79, 100
2, 194267, Note_on_c, 0, 79, 0
2, 194340, Note_on_c, 0, 81, 100
2, 194387, Note_on_c, 0, 81, 0
2, 194400, Note_on_c, 0, 79, 100
2, 194423, Note_on_c, 0, 79, 0
2, 194430, Note_on_c, 0, 78, 100
2, 194453, Note_on_c, 0, 78, 0
2, 194460, Note_on_c, 0, 76, 100
2, 194483, Note_on_c, 0, 76, 0
2, 194490, Note_on_c, 0, 74, 100
2, 194513, Note_on_c, 0, 74, 0
2, 194520, Note_on_c, 0, 78, 100
2, 194567, Note_on_c, 0, 78, 0
2, 194580, Note_on_c, 0, 76, 100
2, 194627, Note_on_c, 0, 76, 0
2, 194640, Note_on_c, 0, 74, 100
2, 194759, Note_on_c, 0, 74, 0
2, 194790, Note_on_c, 0, 76, 100
2, 194801, Note_on_c, 0, 76, 0
2, 194805, Note_on_c, 0, 78, 100
2, 194816, Note_on_c, 0, 78, 0
2, 194820, Note_on_c, 0, 79, 100
2, 194843, Note_on_c, 0, 79, 0
2, 194850, Note_on_c, 0, 78, 100
2, 194861, Note_on_c, 0, 78, 0
2, 194865, Note_on_c, 0, 76, 100
2, 194876, Note_on_c, 0, 76, 0
2, 194880, Note_on_c, 0, 74, 100
2, 194999, Note_on_c, 0, 74, 0
2, 195030, Note_on_c, 0, 76, 100
2, 195041, Note_on_c, 0, 76, 0
2, 195045, Note_on_c, 0, 78, 100
2, 195056, Note_on_c, 0, 78, 0
2, 195060, Note_on_c, 0, 79, 100
2, 195083, Note_on_c, 0, 79, 0
2, 195090, Note_on_c, 0, 78, 100
2, 195101, Note_on_c, 0, 78, 0
2, 195105, Note_on_c, 0, 76, 100
2, 195116, Note_on_c, 0, 76, 0
2, 195120, Note_on_c, 0, 74, 100
2, 195143, Note_on_c, 0, 74, 0
2, 195150, Note_on_c, 0, 76, 100
2, 195161, Note_on_c, 0, 76, 0
2, 195165, Note_on_c, 0, 78, 100
2, 195176, Note_on_c, 0, 78, 0
2, 195180, Note_on_c, 0, 79, 100
2, 195203, Note_on_c, 0, 79, 0
2, 195210, Note_on_c, 0, 78, 100
2, 195221, Note_on_c, 0, 78, 0
2, 195225, Note_on_c, 0, 76, 100
2, 195236, Note_on_c, 0, 76, 0
2, 195240, Note_on_c, 0, 74, 100
2, 195263, Note_on_c, 0, 74, 0
2, 195270, Note_on_c, 0, 76, 100
2, 195281, Note_on_c, 0, 76, 0
2, 195285, Note_on_c, 0, 78, 100
2, 195296, Note_on_c, 0, 78, 0
2, 195300, Note_on_c, 0, 79, 100
2, 195323, Note_on_c, 0, 79, 0
2, 195330, Note_on_c, 0, 78, 100
2, 195341, Note_on_c, 0, 78, 0
2, 195345, Note_on_c, 0, 76, 100
2, 195356, Note_on_c, 0, 76, 0
2, 195360, Note_on_c, 0, 74, 100
2, 195383, Note_on_c, 0, 74, 0
2, 195420, Note_on_c, 0, 80, 100
2, 195443, Note_on_c, 0, 80, 0
2, 195510, Note_on_c, 0, 83, 100
2, 195533, Note_on_c, 0, 83, 0
2, 195540, Note_on_c, 0, 81, 100
2, 195563, Note_on_c, 0, 81, 0
2, 195570, Note_on_c, 0, 80, 100
2, 195593, Note_on_c, 0, 80, 0
2, 195600, Note_on_c, 0, 81, 100
2, 195647, Note_on_c, 0, 81, 0
2, 195660, Note_on_c, 0, 69, 100
2, 195707, Note_on_c, 0, 69, 0
2, 195780, Note_on_c, 0, 79, 100
2, 195827, Note_on_c, 0, 79, 0
2, 195840, Note_on_c, 0, 78, 100
2, 195887, Note_on_c, 0, 78, 0
2, 195900, Note_on_c, 0, 86, 100
2, 195947, Note_on_c, 0, 86, 0
2, 195960, Note_on_c, 0, 76, 100
2, 196007, Note_on_c, 0, 76, 0
2, 196020, Note_on_c, 0, 85, 100
2, 196067, Note_on_c, 0, 85, 0
2, 196080, Note_on_c, 0, 86, 100
2, 196224, Note_on_c, 0, 86, 0
2, 196224, End_track
3, 0, Start_track
3, 0, MIDI_port, 0
3, 0, Title_t, "Tromba II"
3, 0, Program_c, 1, 56
3, 0, Control_c, 1, 7, 127
3, 0, Control_c, 1, 10, 90
3, 0, Control_c, 1, 91, 121
3, 840, Note_on_c, 1, 69, 80
3, 899, Note_on_c, 1, 69, 0
3, 900, Note_on_c, 1, 74, 90
3, 1019, Note_on_c, 1, 74, 0
3, 1020, Note_on_c, 1, 69, 80
3, 1079, Note_on_c, 1, 69, 0
3, 1080, Note_on_c, 1, 76, 90
3, 1199, Note_on_c, 1, 76, 0
3, 1200, Note_on_c, 1, 69, 80
3, 1259, Note_on_c, 1, 69, 0
3, 1260, Note_on_c, 1, 78, 90
3, 1319, Note_on_c, 1, 78, 0
3, 1320, Note_on_c, 1, 76, 80
3, 1349, Note_on_c, 1, 76, 0
3, 1350, Note_on_c, 1, 78, 80
3, 1379, Note_on_c, 1, 78, 0
3, 1380, Note_on_c, 1, 79, 80
3, 1409, Note_on_c, 1, 79, 0
3, 1410, Note_on_c, 1, 76, 80
3, 1439, Note_on_c, 1, 76, 0
3, 1440, Note_on_c, 1, 79, 90
3, 1469, Note_on_c, 1, 79, 0
3, 1470, Note_on_c, 1, 78, 90
3, 1499, Note_on_c, 1, 78, 0
3, 1500, Note_on_c, 1, 76, 80
3, 1529, Note_on_c, 1, 76, 0
3, 1530, Note_on_c, 1, 74, 80
3, 1559, Note_on_c, 1, 74, 0
3, 2280, Note_on_c, 1, 76, 80
3, 2339, Note_on_c, 1, 76, 0
3, 2340, Note_on_c, 1, 74, 90
3, 2399, Note_on_c, 1, 74, 0
3, 2400, Note_on_c, 1, 83, 80
3, 2429, Note_on_c, 1, 83, 0
3, 2430, Note_on_c, 1, 81, 80
3, 2459, Note_on_c, 1, 81, 0
3, 2460, Note_on_c, 1, 79, 80
3, 2489, Note_on_c, 1, 79, 0
3, 2490, Note_on_c, 1, 78, 80
3, 2519, Note_on_c, 1, 78, 0
3, 2520, Note_on_c, 1, 76, 90
3, 2579, Note_on_c, 1, 76, 0
3, 2580, Note_on_c, 1, 81, 80
3, 2609, Note_on_c, 1, 81, 0
3, 2610, Note_on_c, 1, 79, 80
3, 2639, Note_on_c, 1, 79, 0
3, 2640, Note_on_c, 1, 78, 80
3, 2669, Note_on_c, 1, 78, 0
3, 2670, Note_on_c, 1, 76, 80
3, 2699, Note_on_c, 1, 76, 0
3, 2700, Note_on_c, 1, 74, 90
3, 2759, Note_on_c, 1, 74, 0
3, 2760, Note_on_c, 1, 79, 80
3, 2819, Note_on_c, 1, 79, 0
3, 2820, Note_on_c, 1, 78, 80
3, 2879, Note_on_c, 1, 78, 0
3, 2880, Note_on_c, 1, 76, 90
3, 2939, Note_on_c, 1, 76, 0
3, 2940, Note_on_c, 1, 69, 80
3, 2999, Note_on_c, 1, 69, 0
3, 3000, Note_on_c, 1, 76, 80
3, 3119, Note_on_c, 1, 76, 0
3, 3120, Note_on_c, 1, 74, 80
3, 3179, Note_on_c, 1, 74, 0
3, 3180, Note_on_c, 1, 69, 80
3, 3239, Note_on_c, 1, 69, 0
3, 3240, Note_on_c, 1, 78, 90
3, 3299, Note_on_c, 1, 78, 0
3, 3300, Note_on_c, 1, 76, 80
3, 3480, Note_on_c, 1, 76, 0
3, 3480, Note_on_c, 1, 81, 80
3, 3539, Note_on_c, 1, 81, 0
3, 3540, Note_on_c, 1, 76, 80
3, 3599, Note_on_c, 1, 76, 0
3, 3600, Note_on_c, 1, 69, 65
3, 3659, Note_on_c, 1, 69, 0
3, 3780, Note_on_c, 1, 78, 65
3, 3839, Note_on_c, 1, 78, 0
3, 3960, Note_on_c, 1, 78, 65
3, 4019, Note_on_c, 1, 78, 0
3, 4140, Note_on_c, 1, 76, 65
3, 4199, Note_on_c, 1, 76, 0
3, 4200, Note_on_c, 1, 76, 80
3, 4229, Note_on_c, 1, 76, 0
3, 4230, Note_on_c, 1, 76, 80
3, 4259, Note_on_c, 1, 76, 0
3, 4260, Note_on_c, 1, 76, 80
3, 4289, Note_on_c, 1, 76, 0
3, 4290, Note_on_c, 1, 76, 80
3, 4319, Note_on_c, 1, 76, 0
3, 4320, Note_on_c, 1, 76, 90
3, 4439, Note_on_c, 1, 76, 0
3, 5640, Note_on_c, 1, 78, 80
3, 5670, Note_on_c, 1, 78, 0
3, 5670, Note_on_c, 1, 76, 80
3, 5700, Note_on_c, 1, 76, 0
3, 5700, Note_on_c, 1, 74, 80
3, 5730, Note_on_c, 1, 74, 0
3, 5730, Note_on_c, 1, 73, 80
3, 5760, Note_on_c, 1, 73, 0
3, 5760, Note_on_c, 1, 74, 90
3, 5820, Note_on_c, 1, 74, 0
3, 5820, Note_on_c, 1, 69, 80
3, 5880, Note_on_c, 1, 69, 0
3, 6840, Note_on_c, 1, 81, 90
3, 6900, Note_on_c, 1, 81, 0
3, 7200, Note_on_c, 1, 74, 90
3, 7260, Note_on_c, 1, 74, 0
3, 7740, Note_on_c, 1, 74, 90
3, 7800, Note_on_c, 1, 74, 0
3, 7800, Note_on_c, 1, 83, 80
3, 7830, Note_on_c, 1, 83, 0
3, 7830, Note_on_c, 1, 81, 80
3, 7860, Note_on_c, 1, 81, 0
3, 7860, Note_on_c, 1, 79, 80
3, 7890, Note_on_c, 1, 79, 0
3, 7890, Note_on_c, 1, 81, 80
3, 7920, Note_on_c, 1, 81, 0
3, 7920, Note_on_c, 1, 78, 65
3, 7980, Note_on_c, 1, 78, 0
3, 8400, Note_on_c, 1, 76, 80
3, 8460, Note_on_c, 1, 76, 0
3, 8460, Note_on_c, 1, 78, 90
3, 8490, Note_on_c, 1, 78, 0
3, 8490, Note_on_c, 1, 79, 90
3, 8520, Note_on_c, 1, 79, 0
3, 8520, Note_on_c, 1, 81, 80
3, 8550, Note_on_c, 1, 81, 0
3, 8550, Note_on_c, 1, 79, 80
3, 8580, Note_on_c, 1, 79, 0
3, 8580, Note_on_c, 1, 78, 80
3, 8610, Note_on_c, 1, 78, 0
3, 8610, Note_on_c, 1, 76, 80
3, 8640, Note_on_c, 1, 76, 0
3, 8640, Note_on_c, 1, 74, 90
3, 8760, Note_on_c, 1, 74, 0
3, 11640, Note_on_c, 1, 69, 80
3, 11699, Note_on_c, 1, 69, 0
3, 11700, Note_on_c, 1, 69, 90
3, 11999, Note_on_c, 1, 69, 0
3, 12000, Note_on_c, 1, 76, 80
3, 12059, Note_on_c, 1, 76, 0
3, 12060, Note_on_c, 1, 74, 90
3, 12119, Note_on_c, 1, 74, 0
3, 12120, Note_on_c, 1, 76, 80
3, 12149, Note_on_c, 1, 76, 0
3, 12150, Note_on_c, 1, 74, 80
3, 12179, Note_on_c, 1, 74, 0
3, 12180, Note_on_c, 1, 76, 80
3, 12209, Note_on_c, 1, 76, 0
3, 12210, Note_on_c, 1, 73, 80
3, 12239, Note_on_c, 1, 73, 0
3, 12240, Note_on_c, 1, 74, 90
3, 12299, Note_on_c, 1, 74, 0
3, 12300, Note_on_c, 1, 69, 80
3, 12359, Note_on_c, 1, 69, 0
3, 15240, Note_on_c, 1, 69, 80
3, 15299, Note_on_c, 1, 69, 0
3, 15300, Note_on_c, 1, 69, 90
3, 15599, Note_on_c, 1, 69, 0
3, 15600, Note_on_c, 1, 76, 80
3, 15659, Note_on_c, 1, 76, 0
3, 15660, Note_on_c, 1, 74, 90
3, 15719, Note_on_c, 1, 74, 0
3, 15720, Note_on_c, 1, 76, 80
3, 15749, Note_on_c, 1, 76, 0
3, 15750, Note_on_c, 1, 74, 80
3, 15779, Note_on_c, 1, 74, 0
3, 15780, Note_on_c, 1, 76, 80
3, 15809, Note_on_c, 1, 76, 0
3, 15810, Note_on_c, 1, 73, 80
3, 15839, Note_on_c, 1, 73, 0
3, 15840, Note_on_c, 1, 74, 90
3, 15899, Note_on_c, 1, 74, 0
3, 15900, Note_on_c, 1, 69, 80
3, 15959, Note_on_c, 1, 69, 0
3, 19560, Note_on_c, 1, 76, 80
3, 19619, Note_on_c, 1, 76, 0
3, 19620, Note_on_c, 1, 74, 90
3, 19649, Note_on_c, 1, 74, 0
3, 19680, Note_on_c, 1, 83, 80
3, 19709, Note_on_c, 1, 83, 0
3, 19710, Note_on_c, 1, 81, 80
3, 19739, Note_on_c, 1, 81, 0
3, 19740, Note_on_c, 1, 79, 80
3, 19769, Note_on_c, 1, 79, 0
3, 19770, Note_on_c, 1, 78, 80
3, 19799, Note_on_c, 1, 78, 0
3, 19800, Note_on_c, 1, 76, 90
3, 19829, Note_on_c, 1, 76, 0
3, 19860, Note_on_c, 1, 81, 80
3, 19889, Note_on_c, 1, 81, 0
3, 19890, Note_on_c, 1, 79, 80
3, 19919, Note_on_c, 1, 79, 0
3, 19920, Note_on_c, 1, 78, 80
3, 19949, Note_on_c, 1, 78, 0
3, 19950, Note_on_c, 1, 76, 80
3, 19979, Note_on_c, 1, 76, 0
3, 19980, Note_on_c, 1, 74, 90
3, 20039, Note_on_c, 1, 74, 0
3, 20040, Note_on_c, 1, 79, 80
3, 20099, Note_on_c, 1, 79, 0
3, 20100, Note_on_c, 1, 78, 80
3, 20159, Note_on_c, 1, 78, 0
3, 20160, Note_on_c, 1, 76, 90
3, 20219, Note_on_c, 1, 76, 0
3, 20220, Note_on_c, 1, 69, 80
3, 20279, Note_on_c, 1, 69, 0
3, 20280, Note_on_c, 1, 76, 80
3, 20399, Note_on_c, 1, 76, 0
3, 20400, Note_on_c, 1, 74, 80
3, 20459, Note_on_c, 1, 74, 0
3, 20460, Note_on_c, 1, 69, 80
3, 20519, Note_on_c, 1, 69, 0
3, 20520, Note_on_c, 1, 78, 90
3, 20579, Note_on_c, 1, 78, 0
3, 20580, Note_on_c, 1, 76, 80
3, 20759, Note_on_c, 1, 76, 0
3, 20760, Note_on_c, 1, 81, 80
3, 20819, Note_on_c, 1, 81, 0
3, 20820, Note_on_c, 1, 76, 80
3, 20879, Note_on_c, 1, 76, 0
3, 20880, Note_on_c, 1, 69, 70
3, 20939, Note_on_c, 1, 69, 0
3, 21060, Note_on_c, 1, 78, 70
3, 21119, Note_on_c, 1, 78, 0
3, 21240, Note_on_c, 1, 78, 70
3, 21299, Note_on_c, 1, 78, 0
3, 21420, Note_on_c, 1, 76, 70
3, 21479, Note_on_c, 1, 76, 0
3, 21480, Note_on_c, 1, 76, 90
3, 21509, Note_on_c, 1, 76, 0
3, 21510, Note_on_c, 1, 76, 90
3, 21539, Note_on_c, 1, 76, 0
3, 21540, Note_on_c, 1, 76, 90
3, 21569, Note_on_c, 1, 76, 0
3, 21570, Note_on_c, 1, 76, 90
3, 21599, Note_on_c, 1, 76, 0
3, 21600, Note_on_c, 1, 76, 90
3, 21719, Note_on_c, 1, 76, 0
3, 27240, Note_on_c, 1, 78, 80
3, 27269, Note_on_c, 1, 78, 0
3, 27270, Note_on_c, 1, 76, 80
3, 27299, Note_on_c, 1, 76, 0
3, 27300, Note_on_c, 1, 74, 80
3, 27329, Note_on_c, 1, 74, 0
3, 27330, Note_on_c, 1, 73, 80
3, 27359, Note_on_c, 1, 73, 0
3, 27360, Note_on_c, 1, 74, 90
3, 27419, Note_on_c, 1, 74, 0
3, 27420, Note_on_c, 1, 69, 80
3, 27479, Note_on_c, 1, 69, 0
3, 29640, Note_on_c, 1, 69, 80
3, 29699, Note_on_c, 1, 69, 0
3, 29700, Note_on_c, 1, 74, 90
3, 29819, Note_on_c, 1, 74, 0
3, 29820, Note_on_c, 1, 69, 80
3, 29879, Note_on_c, 1, 69, 0
3, 29880, Note_on_c, 1, 76, 90
3, 29999, Note_on_c, 1, 76, 0
3, 30000, Note_on_c, 1, 69, 80
3, 30059, Note_on_c, 1, 69, 0
3, 30060, Note_on_c, 1, 78, 90
3, 30119, Note_on_c, 1, 78, 0
3, 30120, Note_on_c, 1, 76, 80
3, 30149, Note_on_c, 1, 76, 0
3, 30150, Note_on_c, 1, 78, 80
3, 30179, Note_on_c, 1, 78, 0
3, 30180, Note_on_c, 1, 79, 80
3, 30209, Note_on_c, 1, 79, 0
3, 30210, Note_on_c, 1, 76, 80
3, 30239, Note_on_c, 1, 76, 0
3, 30240, Note_on_c, 1, 79, 90
3, 30269, Note_on_c, 1, 79, 0
3, 30270, Note_on_c, 1, 78, 90
3, 30299, Note_on_c, 1, 78, 0
3, 30300, Note_on_c, 1, 76, 80
3, 30329, Note_on_c, 1, 76, 0
3, 30330, Note_on_c, 1, 74, 80
3, 30359, Note_on_c, 1, 74, 0
3, 32520, Note_on_c, 1, 69, 80
3, 32579, Note_on_c, 1, 69, 0
3, 32580, Note_on_c, 1, 69, 90
3, 32879, Note_on_c, 1, 69, 0
3, 32880, Note_on_c, 1, 76, 80
3, 32939, Note_on_c, 1, 76, 0
3, 32940, Note_on_c, 1, 74, 90
3, 32999, Note_on_c, 1, 74, 0
3, 33000, Note_on_c, 1, 76, 80
3, 33029, Note_on_c, 1, 76, 0
3, 33030, Note_on_c, 1, 74, 80
3, 33059, Note_on_c, 1, 74, 0
3, 33060, Note_on_c, 1, 76, 80
3, 33089, Note_on_c, 1, 76, 0
3, 33090, Note_on_c, 1, 73, 80
3, 33119, Note_on_c, 1, 73, 0
3, 33120, Note_on_c, 1, 74, 90
3, 33179, Note_on_c, 1, 74, 0
3, 33180, Note_on_c, 1, 69, 80
3, 33239, Note_on_c, 1, 69, 0
3, 37500, Note_on_c, 1, 69, 80
3, 37559, Note_on_c, 1, 69, 0
3, 37560, Note_on_c, 1, 76, 80
3, 37679, Note_on_c, 1, 76, 0
3, 37680, Note_on_c, 1, 74, 80
3, 37739, Note_on_c, 1, 74, 0
3, 37740, Note_on_c, 1, 69, 80
3, 37799, Note_on_c, 1, 69, 0
3, 37800, Note_on_c, 1, 78, 90
3, 37859, Note_on_c, 1, 78, 0
3, 37860, Note_on_c, 1, 76, 80
3, 38039, Note_on_c, 1, 76, 0
3, 38040, Note_on_c, 1, 81, 80
3, 38099, Note_on_c, 1, 81, 0
3, 38100, Note_on_c, 1, 76, 80
3, 38159, Note_on_c, 1, 76, 0
3, 38160, Note_on_c, 1, 69, 70
3, 38219, Note_on_c, 1, 69, 0
3, 38700, Note_on_c, 1, 76, 90
3, 38759, Note_on_c, 1, 76, 0
3, 38760, Note_on_c, 1, 76, 80
3, 38789, Note_on_c, 1, 76, 0
3, 38790, Note_on_c, 1, 76, 80
3, 38819, Note_on_c, 1, 76, 0
3, 38820, Note_on_c, 1, 76, 80
3, 38849, Note_on_c, 1, 76, 0
3, 38850, Note_on_c, 1, 76, 80
3, 38879, Note_on_c, 1, 76, 0
3, 38880, Note_on_c, 1, 76, 90
3, 38999, Note_on_c, 1, 76, 0
3, 40200, Note_on_c, 1, 78, 80
3, 40229, Note_on_c, 1, 78, 0
3, 40230, Note_on_c, 1, 76, 80
3, 40259, Note_on_c, 1, 76, 0
3, 40260, Note_on_c, 1, 74, 80
3, 40289, Note_on_c, 1, 74, 0
3, 40290, Note_on_c, 1, 73, 80
3, 40319, Note_on_c, 1, 73, 0
3, 40320, Note_on_c, 1, 74, 90
3, 40379, Note_on_c, 1, 74, 0
3, 40380, Note_on_c, 1, 69, 80
3, 40439, Note_on_c, 1, 69, 0
3, 41400, Note_on_c, 1, 81, 90
3, 41459, Note_on_c, 1, 81, 0
3, 41760, Note_on_c, 1, 74, 90
3, 41819, Note_on_c, 1, 74, 0
3, 42300, Note_on_c, 1, 74, 90
3, 42359, Note_on_c, 1, 74, 0
3, 42360, Note_on_c, 1, 83, 80
3, 42389, Note_on_c, 1, 83, 0
3, 42390, Note_on_c, 1, 81, 80
3, 42419, Note_on_c, 1, 81, 0
3, 42420, Note_on_c, 1, 79, 80
3, 42449, Note_on_c, 1, 79, 0
3, 42450, Note_on_c, 1, 81, 80
3, 42479, Note_on_c, 1, 81, 0
3, 42480, Note_on_c, 1, 78, 70
3, 42539, Note_on_c, 1, 78, 0
3, 42960, Note_on_c, 1, 76, 80
3, 43019, Note_on_c, 1, 76, 0
3, 43020, Note_on_c, 1, 78, 90
3, 43049, Note_on_c, 1, 78, 0
3, 43050, Note_on_c, 1, 79, 90
3, 43079, Note_on_c, 1, 79, 0
3, 43080, Note_on_c, 1, 81, 80
3, 43109, Note_on_c, 1, 81, 0
3, 43110, Note_on_c, 1, 79, 80
3, 43139, Note_on_c, 1, 79, 0
3, 43140, Note_on_c, 1, 78, 80
3, 43169, Note_on_c, 1, 78, 0
3, 43170, Note_on_c, 1, 76, 80
3, 43199, Note_on_c, 1, 76, 0
3, 43200, Note_on_c, 1, 74, 90
3, 43319, Note_on_c, 1, 74, 0
3, 163202, Control_c, 1, 91, 114
3, 164220, Note_on_c, 1, 78, 100
3, 164268, Note_on_c, 1, 78, 0
3, 164280, Note_on_c, 1, 76, 100
3, 164328, Note_on_c, 1, 76, 0
3, 164340, Note_on_c, 1, 74, 100
3, 164388, Note_on_c, 1, 74, 0
3, 164400, Note_on_c, 1, 74, 100
3, 164448, Note_on_c, 1, 74, 0
3, 164460, Note_on_c, 1, 69, 100
3, 164508, Note_on_c, 1, 69, 0
3, 165180, Note_on_c, 1, 78, 100
3, 165228, Note_on_c, 1, 78, 0
3, 165240, Note_on_c, 1, 76, 100
3, 165288, Note_on_c, 1, 76, 0
3, 165300, Note_on_c, 1, 74, 100
3, 165348, Note_on_c, 1, 74, 0
3, 165360, Note_on_c, 1, 74, 100
3, 165408, Note_on_c, 1, 74, 0
3, 165420, Note_on_c, 1, 73, 100
3, 165468, Note_on_c, 1, 73, 0
3, 165900, Note_on_c, 1, 78, 100
3, 165923, Note_on_c, 1, 78, 0
3, 165930, Note_on_c, 1, 76, 100
3, 165953, Note_on_c, 1, 76, 0
3, 165960, Note_on_c, 1, 78, 100
3, 166008, Note_on_c, 1, 78, 0
3, 166380, Note_on_c, 1, 76, 100
3, 166403, Note_on_c, 1, 76, 0
3, 166410, Note_on_c, 1, 74, 100
3, 166433, Note_on_c, 1, 74, 0
3, 166440, Note_on_c, 1, 76, 100
3, 166488, Note_on_c, 1, 76, 0
3, 167340, Note_on_c, 1, 76, 80
3, 167364, Note_on_c, 1, 76, 0
3, 167370, Note_on_c, 1, 76, 80
3, 167394, Note_on_c, 1, 76, 0
3, 167400, Note_on_c, 1, 76, 80
3, 167448, Note_on_c, 1, 76, 0
3, 167460, Note_on_c, 1, 76, 80
3, 167508, Note_on_c, 1, 76, 0
3, 167520, Note_on_c, 1, 74, 80
3, 167568, Note_on_c, 1, 74, 0
3, 167580, Note_on_c, 1, 78, 80
3, 167628, Note_on_c, 1, 78, 0
3, 167640, Note_on_c, 1, 83, 80
3, 167688, Note_on_c, 1, 83, 0
3, 167700, Note_on_c, 1, 81, 80
3, 167724, Note_on_c, 1, 81, 0
3, 167730, Note_on_c, 1, 79, 80
3, 167754, Note_on_c, 1, 79, 0
3, 167760, Note_on_c, 1, 78, 80
3, 167808, Note_on_c, 1, 78, 0
3, 168000, Note_on_c, 1, 81, 80
3, 168048, Note_on_c, 1, 81, 0
3, 169020, Note_on_c, 1, 78, 96
3, 169068, Note_on_c, 1, 78, 0
3, 169080, Note_on_c, 1, 83, 97
3, 169128, Note_on_c, 1, 83, 0
3, 169140, Note_on_c, 1, 81, 98
3, 169188, Note_on_c, 1, 81, 0
3, 169200, Note_on_c, 1, 81, 100
3, 169295, Note_on_c, 1, 81, 0
3, 172860, Note_on_c, 1, 78, 110
3, 172908, Note_on_c, 1, 78, 0
3, 172920, Note_on_c, 1, 76, 110
3, 172968, Note_on_c, 1, 76, 0
3, 172980, Note_on_c, 1, 74, 110
3, 173028, Note_on_c, 1, 74, 0
3, 173040, Note_on_c, 1, 74, 110
3, 173088, Note_on_c, 1, 74, 0
3, 173100, Note_on_c, 1, 69, 110
3, 173148, Note_on_c, 1, 69, 0
3, 173820, Note_on_c, 1, 78, 100
3, 173868, Note_on_c, 1, 78, 0
3, 173880, Note_on_c, 1, 76, 100
3, 173928, Note_on_c, 1, 76, 0
3, 173940, Note_on_c, 1, 74, 100
3, 173988, Note_on_c, 1, 74, 0
3, 174000, Note_on_c, 1, 74, 100
3, 174048, Note_on_c, 1, 74, 0
3, 174060, Note_on_c, 1, 73, 100
3, 174108, Note_on_c, 1, 73, 0
3, 174540, Note_on_c, 1, 78, 100
3, 174563, Note_on_c, 1, 78, 0
3, 174570, Note_on_c, 1, 76, 100
3, 174593, Note_on_c, 1, 76, 0
3, 174600, Note_on_c, 1, 78, 100
3, 174648, Note_on_c, 1, 78, 0
3, 175020, Note_on_c, 1, 76, 100
3, 175043, Note_on_c, 1, 76, 0
3, 175050, Note_on_c, 1, 74, 100
3, 175073, Note_on_c, 1, 74, 0
3, 175080, Note_on_c, 1, 76, 100
3, 175128, Note_on_c, 1, 76, 0
3, 175980, Note_on_c, 1, 76, 80
3, 176004, Note_on_c, 1, 76, 0
3, 176010, Note_on_c, 1, 76, 80
3, 176034, Note_on_c, 1, 76, 0
3, 176040, Note_on_c, 1, 76, 80
3, 176088, Note_on_c, 1, 76, 0
3, 176100, Note_on_c, 1, 76, 80
3, 176148, Note_on_c, 1, 76, 0
3, 176160, Note_on_c, 1, 74, 80
3, 176208, Note_on_c, 1, 74, 0
3, 176220, Note_on_c, 1, 78, 80
3, 176268, Note_on_c, 1, 78, 0
3, 176280, Note_on_c, 1, 83, 80
3, 176328, Note_on_c, 1, 83, 0
3, 176340, Note_on_c, 1, 81, 80
3, 176364, Note_on_c, 1, 81, 0
3, 176370, Note_on_c, 1, 79, 80
3, 176394, Note_on_c, 1, 79, 0
3, 176400, Note_on_c, 1, 78, 80
3, 176448, Note_on_c, 1, 78, 0
3, 176640, Note_on_c, 1, 81, 80
3, 176688, Note_on_c, 1, 81, 0
3, 177660, Note_on_c, 1, 78, 80
3, 177708, Note_on_c, 1, 78, 0
3, 177720, Note_on_c, 1, 83, 80
3, 177768, Note_on_c, 1, 83, 0
3, 177780, Note_on_c, 1, 81, 80
3, 177828, Note_on_c, 1, 81, 0
3, 177840, Note_on_c, 1, 81, 80
3, 177935, Note_on_c, 1, 81, 0
3, 181500, Note_on_c, 1, 78, 110
3, 181547, Note_on_c, 1, 78, 0
3, 181560, Note_on_c, 1, 76, 110
3, 181607, Note_on_c, 1, 76, 0
3, 181620, Note_on_c, 1, 74, 110
3, 181667, Note_on_c, 1, 74, 0
3, 181680, Note_on_c, 1, 74, 110
3, 181727, Note_on_c, 1, 74, 0
3, 181740, Note_on_c, 1, 73, 110
3, 181787, Note_on_c, 1, 73, 0
3, 182460, Note_on_c, 1, 78, 100
3, 182507, Note_on_c, 1, 78, 0
3, 182520, Note_on_c, 1, 76, 100
3, 182567, Note_on_c, 1, 76, 0
3, 182580, Note_on_c, 1, 74, 100
3, 182627, Note_on_c, 1, 74, 0
3, 182640, Note_on_c, 1, 74, 100
3, 182687, Note_on_c, 1, 74, 0
3, 182700, Note_on_c, 1, 73, 100
3, 182747, Note_on_c, 1, 73, 0
3, 183660, Note_on_c, 1, 78, 100
3, 183683, Note_on_c, 1, 78, 0
3, 183690, Note_on_c, 1, 76, 100
3, 183713, Note_on_c, 1, 76, 0
3, 183720, Note_on_c, 1, 78, 100
3, 183767, Note_on_c, 1, 78, 0
3, 184140, Note_on_c, 1, 76, 100
3, 184163, Note_on_c, 1, 76, 0
3, 184170, Note_on_c, 1, 74, 100
3, 184193, Note_on_c, 1, 74, 0
3, 184200, Note_on_c, 1, 76, 100
3, 184248, Note_on_c, 1, 76, 0
3, 185820, Note_on_c, 1, 66, 100
3, 185843, Note_on_c, 1, 66, 0
3, 185850, Note_on_c, 1, 66, 100
3, 185873, Note_on_c, 1, 66, 0
3, 185880, Note_on_c, 1, 66, 100
3, 185927, Note_on_c, 1, 66, 0
3, 185940, Note_on_c, 1, 66, 100
3, 185987, Note_on_c, 1, 66, 0
3, 186000, Note_on_c, 1, 66, 100
3, 186095, Note_on_c, 1, 66, 0
3, 188220, Note_on_c, 1, 76, 100
3, 188243, Note_on_c, 1, 76, 0
3, 188250, Note_on_c, 1, 78, 80
3, 188273, Note_on_c, 1, 78, 0
3, 188280, Note_on_c, 1, 80, 80
3, 188328, Note_on_c, 1, 80, 0
3, 188460, Note_on_c, 1, 78, 80
3, 188483, Note_on_c, 1, 78, 0
3, 188490, Note_on_c, 1, 80, 80
3, 188513, Note_on_c, 1, 80, 0
3, 188520, Note_on_c, 1, 81, 80
3, 188568, Note_on_c, 1, 81, 0
3, 190082, Control_c, 1, 91, 114
3, 191100, Note_on_c, 1, 78, 100
3, 191148, Note_on_c, 1, 78, 0
3, 191160, Note_on_c, 1, 76, 100
3, 191208, Note_on_c, 1, 76, 0
3, 191220, Note_on_c, 1, 74, 100
3, 191268, Note_on_c, 1, 74, 0
3, 191280, Note_on_c, 1, 74, 100
3, 191328, Note_on_c, 1, 74, 0
3, 191340, Note_on_c, 1, 69, 100
3, 191388, Note_on_c, 1, 69, 0
3, 192060, Note_on_c, 1, 78, 110
3, 192108, Note_on_c, 1, 78, 0
3, 192120, Note_on_c, 1, 76, 110
3, 192168, Note_on_c, 1, 76, 0
3, 192180, Note_on_c, 1, 74, 110
3, 192228, Note_on_c, 1, 74, 0
3, 192240, Note_on_c, 1, 74, 110
3, 192288, Note_on_c, 1, 74, 0
3, 192300, Note_on_c, 1, 73, 110
3, 192348, Note_on_c, 1, 73, 0
3, 192780, Note_on_c, 1, 78, 110
3, 192803, Note_on_c, 1, 78, 0
3, 192810, Note_on_c, 1, 76, 110
3, 192833, Note_on_c, 1, 76, 0
3, 192840, Note_on_c, 1, 78, 110
3, 192888, Note_on_c, 1, 78, 0
3, 193260, Note_on_c, 1, 76, 110
3, 193283, Note_on_c, 1, 76, 0
3, 193290, Note_on_c, 1, 74, 110
3, 193313, Note_on_c, 1, 74, 0
3, 193320, Note_on_c, 1, 76, 110
3, 193368, Note_on_c, 1, 76, 0
3, 194220, Note_on_c, 1, 76, 100
3, 194244, Note_on_c, 1, 76, 0
3, 194250, Note_on_c, 1, 76, 100
3, 194274, Note_on_c, 1, 76, 0
3, 194280, Note_on_c, 1, 76, 100
3, 194328, Note_on_c, 1, 76, 0
3, 194340, Note_on_c, 1, 76, 100
3, 194388, Note_on_c, 1, 76, 0
3, 194400, Note_on_c, 1, 74, 100
3, 194448, Note_on_c, 1, 74, 0
3, 194460, Note_on_c, 1, 78, 100
3, 194508, Note_on_c, 1, 78, 0
3, 194520, Note_on_c, 1, 83, 100
3, 194568, Note_on_c, 1, 83, 0
3, 194580, Note_on_c, 1, 81, 100
3, 194604, Note_on_c, 1, 81, 0
3, 194610, Note_on_c, 1, 79, 100
3, 194634, Note_on_c, 1, 79, 0
3, 194640, Note_on_c, 1, 78, 100
3, 194688, Note_on_c, 1, 78, 0
3, 194880, Note_on_c, 1, 81, 100
3, 194928, Note_on_c, 1, 81, 0
3, 195900, Note_on_c, 1, 78, 100
3, 195948, Note_on_c, 1, 78, 0
3, 195960, Note_on_c, 1, 83, 100
3, 196008, Note_on_c, 1, 83, 0
3, 196020, Note_on_c, 1, 81, 100
3, 196068, Note_on_c, 1, 81, 0
3, 196080, Note_on_c, 1, 81, 100
3, 196224, Note_on_c, 1, 81, 0
3, 196224, End_track
4, 0, Start_track
4, 0, MIDI_port, 0
4, 0, Title_t, "Tromba III"
4, 0, Program_c, 0, 56
4, 0, Control_c, 0, 7, 127
4, 0, Control_c, 0, 10, 63
4, 0, Control_c, 0, 91, 120
4, 840, Note_on_c, 0, 62, 80
4, 899, Note_on_c, 0, 62, 0
4, 900, Note_on_c, 0, 69, 90
4, 1019, Note_on_c, 0, 69, 0
4, 1020, Note_on_c, 0, 74, 80
4, 1079, Note_on_c, 0, 74, 0
4, 1080, Note_on_c, 0, 69, 90
4, 1199, Note_on_c, 0, 69, 0
4, 1200, Note_on_c, 0, 69, 80
4, 1259, Note_on_c, 0, 69, 0
4, 1260, Note_on_c, 0, 69, 90
4, 1319, Note_on_c, 0, 69, 0
4, 1320, Note_on_c, 0, 69, 80
4, 1349, Note_on_c, 0, 69, 0
4, 1350, Note_on_c, 0, 69, 80
4, 1379, Note_on_c, 0, 69, 0
4, 1380, Note_on_c, 0, 69, 80
4, 1409, Note_on_c, 0, 69, 0
4, 1410, Note_on_c, 0, 69, 80
4, 1439, Note_on_c, 0, 69, 0
4, 1440, Note_on_c, 0, 69, 90
4, 1499, Note_on_c, 0, 69, 0
4, 1500, Note_on_c, 0, 66, 80
4, 1559, Note_on_c, 0, 66, 0
4, 2280, Note_on_c, 0, 69, 80
4, 2339, Note_on_c, 0, 69, 0
4, 2340, Note_on_c, 0, 69, 90
4, 2399, Note_on_c, 0, 69, 0
4, 2520, Note_on_c, 0, 69, 90
4, 2579, Note_on_c, 0, 69, 0
4, 2700, Note_on_c, 0, 66, 90
4, 2759, Note_on_c, 0, 66, 0
4, 2760, Note_on_c, 0, 76, 80
4, 2819, Note_on_c, 0, 76, 0
4, 2820, Note_on_c, 0, 74, 80
4, 2879, Note_on_c, 0, 74, 0
4, 2880, Note_on_c, 0, 76, 90
4, 2939, Note_on_c, 0, 76, 0
4, 2940, Note_on_c, 0, 81, 80
4, 2999, Note_on_c, 0, 81, 0
4, 3000, Note_on_c, 0, 69, 80
4, 3059, Note_on_c, 0, 69, 0
4, 3060, Note_on_c, 0, 69, 90
4, 3119, Note_on_c, 0, 69, 0
4, 3180, Note_on_c, 0, 76, 80
4, 3239, Note_on_c, 0, 76, 0
4, 3240, Note_on_c, 0, 74, 90
4, 3299, Note_on_c, 0, 74, 0
4, 3360, Note_on_c, 0, 62, 80
4, 3419, Note_on_c, 0, 62, 0
4, 3420, Note_on_c, 0, 69, 90
4, 3479, Note_on_c, 0, 69, 0
4, 3480, Note_on_c, 0, 78, 80
4, 3539, Note_on_c, 0, 78, 0
4, 3540, Note_on_c, 0, 83, 80
4, 3599, Note_on_c, 0, 83, 0
4, 3600, Note_on_c, 0, 78, 65
4, 3659, Note_on_c, 0, 78, 0
4, 3780, Note_on_c, 0, 69, 65
4, 3839, Note_on_c, 0, 69, 0
4, 3960, Note_on_c, 0, 66, 65
4, 4019, Note_on_c, 0, 66, 0
4, 4140, Note_on_c, 0, 69, 65
4, 4169, Note_on_c, 0, 69, 0
4, 4170, Note_on_c, 0, 69, 90
4, 4199, Note_on_c, 0, 69, 0
4, 4200, Note_on_c, 0, 69, 80
4, 4259, Note_on_c, 0, 69, 0
4, 4320, Note_on_c, 0, 69, 90
4, 4439, Note_on_c, 0, 69, 0
4, 5640, Note_on_c, 0, 69, 80
4, 5699, Note_on_c, 0, 69, 0
4, 5700, Note_on_c, 0, 69, 80
4, 5759, Note_on_c, 0, 69, 0
4, 5760, Note_on_c, 0, 69, 90
4, 5819, Note_on_c, 0, 69, 0
4, 5820, Note_on_c, 0, 66, 80
4, 5879, Note_on_c, 0, 66, 0
4, 6840, Note_on_c, 0, 69, 90
4, 6899, Note_on_c, 0, 69, 0
4, 7200, Note_on_c, 0, 66, 90
4, 7259, Note_on_c, 0, 66, 0
4, 7740, Note_on_c, 0, 69, 90
4, 7799, Note_on_c, 0, 69, 0
4, 7800, Note_on_c, 0, 62, 80
4, 7859, Note_on_c, 0, 62, 0
4, 7860, Note_on_c, 0, 69, 80
4, 7919, Note_on_c, 0, 69, 0
4, 7920, Note_on_c, 0, 62, 65
4, 7979, Note_on_c, 0, 62, 0
4, 8400, Note_on_c, 0, 74, 80
4, 8459, Note_on_c, 0, 74, 0
4, 8460, Note_on_c, 0, 74, 90
4, 8519, Note_on_c, 0, 74, 0
4, 8520, Note_on_c, 0, 69, 80
4, 8549, Note_on_c, 0, 69, 0
4, 8550, Note_on_c, 0, 69, 80
4, 8579, Note_on_c, 0, 69, 0
4, 8580, Note_on_c, 0, 69, 80
4, 8609, Note_on_c, 0, 69, 0
4, 8610, Note_on_c, 0, 69, 80
4, 8639, Note_on_c, 0, 69, 0
4, 8640, Note_on_c, 0, 69, 90
4, 8759, Note_on_c, 0, 69, 0
4, 11820, Note_on_c, 0, 66, 80
4, 11879, Note_on_c, 0, 66, 0
4, 11880, Note_on_c, 0, 69, 90
4, 11939, Note_on_c, 0, 69, 0
4, 12000, Note_on_c, 0, 69, 80
4, 12059, Note_on_c, 0, 69, 0
4, 12060, Note_on_c, 0, 69, 90
4, 12119, Note_on_c, 0, 69, 0
4, 12120, Note_on_c, 0, 69, 80
4, 12150, Note_on_c, 0, 69, 0
4, 12150, Note_on_c, 0, 69, 80
4, 12180, Note_on_c, 0, 69, 0
4, 12180, Note_on_c, 0, 69, 80
4, 12210, Note_on_c, 0, 69, 0
4, 12210, Note_on_c, 0, 69, 80
4, 12240, Note_on_c, 0, 69, 0
4, 12240, Note_on_c, 0, 69, 90
4, 12299, Note_on_c, 0, 69, 0
4, 12300, Note_on_c, 0, 66, 80
4, 12359, Note_on_c, 0, 66, 0
4, 15420, Note_on_c, 0, 66, 80
4, 15479, Note_on_c, 0, 66, 0
4, 15480, Note_on_c, 0, 69, 90
4, 15539, Note_on_c, 0, 69, 0
4, 15600, Note_on_c, 0, 69, 80
4, 15659, Note_on_c, 0, 69, 0
4, 15660, Note_on_c, 0, 69, 90
4, 15719, Note_on_c, 0, 69, 0
4, 15720, Note_on_c, 0, 69, 80
4, 15749, Note_on_c, 0, 69, 0
4, 15750, Note_on_c, 0, 69, 80
4, 15779, Note_on_c, 0, 69, 0
4, 15780, Note_on_c, 0, 69, 80
4, 15809, Note_on_c, 0, 69, 0
4, 15810, Note_on_c, 0, 69, 80
4, 15839, Note_on_c, 0, 69, 0
4, 15840, Note_on_c, 0, 69, 90
4, 15899, Note_on_c, 0, 69, 0
4, 15900, Note_on_c, 0, 66, 80
4, 15959, Note_on_c, 0, 66, 0
4, 19560, Note_on_c, 0, 69, 80
4, 19619, Note_on_c, 0, 69, 0
4, 19620, Note_on_c, 0, 69, 90
4, 19679, Note_on_c, 0, 69, 0
4, 19800, Note_on_c, 0, 69, 90
4, 19859, Note_on_c, 0, 69, 0
4, 19980, Note_on_c, 0, 66, 90
4, 20039, Note_on_c, 0, 66, 0
4, 20040, Note_on_c, 0, 69, 80
4, 20099, Note_on_c, 0, 69, 0
4, 20100, Note_on_c, 0, 74, 80
4, 20159, Note_on_c, 0, 74, 0
4, 20160, Note_on_c, 0, 76, 90
4, 20219, Note_on_c, 0, 76, 0
4, 20220, Note_on_c, 0, 81, 80
4, 20279, Note_on_c, 0, 81, 0
4, 20280, Note_on_c, 0, 69, 80
4, 20339, Note_on_c, 0, 69, 0
4, 20340, Note_on_c, 0, 69, 90
4, 20399, Note_on_c, 0, 69, 0
4, 20460, Note_on_c, 0, 76, 80
4, 20519, Note_on_c, 0, 76, 0
4, 20520, Note_on_c, 0, 74, 90
4, 20579, Note_on_c, 0, 74, 0
4, 20640, Note_on_c, 0, 62, 80
4, 20699, Note_on_c, 0, 62, 0
4, 20700, Note_on_c, 0, 69, 90
4, 20759, Note_on_c, 0, 69, 0
4, 20760, Note_on_c, 0, 78, 80
4, 20819, Note_on_c, 0, 78, 0
4, 20820, Note_on_c, 0, 81, 80
4, 20879, Note_on_c, 0, 81, 0
4, 20880, Note_on_c, 0, 78, 70
4, 20939, Note_on_c, 0, 78, 0
4, 21060, Note_on_c, 0, 69, 70
4, 21119, Note_on_c, 0, 69, 0
4, 21240, Note_on_c, 0, 66, 70
4, 21299, Note_on_c, 0, 66, 0
4, 21420, Note_on_c, 0, 69, 70
4, 21449, Note_on_c, 0, 69, 0
4, 21450, Note_on_c, 0, 69, 90
4, 21479, Note_on_c, 0, 69, 0
4, 21480, Note_on_c, 0, 69, 90
4, 21539, Note_on_c, 0, 69, 0
4, 21600, Note_on_c, 0, 69, 90
4, 21719, Note_on_c, 0, 69, 0
4, 27240, Note_on_c, 0, 69, 80
4, 27299, Note_on_c, 0, 69, 0
4, 27300, Note_on_c, 0, 69, 80
4, 27359, Note_on_c, 0, 69, 0
4, 27360, Note_on_c, 0, 69, 90
4, 27419, Note_on_c, 0, 69, 0
4, 27420, Note_on_c, 0, 66, 80
4, 27479, Note_on_c, 0, 66, 0
4, 29640, Note_on_c, 0, 62, 80
4, 29699, Note_on_c, 0, 62, 0
4, 29700, Note_on_c, 0, 69, 90
4, 29819, Note_on_c, 0, 69, 0
4, 29820, Note_on_c, 0, 74, 80
4, 29879, Note_on_c, 0, 74, 0
4, 29880, Note_on_c, 0, 69, 90
4, 29999, Note_on_c, 0, 69, 0
4, 30000, Note_on_c, 0, 69, 80
4, 30059, Note_on_c, 0, 69, 0
4, 30060, Note_on_c, 0, 69, 90
4, 30119, Note_on_c, 0, 69, 0
4, 30120, Note_on_c, 0, 69, 80
4, 30149, Note_on_c, 0, 69, 0
4, 30150, Note_on_c, 0, 69, 80
4, 30179, Note_on_c, 0, 69, 0
4, 30180, Note_on_c, 0, 69, 80
4, 30209, Note_on_c, 0, 69, 0
4, 30210, Note_on_c, 0, 69, 80
4, 30239, Note_on_c, 0, 69, 0
4, 30240, Note_on_c, 0, 69, 90
4, 30299, Note_on_c, 0, 69, 0
4, 30300, Note_on_c, 0, 66, 80
4, 30359, Note_on_c, 0, 66, 0
4, 32700, Note_on_c, 0, 66, 80
4, 32759, Note_on_c, 0, 66, 0
4, 32760, Note_on_c, 0, 69, 90
4, 32819, Note_on_c, 0, 69, 0
4, 32880, Note_on_c, 0, 69, 80
4, 32939, Note_on_c, 0, 69, 0
4, 32940, Note_on_c, 0, 69, 90
4, 32999, Note_on_c, 0, 69, 0
4, 33000, Note_on_c, 0, 69, 80
4, 33029, Note_on_c, 0, 69, 0
4, 33030, Note_on_c, 0, 69, 80
4, 33059, Note_on_c, 0, 69, 0
4, 33060, Note_on_c, 0, 69, 80
4, 33089, Note_on_c, 0, 69, 0
4, 33090, Note_on_c, 0, 69, 80
4, 33119, Note_on_c, 0, 69, 0
4, 33120, Note_on_c, 0, 69, 90
4, 33179, Note_on_c, 0, 69, 0
4, 33180, Note_on_c, 0, 66, 80
4, 33239, Note_on_c, 0, 66, 0
4, 37560, Note_on_c, 0, 69, 80
4, 37619, Note_on_c, 0, 69, 0
4, 37620, Note_on_c, 0, 69, 90
4, 37679, Note_on_c, 0, 69, 0
4, 37740, Note_on_c, 0, 76, 80
4, 37799, Note_on_c, 0, 76, 0
4, 37800, Note_on_c, 0, 74, 90
4, 37859, Note_on_c, 0, 74, 0
4, 37920, Note_on_c, 0, 62, 80
4, 37979, Note_on_c, 0, 62, 0
4, 37980, Note_on_c, 0, 69, 90
4, 38039, Note_on_c, 0, 69, 0
4, 38040, Note_on_c, 0, 78, 80
4, 38099, Note_on_c, 0, 78, 0
4, 38100, Note_on_c, 0, 81, 80
4, 38159, Note_on_c, 0, 81, 0
4, 38160, Note_on_c, 0, 78, 70
4, 38219, Note_on_c, 0, 78, 0
4, 38700, Note_on_c, 0, 69, 90
4, 38729, Note_on_c, 0, 69, 0
4, 38730, Note_on_c, 0, 69, 90
4, 38759, Note_on_c, 0, 69, 0
4, 38760, Note_on_c, 0, 69, 80
4, 38819, Note_on_c, 0, 69, 0
4, 38880, Note_on_c, 0, 69, 90
4, 38999, Note_on_c, 0, 69, 0
4, 40200, Note_on_c, 0, 69, 80
4, 40259, Note_on_c, 0, 69, 0
4, 40260, Note_on_c, 0, 69, 80
4, 40319, Note_on_c, 0, 69, 0
4, 40320, Note_on_c, 0, 69, 90
4, 40379, Note_on_c, 0, 69, 0
4, 40380, Note_on_c, 0, 66, 80
4, 40439, Note_on_c, 0, 66, 0
4, 41400, Note_on_c, 0, 69, 90
4, 41459, Note_on_c, 0, 69, 0
4, 41760, Note_on_c, 0, 66, 90
4, 41819, Note_on_c, 0, 66, 0
4, 42300, Note_on_c, 0, 69, 90
4, 42359, Note_on_c, 0, 69, 0
4, 42360, Note_on_c, 0, 62, 80
4, 42419, Note_on_c, 0, 62, 0
4, 42420, Note_on_c, 0, 69, 80
4, 42479, Note_on_c, 0, 69, 0
4, 42480, Note_on_c, 0, 62, 70
4, 42539, Note_on_c, 0, 62, 0
4, 42960, Note_on_c, 0, 74, 80
4, 43019, Note_on_c, 0, 74, 0
4, 43020, Note_on_c, 0, 74, 90
4, 43079, Note_on_c, 0, 74, 0
4, 43080, Note_on_c, 0, 69, 80
4, 43109, Note_on_c, 0, 69, 0
4, 43110, Note_on_c, 0, 69, 80
4, 43139, Note_on_c, 0, 69, 0
4, 43140, Note_on_c, 0, 69, 80
4, 43169, Note_on_c, 0, 69, 0
4, 43170, Note_on_c, 0, 69, 80
4, 43199, Note_on_c, 0, 69, 0
4, 43200, Note_on_c, 0, 69, 90
4, 43319, Note_on_c, 0, 69, 0
4, 163202, Control_c, 0, 91, 109
4, 164220, Note_on_c, 0, 69, 100
4, 164268, Note_on_c, 0, 69, 0
4, 164280, Note_on_c, 0, 69, 100
4, 164328, Note_on_c, 0, 69, 0
4, 164340, Note_on_c, 0, 69, 100
4, 164388, Note_on_c, 0, 69, 0
4, 164400, Note_on_c, 0, 69, 100
4, 164448, Note_on_c, 0, 69, 0
4, 164460, Note_on_c, 0, 69, 100
4, 164508, Note_on_c, 0, 69, 0
4, 165180, Note_on_c, 0, 69, 100
4, 165228, Note_on_c, 0, 69, 0
4, 165240, Note_on_c, 0, 69, 100
4, 165288, Note_on_c, 0, 69, 0
4, 165300, Note_on_c, 0, 69, 100
4, 165348, Note_on_c, 0, 69, 0
4, 165360, Note_on_c, 0, 69, 100
4, 165408, Note_on_c, 0, 69, 0
4, 165420, Note_on_c, 0, 69, 100
4, 165468, Note_on_c, 0, 69, 0
4, 165900, Note_on_c, 0, 74, 100
4, 165923, Note_on_c, 0, 74, 0
4, 165930, Note_on_c, 0, 69, 100
4, 165953, Note_on_c, 0, 69, 0
4, 165960, Note_on_c, 0, 66, 100
4, 166008, Note_on_c, 0, 66, 0
4, 166380, Note_on_c, 0, 69, 100
4, 166403, Note_on_c, 0, 69, 0
4, 166410, Note_on_c, 0, 69, 100
4, 166433, Note_on_c, 0, 69, 0
4, 166440, Note_on_c, 0, 69, 100
4, 166488, Note_on_c, 0, 69, 0
4, 167340, Note_on_c, 0, 69, 80
4, 167364, Note_on_c, 0, 69, 0
4, 167370, Note_on_c, 0, 69, 80
4, 167394, Note_on_c, 0, 69, 0
4, 167400, Note_on_c, 0, 69, 80
4, 167448, Note_on_c, 0, 69, 0
4, 167460, Note_on_c, 0, 69, 80
4, 167508, Note_on_c, 0, 69, 0
4, 167520, Note_on_c, 0, 69, 80
4, 167568, Note_on_c, 0, 69, 0
4, 167580, Note_on_c, 0, 62, 80
4, 167604, Note_on_c, 0, 62, 0
4, 167610, Note_on_c, 0, 62, 80
4, 167634, Note_on_c, 0, 62, 0
4, 167640, Note_on_c, 0, 62, 80
4, 167688, Note_on_c, 0, 62, 0
4, 167700, Note_on_c, 0, 69, 80
4, 167748, Note_on_c, 0, 69, 0
4, 167760, Note_on_c, 0, 62, 80
4, 167808, Note_on_c, 0, 62, 0
4, 168000, Note_on_c, 0, 66, 80
4, 168048, Note_on_c, 0, 66, 0
4, 169020, Note_on_c, 0, 74, 96
4, 169068, Note_on_c, 0, 74, 0
4, 169080, Note_on_c, 0, 79, 97
4, 169128, Note_on_c, 0, 79, 0
4, 169140, Note_on_c, 0, 76, 98
4, 169188, Note_on_c, 0, 76, 0
4, 169200, Note_on_c, 0, 78, 100
4, 169295, Note_on_c, 0, 78, 0
4, 172860, Note_on_c, 0, 69, 110
4, 172908, Note_on_c, 0, 69, 0
4, 172920, Note_on_c, 0, 69, 110
4, 172968, Note_on_c, 0, 69, 0
4, 172980, Note_on_c, 0, 69, 110
4, 173028, Note_on_c, 0, 69, 0
4, 173040, Note_on_c, 0, 69, 110
4, 173088, Note_on_c, 0, 69, 0
4, 173100, Note_on_c, 0, 69, 110
4, 173148, Note_on_c, 0, 69, 0
4, 173820, Note_on_c, 0, 69, 100
4, 173868, Note_on_c, 0, 69, 0
4, 173880, Note_on_c, 0, 69, 100
4, 173928, Note_on_c, 0, 69, 0
4, 173940, Note_on_c, 0, 69, 100
4, 173988, Note_on_c, 0, 69, 0
4, 174000, Note_on_c, 0, 69, 100
4, 174048, Note_on_c, 0, 69, 0
4, 174060, Note_on_c, 0, 69, 100
4, 174108, Note_on_c, 0, 69, 0
4, 174540, Note_on_c, 0, 74, 100
4, 174563, Note_on_c, 0, 74, 0
4, 174570, Note_on_c, 0, 69, 100
4, 174593, Note_on_c, 0, 69, 0
4, 174600, Note_on_c, 0, 66, 100
4, 174648, Note_on_c, 0, 66, 0
4, 175020, Note_on_c, 0, 69, 100
4, 175043, Note_on_c, 0, 69, 0
4, 175050, Note_on_c, 0, 69, 100
4, 175073, Note_on_c, 0, 69, 0
4, 175080, Note_on_c, 0, 69, 100
4, 175128, Note_on_c, 0, 69, 0
4, 175980, Note_on_c, 0, 69, 80
4, 176004, Note_on_c, 0, 69, 0
4, 176010, Note_on_c, 0, 69, 80
4, 176034, Note_on_c, 0, 69, 0
4, 176040, Note_on_c, 0, 69, 80
4, 176088, Note_on_c, 0, 69, 0
4, 176100, Note_on_c, 0, 69, 80
4, 176148, Note_on_c, 0, 69, 0
4, 176160, Note_on_c, 0, 69, 80
4, 176208, Note_on_c, 0, 69, 0
4, 176220, Note_on_c, 0, 62, 80
4, 176244, Note_on_c, 0, 62, 0
4, 176250, Note_on_c, 0, 62, 80
4, 176274, Note_on_c, 0, 62, 0
4, 176280, Note_on_c, 0, 62, 80
4, 176328, Note_on_c, 0, 62, 0
4, 176340, Note_on_c, 0, 69, 80
4, 176388, Note_on_c, 0, 69, 0
4, 176400, Note_on_c, 0, 62, 80
4, 176448, Note_on_c, 0, 62, 0
4, 176640, Note_on_c, 0, 66, 80
4, 176688, Note_on_c, 0, 66, 0
4, 177660, Note_on_c, 0, 74, 80
4, 177708, Note_on_c, 0, 74, 0
4, 177720, Note_on_c, 0, 79, 80
4, 177768, Note_on_c, 0, 79, 0
4, 177780, Note_on_c, 0, 76, 80
4, 177828, Note_on_c, 0, 76, 0
4, 177840, Note_on_c, 0, 78, 80
4, 177935, Note_on_c, 0, 78, 0
4, 181500, Note_on_c, 0, 69, 110
4, 181547, Note_on_c, 0, 69, 0
4, 181560, Note_on_c, 0, 69, 110
4, 181607, Note_on_c, 0, 69, 0
4, 181620, Note_on_c, 0, 69, 110
4, 181667, Note_on_c, 0, 69, 0
4, 181680, Note_on_c, 0, 69, 110
4, 181727, Note_on_c, 0, 69, 0
4, 181740, Note_on_c, 0, 69, 110
4, 181787, Note_on_c, 0, 69, 0
4, 182460, Note_on_c, 0, 69, 100
4, 182507, Note_on_c, 0, 69, 0
4, 182520, Note_on_c, 0, 69, 100
4, 182567, Note_on_c, 0, 69, 0
4, 182580, Note_on_c, 0, 69, 100
4, 182627, Note_on_c, 0, 69, 0
4, 182640, Note_on_c, 0, 69, 100
4, 182687, Note_on_c, 0, 69, 0
4, 182700, Note_on_c, 0, 69, 100
4, 182747, Note_on_c, 0, 69, 0
4, 183660, Note_on_c, 0, 74, 100
4, 183683, Note_on_c, 0, 74, 0
4, 183690, Note_on_c, 0, 69, 100
4, 183713, Note_on_c, 0, 69, 0
4, 183720, Note_on_c, 0, 66, 100
4, 183767, Note_on_c, 0, 66, 0
4, 184140, Note_on_c, 0, 69, 100
4, 184163, Note_on_c, 0, 69, 0
4, 184170, Note_on_c, 0, 69, 100
4, 184193, Note_on_c, 0, 69, 0
4, 184200, Note_on_c, 0, 69, 100
4, 184248, Note_on_c, 0, 69, 0
4, 188460, Note_on_c, 0, 66, 80
4, 188483, Note_on_c, 0, 66, 0
4, 188490, Note_on_c, 0, 66, 80
4, 188513, Note_on_c, 0, 66, 0
4, 188520, Note_on_c, 0, 66, 80
4, 188568, Note_on_c, 0, 66, 0
4, 190082, Control_c, 0, 91, 109
4, 191100, Note_on_c, 0, 69, 100
4, 191148, Note_on_c, 0, 69, 0
4, 191160, Note_on_c, 0, 69, 100
4, 191208, Note_on_c, 0, 69, 0
4, 191220, Note_on_c, 0, 69, 100
4, 191268, Note_on_c, 0, 69, 0
4, 191280, Note_on_c, 0, 69, 100
4, 191328, Note_on_c, 0, 69, 0
4, 191340, Note_on_c, 0, 69, 100
4, 191388, Note_on_c, 0, 69, 0
4, 192060, Note_on_c, 0, 69, 110
4, 192108, Note_on_c, 0, 69, 0
4, 192120, Note_on_c, 0, 69, 110
4, 192168, Note_on_c, 0, 69, 0
4, 192180, Note_on_c, 0, 69, 110
4, 192228, Note_on_c, 0, 69, 0
4, 192240, Note_on_c, 0, 69, 110
4, 192288, Note_on_c, 0, 69, 0
4, 192300, Note_on_c, 0, 69, 110
4, 192348, Note_on_c, 0, 69, 0
4, 192780, Note_on_c, 0, 74, 110
4, 192803, Note_on_c, 0, 74, 0
4, 192810, Note_on_c, 0, 69, 110
4, 192833, Note_on_c, 0, 69, 0
4, 192840, Note_on_c, 0, 66, 110
4, 192888, Note_on_c, 0, 66, 0
4, 193260, Note_on_c, 0, 69, 110
4, 193283, Note_on_c, 0, 69, 0
4, 193290, Note_on_c, 0, 69, 110
4, 193313, Note_on_c, 0, 69, 0
4, 193320, Note_on_c, 0, 69, 110
4, 193368, Note_on_c, 0, 69, 0
4, 194220, Note_on_c, 0, 69, 100
4, 194244, Note_on_c, 0, 69, 0
4, 194250, Note_on_c, 0, 69, 100
4, 194274, Note_on_c, 0, 69, 0
4, 194280, Note_on_c, 0, 69, 100
4, 194328, Note_on_c, 0, 69, 0
4, 194340, Note_on_c, 0, 69, 100
4, 194388, Note_on_c, 0, 69, 0
4, 194400, Note_on_c, 0, 69, 100
4, 194448, Note_on_c, 0, 69, 0
4, 194460, Note_on_c, 0, 62, 100
4, 194484, Note_on_c, 0, 62, 0
4, 194490, Note_on_c, 0, 62, 100
4, 194514, Note_on_c, 0, 62, 0
4, 194520, Note_on_c, 0, 62, 100
4, 194568, Note_on_c, 0, 62, 0
4, 194580, Note_on_c, 0, 69, 100
4, 194628, Note_on_c, 0, 69, 0
4, 194640, Note_on_c, 0, 62, 100
4, 194688, Note_on_c, 0, 62, 0
4, 194880, Note_on_c, 0, 66, 100
4, 194928, Note_on_c, 0, 66, 0
4, 195900, Note_on_c, 0, 74, 100
4, 195948, Note_on_c, 0, 74, 0
4, 195960, Note_on_c, 0, 79, 100
4, 196008, Note_on_c, 0, 79, 0
4, 196020, Note_on_c, 0, 76, 100
4, 196068, Note_on_c, 0, 76, 0
4, 196080, Note_on_c, 0, 78, 100
4, 196224, Note_on_c, 0, 78, 0
4, 196224, End_track
5, 0, Start_track
5, 0, MIDI_port, 9
5, 0, Title_t, "Timpani"
5, 0, Program_c, 2, 47
5, 0, Control_c, 2, 7, 127
5, 0, Control_c, 2, 10, 127
5, 0, Control_c, 2, 91, 121
5, 840, Note_on_c, 2, 50, 80
5, 900, Note_on_c, 2, 50, 0
5, 900, Note_on_c, 2, 50, 90
5, 960, Note_on_c, 2, 50, 0
5, 1020, Note_on_c, 2, 50, 80
5, 1080, Note_on_c, 2, 50, 0
5, 1080, Note_on_c, 2, 45, 90
5, 1140, Note_on_c, 2, 45, 0
5, 1200, Note_on_c, 2, 45, 80
5, 1260, Note_on_c, 2, 45, 0
5, 1260, Note_on_c, 2, 50, 90
5, 1320, Note_on_c, 2, 50, 0
5, 1320, Note_on_c, 2, 45, 80
5, 1349, Note_on_c, 2, 45, 0
5, 1350, Note_on_c, 2, 45, 80
5, 1379, Note_on_c, 2, 45, 0
5, 1380, Note_on_c, 2, 45, 80
5, 1409, Note_on_c, 2, 45, 0
5, 1410, Note_on_c, 2, 45, 80
5, 1439, Note_on_c, 2, 45, 0
5, 1440, Note_on_c, 2, 50, 90
5, 1499, Note_on_c, 2, 50, 0
5, 1500, Note_on_c, 2, 50, 80
5, 1559, Note_on_c, 2, 50, 0
5, 2280, Note_on_c, 2, 45, 80
5, 2339, Note_on_c, 2, 45, 0
5, 2340, Note_on_c, 2, 50, 90
5, 2399, Note_on_c, 2, 50, 0
5, 2520, Note_on_c, 2, 45, 90
5, 2579, Note_on_c, 2, 45, 0
5, 2700, Note_on_c, 2, 50, 90
5, 2759, Note_on_c, 2, 50, 0
5, 2760, Note_on_c, 2, 45, 80
5, 2819, Note_on_c, 2, 45, 0
5, 2820, Note_on_c, 2, 50, 80
5, 2879, Note_on_c, 2, 50, 0
5, 2880, Note_on_c, 2, 45, 90
5, 2939, Note_on_c, 2, 45, 0
5, 2940, Note_on_c, 2, 45, 80
5, 2969, Note_on_c, 2, 45, 0
5, 2970, Note_on_c, 2, 45, 80
5, 2999, Note_on_c, 2, 45, 0
5, 3000, Note_on_c, 2, 45, 80
5, 3029, Note_on_c, 2, 45, 0
5, 3030, Note_on_c, 2, 45, 80
5, 3059, Note_on_c, 2, 45, 0
5, 3060, Note_on_c, 2, 50, 90
5, 3119, Note_on_c, 2, 50, 0
5, 3180, Note_on_c, 2, 45, 80
5, 3239, Note_on_c, 2, 45, 0
5, 3240, Note_on_c, 2, 50, 90
5, 3299, Note_on_c, 2, 50, 0
5, 3360, Note_on_c, 2, 50, 80
5, 3419, Note_on_c, 2, 50, 0
5, 3420, Note_on_c, 2, 45, 90
5, 3479, Note_on_c, 2, 45, 0
5, 3480, Note_on_c, 2, 50, 80
5, 3539, Note_on_c, 2, 50, 0
5, 3600, Note_on_c, 2, 45, 65
5, 3659, Note_on_c, 2, 45, 0
5, 3780, Note_on_c, 2, 45, 65
5, 3839, Note_on_c, 2, 45, 0
5, 3960, Note_on_c, 2, 45, 65
5, 4019, Note_on_c, 2, 45, 0
5, 4140, Note_on_c, 2, 45, 65
5, 4169, Note_on_c, 2, 45, 0
5, 4170, Note_on_c, 2, 45, 90
5, 4199, Note_on_c, 2, 45, 0
5, 4200, Note_on_c, 2, 45, 80
5, 4259, Note_on_c, 2, 45, 0
5, 4320, Note_on_c, 2, 45, 90
5, 4439, Note_on_c, 2, 45, 0
5, 5640, Note_on_c, 2, 45, 80
5, 5699, Note_on_c, 2, 45, 0
5, 5700, Note_on_c, 2, 45, 80
5, 5759, Note_on_c, 2, 45, 0
5, 5760, Note_on_c, 2, 50, 90
5, 5819, Note_on_c, 2, 50, 0
5, 5820, Note_on_c, 2, 50, 80
5, 5879, Note_on_c, 2, 50, 0
5, 6840, Note_on_c, 2, 45, 90
5, 6899, Note_on_c, 2, 45, 0
5, 7200, Note_on_c, 2, 50, 90
5, 7259, Note_on_c, 2, 50, 0
5, 7740, Note_on_c, 2, 50, 90
5, 7799, Note_on_c, 2, 50, 0
5, 7800, Note_on_c, 2, 50, 80
5, 7859, Note_on_c, 2, 50, 0
5, 7860, Note_on_c, 2, 45, 80
5, 7919, Note_on_c, 2, 45, 0
5, 7920, Note_on_c, 2, 50, 65
5, 7979, Note_on_c, 2, 50, 0
5, 8400, Note_on_c, 2, 50, 80
5, 8459, Note_on_c, 2, 50, 0
5, 8460, Note_on_c, 2, 45, 90
5, 8519, Note_on_c, 2, 45, 0
5, 8520, Note_on_c, 2, 45, 80
5, 8549, Note_on_c, 2, 45, 0
5, 8550, Note_on_c, 2, 45, 80
5, 8579, Note_on_c, 2, 45, 0
5, 8580, Note_on_c, 2, 45, 80
5, 8609, Note_on_c, 2, 45, 0
5, 8610, Note_on_c, 2, 45, 80
5, 8639, Note_on_c, 2, 45, 0
5, 8640, Note_on_c, 2, 45, 90
5, 8759, Note_on_c, 2, 45, 0
5, 11820, Note_on_c, 2, 50, 80
5, 11879, Note_on_c, 2, 50, 0
5, 11880, Note_on_c, 2, 45, 90
5, 11939, Note_on_c, 2, 45, 0
5, 12000, Note_on_c, 2, 45, 80
5, 12059, Note_on_c, 2, 45, 0
5, 12060, Note_on_c, 2, 50, 90
5, 12119, Note_on_c, 2, 50, 0
5, 12120, Note_on_c, 2, 45, 80
5, 12150, Note_on_c, 2, 45, 0
5, 12150, Note_on_c, 2, 45, 80
5, 12180, Note_on_c, 2, 45, 0
5, 12180, Note_on_c, 2, 45, 80
5, 12210, Note_on_c, 2, 45, 0
5, 12210, Note_on_c, 2, 45, 80
5, 12240, Note_on_c, 2, 45, 0
5, 12240, Note_on_c, 2, 50, 90
5, 12299, Note_on_c, 2, 50, 0
5, 12300, Note_on_c, 2, 50, 80
5, 12359, Note_on_c, 2, 50, 0
5, 15420, Note_on_c, 2, 50, 80
5, 15479, Note_on_c, 2, 50, 0
5, 15480, Note_on_c, 2, 45, 90
5, 15539, Note_on_c, 2, 45, 0
5, 15600, Note_on_c, 2, 45, 80
5, 15659, Note_on_c, 2, 45, 0
5, 15660, Note_on_c, 2, 50, 90
5, 15719, Note_on_c, 2, 50, 0
5, 15720, Note_on_c, 2, 45, 80
5, 15749, Note_on_c, 2, 45, 0
5, 15750, Note_on_c, 2, 45, 80
5, 15779, Note_on_c, 2, 45, 0
5, 15780, Note_on_c, 2, 45, 80
5, 15809, Note_on_c, 2, 45, 0
5, 15810, Note_on_c, 2, 45, 80
5, 15839, Note_on_c, 2, 45, 0
5, 15840, Note_on_c, 2, 50, 90
5, 15899, Note_on_c, 2, 50, 0
5, 15900, Note_on_c, 2, 50, 80
5, 15959, Note_on_c, 2, 50, 0
5, 19560, Note_on_c, 2, 45, 80
5, 19619, Note_on_c, 2, 45, 0
5, 19620, Note_on_c, 2, 50, 90
5, 19679, Note_on_c, 2, 50, 0
5, 19800, Note_on_c, 2, 45, 90
5, 19859, Note_on_c, 2, 45, 0
5, 19980, Note_on_c, 2, 50, 90
5, 20039, Note_on_c, 2, 50, 0
5, 20040, Note_on_c, 2, 45, 80
5, 20099, Note_on_c, 2, 45, 0
5, 20100, Note_on_c, 2, 50, 80
5, 20159, Note_on_c, 2, 50, 0
5, 20160, Note_on_c, 2, 45, 90
5, 20219, Note_on_c, 2, 45, 0
5, 20220, Note_on_c, 2, 45, 80
5, 20249, Note_on_c, 2, 45, 0
5, 20250, Note_on_c, 2, 45, 80
5, 20279, Note_on_c, 2, 45, 0
5, 20280, Note_on_c, 2, 45, 80
5, 20309, Note_on_c, 2, 45, 0
5, 20310, Note_on_c, 2, 45, 80
5, 20339, Note_on_c, 2, 45, 0
5, 20340, Note_on_c, 2, 50, 90
5, 20399, Note_on_c, 2, 50, 0
5, 20460, Note_on_c, 2, 45, 80
5, 20519, Note_on_c, 2, 45, 0
5, 20520, Note_on_c, 2, 50, 90
5, 20579, Note_on_c, 2, 50, 0
5, 20640, Note_on_c, 2, 50, 80
5, 20699, Note_on_c, 2, 50, 0
5, 20700, Note_on_c, 2, 45, 90
5, 20759, Note_on_c, 2, 45, 0
5, 20760, Note_on_c, 2, 50, 80
5, 20819, Note_on_c, 2, 50, 0
5, 20880, Note_on_c, 2, 45, 70
5, 20939, Note_on_c, 2, 45, 0
5, 21060, Note_on_c, 2, 45, 70
5, 21119, Note_on_c, 2, 45, 0
5, 21240, Note_on_c, 2, 45, 70
5, 21299, Note_on_c, 2, 45, 0
5, 21420, Note_on_c, 2, 45, 70
5, 21449, Note_on_c, 2, 45, 0
5, 21450, Note_on_c, 2, 45, 90
5, 21479, Note_on_c, 2, 45, 0
5, 21480, Note_on_c, 2, 45, 90
5, 21539, Note_on_c, 2, 45, 0
5, 21600, Note_on_c, 2, 45, 90
5, 21719, Note_on_c, 2, 45, 0
5, 27240, Note_on_c, 2, 50, 80
5, 27299, Note_on_c, 2, 50, 0
5, 27300, Note_on_c, 2, 45, 80
5, 27359, Note_on_c, 2, 45, 0
5, 27360, Note_on_c, 2, 50, 90
5, 27419, Note_on_c, 2, 50, 0
5, 27420, Note_on_c, 2, 50, 80
5, 27479, Note_on_c, 2, 50, 0
5, 29640, Note_on_c, 2, 50, 80
5, 29699, Note_on_c, 2, 50, 0
5, 29700, Note_on_c, 2, 50, 90
5, 29759, Note_on_c, 2, 50, 0
5, 29820, Note_on_c, 2, 50, 80
5, 29879, Note_on_c, 2, 50, 0
5, 29880, Note_on_c, 2, 45, 90
5, 29939, Note_on_c, 2, 45, 0
5, 30000, Note_on_c, 2, 45, 80
5, 30059, Note_on_c, 2, 45, 0
5, 30060, Note_on_c, 2, 50, 90
5, 30119, Note_on_c, 2, 50, 0
5, 30120, Note_on_c, 2, 45, 80
5, 30149, Note_on_c, 2, 45, 0
5, 30150, Note_on_c, 2, 45, 80
5, 30179, Note_on_c, 2, 45, 0
5, 30180, Note_on_c, 2, 45, 80
5, 30209, Note_on_c, 2, 45, 0
5, 30210, Note_on_c, 2, 45, 80
5, 30239, Note_on_c, 2, 45, 0
5, 30240, Note_on_c, 2, 50, 90
5, 30299, Note_on_c, 2, 50, 0
5, 30300, Note_on_c, 2, 50, 80
5, 30359, Note_on_c, 2, 50, 0
5, 32700, Note_on_c, 2, 50, 80
5, 32759, Note_on_c, 2, 50, 0
5, 32760, Note_on_c, 2, 45, 90
5, 32819, Note_on_c, 2, 45, 0
5, 32880, Note_on_c, 2, 45, 80
5, 32939, Note_on_c, 2, 45, 0
5, 32940, Note_on_c, 2, 50, 90
5, 32999, Note_on_c, 2, 50, 0
5, 33000, Note_on_c, 2, 45, 80
5, 33029, Note_on_c, 2, 45, 0
5, 33030, Note_on_c, 2, 45, 80
5, 33059, Note_on_c, 2, 45, 0
5, 33060, Note_on_c, 2, 45, 80
5, 33089, Note_on_c, 2, 45, 0
5, 33090, Note_on_c, 2, 45, 80
5, 33119, Note_on_c, 2, 45, 0
5, 33120, Note_on_c, 2, 50, 90
5, 33179, Note_on_c, 2, 50, 0
5, 33180, Note_on_c, 2, 50, 80
5, 33239, Note_on_c, 2, 50, 0
5, 37560, Note_on_c, 2, 45, 80
5, 37619, Note_on_c, 2, 45, 0
5, 37620, Note_on_c, 2, 50, 90
5, 37679, Note_on_c, 2, 50, 0
5, 37740, Note_on_c, 2, 45, 80
5, 37799, Note_on_c, 2, 45, 0
5, 37800, Note_on_c, 2, 50, 90
5, 37859, Note_on_c, 2, 50, 0
5, 37920, Note_on_c, 2, 50, 80
5, 37979, Note_on_c, 2, 50, 0
5, 37980, Note_on_c, 2, 45, 90
5, 38039, Note_on_c, 2, 45, 0
5, 38040, Note_on_c, 2, 50, 80
5, 38099, Note_on_c, 2, 50, 0
5, 38160, Note_on_c, 2, 45, 70
5, 38219, Note_on_c, 2, 45, 0
5, 38700, Note_on_c, 2, 45, 90
5, 38729, Note_on_c, 2, 45, 0
5, 38730, Note_on_c, 2, 45, 90
5, 38759, Note_on_c, 2, 45, 0
5, 38760, Note_on_c, 2, 45, 80
5, 38819, Note_on_c, 2, 45, 0
5, 38880, Note_on_c, 2, 45, 90
5, 38999, Note_on_c, 2, 45, 0
5, 40200, Note_on_c, 2, 45, 80
5, 40259, Note_on_c, 2, 45, 0
5, 40260, Note_on_c, 2, 45, 80
5, 40319, Note_on_c, 2, 45, 0
5, 40320, Note_on_c, 2, 50, 90
5, 40379, Note_on_c, 2, 50, 0
5, 40380, Note_on_c, 2, 50, 80
5, 40439, Note_on_c, 2, 50, 0
5, 41400, Note_on_c, 2, 45, 90
5, 41459, Note_on_c, 2, 45, 0
5, 41760, Note_on_c, 2, 50, 90
5, 41819, Note_on_c, 2, 50, 0
5, 42300, Note_on_c, 2, 50, 90
5, 42359, Note_on_c, 2, 50, 0
5, 42360, Note_on_c, 2, 50, 80
5, 42419, Note_on_c, 2, 50, 0
5, 42420, Note_on_c, 2, 45, 80
5, 42479, Note_on_c, 2, 45, 0
5, 42480, Note_on_c, 2, 50, 70
5, 42539, Note_on_c, 2, 50, 0
5, 42960, Note_on_c, 2, 50, 80
5, 43019, Note_on_c, 2, 50, 0
5, 43020, Note_on_c, 2, 45, 90
5, 43079, Note_on_c, 2, 45, 0
5, 43080, Note_on_c, 2, 45, 80
5, 43109, Note_on_c, 2, 45, 0
5, 43110, Note_on_c, 2, 45, 80
5, 43139, Note_on_c, 2, 45, 0
5, 43140, Note_on_c, 2, 45, 80
5, 43169, Note_on_c, 2, 45, 0
5, 43170, Note_on_c, 2, 45, 80
5, 43199, Note_on_c, 2, 45, 0
5, 43200, Note_on_c, 2, 50, 90
5, 43319, Note_on_c, 2, 50, 0
5, 163200, Control_c, 2, 91, 118
5, 164220, Note_on_c, 2, 50, 100
5, 164268, Note_on_c, 2, 50, 0
5, 164280, Note_on_c, 2, 45, 100
5, 164328, Note_on_c, 2, 45, 0
5, 164340, Note_on_c, 2, 50, 100
5, 164388, Note_on_c, 2, 50, 0
5, 164400, Note_on_c, 2, 45, 100
5, 164448, Note_on_c, 2, 45, 0
5, 164460, Note_on_c, 2, 45, 100
5, 164508, Note_on_c, 2, 45, 0
5, 165180, Note_on_c, 2, 50, 100
5, 165228, Note_on_c, 2, 50, 0
5, 165240, Note_on_c, 2, 45, 100
5, 165288, Note_on_c, 2, 45, 0
5, 165300, Note_on_c, 2, 50, 100
5, 165348, Note_on_c, 2, 50, 0
5, 165360, Note_on_c, 2, 45, 100
5, 165408, Note_on_c, 2, 45, 0
5, 165420, Note_on_c, 2, 45, 100
5, 165468, Note_on_c, 2, 45, 0
5, 165900, Note_on_c, 2, 50, 100
5, 165923, Note_on_c, 2, 50, 0
5, 165930, Note_on_c, 2, 50, 100
5, 165953, Note_on_c, 2, 50, 0
5, 165960, Note_on_c, 2, 50, 100
5, 166008, Note_on_c, 2, 50, 0
5, 166380, Note_on_c, 2, 45, 100
5, 166403, Note_on_c, 2, 45, 0
5, 166410, Note_on_c, 2, 45, 100
5, 166433, Note_on_c, 2, 45, 0
5, 166440, Note_on_c, 2, 45, 100
5, 166488, Note_on_c, 2, 45, 0
5, 167340, Note_on_c, 2, 45, 80
5, 167364, Note_on_c, 2, 45, 0
5, 167370, Note_on_c, 2, 45, 80
5, 167394, Note_on_c, 2, 45, 0
5, 167400, Note_on_c, 2, 45, 80
5, 167448, Note_on_c, 2, 45, 0
5, 167460, Note_on_c, 2, 45, 80
5, 167508, Note_on_c, 2, 45, 0
5, 167520, Note_on_c, 2, 50, 80
5, 167568, Note_on_c, 2, 50, 0
5, 167580, Note_on_c, 2, 50, 80
5, 167604, Note_on_c, 2, 50, 0
5, 167610, Note_on_c, 2, 50, 80
5, 167634, Note_on_c, 2, 50, 0
5, 167640, Note_on_c, 2, 50, 80
5, 167688, Note_on_c, 2, 50, 0
5, 167700, Note_on_c, 2, 45, 80
5, 167748, Note_on_c, 2, 45, 0
5, 167760, Note_on_c, 2, 50, 80
5, 167808, Note_on_c, 2, 50, 0
5, 168000, Note_on_c, 2, 50, 80
5, 168048, Note_on_c, 2, 50, 0
5, 169020, Note_on_c, 2, 50, 96
5, 169044, Note_on_c, 2, 50, 0
5, 169050, Note_on_c, 2, 50, 96
5, 169074, Note_on_c, 2, 50, 0
5, 169080, Note_on_c, 2, 50, 97
5, 169128, Note_on_c, 2, 50, 0
5, 169140, Note_on_c, 2, 45, 98
5, 169188, Note_on_c, 2, 45, 0
5, 169200, Note_on_c, 2, 50, 100
5, 169295, Note_on_c, 2, 50, 0
5, 172860, Note_on_c, 2, 50, 110
5, 172908, Note_on_c, 2, 50, 0
5, 172920, Note_on_c, 2, 45, 110
5, 172968, Note_on_c, 2, 45, 0
5, 172980, Note_on_c, 2, 50, 110
5, 173028, Note_on_c, 2, 50, 0
5, 173040, Note_on_c, 2, 45, 110
5, 173088, Note_on_c, 2, 45, 0
5, 173100, Note_on_c, 2, 45, 110
5, 173148, Note_on_c, 2, 45, 0
5, 173820, Note_on_c, 2, 50, 100
5, 173868, Note_on_c, 2, 50, 0
5, 173880, Note_on_c, 2, 45, 100
5, 173928, Note_on_c, 2, 45, 0
5, 173940, Note_on_c, 2, 50, 100
5, 173988, Note_on_c, 2, 50, 0
5, 174000, Note_on_c, 2, 45, 100
5, 174048, Note_on_c, 2, 45, 0
5, 174060, Note_on_c, 2, 45, 100
5, 174108, Note_on_c, 2, 45, 0
5, 174540, Note_on_c, 2, 50, 100
5, 174563, Note_on_c, 2, 50, 0
5, 174570, Note_on_c, 2, 50, 100
5, 174593, Note_on_c, 2, 50, 0
5, 174600, Note_on_c, 2, 50, 100
5, 174648, Note_on_c, 2, 50, 0
5, 175020, Note_on_c, 2, 45, 100
5, 175043, Note_on_c, 2, 45, 0
5, 175050, Note_on_c, 2, 45, 100
5, 175073, Note_on_c, 2, 45, 0
5, 175080, Note_on_c, 2, 45, 100
5, 175128, Note_on_c, 2, 45, 0
5, 175980, Note_on_c, 2, 45, 80
5, 176004, Note_on_c, 2, 45, 0
5, 176010, Note_on_c, 2, 45, 80
5, 176034, Note_on_c, 2, 45, 0
5, 176040, Note_on_c, 2, 45, 80
5, 176088, Note_on_c, 2, 45, 0
5, 176100, Note_on_c, 2, 45, 80
5, 176148, Note_on_c, 2, 45, 0
5, 176160, Note_on_c, 2, 50, 80
5, 176208, Note_on_c, 2, 50, 0
5, 176220, Note_on_c, 2, 50, 80
5, 176244, Note_on_c, 2, 50, 0
5, 176250, Note_on_c, 2, 50, 80
5, 176274, Note_on_c, 2, 50, 0
5, 176280, Note_on_c, 2, 50, 80
5, 176328, Note_on_c, 2, 50, 0
5, 176340, Note_on_c, 2, 45, 80
5, 176388, Note_on_c, 2, 45, 0
5, 176400, Note_on_c, 2, 50, 80
5, 176448, Note_on_c, 2, 50, 0
5, 176640, Note_on_c, 2, 50, 80
5, 176688, Note_on_c, 2, 50, 0
5, 177660, Note_on_c, 2, 50, 80
5, 177684, Note_on_c, 2, 50, 0
5, 177690, Note_on_c, 2, 50, 80
5, 177714, Note_on_c, 2, 50, 0
5, 177720, Note_on_c, 2, 50, 80
5, 177768, Note_on_c, 2, 50, 0
5, 177780, Note_on_c, 2, 45, 80
5, 177828, Note_on_c, 2, 45, 0
5, 177840, Note_on_c, 2, 50, 80
5, 177935, Note_on_c, 2, 50, 0
5, 181500, Note_on_c, 2, 50, 110
5, 181547, Note_on_c, 2, 50, 0
5, 181560, Note_on_c, 2, 45, 110
5, 181607, Note_on_c, 2, 45, 0
5, 181620, Note_on_c, 2, 50, 110
5, 181667, Note_on_c, 2, 50, 0
5, 181680, Note_on_c, 2, 45, 110
5, 181727, Note_on_c, 2, 45, 0
5, 181740, Note_on_c, 2, 45, 110
5, 181787, Note_on_c, 2, 45, 0
5, 182460, Note_on_c, 2, 50, 100
5, 182507, Note_on_c, 2, 50, 0
5, 182520, Note_on_c, 2, 45, 100
5, 182567, Note_on_c, 2, 45, 0
5, 182580, Note_on_c, 2, 50, 100
5, 182627, Note_on_c, 2, 50, 0
5, 182640, Note_on_c, 2, 45, 100
5, 182687, Note_on_c, 2, 45, 0
5, 182700, Note_on_c, 2, 45, 100
5, 182747, Note_on_c, 2, 45, 0
5, 183660, Note_on_c, 2, 50, 100
5, 183683, Note_on_c, 2, 50, 0
5, 183690, Note_on_c, 2, 50, 100
5, 183713, Note_on_c, 2, 50, 0
5, 183720, Note_on_c, 2, 50, 100
5, 183767, Note_on_c, 2, 50, 0
5, 184140, Note_on_c, 2, 45, 100
5, 184163, Note_on_c, 2, 45, 0
5, 184170, Note_on_c, 2, 45, 100
5, 184193, Note_on_c, 2, 45, 0
5, 184200, Note_on_c, 2, 45, 100
5, 184248, Note_on_c, 2, 45, 0
5, 185820, Note_on_c, 2, 45, 100
5, 185843, Note_on_c, 2, 45, 0
5, 185850, Note_on_c, 2, 45, 100
5, 185873, Note_on_c, 2, 45, 0
5, 185880, Note_on_c, 2, 45, 100
5, 185927, Note_on_c, 2, 45, 0
5, 185940, Note_on_c, 2, 45, 100
5, 185987, Note_on_c, 2, 45, 0
5, 186000, Note_on_c, 2, 45, 100
5, 186095, Note_on_c, 2, 45, 0
5, 190080, Control_c, 2, 91, 118
5, 191100, Note_on_c, 2, 50, 100
5, 191148, Note_on_c, 2, 50, 0
5, 191160, Note_on_c, 2, 45, 100
5, 191208, Note_on_c, 2, 45, 0
5, 191220, Note_on_c, 2, 50, 100
5, 191268, Note_on_c, 2, 50, 0
5, 191280, Note_on_c, 2, 45, 100
5, 191328, Note_on_c, 2, 45, 0
5, 191340, Note_on_c, 2, 45, 100
5, 191388, Note_on_c, 2, 45, 0
5, 192060, Note_on_c, 2, 50, 110
5, 192108, Note_on_c, 2, 50, 0
5, 192120, Note_on_c, 2, 45, 110
5, 192168, Note_on_c, 2, 45, 0
5, 192180, Note_on_c, 2, 50, 110
5, 192228, Note_on_c, 2, 50, 0
5, 192240, Note_on_c, 2, 45, 110
5, 192288, Note_on_c, 2, 45, 0
5, 192300, Note_on_c, 2, 45, 110
5, 192348, Note_on_c, 2, 45, 0
5, 192780, Note_on_c, 2, 50, 110
5, 192803, Note_on_c, 2, 50, 0
5, 192810, Note_on_c, 2, 50, 110
5, 192833, Note_on_c, 2, 50, 0
5, 192840, Note_on_c, 2, 50, 110
5, 192888, Note_on_c, 2, 50, 0
5, 193260, Note_on_c, 2, 45, 110
5, 193283, Note_on_c, 2, 45, 0
5, 193290, Note_on_c, 2, 45, 110
5, 193313, Note_on_c, 2, 45, 0
5, 193320, Note_on_c, 2, 45, 110
5, 193368, Note_on_c, 2, 45, 0
5, 194220, Note_on_c, 2, 45, 100
5, 194244, Note_on_c, 2, 45, 0
5, 194250, Note_on_c, 2, 45, 100
5, 194274, Note_on_c, 2, 45, 0
5, 194280, Note_on_c, 2, 45, 100
5, 194328, Note_on_c, 2, 45, 0
5, 194340, Note_on_c, 2, 45, 100
5, 194388, Note_on_c, 2, 45, 0
5, 194400, Note_on_c, 2, 50, 100
5, 194448, Note_on_c, 2, 50, 0
5, 194460, Note_on_c, 2, 50, 100
5, 194484, Note_on_c, 2, 50, 0
5, 194490, Note_on_c, 2, 50, 100
5, 194514, Note_on_c, 2, 50, 0
5, 194520, Note_on_c, 2, 50, 100
5, 194568, Note_on_c, 2, 50, 0
5, 194580, Note_on_c, 2, 45, 100
5, 194628, Note_on_c, 2, 45, 0
5, 194640, Note_on_c, 2, 50, 100
5, 194688, Note_on_c, 2, 50, 0
5, 194880, Note_on_c, 2, 50, 100
5, 194928, Note_on_c, 2, 50, 0
5, 195900, Note_on_c, 2, 50, 100
5, 195924, Note_on_c, 2, 50, 0
5, 195930, Note_on_c, 2, 50, 100
5, 195954, Note_on_c, 2, 50, 0
5, 195960, Note_on_c, 2, 50, 100
5, 196008, Note_on_c, 2, 50, 0
5, 196020, Note_on_c, 2, 45, 100
5, 196068, Note_on_c, 2, 45, 0
5, 196080, Note_on_c, 2, 50, 100
5, 196224, Note_on_c, 2, 50, 0
5, 196224, End_track
6, 0, Start_track
6, 0, MIDI_port, 0
6, 0, Title_t, "Oboe I"
6, 0, Program_c, 3, 68
6, 0, Control_c, 3, 7, 127
6, 0, Control_c, 3, 10, 88
6, 240, Note_on_c, 3, 69, 80
6, 299, Note_on_c, 3, 69, 0
6, 300, Note_on_c, 3, 74, 80
6, 359, Note_on_c, 3, 74, 0
6, 420, Note_on_c, 3, 69, 80
6, 479, Note_on_c, 3, 69, 0
6, 480, Note_on_c, 3, 76, 80
6, 539, Note_on_c, 3, 76, 0
6, 600, Note_on_c, 3, 74, 80
6, 659, Note_on_c, 3, 74, 0
6, 660, Note_on_c, 3, 73, 80
6, 719, Note_on_c, 3, 73, 0
6, 720, Note_on_c, 3, 74, 90
6, 779, Note_on_c, 3, 74, 0
6, 780, Note_on_c, 3, 69, 80
6, 839, Note_on_c, 3, 69, 0
6, 840, Note_on_c, 3, 69, 80
6, 899, Note_on_c, 3, 69, 0
6, 900, Note_on_c, 3, 74, 90
6, 1019, Note_on_c, 3, 74, 0
6, 1020, Note_on_c, 3, 69, 80
6, 1079, Note_on_c, 3, 69, 0
6, 1080, Note_on_c, 3, 76, 90
6, 1199, Note_on_c, 3, 76, 0
6, 1200, Note_on_c, 3, 69, 80
6, 1259, Note_on_c, 3, 69, 0
6, 1260, Note_on_c, 3, 78, 90
6, 1319, Note_on_c, 3, 78, 0
6, 1320, Note_on_c, 3, 76, 80
6, 1349, Note_on_c, 3, 76, 0
6, 1350, Note_on_c, 3, 78, 80
6, 1379, Note_on_c, 3, 78, 0
6, 1380, Note_on_c, 3, 79, 80
6, 1409, Note_on_c, 3, 79, 0
6, 1410, Note_on_c, 3, 76, 80
6, 1439, Note_on_c, 3, 76, 0
6, 1440, Note_on_c, 3, 79, 90
6, 1469, Note_on_c, 3, 79, 0
6, 1470, Note_on_c, 3, 78, 90
6, 1499, Note_on_c, 3, 78, 0
6, 1500, Note_on_c, 3, 76, 80
6, 1529, Note_on_c, 3, 76, 0
6, 1530, Note_on_c, 3, 74, 80
6, 1559, Note_on_c, 3, 74, 0
6, 1680, Note_on_c, 3, 78, 80
6, 1739, Note_on_c, 3, 78, 0
6, 1740, Note_on_c, 3, 79, 80
6, 1799, Note_on_c, 3, 79, 0
6, 1860, Note_on_c, 3, 76, 80
6, 1919, Note_on_c, 3, 76, 0
6, 1920, Note_on_c, 3, 78, 80
6, 1979, Note_on_c, 3, 78, 0
6, 2040, Note_on_c, 3, 76, 80
6, 2099, Note_on_c, 3, 76, 0
6, 2100, Note_on_c, 3, 74, 80
6, 2159, Note_on_c, 3, 74, 0
6, 2160, Note_on_c, 3, 73, 90
6, 2175, Note_on_c, 3, 73, 0
6, 2175, Note_on_c, 3, 74, 90
6, 2190, Note_on_c, 3, 74, 0
6, 2190, Note_on_c, 3, 73, 90
6, 2219, Note_on_c, 3, 73, 0
6, 2220, Note_on_c, 3, 71, 80
6, 2249, Note_on_c, 3, 71, 0
6, 2250, Note_on_c, 3, 69, 80
6, 2279, Note_on_c, 3, 69, 0
6, 2280, Note_on_c, 3, 76, 80
6, 2339, Note_on_c, 3, 76, 0
6, 2340, Note_on_c, 3, 78, 90
6, 2369, Note_on_c, 3, 78, 0
6, 2400, Note_on_c, 3, 83, 80
6, 2429, Note_on_c, 3, 83, 0
6, 2430, Note_on_c, 3, 81, 80
6, 2459, Note_on_c, 3, 81, 0
6, 2460, Note_on_c, 3, 79, 80
6, 2489, Note_on_c, 3, 79, 0
6, 2490, Note_on_c, 3, 78, 80
6, 2519, Note_on_c, 3, 78, 0
6, 2520, Note_on_c, 3, 76, 90
6, 2549, Note_on_c, 3, 76, 0
6, 2580, Note_on_c, 3, 81, 80
6, 2609, Note_on_c, 3, 81, 0
6, 2610, Note_on_c, 3, 79, 80
6, 2639, Note_on_c, 3, 79, 0
6, 2640, Note_on_c, 3, 78, 80
6, 2669, Note_on_c, 3, 78, 0
6, 2670, Note_on_c, 3, 76, 80
6, 2699, Note_on_c, 3, 76, 0
6, 2700, Note_on_c, 3, 74, 90
6, 2759, Note_on_c, 3, 74, 0
6, 2760, Note_on_c, 3, 79, 80
6, 2819, Note_on_c, 3, 79, 0
6, 2820, Note_on_c, 3, 78, 80
6, 2879, Note_on_c, 3, 78, 0
6, 2880, Note_on_c, 3, 76, 90
6, 2969, Note_on_c, 3, 76, 0
6, 2970, Note_on_c, 3, 74, 80
6, 2999, Note_on_c, 3, 74, 0
6, 3000, Note_on_c, 3, 73, 80
6, 3029, Note_on_c, 3, 73, 0
6, 3030, Note_on_c, 3, 71, 80
6, 3059, Note_on_c, 3, 71, 0
6, 3060, Note_on_c, 3, 69, 90
6, 3119, Note_on_c, 3, 69, 0
6, 3120, Note_on_c, 3, 74, 80
6, 3179, Note_on_c, 3, 74, 0
6, 3180, Note_on_c, 3, 73, 80
6, 3209, Note_on_c, 3, 73, 0
6, 3240, Note_on_c, 3, 78, 90
6, 3269, Note_on_c, 3, 78, 0
6, 3300, Note_on_c, 3, 76, 80
6, 3359, Note_on_c, 3, 76, 0
6, 3360, Note_on_c, 3, 74, 80
6, 3419, Note_on_c, 3, 74, 0
6, 3420, Note_on_c, 3, 73, 90
6, 3479, Note_on_c, 3, 73, 0
6, 3480, Note_on_c, 3, 74, 80
6, 3539, Note_on_c, 3, 74, 0
6, 3540, Note_on_c, 3, 71, 80
6, 3599, Note_on_c, 3, 71, 0
6, 3600, Note_on_c, 3, 69, 65
6, 3659, Note_on_c, 3, 69, 0
6, 3660, Note_on_c, 3, 72, 65
6, 3719, Note_on_c, 3, 72, 0
6, 3720, Note_on_c, 3, 75, 65
6, 3839, Note_on_c, 3, 75, 0
6, 3840, Note_on_c, 3, 78, 65
6, 3899, Note_on_c, 3, 78, 0
6, 3900, Note_on_c, 3, 81, 65
6, 3989, Note_on_c, 3, 81, 0
6, 3990, Note_on_c, 3, 84, 65
6, 4019, Note_on_c, 3, 84, 0
6, 4020, Note_on_c, 3, 83, 65
6, 4049, Note_on_c, 3, 83, 0
6, 4050, Note_on_c, 3, 80, 65
6, 4079, Note_on_c, 3, 80, 0
6, 4080, Note_on_c, 3, 81, 65
6, 4199, Note_on_c, 3, 81, 0
6, 4200, Note_on_c, 3, 76, 80
6, 4229, Note_on_c, 3, 76, 0
6, 4230, Note_on_c, 3, 74, 80
6, 4259, Note_on_c, 3, 74, 0
6, 4260, Note_on_c, 3, 73, 80
6, 4289, Note_on_c, 3, 73, 0
6, 4290, Note_on_c, 3, 71, 80
6, 4319, Note_on_c, 3, 71, 0
6, 4320, Note_on_c, 3, 69, 90
6, 4439, Note_on_c, 3, 69, 0
6, 4560, Note_on_c, 3, 75, 80
6, 4589, Note_on_c, 3, 75, 0
6, 4590, Note_on_c, 3, 76, 80
6, 4619, Note_on_c, 3, 76, 0
6, 4620, Note_on_c, 3, 78, 80
6, 4679, Note_on_c, 3, 78, 0
6, 4680, Note_on_c, 3, 71, 90
6, 4709, Note_on_c, 3, 71, 0
6, 4710, Note_on_c, 3, 73, 90
6, 4739, Note_on_c, 3, 73, 0
6, 4740, Note_on_c, 3, 75, 80
6, 4769, Note_on_c, 3, 75, 0
6, 4770, Note_on_c, 3, 76, 80
6, 4799, Note_on_c, 3, 76, 0
6, 4800, Note_on_c, 3, 78, 80
6, 4889, Note_on_c, 3, 78, 0
6, 4890, Note_on_c, 3, 75, 90
6, 4919, Note_on_c, 3, 75, 0
6, 4920, Note_on_c, 3, 83, 80
6, 4949, Note_on_c, 3, 83, 0
6, 4950, Note_on_c, 3, 81, 80
6, 4979, Note_on_c, 3, 81, 0
6, 4980, Note_on_c, 3, 79, 80
6, 5009, Note_on_c, 3, 79, 0
6, 5010, Note_on_c, 3, 78, 80
6, 5039, Note_on_c, 3, 78, 0
6, 5040, Note_on_c, 3, 81, 90
6, 5069, Note_on_c, 3, 81, 0
6, 5070, Note_on_c, 3, 79, 90
6, 5099, Note_on_c, 3, 79, 0
6, 5100, Note_on_c, 3, 78, 80
6, 5129, Note_on_c, 3, 78, 0
6, 5130, Note_on_c, 3, 76, 80
6, 5159, Note_on_c, 3, 76, 0
6, 5280, Note_on_c, 3, 76, 80
6, 5309, Note_on_c, 3, 76, 0
6, 5310, Note_on_c, 3, 74, 80
6, 5339, Note_on_c, 3, 74, 0
6, 5340, Note_on_c, 3, 73, 80
6, 5369, Note_on_c, 3, 73, 0
6, 5370, Note_on_c, 3, 71, 80
6, 5399, Note_on_c, 3, 71, 0
6, 5400, Note_on_c, 3, 69, 90
6, 5429, Note_on_c, 3, 69, 0
6, 5430, Note_on_c, 3, 71, 90
6, 5459, Note_on_c, 3, 71, 0
6, 5460, Note_on_c, 3, 73, 80
6, 5489, Note_on_c, 3, 73, 0
6, 5490, Note_on_c, 3, 74, 80
6, 5519, Note_on_c, 3, 74, 0
6, 5520, Note_on_c, 3, 76, 80
6, 5609, Note_on_c, 3, 76, 0
6, 5610, Note_on_c, 3, 73, 90
6, 5639, Note_on_c, 3, 73, 0
6, 5640, Note_on_c, 3, 81, 80
6, 5669, Note_on_c, 3, 81, 0
6, 5670, Note_on_c, 3, 79, 80
6, 5699, Note_on_c, 3, 79, 0
6, 5700, Note_on_c, 3, 78, 80
6, 5729, Note_on_c, 3, 78, 0
6, 5730, Note_on_c, 3, 76, 80
6, 5759, Note_on_c, 3, 76, 0
6, 5760, Note_on_c, 3, 79, 90
6, 5789, Note_on_c, 3, 79, 0
6, 5790, Note_on_c, 3, 78, 90
6, 5819, Note_on_c, 3, 78, 0
6, 5820, Note_on_c, 3, 76, 80
6, 5849, Note_on_c, 3, 76, 0
6, 5850, Note_on_c, 3, 74, 80
6, 5879, Note_on_c, 3, 74, 0
6, 5880, Note_on_c, 3, 81, 80
6, 5909, Note_on_c, 3, 81, 0
6, 5910, Note_on_c, 3, 69, 80
6, 5939, Note_on_c, 3, 69, 0
6, 5940, Note_on_c, 3, 71, 90
6, 5969, Note_on_c, 3, 71, 0
6, 5970, Note_on_c, 3, 73, 90
6, 5999, Note_on_c, 3, 73, 0
6, 6000, Note_on_c, 3, 74, 80
6, 6029, Note_on_c, 3, 74, 0
6, 6030, Note_on_c, 3, 76, 80
6, 6059, Note_on_c, 3, 76, 0
6, 6060, Note_on_c, 3, 73, 80
6, 6089, Note_on_c, 3, 73, 0
6, 6090, Note_on_c, 3, 74, 80
6, 6119, Note_on_c, 3, 74, 0
6, 6120, Note_on_c, 3, 69, 90
6, 6149, Note_on_c, 3, 69, 0
6, 6150, Note_on_c, 3, 73, 90
6, 6179, Note_on_c, 3, 73, 0
6, 6180, Note_on_c, 3, 74, 80
6, 6209, Note_on_c, 3, 74, 0
6, 6210, Note_on_c, 3, 76, 80
6, 6239, Note_on_c, 3, 76, 0
6, 6240, Note_on_c, 3, 73, 80
6, 6269, Note_on_c, 3, 73, 0
6, 6270, Note_on_c, 3, 74, 80
6, 6299, Note_on_c, 3, 74, 0
6, 6300, Note_on_c, 3, 67, 90
6, 6329, Note_on_c, 3, 67, 0
6, 6330, Note_on_c, 3, 73, 90
6, 6359, Note_on_c, 3, 73, 0
6, 6360, Note_on_c, 3, 74, 80
6, 6389, Note_on_c, 3, 74, 0
6, 6390, Note_on_c, 3, 76, 80
6, 6419, Note_on_c, 3, 76, 0
6, 6420, Note_on_c, 3, 73, 80
6, 6449, Note_on_c, 3, 73, 0
6, 6450, Note_on_c, 3, 74, 80
6, 6479, Note_on_c, 3, 74, 0
6, 6480, Note_on_c, 3, 67, 90
6, 6509, Note_on_c, 3, 67, 0
6, 6510, Note_on_c, 3, 66, 90
6, 6539, Note_on_c, 3, 66, 0
6, 6540, Note_on_c, 3, 64, 80
6, 6569, Note_on_c, 3, 64, 0
6, 6570, Note_on_c, 3, 62, 80
6, 6599, Note_on_c, 3, 62, 0
6, 6600, Note_on_c, 3, 69, 80
6, 6629, Note_on_c, 3, 69, 0
6, 6630, Note_on_c, 3, 66, 80
6, 6659, Note_on_c, 3, 66, 0
6, 6660, Note_on_c, 3, 72, 90
6, 6689, Note_on_c, 3, 72, 0
6, 6690, Note_on_c, 3, 71, 90
6, 6719, Note_on_c, 3, 71, 0
6, 6720, Note_on_c, 3, 69, 80
6, 6749, Note_on_c, 3, 69, 0
6, 6750, Note_on_c, 3, 68, 80
6, 6779, Note_on_c, 3, 68, 0
6, 6780, Note_on_c, 3, 74, 80
6, 6809, Note_on_c, 3, 74, 0
6, 6810, Note_on_c, 3, 71, 80
6, 6839, Note_on_c, 3, 71, 0
6, 6840, Note_on_c, 3, 74, 90
6, 6869, Note_on_c, 3, 74, 0
6, 6870, Note_on_c, 3, 73, 90
6, 6899, Note_on_c, 3, 73, 0
6, 6900, Note_on_c, 3, 71, 80
6, 6929, Note_on_c, 3, 71, 0
6, 6930, Note_on_c, 3, 69, 80
6, 6959, Note_on_c, 3, 69, 0
6, 6960, Note_on_c, 3, 81, 80
6, 6989, Note_on_c, 3, 81, 0
6, 6990, Note_on_c, 3, 76, 80
6, 7019, Note_on_c, 3, 76, 0
6, 7020, Note_on_c, 3, 74, 90
6, 7049, Note_on_c, 3, 74, 0
6, 7050, Note_on_c, 3, 73, 90
6, 7079, Note_on_c, 3, 73, 0
6, 7080, Note_on_c, 3, 71, 80
6, 7109, Note_on_c, 3, 71, 0
6, 7110, Note_on_c, 3, 70, 80
6, 7139, Note_on_c, 3, 70, 0
6, 7140, Note_on_c, 3, 76, 80
6, 7169, Note_on_c, 3, 76, 0
6, 7170, Note_on_c, 3, 73, 80
6, 7199, Note_on_c, 3, 73, 0
6, 7200, Note_on_c, 3, 76, 90
6, 7229, Note_on_c, 3, 76, 0
6, 7230, Note_on_c, 3, 74, 90
6, 7259, Note_on_c, 3, 74, 0
6, 7260, Note_on_c, 3, 73, 80
6, 7289, Note_on_c, 3, 73, 0
6, 7290, Note_on_c, 3, 71, 80
6, 7319, Note_on_c, 3, 71, 0
6, 7320, Note_on_c, 3, 83, 80
6, 7349, Note_on_c, 3, 83, 0
6, 7350, Note_on_c, 3, 78, 80
6, 7379, Note_on_c, 3, 78, 0
6, 7380, Note_on_c, 3, 76, 90
6, 7409, Note_on_c, 3, 76, 0
6, 7410, Note_on_c, 3, 74, 90
6, 7439, Note_on_c, 3, 74, 0
6, 7440, Note_on_c, 3, 73, 80
6, 7469, Note_on_c, 3, 73, 0
6, 7470, Note_on_c, 3, 74, 80
6, 7499, Note_on_c, 3, 74, 0
6, 7500, Note_on_c, 3, 79, 80
6, 7529, Note_on_c, 3, 79, 0
6, 7530, Note_on_c, 3, 74, 80
6, 7559, Note_on_c, 3, 74, 0
6, 7560, Note_on_c, 3, 83, 90
6, 7589, Note_on_c, 3, 83, 0
6, 7590, Note_on_c, 3, 74, 90
6, 7619, Note_on_c, 3, 74, 0
6, 7620, Note_on_c, 3, 73, 80
6, 7649, Note_on_c, 3, 73, 0
6, 7650, Note_on_c, 3, 74, 80
6, 7679, Note_on_c, 3, 74, 0
6, 7680, Note_on_c, 3, 80, 80
6, 7709, Note_on_c, 3, 80, 0
6, 7710, Note_on_c, 3, 74, 80
6, 7739, Note_on_c, 3, 74, 0
6, 7740, Note_on_c, 3, 81, 90
6, 7769, Note_on_c, 3, 81, 0
6, 7770, Note_on_c, 3, 74, 90
6, 7799, Note_on_c, 3, 74, 0
6, 7800, Note_on_c, 3, 83, 80
6, 7829, Note_on_c, 3, 83, 0
6, 7830, Note_on_c, 3, 74, 80
6, 7859, Note_on_c, 3, 74, 0
6, 7860, Note_on_c, 3, 85, 80
6, 7889, Note_on_c, 3, 85, 0
6, 7890, Note_on_c, 3, 74, 80
6, 7919, Note_on_c, 3, 74, 0
6, 7920, Note_on_c, 3, 86, 65
6, 7979, Note_on_c, 3, 86, 0
6, 7980, Note_on_c, 3, 83, 65
6, 8039, Note_on_c, 3, 83, 0
6, 8040, Note_on_c, 3, 80, 65
6, 8159, Note_on_c, 3, 80, 0
6, 8160, Note_on_c, 3, 77, 65
6, 8219, Note_on_c, 3, 77, 0
6, 8220, Note_on_c, 3, 74, 65
6, 8309, Note_on_c, 3, 74, 0
6, 8310, Note_on_c, 3, 77, 65
6, 8339, Note_on_c, 3, 77, 0
6, 8340, Note_on_c, 3, 76, 65
6, 8369, Note_on_c, 3, 76, 0
6, 8370, Note_on_c, 3, 73, 65
6, 8399, Note_on_c, 3, 73, 0
6, 8400, Note_on_c, 3, 74, 80
6, 8519, Note_on_c, 3, 74, 0
6, 8520, Note_on_c, 3, 81, 80
6, 8549, Note_on_c, 3, 81, 0
6, 8550, Note_on_c, 3, 79, 80
6, 8579, Note_on_c, 3, 79, 0
6, 8580, Note_on_c, 3, 78, 80
6, 8609, Note_on_c, 3, 78, 0
6, 8610, Note_on_c, 3, 76, 80
6, 8639, Note_on_c, 3, 76, 0
6, 8640, Note_on_c, 3, 74, 90
6, 8759, Note_on_c, 3, 74, 0
6, 11640, Note_on_c, 3, 69, 80
6, 11699, Note_on_c, 3, 69, 0
6, 11700, Note_on_c, 3, 74, 90
6, 11819, Note_on_c, 3, 74, 0
6, 11820, Note_on_c, 3, 69, 80
6, 11879, Note_on_c, 3, 69, 0
6, 11880, Note_on_c, 3, 76, 90
6, 11999, Note_on_c, 3, 76, 0
6, 12000, Note_on_c, 3, 69, 80
6, 12059, Note_on_c, 3, 69, 0
6, 12060, Note_on_c, 3, 78, 90
6, 12119, Note_on_c, 3, 78, 0
6, 12120, Note_on_c, 3, 76, 80
6, 12149, Note_on_c, 3, 76, 0
6, 12150, Note_on_c, 3, 78, 80
6, 12179, Note_on_c, 3, 78, 0
6, 12180, Note_on_c, 3, 79, 80
6, 12209, Note_on_c, 3, 79, 0
6, 12210, Note_on_c, 3, 76, 80
6, 12239, Note_on_c, 3, 76, 0
6, 12240, Note_on_c, 3, 79, 90
6, 12269, Note_on_c, 3, 79, 0
6, 12270, Note_on_c, 3, 78, 90
6, 12299, Note_on_c, 3, 78, 0
6, 12300, Note_on_c, 3, 76, 80
6, 12329, Note_on_c, 3, 76, 0
6, 12330, Note_on_c, 3, 74, 80
6, 12359, Note_on_c, 3, 74, 0
6, 13800, Note_on_c, 3, 69, 80
6, 13859, Note_on_c, 3, 69, 0
6, 13860, Note_on_c, 3, 74, 90
6, 13979, Note_on_c, 3, 74, 0
6, 13980, Note_on_c, 3, 69, 80
6, 14039, Note_on_c, 3, 69, 0
6, 14040, Note_on_c, 3, 76, 90
6, 14159, Note_on_c, 3, 76, 0
6, 14160, Note_on_c, 3, 69, 80
6, 14219, Note_on_c, 3, 69, 0
6, 14220, Note_on_c, 3, 78, 90
6, 14279, Note_on_c, 3, 78, 0
6, 14280, Note_on_c, 3, 76, 80
6, 14309, Note_on_c, 3, 76, 0
6, 14310, Note_on_c, 3, 78, 80
6, 14339, Note_on_c, 3, 78, 0
6, 14340, Note_on_c, 3, 79, 80
6, 14369, Note_on_c, 3, 79, 0
6, 14370, Note_on_c, 3, 76, 80
6, 14399, Note_on_c, 3, 76, 0
6, 14400, Note_on_c, 3, 79, 90
6, 14429, Note_on_c, 3, 79, 0
6, 14430, Note_on_c, 3, 78, 90
6, 14459, Note_on_c, 3, 78, 0
6, 14460, Note_on_c, 3, 76, 80
6, 14489, Note_on_c, 3, 76, 0
6, 14490, Note_on_c, 3, 74, 80
6, 14519, Note_on_c, 3, 74, 0
6, 14520, Note_on_c, 3, 78, 80
6, 14549, Note_on_c, 3, 78, 0
6, 14550, Note_on_c, 3, 74, 80
6, 14579, Note_on_c, 3, 74, 0
6, 14580, Note_on_c, 3, 78, 90
6, 14609, Note_on_c, 3, 78, 0
6, 14610, Note_on_c, 3, 76, 90
6, 14639, Note_on_c, 3, 76, 0
6, 14640, Note_on_c, 3, 74, 80
6, 14669, Note_on_c, 3, 74, 0
6, 14670, Note_on_c, 3, 73, 80
6, 14699, Note_on_c, 3, 73, 0
6, 14700, Note_on_c, 3, 76, 80
6, 14729, Note_on_c, 3, 76, 0
6, 14730, Note_on_c, 3, 73, 80
6, 14759, Note_on_c, 3, 73, 0
6, 14760, Note_on_c, 3, 76, 90
6, 14789, Note_on_c, 3, 76, 0
6, 14790, Note_on_c, 3, 74, 90
6, 14819, Note_on_c, 3, 74, 0
6, 14820, Note_on_c, 3, 73, 80
6, 14849, Note_on_c, 3, 73, 0
6, 14850, Note_on_c, 3, 71, 80
6, 14879, Note_on_c, 3, 71, 0
6, 14880, Note_on_c, 3, 74, 80
6, 14909, Note_on_c, 3, 74, 0
6, 14910, Note_on_c, 3, 71, 80
6, 14939, Note_on_c, 3, 71, 0
6, 14940, Note_on_c, 3, 76, 90
6, 14969, Note_on_c, 3, 76, 0
6, 15000, Note_on_c, 3, 74, 80
6, 15029, Note_on_c, 3, 74, 0
6, 15030, Note_on_c, 3, 73, 80
6, 15059, Note_on_c, 3, 73, 0
6, 15060, Note_on_c, 3, 71, 80
6, 15089, Note_on_c, 3, 71, 0
6, 15090, Note_on_c, 3, 73, 80
6, 15119, Note_on_c, 3, 73, 0
6, 15120, Note_on_c, 3, 69, 90
6, 15239, Note_on_c, 3, 69, 0
6, 15240, Note_on_c, 3, 69, 80
6, 15299, Note_on_c, 3, 69, 0
6, 15300, Note_on_c, 3, 74, 90
6, 15419, Note_on_c, 3, 74, 0
6, 15420, Note_on_c, 3, 69, 80
6, 15479, Note_on_c, 3, 69, 0
6, 15480, Note_on_c, 3, 76, 90
6, 15599, Note_on_c, 3, 76, 0
6, 15600, Note_on_c, 3, 69, 80
6, 15659, Note_on_c, 3, 69, 0
6, 15660, Note_on_c, 3, 78, 90
6, 15719, Note_on_c, 3, 78, 0
6, 15720, Note_on_c, 3, 76, 80
6, 15749, Note_on_c, 3, 76, 0
6, 15750, Note_on_c, 3, 78, 80
6, 15779, Note_on_c, 3, 78, 0
6, 15780, Note_on_c, 3, 79, 80
6, 15809, Note_on_c, 3, 79, 0
6, 15810, Note_on_c, 3, 76, 80
6, 15839, Note_on_c, 3, 76, 0
6, 15840, Note_on_c, 3, 79, 90
6, 15869, Note_on_c, 3, 79, 0
6, 15870, Note_on_c, 3, 78, 90
6, 15899, Note_on_c, 3, 78, 0
6, 15900, Note_on_c, 3, 76, 80
6, 15929, Note_on_c, 3, 76, 0
6, 15930, Note_on_c, 3, 74, 80
6, 15959, Note_on_c, 3, 74, 0
6, 16680, Note_on_c, 3, 71, 80
6, 16739, Note_on_c, 3, 71, 0
6, 16740, Note_on_c, 3, 73, 90
6, 16769, Note_on_c, 3, 73, 0
6, 16800, Note_on_c, 3, 78, 80
6, 16829, Note_on_c, 3, 78, 0
6, 16830, Note_on_c, 3, 76, 80
6, 16859, Note_on_c, 3, 76, 0
6, 16860, Note_on_c, 3, 74, 80
6, 16889, Note_on_c, 3, 74, 0
6, 16890, Note_on_c, 3, 73, 80
6, 16919, Note_on_c, 3, 73, 0
6, 16920, Note_on_c, 3, 71, 90
6, 16949, Note_on_c, 3, 71, 0
6, 16980, Note_on_c, 3, 76, 80
6, 17009, Note_on_c, 3, 76, 0
6, 17010, Note_on_c, 3, 74, 80
6, 17039, Note_on_c, 3, 74, 0
6, 17040, Note_on_c, 3, 73, 80
6, 17069, Note_on_c, 3, 73, 0
6, 17070, Note_on_c, 3, 71, 80
6, 17099, Note_on_c, 3, 71, 0
6, 17100, Note_on_c, 3, 69, 90
6, 17159, Note_on_c, 3, 69, 0
6, 17160, Note_on_c, 3, 74, 80
6, 17219, Note_on_c, 3, 74, 0
6, 17220, Note_on_c, 3, 73, 80
6, 17279, Note_on_c, 3, 73, 0
6, 17280, Note_on_c, 3, 71, 90
6, 17519, Note_on_c, 3, 71, 0
6, 17520, Note_on_c, 3, 76, 80
6, 17549, Note_on_c, 3, 76, 0
6, 17550, Note_on_c, 3, 74, 80
6, 17579, Note_on_c, 3, 74, 0
6, 17580, Note_on_c, 3, 73, 80
6, 17609, Note_on_c, 3, 73, 0
6, 17610, Note_on_c, 3, 71, 80
6, 17639, Note_on_c, 3, 71, 0
6, 17640, Note_on_c, 3, 73, 90
6, 17669, Note_on_c, 3, 73, 0
6, 17670, Note_on_c, 3, 74, 90
6, 17699, Note_on_c, 3, 74, 0
6, 17700, Note_on_c, 3, 76, 80
6, 17759, Note_on_c, 3, 76, 0
6, 17760, Note_on_c, 3, 69, 80
6, 17879, Note_on_c, 3, 69, 0
6, 17880, Note_on_c, 3, 81, 80
6, 17909, Note_on_c, 3, 81, 0
6, 17910, Note_on_c, 3, 79, 80
6, 17939, Note_on_c, 3, 79, 0
6, 17940, Note_on_c, 3, 78, 80
6, 17969, Note_on_c, 3, 78, 0
6, 17970, Note_on_c, 3, 76, 80
6, 17999, Note_on_c, 3, 76, 0
6, 18000, Note_on_c, 3, 78, 90
6, 18029, Note_on_c, 3, 78, 0
6, 18030, Note_on_c, 3, 76, 90
6, 18059, Note_on_c, 3, 76, 0
6, 18060, Note_on_c, 3, 78, 80
6, 18089, Note_on_c, 3, 78, 0
6, 18090, Note_on_c, 3, 79, 80
6, 18119, Note_on_c, 3, 79, 0
6, 18120, Note_on_c, 3, 81, 80
6, 18149, Note_on_c, 3, 81, 0
6, 18150, Note_on_c, 3, 78, 80
6, 18179, Note_on_c, 3, 78, 0
6, 18180, Note_on_c, 3, 74, 90
6, 18239, Note_on_c, 3, 74, 0
6, 18240, Note_on_c, 3, 79, 80
6, 18299, Note_on_c, 3, 79, 0
6, 18300, Note_on_c, 3, 67, 80
6, 18359, Note_on_c, 3, 67, 0
6, 18360, Note_on_c, 3, 74, 90
6, 18630, Note_on_c, 3, 74, 0
6, 18630, Note_on_c, 3, 78, 80
6, 18659, Note_on_c, 3, 78, 0
6, 18660, Note_on_c, 3, 76, 80
6, 18689, Note_on_c, 3, 76, 0
6, 18690, Note_on_c, 3, 74, 80
6, 18719, Note_on_c, 3, 74, 0
6, 18720, Note_on_c, 3, 81, 90
6, 18779, Note_on_c, 3, 81, 0
6, 18780, Note_on_c, 3, 69, 80
6, 18839, Note_on_c, 3, 69, 0
6, 18840, Note_on_c, 3, 79, 80
6, 18899, Note_on_c, 3, 79, 0
6, 18900, Note_on_c, 3, 78, 90
6, 18959, Note_on_c, 3, 78, 0
6, 19560, Note_on_c, 3, 76, 80
6, 19619, Note_on_c, 3, 76, 0
6, 19620, Note_on_c, 3, 78, 90
6, 19649, Note_on_c, 3, 78, 0
6, 19680, Note_on_c, 3, 83, 80
6, 19709, Note_on_c, 3, 83, 0
6, 19710, Note_on_c, 3, 81, 80
6, 19739, Note_on_c, 3, 81, 0
6, 19740, Note_on_c, 3, 79, 80
6, 19769, Note_on_c, 3, 79, 0
6, 19770, Note_on_c, 3, 78, 80
6, 19799, Note_on_c, 3, 78, 0
6, 19800, Note_on_c, 3, 76, 90
6, 19829, Note_on_c, 3, 76, 0
6, 19860, Note_on_c, 3, 81, 80
6, 19889, Note_on_c, 3, 81, 0
6, 19890, Note_on_c, 3, 79, 80
6, 19919, Note_on_c, 3, 79, 0
6, 19920, Note_on_c, 3, 78, 80
6, 19949, Note_on_c, 3, 78, 0
6, 19950, Note_on_c, 3, 76, 80
6, 19979, Note_on_c, 3, 76, 0
6, 19980, Note_on_c, 3, 74, 90
6, 20039, Note_on_c, 3, 74, 0
6, 20040, Note_on_c, 3, 79, 80
6, 20099, Note_on_c, 3, 79, 0
6, 20100, Note_on_c, 3, 78, 80
6, 20159, Note_on_c, 3, 78, 0
6, 20160, Note_on_c, 3, 76, 90
6, 20249, Note_on_c, 3, 76, 0
6, 20250, Note_on_c, 3, 74, 80
6, 20279, Note_on_c, 3, 74, 0
6, 20280, Note_on_c, 3, 73, 80
6, 20309, Note_on_c, 3, 73, 0
6, 20310, Note_on_c, 3, 71, 80
6, 20339, Note_on_c, 3, 71, 0
6, 20340, Note_on_c, 3, 69, 90
6, 20399, Note_on_c, 3, 69, 0
6, 20400, Note_on_c, 3, 74, 80
6, 20459, Note_on_c, 3, 74, 0
6, 20460, Note_on_c, 3, 73, 80
6, 20519, Note_on_c, 3, 73, 0
6, 20520, Note_on_c, 3, 78, 90
6, 20549, Note_on_c, 3, 78, 0
6, 20580, Note_on_c, 3, 76, 80
6, 20639, Note_on_c, 3, 76, 0
6, 20640, Note_on_c, 3, 74, 80
6, 20699, Note_on_c, 3, 74, 0
6, 20700, Note_on_c, 3, 73, 90
6, 20759, Note_on_c, 3, 73, 0
6, 20760, Note_on_c, 3, 74, 80
6, 20819, Note_on_c, 3, 74, 0
6, 20820, Note_on_c, 3, 71, 80
6, 20879, Note_on_c, 3, 71, 0
6, 20880, Note_on_c, 3, 69, 70
6, 20939, Note_on_c, 3, 69, 0
6, 20940, Note_on_c, 3, 72, 70
6, 20999, Note_on_c, 3, 72, 0
6, 21000, Note_on_c, 3, 75, 70
6, 21119, Note_on_c, 3, 75, 0
6, 21120, Note_on_c, 3, 78, 70
6, 21179, Note_on_c, 3, 78, 0
6, 21180, Note_on_c, 3, 81, 70
6, 21269, Note_on_c, 3, 81, 0
6, 21270, Note_on_c, 3, 84, 70
6, 21299, Note_on_c, 3, 84, 0
6, 21300, Note_on_c, 3, 83, 70
6, 21329, Note_on_c, 3, 83, 0
6, 21330, Note_on_c, 3, 80, 70
6, 21359, Note_on_c, 3, 80, 0
6, 21360, Note_on_c, 3, 81, 70
6, 21479, Note_on_c, 3, 81, 0
6, 21480, Note_on_c, 3, 76, 90
6, 21509, Note_on_c, 3, 76, 0
6, 21510, Note_on_c, 3, 74, 90
6, 21539, Note_on_c, 3, 74, 0
6, 21540, Note_on_c, 3, 73, 90
6, 21569, Note_on_c, 3, 73, 0
6, 21570, Note_on_c, 3, 71, 90
6, 21599, Note_on_c, 3, 71, 0
6, 21600, Note_on_c, 3, 69, 90
6, 21719, Note_on_c, 3, 69, 0
6, 21840, Note_on_c, 3, 72, 80
6, 21869, Note_on_c, 3, 72, 0
6, 21870, Note_on_c, 3, 71, 80
6, 21899, Note_on_c, 3, 71, 0
6, 21900, Note_on_c, 3, 69, 80
6, 21959, Note_on_c, 3, 69, 0
6, 22020, Note_on_c, 3, 69, 80
6, 22049, Note_on_c, 3, 69, 0
6, 22050, Note_on_c, 3, 67, 80
6, 22079, Note_on_c, 3, 67, 0
6, 22080, Note_on_c, 3, 66, 80
6, 22139, Note_on_c, 3, 66, 0
6, 22200, Note_on_c, 3, 79, 80
6, 22229, Note_on_c, 3, 79, 0
6, 22230, Note_on_c, 3, 78, 80
6, 22259, Note_on_c, 3, 78, 0
6, 22260, Note_on_c, 3, 76, 80
6, 22289, Note_on_c, 3, 76, 0
6, 22290, Note_on_c, 3, 75, 80
6, 22319, Note_on_c, 3, 75, 0
6, 22320, Note_on_c, 3, 76, 90
6, 22379, Note_on_c, 3, 76, 0
6, 22560, Note_on_c, 3, 76, 80
6, 22589, Note_on_c, 3, 76, 0
6, 22590, Note_on_c, 3, 74, 80
6, 22619, Note_on_c, 3, 74, 0
6, 22620, Note_on_c, 3, 73, 80
6, 22679, Note_on_c, 3, 73, 0
6, 22740, Note_on_c, 3, 82, 80
6, 22769, Note_on_c, 3, 82, 0
6, 22770, Note_on_c, 3, 83, 80
6, 22799, Note_on_c, 3, 83, 0
6, 22800, Note_on_c, 3, 85, 80
6, 22859, Note_on_c, 3, 85, 0
6, 22920, Note_on_c, 3, 78, 80
6, 22949, Note_on_c, 3, 78, 0
6, 22950, Note_on_c, 3, 76, 80
6, 22979, Note_on_c, 3, 76, 0
6, 22980, Note_on_c, 3, 74, 80
6, 23009, Note_on_c, 3, 74, 0
6, 23010, Note_on_c, 3, 73, 80
6, 23039, Note_on_c, 3, 73, 0
6, 23040, Note_on_c, 3, 71, 90
6, 23099, Note_on_c, 3, 71, 0
6, 23280, Note_on_c, 3, 77, 80
6, 23309, Note_on_c, 3, 77, 0
6, 23310, Note_on_c, 3, 78, 80
6, 23339, Note_on_c, 3, 78, 0
6, 23340, Note_on_c, 3, 80, 80
6, 23399, Note_on_c, 3, 80, 0
6, 23460, Note_on_c, 3, 83, 80
6, 23489, Note_on_c, 3, 83, 0
6, 23490, Note_on_c, 3, 81, 80
6, 23519, Note_on_c, 3, 81, 0
6, 23520, Note_on_c, 3, 80, 80
6, 23579, Note_on_c, 3, 80, 0
6, 23640, Note_on_c, 3, 78, 80
6, 23699, Note_on_c, 3, 78, 0
6, 23700, Note_on_c, 3, 73, 80
6, 23759, Note_on_c, 3, 73, 0
6, 23760, Note_on_c, 3, 73, 90
6, 23879, Note_on_c, 3, 73, 0
6, 24000, Note_on_c, 3, 69, 80
6, 24029, Note_on_c, 3, 69, 0
6, 24030, Note_on_c, 3, 71, 80
6, 24059, Note_on_c, 3, 71, 0
6, 24060, Note_on_c, 3, 72, 80
6, 24119, Note_on_c, 3, 72, 0
6, 24180, Note_on_c, 3, 78, 80
6, 24209, Note_on_c, 3, 78, 0
6, 24210, Note_on_c, 3, 76, 80
6, 24239, Note_on_c, 3, 76, 0
6, 24240, Note_on_c, 3, 75, 80
6, 24299, Note_on_c, 3, 75, 0
6, 24360, Note_on_c, 3, 76, 80
6, 24419, Note_on_c, 3, 76, 0
6, 24420, Note_on_c, 3, 71, 80
6, 24479, Note_on_c, 3, 71, 0
6, 24480, Note_on_c, 3, 67, 90
6, 24599, Note_on_c, 3, 67, 0
6, 24720, Note_on_c, 3, 76, 80
6, 24749, Note_on_c, 3, 76, 0
6, 24750, Note_on_c, 3, 74, 80
6, 24779, Note_on_c, 3, 74, 0
6, 24780, Note_on_c, 3, 73, 80
6, 24839, Note_on_c, 3, 73, 0
6, 24900, Note_on_c, 3, 82, 80
6, 24929, Note_on_c, 3, 82, 0
6, 24930, Note_on_c, 3, 83, 80
6, 24959, Note_on_c, 3, 83, 0
6, 24960, Note_on_c, 3, 85, 80
6, 25019, Note_on_c, 3, 85, 0
6, 25080, Note_on_c, 3, 78, 80
6, 25109, Note_on_c, 3, 78, 0
6, 25110, Note_on_c, 3, 76, 80
6, 25139, Note_on_c, 3, 76, 0
6, 25140, Note_on_c, 3, 74, 80
6, 25169, Note_on_c, 3, 74, 0
6, 25170, Note_on_c, 3, 73, 80
6, 25199, Note_on_c, 3, 73, 0
6, 25200, Note_on_c, 3, 71, 90
6, 25319, Note_on_c, 3, 71, 0
6, 25440, Note_on_c, 3, 71, 80
6, 25469, Note_on_c, 3, 71, 0
6, 25470, Note_on_c, 3, 73, 80
6, 25499, Note_on_c, 3, 73, 0
6, 25500, Note_on_c, 3, 74, 80
6, 25559, Note_on_c, 3, 74, 0
6, 25620, Note_on_c, 3, 83, 80
6, 25649, Note_on_c, 3, 83, 0
6, 25650, Note_on_c, 3, 81, 80
6, 25679, Note_on_c, 3, 81, 0
6, 25680, Note_on_c, 3, 80, 80
6, 25709, Note_on_c, 3, 80, 0
6, 25710, Note_on_c, 3, 78, 80
6, 25739, Note_on_c, 3, 78, 0
6, 25740, Note_on_c, 3, 76, 90
6, 25799, Note_on_c, 3, 76, 0
6, 25800, Note_on_c, 3, 69, 80
6, 25859, Note_on_c, 3, 69, 0
6, 25860, Note_on_c, 3, 76, 80
6, 25919, Note_on_c, 3, 76, 0
6, 25920, Note_on_c, 3, 73, 90
6, 25949, Note_on_c, 3, 73, 0
6, 25950, Note_on_c, 3, 71, 90
6, 25979, Note_on_c, 3, 71, 0
6, 25980, Note_on_c, 3, 74, 80
6, 26009, Note_on_c, 3, 74, 0
6, 26010, Note_on_c, 3, 73, 80
6, 26039, Note_on_c, 3, 73, 0
6, 26040, Note_on_c, 3, 71, 80
6, 26069, Note_on_c, 3, 71, 0
6, 26070, Note_on_c, 3, 69, 80
6, 26099, Note_on_c, 3, 69, 0
6, 26100, Note_on_c, 3, 76, 90
6, 26129, Note_on_c, 3, 76, 0
6, 26130, Note_on_c, 3, 75, 90
6, 26159, Note_on_c, 3, 75, 0
6, 26160, Note_on_c, 3, 78, 80
6, 26189, Note_on_c, 3, 78, 0
6, 26190, Note_on_c, 3, 76, 80
6, 26219, Note_on_c, 3, 76, 0
6, 26220, Note_on_c, 3, 75, 80
6, 26249, Note_on_c, 3, 75, 0
6, 26250, Note_on_c, 3, 73, 80
6, 26279, Note_on_c, 3, 73, 0
6, 26280, Note_on_c, 3, 78, 90
6, 26490, Note_on_c, 3, 78, 0
6, 26490, Note_on_c, 3, 76, 90
6, 26520, Note_on_c, 3, 76, 0
6, 26520, Note_on_c, 3, 79, 80
6, 26550, Note_on_c, 3, 79, 0
6, 26550, Note_on_c, 3, 78, 80
6, 26580, Note_on_c, 3, 78, 0
6, 26580, Note_on_c, 3, 76, 80
6, 26610, Note_on_c, 3, 76, 0
6, 26610, Note_on_c, 3, 75, 80
6, 26640, Note_on_c, 3, 75, 0
6, 26640, Note_on_c, 3, 76, 90
6, 26700, Note_on_c, 3, 76, 0
6, 26700, Note_on_c, 3, 71, 80
6, 26760, Note_on_c, 3, 71, 0
6, 26760, Note_on_c, 3, 75, 80
6, 26820, Note_on_c, 3, 75, 0
6, 26820, Note_on_c, 3, 76, 90
6, 27030, Note_on_c, 3, 76, 0
6, 27030, Note_on_c, 3, 74, 90
6, 27059, Note_on_c, 3, 74, 0
6, 27060, Note_on_c, 3, 73, 80
6, 27089, Note_on_c, 3, 73, 0
6, 27090, Note_on_c, 3, 71, 80
6, 27119, Note_on_c, 3, 71, 0
6, 27120, Note_on_c, 3, 69, 80
6, 27209, Note_on_c, 3, 69, 0
6, 27210, Note_on_c, 3, 73, 90
6, 27239, Note_on_c, 3, 73, 0
6, 27240, Note_on_c, 3, 78, 80
6, 27269, Note_on_c, 3, 78, 0
6, 27270, Note_on_c, 3, 76, 80
6, 27299, Note_on_c, 3, 76, 0
6, 27300, Note_on_c, 3, 74, 80
6, 27329, Note_on_c, 3, 74, 0
6, 27330, Note_on_c, 3, 73, 80
6, 27359, Note_on_c, 3, 73, 0
6, 27360, Note_on_c, 3, 74, 90
6, 27419, Note_on_c, 3, 74, 0
6, 27420, Note_on_c, 3, 69, 80
6, 27479, Note_on_c, 3, 69, 0
6, 27480, Note_on_c, 3, 78, 80
6, 27539, Note_on_c, 3, 78, 0
6, 27540, Note_on_c, 3, 71, 90
6, 27599, Note_on_c, 3, 71, 0
6, 27600, Note_on_c, 3, 76, 80
6, 27659, Note_on_c, 3, 76, 0
6, 27660, Note_on_c, 3, 74, 80
6, 27719, Note_on_c, 3, 74, 0
6, 27720, Note_on_c, 3, 79, 90
6, 27749, Note_on_c, 3, 79, 0
6, 27780, Note_on_c, 3, 78, 80
6, 27839, Note_on_c, 3, 78, 0
6, 27840, Note_on_c, 3, 76, 80
6, 27899, Note_on_c, 3, 76, 0
6, 27900, Note_on_c, 3, 74, 90
6, 27959, Note_on_c, 3, 74, 0
6, 27960, Note_on_c, 3, 76, 80
6, 28019, Note_on_c, 3, 76, 0
6, 28020, Note_on_c, 3, 73, 80
6, 28079, Note_on_c, 3, 73, 0
6, 28080, Note_on_c, 3, 71, 70
6, 28139, Note_on_c, 3, 71, 0
6, 28140, Note_on_c, 3, 74, 70
6, 28199, Note_on_c, 3, 74, 0
6, 28200, Note_on_c, 3, 77, 70
6, 28319, Note_on_c, 3, 77, 0
6, 28320, Note_on_c, 3, 80, 70
6, 28379, Note_on_c, 3, 80, 0
6, 28380, Note_on_c, 3, 83, 70
6, 28469, Note_on_c, 3, 83, 0
6, 28470, Note_on_c, 3, 86, 70
6, 28499, Note_on_c, 3, 86, 0
6, 28500, Note_on_c, 3, 85, 70
6, 28529, Note_on_c, 3, 85, 0
6, 28530, Note_on_c, 3, 82, 70
6, 28559, Note_on_c, 3, 82, 0
6, 28560, Note_on_c, 3, 83, 70
6, 28679, Note_on_c, 3, 83, 0
6, 28680, Note_on_c, 3, 78, 80
6, 28709, Note_on_c, 3, 78, 0
6, 28710, Note_on_c, 3, 76, 80
6, 28739, Note_on_c, 3, 76, 0
6, 28740, Note_on_c, 3, 74, 80
6, 28769, Note_on_c, 3, 74, 0
6, 28770, Note_on_c, 3, 73, 80
6, 28799, Note_on_c, 3, 73, 0
6, 28800, Note_on_c, 3, 71, 90
6, 28919, Note_on_c, 3, 71, 0
6, 29040, Note_on_c, 3, 69, 87
6, 29099, Note_on_c, 3, 69, 0
6, 29100, Note_on_c, 3, 74, 85
6, 29159, Note_on_c, 3, 74, 0
6, 29220, Note_on_c, 3, 69, 82
6, 29279, Note_on_c, 3, 69, 0
6, 29280, Note_on_c, 3, 76, 80
6, 29339, Note_on_c, 3, 76, 0
6, 29400, Note_on_c, 3, 74, 77
6, 29459, Note_on_c, 3, 74, 0
6, 29460, Note_on_c, 3, 73, 75
6, 29519, Note_on_c, 3, 73, 0
6, 29520, Note_on_c, 3, 74, 73
6, 29579, Note_on_c, 3, 74, 0
6, 29580, Note_on_c, 3, 69, 71
6, 29639, Note_on_c, 3, 69, 0
6, 29640, Note_on_c, 3, 69, 80
6, 29699, Note_on_c, 3, 69, 0
6, 29700, Note_on_c, 3, 74, 90
6, 29819, Note_on_c, 3, 74, 0
6, 29820, Note_on_c, 3, 69, 80
6, 29879, Note_on_c, 3, 69, 0
6, 29880, Note_on_c, 3, 76, 90
6, 29999, Note_on_c, 3, 76, 0
6, 30000, Note_on_c, 3, 69, 80
6, 30059, Note_on_c, 3, 69, 0
6, 30060, Note_on_c, 3, 78, 90
6, 30119, Note_on_c, 3, 78, 0
6, 30120, Note_on_c, 3, 76, 80
6, 30149, Note_on_c, 3, 76, 0
6, 30150, Note_on_c, 3, 78, 80
6, 30179, Note_on_c, 3, 78, 0
6, 30180, Note_on_c, 3, 79, 80
6, 30209, Note_on_c, 3, 79, 0
6, 30210, Note_on_c, 3, 76, 80
6, 30239, Note_on_c, 3, 76, 0
6, 30240, Note_on_c, 3, 79, 90
6, 30269, Note_on_c, 3, 79, 0
6, 30270, Note_on_c, 3, 78, 90
6, 30299, Note_on_c, 3, 78, 0
6, 30300, Note_on_c, 3, 76, 80
6, 30329, Note_on_c, 3, 76, 0
6, 30330, Note_on_c, 3, 74, 80
6, 30359, Note_on_c, 3, 74, 0
6, 30360, Note_on_c, 3, 78, 80
6, 30389, Note_on_c, 3, 78, 0
6, 30390, Note_on_c, 3, 74, 80
6, 30419, Note_on_c, 3, 74, 0
6, 30420, Note_on_c, 3, 78, 90
6, 30449, Note_on_c, 3, 78, 0
6, 30450, Note_on_c, 3, 76, 90
6, 30479, Note_on_c, 3, 76, 0
6, 30480, Note_on_c, 3, 74, 80
6, 30509, Note_on_c, 3, 74, 0
6, 30510, Note_on_c, 3, 73, 80
6, 30539, Note_on_c, 3, 73, 0
6, 30540, Note_on_c, 3, 76, 80
6, 30569, Note_on_c, 3, 76, 0
6, 30570, Note_on_c, 3, 73, 80
6, 30599, Note_on_c, 3, 73, 0
6, 30600, Note_on_c, 3, 76, 90
6, 30629, Note_on_c, 3, 76, 0
6, 30630, Note_on_c, 3, 74, 90
6, 30659, Note_on_c, 3, 74, 0
6, 30660, Note_on_c, 3, 73, 80
6, 30689, Note_on_c, 3, 73, 0
6, 30690, Note_on_c, 3, 71, 80
6, 30719, Note_on_c, 3, 71, 0
6, 30720, Note_on_c, 3, 74, 80
6, 30749, Note_on_c, 3, 74, 0
6, 30750, Note_on_c, 3, 71, 80
6, 30779, Note_on_c, 3, 71, 0
6, 30780, Note_on_c, 3, 76, 90
6, 30809, Note_on_c, 3, 76, 0
6, 30840, Note_on_c, 3, 74, 80
6, 30869, Note_on_c, 3, 74, 0
6, 30870, Note_on_c, 3, 73, 80
6, 30899, Note_on_c, 3, 73, 0
6, 30900, Note_on_c, 3, 71, 80
6, 30929, Note_on_c, 3, 71, 0
6, 30930, Note_on_c, 3, 73, 80
6, 30959, Note_on_c, 3, 73, 0
6, 30960, Note_on_c, 3, 69, 90
6, 31019, Note_on_c, 3, 69, 0
6, 31020, Note_on_c, 3, 73, 80
6, 31079, Note_on_c, 3, 73, 0
6, 31080, Note_on_c, 3, 76, 80
6, 31139, Note_on_c, 3, 76, 0
6, 31140, Note_on_c, 3, 74, 90
6, 31199, Note_on_c, 3, 74, 0
6, 31200, Note_on_c, 3, 76, 80
6, 31259, Note_on_c, 3, 76, 0
6, 31260, Note_on_c, 3, 78, 80
6, 31319, Note_on_c, 3, 78, 0
6, 31320, Note_on_c, 3, 76, 90
6, 31379, Note_on_c, 3, 76, 0
6, 31380, Note_on_c, 3, 74, 80
6, 31409, Note_on_c, 3, 74, 0
6, 31410, Note_on_c, 3, 73, 80
6, 31439, Note_on_c, 3, 73, 0
6, 31440, Note_on_c, 3, 76, 80
6, 31499, Note_on_c, 3, 76, 0
6, 31500, Note_on_c, 3, 74, 90
6, 31559, Note_on_c, 3, 74, 0
6, 31560, Note_on_c, 3, 76, 80
6, 31619, Note_on_c, 3, 76, 0
6, 31620, Note_on_c, 3, 73, 80
6, 31679, Note_on_c, 3, 73, 0
6, 31680, Note_on_c, 3, 74, 90
6, 31889, Note_on_c, 3, 74, 0
6, 31890, Note_on_c, 3, 73, 90
6, 31919, Note_on_c, 3, 73, 0
6, 31920, Note_on_c, 3, 71, 80
6, 31949, Note_on_c, 3, 71, 0
6, 31950, Note_on_c, 3, 73, 80
6, 31979, Note_on_c, 3, 73, 0
6, 31980, Note_on_c, 3, 69, 80
6, 32009, Note_on_c, 3, 69, 0
6, 32010, Note_on_c, 3, 71, 80
6, 32039, Note_on_c, 3, 71, 0
6, 32040, Note_on_c, 3, 68, 90
6, 32099, Note_on_c, 3, 68, 0
6, 32100, Note_on_c, 3, 64, 80
6, 32159, Note_on_c, 3, 64, 0
6, 32160, Note_on_c, 3, 68, 80
6, 32219, Note_on_c, 3, 68, 0
6, 32220, Note_on_c, 3, 69, 90
6, 32279, Note_on_c, 3, 69, 0
6, 32280, Note_on_c, 3, 78, 80
6, 32339, Note_on_c, 3, 78, 0
6, 32340, Note_on_c, 3, 76, 80
6, 32459, Note_on_c, 3, 76, 0
6, 32460, Note_on_c, 3, 74, 80
6, 32489, Note_on_c, 3, 74, 0
6, 32490, Note_on_c, 3, 73, 80
6, 32519, Note_on_c, 3, 73, 0
6, 32520, Note_on_c, 3, 71, 80
6, 32549, Note_on_c, 3, 71, 0
6, 32550, Note_on_c, 3, 69, 80
6, 32579, Note_on_c, 3, 69, 0
6, 32580, Note_on_c, 3, 74, 90
6, 32699, Note_on_c, 3, 74, 0
6, 32700, Note_on_c, 3, 69, 80
6, 32759, Note_on_c, 3, 69, 0
6, 32760, Note_on_c, 3, 76, 90
6, 32879, Note_on_c, 3, 76, 0
6, 32880, Note_on_c, 3, 69, 80
6, 32939, Note_on_c, 3, 69, 0
6, 32940, Note_on_c, 3, 78, 90
6, 32999, Note_on_c, 3, 78, 0
6, 33000, Note_on_c, 3, 76, 80
6, 33029, Note_on_c, 3, 76, 0
6, 33030, Note_on_c, 3, 78, 80
6, 33059, Note_on_c, 3, 78, 0
6, 33060, Note_on_c, 3, 79, 80
6, 33089, Note_on_c, 3, 79, 0
6, 33090, Note_on_c, 3, 76, 80
6, 33119, Note_on_c, 3, 76, 0
6, 33120, Note_on_c, 3, 79, 90
6, 33149, Note_on_c, 3, 79, 0
6, 33150, Note_on_c, 3, 78, 90
6, 33179, Note_on_c, 3, 78, 0
6, 33180, Note_on_c, 3, 76, 80
6, 33209, Note_on_c, 3, 76, 0
6, 33210, Note_on_c, 3, 74, 80
6, 33239, Note_on_c, 3, 74, 0
6, 33360, Note_on_c, 3, 67, 80
6, 33419, Note_on_c, 3, 67, 0
6, 33420, Note_on_c, 3, 71, 80
6, 33479, Note_on_c, 3, 71, 0
6, 33480, Note_on_c, 3, 73, 90
6, 33539, Note_on_c, 3, 73, 0
6, 33540, Note_on_c, 3, 74, 80
6, 33599, Note_on_c, 3, 74, 0
6, 33600, Note_on_c, 3, 78, 80
6, 33659, Note_on_c, 3, 78, 0
6, 33660, Note_on_c, 3, 79, 90
6, 33719, Note_on_c, 3, 79, 0
6, 33720, Note_on_c, 3, 73, 80
6, 33779, Note_on_c, 3, 73, 0
6, 33780, Note_on_c, 3, 74, 80
6, 33899, Note_on_c, 3, 74, 0
6, 33900, Note_on_c, 3, 73, 80
6, 33959, Note_on_c, 3, 73, 0
6, 33960, Note_on_c, 3, 71, 80
6, 34049, Note_on_c, 3, 71, 0
6, 34050, Note_on_c, 3, 68, 90
6, 34079, Note_on_c, 3, 68, 0
6, 34080, Note_on_c, 3, 69, 80
6, 34139, Note_on_c, 3, 69, 0
6, 34200, Note_on_c, 3, 64, 90
6, 34229, Note_on_c, 3, 64, 0
6, 34230, Note_on_c, 3, 62, 90
6, 34259, Note_on_c, 3, 62, 0
6, 34260, Note_on_c, 3, 64, 80
6, 34319, Note_on_c, 3, 64, 0
6, 34470, Note_on_c, 3, 71, 80
6, 34499, Note_on_c, 3, 71, 0
6, 34500, Note_on_c, 3, 73, 80
6, 34529, Note_on_c, 3, 73, 0
6, 34530, Note_on_c, 3, 74, 80
6, 34559, Note_on_c, 3, 74, 0
6, 34560, Note_on_c, 3, 76, 90
6, 34620, Note_on_c, 3, 76, 0
6, 34620, Note_on_c, 3, 68, 80
6, 34679, Note_on_c, 3, 68, 0
6, 34680, Note_on_c, 3, 69, 80
6, 34739, Note_on_c, 3, 69, 0
6, 34800, Note_on_c, 3, 64, 80
6, 34859, Note_on_c, 3, 64, 0
6, 34860, Note_on_c, 3, 68, 80
6, 34919, Note_on_c, 3, 68, 0
6, 34920, Note_on_c, 3, 69, 90
6, 34979, Note_on_c, 3, 69, 0
6, 34980, Note_on_c, 3, 64, 80
6, 35039, Note_on_c, 3, 64, 0
6, 35160, Note_on_c, 3, 67, 80
6, 35219, Note_on_c, 3, 67, 0
6, 35220, Note_on_c, 3, 71, 80
6, 35279, Note_on_c, 3, 71, 0
6, 35280, Note_on_c, 3, 76, 90
6, 35339, Note_on_c, 3, 76, 0
6, 35340, Note_on_c, 3, 69, 80
6, 35399, Note_on_c, 3, 69, 0
6, 35520, Note_on_c, 3, 67, 80
6, 35579, Note_on_c, 3, 67, 0
6, 35580, Note_on_c, 3, 71, 80
6, 35639, Note_on_c, 3, 71, 0
6, 35640, Note_on_c, 3, 73, 90
6, 35699, Note_on_c, 3, 73, 0
6, 35700, Note_on_c, 3, 74, 80
6, 35759, Note_on_c, 3, 74, 0
6, 35760, Note_on_c, 3, 78, 80
6, 35819, Note_on_c, 3, 78, 0
6, 35820, Note_on_c, 3, 79, 90
6, 35879, Note_on_c, 3, 79, 0
6, 35880, Note_on_c, 3, 67, 80
6, 35939, Note_on_c, 3, 67, 0
6, 35940, Note_on_c, 3, 69, 80
6, 36029, Note_on_c, 3, 69, 0
6, 36030, Note_on_c, 3, 67, 90
6, 36059, Note_on_c, 3, 67, 0
6, 36060, Note_on_c, 3, 69, 80
6, 36119, Note_on_c, 3, 69, 0
6, 36240, Note_on_c, 3, 71, 80
6, 36299, Note_on_c, 3, 71, 0
6, 36300, Note_on_c, 3, 73, 80
6, 36359, Note_on_c, 3, 73, 0
6, 36420, Note_on_c, 3, 69, 80
6, 36479, Note_on_c, 3, 69, 0
6, 36480, Note_on_c, 3, 71, 80
6, 36539, Note_on_c, 3, 71, 0
6, 36600, Note_on_c, 3, 69, 80
6, 36659, Note_on_c, 3, 69, 0
6, 36660, Note_on_c, 3, 67, 80
6, 36719, Note_on_c, 3, 67, 0
6, 36840, Note_on_c, 3, 76, 80
6, 36899, Note_on_c, 3, 76, 0
6, 36900, Note_on_c, 3, 78, 90
6, 36929, Note_on_c, 3, 78, 0
6, 36960, Note_on_c, 3, 83, 80
6, 36989, Note_on_c, 3, 83, 0
6, 36990, Note_on_c, 3, 81, 80
6, 37019, Note_on_c, 3, 81, 0
6, 37020, Note_on_c, 3, 79, 80
6, 37049, Note_on_c, 3, 79, 0
6, 37050, Note_on_c, 3, 78, 80
6, 37079, Note_on_c, 3, 78, 0
6, 37080, Note_on_c, 3, 76, 90
6, 37109, Note_on_c, 3, 76, 0
6, 37140, Note_on_c, 3, 81, 80
6, 37169, Note_on_c, 3, 81, 0
6, 37170, Note_on_c, 3, 79, 80
6, 37199, Note_on_c, 3, 79, 0
6, 37200, Note_on_c, 3, 78, 80
6, 37229, Note_on_c, 3, 78, 0
6, 37230, Note_on_c, 3, 76, 80
6, 37259, Note_on_c, 3, 76, 0
6, 37260, Note_on_c, 3, 74, 90
6, 37319, Note_on_c, 3, 74, 0
6, 37320, Note_on_c, 3, 79, 80
6, 37379, Note_on_c, 3, 79, 0
6, 37380, Note_on_c, 3, 78, 80
6, 37439, Note_on_c, 3, 78, 0
6, 37440, Note_on_c, 3, 76, 90
6, 37529, Note_on_c, 3, 76, 0
6, 37530, Note_on_c, 3, 74, 80
6, 37559, Note_on_c, 3, 74, 0
6, 37560, Note_on_c, 3, 73, 80
6, 37589, Note_on_c, 3, 73, 0
6, 37590, Note_on_c, 3, 71, 80
6, 37619, Note_on_c, 3, 71, 0
6, 37620, Note_on_c, 3, 69, 90
6, 37679, Note_on_c, 3, 69, 0
6, 37680, Note_on_c, 3, 74, 80
6, 37739, Note_on_c, 3, 74, 0
6, 37740, Note_on_c, 3, 73, 80
6, 37799, Note_on_c, 3, 73, 0
6, 37800, Note_on_c, 3, 78, 90
6, 37829, Note_on_c, 3, 78, 0
6, 37860, Note_on_c, 3, 76, 80
6, 37919, Note_on_c, 3, 76, 0
6, 37920, Note_on_c, 3, 74, 80
6, 37979, Note_on_c, 3, 74, 0
6, 37980, Note_on_c, 3, 73, 90
6, 38039, Note_on_c, 3, 73, 0
6, 38040, Note_on_c, 3, 74, 80
6, 38099, Note_on_c, 3, 74, 0
6, 38100, Note_on_c, 3, 71, 80
6, 38159, Note_on_c, 3, 71, 0
6, 38160, Note_on_c, 3, 69, 70
6, 38219, Note_on_c, 3, 69, 0
6, 38220, Note_on_c, 3, 72, 70
6, 38279, Note_on_c, 3, 72, 0
6, 38280, Note_on_c, 3, 75, 70
6, 38399, Note_on_c, 3, 75, 0
6, 38400, Note_on_c, 3, 78, 70
6, 38459, Note_on_c, 3, 78, 0
6, 38460, Note_on_c, 3, 81, 70
6, 38549, Note_on_c, 3, 81, 0
6, 38550, Note_on_c, 3, 84, 70
6, 38579, Note_on_c, 3, 84, 0
6, 38580, Note_on_c, 3, 83, 70
6, 38609, Note_on_c, 3, 83, 0
6, 38610, Note_on_c, 3, 80, 70
6, 38639, Note_on_c, 3, 80, 0
6, 38640, Note_on_c, 3, 81, 70
6, 38759, Note_on_c, 3, 81, 0
6, 38760, Note_on_c, 3, 76, 80
6, 38789, Note_on_c, 3, 76, 0
6, 38790, Note_on_c, 3, 74, 80
6, 38819, Note_on_c, 3, 74, 0
6, 38820, Note_on_c, 3, 73, 80
6, 38849, Note_on_c, 3, 73, 0
6, 38850, Note_on_c, 3, 71, 80
6, 38879, Note_on_c, 3, 71, 0
6, 38880, Note_on_c, 3, 69, 90
6, 38999, Note_on_c, 3, 69, 0
6, 39120, Note_on_c, 3, 75, 80
6, 39149, Note_on_c, 3, 75, 0
6, 39150, Note_on_c, 3, 76, 80
6, 39179, Note_on_c, 3, 76, 0
6, 39180, Note_on_c, 3, 78, 80
6, 39239, Note_on_c, 3, 78, 0
6, 39240, Note_on_c, 3, 71, 90
6, 39269, Note_on_c, 3, 71, 0
6, 39270, Note_on_c, 3, 73, 90
6, 39299, Note_on_c, 3, 73, 0
6, 39300, Note_on_c, 3, 75, 80
6, 39329, Note_on_c, 3, 75, 0
6, 39330, Note_on_c, 3, 76, 80
6, 39359, Note_on_c, 3, 76, 0
6, 39360, Note_on_c, 3, 78, 80
6, 39449, Note_on_c, 3, 78, 0
6, 39450, Note_on_c, 3, 75, 90
6, 39479, Note_on_c, 3, 75, 0
6, 39480, Note_on_c, 3, 83, 80
6, 39509, Note_on_c, 3, 83, 0
6, 39510, Note_on_c, 3, 81, 80
6, 39539, Note_on_c, 3, 81, 0
6, 39540, Note_on_c, 3, 79, 80
6, 39569, Note_on_c, 3, 79, 0
6, 39570, Note_on_c, 3, 78, 80
6, 39599, Note_on_c, 3, 78, 0
6, 39600, Note_on_c, 3, 81, 90
6, 39629, Note_on_c, 3, 81, 0
6, 39630, Note_on_c, 3, 79, 90
6, 39659, Note_on_c, 3, 79, 0
6, 39660, Note_on_c, 3, 78, 80
6, 39689, Note_on_c, 3, 78, 0
6, 39690, Note_on_c, 3, 76, 80
6, 39719, Note_on_c, 3, 76, 0
6, 39840, Note_on_c, 3, 76, 80
6, 39869, Note_on_c, 3, 76, 0
6, 39870, Note_on_c, 3, 74, 80
6, 39899, Note_on_c, 3, 74, 0
6, 39900, Note_on_c, 3, 73, 80
6, 39929, Note_on_c, 3, 73, 0
6, 39930, Note_on_c, 3, 71, 80
6, 39959, Note_on_c, 3, 71, 0
6, 39960, Note_on_c, 3, 69, 90
6, 39989, Note_on_c, 3, 69, 0
6, 39990, Note_on_c, 3, 71, 90
6, 40019, Note_on_c, 3, 71, 0
6, 40020, Note_on_c, 3, 73, 80
6, 40049, Note_on_c, 3, 73, 0
6, 40050, Note_on_c, 3, 74, 80
6, 40079, Note_on_c, 3, 74, 0
6, 40080, Note_on_c, 3, 76, 80
6, 40169, Note_on_c, 3, 76, 0
6, 40170, Note_on_c, 3, 73, 90
6, 40199, Note_on_c, 3, 73, 0
6, 40200, Note_on_c, 3, 81, 80
6, 40229, Note_on_c, 3, 81, 0
6, 40230, Note_on_c, 3, 79, 80
6, 40259, Note_on_c, 3, 79, 0
6, 40260, Note_on_c, 3, 78, 80
6, 40289, Note_on_c, 3, 78, 0
6, 40290, Note_on_c, 3, 76, 80
6, 40319, Note_on_c, 3, 76, 0
6, 40320, Note_on_c, 3, 79, 90
6, 40349, Note_on_c, 3, 79, 0
6, 40350, Note_on_c, 3, 78, 90
6, 40379, Note_on_c, 3, 78, 0
6, 40380, Note_on_c, 3, 76, 80
6, 40409, Note_on_c, 3, 76, 0
6, 40410, Note_on_c, 3, 74, 80
6, 40439, Note_on_c, 3, 74, 0
6, 40440, Note_on_c, 3, 81, 80
6, 40469, Note_on_c, 3, 81, 0
6, 40470, Note_on_c, 3, 69, 80
6, 40499, Note_on_c, 3, 69, 0
6, 40500, Note_on_c, 3, 71, 90
6, 40529, Note_on_c, 3, 71, 0
6, 40530, Note_on_c, 3, 73, 90
6, 40559, Note_on_c, 3, 73, 0
6, 40560, Note_on_c, 3, 74, 80
6, 40589, Note_on_c, 3, 74, 0
6, 40590, Note_on_c, 3, 76, 80
6, 40619, Note_on_c, 3, 76, 0
6, 40620, Note_on_c, 3, 73, 80
6, 40649, Note_on_c, 3, 73, 0
6, 40650, Note_on_c, 3, 74, 80
6, 40679, Note_on_c, 3, 74, 0
6, 40680, Note_on_c, 3, 69, 90
6, 40709, Note_on_c, 3, 69, 0
6, 40710, Note_on_c, 3, 73, 90
6, 40739, Note_on_c, 3, 73, 0
6, 40740, Note_on_c, 3, 74, 80
6, 40769, Note_on_c, 3, 74, 0
6, 40770, Note_on_c, 3, 76, 80
6, 40799, Note_on_c, 3, 76, 0
6, 40800, Note_on_c, 3, 73, 80
6, 40829, Note_on_c, 3, 73, 0
6, 40830, Note_on_c, 3, 74, 80
6, 40859, Note_on_c, 3, 74, 0
6, 40860, Note_on_c, 3, 67, 90
6, 40889, Note_on_c, 3, 67, 0
6, 40890, Note_on_c, 3, 73, 90
6, 40919, Note_on_c, 3, 73, 0
6, 40920, Note_on_c, 3, 74, 80
6, 40949, Note_on_c, 3, 74, 0
6, 40950, Note_on_c, 3, 76, 80
6, 40979, Note_on_c, 3, 76, 0
6, 40980, Note_on_c, 3, 73, 80
6, 41009, Note_on_c, 3, 73, 0
6, 41010, Note_on_c, 3, 74, 80
6, 41039, Note_on_c, 3, 74, 0
6, 41040, Note_on_c, 3, 67, 90
6, 41069, Note_on_c, 3, 67, 0
6, 41070, Note_on_c, 3, 66, 90
6, 41099, Note_on_c, 3, 66, 0
6, 41100, Note_on_c, 3, 64, 80
6, 41129, Note_on_c, 3, 64, 0
6, 41130, Note_on_c, 3, 62, 80
6, 41159, Note_on_c, 3, 62, 0
6, 41160, Note_on_c, 3, 69, 80
6, 41189, Note_on_c, 3, 69, 0
6, 41190, Note_on_c, 3, 66, 80
6, 41219, Note_on_c, 3, 66, 0
6, 41220, Note_on_c, 3, 72, 90
6, 41249, Note_on_c, 3, 72, 0
6, 41250, Note_on_c, 3, 71, 90
6, 41279, Note_on_c, 3, 71, 0
6, 41280, Note_on_c, 3, 69, 80
6, 41309, Note_on_c, 3, 69, 0
6, 41310, Note_on_c, 3, 68, 80
6, 41339, Note_on_c, 3, 68, 0
6, 41340, Note_on_c, 3, 74, 80
6, 41369, Note_on_c, 3, 74, 0
6, 41370, Note_on_c, 3, 71, 80
6, 41399, Note_on_c, 3, 71, 0
6, 41400, Note_on_c, 3, 74, 90
6, 41429, Note_on_c, 3, 74, 0
6, 41430, Note_on_c, 3, 73, 90
6, 41459, Note_on_c, 3, 73, 0
6, 41460, Note_on_c, 3, 71, 80
6, 41489, Note_on_c, 3, 71, 0
6, 41490, Note_on_c, 3, 69, 80
6, 41519, Note_on_c, 3, 69, 0
6, 41520, Note_on_c, 3, 81, 80
6, 41549, Note_on_c, 3, 81, 0
6, 41550, Note_on_c, 3, 76, 80
6, 41579, Note_on_c, 3, 76, 0
6, 41580, Note_on_c, 3, 74, 90
6, 41609, Note_on_c, 3, 74, 0
6, 41610, Note_on_c, 3, 73, 90
6, 41639, Note_on_c, 3, 73, 0
6, 41640, Note_on_c, 3, 71, 80
6, 41669, Note_on_c, 3, 71, 0
6, 41670, Note_on_c, 3, 70, 80
6, 41699, Note_on_c, 3, 70, 0
6, 41700, Note_on_c, 3, 76, 80
6, 41729, Note_on_c, 3, 76, 0
6, 41730, Note_on_c, 3, 73, 80
6, 41759, Note_on_c, 3, 73, 0
6, 41760, Note_on_c, 3, 76, 90
6, 41789, Note_on_c, 3, 76, 0
6, 41790, Note_on_c, 3, 74, 90
6, 41819, Note_on_c, 3, 74, 0
6, 41820, Note_on_c, 3, 73, 80
6, 41849, Note_on_c, 3, 73, 0
6, 41850, Note_on_c, 3, 71, 80
6, 41879, Note_on_c, 3, 71, 0
6, 41880, Note_on_c, 3, 83, 80
6, 41909, Note_on_c, 3, 83, 0
6, 41910, Note_on_c, 3, 78, 80
6, 41939, Note_on_c, 3, 78, 0
6, 41940, Note_on_c, 3, 76, 90
6, 41969, Note_on_c, 3, 76, 0
6, 41970, Note_on_c, 3, 74, 90
6, 41999, Note_on_c, 3, 74, 0
6, 42000, Note_on_c, 3, 73, 80
6, 42029, Note_on_c, 3, 73, 0
6, 42030, Note_on_c, 3, 74, 80
6, 42059, Note_on_c, 3, 74, 0
6, 42060, Note_on_c, 3, 79, 80
6, 42089, Note_on_c, 3, 79, 0
6, 42090, Note_on_c, 3, 74, 80
6, 42119, Note_on_c, 3, 74, 0
6, 42120, Note_on_c, 3, 83, 90
6, 42149, Note_on_c, 3, 83, 0
6, 42150, Note_on_c, 3, 74, 90
6, 42179, Note_on_c, 3, 74, 0
6, 42180, Note_on_c, 3, 73, 80
6, 42209, Note_on_c, 3, 73, 0
6, 42210, Note_on_c, 3, 74, 80
6, 42239, Note_on_c, 3, 74, 0
6, 42240, Note_on_c, 3, 80, 80
6, 42269, Note_on_c, 3, 80, 0
6, 42270, Note_on_c, 3, 74, 80
6, 42299, Note_on_c, 3, 74, 0
6, 42300, Note_on_c, 3, 81, 90
6, 42329, Note_on_c, 3, 81, 0
6, 42330, Note_on_c, 3, 74, 90
6, 42359, Note_on_c, 3, 74, 0
6, 42360, Note_on_c, 3, 83, 80
6, 42389, Note_on_c, 3, 83, 0
6, 42390, Note_on_c, 3, 74, 80
6, 42419, Note_on_c, 3, 74, 0
6, 42420, Note_on_c, 3, 85, 80
6, 42449, Note_on_c, 3, 85, 0
6, 42450, Note_on_c, 3, 74, 80
6, 42479, Note_on_c, 3, 74, 0
6, 42480, Note_on_c, 3, 86, 70
6, 42539, Note_on_c, 3, 86, 0
6, 42540, Note_on_c, 3, 83, 70
6, 42599, Note_on_c, 3, 83, 0
6, 42600, Note_on_c, 3, 80, 70
6, 42719, Note_on_c, 3, 80, 0
6, 42720, Note_on_c, 3, 77, 70
6, 42779, Note_on_c, 3, 77, 0
6, 42780, Note_on_c, 3, 74, 70
6, 42869, Note_on_c, 3, 74, 0
6, 42870, Note_on_c, 3, 77, 70
6, 42899, Note_on_c, 3, 77, 0
6, 42900, Note_on_c, 3, 76, 70
6, 42929, Note_on_c, 3, 76, 0
6, 42930, Note_on_c, 3, 73, 70
6, 42959, Note_on_c, 3, 73, 0
6, 42960, Note_on_c, 3, 74, 80
6, 43079, Note_on_c, 3, 74, 0
6, 43080, Note_on_c, 3, 81, 80
6, 43109, Note_on_c, 3, 81, 0
6, 43110, Note_on_c, 3, 79, 80
6, 43139, Note_on_c, 3, 79, 0
6, 43140, Note_on_c, 3, 78, 80
6, 43169, Note_on_c, 3, 78, 0
6, 43170, Note_on_c, 3, 76, 80
6, 43199, Note_on_c, 3, 76, 0
6, 43200, Note_on_c, 3, 74, 90
6, 43319, Note_on_c, 3, 74, 0
6, 54360, Note_on_c, 3, 69, 64
6, 54420, Note_on_c, 3, 69, 0
6, 54420, Note_on_c, 3, 71, 64
6, 54450, Note_on_c, 3, 71, 0
6, 54450, Note_on_c, 3, 73, 64
6, 54480, Note_on_c, 3, 73, 0
6, 54480, Note_on_c, 3, 74, 64
6, 54510, Note_on_c, 3, 74, 0
6, 54510, Note_on_c, 3, 73, 64
6, 54540, Note_on_c, 3, 73, 0
6, 54540, Note_on_c, 3, 71, 64
6, 54570, Note_on_c, 3, 71, 0
6, 54570, Note_on_c, 3, 69, 64
6, 54600, Note_on_c, 3, 69, 0
6, 54600, Note_on_c, 3, 78, 64
6, 54660, Note_on_c, 3, 78, 0
6, 54720, Note_on_c, 3, 76, 64
6, 54780, Note_on_c, 3, 76, 0
6, 54840, Note_on_c, 3, 74, 64
6, 54855, Note_on_c, 3, 74, 0
6, 54855, Note_on_c, 3, 76, 64
6, 54870, Note_on_c, 3, 76, 0
6, 54870, Note_on_c, 3, 74, 64
6, 54960, Note_on_c, 3, 74, 0
6, 54960, Note_on_c, 3, 73, 64
6, 55020, Note_on_c, 3, 73, 0
6, 55020, Note_on_c, 3, 71, 64
6, 55140, Note_on_c, 3, 71, 0
6, 55140, Note_on_c, 3, 73, 64
6, 55170, Note_on_c, 3, 73, 0
6, 55170, Note_on_c, 3, 74, 64
6, 55200, Note_on_c, 3, 74, 0
6, 55200, Note_on_c, 3, 68, 64
6, 55260, Note_on_c, 3, 68, 0
6, 55260, Note_on_c, 3, 69, 64
6, 55380, Note_on_c, 3, 69, 0
6, 55380, Note_on_c, 3, 71, 64
6, 55440, Note_on_c, 3, 71, 0
6, 55440, Note_on_c, 3, 73, 64
6, 55470, Note_on_c, 3, 73, 0
6, 55470, Note_on_c, 3, 69, 64
6, 55500, Note_on_c, 3, 69, 0
6, 55500, Note_on_c, 3, 74, 64
6, 55530, Note_on_c, 3, 74, 0
6, 55560, Note_on_c, 3, 73, 64
6, 55680, Note_on_c, 3, 73, 0
6, 55680, Note_on_c, 3, 71, 64
6, 55800, Note_on_c, 3, 71, 0
6, 55800, Note_on_c, 3, 69, 52
6, 55860, Note_on_c, 3, 69, 0
6, 55860, Note_on_c, 3, 71, 52
6, 55890, Note_on_c, 3, 71, 0
6, 55890, Note_on_c, 3, 73, 52
6, 55920, Note_on_c, 3, 73, 0
6, 55920, Note_on_c, 3, 74, 52
6, 55950, Note_on_c, 3, 74, 0
6, 55950, Note_on_c, 3, 73, 52
6, 55980, Note_on_c, 3, 73, 0
6, 55980, Note_on_c, 3, 71, 52
6, 56010, Note_on_c, 3, 71, 0
6, 56010, Note_on_c, 3, 69, 52
6, 56040, Note_on_c, 3, 69, 0
6, 56040, Note_on_c, 3, 78, 52
6, 56100, Note_on_c, 3, 78, 0
6, 56160, Note_on_c, 3, 76, 52
6, 56220, Note_on_c, 3, 76, 0
6, 56280, Note_on_c, 3, 74, 52
6, 56295, Note_on_c, 3, 74, 0
6, 56295, Note_on_c, 3, 76, 52
6, 56310, Note_on_c, 3, 76, 0
6, 56310, Note_on_c, 3, 74, 52
6, 56400, Note_on_c, 3, 74, 0
6, 56400, Note_on_c, 3, 73, 52
6, 56460, Note_on_c, 3, 73, 0
6, 56460, Note_on_c, 3, 71, 52
6, 56580, Note_on_c, 3, 71, 0
6, 56580, Note_on_c, 3, 73, 52
6, 56610, Note_on_c, 3, 73, 0
6, 56610, Note_on_c, 3, 74, 52
6, 56640, Note_on_c, 3, 74, 0
6, 56640, Note_on_c, 3, 68, 52
6, 56700, Note_on_c, 3, 68, 0
6, 56700, Note_on_c, 3, 69, 52
6, 56820, Note_on_c, 3, 69, 0
6, 56820, Note_on_c, 3, 71, 52
6, 56880, Note_on_c, 3, 71, 0
6, 56880, Note_on_c, 3, 73, 52
6, 56910, Note_on_c, 3, 73, 0
6, 56910, Note_on_c, 3, 69, 52
6, 56940, Note_on_c, 3, 69, 0
6, 56940, Note_on_c, 3, 74, 52
6, 56970, Note_on_c, 3, 74, 0
6, 57000, Note_on_c, 3, 73, 52
6, 57120, Note_on_c, 3, 73, 0
6, 57120, Note_on_c, 3, 71, 52
6, 57240, Note_on_c, 3, 71, 0
6, 57240, Note_on_c, 3, 75, 64
6, 57270, Note_on_c, 3, 75, 0
6, 57270, Note_on_c, 3, 76, 64
6, 57300, Note_on_c, 3, 76, 0
6, 57300, Note_on_c, 3, 78, 64
6, 57330, Note_on_c, 3, 78, 0
6, 57330, Note_on_c, 3, 75, 64
6, 57360, Note_on_c, 3, 75, 0
6, 57360, Note_on_c, 3, 79, 64
6, 57390, Note_on_c, 3, 79, 0
6, 57390, Note_on_c, 3, 78, 64
6, 57420, Note_on_c, 3, 78, 0
6, 57420, Note_on_c, 3, 76, 64
6, 57510, Note_on_c, 3, 76, 0
6, 57510, Note_on_c, 3, 74, 64
6, 57540, Note_on_c, 3, 74, 0
6, 57540, Note_on_c, 3, 73, 64
6, 57600, Note_on_c, 3, 73, 0
6, 57600, Note_on_c, 3, 71, 64
6, 57630, Note_on_c, 3, 71, 0
6, 57630, Note_on_c, 3, 73, 64
6, 57660, Note_on_c, 3, 73, 0
6, 57660, Note_on_c, 3, 70, 64
6, 57720, Note_on_c, 3, 70, 0
6, 57720, Note_on_c, 3, 69, 64
6, 57780, Note_on_c, 3, 69, 0
6, 57780, Note_on_c, 3, 67, 64
6, 57900, Note_on_c, 3, 67, 0
6, 57900, Note_on_c, 3, 66, 64
6, 57930, Note_on_c, 3, 66, 0
6, 57930, Note_on_c, 3, 64, 64
6, 57960, Note_on_c, 3, 64, 0
6, 57960, Note_on_c, 3, 63, 64
6, 57990, Note_on_c, 3, 63, 0
6, 57990, Note_on_c, 3, 64, 64
6, 58020, Note_on_c, 3, 64, 0
6, 58020, Note_on_c, 3, 66, 64
6, 58050, Note_on_c, 3, 66, 0
6, 58050, Note_on_c, 3, 68, 64
6, 58080, Note_on_c, 3, 68, 0
6, 58080, Note_on_c, 3, 69, 64
6, 58110, Note_on_c, 3, 69, 0
6, 58110, Note_on_c, 3, 73, 64
6, 58140, Note_on_c, 3, 73, 0
6, 58140, Note_on_c, 3, 71, 64
6, 58260, Note_on_c, 3, 71, 0
6, 58260, Note_on_c, 3, 64, 64
6, 58320, Note_on_c, 3, 64, 0
6, 58320, Note_on_c, 3, 68, 64
6, 58350, Note_on_c, 3, 68, 0
6, 58350, Note_on_c, 3, 66, 64
6, 58380, Note_on_c, 3, 66, 0
6, 58380, Note_on_c, 3, 64, 64
6, 58410, Note_on_c, 3, 64, 0
6, 58410, Note_on_c, 3, 63, 64
6, 58440, Note_on_c, 3, 63, 0
6, 58440, Note_on_c, 3, 64, 64
6, 58680, Note_on_c, 3, 64, 0
6, 58920, Note_on_c, 3, 69, 64
6, 58980, Note_on_c, 3, 69, 0
6, 58980, Note_on_c, 3, 71, 64
6, 59010, Note_on_c, 3, 71, 0
6, 59010, Note_on_c, 3, 73, 64
6, 59040, Note_on_c, 3, 73, 0
6, 59040, Note_on_c, 3, 74, 64
6, 59070, Note_on_c, 3, 74, 0
6, 59070, Note_on_c, 3, 73, 64
6, 59100, Note_on_c, 3, 73, 0
6, 59100, Note_on_c, 3, 71, 64
6, 59130, Note_on_c, 3, 71, 0
6, 59130, Note_on_c, 3, 69, 64
6, 59160, Note_on_c, 3, 69, 0
6, 59160, Note_on_c, 3, 78, 64
6, 59220, Note_on_c, 3, 78, 0
6, 59220, Note_on_c, 3, 76, 64
6, 59340, Note_on_c, 3, 76, 0
6, 59340, Note_on_c, 3, 78, 64
6, 59370, Note_on_c, 3, 78, 0
6, 59370, Note_on_c, 3, 76, 64
6, 59400, Note_on_c, 3, 76, 0
6, 59400, Note_on_c, 3, 74, 64
6, 59430, Note_on_c, 3, 74, 0
6, 59430, Note_on_c, 3, 73, 64
6, 59460, Note_on_c, 3, 73, 0
6, 59460, Note_on_c, 3, 71, 64
6, 59490, Note_on_c, 3, 71, 0
6, 59490, Note_on_c, 3, 69, 64
6, 59520, Note_on_c, 3, 69, 0
6, 59520, Note_on_c, 3, 76, 64
6, 59580, Note_on_c, 3, 76, 0
6, 59700, Note_on_c, 3, 74, 64
6, 59760, Note_on_c, 3, 74, 0
6, 59760, Note_on_c, 3, 73, 64
6, 59820, Note_on_c, 3, 73, 0
6, 59820, Note_on_c, 3, 71, 64
6, 59880, Note_on_c, 3, 71, 0
6, 59880, Note_on_c, 3, 69, 64
6, 60000, Note_on_c, 3, 69, 0
6, 60000, Note_on_c, 3, 68, 64
6, 60120, Note_on_c, 3, 68, 0
6, 60120, Note_on_c, 3, 69, 52
6, 60180, Note_on_c, 3, 69, 0
6, 60180, Note_on_c, 3, 71, 52
6, 60210, Note_on_c, 3, 71, 0
6, 60210, Note_on_c, 3, 73, 52
6, 60240, Note_on_c, 3, 73, 0
6, 60240, Note_on_c, 3, 74, 52
6, 60270, Note_on_c, 3, 74, 0
6, 60270, Note_on_c, 3, 73, 52
6, 60300, Note_on_c, 3, 73, 0
6, 60300, Note_on_c, 3, 71, 52
6, 60330, Note_on_c, 3, 71, 0
6, 60330, Note_on_c, 3, 69, 52
6, 60360, Note_on_c, 3, 69, 0
6, 60360, Note_on_c, 3, 78, 52
6, 60420, Note_on_c, 3, 78, 0
6, 60480, Note_on_c, 3, 76, 52
6, 60540, Note_on_c, 3, 76, 0
6, 60600, Note_on_c, 3, 74, 52
6, 60615, Note_on_c, 3, 74, 0
6, 60615, Note_on_c, 3, 76, 52
6, 60630, Note_on_c, 3, 76, 0
6, 60630, Note_on_c, 3, 74, 52
6, 60720, Note_on_c, 3, 74, 0
6, 60720, Note_on_c, 3, 73, 52
6, 60780, Note_on_c, 3, 73, 0
6, 60780, Note_on_c, 3, 71, 52
6, 60900, Note_on_c, 3, 71, 0
6, 60900, Note_on_c, 3, 73, 52
6, 60930, Note_on_c, 3, 73, 0
6, 60930, Note_on_c, 3, 74, 52
6, 60960, Note_on_c, 3, 74, 0
6, 60960, Note_on_c, 3, 68, 52
6, 61020, Note_on_c, 3, 68, 0
6, 61020, Note_on_c, 3, 69, 52
6, 61140, Note_on_c, 3, 69, 0
6, 61140, Note_on_c, 3, 71, 52
6, 61200, Note_on_c, 3, 71, 0
6, 61200, Note_on_c, 3, 73, 52
6, 61230, Note_on_c, 3, 73, 0
6, 61230, Note_on_c, 3, 69, 52
6, 61260, Note_on_c, 3, 69, 0
6, 61260, Note_on_c, 3, 74, 52
6, 61290, Note_on_c, 3, 74, 0
6, 61320, Note_on_c, 3, 73, 52
6, 61440, Note_on_c, 3, 73, 0
6, 61440, Note_on_c, 3, 71, 52
6, 61560, Note_on_c, 3, 71, 0
6, 61560, Note_on_c, 3, 75, 52
6, 61590, Note_on_c, 3, 75, 0
6, 61590, Note_on_c, 3, 76, 52
6, 61620, Note_on_c, 3, 76, 0
6, 61620, Note_on_c, 3, 78, 52
6, 61650, Note_on_c, 3, 78, 0
6, 61650, Note_on_c, 3, 75, 52
6, 61680, Note_on_c, 3, 75, 0
6, 61680, Note_on_c, 3, 79, 52
6, 61710, Note_on_c, 3, 79, 0
6, 61710, Note_on_c, 3, 78, 52
6, 61740, Note_on_c, 3, 78, 0
6, 61740, Note_on_c, 3, 76, 52
6, 61830, Note_on_c, 3, 76, 0
6, 61830, Note_on_c, 3, 74, 52
6, 61860, Note_on_c, 3, 74, 0
6, 61860, Note_on_c, 3, 72, 52
6, 61920, Note_on_c, 3, 72, 0
6, 61920, Note_on_c, 3, 71, 52
6, 61950, Note_on_c, 3, 71, 0
6, 61950, Note_on_c, 3, 73, 52
6, 61980, Note_on_c, 3, 73, 0
6, 61980, Note_on_c, 3, 70, 52
6, 62040, Note_on_c, 3, 70, 0
6, 62040, Note_on_c, 3, 69, 52
6, 62100, Note_on_c, 3, 69, 0
6, 62100, Note_on_c, 3, 67, 52
6, 62220, Note_on_c, 3, 67, 0
6, 62220, Note_on_c, 3, 66, 52
6, 62250, Note_on_c, 3, 66, 0
6, 62250, Note_on_c, 3, 64, 52
6, 62280, Note_on_c, 3, 64, 0
6, 62280, Note_on_c, 3, 63, 52
6, 62310, Note_on_c, 3, 63, 0
6, 62310, Note_on_c, 3, 64, 52
6, 62340, Note_on_c, 3, 64, 0
6, 62340, Note_on_c, 3, 66, 52
6, 62370, Note_on_c, 3, 66, 0
6, 62370, Note_on_c, 3, 68, 52
6, 62400, Note_on_c, 3, 68, 0
6, 62400, Note_on_c, 3, 69, 52
6, 62430, Note_on_c, 3, 69, 0
6, 62430, Note_on_c, 3, 73, 52
6, 62460, Note_on_c, 3, 73, 0
6, 62460, Note_on_c, 3, 71, 52
6, 62580, Note_on_c, 3, 71, 0
6, 62580, Note_on_c, 3, 64, 52
6, 62640, Note_on_c, 3, 64, 0
6, 62640, Note_on_c, 3, 68, 52
6, 62670, Note_on_c, 3, 68, 0
6, 62670, Note_on_c, 3, 66, 52
6, 62700, Note_on_c, 3, 66, 0
6, 62700, Note_on_c, 3, 64, 52
6, 62730, Note_on_c, 3, 64, 0
6, 62730, Note_on_c, 3, 63, 52
6, 62760, Note_on_c, 3, 63, 0
6, 62760, Note_on_c, 3, 64, 52
6, 63000, Note_on_c, 3, 64, 0
6, 63000, Note_on_c, 3, 71, 72
6, 63060, Note_on_c, 3, 71, 0
6, 63060, Note_on_c, 3, 73, 72
6, 63090, Note_on_c, 3, 73, 0
6, 63090, Note_on_c, 3, 74, 72
6, 63120, Note_on_c, 3, 74, 0
6, 63120, Note_on_c, 3, 76, 72
6, 63180, Note_on_c, 3, 76, 0
6, 63180, Note_on_c, 3, 74, 72
6, 63240, Note_on_c, 3, 74, 0
6, 63240, Note_on_c, 3, 73, 72
6, 63300, Note_on_c, 3, 73, 0
6, 63300, Note_on_c, 3, 71, 72
6, 63330, Note_on_c, 3, 71, 0
6, 63330, Note_on_c, 3, 70, 72
6, 63360, Note_on_c, 3, 70, 0
6, 63360, Note_on_c, 3, 71, 72
6, 63390, Note_on_c, 3, 71, 0
6, 63390, Note_on_c, 3, 74, 72
6, 63420, Note_on_c, 3, 74, 0
6, 63420, Note_on_c, 3, 73, 72
6, 63450, Note_on_c, 3, 73, 0
6, 63480, Note_on_c, 3, 73, 72
6, 63600, Note_on_c, 3, 73, 0
6, 63600, Note_on_c, 3, 74, 72
6, 63720, Note_on_c, 3, 74, 0
6, 63720, Note_on_c, 3, 73, 72
6, 63750, Note_on_c, 3, 73, 0
6, 63750, Note_on_c, 3, 71, 72
6, 63780, Note_on_c, 3, 71, 0
6, 63780, Note_on_c, 3, 69, 72
6, 63810, Note_on_c, 3, 69, 0
6, 63810, Note_on_c, 3, 68, 72
6, 63840, Note_on_c, 3, 68, 0
6, 63840, Note_on_c, 3, 71, 72
6, 63870, Note_on_c, 3, 71, 0
6, 63870, Note_on_c, 3, 69, 72
6, 63900, Note_on_c, 3, 69, 0
6, 63900, Note_on_c, 3, 68, 72
6, 63930, Note_on_c, 3, 68, 0
6, 63930, Note_on_c, 3, 66, 72
6, 63960, Note_on_c, 3, 66, 0
6, 63960, Note_on_c, 3, 78, 72
6, 63975, Note_on_c, 3, 78, 0
6, 63975, Note_on_c, 3, 80, 72
6, 63990, Note_on_c, 3, 80, 0
6, 63990, Note_on_c, 3, 81, 72
6, 64020, Note_on_c, 3, 81, 0
6, 64080, Note_on_c, 3, 80, 72
6, 64140, Note_on_c, 3, 80, 0
6, 64200, Note_on_c, 3, 77, 72
6, 64215, Note_on_c, 3, 77, 0
6, 64215, Note_on_c, 3, 78, 72
6, 64230, Note_on_c, 3, 78, 0
6, 64230, Note_on_c, 3, 77, 72
6, 64320, Note_on_c, 3, 77, 0
6, 64320, Note_on_c, 3, 73, 72
6, 64380, Note_on_c, 3, 73, 0
6, 64380, Note_on_c, 3, 78, 72
6, 64500, Note_on_c, 3, 78, 0
6, 64500, Note_on_c, 3, 76, 72
6, 64530, Note_on_c, 3, 76, 0
6, 64530, Note_on_c, 3, 74, 72
6, 64560, Note_on_c, 3, 74, 0
6, 64560, Note_on_c, 3, 76, 72
6, 64590, Note_on_c, 3, 76, 0
6, 64590, Note_on_c, 3, 73, 72
6, 64620, Note_on_c, 3, 73, 0
6, 64620, Note_on_c, 3, 74, 72
6, 64740, Note_on_c, 3, 74, 0
6, 64740, Note_on_c, 3, 73, 72
6, 64770, Note_on_c, 3, 73, 0
6, 64770, Note_on_c, 3, 71, 72
6, 64800, Note_on_c, 3, 71, 0
6, 64800, Note_on_c, 3, 73, 72
6, 64830, Note_on_c, 3, 73, 0
6, 64830, Note_on_c, 3, 69, 72
6, 64860, Note_on_c, 3, 69, 0
6, 64860, Note_on_c, 3, 71, 72
6, 64890, Note_on_c, 3, 71, 0
6, 64920, Note_on_c, 3, 71, 72
6, 64980, Note_on_c, 3, 71, 0
6, 64980, Note_on_c, 3, 65, 72
6, 65100, Note_on_c, 3, 65, 0
6, 65100, Note_on_c, 3, 66, 72
6, 65130, Note_on_c, 3, 66, 0
6, 65130, Note_on_c, 3, 68, 72
6, 65160, Note_on_c, 3, 68, 0
6, 65160, Note_on_c, 3, 62, 72
6, 65220, Note_on_c, 3, 62, 0
6, 65220, Note_on_c, 3, 61, 72
6, 65340, Note_on_c, 3, 61, 0
6, 65340, Note_on_c, 3, 73, 72
6, 65370, Note_on_c, 3, 73, 0
6, 65400, Note_on_c, 3, 71, 72
6, 65430, Note_on_c, 3, 71, 0
6, 65430, Note_on_c, 3, 69, 72
6, 65460, Note_on_c, 3, 69, 0
6, 65460, Note_on_c, 3, 68, 72
6, 65490, Note_on_c, 3, 68, 0
6, 65490, Note_on_c, 3, 66, 72
6, 65520, Note_on_c, 3, 66, 0
6, 65520, Note_on_c, 3, 69, 72
6, 65580, Note_on_c, 3, 69, 0
6, 65580, Note_on_c, 3, 68, 72
6, 65595, Note_on_c, 3, 68, 0
6, 65595, Note_on_c, 3, 69, 72
6, 65610, Note_on_c, 3, 69, 0
6, 65610, Note_on_c, 3, 68, 72
6, 65640, Note_on_c, 3, 68, 0
6, 65640, Note_on_c, 3, 66, 72
6, 65880, Note_on_c, 3, 66, 0
6, 65880, Note_on_c, 3, 66, 72
6, 65910, Note_on_c, 3, 66, 0
6, 65910, Note_on_c, 3, 68, 72
6, 65940, Note_on_c, 3, 68, 0
6, 65940, Note_on_c, 3, 69, 72
6, 65970, Note_on_c, 3, 69, 0
6, 65970, Note_on_c, 3, 71, 72
6, 66000, Note_on_c, 3, 71, 0
6, 66000, Note_on_c, 3, 73, 72
6, 66030, Note_on_c, 3, 73, 0
6, 66030, Note_on_c, 3, 71, 72
6, 66060, Note_on_c, 3, 71, 0
6, 66060, Note_on_c, 3, 73, 72
6, 66090, Note_on_c, 3, 73, 0
6, 66090, Note_on_c, 3, 74, 72
6, 66120, Note_on_c, 3, 74, 0
6, 66120, Note_on_c, 3, 76, 72
6, 66180, Note_on_c, 3, 76, 0
6, 66180, Note_on_c, 3, 69, 72
6, 66240, Note_on_c, 3, 69, 0
6, 66240, Note_on_c, 3, 79, 72
6, 66270, Note_on_c, 3, 79, 0
6, 66270, Note_on_c, 3, 76, 72
6, 66300, Note_on_c, 3, 76, 0
6, 66300, Note_on_c, 3, 78, 72
6, 66330, Note_on_c, 3, 78, 0
6, 66360, Note_on_c, 3, 78, 72
6, 66600, Note_on_c, 3, 78, 0
6, 66600, Note_on_c, 3, 71, 72
6, 66660, Note_on_c, 3, 71, 0
6, 66660, Note_on_c, 3, 73, 72
6, 66690, Note_on_c, 3, 73, 0
6, 66690, Note_on_c, 3, 74, 72
6, 66720, Note_on_c, 3, 74, 0
6, 66720, Note_on_c, 3, 74, 72
6, 66750, Note_on_c, 3, 74, 0
6, 66750, Note_on_c, 3, 73, 72
6, 66780, Note_on_c, 3, 73, 0
6, 66780, Note_on_c, 3, 71, 72
6, 66810, Note_on_c, 3, 71, 0
6, 66810, Note_on_c, 3, 69, 72
6, 66840, Note_on_c, 3, 69, 0
6, 66840, Note_on_c, 3, 81, 72
6, 66870, Note_on_c, 3, 81, 0
6, 66870, Note_on_c, 3, 80, 72
6, 66900, Note_on_c, 3, 80, 0
6, 66900, Note_on_c, 3, 78, 72
6, 67020, Note_on_c, 3, 78, 0
6, 67020, Note_on_c, 3, 76, 72
6, 67080, Note_on_c, 3, 76, 0
6, 67080, Note_on_c, 3, 75, 72
6, 67170, Note_on_c, 3, 75, 0
6, 67170, Note_on_c, 3, 76, 72
6, 67185, Note_on_c, 3, 76, 0
6, 67185, Note_on_c, 3, 78, 72
6, 67200, Note_on_c, 3, 78, 0
6, 67200, Note_on_c, 3, 76, 72
6, 67260, Note_on_c, 3, 76, 0
6, 67260, Note_on_c, 3, 64, 72
6, 67380, Note_on_c, 3, 64, 0
6, 67380, Note_on_c, 3, 66, 72
6, 67410, Note_on_c, 3, 66, 0
6, 67410, Note_on_c, 3, 68, 72
6, 67440, Note_on_c, 3, 68, 0
6, 67440, Note_on_c, 3, 66, 72
6, 67470, Note_on_c, 3, 66, 0
6, 67470, Note_on_c, 3, 69, 72
6, 67500, Note_on_c, 3, 69, 0
6, 67500, Note_on_c, 3, 68, 72
6, 67620, Note_on_c, 3, 68, 0
6, 67620, Note_on_c, 3, 69, 72
6, 67650, Note_on_c, 3, 69, 0
6, 67650, Note_on_c, 3, 71, 72
6, 67680, Note_on_c, 3, 71, 0
6, 67680, Note_on_c, 3, 69, 72
6, 67710, Note_on_c, 3, 69, 0
6, 67710, Note_on_c, 3, 73, 72
6, 67740, Note_on_c, 3, 73, 0
6, 67740, Note_on_c, 3, 71, 72
6, 67770, Note_on_c, 3, 71, 0
6, 67800, Note_on_c, 3, 71, 72
6, 67830, Note_on_c, 3, 71, 0
6, 67830, Note_on_c, 3, 74, 72
6, 67860, Note_on_c, 3, 74, 0
6, 67860, Note_on_c, 3, 78, 72
6, 67980, Note_on_c, 3, 78, 0
6, 67980, Note_on_c, 3, 76, 72
6, 68010, Note_on_c, 3, 76, 0
6, 68010, Note_on_c, 3, 74, 72
6, 68040, Note_on_c, 3, 74, 0
6, 68040, Note_on_c, 3, 73, 72
6, 68070, Note_on_c, 3, 73, 0
6, 68070, Note_on_c, 3, 71, 72
6, 68100, Note_on_c, 3, 71, 0
6, 68100, Note_on_c, 3, 69, 72
6, 68130, Note_on_c, 3, 69, 0
6, 68130, Note_on_c, 3, 68, 72
6, 68160, Note_on_c, 3, 68, 0
6, 68160, Note_on_c, 3, 66, 72
6, 68190, Note_on_c, 3, 66, 0
6, 68190, Note_on_c, 3, 64, 72
6, 68220, Note_on_c, 3, 64, 0
6, 68220, Note_on_c, 3, 74, 72
6, 68250, Note_on_c, 3, 74, 0
6, 68280, Note_on_c, 3, 73, 72
6, 68310, Note_on_c, 3, 73, 0
6, 68310, Note_on_c, 3, 74, 72
6, 68340, Note_on_c, 3, 74, 0
6, 68340, Note_on_c, 3, 76, 72
6, 68370, Note_on_c, 3, 76, 0
6, 68370, Note_on_c, 3, 69, 72
6, 68400, Note_on_c, 3, 69, 0
6, 68400, Note_on_c, 3, 73, 72
6, 68460, Note_on_c, 3, 73, 0
6, 68460, Note_on_c, 3, 71, 72
6, 68475, Note_on_c, 3, 71, 0
6, 68475, Note_on_c, 3, 73, 72
6, 68490, Note_on_c, 3, 73, 0
6, 68490, Note_on_c, 3, 71, 72
6, 68520, Note_on_c, 3, 71, 0
6, 68520, Note_on_c, 3, 69, 72
6, 68760, Note_on_c, 3, 69, 0
6, 69480, Note_on_c, 3, 78, 48
6, 69540, Note_on_c, 3, 78, 0
6, 69540, Note_on_c, 3, 80, 48
6, 69570, Note_on_c, 3, 80, 0
6, 69570, Note_on_c, 3, 81, 48
6, 69600, Note_on_c, 3, 81, 0
6, 69600, Note_on_c, 3, 83, 48
6, 69660, Note_on_c, 3, 83, 0
6, 69660, Note_on_c, 3, 81, 48
6, 69720, Note_on_c, 3, 81, 0
6, 69720, Note_on_c, 3, 80, 48
6, 69780, Note_on_c, 3, 80, 0
6, 69780, Note_on_c, 3, 78, 48
6, 69810, Note_on_c, 3, 78, 0
6, 69810, Note_on_c, 3, 77, 48
6, 69840, Note_on_c, 3, 77, 0
6, 69840, Note_on_c, 3, 78, 48
6, 69870, Note_on_c, 3, 78, 0
6, 69870, Note_on_c, 3, 81, 48
6, 69900, Note_on_c, 3, 81, 0
6, 69900, Note_on_c, 3, 80, 48
6, 69930, Note_on_c, 3, 80, 0
6, 69960, Note_on_c, 3, 80, 48
6, 70110, Note_on_c, 3, 80, 0
6, 70110, Note_on_c, 3, 78, 48
6, 70140, Note_on_c, 3, 78, 0
6, 70140, Note_on_c, 3, 77, 48
6, 70170, Note_on_c, 3, 77, 0
6, 70170, Note_on_c, 3, 75, 48
6, 70200, Note_on_c, 3, 75, 0
6, 70200, Note_on_c, 3, 73, 48
6, 70230, Note_on_c, 3, 73, 0
6, 70230, Note_on_c, 3, 71, 48
6, 70260, Note_on_c, 3, 71, 0
6, 70260, Note_on_c, 3, 69, 48
6, 70290, Note_on_c, 3, 69, 0
6, 70290, Note_on_c, 3, 68, 48
6, 70320, Note_on_c, 3, 68, 0
6, 70320, Note_on_c, 3, 71, 48
6, 70350, Note_on_c, 3, 71, 0
6, 70350, Note_on_c, 3, 69, 48
6, 70380, Note_on_c, 3, 69, 0
6, 70380, Note_on_c, 3, 68, 48
6, 70410, Note_on_c, 3, 68, 0
6, 70410, Note_on_c, 3, 66, 48
6, 70440, Note_on_c, 3, 66, 0
6, 70440, Note_on_c, 3, 78, 48
6, 70455, Note_on_c, 3, 78, 0
6, 70455, Note_on_c, 3, 80, 48
6, 70470, Note_on_c, 3, 80, 0
6, 70470, Note_on_c, 3, 81, 48
6, 70560, Note_on_c, 3, 81, 0
6, 70560, Note_on_c, 3, 80, 48
6, 70620, Note_on_c, 3, 80, 0
6, 70680, Note_on_c, 3, 77, 48
6, 70695, Note_on_c, 3, 77, 0
6, 70695, Note_on_c, 3, 78, 48
6, 70710, Note_on_c, 3, 78, 0
6, 70710, Note_on_c, 3, 77, 48
6, 70800, Note_on_c, 3, 77, 0
6, 70800, Note_on_c, 3, 73, 48
6, 70860, Note_on_c, 3, 73, 0
6, 71580, Note_on_c, 3, 83, 48
6, 71700, Note_on_c, 3, 83, 0
6, 71700, Note_on_c, 3, 81, 48
6, 71730, Note_on_c, 3, 81, 0
6, 71730, Note_on_c, 3, 80, 48
6, 71760, Note_on_c, 3, 80, 0
6, 71760, Note_on_c, 3, 81, 48
6, 71790, Note_on_c, 3, 81, 0
6, 71790, Note_on_c, 3, 78, 48
6, 71820, Note_on_c, 3, 78, 0
6, 71820, Note_on_c, 3, 80, 48
6, 71940, Note_on_c, 3, 80, 0
6, 71940, Note_on_c, 3, 78, 48
6, 71970, Note_on_c, 3, 78, 0
6, 71970, Note_on_c, 3, 77, 48
6, 72000, Note_on_c, 3, 77, 0
6, 72000, Note_on_c, 3, 78, 48
6, 72030, Note_on_c, 3, 78, 0
6, 72030, Note_on_c, 3, 75, 48
6, 72060, Note_on_c, 3, 75, 0
6, 72060, Note_on_c, 3, 77, 48
6, 72090, Note_on_c, 3, 77, 0
6, 72120, Note_on_c, 3, 77, 48
6, 72180, Note_on_c, 3, 77, 0
6, 72180, Note_on_c, 3, 65, 48
6, 72300, Note_on_c, 3, 65, 0
6, 72300, Note_on_c, 3, 66, 48
6, 72330, Note_on_c, 3, 66, 0
6, 72330, Note_on_c, 3, 68, 48
6, 72360, Note_on_c, 3, 68, 0
6, 72360, Note_on_c, 3, 62, 48
6, 72420, Note_on_c, 3, 62, 0
6, 72420, Note_on_c, 3, 61, 48
6, 72540, Note_on_c, 3, 61, 0
6, 72540, Note_on_c, 3, 73, 48
6, 72600, Note_on_c, 3, 73, 0
6, 72600, Note_on_c, 3, 71, 48
6, 72630, Note_on_c, 3, 71, 0
6, 72630, Note_on_c, 3, 69, 48
6, 72660, Note_on_c, 3, 69, 0
6, 72660, Note_on_c, 3, 68, 48
6, 72690, Note_on_c, 3, 68, 0
6, 72690, Note_on_c, 3, 66, 48
6, 72720, Note_on_c, 3, 66, 0
6, 72720, Note_on_c, 3, 69, 48
6, 72780, Note_on_c, 3, 69, 0
6, 72780, Note_on_c, 3, 68, 48
6, 72795, Note_on_c, 3, 68, 0
6, 72795, Note_on_c, 3, 69, 48
6, 72810, Note_on_c, 3, 69, 0
6, 72810, Note_on_c, 3, 68, 48
6, 72840, Note_on_c, 3, 68, 0
6, 72840, Note_on_c, 3, 66, 48
6, 72930, Note_on_c, 3, 66, 0
6, 72930, Note_on_c, 3, 68, 48
6, 72960, Note_on_c, 3, 68, 0
6, 72960, Note_on_c, 3, 69, 72
6, 72990, Note_on_c, 3, 69, 0
6, 72990, Note_on_c, 3, 71, 72
6, 73020, Note_on_c, 3, 71, 0
6, 73020, Note_on_c, 3, 73, 72
6, 73050, Note_on_c, 3, 73, 0
6, 73050, Note_on_c, 3, 75, 72
6, 73080, Note_on_c, 3, 75, 0
6, 73080, Note_on_c, 3, 77, 72
6, 73110, Note_on_c, 3, 77, 0
6, 73110, Note_on_c, 3, 78, 72
6, 73140, Note_on_c, 3, 78, 0
6, 73140, Note_on_c, 3, 80, 72
6, 73170, Note_on_c, 3, 80, 0
6, 73170, Note_on_c, 3, 77, 72
6, 73200, Note_on_c, 3, 77, 0
6, 73200, Note_on_c, 3, 81, 72
6, 73230, Note_on_c, 3, 81, 0
6, 73230, Note_on_c, 3, 80, 72
6, 73260, Note_on_c, 3, 80, 0
6, 73260, Note_on_c, 3, 78, 72
6, 73350, Note_on_c, 3, 78, 0
6, 73350, Note_on_c, 3, 76, 72
6, 73380, Note_on_c, 3, 76, 0
6, 73380, Note_on_c, 3, 75, 72
6, 73440, Note_on_c, 3, 75, 0
6, 73440, Note_on_c, 3, 73, 72
6, 73470, Note_on_c, 3, 73, 0
6, 73470, Note_on_c, 3, 75, 72
6, 73500, Note_on_c, 3, 75, 0
6, 73500, Note_on_c, 3, 72, 72
6, 73560, Note_on_c, 3, 72, 0
6, 73560, Note_on_c, 3, 73, 72
6, 73620, Note_on_c, 3, 73, 0
6, 73620, Note_on_c, 3, 83, 72
6, 73740, Note_on_c, 3, 83, 0
6, 73740, Note_on_c, 3, 81, 72
6, 73770, Note_on_c, 3, 81, 0
6, 73770, Note_on_c, 3, 80, 72
6, 73800, Note_on_c, 3, 80, 0
6, 73800, Note_on_c, 3, 81, 72
6, 73830, Note_on_c, 3, 81, 0
6, 73830, Note_on_c, 3, 78, 72
6, 73860, Note_on_c, 3, 78, 0
6, 73860, Note_on_c, 3, 80, 72
6, 73890, Note_on_c, 3, 80, 0
6, 73890, Note_on_c, 3, 77, 72
6, 73920, Note_on_c, 3, 77, 0
6, 73920, Note_on_c, 3, 78, 72
6, 73950, Note_on_c, 3, 78, 0
6, 73950, Note_on_c, 3, 73, 72
6, 73980, Note_on_c, 3, 73, 0
6, 73980, Note_on_c, 3, 74, 72
6, 74010, Note_on_c, 3, 74, 0
6, 74010, Note_on_c, 3, 71, 72
6, 74040, Note_on_c, 3, 71, 0
6, 74040, Note_on_c, 3, 73, 72
6, 74070, Note_on_c, 3, 73, 0
6, 74070, Note_on_c, 3, 69, 72
6, 74100, Note_on_c, 3, 69, 0
6, 74100, Note_on_c, 3, 68, 72
6, 74130, Note_on_c, 3, 68, 0
6, 74130, Note_on_c, 3, 66, 72
6, 74160, Note_on_c, 3, 66, 0
6, 74160, Note_on_c, 3, 61, 72
6, 74220, Note_on_c, 3, 61, 0
6, 74220, Note_on_c, 3, 77, 72
6, 74280, Note_on_c, 3, 77, 0
6, 74280, Note_on_c, 3, 78, 72
6, 74340, Note_on_c, 3, 78, 0
6, 74340, Note_on_c, 3, 76, 72
6, 74370, Note_on_c, 3, 76, 0
6, 74370, Note_on_c, 3, 74, 72
6, 74400, Note_on_c, 3, 74, 0
6, 74400, Note_on_c, 3, 73, 72
6, 74430, Note_on_c, 3, 73, 0
6, 74430, Note_on_c, 3, 71, 72
6, 74460, Note_on_c, 3, 71, 0
6, 74460, Note_on_c, 3, 69, 72
6, 74490, Note_on_c, 3, 69, 0
6, 74490, Note_on_c, 3, 68, 72
6, 74520, Note_on_c, 3, 68, 0
6, 74520, Note_on_c, 3, 66, 72
6, 74580, Note_on_c, 3, 66, 0
6, 75240, Note_on_c, 3, 62, 52
6, 75270, Note_on_c, 3, 62, 0
6, 75270, Note_on_c, 3, 64, 52
6, 75300, Note_on_c, 3, 64, 0
6, 75300, Note_on_c, 3, 66, 52
6, 75330, Note_on_c, 3, 66, 0
6, 75330, Note_on_c, 3, 68, 52
6, 75360, Note_on_c, 3, 68, 0
6, 75360, Note_on_c, 3, 70, 52
6, 75390, Note_on_c, 3, 70, 0
6, 75390, Note_on_c, 3, 68, 52
6, 75420, Note_on_c, 3, 68, 0
6, 75420, Note_on_c, 3, 70, 52
6, 75450, Note_on_c, 3, 70, 0
6, 75450, Note_on_c, 3, 71, 52
6, 75480, Note_on_c, 3, 71, 0
6, 75480, Note_on_c, 3, 73, 52
6, 75540, Note_on_c, 3, 73, 0
6, 75540, Note_on_c, 3, 66, 52
6, 75600, Note_on_c, 3, 66, 0
6, 75600, Note_on_c, 3, 76, 52
6, 75630, Note_on_c, 3, 76, 0
6, 75630, Note_on_c, 3, 73, 52
6, 75660, Note_on_c, 3, 73, 0
6, 75660, Note_on_c, 3, 74, 52
6, 75690, Note_on_c, 3, 74, 0
6, 75720, Note_on_c, 3, 74, 52
6, 75960, Note_on_c, 3, 74, 0
6, 75960, Note_on_c, 3, 76, 52
6, 75990, Note_on_c, 3, 76, 0
6, 75990, Note_on_c, 3, 74, 52
6, 76020, Note_on_c, 3, 74, 0
6, 76020, Note_on_c, 3, 73, 52
6, 76050, Note_on_c, 3, 73, 0
6, 76050, Note_on_c, 3, 71, 52
6, 76080, Note_on_c, 3, 71, 0
6, 76080, Note_on_c, 3, 74, 52
6, 76110, Note_on_c, 3, 74, 0
6, 76110, Note_on_c, 3, 73, 52
6, 76140, Note_on_c, 3, 73, 0
6, 76140, Note_on_c, 3, 71, 52
6, 76170, Note_on_c, 3, 71, 0
6, 76170, Note_on_c, 3, 69, 52
6, 76200, Note_on_c, 3, 69, 0
6, 76200, Note_on_c, 3, 81, 52
6, 76230, Note_on_c, 3, 81, 0
6, 76230, Note_on_c, 3, 80, 52
6, 76260, Note_on_c, 3, 80, 0
6, 76260, Note_on_c, 3, 78, 52
6, 76380, Note_on_c, 3, 78, 0
6, 76380, Note_on_c, 3, 76, 52
6, 76440, Note_on_c, 3, 76, 0
6, 76440, Note_on_c, 3, 75, 52
6, 76530, Note_on_c, 3, 75, 0
6, 76530, Note_on_c, 3, 76, 52
6, 76545, Note_on_c, 3, 76, 0
6, 76545, Note_on_c, 3, 78, 52
6, 76560, Note_on_c, 3, 78, 0
6, 76560, Note_on_c, 3, 76, 52
6, 76620, Note_on_c, 3, 76, 0
6, 76860, Note_on_c, 3, 64, 52
6, 76980, Note_on_c, 3, 64, 0
6, 76980, Note_on_c, 3, 66, 52
6, 77010, Note_on_c, 3, 66, 0
6, 77010, Note_on_c, 3, 68, 52
6, 77040, Note_on_c, 3, 68, 0
6, 77040, Note_on_c, 3, 66, 52
6, 77070, Note_on_c, 3, 66, 0
6, 77070, Note_on_c, 3, 69, 52
6, 77100, Note_on_c, 3, 69, 0
6, 77100, Note_on_c, 3, 68, 52
6, 77220, Note_on_c, 3, 68, 0
6, 77220, Note_on_c, 3, 69, 52
6, 77250, Note_on_c, 3, 69, 0
6, 77250, Note_on_c, 3, 71, 52
6, 77280, Note_on_c, 3, 71, 0
6, 77280, Note_on_c, 3, 69, 52
6, 77310, Note_on_c, 3, 69, 0
6, 77310, Note_on_c, 3, 72, 52
6, 77340, Note_on_c, 3, 72, 0
6, 77340, Note_on_c, 3, 71, 52
6, 77370, Note_on_c, 3, 71, 0
6, 77400, Note_on_c, 3, 71, 52
6, 77520, Note_on_c, 3, 71, 0
6, 77580, Note_on_c, 3, 68, 52
6, 77700, Note_on_c, 3, 68, 0
6, 77700, Note_on_c, 3, 69, 52
6, 77730, Note_on_c, 3, 69, 0
6, 77730, Note_on_c, 3, 71, 52
6, 77760, Note_on_c, 3, 71, 0
6, 77760, Note_on_c, 3, 69, 52
6, 77790, Note_on_c, 3, 69, 0
6, 77790, Note_on_c, 3, 73, 52
6, 77820, Note_on_c, 3, 73, 0
6, 77820, Note_on_c, 3, 71, 52
6, 77910, Note_on_c, 3, 71, 0
6, 77910, Note_on_c, 3, 73, 52
6, 77940, Note_on_c, 3, 73, 0
6, 77940, Note_on_c, 3, 74, 52
6, 78060, Note_on_c, 3, 74, 0
6, 78060, Note_on_c, 3, 76, 52
6, 78090, Note_on_c, 3, 76, 0
6, 78090, Note_on_c, 3, 74, 52
6, 78120, Note_on_c, 3, 74, 0
6, 78120, Note_on_c, 3, 73, 52
6, 78150, Note_on_c, 3, 73, 0
6, 78150, Note_on_c, 3, 71, 52
6, 78180, Note_on_c, 3, 71, 0
6, 78180, Note_on_c, 3, 69, 52
6, 78210, Note_on_c, 3, 69, 0
6, 78210, Note_on_c, 3, 68, 52
6, 78240, Note_on_c, 3, 68, 0
6, 78240, Note_on_c, 3, 66, 52
6, 78270, Note_on_c, 3, 66, 0
6, 78270, Note_on_c, 3, 64, 52
6, 78300, Note_on_c, 3, 64, 0
6, 78300, Note_on_c, 3, 74, 52
6, 78330, Note_on_c, 3, 74, 0
6, 78360, Note_on_c, 3, 73, 52
6, 78390, Note_on_c, 3, 73, 0
6, 78390, Note_on_c, 3, 74, 52
6, 78420, Note_on_c, 3, 74, 0
6, 78420, Note_on_c, 3, 76, 52
6, 78450, Note_on_c, 3, 76, 0
6, 78450, Note_on_c, 3, 69, 52
6, 78480, Note_on_c, 3, 69, 0
6, 78480, Note_on_c, 3, 73, 52
6, 78540, Note_on_c, 3, 73, 0
6, 78540, Note_on_c, 3, 71, 52
6, 78555, Note_on_c, 3, 71, 0
6, 78555, Note_on_c, 3, 73, 52
6, 78570, Note_on_c, 3, 73, 0
6, 78570, Note_on_c, 3, 71, 52
6, 78600, Note_on_c, 3, 71, 0
6, 78600, Note_on_c, 3, 69, 52
6, 78660, Note_on_c, 3, 69, 0
6, 78660, Note_on_c, 3, 68, 55
6, 78690, Note_on_c, 3, 68, 0
6, 78690, Note_on_c, 3, 66, 56
6, 78720, Note_on_c, 3, 66, 0
6, 78720, Note_on_c, 3, 64, 58
6, 78750, Note_on_c, 3, 64, 0
6, 78750, Note_on_c, 3, 62, 60
6, 78780, Note_on_c, 3, 62, 0
6, 78780, Note_on_c, 3, 61, 61
6, 78810, Note_on_c, 3, 61, 0
6, 78810, Note_on_c, 3, 59, 63
6, 78840, Note_on_c, 3, 59, 0
6, 78840, Note_on_c, 3, 57, 64
6, 78870, Note_on_c, 3, 57, 0
6, 78870, Note_on_c, 3, 69, 66
6, 78900, Note_on_c, 3, 69, 0
6, 78900, Note_on_c, 3, 71, 68
6, 78930, Note_on_c, 3, 71, 0
6, 78930, Note_on_c, 3, 73, 69
6, 78960, Note_on_c, 3, 73, 0
6, 78960, Note_on_c, 3, 74, 72
6, 78990, Note_on_c, 3, 74, 0
6, 78990, Note_on_c, 3, 73, 72
6, 79020, Note_on_c, 3, 73, 0
6, 79020, Note_on_c, 3, 71, 72
6, 79050, Note_on_c, 3, 71, 0
6, 79050, Note_on_c, 3, 69, 72
6, 79080, Note_on_c, 3, 69, 0
6, 79080, Note_on_c, 3, 78, 72
6, 79140, Note_on_c, 3, 78, 0
6, 79200, Note_on_c, 3, 76, 72
6, 79260, Note_on_c, 3, 76, 0
6, 79320, Note_on_c, 3, 74, 72
6, 79335, Note_on_c, 3, 74, 0
6, 79335, Note_on_c, 3, 76, 72
6, 79350, Note_on_c, 3, 76, 0
6, 79350, Note_on_c, 3, 74, 72
6, 79440, Note_on_c, 3, 74, 0
6, 79440, Note_on_c, 3, 73, 72
6, 79500, Note_on_c, 3, 73, 0
6, 79500, Note_on_c, 3, 71, 72
6, 79620, Note_on_c, 3, 71, 0
6, 79620, Note_on_c, 3, 73, 72
6, 79650, Note_on_c, 3, 73, 0
6, 79650, Note_on_c, 3, 74, 72
6, 79680, Note_on_c, 3, 74, 0
6, 79680, Note_on_c, 3, 68, 72
6, 79740, Note_on_c, 3, 68, 0
6, 79740, Note_on_c, 3, 69, 72
6, 79860, Note_on_c, 3, 69, 0
6, 79860, Note_on_c, 3, 71, 72
6, 79920, Note_on_c, 3, 71, 0
6, 79920, Note_on_c, 3, 73, 72
6, 79950, Note_on_c, 3, 73, 0
6, 79950, Note_on_c, 3, 69, 72
6, 79980, Note_on_c, 3, 69, 0
6, 79980, Note_on_c, 3, 74, 72
6, 80010, Note_on_c, 3, 74, 0
6, 80040, Note_on_c, 3, 73, 72
6, 80160, Note_on_c, 3, 73, 0
6, 80160, Note_on_c, 3, 71, 72
6, 80280, Note_on_c, 3, 71, 0
6, 80280, Note_on_c, 3, 69, 48
6, 80340, Note_on_c, 3, 69, 0
6, 80340, Note_on_c, 3, 71, 48
6, 80370, Note_on_c, 3, 71, 0
6, 80370, Note_on_c, 3, 73, 48
6, 80400, Note_on_c, 3, 73, 0
6, 80400, Note_on_c, 3, 74, 48
6, 80430, Note_on_c, 3, 74, 0
6, 80430, Note_on_c, 3, 73, 48
6, 80460, Note_on_c, 3, 73, 0
6, 80460, Note_on_c, 3, 71, 48
6, 80490, Note_on_c, 3, 71, 0
6, 80490, Note_on_c, 3, 69, 48
6, 80520, Note_on_c, 3, 69, 0
6, 80520, Note_on_c, 3, 78, 48
6, 80580, Note_on_c, 3, 78, 0
6, 80640, Note_on_c, 3, 76, 48
6, 80700, Note_on_c, 3, 76, 0
6, 80760, Note_on_c, 3, 74, 48
6, 80775, Note_on_c, 3, 74, 0
6, 80775, Note_on_c, 3, 76, 48
6, 80790, Note_on_c, 3, 76, 0
6, 80790, Note_on_c, 3, 74, 48
6, 80880, Note_on_c, 3, 74, 0
6, 80880, Note_on_c, 3, 73, 48
6, 80940, Note_on_c, 3, 73, 0
6, 80940, Note_on_c, 3, 71, 48
6, 81060, Note_on_c, 3, 71, 0
6, 81060, Note_on_c, 3, 73, 48
6, 81090, Note_on_c, 3, 73, 0
6, 81090, Note_on_c, 3, 74, 48
6, 81120, Note_on_c, 3, 74, 0
6, 81120, Note_on_c, 3, 68, 48
6, 81180, Note_on_c, 3, 68, 0
6, 81180, Note_on_c, 3, 69, 48
6, 81300, Note_on_c, 3, 69, 0
6, 81300, Note_on_c, 3, 71, 48
6, 81360, Note_on_c, 3, 71, 0
6, 81360, Note_on_c, 3, 73, 48
6, 81390, Note_on_c, 3, 73, 0
6, 81390, Note_on_c, 3, 69, 48
6, 81420, Note_on_c, 3, 69, 0
6, 81420, Note_on_c, 3, 74, 48
6, 81450, Note_on_c, 3, 74, 0
6, 81480, Note_on_c, 3, 73, 48
6, 81600, Note_on_c, 3, 73, 0
6, 81600, Note_on_c, 3, 71, 48
6, 81720, Note_on_c, 3, 71, 0
6, 81720, Note_on_c, 3, 75, 72
6, 81750, Note_on_c, 3, 75, 0
6, 81750, Note_on_c, 3, 76, 72
6, 81780, Note_on_c, 3, 76, 0
6, 81780, Note_on_c, 3, 78, 72
6, 81810, Note_on_c, 3, 78, 0
6, 81810, Note_on_c, 3, 75, 72
6, 81840, Note_on_c, 3, 75, 0
6, 81840, Note_on_c, 3, 79, 72
6, 81870, Note_on_c, 3, 79, 0
6, 81870, Note_on_c, 3, 78, 72
6, 81900, Note_on_c, 3, 78, 0
6, 81900, Note_on_c, 3, 76, 72
6, 81990, Note_on_c, 3, 76, 0
6, 81990, Note_on_c, 3, 74, 72
6, 82020, Note_on_c, 3, 74, 0
6, 82020, Note_on_c, 3, 73, 72
6, 82080, Note_on_c, 3, 73, 0
6, 82080, Note_on_c, 3, 71, 72
6, 82110, Note_on_c, 3, 71, 0
6, 82110, Note_on_c, 3, 73, 72
6, 82140, Note_on_c, 3, 73, 0
6, 82140, Note_on_c, 3, 70, 72
6, 82200, Note_on_c, 3, 70, 0
6, 82200, Note_on_c, 3, 69, 72
6, 82260, Note_on_c, 3, 69, 0
6, 82260, Note_on_c, 3, 67, 72
6, 82380, Note_on_c, 3, 67, 0
6, 82380, Note_on_c, 3, 66, 72
6, 82410, Note_on_c, 3, 66, 0
6, 82410, Note_on_c, 3, 64, 72
6, 82440, Note_on_c, 3, 64, 0
6, 82440, Note_on_c, 3, 63, 72
6, 82470, Note_on_c, 3, 63, 0
6, 82470, Note_on_c, 3, 64, 72
6, 82500, Note_on_c, 3, 64, 0
6, 82500, Note_on_c, 3, 66, 72
6, 82530, Note_on_c, 3, 66, 0
6, 82530, Note_on_c, 3, 68, 72
6, 82560, Note_on_c, 3, 68, 0
6, 82560, Note_on_c, 3, 69, 72
6, 82590, Note_on_c, 3, 69, 0
6, 82590, Note_on_c, 3, 73, 72
6, 82620, Note_on_c, 3, 73, 0
6, 82620, Note_on_c, 3, 71, 72
6, 82740, Note_on_c, 3, 71, 0
6, 82740, Note_on_c, 3, 64, 72
6, 82800, Note_on_c, 3, 64, 0
6, 82800, Note_on_c, 3, 68, 72
6, 82830, Note_on_c, 3, 68, 0
6, 82830, Note_on_c, 3, 66, 72
6, 82860, Note_on_c, 3, 66, 0
6, 82860, Note_on_c, 3, 64, 72
6, 82890, Note_on_c, 3, 64, 0
6, 82890, Note_on_c, 3, 63, 72
6, 82920, Note_on_c, 3, 63, 0
6, 82920, Note_on_c, 3, 64, 72
6, 83160, Note_on_c, 3, 64, 0
6, 83160, Note_on_c, 3, 71, 72
6, 83220, Note_on_c, 3, 71, 0
6, 83220, Note_on_c, 3, 73, 72
6, 83250, Note_on_c, 3, 73, 0
6, 83250, Note_on_c, 3, 74, 72
6, 83280, Note_on_c, 3, 74, 0
6, 83280, Note_on_c, 3, 76, 72
6, 83340, Note_on_c, 3, 76, 0
6, 83340, Note_on_c, 3, 74, 72
6, 83400, Note_on_c, 3, 74, 0
6, 83400, Note_on_c, 3, 73, 72
6, 83460, Note_on_c, 3, 73, 0
6, 83460, Note_on_c, 3, 71, 72
6, 83490, Note_on_c, 3, 71, 0
6, 83490, Note_on_c, 3, 70, 72
6, 83520, Note_on_c, 3, 70, 0
6, 83520, Note_on_c, 3, 71, 72
6, 83550, Note_on_c, 3, 71, 0
6, 83550, Note_on_c, 3, 74, 72
6, 83580, Note_on_c, 3, 74, 0
6, 83580, Note_on_c, 3, 73, 72
6, 83610, Note_on_c, 3, 73, 0
6, 83640, Note_on_c, 3, 74, 72
6, 83880, Note_on_c, 3, 74, 0
6, 83880, Note_on_c, 3, 73, 72
6, 83910, Note_on_c, 3, 73, 0
6, 83910, Note_on_c, 3, 71, 72
6, 83940, Note_on_c, 3, 71, 0
6, 83940, Note_on_c, 3, 69, 72
6, 83970, Note_on_c, 3, 69, 0
6, 83970, Note_on_c, 3, 68, 72
6, 84000, Note_on_c, 3, 68, 0
6, 84000, Note_on_c, 3, 71, 72
6, 84030, Note_on_c, 3, 71, 0
6, 84030, Note_on_c, 3, 69, 72
6, 84060, Note_on_c, 3, 69, 0
6, 84060, Note_on_c, 3, 68, 72
6, 84090, Note_on_c, 3, 68, 0
6, 84090, Note_on_c, 3, 66, 72
6, 84120, Note_on_c, 3, 66, 0
6, 84120, Note_on_c, 3, 78, 72
6, 84135, Note_on_c, 3, 78, 0
6, 84135, Note_on_c, 3, 80, 72
6, 84150, Note_on_c, 3, 80, 0
6, 84150, Note_on_c, 3, 81, 72
6, 84180, Note_on_c, 3, 81, 0
6, 84240, Note_on_c, 3, 80, 72
6, 84300, Note_on_c, 3, 80, 0
6, 84360, Note_on_c, 3, 77, 72
6, 84375, Note_on_c, 3, 77, 0
6, 84375, Note_on_c, 3, 78, 72
6, 84390, Note_on_c, 3, 78, 0
6, 84390, Note_on_c, 3, 77, 72
6, 84480, Note_on_c, 3, 77, 0
6, 84480, Note_on_c, 3, 73, 72
6, 84540, Note_on_c, 3, 73, 0
6, 84540, Note_on_c, 3, 78, 72
6, 84660, Note_on_c, 3, 78, 0
6, 84660, Note_on_c, 3, 76, 72
6, 84690, Note_on_c, 3, 76, 0
6, 84690, Note_on_c, 3, 74, 72
6, 84720, Note_on_c, 3, 74, 0
6, 84720, Note_on_c, 3, 76, 72
6, 84750, Note_on_c, 3, 76, 0
6, 84750, Note_on_c, 3, 73, 72
6, 84780, Note_on_c, 3, 73, 0
6, 84780, Note_on_c, 3, 74, 72
6, 84900, Note_on_c, 3, 74, 0
6, 84900, Note_on_c, 3, 73, 72
6, 84930, Note_on_c, 3, 73, 0
6, 84930, Note_on_c, 3, 71, 72
6, 84960, Note_on_c, 3, 71, 0
6, 84960, Note_on_c, 3, 73, 72
6, 84990, Note_on_c, 3, 73, 0
6, 84990, Note_on_c, 3, 69, 72
6, 85020, Note_on_c, 3, 69, 0
6, 85020, Note_on_c, 3, 71, 72
6, 85050, Note_on_c, 3, 71, 0
6, 85080, Note_on_c, 3, 71, 72
6, 85140, Note_on_c, 3, 71, 0
6, 85140, Note_on_c, 3, 65, 72
6, 85260, Note_on_c, 3, 65, 0
6, 85260, Note_on_c, 3, 66, 72
6, 85290, Note_on_c, 3, 66, 0
6, 85290, Note_on_c, 3, 68, 72
6, 85320, Note_on_c, 3, 68, 0
6, 85320, Note_on_c, 3, 62, 72
6, 85380, Note_on_c, 3, 62, 0
6, 85380, Note_on_c, 3, 61, 72
6, 85500, Note_on_c, 3, 61, 0
6, 85500, Note_on_c, 3, 73, 72
6, 85530, Note_on_c, 3, 73, 0
6, 85560, Note_on_c, 3, 71, 72
6, 85590, Note_on_c, 3, 71, 0
6, 85590, Note_on_c, 3, 69, 72
6, 85620, Note_on_c, 3, 69, 0
6, 85620, Note_on_c, 3, 68, 72
6, 85650, Note_on_c, 3, 68, 0
6, 85650, Note_on_c, 3, 66, 72
6, 85680, Note_on_c, 3, 66, 0
6, 85680, Note_on_c, 3, 69, 72
6, 85740, Note_on_c, 3, 69, 0
6, 85740, Note_on_c, 3, 68, 72
6, 85800, Note_on_c, 3, 68, 0
6, 85800, Note_on_c, 3, 66, 72
6, 86040, Note_on_c, 3, 66, 0
6, 86040, Note_on_c, 3, 66, 72
6, 86070, Note_on_c, 3, 66, 0
6, 86070, Note_on_c, 3, 68, 72
6, 86100, Note_on_c, 3, 68, 0
6, 86100, Note_on_c, 3, 69, 72
6, 86130, Note_on_c, 3, 69, 0
6, 86130, Note_on_c, 3, 71, 72
6, 86160, Note_on_c, 3, 71, 0
6, 86160, Note_on_c, 3, 73, 72
6, 86190, Note_on_c, 3, 73, 0
6, 86190, Note_on_c, 3, 71, 72
6, 86220, Note_on_c, 3, 71, 0
6, 86220, Note_on_c, 3, 73, 72
6, 86250, Note_on_c, 3, 73, 0
6, 86250, Note_on_c, 3, 74, 72
6, 86280, Note_on_c, 3, 74, 0
6, 86280, Note_on_c, 3, 76, 72
6, 86340, Note_on_c, 3, 76, 0
6, 86340, Note_on_c, 3, 69, 72
6, 86400, Note_on_c, 3, 69, 0
6, 86400, Note_on_c, 3, 79, 72
6, 86430, Note_on_c, 3, 79, 0
6, 86430, Note_on_c, 3, 76, 72
6, 86460, Note_on_c, 3, 76, 0
6, 86460, Note_on_c, 3, 78, 72
6, 86490, Note_on_c, 3, 78, 0
6, 86520, Note_on_c, 3, 78, 72
6, 86760, Note_on_c, 3, 78, 0
6, 86760, Note_on_c, 3, 71, 72
6, 86820, Note_on_c, 3, 71, 0
6, 86820, Note_on_c, 3, 73, 72
6, 86850, Note_on_c, 3, 73, 0
6, 86850, Note_on_c, 3, 74, 72
6, 86880, Note_on_c, 3, 74, 0
6, 86880, Note_on_c, 3, 74, 72
6, 86910, Note_on_c, 3, 74, 0
6, 86910, Note_on_c, 3, 73, 72
6, 86940, Note_on_c, 3, 73, 0
6, 86940, Note_on_c, 3, 71, 72
6, 86970, Note_on_c, 3, 71, 0
6, 86970, Note_on_c, 3, 69, 72
6, 87000, Note_on_c, 3, 69, 0
6, 87000, Note_on_c, 3, 81, 72
6, 87030, Note_on_c, 3, 81, 0
6, 87030, Note_on_c, 3, 80, 72
6, 87060, Note_on_c, 3, 80, 0
6, 87060, Note_on_c, 3, 78, 72
6, 87180, Note_on_c, 3, 78, 0
6, 87180, Note_on_c, 3, 76, 72
6, 87240, Note_on_c, 3, 76, 0
6, 87240, Note_on_c, 3, 75, 72
6, 87330, Note_on_c, 3, 75, 0
6, 87330, Note_on_c, 3, 76, 72
6, 87345, Note_on_c, 3, 76, 0
6, 87345, Note_on_c, 3, 78, 72
6, 87360, Note_on_c, 3, 78, 0
6, 87360, Note_on_c, 3, 76, 72
6, 87420, Note_on_c, 3, 76, 0
6, 87420, Note_on_c, 3, 64, 72
6, 87540, Note_on_c, 3, 64, 0
6, 87540, Note_on_c, 3, 66, 72
6, 87570, Note_on_c, 3, 66, 0
6, 87570, Note_on_c, 3, 68, 72
6, 87600, Note_on_c, 3, 68, 0
6, 87600, Note_on_c, 3, 66, 72
6, 87630, Note_on_c, 3, 66, 0
6, 87630, Note_on_c, 3, 69, 72
6, 87660, Note_on_c, 3, 69, 0
6, 87660, Note_on_c, 3, 68, 72
6, 87780, Note_on_c, 3, 68, 0
6, 87780, Note_on_c, 3, 69, 72
6, 87810, Note_on_c, 3, 69, 0
6, 87810, Note_on_c, 3, 71, 72
6, 87840, Note_on_c, 3, 71, 0
6, 87840, Note_on_c, 3, 69, 72
6, 87870, Note_on_c, 3, 69, 0
6, 87870, Note_on_c, 3, 73, 72
6, 87900, Note_on_c, 3, 73, 0
6, 87900, Note_on_c, 3, 71, 72
6, 87930, Note_on_c, 3, 71, 0
6, 87960, Note_on_c, 3, 71, 72
6, 87990, Note_on_c, 3, 71, 0
6, 87990, Note_on_c, 3, 74, 72
6, 88020, Note_on_c, 3, 74, 0
6, 88020, Note_on_c, 3, 78, 72
6, 88140, Note_on_c, 3, 78, 0
6, 88140, Note_on_c, 3, 76, 72
6, 88170, Note_on_c, 3, 76, 0
6, 88170, Note_on_c, 3, 74, 72
6, 88200, Note_on_c, 3, 74, 0
6, 88200, Note_on_c, 3, 73, 72
6, 88230, Note_on_c, 3, 73, 0
6, 88230, Note_on_c, 3, 71, 72
6, 88260, Note_on_c, 3, 71, 0
6, 88260, Note_on_c, 3, 69, 72
6, 88290, Note_on_c, 3, 69, 0
6, 88290, Note_on_c, 3, 68, 72
6, 88320, Note_on_c, 3, 68, 0
6, 88320, Note_on_c, 3, 66, 72
6, 88350, Note_on_c, 3, 66, 0
6, 88350, Note_on_c, 3, 64, 72
6, 88380, Note_on_c, 3, 64, 0
6, 88380, Note_on_c, 3, 74, 72
6, 88410, Note_on_c, 3, 74, 0
6, 88440, Note_on_c, 3, 73, 72
6, 88470, Note_on_c, 3, 73, 0
6, 88470, Note_on_c, 3, 74, 72
6, 88500, Note_on_c, 3, 74, 0
6, 88500, Note_on_c, 3, 76, 72
6, 88530, Note_on_c, 3, 76, 0
6, 88530, Note_on_c, 3, 69, 72
6, 88560, Note_on_c, 3, 69, 0
6, 88560, Note_on_c, 3, 73, 72
6, 88620, Note_on_c, 3, 73, 0
6, 88620, Note_on_c, 3, 71, 72
6, 88635, Note_on_c, 3, 71, 0
6, 88635, Note_on_c, 3, 73, 72
6, 88650, Note_on_c, 3, 73, 0
6, 88650, Note_on_c, 3, 71, 72
6, 88680, Note_on_c, 3, 71, 0
6, 88680, Note_on_c, 3, 69, 72
6, 88920, Note_on_c, 3, 69, 0
6, 97080, Note_on_c, 3, 67, 80
6, 97200, Note_on_c, 3, 67, 0
6, 97200, Note_on_c, 3, 67, 80
6, 97260, Note_on_c, 3, 67, 0
6, 97260, Note_on_c, 3, 69, 80
6, 97320, Note_on_c, 3, 69, 0
6, 97320, Note_on_c, 3, 71, 80
6, 97440, Note_on_c, 3, 71, 0
6, 97440, Note_on_c, 3, 69, 80
6, 97560, Note_on_c, 3, 69, 0
6, 97560, Note_on_c, 3, 67, 80
6, 97680, Note_on_c, 3, 67, 0
6, 97680, Note_on_c, 3, 69, 80
6, 97800, Note_on_c, 3, 69, 0
6, 97800, Note_on_c, 3, 69, 80
6, 97920, Note_on_c, 3, 69, 0
6, 97920, Note_on_c, 3, 71, 80
6, 98028, Note_on_c, 3, 71, 0
6, 98040, Note_on_c, 3, 67, 80
6, 98100, Note_on_c, 3, 67, 0
6, 98100, Note_on_c, 3, 69, 80
6, 98160, Note_on_c, 3, 69, 0
6, 98160, Note_on_c, 3, 71, 80
6, 98280, Note_on_c, 3, 71, 0
6, 98280, Note_on_c, 3, 72, 80
6, 98400, Note_on_c, 3, 72, 0
6, 98400, Note_on_c, 3, 74, 80
6, 98520, Note_on_c, 3, 74, 0
6, 98520, Note_on_c, 3, 72, 80
6, 98580, Note_on_c, 3, 72, 0
6, 98580, Note_on_c, 3, 71, 80
6, 98640, Note_on_c, 3, 71, 0
6, 98640, Note_on_c, 3, 69, 80
6, 98700, Note_on_c, 3, 69, 0
6, 98700, Note_on_c, 3, 67, 80
6, 98760, Note_on_c, 3, 67, 0
6, 98760, Note_on_c, 3, 69, 80
6, 98880, Note_on_c, 3, 69, 0
6, 98880, Note_on_c, 3, 67, 80
6, 98988, Note_on_c, 3, 67, 0
6, 99000, Note_on_c, 3, 67, 80
6, 99120, Note_on_c, 3, 67, 0
6, 99120, Note_on_c, 3, 67, 80
6, 99180, Note_on_c, 3, 67, 0
6, 99180, Note_on_c, 3, 69, 80
6, 99240, Note_on_c, 3, 69, 0
6, 99240, Note_on_c, 3, 71, 80
6, 99360, Note_on_c, 3, 71, 0
6, 99360, Note_on_c, 3, 69, 80
6, 99480, Note_on_c, 3, 69, 0
6, 99480, Note_on_c, 3, 67, 80
6, 99600, Note_on_c, 3, 67, 0
6, 99600, Note_on_c, 3, 69, 80
6, 99720, Note_on_c, 3, 69, 0
6, 99720, Note_on_c, 3, 69, 80
6, 99840, Note_on_c, 3, 69, 0
6, 99840, Note_on_c, 3, 71, 80
6, 99948, Note_on_c, 3, 71, 0
6, 99960, Note_on_c, 3, 67, 80
6, 100020, Note_on_c, 3, 67, 0
6, 100020, Note_on_c, 3, 69, 80
6, 100080, Note_on_c, 3, 69, 0
6, 100080, Note_on_c, 3, 71, 80
6, 100200, Note_on_c, 3, 71, 0
6, 100200, Note_on_c, 3, 72, 80
6, 100320, Note_on_c, 3, 72, 0
6, 100320, Note_on_c, 3, 74, 80
6, 100440, Note_on_c, 3, 74, 0
6, 100440, Note_on_c, 3, 72, 80
6, 100500, Note_on_c, 3, 72, 0
6, 100500, Note_on_c, 3, 71, 80
6, 100560, Note_on_c, 3, 71, 0
6, 100560, Note_on_c, 3, 69, 80
6, 100620, Note_on_c, 3, 69, 0
6, 100620, Note_on_c, 3, 67, 80
6, 100680, Note_on_c, 3, 67, 0
6, 100680, Note_on_c, 3, 69, 80
6, 100800, Note_on_c, 3, 69, 0
6, 100800, Note_on_c, 3, 67, 80
6, 100908, Note_on_c, 3, 67, 0
6, 100920, Note_on_c, 3, 71, 80
6, 101040, Note_on_c, 3, 71, 0
6, 101040, Note_on_c, 3, 71, 80
6, 101160, Note_on_c, 3, 71, 0
6, 101160, Note_on_c, 3, 69, 80
6, 101280, Note_on_c, 3, 69, 0
6, 101280, Note_on_c, 3, 67, 80
6, 101400, Note_on_c, 3, 67, 0
6, 101400, Note_on_c, 3, 66, 80
6, 101520, Note_on_c, 3, 66, 0
6, 101520, Note_on_c, 3, 67, 80
6, 101580, Note_on_c, 3, 67, 0
6, 101580, Note_on_c, 3, 69, 80
6, 101640, Note_on_c, 3, 69, 0
6, 101640, Note_on_c, 3, 71, 80
6, 101760, Note_on_c, 3, 71, 0
6, 101760, Note_on_c, 3, 69, 80
6, 101868, Note_on_c, 3, 69, 0
6, 101880, Note_on_c, 3, 69, 80
6, 102000, Note_on_c, 3, 69, 0
6, 102000, Note_on_c, 3, 67, 80
6, 102120, Note_on_c, 3, 67, 0
6, 102120, Note_on_c, 3, 66, 80
6, 102240, Note_on_c, 3, 66, 0
6, 102240, Note_on_c, 3, 67, 80
6, 102360, Note_on_c, 3, 67, 0
6, 102360, Note_on_c, 3, 62, 80
6, 102480, Note_on_c, 3, 62, 0
6, 102480, Note_on_c, 3, 67, 80
6, 102600, Note_on_c, 3, 67, 0
6, 102600, Note_on_c, 3, 69, 80
6, 102720, Note_on_c, 3, 69, 0
6, 102720, Note_on_c, 3, 71, 80
6, 102828, Note_on_c, 3, 71, 0
6, 102840, Note_on_c, 3, 67, 80
6, 102900, Note_on_c, 3, 67, 0
6, 102900, Note_on_c, 3, 69, 80
6, 102960, Note_on_c, 3, 69, 0
6, 102960, Note_on_c, 3, 71, 80
6, 103080, Note_on_c, 3, 71, 0
6, 103080, Note_on_c, 3, 72, 80
6, 103200, Note_on_c, 3, 72, 0
6, 103200, Note_on_c, 3, 74, 80
6, 103320, Note_on_c, 3, 74, 0
6, 103320, Note_on_c, 3, 72, 80
6, 103380, Note_on_c, 3, 72, 0
6, 103380, Note_on_c, 3, 71, 80
6, 103440, Note_on_c, 3, 71, 0
6, 103440, Note_on_c, 3, 69, 80
6, 103500, Note_on_c, 3, 69, 0
6, 103500, Note_on_c, 3, 67, 80
6, 103560, Note_on_c, 3, 67, 0
6, 103560, Note_on_c, 3, 69, 80
6, 103680, Note_on_c, 3, 69, 0
6, 103680, Note_on_c, 3, 67, 80
6, 103800, Note_on_c, 3, 67, 0
6, 106320, Note_on_c, 3, 78, 70
6, 106679, Note_on_c, 3, 78, 0
6, 106680, Note_on_c, 3, 77, 70
6, 107039, Note_on_c, 3, 77, 0
6, 107040, Note_on_c, 3, 78, 70
6, 107519, Note_on_c, 3, 78, 0
6, 107520, Note_on_c, 3, 76, 70
6, 107879, Note_on_c, 3, 76, 0
6, 107880, Note_on_c, 3, 74, 70
6, 107999, Note_on_c, 3, 74, 0
6, 108060, Note_on_c, 3, 76, 90
6, 108089, Note_on_c, 3, 76, 0
6, 108090, Note_on_c, 3, 73, 90
6, 108119, Note_on_c, 3, 73, 0
6, 108120, Note_on_c, 3, 74, 90
6, 108149, Note_on_c, 3, 74, 0
6, 108150, Note_on_c, 3, 71, 90
6, 108179, Note_on_c, 3, 71, 0
6, 108180, Note_on_c, 3, 73, 90
6, 108209, Note_on_c, 3, 73, 0
6, 108210, Note_on_c, 3, 68, 90
6, 108239, Note_on_c, 3, 68, 0
6, 108240, Note_on_c, 3, 69, 90
6, 108269, Note_on_c, 3, 69, 0
6, 108270, Note_on_c, 3, 73, 90
6, 108299, Note_on_c, 3, 73, 0
6, 108300, Note_on_c, 3, 71, 90
6, 108329, Note_on_c, 3, 71, 0
6, 108330, Note_on_c, 3, 74, 90
6, 108359, Note_on_c, 3, 74, 0
6, 108360, Note_on_c, 3, 73, 70
6, 108539, Note_on_c, 3, 73, 0
6, 108540, Note_on_c, 3, 76, 70
6, 108599, Note_on_c, 3, 76, 0
6, 108600, Note_on_c, 3, 81, 70
6, 108659, Note_on_c, 3, 81, 0
6, 108660, Note_on_c, 3, 78, 70
6, 108719, Note_on_c, 3, 78, 0
6, 108720, Note_on_c, 3, 74, 70
6, 109260, Note_on_c, 3, 74, 0
6, 109260, Note_on_c, 3, 71, 70
6, 109319, Note_on_c, 3, 71, 0
6, 109320, Note_on_c, 3, 67, 70
6, 109379, Note_on_c, 3, 67, 0
6, 109380, Note_on_c, 3, 79, 70
6, 109499, Note_on_c, 3, 79, 0
6, 109500, Note_on_c, 3, 76, 70
6, 109559, Note_on_c, 3, 76, 0
6, 109560, Note_on_c, 3, 73, 70
6, 109679, Note_on_c, 3, 73, 0
6, 109680, Note_on_c, 3, 74, 70
6, 109739, Note_on_c, 3, 74, 0
6, 109740, Note_on_c, 3, 78, 90
6, 109799, Note_on_c, 3, 78, 0
6, 109800, Note_on_c, 3, 76, 90
6, 109859, Note_on_c, 3, 76, 0
6, 109860, Note_on_c, 3, 74, 90
6, 109919, Note_on_c, 3, 74, 0
6, 109920, Note_on_c, 3, 73, 70
6, 110880, Note_on_c, 3, 73, 0
6, 110880, Note_on_c, 3, 71, 70
6, 110939, Note_on_c, 3, 71, 0
6, 110940, Note_on_c, 3, 67, 90
6, 110999, Note_on_c, 3, 67, 0
6, 111000, Note_on_c, 3, 66, 90
6, 111059, Note_on_c, 3, 66, 0
6, 111060, Note_on_c, 3, 64, 90
6, 111119, Note_on_c, 3, 64, 0
6, 111120, Note_on_c, 3, 62, 70
6, 111599, Note_on_c, 3, 62, 0
6, 111600, Note_on_c, 3, 66, 70
6, 112140, Note_on_c, 3, 66, 0
6, 112140, Note_on_c, 3, 66, 90
6, 112199, Note_on_c, 3, 66, 0
6, 112200, Note_on_c, 3, 71, 90
6, 112259, Note_on_c, 3, 71, 0
6, 112260, Note_on_c, 3, 75, 90
6, 112319, Note_on_c, 3, 75, 0
6, 112320, Note_on_c, 3, 78, 70
6, 112559, Note_on_c, 3, 78, 0
6, 112560, Note_on_c, 3, 76, 70
6, 112799, Note_on_c, 3, 76, 0
6, 112800, Note_on_c, 3, 74, 70
6, 113070, Note_on_c, 3, 74, 0
6, 113070, Note_on_c, 3, 73, 90
6, 113099, Note_on_c, 3, 73, 0
6, 113100, Note_on_c, 3, 74, 90
6, 113129, Note_on_c, 3, 74, 0
6, 113130, Note_on_c, 3, 73, 90
6, 113159, Note_on_c, 3, 73, 0
6, 113160, Note_on_c, 3, 71, 90
6, 113189, Note_on_c, 3, 71, 0
6, 113190, Note_on_c, 3, 69, 90
6, 113219, Note_on_c, 3, 69, 0
6, 113220, Note_on_c, 3, 71, 90
6, 113249, Note_on_c, 3, 71, 0
6, 113250, Note_on_c, 3, 69, 90
6, 113279, Note_on_c, 3, 69, 0
6, 113280, Note_on_c, 3, 68, 70
6, 113399, Note_on_c, 3, 68, 0
6, 113460, Note_on_c, 3, 77, 90
6, 113519, Note_on_c, 3, 77, 0
6, 113520, Note_on_c, 3, 78, 90
6, 113549, Note_on_c, 3, 78, 0
6, 113550, Note_on_c, 3, 73, 90
6, 113579, Note_on_c, 3, 73, 0
6, 113580, Note_on_c, 3, 74, 90
6, 113609, Note_on_c, 3, 74, 0
6, 113610, Note_on_c, 3, 71, 90
6, 113639, Note_on_c, 3, 71, 0
6, 113640, Note_on_c, 3, 73, 90
6, 113669, Note_on_c, 3, 73, 0
6, 113670, Note_on_c, 3, 69, 90
6, 113699, Note_on_c, 3, 69, 0
6, 113700, Note_on_c, 3, 71, 90
6, 113729, Note_on_c, 3, 71, 0
6, 113730, Note_on_c, 3, 68, 90
6, 113759, Note_on_c, 3, 68, 0
6, 113760, Note_on_c, 3, 70, 70
6, 113879, Note_on_c, 3, 70, 0
6, 113880, Note_on_c, 3, 73, 70
6, 113999, Note_on_c, 3, 73, 0
6, 114000, Note_on_c, 3, 78, 70
6, 114600, Note_on_c, 3, 78, 0
6, 114660, Note_on_c, 3, 75, 70
6, 114719, Note_on_c, 3, 75, 0
6, 114720, Note_on_c, 3, 76, 70
6, 114779, Note_on_c, 3, 76, 0
6, 114780, Note_on_c, 3, 70, 70
6, 114839, Note_on_c, 3, 70, 0
6, 114840, Note_on_c, 3, 71, 70
6, 114899, Note_on_c, 3, 71, 0
6, 114900, Note_on_c, 3, 59, 70
6, 114959, Note_on_c, 3, 59, 0
6, 115020, Note_on_c, 3, 76, 70
6, 115079, Note_on_c, 3, 76, 0
6, 115080, Note_on_c, 3, 76, 70
6, 115139, Note_on_c, 3, 76, 0
6, 115140, Note_on_c, 3, 67, 70
6, 115199, Note_on_c, 3, 67, 0
6, 115260, Note_on_c, 3, 73, 70
6, 115319, Note_on_c, 3, 73, 0
6, 115320, Note_on_c, 3, 79, 70
6, 115379, Note_on_c, 3, 79, 0
6, 115380, Note_on_c, 3, 78, 70
6, 115439, Note_on_c, 3, 78, 0
6, 115560, Note_on_c, 3, 73, 70
6, 115679, Note_on_c, 3, 73, 0
6, 115740, Note_on_c, 3, 74, 70
6, 115799, Note_on_c, 3, 74, 0
6, 115800, Note_on_c, 3, 73, 70
6, 115859, Note_on_c, 3, 73, 0
6, 115860, Note_on_c, 3, 64, 70
6, 115919, Note_on_c, 3, 64, 0
6, 115920, Note_on_c, 3, 62, 70
6, 116160, Note_on_c, 3, 62, 0
6, 116580, Note_on_c, 3, 66, 80
6, 116639, Note_on_c, 3, 66, 0
6, 116640, Note_on_c, 3, 71, 80
6, 116699, Note_on_c, 3, 71, 0
6, 116700, Note_on_c, 3, 74, 80
6, 116759, Note_on_c, 3, 74, 0
6, 116760, Note_on_c, 3, 73, 80
6, 116819, Note_on_c, 3, 73, 0
6, 116820, Note_on_c, 3, 70, 80
6, 116879, Note_on_c, 3, 70, 0
6, 116880, Note_on_c, 3, 71, 80
6, 116939, Note_on_c, 3, 71, 0
6, 116940, Note_on_c, 3, 74, 80
6, 116999, Note_on_c, 3, 74, 0
6, 117000, Note_on_c, 3, 73, 80
6, 117059, Note_on_c, 3, 73, 0
6, 117060, Note_on_c, 3, 70, 80
6, 117119, Note_on_c, 3, 70, 0
6, 117120, Note_on_c, 3, 71, 80
6, 117179, Note_on_c, 3, 71, 0
6, 117180, Note_on_c, 3, 79, 80
6, 117239, Note_on_c, 3, 79, 0
6, 117240, Note_on_c, 3, 78, 80
6, 117299, Note_on_c, 3, 78, 0
6, 117300, Note_on_c, 3, 76, 80
6, 117359, Note_on_c, 3, 76, 0
6, 117360, Note_on_c, 3, 74, 80
6, 117389, Note_on_c, 3, 74, 0
6, 117390, Note_on_c, 3, 73, 80
6, 117419, Note_on_c, 3, 73, 0
6, 117420, Note_on_c, 3, 74, 80
6, 117449, Note_on_c, 3, 74, 0
6, 117450, Note_on_c, 3, 73, 80
6, 117479, Note_on_c, 3, 73, 0
6, 117480, Note_on_c, 3, 71, 80
6, 117539, Note_on_c, 3, 71, 0
6, 117540, Note_on_c, 3, 66, 60
6, 117599, Note_on_c, 3, 66, 0
6, 117600, Note_on_c, 3, 71, 60
6, 117659, Note_on_c, 3, 71, 0
6, 117660, Note_on_c, 3, 74, 60
6, 117719, Note_on_c, 3, 74, 0
6, 117720, Note_on_c, 3, 73, 60
6, 117779, Note_on_c, 3, 73, 0
6, 117780, Note_on_c, 3, 70, 60
6, 117839, Note_on_c, 3, 70, 0
6, 117840, Note_on_c, 3, 71, 60
6, 117899, Note_on_c, 3, 71, 0
6, 117900, Note_on_c, 3, 74, 60
6, 117959, Note_on_c, 3, 74, 0
6, 117960, Note_on_c, 3, 73, 60
6, 118019, Note_on_c, 3, 73, 0
6, 118020, Note_on_c, 3, 70, 60
6, 118079, Note_on_c, 3, 70, 0
6, 118080, Note_on_c, 3, 71, 60
6, 118139, Note_on_c, 3, 71, 0
6, 118140, Note_on_c, 3, 79, 60
6, 118199, Note_on_c, 3, 79, 0
6, 118200, Note_on_c, 3, 78, 60
6, 118259, Note_on_c, 3, 78, 0
6, 118260, Note_on_c, 3, 76, 60
6, 118319, Note_on_c, 3, 76, 0
6, 118320, Note_on_c, 3, 74, 60
6, 118349, Note_on_c, 3, 74, 0
6, 118350, Note_on_c, 3, 73, 60
6, 118379, Note_on_c, 3, 73, 0
6, 118380, Note_on_c, 3, 74, 60
6, 118409, Note_on_c, 3, 74, 0
6, 118410, Note_on_c, 3, 73, 60
6, 118439, Note_on_c, 3, 73, 0
6, 118440, Note_on_c, 3, 71, 60
6, 118499, Note_on_c, 3, 71, 0
6, 118500, Note_on_c, 3, 74, 80
6, 118559, Note_on_c, 3, 74, 0
6, 118560, Note_on_c, 3, 74, 80
6, 118619, Note_on_c, 3, 74, 0
6, 118620, Note_on_c, 3, 73, 80
6, 118679, Note_on_c, 3, 73, 0
6, 118740, Note_on_c, 3, 77, 80
6, 118799, Note_on_c, 3, 77, 0
6, 118800, Note_on_c, 3, 77, 80
6, 118859, Note_on_c, 3, 77, 0
6, 118860, Note_on_c, 3, 78, 80
6, 118919, Note_on_c, 3, 78, 0
6, 118920, Note_on_c, 3, 66, 80
6, 119069, Note_on_c, 3, 66, 0
6, 119070, Note_on_c, 3, 65, 80
6, 119099, Note_on_c, 3, 65, 0
6, 119100, Note_on_c, 3, 66, 80
6, 119129, Note_on_c, 3, 66, 0
6, 119130, Note_on_c, 3, 65, 80
6, 119159, Note_on_c, 3, 65, 0
6, 119160, Note_on_c, 3, 66, 80
6, 119309, Note_on_c, 3, 66, 0
6, 119310, Note_on_c, 3, 63, 80
6, 119339, Note_on_c, 3, 63, 0
6, 119340, Note_on_c, 3, 65, 80
6, 119399, Note_on_c, 3, 65, 0
6, 119460, Note_on_c, 3, 77, 80
6, 119519, Note_on_c, 3, 77, 0
6, 119520, Note_on_c, 3, 78, 80
6, 119549, Note_on_c, 3, 78, 0
6, 119550, Note_on_c, 3, 80, 80
6, 119579, Note_on_c, 3, 80, 0
6, 119580, Note_on_c, 3, 81, 80
6, 119609, Note_on_c, 3, 81, 0
6, 119610, Note_on_c, 3, 80, 80
6, 119639, Note_on_c, 3, 80, 0
6, 119640, Note_on_c, 3, 78, 80
6, 119699, Note_on_c, 3, 78, 0
6, 119700, Note_on_c, 3, 77, 80
6, 119759, Note_on_c, 3, 77, 0
6, 119760, Note_on_c, 3, 78, 80
6, 119819, Note_on_c, 3, 78, 0
6, 119820, Note_on_c, 3, 76, 80
6, 119849, Note_on_c, 3, 76, 0
6, 119850, Note_on_c, 3, 74, 80
6, 119879, Note_on_c, 3, 74, 0
6, 119880, Note_on_c, 3, 73, 80
6, 119939, Note_on_c, 3, 73, 0
6, 119940, Note_on_c, 3, 71, 80
6, 119999, Note_on_c, 3, 71, 0
6, 120000, Note_on_c, 3, 69, 80
6, 120029, Note_on_c, 3, 69, 0
6, 120030, Note_on_c, 3, 74, 80
6, 120059, Note_on_c, 3, 74, 0
6, 120060, Note_on_c, 3, 73, 80
6, 120089, Note_on_c, 3, 73, 0
6, 120090, Note_on_c, 3, 71, 80
6, 120119, Note_on_c, 3, 71, 0
6, 120120, Note_on_c, 3, 69, 80
6, 120179, Note_on_c, 3, 69, 0
6, 120180, Note_on_c, 3, 68, 80
6, 120239, Note_on_c, 3, 68, 0
6, 120240, Note_on_c, 3, 66, 80
6, 120359, Note_on_c, 3, 66, 0
6, 120480, Note_on_c, 3, 74, 65
6, 120539, Note_on_c, 3, 74, 0
6, 120600, Note_on_c, 3, 79, 65
6, 120659, Note_on_c, 3, 79, 0
6, 120780, Note_on_c, 3, 78, 65
6, 120839, Note_on_c, 3, 78, 0
6, 120840, Note_on_c, 3, 76, 65
6, 120899, Note_on_c, 3, 76, 0
6, 120900, Note_on_c, 3, 73, 65
6, 120959, Note_on_c, 3, 73, 0
6, 120960, Note_on_c, 3, 74, 65
6, 121019, Note_on_c, 3, 74, 0
6, 121020, Note_on_c, 3, 73, 65
6, 121079, Note_on_c, 3, 73, 0
6, 121080, Note_on_c, 3, 71, 65
6, 121139, Note_on_c, 3, 71, 0
6, 121140, Note_on_c, 3, 70, 65
6, 121199, Note_on_c, 3, 70, 0
6, 121200, Note_on_c, 3, 71, 65
6, 121319, Note_on_c, 3, 71, 0
6, 121500, Note_on_c, 3, 71, 65
6, 121559, Note_on_c, 3, 71, 0
6, 121560, Note_on_c, 3, 70, 65
6, 121619, Note_on_c, 3, 70, 0
6, 121620, Note_on_c, 3, 79, 65
6, 121679, Note_on_c, 3, 79, 0
6, 121740, Note_on_c, 3, 78, 65
6, 121799, Note_on_c, 3, 78, 0
6, 121800, Note_on_c, 3, 76, 65
6, 121859, Note_on_c, 3, 76, 0
6, 121860, Note_on_c, 3, 73, 65
6, 121919, Note_on_c, 3, 73, 0
6, 121920, Note_on_c, 3, 74, 65
6, 121979, Note_on_c, 3, 74, 0
6, 121980, Note_on_c, 3, 73, 65
6, 122039, Note_on_c, 3, 73, 0
6, 122040, Note_on_c, 3, 71, 65
6, 122099, Note_on_c, 3, 71, 0
6, 122100, Note_on_c, 3, 70, 65
6, 122159, Note_on_c, 3, 70, 0
6, 122160, Note_on_c, 3, 71, 65
6, 122279, Note_on_c, 3, 71, 0
6, 122700, Note_on_c, 3, 73, 65
6, 122759, Note_on_c, 3, 73, 0
6, 122760, Note_on_c, 3, 78, 65
6, 122909, Note_on_c, 3, 78, 0
6, 122910, Note_on_c, 3, 77, 65
6, 122939, Note_on_c, 3, 77, 0
6, 122940, Note_on_c, 3, 78, 65
6, 122969, Note_on_c, 3, 78, 0
6, 122970, Note_on_c, 3, 77, 65
6, 122999, Note_on_c, 3, 77, 0
6, 123000, Note_on_c, 3, 78, 65
6, 123149, Note_on_c, 3, 78, 0
6, 123150, Note_on_c, 3, 75, 65
6, 123179, Note_on_c, 3, 75, 0
6, 123180, Note_on_c, 3, 77, 65
6, 123239, Note_on_c, 3, 77, 0
6, 123240, Note_on_c, 3, 78, 65
6, 123299, Note_on_c, 3, 78, 0
6, 123300, Note_on_c, 3, 80, 65
6, 123359, Note_on_c, 3, 80, 0
6, 123420, Note_on_c, 3, 78, 65
6, 123479, Note_on_c, 3, 78, 0
6, 123480, Note_on_c, 3, 80, 65
6, 123539, Note_on_c, 3, 80, 0
6, 123540, Note_on_c, 3, 82, 65
6, 123599, Note_on_c, 3, 82, 0
6, 123660, Note_on_c, 3, 66, 65
6, 123719, Note_on_c, 3, 66, 0
6, 123720, Note_on_c, 3, 71, 65
6, 123749, Note_on_c, 3, 71, 0
6, 123750, Note_on_c, 3, 69, 65
6, 123779, Note_on_c, 3, 69, 0
6, 123780, Note_on_c, 3, 71, 65
6, 123809, Note_on_c, 3, 71, 0
6, 123810, Note_on_c, 3, 69, 65
6, 123839, Note_on_c, 3, 69, 0
6, 123840, Note_on_c, 3, 67, 65
6, 123899, Note_on_c, 3, 67, 0
6, 123900, Note_on_c, 3, 68, 65
6, 123959, Note_on_c, 3, 68, 0
6, 123960, Note_on_c, 3, 70, 65
6, 124019, Note_on_c, 3, 70, 0
6, 124020, Note_on_c, 3, 71, 65
6, 124079, Note_on_c, 3, 71, 0
6, 124080, Note_on_c, 3, 79, 65
6, 124139, Note_on_c, 3, 79, 0
6, 124140, Note_on_c, 3, 78, 65
6, 124199, Note_on_c, 3, 78, 0
6, 124320, Note_on_c, 3, 78, 65
6, 124379, Note_on_c, 3, 78, 0
6, 124380, Note_on_c, 3, 76, 65
6, 124439, Note_on_c, 3, 76, 0
6, 124440, Note_on_c, 3, 73, 65
6, 124499, Note_on_c, 3, 73, 0
6, 124620, Note_on_c, 3, 71, 65
6, 124679, Note_on_c, 3, 71, 0
6, 124680, Note_on_c, 3, 70, 65
6, 124739, Note_on_c, 3, 70, 0
6, 124740, Note_on_c, 3, 73, 65
6, 124799, Note_on_c, 3, 73, 0
6, 124800, Note_on_c, 3, 66, 65
6, 124859, Note_on_c, 3, 66, 0
6, 124860, Note_on_c, 3, 64, 65
6, 124919, Note_on_c, 3, 64, 0
6, 124920, Note_on_c, 3, 62, 65
6, 124979, Note_on_c, 3, 62, 0
6, 124980, Note_on_c, 3, 61, 65
6, 125039, Note_on_c, 3, 61, 0
6, 125040, Note_on_c, 3, 59, 65
6, 125159, Note_on_c, 3, 59, 0
6, 125220, Note_on_c, 3, 66, 65
6, 125279, Note_on_c, 3, 66, 0
6, 125280, Note_on_c, 3, 71, 65
6, 125339, Note_on_c, 3, 71, 0
6, 125340, Note_on_c, 3, 74, 65
6, 125399, Note_on_c, 3, 74, 0
6, 125400, Note_on_c, 3, 73, 65
6, 125459, Note_on_c, 3, 73, 0
6, 125460, Note_on_c, 3, 70, 65
6, 125519, Note_on_c, 3, 70, 0
6, 125520, Note_on_c, 3, 71, 65
6, 125579, Note_on_c, 3, 71, 0
6, 125580, Note_on_c, 3, 74, 65
6, 125639, Note_on_c, 3, 74, 0
6, 125640, Note_on_c, 3, 73, 65
6, 125699, Note_on_c, 3, 73, 0
6, 125700, Note_on_c, 3, 70, 65
6, 125759, Note_on_c, 3, 70, 0
6, 125760, Note_on_c, 3, 71, 65
6, 125819, Note_on_c, 3, 71, 0
6, 125820, Note_on_c, 3, 79, 65
6, 125879, Note_on_c, 3, 79, 0
6, 125880, Note_on_c, 3, 78, 65
6, 125939, Note_on_c, 3, 78, 0
6, 125940, Note_on_c, 3, 76, 65
6, 125999, Note_on_c, 3, 76, 0
6, 126000, Note_on_c, 3, 74, 65
6, 126029, Note_on_c, 3, 74, 0
6, 126030, Note_on_c, 3, 73, 65
6, 126059, Note_on_c, 3, 73, 0
6, 126060, Note_on_c, 3, 74, 65
6, 126089, Note_on_c, 3, 74, 0
6, 126090, Note_on_c, 3, 73, 65
6, 126119, Note_on_c, 3, 73, 0
6, 126120, Note_on_c, 3, 71, 65
6, 126179, Note_on_c, 3, 71, 0
6, 126180, Note_on_c, 3, 74, 65
6, 126239, Note_on_c, 3, 74, 0
6, 126240, Note_on_c, 3, 74, 65
6, 126299, Note_on_c, 3, 74, 0
6, 126300, Note_on_c, 3, 73, 65
6, 126359, Note_on_c, 3, 73, 0
6, 126420, Note_on_c, 3, 77, 65
6, 126479, Note_on_c, 3, 77, 0
6, 126480, Note_on_c, 3, 77, 65
6, 126539, Note_on_c, 3, 77, 0
6, 126540, Note_on_c, 3, 78, 65
6, 126599, Note_on_c, 3, 78, 0
6, 126600, Note_on_c, 3, 66, 65
6, 126749, Note_on_c, 3, 66, 0
6, 126750, Note_on_c, 3, 65, 65
6, 126779, Note_on_c, 3, 65, 0
6, 126780, Note_on_c, 3, 66, 65
6, 126809, Note_on_c, 3, 66, 0
6, 126810, Note_on_c, 3, 65, 65
6, 126839, Note_on_c, 3, 65, 0
6, 126840, Note_on_c, 3, 66, 65
6, 126989, Note_on_c, 3, 66, 0
6, 126990, Note_on_c, 3, 63, 65
6, 127019, Note_on_c, 3, 63, 0
6, 127020, Note_on_c, 3, 65, 65
6, 127079, Note_on_c, 3, 65, 0
6, 127140, Note_on_c, 3, 73, 65
6, 127199, Note_on_c, 3, 73, 0
6, 127200, Note_on_c, 3, 78, 65
6, 127229, Note_on_c, 3, 78, 0
6, 127230, Note_on_c, 3, 80, 65
6, 127259, Note_on_c, 3, 80, 0
6, 127260, Note_on_c, 3, 81, 65
6, 127289, Note_on_c, 3, 81, 0
6, 127290, Note_on_c, 3, 80, 65
6, 127319, Note_on_c, 3, 80, 0
6, 127320, Note_on_c, 3, 78, 65
6, 127379, Note_on_c, 3, 78, 0
6, 127620, Note_on_c, 3, 77, 65
6, 127679, Note_on_c, 3, 77, 0
6, 127680, Note_on_c, 3, 78, 65
6, 127739, Note_on_c, 3, 78, 0
6, 127740, Note_on_c, 3, 66, 65
6, 127859, Note_on_c, 3, 66, 0
6, 127860, Note_on_c, 3, 65, 65
6, 127919, Note_on_c, 3, 65, 0
6, 127920, Note_on_c, 3, 66, 65
6, 128040, Note_on_c, 3, 66, 0
6, 128100, Note_on_c, 3, 66, 80
6, 128129, Note_on_c, 3, 66, 0
6, 128130, Note_on_c, 3, 68, 80
6, 128159, Note_on_c, 3, 68, 0
6, 128160, Note_on_c, 3, 69, 80
6, 128219, Note_on_c, 3, 69, 0
6, 128220, Note_on_c, 3, 73, 80
6, 128279, Note_on_c, 3, 73, 0
6, 128280, Note_on_c, 3, 71, 80
6, 128339, Note_on_c, 3, 71, 0
6, 128340, Note_on_c, 3, 68, 80
6, 128399, Note_on_c, 3, 68, 0
6, 128400, Note_on_c, 3, 69, 80
6, 128459, Note_on_c, 3, 69, 0
6, 128460, Note_on_c, 3, 73, 80
6, 128519, Note_on_c, 3, 73, 0
6, 128520, Note_on_c, 3, 71, 80
6, 128579, Note_on_c, 3, 71, 0
6, 128580, Note_on_c, 3, 68, 80
6, 128639, Note_on_c, 3, 68, 0
6, 128640, Note_on_c, 3, 69, 80
6, 128699, Note_on_c, 3, 69, 0
6, 128700, Note_on_c, 3, 66, 80
6, 128759, Note_on_c, 3, 66, 0
6, 128760, Note_on_c, 3, 65, 80
6, 128819, Note_on_c, 3, 65, 0
6, 128820, Note_on_c, 3, 77, 80
6, 128879, Note_on_c, 3, 77, 0
6, 128880, Note_on_c, 3, 78, 80
6, 128999, Note_on_c, 3, 78, 0
6, 129060, Note_on_c, 3, 66, 80
6, 129119, Note_on_c, 3, 66, 0
6, 129120, Note_on_c, 3, 71, 80
6, 129179, Note_on_c, 3, 71, 0
6, 129180, Note_on_c, 3, 74, 80
6, 129239, Note_on_c, 3, 74, 0
6, 129240, Note_on_c, 3, 73, 80
6, 129299, Note_on_c, 3, 73, 0
6, 129300, Note_on_c, 3, 70, 80
6, 129359, Note_on_c, 3, 70, 0
6, 129360, Note_on_c, 3, 71, 80
6, 129419, Note_on_c, 3, 71, 0
6, 129420, Note_on_c, 3, 74, 80
6, 129479, Note_on_c, 3, 74, 0
6, 129480, Note_on_c, 3, 73, 80
6, 129539, Note_on_c, 3, 73, 0
6, 129540, Note_on_c, 3, 70, 80
6, 129599, Note_on_c, 3, 70, 0
6, 129600, Note_on_c, 3, 71, 80
6, 129659, Note_on_c, 3, 71, 0
6, 129660, Note_on_c, 3, 79, 80
6, 129719, Note_on_c, 3, 79, 0
6, 129720, Note_on_c, 3, 78, 80
6, 129779, Note_on_c, 3, 78, 0
6, 129780, Note_on_c, 3, 76, 80
6, 129839, Note_on_c, 3, 76, 0
6, 129840, Note_on_c, 3, 74, 80
6, 129869, Note_on_c, 3, 74, 0
6, 129870, Note_on_c, 3, 73, 80
6, 129899, Note_on_c, 3, 73, 0
6, 129900, Note_on_c, 3, 74, 80
6, 129929, Note_on_c, 3, 74, 0
6, 129930, Note_on_c, 3, 73, 80
6, 129959, Note_on_c, 3, 73, 0
6, 129960, Note_on_c, 3, 71, 80
6, 129989, Note_on_c, 3, 71, 0
6, 129990, Note_on_c, 3, 69, 80
6, 130019, Note_on_c, 3, 69, 0
6, 130020, Note_on_c, 3, 71, 80
6, 130049, Note_on_c, 3, 71, 0
6, 130050, Note_on_c, 3, 69, 80
6, 130079, Note_on_c, 3, 69, 0
6, 130080, Note_on_c, 3, 68, 80
6, 130139, Note_on_c, 3, 68, 0
6, 130140, Note_on_c, 3, 83, 80
6, 130199, Note_on_c, 3, 83, 0
6, 130200, Note_on_c, 3, 83, 80
6, 130259, Note_on_c, 3, 83, 0
6, 130260, Note_on_c, 3, 81, 80
6, 130319, Note_on_c, 3, 81, 0
6, 130380, Note_on_c, 3, 72, 80
6, 130439, Note_on_c, 3, 72, 0
6, 130440, Note_on_c, 3, 72, 80
6, 130499, Note_on_c, 3, 72, 0
6, 130500, Note_on_c, 3, 73, 80
6, 130559, Note_on_c, 3, 73, 0
6, 130980, Note_on_c, 3, 73, 80
6, 131039, Note_on_c, 3, 73, 0
6, 131040, Note_on_c, 3, 78, 80
6, 131069, Note_on_c, 3, 78, 0
6, 131070, Note_on_c, 3, 80, 80
6, 131099, Note_on_c, 3, 80, 0
6, 131100, Note_on_c, 3, 81, 80
6, 131129, Note_on_c, 3, 81, 0
6, 131130, Note_on_c, 3, 80, 80
6, 131159, Note_on_c, 3, 80, 0
6, 131160, Note_on_c, 3, 78, 80
6, 131219, Note_on_c, 3, 78, 0
6, 131220, Note_on_c, 3, 77, 80
6, 131279, Note_on_c, 3, 77, 0
6, 131280, Note_on_c, 3, 78, 80
6, 131339, Note_on_c, 3, 78, 0
6, 131340, Note_on_c, 3, 76, 80
6, 131369, Note_on_c, 3, 76, 0
6, 131370, Note_on_c, 3, 74, 80
6, 131399, Note_on_c, 3, 74, 0
6, 131400, Note_on_c, 3, 73, 80
6, 131459, Note_on_c, 3, 73, 0
6, 131460, Note_on_c, 3, 71, 80
6, 131519, Note_on_c, 3, 71, 0
6, 131520, Note_on_c, 3, 69, 80
6, 131549, Note_on_c, 3, 69, 0
6, 131550, Note_on_c, 3, 74, 80
6, 131579, Note_on_c, 3, 74, 0
6, 131580, Note_on_c, 3, 73, 80
6, 131609, Note_on_c, 3, 73, 0
6, 131610, Note_on_c, 3, 71, 80
6, 131639, Note_on_c, 3, 71, 0
6, 131640, Note_on_c, 3, 69, 80
6, 131699, Note_on_c, 3, 69, 0
6, 131700, Note_on_c, 3, 68, 80
6, 131759, Note_on_c, 3, 68, 0
6, 131760, Note_on_c, 3, 66, 80
6, 131879, Note_on_c, 3, 66, 0
6, 132060, Note_on_c, 3, 74, 65
6, 132119, Note_on_c, 3, 74, 0
6, 132120, Note_on_c, 3, 76, 65
6, 132179, Note_on_c, 3, 76, 0
6, 132300, Note_on_c, 3, 74, 65
6, 132359, Note_on_c, 3, 74, 0
6, 132360, Note_on_c, 3, 73, 65
6, 132419, Note_on_c, 3, 73, 0
6, 132540, Note_on_c, 3, 71, 65
6, 132599, Note_on_c, 3, 71, 0
6, 132600, Note_on_c, 3, 73, 65
6, 132659, Note_on_c, 3, 73, 0
6, 132660, Note_on_c, 3, 76, 65
6, 132719, Note_on_c, 3, 76, 0
6, 132720, Note_on_c, 3, 74, 65
6, 132779, Note_on_c, 3, 74, 0
6, 132780, Note_on_c, 3, 70, 65
6, 132839, Note_on_c, 3, 70, 0
6, 132840, Note_on_c, 3, 71, 65
6, 132869, Note_on_c, 3, 71, 0
6, 132870, Note_on_c, 3, 69, 65
6, 132899, Note_on_c, 3, 69, 0
6, 132900, Note_on_c, 3, 71, 65
6, 132929, Note_on_c, 3, 71, 0
6, 132930, Note_on_c, 3, 69, 65
6, 132959, Note_on_c, 3, 69, 0
6, 132960, Note_on_c, 3, 67, 65
6, 133019, Note_on_c, 3, 67, 0
6, 133140, Note_on_c, 3, 81, 65
6, 133199, Note_on_c, 3, 81, 0
6, 133200, Note_on_c, 3, 79, 65
6, 133259, Note_on_c, 3, 79, 0
6, 133380, Note_on_c, 3, 75, 65
6, 133439, Note_on_c, 3, 75, 0
6, 133440, Note_on_c, 3, 76, 65
6, 133499, Note_on_c, 3, 76, 0
6, 133620, Note_on_c, 3, 70, 65
6, 133679, Note_on_c, 3, 70, 0
6, 133680, Note_on_c, 3, 71, 65
6, 133799, Note_on_c, 3, 71, 0
6, 134040, Note_on_c, 3, 69, 65
6, 134099, Note_on_c, 3, 69, 0
6, 134100, Note_on_c, 3, 67, 65
6, 134159, Note_on_c, 3, 67, 0
6, 134280, Note_on_c, 3, 75, 65
6, 134339, Note_on_c, 3, 75, 0
6, 134340, Note_on_c, 3, 76, 65
6, 134399, Note_on_c, 3, 76, 0
6, 134520, Note_on_c, 3, 81, 65
6, 134579, Note_on_c, 3, 81, 0
6, 134580, Note_on_c, 3, 79, 65
6, 134639, Note_on_c, 3, 79, 0
6, 134760, Note_on_c, 3, 69, 65
6, 134879, Note_on_c, 3, 69, 0
6, 135000, Note_on_c, 3, 76, 65
6, 135059, Note_on_c, 3, 76, 0
6, 135060, Note_on_c, 3, 75, 65
6, 135119, Note_on_c, 3, 75, 0
6, 135240, Note_on_c, 3, 69, 65
6, 135299, Note_on_c, 3, 69, 0
6, 135300, Note_on_c, 3, 67, 65
6, 135359, Note_on_c, 3, 67, 0
6, 135360, Note_on_c, 3, 66, 65
6, 135419, Note_on_c, 3, 66, 0
6, 135420, Note_on_c, 3, 64, 65
6, 135479, Note_on_c, 3, 64, 0
6, 135780, Note_on_c, 3, 74, 80
6, 135839, Note_on_c, 3, 74, 0
6, 135840, Note_on_c, 3, 74, 80
6, 135899, Note_on_c, 3, 74, 0
6, 135900, Note_on_c, 3, 72, 80
6, 135959, Note_on_c, 3, 72, 0
6, 136020, Note_on_c, 3, 75, 80
6, 136079, Note_on_c, 3, 75, 0
6, 136080, Note_on_c, 3, 75, 80
6, 136139, Note_on_c, 3, 75, 0
6, 136140, Note_on_c, 3, 76, 80
6, 136199, Note_on_c, 3, 76, 0
6, 136200, Note_on_c, 3, 64, 80
6, 136349, Note_on_c, 3, 64, 0
6, 136350, Note_on_c, 3, 63, 80
6, 136379, Note_on_c, 3, 63, 0
6, 136380, Note_on_c, 3, 64, 80
6, 136409, Note_on_c, 3, 64, 0
6, 136410, Note_on_c, 3, 63, 80
6, 136439, Note_on_c, 3, 63, 0
6, 136440, Note_on_c, 3, 64, 80
6, 136589, Note_on_c, 3, 64, 0
6, 136590, Note_on_c, 3, 61, 80
6, 136619, Note_on_c, 3, 61, 0
6, 136620, Note_on_c, 3, 63, 80
6, 136679, Note_on_c, 3, 63, 0
6, 136740, Note_on_c, 3, 71, 80
6, 136799, Note_on_c, 3, 71, 0
6, 136800, Note_on_c, 3, 76, 80
6, 136829, Note_on_c, 3, 76, 0
6, 136830, Note_on_c, 3, 78, 80
6, 136859, Note_on_c, 3, 78, 0
6, 136860, Note_on_c, 3, 79, 80
6, 136889, Note_on_c, 3, 79, 0
6, 136890, Note_on_c, 3, 78, 80
6, 136919, Note_on_c, 3, 78, 0
6, 136920, Note_on_c, 3, 76, 80
6, 136979, Note_on_c, 3, 76, 0
6, 136980, Note_on_c, 3, 75, 80
6, 137039, Note_on_c, 3, 75, 0
6, 137040, Note_on_c, 3, 76, 80
6, 137099, Note_on_c, 3, 76, 0
6, 137100, Note_on_c, 3, 74, 80
6, 137129, Note_on_c, 3, 74, 0
6, 137130, Note_on_c, 3, 72, 80
6, 137159, Note_on_c, 3, 72, 0
6, 137160, Note_on_c, 3, 71, 80
6, 137219, Note_on_c, 3, 71, 0
6, 137220, Note_on_c, 3, 69, 80
6, 137279, Note_on_c, 3, 69, 0
6, 137280, Note_on_c, 3, 67, 80
6, 137309, Note_on_c, 3, 67, 0
6, 137310, Note_on_c, 3, 72, 80
6, 137339, Note_on_c, 3, 72, 0
6, 137340, Note_on_c, 3, 71, 80
6, 137369, Note_on_c, 3, 71, 0
6, 137370, Note_on_c, 3, 69, 80
6, 137399, Note_on_c, 3, 69, 0
6, 137400, Note_on_c, 3, 67, 80
6, 137459, Note_on_c, 3, 67, 0
6, 137460, Note_on_c, 3, 66, 80
6, 137519, Note_on_c, 3, 66, 0
6, 137520, Note_on_c, 3, 64, 80
6, 137639, Note_on_c, 3, 64, 0
6, 137880, Note_on_c, 3, 79, 65
6, 137999, Note_on_c, 3, 79, 0
6, 138120, Note_on_c, 3, 79, 65
6, 138239, Note_on_c, 3, 79, 0
6, 138360, Note_on_c, 3, 78, 65
6, 138479, Note_on_c, 3, 78, 0
6, 138600, Note_on_c, 3, 78, 65
6, 138719, Note_on_c, 3, 78, 0
6, 138840, Note_on_c, 3, 76, 65
6, 138959, Note_on_c, 3, 76, 0
6, 139080, Note_on_c, 3, 76, 65
6, 139199, Note_on_c, 3, 76, 0
6, 139260, Note_on_c, 3, 76, 65
6, 139319, Note_on_c, 3, 76, 0
6, 139320, Note_on_c, 3, 74, 65
6, 139379, Note_on_c, 3, 74, 0
6, 139380, Note_on_c, 3, 73, 65
6, 139439, Note_on_c, 3, 73, 0
6, 139440, Note_on_c, 3, 71, 65
6, 139469, Note_on_c, 3, 71, 0
6, 139470, Note_on_c, 3, 70, 65
6, 139499, Note_on_c, 3, 70, 0
6, 139500, Note_on_c, 3, 71, 65
6, 139529, Note_on_c, 3, 71, 0
6, 139530, Note_on_c, 3, 70, 65
6, 139559, Note_on_c, 3, 70, 0
6, 139560, Note_on_c, 3, 71, 65
6, 139619, Note_on_c, 3, 71, 0
6, 139800, Note_on_c, 3, 73, 65
6, 139859, Note_on_c, 3, 73, 0
6, 139860, Note_on_c, 3, 74, 65
6, 139919, Note_on_c, 3, 74, 0
6, 140040, Note_on_c, 3, 67, 65
6, 140069, Note_on_c, 3, 67, 0
6, 140070, Note_on_c, 3, 66, 65
6, 140099, Note_on_c, 3, 66, 0
6, 140100, Note_on_c, 3, 67, 65
6, 140129, Note_on_c, 3, 67, 0
6, 140130, Note_on_c, 3, 64, 65
6, 140159, Note_on_c, 3, 64, 0
6, 140160, Note_on_c, 3, 66, 65
6, 140219, Note_on_c, 3, 66, 0
6, 140400, Note_on_c, 3, 78, 65
6, 140429, Note_on_c, 3, 78, 0
6, 140430, Note_on_c, 3, 76, 65
6, 140459, Note_on_c, 3, 76, 0
6, 140460, Note_on_c, 3, 78, 65
6, 140489, Note_on_c, 3, 78, 0
6, 140490, Note_on_c, 3, 76, 65
6, 140519, Note_on_c, 3, 76, 0
6, 140520, Note_on_c, 3, 74, 65
6, 140579, Note_on_c, 3, 74, 0
6, 140640, Note_on_c, 3, 74, 65
6, 140669, Note_on_c, 3, 74, 0
6, 140670, Note_on_c, 3, 72, 65
6, 140699, Note_on_c, 3, 72, 0
6, 140700, Note_on_c, 3, 74, 65
6, 140729, Note_on_c, 3, 74, 0
6, 140730, Note_on_c, 3, 72, 65
6, 140759, Note_on_c, 3, 72, 0
6, 140760, Note_on_c, 3, 71, 65
6, 140819, Note_on_c, 3, 71, 0
6, 141540, Note_on_c, 3, 66, 85
6, 141599, Note_on_c, 3, 66, 0
6, 141600, Note_on_c, 3, 71, 85
6, 141659, Note_on_c, 3, 71, 0
6, 141660, Note_on_c, 3, 74, 85
6, 141719, Note_on_c, 3, 74, 0
6, 141720, Note_on_c, 3, 73, 85
6, 141779, Note_on_c, 3, 73, 0
6, 141780, Note_on_c, 3, 70, 85
6, 141839, Note_on_c, 3, 70, 0
6, 141840, Note_on_c, 3, 71, 85
6, 141899, Note_on_c, 3, 71, 0
6, 141900, Note_on_c, 3, 74, 85
6, 141959, Note_on_c, 3, 74, 0
6, 141960, Note_on_c, 3, 73, 85
6, 142019, Note_on_c, 3, 73, 0
6, 142020, Note_on_c, 3, 70, 85
6, 142079, Note_on_c, 3, 70, 0
6, 142080, Note_on_c, 3, 71, 85
6, 142139, Note_on_c, 3, 71, 0
6, 142140, Note_on_c, 3, 79, 85
6, 142199, Note_on_c, 3, 79, 0
6, 142200, Note_on_c, 3, 78, 85
6, 142259, Note_on_c, 3, 78, 0
6, 142260, Note_on_c, 3, 76, 85
6, 142319, Note_on_c, 3, 76, 0
6, 142320, Note_on_c, 3, 74, 85
6, 142349, Note_on_c, 3, 74, 0
6, 142350, Note_on_c, 3, 73, 85
6, 142379, Note_on_c, 3, 73, 0
6, 142380, Note_on_c, 3, 74, 85
6, 142409, Note_on_c, 3, 74, 0
6, 142410, Note_on_c, 3, 73, 85
6, 142439, Note_on_c, 3, 73, 0
6, 142440, Note_on_c, 3, 71, 85
6, 142469, Note_on_c, 3, 71, 0
6, 142470, Note_on_c, 3, 69, 85
6, 142499, Note_on_c, 3, 69, 0
6, 142500, Note_on_c, 3, 71, 85
6, 142529, Note_on_c, 3, 71, 0
6, 142530, Note_on_c, 3, 69, 85
6, 142559, Note_on_c, 3, 69, 0
6, 142560, Note_on_c, 3, 67, 85
6, 142619, Note_on_c, 3, 67, 0
6, 142620, Note_on_c, 3, 71, 85
6, 142679, Note_on_c, 3, 71, 0
6, 142680, Note_on_c, 3, 69, 85
6, 142739, Note_on_c, 3, 69, 0
6, 142740, Note_on_c, 3, 66, 85
6, 142799, Note_on_c, 3, 66, 0
6, 142800, Note_on_c, 3, 67, 85
6, 142859, Note_on_c, 3, 67, 0
6, 142860, Note_on_c, 3, 71, 85
6, 142919, Note_on_c, 3, 71, 0
6, 142920, Note_on_c, 3, 69, 85
6, 142979, Note_on_c, 3, 69, 0
6, 142980, Note_on_c, 3, 66, 85
6, 143039, Note_on_c, 3, 66, 0
6, 143040, Note_on_c, 3, 67, 85
6, 143099, Note_on_c, 3, 67, 0
6, 143100, Note_on_c, 3, 81, 85
6, 143159, Note_on_c, 3, 81, 0
6, 143160, Note_on_c, 3, 79, 85
6, 143219, Note_on_c, 3, 79, 0
6, 143220, Note_on_c, 3, 78, 85
6, 143279, Note_on_c, 3, 78, 0
6, 143280, Note_on_c, 3, 76, 85
6, 143309, Note_on_c, 3, 76, 0
6, 143310, Note_on_c, 3, 75, 85
6, 143339, Note_on_c, 3, 75, 0
6, 143340, Note_on_c, 3, 76, 85
6, 143369, Note_on_c, 3, 76, 0
6, 143370, Note_on_c, 3, 75, 85
6, 143399, Note_on_c, 3, 75, 0
6, 143400, Note_on_c, 3, 76, 85
6, 143549, Note_on_c, 3, 76, 0
6, 143550, Note_on_c, 3, 75, 85
6, 143579, Note_on_c, 3, 75, 0
6, 143580, Note_on_c, 3, 76, 85
6, 143609, Note_on_c, 3, 76, 0
6, 143610, Note_on_c, 3, 75, 85
6, 143639, Note_on_c, 3, 75, 0
6, 143640, Note_on_c, 3, 76, 85
6, 143820, Note_on_c, 3, 76, 0
6, 143820, Note_on_c, 3, 74, 85
6, 143849, Note_on_c, 3, 74, 0
6, 143850, Note_on_c, 3, 73, 85
6, 143879, Note_on_c, 3, 73, 0
6, 143880, Note_on_c, 3, 74, 85
6, 143939, Note_on_c, 3, 74, 0
6, 143940, Note_on_c, 3, 62, 85
6, 143999, Note_on_c, 3, 62, 0
6, 144000, Note_on_c, 3, 62, 85
6, 144059, Note_on_c, 3, 62, 0
6, 144060, Note_on_c, 3, 61, 85
6, 144119, Note_on_c, 3, 61, 0
6, 144180, Note_on_c, 3, 65, 85
6, 144239, Note_on_c, 3, 65, 0
6, 144240, Note_on_c, 3, 65, 85
6, 144299, Note_on_c, 3, 65, 0
6, 144300, Note_on_c, 3, 66, 85
6, 144359, Note_on_c, 3, 66, 0
6, 144420, Note_on_c, 3, 70, 85
6, 144479, Note_on_c, 3, 70, 0
6, 144480, Note_on_c, 3, 70, 85
6, 144539, Note_on_c, 3, 70, 0
6, 144540, Note_on_c, 3, 71, 85
6, 144599, Note_on_c, 3, 71, 0
6, 144660, Note_on_c, 3, 76, 85
6, 144749, Note_on_c, 3, 76, 0
6, 144750, Note_on_c, 3, 73, 85
6, 144779, Note_on_c, 3, 73, 0
6, 144780, Note_on_c, 3, 74, 85
6, 144839, Note_on_c, 3, 74, 0
6, 144900, Note_on_c, 3, 79, 85
6, 144959, Note_on_c, 3, 79, 0
6, 144960, Note_on_c, 3, 78, 85
6, 145019, Note_on_c, 3, 78, 0
6, 145020, Note_on_c, 3, 71, 85
6, 145079, Note_on_c, 3, 71, 0
6, 145080, Note_on_c, 3, 74, 85
6, 145109, Note_on_c, 3, 74, 0
6, 145110, Note_on_c, 3, 73, 85
6, 145139, Note_on_c, 3, 73, 0
6, 145140, Note_on_c, 3, 71, 85
6, 145169, Note_on_c, 3, 71, 0
6, 145170, Note_on_c, 3, 70, 85
6, 145199, Note_on_c, 3, 70, 0
6, 145200, Note_on_c, 3, 71, 85
6, 145229, Note_on_c, 3, 71, 0
6, 145230, Note_on_c, 3, 70, 85
6, 145259, Note_on_c, 3, 70, 0
6, 145260, Note_on_c, 3, 71, 85
6, 145289, Note_on_c, 3, 71, 0
6, 145290, Note_on_c, 3, 70, 85
6, 145319, Note_on_c, 3, 70, 0
6, 145320, Note_on_c, 3, 71, 85
6, 145379, Note_on_c, 3, 71, 0
6, 145380, Note_on_c, 3, 73, 65
6, 145439, Note_on_c, 3, 73, 0
6, 145440, Note_on_c, 3, 74, 65
6, 145499, Note_on_c, 3, 74, 0
6, 145560, Note_on_c, 3, 79, 65
6, 145619, Note_on_c, 3, 79, 0
6, 145740, Note_on_c, 3, 78, 65
6, 145799, Note_on_c, 3, 78, 0
6, 145800, Note_on_c, 3, 76, 65
6, 145859, Note_on_c, 3, 76, 0
6, 145860, Note_on_c, 3, 73, 65
6, 145919, Note_on_c, 3, 73, 0
6, 145920, Note_on_c, 3, 74, 65
6, 145979, Note_on_c, 3, 74, 0
6, 145980, Note_on_c, 3, 73, 65
6, 146039, Note_on_c, 3, 73, 0
6, 146040, Note_on_c, 3, 71, 65
6, 146099, Note_on_c, 3, 71, 0
6, 146100, Note_on_c, 3, 70, 65
6, 146159, Note_on_c, 3, 70, 0
6, 146160, Note_on_c, 3, 71, 65
6, 146279, Note_on_c, 3, 71, 0
6, 146460, Note_on_c, 3, 71, 65
6, 146519, Note_on_c, 3, 71, 0
6, 146520, Note_on_c, 3, 70, 65
6, 146579, Note_on_c, 3, 70, 0
6, 146580, Note_on_c, 3, 79, 65
6, 146639, Note_on_c, 3, 79, 0
6, 146700, Note_on_c, 3, 78, 65
6, 146759, Note_on_c, 3, 78, 0
6, 146760, Note_on_c, 3, 76, 65
6, 146819, Note_on_c, 3, 76, 0
6, 146820, Note_on_c, 3, 73, 65
6, 146879, Note_on_c, 3, 73, 0
6, 146880, Note_on_c, 3, 74, 65
6, 146939, Note_on_c, 3, 74, 0
6, 146940, Note_on_c, 3, 73, 65
6, 146999, Note_on_c, 3, 73, 0
6, 147000, Note_on_c, 3, 71, 65
6, 147059, Note_on_c, 3, 71, 0
6, 147060, Note_on_c, 3, 70, 65
6, 147119, Note_on_c, 3, 70, 0
6, 147120, Note_on_c, 3, 71, 65
6, 147239, Note_on_c, 3, 71, 0
6, 147660, Note_on_c, 3, 73, 65
6, 147719, Note_on_c, 3, 73, 0
6, 147720, Note_on_c, 3, 78, 65
6, 147869, Note_on_c, 3, 78, 0
6, 147870, Note_on_c, 3, 77, 65
6, 147899, Note_on_c, 3, 77, 0
6, 147900, Note_on_c, 3, 78, 65
6, 147929, Note_on_c, 3, 78, 0
6, 147930, Note_on_c, 3, 77, 65
6, 147959, Note_on_c, 3, 77, 0
6, 147960, Note_on_c, 3, 78, 65
6, 148109, Note_on_c, 3, 78, 0
6, 148110, Note_on_c, 3, 75, 65
6, 148139, Note_on_c, 3, 75, 0
6, 148140, Note_on_c, 3, 77, 65
6, 148199, Note_on_c, 3, 77, 0
6, 148200, Note_on_c, 3, 78, 65
6, 148259, Note_on_c, 3, 78, 0
6, 148260, Note_on_c, 3, 80, 65
6, 148319, Note_on_c, 3, 80, 0
6, 148380, Note_on_c, 3, 78, 65
6, 148439, Note_on_c, 3, 78, 0
6, 148440, Note_on_c, 3, 80, 65
6, 148499, Note_on_c, 3, 80, 0
6, 148500, Note_on_c, 3, 82, 65
6, 148559, Note_on_c, 3, 82, 0
6, 148620, Note_on_c, 3, 66, 65
6, 148679, Note_on_c, 3, 66, 0
6, 148680, Note_on_c, 3, 71, 65
6, 148709, Note_on_c, 3, 71, 0
6, 148710, Note_on_c, 3, 69, 65
6, 148739, Note_on_c, 3, 69, 0
6, 148740, Note_on_c, 3, 71, 65
6, 148769, Note_on_c, 3, 71, 0
6, 148770, Note_on_c, 3, 69, 65
6, 148799, Note_on_c, 3, 69, 0
6, 148800, Note_on_c, 3, 67, 65
6, 148859, Note_on_c, 3, 67, 0
6, 148860, Note_on_c, 3, 68, 65
6, 148919, Note_on_c, 3, 68, 0
6, 148920, Note_on_c, 3, 70, 65
6, 148979, Note_on_c, 3, 70, 0
6, 148980, Note_on_c, 3, 71, 65
6, 149039, Note_on_c, 3, 71, 0
6, 149040, Note_on_c, 3, 67, 65
6, 149099, Note_on_c, 3, 67, 0
6, 149100, Note_on_c, 3, 66, 65
6, 149159, Note_on_c, 3, 66, 0
6, 149340, Note_on_c, 3, 78, 65
6, 149399, Note_on_c, 3, 78, 0
6, 149400, Note_on_c, 3, 76, 65
6, 149459, Note_on_c, 3, 76, 0
6, 149460, Note_on_c, 3, 73, 65
6, 149519, Note_on_c, 3, 73, 0
6, 149580, Note_on_c, 3, 71, 65
6, 149639, Note_on_c, 3, 71, 0
6, 149640, Note_on_c, 3, 70, 65
6, 149699, Note_on_c, 3, 70, 0
6, 149700, Note_on_c, 3, 73, 65
6, 149759, Note_on_c, 3, 73, 0
6, 149760, Note_on_c, 3, 66, 65
6, 149819, Note_on_c, 3, 66, 0
6, 149820, Note_on_c, 3, 64, 65
6, 149879, Note_on_c, 3, 64, 0
6, 149880, Note_on_c, 3, 62, 65
6, 149939, Note_on_c, 3, 62, 0
6, 149940, Note_on_c, 3, 61, 65
6, 149999, Note_on_c, 3, 61, 0
6, 150000, Note_on_c, 3, 59, 65
6, 150119, Note_on_c, 3, 59, 0
6, 150360, Note_on_c, 3, 63, 65
6, 150479, Note_on_c, 3, 63, 0
6, 150600, Note_on_c, 3, 72, 65
6, 150719, Note_on_c, 3, 72, 0
6, 150780, Note_on_c, 3, 76, 65
6, 150869, Note_on_c, 3, 76, 0
6, 150870, Note_on_c, 3, 75, 65
6, 150899, Note_on_c, 3, 75, 0
6, 150900, Note_on_c, 3, 78, 65
6, 151019, Note_on_c, 3, 78, 0
6, 151020, Note_on_c, 3, 71, 65
6, 151079, Note_on_c, 3, 71, 0
6, 151080, Note_on_c, 3, 76, 65
6, 151229, Note_on_c, 3, 76, 0
6, 151230, Note_on_c, 3, 75, 65
6, 151259, Note_on_c, 3, 75, 0
6, 151260, Note_on_c, 3, 76, 65
6, 151289, Note_on_c, 3, 76, 0
6, 151290, Note_on_c, 3, 75, 65
6, 151319, Note_on_c, 3, 75, 0
6, 151320, Note_on_c, 3, 76, 65
6, 151499, Note_on_c, 3, 76, 0
6, 151500, Note_on_c, 3, 74, 65
6, 151529, Note_on_c, 3, 74, 0
6, 151530, Note_on_c, 3, 73, 65
6, 151559, Note_on_c, 3, 73, 0
6, 151560, Note_on_c, 3, 74, 65
6, 151619, Note_on_c, 3, 74, 0
6, 151620, Note_on_c, 3, 78, 65
6, 151679, Note_on_c, 3, 78, 0
6, 151680, Note_on_c, 3, 79, 65
6, 151709, Note_on_c, 3, 79, 0
6, 151710, Note_on_c, 3, 78, 65
6, 151739, Note_on_c, 3, 78, 0
6, 151740, Note_on_c, 3, 76, 65
6, 151799, Note_on_c, 3, 76, 0
6, 151860, Note_on_c, 3, 83, 65
6, 151919, Note_on_c, 3, 83, 0
6, 151920, Note_on_c, 3, 74, 65
6, 151979, Note_on_c, 3, 74, 0
6, 151980, Note_on_c, 3, 73, 65
6, 152039, Note_on_c, 3, 73, 0
6, 152100, Note_on_c, 3, 66, 65
6, 152159, Note_on_c, 3, 66, 0
6, 152160, Note_on_c, 3, 71, 65
6, 152189, Note_on_c, 3, 71, 0
6, 152190, Note_on_c, 3, 73, 65
6, 152219, Note_on_c, 3, 73, 0
6, 152220, Note_on_c, 3, 74, 65
6, 152249, Note_on_c, 3, 74, 0
6, 152250, Note_on_c, 3, 73, 65
6, 152279, Note_on_c, 3, 73, 0
6, 152280, Note_on_c, 3, 71, 65
6, 152339, Note_on_c, 3, 71, 0
6, 152340, Note_on_c, 3, 70, 65
6, 152399, Note_on_c, 3, 70, 0
6, 152400, Note_on_c, 3, 71, 65
6, 152459, Note_on_c, 3, 71, 0
6, 152460, Note_on_c, 3, 69, 65
6, 152489, Note_on_c, 3, 69, 0
6, 152490, Note_on_c, 3, 67, 65
6, 152519, Note_on_c, 3, 67, 0
6, 152520, Note_on_c, 3, 66, 65
6, 152579, Note_on_c, 3, 66, 0
6, 152580, Note_on_c, 3, 64, 65
6, 152639, Note_on_c, 3, 64, 0
6, 152640, Note_on_c, 3, 62, 65
6, 152669, Note_on_c, 3, 62, 0
6, 152670, Note_on_c, 3, 64, 65
6, 152699, Note_on_c, 3, 64, 0
6, 152700, Note_on_c, 3, 66, 65
6, 152729, Note_on_c, 3, 66, 0
6, 152730, Note_on_c, 3, 64, 65
6, 152759, Note_on_c, 3, 64, 0
6, 152760, Note_on_c, 3, 62, 65
6, 152819, Note_on_c, 3, 62, 0
6, 152820, Note_on_c, 3, 61, 65
6, 152879, Note_on_c, 3, 61, 0
6, 152880, Note_on_c, 3, 59, 65
6, 152999, Note_on_c, 3, 59, 0
6, 153180, Note_on_c, 3, 76, 65
6, 153239, Note_on_c, 3, 76, 0
6, 153240, Note_on_c, 3, 74, 65
6, 153299, Note_on_c, 3, 74, 0
6, 153420, Note_on_c, 3, 70, 65
6, 153479, Note_on_c, 3, 70, 0
6, 153480, Note_on_c, 3, 71, 65
6, 153539, Note_on_c, 3, 71, 0
6, 153660, Note_on_c, 3, 78, 65
6, 153719, Note_on_c, 3, 78, 0
6, 153720, Note_on_c, 3, 76, 65
6, 153749, Note_on_c, 3, 76, 0
6, 153750, Note_on_c, 3, 74, 65
6, 153779, Note_on_c, 3, 74, 0
6, 153780, Note_on_c, 3, 73, 65
6, 153809, Note_on_c, 3, 73, 0
6, 153810, Note_on_c, 3, 71, 65
6, 153839, Note_on_c, 3, 71, 0
6, 153840, Note_on_c, 3, 71, 65
6, 154440, Note_on_c, 3, 71, 0
6, 154860, Note_on_c, 3, 71, 90
6, 154919, Note_on_c, 3, 71, 0
6, 154920, Note_on_c, 3, 78, 90
6, 155069, Note_on_c, 3, 78, 0
6, 155070, Note_on_c, 3, 76, 90
6, 155099, Note_on_c, 3, 76, 0
6, 155100, Note_on_c, 3, 78, 90
6, 155129, Note_on_c, 3, 78, 0
6, 155130, Note_on_c, 3, 74, 90
6, 155159, Note_on_c, 3, 74, 0
6, 155160, Note_on_c, 3, 76, 90
6, 155189, Note_on_c, 3, 76, 0
6, 155190, Note_on_c, 3, 74, 90
6, 155219, Note_on_c, 3, 74, 0
6, 155220, Note_on_c, 3, 76, 90
6, 155249, Note_on_c, 3, 76, 0
6, 155250, Note_on_c, 3, 73, 90
6, 155279, Note_on_c, 3, 73, 0
6, 155280, Note_on_c, 3, 74, 90
6, 155339, Note_on_c, 3, 74, 0
6, 155340, Note_on_c, 3, 71, 90
6, 155399, Note_on_c, 3, 71, 0
6, 155460, Note_on_c, 3, 73, 90
6, 155549, Note_on_c, 3, 73, 0
6, 155550, Note_on_c, 3, 74, 90
6, 155579, Note_on_c, 3, 74, 0
6, 155580, Note_on_c, 3, 73, 90
6, 155609, Note_on_c, 3, 73, 0
6, 155610, Note_on_c, 3, 71, 90
6, 155639, Note_on_c, 3, 71, 0
6, 155640, Note_on_c, 3, 73, 90
6, 155699, Note_on_c, 3, 73, 0
6, 155700, Note_on_c, 3, 70, 90
6, 155759, Note_on_c, 3, 70, 0
6, 155760, Note_on_c, 3, 71, 90
6, 155879, Note_on_c, 3, 71, 0
6, 155940, Note_on_c, 3, 66, 90
6, 155999, Note_on_c, 3, 66, 0
6, 156000, Note_on_c, 3, 71, 90
6, 156059, Note_on_c, 3, 71, 0
6, 156060, Note_on_c, 3, 74, 90
6, 156119, Note_on_c, 3, 74, 0
6, 156120, Note_on_c, 3, 73, 90
6, 156179, Note_on_c, 3, 73, 0
6, 156180, Note_on_c, 3, 70, 90
6, 156239, Note_on_c, 3, 70, 0
6, 156240, Note_on_c, 3, 71, 90
6, 156299, Note_on_c, 3, 71, 0
6, 156300, Note_on_c, 3, 74, 90
6, 156359, Note_on_c, 3, 74, 0
6, 156360, Note_on_c, 3, 73, 90
6, 156419, Note_on_c, 3, 73, 0
6, 156420, Note_on_c, 3, 70, 90
6, 156479, Note_on_c, 3, 70, 0
6, 156480, Note_on_c, 3, 71, 90
6, 156539, Note_on_c, 3, 71, 0
6, 156540, Note_on_c, 3, 79, 90
6, 156599, Note_on_c, 3, 79, 0
6, 156600, Note_on_c, 3, 78, 90
6, 156659, Note_on_c, 3, 78, 0
6, 156660, Note_on_c, 3, 76, 90
6, 156719, Note_on_c, 3, 76, 0
6, 156720, Note_on_c, 3, 74, 90
6, 156749, Note_on_c, 3, 74, 0
6, 156750, Note_on_c, 3, 73, 90
6, 156779, Note_on_c, 3, 73, 0
6, 156780, Note_on_c, 3, 74, 90
6, 156809, Note_on_c, 3, 74, 0
6, 156810, Note_on_c, 3, 73, 90
6, 156839, Note_on_c, 3, 73, 0
6, 156840, Note_on_c, 3, 71, 90
6, 156899, Note_on_c, 3, 71, 0
6, 156900, Note_on_c, 3, 74, 90
6, 156959, Note_on_c, 3, 74, 0
6, 156960, Note_on_c, 3, 74, 90
6, 157019, Note_on_c, 3, 74, 0
6, 157020, Note_on_c, 3, 73, 90
6, 157079, Note_on_c, 3, 73, 0
6, 157140, Note_on_c, 3, 77, 90
6, 157199, Note_on_c, 3, 77, 0
6, 157200, Note_on_c, 3, 77, 90
6, 157259, Note_on_c, 3, 77, 0
6, 157260, Note_on_c, 3, 78, 90
6, 157319, Note_on_c, 3, 78, 0
6, 157320, Note_on_c, 3, 69, 90
6, 157469, Note_on_c, 3, 69, 0
6, 157470, Note_on_c, 3, 68, 90
6, 157499, Note_on_c, 3, 68, 0
6, 157500, Note_on_c, 3, 69, 90
6, 157529, Note_on_c, 3, 69, 0
6, 157530, Note_on_c, 3, 68, 90
6, 157559, Note_on_c, 3, 68, 0
6, 157560, Note_on_c, 3, 69, 90
6, 157709, Note_on_c, 3, 69, 0
6, 157710, Note_on_c, 3, 66, 90
6, 157739, Note_on_c, 3, 66, 0
6, 157740, Note_on_c, 3, 67, 90
6, 157799, Note_on_c, 3, 67, 0
6, 157830, Note_on_c, 3, 74, 90
6, 157859, Note_on_c, 3, 74, 0
6, 157860, Note_on_c, 3, 73, 90
6, 157889, Note_on_c, 3, 73, 0
6, 157890, Note_on_c, 3, 71, 90
6, 157919, Note_on_c, 3, 71, 0
6, 157920, Note_on_c, 3, 70, 90
6, 157979, Note_on_c, 3, 70, 0
6, 157980, Note_on_c, 3, 73, 90
6, 158039, Note_on_c, 3, 73, 0
6, 158040, Note_on_c, 3, 78, 90
6, 158099, Note_on_c, 3, 78, 0
6, 158100, Note_on_c, 3, 76, 90
6, 158159, Note_on_c, 3, 76, 0
6, 158160, Note_on_c, 3, 79, 90
6, 158219, Note_on_c, 3, 79, 0
6, 158220, Note_on_c, 3, 78, 90
6, 158279, Note_on_c, 3, 78, 0
6, 158340, Note_on_c, 3, 64, 90
6, 158399, Note_on_c, 3, 64, 0
6, 158400, Note_on_c, 3, 62, 90
6, 158429, Note_on_c, 3, 62, 0
6, 158430, Note_on_c, 3, 67, 90
6, 158459, Note_on_c, 3, 67, 0
6, 158460, Note_on_c, 3, 66, 90
6, 158489, Note_on_c, 3, 66, 0
6, 158490, Note_on_c, 3, 64, 90
6, 158519, Note_on_c, 3, 64, 0
6, 158520, Note_on_c, 3, 62, 90
6, 158579, Note_on_c, 3, 62, 0
6, 158580, Note_on_c, 3, 61, 90
6, 158639, Note_on_c, 3, 61, 0
6, 158640, Note_on_c, 3, 59, 90
6, 158759, Note_on_c, 3, 59, 0
6, 163830, Note_on_c, 3, 69, 80
6, 163853, Note_on_c, 3, 69, 0
6, 163860, Note_on_c, 3, 71, 80
6, 163883, Note_on_c, 3, 71, 0
6, 163890, Note_on_c, 3, 73, 80
6, 163913, Note_on_c, 3, 73, 0
6, 163920, Note_on_c, 3, 74, 80
6, 163943, Note_on_c, 3, 74, 0
6, 163950, Note_on_c, 3, 69, 80
6, 163973, Note_on_c, 3, 69, 0
6, 163980, Note_on_c, 3, 74, 80
6, 164003, Note_on_c, 3, 74, 0
6, 164010, Note_on_c, 3, 76, 80
6, 164033, Note_on_c, 3, 76, 0
6, 164040, Note_on_c, 3, 78, 80
6, 164063, Note_on_c, 3, 78, 0
6, 164070, Note_on_c, 3, 74, 80
6, 164093, Note_on_c, 3, 74, 0
6, 164100, Note_on_c, 3, 78, 80
6, 164123, Note_on_c, 3, 78, 0
6, 164130, Note_on_c, 3, 79, 80
6, 164153, Note_on_c, 3, 79, 0
6, 164160, Note_on_c, 3, 81, 80
6, 164207, Note_on_c, 3, 81, 0
6, 164220, Note_on_c, 3, 81, 100
6, 164267, Note_on_c, 3, 81, 0
6, 164280, Note_on_c, 3, 79, 100
6, 164327, Note_on_c, 3, 79, 0
6, 164340, Note_on_c, 3, 78, 100
6, 164387, Note_on_c, 3, 78, 0
6, 164400, Note_on_c, 3, 78, 100
6, 164447, Note_on_c, 3, 78, 0
6, 164460, Note_on_c, 3, 76, 100
6, 164507, Note_on_c, 3, 76, 0
6, 164820, Note_on_c, 3, 74, 80
6, 164843, Note_on_c, 3, 74, 0
6, 164880, Note_on_c, 3, 74, 80
6, 164903, Note_on_c, 3, 74, 0
6, 164940, Note_on_c, 3, 69, 80
6, 164963, Note_on_c, 3, 69, 0
6, 165000, Note_on_c, 3, 69, 80
6, 165023, Note_on_c, 3, 69, 0
6, 165060, Note_on_c, 3, 66, 80
6, 165083, Note_on_c, 3, 66, 0
6, 165120, Note_on_c, 3, 66, 80
6, 165143, Note_on_c, 3, 66, 0
6, 165180, Note_on_c, 3, 81, 100
6, 165227, Note_on_c, 3, 81, 0
6, 165240, Note_on_c, 3, 79, 100
6, 165287, Note_on_c, 3, 79, 0
6, 165300, Note_on_c, 3, 78, 100
6, 165347, Note_on_c, 3, 78, 0
6, 165360, Note_on_c, 3, 78, 100
6, 165407, Note_on_c, 3, 78, 0
6, 165420, Note_on_c, 3, 76, 100
6, 165467, Note_on_c, 3, 76, 0
6, 165660, Note_on_c, 3, 76, 80
6, 165684, Note_on_c, 3, 76, 0
6, 165720, Note_on_c, 3, 78, 80
6, 165744, Note_on_c, 3, 78, 0
6, 165900, Note_on_c, 3, 83, 100
6, 165923, Note_on_c, 3, 83, 0
6, 165930, Note_on_c, 3, 81, 100
6, 165953, Note_on_c, 3, 81, 0
6, 165960, Note_on_c, 3, 83, 100
6, 166007, Note_on_c, 3, 83, 0
6, 166140, Note_on_c, 3, 74, 100
6, 166164, Note_on_c, 3, 74, 0
6, 166200, Note_on_c, 3, 76, 100
6, 166224, Note_on_c, 3, 76, 0
6, 166380, Note_on_c, 3, 81, 100
6, 166403, Note_on_c, 3, 81, 0
6, 166410, Note_on_c, 3, 79, 100
6, 166433, Note_on_c, 3, 79, 0
6, 166440, Note_on_c, 3, 81, 100
6, 166487, Note_on_c, 3, 81, 0
6, 166620, Note_on_c, 3, 78, 80
6, 166667, Note_on_c, 3, 78, 0
6, 166680, Note_on_c, 3, 78, 80
6, 166727, Note_on_c, 3, 78, 0
6, 166740, Note_on_c, 3, 78, 80
6, 166787, Note_on_c, 3, 78, 0
6, 166860, Note_on_c, 3, 79, 80
6, 166907, Note_on_c, 3, 79, 0
6, 166920, Note_on_c, 3, 81, 80
6, 166967, Note_on_c, 3, 81, 0
6, 166980, Note_on_c, 3, 81, 80
6, 167027, Note_on_c, 3, 81, 0
6, 167100, Note_on_c, 3, 83, 80
6, 167123, Note_on_c, 3, 83, 0
6, 167130, Note_on_c, 3, 81, 80
6, 167153, Note_on_c, 3, 81, 0
6, 167160, Note_on_c, 3, 79, 80
6, 167207, Note_on_c, 3, 79, 0
6, 167340, Note_on_c, 3, 79, 80
6, 167363, Note_on_c, 3, 79, 0
6, 167370, Note_on_c, 3, 78, 80
6, 167393, Note_on_c, 3, 78, 0
6, 167400, Note_on_c, 3, 79, 80
6, 167447, Note_on_c, 3, 79, 0
6, 167460, Note_on_c, 3, 81, 80
6, 167507, Note_on_c, 3, 81, 0
6, 167520, Note_on_c, 3, 79, 80
6, 167543, Note_on_c, 3, 79, 0
6, 167550, Note_on_c, 3, 78, 80
6, 167573, Note_on_c, 3, 78, 0
6, 167580, Note_on_c, 3, 76, 80
6, 167603, Note_on_c, 3, 76, 0
6, 167610, Note_on_c, 3, 74, 80
6, 167633, Note_on_c, 3, 74, 0
6, 167640, Note_on_c, 3, 78, 80
6, 167687, Note_on_c, 3, 78, 0
6, 167700, Note_on_c, 3, 76, 80
6, 167747, Note_on_c, 3, 76, 0
6, 167760, Note_on_c, 3, 74, 80
6, 167807, Note_on_c, 3, 74, 0
6, 167820, Note_on_c, 3, 86, 80
6, 167843, Note_on_c, 3, 86, 0
6, 167850, Note_on_c, 3, 85, 80
6, 167873, Note_on_c, 3, 85, 0
6, 167880, Note_on_c, 3, 86, 80
6, 167927, Note_on_c, 3, 86, 0
6, 167940, Note_on_c, 3, 74, 80
6, 167987, Note_on_c, 3, 74, 0
6, 168000, Note_on_c, 3, 74, 80
6, 168047, Note_on_c, 3, 74, 0
6, 168060, Note_on_c, 3, 81, 80
6, 168083, Note_on_c, 3, 81, 0
6, 168090, Note_on_c, 3, 79, 80
6, 168113, Note_on_c, 3, 79, 0
6, 168120, Note_on_c, 3, 81, 80
6, 168167, Note_on_c, 3, 81, 0
6, 168180, Note_on_c, 3, 74, 80
6, 168227, Note_on_c, 3, 74, 0
6, 168240, Note_on_c, 3, 83, 80
6, 168287, Note_on_c, 3, 83, 0
6, 168360, Note_on_c, 3, 81, 82
6, 168407, Note_on_c, 3, 81, 0
6, 168480, Note_on_c, 3, 80, 85
6, 168527, Note_on_c, 3, 80, 0
6, 168540, Note_on_c, 3, 74, 86
6, 168563, Note_on_c, 3, 74, 0
6, 168570, Note_on_c, 3, 73, 86
6, 168593, Note_on_c, 3, 73, 0
6, 168600, Note_on_c, 3, 71, 87
6, 168647, Note_on_c, 3, 71, 0
6, 168660, Note_on_c, 3, 83, 88
6, 168707, Note_on_c, 3, 83, 0
6, 168720, Note_on_c, 3, 81, 90
6, 168767, Note_on_c, 3, 81, 0
6, 168780, Note_on_c, 3, 69, 91
6, 168803, Note_on_c, 3, 69, 0
6, 168810, Note_on_c, 3, 71, 91
6, 168833, Note_on_c, 3, 71, 0
6, 168840, Note_on_c, 3, 73, 92
6, 168887, Note_on_c, 3, 73, 0
6, 168900, Note_on_c, 3, 79, 93
6, 168947, Note_on_c, 3, 79, 0
6, 168960, Note_on_c, 3, 78, 95
6, 169007, Note_on_c, 3, 78, 0
6, 169020, Note_on_c, 3, 86, 96
6, 169067, Note_on_c, 3, 86, 0
6, 169080, Note_on_c, 3, 76, 97
6, 169127, Note_on_c, 3, 76, 0
6, 169140, Note_on_c, 3, 85, 98
6, 169187, Note_on_c, 3, 85, 0
6, 169200, Note_on_c, 3, 74, 100
6, 169295, Note_on_c, 3, 74, 0
6, 169320, Note_on_c, 3, 66, 80
6, 169415, Note_on_c, 3, 66, 0
6, 169440, Note_on_c, 3, 71, 80
6, 169535, Note_on_c, 3, 71, 0
6, 169560, Note_on_c, 3, 69, 80
6, 169655, Note_on_c, 3, 69, 0
6, 169680, Note_on_c, 3, 67, 81
6, 169775, Note_on_c, 3, 67, 0
6, 169800, Note_on_c, 3, 66, 81
6, 169895, Note_on_c, 3, 66, 0
6, 169920, Note_on_c, 3, 64, 81
6, 170111, Note_on_c, 3, 64, 0
6, 170160, Note_on_c, 3, 66, 81
6, 170255, Note_on_c, 3, 66, 0
6, 170550, Note_on_c, 3, 66, 81
6, 170573, Note_on_c, 3, 66, 0
6, 170580, Note_on_c, 3, 68, 81
6, 170603, Note_on_c, 3, 68, 0
6, 170610, Note_on_c, 3, 70, 81
6, 170633, Note_on_c, 3, 70, 0
6, 170640, Note_on_c, 3, 71, 81
6, 170663, Note_on_c, 3, 71, 0
6, 170670, Note_on_c, 3, 66, 81
6, 170693, Note_on_c, 3, 66, 0
6, 170700, Note_on_c, 3, 71, 81
6, 170723, Note_on_c, 3, 71, 0
6, 170730, Note_on_c, 3, 73, 81
6, 170753, Note_on_c, 3, 73, 0
6, 170760, Note_on_c, 3, 74, 81
6, 170783, Note_on_c, 3, 74, 0
6, 170790, Note_on_c, 3, 71, 81
6, 170813, Note_on_c, 3, 71, 0
6, 170820, Note_on_c, 3, 74, 81
6, 170843, Note_on_c, 3, 74, 0
6, 170850, Note_on_c, 3, 76, 81
6, 170873, Note_on_c, 3, 76, 0
6, 170880, Note_on_c, 3, 78, 81
6, 170927, Note_on_c, 3, 78, 0
6, 170940, Note_on_c, 3, 78, 81
6, 170987, Note_on_c, 3, 78, 0
6, 171000, Note_on_c, 3, 76, 81
6, 171047, Note_on_c, 3, 76, 0
6, 171060, Note_on_c, 3, 74, 82
6, 171107, Note_on_c, 3, 74, 0
6, 171120, Note_on_c, 3, 74, 82
6, 171167, Note_on_c, 3, 74, 0
6, 171180, Note_on_c, 3, 73, 82
6, 171227, Note_on_c, 3, 73, 0
6, 171240, Note_on_c, 3, 73, 82
6, 171335, Note_on_c, 3, 73, 0
6, 171360, Note_on_c, 3, 74, 82
6, 171455, Note_on_c, 3, 74, 0
6, 171480, Note_on_c, 3, 74, 82
6, 171575, Note_on_c, 3, 74, 0
6, 171600, Note_on_c, 3, 73, 82
6, 171671, Note_on_c, 3, 73, 0
6, 171690, Note_on_c, 3, 74, 82
6, 171701, Note_on_c, 3, 74, 0
6, 171705, Note_on_c, 3, 76, 82
6, 171716, Note_on_c, 3, 76, 0
6, 171720, Note_on_c, 3, 73, 82
6, 171815, Note_on_c, 3, 73, 0
6, 171840, Note_on_c, 3, 71, 82
6, 172127, Note_on_c, 3, 71, 0
6, 172470, Note_on_c, 3, 69, 100
6, 172493, Note_on_c, 3, 69, 0
6, 172500, Note_on_c, 3, 71, 100
6, 172523, Note_on_c, 3, 71, 0
6, 172530, Note_on_c, 3, 73, 100
6, 172553, Note_on_c, 3, 73, 0
6, 172560, Note_on_c, 3, 74, 100
6, 172583, Note_on_c, 3, 74, 0
6, 172590, Note_on_c, 3, 69, 100
6, 172613, Note_on_c, 3, 69, 0
6, 172620, Note_on_c, 3, 74, 100
6, 172643, Note_on_c, 3, 74, 0
6, 172650, Note_on_c, 3, 76, 100
6, 172673, Note_on_c, 3, 76, 0
6, 172680, Note_on_c, 3, 78, 100
6, 172703, Note_on_c, 3, 78, 0
6, 172710, Note_on_c, 3, 74, 100
6, 172733, Note_on_c, 3, 74, 0
6, 172740, Note_on_c, 3, 78, 100
6, 172763, Note_on_c, 3, 78, 0
6, 172770, Note_on_c, 3, 79, 100
6, 172793, Note_on_c, 3, 79, 0
6, 172800, Note_on_c, 3, 81, 100
6, 172847, Note_on_c, 3, 81, 0
6, 172860, Note_on_c, 3, 81, 110
6, 172907, Note_on_c, 3, 81, 0
6, 172920, Note_on_c, 3, 79, 110
6, 172967, Note_on_c, 3, 79, 0
6, 172980, Note_on_c, 3, 78, 110
6, 173027, Note_on_c, 3, 78, 0
6, 173040, Note_on_c, 3, 78, 110
6, 173087, Note_on_c, 3, 78, 0
6, 173100, Note_on_c, 3, 76, 110
6, 173147, Note_on_c, 3, 76, 0
6, 173460, Note_on_c, 3, 74, 80
6, 173483, Note_on_c, 3, 74, 0
6, 173520, Note_on_c, 3, 74, 80
6, 173543, Note_on_c, 3, 74, 0
6, 173580, Note_on_c, 3, 69, 80
6, 173603, Note_on_c, 3, 69, 0
6, 173640, Note_on_c, 3, 69, 80
6, 173663, Note_on_c, 3, 69, 0
6, 173700, Note_on_c, 3, 66, 80
6, 173723, Note_on_c, 3, 66, 0
6, 173760, Note_on_c, 3, 66, 80
6, 173783, Note_on_c, 3, 66, 0
6, 173820, Note_on_c, 3, 81, 100
6, 173867, Note_on_c, 3, 81, 0
6, 173880, Note_on_c, 3, 79, 100
6, 173927, Note_on_c, 3, 79, 0
6, 173940, Note_on_c, 3, 78, 100
6, 173987, Note_on_c, 3, 78, 0
6, 174000, Note_on_c, 3, 78, 100
6, 174047, Note_on_c, 3, 78, 0
6, 174060, Note_on_c, 3, 76, 100
6, 174107, Note_on_c, 3, 76, 0
6, 174300, Note_on_c, 3, 76, 80
6, 174324, Note_on_c, 3, 76, 0
6, 174360, Note_on_c, 3, 78, 80
6, 174384, Note_on_c, 3, 78, 0
6, 174540, Note_on_c, 3, 83, 100
6, 174563, Note_on_c, 3, 83, 0
6, 174570, Note_on_c, 3, 81, 100
6, 174593, Note_on_c, 3, 81, 0
6, 174600, Note_on_c, 3, 83, 100
6, 174647, Note_on_c, 3, 83, 0
6, 174780, Note_on_c, 3, 74, 80
6, 174804, Note_on_c, 3, 74, 0
6, 174840, Note_on_c, 3, 76, 80
6, 174864, Note_on_c, 3, 76, 0
6, 175020, Note_on_c, 3, 81, 100
6, 175043, Note_on_c, 3, 81, 0
6, 175050, Note_on_c, 3, 79, 100
6, 175073, Note_on_c, 3, 79, 0
6, 175080, Note_on_c, 3, 81, 100
6, 175127, Note_on_c, 3, 81, 0
6, 175260, Note_on_c, 3, 78, 80
6, 175307, Note_on_c, 3, 78, 0
6, 175320, Note_on_c, 3, 78, 80
6, 175367, Note_on_c, 3, 78, 0
6, 175380, Note_on_c, 3, 78, 80
6, 175427, Note_on_c, 3, 78, 0
6, 175500, Note_on_c, 3, 79, 80
6, 175547, Note_on_c, 3, 79, 0
6, 175560, Note_on_c, 3, 81, 80
6, 175607, Note_on_c, 3, 81, 0
6, 175620, Note_on_c, 3, 81, 80
6, 175667, Note_on_c, 3, 81, 0
6, 175740, Note_on_c, 3, 83, 80
6, 175763, Note_on_c, 3, 83, 0
6, 175770, Note_on_c, 3, 81, 80
6, 175793, Note_on_c, 3, 81, 0
6, 175800, Note_on_c, 3, 79, 80
6, 175847, Note_on_c, 3, 79, 0
6, 175980, Note_on_c, 3, 79, 80
6, 176003, Note_on_c, 3, 79, 0
6, 176010, Note_on_c, 3, 78, 80
6, 176033, Note_on_c, 3, 78, 0
6, 176040, Note_on_c, 3, 79, 80
6, 176087, Note_on_c, 3, 79, 0
6, 176100, Note_on_c, 3, 81, 80
6, 176147, Note_on_c, 3, 81, 0
6, 176160, Note_on_c, 3, 79, 80
6, 176183, Note_on_c, 3, 79, 0
6, 176190, Note_on_c, 3, 78, 80
6, 176213, Note_on_c, 3, 78, 0
6, 176220, Note_on_c, 3, 76, 80
6, 176243, Note_on_c, 3, 76, 0
6, 176250, Note_on_c, 3, 74, 80
6, 176273, Note_on_c, 3, 74, 0
6, 176280, Note_on_c, 3, 78, 80
6, 176327, Note_on_c, 3, 78, 0
6, 176340, Note_on_c, 3, 76, 80
6, 176387, Note_on_c, 3, 76, 0
6, 176400, Note_on_c, 3, 74, 80
6, 176447, Note_on_c, 3, 74, 0
6, 176460, Note_on_c, 3, 86, 80
6, 176483, Note_on_c, 3, 86, 0
6, 176490, Note_on_c, 3, 85, 80
6, 176513, Note_on_c, 3, 85, 0
6, 176520, Note_on_c, 3, 86, 80
6, 176567, Note_on_c, 3, 86, 0
6, 176580, Note_on_c, 3, 74, 80
6, 176627, Note_on_c, 3, 74, 0
6, 176640, Note_on_c, 3, 74, 80
6, 176687, Note_on_c, 3, 74, 0
6, 176700, Note_on_c, 3, 81, 80
6, 176723, Note_on_c, 3, 81, 0
6, 176730, Note_on_c, 3, 79, 80
6, 176753, Note_on_c, 3, 79, 0
6, 176760, Note_on_c, 3, 81, 80
6, 176807, Note_on_c, 3, 81, 0
6, 176820, Note_on_c, 3, 74, 80
6, 176867, Note_on_c, 3, 74, 0
6, 176880, Note_on_c, 3, 83, 80
6, 176927, Note_on_c, 3, 83, 0
6, 177000, Note_on_c, 3, 81, 80
6, 177047, Note_on_c, 3, 81, 0
6, 177120, Note_on_c, 3, 80, 80
6, 177167, Note_on_c, 3, 80, 0
6, 177180, Note_on_c, 3, 74, 80
6, 177203, Note_on_c, 3, 74, 0
6, 177210, Note_on_c, 3, 73, 80
6, 177233, Note_on_c, 3, 73, 0
6, 177240, Note_on_c, 3, 71, 80
6, 177287, Note_on_c, 3, 71, 0
6, 177300, Note_on_c, 3, 83, 80
6, 177347, Note_on_c, 3, 83, 0
6, 177360, Note_on_c, 3, 81, 80
6, 177407, Note_on_c, 3, 81, 0
6, 177420, Note_on_c, 3, 69, 80
6, 177443, Note_on_c, 3, 69, 0
6, 177450, Note_on_c, 3, 71, 80
6, 177473, Note_on_c, 3, 71, 0
6, 177480, Note_on_c, 3, 73, 80
6, 177527, Note_on_c, 3, 73, 0
6, 177540, Note_on_c, 3, 79, 80
6, 177587, Note_on_c, 3, 79, 0
6, 177600, Note_on_c, 3, 78, 80
6, 177647, Note_on_c, 3, 78, 0
6, 177660, Note_on_c, 3, 86, 80
6, 177707, Note_on_c, 3, 86, 0
6, 177720, Note_on_c, 3, 76, 80
6, 177767, Note_on_c, 3, 76, 0
6, 177780, Note_on_c, 3, 85, 80
6, 177827, Note_on_c, 3, 85, 0
6, 177840, Note_on_c, 3, 74, 80
6, 177935, Note_on_c, 3, 74, 0
6, 177960, Note_on_c, 3, 66, 80
6, 178055, Note_on_c, 3, 66, 0
6, 178080, Note_on_c, 3, 71, 80
6, 178175, Note_on_c, 3, 71, 0
6, 178200, Note_on_c, 3, 69, 80
6, 178295, Note_on_c, 3, 69, 0
6, 178320, Note_on_c, 3, 67, 80
6, 178415, Note_on_c, 3, 67, 0
6, 178440, Note_on_c, 3, 66, 80
6, 178535, Note_on_c, 3, 66, 0
6, 178560, Note_on_c, 3, 64, 80
6, 178751, Note_on_c, 3, 64, 0
6, 178800, Note_on_c, 3, 66, 80
6, 178895, Note_on_c, 3, 66, 0
6, 179190, Note_on_c, 3, 66, 80
6, 179213, Note_on_c, 3, 66, 0
6, 179220, Note_on_c, 3, 68, 80
6, 179243, Note_on_c, 3, 68, 0
6, 179250, Note_on_c, 3, 70, 80
6, 179273, Note_on_c, 3, 70, 0
6, 179280, Note_on_c, 3, 71, 80
6, 179303, Note_on_c, 3, 71, 0
6, 179310, Note_on_c, 3, 66, 80
6, 179333, Note_on_c, 3, 66, 0
6, 179340, Note_on_c, 3, 71, 80
6, 179363, Note_on_c, 3, 71, 0
6, 179370, Note_on_c, 3, 73, 80
6, 179393, Note_on_c, 3, 73, 0
6, 179400, Note_on_c, 3, 74, 80
6, 179423, Note_on_c, 3, 74, 0
6, 179430, Note_on_c, 3, 71, 80
6, 179453, Note_on_c, 3, 71, 0
6, 179460, Note_on_c, 3, 74, 80
6, 179483, Note_on_c, 3, 74, 0
6, 179490, Note_on_c, 3, 76, 80
6, 179513, Note_on_c, 3, 76, 0
6, 179520, Note_on_c, 3, 78, 80
6, 179567, Note_on_c, 3, 78, 0
6, 179580, Note_on_c, 3, 78, 80
6, 179627, Note_on_c, 3, 78, 0
6, 179640, Note_on_c, 3, 76, 80
6, 179687, Note_on_c, 3, 76, 0
6, 179700, Note_on_c, 3, 74, 80
6, 179747, Note_on_c, 3, 74, 0
6, 179760, Note_on_c, 3, 74, 80
6, 179807, Note_on_c, 3, 74, 0
6, 179820, Note_on_c, 3, 73, 80
6, 179867, Note_on_c, 3, 73, 0
6, 179880, Note_on_c, 3, 73, 80
6, 179975, Note_on_c, 3, 73, 0
6, 180000, Note_on_c, 3, 74, 80
6, 180095, Note_on_c, 3, 74, 0
6, 180120, Note_on_c, 3, 74, 80
6, 180215, Note_on_c, 3, 74, 0
6, 180240, Note_on_c, 3, 73, 80
6, 180311, Note_on_c, 3, 73, 0
6, 180330, Note_on_c, 3, 74, 80
6, 180341, Note_on_c, 3, 74, 0
6, 180345, Note_on_c, 3, 76, 80
6, 180356, Note_on_c, 3, 76, 0
6, 180360, Note_on_c, 3, 73, 80
6, 180455, Note_on_c, 3, 73, 0
6, 180480, Note_on_c, 3, 71, 80
6, 180767, Note_on_c, 3, 71, 0
6, 181110, Note_on_c, 3, 69, 100
6, 181133, Note_on_c, 3, 69, 0
6, 181140, Note_on_c, 3, 71, 100
6, 181163, Note_on_c, 3, 71, 0
6, 181170, Note_on_c, 3, 73, 100
6, 181193, Note_on_c, 3, 73, 0
6, 181200, Note_on_c, 3, 74, 100
6, 181223, Note_on_c, 3, 74, 0
6, 181230, Note_on_c, 3, 69, 100
6, 181253, Note_on_c, 3, 69, 0
6, 181260, Note_on_c, 3, 74, 100
6, 181283, Note_on_c, 3, 74, 0
6, 181290, Note_on_c, 3, 76, 100
6, 181313, Note_on_c, 3, 76, 0
6, 181320, Note_on_c, 3, 78, 100
6, 181343, Note_on_c, 3, 78, 0
6, 181350, Note_on_c, 3, 74, 100
6, 181373, Note_on_c, 3, 74, 0
6, 181380, Note_on_c, 3, 78, 100
6, 181403, Note_on_c, 3, 78, 0
6, 181410, Note_on_c, 3, 79, 100
6, 181433, Note_on_c, 3, 79, 0
6, 181440, Note_on_c, 3, 81, 110
6, 181487, Note_on_c, 3, 81, 0
6, 181500, Note_on_c, 3, 81, 110
6, 181547, Note_on_c, 3, 81, 0
6, 181560, Note_on_c, 3, 79, 110
6, 181607, Note_on_c, 3, 79, 0
6, 181620, Note_on_c, 3, 78, 110
6, 181667, Note_on_c, 3, 78, 0
6, 181680, Note_on_c, 3, 78, 110
6, 181727, Note_on_c, 3, 78, 0
6, 181740, Note_on_c, 3, 76, 110
6, 181787, Note_on_c, 3, 76, 0
6, 182100, Note_on_c, 3, 74, 80
6, 182123, Note_on_c, 3, 74, 0
6, 182160, Note_on_c, 3, 74, 80
6, 182183, Note_on_c, 3, 74, 0
6, 182220, Note_on_c, 3, 69, 80
6, 182243, Note_on_c, 3, 69, 0
6, 182280, Note_on_c, 3, 69, 80
6, 182303, Note_on_c, 3, 69, 0
6, 182340, Note_on_c, 3, 66, 80
6, 182363, Note_on_c, 3, 66, 0
6, 182400, Note_on_c, 3, 66, 80
6, 182423, Note_on_c, 3, 66, 0
6, 182460, Note_on_c, 3, 81, 100
6, 182507, Note_on_c, 3, 81, 0
6, 182520, Note_on_c, 3, 79, 100
6, 182567, Note_on_c, 3, 79, 0
6, 182580, Note_on_c, 3, 78, 100
6, 182627, Note_on_c, 3, 78, 0
6, 182640, Note_on_c, 3, 78, 100
6, 182687, Note_on_c, 3, 78, 0
6, 182700, Note_on_c, 3, 76, 100
6, 182747, Note_on_c, 3, 76, 0
6, 182760, Note_on_c, 3, 74, 80
6, 182855, Note_on_c, 3, 74, 0
6, 182880, Note_on_c, 3, 73, 80
6, 182975, Note_on_c, 3, 73, 0
6, 183000, Note_on_c, 3, 69, 80
6, 183095, Note_on_c, 3, 69, 0
6, 183120, Note_on_c, 3, 71, 80
6, 183215, Note_on_c, 3, 71, 0
6, 183240, Note_on_c, 3, 73, 80
6, 183335, Note_on_c, 3, 73, 0
6, 183360, Note_on_c, 3, 74, 80
6, 183551, Note_on_c, 3, 74, 0
6, 183600, Note_on_c, 3, 74, 100
6, 183647, Note_on_c, 3, 74, 0
6, 183660, Note_on_c, 3, 83, 100
6, 183683, Note_on_c, 3, 83, 0
6, 183690, Note_on_c, 3, 81, 100
6, 183713, Note_on_c, 3, 81, 0
6, 183720, Note_on_c, 3, 83, 100
6, 183767, Note_on_c, 3, 83, 0
6, 183900, Note_on_c, 3, 74, 80
6, 183923, Note_on_c, 3, 74, 0
6, 183960, Note_on_c, 3, 76, 80
6, 183983, Note_on_c, 3, 76, 0
6, 184140, Note_on_c, 3, 81, 100
6, 184163, Note_on_c, 3, 81, 0
6, 184170, Note_on_c, 3, 79, 100
6, 184193, Note_on_c, 3, 79, 0
6, 184200, Note_on_c, 3, 81, 100
6, 184247, Note_on_c, 3, 81, 0
6, 184440, Note_on_c, 3, 69, 80
6, 184535, Note_on_c, 3, 69, 0
6, 184560, Note_on_c, 3, 71, 80
6, 184655, Note_on_c, 3, 71, 0
6, 184680, Note_on_c, 3, 69, 80
6, 184775, Note_on_c, 3, 69, 0
6, 184800, Note_on_c, 3, 67, 80
6, 184895, Note_on_c, 3, 67, 0
6, 184920, Note_on_c, 3, 67, 80
6, 184967, Note_on_c, 3, 67, 0
6, 184980, Note_on_c, 3, 66, 80
6, 185027, Note_on_c, 3, 66, 0
6, 185040, Note_on_c, 3, 66, 80
6, 185135, Note_on_c, 3, 66, 0
6, 185220, Note_on_c, 3, 78, 80
6, 185267, Note_on_c, 3, 78, 0
6, 185280, Note_on_c, 3, 83, 80
6, 185303, Note_on_c, 3, 83, 0
6, 185310, Note_on_c, 3, 85, 80
6, 185333, Note_on_c, 3, 85, 0
6, 185340, Note_on_c, 3, 86, 80
6, 185363, Note_on_c, 3, 86, 0
6, 185370, Note_on_c, 3, 85, 80
6, 185393, Note_on_c, 3, 85, 0
6, 185400, Note_on_c, 3, 83, 80
6, 185447, Note_on_c, 3, 83, 0
6, 185460, Note_on_c, 3, 78, 80
6, 185483, Note_on_c, 3, 78, 0
6, 185520, Note_on_c, 3, 78, 80
6, 185543, Note_on_c, 3, 78, 0
6, 185580, Note_on_c, 3, 74, 80
6, 185603, Note_on_c, 3, 74, 0
6, 185640, Note_on_c, 3, 74, 80
6, 185663, Note_on_c, 3, 74, 0
6, 185700, Note_on_c, 3, 71, 80
6, 185723, Note_on_c, 3, 71, 0
6, 185760, Note_on_c, 3, 71, 100
6, 185783, Note_on_c, 3, 71, 0
6, 185820, Note_on_c, 3, 78, 100
6, 185867, Note_on_c, 3, 78, 0
6, 185880, Note_on_c, 3, 76, 100
6, 185927, Note_on_c, 3, 76, 0
6, 185940, Note_on_c, 3, 74, 100
6, 185987, Note_on_c, 3, 74, 0
6, 186000, Note_on_c, 3, 74, 100
6, 186047, Note_on_c, 3, 74, 0
6, 186060, Note_on_c, 3, 73, 100
6, 186107, Note_on_c, 3, 73, 0
6, 186300, Note_on_c, 3, 73, 80
6, 186323, Note_on_c, 3, 73, 0
6, 186360, Note_on_c, 3, 74, 80
6, 186383, Note_on_c, 3, 74, 0
6, 186540, Note_on_c, 3, 83, 80
6, 186563, Note_on_c, 3, 83, 0
6, 186570, Note_on_c, 3, 81, 80
6, 186593, Note_on_c, 3, 81, 0
6, 186600, Note_on_c, 3, 83, 80
6, 186647, Note_on_c, 3, 83, 0
6, 186660, Note_on_c, 3, 74, 80
6, 186707, Note_on_c, 3, 74, 0
6, 186720, Note_on_c, 3, 73, 80
6, 186815, Note_on_c, 3, 73, 0
6, 186840, Note_on_c, 3, 76, 80
6, 186935, Note_on_c, 3, 76, 0
6, 186960, Note_on_c, 3, 74, 80
6, 187055, Note_on_c, 3, 74, 0
6, 187080, Note_on_c, 3, 73, 80
6, 187175, Note_on_c, 3, 73, 0
6, 187200, Note_on_c, 3, 71, 80
6, 187391, Note_on_c, 3, 71, 0
6, 187440, Note_on_c, 3, 73, 80
6, 187535, Note_on_c, 3, 73, 0
6, 187590, Note_on_c, 3, 64, 80
6, 187613, Note_on_c, 3, 64, 0
6, 187620, Note_on_c, 3, 66, 80
6, 187643, Note_on_c, 3, 66, 0
6, 187650, Note_on_c, 3, 68, 80
6, 187673, Note_on_c, 3, 68, 0
6, 187680, Note_on_c, 3, 69, 80
6, 187703, Note_on_c, 3, 69, 0
6, 187710, Note_on_c, 3, 68, 80
6, 187733, Note_on_c, 3, 68, 0
6, 187740, Note_on_c, 3, 69, 80
6, 187763, Note_on_c, 3, 69, 0
6, 187770, Note_on_c, 3, 71, 80
6, 187793, Note_on_c, 3, 71, 0
6, 187800, Note_on_c, 3, 73, 80
6, 187823, Note_on_c, 3, 73, 0
6, 187830, Note_on_c, 3, 71, 80
6, 187853, Note_on_c, 3, 71, 0
6, 187860, Note_on_c, 3, 73, 80
6, 187883, Note_on_c, 3, 73, 0
6, 187890, Note_on_c, 3, 74, 80
6, 187913, Note_on_c, 3, 74, 0
6, 187920, Note_on_c, 3, 76, 80
6, 187967, Note_on_c, 3, 76, 0
6, 187980, Note_on_c, 3, 85, 100
6, 188027, Note_on_c, 3, 85, 0
6, 188040, Note_on_c, 3, 83, 100
6, 188087, Note_on_c, 3, 83, 0
6, 188100, Note_on_c, 3, 81, 100
6, 188147, Note_on_c, 3, 81, 0
6, 188160, Note_on_c, 3, 81, 100
6, 188207, Note_on_c, 3, 81, 0
6, 188220, Note_on_c, 3, 80, 100
6, 188267, Note_on_c, 3, 80, 0
6, 188340, Note_on_c, 3, 73, 80
6, 188387, Note_on_c, 3, 73, 0
6, 188400, Note_on_c, 3, 78, 80
6, 188423, Note_on_c, 3, 78, 0
6, 188430, Note_on_c, 3, 80, 80
6, 188453, Note_on_c, 3, 80, 0
6, 188460, Note_on_c, 3, 81, 80
6, 188483, Note_on_c, 3, 81, 0
6, 188490, Note_on_c, 3, 80, 80
6, 188513, Note_on_c, 3, 80, 0
6, 188520, Note_on_c, 3, 78, 80
6, 188543, Note_on_c, 3, 78, 0
6, 188580, Note_on_c, 3, 73, 80
6, 188603, Note_on_c, 3, 73, 0
6, 188640, Note_on_c, 3, 73, 80
6, 188663, Note_on_c, 3, 73, 0
6, 188700, Note_on_c, 3, 69, 80
6, 188723, Note_on_c, 3, 69, 0
6, 188760, Note_on_c, 3, 69, 80
6, 188783, Note_on_c, 3, 69, 0
6, 188820, Note_on_c, 3, 66, 80
6, 188843, Note_on_c, 3, 66, 0
6, 188880, Note_on_c, 3, 66, 80
6, 188903, Note_on_c, 3, 66, 0
6, 188940, Note_on_c, 3, 79, 100
6, 188987, Note_on_c, 3, 79, 0
6, 189000, Note_on_c, 3, 78, 100
6, 189047, Note_on_c, 3, 78, 0
6, 189060, Note_on_c, 3, 76, 100
6, 189107, Note_on_c, 3, 76, 0
6, 189120, Note_on_c, 3, 74, 100
6, 189167, Note_on_c, 3, 74, 0
6, 189180, Note_on_c, 3, 71, 100
6, 189203, Note_on_c, 3, 71, 0
6, 189240, Note_on_c, 3, 71, 80
6, 189263, Note_on_c, 3, 71, 0
6, 189300, Note_on_c, 3, 68, 80
6, 189323, Note_on_c, 3, 68, 0
6, 189360, Note_on_c, 3, 68, 80
6, 189383, Note_on_c, 3, 68, 0
6, 189420, Note_on_c, 3, 78, 100
6, 189467, Note_on_c, 3, 78, 0
6, 189480, Note_on_c, 3, 76, 100
6, 189527, Note_on_c, 3, 76, 0
6, 189540, Note_on_c, 3, 74, 100
6, 189587, Note_on_c, 3, 74, 0
6, 189600, Note_on_c, 3, 73, 100
6, 189647, Note_on_c, 3, 73, 0
6, 189660, Note_on_c, 3, 69, 80
6, 189683, Note_on_c, 3, 69, 0
6, 189720, Note_on_c, 3, 69, 80
6, 189743, Note_on_c, 3, 69, 0
6, 189780, Note_on_c, 3, 66, 80
6, 189803, Note_on_c, 3, 66, 0
6, 189840, Note_on_c, 3, 66, 80
6, 189863, Note_on_c, 3, 66, 0
6, 189900, Note_on_c, 3, 76, 80
6, 189947, Note_on_c, 3, 76, 0
6, 189960, Note_on_c, 3, 74, 80
6, 190007, Note_on_c, 3, 74, 0
6, 190020, Note_on_c, 3, 72, 80
6, 190067, Note_on_c, 3, 72, 0
6, 190080, Note_on_c, 3, 71, 80
6, 190127, Note_on_c, 3, 71, 0
6, 190140, Note_on_c, 3, 67, 80
6, 190187, Note_on_c, 3, 67, 0
6, 190200, Note_on_c, 3, 66, 80
6, 190247, Note_on_c, 3, 66, 0
6, 190260, Note_on_c, 3, 74, 80
6, 190307, Note_on_c, 3, 74, 0
6, 190320, Note_on_c, 3, 64, 80
6, 190367, Note_on_c, 3, 64, 0
6, 190380, Note_on_c, 3, 74, 80
6, 190427, Note_on_c, 3, 74, 0
6, 190440, Note_on_c, 3, 73, 80
6, 190487, Note_on_c, 3, 73, 0
6, 190500, Note_on_c, 3, 69, 80
6, 190547, Note_on_c, 3, 69, 0
6, 190560, Note_on_c, 3, 66, 80
6, 190655, Note_on_c, 3, 66, 0
6, 190710, Note_on_c, 3, 69, 80
6, 190733, Note_on_c, 3, 69, 0
6, 190740, Note_on_c, 3, 71, 80
6, 190763, Note_on_c, 3, 71, 0
6, 190770, Note_on_c, 3, 73, 80
6, 190793, Note_on_c, 3, 73, 0
6, 190800, Note_on_c, 3, 74, 80
6, 190823, Note_on_c, 3, 74, 0
6, 190830, Note_on_c, 3, 69, 80
6, 190853, Note_on_c, 3, 69, 0
6, 190860, Note_on_c, 3, 74, 80
6, 190883, Note_on_c, 3, 74, 0
6, 190890, Note_on_c, 3, 76, 80
6, 190913, Note_on_c, 3, 76, 0
6, 190920, Note_on_c, 3, 78, 80
6, 190943, Note_on_c, 3, 78, 0
6, 190950, Note_on_c, 3, 74, 80
6, 190973, Note_on_c, 3, 74, 0
6, 190980, Note_on_c, 3, 78, 80
6, 191003, Note_on_c, 3, 78, 0
6, 191010, Note_on_c, 3, 79, 80
6, 191033, Note_on_c, 3, 79, 0
6, 191040, Note_on_c, 3, 81, 100
6, 191087, Note_on_c, 3, 81, 0
6, 191100, Note_on_c, 3, 81, 100
6, 191147, Note_on_c, 3, 81, 0
6, 191160, Note_on_c, 3, 79, 100
6, 191207, Note_on_c, 3, 79, 0
6, 191220, Note_on_c, 3, 78, 100
6, 191267, Note_on_c, 3, 78, 0
6, 191280, Note_on_c, 3, 78, 100
6, 191327, Note_on_c, 3, 78, 0
6, 191340, Note_on_c, 3, 76, 100
6, 191387, Note_on_c, 3, 76, 0
6, 191700, Note_on_c, 3, 74, 100
6, 191723, Note_on_c, 3, 74, 0
6, 191760, Note_on_c, 3, 74, 100
6, 191783, Note_on_c, 3, 74, 0
6, 191820, Note_on_c, 3, 69, 100
6, 191843, Note_on_c, 3, 69, 0
6, 191880, Note_on_c, 3, 69, 100
6, 191903, Note_on_c, 3, 69, 0
6, 191940, Note_on_c, 3, 66, 100
6, 191963, Note_on_c, 3, 66, 0
6, 192000, Note_on_c, 3, 66, 110
6, 192023, Note_on_c, 3, 66, 0
6, 192060, Note_on_c, 3, 81, 110
6, 192107, Note_on_c, 3, 81, 0
6, 192120, Note_on_c, 3, 79, 110
6, 192167, Note_on_c, 3, 79, 0
6, 192180, Note_on_c, 3, 78, 110
6, 192227, Note_on_c, 3, 78, 0
6, 192240, Note_on_c, 3, 78, 110
6, 192287, Note_on_c, 3, 78, 0
6, 192300, Note_on_c, 3, 76, 110
6, 192347, Note_on_c, 3, 76, 0
6, 192540, Note_on_c, 3, 76, 100
6, 192564, Note_on_c, 3, 76, 0
6, 192600, Note_on_c, 3, 78, 100
6, 192624, Note_on_c, 3, 78, 0
6, 192780, Note_on_c, 3, 83, 110
6, 192803, Note_on_c, 3, 83, 0
6, 192810, Note_on_c, 3, 81, 110
6, 192833, Note_on_c, 3, 81, 0
6, 192840, Note_on_c, 3, 83, 110
6, 192887, Note_on_c, 3, 83, 0
6, 193020, Note_on_c, 3, 74, 100
6, 193044, Note_on_c, 3, 74, 0
6, 193080, Note_on_c, 3, 76, 100
6, 193104, Note_on_c, 3, 76, 0
6, 193260, Note_on_c, 3, 81, 110
6, 193283, Note_on_c, 3, 81, 0
6, 193290, Note_on_c, 3, 79, 110
6, 193313, Note_on_c, 3, 79, 0
6, 193320, Note_on_c, 3, 81, 110
6, 193367, Note_on_c, 3, 81, 0
6, 193500, Note_on_c, 3, 78, 100
6, 193547, Note_on_c, 3, 78, 0
6, 193560, Note_on_c, 3, 78, 100
6, 193607, Note_on_c, 3, 78, 0
6, 193620, Note_on_c, 3, 78, 100
6, 193667, Note_on_c, 3, 78, 0
6, 193740, Note_on_c, 3, 79, 100
6, 193787, Note_on_c, 3, 79, 0
6, 193800, Note_on_c, 3, 81, 100
6, 193847, Note_on_c, 3, 81, 0
6, 193860, Note_on_c, 3, 81, 100
6, 193907, Note_on_c, 3, 81, 0
6, 193980, Note_on_c, 3, 83, 100
6, 194003, Note_on_c, 3, 83, 0
6, 194010, Note_on_c, 3, 81, 100
6, 194033, Note_on_c, 3, 81, 0
6, 194040, Note_on_c, 3, 79, 100
6, 194087, Note_on_c, 3, 79, 0
6, 194220, Note_on_c, 3, 79, 100
6, 194243, Note_on_c, 3, 79, 0
6, 194250, Note_on_c, 3, 78, 100
6, 194273, Note_on_c, 3, 78, 0
6, 194280, Note_on_c, 3, 79, 100
6, 194327, Note_on_c, 3, 79, 0
6, 194340, Note_on_c, 3, 81, 100
6, 194387, Note_on_c, 3, 81, 0
6, 194400, Note_on_c, 3, 79, 100
6, 194423, Note_on_c, 3, 79, 0
6, 194430, Note_on_c, 3, 78, 100
6, 194453, Note_on_c, 3, 78, 0
6, 194460, Note_on_c, 3, 76, 100
6, 194483, Note_on_c, 3, 76, 0
6, 194490, Note_on_c, 3, 74, 100
6, 194513, Note_on_c, 3, 74, 0
6, 194520, Note_on_c, 3, 78, 100
6, 194567, Note_on_c, 3, 78, 0
6, 194580, Note_on_c, 3, 76, 100
6, 194627, Note_on_c, 3, 76, 0
6, 194640, Note_on_c, 3, 74, 100
6, 194687, Note_on_c, 3, 74, 0
6, 194700, Note_on_c, 3, 86, 100
6, 194723, Note_on_c, 3, 86, 0
6, 194730, Note_on_c, 3, 85, 100
6, 194753, Note_on_c, 3, 85, 0
6, 194760, Note_on_c, 3, 86, 100
6, 194807, Note_on_c, 3, 86, 0
6, 194820, Note_on_c, 3, 74, 100
6, 194867, Note_on_c, 3, 74, 0
6, 194880, Note_on_c, 3, 74, 100
6, 194927, Note_on_c, 3, 74, 0
6, 194940, Note_on_c, 3, 81, 100
6, 194963, Note_on_c, 3, 81, 0
6, 194970, Note_on_c, 3, 79, 100
6, 194993, Note_on_c, 3, 79, 0
6, 195000, Note_on_c, 3, 81, 100
6, 195047, Note_on_c, 3, 81, 0
6, 195060, Note_on_c, 3, 74, 100
6, 195107, Note_on_c, 3, 74, 0
6, 195120, Note_on_c, 3, 83, 100
6, 195167, Note_on_c, 3, 83, 0
6, 195240, Note_on_c, 3, 81, 100
6, 195287, Note_on_c, 3, 81, 0
6, 195360, Note_on_c, 3, 80, 100
6, 195407, Note_on_c, 3, 80, 0
6, 195420, Note_on_c, 3, 74, 100
6, 195443, Note_on_c, 3, 74, 0
6, 195450, Note_on_c, 3, 73, 100
6, 195473, Note_on_c, 3, 73, 0
6, 195480, Note_on_c, 3, 71, 100
6, 195527, Note_on_c, 3, 71, 0
6, 195540, Note_on_c, 3, 83, 100
6, 195587, Note_on_c, 3, 83, 0
6, 195600, Note_on_c, 3, 81, 100
6, 195647, Note_on_c, 3, 81, 0
6, 195660, Note_on_c, 3, 69, 100
6, 195683, Note_on_c, 3, 69, 0
6, 195690, Note_on_c, 3, 71, 100
6, 195713, Note_on_c, 3, 71, 0
6, 195720, Note_on_c, 3, 73, 100
6, 195767, Note_on_c, 3, 73, 0
6, 195780, Note_on_c, 3, 79, 100
6, 195827, Note_on_c, 3, 79, 0
6, 195840, Note_on_c, 3, 78, 100
6, 195887, Note_on_c, 3, 78, 0
6, 195900, Note_on_c, 3, 86, 100
6, 195947, Note_on_c, 3, 86, 0
6, 195960, Note_on_c, 3, 76, 100
6, 196007, Note_on_c, 3, 76, 0
6, 196020, Note_on_c, 3, 85, 100
6, 196067, Note_on_c, 3, 85, 0
6, 196080, Note_on_c, 3, 74, 100
6, 196224, Note_on_c, 3, 74, 0
6, 196224, End_track
7, 0, Start_track
7, 0, MIDI_port, 0
7, 0, Title_t, "Oboe II"
7, 0, Program_c, 4, 68
7, 0, Control_c, 4, 7, 127
7, 0, Control_c, 4, 10, 38
7, 240, Note_on_c, 4, 62, 80
7, 299, Note_on_c, 4, 62, 0
7, 300, Note_on_c, 4, 66, 80
7, 359, Note_on_c, 4, 66, 0
7, 420, Note_on_c, 4, 64, 80
7, 479, Note_on_c, 4, 64, 0
7, 480, Note_on_c, 4, 73, 80
7, 539, Note_on_c, 4, 73, 0
7, 600, Note_on_c, 4, 71, 80
7, 659, Note_on_c, 4, 71, 0
7, 660, Note_on_c, 4, 69, 80
7, 719, Note_on_c, 4, 69, 0
7, 720, Note_on_c, 4, 69, 90
7, 779, Note_on_c, 4, 69, 0
7, 780, Note_on_c, 4, 66, 80
7, 839, Note_on_c, 4, 66, 0
7, 840, Note_on_c, 4, 66, 80
7, 899, Note_on_c, 4, 66, 0
7, 900, Note_on_c, 4, 69, 90
7, 1019, Note_on_c, 4, 69, 0
7, 1020, Note_on_c, 4, 69, 80
7, 1079, Note_on_c, 4, 69, 0
7, 1080, Note_on_c, 4, 69, 90
7, 1199, Note_on_c, 4, 69, 0
7, 1200, Note_on_c, 4, 69, 80
7, 1259, Note_on_c, 4, 69, 0
7, 1260, Note_on_c, 4, 81, 90
7, 1319, Note_on_c, 4, 81, 0
7, 1320, Note_on_c, 4, 79, 80
7, 1349, Note_on_c, 4, 79, 0
7, 1350, Note_on_c, 4, 78, 80
7, 1379, Note_on_c, 4, 78, 0
7, 1380, Note_on_c, 4, 76, 80
7, 1409, Note_on_c, 4, 76, 0
7, 1410, Note_on_c, 4, 78, 80
7, 1439, Note_on_c, 4, 78, 0
7, 1440, Note_on_c, 4, 74, 90
7, 1499, Note_on_c, 4, 74, 0
7, 1500, Note_on_c, 4, 69, 80
7, 1559, Note_on_c, 4, 69, 0
7, 1680, Note_on_c, 4, 74, 80
7, 1709, Note_on_c, 4, 74, 0
7, 1710, Note_on_c, 4, 73, 80
7, 1739, Note_on_c, 4, 73, 0
7, 1740, Note_on_c, 4, 74, 80
7, 1799, Note_on_c, 4, 74, 0
7, 1860, Note_on_c, 4, 69, 80
7, 1889, Note_on_c, 4, 69, 0
7, 1890, Note_on_c, 4, 71, 80
7, 1919, Note_on_c, 4, 71, 0
7, 1920, Note_on_c, 4, 73, 80
7, 1979, Note_on_c, 4, 73, 0
7, 2040, Note_on_c, 4, 69, 80
7, 2099, Note_on_c, 4, 69, 0
7, 2100, Note_on_c, 4, 69, 80
7, 2159, Note_on_c, 4, 69, 0
7, 2160, Note_on_c, 4, 69, 90
7, 2219, Note_on_c, 4, 69, 0
7, 2220, Note_on_c, 4, 64, 80
7, 2279, Note_on_c, 4, 64, 0
7, 2280, Note_on_c, 4, 73, 80
7, 2339, Note_on_c, 4, 73, 0
7, 2340, Note_on_c, 4, 74, 90
7, 2369, Note_on_c, 4, 74, 0
7, 2370, Note_on_c, 4, 73, 90
7, 2399, Note_on_c, 4, 73, 0
7, 2400, Note_on_c, 4, 71, 80
7, 2459, Note_on_c, 4, 71, 0
7, 2460, Note_on_c, 4, 74, 80
7, 2519, Note_on_c, 4, 74, 0
7, 2520, Note_on_c, 4, 76, 90
7, 2549, Note_on_c, 4, 76, 0
7, 2550, Note_on_c, 4, 74, 90
7, 2579, Note_on_c, 4, 74, 0
7, 2580, Note_on_c, 4, 73, 80
7, 2609, Note_on_c, 4, 73, 0
7, 2610, Note_on_c, 4, 71, 80
7, 2639, Note_on_c, 4, 71, 0
7, 2640, Note_on_c, 4, 73, 80
7, 2669, Note_on_c, 4, 73, 0
7, 2670, Note_on_c, 4, 69, 80
7, 2699, Note_on_c, 4, 69, 0
7, 2700, Note_on_c, 4, 78, 90
7, 2759, Note_on_c, 4, 78, 0
7, 2760, Note_on_c, 4, 76, 80
7, 2819, Note_on_c, 4, 76, 0
7, 2820, Note_on_c, 4, 74, 80
7, 2879, Note_on_c, 4, 74, 0
7, 2880, Note_on_c, 4, 73, 90
7, 2939, Note_on_c, 4, 73, 0
7, 2940, Note_on_c, 4, 69, 80
7, 2999, Note_on_c, 4, 69, 0
7, 3000, Note_on_c, 4, 64, 80
7, 3059, Note_on_c, 4, 64, 0
7, 3060, Note_on_c, 4, 66, 90
7, 3089, Note_on_c, 4, 66, 0
7, 3090, Note_on_c, 4, 67, 90
7, 3119, Note_on_c, 4, 67, 0
7, 3120, Note_on_c, 4, 69, 80
7, 3269, Note_on_c, 4, 69, 0
7, 3270, Note_on_c, 4, 71, 90
7, 3299, Note_on_c, 4, 71, 0
7, 3300, Note_on_c, 4, 73, 80
7, 3359, Note_on_c, 4, 73, 0
7, 3360, Note_on_c, 4, 68, 80
7, 3419, Note_on_c, 4, 68, 0
7, 3420, Note_on_c, 4, 76, 90
7, 3479, Note_on_c, 4, 76, 0
7, 3480, Note_on_c, 4, 78, 80
7, 3539, Note_on_c, 4, 78, 0
7, 3540, Note_on_c, 4, 76, 80
7, 3659, Note_on_c, 4, 76, 0
7, 3660, Note_on_c, 4, 69, 65
7, 3719, Note_on_c, 4, 69, 0
7, 3720, Note_on_c, 4, 72, 65
7, 3839, Note_on_c, 4, 72, 0
7, 3840, Note_on_c, 4, 69, 65
7, 3899, Note_on_c, 4, 69, 0
7, 3900, Note_on_c, 4, 72, 65
7, 4019, Note_on_c, 4, 72, 0
7, 4020, Note_on_c, 4, 66, 65
7, 4079, Note_on_c, 4, 66, 0
7, 4080, Note_on_c, 4, 78, 65
7, 4139, Note_on_c, 4, 78, 0
7, 4140, Note_on_c, 4, 76, 65
7, 4199, Note_on_c, 4, 76, 0
7, 4200, Note_on_c, 4, 81, 80
7, 4259, Note_on_c, 4, 81, 0
7, 4260, Note_on_c, 4, 74, 80
7, 4319, Note_on_c, 4, 74, 0
7, 4320, Note_on_c, 4, 73, 90
7, 4439, Note_on_c, 4, 73, 0
7, 4560, Note_on_c, 4, 72, 80
7, 4589, Note_on_c, 4, 72, 0
7, 4590, Note_on_c, 4, 71, 80
7, 4619, Note_on_c, 4, 71, 0
7, 4620, Note_on_c, 4, 69, 80
7, 4649, Note_on_c, 4, 69, 0
7, 4650, Note_on_c, 4, 67, 80
7, 4679, Note_on_c, 4, 67, 0
7, 4680, Note_on_c, 4, 66, 90
7, 4739, Note_on_c, 4, 66, 0
7, 4740, Note_on_c, 4, 69, 80
7, 4769, Note_on_c, 4, 69, 0
7, 4770, Note_on_c, 4, 67, 80
7, 4799, Note_on_c, 4, 67, 0
7, 4800, Note_on_c, 4, 66, 80
7, 4829, Note_on_c, 4, 66, 0
7, 4830, Note_on_c, 4, 64, 80
7, 4859, Note_on_c, 4, 64, 0
7, 4860, Note_on_c, 4, 71, 90
7, 4919, Note_on_c, 4, 71, 0
7, 4920, Note_on_c, 4, 79, 80
7, 4949, Note_on_c, 4, 79, 0
7, 4950, Note_on_c, 4, 78, 80
7, 4979, Note_on_c, 4, 78, 0
7, 4980, Note_on_c, 4, 76, 80
7, 5009, Note_on_c, 4, 76, 0
7, 5010, Note_on_c, 4, 75, 80
7, 5039, Note_on_c, 4, 75, 0
7, 5040, Note_on_c, 4, 76, 90
7, 5099, Note_on_c, 4, 76, 0
7, 5100, Note_on_c, 4, 71, 80
7, 5159, Note_on_c, 4, 71, 0
7, 5460, Note_on_c, 4, 67, 80
7, 5489, Note_on_c, 4, 67, 0
7, 5490, Note_on_c, 4, 66, 80
7, 5519, Note_on_c, 4, 66, 0
7, 5520, Note_on_c, 4, 64, 80
7, 5549, Note_on_c, 4, 64, 0
7, 5550, Note_on_c, 4, 62, 80
7, 5579, Note_on_c, 4, 62, 0
7, 5580, Note_on_c, 4, 69, 90
7, 5639, Note_on_c, 4, 69, 0
7, 5640, Note_on_c, 4, 78, 80
7, 5669, Note_on_c, 4, 78, 0
7, 5670, Note_on_c, 4, 76, 80
7, 5699, Note_on_c, 4, 76, 0
7, 5700, Note_on_c, 4, 74, 80
7, 5729, Note_on_c, 4, 74, 0
7, 5730, Note_on_c, 4, 73, 80
7, 5759, Note_on_c, 4, 73, 0
7, 5760, Note_on_c, 4, 74, 90
7, 5819, Note_on_c, 4, 74, 0
7, 5820, Note_on_c, 4, 69, 80
7, 5879, Note_on_c, 4, 69, 0
7, 5880, Note_on_c, 4, 69, 80
7, 5939, Note_on_c, 4, 69, 0
7, 5940, Note_on_c, 4, 67, 90
7, 5999, Note_on_c, 4, 67, 0
7, 6000, Note_on_c, 4, 62, 80
7, 6059, Note_on_c, 4, 62, 0
7, 6060, Note_on_c, 4, 67, 80
7, 6119, Note_on_c, 4, 67, 0
7, 6120, Note_on_c, 4, 69, 90
7, 6179, Note_on_c, 4, 69, 0
7, 6180, Note_on_c, 4, 67, 80
7, 6239, Note_on_c, 4, 67, 0
7, 6240, Note_on_c, 4, 69, 80
7, 6299, Note_on_c, 4, 69, 0
7, 6300, Note_on_c, 4, 71, 90
7, 6359, Note_on_c, 4, 71, 0
7, 6360, Note_on_c, 4, 66, 80
7, 6419, Note_on_c, 4, 66, 0
7, 6420, Note_on_c, 4, 67, 80
7, 6479, Note_on_c, 4, 67, 0
7, 6480, Note_on_c, 4, 74, 90
7, 6539, Note_on_c, 4, 74, 0
7, 6540, Note_on_c, 4, 69, 80
7, 6599, Note_on_c, 4, 69, 0
7, 6600, Note_on_c, 4, 74, 80
7, 6719, Note_on_c, 4, 74, 0
7, 6720, Note_on_c, 4, 73, 80
7, 6779, Note_on_c, 4, 73, 0
7, 6780, Note_on_c, 4, 71, 80
7, 6839, Note_on_c, 4, 71, 0
7, 6840, Note_on_c, 4, 69, 90
7, 6899, Note_on_c, 4, 69, 0
7, 6900, Note_on_c, 4, 73, 80
7, 6959, Note_on_c, 4, 73, 0
7, 6960, Note_on_c, 4, 76, 80
7, 7079, Note_on_c, 4, 76, 0
7, 7080, Note_on_c, 4, 74, 80
7, 7139, Note_on_c, 4, 74, 0
7, 7140, Note_on_c, 4, 73, 80
7, 7199, Note_on_c, 4, 73, 0
7, 7200, Note_on_c, 4, 71, 90
7, 7259, Note_on_c, 4, 71, 0
7, 7260, Note_on_c, 4, 74, 80
7, 7319, Note_on_c, 4, 74, 0
7, 7320, Note_on_c, 4, 78, 80
7, 7379, Note_on_c, 4, 78, 0
7, 7380, Note_on_c, 4, 67, 90
7, 7439, Note_on_c, 4, 67, 0
7, 7440, Note_on_c, 4, 70, 80
7, 7499, Note_on_c, 4, 70, 0
7, 7500, Note_on_c, 4, 74, 80
7, 7619, Note_on_c, 4, 74, 0
7, 7620, Note_on_c, 4, 76, 80
7, 7649, Note_on_c, 4, 76, 0
7, 7650, Note_on_c, 4, 74, 80
7, 7679, Note_on_c, 4, 74, 0
7, 7680, Note_on_c, 4, 73, 80
7, 7709, Note_on_c, 4, 73, 0
7, 7710, Note_on_c, 4, 74, 80
7, 7739, Note_on_c, 4, 74, 0
7, 7740, Note_on_c, 4, 69, 90
7, 7799, Note_on_c, 4, 69, 0
7, 7800, Note_on_c, 4, 74, 80
7, 7859, Note_on_c, 4, 74, 0
7, 7860, Note_on_c, 4, 73, 80
7, 7919, Note_on_c, 4, 73, 0
7, 7920, Note_on_c, 4, 71, 65
7, 7979, Note_on_c, 4, 71, 0
7, 7980, Note_on_c, 4, 77, 65
7, 8039, Note_on_c, 4, 77, 0
7, 8040, Note_on_c, 4, 74, 65
7, 8159, Note_on_c, 4, 74, 0
7, 8160, Note_on_c, 4, 71, 65
7, 8219, Note_on_c, 4, 71, 0
7, 8220, Note_on_c, 4, 77, 65
7, 8339, Note_on_c, 4, 77, 0
7, 8340, Note_on_c, 4, 71, 65
7, 8369, Note_on_c, 4, 71, 0
7, 8370, Note_on_c, 4, 69, 65
7, 8399, Note_on_c, 4, 69, 0
7, 8400, Note_on_c, 4, 71, 80
7, 8429, Note_on_c, 4, 71, 0
7, 8430, Note_on_c, 4, 74, 80
7, 8459, Note_on_c, 4, 74, 0
7, 8460, Note_on_c, 4, 78, 90
7, 8519, Note_on_c, 4, 78, 0
7, 8520, Note_on_c, 4, 69, 80
7, 8579, Note_on_c, 4, 69, 0
7, 8580, Note_on_c, 4, 73, 80
7, 8639, Note_on_c, 4, 73, 0
7, 8640, Note_on_c, 4, 74, 90
7, 8759, Note_on_c, 4, 74, 0
7, 11640, Note_on_c, 4, 69, 80
7, 11699, Note_on_c, 4, 69, 0
7, 11700, Note_on_c, 4, 69, 90
7, 11939, Note_on_c, 4, 69, 0
7, 11940, Note_on_c, 4, 73, 80
7, 11999, Note_on_c, 4, 73, 0
7, 12000, Note_on_c, 4, 76, 80
7, 12059, Note_on_c, 4, 76, 0
7, 12060, Note_on_c, 4, 74, 90
7, 12119, Note_on_c, 4, 74, 0
7, 12120, Note_on_c, 4, 76, 80
7, 12149, Note_on_c, 4, 76, 0
7, 12150, Note_on_c, 4, 74, 80
7, 12179, Note_on_c, 4, 74, 0
7, 12180, Note_on_c, 4, 76, 80
7, 12209, Note_on_c, 4, 76, 0
7, 12210, Note_on_c, 4, 73, 80
7, 12239, Note_on_c, 4, 73, 0
7, 12240, Note_on_c, 4, 74, 90
7, 12299, Note_on_c, 4, 74, 0
7, 12300, Note_on_c, 4, 69, 80
7, 12359, Note_on_c, 4, 69, 0
7, 13080, Note_on_c, 4, 62, 80
7, 13139, Note_on_c, 4, 62, 0
7, 13140, Note_on_c, 4, 69, 90
7, 13259, Note_on_c, 4, 69, 0
7, 13260, Note_on_c, 4, 64, 80
7, 13319, Note_on_c, 4, 64, 0
7, 13320, Note_on_c, 4, 71, 90
7, 13439, Note_on_c, 4, 71, 0
7, 13440, Note_on_c, 4, 64, 80
7, 13499, Note_on_c, 4, 64, 0
7, 13500, Note_on_c, 4, 73, 90
7, 13559, Note_on_c, 4, 73, 0
7, 13560, Note_on_c, 4, 71, 80
7, 13589, Note_on_c, 4, 71, 0
7, 13590, Note_on_c, 4, 73, 80
7, 13619, Note_on_c, 4, 73, 0
7, 13620, Note_on_c, 4, 74, 80
7, 13649, Note_on_c, 4, 74, 0
7, 13650, Note_on_c, 4, 71, 80
7, 13679, Note_on_c, 4, 71, 0
7, 13680, Note_on_c, 4, 74, 90
7, 13709, Note_on_c, 4, 74, 0
7, 13710, Note_on_c, 4, 73, 90
7, 13739, Note_on_c, 4, 73, 0
7, 13740, Note_on_c, 4, 71, 80
7, 13769, Note_on_c, 4, 71, 0
7, 13770, Note_on_c, 4, 69, 80
7, 13799, Note_on_c, 4, 69, 0
7, 13800, Note_on_c, 4, 73, 80
7, 13829, Note_on_c, 4, 73, 0
7, 13830, Note_on_c, 4, 69, 80
7, 13859, Note_on_c, 4, 69, 0
7, 13860, Note_on_c, 4, 71, 90
7, 13889, Note_on_c, 4, 71, 0
7, 13890, Note_on_c, 4, 69, 90
7, 13919, Note_on_c, 4, 69, 0
7, 13920, Note_on_c, 4, 67, 80
7, 13949, Note_on_c, 4, 67, 0
7, 13950, Note_on_c, 4, 66, 80
7, 13979, Note_on_c, 4, 66, 0
7, 13980, Note_on_c, 4, 69, 80
7, 14009, Note_on_c, 4, 69, 0
7, 14010, Note_on_c, 4, 66, 80
7, 14039, Note_on_c, 4, 66, 0
7, 14040, Note_on_c, 4, 69, 90
7, 14069, Note_on_c, 4, 69, 0
7, 14070, Note_on_c, 4, 67, 90
7, 14099, Note_on_c, 4, 67, 0
7, 14100, Note_on_c, 4, 66, 80
7, 14129, Note_on_c, 4, 66, 0
7, 14130, Note_on_c, 4, 64, 80
7, 14159, Note_on_c, 4, 64, 0
7, 14160, Note_on_c, 4, 67, 80
7, 14189, Note_on_c, 4, 67, 0
7, 14190, Note_on_c, 4, 64, 80
7, 14219, Note_on_c, 4, 64, 0
7, 14220, Note_on_c, 4, 69, 90
7, 14249, Note_on_c, 4, 69, 0
7, 14280, Note_on_c, 4, 67, 80
7, 14309, Note_on_c, 4, 67, 0
7, 14310, Note_on_c, 4, 66, 80
7, 14339, Note_on_c, 4, 66, 0
7, 14340, Note_on_c, 4, 64, 80
7, 14369, Note_on_c, 4, 64, 0
7, 14370, Note_on_c, 4, 66, 80
7, 14399, Note_on_c, 4, 66, 0
7, 14400, Note_on_c, 4, 62, 90
7, 14610, Note_on_c, 4, 62, 0
7, 14610, Note_on_c, 4, 61, 90
7, 14639, Note_on_c, 4, 61, 0
7, 14640, Note_on_c, 4, 64, 80
7, 14819, Note_on_c, 4, 64, 0
7, 14820, Note_on_c, 4, 68, 80
7, 14879, Note_on_c, 4, 68, 0
7, 14880, Note_on_c, 4, 71, 80
7, 14939, Note_on_c, 4, 71, 0
7, 14940, Note_on_c, 4, 69, 90
7, 15059, Note_on_c, 4, 69, 0
7, 15060, Note_on_c, 4, 68, 80
7, 15119, Note_on_c, 4, 68, 0
7, 15120, Note_on_c, 4, 69, 90
7, 15540, Note_on_c, 4, 69, 0
7, 15540, Note_on_c, 4, 73, 80
7, 15599, Note_on_c, 4, 73, 0
7, 15600, Note_on_c, 4, 76, 80
7, 15659, Note_on_c, 4, 76, 0
7, 15660, Note_on_c, 4, 74, 90
7, 15719, Note_on_c, 4, 74, 0
7, 15720, Note_on_c, 4, 76, 80
7, 15749, Note_on_c, 4, 76, 0
7, 15750, Note_on_c, 4, 74, 80
7, 15779, Note_on_c, 4, 74, 0
7, 15780, Note_on_c, 4, 76, 80
7, 15809, Note_on_c, 4, 76, 0
7, 15810, Note_on_c, 4, 73, 80
7, 15839, Note_on_c, 4, 73, 0
7, 15840, Note_on_c, 4, 74, 90
7, 15899, Note_on_c, 4, 74, 0
7, 15900, Note_on_c, 4, 69, 80
7, 15959, Note_on_c, 4, 69, 0
7, 15960, Note_on_c, 4, 64, 80
7, 16019, Note_on_c, 4, 64, 0
7, 16020, Note_on_c, 4, 66, 90
7, 16049, Note_on_c, 4, 66, 0
7, 16080, Note_on_c, 4, 71, 80
7, 16109, Note_on_c, 4, 71, 0
7, 16110, Note_on_c, 4, 69, 80
7, 16139, Note_on_c, 4, 69, 0
7, 16140, Note_on_c, 4, 67, 80
7, 16169, Note_on_c, 4, 67, 0
7, 16170, Note_on_c, 4, 66, 80
7, 16199, Note_on_c, 4, 66, 0
7, 16200, Note_on_c, 4, 64, 90
7, 16229, Note_on_c, 4, 64, 0
7, 16260, Note_on_c, 4, 69, 80
7, 16289, Note_on_c, 4, 69, 0
7, 16290, Note_on_c, 4, 67, 80
7, 16319, Note_on_c, 4, 67, 0
7, 16320, Note_on_c, 4, 66, 80
7, 16349, Note_on_c, 4, 66, 0
7, 16350, Note_on_c, 4, 64, 80
7, 16379, Note_on_c, 4, 64, 0
7, 16380, Note_on_c, 4, 62, 90
7, 16439, Note_on_c, 4, 62, 0
7, 16440, Note_on_c, 4, 67, 80
7, 16499, Note_on_c, 4, 67, 0
7, 16500, Note_on_c, 4, 66, 80
7, 16559, Note_on_c, 4, 66, 0
7, 16560, Note_on_c, 4, 64, 90
7, 16799, Note_on_c, 4, 64, 0
7, 16800, Note_on_c, 4, 62, 80
7, 16859, Note_on_c, 4, 62, 0
7, 16860, Note_on_c, 4, 66, 80
7, 16919, Note_on_c, 4, 66, 0
7, 16920, Note_on_c, 4, 68, 90
7, 16949, Note_on_c, 4, 68, 0
7, 16950, Note_on_c, 4, 66, 90
7, 16979, Note_on_c, 4, 66, 0
7, 16980, Note_on_c, 4, 64, 80
7, 17039, Note_on_c, 4, 64, 0
7, 17040, Note_on_c, 4, 69, 80
7, 17069, Note_on_c, 4, 69, 0
7, 17070, Note_on_c, 4, 67, 80
7, 17099, Note_on_c, 4, 67, 0
7, 17100, Note_on_c, 4, 66, 90
7, 17129, Note_on_c, 4, 66, 0
7, 17130, Note_on_c, 4, 64, 90
7, 17159, Note_on_c, 4, 64, 0
7, 17160, Note_on_c, 4, 62, 80
7, 17219, Note_on_c, 4, 62, 0
7, 17340, Note_on_c, 4, 64, 80
7, 17369, Note_on_c, 4, 64, 0
7, 17370, Note_on_c, 4, 66, 80
7, 17399, Note_on_c, 4, 66, 0
7, 17400, Note_on_c, 4, 68, 80
7, 17429, Note_on_c, 4, 68, 0
7, 17430, Note_on_c, 4, 64, 80
7, 17459, Note_on_c, 4, 64, 0
7, 17460, Note_on_c, 4, 76, 90
7, 17519, Note_on_c, 4, 76, 0
7, 17520, Note_on_c, 4, 69, 80
7, 17579, Note_on_c, 4, 69, 0
7, 17580, Note_on_c, 4, 68, 80
7, 17639, Note_on_c, 4, 68, 0
7, 17640, Note_on_c, 4, 69, 90
7, 17699, Note_on_c, 4, 69, 0
7, 17700, Note_on_c, 4, 64, 80
7, 17729, Note_on_c, 4, 64, 0
7, 17730, Note_on_c, 4, 66, 80
7, 17759, Note_on_c, 4, 66, 0
7, 17760, Note_on_c, 4, 67, 80
7, 17789, Note_on_c, 4, 67, 0
7, 17790, Note_on_c, 4, 64, 80
7, 17819, Note_on_c, 4, 64, 0
7, 17820, Note_on_c, 4, 69, 90
7, 17879, Note_on_c, 4, 69, 0
7, 17880, Note_on_c, 4, 62, 80
7, 17939, Note_on_c, 4, 62, 0
7, 17940, Note_on_c, 4, 61, 80
7, 17999, Note_on_c, 4, 61, 0
7, 18000, Note_on_c, 4, 62, 90
7, 18239, Note_on_c, 4, 62, 0
7, 18240, Note_on_c, 4, 64, 80
7, 18269, Note_on_c, 4, 64, 0
7, 18270, Note_on_c, 4, 66, 80
7, 18299, Note_on_c, 4, 66, 0
7, 18300, Note_on_c, 4, 67, 80
7, 18329, Note_on_c, 4, 67, 0
7, 18330, Note_on_c, 4, 64, 80
7, 18359, Note_on_c, 4, 64, 0
7, 18360, Note_on_c, 4, 69, 90
7, 18419, Note_on_c, 4, 69, 0
7, 18420, Note_on_c, 4, 66, 80
7, 18479, Note_on_c, 4, 66, 0
7, 18480, Note_on_c, 4, 62, 80
7, 18539, Note_on_c, 4, 62, 0
7, 18540, Note_on_c, 4, 67, 90
7, 18569, Note_on_c, 4, 67, 0
7, 18570, Note_on_c, 4, 66, 90
7, 18599, Note_on_c, 4, 66, 0
7, 18600, Note_on_c, 4, 67, 80
7, 18629, Note_on_c, 4, 67, 0
7, 18630, Note_on_c, 4, 69, 80
7, 18659, Note_on_c, 4, 69, 0
7, 18660, Note_on_c, 4, 71, 80
7, 18689, Note_on_c, 4, 71, 0
7, 18690, Note_on_c, 4, 67, 80
7, 18719, Note_on_c, 4, 67, 0
7, 18720, Note_on_c, 4, 64, 90
7, 18779, Note_on_c, 4, 64, 0
7, 18780, Note_on_c, 4, 66, 80
7, 18809, Note_on_c, 4, 66, 0
7, 18810, Note_on_c, 4, 67, 80
7, 18839, Note_on_c, 4, 67, 0
7, 18840, Note_on_c, 4, 69, 80
7, 18959, Note_on_c, 4, 69, 0
7, 18960, Note_on_c, 4, 67, 80
7, 18989, Note_on_c, 4, 67, 0
7, 18990, Note_on_c, 4, 66, 80
7, 19019, Note_on_c, 4, 66, 0
7, 19020, Note_on_c, 4, 67, 80
7, 19140, Note_on_c, 4, 67, 0
7, 19140, Note_on_c, 4, 66, 80
7, 19169, Note_on_c, 4, 66, 0
7, 19170, Note_on_c, 4, 64, 80
7, 19199, Note_on_c, 4, 64, 0
7, 19200, Note_on_c, 4, 66, 80
7, 19289, Note_on_c, 4, 66, 0
7, 19290, Note_on_c, 4, 67, 90
7, 19319, Note_on_c, 4, 67, 0
7, 19320, Note_on_c, 4, 69, 80
7, 19379, Note_on_c, 4, 69, 0
7, 19380, Note_on_c, 4, 74, 80
7, 19499, Note_on_c, 4, 74, 0
7, 19500, Note_on_c, 4, 73, 80
7, 19529, Note_on_c, 4, 73, 0
7, 19530, Note_on_c, 4, 74, 80
7, 19559, Note_on_c, 4, 74, 0
7, 19560, Note_on_c, 4, 76, 80
7, 19589, Note_on_c, 4, 76, 0
7, 19590, Note_on_c, 4, 73, 80
7, 19619, Note_on_c, 4, 73, 0
7, 19620, Note_on_c, 4, 74, 90
7, 19649, Note_on_c, 4, 74, 0
7, 19650, Note_on_c, 4, 73, 90
7, 19679, Note_on_c, 4, 73, 0
7, 19680, Note_on_c, 4, 71, 80
7, 19739, Note_on_c, 4, 71, 0
7, 19740, Note_on_c, 4, 76, 80
7, 19799, Note_on_c, 4, 76, 0
7, 19800, Note_on_c, 4, 73, 90
7, 19859, Note_on_c, 4, 73, 0
7, 19860, Note_on_c, 4, 74, 80
7, 19919, Note_on_c, 4, 74, 0
7, 19920, Note_on_c, 4, 69, 80
7, 19979, Note_on_c, 4, 69, 0
7, 19980, Note_on_c, 4, 71, 90
7, 20039, Note_on_c, 4, 71, 0
7, 20040, Note_on_c, 4, 73, 80
7, 20099, Note_on_c, 4, 73, 0
7, 20100, Note_on_c, 4, 74, 80
7, 20159, Note_on_c, 4, 74, 0
7, 20160, Note_on_c, 4, 73, 90
7, 20219, Note_on_c, 4, 73, 0
7, 20220, Note_on_c, 4, 69, 80
7, 20279, Note_on_c, 4, 69, 0
7, 20280, Note_on_c, 4, 64, 80
7, 20339, Note_on_c, 4, 64, 0
7, 20340, Note_on_c, 4, 66, 90
7, 20369, Note_on_c, 4, 66, 0
7, 20370, Note_on_c, 4, 67, 90
7, 20399, Note_on_c, 4, 67, 0
7, 20400, Note_on_c, 4, 69, 80
7, 20549, Note_on_c, 4, 69, 0
7, 20550, Note_on_c, 4, 71, 90
7, 20579, Note_on_c, 4, 71, 0
7, 20580, Note_on_c, 4, 73, 80
7, 20639, Note_on_c, 4, 73, 0
7, 20640, Note_on_c, 4, 68, 80
7, 20699, Note_on_c, 4, 68, 0
7, 20700, Note_on_c, 4, 76, 90
7, 20759, Note_on_c, 4, 76, 0
7, 20760, Note_on_c, 4, 78, 80
7, 20819, Note_on_c, 4, 78, 0
7, 20820, Note_on_c, 4, 76, 80
7, 20939, Note_on_c, 4, 76, 0
7, 20940, Note_on_c, 4, 69, 70
7, 20999, Note_on_c, 4, 69, 0
7, 21000, Note_on_c, 4, 72, 70
7, 21119, Note_on_c, 4, 72, 0
7, 21120, Note_on_c, 4, 69, 70
7, 21179, Note_on_c, 4, 69, 0
7, 21180, Note_on_c, 4, 72, 70
7, 21299, Note_on_c, 4, 72, 0
7, 21300, Note_on_c, 4, 66, 70
7, 21359, Note_on_c, 4, 66, 0
7, 21360, Note_on_c, 4, 78, 70
7, 21419, Note_on_c, 4, 78, 0
7, 21420, Note_on_c, 4, 76, 70
7, 21479, Note_on_c, 4, 76, 0
7, 21480, Note_on_c, 4, 81, 90
7, 21539, Note_on_c, 4, 81, 0
7, 21540, Note_on_c, 4, 74, 90
7, 21599, Note_on_c, 4, 74, 0
7, 21600, Note_on_c, 4, 73, 90
7, 21719, Note_on_c, 4, 73, 0
7, 21840, Note_on_c, 4, 69, 80
7, 21869, Note_on_c, 4, 69, 0
7, 21870, Note_on_c, 4, 67, 80
7, 21899, Note_on_c, 4, 67, 0
7, 21900, Note_on_c, 4, 66, 80
7, 21959, Note_on_c, 4, 66, 0
7, 22020, Note_on_c, 4, 75, 80
7, 22049, Note_on_c, 4, 75, 0
7, 22050, Note_on_c, 4, 76, 80
7, 22079, Note_on_c, 4, 76, 0
7, 22080, Note_on_c, 4, 78, 80
7, 22139, Note_on_c, 4, 78, 0
7, 22200, Note_on_c, 4, 71, 80
7, 22229, Note_on_c, 4, 71, 0
7, 22230, Note_on_c, 4, 69, 80
7, 22259, Note_on_c, 4, 69, 0
7, 22260, Note_on_c, 4, 67, 80
7, 22289, Note_on_c, 4, 67, 0
7, 22290, Note_on_c, 4, 66, 80
7, 22319, Note_on_c, 4, 66, 0
7, 22320, Note_on_c, 4, 64, 90
7, 22379, Note_on_c, 4, 64, 0
7, 22560, Note_on_c, 4, 70, 80
7, 22589, Note_on_c, 4, 70, 0
7, 22590, Note_on_c, 4, 71, 80
7, 22619, Note_on_c, 4, 71, 0
7, 22620, Note_on_c, 4, 73, 80
7, 22679, Note_on_c, 4, 73, 0
7, 22740, Note_on_c, 4, 76, 80
7, 22769, Note_on_c, 4, 76, 0
7, 22770, Note_on_c, 4, 74, 80
7, 22799, Note_on_c, 4, 74, 0
7, 22800, Note_on_c, 4, 73, 80
7, 22859, Note_on_c, 4, 73, 0
7, 22920, Note_on_c, 4, 71, 80
7, 22979, Note_on_c, 4, 71, 0
7, 22980, Note_on_c, 4, 66, 80
7, 23039, Note_on_c, 4, 66, 0
7, 23040, Note_on_c, 4, 66, 90
7, 23099, Note_on_c, 4, 66, 0
7, 23280, Note_on_c, 4, 71, 80
7, 23309, Note_on_c, 4, 71, 0
7, 23310, Note_on_c, 4, 69, 80
7, 23339, Note_on_c, 4, 69, 0
7, 23340, Note_on_c, 4, 68, 80
7, 23399, Note_on_c, 4, 68, 0
7, 23460, Note_on_c, 4, 77, 80
7, 23489, Note_on_c, 4, 77, 0
7, 23490, Note_on_c, 4, 78, 80
7, 23519, Note_on_c, 4, 78, 0
7, 23520, Note_on_c, 4, 80, 80
7, 23579, Note_on_c, 4, 80, 0
7, 23640, Note_on_c, 4, 73, 80
7, 23669, Note_on_c, 4, 73, 0
7, 23670, Note_on_c, 4, 71, 80
7, 23699, Note_on_c, 4, 71, 0
7, 23700, Note_on_c, 4, 69, 80
7, 23729, Note_on_c, 4, 69, 0
7, 23730, Note_on_c, 4, 68, 80
7, 23759, Note_on_c, 4, 68, 0
7, 23760, Note_on_c, 4, 66, 90
7, 23879, Note_on_c, 4, 66, 0
7, 24000, Note_on_c, 4, 72, 80
7, 24029, Note_on_c, 4, 72, 0
7, 24030, Note_on_c, 4, 71, 80
7, 24059, Note_on_c, 4, 71, 0
7, 24060, Note_on_c, 4, 69, 80
7, 24119, Note_on_c, 4, 69, 0
7, 24180, Note_on_c, 4, 66, 80
7, 24209, Note_on_c, 4, 66, 0
7, 24210, Note_on_c, 4, 67, 80
7, 24239, Note_on_c, 4, 67, 0
7, 24240, Note_on_c, 4, 69, 80
7, 24299, Note_on_c, 4, 69, 0
7, 24360, Note_on_c, 4, 67, 80
7, 24389, Note_on_c, 4, 67, 0
7, 24390, Note_on_c, 4, 69, 80
7, 24419, Note_on_c, 4, 69, 0
7, 24420, Note_on_c, 4, 71, 80
7, 24479, Note_on_c, 4, 71, 0
7, 24480, Note_on_c, 4, 64, 90
7, 24599, Note_on_c, 4, 64, 0
7, 24720, Note_on_c, 4, 70, 80
7, 24749, Note_on_c, 4, 70, 0
7, 24750, Note_on_c, 4, 71, 80
7, 24779, Note_on_c, 4, 71, 0
7, 24780, Note_on_c, 4, 73, 80
7, 24839, Note_on_c, 4, 73, 0
7, 24900, Note_on_c, 4, 67, 80
7, 24959, Note_on_c, 4, 67, 0
7, 24960, Note_on_c, 4, 66, 80
7, 25019, Note_on_c, 4, 66, 0
7, 25080, Note_on_c, 4, 71, 80
7, 25139, Note_on_c, 4, 71, 0
7, 25140, Note_on_c, 4, 66, 80
7, 25199, Note_on_c, 4, 66, 0
7, 25200, Note_on_c, 4, 66, 90
7, 25319, Note_on_c, 4, 66, 0
7, 25440, Note_on_c, 4, 78, 80
7, 25499, Note_on_c, 4, 78, 0
7, 25500, Note_on_c, 4, 66, 80
7, 25559, Note_on_c, 4, 66, 0
7, 25560, Note_on_c, 4, 68, 90
7, 25589, Note_on_c, 4, 68, 0
7, 25590, Note_on_c, 4, 71, 90
7, 25619, Note_on_c, 4, 71, 0
7, 25620, Note_on_c, 4, 74, 80
7, 25649, Note_on_c, 4, 74, 0
7, 25650, Note_on_c, 4, 73, 80
7, 25679, Note_on_c, 4, 73, 0
7, 25680, Note_on_c, 4, 71, 80
7, 25709, Note_on_c, 4, 71, 0
7, 25710, Note_on_c, 4, 69, 80
7, 25739, Note_on_c, 4, 69, 0
7, 25740, Note_on_c, 4, 71, 90
7, 25769, Note_on_c, 4, 71, 0
7, 25770, Note_on_c, 4, 68, 90
7, 25799, Note_on_c, 4, 68, 0
7, 25800, Note_on_c, 4, 76, 80
7, 25829, Note_on_c, 4, 76, 0
7, 25830, Note_on_c, 4, 74, 80
7, 25859, Note_on_c, 4, 74, 0
7, 25860, Note_on_c, 4, 73, 80
7, 25889, Note_on_c, 4, 73, 0
7, 25890, Note_on_c, 4, 71, 80
7, 25919, Note_on_c, 4, 71, 0
7, 25920, Note_on_c, 4, 69, 90
7, 25979, Note_on_c, 4, 69, 0
7, 25980, Note_on_c, 4, 64, 80
7, 26039, Note_on_c, 4, 64, 0
7, 26040, Note_on_c, 4, 67, 80
7, 26099, Note_on_c, 4, 67, 0
7, 26100, Note_on_c, 4, 72, 90
7, 26129, Note_on_c, 4, 72, 0
7, 26130, Note_on_c, 4, 71, 90
7, 26159, Note_on_c, 4, 71, 0
7, 26160, Note_on_c, 4, 69, 80
7, 26189, Note_on_c, 4, 69, 0
7, 26190, Note_on_c, 4, 67, 80
7, 26219, Note_on_c, 4, 67, 0
7, 26220, Note_on_c, 4, 66, 80
7, 26249, Note_on_c, 4, 66, 0
7, 26250, Note_on_c, 4, 64, 80
7, 26279, Note_on_c, 4, 64, 0
7, 26280, Note_on_c, 4, 71, 90
7, 26339, Note_on_c, 4, 71, 0
7, 26340, Note_on_c, 4, 69, 80
7, 26369, Note_on_c, 4, 69, 0
7, 26370, Note_on_c, 4, 67, 80
7, 26399, Note_on_c, 4, 67, 0
7, 26400, Note_on_c, 4, 66, 80
7, 26429, Note_on_c, 4, 66, 0
7, 26430, Note_on_c, 4, 64, 80
7, 26459, Note_on_c, 4, 64, 0
7, 26460, Note_on_c, 4, 63, 90
7, 26519, Note_on_c, 4, 63, 0
7, 26520, Note_on_c, 4, 64, 80
7, 26579, Note_on_c, 4, 64, 0
7, 26580, Note_on_c, 4, 71, 80
7, 26639, Note_on_c, 4, 71, 0
7, 26640, Note_on_c, 4, 71, 90
7, 26879, Note_on_c, 4, 71, 0
7, 26880, Note_on_c, 4, 76, 80
7, 26909, Note_on_c, 4, 76, 0
7, 26910, Note_on_c, 4, 74, 80
7, 26939, Note_on_c, 4, 74, 0
7, 26940, Note_on_c, 4, 73, 80
7, 26969, Note_on_c, 4, 73, 0
7, 26970, Note_on_c, 4, 71, 80
7, 26999, Note_on_c, 4, 71, 0
7, 27000, Note_on_c, 4, 69, 90
7, 27149, Note_on_c, 4, 69, 0
7, 27150, Note_on_c, 4, 71, 80
7, 27179, Note_on_c, 4, 71, 0
7, 27180, Note_on_c, 4, 73, 90
7, 27239, Note_on_c, 4, 73, 0
7, 27240, Note_on_c, 4, 69, 80
7, 27419, Note_on_c, 4, 69, 0
7, 27420, Note_on_c, 4, 66, 80
7, 27479, Note_on_c, 4, 66, 0
7, 27480, Note_on_c, 4, 62, 80
7, 27599, Note_on_c, 4, 62, 0
7, 27600, Note_on_c, 4, 71, 80
7, 27839, Note_on_c, 4, 71, 0
7, 27840, Note_on_c, 4, 70, 80
7, 27899, Note_on_c, 4, 70, 0
7, 27900, Note_on_c, 4, 71, 90
7, 27959, Note_on_c, 4, 71, 0
7, 27960, Note_on_c, 4, 73, 80
7, 28019, Note_on_c, 4, 73, 0
7, 28020, Note_on_c, 4, 70, 80
7, 28079, Note_on_c, 4, 70, 0
7, 28080, Note_on_c, 4, 71, 70
7, 28139, Note_on_c, 4, 71, 0
7, 28140, Note_on_c, 4, 65, 70
7, 28199, Note_on_c, 4, 65, 0
7, 28200, Note_on_c, 4, 74, 70
7, 28319, Note_on_c, 4, 74, 0
7, 28320, Note_on_c, 4, 71, 70
7, 28379, Note_on_c, 4, 71, 0
7, 28380, Note_on_c, 4, 74, 70
7, 28499, Note_on_c, 4, 74, 0
7, 28500, Note_on_c, 4, 68, 70
7, 28559, Note_on_c, 4, 68, 0
7, 28560, Note_on_c, 4, 73, 70
7, 28619, Note_on_c, 4, 73, 0
7, 28620, Note_on_c, 4, 74, 70
7, 28649, Note_on_c, 4, 74, 0
7, 28650, Note_on_c, 4, 76, 90
7, 28679, Note_on_c, 4, 76, 0
7, 28680, Note_on_c, 4, 74, 80
7, 28709, Note_on_c, 4, 74, 0
7, 28710, Note_on_c, 4, 73, 80
7, 28739, Note_on_c, 4, 73, 0
7, 28740, Note_on_c, 4, 71, 80
7, 28769, Note_on_c, 4, 71, 0
7, 28770, Note_on_c, 4, 70, 80
7, 28799, Note_on_c, 4, 70, 0
7, 28800, Note_on_c, 4, 71, 90
7, 28919, Note_on_c, 4, 71, 0
7, 29040, Note_on_c, 4, 62, 87
7, 29099, Note_on_c, 4, 62, 0
7, 29100, Note_on_c, 4, 66, 85
7, 29159, Note_on_c, 4, 66, 0
7, 29220, Note_on_c, 4, 64, 82
7, 29279, Note_on_c, 4, 64, 0
7, 29280, Note_on_c, 4, 73, 80
7, 29339, Note_on_c, 4, 73, 0
7, 29400, Note_on_c, 4, 71, 77
7, 29459, Note_on_c, 4, 71, 0
7, 29460, Note_on_c, 4, 69, 75
7, 29519, Note_on_c, 4, 69, 0
7, 29520, Note_on_c, 4, 69, 73
7, 29579, Note_on_c, 4, 69, 0
7, 29580, Note_on_c, 4, 66, 71
7, 29639, Note_on_c, 4, 66, 0
7, 29640, Note_on_c, 4, 66, 80
7, 29699, Note_on_c, 4, 66, 0
7, 29700, Note_on_c, 4, 69, 90
7, 29819, Note_on_c, 4, 69, 0
7, 29820, Note_on_c, 4, 69, 80
7, 29879, Note_on_c, 4, 69, 0
7, 29880, Note_on_c, 4, 69, 90
7, 29999, Note_on_c, 4, 69, 0
7, 30000, Note_on_c, 4, 69, 80
7, 30059, Note_on_c, 4, 69, 0
7, 30060, Note_on_c, 4, 81, 90
7, 30119, Note_on_c, 4, 81, 0
7, 30120, Note_on_c, 4, 79, 80
7, 30149, Note_on_c, 4, 79, 0
7, 30150, Note_on_c, 4, 78, 80
7, 30179, Note_on_c, 4, 78, 0
7, 30180, Note_on_c, 4, 76, 80
7, 30209, Note_on_c, 4, 76, 0
7, 30210, Note_on_c, 4, 78, 80
7, 30239, Note_on_c, 4, 78, 0
7, 30240, Note_on_c, 4, 74, 90
7, 30299, Note_on_c, 4, 74, 0
7, 30300, Note_on_c, 4, 66, 80
7, 30359, Note_on_c, 4, 66, 0
7, 30360, Note_on_c, 4, 62, 80
7, 30419, Note_on_c, 4, 62, 0
7, 30420, Note_on_c, 4, 69, 90
7, 30539, Note_on_c, 4, 69, 0
7, 30540, Note_on_c, 4, 64, 80
7, 30599, Note_on_c, 4, 64, 0
7, 30600, Note_on_c, 4, 71, 90
7, 30719, Note_on_c, 4, 71, 0
7, 30720, Note_on_c, 4, 64, 80
7, 30779, Note_on_c, 4, 64, 0
7, 30780, Note_on_c, 4, 73, 90
7, 30839, Note_on_c, 4, 73, 0
7, 30840, Note_on_c, 4, 71, 80
7, 30869, Note_on_c, 4, 71, 0
7, 30870, Note_on_c, 4, 73, 80
7, 30899, Note_on_c, 4, 73, 0
7, 30900, Note_on_c, 4, 74, 80
7, 30929, Note_on_c, 4, 74, 0
7, 30930, Note_on_c, 4, 71, 80
7, 30959, Note_on_c, 4, 71, 0
7, 30960, Note_on_c, 4, 74, 90
7, 30989, Note_on_c, 4, 74, 0
7, 30990, Note_on_c, 4, 73, 90
7, 31019, Note_on_c, 4, 73, 0
7, 31020, Note_on_c, 4, 71, 80
7, 31049, Note_on_c, 4, 71, 0
7, 31050, Note_on_c, 4, 69, 80
7, 31079, Note_on_c, 4, 69, 0
7, 31080, Note_on_c, 4, 73, 80
7, 31109, Note_on_c, 4, 73, 0
7, 31110, Note_on_c, 4, 69, 80
7, 31139, Note_on_c, 4, 69, 0
7, 31140, Note_on_c, 4, 71, 90
7, 31169, Note_on_c, 4, 71, 0
7, 31170, Note_on_c, 4, 69, 90
7, 31199, Note_on_c, 4, 69, 0
7, 31200, Note_on_c, 4, 67, 80
7, 31229, Note_on_c, 4, 67, 0
7, 31230, Note_on_c, 4, 66, 80
7, 31259, Note_on_c, 4, 66, 0
7, 31260, Note_on_c, 4, 69, 80
7, 31289, Note_on_c, 4, 69, 0
7, 31290, Note_on_c, 4, 66, 80
7, 31319, Note_on_c, 4, 66, 0
7, 31320, Note_on_c, 4, 69, 90
7, 31349, Note_on_c, 4, 69, 0
7, 31350, Note_on_c, 4, 67, 90
7, 31379, Note_on_c, 4, 67, 0
7, 31380, Note_on_c, 4, 66, 80
7, 31409, Note_on_c, 4, 66, 0
7, 31410, Note_on_c, 4, 64, 80
7, 31439, Note_on_c, 4, 64, 0
7, 31440, Note_on_c, 4, 67, 80
7, 31469, Note_on_c, 4, 67, 0
7, 31470, Note_on_c, 4, 64, 80
7, 31499, Note_on_c, 4, 64, 0
7, 31500, Note_on_c, 4, 69, 90
7, 31529, Note_on_c, 4, 69, 0
7, 31560, Note_on_c, 4, 67, 80
7, 31589, Note_on_c, 4, 67, 0
7, 31590, Note_on_c, 4, 66, 80
7, 31619, Note_on_c, 4, 66, 0
7, 31620, Note_on_c, 4, 64, 80
7, 31649, Note_on_c, 4, 64, 0
7, 31650, Note_on_c, 4, 66, 80
7, 31679, Note_on_c, 4, 66, 0
7, 31680, Note_on_c, 4, 62, 90
7, 31739, Note_on_c, 4, 62, 0
7, 31740, Note_on_c, 4, 66, 80
7, 31799, Note_on_c, 4, 66, 0
7, 31800, Note_on_c, 4, 69, 80
7, 31919, Note_on_c, 4, 69, 0
7, 31920, Note_on_c, 4, 71, 80
7, 31979, Note_on_c, 4, 71, 0
7, 31980, Note_on_c, 4, 73, 80
7, 32039, Note_on_c, 4, 73, 0
7, 32040, Note_on_c, 4, 71, 90
7, 32099, Note_on_c, 4, 71, 0
7, 32100, Note_on_c, 4, 69, 80
7, 32129, Note_on_c, 4, 69, 0
7, 32130, Note_on_c, 4, 68, 80
7, 32159, Note_on_c, 4, 68, 0
7, 32160, Note_on_c, 4, 71, 80
7, 32219, Note_on_c, 4, 71, 0
7, 32220, Note_on_c, 4, 69, 90
7, 32279, Note_on_c, 4, 69, 0
7, 32280, Note_on_c, 4, 71, 80
7, 32339, Note_on_c, 4, 71, 0
7, 32340, Note_on_c, 4, 68, 80
7, 32399, Note_on_c, 4, 68, 0
7, 32400, Note_on_c, 4, 69, 90
7, 32459, Note_on_c, 4, 69, 0
7, 32460, Note_on_c, 4, 64, 80
7, 32519, Note_on_c, 4, 64, 0
7, 32520, Note_on_c, 4, 64, 80
7, 32579, Note_on_c, 4, 64, 0
7, 32580, Note_on_c, 4, 66, 90
7, 32609, Note_on_c, 4, 66, 0
7, 32610, Note_on_c, 4, 67, 90
7, 32639, Note_on_c, 4, 67, 0
7, 32640, Note_on_c, 4, 69, 80
7, 32789, Note_on_c, 4, 69, 0
7, 32790, Note_on_c, 4, 71, 90
7, 32819, Note_on_c, 4, 71, 0
7, 32820, Note_on_c, 4, 73, 80
7, 32849, Note_on_c, 4, 73, 0
7, 32850, Note_on_c, 4, 74, 80
7, 32879, Note_on_c, 4, 74, 0
7, 32880, Note_on_c, 4, 76, 80
7, 32939, Note_on_c, 4, 76, 0
7, 32940, Note_on_c, 4, 74, 90
7, 32999, Note_on_c, 4, 74, 0
7, 33000, Note_on_c, 4, 76, 80
7, 33029, Note_on_c, 4, 76, 0
7, 33030, Note_on_c, 4, 74, 80
7, 33059, Note_on_c, 4, 74, 0
7, 33060, Note_on_c, 4, 76, 80
7, 33089, Note_on_c, 4, 76, 0
7, 33090, Note_on_c, 4, 73, 80
7, 33119, Note_on_c, 4, 73, 0
7, 33120, Note_on_c, 4, 74, 90
7, 33179, Note_on_c, 4, 74, 0
7, 33180, Note_on_c, 4, 69, 80
7, 33239, Note_on_c, 4, 69, 0
7, 34080, Note_on_c, 4, 62, 80
7, 34139, Note_on_c, 4, 62, 0
7, 34140, Note_on_c, 4, 66, 80
7, 34199, Note_on_c, 4, 66, 0
7, 34200, Note_on_c, 4, 68, 90
7, 34259, Note_on_c, 4, 68, 0
7, 34260, Note_on_c, 4, 69, 80
7, 34319, Note_on_c, 4, 69, 0
7, 34320, Note_on_c, 4, 73, 80
7, 34379, Note_on_c, 4, 73, 0
7, 34380, Note_on_c, 4, 74, 90
7, 34439, Note_on_c, 4, 74, 0
7, 34440, Note_on_c, 4, 62, 80
7, 34499, Note_on_c, 4, 62, 0
7, 34500, Note_on_c, 4, 64, 80
7, 34589, Note_on_c, 4, 64, 0
7, 34590, Note_on_c, 4, 62, 90
7, 34619, Note_on_c, 4, 62, 0
7, 34620, Note_on_c, 4, 64, 80
7, 34679, Note_on_c, 4, 64, 0
7, 34740, Note_on_c, 4, 71, 90
7, 34769, Note_on_c, 4, 71, 0
7, 34770, Note_on_c, 4, 69, 90
7, 34799, Note_on_c, 4, 69, 0
7, 34800, Note_on_c, 4, 71, 80
7, 34859, Note_on_c, 4, 71, 0
7, 34980, Note_on_c, 4, 73, 80
7, 35039, Note_on_c, 4, 73, 0
7, 35040, Note_on_c, 4, 76, 80
7, 35099, Note_on_c, 4, 76, 0
7, 35100, Note_on_c, 4, 78, 90
7, 35159, Note_on_c, 4, 78, 0
7, 35160, Note_on_c, 4, 71, 80
7, 35219, Note_on_c, 4, 71, 0
7, 35340, Note_on_c, 4, 66, 80
7, 35399, Note_on_c, 4, 66, 0
7, 35400, Note_on_c, 4, 69, 80
7, 35459, Note_on_c, 4, 69, 0
7, 35460, Note_on_c, 4, 66, 90
7, 35489, Note_on_c, 4, 66, 0
7, 35490, Note_on_c, 4, 64, 90
7, 35519, Note_on_c, 4, 64, 0
7, 35520, Note_on_c, 4, 62, 80
7, 35579, Note_on_c, 4, 62, 0
7, 35640, Note_on_c, 4, 69, 90
7, 35669, Note_on_c, 4, 69, 0
7, 35670, Note_on_c, 4, 67, 90
7, 35699, Note_on_c, 4, 67, 0
7, 35700, Note_on_c, 4, 69, 80
7, 35759, Note_on_c, 4, 69, 0
7, 35910, Note_on_c, 4, 76, 80
7, 35939, Note_on_c, 4, 76, 0
7, 35940, Note_on_c, 4, 78, 80
7, 35969, Note_on_c, 4, 78, 0
7, 35970, Note_on_c, 4, 79, 80
7, 35999, Note_on_c, 4, 79, 0
7, 36000, Note_on_c, 4, 81, 90
7, 36059, Note_on_c, 4, 81, 0
7, 36060, Note_on_c, 4, 73, 80
7, 36119, Note_on_c, 4, 73, 0
7, 36120, Note_on_c, 4, 74, 80
7, 36239, Note_on_c, 4, 74, 0
7, 36240, Note_on_c, 4, 76, 80
7, 36299, Note_on_c, 4, 76, 0
7, 36360, Note_on_c, 4, 73, 90
7, 36419, Note_on_c, 4, 73, 0
7, 36420, Note_on_c, 4, 74, 80
7, 36479, Note_on_c, 4, 74, 0
7, 36540, Note_on_c, 4, 74, 90
7, 36599, Note_on_c, 4, 74, 0
7, 36600, Note_on_c, 4, 72, 80
7, 36659, Note_on_c, 4, 72, 0
7, 36840, Note_on_c, 4, 76, 80
7, 36899, Note_on_c, 4, 76, 0
7, 36900, Note_on_c, 4, 78, 90
7, 36929, Note_on_c, 4, 78, 0
7, 36960, Note_on_c, 4, 83, 80
7, 36989, Note_on_c, 4, 83, 0
7, 36990, Note_on_c, 4, 81, 80
7, 37019, Note_on_c, 4, 81, 0
7, 37020, Note_on_c, 4, 79, 80
7, 37049, Note_on_c, 4, 79, 0
7, 37050, Note_on_c, 4, 78, 80
7, 37079, Note_on_c, 4, 78, 0
7, 37080, Note_on_c, 4, 76, 90
7, 37109, Note_on_c, 4, 76, 0
7, 37140, Note_on_c, 4, 81, 80
7, 37169, Note_on_c, 4, 81, 0
7, 37170, Note_on_c, 4, 79, 80
7, 37199, Note_on_c, 4, 79, 0
7, 37200, Note_on_c, 4, 78, 80
7, 37229, Note_on_c, 4, 78, 0
7, 37230, Note_on_c, 4, 76, 80
7, 37259, Note_on_c, 4, 76, 0
7, 37260, Note_on_c, 4, 74, 90
7, 37319, Note_on_c, 4, 74, 0
7, 37320, Note_on_c, 4, 79, 80
7, 37379, Note_on_c, 4, 79, 0
7, 37380, Note_on_c, 4, 78, 80
7, 37439, Note_on_c, 4, 78, 0
7, 37440, Note_on_c, 4, 76, 90
7, 37499, Note_on_c, 4, 76, 0
7, 37500, Note_on_c, 4, 69, 80
7, 37559, Note_on_c, 4, 69, 0
7, 37560, Note_on_c, 4, 64, 80
7, 37619, Note_on_c, 4, 64, 0
7, 37620, Note_on_c, 4, 66, 90
7, 37649, Note_on_c, 4, 66, 0
7, 37650, Note_on_c, 4, 67, 90
7, 37679, Note_on_c, 4, 67, 0
7, 37680, Note_on_c, 4, 69, 80
7, 37829, Note_on_c, 4, 69, 0
7, 37830, Note_on_c, 4, 71, 90
7, 37859, Note_on_c, 4, 71, 0
7, 37860, Note_on_c, 4, 73, 80
7, 37919, Note_on_c, 4, 73, 0
7, 37920, Note_on_c, 4, 68, 80
7, 37979, Note_on_c, 4, 68, 0
7, 37980, Note_on_c, 4, 76, 90
7, 38039, Note_on_c, 4, 76, 0
7, 38040, Note_on_c, 4, 78, 80
7, 38099, Note_on_c, 4, 78, 0
7, 38100, Note_on_c, 4, 76, 80
7, 38219, Note_on_c, 4, 76, 0
7, 38220, Note_on_c, 4, 69, 70
7, 38279, Note_on_c, 4, 69, 0
7, 38280, Note_on_c, 4, 72, 70
7, 38399, Note_on_c, 4, 72, 0
7, 38400, Note_on_c, 4, 69, 70
7, 38459, Note_on_c, 4, 69, 0
7, 38460, Note_on_c, 4, 72, 70
7, 38579, Note_on_c, 4, 72, 0
7, 38580, Note_on_c, 4, 66, 70
7, 38639, Note_on_c, 4, 66, 0
7, 38640, Note_on_c, 4, 78, 70
7, 38699, Note_on_c, 4, 78, 0
7, 38700, Note_on_c, 4, 76, 90
7, 38759, Note_on_c, 4, 76, 0
7, 38760, Note_on_c, 4, 81, 80
7, 38819, Note_on_c, 4, 81, 0
7, 38820, Note_on_c, 4, 74, 80
7, 38879, Note_on_c, 4, 74, 0
7, 38880, Note_on_c, 4, 73, 90
7, 38999, Note_on_c, 4, 73, 0
7, 39120, Note_on_c, 4, 72, 80
7, 39149, Note_on_c, 4, 72, 0
7, 39150, Note_on_c, 4, 71, 80
7, 39179, Note_on_c, 4, 71, 0
7, 39180, Note_on_c, 4, 69, 80
7, 39209, Note_on_c, 4, 69, 0
7, 39210, Note_on_c, 4, 67, 80
7, 39239, Note_on_c, 4, 67, 0
7, 39240, Note_on_c, 4, 66, 90
7, 39299, Note_on_c, 4, 66, 0
7, 39300, Note_on_c, 4, 69, 80
7, 39329, Note_on_c, 4, 69, 0
7, 39330, Note_on_c, 4, 67, 80
7, 39359, Note_on_c, 4, 67, 0
7, 39360, Note_on_c, 4, 66, 80
7, 39389, Note_on_c, 4, 66, 0
7, 39390, Note_on_c, 4, 64, 80
7, 39419, Note_on_c, 4, 64, 0
7, 39420, Note_on_c, 4, 71, 90
7, 39479, Note_on_c, 4, 71, 0
7, 39480, Note_on_c, 4, 79, 80
7, 39509, Note_on_c, 4, 79, 0
7, 39510, Note_on_c, 4, 78, 80
7, 39539, Note_on_c, 4, 78, 0
7, 39540, Note_on_c, 4, 76, 80
7, 39569, Note_on_c, 4, 76, 0
7, 39570, Note_on_c, 4, 75, 80
7, 39599, Note_on_c, 4, 75, 0
7, 39600, Note_on_c, 4, 76, 90
7, 39659, Note_on_c, 4, 76, 0
7, 39660, Note_on_c, 4, 71, 80
7, 39719, Note_on_c, 4, 71, 0
7, 40020, Note_on_c, 4, 67, 80
7, 40049, Note_on_c, 4, 67, 0
7, 40050, Note_on_c, 4, 66, 80
7, 40079, Note_on_c, 4, 66, 0
7, 40080, Note_on_c, 4, 64, 80
7, 40109, Note_on_c, 4, 64, 0
7, 40110, Note_on_c, 4, 62, 80
7, 40139, Note_on_c, 4, 62, 0
7, 40140, Note_on_c, 4, 69, 90
7, 40199, Note_on_c, 4, 69, 0
7, 40200, Note_on_c, 4, 78, 80
7, 40229, Note_on_c, 4, 78, 0
7, 40230, Note_on_c, 4, 76, 80
7, 40259, Note_on_c, 4, 76, 0
7, 40260, Note_on_c, 4, 74, 80
7, 40289, Note_on_c, 4, 74, 0
7, 40290, Note_on_c, 4, 73, 80
7, 40319, Note_on_c, 4, 73, 0
7, 40320, Note_on_c, 4, 74, 90
7, 40379, Note_on_c, 4, 74, 0
7, 40380, Note_on_c, 4, 69, 80
7, 40439, Note_on_c, 4, 69, 0
7, 40440, Note_on_c, 4, 69, 80
7, 40499, Note_on_c, 4, 69, 0
7, 40500, Note_on_c, 4, 67, 90
7, 40559, Note_on_c, 4, 67, 0
7, 40560, Note_on_c, 4, 62, 80
7, 40619, Note_on_c, 4, 62, 0
7, 40620, Note_on_c, 4, 67, 80
7, 40679, Note_on_c, 4, 67, 0
7, 40680, Note_on_c, 4, 69, 90
7, 40739, Note_on_c, 4, 69, 0
7, 40740, Note_on_c, 4, 67, 80
7, 40799, Note_on_c, 4, 67, 0
7, 40800, Note_on_c, 4, 69, 80
7, 40859, Note_on_c, 4, 69, 0
7, 40860, Note_on_c, 4, 71, 90
7, 40919, Note_on_c, 4, 71, 0
7, 40920, Note_on_c, 4, 66, 80
7, 40979, Note_on_c, 4, 66, 0
7, 40980, Note_on_c, 4, 67, 80
7, 41039, Note_on_c, 4, 67, 0
7, 41040, Note_on_c, 4, 74, 90
7, 41099, Note_on_c, 4, 74, 0
7, 41100, Note_on_c, 4, 69, 80
7, 41159, Note_on_c, 4, 69, 0
7, 41160, Note_on_c, 4, 74, 80
7, 41279, Note_on_c, 4, 74, 0
7, 41280, Note_on_c, 4, 73, 80
7, 41339, Note_on_c, 4, 73, 0
7, 41340, Note_on_c, 4, 71, 80
7, 41399, Note_on_c, 4, 71, 0
7, 41400, Note_on_c, 4, 69, 90
7, 41459, Note_on_c, 4, 69, 0
7, 41460, Note_on_c, 4, 73, 80
7, 41519, Note_on_c, 4, 73, 0
7, 41520, Note_on_c, 4, 76, 80
7, 41639, Note_on_c, 4, 76, 0
7, 41640, Note_on_c, 4, 74, 80
7, 41699, Note_on_c, 4, 74, 0
7, 41700, Note_on_c, 4, 73, 80
7, 41759, Note_on_c, 4, 73, 0
7, 41760, Note_on_c, 4, 71, 90
7, 41819, Note_on_c, 4, 71, 0
7, 41820, Note_on_c, 4, 74, 80
7, 41879, Note_on_c, 4, 74, 0
7, 41880, Note_on_c, 4, 78, 80
7, 41939, Note_on_c, 4, 78, 0
7, 41940, Note_on_c, 4, 67, 90
7, 41999, Note_on_c, 4, 67, 0
7, 42000, Note_on_c, 4, 70, 80
7, 42059, Note_on_c, 4, 70, 0
7, 42060, Note_on_c, 4, 74, 80
7, 42179, Note_on_c, 4, 74, 0
7, 42180, Note_on_c, 4, 76, 80
7, 42209, Note_on_c, 4, 76, 0
7, 42210, Note_on_c, 4, 74, 80
7, 42239, Note_on_c, 4, 74, 0
7, 42240, Note_on_c, 4, 73, 80
7, 42269, Note_on_c, 4, 73, 0
7, 42270, Note_on_c, 4, 74, 80
7, 42299, Note_on_c, 4, 74, 0
7, 42300, Note_on_c, 4, 69, 90
7, 42359, Note_on_c, 4, 69, 0
7, 42360, Note_on_c, 4, 74, 80
7, 42419, Note_on_c, 4, 74, 0
7, 42420, Note_on_c, 4, 73, 80
7, 42479, Note_on_c, 4, 73, 0
7, 42480, Note_on_c, 4, 71, 70
7, 42539, Note_on_c, 4, 71, 0
7, 42540, Note_on_c, 4, 77, 70
7, 42599, Note_on_c, 4, 77, 0
7, 42600, Note_on_c, 4, 74, 70
7, 42719, Note_on_c, 4, 74, 0
7, 42720, Note_on_c, 4, 71, 70
7, 42779, Note_on_c, 4, 71, 0
7, 42780, Note_on_c, 4, 77, 70
7, 42899, Note_on_c, 4, 77, 0
7, 42900, Note_on_c, 4, 71, 70
7, 42929, Note_on_c, 4, 71, 0
7, 42930, Note_on_c, 4, 69, 70
7, 42959, Note_on_c, 4, 69, 0
7, 42960, Note_on_c, 4, 71, 80
7, 42989, Note_on_c, 4, 71, 0
7, 42990, Note_on_c, 4, 74, 80
7, 43019, Note_on_c, 4, 74, 0
7, 43020, Note_on_c, 4, 78, 90
7, 43079, Note_on_c, 4, 78, 0
7, 43080, Note_on_c, 4, 69, 80
7, 43139, Note_on_c, 4, 69, 0
7, 43140, Note_on_c, 4, 73, 80
7, 43199, Note_on_c, 4, 73, 0
7, 43200, Note_on_c, 4, 74, 90
7, 43319, Note_on_c, 4, 74, 0
7, 97080, Note_on_c, 4, 67, 80
7, 97200, Note_on_c, 4, 67, 0
7, 97200, Note_on_c, 4, 67, 80
7, 97260, Note_on_c, 4, 67, 0
7, 97260, Note_on_c, 4, 69, 80
7, 97320, Note_on_c, 4, 69, 0
7, 97320, Note_on_c, 4, 71, 80
7, 97440, Note_on_c, 4, 71, 0
7, 97440, Note_on_c, 4, 69, 80
7, 97560, Note_on_c, 4, 69, 0
7, 97560, Note_on_c, 4, 67, 80
7, 97680, Note_on_c, 4, 67, 0
7, 97680, Note_on_c, 4, 69, 80
7, 97800, Note_on_c, 4, 69, 0
7, 97800, Note_on_c, 4, 69, 80
7, 97920, Note_on_c, 4, 69, 0
7, 97920, Note_on_c, 4, 71, 80
7, 98028, Note_on_c, 4, 71, 0
7, 98040, Note_on_c, 4, 67, 80
7, 98100, Note_on_c, 4, 67, 0
7, 98100, Note_on_c, 4, 69, 80
7, 98160, Note_on_c, 4, 69, 0
7, 98160, Note_on_c, 4, 71, 80
7, 98280, Note_on_c, 4, 71, 0
7, 98280, Note_on_c, 4, 72, 80
7, 98400, Note_on_c, 4, 72, 0
7, 98400, Note_on_c, 4, 74, 80
7, 98520, Note_on_c, 4, 74, 0
7, 98520, Note_on_c, 4, 72, 80
7, 98580, Note_on_c, 4, 72, 0
7, 98580, Note_on_c, 4, 71, 80
7, 98640, Note_on_c, 4, 71, 0
7, 98640, Note_on_c, 4, 69, 80
7, 98700, Note_on_c, 4, 69, 0
7, 98700, Note_on_c, 4, 67, 80
7, 98760, Note_on_c, 4, 67, 0
7, 98760, Note_on_c, 4, 69, 80
7, 98880, Note_on_c, 4, 69, 0
7, 98880, Note_on_c, 4, 67, 80
7, 98988, Note_on_c, 4, 67, 0
7, 99000, Note_on_c, 4, 67, 80
7, 99120, Note_on_c, 4, 67, 0
7, 99120, Note_on_c, 4, 67, 80
7, 99180, Note_on_c, 4, 67, 0
7, 99180, Note_on_c, 4, 69, 80
7, 99240, Note_on_c, 4, 69, 0
7, 99240, Note_on_c, 4, 71, 80
7, 99360, Note_on_c, 4, 71, 0
7, 99360, Note_on_c, 4, 69, 80
7, 99480, Note_on_c, 4, 69, 0
7, 99480, Note_on_c, 4, 67, 80
7, 99600, Note_on_c, 4, 67, 0
7, 99600, Note_on_c, 4, 69, 80
7, 99720, Note_on_c, 4, 69, 0
7, 99720, Note_on_c, 4, 69, 80
7, 99840, Note_on_c, 4, 69, 0
7, 99840, Note_on_c, 4, 71, 80
7, 99948, Note_on_c, 4, 71, 0
7, 99960, Note_on_c, 4, 67, 80
7, 100020, Note_on_c, 4, 67, 0
7, 100020, Note_on_c, 4, 69, 80
7, 100080, Note_on_c, 4, 69, 0
7, 100080, Note_on_c, 4, 71, 80
7, 100200, Note_on_c, 4, 71, 0
7, 100200, Note_on_c, 4, 72, 80
7, 100320, Note_on_c, 4, 72, 0
7, 100320, Note_on_c, 4, 74, 80
7, 100440, Note_on_c, 4, 74, 0
7, 100440, Note_on_c, 4, 72, 80
7, 100500, Note_on_c, 4, 72, 0
7, 100500, Note_on_c, 4, 71, 80
7, 100560, Note_on_c, 4, 71, 0
7, 100560, Note_on_c, 4, 69, 80
7, 100620, Note_on_c, 4, 69, 0
7, 100620, Note_on_c, 4, 67, 80
7, 100680, Note_on_c, 4, 67, 0
7, 100680, Note_on_c, 4, 69, 80
7, 100800, Note_on_c, 4, 69, 0
7, 100800, Note_on_c, 4, 67, 80
7, 100908, Note_on_c, 4, 67, 0
7, 100920, Note_on_c, 4, 71, 80
7, 101040, Note_on_c, 4, 71, 0
7, 101040, Note_on_c, 4, 71, 80
7, 101160, Note_on_c, 4, 71, 0
7, 101160, Note_on_c, 4, 69, 80
7, 101280, Note_on_c, 4, 69, 0
7, 101280, Note_on_c, 4, 67, 80
7, 101400, Note_on_c, 4, 67, 0
7, 101400, Note_on_c, 4, 66, 80
7, 101520, Note_on_c, 4, 66, 0
7, 101520, Note_on_c, 4, 67, 80
7, 101580, Note_on_c, 4, 67, 0
7, 101580, Note_on_c, 4, 69, 80
7, 101640, Note_on_c, 4, 69, 0
7, 101640, Note_on_c, 4, 71, 80
7, 101760, Note_on_c, 4, 71, 0
7, 101760, Note_on_c, 4, 69, 80
7, 101868, Note_on_c, 4, 69, 0
7, 101880, Note_on_c, 4, 69, 80
7, 102000, Note_on_c, 4, 69, 0
7, 102000, Note_on_c, 4, 67, 80
7, 102120, Note_on_c, 4, 67, 0
7, 102120, Note_on_c, 4, 66, 80
7, 102240, Note_on_c, 4, 66, 0
7, 102240, Note_on_c, 4, 67, 80
7, 102360, Note_on_c, 4, 67, 0
7, 102360, Note_on_c, 4, 62, 80
7, 102480, Note_on_c, 4, 62, 0
7, 102480, Note_on_c, 4, 67, 80
7, 102600, Note_on_c, 4, 67, 0
7, 102600, Note_on_c, 4, 69, 80
7, 102720, Note_on_c, 4, 69, 0
7, 102720, Note_on_c, 4, 71, 80
7, 102828, Note_on_c, 4, 71, 0
7, 102840, Note_on_c, 4, 67, 80
7, 102900, Note_on_c, 4, 67, 0
7, 102900, Note_on_c, 4, 69, 80
7, 102960, Note_on_c, 4, 69, 0
7, 102960, Note_on_c, 4, 71, 80
7, 103080, Note_on_c, 4, 71, 0
7, 103080, Note_on_c, 4, 72, 80
7, 103200, Note_on_c, 4, 72, 0
7, 103200, Note_on_c, 4, 74, 80
7, 103320, Note_on_c, 4, 74, 0
7, 103320, Note_on_c, 4, 72, 80
7, 103380, Note_on_c, 4, 72, 0
7, 103380, Note_on_c, 4, 71, 80
7, 103440, Note_on_c, 4, 71, 0
7, 103440, Note_on_c, 4, 69, 80
7, 103500, Note_on_c, 4, 69, 0
7, 103500, Note_on_c, 4, 67, 80
7, 103560, Note_on_c, 4, 67, 0
7, 103560, Note_on_c, 4, 69, 80
7, 103680, Note_on_c, 4, 69, 0
7, 103680, Note_on_c, 4, 67, 80
7, 103800, Note_on_c, 4, 67, 0
7, 106320, Note_on_c, 4, 69, 70
7, 106559, Note_on_c, 4, 69, 0
7, 106560, Note_on_c, 4, 71, 70
7, 106799, Note_on_c, 4, 71, 0
7, 106800, Note_on_c, 4, 68, 70
7, 107039, Note_on_c, 4, 68, 0
7, 107040, Note_on_c, 4, 73, 70
7, 107279, Note_on_c, 4, 73, 0
7, 107280, Note_on_c, 4, 69, 70
7, 107880, Note_on_c, 4, 69, 0
7, 107880, Note_on_c, 4, 71, 70
7, 107999, Note_on_c, 4, 71, 0
7, 108060, Note_on_c, 4, 73, 90
7, 108089, Note_on_c, 4, 73, 0
7, 108090, Note_on_c, 4, 69, 90
7, 108119, Note_on_c, 4, 69, 0
7, 108120, Note_on_c, 4, 71, 90
7, 108149, Note_on_c, 4, 71, 0
7, 108150, Note_on_c, 4, 68, 90
7, 108179, Note_on_c, 4, 68, 0
7, 108180, Note_on_c, 4, 64, 90
7, 108209, Note_on_c, 4, 64, 0
7, 108210, Note_on_c, 4, 59, 90
7, 108239, Note_on_c, 4, 59, 0
7, 108240, Note_on_c, 4, 61, 90
7, 108269, Note_on_c, 4, 61, 0
7, 108270, Note_on_c, 4, 64, 90
7, 108299, Note_on_c, 4, 64, 0
7, 108300, Note_on_c, 4, 62, 90
7, 108329, Note_on_c, 4, 62, 0
7, 108330, Note_on_c, 4, 66, 90
7, 108359, Note_on_c, 4, 66, 0
7, 108360, Note_on_c, 4, 64, 70
7, 108479, Note_on_c, 4, 64, 0
7, 108480, Note_on_c, 4, 69, 70
7, 108599, Note_on_c, 4, 69, 0
7, 108600, Note_on_c, 4, 73, 70
7, 108719, Note_on_c, 4, 73, 0
7, 108720, Note_on_c, 4, 71, 70
7, 109439, Note_on_c, 4, 71, 0
7, 109440, Note_on_c, 4, 69, 70
7, 109740, Note_on_c, 4, 69, 0
7, 109740, Note_on_c, 4, 74, 90
7, 109799, Note_on_c, 4, 74, 0
7, 109800, Note_on_c, 4, 70, 90
7, 109859, Note_on_c, 4, 70, 0
7, 109860, Note_on_c, 4, 65, 90
7, 109919, Note_on_c, 4, 65, 0
7, 109920, Note_on_c, 4, 66, 70
7, 110940, Note_on_c, 4, 66, 0
7, 110940, Note_on_c, 4, 62, 90
7, 110999, Note_on_c, 4, 62, 0
7, 111000, Note_on_c, 4, 61, 90
7, 111059, Note_on_c, 4, 61, 0
7, 111060, Note_on_c, 4, 59, 90
7, 111119, Note_on_c, 4, 59, 0
7, 111120, Note_on_c, 4, 57, 70
7, 111839, Note_on_c, 4, 57, 0
7, 111840, Note_on_c, 4, 60, 70
7, 112110, Note_on_c, 4, 60, 0
7, 112110, Note_on_c, 4, 59, 70
7, 112139, Note_on_c, 4, 59, 0
7, 112140, Note_on_c, 4, 75, 90
7, 112199, Note_on_c, 4, 75, 0
7, 112200, Note_on_c, 4, 76, 90
7, 112259, Note_on_c, 4, 76, 0
7, 112260, Note_on_c, 4, 81, 90
7, 112319, Note_on_c, 4, 81, 0
7, 112320, Note_on_c, 4, 75, 70
7, 112559, Note_on_c, 4, 75, 0
7, 112560, Note_on_c, 4, 71, 70
7, 113070, Note_on_c, 4, 71, 0
7, 113070, Note_on_c, 4, 69, 90
7, 113099, Note_on_c, 4, 69, 0
7, 113100, Note_on_c, 4, 71, 90
7, 113129, Note_on_c, 4, 71, 0
7, 113130, Note_on_c, 4, 69, 90
7, 113159, Note_on_c, 4, 69, 0
7, 113160, Note_on_c, 4, 68, 90
7, 113189, Note_on_c, 4, 68, 0
7, 113190, Note_on_c, 4, 66, 90
7, 113219, Note_on_c, 4, 66, 0
7, 113220, Note_on_c, 4, 68, 90
7, 113249, Note_on_c, 4, 68, 0
7, 113250, Note_on_c, 4, 66, 90
7, 113279, Note_on_c, 4, 66, 0
7, 113280, Note_on_c, 4, 65, 70
7, 113399, Note_on_c, 4, 65, 0
7, 113460, Note_on_c, 4, 68, 90
7, 113519, Note_on_c, 4, 68, 0
7, 113520, Note_on_c, 4, 66, 90
7, 113549, Note_on_c, 4, 66, 0
7, 113550, Note_on_c, 4, 69, 90
7, 113579, Note_on_c, 4, 69, 0
7, 113580, Note_on_c, 4, 71, 90
7, 113609, Note_on_c, 4, 71, 0
7, 113610, Note_on_c, 4, 68, 90
7, 113639, Note_on_c, 4, 68, 0
7, 113640, Note_on_c, 4, 69, 90
7, 113669, Note_on_c, 4, 69, 0
7, 113670, Note_on_c, 4, 66, 90
7, 113699, Note_on_c, 4, 66, 0
7, 113700, Note_on_c, 4, 68, 90
7, 113729, Note_on_c, 4, 68, 0
7, 113730, Note_on_c, 4, 65, 90
7, 113759, Note_on_c, 4, 65, 0
7, 113760, Note_on_c, 4, 66, 70
7, 113879, Note_on_c, 4, 66, 0
7, 113880, Note_on_c, 4, 70, 70
7, 113999, Note_on_c, 4, 70, 0
7, 114000, Note_on_c, 4, 73, 70
7, 114119, Note_on_c, 4, 73, 0
7, 114120, Note_on_c, 4, 70, 70
7, 114239, Note_on_c, 4, 70, 0
7, 114240, Note_on_c, 4, 71, 70
7, 114479, Note_on_c, 4, 71, 0
7, 114480, Note_on_c, 4, 72, 70
7, 114599, Note_on_c, 4, 72, 0
7, 114660, Note_on_c, 4, 71, 70
7, 114719, Note_on_c, 4, 71, 0
7, 114720, Note_on_c, 4, 71, 70
7, 114779, Note_on_c, 4, 71, 0
7, 114780, Note_on_c, 4, 73, 70
7, 114839, Note_on_c, 4, 73, 0
7, 114840, Note_on_c, 4, 66, 70
7, 114899, Note_on_c, 4, 66, 0
7, 114900, Note_on_c, 4, 67, 70
7, 114959, Note_on_c, 4, 67, 0
7, 115020, Note_on_c, 4, 67, 70
7, 115079, Note_on_c, 4, 67, 0
7, 115080, Note_on_c, 4, 67, 70
7, 115139, Note_on_c, 4, 67, 0
7, 115140, Note_on_c, 4, 76, 70
7, 115199, Note_on_c, 4, 76, 0
7, 115260, Note_on_c, 4, 64, 70
7, 115319, Note_on_c, 4, 64, 0
7, 115320, Note_on_c, 4, 64, 70
7, 115379, Note_on_c, 4, 64, 0
7, 115380, Note_on_c, 4, 73, 70
7, 115439, Note_on_c, 4, 73, 0
7, 115560, Note_on_c, 4, 71, 70
7, 115679, Note_on_c, 4, 71, 0
7, 115740, Note_on_c, 4, 71, 70
7, 115799, Note_on_c, 4, 71, 0
7, 115800, Note_on_c, 4, 70, 70
7, 115859, Note_on_c, 4, 70, 0
7, 115860, Note_on_c, 4, 61, 70
7, 115919, Note_on_c, 4, 61, 0
7, 115920, Note_on_c, 4, 59, 70
7, 116160, Note_on_c, 4, 59, 0
7, 116580, Note_on_c, 4, 62, 80
7, 116639, Note_on_c, 4, 62, 0
7, 116640, Note_on_c, 4, 62, 80
7, 116699, Note_on_c, 4, 62, 0
7, 116700, Note_on_c, 4, 66, 80
7, 116759, Note_on_c, 4, 66, 0
7, 116760, Note_on_c, 4, 64, 80
7, 116819, Note_on_c, 4, 64, 0
7, 116820, Note_on_c, 4, 61, 80
7, 116879, Note_on_c, 4, 61, 0
7, 116880, Note_on_c, 4, 62, 80
7, 116939, Note_on_c, 4, 62, 0
7, 116940, Note_on_c, 4, 66, 80
7, 116999, Note_on_c, 4, 66, 0
7, 117000, Note_on_c, 4, 64, 80
7, 117059, Note_on_c, 4, 64, 0
7, 117060, Note_on_c, 4, 61, 80
7, 117119, Note_on_c, 4, 61, 0
7, 117120, Note_on_c, 4, 62, 80
7, 117179, Note_on_c, 4, 62, 0
7, 117180, Note_on_c, 4, 76, 80
7, 117239, Note_on_c, 4, 76, 0
7, 117240, Note_on_c, 4, 74, 80
7, 117299, Note_on_c, 4, 74, 0
7, 117300, Note_on_c, 4, 73, 80
7, 117359, Note_on_c, 4, 73, 0
7, 117360, Note_on_c, 4, 71, 80
7, 117389, Note_on_c, 4, 71, 0
7, 117390, Note_on_c, 4, 70, 80
7, 117419, Note_on_c, 4, 70, 0
7, 117420, Note_on_c, 4, 71, 80
7, 117449, Note_on_c, 4, 71, 0
7, 117450, Note_on_c, 4, 70, 80
7, 117479, Note_on_c, 4, 70, 0
7, 117480, Note_on_c, 4, 71, 80
7, 117539, Note_on_c, 4, 71, 0
7, 117540, Note_on_c, 4, 59, 60
7, 117599, Note_on_c, 4, 59, 0
7, 117600, Note_on_c, 4, 62, 60
7, 117659, Note_on_c, 4, 62, 0
7, 117660, Note_on_c, 4, 66, 60
7, 117719, Note_on_c, 4, 66, 0
7, 117720, Note_on_c, 4, 64, 60
7, 117779, Note_on_c, 4, 64, 0
7, 117780, Note_on_c, 4, 61, 60
7, 117839, Note_on_c, 4, 61, 0
7, 117840, Note_on_c, 4, 62, 60
7, 117899, Note_on_c, 4, 62, 0
7, 117900, Note_on_c, 4, 66, 60
7, 117959, Note_on_c, 4, 66, 0
7, 117960, Note_on_c, 4, 64, 60
7, 118019, Note_on_c, 4, 64, 0
7, 118020, Note_on_c, 4, 61, 60
7, 118079, Note_on_c, 4, 61, 0
7, 118080, Note_on_c, 4, 62, 60
7, 118139, Note_on_c, 4, 62, 0
7, 118140, Note_on_c, 4, 76, 60
7, 118199, Note_on_c, 4, 76, 0
7, 118200, Note_on_c, 4, 74, 60
7, 118259, Note_on_c, 4, 74, 0
7, 118260, Note_on_c, 4, 73, 60
7, 118319, Note_on_c, 4, 73, 0
7, 118320, Note_on_c, 4, 71, 60
7, 118349, Note_on_c, 4, 71, 0
7, 118350, Note_on_c, 4, 70, 60
7, 118379, Note_on_c, 4, 70, 0
7, 118380, Note_on_c, 4, 71, 60
7, 118409, Note_on_c, 4, 71, 0
7, 118410, Note_on_c, 4, 70, 60
7, 118439, Note_on_c, 4, 70, 0
7, 118440, Note_on_c, 4, 71, 60
7, 118589, Note_on_c, 4, 71, 0
7, 118590, Note_on_c, 4, 70, 80
7, 118619, Note_on_c, 4, 70, 0
7, 118620, Note_on_c, 4, 71, 80
7, 118649, Note_on_c, 4, 71, 0
7, 118650, Note_on_c, 4, 70, 80
7, 118679, Note_on_c, 4, 70, 0
7, 118680, Note_on_c, 4, 71, 80
7, 118859, Note_on_c, 4, 71, 0
7, 118860, Note_on_c, 4, 69, 80
7, 118889, Note_on_c, 4, 69, 0
7, 118890, Note_on_c, 4, 68, 80
7, 118919, Note_on_c, 4, 68, 0
7, 118920, Note_on_c, 4, 69, 80
7, 118979, Note_on_c, 4, 69, 0
7, 118980, Note_on_c, 4, 69, 80
7, 119039, Note_on_c, 4, 69, 0
7, 119040, Note_on_c, 4, 69, 80
7, 119099, Note_on_c, 4, 69, 0
7, 119100, Note_on_c, 4, 68, 80
7, 119159, Note_on_c, 4, 68, 0
7, 119220, Note_on_c, 4, 72, 80
7, 119279, Note_on_c, 4, 72, 0
7, 119280, Note_on_c, 4, 72, 80
7, 119339, Note_on_c, 4, 72, 0
7, 119340, Note_on_c, 4, 73, 80
7, 119399, Note_on_c, 4, 73, 0
7, 119400, Note_on_c, 4, 61, 80
7, 119579, Note_on_c, 4, 61, 0
7, 119580, Note_on_c, 4, 66, 80
7, 119639, Note_on_c, 4, 66, 0
7, 119640, Note_on_c, 4, 59, 80
7, 119699, Note_on_c, 4, 59, 0
7, 119700, Note_on_c, 4, 68, 80
7, 119759, Note_on_c, 4, 68, 0
7, 119760, Note_on_c, 4, 61, 80
7, 119819, Note_on_c, 4, 61, 0
7, 119820, Note_on_c, 4, 69, 80
7, 119879, Note_on_c, 4, 69, 0
7, 119880, Note_on_c, 4, 68, 80
7, 119909, Note_on_c, 4, 68, 0
7, 119910, Note_on_c, 4, 66, 80
7, 119939, Note_on_c, 4, 66, 0
7, 119940, Note_on_c, 4, 65, 80
7, 119969, Note_on_c, 4, 65, 0
7, 119970, Note_on_c, 4, 66, 80
7, 119999, Note_on_c, 4, 66, 0
7, 120000, Note_on_c, 4, 61, 80
7, 120059, Note_on_c, 4, 61, 0
7, 120060, Note_on_c, 4, 66, 80
7, 120179, Note_on_c, 4, 66, 0
7, 120180, Note_on_c, 4, 65, 80
7, 120239, Note_on_c, 4, 65, 0
7, 120240, Note_on_c, 4, 66, 80
7, 120359, Note_on_c, 4, 66, 0
7, 120540, Note_on_c, 4, 66, 65
7, 120599, Note_on_c, 4, 66, 0
7, 120600, Note_on_c, 4, 64, 65
7, 120659, Note_on_c, 4, 64, 0
7, 120660, Note_on_c, 4, 61, 65
7, 120719, Note_on_c, 4, 61, 0
7, 120720, Note_on_c, 4, 62, 65
7, 120779, Note_on_c, 4, 62, 0
7, 120840, Note_on_c, 4, 67, 65
7, 120899, Note_on_c, 4, 67, 0
7, 121020, Note_on_c, 4, 64, 65
7, 121079, Note_on_c, 4, 64, 0
7, 121080, Note_on_c, 4, 62, 65
7, 121139, Note_on_c, 4, 62, 0
7, 121140, Note_on_c, 4, 61, 65
7, 121199, Note_on_c, 4, 61, 0
7, 121200, Note_on_c, 4, 59, 65
7, 121319, Note_on_c, 4, 59, 0
7, 121500, Note_on_c, 4, 66, 65
7, 121559, Note_on_c, 4, 66, 0
7, 121560, Note_on_c, 4, 64, 65
7, 121619, Note_on_c, 4, 64, 0
7, 121620, Note_on_c, 4, 61, 65
7, 121679, Note_on_c, 4, 61, 0
7, 121740, Note_on_c, 4, 71, 65
7, 121799, Note_on_c, 4, 71, 0
7, 121800, Note_on_c, 4, 70, 65
7, 121859, Note_on_c, 4, 70, 0
7, 121860, Note_on_c, 4, 79, 65
7, 121919, Note_on_c, 4, 79, 0
7, 121920, Note_on_c, 4, 78, 65
7, 121979, Note_on_c, 4, 78, 0
7, 121980, Note_on_c, 4, 76, 65
7, 122039, Note_on_c, 4, 76, 0
7, 122040, Note_on_c, 4, 74, 65
7, 122099, Note_on_c, 4, 74, 0
7, 122100, Note_on_c, 4, 73, 65
7, 122159, Note_on_c, 4, 73, 0
7, 122160, Note_on_c, 4, 71, 65
7, 122219, Note_on_c, 4, 71, 0
7, 122220, Note_on_c, 4, 66, 65
7, 122279, Note_on_c, 4, 66, 0
7, 122280, Note_on_c, 4, 71, 65
7, 122429, Note_on_c, 4, 71, 0
7, 122430, Note_on_c, 4, 70, 65
7, 122459, Note_on_c, 4, 70, 0
7, 122460, Note_on_c, 4, 71, 65
7, 122489, Note_on_c, 4, 71, 0
7, 122490, Note_on_c, 4, 70, 65
7, 122519, Note_on_c, 4, 70, 0
7, 122520, Note_on_c, 4, 71, 65
7, 122699, Note_on_c, 4, 71, 0
7, 122700, Note_on_c, 4, 69, 65
7, 122729, Note_on_c, 4, 69, 0
7, 122730, Note_on_c, 4, 68, 65
7, 122759, Note_on_c, 4, 68, 0
7, 122760, Note_on_c, 4, 69, 65
7, 122819, Note_on_c, 4, 69, 0
7, 122820, Note_on_c, 4, 69, 65
7, 122879, Note_on_c, 4, 69, 0
7, 122880, Note_on_c, 4, 69, 65
7, 122939, Note_on_c, 4, 69, 0
7, 122940, Note_on_c, 4, 68, 65
7, 122999, Note_on_c, 4, 68, 0
7, 123060, Note_on_c, 4, 72, 65
7, 123119, Note_on_c, 4, 72, 0
7, 123120, Note_on_c, 4, 72, 65
7, 123179, Note_on_c, 4, 72, 0
7, 123180, Note_on_c, 4, 73, 65
7, 123239, Note_on_c, 4, 73, 0
7, 123240, Note_on_c, 4, 75, 65
7, 123299, Note_on_c, 4, 75, 0
7, 123300, Note_on_c, 4, 77, 65
7, 123359, Note_on_c, 4, 77, 0
7, 123420, Note_on_c, 4, 73, 65
7, 123479, Note_on_c, 4, 73, 0
7, 123480, Note_on_c, 4, 78, 65
7, 123509, Note_on_c, 4, 78, 0
7, 123510, Note_on_c, 4, 76, 65
7, 123539, Note_on_c, 4, 76, 0
7, 123540, Note_on_c, 4, 78, 65
7, 123569, Note_on_c, 4, 78, 0
7, 123570, Note_on_c, 4, 76, 65
7, 123599, Note_on_c, 4, 76, 0
7, 123600, Note_on_c, 4, 74, 65
7, 123659, Note_on_c, 4, 74, 0
7, 123660, Note_on_c, 4, 75, 65
7, 123719, Note_on_c, 4, 75, 0
7, 123720, Note_on_c, 4, 76, 65
7, 123779, Note_on_c, 4, 76, 0
7, 123780, Note_on_c, 4, 78, 65
7, 123839, Note_on_c, 4, 78, 0
7, 123900, Note_on_c, 4, 71, 65
7, 123959, Note_on_c, 4, 71, 0
7, 123960, Note_on_c, 4, 76, 65
7, 123989, Note_on_c, 4, 76, 0
7, 123990, Note_on_c, 4, 74, 65
7, 124019, Note_on_c, 4, 74, 0
7, 124020, Note_on_c, 4, 76, 65
7, 124049, Note_on_c, 4, 76, 0
7, 124050, Note_on_c, 4, 74, 65
7, 124079, Note_on_c, 4, 74, 0
7, 124080, Note_on_c, 4, 73, 65
7, 124199, Note_on_c, 4, 73, 0
7, 124320, Note_on_c, 4, 66, 65
7, 124349, Note_on_c, 4, 66, 0
7, 124350, Note_on_c, 4, 64, 65
7, 124379, Note_on_c, 4, 64, 0
7, 124380, Note_on_c, 4, 66, 65
7, 124409, Note_on_c, 4, 66, 0
7, 124410, Note_on_c, 4, 64, 65
7, 124439, Note_on_c, 4, 64, 0
7, 124440, Note_on_c, 4, 66, 65
7, 124499, Note_on_c, 4, 66, 0
7, 124560, Note_on_c, 4, 66, 65
7, 124589, Note_on_c, 4, 66, 0
7, 124590, Note_on_c, 4, 64, 65
7, 124619, Note_on_c, 4, 64, 0
7, 124620, Note_on_c, 4, 66, 65
7, 124649, Note_on_c, 4, 66, 0
7, 124650, Note_on_c, 4, 64, 65
7, 124679, Note_on_c, 4, 64, 0
7, 124680, Note_on_c, 4, 66, 65
7, 124739, Note_on_c, 4, 66, 0
7, 124860, Note_on_c, 4, 73, 65
7, 124919, Note_on_c, 4, 73, 0
7, 124920, Note_on_c, 4, 71, 65
7, 124979, Note_on_c, 4, 71, 0
7, 124980, Note_on_c, 4, 70, 65
7, 125039, Note_on_c, 4, 70, 0
7, 125040, Note_on_c, 4, 71, 65
7, 125069, Note_on_c, 4, 71, 0
7, 125070, Note_on_c, 4, 70, 65
7, 125099, Note_on_c, 4, 70, 0
7, 125100, Note_on_c, 4, 71, 65
7, 125129, Note_on_c, 4, 71, 0
7, 125130, Note_on_c, 4, 70, 65
7, 125159, Note_on_c, 4, 70, 0
7, 125160, Note_on_c, 4, 71, 65
7, 125219, Note_on_c, 4, 71, 0
7, 125400, Note_on_c, 4, 66, 65
7, 125519, Note_on_c, 4, 66, 0
7, 125640, Note_on_c, 4, 70, 65
7, 125759, Note_on_c, 4, 70, 0
7, 125820, Note_on_c, 4, 71, 65
7, 125909, Note_on_c, 4, 71, 0
7, 125910, Note_on_c, 4, 70, 65
7, 125939, Note_on_c, 4, 70, 0
7, 125940, Note_on_c, 4, 73, 65
7, 126059, Note_on_c, 4, 73, 0
7, 126060, Note_on_c, 4, 66, 65
7, 126119, Note_on_c, 4, 66, 0
7, 126120, Note_on_c, 4, 71, 65
7, 126269, Note_on_c, 4, 71, 0
7, 126270, Note_on_c, 4, 70, 65
7, 126299, Note_on_c, 4, 70, 0
7, 126300, Note_on_c, 4, 71, 65
7, 126329, Note_on_c, 4, 71, 0
7, 126330, Note_on_c, 4, 70, 65
7, 126359, Note_on_c, 4, 70, 0
7, 126360, Note_on_c, 4, 71, 65
7, 126539, Note_on_c, 4, 71, 0
7, 126540, Note_on_c, 4, 69, 65
7, 126569, Note_on_c, 4, 69, 0
7, 126570, Note_on_c, 4, 68, 65
7, 126599, Note_on_c, 4, 68, 0
7, 126600, Note_on_c, 4, 69, 65
7, 126659, Note_on_c, 4, 69, 0
7, 126660, Note_on_c, 4, 69, 65
7, 126719, Note_on_c, 4, 69, 0
7, 126720, Note_on_c, 4, 69, 65
7, 126779, Note_on_c, 4, 69, 0
7, 126780, Note_on_c, 4, 68, 65
7, 126839, Note_on_c, 4, 68, 0
7, 126900, Note_on_c, 4, 72, 65
7, 126959, Note_on_c, 4, 72, 0
7, 126960, Note_on_c, 4, 72, 65
7, 127019, Note_on_c, 4, 72, 0
7, 127020, Note_on_c, 4, 73, 65
7, 127079, Note_on_c, 4, 73, 0
7, 127080, Note_on_c, 4, 61, 65
7, 127109, Note_on_c, 4, 61, 0
7, 127110, Note_on_c, 4, 59, 65
7, 127139, Note_on_c, 4, 59, 0
7, 127140, Note_on_c, 4, 61, 65
7, 127169, Note_on_c, 4, 61, 0
7, 127170, Note_on_c, 4, 59, 65
7, 127199, Note_on_c, 4, 59, 0
7, 127200, Note_on_c, 4, 57, 65
7, 127259, Note_on_c, 4, 57, 0
7, 127380, Note_on_c, 4, 77, 65
7, 127439, Note_on_c, 4, 77, 0
7, 127440, Note_on_c, 4, 78, 65
7, 127499, Note_on_c, 4, 78, 0
7, 127500, Note_on_c, 4, 76, 65
7, 127529, Note_on_c, 4, 76, 0
7, 127530, Note_on_c, 4, 74, 65
7, 127559, Note_on_c, 4, 74, 0
7, 127560, Note_on_c, 4, 73, 65
7, 127739, Note_on_c, 4, 73, 0
7, 127740, Note_on_c, 4, 61, 65
7, 127799, Note_on_c, 4, 61, 0
7, 127800, Note_on_c, 4, 62, 65
7, 127859, Note_on_c, 4, 62, 0
7, 127860, Note_on_c, 4, 61, 65
7, 127919, Note_on_c, 4, 61, 0
7, 127920, Note_on_c, 4, 57, 65
7, 128039, Note_on_c, 4, 57, 0
7, 128100, Note_on_c, 4, 61, 80
7, 128159, Note_on_c, 4, 61, 0
7, 128160, Note_on_c, 4, 66, 80
7, 128219, Note_on_c, 4, 66, 0
7, 128220, Note_on_c, 4, 69, 80
7, 128279, Note_on_c, 4, 69, 0
7, 128280, Note_on_c, 4, 68, 80
7, 128339, Note_on_c, 4, 68, 0
7, 128340, Note_on_c, 4, 65, 80
7, 128399, Note_on_c, 4, 65, 0
7, 128400, Note_on_c, 4, 66, 80
7, 128459, Note_on_c, 4, 66, 0
7, 128460, Note_on_c, 4, 69, 80
7, 128519, Note_on_c, 4, 69, 0
7, 128520, Note_on_c, 4, 68, 80
7, 128579, Note_on_c, 4, 68, 0
7, 128580, Note_on_c, 4, 65, 80
7, 128639, Note_on_c, 4, 65, 0
7, 128640, Note_on_c, 4, 66, 80
7, 128699, Note_on_c, 4, 66, 0
7, 128700, Note_on_c, 4, 74, 80
7, 128759, Note_on_c, 4, 74, 0
7, 128760, Note_on_c, 4, 73, 80
7, 128819, Note_on_c, 4, 73, 0
7, 128820, Note_on_c, 4, 71, 80
7, 128879, Note_on_c, 4, 71, 0
7, 128880, Note_on_c, 4, 69, 80
7, 128909, Note_on_c, 4, 69, 0
7, 128910, Note_on_c, 4, 68, 80
7, 128939, Note_on_c, 4, 68, 0
7, 128940, Note_on_c, 4, 69, 80
7, 128969, Note_on_c, 4, 69, 0
7, 128970, Note_on_c, 4, 68, 80
7, 128999, Note_on_c, 4, 68, 0
7, 129000, Note_on_c, 4, 66, 80
7, 129029, Note_on_c, 4, 66, 0
7, 129030, Note_on_c, 4, 64, 80
7, 129059, Note_on_c, 4, 64, 0
7, 129060, Note_on_c, 4, 66, 80
7, 129089, Note_on_c, 4, 66, 0
7, 129090, Note_on_c, 4, 64, 80
7, 129119, Note_on_c, 4, 64, 0
7, 129120, Note_on_c, 4, 62, 80
7, 129179, Note_on_c, 4, 62, 0
7, 129180, Note_on_c, 4, 66, 80
7, 129239, Note_on_c, 4, 66, 0
7, 129240, Note_on_c, 4, 64, 80
7, 129299, Note_on_c, 4, 64, 0
7, 129300, Note_on_c, 4, 61, 80
7, 129359, Note_on_c, 4, 61, 0
7, 129360, Note_on_c, 4, 62, 80
7, 129419, Note_on_c, 4, 62, 0
7, 129420, Note_on_c, 4, 66, 80
7, 129479, Note_on_c, 4, 66, 0
7, 129480, Note_on_c, 4, 64, 80
7, 129539, Note_on_c, 4, 64, 0
7, 129540, Note_on_c, 4, 61, 80
7, 129599, Note_on_c, 4, 61, 0
7, 129600, Note_on_c, 4, 62, 80
7, 129659, Note_on_c, 4, 62, 0
7, 129660, Note_on_c, 4, 71, 80
7, 129719, Note_on_c, 4, 71, 0
7, 129720, Note_on_c, 4, 70, 80
7, 129779, Note_on_c, 4, 70, 0
7, 129780, Note_on_c, 4, 73, 80
7, 129869, Note_on_c, 4, 73, 0
7, 129870, Note_on_c, 4, 70, 80
7, 129899, Note_on_c, 4, 70, 0
7, 129900, Note_on_c, 4, 71, 80
7, 129959, Note_on_c, 4, 71, 0
7, 130020, Note_on_c, 4, 74, 80
7, 130079, Note_on_c, 4, 74, 0
7, 130080, Note_on_c, 4, 74, 80
7, 130139, Note_on_c, 4, 74, 0
7, 130140, Note_on_c, 4, 73, 80
7, 130199, Note_on_c, 4, 73, 0
7, 130260, Note_on_c, 4, 65, 80
7, 130319, Note_on_c, 4, 65, 0
7, 130320, Note_on_c, 4, 65, 80
7, 130379, Note_on_c, 4, 65, 0
7, 130380, Note_on_c, 4, 66, 80
7, 130439, Note_on_c, 4, 66, 0
7, 130500, Note_on_c, 4, 66, 80
7, 130559, Note_on_c, 4, 66, 0
7, 130560, Note_on_c, 4, 71, 80
7, 130589, Note_on_c, 4, 71, 0
7, 130590, Note_on_c, 4, 73, 80
7, 130619, Note_on_c, 4, 73, 0
7, 130620, Note_on_c, 4, 74, 80
7, 130649, Note_on_c, 4, 74, 0
7, 130650, Note_on_c, 4, 73, 80
7, 130679, Note_on_c, 4, 73, 0
7, 130680, Note_on_c, 4, 71, 80
7, 130739, Note_on_c, 4, 71, 0
7, 130740, Note_on_c, 4, 70, 80
7, 130799, Note_on_c, 4, 70, 0
7, 130800, Note_on_c, 4, 71, 80
7, 130859, Note_on_c, 4, 71, 0
7, 130860, Note_on_c, 4, 69, 80
7, 130889, Note_on_c, 4, 69, 0
7, 130890, Note_on_c, 4, 67, 80
7, 130919, Note_on_c, 4, 67, 0
7, 130920, Note_on_c, 4, 66, 80
7, 130979, Note_on_c, 4, 66, 0
7, 130980, Note_on_c, 4, 64, 80
7, 131039, Note_on_c, 4, 64, 0
7, 131040, Note_on_c, 4, 62, 80
7, 131069, Note_on_c, 4, 62, 0
7, 131070, Note_on_c, 4, 64, 80
7, 131099, Note_on_c, 4, 64, 0
7, 131100, Note_on_c, 4, 66, 80
7, 131129, Note_on_c, 4, 66, 0
7, 131130, Note_on_c, 4, 64, 80
7, 131159, Note_on_c, 4, 64, 0
7, 131160, Note_on_c, 4, 62, 80
7, 131219, Note_on_c, 4, 62, 0
7, 131220, Note_on_c, 4, 61, 80
7, 131279, Note_on_c, 4, 61, 0
7, 131280, Note_on_c, 4, 59, 80
7, 131339, Note_on_c, 4, 59, 0
7, 131340, Note_on_c, 4, 66, 80
7, 131399, Note_on_c, 4, 66, 0
7, 131400, Note_on_c, 4, 68, 80
7, 131459, Note_on_c, 4, 68, 0
7, 131460, Note_on_c, 4, 65, 80
7, 131519, Note_on_c, 4, 65, 0
7, 131520, Note_on_c, 4, 61, 80
7, 131579, Note_on_c, 4, 61, 0
7, 131580, Note_on_c, 4, 66, 80
7, 131699, Note_on_c, 4, 66, 0
7, 131700, Note_on_c, 4, 65, 80
7, 131759, Note_on_c, 4, 65, 0
7, 131760, Note_on_c, 4, 66, 80
7, 131879, Note_on_c, 4, 66, 0
7, 132060, Note_on_c, 4, 71, 65
7, 132119, Note_on_c, 4, 71, 0
7, 132120, Note_on_c, 4, 73, 65
7, 132179, Note_on_c, 4, 73, 0
7, 132300, Note_on_c, 4, 71, 65
7, 132359, Note_on_c, 4, 71, 0
7, 132360, Note_on_c, 4, 70, 65
7, 132419, Note_on_c, 4, 70, 0
7, 132540, Note_on_c, 4, 66, 65
7, 132599, Note_on_c, 4, 66, 0
7, 132600, Note_on_c, 4, 70, 65
7, 132659, Note_on_c, 4, 70, 0
7, 132660, Note_on_c, 4, 73, 65
7, 132719, Note_on_c, 4, 73, 0
7, 132720, Note_on_c, 4, 66, 65
7, 132749, Note_on_c, 4, 66, 0
7, 132750, Note_on_c, 4, 64, 65
7, 132779, Note_on_c, 4, 64, 0
7, 132780, Note_on_c, 4, 66, 65
7, 132809, Note_on_c, 4, 66, 0
7, 132810, Note_on_c, 4, 64, 65
7, 132839, Note_on_c, 4, 64, 0
7, 132840, Note_on_c, 4, 62, 65
7, 132869, Note_on_c, 4, 62, 0
7, 132870, Note_on_c, 4, 61, 65
7, 132899, Note_on_c, 4, 61, 0
7, 132900, Note_on_c, 4, 62, 65
7, 132929, Note_on_c, 4, 62, 0
7, 132930, Note_on_c, 4, 61, 65
7, 132959, Note_on_c, 4, 61, 0
7, 132960, Note_on_c, 4, 59, 65
7, 133019, Note_on_c, 4, 59, 0
7, 133140, Note_on_c, 4, 75, 65
7, 133199, Note_on_c, 4, 75, 0
7, 133200, Note_on_c, 4, 76, 65
7, 133259, Note_on_c, 4, 76, 0
7, 133380, Note_on_c, 4, 66, 65
7, 133439, Note_on_c, 4, 66, 0
7, 133440, Note_on_c, 4, 67, 65
7, 133499, Note_on_c, 4, 67, 0
7, 133620, Note_on_c, 4, 64, 65
7, 133679, Note_on_c, 4, 64, 0
7, 133680, Note_on_c, 4, 66, 65
7, 133799, Note_on_c, 4, 66, 0
7, 134040, Note_on_c, 4, 66, 65
7, 134099, Note_on_c, 4, 66, 0
7, 134100, Note_on_c, 4, 64, 65
7, 134159, Note_on_c, 4, 64, 0
7, 134280, Note_on_c, 4, 69, 65
7, 134339, Note_on_c, 4, 69, 0
7, 134340, Note_on_c, 4, 67, 65
7, 134399, Note_on_c, 4, 67, 0
7, 134520, Note_on_c, 4, 72, 65
7, 134579, Note_on_c, 4, 72, 0
7, 134580, Note_on_c, 4, 71, 65
7, 134639, Note_on_c, 4, 71, 0
7, 134760, Note_on_c, 4, 66, 65
7, 134879, Note_on_c, 4, 66, 0
7, 135000, Note_on_c, 4, 71, 65
7, 135059, Note_on_c, 4, 71, 0
7, 135060, Note_on_c, 4, 69, 65
7, 135119, Note_on_c, 4, 69, 0
7, 135240, Note_on_c, 4, 66, 65
7, 135299, Note_on_c, 4, 66, 0
7, 135300, Note_on_c, 4, 64, 65
7, 135359, Note_on_c, 4, 64, 0
7, 135360, Note_on_c, 4, 63, 65
7, 135419, Note_on_c, 4, 63, 0
7, 135420, Note_on_c, 4, 64, 65
7, 135479, Note_on_c, 4, 64, 0
7, 135660, Note_on_c, 4, 64, 80
7, 135719, Note_on_c, 4, 64, 0
7, 135720, Note_on_c, 4, 71, 80
7, 135869, Note_on_c, 4, 71, 0
7, 135870, Note_on_c, 4, 68, 80
7, 135899, Note_on_c, 4, 68, 0
7, 135900, Note_on_c, 4, 69, 80
7, 135929, Note_on_c, 4, 69, 0
7, 135930, Note_on_c, 4, 68, 80
7, 135959, Note_on_c, 4, 68, 0
7, 135960, Note_on_c, 4, 69, 80
7, 136139, Note_on_c, 4, 69, 0
7, 136140, Note_on_c, 4, 67, 80
7, 136169, Note_on_c, 4, 67, 0
7, 136170, Note_on_c, 4, 66, 80
7, 136199, Note_on_c, 4, 66, 0
7, 136200, Note_on_c, 4, 67, 80
7, 136259, Note_on_c, 4, 67, 0
7, 136260, Note_on_c, 4, 79, 80
7, 136319, Note_on_c, 4, 79, 0
7, 136320, Note_on_c, 4, 79, 80
7, 136379, Note_on_c, 4, 79, 0
7, 136380, Note_on_c, 4, 78, 80
7, 136439, Note_on_c, 4, 78, 0
7, 136500, Note_on_c, 4, 70, 80
7, 136559, Note_on_c, 4, 70, 0
7, 136560, Note_on_c, 4, 70, 80
7, 136619, Note_on_c, 4, 70, 0
7, 136620, Note_on_c, 4, 71, 80
7, 136679, Note_on_c, 4, 71, 0
7, 136680, Note_on_c, 4, 59, 80
7, 136859, Note_on_c, 4, 59, 0
7, 136860, Note_on_c, 4, 64, 80
7, 136919, Note_on_c, 4, 64, 0
7, 136920, Note_on_c, 4, 57, 80
7, 136979, Note_on_c, 4, 57, 0
7, 136980, Note_on_c, 4, 66, 80
7, 137039, Note_on_c, 4, 66, 0
7, 137040, Note_on_c, 4, 59, 80
7, 137099, Note_on_c, 4, 59, 0
7, 137100, Note_on_c, 4, 67, 80
7, 137159, Note_on_c, 4, 67, 0
7, 137160, Note_on_c, 4, 66, 80
7, 137189, Note_on_c, 4, 66, 0
7, 137190, Note_on_c, 4, 64, 80
7, 137219, Note_on_c, 4, 64, 0
7, 137220, Note_on_c, 4, 63, 80
7, 137249, Note_on_c, 4, 63, 0
7, 137250, Note_on_c, 4, 66, 80
7, 137279, Note_on_c, 4, 66, 0
7, 137280, Note_on_c, 4, 64, 80
7, 137339, Note_on_c, 4, 64, 0
7, 137340, Note_on_c, 4, 76, 80
7, 137459, Note_on_c, 4, 76, 0
7, 137460, Note_on_c, 4, 75, 80
7, 137519, Note_on_c, 4, 75, 0
7, 137520, Note_on_c, 4, 76, 80
7, 137639, Note_on_c, 4, 76, 0
7, 137880, Note_on_c, 4, 71, 65
7, 137999, Note_on_c, 4, 71, 0
7, 138120, Note_on_c, 4, 73, 65
7, 138239, Note_on_c, 4, 73, 0
7, 138360, Note_on_c, 4, 73, 65
7, 138479, Note_on_c, 4, 73, 0
7, 138600, Note_on_c, 4, 71, 65
7, 138719, Note_on_c, 4, 71, 0
7, 138840, Note_on_c, 4, 71, 65
7, 138959, Note_on_c, 4, 71, 0
7, 139080, Note_on_c, 4, 70, 65
7, 139199, Note_on_c, 4, 70, 0
7, 139260, Note_on_c, 4, 73, 65
7, 139319, Note_on_c, 4, 73, 0
7, 139320, Note_on_c, 4, 71, 65
7, 139379, Note_on_c, 4, 71, 0
7, 139380, Note_on_c, 4, 70, 65
7, 139439, Note_on_c, 4, 70, 0
7, 139440, Note_on_c, 4, 71, 65
7, 139499, Note_on_c, 4, 71, 0
7, 139500, Note_on_c, 4, 66, 65
7, 139529, Note_on_c, 4, 66, 0
7, 139530, Note_on_c, 4, 64, 65
7, 139559, Note_on_c, 4, 64, 0
7, 139560, Note_on_c, 4, 66, 65
7, 139619, Note_on_c, 4, 66, 0
7, 139800, Note_on_c, 4, 67, 65
7, 139859, Note_on_c, 4, 67, 0
7, 139860, Note_on_c, 4, 66, 65
7, 139919, Note_on_c, 4, 66, 0
7, 140040, Note_on_c, 4, 64, 65
7, 140069, Note_on_c, 4, 64, 0
7, 140070, Note_on_c, 4, 62, 65
7, 140099, Note_on_c, 4, 62, 0
7, 140100, Note_on_c, 4, 64, 65
7, 140129, Note_on_c, 4, 64, 0
7, 140130, Note_on_c, 4, 61, 65
7, 140159, Note_on_c, 4, 61, 0
7, 140160, Note_on_c, 4, 62, 65
7, 140219, Note_on_c, 4, 62, 0
7, 140400, Note_on_c, 4, 69, 65
7, 140429, Note_on_c, 4, 69, 0
7, 140430, Note_on_c, 4, 67, 65
7, 140459, Note_on_c, 4, 67, 0
7, 140460, Note_on_c, 4, 69, 65
7, 140489, Note_on_c, 4, 69, 0
7, 140490, Note_on_c, 4, 67, 65
7, 140519, Note_on_c, 4, 67, 0
7, 140520, Note_on_c, 4, 66, 65
7, 140579, Note_on_c, 4, 66, 0
7, 140640, Note_on_c, 4, 71, 65
7, 140669, Note_on_c, 4, 71, 0
7, 140670, Note_on_c, 4, 69, 65
7, 140699, Note_on_c, 4, 69, 0
7, 140700, Note_on_c, 4, 71, 65
7, 140729, Note_on_c, 4, 71, 0
7, 140730, Note_on_c, 4, 69, 65
7, 140759, Note_on_c, 4, 69, 0
7, 140760, Note_on_c, 4, 67, 65
7, 140819, Note_on_c, 4, 67, 0
7, 142500, Note_on_c, 4, 59, 85
7, 142559, Note_on_c, 4, 59, 0
7, 142560, Note_on_c, 4, 64, 85
7, 142619, Note_on_c, 4, 64, 0
7, 142620, Note_on_c, 4, 67, 85
7, 142679, Note_on_c, 4, 67, 0
7, 142680, Note_on_c, 4, 66, 85
7, 142739, Note_on_c, 4, 66, 0
7, 142740, Note_on_c, 4, 63, 85
7, 142799, Note_on_c, 4, 63, 0
7, 142800, Note_on_c, 4, 64, 85
7, 142859, Note_on_c, 4, 64, 0
7, 142860, Note_on_c, 4, 67, 85
7, 142919, Note_on_c, 4, 67, 0
7, 142920, Note_on_c, 4, 66, 85
7, 142979, Note_on_c, 4, 66, 0
7, 142980, Note_on_c, 4, 63, 85
7, 143039, Note_on_c, 4, 63, 0
7, 143040, Note_on_c, 4, 64, 85
7, 143099, Note_on_c, 4, 64, 0
7, 143100, Note_on_c, 4, 72, 85
7, 143159, Note_on_c, 4, 72, 0
7, 143160, Note_on_c, 4, 71, 85
7, 143219, Note_on_c, 4, 71, 0
7, 143220, Note_on_c, 4, 69, 85
7, 143279, Note_on_c, 4, 69, 0
7, 143280, Note_on_c, 4, 67, 85
7, 143309, Note_on_c, 4, 67, 0
7, 143310, Note_on_c, 4, 66, 85
7, 143339, Note_on_c, 4, 66, 0
7, 143340, Note_on_c, 4, 67, 85
7, 143369, Note_on_c, 4, 67, 0
7, 143370, Note_on_c, 4, 66, 85
7, 143399, Note_on_c, 4, 66, 0
7, 143400, Note_on_c, 4, 64, 85
7, 143459, Note_on_c, 4, 64, 0
7, 143460, Note_on_c, 4, 67, 85
7, 143519, Note_on_c, 4, 67, 0
7, 143520, Note_on_c, 4, 67, 85
7, 143579, Note_on_c, 4, 67, 0
7, 143580, Note_on_c, 4, 66, 85
7, 143639, Note_on_c, 4, 66, 0
7, 143700, Note_on_c, 4, 70, 85
7, 143759, Note_on_c, 4, 70, 0
7, 143760, Note_on_c, 4, 70, 85
7, 143819, Note_on_c, 4, 70, 0
7, 143820, Note_on_c, 4, 71, 85
7, 143849, Note_on_c, 4, 71, 0
7, 143850, Note_on_c, 4, 70, 85
7, 143879, Note_on_c, 4, 70, 0
7, 143880, Note_on_c, 4, 71, 85
7, 144029, Note_on_c, 4, 71, 0
7, 144030, Note_on_c, 4, 70, 85
7, 144059, Note_on_c, 4, 70, 0
7, 144060, Note_on_c, 4, 71, 85
7, 144089, Note_on_c, 4, 71, 0
7, 144090, Note_on_c, 4, 70, 85
7, 144119, Note_on_c, 4, 70, 0
7, 144120, Note_on_c, 4, 71, 85
7, 144269, Note_on_c, 4, 71, 0
7, 144270, Note_on_c, 4, 68, 85
7, 144299, Note_on_c, 4, 68, 0
7, 144300, Note_on_c, 4, 70, 85
7, 144359, Note_on_c, 4, 70, 0
7, 144360, Note_on_c, 4, 78, 85
7, 144419, Note_on_c, 4, 78, 0
7, 144420, Note_on_c, 4, 76, 85
7, 144479, Note_on_c, 4, 76, 0
7, 144480, Note_on_c, 4, 76, 85
7, 144539, Note_on_c, 4, 76, 0
7, 144540, Note_on_c, 4, 74, 85
7, 144599, Note_on_c, 4, 74, 0
7, 144660, Note_on_c, 4, 67, 85
7, 144749, Note_on_c, 4, 67, 0
7, 144750, Note_on_c, 4, 64, 85
7, 144779, Note_on_c, 4, 64, 0
7, 144780, Note_on_c, 4, 66, 85
7, 144839, Note_on_c, 4, 66, 0
7, 144900, Note_on_c, 4, 70, 85
7, 144959, Note_on_c, 4, 70, 0
7, 144960, Note_on_c, 4, 71, 85
7, 145019, Note_on_c, 4, 71, 0
7, 145020, Note_on_c, 4, 62, 85
7, 145079, Note_on_c, 4, 62, 0
7, 145080, Note_on_c, 4, 66, 85
7, 145109, Note_on_c, 4, 66, 0
7, 145110, Note_on_c, 4, 64, 85
7, 145139, Note_on_c, 4, 64, 0
7, 145140, Note_on_c, 4, 62, 85
7, 145169, Note_on_c, 4, 62, 0
7, 145170, Note_on_c, 4, 61, 85
7, 145199, Note_on_c, 4, 61, 0
7, 145200, Note_on_c, 4, 62, 85
7, 145229, Note_on_c, 4, 62, 0
7, 145230, Note_on_c, 4, 61, 85
7, 145259, Note_on_c, 4, 61, 0
7, 145260, Note_on_c, 4, 62, 85
7, 145289, Note_on_c, 4, 62, 0
7, 145290, Note_on_c, 4, 61, 85
7, 145319, Note_on_c, 4, 61, 0
7, 145320, Note_on_c, 4, 62, 85
7, 145379, Note_on_c, 4, 62, 0
7, 145380, Note_on_c, 4, 70, 65
7, 145439, Note_on_c, 4, 70, 0
7, 145440, Note_on_c, 4, 71, 65
7, 145499, Note_on_c, 4, 71, 0
7, 145500, Note_on_c, 4, 66, 65
7, 145559, Note_on_c, 4, 66, 0
7, 145560, Note_on_c, 4, 64, 65
7, 145619, Note_on_c, 4, 64, 0
7, 145620, Note_on_c, 4, 61, 65
7, 145679, Note_on_c, 4, 61, 0
7, 145680, Note_on_c, 4, 62, 65
7, 145739, Note_on_c, 4, 62, 0
7, 145800, Note_on_c, 4, 67, 65
7, 145859, Note_on_c, 4, 67, 0
7, 145980, Note_on_c, 4, 64, 65
7, 146039, Note_on_c, 4, 64, 0
7, 146040, Note_on_c, 4, 62, 65
7, 146099, Note_on_c, 4, 62, 0
7, 146100, Note_on_c, 4, 61, 65
7, 146159, Note_on_c, 4, 61, 0
7, 146160, Note_on_c, 4, 59, 65
7, 146279, Note_on_c, 4, 59, 0
7, 146460, Note_on_c, 4, 66, 65
7, 146519, Note_on_c, 4, 66, 0
7, 146520, Note_on_c, 4, 64, 65
7, 146579, Note_on_c, 4, 64, 0
7, 146580, Note_on_c, 4, 61, 65
7, 146639, Note_on_c, 4, 61, 0
7, 146700, Note_on_c, 4, 71, 65
7, 146759, Note_on_c, 4, 71, 0
7, 146760, Note_on_c, 4, 70, 65
7, 146819, Note_on_c, 4, 70, 0
7, 146820, Note_on_c, 4, 79, 65
7, 146879, Note_on_c, 4, 79, 0
7, 146880, Note_on_c, 4, 78, 65
7, 146939, Note_on_c, 4, 78, 0
7, 146940, Note_on_c, 4, 76, 65
7, 146999, Note_on_c, 4, 76, 0
7, 147000, Note_on_c, 4, 74, 65
7, 147059, Note_on_c, 4, 74, 0
7, 147060, Note_on_c, 4, 73, 65
7, 147119, Note_on_c, 4, 73, 0
7, 147120, Note_on_c, 4, 71, 65
7, 147179, Note_on_c, 4, 71, 0
7, 147180, Note_on_c, 4, 66, 65
7, 147239, Note_on_c, 4, 66, 0
7, 147240, Note_on_c, 4, 71, 65
7, 147389, Note_on_c, 4, 71, 0
7, 147390, Note_on_c, 4, 70, 65
7, 147419, Note_on_c, 4, 70, 0
7, 147420, Note_on_c, 4, 71, 65
7, 147449, Note_on_c, 4, 71, 0
7, 147450, Note_on_c, 4, 70, 65
7, 147479, Note_on_c, 4, 70, 0
7, 147480, Note_on_c, 4, 71, 65
7, 147659, Note_on_c, 4, 71, 0
7, 147660, Note_on_c, 4, 69, 65
7, 147689, Note_on_c, 4, 69, 0
7, 147690, Note_on_c, 4, 68, 65
7, 147719, Note_on_c, 4, 68, 0
7, 147720, Note_on_c, 4, 69, 65
7, 147779, Note_on_c, 4, 69, 0
7, 147780, Note_on_c, 4, 69, 65
7, 147839, Note_on_c, 4, 69, 0
7, 147840, Note_on_c, 4, 69, 65
7, 147899, Note_on_c, 4, 69, 0
7, 147900, Note_on_c, 4, 68, 65
7, 147959, Note_on_c, 4, 68, 0
7, 148020, Note_on_c, 4, 72, 65
7, 148079, Note_on_c, 4, 72, 0
7, 148080, Note_on_c, 4, 72, 65
7, 148139, Note_on_c, 4, 72, 0
7, 148140, Note_on_c, 4, 73, 65
7, 148199, Note_on_c, 4, 73, 0
7, 148200, Note_on_c, 4, 75, 65
7, 148259, Note_on_c, 4, 75, 0
7, 148260, Note_on_c, 4, 77, 65
7, 148319, Note_on_c, 4, 77, 0
7, 148380, Note_on_c, 4, 73, 65
7, 148439, Note_on_c, 4, 73, 0
7, 148440, Note_on_c, 4, 78, 65
7, 148469, Note_on_c, 4, 78, 0
7, 148470, Note_on_c, 4, 76, 65
7, 148499, Note_on_c, 4, 76, 0
7, 148500, Note_on_c, 4, 78, 65
7, 148529, Note_on_c, 4, 78, 0
7, 148530, Note_on_c, 4, 76, 65
7, 148559, Note_on_c, 4, 76, 0
7, 148560, Note_on_c, 4, 74, 65
7, 148619, Note_on_c, 4, 74, 0
7, 148620, Note_on_c, 4, 75, 65
7, 148679, Note_on_c, 4, 75, 0
7, 148680, Note_on_c, 4, 76, 65
7, 148739, Note_on_c, 4, 76, 0
7, 148740, Note_on_c, 4, 78, 65
7, 148799, Note_on_c, 4, 78, 0
7, 148860, Note_on_c, 4, 59, 65
7, 148919, Note_on_c, 4, 59, 0
7, 148920, Note_on_c, 4, 64, 65
7, 148949, Note_on_c, 4, 64, 0
7, 148950, Note_on_c, 4, 62, 65
7, 148979, Note_on_c, 4, 62, 0
7, 148980, Note_on_c, 4, 64, 65
7, 149009, Note_on_c, 4, 64, 0
7, 149010, Note_on_c, 4, 62, 65
7, 149039, Note_on_c, 4, 62, 0
7, 149040, Note_on_c, 4, 61, 65
7, 149159, Note_on_c, 4, 61, 0
7, 149280, Note_on_c, 4, 66, 65
7, 149309, Note_on_c, 4, 66, 0
7, 149310, Note_on_c, 4, 64, 65
7, 149339, Note_on_c, 4, 64, 0
7, 149340, Note_on_c, 4, 66, 65
7, 149369, Note_on_c, 4, 66, 0
7, 149370, Note_on_c, 4, 64, 65
7, 149399, Note_on_c, 4, 64, 0
7, 149400, Note_on_c, 4, 66, 65
7, 149459, Note_on_c, 4, 66, 0
7, 149520, Note_on_c, 4, 66, 65
7, 149549, Note_on_c, 4, 66, 0
7, 149550, Note_on_c, 4, 64, 65
7, 149579, Note_on_c, 4, 64, 0
7, 149580, Note_on_c, 4, 66, 65
7, 149609, Note_on_c, 4, 66, 0
7, 149610, Note_on_c, 4, 64, 65
7, 149639, Note_on_c, 4, 64, 0
7, 149640, Note_on_c, 4, 66, 65
7, 149699, Note_on_c, 4, 66, 0
7, 149820, Note_on_c, 4, 73, 65
7, 149879, Note_on_c, 4, 73, 0
7, 149880, Note_on_c, 4, 71, 65
7, 149939, Note_on_c, 4, 71, 0
7, 149940, Note_on_c, 4, 70, 65
7, 149999, Note_on_c, 4, 70, 0
7, 150000, Note_on_c, 4, 71, 65
7, 150029, Note_on_c, 4, 71, 0
7, 150030, Note_on_c, 4, 70, 65
7, 150059, Note_on_c, 4, 70, 0
7, 150060, Note_on_c, 4, 71, 65
7, 150089, Note_on_c, 4, 71, 0
7, 150090, Note_on_c, 4, 70, 65
7, 150119, Note_on_c, 4, 70, 0
7, 150120, Note_on_c, 4, 71, 65
7, 150179, Note_on_c, 4, 71, 0
7, 150180, Note_on_c, 4, 69, 65
7, 150239, Note_on_c, 4, 69, 0
7, 150240, Note_on_c, 4, 67, 65
7, 150299, Note_on_c, 4, 67, 0
7, 150300, Note_on_c, 4, 71, 65
7, 150359, Note_on_c, 4, 71, 0
7, 150360, Note_on_c, 4, 69, 65
7, 150419, Note_on_c, 4, 69, 0
7, 150420, Note_on_c, 4, 66, 65
7, 150479, Note_on_c, 4, 66, 0
7, 150480, Note_on_c, 4, 67, 65
7, 150539, Note_on_c, 4, 67, 0
7, 150540, Note_on_c, 4, 71, 65
7, 150599, Note_on_c, 4, 71, 0
7, 150600, Note_on_c, 4, 69, 65
7, 150659, Note_on_c, 4, 69, 0
7, 150660, Note_on_c, 4, 66, 65
7, 150719, Note_on_c, 4, 66, 0
7, 150720, Note_on_c, 4, 67, 65
7, 150779, Note_on_c, 4, 67, 0
7, 150780, Note_on_c, 4, 66, 65
7, 150839, Note_on_c, 4, 66, 0
7, 150900, Note_on_c, 4, 63, 65
7, 150959, Note_on_c, 4, 63, 0
7, 150960, Note_on_c, 4, 71, 65
7, 151109, Note_on_c, 4, 71, 0
7, 151110, Note_on_c, 4, 70, 65
7, 151139, Note_on_c, 4, 70, 0
7, 151140, Note_on_c, 4, 71, 65
7, 151169, Note_on_c, 4, 71, 0
7, 151170, Note_on_c, 4, 74, 65
7, 151199, Note_on_c, 4, 74, 0
7, 151200, Note_on_c, 4, 73, 65
7, 151259, Note_on_c, 4, 73, 0
7, 151260, Note_on_c, 4, 61, 65
7, 151319, Note_on_c, 4, 61, 0
7, 151500, Note_on_c, 4, 66, 65
7, 151559, Note_on_c, 4, 66, 0
7, 151560, Note_on_c, 4, 71, 65
7, 151709, Note_on_c, 4, 71, 0
7, 151710, Note_on_c, 4, 70, 65
7, 151739, Note_on_c, 4, 70, 0
7, 151740, Note_on_c, 4, 71, 65
7, 151769, Note_on_c, 4, 71, 0
7, 151770, Note_on_c, 4, 70, 65
7, 151799, Note_on_c, 4, 70, 0
7, 151800, Note_on_c, 4, 71, 65
7, 151979, Note_on_c, 4, 71, 0
7, 151980, Note_on_c, 4, 70, 65
7, 152009, Note_on_c, 4, 70, 0
7, 152010, Note_on_c, 4, 68, 65
7, 152039, Note_on_c, 4, 68, 0
7, 152040, Note_on_c, 4, 70, 65
7, 152099, Note_on_c, 4, 70, 0
7, 152580, Note_on_c, 4, 66, 65
7, 152639, Note_on_c, 4, 66, 0
7, 152640, Note_on_c, 4, 71, 65
7, 152669, Note_on_c, 4, 71, 0
7, 152670, Note_on_c, 4, 73, 65
7, 152699, Note_on_c, 4, 73, 0
7, 152700, Note_on_c, 4, 74, 65
7, 152729, Note_on_c, 4, 74, 0
7, 152730, Note_on_c, 4, 73, 65
7, 152759, Note_on_c, 4, 73, 0
7, 152760, Note_on_c, 4, 71, 65
7, 152819, Note_on_c, 4, 71, 0
7, 152820, Note_on_c, 4, 70, 65
7, 152879, Note_on_c, 4, 70, 0
7, 152880, Note_on_c, 4, 71, 65
7, 152939, Note_on_c, 4, 71, 0
7, 152940, Note_on_c, 4, 69, 65
7, 152969, Note_on_c, 4, 69, 0
7, 152970, Note_on_c, 4, 67, 65
7, 152999, Note_on_c, 4, 67, 0
7, 153000, Note_on_c, 4, 66, 65
7, 153059, Note_on_c, 4, 66, 0
7, 153060, Note_on_c, 4, 64, 65
7, 153119, Note_on_c, 4, 64, 0
7, 153120, Note_on_c, 4, 62, 65
7, 153179, Note_on_c, 4, 62, 0
7, 153180, Note_on_c, 4, 70, 65
7, 153239, Note_on_c, 4, 70, 0
7, 153240, Note_on_c, 4, 71, 65
7, 153299, Note_on_c, 4, 71, 0
7, 153420, Note_on_c, 4, 67, 65
7, 153479, Note_on_c, 4, 67, 0
7, 153480, Note_on_c, 4, 66, 65
7, 153539, Note_on_c, 4, 66, 0
7, 153660, Note_on_c, 4, 70, 65
7, 153719, Note_on_c, 4, 70, 0
7, 153720, Note_on_c, 4, 71, 65
7, 153779, Note_on_c, 4, 71, 0
7, 153780, Note_on_c, 4, 64, 65
7, 153839, Note_on_c, 4, 64, 0
7, 153840, Note_on_c, 4, 62, 65
7, 154319, Note_on_c, 4, 62, 0
7, 154320, Note_on_c, 4, 68, 65
7, 154439, Note_on_c, 4, 68, 0
7, 155100, Note_on_c, 4, 59, 90
7, 155159, Note_on_c, 4, 59, 0
7, 155160, Note_on_c, 4, 66, 90
7, 155309, Note_on_c, 4, 66, 0
7, 155310, Note_on_c, 4, 64, 90
7, 155339, Note_on_c, 4, 64, 0
7, 155340, Note_on_c, 4, 66, 90
7, 155369, Note_on_c, 4, 66, 0
7, 155370, Note_on_c, 4, 62, 90
7, 155399, Note_on_c, 4, 62, 0
7, 155400, Note_on_c, 4, 64, 90
7, 155429, Note_on_c, 4, 64, 0
7, 155430, Note_on_c, 4, 62, 90
7, 155459, Note_on_c, 4, 62, 0
7, 155460, Note_on_c, 4, 64, 90
7, 155489, Note_on_c, 4, 64, 0
7, 155490, Note_on_c, 4, 61, 90
7, 155519, Note_on_c, 4, 61, 0
7, 155520, Note_on_c, 4, 62, 90
7, 155579, Note_on_c, 4, 62, 0
7, 155580, Note_on_c, 4, 59, 90
7, 155639, Note_on_c, 4, 59, 0
7, 155700, Note_on_c, 4, 66, 90
7, 155789, Note_on_c, 4, 66, 0
7, 155790, Note_on_c, 4, 67, 90
7, 155819, Note_on_c, 4, 67, 0
7, 155820, Note_on_c, 4, 66, 90
7, 155849, Note_on_c, 4, 66, 0
7, 155850, Note_on_c, 4, 64, 90
7, 155879, Note_on_c, 4, 64, 0
7, 155880, Note_on_c, 4, 66, 90
7, 155939, Note_on_c, 4, 66, 0
7, 155940, Note_on_c, 4, 61, 90
7, 155999, Note_on_c, 4, 61, 0
7, 156000, Note_on_c, 4, 62, 90
7, 156059, Note_on_c, 4, 62, 0
7, 156060, Note_on_c, 4, 66, 90
7, 156119, Note_on_c, 4, 66, 0
7, 156120, Note_on_c, 4, 64, 90
7, 156179, Note_on_c, 4, 64, 0
7, 156180, Note_on_c, 4, 61, 90
7, 156239, Note_on_c, 4, 61, 0
7, 156240, Note_on_c, 4, 62, 90
7, 156299, Note_on_c, 4, 62, 0
7, 156300, Note_on_c, 4, 66, 90
7, 156359, Note_on_c, 4, 66, 0
7, 156360, Note_on_c, 4, 64, 90
7, 156419, Note_on_c, 4, 64, 0
7, 156420, Note_on_c, 4, 61, 90
7, 156479, Note_on_c, 4, 61, 0
7, 156480, Note_on_c, 4, 62, 90
7, 156539, Note_on_c, 4, 62, 0
7, 156540, Note_on_c, 4, 76, 90
7, 156599, Note_on_c, 4, 76, 0
7, 156600, Note_on_c, 4, 74, 90
7, 156659, Note_on_c, 4, 74, 0
7, 156660, Note_on_c, 4, 73, 90
7, 156719, Note_on_c, 4, 73, 0
7, 156720, Note_on_c, 4, 71, 90
7, 156779, Note_on_c, 4, 71, 0
7, 156780, Note_on_c, 4, 66, 90
7, 156839, Note_on_c, 4, 66, 0
7, 156840, Note_on_c, 4, 71, 90
7, 156989, Note_on_c, 4, 71, 0
7, 156990, Note_on_c, 4, 70, 90
7, 157019, Note_on_c, 4, 70, 0
7, 157020, Note_on_c, 4, 71, 90
7, 157049, Note_on_c, 4, 71, 0
7, 157050, Note_on_c, 4, 70, 90
7, 157079, Note_on_c, 4, 70, 0
7, 157080, Note_on_c, 4, 71, 90
7, 157229, Note_on_c, 4, 71, 0
7, 157230, Note_on_c, 4, 68, 90
7, 157259, Note_on_c, 4, 68, 0
7, 157260, Note_on_c, 4, 69, 90
7, 157319, Note_on_c, 4, 69, 0
7, 157380, Note_on_c, 4, 72, 90
7, 157439, Note_on_c, 4, 72, 0
7, 157440, Note_on_c, 4, 72, 90
7, 157499, Note_on_c, 4, 72, 0
7, 157500, Note_on_c, 4, 71, 90
7, 157559, Note_on_c, 4, 71, 0
7, 157620, Note_on_c, 4, 75, 90
7, 157679, Note_on_c, 4, 75, 0
7, 157680, Note_on_c, 4, 75, 90
7, 157739, Note_on_c, 4, 75, 0
7, 157740, Note_on_c, 4, 76, 90
7, 157799, Note_on_c, 4, 76, 0
7, 158070, Note_on_c, 4, 74, 90
7, 158099, Note_on_c, 4, 74, 0
7, 158100, Note_on_c, 4, 73, 90
7, 158129, Note_on_c, 4, 73, 0
7, 158130, Note_on_c, 4, 71, 90
7, 158159, Note_on_c, 4, 71, 0
7, 158160, Note_on_c, 4, 70, 90
7, 158219, Note_on_c, 4, 70, 0
7, 158220, Note_on_c, 4, 71, 90
7, 158279, Note_on_c, 4, 71, 0
7, 158280, Note_on_c, 4, 76, 90
7, 158339, Note_on_c, 4, 76, 0
7, 158340, Note_on_c, 4, 64, 90
7, 158399, Note_on_c, 4, 64, 0
7, 158400, Note_on_c, 4, 62, 90
7, 158429, Note_on_c, 4, 62, 0
7, 158430, Note_on_c, 4, 67, 90
7, 158459, Note_on_c, 4, 67, 0
7, 158460, Note_on_c, 4, 66, 90
7, 158489, Note_on_c, 4, 66, 0
7, 158490, Note_on_c, 4, 64, 90
7, 158519, Note_on_c, 4, 64, 0
7, 158520, Note_on_c, 4, 62, 90
7, 158579, Note_on_c, 4, 62, 0
7, 158580, Note_on_c, 4, 61, 90
7, 158639, Note_on_c, 4, 61, 0
7, 158640, Note_on_c, 4, 59, 90
7, 158759, Note_on_c, 4, 59, 0
7, 163950, Note_on_c, 4, 69, 80
7, 163973, Note_on_c, 4, 69, 0
7, 163980, Note_on_c, 4, 71, 80
7, 164003, Note_on_c, 4, 71, 0
7, 164010, Note_on_c, 4, 73, 80
7, 164033, Note_on_c, 4, 73, 0
7, 164040, Note_on_c, 4, 74, 80
7, 164063, Note_on_c, 4, 74, 0
7, 164070, Note_on_c, 4, 69, 80
7, 164093, Note_on_c, 4, 69, 0
7, 164100, Note_on_c, 4, 74, 80
7, 164123, Note_on_c, 4, 74, 0
7, 164130, Note_on_c, 4, 76, 80
7, 164153, Note_on_c, 4, 76, 0
7, 164160, Note_on_c, 4, 78, 80
7, 164207, Note_on_c, 4, 78, 0
7, 164220, Note_on_c, 4, 78, 100
7, 164267, Note_on_c, 4, 78, 0
7, 164280, Note_on_c, 4, 76, 100
7, 164327, Note_on_c, 4, 76, 0
7, 164340, Note_on_c, 4, 74, 100
7, 164387, Note_on_c, 4, 74, 0
7, 164400, Note_on_c, 4, 74, 100
7, 164447, Note_on_c, 4, 74, 0
7, 164460, Note_on_c, 4, 73, 100
7, 164507, Note_on_c, 4, 73, 0
7, 164700, Note_on_c, 4, 74, 80
7, 164723, Note_on_c, 4, 74, 0
7, 164760, Note_on_c, 4, 74, 80
7, 164783, Note_on_c, 4, 74, 0
7, 164820, Note_on_c, 4, 69, 80
7, 164843, Note_on_c, 4, 69, 0
7, 164880, Note_on_c, 4, 69, 80
7, 164903, Note_on_c, 4, 69, 0
7, 164940, Note_on_c, 4, 66, 80
7, 164963, Note_on_c, 4, 66, 0
7, 165000, Note_on_c, 4, 66, 80
7, 165023, Note_on_c, 4, 66, 0
7, 165060, Note_on_c, 4, 62, 80
7, 165083, Note_on_c, 4, 62, 0
7, 165120, Note_on_c, 4, 62, 80
7, 165143, Note_on_c, 4, 62, 0
7, 165180, Note_on_c, 4, 78, 100
7, 165227, Note_on_c, 4, 78, 0
7, 165240, Note_on_c, 4, 76, 100
7, 165287, Note_on_c, 4, 76, 0
7, 165300, Note_on_c, 4, 74, 100
7, 165347, Note_on_c, 4, 74, 0
7, 165360, Note_on_c, 4, 74, 100
7, 165407, Note_on_c, 4, 74, 0
7, 165420, Note_on_c, 4, 73, 100
7, 165467, Note_on_c, 4, 73, 0
7, 165660, Note_on_c, 4, 69, 80
7, 165684, Note_on_c, 4, 69, 0
7, 165720, Note_on_c, 4, 69, 80
7, 165744, Note_on_c, 4, 69, 0
7, 165900, Note_on_c, 4, 78, 100
7, 165923, Note_on_c, 4, 78, 0
7, 165930, Note_on_c, 4, 76, 100
7, 165953, Note_on_c, 4, 76, 0
7, 165960, Note_on_c, 4, 78, 100
7, 166007, Note_on_c, 4, 78, 0
7, 166140, Note_on_c, 4, 69, 100
7, 166164, Note_on_c, 4, 69, 0
7, 166200, Note_on_c, 4, 69, 100
7, 166224, Note_on_c, 4, 69, 0
7, 166380, Note_on_c, 4, 76, 100
7, 166403, Note_on_c, 4, 76, 0
7, 166410, Note_on_c, 4, 74, 100
7, 166433, Note_on_c, 4, 74, 0
7, 166440, Note_on_c, 4, 76, 100
7, 166487, Note_on_c, 4, 76, 0
7, 166620, Note_on_c, 4, 74, 80
7, 166667, Note_on_c, 4, 74, 0
7, 166680, Note_on_c, 4, 74, 80
7, 166727, Note_on_c, 4, 74, 0
7, 166740, Note_on_c, 4, 74, 80
7, 166787, Note_on_c, 4, 74, 0
7, 166860, Note_on_c, 4, 74, 80
7, 166907, Note_on_c, 4, 74, 0
7, 166920, Note_on_c, 4, 78, 80
7, 166967, Note_on_c, 4, 78, 0
7, 166980, Note_on_c, 4, 78, 80
7, 167027, Note_on_c, 4, 78, 0
7, 167100, Note_on_c, 4, 79, 80
7, 167123, Note_on_c, 4, 79, 0
7, 167130, Note_on_c, 4, 78, 80
7, 167153, Note_on_c, 4, 78, 0
7, 167160, Note_on_c, 4, 76, 80
7, 167207, Note_on_c, 4, 76, 0
7, 167340, Note_on_c, 4, 69, 80
7, 167387, Note_on_c, 4, 69, 0
7, 167400, Note_on_c, 4, 73, 80
7, 167447, Note_on_c, 4, 73, 0
7, 167460, Note_on_c, 4, 76, 80
7, 167507, Note_on_c, 4, 76, 0
7, 167520, Note_on_c, 4, 74, 80
7, 167567, Note_on_c, 4, 74, 0
7, 167580, Note_on_c, 4, 74, 80
7, 167627, Note_on_c, 4, 74, 0
7, 167640, Note_on_c, 4, 74, 80
7, 167687, Note_on_c, 4, 74, 0
7, 167700, Note_on_c, 4, 73, 80
7, 167747, Note_on_c, 4, 73, 0
7, 167760, Note_on_c, 4, 74, 80
7, 167807, Note_on_c, 4, 74, 0
7, 167940, Note_on_c, 4, 74, 80
7, 167987, Note_on_c, 4, 74, 0
7, 168000, Note_on_c, 4, 69, 80
7, 168047, Note_on_c, 4, 69, 0
7, 168180, Note_on_c, 4, 81, 80
7, 168227, Note_on_c, 4, 81, 0
7, 168240, Note_on_c, 4, 79, 80
7, 168287, Note_on_c, 4, 79, 0
7, 168360, Note_on_c, 4, 74, 82
7, 168407, Note_on_c, 4, 74, 0
7, 168480, Note_on_c, 4, 74, 85
7, 168527, Note_on_c, 4, 74, 0
7, 168600, Note_on_c, 4, 68, 87
7, 168647, Note_on_c, 4, 68, 0
7, 168720, Note_on_c, 4, 64, 90
7, 168767, Note_on_c, 4, 64, 0
7, 168840, Note_on_c, 4, 76, 92
7, 168887, Note_on_c, 4, 76, 0
7, 168960, Note_on_c, 4, 69, 95
7, 169007, Note_on_c, 4, 69, 0
7, 169020, Note_on_c, 4, 78, 96
7, 169067, Note_on_c, 4, 78, 0
7, 169080, Note_on_c, 4, 79, 97
7, 169127, Note_on_c, 4, 79, 0
7, 169140, Note_on_c, 4, 76, 98
7, 169187, Note_on_c, 4, 76, 0
7, 169200, Note_on_c, 4, 74, 100
7, 169295, Note_on_c, 4, 74, 0
7, 169320, Note_on_c, 4, 66, 80
7, 169415, Note_on_c, 4, 66, 0
7, 169440, Note_on_c, 4, 71, 80
7, 169535, Note_on_c, 4, 71, 0
7, 169560, Note_on_c, 4, 69, 80
7, 169655, Note_on_c, 4, 69, 0
7, 169680, Note_on_c, 4, 67, 81
7, 169775, Note_on_c, 4, 67, 0
7, 169800, Note_on_c, 4, 66, 81
7, 169895, Note_on_c, 4, 66, 0
7, 169920, Note_on_c, 4, 64, 81
7, 170111, Note_on_c, 4, 64, 0
7, 170160, Note_on_c, 4, 66, 81
7, 170255, Note_on_c, 4, 66, 0
7, 170670, Note_on_c, 4, 66, 81
7, 170693, Note_on_c, 4, 66, 0
7, 170700, Note_on_c, 4, 68, 81
7, 170723, Note_on_c, 4, 68, 0
7, 170730, Note_on_c, 4, 70, 81
7, 170753, Note_on_c, 4, 70, 0
7, 170760, Note_on_c, 4, 71, 81
7, 170783, Note_on_c, 4, 71, 0
7, 170790, Note_on_c, 4, 66, 81
7, 170813, Note_on_c, 4, 66, 0
7, 170820, Note_on_c, 4, 71, 81
7, 170843, Note_on_c, 4, 71, 0
7, 170850, Note_on_c, 4, 73, 81
7, 170873, Note_on_c, 4, 73, 0
7, 170880, Note_on_c, 4, 74, 81
7, 170927, Note_on_c, 4, 74, 0
7, 170940, Note_on_c, 4, 74, 81
7, 170987, Note_on_c, 4, 74, 0
7, 171000, Note_on_c, 4, 73, 81
7, 171047, Note_on_c, 4, 73, 0
7, 171060, Note_on_c, 4, 71, 82
7, 171107, Note_on_c, 4, 71, 0
7, 171120, Note_on_c, 4, 71, 82
7, 171167, Note_on_c, 4, 71, 0
7, 171180, Note_on_c, 4, 70, 82
7, 171227, Note_on_c, 4, 70, 0
7, 171240, Note_on_c, 4, 73, 82
7, 171335, Note_on_c, 4, 73, 0
7, 171360, Note_on_c, 4, 74, 82
7, 171455, Note_on_c, 4, 74, 0
7, 171480, Note_on_c, 4, 74, 82
7, 171575, Note_on_c, 4, 74, 0
7, 171600, Note_on_c, 4, 73, 82
7, 171671, Note_on_c, 4, 73, 0
7, 171690, Note_on_c, 4, 74, 82
7, 171701, Note_on_c, 4, 74, 0
7, 171705, Note_on_c, 4, 76, 82
7, 171716, Note_on_c, 4, 76, 0
7, 171720, Note_on_c, 4, 73, 82
7, 171815, Note_on_c, 4, 73, 0
7, 171840, Note_on_c, 4, 71, 82
7, 172127, Note_on_c, 4, 71, 0
7, 172590, Note_on_c, 4, 69, 100
7, 172613, Note_on_c, 4, 69, 0
7, 172620, Note_on_c, 4, 71, 100
7, 172643, Note_on_c, 4, 71, 0
7, 172650, Note_on_c, 4, 73, 100
7, 172673, Note_on_c, 4, 73, 0
7, 172680, Note_on_c, 4, 74, 100
7, 172703, Note_on_c, 4, 74, 0
7, 172710, Note_on_c, 4, 69, 100
7, 172733, Note_on_c, 4, 69, 0
7, 172740, Note_on_c, 4, 74, 100
7, 172763, Note_on_c, 4, 74, 0
7, 172770, Note_on_c, 4, 76, 100
7, 172793, Note_on_c, 4, 76, 0
7, 172800, Note_on_c, 4, 78, 100
7, 172847, Note_on_c, 4, 78, 0
7, 172860, Note_on_c, 4, 78, 110
7, 172907, Note_on_c, 4, 78, 0
7, 172920, Note_on_c, 4, 76, 110
7, 172967, Note_on_c, 4, 76, 0
7, 172980, Note_on_c, 4, 74, 110
7, 173027, Note_on_c, 4, 74, 0
7, 173040, Note_on_c, 4, 74, 110
7, 173087, Note_on_c, 4, 74, 0
7, 173100, Note_on_c, 4, 73, 110
7, 173147, Note_on_c, 4, 73, 0
7, 173340, Note_on_c, 4, 74, 80
7, 173363, Note_on_c, 4, 74, 0
7, 173400, Note_on_c, 4, 74, 80
7, 173423, Note_on_c, 4, 74, 0
7, 173460, Note_on_c, 4, 69, 80
7, 173483, Note_on_c, 4, 69, 0
7, 173520, Note_on_c, 4, 69, 80
7, 173543, Note_on_c, 4, 69, 0
7, 173580, Note_on_c, 4, 66, 80
7, 173603, Note_on_c, 4, 66, 0
7, 173640, Note_on_c, 4, 66, 80
7, 173663, Note_on_c, 4, 66, 0
7, 173700, Note_on_c, 4, 62, 80
7, 173723, Note_on_c, 4, 62, 0
7, 173760, Note_on_c, 4, 62, 80
7, 173783, Note_on_c, 4, 62, 0
7, 173820, Note_on_c, 4, 78, 100
7, 173867, Note_on_c, 4, 78, 0
7, 173880, Note_on_c, 4, 76, 100
7, 173927, Note_on_c, 4, 76, 0
7, 173940, Note_on_c, 4, 74, 100
7, 173987, Note_on_c, 4, 74, 0
7, 174000, Note_on_c, 4, 74, 100
7, 174047, Note_on_c, 4, 74, 0
7, 174060, Note_on_c, 4, 73, 100
7, 174107, Note_on_c, 4, 73, 0
7, 174300, Note_on_c, 4, 69, 80
7, 174324, Note_on_c, 4, 69, 0
7, 174360, Note_on_c, 4, 69, 80
7, 174384, Note_on_c, 4, 69, 0
7, 174540, Note_on_c, 4, 78, 100
7, 174563, Note_on_c, 4, 78, 0
7, 174570, Note_on_c, 4, 76, 100
7, 174593, Note_on_c, 4, 76, 0
7, 174600, Note_on_c, 4, 78, 100
7, 174647, Note_on_c, 4, 78, 0
7, 174780, Note_on_c, 4, 69, 80
7, 174804, Note_on_c, 4, 69, 0
7, 174840, Note_on_c, 4, 69, 80
7, 174864, Note_on_c, 4, 69, 0
7, 175020, Note_on_c, 4, 76, 100
7, 175043, Note_on_c, 4, 76, 0
7, 175050, Note_on_c, 4, 74, 100
7, 175073, Note_on_c, 4, 74, 0
7, 175080, Note_on_c, 4, 76, 100
7, 175127, Note_on_c, 4, 76, 0
7, 175260, Note_on_c, 4, 74, 80
7, 175307, Note_on_c, 4, 74, 0
7, 175320, Note_on_c, 4, 74, 80
7, 175367, Note_on_c, 4, 74, 0
7, 175380, Note_on_c, 4, 74, 80
7, 175427, Note_on_c, 4, 74, 0
7, 175500, Note_on_c, 4, 74, 80
7, 175547, Note_on_c, 4, 74, 0
7, 175560, Note_on_c, 4, 78, 80
7, 175607, Note_on_c, 4, 78, 0
7, 175620, Note_on_c, 4, 78, 80
7, 175667, Note_on_c, 4, 78, 0
7, 175740, Note_on_c, 4, 79, 80
7, 175763, Note_on_c, 4, 79, 0
7, 175770, Note_on_c, 4, 78, 80
7, 175793, Note_on_c, 4, 78, 0
7, 175800, Note_on_c, 4, 76, 80
7, 175847, Note_on_c, 4, 76, 0
7, 175980, Note_on_c, 4, 69, 80
7, 176027, Note_on_c, 4, 69, 0
7, 176040, Note_on_c, 4, 73, 80
7, 176087, Note_on_c, 4, 73, 0
7, 176100, Note_on_c, 4, 76, 80
7, 176147, Note_on_c, 4, 76, 0
7, 176160, Note_on_c, 4, 74, 80
7, 176207, Note_on_c, 4, 74, 0
7, 176220, Note_on_c, 4, 74, 80
7, 176267, Note_on_c, 4, 74, 0
7, 176280, Note_on_c, 4, 74, 80
7, 176327, Note_on_c, 4, 74, 0
7, 176340, Note_on_c, 4, 73, 80
7, 176387, Note_on_c, 4, 73, 0
7, 176400, Note_on_c, 4, 74, 80
7, 176447, Note_on_c, 4, 74, 0
7, 176580, Note_on_c, 4, 74, 80
7, 176627, Note_on_c, 4, 74, 0
7, 176640, Note_on_c, 4, 69, 80
7, 176687, Note_on_c, 4, 69, 0
7, 176820, Note_on_c, 4, 81, 80
7, 176867, Note_on_c, 4, 81, 0
7, 176880, Note_on_c, 4, 79, 80
7, 176927, Note_on_c, 4, 79, 0
7, 177000, Note_on_c, 4, 74, 80
7, 177047, Note_on_c, 4, 74, 0
7, 177120, Note_on_c, 4, 74, 80
7, 177167, Note_on_c, 4, 74, 0
7, 177240, Note_on_c, 4, 68, 80
7, 177287, Note_on_c, 4, 68, 0
7, 177360, Note_on_c, 4, 64, 80
7, 177407, Note_on_c, 4, 64, 0
7, 177480, Note_on_c, 4, 76, 80
7, 177527, Note_on_c, 4, 76, 0
7, 177600, Note_on_c, 4, 69, 80
7, 177647, Note_on_c, 4, 69, 0
7, 177660, Note_on_c, 4, 78, 80
7, 177707, Note_on_c, 4, 78, 0
7, 177720, Note_on_c, 4, 79, 80
7, 177767, Note_on_c, 4, 79, 0
7, 177780, Note_on_c, 4, 76, 80
7, 177827, Note_on_c, 4, 76, 0
7, 177840, Note_on_c, 4, 74, 80
7, 177935, Note_on_c, 4, 74, 0
7, 177960, Note_on_c, 4, 66, 80
7, 178055, Note_on_c, 4, 66, 0
7, 178080, Note_on_c, 4, 71, 80
7, 178175, Note_on_c, 4, 71, 0
7, 178200, Note_on_c, 4, 69, 80
7, 178295, Note_on_c, 4, 69, 0
7, 178320, Note_on_c, 4, 67, 80
7, 178415, Note_on_c, 4, 67, 0
7, 178440, Note_on_c, 4, 66, 80
7, 178535, Note_on_c, 4, 66, 0
7, 178560, Note_on_c, 4, 64, 80
7, 178751, Note_on_c, 4, 64, 0
7, 178800, Note_on_c, 4, 66, 80
7, 178895, Note_on_c, 4, 66, 0
7, 179310, Note_on_c, 4, 66, 80
7, 179333, Note_on_c, 4, 66, 0
7, 179340, Note_on_c, 4, 68, 80
7, 179363, Note_on_c, 4, 68, 0
7, 179370, Note_on_c, 4, 70, 80
7, 179393, Note_on_c, 4, 70, 0
7, 179400, Note_on_c, 4, 71, 80
7, 179423, Note_on_c, 4, 71, 0
7, 179430, Note_on_c, 4, 66, 80
7, 179453, Note_on_c, 4, 66, 0
7, 179460, Note_on_c, 4, 71, 80
7, 179483, Note_on_c, 4, 71, 0
7, 179490, Note_on_c, 4, 73, 80
7, 179513, Note_on_c, 4, 73, 0
7, 179520, Note_on_c, 4, 74, 80
7, 179567, Note_on_c, 4, 74, 0
7, 179580, Note_on_c, 4, 74, 80
7, 179627, Note_on_c, 4, 74, 0
7, 179640, Note_on_c, 4, 73, 80
7, 179687, Note_on_c, 4, 73, 0
7, 179700, Note_on_c, 4, 71, 80
7, 179747, Note_on_c, 4, 71, 0
7, 179760, Note_on_c, 4, 71, 80
7, 179807, Note_on_c, 4, 71, 0
7, 179820, Note_on_c, 4, 70, 80
7, 179867, Note_on_c, 4, 70, 0
7, 179880, Note_on_c, 4, 73, 80
7, 179975, Note_on_c, 4, 73, 0
7, 180000, Note_on_c, 4, 74, 80
7, 180095, Note_on_c, 4, 74, 0
7, 180120, Note_on_c, 4, 74, 80
7, 180215, Note_on_c, 4, 74, 0
7, 180240, Note_on_c, 4, 73, 80
7, 180311, Note_on_c, 4, 73, 0
7, 180330, Note_on_c, 4, 74, 80
7, 180341, Note_on_c, 4, 74, 0
7, 180345, Note_on_c, 4, 76, 80
7, 180356, Note_on_c, 4, 76, 0
7, 180360, Note_on_c, 4, 73, 80
7, 180455, Note_on_c, 4, 73, 0
7, 180480, Note_on_c, 4, 71, 80
7, 180767, Note_on_c, 4, 71, 0
7, 181230, Note_on_c, 4, 69, 100
7, 181253, Note_on_c, 4, 69, 0
7, 181260, Note_on_c, 4, 71, 100
7, 181283, Note_on_c, 4, 71, 0
7, 181290, Note_on_c, 4, 73, 100
7, 181313, Note_on_c, 4, 73, 0
7, 181320, Note_on_c, 4, 74, 100
7, 181343, Note_on_c, 4, 74, 0
7, 181350, Note_on_c, 4, 69, 100
7, 181373, Note_on_c, 4, 69, 0
7, 181380, Note_on_c, 4, 74, 100
7, 181403, Note_on_c, 4, 74, 0
7, 181410, Note_on_c, 4, 76, 100
7, 181433, Note_on_c, 4, 76, 0
7, 181440, Note_on_c, 4, 78, 110
7, 181487, Note_on_c, 4, 78, 0
7, 181500, Note_on_c, 4, 78, 110
7, 181547, Note_on_c, 4, 78, 0
7, 181560, Note_on_c, 4, 76, 110
7, 181607, Note_on_c, 4, 76, 0
7, 181620, Note_on_c, 4, 74, 110
7, 181667, Note_on_c, 4, 74, 0
7, 181680, Note_on_c, 4, 74, 110
7, 181727, Note_on_c, 4, 74, 0
7, 181740, Note_on_c, 4, 73, 110
7, 181787, Note_on_c, 4, 73, 0
7, 181980, Note_on_c, 4, 74, 80
7, 182003, Note_on_c, 4, 74, 0
7, 182040, Note_on_c, 4, 74, 80
7, 182063, Note_on_c, 4, 74, 0
7, 182100, Note_on_c, 4, 69, 80
7, 182123, Note_on_c, 4, 69, 0
7, 182160, Note_on_c, 4, 69, 80
7, 182183, Note_on_c, 4, 69, 0
7, 182220, Note_on_c, 4, 66, 80
7, 182243, Note_on_c, 4, 66, 0
7, 182280, Note_on_c, 4, 66, 80
7, 182303, Note_on_c, 4, 66, 0
7, 182340, Note_on_c, 4, 62, 80
7, 182363, Note_on_c, 4, 62, 0
7, 182400, Note_on_c, 4, 62, 80
7, 182423, Note_on_c, 4, 62, 0
7, 182460, Note_on_c, 4, 78, 100
7, 182507, Note_on_c, 4, 78, 0
7, 182520, Note_on_c, 4, 76, 100
7, 182567, Note_on_c, 4, 76, 0
7, 182580, Note_on_c, 4, 74, 100
7, 182627, Note_on_c, 4, 74, 0
7, 182640, Note_on_c, 4, 74, 100
7, 182687, Note_on_c, 4, 74, 0
7, 182700, Note_on_c, 4, 73, 100
7, 182747, Note_on_c, 4, 73, 0
7, 182760, Note_on_c, 4, 74, 80
7, 182855, Note_on_c, 4, 74, 0
7, 182880, Note_on_c, 4, 73, 80
7, 182975, Note_on_c, 4, 73, 0
7, 183000, Note_on_c, 4, 69, 80
7, 183095, Note_on_c, 4, 69, 0
7, 183120, Note_on_c, 4, 71, 80
7, 183215, Note_on_c, 4, 71, 0
7, 183240, Note_on_c, 4, 73, 80
7, 183335, Note_on_c, 4, 73, 0
7, 183360, Note_on_c, 4, 74, 80
7, 183551, Note_on_c, 4, 74, 0
7, 183600, Note_on_c, 4, 74, 100
7, 183647, Note_on_c, 4, 74, 0
7, 183660, Note_on_c, 4, 78, 100
7, 183683, Note_on_c, 4, 78, 0
7, 183690, Note_on_c, 4, 76, 100
7, 183713, Note_on_c, 4, 76, 0
7, 183720, Note_on_c, 4, 78, 100
7, 183767, Note_on_c, 4, 78, 0
7, 183900, Note_on_c, 4, 69, 80
7, 183923, Note_on_c, 4, 69, 0
7, 183960, Note_on_c, 4, 69, 80
7, 183983, Note_on_c, 4, 69, 0
7, 184140, Note_on_c, 4, 76, 100
7, 184163, Note_on_c, 4, 76, 0
7, 184170, Note_on_c, 4, 74, 100
7, 184193, Note_on_c, 4, 74, 0
7, 184200, Note_on_c, 4, 76, 100
7, 184247, Note_on_c, 4, 76, 0
7, 184440, Note_on_c, 4, 69, 80
7, 184535, Note_on_c, 4, 69, 0
7, 184560, Note_on_c, 4, 71, 80
7, 184655, Note_on_c, 4, 71, 0
7, 184680, Note_on_c, 4, 69, 80
7, 184775, Note_on_c, 4, 69, 0
7, 184800, Note_on_c, 4, 67, 80
7, 184895, Note_on_c, 4, 67, 0
7, 184920, Note_on_c, 4, 67, 80
7, 184967, Note_on_c, 4, 67, 0
7, 184980, Note_on_c, 4, 66, 80
7, 185027, Note_on_c, 4, 66, 0
7, 185040, Note_on_c, 4, 66, 80
7, 185135, Note_on_c, 4, 66, 0
7, 185220, Note_on_c, 4, 78, 80
7, 185267, Note_on_c, 4, 78, 0
7, 185280, Note_on_c, 4, 83, 80
7, 185303, Note_on_c, 4, 83, 0
7, 185310, Note_on_c, 4, 85, 80
7, 185333, Note_on_c, 4, 85, 0
7, 185340, Note_on_c, 4, 86, 80
7, 185363, Note_on_c, 4, 86, 0
7, 185370, Note_on_c, 4, 85, 80
7, 185393, Note_on_c, 4, 85, 0
7, 185400, Note_on_c, 4, 83, 80
7, 185447, Note_on_c, 4, 83, 0
7, 185460, Note_on_c, 4, 78, 80
7, 185483, Note_on_c, 4, 78, 0
7, 185520, Note_on_c, 4, 78, 80
7, 185543, Note_on_c, 4, 78, 0
7, 185580, Note_on_c, 4, 74, 80
7, 185603, Note_on_c, 4, 74, 0
7, 185640, Note_on_c, 4, 74, 80
7, 185663, Note_on_c, 4, 74, 0
7, 185700, Note_on_c, 4, 71, 80
7, 185723, Note_on_c, 4, 71, 0
7, 185760, Note_on_c, 4, 71, 100
7, 185783, Note_on_c, 4, 71, 0
7, 185820, Note_on_c, 4, 74, 100
7, 185867, Note_on_c, 4, 74, 0
7, 185880, Note_on_c, 4, 73, 100
7, 185927, Note_on_c, 4, 73, 0
7, 185940, Note_on_c, 4, 71, 100
7, 185987, Note_on_c, 4, 71, 0
7, 186000, Note_on_c, 4, 71, 100
7, 186047, Note_on_c, 4, 71, 0
7, 186060, Note_on_c, 4, 70, 100
7, 186107, Note_on_c, 4, 70, 0
7, 186300, Note_on_c, 4, 67, 80
7, 186323, Note_on_c, 4, 67, 0
7, 186360, Note_on_c, 4, 66, 80
7, 186383, Note_on_c, 4, 66, 0
7, 186540, Note_on_c, 4, 76, 80
7, 186563, Note_on_c, 4, 76, 0
7, 186570, Note_on_c, 4, 78, 80
7, 186593, Note_on_c, 4, 78, 0
7, 186600, Note_on_c, 4, 76, 80
7, 186647, Note_on_c, 4, 76, 0
7, 186660, Note_on_c, 4, 74, 80
7, 186707, Note_on_c, 4, 74, 0
7, 186720, Note_on_c, 4, 73, 80
7, 186815, Note_on_c, 4, 73, 0
7, 186840, Note_on_c, 4, 76, 80
7, 186935, Note_on_c, 4, 76, 0
7, 186960, Note_on_c, 4, 74, 80
7, 187055, Note_on_c, 4, 74, 0
7, 187080, Note_on_c, 4, 73, 80
7, 187175, Note_on_c, 4, 73, 0
7, 187200, Note_on_c, 4, 71, 80
7, 187391, Note_on_c, 4, 71, 0
7, 187440, Note_on_c, 4, 73, 80
7, 187535, Note_on_c, 4, 73, 0
7, 187710, Note_on_c, 4, 64, 80
7, 187733, Note_on_c, 4, 64, 0
7, 187740, Note_on_c, 4, 66, 80
7, 187763, Note_on_c, 4, 66, 0
7, 187770, Note_on_c, 4, 68, 80
7, 187793, Note_on_c, 4, 68, 0
7, 187800, Note_on_c, 4, 69, 80
7, 187823, Note_on_c, 4, 69, 0
7, 187830, Note_on_c, 4, 68, 80
7, 187853, Note_on_c, 4, 68, 0
7, 187860, Note_on_c, 4, 69, 80
7, 187883, Note_on_c, 4, 69, 0
7, 187890, Note_on_c, 4, 71, 80
7, 187913, Note_on_c, 4, 71, 0
7, 187920, Note_on_c, 4, 73, 80
7, 187967, Note_on_c, 4, 73, 0
7, 187980, Note_on_c, 4, 76, 100
7, 188027, Note_on_c, 4, 76, 0
7, 188040, Note_on_c, 4, 74, 100
7, 188087, Note_on_c, 4, 74, 0
7, 188100, Note_on_c, 4, 73, 100
7, 188147, Note_on_c, 4, 73, 0
7, 188160, Note_on_c, 4, 73, 100
7, 188207, Note_on_c, 4, 73, 0
7, 188220, Note_on_c, 4, 71, 100
7, 188267, Note_on_c, 4, 71, 0
7, 188340, Note_on_c, 4, 73, 80
7, 188387, Note_on_c, 4, 73, 0
7, 188400, Note_on_c, 4, 78, 80
7, 188423, Note_on_c, 4, 78, 0
7, 188430, Note_on_c, 4, 80, 80
7, 188453, Note_on_c, 4, 80, 0
7, 188460, Note_on_c, 4, 81, 80
7, 188483, Note_on_c, 4, 81, 0
7, 188490, Note_on_c, 4, 80, 80
7, 188513, Note_on_c, 4, 80, 0
7, 188520, Note_on_c, 4, 78, 80
7, 188567, Note_on_c, 4, 78, 0
7, 188580, Note_on_c, 4, 73, 80
7, 188603, Note_on_c, 4, 73, 0
7, 188640, Note_on_c, 4, 73, 80
7, 188663, Note_on_c, 4, 73, 0
7, 188700, Note_on_c, 4, 69, 80
7, 188723, Note_on_c, 4, 69, 0
7, 188760, Note_on_c, 4, 69, 80
7, 188783, Note_on_c, 4, 69, 0
7, 188820, Note_on_c, 4, 66, 80
7, 188843, Note_on_c, 4, 66, 0
7, 188880, Note_on_c, 4, 66, 80
7, 188903, Note_on_c, 4, 66, 0
7, 188940, Note_on_c, 4, 76, 100
7, 188987, Note_on_c, 4, 76, 0
7, 189000, Note_on_c, 4, 74, 100
7, 189047, Note_on_c, 4, 74, 0
7, 189060, Note_on_c, 4, 73, 100
7, 189107, Note_on_c, 4, 73, 0
7, 189120, Note_on_c, 4, 71, 100
7, 189167, Note_on_c, 4, 71, 0
7, 189180, Note_on_c, 4, 71, 100
7, 189203, Note_on_c, 4, 71, 0
7, 189240, Note_on_c, 4, 71, 80
7, 189263, Note_on_c, 4, 71, 0
7, 189300, Note_on_c, 4, 68, 80
7, 189323, Note_on_c, 4, 68, 0
7, 189360, Note_on_c, 4, 68, 80
7, 189383, Note_on_c, 4, 68, 0
7, 189420, Note_on_c, 4, 74, 100
7, 189467, Note_on_c, 4, 74, 0
7, 189480, Note_on_c, 4, 73, 100
7, 189527, Note_on_c, 4, 73, 0
7, 189540, Note_on_c, 4, 71, 100
7, 189587, Note_on_c, 4, 71, 0
7, 189600, Note_on_c, 4, 69, 100
7, 189647, Note_on_c, 4, 69, 0
7, 189660, Note_on_c, 4, 69, 80
7, 189683, Note_on_c, 4, 69, 0
7, 189720, Note_on_c, 4, 69, 80
7, 189743, Note_on_c, 4, 69, 0
7, 189780, Note_on_c, 4, 66, 80
7, 189803, Note_on_c, 4, 66, 0
7, 189840, Note_on_c, 4, 66, 80
7, 189863, Note_on_c, 4, 66, 0
7, 189900, Note_on_c, 4, 72, 80
7, 189947, Note_on_c, 4, 72, 0
7, 189960, Note_on_c, 4, 71, 80
7, 190007, Note_on_c, 4, 71, 0
7, 190020, Note_on_c, 4, 69, 80
7, 190067, Note_on_c, 4, 69, 0
7, 190080, Note_on_c, 4, 67, 80
7, 190175, Note_on_c, 4, 67, 0
7, 190200, Note_on_c, 4, 66, 80
7, 190295, Note_on_c, 4, 66, 0
7, 190320, Note_on_c, 4, 64, 80
7, 190415, Note_on_c, 4, 64, 0
7, 190440, Note_on_c, 4, 69, 80
7, 190535, Note_on_c, 4, 69, 0
7, 190560, Note_on_c, 4, 66, 80
7, 190751, Note_on_c, 4, 66, 0
7, 190830, Note_on_c, 4, 69, 80
7, 190853, Note_on_c, 4, 69, 0
7, 190860, Note_on_c, 4, 71, 80
7, 190883, Note_on_c, 4, 71, 0
7, 190890, Note_on_c, 4, 73, 80
7, 190913, Note_on_c, 4, 73, 0
7, 190920, Note_on_c, 4, 74, 80
7, 190943, Note_on_c, 4, 74, 0
7, 190950, Note_on_c, 4, 69, 80
7, 190973, Note_on_c, 4, 69, 0
7, 190980, Note_on_c, 4, 74, 80
7, 191003, Note_on_c, 4, 74, 0
7, 191010, Note_on_c, 4, 76, 80
7, 191033, Note_on_c, 4, 76, 0
7, 191040, Note_on_c, 4, 78, 100
7, 191087, Note_on_c, 4, 78, 0
7, 191100, Note_on_c, 4, 78, 100
7, 191147, Note_on_c, 4, 78, 0
7, 191160, Note_on_c, 4, 76, 100
7, 191207, Note_on_c, 4, 76, 0
7, 191220, Note_on_c, 4, 74, 100
7, 191267, Note_on_c, 4, 74, 0
7, 191280, Note_on_c, 4, 74, 100
7, 191327, Note_on_c, 4, 74, 0
7, 191340, Note_on_c, 4, 73, 100
7, 191387, Note_on_c, 4, 73, 0
7, 191580, Note_on_c, 4, 74, 100
7, 191603, Note_on_c, 4, 74, 0
7, 191640, Note_on_c, 4, 74, 100
7, 191663, Note_on_c, 4, 74, 0
7, 191700, Note_on_c, 4, 69, 100
7, 191723, Note_on_c, 4, 69, 0
7, 191760, Note_on_c, 4, 69, 100
7, 191783, Note_on_c, 4, 69, 0
7, 191820, Note_on_c, 4, 66, 100
7, 191843, Note_on_c, 4, 66, 0
7, 191880, Note_on_c, 4, 66, 100
7, 191903, Note_on_c, 4, 66, 0
7, 191940, Note_on_c, 4, 62, 100
7, 191963, Note_on_c, 4, 62, 0
7, 192000, Note_on_c, 4, 62, 110
7, 192023, Note_on_c, 4, 62, 0
7, 192060, Note_on_c, 4, 78, 110
7, 192107, Note_on_c, 4, 78, 0
7, 192120, Note_on_c, 4, 76, 110
7, 192167, Note_on_c, 4, 76, 0
7, 192180, Note_on_c, 4, 74, 110
7, 192227, Note_on_c, 4, 74, 0
7, 192240, Note_on_c, 4, 74, 110
7, 192287, Note_on_c, 4, 74, 0
7, 192300, Note_on_c, 4, 73, 110
7, 192347, Note_on_c, 4, 73, 0
7, 192540, Note_on_c, 4, 69, 100
7, 192564, Note_on_c, 4, 69, 0
7, 192600, Note_on_c, 4, 69, 100
7, 192624, Note_on_c, 4, 69, 0
7, 192780, Note_on_c, 4, 78, 110
7, 192803, Note_on_c, 4, 78, 0
7, 192810, Note_on_c, 4, 76, 110
7, 192833, Note_on_c, 4, 76, 0
7, 192840, Note_on_c, 4, 78, 110
7, 192887, Note_on_c, 4, 78, 0
7, 193020, Note_on_c, 4, 69, 100
7, 193044, Note_on_c, 4, 69, 0
7, 193080, Note_on_c, 4, 69, 100
7, 193104, Note_on_c, 4, 69, 0
7, 193260, Note_on_c, 4, 76, 110
7, 193283, Note_on_c, 4, 76, 0
7, 193290, Note_on_c, 4, 74, 110
7, 193313, Note_on_c, 4, 74, 0
7, 193320, Note_on_c, 4, 76, 110
7, 193367, Note_on_c, 4, 76, 0
7, 193500, Note_on_c, 4, 74, 100
7, 193547, Note_on_c, 4, 74, 0
7, 193560, Note_on_c, 4, 74, 100
7, 193607, Note_on_c, 4, 74, 0
7, 193620, Note_on_c, 4, 74, 100
7, 193667, Note_on_c, 4, 74, 0
7, 193740, Note_on_c, 4, 74, 100
7, 193787, Note_on_c, 4, 74, 0
7, 193800, Note_on_c, 4, 78, 100
7, 193847, Note_on_c, 4, 78, 0
7, 193860, Note_on_c, 4, 78, 100
7, 193907, Note_on_c, 4, 78, 0
7, 193980, Note_on_c, 4, 79, 100
7, 194003, Note_on_c, 4, 79, 0
7, 194010, Note_on_c, 4, 78, 100
7, 194033, Note_on_c, 4, 78, 0
7, 194040, Note_on_c, 4, 76, 100
7, 194087, Note_on_c, 4, 76, 0
7, 194220, Note_on_c, 4, 69, 100
7, 194267, Note_on_c, 4, 69, 0
7, 194280, Note_on_c, 4, 73, 100
7, 194327, Note_on_c, 4, 73, 0
7, 194340, Note_on_c, 4, 76, 100
7, 194387, Note_on_c, 4, 76, 0
7, 194400, Note_on_c, 4, 74, 100
7, 194447, Note_on_c, 4, 74, 0
7, 194460, Note_on_c, 4, 74, 100
7, 194507, Note_on_c, 4, 74, 0
7, 194520, Note_on_c, 4, 74, 100
7, 194567, Note_on_c, 4, 74, 0
7, 194580, Note_on_c, 4, 73, 100
7, 194627, Note_on_c, 4, 73, 0
7, 194640, Note_on_c, 4, 74, 100
7, 194687, Note_on_c, 4, 74, 0
7, 194820, Note_on_c, 4, 74, 100
7, 194867, Note_on_c, 4, 74, 0
7, 194880, Note_on_c, 4, 69, 100
7, 194927, Note_on_c, 4, 69, 0
7, 195060, Note_on_c, 4, 81, 100
7, 195107, Note_on_c, 4, 81, 0
7, 195120, Note_on_c, 4, 79, 100
7, 195167, Note_on_c, 4, 79, 0
7, 195240, Note_on_c, 4, 74, 100
7, 195287, Note_on_c, 4, 74, 0
7, 195360, Note_on_c, 4, 74, 100
7, 195407, Note_on_c, 4, 74, 0
7, 195480, Note_on_c, 4, 68, 100
7, 195527, Note_on_c, 4, 68, 0
7, 195600, Note_on_c, 4, 64, 100
7, 195647, Note_on_c, 4, 64, 0
7, 195720, Note_on_c, 4, 76, 100
7, 195767, Note_on_c, 4, 76, 0
7, 195840, Note_on_c, 4, 69, 100
7, 195887, Note_on_c, 4, 69, 0
7, 195900, Note_on_c, 4, 78, 100
7, 195947, Note_on_c, 4, 78, 0
7, 195960, Note_on_c, 4, 79, 100
7, 196007, Note_on_c, 4, 79, 0
7, 196020, Note_on_c, 4, 76, 100
7, 196067, Note_on_c, 4, 76, 0
7, 196080, Note_on_c, 4, 74, 100
7, 196224, Note_on_c, 4, 74, 0
7, 196224, End_track
8, 0, Start_track
8, 0, MIDI_port, 0
8, 0, Title_t, "Violino I"
8, 0, Program_c, 5, 48
8, 0, Control_c, 5, 7, 127
8, 0, Control_c, 5, 10, 37
8, 120, Note_on_c, 5, 62, 80
8, 149, Note_on_c, 5, 62, 0
8, 150, Note_on_c, 5, 64, 80
8, 179, Note_on_c, 5, 64, 0
8, 180, Note_on_c, 5, 66, 90
8, 209, Note_on_c, 5, 66, 0
8, 210, Note_on_c, 5, 64, 90
8, 239, Note_on_c, 5, 64, 0
8, 240, Note_on_c, 5, 67, 80
8, 269, Note_on_c, 5, 67, 0
8, 270, Note_on_c, 5, 66, 80
8, 299, Note_on_c, 5, 66, 0
8, 300, Note_on_c, 5, 64, 80
8, 329, Note_on_c, 5, 64, 0
8, 330, Note_on_c, 5, 62, 80
8, 359, Note_on_c, 5, 62, 0
8, 360, Note_on_c, 5, 61, 90
8, 389, Note_on_c, 5, 61, 0
8, 390, Note_on_c, 5, 59, 90
8, 419, Note_on_c, 5, 59, 0
8, 420, Note_on_c, 5, 62, 80
8, 449, Note_on_c, 5, 62, 0
8, 450, Note_on_c, 5, 61, 80
8, 479, Note_on_c, 5, 61, 0
8, 480, Note_on_c, 5, 59, 80
8, 509, Note_on_c, 5, 59, 0
8, 510, Note_on_c, 5, 57, 80
8, 539, Note_on_c, 5, 57, 0
8, 540, Note_on_c, 5, 62, 90
8, 587, Note_on_c, 5, 62, 0
8, 600, Note_on_c, 5, 55, 80
8, 647, Note_on_c, 5, 55, 0
8, 660, Note_on_c, 5, 57, 80
8, 707, Note_on_c, 5, 57, 0
8, 720, Note_on_c, 5, 62, 90
8, 767, Note_on_c, 5, 62, 0
8, 780, Note_on_c, 5, 66, 80
8, 827, Note_on_c, 5, 66, 0
8, 840, Note_on_c, 5, 69, 80
8, 887, Note_on_c, 5, 69, 0
8, 900, Note_on_c, 5, 74, 90
8, 995, Note_on_c, 5, 74, 0
8, 1020, Note_on_c, 5, 69, 80
8, 1067, Note_on_c, 5, 69, 0
8, 1080, Note_on_c, 5, 76, 90
8, 1175, Note_on_c, 5, 76, 0
8, 1200, Note_on_c, 5, 69, 80
8, 1247, Note_on_c, 5, 69, 0
8, 1260, Note_on_c, 5, 78, 90
8, 1307, Note_on_c, 5, 78, 0
8, 1320, Note_on_c, 5, 76, 80
8, 1349, Note_on_c, 5, 76, 0
8, 1350, Note_on_c, 5, 78, 80
8, 1379, Note_on_c, 5, 78, 0
8, 1380, Note_on_c, 5, 79, 80
8, 1409, Note_on_c, 5, 79, 0
8, 1410, Note_on_c, 5, 76, 80
8, 1439, Note_on_c, 5, 76, 0
8, 1440, Note_on_c, 5, 79, 90
8, 1469, Note_on_c, 5, 79, 0
8, 1470, Note_on_c, 5, 78, 90
8, 1499, Note_on_c, 5, 78, 0
8, 1500, Note_on_c, 5, 76, 80
8, 1529, Note_on_c, 5, 76, 0
8, 1530, Note_on_c, 5, 74, 80
8, 1559, Note_on_c, 5, 74, 0
8, 1560, Note_on_c, 5, 76, 80
8, 1589, Note_on_c, 5, 76, 0
8, 1590, Note_on_c, 5, 73, 80
8, 1619, Note_on_c, 5, 73, 0
8, 1620, Note_on_c, 5, 62, 90
8, 1715, Note_on_c, 5, 62, 0
8, 1740, Note_on_c, 5, 71, 80
8, 1787, Note_on_c, 5, 71, 0
8, 1800, Note_on_c, 5, 61, 90
8, 1895, Note_on_c, 5, 61, 0
8, 1920, Note_on_c, 5, 69, 80
8, 1967, Note_on_c, 5, 69, 0
8, 1980, Note_on_c, 5, 59, 90
8, 2027, Note_on_c, 5, 59, 0
8, 2040, Note_on_c, 5, 61, 80
8, 2087, Note_on_c, 5, 61, 0
8, 2100, Note_on_c, 5, 62, 80
8, 2147, Note_on_c, 5, 62, 0
8, 2160, Note_on_c, 5, 57, 90
8, 2207, Note_on_c, 5, 57, 0
8, 2220, Note_on_c, 5, 61, 80
8, 2267, Note_on_c, 5, 61, 0
8, 2280, Note_on_c, 5, 76, 80
8, 2327, Note_on_c, 5, 76, 0
8, 2340, Note_on_c, 5, 78, 90
8, 2369, Note_on_c, 5, 78, 0
8, 2400, Note_on_c, 5, 83, 80
8, 2429, Note_on_c, 5, 83, 0
8, 2430, Note_on_c, 5, 81, 80
8, 2459, Note_on_c, 5, 81, 0
8, 2460, Note_on_c, 5, 79, 80
8, 2489, Note_on_c, 5, 79, 0
8, 2490, Note_on_c, 5, 78, 80
8, 2519, Note_on_c, 5, 78, 0
8, 2520, Note_on_c, 5, 76, 90
8, 2549, Note_on_c, 5, 76, 0
8, 2580, Note_on_c, 5, 81, 80
8, 2609, Note_on_c, 5, 81, 0
8, 2610, Note_on_c, 5, 79, 80
8, 2639, Note_on_c, 5, 79, 0
8, 2640, Note_on_c, 5, 78, 80
8, 2669, Note_on_c, 5, 78, 0
8, 2670, Note_on_c, 5, 76, 80
8, 2699, Note_on_c, 5, 76, 0
8, 2700, Note_on_c, 5, 74, 90
8, 2759, Note_on_c, 5, 74, 0
8, 2760, Note_on_c, 5, 79, 80
8, 2819, Note_on_c, 5, 79, 0
8, 2820, Note_on_c, 5, 78, 80
8, 2879, Note_on_c, 5, 78, 0
8, 2880, Note_on_c, 5, 76, 90
8, 2951, Note_on_c, 5, 76, 0
8, 2970, Note_on_c, 5, 74, 80
8, 2993, Note_on_c, 5, 74, 0
8, 3000, Note_on_c, 5, 73, 80
8, 3023, Note_on_c, 5, 73, 0
8, 3030, Note_on_c, 5, 71, 80
8, 3053, Note_on_c, 5, 71, 0
8, 3060, Note_on_c, 5, 69, 90
8, 3119, Note_on_c, 5, 69, 0
8, 3120, Note_on_c, 5, 74, 80
8, 3179, Note_on_c, 5, 74, 0
8, 3180, Note_on_c, 5, 73, 80
8, 3209, Note_on_c, 5, 73, 0
8, 3240, Note_on_c, 5, 78, 90
8, 3269, Note_on_c, 5, 78, 0
8, 3300, Note_on_c, 5, 76, 80
8, 3359, Note_on_c, 5, 76, 0
8, 3360, Note_on_c, 5, 74, 80
8, 3419, Note_on_c, 5, 74, 0
8, 3420, Note_on_c, 5, 73, 90
8, 3479, Note_on_c, 5, 73, 0
8, 3480, Note_on_c, 5, 74, 80
8, 3539, Note_on_c, 5, 74, 0
8, 3540, Note_on_c, 5, 71, 80
8, 3599, Note_on_c, 5, 71, 0
8, 3600, Note_on_c, 5, 69, 65
8, 3659, Note_on_c, 5, 69, 0
8, 3660, Note_on_c, 5, 72, 65
8, 3719, Note_on_c, 5, 72, 0
8, 3720, Note_on_c, 5, 75, 65
8, 3839, Note_on_c, 5, 75, 0
8, 3840, Note_on_c, 5, 78, 65
8, 3899, Note_on_c, 5, 78, 0
8, 3900, Note_on_c, 5, 81, 65
8, 3989, Note_on_c, 5, 81, 0
8, 3990, Note_on_c, 5, 84, 65
8, 4019, Note_on_c, 5, 84, 0
8, 4020, Note_on_c, 5, 83, 65
8, 4049, Note_on_c, 5, 83, 0
8, 4050, Note_on_c, 5, 80, 65
8, 4079, Note_on_c, 5, 80, 0
8, 4080, Note_on_c, 5, 81, 65
8, 4199, Note_on_c, 5, 81, 0
8, 4200, Note_on_c, 5, 76, 80
8, 4229, Note_on_c, 5, 76, 0
8, 4230, Note_on_c, 5, 74, 80
8, 4259, Note_on_c, 5, 74, 0
8, 4260, Note_on_c, 5, 73, 80
8, 4289, Note_on_c, 5, 73, 0
8, 4290, Note_on_c, 5, 71, 80
8, 4319, Note_on_c, 5, 71, 0
8, 4320, Note_on_c, 5, 69, 90
8, 4349, Note_on_c, 5, 69, 0
8, 4380, Note_on_c, 5, 73, 80
8, 4409, Note_on_c, 5, 73, 0
8, 4410, Note_on_c, 5, 71, 80
8, 4439, Note_on_c, 5, 71, 0
8, 4440, Note_on_c, 5, 69, 80
8, 4469, Note_on_c, 5, 69, 0
8, 4470, Note_on_c, 5, 67, 80
8, 4499, Note_on_c, 5, 67, 0
8, 4500, Note_on_c, 5, 66, 90
8, 4529, Note_on_c, 5, 66, 0
8, 4560, Note_on_c, 5, 69, 80
8, 4589, Note_on_c, 5, 69, 0
8, 4590, Note_on_c, 5, 67, 80
8, 4619, Note_on_c, 5, 67, 0
8, 4620, Note_on_c, 5, 66, 80
8, 4649, Note_on_c, 5, 66, 0
8, 4650, Note_on_c, 5, 64, 80
8, 4679, Note_on_c, 5, 64, 0
8, 4680, Note_on_c, 5, 63, 90
8, 4709, Note_on_c, 5, 63, 0
8, 4740, Note_on_c, 5, 66, 80
8, 4769, Note_on_c, 5, 66, 0
8, 4770, Note_on_c, 5, 64, 80
8, 4799, Note_on_c, 5, 64, 0
8, 4800, Note_on_c, 5, 63, 80
8, 4829, Note_on_c, 5, 63, 0
8, 4830, Note_on_c, 5, 61, 80
8, 4859, Note_on_c, 5, 61, 0
8, 4860, Note_on_c, 5, 59, 90
8, 4889, Note_on_c, 5, 59, 0
8, 4920, Note_on_c, 5, 83, 80
8, 4949, Note_on_c, 5, 83, 0
8, 4950, Note_on_c, 5, 81, 80
8, 4979, Note_on_c, 5, 81, 0
8, 4980, Note_on_c, 5, 79, 80
8, 5009, Note_on_c, 5, 79, 0
8, 5010, Note_on_c, 5, 78, 80
8, 5039, Note_on_c, 5, 78, 0
8, 5040, Note_on_c, 5, 81, 90
8, 5069, Note_on_c, 5, 81, 0
8, 5070, Note_on_c, 5, 79, 90
8, 5099, Note_on_c, 5, 79, 0
8, 5100, Note_on_c, 5, 78, 80
8, 5129, Note_on_c, 5, 78, 0
8, 5130, Note_on_c, 5, 76, 80
8, 5159, Note_on_c, 5, 76, 0
8, 5280, Note_on_c, 5, 67, 80
8, 5309, Note_on_c, 5, 67, 0
8, 5310, Note_on_c, 5, 66, 80
8, 5339, Note_on_c, 5, 66, 0
8, 5340, Note_on_c, 5, 64, 80
8, 5369, Note_on_c, 5, 64, 0
8, 5370, Note_on_c, 5, 62, 80
8, 5399, Note_on_c, 5, 62, 0
8, 5400, Note_on_c, 5, 61, 90
8, 5429, Note_on_c, 5, 61, 0
8, 5460, Note_on_c, 5, 64, 80
8, 5489, Note_on_c, 5, 64, 0
8, 5490, Note_on_c, 5, 62, 80
8, 5519, Note_on_c, 5, 62, 0
8, 5520, Note_on_c, 5, 61, 80
8, 5549, Note_on_c, 5, 61, 0
8, 5550, Note_on_c, 5, 59, 80
8, 5579, Note_on_c, 5, 59, 0
8, 5580, Note_on_c, 5, 57, 90
8, 5609, Note_on_c, 5, 57, 0
8, 5640, Note_on_c, 5, 78, 80
8, 5669, Note_on_c, 5, 78, 0
8, 5670, Note_on_c, 5, 76, 80
8, 5699, Note_on_c, 5, 76, 0
8, 5700, Note_on_c, 5, 74, 80
8, 5729, Note_on_c, 5, 74, 0
8, 5730, Note_on_c, 5, 73, 80
8, 5759, Note_on_c, 5, 73, 0
8, 5760, Note_on_c, 5, 79, 90
8, 5789, Note_on_c, 5, 79, 0
8, 5790, Note_on_c, 5, 78, 90
8, 5819, Note_on_c, 5, 78, 0
8, 5820, Note_on_c, 5, 76, 80
8, 5849, Note_on_c, 5, 76, 0
8, 5850, Note_on_c, 5, 74, 80
8, 5879, Note_on_c, 5, 74, 0
8, 5880, Note_on_c, 5, 81, 80
8, 5909, Note_on_c, 5, 81, 0
8, 5910, Note_on_c, 5, 69, 80
8, 5939, Note_on_c, 5, 69, 0
8, 5940, Note_on_c, 5, 71, 90
8, 5969, Note_on_c, 5, 71, 0
8, 5970, Note_on_c, 5, 73, 90
8, 5999, Note_on_c, 5, 73, 0
8, 6000, Note_on_c, 5, 74, 80
8, 6029, Note_on_c, 5, 74, 0
8, 6030, Note_on_c, 5, 76, 80
8, 6059, Note_on_c, 5, 76, 0
8, 6060, Note_on_c, 5, 73, 80
8, 6089, Note_on_c, 5, 73, 0
8, 6090, Note_on_c, 5, 74, 80
8, 6119, Note_on_c, 5, 74, 0
8, 6120, Note_on_c, 5, 69, 90
8, 6149, Note_on_c, 5, 69, 0
8, 6150, Note_on_c, 5, 73, 90
8, 6179, Note_on_c, 5, 73, 0
8, 6180, Note_on_c, 5, 74, 80
8, 6209, Note_on_c, 5, 74, 0
8, 6210, Note_on_c, 5, 76, 80
8, 6239, Note_on_c, 5, 76, 0
8, 6240, Note_on_c, 5, 73, 80
8, 6269, Note_on_c, 5, 73, 0
8, 6270, Note_on_c, 5, 74, 80
8, 6299, Note_on_c, 5, 74, 0
8, 6300, Note_on_c, 5, 67, 90
8, 6329, Note_on_c, 5, 67, 0
8, 6330, Note_on_c, 5, 73, 90
8, 6359, Note_on_c, 5, 73, 0
8, 6360, Note_on_c, 5, 74, 80
8, 6389, Note_on_c, 5, 74, 0
8, 6390, Note_on_c, 5, 76, 80
8, 6419, Note_on_c, 5, 76, 0
8, 6420, Note_on_c, 5, 73, 80
8, 6449, Note_on_c, 5, 73, 0
8, 6450, Note_on_c, 5, 74, 80
8, 6479, Note_on_c, 5, 74, 0
8, 6480, Note_on_c, 5, 67, 90
8, 6509, Note_on_c, 5, 67, 0
8, 6510, Note_on_c, 5, 66, 90
8, 6539, Note_on_c, 5, 66, 0
8, 6540, Note_on_c, 5, 64, 80
8, 6569, Note_on_c, 5, 64, 0
8, 6570, Note_on_c, 5, 62, 80
8, 6599, Note_on_c, 5, 62, 0
8, 6600, Note_on_c, 5, 69, 80
8, 6629, Note_on_c, 5, 69, 0
8, 6630, Note_on_c, 5, 66, 80
8, 6659, Note_on_c, 5, 66, 0
8, 6660, Note_on_c, 5, 72, 90
8, 6689, Note_on_c, 5, 72, 0
8, 6690, Note_on_c, 5, 71, 90
8, 6719, Note_on_c, 5, 71, 0
8, 6720, Note_on_c, 5, 69, 80
8, 6749, Note_on_c, 5, 69, 0
8, 6750, Note_on_c, 5, 68, 80
8, 6779, Note_on_c, 5, 68, 0
8, 6780, Note_on_c, 5, 74, 80
8, 6809, Note_on_c, 5, 74, 0
8, 6810, Note_on_c, 5, 71, 80
8, 6839, Note_on_c, 5, 71, 0
8, 6840, Note_on_c, 5, 74, 90
8, 6869, Note_on_c, 5, 74, 0
8, 6870, Note_on_c, 5, 73, 90
8, 6899, Note_on_c, 5, 73, 0
8, 6900, Note_on_c, 5, 71, 80
8, 6929, Note_on_c, 5, 71, 0
8, 6930, Note_on_c, 5, 69, 80
8, 6959, Note_on_c, 5, 69, 0
8, 6960, Note_on_c, 5, 81, 80
8, 6989, Note_on_c, 5, 81, 0
8, 6990, Note_on_c, 5, 76, 80
8, 7019, Note_on_c, 5, 76, 0
8, 7020, Note_on_c, 5, 74, 90
8, 7049, Note_on_c, 5, 74, 0
8, 7050, Note_on_c, 5, 73, 90
8, 7079, Note_on_c, 5, 73, 0
8, 7080, Note_on_c, 5, 71, 80
8, 7109, Note_on_c, 5, 71, 0
8, 7110, Note_on_c, 5, 70, 80
8, 7139, Note_on_c, 5, 70, 0
8, 7140, Note_on_c, 5, 76, 80
8, 7169, Note_on_c, 5, 76, 0
8, 7170, Note_on_c, 5, 73, 80
8, 7199, Note_on_c, 5, 73, 0
8, 7200, Note_on_c, 5, 76, 90
8, 7229, Note_on_c, 5, 76, 0
8, 7230, Note_on_c, 5, 74, 90
8, 7259, Note_on_c, 5, 74, 0
8, 7260, Note_on_c, 5, 73, 80
8, 7289, Note_on_c, 5, 73, 0
8, 7290, Note_on_c, 5, 71, 80
8, 7319, Note_on_c, 5, 71, 0
8, 7320, Note_on_c, 5, 83, 80
8, 7349, Note_on_c, 5, 83, 0
8, 7350, Note_on_c, 5, 78, 80
8, 7379, Note_on_c, 5, 78, 0
8, 7380, Note_on_c, 5, 76, 90
8, 7409, Note_on_c, 5, 76, 0
8, 7410, Note_on_c, 5, 74, 90
8, 7439, Note_on_c, 5, 74, 0
8, 7440, Note_on_c, 5, 73, 80
8, 7469, Note_on_c, 5, 73, 0
8, 7470, Note_on_c, 5, 74, 80
8, 7499, Note_on_c, 5, 74, 0
8, 7500, Note_on_c, 5, 79, 80
8, 7529, Note_on_c, 5, 79, 0
8, 7530, Note_on_c, 5, 74, 80
8, 7559, Note_on_c, 5, 74, 0
8, 7560, Note_on_c, 5, 83, 90
8, 7589, Note_on_c, 5, 83, 0
8, 7590, Note_on_c, 5, 74, 90
8, 7619, Note_on_c, 5, 74, 0
8, 7620, Note_on_c, 5, 73, 80
8, 7649, Note_on_c, 5, 73, 0
8, 7650, Note_on_c, 5, 74, 80
8, 7679, Note_on_c, 5, 74, 0
8, 7680, Note_on_c, 5, 80, 80
8, 7709, Note_on_c, 5, 80, 0
8, 7710, Note_on_c, 5, 74, 80
8, 7739, Note_on_c, 5, 74, 0
8, 7740, Note_on_c, 5, 81, 90
8, 7769, Note_on_c, 5, 81, 0
8, 7770, Note_on_c, 5, 74, 90
8, 7799, Note_on_c, 5, 74, 0
8, 7800, Note_on_c, 5, 83, 80
8, 7829, Note_on_c, 5, 83, 0
8, 7830, Note_on_c, 5, 74, 80
8, 7859, Note_on_c, 5, 74, 0
8, 7860, Note_on_c, 5, 85, 80
8, 7889, Note_on_c, 5, 85, 0
8, 7890, Note_on_c, 5, 74, 80
8, 7919, Note_on_c, 5, 74, 0
8, 7920, Note_on_c, 5, 86, 65
8, 7979, Note_on_c, 5, 86, 0
8, 7980, Note_on_c, 5, 83, 65
8, 8039, Note_on_c, 5, 83, 0
8, 8040, Note_on_c, 5, 80, 65
8, 8159, Note_on_c, 5, 80, 0
8, 8160, Note_on_c, 5, 77, 65
8, 8219, Note_on_c, 5, 77, 0
8, 8220, Note_on_c, 5, 74, 65
8, 8309, Note_on_c, 5, 74, 0
8, 8310, Note_on_c, 5, 77, 65
8, 8339, Note_on_c, 5, 77, 0
8, 8340, Note_on_c, 5, 76, 65
8, 8369, Note_on_c, 5, 76, 0
8, 8370, Note_on_c, 5, 73, 65
8, 8399, Note_on_c, 5, 73, 0
8, 8400, Note_on_c, 5, 74, 80
8, 8519, Note_on_c, 5, 74, 0
8, 8520, Note_on_c, 5, 81, 80
8, 8550, Note_on_c, 5, 81, 0
8, 8550, Note_on_c, 5, 79, 80
8, 8580, Note_on_c, 5, 79, 0
8, 8580, Note_on_c, 5, 78, 80
8, 8610, Note_on_c, 5, 78, 0
8, 8610, Note_on_c, 5, 76, 80
8, 8640, Note_on_c, 5, 76, 0
8, 8640, Note_on_c, 5, 74, 90
8, 8699, Note_on_c, 5, 74, 0
8, 8700, Note_on_c, 5, 62, 80
8, 8729, Note_on_c, 5, 62, 0
8, 8730, Note_on_c, 5, 64, 80
8, 8759, Note_on_c, 5, 64, 0
8, 8760, Note_on_c, 5, 66, 80
8, 8789, Note_on_c, 5, 66, 0
8, 8790, Note_on_c, 5, 67, 80
8, 8819, Note_on_c, 5, 67, 0
8, 8820, Note_on_c, 5, 69, 90
8, 8849, Note_on_c, 5, 69, 0
8, 8850, Note_on_c, 5, 67, 90
8, 8879, Note_on_c, 5, 67, 0
8, 8880, Note_on_c, 5, 71, 80
8, 8909, Note_on_c, 5, 71, 0
8, 8910, Note_on_c, 5, 69, 80
8, 8939, Note_on_c, 5, 69, 0
8, 8940, Note_on_c, 5, 67, 80
8, 8969, Note_on_c, 5, 67, 0
8, 8970, Note_on_c, 5, 66, 80
8, 8999, Note_on_c, 5, 66, 0
8, 9000, Note_on_c, 5, 67, 90
8, 9029, Note_on_c, 5, 67, 0
8, 9030, Note_on_c, 5, 66, 90
8, 9059, Note_on_c, 5, 66, 0
8, 9060, Note_on_c, 5, 69, 80
8, 9089, Note_on_c, 5, 69, 0
8, 9090, Note_on_c, 5, 67, 80
8, 9119, Note_on_c, 5, 67, 0
8, 9120, Note_on_c, 5, 66, 80
8, 9149, Note_on_c, 5, 66, 0
8, 9150, Note_on_c, 5, 64, 80
8, 9179, Note_on_c, 5, 64, 0
8, 9180, Note_on_c, 5, 62, 90
8, 9227, Note_on_c, 5, 62, 0
8, 9240, Note_on_c, 5, 74, 80
8, 9287, Note_on_c, 5, 74, 0
8, 9300, Note_on_c, 5, 73, 80
8, 9347, Note_on_c, 5, 73, 0
8, 9360, Note_on_c, 5, 74, 90
8, 9407, Note_on_c, 5, 74, 0
8, 9420, Note_on_c, 5, 69, 80
8, 9449, Note_on_c, 5, 69, 0
8, 9450, Note_on_c, 5, 68, 80
8, 9479, Note_on_c, 5, 68, 0
8, 9480, Note_on_c, 5, 69, 80
8, 9509, Note_on_c, 5, 69, 0
8, 9510, Note_on_c, 5, 68, 80
8, 9539, Note_on_c, 5, 68, 0
8, 9540, Note_on_c, 5, 69, 90
8, 9587, Note_on_c, 5, 69, 0
8, 9600, Note_on_c, 5, 71, 80
8, 9647, Note_on_c, 5, 71, 0
8, 9660, Note_on_c, 5, 73, 80
8, 9707, Note_on_c, 5, 73, 0
8, 9720, Note_on_c, 5, 71, 90
8, 9767, Note_on_c, 5, 71, 0
8, 9780, Note_on_c, 5, 64, 80
8, 9827, Note_on_c, 5, 64, 0
8, 9840, Note_on_c, 5, 71, 80
8, 9887, Note_on_c, 5, 71, 0
8, 9900, Note_on_c, 5, 69, 90
8, 9947, Note_on_c, 5, 69, 0
8, 9960, Note_on_c, 5, 78, 80
8, 10007, Note_on_c, 5, 78, 0
8, 10020, Note_on_c, 5, 68, 80
8, 10067, Note_on_c, 5, 68, 0
8, 10080, Note_on_c, 5, 69, 90
8, 10127, Note_on_c, 5, 69, 0
8, 10140, Note_on_c, 5, 67, 80
8, 10169, Note_on_c, 5, 67, 0
8, 10170, Note_on_c, 5, 66, 80
8, 10199, Note_on_c, 5, 66, 0
8, 10200, Note_on_c, 5, 64, 80
8, 10229, Note_on_c, 5, 64, 0
8, 10230, Note_on_c, 5, 66, 80
8, 10259, Note_on_c, 5, 66, 0
8, 10260, Note_on_c, 5, 62, 90
8, 10307, Note_on_c, 5, 62, 0
8, 10320, Note_on_c, 5, 64, 80
8, 10367, Note_on_c, 5, 64, 0
8, 10380, Note_on_c, 5, 66, 80
8, 10427, Note_on_c, 5, 66, 0
8, 10440, Note_on_c, 5, 64, 90
8, 10487, Note_on_c, 5, 64, 0
8, 10500, Note_on_c, 5, 78, 80
8, 10514, Note_on_c, 5, 78, 0
8, 10515, Note_on_c, 5, 76, 80
8, 10529, Note_on_c, 5, 76, 0
8, 10530, Note_on_c, 5, 78, 80
8, 10544, Note_on_c, 5, 78, 0
8, 10545, Note_on_c, 5, 76, 80
8, 10559, Note_on_c, 5, 76, 0
8, 10560, Note_on_c, 5, 78, 80
8, 10574, Note_on_c, 5, 78, 0
8, 10575, Note_on_c, 5, 76, 80
8, 10589, Note_on_c, 5, 76, 0
8, 10590, Note_on_c, 5, 74, 80
8, 10604, Note_on_c, 5, 74, 0
8, 10605, Note_on_c, 5, 76, 80
8, 10619, Note_on_c, 5, 76, 0
8, 10620, Note_on_c, 5, 78, 90
8, 10649, Note_on_c, 5, 78, 0
8, 10650, Note_on_c, 5, 74, 90
8, 10679, Note_on_c, 5, 74, 0
8, 10680, Note_on_c, 5, 73, 80
8, 10709, Note_on_c, 5, 73, 0
8, 10710, Note_on_c, 5, 71, 80
8, 10739, Note_on_c, 5, 71, 0
8, 10740, Note_on_c, 5, 69, 80
8, 10859, Note_on_c, 5, 69, 0
8, 10860, Note_on_c, 5, 66, 80
8, 10919, Note_on_c, 5, 66, 0
8, 10920, Note_on_c, 5, 62, 80
8, 10979, Note_on_c, 5, 62, 0
8, 10980, Note_on_c, 5, 57, 90
8, 11039, Note_on_c, 5, 57, 0
8, 11040, Note_on_c, 5, 69, 80
8, 11099, Note_on_c, 5, 69, 0
8, 11100, Note_on_c, 5, 73, 80
8, 11159, Note_on_c, 5, 73, 0
8, 11160, Note_on_c, 5, 71, 90
8, 11219, Note_on_c, 5, 71, 0
8, 11220, Note_on_c, 5, 76, 80
8, 11249, Note_on_c, 5, 76, 0
8, 11250, Note_on_c, 5, 74, 80
8, 11279, Note_on_c, 5, 74, 0
8, 11280, Note_on_c, 5, 83, 80
8, 11309, Note_on_c, 5, 83, 0
8, 11310, Note_on_c, 5, 74, 80
8, 11339, Note_on_c, 5, 74, 0
8, 11340, Note_on_c, 5, 73, 90
8, 11369, Note_on_c, 5, 73, 0
8, 11400, Note_on_c, 5, 78, 80
8, 11429, Note_on_c, 5, 78, 0
8, 11460, Note_on_c, 5, 68, 80
8, 11489, Note_on_c, 5, 68, 0
8, 11520, Note_on_c, 5, 69, 90
8, 11579, Note_on_c, 5, 69, 0
8, 11580, Note_on_c, 5, 64, 80
8, 11639, Note_on_c, 5, 64, 0
8, 11640, Note_on_c, 5, 69, 80
8, 11699, Note_on_c, 5, 69, 0
8, 11700, Note_on_c, 5, 74, 90
8, 11819, Note_on_c, 5, 74, 0
8, 11820, Note_on_c, 5, 69, 80
8, 11879, Note_on_c, 5, 69, 0
8, 11880, Note_on_c, 5, 76, 90
8, 11999, Note_on_c, 5, 76, 0
8, 12000, Note_on_c, 5, 69, 80
8, 12059, Note_on_c, 5, 69, 0
8, 12060, Note_on_c, 5, 78, 90
8, 12119, Note_on_c, 5, 78, 0
8, 12120, Note_on_c, 5, 76, 80
8, 12149, Note_on_c, 5, 76, 0
8, 12150, Note_on_c, 5, 78, 80
8, 12179, Note_on_c, 5, 78, 0
8, 12180, Note_on_c, 5, 79, 80
8, 12209, Note_on_c, 5, 79, 0
8, 12210, Note_on_c, 5, 76, 80
8, 12239, Note_on_c, 5, 76, 0
8, 12240, Note_on_c, 5, 79, 90
8, 12269, Note_on_c, 5, 79, 0
8, 12270, Note_on_c, 5, 78, 90
8, 12299, Note_on_c, 5, 78, 0
8, 12300, Note_on_c, 5, 76, 80
8, 12329, Note_on_c, 5, 76, 0
8, 12330, Note_on_c, 5, 74, 80
8, 12359, Note_on_c, 5, 74, 0
8, 13800, Note_on_c, 5, 69, 80
8, 13859, Note_on_c, 5, 69, 0
8, 13860, Note_on_c, 5, 74, 90
8, 13979, Note_on_c, 5, 74, 0
8, 13980, Note_on_c, 5, 69, 80
8, 14039, Note_on_c, 5, 69, 0
8, 14040, Note_on_c, 5, 76, 90
8, 14159, Note_on_c, 5, 76, 0
8, 14160, Note_on_c, 5, 69, 80
8, 14219, Note_on_c, 5, 69, 0
8, 14220, Note_on_c, 5, 78, 90
8, 14279, Note_on_c, 5, 78, 0
8, 14280, Note_on_c, 5, 76, 80
8, 14309, Note_on_c, 5, 76, 0
8, 14310, Note_on_c, 5, 78, 80
8, 14339, Note_on_c, 5, 78, 0
8, 14340, Note_on_c, 5, 79, 80
8, 14369, Note_on_c, 5, 79, 0
8, 14370, Note_on_c, 5, 76, 80
8, 14399, Note_on_c, 5, 76, 0
8, 14400, Note_on_c, 5, 79, 90
8, 14429, Note_on_c, 5, 79, 0
8, 14430, Note_on_c, 5, 78, 90
8, 14459, Note_on_c, 5, 78, 0
8, 14460, Note_on_c, 5, 76, 80
8, 14489, Note_on_c, 5, 76, 0
8, 14490, Note_on_c, 5, 74, 80
8, 14519, Note_on_c, 5, 74, 0
8, 14520, Note_on_c, 5, 78, 80
8, 14549, Note_on_c, 5, 78, 0
8, 14550, Note_on_c, 5, 74, 80
8, 14579, Note_on_c, 5, 74, 0
8, 14580, Note_on_c, 5, 78, 90
8, 14609, Note_on_c, 5, 78, 0
8, 14610, Note_on_c, 5, 76, 90
8, 14639, Note_on_c, 5, 76, 0
8, 14640, Note_on_c, 5, 74, 80
8, 14669, Note_on_c, 5, 74, 0
8, 14670, Note_on_c, 5, 73, 80
8, 14699, Note_on_c, 5, 73, 0
8, 14700, Note_on_c, 5, 76, 80
8, 14729, Note_on_c, 5, 76, 0
8, 14730, Note_on_c, 5, 73, 80
8, 14759, Note_on_c, 5, 73, 0
8, 14760, Note_on_c, 5, 76, 90
8, 14789, Note_on_c, 5, 76, 0
8, 14790, Note_on_c, 5, 74, 90
8, 14819, Note_on_c, 5, 74, 0
8, 14820, Note_on_c, 5, 73, 80
8, 14849, Note_on_c, 5, 73, 0
8, 14850, Note_on_c, 5, 71, 80
8, 14879, Note_on_c, 5, 71, 0
8, 14880, Note_on_c, 5, 74, 80
8, 14909, Note_on_c, 5, 74, 0
8, 14910, Note_on_c, 5, 71, 80
8, 14939, Note_on_c, 5, 71, 0
8, 14940, Note_on_c, 5, 76, 90
8, 14969, Note_on_c, 5, 76, 0
8, 15000, Note_on_c, 5, 74, 80
8, 15029, Note_on_c, 5, 74, 0
8, 15030, Note_on_c, 5, 73, 80
8, 15059, Note_on_c, 5, 73, 0
8, 15060, Note_on_c, 5, 71, 80
8, 15089, Note_on_c, 5, 71, 0
8, 15090, Note_on_c, 5, 73, 80
8, 15119, Note_on_c, 5, 73, 0
8, 15120, Note_on_c, 5, 69, 90
8, 15239, Note_on_c, 5, 69, 0
8, 15240, Note_on_c, 5, 69, 80
8, 15299, Note_on_c, 5, 69, 0
8, 15300, Note_on_c, 5, 74, 90
8, 15419, Note_on_c, 5, 74, 0
8, 15420, Note_on_c, 5, 69, 80
8, 15479, Note_on_c, 5, 69, 0
8, 15480, Note_on_c, 5, 76, 90
8, 15599, Note_on_c, 5, 76, 0
8, 15600, Note_on_c, 5, 69, 80
8, 15659, Note_on_c, 5, 69, 0
8, 15660, Note_on_c, 5, 78, 90
8, 15719, Note_on_c, 5, 78, 0
8, 15720, Note_on_c, 5, 76, 80
8, 15749, Note_on_c, 5, 76, 0
8, 15750, Note_on_c, 5, 78, 80
8, 15779, Note_on_c, 5, 78, 0
8, 15780, Note_on_c, 5, 79, 80
8, 15809, Note_on_c, 5, 79, 0
8, 15810, Note_on_c, 5, 76, 80
8, 15839, Note_on_c, 5, 76, 0
8, 15840, Note_on_c, 5, 79, 90
8, 15869, Note_on_c, 5, 79, 0
8, 15870, Note_on_c, 5, 78, 90
8, 15899, Note_on_c, 5, 78, 0
8, 15900, Note_on_c, 5, 76, 80
8, 15929, Note_on_c, 5, 76, 0
8, 15930, Note_on_c, 5, 74, 80
8, 15959, Note_on_c, 5, 74, 0
8, 15960, Note_on_c, 5, 76, 80
8, 16019, Note_on_c, 5, 76, 0
8, 16020, Note_on_c, 5, 74, 90
8, 16079, Note_on_c, 5, 74, 0
8, 16140, Note_on_c, 5, 76, 80
8, 16199, Note_on_c, 5, 76, 0
8, 16200, Note_on_c, 5, 76, 90
8, 16259, Note_on_c, 5, 76, 0
8, 16320, Note_on_c, 5, 78, 80
8, 16379, Note_on_c, 5, 78, 0
8, 16380, Note_on_c, 5, 79, 90
8, 16439, Note_on_c, 5, 79, 0
8, 16500, Note_on_c, 5, 81, 80
8, 16559, Note_on_c, 5, 81, 0
8, 16560, Note_on_c, 5, 81, 90
8, 16619, Note_on_c, 5, 81, 0
8, 16680, Note_on_c, 5, 83, 80
8, 16739, Note_on_c, 5, 83, 0
8, 16740, Note_on_c, 5, 81, 90
8, 16799, Note_on_c, 5, 81, 0
8, 16860, Note_on_c, 5, 78, 80
8, 16919, Note_on_c, 5, 78, 0
8, 16920, Note_on_c, 5, 76, 90
8, 16979, Note_on_c, 5, 76, 0
8, 17040, Note_on_c, 5, 76, 80
8, 17099, Note_on_c, 5, 76, 0
8, 17100, Note_on_c, 5, 74, 90
8, 17159, Note_on_c, 5, 74, 0
8, 17220, Note_on_c, 5, 76, 80
8, 17279, Note_on_c, 5, 76, 0
8, 17280, Note_on_c, 5, 76, 90
8, 17339, Note_on_c, 5, 76, 0
8, 17400, Note_on_c, 5, 76, 80
8, 17459, Note_on_c, 5, 76, 0
8, 17460, Note_on_c, 5, 76, 90
8, 17519, Note_on_c, 5, 76, 0
8, 17580, Note_on_c, 5, 76, 80
8, 17639, Note_on_c, 5, 76, 0
8, 17640, Note_on_c, 5, 76, 90
8, 17699, Note_on_c, 5, 76, 0
8, 17760, Note_on_c, 5, 76, 80
8, 17819, Note_on_c, 5, 76, 0
8, 17820, Note_on_c, 5, 74, 90
8, 17879, Note_on_c, 5, 74, 0
8, 17940, Note_on_c, 5, 81, 80
8, 17999, Note_on_c, 5, 81, 0
8, 18000, Note_on_c, 5, 81, 90
8, 18059, Note_on_c, 5, 81, 0
8, 18120, Note_on_c, 5, 81, 80
8, 18179, Note_on_c, 5, 81, 0
8, 18180, Note_on_c, 5, 83, 90
8, 18239, Note_on_c, 5, 83, 0
8, 18300, Note_on_c, 5, 83, 80
8, 18359, Note_on_c, 5, 83, 0
8, 18360, Note_on_c, 5, 81, 90
8, 18419, Note_on_c, 5, 81, 0
8, 18480, Note_on_c, 5, 83, 80
8, 18539, Note_on_c, 5, 83, 0
8, 18540, Note_on_c, 5, 83, 90
8, 18599, Note_on_c, 5, 83, 0
8, 18660, Note_on_c, 5, 79, 80
8, 18719, Note_on_c, 5, 79, 0
8, 18720, Note_on_c, 5, 81, 90
8, 18779, Note_on_c, 5, 81, 0
8, 18840, Note_on_c, 5, 76, 80
8, 18899, Note_on_c, 5, 76, 0
8, 18900, Note_on_c, 5, 81, 90
8, 18959, Note_on_c, 5, 81, 0
8, 19020, Note_on_c, 5, 74, 80
8, 19079, Note_on_c, 5, 74, 0
8, 19080, Note_on_c, 5, 76, 90
8, 19139, Note_on_c, 5, 76, 0
8, 19200, Note_on_c, 5, 78, 80
8, 19259, Note_on_c, 5, 78, 0
8, 19260, Note_on_c, 5, 78, 90
8, 19319, Note_on_c, 5, 78, 0
8, 19380, Note_on_c, 5, 78, 80
8, 19439, Note_on_c, 5, 78, 0
8, 19440, Note_on_c, 5, 81, 90
8, 19499, Note_on_c, 5, 81, 0
8, 19560, Note_on_c, 5, 76, 80
8, 19619, Note_on_c, 5, 76, 0
8, 19620, Note_on_c, 5, 78, 90
8, 19649, Note_on_c, 5, 78, 0
8, 19680, Note_on_c, 5, 83, 80
8, 19709, Note_on_c, 5, 83, 0
8, 19710, Note_on_c, 5, 81, 80
8, 19739, Note_on_c, 5, 81, 0
8, 19740, Note_on_c, 5, 79, 80
8, 19769, Note_on_c, 5, 79, 0
8, 19770, Note_on_c, 5, 78, 80
8, 19799, Note_on_c, 5, 78, 0
8, 19800, Note_on_c, 5, 76, 90
8, 19829, Note_on_c, 5, 76, 0
8, 19860, Note_on_c, 5, 81, 80
8, 19889, Note_on_c, 5, 81, 0
8, 19890, Note_on_c, 5, 79, 80
8, 19919, Note_on_c, 5, 79, 0
8, 19920, Note_on_c, 5, 78, 80
8, 19949, Note_on_c, 5, 78, 0
8, 19950, Note_on_c, 5, 76, 80
8, 19979, Note_on_c, 5, 76, 0
8, 19980, Note_on_c, 5, 74, 90
8, 20039, Note_on_c, 5, 74, 0
8, 20040, Note_on_c, 5, 79, 80
8, 20099, Note_on_c, 5, 79, 0
8, 20100, Note_on_c, 5, 78, 80
8, 20159, Note_on_c, 5, 78, 0
8, 20160, Note_on_c, 5, 78, 90
8, 20189, Note_on_c, 5, 78, 0
8, 20190, Note_on_c, 5, 76, 90
8, 20249, Note_on_c, 5, 76, 0
8, 20250, Note_on_c, 5, 74, 80
8, 20279, Note_on_c, 5, 74, 0
8, 20280, Note_on_c, 5, 73, 80
8, 20309, Note_on_c, 5, 73, 0
8, 20310, Note_on_c, 5, 71, 80
8, 20339, Note_on_c, 5, 71, 0
8, 20340, Note_on_c, 5, 69, 90
8, 20399, Note_on_c, 5, 69, 0
8, 20400, Note_on_c, 5, 74, 80
8, 20459, Note_on_c, 5, 74, 0
8, 20460, Note_on_c, 5, 73, 80
8, 20519, Note_on_c, 5, 73, 0
8, 20520, Note_on_c, 5, 78, 90
8, 20579, Note_on_c, 5, 78, 0
8, 20580, Note_on_c, 5, 76, 80
8, 20639, Note_on_c, 5, 76, 0
8, 20640, Note_on_c, 5, 74, 80
8, 20699, Note_on_c, 5, 74, 0
8, 20700, Note_on_c, 5, 73, 90
8, 20759, Note_on_c, 5, 73, 0
8, 20760, Note_on_c, 5, 74, 80
8, 20819, Note_on_c, 5, 74, 0
8, 20820, Note_on_c, 5, 71, 80
8, 20879, Note_on_c, 5, 71, 0
8, 20880, Note_on_c, 5, 69, 70
8, 20939, Note_on_c, 5, 69, 0
8, 20940, Note_on_c, 5, 72, 70
8, 20999, Note_on_c, 5, 72, 0
8, 21000, Note_on_c, 5, 75, 70
8, 21119, Note_on_c, 5, 75, 0
8, 21120, Note_on_c, 5, 78, 70
8, 21179, Note_on_c, 5, 78, 0
8, 21180, Note_on_c, 5, 81, 70
8, 21269, Note_on_c, 5, 81, 0
8, 21270, Note_on_c, 5, 84, 70
8, 21299, Note_on_c, 5, 84, 0
8, 21300, Note_on_c, 5, 83, 70
8, 21329, Note_on_c, 5, 83, 0
8, 21330, Note_on_c, 5, 80, 70
8, 21359, Note_on_c, 5, 80, 0
8, 21360, Note_on_c, 5, 81, 70
8, 21479, Note_on_c, 5, 81, 0
8, 21480, Note_on_c, 5, 76, 90
8, 21509, Note_on_c, 5, 76, 0
8, 21510, Note_on_c, 5, 74, 90
8, 21539, Note_on_c, 5, 74, 0
8, 21540, Note_on_c, 5, 73, 90
8, 21569, Note_on_c, 5, 73, 0
8, 21570, Note_on_c, 5, 71, 90
8, 21599, Note_on_c, 5, 71, 0
8, 21600, Note_on_c, 5, 69, 90
8, 21719, Note_on_c, 5, 69, 0
8, 21720, Note_on_c, 5, 76, 80
8, 21768, Note_on_c, 5, 76, 0
8, 21780, Note_on_c, 5, 75, 90
8, 21828, Note_on_c, 5, 75, 0
8, 21900, Note_on_c, 5, 78, 80
8, 21948, Note_on_c, 5, 78, 0
8, 21960, Note_on_c, 5, 78, 90
8, 22008, Note_on_c, 5, 78, 0
8, 22080, Note_on_c, 5, 71, 80
8, 22128, Note_on_c, 5, 71, 0
8, 22140, Note_on_c, 5, 78, 90
8, 22188, Note_on_c, 5, 78, 0
8, 22440, Note_on_c, 5, 76, 80
8, 22488, Note_on_c, 5, 76, 0
8, 22500, Note_on_c, 5, 76, 90
8, 22548, Note_on_c, 5, 76, 0
8, 22620, Note_on_c, 5, 76, 80
8, 22668, Note_on_c, 5, 76, 0
8, 22680, Note_on_c, 5, 79, 90
8, 22728, Note_on_c, 5, 79, 0
8, 22800, Note_on_c, 5, 78, 80
8, 22848, Note_on_c, 5, 78, 0
8, 22860, Note_on_c, 5, 85, 90
8, 22908, Note_on_c, 5, 85, 0
8, 23160, Note_on_c, 5, 71, 80
8, 23208, Note_on_c, 5, 71, 0
8, 23220, Note_on_c, 5, 71, 90
8, 23268, Note_on_c, 5, 71, 0
8, 23340, Note_on_c, 5, 71, 80
8, 23388, Note_on_c, 5, 71, 0
8, 23400, Note_on_c, 5, 73, 90
8, 23448, Note_on_c, 5, 73, 0
8, 23520, Note_on_c, 5, 73, 80
8, 23568, Note_on_c, 5, 73, 0
8, 23580, Note_on_c, 5, 73, 90
8, 23628, Note_on_c, 5, 73, 0
8, 23880, Note_on_c, 5, 73, 80
8, 23928, Note_on_c, 5, 73, 0
8, 23940, Note_on_c, 5, 73, 90
8, 23988, Note_on_c, 5, 73, 0
8, 24060, Note_on_c, 5, 78, 80
8, 24108, Note_on_c, 5, 78, 0
8, 24120, Note_on_c, 5, 81, 90
8, 24168, Note_on_c, 5, 81, 0
8, 24240, Note_on_c, 5, 81, 80
8, 24288, Note_on_c, 5, 81, 0
8, 24300, Note_on_c, 5, 75, 90
8, 24348, Note_on_c, 5, 75, 0
8, 24600, Note_on_c, 5, 76, 80
8, 24648, Note_on_c, 5, 76, 0
8, 24660, Note_on_c, 5, 76, 90
8, 24708, Note_on_c, 5, 76, 0
8, 24780, Note_on_c, 5, 76, 80
8, 24828, Note_on_c, 5, 76, 0
8, 24840, Note_on_c, 5, 73, 90
8, 24888, Note_on_c, 5, 73, 0
8, 24960, Note_on_c, 5, 73, 80
8, 25008, Note_on_c, 5, 73, 0
8, 25020, Note_on_c, 5, 85, 90
8, 25068, Note_on_c, 5, 85, 0
8, 25320, Note_on_c, 5, 78, 80
8, 25368, Note_on_c, 5, 78, 0
8, 25380, Note_on_c, 5, 78, 90
8, 25428, Note_on_c, 5, 78, 0
8, 25500, Note_on_c, 5, 74, 80
8, 25548, Note_on_c, 5, 74, 0
8, 25560, Note_on_c, 5, 71, 90
8, 25608, Note_on_c, 5, 71, 0
8, 25680, Note_on_c, 5, 74, 80
8, 25728, Note_on_c, 5, 74, 0
8, 25740, Note_on_c, 5, 74, 90
8, 25788, Note_on_c, 5, 74, 0
8, 26040, Note_on_c, 5, 76, 80
8, 26088, Note_on_c, 5, 76, 0
8, 26100, Note_on_c, 5, 81, 90
8, 26148, Note_on_c, 5, 81, 0
8, 26220, Note_on_c, 5, 81, 80
8, 26268, Note_on_c, 5, 81, 0
8, 26280, Note_on_c, 5, 78, 90
8, 26328, Note_on_c, 5, 78, 0
8, 26400, Note_on_c, 5, 78, 80
8, 26448, Note_on_c, 5, 78, 0
8, 26460, Note_on_c, 5, 83, 90
8, 26508, Note_on_c, 5, 83, 0
8, 26880, Note_on_c, 5, 71, 80
8, 26909, Note_on_c, 5, 71, 0
8, 26910, Note_on_c, 5, 69, 80
8, 26939, Note_on_c, 5, 69, 0
8, 26940, Note_on_c, 5, 67, 80
8, 26969, Note_on_c, 5, 67, 0
8, 26970, Note_on_c, 5, 66, 80
8, 26999, Note_on_c, 5, 66, 0
8, 27000, Note_on_c, 5, 64, 90
8, 27029, Note_on_c, 5, 64, 0
8, 27060, Note_on_c, 5, 67, 80
8, 27089, Note_on_c, 5, 67, 0
8, 27090, Note_on_c, 5, 66, 80
8, 27119, Note_on_c, 5, 66, 0
8, 27120, Note_on_c, 5, 64, 80
8, 27149, Note_on_c, 5, 64, 0
8, 27150, Note_on_c, 5, 62, 80
8, 27179, Note_on_c, 5, 62, 0
8, 27180, Note_on_c, 5, 61, 90
8, 27209, Note_on_c, 5, 61, 0
8, 27240, Note_on_c, 5, 81, 80
8, 27269, Note_on_c, 5, 81, 0
8, 27270, Note_on_c, 5, 79, 80
8, 27299, Note_on_c, 5, 79, 0
8, 27300, Note_on_c, 5, 78, 80
8, 27329, Note_on_c, 5, 78, 0
8, 27330, Note_on_c, 5, 76, 80
8, 27359, Note_on_c, 5, 76, 0
8, 27360, Note_on_c, 5, 79, 90
8, 27389, Note_on_c, 5, 79, 0
8, 27390, Note_on_c, 5, 78, 90
8, 27419, Note_on_c, 5, 78, 0
8, 27420, Note_on_c, 5, 76, 80
8, 27449, Note_on_c, 5, 76, 0
8, 27450, Note_on_c, 5, 74, 80
8, 27479, Note_on_c, 5, 74, 0
8, 27480, Note_on_c, 5, 78, 80
8, 27539, Note_on_c, 5, 78, 0
8, 27540, Note_on_c, 5, 71, 90
8, 27599, Note_on_c, 5, 71, 0
8, 27600, Note_on_c, 5, 76, 80
8, 27659, Note_on_c, 5, 76, 0
8, 27660, Note_on_c, 5, 74, 80
8, 27719, Note_on_c, 5, 74, 0
8, 27720, Note_on_c, 5, 79, 90
8, 27779, Note_on_c, 5, 79, 0
8, 27780, Note_on_c, 5, 78, 80
8, 27839, Note_on_c, 5, 78, 0
8, 27840, Note_on_c, 5, 76, 80
8, 27899, Note_on_c, 5, 76, 0
8, 27900, Note_on_c, 5, 74, 90
8, 27959, Note_on_c, 5, 74, 0
8, 27960, Note_on_c, 5, 76, 80
8, 28019, Note_on_c, 5, 76, 0
8, 28020, Note_on_c, 5, 73, 80
8, 28079, Note_on_c, 5, 73, 0
8, 28080, Note_on_c, 5, 71, 70
8, 28139, Note_on_c, 5, 71, 0
8, 28140, Note_on_c, 5, 74, 70
8, 28199, Note_on_c, 5, 74, 0
8, 28200, Note_on_c, 5, 77, 70
8, 28319, Note_on_c, 5, 77, 0
8, 28320, Note_on_c, 5, 80, 70
8, 28379, Note_on_c, 5, 80, 0
8, 28380, Note_on_c, 5, 83, 70
8, 28469, Note_on_c, 5, 83, 0
8, 28470, Note_on_c, 5, 86, 70
8, 28499, Note_on_c, 5, 86, 0
8, 28500, Note_on_c, 5, 85, 70
8, 28529, Note_on_c, 5, 85, 0
8, 28530, Note_on_c, 5, 82, 70
8, 28559, Note_on_c, 5, 82, 0
8, 28560, Note_on_c, 5, 83, 70
8, 28679, Note_on_c, 5, 83, 0
8, 28680, Note_on_c, 5, 78, 80
8, 28709, Note_on_c, 5, 78, 0
8, 28710, Note_on_c, 5, 76, 80
8, 28739, Note_on_c, 5, 76, 0
8, 28740, Note_on_c, 5, 74, 80
8, 28769, Note_on_c, 5, 74, 0
8, 28770, Note_on_c, 5, 73, 80
8, 28799, Note_on_c, 5, 73, 0
8, 28800, Note_on_c, 5, 71, 90
8, 28919, Note_on_c, 5, 71, 0
8, 28920, Note_on_c, 5, 62, 90
8, 28949, Note_on_c, 5, 62, 0
8, 28950, Note_on_c, 5, 64, 90
8, 28979, Note_on_c, 5, 64, 0
8, 28980, Note_on_c, 5, 66, 89
8, 29009, Note_on_c, 5, 66, 0
8, 29010, Note_on_c, 5, 64, 88
8, 29039, Note_on_c, 5, 64, 0
8, 29040, Note_on_c, 5, 67, 87
8, 29069, Note_on_c, 5, 67, 0
8, 29070, Note_on_c, 5, 66, 86
8, 29099, Note_on_c, 5, 66, 0
8, 29100, Note_on_c, 5, 64, 85
8, 29129, Note_on_c, 5, 64, 0
8, 29130, Note_on_c, 5, 62, 84
8, 29159, Note_on_c, 5, 62, 0
8, 29160, Note_on_c, 5, 61, 84
8, 29189, Note_on_c, 5, 61, 0
8, 29190, Note_on_c, 5, 59, 83
8, 29219, Note_on_c, 5, 59, 0
8, 29220, Note_on_c, 5, 62, 82
8, 29249, Note_on_c, 5, 62, 0
8, 29250, Note_on_c, 5, 61, 81
8, 29279, Note_on_c, 5, 61, 0
8, 29280, Note_on_c, 5, 59, 80
8, 29309, Note_on_c, 5, 59, 0
8, 29310, Note_on_c, 5, 57, 79
8, 29339, Note_on_c, 5, 57, 0
8, 29340, Note_on_c, 5, 62, 78
8, 29399, Note_on_c, 5, 62, 0
8, 29400, Note_on_c, 5, 55, 77
8, 29459, Note_on_c, 5, 55, 0
8, 29460, Note_on_c, 5, 57, 75
8, 29519, Note_on_c, 5, 57, 0
8, 29520, Note_on_c, 5, 62, 73
8, 29579, Note_on_c, 5, 62, 0
8, 29580, Note_on_c, 5, 66, 71
8, 29639, Note_on_c, 5, 66, 0
8, 29640, Note_on_c, 5, 69, 80
8, 29699, Note_on_c, 5, 69, 0
8, 29700, Note_on_c, 5, 74, 90
8, 29819, Note_on_c, 5, 74, 0
8, 29820, Note_on_c, 5, 69, 80
8, 29879, Note_on_c, 5, 69, 0
8, 29880, Note_on_c, 5, 76, 90
8, 29999, Note_on_c, 5, 76, 0
8, 30000, Note_on_c, 5, 69, 80
8, 30059, Note_on_c, 5, 69, 0
8, 30060, Note_on_c, 5, 78, 90
8, 30119, Note_on_c, 5, 78, 0
8, 30120, Note_on_c, 5, 76, 80
8, 30149, Note_on_c, 5, 76, 0
8, 30150, Note_on_c, 5, 78, 80
8, 30179, Note_on_c, 5, 78, 0
8, 30180, Note_on_c, 5, 79, 80
8, 30209, Note_on_c, 5, 79, 0
8, 30210, Note_on_c, 5, 76, 80
8, 30239, Note_on_c, 5, 76, 0
8, 30240, Note_on_c, 5, 79, 90
8, 30269, Note_on_c, 5, 79, 0
8, 30270, Note_on_c, 5, 78, 90
8, 30299, Note_on_c, 5, 78, 0
8, 30300, Note_on_c, 5, 76, 80
8, 30329, Note_on_c, 5, 76, 0
8, 30330, Note_on_c, 5, 74, 80
8, 30359, Note_on_c, 5, 74, 0
8, 30360, Note_on_c, 5, 78, 80
8, 30389, Note_on_c, 5, 78, 0
8, 30390, Note_on_c, 5, 74, 80
8, 30419, Note_on_c, 5, 74, 0
8, 30420, Note_on_c, 5, 78, 90
8, 30449, Note_on_c, 5, 78, 0
8, 30450, Note_on_c, 5, 76, 90
8, 30479, Note_on_c, 5, 76, 0
8, 30480, Note_on_c, 5, 74, 80
8, 30509, Note_on_c, 5, 74, 0
8, 30510, Note_on_c, 5, 73, 80
8, 30539, Note_on_c, 5, 73, 0
8, 30540, Note_on_c, 5, 76, 80
8, 30569, Note_on_c, 5, 76, 0
8, 30570, Note_on_c, 5, 73, 80
8, 30599, Note_on_c, 5, 73, 0
8, 30600, Note_on_c, 5, 76, 90
8, 30629, Note_on_c, 5, 76, 0
8, 30630, Note_on_c, 5, 74, 90
8, 30659, Note_on_c, 5, 74, 0
8, 30660, Note_on_c, 5, 73, 80
8, 30689, Note_on_c, 5, 73, 0
8, 30690, Note_on_c, 5, 71, 80
8, 30719, Note_on_c, 5, 71, 0
8, 30720, Note_on_c, 5, 74, 80
8, 30749, Note_on_c, 5, 74, 0
8, 30750, Note_on_c, 5, 71, 80
8, 30779, Note_on_c, 5, 71, 0
8, 30780, Note_on_c, 5, 76, 90
8, 30809, Note_on_c, 5, 76, 0
8, 30840, Note_on_c, 5, 74, 80
8, 30869, Note_on_c, 5, 74, 0
8, 30870, Note_on_c, 5, 73, 80
8, 30899, Note_on_c, 5, 73, 0
8, 30900, Note_on_c, 5, 71, 80
8, 30929, Note_on_c, 5, 71, 0
8, 30930, Note_on_c, 5, 73, 80
8, 30959, Note_on_c, 5, 73, 0
8, 30960, Note_on_c, 5, 69, 90
8, 31019, Note_on_c, 5, 69, 0
8, 31020, Note_on_c, 5, 73, 80
8, 31079, Note_on_c, 5, 73, 0
8, 31080, Note_on_c, 5, 76, 80
8, 31139, Note_on_c, 5, 76, 0
8, 31140, Note_on_c, 5, 74, 90
8, 31199, Note_on_c, 5, 74, 0
8, 31200, Note_on_c, 5, 76, 80
8, 31259, Note_on_c, 5, 76, 0
8, 31260, Note_on_c, 5, 78, 80
8, 31319, Note_on_c, 5, 78, 0
8, 31320, Note_on_c, 5, 76, 90
8, 31379, Note_on_c, 5, 76, 0
8, 31380, Note_on_c, 5, 74, 80
8, 31409, Note_on_c, 5, 74, 0
8, 31410, Note_on_c, 5, 73, 80
8, 31439, Note_on_c, 5, 73, 0
8, 31440, Note_on_c, 5, 76, 80
8, 31499, Note_on_c, 5, 76, 0
8, 31500, Note_on_c, 5, 74, 90
8, 31559, Note_on_c, 5, 74, 0
8, 31560, Note_on_c, 5, 76, 80
8, 31619, Note_on_c, 5, 76, 0
8, 31620, Note_on_c, 5, 73, 80
8, 31679, Note_on_c, 5, 73, 0
8, 31680, Note_on_c, 5, 74, 90
8, 31890, Note_on_c, 5, 74, 0
8, 31890, Note_on_c, 5, 73, 90
8, 31919, Note_on_c, 5, 73, 0
8, 31920, Note_on_c, 5, 71, 80
8, 31949, Note_on_c, 5, 71, 0
8, 31950, Note_on_c, 5, 73, 80
8, 31979, Note_on_c, 5, 73, 0
8, 31980, Note_on_c, 5, 69, 80
8, 32009, Note_on_c, 5, 69, 0
8, 32010, Note_on_c, 5, 71, 80
8, 32039, Note_on_c, 5, 71, 0
8, 32040, Note_on_c, 5, 68, 90
8, 32099, Note_on_c, 5, 68, 0
8, 32100, Note_on_c, 5, 64, 80
8, 32159, Note_on_c, 5, 64, 0
8, 32160, Note_on_c, 5, 68, 80
8, 32219, Note_on_c, 5, 68, 0
8, 32220, Note_on_c, 5, 69, 90
8, 32279, Note_on_c, 5, 69, 0
8, 32280, Note_on_c, 5, 78, 80
8, 32339, Note_on_c, 5, 78, 0
8, 32340, Note_on_c, 5, 76, 80
8, 32459, Note_on_c, 5, 76, 0
8, 32460, Note_on_c, 5, 74, 80
8, 32489, Note_on_c, 5, 74, 0
8, 32490, Note_on_c, 5, 73, 80
8, 32519, Note_on_c, 5, 73, 0
8, 32520, Note_on_c, 5, 71, 80
8, 32549, Note_on_c, 5, 71, 0
8, 32550, Note_on_c, 5, 69, 80
8, 32579, Note_on_c, 5, 69, 0
8, 32580, Note_on_c, 5, 74, 90
8, 32699, Note_on_c, 5, 74, 0
8, 32700, Note_on_c, 5, 69, 80
8, 32759, Note_on_c, 5, 69, 0
8, 32760, Note_on_c, 5, 76, 90
8, 32879, Note_on_c, 5, 76, 0
8, 32880, Note_on_c, 5, 69, 80
8, 32939, Note_on_c, 5, 69, 0
8, 32940, Note_on_c, 5, 78, 90
8, 32969, Note_on_c, 5, 78, 0
8, 33000, Note_on_c, 5, 76, 80
8, 33029, Note_on_c, 5, 76, 0
8, 33030, Note_on_c, 5, 78, 80
8, 33059, Note_on_c, 5, 78, 0
8, 33060, Note_on_c, 5, 79, 80
8, 33089, Note_on_c, 5, 79, 0
8, 33090, Note_on_c, 5, 76, 80
8, 33119, Note_on_c, 5, 76, 0
8, 33120, Note_on_c, 5, 79, 90
8, 33149, Note_on_c, 5, 79, 0
8, 33150, Note_on_c, 5, 78, 90
8, 33179, Note_on_c, 5, 78, 0
8, 33180, Note_on_c, 5, 76, 80
8, 33209, Note_on_c, 5, 76, 0
8, 33210, Note_on_c, 5, 74, 80
8, 33239, Note_on_c, 5, 74, 0
8, 36120, Note_on_c, 5, 69, 80
8, 36179, Note_on_c, 5, 69, 0
8, 36180, Note_on_c, 5, 71, 90
8, 36209, Note_on_c, 5, 71, 0
8, 36240, Note_on_c, 5, 76, 80
8, 36269, Note_on_c, 5, 76, 0
8, 36270, Note_on_c, 5, 74, 80
8, 36299, Note_on_c, 5, 74, 0
8, 36300, Note_on_c, 5, 73, 80
8, 36329, Note_on_c, 5, 73, 0
8, 36330, Note_on_c, 5, 71, 80
8, 36359, Note_on_c, 5, 71, 0
8, 36360, Note_on_c, 5, 69, 90
8, 36389, Note_on_c, 5, 69, 0
8, 36420, Note_on_c, 5, 74, 80
8, 36449, Note_on_c, 5, 74, 0
8, 36450, Note_on_c, 5, 73, 80
8, 36479, Note_on_c, 5, 73, 0
8, 36480, Note_on_c, 5, 71, 80
8, 36509, Note_on_c, 5, 71, 0
8, 36510, Note_on_c, 5, 69, 80
8, 36539, Note_on_c, 5, 69, 0
8, 36540, Note_on_c, 5, 67, 90
8, 36599, Note_on_c, 5, 67, 0
8, 36600, Note_on_c, 5, 72, 80
8, 36659, Note_on_c, 5, 72, 0
8, 36660, Note_on_c, 5, 71, 80
8, 36719, Note_on_c, 5, 71, 0
8, 36720, Note_on_c, 5, 69, 90
8, 36779, Note_on_c, 5, 69, 0
8, 36780, Note_on_c, 5, 71, 80
8, 36839, Note_on_c, 5, 71, 0
8, 36840, Note_on_c, 5, 73, 80
8, 36899, Note_on_c, 5, 73, 0
8, 36900, Note_on_c, 5, 74, 90
8, 36929, Note_on_c, 5, 74, 0
8, 36930, Note_on_c, 5, 73, 90
8, 36959, Note_on_c, 5, 73, 0
8, 36960, Note_on_c, 5, 71, 80
8, 37019, Note_on_c, 5, 71, 0
8, 37020, Note_on_c, 5, 76, 80
8, 37079, Note_on_c, 5, 76, 0
8, 37080, Note_on_c, 5, 73, 90
8, 37139, Note_on_c, 5, 73, 0
8, 37140, Note_on_c, 5, 74, 80
8, 37199, Note_on_c, 5, 74, 0
8, 37200, Note_on_c, 5, 69, 80
8, 37259, Note_on_c, 5, 69, 0
8, 37260, Note_on_c, 5, 71, 90
8, 37319, Note_on_c, 5, 71, 0
8, 37320, Note_on_c, 5, 73, 80
8, 37379, Note_on_c, 5, 73, 0
8, 37380, Note_on_c, 5, 74, 80
8, 37439, Note_on_c, 5, 74, 0
8, 37440, Note_on_c, 5, 73, 90
8, 37469, Note_on_c, 5, 73, 0
8, 37470, Note_on_c, 5, 78, 90
8, 37499, Note_on_c, 5, 78, 0
8, 37500, Note_on_c, 5, 76, 80
8, 37529, Note_on_c, 5, 76, 0
8, 37530, Note_on_c, 5, 74, 80
8, 37559, Note_on_c, 5, 74, 0
8, 37560, Note_on_c, 5, 73, 80
8, 37589, Note_on_c, 5, 73, 0
8, 37590, Note_on_c, 5, 71, 80
8, 37619, Note_on_c, 5, 71, 0
8, 37620, Note_on_c, 5, 69, 90
8, 37679, Note_on_c, 5, 69, 0
8, 37680, Note_on_c, 5, 74, 80
8, 37739, Note_on_c, 5, 74, 0
8, 37740, Note_on_c, 5, 73, 80
8, 37799, Note_on_c, 5, 73, 0
8, 37800, Note_on_c, 5, 78, 90
8, 37859, Note_on_c, 5, 78, 0
8, 37860, Note_on_c, 5, 76, 80
8, 37919, Note_on_c, 5, 76, 0
8, 37920, Note_on_c, 5, 74, 80
8, 37979, Note_on_c, 5, 74, 0
8, 37980, Note_on_c, 5, 73, 90
8, 38039, Note_on_c, 5, 73, 0
8, 38040, Note_on_c, 5, 74, 80
8, 38099, Note_on_c, 5, 74, 0
8, 38100, Note_on_c, 5, 71, 80
8, 38159, Note_on_c, 5, 71, 0
8, 38160, Note_on_c, 5, 69, 70
8, 38219, Note_on_c, 5, 69, 0
8, 38220, Note_on_c, 5, 72, 70
8, 38279, Note_on_c, 5, 72, 0
8, 38280, Note_on_c, 5, 75, 70
8, 38399, Note_on_c, 5, 75, 0
8, 38400, Note_on_c, 5, 78, 70
8, 38459, Note_on_c, 5, 78, 0
8, 38460, Note_on_c, 5, 81, 70
8, 38549, Note_on_c, 5, 81, 0
8, 38550, Note_on_c, 5, 84, 70
8, 38579, Note_on_c, 5, 84, 0
8, 38580, Note_on_c, 5, 83, 70
8, 38609, Note_on_c, 5, 83, 0
8, 38610, Note_on_c, 5, 80, 70
8, 38639, Note_on_c, 5, 80, 0
8, 38640, Note_on_c, 5, 81, 70
8, 38759, Note_on_c, 5, 81, 0
8, 38760, Note_on_c, 5, 76, 80
8, 38789, Note_on_c, 5, 76, 0
8, 38790, Note_on_c, 5, 74, 80
8, 38819, Note_on_c, 5, 74, 0
8, 38820, Note_on_c, 5, 73, 80
8, 38849, Note_on_c, 5, 73, 0
8, 38850, Note_on_c, 5, 71, 80
8, 38879, Note_on_c, 5, 71, 0
8, 38880, Note_on_c, 5, 69, 90
8, 38909, Note_on_c, 5, 69, 0
8, 38940, Note_on_c, 5, 73, 80
8, 38969, Note_on_c, 5, 73, 0
8, 38970, Note_on_c, 5, 71, 80
8, 38999, Note_on_c, 5, 71, 0
8, 39000, Note_on_c, 5, 69, 80
8, 39029, Note_on_c, 5, 69, 0
8, 39030, Note_on_c, 5, 67, 80
8, 39059, Note_on_c, 5, 67, 0
8, 39060, Note_on_c, 5, 66, 90
8, 39089, Note_on_c, 5, 66, 0
8, 39120, Note_on_c, 5, 69, 80
8, 39149, Note_on_c, 5, 69, 0
8, 39150, Note_on_c, 5, 67, 80
8, 39179, Note_on_c, 5, 67, 0
8, 39180, Note_on_c, 5, 66, 80
8, 39209, Note_on_c, 5, 66, 0
8, 39210, Note_on_c, 5, 64, 80
8, 39239, Note_on_c, 5, 64, 0
8, 39240, Note_on_c, 5, 63, 90
8, 39269, Note_on_c, 5, 63, 0
8, 39300, Note_on_c, 5, 66, 80
8, 39329, Note_on_c, 5, 66, 0
8, 39330, Note_on_c, 5, 64, 80
8, 39359, Note_on_c, 5, 64, 0
8, 39360, Note_on_c, 5, 63, 80
8, 39389, Note_on_c, 5, 63, 0
8, 39390, Note_on_c, 5, 61, 80
8, 39419, Note_on_c, 5, 61, 0
8, 39420, Note_on_c, 5, 59, 90
8, 39449, Note_on_c, 5, 59, 0
8, 39480, Note_on_c, 5, 83, 80
8, 39509, Note_on_c, 5, 83, 0
8, 39510, Note_on_c, 5, 81, 80
8, 39539, Note_on_c, 5, 81, 0
8, 39540, Note_on_c, 5, 79, 80
8, 39569, Note_on_c, 5, 79, 0
8, 39570, Note_on_c, 5, 78, 80
8, 39599, Note_on_c, 5, 78, 0
8, 39600, Note_on_c, 5, 81, 90
8, 39629, Note_on_c, 5, 81, 0
8, 39630, Note_on_c, 5, 79, 90
8, 39659, Note_on_c, 5, 79, 0
8, 39660, Note_on_c, 5, 78, 80
8, 39689, Note_on_c, 5, 78, 0
8, 39690, Note_on_c, 5, 76, 80
8, 39719, Note_on_c, 5, 76, 0
8, 39840, Note_on_c, 5, 67, 80
8, 39869, Note_on_c, 5, 67, 0
8, 39870, Note_on_c, 5, 66, 80
8, 39899, Note_on_c, 5, 66, 0
8, 39900, Note_on_c, 5, 64, 80
8, 39929, Note_on_c, 5, 64, 0
8, 39930, Note_on_c, 5, 62, 80
8, 39959, Note_on_c, 5, 62, 0
8, 39960, Note_on_c, 5, 61, 90
8, 39989, Note_on_c, 5, 61, 0
8, 40020, Note_on_c, 5, 64, 80
8, 40049, Note_on_c, 5, 64, 0
8, 40050, Note_on_c, 5, 62, 80
8, 40079, Note_on_c, 5, 62, 0
8, 40080, Note_on_c, 5, 61, 80
8, 40109, Note_on_c, 5, 61, 0
8, 40110, Note_on_c, 5, 59, 80
8, 40139, Note_on_c, 5, 59, 0
8, 40140, Note_on_c, 5, 57, 90
8, 40169, Note_on_c, 5, 57, 0
8, 40200, Note_on_c, 5, 81, 80
8, 40229, Note_on_c, 5, 81, 0
8, 40230, Note_on_c, 5, 79, 80
8, 40259, Note_on_c, 5, 79, 0
8, 40260, Note_on_c, 5, 78, 80
8, 40289, Note_on_c, 5, 78, 0
8, 40290, Note_on_c, 5, 76, 80
8, 40319, Note_on_c, 5, 76, 0
8, 40320, Note_on_c, 5, 79, 90
8, 40349, Note_on_c, 5, 79, 0
8, 40350, Note_on_c, 5, 78, 90
8, 40379, Note_on_c, 5, 78, 0
8, 40380, Note_on_c, 5, 76, 80
8, 40409, Note_on_c, 5, 76, 0
8, 40410, Note_on_c, 5, 74, 80
8, 40439, Note_on_c, 5, 74, 0
8, 40440, Note_on_c, 5, 81, 80
8, 40469, Note_on_c, 5, 81, 0
8, 40470, Note_on_c, 5, 69, 80
8, 40499, Note_on_c, 5, 69, 0
8, 40500, Note_on_c, 5, 71, 90
8, 40529, Note_on_c, 5, 71, 0
8, 40530, Note_on_c, 5, 73, 90
8, 40559, Note_on_c, 5, 73, 0
8, 40560, Note_on_c, 5, 74, 80
8, 40589, Note_on_c, 5, 74, 0
8, 40590, Note_on_c, 5, 76, 80
8, 40619, Note_on_c, 5, 76, 0
8, 40620, Note_on_c, 5, 73, 80
8, 40649, Note_on_c, 5, 73, 0
8, 40650, Note_on_c, 5, 74, 80
8, 40679, Note_on_c, 5, 74, 0
8, 40680, Note_on_c, 5, 69, 90
8, 40709, Note_on_c, 5, 69, 0
8, 40710, Note_on_c, 5, 73, 90
8, 40739, Note_on_c, 5, 73, 0
8, 40740, Note_on_c, 5, 74, 80
8, 40769, Note_on_c, 5, 74, 0
8, 40770, Note_on_c, 5, 76, 80
8, 40799, Note_on_c, 5, 76, 0
8, 40800, Note_on_c, 5, 73, 80
8, 40829, Note_on_c, 5, 73, 0
8, 40830, Note_on_c, 5, 74, 80
8, 40859, Note_on_c, 5, 74, 0
8, 40860, Note_on_c, 5, 67, 90
8, 40889, Note_on_c, 5, 67, 0
8, 40890, Note_on_c, 5, 73, 90
8, 40919, Note_on_c, 5, 73, 0
8, 40920, Note_on_c, 5, 74, 80
8, 40949, Note_on_c, 5, 74, 0
8, 40950, Note_on_c, 5, 76, 80
8, 40979, Note_on_c, 5, 76, 0
8, 40980, Note_on_c, 5, 73, 80
8, 41009, Note_on_c, 5, 73, 0
8, 41010, Note_on_c, 5, 74, 80
8, 41039, Note_on_c, 5, 74, 0
8, 41040, Note_on_c, 5, 67, 90
8, 41069, Note_on_c, 5, 67, 0
8, 41070, Note_on_c, 5, 66, 90
8, 41099, Note_on_c, 5, 66, 0
8, 41100, Note_on_c, 5, 64, 80
8, 41129, Note_on_c, 5, 64, 0
8, 41130, Note_on_c, 5, 62, 80
8, 41159, Note_on_c, 5, 62, 0
8, 41160, Note_on_c, 5, 69, 80
8, 41189, Note_on_c, 5, 69, 0
8, 41190, Note_on_c, 5, 66, 80
8, 41219, Note_on_c, 5, 66, 0
8, 41220, Note_on_c, 5, 72, 90
8, 41249, Note_on_c, 5, 72, 0
8, 41250, Note_on_c, 5, 71, 90
8, 41279, Note_on_c, 5, 71, 0
8, 41280, Note_on_c, 5, 69, 80
8, 41309, Note_on_c, 5, 69, 0
8, 41310, Note_on_c, 5, 68, 80
8, 41339, Note_on_c, 5, 68, 0
8, 41340, Note_on_c, 5, 74, 80
8, 41369, Note_on_c, 5, 74, 0
8, 41370, Note_on_c, 5, 71, 80
8, 41399, Note_on_c, 5, 71, 0
8, 41400, Note_on_c, 5, 74, 90
8, 41429, Note_on_c, 5, 74, 0
8, 41430, Note_on_c, 5, 73, 90
8, 41459, Note_on_c, 5, 73, 0
8, 41460, Note_on_c, 5, 71, 80
8, 41489, Note_on_c, 5, 71, 0
8, 41490, Note_on_c, 5, 69, 80
8, 41519, Note_on_c, 5, 69, 0
8, 41520, Note_on_c, 5, 81, 80
8, 41549, Note_on_c, 5, 81, 0
8, 41550, Note_on_c, 5, 76, 80
8, 41579, Note_on_c, 5, 76, 0
8, 41580, Note_on_c, 5, 74, 90
8, 41609, Note_on_c, 5, 74, 0
8, 41610, Note_on_c, 5, 73, 90
8, 41639, Note_on_c, 5, 73, 0
8, 41640, Note_on_c, 5, 71, 80
8, 41669, Note_on_c, 5, 71, 0
8, 41670, Note_on_c, 5, 70, 80
8, 41699, Note_on_c, 5, 70, 0
8, 41700, Note_on_c, 5, 76, 80
8, 41729, Note_on_c, 5, 76, 0
8, 41730, Note_on_c, 5, 73, 80
8, 41759, Note_on_c, 5, 73, 0
8, 41760, Note_on_c, 5, 76, 90
8, 41789, Note_on_c, 5, 76, 0
8, 41790, Note_on_c, 5, 74, 90
8, 41819, Note_on_c, 5, 74, 0
8, 41820, Note_on_c, 5, 73, 80
8, 41849, Note_on_c, 5, 73, 0
8, 41850, Note_on_c, 5, 71, 80
8, 41879, Note_on_c, 5, 71, 0
8, 41880, Note_on_c, 5, 83, 80
8, 41909, Note_on_c, 5, 83, 0
8, 41910, Note_on_c, 5, 78, 80
8, 41939, Note_on_c, 5, 78, 0
8, 41940, Note_on_c, 5, 76, 90
8, 41969, Note_on_c, 5, 76, 0
8, 41970, Note_on_c, 5, 74, 90
8, 41999, Note_on_c, 5, 74, 0
8, 42000, Note_on_c, 5, 73, 80
8, 42029, Note_on_c, 5, 73, 0
8, 42030, Note_on_c, 5, 74, 80
8, 42059, Note_on_c, 5, 74, 0
8, 42060, Note_on_c, 5, 79, 80
8, 42089, Note_on_c, 5, 79, 0
8, 42090, Note_on_c, 5, 74, 80
8, 42119, Note_on_c, 5, 74, 0
8, 42120, Note_on_c, 5, 83, 90
8, 42149, Note_on_c, 5, 83, 0
8, 42150, Note_on_c, 5, 74, 90
8, 42179, Note_on_c, 5, 74, 0
8, 42180, Note_on_c, 5, 73, 80
8, 42209, Note_on_c, 5, 73, 0
8, 42210, Note_on_c, 5, 74, 80
8, 42239, Note_on_c, 5, 74, 0
8, 42240, Note_on_c, 5, 80, 80
8, 42269, Note_on_c, 5, 80, 0
8, 42270, Note_on_c, 5, 74, 80
8, 42299, Note_on_c, 5, 74, 0
8, 42300, Note_on_c, 5, 81, 90
8, 42329, Note_on_c, 5, 81, 0
8, 42330, Note_on_c, 5, 74, 90
8, 42359, Note_on_c, 5, 74, 0
8, 42360, Note_on_c, 5, 83, 80
8, 42389, Note_on_c, 5, 83, 0
8, 42390, Note_on_c, 5, 74, 80
8, 42419, Note_on_c, 5, 74, 0
8, 42420, Note_on_c, 5, 85, 80
8, 42449, Note_on_c, 5, 85, 0
8, 42450, Note_on_c, 5, 74, 80
8, 42479, Note_on_c, 5, 74, 0
8, 42480, Note_on_c, 5, 86, 70
8, 42539, Note_on_c, 5, 86, 0
8, 42540, Note_on_c, 5, 83, 70
8, 42599, Note_on_c, 5, 83, 0
8, 42600, Note_on_c, 5, 80, 70
8, 42719, Note_on_c, 5, 80, 0
8, 42720, Note_on_c, 5, 77, 70
8, 42779, Note_on_c, 5, 77, 0
8, 42780, Note_on_c, 5, 74, 70
8, 42869, Note_on_c, 5, 74, 0
8, 42870, Note_on_c, 5, 77, 70
8, 42899, Note_on_c, 5, 77, 0
8, 42900, Note_on_c, 5, 76, 70
8, 42929, Note_on_c, 5, 76, 0
8, 42930, Note_on_c, 5, 73, 70
8, 42959, Note_on_c, 5, 73, 0
8, 42960, Note_on_c, 5, 74, 80
8, 43079, Note_on_c, 5, 74, 0
8, 43080, Note_on_c, 5, 81, 80
8, 43109, Note_on_c, 5, 81, 0
8, 43110, Note_on_c, 5, 79, 80
8, 43139, Note_on_c, 5, 79, 0
8, 43140, Note_on_c, 5, 78, 80
8, 43169, Note_on_c, 5, 78, 0
8, 43170, Note_on_c, 5, 76, 80
8, 43199, Note_on_c, 5, 76, 0
8, 43200, Note_on_c, 5, 74, 90
8, 43319, Note_on_c, 5, 74, 0
8, 48840, Note_on_c, 5, 78, 60
8, 49079, Note_on_c, 5, 78, 0
8, 49080, Note_on_c, 5, 76, 60
8, 49439, Note_on_c, 5, 76, 0
8, 49440, Note_on_c, 5, 70, 60
8, 49559, Note_on_c, 5, 70, 0
8, 49560, Note_on_c, 5, 71, 60
8, 50039, Note_on_c, 5, 71, 0
8, 50040, Note_on_c, 5, 75, 60
8, 50519, Note_on_c, 5, 75, 0
8, 50520, Note_on_c, 5, 76, 60
8, 51120, Note_on_c, 5, 76, 0
8, 51120, Note_on_c, 5, 80, 60
8, 51239, Note_on_c, 5, 80, 0
8, 51240, Note_on_c, 5, 78, 60
8, 51480, Note_on_c, 5, 78, 0
8, 51600, Note_on_c, 5, 77, 60
8, 51719, Note_on_c, 5, 77, 0
8, 51720, Note_on_c, 5, 78, 60
8, 52079, Note_on_c, 5, 78, 0
8, 52080, Note_on_c, 5, 76, 60
8, 53400, Note_on_c, 5, 76, 0
8, 53400, Note_on_c, 5, 74, 60
8, 53640, Note_on_c, 5, 74, 0
8, 53640, Note_on_c, 5, 73, 60
8, 53730, Note_on_c, 5, 73, 0
8, 53730, Note_on_c, 5, 76, 60
8, 53760, Note_on_c, 5, 76, 0
8, 53760, Note_on_c, 5, 68, 60
8, 53850, Note_on_c, 5, 68, 0
8, 53850, Note_on_c, 5, 74, 60
8, 53880, Note_on_c, 5, 74, 0
8, 53880, Note_on_c, 5, 73, 60
8, 54120, Note_on_c, 5, 73, 0
8, 54360, Note_on_c, 5, 69, 64
8, 54420, Note_on_c, 5, 69, 0
8, 54420, Note_on_c, 5, 71, 64
8, 54450, Note_on_c, 5, 71, 0
8, 54450, Note_on_c, 5, 73, 64
8, 54480, Note_on_c, 5, 73, 0
8, 54480, Note_on_c, 5, 74, 64
8, 54510, Note_on_c, 5, 74, 0
8, 54510, Note_on_c, 5, 73, 64
8, 54540, Note_on_c, 5, 73, 0
8, 54540, Note_on_c, 5, 71, 64
8, 54570, Note_on_c, 5, 71, 0
8, 54570, Note_on_c, 5, 69, 64
8, 54600, Note_on_c, 5, 69, 0
8, 54600, Note_on_c, 5, 78, 64
8, 54660, Note_on_c, 5, 78, 0
8, 54720, Note_on_c, 5, 76, 64
8, 54780, Note_on_c, 5, 76, 0
8, 54840, Note_on_c, 5, 74, 64
8, 54855, Note_on_c, 5, 74, 0
8, 54855, Note_on_c, 5, 76, 64
8, 54870, Note_on_c, 5, 76, 0
8, 54870, Note_on_c, 5, 74, 64
8, 54960, Note_on_c, 5, 74, 0
8, 54960, Note_on_c, 5, 73, 64
8, 55020, Note_on_c, 5, 73, 0
8, 55020, Note_on_c, 5, 71, 64
8, 55140, Note_on_c, 5, 71, 0
8, 55140, Note_on_c, 5, 73, 64
8, 55170, Note_on_c, 5, 73, 0
8, 55170, Note_on_c, 5, 74, 64
8, 55200, Note_on_c, 5, 74, 0
8, 55200, Note_on_c, 5, 68, 64
8, 55260, Note_on_c, 5, 68, 0
8, 55260, Note_on_c, 5, 69, 64
8, 55380, Note_on_c, 5, 69, 0
8, 55380, Note_on_c, 5, 71, 64
8, 55440, Note_on_c, 5, 71, 0
8, 55440, Note_on_c, 5, 73, 64
8, 55470, Note_on_c, 5, 73, 0
8, 55470, Note_on_c, 5, 69, 64
8, 55500, Note_on_c, 5, 69, 0
8, 55500, Note_on_c, 5, 74, 64
8, 55530, Note_on_c, 5, 74, 0
8, 55560, Note_on_c, 5, 73, 64
8, 55680, Note_on_c, 5, 73, 0
8, 55680, Note_on_c, 5, 71, 64
8, 55800, Note_on_c, 5, 71, 0
8, 55800, Note_on_c, 5, 69, 52
8, 55860, Note_on_c, 5, 69, 0
8, 55860, Note_on_c, 5, 71, 52
8, 55890, Note_on_c, 5, 71, 0
8, 55890, Note_on_c, 5, 73, 52
8, 55920, Note_on_c, 5, 73, 0
8, 55920, Note_on_c, 5, 74, 52
8, 55950, Note_on_c, 5, 74, 0
8, 55950, Note_on_c, 5, 73, 52
8, 55980, Note_on_c, 5, 73, 0
8, 55980, Note_on_c, 5, 71, 52
8, 56010, Note_on_c, 5, 71, 0
8, 56010, Note_on_c, 5, 69, 52
8, 56040, Note_on_c, 5, 69, 0
8, 56040, Note_on_c, 5, 78, 52
8, 56100, Note_on_c, 5, 78, 0
8, 56160, Note_on_c, 5, 76, 52
8, 56220, Note_on_c, 5, 76, 0
8, 56280, Note_on_c, 5, 74, 52
8, 56295, Note_on_c, 5, 74, 0
8, 56295, Note_on_c, 5, 76, 52
8, 56310, Note_on_c, 5, 76, 0
8, 56310, Note_on_c, 5, 74, 52
8, 56400, Note_on_c, 5, 74, 0
8, 56400, Note_on_c, 5, 73, 52
8, 56460, Note_on_c, 5, 73, 0
8, 56460, Note_on_c, 5, 71, 52
8, 56580, Note_on_c, 5, 71, 0
8, 56580, Note_on_c, 5, 73, 52
8, 56610, Note_on_c, 5, 73, 0
8, 56610, Note_on_c, 5, 74, 52
8, 56640, Note_on_c, 5, 74, 0
8, 56640, Note_on_c, 5, 68, 52
8, 56700, Note_on_c, 5, 68, 0
8, 56700, Note_on_c, 5, 69, 52
8, 56820, Note_on_c, 5, 69, 0
8, 56820, Note_on_c, 5, 71, 52
8, 56880, Note_on_c, 5, 71, 0
8, 56880, Note_on_c, 5, 73, 52
8, 56910, Note_on_c, 5, 73, 0
8, 56910, Note_on_c, 5, 69, 52
8, 56940, Note_on_c, 5, 69, 0
8, 56940, Note_on_c, 5, 74, 52
8, 56970, Note_on_c, 5, 74, 0
8, 57000, Note_on_c, 5, 73, 52
8, 57120, Note_on_c, 5, 73, 0
8, 57120, Note_on_c, 5, 71, 52
8, 57240, Note_on_c, 5, 71, 0
8, 57240, Note_on_c, 5, 75, 64
8, 57270, Note_on_c, 5, 75, 0
8, 57270, Note_on_c, 5, 76, 64
8, 57300, Note_on_c, 5, 76, 0
8, 57300, Note_on_c, 5, 78, 64
8, 57330, Note_on_c, 5, 78, 0
8, 57330, Note_on_c, 5, 75, 64
8, 57360, Note_on_c, 5, 75, 0
8, 57360, Note_on_c, 5, 79, 64
8, 57390, Note_on_c, 5, 79, 0
8, 57390, Note_on_c, 5, 78, 64
8, 57420, Note_on_c, 5, 78, 0
8, 57420, Note_on_c, 5, 76, 64
8, 57510, Note_on_c, 5, 76, 0
8, 57510, Note_on_c, 5, 74, 64
8, 57540, Note_on_c, 5, 74, 0
8, 57540, Note_on_c, 5, 73, 64
8, 57600, Note_on_c, 5, 73, 0
8, 57600, Note_on_c, 5, 71, 64
8, 57630, Note_on_c, 5, 71, 0
8, 57630, Note_on_c, 5, 73, 64
8, 57660, Note_on_c, 5, 73, 0
8, 57660, Note_on_c, 5, 70, 64
8, 57720, Note_on_c, 5, 70, 0
8, 57720, Note_on_c, 5, 69, 64
8, 57780, Note_on_c, 5, 69, 0
8, 57780, Note_on_c, 5, 67, 64
8, 57900, Note_on_c, 5, 67, 0
8, 57900, Note_on_c, 5, 66, 64
8, 57930, Note_on_c, 5, 66, 0
8, 57930, Note_on_c, 5, 64, 64
8, 57960, Note_on_c, 5, 64, 0
8, 57960, Note_on_c, 5, 63, 64
8, 57990, Note_on_c, 5, 63, 0
8, 57990, Note_on_c, 5, 64, 64
8, 58020, Note_on_c, 5, 64, 0
8, 58020, Note_on_c, 5, 66, 64
8, 58050, Note_on_c, 5, 66, 0
8, 58050, Note_on_c, 5, 68, 64
8, 58080, Note_on_c, 5, 68, 0
8, 58080, Note_on_c, 5, 69, 64
8, 58110, Note_on_c, 5, 69, 0
8, 58110, Note_on_c, 5, 73, 64
8, 58140, Note_on_c, 5, 73, 0
8, 58140, Note_on_c, 5, 71, 64
8, 58260, Note_on_c, 5, 71, 0
8, 58260, Note_on_c, 5, 64, 64
8, 58320, Note_on_c, 5, 64, 0
8, 58320, Note_on_c, 5, 68, 64
8, 58350, Note_on_c, 5, 68, 0
8, 58350, Note_on_c, 5, 66, 64
8, 58380, Note_on_c, 5, 66, 0
8, 58380, Note_on_c, 5, 64, 64
8, 58410, Note_on_c, 5, 64, 0
8, 58410, Note_on_c, 5, 63, 64
8, 58440, Note_on_c, 5, 63, 0
8, 58440, Note_on_c, 5, 64, 64
8, 58680, Note_on_c, 5, 64, 0
8, 60120, Note_on_c, 5, 69, 52
8, 60180, Note_on_c, 5, 69, 0
8, 60180, Note_on_c, 5, 71, 52
8, 60210, Note_on_c, 5, 71, 0
8, 60210, Note_on_c, 5, 73, 52
8, 60240, Note_on_c, 5, 73, 0
8, 60240, Note_on_c, 5, 74, 52
8, 60270, Note_on_c, 5, 74, 0
8, 60270, Note_on_c, 5, 73, 52
8, 60300, Note_on_c, 5, 73, 0
8, 60300, Note_on_c, 5, 71, 52
8, 60330, Note_on_c, 5, 71, 0
8, 60330, Note_on_c, 5, 69, 52
8, 60360, Note_on_c, 5, 69, 0
8, 60360, Note_on_c, 5, 78, 52
8, 60420, Note_on_c, 5, 78, 0
8, 60480, Note_on_c, 5, 76, 52
8, 60540, Note_on_c, 5, 76, 0
8, 60600, Note_on_c, 5, 74, 52
8, 60615, Note_on_c, 5, 74, 0
8, 60615, Note_on_c, 5, 76, 52
8, 60630, Note_on_c, 5, 76, 0
8, 60630, Note_on_c, 5, 74, 52
8, 60720, Note_on_c, 5, 74, 0
8, 60720, Note_on_c, 5, 73, 52
8, 60780, Note_on_c, 5, 73, 0
8, 60780, Note_on_c, 5, 71, 52
8, 60900, Note_on_c, 5, 71, 0
8, 60900, Note_on_c, 5, 73, 52
8, 60930, Note_on_c, 5, 73, 0
8, 60930, Note_on_c, 5, 74, 52
8, 60960, Note_on_c, 5, 74, 0
8, 60960, Note_on_c, 5, 68, 52
8, 61020, Note_on_c, 5, 68, 0
8, 61020, Note_on_c, 5, 69, 52
8, 61140, Note_on_c, 5, 69, 0
8, 61140, Note_on_c, 5, 71, 52
8, 61200, Note_on_c, 5, 71, 0
8, 61200, Note_on_c, 5, 73, 52
8, 61230, Note_on_c, 5, 73, 0
8, 61230, Note_on_c, 5, 69, 52
8, 61260, Note_on_c, 5, 69, 0
8, 61260, Note_on_c, 5, 74, 52
8, 61290, Note_on_c, 5, 74, 0
8, 61320, Note_on_c, 5, 73, 52
8, 61440, Note_on_c, 5, 73, 0
8, 61440, Note_on_c, 5, 71, 52
8, 61560, Note_on_c, 5, 71, 0
8, 61560, Note_on_c, 5, 75, 52
8, 61590, Note_on_c, 5, 75, 0
8, 61590, Note_on_c, 5, 76, 52
8, 61620, Note_on_c, 5, 76, 0
8, 61620, Note_on_c, 5, 78, 52
8, 61650, Note_on_c, 5, 78, 0
8, 61650, Note_on_c, 5, 75, 52
8, 61680, Note_on_c, 5, 75, 0
8, 61680, Note_on_c, 5, 79, 52
8, 61710, Note_on_c, 5, 79, 0
8, 61710, Note_on_c, 5, 78, 52
8, 61740, Note_on_c, 5, 78, 0
8, 61740, Note_on_c, 5, 76, 52
8, 61830, Note_on_c, 5, 76, 0
8, 61830, Note_on_c, 5, 74, 52
8, 61860, Note_on_c, 5, 74, 0
8, 61860, Note_on_c, 5, 72, 52
8, 61920, Note_on_c, 5, 72, 0
8, 61920, Note_on_c, 5, 71, 52
8, 61950, Note_on_c, 5, 71, 0
8, 61950, Note_on_c, 5, 73, 52
8, 61980, Note_on_c, 5, 73, 0
8, 61980, Note_on_c, 5, 70, 52
8, 62040, Note_on_c, 5, 70, 0
8, 62040, Note_on_c, 5, 69, 52
8, 62100, Note_on_c, 5, 69, 0
8, 62100, Note_on_c, 5, 67, 52
8, 62220, Note_on_c, 5, 67, 0
8, 62220, Note_on_c, 5, 66, 52
8, 62250, Note_on_c, 5, 66, 0
8, 62250, Note_on_c, 5, 64, 52
8, 62280, Note_on_c, 5, 64, 0
8, 62280, Note_on_c, 5, 63, 52
8, 62310, Note_on_c, 5, 63, 0
8, 62310, Note_on_c, 5, 64, 52
8, 62340, Note_on_c, 5, 64, 0
8, 62340, Note_on_c, 5, 66, 52
8, 62370, Note_on_c, 5, 66, 0
8, 62370, Note_on_c, 5, 68, 52
8, 62400, Note_on_c, 5, 68, 0
8, 62400, Note_on_c, 5, 69, 52
8, 62430, Note_on_c, 5, 69, 0
8, 62430, Note_on_c, 5, 73, 52
8, 62460, Note_on_c, 5, 73, 0
8, 62460, Note_on_c, 5, 71, 52
8, 62580, Note_on_c, 5, 71, 0
8, 62580, Note_on_c, 5, 64, 52
8, 62640, Note_on_c, 5, 64, 0
8, 62640, Note_on_c, 5, 68, 52
8, 62670, Note_on_c, 5, 68, 0
8, 62670, Note_on_c, 5, 66, 52
8, 62700, Note_on_c, 5, 66, 0
8, 62700, Note_on_c, 5, 64, 52
8, 62730, Note_on_c, 5, 64, 0
8, 62730, Note_on_c, 5, 63, 52
8, 62760, Note_on_c, 5, 63, 0
8, 62760, Note_on_c, 5, 64, 52
8, 63000, Note_on_c, 5, 64, 0
8, 63000, Note_on_c, 5, 71, 72
8, 63060, Note_on_c, 5, 71, 0
8, 63060, Note_on_c, 5, 73, 72
8, 63090, Note_on_c, 5, 73, 0
8, 63090, Note_on_c, 5, 74, 72
8, 63120, Note_on_c, 5, 74, 0
8, 63120, Note_on_c, 5, 76, 72
8, 63180, Note_on_c, 5, 76, 0
8, 63180, Note_on_c, 5, 74, 72
8, 63240, Note_on_c, 5, 74, 0
8, 63240, Note_on_c, 5, 73, 72
8, 63300, Note_on_c, 5, 73, 0
8, 63300, Note_on_c, 5, 71, 72
8, 63330, Note_on_c, 5, 71, 0
8, 63330, Note_on_c, 5, 70, 72
8, 63360, Note_on_c, 5, 70, 0
8, 63360, Note_on_c, 5, 71, 72
8, 63390, Note_on_c, 5, 71, 0
8, 63390, Note_on_c, 5, 74, 72
8, 63420, Note_on_c, 5, 74, 0
8, 63420, Note_on_c, 5, 73, 72
8, 63450, Note_on_c, 5, 73, 0
8, 63480, Note_on_c, 5, 73, 72
8, 63600, Note_on_c, 5, 73, 0
8, 63600, Note_on_c, 5, 74, 72
8, 63720, Note_on_c, 5, 74, 0
8, 63720, Note_on_c, 5, 73, 72
8, 63750, Note_on_c, 5, 73, 0
8, 63750, Note_on_c, 5, 71, 72
8, 63780, Note_on_c, 5, 71, 0
8, 63780, Note_on_c, 5, 69, 72
8, 63810, Note_on_c, 5, 69, 0
8, 63810, Note_on_c, 5, 68, 72
8, 63840, Note_on_c, 5, 68, 0
8, 63840, Note_on_c, 5, 71, 72
8, 63870, Note_on_c, 5, 71, 0
8, 63870, Note_on_c, 5, 69, 72
8, 63900, Note_on_c, 5, 69, 0
8, 63900, Note_on_c, 5, 68, 72
8, 63930, Note_on_c, 5, 68, 0
8, 63930, Note_on_c, 5, 66, 72
8, 63960, Note_on_c, 5, 66, 0
8, 63960, Note_on_c, 5, 78, 72
8, 63975, Note_on_c, 5, 78, 0
8, 63975, Note_on_c, 5, 80, 72
8, 63990, Note_on_c, 5, 80, 0
8, 63990, Note_on_c, 5, 81, 72
8, 64020, Note_on_c, 5, 81, 0
8, 64080, Note_on_c, 5, 80, 72
8, 64140, Note_on_c, 5, 80, 0
8, 64200, Note_on_c, 5, 77, 72
8, 64215, Note_on_c, 5, 77, 0
8, 64215, Note_on_c, 5, 78, 72
8, 64230, Note_on_c, 5, 78, 0
8, 64230, Note_on_c, 5, 77, 72
8, 64320, Note_on_c, 5, 77, 0
8, 64320, Note_on_c, 5, 73, 72
8, 64380, Note_on_c, 5, 73, 0
8, 64380, Note_on_c, 5, 78, 72
8, 64500, Note_on_c, 5, 78, 0
8, 64500, Note_on_c, 5, 76, 72
8, 64530, Note_on_c, 5, 76, 0
8, 64530, Note_on_c, 5, 74, 72
8, 64560, Note_on_c, 5, 74, 0
8, 64560, Note_on_c, 5, 76, 72
8, 64590, Note_on_c, 5, 76, 0
8, 64590, Note_on_c, 5, 73, 72
8, 64620, Note_on_c, 5, 73, 0
8, 64620, Note_on_c, 5, 74, 72
8, 64740, Note_on_c, 5, 74, 0
8, 64740, Note_on_c, 5, 73, 72
8, 64770, Note_on_c, 5, 73, 0
8, 64770, Note_on_c, 5, 71, 72
8, 64800, Note_on_c, 5, 71, 0
8, 64800, Note_on_c, 5, 73, 72
8, 64830, Note_on_c, 5, 73, 0
8, 64830, Note_on_c, 5, 69, 72
8, 64860, Note_on_c, 5, 69, 0
8, 64860, Note_on_c, 5, 71, 72
8, 64890, Note_on_c, 5, 71, 0
8, 64920, Note_on_c, 5, 71, 72
8, 64980, Note_on_c, 5, 71, 0
8, 64980, Note_on_c, 5, 65, 72
8, 65100, Note_on_c, 5, 65, 0
8, 65100, Note_on_c, 5, 66, 72
8, 65130, Note_on_c, 5, 66, 0
8, 65130, Note_on_c, 5, 68, 72
8, 65160, Note_on_c, 5, 68, 0
8, 65160, Note_on_c, 5, 62, 72
8, 65220, Note_on_c, 5, 62, 0
8, 65220, Note_on_c, 5, 61, 72
8, 65340, Note_on_c, 5, 61, 0
8, 65340, Note_on_c, 5, 73, 72
8, 65370, Note_on_c, 5, 73, 0
8, 65400, Note_on_c, 5, 71, 72
8, 65430, Note_on_c, 5, 71, 0
8, 65430, Note_on_c, 5, 69, 72
8, 65460, Note_on_c, 5, 69, 0
8, 65460, Note_on_c, 5, 68, 72
8, 65490, Note_on_c, 5, 68, 0
8, 65490, Note_on_c, 5, 66, 72
8, 65520, Note_on_c, 5, 66, 0
8, 65520, Note_on_c, 5, 69, 72
8, 65580, Note_on_c, 5, 69, 0
8, 65580, Note_on_c, 5, 68, 72
8, 65595, Note_on_c, 5, 68, 0
8, 65595, Note_on_c, 5, 69, 72
8, 65610, Note_on_c, 5, 69, 0
8, 65610, Note_on_c, 5, 68, 72
8, 65640, Note_on_c, 5, 68, 0
8, 65640, Note_on_c, 5, 66, 72
8, 65880, Note_on_c, 5, 66, 0
8, 65880, Note_on_c, 5, 66, 72
8, 65910, Note_on_c, 5, 66, 0
8, 65910, Note_on_c, 5, 68, 72
8, 65940, Note_on_c, 5, 68, 0
8, 65940, Note_on_c, 5, 69, 72
8, 65970, Note_on_c, 5, 69, 0
8, 65970, Note_on_c, 5, 71, 72
8, 66000, Note_on_c, 5, 71, 0
8, 66000, Note_on_c, 5, 73, 72
8, 66030, Note_on_c, 5, 73, 0
8, 66030, Note_on_c, 5, 71, 72
8, 66060, Note_on_c, 5, 71, 0
8, 66060, Note_on_c, 5, 73, 72
8, 66090, Note_on_c, 5, 73, 0
8, 66090, Note_on_c, 5, 74, 72
8, 66120, Note_on_c, 5, 74, 0
8, 66120, Note_on_c, 5, 76, 72
8, 66180, Note_on_c, 5, 76, 0
8, 66180, Note_on_c, 5, 69, 72
8, 66240, Note_on_c, 5, 69, 0
8, 66240, Note_on_c, 5, 79, 72
8, 66270, Note_on_c, 5, 79, 0
8, 66270, Note_on_c, 5, 76, 72
8, 66300, Note_on_c, 5, 76, 0
8, 66300, Note_on_c, 5, 78, 72
8, 66330, Note_on_c, 5, 78, 0
8, 66360, Note_on_c, 5, 78, 72
8, 66600, Note_on_c, 5, 78, 0
8, 66600, Note_on_c, 5, 71, 72
8, 66660, Note_on_c, 5, 71, 0
8, 66660, Note_on_c, 5, 73, 72
8, 66690, Note_on_c, 5, 73, 0
8, 66690, Note_on_c, 5, 74, 72
8, 66720, Note_on_c, 5, 74, 0
8, 66720, Note_on_c, 5, 74, 72
8, 66750, Note_on_c, 5, 74, 0
8, 66750, Note_on_c, 5, 73, 72
8, 66780, Note_on_c, 5, 73, 0
8, 66780, Note_on_c, 5, 71, 72
8, 66810, Note_on_c, 5, 71, 0
8, 66810, Note_on_c, 5, 69, 72
8, 66840, Note_on_c, 5, 69, 0
8, 66840, Note_on_c, 5, 81, 72
8, 66870, Note_on_c, 5, 81, 0
8, 66870, Note_on_c, 5, 80, 72
8, 66900, Note_on_c, 5, 80, 0
8, 66900, Note_on_c, 5, 78, 72
8, 67020, Note_on_c, 5, 78, 0
8, 67020, Note_on_c, 5, 76, 72
8, 67080, Note_on_c, 5, 76, 0
8, 67080, Note_on_c, 5, 75, 72
8, 67170, Note_on_c, 5, 75, 0
8, 67170, Note_on_c, 5, 76, 72
8, 67185, Note_on_c, 5, 76, 0
8, 67185, Note_on_c, 5, 78, 72
8, 67200, Note_on_c, 5, 78, 0
8, 67200, Note_on_c, 5, 76, 72
8, 67260, Note_on_c, 5, 76, 0
8, 67260, Note_on_c, 5, 64, 72
8, 67380, Note_on_c, 5, 64, 0
8, 67380, Note_on_c, 5, 66, 72
8, 67410, Note_on_c, 5, 66, 0
8, 67410, Note_on_c, 5, 68, 72
8, 67440, Note_on_c, 5, 68, 0
8, 67440, Note_on_c, 5, 66, 72
8, 67470, Note_on_c, 5, 66, 0
8, 67470, Note_on_c, 5, 69, 72
8, 67500, Note_on_c, 5, 69, 0
8, 67500, Note_on_c, 5, 68, 72
8, 67620, Note_on_c, 5, 68, 0
8, 67620, Note_on_c, 5, 69, 72
8, 67650, Note_on_c, 5, 69, 0
8, 67650, Note_on_c, 5, 71, 72
8, 67680, Note_on_c, 5, 71, 0
8, 67680, Note_on_c, 5, 69, 72
8, 67710, Note_on_c, 5, 69, 0
8, 67710, Note_on_c, 5, 73, 72
8, 67740, Note_on_c, 5, 73, 0
8, 67740, Note_on_c, 5, 71, 72
8, 67770, Note_on_c, 5, 71, 0
8, 67800, Note_on_c, 5, 71, 72
8, 67830, Note_on_c, 5, 71, 0
8, 67830, Note_on_c, 5, 74, 72
8, 67860, Note_on_c, 5, 74, 0
8, 67860, Note_on_c, 5, 78, 72
8, 67980, Note_on_c, 5, 78, 0
8, 67980, Note_on_c, 5, 76, 72
8, 68010, Note_on_c, 5, 76, 0
8, 68010, Note_on_c, 5, 74, 72
8, 68040, Note_on_c, 5, 74, 0
8, 68040, Note_on_c, 5, 73, 72
8, 68070, Note_on_c, 5, 73, 0
8, 68070, Note_on_c, 5, 71, 72
8, 68100, Note_on_c, 5, 71, 0
8, 68100, Note_on_c, 5, 69, 72
8, 68130, Note_on_c, 5, 69, 0
8, 68130, Note_on_c, 5, 68, 72
8, 68160, Note_on_c, 5, 68, 0
8, 68160, Note_on_c, 5, 66, 72
8, 68190, Note_on_c, 5, 66, 0
8, 68190, Note_on_c, 5, 64, 72
8, 68220, Note_on_c, 5, 64, 0
8, 68220, Note_on_c, 5, 74, 72
8, 68250, Note_on_c, 5, 74, 0
8, 68280, Note_on_c, 5, 73, 72
8, 68310, Note_on_c, 5, 73, 0
8, 68310, Note_on_c, 5, 74, 72
8, 68340, Note_on_c, 5, 74, 0
8, 68340, Note_on_c, 5, 76, 72
8, 68370, Note_on_c, 5, 76, 0
8, 68370, Note_on_c, 5, 69, 72
8, 68400, Note_on_c, 5, 69, 0
8, 68400, Note_on_c, 5, 73, 72
8, 68460, Note_on_c, 5, 73, 0
8, 68460, Note_on_c, 5, 71, 72
8, 68475, Note_on_c, 5, 71, 0
8, 68475, Note_on_c, 5, 73, 72
8, 68490, Note_on_c, 5, 73, 0
8, 68490, Note_on_c, 5, 71, 72
8, 68520, Note_on_c, 5, 71, 0
8, 68520, Note_on_c, 5, 69, 72
8, 68760, Note_on_c, 5, 69, 0
8, 70200, Note_on_c, 5, 73, 48
8, 70230, Note_on_c, 5, 73, 0
8, 70230, Note_on_c, 5, 71, 48
8, 70260, Note_on_c, 5, 71, 0
8, 70260, Note_on_c, 5, 69, 48
8, 70290, Note_on_c, 5, 69, 0
8, 70290, Note_on_c, 5, 68, 48
8, 70320, Note_on_c, 5, 68, 0
8, 70320, Note_on_c, 5, 71, 48
8, 70350, Note_on_c, 5, 71, 0
8, 70350, Note_on_c, 5, 69, 48
8, 70380, Note_on_c, 5, 69, 0
8, 70380, Note_on_c, 5, 68, 48
8, 70410, Note_on_c, 5, 68, 0
8, 70410, Note_on_c, 5, 66, 48
8, 70440, Note_on_c, 5, 66, 0
8, 70440, Note_on_c, 5, 78, 48
8, 70455, Note_on_c, 5, 78, 0
8, 70455, Note_on_c, 5, 80, 48
8, 70470, Note_on_c, 5, 80, 0
8, 70470, Note_on_c, 5, 81, 48
8, 70560, Note_on_c, 5, 81, 0
8, 70560, Note_on_c, 5, 80, 48
8, 70620, Note_on_c, 5, 80, 0
8, 70680, Note_on_c, 5, 77, 48
8, 70695, Note_on_c, 5, 77, 0
8, 70695, Note_on_c, 5, 78, 48
8, 70710, Note_on_c, 5, 78, 0
8, 70710, Note_on_c, 5, 77, 48
8, 70800, Note_on_c, 5, 77, 0
8, 70800, Note_on_c, 5, 73, 48
8, 70860, Note_on_c, 5, 73, 0
8, 72180, Note_on_c, 5, 65, 48
8, 72300, Note_on_c, 5, 65, 0
8, 72300, Note_on_c, 5, 66, 48
8, 72330, Note_on_c, 5, 66, 0
8, 72330, Note_on_c, 5, 68, 48
8, 72360, Note_on_c, 5, 68, 0
8, 72360, Note_on_c, 5, 62, 48
8, 72420, Note_on_c, 5, 62, 0
8, 72420, Note_on_c, 5, 61, 48
8, 72540, Note_on_c, 5, 61, 0
8, 72540, Note_on_c, 5, 73, 48
8, 72600, Note_on_c, 5, 73, 0
8, 72600, Note_on_c, 5, 71, 48
8, 72630, Note_on_c, 5, 71, 0
8, 72630, Note_on_c, 5, 69, 48
8, 72660, Note_on_c, 5, 69, 0
8, 72660, Note_on_c, 5, 68, 48
8, 72690, Note_on_c, 5, 68, 0
8, 72690, Note_on_c, 5, 66, 48
8, 72720, Note_on_c, 5, 66, 0
8, 72720, Note_on_c, 5, 69, 48
8, 72780, Note_on_c, 5, 69, 0
8, 72780, Note_on_c, 5, 68, 48
8, 72795, Note_on_c, 5, 68, 0
8, 72795, Note_on_c, 5, 69, 48
8, 72810, Note_on_c, 5, 69, 0
8, 72810, Note_on_c, 5, 68, 48
8, 72840, Note_on_c, 5, 68, 0
8, 72840, Note_on_c, 5, 66, 48
8, 72930, Note_on_c, 5, 66, 0
8, 72930, Note_on_c, 5, 68, 48
8, 72960, Note_on_c, 5, 68, 0
8, 72960, Note_on_c, 5, 69, 72
8, 72990, Note_on_c, 5, 69, 0
8, 72990, Note_on_c, 5, 71, 72
8, 73020, Note_on_c, 5, 71, 0
8, 73020, Note_on_c, 5, 73, 72
8, 73050, Note_on_c, 5, 73, 0
8, 73050, Note_on_c, 5, 75, 72
8, 73080, Note_on_c, 5, 75, 0
8, 73080, Note_on_c, 5, 77, 72
8, 73110, Note_on_c, 5, 77, 0
8, 73110, Note_on_c, 5, 78, 72
8, 73140, Note_on_c, 5, 78, 0
8, 73140, Note_on_c, 5, 80, 72
8, 73170, Note_on_c, 5, 80, 0
8, 73170, Note_on_c, 5, 77, 72
8, 73200, Note_on_c, 5, 77, 0
8, 73200, Note_on_c, 5, 81, 72
8, 73230, Note_on_c, 5, 81, 0
8, 73230, Note_on_c, 5, 80, 72
8, 73260, Note_on_c, 5, 80, 0
8, 73260, Note_on_c, 5, 78, 72
8, 73350, Note_on_c, 5, 78, 0
8, 73350, Note_on_c, 5, 76, 72
8, 73380, Note_on_c, 5, 76, 0
8, 73380, Note_on_c, 5, 75, 72
8, 73440, Note_on_c, 5, 75, 0
8, 73440, Note_on_c, 5, 73, 72
8, 73470, Note_on_c, 5, 73, 0
8, 73470, Note_on_c, 5, 75, 72
8, 73500, Note_on_c, 5, 75, 0
8, 73500, Note_on_c, 5, 72, 72
8, 73560, Note_on_c, 5, 72, 0
8, 73560, Note_on_c, 5, 73, 72
8, 73620, Note_on_c, 5, 73, 0
8, 73620, Note_on_c, 5, 83, 72
8, 73740, Note_on_c, 5, 83, 0
8, 73740, Note_on_c, 5, 81, 72
8, 73770, Note_on_c, 5, 81, 0
8, 73770, Note_on_c, 5, 80, 72
8, 73800, Note_on_c, 5, 80, 0
8, 73800, Note_on_c, 5, 81, 72
8, 73830, Note_on_c, 5, 81, 0
8, 73830, Note_on_c, 5, 78, 72
8, 73860, Note_on_c, 5, 78, 0
8, 73860, Note_on_c, 5, 80, 72
8, 73890, Note_on_c, 5, 80, 0
8, 73890, Note_on_c, 5, 77, 72
8, 73920, Note_on_c, 5, 77, 0
8, 73920, Note_on_c, 5, 78, 72
8, 73950, Note_on_c, 5, 78, 0
8, 73950, Note_on_c, 5, 73, 72
8, 73980, Note_on_c, 5, 73, 0
8, 73980, Note_on_c, 5, 74, 72
8, 74010, Note_on_c, 5, 74, 0
8, 74010, Note_on_c, 5, 71, 72
8, 74040, Note_on_c, 5, 71, 0
8, 74040, Note_on_c, 5, 73, 72
8, 74070, Note_on_c, 5, 73, 0
8, 74070, Note_on_c, 5, 69, 72
8, 74100, Note_on_c, 5, 69, 0
8, 74100, Note_on_c, 5, 68, 72
8, 74130, Note_on_c, 5, 68, 0
8, 74130, Note_on_c, 5, 66, 72
8, 74160, Note_on_c, 5, 66, 0
8, 74160, Note_on_c, 5, 61, 72
8, 74220, Note_on_c, 5, 61, 0
8, 74220, Note_on_c, 5, 77, 72
8, 74280, Note_on_c, 5, 77, 0
8, 74280, Note_on_c, 5, 78, 72
8, 74340, Note_on_c, 5, 78, 0
8, 74340, Note_on_c, 5, 76, 72
8, 74370, Note_on_c, 5, 76, 0
8, 74370, Note_on_c, 5, 74, 72
8, 74400, Note_on_c, 5, 74, 0
8, 74400, Note_on_c, 5, 73, 72
8, 74430, Note_on_c, 5, 73, 0
8, 74430, Note_on_c, 5, 71, 72
8, 74460, Note_on_c, 5, 71, 0
8, 74460, Note_on_c, 5, 69, 72
8, 74490, Note_on_c, 5, 69, 0
8, 74490, Note_on_c, 5, 68, 72
8, 74520, Note_on_c, 5, 68, 0
8, 74520, Note_on_c, 5, 66, 72
8, 74580, Note_on_c, 5, 66, 0
8, 75960, Note_on_c, 5, 76, 52
8, 75990, Note_on_c, 5, 76, 0
8, 75990, Note_on_c, 5, 74, 52
8, 76020, Note_on_c, 5, 74, 0
8, 76020, Note_on_c, 5, 73, 52
8, 76050, Note_on_c, 5, 73, 0
8, 76050, Note_on_c, 5, 71, 52
8, 76080, Note_on_c, 5, 71, 0
8, 76080, Note_on_c, 5, 74, 52
8, 76110, Note_on_c, 5, 74, 0
8, 76110, Note_on_c, 5, 73, 52
8, 76140, Note_on_c, 5, 73, 0
8, 76140, Note_on_c, 5, 71, 52
8, 76170, Note_on_c, 5, 71, 0
8, 76170, Note_on_c, 5, 69, 52
8, 76200, Note_on_c, 5, 69, 0
8, 76200, Note_on_c, 5, 81, 52
8, 76230, Note_on_c, 5, 81, 0
8, 76230, Note_on_c, 5, 80, 52
8, 76260, Note_on_c, 5, 80, 0
8, 76260, Note_on_c, 5, 78, 52
8, 76380, Note_on_c, 5, 78, 0
8, 76380, Note_on_c, 5, 76, 52
8, 76440, Note_on_c, 5, 76, 0
8, 76440, Note_on_c, 5, 75, 52
8, 76530, Note_on_c, 5, 75, 0
8, 76530, Note_on_c, 5, 76, 52
8, 76545, Note_on_c, 5, 76, 0
8, 76545, Note_on_c, 5, 78, 52
8, 76560, Note_on_c, 5, 78, 0
8, 76560, Note_on_c, 5, 76, 52
8, 76620, Note_on_c, 5, 76, 0
8, 78060, Note_on_c, 5, 76, 52
8, 78090, Note_on_c, 5, 76, 0
8, 78090, Note_on_c, 5, 74, 52
8, 78120, Note_on_c, 5, 74, 0
8, 78120, Note_on_c, 5, 73, 52
8, 78150, Note_on_c, 5, 73, 0
8, 78150, Note_on_c, 5, 71, 52
8, 78180, Note_on_c, 5, 71, 0
8, 78180, Note_on_c, 5, 69, 52
8, 78210, Note_on_c, 5, 69, 0
8, 78210, Note_on_c, 5, 68, 52
8, 78240, Note_on_c, 5, 68, 0
8, 78240, Note_on_c, 5, 66, 52
8, 78270, Note_on_c, 5, 66, 0
8, 78270, Note_on_c, 5, 64, 52
8, 78300, Note_on_c, 5, 64, 0
8, 78300, Note_on_c, 5, 74, 52
8, 78330, Note_on_c, 5, 74, 0
8, 78360, Note_on_c, 5, 73, 52
8, 78390, Note_on_c, 5, 73, 0
8, 78390, Note_on_c, 5, 74, 52
8, 78420, Note_on_c, 5, 74, 0
8, 78420, Note_on_c, 5, 76, 52
8, 78450, Note_on_c, 5, 76, 0
8, 78450, Note_on_c, 5, 69, 52
8, 78480, Note_on_c, 5, 69, 0
8, 78480, Note_on_c, 5, 73, 52
8, 78540, Note_on_c, 5, 73, 0
8, 78540, Note_on_c, 5, 71, 52
8, 78555, Note_on_c, 5, 71, 0
8, 78555, Note_on_c, 5, 73, 52
8, 78570, Note_on_c, 5, 73, 0
8, 78570, Note_on_c, 5, 71, 52
8, 78600, Note_on_c, 5, 71, 0
8, 78600, Note_on_c, 5, 69, 52
8, 78660, Note_on_c, 5, 69, 0
8, 78660, Note_on_c, 5, 68, 55
8, 78690, Note_on_c, 5, 68, 0
8, 78690, Note_on_c, 5, 66, 56
8, 78720, Note_on_c, 5, 66, 0
8, 78720, Note_on_c, 5, 64, 58
8, 78750, Note_on_c, 5, 64, 0
8, 78750, Note_on_c, 5, 62, 60
8, 78780, Note_on_c, 5, 62, 0
8, 78780, Note_on_c, 5, 61, 61
8, 78810, Note_on_c, 5, 61, 0
8, 78810, Note_on_c, 5, 59, 63
8, 78840, Note_on_c, 5, 59, 0
8, 78840, Note_on_c, 5, 57, 64
8, 78870, Note_on_c, 5, 57, 0
8, 78870, Note_on_c, 5, 69, 66
8, 78900, Note_on_c, 5, 69, 0
8, 78900, Note_on_c, 5, 71, 68
8, 78930, Note_on_c, 5, 71, 0
8, 78930, Note_on_c, 5, 73, 69
8, 78960, Note_on_c, 5, 73, 0
8, 78960, Note_on_c, 5, 74, 72
8, 78990, Note_on_c, 5, 74, 0
8, 78990, Note_on_c, 5, 73, 72
8, 79020, Note_on_c, 5, 73, 0
8, 79020, Note_on_c, 5, 71, 72
8, 79050, Note_on_c, 5, 71, 0
8, 79050, Note_on_c, 5, 69, 72
8, 79080, Note_on_c, 5, 69, 0
8, 79080, Note_on_c, 5, 78, 72
8, 79140, Note_on_c, 5, 78, 0
8, 79200, Note_on_c, 5, 76, 72
8, 79260, Note_on_c, 5, 76, 0
8, 79320, Note_on_c, 5, 74, 72
8, 79335, Note_on_c, 5, 74, 0
8, 79335, Note_on_c, 5, 76, 72
8, 79350, Note_on_c, 5, 76, 0
8, 79350, Note_on_c, 5, 74, 72
8, 79440, Note_on_c, 5, 74, 0
8, 79440, Note_on_c, 5, 73, 72
8, 79500, Note_on_c, 5, 73, 0
8, 79500, Note_on_c, 5, 71, 72
8, 79620, Note_on_c, 5, 71, 0
8, 79620, Note_on_c, 5, 73, 72
8, 79650, Note_on_c, 5, 73, 0
8, 79650, Note_on_c, 5, 74, 72
8, 79680, Note_on_c, 5, 74, 0
8, 79680, Note_on_c, 5, 68, 72
8, 79740, Note_on_c, 5, 68, 0
8, 79740, Note_on_c, 5, 69, 72
8, 79860, Note_on_c, 5, 69, 0
8, 79860, Note_on_c, 5, 71, 72
8, 79920, Note_on_c, 5, 71, 0
8, 79920, Note_on_c, 5, 73, 72
8, 79950, Note_on_c, 5, 73, 0
8, 79950, Note_on_c, 5, 69, 72
8, 79980, Note_on_c, 5, 69, 0
8, 79980, Note_on_c, 5, 74, 72
8, 80010, Note_on_c, 5, 74, 0
8, 80040, Note_on_c, 5, 73, 72
8, 80160, Note_on_c, 5, 73, 0
8, 80160, Note_on_c, 5, 71, 72
8, 80280, Note_on_c, 5, 71, 0
8, 80280, Note_on_c, 5, 69, 48
8, 80340, Note_on_c, 5, 69, 0
8, 80340, Note_on_c, 5, 71, 48
8, 80370, Note_on_c, 5, 71, 0
8, 80370, Note_on_c, 5, 73, 48
8, 80400, Note_on_c, 5, 73, 0
8, 80400, Note_on_c, 5, 74, 48
8, 80430, Note_on_c, 5, 74, 0
8, 80430, Note_on_c, 5, 73, 48
8, 80460, Note_on_c, 5, 73, 0
8, 80460, Note_on_c, 5, 71, 48
8, 80490, Note_on_c, 5, 71, 0
8, 80490, Note_on_c, 5, 69, 48
8, 80520, Note_on_c, 5, 69, 0
8, 80520, Note_on_c, 5, 78, 48
8, 80580, Note_on_c, 5, 78, 0
8, 80640, Note_on_c, 5, 76, 48
8, 80700, Note_on_c, 5, 76, 0
8, 80760, Note_on_c, 5, 74, 48
8, 80775, Note_on_c, 5, 74, 0
8, 80775, Note_on_c, 5, 76, 48
8, 80790, Note_on_c, 5, 76, 0
8, 80790, Note_on_c, 5, 74, 48
8, 80880, Note_on_c, 5, 74, 0
8, 80880, Note_on_c, 5, 73, 48
8, 80940, Note_on_c, 5, 73, 0
8, 80940, Note_on_c, 5, 71, 48
8, 81060, Note_on_c, 5, 71, 0
8, 81060, Note_on_c, 5, 73, 48
8, 81090, Note_on_c, 5, 73, 0
8, 81090, Note_on_c, 5, 74, 48
8, 81120, Note_on_c, 5, 74, 0
8, 81120, Note_on_c, 5, 68, 48
8, 81180, Note_on_c, 5, 68, 0
8, 81180, Note_on_c, 5, 69, 48
8, 81300, Note_on_c, 5, 69, 0
8, 81300, Note_on_c, 5, 71, 48
8, 81360, Note_on_c, 5, 71, 0
8, 81360, Note_on_c, 5, 73, 48
8, 81390, Note_on_c, 5, 73, 0
8, 81390, Note_on_c, 5, 69, 48
8, 81420, Note_on_c, 5, 69, 0
8, 81420, Note_on_c, 5, 74, 48
8, 81450, Note_on_c, 5, 74, 0
8, 81480, Note_on_c, 5, 73, 48
8, 81600, Note_on_c, 5, 73, 0
8, 81600, Note_on_c, 5, 71, 48
8, 81720, Note_on_c, 5, 71, 0
8, 81720, Note_on_c, 5, 75, 72
8, 81750, Note_on_c, 5, 75, 0
8, 81750, Note_on_c, 5, 76, 72
8, 81780, Note_on_c, 5, 76, 0
8, 81780, Note_on_c, 5, 78, 72
8, 81810, Note_on_c, 5, 78, 0
8, 81810, Note_on_c, 5, 75, 72
8, 81840, Note_on_c, 5, 75, 0
8, 81840, Note_on_c, 5, 79, 72
8, 81870, Note_on_c, 5, 79, 0
8, 81870, Note_on_c, 5, 78, 72
8, 81900, Note_on_c, 5, 78, 0
8, 81900, Note_on_c, 5, 76, 72
8, 81990, Note_on_c, 5, 76, 0
8, 81990, Note_on_c, 5, 74, 72
8, 82020, Note_on_c, 5, 74, 0
8, 82020, Note_on_c, 5, 73, 72
8, 82080, Note_on_c, 5, 73, 0
8, 82080, Note_on_c, 5, 71, 72
8, 82110, Note_on_c, 5, 71, 0
8, 82110, Note_on_c, 5, 73, 72
8, 82140, Note_on_c, 5, 73, 0
8, 82140, Note_on_c, 5, 70, 72
8, 82200, Note_on_c, 5, 70, 0
8, 82200, Note_on_c, 5, 69, 72
8, 82260, Note_on_c, 5, 69, 0
8, 82260, Note_on_c, 5, 67, 72
8, 82380, Note_on_c, 5, 67, 0
8, 82380, Note_on_c, 5, 66, 72
8, 82410, Note_on_c, 5, 66, 0
8, 82410, Note_on_c, 5, 64, 72
8, 82440, Note_on_c, 5, 64, 0
8, 82440, Note_on_c, 5, 63, 72
8, 82470, Note_on_c, 5, 63, 0
8, 82470, Note_on_c, 5, 64, 72
8, 82500, Note_on_c, 5, 64, 0
8, 82500, Note_on_c, 5, 66, 72
8, 82530, Note_on_c, 5, 66, 0
8, 82530, Note_on_c, 5, 68, 72
8, 82560, Note_on_c, 5, 68, 0
8, 82560, Note_on_c, 5, 69, 72
8, 82590, Note_on_c, 5, 69, 0
8, 82590, Note_on_c, 5, 73, 72
8, 82620, Note_on_c, 5, 73, 0
8, 82620, Note_on_c, 5, 71, 72
8, 82740, Note_on_c, 5, 71, 0
8, 82740, Note_on_c, 5, 64, 72
8, 82800, Note_on_c, 5, 64, 0
8, 82800, Note_on_c, 5, 68, 72
8, 82830, Note_on_c, 5, 68, 0
8, 82830, Note_on_c, 5, 66, 72
8, 82860, Note_on_c, 5, 66, 0
8, 82860, Note_on_c, 5, 64, 72
8, 82890, Note_on_c, 5, 64, 0
8, 82890, Note_on_c, 5, 63, 72
8, 82920, Note_on_c, 5, 63, 0
8, 82920, Note_on_c, 5, 64, 72
8, 83160, Note_on_c, 5, 64, 0
8, 83160, Note_on_c, 5, 71, 72
8, 83220, Note_on_c, 5, 71, 0
8, 83220, Note_on_c, 5, 73, 72
8, 83250, Note_on_c, 5, 73, 0
8, 83250, Note_on_c, 5, 74, 72
8, 83280, Note_on_c, 5, 74, 0
8, 83280, Note_on_c, 5, 76, 72
8, 83340, Note_on_c, 5, 76, 0
8, 83340, Note_on_c, 5, 74, 72
8, 83400, Note_on_c, 5, 74, 0
8, 83400, Note_on_c, 5, 73, 72
8, 83460, Note_on_c, 5, 73, 0
8, 83460, Note_on_c, 5, 71, 72
8, 83490, Note_on_c, 5, 71, 0
8, 83490, Note_on_c, 5, 70, 72
8, 83520, Note_on_c, 5, 70, 0
8, 83520, Note_on_c, 5, 71, 72
8, 83550, Note_on_c, 5, 71, 0
8, 83550, Note_on_c, 5, 74, 72
8, 83580, Note_on_c, 5, 74, 0
8, 83580, Note_on_c, 5, 73, 72
8, 83610, Note_on_c, 5, 73, 0
8, 83640, Note_on_c, 5, 74, 72
8, 83880, Note_on_c, 5, 74, 0
8, 83880, Note_on_c, 5, 73, 72
8, 83910, Note_on_c, 5, 73, 0
8, 83910, Note_on_c, 5, 71, 72
8, 83940, Note_on_c, 5, 71, 0
8, 83940, Note_on_c, 5, 69, 72
8, 83970, Note_on_c, 5, 69, 0
8, 83970, Note_on_c, 5, 68, 72
8, 84000, Note_on_c, 5, 68, 0
8, 84000, Note_on_c, 5, 71, 72
8, 84030, Note_on_c, 5, 71, 0
8, 84030, Note_on_c, 5, 69, 72
8, 84060, Note_on_c, 5, 69, 0
8, 84060, Note_on_c, 5, 68, 72
8, 84090, Note_on_c, 5, 68, 0
8, 84090, Note_on_c, 5, 66, 72
8, 84120, Note_on_c, 5, 66, 0
8, 84120, Note_on_c, 5, 78, 72
8, 84135, Note_on_c, 5, 78, 0
8, 84135, Note_on_c, 5, 80, 72
8, 84150, Note_on_c, 5, 80, 0
8, 84150, Note_on_c, 5, 81, 72
8, 84180, Note_on_c, 5, 81, 0
8, 84240, Note_on_c, 5, 80, 72
8, 84300, Note_on_c, 5, 80, 0
8, 84360, Note_on_c, 5, 77, 72
8, 84375, Note_on_c, 5, 77, 0
8, 84375, Note_on_c, 5, 78, 72
8, 84390, Note_on_c, 5, 78, 0
8, 84390, Note_on_c, 5, 77, 72
8, 84480, Note_on_c, 5, 77, 0
8, 84480, Note_on_c, 5, 73, 72
8, 84540, Note_on_c, 5, 73, 0
8, 84540, Note_on_c, 5, 78, 72
8, 84660, Note_on_c, 5, 78, 0
8, 84660, Note_on_c, 5, 76, 72
8, 84690, Note_on_c, 5, 76, 0
8, 84690, Note_on_c, 5, 74, 72
8, 84720, Note_on_c, 5, 74, 0
8, 84720, Note_on_c, 5, 76, 72
8, 84750, Note_on_c, 5, 76, 0
8, 84750, Note_on_c, 5, 73, 72
8, 84780, Note_on_c, 5, 73, 0
8, 84780, Note_on_c, 5, 74, 72
8, 84900, Note_on_c, 5, 74, 0
8, 84900, Note_on_c, 5, 73, 72
8, 84930, Note_on_c, 5, 73, 0
8, 84930, Note_on_c, 5, 71, 72
8, 84960, Note_on_c, 5, 71, 0
8, 84960, Note_on_c, 5, 73, 72
8, 84990, Note_on_c, 5, 73, 0
8, 84990, Note_on_c, 5, 69, 72
8, 85020, Note_on_c, 5, 69, 0
8, 85020, Note_on_c, 5, 71, 72
8, 85050, Note_on_c, 5, 71, 0
8, 85080, Note_on_c, 5, 71, 72
8, 85140, Note_on_c, 5, 71, 0
8, 85140, Note_on_c, 5, 65, 72
8, 85260, Note_on_c, 5, 65, 0
8, 85260, Note_on_c, 5, 66, 72
8, 85290, Note_on_c, 5, 66, 0
8, 85290, Note_on_c, 5, 68, 72
8, 85320, Note_on_c, 5, 68, 0
8, 85320, Note_on_c, 5, 62, 72
8, 85380, Note_on_c, 5, 62, 0
8, 85380, Note_on_c, 5, 61, 72
8, 85500, Note_on_c, 5, 61, 0
8, 85500, Note_on_c, 5, 73, 72
8, 85530, Note_on_c, 5, 73, 0
8, 85560, Note_on_c, 5, 71, 72
8, 85590, Note_on_c, 5, 71, 0
8, 85590, Note_on_c, 5, 69, 72
8, 85620, Note_on_c, 5, 69, 0
8, 85620, Note_on_c, 5, 68, 72
8, 85650, Note_on_c, 5, 68, 0
8, 85650, Note_on_c, 5, 66, 72
8, 85680, Note_on_c, 5, 66, 0
8, 85680, Note_on_c, 5, 69, 72
8, 85740, Note_on_c, 5, 69, 0
8, 85740, Note_on_c, 5, 68, 72
8, 85800, Note_on_c, 5, 68, 0
8, 85800, Note_on_c, 5, 66, 72
8, 86040, Note_on_c, 5, 66, 0
8, 86040, Note_on_c, 5, 66, 72
8, 86070, Note_on_c, 5, 66, 0
8, 86070, Note_on_c, 5, 68, 72
8, 86100, Note_on_c, 5, 68, 0
8, 86100, Note_on_c, 5, 69, 72
8, 86130, Note_on_c, 5, 69, 0
8, 86130, Note_on_c, 5, 71, 72
8, 86160, Note_on_c, 5, 71, 0
8, 86160, Note_on_c, 5, 73, 72
8, 86190, Note_on_c, 5, 73, 0
8, 86190, Note_on_c, 5, 71, 72
8, 86220, Note_on_c, 5, 71, 0
8, 86220, Note_on_c, 5, 73, 72
8, 86250, Note_on_c, 5, 73, 0
8, 86250, Note_on_c, 5, 74, 72
8, 86280, Note_on_c, 5, 74, 0
8, 86280, Note_on_c, 5, 76, 72
8, 86340, Note_on_c, 5, 76, 0
8, 86340, Note_on_c, 5, 69, 72
8, 86400, Note_on_c, 5, 69, 0
8, 86400, Note_on_c, 5, 79, 72
8, 86430, Note_on_c, 5, 79, 0
8, 86430, Note_on_c, 5, 76, 72
8, 86460, Note_on_c, 5, 76, 0
8, 86460, Note_on_c, 5, 78, 72
8, 86490, Note_on_c, 5, 78, 0
8, 86520, Note_on_c, 5, 78, 72
8, 86760, Note_on_c, 5, 78, 0
8, 86760, Note_on_c, 5, 71, 72
8, 86820, Note_on_c, 5, 71, 0
8, 86820, Note_on_c, 5, 73, 72
8, 86850, Note_on_c, 5, 73, 0
8, 86850, Note_on_c, 5, 74, 72
8, 86880, Note_on_c, 5, 74, 0
8, 86880, Note_on_c, 5, 74, 72
8, 86910, Note_on_c, 5, 74, 0
8, 86910, Note_on_c, 5, 73, 72
8, 86940, Note_on_c, 5, 73, 0
8, 86940, Note_on_c, 5, 71, 72
8, 86970, Note_on_c, 5, 71, 0
8, 86970, Note_on_c, 5, 69, 72
8, 87000, Note_on_c, 5, 69, 0
8, 87000, Note_on_c, 5, 81, 72
8, 87030, Note_on_c, 5, 81, 0
8, 87030, Note_on_c, 5, 80, 72
8, 87060, Note_on_c, 5, 80, 0
8, 87060, Note_on_c, 5, 78, 72
8, 87180, Note_on_c, 5, 78, 0
8, 87180, Note_on_c, 5, 76, 72
8, 87240, Note_on_c, 5, 76, 0
8, 87240, Note_on_c, 5, 75, 72
8, 87330, Note_on_c, 5, 75, 0
8, 87330, Note_on_c, 5, 76, 72
8, 87345, Note_on_c, 5, 76, 0
8, 87345, Note_on_c, 5, 78, 72
8, 87360, Note_on_c, 5, 78, 0
8, 87360, Note_on_c, 5, 76, 72
8, 87420, Note_on_c, 5, 76, 0
8, 87420, Note_on_c, 5, 64, 72
8, 87540, Note_on_c, 5, 64, 0
8, 87540, Note_on_c, 5, 66, 72
8, 87570, Note_on_c, 5, 66, 0
8, 87570, Note_on_c, 5, 68, 72
8, 87600, Note_on_c, 5, 68, 0
8, 87600, Note_on_c, 5, 66, 72
8, 87630, Note_on_c, 5, 66, 0
8, 87630, Note_on_c, 5, 69, 72
8, 87660, Note_on_c, 5, 69, 0
8, 87660, Note_on_c, 5, 68, 72
8, 87780, Note_on_c, 5, 68, 0
8, 87780, Note_on_c, 5, 69, 72
8, 87810, Note_on_c, 5, 69, 0
8, 87810, Note_on_c, 5, 71, 72
8, 87840, Note_on_c, 5, 71, 0
8, 87840, Note_on_c, 5, 69, 72
8, 87870, Note_on_c, 5, 69, 0
8, 87870, Note_on_c, 5, 73, 72
8, 87900, Note_on_c, 5, 73, 0
8, 87900, Note_on_c, 5, 71, 72
8, 87930, Note_on_c, 5, 71, 0
8, 87960, Note_on_c, 5, 71, 72
8, 87990, Note_on_c, 5, 71, 0
8, 87990, Note_on_c, 5, 74, 72
8, 88020, Note_on_c, 5, 74, 0
8, 88020, Note_on_c, 5, 78, 72
8, 88140, Note_on_c, 5, 78, 0
8, 88140, Note_on_c, 5, 76, 72
8, 88170, Note_on_c, 5, 76, 0
8, 88170, Note_on_c, 5, 74, 72
8, 88200, Note_on_c, 5, 74, 0
8, 88200, Note_on_c, 5, 73, 72
8, 88230, Note_on_c, 5, 73, 0
8, 88230, Note_on_c, 5, 71, 72
8, 88260, Note_on_c, 5, 71, 0
8, 88260, Note_on_c, 5, 69, 72
8, 88290, Note_on_c, 5, 69, 0
8, 88290, Note_on_c, 5, 68, 72
8, 88320, Note_on_c, 5, 68, 0
8, 88320, Note_on_c, 5, 66, 72
8, 88350, Note_on_c, 5, 66, 0
8, 88350, Note_on_c, 5, 64, 72
8, 88380, Note_on_c, 5, 64, 0
8, 88380, Note_on_c, 5, 74, 72
8, 88410, Note_on_c, 5, 74, 0
8, 88440, Note_on_c, 5, 73, 72
8, 88470, Note_on_c, 5, 73, 0
8, 88470, Note_on_c, 5, 74, 72
8, 88500, Note_on_c, 5, 74, 0
8, 88500, Note_on_c, 5, 76, 72
8, 88530, Note_on_c, 5, 76, 0
8, 88530, Note_on_c, 5, 69, 72
8, 88560, Note_on_c, 5, 69, 0
8, 88560, Note_on_c, 5, 73, 72
8, 88620, Note_on_c, 5, 73, 0
8, 88620, Note_on_c, 5, 71, 72
8, 88635, Note_on_c, 5, 71, 0
8, 88635, Note_on_c, 5, 73, 72
8, 88650, Note_on_c, 5, 73, 0
8, 88650, Note_on_c, 5, 71, 72
8, 88680, Note_on_c, 5, 71, 0
8, 88680, Note_on_c, 5, 69, 72
8, 88920, Note_on_c, 5, 69, 0
8, 97080, Note_on_c, 5, 67, 80
8, 97200, Note_on_c, 5, 67, 0
8, 97200, Note_on_c, 5, 67, 80
8, 97260, Note_on_c, 5, 67, 0
8, 97260, Note_on_c, 5, 69, 80
8, 97320, Note_on_c, 5, 69, 0
8, 97320, Note_on_c, 5, 71, 80
8, 97440, Note_on_c, 5, 71, 0
8, 97440, Note_on_c, 5, 69, 80
8, 97560, Note_on_c, 5, 69, 0
8, 97560, Note_on_c, 5, 67, 80
8, 97680, Note_on_c, 5, 67, 0
8, 97680, Note_on_c, 5, 69, 80
8, 97800, Note_on_c, 5, 69, 0
8, 97800, Note_on_c, 5, 69, 80
8, 97920, Note_on_c, 5, 69, 0
8, 97920, Note_on_c, 5, 71, 80
8, 98028, Note_on_c, 5, 71, 0
8, 98040, Note_on_c, 5, 67, 80
8, 98100, Note_on_c, 5, 67, 0
8, 98100, Note_on_c, 5, 69, 80
8, 98160, Note_on_c, 5, 69, 0
8, 98160, Note_on_c, 5, 71, 80
8, 98280, Note_on_c, 5, 71, 0
8, 98280, Note_on_c, 5, 72, 80
8, 98400, Note_on_c, 5, 72, 0
8, 98400, Note_on_c, 5, 74, 80
8, 98520, Note_on_c, 5, 74, 0
8, 98520, Note_on_c, 5, 72, 80
8, 98580, Note_on_c, 5, 72, 0
8, 98580, Note_on_c, 5, 71, 80
8, 98640, Note_on_c, 5, 71, 0
8, 98640, Note_on_c, 5, 69, 80
8, 98700, Note_on_c, 5, 69, 0
8, 98700, Note_on_c, 5, 67, 80
8, 98760, Note_on_c, 5, 67, 0
8, 98760, Note_on_c, 5, 69, 80
8, 98880, Note_on_c, 5, 69, 0
8, 98880, Note_on_c, 5, 67, 80
8, 98988, Note_on_c, 5, 67, 0
8, 99000, Note_on_c, 5, 67, 80
8, 99120, Note_on_c, 5, 67, 0
8, 99120, Note_on_c, 5, 67, 80
8, 99180, Note_on_c, 5, 67, 0
8, 99180, Note_on_c, 5, 69, 80
8, 99240, Note_on_c, 5, 69, 0
8, 99240, Note_on_c, 5, 71, 80
8, 99360, Note_on_c, 5, 71, 0
8, 99360, Note_on_c, 5, 69, 80
8, 99480, Note_on_c, 5, 69, 0
8, 99480, Note_on_c, 5, 67, 80
8, 99600, Note_on_c, 5, 67, 0
8, 99600, Note_on_c, 5, 69, 80
8, 99720, Note_on_c, 5, 69, 0
8, 99720, Note_on_c, 5, 69, 80
8, 99840, Note_on_c, 5, 69, 0
8, 99840, Note_on_c, 5, 71, 80
8, 99948, Note_on_c, 5, 71, 0
8, 99960, Note_on_c, 5, 67, 80
8, 100020, Note_on_c, 5, 67, 0
8, 100020, Note_on_c, 5, 69, 80
8, 100080, Note_on_c, 5, 69, 0
8, 100080, Note_on_c, 5, 71, 80
8, 100200, Note_on_c, 5, 71, 0
8, 100200, Note_on_c, 5, 72, 80
8, 100320, Note_on_c, 5, 72, 0
8, 100320, Note_on_c, 5, 74, 80
8, 100440, Note_on_c, 5, 74, 0
8, 100440, Note_on_c, 5, 72, 80
8, 100500, Note_on_c, 5, 72, 0
8, 100500, Note_on_c, 5, 71, 80
8, 100560, Note_on_c, 5, 71, 0
8, 100560, Note_on_c, 5, 69, 80
8, 100620, Note_on_c, 5, 69, 0
8, 100620, Note_on_c, 5, 67, 80
8, 100680, Note_on_c, 5, 67, 0
8, 100680, Note_on_c, 5, 69, 80
8, 100800, Note_on_c, 5, 69, 0
8, 100800, Note_on_c, 5, 67, 80
8, 100908, Note_on_c, 5, 67, 0
8, 100920, Note_on_c, 5, 71, 80
8, 101040, Note_on_c, 5, 71, 0
8, 101040, Note_on_c, 5, 71, 80
8, 101160, Note_on_c, 5, 71, 0
8, 101160, Note_on_c, 5, 69, 80
8, 101280, Note_on_c, 5, 69, 0
8, 101280, Note_on_c, 5, 67, 80
8, 101400, Note_on_c, 5, 67, 0
8, 101400, Note_on_c, 5, 66, 80
8, 101520, Note_on_c, 5, 66, 0
8, 101520, Note_on_c, 5, 67, 80
8, 101580, Note_on_c, 5, 67, 0
8, 101580, Note_on_c, 5, 69, 80
8, 101640, Note_on_c, 5, 69, 0
8, 101640, Note_on_c, 5, 71, 80
8, 101760, Note_on_c, 5, 71, 0
8, 101760, Note_on_c, 5, 69, 80
8, 101868, Note_on_c, 5, 69, 0
8, 101880, Note_on_c, 5, 69, 80
8, 102000, Note_on_c, 5, 69, 0
8, 102000, Note_on_c, 5, 67, 80
8, 102120, Note_on_c, 5, 67, 0
8, 102120, Note_on_c, 5, 66, 80
8, 102240, Note_on_c, 5, 66, 0
8, 102240, Note_on_c, 5, 67, 80
8, 102360, Note_on_c, 5, 67, 0
8, 102360, Note_on_c, 5, 62, 80
8, 102480, Note_on_c, 5, 62, 0
8, 102480, Note_on_c, 5, 67, 80
8, 102600, Note_on_c, 5, 67, 0
8, 102600, Note_on_c, 5, 69, 80
8, 102720, Note_on_c, 5, 69, 0
8, 102720, Note_on_c, 5, 71, 80
8, 102828, Note_on_c, 5, 71, 0
8, 102840, Note_on_c, 5, 67, 80
8, 102900, Note_on_c, 5, 67, 0
8, 102900, Note_on_c, 5, 69, 80
8, 102960, Note_on_c, 5, 69, 0
8, 102960, Note_on_c, 5, 71, 80
8, 103080, Note_on_c, 5, 71, 0
8, 103080, Note_on_c, 5, 72, 80
8, 103200, Note_on_c, 5, 72, 0
8, 103200, Note_on_c, 5, 74, 80
8, 103320, Note_on_c, 5, 74, 0
8, 103320, Note_on_c, 5, 72, 80
8, 103380, Note_on_c, 5, 72, 0
8, 103380, Note_on_c, 5, 71, 80
8, 103440, Note_on_c, 5, 71, 0
8, 103440, Note_on_c, 5, 69, 80
8, 103500, Note_on_c, 5, 69, 0
8, 103500, Note_on_c, 5, 67, 80
8, 103560, Note_on_c, 5, 67, 0
8, 103560, Note_on_c, 5, 69, 80
8, 103680, Note_on_c, 5, 69, 0
8, 103680, Note_on_c, 5, 67, 80
8, 103800, Note_on_c, 5, 67, 0
8, 164220, Note_on_c, 5, 81, 100
8, 164267, Note_on_c, 5, 81, 0
8, 164280, Note_on_c, 5, 79, 100
8, 164327, Note_on_c, 5, 79, 0
8, 164340, Note_on_c, 5, 78, 100
8, 164387, Note_on_c, 5, 78, 0
8, 164400, Note_on_c, 5, 78, 100
8, 164447, Note_on_c, 5, 78, 0
8, 164460, Note_on_c, 5, 76, 100
8, 164507, Note_on_c, 5, 76, 0
8, 165180, Note_on_c, 5, 81, 100
8, 165227, Note_on_c, 5, 81, 0
8, 165240, Note_on_c, 5, 79, 100
8, 165287, Note_on_c, 5, 79, 0
8, 165300, Note_on_c, 5, 78, 100
8, 165347, Note_on_c, 5, 78, 0
8, 165360, Note_on_c, 5, 78, 100
8, 165407, Note_on_c, 5, 78, 0
8, 165420, Note_on_c, 5, 76, 100
8, 165467, Note_on_c, 5, 76, 0
8, 165780, Note_on_c, 5, 76, 80
8, 165804, Note_on_c, 5, 76, 0
8, 165840, Note_on_c, 5, 78, 80
8, 165864, Note_on_c, 5, 78, 0
8, 165900, Note_on_c, 5, 83, 100
8, 165923, Note_on_c, 5, 83, 0
8, 165930, Note_on_c, 5, 81, 100
8, 165953, Note_on_c, 5, 81, 0
8, 165960, Note_on_c, 5, 83, 100
8, 166007, Note_on_c, 5, 83, 0
8, 166260, Note_on_c, 5, 74, 100
8, 166284, Note_on_c, 5, 74, 0
8, 166320, Note_on_c, 5, 76, 100
8, 166344, Note_on_c, 5, 76, 0
8, 166380, Note_on_c, 5, 81, 100
8, 166403, Note_on_c, 5, 81, 0
8, 166410, Note_on_c, 5, 79, 100
8, 166433, Note_on_c, 5, 79, 0
8, 166440, Note_on_c, 5, 81, 100
8, 166487, Note_on_c, 5, 81, 0
8, 166560, Note_on_c, 5, 74, 80
8, 166992, Note_on_c, 5, 74, 0
8, 167100, Note_on_c, 5, 64, 80
8, 167123, Note_on_c, 5, 64, 0
8, 167130, Note_on_c, 5, 66, 80
8, 167153, Note_on_c, 5, 66, 0
8, 167160, Note_on_c, 5, 67, 80
8, 167183, Note_on_c, 5, 67, 0
8, 167190, Note_on_c, 5, 64, 80
8, 167213, Note_on_c, 5, 64, 0
8, 167220, Note_on_c, 5, 66, 80
8, 167243, Note_on_c, 5, 66, 0
8, 167250, Note_on_c, 5, 67, 80
8, 167273, Note_on_c, 5, 67, 0
8, 167280, Note_on_c, 5, 69, 80
8, 167303, Note_on_c, 5, 69, 0
8, 167310, Note_on_c, 5, 64, 80
8, 167333, Note_on_c, 5, 64, 0
8, 167340, Note_on_c, 5, 69, 80
8, 167363, Note_on_c, 5, 69, 0
8, 167370, Note_on_c, 5, 73, 80
8, 167393, Note_on_c, 5, 73, 0
8, 167400, Note_on_c, 5, 76, 80
8, 167423, Note_on_c, 5, 76, 0
8, 167430, Note_on_c, 5, 73, 80
8, 167453, Note_on_c, 5, 73, 0
8, 167460, Note_on_c, 5, 69, 80
8, 167483, Note_on_c, 5, 69, 0
8, 167490, Note_on_c, 5, 81, 80
8, 167513, Note_on_c, 5, 81, 0
8, 167520, Note_on_c, 5, 79, 80
8, 167543, Note_on_c, 5, 79, 0
8, 167550, Note_on_c, 5, 78, 80
8, 167573, Note_on_c, 5, 78, 0
8, 167580, Note_on_c, 5, 76, 80
8, 167603, Note_on_c, 5, 76, 0
8, 167610, Note_on_c, 5, 74, 80
8, 167633, Note_on_c, 5, 74, 0
8, 167640, Note_on_c, 5, 78, 80
8, 167687, Note_on_c, 5, 78, 0
8, 167700, Note_on_c, 5, 76, 80
8, 167747, Note_on_c, 5, 76, 0
8, 167760, Note_on_c, 5, 74, 80
8, 167807, Note_on_c, 5, 74, 0
8, 167820, Note_on_c, 5, 86, 80
8, 167843, Note_on_c, 5, 86, 0
8, 167850, Note_on_c, 5, 85, 80
8, 167873, Note_on_c, 5, 85, 0
8, 167880, Note_on_c, 5, 86, 80
8, 167927, Note_on_c, 5, 86, 0
8, 167940, Note_on_c, 5, 74, 80
8, 167987, Note_on_c, 5, 74, 0
8, 168000, Note_on_c, 5, 74, 80
8, 168047, Note_on_c, 5, 74, 0
8, 168060, Note_on_c, 5, 81, 80
8, 168083, Note_on_c, 5, 81, 0
8, 168090, Note_on_c, 5, 79, 80
8, 168113, Note_on_c, 5, 79, 0
8, 168120, Note_on_c, 5, 81, 80
8, 168167, Note_on_c, 5, 81, 0
8, 168180, Note_on_c, 5, 74, 80
8, 168227, Note_on_c, 5, 74, 0
8, 168240, Note_on_c, 5, 83, 80
8, 168287, Note_on_c, 5, 83, 0
8, 168360, Note_on_c, 5, 81, 82
8, 168407, Note_on_c, 5, 81, 0
8, 168480, Note_on_c, 5, 80, 85
8, 168527, Note_on_c, 5, 80, 0
8, 168540, Note_on_c, 5, 74, 86
8, 168563, Note_on_c, 5, 74, 0
8, 168570, Note_on_c, 5, 73, 86
8, 168593, Note_on_c, 5, 73, 0
8, 168600, Note_on_c, 5, 71, 87
8, 168647, Note_on_c, 5, 71, 0
8, 168660, Note_on_c, 5, 83, 88
8, 168707, Note_on_c, 5, 83, 0
8, 168720, Note_on_c, 5, 81, 90
8, 168767, Note_on_c, 5, 81, 0
8, 168780, Note_on_c, 5, 69, 91
8, 168803, Note_on_c, 5, 69, 0
8, 168810, Note_on_c, 5, 71, 91
8, 168833, Note_on_c, 5, 71, 0
8, 168840, Note_on_c, 5, 73, 92
8, 168887, Note_on_c, 5, 73, 0
8, 168900, Note_on_c, 5, 79, 93
8, 168947, Note_on_c, 5, 79, 0
8, 168960, Note_on_c, 5, 78, 95
8, 169007, Note_on_c, 5, 78, 0
8, 169020, Note_on_c, 5, 86, 96
8, 169067, Note_on_c, 5, 86, 0
8, 169080, Note_on_c, 5, 76, 97
8, 169127, Note_on_c, 5, 76, 0
8, 169140, Note_on_c, 5, 85, 98
8, 169187, Note_on_c, 5, 85, 0
8, 169200, Note_on_c, 5, 74, 100
8, 169295, Note_on_c, 5, 74, 0
8, 169350, Note_on_c, 5, 66, 80
8, 169373, Note_on_c, 5, 66, 0
8, 169380, Note_on_c, 5, 67, 80
8, 169403, Note_on_c, 5, 67, 0
8, 169410, Note_on_c, 5, 69, 80
8, 169433, Note_on_c, 5, 69, 0
8, 169440, Note_on_c, 5, 62, 80
8, 169452, Note_on_c, 5, 62, 0
8, 169470, Note_on_c, 5, 71, 80
8, 169493, Note_on_c, 5, 71, 0
8, 169500, Note_on_c, 5, 69, 80
8, 169523, Note_on_c, 5, 69, 0
8, 169530, Note_on_c, 5, 67, 80
8, 169553, Note_on_c, 5, 67, 0
8, 169560, Note_on_c, 5, 62, 80
8, 169572, Note_on_c, 5, 62, 0
8, 169590, Note_on_c, 5, 69, 80
8, 169613, Note_on_c, 5, 69, 0
8, 169620, Note_on_c, 5, 67, 80
8, 169643, Note_on_c, 5, 67, 0
8, 169650, Note_on_c, 5, 66, 81
8, 169673, Note_on_c, 5, 66, 0
8, 169680, Note_on_c, 5, 62, 81
8, 169692, Note_on_c, 5, 62, 0
8, 169710, Note_on_c, 5, 67, 81
8, 169733, Note_on_c, 5, 67, 0
8, 169740, Note_on_c, 5, 66, 81
8, 169763, Note_on_c, 5, 66, 0
8, 169770, Note_on_c, 5, 64, 81
8, 169793, Note_on_c, 5, 64, 0
8, 169800, Note_on_c, 5, 62, 81
8, 169812, Note_on_c, 5, 62, 0
8, 169830, Note_on_c, 5, 66, 81
8, 169853, Note_on_c, 5, 66, 0
8, 169860, Note_on_c, 5, 64, 81
8, 169883, Note_on_c, 5, 64, 0
8, 169890, Note_on_c, 5, 62, 81
8, 169913, Note_on_c, 5, 62, 0
8, 169920, Note_on_c, 5, 64, 81
8, 169943, Note_on_c, 5, 64, 0
8, 169950, Note_on_c, 5, 74, 81
8, 169973, Note_on_c, 5, 74, 0
8, 169980, Note_on_c, 5, 73, 81
8, 170003, Note_on_c, 5, 73, 0
8, 170010, Note_on_c, 5, 71, 81
8, 170033, Note_on_c, 5, 71, 0
8, 170040, Note_on_c, 5, 69, 81
8, 170063, Note_on_c, 5, 69, 0
8, 170070, Note_on_c, 5, 67, 81
8, 170093, Note_on_c, 5, 67, 0
8, 170100, Note_on_c, 5, 66, 81
8, 170123, Note_on_c, 5, 66, 0
8, 170130, Note_on_c, 5, 64, 81
8, 170153, Note_on_c, 5, 64, 0
8, 170160, Note_on_c, 5, 62, 81
8, 170255, Note_on_c, 5, 62, 0
8, 170340, Note_on_c, 5, 66, 81
8, 170387, Note_on_c, 5, 66, 0
8, 170400, Note_on_c, 5, 71, 81
8, 170423, Note_on_c, 5, 71, 0
8, 170430, Note_on_c, 5, 73, 81
8, 170453, Note_on_c, 5, 73, 0
8, 170460, Note_on_c, 5, 74, 81
8, 170483, Note_on_c, 5, 74, 0
8, 170490, Note_on_c, 5, 73, 81
8, 170513, Note_on_c, 5, 73, 0
8, 170520, Note_on_c, 5, 71, 81
8, 170567, Note_on_c, 5, 71, 0
8, 170580, Note_on_c, 5, 66, 81
8, 170604, Note_on_c, 5, 66, 0
8, 170640, Note_on_c, 5, 66, 81
8, 170664, Note_on_c, 5, 66, 0
8, 170700, Note_on_c, 5, 62, 81
8, 170724, Note_on_c, 5, 62, 0
8, 170760, Note_on_c, 5, 62, 81
8, 170784, Note_on_c, 5, 62, 0
8, 170820, Note_on_c, 5, 59, 81
8, 170844, Note_on_c, 5, 59, 0
8, 170880, Note_on_c, 5, 59, 81
8, 170904, Note_on_c, 5, 59, 0
8, 170940, Note_on_c, 5, 78, 81
8, 170987, Note_on_c, 5, 78, 0
8, 171000, Note_on_c, 5, 76, 81
8, 171047, Note_on_c, 5, 76, 0
8, 171060, Note_on_c, 5, 74, 82
8, 171107, Note_on_c, 5, 74, 0
8, 171120, Note_on_c, 5, 74, 82
8, 171167, Note_on_c, 5, 74, 0
8, 171180, Note_on_c, 5, 73, 82
8, 171227, Note_on_c, 5, 73, 0
8, 171270, Note_on_c, 5, 73, 82
8, 171293, Note_on_c, 5, 73, 0
8, 171300, Note_on_c, 5, 71, 82
8, 171323, Note_on_c, 5, 71, 0
8, 171330, Note_on_c, 5, 70, 82
8, 171353, Note_on_c, 5, 70, 0
8, 171360, Note_on_c, 5, 71, 82
8, 171372, Note_on_c, 5, 71, 0
8, 171390, Note_on_c, 5, 71, 82
8, 171413, Note_on_c, 5, 71, 0
8, 171420, Note_on_c, 5, 73, 82
8, 171443, Note_on_c, 5, 73, 0
8, 171450, Note_on_c, 5, 74, 82
8, 171473, Note_on_c, 5, 74, 0
8, 171480, Note_on_c, 5, 71, 82
8, 171492, Note_on_c, 5, 71, 0
8, 171510, Note_on_c, 5, 71, 82
8, 171533, Note_on_c, 5, 71, 0
8, 171540, Note_on_c, 5, 73, 82
8, 171563, Note_on_c, 5, 73, 0
8, 171570, Note_on_c, 5, 74, 82
8, 171593, Note_on_c, 5, 74, 0
8, 171600, Note_on_c, 5, 71, 82
8, 171624, Note_on_c, 5, 71, 0
8, 171660, Note_on_c, 5, 79, 82
8, 171684, Note_on_c, 5, 79, 0
8, 171750, Note_on_c, 5, 79, 82
8, 171773, Note_on_c, 5, 79, 0
8, 171780, Note_on_c, 5, 78, 82
8, 171803, Note_on_c, 5, 78, 0
8, 171810, Note_on_c, 5, 76, 82
8, 171833, Note_on_c, 5, 76, 0
8, 171840, Note_on_c, 5, 74, 82
8, 171852, Note_on_c, 5, 74, 0
8, 171870, Note_on_c, 5, 74, 82
8, 171893, Note_on_c, 5, 74, 0
8, 171900, Note_on_c, 5, 76, 82
8, 171923, Note_on_c, 5, 76, 0
8, 171930, Note_on_c, 5, 78, 82
8, 171953, Note_on_c, 5, 78, 0
8, 171960, Note_on_c, 5, 74, 82
8, 171972, Note_on_c, 5, 74, 0
8, 171990, Note_on_c, 5, 74, 82
8, 172013, Note_on_c, 5, 74, 0
8, 172020, Note_on_c, 5, 76, 82
8, 172043, Note_on_c, 5, 76, 0
8, 172050, Note_on_c, 5, 78, 82
8, 172073, Note_on_c, 5, 78, 0
8, 172080, Note_on_c, 5, 76, 82
8, 172104, Note_on_c, 5, 76, 0
8, 172140, Note_on_c, 5, 83, 82
8, 172164, Note_on_c, 5, 83, 0
8, 172230, Note_on_c, 5, 83, 100
8, 172253, Note_on_c, 5, 83, 0
8, 172260, Note_on_c, 5, 81, 100
8, 172283, Note_on_c, 5, 81, 0
8, 172290, Note_on_c, 5, 79, 100
8, 172313, Note_on_c, 5, 79, 0
8, 172320, Note_on_c, 5, 78, 100
8, 172367, Note_on_c, 5, 78, 0
8, 172860, Note_on_c, 5, 81, 110
8, 172907, Note_on_c, 5, 81, 0
8, 172920, Note_on_c, 5, 79, 110
8, 172967, Note_on_c, 5, 79, 0
8, 172980, Note_on_c, 5, 78, 110
8, 173027, Note_on_c, 5, 78, 0
8, 173040, Note_on_c, 5, 78, 110
8, 173087, Note_on_c, 5, 78, 0
8, 173100, Note_on_c, 5, 76, 110
8, 173147, Note_on_c, 5, 76, 0
8, 173820, Note_on_c, 5, 81, 100
8, 173867, Note_on_c, 5, 81, 0
8, 173880, Note_on_c, 5, 79, 100
8, 173927, Note_on_c, 5, 79, 0
8, 173940, Note_on_c, 5, 78, 100
8, 173987, Note_on_c, 5, 78, 0
8, 174000, Note_on_c, 5, 78, 100
8, 174047, Note_on_c, 5, 78, 0
8, 174060, Note_on_c, 5, 76, 100
8, 174107, Note_on_c, 5, 76, 0
8, 174420, Note_on_c, 5, 76, 80
8, 174444, Note_on_c, 5, 76, 0
8, 174480, Note_on_c, 5, 78, 80
8, 174504, Note_on_c, 5, 78, 0
8, 174540, Note_on_c, 5, 83, 100
8, 174563, Note_on_c, 5, 83, 0
8, 174570, Note_on_c, 5, 81, 100
8, 174593, Note_on_c, 5, 81, 0
8, 174600, Note_on_c, 5, 83, 100
8, 174647, Note_on_c, 5, 83, 0
8, 174900, Note_on_c, 5, 74, 80
8, 174924, Note_on_c, 5, 74, 0
8, 174960, Note_on_c, 5, 76, 80
8, 174984, Note_on_c, 5, 76, 0
8, 175020, Note_on_c, 5, 81, 100
8, 175043, Note_on_c, 5, 81, 0
8, 175050, Note_on_c, 5, 79, 100
8, 175073, Note_on_c, 5, 79, 0
8, 175080, Note_on_c, 5, 81, 100
8, 175127, Note_on_c, 5, 81, 0
8, 175200, Note_on_c, 5, 74, 80
8, 175632, Note_on_c, 5, 74, 0
8, 175740, Note_on_c, 5, 64, 80
8, 175763, Note_on_c, 5, 64, 0
8, 175770, Note_on_c, 5, 66, 80
8, 175793, Note_on_c, 5, 66, 0
8, 175800, Note_on_c, 5, 67, 80
8, 175823, Note_on_c, 5, 67, 0
8, 175830, Note_on_c, 5, 64, 80
8, 175853, Note_on_c, 5, 64, 0
8, 175860, Note_on_c, 5, 66, 80
8, 175883, Note_on_c, 5, 66, 0
8, 175890, Note_on_c, 5, 67, 80
8, 175913, Note_on_c, 5, 67, 0
8, 175920, Note_on_c, 5, 69, 80
8, 175943, Note_on_c, 5, 69, 0
8, 175950, Note_on_c, 5, 64, 80
8, 175973, Note_on_c, 5, 64, 0
8, 175980, Note_on_c, 5, 69, 80
8, 176003, Note_on_c, 5, 69, 0
8, 176010, Note_on_c, 5, 73, 80
8, 176033, Note_on_c, 5, 73, 0
8, 176040, Note_on_c, 5, 76, 80
8, 176063, Note_on_c, 5, 76, 0
8, 176070, Note_on_c, 5, 73, 80
8, 176093, Note_on_c, 5, 73, 0
8, 176100, Note_on_c, 5, 69, 80
8, 176123, Note_on_c, 5, 69, 0
8, 176130, Note_on_c, 5, 81, 80
8, 176153, Note_on_c, 5, 81, 0
8, 176160, Note_on_c, 5, 79, 80
8, 176183, Note_on_c, 5, 79, 0
8, 176190, Note_on_c, 5, 78, 80
8, 176213, Note_on_c, 5, 78, 0
8, 176220, Note_on_c, 5, 76, 80
8, 176243, Note_on_c, 5, 76, 0
8, 176250, Note_on_c, 5, 74, 80
8, 176273, Note_on_c, 5, 74, 0
8, 176280, Note_on_c, 5, 78, 80
8, 176327, Note_on_c, 5, 78, 0
8, 176340, Note_on_c, 5, 76, 80
8, 176387, Note_on_c, 5, 76, 0
8, 176400, Note_on_c, 5, 74, 80
8, 176447, Note_on_c, 5, 74, 0
8, 176460, Note_on_c, 5, 86, 80
8, 176483, Note_on_c, 5, 86, 0
8, 176490, Note_on_c, 5, 85, 80
8, 176513, Note_on_c, 5, 85, 0
8, 176520, Note_on_c, 5, 86, 80
8, 176567, Note_on_c, 5, 86, 0
8, 176580, Note_on_c, 5, 74, 80
8, 176627, Note_on_c, 5, 74, 0
8, 176640, Note_on_c, 5, 74, 80
8, 176687, Note_on_c, 5, 74, 0
8, 176700, Note_on_c, 5, 81, 80
8, 176723, Note_on_c, 5, 81, 0
8, 176730, Note_on_c, 5, 79, 80
8, 176753, Note_on_c, 5, 79, 0
8, 176760, Note_on_c, 5, 81, 80
8, 176807, Note_on_c, 5, 81, 0
8, 176820, Note_on_c, 5, 74, 80
8, 176867, Note_on_c, 5, 74, 0
8, 176880, Note_on_c, 5, 83, 80
8, 176927, Note_on_c, 5, 83, 0
8, 177000, Note_on_c, 5, 81, 80
8, 177047, Note_on_c, 5, 81, 0
8, 177120, Note_on_c, 5, 80, 80
8, 177167, Note_on_c, 5, 80, 0
8, 177180, Note_on_c, 5, 74, 80
8, 177203, Note_on_c, 5, 74, 0
8, 177210, Note_on_c, 5, 73, 80
8, 177233, Note_on_c, 5, 73, 0
8, 177240, Note_on_c, 5, 71, 80
8, 177287, Note_on_c, 5, 71, 0
8, 177300, Note_on_c, 5, 83, 80
8, 177347, Note_on_c, 5, 83, 0
8, 177360, Note_on_c, 5, 81, 80
8, 177407, Note_on_c, 5, 81, 0
8, 177420, Note_on_c, 5, 69, 80
8, 177443, Note_on_c, 5, 69, 0
8, 177450, Note_on_c, 5, 71, 80
8, 177473, Note_on_c, 5, 71, 0
8, 177480, Note_on_c, 5, 73, 80
8, 177527, Note_on_c, 5, 73, 0
8, 177540, Note_on_c, 5, 79, 80
8, 177587, Note_on_c, 5, 79, 0
8, 177600, Note_on_c, 5, 78, 80
8, 177647, Note_on_c, 5, 78, 0
8, 177660, Note_on_c, 5, 86, 80
8, 177707, Note_on_c, 5, 86, 0
8, 177720, Note_on_c, 5, 76, 80
8, 177767, Note_on_c, 5, 76, 0
8, 177780, Note_on_c, 5, 85, 80
8, 177827, Note_on_c, 5, 85, 0
8, 177840, Note_on_c, 5, 74, 80
8, 177935, Note_on_c, 5, 74, 0
8, 177990, Note_on_c, 5, 66, 80
8, 178013, Note_on_c, 5, 66, 0
8, 178020, Note_on_c, 5, 67, 80
8, 178043, Note_on_c, 5, 67, 0
8, 178050, Note_on_c, 5, 69, 80
8, 178073, Note_on_c, 5, 69, 0
8, 178080, Note_on_c, 5, 62, 80
8, 178092, Note_on_c, 5, 62, 0
8, 178110, Note_on_c, 5, 71, 80
8, 178133, Note_on_c, 5, 71, 0
8, 178140, Note_on_c, 5, 69, 80
8, 178163, Note_on_c, 5, 69, 0
8, 178170, Note_on_c, 5, 67, 80
8, 178193, Note_on_c, 5, 67, 0
8, 178200, Note_on_c, 5, 62, 80
8, 178212, Note_on_c, 5, 62, 0
8, 178230, Note_on_c, 5, 69, 80
8, 178253, Note_on_c, 5, 69, 0
8, 178260, Note_on_c, 5, 67, 80
8, 178283, Note_on_c, 5, 67, 0
8, 178290, Note_on_c, 5, 66, 80
8, 178313, Note_on_c, 5, 66, 0
8, 178320, Note_on_c, 5, 62, 80
8, 178332, Note_on_c, 5, 62, 0
8, 178350, Note_on_c, 5, 67, 80
8, 178373, Note_on_c, 5, 67, 0
8, 178380, Note_on_c, 5, 66, 80
8, 178403, Note_on_c, 5, 66, 0
8, 178410, Note_on_c, 5, 64, 80
8, 178433, Note_on_c, 5, 64, 0
8, 178440, Note_on_c, 5, 62, 80
8, 178452, Note_on_c, 5, 62, 0
8, 178470, Note_on_c, 5, 66, 80
8, 178493, Note_on_c, 5, 66, 0
8, 178500, Note_on_c, 5, 64, 80
8, 178523, Note_on_c, 5, 64, 0
8, 178530, Note_on_c, 5, 62, 80
8, 178553, Note_on_c, 5, 62, 0
8, 178560, Note_on_c, 5, 64, 80
8, 178583, Note_on_c, 5, 64, 0
8, 178590, Note_on_c, 5, 74, 80
8, 178613, Note_on_c, 5, 74, 0
8, 178620, Note_on_c, 5, 73, 80
8, 178643, Note_on_c, 5, 73, 0
8, 178650, Note_on_c, 5, 71, 80
8, 178673, Note_on_c, 5, 71, 0
8, 178680, Note_on_c, 5, 69, 80
8, 178703, Note_on_c, 5, 69, 0
8, 178710, Note_on_c, 5, 67, 80
8, 178733, Note_on_c, 5, 67, 0
8, 178740, Note_on_c, 5, 66, 80
8, 178763, Note_on_c, 5, 66, 0
8, 178770, Note_on_c, 5, 64, 80
8, 178793, Note_on_c, 5, 64, 0
8, 178800, Note_on_c, 5, 62, 80
8, 178895, Note_on_c, 5, 62, 0
8, 178980, Note_on_c, 5, 66, 80
8, 179027, Note_on_c, 5, 66, 0
8, 179040, Note_on_c, 5, 71, 80
8, 179063, Note_on_c, 5, 71, 0
8, 179070, Note_on_c, 5, 73, 80
8, 179093, Note_on_c, 5, 73, 0
8, 179100, Note_on_c, 5, 74, 80
8, 179123, Note_on_c, 5, 74, 0
8, 179130, Note_on_c, 5, 73, 80
8, 179153, Note_on_c, 5, 73, 0
8, 179160, Note_on_c, 5, 71, 80
8, 179207, Note_on_c, 5, 71, 0
8, 179220, Note_on_c, 5, 66, 80
8, 179244, Note_on_c, 5, 66, 0
8, 179280, Note_on_c, 5, 66, 80
8, 179304, Note_on_c, 5, 66, 0
8, 179340, Note_on_c, 5, 62, 80
8, 179364, Note_on_c, 5, 62, 0
8, 179400, Note_on_c, 5, 62, 80
8, 179424, Note_on_c, 5, 62, 0
8, 179460, Note_on_c, 5, 59, 80
8, 179484, Note_on_c, 5, 59, 0
8, 179520, Note_on_c, 5, 59, 80
8, 179544, Note_on_c, 5, 59, 0
8, 179580, Note_on_c, 5, 78, 80
8, 179627, Note_on_c, 5, 78, 0
8, 179640, Note_on_c, 5, 76, 80
8, 179687, Note_on_c, 5, 76, 0
8, 179700, Note_on_c, 5, 74, 80
8, 179747, Note_on_c, 5, 74, 0
8, 179760, Note_on_c, 5, 74, 80
8, 179807, Note_on_c, 5, 74, 0
8, 179820, Note_on_c, 5, 73, 80
8, 179867, Note_on_c, 5, 73, 0
8, 179910, Note_on_c, 5, 73, 80
8, 179933, Note_on_c, 5, 73, 0
8, 179940, Note_on_c, 5, 71, 80
8, 179963, Note_on_c, 5, 71, 0
8, 179970, Note_on_c, 5, 70, 80
8, 179993, Note_on_c, 5, 70, 0
8, 180000, Note_on_c, 5, 71, 80
8, 180012, Note_on_c, 5, 71, 0
8, 180030, Note_on_c, 5, 71, 80
8, 180053, Note_on_c, 5, 71, 0
8, 180060, Note_on_c, 5, 73, 80
8, 180083, Note_on_c, 5, 73, 0
8, 180090, Note_on_c, 5, 74, 80
8, 180113, Note_on_c, 5, 74, 0
8, 180120, Note_on_c, 5, 71, 80
8, 180132, Note_on_c, 5, 71, 0
8, 180150, Note_on_c, 5, 71, 80
8, 180173, Note_on_c, 5, 71, 0
8, 180180, Note_on_c, 5, 73, 80
8, 180203, Note_on_c, 5, 73, 0
8, 180210, Note_on_c, 5, 74, 80
8, 180233, Note_on_c, 5, 74, 0
8, 180240, Note_on_c, 5, 71, 80
8, 180264, Note_on_c, 5, 71, 0
8, 180300, Note_on_c, 5, 79, 80
8, 180324, Note_on_c, 5, 79, 0
8, 180390, Note_on_c, 5, 79, 80
8, 180413, Note_on_c, 5, 79, 0
8, 180420, Note_on_c, 5, 78, 80
8, 180443, Note_on_c, 5, 78, 0
8, 180450, Note_on_c, 5, 76, 80
8, 180473, Note_on_c, 5, 76, 0
8, 180480, Note_on_c, 5, 74, 80
8, 180492, Note_on_c, 5, 74, 0
8, 180510, Note_on_c, 5, 74, 80
8, 180533, Note_on_c, 5, 74, 0
8, 180540, Note_on_c, 5, 76, 80
8, 180563, Note_on_c, 5, 76, 0
8, 180570, Note_on_c, 5, 78, 80
8, 180593, Note_on_c, 5, 78, 0
8, 180600, Note_on_c, 5, 74, 80
8, 180612, Note_on_c, 5, 74, 0
8, 180630, Note_on_c, 5, 74, 80
8, 180653, Note_on_c, 5, 74, 0
8, 180660, Note_on_c, 5, 76, 80
8, 180683, Note_on_c, 5, 76, 0
8, 180690, Note_on_c, 5, 78, 80
8, 180713, Note_on_c, 5, 78, 0
8, 180720, Note_on_c, 5, 76, 80
8, 180744, Note_on_c, 5, 76, 0
8, 180780, Note_on_c, 5, 83, 80
8, 180804, Note_on_c, 5, 83, 0
8, 180870, Note_on_c, 5, 83, 100
8, 180893, Note_on_c, 5, 83, 0
8, 180900, Note_on_c, 5, 81, 100
8, 180923, Note_on_c, 5, 81, 0
8, 180930, Note_on_c, 5, 79, 100
8, 180953, Note_on_c, 5, 79, 0
8, 180960, Note_on_c, 5, 78, 100
8, 181007, Note_on_c, 5, 78, 0
8, 181500, Note_on_c, 5, 81, 110
8, 181547, Note_on_c, 5, 81, 0
8, 181560, Note_on_c, 5, 79, 110
8, 181607, Note_on_c, 5, 79, 0
8, 181620, Note_on_c, 5, 78, 110
8, 181667, Note_on_c, 5, 78, 0
8, 181680, Note_on_c, 5, 78, 110
8, 181727, Note_on_c, 5, 78, 0
8, 181740, Note_on_c, 5, 76, 110
8, 181787, Note_on_c, 5, 76, 0
8, 182460, Note_on_c, 5, 81, 100
8, 182507, Note_on_c, 5, 81, 0
8, 182520, Note_on_c, 5, 79, 100
8, 182567, Note_on_c, 5, 79, 0
8, 182580, Note_on_c, 5, 78, 100
8, 182627, Note_on_c, 5, 78, 0
8, 182640, Note_on_c, 5, 78, 100
8, 182687, Note_on_c, 5, 78, 0
8, 182700, Note_on_c, 5, 76, 100
8, 182747, Note_on_c, 5, 76, 0
8, 182790, Note_on_c, 5, 68, 80
8, 182813, Note_on_c, 5, 68, 0
8, 182820, Note_on_c, 5, 69, 80
8, 182843, Note_on_c, 5, 69, 0
8, 182850, Note_on_c, 5, 71, 80
8, 182873, Note_on_c, 5, 71, 0
8, 182880, Note_on_c, 5, 73, 80
8, 182903, Note_on_c, 5, 73, 0
8, 182910, Note_on_c, 5, 69, 80
8, 182933, Note_on_c, 5, 69, 0
8, 182940, Note_on_c, 5, 73, 80
8, 182963, Note_on_c, 5, 73, 0
8, 182970, Note_on_c, 5, 76, 80
8, 182993, Note_on_c, 5, 76, 0
8, 183000, Note_on_c, 5, 81, 80
8, 183023, Note_on_c, 5, 81, 0
8, 183030, Note_on_c, 5, 66, 80
8, 183053, Note_on_c, 5, 66, 0
8, 183060, Note_on_c, 5, 67, 80
8, 183083, Note_on_c, 5, 67, 0
8, 183090, Note_on_c, 5, 69, 80
8, 183113, Note_on_c, 5, 69, 0
8, 183120, Note_on_c, 5, 71, 80
8, 183143, Note_on_c, 5, 71, 0
8, 183150, Note_on_c, 5, 67, 80
8, 183173, Note_on_c, 5, 67, 0
8, 183180, Note_on_c, 5, 71, 80
8, 183203, Note_on_c, 5, 71, 0
8, 183210, Note_on_c, 5, 74, 80
8, 183233, Note_on_c, 5, 74, 0
8, 183240, Note_on_c, 5, 79, 80
8, 183287, Note_on_c, 5, 79, 0
8, 183660, Note_on_c, 5, 83, 100
8, 183683, Note_on_c, 5, 83, 0
8, 183690, Note_on_c, 5, 81, 100
8, 183713, Note_on_c, 5, 81, 0
8, 183720, Note_on_c, 5, 83, 100
8, 183767, Note_on_c, 5, 83, 0
8, 184020, Note_on_c, 5, 74, 80
8, 184043, Note_on_c, 5, 74, 0
8, 184080, Note_on_c, 5, 76, 100
8, 184103, Note_on_c, 5, 76, 0
8, 184140, Note_on_c, 5, 81, 100
8, 184163, Note_on_c, 5, 81, 0
8, 184170, Note_on_c, 5, 79, 100
8, 184193, Note_on_c, 5, 79, 0
8, 184200, Note_on_c, 5, 81, 100
8, 184247, Note_on_c, 5, 81, 0
8, 184380, Note_on_c, 5, 74, 80
8, 184427, Note_on_c, 5, 74, 0
8, 184440, Note_on_c, 5, 74, 80
8, 184487, Note_on_c, 5, 74, 0
8, 184500, Note_on_c, 5, 74, 80
8, 184547, Note_on_c, 5, 74, 0
8, 184620, Note_on_c, 5, 74, 80
8, 184667, Note_on_c, 5, 74, 0
8, 184680, Note_on_c, 5, 74, 80
8, 184727, Note_on_c, 5, 74, 0
8, 184740, Note_on_c, 5, 74, 80
8, 184787, Note_on_c, 5, 74, 0
8, 184860, Note_on_c, 5, 76, 80
8, 184907, Note_on_c, 5, 76, 0
8, 184920, Note_on_c, 5, 76, 80
8, 184967, Note_on_c, 5, 76, 0
8, 184980, Note_on_c, 5, 76, 80
8, 185027, Note_on_c, 5, 76, 0
8, 185100, Note_on_c, 5, 76, 80
8, 185147, Note_on_c, 5, 76, 0
8, 185160, Note_on_c, 5, 76, 80
8, 185207, Note_on_c, 5, 76, 0
8, 185220, Note_on_c, 5, 76, 80
8, 185267, Note_on_c, 5, 76, 0
8, 185280, Note_on_c, 5, 74, 80
8, 185375, Note_on_c, 5, 74, 0
8, 185430, Note_on_c, 5, 66, 80
8, 185453, Note_on_c, 5, 66, 0
8, 185460, Note_on_c, 5, 68, 80
8, 185483, Note_on_c, 5, 68, 0
8, 185490, Note_on_c, 5, 70, 80
8, 185513, Note_on_c, 5, 70, 0
8, 185520, Note_on_c, 5, 71, 80
8, 185543, Note_on_c, 5, 71, 0
8, 185550, Note_on_c, 5, 66, 80
8, 185573, Note_on_c, 5, 66, 0
8, 185580, Note_on_c, 5, 71, 80
8, 185603, Note_on_c, 5, 71, 0
8, 185610, Note_on_c, 5, 73, 80
8, 185633, Note_on_c, 5, 73, 0
8, 185640, Note_on_c, 5, 74, 80
8, 185663, Note_on_c, 5, 74, 0
8, 185670, Note_on_c, 5, 71, 80
8, 185693, Note_on_c, 5, 71, 0
8, 185700, Note_on_c, 5, 74, 80
8, 185723, Note_on_c, 5, 74, 0
8, 185730, Note_on_c, 5, 76, 80
8, 185753, Note_on_c, 5, 76, 0
8, 185760, Note_on_c, 5, 78, 100
8, 185807, Note_on_c, 5, 78, 0
8, 185820, Note_on_c, 5, 78, 100
8, 185867, Note_on_c, 5, 78, 0
8, 185880, Note_on_c, 5, 76, 100
8, 185927, Note_on_c, 5, 76, 0
8, 185940, Note_on_c, 5, 74, 100
8, 185987, Note_on_c, 5, 74, 0
8, 186000, Note_on_c, 5, 74, 100
8, 186047, Note_on_c, 5, 74, 0
8, 186060, Note_on_c, 5, 73, 100
8, 186107, Note_on_c, 5, 73, 0
8, 186150, Note_on_c, 5, 79, 80
8, 186173, Note_on_c, 5, 79, 0
8, 186180, Note_on_c, 5, 78, 80
8, 186203, Note_on_c, 5, 78, 0
8, 186210, Note_on_c, 5, 76, 80
8, 186233, Note_on_c, 5, 76, 0
8, 186240, Note_on_c, 5, 74, 80
8, 186251, Note_on_c, 5, 74, 0
8, 186270, Note_on_c, 5, 74, 80
8, 186293, Note_on_c, 5, 74, 0
8, 186300, Note_on_c, 5, 76, 80
8, 186323, Note_on_c, 5, 76, 0
8, 186330, Note_on_c, 5, 78, 80
8, 186353, Note_on_c, 5, 78, 0
8, 186360, Note_on_c, 5, 74, 80
8, 186371, Note_on_c, 5, 74, 0
8, 186390, Note_on_c, 5, 74, 80
8, 186413, Note_on_c, 5, 74, 0
8, 186420, Note_on_c, 5, 76, 80
8, 186443, Note_on_c, 5, 76, 0
8, 186450, Note_on_c, 5, 78, 80
8, 186473, Note_on_c, 5, 78, 0
8, 186480, Note_on_c, 5, 76, 80
8, 186503, Note_on_c, 5, 76, 0
8, 186540, Note_on_c, 5, 83, 80
8, 186563, Note_on_c, 5, 83, 0
8, 186630, Note_on_c, 5, 78, 80
8, 186653, Note_on_c, 5, 78, 0
8, 186660, Note_on_c, 5, 76, 80
8, 186683, Note_on_c, 5, 76, 0
8, 186690, Note_on_c, 5, 74, 80
8, 186713, Note_on_c, 5, 74, 0
8, 186720, Note_on_c, 5, 73, 80
8, 186731, Note_on_c, 5, 73, 0
8, 186750, Note_on_c, 5, 73, 80
8, 186773, Note_on_c, 5, 73, 0
8, 186780, Note_on_c, 5, 74, 80
8, 186803, Note_on_c, 5, 74, 0
8, 186810, Note_on_c, 5, 76, 80
8, 186833, Note_on_c, 5, 76, 0
8, 186840, Note_on_c, 5, 73, 80
8, 186851, Note_on_c, 5, 73, 0
8, 186870, Note_on_c, 5, 73, 80
8, 186893, Note_on_c, 5, 73, 0
8, 186900, Note_on_c, 5, 74, 80
8, 186923, Note_on_c, 5, 74, 0
8, 186930, Note_on_c, 5, 76, 80
8, 186953, Note_on_c, 5, 76, 0
8, 186960, Note_on_c, 5, 74, 80
8, 186983, Note_on_c, 5, 74, 0
8, 187020, Note_on_c, 5, 81, 80
8, 187043, Note_on_c, 5, 81, 0
8, 187110, Note_on_c, 5, 73, 80
8, 187133, Note_on_c, 5, 73, 0
8, 187140, Note_on_c, 5, 71, 80
8, 187163, Note_on_c, 5, 71, 0
8, 187170, Note_on_c, 5, 69, 80
8, 187193, Note_on_c, 5, 69, 0
8, 187200, Note_on_c, 5, 71, 80
8, 187223, Note_on_c, 5, 71, 0
8, 187230, Note_on_c, 5, 81, 80
8, 187253, Note_on_c, 5, 81, 0
8, 187260, Note_on_c, 5, 80, 80
8, 187283, Note_on_c, 5, 80, 0
8, 187290, Note_on_c, 5, 78, 80
8, 187313, Note_on_c, 5, 78, 0
8, 187320, Note_on_c, 5, 76, 80
8, 187343, Note_on_c, 5, 76, 0
8, 187350, Note_on_c, 5, 74, 80
8, 187373, Note_on_c, 5, 74, 0
8, 187380, Note_on_c, 5, 73, 80
8, 187403, Note_on_c, 5, 73, 0
8, 187410, Note_on_c, 5, 71, 80
8, 187433, Note_on_c, 5, 71, 0
8, 187440, Note_on_c, 5, 69, 80
8, 187535, Note_on_c, 5, 69, 0
8, 187980, Note_on_c, 5, 85, 100
8, 188027, Note_on_c, 5, 85, 0
8, 188040, Note_on_c, 5, 83, 100
8, 188087, Note_on_c, 5, 83, 0
8, 188100, Note_on_c, 5, 81, 100
8, 188147, Note_on_c, 5, 81, 0
8, 188160, Note_on_c, 5, 81, 100
8, 188207, Note_on_c, 5, 81, 0
8, 188220, Note_on_c, 5, 80, 100
8, 188267, Note_on_c, 5, 80, 0
8, 188340, Note_on_c, 5, 83, 80
8, 188387, Note_on_c, 5, 83, 0
8, 188400, Note_on_c, 5, 83, 80
8, 188447, Note_on_c, 5, 83, 0
8, 188460, Note_on_c, 5, 81, 80
8, 188507, Note_on_c, 5, 81, 0
8, 188550, Note_on_c, 5, 73, 80
8, 188573, Note_on_c, 5, 73, 0
8, 188580, Note_on_c, 5, 75, 80
8, 188603, Note_on_c, 5, 75, 0
8, 188610, Note_on_c, 5, 77, 80
8, 188633, Note_on_c, 5, 77, 0
8, 188640, Note_on_c, 5, 78, 80
8, 188663, Note_on_c, 5, 78, 0
8, 188670, Note_on_c, 5, 73, 80
8, 188693, Note_on_c, 5, 73, 0
8, 188700, Note_on_c, 5, 78, 80
8, 188723, Note_on_c, 5, 78, 0
8, 188730, Note_on_c, 5, 80, 80
8, 188753, Note_on_c, 5, 80, 0
8, 188760, Note_on_c, 5, 81, 80
8, 188783, Note_on_c, 5, 81, 0
8, 188790, Note_on_c, 5, 78, 80
8, 188813, Note_on_c, 5, 78, 0
8, 188820, Note_on_c, 5, 81, 80
8, 188843, Note_on_c, 5, 81, 0
8, 188850, Note_on_c, 5, 83, 80
8, 188873, Note_on_c, 5, 83, 0
8, 188880, Note_on_c, 5, 85, 80
8, 188927, Note_on_c, 5, 85, 0
8, 188940, Note_on_c, 5, 79, 100
8, 188987, Note_on_c, 5, 79, 0
8, 189000, Note_on_c, 5, 78, 100
8, 189047, Note_on_c, 5, 78, 0
8, 189060, Note_on_c, 5, 76, 100
8, 189107, Note_on_c, 5, 76, 0
8, 189120, Note_on_c, 5, 74, 100
8, 189143, Note_on_c, 5, 74, 0
8, 189150, Note_on_c, 5, 71, 100
8, 189173, Note_on_c, 5, 71, 0
8, 189180, Note_on_c, 5, 74, 100
8, 189203, Note_on_c, 5, 74, 0
8, 189210, Note_on_c, 5, 76, 80
8, 189233, Note_on_c, 5, 76, 0
8, 189240, Note_on_c, 5, 78, 80
8, 189263, Note_on_c, 5, 78, 0
8, 189270, Note_on_c, 5, 71, 80
8, 189293, Note_on_c, 5, 71, 0
8, 189300, Note_on_c, 5, 74, 80
8, 189323, Note_on_c, 5, 74, 0
8, 189330, Note_on_c, 5, 78, 80
8, 189353, Note_on_c, 5, 78, 0
8, 189360, Note_on_c, 5, 83, 80
8, 189407, Note_on_c, 5, 83, 0
8, 189420, Note_on_c, 5, 78, 100
8, 189467, Note_on_c, 5, 78, 0
8, 189480, Note_on_c, 5, 76, 100
8, 189527, Note_on_c, 5, 76, 0
8, 189540, Note_on_c, 5, 74, 100
8, 189587, Note_on_c, 5, 74, 0
8, 189600, Note_on_c, 5, 73, 100
8, 189623, Note_on_c, 5, 73, 0
8, 189630, Note_on_c, 5, 69, 100
8, 189653, Note_on_c, 5, 69, 0
8, 189660, Note_on_c, 5, 73, 80
8, 189683, Note_on_c, 5, 73, 0
8, 189690, Note_on_c, 5, 74, 80
8, 189713, Note_on_c, 5, 74, 0
8, 189720, Note_on_c, 5, 76, 80
8, 189743, Note_on_c, 5, 76, 0
8, 189750, Note_on_c, 5, 69, 80
8, 189773, Note_on_c, 5, 69, 0
8, 189780, Note_on_c, 5, 73, 80
8, 189803, Note_on_c, 5, 73, 0
8, 189810, Note_on_c, 5, 76, 80
8, 189833, Note_on_c, 5, 76, 0
8, 189840, Note_on_c, 5, 81, 80
8, 189887, Note_on_c, 5, 81, 0
8, 189900, Note_on_c, 5, 76, 80
8, 189947, Note_on_c, 5, 76, 0
8, 189960, Note_on_c, 5, 74, 80
8, 190007, Note_on_c, 5, 74, 0
8, 190020, Note_on_c, 5, 72, 80
8, 190067, Note_on_c, 5, 72, 0
8, 190080, Note_on_c, 5, 71, 80
8, 190103, Note_on_c, 5, 71, 0
8, 190110, Note_on_c, 5, 67, 80
8, 190133, Note_on_c, 5, 67, 0
8, 190140, Note_on_c, 5, 71, 80
8, 190163, Note_on_c, 5, 71, 0
8, 190170, Note_on_c, 5, 73, 80
8, 190193, Note_on_c, 5, 73, 0
8, 190200, Note_on_c, 5, 74, 80
8, 190211, Note_on_c, 5, 74, 0
8, 190230, Note_on_c, 5, 79, 80
8, 190253, Note_on_c, 5, 79, 0
8, 190260, Note_on_c, 5, 78, 80
8, 190283, Note_on_c, 5, 78, 0
8, 190290, Note_on_c, 5, 76, 80
8, 190313, Note_on_c, 5, 76, 0
8, 190320, Note_on_c, 5, 74, 80
8, 190331, Note_on_c, 5, 74, 0
8, 190350, Note_on_c, 5, 78, 80
8, 190373, Note_on_c, 5, 78, 0
8, 190380, Note_on_c, 5, 76, 80
8, 190403, Note_on_c, 5, 76, 0
8, 190410, Note_on_c, 5, 74, 80
8, 190433, Note_on_c, 5, 74, 0
8, 190440, Note_on_c, 5, 69, 80
8, 190451, Note_on_c, 5, 69, 0
8, 190470, Note_on_c, 5, 76, 80
8, 190493, Note_on_c, 5, 76, 0
8, 190500, Note_on_c, 5, 74, 80
8, 190523, Note_on_c, 5, 74, 0
8, 190530, Note_on_c, 5, 73, 80
8, 190553, Note_on_c, 5, 73, 0
8, 190560, Note_on_c, 5, 62, 80
8, 190607, Note_on_c, 5, 62, 0
8, 190620, Note_on_c, 5, 69, 80
8, 190643, Note_on_c, 5, 69, 0
8, 190680, Note_on_c, 5, 69, 80
8, 190703, Note_on_c, 5, 69, 0
8, 190740, Note_on_c, 5, 66, 80
8, 190763, Note_on_c, 5, 66, 0
8, 190800, Note_on_c, 5, 66, 80
8, 190823, Note_on_c, 5, 66, 0
8, 190860, Note_on_c, 5, 62, 80
8, 190883, Note_on_c, 5, 62, 0
8, 190920, Note_on_c, 5, 62, 80
8, 190943, Note_on_c, 5, 62, 0
8, 190980, Note_on_c, 5, 57, 80
8, 191003, Note_on_c, 5, 57, 0
8, 191040, Note_on_c, 5, 57, 100
8, 191087, Note_on_c, 5, 57, 0
8, 191100, Note_on_c, 5, 81, 100
8, 191147, Note_on_c, 5, 81, 0
8, 191160, Note_on_c, 5, 79, 100
8, 191207, Note_on_c, 5, 79, 0
8, 191220, Note_on_c, 5, 78, 100
8, 191267, Note_on_c, 5, 78, 0
8, 191280, Note_on_c, 5, 78, 100
8, 191327, Note_on_c, 5, 78, 0
8, 191340, Note_on_c, 5, 76, 100
8, 191387, Note_on_c, 5, 76, 0
8, 192060, Note_on_c, 5, 81, 110
8, 192107, Note_on_c, 5, 81, 0
8, 192120, Note_on_c, 5, 79, 110
8, 192167, Note_on_c, 5, 79, 0
8, 192180, Note_on_c, 5, 78, 110
8, 192227, Note_on_c, 5, 78, 0
8, 192240, Note_on_c, 5, 78, 110
8, 192287, Note_on_c, 5, 78, 0
8, 192300, Note_on_c, 5, 76, 110
8, 192347, Note_on_c, 5, 76, 0
8, 192660, Note_on_c, 5, 76, 100
8, 192684, Note_on_c, 5, 76, 0
8, 192720, Note_on_c, 5, 78, 110
8, 192744, Note_on_c, 5, 78, 0
8, 192780, Note_on_c, 5, 83, 110
8, 192803, Note_on_c, 5, 83, 0
8, 192810, Note_on_c, 5, 81, 110
8, 192833, Note_on_c, 5, 81, 0
8, 192840, Note_on_c, 5, 83, 110
8, 192887, Note_on_c, 5, 83, 0
8, 193140, Note_on_c, 5, 74, 100
8, 193164, Note_on_c, 5, 74, 0
8, 193200, Note_on_c, 5, 76, 110
8, 193224, Note_on_c, 5, 76, 0
8, 193260, Note_on_c, 5, 81, 110
8, 193283, Note_on_c, 5, 81, 0
8, 193290, Note_on_c, 5, 79, 110
8, 193313, Note_on_c, 5, 79, 0
8, 193320, Note_on_c, 5, 81, 110
8, 193367, Note_on_c, 5, 81, 0
8, 193440, Note_on_c, 5, 74, 100
8, 193872, Note_on_c, 5, 74, 0
8, 193980, Note_on_c, 5, 64, 100
8, 194003, Note_on_c, 5, 64, 0
8, 194010, Note_on_c, 5, 66, 100
8, 194033, Note_on_c, 5, 66, 0
8, 194040, Note_on_c, 5, 67, 100
8, 194063, Note_on_c, 5, 67, 0
8, 194070, Note_on_c, 5, 64, 100
8, 194093, Note_on_c, 5, 64, 0
8, 194100, Note_on_c, 5, 66, 100
8, 194123, Note_on_c, 5, 66, 0
8, 194130, Note_on_c, 5, 67, 100
8, 194153, Note_on_c, 5, 67, 0
8, 194160, Note_on_c, 5, 69, 100
8, 194183, Note_on_c, 5, 69, 0
8, 194190, Note_on_c, 5, 64, 100
8, 194213, Note_on_c, 5, 64, 0
8, 194220, Note_on_c, 5, 69, 100
8, 194243, Note_on_c, 5, 69, 0
8, 194250, Note_on_c, 5, 73, 100
8, 194273, Note_on_c, 5, 73, 0
8, 194280, Note_on_c, 5, 76, 100
8, 194303, Note_on_c, 5, 76, 0
8, 194310, Note_on_c, 5, 73, 100
8, 194333, Note_on_c, 5, 73, 0
8, 194340, Note_on_c, 5, 69, 100
8, 194363, Note_on_c, 5, 69, 0
8, 194370, Note_on_c, 5, 81, 100
8, 194393, Note_on_c, 5, 81, 0
8, 194400, Note_on_c, 5, 79, 100
8, 194423, Note_on_c, 5, 79, 0
8, 194430, Note_on_c, 5, 78, 100
8, 194453, Note_on_c, 5, 78, 0
8, 194460, Note_on_c, 5, 76, 100
8, 194483, Note_on_c, 5, 76, 0
8, 194490, Note_on_c, 5, 74, 100
8, 194513, Note_on_c, 5, 74, 0
8, 194520, Note_on_c, 5, 78, 100
8, 194567, Note_on_c, 5, 78, 0
8, 194580, Note_on_c, 5, 76, 100
8, 194627, Note_on_c, 5, 76, 0
8, 194640, Note_on_c, 5, 74, 100
8, 194687, Note_on_c, 5, 74, 0
8, 194700, Note_on_c, 5, 86, 100
8, 194723, Note_on_c, 5, 86, 0
8, 194730, Note_on_c, 5, 85, 100
8, 194753, Note_on_c, 5, 85, 0
8, 194760, Note_on_c, 5, 86, 100
8, 194807, Note_on_c, 5, 86, 0
8, 194820, Note_on_c, 5, 74, 100
8, 194867, Note_on_c, 5, 74, 0
8, 194880, Note_on_c, 5, 74, 100
8, 194927, Note_on_c, 5, 74, 0
8, 194940, Note_on_c, 5, 81, 100
8, 194963, Note_on_c, 5, 81, 0
8, 194970, Note_on_c, 5, 79, 100
8, 194993, Note_on_c, 5, 79, 0
8, 195000, Note_on_c, 5, 81, 100
8, 195047, Note_on_c, 5, 81, 0
8, 195060, Note_on_c, 5, 74, 100
8, 195107, Note_on_c, 5, 74, 0
8, 195120, Note_on_c, 5, 83, 100
8, 195167, Note_on_c, 5, 83, 0
8, 195240, Note_on_c, 5, 81, 100
8, 195287, Note_on_c, 5, 81, 0
8, 195360, Note_on_c, 5, 80, 100
8, 195407, Note_on_c, 5, 80, 0
8, 195420, Note_on_c, 5, 74, 100
8, 195443, Note_on_c, 5, 74, 0
8, 195450, Note_on_c, 5, 73, 100
8, 195473, Note_on_c, 5, 73, 0
8, 195480, Note_on_c, 5, 71, 100
8, 195527, Note_on_c, 5, 71, 0
8, 195540, Note_on_c, 5, 83, 100
8, 195587, Note_on_c, 5, 83, 0
8, 195600, Note_on_c, 5, 81, 100
8, 195647, Note_on_c, 5, 81, 0
8, 195660, Note_on_c, 5, 69, 100
8, 195683, Note_on_c, 5, 69, 0
8, 195690, Note_on_c, 5, 71, 100
8, 195713, Note_on_c, 5, 71, 0
8, 195720, Note_on_c, 5, 73, 100
8, 195767, Note_on_c, 5, 73, 0
8, 195780, Note_on_c, 5, 79, 100
8, 195827, Note_on_c, 5, 79, 0
8, 195840, Note_on_c, 5, 78, 100
8, 195887, Note_on_c, 5, 78, 0
8, 195900, Note_on_c, 5, 86, 100
8, 195947, Note_on_c, 5, 86, 0
8, 195960, Note_on_c, 5, 76, 100
8, 196007, Note_on_c, 5, 76, 0
8, 196020, Note_on_c, 5, 85, 100
8, 196067, Note_on_c, 5, 85, 0
8, 196080, Note_on_c, 5, 74, 100
8, 196224, Note_on_c, 5, 74, 0
8, 196224, End_track
9, 0, Start_track
9, 0, MIDI_port, 0
9, 0, Title_t, "Violino II"
9, 0, Program_c, 6, 48
9, 0, Control_c, 6, 7, 127
9, 0, Control_c, 6, 10, 87
9, 120, Note_on_c, 6, 62, 80
9, 149, Note_on_c, 6, 62, 0
9, 150, Note_on_c, 6, 64, 80
9, 179, Note_on_c, 6, 64, 0
9, 180, Note_on_c, 6, 66, 90
9, 209, Note_on_c, 6, 66, 0
9, 210, Note_on_c, 6, 64, 90
9, 239, Note_on_c, 6, 64, 0
9, 240, Note_on_c, 6, 67, 80
9, 269, Note_on_c, 6, 67, 0
9, 270, Note_on_c, 6, 66, 80
9, 299, Note_on_c, 6, 66, 0
9, 300, Note_on_c, 6, 64, 80
9, 329, Note_on_c, 6, 64, 0
9, 330, Note_on_c, 6, 62, 80
9, 359, Note_on_c, 6, 62, 0
9, 360, Note_on_c, 6, 61, 90
9, 389, Note_on_c, 6, 61, 0
9, 390, Note_on_c, 6, 59, 90
9, 419, Note_on_c, 6, 59, 0
9, 420, Note_on_c, 6, 62, 80
9, 449, Note_on_c, 6, 62, 0
9, 450, Note_on_c, 6, 61, 80
9, 479, Note_on_c, 6, 61, 0
9, 480, Note_on_c, 6, 59, 80
9, 509, Note_on_c, 6, 59, 0
9, 510, Note_on_c, 6, 57, 80
9, 539, Note_on_c, 6, 57, 0
9, 540, Note_on_c, 6, 62, 90
9, 587, Note_on_c, 6, 62, 0
9, 600, Note_on_c, 6, 55, 80
9, 647, Note_on_c, 6, 55, 0
9, 660, Note_on_c, 6, 57, 80
9, 707, Note_on_c, 6, 57, 0
9, 720, Note_on_c, 6, 62, 90
9, 767, Note_on_c, 6, 62, 0
9, 780, Note_on_c, 6, 66, 80
9, 827, Note_on_c, 6, 66, 0
9, 840, Note_on_c, 6, 66, 80
9, 887, Note_on_c, 6, 66, 0
9, 900, Note_on_c, 6, 69, 90
9, 995, Note_on_c, 6, 69, 0
9, 1020, Note_on_c, 6, 69, 80
9, 1067, Note_on_c, 6, 69, 0
9, 1080, Note_on_c, 6, 69, 90
9, 1175, Note_on_c, 6, 69, 0
9, 1200, Note_on_c, 6, 69, 80
9, 1247, Note_on_c, 6, 69, 0
9, 1260, Note_on_c, 6, 74, 90
9, 1307, Note_on_c, 6, 74, 0
9, 1320, Note_on_c, 6, 76, 80
9, 1349, Note_on_c, 6, 76, 0
9, 1350, Note_on_c, 6, 74, 80
9, 1379, Note_on_c, 6, 74, 0
9, 1380, Note_on_c, 6, 76, 80
9, 1409, Note_on_c, 6, 76, 0
9, 1410, Note_on_c, 6, 73, 80
9, 1439, Note_on_c, 6, 73, 0
9, 1440, Note_on_c, 6, 69, 90
9, 1487, Note_on_c, 6, 69, 0
9, 1500, Note_on_c, 6, 66, 80
9, 1547, Note_on_c, 6, 66, 0
9, 1560, Note_on_c, 6, 73, 80
9, 1607, Note_on_c, 6, 73, 0
9, 1620, Note_on_c, 6, 62, 90
9, 1715, Note_on_c, 6, 62, 0
9, 1740, Note_on_c, 6, 71, 80
9, 1787, Note_on_c, 6, 71, 0
9, 1800, Note_on_c, 6, 61, 90
9, 1895, Note_on_c, 6, 61, 0
9, 1920, Note_on_c, 6, 69, 80
9, 1967, Note_on_c, 6, 69, 0
9, 1980, Note_on_c, 6, 59, 90
9, 2027, Note_on_c, 6, 59, 0
9, 2040, Note_on_c, 6, 61, 80
9, 2087, Note_on_c, 6, 61, 0
9, 2100, Note_on_c, 6, 62, 80
9, 2147, Note_on_c, 6, 62, 0
9, 2160, Note_on_c, 6, 57, 90
9, 2207, Note_on_c, 6, 57, 0
9, 2220, Note_on_c, 6, 61, 80
9, 2267, Note_on_c, 6, 61, 0
9, 2280, Note_on_c, 6, 73, 80
9, 2327, Note_on_c, 6, 73, 0
9, 2340, Note_on_c, 6, 74, 90
9, 2369, Note_on_c, 6, 74, 0
9, 2370, Note_on_c, 6, 73, 90
9, 2399, Note_on_c, 6, 73, 0
9, 2400, Note_on_c, 6, 71, 80
9, 2459, Note_on_c, 6, 71, 0
9, 2460, Note_on_c, 6, 74, 80
9, 2519, Note_on_c, 6, 74, 0
9, 2520, Note_on_c, 6, 76, 90
9, 2549, Note_on_c, 6, 76, 0
9, 2550, Note_on_c, 6, 74, 90
9, 2579, Note_on_c, 6, 74, 0
9, 2580, Note_on_c, 6, 73, 80
9, 2609, Note_on_c, 6, 73, 0
9, 2610, Note_on_c, 6, 71, 80
9, 2639, Note_on_c, 6, 71, 0
9, 2640, Note_on_c, 6, 73, 80
9, 2669, Note_on_c, 6, 73, 0
9, 2670, Note_on_c, 6, 69, 80
9, 2699, Note_on_c, 6, 69, 0
9, 2700, Note_on_c, 6, 78, 90
9, 2759, Note_on_c, 6, 78, 0
9, 2760, Note_on_c, 6, 76, 80
9, 2819, Note_on_c, 6, 76, 0
9, 2820, Note_on_c, 6, 74, 80
9, 2879, Note_on_c, 6, 74, 0
9, 2880, Note_on_c, 6, 73, 90
9, 2927, Note_on_c, 6, 73, 0
9, 2940, Note_on_c, 6, 69, 80
9, 2987, Note_on_c, 6, 69, 0
9, 3000, Note_on_c, 6, 64, 80
9, 3047, Note_on_c, 6, 64, 0
9, 3060, Note_on_c, 6, 66, 90
9, 3089, Note_on_c, 6, 66, 0
9, 3090, Note_on_c, 6, 67, 90
9, 3119, Note_on_c, 6, 67, 0
9, 3120, Note_on_c, 6, 69, 80
9, 3269, Note_on_c, 6, 69, 0
9, 3270, Note_on_c, 6, 71, 90
9, 3299, Note_on_c, 6, 71, 0
9, 3300, Note_on_c, 6, 73, 80
9, 3359, Note_on_c, 6, 73, 0
9, 3360, Note_on_c, 6, 68, 80
9, 3419, Note_on_c, 6, 68, 0
9, 3420, Note_on_c, 6, 76, 90
9, 3479, Note_on_c, 6, 76, 0
9, 3480, Note_on_c, 6, 78, 80
9, 3539, Note_on_c, 6, 78, 0
9, 3540, Note_on_c, 6, 76, 80
9, 3599, Note_on_c, 6, 76, 0
9, 3630, Note_on_c, 6, 69, 65
9, 3653, Note_on_c, 6, 69, 0
9, 3660, Note_on_c, 6, 69, 65
9, 3683, Note_on_c, 6, 69, 0
9, 3690, Note_on_c, 6, 69, 65
9, 3713, Note_on_c, 6, 69, 0
9, 3720, Note_on_c, 6, 69, 65
9, 3743, Note_on_c, 6, 69, 0
9, 3750, Note_on_c, 6, 69, 65
9, 3773, Note_on_c, 6, 69, 0
9, 3780, Note_on_c, 6, 72, 65
9, 3803, Note_on_c, 6, 72, 0
9, 3810, Note_on_c, 6, 72, 65
9, 3833, Note_on_c, 6, 72, 0
9, 3840, Note_on_c, 6, 72, 65
9, 3863, Note_on_c, 6, 72, 0
9, 3870, Note_on_c, 6, 72, 65
9, 3893, Note_on_c, 6, 72, 0
9, 3900, Note_on_c, 6, 72, 65
9, 3923, Note_on_c, 6, 72, 0
9, 3930, Note_on_c, 6, 72, 65
9, 3953, Note_on_c, 6, 72, 0
9, 3960, Note_on_c, 6, 72, 65
9, 3983, Note_on_c, 6, 72, 0
9, 3990, Note_on_c, 6, 66, 65
9, 4013, Note_on_c, 6, 66, 0
9, 4020, Note_on_c, 6, 66, 65
9, 4043, Note_on_c, 6, 66, 0
9, 4050, Note_on_c, 6, 66, 65
9, 4073, Note_on_c, 6, 66, 0
9, 4080, Note_on_c, 6, 66, 65
9, 4103, Note_on_c, 6, 66, 0
9, 4110, Note_on_c, 6, 66, 65
9, 4133, Note_on_c, 6, 66, 0
9, 4140, Note_on_c, 6, 73, 65
9, 4169, Note_on_c, 6, 73, 0
9, 4170, Note_on_c, 6, 74, 90
9, 4199, Note_on_c, 6, 74, 0
9, 4200, Note_on_c, 6, 76, 80
9, 4229, Note_on_c, 6, 76, 0
9, 4260, Note_on_c, 6, 74, 80
9, 4289, Note_on_c, 6, 74, 0
9, 4320, Note_on_c, 6, 73, 90
9, 4349, Note_on_c, 6, 73, 0
9, 4380, Note_on_c, 6, 73, 80
9, 4409, Note_on_c, 6, 73, 0
9, 4410, Note_on_c, 6, 71, 80
9, 4439, Note_on_c, 6, 71, 0
9, 4440, Note_on_c, 6, 69, 80
9, 4469, Note_on_c, 6, 69, 0
9, 4470, Note_on_c, 6, 67, 80
9, 4499, Note_on_c, 6, 67, 0
9, 4500, Note_on_c, 6, 66, 90
9, 4529, Note_on_c, 6, 66, 0
9, 4560, Note_on_c, 6, 69, 80
9, 4589, Note_on_c, 6, 69, 0
9, 4590, Note_on_c, 6, 67, 80
9, 4619, Note_on_c, 6, 67, 0
9, 4620, Note_on_c, 6, 66, 80
9, 4649, Note_on_c, 6, 66, 0
9, 4650, Note_on_c, 6, 64, 80
9, 4679, Note_on_c, 6, 64, 0
9, 4680, Note_on_c, 6, 63, 90
9, 4709, Note_on_c, 6, 63, 0
9, 4740, Note_on_c, 6, 66, 80
9, 4769, Note_on_c, 6, 66, 0
9, 4770, Note_on_c, 6, 64, 80
9, 4799, Note_on_c, 6, 64, 0
9, 4800, Note_on_c, 6, 63, 80
9, 4829, Note_on_c, 6, 63, 0
9, 4830, Note_on_c, 6, 61, 80
9, 4859, Note_on_c, 6, 61, 0
9, 4860, Note_on_c, 6, 59, 90
9, 4889, Note_on_c, 6, 59, 0
9, 4920, Note_on_c, 6, 79, 80
9, 4949, Note_on_c, 6, 79, 0
9, 4950, Note_on_c, 6, 78, 80
9, 4979, Note_on_c, 6, 78, 0
9, 4980, Note_on_c, 6, 76, 80
9, 5009, Note_on_c, 6, 76, 0
9, 5010, Note_on_c, 6, 75, 80
9, 5039, Note_on_c, 6, 75, 0
9, 5040, Note_on_c, 6, 76, 90
9, 5099, Note_on_c, 6, 76, 0
9, 5100, Note_on_c, 6, 71, 80
9, 5159, Note_on_c, 6, 71, 0
9, 5280, Note_on_c, 6, 67, 80
9, 5309, Note_on_c, 6, 67, 0
9, 5310, Note_on_c, 6, 66, 80
9, 5339, Note_on_c, 6, 66, 0
9, 5340, Note_on_c, 6, 64, 80
9, 5369, Note_on_c, 6, 64, 0
9, 5370, Note_on_c, 6, 62, 80
9, 5399, Note_on_c, 6, 62, 0
9, 5400, Note_on_c, 6, 61, 90
9, 5429, Note_on_c, 6, 61, 0
9, 5460, Note_on_c, 6, 64, 80
9, 5489, Note_on_c, 6, 64, 0
9, 5490, Note_on_c, 6, 62, 80
9, 5519, Note_on_c, 6, 62, 0
9, 5520, Note_on_c, 6, 61, 80
9, 5549, Note_on_c, 6, 61, 0
9, 5550, Note_on_c, 6, 59, 80
9, 5579, Note_on_c, 6, 59, 0
9, 5580, Note_on_c, 6, 57, 90
9, 5609, Note_on_c, 6, 57, 0
9, 5640, Note_on_c, 6, 78, 80
9, 5669, Note_on_c, 6, 78, 0
9, 5670, Note_on_c, 6, 76, 80
9, 5699, Note_on_c, 6, 76, 0
9, 5700, Note_on_c, 6, 74, 80
9, 5729, Note_on_c, 6, 74, 0
9, 5730, Note_on_c, 6, 73, 80
9, 5759, Note_on_c, 6, 73, 0
9, 5760, Note_on_c, 6, 74, 90
9, 5807, Note_on_c, 6, 74, 0
9, 5820, Note_on_c, 6, 69, 80
9, 5867, Note_on_c, 6, 69, 0
9, 5880, Note_on_c, 6, 69, 80
9, 5927, Note_on_c, 6, 69, 0
9, 5940, Note_on_c, 6, 67, 90
9, 5987, Note_on_c, 6, 67, 0
9, 6000, Note_on_c, 6, 62, 80
9, 6047, Note_on_c, 6, 62, 0
9, 6060, Note_on_c, 6, 67, 80
9, 6107, Note_on_c, 6, 67, 0
9, 6120, Note_on_c, 6, 69, 90
9, 6167, Note_on_c, 6, 69, 0
9, 6180, Note_on_c, 6, 67, 80
9, 6227, Note_on_c, 6, 67, 0
9, 6240, Note_on_c, 6, 69, 80
9, 6287, Note_on_c, 6, 69, 0
9, 6300, Note_on_c, 6, 71, 90
9, 6347, Note_on_c, 6, 71, 0
9, 6360, Note_on_c, 6, 66, 80
9, 6407, Note_on_c, 6, 66, 0
9, 6420, Note_on_c, 6, 67, 80
9, 6467, Note_on_c, 6, 67, 0
9, 6480, Note_on_c, 6, 74, 90
9, 6527, Note_on_c, 6, 74, 0
9, 6540, Note_on_c, 6, 69, 80
9, 6587, Note_on_c, 6, 69, 0
9, 6600, Note_on_c, 6, 74, 80
9, 6695, Note_on_c, 6, 74, 0
9, 6720, Note_on_c, 6, 73, 80
9, 6767, Note_on_c, 6, 73, 0
9, 6780, Note_on_c, 6, 71, 80
9, 6827, Note_on_c, 6, 71, 0
9, 6840, Note_on_c, 6, 69, 90
9, 6887, Note_on_c, 6, 69, 0
9, 6900, Note_on_c, 6, 73, 80
9, 6947, Note_on_c, 6, 73, 0
9, 6960, Note_on_c, 6, 76, 80
9, 7055, Note_on_c, 6, 76, 0
9, 7080, Note_on_c, 6, 74, 80
9, 7127, Note_on_c, 6, 74, 0
9, 7140, Note_on_c, 6, 73, 80
9, 7187, Note_on_c, 6, 73, 0
9, 7200, Note_on_c, 6, 71, 90
9, 7247, Note_on_c, 6, 71, 0
9, 7260, Note_on_c, 6, 74, 80
9, 7307, Note_on_c, 6, 74, 0
9, 7320, Note_on_c, 6, 78, 80
9, 7367, Note_on_c, 6, 78, 0
9, 7380, Note_on_c, 6, 67, 90
9, 7427, Note_on_c, 6, 67, 0
9, 7440, Note_on_c, 6, 70, 80
9, 7487, Note_on_c, 6, 70, 0
9, 7500, Note_on_c, 6, 74, 80
9, 7595, Note_on_c, 6, 74, 0
9, 7620, Note_on_c, 6, 76, 80
9, 7649, Note_on_c, 6, 76, 0
9, 7650, Note_on_c, 6, 74, 80
9, 7679, Note_on_c, 6, 74, 0
9, 7680, Note_on_c, 6, 73, 80
9, 7709, Note_on_c, 6, 73, 0
9, 7710, Note_on_c, 6, 74, 80
9, 7739, Note_on_c, 6, 74, 0
9, 7740, Note_on_c, 6, 69, 90
9, 7787, Note_on_c, 6, 69, 0
9, 7800, Note_on_c, 6, 74, 80
9, 7847, Note_on_c, 6, 74, 0
9, 7860, Note_on_c, 6, 73, 80
9, 7907, Note_on_c, 6, 73, 0
9, 7950, Note_on_c, 6, 77, 65
9, 7973, Note_on_c, 6, 77, 0
9, 7980, Note_on_c, 6, 77, 65
9, 8003, Note_on_c, 6, 77, 0
9, 8010, Note_on_c, 6, 77, 65
9, 8033, Note_on_c, 6, 77, 0
9, 8040, Note_on_c, 6, 77, 65
9, 8063, Note_on_c, 6, 77, 0
9, 8070, Note_on_c, 6, 77, 65
9, 8093, Note_on_c, 6, 77, 0
9, 8100, Note_on_c, 6, 74, 65
9, 8123, Note_on_c, 6, 74, 0
9, 8130, Note_on_c, 6, 74, 65
9, 8153, Note_on_c, 6, 74, 0
9, 8160, Note_on_c, 6, 74, 65
9, 8183, Note_on_c, 6, 74, 0
9, 8190, Note_on_c, 6, 74, 65
9, 8213, Note_on_c, 6, 74, 0
9, 8220, Note_on_c, 6, 74, 65
9, 8243, Note_on_c, 6, 74, 0
9, 8250, Note_on_c, 6, 74, 65
9, 8273, Note_on_c, 6, 74, 0
9, 8280, Note_on_c, 6, 71, 65
9, 8303, Note_on_c, 6, 71, 0
9, 8310, Note_on_c, 6, 71, 65
9, 8333, Note_on_c, 6, 71, 0
9, 8340, Note_on_c, 6, 71, 65
9, 8363, Note_on_c, 6, 71, 0
9, 8370, Note_on_c, 6, 71, 65
9, 8393, Note_on_c, 6, 71, 0
9, 8400, Note_on_c, 6, 71, 80
9, 8423, Note_on_c, 6, 71, 0
9, 8430, Note_on_c, 6, 71, 80
9, 8453, Note_on_c, 6, 71, 0
9, 8460, Note_on_c, 6, 66, 90
9, 8507, Note_on_c, 6, 66, 0
9, 8520, Note_on_c, 6, 69, 80
9, 8567, Note_on_c, 6, 69, 0
9, 8580, Note_on_c, 6, 73, 80
9, 8627, Note_on_c, 6, 73, 0
9, 8640, Note_on_c, 6, 74, 90
9, 8735, Note_on_c, 6, 74, 0
9, 11640, Note_on_c, 6, 76, 80
9, 11699, Note_on_c, 6, 76, 0
9, 11700, Note_on_c, 6, 74, 90
9, 11759, Note_on_c, 6, 74, 0
9, 11760, Note_on_c, 6, 69, 80
9, 11819, Note_on_c, 6, 69, 0
9, 11820, Note_on_c, 6, 66, 80
9, 11879, Note_on_c, 6, 66, 0
9, 11880, Note_on_c, 6, 64, 90
9, 11939, Note_on_c, 6, 64, 0
9, 11940, Note_on_c, 6, 69, 80
9, 11969, Note_on_c, 6, 69, 0
9, 11970, Note_on_c, 6, 67, 80
9, 11999, Note_on_c, 6, 67, 0
9, 12000, Note_on_c, 6, 69, 80
9, 12119, Note_on_c, 6, 69, 0
9, 12120, Note_on_c, 6, 69, 80
9, 12179, Note_on_c, 6, 69, 0
9, 12180, Note_on_c, 6, 69, 80
9, 12239, Note_on_c, 6, 69, 0
9, 12240, Note_on_c, 6, 69, 90
9, 12299, Note_on_c, 6, 69, 0
9, 12300, Note_on_c, 6, 66, 80
9, 12359, Note_on_c, 6, 66, 0
9, 13080, Note_on_c, 6, 62, 80
9, 13139, Note_on_c, 6, 62, 0
9, 13140, Note_on_c, 6, 69, 90
9, 13259, Note_on_c, 6, 69, 0
9, 13260, Note_on_c, 6, 64, 80
9, 13319, Note_on_c, 6, 64, 0
9, 13320, Note_on_c, 6, 71, 90
9, 13439, Note_on_c, 6, 71, 0
9, 13440, Note_on_c, 6, 64, 80
9, 13499, Note_on_c, 6, 64, 0
9, 13500, Note_on_c, 6, 73, 90
9, 13559, Note_on_c, 6, 73, 0
9, 13560, Note_on_c, 6, 71, 80
9, 13589, Note_on_c, 6, 71, 0
9, 13590, Note_on_c, 6, 73, 80
9, 13619, Note_on_c, 6, 73, 0
9, 13620, Note_on_c, 6, 74, 80
9, 13649, Note_on_c, 6, 74, 0
9, 13650, Note_on_c, 6, 71, 80
9, 13679, Note_on_c, 6, 71, 0
9, 13680, Note_on_c, 6, 74, 90
9, 13709, Note_on_c, 6, 74, 0
9, 13710, Note_on_c, 6, 73, 90
9, 13739, Note_on_c, 6, 73, 0
9, 13740, Note_on_c, 6, 71, 80
9, 13769, Note_on_c, 6, 71, 0
9, 13770, Note_on_c, 6, 69, 80
9, 13799, Note_on_c, 6, 69, 0
9, 13800, Note_on_c, 6, 73, 80
9, 13829, Note_on_c, 6, 73, 0
9, 13830, Note_on_c, 6, 69, 80
9, 13859, Note_on_c, 6, 69, 0
9, 13860, Note_on_c, 6, 71, 90
9, 13889, Note_on_c, 6, 71, 0
9, 13890, Note_on_c, 6, 69, 90
9, 13919, Note_on_c, 6, 69, 0
9, 13920, Note_on_c, 6, 67, 80
9, 13949, Note_on_c, 6, 67, 0
9, 13950, Note_on_c, 6, 66, 80
9, 13979, Note_on_c, 6, 66, 0
9, 13980, Note_on_c, 6, 69, 80
9, 14009, Note_on_c, 6, 69, 0
9, 14010, Note_on_c, 6, 66, 80
9, 14039, Note_on_c, 6, 66, 0
9, 14040, Note_on_c, 6, 69, 90
9, 14069, Note_on_c, 6, 69, 0
9, 14070, Note_on_c, 6, 67, 90
9, 14099, Note_on_c, 6, 67, 0
9, 14100, Note_on_c, 6, 66, 80
9, 14129, Note_on_c, 6, 66, 0
9, 14130, Note_on_c, 6, 64, 80
9, 14159, Note_on_c, 6, 64, 0
9, 14160, Note_on_c, 6, 67, 80
9, 14189, Note_on_c, 6, 67, 0
9, 14190, Note_on_c, 6, 64, 80
9, 14219, Note_on_c, 6, 64, 0
9, 14220, Note_on_c, 6, 69, 90
9, 14249, Note_on_c, 6, 69, 0
9, 14280, Note_on_c, 6, 67, 80
9, 14309, Note_on_c, 6, 67, 0
9, 14310, Note_on_c, 6, 66, 80
9, 14339, Note_on_c, 6, 66, 0
9, 14340, Note_on_c, 6, 64, 80
9, 14369, Note_on_c, 6, 64, 0
9, 14370, Note_on_c, 6, 66, 80
9, 14399, Note_on_c, 6, 66, 0
9, 14400, Note_on_c, 6, 62, 90
9, 14610, Note_on_c, 6, 62, 0
9, 14610, Note_on_c, 6, 61, 90
9, 14639, Note_on_c, 6, 61, 0
9, 14640, Note_on_c, 6, 64, 80
9, 14819, Note_on_c, 6, 64, 0
9, 14820, Note_on_c, 6, 68, 80
9, 14879, Note_on_c, 6, 68, 0
9, 14880, Note_on_c, 6, 71, 80
9, 14939, Note_on_c, 6, 71, 0
9, 14940, Note_on_c, 6, 69, 90
9, 15059, Note_on_c, 6, 69, 0
9, 15060, Note_on_c, 6, 68, 80
9, 15119, Note_on_c, 6, 68, 0
9, 15120, Note_on_c, 6, 69, 90
9, 15179, Note_on_c, 6, 69, 0
9, 15180, Note_on_c, 6, 73, 80
9, 15239, Note_on_c, 6, 73, 0
9, 15240, Note_on_c, 6, 76, 80
9, 15299, Note_on_c, 6, 76, 0
9, 15300, Note_on_c, 6, 74, 90
9, 15359, Note_on_c, 6, 74, 0
9, 15360, Note_on_c, 6, 69, 80
9, 15419, Note_on_c, 6, 69, 0
9, 15420, Note_on_c, 6, 66, 80
9, 15479, Note_on_c, 6, 66, 0
9, 15480, Note_on_c, 6, 64, 90
9, 15539, Note_on_c, 6, 64, 0
9, 15540, Note_on_c, 6, 69, 80
9, 15569, Note_on_c, 6, 69, 0
9, 15570, Note_on_c, 6, 67, 80
9, 15599, Note_on_c, 6, 67, 0
9, 15600, Note_on_c, 6, 69, 80
9, 15719, Note_on_c, 6, 69, 0
9, 15720, Note_on_c, 6, 69, 80
9, 15779, Note_on_c, 6, 69, 0
9, 15780, Note_on_c, 6, 69, 80
9, 15839, Note_on_c, 6, 69, 0
9, 15840, Note_on_c, 6, 69, 90
9, 15899, Note_on_c, 6, 69, 0
9, 15900, Note_on_c, 6, 69, 80
9, 15959, Note_on_c, 6, 69, 0
9, 15960, Note_on_c, 6, 69, 80
9, 16019, Note_on_c, 6, 69, 0
9, 16020, Note_on_c, 6, 66, 90
9, 16079, Note_on_c, 6, 66, 0
9, 16140, Note_on_c, 6, 67, 80
9, 16199, Note_on_c, 6, 67, 0
9, 16200, Note_on_c, 6, 69, 90
9, 16259, Note_on_c, 6, 69, 0
9, 16320, Note_on_c, 6, 69, 80
9, 16379, Note_on_c, 6, 69, 0
9, 16380, Note_on_c, 6, 71, 90
9, 16439, Note_on_c, 6, 71, 0
9, 16500, Note_on_c, 6, 74, 80
9, 16559, Note_on_c, 6, 74, 0
9, 16560, Note_on_c, 6, 76, 90
9, 16619, Note_on_c, 6, 76, 0
9, 16680, Note_on_c, 6, 76, 80
9, 16739, Note_on_c, 6, 76, 0
9, 16740, Note_on_c, 6, 76, 90
9, 16799, Note_on_c, 6, 76, 0
9, 16860, Note_on_c, 6, 69, 80
9, 16919, Note_on_c, 6, 69, 0
9, 16920, Note_on_c, 6, 71, 90
9, 16979, Note_on_c, 6, 71, 0
9, 17040, Note_on_c, 6, 69, 80
9, 17099, Note_on_c, 6, 69, 0
9, 17100, Note_on_c, 6, 69, 90
9, 17159, Note_on_c, 6, 69, 0
9, 17220, Note_on_c, 6, 64, 80
9, 17279, Note_on_c, 6, 64, 0
9, 17280, Note_on_c, 6, 68, 90
9, 17339, Note_on_c, 6, 68, 0
9, 17400, Note_on_c, 6, 71, 80
9, 17459, Note_on_c, 6, 71, 0
9, 17460, Note_on_c, 6, 73, 90
9, 17519, Note_on_c, 6, 73, 0
9, 17580, Note_on_c, 6, 74, 80
9, 17639, Note_on_c, 6, 74, 0
9, 17640, Note_on_c, 6, 73, 90
9, 17699, Note_on_c, 6, 73, 0
9, 17760, Note_on_c, 6, 69, 80
9, 17819, Note_on_c, 6, 69, 0
9, 17820, Note_on_c, 6, 69, 90
9, 17879, Note_on_c, 6, 69, 0
9, 17940, Note_on_c, 6, 69, 80
9, 17999, Note_on_c, 6, 69, 0
9, 18000, Note_on_c, 6, 69, 90
9, 18059, Note_on_c, 6, 69, 0
9, 18120, Note_on_c, 6, 74, 80
9, 18179, Note_on_c, 6, 74, 0
9, 18180, Note_on_c, 6, 74, 90
9, 18239, Note_on_c, 6, 74, 0
9, 18300, Note_on_c, 6, 76, 80
9, 18359, Note_on_c, 6, 76, 0
9, 18360, Note_on_c, 6, 78, 90
9, 18419, Note_on_c, 6, 78, 0
9, 18480, Note_on_c, 6, 78, 80
9, 18539, Note_on_c, 6, 78, 0
9, 18540, Note_on_c, 6, 76, 90
9, 18599, Note_on_c, 6, 76, 0
9, 18660, Note_on_c, 6, 76, 80
9, 18719, Note_on_c, 6, 76, 0
9, 18720, Note_on_c, 6, 73, 90
9, 18779, Note_on_c, 6, 73, 0
9, 18840, Note_on_c, 6, 69, 80
9, 18899, Note_on_c, 6, 69, 0
9, 18900, Note_on_c, 6, 69, 90
9, 18959, Note_on_c, 6, 69, 0
9, 19020, Note_on_c, 6, 71, 80
9, 19079, Note_on_c, 6, 71, 0
9, 19080, Note_on_c, 6, 73, 90
9, 19139, Note_on_c, 6, 73, 0
9, 19200, Note_on_c, 6, 73, 80
9, 19259, Note_on_c, 6, 73, 0
9, 19260, Note_on_c, 6, 71, 90
9, 19319, Note_on_c, 6, 71, 0
9, 19380, Note_on_c, 6, 74, 80
9, 19499, Note_on_c, 6, 74, 0
9, 19500, Note_on_c, 6, 73, 80
9, 19529, Note_on_c, 6, 73, 0
9, 19530, Note_on_c, 6, 74, 80
9, 19559, Note_on_c, 6, 74, 0
9, 19560, Note_on_c, 6, 76, 80
9, 19589, Note_on_c, 6, 76, 0
9, 19590, Note_on_c, 6, 73, 80
9, 19619, Note_on_c, 6, 73, 0
9, 19620, Note_on_c, 6, 69, 90
9, 19679, Note_on_c, 6, 69, 0
9, 19680, Note_on_c, 6, 67, 80
9, 19709, Note_on_c, 6, 67, 0
9, 19710, Note_on_c, 6, 69, 80
9, 19739, Note_on_c, 6, 69, 0
9, 19740, Note_on_c, 6, 71, 80
9, 19799, Note_on_c, 6, 71, 0
9, 19800, Note_on_c, 6, 64, 90
9, 19859, Note_on_c, 6, 64, 0
9, 19860, Note_on_c, 6, 66, 80
9, 19889, Note_on_c, 6, 66, 0
9, 19890, Note_on_c, 6, 67, 80
9, 19919, Note_on_c, 6, 67, 0
9, 19920, Note_on_c, 6, 69, 80
9, 19979, Note_on_c, 6, 69, 0
9, 19980, Note_on_c, 6, 62, 90
9, 20039, Note_on_c, 6, 62, 0
9, 20040, Note_on_c, 6, 64, 80
9, 20099, Note_on_c, 6, 64, 0
9, 20100, Note_on_c, 6, 57, 80
9, 20159, Note_on_c, 6, 57, 0
9, 20160, Note_on_c, 6, 69, 90
9, 20279, Note_on_c, 6, 69, 0
9, 20280, Note_on_c, 6, 64, 80
9, 20339, Note_on_c, 6, 64, 0
9, 20340, Note_on_c, 6, 66, 90
9, 20369, Note_on_c, 6, 66, 0
9, 20370, Note_on_c, 6, 68, 90
9, 20399, Note_on_c, 6, 68, 0
9, 20400, Note_on_c, 6, 69, 80
9, 20549, Note_on_c, 6, 69, 0
9, 20550, Note_on_c, 6, 71, 90
9, 20579, Note_on_c, 6, 71, 0
9, 20580, Note_on_c, 6, 73, 80
9, 20639, Note_on_c, 6, 73, 0
9, 20640, Note_on_c, 6, 68, 80
9, 20699, Note_on_c, 6, 68, 0
9, 20700, Note_on_c, 6, 76, 90
9, 20759, Note_on_c, 6, 76, 0
9, 20760, Note_on_c, 6, 78, 80
9, 20819, Note_on_c, 6, 78, 0
9, 20820, Note_on_c, 6, 76, 80
9, 20879, Note_on_c, 6, 76, 0
9, 20910, Note_on_c, 6, 69, 70
9, 20939, Note_on_c, 6, 69, 0
9, 20940, Note_on_c, 6, 69, 70
9, 20969, Note_on_c, 6, 69, 0
9, 20970, Note_on_c, 6, 69, 70
9, 20999, Note_on_c, 6, 69, 0
9, 21000, Note_on_c, 6, 69, 70
9, 21029, Note_on_c, 6, 69, 0
9, 21030, Note_on_c, 6, 69, 70
9, 21059, Note_on_c, 6, 69, 0
9, 21060, Note_on_c, 6, 72, 70
9, 21089, Note_on_c, 6, 72, 0
9, 21090, Note_on_c, 6, 72, 70
9, 21119, Note_on_c, 6, 72, 0
9, 21120, Note_on_c, 6, 72, 70
9, 21149, Note_on_c, 6, 72, 0
9, 21150, Note_on_c, 6, 72, 70
9, 21179, Note_on_c, 6, 72, 0
9, 21180, Note_on_c, 6, 72, 70
9, 21209, Note_on_c, 6, 72, 0
9, 21210, Note_on_c, 6, 72, 70
9, 21239, Note_on_c, 6, 72, 0
9, 21240, Note_on_c, 6, 72, 70
9, 21269, Note_on_c, 6, 72, 0
9, 21270, Note_on_c, 6, 66, 70
9, 21299, Note_on_c, 6, 66, 0
9, 21300, Note_on_c, 6, 66, 70
9, 21329, Note_on_c, 6, 66, 0
9, 21330, Note_on_c, 6, 66, 70
9, 21359, Note_on_c, 6, 66, 0
9, 21360, Note_on_c, 6, 66, 70
9, 21389, Note_on_c, 6, 66, 0
9, 21390, Note_on_c, 6, 66, 70
9, 21419, Note_on_c, 6, 66, 0
9, 21420, Note_on_c, 6, 73, 70
9, 21449, Note_on_c, 6, 73, 0
9, 21450, Note_on_c, 6, 74, 90
9, 21479, Note_on_c, 6, 74, 0
9, 21480, Note_on_c, 6, 76, 90
9, 21509, Note_on_c, 6, 76, 0
9, 21540, Note_on_c, 6, 74, 90
9, 21569, Note_on_c, 6, 74, 0
9, 21600, Note_on_c, 6, 73, 90
9, 21719, Note_on_c, 6, 73, 0
9, 21720, Note_on_c, 6, 73, 80
9, 21768, Note_on_c, 6, 73, 0
9, 21780, Note_on_c, 6, 72, 90
9, 21828, Note_on_c, 6, 72, 0
9, 21900, Note_on_c, 6, 72, 80
9, 21948, Note_on_c, 6, 72, 0
9, 21960, Note_on_c, 6, 72, 90
9, 22008, Note_on_c, 6, 72, 0
9, 22080, Note_on_c, 6, 66, 80
9, 22128, Note_on_c, 6, 66, 0
9, 22140, Note_on_c, 6, 71, 90
9, 22188, Note_on_c, 6, 71, 0
9, 22440, Note_on_c, 6, 67, 80
9, 22488, Note_on_c, 6, 67, 0
9, 22500, Note_on_c, 6, 67, 90
9, 22548, Note_on_c, 6, 67, 0
9, 22620, Note_on_c, 6, 79, 80
9, 22668, Note_on_c, 6, 79, 0
9, 22680, Note_on_c, 6, 73, 90
9, 22728, Note_on_c, 6, 73, 0
9, 22800, Note_on_c, 6, 73, 80
9, 22848, Note_on_c, 6, 73, 0
9, 22860, Note_on_c, 6, 78, 90
9, 22908, Note_on_c, 6, 78, 0
9, 23160, Note_on_c, 6, 66, 80
9, 23208, Note_on_c, 6, 66, 0
9, 23220, Note_on_c, 6, 68, 90
9, 23268, Note_on_c, 6, 68, 0
9, 23340, Note_on_c, 6, 68, 80
9, 23388, Note_on_c, 6, 68, 0
9, 23400, Note_on_c, 6, 68, 90
9, 23448, Note_on_c, 6, 68, 0
9, 23520, Note_on_c, 6, 68, 80
9, 23568, Note_on_c, 6, 68, 0
9, 23580, Note_on_c, 6, 68, 90
9, 23628, Note_on_c, 6, 68, 0
9, 23880, Note_on_c, 6, 71, 80
9, 23928, Note_on_c, 6, 71, 0
9, 23940, Note_on_c, 6, 69, 90
9, 23988, Note_on_c, 6, 69, 0
9, 24060, Note_on_c, 6, 69, 80
9, 24108, Note_on_c, 6, 69, 0
9, 24120, Note_on_c, 6, 72, 90
9, 24168, Note_on_c, 6, 72, 0
9, 24240, Note_on_c, 6, 72, 80
9, 24288, Note_on_c, 6, 72, 0
9, 24300, Note_on_c, 6, 71, 90
9, 24348, Note_on_c, 6, 71, 0
9, 24600, Note_on_c, 6, 71, 80
9, 24648, Note_on_c, 6, 71, 0
9, 24660, Note_on_c, 6, 64, 90
9, 24708, Note_on_c, 6, 64, 0
9, 24780, Note_on_c, 6, 67, 80
9, 24828, Note_on_c, 6, 67, 0
9, 24840, Note_on_c, 6, 67, 90
9, 24888, Note_on_c, 6, 67, 0
9, 24960, Note_on_c, 6, 66, 80
9, 25008, Note_on_c, 6, 66, 0
9, 25020, Note_on_c, 6, 70, 90
9, 25068, Note_on_c, 6, 70, 0
9, 25320, Note_on_c, 6, 70, 80
9, 25368, Note_on_c, 6, 70, 0
9, 25380, Note_on_c, 6, 74, 90
9, 25428, Note_on_c, 6, 74, 0
9, 25500, Note_on_c, 6, 78, 80
9, 25548, Note_on_c, 6, 78, 0
9, 25560, Note_on_c, 6, 76, 90
9, 25608, Note_on_c, 6, 76, 0
9, 25680, Note_on_c, 6, 71, 80
9, 25728, Note_on_c, 6, 71, 0
9, 25740, Note_on_c, 6, 64, 90
9, 25788, Note_on_c, 6, 64, 0
9, 26040, Note_on_c, 6, 71, 80
9, 26088, Note_on_c, 6, 71, 0
9, 26100, Note_on_c, 6, 69, 90
9, 26148, Note_on_c, 6, 69, 0
9, 26220, Note_on_c, 6, 72, 80
9, 26268, Note_on_c, 6, 72, 0
9, 26280, Note_on_c, 6, 71, 90
9, 26328, Note_on_c, 6, 71, 0
9, 26400, Note_on_c, 6, 71, 80
9, 26448, Note_on_c, 6, 71, 0
9, 26460, Note_on_c, 6, 75, 90
9, 26508, Note_on_c, 6, 75, 0
9, 26880, Note_on_c, 6, 71, 80
9, 26909, Note_on_c, 6, 71, 0
9, 26910, Note_on_c, 6, 69, 80
9, 26939, Note_on_c, 6, 69, 0
9, 26940, Note_on_c, 6, 67, 80
9, 26969, Note_on_c, 6, 67, 0
9, 26970, Note_on_c, 6, 66, 80
9, 26999, Note_on_c, 6, 66, 0
9, 27000, Note_on_c, 6, 64, 90
9, 27029, Note_on_c, 6, 64, 0
9, 27060, Note_on_c, 6, 67, 80
9, 27089, Note_on_c, 6, 67, 0
9, 27090, Note_on_c, 6, 66, 80
9, 27119, Note_on_c, 6, 66, 0
9, 27120, Note_on_c, 6, 64, 80
9, 27149, Note_on_c, 6, 64, 0
9, 27150, Note_on_c, 6, 62, 80
9, 27179, Note_on_c, 6, 62, 0
9, 27180, Note_on_c, 6, 61, 90
9, 27209, Note_on_c, 6, 61, 0
9, 27240, Note_on_c, 6, 78, 80
9, 27269, Note_on_c, 6, 78, 0
9, 27270, Note_on_c, 6, 76, 80
9, 27299, Note_on_c, 6, 76, 0
9, 27300, Note_on_c, 6, 74, 80
9, 27329, Note_on_c, 6, 74, 0
9, 27330, Note_on_c, 6, 73, 80
9, 27359, Note_on_c, 6, 73, 0
9, 27360, Note_on_c, 6, 74, 90
9, 27419, Note_on_c, 6, 74, 0
9, 27420, Note_on_c, 6, 69, 80
9, 27479, Note_on_c, 6, 69, 0
9, 27480, Note_on_c, 6, 71, 80
9, 27539, Note_on_c, 6, 71, 0
9, 27540, Note_on_c, 6, 71, 90
9, 27659, Note_on_c, 6, 71, 0
9, 27660, Note_on_c, 6, 69, 80
9, 27719, Note_on_c, 6, 69, 0
9, 27720, Note_on_c, 6, 67, 90
9, 27749, Note_on_c, 6, 67, 0
9, 27750, Note_on_c, 6, 69, 90
9, 27779, Note_on_c, 6, 69, 0
9, 27780, Note_on_c, 6, 71, 80
9, 27839, Note_on_c, 6, 71, 0
9, 27840, Note_on_c, 6, 70, 80
9, 27899, Note_on_c, 6, 70, 0
9, 27900, Note_on_c, 6, 71, 90
9, 27959, Note_on_c, 6, 71, 0
9, 27960, Note_on_c, 6, 73, 80
9, 28019, Note_on_c, 6, 73, 0
9, 28020, Note_on_c, 6, 70, 80
9, 28079, Note_on_c, 6, 70, 0
9, 28110, Note_on_c, 6, 71, 70
9, 28139, Note_on_c, 6, 71, 0
9, 28140, Note_on_c, 6, 71, 70
9, 28169, Note_on_c, 6, 71, 0
9, 28170, Note_on_c, 6, 71, 70
9, 28199, Note_on_c, 6, 71, 0
9, 28200, Note_on_c, 6, 71, 70
9, 28229, Note_on_c, 6, 71, 0
9, 28230, Note_on_c, 6, 71, 70
9, 28259, Note_on_c, 6, 71, 0
9, 28260, Note_on_c, 6, 74, 70
9, 28289, Note_on_c, 6, 74, 0
9, 28290, Note_on_c, 6, 74, 70
9, 28319, Note_on_c, 6, 74, 0
9, 28320, Note_on_c, 6, 74, 70
9, 28349, Note_on_c, 6, 74, 0
9, 28350, Note_on_c, 6, 74, 70
9, 28379, Note_on_c, 6, 74, 0
9, 28380, Note_on_c, 6, 74, 70
9, 28409, Note_on_c, 6, 74, 0
9, 28410, Note_on_c, 6, 74, 70
9, 28439, Note_on_c, 6, 74, 0
9, 28440, Note_on_c, 6, 74, 70
9, 28469, Note_on_c, 6, 74, 0
9, 28470, Note_on_c, 6, 68, 70
9, 28499, Note_on_c, 6, 68, 0
9, 28500, Note_on_c, 6, 68, 70
9, 28529, Note_on_c, 6, 68, 0
9, 28530, Note_on_c, 6, 68, 70
9, 28559, Note_on_c, 6, 68, 0
9, 28560, Note_on_c, 6, 68, 70
9, 28589, Note_on_c, 6, 68, 0
9, 28590, Note_on_c, 6, 68, 70
9, 28619, Note_on_c, 6, 68, 0
9, 28620, Note_on_c, 6, 66, 70
9, 28649, Note_on_c, 6, 66, 0
9, 28650, Note_on_c, 6, 76, 90
9, 28679, Note_on_c, 6, 76, 0
9, 28680, Note_on_c, 6, 74, 80
9, 28709, Note_on_c, 6, 74, 0
9, 28710, Note_on_c, 6, 73, 80
9, 28739, Note_on_c, 6, 73, 0
9, 28740, Note_on_c, 6, 71, 80
9, 28769, Note_on_c, 6, 71, 0
9, 28770, Note_on_c, 6, 70, 80
9, 28799, Note_on_c, 6, 70, 0
9, 28800, Note_on_c, 6, 71, 90
9, 28919, Note_on_c, 6, 71, 0
9, 28920, Note_on_c, 6, 62, 90
9, 28949, Note_on_c, 6, 62, 0
9, 28950, Note_on_c, 6, 64, 90
9, 28979, Note_on_c, 6, 64, 0
9, 28980, Note_on_c, 6, 66, 89
9, 29009, Note_on_c, 6, 66, 0
9, 29010, Note_on_c, 6, 64, 88
9, 29039, Note_on_c, 6, 64, 0
9, 29040, Note_on_c, 6, 67, 87
9, 29069, Note_on_c, 6, 67, 0
9, 29070, Note_on_c, 6, 66, 86
9, 29099, Note_on_c, 6, 66, 0
9, 29100, Note_on_c, 6, 64, 85
9, 29129, Note_on_c, 6, 64, 0
9, 29130, Note_on_c, 6, 62, 84
9, 29159, Note_on_c, 6, 62, 0
9, 29160, Note_on_c, 6, 61, 84
9, 29189, Note_on_c, 6, 61, 0
9, 29190, Note_on_c, 6, 59, 83
9, 29219, Note_on_c, 6, 59, 0
9, 29220, Note_on_c, 6, 62, 82
9, 29249, Note_on_c, 6, 62, 0
9, 29250, Note_on_c, 6, 61, 81
9, 29279, Note_on_c, 6, 61, 0
9, 29280, Note_on_c, 6, 59, 80
9, 29309, Note_on_c, 6, 59, 0
9, 29310, Note_on_c, 6, 57, 79
9, 29339, Note_on_c, 6, 57, 0
9, 29340, Note_on_c, 6, 62, 78
9, 29399, Note_on_c, 6, 62, 0
9, 29400, Note_on_c, 6, 55, 77
9, 29459, Note_on_c, 6, 55, 0
9, 29460, Note_on_c, 6, 57, 75
9, 29519, Note_on_c, 6, 57, 0
9, 29520, Note_on_c, 6, 62, 73
9, 29579, Note_on_c, 6, 62, 0
9, 29580, Note_on_c, 6, 66, 71
9, 29639, Note_on_c, 6, 66, 0
9, 29640, Note_on_c, 6, 66, 80
9, 29699, Note_on_c, 6, 66, 0
9, 29700, Note_on_c, 6, 69, 90
9, 29819, Note_on_c, 6, 69, 0
9, 29820, Note_on_c, 6, 69, 80
9, 29879, Note_on_c, 6, 69, 0
9, 29880, Note_on_c, 6, 69, 90
9, 29999, Note_on_c, 6, 69, 0
9, 30000, Note_on_c, 6, 69, 80
9, 30059, Note_on_c, 6, 69, 0
9, 30060, Note_on_c, 6, 74, 90
9, 30119, Note_on_c, 6, 74, 0
9, 30120, Note_on_c, 6, 76, 80
9, 30149, Note_on_c, 6, 76, 0
9, 30150, Note_on_c, 6, 74, 80
9, 30179, Note_on_c, 6, 74, 0
9, 30180, Note_on_c, 6, 76, 80
9, 30209, Note_on_c, 6, 76, 0
9, 30210, Note_on_c, 6, 73, 80
9, 30239, Note_on_c, 6, 73, 0
9, 30240, Note_on_c, 6, 69, 90
9, 30299, Note_on_c, 6, 69, 0
9, 30300, Note_on_c, 6, 66, 80
9, 30359, Note_on_c, 6, 66, 0
9, 30360, Note_on_c, 6, 62, 80
9, 30419, Note_on_c, 6, 62, 0
9, 30420, Note_on_c, 6, 69, 90
9, 30539, Note_on_c, 6, 69, 0
9, 30540, Note_on_c, 6, 64, 80
9, 30599, Note_on_c, 6, 64, 0
9, 30600, Note_on_c, 6, 71, 90
9, 30719, Note_on_c, 6, 71, 0
9, 30720, Note_on_c, 6, 64, 80
9, 30779, Note_on_c, 6, 64, 0
9, 30780, Note_on_c, 6, 73, 90
9, 30839, Note_on_c, 6, 73, 0
9, 30840, Note_on_c, 6, 71, 80
9, 30869, Note_on_c, 6, 71, 0
9, 30870, Note_on_c, 6, 73, 80
9, 30899, Note_on_c, 6, 73, 0
9, 30900, Note_on_c, 6, 74, 80
9, 30929, Note_on_c, 6, 74, 0
9, 30930, Note_on_c, 6, 71, 80
9, 30959, Note_on_c, 6, 71, 0
9, 30960, Note_on_c, 6, 74, 90
9, 30989, Note_on_c, 6, 74, 0
9, 30990, Note_on_c, 6, 73, 90
9, 31019, Note_on_c, 6, 73, 0
9, 31020, Note_on_c, 6, 71, 80
9, 31049, Note_on_c, 6, 71, 0
9, 31050, Note_on_c, 6, 69, 80
9, 31079, Note_on_c, 6, 69, 0
9, 31080, Note_on_c, 6, 73, 80
9, 31109, Note_on_c, 6, 73, 0
9, 31110, Note_on_c, 6, 69, 80
9, 31139, Note_on_c, 6, 69, 0
9, 31140, Note_on_c, 6, 71, 90
9, 31169, Note_on_c, 6, 71, 0
9, 31170, Note_on_c, 6, 69, 90
9, 31199, Note_on_c, 6, 69, 0
9, 31200, Note_on_c, 6, 67, 80
9, 31229, Note_on_c, 6, 67, 0
9, 31230, Note_on_c, 6, 66, 80
9, 31259, Note_on_c, 6, 66, 0
9, 31260, Note_on_c, 6, 69, 80
9, 31289, Note_on_c, 6, 69, 0
9, 31290, Note_on_c, 6, 66, 80
9, 31319, Note_on_c, 6, 66, 0
9, 31320, Note_on_c, 6, 69, 90
9, 31349, Note_on_c, 6, 69, 0
9, 31350, Note_on_c, 6, 67, 90
9, 31379, Note_on_c, 6, 67, 0
9, 31380, Note_on_c, 6, 66, 80
9, 31409, Note_on_c, 6, 66, 0
9, 31410, Note_on_c, 6, 64, 80
9, 31439, Note_on_c, 6, 64, 0
9, 31440, Note_on_c, 6, 67, 80
9, 31469, Note_on_c, 6, 67, 0
9, 31470, Note_on_c, 6, 64, 80
9, 31499, Note_on_c, 6, 64, 0
9, 31500, Note_on_c, 6, 69, 90
9, 31529, Note_on_c, 6, 69, 0
9, 31560, Note_on_c, 6, 67, 80
9, 31589, Note_on_c, 6, 67, 0
9, 31590, Note_on_c, 6, 66, 80
9, 31619, Note_on_c, 6, 66, 0
9, 31620, Note_on_c, 6, 64, 80
9, 31649, Note_on_c, 6, 64, 0
9, 31650, Note_on_c, 6, 66, 80
9, 31679, Note_on_c, 6, 66, 0
9, 31680, Note_on_c, 6, 62, 90
9, 31739, Note_on_c, 6, 62, 0
9, 31740, Note_on_c, 6, 66, 80
9, 31799, Note_on_c, 6, 66, 0
9, 31800, Note_on_c, 6, 69, 80
9, 31919, Note_on_c, 6, 69, 0
9, 31920, Note_on_c, 6, 71, 80
9, 31979, Note_on_c, 6, 71, 0
9, 31980, Note_on_c, 6, 73, 80
9, 32039, Note_on_c, 6, 73, 0
9, 32040, Note_on_c, 6, 71, 90
9, 32099, Note_on_c, 6, 71, 0
9, 32100, Note_on_c, 6, 69, 80
9, 32129, Note_on_c, 6, 69, 0
9, 32130, Note_on_c, 6, 68, 80
9, 32159, Note_on_c, 6, 68, 0
9, 32160, Note_on_c, 6, 71, 80
9, 32219, Note_on_c, 6, 71, 0
9, 32220, Note_on_c, 6, 69, 90
9, 32279, Note_on_c, 6, 69, 0
9, 32280, Note_on_c, 6, 71, 80
9, 32339, Note_on_c, 6, 71, 0
9, 32340, Note_on_c, 6, 68, 80
9, 32399, Note_on_c, 6, 68, 0
9, 32400, Note_on_c, 6, 69, 90
9, 32459, Note_on_c, 6, 69, 0
9, 32460, Note_on_c, 6, 64, 80
9, 32519, Note_on_c, 6, 64, 0
9, 32520, Note_on_c, 6, 64, 80
9, 32579, Note_on_c, 6, 64, 0
9, 32580, Note_on_c, 6, 69, 90
9, 32639, Note_on_c, 6, 69, 0
9, 32640, Note_on_c, 6, 67, 80
9, 32699, Note_on_c, 6, 67, 0
9, 32700, Note_on_c, 6, 66, 80
9, 32759, Note_on_c, 6, 66, 0
9, 32760, Note_on_c, 6, 64, 90
9, 32819, Note_on_c, 6, 64, 0
9, 32820, Note_on_c, 6, 69, 80
9, 32879, Note_on_c, 6, 69, 0
9, 32880, Note_on_c, 6, 69, 80
9, 32939, Note_on_c, 6, 69, 0
9, 32940, Note_on_c, 6, 62, 90
9, 33059, Note_on_c, 6, 62, 0
9, 33060, Note_on_c, 6, 61, 80
9, 33119, Note_on_c, 6, 61, 0
9, 33120, Note_on_c, 6, 69, 90
9, 33179, Note_on_c, 6, 69, 0
9, 33180, Note_on_c, 6, 66, 80
9, 33239, Note_on_c, 6, 66, 0
9, 35400, Note_on_c, 6, 64, 80
9, 35459, Note_on_c, 6, 64, 0
9, 35460, Note_on_c, 6, 66, 90
9, 35489, Note_on_c, 6, 66, 0
9, 35520, Note_on_c, 6, 71, 80
9, 35549, Note_on_c, 6, 71, 0
9, 35550, Note_on_c, 6, 69, 80
9, 35579, Note_on_c, 6, 69, 0
9, 35580, Note_on_c, 6, 67, 80
9, 35609, Note_on_c, 6, 67, 0
9, 35610, Note_on_c, 6, 66, 80
9, 35639, Note_on_c, 6, 66, 0
9, 35640, Note_on_c, 6, 64, 90
9, 35669, Note_on_c, 6, 64, 0
9, 35700, Note_on_c, 6, 69, 80
9, 35729, Note_on_c, 6, 69, 0
9, 35730, Note_on_c, 6, 67, 80
9, 35759, Note_on_c, 6, 67, 0
9, 35760, Note_on_c, 6, 66, 80
9, 35789, Note_on_c, 6, 66, 0
9, 35790, Note_on_c, 6, 64, 80
9, 35819, Note_on_c, 6, 64, 0
9, 35820, Note_on_c, 6, 62, 90
9, 35879, Note_on_c, 6, 62, 0
9, 35880, Note_on_c, 6, 67, 80
9, 35939, Note_on_c, 6, 67, 0
9, 35940, Note_on_c, 6, 66, 80
9, 35999, Note_on_c, 6, 66, 0
9, 36000, Note_on_c, 6, 64, 90
9, 36059, Note_on_c, 6, 64, 0
9, 36060, Note_on_c, 6, 69, 80
9, 36239, Note_on_c, 6, 69, 0
9, 36240, Note_on_c, 6, 67, 80
9, 36269, Note_on_c, 6, 67, 0
9, 36270, Note_on_c, 6, 66, 80
9, 36299, Note_on_c, 6, 66, 0
9, 36300, Note_on_c, 6, 67, 80
9, 36419, Note_on_c, 6, 67, 0
9, 36420, Note_on_c, 6, 66, 80
9, 36599, Note_on_c, 6, 66, 0
9, 36600, Note_on_c, 6, 64, 80
9, 36659, Note_on_c, 6, 64, 0
9, 36660, Note_on_c, 6, 62, 80
9, 36719, Note_on_c, 6, 62, 0
9, 36720, Note_on_c, 6, 61, 90
9, 36779, Note_on_c, 6, 61, 0
9, 36780, Note_on_c, 6, 62, 80
9, 36839, Note_on_c, 6, 62, 0
9, 36840, Note_on_c, 6, 67, 80
9, 36899, Note_on_c, 6, 67, 0
9, 36900, Note_on_c, 6, 66, 90
9, 36959, Note_on_c, 6, 66, 0
9, 36960, Note_on_c, 6, 67, 80
9, 36989, Note_on_c, 6, 67, 0
9, 36990, Note_on_c, 6, 69, 80
9, 37019, Note_on_c, 6, 69, 0
9, 37020, Note_on_c, 6, 71, 80
9, 37079, Note_on_c, 6, 71, 0
9, 37080, Note_on_c, 6, 64, 90
9, 37139, Note_on_c, 6, 64, 0
9, 37140, Note_on_c, 6, 66, 80
9, 37169, Note_on_c, 6, 66, 0
9, 37170, Note_on_c, 6, 67, 80
9, 37199, Note_on_c, 6, 67, 0
9, 37200, Note_on_c, 6, 69, 80
9, 37259, Note_on_c, 6, 69, 0
9, 37260, Note_on_c, 6, 62, 90
9, 37319, Note_on_c, 6, 62, 0
9, 37320, Note_on_c, 6, 64, 80
9, 37379, Note_on_c, 6, 64, 0
9, 37380, Note_on_c, 6, 57, 80
9, 37439, Note_on_c, 6, 57, 0
9, 37440, Note_on_c, 6, 69, 90
9, 37559, Note_on_c, 6, 69, 0
9, 37560, Note_on_c, 6, 64, 80
9, 37619, Note_on_c, 6, 64, 0
9, 37620, Note_on_c, 6, 66, 90
9, 37649, Note_on_c, 6, 66, 0
9, 37650, Note_on_c, 6, 67, 90
9, 37679, Note_on_c, 6, 67, 0
9, 37680, Note_on_c, 6, 69, 80
9, 37829, Note_on_c, 6, 69, 0
9, 37830, Note_on_c, 6, 71, 90
9, 37859, Note_on_c, 6, 71, 0
9, 37860, Note_on_c, 6, 73, 80
9, 37919, Note_on_c, 6, 73, 0
9, 37920, Note_on_c, 6, 68, 80
9, 37979, Note_on_c, 6, 68, 0
9, 37980, Note_on_c, 6, 76, 90
9, 38039, Note_on_c, 6, 76, 0
9, 38040, Note_on_c, 6, 78, 80
9, 38099, Note_on_c, 6, 78, 0
9, 38100, Note_on_c, 6, 76, 80
9, 38159, Note_on_c, 6, 76, 0
9, 38190, Note_on_c, 6, 69, 70
9, 38219, Note_on_c, 6, 69, 0
9, 38220, Note_on_c, 6, 69, 70
9, 38249, Note_on_c, 6, 69, 0
9, 38250, Note_on_c, 6, 69, 70
9, 38279, Note_on_c, 6, 69, 0
9, 38280, Note_on_c, 6, 69, 70
9, 38309, Note_on_c, 6, 69, 0
9, 38310, Note_on_c, 6, 69, 70
9, 38339, Note_on_c, 6, 69, 0
9, 38340, Note_on_c, 6, 72, 70
9, 38369, Note_on_c, 6, 72, 0
9, 38370, Note_on_c, 6, 72, 70
9, 38399, Note_on_c, 6, 72, 0
9, 38400, Note_on_c, 6, 72, 70
9, 38429, Note_on_c, 6, 72, 0
9, 38430, Note_on_c, 6, 72, 70
9, 38459, Note_on_c, 6, 72, 0
9, 38460, Note_on_c, 6, 72, 70
9, 38489, Note_on_c, 6, 72, 0
9, 38490, Note_on_c, 6, 72, 70
9, 38519, Note_on_c, 6, 72, 0
9, 38520, Note_on_c, 6, 72, 70
9, 38549, Note_on_c, 6, 72, 0
9, 38550, Note_on_c, 6, 66, 70
9, 38579, Note_on_c, 6, 66, 0
9, 38580, Note_on_c, 6, 66, 70
9, 38609, Note_on_c, 6, 66, 0
9, 38610, Note_on_c, 6, 66, 70
9, 38639, Note_on_c, 6, 66, 0
9, 38640, Note_on_c, 6, 66, 70
9, 38669, Note_on_c, 6, 66, 0
9, 38670, Note_on_c, 6, 66, 70
9, 38699, Note_on_c, 6, 66, 0
9, 38700, Note_on_c, 6, 73, 90
9, 38729, Note_on_c, 6, 73, 0
9, 38730, Note_on_c, 6, 74, 90
9, 38759, Note_on_c, 6, 74, 0
9, 38760, Note_on_c, 6, 76, 80
9, 38789, Note_on_c, 6, 76, 0
9, 38820, Note_on_c, 6, 74, 80
9, 38849, Note_on_c, 6, 74, 0
9, 38880, Note_on_c, 6, 73, 90
9, 38909, Note_on_c, 6, 73, 0
9, 38940, Note_on_c, 6, 73, 80
9, 38969, Note_on_c, 6, 73, 0
9, 38970, Note_on_c, 6, 71, 80
9, 38999, Note_on_c, 6, 71, 0
9, 39000, Note_on_c, 6, 69, 80
9, 39029, Note_on_c, 6, 69, 0
9, 39030, Note_on_c, 6, 67, 80
9, 39059, Note_on_c, 6, 67, 0
9, 39060, Note_on_c, 6, 66, 90
9, 39089, Note_on_c, 6, 66, 0
9, 39120, Note_on_c, 6, 69, 80
9, 39149, Note_on_c, 6, 69, 0
9, 39150, Note_on_c, 6, 67, 80
9, 39179, Note_on_c, 6, 67, 0
9, 39180, Note_on_c, 6, 66, 80
9, 39209, Note_on_c, 6, 66, 0
9, 39210, Note_on_c, 6, 64, 80
9, 39239, Note_on_c, 6, 64, 0
9, 39240, Note_on_c, 6, 63, 90
9, 39269, Note_on_c, 6, 63, 0
9, 39300, Note_on_c, 6, 66, 80
9, 39329, Note_on_c, 6, 66, 0
9, 39330, Note_on_c, 6, 64, 80
9, 39359, Note_on_c, 6, 64, 0
9, 39360, Note_on_c, 6, 63, 80
9, 39389, Note_on_c, 6, 63, 0
9, 39390, Note_on_c, 6, 61, 80
9, 39419, Note_on_c, 6, 61, 0
9, 39420, Note_on_c, 6, 59, 90
9, 39449, Note_on_c, 6, 59, 0
9, 39480, Note_on_c, 6, 79, 80
9, 39509, Note_on_c, 6, 79, 0
9, 39510, Note_on_c, 6, 78, 80
9, 39539, Note_on_c, 6, 78, 0
9, 39540, Note_on_c, 6, 76, 80
9, 39569, Note_on_c, 6, 76, 0
9, 39570, Note_on_c, 6, 75, 80
9, 39599, Note_on_c, 6, 75, 0
9, 39600, Note_on_c, 6, 76, 90
9, 39659, Note_on_c, 6, 76, 0
9, 39660, Note_on_c, 6, 71, 80
9, 39719, Note_on_c, 6, 71, 0
9, 39840, Note_on_c, 6, 67, 80
9, 39869, Note_on_c, 6, 67, 0
9, 39870, Note_on_c, 6, 66, 80
9, 39899, Note_on_c, 6, 66, 0
9, 39900, Note_on_c, 6, 64, 80
9, 39929, Note_on_c, 6, 64, 0
9, 39930, Note_on_c, 6, 62, 80
9, 39959, Note_on_c, 6, 62, 0
9, 39960, Note_on_c, 6, 61, 90
9, 39989, Note_on_c, 6, 61, 0
9, 40020, Note_on_c, 6, 64, 80
9, 40049, Note_on_c, 6, 64, 0
9, 40050, Note_on_c, 6, 62, 80
9, 40079, Note_on_c, 6, 62, 0
9, 40080, Note_on_c, 6, 61, 80
9, 40109, Note_on_c, 6, 61, 0
9, 40110, Note_on_c, 6, 59, 80
9, 40139, Note_on_c, 6, 59, 0
9, 40140, Note_on_c, 6, 57, 90
9, 40169, Note_on_c, 6, 57, 0
9, 40200, Note_on_c, 6, 78, 80
9, 40229, Note_on_c, 6, 78, 0
9, 40230, Note_on_c, 6, 76, 80
9, 40259, Note_on_c, 6, 76, 0
9, 40260, Note_on_c, 6, 74, 80
9, 40289, Note_on_c, 6, 74, 0
9, 40290, Note_on_c, 6, 73, 80
9, 40319, Note_on_c, 6, 73, 0
9, 40320, Note_on_c, 6, 74, 90
9, 40379, Note_on_c, 6, 74, 0
9, 40380, Note_on_c, 6, 69, 80
9, 40439, Note_on_c, 6, 69, 0
9, 40440, Note_on_c, 6, 69, 80
9, 40499, Note_on_c, 6, 69, 0
9, 40500, Note_on_c, 6, 67, 90
9, 40559, Note_on_c, 6, 67, 0
9, 40560, Note_on_c, 6, 62, 80
9, 40619, Note_on_c, 6, 62, 0
9, 40620, Note_on_c, 6, 67, 80
9, 40679, Note_on_c, 6, 67, 0
9, 40680, Note_on_c, 6, 69, 90
9, 40739, Note_on_c, 6, 69, 0
9, 40740, Note_on_c, 6, 67, 80
9, 40799, Note_on_c, 6, 67, 0
9, 40800, Note_on_c, 6, 69, 80
9, 40859, Note_on_c, 6, 69, 0
9, 40860, Note_on_c, 6, 71, 90
9, 40919, Note_on_c, 6, 71, 0
9, 40920, Note_on_c, 6, 66, 80
9, 40979, Note_on_c, 6, 66, 0
9, 40980, Note_on_c, 6, 67, 80
9, 41039, Note_on_c, 6, 67, 0
9, 41040, Note_on_c, 6, 74, 90
9, 41099, Note_on_c, 6, 74, 0
9, 41100, Note_on_c, 6, 69, 80
9, 41159, Note_on_c, 6, 69, 0
9, 41160, Note_on_c, 6, 74, 80
9, 41279, Note_on_c, 6, 74, 0
9, 41280, Note_on_c, 6, 73, 80
9, 41339, Note_on_c, 6, 73, 0
9, 41340, Note_on_c, 6, 71, 80
9, 41399, Note_on_c, 6, 71, 0
9, 41400, Note_on_c, 6, 69, 90
9, 41459, Note_on_c, 6, 69, 0
9, 41460, Note_on_c, 6, 73, 80
9, 41519, Note_on_c, 6, 73, 0
9, 41520, Note_on_c, 6, 76, 80
9, 41639, Note_on_c, 6, 76, 0
9, 41640, Note_on_c, 6, 74, 80
9, 41699, Note_on_c, 6, 74, 0
9, 41700, Note_on_c, 6, 73, 80
9, 41759, Note_on_c, 6, 73, 0
9, 41760, Note_on_c, 6, 71, 90
9, 41819, Note_on_c, 6, 71, 0
9, 41820, Note_on_c, 6, 74, 80
9, 41879, Note_on_c, 6, 74, 0
9, 41880, Note_on_c, 6, 78, 80
9, 41939, Note_on_c, 6, 78, 0
9, 41940, Note_on_c, 6, 67, 90
9, 41999, Note_on_c, 6, 67, 0
9, 42000, Note_on_c, 6, 70, 80
9, 42059, Note_on_c, 6, 70, 0
9, 42060, Note_on_c, 6, 74, 80
9, 42179, Note_on_c, 6, 74, 0
9, 42180, Note_on_c, 6, 76, 80
9, 42209, Note_on_c, 6, 76, 0
9, 42210, Note_on_c, 6, 74, 80
9, 42239, Note_on_c, 6, 74, 0
9, 42240, Note_on_c, 6, 73, 80
9, 42269, Note_on_c, 6, 73, 0
9, 42270, Note_on_c, 6, 74, 80
9, 42299, Note_on_c, 6, 74, 0
9, 42300, Note_on_c, 6, 69, 90
9, 42359, Note_on_c, 6, 69, 0
9, 42360, Note_on_c, 6, 74, 80
9, 42419, Note_on_c, 6, 74, 0
9, 42420, Note_on_c, 6, 73, 80
9, 42479, Note_on_c, 6, 73, 0
9, 42510, Note_on_c, 6, 77, 70
9, 42539, Note_on_c, 6, 77, 0
9, 42540, Note_on_c, 6, 77, 70
9, 42569, Note_on_c, 6, 77, 0
9, 42570, Note_on_c, 6, 77, 70
9, 42599, Note_on_c, 6, 77, 0
9, 42600, Note_on_c, 6, 77, 70
9, 42629, Note_on_c, 6, 77, 0
9, 42630, Note_on_c, 6, 77, 70
9, 42659, Note_on_c, 6, 77, 0
9, 42660, Note_on_c, 6, 74, 70
9, 42689, Note_on_c, 6, 74, 0
9, 42690, Note_on_c, 6, 74, 70
9, 42719, Note_on_c, 6, 74, 0
9, 42720, Note_on_c, 6, 74, 70
9, 42749, Note_on_c, 6, 74, 0
9, 42750, Note_on_c, 6, 74, 70
9, 42779, Note_on_c, 6, 74, 0
9, 42780, Note_on_c, 6, 74, 70
9, 42809, Note_on_c, 6, 74, 0
9, 42810, Note_on_c, 6, 74, 70
9, 42839, Note_on_c, 6, 74, 0
9, 42840, Note_on_c, 6, 71, 70
9, 42869, Note_on_c, 6, 71, 0
9, 42870, Note_on_c, 6, 71, 70
9, 42899, Note_on_c, 6, 71, 0
9, 42900, Note_on_c, 6, 71, 70
9, 42929, Note_on_c, 6, 71, 0
9, 42930, Note_on_c, 6, 71, 70
9, 42959, Note_on_c, 6, 71, 0
9, 42960, Note_on_c, 6, 71, 80
9, 42989, Note_on_c, 6, 71, 0
9, 42990, Note_on_c, 6, 71, 80
9, 43019, Note_on_c, 6, 71, 0
9, 43020, Note_on_c, 6, 66, 90
9, 43079, Note_on_c, 6, 66, 0
9, 43080, Note_on_c, 6, 69, 80
9, 43139, Note_on_c, 6, 69, 0
9, 43140, Note_on_c, 6, 73, 80
9, 43199, Note_on_c, 6, 73, 0
9, 43200, Note_on_c, 6, 74, 90
9, 43319, Note_on_c, 6, 74, 0
9, 48840, Note_on_c, 6, 74, 60
9, 49079, Note_on_c, 6, 74, 0
9, 49080, Note_on_c, 6, 73, 60
9, 49439, Note_on_c, 6, 73, 0
9, 49440, Note_on_c, 6, 64, 60
9, 49559, Note_on_c, 6, 64, 0
9, 49560, Note_on_c, 6, 66, 60
9, 50520, Note_on_c, 6, 66, 0
9, 50520, Note_on_c, 6, 71, 60
9, 51120, Note_on_c, 6, 71, 0
9, 51120, Note_on_c, 6, 68, 60
9, 51239, Note_on_c, 6, 68, 0
9, 51240, Note_on_c, 6, 69, 60
9, 51359, Note_on_c, 6, 69, 0
9, 51360, Note_on_c, 6, 71, 60
9, 51479, Note_on_c, 6, 71, 0
9, 51600, Note_on_c, 6, 73, 60
9, 51719, Note_on_c, 6, 73, 0
9, 51720, Note_on_c, 6, 73, 60
9, 53400, Note_on_c, 6, 73, 0
9, 53400, Note_on_c, 6, 66, 60
9, 53520, Note_on_c, 6, 66, 0
9, 53520, Note_on_c, 6, 68, 60
9, 53640, Note_on_c, 6, 68, 0
9, 53640, Note_on_c, 6, 69, 60
9, 53760, Note_on_c, 6, 69, 0
9, 53820, Note_on_c, 6, 68, 60
9, 53880, Note_on_c, 6, 68, 0
9, 53880, Note_on_c, 6, 69, 60
9, 54120, Note_on_c, 6, 69, 0
9, 54360, Note_on_c, 6, 69, 64
9, 54420, Note_on_c, 6, 69, 0
9, 54420, Note_on_c, 6, 68, 64
9, 54480, Note_on_c, 6, 68, 0
9, 54480, Note_on_c, 6, 69, 64
9, 54540, Note_on_c, 6, 69, 0
9, 54540, Note_on_c, 6, 69, 64
9, 54600, Note_on_c, 6, 69, 0
9, 54600, Note_on_c, 6, 69, 64
9, 54660, Note_on_c, 6, 69, 0
9, 54720, Note_on_c, 6, 69, 64
9, 54780, Note_on_c, 6, 69, 0
9, 54840, Note_on_c, 6, 69, 64
9, 54900, Note_on_c, 6, 69, 0
9, 54900, Note_on_c, 6, 68, 64
9, 54960, Note_on_c, 6, 68, 0
9, 54960, Note_on_c, 6, 69, 64
9, 54990, Note_on_c, 6, 69, 0
9, 54990, Note_on_c, 6, 68, 64
9, 55020, Note_on_c, 6, 68, 0
9, 55020, Note_on_c, 6, 66, 64
9, 55050, Note_on_c, 6, 66, 0
9, 55050, Note_on_c, 6, 64, 64
9, 55080, Note_on_c, 6, 64, 0
9, 55080, Note_on_c, 6, 62, 64
9, 55110, Note_on_c, 6, 62, 0
9, 55110, Note_on_c, 6, 61, 64
9, 55140, Note_on_c, 6, 61, 0
9, 55140, Note_on_c, 6, 59, 64
9, 55260, Note_on_c, 6, 59, 0
9, 55260, Note_on_c, 6, 64, 64
9, 55290, Note_on_c, 6, 64, 0
9, 55290, Note_on_c, 6, 62, 64
9, 55320, Note_on_c, 6, 62, 0
9, 55320, Note_on_c, 6, 61, 64
9, 55380, Note_on_c, 6, 61, 0
9, 55380, Note_on_c, 6, 64, 64
9, 55440, Note_on_c, 6, 64, 0
9, 55440, Note_on_c, 6, 69, 64
9, 55500, Note_on_c, 6, 69, 0
9, 55500, Note_on_c, 6, 71, 64
9, 55560, Note_on_c, 6, 71, 0
9, 55560, Note_on_c, 6, 69, 64
9, 55680, Note_on_c, 6, 69, 0
9, 55680, Note_on_c, 6, 68, 64
9, 55800, Note_on_c, 6, 68, 0
9, 55800, Note_on_c, 6, 69, 52
9, 55860, Note_on_c, 6, 69, 0
9, 55860, Note_on_c, 6, 68, 52
9, 55920, Note_on_c, 6, 68, 0
9, 55920, Note_on_c, 6, 69, 52
9, 55980, Note_on_c, 6, 69, 0
9, 55980, Note_on_c, 6, 69, 52
9, 56040, Note_on_c, 6, 69, 0
9, 56040, Note_on_c, 6, 69, 52
9, 56100, Note_on_c, 6, 69, 0
9, 56160, Note_on_c, 6, 69, 52
9, 56220, Note_on_c, 6, 69, 0
9, 56280, Note_on_c, 6, 69, 52
9, 56340, Note_on_c, 6, 69, 0
9, 56340, Note_on_c, 6, 68, 52
9, 56400, Note_on_c, 6, 68, 0
9, 56400, Note_on_c, 6, 69, 52
9, 56430, Note_on_c, 6, 69, 0
9, 56430, Note_on_c, 6, 68, 52
9, 56460, Note_on_c, 6, 68, 0
9, 56460, Note_on_c, 6, 66, 52
9, 56490, Note_on_c, 6, 66, 0
9, 56490, Note_on_c, 6, 64, 52
9, 56520, Note_on_c, 6, 64, 0
9, 56520, Note_on_c, 6, 62, 52
9, 56550, Note_on_c, 6, 62, 0
9, 56550, Note_on_c, 6, 61, 52
9, 56580, Note_on_c, 6, 61, 0
9, 56580, Note_on_c, 6, 59, 52
9, 56700, Note_on_c, 6, 59, 0
9, 56700, Note_on_c, 6, 64, 52
9, 56730, Note_on_c, 6, 64, 0
9, 56730, Note_on_c, 6, 62, 52
9, 56760, Note_on_c, 6, 62, 0
9, 56760, Note_on_c, 6, 61, 52
9, 56820, Note_on_c, 6, 61, 0
9, 56820, Note_on_c, 6, 64, 52
9, 56880, Note_on_c, 6, 64, 0
9, 56880, Note_on_c, 6, 69, 52
9, 56940, Note_on_c, 6, 69, 0
9, 56940, Note_on_c, 6, 71, 52
9, 57000, Note_on_c, 6, 71, 0
9, 57000, Note_on_c, 6, 69, 52
9, 57030, Note_on_c, 6, 69, 0
9, 57030, Note_on_c, 6, 68, 52
9, 57060, Note_on_c, 6, 68, 0
9, 57060, Note_on_c, 6, 69, 52
9, 57120, Note_on_c, 6, 69, 0
9, 57120, Note_on_c, 6, 71, 52
9, 57180, Note_on_c, 6, 71, 0
9, 57180, Note_on_c, 6, 68, 52
9, 57240, Note_on_c, 6, 68, 0
9, 57240, Note_on_c, 6, 66, 64
9, 57300, Note_on_c, 6, 66, 0
9, 57300, Note_on_c, 6, 75, 64
9, 57360, Note_on_c, 6, 75, 0
9, 57360, Note_on_c, 6, 76, 64
9, 57420, Note_on_c, 6, 76, 0
9, 57420, Note_on_c, 6, 71, 64
9, 57540, Note_on_c, 6, 71, 0
9, 57540, Note_on_c, 6, 67, 64
9, 57600, Note_on_c, 6, 67, 0
9, 57600, Note_on_c, 6, 66, 64
9, 57780, Note_on_c, 6, 66, 0
9, 57780, Note_on_c, 6, 64, 64
9, 57810, Note_on_c, 6, 64, 0
9, 57810, Note_on_c, 6, 62, 64
9, 57840, Note_on_c, 6, 62, 0
9, 57840, Note_on_c, 6, 60, 64
9, 57870, Note_on_c, 6, 60, 0
9, 57870, Note_on_c, 6, 59, 64
9, 57900, Note_on_c, 6, 59, 0
9, 57900, Note_on_c, 6, 57, 64
9, 57960, Note_on_c, 6, 57, 0
9, 57960, Note_on_c, 6, 59, 64
9, 57990, Note_on_c, 6, 59, 0
9, 57990, Note_on_c, 6, 61, 64
9, 58020, Note_on_c, 6, 61, 0
9, 58020, Note_on_c, 6, 63, 64
9, 58050, Note_on_c, 6, 63, 0
9, 58050, Note_on_c, 6, 64, 64
9, 58080, Note_on_c, 6, 64, 0
9, 58080, Note_on_c, 6, 66, 64
9, 58110, Note_on_c, 6, 66, 0
9, 58110, Note_on_c, 6, 68, 64
9, 58140, Note_on_c, 6, 68, 0
9, 58140, Note_on_c, 6, 69, 64
9, 58170, Note_on_c, 6, 69, 0
9, 58170, Note_on_c, 6, 66, 64
9, 58200, Note_on_c, 6, 66, 0
9, 58200, Note_on_c, 6, 68, 64
9, 58260, Note_on_c, 6, 68, 0
9, 58260, Note_on_c, 6, 56, 64
9, 58320, Note_on_c, 6, 56, 0
9, 58320, Note_on_c, 6, 61, 64
9, 58380, Note_on_c, 6, 61, 0
9, 58380, Note_on_c, 6, 59, 64
9, 58440, Note_on_c, 6, 59, 0
9, 58440, Note_on_c, 6, 59, 64
9, 58680, Note_on_c, 6, 59, 0
9, 58680, Note_on_c, 6, 69, 64
9, 58740, Note_on_c, 6, 69, 0
9, 58740, Note_on_c, 6, 68, 64
9, 58800, Note_on_c, 6, 68, 0
9, 58800, Note_on_c, 6, 69, 64
9, 58860, Note_on_c, 6, 69, 0
9, 58920, Note_on_c, 6, 69, 64
9, 58980, Note_on_c, 6, 69, 0
9, 59040, Note_on_c, 6, 69, 64
9, 59100, Note_on_c, 6, 69, 0
9, 59160, Note_on_c, 6, 69, 64
9, 59220, Note_on_c, 6, 69, 0
9, 59220, Note_on_c, 6, 68, 64
9, 59280, Note_on_c, 6, 68, 0
9, 59280, Note_on_c, 6, 69, 64
9, 59340, Note_on_c, 6, 69, 0
9, 59520, Note_on_c, 6, 64, 64
9, 59580, Note_on_c, 6, 64, 0
9, 59580, Note_on_c, 6, 66, 64
9, 59610, Note_on_c, 6, 66, 0
9, 59610, Note_on_c, 6, 68, 64
9, 59640, Note_on_c, 6, 68, 0
9, 59640, Note_on_c, 6, 69, 64
9, 59670, Note_on_c, 6, 69, 0
9, 59670, Note_on_c, 6, 68, 64
9, 59700, Note_on_c, 6, 68, 0
9, 59700, Note_on_c, 6, 66, 64
9, 59730, Note_on_c, 6, 66, 0
9, 59730, Note_on_c, 6, 64, 64
9, 59760, Note_on_c, 6, 64, 0
9, 59760, Note_on_c, 6, 69, 64
9, 59820, Note_on_c, 6, 69, 0
9, 59820, Note_on_c, 6, 66, 64
9, 59880, Note_on_c, 6, 66, 0
9, 59880, Note_on_c, 6, 64, 64
9, 60120, Note_on_c, 6, 64, 0
9, 60120, Note_on_c, 6, 64, 52
9, 60180, Note_on_c, 6, 64, 0
9, 60180, Note_on_c, 6, 68, 52
9, 60240, Note_on_c, 6, 68, 0
9, 60240, Note_on_c, 6, 69, 52
9, 60300, Note_on_c, 6, 69, 0
9, 60300, Note_on_c, 6, 69, 52
9, 60360, Note_on_c, 6, 69, 0
9, 60360, Note_on_c, 6, 69, 52
9, 60420, Note_on_c, 6, 69, 0
9, 60420, Note_on_c, 6, 69, 52
9, 60480, Note_on_c, 6, 69, 0
9, 60480, Note_on_c, 6, 69, 52
9, 60540, Note_on_c, 6, 69, 0
9, 60540, Note_on_c, 6, 73, 52
9, 60600, Note_on_c, 6, 73, 0
9, 60600, Note_on_c, 6, 71, 52
9, 60720, Note_on_c, 6, 71, 0
9, 60720, Note_on_c, 6, 69, 52
9, 60750, Note_on_c, 6, 69, 0
9, 60750, Note_on_c, 6, 68, 52
9, 60780, Note_on_c, 6, 68, 0
9, 60780, Note_on_c, 6, 66, 52
9, 60810, Note_on_c, 6, 66, 0
9, 60810, Note_on_c, 6, 64, 52
9, 60840, Note_on_c, 6, 64, 0
9, 60840, Note_on_c, 6, 62, 52
9, 60870, Note_on_c, 6, 62, 0
9, 60870, Note_on_c, 6, 61, 52
9, 60900, Note_on_c, 6, 61, 0
9, 60900, Note_on_c, 6, 59, 52
9, 61020, Note_on_c, 6, 59, 0
9, 61020, Note_on_c, 6, 64, 52
9, 61050, Note_on_c, 6, 64, 0
9, 61050, Note_on_c, 6, 62, 52
9, 61080, Note_on_c, 6, 62, 0
9, 61080, Note_on_c, 6, 61, 52
9, 61140, Note_on_c, 6, 61, 0
9, 61140, Note_on_c, 6, 64, 52
9, 61200, Note_on_c, 6, 64, 0
9, 61200, Note_on_c, 6, 69, 52
9, 61260, Note_on_c, 6, 69, 0
9, 61260, Note_on_c, 6, 71, 52
9, 61320, Note_on_c, 6, 71, 0
9, 61320, Note_on_c, 6, 68, 52
9, 61380, Note_on_c, 6, 68, 0
9, 61380, Note_on_c, 6, 69, 52
9, 61440, Note_on_c, 6, 69, 0
9, 61440, Note_on_c, 6, 71, 52
9, 61500, Note_on_c, 6, 71, 0
9, 61500, Note_on_c, 6, 68, 52
9, 61560, Note_on_c, 6, 68, 0
9, 61560, Note_on_c, 6, 66, 52
9, 61620, Note_on_c, 6, 66, 0
9, 61620, Note_on_c, 6, 75, 52
9, 61680, Note_on_c, 6, 75, 0
9, 61680, Note_on_c, 6, 76, 52
9, 61740, Note_on_c, 6, 76, 0
9, 61740, Note_on_c, 6, 71, 52
9, 61800, Note_on_c, 6, 71, 0
9, 61800, Note_on_c, 6, 71, 52
9, 61860, Note_on_c, 6, 71, 0
9, 61860, Note_on_c, 6, 67, 52
9, 61920, Note_on_c, 6, 67, 0
9, 61920, Note_on_c, 6, 66, 52
9, 61980, Note_on_c, 6, 66, 0
9, 61980, Note_on_c, 6, 66, 52
9, 62040, Note_on_c, 6, 66, 0
9, 62040, Note_on_c, 6, 66, 52
9, 62100, Note_on_c, 6, 66, 0
9, 62100, Note_on_c, 6, 64, 52
9, 62130, Note_on_c, 6, 64, 0
9, 62130, Note_on_c, 6, 62, 52
9, 62160, Note_on_c, 6, 62, 0
9, 62160, Note_on_c, 6, 60, 52
9, 62220, Note_on_c, 6, 60, 0
9, 62220, Note_on_c, 6, 60, 52
9, 62280, Note_on_c, 6, 60, 0
9, 62280, Note_on_c, 6, 59, 52
9, 62310, Note_on_c, 6, 59, 0
9, 62310, Note_on_c, 6, 61, 52
9, 62340, Note_on_c, 6, 61, 0
9, 62340, Note_on_c, 6, 63, 52
9, 62370, Note_on_c, 6, 63, 0
9, 62370, Note_on_c, 6, 64, 52
9, 62400, Note_on_c, 6, 64, 0
9, 62400, Note_on_c, 6, 66, 52
9, 62430, Note_on_c, 6, 66, 0
9, 62430, Note_on_c, 6, 68, 52
9, 62460, Note_on_c, 6, 68, 0
9, 62460, Note_on_c, 6, 69, 52
9, 62490, Note_on_c, 6, 69, 0
9, 62490, Note_on_c, 6, 66, 52
9, 62520, Note_on_c, 6, 66, 0
9, 62520, Note_on_c, 6, 68, 52
9, 62580, Note_on_c, 6, 68, 0
9, 62580, Note_on_c, 6, 56, 52
9, 62640, Note_on_c, 6, 56, 0
9, 62640, Note_on_c, 6, 61, 52
9, 62700, Note_on_c, 6, 61, 0
9, 62700, Note_on_c, 6, 59, 52
9, 62760, Note_on_c, 6, 59, 0
9, 62760, Note_on_c, 6, 59, 52
9, 63000, Note_on_c, 6, 59, 0
9, 63000, Note_on_c, 6, 68, 72
9, 63059, Note_on_c, 6, 68, 0
9, 63060, Note_on_c, 6, 66, 72
9, 63119, Note_on_c, 6, 66, 0
9, 63120, Note_on_c, 6, 64, 72
9, 63179, Note_on_c, 6, 64, 0
9, 63180, Note_on_c, 6, 67, 72
9, 63239, Note_on_c, 6, 67, 0
9, 63240, Note_on_c, 6, 66, 72
9, 63299, Note_on_c, 6, 66, 0
9, 63300, Note_on_c, 6, 61, 72
9, 63359, Note_on_c, 6, 61, 0
9, 63360, Note_on_c, 6, 62, 72
9, 63419, Note_on_c, 6, 62, 0
9, 63420, Note_on_c, 6, 66, 72
9, 63539, Note_on_c, 6, 66, 0
9, 63540, Note_on_c, 6, 68, 72
9, 63569, Note_on_c, 6, 68, 0
9, 63570, Note_on_c, 6, 69, 72
9, 63599, Note_on_c, 6, 69, 0
9, 63600, Note_on_c, 6, 71, 72
9, 63659, Note_on_c, 6, 71, 0
9, 63660, Note_on_c, 6, 69, 72
9, 63719, Note_on_c, 6, 69, 0
9, 63720, Note_on_c, 6, 68, 72
9, 63779, Note_on_c, 6, 68, 0
9, 63780, Note_on_c, 6, 65, 72
9, 63839, Note_on_c, 6, 65, 0
9, 63840, Note_on_c, 6, 66, 72
9, 63899, Note_on_c, 6, 66, 0
9, 63900, Note_on_c, 6, 73, 72
9, 63959, Note_on_c, 6, 73, 0
9, 63960, Note_on_c, 6, 74, 72
9, 64019, Note_on_c, 6, 74, 0
9, 64080, Note_on_c, 6, 74, 72
9, 64139, Note_on_c, 6, 74, 0
9, 64200, Note_on_c, 6, 73, 72
9, 64379, Note_on_c, 6, 73, 0
9, 64380, Note_on_c, 6, 71, 72
9, 64409, Note_on_c, 6, 71, 0
9, 64410, Note_on_c, 6, 69, 72
9, 64439, Note_on_c, 6, 69, 0
9, 64440, Note_on_c, 6, 71, 72
9, 64499, Note_on_c, 6, 71, 0
9, 64500, Note_on_c, 6, 73, 72
9, 64559, Note_on_c, 6, 73, 0
9, 64560, Note_on_c, 6, 71, 72
9, 64619, Note_on_c, 6, 71, 0
9, 64620, Note_on_c, 6, 66, 72
9, 64679, Note_on_c, 6, 66, 0
9, 64680, Note_on_c, 6, 65, 72
9, 64739, Note_on_c, 6, 65, 0
9, 64740, Note_on_c, 6, 69, 72
9, 64799, Note_on_c, 6, 69, 0
9, 64800, Note_on_c, 6, 68, 72
9, 64859, Note_on_c, 6, 68, 0
9, 64860, Note_on_c, 6, 66, 72
9, 64919, Note_on_c, 6, 66, 0
9, 64920, Note_on_c, 6, 65, 72
9, 64979, Note_on_c, 6, 65, 0
9, 64980, Note_on_c, 6, 56, 72
9, 65039, Note_on_c, 6, 56, 0
9, 65040, Note_on_c, 6, 61, 72
9, 65099, Note_on_c, 6, 61, 0
9, 65100, Note_on_c, 6, 59, 72
9, 65159, Note_on_c, 6, 59, 0
9, 65160, Note_on_c, 6, 57, 72
9, 65219, Note_on_c, 6, 57, 0
9, 65220, Note_on_c, 6, 73, 72
9, 65279, Note_on_c, 6, 73, 0
9, 65280, Note_on_c, 6, 71, 72
9, 65309, Note_on_c, 6, 71, 0
9, 65310, Note_on_c, 6, 69, 72
9, 65339, Note_on_c, 6, 69, 0
9, 65340, Note_on_c, 6, 68, 72
9, 65369, Note_on_c, 6, 68, 0
9, 65370, Note_on_c, 6, 66, 72
9, 65399, Note_on_c, 6, 66, 0
9, 65400, Note_on_c, 6, 68, 72
9, 65429, Note_on_c, 6, 68, 0
9, 65430, Note_on_c, 6, 65, 72
9, 65459, Note_on_c, 6, 65, 0
9, 65460, Note_on_c, 6, 66, 72
9, 65579, Note_on_c, 6, 66, 0
9, 65580, Note_on_c, 6, 65, 72
9, 65639, Note_on_c, 6, 65, 0
9, 65640, Note_on_c, 6, 66, 72
9, 65699, Note_on_c, 6, 66, 0
9, 65700, Note_on_c, 6, 61, 72
9, 65819, Note_on_c, 6, 61, 0
9, 65820, Note_on_c, 6, 63, 72
9, 65849, Note_on_c, 6, 63, 0
9, 65850, Note_on_c, 6, 65, 72
9, 65879, Note_on_c, 6, 65, 0
9, 65880, Note_on_c, 6, 66, 72
9, 66029, Note_on_c, 6, 66, 0
9, 66030, Note_on_c, 6, 68, 72
9, 66059, Note_on_c, 6, 68, 0
9, 66060, Note_on_c, 6, 69, 72
9, 66089, Note_on_c, 6, 69, 0
9, 66090, Note_on_c, 6, 71, 72
9, 66119, Note_on_c, 6, 71, 0
9, 66120, Note_on_c, 6, 73, 72
9, 66179, Note_on_c, 6, 73, 0
9, 66180, Note_on_c, 6, 64, 72
9, 66299, Note_on_c, 6, 64, 0
9, 66300, Note_on_c, 6, 73, 72
9, 66359, Note_on_c, 6, 73, 0
9, 66360, Note_on_c, 6, 74, 72
9, 66509, Note_on_c, 6, 74, 0
9, 66510, Note_on_c, 6, 73, 72
9, 66539, Note_on_c, 6, 73, 0
9, 66540, Note_on_c, 6, 71, 72
9, 66569, Note_on_c, 6, 71, 0
9, 66570, Note_on_c, 6, 69, 72
9, 66599, Note_on_c, 6, 69, 0
9, 66600, Note_on_c, 6, 71, 72
9, 66659, Note_on_c, 6, 71, 0
9, 66660, Note_on_c, 6, 68, 72
9, 66719, Note_on_c, 6, 68, 0
9, 66720, Note_on_c, 6, 69, 72
9, 66899, Note_on_c, 6, 69, 0
9, 66900, Note_on_c, 6, 73, 72
9, 66929, Note_on_c, 6, 73, 0
9, 66930, Note_on_c, 6, 71, 72
9, 66959, Note_on_c, 6, 71, 0
9, 66960, Note_on_c, 6, 73, 72
9, 67019, Note_on_c, 6, 73, 0
9, 67020, Note_on_c, 6, 69, 72
9, 67079, Note_on_c, 6, 69, 0
9, 67080, Note_on_c, 6, 66, 72
9, 67139, Note_on_c, 6, 66, 0
9, 67140, Note_on_c, 6, 71, 72
9, 67199, Note_on_c, 6, 71, 0
9, 67200, Note_on_c, 6, 64, 72
9, 67259, Note_on_c, 6, 64, 0
9, 67260, Note_on_c, 6, 68, 72
9, 67319, Note_on_c, 6, 68, 0
9, 67320, Note_on_c, 6, 69, 72
9, 67379, Note_on_c, 6, 69, 0
9, 67380, Note_on_c, 6, 57, 72
9, 67499, Note_on_c, 6, 57, 0
9, 67500, Note_on_c, 6, 59, 72
9, 67529, Note_on_c, 6, 59, 0
9, 67530, Note_on_c, 6, 61, 72
9, 67559, Note_on_c, 6, 61, 0
9, 67560, Note_on_c, 6, 62, 72
9, 67589, Note_on_c, 6, 62, 0
9, 67590, Note_on_c, 6, 64, 72
9, 67619, Note_on_c, 6, 64, 0
9, 67620, Note_on_c, 6, 66, 72
9, 67649, Note_on_c, 6, 66, 0
9, 67650, Note_on_c, 6, 68, 72
9, 67679, Note_on_c, 6, 68, 0
9, 67680, Note_on_c, 6, 69, 72
9, 67709, Note_on_c, 6, 69, 0
9, 67710, Note_on_c, 6, 66, 72
9, 67739, Note_on_c, 6, 66, 0
9, 67740, Note_on_c, 6, 68, 72
9, 67769, Note_on_c, 6, 68, 0
9, 67800, Note_on_c, 6, 68, 72
9, 67829, Note_on_c, 6, 68, 0
9, 67830, Note_on_c, 6, 71, 72
9, 67859, Note_on_c, 6, 71, 0
9, 67860, Note_on_c, 6, 74, 72
9, 67979, Note_on_c, 6, 74, 0
9, 67980, Note_on_c, 6, 68, 72
9, 68039, Note_on_c, 6, 68, 0
9, 68040, Note_on_c, 6, 69, 72
9, 68099, Note_on_c, 6, 69, 0
9, 68100, Note_on_c, 6, 66, 72
9, 68159, Note_on_c, 6, 66, 0
9, 68160, Note_on_c, 6, 68, 72
9, 68219, Note_on_c, 6, 68, 0
9, 68220, Note_on_c, 6, 71, 72
9, 68339, Note_on_c, 6, 71, 0
9, 68340, Note_on_c, 6, 69, 72
9, 68459, Note_on_c, 6, 69, 0
9, 68460, Note_on_c, 6, 68, 72
9, 68519, Note_on_c, 6, 68, 0
9, 68520, Note_on_c, 6, 64, 72
9, 68699, Note_on_c, 6, 64, 0
9, 68700, Note_on_c, 6, 66, 72
9, 68759, Note_on_c, 6, 66, 0
9, 68760, Note_on_c, 6, 68, 72
9, 68819, Note_on_c, 6, 68, 0
9, 68880, Note_on_c, 6, 67, 48
9, 68939, Note_on_c, 6, 67, 0
9, 69000, Note_on_c, 6, 58, 48
9, 69059, Note_on_c, 6, 58, 0
9, 69120, Note_on_c, 6, 64, 48
9, 69179, Note_on_c, 6, 64, 0
9, 69240, Note_on_c, 6, 62, 48
9, 69299, Note_on_c, 6, 62, 0
9, 69300, Note_on_c, 6, 66, 48
9, 69419, Note_on_c, 6, 66, 0
9, 69420, Note_on_c, 6, 68, 48
9, 69449, Note_on_c, 6, 68, 0
9, 69450, Note_on_c, 6, 69, 48
9, 69479, Note_on_c, 6, 69, 0
9, 69480, Note_on_c, 6, 71, 48
9, 69659, Note_on_c, 6, 71, 0
9, 69660, Note_on_c, 6, 71, 48
9, 69719, Note_on_c, 6, 71, 0
9, 69720, Note_on_c, 6, 71, 48
9, 69779, Note_on_c, 6, 71, 0
9, 69780, Note_on_c, 6, 71, 48
9, 69839, Note_on_c, 6, 71, 0
9, 69840, Note_on_c, 6, 71, 48
9, 69899, Note_on_c, 6, 71, 0
9, 69900, Note_on_c, 6, 71, 48
9, 69959, Note_on_c, 6, 71, 0
9, 69960, Note_on_c, 6, 71, 48
9, 70199, Note_on_c, 6, 71, 0
9, 70200, Note_on_c, 6, 68, 48
9, 70259, Note_on_c, 6, 68, 0
9, 70260, Note_on_c, 6, 65, 48
9, 70319, Note_on_c, 6, 65, 0
9, 70320, Note_on_c, 6, 66, 48
9, 70379, Note_on_c, 6, 66, 0
9, 70380, Note_on_c, 6, 73, 48
9, 70439, Note_on_c, 6, 73, 0
9, 70440, Note_on_c, 6, 74, 48
9, 70499, Note_on_c, 6, 74, 0
9, 70560, Note_on_c, 6, 74, 48
9, 70619, Note_on_c, 6, 74, 0
9, 70680, Note_on_c, 6, 73, 48
9, 70739, Note_on_c, 6, 73, 0
9, 70800, Note_on_c, 6, 66, 48
9, 70859, Note_on_c, 6, 66, 0
9, 70920, Note_on_c, 6, 73, 48
9, 70979, Note_on_c, 6, 73, 0
9, 71040, Note_on_c, 6, 73, 48
9, 71099, Note_on_c, 6, 73, 0
9, 71100, Note_on_c, 6, 71, 48
9, 71129, Note_on_c, 6, 71, 0
9, 71130, Note_on_c, 6, 70, 48
9, 71159, Note_on_c, 6, 70, 0
9, 71160, Note_on_c, 6, 71, 48
9, 71219, Note_on_c, 6, 71, 0
9, 71220, Note_on_c, 6, 71, 48
9, 71279, Note_on_c, 6, 71, 0
9, 71280, Note_on_c, 6, 70, 48
9, 71339, Note_on_c, 6, 70, 0
9, 71340, Note_on_c, 6, 66, 48
9, 71399, Note_on_c, 6, 66, 0
9, 71400, Note_on_c, 6, 71, 48
9, 71459, Note_on_c, 6, 71, 0
9, 71520, Note_on_c, 6, 74, 48
9, 71579, Note_on_c, 6, 74, 0
9, 71640, Note_on_c, 6, 74, 48
9, 71699, Note_on_c, 6, 74, 0
9, 71760, Note_on_c, 6, 66, 48
9, 71819, Note_on_c, 6, 66, 0
9, 71820, Note_on_c, 6, 74, 48
9, 71879, Note_on_c, 6, 74, 0
9, 71880, Note_on_c, 6, 73, 48
9, 71939, Note_on_c, 6, 73, 0
9, 71940, Note_on_c, 6, 73, 48
9, 71999, Note_on_c, 6, 73, 0
9, 72000, Note_on_c, 6, 66, 48
9, 72059, Note_on_c, 6, 66, 0
9, 72060, Note_on_c, 6, 68, 48
9, 72119, Note_on_c, 6, 68, 0
9, 72120, Note_on_c, 6, 68, 48
9, 72179, Note_on_c, 6, 68, 0
9, 72180, Note_on_c, 6, 56, 48
9, 72239, Note_on_c, 6, 56, 0
9, 72240, Note_on_c, 6, 61, 48
9, 72299, Note_on_c, 6, 61, 0
9, 72300, Note_on_c, 6, 59, 48
9, 72359, Note_on_c, 6, 59, 0
9, 72360, Note_on_c, 6, 57, 48
9, 72419, Note_on_c, 6, 57, 0
9, 72420, Note_on_c, 6, 73, 48
9, 72479, Note_on_c, 6, 73, 0
9, 72480, Note_on_c, 6, 71, 48
9, 72509, Note_on_c, 6, 71, 0
9, 72510, Note_on_c, 6, 69, 48
9, 72539, Note_on_c, 6, 69, 0
9, 72540, Note_on_c, 6, 68, 48
9, 72569, Note_on_c, 6, 68, 0
9, 72570, Note_on_c, 6, 66, 48
9, 72599, Note_on_c, 6, 66, 0
9, 72600, Note_on_c, 6, 68, 48
9, 72629, Note_on_c, 6, 68, 0
9, 72630, Note_on_c, 6, 65, 48
9, 72659, Note_on_c, 6, 65, 0
9, 72660, Note_on_c, 6, 66, 48
9, 72779, Note_on_c, 6, 66, 0
9, 72780, Note_on_c, 6, 65, 48
9, 72839, Note_on_c, 6, 65, 0
9, 72840, Note_on_c, 6, 61, 48
9, 73019, Note_on_c, 6, 61, 0
9, 73020, Note_on_c, 6, 73, 72
9, 73079, Note_on_c, 6, 73, 0
9, 73080, Note_on_c, 6, 73, 72
9, 73139, Note_on_c, 6, 73, 0
9, 73140, Note_on_c, 6, 73, 72
9, 73199, Note_on_c, 6, 73, 0
9, 73200, Note_on_c, 6, 73, 72
9, 73259, Note_on_c, 6, 73, 0
9, 73260, Note_on_c, 6, 73, 72
9, 73319, Note_on_c, 6, 73, 0
9, 73320, Note_on_c, 6, 73, 72
9, 73379, Note_on_c, 6, 73, 0
9, 73380, Note_on_c, 6, 69, 72
9, 73439, Note_on_c, 6, 69, 0
9, 73440, Note_on_c, 6, 68, 72
9, 73619, Note_on_c, 6, 68, 0
9, 73620, Note_on_c, 6, 66, 72
9, 73649, Note_on_c, 6, 66, 0
9, 73650, Note_on_c, 6, 66, 72
9, 73679, Note_on_c, 6, 66, 0
9, 73680, Note_on_c, 6, 65, 72
9, 73739, Note_on_c, 6, 65, 0
9, 73740, Note_on_c, 6, 61, 72
9, 73799, Note_on_c, 6, 61, 0
9, 73800, Note_on_c, 6, 73, 72
9, 73859, Note_on_c, 6, 73, 0
9, 73860, Note_on_c, 6, 73, 72
9, 73919, Note_on_c, 6, 73, 0
9, 73920, Note_on_c, 6, 73, 72
9, 73979, Note_on_c, 6, 73, 0
9, 73980, Note_on_c, 6, 71, 72
9, 74039, Note_on_c, 6, 71, 0
9, 74040, Note_on_c, 6, 69, 72
9, 74099, Note_on_c, 6, 69, 0
9, 74100, Note_on_c, 6, 74, 72
9, 74159, Note_on_c, 6, 74, 0
9, 74160, Note_on_c, 6, 73, 72
9, 74219, Note_on_c, 6, 73, 0
9, 74220, Note_on_c, 6, 68, 72
9, 74279, Note_on_c, 6, 68, 0
9, 74280, Note_on_c, 6, 69, 72
9, 74339, Note_on_c, 6, 69, 0
9, 74340, Note_on_c, 6, 61, 72
9, 74399, Note_on_c, 6, 61, 0
9, 74400, Note_on_c, 6, 66, 72
9, 74459, Note_on_c, 6, 66, 0
9, 74460, Note_on_c, 6, 65, 72
9, 74519, Note_on_c, 6, 65, 0
9, 74520, Note_on_c, 6, 66, 72
9, 74579, Note_on_c, 6, 66, 0
9, 74640, Note_on_c, 6, 69, 52
9, 74699, Note_on_c, 6, 69, 0
9, 74760, Note_on_c, 6, 69, 52
9, 74819, Note_on_c, 6, 69, 0
9, 74880, Note_on_c, 6, 73, 52
9, 74939, Note_on_c, 6, 73, 0
9, 75000, Note_on_c, 6, 74, 52
9, 75059, Note_on_c, 6, 74, 0
9, 75060, Note_on_c, 6, 66, 52
9, 75119, Note_on_c, 6, 66, 0
9, 75120, Note_on_c, 6, 71, 52
9, 75179, Note_on_c, 6, 71, 0
9, 75180, Note_on_c, 6, 70, 52
9, 75239, Note_on_c, 6, 70, 0
9, 75240, Note_on_c, 6, 71, 52
9, 75299, Note_on_c, 6, 71, 0
9, 75360, Note_on_c, 6, 76, 52
9, 75419, Note_on_c, 6, 76, 0
9, 75480, Note_on_c, 6, 76, 52
9, 75539, Note_on_c, 6, 76, 0
9, 75600, Note_on_c, 6, 70, 52
9, 75659, Note_on_c, 6, 70, 0
9, 75720, Note_on_c, 6, 71, 52
9, 75779, Note_on_c, 6, 71, 0
9, 75780, Note_on_c, 6, 74, 52
9, 75869, Note_on_c, 6, 74, 0
9, 75870, Note_on_c, 6, 73, 52
9, 75899, Note_on_c, 6, 73, 0
9, 75900, Note_on_c, 6, 71, 52
9, 75929, Note_on_c, 6, 71, 0
9, 75930, Note_on_c, 6, 69, 52
9, 75959, Note_on_c, 6, 69, 0
9, 75960, Note_on_c, 6, 71, 52
9, 76019, Note_on_c, 6, 71, 0
9, 76020, Note_on_c, 6, 68, 52
9, 76079, Note_on_c, 6, 68, 0
9, 76080, Note_on_c, 6, 69, 52
9, 76139, Note_on_c, 6, 69, 0
9, 76200, Note_on_c, 6, 73, 52
9, 76259, Note_on_c, 6, 73, 0
9, 76320, Note_on_c, 6, 73, 52
9, 76379, Note_on_c, 6, 73, 0
9, 76440, Note_on_c, 6, 71, 52
9, 76499, Note_on_c, 6, 71, 0
9, 76560, Note_on_c, 6, 71, 52
9, 76619, Note_on_c, 6, 71, 0
9, 76680, Note_on_c, 6, 76, 52
9, 76739, Note_on_c, 6, 76, 0
9, 76800, Note_on_c, 6, 75, 52
9, 76859, Note_on_c, 6, 75, 0
9, 76920, Note_on_c, 6, 74, 52
9, 76979, Note_on_c, 6, 74, 0
9, 77040, Note_on_c, 6, 72, 52
9, 77099, Note_on_c, 6, 72, 0
9, 77160, Note_on_c, 6, 71, 52
9, 77219, Note_on_c, 6, 71, 0
9, 77280, Note_on_c, 6, 66, 52
9, 77339, Note_on_c, 6, 66, 0
9, 77400, Note_on_c, 6, 64, 52
9, 77459, Note_on_c, 6, 64, 0
9, 77520, Note_on_c, 6, 64, 52
9, 77579, Note_on_c, 6, 64, 0
9, 77640, Note_on_c, 6, 62, 52
9, 77699, Note_on_c, 6, 62, 0
9, 77760, Note_on_c, 6, 57, 52
9, 77819, Note_on_c, 6, 57, 0
9, 77880, Note_on_c, 6, 64, 52
9, 77939, Note_on_c, 6, 64, 0
9, 78000, Note_on_c, 6, 59, 52
9, 78059, Note_on_c, 6, 59, 0
9, 78120, Note_on_c, 6, 57, 52
9, 78179, Note_on_c, 6, 57, 0
9, 78180, Note_on_c, 6, 66, 52
9, 78239, Note_on_c, 6, 66, 0
9, 78240, Note_on_c, 6, 68, 52
9, 78299, Note_on_c, 6, 68, 0
9, 78300, Note_on_c, 6, 71, 52
9, 78419, Note_on_c, 6, 71, 0
9, 78420, Note_on_c, 6, 69, 52
9, 78539, Note_on_c, 6, 69, 0
9, 78540, Note_on_c, 6, 68, 52
9, 78599, Note_on_c, 6, 68, 0
9, 78600, Note_on_c, 6, 64, 52
9, 78839, Note_on_c, 6, 64, 0
9, 78840, Note_on_c, 6, 69, 64
9, 78899, Note_on_c, 6, 69, 0
9, 78900, Note_on_c, 6, 68, 68
9, 78959, Note_on_c, 6, 68, 0
9, 78960, Note_on_c, 6, 69, 72
9, 79019, Note_on_c, 6, 69, 0
9, 79020, Note_on_c, 6, 69, 72
9, 79079, Note_on_c, 6, 69, 0
9, 79080, Note_on_c, 6, 69, 72
9, 79139, Note_on_c, 6, 69, 0
9, 79200, Note_on_c, 6, 69, 72
9, 79259, Note_on_c, 6, 69, 0
9, 79320, Note_on_c, 6, 69, 72
9, 79379, Note_on_c, 6, 69, 0
9, 79380, Note_on_c, 6, 68, 72
9, 79439, Note_on_c, 6, 68, 0
9, 79440, Note_on_c, 6, 69, 72
9, 79469, Note_on_c, 6, 69, 0
9, 79470, Note_on_c, 6, 68, 72
9, 79499, Note_on_c, 6, 68, 0
9, 79500, Note_on_c, 6, 66, 72
9, 79529, Note_on_c, 6, 66, 0
9, 79530, Note_on_c, 6, 64, 72
9, 79559, Note_on_c, 6, 64, 0
9, 79560, Note_on_c, 6, 62, 72
9, 79589, Note_on_c, 6, 62, 0
9, 79590, Note_on_c, 6, 61, 72
9, 79619, Note_on_c, 6, 61, 0
9, 79620, Note_on_c, 6, 59, 72
9, 79739, Note_on_c, 6, 59, 0
9, 79740, Note_on_c, 6, 64, 72
9, 79769, Note_on_c, 6, 64, 0
9, 79770, Note_on_c, 6, 62, 72
9, 79799, Note_on_c, 6, 62, 0
9, 79800, Note_on_c, 6, 61, 72
9, 79859, Note_on_c, 6, 61, 0
9, 79860, Note_on_c, 6, 64, 72
9, 79919, Note_on_c, 6, 64, 0
9, 79920, Note_on_c, 6, 69, 72
9, 79979, Note_on_c, 6, 69, 0
9, 79980, Note_on_c, 6, 71, 72
9, 80039, Note_on_c, 6, 71, 0
9, 80040, Note_on_c, 6, 69, 72
9, 80159, Note_on_c, 6, 69, 0
9, 80160, Note_on_c, 6, 68, 72
9, 80279, Note_on_c, 6, 68, 0
9, 80280, Note_on_c, 6, 69, 48
9, 80339, Note_on_c, 6, 69, 0
9, 80340, Note_on_c, 6, 68, 48
9, 80399, Note_on_c, 6, 68, 0
9, 80400, Note_on_c, 6, 69, 48
9, 80459, Note_on_c, 6, 69, 0
9, 80460, Note_on_c, 6, 69, 48
9, 80519, Note_on_c, 6, 69, 0
9, 80520, Note_on_c, 6, 69, 48
9, 80579, Note_on_c, 6, 69, 0
9, 80640, Note_on_c, 6, 69, 48
9, 80699, Note_on_c, 6, 69, 0
9, 80760, Note_on_c, 6, 69, 48
9, 80819, Note_on_c, 6, 69, 0
9, 80820, Note_on_c, 6, 68, 48
9, 80879, Note_on_c, 6, 68, 0
9, 80880, Note_on_c, 6, 69, 48
9, 80909, Note_on_c, 6, 69, 0
9, 80910, Note_on_c, 6, 68, 48
9, 80939, Note_on_c, 6, 68, 0
9, 80940, Note_on_c, 6, 66, 48
9, 80969, Note_on_c, 6, 66, 0
9, 80970, Note_on_c, 6, 64, 48
9, 80999, Note_on_c, 6, 64, 0
9, 81000, Note_on_c, 6, 62, 48
9, 81029, Note_on_c, 6, 62, 0
9, 81030, Note_on_c, 6, 61, 48
9, 81059, Note_on_c, 6, 61, 0
9, 81060, Note_on_c, 6, 59, 48
9, 81179, Note_on_c, 6, 59, 0
9, 81180, Note_on_c, 6, 64, 48
9, 81209, Note_on_c, 6, 64, 0
9, 81210, Note_on_c, 6, 62, 48
9, 81239, Note_on_c, 6, 62, 0
9, 81240, Note_on_c, 6, 61, 48
9, 81299, Note_on_c, 6, 61, 0
9, 81300, Note_on_c, 6, 64, 48
9, 81359, Note_on_c, 6, 64, 0
9, 81360, Note_on_c, 6, 69, 48
9, 81419, Note_on_c, 6, 69, 0
9, 81420, Note_on_c, 6, 71, 48
9, 81479, Note_on_c, 6, 71, 0
9, 81480, Note_on_c, 6, 68, 48
9, 81539, Note_on_c, 6, 68, 0
9, 81540, Note_on_c, 6, 69, 48
9, 81599, Note_on_c, 6, 69, 0
9, 81600, Note_on_c, 6, 71, 48
9, 81659, Note_on_c, 6, 71, 0
9, 81660, Note_on_c, 6, 68, 48
9, 81719, Note_on_c, 6, 68, 0
9, 81720, Note_on_c, 6, 66, 72
9, 81779, Note_on_c, 6, 66, 0
9, 81780, Note_on_c, 6, 75, 72
9, 81839, Note_on_c, 6, 75, 0
9, 81840, Note_on_c, 6, 76, 72
9, 81899, Note_on_c, 6, 76, 0
9, 81900, Note_on_c, 6, 71, 72
9, 82019, Note_on_c, 6, 71, 0
9, 82020, Note_on_c, 6, 67, 72
9, 82079, Note_on_c, 6, 67, 0
9, 82080, Note_on_c, 6, 66, 72
9, 82259, Note_on_c, 6, 66, 0
9, 82260, Note_on_c, 6, 64, 72
9, 82289, Note_on_c, 6, 64, 0
9, 82290, Note_on_c, 6, 62, 72
9, 82319, Note_on_c, 6, 62, 0
9, 82320, Note_on_c, 6, 60, 72
9, 82349, Note_on_c, 6, 60, 0
9, 82350, Note_on_c, 6, 59, 72
9, 82379, Note_on_c, 6, 59, 0
9, 82380, Note_on_c, 6, 57, 72
9, 82439, Note_on_c, 6, 57, 0
9, 82440, Note_on_c, 6, 59, 72
9, 82469, Note_on_c, 6, 59, 0
9, 82470, Note_on_c, 6, 61, 72
9, 82499, Note_on_c, 6, 61, 0
9, 82500, Note_on_c, 6, 63, 72
9, 82529, Note_on_c, 6, 63, 0
9, 82530, Note_on_c, 6, 64, 72
9, 82559, Note_on_c, 6, 64, 0
9, 82560, Note_on_c, 6, 66, 72
9, 82589, Note_on_c, 6, 66, 0
9, 82590, Note_on_c, 6, 68, 72
9, 82619, Note_on_c, 6, 68, 0
9, 82620, Note_on_c, 6, 69, 72
9, 82649, Note_on_c, 6, 69, 0
9, 82650, Note_on_c, 6, 66, 72
9, 82679, Note_on_c, 6, 66, 0
9, 82680, Note_on_c, 6, 68, 72
9, 82739, Note_on_c, 6, 68, 0
9, 82740, Note_on_c, 6, 56, 72
9, 82799, Note_on_c, 6, 56, 0
9, 82800, Note_on_c, 6, 61, 72
9, 82859, Note_on_c, 6, 61, 0
9, 82860, Note_on_c, 6, 59, 72
9, 82919, Note_on_c, 6, 59, 0
9, 82920, Note_on_c, 6, 59, 72
9, 83159, Note_on_c, 6, 59, 0
9, 83160, Note_on_c, 6, 68, 72
9, 83219, Note_on_c, 6, 68, 0
9, 83220, Note_on_c, 6, 66, 72
9, 83279, Note_on_c, 6, 66, 0
9, 83280, Note_on_c, 6, 64, 72
9, 83339, Note_on_c, 6, 64, 0
9, 83340, Note_on_c, 6, 67, 72
9, 83399, Note_on_c, 6, 67, 0
9, 83400, Note_on_c, 6, 66, 72
9, 83459, Note_on_c, 6, 66, 0
9, 83460, Note_on_c, 6, 61, 72
9, 83519, Note_on_c, 6, 61, 0
9, 83520, Note_on_c, 6, 62, 72
9, 83579, Note_on_c, 6, 62, 0
9, 83580, Note_on_c, 6, 66, 72
9, 83699, Note_on_c, 6, 66, 0
9, 83700, Note_on_c, 6, 68, 72
9, 83729, Note_on_c, 6, 68, 0
9, 83730, Note_on_c, 6, 69, 72
9, 83759, Note_on_c, 6, 69, 0
9, 83760, Note_on_c, 6, 71, 72
9, 83819, Note_on_c, 6, 71, 0
9, 83820, Note_on_c, 6, 69, 72
9, 83879, Note_on_c, 6, 69, 0
9, 83880, Note_on_c, 6, 68, 72
9, 83939, Note_on_c, 6, 68, 0
9, 83940, Note_on_c, 6, 65, 72
9, 83999, Note_on_c, 6, 65, 0
9, 84000, Note_on_c, 6, 66, 72
9, 84059, Note_on_c, 6, 66, 0
9, 84060, Note_on_c, 6, 73, 72
9, 84119, Note_on_c, 6, 73, 0
9, 84120, Note_on_c, 6, 74, 72
9, 84179, Note_on_c, 6, 74, 0
9, 84240, Note_on_c, 6, 74, 72
9, 84299, Note_on_c, 6, 74, 0
9, 84360, Note_on_c, 6, 73, 72
9, 84539, Note_on_c, 6, 73, 0
9, 84540, Note_on_c, 6, 71, 72
9, 84569, Note_on_c, 6, 71, 0
9, 84570, Note_on_c, 6, 69, 72
9, 84599, Note_on_c, 6, 69, 0
9, 84600, Note_on_c, 6, 71, 72
9, 84659, Note_on_c, 6, 71, 0
9, 84660, Note_on_c, 6, 73, 72
9, 84719, Note_on_c, 6, 73, 0
9, 84720, Note_on_c, 6, 71, 72
9, 84779, Note_on_c, 6, 71, 0
9, 84780, Note_on_c, 6, 66, 72
9, 84839, Note_on_c, 6, 66, 0
9, 84840, Note_on_c, 6, 65, 72
9, 84899, Note_on_c, 6, 65, 0
9, 84900, Note_on_c, 6, 69, 72
9, 84959, Note_on_c, 6, 69, 0
9, 84960, Note_on_c, 6, 68, 72
9, 85019, Note_on_c, 6, 68, 0
9, 85020, Note_on_c, 6, 66, 72
9, 85079, Note_on_c, 6, 66, 0
9, 85080, Note_on_c, 6, 65, 72
9, 85139, Note_on_c, 6, 65, 0
9, 85140, Note_on_c, 6, 56, 72
9, 85199, Note_on_c, 6, 56, 0
9, 85200, Note_on_c, 6, 61, 72
9, 85259, Note_on_c, 6, 61, 0
9, 85260, Note_on_c, 6, 59, 72
9, 85319, Note_on_c, 6, 59, 0
9, 85320, Note_on_c, 6, 57, 72
9, 85379, Note_on_c, 6, 57, 0
9, 85380, Note_on_c, 6, 73, 72
9, 85439, Note_on_c, 6, 73, 0
9, 85440, Note_on_c, 6, 71, 72
9, 85469, Note_on_c, 6, 71, 0
9, 85470, Note_on_c, 6, 69, 72
9, 85499, Note_on_c, 6, 69, 0
9, 85500, Note_on_c, 6, 68, 72
9, 85529, Note_on_c, 6, 68, 0
9, 85530, Note_on_c, 6, 66, 72
9, 85559, Note_on_c, 6, 66, 0
9, 85560, Note_on_c, 6, 68, 72
9, 85589, Note_on_c, 6, 68, 0
9, 85590, Note_on_c, 6, 65, 72
9, 85619, Note_on_c, 6, 65, 0
9, 85620, Note_on_c, 6, 66, 72
9, 85739, Note_on_c, 6, 66, 0
9, 85740, Note_on_c, 6, 65, 72
9, 85799, Note_on_c, 6, 65, 0
9, 85800, Note_on_c, 6, 66, 72
9, 85859, Note_on_c, 6, 66, 0
9, 85860, Note_on_c, 6, 61, 72
9, 85979, Note_on_c, 6, 61, 0
9, 85980, Note_on_c, 6, 63, 72
9, 86009, Note_on_c, 6, 63, 0
9, 86010, Note_on_c, 6, 65, 72
9, 86039, Note_on_c, 6, 65, 0
9, 86040, Note_on_c, 6, 66, 72
9, 86189, Note_on_c, 6, 66, 0
9, 86190, Note_on_c, 6, 68, 72
9, 86219, Note_on_c, 6, 68, 0
9, 86220, Note_on_c, 6, 69, 72
9, 86249, Note_on_c, 6, 69, 0
9, 86250, Note_on_c, 6, 71, 72
9, 86279, Note_on_c, 6, 71, 0
9, 86280, Note_on_c, 6, 73, 72
9, 86339, Note_on_c, 6, 73, 0
9, 86340, Note_on_c, 6, 64, 72
9, 86459, Note_on_c, 6, 64, 0
9, 86460, Note_on_c, 6, 73, 72
9, 86519, Note_on_c, 6, 73, 0
9, 86520, Note_on_c, 6, 74, 72
9, 86669, Note_on_c, 6, 74, 0
9, 86670, Note_on_c, 6, 73, 72
9, 86699, Note_on_c, 6, 73, 0
9, 86700, Note_on_c, 6, 71, 72
9, 86729, Note_on_c, 6, 71, 0
9, 86730, Note_on_c, 6, 69, 72
9, 86759, Note_on_c, 6, 69, 0
9, 86760, Note_on_c, 6, 71, 72
9, 86819, Note_on_c, 6, 71, 0
9, 86820, Note_on_c, 6, 68, 72
9, 86879, Note_on_c, 6, 68, 0
9, 86880, Note_on_c, 6, 69, 72
9, 87059, Note_on_c, 6, 69, 0
9, 87060, Note_on_c, 6, 73, 72
9, 87089, Note_on_c, 6, 73, 0
9, 87090, Note_on_c, 6, 71, 72
9, 87119, Note_on_c, 6, 71, 0
9, 87120, Note_on_c, 6, 73, 72
9, 87179, Note_on_c, 6, 73, 0
9, 87180, Note_on_c, 6, 69, 72
9, 87239, Note_on_c, 6, 69, 0
9, 87240, Note_on_c, 6, 66, 72
9, 87299, Note_on_c, 6, 66, 0
9, 87300, Note_on_c, 6, 71, 72
9, 87359, Note_on_c, 6, 71, 0
9, 87360, Note_on_c, 6, 64, 72
9, 87419, Note_on_c, 6, 64, 0
9, 87420, Note_on_c, 6, 68, 72
9, 87479, Note_on_c, 6, 68, 0
9, 87480, Note_on_c, 6, 69, 72
9, 87539, Note_on_c, 6, 69, 0
9, 87540, Note_on_c, 6, 57, 72
9, 87659, Note_on_c, 6, 57, 0
9, 87660, Note_on_c, 6, 59, 72
9, 87689, Note_on_c, 6, 59, 0
9, 87690, Note_on_c, 6, 61, 72
9, 87719, Note_on_c, 6, 61, 0
9, 87720, Note_on_c, 6, 62, 72
9, 87749, Note_on_c, 6, 62, 0
9, 87750, Note_on_c, 6, 64, 72
9, 87779, Note_on_c, 6, 64, 0
9, 87780, Note_on_c, 6, 66, 72
9, 87809, Note_on_c, 6, 66, 0
9, 87810, Note_on_c, 6, 67, 72
9, 87839, Note_on_c, 6, 67, 0
9, 87840, Note_on_c, 6, 69, 72
9, 87869, Note_on_c, 6, 69, 0
9, 87870, Note_on_c, 6, 66, 72
9, 87899, Note_on_c, 6, 66, 0
9, 87900, Note_on_c, 6, 68, 72
9, 87929, Note_on_c, 6, 68, 0
9, 87960, Note_on_c, 6, 68, 72
9, 87989, Note_on_c, 6, 68, 0
9, 87990, Note_on_c, 6, 71, 72
9, 88019, Note_on_c, 6, 71, 0
9, 88020, Note_on_c, 6, 74, 72
9, 88139, Note_on_c, 6, 74, 0
9, 88140, Note_on_c, 6, 68, 72
9, 88199, Note_on_c, 6, 68, 0
9, 88200, Note_on_c, 6, 69, 72
9, 88259, Note_on_c, 6, 69, 0
9, 88260, Note_on_c, 6, 66, 72
9, 88319, Note_on_c, 6, 66, 0
9, 88320, Note_on_c, 6, 68, 72
9, 88379, Note_on_c, 6, 68, 0
9, 88380, Note_on_c, 6, 71, 72
9, 88499, Note_on_c, 6, 71, 0
9, 88500, Note_on_c, 6, 69, 72
9, 88619, Note_on_c, 6, 69, 0
9, 88620, Note_on_c, 6, 68, 72
9, 88679, Note_on_c, 6, 68, 0
9, 88680, Note_on_c, 6, 64, 72
9, 88919, Note_on_c, 6, 64, 0
9, 97080, Note_on_c, 6, 62, 80
9, 97200, Note_on_c, 6, 62, 0
9, 97200, Note_on_c, 6, 64, 80
9, 97260, Note_on_c, 6, 64, 0
9, 97260, Note_on_c, 6, 66, 80
9, 97320, Note_on_c, 6, 66, 0
9, 97320, Note_on_c, 6, 67, 80
9, 97440, Note_on_c, 6, 67, 0
9, 97440, Note_on_c, 6, 67, 80
9, 97500, Note_on_c, 6, 67, 0
9, 97500, Note_on_c, 6, 66, 80
9, 97560, Note_on_c, 6, 66, 0
9, 97560, Note_on_c, 6, 67, 80
9, 97680, Note_on_c, 6, 67, 0
9, 97680, Note_on_c, 6, 67, 80
9, 97800, Note_on_c, 6, 67, 0
9, 97800, Note_on_c, 6, 66, 80
9, 97920, Note_on_c, 6, 66, 0
9, 97920, Note_on_c, 6, 67, 80
9, 98028, Note_on_c, 6, 67, 0
9, 98040, Note_on_c, 6, 64, 80
9, 98100, Note_on_c, 6, 64, 0
9, 98100, Note_on_c, 6, 66, 80
9, 98160, Note_on_c, 6, 66, 0
9, 98160, Note_on_c, 6, 67, 80
9, 98220, Note_on_c, 6, 67, 0
9, 98220, Note_on_c, 6, 71, 80
9, 98340, Note_on_c, 6, 71, 0
9, 98340, Note_on_c, 6, 69, 80
9, 98370, Note_on_c, 6, 69, 0
9, 98370, Note_on_c, 6, 67, 80
9, 98400, Note_on_c, 6, 67, 0
9, 98400, Note_on_c, 6, 66, 80
9, 98520, Note_on_c, 6, 66, 0
9, 98520, Note_on_c, 6, 67, 80
9, 98760, Note_on_c, 6, 67, 0
9, 98760, Note_on_c, 6, 66, 80
9, 98880, Note_on_c, 6, 66, 0
9, 98880, Note_on_c, 6, 62, 80
9, 98988, Note_on_c, 6, 62, 0
9, 99000, Note_on_c, 6, 62, 80
9, 99120, Note_on_c, 6, 62, 0
9, 99120, Note_on_c, 6, 64, 80
9, 99180, Note_on_c, 6, 64, 0
9, 99180, Note_on_c, 6, 66, 80
9, 99240, Note_on_c, 6, 66, 0
9, 99240, Note_on_c, 6, 67, 80
9, 99360, Note_on_c, 6, 67, 0
9, 99360, Note_on_c, 6, 67, 80
9, 99420, Note_on_c, 6, 67, 0
9, 99420, Note_on_c, 6, 66, 80
9, 99480, Note_on_c, 6, 66, 0
9, 99480, Note_on_c, 6, 67, 80
9, 99600, Note_on_c, 6, 67, 0
9, 99600, Note_on_c, 6, 67, 80
9, 99720, Note_on_c, 6, 67, 0
9, 99720, Note_on_c, 6, 66, 80
9, 99840, Note_on_c, 6, 66, 0
9, 99840, Note_on_c, 6, 67, 80
9, 99948, Note_on_c, 6, 67, 0
9, 99960, Note_on_c, 6, 64, 80
9, 100020, Note_on_c, 6, 64, 0
9, 100020, Note_on_c, 6, 66, 80
9, 100080, Note_on_c, 6, 66, 0
9, 100080, Note_on_c, 6, 67, 80
9, 100140, Note_on_c, 6, 67, 0
9, 100140, Note_on_c, 6, 71, 80
9, 100260, Note_on_c, 6, 71, 0
9, 100260, Note_on_c, 6, 69, 80
9, 100290, Note_on_c, 6, 69, 0
9, 100290, Note_on_c, 6, 67, 80
9, 100320, Note_on_c, 6, 67, 0
9, 100320, Note_on_c, 6, 66, 80
9, 100440, Note_on_c, 6, 66, 0
9, 100440, Note_on_c, 6, 67, 80
9, 100680, Note_on_c, 6, 67, 0
9, 100680, Note_on_c, 6, 66, 80
9, 100800, Note_on_c, 6, 66, 0
9, 100800, Note_on_c, 6, 62, 80
9, 100908, Note_on_c, 6, 62, 0
9, 100920, Note_on_c, 6, 67, 80
9, 101040, Note_on_c, 6, 67, 0
9, 101040, Note_on_c, 6, 67, 80
9, 101220, Note_on_c, 6, 67, 0
9, 101220, Note_on_c, 6, 66, 80
9, 101280, Note_on_c, 6, 66, 0
9, 101280, Note_on_c, 6, 66, 80
9, 101340, Note_on_c, 6, 66, 0
9, 101340, Note_on_c, 6, 64, 80
9, 101400, Note_on_c, 6, 64, 0
9, 101400, Note_on_c, 6, 64, 80
9, 101460, Note_on_c, 6, 64, 0
9, 101460, Note_on_c, 6, 63, 80
9, 101520, Note_on_c, 6, 63, 0
9, 101520, Note_on_c, 6, 64, 80
9, 101640, Note_on_c, 6, 64, 0
9, 101640, Note_on_c, 6, 62, 80
9, 101760, Note_on_c, 6, 62, 0
9, 101760, Note_on_c, 6, 62, 80
9, 101868, Note_on_c, 6, 62, 0
9, 101880, Note_on_c, 6, 62, 80
9, 102000, Note_on_c, 6, 62, 0
9, 102000, Note_on_c, 6, 62, 80
9, 102060, Note_on_c, 6, 62, 0
9, 102060, Note_on_c, 6, 60, 80
9, 102120, Note_on_c, 6, 60, 0
9, 102120, Note_on_c, 6, 62, 80
9, 102240, Note_on_c, 6, 62, 0
9, 102240, Note_on_c, 6, 62, 80
9, 102300, Note_on_c, 6, 62, 0
9, 102300, Note_on_c, 6, 60, 80
9, 102360, Note_on_c, 6, 60, 0
9, 102360, Note_on_c, 6, 59, 80
9, 102480, Note_on_c, 6, 59, 0
9, 102480, Note_on_c, 6, 59, 80
9, 102600, Note_on_c, 6, 59, 0
9, 102600, Note_on_c, 6, 64, 80
9, 102720, Note_on_c, 6, 64, 0
9, 102720, Note_on_c, 6, 63, 80
9, 102828, Note_on_c, 6, 63, 0
9, 102840, Note_on_c, 6, 59, 80
9, 102960, Note_on_c, 6, 59, 0
9, 102960, Note_on_c, 6, 64, 80
9, 103080, Note_on_c, 6, 64, 0
9, 103080, Note_on_c, 6, 64, 80
9, 103200, Note_on_c, 6, 64, 0
9, 103200, Note_on_c, 6, 62, 80
9, 103260, Note_on_c, 6, 62, 0
9, 103260, Note_on_c, 6, 64, 80
9, 103290, Note_on_c, 6, 64, 0
9, 103290, Note_on_c, 6, 66, 80
9, 103320, Note_on_c, 6, 66, 0
9, 103320, Note_on_c, 6, 67, 80
9, 103440, Note_on_c, 6, 67, 0
9, 103440, Note_on_c, 6, 67, 80
9, 103560, Note_on_c, 6, 67, 0
9, 103560, Note_on_c, 6, 66, 80
9, 103680, Note_on_c, 6, 66, 0
9, 103680, Note_on_c, 6, 62, 80
9, 103800, Note_on_c, 6, 62, 0
9, 164220, Note_on_c, 6, 78, 100
9, 164267, Note_on_c, 6, 78, 0
9, 164280, Note_on_c, 6, 76, 100
9, 164327, Note_on_c, 6, 76, 0
9, 164340, Note_on_c, 6, 74, 100
9, 164387, Note_on_c, 6, 74, 0
9, 164400, Note_on_c, 6, 74, 100
9, 164447, Note_on_c, 6, 74, 0
9, 164460, Note_on_c, 6, 73, 100
9, 164507, Note_on_c, 6, 73, 0
9, 165180, Note_on_c, 6, 78, 100
9, 165227, Note_on_c, 6, 78, 0
9, 165240, Note_on_c, 6, 76, 100
9, 165287, Note_on_c, 6, 76, 0
9, 165300, Note_on_c, 6, 74, 100
9, 165347, Note_on_c, 6, 74, 0
9, 165360, Note_on_c, 6, 74, 100
9, 165407, Note_on_c, 6, 74, 0
9, 165420, Note_on_c, 6, 73, 100
9, 165467, Note_on_c, 6, 73, 0
9, 165780, Note_on_c, 6, 76, 80
9, 165804, Note_on_c, 6, 76, 0
9, 165840, Note_on_c, 6, 74, 80
9, 165864, Note_on_c, 6, 74, 0
9, 165900, Note_on_c, 6, 78, 100
9, 165923, Note_on_c, 6, 78, 0
9, 165930, Note_on_c, 6, 76, 100
9, 165953, Note_on_c, 6, 76, 0
9, 165960, Note_on_c, 6, 78, 100
9, 166007, Note_on_c, 6, 78, 0
9, 166260, Note_on_c, 6, 69, 100
9, 166284, Note_on_c, 6, 69, 0
9, 166320, Note_on_c, 6, 69, 100
9, 166344, Note_on_c, 6, 69, 0
9, 166380, Note_on_c, 6, 76, 100
9, 166403, Note_on_c, 6, 76, 0
9, 166410, Note_on_c, 6, 74, 100
9, 166433, Note_on_c, 6, 74, 0
9, 166440, Note_on_c, 6, 76, 100
9, 166487, Note_on_c, 6, 76, 0
9, 166560, Note_on_c, 6, 71, 80
9, 166992, Note_on_c, 6, 71, 0
9, 167100, Note_on_c, 6, 83, 80
9, 167147, Note_on_c, 6, 83, 0
9, 167160, Note_on_c, 6, 79, 80
9, 167207, Note_on_c, 6, 79, 0
9, 167220, Note_on_c, 6, 74, 80
9, 167267, Note_on_c, 6, 74, 0
9, 167340, Note_on_c, 6, 76, 80
9, 167387, Note_on_c, 6, 76, 0
9, 167400, Note_on_c, 6, 73, 80
9, 167447, Note_on_c, 6, 73, 0
9, 167460, Note_on_c, 6, 76, 80
9, 167507, Note_on_c, 6, 76, 0
9, 167520, Note_on_c, 6, 69, 80
9, 167567, Note_on_c, 6, 69, 0
9, 167580, Note_on_c, 6, 71, 80
9, 167627, Note_on_c, 6, 71, 0
9, 167640, Note_on_c, 6, 71, 80
9, 167687, Note_on_c, 6, 71, 0
9, 167700, Note_on_c, 6, 73, 80
9, 167747, Note_on_c, 6, 73, 0
9, 167760, Note_on_c, 6, 66, 80
9, 167807, Note_on_c, 6, 66, 0
9, 167940, Note_on_c, 6, 79, 80
9, 167987, Note_on_c, 6, 79, 0
9, 168000, Note_on_c, 6, 81, 80
9, 168047, Note_on_c, 6, 81, 0
9, 168180, Note_on_c, 6, 72, 80
9, 168227, Note_on_c, 6, 72, 0
9, 168240, Note_on_c, 6, 71, 80
9, 168287, Note_on_c, 6, 71, 0
9, 168360, Note_on_c, 6, 74, 82
9, 168407, Note_on_c, 6, 74, 0
9, 168480, Note_on_c, 6, 76, 85
9, 168527, Note_on_c, 6, 76, 0
9, 168600, Note_on_c, 6, 76, 87
9, 168647, Note_on_c, 6, 76, 0
9, 168720, Note_on_c, 6, 76, 90
9, 168767, Note_on_c, 6, 76, 0
9, 168840, Note_on_c, 6, 76, 92
9, 168887, Note_on_c, 6, 76, 0
9, 168960, Note_on_c, 6, 69, 95
9, 169007, Note_on_c, 6, 69, 0
9, 169020, Note_on_c, 6, 78, 96
9, 169067, Note_on_c, 6, 78, 0
9, 169080, Note_on_c, 6, 79, 97
9, 169127, Note_on_c, 6, 79, 0
9, 169140, Note_on_c, 6, 76, 98
9, 169187, Note_on_c, 6, 76, 0
9, 169200, Note_on_c, 6, 78, 100
9, 169295, Note_on_c, 6, 78, 0
9, 169350, Note_on_c, 6, 66, 80
9, 169373, Note_on_c, 6, 66, 0
9, 169380, Note_on_c, 6, 67, 80
9, 169403, Note_on_c, 6, 67, 0
9, 169410, Note_on_c, 6, 69, 80
9, 169433, Note_on_c, 6, 69, 0
9, 169440, Note_on_c, 6, 62, 80
9, 169452, Note_on_c, 6, 62, 0
9, 169470, Note_on_c, 6, 71, 80
9, 169493, Note_on_c, 6, 71, 0
9, 169500, Note_on_c, 6, 69, 80
9, 169523, Note_on_c, 6, 69, 0
9, 169530, Note_on_c, 6, 67, 80
9, 169553, Note_on_c, 6, 67, 0
9, 169560, Note_on_c, 6, 62, 80
9, 169572, Note_on_c, 6, 62, 0
9, 169590, Note_on_c, 6, 69, 80
9, 169613, Note_on_c, 6, 69, 0
9, 169620, Note_on_c, 6, 67, 80
9, 169643, Note_on_c, 6, 67, 0
9, 169650, Note_on_c, 6, 66, 81
9, 169673, Note_on_c, 6, 66, 0
9, 169680, Note_on_c, 6, 62, 81
9, 169692, Note_on_c, 6, 62, 0
9, 169710, Note_on_c, 6, 67, 81
9, 169733, Note_on_c, 6, 67, 0
9, 169740, Note_on_c, 6, 66, 81
9, 169763, Note_on_c, 6, 66, 0
9, 169770, Note_on_c, 6, 64, 81
9, 169793, Note_on_c, 6, 64, 0
9, 169800, Note_on_c, 6, 62, 81
9, 169812, Note_on_c, 6, 62, 0
9, 169830, Note_on_c, 6, 66, 81
9, 169853, Note_on_c, 6, 66, 0
9, 169860, Note_on_c, 6, 64, 81
9, 169883, Note_on_c, 6, 64, 0
9, 169890, Note_on_c, 6, 62, 81
9, 169913, Note_on_c, 6, 62, 0
9, 169920, Note_on_c, 6, 64, 81
9, 169943, Note_on_c, 6, 64, 0
9, 169950, Note_on_c, 6, 74, 81
9, 169973, Note_on_c, 6, 74, 0
9, 169980, Note_on_c, 6, 73, 81
9, 170003, Note_on_c, 6, 73, 0
9, 170010, Note_on_c, 6, 71, 81
9, 170033, Note_on_c, 6, 71, 0
9, 170040, Note_on_c, 6, 69, 81
9, 170063, Note_on_c, 6, 69, 0
9, 170070, Note_on_c, 6, 67, 81
9, 170093, Note_on_c, 6, 67, 0
9, 170100, Note_on_c, 6, 66, 81
9, 170123, Note_on_c, 6, 66, 0
9, 170130, Note_on_c, 6, 64, 81
9, 170153, Note_on_c, 6, 64, 0
9, 170160, Note_on_c, 6, 62, 81
9, 170255, Note_on_c, 6, 62, 0
9, 170340, Note_on_c, 6, 66, 81
9, 170387, Note_on_c, 6, 66, 0
9, 170400, Note_on_c, 6, 71, 81
9, 170423, Note_on_c, 6, 71, 0
9, 170430, Note_on_c, 6, 73, 81
9, 170453, Note_on_c, 6, 73, 0
9, 170460, Note_on_c, 6, 74, 81
9, 170483, Note_on_c, 6, 74, 0
9, 170490, Note_on_c, 6, 73, 81
9, 170513, Note_on_c, 6, 73, 0
9, 170520, Note_on_c, 6, 71, 81
9, 170567, Note_on_c, 6, 71, 0
9, 170580, Note_on_c, 6, 66, 81
9, 170604, Note_on_c, 6, 66, 0
9, 170640, Note_on_c, 6, 66, 81
9, 170664, Note_on_c, 6, 66, 0
9, 170700, Note_on_c, 6, 62, 81
9, 170724, Note_on_c, 6, 62, 0
9, 170760, Note_on_c, 6, 62, 81
9, 170784, Note_on_c, 6, 62, 0
9, 170820, Note_on_c, 6, 59, 81
9, 170844, Note_on_c, 6, 59, 0
9, 170880, Note_on_c, 6, 59, 81
9, 170904, Note_on_c, 6, 59, 0
9, 170940, Note_on_c, 6, 74, 81
9, 170987, Note_on_c, 6, 74, 0
9, 171000, Note_on_c, 6, 73, 81
9, 171047, Note_on_c, 6, 73, 0
9, 171060, Note_on_c, 6, 71, 82
9, 171107, Note_on_c, 6, 71, 0
9, 171120, Note_on_c, 6, 71, 82
9, 171167, Note_on_c, 6, 71, 0
9, 171180, Note_on_c, 6, 70, 82
9, 171227, Note_on_c, 6, 70, 0
9, 171270, Note_on_c, 6, 73, 82
9, 171293, Note_on_c, 6, 73, 0
9, 171300, Note_on_c, 6, 71, 82
9, 171323, Note_on_c, 6, 71, 0
9, 171330, Note_on_c, 6, 70, 82
9, 171353, Note_on_c, 6, 70, 0
9, 171360, Note_on_c, 6, 71, 82
9, 171372, Note_on_c, 6, 71, 0
9, 171390, Note_on_c, 6, 71, 82
9, 171413, Note_on_c, 6, 71, 0
9, 171420, Note_on_c, 6, 73, 82
9, 171443, Note_on_c, 6, 73, 0
9, 171450, Note_on_c, 6, 74, 82
9, 171473, Note_on_c, 6, 74, 0
9, 171480, Note_on_c, 6, 71, 82
9, 171492, Note_on_c, 6, 71, 0
9, 171510, Note_on_c, 6, 71, 82
9, 171533, Note_on_c, 6, 71, 0
9, 171540, Note_on_c, 6, 73, 82
9, 171563, Note_on_c, 6, 73, 0
9, 171570, Note_on_c, 6, 74, 82
9, 171593, Note_on_c, 6, 74, 0
9, 171600, Note_on_c, 6, 71, 82
9, 171624, Note_on_c, 6, 71, 0
9, 171660, Note_on_c, 6, 79, 82
9, 171684, Note_on_c, 6, 79, 0
9, 171750, Note_on_c, 6, 79, 82
9, 171773, Note_on_c, 6, 79, 0
9, 171780, Note_on_c, 6, 78, 82
9, 171803, Note_on_c, 6, 78, 0
9, 171810, Note_on_c, 6, 76, 82
9, 171833, Note_on_c, 6, 76, 0
9, 171840, Note_on_c, 6, 74, 82
9, 171852, Note_on_c, 6, 74, 0
9, 171870, Note_on_c, 6, 74, 82
9, 171893, Note_on_c, 6, 74, 0
9, 171900, Note_on_c, 6, 76, 82
9, 171923, Note_on_c, 6, 76, 0
9, 171930, Note_on_c, 6, 78, 82
9, 171953, Note_on_c, 6, 78, 0
9, 171960, Note_on_c, 6, 74, 82
9, 171972, Note_on_c, 6, 74, 0
9, 171990, Note_on_c, 6, 74, 82
9, 172013, Note_on_c, 6, 74, 0
9, 172020, Note_on_c, 6, 76, 82
9, 172043, Note_on_c, 6, 76, 0
9, 172050, Note_on_c, 6, 78, 82
9, 172073, Note_on_c, 6, 78, 0
9, 172080, Note_on_c, 6, 76, 82
9, 172104, Note_on_c, 6, 76, 0
9, 172140, Note_on_c, 6, 83, 82
9, 172164, Note_on_c, 6, 83, 0
9, 172230, Note_on_c, 6, 83, 100
9, 172253, Note_on_c, 6, 83, 0
9, 172260, Note_on_c, 6, 81, 100
9, 172283, Note_on_c, 6, 81, 0
9, 172290, Note_on_c, 6, 79, 100
9, 172313, Note_on_c, 6, 79, 0
9, 172320, Note_on_c, 6, 78, 100
9, 172367, Note_on_c, 6, 78, 0
9, 172860, Note_on_c, 6, 78, 110
9, 172907, Note_on_c, 6, 78, 0
9, 172920, Note_on_c, 6, 76, 110
9, 172967, Note_on_c, 6, 76, 0
9, 172980, Note_on_c, 6, 74, 110
9, 173027, Note_on_c, 6, 74, 0
9, 173040, Note_on_c, 6, 74, 110
9, 173087, Note_on_c, 6, 74, 0
9, 173100, Note_on_c, 6, 73, 110
9, 173147, Note_on_c, 6, 73, 0
9, 173820, Note_on_c, 6, 78, 100
9, 173867, Note_on_c, 6, 78, 0
9, 173880, Note_on_c, 6, 76, 100
9, 173927, Note_on_c, 6, 76, 0
9, 173940, Note_on_c, 6, 74, 100
9, 173987, Note_on_c, 6, 74, 0
9, 174000, Note_on_c, 6, 74, 100
9, 174047, Note_on_c, 6, 74, 0
9, 174060, Note_on_c, 6, 73, 100
9, 174107, Note_on_c, 6, 73, 0
9, 174420, Note_on_c, 6, 76, 80
9, 174444, Note_on_c, 6, 76, 0
9, 174480, Note_on_c, 6, 74, 80
9, 174504, Note_on_c, 6, 74, 0
9, 174540, Note_on_c, 6, 78, 100
9, 174563, Note_on_c, 6, 78, 0
9, 174570, Note_on_c, 6, 76, 100
9, 174593, Note_on_c, 6, 76, 0
9, 174600, Note_on_c, 6, 78, 100
9, 174647, Note_on_c, 6, 78, 0
9, 174900, Note_on_c, 6, 69, 80
9, 174924, Note_on_c, 6, 69, 0
9, 174960, Note_on_c, 6, 69, 80
9, 174984, Note_on_c, 6, 69, 0
9, 175020, Note_on_c, 6, 76, 100
9, 175043, Note_on_c, 6, 76, 0
9, 175050, Note_on_c, 6, 74, 100
9, 175073, Note_on_c, 6, 74, 0
9, 175080, Note_on_c, 6, 76, 100
9, 175127, Note_on_c, 6, 76, 0
9, 175200, Note_on_c, 6, 71, 80
9, 175632, Note_on_c, 6, 71, 0
9, 175740, Note_on_c, 6, 83, 80
9, 175787, Note_on_c, 6, 83, 0
9, 175800, Note_on_c, 6, 79, 80
9, 175847, Note_on_c, 6, 79, 0
9, 175860, Note_on_c, 6, 74, 80
9, 175907, Note_on_c, 6, 74, 0
9, 175980, Note_on_c, 6, 76, 80
9, 176027, Note_on_c, 6, 76, 0
9, 176040, Note_on_c, 6, 73, 80
9, 176087, Note_on_c, 6, 73, 0
9, 176100, Note_on_c, 6, 76, 80
9, 176147, Note_on_c, 6, 76, 0
9, 176160, Note_on_c, 6, 69, 80
9, 176207, Note_on_c, 6, 69, 0
9, 176220, Note_on_c, 6, 71, 80
9, 176267, Note_on_c, 6, 71, 0
9, 176280, Note_on_c, 6, 71, 80
9, 176327, Note_on_c, 6, 71, 0
9, 176340, Note_on_c, 6, 73, 80
9, 176387, Note_on_c, 6, 73, 0
9, 176400, Note_on_c, 6, 66, 80
9, 176447, Note_on_c, 6, 66, 0
9, 176580, Note_on_c, 6, 79, 80
9, 176627, Note_on_c, 6, 79, 0
9, 176640, Note_on_c, 6, 81, 80
9, 176687, Note_on_c, 6, 81, 0
9, 176820, Note_on_c, 6, 72, 80
9, 176867, Note_on_c, 6, 72, 0
9, 176880, Note_on_c, 6, 71, 80
9, 176927, Note_on_c, 6, 71, 0
9, 177000, Note_on_c, 6, 74, 80
9, 177047, Note_on_c, 6, 74, 0
9, 177120, Note_on_c, 6, 76, 80
9, 177167, Note_on_c, 6, 76, 0
9, 177240, Note_on_c, 6, 76, 80
9, 177287, Note_on_c, 6, 76, 0
9, 177360, Note_on_c, 6, 76, 80
9, 177407, Note_on_c, 6, 76, 0
9, 177480, Note_on_c, 6, 76, 80
9, 177527, Note_on_c, 6, 76, 0
9, 177600, Note_on_c, 6, 69, 80
9, 177647, Note_on_c, 6, 69, 0
9, 177660, Note_on_c, 6, 78, 80
9, 177707, Note_on_c, 6, 78, 0
9, 177720, Note_on_c, 6, 79, 80
9, 177767, Note_on_c, 6, 79, 0
9, 177780, Note_on_c, 6, 76, 80
9, 177827, Note_on_c, 6, 76, 0
9, 177840, Note_on_c, 6, 78, 80
9, 177935, Note_on_c, 6, 78, 0
9, 177990, Note_on_c, 6, 66, 80
9, 178013, Note_on_c, 6, 66, 0
9, 178020, Note_on_c, 6, 67, 80
9, 178043, Note_on_c, 6, 67, 0
9, 178050, Note_on_c, 6, 69, 80
9, 178073, Note_on_c, 6, 69, 0
9, 178080, Note_on_c, 6, 62, 80
9, 178092, Note_on_c, 6, 62, 0
9, 178110, Note_on_c, 6, 71, 80
9, 178133, Note_on_c, 6, 71, 0
9, 178140, Note_on_c, 6, 69, 80
9, 178163, Note_on_c, 6, 69, 0
9, 178170, Note_on_c, 6, 67, 80
9, 178193, Note_on_c, 6, 67, 0
9, 178200, Note_on_c, 6, 62, 80
9, 178212, Note_on_c, 6, 62, 0
9, 178230, Note_on_c, 6, 69, 80
9, 178253, Note_on_c, 6, 69, 0
9, 178260, Note_on_c, 6, 67, 80
9, 178283, Note_on_c, 6, 67, 0
9, 178290, Note_on_c, 6, 66, 80
9, 178313, Note_on_c, 6, 66, 0
9, 178320, Note_on_c, 6, 62, 80
9, 178332, Note_on_c, 6, 62, 0
9, 178350, Note_on_c, 6, 67, 80
9, 178373, Note_on_c, 6, 67, 0
9, 178380, Note_on_c, 6, 66, 80
9, 178403, Note_on_c, 6, 66, 0
9, 178410, Note_on_c, 6, 64, 80
9, 178433, Note_on_c, 6, 64, 0
9, 178440, Note_on_c, 6, 62, 80
9, 178452, Note_on_c, 6, 62, 0
9, 178470, Note_on_c, 6, 66, 80
9, 178493, Note_on_c, 6, 66, 0
9, 178500, Note_on_c, 6, 64, 80
9, 178523, Note_on_c, 6, 64, 0
9, 178530, Note_on_c, 6, 62, 80
9, 178553, Note_on_c, 6, 62, 0
9, 178560, Note_on_c, 6, 64, 80
9, 178583, Note_on_c, 6, 64, 0
9, 178590, Note_on_c, 6, 74, 80
9, 178613, Note_on_c, 6, 74, 0
9, 178620, Note_on_c, 6, 73, 80
9, 178643, Note_on_c, 6, 73, 0
9, 178650, Note_on_c, 6, 71, 80
9, 178673, Note_on_c, 6, 71, 0
9, 178680, Note_on_c, 6, 69, 80
9, 178703, Note_on_c, 6, 69, 0
9, 178710, Note_on_c, 6, 67, 80
9, 178733, Note_on_c, 6, 67, 0
9, 178740, Note_on_c, 6, 66, 80
9, 178763, Note_on_c, 6, 66, 0
9, 178770, Note_on_c, 6, 64, 80
9, 178793, Note_on_c, 6, 64, 0
9, 178800, Note_on_c, 6, 62, 80
9, 178895, Note_on_c, 6, 62, 0
9, 178980, Note_on_c, 6, 66, 80
9, 179027, Note_on_c, 6, 66, 0
9, 179040, Note_on_c, 6, 71, 80
9, 179063, Note_on_c, 6, 71, 0
9, 179070, Note_on_c, 6, 73, 80
9, 179093, Note_on_c, 6, 73, 0
9, 179100, Note_on_c, 6, 74, 80
9, 179123, Note_on_c, 6, 74, 0
9, 179130, Note_on_c, 6, 73, 80
9, 179153, Note_on_c, 6, 73, 0
9, 179160, Note_on_c, 6, 71, 80
9, 179207, Note_on_c, 6, 71, 0
9, 179220, Note_on_c, 6, 66, 80
9, 179244, Note_on_c, 6, 66, 0
9, 179280, Note_on_c, 6, 66, 80
9, 179304, Note_on_c, 6, 66, 0
9, 179340, Note_on_c, 6, 62, 80
9, 179364, Note_on_c, 6, 62, 0
9, 179400, Note_on_c, 6, 62, 80
9, 179424, Note_on_c, 6, 62, 0
9, 179460, Note_on_c, 6, 59, 80
9, 179484, Note_on_c, 6, 59, 0
9, 179520, Note_on_c, 6, 59, 80
9, 179544, Note_on_c, 6, 59, 0
9, 179580, Note_on_c, 6, 74, 80
9, 179627, Note_on_c, 6, 74, 0
9, 179640, Note_on_c, 6, 73, 80
9, 179687, Note_on_c, 6, 73, 0
9, 179700, Note_on_c, 6, 71, 80
9, 179747, Note_on_c, 6, 71, 0
9, 179760, Note_on_c, 6, 71, 80
9, 179807, Note_on_c, 6, 71, 0
9, 179820, Note_on_c, 6, 70, 80
9, 179867, Note_on_c, 6, 70, 0
9, 179910, Note_on_c, 6, 73, 80
9, 179933, Note_on_c, 6, 73, 0
9, 179940, Note_on_c, 6, 71, 80
9, 179963, Note_on_c, 6, 71, 0
9, 179970, Note_on_c, 6, 70, 80
9, 179993, Note_on_c, 6, 70, 0
9, 180000, Note_on_c, 6, 71, 80
9, 180012, Note_on_c, 6, 71, 0
9, 180030, Note_on_c, 6, 71, 80
9, 180053, Note_on_c, 6, 71, 0
9, 180060, Note_on_c, 6, 73, 80
9, 180083, Note_on_c, 6, 73, 0
9, 180090, Note_on_c, 6, 74, 80
9, 180113, Note_on_c, 6, 74, 0
9, 180120, Note_on_c, 6, 71, 80
9, 180132, Note_on_c, 6, 71, 0
9, 180150, Note_on_c, 6, 71, 80
9, 180173, Note_on_c, 6, 71, 0
9, 180180, Note_on_c, 6, 73, 80
9, 180203, Note_on_c, 6, 73, 0
9, 180210, Note_on_c, 6, 74, 80
9, 180233, Note_on_c, 6, 74, 0
9, 180240, Note_on_c, 6, 71, 80
9, 180264, Note_on_c, 6, 71, 0
9, 180300, Note_on_c, 6, 79, 80
9, 180324, Note_on_c, 6, 79, 0
9, 180390, Note_on_c, 6, 79, 80
9, 180413, Note_on_c, 6, 79, 0
9, 180420, Note_on_c, 6, 78, 80
9, 180443, Note_on_c, 6, 78, 0
9, 180450, Note_on_c, 6, 76, 80
9, 180473, Note_on_c, 6, 76, 0
9, 180480, Note_on_c, 6, 74, 80
9, 180492, Note_on_c, 6, 74, 0
9, 180510, Note_on_c, 6, 74, 80
9, 180533, Note_on_c, 6, 74, 0
9, 180540, Note_on_c, 6, 76, 80
9, 180563, Note_on_c, 6, 76, 0
9, 180570, Note_on_c, 6, 78, 80
9, 180593, Note_on_c, 6, 78, 0
9, 180600, Note_on_c, 6, 74, 80
9, 180612, Note_on_c, 6, 74, 0
9, 180630, Note_on_c, 6, 74, 80
9, 180653, Note_on_c, 6, 74, 0
9, 180660, Note_on_c, 6, 76, 80
9, 180683, Note_on_c, 6, 76, 0
9, 180690, Note_on_c, 6, 78, 80
9, 180713, Note_on_c, 6, 78, 0
9, 180720, Note_on_c, 6, 76, 80
9, 180744, Note_on_c, 6, 76, 0
9, 180780, Note_on_c, 6, 83, 80
9, 180804, Note_on_c, 6, 83, 0
9, 180870, Note_on_c, 6, 83, 100
9, 180893, Note_on_c, 6, 83, 0
9, 180900, Note_on_c, 6, 81, 100
9, 180923, Note_on_c, 6, 81, 0
9, 180930, Note_on_c, 6, 79, 100
9, 180953, Note_on_c, 6, 79, 0
9, 180960, Note_on_c, 6, 78, 100
9, 181007, Note_on_c, 6, 78, 0
9, 191100, Note_on_c, 6, 78, 100
9, 191147, Note_on_c, 6, 78, 0
9, 191160, Note_on_c, 6, 76, 100
9, 191207, Note_on_c, 6, 76, 0
9, 191220, Note_on_c, 6, 74, 100
9, 191267, Note_on_c, 6, 74, 0
9, 191280, Note_on_c, 6, 74, 100
9, 191327, Note_on_c, 6, 74, 0
9, 191340, Note_on_c, 6, 73, 100
9, 191387, Note_on_c, 6, 73, 0
9, 192060, Note_on_c, 6, 78, 110
9, 192107, Note_on_c, 6, 78, 0
9, 192120, Note_on_c, 6, 76, 110
9, 192167, Note_on_c, 6, 76, 0
9, 192180, Note_on_c, 6, 74, 110
9, 192227, Note_on_c, 6, 74, 0
9, 192240, Note_on_c, 6, 74, 110
9, 192287, Note_on_c, 6, 74, 0
9, 192300, Note_on_c, 6, 73, 110
9, 192347, Note_on_c, 6, 73, 0
9, 192660, Note_on_c, 6, 76, 100
9, 192684, Note_on_c, 6, 76, 0
9, 192720, Note_on_c, 6, 74, 110
9, 192744, Note_on_c, 6, 74, 0
9, 192780, Note_on_c, 6, 78, 110
9, 192803, Note_on_c, 6, 78, 0
9, 192810, Note_on_c, 6, 76, 110
9, 192833, Note_on_c, 6, 76, 0
9, 192840, Note_on_c, 6, 78, 110
9, 192887, Note_on_c, 6, 78, 0
9, 193140, Note_on_c, 6, 69, 100
9, 193164, Note_on_c, 6, 69, 0
9, 193200, Note_on_c, 6, 69, 110
9, 193224, Note_on_c, 6, 69, 0
9, 193260, Note_on_c, 6, 76, 110
9, 193283, Note_on_c, 6, 76, 0
9, 193290, Note_on_c, 6, 74, 110
9, 193313, Note_on_c, 6, 74, 0
9, 193320, Note_on_c, 6, 76, 110
9, 193367, Note_on_c, 6, 76, 0
9, 193440, Note_on_c, 6, 71, 100
9, 193872, Note_on_c, 6, 71, 0
9, 193980, Note_on_c, 6, 83, 100
9, 194027, Note_on_c, 6, 83, 0
9, 194040, Note_on_c, 6, 79, 100
9, 194087, Note_on_c, 6, 79, 0
9, 194100, Note_on_c, 6, 74, 100
9, 194147, Note_on_c, 6, 74, 0
9, 194220, Note_on_c, 6, 76, 100
9, 194267, Note_on_c, 6, 76, 0
9, 194280, Note_on_c, 6, 73, 100
9, 194327, Note_on_c, 6, 73, 0
9, 194340, Note_on_c, 6, 76, 100
9, 194387, Note_on_c, 6, 76, 0
9, 194400, Note_on_c, 6, 69, 100
9, 194447, Note_on_c, 6, 69, 0
9, 194460, Note_on_c, 6, 71, 100
9, 194507, Note_on_c, 6, 71, 0
9, 194520, Note_on_c, 6, 71, 100
9, 194567, Note_on_c, 6, 71, 0
9, 194580, Note_on_c, 6, 73, 100
9, 194627, Note_on_c, 6, 73, 0
9, 194640, Note_on_c, 6, 66, 100
9, 194687, Note_on_c, 6, 66, 0
9, 194820, Note_on_c, 6, 79, 100
9, 194867, Note_on_c, 6, 79, 0
9, 194880, Note_on_c, 6, 81, 100
9, 194927, Note_on_c, 6, 81, 0
9, 195060, Note_on_c, 6, 72, 100
9, 195107, Note_on_c, 6, 72, 0
9, 195120, Note_on_c, 6, 71, 100
9, 195167, Note_on_c, 6, 71, 0
9, 195240, Note_on_c, 6, 74, 100
9, 195287, Note_on_c, 6, 74, 0
9, 195360, Note_on_c, 6, 76, 100
9, 195407, Note_on_c, 6, 76, 0
9, 195480, Note_on_c, 6, 76, 100
9, 195527, Note_on_c, 6, 76, 0
9, 195600, Note_on_c, 6, 76, 100
9, 195647, Note_on_c, 6, 76, 0
9, 195720, Note_on_c, 6, 76, 100
9, 195767, Note_on_c, 6, 76, 0
9, 195840, Note_on_c, 6, 69, 100
9, 195887, Note_on_c, 6, 69, 0
9, 195900, Note_on_c, 6, 78, 100
9, 195947, Note_on_c, 6, 78, 0
9, 195960, Note_on_c, 6, 79, 100
9, 196007, Note_on_c, 6, 79, 0
9, 196020, Note_on_c, 6, 76, 100
9, 196067, Note_on_c, 6, 76, 0
9, 196080, Note_on_c, 6, 78, 100
9, 196224, Note_on_c, 6, 78, 0
9, 196224, End_track
10, 0, Start_track
10, 0, MIDI_port, 0
10, 0, Title_t, "Viola"
10, 0, Program_c, 7, 48
10, 0, Control_c, 7, 7, 127
10, 0, Control_c, 7, 10, 63
10, 120, Note_on_c, 7, 62, 80
10, 149, Note_on_c, 7, 62, 0
10, 150, Note_on_c, 7, 64, 80
10, 179, Note_on_c, 7, 64, 0
10, 180, Note_on_c, 7, 66, 90
10, 209, Note_on_c, 7, 66, 0
10, 210, Note_on_c, 7, 64, 90
10, 239, Note_on_c, 7, 64, 0
10, 240, Note_on_c, 7, 67, 80
10, 269, Note_on_c, 7, 67, 0
10, 270, Note_on_c, 7, 66, 80
10, 299, Note_on_c, 7, 66, 0
10, 300, Note_on_c, 7, 64, 80
10, 329, Note_on_c, 7, 64, 0
10, 330, Note_on_c, 7, 62, 80
10, 359, Note_on_c, 7, 62, 0
10, 360, Note_on_c, 7, 61, 90
10, 389, Note_on_c, 7, 61, 0
10, 390, Note_on_c, 7, 59, 90
10, 419, Note_on_c, 7, 59, 0
10, 420, Note_on_c, 7, 62, 80
10, 449, Note_on_c, 7, 62, 0
10, 450, Note_on_c, 7, 61, 80
10, 479, Note_on_c, 7, 61, 0
10, 480, Note_on_c, 7, 59, 80
10, 509, Note_on_c, 7, 59, 0
10, 510, Note_on_c, 7, 57, 80
10, 539, Note_on_c, 7, 57, 0
10, 540, Note_on_c, 7, 62, 90
10, 587, Note_on_c, 7, 62, 0
10, 600, Note_on_c, 7, 55, 80
10, 647, Note_on_c, 7, 55, 0
10, 660, Note_on_c, 7, 57, 80
10, 707, Note_on_c, 7, 57, 0
10, 720, Note_on_c, 7, 62, 90
10, 767, Note_on_c, 7, 62, 0
10, 780, Note_on_c, 7, 66, 80
10, 827, Note_on_c, 7, 66, 0
10, 840, Note_on_c, 7, 62, 80
10, 887, Note_on_c, 7, 62, 0
10, 900, Note_on_c, 7, 66, 90
10, 995, Note_on_c, 7, 66, 0
10, 1020, Note_on_c, 7, 66, 80
10, 1067, Note_on_c, 7, 66, 0
10, 1080, Note_on_c, 7, 64, 90
10, 1175, Note_on_c, 7, 64, 0
10, 1200, Note_on_c, 7, 64, 80
10, 1247, Note_on_c, 7, 64, 0
10, 1260, Note_on_c, 7, 57, 90
10, 1307, Note_on_c, 7, 57, 0
10, 1320, Note_on_c, 7, 57, 80
10, 1367, Note_on_c, 7, 57, 0
10, 1380, Note_on_c, 7, 64, 80
10, 1427, Note_on_c, 7, 64, 0
10, 1440, Note_on_c, 7, 62, 90
10, 1487, Note_on_c, 7, 62, 0
10, 1500, Note_on_c, 7, 69, 80
10, 1547, Note_on_c, 7, 69, 0
10, 1560, Note_on_c, 7, 69, 80
10, 1607, Note_on_c, 7, 69, 0
10, 1620, Note_on_c, 7, 62, 90
10, 1715, Note_on_c, 7, 62, 0
10, 1740, Note_on_c, 7, 71, 80
10, 1787, Note_on_c, 7, 71, 0
10, 1800, Note_on_c, 7, 61, 90
10, 1895, Note_on_c, 7, 61, 0
10, 1920, Note_on_c, 7, 69, 80
10, 1967, Note_on_c, 7, 69, 0
10, 1980, Note_on_c, 7, 59, 90
10, 2027, Note_on_c, 7, 59, 0
10, 2040, Note_on_c, 7, 61, 80
10, 2087, Note_on_c, 7, 61, 0
10, 2100, Note_on_c, 7, 62, 80
10, 2147, Note_on_c, 7, 62, 0
10, 2160, Note_on_c, 7, 57, 90
10, 2207, Note_on_c, 7, 57, 0
10, 2220, Note_on_c, 7, 61, 80
10, 2267, Note_on_c, 7, 61, 0
10, 2280, Note_on_c, 7, 69, 80
10, 2327, Note_on_c, 7, 69, 0
10, 2340, Note_on_c, 7, 69, 90
10, 2387, Note_on_c, 7, 69, 0
10, 2400, Note_on_c, 7, 66, 80
10, 2447, Note_on_c, 7, 66, 0
10, 2460, Note_on_c, 7, 62, 80
10, 2507, Note_on_c, 7, 62, 0
10, 2520, Note_on_c, 7, 57, 90
10, 2567, Note_on_c, 7, 57, 0
10, 2580, Note_on_c, 7, 64, 80
10, 2627, Note_on_c, 7, 64, 0
10, 2640, Note_on_c, 7, 69, 80
10, 2687, Note_on_c, 7, 69, 0
10, 2700, Note_on_c, 7, 71, 90
10, 2747, Note_on_c, 7, 71, 0
10, 2760, Note_on_c, 7, 64, 80
10, 2807, Note_on_c, 7, 64, 0
10, 2820, Note_on_c, 7, 69, 80
10, 2867, Note_on_c, 7, 69, 0
10, 2880, Note_on_c, 7, 69, 90
10, 2927, Note_on_c, 7, 69, 0
10, 2940, Note_on_c, 7, 64, 80
10, 2987, Note_on_c, 7, 64, 0
10, 3000, Note_on_c, 7, 69, 80
10, 3095, Note_on_c, 7, 69, 0
10, 3120, Note_on_c, 7, 62, 80
10, 3167, Note_on_c, 7, 62, 0
10, 3180, Note_on_c, 7, 64, 80
10, 3227, Note_on_c, 7, 64, 0
10, 3240, Note_on_c, 7, 62, 90
10, 3287, Note_on_c, 7, 62, 0
10, 3300, Note_on_c, 7, 56, 80
10, 3347, Note_on_c, 7, 56, 0
10, 3360, Note_on_c, 7, 64, 80
10, 3455, Note_on_c, 7, 64, 0
10, 3480, Note_on_c, 7, 62, 80
10, 3527, Note_on_c, 7, 62, 0
10, 3540, Note_on_c, 7, 74, 80
10, 3587, Note_on_c, 7, 74, 0
10, 3630, Note_on_c, 7, 72, 65
10, 3653, Note_on_c, 7, 72, 0
10, 3660, Note_on_c, 7, 72, 65
10, 3683, Note_on_c, 7, 72, 0
10, 3690, Note_on_c, 7, 72, 65
10, 3713, Note_on_c, 7, 72, 0
10, 3720, Note_on_c, 7, 72, 65
10, 3743, Note_on_c, 7, 72, 0
10, 3750, Note_on_c, 7, 72, 65
10, 3773, Note_on_c, 7, 72, 0
10, 3780, Note_on_c, 7, 69, 65
10, 3803, Note_on_c, 7, 69, 0
10, 3810, Note_on_c, 7, 69, 65
10, 3833, Note_on_c, 7, 69, 0
10, 3840, Note_on_c, 7, 69, 65
10, 3863, Note_on_c, 7, 69, 0
10, 3870, Note_on_c, 7, 69, 65
10, 3893, Note_on_c, 7, 69, 0
10, 3900, Note_on_c, 7, 69, 65
10, 3923, Note_on_c, 7, 69, 0
10, 3930, Note_on_c, 7, 69, 65
10, 3953, Note_on_c, 7, 69, 0
10, 3960, Note_on_c, 7, 66, 65
10, 3983, Note_on_c, 7, 66, 0
10, 3990, Note_on_c, 7, 63, 65
10, 4013, Note_on_c, 7, 63, 0
10, 4020, Note_on_c, 7, 63, 65
10, 4043, Note_on_c, 7, 63, 0
10, 4050, Note_on_c, 7, 71, 65
10, 4073, Note_on_c, 7, 71, 0
10, 4080, Note_on_c, 7, 71, 65
10, 4103, Note_on_c, 7, 71, 0
10, 4110, Note_on_c, 7, 71, 65
10, 4133, Note_on_c, 7, 71, 0
10, 4140, Note_on_c, 7, 64, 65
10, 4187, Note_on_c, 7, 64, 0
10, 4200, Note_on_c, 7, 64, 80
10, 4247, Note_on_c, 7, 64, 0
10, 4260, Note_on_c, 7, 64, 80
10, 4307, Note_on_c, 7, 64, 0
10, 4320, Note_on_c, 7, 64, 90
10, 4349, Note_on_c, 7, 64, 0
10, 4380, Note_on_c, 7, 73, 80
10, 4409, Note_on_c, 7, 73, 0
10, 4410, Note_on_c, 7, 71, 80
10, 4439, Note_on_c, 7, 71, 0
10, 4440, Note_on_c, 7, 69, 80
10, 4469, Note_on_c, 7, 69, 0
10, 4470, Note_on_c, 7, 67, 80
10, 4499, Note_on_c, 7, 67, 0
10, 4500, Note_on_c, 7, 66, 90
10, 4529, Note_on_c, 7, 66, 0
10, 4560, Note_on_c, 7, 69, 80
10, 4589, Note_on_c, 7, 69, 0
10, 4590, Note_on_c, 7, 67, 80
10, 4619, Note_on_c, 7, 67, 0
10, 4620, Note_on_c, 7, 66, 80
10, 4649, Note_on_c, 7, 66, 0
10, 4650, Note_on_c, 7, 64, 80
10, 4679, Note_on_c, 7, 64, 0
10, 4680, Note_on_c, 7, 63, 90
10, 4709, Note_on_c, 7, 63, 0
10, 4740, Note_on_c, 7, 66, 80
10, 4769, Note_on_c, 7, 66, 0
10, 4770, Note_on_c, 7, 64, 80
10, 4799, Note_on_c, 7, 64, 0
10, 4800, Note_on_c, 7, 63, 80
10, 4829, Note_on_c, 7, 63, 0
10, 4830, Note_on_c, 7, 61, 80
10, 4859, Note_on_c, 7, 61, 0
10, 4860, Note_on_c, 7, 59, 90
10, 4907, Note_on_c, 7, 59, 0
10, 4920, Note_on_c, 7, 64, 80
10, 4967, Note_on_c, 7, 64, 0
10, 4980, Note_on_c, 7, 71, 80
10, 5027, Note_on_c, 7, 71, 0
10, 5040, Note_on_c, 7, 71, 90
10, 5087, Note_on_c, 7, 71, 0
10, 5100, Note_on_c, 7, 67, 80
10, 5147, Note_on_c, 7, 67, 0
10, 5280, Note_on_c, 7, 67, 80
10, 5309, Note_on_c, 7, 67, 0
10, 5310, Note_on_c, 7, 66, 80
10, 5339, Note_on_c, 7, 66, 0
10, 5340, Note_on_c, 7, 64, 80
10, 5369, Note_on_c, 7, 64, 0
10, 5370, Note_on_c, 7, 62, 80
10, 5399, Note_on_c, 7, 62, 0
10, 5400, Note_on_c, 7, 61, 90
10, 5429, Note_on_c, 7, 61, 0
10, 5460, Note_on_c, 7, 64, 80
10, 5489, Note_on_c, 7, 64, 0
10, 5490, Note_on_c, 7, 62, 80
10, 5519, Note_on_c, 7, 62, 0
10, 5520, Note_on_c, 7, 61, 80
10, 5549, Note_on_c, 7, 61, 0
10, 5550, Note_on_c, 7, 59, 80
10, 5579, Note_on_c, 7, 59, 0
10, 5580, Note_on_c, 7, 57, 90
10, 5627, Note_on_c, 7, 57, 0
10, 5640, Note_on_c, 7, 62, 80
10, 5687, Note_on_c, 7, 62, 0
10, 5700, Note_on_c, 7, 69, 80
10, 5747, Note_on_c, 7, 69, 0
10, 5760, Note_on_c, 7, 69, 90
10, 5819, Note_on_c, 7, 69, 0
10, 5820, Note_on_c, 7, 66, 80
10, 5867, Note_on_c, 7, 66, 0
10, 5880, Note_on_c, 7, 62, 80
10, 5927, Note_on_c, 7, 62, 0
10, 5940, Note_on_c, 7, 62, 90
10, 5999, Note_on_c, 7, 62, 0
10, 6000, Note_on_c, 7, 71, 80
10, 6059, Note_on_c, 7, 71, 0
10, 6060, Note_on_c, 7, 67, 80
10, 6107, Note_on_c, 7, 67, 0
10, 6120, Note_on_c, 7, 66, 90
10, 6179, Note_on_c, 7, 66, 0
10, 6180, Note_on_c, 7, 71, 80
10, 6227, Note_on_c, 7, 71, 0
10, 6240, Note_on_c, 7, 66, 80
10, 6287, Note_on_c, 7, 66, 0
10, 6300, Note_on_c, 7, 67, 90
10, 6359, Note_on_c, 7, 67, 0
10, 6360, Note_on_c, 7, 69, 80
10, 6407, Note_on_c, 7, 69, 0
10, 6420, Note_on_c, 7, 71, 80
10, 6467, Note_on_c, 7, 71, 0
10, 6480, Note_on_c, 7, 69, 90
10, 6527, Note_on_c, 7, 69, 0
10, 6540, Note_on_c, 7, 74, 80
10, 6587, Note_on_c, 7, 74, 0
10, 6600, Note_on_c, 7, 69, 80
10, 6647, Note_on_c, 7, 69, 0
10, 6660, Note_on_c, 7, 64, 90
10, 6707, Note_on_c, 7, 64, 0
10, 6720, Note_on_c, 7, 64, 80
10, 6767, Note_on_c, 7, 64, 0
10, 6780, Note_on_c, 7, 64, 80
10, 6827, Note_on_c, 7, 64, 0
10, 6840, Note_on_c, 7, 64, 90
10, 6887, Note_on_c, 7, 64, 0
10, 6900, Note_on_c, 7, 64, 80
10, 6947, Note_on_c, 7, 64, 0
10, 6960, Note_on_c, 7, 61, 80
10, 7007, Note_on_c, 7, 61, 0
10, 7020, Note_on_c, 7, 61, 90
10, 7067, Note_on_c, 7, 61, 0
10, 7080, Note_on_c, 7, 66, 80
10, 7127, Note_on_c, 7, 66, 0
10, 7140, Note_on_c, 7, 66, 80
10, 7187, Note_on_c, 7, 66, 0
10, 7200, Note_on_c, 7, 66, 90
10, 7247, Note_on_c, 7, 66, 0
10, 7260, Note_on_c, 7, 66, 80
10, 7307, Note_on_c, 7, 66, 0
10, 7320, Note_on_c, 7, 62, 80
10, 7367, Note_on_c, 7, 62, 0
10, 7380, Note_on_c, 7, 62, 90
10, 7427, Note_on_c, 7, 62, 0
10, 7440, Note_on_c, 7, 67, 80
10, 7487, Note_on_c, 7, 67, 0
10, 7500, Note_on_c, 7, 62, 80
10, 7547, Note_on_c, 7, 62, 0
10, 7560, Note_on_c, 7, 64, 90
10, 7607, Note_on_c, 7, 64, 0
10, 7620, Note_on_c, 7, 64, 80
10, 7667, Note_on_c, 7, 64, 0
10, 7680, Note_on_c, 7, 64, 80
10, 7727, Note_on_c, 7, 64, 0
10, 7740, Note_on_c, 7, 69, 90
10, 7787, Note_on_c, 7, 69, 0
10, 7800, Note_on_c, 7, 62, 80
10, 7847, Note_on_c, 7, 62, 0
10, 7860, Note_on_c, 7, 69, 80
10, 7907, Note_on_c, 7, 69, 0
10, 7950, Note_on_c, 7, 62, 65
10, 7973, Note_on_c, 7, 62, 0
10, 7980, Note_on_c, 7, 62, 65
10, 8003, Note_on_c, 7, 62, 0
10, 8010, Note_on_c, 7, 62, 65
10, 8033, Note_on_c, 7, 62, 0
10, 8040, Note_on_c, 7, 62, 65
10, 8063, Note_on_c, 7, 62, 0
10, 8070, Note_on_c, 7, 62, 65
10, 8093, Note_on_c, 7, 62, 0
10, 8100, Note_on_c, 7, 65, 65
10, 8123, Note_on_c, 7, 65, 0
10, 8130, Note_on_c, 7, 65, 65
10, 8153, Note_on_c, 7, 65, 0
10, 8160, Note_on_c, 7, 65, 65
10, 8183, Note_on_c, 7, 65, 0
10, 8190, Note_on_c, 7, 65, 65
10, 8213, Note_on_c, 7, 65, 0
10, 8220, Note_on_c, 7, 65, 65
10, 8243, Note_on_c, 7, 65, 0
10, 8250, Note_on_c, 7, 65, 65
10, 8273, Note_on_c, 7, 65, 0
10, 8280, Note_on_c, 7, 65, 65
10, 8303, Note_on_c, 7, 65, 0
10, 8310, Note_on_c, 7, 62, 65
10, 8333, Note_on_c, 7, 62, 0
10, 8340, Note_on_c, 7, 59, 65
10, 8363, Note_on_c, 7, 59, 0
10, 8370, Note_on_c, 7, 59, 65
10, 8393, Note_on_c, 7, 59, 0
10, 8400, Note_on_c, 7, 64, 80
10, 8423, Note_on_c, 7, 64, 0
10, 8430, Note_on_c, 7, 64, 80
10, 8453, Note_on_c, 7, 64, 0
10, 8460, Note_on_c, 7, 69, 90
10, 8507, Note_on_c, 7, 69, 0
10, 8520, Note_on_c, 7, 62, 80
10, 8567, Note_on_c, 7, 62, 0
10, 8580, Note_on_c, 7, 69, 80
10, 8627, Note_on_c, 7, 69, 0
10, 8640, Note_on_c, 7, 69, 90
10, 8735, Note_on_c, 7, 69, 0
10, 11640, Note_on_c, 7, 61, 80
10, 11699, Note_on_c, 7, 61, 0
10, 11700, Note_on_c, 7, 62, 90
10, 11729, Note_on_c, 7, 62, 0
10, 11730, Note_on_c, 7, 64, 90
10, 11759, Note_on_c, 7, 64, 0
10, 11760, Note_on_c, 7, 66, 80
10, 11819, Note_on_c, 7, 66, 0
10, 11820, Note_on_c, 7, 59, 80
10, 11939, Note_on_c, 7, 59, 0
10, 11940, Note_on_c, 7, 64, 80
10, 11987, Note_on_c, 7, 64, 0
10, 12000, Note_on_c, 7, 61, 80
10, 12047, Note_on_c, 7, 61, 0
10, 12060, Note_on_c, 7, 57, 90
10, 12107, Note_on_c, 7, 57, 0
10, 12120, Note_on_c, 7, 61, 80
10, 12167, Note_on_c, 7, 61, 0
10, 12180, Note_on_c, 7, 57, 80
10, 12275, Note_on_c, 7, 57, 0
10, 12300, Note_on_c, 7, 69, 80
10, 12347, Note_on_c, 7, 69, 0
10, 12360, Note_on_c, 7, 57, 80
10, 12407, Note_on_c, 7, 57, 0
10, 12420, Note_on_c, 7, 62, 90
10, 12515, Note_on_c, 7, 62, 0
10, 12540, Note_on_c, 7, 57, 80
10, 12587, Note_on_c, 7, 57, 0
10, 12600, Note_on_c, 7, 64, 90
10, 12695, Note_on_c, 7, 64, 0
10, 12720, Note_on_c, 7, 57, 80
10, 12767, Note_on_c, 7, 57, 0
10, 12780, Note_on_c, 7, 66, 90
10, 12827, Note_on_c, 7, 66, 0
10, 12840, Note_on_c, 7, 64, 80
10, 12869, Note_on_c, 7, 64, 0
10, 12870, Note_on_c, 7, 66, 80
10, 12899, Note_on_c, 7, 66, 0
10, 12900, Note_on_c, 7, 67, 80
10, 12929, Note_on_c, 7, 67, 0
10, 12930, Note_on_c, 7, 64, 80
10, 12959, Note_on_c, 7, 64, 0
10, 12960, Note_on_c, 7, 67, 90
10, 12989, Note_on_c, 7, 67, 0
10, 12990, Note_on_c, 7, 66, 90
10, 13019, Note_on_c, 7, 66, 0
10, 13020, Note_on_c, 7, 64, 80
10, 13049, Note_on_c, 7, 64, 0
10, 13050, Note_on_c, 7, 62, 80
10, 13079, Note_on_c, 7, 62, 0
10, 13080, Note_on_c, 7, 66, 80
10, 13109, Note_on_c, 7, 66, 0
10, 13110, Note_on_c, 7, 62, 80
10, 13139, Note_on_c, 7, 62, 0
10, 13140, Note_on_c, 7, 66, 90
10, 13169, Note_on_c, 7, 66, 0
10, 13170, Note_on_c, 7, 64, 90
10, 13199, Note_on_c, 7, 64, 0
10, 13200, Note_on_c, 7, 62, 80
10, 13229, Note_on_c, 7, 62, 0
10, 13230, Note_on_c, 7, 61, 80
10, 13259, Note_on_c, 7, 61, 0
10, 13260, Note_on_c, 7, 64, 80
10, 13289, Note_on_c, 7, 64, 0
10, 13290, Note_on_c, 7, 61, 80
10, 13319, Note_on_c, 7, 61, 0
10, 13320, Note_on_c, 7, 64, 90
10, 13349, Note_on_c, 7, 64, 0
10, 13350, Note_on_c, 7, 62, 90
10, 13379, Note_on_c, 7, 62, 0
10, 13380, Note_on_c, 7, 61, 80
10, 13409, Note_on_c, 7, 61, 0
10, 13410, Note_on_c, 7, 59, 80
10, 13439, Note_on_c, 7, 59, 0
10, 13440, Note_on_c, 7, 62, 80
10, 13469, Note_on_c, 7, 62, 0
10, 13470, Note_on_c, 7, 59, 80
10, 13499, Note_on_c, 7, 59, 0
10, 13500, Note_on_c, 7, 64, 90
10, 13529, Note_on_c, 7, 64, 0
10, 13560, Note_on_c, 7, 62, 80
10, 13589, Note_on_c, 7, 62, 0
10, 13590, Note_on_c, 7, 61, 80
10, 13619, Note_on_c, 7, 61, 0
10, 13620, Note_on_c, 7, 59, 80
10, 13649, Note_on_c, 7, 59, 0
10, 13650, Note_on_c, 7, 61, 80
10, 13679, Note_on_c, 7, 61, 0
10, 13680, Note_on_c, 7, 57, 90
10, 14100, Note_on_c, 7, 57, 0
10, 14100, Note_on_c, 7, 61, 80
10, 14147, Note_on_c, 7, 61, 0
10, 14160, Note_on_c, 7, 64, 80
10, 14207, Note_on_c, 7, 64, 0
10, 14220, Note_on_c, 7, 62, 90
10, 14315, Note_on_c, 7, 62, 0
10, 14340, Note_on_c, 7, 61, 80
10, 14387, Note_on_c, 7, 61, 0
10, 14400, Note_on_c, 7, 62, 90
10, 14447, Note_on_c, 7, 62, 0
10, 14460, Note_on_c, 7, 66, 80
10, 14507, Note_on_c, 7, 66, 0
10, 14520, Note_on_c, 7, 69, 80
10, 14615, Note_on_c, 7, 69, 0
10, 14640, Note_on_c, 7, 57, 80
10, 14687, Note_on_c, 7, 57, 0
10, 14700, Note_on_c, 7, 61, 80
10, 14747, Note_on_c, 7, 61, 0
10, 14760, Note_on_c, 7, 56, 90
10, 14807, Note_on_c, 7, 56, 0
10, 14820, Note_on_c, 7, 52, 80
10, 14867, Note_on_c, 7, 52, 0
10, 14880, Note_on_c, 7, 56, 80
10, 14927, Note_on_c, 7, 56, 0
10, 14940, Note_on_c, 7, 57, 90
10, 14987, Note_on_c, 7, 57, 0
10, 15000, Note_on_c, 7, 62, 80
10, 15047, Note_on_c, 7, 62, 0
10, 15060, Note_on_c, 7, 64, 80
10, 15131, Note_on_c, 7, 64, 0
10, 15150, Note_on_c, 7, 66, 90
10, 15179, Note_on_c, 7, 66, 0
10, 15180, Note_on_c, 7, 67, 80
10, 15209, Note_on_c, 7, 67, 0
10, 15210, Note_on_c, 7, 64, 80
10, 15239, Note_on_c, 7, 64, 0
10, 15240, Note_on_c, 7, 69, 80
10, 15287, Note_on_c, 7, 69, 0
10, 15300, Note_on_c, 7, 62, 90
10, 15329, Note_on_c, 7, 62, 0
10, 15330, Note_on_c, 7, 64, 90
10, 15359, Note_on_c, 7, 64, 0
10, 15360, Note_on_c, 7, 66, 80
10, 15419, Note_on_c, 7, 66, 0
10, 15420, Note_on_c, 7, 57, 80
10, 15539, Note_on_c, 7, 57, 0
10, 15540, Note_on_c, 7, 64, 80
10, 15587, Note_on_c, 7, 64, 0
10, 15600, Note_on_c, 7, 61, 80
10, 15647, Note_on_c, 7, 61, 0
10, 15660, Note_on_c, 7, 57, 90
10, 15707, Note_on_c, 7, 57, 0
10, 15720, Note_on_c, 7, 61, 80
10, 15767, Note_on_c, 7, 61, 0
10, 15780, Note_on_c, 7, 57, 80
10, 15875, Note_on_c, 7, 57, 0
10, 15900, Note_on_c, 7, 66, 80
10, 15947, Note_on_c, 7, 66, 0
10, 15960, Note_on_c, 7, 61, 80
10, 16007, Note_on_c, 7, 61, 0
10, 16020, Note_on_c, 7, 57, 90
10, 16067, Note_on_c, 7, 57, 0
10, 16140, Note_on_c, 7, 59, 80
10, 16187, Note_on_c, 7, 59, 0
10, 16200, Note_on_c, 7, 61, 90
10, 16247, Note_on_c, 7, 61, 0
10, 16320, Note_on_c, 7, 62, 80
10, 16367, Note_on_c, 7, 62, 0
10, 16380, Note_on_c, 7, 62, 90
10, 16427, Note_on_c, 7, 62, 0
10, 16500, Note_on_c, 7, 66, 80
10, 16547, Note_on_c, 7, 66, 0
10, 16560, Note_on_c, 7, 69, 90
10, 16607, Note_on_c, 7, 69, 0
10, 16680, Note_on_c, 7, 68, 80
10, 16727, Note_on_c, 7, 68, 0
10, 16740, Note_on_c, 7, 61, 90
10, 16787, Note_on_c, 7, 61, 0
10, 16860, Note_on_c, 7, 62, 80
10, 16907, Note_on_c, 7, 62, 0
10, 16920, Note_on_c, 7, 56, 90
10, 16967, Note_on_c, 7, 56, 0
10, 17040, Note_on_c, 7, 64, 80
10, 17087, Note_on_c, 7, 64, 0
10, 17100, Note_on_c, 7, 66, 90
10, 17147, Note_on_c, 7, 66, 0
10, 17220, Note_on_c, 7, 69, 80
10, 17267, Note_on_c, 7, 69, 0
10, 17280, Note_on_c, 7, 71, 90
10, 17327, Note_on_c, 7, 71, 0
10, 17400, Note_on_c, 7, 68, 80
10, 17447, Note_on_c, 7, 68, 0
10, 17460, Note_on_c, 7, 64, 90
10, 17507, Note_on_c, 7, 64, 0
10, 17580, Note_on_c, 7, 68, 80
10, 17627, Note_on_c, 7, 68, 0
10, 17640, Note_on_c, 7, 64, 90
10, 17687, Note_on_c, 7, 64, 0
10, 17760, Note_on_c, 7, 61, 80
10, 17807, Note_on_c, 7, 61, 0
10, 17820, Note_on_c, 7, 62, 90
10, 17867, Note_on_c, 7, 62, 0
10, 17940, Note_on_c, 7, 61, 80
10, 17987, Note_on_c, 7, 61, 0
10, 18000, Note_on_c, 7, 54, 90
10, 18047, Note_on_c, 7, 54, 0
10, 18120, Note_on_c, 7, 60, 80
10, 18167, Note_on_c, 7, 60, 0
10, 18180, Note_on_c, 7, 59, 90
10, 18227, Note_on_c, 7, 59, 0
10, 18300, Note_on_c, 7, 60, 80
10, 18347, Note_on_c, 7, 60, 0
10, 18360, Note_on_c, 7, 62, 90
10, 18407, Note_on_c, 7, 62, 0
10, 18480, Note_on_c, 7, 66, 80
10, 18527, Note_on_c, 7, 66, 0
10, 18540, Note_on_c, 7, 59, 90
10, 18587, Note_on_c, 7, 59, 0
10, 18660, Note_on_c, 7, 59, 80
10, 18707, Note_on_c, 7, 59, 0
10, 18720, Note_on_c, 7, 64, 90
10, 18767, Note_on_c, 7, 64, 0
10, 18840, Note_on_c, 7, 64, 80
10, 18887, Note_on_c, 7, 64, 0
10, 18900, Note_on_c, 7, 62, 90
10, 18947, Note_on_c, 7, 62, 0
10, 19020, Note_on_c, 7, 67, 80
10, 19067, Note_on_c, 7, 67, 0
10, 19080, Note_on_c, 7, 67, 90
10, 19127, Note_on_c, 7, 67, 0
10, 19200, Note_on_c, 7, 69, 80
10, 19247, Note_on_c, 7, 69, 0
10, 19260, Note_on_c, 7, 62, 90
10, 19307, Note_on_c, 7, 62, 0
10, 19380, Note_on_c, 7, 62, 80
10, 19427, Note_on_c, 7, 62, 0
10, 19440, Note_on_c, 7, 64, 90
10, 19487, Note_on_c, 7, 64, 0
10, 19500, Note_on_c, 7, 57, 80
10, 19547, Note_on_c, 7, 57, 0
10, 19560, Note_on_c, 7, 61, 80
10, 19607, Note_on_c, 7, 61, 0
10, 19620, Note_on_c, 7, 54, 90
10, 19667, Note_on_c, 7, 54, 0
10, 19680, Note_on_c, 7, 50, 80
10, 19727, Note_on_c, 7, 50, 0
10, 19740, Note_on_c, 7, 55, 80
10, 19787, Note_on_c, 7, 55, 0
10, 19800, Note_on_c, 7, 57, 90
10, 19847, Note_on_c, 7, 57, 0
10, 19860, Note_on_c, 7, 50, 80
10, 19907, Note_on_c, 7, 50, 0
10, 19920, Note_on_c, 7, 62, 80
10, 19949, Note_on_c, 7, 62, 0
10, 19950, Note_on_c, 7, 64, 80
10, 19979, Note_on_c, 7, 64, 0
10, 19980, Note_on_c, 7, 66, 90
10, 20027, Note_on_c, 7, 66, 0
10, 20040, Note_on_c, 7, 67, 80
10, 20087, Note_on_c, 7, 67, 0
10, 20100, Note_on_c, 7, 69, 80
10, 20147, Note_on_c, 7, 69, 0
10, 20160, Note_on_c, 7, 64, 90
10, 20189, Note_on_c, 7, 64, 0
10, 20190, Note_on_c, 7, 62, 90
10, 20219, Note_on_c, 7, 62, 0
10, 20220, Note_on_c, 7, 61, 80
10, 20249, Note_on_c, 7, 61, 0
10, 20250, Note_on_c, 7, 59, 80
10, 20279, Note_on_c, 7, 59, 0
10, 20280, Note_on_c, 7, 61, 80
10, 20339, Note_on_c, 7, 61, 0
10, 20340, Note_on_c, 7, 62, 90
10, 20387, Note_on_c, 7, 62, 0
10, 20400, Note_on_c, 7, 57, 80
10, 20447, Note_on_c, 7, 57, 0
10, 20460, Note_on_c, 7, 64, 80
10, 20507, Note_on_c, 7, 64, 0
10, 20520, Note_on_c, 7, 62, 90
10, 20567, Note_on_c, 7, 62, 0
10, 20580, Note_on_c, 7, 56, 80
10, 20627, Note_on_c, 7, 56, 0
10, 20640, Note_on_c, 7, 59, 80
10, 20687, Note_on_c, 7, 59, 0
10, 20700, Note_on_c, 7, 64, 90
10, 20747, Note_on_c, 7, 64, 0
10, 20760, Note_on_c, 7, 62, 80
10, 20807, Note_on_c, 7, 62, 0
10, 20820, Note_on_c, 7, 74, 80
10, 20867, Note_on_c, 7, 74, 0
10, 20910, Note_on_c, 7, 72, 70
10, 20933, Note_on_c, 7, 72, 0
10, 20940, Note_on_c, 7, 72, 70
10, 20963, Note_on_c, 7, 72, 0
10, 20970, Note_on_c, 7, 72, 70
10, 20993, Note_on_c, 7, 72, 0
10, 21000, Note_on_c, 7, 72, 70
10, 21023, Note_on_c, 7, 72, 0
10, 21030, Note_on_c, 7, 72, 70
10, 21053, Note_on_c, 7, 72, 0
10, 21060, Note_on_c, 7, 69, 70
10, 21083, Note_on_c, 7, 69, 0
10, 21090, Note_on_c, 7, 69, 70
10, 21113, Note_on_c, 7, 69, 0
10, 21120, Note_on_c, 7, 69, 70
10, 21143, Note_on_c, 7, 69, 0
10, 21150, Note_on_c, 7, 69, 70
10, 21173, Note_on_c, 7, 69, 0
10, 21180, Note_on_c, 7, 69, 70
10, 21203, Note_on_c, 7, 69, 0
10, 21210, Note_on_c, 7, 69, 70
10, 21233, Note_on_c, 7, 69, 0
10, 21240, Note_on_c, 7, 66, 70
10, 21263, Note_on_c, 7, 66, 0
10, 21270, Note_on_c, 7, 63, 70
10, 21293, Note_on_c, 7, 63, 0
10, 21300, Note_on_c, 7, 63, 70
10, 21323, Note_on_c, 7, 63, 0
10, 21330, Note_on_c, 7, 71, 70
10, 21353, Note_on_c, 7, 71, 0
10, 21360, Note_on_c, 7, 71, 70
10, 21383, Note_on_c, 7, 71, 0
10, 21390, Note_on_c, 7, 71, 70
10, 21413, Note_on_c, 7, 71, 0
10, 21420, Note_on_c, 7, 64, 70
10, 21467, Note_on_c, 7, 64, 0
10, 21480, Note_on_c, 7, 64, 90
10, 21527, Note_on_c, 7, 64, 0
10, 21540, Note_on_c, 7, 64, 90
10, 21587, Note_on_c, 7, 64, 0
10, 21600, Note_on_c, 7, 64, 90
10, 21719, Note_on_c, 7, 64, 0
10, 21720, Note_on_c, 7, 69, 80
10, 21768, Note_on_c, 7, 69, 0
10, 21780, Note_on_c, 7, 69, 90
10, 21828, Note_on_c, 7, 69, 0
10, 21900, Note_on_c, 7, 69, 80
10, 21948, Note_on_c, 7, 69, 0
10, 21960, Note_on_c, 7, 69, 90
10, 22008, Note_on_c, 7, 69, 0
10, 22080, Note_on_c, 7, 69, 80
10, 22128, Note_on_c, 7, 69, 0
10, 22140, Note_on_c, 7, 69, 90
10, 22188, Note_on_c, 7, 69, 0
10, 22440, Note_on_c, 7, 59, 80
10, 22488, Note_on_c, 7, 59, 0
10, 22500, Note_on_c, 7, 61, 90
10, 22548, Note_on_c, 7, 61, 0
10, 22620, Note_on_c, 7, 61, 80
10, 22668, Note_on_c, 7, 61, 0
10, 22680, Note_on_c, 7, 64, 90
10, 22728, Note_on_c, 7, 64, 0
10, 22800, Note_on_c, 7, 58, 80
10, 22848, Note_on_c, 7, 58, 0
10, 22860, Note_on_c, 7, 58, 90
10, 22908, Note_on_c, 7, 58, 0
10, 23160, Note_on_c, 7, 62, 80
10, 23208, Note_on_c, 7, 62, 0
10, 23220, Note_on_c, 7, 62, 90
10, 23268, Note_on_c, 7, 62, 0
10, 23340, Note_on_c, 7, 62, 80
10, 23388, Note_on_c, 7, 62, 0
10, 23400, Note_on_c, 7, 61, 90
10, 23448, Note_on_c, 7, 61, 0
10, 23520, Note_on_c, 7, 61, 80
10, 23568, Note_on_c, 7, 61, 0
10, 23580, Note_on_c, 7, 65, 90
10, 23628, Note_on_c, 7, 65, 0
10, 23880, Note_on_c, 7, 65, 80
10, 23928, Note_on_c, 7, 65, 0
10, 23940, Note_on_c, 7, 61, 90
10, 23988, Note_on_c, 7, 61, 0
10, 24060, Note_on_c, 7, 64, 80
10, 24108, Note_on_c, 7, 64, 0
10, 24120, Note_on_c, 7, 63, 90
10, 24168, Note_on_c, 7, 63, 0
10, 24240, Note_on_c, 7, 66, 80
10, 24288, Note_on_c, 7, 66, 0
10, 24300, Note_on_c, 7, 66, 90
10, 24348, Note_on_c, 7, 66, 0
10, 24600, Note_on_c, 7, 67, 80
10, 24648, Note_on_c, 7, 67, 0
10, 24660, Note_on_c, 7, 67, 90
10, 24708, Note_on_c, 7, 67, 0
10, 24780, Note_on_c, 7, 61, 80
10, 24828, Note_on_c, 7, 61, 0
10, 24840, Note_on_c, 7, 64, 90
10, 24888, Note_on_c, 7, 64, 0
10, 24960, Note_on_c, 7, 61, 80
10, 25008, Note_on_c, 7, 61, 0
10, 25020, Note_on_c, 7, 61, 90
10, 25068, Note_on_c, 7, 61, 0
10, 25320, Note_on_c, 7, 61, 80
10, 25368, Note_on_c, 7, 61, 0
10, 25380, Note_on_c, 7, 54, 90
10, 25428, Note_on_c, 7, 54, 0
10, 25500, Note_on_c, 7, 69, 80
10, 25548, Note_on_c, 7, 69, 0
10, 25560, Note_on_c, 7, 68, 90
10, 25608, Note_on_c, 7, 68, 0
10, 25680, Note_on_c, 7, 66, 80
10, 25728, Note_on_c, 7, 66, 0
10, 25740, Note_on_c, 7, 71, 90
10, 25788, Note_on_c, 7, 71, 0
10, 26040, Note_on_c, 7, 64, 80
10, 26088, Note_on_c, 7, 64, 0
10, 26100, Note_on_c, 7, 66, 90
10, 26148, Note_on_c, 7, 66, 0
10, 26220, Note_on_c, 7, 66, 80
10, 26268, Note_on_c, 7, 66, 0
10, 26280, Note_on_c, 7, 66, 90
10, 26328, Note_on_c, 7, 66, 0
10, 26400, Note_on_c, 7, 66, 80
10, 26448, Note_on_c, 7, 66, 0
10, 26460, Note_on_c, 7, 66, 90
10, 26508, Note_on_c, 7, 66, 0
10, 26880, Note_on_c, 7, 71, 80
10, 26909, Note_on_c, 7, 71, 0
10, 26910, Note_on_c, 7, 69, 80
10, 26939, Note_on_c, 7, 69, 0
10, 26940, Note_on_c, 7, 67, 80
10, 26969, Note_on_c, 7, 67, 0
10, 26970, Note_on_c, 7, 66, 80
10, 26999, Note_on_c, 7, 66, 0
10, 27000, Note_on_c, 7, 64, 90
10, 27029, Note_on_c, 7, 64, 0
10, 27060, Note_on_c, 7, 67, 80
10, 27089, Note_on_c, 7, 67, 0
10, 27090, Note_on_c, 7, 66, 80
10, 27119, Note_on_c, 7, 66, 0
10, 27120, Note_on_c, 7, 64, 80
10, 27149, Note_on_c, 7, 64, 0
10, 27150, Note_on_c, 7, 62, 80
10, 27179, Note_on_c, 7, 62, 0
10, 27180, Note_on_c, 7, 61, 90
10, 27227, Note_on_c, 7, 61, 0
10, 27240, Note_on_c, 7, 62, 80
10, 27287, Note_on_c, 7, 62, 0
10, 27300, Note_on_c, 7, 69, 80
10, 27395, Note_on_c, 7, 69, 0
10, 27420, Note_on_c, 7, 66, 80
10, 27467, Note_on_c, 7, 66, 0
10, 27480, Note_on_c, 7, 62, 80
10, 27527, Note_on_c, 7, 62, 0
10, 27540, Note_on_c, 7, 62, 90
10, 27587, Note_on_c, 7, 62, 0
10, 27600, Note_on_c, 7, 64, 80
10, 27647, Note_on_c, 7, 64, 0
10, 27660, Note_on_c, 7, 66, 80
10, 27707, Note_on_c, 7, 66, 0
10, 27720, Note_on_c, 7, 59, 90
10, 27749, Note_on_c, 7, 59, 0
10, 27750, Note_on_c, 7, 61, 90
10, 27779, Note_on_c, 7, 61, 0
10, 27780, Note_on_c, 7, 62, 80
10, 27827, Note_on_c, 7, 62, 0
10, 27840, Note_on_c, 7, 64, 80
10, 27887, Note_on_c, 7, 64, 0
10, 27900, Note_on_c, 7, 66, 90
10, 27947, Note_on_c, 7, 66, 0
10, 27960, Note_on_c, 7, 67, 80
10, 28007, Note_on_c, 7, 67, 0
10, 28020, Note_on_c, 7, 66, 80
10, 28067, Note_on_c, 7, 66, 0
10, 28110, Note_on_c, 7, 74, 70
10, 28133, Note_on_c, 7, 74, 0
10, 28140, Note_on_c, 7, 74, 70
10, 28163, Note_on_c, 7, 74, 0
10, 28170, Note_on_c, 7, 74, 70
10, 28193, Note_on_c, 7, 74, 0
10, 28200, Note_on_c, 7, 74, 70
10, 28223, Note_on_c, 7, 74, 0
10, 28230, Note_on_c, 7, 74, 70
10, 28253, Note_on_c, 7, 74, 0
10, 28260, Note_on_c, 7, 71, 70
10, 28283, Note_on_c, 7, 71, 0
10, 28290, Note_on_c, 7, 71, 70
10, 28313, Note_on_c, 7, 71, 0
10, 28320, Note_on_c, 7, 71, 70
10, 28343, Note_on_c, 7, 71, 0
10, 28350, Note_on_c, 7, 71, 70
10, 28373, Note_on_c, 7, 71, 0
10, 28380, Note_on_c, 7, 71, 70
10, 28403, Note_on_c, 7, 71, 0
10, 28410, Note_on_c, 7, 71, 70
10, 28433, Note_on_c, 7, 71, 0
10, 28440, Note_on_c, 7, 68, 70
10, 28463, Note_on_c, 7, 68, 0
10, 28470, Note_on_c, 7, 65, 70
10, 28493, Note_on_c, 7, 65, 0
10, 28500, Note_on_c, 7, 61, 70
10, 28523, Note_on_c, 7, 61, 0
10, 28530, Note_on_c, 7, 61, 70
10, 28553, Note_on_c, 7, 61, 0
10, 28560, Note_on_c, 7, 61, 70
10, 28583, Note_on_c, 7, 61, 0
10, 28590, Note_on_c, 7, 61, 70
10, 28613, Note_on_c, 7, 61, 0
10, 28620, Note_on_c, 7, 66, 70
10, 28667, Note_on_c, 7, 66, 0
10, 28680, Note_on_c, 7, 59, 80
10, 28727, Note_on_c, 7, 59, 0
10, 28740, Note_on_c, 7, 66, 80
10, 28787, Note_on_c, 7, 66, 0
10, 28800, Note_on_c, 7, 62, 90
10, 28895, Note_on_c, 7, 62, 0
10, 28920, Note_on_c, 7, 62, 90
10, 28949, Note_on_c, 7, 62, 0
10, 28950, Note_on_c, 7, 64, 90
10, 28979, Note_on_c, 7, 64, 0
10, 28980, Note_on_c, 7, 66, 89
10, 29009, Note_on_c, 7, 66, 0
10, 29010, Note_on_c, 7, 64, 88
10, 29039, Note_on_c, 7, 64, 0
10, 29040, Note_on_c, 7, 67, 87
10, 29069, Note_on_c, 7, 67, 0
10, 29070, Note_on_c, 7, 66, 86
10, 29099, Note_on_c, 7, 66, 0
10, 29100, Note_on_c, 7, 64, 85
10, 29129, Note_on_c, 7, 64, 0
10, 29130, Note_on_c, 7, 62, 84
10, 29159, Note_on_c, 7, 62, 0
10, 29160, Note_on_c, 7, 61, 84
10, 29189, Note_on_c, 7, 61, 0
10, 29190, Note_on_c, 7, 59, 83
10, 29219, Note_on_c, 7, 59, 0
10, 29220, Note_on_c, 7, 62, 82
10, 29249, Note_on_c, 7, 62, 0
10, 29250, Note_on_c, 7, 61, 81
10, 29279, Note_on_c, 7, 61, 0
10, 29280, Note_on_c, 7, 59, 80
10, 29309, Note_on_c, 7, 59, 0
10, 29310, Note_on_c, 7, 57, 79
10, 29339, Note_on_c, 7, 57, 0
10, 29340, Note_on_c, 7, 62, 78
10, 29387, Note_on_c, 7, 62, 0
10, 29400, Note_on_c, 7, 55, 77
10, 29447, Note_on_c, 7, 55, 0
10, 29460, Note_on_c, 7, 57, 75
10, 29507, Note_on_c, 7, 57, 0
10, 29520, Note_on_c, 7, 62, 73
10, 29567, Note_on_c, 7, 62, 0
10, 29580, Note_on_c, 7, 66, 71
10, 29627, Note_on_c, 7, 66, 0
10, 29640, Note_on_c, 7, 62, 80
10, 29687, Note_on_c, 7, 62, 0
10, 29700, Note_on_c, 7, 66, 90
10, 29795, Note_on_c, 7, 66, 0
10, 29820, Note_on_c, 7, 66, 80
10, 29867, Note_on_c, 7, 66, 0
10, 29880, Note_on_c, 7, 64, 90
10, 29975, Note_on_c, 7, 64, 0
10, 30000, Note_on_c, 7, 64, 80
10, 30047, Note_on_c, 7, 64, 0
10, 30060, Note_on_c, 7, 57, 90
10, 30107, Note_on_c, 7, 57, 0
10, 30120, Note_on_c, 7, 57, 80
10, 30167, Note_on_c, 7, 57, 0
10, 30180, Note_on_c, 7, 64, 80
10, 30227, Note_on_c, 7, 64, 0
10, 30240, Note_on_c, 7, 62, 90
10, 30287, Note_on_c, 7, 62, 0
10, 30300, Note_on_c, 7, 69, 80
10, 30347, Note_on_c, 7, 69, 0
10, 31080, Note_on_c, 7, 57, 80
10, 31127, Note_on_c, 7, 57, 0
10, 31140, Note_on_c, 7, 62, 90
10, 31235, Note_on_c, 7, 62, 0
10, 31260, Note_on_c, 7, 57, 80
10, 31307, Note_on_c, 7, 57, 0
10, 31320, Note_on_c, 7, 64, 90
10, 31415, Note_on_c, 7, 64, 0
10, 31440, Note_on_c, 7, 57, 80
10, 31487, Note_on_c, 7, 57, 0
10, 31500, Note_on_c, 7, 66, 90
10, 31547, Note_on_c, 7, 66, 0
10, 31560, Note_on_c, 7, 64, 80
10, 31589, Note_on_c, 7, 64, 0
10, 31590, Note_on_c, 7, 66, 80
10, 31619, Note_on_c, 7, 66, 0
10, 31620, Note_on_c, 7, 67, 80
10, 31649, Note_on_c, 7, 67, 0
10, 31650, Note_on_c, 7, 64, 80
10, 31679, Note_on_c, 7, 64, 0
10, 31680, Note_on_c, 7, 67, 90
10, 31709, Note_on_c, 7, 67, 0
10, 31710, Note_on_c, 7, 66, 90
10, 31739, Note_on_c, 7, 66, 0
10, 31740, Note_on_c, 7, 64, 80
10, 31769, Note_on_c, 7, 64, 0
10, 31770, Note_on_c, 7, 62, 80
10, 31799, Note_on_c, 7, 62, 0
10, 31800, Note_on_c, 7, 66, 80
10, 31829, Note_on_c, 7, 66, 0
10, 31830, Note_on_c, 7, 62, 80
10, 31859, Note_on_c, 7, 62, 0
10, 31860, Note_on_c, 7, 66, 90
10, 31889, Note_on_c, 7, 66, 0
10, 31890, Note_on_c, 7, 64, 90
10, 31919, Note_on_c, 7, 64, 0
10, 31920, Note_on_c, 7, 62, 80
10, 31949, Note_on_c, 7, 62, 0
10, 31950, Note_on_c, 7, 61, 80
10, 31979, Note_on_c, 7, 61, 0
10, 31980, Note_on_c, 7, 64, 80
10, 32009, Note_on_c, 7, 64, 0
10, 32010, Note_on_c, 7, 61, 80
10, 32039, Note_on_c, 7, 61, 0
10, 32040, Note_on_c, 7, 64, 90
10, 32069, Note_on_c, 7, 64, 0
10, 32070, Note_on_c, 7, 62, 90
10, 32099, Note_on_c, 7, 62, 0
10, 32100, Note_on_c, 7, 61, 80
10, 32129, Note_on_c, 7, 61, 0
10, 32130, Note_on_c, 7, 59, 80
10, 32159, Note_on_c, 7, 59, 0
10, 32160, Note_on_c, 7, 62, 80
10, 32189, Note_on_c, 7, 62, 0
10, 32190, Note_on_c, 7, 59, 80
10, 32219, Note_on_c, 7, 59, 0
10, 32220, Note_on_c, 7, 64, 90
10, 32249, Note_on_c, 7, 64, 0
10, 32280, Note_on_c, 7, 62, 80
10, 32309, Note_on_c, 7, 62, 0
10, 32310, Note_on_c, 7, 61, 80
10, 32339, Note_on_c, 7, 61, 0
10, 32340, Note_on_c, 7, 59, 80
10, 32369, Note_on_c, 7, 59, 0
10, 32370, Note_on_c, 7, 61, 80
10, 32399, Note_on_c, 7, 61, 0
10, 32400, Note_on_c, 7, 57, 90
10, 32447, Note_on_c, 7, 57, 0
10, 32460, Note_on_c, 7, 61, 80
10, 32507, Note_on_c, 7, 61, 0
10, 32520, Note_on_c, 7, 61, 80
10, 32567, Note_on_c, 7, 61, 0
10, 32580, Note_on_c, 7, 62, 90
10, 32675, Note_on_c, 7, 62, 0
10, 32700, Note_on_c, 7, 62, 80
10, 32747, Note_on_c, 7, 62, 0
10, 32760, Note_on_c, 7, 57, 90
10, 32807, Note_on_c, 7, 57, 0
10, 32820, Note_on_c, 7, 64, 80
10, 32867, Note_on_c, 7, 64, 0
10, 32880, Note_on_c, 7, 61, 80
10, 32927, Note_on_c, 7, 61, 0
10, 32940, Note_on_c, 7, 69, 90
10, 32987, Note_on_c, 7, 69, 0
10, 33000, Note_on_c, 7, 57, 80
10, 33047, Note_on_c, 7, 57, 0
10, 33060, Note_on_c, 7, 57, 80
10, 33107, Note_on_c, 7, 57, 0
10, 33120, Note_on_c, 7, 57, 90
10, 33167, Note_on_c, 7, 57, 0
10, 33180, Note_on_c, 7, 69, 80
10, 33227, Note_on_c, 7, 69, 0
10, 33960, Note_on_c, 7, 59, 80
10, 34019, Note_on_c, 7, 59, 0
10, 34020, Note_on_c, 7, 61, 90
10, 34049, Note_on_c, 7, 61, 0
10, 34080, Note_on_c, 7, 66, 80
10, 34109, Note_on_c, 7, 66, 0
10, 34110, Note_on_c, 7, 64, 80
10, 34139, Note_on_c, 7, 64, 0
10, 34140, Note_on_c, 7, 62, 80
10, 34169, Note_on_c, 7, 62, 0
10, 34170, Note_on_c, 7, 61, 80
10, 34199, Note_on_c, 7, 61, 0
10, 34200, Note_on_c, 7, 59, 90
10, 34229, Note_on_c, 7, 59, 0
10, 34260, Note_on_c, 7, 64, 80
10, 34289, Note_on_c, 7, 64, 0
10, 34290, Note_on_c, 7, 62, 80
10, 34319, Note_on_c, 7, 62, 0
10, 34320, Note_on_c, 7, 61, 80
10, 34349, Note_on_c, 7, 61, 0
10, 34350, Note_on_c, 7, 59, 80
10, 34379, Note_on_c, 7, 59, 0
10, 34380, Note_on_c, 7, 57, 90
10, 34427, Note_on_c, 7, 57, 0
10, 34440, Note_on_c, 7, 62, 80
10, 34487, Note_on_c, 7, 62, 0
10, 34500, Note_on_c, 7, 61, 80
10, 34547, Note_on_c, 7, 61, 0
10, 34560, Note_on_c, 7, 59, 90
10, 34607, Note_on_c, 7, 59, 0
10, 34620, Note_on_c, 7, 64, 80
10, 34763, Note_on_c, 7, 64, 0
10, 34800, Note_on_c, 7, 62, 80
10, 34829, Note_on_c, 7, 62, 0
10, 34830, Note_on_c, 7, 61, 80
10, 34859, Note_on_c, 7, 61, 0
10, 34860, Note_on_c, 7, 62, 80
10, 34979, Note_on_c, 7, 62, 0
10, 34980, Note_on_c, 7, 61, 80
10, 35027, Note_on_c, 7, 61, 0
10, 35040, Note_on_c, 7, 66, 80
10, 35087, Note_on_c, 7, 66, 0
10, 35100, Note_on_c, 7, 59, 90
10, 35129, Note_on_c, 7, 59, 0
10, 35160, Note_on_c, 7, 64, 80
10, 35189, Note_on_c, 7, 64, 0
10, 35190, Note_on_c, 7, 62, 80
10, 35219, Note_on_c, 7, 62, 0
10, 35220, Note_on_c, 7, 61, 80
10, 35249, Note_on_c, 7, 61, 0
10, 35250, Note_on_c, 7, 59, 80
10, 35279, Note_on_c, 7, 59, 0
10, 35280, Note_on_c, 7, 57, 90
10, 35327, Note_on_c, 7, 57, 0
10, 35340, Note_on_c, 7, 62, 80
10, 35387, Note_on_c, 7, 62, 0
10, 35400, Note_on_c, 7, 61, 80
10, 35447, Note_on_c, 7, 61, 0
10, 35460, Note_on_c, 7, 62, 90
10, 35555, Note_on_c, 7, 62, 0
10, 35580, Note_on_c, 7, 64, 80
10, 35627, Note_on_c, 7, 64, 0
10, 35640, Note_on_c, 7, 61, 90
10, 35687, Note_on_c, 7, 61, 0
10, 35700, Note_on_c, 7, 60, 80
10, 35795, Note_on_c, 7, 60, 0
10, 35820, Note_on_c, 7, 59, 90
10, 35867, Note_on_c, 7, 59, 0
10, 35880, Note_on_c, 7, 61, 80
10, 35927, Note_on_c, 7, 61, 0
10, 35940, Note_on_c, 7, 62, 80
10, 35987, Note_on_c, 7, 62, 0
10, 36000, Note_on_c, 7, 61, 90
10, 36029, Note_on_c, 7, 61, 0
10, 36030, Note_on_c, 7, 62, 90
10, 36059, Note_on_c, 7, 62, 0
10, 36060, Note_on_c, 7, 64, 80
10, 36107, Note_on_c, 7, 64, 0
10, 36120, Note_on_c, 7, 66, 80
10, 36215, Note_on_c, 7, 66, 0
10, 36240, Note_on_c, 7, 59, 80
10, 36287, Note_on_c, 7, 59, 0
10, 36300, Note_on_c, 7, 64, 80
10, 36395, Note_on_c, 7, 64, 0
10, 36420, Note_on_c, 7, 57, 80
10, 36467, Note_on_c, 7, 57, 0
10, 36480, Note_on_c, 7, 62, 80
10, 36527, Note_on_c, 7, 62, 0
10, 36540, Note_on_c, 7, 55, 90
10, 36587, Note_on_c, 7, 55, 0
10, 36600, Note_on_c, 7, 57, 80
10, 36647, Note_on_c, 7, 57, 0
10, 36660, Note_on_c, 7, 59, 80
10, 36707, Note_on_c, 7, 59, 0
10, 36720, Note_on_c, 7, 64, 90
10, 36767, Note_on_c, 7, 64, 0
10, 36780, Note_on_c, 7, 62, 80
10, 36827, Note_on_c, 7, 62, 0
10, 36840, Note_on_c, 7, 64, 80
10, 36887, Note_on_c, 7, 64, 0
10, 36900, Note_on_c, 7, 62, 90
10, 36947, Note_on_c, 7, 62, 0
10, 36960, Note_on_c, 7, 50, 80
10, 37007, Note_on_c, 7, 50, 0
10, 37020, Note_on_c, 7, 55, 80
10, 37067, Note_on_c, 7, 55, 0
10, 37080, Note_on_c, 7, 57, 90
10, 37127, Note_on_c, 7, 57, 0
10, 37140, Note_on_c, 7, 50, 80
10, 37187, Note_on_c, 7, 50, 0
10, 37200, Note_on_c, 7, 62, 80
10, 37229, Note_on_c, 7, 62, 0
10, 37230, Note_on_c, 7, 64, 80
10, 37259, Note_on_c, 7, 64, 0
10, 37260, Note_on_c, 7, 66, 90
10, 37307, Note_on_c, 7, 66, 0
10, 37320, Note_on_c, 7, 67, 80
10, 37367, Note_on_c, 7, 67, 0
10, 37380, Note_on_c, 7, 69, 80
10, 37427, Note_on_c, 7, 69, 0
10, 37440, Note_on_c, 7, 64, 90
10, 37487, Note_on_c, 7, 64, 0
10, 37500, Note_on_c, 7, 57, 80
10, 37547, Note_on_c, 7, 57, 0
10, 37560, Note_on_c, 7, 61, 80
10, 37607, Note_on_c, 7, 61, 0
10, 37620, Note_on_c, 7, 62, 90
10, 37667, Note_on_c, 7, 62, 0
10, 37680, Note_on_c, 7, 57, 80
10, 37727, Note_on_c, 7, 57, 0
10, 37740, Note_on_c, 7, 64, 80
10, 37787, Note_on_c, 7, 64, 0
10, 37800, Note_on_c, 7, 62, 90
10, 37847, Note_on_c, 7, 62, 0
10, 37860, Note_on_c, 7, 56, 80
10, 37907, Note_on_c, 7, 56, 0
10, 37920, Note_on_c, 7, 59, 80
10, 37967, Note_on_c, 7, 59, 0
10, 37980, Note_on_c, 7, 64, 90
10, 38027, Note_on_c, 7, 64, 0
10, 38040, Note_on_c, 7, 62, 80
10, 38087, Note_on_c, 7, 62, 0
10, 38100, Note_on_c, 7, 74, 80
10, 38147, Note_on_c, 7, 74, 0
10, 38190, Note_on_c, 7, 72, 70
10, 38213, Note_on_c, 7, 72, 0
10, 38220, Note_on_c, 7, 72, 70
10, 38243, Note_on_c, 7, 72, 0
10, 38250, Note_on_c, 7, 72, 70
10, 38273, Note_on_c, 7, 72, 0
10, 38280, Note_on_c, 7, 72, 70
10, 38303, Note_on_c, 7, 72, 0
10, 38310, Note_on_c, 7, 72, 70
10, 38333, Note_on_c, 7, 72, 0
10, 38340, Note_on_c, 7, 69, 70
10, 38363, Note_on_c, 7, 69, 0
10, 38370, Note_on_c, 7, 69, 70
10, 38393, Note_on_c, 7, 69, 0
10, 38400, Note_on_c, 7, 69, 70
10, 38423, Note_on_c, 7, 69, 0
10, 38430, Note_on_c, 7, 69, 70
10, 38453, Note_on_c, 7, 69, 0
10, 38460, Note_on_c, 7, 69, 70
10, 38483, Note_on_c, 7, 69, 0
10, 38490, Note_on_c, 7, 69, 70
10, 38513, Note_on_c, 7, 69, 0
10, 38520, Note_on_c, 7, 66, 70
10, 38543, Note_on_c, 7, 66, 0
10, 38550, Note_on_c, 7, 63, 70
10, 38573, Note_on_c, 7, 63, 0
10, 38580, Note_on_c, 7, 63, 70
10, 38603, Note_on_c, 7, 63, 0
10, 38610, Note_on_c, 7, 71, 70
10, 38633, Note_on_c, 7, 71, 0
10, 38640, Note_on_c, 7, 71, 70
10, 38663, Note_on_c, 7, 71, 0
10, 38670, Note_on_c, 7, 71, 70
10, 38693, Note_on_c, 7, 71, 0
10, 38700, Note_on_c, 7, 64, 90
10, 38747, Note_on_c, 7, 64, 0
10, 38760, Note_on_c, 7, 64, 80
10, 38807, Note_on_c, 7, 64, 0
10, 38820, Note_on_c, 7, 64, 80
10, 38867, Note_on_c, 7, 64, 0
10, 38880, Note_on_c, 7, 64, 90
10, 38909, Note_on_c, 7, 64, 0
10, 38940, Note_on_c, 7, 73, 80
10, 38969, Note_on_c, 7, 73, 0
10, 38970, Note_on_c, 7, 71, 80
10, 38999, Note_on_c, 7, 71, 0
10, 39000, Note_on_c, 7, 69, 80
10, 39029, Note_on_c, 7, 69, 0
10, 39030, Note_on_c, 7, 67, 80
10, 39059, Note_on_c, 7, 67, 0
10, 39060, Note_on_c, 7, 66, 90
10, 39089, Note_on_c, 7, 66, 0
10, 39120, Note_on_c, 7, 69, 80
10, 39149, Note_on_c, 7, 69, 0
10, 39150, Note_on_c, 7, 67, 80
10, 39179, Note_on_c, 7, 67, 0
10, 39180, Note_on_c, 7, 66, 80
10, 39209, Note_on_c, 7, 66, 0
10, 39210, Note_on_c, 7, 64, 80
10, 39239, Note_on_c, 7, 64, 0
10, 39240, Note_on_c, 7, 63, 90
10, 39269, Note_on_c, 7, 63, 0
10, 39300, Note_on_c, 7, 66, 80
10, 39329, Note_on_c, 7, 66, 0
10, 39330, Note_on_c, 7, 64, 80
10, 39359, Note_on_c, 7, 64, 0
10, 39360, Note_on_c, 7, 63, 80
10, 39389, Note_on_c, 7, 63, 0
10, 39390, Note_on_c, 7, 61, 80
10, 39419, Note_on_c, 7, 61, 0
10, 39420, Note_on_c, 7, 59, 90
10, 39467, Note_on_c, 7, 59, 0
10, 39480, Note_on_c, 7, 64, 80
10, 39527, Note_on_c, 7, 64, 0
10, 39540, Note_on_c, 7, 71, 80
10, 39587, Note_on_c, 7, 71, 0
10, 39600, Note_on_c, 7, 71, 90
10, 39647, Note_on_c, 7, 71, 0
10, 39660, Note_on_c, 7, 67, 80
10, 39707, Note_on_c, 7, 67, 0
10, 39840, Note_on_c, 7, 67, 80
10, 39869, Note_on_c, 7, 67, 0
10, 39870, Note_on_c, 7, 66, 80
10, 39899, Note_on_c, 7, 66, 0
10, 39900, Note_on_c, 7, 64, 80
10, 39929, Note_on_c, 7, 64, 0
10, 39930, Note_on_c, 7, 62, 80
10, 39959, Note_on_c, 7, 62, 0
10, 39960, Note_on_c, 7, 61, 90
10, 39989, Note_on_c, 7, 61, 0
10, 40020, Note_on_c, 7, 64, 80
10, 40049, Note_on_c, 7, 64, 0
10, 40050, Note_on_c, 7, 62, 80
10, 40079, Note_on_c, 7, 62, 0
10, 40080, Note_on_c, 7, 61, 80
10, 40109, Note_on_c, 7, 61, 0
10, 40110, Note_on_c, 7, 59, 80
10, 40139, Note_on_c, 7, 59, 0
10, 40140, Note_on_c, 7, 57, 90
10, 40187, Note_on_c, 7, 57, 0
10, 40200, Note_on_c, 7, 62, 80
10, 40247, Note_on_c, 7, 62, 0
10, 40260, Note_on_c, 7, 69, 80
10, 40307, Note_on_c, 7, 69, 0
10, 40320, Note_on_c, 7, 69, 90
10, 40367, Note_on_c, 7, 69, 0
10, 40380, Note_on_c, 7, 66, 80
10, 40427, Note_on_c, 7, 66, 0
10, 40440, Note_on_c, 7, 62, 80
10, 40487, Note_on_c, 7, 62, 0
10, 40500, Note_on_c, 7, 62, 90
10, 40547, Note_on_c, 7, 62, 0
10, 40560, Note_on_c, 7, 71, 80
10, 40607, Note_on_c, 7, 71, 0
10, 40620, Note_on_c, 7, 67, 80
10, 40667, Note_on_c, 7, 67, 0
10, 40680, Note_on_c, 7, 66, 90
10, 40727, Note_on_c, 7, 66, 0
10, 40740, Note_on_c, 7, 71, 80
10, 40787, Note_on_c, 7, 71, 0
10, 40800, Note_on_c, 7, 66, 80
10, 40847, Note_on_c, 7, 66, 0
10, 40860, Note_on_c, 7, 67, 90
10, 40907, Note_on_c, 7, 67, 0
10, 40920, Note_on_c, 7, 69, 80
10, 40967, Note_on_c, 7, 69, 0
10, 40980, Note_on_c, 7, 71, 80
10, 41027, Note_on_c, 7, 71, 0
10, 41040, Note_on_c, 7, 69, 90
10, 41087, Note_on_c, 7, 69, 0
10, 41100, Note_on_c, 7, 74, 80
10, 41147, Note_on_c, 7, 74, 0
10, 41160, Note_on_c, 7, 69, 80
10, 41207, Note_on_c, 7, 69, 0
10, 41220, Note_on_c, 7, 64, 90
10, 41267, Note_on_c, 7, 64, 0
10, 41280, Note_on_c, 7, 64, 80
10, 41327, Note_on_c, 7, 64, 0
10, 41340, Note_on_c, 7, 64, 80
10, 41387, Note_on_c, 7, 64, 0
10, 41400, Note_on_c, 7, 64, 90
10, 41447, Note_on_c, 7, 64, 0
10, 41460, Note_on_c, 7, 64, 80
10, 41507, Note_on_c, 7, 64, 0
10, 41520, Note_on_c, 7, 61, 80
10, 41567, Note_on_c, 7, 61, 0
10, 41580, Note_on_c, 7, 61, 90
10, 41627, Note_on_c, 7, 61, 0
10, 41640, Note_on_c, 7, 66, 80
10, 41687, Note_on_c, 7, 66, 0
10, 41700, Note_on_c, 7, 66, 80
10, 41747, Note_on_c, 7, 66, 0
10, 41760, Note_on_c, 7, 66, 90
10, 41807, Note_on_c, 7, 66, 0
10, 41820, Note_on_c, 7, 66, 80
10, 41867, Note_on_c, 7, 66, 0
10, 41880, Note_on_c, 7, 62, 80
10, 41927, Note_on_c, 7, 62, 0
10, 41940, Note_on_c, 7, 62, 90
10, 41987, Note_on_c, 7, 62, 0
10, 42000, Note_on_c, 7, 67, 80
10, 42047, Note_on_c, 7, 67, 0
10, 42060, Note_on_c, 7, 62, 80
10, 42107, Note_on_c, 7, 62, 0
10, 42120, Note_on_c, 7, 64, 90
10, 42167, Note_on_c, 7, 64, 0
10, 42180, Note_on_c, 7, 64, 80
10, 42227, Note_on_c, 7, 64, 0
10, 42240, Note_on_c, 7, 64, 80
10, 42287, Note_on_c, 7, 64, 0
10, 42300, Note_on_c, 7, 69, 90
10, 42347, Note_on_c, 7, 69, 0
10, 42360, Note_on_c, 7, 62, 80
10, 42407, Note_on_c, 7, 62, 0
10, 42420, Note_on_c, 7, 69, 80
10, 42467, Note_on_c, 7, 69, 0
10, 42510, Note_on_c, 7, 62, 70
10, 42533, Note_on_c, 7, 62, 0
10, 42540, Note_on_c, 7, 62, 70
10, 42563, Note_on_c, 7, 62, 0
10, 42570, Note_on_c, 7, 62, 70
10, 42593, Note_on_c, 7, 62, 0
10, 42600, Note_on_c, 7, 62, 70
10, 42623, Note_on_c, 7, 62, 0
10, 42630, Note_on_c, 7, 62, 70
10, 42653, Note_on_c, 7, 62, 0
10, 42660, Note_on_c, 7, 65, 70
10, 42683, Note_on_c, 7, 65, 0
10, 42690, Note_on_c, 7, 65, 70
10, 42713, Note_on_c, 7, 65, 0
10, 42720, Note_on_c, 7, 65, 70
10, 42743, Note_on_c, 7, 65, 0
10, 42750, Note_on_c, 7, 65, 70
10, 42773, Note_on_c, 7, 65, 0
10, 42780, Note_on_c, 7, 65, 70
10, 42803, Note_on_c, 7, 65, 0
10, 42810, Note_on_c, 7, 65, 70
10, 42833, Note_on_c, 7, 65, 0
10, 42840, Note_on_c, 7, 65, 70
10, 42863, Note_on_c, 7, 65, 0
10, 42870, Note_on_c, 7, 62, 70
10, 42893, Note_on_c, 7, 62, 0
10, 42900, Note_on_c, 7, 59, 70
10, 42923, Note_on_c, 7, 59, 0
10, 42930, Note_on_c, 7, 59, 70
10, 42953, Note_on_c, 7, 59, 0
10, 42960, Note_on_c, 7, 64, 80
10, 42983, Note_on_c, 7, 64, 0
10, 42990, Note_on_c, 7, 64, 80
10, 43013, Note_on_c, 7, 64, 0
10, 43020, Note_on_c, 7, 69, 90
10, 43067, Note_on_c, 7, 69, 0
10, 43080, Note_on_c, 7, 62, 80
10, 43127, Note_on_c, 7, 62, 0
10, 43140, Note_on_c, 7, 69, 80
10, 43187, Note_on_c, 7, 69, 0
10, 43200, Note_on_c, 7, 69, 90
10, 43295, Note_on_c, 7, 69, 0
10, 48840, Note_on_c, 7, 71, 60
10, 49079, Note_on_c, 7, 71, 0
10, 49080, Note_on_c, 7, 67, 60
10, 49439, Note_on_c, 7, 67, 0
10, 49440, Note_on_c, 7, 61, 60
10, 49559, Note_on_c, 7, 61, 0
10, 49560, Note_on_c, 7, 62, 60
10, 50040, Note_on_c, 7, 62, 0
10, 50040, Note_on_c, 7, 54, 60
10, 50280, Note_on_c, 7, 54, 0
10, 50280, Note_on_c, 7, 59, 60
10, 50760, Note_on_c, 7, 59, 0
10, 50760, Note_on_c, 7, 64, 60
10, 51120, Note_on_c, 7, 64, 0
10, 51120, Note_on_c, 7, 65, 60
10, 51239, Note_on_c, 7, 65, 0
10, 51240, Note_on_c, 7, 66, 60
10, 51480, Note_on_c, 7, 66, 0
10, 51600, Note_on_c, 7, 68, 60
10, 51719, Note_on_c, 7, 68, 0
10, 51720, Note_on_c, 7, 69, 60
10, 52560, Note_on_c, 7, 69, 0
10, 52560, Note_on_c, 7, 61, 60
10, 52680, Note_on_c, 7, 61, 0
10, 52680, Note_on_c, 7, 66, 60
10, 53280, Note_on_c, 7, 66, 0
10, 53280, Note_on_c, 7, 61, 60
10, 53400, Note_on_c, 7, 61, 0
10, 53400, Note_on_c, 7, 62, 60
10, 53640, Note_on_c, 7, 62, 0
10, 53640, Note_on_c, 7, 64, 60
10, 53700, Note_on_c, 7, 64, 0
10, 53700, Note_on_c, 7, 61, 60
10, 53760, Note_on_c, 7, 61, 0
10, 53760, Note_on_c, 7, 59, 60
10, 53820, Note_on_c, 7, 59, 0
10, 53820, Note_on_c, 7, 64, 60
10, 53880, Note_on_c, 7, 64, 0
10, 53880, Note_on_c, 7, 64, 60
10, 54120, Note_on_c, 7, 64, 0
10, 54360, Note_on_c, 7, 64, 64
10, 54419, Note_on_c, 7, 64, 0
10, 54420, Note_on_c, 7, 64, 64
10, 54479, Note_on_c, 7, 64, 0
10, 54480, Note_on_c, 7, 64, 64
10, 54539, Note_on_c, 7, 64, 0
10, 54540, Note_on_c, 7, 64, 64
10, 54599, Note_on_c, 7, 64, 0
10, 54600, Note_on_c, 7, 62, 64
10, 54659, Note_on_c, 7, 62, 0
10, 54720, Note_on_c, 7, 64, 64
10, 54779, Note_on_c, 7, 64, 0
10, 54840, Note_on_c, 7, 66, 64
10, 54899, Note_on_c, 7, 66, 0
10, 54900, Note_on_c, 7, 64, 64
10, 55019, Note_on_c, 7, 64, 0
10, 55020, Note_on_c, 7, 62, 64
10, 55049, Note_on_c, 7, 62, 0
10, 55050, Note_on_c, 7, 64, 64
10, 55079, Note_on_c, 7, 64, 0
10, 55080, Note_on_c, 7, 66, 64
10, 55139, Note_on_c, 7, 66, 0
10, 55140, Note_on_c, 7, 62, 64
10, 55199, Note_on_c, 7, 62, 0
10, 55200, Note_on_c, 7, 64, 64
10, 55259, Note_on_c, 7, 64, 0
10, 55260, Note_on_c, 7, 69, 64
10, 55289, Note_on_c, 7, 69, 0
10, 55290, Note_on_c, 7, 71, 64
10, 55319, Note_on_c, 7, 71, 0
10, 55320, Note_on_c, 7, 73, 64
10, 55379, Note_on_c, 7, 73, 0
10, 55380, Note_on_c, 7, 71, 64
10, 55439, Note_on_c, 7, 71, 0
10, 55440, Note_on_c, 7, 64, 64
10, 55499, Note_on_c, 7, 64, 0
10, 55500, Note_on_c, 7, 66, 64
10, 55559, Note_on_c, 7, 66, 0
10, 55560, Note_on_c, 7, 64, 64
10, 55799, Note_on_c, 7, 64, 0
10, 55800, Note_on_c, 7, 64, 52
10, 55859, Note_on_c, 7, 64, 0
10, 55860, Note_on_c, 7, 64, 52
10, 55919, Note_on_c, 7, 64, 0
10, 55920, Note_on_c, 7, 64, 52
10, 55979, Note_on_c, 7, 64, 0
10, 55980, Note_on_c, 7, 64, 52
10, 56039, Note_on_c, 7, 64, 0
10, 56040, Note_on_c, 7, 62, 52
10, 56099, Note_on_c, 7, 62, 0
10, 56160, Note_on_c, 7, 64, 52
10, 56219, Note_on_c, 7, 64, 0
10, 56280, Note_on_c, 7, 66, 52
10, 56339, Note_on_c, 7, 66, 0
10, 56340, Note_on_c, 7, 64, 52
10, 56459, Note_on_c, 7, 64, 0
10, 56460, Note_on_c, 7, 62, 52
10, 56489, Note_on_c, 7, 62, 0
10, 56490, Note_on_c, 7, 64, 52
10, 56519, Note_on_c, 7, 64, 0
10, 56520, Note_on_c, 7, 66, 52
10, 56579, Note_on_c, 7, 66, 0
10, 56580, Note_on_c, 7, 62, 52
10, 56639, Note_on_c, 7, 62, 0
10, 56640, Note_on_c, 7, 64, 52
10, 56699, Note_on_c, 7, 64, 0
10, 56700, Note_on_c, 7, 69, 52
10, 56729, Note_on_c, 7, 69, 0
10, 56730, Note_on_c, 7, 71, 52
10, 56759, Note_on_c, 7, 71, 0
10, 56760, Note_on_c, 7, 73, 52
10, 56819, Note_on_c, 7, 73, 0
10, 56820, Note_on_c, 7, 71, 52
10, 56879, Note_on_c, 7, 71, 0
10, 56880, Note_on_c, 7, 64, 52
10, 56939, Note_on_c, 7, 64, 0
10, 56940, Note_on_c, 7, 66, 52
10, 56999, Note_on_c, 7, 66, 0
10, 57000, Note_on_c, 7, 64, 52
10, 57179, Note_on_c, 7, 64, 0
10, 57180, Note_on_c, 7, 71, 52
10, 57240, Note_on_c, 7, 71, 0
10, 57240, Note_on_c, 7, 69, 64
10, 57300, Note_on_c, 7, 69, 0
10, 57300, Note_on_c, 7, 66, 64
10, 57360, Note_on_c, 7, 66, 0
10, 57360, Note_on_c, 7, 64, 64
10, 57450, Note_on_c, 7, 64, 0
10, 57450, Note_on_c, 7, 66, 64
10, 57479, Note_on_c, 7, 66, 0
10, 57480, Note_on_c, 7, 67, 64
10, 57509, Note_on_c, 7, 67, 0
10, 57510, Note_on_c, 7, 66, 64
10, 57539, Note_on_c, 7, 66, 0
10, 57540, Note_on_c, 7, 64, 64
10, 57569, Note_on_c, 7, 64, 0
10, 57570, Note_on_c, 7, 62, 64
10, 57599, Note_on_c, 7, 62, 0
10, 57600, Note_on_c, 7, 61, 64
10, 57719, Note_on_c, 7, 61, 0
10, 57720, Note_on_c, 7, 59, 64
10, 57899, Note_on_c, 7, 59, 0
10, 57900, Note_on_c, 7, 57, 64
10, 57929, Note_on_c, 7, 57, 0
10, 57930, Note_on_c, 7, 56, 64
10, 57959, Note_on_c, 7, 56, 0
10, 57960, Note_on_c, 7, 54, 64
10, 58019, Note_on_c, 7, 54, 0
10, 58020, Note_on_c, 7, 59, 64
10, 58079, Note_on_c, 7, 59, 0
10, 58080, Note_on_c, 7, 61, 64
10, 58139, Note_on_c, 7, 61, 0
10, 58140, Note_on_c, 7, 54, 64
10, 58199, Note_on_c, 7, 54, 0
10, 58200, Note_on_c, 7, 52, 64
10, 58229, Note_on_c, 7, 52, 0
10, 58230, Note_on_c, 7, 54, 64
10, 58259, Note_on_c, 7, 54, 0
10, 58260, Note_on_c, 7, 56, 64
10, 58289, Note_on_c, 7, 56, 0
10, 58290, Note_on_c, 7, 52, 64
10, 58319, Note_on_c, 7, 52, 0
10, 58320, Note_on_c, 7, 57, 64
10, 58379, Note_on_c, 7, 57, 0
10, 58380, Note_on_c, 7, 54, 64
10, 58439, Note_on_c, 7, 54, 0
10, 58440, Note_on_c, 7, 56, 64
10, 58679, Note_on_c, 7, 56, 0
10, 58680, Note_on_c, 7, 64, 64
10, 58739, Note_on_c, 7, 64, 0
10, 58740, Note_on_c, 7, 62, 64
10, 58799, Note_on_c, 7, 62, 0
10, 58800, Note_on_c, 7, 64, 64
10, 58859, Note_on_c, 7, 64, 0
10, 58920, Note_on_c, 7, 62, 64
10, 58979, Note_on_c, 7, 62, 0
10, 59040, Note_on_c, 7, 64, 64
10, 59099, Note_on_c, 7, 64, 0
10, 59280, Note_on_c, 7, 61, 64
10, 59339, Note_on_c, 7, 61, 0
10, 59340, Note_on_c, 7, 62, 64
10, 59369, Note_on_c, 7, 62, 0
10, 59370, Note_on_c, 7, 64, 64
10, 59399, Note_on_c, 7, 64, 0
10, 59400, Note_on_c, 7, 66, 64
10, 59429, Note_on_c, 7, 66, 0
10, 59430, Note_on_c, 7, 64, 64
10, 59459, Note_on_c, 7, 64, 0
10, 59460, Note_on_c, 7, 62, 64
10, 59489, Note_on_c, 7, 62, 0
10, 59490, Note_on_c, 7, 61, 64
10, 59519, Note_on_c, 7, 61, 0
10, 59520, Note_on_c, 7, 59, 64
10, 59579, Note_on_c, 7, 59, 0
10, 59580, Note_on_c, 7, 57, 64
10, 59639, Note_on_c, 7, 57, 0
10, 59640, Note_on_c, 7, 54, 64
10, 59699, Note_on_c, 7, 54, 0
10, 59700, Note_on_c, 7, 59, 64
10, 59759, Note_on_c, 7, 59, 0
10, 59760, Note_on_c, 7, 52, 64
10, 59819, Note_on_c, 7, 52, 0
10, 59820, Note_on_c, 7, 59, 64
10, 59879, Note_on_c, 7, 59, 0
10, 59880, Note_on_c, 7, 59, 64
10, 60119, Note_on_c, 7, 59, 0
10, 60120, Note_on_c, 7, 57, 52
10, 60179, Note_on_c, 7, 57, 0
10, 60180, Note_on_c, 7, 64, 52
10, 60239, Note_on_c, 7, 64, 0
10, 60240, Note_on_c, 7, 64, 52
10, 60299, Note_on_c, 7, 64, 0
10, 60300, Note_on_c, 7, 64, 52
10, 60359, Note_on_c, 7, 64, 0
10, 60360, Note_on_c, 7, 62, 52
10, 60419, Note_on_c, 7, 62, 0
10, 60420, Note_on_c, 7, 62, 52
10, 60479, Note_on_c, 7, 62, 0
10, 60480, Note_on_c, 7, 64, 52
10, 60539, Note_on_c, 7, 64, 0
10, 60540, Note_on_c, 7, 66, 52
10, 60599, Note_on_c, 7, 66, 0
10, 60600, Note_on_c, 7, 66, 52
10, 60659, Note_on_c, 7, 66, 0
10, 60660, Note_on_c, 7, 64, 52
10, 60779, Note_on_c, 7, 64, 0
10, 60780, Note_on_c, 7, 62, 52
10, 60809, Note_on_c, 7, 62, 0
10, 60810, Note_on_c, 7, 64, 52
10, 60839, Note_on_c, 7, 64, 0
10, 60840, Note_on_c, 7, 66, 52
10, 60899, Note_on_c, 7, 66, 0
10, 60900, Note_on_c, 7, 62, 52
10, 60959, Note_on_c, 7, 62, 0
10, 60960, Note_on_c, 7, 64, 52
10, 61019, Note_on_c, 7, 64, 0
10, 61020, Note_on_c, 7, 69, 52
10, 61049, Note_on_c, 7, 69, 0
10, 61050, Note_on_c, 7, 71, 52
10, 61079, Note_on_c, 7, 71, 0
10, 61080, Note_on_c, 7, 73, 52
10, 61139, Note_on_c, 7, 73, 0
10, 61140, Note_on_c, 7, 71, 52
10, 61199, Note_on_c, 7, 71, 0
10, 61200, Note_on_c, 7, 64, 52
10, 61259, Note_on_c, 7, 64, 0
10, 61260, Note_on_c, 7, 66, 52
10, 61319, Note_on_c, 7, 66, 0
10, 61320, Note_on_c, 7, 64, 52
10, 61499, Note_on_c, 7, 64, 0
10, 61500, Note_on_c, 7, 71, 52
10, 61559, Note_on_c, 7, 71, 0
10, 61560, Note_on_c, 7, 69, 52
10, 61619, Note_on_c, 7, 69, 0
10, 61620, Note_on_c, 7, 66, 52
10, 61679, Note_on_c, 7, 66, 0
10, 61680, Note_on_c, 7, 64, 52
10, 61739, Note_on_c, 7, 64, 0
10, 61740, Note_on_c, 7, 67, 52
10, 61799, Note_on_c, 7, 67, 0
10, 61800, Note_on_c, 7, 67, 52
10, 61859, Note_on_c, 7, 67, 0
10, 61860, Note_on_c, 7, 64, 52
10, 61919, Note_on_c, 7, 64, 0
10, 61920, Note_on_c, 7, 61, 52
10, 61979, Note_on_c, 7, 61, 0
10, 61980, Note_on_c, 7, 61, 52
10, 62039, Note_on_c, 7, 61, 0
10, 62040, Note_on_c, 7, 59, 52
10, 62099, Note_on_c, 7, 59, 0
10, 62100, Note_on_c, 7, 59, 52
10, 62159, Note_on_c, 7, 59, 0
10, 62160, Note_on_c, 7, 60, 52
10, 62189, Note_on_c, 7, 60, 0
10, 62190, Note_on_c, 7, 59, 52
10, 62219, Note_on_c, 7, 59, 0
10, 62220, Note_on_c, 7, 57, 52
10, 62249, Note_on_c, 7, 57, 0
10, 62250, Note_on_c, 7, 55, 52
10, 62279, Note_on_c, 7, 55, 0
10, 62280, Note_on_c, 7, 54, 52
10, 62339, Note_on_c, 7, 54, 0
10, 62340, Note_on_c, 7, 59, 52
10, 62399, Note_on_c, 7, 59, 0
10, 62400, Note_on_c, 7, 61, 52
10, 62459, Note_on_c, 7, 61, 0
10, 62460, Note_on_c, 7, 54, 52
10, 62519, Note_on_c, 7, 54, 0
10, 62520, Note_on_c, 7, 52, 52
10, 62549, Note_on_c, 7, 52, 0
10, 62550, Note_on_c, 7, 54, 52
10, 62579, Note_on_c, 7, 54, 0
10, 62580, Note_on_c, 7, 56, 52
10, 62609, Note_on_c, 7, 56, 0
10, 62610, Note_on_c, 7, 52, 52
10, 62639, Note_on_c, 7, 52, 0
10, 62640, Note_on_c, 7, 57, 52
10, 62699, Note_on_c, 7, 57, 0
10, 62700, Note_on_c, 7, 54, 52
10, 62759, Note_on_c, 7, 54, 0
10, 62760, Note_on_c, 7, 56, 52
10, 62999, Note_on_c, 7, 56, 0
10, 63000, Note_on_c, 7, 64, 72
10, 63059, Note_on_c, 7, 64, 0
10, 63060, Note_on_c, 7, 59, 72
10, 63149, Note_on_c, 7, 59, 0
10, 63150, Note_on_c, 7, 58, 72
10, 63179, Note_on_c, 7, 58, 0
10, 63180, Note_on_c, 7, 59, 72
10, 63239, Note_on_c, 7, 59, 0
10, 63240, Note_on_c, 7, 58, 72
10, 63299, Note_on_c, 7, 58, 0
10, 63300, Note_on_c, 7, 66, 72
10, 63419, Note_on_c, 7, 66, 0
10, 63420, Note_on_c, 7, 64, 72
10, 63479, Note_on_c, 7, 64, 0
10, 63480, Note_on_c, 7, 62, 72
10, 63539, Note_on_c, 7, 62, 0
10, 63540, Note_on_c, 7, 61, 72
10, 63599, Note_on_c, 7, 61, 0
10, 63600, Note_on_c, 7, 59, 72
10, 63659, Note_on_c, 7, 59, 0
10, 63660, Note_on_c, 7, 66, 72
10, 63719, Note_on_c, 7, 66, 0
10, 63720, Note_on_c, 7, 68, 72
10, 63779, Note_on_c, 7, 68, 0
10, 63780, Note_on_c, 7, 61, 72
10, 63839, Note_on_c, 7, 61, 0
10, 63840, Note_on_c, 7, 61, 72
10, 63899, Note_on_c, 7, 61, 0
10, 63900, Note_on_c, 7, 57, 72
10, 63959, Note_on_c, 7, 57, 0
10, 63960, Note_on_c, 7, 69, 72
10, 64019, Note_on_c, 7, 69, 0
10, 64080, Note_on_c, 7, 71, 72
10, 64139, Note_on_c, 7, 71, 0
10, 64200, Note_on_c, 7, 68, 72
10, 64259, Note_on_c, 7, 68, 0
10, 64260, Note_on_c, 7, 61, 72
10, 64319, Note_on_c, 7, 61, 0
10, 64320, Note_on_c, 7, 66, 72
10, 64379, Note_on_c, 7, 66, 0
10, 64380, Note_on_c, 7, 61, 72
10, 64439, Note_on_c, 7, 61, 0
10, 64440, Note_on_c, 7, 59, 72
10, 64499, Note_on_c, 7, 59, 0
10, 64500, Note_on_c, 7, 66, 72
10, 64619, Note_on_c, 7, 66, 0
10, 64620, Note_on_c, 7, 71, 72
10, 64649, Note_on_c, 7, 71, 0
10, 64650, Note_on_c, 7, 69, 72
10, 64679, Note_on_c, 7, 69, 0
10, 64680, Note_on_c, 7, 68, 72
10, 64739, Note_on_c, 7, 68, 0
10, 64740, Note_on_c, 7, 66, 72
10, 64799, Note_on_c, 7, 66, 0
10, 64800, Note_on_c, 7, 61, 72
10, 64859, Note_on_c, 7, 61, 0
10, 64860, Note_on_c, 7, 62, 72
10, 64979, Note_on_c, 7, 62, 0
10, 64980, Note_on_c, 7, 61, 72
10, 65009, Note_on_c, 7, 61, 0
10, 65010, Note_on_c, 7, 59, 72
10, 65039, Note_on_c, 7, 59, 0
10, 65040, Note_on_c, 7, 61, 72
10, 65099, Note_on_c, 7, 61, 0
10, 65100, Note_on_c, 7, 62, 72
10, 65219, Note_on_c, 7, 62, 0
10, 65220, Note_on_c, 7, 56, 72
10, 65279, Note_on_c, 7, 56, 0
10, 65280, Note_on_c, 7, 61, 72
10, 65339, Note_on_c, 7, 61, 0
10, 65340, Note_on_c, 7, 57, 72
10, 65399, Note_on_c, 7, 57, 0
10, 65400, Note_on_c, 7, 59, 72
10, 65459, Note_on_c, 7, 59, 0
10, 65460, Note_on_c, 7, 62, 72
10, 65519, Note_on_c, 7, 62, 0
10, 65520, Note_on_c, 7, 61, 72
10, 65579, Note_on_c, 7, 61, 0
10, 65580, Note_on_c, 7, 59, 72
10, 65639, Note_on_c, 7, 59, 0
10, 65640, Note_on_c, 7, 57, 72
10, 65819, Note_on_c, 7, 57, 0
10, 65820, Note_on_c, 7, 56, 72
10, 65879, Note_on_c, 7, 56, 0
10, 65880, Note_on_c, 7, 61, 72
10, 65939, Note_on_c, 7, 61, 0
10, 65940, Note_on_c, 7, 59, 72
10, 65999, Note_on_c, 7, 59, 0
10, 66000, Note_on_c, 7, 57, 72
10, 66179, Note_on_c, 7, 57, 0
10, 66180, Note_on_c, 7, 64, 72
10, 66239, Note_on_c, 7, 64, 0
10, 66240, Note_on_c, 7, 57, 72
10, 66299, Note_on_c, 7, 57, 0
10, 66300, Note_on_c, 7, 69, 72
10, 66389, Note_on_c, 7, 69, 0
10, 66390, Note_on_c, 7, 67, 72
10, 66419, Note_on_c, 7, 67, 0
10, 66420, Note_on_c, 7, 66, 72
10, 66449, Note_on_c, 7, 66, 0
10, 66450, Note_on_c, 7, 64, 72
10, 66479, Note_on_c, 7, 64, 0
10, 66480, Note_on_c, 7, 62, 72
10, 66539, Note_on_c, 7, 62, 0
10, 66540, Note_on_c, 7, 66, 72
10, 66599, Note_on_c, 7, 66, 0
10, 66600, Note_on_c, 7, 64, 72
10, 66779, Note_on_c, 7, 64, 0
10, 66780, Note_on_c, 7, 64, 72
10, 66839, Note_on_c, 7, 64, 0
10, 66840, Note_on_c, 7, 61, 72
10, 66899, Note_on_c, 7, 61, 0
10, 66900, Note_on_c, 7, 57, 72
10, 66959, Note_on_c, 7, 57, 0
10, 66960, Note_on_c, 7, 66, 72
10, 67019, Note_on_c, 7, 66, 0
10, 67020, Note_on_c, 7, 54, 72
10, 67079, Note_on_c, 7, 54, 0
10, 67080, Note_on_c, 7, 59, 72
10, 67259, Note_on_c, 7, 59, 0
10, 67260, Note_on_c, 7, 62, 72
10, 67319, Note_on_c, 7, 62, 0
10, 67320, Note_on_c, 7, 61, 72
10, 67379, Note_on_c, 7, 61, 0
10, 67380, Note_on_c, 7, 64, 72
10, 67439, Note_on_c, 7, 64, 0
10, 67440, Note_on_c, 7, 62, 72
10, 67619, Note_on_c, 7, 62, 0
10, 67620, Note_on_c, 7, 61, 72
10, 67649, Note_on_c, 7, 61, 0
10, 67650, Note_on_c, 7, 59, 72
10, 67679, Note_on_c, 7, 59, 0
10, 67680, Note_on_c, 7, 64, 72
10, 67859, Note_on_c, 7, 64, 0
10, 67860, Note_on_c, 7, 62, 72
10, 67889, Note_on_c, 7, 62, 0
10, 67890, Note_on_c, 7, 61, 72
10, 67919, Note_on_c, 7, 61, 0
10, 67920, Note_on_c, 7, 59, 72
10, 67979, Note_on_c, 7, 59, 0
10, 67980, Note_on_c, 7, 64, 72
10, 68099, Note_on_c, 7, 64, 0
10, 68100, Note_on_c, 7, 66, 72
10, 68159, Note_on_c, 7, 66, 0
10, 68160, Note_on_c, 7, 59, 72
10, 68219, Note_on_c, 7, 59, 0
10, 68220, Note_on_c, 7, 52, 72
10, 68279, Note_on_c, 7, 52, 0
10, 68280, Note_on_c, 7, 64, 72
10, 68339, Note_on_c, 7, 64, 0
10, 68340, Note_on_c, 7, 64, 72
10, 68429, Note_on_c, 7, 64, 0
10, 68430, Note_on_c, 7, 61, 72
10, 68459, Note_on_c, 7, 61, 0
10, 68460, Note_on_c, 7, 62, 72
10, 68519, Note_on_c, 7, 62, 0
10, 68520, Note_on_c, 7, 61, 72
10, 68699, Note_on_c, 7, 61, 0
10, 68700, Note_on_c, 7, 63, 72
10, 68759, Note_on_c, 7, 63, 0
10, 68760, Note_on_c, 7, 64, 72
10, 68819, Note_on_c, 7, 64, 0
10, 68880, Note_on_c, 7, 64, 48
10, 68939, Note_on_c, 7, 64, 0
10, 69000, Note_on_c, 7, 64, 48
10, 69059, Note_on_c, 7, 64, 0
10, 69120, Note_on_c, 7, 61, 48
10, 69179, Note_on_c, 7, 61, 0
10, 69240, Note_on_c, 7, 59, 48
10, 69299, Note_on_c, 7, 59, 0
10, 69300, Note_on_c, 7, 71, 48
10, 69419, Note_on_c, 7, 71, 0
10, 69420, Note_on_c, 7, 69, 48
10, 69479, Note_on_c, 7, 69, 0
10, 69480, Note_on_c, 7, 68, 48
10, 69539, Note_on_c, 7, 68, 0
10, 69540, Note_on_c, 7, 66, 48
10, 69599, Note_on_c, 7, 66, 0
10, 69600, Note_on_c, 7, 65, 48
10, 69629, Note_on_c, 7, 65, 0
10, 69630, Note_on_c, 7, 63, 48
10, 69659, Note_on_c, 7, 63, 0
10, 69660, Note_on_c, 7, 65, 48
10, 69689, Note_on_c, 7, 65, 0
10, 69690, Note_on_c, 7, 66, 48
10, 69719, Note_on_c, 7, 66, 0
10, 69720, Note_on_c, 7, 68, 48
10, 69779, Note_on_c, 7, 68, 0
10, 69840, Note_on_c, 7, 62, 48
10, 69899, Note_on_c, 7, 62, 0
10, 69960, Note_on_c, 7, 56, 48
10, 70259, Note_on_c, 7, 56, 0
10, 70260, Note_on_c, 7, 61, 48
10, 70379, Note_on_c, 7, 61, 0
10, 70380, Note_on_c, 7, 57, 48
10, 70439, Note_on_c, 7, 57, 0
10, 70440, Note_on_c, 7, 69, 48
10, 70499, Note_on_c, 7, 69, 0
10, 70560, Note_on_c, 7, 71, 48
10, 70619, Note_on_c, 7, 71, 0
10, 70680, Note_on_c, 7, 68, 48
10, 70739, Note_on_c, 7, 68, 0
10, 70800, Note_on_c, 7, 71, 48
10, 70859, Note_on_c, 7, 71, 0
10, 70920, Note_on_c, 7, 61, 48
10, 70979, Note_on_c, 7, 61, 0
10, 71040, Note_on_c, 7, 66, 48
10, 71099, Note_on_c, 7, 66, 0
10, 71100, Note_on_c, 7, 66, 48
10, 71129, Note_on_c, 7, 66, 0
10, 71130, Note_on_c, 7, 67, 48
10, 71159, Note_on_c, 7, 67, 0
10, 71160, Note_on_c, 7, 66, 48
10, 71219, Note_on_c, 7, 66, 0
10, 71220, Note_on_c, 7, 66, 48
10, 71279, Note_on_c, 7, 66, 0
10, 71280, Note_on_c, 7, 66, 48
10, 71339, Note_on_c, 7, 66, 0
10, 71340, Note_on_c, 7, 66, 48
10, 71399, Note_on_c, 7, 66, 0
10, 71400, Note_on_c, 7, 66, 48
10, 71459, Note_on_c, 7, 66, 0
10, 71520, Note_on_c, 7, 68, 48
10, 71579, Note_on_c, 7, 68, 0
10, 71640, Note_on_c, 7, 71, 48
10, 71699, Note_on_c, 7, 71, 0
10, 71760, Note_on_c, 7, 62, 48
10, 71819, Note_on_c, 7, 62, 0
10, 71820, Note_on_c, 7, 66, 48
10, 71879, Note_on_c, 7, 66, 0
10, 71880, Note_on_c, 7, 63, 48
10, 71939, Note_on_c, 7, 63, 0
10, 71940, Note_on_c, 7, 68, 48
10, 71999, Note_on_c, 7, 68, 0
10, 72000, Note_on_c, 7, 71, 48
10, 72059, Note_on_c, 7, 71, 0
10, 72060, Note_on_c, 7, 71, 48
10, 72119, Note_on_c, 7, 71, 0
10, 72120, Note_on_c, 7, 73, 48
10, 72179, Note_on_c, 7, 73, 0
10, 72180, Note_on_c, 7, 61, 48
10, 72209, Note_on_c, 7, 61, 0
10, 72210, Note_on_c, 7, 59, 48
10, 72239, Note_on_c, 7, 59, 0
10, 72240, Note_on_c, 7, 61, 48
10, 72299, Note_on_c, 7, 61, 0
10, 72300, Note_on_c, 7, 62, 48
10, 72419, Note_on_c, 7, 62, 0
10, 72420, Note_on_c, 7, 56, 48
10, 72479, Note_on_c, 7, 56, 0
10, 72480, Note_on_c, 7, 61, 48
10, 72539, Note_on_c, 7, 61, 0
10, 72540, Note_on_c, 7, 57, 48
10, 72599, Note_on_c, 7, 57, 0
10, 72600, Note_on_c, 7, 59, 48
10, 72659, Note_on_c, 7, 59, 0
10, 72660, Note_on_c, 7, 62, 48
10, 72719, Note_on_c, 7, 62, 0
10, 72720, Note_on_c, 7, 61, 48
10, 72779, Note_on_c, 7, 61, 0
10, 72780, Note_on_c, 7, 59, 48
10, 72839, Note_on_c, 7, 59, 0
10, 72840, Note_on_c, 7, 57, 48
10, 73019, Note_on_c, 7, 57, 0
10, 73020, Note_on_c, 7, 69, 72
10, 73079, Note_on_c, 7, 69, 0
10, 73080, Note_on_c, 7, 68, 72
10, 73139, Note_on_c, 7, 68, 0
10, 73140, Note_on_c, 7, 65, 72
10, 73199, Note_on_c, 7, 65, 0
10, 73200, Note_on_c, 7, 66, 72
10, 73289, Note_on_c, 7, 66, 0
10, 73290, Note_on_c, 7, 68, 72
10, 73319, Note_on_c, 7, 68, 0
10, 73320, Note_on_c, 7, 69, 72
10, 73349, Note_on_c, 7, 69, 0
10, 73350, Note_on_c, 7, 68, 72
10, 73379, Note_on_c, 7, 68, 0
10, 73380, Note_on_c, 7, 66, 72
10, 73409, Note_on_c, 7, 66, 0
10, 73410, Note_on_c, 7, 64, 72
10, 73439, Note_on_c, 7, 64, 0
10, 73440, Note_on_c, 7, 63, 72
10, 73559, Note_on_c, 7, 63, 0
10, 73560, Note_on_c, 7, 61, 72
10, 73589, Note_on_c, 7, 61, 0
10, 73590, Note_on_c, 7, 63, 72
10, 73619, Note_on_c, 7, 63, 0
10, 73620, Note_on_c, 7, 65, 72
10, 73649, Note_on_c, 7, 65, 0
10, 73650, Note_on_c, 7, 66, 72
10, 73679, Note_on_c, 7, 66, 0
10, 73680, Note_on_c, 7, 68, 72
10, 73739, Note_on_c, 7, 68, 0
10, 73740, Note_on_c, 7, 73, 72
10, 73799, Note_on_c, 7, 73, 0
10, 73800, Note_on_c, 7, 66, 72
10, 73859, Note_on_c, 7, 66, 0
10, 73860, Note_on_c, 7, 65, 72
10, 73919, Note_on_c, 7, 65, 0
10, 73920, Note_on_c, 7, 61, 72
10, 73979, Note_on_c, 7, 61, 0
10, 73980, Note_on_c, 7, 65, 72
10, 74039, Note_on_c, 7, 65, 0
10, 74040, Note_on_c, 7, 66, 72
10, 74099, Note_on_c, 7, 66, 0
10, 74100, Note_on_c, 7, 68, 72
10, 74159, Note_on_c, 7, 68, 0
10, 74160, Note_on_c, 7, 69, 72
10, 74219, Note_on_c, 7, 69, 0
10, 74220, Note_on_c, 7, 73, 72
10, 74279, Note_on_c, 7, 73, 0
10, 74280, Note_on_c, 7, 61, 72
10, 74339, Note_on_c, 7, 61, 0
10, 74340, Note_on_c, 7, 57, 72
10, 74399, Note_on_c, 7, 57, 0
10, 74400, Note_on_c, 7, 61, 72
10, 74459, Note_on_c, 7, 61, 0
10, 74460, Note_on_c, 7, 61, 72
10, 74519, Note_on_c, 7, 61, 0
10, 74520, Note_on_c, 7, 61, 72
10, 74579, Note_on_c, 7, 61, 0
10, 74640, Note_on_c, 7, 66, 52
10, 74699, Note_on_c, 7, 66, 0
10, 74760, Note_on_c, 7, 64, 52
10, 74819, Note_on_c, 7, 64, 0
10, 74880, Note_on_c, 7, 64, 52
10, 74939, Note_on_c, 7, 64, 0
10, 75000, Note_on_c, 7, 62, 52
10, 75059, Note_on_c, 7, 62, 0
10, 75060, Note_on_c, 7, 71, 52
10, 75119, Note_on_c, 7, 71, 0
10, 75120, Note_on_c, 7, 66, 52
10, 75179, Note_on_c, 7, 66, 0
10, 75180, Note_on_c, 7, 64, 52
10, 75239, Note_on_c, 7, 64, 0
10, 75240, Note_on_c, 7, 62, 52
10, 75299, Note_on_c, 7, 62, 0
10, 75360, Note_on_c, 7, 64, 52
10, 75419, Note_on_c, 7, 64, 0
10, 75480, Note_on_c, 7, 61, 52
10, 75539, Note_on_c, 7, 61, 0
10, 75600, Note_on_c, 7, 57, 52
10, 75659, Note_on_c, 7, 57, 0
10, 75660, Note_on_c, 7, 66, 52
10, 75749, Note_on_c, 7, 66, 0
10, 75750, Note_on_c, 7, 64, 52
10, 75779, Note_on_c, 7, 64, 0
10, 75780, Note_on_c, 7, 62, 52
10, 75809, Note_on_c, 7, 62, 0
10, 75810, Note_on_c, 7, 61, 52
10, 75839, Note_on_c, 7, 61, 0
10, 75840, Note_on_c, 7, 59, 52
10, 76019, Note_on_c, 7, 59, 0
10, 76020, Note_on_c, 7, 64, 52
10, 76079, Note_on_c, 7, 64, 0
10, 76080, Note_on_c, 7, 64, 52
10, 76139, Note_on_c, 7, 64, 0
10, 76200, Note_on_c, 7, 66, 52
10, 76259, Note_on_c, 7, 66, 0
10, 76320, Note_on_c, 7, 66, 52
10, 76379, Note_on_c, 7, 66, 0
10, 76440, Note_on_c, 7, 66, 52
10, 76499, Note_on_c, 7, 66, 0
10, 76560, Note_on_c, 7, 68, 52
10, 76619, Note_on_c, 7, 68, 0
10, 76680, Note_on_c, 7, 68, 52
10, 76739, Note_on_c, 7, 68, 0
10, 76800, Note_on_c, 7, 69, 52
10, 76859, Note_on_c, 7, 69, 0
10, 76920, Note_on_c, 7, 71, 52
10, 76979, Note_on_c, 7, 71, 0
10, 77040, Note_on_c, 7, 63, 52
10, 77099, Note_on_c, 7, 63, 0
10, 77160, Note_on_c, 7, 64, 52
10, 77219, Note_on_c, 7, 64, 0
10, 77280, Note_on_c, 7, 63, 52
10, 77339, Note_on_c, 7, 63, 0
10, 77400, Note_on_c, 7, 59, 52
10, 77459, Note_on_c, 7, 59, 0
10, 77520, Note_on_c, 7, 66, 52
10, 77579, Note_on_c, 7, 66, 0
10, 77640, Note_on_c, 7, 65, 52
10, 77699, Note_on_c, 7, 65, 0
10, 77760, Note_on_c, 7, 66, 52
10, 77819, Note_on_c, 7, 66, 0
10, 77880, Note_on_c, 7, 59, 52
10, 77939, Note_on_c, 7, 59, 0
10, 78000, Note_on_c, 7, 56, 52
10, 78059, Note_on_c, 7, 56, 0
10, 78120, Note_on_c, 7, 52, 52
10, 78179, Note_on_c, 7, 52, 0
10, 78180, Note_on_c, 7, 59, 52
10, 78299, Note_on_c, 7, 59, 0
10, 78300, Note_on_c, 7, 52, 52
10, 78359, Note_on_c, 7, 52, 0
10, 78360, Note_on_c, 7, 64, 52
10, 78419, Note_on_c, 7, 64, 0
10, 78420, Note_on_c, 7, 64, 52
10, 78509, Note_on_c, 7, 64, 0
10, 78510, Note_on_c, 7, 61, 52
10, 78539, Note_on_c, 7, 61, 0
10, 78540, Note_on_c, 7, 62, 52
10, 78599, Note_on_c, 7, 62, 0
10, 78600, Note_on_c, 7, 61, 52
10, 78839, Note_on_c, 7, 61, 0
10, 78840, Note_on_c, 7, 64, 64
10, 78899, Note_on_c, 7, 64, 0
10, 78900, Note_on_c, 7, 64, 68
10, 78959, Note_on_c, 7, 64, 0
10, 78960, Note_on_c, 7, 64, 72
10, 79019, Note_on_c, 7, 64, 0
10, 79020, Note_on_c, 7, 64, 72
10, 79079, Note_on_c, 7, 64, 0
10, 79080, Note_on_c, 7, 62, 72
10, 79139, Note_on_c, 7, 62, 0
10, 79200, Note_on_c, 7, 64, 72
10, 79259, Note_on_c, 7, 64, 0
10, 79320, Note_on_c, 7, 66, 72
10, 79379, Note_on_c, 7, 66, 0
10, 79380, Note_on_c, 7, 64, 72
10, 79499, Note_on_c, 7, 64, 0
10, 79500, Note_on_c, 7, 62, 72
10, 79529, Note_on_c, 7, 62, 0
10, 79530, Note_on_c, 7, 64, 72
10, 79559, Note_on_c, 7, 64, 0
10, 79560, Note_on_c, 7, 66, 72
10, 79619, Note_on_c, 7, 66, 0
10, 79620, Note_on_c, 7, 62, 72
10, 79679, Note_on_c, 7, 62, 0
10, 79680, Note_on_c, 7, 64, 72
10, 79739, Note_on_c, 7, 64, 0
10, 79740, Note_on_c, 7, 69, 72
10, 79769, Note_on_c, 7, 69, 0
10, 79770, Note_on_c, 7, 71, 72
10, 79799, Note_on_c, 7, 71, 0
10, 79800, Note_on_c, 7, 73, 72
10, 79859, Note_on_c, 7, 73, 0
10, 79860, Note_on_c, 7, 71, 72
10, 79919, Note_on_c, 7, 71, 0
10, 79920, Note_on_c, 7, 64, 72
10, 79979, Note_on_c, 7, 64, 0
10, 79980, Note_on_c, 7, 66, 72
10, 80039, Note_on_c, 7, 66, 0
10, 80040, Note_on_c, 7, 64, 72
10, 80279, Note_on_c, 7, 64, 0
10, 80280, Note_on_c, 7, 64, 48
10, 80339, Note_on_c, 7, 64, 0
10, 80340, Note_on_c, 7, 64, 48
10, 80399, Note_on_c, 7, 64, 0
10, 80400, Note_on_c, 7, 64, 48
10, 80459, Note_on_c, 7, 64, 0
10, 80460, Note_on_c, 7, 64, 48
10, 80519, Note_on_c, 7, 64, 0
10, 80520, Note_on_c, 7, 62, 48
10, 80579, Note_on_c, 7, 62, 0
10, 80640, Note_on_c, 7, 64, 48
10, 80699, Note_on_c, 7, 64, 0
10, 80760, Note_on_c, 7, 66, 48
10, 80819, Note_on_c, 7, 66, 0
10, 80820, Note_on_c, 7, 64, 48
10, 80939, Note_on_c, 7, 64, 0
10, 80940, Note_on_c, 7, 62, 48
10, 80969, Note_on_c, 7, 62, 0
10, 80970, Note_on_c, 7, 64, 48
10, 80999, Note_on_c, 7, 64, 0
10, 81000, Note_on_c, 7, 66, 48
10, 81059, Note_on_c, 7, 66, 0
10, 81060, Note_on_c, 7, 62, 48
10, 81119, Note_on_c, 7, 62, 0
10, 81120, Note_on_c, 7, 64, 48
10, 81179, Note_on_c, 7, 64, 0
10, 81180, Note_on_c, 7, 69, 48
10, 81209, Note_on_c, 7, 69, 0
10, 81210, Note_on_c, 7, 71, 48
10, 81239, Note_on_c, 7, 71, 0
10, 81240, Note_on_c, 7, 73, 48
10, 81299, Note_on_c, 7, 73, 0
10, 81300, Note_on_c, 7, 71, 48
10, 81359, Note_on_c, 7, 71, 0
10, 81360, Note_on_c, 7, 64, 48
10, 81419, Note_on_c, 7, 64, 0
10, 81420, Note_on_c, 7, 66, 48
10, 81479, Note_on_c, 7, 66, 0
10, 81480, Note_on_c, 7, 64, 48
10, 81659, Note_on_c, 7, 64, 0
10, 81660, Note_on_c, 7, 71, 48
10, 81719, Note_on_c, 7, 71, 0
10, 81720, Note_on_c, 7, 69, 72
10, 81779, Note_on_c, 7, 69, 0
10, 81780, Note_on_c, 7, 66, 72
10, 81839, Note_on_c, 7, 66, 0
10, 81840, Note_on_c, 7, 64, 72
10, 81929, Note_on_c, 7, 64, 0
10, 81930, Note_on_c, 7, 66, 72
10, 81959, Note_on_c, 7, 66, 0
10, 81960, Note_on_c, 7, 67, 72
10, 81989, Note_on_c, 7, 67, 0
10, 81990, Note_on_c, 7, 66, 72
10, 82019, Note_on_c, 7, 66, 0
10, 82020, Note_on_c, 7, 64, 72
10, 82049, Note_on_c, 7, 64, 0
10, 82050, Note_on_c, 7, 62, 72
10, 82079, Note_on_c, 7, 62, 0
10, 82080, Note_on_c, 7, 61, 72
10, 82199, Note_on_c, 7, 61, 0
10, 82200, Note_on_c, 7, 59, 72
10, 82379, Note_on_c, 7, 59, 0
10, 82380, Note_on_c, 7, 57, 72
10, 82409, Note_on_c, 7, 57, 0
10, 82410, Note_on_c, 7, 55, 72
10, 82439, Note_on_c, 7, 55, 0
10, 82440, Note_on_c, 7, 54, 72
10, 82499, Note_on_c, 7, 54, 0
10, 82500, Note_on_c, 7, 59, 72
10, 82559, Note_on_c, 7, 59, 0
10, 82560, Note_on_c, 7, 61, 72
10, 82619, Note_on_c, 7, 61, 0
10, 82620, Note_on_c, 7, 54, 72
10, 82679, Note_on_c, 7, 54, 0
10, 82680, Note_on_c, 7, 52, 72
10, 82709, Note_on_c, 7, 52, 0
10, 82710, Note_on_c, 7, 54, 72
10, 82739, Note_on_c, 7, 54, 0
10, 82740, Note_on_c, 7, 56, 72
10, 82769, Note_on_c, 7, 56, 0
10, 82770, Note_on_c, 7, 52, 72
10, 82799, Note_on_c, 7, 52, 0
10, 82800, Note_on_c, 7, 57, 72
10, 82859, Note_on_c, 7, 57, 0
10, 82860, Note_on_c, 7, 54, 72
10, 82919, Note_on_c, 7, 54, 0
10, 82920, Note_on_c, 7, 56, 72
10, 83159, Note_on_c, 7, 56, 0
10, 83160, Note_on_c, 7, 64, 72
10, 83219, Note_on_c, 7, 64, 0
10, 83220, Note_on_c, 7, 59, 72
10, 83309, Note_on_c, 7, 59, 0
10, 83310, Note_on_c, 7, 58, 72
10, 83339, Note_on_c, 7, 58, 0
10, 83340, Note_on_c, 7, 59, 72
10, 83399, Note_on_c, 7, 59, 0
10, 83400, Note_on_c, 7, 58, 72
10, 83459, Note_on_c, 7, 58, 0
10, 83460, Note_on_c, 7, 66, 72
10, 83579, Note_on_c, 7, 66, 0
10, 83580, Note_on_c, 7, 64, 72
10, 83639, Note_on_c, 7, 64, 0
10, 83640, Note_on_c, 7, 62, 72
10, 83699, Note_on_c, 7, 62, 0
10, 83700, Note_on_c, 7, 61, 72
10, 83759, Note_on_c, 7, 61, 0
10, 83760, Note_on_c, 7, 59, 72
10, 83819, Note_on_c, 7, 59, 0
10, 83820, Note_on_c, 7, 66, 72
10, 83879, Note_on_c, 7, 66, 0
10, 83880, Note_on_c, 7, 68, 72
10, 83939, Note_on_c, 7, 68, 0
10, 83940, Note_on_c, 7, 61, 72
10, 83999, Note_on_c, 7, 61, 0
10, 84000, Note_on_c, 7, 61, 72
10, 84059, Note_on_c, 7, 61, 0
10, 84060, Note_on_c, 7, 57, 72
10, 84119, Note_on_c, 7, 57, 0
10, 84120, Note_on_c, 7, 69, 72
10, 84179, Note_on_c, 7, 69, 0
10, 84240, Note_on_c, 7, 71, 72
10, 84299, Note_on_c, 7, 71, 0
10, 84360, Note_on_c, 7, 68, 72
10, 84419, Note_on_c, 7, 68, 0
10, 84420, Note_on_c, 7, 61, 72
10, 84479, Note_on_c, 7, 61, 0
10, 84480, Note_on_c, 7, 66, 72
10, 84539, Note_on_c, 7, 66, 0
10, 84540, Note_on_c, 7, 61, 72
10, 84599, Note_on_c, 7, 61, 0
10, 84600, Note_on_c, 7, 59, 72
10, 84659, Note_on_c, 7, 59, 0
10, 84660, Note_on_c, 7, 66, 72
10, 84779, Note_on_c, 7, 66, 0
10, 84780, Note_on_c, 7, 71, 72
10, 84809, Note_on_c, 7, 71, 0
10, 84810, Note_on_c, 7, 69, 72
10, 84839, Note_on_c, 7, 69, 0
10, 84840, Note_on_c, 7, 68, 72
10, 84899, Note_on_c, 7, 68, 0
10, 84900, Note_on_c, 7, 66, 72
10, 84959, Note_on_c, 7, 66, 0
10, 84960, Note_on_c, 7, 61, 72
10, 85019, Note_on_c, 7, 61, 0
10, 85020, Note_on_c, 7, 62, 72
10, 85139, Note_on_c, 7, 62, 0
10, 85140, Note_on_c, 7, 61, 72
10, 85169, Note_on_c, 7, 61, 0
10, 85170, Note_on_c, 7, 59, 72
10, 85199, Note_on_c, 7, 59, 0
10, 85200, Note_on_c, 7, 61, 72
10, 85259, Note_on_c, 7, 61, 0
10, 85260, Note_on_c, 7, 62, 72
10, 85379, Note_on_c, 7, 62, 0
10, 85380, Note_on_c, 7, 56, 72
10, 85439, Note_on_c, 7, 56, 0
10, 85440, Note_on_c, 7, 61, 72
10, 85499, Note_on_c, 7, 61, 0
10, 85500, Note_on_c, 7, 57, 72
10, 85559, Note_on_c, 7, 57, 0
10, 85560, Note_on_c, 7, 59, 72
10, 85619, Note_on_c, 7, 59, 0
10, 85620, Note_on_c, 7, 62, 72
10, 85679, Note_on_c, 7, 62, 0
10, 85680, Note_on_c, 7, 61, 72
10, 85739, Note_on_c, 7, 61, 0
10, 85740, Note_on_c, 7, 59, 72
10, 85799, Note_on_c, 7, 59, 0
10, 85800, Note_on_c, 7, 57, 72
10, 85979, Note_on_c, 7, 57, 0
10, 85980, Note_on_c, 7, 56, 72
10, 86039, Note_on_c, 7, 56, 0
10, 86040, Note_on_c, 7, 61, 72
10, 86099, Note_on_c, 7, 61, 0
10, 86100, Note_on_c, 7, 59, 72
10, 86159, Note_on_c, 7, 59, 0
10, 86160, Note_on_c, 7, 57, 72
10, 86339, Note_on_c, 7, 57, 0
10, 86340, Note_on_c, 7, 64, 72
10, 86399, Note_on_c, 7, 64, 0
10, 86400, Note_on_c, 7, 57, 72
10, 86459, Note_on_c, 7, 57, 0
10, 86460, Note_on_c, 7, 69, 72
10, 86549, Note_on_c, 7, 69, 0
10, 86550, Note_on_c, 7, 67, 72
10, 86579, Note_on_c, 7, 67, 0
10, 86580, Note_on_c, 7, 66, 72
10, 86609, Note_on_c, 7, 66, 0
10, 86610, Note_on_c, 7, 64, 72
10, 86639, Note_on_c, 7, 64, 0
10, 86640, Note_on_c, 7, 62, 72
10, 86699, Note_on_c, 7, 62, 0
10, 86700, Note_on_c, 7, 66, 72
10, 86759, Note_on_c, 7, 66, 0
10, 86760, Note_on_c, 7, 64, 72
10, 86939, Note_on_c, 7, 64, 0
10, 86940, Note_on_c, 7, 64, 72
10, 86999, Note_on_c, 7, 64, 0
10, 87000, Note_on_c, 7, 61, 72
10, 87059, Note_on_c, 7, 61, 0
10, 87060, Note_on_c, 7, 57, 72
10, 87119, Note_on_c, 7, 57, 0
10, 87120, Note_on_c, 7, 66, 72
10, 87179, Note_on_c, 7, 66, 0
10, 87180, Note_on_c, 7, 54, 72
10, 87239, Note_on_c, 7, 54, 0
10, 87240, Note_on_c, 7, 59, 72
10, 87419, Note_on_c, 7, 59, 0
10, 87420, Note_on_c, 7, 62, 72
10, 87479, Note_on_c, 7, 62, 0
10, 87480, Note_on_c, 7, 61, 72
10, 87539, Note_on_c, 7, 61, 0
10, 87540, Note_on_c, 7, 64, 72
10, 87599, Note_on_c, 7, 64, 0
10, 87600, Note_on_c, 7, 62, 72
10, 87779, Note_on_c, 7, 62, 0
10, 87780, Note_on_c, 7, 61, 72
10, 87809, Note_on_c, 7, 61, 0
10, 87810, Note_on_c, 7, 59, 72
10, 87839, Note_on_c, 7, 59, 0
10, 87840, Note_on_c, 7, 64, 72
10, 88019, Note_on_c, 7, 64, 0
10, 88020, Note_on_c, 7, 62, 72
10, 88049, Note_on_c, 7, 62, 0
10, 88050, Note_on_c, 7, 61, 72
10, 88079, Note_on_c, 7, 61, 0
10, 88080, Note_on_c, 7, 59, 72
10, 88139, Note_on_c, 7, 59, 0
10, 88140, Note_on_c, 7, 64, 72
10, 88259, Note_on_c, 7, 64, 0
10, 88260, Note_on_c, 7, 66, 72
10, 88319, Note_on_c, 7, 66, 0
10, 88320, Note_on_c, 7, 59, 72
10, 88379, Note_on_c, 7, 59, 0
10, 88380, Note_on_c, 7, 52, 72
10, 88439, Note_on_c, 7, 52, 0
10, 88440, Note_on_c, 7, 64, 72
10, 88499, Note_on_c, 7, 64, 0
10, 88500, Note_on_c, 7, 64, 72
10, 88589, Note_on_c, 7, 64, 0
10, 88590, Note_on_c, 7, 61, 72
10, 88619, Note_on_c, 7, 61, 0
10, 88620, Note_on_c, 7, 62, 72
10, 88679, Note_on_c, 7, 62, 0
10, 88680, Note_on_c, 7, 61, 72
10, 88919, Note_on_c, 7, 61, 0
10, 97080, Note_on_c, 7, 59, 80
10, 97200, Note_on_c, 7, 59, 0
10, 97200, Note_on_c, 7, 59, 80
10, 97320, Note_on_c, 7, 59, 0
10, 97320, Note_on_c, 7, 64, 80
10, 97440, Note_on_c, 7, 64, 0
10, 97440, Note_on_c, 7, 64, 80
10, 97500, Note_on_c, 7, 64, 0
10, 97500, Note_on_c, 7, 62, 80
10, 97560, Note_on_c, 7, 62, 0
10, 97560, Note_on_c, 7, 62, 80
10, 97680, Note_on_c, 7, 62, 0
10, 97680, Note_on_c, 7, 64, 80
10, 97740, Note_on_c, 7, 64, 0
10, 97740, Note_on_c, 7, 60, 80
10, 97800, Note_on_c, 7, 60, 0
10, 97800, Note_on_c, 7, 57, 80
10, 97860, Note_on_c, 7, 57, 0
10, 97860, Note_on_c, 7, 62, 80
10, 97920, Note_on_c, 7, 62, 0
10, 97920, Note_on_c, 7, 62, 80
10, 98028, Note_on_c, 7, 62, 0
10, 98040, Note_on_c, 7, 64, 80
10, 98160, Note_on_c, 7, 64, 0
10, 98160, Note_on_c, 7, 62, 80
10, 98280, Note_on_c, 7, 62, 0
10, 98280, Note_on_c, 7, 55, 80
10, 98340, Note_on_c, 7, 55, 0
10, 98340, Note_on_c, 7, 57, 80
10, 98400, Note_on_c, 7, 57, 0
10, 98400, Note_on_c, 7, 59, 80
10, 98460, Note_on_c, 7, 59, 0
10, 98460, Note_on_c, 7, 60, 80
10, 98520, Note_on_c, 7, 60, 0
10, 98520, Note_on_c, 7, 62, 80
10, 98640, Note_on_c, 7, 62, 0
10, 98640, Note_on_c, 7, 62, 80
10, 98760, Note_on_c, 7, 62, 0
10, 98760, Note_on_c, 7, 60, 80
10, 98820, Note_on_c, 7, 60, 0
10, 98820, Note_on_c, 7, 59, 80
10, 98880, Note_on_c, 7, 59, 0
10, 98880, Note_on_c, 7, 59, 80
10, 98988, Note_on_c, 7, 59, 0
10, 99000, Note_on_c, 7, 59, 80
10, 99120, Note_on_c, 7, 59, 0
10, 99120, Note_on_c, 7, 59, 80
10, 99240, Note_on_c, 7, 59, 0
10, 99240, Note_on_c, 7, 64, 80
10, 99360, Note_on_c, 7, 64, 0
10, 99360, Note_on_c, 7, 64, 80
10, 99420, Note_on_c, 7, 64, 0
10, 99420, Note_on_c, 7, 62, 80
10, 99480, Note_on_c, 7, 62, 0
10, 99480, Note_on_c, 7, 62, 80
10, 99600, Note_on_c, 7, 62, 0
10, 99600, Note_on_c, 7, 64, 80
10, 99660, Note_on_c, 7, 64, 0
10, 99660, Note_on_c, 7, 60, 80
10, 99720, Note_on_c, 7, 60, 0
10, 99720, Note_on_c, 7, 57, 80
10, 99780, Note_on_c, 7, 57, 0
10, 99780, Note_on_c, 7, 62, 80
10, 99840, Note_on_c, 7, 62, 0
10, 99840, Note_on_c, 7, 62, 80
10, 99948, Note_on_c, 7, 62, 0
10, 99960, Note_on_c, 7, 64, 80
10, 100080, Note_on_c, 7, 64, 0
10, 100080, Note_on_c, 7, 62, 80
10, 100200, Note_on_c, 7, 62, 0
10, 100200, Note_on_c, 7, 55, 80
10, 100260, Note_on_c, 7, 55, 0
10, 100260, Note_on_c, 7, 57, 80
10, 100320, Note_on_c, 7, 57, 0
10, 100320, Note_on_c, 7, 59, 80
10, 100380, Note_on_c, 7, 59, 0
10, 100380, Note_on_c, 7, 60, 80
10, 100440, Note_on_c, 7, 60, 0
10, 100440, Note_on_c, 7, 62, 80
10, 100560, Note_on_c, 7, 62, 0
10, 100560, Note_on_c, 7, 62, 80
10, 100680, Note_on_c, 7, 62, 0
10, 100680, Note_on_c, 7, 60, 80
10, 100740, Note_on_c, 7, 60, 0
10, 100740, Note_on_c, 7, 59, 80
10, 100800, Note_on_c, 7, 59, 0
10, 100800, Note_on_c, 7, 59, 80
10, 100908, Note_on_c, 7, 59, 0
10, 100920, Note_on_c, 7, 62, 80
10, 101040, Note_on_c, 7, 62, 0
10, 101040, Note_on_c, 7, 62, 80
10, 101160, Note_on_c, 7, 62, 0
10, 101160, Note_on_c, 7, 62, 80
10, 101220, Note_on_c, 7, 62, 0
10, 101220, Note_on_c, 7, 60, 80
10, 101280, Note_on_c, 7, 60, 0
10, 101280, Note_on_c, 7, 59, 80
10, 101340, Note_on_c, 7, 59, 0
10, 101340, Note_on_c, 7, 60, 80
10, 101400, Note_on_c, 7, 60, 0
10, 101400, Note_on_c, 7, 55, 80
10, 101460, Note_on_c, 7, 55, 0
10, 101460, Note_on_c, 7, 59, 80
10, 101520, Note_on_c, 7, 59, 0
10, 101520, Note_on_c, 7, 59, 80
10, 101580, Note_on_c, 7, 59, 0
10, 101580, Note_on_c, 7, 57, 80
10, 101640, Note_on_c, 7, 57, 0
10, 101640, Note_on_c, 7, 57, 80
10, 101700, Note_on_c, 7, 57, 0
10, 101700, Note_on_c, 7, 55, 80
10, 101760, Note_on_c, 7, 55, 0
10, 101760, Note_on_c, 7, 54, 80
10, 101868, Note_on_c, 7, 54, 0
10, 101880, Note_on_c, 7, 54, 80
10, 102000, Note_on_c, 7, 54, 0
10, 102000, Note_on_c, 7, 55, 80
10, 102060, Note_on_c, 7, 55, 0
10, 102060, Note_on_c, 7, 57, 80
10, 102120, Note_on_c, 7, 57, 0
10, 102120, Note_on_c, 7, 59, 80
10, 102180, Note_on_c, 7, 59, 0
10, 102180, Note_on_c, 7, 60, 80
10, 102240, Note_on_c, 7, 60, 0
10, 102240, Note_on_c, 7, 59, 80
10, 102300, Note_on_c, 7, 59, 0
10, 102300, Note_on_c, 7, 57, 80
10, 102360, Note_on_c, 7, 57, 0
10, 102360, Note_on_c, 7, 55, 80
10, 102600, Note_on_c, 7, 55, 0
10, 102600, Note_on_c, 7, 54, 80
10, 102660, Note_on_c, 7, 54, 0
10, 102660, Note_on_c, 7, 52, 80
10, 102720, Note_on_c, 7, 52, 0
10, 102720, Note_on_c, 7, 54, 80
10, 102828, Note_on_c, 7, 54, 0
10, 102840, Note_on_c, 7, 52, 80
10, 102900, Note_on_c, 7, 52, 0
10, 102900, Note_on_c, 7, 54, 80
10, 102960, Note_on_c, 7, 54, 0
10, 102960, Note_on_c, 7, 55, 80
10, 103140, Note_on_c, 7, 55, 0
10, 103140, Note_on_c, 7, 57, 80
10, 103200, Note_on_c, 7, 57, 0
10, 103200, Note_on_c, 7, 59, 80
10, 103260, Note_on_c, 7, 59, 0
10, 103260, Note_on_c, 7, 60, 80
10, 103320, Note_on_c, 7, 60, 0
10, 103320, Note_on_c, 7, 62, 80
10, 103560, Note_on_c, 7, 62, 0
10, 103560, Note_on_c, 7, 60, 80
10, 103620, Note_on_c, 7, 60, 0
10, 103620, Note_on_c, 7, 59, 80
10, 103680, Note_on_c, 7, 59, 0
10, 103680, Note_on_c, 7, 59, 80
10, 103800, Note_on_c, 7, 59, 0
10, 164220, Note_on_c, 7, 62, 100
10, 164267, Note_on_c, 7, 62, 0
10, 164280, Note_on_c, 7, 57, 100
10, 164327, Note_on_c, 7, 57, 0
10, 164340, Note_on_c, 7, 69, 100
10, 164387, Note_on_c, 7, 69, 0
10, 164400, Note_on_c, 7, 69, 100
10, 164447, Note_on_c, 7, 69, 0
10, 164460, Note_on_c, 7, 57, 100
10, 164507, Note_on_c, 7, 57, 0
10, 165180, Note_on_c, 7, 62, 100
10, 165227, Note_on_c, 7, 62, 0
10, 165240, Note_on_c, 7, 57, 100
10, 165287, Note_on_c, 7, 57, 0
10, 165300, Note_on_c, 7, 69, 100
10, 165347, Note_on_c, 7, 69, 0
10, 165360, Note_on_c, 7, 69, 100
10, 165407, Note_on_c, 7, 69, 0
10, 165420, Note_on_c, 7, 57, 100
10, 165467, Note_on_c, 7, 57, 0
10, 165780, Note_on_c, 7, 69, 80
10, 165804, Note_on_c, 7, 69, 0
10, 165840, Note_on_c, 7, 69, 80
10, 165864, Note_on_c, 7, 69, 0
10, 165900, Note_on_c, 7, 74, 100
10, 165923, Note_on_c, 7, 74, 0
10, 165930, Note_on_c, 7, 69, 100
10, 165953, Note_on_c, 7, 69, 0
10, 165960, Note_on_c, 7, 66, 100
10, 166007, Note_on_c, 7, 66, 0
10, 166260, Note_on_c, 7, 71, 100
10, 166284, Note_on_c, 7, 71, 0
10, 166320, Note_on_c, 7, 64, 100
10, 166344, Note_on_c, 7, 64, 0
10, 166380, Note_on_c, 7, 57, 100
10, 166403, Note_on_c, 7, 57, 0
10, 166410, Note_on_c, 7, 59, 100
10, 166433, Note_on_c, 7, 59, 0
10, 166440, Note_on_c, 7, 57, 100
10, 166487, Note_on_c, 7, 57, 0
10, 166560, Note_on_c, 7, 66, 80
10, 166751, Note_on_c, 7, 66, 0
10, 166800, Note_on_c, 7, 59, 80
10, 166895, Note_on_c, 7, 59, 0
10, 166920, Note_on_c, 7, 62, 80
10, 167015, Note_on_c, 7, 62, 0
10, 167040, Note_on_c, 7, 64, 80
10, 167087, Note_on_c, 7, 64, 0
10, 167100, Note_on_c, 7, 59, 80
10, 167147, Note_on_c, 7, 59, 0
10, 167160, Note_on_c, 7, 64, 80
10, 167207, Note_on_c, 7, 64, 0
10, 167220, Note_on_c, 7, 69, 80
10, 167267, Note_on_c, 7, 69, 0
10, 167340, Note_on_c, 7, 69, 80
10, 167387, Note_on_c, 7, 69, 0
10, 167400, Note_on_c, 7, 64, 80
10, 167447, Note_on_c, 7, 64, 0
10, 167460, Note_on_c, 7, 64, 80
10, 167507, Note_on_c, 7, 64, 0
10, 167520, Note_on_c, 7, 66, 80
10, 167567, Note_on_c, 7, 66, 0
10, 167580, Note_on_c, 7, 66, 80
10, 167627, Note_on_c, 7, 66, 0
10, 167640, Note_on_c, 7, 59, 80
10, 167687, Note_on_c, 7, 59, 0
10, 167700, Note_on_c, 7, 64, 80
10, 167747, Note_on_c, 7, 64, 0
10, 167760, Note_on_c, 7, 71, 80
10, 167807, Note_on_c, 7, 71, 0
10, 167940, Note_on_c, 7, 71, 80
10, 167987, Note_on_c, 7, 71, 0
10, 168000, Note_on_c, 7, 69, 80
10, 168047, Note_on_c, 7, 69, 0
10, 168180, Note_on_c, 7, 69, 80
10, 168227, Note_on_c, 7, 69, 0
10, 168240, Note_on_c, 7, 67, 80
10, 168287, Note_on_c, 7, 67, 0
10, 168360, Note_on_c, 7, 69, 82
10, 168407, Note_on_c, 7, 69, 0
10, 168480, Note_on_c, 7, 71, 85
10, 168527, Note_on_c, 7, 71, 0
10, 168600, Note_on_c, 7, 71, 87
10, 168647, Note_on_c, 7, 71, 0
10, 168720, Note_on_c, 7, 64, 90
10, 168767, Note_on_c, 7, 64, 0
10, 168840, Note_on_c, 7, 69, 92
10, 168887, Note_on_c, 7, 69, 0
10, 168960, Note_on_c, 7, 69, 95
10, 169007, Note_on_c, 7, 69, 0
10, 169020, Note_on_c, 7, 71, 96
10, 169067, Note_on_c, 7, 71, 0
10, 169080, Note_on_c, 7, 64, 97
10, 169127, Note_on_c, 7, 64, 0
10, 169140, Note_on_c, 7, 69, 98
10, 169187, Note_on_c, 7, 69, 0
10, 169200, Note_on_c, 7, 69, 100
10, 169295, Note_on_c, 7, 69, 0
10, 169350, Note_on_c, 7, 66, 80
10, 169373, Note_on_c, 7, 66, 0
10, 169380, Note_on_c, 7, 67, 80
10, 169403, Note_on_c, 7, 67, 0
10, 169410, Note_on_c, 7, 69, 80
10, 169433, Note_on_c, 7, 69, 0
10, 169440, Note_on_c, 7, 62, 80
10, 169452, Note_on_c, 7, 62, 0
10, 169470, Note_on_c, 7, 71, 80
10, 169493, Note_on_c, 7, 71, 0
10, 169500, Note_on_c, 7, 69, 80
10, 169523, Note_on_c, 7, 69, 0
10, 169530, Note_on_c, 7, 67, 80
10, 169553, Note_on_c, 7, 67, 0
10, 169560, Note_on_c, 7, 62, 80
10, 169572, Note_on_c, 7, 62, 0
10, 169590, Note_on_c, 7, 69, 80
10, 169613, Note_on_c, 7, 69, 0
10, 169620, Note_on_c, 7, 67, 80
10, 169643, Note_on_c, 7, 67, 0
10, 169650, Note_on_c, 7, 66, 81
10, 169673, Note_on_c, 7, 66, 0
10, 169680, Note_on_c, 7, 62, 81
10, 169692, Note_on_c, 7, 62, 0
10, 169710, Note_on_c, 7, 67, 81
10, 169733, Note_on_c, 7, 67, 0
10, 169740, Note_on_c, 7, 66, 81
10, 169763, Note_on_c, 7, 66, 0
10, 169770, Note_on_c, 7, 64, 81
10, 169793, Note_on_c, 7, 64, 0
10, 169800, Note_on_c, 7, 62, 81
10, 169812, Note_on_c, 7, 62, 0
10, 169830, Note_on_c, 7, 66, 81
10, 169853, Note_on_c, 7, 66, 0
10, 169860, Note_on_c, 7, 64, 81
10, 169883, Note_on_c, 7, 64, 0
10, 169890, Note_on_c, 7, 62, 81
10, 169913, Note_on_c, 7, 62, 0
10, 169920, Note_on_c, 7, 64, 81
10, 169943, Note_on_c, 7, 64, 0
10, 169950, Note_on_c, 7, 74, 81
10, 169973, Note_on_c, 7, 74, 0
10, 169980, Note_on_c, 7, 73, 81
10, 170003, Note_on_c, 7, 73, 0
10, 170010, Note_on_c, 7, 71, 81
10, 170033, Note_on_c, 7, 71, 0
10, 170040, Note_on_c, 7, 69, 81
10, 170063, Note_on_c, 7, 69, 0
10, 170070, Note_on_c, 7, 67, 81
10, 170093, Note_on_c, 7, 67, 0
10, 170100, Note_on_c, 7, 66, 81
10, 170123, Note_on_c, 7, 66, 0
10, 170130, Note_on_c, 7, 64, 81
10, 170153, Note_on_c, 7, 64, 0
10, 170160, Note_on_c, 7, 62, 81
10, 170255, Note_on_c, 7, 62, 0
10, 170340, Note_on_c, 7, 66, 81
10, 170387, Note_on_c, 7, 66, 0
10, 170400, Note_on_c, 7, 71, 81
10, 170423, Note_on_c, 7, 71, 0
10, 170430, Note_on_c, 7, 73, 81
10, 170453, Note_on_c, 7, 73, 0
10, 170460, Note_on_c, 7, 74, 81
10, 170483, Note_on_c, 7, 74, 0
10, 170490, Note_on_c, 7, 73, 81
10, 170513, Note_on_c, 7, 73, 0
10, 170520, Note_on_c, 7, 71, 81
10, 170567, Note_on_c, 7, 71, 0
10, 170580, Note_on_c, 7, 66, 81
10, 170604, Note_on_c, 7, 66, 0
10, 170640, Note_on_c, 7, 66, 81
10, 170664, Note_on_c, 7, 66, 0
10, 170700, Note_on_c, 7, 62, 81
10, 170724, Note_on_c, 7, 62, 0
10, 170760, Note_on_c, 7, 62, 81
10, 170784, Note_on_c, 7, 62, 0
10, 170820, Note_on_c, 7, 59, 81
10, 170844, Note_on_c, 7, 59, 0
10, 170880, Note_on_c, 7, 59, 81
10, 170904, Note_on_c, 7, 59, 0
10, 170940, Note_on_c, 7, 59, 81
10, 170987, Note_on_c, 7, 59, 0
10, 171000, Note_on_c, 7, 54, 81
10, 171047, Note_on_c, 7, 54, 0
10, 171060, Note_on_c, 7, 66, 82
10, 171107, Note_on_c, 7, 66, 0
10, 171120, Note_on_c, 7, 66, 82
10, 171167, Note_on_c, 7, 66, 0
10, 171180, Note_on_c, 7, 54, 82
10, 171227, Note_on_c, 7, 54, 0
10, 171270, Note_on_c, 7, 73, 82
10, 171293, Note_on_c, 7, 73, 0
10, 171300, Note_on_c, 7, 71, 82
10, 171323, Note_on_c, 7, 71, 0
10, 171330, Note_on_c, 7, 70, 82
10, 171353, Note_on_c, 7, 70, 0
10, 171360, Note_on_c, 7, 71, 82
10, 171372, Note_on_c, 7, 71, 0
10, 171390, Note_on_c, 7, 71, 82
10, 171413, Note_on_c, 7, 71, 0
10, 171420, Note_on_c, 7, 73, 82
10, 171443, Note_on_c, 7, 73, 0
10, 171450, Note_on_c, 7, 74, 82
10, 171473, Note_on_c, 7, 74, 0
10, 171480, Note_on_c, 7, 71, 82
10, 171492, Note_on_c, 7, 71, 0
10, 171510, Note_on_c, 7, 71, 82
10, 171533, Note_on_c, 7, 71, 0
10, 171540, Note_on_c, 7, 73, 82
10, 171563, Note_on_c, 7, 73, 0
10, 171570, Note_on_c, 7, 74, 82
10, 171593, Note_on_c, 7, 74, 0
10, 171600, Note_on_c, 7, 73, 82
10, 171624, Note_on_c, 7, 73, 0
10, 171660, Note_on_c, 7, 71, 82
10, 171684, Note_on_c, 7, 71, 0
10, 171720, Note_on_c, 7, 70, 82
10, 171815, Note_on_c, 7, 70, 0
10, 171840, Note_on_c, 7, 71, 82
10, 171936, Note_on_c, 7, 71, 0
10, 172020, Note_on_c, 7, 62, 82
10, 172067, Note_on_c, 7, 62, 0
10, 172080, Note_on_c, 7, 62, 82
10, 172128, Note_on_c, 7, 62, 0
10, 172140, Note_on_c, 7, 61, 82
10, 172164, Note_on_c, 7, 61, 0
10, 172170, Note_on_c, 7, 59, 82
10, 172193, Note_on_c, 7, 59, 0
10, 172200, Note_on_c, 7, 61, 100
10, 172271, Note_on_c, 7, 61, 0
10, 172290, Note_on_c, 7, 62, 100
10, 172313, Note_on_c, 7, 62, 0
10, 172320, Note_on_c, 7, 62, 100
10, 172367, Note_on_c, 7, 62, 0
10, 172860, Note_on_c, 7, 62, 110
10, 172907, Note_on_c, 7, 62, 0
10, 172920, Note_on_c, 7, 57, 110
10, 172967, Note_on_c, 7, 57, 0
10, 172980, Note_on_c, 7, 69, 110
10, 173027, Note_on_c, 7, 69, 0
10, 173040, Note_on_c, 7, 69, 110
10, 173087, Note_on_c, 7, 69, 0
10, 173100, Note_on_c, 7, 57, 110
10, 173147, Note_on_c, 7, 57, 0
10, 173820, Note_on_c, 7, 62, 100
10, 173867, Note_on_c, 7, 62, 0
10, 173880, Note_on_c, 7, 57, 100
10, 173927, Note_on_c, 7, 57, 0
10, 173940, Note_on_c, 7, 69, 100
10, 173987, Note_on_c, 7, 69, 0
10, 174000, Note_on_c, 7, 69, 100
10, 174047, Note_on_c, 7, 69, 0
10, 174060, Note_on_c, 7, 57, 100
10, 174107, Note_on_c, 7, 57, 0
10, 174420, Note_on_c, 7, 69, 80
10, 174444, Note_on_c, 7, 69, 0
10, 174480, Note_on_c, 7, 69, 80
10, 174504, Note_on_c, 7, 69, 0
10, 174540, Note_on_c, 7, 74, 100
10, 174563, Note_on_c, 7, 74, 0
10, 174570, Note_on_c, 7, 69, 100
10, 174593, Note_on_c, 7, 69, 0
10, 174600, Note_on_c, 7, 66, 100
10, 174647, Note_on_c, 7, 66, 0
10, 174900, Note_on_c, 7, 71, 80
10, 174924, Note_on_c, 7, 71, 0
10, 174960, Note_on_c, 7, 64, 80
10, 174984, Note_on_c, 7, 64, 0
10, 175020, Note_on_c, 7, 57, 100
10, 175043, Note_on_c, 7, 57, 0
10, 175050, Note_on_c, 7, 59, 100
10, 175073, Note_on_c, 7, 59, 0
10, 175080, Note_on_c, 7, 57, 100
10, 175127, Note_on_c, 7, 57, 0
10, 175200, Note_on_c, 7, 66, 80
10, 175391, Note_on_c, 7, 66, 0
10, 175440, Note_on_c, 7, 59, 80
10, 175535, Note_on_c, 7, 59, 0
10, 175560, Note_on_c, 7, 62, 80
10, 175655, Note_on_c, 7, 62, 0
10, 175680, Note_on_c, 7, 64, 80
10, 175727, Note_on_c, 7, 64, 0
10, 175740, Note_on_c, 7, 59, 80
10, 175787, Note_on_c, 7, 59, 0
10, 175800, Note_on_c, 7, 64, 80
10, 175847, Note_on_c, 7, 64, 0
10, 175860, Note_on_c, 7, 69, 80
10, 175907, Note_on_c, 7, 69, 0
10, 175980, Note_on_c, 7, 69, 80
10, 176027, Note_on_c, 7, 69, 0
10, 176040, Note_on_c, 7, 64, 80
10, 176087, Note_on_c, 7, 64, 0
10, 176100, Note_on_c, 7, 64, 80
10, 176147, Note_on_c, 7, 64, 0
10, 176160, Note_on_c, 7, 66, 80
10, 176207, Note_on_c, 7, 66, 0
10, 176220, Note_on_c, 7, 66, 80
10, 176267, Note_on_c, 7, 66, 0
10, 176280, Note_on_c, 7, 59, 80
10, 176327, Note_on_c, 7, 59, 0
10, 176340, Note_on_c, 7, 64, 80
10, 176387, Note_on_c, 7, 64, 0
10, 176400, Note_on_c, 7, 71, 80
10, 176447, Note_on_c, 7, 71, 0
10, 176580, Note_on_c, 7, 71, 80
10, 176627, Note_on_c, 7, 71, 0
10, 176640, Note_on_c, 7, 69, 80
10, 176687, Note_on_c, 7, 69, 0
10, 176820, Note_on_c, 7, 69, 80
10, 176867, Note_on_c, 7, 69, 0
10, 176880, Note_on_c, 7, 67, 80
10, 176927, Note_on_c, 7, 67, 0
10, 177000, Note_on_c, 7, 69, 80
10, 177047, Note_on_c, 7, 69, 0
10, 177120, Note_on_c, 7, 71, 80
10, 177167, Note_on_c, 7, 71, 0
10, 177240, Note_on_c, 7, 71, 80
10, 177287, Note_on_c, 7, 71, 0
10, 177360, Note_on_c, 7, 64, 80
10, 177407, Note_on_c, 7, 64, 0
10, 177480, Note_on_c, 7, 69, 80
10, 177527, Note_on_c, 7, 69, 0
10, 177600, Note_on_c, 7, 69, 80
10, 177647, Note_on_c, 7, 69, 0
10, 177660, Note_on_c, 7, 71, 80
10, 177707, Note_on_c, 7, 71, 0
10, 177720, Note_on_c, 7, 64, 80
10, 177767, Note_on_c, 7, 64, 0
10, 177780, Note_on_c, 7, 69, 80
10, 177827, Note_on_c, 7, 69, 0
10, 177840, Note_on_c, 7, 69, 80
10, 177935, Note_on_c, 7, 69, 0
10, 177990, Note_on_c, 7, 66, 80
10, 178013, Note_on_c, 7, 66, 0
10, 178020, Note_on_c, 7, 67, 80
10, 178043, Note_on_c, 7, 67, 0
10, 178050, Note_on_c, 7, 69, 80
10, 178073, Note_on_c, 7, 69, 0
10, 178080, Note_on_c, 7, 62, 80
10, 178092, Note_on_c, 7, 62, 0
10, 178110, Note_on_c, 7, 71, 80
10, 178133, Note_on_c, 7, 71, 0
10, 178140, Note_on_c, 7, 69, 80
10, 178163, Note_on_c, 7, 69, 0
10, 178170, Note_on_c, 7, 67, 80
10, 178193, Note_on_c, 7, 67, 0
10, 178200, Note_on_c, 7, 62, 80
10, 178212, Note_on_c, 7, 62, 0
10, 178230, Note_on_c, 7, 69, 80
10, 178253, Note_on_c, 7, 69, 0
10, 178260, Note_on_c, 7, 67, 80
10, 178283, Note_on_c, 7, 67, 0
10, 178290, Note_on_c, 7, 66, 80
10, 178313, Note_on_c, 7, 66, 0
10, 178320, Note_on_c, 7, 62, 80
10, 178332, Note_on_c, 7, 62, 0
10, 178350, Note_on_c, 7, 67, 80
10, 178373, Note_on_c, 7, 67, 0
10, 178380, Note_on_c, 7, 66, 80
10, 178403, Note_on_c, 7, 66, 0
10, 178410, Note_on_c, 7, 64, 80
10, 178433, Note_on_c, 7, 64, 0
10, 178440, Note_on_c, 7, 62, 80
10, 178452, Note_on_c, 7, 62, 0
10, 178470, Note_on_c, 7, 66, 80
10, 178493, Note_on_c, 7, 66, 0
10, 178500, Note_on_c, 7, 64, 80
10, 178523, Note_on_c, 7, 64, 0
10, 178530, Note_on_c, 7, 62, 80
10, 178553, Note_on_c, 7, 62, 0
10, 178560, Note_on_c, 7, 64, 80
10, 178583, Note_on_c, 7, 64, 0
10, 178590, Note_on_c, 7, 74, 80
10, 178613, Note_on_c, 7, 74, 0
10, 178620, Note_on_c, 7, 73, 80
10, 178643, Note_on_c, 7, 73, 0
10, 178650, Note_on_c, 7, 71, 80
10, 178673, Note_on_c, 7, 71, 0
10, 178680, Note_on_c, 7, 69, 80
10, 178703, Note_on_c, 7, 69, 0
10, 178710, Note_on_c, 7, 67, 80
10, 178733, Note_on_c, 7, 67, 0
10, 178740, Note_on_c, 7, 66, 80
10, 178763, Note_on_c, 7, 66, 0
10, 178770, Note_on_c, 7, 64, 80
10, 178793, Note_on_c, 7, 64, 0
10, 178800, Note_on_c, 7, 62, 80
10, 178895, Note_on_c, 7, 62, 0
10, 178980, Note_on_c, 7, 66, 80
10, 179027, Note_on_c, 7, 66, 0
10, 179040, Note_on_c, 7, 71, 80
10, 179063, Note_on_c, 7, 71, 0
10, 179070, Note_on_c, 7, 73, 80
10, 179093, Note_on_c, 7, 73, 0
10, 179100, Note_on_c, 7, 74, 80
10, 179123, Note_on_c, 7, 74, 0
10, 179130, Note_on_c, 7, 73, 80
10, 179153, Note_on_c, 7, 73, 0
10, 179160, Note_on_c, 7, 71, 80
10, 179207, Note_on_c, 7, 71, 0
10, 179220, Note_on_c, 7, 66, 80
10, 179244, Note_on_c, 7, 66, 0
10, 179280, Note_on_c, 7, 66, 80
10, 179304, Note_on_c, 7, 66, 0
10, 179340, Note_on_c, 7, 62, 80
10, 179364, Note_on_c, 7, 62, 0
10, 179400, Note_on_c, 7, 62, 80
10, 179424, Note_on_c, 7, 62, 0
10, 179460, Note_on_c, 7, 59, 80
10, 179484, Note_on_c, 7, 59, 0
10, 179520, Note_on_c, 7, 59, 80
10, 179544, Note_on_c, 7, 59, 0
10, 179580, Note_on_c, 7, 59, 80
10, 179627, Note_on_c, 7, 59, 0
10, 179640, Note_on_c, 7, 54, 80
10, 179687, Note_on_c, 7, 54, 0
10, 179700, Note_on_c, 7, 66, 80
10, 179747, Note_on_c, 7, 66, 0
10, 179760, Note_on_c, 7, 66, 80
10, 179807, Note_on_c, 7, 66, 0
10, 179820, Note_on_c, 7, 54, 80
10, 179867, Note_on_c, 7, 54, 0
10, 179910, Note_on_c, 7, 73, 80
10, 179933, Note_on_c, 7, 73, 0
10, 179940, Note_on_c, 7, 71, 80
10, 179963, Note_on_c, 7, 71, 0
10, 179970, Note_on_c, 7, 70, 80
10, 179993, Note_on_c, 7, 70, 0
10, 180000, Note_on_c, 7, 71, 80
10, 180012, Note_on_c, 7, 71, 0
10, 180030, Note_on_c, 7, 71, 80
10, 180053, Note_on_c, 7, 71, 0
10, 180060, Note_on_c, 7, 73, 80
10, 180083, Note_on_c, 7, 73, 0
10, 180090, Note_on_c, 7, 74, 80
10, 180113, Note_on_c, 7, 74, 0
10, 180120, Note_on_c, 7, 71, 80
10, 180132, Note_on_c, 7, 71, 0
10, 180150, Note_on_c, 7, 71, 80
10, 180173, Note_on_c, 7, 71, 0
10, 180180, Note_on_c, 7, 73, 80
10, 180203, Note_on_c, 7, 73, 0
10, 180210, Note_on_c, 7, 74, 80
10, 180233, Note_on_c, 7, 74, 0
10, 180240, Note_on_c, 7, 73, 80
10, 180264, Note_on_c, 7, 73, 0
10, 180300, Note_on_c, 7, 71, 80
10, 180324, Note_on_c, 7, 71, 0
10, 180360, Note_on_c, 7, 70, 80
10, 180455, Note_on_c, 7, 70, 0
10, 180480, Note_on_c, 7, 71, 80
10, 180576, Note_on_c, 7, 71, 0
10, 180660, Note_on_c, 7, 62, 80
10, 180707, Note_on_c, 7, 62, 0
10, 180720, Note_on_c, 7, 62, 80
10, 180768, Note_on_c, 7, 62, 0
10, 180780, Note_on_c, 7, 61, 80
10, 180804, Note_on_c, 7, 61, 0
10, 180810, Note_on_c, 7, 59, 80
10, 180833, Note_on_c, 7, 59, 0
10, 180840, Note_on_c, 7, 61, 100
10, 180911, Note_on_c, 7, 61, 0
10, 180930, Note_on_c, 7, 62, 100
10, 180953, Note_on_c, 7, 62, 0
10, 180960, Note_on_c, 7, 62, 100
10, 181007, Note_on_c, 7, 62, 0
10, 191100, Note_on_c, 7, 62, 100
10, 191147, Note_on_c, 7, 62, 0
10, 191160, Note_on_c, 7, 57, 100
10, 191207, Note_on_c, 7, 57, 0
10, 191220, Note_on_c, 7, 69, 100
10, 191267, Note_on_c, 7, 69, 0
10, 191280, Note_on_c, 7, 69, 100
10, 191327, Note_on_c, 7, 69, 0
10, 191340, Note_on_c, 7, 57, 100
10, 191387, Note_on_c, 7, 57, 0
10, 192060, Note_on_c, 7, 62, 110
10, 192107, Note_on_c, 7, 62, 0
10, 192120, Note_on_c, 7, 57, 110
10, 192167, Note_on_c, 7, 57, 0
10, 192180, Note_on_c, 7, 69, 110
10, 192227, Note_on_c, 7, 69, 0
10, 192240, Note_on_c, 7, 69, 110
10, 192287, Note_on_c, 7, 69, 0
10, 192300, Note_on_c, 7, 57, 110
10, 192347, Note_on_c, 7, 57, 0
10, 192660, Note_on_c, 7, 69, 100
10, 192684, Note_on_c, 7, 69, 0
10, 192720, Note_on_c, 7, 69, 110
10, 192744, Note_on_c, 7, 69, 0
10, 192780, Note_on_c, 7, 74, 110
10, 192803, Note_on_c, 7, 74, 0
10, 192810, Note_on_c, 7, 69, 110
10, 192833, Note_on_c, 7, 69, 0
10, 192840, Note_on_c, 7, 66, 110
10, 192887, Note_on_c, 7, 66, 0
10, 193140, Note_on_c, 7, 71, 100
10, 193164, Note_on_c, 7, 71, 0
10, 193200, Note_on_c, 7, 64, 110
10, 193224, Note_on_c, 7, 64, 0
10, 193260, Note_on_c, 7, 57, 110
10, 193283, Note_on_c, 7, 57, 0
10, 193290, Note_on_c, 7, 59, 110
10, 193313, Note_on_c, 7, 59, 0
10, 193320, Note_on_c, 7, 57, 110
10, 193367, Note_on_c, 7, 57, 0
10, 193440, Note_on_c, 7, 66, 100
10, 193631, Note_on_c, 7, 66, 0
10, 193680, Note_on_c, 7, 59, 100
10, 193775, Note_on_c, 7, 59, 0
10, 193800, Note_on_c, 7, 62, 100
10, 193895, Note_on_c, 7, 62, 0
10, 193920, Note_on_c, 7, 64, 100
10, 193967, Note_on_c, 7, 64, 0
10, 193980, Note_on_c, 7, 59, 100
10, 194027, Note_on_c, 7, 59, 0
10, 194040, Note_on_c, 7, 64, 100
10, 194087, Note_on_c, 7, 64, 0
10, 194100, Note_on_c, 7, 69, 100
10, 194147, Note_on_c, 7, 69, 0
10, 194220, Note_on_c, 7, 69, 100
10, 194267, Note_on_c, 7, 69, 0
10, 194280, Note_on_c, 7, 64, 100
10, 194327, Note_on_c, 7, 64, 0
10, 194340, Note_on_c, 7, 64, 100
10, 194387, Note_on_c, 7, 64, 0
10, 194400, Note_on_c, 7, 66, 100
10, 194447, Note_on_c, 7, 66, 0
10, 194460, Note_on_c, 7, 66, 100
10, 194507, Note_on_c, 7, 66, 0
10, 194520, Note_on_c, 7, 59, 100
10, 194567, Note_on_c, 7, 59, 0
10, 194580, Note_on_c, 7, 64, 100
10, 194627, Note_on_c, 7, 64, 0
10, 194640, Note_on_c, 7, 71, 100
10, 194687, Note_on_c, 7, 71, 0
10, 194820, Note_on_c, 7, 71, 100
10, 194867, Note_on_c, 7, 71, 0
10, 194880, Note_on_c, 7, 69, 100
10, 194927, Note_on_c, 7, 69, 0
10, 195060, Note_on_c, 7, 69, 100
10, 195107, Note_on_c, 7, 69, 0
10, 195120, Note_on_c, 7, 67, 100
10, 195167, Note_on_c, 7, 67, 0
10, 195240, Note_on_c, 7, 69, 100
10, 195287, Note_on_c, 7, 69, 0
10, 195360, Note_on_c, 7, 71, 100
10, 195407, Note_on_c, 7, 71, 0
10, 195480, Note_on_c, 7, 71, 100
10, 195527, Note_on_c, 7, 71, 0
10, 195600, Note_on_c, 7, 64, 100
10, 195647, Note_on_c, 7, 64, 0
10, 195720, Note_on_c, 7, 69, 100
10, 195767, Note_on_c, 7, 69, 0
10, 195840, Note_on_c, 7, 69, 100
10, 195887, Note_on_c, 7, 69, 0
10, 195900, Note_on_c, 7, 71, 100
10, 195947, Note_on_c, 7, 71, 0
10, 195960, Note_on_c, 7, 64, 100
10, 196007, Note_on_c, 7, 64, 0
10, 196020, Note_on_c, 7, 69, 100
10, 196067, Note_on_c, 7, 69, 0
10, 196080, Note_on_c, 7, 69, 100
10, 196224, Note_on_c, 7, 69, 0
10, 196224, End_track
11, 0, Start_track
11, 0, MIDI_port, 0
11, 0, Title_t, "Evangelist"
11, 0, Program_c, 8, 57
11, 0, Control_c, 8, 7, 127
11, 0, Control_c, 8, 10, 40
11, 43680, Note_on_c, 8, 59, 110
11, 43739, Note_on_c, 8, 59, 0
11, 43740, Note_on_c, 8, 59, 110
11, 43799, Note_on_c, 8, 59, 0
11, 43800, Note_on_c, 8, 64, 110
11, 43859, Note_on_c, 8, 64, 0
11, 43860, Note_on_c, 8, 59, 110
11, 43919, Note_on_c, 8, 59, 0
11, 43920, Note_on_c, 8, 56, 110
11, 43979, Note_on_c, 8, 56, 0
11, 43980, Note_on_c, 8, 56, 110
11, 44009, Note_on_c, 8, 56, 0
11, 44010, Note_on_c, 8, 57, 110
11, 44039, Note_on_c, 8, 57, 0
11, 44040, Note_on_c, 8, 59, 110
11, 44099, Note_on_c, 8, 59, 0
11, 44100, Note_on_c, 8, 52, 110
11, 44159, Note_on_c, 8, 52, 0
11, 44160, Note_on_c, 8, 62, 110
11, 44219, Note_on_c, 8, 62, 0
11, 44220, Note_on_c, 8, 62, 110
11, 44279, Note_on_c, 8, 62, 0
11, 44340, Note_on_c, 8, 62, 110
11, 44369, Note_on_c, 8, 62, 0
11, 44370, Note_on_c, 8, 64, 110
11, 44399, Note_on_c, 8, 64, 0
11, 44400, Note_on_c, 8, 66, 110
11, 44459, Note_on_c, 8, 66, 0
11, 44460, Note_on_c, 8, 66, 110
11, 44489, Note_on_c, 8, 66, 0
11, 44490, Note_on_c, 8, 64, 110
11, 44519, Note_on_c, 8, 64, 0
11, 44520, Note_on_c, 8, 59, 110
11, 44579, Note_on_c, 8, 59, 0
11, 44580, Note_on_c, 8, 64, 110
11, 44639, Note_on_c, 8, 64, 0
11, 44640, Note_on_c, 8, 61, 110
11, 44699, Note_on_c, 8, 61, 0
11, 44700, Note_on_c, 8, 61, 110
11, 44759, Note_on_c, 8, 61, 0
11, 44880, Note_on_c, 8, 56, 110
11, 44939, Note_on_c, 8, 56, 0
11, 44940, Note_on_c, 8, 61, 110
11, 44999, Note_on_c, 8, 61, 0
11, 45000, Note_on_c, 8, 57, 110
11, 45059, Note_on_c, 8, 57, 0
11, 45060, Note_on_c, 8, 54, 110
11, 45119, Note_on_c, 8, 54, 0
11, 45120, Note_on_c, 8, 59, 110
11, 45179, Note_on_c, 8, 59, 0
11, 45180, Note_on_c, 8, 54, 110
11, 45239, Note_on_c, 8, 54, 0
11, 45240, Note_on_c, 8, 56, 110
11, 45299, Note_on_c, 8, 56, 0
11, 45300, Note_on_c, 8, 56, 110
11, 45359, Note_on_c, 8, 56, 0
11, 45420, Note_on_c, 8, 61, 110
11, 45479, Note_on_c, 8, 61, 0
11, 45480, Note_on_c, 8, 58, 110
11, 45539, Note_on_c, 8, 58, 0
11, 45540, Note_on_c, 8, 58, 110
11, 45599, Note_on_c, 8, 58, 0
11, 45600, Note_on_c, 8, 59, 110
11, 45659, Note_on_c, 8, 59, 0
11, 45660, Note_on_c, 8, 61, 110
11, 45719, Note_on_c, 8, 61, 0
11, 45720, Note_on_c, 8, 62, 110
11, 45749, Note_on_c, 8, 62, 0
11, 45750, Note_on_c, 8, 61, 110
11, 45779, Note_on_c, 8, 61, 0
11, 45780, Note_on_c, 8, 59, 110
11, 45839, Note_on_c, 8, 59, 0
11, 45900, Note_on_c, 8, 64, 110
11, 45959, Note_on_c, 8, 64, 0
11, 45960, Note_on_c, 8, 62, 110
11, 46019, Note_on_c, 8, 62, 0
11, 46020, Note_on_c, 8, 61, 110
11, 46079, Note_on_c, 8, 61, 0
11, 89100, Note_on_c, 8, 66, 110
11, 89129, Note_on_c, 8, 66, 0
11, 89130, Note_on_c, 8, 61, 110
11, 89159, Note_on_c, 8, 61, 0
11, 89160, Note_on_c, 8, 57, 110
11, 89219, Note_on_c, 8, 57, 0
11, 89220, Note_on_c, 8, 59, 110
11, 89279, Note_on_c, 8, 59, 0
11, 89280, Note_on_c, 8, 61, 110
11, 89339, Note_on_c, 8, 61, 0
11, 89340, Note_on_c, 8, 61, 110
11, 89369, Note_on_c, 8, 61, 0
11, 89370, Note_on_c, 8, 61, 110
11, 89399, Note_on_c, 8, 61, 0
11, 89400, Note_on_c, 8, 57, 110
11, 89459, Note_on_c, 8, 57, 0
11, 89460, Note_on_c, 8, 54, 110
11, 89519, Note_on_c, 8, 54, 0
11, 89520, Note_on_c, 8, 63, 110
11, 89579, Note_on_c, 8, 63, 0
11, 89580, Note_on_c, 8, 63, 110
11, 89639, Note_on_c, 8, 63, 0
11, 89640, Note_on_c, 8, 60, 110
11, 89699, Note_on_c, 8, 60, 0
11, 89700, Note_on_c, 8, 61, 110
11, 89729, Note_on_c, 8, 61, 0
11, 89730, Note_on_c, 8, 63, 110
11, 89759, Note_on_c, 8, 63, 0
11, 89760, Note_on_c, 8, 64, 110
11, 89879, Note_on_c, 8, 64, 0
11, 89940, Note_on_c, 8, 61, 110
11, 89999, Note_on_c, 8, 61, 0
11, 90000, Note_on_c, 8, 68, 110
11, 90059, Note_on_c, 8, 68, 0
11, 90060, Note_on_c, 8, 68, 110
11, 90119, Note_on_c, 8, 68, 0
11, 90180, Note_on_c, 8, 68, 110
11, 90239, Note_on_c, 8, 68, 0
11, 90240, Note_on_c, 8, 65, 110
11, 90299, Note_on_c, 8, 65, 0
11, 90300, Note_on_c, 8, 65, 110
11, 90359, Note_on_c, 8, 65, 0
11, 90360, Note_on_c, 8, 65, 110
11, 90419, Note_on_c, 8, 65, 0
11, 90420, Note_on_c, 8, 66, 110
11, 90479, Note_on_c, 8, 66, 0
11, 90480, Note_on_c, 8, 68, 110
11, 90539, Note_on_c, 8, 68, 0
11, 90540, Note_on_c, 8, 65, 110
11, 90599, Note_on_c, 8, 65, 0
11, 90600, Note_on_c, 8, 61, 110
11, 90659, Note_on_c, 8, 61, 0
11, 90660, Note_on_c, 8, 61, 110
11, 90689, Note_on_c, 8, 61, 0
11, 90690, Note_on_c, 8, 61, 110
11, 90719, Note_on_c, 8, 61, 0
11, 90720, Note_on_c, 8, 63, 110
11, 90779, Note_on_c, 8, 63, 0
11, 90780, Note_on_c, 8, 65, 110
11, 90839, Note_on_c, 8, 65, 0
11, 90840, Note_on_c, 8, 66, 110
11, 90899, Note_on_c, 8, 66, 0
11, 90900, Note_on_c, 8, 66, 110
11, 90959, Note_on_c, 8, 66, 0
11, 91020, Note_on_c, 8, 61, 110
11, 91049, Note_on_c, 8, 61, 0
11, 91050, Note_on_c, 8, 54, 110
11, 91079, Note_on_c, 8, 54, 0
11, 91080, Note_on_c, 8, 64, 110
11, 91139, Note_on_c, 8, 64, 0
11, 91140, Note_on_c, 8, 63, 110
11, 91199, Note_on_c, 8, 63, 0
11, 91200, Note_on_c, 8, 63, 110
11, 91259, Note_on_c, 8, 63, 0
11, 91290, Note_on_c, 8, 63, 110
11, 91319, Note_on_c, 8, 63, 0
11, 91320, Note_on_c, 8, 66, 110
11, 91379, Note_on_c, 8, 66, 0
11, 91380, Note_on_c, 8, 59, 110
11, 91439, Note_on_c, 8, 59, 0
11, 91440, Note_on_c, 8, 64, 110
11, 91559, Note_on_c, 8, 64, 0
11, 91620, Note_on_c, 8, 52, 110
11, 91679, Note_on_c, 8, 52, 0
11, 91680, Note_on_c, 8, 62, 110
11, 91739, Note_on_c, 8, 62, 0
11, 91740, Note_on_c, 8, 66, 110
11, 91769, Note_on_c, 8, 66, 0
11, 91770, Note_on_c, 8, 62, 110
11, 91799, Note_on_c, 8, 62, 0
11, 91800, Note_on_c, 8, 59, 110
11, 91859, Note_on_c, 8, 59, 0
11, 91860, Note_on_c, 8, 59, 110
11, 91919, Note_on_c, 8, 59, 0
11, 91980, Note_on_c, 8, 59, 110
11, 92009, Note_on_c, 8, 59, 0
11, 92010, Note_on_c, 8, 61, 110
11, 92039, Note_on_c, 8, 61, 0
11, 92040, Note_on_c, 8, 62, 110
11, 92099, Note_on_c, 8, 62, 0
11, 92100, Note_on_c, 8, 61, 110
11, 92159, Note_on_c, 8, 61, 0
11, 92160, Note_on_c, 8, 61, 110
11, 92279, Note_on_c, 8, 61, 0
11, 92340, Note_on_c, 8, 57, 110
11, 92369, Note_on_c, 8, 57, 0
11, 92370, Note_on_c, 8, 59, 110
11, 92399, Note_on_c, 8, 59, 0
11, 92400, Note_on_c, 8, 61, 110
11, 92459, Note_on_c, 8, 61, 0
11, 92460, Note_on_c, 8, 62, 110
11, 92519, Note_on_c, 8, 62, 0
11, 92520, Note_on_c, 8, 64, 110
11, 92579, Note_on_c, 8, 64, 0
11, 92580, Note_on_c, 8, 57, 110
11, 92639, Note_on_c, 8, 57, 0
11, 92700, Note_on_c, 8, 64, 110
11, 92729, Note_on_c, 8, 64, 0
11, 92730, Note_on_c, 8, 66, 110
11, 92759, Note_on_c, 8, 66, 0
11, 92760, Note_on_c, 8, 67, 110
11, 92819, Note_on_c, 8, 67, 0
11, 92820, Note_on_c, 8, 69, 110
11, 92849, Note_on_c, 8, 69, 0
11, 92850, Note_on_c, 8, 64, 110
11, 92879, Note_on_c, 8, 64, 0
11, 92880, Note_on_c, 8, 66, 110
11, 92939, Note_on_c, 8, 66, 0
11, 92940, Note_on_c, 8, 66, 110
11, 92999, Note_on_c, 8, 66, 0
11, 93060, Note_on_c, 8, 62, 110
11, 93119, Note_on_c, 8, 62, 0
11, 93120, Note_on_c, 8, 62, 110
11, 93179, Note_on_c, 8, 62, 0
11, 93180, Note_on_c, 8, 57, 110
11, 93239, Note_on_c, 8, 57, 0
11, 93240, Note_on_c, 8, 54, 110
11, 93299, Note_on_c, 8, 54, 0
11, 93300, Note_on_c, 8, 57, 110
11, 93359, Note_on_c, 8, 57, 0
11, 93360, Note_on_c, 8, 50, 110
11, 93419, Note_on_c, 8, 50, 0
11, 93450, Note_on_c, 8, 50, 110
11, 93479, Note_on_c, 8, 50, 0
11, 93480, Note_on_c, 8, 57, 110
11, 93539, Note_on_c, 8, 57, 0
11, 93540, Note_on_c, 8, 57, 110
11, 93569, Note_on_c, 8, 57, 0
11, 93570, Note_on_c, 8, 59, 110
11, 93599, Note_on_c, 8, 59, 0
11, 93600, Note_on_c, 8, 60, 110
11, 93659, Note_on_c, 8, 60, 0
11, 93660, Note_on_c, 8, 60, 110
11, 93719, Note_on_c, 8, 60, 0
11, 93720, Note_on_c, 8, 64, 110
11, 93779, Note_on_c, 8, 64, 0
11, 93780, Note_on_c, 8, 60, 110
11, 93839, Note_on_c, 8, 60, 0
11, 93840, Note_on_c, 8, 57, 110
11, 93899, Note_on_c, 8, 57, 0
11, 93900, Note_on_c, 8, 57, 110
11, 93959, Note_on_c, 8, 57, 0
11, 93960, Note_on_c, 8, 62, 110
11, 94019, Note_on_c, 8, 62, 0
11, 94020, Note_on_c, 8, 57, 110
11, 94079, Note_on_c, 8, 57, 0
11, 94080, Note_on_c, 8, 59, 110
11, 94139, Note_on_c, 8, 59, 0
11, 94140, Note_on_c, 8, 59, 110
11, 94199, Note_on_c, 8, 59, 0
11, 94260, Note_on_c, 8, 59, 110
11, 94319, Note_on_c, 8, 59, 0
11, 94320, Note_on_c, 8, 59, 110
11, 94379, Note_on_c, 8, 59, 0
11, 94380, Note_on_c, 8, 54, 110
11, 94439, Note_on_c, 8, 54, 0
11, 94440, Note_on_c, 8, 51, 110
11, 94499, Note_on_c, 8, 51, 0
11, 94500, Note_on_c, 8, 51, 110
11, 94529, Note_on_c, 8, 51, 0
11, 94530, Note_on_c, 8, 51, 110
11, 94559, Note_on_c, 8, 51, 0
11, 94560, Note_on_c, 8, 60, 110
11, 94619, Note_on_c, 8, 60, 0
11, 94620, Note_on_c, 8, 60, 110
11, 94679, Note_on_c, 8, 60, 0
11, 94680, Note_on_c, 8, 60, 110
11, 94739, Note_on_c, 8, 60, 0
11, 94740, Note_on_c, 8, 59, 110
11, 94799, Note_on_c, 8, 59, 0
11, 94800, Note_on_c, 8, 55, 110
11, 94859, Note_on_c, 8, 55, 0
11, 94890, Note_on_c, 8, 59, 110
11, 94919, Note_on_c, 8, 59, 0
11, 94920, Note_on_c, 8, 64, 110
11, 94979, Note_on_c, 8, 64, 0
11, 94980, Note_on_c, 8, 66, 110
11, 95039, Note_on_c, 8, 66, 0
11, 95040, Note_on_c, 8, 67, 110
11, 95099, Note_on_c, 8, 67, 0
11, 95100, Note_on_c, 8, 67, 110
11, 95159, Note_on_c, 8, 67, 0
11, 95160, Note_on_c, 8, 67, 110
11, 95219, Note_on_c, 8, 67, 0
11, 95220, Note_on_c, 8, 64, 110
11, 95279, Note_on_c, 8, 64, 0
11, 95280, Note_on_c, 8, 69, 110
11, 95339, Note_on_c, 8, 69, 0
11, 95460, Note_on_c, 8, 62, 110
11, 95519, Note_on_c, 8, 62, 0
11, 95520, Note_on_c, 8, 59, 110
11, 95579, Note_on_c, 8, 59, 0
11, 95580, Note_on_c, 8, 57, 110
11, 95609, Note_on_c, 8, 57, 0
11, 95610, Note_on_c, 8, 55, 110
11, 95639, Note_on_c, 8, 55, 0
11, 95640, Note_on_c, 8, 65, 110
11, 95699, Note_on_c, 8, 65, 0
11, 95760, Note_on_c, 8, 64, 110
11, 95819, Note_on_c, 8, 64, 0
11, 95820, Note_on_c, 8, 66, 110
11, 95879, Note_on_c, 8, 66, 0
11, 95940, Note_on_c, 8, 67, 110
11, 95999, Note_on_c, 8, 67, 0
11, 96000, Note_on_c, 8, 67, 110
11, 96059, Note_on_c, 8, 67, 0
11, 96060, Note_on_c, 8, 62, 110
11, 96119, Note_on_c, 8, 62, 0
11, 103980, Note_on_c, 8, 59, 110
11, 104040, Note_on_c, 8, 59, 0
11, 104040, Note_on_c, 8, 63, 110
11, 104100, Note_on_c, 8, 63, 0
11, 104100, Note_on_c, 8, 64, 110
11, 104160, Note_on_c, 8, 64, 0
11, 104160, Note_on_c, 8, 66, 110
11, 104280, Note_on_c, 8, 66, 0
11, 104280, Note_on_c, 8, 66, 110
11, 104340, Note_on_c, 8, 66, 0
11, 104340, Note_on_c, 8, 67, 110
11, 104370, Note_on_c, 8, 67, 0
11, 104370, Note_on_c, 8, 69, 110
11, 104400, Note_on_c, 8, 69, 0
11, 104400, Note_on_c, 8, 60, 110
11, 104460, Note_on_c, 8, 60, 0
11, 104490, Note_on_c, 8, 60, 110
11, 104520, Note_on_c, 8, 60, 0
11, 104520, Note_on_c, 8, 60, 110
11, 104580, Note_on_c, 8, 60, 0
11, 104580, Note_on_c, 8, 60, 110
11, 104610, Note_on_c, 8, 60, 0
11, 104610, Note_on_c, 8, 57, 110
11, 104640, Note_on_c, 8, 57, 0
11, 104640, Note_on_c, 8, 54, 110
11, 104700, Note_on_c, 8, 54, 0
11, 104700, Note_on_c, 8, 54, 110
11, 104760, Note_on_c, 8, 54, 0
11, 104760, Note_on_c, 8, 54, 110
11, 104820, Note_on_c, 8, 54, 0
11, 104820, Note_on_c, 8, 55, 110
11, 104880, Note_on_c, 8, 55, 0
11, 104880, Note_on_c, 8, 57, 110
11, 104940, Note_on_c, 8, 57, 0
11, 104940, Note_on_c, 8, 54, 110
11, 105000, Note_on_c, 8, 54, 0
11, 105000, Note_on_c, 8, 51, 110
11, 105060, Note_on_c, 8, 51, 0
11, 105060, Note_on_c, 8, 54, 110
11, 105120, Note_on_c, 8, 54, 0
11, 105120, Note_on_c, 8, 55, 110
11, 105180, Note_on_c, 8, 55, 0
11, 105180, Note_on_c, 8, 55, 110
11, 105240, Note_on_c, 8, 55, 0
11, 105300, Note_on_c, 8, 59, 110
11, 105360, Note_on_c, 8, 59, 0
11, 105360, Note_on_c, 8, 64, 110
11, 105420, Note_on_c, 8, 64, 0
11, 105420, Note_on_c, 8, 64, 110
11, 105450, Note_on_c, 8, 64, 0
11, 105450, Note_on_c, 8, 64, 110
11, 105480, Note_on_c, 8, 64, 0
11, 105480, Note_on_c, 8, 64, 110
11, 105540, Note_on_c, 8, 64, 0
11, 105540, Note_on_c, 8, 66, 110
11, 105600, Note_on_c, 8, 66, 0
11, 105600, Note_on_c, 8, 68, 110
11, 105660, Note_on_c, 8, 68, 0
11, 105660, Note_on_c, 8, 59, 110
11, 105720, Note_on_c, 8, 59, 0
11, 105720, Note_on_c, 8, 62, 110
11, 105780, Note_on_c, 8, 62, 0
11, 105900, Note_on_c, 8, 61, 110
11, 105930, Note_on_c, 8, 61, 0
11, 105930, Note_on_c, 8, 54, 110
11, 105960, Note_on_c, 8, 54, 0
11, 105960, Note_on_c, 8, 59, 110
11, 106020, Note_on_c, 8, 59, 0
11, 106020, Note_on_c, 8, 57, 110
11, 106080, Note_on_c, 8, 57, 0
11, 106080, Note_on_c, 8, 54, 110
11, 106200, Note_on_c, 8, 54, 0
11, 106200, End_track
12, 0, Start_track
12, 0, MIDI_port, 0
12, 0, Title_t, "Herodes"
12, 0, Control_c, 13, 7, 127
12, 0, Control_c, 13, 10, 81
12, 46200, Control_c, 13, 0, 20
12, 46200, Program_c, 13, 67
12, 46260, Note_on_c, 13, 54, 110
12, 46289, Note_on_c, 13, 54, 0
12, 46290, Note_on_c, 13, 56, 110
12, 46319, Note_on_c, 13, 56, 0
12, 46320, Note_on_c, 13, 58, 110
12, 46379, Note_on_c, 13, 58, 0
12, 46500, Note_on_c, 13, 54, 110
12, 46559, Note_on_c, 13, 54, 0
12, 46560, Note_on_c, 13, 64, 110
12, 46619, Note_on_c, 13, 64, 0
12, 46620, Note_on_c, 13, 61, 110
12, 46679, Note_on_c, 13, 61, 0
12, 46680, Note_on_c, 13, 58, 110
12, 46739, Note_on_c, 13, 58, 0
12, 46740, Note_on_c, 13, 58, 110
12, 46799, Note_on_c, 13, 58, 0
12, 46800, Note_on_c, 13, 59, 110
12, 46859, Note_on_c, 13, 59, 0
12, 46860, Note_on_c, 13, 61, 110
12, 46919, Note_on_c, 13, 61, 0
12, 46920, Note_on_c, 13, 62, 110
12, 46979, Note_on_c, 13, 62, 0
12, 46980, Note_on_c, 13, 62, 110
12, 47039, Note_on_c, 13, 62, 0
12, 47100, Note_on_c, 13, 59, 110
12, 47159, Note_on_c, 13, 59, 0
12, 47160, Note_on_c, 13, 59, 110
12, 47219, Note_on_c, 13, 59, 0
12, 47220, Note_on_c, 13, 55, 110
12, 47279, Note_on_c, 13, 55, 0
12, 47280, Note_on_c, 13, 52, 110
12, 47339, Note_on_c, 13, 52, 0
12, 47340, Note_on_c, 13, 52, 110
12, 47399, Note_on_c, 13, 52, 0
12, 47460, Note_on_c, 13, 57, 110
12, 47489, Note_on_c, 13, 57, 0
12, 47490, Note_on_c, 13, 52, 110
12, 47519, Note_on_c, 13, 52, 0
12, 47520, Note_on_c, 13, 54, 110
12, 47579, Note_on_c, 13, 54, 0
12, 47580, Note_on_c, 13, 54, 110
12, 47639, Note_on_c, 13, 54, 0
12, 47700, Note_on_c, 13, 54, 110
12, 47759, Note_on_c, 13, 54, 0
12, 47760, Note_on_c, 13, 57, 110
12, 47819, Note_on_c, 13, 57, 0
12, 47820, Note_on_c, 13, 50, 110
12, 47879, Note_on_c, 13, 50, 0
12, 47880, Note_on_c, 13, 59, 110
12, 47939, Note_on_c, 13, 59, 0
12, 47940, Note_on_c, 13, 59, 110
12, 47969, Note_on_c, 13, 59, 0
12, 47970, Note_on_c, 13, 59, 110
12, 47999, Note_on_c, 13, 59, 0
12, 48000, Note_on_c, 13, 61, 110
12, 48059, Note_on_c, 13, 61, 0
12, 48060, Note_on_c, 13, 62, 110
12, 48119, Note_on_c, 13, 62, 0
12, 48120, Note_on_c, 13, 62, 110
12, 48209, Note_on_c, 13, 62, 0
12, 48210, Note_on_c, 13, 61, 110
12, 48224, Note_on_c, 13, 61, 0
12, 48225, Note_on_c, 13, 59, 110
12, 48239, Note_on_c, 13, 59, 0
12, 48240, Note_on_c, 13, 57, 110
12, 48359, Note_on_c, 13, 57, 0
12, 48359, End_track
13, 0, Start_track
13, 0, MIDI_port, 0
13, 0, Title_t, "Soprano"
13, 0, Program_c, 10, 52
13, 0, Control_c, 10, 7, 127
13, 0, Control_c, 10, 10, 4
13, 10200, Note_on_c, 10, 69, 110
13, 10259, Note_on_c, 10, 69, 0
13, 10260, Note_on_c, 10, 74, 110
13, 10379, Note_on_c, 10, 74, 0
13, 10380, Note_on_c, 10, 69, 110
13, 10439, Note_on_c, 10, 69, 0
13, 10440, Note_on_c, 10, 76, 110
13, 10559, Note_on_c, 10, 76, 0
13, 10560, Note_on_c, 10, 69, 110
13, 10619, Note_on_c, 10, 69, 0
13, 10620, Note_on_c, 10, 78, 110
13, 10679, Note_on_c, 10, 78, 0
13, 10680, Note_on_c, 10, 76, 110
13, 10709, Note_on_c, 10, 76, 0
13, 10710, Note_on_c, 10, 78, 110
13, 10739, Note_on_c, 10, 78, 0
13, 10740, Note_on_c, 10, 79, 110
13, 10769, Note_on_c, 10, 79, 0
13, 10770, Note_on_c, 10, 76, 110
13, 10799, Note_on_c, 10, 76, 0
13, 10800, Note_on_c, 10, 79, 110
13, 10829, Note_on_c, 10, 79, 0
13, 10830, Note_on_c, 10, 78, 110
13, 10859, Note_on_c, 10, 78, 0
13, 10860, Note_on_c, 10, 76, 110
13, 10889, Note_on_c, 10, 76, 0
13, 10890, Note_on_c, 10, 74, 110
13, 10919, Note_on_c, 10, 74, 0
13, 10920, Note_on_c, 10, 78, 110
13, 10949, Note_on_c, 10, 78, 0
13, 10950, Note_on_c, 10, 74, 110
13, 10979, Note_on_c, 10, 74, 0
13, 10980, Note_on_c, 10, 78, 110
13, 11009, Note_on_c, 10, 78, 0
13, 11010, Note_on_c, 10, 76, 110
13, 11039, Note_on_c, 10, 76, 0
13, 11040, Note_on_c, 10, 74, 110
13, 11069, Note_on_c, 10, 74, 0
13, 11070, Note_on_c, 10, 73, 110
13, 11099, Note_on_c, 10, 73, 0
13, 11100, Note_on_c, 10, 76, 110
13, 11129, Note_on_c, 10, 76, 0
13, 11130, Note_on_c, 10, 73, 110
13, 11159, Note_on_c, 10, 73, 0
13, 11160, Note_on_c, 10, 76, 110
13, 11189, Note_on_c, 10, 76, 0
13, 11190, Note_on_c, 10, 74, 110
13, 11219, Note_on_c, 10, 74, 0
13, 11220, Note_on_c, 10, 73, 110
13, 11249, Note_on_c, 10, 73, 0
13, 11250, Note_on_c, 10, 71, 110
13, 11279, Note_on_c, 10, 71, 0
13, 11280, Note_on_c, 10, 74, 110
13, 11309, Note_on_c, 10, 74, 0
13, 11310, Note_on_c, 10, 71, 110
13, 11339, Note_on_c, 10, 71, 0
13, 11340, Note_on_c, 10, 76, 110
13, 11399, Note_on_c, 10, 76, 0
13, 11400, Note_on_c, 10, 74, 110
13, 11429, Note_on_c, 10, 74, 0
13, 11430, Note_on_c, 10, 73, 110
13, 11459, Note_on_c, 10, 73, 0
13, 11460, Note_on_c, 10, 71, 110
13, 11489, Note_on_c, 10, 71, 0
13, 11490, Note_on_c, 10, 73, 110
13, 11519, Note_on_c, 10, 73, 0
13, 11520, Note_on_c, 10, 69, 110
13, 11940, Note_on_c, 10, 69, 0
13, 11940, Note_on_c, 10, 73, 110
13, 11999, Note_on_c, 10, 73, 0
13, 12000, Note_on_c, 10, 76, 110
13, 12059, Note_on_c, 10, 76, 0
13, 12060, Note_on_c, 10, 74, 110
13, 12119, Note_on_c, 10, 74, 0
13, 12120, Note_on_c, 10, 76, 110
13, 12149, Note_on_c, 10, 76, 0
13, 12150, Note_on_c, 10, 74, 110
13, 12179, Note_on_c, 10, 74, 0
13, 12180, Note_on_c, 10, 76, 110
13, 12209, Note_on_c, 10, 76, 0
13, 12210, Note_on_c, 10, 73, 110
13, 12239, Note_on_c, 10, 73, 0
13, 12240, Note_on_c, 10, 74, 110
13, 12299, Note_on_c, 10, 74, 0
13, 12300, Note_on_c, 10, 74, 110
13, 12359, Note_on_c, 10, 74, 0
13, 13800, Note_on_c, 10, 69, 110
13, 13859, Note_on_c, 10, 69, 0
13, 13860, Note_on_c, 10, 74, 110
13, 13979, Note_on_c, 10, 74, 0
13, 13980, Note_on_c, 10, 69, 110
13, 14039, Note_on_c, 10, 69, 0
13, 14040, Note_on_c, 10, 76, 110
13, 14159, Note_on_c, 10, 76, 0
13, 14160, Note_on_c, 10, 69, 110
13, 14219, Note_on_c, 10, 69, 0
13, 14220, Note_on_c, 10, 78, 110
13, 14279, Note_on_c, 10, 78, 0
13, 14280, Note_on_c, 10, 76, 110
13, 14309, Note_on_c, 10, 76, 0
13, 14310, Note_on_c, 10, 78, 110
13, 14339, Note_on_c, 10, 78, 0
13, 14340, Note_on_c, 10, 79, 110
13, 14369, Note_on_c, 10, 79, 0
13, 14370, Note_on_c, 10, 76, 110
13, 14399, Note_on_c, 10, 76, 0
13, 14400, Note_on_c, 10, 79, 110
13, 14429, Note_on_c, 10, 79, 0
13, 14430, Note_on_c, 10, 78, 110
13, 14459, Note_on_c, 10, 78, 0
13, 14460, Note_on_c, 10, 76, 110
13, 14489, Note_on_c, 10, 76, 0
13, 14490, Note_on_c, 10, 74, 110
13, 14519, Note_on_c, 10, 74, 0
13, 14520, Note_on_c, 10, 78, 110
13, 14549, Note_on_c, 10, 78, 0
13, 14550, Note_on_c, 10, 74, 110
13, 14579, Note_on_c, 10, 74, 0
13, 14580, Note_on_c, 10, 78, 110
13, 14609, Note_on_c, 10, 78, 0
13, 14610, Note_on_c, 10, 76, 110
13, 14639, Note_on_c, 10, 76, 0
13, 14640, Note_on_c, 10, 74, 110
13, 14669, Note_on_c, 10, 74, 0
13, 14670, Note_on_c, 10, 73, 110
13, 14699, Note_on_c, 10, 73, 0
13, 14700, Note_on_c, 10, 76, 110
13, 14729, Note_on_c, 10, 76, 0
13, 14730, Note_on_c, 10, 73, 110
13, 14759, Note_on_c, 10, 73, 0
13, 14760, Note_on_c, 10, 76, 110
13, 14789, Note_on_c, 10, 76, 0
13, 14790, Note_on_c, 10, 74, 110
13, 14819, Note_on_c, 10, 74, 0
13, 14820, Note_on_c, 10, 73, 110
13, 14849, Note_on_c, 10, 73, 0
13, 14850, Note_on_c, 10, 71, 110
13, 14879, Note_on_c, 10, 71, 0
13, 14880, Note_on_c, 10, 74, 110
13, 14909, Note_on_c, 10, 74, 0
13, 14910, Note_on_c, 10, 71, 110
13, 14939, Note_on_c, 10, 71, 0
13, 14940, Note_on_c, 10, 76, 110
13, 14999, Note_on_c, 10, 76, 0
13, 15000, Note_on_c, 10, 74, 110
13, 15029, Note_on_c, 10, 74, 0
13, 15030, Note_on_c, 10, 73, 110
13, 15059, Note_on_c, 10, 73, 0
13, 15060, Note_on_c, 10, 71, 110
13, 15089, Note_on_c, 10, 71, 0
13, 15090, Note_on_c, 10, 73, 110
13, 15119, Note_on_c, 10, 73, 0
13, 15120, Note_on_c, 10, 69, 110
13, 15540, Note_on_c, 10, 69, 0
13, 15540, Note_on_c, 10, 73, 110
13, 15599, Note_on_c, 10, 73, 0
13, 15600, Note_on_c, 10, 76, 110
13, 15659, Note_on_c, 10, 76, 0
13, 15660, Note_on_c, 10, 74, 110
13, 15719, Note_on_c, 10, 74, 0
13, 15720, Note_on_c, 10, 76, 110
13, 15749, Note_on_c, 10, 76, 0
13, 15750, Note_on_c, 10, 74, 110
13, 15779, Note_on_c, 10, 74, 0
13, 15780, Note_on_c, 10, 76, 110
13, 15809, Note_on_c, 10, 76, 0
13, 15810, Note_on_c, 10, 73, 110
13, 15839, Note_on_c, 10, 73, 0
13, 15840, Note_on_c, 10, 74, 110
13, 15899, Note_on_c, 10, 74, 0
13, 15900, Note_on_c, 10, 74, 110
13, 15959, Note_on_c, 10, 74, 0
13, 16680, Note_on_c, 10, 71, 110
13, 16739, Note_on_c, 10, 71, 0
13, 16740, Note_on_c, 10, 73, 110
13, 16799, Note_on_c, 10, 73, 0
13, 16800, Note_on_c, 10, 78, 110
13, 16829, Note_on_c, 10, 78, 0
13, 16830, Note_on_c, 10, 76, 110
13, 16859, Note_on_c, 10, 76, 0
13, 16860, Note_on_c, 10, 74, 110
13, 16889, Note_on_c, 10, 74, 0
13, 16890, Note_on_c, 10, 73, 110
13, 16919, Note_on_c, 10, 73, 0
13, 16920, Note_on_c, 10, 71, 110
13, 16979, Note_on_c, 10, 71, 0
13, 16980, Note_on_c, 10, 76, 110
13, 17009, Note_on_c, 10, 76, 0
13, 17010, Note_on_c, 10, 74, 110
13, 17039, Note_on_c, 10, 74, 0
13, 17040, Note_on_c, 10, 73, 110
13, 17069, Note_on_c, 10, 73, 0
13, 17070, Note_on_c, 10, 71, 110
13, 17099, Note_on_c, 10, 71, 0
13, 17100, Note_on_c, 10, 69, 110
13, 17159, Note_on_c, 10, 69, 0
13, 17160, Note_on_c, 10, 74, 110
13, 17219, Note_on_c, 10, 74, 0
13, 17220, Note_on_c, 10, 73, 110
13, 17279, Note_on_c, 10, 73, 0
13, 17280, Note_on_c, 10, 71, 110
13, 17519, Note_on_c, 10, 71, 0
13, 17520, Note_on_c, 10, 69, 110
13, 17579, Note_on_c, 10, 69, 0
13, 17580, Note_on_c, 10, 68, 110
13, 17639, Note_on_c, 10, 68, 0
13, 17640, Note_on_c, 10, 73, 110
13, 17669, Note_on_c, 10, 73, 0
13, 17670, Note_on_c, 10, 74, 110
13, 17699, Note_on_c, 10, 74, 0
13, 17700, Note_on_c, 10, 76, 110
13, 17759, Note_on_c, 10, 76, 0
13, 17760, Note_on_c, 10, 69, 110
13, 17819, Note_on_c, 10, 69, 0
13, 17820, Note_on_c, 10, 74, 110
13, 17879, Note_on_c, 10, 74, 0
13, 17880, Note_on_c, 10, 78, 110
13, 17939, Note_on_c, 10, 78, 0
13, 17940, Note_on_c, 10, 76, 110
13, 17999, Note_on_c, 10, 76, 0
13, 18000, Note_on_c, 10, 78, 110
13, 18029, Note_on_c, 10, 78, 0
13, 18030, Note_on_c, 10, 76, 110
13, 18059, Note_on_c, 10, 76, 0
13, 18060, Note_on_c, 10, 78, 110
13, 18089, Note_on_c, 10, 78, 0
13, 18090, Note_on_c, 10, 79, 110
13, 18119, Note_on_c, 10, 79, 0
13, 18120, Note_on_c, 10, 81, 110
13, 18179, Note_on_c, 10, 81, 0
13, 18180, Note_on_c, 10, 74, 110
13, 18239, Note_on_c, 10, 74, 0
13, 18240, Note_on_c, 10, 72, 110
13, 18269, Note_on_c, 10, 72, 0
13, 18270, Note_on_c, 10, 71, 110
13, 18299, Note_on_c, 10, 71, 0
13, 18300, Note_on_c, 10, 69, 110
13, 18329, Note_on_c, 10, 69, 0
13, 18330, Note_on_c, 10, 67, 110
13, 18359, Note_on_c, 10, 67, 0
13, 18360, Note_on_c, 10, 74, 110
13, 18479, Note_on_c, 10, 74, 0
13, 18480, Note_on_c, 10, 66, 110
13, 18539, Note_on_c, 10, 66, 0
13, 18540, Note_on_c, 10, 67, 110
13, 18659, Note_on_c, 10, 67, 0
13, 19380, Note_on_c, 10, 74, 110
13, 19499, Note_on_c, 10, 74, 0
13, 19500, Note_on_c, 10, 73, 110
13, 19529, Note_on_c, 10, 73, 0
13, 19530, Note_on_c, 10, 74, 110
13, 19559, Note_on_c, 10, 74, 0
13, 19560, Note_on_c, 10, 76, 110
13, 19589, Note_on_c, 10, 76, 0
13, 19590, Note_on_c, 10, 73, 110
13, 19619, Note_on_c, 10, 73, 0
13, 19620, Note_on_c, 10, 74, 110
13, 19649, Note_on_c, 10, 74, 0
13, 19650, Note_on_c, 10, 73, 110
13, 19679, Note_on_c, 10, 73, 0
13, 19680, Note_on_c, 10, 71, 110
13, 19739, Note_on_c, 10, 71, 0
13, 19740, Note_on_c, 10, 76, 110
13, 19799, Note_on_c, 10, 76, 0
13, 19800, Note_on_c, 10, 73, 110
13, 19859, Note_on_c, 10, 73, 0
13, 19860, Note_on_c, 10, 74, 110
13, 19919, Note_on_c, 10, 74, 0
13, 19920, Note_on_c, 10, 69, 110
13, 19979, Note_on_c, 10, 69, 0
13, 19980, Note_on_c, 10, 71, 110
13, 20039, Note_on_c, 10, 71, 0
13, 20040, Note_on_c, 10, 73, 110
13, 20099, Note_on_c, 10, 73, 0
13, 20100, Note_on_c, 10, 74, 110
13, 20159, Note_on_c, 10, 74, 0
13, 20160, Note_on_c, 10, 73, 110
13, 20219, Note_on_c, 10, 73, 0
13, 20220, Note_on_c, 10, 69, 110
13, 20279, Note_on_c, 10, 69, 0
13, 20280, Note_on_c, 10, 76, 110
13, 20339, Note_on_c, 10, 76, 0
13, 20340, Note_on_c, 10, 76, 110
13, 20399, Note_on_c, 10, 76, 0
13, 20400, Note_on_c, 10, 74, 110
13, 20459, Note_on_c, 10, 74, 0
13, 20460, Note_on_c, 10, 73, 110
13, 20519, Note_on_c, 10, 73, 0
13, 20520, Note_on_c, 10, 78, 110
13, 20579, Note_on_c, 10, 78, 0
13, 20580, Note_on_c, 10, 76, 110
13, 20639, Note_on_c, 10, 76, 0
13, 20640, Note_on_c, 10, 74, 110
13, 20699, Note_on_c, 10, 74, 0
13, 20700, Note_on_c, 10, 73, 110
13, 20759, Note_on_c, 10, 73, 0
13, 20760, Note_on_c, 10, 74, 110
13, 20819, Note_on_c, 10, 74, 0
13, 20820, Note_on_c, 10, 71, 110
13, 20879, Note_on_c, 10, 71, 0
13, 20880, Note_on_c, 10, 69, 110
13, 20939, Note_on_c, 10, 69, 0
13, 24600, Note_on_c, 10, 71, 110
13, 24659, Note_on_c, 10, 71, 0
13, 24660, Note_on_c, 10, 76, 110
13, 24779, Note_on_c, 10, 76, 0
13, 24780, Note_on_c, 10, 76, 110
13, 24839, Note_on_c, 10, 76, 0
13, 24840, Note_on_c, 10, 76, 110
13, 24899, Note_on_c, 10, 76, 0
13, 24900, Note_on_c, 10, 73, 110
13, 24929, Note_on_c, 10, 73, 0
13, 24930, Note_on_c, 10, 74, 110
13, 24959, Note_on_c, 10, 74, 0
13, 24960, Note_on_c, 10, 76, 110
13, 25019, Note_on_c, 10, 76, 0
13, 25020, Note_on_c, 10, 70, 110
13, 25079, Note_on_c, 10, 70, 0
13, 25080, Note_on_c, 10, 71, 110
13, 25139, Note_on_c, 10, 71, 0
13, 25140, Note_on_c, 10, 73, 110
13, 25199, Note_on_c, 10, 73, 0
13, 25200, Note_on_c, 10, 76, 110
13, 25229, Note_on_c, 10, 76, 0
13, 25230, Note_on_c, 10, 74, 110
13, 25259, Note_on_c, 10, 74, 0
13, 25260, Note_on_c, 10, 78, 110
13, 25289, Note_on_c, 10, 78, 0
13, 25290, Note_on_c, 10, 76, 110
13, 25319, Note_on_c, 10, 76, 0
13, 25320, Note_on_c, 10, 74, 110
13, 25349, Note_on_c, 10, 74, 0
13, 25350, Note_on_c, 10, 73, 110
13, 25379, Note_on_c, 10, 73, 0
13, 25380, Note_on_c, 10, 74, 110
13, 25590, Note_on_c, 10, 74, 0
13, 25590, Note_on_c, 10, 71, 110
13, 25619, Note_on_c, 10, 71, 0
13, 25620, Note_on_c, 10, 74, 110
13, 25649, Note_on_c, 10, 74, 0
13, 25650, Note_on_c, 10, 73, 110
13, 25679, Note_on_c, 10, 73, 0
13, 25680, Note_on_c, 10, 71, 110
13, 25709, Note_on_c, 10, 71, 0
13, 25710, Note_on_c, 10, 69, 110
13, 25739, Note_on_c, 10, 69, 0
13, 25740, Note_on_c, 10, 71, 110
13, 25769, Note_on_c, 10, 71, 0
13, 25770, Note_on_c, 10, 68, 110
13, 25799, Note_on_c, 10, 68, 0
13, 25800, Note_on_c, 10, 76, 110
13, 25829, Note_on_c, 10, 76, 0
13, 25830, Note_on_c, 10, 74, 110
13, 25859, Note_on_c, 10, 74, 0
13, 25860, Note_on_c, 10, 73, 110
13, 25889, Note_on_c, 10, 73, 0
13, 25890, Note_on_c, 10, 71, 110
13, 25919, Note_on_c, 10, 71, 0
13, 25920, Note_on_c, 10, 73, 110
13, 25949, Note_on_c, 10, 73, 0
13, 25950, Note_on_c, 10, 71, 110
13, 25979, Note_on_c, 10, 71, 0
13, 25980, Note_on_c, 10, 74, 110
13, 26009, Note_on_c, 10, 74, 0
13, 26010, Note_on_c, 10, 73, 110
13, 26039, Note_on_c, 10, 73, 0
13, 26040, Note_on_c, 10, 71, 110
13, 26069, Note_on_c, 10, 71, 0
13, 26070, Note_on_c, 10, 69, 110
13, 26099, Note_on_c, 10, 69, 0
13, 26100, Note_on_c, 10, 76, 110
13, 26129, Note_on_c, 10, 76, 0
13, 26130, Note_on_c, 10, 75, 110
13, 26159, Note_on_c, 10, 75, 0
13, 26160, Note_on_c, 10, 78, 110
13, 26189, Note_on_c, 10, 78, 0
13, 26190, Note_on_c, 10, 76, 110
13, 26219, Note_on_c, 10, 76, 0
13, 26220, Note_on_c, 10, 75, 110
13, 26249, Note_on_c, 10, 75, 0
13, 26250, Note_on_c, 10, 73, 110
13, 26279, Note_on_c, 10, 73, 0
13, 26280, Note_on_c, 10, 78, 110
13, 26490, Note_on_c, 10, 78, 0
13, 26490, Note_on_c, 10, 76, 110
13, 26519, Note_on_c, 10, 76, 0
13, 26520, Note_on_c, 10, 79, 110
13, 26549, Note_on_c, 10, 79, 0
13, 26550, Note_on_c, 10, 78, 110
13, 26579, Note_on_c, 10, 78, 0
13, 26580, Note_on_c, 10, 76, 110
13, 26609, Note_on_c, 10, 76, 0
13, 26610, Note_on_c, 10, 75, 110
13, 26639, Note_on_c, 10, 75, 0
13, 26640, Note_on_c, 10, 76, 110
13, 26699, Note_on_c, 10, 76, 0
13, 26700, Note_on_c, 10, 71, 110
13, 26759, Note_on_c, 10, 71, 0
13, 26760, Note_on_c, 10, 75, 110
13, 26819, Note_on_c, 10, 75, 0
13, 26820, Note_on_c, 10, 76, 110
13, 26939, Note_on_c, 10, 76, 0
13, 26940, Note_on_c, 10, 76, 110
13, 26999, Note_on_c, 10, 76, 0
13, 27000, Note_on_c, 10, 76, 110
13, 27119, Note_on_c, 10, 76, 0
13, 27120, Note_on_c, 10, 76, 110
13, 27179, Note_on_c, 10, 76, 0
13, 27180, Note_on_c, 10, 76, 110
13, 27239, Note_on_c, 10, 76, 0
13, 27240, Note_on_c, 10, 78, 110
13, 27269, Note_on_c, 10, 78, 0
13, 27270, Note_on_c, 10, 76, 110
13, 27299, Note_on_c, 10, 76, 0
13, 27300, Note_on_c, 10, 74, 110
13, 27329, Note_on_c, 10, 74, 0
13, 27330, Note_on_c, 10, 73, 110
13, 27359, Note_on_c, 10, 73, 0
13, 27360, Note_on_c, 10, 74, 110
13, 27419, Note_on_c, 10, 74, 0
13, 27420, Note_on_c, 10, 69, 110
13, 27479, Note_on_c, 10, 69, 0
13, 27480, Note_on_c, 10, 78, 110
13, 27539, Note_on_c, 10, 78, 0
13, 27540, Note_on_c, 10, 71, 110
13, 27599, Note_on_c, 10, 71, 0
13, 27600, Note_on_c, 10, 76, 110
13, 27659, Note_on_c, 10, 76, 0
13, 27660, Note_on_c, 10, 74, 110
13, 27719, Note_on_c, 10, 74, 0
13, 27720, Note_on_c, 10, 79, 110
13, 27779, Note_on_c, 10, 79, 0
13, 27780, Note_on_c, 10, 78, 110
13, 27839, Note_on_c, 10, 78, 0
13, 27840, Note_on_c, 10, 76, 110
13, 27899, Note_on_c, 10, 76, 0
13, 27900, Note_on_c, 10, 74, 110
13, 27959, Note_on_c, 10, 74, 0
13, 27960, Note_on_c, 10, 76, 110
13, 28019, Note_on_c, 10, 76, 0
13, 28020, Note_on_c, 10, 73, 110
13, 28079, Note_on_c, 10, 73, 0
13, 28080, Note_on_c, 10, 71, 110
13, 28139, Note_on_c, 10, 71, 0
13, 28500, Note_on_c, 10, 73, 110
13, 28559, Note_on_c, 10, 73, 0
13, 28560, Note_on_c, 10, 73, 110
13, 28619, Note_on_c, 10, 73, 0
13, 28620, Note_on_c, 10, 74, 110
13, 28679, Note_on_c, 10, 74, 0
13, 28680, Note_on_c, 10, 78, 110
13, 28709, Note_on_c, 10, 78, 0
13, 28710, Note_on_c, 10, 76, 110
13, 28739, Note_on_c, 10, 76, 0
13, 28740, Note_on_c, 10, 74, 110
13, 28769, Note_on_c, 10, 74, 0
13, 28770, Note_on_c, 10, 73, 110
13, 28799, Note_on_c, 10, 73, 0
13, 28800, Note_on_c, 10, 71, 110
13, 28919, Note_on_c, 10, 71, 0
13, 29640, Note_on_c, 10, 69, 110
13, 29699, Note_on_c, 10, 69, 0
13, 29700, Note_on_c, 10, 74, 110
13, 29819, Note_on_c, 10, 74, 0
13, 29820, Note_on_c, 10, 69, 110
13, 29879, Note_on_c, 10, 69, 0
13, 29880, Note_on_c, 10, 76, 110
13, 29999, Note_on_c, 10, 76, 0
13, 30000, Note_on_c, 10, 69, 110
13, 30059, Note_on_c, 10, 69, 0
13, 30060, Note_on_c, 10, 78, 110
13, 30119, Note_on_c, 10, 78, 0
13, 30120, Note_on_c, 10, 76, 110
13, 30149, Note_on_c, 10, 76, 0
13, 30150, Note_on_c, 10, 78, 110
13, 30179, Note_on_c, 10, 78, 0
13, 30180, Note_on_c, 10, 79, 110
13, 30209, Note_on_c, 10, 79, 0
13, 30210, Note_on_c, 10, 76, 110
13, 30239, Note_on_c, 10, 76, 0
13, 30240, Note_on_c, 10, 79, 110
13, 30269, Note_on_c, 10, 79, 0
13, 30270, Note_on_c, 10, 78, 110
13, 30299, Note_on_c, 10, 78, 0
13, 30300, Note_on_c, 10, 76, 110
13, 30329, Note_on_c, 10, 76, 0
13, 30330, Note_on_c, 10, 74, 110
13, 30359, Note_on_c, 10, 74, 0
13, 30360, Note_on_c, 10, 78, 110
13, 30389, Note_on_c, 10, 78, 0
13, 30390, Note_on_c, 10, 74, 110
13, 30419, Note_on_c, 10, 74, 0
13, 30420, Note_on_c, 10, 78, 110
13, 30449, Note_on_c, 10, 78, 0
13, 30450, Note_on_c, 10, 76, 110
13, 30479, Note_on_c, 10, 76, 0
13, 30480, Note_on_c, 10, 74, 110
13, 30509, Note_on_c, 10, 74, 0
13, 30510, Note_on_c, 10, 73, 110
13, 30539, Note_on_c, 10, 73, 0
13, 30540, Note_on_c, 10, 76, 110
13, 30569, Note_on_c, 10, 76, 0
13, 30570, Note_on_c, 10, 73, 110
13, 30599, Note_on_c, 10, 73, 0
13, 30600, Note_on_c, 10, 76, 110
13, 30629, Note_on_c, 10, 76, 0
13, 30630, Note_on_c, 10, 74, 110
13, 30659, Note_on_c, 10, 74, 0
13, 30660, Note_on_c, 10, 73, 110
13, 30689, Note_on_c, 10, 73, 0
13, 30690, Note_on_c, 10, 71, 110
13, 30719, Note_on_c, 10, 71, 0
13, 30720, Note_on_c, 10, 74, 110
13, 30749, Note_on_c, 10, 74, 0
13, 30750, Note_on_c, 10, 71, 110
13, 30779, Note_on_c, 10, 71, 0
13, 30780, Note_on_c, 10, 76, 110
13, 30839, Note_on_c, 10, 76, 0
13, 30840, Note_on_c, 10, 74, 110
13, 30869, Note_on_c, 10, 74, 0
13, 30870, Note_on_c, 10, 73, 110
13, 30899, Note_on_c, 10, 73, 0
13, 30900, Note_on_c, 10, 71, 110
13, 30929, Note_on_c, 10, 71, 0
13, 30930, Note_on_c, 10, 73, 110
13, 30959, Note_on_c, 10, 73, 0
13, 30960, Note_on_c, 10, 69, 110
13, 31019, Note_on_c, 10, 69, 0
13, 31020, Note_on_c, 10, 73, 110
13, 31079, Note_on_c, 10, 73, 0
13, 31080, Note_on_c, 10, 76, 110
13, 31139, Note_on_c, 10, 76, 0
13, 31140, Note_on_c, 10, 74, 110
13, 31199, Note_on_c, 10, 74, 0
13, 31200, Note_on_c, 10, 76, 110
13, 31259, Note_on_c, 10, 76, 0
13, 31260, Note_on_c, 10, 78, 110
13, 31319, Note_on_c, 10, 78, 0
13, 31320, Note_on_c, 10, 76, 110
13, 31379, Note_on_c, 10, 76, 0
13, 31380, Note_on_c, 10, 74, 110
13, 31409, Note_on_c, 10, 74, 0
13, 31410, Note_on_c, 10, 73, 110
13, 31439, Note_on_c, 10, 73, 0
13, 31440, Note_on_c, 10, 76, 110
13, 31499, Note_on_c, 10, 76, 0
13, 31500, Note_on_c, 10, 74, 110
13, 31559, Note_on_c, 10, 74, 0
13, 31560, Note_on_c, 10, 76, 110
13, 31619, Note_on_c, 10, 76, 0
13, 31620, Note_on_c, 10, 73, 110
13, 31679, Note_on_c, 10, 73, 0
13, 31680, Note_on_c, 10, 74, 110
13, 31890, Note_on_c, 10, 74, 0
13, 31890, Note_on_c, 10, 73, 110
13, 31919, Note_on_c, 10, 73, 0
13, 31920, Note_on_c, 10, 71, 110
13, 31949, Note_on_c, 10, 71, 0
13, 31950, Note_on_c, 10, 73, 110
13, 31979, Note_on_c, 10, 73, 0
13, 31980, Note_on_c, 10, 69, 110
13, 32009, Note_on_c, 10, 69, 0
13, 32010, Note_on_c, 10, 71, 110
13, 32039, Note_on_c, 10, 71, 0
13, 32040, Note_on_c, 10, 68, 110
13, 32099, Note_on_c, 10, 68, 0
13, 32100, Note_on_c, 10, 64, 110
13, 32159, Note_on_c, 10, 64, 0
13, 32160, Note_on_c, 10, 68, 110
13, 32219, Note_on_c, 10, 68, 0
13, 32220, Note_on_c, 10, 69, 110
13, 32279, Note_on_c, 10, 69, 0
13, 32280, Note_on_c, 10, 78, 110
13, 32339, Note_on_c, 10, 78, 0
13, 32340, Note_on_c, 10, 76, 110
13, 32399, Note_on_c, 10, 76, 0
13, 32400, Note_on_c, 10, 76, 110
13, 32459, Note_on_c, 10, 76, 0
13, 32460, Note_on_c, 10, 74, 110
13, 32489, Note_on_c, 10, 74, 0
13, 32490, Note_on_c, 10, 73, 110
13, 32519, Note_on_c, 10, 73, 0
13, 32520, Note_on_c, 10, 71, 110
13, 32549, Note_on_c, 10, 71, 0
13, 32550, Note_on_c, 10, 69, 110
13, 32579, Note_on_c, 10, 69, 0
13, 32580, Note_on_c, 10, 74, 110
13, 32699, Note_on_c, 10, 74, 0
13, 32700, Note_on_c, 10, 69, 110
13, 32759, Note_on_c, 10, 69, 0
13, 32760, Note_on_c, 10, 76, 110
13, 32879, Note_on_c, 10, 76, 0
13, 32880, Note_on_c, 10, 69, 110
13, 32939, Note_on_c, 10, 69, 0
13, 32940, Note_on_c, 10, 78, 110
13, 32999, Note_on_c, 10, 78, 0
13, 33000, Note_on_c, 10, 76, 110
13, 33029, Note_on_c, 10, 76, 0
13, 33030, Note_on_c, 10, 78, 110
13, 33059, Note_on_c, 10, 78, 0
13, 33060, Note_on_c, 10, 79, 110
13, 33089, Note_on_c, 10, 79, 0
13, 33090, Note_on_c, 10, 76, 110
13, 33119, Note_on_c, 10, 76, 0
13, 33120, Note_on_c, 10, 79, 110
13, 33149, Note_on_c, 10, 79, 0
13, 33150, Note_on_c, 10, 78, 110
13, 33179, Note_on_c, 10, 78, 0
13, 33180, Note_on_c, 10, 76, 110
13, 33209, Note_on_c, 10, 76, 0
13, 33210, Note_on_c, 10, 74, 110
13, 33239, Note_on_c, 10, 74, 0
13, 36120, Note_on_c, 10, 69, 110
13, 36179, Note_on_c, 10, 69, 0
13, 36180, Note_on_c, 10, 71, 110
13, 36239, Note_on_c, 10, 71, 0
13, 36240, Note_on_c, 10, 76, 110
13, 36269, Note_on_c, 10, 76, 0
13, 36270, Note_on_c, 10, 74, 110
13, 36299, Note_on_c, 10, 74, 0
13, 36300, Note_on_c, 10, 73, 110
13, 36329, Note_on_c, 10, 73, 0
13, 36330, Note_on_c, 10, 71, 110
13, 36359, Note_on_c, 10, 71, 0
13, 36360, Note_on_c, 10, 69, 110
13, 36419, Note_on_c, 10, 69, 0
13, 36420, Note_on_c, 10, 74, 110
13, 36449, Note_on_c, 10, 74, 0
13, 36450, Note_on_c, 10, 73, 110
13, 36479, Note_on_c, 10, 73, 0
13, 36480, Note_on_c, 10, 71, 110
13, 36509, Note_on_c, 10, 71, 0
13, 36510, Note_on_c, 10, 69, 110
13, 36539, Note_on_c, 10, 69, 0
13, 36540, Note_on_c, 10, 67, 110
13, 36599, Note_on_c, 10, 67, 0
13, 36600, Note_on_c, 10, 72, 110
13, 36659, Note_on_c, 10, 72, 0
13, 36660, Note_on_c, 10, 71, 110
13, 36719, Note_on_c, 10, 71, 0
13, 36720, Note_on_c, 10, 69, 110
13, 36779, Note_on_c, 10, 69, 0
13, 36780, Note_on_c, 10, 71, 110
13, 36839, Note_on_c, 10, 71, 0
13, 36840, Note_on_c, 10, 73, 110
13, 36899, Note_on_c, 10, 73, 0
13, 36900, Note_on_c, 10, 74, 110
13, 36929, Note_on_c, 10, 74, 0
13, 36930, Note_on_c, 10, 73, 110
13, 36959, Note_on_c, 10, 73, 0
13, 36960, Note_on_c, 10, 71, 110
13, 37019, Note_on_c, 10, 71, 0
13, 37020, Note_on_c, 10, 76, 110
13, 37079, Note_on_c, 10, 76, 0
13, 37080, Note_on_c, 10, 73, 110
13, 37139, Note_on_c, 10, 73, 0
13, 37140, Note_on_c, 10, 74, 110
13, 37199, Note_on_c, 10, 74, 0
13, 37200, Note_on_c, 10, 69, 110
13, 37259, Note_on_c, 10, 69, 0
13, 37260, Note_on_c, 10, 71, 110
13, 37319, Note_on_c, 10, 71, 0
13, 37320, Note_on_c, 10, 73, 110
13, 37379, Note_on_c, 10, 73, 0
13, 37380, Note_on_c, 10, 74, 110
13, 37439, Note_on_c, 10, 74, 0
13, 37440, Note_on_c, 10, 73, 110
13, 37499, Note_on_c, 10, 73, 0
13, 37500, Note_on_c, 10, 76, 110
13, 37529, Note_on_c, 10, 76, 0
13, 37530, Note_on_c, 10, 74, 110
13, 37559, Note_on_c, 10, 74, 0
13, 37560, Note_on_c, 10, 76, 110
13, 37679, Note_on_c, 10, 76, 0
13, 37680, Note_on_c, 10, 74, 110
13, 37739, Note_on_c, 10, 74, 0
13, 37740, Note_on_c, 10, 73, 110
13, 37799, Note_on_c, 10, 73, 0
13, 37800, Note_on_c, 10, 78, 110
13, 37859, Note_on_c, 10, 78, 0
13, 37860, Note_on_c, 10, 76, 110
13, 37919, Note_on_c, 10, 76, 0
13, 37920, Note_on_c, 10, 74, 110
13, 37979, Note_on_c, 10, 74, 0
13, 37980, Note_on_c, 10, 73, 110
13, 38039, Note_on_c, 10, 73, 0
13, 38040, Note_on_c, 10, 74, 110
13, 38099, Note_on_c, 10, 74, 0
13, 38100, Note_on_c, 10, 71, 110
13, 38159, Note_on_c, 10, 71, 0
13, 38160, Note_on_c, 10, 69, 110
13, 38219, Note_on_c, 10, 69, 0
13, 38580, Note_on_c, 10, 71, 110
13, 38639, Note_on_c, 10, 71, 0
13, 38640, Note_on_c, 10, 71, 110
13, 38699, Note_on_c, 10, 71, 0
13, 38700, Note_on_c, 10, 73, 110
13, 38759, Note_on_c, 10, 73, 0
13, 38760, Note_on_c, 10, 76, 110
13, 38789, Note_on_c, 10, 76, 0
13, 38790, Note_on_c, 10, 74, 110
13, 38819, Note_on_c, 10, 74, 0
13, 38820, Note_on_c, 10, 73, 110
13, 38849, Note_on_c, 10, 73, 0
13, 38850, Note_on_c, 10, 71, 110
13, 38879, Note_on_c, 10, 71, 0
13, 38880, Note_on_c, 10, 69, 110
13, 38999, Note_on_c, 10, 69, 0
13, 39000, Note_on_c, 10, 73, 110
13, 39059, Note_on_c, 10, 73, 0
13, 39060, Note_on_c, 10, 75, 110
13, 39119, Note_on_c, 10, 75, 0
13, 39180, Note_on_c, 10, 78, 110
13, 39239, Note_on_c, 10, 78, 0
13, 39240, Note_on_c, 10, 78, 110
13, 39299, Note_on_c, 10, 78, 0
13, 39300, Note_on_c, 10, 71, 110
13, 39359, Note_on_c, 10, 71, 0
13, 39360, Note_on_c, 10, 78, 110
13, 39479, Note_on_c, 10, 78, 0
13, 39480, Note_on_c, 10, 79, 110
13, 39509, Note_on_c, 10, 79, 0
13, 39510, Note_on_c, 10, 78, 110
13, 39539, Note_on_c, 10, 78, 0
13, 39540, Note_on_c, 10, 76, 110
13, 39569, Note_on_c, 10, 76, 0
13, 39570, Note_on_c, 10, 75, 110
13, 39599, Note_on_c, 10, 75, 0
13, 39600, Note_on_c, 10, 76, 110
13, 39659, Note_on_c, 10, 76, 0
13, 39660, Note_on_c, 10, 71, 110
13, 39719, Note_on_c, 10, 71, 0
13, 39720, Note_on_c, 10, 75, 110
13, 39779, Note_on_c, 10, 75, 0
13, 39780, Note_on_c, 10, 76, 110
13, 39839, Note_on_c, 10, 76, 0
13, 39900, Note_on_c, 10, 76, 110
13, 39959, Note_on_c, 10, 76, 0
13, 39960, Note_on_c, 10, 76, 110
13, 40019, Note_on_c, 10, 76, 0
13, 40020, Note_on_c, 10, 69, 110
13, 40079, Note_on_c, 10, 69, 0
13, 40080, Note_on_c, 10, 76, 110
13, 40199, Note_on_c, 10, 76, 0
13, 40200, Note_on_c, 10, 78, 110
13, 40229, Note_on_c, 10, 78, 0
13, 40230, Note_on_c, 10, 76, 110
13, 40259, Note_on_c, 10, 76, 0
13, 40260, Note_on_c, 10, 74, 110
13, 40289, Note_on_c, 10, 74, 0
13, 40290, Note_on_c, 10, 73, 110
13, 40319, Note_on_c, 10, 73, 0
13, 40320, Note_on_c, 10, 74, 110
13, 40379, Note_on_c, 10, 74, 0
13, 40380, Note_on_c, 10, 69, 110
13, 40439, Note_on_c, 10, 69, 0
13, 40440, Note_on_c, 10, 74, 110
13, 40499, Note_on_c, 10, 74, 0
13, 40500, Note_on_c, 10, 74, 110
13, 41280, Note_on_c, 10, 74, 0
13, 41280, Note_on_c, 10, 73, 110
13, 41339, Note_on_c, 10, 73, 0
13, 41340, Note_on_c, 10, 71, 110
13, 41399, Note_on_c, 10, 71, 0
13, 41400, Note_on_c, 10, 69, 110
13, 41459, Note_on_c, 10, 69, 0
13, 41460, Note_on_c, 10, 73, 110
13, 41519, Note_on_c, 10, 73, 0
13, 41520, Note_on_c, 10, 76, 110
13, 41639, Note_on_c, 10, 76, 0
13, 41640, Note_on_c, 10, 74, 110
13, 41699, Note_on_c, 10, 74, 0
13, 41700, Note_on_c, 10, 73, 110
13, 41759, Note_on_c, 10, 73, 0
13, 41760, Note_on_c, 10, 71, 110
13, 41819, Note_on_c, 10, 71, 0
13, 41820, Note_on_c, 10, 74, 110
13, 41879, Note_on_c, 10, 74, 0
13, 41880, Note_on_c, 10, 71, 110
13, 41939, Note_on_c, 10, 71, 0
13, 41940, Note_on_c, 10, 67, 110
13, 41999, Note_on_c, 10, 67, 0
13, 42000, Note_on_c, 10, 70, 110
13, 42059, Note_on_c, 10, 70, 0
13, 42060, Note_on_c, 10, 74, 110
13, 42119, Note_on_c, 10, 74, 0
13, 42120, Note_on_c, 10, 74, 110
13, 42179, Note_on_c, 10, 74, 0
13, 42180, Note_on_c, 10, 76, 110
13, 42209, Note_on_c, 10, 76, 0
13, 42210, Note_on_c, 10, 74, 110
13, 42239, Note_on_c, 10, 74, 0
13, 42240, Note_on_c, 10, 73, 110
13, 42269, Note_on_c, 10, 73, 0
13, 42270, Note_on_c, 10, 74, 110
13, 42299, Note_on_c, 10, 74, 0
13, 42300, Note_on_c, 10, 69, 110
13, 42359, Note_on_c, 10, 69, 0
13, 42360, Note_on_c, 10, 74, 110
13, 42419, Note_on_c, 10, 74, 0
13, 42420, Note_on_c, 10, 73, 110
13, 42479, Note_on_c, 10, 73, 0
13, 42480, Note_on_c, 10, 74, 110
13, 42539, Note_on_c, 10, 74, 0
13, 42660, Note_on_c, 10, 74, 110
13, 42719, Note_on_c, 10, 74, 0
13, 42720, Note_on_c, 10, 74, 110
13, 42749, Note_on_c, 10, 74, 0
13, 42750, Note_on_c, 10, 73, 110
13, 42779, Note_on_c, 10, 73, 0
13, 42780, Note_on_c, 10, 74, 110
13, 42839, Note_on_c, 10, 74, 0
13, 42840, Note_on_c, 10, 74, 110
13, 42899, Note_on_c, 10, 74, 0
13, 43020, Note_on_c, 10, 78, 110
13, 43079, Note_on_c, 10, 78, 0
13, 43080, Note_on_c, 10, 69, 110
13, 43139, Note_on_c, 10, 69, 0
13, 43140, Note_on_c, 10, 73, 110
13, 43199, Note_on_c, 10, 73, 0
13, 43200, Note_on_c, 10, 74, 110
13, 43319, Note_on_c, 10, 74, 0
13, 48990, Control_c, 10, 0, 20
13, 48990, Program_c, 10, 65
13, 49020, Note_on_c, 10, 66, 110
13, 49079, Note_on_c, 10, 66, 0
13, 49080, Note_on_c, 10, 73, 110
13, 49139, Note_on_c, 10, 73, 0
13, 49140, Note_on_c, 10, 73, 110
13, 49199, Note_on_c, 10, 73, 0
13, 49200, Note_on_c, 10, 74, 110
13, 49259, Note_on_c, 10, 74, 0
13, 49260, Note_on_c, 10, 76, 110
13, 49319, Note_on_c, 10, 76, 0
13, 49320, Note_on_c, 10, 70, 110
13, 49379, Note_on_c, 10, 70, 0
13, 49380, Note_on_c, 10, 70, 110
13, 49439, Note_on_c, 10, 70, 0
13, 49440, Note_on_c, 10, 79, 110
13, 49499, Note_on_c, 10, 79, 0
13, 49500, Note_on_c, 10, 78, 110
13, 49559, Note_on_c, 10, 78, 0
13, 49560, Note_on_c, 10, 74, 110
13, 49619, Note_on_c, 10, 74, 0
13, 49620, Note_on_c, 10, 74, 110
13, 49679, Note_on_c, 10, 74, 0
13, 49740, Note_on_c, 10, 78, 110
13, 49799, Note_on_c, 10, 78, 0
13, 49800, Note_on_c, 10, 71, 110
13, 49859, Note_on_c, 10, 71, 0
13, 49860, Note_on_c, 10, 71, 110
13, 49919, Note_on_c, 10, 71, 0
13, 49920, Note_on_c, 10, 74, 110
13, 49979, Note_on_c, 10, 74, 0
13, 49980, Note_on_c, 10, 72, 110
13, 50039, Note_on_c, 10, 72, 0
13, 50040, Note_on_c, 10, 72, 110
13, 50159, Note_on_c, 10, 72, 0
13, 50220, Note_on_c, 10, 72, 110
13, 50279, Note_on_c, 10, 72, 0
13, 50280, Note_on_c, 10, 71, 110
13, 50339, Note_on_c, 10, 71, 0
13, 50340, Note_on_c, 10, 66, 110
13, 50399, Note_on_c, 10, 66, 0
13, 50400, Note_on_c, 10, 69, 110
13, 50459, Note_on_c, 10, 69, 0
13, 50460, Note_on_c, 10, 68, 110
13, 50519, Note_on_c, 10, 68, 0
13, 50520, Note_on_c, 10, 66, 110
13, 50579, Note_on_c, 10, 66, 0
13, 50580, Note_on_c, 10, 66, 110
13, 50639, Note_on_c, 10, 66, 0
13, 50700, Note_on_c, 10, 76, 110
13, 50759, Note_on_c, 10, 76, 0
13, 50820, Note_on_c, 10, 71, 110
13, 50849, Note_on_c, 10, 71, 0
13, 50850, Note_on_c, 10, 69, 110
13, 50879, Note_on_c, 10, 69, 0
13, 50880, Note_on_c, 10, 68, 110
13, 50939, Note_on_c, 10, 68, 0
13, 50940, Note_on_c, 10, 68, 110
13, 50999, Note_on_c, 10, 68, 0
13, 51000, Note_on_c, 10, 71, 110
13, 51059, Note_on_c, 10, 71, 0
13, 51060, Note_on_c, 10, 68, 110
13, 51119, Note_on_c, 10, 68, 0
13, 51120, Note_on_c, 10, 77, 110
13, 51179, Note_on_c, 10, 77, 0
13, 51210, Note_on_c, 10, 73, 110
13, 51239, Note_on_c, 10, 73, 0
13, 51240, Note_on_c, 10, 78, 110
13, 51299, Note_on_c, 10, 78, 0
13, 51300, Note_on_c, 10, 66, 110
13, 51359, Note_on_c, 10, 66, 0
13, 51360, Note_on_c, 10, 71, 110
13, 51419, Note_on_c, 10, 71, 0
13, 51420, Note_on_c, 10, 69, 110
13, 51479, Note_on_c, 10, 69, 0
13, 51480, Note_on_c, 10, 66, 110
13, 51599, Note_on_c, 10, 66, 0
13, 51900, Note_on_c, 10, 73, 110
13, 51959, Note_on_c, 10, 73, 0
13, 51960, Note_on_c, 10, 69, 110
13, 52019, Note_on_c, 10, 69, 0
13, 52050, Note_on_c, 10, 69, 110
13, 52079, Note_on_c, 10, 69, 0
13, 52080, Note_on_c, 10, 79, 110
13, 52139, Note_on_c, 10, 79, 0
13, 52140, Note_on_c, 10, 78, 110
13, 52199, Note_on_c, 10, 78, 0
13, 52200, Note_on_c, 10, 79, 110
13, 52259, Note_on_c, 10, 79, 0
13, 52260, Note_on_c, 10, 76, 110
13, 52319, Note_on_c, 10, 76, 0
13, 52320, Note_on_c, 10, 73, 110
13, 52379, Note_on_c, 10, 73, 0
13, 52410, Note_on_c, 10, 76, 110
13, 52439, Note_on_c, 10, 76, 0
13, 52440, Note_on_c, 10, 76, 110
13, 52499, Note_on_c, 10, 76, 0
13, 52500, Note_on_c, 10, 67, 110
13, 52559, Note_on_c, 10, 67, 0
13, 52560, Note_on_c, 10, 64, 110
13, 52619, Note_on_c, 10, 64, 0
13, 52620, Note_on_c, 10, 69, 110
13, 52679, Note_on_c, 10, 69, 0
13, 52680, Note_on_c, 10, 66, 110
13, 52739, Note_on_c, 10, 66, 0
13, 52770, Note_on_c, 10, 66, 110
13, 52799, Note_on_c, 10, 66, 0
13, 52800, Note_on_c, 10, 73, 110
13, 52859, Note_on_c, 10, 73, 0
13, 52860, Note_on_c, 10, 74, 110
13, 52919, Note_on_c, 10, 74, 0
13, 52920, Note_on_c, 10, 76, 110
13, 53039, Note_on_c, 10, 76, 0
13, 53100, Note_on_c, 10, 73, 110
13, 53159, Note_on_c, 10, 73, 0
13, 53160, Note_on_c, 10, 73, 110
13, 53219, Note_on_c, 10, 73, 0
13, 53220, Note_on_c, 10, 64, 110
13, 53279, Note_on_c, 10, 64, 0
13, 53280, Note_on_c, 10, 67, 110
13, 53339, Note_on_c, 10, 67, 0
13, 53340, Note_on_c, 10, 64, 110
13, 53399, Note_on_c, 10, 64, 0
13, 53400, Note_on_c, 10, 62, 110
13, 53459, Note_on_c, 10, 62, 0
13, 53490, Note_on_c, 10, 74, 110
13, 53519, Note_on_c, 10, 74, 0
13, 53520, Note_on_c, 10, 68, 110
13, 53610, Note_on_c, 10, 68, 0
13, 53610, Note_on_c, 10, 73, 110
13, 53639, Note_on_c, 10, 73, 0
13, 53640, Note_on_c, 10, 69, 110
13, 53759, Note_on_c, 10, 69, 0
13, 58665, Control_c, 10, 0, 20
13, 58665, Program_c, 10, 65
13, 58680, Note_on_c, 10, 69, 110
13, 58739, Note_on_c, 10, 69, 0
13, 58740, Note_on_c, 10, 71, 110
13, 58769, Note_on_c, 10, 71, 0
13, 58770, Note_on_c, 10, 73, 110
13, 58799, Note_on_c, 10, 73, 0
13, 58800, Note_on_c, 10, 74, 110
13, 58829, Note_on_c, 10, 74, 0
13, 58830, Note_on_c, 10, 73, 110
13, 58859, Note_on_c, 10, 73, 0
13, 58860, Note_on_c, 10, 71, 110
13, 58889, Note_on_c, 10, 71, 0
13, 58890, Note_on_c, 10, 69, 110
13, 58919, Note_on_c, 10, 69, 0
13, 58920, Note_on_c, 10, 78, 110
13, 58979, Note_on_c, 10, 78, 0
13, 59040, Note_on_c, 10, 76, 110
13, 59099, Note_on_c, 10, 76, 0
13, 59160, Note_on_c, 10, 74, 110
13, 59279, Note_on_c, 10, 74, 0
13, 59280, Note_on_c, 10, 73, 110
13, 59339, Note_on_c, 10, 73, 0
13, 59340, Note_on_c, 10, 71, 110
13, 59459, Note_on_c, 10, 71, 0
13, 59460, Note_on_c, 10, 73, 110
13, 59489, Note_on_c, 10, 73, 0
13, 59490, Note_on_c, 10, 74, 110
13, 59519, Note_on_c, 10, 74, 0
13, 59520, Note_on_c, 10, 68, 110
13, 59579, Note_on_c, 10, 68, 0
13, 59580, Note_on_c, 10, 69, 110
13, 59699, Note_on_c, 10, 69, 0
13, 59700, Note_on_c, 10, 71, 110
13, 59759, Note_on_c, 10, 71, 0
13, 59760, Note_on_c, 10, 73, 110
13, 59789, Note_on_c, 10, 73, 0
13, 59790, Note_on_c, 10, 69, 110
13, 59819, Note_on_c, 10, 69, 0
13, 59820, Note_on_c, 10, 74, 110
13, 59879, Note_on_c, 10, 74, 0
13, 59880, Note_on_c, 10, 73, 110
13, 60000, Note_on_c, 10, 73, 0
13, 60000, Note_on_c, 10, 71, 110
13, 60120, Note_on_c, 10, 71, 0
13, 60120, Note_on_c, 10, 76, 110
13, 60179, Note_on_c, 10, 76, 0
13, 60300, Note_on_c, 10, 73, 110
13, 60359, Note_on_c, 10, 73, 0
13, 60360, Note_on_c, 10, 69, 110
13, 60419, Note_on_c, 10, 69, 0
13, 60420, Note_on_c, 10, 71, 110
13, 60449, Note_on_c, 10, 71, 0
13, 60450, Note_on_c, 10, 73, 110
13, 60479, Note_on_c, 10, 73, 0
13, 60480, Note_on_c, 10, 74, 110
13, 60509, Note_on_c, 10, 74, 0
13, 60510, Note_on_c, 10, 73, 110
13, 60539, Note_on_c, 10, 73, 0
13, 60540, Note_on_c, 10, 71, 110
13, 60569, Note_on_c, 10, 71, 0
13, 60570, Note_on_c, 10, 69, 110
13, 60599, Note_on_c, 10, 69, 0
13, 60600, Note_on_c, 10, 78, 110
13, 60659, Note_on_c, 10, 78, 0
13, 60660, Note_on_c, 10, 80, 110
13, 60719, Note_on_c, 10, 80, 0
13, 60720, Note_on_c, 10, 81, 110
13, 60779, Note_on_c, 10, 81, 0
13, 60840, Note_on_c, 10, 78, 110
13, 60899, Note_on_c, 10, 78, 0
13, 61020, Note_on_c, 10, 76, 110
13, 61079, Note_on_c, 10, 76, 0
13, 61080, Note_on_c, 10, 69, 110
13, 61139, Note_on_c, 10, 69, 0
13, 61140, Note_on_c, 10, 71, 110
13, 61199, Note_on_c, 10, 71, 0
13, 61200, Note_on_c, 10, 73, 110
13, 61229, Note_on_c, 10, 73, 0
13, 61230, Note_on_c, 10, 69, 110
13, 61259, Note_on_c, 10, 69, 0
13, 61260, Note_on_c, 10, 74, 110
13, 61319, Note_on_c, 10, 74, 0
13, 61320, Note_on_c, 10, 73, 110
13, 61440, Note_on_c, 10, 73, 0
13, 61440, Note_on_c, 10, 71, 110
13, 61560, Note_on_c, 10, 71, 0
13, 61560, Note_on_c, 10, 75, 110
13, 61589, Note_on_c, 10, 75, 0
13, 61590, Note_on_c, 10, 76, 110
13, 61619, Note_on_c, 10, 76, 0
13, 61620, Note_on_c, 10, 78, 110
13, 61649, Note_on_c, 10, 78, 0
13, 61650, Note_on_c, 10, 75, 110
13, 61679, Note_on_c, 10, 75, 0
13, 61680, Note_on_c, 10, 79, 110
13, 61709, Note_on_c, 10, 79, 0
13, 61710, Note_on_c, 10, 78, 110
13, 61739, Note_on_c, 10, 78, 0
13, 61740, Note_on_c, 10, 76, 110
13, 61829, Note_on_c, 10, 76, 0
13, 61830, Note_on_c, 10, 74, 110
13, 61859, Note_on_c, 10, 74, 0
13, 61860, Note_on_c, 10, 72, 110
13, 61920, Note_on_c, 10, 72, 0
13, 61920, Note_on_c, 10, 71, 110
13, 61949, Note_on_c, 10, 71, 0
13, 61950, Note_on_c, 10, 73, 110
13, 61979, Note_on_c, 10, 73, 0
13, 61980, Note_on_c, 10, 70, 110
13, 62039, Note_on_c, 10, 70, 0
13, 62040, Note_on_c, 10, 69, 110
13, 62099, Note_on_c, 10, 69, 0
13, 62100, Note_on_c, 10, 67, 110
13, 62219, Note_on_c, 10, 67, 0
13, 62220, Note_on_c, 10, 66, 110
13, 62249, Note_on_c, 10, 66, 0
13, 62250, Note_on_c, 10, 64, 110
13, 62279, Note_on_c, 10, 64, 0
13, 62280, Note_on_c, 10, 63, 110
13, 62309, Note_on_c, 10, 63, 0
13, 62310, Note_on_c, 10, 64, 110
13, 62339, Note_on_c, 10, 64, 0
13, 62340, Note_on_c, 10, 64, 110
13, 62369, Note_on_c, 10, 64, 0
13, 62370, Note_on_c, 10, 66, 110
13, 62399, Note_on_c, 10, 66, 0
13, 62400, Note_on_c, 10, 69, 110
13, 62429, Note_on_c, 10, 69, 0
13, 62430, Note_on_c, 10, 73, 110
13, 62459, Note_on_c, 10, 73, 0
13, 62460, Note_on_c, 10, 71, 110
13, 62579, Note_on_c, 10, 71, 0
13, 62580, Note_on_c, 10, 64, 110
13, 62639, Note_on_c, 10, 64, 0
13, 62640, Note_on_c, 10, 68, 110
13, 62669, Note_on_c, 10, 68, 0
13, 62670, Note_on_c, 10, 66, 110
13, 62699, Note_on_c, 10, 66, 0
13, 62700, Note_on_c, 10, 64, 110
13, 62729, Note_on_c, 10, 64, 0
13, 62730, Note_on_c, 10, 63, 110
13, 62759, Note_on_c, 10, 63, 0
13, 62760, Note_on_c, 10, 64, 110
13, 62999, Note_on_c, 10, 64, 0
13, 68760, Note_on_c, 10, 71, 110
13, 68819, Note_on_c, 10, 71, 0
13, 68820, Note_on_c, 10, 73, 110
13, 68849, Note_on_c, 10, 73, 0
13, 68850, Note_on_c, 10, 74, 110
13, 68879, Note_on_c, 10, 74, 0
13, 68880, Note_on_c, 10, 76, 110
13, 68939, Note_on_c, 10, 76, 0
13, 68940, Note_on_c, 10, 74, 110
13, 68999, Note_on_c, 10, 74, 0
13, 69000, Note_on_c, 10, 73, 110
13, 69059, Note_on_c, 10, 73, 0
13, 69060, Note_on_c, 10, 71, 110
13, 69089, Note_on_c, 10, 71, 0
13, 69090, Note_on_c, 10, 70, 110
13, 69119, Note_on_c, 10, 70, 0
13, 69120, Note_on_c, 10, 71, 110
13, 69149, Note_on_c, 10, 71, 0
13, 69150, Note_on_c, 10, 74, 110
13, 69179, Note_on_c, 10, 74, 0
13, 69180, Note_on_c, 10, 73, 110
13, 69240, Note_on_c, 10, 73, 0
13, 69240, Note_on_c, 10, 73, 110
13, 69360, Note_on_c, 10, 73, 0
13, 69360, Note_on_c, 10, 74, 110
13, 69480, Note_on_c, 10, 74, 0
13, 69540, Note_on_c, 10, 74, 110
13, 69659, Note_on_c, 10, 74, 0
13, 69660, Note_on_c, 10, 71, 110
13, 69719, Note_on_c, 10, 71, 0
13, 69720, Note_on_c, 10, 68, 110
13, 69749, Note_on_c, 10, 68, 0
13, 69750, Note_on_c, 10, 69, 110
13, 69779, Note_on_c, 10, 69, 0
13, 69780, Note_on_c, 10, 71, 110
13, 69809, Note_on_c, 10, 71, 0
13, 69810, Note_on_c, 10, 73, 110
13, 69839, Note_on_c, 10, 73, 0
13, 69840, Note_on_c, 10, 74, 110
13, 69899, Note_on_c, 10, 74, 0
13, 69900, Note_on_c, 10, 74, 110
13, 69959, Note_on_c, 10, 74, 0
13, 69960, Note_on_c, 10, 74, 110
13, 69989, Note_on_c, 10, 74, 0
13, 69990, Note_on_c, 10, 73, 110
13, 70019, Note_on_c, 10, 73, 0
13, 70020, Note_on_c, 10, 71, 110
13, 70079, Note_on_c, 10, 71, 0
13, 70080, Note_on_c, 10, 80, 110
13, 70199, Note_on_c, 10, 80, 0
13, 70200, Note_on_c, 10, 73, 110
13, 70229, Note_on_c, 10, 73, 0
13, 70230, Note_on_c, 10, 71, 110
13, 70259, Note_on_c, 10, 71, 0
13, 70260, Note_on_c, 10, 69, 110
13, 70289, Note_on_c, 10, 69, 0
13, 70290, Note_on_c, 10, 68, 110
13, 70319, Note_on_c, 10, 68, 0
13, 70320, Note_on_c, 10, 71, 110
13, 70349, Note_on_c, 10, 71, 0
13, 70350, Note_on_c, 10, 69, 110
13, 70379, Note_on_c, 10, 69, 0
13, 70380, Note_on_c, 10, 68, 110
13, 70409, Note_on_c, 10, 68, 0
13, 70410, Note_on_c, 10, 66, 110
13, 70439, Note_on_c, 10, 66, 0
13, 70440, Note_on_c, 10, 78, 110
13, 70454, Note_on_c, 10, 78, 0
13, 70455, Note_on_c, 10, 80, 110
13, 70469, Note_on_c, 10, 80, 0
13, 70470, Note_on_c, 10, 81, 110
13, 70559, Note_on_c, 10, 81, 0
13, 70560, Note_on_c, 10, 80, 110
13, 70619, Note_on_c, 10, 80, 0
13, 70680, Note_on_c, 10, 77, 110
13, 70799, Note_on_c, 10, 77, 0
13, 70800, Note_on_c, 10, 73, 110
13, 70859, Note_on_c, 10, 73, 0
13, 70860, Note_on_c, 10, 78, 110
13, 70979, Note_on_c, 10, 78, 0
13, 70980, Note_on_c, 10, 76, 110
13, 71009, Note_on_c, 10, 76, 0
13, 71010, Note_on_c, 10, 74, 110
13, 71039, Note_on_c, 10, 74, 0
13, 71040, Note_on_c, 10, 76, 110
13, 71069, Note_on_c, 10, 76, 0
13, 71070, Note_on_c, 10, 73, 110
13, 71099, Note_on_c, 10, 73, 0
13, 71100, Note_on_c, 10, 74, 110
13, 71219, Note_on_c, 10, 74, 0
13, 71220, Note_on_c, 10, 73, 110
13, 71249, Note_on_c, 10, 73, 0
13, 71250, Note_on_c, 10, 71, 110
13, 71279, Note_on_c, 10, 71, 0
13, 71280, Note_on_c, 10, 73, 110
13, 71309, Note_on_c, 10, 73, 0
13, 71310, Note_on_c, 10, 70, 110
13, 71339, Note_on_c, 10, 70, 0
13, 71340, Note_on_c, 10, 71, 110
13, 71399, Note_on_c, 10, 71, 0
13, 71400, Note_on_c, 10, 71, 110
13, 71459, Note_on_c, 10, 71, 0
13, 71460, Note_on_c, 10, 66, 110
13, 71519, Note_on_c, 10, 66, 0
13, 71520, Note_on_c, 10, 71, 110
13, 71579, Note_on_c, 10, 71, 0
13, 71700, Note_on_c, 10, 66, 110
13, 71759, Note_on_c, 10, 66, 0
13, 71760, Note_on_c, 10, 74, 110
13, 71819, Note_on_c, 10, 74, 0
13, 71940, Note_on_c, 10, 71, 110
13, 71999, Note_on_c, 10, 71, 0
13, 72000, Note_on_c, 10, 78, 110
13, 72059, Note_on_c, 10, 78, 0
13, 72180, Note_on_c, 10, 65, 110
13, 72299, Note_on_c, 10, 65, 0
13, 72300, Note_on_c, 10, 66, 110
13, 72329, Note_on_c, 10, 66, 0
13, 72330, Note_on_c, 10, 68, 110
13, 72359, Note_on_c, 10, 68, 0
13, 72360, Note_on_c, 10, 62, 110
13, 72419, Note_on_c, 10, 62, 0
13, 72420, Note_on_c, 10, 61, 110
13, 72539, Note_on_c, 10, 61, 0
13, 72540, Note_on_c, 10, 73, 110
13, 72599, Note_on_c, 10, 73, 0
13, 72600, Note_on_c, 10, 71, 110
13, 72629, Note_on_c, 10, 71, 0
13, 72630, Note_on_c, 10, 69, 110
13, 72659, Note_on_c, 10, 69, 0
13, 72660, Note_on_c, 10, 68, 110
13, 72689, Note_on_c, 10, 68, 0
13, 72690, Note_on_c, 10, 66, 110
13, 72719, Note_on_c, 10, 66, 0
13, 72720, Note_on_c, 10, 69, 110
13, 72779, Note_on_c, 10, 69, 0
13, 72780, Note_on_c, 10, 68, 110
13, 72839, Note_on_c, 10, 68, 0
13, 72840, Note_on_c, 10, 66, 110
13, 73079, Note_on_c, 10, 66, 0
13, 74520, Note_on_c, 10, 66, 110
13, 74549, Note_on_c, 10, 66, 0
13, 74550, Note_on_c, 10, 68, 110
13, 74579, Note_on_c, 10, 68, 0
13, 74580, Note_on_c, 10, 69, 110
13, 74609, Note_on_c, 10, 69, 0
13, 74610, Note_on_c, 10, 71, 110
13, 74639, Note_on_c, 10, 71, 0
13, 74640, Note_on_c, 10, 73, 110
13, 74669, Note_on_c, 10, 73, 0
13, 74670, Note_on_c, 10, 71, 110
13, 74699, Note_on_c, 10, 71, 0
13, 74700, Note_on_c, 10, 73, 110
13, 74729, Note_on_c, 10, 73, 0
13, 74730, Note_on_c, 10, 74, 110
13, 74759, Note_on_c, 10, 74, 0
13, 74760, Note_on_c, 10, 76, 110
13, 74819, Note_on_c, 10, 76, 0
13, 74820, Note_on_c, 10, 73, 110
13, 74849, Note_on_c, 10, 73, 0
13, 74850, Note_on_c, 10, 69, 110
13, 74879, Note_on_c, 10, 69, 0
13, 74880, Note_on_c, 10, 79, 110
13, 74909, Note_on_c, 10, 79, 0
13, 74910, Note_on_c, 10, 76, 110
13, 74939, Note_on_c, 10, 76, 0
13, 74940, Note_on_c, 10, 78, 110
13, 74999, Note_on_c, 10, 78, 0
13, 75000, Note_on_c, 10, 78, 110
13, 75119, Note_on_c, 10, 78, 0
13, 75300, Note_on_c, 10, 76, 110
13, 75419, Note_on_c, 10, 76, 0
13, 75420, Note_on_c, 10, 78, 110
13, 75449, Note_on_c, 10, 78, 0
13, 75450, Note_on_c, 10, 79, 110
13, 75479, Note_on_c, 10, 79, 0
13, 75480, Note_on_c, 10, 78, 110
13, 75539, Note_on_c, 10, 78, 0
13, 75540, Note_on_c, 10, 76, 110
13, 75569, Note_on_c, 10, 76, 0
13, 75570, Note_on_c, 10, 74, 110
13, 75599, Note_on_c, 10, 74, 0
13, 75600, Note_on_c, 10, 73, 110
13, 75659, Note_on_c, 10, 73, 0
13, 75660, Note_on_c, 10, 66, 110
13, 75719, Note_on_c, 10, 66, 0
13, 75720, Note_on_c, 10, 74, 110
13, 75779, Note_on_c, 10, 74, 0
13, 75780, Note_on_c, 10, 78, 110
13, 75809, Note_on_c, 10, 78, 0
13, 75810, Note_on_c, 10, 76, 110
13, 75839, Note_on_c, 10, 76, 0
13, 75840, Note_on_c, 10, 74, 110
13, 75959, Note_on_c, 10, 74, 0
13, 75960, Note_on_c, 10, 76, 110
13, 75989, Note_on_c, 10, 76, 0
13, 75990, Note_on_c, 10, 74, 110
13, 76019, Note_on_c, 10, 74, 0
13, 76020, Note_on_c, 10, 73, 110
13, 76049, Note_on_c, 10, 73, 0
13, 76050, Note_on_c, 10, 71, 110
13, 76079, Note_on_c, 10, 71, 0
13, 76080, Note_on_c, 10, 74, 110
13, 76109, Note_on_c, 10, 74, 0
13, 76110, Note_on_c, 10, 73, 110
13, 76139, Note_on_c, 10, 73, 0
13, 76140, Note_on_c, 10, 71, 110
13, 76169, Note_on_c, 10, 71, 0
13, 76170, Note_on_c, 10, 69, 110
13, 76199, Note_on_c, 10, 69, 0
13, 76200, Note_on_c, 10, 81, 110
13, 76229, Note_on_c, 10, 81, 0
13, 76230, Note_on_c, 10, 80, 110
13, 76259, Note_on_c, 10, 80, 0
13, 76260, Note_on_c, 10, 78, 110
13, 76379, Note_on_c, 10, 78, 0
13, 76380, Note_on_c, 10, 76, 110
13, 76439, Note_on_c, 10, 76, 0
13, 76440, Note_on_c, 10, 75, 110
13, 76529, Note_on_c, 10, 75, 0
13, 76530, Note_on_c, 10, 76, 110
13, 76544, Note_on_c, 10, 76, 0
13, 76545, Note_on_c, 10, 78, 110
13, 76559, Note_on_c, 10, 78, 0
13, 76560, Note_on_c, 10, 76, 110
13, 76619, Note_on_c, 10, 76, 0
13, 76620, Note_on_c, 10, 64, 110
13, 76739, Note_on_c, 10, 64, 0
13, 76740, Note_on_c, 10, 66, 110
13, 76769, Note_on_c, 10, 66, 0
13, 76770, Note_on_c, 10, 68, 110
13, 76799, Note_on_c, 10, 68, 0
13, 76800, Note_on_c, 10, 66, 110
13, 76829, Note_on_c, 10, 66, 0
13, 76830, Note_on_c, 10, 69, 110
13, 76859, Note_on_c, 10, 69, 0
13, 76860, Note_on_c, 10, 68, 110
13, 76979, Note_on_c, 10, 68, 0
13, 76980, Note_on_c, 10, 69, 110
13, 77009, Note_on_c, 10, 69, 0
13, 77010, Note_on_c, 10, 71, 110
13, 77039, Note_on_c, 10, 71, 0
13, 77040, Note_on_c, 10, 69, 110
13, 77069, Note_on_c, 10, 69, 0
13, 77070, Note_on_c, 10, 72, 110
13, 77099, Note_on_c, 10, 72, 0
13, 77100, Note_on_c, 10, 71, 110
13, 77159, Note_on_c, 10, 71, 0
13, 77160, Note_on_c, 10, 71, 110
13, 77279, Note_on_c, 10, 71, 0
13, 77340, Note_on_c, 10, 68, 110
13, 77459, Note_on_c, 10, 68, 0
13, 77460, Note_on_c, 10, 69, 110
13, 77489, Note_on_c, 10, 69, 0
13, 77490, Note_on_c, 10, 71, 110
13, 77519, Note_on_c, 10, 71, 0
13, 77520, Note_on_c, 10, 69, 110
13, 77549, Note_on_c, 10, 69, 0
13, 77550, Note_on_c, 10, 73, 110
13, 77579, Note_on_c, 10, 73, 0
13, 77580, Note_on_c, 10, 71, 110
13, 77699, Note_on_c, 10, 71, 0
13, 77700, Note_on_c, 10, 73, 110
13, 77729, Note_on_c, 10, 73, 0
13, 77730, Note_on_c, 10, 74, 110
13, 77759, Note_on_c, 10, 74, 0
13, 77760, Note_on_c, 10, 73, 110
13, 77789, Note_on_c, 10, 73, 0
13, 77790, Note_on_c, 10, 76, 110
13, 77819, Note_on_c, 10, 76, 0
13, 77820, Note_on_c, 10, 74, 110
13, 77879, Note_on_c, 10, 74, 0
13, 77880, Note_on_c, 10, 74, 110
13, 77909, Note_on_c, 10, 74, 0
13, 77910, Note_on_c, 10, 76, 110
13, 77939, Note_on_c, 10, 76, 0
13, 77940, Note_on_c, 10, 78, 110
13, 78059, Note_on_c, 10, 78, 0
13, 78060, Note_on_c, 10, 76, 110
13, 78089, Note_on_c, 10, 76, 0
13, 78090, Note_on_c, 10, 74, 110
13, 78119, Note_on_c, 10, 74, 0
13, 78120, Note_on_c, 10, 73, 110
13, 78149, Note_on_c, 10, 73, 0
13, 78150, Note_on_c, 10, 71, 110
13, 78179, Note_on_c, 10, 71, 0
13, 78180, Note_on_c, 10, 69, 110
13, 78209, Note_on_c, 10, 69, 0
13, 78210, Note_on_c, 10, 68, 110
13, 78239, Note_on_c, 10, 68, 0
13, 78240, Note_on_c, 10, 66, 110
13, 78269, Note_on_c, 10, 66, 0
13, 78270, Note_on_c, 10, 64, 110
13, 78299, Note_on_c, 10, 64, 0
13, 78300, Note_on_c, 10, 74, 110
13, 78359, Note_on_c, 10, 74, 0
13, 78360, Note_on_c, 10, 73, 110
13, 78389, Note_on_c, 10, 73, 0
13, 78390, Note_on_c, 10, 74, 110
13, 78419, Note_on_c, 10, 74, 0
13, 78420, Note_on_c, 10, 76, 110
13, 78449, Note_on_c, 10, 76, 0
13, 78450, Note_on_c, 10, 69, 110
13, 78479, Note_on_c, 10, 69, 0
13, 78480, Note_on_c, 10, 73, 110
13, 78539, Note_on_c, 10, 73, 0
13, 78540, Note_on_c, 10, 71, 110
13, 78599, Note_on_c, 10, 71, 0
13, 78600, Note_on_c, 10, 69, 110
13, 78839, Note_on_c, 10, 69, 0
13, 97080, Note_on_c, 10, 67, 110
13, 97200, Note_on_c, 10, 67, 0
13, 97200, Note_on_c, 10, 67, 110
13, 97260, Note_on_c, 10, 67, 0
13, 97260, Note_on_c, 10, 69, 110
13, 97320, Note_on_c, 10, 69, 0
13, 97320, Note_on_c, 10, 71, 110
13, 97440, Note_on_c, 10, 71, 0
13, 97440, Note_on_c, 10, 69, 110
13, 97560, Note_on_c, 10, 69, 0
13, 97560, Note_on_c, 10, 67, 110
13, 97680, Note_on_c, 10, 67, 0
13, 97680, Note_on_c, 10, 69, 110
13, 97800, Note_on_c, 10, 69, 0
13, 97800, Note_on_c, 10, 69, 110
13, 97920, Note_on_c, 10, 69, 0
13, 97920, Note_on_c, 10, 71, 110
13, 98028, Note_on_c, 10, 71, 0
13, 98040, Note_on_c, 10, 67, 110
13, 98100, Note_on_c, 10, 67, 0
13, 98100, Note_on_c, 10, 69, 110
13, 98160, Note_on_c, 10, 69, 0
13, 98160, Note_on_c, 10, 71, 110
13, 98280, Note_on_c, 10, 71, 0
13, 98280, Note_on_c, 10, 72, 110
13, 98400, Note_on_c, 10, 72, 0
13, 98400, Note_on_c, 10, 74, 110
13, 98520, Note_on_c, 10, 74, 0
13, 98520, Note_on_c, 10, 72, 110
13, 98580, Note_on_c, 10, 72, 0
13, 98580, Note_on_c, 10, 71, 110
13, 98640, Note_on_c, 10, 71, 0
13, 98640, Note_on_c, 10, 69, 110
13, 98700, Note_on_c, 10, 69, 0
13, 98700, Note_on_c, 10, 67, 110
13, 98760, Note_on_c, 10, 67, 0
13, 98760, Note_on_c, 10, 69, 110
13, 98880, Note_on_c, 10, 69, 0
13, 98880, Note_on_c, 10, 67, 110
13, 98988, Note_on_c, 10, 67, 0
13, 99000, Note_on_c, 10, 67, 110
13, 99120, Note_on_c, 10, 67, 0
13, 99120, Note_on_c, 10, 67, 110
13, 99180, Note_on_c, 10, 67, 0
13, 99180, Note_on_c, 10, 69, 110
13, 99240, Note_on_c, 10, 69, 0
13, 99240, Note_on_c, 10, 71, 110
13, 99360, Note_on_c, 10, 71, 0
13, 99360, Note_on_c, 10, 69, 110
13, 99480, Note_on_c, 10, 69, 0
13, 99480, Note_on_c, 10, 67, 110
13, 99600, Note_on_c, 10, 67, 0
13, 99600, Note_on_c, 10, 69, 110
13, 99720, Note_on_c, 10, 69, 0
13, 99720, Note_on_c, 10, 69, 110
13, 99840, Note_on_c, 10, 69, 0
13, 99840, Note_on_c, 10, 71, 110
13, 99948, Note_on_c, 10, 71, 0
13, 99960, Note_on_c, 10, 67, 110
13, 100020, Note_on_c, 10, 67, 0
13, 100020, Note_on_c, 10, 69, 110
13, 100080, Note_on_c, 10, 69, 0
13, 100080, Note_on_c, 10, 71, 110
13, 100200, Note_on_c, 10, 71, 0
13, 100200, Note_on_c, 10, 72, 110
13, 100320, Note_on_c, 10, 72, 0
13, 100320, Note_on_c, 10, 74, 110
13, 100440, Note_on_c, 10, 74, 0
13, 100440, Note_on_c, 10, 72, 110
13, 100500, Note_on_c, 10, 72, 0
13, 100500, Note_on_c, 10, 71, 110
13, 100560, Note_on_c, 10, 71, 0
13, 100560, Note_on_c, 10, 69, 110
13, 100620, Note_on_c, 10, 69, 0
13, 100620, Note_on_c, 10, 67, 110
13, 100680, Note_on_c, 10, 67, 0
13, 100680, Note_on_c, 10, 69, 110
13, 100800, Note_on_c, 10, 69, 0
13, 100800, Note_on_c, 10, 67, 110
13, 100908, Note_on_c, 10, 67, 0
13, 100920, Note_on_c, 10, 71, 110
13, 101040, Note_on_c, 10, 71, 0
13, 101040, Note_on_c, 10, 71, 110
13, 101160, Note_on_c, 10, 71, 0
13, 101160, Note_on_c, 10, 69, 110
13, 101280, Note_on_c, 10, 69, 0
13, 101280, Note_on_c, 10, 67, 110
13, 101400, Note_on_c, 10, 67, 0
13, 101400, Note_on_c, 10, 66, 110
13, 101520, Note_on_c, 10, 66, 0
13, 101520, Note_on_c, 10, 67, 110
13, 101580, Note_on_c, 10, 67, 0
13, 101580, Note_on_c, 10, 69, 110
13, 101640, Note_on_c, 10, 69, 0
13, 101640, Note_on_c, 10, 71, 110
13, 101760, Note_on_c, 10, 71, 0
13, 101760, Note_on_c, 10, 69, 110
13, 101868, Note_on_c, 10, 69, 0
13, 101880, Note_on_c, 10, 69, 110
13, 102000, Note_on_c, 10, 69, 0
13, 102000, Note_on_c, 10, 67, 110
13, 102120, Note_on_c, 10, 67, 0
13, 102120, Note_on_c, 10, 66, 110
13, 102240, Note_on_c, 10, 66, 0
13, 102240, Note_on_c, 10, 67, 110
13, 102360, Note_on_c, 10, 67, 0
13, 102360, Note_on_c, 10, 62, 110
13, 102480, Note_on_c, 10, 62, 0
13, 102480, Note_on_c, 10, 67, 110
13, 102600, Note_on_c, 10, 67, 0
13, 102600, Note_on_c, 10, 69, 110
13, 102720, Note_on_c, 10, 69, 0
13, 102720, Note_on_c, 10, 71, 110
13, 102828, Note_on_c, 10, 71, 0
13, 102840, Note_on_c, 10, 67, 110
13, 102900, Note_on_c, 10, 67, 0
13, 102900, Note_on_c, 10, 69, 110
13, 102960, Note_on_c, 10, 69, 0
13, 102960, Note_on_c, 10, 71, 110
13, 103080, Note_on_c, 10, 71, 0
13, 103080, Note_on_c, 10, 72, 110
13, 103200, Note_on_c, 10, 72, 0
13, 103200, Note_on_c, 10, 74, 110
13, 103320, Note_on_c, 10, 74, 0
13, 103320, Note_on_c, 10, 72, 110
13, 103380, Note_on_c, 10, 72, 0
13, 103380, Note_on_c, 10, 71, 110
13, 103440, Note_on_c, 10, 71, 0
13, 103440, Note_on_c, 10, 69, 110
13, 103500, Note_on_c, 10, 69, 0
13, 103500, Note_on_c, 10, 67, 110
13, 103560, Note_on_c, 10, 67, 0
13, 103560, Note_on_c, 10, 69, 110
13, 103680, Note_on_c, 10, 69, 0
13, 103680, Note_on_c, 10, 67, 110
13, 103800, Note_on_c, 10, 67, 0
13, 158880, Control_c, 10, 0, 20
13, 158880, Program_c, 10, 65
13, 158940, Note_on_c, 10, 76, 110
13, 158999, Note_on_c, 10, 76, 0
13, 159000, Note_on_c, 10, 81, 110
13, 159059, Note_on_c, 10, 81, 0
13, 159060, Note_on_c, 10, 76, 110
13, 159119, Note_on_c, 10, 76, 0
13, 159120, Note_on_c, 10, 73, 110
13, 159179, Note_on_c, 10, 73, 0
13, 159180, Note_on_c, 10, 69, 110
13, 159239, Note_on_c, 10, 69, 0
13, 159240, Note_on_c, 10, 79, 110
13, 159269, Note_on_c, 10, 79, 0
13, 159270, Note_on_c, 10, 78, 110
13, 159299, Note_on_c, 10, 78, 0
13, 159300, Note_on_c, 10, 79, 110
13, 159359, Note_on_c, 10, 79, 0
13, 159360, Note_on_c, 10, 78, 110
13, 160140, Note_on_c, 10, 78, 0
13, 160140, Note_on_c, 10, 78, 110
13, 160199, Note_on_c, 10, 78, 0
13, 160200, Note_on_c, 10, 76, 110
13, 160229, Note_on_c, 10, 76, 0
13, 160230, Note_on_c, 10, 74, 110
13, 160259, Note_on_c, 10, 74, 0
13, 160260, Note_on_c, 10, 73, 110
13, 160289, Note_on_c, 10, 73, 0
13, 160290, Note_on_c, 10, 71, 110
13, 160319, Note_on_c, 10, 71, 0
13, 160320, Note_on_c, 10, 71, 110
13, 160349, Note_on_c, 10, 71, 0
13, 160350, Note_on_c, 10, 76, 110
13, 160379, Note_on_c, 10, 76, 0
13, 160380, Note_on_c, 10, 74, 110
13, 160409, Note_on_c, 10, 74, 0
13, 160410, Note_on_c, 10, 73, 110
13, 160439, Note_on_c, 10, 73, 0
13, 160440, Note_on_c, 10, 71, 110
13, 160469, Note_on_c, 10, 71, 0
13, 160470, Note_on_c, 10, 69, 110
13, 160499, Note_on_c, 10, 69, 0
13, 160500, Note_on_c, 10, 68, 110
13, 160529, Note_on_c, 10, 68, 0
13, 160530, Note_on_c, 10, 66, 110
13, 160559, Note_on_c, 10, 66, 0
13, 160560, Note_on_c, 10, 64, 110
13, 161100, Note_on_c, 10, 64, 0
13, 161100, Note_on_c, 10, 64, 110
13, 161159, Note_on_c, 10, 64, 0
13, 161160, Note_on_c, 10, 76, 110
13, 161189, Note_on_c, 10, 76, 0
13, 161190, Note_on_c, 10, 74, 110
13, 161219, Note_on_c, 10, 74, 0
13, 161220, Note_on_c, 10, 76, 110
13, 161279, Note_on_c, 10, 76, 0
13, 161280, Note_on_c, 10, 74, 110
13, 161579, Note_on_c, 10, 74, 0
13, 161580, Note_on_c, 10, 62, 110
13, 161639, Note_on_c, 10, 62, 0
13, 161640, Note_on_c, 10, 62, 110
13, 161819, Note_on_c, 10, 62, 0
13, 161820, Note_on_c, 10, 74, 110
13, 161879, Note_on_c, 10, 74, 0
13, 161880, Note_on_c, 10, 73, 110
13, 161939, Note_on_c, 10, 73, 0
13, 161940, Note_on_c, 10, 76, 110
13, 161999, Note_on_c, 10, 76, 0
13, 162000, Note_on_c, 10, 79, 110
13, 162059, Note_on_c, 10, 79, 0
13, 162060, Note_on_c, 10, 78, 110
13, 162119, Note_on_c, 10, 78, 0
13, 162120, Note_on_c, 10, 78, 110
13, 162239, Note_on_c, 10, 78, 0
13, 162300, Note_on_c, 10, 71, 110
13, 162419, Note_on_c, 10, 71, 0
13, 162420, Note_on_c, 10, 73, 110
13, 162449, Note_on_c, 10, 73, 0
13, 162450, Note_on_c, 10, 74, 110
13, 162479, Note_on_c, 10, 74, 0
13, 162480, Note_on_c, 10, 74, 110
13, 162539, Note_on_c, 10, 74, 0
13, 162540, Note_on_c, 10, 69, 110
13, 162599, Note_on_c, 10, 69, 0
13, 169275, Program_c, 10, 52
13, 169320, Note_on_c, 10, 66, 110
13, 169439, Note_on_c, 10, 66, 0
13, 169440, Note_on_c, 10, 71, 110
13, 169559, Note_on_c, 10, 71, 0
13, 169560, Note_on_c, 10, 69, 110
13, 169679, Note_on_c, 10, 69, 0
13, 169680, Note_on_c, 10, 67, 110
13, 169799, Note_on_c, 10, 67, 0
13, 169800, Note_on_c, 10, 66, 110
13, 169919, Note_on_c, 10, 66, 0
13, 169920, Note_on_c, 10, 64, 110
13, 170159, Note_on_c, 10, 64, 0
13, 170160, Note_on_c, 10, 66, 110
13, 170279, Note_on_c, 10, 66, 0
13, 171240, Note_on_c, 10, 73, 110
13, 171359, Note_on_c, 10, 73, 0
13, 171360, Note_on_c, 10, 74, 110
13, 171479, Note_on_c, 10, 74, 0
13, 171480, Note_on_c, 10, 74, 110
13, 171599, Note_on_c, 10, 74, 0
13, 171600, Note_on_c, 10, 73, 110
13, 171689, Note_on_c, 10, 73, 0
13, 171690, Note_on_c, 10, 74, 110
13, 171704, Note_on_c, 10, 74, 0
13, 171705, Note_on_c, 10, 76, 110
13, 171719, Note_on_c, 10, 76, 0
13, 171720, Note_on_c, 10, 73, 110
13, 171839, Note_on_c, 10, 73, 0
13, 171840, Note_on_c, 10, 71, 110
13, 171959, Note_on_c, 10, 71, 0
13, 177960, Note_on_c, 10, 66, 110
13, 178079, Note_on_c, 10, 66, 0
13, 178080, Note_on_c, 10, 71, 110
13, 178199, Note_on_c, 10, 71, 0
13, 178200, Note_on_c, 10, 69, 110
13, 178319, Note_on_c, 10, 69, 0
13, 178320, Note_on_c, 10, 67, 110
13, 178439, Note_on_c, 10, 67, 0
13, 178440, Note_on_c, 10, 66, 110
13, 178559, Note_on_c, 10, 66, 0
13, 178560, Note_on_c, 10, 64, 110
13, 178799, Note_on_c, 10, 64, 0
13, 178800, Note_on_c, 10, 66, 110
13, 178919, Note_on_c, 10, 66, 0
13, 179880, Note_on_c, 10, 73, 110
13, 179999, Note_on_c, 10, 73, 0
13, 180000, Note_on_c, 10, 74, 110
13, 180119, Note_on_c, 10, 74, 0
13, 180120, Note_on_c, 10, 74, 110
13, 180239, Note_on_c, 10, 74, 0
13, 180240, Note_on_c, 10, 73, 110
13, 180329, Note_on_c, 10, 73, 0
13, 180330, Note_on_c, 10, 74, 110
13, 180344, Note_on_c, 10, 74, 0
13, 180345, Note_on_c, 10, 76, 110
13, 180359, Note_on_c, 10, 76, 0
13, 180360, Note_on_c, 10, 73, 110
13, 180479, Note_on_c, 10, 73, 0
13, 180480, Note_on_c, 10, 71, 110
13, 180599, Note_on_c, 10, 71, 0
13, 182760, Note_on_c, 10, 74, 110
13, 182879, Note_on_c, 10, 74, 0
13, 182880, Note_on_c, 10, 73, 110
13, 182999, Note_on_c, 10, 73, 0
13, 183000, Note_on_c, 10, 69, 110
13, 183119, Note_on_c, 10, 69, 0
13, 183120, Note_on_c, 10, 71, 110
13, 183239, Note_on_c, 10, 71, 0
13, 183240, Note_on_c, 10, 73, 110
13, 183359, Note_on_c, 10, 73, 0
13, 183360, Note_on_c, 10, 74, 110
13, 183599, Note_on_c, 10, 74, 0
13, 183600, Note_on_c, 10, 74, 110
13, 183720, Note_on_c, 10, 74, 0
13, 184440, Note_on_c, 10, 69, 110
13, 184559, Note_on_c, 10, 69, 0
13, 184560, Note_on_c, 10, 71, 110
13, 184679, Note_on_c, 10, 71, 0
13, 184680, Note_on_c, 10, 69, 110
13, 184799, Note_on_c, 10, 69, 0
13, 184800, Note_on_c, 10, 67, 110
13, 184919, Note_on_c, 10, 67, 0
13, 184920, Note_on_c, 10, 67, 110
13, 184979, Note_on_c, 10, 67, 0
13, 184980, Note_on_c, 10, 66, 110
13, 185039, Note_on_c, 10, 66, 0
13, 185040, Note_on_c, 10, 66, 110
13, 185159, Note_on_c, 10, 66, 0
13, 186600, Note_on_c, 10, 74, 110
13, 186719, Note_on_c, 10, 74, 0
13, 186720, Note_on_c, 10, 73, 110
13, 186839, Note_on_c, 10, 73, 0
13, 186840, Note_on_c, 10, 76, 110
13, 186959, Note_on_c, 10, 76, 0
13, 186960, Note_on_c, 10, 74, 110
13, 187079, Note_on_c, 10, 74, 0
13, 187080, Note_on_c, 10, 73, 110
13, 187199, Note_on_c, 10, 73, 0
13, 187200, Note_on_c, 10, 71, 110
13, 187439, Note_on_c, 10, 71, 0
13, 187440, Note_on_c, 10, 69, 110
13, 187559, Note_on_c, 10, 69, 0
13, 189960, Note_on_c, 10, 66, 110
13, 190080, Note_on_c, 10, 66, 0
13, 190080, Note_on_c, 10, 67, 110
13, 190200, Note_on_c, 10, 67, 0
13, 190200, Note_on_c, 10, 66, 110
13, 190320, Note_on_c, 10, 66, 0
13, 190320, Note_on_c, 10, 64, 110
13, 190440, Note_on_c, 10, 64, 0
13, 190440, Note_on_c, 10, 69, 110
13, 190560, Note_on_c, 10, 69, 0
13, 190560, Note_on_c, 10, 66, 110
13, 191040, Note_on_c, 10, 66, 0
13, 191040, End_track
14, 0, Start_track
14, 0, MIDI_port, 0
14, 0, Title_t, "Alto"
14, 0, Program_c, 11, 52
14, 0, Control_c, 11, 7, 127
14, 0, Control_c, 11, 10, 43
14, 9480, Note_on_c, 11, 62, 110
14, 9539, Note_on_c, 11, 62, 0
14, 9540, Note_on_c, 11, 69, 110
14, 9659, Note_on_c, 11, 69, 0
14, 9660, Note_on_c, 11, 64, 110
14, 9719, Note_on_c, 11, 64, 0
14, 9720, Note_on_c, 11, 71, 110
14, 9839, Note_on_c, 11, 71, 0
14, 9840, Note_on_c, 11, 64, 110
14, 9899, Note_on_c, 11, 64, 0
14, 9900, Note_on_c, 11, 73, 110
14, 9959, Note_on_c, 11, 73, 0
14, 9960, Note_on_c, 11, 71, 110
14, 9989, Note_on_c, 11, 71, 0
14, 9990, Note_on_c, 11, 73, 110
14, 10019, Note_on_c, 11, 73, 0
14, 10020, Note_on_c, 11, 74, 110
14, 10049, Note_on_c, 11, 74, 0
14, 10050, Note_on_c, 11, 71, 110
14, 10079, Note_on_c, 11, 71, 0
14, 10080, Note_on_c, 11, 74, 110
14, 10109, Note_on_c, 11, 74, 0
14, 10110, Note_on_c, 11, 73, 110
14, 10139, Note_on_c, 11, 73, 0
14, 10140, Note_on_c, 11, 71, 110
14, 10169, Note_on_c, 11, 71, 0
14, 10170, Note_on_c, 11, 69, 110
14, 10199, Note_on_c, 11, 69, 0
14, 10200, Note_on_c, 11, 73, 110
14, 10229, Note_on_c, 11, 73, 0
14, 10230, Note_on_c, 11, 69, 110
14, 10259, Note_on_c, 11, 69, 0
14, 10260, Note_on_c, 11, 71, 110
14, 10289, Note_on_c, 11, 71, 0
14, 10290, Note_on_c, 11, 69, 110
14, 10319, Note_on_c, 11, 69, 0
14, 10320, Note_on_c, 11, 67, 110
14, 10349, Note_on_c, 11, 67, 0
14, 10350, Note_on_c, 11, 66, 110
14, 10379, Note_on_c, 11, 66, 0
14, 10380, Note_on_c, 11, 69, 110
14, 10409, Note_on_c, 11, 69, 0
14, 10410, Note_on_c, 11, 66, 110
14, 10439, Note_on_c, 11, 66, 0
14, 10440, Note_on_c, 11, 69, 110
14, 10469, Note_on_c, 11, 69, 0
14, 10470, Note_on_c, 11, 67, 110
14, 10499, Note_on_c, 11, 67, 0
14, 10500, Note_on_c, 11, 66, 110
14, 10529, Note_on_c, 11, 66, 0
14, 10530, Note_on_c, 11, 64, 110
14, 10559, Note_on_c, 11, 64, 0
14, 10560, Note_on_c, 11, 67, 110
14, 10589, Note_on_c, 11, 67, 0
14, 10590, Note_on_c, 11, 64, 110
14, 10619, Note_on_c, 11, 64, 0
14, 10620, Note_on_c, 11, 69, 110
14, 10679, Note_on_c, 11, 69, 0
14, 10680, Note_on_c, 11, 67, 110
14, 10709, Note_on_c, 11, 67, 0
14, 10710, Note_on_c, 11, 66, 110
14, 10739, Note_on_c, 11, 66, 0
14, 10740, Note_on_c, 11, 64, 110
14, 10769, Note_on_c, 11, 64, 0
14, 10770, Note_on_c, 11, 66, 110
14, 10799, Note_on_c, 11, 66, 0
14, 10800, Note_on_c, 11, 62, 110
14, 11010, Note_on_c, 11, 62, 0
14, 11010, Note_on_c, 11, 61, 110
14, 11039, Note_on_c, 11, 61, 0
14, 11040, Note_on_c, 11, 64, 110
14, 11219, Note_on_c, 11, 64, 0
14, 11220, Note_on_c, 11, 68, 110
14, 11279, Note_on_c, 11, 68, 0
14, 11280, Note_on_c, 11, 71, 110
14, 11339, Note_on_c, 11, 71, 0
14, 11340, Note_on_c, 11, 69, 110
14, 11399, Note_on_c, 11, 69, 0
14, 11400, Note_on_c, 11, 71, 110
14, 11429, Note_on_c, 11, 71, 0
14, 11430, Note_on_c, 11, 69, 110
14, 11459, Note_on_c, 11, 69, 0
14, 11460, Note_on_c, 11, 71, 110
14, 11489, Note_on_c, 11, 71, 0
14, 11490, Note_on_c, 11, 68, 110
14, 11519, Note_on_c, 11, 68, 0
14, 11520, Note_on_c, 11, 69, 110
14, 11579, Note_on_c, 11, 69, 0
14, 11580, Note_on_c, 11, 73, 110
14, 11639, Note_on_c, 11, 73, 0
14, 11640, Note_on_c, 11, 76, 110
14, 11699, Note_on_c, 11, 76, 0
14, 11700, Note_on_c, 11, 74, 110
14, 11759, Note_on_c, 11, 74, 0
14, 11760, Note_on_c, 11, 69, 110
14, 11819, Note_on_c, 11, 69, 0
14, 11820, Note_on_c, 11, 66, 110
14, 11879, Note_on_c, 11, 66, 0
14, 11880, Note_on_c, 11, 64, 110
14, 11939, Note_on_c, 11, 64, 0
14, 11940, Note_on_c, 11, 69, 110
14, 11969, Note_on_c, 11, 69, 0
14, 11970, Note_on_c, 11, 67, 110
14, 11999, Note_on_c, 11, 67, 0
14, 12000, Note_on_c, 11, 69, 110
14, 12059, Note_on_c, 11, 69, 0
14, 12060, Note_on_c, 11, 69, 110
14, 12179, Note_on_c, 11, 69, 0
14, 12180, Note_on_c, 11, 69, 110
14, 12239, Note_on_c, 11, 69, 0
14, 12240, Note_on_c, 11, 69, 110
14, 12299, Note_on_c, 11, 69, 0
14, 12300, Note_on_c, 11, 69, 110
14, 12359, Note_on_c, 11, 69, 0
14, 13080, Note_on_c, 11, 62, 110
14, 13139, Note_on_c, 11, 62, 0
14, 13140, Note_on_c, 11, 69, 110
14, 13259, Note_on_c, 11, 69, 0
14, 13260, Note_on_c, 11, 64, 110
14, 13319, Note_on_c, 11, 64, 0
14, 13320, Note_on_c, 11, 71, 110
14, 13439, Note_on_c, 11, 71, 0
14, 13440, Note_on_c, 11, 64, 110
14, 13499, Note_on_c, 11, 64, 0
14, 13500, Note_on_c, 11, 73, 110
14, 13559, Note_on_c, 11, 73, 0
14, 13560, Note_on_c, 11, 71, 110
14, 13589, Note_on_c, 11, 71, 0
14, 13590, Note_on_c, 11, 73, 110
14, 13619, Note_on_c, 11, 73, 0
14, 13620, Note_on_c, 11, 74, 110
14, 13649, Note_on_c, 11, 74, 0
14, 13650, Note_on_c, 11, 71, 110
14, 13679, Note_on_c, 11, 71, 0
14, 13680, Note_on_c, 11, 74, 110
14, 13709, Note_on_c, 11, 74, 0
14, 13710, Note_on_c, 11, 73, 110
14, 13739, Note_on_c, 11, 73, 0
14, 13740, Note_on_c, 11, 71, 110
14, 13769, Note_on_c, 11, 71, 0
14, 13770, Note_on_c, 11, 69, 110
14, 13799, Note_on_c, 11, 69, 0
14, 13800, Note_on_c, 11, 73, 110
14, 13829, Note_on_c, 11, 73, 0
14, 13830, Note_on_c, 11, 69, 110
14, 13859, Note_on_c, 11, 69, 0
14, 13860, Note_on_c, 11, 71, 110
14, 13889, Note_on_c, 11, 71, 0
14, 13890, Note_on_c, 11, 69, 110
14, 13919, Note_on_c, 11, 69, 0
14, 13920, Note_on_c, 11, 67, 110
14, 13949, Note_on_c, 11, 67, 0
14, 13950, Note_on_c, 11, 66, 110
14, 13979, Note_on_c, 11, 66, 0
14, 13980, Note_on_c, 11, 69, 110
14, 14009, Note_on_c, 11, 69, 0
14, 14010, Note_on_c, 11, 66, 110
14, 14039, Note_on_c, 11, 66, 0
14, 14040, Note_on_c, 11, 69, 110
14, 14069, Note_on_c, 11, 69, 0
14, 14070, Note_on_c, 11, 67, 110
14, 14099, Note_on_c, 11, 67, 0
14, 14100, Note_on_c, 11, 66, 110
14, 14129, Note_on_c, 11, 66, 0
14, 14130, Note_on_c, 11, 64, 110
14, 14159, Note_on_c, 11, 64, 0
14, 14160, Note_on_c, 11, 67, 110
14, 14189, Note_on_c, 11, 67, 0
14, 14190, Note_on_c, 11, 62, 110
14, 14219, Note_on_c, 11, 62, 0
14, 14220, Note_on_c, 11, 69, 110
14, 14279, Note_on_c, 11, 69, 0
14, 14280, Note_on_c, 11, 67, 110
14, 14309, Note_on_c, 11, 67, 0
14, 14310, Note_on_c, 11, 66, 110
14, 14339, Note_on_c, 11, 66, 0
14, 14340, Note_on_c, 11, 64, 110
14, 14369, Note_on_c, 11, 64, 0
14, 14370, Note_on_c, 11, 66, 110
14, 14399, Note_on_c, 11, 66, 0
14, 14400, Note_on_c, 11, 62, 110
14, 14610, Note_on_c, 11, 62, 0
14, 14610, Note_on_c, 11, 61, 110
14, 14639, Note_on_c, 11, 61, 0
14, 14640, Note_on_c, 11, 64, 110
14, 14819, Note_on_c, 11, 64, 0
14, 14820, Note_on_c, 11, 68, 110
14, 14879, Note_on_c, 11, 68, 0
14, 14880, Note_on_c, 11, 71, 110
14, 14939, Note_on_c, 11, 71, 0
14, 14940, Note_on_c, 11, 69, 110
14, 15059, Note_on_c, 11, 69, 0
14, 15060, Note_on_c, 11, 68, 110
14, 15119, Note_on_c, 11, 68, 0
14, 15120, Note_on_c, 11, 69, 110
14, 15179, Note_on_c, 11, 69, 0
14, 15180, Note_on_c, 11, 73, 110
14, 15239, Note_on_c, 11, 73, 0
14, 15240, Note_on_c, 11, 76, 110
14, 15299, Note_on_c, 11, 76, 0
14, 15300, Note_on_c, 11, 74, 110
14, 15359, Note_on_c, 11, 74, 0
14, 15360, Note_on_c, 11, 69, 110
14, 15419, Note_on_c, 11, 69, 0
14, 15420, Note_on_c, 11, 66, 110
14, 15479, Note_on_c, 11, 66, 0
14, 15480, Note_on_c, 11, 64, 110
14, 15539, Note_on_c, 11, 64, 0
14, 15540, Note_on_c, 11, 69, 110
14, 15569, Note_on_c, 11, 69, 0
14, 15570, Note_on_c, 11, 67, 110
14, 15599, Note_on_c, 11, 67, 0
14, 15600, Note_on_c, 11, 69, 110
14, 15659, Note_on_c, 11, 69, 0
14, 15660, Note_on_c, 11, 69, 110
14, 15899, Note_on_c, 11, 69, 0
14, 15900, Note_on_c, 11, 66, 110
14, 15959, Note_on_c, 11, 66, 0
14, 15960, Note_on_c, 11, 64, 110
14, 16019, Note_on_c, 11, 64, 0
14, 16020, Note_on_c, 11, 66, 110
14, 16079, Note_on_c, 11, 66, 0
14, 16080, Note_on_c, 11, 71, 110
14, 16109, Note_on_c, 11, 71, 0
14, 16110, Note_on_c, 11, 69, 110
14, 16139, Note_on_c, 11, 69, 0
14, 16140, Note_on_c, 11, 67, 110
14, 16169, Note_on_c, 11, 67, 0
14, 16170, Note_on_c, 11, 66, 110
14, 16199, Note_on_c, 11, 66, 0
14, 16200, Note_on_c, 11, 64, 110
14, 16259, Note_on_c, 11, 64, 0
14, 16260, Note_on_c, 11, 69, 110
14, 16289, Note_on_c, 11, 69, 0
14, 16290, Note_on_c, 11, 67, 110
14, 16319, Note_on_c, 11, 67, 0
14, 16320, Note_on_c, 11, 66, 110
14, 16349, Note_on_c, 11, 66, 0
14, 16350, Note_on_c, 11, 64, 110
14, 16379, Note_on_c, 11, 64, 0
14, 16380, Note_on_c, 11, 62, 110
14, 16439, Note_on_c, 11, 62, 0
14, 16440, Note_on_c, 11, 67, 110
14, 16499, Note_on_c, 11, 67, 0
14, 16500, Note_on_c, 11, 66, 110
14, 16559, Note_on_c, 11, 66, 0
14, 16560, Note_on_c, 11, 64, 110
14, 16799, Note_on_c, 11, 64, 0
14, 16800, Note_on_c, 11, 62, 110
14, 16859, Note_on_c, 11, 62, 0
14, 16860, Note_on_c, 11, 57, 110
14, 16919, Note_on_c, 11, 57, 0
14, 16920, Note_on_c, 11, 64, 110
14, 17039, Note_on_c, 11, 64, 0
14, 17040, Note_on_c, 11, 69, 110
14, 17099, Note_on_c, 11, 69, 0
14, 17100, Note_on_c, 11, 62, 110
14, 17219, Note_on_c, 11, 62, 0
14, 17400, Note_on_c, 11, 71, 110
14, 17459, Note_on_c, 11, 71, 0
14, 17460, Note_on_c, 11, 73, 110
14, 17489, Note_on_c, 11, 73, 0
14, 17490, Note_on_c, 11, 74, 110
14, 17519, Note_on_c, 11, 74, 0
14, 17520, Note_on_c, 11, 76, 110
14, 17549, Note_on_c, 11, 76, 0
14, 17550, Note_on_c, 11, 74, 110
14, 17579, Note_on_c, 11, 74, 0
14, 17580, Note_on_c, 11, 73, 110
14, 17609, Note_on_c, 11, 73, 0
14, 17610, Note_on_c, 11, 71, 110
14, 17639, Note_on_c, 11, 71, 0
14, 17640, Note_on_c, 11, 69, 110
14, 17699, Note_on_c, 11, 69, 0
14, 17700, Note_on_c, 11, 64, 110
14, 17759, Note_on_c, 11, 64, 0
14, 17760, Note_on_c, 11, 61, 110
14, 17819, Note_on_c, 11, 61, 0
14, 17820, Note_on_c, 11, 62, 110
14, 17879, Note_on_c, 11, 62, 0
14, 17880, Note_on_c, 11, 69, 110
14, 17939, Note_on_c, 11, 69, 0
14, 17940, Note_on_c, 11, 69, 110
14, 17999, Note_on_c, 11, 69, 0
14, 18000, Note_on_c, 11, 69, 110
14, 18239, Note_on_c, 11, 69, 0
14, 18240, Note_on_c, 11, 67, 110
14, 18269, Note_on_c, 11, 67, 0
14, 18270, Note_on_c, 11, 66, 110
14, 18299, Note_on_c, 11, 66, 0
14, 18300, Note_on_c, 11, 67, 110
14, 18359, Note_on_c, 11, 67, 0
14, 18360, Note_on_c, 11, 69, 110
14, 18419, Note_on_c, 11, 69, 0
14, 18420, Note_on_c, 11, 66, 110
14, 18479, Note_on_c, 11, 66, 0
14, 18480, Note_on_c, 11, 62, 110
14, 18539, Note_on_c, 11, 62, 0
14, 18540, Note_on_c, 11, 67, 110
14, 18569, Note_on_c, 11, 67, 0
14, 18570, Note_on_c, 11, 66, 110
14, 18599, Note_on_c, 11, 66, 0
14, 18600, Note_on_c, 11, 67, 110
14, 18629, Note_on_c, 11, 67, 0
14, 18630, Note_on_c, 11, 69, 110
14, 18659, Note_on_c, 11, 69, 0
14, 18660, Note_on_c, 11, 71, 110
14, 18719, Note_on_c, 11, 71, 0
14, 18720, Note_on_c, 11, 64, 110
14, 18779, Note_on_c, 11, 64, 0
14, 18780, Note_on_c, 11, 69, 110
14, 18809, Note_on_c, 11, 69, 0
14, 18810, Note_on_c, 11, 67, 110
14, 18839, Note_on_c, 11, 67, 0
14, 18840, Note_on_c, 11, 69, 110
14, 18899, Note_on_c, 11, 69, 0
14, 18900, Note_on_c, 11, 69, 110
14, 18959, Note_on_c, 11, 69, 0
14, 18960, Note_on_c, 11, 67, 110
14, 18989, Note_on_c, 11, 67, 0
14, 18990, Note_on_c, 11, 66, 110
14, 19019, Note_on_c, 11, 66, 0
14, 19020, Note_on_c, 11, 67, 110
14, 19139, Note_on_c, 11, 67, 0
14, 19140, Note_on_c, 11, 66, 110
14, 19169, Note_on_c, 11, 66, 0
14, 19170, Note_on_c, 11, 64, 110
14, 19199, Note_on_c, 11, 64, 0
14, 19200, Note_on_c, 11, 66, 110
14, 19319, Note_on_c, 11, 66, 0
14, 19320, Note_on_c, 11, 64, 110
14, 19379, Note_on_c, 11, 64, 0
14, 19380, Note_on_c, 11, 62, 110
14, 19439, Note_on_c, 11, 62, 0
14, 19440, Note_on_c, 11, 64, 110
14, 19499, Note_on_c, 11, 64, 0
14, 19500, Note_on_c, 11, 64, 110
14, 19559, Note_on_c, 11, 64, 0
14, 19560, Note_on_c, 11, 69, 110
14, 19619, Note_on_c, 11, 69, 0
14, 19620, Note_on_c, 11, 69, 110
14, 19679, Note_on_c, 11, 69, 0
14, 19680, Note_on_c, 11, 67, 110
14, 19709, Note_on_c, 11, 67, 0
14, 19710, Note_on_c, 11, 69, 110
14, 19739, Note_on_c, 11, 69, 0
14, 19740, Note_on_c, 11, 71, 110
14, 19799, Note_on_c, 11, 71, 0
14, 19800, Note_on_c, 11, 64, 110
14, 19859, Note_on_c, 11, 64, 0
14, 19860, Note_on_c, 11, 66, 110
14, 19889, Note_on_c, 11, 66, 0
14, 19890, Note_on_c, 11, 67, 110
14, 19919, Note_on_c, 11, 67, 0
14, 19920, Note_on_c, 11, 69, 110
14, 19979, Note_on_c, 11, 69, 0
14, 19980, Note_on_c, 11, 62, 110
14, 20039, Note_on_c, 11, 62, 0
14, 20040, Note_on_c, 11, 64, 110
14, 20099, Note_on_c, 11, 64, 0
14, 20100, Note_on_c, 11, 57, 110
14, 20159, Note_on_c, 11, 57, 0
14, 20160, Note_on_c, 11, 69, 110
14, 20219, Note_on_c, 11, 69, 0
14, 20220, Note_on_c, 11, 69, 110
14, 20279, Note_on_c, 11, 69, 0
14, 20280, Note_on_c, 11, 64, 110
14, 20339, Note_on_c, 11, 64, 0
14, 20340, Note_on_c, 11, 66, 110
14, 20369, Note_on_c, 11, 66, 0
14, 20370, Note_on_c, 11, 67, 110
14, 20399, Note_on_c, 11, 67, 0
14, 20400, Note_on_c, 11, 69, 110
14, 20459, Note_on_c, 11, 69, 0
14, 20460, Note_on_c, 11, 69, 110
14, 20519, Note_on_c, 11, 69, 0
14, 20520, Note_on_c, 11, 69, 110
14, 20549, Note_on_c, 11, 69, 0
14, 20550, Note_on_c, 11, 71, 110
14, 20579, Note_on_c, 11, 71, 0
14, 20580, Note_on_c, 11, 73, 110
14, 20639, Note_on_c, 11, 73, 0
14, 20640, Note_on_c, 11, 68, 110
14, 20699, Note_on_c, 11, 68, 0
14, 20700, Note_on_c, 11, 73, 110
14, 20759, Note_on_c, 11, 73, 0
14, 20760, Note_on_c, 11, 66, 110
14, 20819, Note_on_c, 11, 66, 0
14, 20820, Note_on_c, 11, 68, 110
14, 20879, Note_on_c, 11, 68, 0
14, 20880, Note_on_c, 11, 69, 110
14, 20939, Note_on_c, 11, 69, 0
14, 23160, Note_on_c, 11, 66, 110
14, 23219, Note_on_c, 11, 66, 0
14, 23220, Note_on_c, 11, 71, 110
14, 23339, Note_on_c, 11, 71, 0
14, 23340, Note_on_c, 11, 71, 110
14, 23399, Note_on_c, 11, 71, 0
14, 23400, Note_on_c, 11, 71, 110
14, 23459, Note_on_c, 11, 71, 0
14, 23460, Note_on_c, 11, 68, 110
14, 23489, Note_on_c, 11, 68, 0
14, 23490, Note_on_c, 11, 69, 110
14, 23519, Note_on_c, 11, 69, 0
14, 23520, Note_on_c, 11, 71, 110
14, 23579, Note_on_c, 11, 71, 0
14, 23580, Note_on_c, 11, 65, 110
14, 23639, Note_on_c, 11, 65, 0
14, 23640, Note_on_c, 11, 66, 110
14, 23699, Note_on_c, 11, 66, 0
14, 23700, Note_on_c, 11, 68, 110
14, 23759, Note_on_c, 11, 68, 0
14, 23760, Note_on_c, 11, 71, 110
14, 23789, Note_on_c, 11, 71, 0
14, 23790, Note_on_c, 11, 69, 110
14, 23819, Note_on_c, 11, 69, 0
14, 23820, Note_on_c, 11, 73, 110
14, 23849, Note_on_c, 11, 73, 0
14, 23850, Note_on_c, 11, 71, 110
14, 23879, Note_on_c, 11, 71, 0
14, 23880, Note_on_c, 11, 69, 110
14, 23909, Note_on_c, 11, 69, 0
14, 23910, Note_on_c, 11, 68, 110
14, 23939, Note_on_c, 11, 68, 0
14, 23940, Note_on_c, 11, 69, 110
14, 24150, Note_on_c, 11, 69, 0
14, 24150, Note_on_c, 11, 66, 110
14, 24179, Note_on_c, 11, 66, 0
14, 24180, Note_on_c, 11, 69, 110
14, 24209, Note_on_c, 11, 69, 0
14, 24210, Note_on_c, 11, 67, 110
14, 24239, Note_on_c, 11, 67, 0
14, 24240, Note_on_c, 11, 66, 110
14, 24269, Note_on_c, 11, 66, 0
14, 24270, Note_on_c, 11, 64, 110
14, 24299, Note_on_c, 11, 64, 0
14, 24300, Note_on_c, 11, 66, 110
14, 24329, Note_on_c, 11, 66, 0
14, 24330, Note_on_c, 11, 63, 110
14, 24359, Note_on_c, 11, 63, 0
14, 24360, Note_on_c, 11, 71, 110
14, 24389, Note_on_c, 11, 71, 0
14, 24390, Note_on_c, 11, 69, 110
14, 24419, Note_on_c, 11, 69, 0
14, 24420, Note_on_c, 11, 67, 110
14, 24449, Note_on_c, 11, 67, 0
14, 24450, Note_on_c, 11, 66, 110
14, 24479, Note_on_c, 11, 66, 0
14, 24480, Note_on_c, 11, 67, 110
14, 24509, Note_on_c, 11, 67, 0
14, 24510, Note_on_c, 11, 66, 110
14, 24539, Note_on_c, 11, 66, 0
14, 24540, Note_on_c, 11, 69, 110
14, 24569, Note_on_c, 11, 69, 0
14, 24570, Note_on_c, 11, 67, 110
14, 24599, Note_on_c, 11, 67, 0
14, 24600, Note_on_c, 11, 66, 110
14, 24629, Note_on_c, 11, 66, 0
14, 24630, Note_on_c, 11, 64, 110
14, 24659, Note_on_c, 11, 64, 0
14, 24660, Note_on_c, 11, 71, 110
14, 24689, Note_on_c, 11, 71, 0
14, 24690, Note_on_c, 11, 70, 110
14, 24719, Note_on_c, 11, 70, 0
14, 24720, Note_on_c, 11, 73, 110
14, 24749, Note_on_c, 11, 73, 0
14, 24750, Note_on_c, 11, 71, 110
14, 24779, Note_on_c, 11, 71, 0
14, 24780, Note_on_c, 11, 70, 110
14, 24809, Note_on_c, 11, 70, 0
14, 24810, Note_on_c, 11, 68, 110
14, 24839, Note_on_c, 11, 68, 0
14, 24840, Note_on_c, 11, 73, 110
14, 25050, Note_on_c, 11, 73, 0
14, 25050, Note_on_c, 11, 71, 110
14, 25079, Note_on_c, 11, 71, 0
14, 25080, Note_on_c, 11, 74, 110
14, 25109, Note_on_c, 11, 74, 0
14, 25110, Note_on_c, 11, 73, 110
14, 25139, Note_on_c, 11, 73, 0
14, 25140, Note_on_c, 11, 71, 110
14, 25169, Note_on_c, 11, 71, 0
14, 25170, Note_on_c, 11, 70, 110
14, 25199, Note_on_c, 11, 70, 0
14, 25200, Note_on_c, 11, 71, 110
14, 25259, Note_on_c, 11, 71, 0
14, 25260, Note_on_c, 11, 66, 110
14, 25319, Note_on_c, 11, 66, 0
14, 25320, Note_on_c, 11, 70, 110
14, 25379, Note_on_c, 11, 70, 0
14, 25380, Note_on_c, 11, 71, 110
14, 25439, Note_on_c, 11, 71, 0
14, 25440, Note_on_c, 11, 69, 110
14, 25469, Note_on_c, 11, 69, 0
14, 25470, Note_on_c, 11, 68, 110
14, 25499, Note_on_c, 11, 68, 0
14, 25500, Note_on_c, 11, 69, 110
14, 25559, Note_on_c, 11, 69, 0
14, 25560, Note_on_c, 11, 68, 110
14, 25619, Note_on_c, 11, 68, 0
14, 25620, Note_on_c, 11, 71, 110
14, 25679, Note_on_c, 11, 71, 0
14, 25680, Note_on_c, 11, 74, 110
14, 25739, Note_on_c, 11, 74, 0
14, 25740, Note_on_c, 11, 74, 110
14, 25799, Note_on_c, 11, 74, 0
14, 25800, Note_on_c, 11, 69, 110
14, 25859, Note_on_c, 11, 69, 0
14, 25860, Note_on_c, 11, 68, 110
14, 25919, Note_on_c, 11, 68, 0
14, 25920, Note_on_c, 11, 76, 110
14, 25979, Note_on_c, 11, 76, 0
14, 25980, Note_on_c, 11, 69, 110
14, 26039, Note_on_c, 11, 69, 0
14, 26040, Note_on_c, 11, 71, 110
14, 26099, Note_on_c, 11, 71, 0
14, 26100, Note_on_c, 11, 69, 110
14, 26159, Note_on_c, 11, 69, 0
14, 26160, Note_on_c, 11, 66, 110
14, 26189, Note_on_c, 11, 66, 0
14, 26190, Note_on_c, 11, 67, 110
14, 26219, Note_on_c, 11, 67, 0
14, 26220, Note_on_c, 11, 69, 110
14, 26279, Note_on_c, 11, 69, 0
14, 26280, Note_on_c, 11, 71, 110
14, 26339, Note_on_c, 11, 71, 0
14, 26340, Note_on_c, 11, 69, 110
14, 26369, Note_on_c, 11, 69, 0
14, 26370, Note_on_c, 11, 67, 110
14, 26399, Note_on_c, 11, 67, 0
14, 26400, Note_on_c, 11, 66, 110
14, 26429, Note_on_c, 11, 66, 0
14, 26430, Note_on_c, 11, 64, 110
14, 26459, Note_on_c, 11, 64, 0
14, 26460, Note_on_c, 11, 63, 110
14, 26519, Note_on_c, 11, 63, 0
14, 26520, Note_on_c, 11, 64, 110
14, 26579, Note_on_c, 11, 64, 0
14, 26580, Note_on_c, 11, 71, 110
14, 26639, Note_on_c, 11, 71, 0
14, 26640, Note_on_c, 11, 71, 110
14, 26759, Note_on_c, 11, 71, 0
14, 26760, Note_on_c, 11, 71, 110
14, 26819, Note_on_c, 11, 71, 0
14, 26820, Note_on_c, 11, 71, 110
14, 26879, Note_on_c, 11, 71, 0
14, 26880, Note_on_c, 11, 76, 110
14, 26939, Note_on_c, 11, 76, 0
14, 26940, Note_on_c, 11, 67, 110
14, 26999, Note_on_c, 11, 67, 0
14, 27000, Note_on_c, 11, 69, 110
14, 27119, Note_on_c, 11, 69, 0
14, 27120, Note_on_c, 11, 69, 110
14, 27179, Note_on_c, 11, 69, 0
14, 27180, Note_on_c, 11, 69, 110
14, 27299, Note_on_c, 11, 69, 0
14, 27300, Note_on_c, 11, 69, 110
14, 27359, Note_on_c, 11, 69, 0
14, 27360, Note_on_c, 11, 69, 110
14, 27419, Note_on_c, 11, 69, 0
14, 27420, Note_on_c, 11, 69, 110
14, 27479, Note_on_c, 11, 69, 0
14, 27480, Note_on_c, 11, 62, 110
14, 27539, Note_on_c, 11, 62, 0
14, 27540, Note_on_c, 11, 62, 110
14, 27599, Note_on_c, 11, 62, 0
14, 27600, Note_on_c, 11, 64, 110
14, 27659, Note_on_c, 11, 64, 0
14, 27660, Note_on_c, 11, 66, 110
14, 27719, Note_on_c, 11, 66, 0
14, 27720, Note_on_c, 11, 67, 110
14, 27749, Note_on_c, 11, 67, 0
14, 27750, Note_on_c, 11, 69, 110
14, 27779, Note_on_c, 11, 69, 0
14, 27780, Note_on_c, 11, 71, 110
14, 27839, Note_on_c, 11, 71, 0
14, 27840, Note_on_c, 11, 70, 110
14, 27899, Note_on_c, 11, 70, 0
14, 27900, Note_on_c, 11, 71, 110
14, 27959, Note_on_c, 11, 71, 0
14, 27960, Note_on_c, 11, 73, 110
14, 28019, Note_on_c, 11, 73, 0
14, 28020, Note_on_c, 11, 70, 110
14, 28079, Note_on_c, 11, 70, 0
14, 28080, Note_on_c, 11, 71, 110
14, 28139, Note_on_c, 11, 71, 0
14, 28500, Note_on_c, 11, 68, 110
14, 28529, Note_on_c, 11, 68, 0
14, 28530, Note_on_c, 11, 70, 110
14, 28559, Note_on_c, 11, 70, 0
14, 28560, Note_on_c, 11, 71, 110
14, 28619, Note_on_c, 11, 71, 0
14, 28620, Note_on_c, 11, 71, 110
14, 28679, Note_on_c, 11, 71, 0
14, 28680, Note_on_c, 11, 74, 110
14, 28709, Note_on_c, 11, 74, 0
14, 28710, Note_on_c, 11, 73, 110
14, 28739, Note_on_c, 11, 73, 0
14, 28740, Note_on_c, 11, 71, 110
14, 28769, Note_on_c, 11, 71, 0
14, 28770, Note_on_c, 11, 70, 110
14, 28799, Note_on_c, 11, 70, 0
14, 28800, Note_on_c, 11, 71, 110
14, 28919, Note_on_c, 11, 71, 0
14, 29640, Note_on_c, 11, 66, 110
14, 29699, Note_on_c, 11, 66, 0
14, 29700, Note_on_c, 11, 69, 110
14, 29819, Note_on_c, 11, 69, 0
14, 29820, Note_on_c, 11, 69, 110
14, 29879, Note_on_c, 11, 69, 0
14, 29880, Note_on_c, 11, 69, 110
14, 29999, Note_on_c, 11, 69, 0
14, 30000, Note_on_c, 11, 69, 110
14, 30059, Note_on_c, 11, 69, 0
14, 30060, Note_on_c, 11, 69, 110
14, 30179, Note_on_c, 11, 69, 0
14, 30180, Note_on_c, 11, 69, 110
14, 30239, Note_on_c, 11, 69, 0
14, 30240, Note_on_c, 11, 69, 110
14, 30299, Note_on_c, 11, 69, 0
14, 30300, Note_on_c, 11, 66, 110
14, 30359, Note_on_c, 11, 66, 0
14, 30360, Note_on_c, 11, 62, 110
14, 30419, Note_on_c, 11, 62, 0
14, 30420, Note_on_c, 11, 69, 110
14, 30539, Note_on_c, 11, 69, 0
14, 30540, Note_on_c, 11, 64, 110
14, 30599, Note_on_c, 11, 64, 0
14, 30600, Note_on_c, 11, 71, 110
14, 30719, Note_on_c, 11, 71, 0
14, 30720, Note_on_c, 11, 64, 110
14, 30779, Note_on_c, 11, 64, 0
14, 30780, Note_on_c, 11, 73, 110
14, 30839, Note_on_c, 11, 73, 0
14, 30840, Note_on_c, 11, 71, 110
14, 30869, Note_on_c, 11, 71, 0
14, 30870, Note_on_c, 11, 73, 110
14, 30899, Note_on_c, 11, 73, 0
14, 30900, Note_on_c, 11, 74, 110
14, 30929, Note_on_c, 11, 74, 0
14, 30930, Note_on_c, 11, 71, 110
14, 30959, Note_on_c, 11, 71, 0
14, 30960, Note_on_c, 11, 74, 110
14, 30989, Note_on_c, 11, 74, 0
14, 30990, Note_on_c, 11, 73, 110
14, 31019, Note_on_c, 11, 73, 0
14, 31020, Note_on_c, 11, 71, 110
14, 31049, Note_on_c, 11, 71, 0
14, 31050, Note_on_c, 11, 69, 110
14, 31079, Note_on_c, 11, 69, 0
14, 31080, Note_on_c, 11, 73, 110
14, 31109, Note_on_c, 11, 73, 0
14, 31110, Note_on_c, 11, 69, 110
14, 31139, Note_on_c, 11, 69, 0
14, 31140, Note_on_c, 11, 71, 110
14, 31169, Note_on_c, 11, 71, 0
14, 31170, Note_on_c, 11, 69, 110
14, 31199, Note_on_c, 11, 69, 0
14, 31200, Note_on_c, 11, 67, 110
14, 31229, Note_on_c, 11, 67, 0
14, 31230, Note_on_c, 11, 66, 110
14, 31259, Note_on_c, 11, 66, 0
14, 31260, Note_on_c, 11, 69, 110
14, 31289, Note_on_c, 11, 69, 0
14, 31290, Note_on_c, 11, 66, 110
14, 31319, Note_on_c, 11, 66, 0
14, 31320, Note_on_c, 11, 69, 110
14, 31349, Note_on_c, 11, 69, 0
14, 31350, Note_on_c, 11, 67, 110
14, 31379, Note_on_c, 11, 67, 0
14, 31380, Note_on_c, 11, 66, 110
14, 31409, Note_on_c, 11, 66, 0
14, 31410, Note_on_c, 11, 64, 110
14, 31439, Note_on_c, 11, 64, 0
14, 31440, Note_on_c, 11, 67, 110
14, 31469, Note_on_c, 11, 67, 0
14, 31470, Note_on_c, 11, 64, 110
14, 31499, Note_on_c, 11, 64, 0
14, 31500, Note_on_c, 11, 69, 110
14, 31559, Note_on_c, 11, 69, 0
14, 31560, Note_on_c, 11, 67, 110
14, 31589, Note_on_c, 11, 67, 0
14, 31590, Note_on_c, 11, 66, 110
14, 31619, Note_on_c, 11, 66, 0
14, 31620, Note_on_c, 11, 64, 110
14, 31649, Note_on_c, 11, 64, 0
14, 31650, Note_on_c, 11, 66, 110
14, 31679, Note_on_c, 11, 66, 0
14, 31680, Note_on_c, 11, 62, 110
14, 31739, Note_on_c, 11, 62, 0
14, 31740, Note_on_c, 11, 66, 110
14, 31799, Note_on_c, 11, 66, 0
14, 31800, Note_on_c, 11, 69, 110
14, 31859, Note_on_c, 11, 69, 0
14, 31860, Note_on_c, 11, 69, 110
14, 31919, Note_on_c, 11, 69, 0
14, 31920, Note_on_c, 11, 71, 110
14, 31979, Note_on_c, 11, 71, 0
14, 31980, Note_on_c, 11, 73, 110
14, 32039, Note_on_c, 11, 73, 0
14, 32040, Note_on_c, 11, 71, 110
14, 32099, Note_on_c, 11, 71, 0
14, 32100, Note_on_c, 11, 69, 110
14, 32129, Note_on_c, 11, 69, 0
14, 32130, Note_on_c, 11, 68, 110
14, 32159, Note_on_c, 11, 68, 0
14, 32160, Note_on_c, 11, 71, 110
14, 32219, Note_on_c, 11, 71, 0
14, 32220, Note_on_c, 11, 69, 110
14, 32279, Note_on_c, 11, 69, 0
14, 32280, Note_on_c, 11, 71, 110
14, 32339, Note_on_c, 11, 71, 0
14, 32340, Note_on_c, 11, 68, 110
14, 32399, Note_on_c, 11, 68, 0
14, 32400, Note_on_c, 11, 69, 110
14, 32459, Note_on_c, 11, 69, 0
14, 32460, Note_on_c, 11, 64, 110
14, 32519, Note_on_c, 11, 64, 0
14, 32520, Note_on_c, 11, 64, 110
14, 32579, Note_on_c, 11, 64, 0
14, 32580, Note_on_c, 11, 69, 110
14, 32639, Note_on_c, 11, 69, 0
14, 32640, Note_on_c, 11, 67, 110
14, 32699, Note_on_c, 11, 67, 0
14, 32700, Note_on_c, 11, 66, 110
14, 32759, Note_on_c, 11, 66, 0
14, 32760, Note_on_c, 11, 64, 110
14, 32819, Note_on_c, 11, 64, 0
14, 32820, Note_on_c, 11, 69, 110
14, 32879, Note_on_c, 11, 69, 0
14, 32880, Note_on_c, 11, 69, 110
14, 32939, Note_on_c, 11, 69, 0
14, 32940, Note_on_c, 11, 69, 110
14, 33059, Note_on_c, 11, 69, 0
14, 33060, Note_on_c, 11, 69, 110
14, 33119, Note_on_c, 11, 69, 0
14, 33120, Note_on_c, 11, 69, 110
14, 33179, Note_on_c, 11, 69, 0
14, 33180, Note_on_c, 11, 66, 110
14, 33239, Note_on_c, 11, 66, 0
14, 35400, Note_on_c, 11, 64, 110
14, 35459, Note_on_c, 11, 64, 0
14, 35460, Note_on_c, 11, 66, 110
14, 35519, Note_on_c, 11, 66, 0
14, 35520, Note_on_c, 11, 71, 110
14, 35549, Note_on_c, 11, 71, 0
14, 35550, Note_on_c, 11, 69, 110
14, 35579, Note_on_c, 11, 69, 0
14, 35580, Note_on_c, 11, 67, 110
14, 35609, Note_on_c, 11, 67, 0
14, 35610, Note_on_c, 11, 66, 110
14, 35639, Note_on_c, 11, 66, 0
14, 35640, Note_on_c, 11, 64, 110
14, 35699, Note_on_c, 11, 64, 0
14, 35700, Note_on_c, 11, 69, 110
14, 35729, Note_on_c, 11, 69, 0
14, 35730, Note_on_c, 11, 67, 110
14, 35759, Note_on_c, 11, 67, 0
14, 35760, Note_on_c, 11, 66, 110
14, 35789, Note_on_c, 11, 66, 0
14, 35790, Note_on_c, 11, 64, 110
14, 35819, Note_on_c, 11, 64, 0
14, 35820, Note_on_c, 11, 62, 110
14, 35879, Note_on_c, 11, 62, 0
14, 35880, Note_on_c, 11, 67, 110
14, 35939, Note_on_c, 11, 67, 0
14, 35940, Note_on_c, 11, 66, 110
14, 35999, Note_on_c, 11, 66, 0
14, 36000, Note_on_c, 11, 64, 110
14, 36059, Note_on_c, 11, 64, 0
14, 36060, Note_on_c, 11, 69, 110
14, 36239, Note_on_c, 11, 69, 0
14, 36240, Note_on_c, 11, 67, 110
14, 36269, Note_on_c, 11, 67, 0
14, 36270, Note_on_c, 11, 66, 110
14, 36299, Note_on_c, 11, 66, 0
14, 36300, Note_on_c, 11, 67, 110
14, 36359, Note_on_c, 11, 67, 0
14, 36360, Note_on_c, 11, 67, 110
14, 36419, Note_on_c, 11, 67, 0
14, 36420, Note_on_c, 11, 66, 110
14, 36479, Note_on_c, 11, 66, 0
14, 36480, Note_on_c, 11, 66, 110
14, 36539, Note_on_c, 11, 66, 0
14, 36540, Note_on_c, 11, 66, 110
14, 36599, Note_on_c, 11, 66, 0
14, 36600, Note_on_c, 11, 64, 110
14, 36659, Note_on_c, 11, 64, 0
14, 36660, Note_on_c, 11, 62, 110
14, 36719, Note_on_c, 11, 62, 0
14, 36720, Note_on_c, 11, 61, 110
14, 36779, Note_on_c, 11, 61, 0
14, 36780, Note_on_c, 11, 62, 110
14, 36839, Note_on_c, 11, 62, 0
14, 36840, Note_on_c, 11, 67, 110
14, 36899, Note_on_c, 11, 67, 0
14, 36900, Note_on_c, 11, 66, 110
14, 36959, Note_on_c, 11, 66, 0
14, 36960, Note_on_c, 11, 67, 110
14, 36989, Note_on_c, 11, 67, 0
14, 36990, Note_on_c, 11, 69, 110
14, 37019, Note_on_c, 11, 69, 0
14, 37020, Note_on_c, 11, 71, 110
14, 37079, Note_on_c, 11, 71, 0
14, 37080, Note_on_c, 11, 64, 110
14, 37139, Note_on_c, 11, 64, 0
14, 37140, Note_on_c, 11, 66, 110
14, 37169, Note_on_c, 11, 66, 0
14, 37170, Note_on_c, 11, 67, 110
14, 37199, Note_on_c, 11, 67, 0
14, 37200, Note_on_c, 11, 69, 110
14, 37259, Note_on_c, 11, 69, 0
14, 37260, Note_on_c, 11, 62, 110
14, 37319, Note_on_c, 11, 62, 0
14, 37320, Note_on_c, 11, 64, 110
14, 37379, Note_on_c, 11, 64, 0
14, 37380, Note_on_c, 11, 57, 110
14, 37439, Note_on_c, 11, 57, 0
14, 37440, Note_on_c, 11, 69, 110
14, 37499, Note_on_c, 11, 69, 0
14, 37500, Note_on_c, 11, 69, 110
14, 37559, Note_on_c, 11, 69, 0
14, 37560, Note_on_c, 11, 64, 110
14, 37619, Note_on_c, 11, 64, 0
14, 37620, Note_on_c, 11, 66, 110
14, 37649, Note_on_c, 11, 66, 0
14, 37650, Note_on_c, 11, 67, 110
14, 37679, Note_on_c, 11, 67, 0
14, 37680, Note_on_c, 11, 69, 110
14, 37739, Note_on_c, 11, 69, 0
14, 37740, Note_on_c, 11, 69, 110
14, 37799, Note_on_c, 11, 69, 0
14, 37800, Note_on_c, 11, 69, 110
14, 37829, Note_on_c, 11, 69, 0
14, 37830, Note_on_c, 11, 71, 110
14, 37859, Note_on_c, 11, 71, 0
14, 37860, Note_on_c, 11, 73, 110
14, 37919, Note_on_c, 11, 73, 0
14, 37920, Note_on_c, 11, 68, 110
14, 37979, Note_on_c, 11, 68, 0
14, 37980, Note_on_c, 11, 73, 110
14, 38039, Note_on_c, 11, 73, 0
14, 38040, Note_on_c, 11, 66, 110
14, 38099, Note_on_c, 11, 66, 0
14, 38100, Note_on_c, 11, 68, 110
14, 38159, Note_on_c, 11, 68, 0
14, 38160, Note_on_c, 11, 69, 110
14, 38219, Note_on_c, 11, 69, 0
14, 38580, Note_on_c, 11, 66, 110
14, 38609, Note_on_c, 11, 66, 0
14, 38610, Note_on_c, 11, 68, 110
14, 38639, Note_on_c, 11, 68, 0
14, 38640, Note_on_c, 11, 69, 110
14, 38699, Note_on_c, 11, 69, 0
14, 38700, Note_on_c, 11, 69, 110
14, 38759, Note_on_c, 11, 69, 0
14, 38760, Note_on_c, 11, 73, 110
14, 38789, Note_on_c, 11, 73, 0
14, 38790, Note_on_c, 11, 71, 110
14, 38819, Note_on_c, 11, 71, 0
14, 38820, Note_on_c, 11, 69, 110
14, 38849, Note_on_c, 11, 69, 0
14, 38850, Note_on_c, 11, 68, 110
14, 38879, Note_on_c, 11, 68, 0
14, 38880, Note_on_c, 11, 69, 110
14, 38999, Note_on_c, 11, 69, 0
14, 39000, Note_on_c, 11, 69, 110
14, 39059, Note_on_c, 11, 69, 0
14, 39060, Note_on_c, 11, 69, 110
14, 39119, Note_on_c, 11, 69, 0
14, 39180, Note_on_c, 11, 69, 110
14, 39239, Note_on_c, 11, 69, 0
14, 39240, Note_on_c, 11, 69, 110
14, 39359, Note_on_c, 11, 69, 0
14, 39360, Note_on_c, 11, 69, 110
14, 39419, Note_on_c, 11, 69, 0
14, 39420, Note_on_c, 11, 69, 110
14, 39449, Note_on_c, 11, 69, 0
14, 39450, Note_on_c, 11, 72, 110
14, 39479, Note_on_c, 11, 72, 0
14, 39480, Note_on_c, 11, 71, 110
14, 39509, Note_on_c, 11, 71, 0
14, 39510, Note_on_c, 11, 69, 110
14, 39539, Note_on_c, 11, 69, 0
14, 39540, Note_on_c, 11, 67, 110
14, 39569, Note_on_c, 11, 67, 0
14, 39570, Note_on_c, 11, 66, 110
14, 39599, Note_on_c, 11, 66, 0
14, 39600, Note_on_c, 11, 69, 110
14, 39629, Note_on_c, 11, 69, 0
14, 39630, Note_on_c, 11, 67, 110
14, 39659, Note_on_c, 11, 67, 0
14, 39660, Note_on_c, 11, 66, 110
14, 39689, Note_on_c, 11, 66, 0
14, 39690, Note_on_c, 11, 64, 110
14, 39719, Note_on_c, 11, 64, 0
14, 39720, Note_on_c, 11, 71, 110
14, 39779, Note_on_c, 11, 71, 0
14, 39780, Note_on_c, 11, 67, 110
14, 39839, Note_on_c, 11, 67, 0
14, 39900, Note_on_c, 11, 67, 110
14, 39959, Note_on_c, 11, 67, 0
14, 39960, Note_on_c, 11, 67, 110
14, 40079, Note_on_c, 11, 67, 0
14, 40080, Note_on_c, 11, 67, 110
14, 40139, Note_on_c, 11, 67, 0
14, 40140, Note_on_c, 11, 67, 110
14, 40169, Note_on_c, 11, 67, 0
14, 40170, Note_on_c, 11, 71, 110
14, 40199, Note_on_c, 11, 71, 0
14, 40200, Note_on_c, 11, 69, 110
14, 40229, Note_on_c, 11, 69, 0
14, 40230, Note_on_c, 11, 67, 110
14, 40259, Note_on_c, 11, 67, 0
14, 40260, Note_on_c, 11, 66, 110
14, 40289, Note_on_c, 11, 66, 0
14, 40290, Note_on_c, 11, 64, 110
14, 40319, Note_on_c, 11, 64, 0
14, 40320, Note_on_c, 11, 67, 110
14, 40349, Note_on_c, 11, 67, 0
14, 40350, Note_on_c, 11, 66, 110
14, 40379, Note_on_c, 11, 66, 0
14, 40380, Note_on_c, 11, 64, 110
14, 40409, Note_on_c, 11, 64, 0
14, 40410, Note_on_c, 11, 62, 110
14, 40439, Note_on_c, 11, 62, 0
14, 40440, Note_on_c, 11, 69, 110
14, 40499, Note_on_c, 11, 69, 0
14, 40500, Note_on_c, 11, 71, 110
14, 40529, Note_on_c, 11, 71, 0
14, 40530, Note_on_c, 11, 69, 110
14, 40559, Note_on_c, 11, 69, 0
14, 40560, Note_on_c, 11, 71, 110
14, 40619, Note_on_c, 11, 71, 0
14, 40620, Note_on_c, 11, 67, 110
14, 40679, Note_on_c, 11, 67, 0
14, 40680, Note_on_c, 11, 69, 110
14, 40739, Note_on_c, 11, 69, 0
14, 40740, Note_on_c, 11, 67, 110
14, 40799, Note_on_c, 11, 67, 0
14, 40800, Note_on_c, 11, 69, 110
14, 40859, Note_on_c, 11, 69, 0
14, 40860, Note_on_c, 11, 67, 110
14, 40919, Note_on_c, 11, 67, 0
14, 40920, Note_on_c, 11, 69, 110
14, 40979, Note_on_c, 11, 69, 0
14, 40980, Note_on_c, 11, 71, 110
14, 41039, Note_on_c, 11, 71, 0
14, 41040, Note_on_c, 11, 69, 110
14, 41159, Note_on_c, 11, 69, 0
14, 41160, Note_on_c, 11, 69, 110
14, 41219, Note_on_c, 11, 69, 0
14, 41220, Note_on_c, 11, 71, 110
14, 41279, Note_on_c, 11, 71, 0
14, 41280, Note_on_c, 11, 69, 110
14, 41339, Note_on_c, 11, 69, 0
14, 41340, Note_on_c, 11, 71, 110
14, 41399, Note_on_c, 11, 71, 0
14, 41400, Note_on_c, 11, 64, 110
14, 41519, Note_on_c, 11, 64, 0
14, 41520, Note_on_c, 11, 69, 110
14, 41579, Note_on_c, 11, 69, 0
14, 41580, Note_on_c, 11, 66, 110
14, 41699, Note_on_c, 11, 66, 0
14, 41700, Note_on_c, 11, 66, 110
14, 41759, Note_on_c, 11, 66, 0
14, 41760, Note_on_c, 11, 66, 110
14, 41879, Note_on_c, 11, 66, 0
14, 41880, Note_on_c, 11, 62, 110
14, 41939, Note_on_c, 11, 62, 0
14, 41940, Note_on_c, 11, 62, 110
14, 41999, Note_on_c, 11, 62, 0
14, 42000, Note_on_c, 11, 67, 110
14, 42059, Note_on_c, 11, 67, 0
14, 42060, Note_on_c, 11, 70, 110
14, 42119, Note_on_c, 11, 70, 0
14, 42120, Note_on_c, 11, 71, 110
14, 42239, Note_on_c, 11, 71, 0
14, 42240, Note_on_c, 11, 68, 110
14, 42299, Note_on_c, 11, 68, 0
14, 42300, Note_on_c, 11, 66, 110
14, 42359, Note_on_c, 11, 66, 0
14, 42360, Note_on_c, 11, 71, 110
14, 42419, Note_on_c, 11, 71, 0
14, 42420, Note_on_c, 11, 69, 110
14, 42479, Note_on_c, 11, 69, 0
14, 42480, Note_on_c, 11, 66, 110
14, 42539, Note_on_c, 11, 66, 0
14, 42660, Note_on_c, 11, 65, 110
14, 42719, Note_on_c, 11, 65, 0
14, 42720, Note_on_c, 11, 62, 110
14, 42779, Note_on_c, 11, 62, 0
14, 42780, Note_on_c, 11, 71, 110
14, 42839, Note_on_c, 11, 71, 0
14, 42840, Note_on_c, 11, 71, 110
14, 42899, Note_on_c, 11, 71, 0
14, 43020, Note_on_c, 11, 69, 110
14, 43079, Note_on_c, 11, 69, 0
14, 43080, Note_on_c, 11, 69, 110
14, 43139, Note_on_c, 11, 69, 0
14, 43140, Note_on_c, 11, 69, 110
14, 43199, Note_on_c, 11, 69, 0
14, 43200, Note_on_c, 11, 69, 110
14, 43319, Note_on_c, 11, 69, 0
14, 97080, Note_on_c, 11, 62, 110
14, 97200, Note_on_c, 11, 62, 0
14, 97200, Note_on_c, 11, 64, 110
14, 97260, Note_on_c, 11, 64, 0
14, 97260, Note_on_c, 11, 66, 110
14, 97320, Note_on_c, 11, 66, 0
14, 97320, Note_on_c, 11, 67, 110
14, 97440, Note_on_c, 11, 67, 0
14, 97440, Note_on_c, 11, 67, 110
14, 97500, Note_on_c, 11, 67, 0
14, 97500, Note_on_c, 11, 66, 110
14, 97560, Note_on_c, 11, 66, 0
14, 97560, Note_on_c, 11, 67, 110
14, 97680, Note_on_c, 11, 67, 0
14, 97680, Note_on_c, 11, 67, 110
14, 97800, Note_on_c, 11, 67, 0
14, 97800, Note_on_c, 11, 66, 110
14, 97920, Note_on_c, 11, 66, 0
14, 97920, Note_on_c, 11, 67, 110
14, 98028, Note_on_c, 11, 67, 0
14, 98040, Note_on_c, 11, 64, 110
14, 98100, Note_on_c, 11, 64, 0
14, 98100, Note_on_c, 11, 66, 110
14, 98160, Note_on_c, 11, 66, 0
14, 98160, Note_on_c, 11, 67, 110
14, 98220, Note_on_c, 11, 67, 0
14, 98220, Note_on_c, 11, 71, 110
14, 98340, Note_on_c, 11, 71, 0
14, 98340, Note_on_c, 11, 69, 110
14, 98370, Note_on_c, 11, 69, 0
14, 98370, Note_on_c, 11, 67, 110
14, 98400, Note_on_c, 11, 67, 0
14, 98400, Note_on_c, 11, 66, 110
14, 98520, Note_on_c, 11, 66, 0
14, 98520, Note_on_c, 11, 67, 110
14, 98760, Note_on_c, 11, 67, 0
14, 98760, Note_on_c, 11, 66, 110
14, 98880, Note_on_c, 11, 66, 0
14, 98880, Note_on_c, 11, 62, 110
14, 98988, Note_on_c, 11, 62, 0
14, 99000, Note_on_c, 11, 62, 110
14, 99120, Note_on_c, 11, 62, 0
14, 99120, Note_on_c, 11, 64, 110
14, 99180, Note_on_c, 11, 64, 0
14, 99180, Note_on_c, 11, 66, 110
14, 99240, Note_on_c, 11, 66, 0
14, 99240, Note_on_c, 11, 67, 110
14, 99360, Note_on_c, 11, 67, 0
14, 99360, Note_on_c, 11, 67, 110
14, 99420, Note_on_c, 11, 67, 0
14, 99420, Note_on_c, 11, 66, 110
14, 99480, Note_on_c, 11, 66, 0
14, 99480, Note_on_c, 11, 67, 110
14, 99600, Note_on_c, 11, 67, 0
14, 99600, Note_on_c, 11, 67, 110
14, 99720, Note_on_c, 11, 67, 0
14, 99720, Note_on_c, 11, 66, 110
14, 99840, Note_on_c, 11, 66, 0
14, 99840, Note_on_c, 11, 67, 110
14, 99948, Note_on_c, 11, 67, 0
14, 99960, Note_on_c, 11, 64, 110
14, 100020, Note_on_c, 11, 64, 0
14, 100020, Note_on_c, 11, 66, 110
14, 100080, Note_on_c, 11, 66, 0
14, 100080, Note_on_c, 11, 67, 110
14, 100140, Note_on_c, 11, 67, 0
14, 100140, Note_on_c, 11, 71, 110
14, 100260, Note_on_c, 11, 71, 0
14, 100260, Note_on_c, 11, 69, 110
14, 100290, Note_on_c, 11, 69, 0
14, 100290, Note_on_c, 11, 67, 110
14, 100320, Note_on_c, 11, 67, 0
14, 100320, Note_on_c, 11, 66, 110
14, 100440, Note_on_c, 11, 66, 0
14, 100440, Note_on_c, 11, 67, 110
14, 100680, Note_on_c, 11, 67, 0
14, 100680, Note_on_c, 11, 66, 110
14, 100800, Note_on_c, 11, 66, 0
14, 100800, Note_on_c, 11, 62, 110
14, 100908, Note_on_c, 11, 62, 0
14, 100920, Note_on_c, 11, 67, 110
14, 101040, Note_on_c, 11, 67, 0
14, 101040, Note_on_c, 11, 67, 110
14, 101220, Note_on_c, 11, 67, 0
14, 101220, Note_on_c, 11, 66, 110
14, 101280, Note_on_c, 11, 66, 0
14, 101280, Note_on_c, 11, 66, 110
14, 101340, Note_on_c, 11, 66, 0
14, 101340, Note_on_c, 11, 64, 110
14, 101400, Note_on_c, 11, 64, 0
14, 101400, Note_on_c, 11, 64, 110
14, 101460, Note_on_c, 11, 64, 0
14, 101460, Note_on_c, 11, 63, 110
14, 101520, Note_on_c, 11, 63, 0
14, 101520, Note_on_c, 11, 64, 110
14, 101640, Note_on_c, 11, 64, 0
14, 101640, Note_on_c, 11, 62, 110
14, 101760, Note_on_c, 11, 62, 0
14, 101760, Note_on_c, 11, 62, 110
14, 101868, Note_on_c, 11, 62, 0
14, 101880, Note_on_c, 11, 62, 110
14, 102000, Note_on_c, 11, 62, 0
14, 102000, Note_on_c, 11, 62, 110
14, 102060, Note_on_c, 11, 62, 0
14, 102060, Note_on_c, 11, 60, 110
14, 102120, Note_on_c, 11, 60, 0
14, 102120, Note_on_c, 11, 62, 110
14, 102240, Note_on_c, 11, 62, 0
14, 102240, Note_on_c, 11, 62, 110
14, 102300, Note_on_c, 11, 62, 0
14, 102300, Note_on_c, 11, 60, 110
14, 102360, Note_on_c, 11, 60, 0
14, 102360, Note_on_c, 11, 59, 110
14, 102480, Note_on_c, 11, 59, 0
14, 102480, Note_on_c, 11, 59, 110
14, 102600, Note_on_c, 11, 59, 0
14, 102600, Note_on_c, 11, 64, 110
14, 102720, Note_on_c, 11, 64, 0
14, 102720, Note_on_c, 11, 63, 110
14, 102828, Note_on_c, 11, 63, 0
14, 102840, Note_on_c, 11, 59, 110
14, 102960, Note_on_c, 11, 59, 0
14, 102960, Note_on_c, 11, 64, 110
14, 103080, Note_on_c, 11, 64, 0
14, 103080, Note_on_c, 11, 64, 110
14, 103200, Note_on_c, 11, 64, 0
14, 103200, Note_on_c, 11, 62, 110
14, 103260, Note_on_c, 11, 62, 0
14, 103260, Note_on_c, 11, 64, 110
14, 103290, Note_on_c, 11, 64, 0
14, 103290, Note_on_c, 11, 66, 110
14, 103320, Note_on_c, 11, 66, 0
14, 103320, Note_on_c, 11, 67, 110
14, 103440, Note_on_c, 11, 67, 0
14, 103440, Note_on_c, 11, 67, 110
14, 103560, Note_on_c, 11, 67, 0
14, 103560, Note_on_c, 11, 66, 110
14, 103680, Note_on_c, 11, 66, 0
14, 103680, Note_on_c, 11, 62, 110
14, 103800, Note_on_c, 11, 62, 0
14, 159840, Control_c, 11, 0, 20
14, 159840, Program_c, 11, 71
14, 159900, Note_on_c, 11, 66, 110
14, 159959, Note_on_c, 11, 66, 0
14, 159960, Note_on_c, 11, 71, 110
14, 160019, Note_on_c, 11, 71, 0
14, 160020, Note_on_c, 11, 66, 110
14, 160079, Note_on_c, 11, 66, 0
14, 160080, Note_on_c, 11, 62, 110
14, 160139, Note_on_c, 11, 62, 0
14, 160140, Note_on_c, 11, 59, 110
14, 160199, Note_on_c, 11, 59, 0
14, 160200, Note_on_c, 11, 69, 110
14, 160229, Note_on_c, 11, 69, 0
14, 160230, Note_on_c, 11, 68, 110
14, 160259, Note_on_c, 11, 68, 0
14, 160260, Note_on_c, 11, 69, 110
14, 160319, Note_on_c, 11, 69, 0
14, 160320, Note_on_c, 11, 68, 110
14, 160799, Note_on_c, 11, 68, 0
14, 160800, Note_on_c, 11, 67, 110
14, 161159, Note_on_c, 11, 67, 0
14, 161340, Note_on_c, 11, 69, 110
14, 161399, Note_on_c, 11, 69, 0
14, 161400, Note_on_c, 11, 74, 110
14, 161459, Note_on_c, 11, 74, 0
14, 161460, Note_on_c, 11, 69, 110
14, 161519, Note_on_c, 11, 69, 0
14, 161520, Note_on_c, 11, 66, 110
14, 161579, Note_on_c, 11, 66, 0
14, 161580, Note_on_c, 11, 62, 110
14, 161639, Note_on_c, 11, 62, 0
14, 161640, Note_on_c, 11, 72, 110
14, 161669, Note_on_c, 11, 72, 0
14, 161670, Note_on_c, 11, 71, 110
14, 161699, Note_on_c, 11, 71, 0
14, 161700, Note_on_c, 11, 72, 110
14, 161759, Note_on_c, 11, 72, 0
14, 161760, Note_on_c, 11, 71, 110
14, 161819, Note_on_c, 11, 71, 0
14, 161820, Note_on_c, 11, 71, 110
14, 161879, Note_on_c, 11, 71, 0
14, 161880, Note_on_c, 11, 69, 110
14, 161939, Note_on_c, 11, 69, 0
14, 161940, Note_on_c, 11, 73, 110
14, 161999, Note_on_c, 11, 73, 0
14, 162000, Note_on_c, 11, 76, 110
14, 162059, Note_on_c, 11, 76, 0
14, 162060, Note_on_c, 11, 74, 110
14, 162119, Note_on_c, 11, 74, 0
14, 162120, Note_on_c, 11, 74, 110
14, 162239, Note_on_c, 11, 74, 0
14, 162300, Note_on_c, 11, 65, 110
14, 162419, Note_on_c, 11, 65, 0
14, 162420, Note_on_c, 11, 64, 110
14, 162449, Note_on_c, 11, 64, 0
14, 162450, Note_on_c, 11, 62, 110
14, 162479, Note_on_c, 11, 62, 0
14, 162480, Note_on_c, 11, 62, 110
14, 162539, Note_on_c, 11, 62, 0
14, 162540, Note_on_c, 11, 61, 110
14, 162599, Note_on_c, 11, 61, 0
14, 168960, Control_c, 11, 0, 40
14, 168960, Program_c, 11, 52
14, 169320, Note_on_c, 11, 62, 110
14, 169439, Note_on_c, 11, 62, 0
14, 169440, Note_on_c, 11, 62, 110
14, 169499, Note_on_c, 11, 62, 0
14, 169500, Note_on_c, 11, 64, 110
14, 169559, Note_on_c, 11, 64, 0
14, 169560, Note_on_c, 11, 66, 110
14, 169679, Note_on_c, 11, 66, 0
14, 169680, Note_on_c, 11, 59, 110
14, 169739, Note_on_c, 11, 59, 0
14, 169740, Note_on_c, 11, 61, 110
14, 169799, Note_on_c, 11, 61, 0
14, 169800, Note_on_c, 11, 62, 110
14, 169919, Note_on_c, 11, 62, 0
14, 169920, Note_on_c, 11, 62, 110
14, 170039, Note_on_c, 11, 62, 0
14, 170040, Note_on_c, 11, 61, 110
14, 170159, Note_on_c, 11, 61, 0
14, 170160, Note_on_c, 11, 62, 110
14, 170279, Note_on_c, 11, 62, 0
14, 171240, Note_on_c, 11, 70, 110
14, 171359, Note_on_c, 11, 70, 0
14, 171360, Note_on_c, 11, 71, 110
14, 171479, Note_on_c, 11, 71, 0
14, 171480, Note_on_c, 11, 71, 110
14, 171599, Note_on_c, 11, 71, 0
14, 171600, Note_on_c, 11, 71, 110
14, 171719, Note_on_c, 11, 71, 0
14, 171720, Note_on_c, 11, 70, 110
14, 171839, Note_on_c, 11, 70, 0
14, 171840, Note_on_c, 11, 66, 110
14, 171959, Note_on_c, 11, 66, 0
14, 177960, Note_on_c, 11, 62, 110
14, 178079, Note_on_c, 11, 62, 0
14, 178080, Note_on_c, 11, 62, 110
14, 178139, Note_on_c, 11, 62, 0
14, 178140, Note_on_c, 11, 64, 110
14, 178199, Note_on_c, 11, 64, 0
14, 178200, Note_on_c, 11, 66, 110
14, 178319, Note_on_c, 11, 66, 0
14, 178320, Note_on_c, 11, 59, 110
14, 178379, Note_on_c, 11, 59, 0
14, 178380, Note_on_c, 11, 61, 110
14, 178439, Note_on_c, 11, 61, 0
14, 178440, Note_on_c, 11, 62, 110
14, 178559, Note_on_c, 11, 62, 0
14, 178560, Note_on_c, 11, 62, 110
14, 178679, Note_on_c, 11, 62, 0
14, 178680, Note_on_c, 11, 61, 110
14, 178799, Note_on_c, 11, 61, 0
14, 178800, Note_on_c, 11, 62, 110
14, 178919, Note_on_c, 11, 62, 0
14, 179880, Note_on_c, 11, 70, 110
14, 179999, Note_on_c, 11, 70, 0
14, 180000, Note_on_c, 11, 71, 110
14, 180119, Note_on_c, 11, 71, 0
14, 180120, Note_on_c, 11, 71, 110
14, 180239, Note_on_c, 11, 71, 0
14, 180240, Note_on_c, 11, 71, 110
14, 180359, Note_on_c, 11, 71, 0
14, 180360, Note_on_c, 11, 70, 110
14, 180479, Note_on_c, 11, 70, 0
14, 180480, Note_on_c, 11, 66, 110
14, 180599, Note_on_c, 11, 66, 0
14, 182760, Note_on_c, 11, 71, 110
14, 182879, Note_on_c, 11, 71, 0
14, 182880, Note_on_c, 11, 69, 110
14, 182999, Note_on_c, 11, 69, 0
14, 183000, Note_on_c, 11, 69, 110
14, 183060, Note_on_c, 11, 69, 0
14, 183060, Note_on_c, 11, 67, 110
14, 183090, Note_on_c, 11, 67, 0
14, 183090, Note_on_c, 11, 66, 110
14, 183120, Note_on_c, 11, 66, 0
14, 183120, Note_on_c, 11, 67, 110
14, 183239, Note_on_c, 11, 67, 0
14, 183240, Note_on_c, 11, 67, 110
14, 183300, Note_on_c, 11, 67, 0
14, 183300, Note_on_c, 11, 64, 110
14, 183360, Note_on_c, 11, 64, 0
14, 183360, Note_on_c, 11, 62, 110
14, 183540, Note_on_c, 11, 62, 0
14, 183540, Note_on_c, 11, 71, 110
14, 183600, Note_on_c, 11, 71, 0
14, 183600, Note_on_c, 11, 69, 110
14, 183720, Note_on_c, 11, 69, 0
14, 184440, Note_on_c, 11, 69, 110
14, 184499, Note_on_c, 11, 69, 0
14, 184500, Note_on_c, 11, 66, 110
14, 184559, Note_on_c, 11, 66, 0
14, 184560, Note_on_c, 11, 67, 110
14, 184679, Note_on_c, 11, 67, 0
14, 184680, Note_on_c, 11, 66, 110
14, 184799, Note_on_c, 11, 66, 0
14, 184800, Note_on_c, 11, 66, 110
14, 184859, Note_on_c, 11, 66, 0
14, 184860, Note_on_c, 11, 64, 110
14, 184919, Note_on_c, 11, 64, 0
14, 184920, Note_on_c, 11, 64, 110
14, 185039, Note_on_c, 11, 64, 0
14, 185040, Note_on_c, 11, 61, 110
14, 185159, Note_on_c, 11, 61, 0
14, 186600, Note_on_c, 11, 71, 110
14, 186719, Note_on_c, 11, 71, 0
14, 186720, Note_on_c, 11, 69, 110
14, 186900, Note_on_c, 11, 69, 0
14, 186900, Note_on_c, 11, 64, 110
14, 186959, Note_on_c, 11, 64, 0
14, 186960, Note_on_c, 11, 66, 110
14, 187140, Note_on_c, 11, 66, 0
14, 187140, Note_on_c, 11, 64, 110
14, 187199, Note_on_c, 11, 64, 0
14, 187200, Note_on_c, 11, 66, 110
14, 187259, Note_on_c, 11, 66, 0
14, 187260, Note_on_c, 11, 62, 110
14, 187319, Note_on_c, 11, 62, 0
14, 187320, Note_on_c, 11, 64, 110
14, 187439, Note_on_c, 11, 64, 0
14, 187440, Note_on_c, 11, 64, 110
14, 187559, Note_on_c, 11, 64, 0
14, 189960, Note_on_c, 11, 66, 110
14, 190080, Note_on_c, 11, 66, 0
14, 190080, Note_on_c, 11, 59, 110
14, 190139, Note_on_c, 11, 59, 0
14, 190140, Note_on_c, 11, 64, 110
14, 190199, Note_on_c, 11, 64, 0
14, 190200, Note_on_c, 11, 62, 110
14, 190320, Note_on_c, 11, 62, 0
14, 190320, Note_on_c, 11, 62, 110
14, 190379, Note_on_c, 11, 62, 0
14, 190380, Note_on_c, 11, 61, 110
14, 190410, Note_on_c, 11, 61, 0
14, 190410, Note_on_c, 11, 59, 110
14, 190440, Note_on_c, 11, 59, 0
14, 190440, Note_on_c, 11, 61, 110
14, 190560, Note_on_c, 11, 61, 0
14, 190560, Note_on_c, 11, 62, 110
14, 191040, Note_on_c, 11, 62, 0
14, 191040, End_track
15, 0, Start_track
15, 0, MIDI_port, 0
15, 0, Title_t, "Tenore"
15, 0, Program_c, 12, 52
15, 0, Control_c, 12, 7, 127
15, 0, Control_c, 12, 10, 80
15, 8760, Note_on_c, 12, 57, 110
15, 8819, Note_on_c, 12, 57, 0
15, 8820, Note_on_c, 12, 62, 110
15, 8939, Note_on_c, 12, 62, 0
15, 8940, Note_on_c, 12, 57, 110
15, 8999, Note_on_c, 12, 57, 0
15, 9000, Note_on_c, 12, 64, 110
15, 9119, Note_on_c, 12, 64, 0
15, 9120, Note_on_c, 12, 57, 110
15, 9179, Note_on_c, 12, 57, 0
15, 9180, Note_on_c, 12, 66, 110
15, 9240, Note_on_c, 12, 66, 0
15, 9240, Note_on_c, 12, 64, 110
15, 9269, Note_on_c, 12, 64, 0
15, 9270, Note_on_c, 12, 66, 110
15, 9299, Note_on_c, 12, 66, 0
15, 9300, Note_on_c, 12, 67, 110
15, 9329, Note_on_c, 12, 67, 0
15, 9330, Note_on_c, 12, 64, 110
15, 9359, Note_on_c, 12, 64, 0
15, 9360, Note_on_c, 12, 67, 110
15, 9389, Note_on_c, 12, 67, 0
15, 9390, Note_on_c, 12, 66, 110
15, 9419, Note_on_c, 12, 66, 0
15, 9420, Note_on_c, 12, 64, 110
15, 9449, Note_on_c, 12, 64, 0
15, 9450, Note_on_c, 12, 62, 110
15, 9479, Note_on_c, 12, 62, 0
15, 9480, Note_on_c, 12, 66, 110
15, 9509, Note_on_c, 12, 66, 0
15, 9510, Note_on_c, 12, 62, 110
15, 9539, Note_on_c, 12, 62, 0
15, 9540, Note_on_c, 12, 66, 110
15, 9569, Note_on_c, 12, 66, 0
15, 9570, Note_on_c, 12, 64, 110
15, 9599, Note_on_c, 12, 64, 0
15, 9600, Note_on_c, 12, 62, 110
15, 9629, Note_on_c, 12, 62, 0
15, 9630, Note_on_c, 12, 61, 110
15, 9659, Note_on_c, 12, 61, 0
15, 9660, Note_on_c, 12, 64, 110
15, 9689, Note_on_c, 12, 64, 0
15, 9690, Note_on_c, 12, 61, 110
15, 9719, Note_on_c, 12, 61, 0
15, 9720, Note_on_c, 12, 64, 110
15, 9749, Note_on_c, 12, 64, 0
15, 9750, Note_on_c, 12, 62, 110
15, 9779, Note_on_c, 12, 62, 0
15, 9780, Note_on_c, 12, 61, 110
15, 9809, Note_on_c, 12, 61, 0
15, 9810, Note_on_c, 12, 59, 110
15, 9839, Note_on_c, 12, 59, 0
15, 9840, Note_on_c, 12, 62, 110
15, 9869, Note_on_c, 12, 62, 0
15, 9870, Note_on_c, 12, 59, 110
15, 9899, Note_on_c, 12, 59, 0
15, 9900, Note_on_c, 12, 64, 110
15, 9959, Note_on_c, 12, 64, 0
15, 9960, Note_on_c, 12, 62, 110
15, 9989, Note_on_c, 12, 62, 0
15, 9990, Note_on_c, 12, 61, 110
15, 10019, Note_on_c, 12, 61, 0
15, 10020, Note_on_c, 12, 59, 110
15, 10049, Note_on_c, 12, 59, 0
15, 10050, Note_on_c, 12, 61, 110
15, 10079, Note_on_c, 12, 61, 0
15, 10080, Note_on_c, 12, 57, 110
15, 10500, Note_on_c, 12, 57, 0
15, 10500, Note_on_c, 12, 61, 110
15, 10559, Note_on_c, 12, 61, 0
15, 10560, Note_on_c, 12, 64, 110
15, 10619, Note_on_c, 12, 64, 0
15, 10620, Note_on_c, 12, 62, 110
15, 10679, Note_on_c, 12, 62, 0
15, 10680, Note_on_c, 12, 64, 110
15, 10709, Note_on_c, 12, 64, 0
15, 10710, Note_on_c, 12, 62, 110
15, 10739, Note_on_c, 12, 62, 0
15, 10740, Note_on_c, 12, 64, 110
15, 10769, Note_on_c, 12, 64, 0
15, 10770, Note_on_c, 12, 61, 110
15, 10799, Note_on_c, 12, 61, 0
15, 10800, Note_on_c, 12, 62, 110
15, 10859, Note_on_c, 12, 62, 0
15, 10860, Note_on_c, 12, 66, 110
15, 10919, Note_on_c, 12, 66, 0
15, 10920, Note_on_c, 12, 69, 110
15, 11039, Note_on_c, 12, 69, 0
15, 11040, Note_on_c, 12, 57, 110
15, 11069, Note_on_c, 12, 57, 0
15, 11070, Note_on_c, 12, 61, 110
15, 11099, Note_on_c, 12, 61, 0
15, 11100, Note_on_c, 12, 59, 110
15, 11129, Note_on_c, 12, 59, 0
15, 11130, Note_on_c, 12, 57, 110
15, 11159, Note_on_c, 12, 57, 0
15, 11160, Note_on_c, 12, 56, 110
15, 11219, Note_on_c, 12, 56, 0
15, 11220, Note_on_c, 12, 52, 110
15, 11279, Note_on_c, 12, 52, 0
15, 11280, Note_on_c, 12, 56, 110
15, 11339, Note_on_c, 12, 56, 0
15, 11340, Note_on_c, 12, 57, 110
15, 11399, Note_on_c, 12, 57, 0
15, 11400, Note_on_c, 12, 62, 110
15, 11519, Note_on_c, 12, 62, 0
15, 11520, Note_on_c, 12, 64, 110
15, 11549, Note_on_c, 12, 64, 0
15, 11550, Note_on_c, 12, 66, 110
15, 11579, Note_on_c, 12, 66, 0
15, 11580, Note_on_c, 12, 67, 110
15, 11609, Note_on_c, 12, 67, 0
15, 11610, Note_on_c, 12, 64, 110
15, 11639, Note_on_c, 12, 64, 0
15, 11640, Note_on_c, 12, 69, 110
15, 11699, Note_on_c, 12, 69, 0
15, 11700, Note_on_c, 12, 62, 110
15, 11729, Note_on_c, 12, 62, 0
15, 11730, Note_on_c, 12, 64, 110
15, 11759, Note_on_c, 12, 64, 0
15, 11760, Note_on_c, 12, 66, 110
15, 11819, Note_on_c, 12, 66, 0
15, 11820, Note_on_c, 12, 57, 110
15, 11879, Note_on_c, 12, 57, 0
15, 11880, Note_on_c, 12, 57, 110
15, 11939, Note_on_c, 12, 57, 0
15, 11940, Note_on_c, 12, 64, 110
15, 11999, Note_on_c, 12, 64, 0
15, 12000, Note_on_c, 12, 64, 110
15, 12059, Note_on_c, 12, 64, 0
15, 12060, Note_on_c, 12, 66, 110
15, 12119, Note_on_c, 12, 66, 0
15, 12120, Note_on_c, 12, 61, 110
15, 12179, Note_on_c, 12, 61, 0
15, 12180, Note_on_c, 12, 61, 110
15, 12239, Note_on_c, 12, 61, 0
15, 12240, Note_on_c, 12, 66, 110
15, 12299, Note_on_c, 12, 66, 0
15, 12300, Note_on_c, 12, 66, 110
15, 12359, Note_on_c, 12, 66, 0
15, 12360, Note_on_c, 12, 57, 110
15, 12419, Note_on_c, 12, 57, 0
15, 12420, Note_on_c, 12, 62, 110
15, 12539, Note_on_c, 12, 62, 0
15, 12540, Note_on_c, 12, 57, 110
15, 12599, Note_on_c, 12, 57, 0
15, 12600, Note_on_c, 12, 64, 110
15, 12719, Note_on_c, 12, 64, 0
15, 12720, Note_on_c, 12, 57, 110
15, 12779, Note_on_c, 12, 57, 0
15, 12780, Note_on_c, 12, 66, 110
15, 12839, Note_on_c, 12, 66, 0
15, 12840, Note_on_c, 12, 64, 110
15, 12869, Note_on_c, 12, 64, 0
15, 12870, Note_on_c, 12, 66, 110
15, 12899, Note_on_c, 12, 66, 0
15, 12900, Note_on_c, 12, 67, 110
15, 12929, Note_on_c, 12, 67, 0
15, 12930, Note_on_c, 12, 64, 110
15, 12959, Note_on_c, 12, 64, 0
15, 12960, Note_on_c, 12, 67, 110
15, 12989, Note_on_c, 12, 67, 0
15, 12990, Note_on_c, 12, 66, 110
15, 13019, Note_on_c, 12, 66, 0
15, 13020, Note_on_c, 12, 64, 110
15, 13049, Note_on_c, 12, 64, 0
15, 13050, Note_on_c, 12, 62, 110
15, 13079, Note_on_c, 12, 62, 0
15, 13080, Note_on_c, 12, 66, 110
15, 13109, Note_on_c, 12, 66, 0
15, 13110, Note_on_c, 12, 62, 110
15, 13139, Note_on_c, 12, 62, 0
15, 13140, Note_on_c, 12, 66, 110
15, 13169, Note_on_c, 12, 66, 0
15, 13170, Note_on_c, 12, 64, 110
15, 13199, Note_on_c, 12, 64, 0
15, 13200, Note_on_c, 12, 62, 110
15, 13229, Note_on_c, 12, 62, 0
15, 13230, Note_on_c, 12, 61, 110
15, 13259, Note_on_c, 12, 61, 0
15, 13260, Note_on_c, 12, 64, 110
15, 13289, Note_on_c, 12, 64, 0
15, 13290, Note_on_c, 12, 61, 110
15, 13319, Note_on_c, 12, 61, 0
15, 13320, Note_on_c, 12, 64, 110
15, 13349, Note_on_c, 12, 64, 0
15, 13350, Note_on_c, 12, 62, 110
15, 13379, Note_on_c, 12, 62, 0
15, 13380, Note_on_c, 12, 61, 110
15, 13409, Note_on_c, 12, 61, 0
15, 13410, Note_on_c, 12, 59, 110
15, 13439, Note_on_c, 12, 59, 0
15, 13440, Note_on_c, 12, 62, 110
15, 13469, Note_on_c, 12, 62, 0
15, 13470, Note_on_c, 12, 59, 110
15, 13499, Note_on_c, 12, 59, 0
15, 13500, Note_on_c, 12, 64, 110
15, 13559, Note_on_c, 12, 64, 0
15, 13560, Note_on_c, 12, 62, 110
15, 13589, Note_on_c, 12, 62, 0
15, 13590, Note_on_c, 12, 61, 110
15, 13619, Note_on_c, 12, 61, 0
15, 13620, Note_on_c, 12, 59, 110
15, 13649, Note_on_c, 12, 59, 0
15, 13650, Note_on_c, 12, 61, 110
15, 13679, Note_on_c, 12, 61, 0
15, 13680, Note_on_c, 12, 57, 110
15, 14100, Note_on_c, 12, 57, 0
15, 14100, Note_on_c, 12, 61, 110
15, 14159, Note_on_c, 12, 61, 0
15, 14160, Note_on_c, 12, 64, 110
15, 14219, Note_on_c, 12, 64, 0
15, 14220, Note_on_c, 12, 62, 110
15, 14339, Note_on_c, 12, 62, 0
15, 14340, Note_on_c, 12, 61, 110
15, 14399, Note_on_c, 12, 61, 0
15, 14400, Note_on_c, 12, 62, 110
15, 14459, Note_on_c, 12, 62, 0
15, 14460, Note_on_c, 12, 66, 110
15, 14519, Note_on_c, 12, 66, 0
15, 14520, Note_on_c, 12, 69, 110
15, 14579, Note_on_c, 12, 69, 0
15, 14580, Note_on_c, 12, 69, 110
15, 14639, Note_on_c, 12, 69, 0
15, 14640, Note_on_c, 12, 57, 110
15, 14699, Note_on_c, 12, 57, 0
15, 14700, Note_on_c, 12, 61, 110
15, 14759, Note_on_c, 12, 61, 0
15, 14760, Note_on_c, 12, 56, 110
15, 14819, Note_on_c, 12, 56, 0
15, 14820, Note_on_c, 12, 52, 110
15, 14879, Note_on_c, 12, 52, 0
15, 14880, Note_on_c, 12, 56, 110
15, 14939, Note_on_c, 12, 56, 0
15, 14940, Note_on_c, 12, 57, 110
15, 14999, Note_on_c, 12, 57, 0
15, 15000, Note_on_c, 12, 62, 110
15, 15059, Note_on_c, 12, 62, 0
15, 15060, Note_on_c, 12, 64, 110
15, 15119, Note_on_c, 12, 64, 0
15, 15120, Note_on_c, 12, 64, 110
15, 15149, Note_on_c, 12, 64, 0
15, 15150, Note_on_c, 12, 66, 110
15, 15179, Note_on_c, 12, 66, 0
15, 15180, Note_on_c, 12, 67, 110
15, 15209, Note_on_c, 12, 67, 0
15, 15210, Note_on_c, 12, 64, 110
15, 15239, Note_on_c, 12, 64, 0
15, 15240, Note_on_c, 12, 69, 110
15, 15299, Note_on_c, 12, 69, 0
15, 15300, Note_on_c, 12, 62, 110
15, 15329, Note_on_c, 12, 62, 0
15, 15330, Note_on_c, 12, 64, 110
15, 15359, Note_on_c, 12, 64, 0
15, 15360, Note_on_c, 12, 66, 110
15, 15419, Note_on_c, 12, 66, 0
15, 15420, Note_on_c, 12, 57, 110
15, 15539, Note_on_c, 12, 57, 0
15, 15540, Note_on_c, 12, 64, 110
15, 15599, Note_on_c, 12, 64, 0
15, 15600, Note_on_c, 12, 64, 110
15, 15659, Note_on_c, 12, 64, 0
15, 15660, Note_on_c, 12, 66, 110
15, 15719, Note_on_c, 12, 66, 0
15, 15720, Note_on_c, 12, 61, 110
15, 15779, Note_on_c, 12, 61, 0
15, 15780, Note_on_c, 12, 61, 110
15, 15839, Note_on_c, 12, 61, 0
15, 15840, Note_on_c, 12, 66, 110
15, 15899, Note_on_c, 12, 66, 0
15, 15900, Note_on_c, 12, 57, 110
15, 15959, Note_on_c, 12, 57, 0
15, 16680, Note_on_c, 12, 56, 110
15, 16739, Note_on_c, 12, 56, 0
15, 16740, Note_on_c, 12, 57, 110
15, 16859, Note_on_c, 12, 57, 0
15, 16860, Note_on_c, 12, 66, 110
15, 16919, Note_on_c, 12, 66, 0
15, 16920, Note_on_c, 12, 56, 110
15, 17039, Note_on_c, 12, 56, 0
15, 17040, Note_on_c, 12, 64, 110
15, 17099, Note_on_c, 12, 64, 0
15, 17100, Note_on_c, 12, 54, 110
15, 17159, Note_on_c, 12, 54, 0
15, 17160, Note_on_c, 12, 56, 110
15, 17219, Note_on_c, 12, 56, 0
15, 17220, Note_on_c, 12, 57, 110
15, 17279, Note_on_c, 12, 57, 0
15, 17280, Note_on_c, 12, 56, 110
15, 17309, Note_on_c, 12, 56, 0
15, 17310, Note_on_c, 12, 54, 110
15, 17339, Note_on_c, 12, 54, 0
15, 17340, Note_on_c, 12, 56, 110
15, 17369, Note_on_c, 12, 56, 0
15, 17370, Note_on_c, 12, 57, 110
15, 17399, Note_on_c, 12, 57, 0
15, 17400, Note_on_c, 12, 59, 110
15, 17459, Note_on_c, 12, 59, 0
15, 17460, Note_on_c, 12, 52, 110
15, 17519, Note_on_c, 12, 52, 0
15, 17520, Note_on_c, 12, 64, 110
15, 17579, Note_on_c, 12, 64, 0
15, 17580, Note_on_c, 12, 64, 110
15, 17639, Note_on_c, 12, 64, 0
15, 17640, Note_on_c, 12, 64, 110
15, 17669, Note_on_c, 12, 64, 0
15, 17670, Note_on_c, 12, 62, 110
15, 17699, Note_on_c, 12, 62, 0
15, 17700, Note_on_c, 12, 61, 110
15, 17729, Note_on_c, 12, 61, 0
15, 17730, Note_on_c, 12, 62, 110
15, 17759, Note_on_c, 12, 62, 0
15, 17760, Note_on_c, 12, 64, 110
15, 17819, Note_on_c, 12, 64, 0
15, 17820, Note_on_c, 12, 57, 110
15, 17879, Note_on_c, 12, 57, 0
15, 17880, Note_on_c, 12, 62, 110
15, 17939, Note_on_c, 12, 62, 0
15, 17940, Note_on_c, 12, 61, 110
15, 17999, Note_on_c, 12, 61, 0
15, 18000, Note_on_c, 12, 62, 110
15, 18059, Note_on_c, 12, 62, 0
15, 18060, Note_on_c, 12, 60, 110
15, 18089, Note_on_c, 12, 60, 0
15, 18090, Note_on_c, 12, 59, 110
15, 18119, Note_on_c, 12, 59, 0
15, 18120, Note_on_c, 12, 60, 110
15, 18149, Note_on_c, 12, 60, 0
15, 18150, Note_on_c, 12, 62, 110
15, 18179, Note_on_c, 12, 62, 0
15, 18180, Note_on_c, 12, 59, 110
15, 18239, Note_on_c, 12, 59, 0
15, 18300, Note_on_c, 12, 60, 110
15, 18359, Note_on_c, 12, 60, 0
15, 18360, Note_on_c, 12, 60, 110
15, 18419, Note_on_c, 12, 60, 0
15, 18420, Note_on_c, 12, 59, 110
15, 18449, Note_on_c, 12, 59, 0
15, 18450, Note_on_c, 12, 57, 110
15, 18479, Note_on_c, 12, 57, 0
15, 18480, Note_on_c, 12, 59, 110
15, 18539, Note_on_c, 12, 59, 0
15, 18540, Note_on_c, 12, 59, 110
15, 18599, Note_on_c, 12, 59, 0
15, 18600, Note_on_c, 12, 57, 110
15, 18659, Note_on_c, 12, 57, 0
15, 18660, Note_on_c, 12, 55, 110
15, 18719, Note_on_c, 12, 55, 0
15, 18720, Note_on_c, 12, 61, 110
15, 18779, Note_on_c, 12, 61, 0
15, 18780, Note_on_c, 12, 62, 110
15, 18839, Note_on_c, 12, 62, 0
15, 18840, Note_on_c, 12, 64, 110
15, 18899, Note_on_c, 12, 64, 0
15, 18900, Note_on_c, 12, 62, 110
15, 19019, Note_on_c, 12, 62, 0
15, 19020, Note_on_c, 12, 62, 110
15, 19139, Note_on_c, 12, 62, 0
15, 19140, Note_on_c, 12, 61, 110
15, 19169, Note_on_c, 12, 61, 0
15, 19170, Note_on_c, 12, 59, 110
15, 19199, Note_on_c, 12, 59, 0
15, 19200, Note_on_c, 12, 61, 110
15, 19259, Note_on_c, 12, 61, 0
15, 19260, Note_on_c, 12, 62, 110
15, 19319, Note_on_c, 12, 62, 0
15, 19320, Note_on_c, 12, 57, 110
15, 19379, Note_on_c, 12, 57, 0
15, 19380, Note_on_c, 12, 57, 110
15, 19439, Note_on_c, 12, 57, 0
15, 19440, Note_on_c, 12, 57, 110
15, 19499, Note_on_c, 12, 57, 0
15, 19500, Note_on_c, 12, 57, 110
15, 19559, Note_on_c, 12, 57, 0
15, 19560, Note_on_c, 12, 61, 110
15, 19619, Note_on_c, 12, 61, 0
15, 19620, Note_on_c, 12, 54, 110
15, 19679, Note_on_c, 12, 54, 0
15, 19680, Note_on_c, 12, 50, 110
15, 19739, Note_on_c, 12, 50, 0
15, 19740, Note_on_c, 12, 55, 110
15, 19799, Note_on_c, 12, 55, 0
15, 19800, Note_on_c, 12, 57, 110
15, 19859, Note_on_c, 12, 57, 0
15, 19860, Note_on_c, 12, 50, 110
15, 19919, Note_on_c, 12, 50, 0
15, 19920, Note_on_c, 12, 62, 110
15, 19949, Note_on_c, 12, 62, 0
15, 19950, Note_on_c, 12, 64, 110
15, 19979, Note_on_c, 12, 64, 0
15, 19980, Note_on_c, 12, 66, 110
15, 20039, Note_on_c, 12, 66, 0
15, 20040, Note_on_c, 12, 67, 110
15, 20099, Note_on_c, 12, 67, 0
15, 20100, Note_on_c, 12, 69, 110
15, 20159, Note_on_c, 12, 69, 0
15, 20160, Note_on_c, 12, 64, 110
15, 20189, Note_on_c, 12, 64, 0
15, 20190, Note_on_c, 12, 62, 110
15, 20219, Note_on_c, 12, 62, 0
15, 20220, Note_on_c, 12, 61, 110
15, 20249, Note_on_c, 12, 61, 0
15, 20250, Note_on_c, 12, 59, 110
15, 20279, Note_on_c, 12, 59, 0
15, 20280, Note_on_c, 12, 61, 110
15, 20339, Note_on_c, 12, 61, 0
15, 20340, Note_on_c, 12, 62, 110
15, 20399, Note_on_c, 12, 62, 0
15, 20400, Note_on_c, 12, 57, 110
15, 20459, Note_on_c, 12, 57, 0
15, 20460, Note_on_c, 12, 64, 110
15, 20519, Note_on_c, 12, 64, 0
15, 20520, Note_on_c, 12, 62, 110
15, 20579, Note_on_c, 12, 62, 0
15, 20580, Note_on_c, 12, 56, 110
15, 20639, Note_on_c, 12, 56, 0
15, 20640, Note_on_c, 12, 59, 110
15, 20699, Note_on_c, 12, 59, 0
15, 20700, Note_on_c, 12, 64, 110
15, 20759, Note_on_c, 12, 64, 0
15, 20760, Note_on_c, 12, 66, 110
15, 20819, Note_on_c, 12, 66, 0
15, 20820, Note_on_c, 12, 64, 110
15, 20879, Note_on_c, 12, 64, 0
15, 20880, Note_on_c, 12, 61, 110
15, 20939, Note_on_c, 12, 61, 0
15, 22440, Note_on_c, 12, 59, 110
15, 22499, Note_on_c, 12, 59, 0
15, 22500, Note_on_c, 12, 64, 110
15, 22619, Note_on_c, 12, 64, 0
15, 22620, Note_on_c, 12, 64, 110
15, 22679, Note_on_c, 12, 64, 0
15, 22680, Note_on_c, 12, 64, 110
15, 22739, Note_on_c, 12, 64, 0
15, 22740, Note_on_c, 12, 61, 110
15, 22769, Note_on_c, 12, 61, 0
15, 22770, Note_on_c, 12, 62, 110
15, 22799, Note_on_c, 12, 62, 0
15, 22800, Note_on_c, 12, 64, 110
15, 22859, Note_on_c, 12, 64, 0
15, 22860, Note_on_c, 12, 58, 110
15, 22919, Note_on_c, 12, 58, 0
15, 22920, Note_on_c, 12, 59, 110
15, 22979, Note_on_c, 12, 59, 0
15, 22980, Note_on_c, 12, 61, 110
15, 23039, Note_on_c, 12, 61, 0
15, 23040, Note_on_c, 12, 64, 110
15, 23069, Note_on_c, 12, 64, 0
15, 23070, Note_on_c, 12, 62, 110
15, 23099, Note_on_c, 12, 62, 0
15, 23100, Note_on_c, 12, 66, 110
15, 23129, Note_on_c, 12, 66, 0
15, 23130, Note_on_c, 12, 64, 110
15, 23159, Note_on_c, 12, 64, 0
15, 23160, Note_on_c, 12, 62, 110
15, 23189, Note_on_c, 12, 62, 0
15, 23190, Note_on_c, 12, 61, 110
15, 23219, Note_on_c, 12, 61, 0
15, 23220, Note_on_c, 12, 66, 110
15, 23249, Note_on_c, 12, 66, 0
15, 23250, Note_on_c, 12, 65, 110
15, 23279, Note_on_c, 12, 65, 0
15, 23280, Note_on_c, 12, 68, 110
15, 23309, Note_on_c, 12, 68, 0
15, 23310, Note_on_c, 12, 66, 110
15, 23339, Note_on_c, 12, 66, 0
15, 23340, Note_on_c, 12, 65, 110
15, 23369, Note_on_c, 12, 65, 0
15, 23370, Note_on_c, 12, 63, 110
15, 23399, Note_on_c, 12, 63, 0
15, 23400, Note_on_c, 12, 68, 110
15, 23610, Note_on_c, 12, 68, 0
15, 23610, Note_on_c, 12, 66, 110
15, 23639, Note_on_c, 12, 66, 0
15, 23640, Note_on_c, 12, 69, 110
15, 23669, Note_on_c, 12, 69, 0
15, 23670, Note_on_c, 12, 68, 110
15, 23699, Note_on_c, 12, 68, 0
15, 23700, Note_on_c, 12, 66, 110
15, 23729, Note_on_c, 12, 66, 0
15, 23730, Note_on_c, 12, 65, 110
15, 23759, Note_on_c, 12, 65, 0
15, 23760, Note_on_c, 12, 66, 110
15, 23819, Note_on_c, 12, 66, 0
15, 23820, Note_on_c, 12, 61, 110
15, 23879, Note_on_c, 12, 61, 0
15, 23880, Note_on_c, 12, 65, 110
15, 23939, Note_on_c, 12, 65, 0
15, 23940, Note_on_c, 12, 66, 110
15, 23999, Note_on_c, 12, 66, 0
15, 24000, Note_on_c, 12, 64, 110
15, 24029, Note_on_c, 12, 64, 0
15, 24030, Note_on_c, 12, 63, 110
15, 24059, Note_on_c, 12, 63, 0
15, 24060, Note_on_c, 12, 64, 110
15, 24119, Note_on_c, 12, 64, 0
15, 24120, Note_on_c, 12, 63, 110
15, 24179, Note_on_c, 12, 63, 0
15, 24180, Note_on_c, 12, 66, 110
15, 24239, Note_on_c, 12, 66, 0
15, 24240, Note_on_c, 12, 69, 110
15, 24299, Note_on_c, 12, 69, 0
15, 24300, Note_on_c, 12, 69, 110
15, 24359, Note_on_c, 12, 69, 0
15, 24360, Note_on_c, 12, 67, 110
15, 24389, Note_on_c, 12, 67, 0
15, 24390, Note_on_c, 12, 66, 110
15, 24419, Note_on_c, 12, 66, 0
15, 24420, Note_on_c, 12, 64, 110
15, 24449, Note_on_c, 12, 64, 0
15, 24450, Note_on_c, 12, 66, 110
15, 24479, Note_on_c, 12, 66, 0
15, 24480, Note_on_c, 12, 59, 110
15, 24599, Note_on_c, 12, 59, 0
15, 24600, Note_on_c, 12, 59, 110
15, 24659, Note_on_c, 12, 59, 0
15, 24660, Note_on_c, 12, 61, 110
15, 24719, Note_on_c, 12, 61, 0
15, 24720, Note_on_c, 12, 64, 110
15, 24779, Note_on_c, 12, 64, 0
15, 24780, Note_on_c, 12, 67, 110
15, 24839, Note_on_c, 12, 67, 0
15, 24840, Note_on_c, 12, 66, 110
15, 24899, Note_on_c, 12, 66, 0
15, 24900, Note_on_c, 12, 64, 110
15, 24929, Note_on_c, 12, 64, 0
15, 24930, Note_on_c, 12, 62, 110
15, 24959, Note_on_c, 12, 62, 0
15, 24960, Note_on_c, 12, 61, 110
15, 24989, Note_on_c, 12, 61, 0
15, 24990, Note_on_c, 12, 62, 110
15, 25019, Note_on_c, 12, 62, 0
15, 25020, Note_on_c, 12, 64, 110
15, 25079, Note_on_c, 12, 64, 0
15, 25080, Note_on_c, 12, 62, 110
15, 25139, Note_on_c, 12, 62, 0
15, 25140, Note_on_c, 12, 66, 110
15, 25199, Note_on_c, 12, 66, 0
15, 25200, Note_on_c, 12, 59, 110
15, 25259, Note_on_c, 12, 59, 0
15, 25320, Note_on_c, 12, 54, 110
15, 25379, Note_on_c, 12, 54, 0
15, 25380, Note_on_c, 12, 59, 110
15, 25499, Note_on_c, 12, 59, 0
15, 25500, Note_on_c, 12, 59, 110
15, 25559, Note_on_c, 12, 59, 0
15, 25560, Note_on_c, 12, 59, 110
15, 25619, Note_on_c, 12, 59, 0
15, 25620, Note_on_c, 12, 56, 110
15, 25649, Note_on_c, 12, 56, 0
15, 25650, Note_on_c, 12, 57, 110
15, 25679, Note_on_c, 12, 57, 0
15, 25680, Note_on_c, 12, 59, 110
15, 25739, Note_on_c, 12, 59, 0
15, 25740, Note_on_c, 12, 52, 110
15, 25799, Note_on_c, 12, 52, 0
15, 25800, Note_on_c, 12, 54, 110
15, 25859, Note_on_c, 12, 54, 0
15, 25860, Note_on_c, 12, 56, 110
15, 25919, Note_on_c, 12, 56, 0
15, 25920, Note_on_c, 12, 57, 110
15, 25979, Note_on_c, 12, 57, 0
15, 25980, Note_on_c, 12, 57, 110
15, 26039, Note_on_c, 12, 57, 0
15, 26040, Note_on_c, 12, 64, 110
15, 26099, Note_on_c, 12, 64, 0
15, 26100, Note_on_c, 12, 66, 110
15, 26159, Note_on_c, 12, 66, 0
15, 26160, Note_on_c, 12, 60, 110
15, 26219, Note_on_c, 12, 60, 0
15, 26220, Note_on_c, 12, 66, 110
15, 26279, Note_on_c, 12, 66, 0
15, 26280, Note_on_c, 12, 66, 110
15, 26339, Note_on_c, 12, 66, 0
15, 26340, Note_on_c, 12, 63, 110
15, 26399, Note_on_c, 12, 63, 0
15, 26400, Note_on_c, 12, 66, 110
15, 26459, Note_on_c, 12, 66, 0
15, 26460, Note_on_c, 12, 66, 110
15, 26519, Note_on_c, 12, 66, 0
15, 26520, Note_on_c, 12, 64, 110
15, 26579, Note_on_c, 12, 64, 0
15, 26580, Note_on_c, 12, 59, 110
15, 26639, Note_on_c, 12, 59, 0
15, 26640, Note_on_c, 12, 59, 110
15, 26699, Note_on_c, 12, 59, 0
15, 26700, Note_on_c, 12, 55, 110
15, 26759, Note_on_c, 12, 55, 0
15, 26760, Note_on_c, 12, 54, 110
15, 26819, Note_on_c, 12, 54, 0
15, 26820, Note_on_c, 12, 52, 110
15, 26879, Note_on_c, 12, 52, 0
15, 26880, Note_on_c, 12, 55, 110
15, 26939, Note_on_c, 12, 55, 0
15, 26940, Note_on_c, 12, 59, 110
15, 26999, Note_on_c, 12, 59, 0
15, 27000, Note_on_c, 12, 64, 110
15, 27059, Note_on_c, 12, 64, 0
15, 27060, Note_on_c, 12, 61, 110
15, 27119, Note_on_c, 12, 61, 0
15, 27120, Note_on_c, 12, 64, 110
15, 27179, Note_on_c, 12, 64, 0
15, 27180, Note_on_c, 12, 64, 110
15, 27239, Note_on_c, 12, 64, 0
15, 27240, Note_on_c, 12, 62, 110
15, 27299, Note_on_c, 12, 62, 0
15, 27300, Note_on_c, 12, 57, 110
15, 27359, Note_on_c, 12, 57, 0
15, 27360, Note_on_c, 12, 57, 110
15, 27419, Note_on_c, 12, 57, 0
15, 27420, Note_on_c, 12, 54, 110
15, 27479, Note_on_c, 12, 54, 0
15, 27480, Note_on_c, 12, 59, 110
15, 27539, Note_on_c, 12, 59, 0
15, 27540, Note_on_c, 12, 59, 110
15, 27750, Note_on_c, 12, 59, 0
15, 27750, Note_on_c, 12, 61, 110
15, 27779, Note_on_c, 12, 61, 0
15, 27780, Note_on_c, 12, 62, 110
15, 27839, Note_on_c, 12, 62, 0
15, 27840, Note_on_c, 12, 64, 110
15, 27899, Note_on_c, 12, 64, 0
15, 27900, Note_on_c, 12, 66, 110
15, 27959, Note_on_c, 12, 66, 0
15, 27960, Note_on_c, 12, 67, 110
15, 28019, Note_on_c, 12, 67, 0
15, 28020, Note_on_c, 12, 66, 110
15, 28079, Note_on_c, 12, 66, 0
15, 28080, Note_on_c, 12, 62, 110
15, 28139, Note_on_c, 12, 62, 0
15, 28500, Note_on_c, 12, 61, 110
15, 28559, Note_on_c, 12, 61, 0
15, 28560, Note_on_c, 12, 61, 110
15, 28619, Note_on_c, 12, 61, 0
15, 28620, Note_on_c, 12, 66, 110
15, 28679, Note_on_c, 12, 66, 0
15, 28680, Note_on_c, 12, 59, 110
15, 28739, Note_on_c, 12, 59, 0
15, 28740, Note_on_c, 12, 66, 110
15, 28799, Note_on_c, 12, 66, 0
15, 28800, Note_on_c, 12, 62, 110
15, 28919, Note_on_c, 12, 62, 0
15, 29640, Note_on_c, 12, 62, 110
15, 29699, Note_on_c, 12, 62, 0
15, 29700, Note_on_c, 12, 66, 110
15, 29819, Note_on_c, 12, 66, 0
15, 29820, Note_on_c, 12, 66, 110
15, 29879, Note_on_c, 12, 66, 0
15, 29880, Note_on_c, 12, 64, 110
15, 29999, Note_on_c, 12, 64, 0
15, 30000, Note_on_c, 12, 64, 110
15, 30059, Note_on_c, 12, 64, 0
15, 30060, Note_on_c, 12, 62, 110
15, 30179, Note_on_c, 12, 62, 0
15, 30180, Note_on_c, 12, 61, 110
15, 30239, Note_on_c, 12, 61, 0
15, 30240, Note_on_c, 12, 62, 110
15, 30299, Note_on_c, 12, 62, 0
15, 30300, Note_on_c, 12, 57, 110
15, 30359, Note_on_c, 12, 57, 0
15, 31080, Note_on_c, 12, 57, 110
15, 31139, Note_on_c, 12, 57, 0
15, 31140, Note_on_c, 12, 62, 110
15, 31259, Note_on_c, 12, 62, 0
15, 31260, Note_on_c, 12, 57, 110
15, 31319, Note_on_c, 12, 57, 0
15, 31320, Note_on_c, 12, 64, 110
15, 31439, Note_on_c, 12, 64, 0
15, 31440, Note_on_c, 12, 57, 110
15, 31499, Note_on_c, 12, 57, 0
15, 31500, Note_on_c, 12, 66, 110
15, 31559, Note_on_c, 12, 66, 0
15, 31560, Note_on_c, 12, 64, 110
15, 31589, Note_on_c, 12, 64, 0
15, 31590, Note_on_c, 12, 66, 110
15, 31619, Note_on_c, 12, 66, 0
15, 31620, Note_on_c, 12, 67, 110
15, 31649, Note_on_c, 12, 67, 0
15, 31650, Note_on_c, 12, 64, 110
15, 31679, Note_on_c, 12, 64, 0
15, 31680, Note_on_c, 12, 67, 110
15, 31709, Note_on_c, 12, 67, 0
15, 31710, Note_on_c, 12, 66, 110
15, 31739, Note_on_c, 12, 66, 0
15, 31740, Note_on_c, 12, 64, 110
15, 31769, Note_on_c, 12, 64, 0
15, 31770, Note_on_c, 12, 62, 110
15, 31799, Note_on_c, 12, 62, 0
15, 31800, Note_on_c, 12, 66, 110
15, 31829, Note_on_c, 12, 66, 0
15, 31830, Note_on_c, 12, 62, 110
15, 31859, Note_on_c, 12, 62, 0
15, 31860, Note_on_c, 12, 66, 110
15, 31889, Note_on_c, 12, 66, 0
15, 31890, Note_on_c, 12, 64, 110
15, 31919, Note_on_c, 12, 64, 0
15, 31920, Note_on_c, 12, 62, 110
15, 31949, Note_on_c, 12, 62, 0
15, 31950, Note_on_c, 12, 61, 110
15, 31979, Note_on_c, 12, 61, 0
15, 31980, Note_on_c, 12, 64, 110
15, 32009, Note_on_c, 12, 64, 0
15, 32010, Note_on_c, 12, 61, 110
15, 32039, Note_on_c, 12, 61, 0
15, 32040, Note_on_c, 12, 64, 110
15, 32069, Note_on_c, 12, 64, 0
15, 32070, Note_on_c, 12, 62, 110
15, 32099, Note_on_c, 12, 62, 0
15, 32100, Note_on_c, 12, 61, 110
15, 32129, Note_on_c, 12, 61, 0
15, 32130, Note_on_c, 12, 59, 110
15, 32159, Note_on_c, 12, 59, 0
15, 32160, Note_on_c, 12, 62, 110
15, 32189, Note_on_c, 12, 62, 0
15, 32190, Note_on_c, 12, 59, 110
15, 32219, Note_on_c, 12, 59, 0
15, 32220, Note_on_c, 12, 64, 110
15, 32279, Note_on_c, 12, 64, 0
15, 32280, Note_on_c, 12, 62, 110
15, 32309, Note_on_c, 12, 62, 0
15, 32310, Note_on_c, 12, 61, 110
15, 32339, Note_on_c, 12, 61, 0
15, 32340, Note_on_c, 12, 59, 110
15, 32369, Note_on_c, 12, 59, 0
15, 32370, Note_on_c, 12, 61, 110
15, 32399, Note_on_c, 12, 61, 0
15, 32400, Note_on_c, 12, 57, 110
15, 32459, Note_on_c, 12, 57, 0
15, 32460, Note_on_c, 12, 61, 110
15, 32519, Note_on_c, 12, 61, 0
15, 32520, Note_on_c, 12, 61, 110
15, 32579, Note_on_c, 12, 61, 0
15, 32580, Note_on_c, 12, 62, 110
15, 32699, Note_on_c, 12, 62, 0
15, 32700, Note_on_c, 12, 62, 110
15, 32759, Note_on_c, 12, 62, 0
15, 32760, Note_on_c, 12, 57, 110
15, 32819, Note_on_c, 12, 57, 0
15, 32820, Note_on_c, 12, 61, 110
15, 32879, Note_on_c, 12, 61, 0
15, 32880, Note_on_c, 12, 64, 110
15, 32939, Note_on_c, 12, 64, 0
15, 32940, Note_on_c, 12, 62, 110
15, 33059, Note_on_c, 12, 62, 0
15, 33060, Note_on_c, 12, 61, 110
15, 33119, Note_on_c, 12, 61, 0
15, 33120, Note_on_c, 12, 57, 110
15, 33179, Note_on_c, 12, 57, 0
15, 33180, Note_on_c, 12, 57, 110
15, 33239, Note_on_c, 12, 57, 0
15, 33960, Note_on_c, 12, 59, 110
15, 34019, Note_on_c, 12, 59, 0
15, 34020, Note_on_c, 12, 61, 110
15, 34079, Note_on_c, 12, 61, 0
15, 34080, Note_on_c, 12, 66, 110
15, 34109, Note_on_c, 12, 66, 0
15, 34110, Note_on_c, 12, 64, 110
15, 34139, Note_on_c, 12, 64, 0
15, 34140, Note_on_c, 12, 62, 110
15, 34169, Note_on_c, 12, 62, 0
15, 34170, Note_on_c, 12, 61, 110
15, 34199, Note_on_c, 12, 61, 0
15, 34200, Note_on_c, 12, 59, 110
15, 34259, Note_on_c, 12, 59, 0
15, 34260, Note_on_c, 12, 64, 110
15, 34289, Note_on_c, 12, 64, 0
15, 34290, Note_on_c, 12, 62, 110
15, 34319, Note_on_c, 12, 62, 0
15, 34320, Note_on_c, 12, 61, 110
15, 34349, Note_on_c, 12, 61, 0
15, 34350, Note_on_c, 12, 59, 110
15, 34379, Note_on_c, 12, 59, 0
15, 34380, Note_on_c, 12, 57, 110
15, 34439, Note_on_c, 12, 57, 0
15, 34440, Note_on_c, 12, 62, 110
15, 34499, Note_on_c, 12, 62, 0
15, 34500, Note_on_c, 12, 61, 110
15, 34559, Note_on_c, 12, 61, 0
15, 34560, Note_on_c, 12, 59, 110
15, 34619, Note_on_c, 12, 59, 0
15, 34620, Note_on_c, 12, 64, 110
15, 34799, Note_on_c, 12, 64, 0
15, 34800, Note_on_c, 12, 62, 110
15, 34829, Note_on_c, 12, 62, 0
15, 34830, Note_on_c, 12, 61, 110
15, 34859, Note_on_c, 12, 61, 0
15, 34860, Note_on_c, 12, 62, 110
15, 34919, Note_on_c, 12, 62, 0
15, 34920, Note_on_c, 12, 62, 110
15, 34979, Note_on_c, 12, 62, 0
15, 34980, Note_on_c, 12, 61, 110
15, 35039, Note_on_c, 12, 61, 0
15, 35040, Note_on_c, 12, 66, 110
15, 35099, Note_on_c, 12, 66, 0
15, 35100, Note_on_c, 12, 59, 110
15, 35159, Note_on_c, 12, 59, 0
15, 35160, Note_on_c, 12, 64, 110
15, 35189, Note_on_c, 12, 64, 0
15, 35190, Note_on_c, 12, 62, 110
15, 35219, Note_on_c, 12, 62, 0
15, 35220, Note_on_c, 12, 61, 110
15, 35249, Note_on_c, 12, 61, 0
15, 35250, Note_on_c, 12, 59, 110
15, 35279, Note_on_c, 12, 59, 0
15, 35280, Note_on_c, 12, 57, 110
15, 35339, Note_on_c, 12, 57, 0
15, 35340, Note_on_c, 12, 62, 110
15, 35399, Note_on_c, 12, 62, 0
15, 35400, Note_on_c, 12, 61, 110
15, 35459, Note_on_c, 12, 61, 0
15, 35460, Note_on_c, 12, 62, 110
15, 35579, Note_on_c, 12, 62, 0
15, 35580, Note_on_c, 12, 64, 110
15, 35639, Note_on_c, 12, 64, 0
15, 35640, Note_on_c, 12, 61, 110
15, 35699, Note_on_c, 12, 61, 0
15, 35700, Note_on_c, 12, 60, 110
15, 35819, Note_on_c, 12, 60, 0
15, 35820, Note_on_c, 12, 59, 110
15, 35879, Note_on_c, 12, 59, 0
15, 35880, Note_on_c, 12, 61, 110
15, 35939, Note_on_c, 12, 61, 0
15, 35940, Note_on_c, 12, 62, 110
15, 35999, Note_on_c, 12, 62, 0
15, 36000, Note_on_c, 12, 61, 110
15, 36029, Note_on_c, 12, 61, 0
15, 36030, Note_on_c, 12, 62, 110
15, 36059, Note_on_c, 12, 62, 0
15, 36060, Note_on_c, 12, 64, 110
15, 36119, Note_on_c, 12, 64, 0
15, 36120, Note_on_c, 12, 66, 110
15, 36239, Note_on_c, 12, 66, 0
15, 36240, Note_on_c, 12, 59, 110
15, 36299, Note_on_c, 12, 59, 0
15, 36300, Note_on_c, 12, 64, 110
15, 36419, Note_on_c, 12, 64, 0
15, 36420, Note_on_c, 12, 57, 110
15, 36479, Note_on_c, 12, 57, 0
15, 36480, Note_on_c, 12, 62, 110
15, 36539, Note_on_c, 12, 62, 0
15, 36540, Note_on_c, 12, 55, 110
15, 36599, Note_on_c, 12, 55, 0
15, 36600, Note_on_c, 12, 57, 110
15, 36659, Note_on_c, 12, 57, 0
15, 36660, Note_on_c, 12, 59, 110
15, 36719, Note_on_c, 12, 59, 0
15, 36720, Note_on_c, 12, 64, 110
15, 36779, Note_on_c, 12, 64, 0
15, 36780, Note_on_c, 12, 62, 110
15, 36839, Note_on_c, 12, 62, 0
15, 36840, Note_on_c, 12, 64, 110
15, 36899, Note_on_c, 12, 64, 0
15, 36900, Note_on_c, 12, 62, 110
15, 36959, Note_on_c, 12, 62, 0
15, 36960, Note_on_c, 12, 50, 110
15, 37019, Note_on_c, 12, 50, 0
15, 37020, Note_on_c, 12, 55, 110
15, 37079, Note_on_c, 12, 55, 0
15, 37080, Note_on_c, 12, 57, 110
15, 37139, Note_on_c, 12, 57, 0
15, 37140, Note_on_c, 12, 50, 110
15, 37199, Note_on_c, 12, 50, 0
15, 37200, Note_on_c, 12, 62, 110
15, 37229, Note_on_c, 12, 62, 0
15, 37230, Note_on_c, 12, 64, 110
15, 37259, Note_on_c, 12, 64, 0
15, 37260, Note_on_c, 12, 66, 110
15, 37319, Note_on_c, 12, 66, 0
15, 37320, Note_on_c, 12, 67, 110
15, 37379, Note_on_c, 12, 67, 0
15, 37380, Note_on_c, 12, 69, 110
15, 37439, Note_on_c, 12, 69, 0
15, 37440, Note_on_c, 12, 64, 110
15, 37499, Note_on_c, 12, 64, 0
15, 37500, Note_on_c, 12, 57, 110
15, 37559, Note_on_c, 12, 57, 0
15, 37560, Note_on_c, 12, 61, 110
15, 37619, Note_on_c, 12, 61, 0
15, 37620, Note_on_c, 12, 62, 110
15, 37679, Note_on_c, 12, 62, 0
15, 37680, Note_on_c, 12, 57, 110
15, 37739, Note_on_c, 12, 57, 0
15, 37740, Note_on_c, 12, 64, 110
15, 37799, Note_on_c, 12, 64, 0
15, 37800, Note_on_c, 12, 62, 110
15, 37859, Note_on_c, 12, 62, 0
15, 37860, Note_on_c, 12, 56, 110
15, 37919, Note_on_c, 12, 56, 0
15, 37920, Note_on_c, 12, 59, 110
15, 37979, Note_on_c, 12, 59, 0
15, 37980, Note_on_c, 12, 64, 110
15, 38039, Note_on_c, 12, 64, 0
15, 38040, Note_on_c, 12, 66, 110
15, 38099, Note_on_c, 12, 66, 0
15, 38100, Note_on_c, 12, 64, 110
15, 38159, Note_on_c, 12, 64, 0
15, 38160, Note_on_c, 12, 61, 110
15, 38219, Note_on_c, 12, 61, 0
15, 38580, Note_on_c, 12, 59, 110
15, 38639, Note_on_c, 12, 59, 0
15, 38640, Note_on_c, 12, 59, 110
15, 38699, Note_on_c, 12, 59, 0
15, 38700, Note_on_c, 12, 64, 110
15, 38759, Note_on_c, 12, 64, 0
15, 38760, Note_on_c, 12, 57, 110
15, 38819, Note_on_c, 12, 57, 0
15, 38820, Note_on_c, 12, 64, 110
15, 38879, Note_on_c, 12, 64, 0
15, 38880, Note_on_c, 12, 61, 110
15, 38999, Note_on_c, 12, 61, 0
15, 39000, Note_on_c, 12, 64, 110
15, 39059, Note_on_c, 12, 64, 0
15, 39060, Note_on_c, 12, 57, 110
15, 39119, Note_on_c, 12, 57, 0
15, 39180, Note_on_c, 12, 60, 110
15, 39239, Note_on_c, 12, 60, 0
15, 39240, Note_on_c, 12, 54, 110
15, 39299, Note_on_c, 12, 54, 0
15, 39300, Note_on_c, 12, 66, 110
15, 39359, Note_on_c, 12, 66, 0
15, 39360, Note_on_c, 12, 63, 110
15, 39419, Note_on_c, 12, 63, 0
15, 39420, Note_on_c, 12, 63, 110
15, 39479, Note_on_c, 12, 63, 0
15, 39480, Note_on_c, 12, 64, 110
15, 39539, Note_on_c, 12, 64, 0
15, 39540, Note_on_c, 12, 59, 110
15, 39599, Note_on_c, 12, 59, 0
15, 39600, Note_on_c, 12, 59, 110
15, 39659, Note_on_c, 12, 59, 0
15, 39660, Note_on_c, 12, 59, 110
15, 39719, Note_on_c, 12, 59, 0
15, 39720, Note_on_c, 12, 59, 110
15, 39779, Note_on_c, 12, 59, 0
15, 39780, Note_on_c, 12, 59, 110
15, 39839, Note_on_c, 12, 59, 0
15, 39900, Note_on_c, 12, 52, 110
15, 39959, Note_on_c, 12, 52, 0
15, 39960, Note_on_c, 12, 57, 110
15, 40019, Note_on_c, 12, 57, 0
15, 40020, Note_on_c, 12, 64, 110
15, 40079, Note_on_c, 12, 64, 0
15, 40080, Note_on_c, 12, 61, 110
15, 40139, Note_on_c, 12, 61, 0
15, 40140, Note_on_c, 12, 61, 110
15, 40199, Note_on_c, 12, 61, 0
15, 40200, Note_on_c, 12, 62, 110
15, 40259, Note_on_c, 12, 62, 0
15, 40260, Note_on_c, 12, 57, 110
15, 40319, Note_on_c, 12, 57, 0
15, 40320, Note_on_c, 12, 57, 110
15, 40379, Note_on_c, 12, 57, 0
15, 40380, Note_on_c, 12, 57, 110
15, 40439, Note_on_c, 12, 57, 0
15, 40440, Note_on_c, 12, 57, 110
15, 40499, Note_on_c, 12, 57, 0
15, 40500, Note_on_c, 12, 55, 110
15, 40559, Note_on_c, 12, 55, 0
15, 40560, Note_on_c, 12, 62, 110
15, 40619, Note_on_c, 12, 62, 0
15, 40620, Note_on_c, 12, 67, 110
15, 40679, Note_on_c, 12, 67, 0
15, 40680, Note_on_c, 12, 66, 110
15, 40739, Note_on_c, 12, 66, 0
15, 40740, Note_on_c, 12, 59, 110
15, 40799, Note_on_c, 12, 59, 0
15, 40800, Note_on_c, 12, 66, 110
15, 40859, Note_on_c, 12, 66, 0
15, 40860, Note_on_c, 12, 59, 110
15, 40919, Note_on_c, 12, 59, 0
15, 40920, Note_on_c, 12, 66, 110
15, 40979, Note_on_c, 12, 66, 0
15, 40980, Note_on_c, 12, 67, 110
15, 41039, Note_on_c, 12, 67, 0
15, 41040, Note_on_c, 12, 66, 110
15, 41159, Note_on_c, 12, 66, 0
15, 41160, Note_on_c, 12, 57, 110
15, 41219, Note_on_c, 12, 57, 0
15, 41220, Note_on_c, 12, 64, 110
15, 41339, Note_on_c, 12, 64, 0
15, 41340, Note_on_c, 12, 64, 110
15, 41399, Note_on_c, 12, 64, 0
15, 41400, Note_on_c, 12, 64, 110
15, 41459, Note_on_c, 12, 64, 0
15, 41460, Note_on_c, 12, 61, 110
15, 41519, Note_on_c, 12, 61, 0
15, 41520, Note_on_c, 12, 61, 110
15, 41579, Note_on_c, 12, 61, 0
15, 41580, Note_on_c, 12, 61, 110
15, 41639, Note_on_c, 12, 61, 0
15, 41640, Note_on_c, 12, 62, 110
15, 41699, Note_on_c, 12, 62, 0
15, 41700, Note_on_c, 12, 64, 110
15, 41759, Note_on_c, 12, 64, 0
15, 41760, Note_on_c, 12, 62, 110
15, 41879, Note_on_c, 12, 62, 0
15, 41880, Note_on_c, 12, 54, 110
15, 41939, Note_on_c, 12, 54, 0
15, 41940, Note_on_c, 12, 58, 110
15, 41999, Note_on_c, 12, 58, 0
15, 42000, Note_on_c, 12, 62, 110
15, 42059, Note_on_c, 12, 62, 0
15, 42060, Note_on_c, 12, 62, 110
15, 42119, Note_on_c, 12, 62, 0
15, 42120, Note_on_c, 12, 64, 110
15, 42239, Note_on_c, 12, 64, 0
15, 42240, Note_on_c, 12, 64, 110
15, 42299, Note_on_c, 12, 64, 0
15, 42300, Note_on_c, 12, 62, 110
15, 42359, Note_on_c, 12, 62, 0
15, 42360, Note_on_c, 12, 59, 110
15, 42419, Note_on_c, 12, 59, 0
15, 42420, Note_on_c, 12, 64, 110
15, 42479, Note_on_c, 12, 64, 0
15, 42480, Note_on_c, 12, 62, 110
15, 42539, Note_on_c, 12, 62, 0
15, 42660, Note_on_c, 12, 62, 110
15, 42719, Note_on_c, 12, 62, 0
15, 42720, Note_on_c, 12, 65, 110
15, 42749, Note_on_c, 12, 65, 0
15, 42750, Note_on_c, 12, 64, 110
15, 42779, Note_on_c, 12, 64, 0
15, 42780, Note_on_c, 12, 65, 110
15, 42839, Note_on_c, 12, 65, 0
15, 42840, Note_on_c, 12, 65, 110
15, 42899, Note_on_c, 12, 65, 0
15, 43020, Note_on_c, 12, 66, 110
15, 43079, Note_on_c, 12, 66, 0
15, 43080, Note_on_c, 12, 64, 110
15, 43109, Note_on_c, 12, 64, 0
15, 43110, Note_on_c, 12, 62, 110
15, 43139, Note_on_c, 12, 62, 0
15, 43140, Note_on_c, 12, 64, 110
15, 43199, Note_on_c, 12, 64, 0
15, 43200, Note_on_c, 12, 66, 110
15, 43319, Note_on_c, 12, 66, 0
15, 97080, Note_on_c, 12, 59, 110
15, 97200, Note_on_c, 12, 59, 0
15, 97200, Note_on_c, 12, 59, 110
15, 97320, Note_on_c, 12, 59, 0
15, 97320, Note_on_c, 12, 64, 110
15, 97440, Note_on_c, 12, 64, 0
15, 97440, Note_on_c, 12, 64, 110
15, 97500, Note_on_c, 12, 64, 0
15, 97500, Note_on_c, 12, 62, 110
15, 97560, Note_on_c, 12, 62, 0
15, 97560, Note_on_c, 12, 62, 110
15, 97680, Note_on_c, 12, 62, 0
15, 97680, Note_on_c, 12, 64, 110
15, 97740, Note_on_c, 12, 64, 0
15, 97740, Note_on_c, 12, 60, 110
15, 97800, Note_on_c, 12, 60, 0
15, 97800, Note_on_c, 12, 57, 110
15, 97860, Note_on_c, 12, 57, 0
15, 97860, Note_on_c, 12, 62, 110
15, 97920, Note_on_c, 12, 62, 0
15, 97920, Note_on_c, 12, 62, 110
15, 98028, Note_on_c, 12, 62, 0
15, 98040, Note_on_c, 12, 64, 110
15, 98160, Note_on_c, 12, 64, 0
15, 98160, Note_on_c, 12, 62, 110
15, 98280, Note_on_c, 12, 62, 0
15, 98280, Note_on_c, 12, 55, 110
15, 98340, Note_on_c, 12, 55, 0
15, 98340, Note_on_c, 12, 57, 110
15, 98400, Note_on_c, 12, 57, 0
15, 98400, Note_on_c, 12, 59, 110
15, 98460, Note_on_c, 12, 59, 0
15, 98460, Note_on_c, 12, 60, 110
15, 98520, Note_on_c, 12, 60, 0
15, 98520, Note_on_c, 12, 62, 110
15, 98640, Note_on_c, 12, 62, 0
15, 98640, Note_on_c, 12, 62, 110
15, 98760, Note_on_c, 12, 62, 0
15, 98760, Note_on_c, 12, 60, 110
15, 98820, Note_on_c, 12, 60, 0
15, 98820, Note_on_c, 12, 59, 110
15, 98880, Note_on_c, 12, 59, 0
15, 98880, Note_on_c, 12, 59, 110
15, 98988, Note_on_c, 12, 59, 0
15, 99000, Note_on_c, 12, 59, 110
15, 99120, Note_on_c, 12, 59, 0
15, 99120, Note_on_c, 12, 59, 110
15, 99240, Note_on_c, 12, 59, 0
15, 99240, Note_on_c, 12, 64, 110
15, 99360, Note_on_c, 12, 64, 0
15, 99360, Note_on_c, 12, 64, 110
15, 99420, Note_on_c, 12, 64, 0
15, 99420, Note_on_c, 12, 62, 110
15, 99480, Note_on_c, 12, 62, 0
15, 99480, Note_on_c, 12, 62, 110
15, 99600, Note_on_c, 12, 62, 0
15, 99600, Note_on_c, 12, 64, 110
15, 99660, Note_on_c, 12, 64, 0
15, 99660, Note_on_c, 12, 60, 110
15, 99720, Note_on_c, 12, 60, 0
15, 99720, Note_on_c, 12, 57, 110
15, 99780, Note_on_c, 12, 57, 0
15, 99780, Note_on_c, 12, 62, 110
15, 99840, Note_on_c, 12, 62, 0
15, 99840, Note_on_c, 12, 62, 110
15, 99948, Note_on_c, 12, 62, 0
15, 99960, Note_on_c, 12, 64, 110
15, 100080, Note_on_c, 12, 64, 0
15, 100080, Note_on_c, 12, 62, 110
15, 100200, Note_on_c, 12, 62, 0
15, 100200, Note_on_c, 12, 55, 110
15, 100260, Note_on_c, 12, 55, 0
15, 100260, Note_on_c, 12, 57, 110
15, 100320, Note_on_c, 12, 57, 0
15, 100320, Note_on_c, 12, 59, 110
15, 100380, Note_on_c, 12, 59, 0
15, 100380, Note_on_c, 12, 60, 110
15, 100440, Note_on_c, 12, 60, 0
15, 100440, Note_on_c, 12, 62, 110
15, 100560, Note_on_c, 12, 62, 0
15, 100560, Note_on_c, 12, 62, 110
15, 100680, Note_on_c, 12, 62, 0
15, 100680, Note_on_c, 12, 60, 110
15, 100740, Note_on_c, 12, 60, 0
15, 100740, Note_on_c, 12, 59, 110
15, 100800, Note_on_c, 12, 59, 0
15, 100800, Note_on_c, 12, 59, 110
15, 100908, Note_on_c, 12, 59, 0
15, 100920, Note_on_c, 12, 62, 110
15, 101040, Note_on_c, 12, 62, 0
15, 101040, Note_on_c, 12, 62, 110
15, 101160, Note_on_c, 12, 62, 0
15, 101160, Note_on_c, 12, 62, 110
15, 101220, Note_on_c, 12, 62, 0
15, 101220, Note_on_c, 12, 60, 110
15, 101280, Note_on_c, 12, 60, 0
15, 101280, Note_on_c, 12, 59, 110
15, 101340, Note_on_c, 12, 59, 0
15, 101340, Note_on_c, 12, 60, 110
15, 101400, Note_on_c, 12, 60, 0
15, 101400, Note_on_c, 12, 55, 110
15, 101460, Note_on_c, 12, 55, 0
15, 101460, Note_on_c, 12, 59, 110
15, 101520, Note_on_c, 12, 59, 0
15, 101520, Note_on_c, 12, 59, 110
15, 101580, Note_on_c, 12, 59, 0
15, 101580, Note_on_c, 12, 57, 110
15, 101640, Note_on_c, 12, 57, 0
15, 101640, Note_on_c, 12, 57, 110
15, 101700, Note_on_c, 12, 57, 0
15, 101700, Note_on_c, 12, 55, 110
15, 101760, Note_on_c, 12, 55, 0
15, 101760, Note_on_c, 12, 54, 110
15, 101868, Note_on_c, 12, 54, 0
15, 101880, Note_on_c, 12, 54, 110
15, 102000, Note_on_c, 12, 54, 0
15, 102000, Note_on_c, 12, 55, 110
15, 102060, Note_on_c, 12, 55, 0
15, 102060, Note_on_c, 12, 57, 110
15, 102120, Note_on_c, 12, 57, 0
15, 102120, Note_on_c, 12, 59, 110
15, 102180, Note_on_c, 12, 59, 0
15, 102180, Note_on_c, 12, 60, 110
15, 102240, Note_on_c, 12, 60, 0
15, 102240, Note_on_c, 12, 59, 110
15, 102300, Note_on_c, 12, 59, 0
15, 102300, Note_on_c, 12, 57, 110
15, 102360, Note_on_c, 12, 57, 0
15, 102360, Note_on_c, 12, 55, 110
15, 102600, Note_on_c, 12, 55, 0
15, 102600, Note_on_c, 12, 54, 110
15, 102660, Note_on_c, 12, 54, 0
15, 102660, Note_on_c, 12, 52, 110
15, 102720, Note_on_c, 12, 52, 0
15, 102720, Note_on_c, 12, 54, 110
15, 102828, Note_on_c, 12, 54, 0
15, 102840, Note_on_c, 12, 52, 110
15, 102900, Note_on_c, 12, 52, 0
15, 102900, Note_on_c, 12, 54, 110
15, 102960, Note_on_c, 12, 54, 0
15, 102960, Note_on_c, 12, 55, 110
15, 103140, Note_on_c, 12, 55, 0
15, 103140, Note_on_c, 12, 57, 110
15, 103200, Note_on_c, 12, 57, 0
15, 103200, Note_on_c, 12, 59, 110
15, 103260, Note_on_c, 12, 59, 0
15, 103260, Note_on_c, 12, 60, 110
15, 103320, Note_on_c, 12, 60, 0
15, 103320, Note_on_c, 12, 62, 110
15, 103560, Note_on_c, 12, 62, 0
15, 103560, Note_on_c, 12, 60, 110
15, 103620, Note_on_c, 12, 60, 0
15, 103620, Note_on_c, 12, 59, 110
15, 103680, Note_on_c, 12, 59, 0
15, 103680, Note_on_c, 12, 59, 110
15, 103800, Note_on_c, 12, 59, 0
15, 106470, Control_c, 12, 0, 30
15, 106470, Program_c, 12, 57
15, 106500, Note_on_c, 12, 66, 110
15, 106559, Note_on_c, 12, 66, 0
15, 106560, Note_on_c, 12, 62, 110
15, 106619, Note_on_c, 12, 62, 0
15, 106650, Note_on_c, 12, 62, 110
15, 106679, Note_on_c, 12, 62, 0
15, 106680, Note_on_c, 12, 56, 110
15, 106739, Note_on_c, 12, 56, 0
15, 106770, Note_on_c, 12, 57, 110
15, 106799, Note_on_c, 12, 57, 0
15, 106800, Note_on_c, 12, 59, 110
15, 106859, Note_on_c, 12, 59, 0
15, 106860, Note_on_c, 12, 59, 110
15, 106919, Note_on_c, 12, 59, 0
15, 106920, Note_on_c, 12, 62, 110
15, 106979, Note_on_c, 12, 62, 0
15, 106980, Note_on_c, 12, 61, 110
15, 107039, Note_on_c, 12, 61, 0
15, 107040, Note_on_c, 12, 57, 110
15, 107159, Note_on_c, 12, 57, 0
15, 107220, Note_on_c, 12, 54, 110
15, 107279, Note_on_c, 12, 54, 0
15, 107280, Note_on_c, 12, 61, 110
15, 107339, Note_on_c, 12, 61, 0
15, 107340, Note_on_c, 12, 61, 110
15, 107399, Note_on_c, 12, 61, 0
15, 107400, Note_on_c, 12, 62, 110
15, 107459, Note_on_c, 12, 62, 0
15, 107460, Note_on_c, 12, 64, 110
15, 107519, Note_on_c, 12, 64, 0
15, 107520, Note_on_c, 12, 55, 110
15, 107579, Note_on_c, 12, 55, 0
15, 107610, Note_on_c, 12, 57, 110
15, 107639, Note_on_c, 12, 57, 0
15, 107640, Note_on_c, 12, 61, 110
15, 107699, Note_on_c, 12, 61, 0
15, 107700, Note_on_c, 12, 64, 110
15, 107759, Note_on_c, 12, 64, 0
15, 107760, Note_on_c, 12, 66, 110
15, 107819, Note_on_c, 12, 66, 0
15, 107820, Note_on_c, 12, 66, 110
15, 107879, Note_on_c, 12, 66, 0
15, 107880, Note_on_c, 12, 68, 110
15, 107939, Note_on_c, 12, 68, 0
15, 107940, Note_on_c, 12, 69, 110
15, 107999, Note_on_c, 12, 69, 0
15, 108000, Note_on_c, 12, 69, 110
15, 108059, Note_on_c, 12, 69, 0
15, 108060, Note_on_c, 12, 64, 110
15, 108119, Note_on_c, 12, 64, 0
15, 108420, Note_on_c, 12, 57, 110
15, 108479, Note_on_c, 12, 57, 0
15, 108480, Note_on_c, 12, 64, 110
15, 108539, Note_on_c, 12, 64, 0
15, 108540, Note_on_c, 12, 64, 110
15, 108599, Note_on_c, 12, 64, 0
15, 108600, Note_on_c, 12, 64, 110
15, 108659, Note_on_c, 12, 64, 0
15, 108660, Note_on_c, 12, 66, 110
15, 108719, Note_on_c, 12, 66, 0
15, 108720, Note_on_c, 12, 67, 110
15, 108779, Note_on_c, 12, 67, 0
15, 108900, Note_on_c, 12, 62, 110
15, 108959, Note_on_c, 12, 62, 0
15, 108960, Note_on_c, 12, 59, 110
15, 109019, Note_on_c, 12, 59, 0
15, 109020, Note_on_c, 12, 59, 110
15, 109079, Note_on_c, 12, 59, 0
15, 109080, Note_on_c, 12, 62, 110
15, 109139, Note_on_c, 12, 62, 0
15, 109140, Note_on_c, 12, 59, 110
15, 109199, Note_on_c, 12, 59, 0
15, 109200, Note_on_c, 12, 55, 110
15, 109259, Note_on_c, 12, 55, 0
15, 109290, Note_on_c, 12, 67, 110
15, 109319, Note_on_c, 12, 67, 0
15, 109320, Note_on_c, 12, 67, 110
15, 109379, Note_on_c, 12, 67, 0
15, 109380, Note_on_c, 12, 64, 110
15, 109439, Note_on_c, 12, 64, 0
15, 109440, Note_on_c, 12, 62, 110
15, 109469, Note_on_c, 12, 62, 0
15, 109470, Note_on_c, 12, 61, 110
15, 109499, Note_on_c, 12, 61, 0
15, 109500, Note_on_c, 12, 59, 110
15, 109529, Note_on_c, 12, 59, 0
15, 109530, Note_on_c, 12, 57, 110
15, 109559, Note_on_c, 12, 57, 0
15, 109560, Note_on_c, 12, 69, 110
15, 109619, Note_on_c, 12, 69, 0
15, 109620, Note_on_c, 12, 64, 110
15, 109679, Note_on_c, 12, 64, 0
15, 109680, Note_on_c, 12, 67, 110
15, 109739, Note_on_c, 12, 67, 0
15, 109740, Note_on_c, 12, 66, 110
15, 109799, Note_on_c, 12, 66, 0
15, 109980, Note_on_c, 12, 66, 110
15, 110039, Note_on_c, 12, 66, 0
15, 110040, Note_on_c, 12, 66, 110
15, 110099, Note_on_c, 12, 66, 0
15, 110100, Note_on_c, 12, 61, 110
15, 110159, Note_on_c, 12, 61, 0
15, 110160, Note_on_c, 12, 58, 110
15, 110249, Note_on_c, 12, 58, 0
15, 110250, Note_on_c, 12, 58, 110
15, 110279, Note_on_c, 12, 58, 0
15, 110280, Note_on_c, 12, 58, 110
15, 110339, Note_on_c, 12, 58, 0
15, 110340, Note_on_c, 12, 59, 110
15, 110399, Note_on_c, 12, 59, 0
15, 110400, Note_on_c, 12, 61, 110
15, 110459, Note_on_c, 12, 61, 0
15, 110460, Note_on_c, 12, 54, 110
15, 110519, Note_on_c, 12, 54, 0
15, 110550, Note_on_c, 12, 54, 110
15, 110579, Note_on_c, 12, 54, 0
15, 110580, Note_on_c, 12, 61, 110
15, 110609, Note_on_c, 12, 61, 0
15, 110610, Note_on_c, 12, 62, 110
15, 110639, Note_on_c, 12, 62, 0
15, 110640, Note_on_c, 12, 64, 110
15, 110699, Note_on_c, 12, 64, 0
15, 110700, Note_on_c, 12, 64, 110
15, 110759, Note_on_c, 12, 64, 0
15, 110760, Note_on_c, 12, 66, 110
15, 110819, Note_on_c, 12, 66, 0
15, 110820, Note_on_c, 12, 61, 110
15, 110879, Note_on_c, 12, 61, 0
15, 110880, Note_on_c, 12, 62, 110
15, 110939, Note_on_c, 12, 62, 0
15, 110940, Note_on_c, 12, 62, 110
15, 110999, Note_on_c, 12, 62, 0
15, 111180, Note_on_c, 12, 62, 110
15, 111239, Note_on_c, 12, 62, 0
15, 111240, Note_on_c, 12, 66, 110
15, 111329, Note_on_c, 12, 66, 0
15, 111330, Note_on_c, 12, 67, 110
15, 111359, Note_on_c, 12, 67, 0
15, 111360, Note_on_c, 12, 69, 110
15, 111419, Note_on_c, 12, 69, 0
15, 111450, Note_on_c, 12, 57, 110
15, 111479, Note_on_c, 12, 57, 0
15, 111480, Note_on_c, 12, 60, 110
15, 111509, Note_on_c, 12, 60, 0
15, 111510, Note_on_c, 12, 59, 110
15, 111539, Note_on_c, 12, 59, 0
15, 111540, Note_on_c, 12, 60, 110
15, 111599, Note_on_c, 12, 60, 0
15, 111600, Note_on_c, 12, 59, 110
15, 111659, Note_on_c, 12, 59, 0
15, 111690, Note_on_c, 12, 54, 110
15, 111719, Note_on_c, 12, 54, 0
15, 111720, Note_on_c, 12, 54, 110
15, 111779, Note_on_c, 12, 54, 0
15, 111780, Note_on_c, 12, 55, 110
15, 111839, Note_on_c, 12, 55, 0
15, 111840, Note_on_c, 12, 57, 110
15, 111899, Note_on_c, 12, 57, 0
15, 111900, Note_on_c, 12, 57, 110
15, 111959, Note_on_c, 12, 57, 0
15, 111960, Note_on_c, 12, 57, 110
15, 112019, Note_on_c, 12, 57, 0
15, 112020, Note_on_c, 12, 54, 110
15, 112079, Note_on_c, 12, 54, 0
15, 112080, Note_on_c, 12, 51, 110
15, 112199, Note_on_c, 12, 51, 0
15, 112260, Note_on_c, 12, 54, 110
15, 112319, Note_on_c, 12, 54, 0
15, 112320, Note_on_c, 12, 59, 110
15, 112379, Note_on_c, 12, 59, 0
15, 112380, Note_on_c, 12, 59, 110
15, 112439, Note_on_c, 12, 59, 0
15, 112440, Note_on_c, 12, 61, 110
15, 112499, Note_on_c, 12, 61, 0
15, 112500, Note_on_c, 12, 63, 110
15, 112559, Note_on_c, 12, 63, 0
15, 112560, Note_on_c, 12, 64, 110
15, 112619, Note_on_c, 12, 64, 0
15, 112620, Note_on_c, 12, 64, 110
15, 112679, Note_on_c, 12, 64, 0
15, 112740, Note_on_c, 12, 59, 110
15, 112799, Note_on_c, 12, 59, 0
15, 112800, Note_on_c, 12, 65, 110
15, 112829, Note_on_c, 12, 65, 0
15, 112830, Note_on_c, 12, 65, 110
15, 112859, Note_on_c, 12, 65, 0
15, 112860, Note_on_c, 12, 65, 110
15, 112889, Note_on_c, 12, 65, 0
15, 112890, Note_on_c, 12, 65, 110
15, 112919, Note_on_c, 12, 65, 0
15, 112920, Note_on_c, 12, 65, 110
15, 112979, Note_on_c, 12, 65, 0
15, 112980, Note_on_c, 12, 66, 110
15, 113039, Note_on_c, 12, 66, 0
15, 113040, Note_on_c, 12, 68, 110
15, 113159, Note_on_c, 12, 68, 0
15, 113220, Note_on_c, 12, 68, 110
15, 113279, Note_on_c, 12, 68, 0
15, 113280, Note_on_c, 12, 68, 110
15, 113339, Note_on_c, 12, 68, 0
15, 113340, Note_on_c, 12, 59, 110
15, 113399, Note_on_c, 12, 59, 0
15, 113400, Note_on_c, 12, 56, 110
15, 113459, Note_on_c, 12, 56, 0
15, 113460, Note_on_c, 12, 61, 110
15, 113519, Note_on_c, 12, 61, 0
15, 113520, Note_on_c, 12, 57, 110
15, 113579, Note_on_c, 12, 57, 0
15, 113580, Note_on_c, 12, 57, 110
15, 113639, Note_on_c, 12, 57, 0
15, 113820, Note_on_c, 12, 61, 110
15, 113879, Note_on_c, 12, 61, 0
15, 113880, Note_on_c, 12, 66, 110
15, 113939, Note_on_c, 12, 66, 0
15, 113940, Note_on_c, 12, 61, 110
15, 113999, Note_on_c, 12, 61, 0
15, 114000, Note_on_c, 12, 58, 110
15, 114059, Note_on_c, 12, 58, 0
15, 114090, Note_on_c, 12, 61, 110
15, 114119, Note_on_c, 12, 61, 0
15, 114120, Note_on_c, 12, 64, 110
15, 114179, Note_on_c, 12, 64, 0
15, 114180, Note_on_c, 12, 62, 110
15, 114239, Note_on_c, 12, 62, 0
15, 114240, Note_on_c, 12, 59, 110
15, 114299, Note_on_c, 12, 59, 0
15, 114330, Note_on_c, 12, 59, 110
15, 114359, Note_on_c, 12, 59, 0
15, 114360, Note_on_c, 12, 66, 110
15, 114419, Note_on_c, 12, 66, 0
15, 114420, Note_on_c, 12, 67, 110
15, 114479, Note_on_c, 12, 67, 0
15, 114480, Note_on_c, 12, 69, 110
15, 114539, Note_on_c, 12, 69, 0
15, 114540, Note_on_c, 12, 66, 110
15, 114599, Note_on_c, 12, 66, 0
15, 114600, Note_on_c, 12, 63, 110
15, 114659, Note_on_c, 12, 63, 0
15, 114660, Note_on_c, 12, 66, 110
15, 114719, Note_on_c, 12, 66, 0
15, 114720, Note_on_c, 12, 67, 110
15, 114839, Note_on_c, 12, 67, 0
15, 114900, Note_on_c, 12, 64, 110
15, 114959, Note_on_c, 12, 64, 0
15, 114960, Note_on_c, 12, 64, 110
15, 115019, Note_on_c, 12, 64, 0
15, 115020, Note_on_c, 12, 58, 110
15, 115079, Note_on_c, 12, 58, 0
15, 115140, Note_on_c, 12, 59, 110
15, 115199, Note_on_c, 12, 59, 0
15, 115200, Note_on_c, 12, 67, 110
15, 115259, Note_on_c, 12, 67, 0
15, 115260, Note_on_c, 12, 66, 110
15, 115319, Note_on_c, 12, 66, 0
15, 115380, Note_on_c, 12, 64, 110
15, 115439, Note_on_c, 12, 64, 0
15, 115440, Note_on_c, 12, 62, 110
15, 115499, Note_on_c, 12, 62, 0
15, 115500, Note_on_c, 12, 61, 110
15, 115559, Note_on_c, 12, 61, 0
15, 115560, Note_on_c, 12, 64, 110
15, 115619, Note_on_c, 12, 64, 0
15, 115620, Note_on_c, 12, 62, 110
15, 115679, Note_on_c, 12, 62, 0
15, 115680, Note_on_c, 12, 59, 110
15, 115799, Note_on_c, 12, 59, 0
15, 120420, Note_on_c, 12, 54, 110
15, 120479, Note_on_c, 12, 54, 0
15, 120480, Note_on_c, 12, 59, 110
15, 120539, Note_on_c, 12, 59, 0
15, 120540, Note_on_c, 12, 62, 110
15, 120599, Note_on_c, 12, 62, 0
15, 120600, Note_on_c, 12, 61, 110
15, 120659, Note_on_c, 12, 61, 0
15, 120660, Note_on_c, 12, 58, 110
15, 120719, Note_on_c, 12, 58, 0
15, 120720, Note_on_c, 12, 59, 110
15, 120779, Note_on_c, 12, 59, 0
15, 120780, Note_on_c, 12, 62, 110
15, 120839, Note_on_c, 12, 62, 0
15, 120840, Note_on_c, 12, 61, 110
15, 120899, Note_on_c, 12, 61, 0
15, 120900, Note_on_c, 12, 58, 110
15, 120959, Note_on_c, 12, 58, 0
15, 120960, Note_on_c, 12, 59, 110
15, 121019, Note_on_c, 12, 59, 0
15, 121020, Note_on_c, 12, 67, 110
15, 121079, Note_on_c, 12, 67, 0
15, 121080, Note_on_c, 12, 66, 110
15, 121139, Note_on_c, 12, 66, 0
15, 121140, Note_on_c, 12, 64, 110
15, 121199, Note_on_c, 12, 64, 0
15, 121200, Note_on_c, 12, 62, 110
15, 121229, Note_on_c, 12, 62, 0
15, 121230, Note_on_c, 12, 61, 110
15, 121259, Note_on_c, 12, 61, 0
15, 121260, Note_on_c, 12, 62, 110
15, 121289, Note_on_c, 12, 62, 0
15, 121290, Note_on_c, 12, 61, 110
15, 121319, Note_on_c, 12, 61, 0
15, 121320, Note_on_c, 12, 59, 110
15, 121379, Note_on_c, 12, 59, 0
15, 121380, Note_on_c, 12, 54, 110
15, 121439, Note_on_c, 12, 54, 0
15, 121440, Note_on_c, 12, 59, 110
15, 121499, Note_on_c, 12, 59, 0
15, 121500, Note_on_c, 12, 62, 110
15, 121559, Note_on_c, 12, 62, 0
15, 121560, Note_on_c, 12, 61, 110
15, 121619, Note_on_c, 12, 61, 0
15, 121620, Note_on_c, 12, 58, 110
15, 121679, Note_on_c, 12, 58, 0
15, 121680, Note_on_c, 12, 59, 110
15, 121739, Note_on_c, 12, 59, 0
15, 121740, Note_on_c, 12, 62, 110
15, 121799, Note_on_c, 12, 62, 0
15, 121800, Note_on_c, 12, 61, 110
15, 121859, Note_on_c, 12, 61, 0
15, 121860, Note_on_c, 12, 58, 110
15, 121919, Note_on_c, 12, 58, 0
15, 121920, Note_on_c, 12, 59, 110
15, 121979, Note_on_c, 12, 59, 0
15, 121980, Note_on_c, 12, 67, 110
15, 122039, Note_on_c, 12, 67, 0
15, 122040, Note_on_c, 12, 66, 110
15, 122099, Note_on_c, 12, 66, 0
15, 122100, Note_on_c, 12, 64, 110
15, 122159, Note_on_c, 12, 64, 0
15, 122160, Note_on_c, 12, 62, 110
15, 122190, Note_on_c, 12, 62, 0
15, 122190, Note_on_c, 12, 61, 110
15, 122220, Note_on_c, 12, 61, 0
15, 122220, Note_on_c, 12, 62, 110
15, 122250, Note_on_c, 12, 62, 0
15, 122250, Note_on_c, 12, 61, 110
15, 122280, Note_on_c, 12, 61, 0
15, 122280, Note_on_c, 12, 59, 110
15, 122339, Note_on_c, 12, 59, 0
15, 122340, Note_on_c, 12, 62, 110
15, 122399, Note_on_c, 12, 62, 0
15, 122400, Note_on_c, 12, 62, 110
15, 122459, Note_on_c, 12, 62, 0
15, 122460, Note_on_c, 12, 61, 110
15, 122519, Note_on_c, 12, 61, 0
15, 122580, Note_on_c, 12, 65, 110
15, 122639, Note_on_c, 12, 65, 0
15, 122640, Note_on_c, 12, 65, 110
15, 122699, Note_on_c, 12, 65, 0
15, 122700, Note_on_c, 12, 66, 110
15, 122759, Note_on_c, 12, 66, 0
15, 122820, Note_on_c, 12, 64, 110
15, 122879, Note_on_c, 12, 64, 0
15, 122880, Note_on_c, 12, 62, 110
15, 122939, Note_on_c, 12, 62, 0
15, 122940, Note_on_c, 12, 61, 110
15, 122999, Note_on_c, 12, 61, 0
15, 123000, Note_on_c, 12, 54, 110
15, 123059, Note_on_c, 12, 54, 0
15, 123060, Note_on_c, 12, 56, 110
15, 123119, Note_on_c, 12, 56, 0
15, 123120, Note_on_c, 12, 57, 110
15, 123179, Note_on_c, 12, 57, 0
15, 123180, Note_on_c, 12, 56, 110
15, 123239, Note_on_c, 12, 56, 0
15, 123300, Note_on_c, 12, 59, 110
15, 123359, Note_on_c, 12, 59, 0
15, 123360, Note_on_c, 12, 59, 110
15, 123419, Note_on_c, 12, 59, 0
15, 123420, Note_on_c, 12, 58, 110
15, 123479, Note_on_c, 12, 58, 0
15, 123540, Note_on_c, 12, 61, 110
15, 123599, Note_on_c, 12, 61, 0
15, 123600, Note_on_c, 12, 61, 110
15, 123659, Note_on_c, 12, 61, 0
15, 123660, Note_on_c, 12, 59, 110
15, 123719, Note_on_c, 12, 59, 0
15, 123780, Note_on_c, 12, 63, 110
15, 123839, Note_on_c, 12, 63, 0
15, 123840, Note_on_c, 12, 63, 110
15, 123899, Note_on_c, 12, 63, 0
15, 123900, Note_on_c, 12, 64, 110
15, 123959, Note_on_c, 12, 64, 0
15, 124020, Note_on_c, 12, 52, 110
15, 124079, Note_on_c, 12, 52, 0
15, 124080, Note_on_c, 12, 64, 110
15, 124199, Note_on_c, 12, 64, 0
15, 124260, Note_on_c, 12, 54, 110
15, 124319, Note_on_c, 12, 54, 0
15, 124320, Note_on_c, 12, 59, 110
15, 124379, Note_on_c, 12, 59, 0
15, 124380, Note_on_c, 12, 62, 110
15, 124439, Note_on_c, 12, 62, 0
15, 124440, Note_on_c, 12, 61, 110
15, 124499, Note_on_c, 12, 61, 0
15, 124500, Note_on_c, 12, 58, 110
15, 124559, Note_on_c, 12, 58, 0
15, 124560, Note_on_c, 12, 59, 110
15, 124619, Note_on_c, 12, 59, 0
15, 124620, Note_on_c, 12, 62, 110
15, 124679, Note_on_c, 12, 62, 0
15, 124680, Note_on_c, 12, 61, 110
15, 124739, Note_on_c, 12, 61, 0
15, 124740, Note_on_c, 12, 58, 110
15, 124799, Note_on_c, 12, 58, 0
15, 124800, Note_on_c, 12, 59, 110
15, 124859, Note_on_c, 12, 59, 0
15, 124860, Note_on_c, 12, 67, 110
15, 124919, Note_on_c, 12, 67, 0
15, 124920, Note_on_c, 12, 66, 110
15, 124979, Note_on_c, 12, 66, 0
15, 124980, Note_on_c, 12, 64, 110
15, 125039, Note_on_c, 12, 64, 0
15, 125040, Note_on_c, 12, 62, 110
15, 125069, Note_on_c, 12, 62, 0
15, 125070, Note_on_c, 12, 61, 110
15, 125099, Note_on_c, 12, 61, 0
15, 125100, Note_on_c, 12, 62, 110
15, 125129, Note_on_c, 12, 62, 0
15, 125130, Note_on_c, 12, 61, 110
15, 125159, Note_on_c, 12, 61, 0
15, 125160, Note_on_c, 12, 59, 110
15, 125219, Note_on_c, 12, 59, 0
15, 125220, Note_on_c, 12, 61, 110
15, 125279, Note_on_c, 12, 61, 0
15, 125280, Note_on_c, 12, 62, 110
15, 125339, Note_on_c, 12, 62, 0
15, 125340, Note_on_c, 12, 66, 110
15, 125399, Note_on_c, 12, 66, 0
15, 125400, Note_on_c, 12, 64, 110
15, 125459, Note_on_c, 12, 64, 0
15, 125460, Note_on_c, 12, 61, 110
15, 125519, Note_on_c, 12, 61, 0
15, 125520, Note_on_c, 12, 62, 110
15, 125579, Note_on_c, 12, 62, 0
15, 125580, Note_on_c, 12, 66, 110
15, 125639, Note_on_c, 12, 66, 0
15, 125640, Note_on_c, 12, 64, 110
15, 125699, Note_on_c, 12, 64, 0
15, 125700, Note_on_c, 12, 61, 110
15, 125759, Note_on_c, 12, 61, 0
15, 125760, Note_on_c, 12, 62, 110
15, 125819, Note_on_c, 12, 62, 0
15, 125820, Note_on_c, 12, 61, 110
15, 125849, Note_on_c, 12, 61, 0
15, 125850, Note_on_c, 12, 59, 110
15, 125879, Note_on_c, 12, 59, 0
15, 125880, Note_on_c, 12, 62, 110
15, 125909, Note_on_c, 12, 62, 0
15, 125910, Note_on_c, 12, 61, 110
15, 125939, Note_on_c, 12, 61, 0
15, 125940, Note_on_c, 12, 59, 110
15, 125969, Note_on_c, 12, 59, 0
15, 125970, Note_on_c, 12, 58, 110
15, 125999, Note_on_c, 12, 58, 0
15, 126000, Note_on_c, 12, 59, 110
15, 126059, Note_on_c, 12, 59, 0
15, 126060, Note_on_c, 12, 62, 110
15, 126119, Note_on_c, 12, 62, 0
15, 126120, Note_on_c, 12, 66, 110
15, 126179, Note_on_c, 12, 66, 0
15, 126180, Note_on_c, 12, 69, 110
15, 126239, Note_on_c, 12, 69, 0
15, 126240, Note_on_c, 12, 68, 110
15, 126269, Note_on_c, 12, 68, 0
15, 126270, Note_on_c, 12, 66, 110
15, 126299, Note_on_c, 12, 66, 0
15, 126300, Note_on_c, 12, 68, 110
15, 126329, Note_on_c, 12, 68, 0
15, 126330, Note_on_c, 12, 66, 110
15, 126359, Note_on_c, 12, 66, 0
15, 126360, Note_on_c, 12, 65, 110
15, 126419, Note_on_c, 12, 65, 0
15, 126420, Note_on_c, 12, 62, 110
15, 126479, Note_on_c, 12, 62, 0
15, 126480, Note_on_c, 12, 62, 110
15, 126539, Note_on_c, 12, 62, 0
15, 126540, Note_on_c, 12, 61, 110
15, 126599, Note_on_c, 12, 61, 0
15, 126660, Note_on_c, 12, 61, 110
15, 126719, Note_on_c, 12, 61, 0
15, 126720, Note_on_c, 12, 62, 110
15, 126749, Note_on_c, 12, 62, 0
15, 126750, Note_on_c, 12, 61, 110
15, 126779, Note_on_c, 12, 61, 0
15, 126780, Note_on_c, 12, 59, 110
15, 126839, Note_on_c, 12, 59, 0
15, 126900, Note_on_c, 12, 66, 110
15, 126959, Note_on_c, 12, 66, 0
15, 126960, Note_on_c, 12, 57, 110
15, 127019, Note_on_c, 12, 57, 0
15, 127020, Note_on_c, 12, 56, 110
15, 127079, Note_on_c, 12, 56, 0
15, 127140, Note_on_c, 12, 61, 110
15, 127199, Note_on_c, 12, 61, 0
15, 127200, Note_on_c, 12, 66, 110
15, 127229, Note_on_c, 12, 66, 0
15, 127230, Note_on_c, 12, 68, 110
15, 127259, Note_on_c, 12, 68, 0
15, 127260, Note_on_c, 12, 69, 110
15, 127289, Note_on_c, 12, 69, 0
15, 127290, Note_on_c, 12, 68, 110
15, 127319, Note_on_c, 12, 68, 0
15, 127320, Note_on_c, 12, 66, 110
15, 127379, Note_on_c, 12, 66, 0
15, 127380, Note_on_c, 12, 65, 110
15, 127439, Note_on_c, 12, 65, 0
15, 127440, Note_on_c, 12, 66, 110
15, 127499, Note_on_c, 12, 66, 0
15, 127500, Note_on_c, 12, 64, 110
15, 127529, Note_on_c, 12, 64, 0
15, 127530, Note_on_c, 12, 62, 110
15, 127559, Note_on_c, 12, 62, 0
15, 127560, Note_on_c, 12, 61, 110
15, 127619, Note_on_c, 12, 61, 0
15, 127620, Note_on_c, 12, 59, 110
15, 127679, Note_on_c, 12, 59, 0
15, 127680, Note_on_c, 12, 57, 110
15, 127709, Note_on_c, 12, 57, 0
15, 127710, Note_on_c, 12, 62, 110
15, 127739, Note_on_c, 12, 62, 0
15, 127740, Note_on_c, 12, 61, 110
15, 127769, Note_on_c, 12, 61, 0
15, 127770, Note_on_c, 12, 59, 110
15, 127799, Note_on_c, 12, 59, 0
15, 127800, Note_on_c, 12, 57, 110
15, 127859, Note_on_c, 12, 57, 0
15, 127860, Note_on_c, 12, 56, 110
15, 127919, Note_on_c, 12, 56, 0
15, 127920, Note_on_c, 12, 54, 110
15, 128039, Note_on_c, 12, 54, 0
15, 131940, Note_on_c, 12, 61, 110
15, 131999, Note_on_c, 12, 61, 0
15, 132000, Note_on_c, 12, 62, 110
15, 132059, Note_on_c, 12, 62, 0
15, 132060, Note_on_c, 12, 59, 110
15, 132119, Note_on_c, 12, 59, 0
15, 132120, Note_on_c, 12, 58, 110
15, 132179, Note_on_c, 12, 58, 0
15, 132180, Note_on_c, 12, 61, 110
15, 132239, Note_on_c, 12, 61, 0
15, 132240, Note_on_c, 12, 59, 110
15, 132269, Note_on_c, 12, 59, 0
15, 132270, Note_on_c, 12, 61, 110
15, 132299, Note_on_c, 12, 61, 0
15, 132300, Note_on_c, 12, 62, 110
15, 132329, Note_on_c, 12, 62, 0
15, 132330, Note_on_c, 12, 64, 110
15, 132359, Note_on_c, 12, 64, 0
15, 132360, Note_on_c, 12, 66, 110
15, 132419, Note_on_c, 12, 66, 0
15, 132420, Note_on_c, 12, 61, 110
15, 132479, Note_on_c, 12, 61, 0
15, 132480, Note_on_c, 12, 62, 110
15, 132539, Note_on_c, 12, 62, 0
15, 132540, Note_on_c, 12, 66, 110
15, 132599, Note_on_c, 12, 66, 0
15, 132600, Note_on_c, 12, 64, 110
15, 132659, Note_on_c, 12, 64, 0
15, 132660, Note_on_c, 12, 61, 110
15, 132719, Note_on_c, 12, 61, 0
15, 132720, Note_on_c, 12, 62, 110
15, 132749, Note_on_c, 12, 62, 0
15, 132750, Note_on_c, 12, 61, 110
15, 132779, Note_on_c, 12, 61, 0
15, 132780, Note_on_c, 12, 62, 110
15, 132809, Note_on_c, 12, 62, 0
15, 132810, Note_on_c, 12, 61, 110
15, 132839, Note_on_c, 12, 61, 0
15, 132840, Note_on_c, 12, 59, 110
15, 132899, Note_on_c, 12, 59, 0
15, 132900, Note_on_c, 12, 66, 110
15, 132959, Note_on_c, 12, 66, 0
15, 132960, Note_on_c, 12, 67, 110
15, 133019, Note_on_c, 12, 67, 0
15, 133020, Note_on_c, 12, 64, 110
15, 133079, Note_on_c, 12, 64, 0
15, 133080, Note_on_c, 12, 63, 110
15, 133139, Note_on_c, 12, 63, 0
15, 133140, Note_on_c, 12, 66, 110
15, 133199, Note_on_c, 12, 66, 0
15, 133200, Note_on_c, 12, 64, 110
15, 133229, Note_on_c, 12, 64, 0
15, 133230, Note_on_c, 12, 66, 110
15, 133259, Note_on_c, 12, 66, 0
15, 133260, Note_on_c, 12, 67, 110
15, 133289, Note_on_c, 12, 67, 0
15, 133290, Note_on_c, 12, 66, 110
15, 133319, Note_on_c, 12, 66, 0
15, 133320, Note_on_c, 12, 64, 110
15, 133349, Note_on_c, 12, 64, 0
15, 133350, Note_on_c, 12, 62, 110
15, 133379, Note_on_c, 12, 62, 0
15, 133380, Note_on_c, 12, 60, 110
15, 133409, Note_on_c, 12, 60, 0
15, 133410, Note_on_c, 12, 59, 110
15, 133439, Note_on_c, 12, 59, 0
15, 133440, Note_on_c, 12, 57, 110
15, 133499, Note_on_c, 12, 57, 0
15, 133500, Note_on_c, 12, 67, 110
15, 133559, Note_on_c, 12, 67, 0
15, 133560, Note_on_c, 12, 66, 110
15, 133619, Note_on_c, 12, 66, 0
15, 133620, Note_on_c, 12, 64, 110
15, 133679, Note_on_c, 12, 64, 0
15, 133680, Note_on_c, 12, 63, 110
15, 133709, Note_on_c, 12, 63, 0
15, 133710, Note_on_c, 12, 64, 110
15, 133739, Note_on_c, 12, 64, 0
15, 133740, Note_on_c, 12, 66, 110
15, 133769, Note_on_c, 12, 66, 0
15, 133770, Note_on_c, 12, 63, 110
15, 133799, Note_on_c, 12, 63, 0
15, 133800, Note_on_c, 12, 59, 110
15, 133859, Note_on_c, 12, 59, 0
15, 133860, Note_on_c, 12, 57, 110
15, 133919, Note_on_c, 12, 57, 0
15, 133920, Note_on_c, 12, 55, 110
15, 133979, Note_on_c, 12, 55, 0
15, 133980, Note_on_c, 12, 63, 110
15, 134099, Note_on_c, 12, 63, 0
15, 134100, Note_on_c, 12, 64, 110
15, 134159, Note_on_c, 12, 64, 0
15, 134160, Note_on_c, 12, 67, 110
15, 134219, Note_on_c, 12, 67, 0
15, 134220, Note_on_c, 12, 66, 110
15, 134339, Note_on_c, 12, 66, 0
15, 134340, Note_on_c, 12, 64, 110
15, 134399, Note_on_c, 12, 64, 0
15, 134400, Note_on_c, 12, 57, 110
15, 134459, Note_on_c, 12, 57, 0
15, 134460, Note_on_c, 12, 63, 110
15, 134579, Note_on_c, 12, 63, 0
15, 134580, Note_on_c, 12, 64, 110
15, 134639, Note_on_c, 12, 64, 0
15, 134640, Note_on_c, 12, 60, 110
15, 134669, Note_on_c, 12, 60, 0
15, 134670, Note_on_c, 12, 59, 110
15, 134699, Note_on_c, 12, 59, 0
15, 134700, Note_on_c, 12, 60, 110
15, 134819, Note_on_c, 12, 60, 0
15, 134820, Note_on_c, 12, 59, 110
15, 134879, Note_on_c, 12, 59, 0
15, 134880, Note_on_c, 12, 69, 110
15, 134939, Note_on_c, 12, 69, 0
15, 134940, Note_on_c, 12, 67, 110
15, 135060, Note_on_c, 12, 67, 0
15, 135060, Note_on_c, 12, 66, 110
15, 135119, Note_on_c, 12, 66, 0
15, 135120, Note_on_c, 12, 67, 110
15, 135179, Note_on_c, 12, 67, 0
15, 135180, Note_on_c, 12, 66, 110
15, 135239, Note_on_c, 12, 66, 0
15, 135240, Note_on_c, 12, 63, 110
15, 135299, Note_on_c, 12, 63, 0
15, 135300, Note_on_c, 12, 64, 110
15, 135359, Note_on_c, 12, 64, 0
15, 135360, Note_on_c, 12, 59, 110
15, 135419, Note_on_c, 12, 59, 0
15, 135420, Note_on_c, 12, 67, 110
15, 135449, Note_on_c, 12, 67, 0
15, 135450, Note_on_c, 12, 66, 110
15, 135479, Note_on_c, 12, 66, 0
15, 135480, Note_on_c, 12, 64, 110
15, 135539, Note_on_c, 12, 64, 0
15, 135540, Note_on_c, 12, 63, 110
15, 135599, Note_on_c, 12, 63, 0
15, 135600, Note_on_c, 12, 64, 110
15, 135719, Note_on_c, 12, 64, 0
15, 137700, Note_on_c, 12, 59, 110
15, 137759, Note_on_c, 12, 59, 0
15, 137760, Note_on_c, 12, 67, 110
15, 137789, Note_on_c, 12, 67, 0
15, 137790, Note_on_c, 12, 66, 110
15, 137819, Note_on_c, 12, 66, 0
15, 137820, Note_on_c, 12, 64, 110
15, 137939, Note_on_c, 12, 64, 0
15, 137940, Note_on_c, 12, 62, 110
15, 137999, Note_on_c, 12, 62, 0
15, 138000, Note_on_c, 12, 61, 110
15, 138029, Note_on_c, 12, 61, 0
15, 138030, Note_on_c, 12, 59, 110
15, 138059, Note_on_c, 12, 59, 0
15, 138060, Note_on_c, 12, 57, 110
15, 138179, Note_on_c, 12, 57, 0
15, 138180, Note_on_c, 12, 67, 110
15, 138239, Note_on_c, 12, 67, 0
15, 138240, Note_on_c, 12, 66, 110
15, 138269, Note_on_c, 12, 66, 0
15, 138270, Note_on_c, 12, 64, 110
15, 138299, Note_on_c, 12, 64, 0
15, 138300, Note_on_c, 12, 62, 110
15, 138419, Note_on_c, 12, 62, 0
15, 138420, Note_on_c, 12, 61, 110
15, 138479, Note_on_c, 12, 61, 0
15, 138480, Note_on_c, 12, 59, 110
15, 138509, Note_on_c, 12, 59, 0
15, 138510, Note_on_c, 12, 58, 110
15, 138539, Note_on_c, 12, 58, 0
15, 138540, Note_on_c, 12, 59, 110
15, 138599, Note_on_c, 12, 59, 0
15, 138660, Note_on_c, 12, 55, 110
15, 138719, Note_on_c, 12, 55, 0
15, 138720, Note_on_c, 12, 64, 110
15, 138749, Note_on_c, 12, 64, 0
15, 138750, Note_on_c, 12, 62, 110
15, 138779, Note_on_c, 12, 62, 0
15, 138780, Note_on_c, 12, 61, 110
15, 138899, Note_on_c, 12, 61, 0
15, 138900, Note_on_c, 12, 59, 110
15, 138959, Note_on_c, 12, 59, 0
15, 138960, Note_on_c, 12, 58, 110
15, 138989, Note_on_c, 12, 58, 0
15, 138990, Note_on_c, 12, 56, 110
15, 139019, Note_on_c, 12, 56, 0
15, 139020, Note_on_c, 12, 54, 110
15, 139139, Note_on_c, 12, 54, 0
15, 139140, Note_on_c, 12, 58, 110
15, 139199, Note_on_c, 12, 58, 0
15, 139200, Note_on_c, 12, 59, 110
15, 139259, Note_on_c, 12, 59, 0
15, 139260, Note_on_c, 12, 67, 110
15, 139319, Note_on_c, 12, 67, 0
15, 139320, Note_on_c, 12, 66, 110
15, 139379, Note_on_c, 12, 66, 0
15, 139380, Note_on_c, 12, 64, 110
15, 139439, Note_on_c, 12, 64, 0
15, 139440, Note_on_c, 12, 62, 110
15, 139469, Note_on_c, 12, 62, 0
15, 139470, Note_on_c, 12, 61, 110
15, 139499, Note_on_c, 12, 61, 0
15, 139500, Note_on_c, 12, 62, 110
15, 139529, Note_on_c, 12, 62, 0
15, 139530, Note_on_c, 12, 61, 110
15, 139559, Note_on_c, 12, 61, 0
15, 139560, Note_on_c, 12, 59, 110
15, 139619, Note_on_c, 12, 59, 0
15, 139620, Note_on_c, 12, 62, 110
15, 139679, Note_on_c, 12, 62, 0
15, 139680, Note_on_c, 12, 62, 110
15, 139739, Note_on_c, 12, 62, 0
15, 139740, Note_on_c, 12, 61, 110
15, 139799, Note_on_c, 12, 61, 0
15, 139860, Note_on_c, 12, 62, 110
15, 139919, Note_on_c, 12, 62, 0
15, 139920, Note_on_c, 12, 63, 110
15, 139979, Note_on_c, 12, 63, 0
15, 139980, Note_on_c, 12, 57, 110
15, 140039, Note_on_c, 12, 57, 0
15, 140040, Note_on_c, 12, 69, 110
15, 140189, Note_on_c, 12, 69, 0
15, 140190, Note_on_c, 12, 66, 110
15, 140219, Note_on_c, 12, 66, 0
15, 140220, Note_on_c, 12, 64, 110
15, 140249, Note_on_c, 12, 64, 0
15, 140250, Note_on_c, 12, 62, 110
15, 140279, Note_on_c, 12, 62, 0
15, 140280, Note_on_c, 12, 66, 110
15, 140339, Note_on_c, 12, 66, 0
15, 140340, Note_on_c, 12, 64, 110
15, 140399, Note_on_c, 12, 64, 0
15, 140400, Note_on_c, 12, 62, 110
15, 140519, Note_on_c, 12, 62, 0
15, 140580, Note_on_c, 12, 60, 110
15, 140639, Note_on_c, 12, 60, 0
15, 140640, Note_on_c, 12, 59, 110
15, 140699, Note_on_c, 12, 59, 0
15, 140700, Note_on_c, 12, 67, 110
15, 140819, Note_on_c, 12, 67, 0
15, 140820, Note_on_c, 12, 66, 110
15, 140879, Note_on_c, 12, 66, 0
15, 140880, Note_on_c, 12, 64, 110
15, 140939, Note_on_c, 12, 64, 0
15, 140940, Note_on_c, 12, 61, 110
15, 140999, Note_on_c, 12, 61, 0
15, 141000, Note_on_c, 12, 62, 110
15, 141059, Note_on_c, 12, 62, 0
15, 141060, Note_on_c, 12, 55, 110
15, 141119, Note_on_c, 12, 55, 0
15, 141120, Note_on_c, 12, 54, 110
15, 141239, Note_on_c, 12, 54, 0
15, 141240, Note_on_c, 12, 52, 110
15, 141255, Note_on_c, 12, 52, 0
15, 141255, Note_on_c, 12, 54, 110
15, 141270, Note_on_c, 12, 54, 0
15, 141270, Note_on_c, 12, 52, 110
15, 141277, Note_on_c, 12, 54, 110
15, 141278, Note_on_c, 12, 52, 0
15, 141285, Note_on_c, 12, 54, 0
15, 141285, Note_on_c, 12, 52, 110
15, 141292, Note_on_c, 12, 54, 110
15, 141293, Note_on_c, 12, 52, 0
15, 141300, Note_on_c, 12, 54, 0
15, 141300, Note_on_c, 12, 52, 110
15, 141307, Note_on_c, 12, 54, 110
15, 141308, Note_on_c, 12, 52, 0
15, 141315, Note_on_c, 12, 54, 0
15, 141315, Note_on_c, 12, 52, 110
15, 141322, Note_on_c, 12, 54, 110
15, 141323, Note_on_c, 12, 52, 0
15, 141330, Note_on_c, 12, 54, 0
15, 141330, Note_on_c, 12, 52, 110
15, 141337, Note_on_c, 12, 54, 110
15, 141338, Note_on_c, 12, 52, 0
15, 141345, Note_on_c, 12, 54, 0
15, 141345, Note_on_c, 12, 52, 110
15, 141360, Note_on_c, 12, 52, 0
15, 141360, Note_on_c, 12, 50, 110
15, 141479, Note_on_c, 12, 50, 0
15, 145380, Note_on_c, 12, 54, 110
15, 145439, Note_on_c, 12, 54, 0
15, 145440, Note_on_c, 12, 59, 110
15, 145499, Note_on_c, 12, 59, 0
15, 145500, Note_on_c, 12, 62, 110
15, 145559, Note_on_c, 12, 62, 0
15, 145560, Note_on_c, 12, 61, 110
15, 145619, Note_on_c, 12, 61, 0
15, 145620, Note_on_c, 12, 58, 110
15, 145679, Note_on_c, 12, 58, 0
15, 145680, Note_on_c, 12, 59, 110
15, 145739, Note_on_c, 12, 59, 0
15, 145740, Note_on_c, 12, 62, 110
15, 145799, Note_on_c, 12, 62, 0
15, 145800, Note_on_c, 12, 61, 110
15, 145859, Note_on_c, 12, 61, 0
15, 145860, Note_on_c, 12, 58, 110
15, 145919, Note_on_c, 12, 58, 0
15, 145920, Note_on_c, 12, 59, 110
15, 145979, Note_on_c, 12, 59, 0
15, 145980, Note_on_c, 12, 67, 110
15, 146039, Note_on_c, 12, 67, 0
15, 146040, Note_on_c, 12, 66, 110
15, 146099, Note_on_c, 12, 66, 0
15, 146100, Note_on_c, 12, 64, 110
15, 146159, Note_on_c, 12, 64, 0
15, 146160, Note_on_c, 12, 62, 110
15, 146189, Note_on_c, 12, 62, 0
15, 146190, Note_on_c, 12, 61, 110
15, 146219, Note_on_c, 12, 61, 0
15, 146220, Note_on_c, 12, 62, 110
15, 146249, Note_on_c, 12, 62, 0
15, 146250, Note_on_c, 12, 61, 110
15, 146279, Note_on_c, 12, 61, 0
15, 146280, Note_on_c, 12, 59, 110
15, 146339, Note_on_c, 12, 59, 0
15, 146340, Note_on_c, 12, 54, 110
15, 146399, Note_on_c, 12, 54, 0
15, 146400, Note_on_c, 12, 59, 110
15, 146459, Note_on_c, 12, 59, 0
15, 146460, Note_on_c, 12, 62, 110
15, 146519, Note_on_c, 12, 62, 0
15, 146520, Note_on_c, 12, 61, 110
15, 146579, Note_on_c, 12, 61, 0
15, 146580, Note_on_c, 12, 58, 110
15, 146639, Note_on_c, 12, 58, 0
15, 146640, Note_on_c, 12, 59, 110
15, 146699, Note_on_c, 12, 59, 0
15, 146700, Note_on_c, 12, 62, 110
15, 146759, Note_on_c, 12, 62, 0
15, 146760, Note_on_c, 12, 61, 110
15, 146819, Note_on_c, 12, 61, 0
15, 146820, Note_on_c, 12, 58, 110
15, 146879, Note_on_c, 12, 58, 0
15, 146880, Note_on_c, 12, 59, 110
15, 146939, Note_on_c, 12, 59, 0
15, 146940, Note_on_c, 12, 67, 110
15, 146999, Note_on_c, 12, 67, 0
15, 147000, Note_on_c, 12, 66, 110
15, 147059, Note_on_c, 12, 66, 0
15, 147060, Note_on_c, 12, 64, 110
15, 147119, Note_on_c, 12, 64, 0
15, 147120, Note_on_c, 12, 62, 110
15, 147149, Note_on_c, 12, 62, 0
15, 147150, Note_on_c, 12, 61, 110
15, 147179, Note_on_c, 12, 61, 0
15, 147180, Note_on_c, 12, 62, 110
15, 147209, Note_on_c, 12, 62, 0
15, 147210, Note_on_c, 12, 61, 110
15, 147239, Note_on_c, 12, 61, 0
15, 147240, Note_on_c, 12, 59, 110
15, 147299, Note_on_c, 12, 59, 0
15, 147300, Note_on_c, 12, 62, 110
15, 147359, Note_on_c, 12, 62, 0
15, 147360, Note_on_c, 12, 62, 110
15, 147419, Note_on_c, 12, 62, 0
15, 147420, Note_on_c, 12, 61, 110
15, 147479, Note_on_c, 12, 61, 0
15, 147540, Note_on_c, 12, 65, 110
15, 147599, Note_on_c, 12, 65, 0
15, 147600, Note_on_c, 12, 65, 110
15, 147659, Note_on_c, 12, 65, 0
15, 147660, Note_on_c, 12, 66, 110
15, 147719, Note_on_c, 12, 66, 0
15, 147780, Note_on_c, 12, 64, 110
15, 147839, Note_on_c, 12, 64, 0
15, 147840, Note_on_c, 12, 62, 110
15, 147899, Note_on_c, 12, 62, 0
15, 147900, Note_on_c, 12, 61, 110
15, 147959, Note_on_c, 12, 61, 0
15, 147960, Note_on_c, 12, 54, 110
15, 148019, Note_on_c, 12, 54, 0
15, 148020, Note_on_c, 12, 56, 110
15, 148079, Note_on_c, 12, 56, 0
15, 148080, Note_on_c, 12, 57, 110
15, 148139, Note_on_c, 12, 57, 0
15, 148140, Note_on_c, 12, 56, 110
15, 148199, Note_on_c, 12, 56, 0
15, 148260, Note_on_c, 12, 59, 110
15, 148319, Note_on_c, 12, 59, 0
15, 148320, Note_on_c, 12, 59, 110
15, 148379, Note_on_c, 12, 59, 0
15, 148380, Note_on_c, 12, 58, 110
15, 148439, Note_on_c, 12, 58, 0
15, 148500, Note_on_c, 12, 61, 110
15, 148559, Note_on_c, 12, 61, 0
15, 148560, Note_on_c, 12, 61, 110
15, 148619, Note_on_c, 12, 61, 0
15, 148620, Note_on_c, 12, 59, 110
15, 148679, Note_on_c, 12, 59, 0
15, 148740, Note_on_c, 12, 63, 110
15, 148799, Note_on_c, 12, 63, 0
15, 148800, Note_on_c, 12, 63, 110
15, 148859, Note_on_c, 12, 63, 0
15, 148860, Note_on_c, 12, 64, 110
15, 148919, Note_on_c, 12, 64, 0
15, 148980, Note_on_c, 12, 52, 110
15, 149039, Note_on_c, 12, 52, 0
15, 149040, Note_on_c, 12, 64, 110
15, 149159, Note_on_c, 12, 64, 0
15, 149220, Note_on_c, 12, 66, 110
15, 149279, Note_on_c, 12, 66, 0
15, 149280, Note_on_c, 12, 59, 110
15, 149339, Note_on_c, 12, 59, 0
15, 149340, Note_on_c, 12, 62, 110
15, 149399, Note_on_c, 12, 62, 0
15, 149400, Note_on_c, 12, 61, 110
15, 149459, Note_on_c, 12, 61, 0
15, 149460, Note_on_c, 12, 58, 110
15, 149519, Note_on_c, 12, 58, 0
15, 149520, Note_on_c, 12, 59, 110
15, 149579, Note_on_c, 12, 59, 0
15, 149580, Note_on_c, 12, 62, 110
15, 149639, Note_on_c, 12, 62, 0
15, 149640, Note_on_c, 12, 61, 110
15, 149699, Note_on_c, 12, 61, 0
15, 149700, Note_on_c, 12, 58, 110
15, 149759, Note_on_c, 12, 58, 0
15, 149760, Note_on_c, 12, 59, 110
15, 149819, Note_on_c, 12, 59, 0
15, 149820, Note_on_c, 12, 67, 110
15, 149879, Note_on_c, 12, 67, 0
15, 149880, Note_on_c, 12, 66, 110
15, 149939, Note_on_c, 12, 66, 0
15, 149940, Note_on_c, 12, 64, 110
15, 149999, Note_on_c, 12, 64, 0
15, 150000, Note_on_c, 12, 62, 110
15, 150029, Note_on_c, 12, 62, 0
15, 150030, Note_on_c, 12, 61, 110
15, 150059, Note_on_c, 12, 61, 0
15, 150060, Note_on_c, 12, 62, 110
15, 150089, Note_on_c, 12, 62, 0
15, 150090, Note_on_c, 12, 61, 110
15, 150119, Note_on_c, 12, 61, 0
15, 150120, Note_on_c, 12, 59, 110
15, 150179, Note_on_c, 12, 59, 0
15, 150180, Note_on_c, 12, 63, 110
15, 150239, Note_on_c, 12, 63, 0
15, 150240, Note_on_c, 12, 64, 110
15, 150299, Note_on_c, 12, 64, 0
15, 150300, Note_on_c, 12, 67, 110
15, 150359, Note_on_c, 12, 67, 0
15, 150360, Note_on_c, 12, 66, 110
15, 150419, Note_on_c, 12, 66, 0
15, 150420, Note_on_c, 12, 63, 110
15, 150479, Note_on_c, 12, 63, 0
15, 150480, Note_on_c, 12, 64, 110
15, 150539, Note_on_c, 12, 64, 0
15, 150540, Note_on_c, 12, 67, 110
15, 150599, Note_on_c, 12, 67, 0
15, 150600, Note_on_c, 12, 66, 110
15, 150659, Note_on_c, 12, 66, 0
15, 150660, Note_on_c, 12, 63, 110
15, 150719, Note_on_c, 12, 63, 0
15, 150720, Note_on_c, 12, 64, 110
15, 150779, Note_on_c, 12, 64, 0
15, 150780, Note_on_c, 12, 62, 110
15, 150809, Note_on_c, 12, 62, 0
15, 150810, Note_on_c, 12, 60, 110
15, 150839, Note_on_c, 12, 60, 0
15, 150840, Note_on_c, 12, 59, 110
15, 150899, Note_on_c, 12, 59, 0
15, 150900, Note_on_c, 12, 57, 110
15, 150959, Note_on_c, 12, 57, 0
15, 150960, Note_on_c, 12, 55, 110
15, 150989, Note_on_c, 12, 55, 0
15, 150990, Note_on_c, 12, 54, 110
15, 151019, Note_on_c, 12, 54, 0
15, 151020, Note_on_c, 12, 55, 110
15, 151049, Note_on_c, 12, 55, 0
15, 151050, Note_on_c, 12, 54, 110
15, 151079, Note_on_c, 12, 54, 0
15, 151080, Note_on_c, 12, 52, 110
15, 151139, Note_on_c, 12, 52, 0
15, 151140, Note_on_c, 12, 55, 110
15, 151199, Note_on_c, 12, 55, 0
15, 151200, Note_on_c, 12, 55, 110
15, 151259, Note_on_c, 12, 55, 0
15, 151260, Note_on_c, 12, 54, 110
15, 151319, Note_on_c, 12, 54, 0
15, 151380, Note_on_c, 12, 58, 110
15, 151439, Note_on_c, 12, 58, 0
15, 151440, Note_on_c, 12, 58, 110
15, 151499, Note_on_c, 12, 58, 0
15, 151500, Note_on_c, 12, 59, 110
15, 151559, Note_on_c, 12, 59, 0
15, 151620, Note_on_c, 12, 62, 110
15, 151679, Note_on_c, 12, 62, 0
15, 151680, Note_on_c, 12, 62, 110
15, 151739, Note_on_c, 12, 62, 0
15, 151740, Note_on_c, 12, 61, 110
15, 151799, Note_on_c, 12, 61, 0
15, 151860, Note_on_c, 12, 65, 110
15, 151919, Note_on_c, 12, 65, 0
15, 151920, Note_on_c, 12, 66, 110
15, 151979, Note_on_c, 12, 66, 0
15, 151980, Note_on_c, 12, 54, 110
15, 152039, Note_on_c, 12, 54, 0
15, 152040, Note_on_c, 12, 66, 110
15, 152159, Note_on_c, 12, 66, 0
15, 152220, Note_on_c, 12, 54, 110
15, 152279, Note_on_c, 12, 54, 0
15, 152280, Note_on_c, 12, 66, 110
15, 152399, Note_on_c, 12, 66, 0
15, 152460, Note_on_c, 12, 54, 110
15, 152519, Note_on_c, 12, 54, 0
15, 152520, Note_on_c, 12, 66, 110
15, 152639, Note_on_c, 12, 66, 0
15, 152700, Note_on_c, 12, 54, 110
15, 152759, Note_on_c, 12, 54, 0
15, 152760, Note_on_c, 12, 66, 110
15, 153060, Note_on_c, 12, 66, 0
15, 153060, Note_on_c, 12, 61, 110
15, 153119, Note_on_c, 12, 61, 0
15, 153120, Note_on_c, 12, 62, 110
15, 153179, Note_on_c, 12, 62, 0
15, 153180, Note_on_c, 12, 67, 110
15, 153239, Note_on_c, 12, 67, 0
15, 153240, Note_on_c, 12, 66, 110
15, 153299, Note_on_c, 12, 66, 0
15, 153300, Note_on_c, 12, 65, 110
15, 153359, Note_on_c, 12, 65, 0
15, 153360, Note_on_c, 12, 66, 110
15, 153419, Note_on_c, 12, 66, 0
15, 153420, Note_on_c, 12, 61, 110
15, 153479, Note_on_c, 12, 61, 0
15, 153480, Note_on_c, 12, 62, 110
15, 153539, Note_on_c, 12, 62, 0
15, 153540, Note_on_c, 12, 59, 110
15, 153599, Note_on_c, 12, 59, 0
15, 153600, Note_on_c, 12, 62, 110
15, 153659, Note_on_c, 12, 62, 0
15, 153660, Note_on_c, 12, 61, 110
15, 153719, Note_on_c, 12, 61, 0
15, 153720, Note_on_c, 12, 59, 110
15, 153779, Note_on_c, 12, 59, 0
15, 153780, Note_on_c, 12, 58, 110
15, 153839, Note_on_c, 12, 58, 0
15, 153840, Note_on_c, 12, 59, 110
15, 153959, Note_on_c, 12, 59, 0
15, 154020, Note_on_c, 12, 54, 110
15, 154079, Note_on_c, 12, 54, 0
15, 154080, Note_on_c, 12, 54, 110
15, 154139, Note_on_c, 12, 54, 0
15, 154140, Note_on_c, 12, 53, 110
15, 154199, Note_on_c, 12, 53, 0
15, 154260, Note_on_c, 12, 62, 110
15, 154319, Note_on_c, 12, 62, 0
15, 154320, Note_on_c, 12, 62, 110
15, 154439, Note_on_c, 12, 62, 0
15, 154500, Note_on_c, 12, 61, 110
15, 154559, Note_on_c, 12, 61, 0
15, 154560, Note_on_c, 12, 62, 110
15, 154589, Note_on_c, 12, 62, 0
15, 154590, Note_on_c, 12, 67, 110
15, 154619, Note_on_c, 12, 67, 0
15, 154620, Note_on_c, 12, 66, 110
15, 154649, Note_on_c, 12, 66, 0
15, 154650, Note_on_c, 12, 64, 110
15, 154679, Note_on_c, 12, 64, 0
15, 154680, Note_on_c, 12, 62, 110
15, 154739, Note_on_c, 12, 62, 0
15, 154740, Note_on_c, 12, 61, 110
15, 154799, Note_on_c, 12, 61, 0
15, 154800, Note_on_c, 12, 59, 110
15, 154919, Note_on_c, 12, 59, 0
15, 159360, Control_c, 12, 0, 30
15, 159360, Program_c, 12, 57
15, 159420, Note_on_c, 12, 61, 110
15, 159479, Note_on_c, 12, 61, 0
15, 159480, Note_on_c, 12, 66, 110
15, 159539, Note_on_c, 12, 66, 0
15, 159540, Note_on_c, 12, 61, 110
15, 159599, Note_on_c, 12, 61, 0
15, 159600, Note_on_c, 12, 58, 110
15, 159659, Note_on_c, 12, 58, 0
15, 159660, Note_on_c, 12, 54, 110
15, 159719, Note_on_c, 12, 54, 0
15, 159720, Note_on_c, 12, 64, 110
15, 159749, Note_on_c, 12, 64, 0
15, 159750, Note_on_c, 12, 62, 110
15, 159779, Note_on_c, 12, 62, 0
15, 159780, Note_on_c, 12, 64, 110
15, 159839, Note_on_c, 12, 64, 0
15, 159840, Note_on_c, 12, 62, 110
15, 160680, Note_on_c, 12, 62, 0
15, 160860, Note_on_c, 12, 64, 110
15, 160919, Note_on_c, 12, 64, 0
15, 160920, Note_on_c, 12, 69, 110
15, 160979, Note_on_c, 12, 69, 0
15, 160980, Note_on_c, 12, 64, 110
15, 161039, Note_on_c, 12, 64, 0
15, 161040, Note_on_c, 12, 61, 110
15, 161099, Note_on_c, 12, 61, 0
15, 161100, Note_on_c, 12, 57, 110
15, 161159, Note_on_c, 12, 57, 0
15, 161160, Note_on_c, 12, 67, 110
15, 161189, Note_on_c, 12, 67, 0
15, 161190, Note_on_c, 12, 66, 110
15, 161219, Note_on_c, 12, 66, 0
15, 161220, Note_on_c, 12, 67, 110
15, 161279, Note_on_c, 12, 67, 0
15, 161280, Note_on_c, 12, 66, 110
15, 161759, Note_on_c, 12, 66, 0
15, 161820, Note_on_c, 12, 62, 110
15, 161879, Note_on_c, 12, 62, 0
15, 161880, Note_on_c, 12, 64, 110
15, 161939, Note_on_c, 12, 64, 0
15, 161940, Note_on_c, 12, 67, 110
15, 161999, Note_on_c, 12, 67, 0
15, 162000, Note_on_c, 12, 57, 110
15, 162119, Note_on_c, 12, 57, 0
15, 162120, Note_on_c, 12, 57, 110
15, 162239, Note_on_c, 12, 57, 0
15, 162300, Note_on_c, 12, 62, 110
15, 162419, Note_on_c, 12, 62, 0
15, 162420, Note_on_c, 12, 64, 110
15, 162449, Note_on_c, 12, 64, 0
15, 162450, Note_on_c, 12, 65, 110
15, 162479, Note_on_c, 12, 65, 0
15, 162480, Note_on_c, 12, 65, 110
15, 162539, Note_on_c, 12, 65, 0
15, 162540, Note_on_c, 12, 64, 110
15, 162599, Note_on_c, 12, 64, 0
15, 169200, Program_c, 12, 52
15, 169320, Note_on_c, 12, 57, 110
15, 169439, Note_on_c, 12, 57, 0
15, 169440, Note_on_c, 12, 59, 110
15, 169499, Note_on_c, 12, 59, 0
15, 169500, Note_on_c, 12, 61, 110
15, 169559, Note_on_c, 12, 61, 0
15, 169560, Note_on_c, 12, 62, 110
15, 169679, Note_on_c, 12, 62, 0
15, 169680, Note_on_c, 12, 55, 110
15, 169799, Note_on_c, 12, 55, 0
15, 169800, Note_on_c, 12, 57, 110
15, 169919, Note_on_c, 12, 57, 0
15, 169920, Note_on_c, 12, 59, 110
15, 169979, Note_on_c, 12, 59, 0
15, 169980, Note_on_c, 12, 55, 110
15, 170039, Note_on_c, 12, 55, 0
15, 170040, Note_on_c, 12, 52, 110
15, 170099, Note_on_c, 12, 52, 0
15, 170100, Note_on_c, 12, 57, 110
15, 170159, Note_on_c, 12, 57, 0
15, 170160, Note_on_c, 12, 57, 110
15, 170279, Note_on_c, 12, 57, 0
15, 171240, Note_on_c, 12, 66, 110
15, 171359, Note_on_c, 12, 66, 0
15, 171360, Note_on_c, 12, 66, 110
15, 171479, Note_on_c, 12, 66, 0
15, 171480, Note_on_c, 12, 62, 110
15, 171539, Note_on_c, 12, 62, 0
15, 171540, Note_on_c, 12, 66, 110
15, 171599, Note_on_c, 12, 66, 0
15, 171600, Note_on_c, 12, 67, 110
15, 171659, Note_on_c, 12, 67, 0
15, 171660, Note_on_c, 12, 64, 110
15, 171719, Note_on_c, 12, 64, 0
15, 171720, Note_on_c, 12, 66, 110
15, 171779, Note_on_c, 12, 66, 0
15, 171780, Note_on_c, 12, 61, 110
15, 171839, Note_on_c, 12, 61, 0
15, 171840, Note_on_c, 12, 62, 110
15, 171959, Note_on_c, 12, 62, 0
15, 177960, Note_on_c, 12, 57, 110
15, 178079, Note_on_c, 12, 57, 0
15, 178080, Note_on_c, 12, 59, 110
15, 178139, Note_on_c, 12, 59, 0
15, 178140, Note_on_c, 12, 61, 110
15, 178199, Note_on_c, 12, 61, 0
15, 178200, Note_on_c, 12, 62, 110
15, 178319, Note_on_c, 12, 62, 0
15, 178320, Note_on_c, 12, 55, 110
15, 178439, Note_on_c, 12, 55, 0
15, 178440, Note_on_c, 12, 57, 110
15, 178559, Note_on_c, 12, 57, 0
15, 178560, Note_on_c, 12, 59, 110
15, 178619, Note_on_c, 12, 59, 0
15, 178620, Note_on_c, 12, 55, 110
15, 178679, Note_on_c, 12, 55, 0
15, 178680, Note_on_c, 12, 52, 110
15, 178739, Note_on_c, 12, 52, 0
15, 178740, Note_on_c, 12, 57, 110
15, 178799, Note_on_c, 12, 57, 0
15, 178800, Note_on_c, 12, 57, 110
15, 178919, Note_on_c, 12, 57, 0
15, 179880, Note_on_c, 12, 66, 110
15, 179999, Note_on_c, 12, 66, 0
15, 180000, Note_on_c, 12, 66, 110
15, 180119, Note_on_c, 12, 66, 0
15, 180120, Note_on_c, 12, 62, 110
15, 180179, Note_on_c, 12, 62, 0
15, 180180, Note_on_c, 12, 66, 110
15, 180239, Note_on_c, 12, 66, 0
15, 180240, Note_on_c, 12, 67, 110
15, 180299, Note_on_c, 12, 67, 0
15, 180300, Note_on_c, 12, 64, 110
15, 180359, Note_on_c, 12, 64, 0
15, 180360, Note_on_c, 12, 66, 110
15, 180419, Note_on_c, 12, 66, 0
15, 180420, Note_on_c, 12, 61, 110
15, 180479, Note_on_c, 12, 61, 0
15, 180480, Note_on_c, 12, 62, 110
15, 180599, Note_on_c, 12, 62, 0
15, 182760, Note_on_c, 12, 64, 110
15, 182879, Note_on_c, 12, 64, 0
15, 182880, Note_on_c, 12, 64, 110
15, 182999, Note_on_c, 12, 64, 0
15, 183000, Note_on_c, 12, 62, 110
15, 183119, Note_on_c, 12, 62, 0
15, 183120, Note_on_c, 12, 62, 110
15, 183239, Note_on_c, 12, 62, 0
15, 183240, Note_on_c, 12, 64, 110
15, 183300, Note_on_c, 12, 64, 0
15, 183300, Note_on_c, 12, 61, 110
15, 183360, Note_on_c, 12, 61, 0
15, 183360, Note_on_c, 12, 66, 110
15, 183540, Note_on_c, 12, 66, 0
15, 183540, Note_on_c, 12, 59, 110
15, 183600, Note_on_c, 12, 59, 0
15, 183600, Note_on_c, 12, 66, 110
15, 183720, Note_on_c, 12, 66, 0
15, 184440, Note_on_c, 12, 62, 110
15, 184559, Note_on_c, 12, 62, 0
15, 184560, Note_on_c, 12, 62, 110
15, 184679, Note_on_c, 12, 62, 0
15, 184680, Note_on_c, 12, 62, 110
15, 184799, Note_on_c, 12, 62, 0
15, 184800, Note_on_c, 12, 59, 110
15, 184919, Note_on_c, 12, 59, 0
15, 184920, Note_on_c, 12, 59, 110
15, 184979, Note_on_c, 12, 59, 0
15, 184980, Note_on_c, 12, 58, 110
15, 185039, Note_on_c, 12, 58, 0
15, 185040, Note_on_c, 12, 58, 110
15, 185159, Note_on_c, 12, 58, 0
15, 186600, Note_on_c, 12, 64, 110
15, 186719, Note_on_c, 12, 64, 0
15, 186720, Note_on_c, 12, 64, 110
15, 186900, Note_on_c, 12, 64, 0
15, 186900, Note_on_c, 12, 59, 110
15, 186959, Note_on_c, 12, 59, 0
15, 186960, Note_on_c, 12, 57, 110
15, 187140, Note_on_c, 12, 57, 0
15, 187140, Note_on_c, 12, 57, 110
15, 187199, Note_on_c, 12, 57, 0
15, 187200, Note_on_c, 12, 57, 110
15, 187259, Note_on_c, 12, 57, 0
15, 187260, Note_on_c, 12, 59, 110
15, 187319, Note_on_c, 12, 59, 0
15, 187320, Note_on_c, 12, 56, 110
15, 187439, Note_on_c, 12, 56, 0
15, 187440, Note_on_c, 12, 57, 110
15, 187559, Note_on_c, 12, 57, 0
15, 189960, Note_on_c, 12, 62, 110
15, 190080, Note_on_c, 12, 62, 0
15, 190080, Note_on_c, 12, 62, 110
15, 190139, Note_on_c, 12, 62, 0
15, 190140, Note_on_c, 12, 61, 110
15, 190170, Note_on_c, 12, 61, 0
15, 190170, Note_on_c, 12, 59, 110
15, 190200, Note_on_c, 12, 59, 0
15, 190200, Note_on_c, 12, 57, 110
15, 190320, Note_on_c, 12, 57, 0
15, 190320, Note_on_c, 12, 57, 110
15, 190440, Note_on_c, 12, 57, 0
15, 190440, Note_on_c, 12, 57, 110
15, 190560, Note_on_c, 12, 57, 0
15, 190560, Note_on_c, 12, 57, 110
15, 191040, Note_on_c, 12, 57, 0
15, 191040, End_track
16, 0, Start_track
16, 0, MIDI_port, 0
16, 0, Title_t, "Basso"
16, 0, Program_c, 13, 52
16, 0, Control_c, 13, 7, 127
16, 0, Control_c, 13, 10, 125
16, 10920, Note_on_c, 13, 50, 110
16, 10979, Note_on_c, 13, 50, 0
16, 10980, Note_on_c, 13, 57, 110
16, 11099, Note_on_c, 13, 57, 0
16, 11100, Note_on_c, 13, 52, 110
16, 11159, Note_on_c, 13, 52, 0
16, 11160, Note_on_c, 13, 59, 110
16, 11279, Note_on_c, 13, 59, 0
16, 11280, Note_on_c, 13, 52, 110
16, 11339, Note_on_c, 13, 52, 0
16, 11340, Note_on_c, 13, 61, 110
16, 11399, Note_on_c, 13, 61, 0
16, 11400, Note_on_c, 13, 59, 110
16, 11429, Note_on_c, 13, 59, 0
16, 11430, Note_on_c, 13, 61, 110
16, 11459, Note_on_c, 13, 61, 0
16, 11460, Note_on_c, 13, 62, 110
16, 11489, Note_on_c, 13, 62, 0
16, 11490, Note_on_c, 13, 59, 110
16, 11519, Note_on_c, 13, 59, 0
16, 11520, Note_on_c, 13, 62, 110
16, 11549, Note_on_c, 13, 62, 0
16, 11550, Note_on_c, 13, 61, 110
16, 11579, Note_on_c, 13, 61, 0
16, 11580, Note_on_c, 13, 59, 110
16, 11609, Note_on_c, 13, 59, 0
16, 11610, Note_on_c, 13, 57, 110
16, 11639, Note_on_c, 13, 57, 0
16, 11640, Note_on_c, 13, 61, 110
16, 11669, Note_on_c, 13, 61, 0
16, 11670, Note_on_c, 13, 57, 110
16, 11699, Note_on_c, 13, 57, 0
16, 11700, Note_on_c, 13, 59, 110
16, 11729, Note_on_c, 13, 59, 0
16, 11730, Note_on_c, 13, 57, 110
16, 11759, Note_on_c, 13, 57, 0
16, 11760, Note_on_c, 13, 55, 110
16, 11789, Note_on_c, 13, 55, 0
16, 11790, Note_on_c, 13, 54, 110
16, 11819, Note_on_c, 13, 54, 0
16, 11820, Note_on_c, 13, 57, 110
16, 11849, Note_on_c, 13, 57, 0
16, 11850, Note_on_c, 13, 54, 110
16, 11879, Note_on_c, 13, 54, 0
16, 11880, Note_on_c, 13, 57, 110
16, 11909, Note_on_c, 13, 57, 0
16, 11910, Note_on_c, 13, 55, 110
16, 11939, Note_on_c, 13, 55, 0
16, 11940, Note_on_c, 13, 54, 110
16, 11969, Note_on_c, 13, 54, 0
16, 11970, Note_on_c, 13, 52, 110
16, 11999, Note_on_c, 13, 52, 0
16, 12000, Note_on_c, 13, 55, 110
16, 12029, Note_on_c, 13, 55, 0
16, 12030, Note_on_c, 13, 52, 110
16, 12059, Note_on_c, 13, 52, 0
16, 12060, Note_on_c, 13, 57, 110
16, 12119, Note_on_c, 13, 57, 0
16, 12120, Note_on_c, 13, 55, 110
16, 12149, Note_on_c, 13, 55, 0
16, 12150, Note_on_c, 13, 54, 110
16, 12179, Note_on_c, 13, 54, 0
16, 12180, Note_on_c, 13, 52, 110
16, 12209, Note_on_c, 13, 52, 0
16, 12210, Note_on_c, 13, 54, 110
16, 12239, Note_on_c, 13, 54, 0
16, 12240, Note_on_c, 13, 50, 110
16, 12299, Note_on_c, 13, 50, 0
16, 12300, Note_on_c, 13, 50, 110
16, 12359, Note_on_c, 13, 50, 0
16, 14520, Note_on_c, 13, 50, 110
16, 14579, Note_on_c, 13, 50, 0
16, 14580, Note_on_c, 13, 57, 110
16, 14699, Note_on_c, 13, 57, 0
16, 14700, Note_on_c, 13, 52, 110
16, 14759, Note_on_c, 13, 52, 0
16, 14760, Note_on_c, 13, 59, 110
16, 14879, Note_on_c, 13, 59, 0
16, 14880, Note_on_c, 13, 52, 110
16, 14939, Note_on_c, 13, 52, 0
16, 14940, Note_on_c, 13, 61, 110
16, 14999, Note_on_c, 13, 61, 0
16, 15000, Note_on_c, 13, 59, 110
16, 15029, Note_on_c, 13, 59, 0
16, 15030, Note_on_c, 13, 61, 110
16, 15059, Note_on_c, 13, 61, 0
16, 15060, Note_on_c, 13, 62, 110
16, 15089, Note_on_c, 13, 62, 0
16, 15090, Note_on_c, 13, 59, 110
16, 15119, Note_on_c, 13, 59, 0
16, 15120, Note_on_c, 13, 62, 110
16, 15149, Note_on_c, 13, 62, 0
16, 15150, Note_on_c, 13, 61, 110
16, 15179, Note_on_c, 13, 61, 0
16, 15180, Note_on_c, 13, 59, 110
16, 15209, Note_on_c, 13, 59, 0
16, 15210, Note_on_c, 13, 57, 110
16, 15239, Note_on_c, 13, 57, 0
16, 15240, Note_on_c, 13, 61, 110
16, 15269, Note_on_c, 13, 61, 0
16, 15270, Note_on_c, 13, 57, 110
16, 15299, Note_on_c, 13, 57, 0
16, 15300, Note_on_c, 13, 59, 110
16, 15329, Note_on_c, 13, 59, 0
16, 15330, Note_on_c, 13, 57, 110
16, 15359, Note_on_c, 13, 57, 0
16, 15360, Note_on_c, 13, 55, 110
16, 15389, Note_on_c, 13, 55, 0
16, 15390, Note_on_c, 13, 54, 110
16, 15419, Note_on_c, 13, 54, 0
16, 15420, Note_on_c, 13, 57, 110
16, 15449, Note_on_c, 13, 57, 0
16, 15450, Note_on_c, 13, 54, 110
16, 15479, Note_on_c, 13, 54, 0
16, 15480, Note_on_c, 13, 57, 110
16, 15509, Note_on_c, 13, 57, 0
16, 15510, Note_on_c, 13, 55, 110
16, 15539, Note_on_c, 13, 55, 0
16, 15540, Note_on_c, 13, 54, 110
16, 15569, Note_on_c, 13, 54, 0
16, 15570, Note_on_c, 13, 52, 110
16, 15599, Note_on_c, 13, 52, 0
16, 15600, Note_on_c, 13, 55, 110
16, 15629, Note_on_c, 13, 55, 0
16, 15630, Note_on_c, 13, 52, 110
16, 15659, Note_on_c, 13, 52, 0
16, 15660, Note_on_c, 13, 57, 110
16, 15719, Note_on_c, 13, 57, 0
16, 15720, Note_on_c, 13, 55, 110
16, 15749, Note_on_c, 13, 55, 0
16, 15750, Note_on_c, 13, 54, 110
16, 15779, Note_on_c, 13, 54, 0
16, 15780, Note_on_c, 13, 52, 110
16, 15809, Note_on_c, 13, 52, 0
16, 15810, Note_on_c, 13, 54, 110
16, 15839, Note_on_c, 13, 54, 0
16, 15840, Note_on_c, 13, 50, 110
16, 15899, Note_on_c, 13, 50, 0
16, 15900, Note_on_c, 13, 50, 110
16, 15959, Note_on_c, 13, 50, 0
16, 15960, Note_on_c, 13, 49, 110
16, 16019, Note_on_c, 13, 49, 0
16, 16020, Note_on_c, 13, 50, 110
16, 16139, Note_on_c, 13, 50, 0
16, 16140, Note_on_c, 13, 59, 110
16, 16199, Note_on_c, 13, 59, 0
16, 16200, Note_on_c, 13, 49, 110
16, 16319, Note_on_c, 13, 49, 0
16, 16320, Note_on_c, 13, 57, 110
16, 16379, Note_on_c, 13, 57, 0
16, 16380, Note_on_c, 13, 47, 110
16, 16439, Note_on_c, 13, 47, 0
16, 16440, Note_on_c, 13, 49, 110
16, 16499, Note_on_c, 13, 49, 0
16, 16500, Note_on_c, 13, 50, 110
16, 16559, Note_on_c, 13, 50, 0
16, 16560, Note_on_c, 13, 49, 110
16, 16589, Note_on_c, 13, 49, 0
16, 16590, Note_on_c, 13, 47, 110
16, 16619, Note_on_c, 13, 47, 0
16, 16620, Note_on_c, 13, 49, 110
16, 16649, Note_on_c, 13, 49, 0
16, 16650, Note_on_c, 13, 50, 110
16, 16679, Note_on_c, 13, 50, 0
16, 16680, Note_on_c, 13, 52, 110
16, 16739, Note_on_c, 13, 52, 0
16, 16740, Note_on_c, 13, 45, 110
16, 16799, Note_on_c, 13, 45, 0
16, 16800, Note_on_c, 13, 50, 110
16, 16829, Note_on_c, 13, 50, 0
16, 16830, Note_on_c, 13, 49, 110
16, 16859, Note_on_c, 13, 49, 0
16, 16860, Note_on_c, 13, 50, 110
16, 16919, Note_on_c, 13, 50, 0
16, 16920, Note_on_c, 13, 50, 110
16, 16979, Note_on_c, 13, 50, 0
16, 16980, Note_on_c, 13, 49, 110
16, 17009, Note_on_c, 13, 49, 0
16, 17010, Note_on_c, 13, 47, 110
16, 17039, Note_on_c, 13, 47, 0
16, 17040, Note_on_c, 13, 49, 110
16, 17159, Note_on_c, 13, 49, 0
16, 17160, Note_on_c, 13, 47, 110
16, 17219, Note_on_c, 13, 47, 0
16, 17220, Note_on_c, 13, 45, 110
16, 17279, Note_on_c, 13, 45, 0
16, 17280, Note_on_c, 13, 52, 110
16, 17399, Note_on_c, 13, 52, 0
16, 17400, Note_on_c, 13, 50, 110
16, 17459, Note_on_c, 13, 50, 0
16, 17460, Note_on_c, 13, 49, 110
16, 17489, Note_on_c, 13, 49, 0
16, 17490, Note_on_c, 13, 47, 110
16, 17519, Note_on_c, 13, 47, 0
16, 17520, Note_on_c, 13, 49, 110
16, 17549, Note_on_c, 13, 49, 0
16, 17550, Note_on_c, 13, 50, 110
16, 17579, Note_on_c, 13, 50, 0
16, 17580, Note_on_c, 13, 52, 110
16, 17639, Note_on_c, 13, 52, 0
16, 17640, Note_on_c, 13, 45, 110
16, 17699, Note_on_c, 13, 45, 0
16, 17700, Note_on_c, 13, 57, 110
16, 17759, Note_on_c, 13, 57, 0
16, 17760, Note_on_c, 13, 55, 110
16, 17819, Note_on_c, 13, 55, 0
16, 17820, Note_on_c, 13, 54, 110
16, 17849, Note_on_c, 13, 54, 0
16, 17850, Note_on_c, 13, 52, 110
16, 17879, Note_on_c, 13, 52, 0
16, 17880, Note_on_c, 13, 54, 110
16, 17909, Note_on_c, 13, 54, 0
16, 17910, Note_on_c, 13, 55, 110
16, 17939, Note_on_c, 13, 55, 0
16, 17940, Note_on_c, 13, 57, 110
16, 17999, Note_on_c, 13, 57, 0
16, 18000, Note_on_c, 13, 50, 110
16, 18119, Note_on_c, 13, 50, 0
16, 18120, Note_on_c, 13, 57, 110
16, 18179, Note_on_c, 13, 57, 0
16, 18180, Note_on_c, 13, 59, 110
16, 18239, Note_on_c, 13, 59, 0
16, 18240, Note_on_c, 13, 64, 110
16, 18269, Note_on_c, 13, 64, 0
16, 18270, Note_on_c, 13, 62, 110
16, 18299, Note_on_c, 13, 62, 0
16, 18300, Note_on_c, 13, 60, 110
16, 18329, Note_on_c, 13, 60, 0
16, 18330, Note_on_c, 13, 59, 110
16, 18359, Note_on_c, 13, 59, 0
16, 18360, Note_on_c, 13, 57, 110
16, 18419, Note_on_c, 13, 57, 0
16, 18420, Note_on_c, 13, 62, 110
16, 18449, Note_on_c, 13, 62, 0
16, 18450, Note_on_c, 13, 60, 110
16, 18479, Note_on_c, 13, 60, 0
16, 18480, Note_on_c, 13, 59, 110
16, 18509, Note_on_c, 13, 59, 0
16, 18510, Note_on_c, 13, 57, 110
16, 18539, Note_on_c, 13, 57, 0
16, 18540, Note_on_c, 13, 55, 110
16, 18599, Note_on_c, 13, 55, 0
16, 18600, Note_on_c, 13, 60, 110
16, 18659, Note_on_c, 13, 60, 0
16, 18660, Note_on_c, 13, 59, 110
16, 18719, Note_on_c, 13, 59, 0
16, 18720, Note_on_c, 13, 57, 110
16, 18959, Note_on_c, 13, 57, 0
16, 18960, Note_on_c, 13, 50, 110
16, 19019, Note_on_c, 13, 50, 0
16, 19020, Note_on_c, 13, 59, 110
16, 19139, Note_on_c, 13, 59, 0
16, 19140, Note_on_c, 13, 49, 110
16, 19199, Note_on_c, 13, 49, 0
16, 19200, Note_on_c, 13, 57, 110
16, 19289, Note_on_c, 13, 57, 0
16, 19290, Note_on_c, 13, 55, 110
16, 19319, Note_on_c, 13, 55, 0
16, 19320, Note_on_c, 13, 54, 110
16, 19349, Note_on_c, 13, 54, 0
16, 19350, Note_on_c, 13, 52, 110
16, 19379, Note_on_c, 13, 52, 0
16, 19380, Note_on_c, 13, 54, 110
16, 19409, Note_on_c, 13, 54, 0
16, 19410, Note_on_c, 13, 50, 110
16, 19439, Note_on_c, 13, 50, 0
16, 19440, Note_on_c, 13, 57, 110
16, 19499, Note_on_c, 13, 57, 0
16, 19500, Note_on_c, 13, 57, 110
16, 19559, Note_on_c, 13, 57, 0
16, 19560, Note_on_c, 13, 45, 110
16, 19619, Note_on_c, 13, 45, 0
16, 19620, Note_on_c, 13, 50, 110
16, 19679, Note_on_c, 13, 50, 0
16, 19680, Note_on_c, 13, 55, 110
16, 19709, Note_on_c, 13, 55, 0
16, 19710, Note_on_c, 13, 54, 110
16, 19739, Note_on_c, 13, 54, 0
16, 19740, Note_on_c, 13, 55, 110
16, 19799, Note_on_c, 13, 55, 0
16, 19800, Note_on_c, 13, 55, 110
16, 19859, Note_on_c, 13, 55, 0
16, 19860, Note_on_c, 13, 54, 110
16, 19889, Note_on_c, 13, 54, 0
16, 19890, Note_on_c, 13, 52, 110
16, 19919, Note_on_c, 13, 52, 0
16, 19920, Note_on_c, 13, 54, 110
16, 19979, Note_on_c, 13, 54, 0
16, 19980, Note_on_c, 13, 54, 110
16, 20039, Note_on_c, 13, 54, 0
16, 20040, Note_on_c, 13, 52, 110
16, 20099, Note_on_c, 13, 52, 0
16, 20100, Note_on_c, 13, 50, 110
16, 20159, Note_on_c, 13, 50, 0
16, 20160, Note_on_c, 13, 57, 110
16, 20219, Note_on_c, 13, 57, 0
16, 20220, Note_on_c, 13, 49, 110
16, 20279, Note_on_c, 13, 49, 0
16, 20280, Note_on_c, 13, 45, 110
16, 20339, Note_on_c, 13, 45, 0
16, 20340, Note_on_c, 13, 50, 110
16, 20369, Note_on_c, 13, 50, 0
16, 20370, Note_on_c, 13, 49, 110
16, 20399, Note_on_c, 13, 49, 0
16, 20400, Note_on_c, 13, 54, 110
16, 20429, Note_on_c, 13, 54, 0
16, 20430, Note_on_c, 13, 52, 110
16, 20459, Note_on_c, 13, 52, 0
16, 20460, Note_on_c, 13, 50, 110
16, 20489, Note_on_c, 13, 50, 0
16, 20490, Note_on_c, 13, 49, 110
16, 20519, Note_on_c, 13, 49, 0
16, 20520, Note_on_c, 13, 50, 110
16, 20549, Note_on_c, 13, 50, 0
16, 20550, Note_on_c, 13, 47, 110
16, 20579, Note_on_c, 13, 47, 0
16, 20580, Note_on_c, 13, 52, 110
16, 20609, Note_on_c, 13, 52, 0
16, 20610, Note_on_c, 13, 50, 110
16, 20639, Note_on_c, 13, 50, 0
16, 20640, Note_on_c, 13, 49, 110
16, 20669, Note_on_c, 13, 49, 0
16, 20670, Note_on_c, 13, 47, 110
16, 20699, Note_on_c, 13, 47, 0
16, 20700, Note_on_c, 13, 45, 110
16, 20759, Note_on_c, 13, 45, 0
16, 20760, Note_on_c, 13, 50, 110
16, 20819, Note_on_c, 13, 50, 0
16, 20820, Note_on_c, 13, 52, 110
16, 20879, Note_on_c, 13, 52, 0
16, 20880, Note_on_c, 13, 45, 110
16, 20939, Note_on_c, 13, 45, 0
16, 21720, Note_on_c, 13, 52, 110
16, 21779, Note_on_c, 13, 52, 0
16, 21780, Note_on_c, 13, 57, 110
16, 21899, Note_on_c, 13, 57, 0
16, 21900, Note_on_c, 13, 57, 110
16, 21959, Note_on_c, 13, 57, 0
16, 21960, Note_on_c, 13, 57, 110
16, 22019, Note_on_c, 13, 57, 0
16, 22020, Note_on_c, 13, 54, 110
16, 22049, Note_on_c, 13, 54, 0
16, 22050, Note_on_c, 13, 55, 110
16, 22079, Note_on_c, 13, 55, 0
16, 22080, Note_on_c, 13, 57, 110
16, 22139, Note_on_c, 13, 57, 0
16, 22140, Note_on_c, 13, 51, 110
16, 22199, Note_on_c, 13, 51, 0
16, 22200, Note_on_c, 13, 52, 110
16, 22259, Note_on_c, 13, 52, 0
16, 22260, Note_on_c, 13, 54, 110
16, 22319, Note_on_c, 13, 54, 0
16, 22320, Note_on_c, 13, 57, 110
16, 22349, Note_on_c, 13, 57, 0
16, 22350, Note_on_c, 13, 55, 110
16, 22379, Note_on_c, 13, 55, 0
16, 22380, Note_on_c, 13, 59, 110
16, 22409, Note_on_c, 13, 59, 0
16, 22410, Note_on_c, 13, 57, 110
16, 22439, Note_on_c, 13, 57, 0
16, 22440, Note_on_c, 13, 55, 110
16, 22469, Note_on_c, 13, 55, 0
16, 22470, Note_on_c, 13, 54, 110
16, 22499, Note_on_c, 13, 54, 0
16, 22500, Note_on_c, 13, 59, 110
16, 22529, Note_on_c, 13, 59, 0
16, 22530, Note_on_c, 13, 58, 110
16, 22559, Note_on_c, 13, 58, 0
16, 22560, Note_on_c, 13, 61, 110
16, 22589, Note_on_c, 13, 61, 0
16, 22590, Note_on_c, 13, 59, 110
16, 22619, Note_on_c, 13, 59, 0
16, 22620, Note_on_c, 13, 58, 110
16, 22649, Note_on_c, 13, 58, 0
16, 22650, Note_on_c, 13, 56, 110
16, 22679, Note_on_c, 13, 56, 0
16, 22680, Note_on_c, 13, 61, 110
16, 22890, Note_on_c, 13, 61, 0
16, 22890, Note_on_c, 13, 59, 110
16, 22919, Note_on_c, 13, 59, 0
16, 22920, Note_on_c, 13, 62, 110
16, 22949, Note_on_c, 13, 62, 0
16, 22950, Note_on_c, 13, 61, 110
16, 22979, Note_on_c, 13, 61, 0
16, 22980, Note_on_c, 13, 59, 110
16, 23009, Note_on_c, 13, 59, 0
16, 23010, Note_on_c, 13, 58, 110
16, 23039, Note_on_c, 13, 58, 0
16, 23040, Note_on_c, 13, 59, 110
16, 23159, Note_on_c, 13, 59, 0
16, 23160, Note_on_c, 13, 57, 110
16, 23219, Note_on_c, 13, 57, 0
16, 23220, Note_on_c, 13, 56, 110
16, 23279, Note_on_c, 13, 56, 0
16, 23280, Note_on_c, 13, 56, 110
16, 23339, Note_on_c, 13, 56, 0
16, 23340, Note_on_c, 13, 54, 110
16, 23399, Note_on_c, 13, 54, 0
16, 23400, Note_on_c, 13, 53, 110
16, 23459, Note_on_c, 13, 53, 0
16, 23460, Note_on_c, 13, 56, 110
16, 23489, Note_on_c, 13, 56, 0
16, 23490, Note_on_c, 13, 54, 110
16, 23519, Note_on_c, 13, 54, 0
16, 23520, Note_on_c, 13, 53, 110
16, 23549, Note_on_c, 13, 53, 0
16, 23550, Note_on_c, 13, 51, 110
16, 23579, Note_on_c, 13, 51, 0
16, 23580, Note_on_c, 13, 49, 110
16, 23639, Note_on_c, 13, 49, 0
16, 23640, Note_on_c, 13, 45, 110
16, 23699, Note_on_c, 13, 45, 0
16, 23700, Note_on_c, 13, 49, 110
16, 23759, Note_on_c, 13, 49, 0
16, 23760, Note_on_c, 13, 42, 110
16, 23819, Note_on_c, 13, 42, 0
16, 23820, Note_on_c, 13, 45, 110
16, 23879, Note_on_c, 13, 45, 0
16, 23880, Note_on_c, 13, 49, 110
16, 23939, Note_on_c, 13, 49, 0
16, 23940, Note_on_c, 13, 54, 110
16, 24059, Note_on_c, 13, 54, 0
16, 24060, Note_on_c, 13, 54, 110
16, 24119, Note_on_c, 13, 54, 0
16, 24120, Note_on_c, 13, 54, 110
16, 24179, Note_on_c, 13, 54, 0
16, 24180, Note_on_c, 13, 51, 110
16, 24209, Note_on_c, 13, 51, 0
16, 24210, Note_on_c, 13, 52, 110
16, 24239, Note_on_c, 13, 52, 0
16, 24240, Note_on_c, 13, 54, 110
16, 24299, Note_on_c, 13, 54, 0
16, 24300, Note_on_c, 13, 47, 110
16, 24359, Note_on_c, 13, 47, 0
16, 24360, Note_on_c, 13, 49, 110
16, 24419, Note_on_c, 13, 49, 0
16, 24420, Note_on_c, 13, 51, 110
16, 24479, Note_on_c, 13, 51, 0
16, 24480, Note_on_c, 13, 52, 110
16, 24539, Note_on_c, 13, 52, 0
16, 24540, Note_on_c, 13, 52, 110
16, 24599, Note_on_c, 13, 52, 0
16, 24600, Note_on_c, 13, 50, 110
16, 24659, Note_on_c, 13, 50, 0
16, 24660, Note_on_c, 13, 49, 110
16, 24779, Note_on_c, 13, 49, 0
16, 24780, Note_on_c, 13, 47, 110
16, 24839, Note_on_c, 13, 47, 0
16, 24840, Note_on_c, 13, 46, 110
16, 24899, Note_on_c, 13, 46, 0
16, 24900, Note_on_c, 13, 49, 110
16, 24929, Note_on_c, 13, 49, 0
16, 24930, Note_on_c, 13, 47, 110
16, 24959, Note_on_c, 13, 47, 0
16, 24960, Note_on_c, 13, 46, 110
16, 24989, Note_on_c, 13, 46, 0
16, 24990, Note_on_c, 13, 44, 110
16, 25019, Note_on_c, 13, 44, 0
16, 25020, Note_on_c, 13, 42, 110
16, 25079, Note_on_c, 13, 42, 0
16, 25200, Note_on_c, 13, 47, 110
16, 25259, Note_on_c, 13, 47, 0
16, 25260, Note_on_c, 13, 50, 110
16, 25319, Note_on_c, 13, 50, 0
16, 25320, Note_on_c, 13, 54, 110
16, 25379, Note_on_c, 13, 54, 0
16, 25380, Note_on_c, 13, 52, 110
16, 25409, Note_on_c, 13, 52, 0
16, 25410, Note_on_c, 13, 50, 110
16, 25439, Note_on_c, 13, 50, 0
16, 25440, Note_on_c, 13, 52, 110
16, 25469, Note_on_c, 13, 52, 0
16, 25470, Note_on_c, 13, 50, 110
16, 25499, Note_on_c, 13, 50, 0
16, 25500, Note_on_c, 13, 49, 110
16, 25529, Note_on_c, 13, 49, 0
16, 25530, Note_on_c, 13, 47, 110
16, 25559, Note_on_c, 13, 47, 0
16, 25560, Note_on_c, 13, 52, 110
16, 25679, Note_on_c, 13, 52, 0
16, 25680, Note_on_c, 13, 54, 110
16, 25739, Note_on_c, 13, 54, 0
16, 25740, Note_on_c, 13, 56, 110
16, 25799, Note_on_c, 13, 56, 0
16, 25800, Note_on_c, 13, 54, 110
16, 25859, Note_on_c, 13, 54, 0
16, 25860, Note_on_c, 13, 52, 110
16, 25919, Note_on_c, 13, 52, 0
16, 25920, Note_on_c, 13, 57, 110
16, 25979, Note_on_c, 13, 57, 0
16, 25980, Note_on_c, 13, 57, 110
16, 26039, Note_on_c, 13, 57, 0
16, 26040, Note_on_c, 13, 55, 110
16, 26099, Note_on_c, 13, 55, 0
16, 26100, Note_on_c, 13, 54, 110
16, 26219, Note_on_c, 13, 54, 0
16, 26220, Note_on_c, 13, 52, 110
16, 26279, Note_on_c, 13, 52, 0
16, 26280, Note_on_c, 13, 51, 110
16, 26339, Note_on_c, 13, 51, 0
16, 26340, Note_on_c, 13, 54, 110
16, 26369, Note_on_c, 13, 54, 0
16, 26370, Note_on_c, 13, 52, 110
16, 26399, Note_on_c, 13, 52, 0
16, 26400, Note_on_c, 13, 51, 110
16, 26429, Note_on_c, 13, 51, 0
16, 26430, Note_on_c, 13, 49, 110
16, 26459, Note_on_c, 13, 49, 0
16, 26460, Note_on_c, 13, 47, 110
16, 26519, Note_on_c, 13, 47, 0
16, 26520, Note_on_c, 13, 43, 110
16, 26579, Note_on_c, 13, 43, 0
16, 26580, Note_on_c, 13, 47, 110
16, 26639, Note_on_c, 13, 47, 0
16, 26640, Note_on_c, 13, 52, 110
16, 26699, Note_on_c, 13, 52, 0
16, 26700, Note_on_c, 13, 55, 110
16, 26759, Note_on_c, 13, 55, 0
16, 26760, Note_on_c, 13, 59, 110
16, 26819, Note_on_c, 13, 59, 0
16, 26820, Note_on_c, 13, 52, 110
16, 26879, Note_on_c, 13, 52, 0
16, 26880, Note_on_c, 13, 64, 110
16, 26939, Note_on_c, 13, 64, 0
16, 26940, Note_on_c, 13, 62, 110
16, 26999, Note_on_c, 13, 62, 0
16, 27000, Note_on_c, 13, 61, 110
16, 27059, Note_on_c, 13, 61, 0
16, 27060, Note_on_c, 13, 64, 110
16, 27089, Note_on_c, 13, 64, 0
16, 27090, Note_on_c, 13, 62, 110
16, 27119, Note_on_c, 13, 62, 0
16, 27120, Note_on_c, 13, 61, 110
16, 27149, Note_on_c, 13, 61, 0
16, 27150, Note_on_c, 13, 59, 110
16, 27179, Note_on_c, 13, 59, 0
16, 27180, Note_on_c, 13, 57, 110
16, 27239, Note_on_c, 13, 57, 0
16, 27240, Note_on_c, 13, 54, 110
16, 27299, Note_on_c, 13, 54, 0
16, 27300, Note_on_c, 13, 57, 110
16, 27359, Note_on_c, 13, 57, 0
16, 27360, Note_on_c, 13, 50, 110
16, 27419, Note_on_c, 13, 50, 0
16, 27420, Note_on_c, 13, 54, 110
16, 27479, Note_on_c, 13, 54, 0
16, 27480, Note_on_c, 13, 50, 110
16, 27539, Note_on_c, 13, 50, 0
16, 27540, Note_on_c, 13, 55, 110
16, 27659, Note_on_c, 13, 55, 0
16, 27660, Note_on_c, 13, 54, 110
16, 27719, Note_on_c, 13, 54, 0
16, 27720, Note_on_c, 13, 52, 110
16, 27779, Note_on_c, 13, 52, 0
16, 27780, Note_on_c, 13, 50, 110
16, 27839, Note_on_c, 13, 50, 0
16, 27840, Note_on_c, 13, 49, 110
16, 27899, Note_on_c, 13, 49, 0
16, 27900, Note_on_c, 13, 47, 110
16, 27959, Note_on_c, 13, 47, 0
16, 27960, Note_on_c, 13, 52, 110
16, 28019, Note_on_c, 13, 52, 0
16, 28020, Note_on_c, 13, 54, 110
16, 28079, Note_on_c, 13, 54, 0
16, 28080, Note_on_c, 13, 47, 110
16, 28139, Note_on_c, 13, 47, 0
16, 28500, Note_on_c, 13, 53, 110
16, 28559, Note_on_c, 13, 53, 0
16, 28560, Note_on_c, 13, 53, 110
16, 28619, Note_on_c, 13, 53, 0
16, 28620, Note_on_c, 13, 54, 110
16, 28739, Note_on_c, 13, 54, 0
16, 28740, Note_on_c, 13, 54, 110
16, 28799, Note_on_c, 13, 54, 0
16, 28800, Note_on_c, 13, 47, 110
16, 28919, Note_on_c, 13, 47, 0
16, 29640, Note_on_c, 13, 50, 110
16, 29699, Note_on_c, 13, 50, 0
16, 29700, Note_on_c, 13, 62, 110
16, 29819, Note_on_c, 13, 62, 0
16, 29820, Note_on_c, 13, 50, 110
16, 29879, Note_on_c, 13, 50, 0
16, 29880, Note_on_c, 13, 49, 110
16, 29939, Note_on_c, 13, 49, 0
16, 29940, Note_on_c, 13, 57, 110
16, 29999, Note_on_c, 13, 57, 0
16, 30000, Note_on_c, 13, 49, 110
16, 30059, Note_on_c, 13, 49, 0
16, 30060, Note_on_c, 13, 50, 110
16, 30119, Note_on_c, 13, 50, 0
16, 30120, Note_on_c, 13, 57, 110
16, 30179, Note_on_c, 13, 57, 0
16, 30180, Note_on_c, 13, 45, 110
16, 30239, Note_on_c, 13, 45, 0
16, 30240, Note_on_c, 13, 50, 110
16, 30299, Note_on_c, 13, 50, 0
16, 30300, Note_on_c, 13, 50, 110
16, 30359, Note_on_c, 13, 50, 0
16, 31800, Note_on_c, 13, 50, 110
16, 31859, Note_on_c, 13, 50, 0
16, 31860, Note_on_c, 13, 57, 110
16, 31979, Note_on_c, 13, 57, 0
16, 31980, Note_on_c, 13, 52, 110
16, 32039, Note_on_c, 13, 52, 0
16, 32040, Note_on_c, 13, 59, 110
16, 32159, Note_on_c, 13, 59, 0
16, 32160, Note_on_c, 13, 52, 110
16, 32219, Note_on_c, 13, 52, 0
16, 32220, Note_on_c, 13, 61, 110
16, 32279, Note_on_c, 13, 61, 0
16, 32280, Note_on_c, 13, 59, 110
16, 32309, Note_on_c, 13, 59, 0
16, 32310, Note_on_c, 13, 61, 110
16, 32339, Note_on_c, 13, 61, 0
16, 32340, Note_on_c, 13, 62, 110
16, 32369, Note_on_c, 13, 62, 0
16, 32370, Note_on_c, 13, 59, 110
16, 32399, Note_on_c, 13, 59, 0
16, 32400, Note_on_c, 13, 62, 110
16, 32429, Note_on_c, 13, 62, 0
16, 32430, Note_on_c, 13, 61, 110
16, 32459, Note_on_c, 13, 61, 0
16, 32460, Note_on_c, 13, 59, 110
16, 32489, Note_on_c, 13, 59, 0
16, 32490, Note_on_c, 13, 57, 110
16, 32519, Note_on_c, 13, 57, 0
16, 32520, Note_on_c, 13, 55, 110
16, 32579, Note_on_c, 13, 55, 0
16, 32580, Note_on_c, 13, 54, 110
16, 32639, Note_on_c, 13, 54, 0
16, 32640, Note_on_c, 13, 52, 110
16, 32699, Note_on_c, 13, 52, 0
16, 32700, Note_on_c, 13, 50, 110
16, 32759, Note_on_c, 13, 50, 0
16, 32760, Note_on_c, 13, 49, 110
16, 32819, Note_on_c, 13, 49, 0
16, 32820, Note_on_c, 13, 45, 110
16, 32879, Note_on_c, 13, 45, 0
16, 32880, Note_on_c, 13, 49, 110
16, 32939, Note_on_c, 13, 49, 0
16, 32940, Note_on_c, 13, 50, 110
16, 32999, Note_on_c, 13, 50, 0
16, 33000, Note_on_c, 13, 57, 110
16, 33059, Note_on_c, 13, 57, 0
16, 33060, Note_on_c, 13, 45, 110
16, 33119, Note_on_c, 13, 45, 0
16, 33120, Note_on_c, 13, 50, 110
16, 33179, Note_on_c, 13, 50, 0
16, 33180, Note_on_c, 13, 50, 110
16, 33239, Note_on_c, 13, 50, 0
16, 33240, Note_on_c, 13, 52, 110
16, 33299, Note_on_c, 13, 52, 0
16, 33300, Note_on_c, 13, 54, 110
16, 33359, Note_on_c, 13, 54, 0
16, 33360, Note_on_c, 13, 59, 110
16, 33389, Note_on_c, 13, 59, 0
16, 33390, Note_on_c, 13, 57, 110
16, 33419, Note_on_c, 13, 57, 0
16, 33420, Note_on_c, 13, 55, 110
16, 33449, Note_on_c, 13, 55, 0
16, 33450, Note_on_c, 13, 54, 110
16, 33479, Note_on_c, 13, 54, 0
16, 33480, Note_on_c, 13, 52, 110
16, 33539, Note_on_c, 13, 52, 0
16, 33540, Note_on_c, 13, 57, 110
16, 33569, Note_on_c, 13, 57, 0
16, 33570, Note_on_c, 13, 55, 110
16, 33599, Note_on_c, 13, 55, 0
16, 33600, Note_on_c, 13, 54, 110
16, 33629, Note_on_c, 13, 54, 0
16, 33630, Note_on_c, 13, 52, 110
16, 33659, Note_on_c, 13, 52, 0
16, 33660, Note_on_c, 13, 50, 110
16, 33719, Note_on_c, 13, 50, 0
16, 33720, Note_on_c, 13, 55, 110
16, 33779, Note_on_c, 13, 55, 0
16, 33780, Note_on_c, 13, 54, 110
16, 33839, Note_on_c, 13, 54, 0
16, 33840, Note_on_c, 13, 52, 110
16, 33899, Note_on_c, 13, 52, 0
16, 33900, Note_on_c, 13, 57, 110
16, 33959, Note_on_c, 13, 57, 0
16, 33960, Note_on_c, 13, 56, 110
16, 34019, Note_on_c, 13, 56, 0
16, 34020, Note_on_c, 13, 57, 110
16, 34139, Note_on_c, 13, 57, 0
16, 34140, Note_on_c, 13, 59, 110
16, 34199, Note_on_c, 13, 59, 0
16, 34200, Note_on_c, 13, 56, 110
16, 34259, Note_on_c, 13, 56, 0
16, 34260, Note_on_c, 13, 55, 110
16, 34379, Note_on_c, 13, 55, 0
16, 34380, Note_on_c, 13, 54, 110
16, 34439, Note_on_c, 13, 54, 0
16, 34440, Note_on_c, 13, 56, 110
16, 34499, Note_on_c, 13, 56, 0
16, 34500, Note_on_c, 13, 57, 110
16, 34559, Note_on_c, 13, 57, 0
16, 34560, Note_on_c, 13, 56, 110
16, 34619, Note_on_c, 13, 56, 0
16, 34620, Note_on_c, 13, 56, 110
16, 34679, Note_on_c, 13, 56, 0
16, 34680, Note_on_c, 13, 61, 110
16, 34739, Note_on_c, 13, 61, 0
16, 34740, Note_on_c, 13, 54, 110
16, 34799, Note_on_c, 13, 54, 0
16, 34800, Note_on_c, 13, 59, 110
16, 34829, Note_on_c, 13, 59, 0
16, 34830, Note_on_c, 13, 57, 110
16, 34859, Note_on_c, 13, 57, 0
16, 34860, Note_on_c, 13, 56, 110
16, 34889, Note_on_c, 13, 56, 0
16, 34890, Note_on_c, 13, 54, 110
16, 34919, Note_on_c, 13, 54, 0
16, 34920, Note_on_c, 13, 52, 110
16, 34979, Note_on_c, 13, 52, 0
16, 34980, Note_on_c, 13, 57, 110
16, 35159, Note_on_c, 13, 57, 0
16, 35160, Note_on_c, 13, 55, 110
16, 35189, Note_on_c, 13, 55, 0
16, 35190, Note_on_c, 13, 54, 110
16, 35219, Note_on_c, 13, 54, 0
16, 35220, Note_on_c, 13, 55, 110
16, 35279, Note_on_c, 13, 55, 0
16, 35280, Note_on_c, 13, 55, 110
16, 35339, Note_on_c, 13, 55, 0
16, 35340, Note_on_c, 13, 54, 110
16, 35399, Note_on_c, 13, 54, 0
16, 35400, Note_on_c, 13, 52, 110
16, 35459, Note_on_c, 13, 52, 0
16, 35460, Note_on_c, 13, 50, 110
16, 35519, Note_on_c, 13, 50, 0
16, 35520, Note_on_c, 13, 55, 110
16, 35549, Note_on_c, 13, 55, 0
16, 35550, Note_on_c, 13, 54, 110
16, 35579, Note_on_c, 13, 54, 0
16, 35580, Note_on_c, 13, 55, 110
16, 35699, Note_on_c, 13, 55, 0
16, 35700, Note_on_c, 13, 54, 110
16, 35729, Note_on_c, 13, 54, 0
16, 35730, Note_on_c, 13, 52, 110
16, 35759, Note_on_c, 13, 52, 0
16, 35760, Note_on_c, 13, 54, 110
16, 35879, Note_on_c, 13, 54, 0
16, 35880, Note_on_c, 13, 52, 110
16, 35939, Note_on_c, 13, 52, 0
16, 35940, Note_on_c, 13, 50, 110
16, 35999, Note_on_c, 13, 50, 0
16, 36000, Note_on_c, 13, 57, 110
16, 36059, Note_on_c, 13, 57, 0
16, 36060, Note_on_c, 13, 55, 110
16, 36119, Note_on_c, 13, 55, 0
16, 36120, Note_on_c, 13, 54, 110
16, 36179, Note_on_c, 13, 54, 0
16, 36180, Note_on_c, 13, 55, 110
16, 36239, Note_on_c, 13, 55, 0
16, 36240, Note_on_c, 13, 54, 110
16, 36299, Note_on_c, 13, 54, 0
16, 36300, Note_on_c, 13, 52, 110
16, 36359, Note_on_c, 13, 52, 0
16, 36360, Note_on_c, 13, 54, 110
16, 36419, Note_on_c, 13, 54, 0
16, 36420, Note_on_c, 13, 52, 110
16, 36479, Note_on_c, 13, 52, 0
16, 36480, Note_on_c, 13, 50, 110
16, 36539, Note_on_c, 13, 50, 0
16, 36540, Note_on_c, 13, 52, 110
16, 36599, Note_on_c, 13, 52, 0
16, 36600, Note_on_c, 13, 54, 110
16, 36659, Note_on_c, 13, 54, 0
16, 36660, Note_on_c, 13, 55, 110
16, 36779, Note_on_c, 13, 55, 0
16, 36780, Note_on_c, 13, 54, 110
16, 36839, Note_on_c, 13, 54, 0
16, 36840, Note_on_c, 13, 52, 110
16, 36899, Note_on_c, 13, 52, 0
16, 36900, Note_on_c, 13, 59, 110
16, 36929, Note_on_c, 13, 59, 0
16, 36930, Note_on_c, 13, 57, 110
16, 36959, Note_on_c, 13, 57, 0
16, 36960, Note_on_c, 13, 55, 110
16, 36989, Note_on_c, 13, 55, 0
16, 36990, Note_on_c, 13, 54, 110
16, 37019, Note_on_c, 13, 54, 0
16, 37020, Note_on_c, 13, 55, 110
16, 37139, Note_on_c, 13, 55, 0
16, 37140, Note_on_c, 13, 54, 110
16, 37169, Note_on_c, 13, 54, 0
16, 37170, Note_on_c, 13, 52, 110
16, 37199, Note_on_c, 13, 52, 0
16, 37200, Note_on_c, 13, 54, 110
16, 37319, Note_on_c, 13, 54, 0
16, 37320, Note_on_c, 13, 52, 110
16, 37379, Note_on_c, 13, 52, 0
16, 37380, Note_on_c, 13, 50, 110
16, 37439, Note_on_c, 13, 50, 0
16, 37440, Note_on_c, 13, 57, 110
16, 37499, Note_on_c, 13, 57, 0
16, 37500, Note_on_c, 13, 49, 110
16, 37559, Note_on_c, 13, 49, 0
16, 37560, Note_on_c, 13, 45, 110
16, 37619, Note_on_c, 13, 45, 0
16, 37620, Note_on_c, 13, 50, 110
16, 37649, Note_on_c, 13, 50, 0
16, 37650, Note_on_c, 13, 49, 110
16, 37679, Note_on_c, 13, 49, 0
16, 37680, Note_on_c, 13, 54, 110
16, 37709, Note_on_c, 13, 54, 0
16, 37710, Note_on_c, 13, 52, 110
16, 37739, Note_on_c, 13, 52, 0
16, 37740, Note_on_c, 13, 50, 110
16, 37769, Note_on_c, 13, 50, 0
16, 37770, Note_on_c, 13, 49, 110
16, 37799, Note_on_c, 13, 49, 0
16, 37800, Note_on_c, 13, 50, 110
16, 37829, Note_on_c, 13, 50, 0
16, 37830, Note_on_c, 13, 47, 110
16, 37859, Note_on_c, 13, 47, 0
16, 37860, Note_on_c, 13, 52, 110
16, 37889, Note_on_c, 13, 52, 0
16, 37890, Note_on_c, 13, 50, 110
16, 37919, Note_on_c, 13, 50, 0
16, 37920, Note_on_c, 13, 49, 110
16, 37949, Note_on_c, 13, 49, 0
16, 37950, Note_on_c, 13, 47, 110
16, 37979, Note_on_c, 13, 47, 0
16, 37980, Note_on_c, 13, 45, 110
16, 38039, Note_on_c, 13, 45, 0
16, 38040, Note_on_c, 13, 50, 110
16, 38099, Note_on_c, 13, 50, 0
16, 38100, Note_on_c, 13, 52, 110
16, 38159, Note_on_c, 13, 52, 0
16, 38160, Note_on_c, 13, 45, 110
16, 38219, Note_on_c, 13, 45, 0
16, 38580, Note_on_c, 13, 51, 110
16, 38639, Note_on_c, 13, 51, 0
16, 38640, Note_on_c, 13, 51, 110
16, 38699, Note_on_c, 13, 51, 0
16, 38700, Note_on_c, 13, 52, 110
16, 38729, Note_on_c, 13, 52, 0
16, 38730, Note_on_c, 13, 50, 110
16, 38759, Note_on_c, 13, 50, 0
16, 38760, Note_on_c, 13, 49, 110
16, 38789, Note_on_c, 13, 49, 0
16, 38790, Note_on_c, 13, 50, 110
16, 38819, Note_on_c, 13, 50, 0
16, 38820, Note_on_c, 13, 52, 110
16, 38879, Note_on_c, 13, 52, 0
16, 38880, Note_on_c, 13, 45, 110
16, 38999, Note_on_c, 13, 45, 0
16, 39000, Note_on_c, 13, 57, 110
16, 39059, Note_on_c, 13, 57, 0
16, 39060, Note_on_c, 13, 54, 110
16, 39119, Note_on_c, 13, 54, 0
16, 39180, Note_on_c, 13, 57, 110
16, 39239, Note_on_c, 13, 57, 0
16, 39240, Note_on_c, 13, 51, 110
16, 39329, Note_on_c, 13, 51, 0
16, 39330, Note_on_c, 13, 52, 110
16, 39359, Note_on_c, 13, 52, 0
16, 39360, Note_on_c, 13, 51, 110
16, 39389, Note_on_c, 13, 51, 0
16, 39390, Note_on_c, 13, 49, 110
16, 39419, Note_on_c, 13, 49, 0
16, 39420, Note_on_c, 13, 47, 110
16, 39449, Note_on_c, 13, 47, 0
16, 39450, Note_on_c, 13, 45, 110
16, 39479, Note_on_c, 13, 45, 0
16, 39480, Note_on_c, 13, 43, 110
16, 39539, Note_on_c, 13, 43, 0
16, 39540, Note_on_c, 13, 47, 110
16, 39599, Note_on_c, 13, 47, 0
16, 39600, Note_on_c, 13, 52, 110
16, 39659, Note_on_c, 13, 52, 0
16, 39660, Note_on_c, 13, 55, 110
16, 39719, Note_on_c, 13, 55, 0
16, 39720, Note_on_c, 13, 59, 110
16, 39779, Note_on_c, 13, 59, 0
16, 39780, Note_on_c, 13, 64, 110
16, 39839, Note_on_c, 13, 64, 0
16, 39900, Note_on_c, 13, 62, 110
16, 39959, Note_on_c, 13, 62, 0
16, 39960, Note_on_c, 13, 61, 110
16, 40049, Note_on_c, 13, 61, 0
16, 40050, Note_on_c, 13, 62, 110
16, 40079, Note_on_c, 13, 62, 0
16, 40080, Note_on_c, 13, 61, 110
16, 40109, Note_on_c, 13, 61, 0
16, 40110, Note_on_c, 13, 59, 110
16, 40139, Note_on_c, 13, 59, 0
16, 40140, Note_on_c, 13, 57, 110
16, 40199, Note_on_c, 13, 57, 0
16, 40200, Note_on_c, 13, 54, 110
16, 40229, Note_on_c, 13, 54, 0
16, 40230, Note_on_c, 13, 55, 110
16, 40259, Note_on_c, 13, 55, 0
16, 40260, Note_on_c, 13, 57, 110
16, 40319, Note_on_c, 13, 57, 0
16, 40320, Note_on_c, 13, 50, 110
16, 40379, Note_on_c, 13, 50, 0
16, 40380, Note_on_c, 13, 52, 110
16, 40439, Note_on_c, 13, 52, 0
16, 40440, Note_on_c, 13, 54, 110
16, 40499, Note_on_c, 13, 54, 0
16, 40500, Note_on_c, 13, 55, 110
16, 40559, Note_on_c, 13, 55, 0
16, 40560, Note_on_c, 13, 54, 110
16, 40619, Note_on_c, 13, 54, 0
16, 40620, Note_on_c, 13, 52, 110
16, 40679, Note_on_c, 13, 52, 0
16, 40680, Note_on_c, 13, 54, 110
16, 40739, Note_on_c, 13, 54, 0
16, 40740, Note_on_c, 13, 52, 110
16, 40799, Note_on_c, 13, 52, 0
16, 40800, Note_on_c, 13, 50, 110
16, 40859, Note_on_c, 13, 50, 0
16, 40860, Note_on_c, 13, 59, 110
16, 40919, Note_on_c, 13, 59, 0
16, 40920, Note_on_c, 13, 57, 110
16, 40979, Note_on_c, 13, 57, 0
16, 40980, Note_on_c, 13, 55, 110
16, 41039, Note_on_c, 13, 55, 0
16, 41040, Note_on_c, 13, 57, 110
16, 41099, Note_on_c, 13, 57, 0
16, 41100, Note_on_c, 13, 55, 110
16, 41159, Note_on_c, 13, 55, 0
16, 41160, Note_on_c, 13, 54, 110
16, 41219, Note_on_c, 13, 54, 0
16, 41220, Note_on_c, 13, 56, 110
16, 41279, Note_on_c, 13, 56, 0
16, 41280, Note_on_c, 13, 52, 110
16, 41339, Note_on_c, 13, 52, 0
16, 41340, Note_on_c, 13, 56, 110
16, 41399, Note_on_c, 13, 56, 0
16, 41400, Note_on_c, 13, 57, 110
16, 41519, Note_on_c, 13, 57, 0
16, 41520, Note_on_c, 13, 57, 110
16, 41579, Note_on_c, 13, 57, 0
16, 41580, Note_on_c, 13, 58, 110
16, 41639, Note_on_c, 13, 58, 0
16, 41640, Note_on_c, 13, 54, 110
16, 41699, Note_on_c, 13, 54, 0
16, 41700, Note_on_c, 13, 58, 110
16, 41759, Note_on_c, 13, 58, 0
16, 41760, Note_on_c, 13, 59, 110
16, 41819, Note_on_c, 13, 59, 0
16, 41820, Note_on_c, 13, 59, 110
16, 41879, Note_on_c, 13, 59, 0
16, 41880, Note_on_c, 13, 59, 110
16, 41939, Note_on_c, 13, 59, 0
16, 41940, Note_on_c, 13, 58, 110
16, 42059, Note_on_c, 13, 58, 0
16, 42060, Note_on_c, 13, 58, 110
16, 42119, Note_on_c, 13, 58, 0
16, 42120, Note_on_c, 13, 52, 110
16, 42239, Note_on_c, 13, 52, 0
16, 42240, Note_on_c, 13, 52, 110
16, 42299, Note_on_c, 13, 52, 0
16, 42300, Note_on_c, 13, 54, 110
16, 42359, Note_on_c, 13, 54, 0
16, 42360, Note_on_c, 13, 55, 110
16, 42419, Note_on_c, 13, 55, 0
16, 42420, Note_on_c, 13, 57, 110
16, 42479, Note_on_c, 13, 57, 0
16, 42480, Note_on_c, 13, 47, 110
16, 42539, Note_on_c, 13, 47, 0
16, 42660, Note_on_c, 13, 45, 110
16, 42719, Note_on_c, 13, 45, 0
16, 42720, Note_on_c, 13, 57, 110
16, 42779, Note_on_c, 13, 57, 0
16, 42780, Note_on_c, 13, 57, 110
16, 42839, Note_on_c, 13, 57, 0
16, 42840, Note_on_c, 13, 56, 110
16, 42899, Note_on_c, 13, 56, 0
16, 43020, Note_on_c, 13, 57, 110
16, 43079, Note_on_c, 13, 57, 0
16, 43080, Note_on_c, 13, 57, 110
16, 43139, Note_on_c, 13, 57, 0
16, 43140, Note_on_c, 13, 45, 110
16, 43199, Note_on_c, 13, 45, 0
16, 43200, Note_on_c, 13, 50, 110
16, 43319, Note_on_c, 13, 50, 0
16, 97080, Note_on_c, 13, 55, 110
16, 97140, Note_on_c, 13, 55, 0
16, 97140, Note_on_c, 13, 54, 110
16, 97200, Note_on_c, 13, 54, 0
16, 97200, Note_on_c, 13, 52, 110
16, 97380, Note_on_c, 13, 52, 0
16, 97380, Note_on_c, 13, 50, 110
16, 97440, Note_on_c, 13, 50, 0
16, 97440, Note_on_c, 13, 48, 110
16, 97620, Note_on_c, 13, 48, 0
16, 97620, Note_on_c, 13, 47, 110
16, 97680, Note_on_c, 13, 47, 0
16, 97680, Note_on_c, 13, 48, 110
16, 97740, Note_on_c, 13, 48, 0
16, 97740, Note_on_c, 13, 45, 110
16, 97800, Note_on_c, 13, 45, 0
16, 97800, Note_on_c, 13, 50, 110
16, 97920, Note_on_c, 13, 50, 0
16, 97920, Note_on_c, 13, 43, 110
16, 98028, Note_on_c, 13, 43, 0
16, 98040, Note_on_c, 13, 48, 110
16, 98160, Note_on_c, 13, 48, 0
16, 98160, Note_on_c, 13, 55, 110
16, 98220, Note_on_c, 13, 55, 0
16, 98220, Note_on_c, 13, 54, 110
16, 98280, Note_on_c, 13, 54, 0
16, 98280, Note_on_c, 13, 52, 110
16, 98400, Note_on_c, 13, 52, 0
16, 98400, Note_on_c, 13, 59, 110
16, 98460, Note_on_c, 13, 59, 0
16, 98460, Note_on_c, 13, 57, 110
16, 98520, Note_on_c, 13, 57, 0
16, 98520, Note_on_c, 13, 55, 110
16, 98640, Note_on_c, 13, 55, 0
16, 98640, Note_on_c, 13, 62, 110
16, 98760, Note_on_c, 13, 62, 0
16, 98760, Note_on_c, 13, 50, 110
16, 98880, Note_on_c, 13, 50, 0
16, 98880, Note_on_c, 13, 55, 110
16, 98988, Note_on_c, 13, 55, 0
16, 99000, Note_on_c, 13, 55, 110
16, 99060, Note_on_c, 13, 55, 0
16, 99060, Note_on_c, 13, 54, 110
16, 99120, Note_on_c, 13, 54, 0
16, 99120, Note_on_c, 13, 52, 110
16, 99300, Note_on_c, 13, 52, 0
16, 99300, Note_on_c, 13, 50, 110
16, 99360, Note_on_c, 13, 50, 0
16, 99360, Note_on_c, 13, 48, 110
16, 99540, Note_on_c, 13, 48, 0
16, 99540, Note_on_c, 13, 47, 110
16, 99600, Note_on_c, 13, 47, 0
16, 99600, Note_on_c, 13, 48, 110
16, 99660, Note_on_c, 13, 48, 0
16, 99660, Note_on_c, 13, 45, 110
16, 99720, Note_on_c, 13, 45, 0
16, 99720, Note_on_c, 13, 50, 110
16, 99840, Note_on_c, 13, 50, 0
16, 99840, Note_on_c, 13, 43, 110
16, 99948, Note_on_c, 13, 43, 0
16, 99960, Note_on_c, 13, 48, 110
16, 100080, Note_on_c, 13, 48, 0
16, 100080, Note_on_c, 13, 55, 110
16, 100140, Note_on_c, 13, 55, 0
16, 100140, Note_on_c, 13, 54, 110
16, 100200, Note_on_c, 13, 54, 0
16, 100200, Note_on_c, 13, 52, 110
16, 100320, Note_on_c, 13, 52, 0
16, 100320, Note_on_c, 13, 59, 110
16, 100380, Note_on_c, 13, 59, 0
16, 100380, Note_on_c, 13, 57, 110
16, 100440, Note_on_c, 13, 57, 0
16, 100440, Note_on_c, 13, 55, 110
16, 100560, Note_on_c, 13, 55, 0
16, 100560, Note_on_c, 13, 62, 110
16, 100680, Note_on_c, 13, 62, 0
16, 100680, Note_on_c, 13, 50, 110
16, 100800, Note_on_c, 13, 50, 0
16, 100800, Note_on_c, 13, 55, 110
16, 100908, Note_on_c, 13, 55, 0
16, 100920, Note_on_c, 13, 55, 110
16, 100980, Note_on_c, 13, 55, 0
16, 100980, Note_on_c, 13, 57, 110
16, 101040, Note_on_c, 13, 57, 0
16, 101040, Note_on_c, 13, 59, 110
16, 101100, Note_on_c, 13, 59, 0
16, 101100, Note_on_c, 13, 60, 110
16, 101160, Note_on_c, 13, 60, 0
16, 101160, Note_on_c, 13, 62, 110
16, 101280, Note_on_c, 13, 62, 0
16, 101280, Note_on_c, 13, 55, 110
16, 101340, Note_on_c, 13, 55, 0
16, 101340, Note_on_c, 13, 57, 110
16, 101400, Note_on_c, 13, 57, 0
16, 101400, Note_on_c, 13, 59, 110
16, 101520, Note_on_c, 13, 59, 0
16, 101520, Note_on_c, 13, 52, 110
16, 101580, Note_on_c, 13, 52, 0
16, 101580, Note_on_c, 13, 54, 110
16, 101640, Note_on_c, 13, 54, 0
16, 101640, Note_on_c, 13, 55, 110
16, 101760, Note_on_c, 13, 55, 0
16, 101760, Note_on_c, 13, 50, 110
16, 101868, Note_on_c, 13, 50, 0
16, 101880, Note_on_c, 13, 62, 110
16, 101940, Note_on_c, 13, 62, 0
16, 101940, Note_on_c, 13, 60, 110
16, 102000, Note_on_c, 13, 60, 0
16, 102000, Note_on_c, 13, 59, 110
16, 102180, Note_on_c, 13, 59, 0
16, 102180, Note_on_c, 13, 57, 110
16, 102240, Note_on_c, 13, 57, 0
16, 102240, Note_on_c, 13, 55, 110
16, 102420, Note_on_c, 13, 55, 0
16, 102420, Note_on_c, 13, 54, 110
16, 102480, Note_on_c, 13, 54, 0
16, 102480, Note_on_c, 13, 52, 110
16, 102540, Note_on_c, 13, 52, 0
16, 102540, Note_on_c, 13, 50, 110
16, 102600, Note_on_c, 13, 50, 0
16, 102600, Note_on_c, 13, 48, 110
16, 102720, Note_on_c, 13, 48, 0
16, 102720, Note_on_c, 13, 47, 110
16, 102828, Note_on_c, 13, 47, 0
16, 102840, Note_on_c, 13, 52, 110
16, 102960, Note_on_c, 13, 52, 0
16, 102960, Note_on_c, 13, 52, 110
16, 103020, Note_on_c, 13, 52, 0
16, 103020, Note_on_c, 13, 50, 110
16, 103080, Note_on_c, 13, 50, 0
16, 103080, Note_on_c, 13, 48, 110
16, 103200, Note_on_c, 13, 48, 0
16, 103200, Note_on_c, 13, 47, 110
16, 103260, Note_on_c, 13, 47, 0
16, 103260, Note_on_c, 13, 45, 110
16, 103320, Note_on_c, 13, 45, 0
16, 103320, Note_on_c, 13, 43, 110
16, 103440, Note_on_c, 13, 43, 0
16, 103440, Note_on_c, 13, 50, 110
16, 103680, Note_on_c, 13, 50, 0
16, 103680, Note_on_c, 13, 43, 110
16, 103800, Note_on_c, 13, 43, 0
16, 160320, Control_c, 13, 0, 10
16, 160320, Program_c, 13, 70
16, 160380, Note_on_c, 13, 59, 110
16, 160439, Note_on_c, 13, 59, 0
16, 160440, Note_on_c, 13, 64, 110
16, 160499, Note_on_c, 13, 64, 0
16, 160500, Note_on_c, 13, 59, 110
16, 160559, Note_on_c, 13, 59, 0
16, 160560, Note_on_c, 13, 56, 110
16, 160619, Note_on_c, 13, 56, 0
16, 160620, Note_on_c, 13, 52, 110
16, 160679, Note_on_c, 13, 52, 0
16, 160680, Note_on_c, 13, 62, 110
16, 160709, Note_on_c, 13, 62, 0
16, 160710, Note_on_c, 13, 61, 110
16, 160739, Note_on_c, 13, 61, 0
16, 160740, Note_on_c, 13, 62, 110
16, 160799, Note_on_c, 13, 62, 0
16, 160800, Note_on_c, 13, 61, 110
16, 161099, Note_on_c, 13, 61, 0
16, 161100, Note_on_c, 13, 52, 110
16, 161159, Note_on_c, 13, 52, 0
16, 161160, Note_on_c, 13, 57, 110
16, 161219, Note_on_c, 13, 57, 0
16, 161220, Note_on_c, 13, 61, 110
16, 161249, Note_on_c, 13, 61, 0
16, 161250, Note_on_c, 13, 59, 110
16, 161279, Note_on_c, 13, 59, 0
16, 161280, Note_on_c, 13, 60, 110
16, 161399, Note_on_c, 13, 60, 0
16, 161400, Note_on_c, 13, 60, 110
16, 161579, Note_on_c, 13, 60, 0
16, 161580, Note_on_c, 13, 57, 110
16, 161639, Note_on_c, 13, 57, 0
16, 161640, Note_on_c, 13, 54, 110
16, 161699, Note_on_c, 13, 54, 0
16, 161700, Note_on_c, 13, 50, 110
16, 161759, Note_on_c, 13, 50, 0
16, 161760, Note_on_c, 13, 55, 110
16, 161819, Note_on_c, 13, 55, 0
16, 161820, Note_on_c, 13, 55, 110
16, 161879, Note_on_c, 13, 55, 0
16, 161880, Note_on_c, 13, 55, 110
16, 161939, Note_on_c, 13, 55, 0
16, 161940, Note_on_c, 13, 52, 110
16, 161999, Note_on_c, 13, 52, 0
16, 162000, Note_on_c, 13, 49, 110
16, 162059, Note_on_c, 13, 49, 0
16, 162060, Note_on_c, 13, 45, 110
16, 162119, Note_on_c, 13, 45, 0
16, 162120, Note_on_c, 13, 54, 110
16, 162179, Note_on_c, 13, 54, 0
16, 162180, Note_on_c, 13, 50, 110
16, 162239, Note_on_c, 13, 50, 0
16, 162240, Note_on_c, 13, 56, 110
16, 162419, Note_on_c, 13, 56, 0
16, 162420, Note_on_c, 13, 56, 110
16, 162479, Note_on_c, 13, 56, 0
16, 162480, Note_on_c, 13, 57, 110
16, 162599, Note_on_c, 13, 57, 0
16, 169260, Control_c, 13, 0, 40
16, 169260, Program_c, 13, 52
16, 169320, Note_on_c, 13, 50, 110
16, 169439, Note_on_c, 13, 50, 0
16, 169440, Note_on_c, 13, 55, 110
16, 169559, Note_on_c, 13, 55, 0
16, 169560, Note_on_c, 13, 54, 110
16, 169679, Note_on_c, 13, 54, 0
16, 169680, Note_on_c, 13, 59, 110
16, 169799, Note_on_c, 13, 59, 0
16, 169800, Note_on_c, 13, 57, 110
16, 169919, Note_on_c, 13, 57, 0
16, 169920, Note_on_c, 13, 55, 110
16, 170039, Note_on_c, 13, 55, 0
16, 170040, Note_on_c, 13, 57, 110
16, 170159, Note_on_c, 13, 57, 0
16, 170160, Note_on_c, 13, 50, 110
16, 170279, Note_on_c, 13, 50, 0
16, 171240, Note_on_c, 13, 54, 110
16, 171359, Note_on_c, 13, 54, 0
16, 171360, Note_on_c, 13, 59, 110
16, 171419, Note_on_c, 13, 59, 0
16, 171420, Note_on_c, 13, 54, 110
16, 171479, Note_on_c, 13, 54, 0
16, 171480, Note_on_c, 13, 55, 110
16, 171539, Note_on_c, 13, 55, 0
16, 171540, Note_on_c, 13, 50, 110
16, 171599, Note_on_c, 13, 50, 0
16, 171600, Note_on_c, 13, 52, 110
16, 171659, Note_on_c, 13, 52, 0
16, 171660, Note_on_c, 13, 49, 110
16, 171719, Note_on_c, 13, 49, 0
16, 171720, Note_on_c, 13, 54, 110
16, 171839, Note_on_c, 13, 54, 0
16, 171840, Note_on_c, 13, 47, 110
16, 171959, Note_on_c, 13, 47, 0
16, 177960, Note_on_c, 13, 50, 110
16, 178079, Note_on_c, 13, 50, 0
16, 178080, Note_on_c, 13, 55, 110
16, 178199, Note_on_c, 13, 55, 0
16, 178200, Note_on_c, 13, 54, 110
16, 178319, Note_on_c, 13, 54, 0
16, 178320, Note_on_c, 13, 59, 110
16, 178439, Note_on_c, 13, 59, 0
16, 178440, Note_on_c, 13, 57, 110
16, 178559, Note_on_c, 13, 57, 0
16, 178560, Note_on_c, 13, 55, 110
16, 178679, Note_on_c, 13, 55, 0
16, 178680, Note_on_c, 13, 57, 110
16, 178799, Note_on_c, 13, 57, 0
16, 178800, Note_on_c, 13, 50, 110
16, 178919, Note_on_c, 13, 50, 0
16, 179880, Note_on_c, 13, 54, 110
16, 179999, Note_on_c, 13, 54, 0
16, 180000, Note_on_c, 13, 59, 110
16, 180059, Note_on_c, 13, 59, 0
16, 180060, Note_on_c, 13, 54, 110
16, 180119, Note_on_c, 13, 54, 0
16, 180120, Note_on_c, 13, 55, 110
16, 180179, Note_on_c, 13, 55, 0
16, 180180, Note_on_c, 13, 50, 110
16, 180239, Note_on_c, 13, 50, 0
16, 180240, Note_on_c, 13, 52, 110
16, 180299, Note_on_c, 13, 52, 0
16, 180300, Note_on_c, 13, 49, 110
16, 180359, Note_on_c, 13, 49, 0
16, 180360, Note_on_c, 13, 54, 110
16, 180479, Note_on_c, 13, 54, 0
16, 180480, Note_on_c, 13, 47, 110
16, 180599, Note_on_c, 13, 47, 0
16, 182760, Note_on_c, 13, 57, 110
16, 182820, Note_on_c, 13, 57, 0
16, 182820, Note_on_c, 13, 56, 110
16, 182880, Note_on_c, 13, 56, 0
16, 182880, Note_on_c, 13, 57, 110
16, 182940, Note_on_c, 13, 57, 0
16, 182940, Note_on_c, 13, 55, 110
16, 183000, Note_on_c, 13, 55, 0
16, 183000, Note_on_c, 13, 54, 110
16, 183060, Note_on_c, 13, 54, 0
16, 183060, Note_on_c, 13, 50, 110
16, 183120, Note_on_c, 13, 50, 0
16, 183120, Note_on_c, 13, 55, 110
16, 183180, Note_on_c, 13, 55, 0
16, 183180, Note_on_c, 13, 54, 110
16, 183240, Note_on_c, 13, 54, 0
16, 183240, Note_on_c, 13, 52, 110
16, 183300, Note_on_c, 13, 52, 0
16, 183300, Note_on_c, 13, 57, 110
16, 183360, Note_on_c, 13, 57, 0
16, 183360, Note_on_c, 13, 59, 110
16, 183420, Note_on_c, 13, 59, 0
16, 183420, Note_on_c, 13, 57, 110
16, 183480, Note_on_c, 13, 57, 0
16, 183480, Note_on_c, 13, 59, 110
16, 183540, Note_on_c, 13, 59, 0
16, 183540, Note_on_c, 13, 55, 110
16, 183600, Note_on_c, 13, 55, 0
16, 183600, Note_on_c, 13, 50, 110
16, 183720, Note_on_c, 13, 50, 0
16, 184440, Note_on_c, 13, 54, 110
16, 184499, Note_on_c, 13, 54, 0
16, 184500, Note_on_c, 13, 50, 110
16, 184559, Note_on_c, 13, 50, 0
16, 184560, Note_on_c, 13, 55, 110
16, 184679, Note_on_c, 13, 55, 0
16, 184680, Note_on_c, 13, 50, 110
16, 184739, Note_on_c, 13, 50, 0
16, 184740, Note_on_c, 13, 47, 110
16, 184799, Note_on_c, 13, 47, 0
16, 184800, Note_on_c, 13, 52, 110
16, 184919, Note_on_c, 13, 52, 0
16, 184920, Note_on_c, 13, 52, 110
16, 185039, Note_on_c, 13, 52, 0
16, 185040, Note_on_c, 13, 54, 110
16, 185159, Note_on_c, 13, 54, 0
16, 186600, Note_on_c, 13, 56, 110
16, 186659, Note_on_c, 13, 56, 0
16, 186660, Note_on_c, 13, 52, 110
16, 186719, Note_on_c, 13, 52, 0
16, 186720, Note_on_c, 13, 57, 110
16, 186900, Note_on_c, 13, 57, 0
16, 186900, Note_on_c, 13, 56, 110
16, 186959, Note_on_c, 13, 56, 0
16, 186960, Note_on_c, 13, 54, 110
16, 187140, Note_on_c, 13, 54, 0
16, 187140, Note_on_c, 13, 49, 110
16, 187199, Note_on_c, 13, 49, 0
16, 187200, Note_on_c, 13, 50, 110
16, 187259, Note_on_c, 13, 50, 0
16, 187260, Note_on_c, 13, 47, 110
16, 187319, Note_on_c, 13, 47, 0
16, 187320, Note_on_c, 13, 52, 110
16, 187439, Note_on_c, 13, 52, 0
16, 187440, Note_on_c, 13, 45, 110
16, 187559, Note_on_c, 13, 45, 0
16, 189960, Note_on_c, 13, 50, 110
16, 190080, Note_on_c, 13, 50, 0
16, 190080, Note_on_c, 13, 52, 110
16, 190200, Note_on_c, 13, 52, 0
16, 190200, Note_on_c, 13, 54, 110
16, 190259, Note_on_c, 13, 54, 0
16, 190260, Note_on_c, 13, 55, 110
16, 190319, Note_on_c, 13, 55, 0
16, 190320, Note_on_c, 13, 57, 110
16, 190379, Note_on_c, 13, 57, 0
16, 190380, Note_on_c, 13, 55, 110
16, 190439, Note_on_c, 13, 55, 0
16, 190440, Note_on_c, 13, 57, 110
16, 190499, Note_on_c, 13, 57, 0
16, 190500, Note_on_c, 13, 45, 110
16, 190559, Note_on_c, 13, 45, 0
16, 190560, Note_on_c, 13, 50, 110
16, 191040, Note_on_c, 13, 50, 0
16, 191040, End_track
17, 0, Start_track
17, 0, MIDI_port, 0
17, 0, Title_t, "Clave H"
17, 0, Program_c, 14, 19
17, 0, Control_c, 14, 7, 127
17, 0, Control_c, 14, 10, 51
17, 43560, Note_on_c, 14, 59, 80
17, 43560, Note_on_c, 14, 64, 80
17, 44040, Note_on_c, 14, 64, 0
17, 44040, Note_on_c, 14, 59, 0
17, 44040, Note_on_c, 14, 59, 80
17, 44040, Note_on_c, 14, 62, 80
17, 44640, Note_on_c, 14, 62, 0
17, 44640, Note_on_c, 14, 59, 0
17, 44640, Note_on_c, 14, 65, 80
17, 44640, Note_on_c, 14, 61, 80
17, 44999, Note_on_c, 14, 61, 0
17, 44999, Note_on_c, 14, 65, 0
17, 45000, Note_on_c, 14, 61, 80
17, 45000, Note_on_c, 14, 66, 80
17, 45119, Note_on_c, 14, 66, 0
17, 45119, Note_on_c, 14, 61, 0
17, 45120, Note_on_c, 14, 66, 80
17, 45120, Note_on_c, 14, 59, 80
17, 45239, Note_on_c, 14, 59, 0
17, 45239, Note_on_c, 14, 66, 0
17, 45240, Note_on_c, 14, 61, 80
17, 45240, Note_on_c, 14, 65, 80
17, 45479, Note_on_c, 14, 65, 0
17, 45479, Note_on_c, 14, 61, 0
17, 45480, Note_on_c, 14, 58, 80
17, 45480, Note_on_c, 14, 61, 80
17, 45480, Note_on_c, 14, 66, 80
17, 45719, Note_on_c, 14, 66, 0
17, 45719, Note_on_c, 14, 61, 0
17, 45719, Note_on_c, 14, 58, 0
17, 45720, Note_on_c, 14, 59, 80
17, 45720, Note_on_c, 14, 62, 80
17, 45839, Note_on_c, 14, 62, 0
17, 45839, Note_on_c, 14, 59, 0
17, 45840, Note_on_c, 14, 59, 80
17, 45840, Note_on_c, 14, 64, 80
17, 45959, Note_on_c, 14, 64, 0
17, 45959, Note_on_c, 14, 59, 0
17, 45960, Note_on_c, 14, 58, 80
17, 45960, Note_on_c, 14, 61, 80
17, 45960, Note_on_c, 14, 66, 80
17, 46440, Note_on_c, 14, 66, 0
17, 46440, Note_on_c, 14, 64, 80
17, 46920, Note_on_c, 14, 64, 0
17, 46920, Note_on_c, 14, 61, 0
17, 46920, Note_on_c, 14, 58, 0
17, 46920, Note_on_c, 14, 59, 80
17, 46920, Note_on_c, 14, 62, 80
17, 47279, Note_on_c, 14, 62, 0
17, 47279, Note_on_c, 14, 59, 0
17, 47280, Note_on_c, 14, 64, 80
17, 47280, Note_on_c, 14, 61, 80
17, 47280, Note_on_c, 14, 57, 80
17, 47519, Note_on_c, 14, 57, 0
17, 47519, Note_on_c, 14, 61, 0
17, 47519, Note_on_c, 14, 64, 0
17, 47520, Note_on_c, 14, 62, 80
17, 47520, Note_on_c, 14, 66, 80
17, 47759, Note_on_c, 14, 66, 0
17, 47759, Note_on_c, 14, 62, 0
17, 47760, Note_on_c, 14, 62, 80
17, 47760, Note_on_c, 14, 66, 80
17, 47879, Note_on_c, 14, 66, 0
17, 47879, Note_on_c, 14, 62, 0
17, 47880, Note_on_c, 14, 67, 80
17, 47880, Note_on_c, 14, 62, 80
17, 47880, Note_on_c, 14, 59, 80
17, 47999, Note_on_c, 14, 59, 0
17, 47999, Note_on_c, 14, 62, 0
17, 47999, Note_on_c, 14, 67, 0
17, 48000, Note_on_c, 14, 59, 80
17, 48000, Note_on_c, 14, 64, 80
17, 48000, Note_on_c, 14, 62, 80
17, 48119, Note_on_c, 14, 62, 0
17, 48119, Note_on_c, 14, 64, 0
17, 48119, Note_on_c, 14, 59, 0
17, 48240, Note_on_c, 14, 69, 80
17, 48240, Note_on_c, 14, 61, 80
17, 48240, Note_on_c, 14, 64, 80
17, 48329, Note_on_c, 14, 69, 0
17, 48330, Note_on_c, 14, 67, 80
17, 48359, Note_on_c, 14, 64, 0
17, 48359, Note_on_c, 14, 61, 0
17, 48360, Note_on_c, 14, 67, 0
17, 48360, Note_on_c, 14, 57, 80
17, 48360, Note_on_c, 14, 62, 80
17, 48360, Note_on_c, 14, 66, 80
17, 48600, Note_on_c, 14, 66, 0
17, 48600, Note_on_c, 14, 62, 0
17, 48600, Note_on_c, 14, 57, 0
17, 48840, Note_on_c, 14, 62, 60
17, 48840, Note_on_c, 14, 66, 60
17, 49080, Note_on_c, 14, 66, 0
17, 49080, Note_on_c, 14, 62, 0
17, 49080, Note_on_c, 14, 61, 60
17, 49080, Note_on_c, 14, 64, 60
17, 49080, Note_on_c, 14, 67, 60
17, 49320, Note_on_c, 14, 67, 0
17, 49320, Note_on_c, 14, 64, 0
17, 49320, Note_on_c, 14, 61, 0
17, 49320, Note_on_c, 14, 61, 60
17, 49320, Note_on_c, 14, 64, 60
17, 49320, Note_on_c, 14, 70, 60
17, 49560, Note_on_c, 14, 70, 0
17, 49560, Note_on_c, 14, 64, 0
17, 49560, Note_on_c, 14, 61, 0
17, 49560, Note_on_c, 14, 62, 60
17, 49560, Note_on_c, 14, 66, 60
17, 49560, Note_on_c, 14, 71, 60
17, 50040, Note_on_c, 14, 71, 0
17, 50040, Note_on_c, 14, 66, 0
17, 50040, Note_on_c, 14, 62, 0
17, 50040, Note_on_c, 14, 60, 60
17, 50040, Note_on_c, 14, 63, 60
17, 50040, Note_on_c, 14, 66, 60
17, 50280, Note_on_c, 14, 66, 0
17, 50280, Note_on_c, 14, 63, 0
17, 50280, Note_on_c, 14, 60, 0
17, 50280, Note_on_c, 14, 63, 60
17, 50280, Note_on_c, 14, 59, 60
17, 50520, Note_on_c, 14, 59, 0
17, 50520, Note_on_c, 14, 63, 0
17, 50520, Note_on_c, 14, 59, 60
17, 50520, Note_on_c, 14, 64, 60
17, 51120, Note_on_c, 14, 64, 0
17, 51120, Note_on_c, 14, 59, 0
17, 51120, Note_on_c, 14, 65, 60
17, 51120, Note_on_c, 14, 68, 60
17, 51120, Note_on_c, 14, 61, 60
17, 51240, Note_on_c, 14, 61, 0
17, 51240, Note_on_c, 14, 68, 0
17, 51240, Note_on_c, 14, 65, 0
17, 51240, Note_on_c, 14, 61, 60
17, 51240, Note_on_c, 14, 66, 60
17, 51360, Note_on_c, 14, 66, 0
17, 51360, Note_on_c, 14, 61, 0
17, 51360, Note_on_c, 14, 59, 60
17, 51360, Note_on_c, 14, 68, 60
17, 51360, Note_on_c, 14, 66, 60
17, 51480, Note_on_c, 14, 66, 0
17, 51480, Note_on_c, 14, 68, 0
17, 51480, Note_on_c, 14, 59, 0
17, 51600, Note_on_c, 14, 65, 60
17, 51600, Note_on_c, 14, 68, 60
17, 51720, Note_on_c, 14, 68, 0
17, 51720, Note_on_c, 14, 65, 0
17, 51720, Note_on_c, 14, 57, 60
17, 51720, Note_on_c, 14, 61, 60
17, 51720, Note_on_c, 14, 66, 60
17, 52080, Note_on_c, 14, 66, 0
17, 52080, Note_on_c, 14, 61, 0
17, 52080, Note_on_c, 14, 57, 0
17, 52080, Note_on_c, 14, 57, 60
17, 52080, Note_on_c, 14, 67, 60
17, 52680, Note_on_c, 14, 67, 0
17, 52680, Note_on_c, 14, 57, 0
17, 52680, Note_on_c, 14, 58, 60
17, 52680, Note_on_c, 14, 61, 60
17, 52680, Note_on_c, 14, 66, 60
17, 53040, Note_on_c, 14, 66, 0
17, 53040, Note_on_c, 14, 64, 60
17, 53400, Note_on_c, 14, 64, 0
17, 53400, Note_on_c, 14, 61, 0
17, 53400, Note_on_c, 14, 58, 0
17, 53400, Note_on_c, 14, 62, 60
17, 53400, Note_on_c, 14, 66, 60
17, 53520, Note_on_c, 14, 66, 0
17, 53520, Note_on_c, 14, 68, 60
17, 53640, Note_on_c, 14, 68, 0
17, 53640, Note_on_c, 14, 62, 0
17, 53640, Note_on_c, 14, 61, 60
17, 53640, Note_on_c, 14, 64, 60
17, 53640, Note_on_c, 14, 69, 60
17, 53760, Note_on_c, 14, 69, 0
17, 53760, Note_on_c, 14, 64, 0
17, 53760, Note_on_c, 14, 61, 0
17, 53760, Note_on_c, 14, 59, 60
17, 53760, Note_on_c, 14, 62, 60
17, 53760, Note_on_c, 14, 68, 60
17, 53880, Note_on_c, 14, 68, 0
17, 53880, Note_on_c, 14, 62, 0
17, 53880, Note_on_c, 14, 59, 0
17, 53880, Note_on_c, 14, 61, 60
17, 53880, Note_on_c, 14, 64, 60
17, 53880, Note_on_c, 14, 69, 60
17, 54120, Note_on_c, 14, 69, 0
17, 54120, Note_on_c, 14, 64, 0
17, 54120, Note_on_c, 14, 61, 0
17, 97080, Note_on_c, 14, 67, 80
17, 97140, Note_on_c, 14, 67, 0
17, 97140, Note_on_c, 14, 69, 80
17, 97200, Note_on_c, 14, 69, 0
17, 97200, Note_on_c, 14, 64, 80
17, 97200, Note_on_c, 14, 67, 80
17, 97320, Note_on_c, 14, 67, 0
17, 97320, Note_on_c, 14, 64, 0
17, 97320, Note_on_c, 14, 64, 80
17, 97320, Note_on_c, 14, 67, 80
17, 97440, Note_on_c, 14, 67, 0
17, 97440, Note_on_c, 14, 64, 0
17, 97440, Note_on_c, 14, 67, 80
17, 97440, Note_on_c, 14, 64, 80
17, 97440, Note_on_c, 14, 69, 80
17, 97500, Note_on_c, 14, 67, 0
17, 97500, Note_on_c, 14, 66, 80
17, 97500, Note_on_c, 14, 62, 80
17, 97560, Note_on_c, 14, 62, 0
17, 97560, Note_on_c, 14, 64, 0
17, 97560, Note_on_c, 14, 69, 0
17, 97560, Note_on_c, 14, 66, 0
17, 97560, Note_on_c, 14, 67, 80
17, 97560, Note_on_c, 14, 62, 80
17, 97620, Note_on_c, 14, 67, 0
17, 97620, Note_on_c, 14, 67, 80
17, 97620, Note_on_c, 14, 66, 80
17, 97680, Note_on_c, 14, 66, 0
17, 97680, Note_on_c, 14, 67, 0
17, 97680, Note_on_c, 14, 62, 0
17, 97680, Note_on_c, 14, 69, 80
17, 97680, Note_on_c, 14, 67, 80
17, 97680, Note_on_c, 14, 64, 80
17, 97800, Note_on_c, 14, 64, 0
17, 97800, Note_on_c, 14, 67, 0
17, 97800, Note_on_c, 14, 69, 0
17, 97800, Note_on_c, 14, 69, 80
17, 97800, Note_on_c, 14, 62, 80
17, 97800, Note_on_c, 14, 66, 80
17, 97920, Note_on_c, 14, 66, 0
17, 97920, Note_on_c, 14, 62, 0
17, 97920, Note_on_c, 14, 69, 0
17, 97920, Note_on_c, 14, 59, 80
17, 97920, Note_on_c, 14, 62, 80
17, 97920, Note_on_c, 14, 67, 80
17, 98028, Note_on_c, 14, 67, 0
17, 98028, Note_on_c, 14, 62, 0
17, 98028, Note_on_c, 14, 59, 0
17, 98040, Note_on_c, 14, 67, 80
17, 98040, Note_on_c, 14, 64, 80
17, 98100, Note_on_c, 14, 64, 0
17, 98100, Note_on_c, 14, 67, 0
17, 98100, Note_on_c, 14, 69, 80
17, 98100, Note_on_c, 14, 66, 80
17, 98160, Note_on_c, 14, 66, 0
17, 98160, Note_on_c, 14, 69, 0
17, 98160, Note_on_c, 14, 67, 80
17, 98160, Note_on_c, 14, 71, 80
17, 98280, Note_on_c, 14, 71, 0
17, 98280, Note_on_c, 14, 67, 0
17, 98280, Note_on_c, 14, 72, 80
17, 98280, Note_on_c, 14, 71, 80
17, 98340, Note_on_c, 14, 71, 0
17, 98340, Note_on_c, 14, 72, 0
17, 98340, Note_on_c, 14, 69, 80
17, 98370, Note_on_c, 14, 69, 0
17, 98370, Note_on_c, 14, 67, 80
17, 98400, Note_on_c, 14, 67, 0
17, 98400, Note_on_c, 14, 66, 80
17, 98460, Note_on_c, 14, 66, 0
17, 98460, Note_on_c, 14, 62, 80
17, 98460, Note_on_c, 14, 69, 80
17, 98520, Note_on_c, 14, 69, 0
17, 98520, Note_on_c, 14, 62, 0
17, 98520, Note_on_c, 14, 60, 80
17, 98520, Note_on_c, 14, 67, 80
17, 98580, Note_on_c, 14, 67, 0
17, 98580, Note_on_c, 14, 60, 0
17, 98580, Note_on_c, 14, 59, 80
17, 98580, Note_on_c, 14, 67, 80
17, 98640, Note_on_c, 14, 67, 0
17, 98640, Note_on_c, 14, 59, 0
17, 98640, Note_on_c, 14, 62, 80
17, 98640, Note_on_c, 14, 67, 80
17, 98760, Note_on_c, 14, 67, 0
17, 98760, Note_on_c, 14, 62, 0
17, 98760, Note_on_c, 14, 62, 80
17, 98760, Note_on_c, 14, 66, 80
17, 98880, Note_on_c, 14, 66, 0
17, 98880, Note_on_c, 14, 62, 0
17, 98880, Note_on_c, 14, 62, 80
17, 98880, Note_on_c, 14, 67, 80
17, 98988, Note_on_c, 14, 67, 0
17, 98988, Note_on_c, 14, 62, 0
17, 99000, Note_on_c, 14, 67, 80
17, 99060, Note_on_c, 14, 67, 0
17, 99060, Note_on_c, 14, 69, 80
17, 99120, Note_on_c, 14, 69, 0
17, 99120, Note_on_c, 14, 64, 80
17, 99120, Note_on_c, 14, 67, 80
17, 99240, Note_on_c, 14, 67, 0
17, 99240, Note_on_c, 14, 64, 0
17, 99240, Note_on_c, 14, 64, 80
17, 99240, Note_on_c, 14, 67, 80
17, 99360, Note_on_c, 14, 67, 0
17, 99360, Note_on_c, 14, 64, 0
17, 99360, Note_on_c, 14, 67, 80
17, 99360, Note_on_c, 14, 64, 80
17, 99360, Note_on_c, 14, 69, 80
17, 99420, Note_on_c, 14, 67, 0
17, 99420, Note_on_c, 14, 66, 80
17, 99420, Note_on_c, 14, 62, 80
17, 99480, Note_on_c, 14, 62, 0
17, 99480, Note_on_c, 14, 64, 0
17, 99480, Note_on_c, 14, 69, 0
17, 99480, Note_on_c, 14, 66, 0
17, 99480, Note_on_c, 14, 67, 80
17, 99480, Note_on_c, 14, 62, 80
17, 99540, Note_on_c, 14, 67, 0
17, 99540, Note_on_c, 14, 67, 80
17, 99540, Note_on_c, 14, 66, 80
17, 99600, Note_on_c, 14, 66, 0
17, 99600, Note_on_c, 14, 67, 0
17, 99600, Note_on_c, 14, 62, 0
17, 99600, Note_on_c, 14, 69, 80
17, 99600, Note_on_c, 14, 67, 80
17, 99600, Note_on_c, 14, 64, 80
17, 99720, Note_on_c, 14, 64, 0
17, 99720, Note_on_c, 14, 67, 0
17, 99720, Note_on_c, 14, 69, 0
17, 99720, Note_on_c, 14, 69, 80
17, 99720, Note_on_c, 14, 62, 80
17, 99720, Note_on_c, 14, 66, 80
17, 99840, Note_on_c, 14, 66, 0
17, 99840, Note_on_c, 14, 62, 0
17, 99840, Note_on_c, 14, 69, 0
17, 99840, Note_on_c, 14, 59, 80
17, 99840, Note_on_c, 14, 62, 80
17, 99840, Note_on_c, 14, 67, 80
17, 99948, Note_on_c, 14, 67, 0
17, 99948, Note_on_c, 14, 62, 0
17, 99948, Note_on_c, 14, 59, 0
17, 99960, Note_on_c, 14, 67, 80
17, 99960, Note_on_c, 14, 64, 80
17, 100020, Note_on_c, 14, 64, 0
17, 100020, Note_on_c, 14, 67, 0
17, 100020, Note_on_c, 14, 69, 80
17, 100020, Note_on_c, 14, 66, 80
17, 100080, Note_on_c, 14, 66, 0
17, 100080, Note_on_c, 14, 69, 0
17, 100080, Note_on_c, 14, 67, 80
17, 100080, Note_on_c, 14, 71, 80
17, 100200, Note_on_c, 14, 71, 0
17, 100200, Note_on_c, 14, 67, 0
17, 100200, Note_on_c, 14, 72, 80
17, 100200, Note_on_c, 14, 71, 80
17, 100260, Note_on_c, 14, 71, 0
17, 100260, Note_on_c, 14, 72, 0
17, 100260, Note_on_c, 14, 69, 80
17, 100290, Note_on_c, 14, 69, 0
17, 100290, Note_on_c, 14, 67, 80
17, 100320, Note_on_c, 14, 67, 0
17, 100320, Note_on_c, 14, 66, 80
17, 100380, Note_on_c, 14, 66, 0
17, 100380, Note_on_c, 14, 62, 80
17, 100380, Note_on_c, 14, 69, 80
17, 100440, Note_on_c, 14, 69, 0
17, 100440, Note_on_c, 14, 62, 0
17, 100440, Note_on_c, 14, 60, 80
17, 100440, Note_on_c, 14, 67, 80
17, 100500, Note_on_c, 14, 67, 0
17, 100500, Note_on_c, 14, 60, 0
17, 100500, Note_on_c, 14, 59, 80
17, 100500, Note_on_c, 14, 67, 80
17, 100560, Note_on_c, 14, 67, 0
17, 100560, Note_on_c, 14, 59, 0
17, 100560, Note_on_c, 14, 62, 80
17, 100560, Note_on_c, 14, 67, 80
17, 100680, Note_on_c, 14, 67, 0
17, 100680, Note_on_c, 14, 62, 0
17, 100680, Note_on_c, 14, 62, 80
17, 100680, Note_on_c, 14, 66, 80
17, 100800, Note_on_c, 14, 66, 0
17, 100800, Note_on_c, 14, 62, 0
17, 100800, Note_on_c, 14, 62, 80
17, 100800, Note_on_c, 14, 67, 80
17, 100908, Note_on_c, 14, 67, 0
17, 100908, Note_on_c, 14, 62, 0
17, 100920, Note_on_c, 14, 71, 80
17, 100920, Note_on_c, 14, 67, 80
17, 100980, Note_on_c, 14, 67, 0
17, 100980, Note_on_c, 14, 71, 0
17, 100980, Note_on_c, 14, 72, 80
17, 100980, Note_on_c, 14, 69, 80
17, 101040, Note_on_c, 14, 69, 0
17, 101040, Note_on_c, 14, 72, 0
17, 101040, Note_on_c, 14, 67, 80
17, 101040, Note_on_c, 14, 71, 80
17, 101160, Note_on_c, 14, 71, 0
17, 101160, Note_on_c, 14, 67, 0
17, 101160, Note_on_c, 14, 67, 80
17, 101160, Note_on_c, 14, 69, 80
17, 101220, Note_on_c, 14, 67, 0
17, 101220, Note_on_c, 14, 66, 80
17, 101280, Note_on_c, 14, 66, 0
17, 101280, Note_on_c, 14, 69, 0
17, 101280, Note_on_c, 14, 66, 80
17, 101280, Note_on_c, 14, 67, 80
17, 101340, Note_on_c, 14, 66, 0
17, 101340, Note_on_c, 14, 64, 80
17, 101340, Note_on_c, 14, 67, 80
17, 101400, Note_on_c, 14, 67, 0
17, 101400, Note_on_c, 14, 64, 0
17, 101400, Note_on_c, 14, 67, 0
17, 101400, Note_on_c, 14, 64, 80
17, 101400, Note_on_c, 14, 66, 80
17, 101460, Note_on_c, 14, 64, 0
17, 101460, Note_on_c, 14, 63, 80
17, 101520, Note_on_c, 14, 63, 0
17, 101520, Note_on_c, 14, 66, 0
17, 101520, Note_on_c, 14, 64, 80
17, 101520, Note_on_c, 14, 67, 80
17, 101580, Note_on_c, 14, 67, 0
17, 101580, Note_on_c, 14, 66, 80
17, 101640, Note_on_c, 14, 66, 0
17, 101640, Note_on_c, 14, 64, 0
17, 101640, Note_on_c, 14, 62, 80
17, 101640, Note_on_c, 14, 67, 80
17, 101760, Note_on_c, 14, 67, 0
17, 101760, Note_on_c, 14, 62, 0
17, 101760, Note_on_c, 14, 62, 80
17, 101760, Note_on_c, 14, 66, 80
17, 101868, Note_on_c, 14, 66, 0
17, 101868, Note_on_c, 14, 62, 0
17, 101880, Note_on_c, 14, 62, 80
17, 101880, Note_on_c, 14, 69, 80
17, 102000, Note_on_c, 14, 69, 0
17, 102000, Note_on_c, 14, 62, 0
17, 102000, Note_on_c, 14, 62, 80
17, 102000, Note_on_c, 14, 67, 80
17, 102120, Note_on_c, 14, 67, 0
17, 102120, Note_on_c, 14, 62, 0
17, 102120, Note_on_c, 14, 62, 80
17, 102120, Note_on_c, 14, 66, 80
17, 102240, Note_on_c, 14, 66, 0
17, 102240, Note_on_c, 14, 62, 0
17, 102240, Note_on_c, 14, 62, 80
17, 102240, Note_on_c, 14, 67, 80
17, 102300, Note_on_c, 14, 62, 0
17, 102300, Note_on_c, 14, 60, 80
17, 102360, Note_on_c, 14, 60, 0
17, 102360, Note_on_c, 14, 67, 0
17, 102360, Note_on_c, 14, 67, 80
17, 102360, Note_on_c, 14, 59, 80
17, 102480, Note_on_c, 14, 59, 0
17, 102480, Note_on_c, 14, 67, 0
17, 102480, Note_on_c, 14, 59, 80
17, 102480, Note_on_c, 14, 67, 80
17, 102600, Note_on_c, 14, 67, 0
17, 102600, Note_on_c, 14, 59, 0
17, 102600, Note_on_c, 14, 66, 80
17, 102600, Note_on_c, 14, 69, 80
17, 102660, Note_on_c, 14, 66, 0
17, 102660, Note_on_c, 14, 64, 80
17, 102720, Note_on_c, 14, 64, 0
17, 102720, Note_on_c, 14, 69, 0
17, 102720, Note_on_c, 14, 66, 80
17, 102720, Note_on_c, 14, 63, 80
17, 102828, Note_on_c, 14, 63, 0
17, 102828, Note_on_c, 14, 66, 0
17, 102840, Note_on_c, 14, 71, 80
17, 102840, Note_on_c, 14, 67, 80
17, 102900, Note_on_c, 14, 67, 0
17, 102900, Note_on_c, 14, 71, 0
17, 102900, Note_on_c, 14, 72, 80
17, 102900, Note_on_c, 14, 69, 80
17, 102960, Note_on_c, 14, 69, 0
17, 102960, Note_on_c, 14, 72, 0
17, 102960, Note_on_c, 14, 71, 80
17, 102960, Note_on_c, 14, 67, 80
17, 103080, Note_on_c, 14, 67, 0
17, 103080, Note_on_c, 14, 71, 0
17, 103080, Note_on_c, 14, 67, 80
17, 103140, Note_on_c, 14, 67, 0
17, 103140, Note_on_c, 14, 69, 80
17, 103200, Note_on_c, 14, 69, 0
17, 103200, Note_on_c, 14, 67, 80
17, 103200, Note_on_c, 14, 71, 80
17, 103260, Note_on_c, 14, 71, 0
17, 103260, Note_on_c, 14, 67, 0
17, 103260, Note_on_c, 14, 66, 80
17, 103320, Note_on_c, 14, 66, 0
17, 103320, Note_on_c, 14, 71, 80
17, 103320, Note_on_c, 14, 67, 80
17, 103440, Note_on_c, 14, 67, 0
17, 103440, Note_on_c, 14, 71, 0
17, 103440, Note_on_c, 14, 62, 80
17, 103440, Note_on_c, 14, 67, 80
17, 103560, Note_on_c, 14, 67, 0
17, 103560, Note_on_c, 14, 62, 0
17, 103560, Note_on_c, 14, 62, 80
17, 103560, Note_on_c, 14, 66, 80
17, 103680, Note_on_c, 14, 66, 0
17, 103680, Note_on_c, 14, 62, 0
17, 103680, Note_on_c, 14, 59, 80
17, 103680, Note_on_c, 14, 62, 80
17, 103680, Note_on_c, 14, 67, 80
17, 103800, Note_on_c, 14, 67, 0
17, 103800, Note_on_c, 14, 62, 0
17, 103800, Note_on_c, 14, 59, 0
17, 103920, Note_on_c, 14, 66, 60
17, 103920, Note_on_c, 14, 71, 60
17, 104400, Note_on_c, 14, 71, 0
17, 104400, Note_on_c, 14, 66, 0
17, 104400, Note_on_c, 14, 72, 60
17, 104400, Note_on_c, 14, 69, 60
17, 104880, Note_on_c, 14, 69, 0
17, 104880, Note_on_c, 14, 72, 0
17, 104880, Note_on_c, 14, 71, 60
17, 104880, Note_on_c, 14, 69, 60
17, 105120, Note_on_c, 14, 69, 0
17, 105120, Note_on_c, 14, 71, 0
17, 105120, Note_on_c, 14, 67, 60
17, 105120, Note_on_c, 14, 71, 60
17, 105360, Note_on_c, 14, 71, 0
17, 105360, Note_on_c, 14, 67, 0
17, 105360, Note_on_c, 14, 71, 60
17, 105360, Note_on_c, 14, 67, 60
17, 105360, Note_on_c, 14, 64, 60
17, 105600, Note_on_c, 14, 64, 0
17, 105600, Note_on_c, 14, 67, 0
17, 105600, Note_on_c, 14, 71, 0
17, 105600, Note_on_c, 14, 62, 60
17, 105600, Note_on_c, 14, 71, 60
17, 105840, Note_on_c, 14, 71, 0
17, 105840, Note_on_c, 14, 62, 0
17, 105840, Note_on_c, 14, 69, 60
17, 105840, Note_on_c, 14, 66, 60
17, 105840, Note_on_c, 14, 61, 60
17, 105960, Note_on_c, 14, 61, 0
17, 105960, Note_on_c, 14, 66, 0
17, 105960, Note_on_c, 14, 69, 0
17, 105960, Note_on_c, 14, 66, 60
17, 105960, Note_on_c, 14, 62, 60
17, 105960, Note_on_c, 14, 71, 60
17, 106200, Note_on_c, 14, 71, 0
17, 106200, Note_on_c, 14, 62, 0
17, 106200, Note_on_c, 14, 66, 0
17, 106200, Note_on_c, 14, 65, 60
17, 106200, Note_on_c, 14, 73, 60
17, 106320, Note_on_c, 14, 73, 0
17, 106320, Note_on_c, 14, 65, 0
17, 106320, Note_on_c, 14, 69, 70
17, 106320, Note_on_c, 14, 66, 70
17, 106560, Note_on_c, 14, 66, 0
17, 106560, Note_on_c, 14, 69, 0
17, 106560, Note_on_c, 14, 62, 70
17, 106560, Note_on_c, 14, 71, 70
17, 106680, Note_on_c, 14, 71, 0
17, 106680, Note_on_c, 14, 62, 0
17, 106680, Note_on_c, 14, 65, 70
17, 106680, Note_on_c, 14, 68, 70
17, 106680, Note_on_c, 14, 71, 70
17, 107040, Note_on_c, 14, 71, 0
17, 107040, Note_on_c, 14, 68, 0
17, 107040, Note_on_c, 14, 65, 0
17, 107040, Note_on_c, 14, 61, 70
17, 107040, Note_on_c, 14, 66, 70
17, 107040, Note_on_c, 14, 69, 70
17, 107520, Note_on_c, 14, 69, 0
17, 107520, Note_on_c, 14, 66, 0
17, 107520, Note_on_c, 14, 61, 0
17, 107520, Note_on_c, 14, 69, 70
17, 107520, Note_on_c, 14, 64, 70
17, 107520, Note_on_c, 14, 67, 70
17, 107760, Note_on_c, 14, 67, 0
17, 107760, Note_on_c, 14, 64, 0
17, 107760, Note_on_c, 14, 69, 0
17, 107760, Note_on_c, 14, 69, 70
17, 107760, Note_on_c, 14, 64, 70
17, 107879, Note_on_c, 14, 64, 0
17, 107879, Note_on_c, 14, 69, 0
17, 107880, Note_on_c, 14, 68, 70
17, 107880, Note_on_c, 14, 62, 70
17, 107940, Note_on_c, 14, 68, 0
17, 107940, Note_on_c, 14, 69, 70
17, 107999, Note_on_c, 14, 62, 0
17, 108000, Note_on_c, 14, 69, 0
17, 108120, Note_on_c, 14, 64, 90
17, 108120, Note_on_c, 14, 68, 90
17, 108180, Note_on_c, 14, 68, 0
17, 108180, Note_on_c, 14, 64, 0
17, 108180, Note_on_c, 14, 61, 90
17, 108180, Note_on_c, 14, 69, 90
17, 108210, Note_on_c, 14, 69, 0
17, 108210, Note_on_c, 14, 61, 0
17, 108210, Note_on_c, 14, 59, 90
17, 108210, Note_on_c, 14, 68, 90
17, 108240, Note_on_c, 14, 68, 0
17, 108240, Note_on_c, 14, 59, 0
17, 108240, Note_on_c, 14, 57, 90
17, 108240, Note_on_c, 14, 69, 90
17, 108240, Note_on_c, 14, 61, 90
17, 108719, Note_on_c, 14, 61, 0
17, 108719, Note_on_c, 14, 69, 0
17, 108719, Note_on_c, 14, 57, 0
17, 108720, Note_on_c, 14, 62, 70
17, 108720, Note_on_c, 14, 67, 70
17, 109199, Note_on_c, 14, 67, 0
17, 109199, Note_on_c, 14, 62, 0
17, 109200, Note_on_c, 14, 71, 70
17, 109200, Note_on_c, 14, 62, 70
17, 109439, Note_on_c, 14, 62, 0
17, 109439, Note_on_c, 14, 71, 0
17, 109440, Note_on_c, 14, 67, 70
17, 109440, Note_on_c, 14, 64, 70
17, 109679, Note_on_c, 14, 64, 0
17, 109679, Note_on_c, 14, 67, 0
17, 109680, Note_on_c, 14, 62, 70
17, 109680, Note_on_c, 14, 66, 70
17, 109800, Note_on_c, 14, 66, 0
17, 109800, Note_on_c, 14, 62, 0
17, 109800, Note_on_c, 14, 70, 90
17, 109860, Note_on_c, 14, 70, 0
17, 109860, Note_on_c, 14, 74, 90
17, 109860, Note_on_c, 14, 65, 90
17, 109920, Note_on_c, 14, 65, 0
17, 109920, Note_on_c, 14, 74, 0
17, 109920, Note_on_c, 14, 73, 70
17, 109920, Note_on_c, 14, 66, 70
17, 110640, Note_on_c, 14, 66, 0
17, 110640, Note_on_c, 14, 73, 0
17, 110640, Note_on_c, 14, 73, 70
17, 110640, Note_on_c, 14, 66, 70
17, 110640, Note_on_c, 14, 64, 70
17, 110880, Note_on_c, 14, 64, 0
17, 110880, Note_on_c, 14, 66, 0
17, 110880, Note_on_c, 14, 73, 0
17, 110880, Note_on_c, 14, 71, 70
17, 110880, Note_on_c, 14, 62, 70
17, 110880, Note_on_c, 14, 66, 70
17, 110939, Note_on_c, 14, 66, 0
17, 110939, Note_on_c, 14, 62, 0
17, 110939, Note_on_c, 14, 71, 0
17, 110940, Note_on_c, 14, 67, 90
17, 110999, Note_on_c, 14, 67, 0
17, 111000, Note_on_c, 14, 66, 90
17, 111059, Note_on_c, 14, 66, 0
17, 111060, Note_on_c, 14, 64, 90
17, 111119, Note_on_c, 14, 64, 0
17, 111120, Note_on_c, 14, 66, 70
17, 111120, Note_on_c, 14, 62, 70
17, 111480, Note_on_c, 14, 62, 0
17, 111480, Note_on_c, 14, 66, 0
17, 111480, Note_on_c, 14, 66, 70
17, 111480, Note_on_c, 14, 60, 70
17, 111600, Note_on_c, 14, 60, 0
17, 111600, Note_on_c, 14, 66, 0
17, 111600, Note_on_c, 14, 63, 70
17, 111600, Note_on_c, 14, 66, 70
17, 111600, Note_on_c, 14, 59, 70
17, 111840, Note_on_c, 14, 59, 0
17, 111840, Note_on_c, 14, 66, 0
17, 111840, Note_on_c, 14, 63, 0
17, 111840, Note_on_c, 14, 57, 70
17, 111840, Note_on_c, 14, 60, 70
17, 112140, Note_on_c, 14, 60, 0
17, 112140, Note_on_c, 14, 57, 0
17, 112140, Note_on_c, 14, 63, 90
17, 112140, Note_on_c, 14, 59, 90
17, 112200, Note_on_c, 14, 59, 0
17, 112200, Note_on_c, 14, 63, 0
17, 112200, Note_on_c, 14, 64, 90
17, 112260, Note_on_c, 14, 64, 0
17, 112260, Note_on_c, 14, 63, 90
17, 112320, Note_on_c, 14, 63, 0
17, 112320, Note_on_c, 14, 63, 70
17, 112320, Note_on_c, 14, 66, 70
17, 112559, Note_on_c, 14, 66, 0
17, 112559, Note_on_c, 14, 63, 0
17, 112560, Note_on_c, 14, 68, 70
17, 112560, Note_on_c, 14, 64, 70
17, 112799, Note_on_c, 14, 64, 0
17, 112799, Note_on_c, 14, 68, 0
17, 112800, Note_on_c, 14, 65, 70
17, 112980, Note_on_c, 14, 65, 0
17, 112980, Note_on_c, 14, 66, 70
17, 112980, Note_on_c, 14, 62, 70
17, 112980, Note_on_c, 14, 59, 70
17, 113040, Note_on_c, 14, 59, 0
17, 113040, Note_on_c, 14, 62, 0
17, 113040, Note_on_c, 14, 66, 0
17, 116580, Note_on_c, 14, 59, 80
17, 116639, Note_on_c, 14, 59, 0
17, 116640, Note_on_c, 14, 62, 80
17, 116640, Note_on_c, 14, 66, 80
17, 116759, Note_on_c, 14, 66, 0
17, 116759, Note_on_c, 14, 62, 0
17, 116880, Note_on_c, 14, 59, 80
17, 116880, Note_on_c, 14, 62, 80
17, 116999, Note_on_c, 14, 62, 0
17, 116999, Note_on_c, 14, 59, 0
17, 117180, Note_on_c, 14, 61, 80
17, 117180, Note_on_c, 14, 71, 80
17, 117239, Note_on_c, 14, 71, 0
17, 117239, Note_on_c, 14, 61, 0
17, 117240, Note_on_c, 14, 74, 80
17, 117240, Note_on_c, 14, 62, 80
17, 117299, Note_on_c, 14, 62, 0
17, 117299, Note_on_c, 14, 74, 0
17, 117300, Note_on_c, 14, 61, 80
17, 117300, Note_on_c, 14, 70, 80
17, 117359, Note_on_c, 14, 70, 0
17, 117359, Note_on_c, 14, 61, 0
17, 117360, Note_on_c, 14, 66, 80
17, 117360, Note_on_c, 14, 71, 80
17, 117419, Note_on_c, 14, 71, 0
17, 117419, Note_on_c, 14, 66, 0
17, 117420, Note_on_c, 14, 70, 80
17, 117479, Note_on_c, 14, 70, 0
17, 117480, Note_on_c, 14, 66, 80
17, 117480, Note_on_c, 14, 71, 80
17, 117539, Note_on_c, 14, 71, 0
17, 117539, Note_on_c, 14, 66, 0
17, 117540, Note_on_c, 14, 59, 60
17, 117540, Note_on_c, 14, 66, 60
17, 117599, Note_on_c, 14, 66, 0
17, 117599, Note_on_c, 14, 59, 0
17, 117600, Note_on_c, 14, 62, 60
17, 117600, Note_on_c, 14, 66, 60
17, 117719, Note_on_c, 14, 66, 0
17, 117719, Note_on_c, 14, 62, 0
17, 117840, Note_on_c, 14, 59, 60
17, 117840, Note_on_c, 14, 62, 60
17, 117959, Note_on_c, 14, 62, 0
17, 117959, Note_on_c, 14, 59, 0
17, 118140, Note_on_c, 14, 61, 60
17, 118140, Note_on_c, 14, 71, 60
17, 118199, Note_on_c, 14, 71, 0
17, 118199, Note_on_c, 14, 61, 0
17, 118200, Note_on_c, 14, 71, 60
17, 118200, Note_on_c, 14, 62, 60
17, 118259, Note_on_c, 14, 62, 0
17, 118259, Note_on_c, 14, 71, 0
17, 118260, Note_on_c, 14, 66, 60
17, 118260, Note_on_c, 14, 70, 60
17, 118319, Note_on_c, 14, 70, 0
17, 118319, Note_on_c, 14, 66, 0
17, 118320, Note_on_c, 14, 71, 60
17, 118320, Note_on_c, 14, 62, 60
17, 118379, Note_on_c, 14, 62, 0
17, 118379, Note_on_c, 14, 71, 0
17, 118380, Note_on_c, 14, 64, 60
17, 118439, Note_on_c, 14, 64, 0
17, 118440, Note_on_c, 14, 66, 60
17, 118499, Note_on_c, 14, 66, 0
17, 118500, Note_on_c, 14, 62, 80
17, 118559, Note_on_c, 14, 62, 0
17, 118560, Note_on_c, 14, 62, 80
17, 118560, Note_on_c, 14, 65, 80
17, 118619, Note_on_c, 14, 65, 0
17, 118619, Note_on_c, 14, 62, 0
17, 118620, Note_on_c, 14, 61, 80
17, 118620, Note_on_c, 14, 66, 80
17, 118679, Note_on_c, 14, 66, 0
17, 118679, Note_on_c, 14, 61, 0
17, 118740, Note_on_c, 14, 65, 80
17, 118740, Note_on_c, 14, 59, 80
17, 118799, Note_on_c, 14, 59, 0
17, 118799, Note_on_c, 14, 65, 0
17, 118800, Note_on_c, 14, 65, 80
17, 118859, Note_on_c, 14, 65, 0
17, 118860, Note_on_c, 14, 66, 80
17, 118919, Note_on_c, 14, 66, 0
17, 118920, Note_on_c, 14, 66, 80
17, 118979, Note_on_c, 14, 66, 0
17, 118980, Note_on_c, 14, 69, 80
17, 119039, Note_on_c, 14, 69, 0
17, 119040, Note_on_c, 14, 69, 80
17, 119099, Note_on_c, 14, 69, 0
17, 119100, Note_on_c, 14, 68, 80
17, 119159, Note_on_c, 14, 68, 0
17, 119220, Note_on_c, 14, 60, 80
17, 119279, Note_on_c, 14, 60, 0
17, 119280, Note_on_c, 14, 60, 80
17, 119339, Note_on_c, 14, 60, 0
17, 119340, Note_on_c, 14, 61, 80
17, 119399, Note_on_c, 14, 61, 0
17, 119460, Note_on_c, 14, 65, 80
17, 119519, Note_on_c, 14, 65, 0
17, 119520, Note_on_c, 14, 61, 80
17, 119520, Note_on_c, 14, 66, 80
17, 119579, Note_on_c, 14, 66, 0
17, 119579, Note_on_c, 14, 61, 0
17, 119580, Note_on_c, 14, 66, 80
17, 119639, Note_on_c, 14, 66, 0
17, 119640, Note_on_c, 14, 59, 80
17, 119640, Note_on_c, 14, 66, 80
17, 119699, Note_on_c, 14, 66, 0
17, 119699, Note_on_c, 14, 59, 0
17, 119700, Note_on_c, 14, 65, 80
17, 119759, Note_on_c, 14, 65, 0
17, 119760, Note_on_c, 14, 61, 80
17, 119760, Note_on_c, 14, 66, 80
17, 119819, Note_on_c, 14, 66, 0
17, 119819, Note_on_c, 14, 61, 0
17, 119880, Note_on_c, 14, 68, 80
17, 119880, Note_on_c, 14, 61, 80
17, 119939, Note_on_c, 14, 61, 0
17, 119939, Note_on_c, 14, 68, 0
17, 119940, Note_on_c, 14, 59, 80
17, 119999, Note_on_c, 14, 59, 0
17, 120000, Note_on_c, 14, 66, 80
17, 120000, Note_on_c, 14, 61, 80
17, 120059, Note_on_c, 14, 61, 0
17, 120059, Note_on_c, 14, 66, 0
17, 120060, Note_on_c, 14, 66, 80
17, 120119, Note_on_c, 14, 66, 0
17, 120120, Note_on_c, 14, 69, 80
17, 120179, Note_on_c, 14, 69, 0
17, 120180, Note_on_c, 14, 65, 80
17, 120239, Note_on_c, 14, 65, 0
17, 120240, Note_on_c, 14, 61, 80
17, 120240, Note_on_c, 14, 66, 80
17, 120299, Note_on_c, 14, 66, 0
17, 120299, Note_on_c, 14, 61, 0
17, 120420, Note_on_c, 14, 59, 80
17, 120479, Note_on_c, 14, 59, 0
17, 120480, Note_on_c, 14, 62, 65
17, 120480, Note_on_c, 14, 66, 65
17, 120599, Note_on_c, 14, 66, 0
17, 120599, Note_on_c, 14, 62, 0
17, 120720, Note_on_c, 14, 59, 65
17, 120720, Note_on_c, 14, 62, 65
17, 120839, Note_on_c, 14, 62, 0
17, 120839, Note_on_c, 14, 59, 0
17, 121020, Note_on_c, 14, 73, 65
17, 121020, Note_on_c, 14, 61, 65
17, 121079, Note_on_c, 14, 61, 0
17, 121079, Note_on_c, 14, 73, 0
17, 121080, Note_on_c, 14, 71, 65
17, 121080, Note_on_c, 14, 62, 65
17, 121139, Note_on_c, 14, 62, 0
17, 121139, Note_on_c, 14, 71, 0
17, 121140, Note_on_c, 14, 70, 65
17, 121140, Note_on_c, 14, 61, 65
17, 121199, Note_on_c, 14, 61, 0
17, 121199, Note_on_c, 14, 70, 0
17, 121200, Note_on_c, 14, 71, 65
17, 121200, Note_on_c, 14, 62, 65
17, 121259, Note_on_c, 14, 62, 0
17, 121259, Note_on_c, 14, 71, 0
17, 121260, Note_on_c, 14, 64, 65
17, 121319, Note_on_c, 14, 64, 0
17, 121320, Note_on_c, 14, 66, 65
17, 121379, Note_on_c, 14, 66, 0
17, 121380, Note_on_c, 14, 62, 65
17, 121439, Note_on_c, 14, 62, 0
17, 121440, Note_on_c, 14, 62, 65
17, 121440, Note_on_c, 14, 66, 65
17, 121559, Note_on_c, 14, 66, 0
17, 121559, Note_on_c, 14, 62, 0
17, 121680, Note_on_c, 14, 59, 65
17, 121680, Note_on_c, 14, 62, 65
17, 121799, Note_on_c, 14, 62, 0
17, 121799, Note_on_c, 14, 59, 0
17, 121980, Note_on_c, 14, 64, 65
17, 121980, Note_on_c, 14, 61, 65
17, 122039, Note_on_c, 14, 61, 0
17, 122039, Note_on_c, 14, 64, 0
17, 122040, Note_on_c, 14, 62, 65
17, 122040, Note_on_c, 14, 59, 65
17, 122099, Note_on_c, 14, 59, 0
17, 122099, Note_on_c, 14, 62, 0
17, 122100, Note_on_c, 14, 61, 65
17, 122100, Note_on_c, 14, 58, 65
17, 122159, Note_on_c, 14, 58, 0
17, 122159, Note_on_c, 14, 61, 0
17, 122160, Note_on_c, 14, 62, 65
17, 122219, Note_on_c, 14, 62, 0
17, 122220, Note_on_c, 14, 64, 65
17, 122279, Note_on_c, 14, 64, 0
17, 122280, Note_on_c, 14, 66, 65
17, 122339, Note_on_c, 14, 66, 0
17, 122340, Note_on_c, 14, 62, 65
17, 122399, Note_on_c, 14, 62, 0
17, 122400, Note_on_c, 14, 62, 65
17, 122459, Note_on_c, 14, 62, 0
17, 122460, Note_on_c, 14, 61, 65
17, 122519, Note_on_c, 14, 61, 0
17, 122580, Note_on_c, 14, 59, 65
17, 122580, Note_on_c, 14, 65, 65
17, 122639, Note_on_c, 14, 65, 0
17, 122640, Note_on_c, 14, 59, 0
17, 122640, Note_on_c, 14, 61, 65
17, 122640, Note_on_c, 14, 65, 65
17, 122699, Note_on_c, 14, 65, 0
17, 122700, Note_on_c, 14, 61, 0
17, 122700, Note_on_c, 14, 66, 65
17, 122759, Note_on_c, 14, 66, 0
17, 122820, Note_on_c, 14, 69, 65
17, 122880, Note_on_c, 14, 69, 0
17, 122880, Note_on_c, 14, 62, 65
17, 122880, Note_on_c, 14, 69, 65
17, 122940, Note_on_c, 14, 69, 0
17, 122940, Note_on_c, 14, 62, 0
17, 122940, Note_on_c, 14, 68, 65
17, 123000, Note_on_c, 14, 68, 0
17, 123060, Note_on_c, 14, 66, 65
17, 123120, Note_on_c, 14, 66, 0
17, 123120, Note_on_c, 14, 66, 65
17, 123180, Note_on_c, 14, 66, 0
17, 123180, Note_on_c, 14, 65, 65
17, 123240, Note_on_c, 14, 65, 0
17, 123300, Note_on_c, 14, 68, 65
17, 123360, Note_on_c, 14, 68, 0
17, 123360, Note_on_c, 14, 71, 65
17, 123420, Note_on_c, 14, 71, 0
17, 123420, Note_on_c, 14, 70, 65
17, 123480, Note_on_c, 14, 70, 0
17, 123540, Note_on_c, 14, 73, 65
17, 123600, Note_on_c, 14, 73, 0
17, 123600, Note_on_c, 14, 62, 65
17, 123600, Note_on_c, 14, 73, 65
17, 123660, Note_on_c, 14, 73, 0
17, 123660, Note_on_c, 14, 62, 0
17, 123660, Note_on_c, 14, 71, 65
17, 123720, Note_on_c, 14, 71, 0
17, 123720, Note_on_c, 14, 59, 65
17, 123720, Note_on_c, 14, 64, 65
17, 123780, Note_on_c, 14, 64, 0
17, 123780, Note_on_c, 14, 59, 0
17, 123780, Note_on_c, 14, 66, 65
17, 123840, Note_on_c, 14, 66, 0
17, 123840, Note_on_c, 14, 63, 65
17, 123840, Note_on_c, 14, 67, 65
17, 123900, Note_on_c, 14, 67, 0
17, 123900, Note_on_c, 14, 63, 0
17, 123900, Note_on_c, 14, 64, 65
17, 123900, Note_on_c, 14, 68, 65
17, 123960, Note_on_c, 14, 68, 0
17, 123960, Note_on_c, 14, 64, 0
17, 123960, Note_on_c, 14, 70, 65
17, 124020, Note_on_c, 14, 70, 0
17, 124080, Note_on_c, 14, 64, 65
17, 124080, Note_on_c, 14, 61, 65
17, 124080, Note_on_c, 14, 66, 65
17, 124199, Note_on_c, 14, 66, 0
17, 124199, Note_on_c, 14, 61, 0
17, 124199, Note_on_c, 14, 64, 0
17, 124320, Note_on_c, 14, 71, 65
17, 124379, Note_on_c, 14, 71, 0
17, 124380, Note_on_c, 14, 74, 65
17, 124439, Note_on_c, 14, 74, 0
17, 124440, Note_on_c, 14, 73, 65
17, 124499, Note_on_c, 14, 73, 0
17, 124500, Note_on_c, 14, 61, 65
17, 124500, Note_on_c, 14, 70, 65
17, 124559, Note_on_c, 14, 70, 0
17, 124559, Note_on_c, 14, 61, 0
17, 124560, Note_on_c, 14, 71, 65
17, 124619, Note_on_c, 14, 71, 0
17, 124620, Note_on_c, 14, 66, 65
17, 124679, Note_on_c, 14, 66, 0
17, 124680, Note_on_c, 14, 66, 65
17, 124680, Note_on_c, 14, 70, 65
17, 124739, Note_on_c, 14, 70, 0
17, 124739, Note_on_c, 14, 66, 0
17, 124740, Note_on_c, 14, 61, 65
17, 124740, Note_on_c, 14, 70, 65
17, 124799, Note_on_c, 14, 70, 0
17, 124799, Note_on_c, 14, 61, 0
17, 124800, Note_on_c, 14, 59, 65
17, 124859, Note_on_c, 14, 59, 0
17, 124860, Note_on_c, 14, 61, 65
17, 124919, Note_on_c, 14, 61, 0
17, 124920, Note_on_c, 14, 62, 65
17, 124979, Note_on_c, 14, 62, 0
17, 124980, Note_on_c, 14, 64, 65
17, 125039, Note_on_c, 14, 64, 0
17, 125040, Note_on_c, 14, 62, 65
17, 125099, Note_on_c, 14, 62, 0
17, 125100, Note_on_c, 14, 64, 65
17, 125159, Note_on_c, 14, 64, 0
17, 125160, Note_on_c, 14, 66, 65
17, 125189, Note_on_c, 14, 66, 0
17, 125190, Note_on_c, 14, 64, 65
17, 125219, Note_on_c, 14, 64, 0
17, 125220, Note_on_c, 14, 66, 65
17, 125249, Note_on_c, 14, 66, 0
17, 125250, Note_on_c, 14, 64, 65
17, 125279, Note_on_c, 14, 64, 0
17, 125280, Note_on_c, 14, 59, 65
17, 125280, Note_on_c, 14, 62, 65
17, 125399, Note_on_c, 14, 62, 0
17, 125399, Note_on_c, 14, 59, 0
17, 125520, Note_on_c, 14, 59, 65
17, 125520, Note_on_c, 14, 62, 65
17, 125639, Note_on_c, 14, 62, 0
17, 125639, Note_on_c, 14, 59, 0
17, 125820, Note_on_c, 14, 67, 65
17, 125879, Note_on_c, 14, 67, 0
17, 125880, Note_on_c, 14, 66, 65
17, 125939, Note_on_c, 14, 66, 0
17, 125940, Note_on_c, 14, 61, 65
17, 125940, Note_on_c, 14, 64, 65
17, 125999, Note_on_c, 14, 64, 0
17, 125999, Note_on_c, 14, 61, 0
17, 126000, Note_on_c, 14, 62, 65
17, 126000, Note_on_c, 14, 64, 65
17, 126059, Note_on_c, 14, 64, 0
17, 126059, Note_on_c, 14, 62, 0
17, 126060, Note_on_c, 14, 66, 65
17, 126119, Note_on_c, 14, 66, 0
17, 126120, Note_on_c, 14, 59, 65
17, 126179, Note_on_c, 14, 59, 0
17, 126180, Note_on_c, 14, 62, 65
17, 126239, Note_on_c, 14, 62, 0
17, 126240, Note_on_c, 14, 62, 65
17, 126299, Note_on_c, 14, 62, 0
17, 126300, Note_on_c, 14, 61, 65
17, 126359, Note_on_c, 14, 61, 0
17, 126420, Note_on_c, 14, 59, 65
17, 126420, Note_on_c, 14, 65, 65
17, 126479, Note_on_c, 14, 65, 0
17, 126479, Note_on_c, 14, 59, 0
17, 126480, Note_on_c, 14, 65, 65
17, 126539, Note_on_c, 14, 65, 0
17, 126540, Note_on_c, 14, 66, 65
17, 126599, Note_on_c, 14, 66, 0
17, 126660, Note_on_c, 14, 66, 65
17, 126660, Note_on_c, 14, 69, 65
17, 126719, Note_on_c, 14, 69, 0
17, 126719, Note_on_c, 14, 66, 0
17, 126720, Note_on_c, 14, 62, 65
17, 126720, Note_on_c, 14, 69, 65
17, 126779, Note_on_c, 14, 69, 0
17, 126779, Note_on_c, 14, 62, 0
17, 126780, Note_on_c, 14, 68, 65
17, 126839, Note_on_c, 14, 68, 0
17, 126900, Note_on_c, 14, 60, 65
17, 126959, Note_on_c, 14, 60, 0
17, 126960, Note_on_c, 14, 60, 65
17, 127019, Note_on_c, 14, 60, 0
17, 127020, Note_on_c, 14, 61, 65
17, 127079, Note_on_c, 14, 61, 0
17, 127140, Note_on_c, 14, 66, 65
17, 127199, Note_on_c, 14, 66, 0
17, 127200, Note_on_c, 14, 69, 65
17, 127229, Note_on_c, 14, 69, 0
17, 127230, Note_on_c, 14, 71, 65
17, 127259, Note_on_c, 14, 71, 0
17, 127260, Note_on_c, 14, 73, 65
17, 127289, Note_on_c, 14, 73, 0
17, 127290, Note_on_c, 14, 71, 65
17, 127319, Note_on_c, 14, 71, 0
17, 127320, Note_on_c, 14, 69, 65
17, 127349, Note_on_c, 14, 69, 0
17, 127350, Note_on_c, 14, 71, 65
17, 127379, Note_on_c, 14, 71, 0
17, 127380, Note_on_c, 14, 69, 65
17, 127409, Note_on_c, 14, 69, 0
17, 127410, Note_on_c, 14, 68, 65
17, 127439, Note_on_c, 14, 68, 0
17, 127440, Note_on_c, 14, 66, 65
17, 127499, Note_on_c, 14, 66, 0
17, 127500, Note_on_c, 14, 64, 65
17, 127529, Note_on_c, 14, 64, 0
17, 127530, Note_on_c, 14, 62, 65
17, 127559, Note_on_c, 14, 62, 0
17, 127560, Note_on_c, 14, 61, 65
17, 127589, Note_on_c, 14, 61, 0
17, 127590, Note_on_c, 14, 59, 65
17, 127619, Note_on_c, 14, 59, 0
17, 127620, Note_on_c, 14, 57, 65
17, 127649, Note_on_c, 14, 57, 0
17, 127650, Note_on_c, 14, 59, 65
17, 127679, Note_on_c, 14, 59, 0
17, 127680, Note_on_c, 14, 66, 65
17, 127680, Note_on_c, 14, 61, 65
17, 127739, Note_on_c, 14, 61, 0
17, 127739, Note_on_c, 14, 66, 0
17, 127740, Note_on_c, 14, 66, 65
17, 127799, Note_on_c, 14, 66, 0
17, 127800, Note_on_c, 14, 68, 65
17, 127859, Note_on_c, 14, 68, 0
17, 127860, Note_on_c, 14, 69, 65
17, 127919, Note_on_c, 14, 69, 0
17, 127920, Note_on_c, 14, 66, 65
17, 127980, Note_on_c, 14, 64, 65
17, 128009, Note_on_c, 14, 64, 0
17, 128010, Note_on_c, 14, 62, 65
17, 128039, Note_on_c, 14, 62, 0
17, 128039, Note_on_c, 14, 66, 0
17, 128040, Note_on_c, 14, 61, 65
17, 128069, Note_on_c, 14, 61, 0
17, 128070, Note_on_c, 14, 59, 65
17, 128099, Note_on_c, 14, 59, 0
17, 128100, Note_on_c, 14, 57, 80
17, 128129, Note_on_c, 14, 57, 0
17, 128130, Note_on_c, 14, 56, 80
17, 128159, Note_on_c, 14, 56, 0
17, 128160, Note_on_c, 14, 57, 80
17, 128160, Note_on_c, 14, 61, 80
17, 128279, Note_on_c, 14, 61, 0
17, 128279, Note_on_c, 14, 57, 0
17, 128400, Note_on_c, 14, 62, 80
17, 128400, Note_on_c, 14, 57, 80
17, 128519, Note_on_c, 14, 57, 0
17, 128519, Note_on_c, 14, 62, 0
17, 128700, Note_on_c, 14, 66, 80
17, 128759, Note_on_c, 14, 66, 0
17, 128760, Note_on_c, 14, 69, 80
17, 128760, Note_on_c, 14, 66, 80
17, 128819, Note_on_c, 14, 66, 0
17, 128819, Note_on_c, 14, 69, 0
17, 128820, Note_on_c, 14, 56, 80
17, 128820, Note_on_c, 14, 65, 80
17, 128879, Note_on_c, 14, 65, 0
17, 128879, Note_on_c, 14, 56, 0
17, 128880, Note_on_c, 14, 57, 80
17, 128939, Note_on_c, 14, 57, 0
17, 128940, Note_on_c, 14, 59, 80
17, 128999, Note_on_c, 14, 59, 0
17, 129000, Note_on_c, 14, 61, 80
17, 129059, Note_on_c, 14, 61, 0
17, 129060, Note_on_c, 14, 57, 80
17, 129119, Note_on_c, 14, 57, 0
17, 129120, Note_on_c, 14, 59, 80
17, 129120, Note_on_c, 14, 62, 80
17, 129239, Note_on_c, 14, 62, 0
17, 129239, Note_on_c, 14, 59, 0
17, 129360, Note_on_c, 14, 59, 80
17, 129360, Note_on_c, 14, 62, 80
17, 129479, Note_on_c, 14, 62, 0
17, 129479, Note_on_c, 14, 59, 0
17, 129660, Note_on_c, 14, 64, 80
17, 129719, Note_on_c, 14, 64, 0
17, 129720, Note_on_c, 14, 59, 80
17, 129779, Note_on_c, 14, 59, 0
17, 129780, Note_on_c, 14, 58, 80
17, 129839, Note_on_c, 14, 58, 0
17, 129840, Note_on_c, 14, 59, 80
17, 129840, Note_on_c, 14, 62, 80
17, 129899, Note_on_c, 14, 62, 0
17, 129899, Note_on_c, 14, 59, 0
17, 129900, Note_on_c, 14, 64, 80
17, 129959, Note_on_c, 14, 64, 0
17, 129960, Note_on_c, 14, 66, 80
17, 130019, Note_on_c, 14, 66, 0
17, 130020, Note_on_c, 14, 62, 80
17, 130079, Note_on_c, 14, 62, 0
17, 130080, Note_on_c, 14, 62, 80
17, 130139, Note_on_c, 14, 62, 0
17, 130140, Note_on_c, 14, 71, 80
17, 130140, Note_on_c, 14, 61, 80
17, 130199, Note_on_c, 14, 61, 0
17, 130199, Note_on_c, 14, 71, 0
17, 130200, Note_on_c, 14, 71, 80
17, 130259, Note_on_c, 14, 71, 0
17, 130260, Note_on_c, 14, 65, 80
17, 130260, Note_on_c, 14, 69, 80
17, 130319, Note_on_c, 14, 69, 0
17, 130319, Note_on_c, 14, 65, 0
17, 130320, Note_on_c, 14, 65, 80
17, 130379, Note_on_c, 14, 65, 0
17, 130380, Note_on_c, 14, 60, 80
17, 130380, Note_on_c, 14, 66, 80
17, 130439, Note_on_c, 14, 66, 0
17, 130439, Note_on_c, 14, 60, 0
17, 130440, Note_on_c, 14, 60, 80
17, 130499, Note_on_c, 14, 60, 0
17, 130500, Note_on_c, 14, 61, 80
17, 130559, Note_on_c, 14, 61, 0
17, 130560, Note_on_c, 14, 66, 80
17, 130560, Note_on_c, 14, 62, 80
17, 130620, Note_on_c, 14, 62, 0
17, 130620, Note_on_c, 14, 66, 0
17, 130680, Note_on_c, 14, 62, 80
17, 130680, Note_on_c, 14, 66, 80
17, 130740, Note_on_c, 14, 66, 0
17, 130740, Note_on_c, 14, 62, 0
17, 130800, Note_on_c, 14, 66, 80
17, 130800, Note_on_c, 14, 62, 80
17, 130859, Note_on_c, 14, 62, 0
17, 130859, Note_on_c, 14, 66, 0
17, 130860, Note_on_c, 14, 66, 80
17, 130860, Note_on_c, 14, 69, 80
17, 130889, Note_on_c, 14, 69, 0
17, 130889, Note_on_c, 14, 66, 0
17, 130890, Note_on_c, 14, 64, 80
17, 130890, Note_on_c, 14, 67, 80
17, 130919, Note_on_c, 14, 67, 0
17, 130919, Note_on_c, 14, 64, 0
17, 130920, Note_on_c, 14, 62, 80
17, 130920, Note_on_c, 14, 66, 80
17, 130979, Note_on_c, 14, 66, 0
17, 130979, Note_on_c, 14, 62, 0
17, 130980, Note_on_c, 14, 61, 80
17, 130980, Note_on_c, 14, 64, 80
17, 131039, Note_on_c, 14, 64, 0
17, 131039, Note_on_c, 14, 61, 0
17, 131040, Note_on_c, 14, 66, 80
17, 131040, Note_on_c, 14, 62, 80
17, 131069, Note_on_c, 14, 62, 0
17, 131069, Note_on_c, 14, 66, 0
17, 131070, Note_on_c, 14, 68, 80
17, 131070, Note_on_c, 14, 64, 80
17, 131099, Note_on_c, 14, 64, 0
17, 131099, Note_on_c, 14, 68, 0
17, 131100, Note_on_c, 14, 69, 80
17, 131100, Note_on_c, 14, 66, 80
17, 131129, Note_on_c, 14, 66, 0
17, 131129, Note_on_c, 14, 69, 0
17, 131130, Note_on_c, 14, 68, 80
17, 131130, Note_on_c, 14, 64, 80
17, 131159, Note_on_c, 14, 64, 0
17, 131159, Note_on_c, 14, 68, 0
17, 131160, Note_on_c, 14, 66, 80
17, 131160, Note_on_c, 14, 62, 80
17, 131219, Note_on_c, 14, 62, 0
17, 131219, Note_on_c, 14, 66, 0
17, 131220, Note_on_c, 14, 65, 80
17, 131220, Note_on_c, 14, 61, 80
17, 131279, Note_on_c, 14, 61, 0
17, 131279, Note_on_c, 14, 65, 0
17, 131280, Note_on_c, 14, 66, 80
17, 131339, Note_on_c, 14, 66, 0
17, 131340, Note_on_c, 14, 64, 80
17, 131369, Note_on_c, 14, 64, 0
17, 131370, Note_on_c, 14, 62, 80
17, 131399, Note_on_c, 14, 62, 0
17, 131400, Note_on_c, 14, 68, 80
17, 131400, Note_on_c, 14, 61, 80
17, 131459, Note_on_c, 14, 61, 0
17, 131459, Note_on_c, 14, 68, 0
17, 131460, Note_on_c, 14, 65, 80
17, 131460, Note_on_c, 14, 59, 80
17, 131519, Note_on_c, 14, 59, 0
17, 131519, Note_on_c, 14, 65, 0
17, 131520, Note_on_c, 14, 66, 80
17, 131520, Note_on_c, 14, 61, 80
17, 131579, Note_on_c, 14, 61, 0
17, 131579, Note_on_c, 14, 66, 0
17, 131580, Note_on_c, 14, 61, 80
17, 131639, Note_on_c, 14, 61, 0
17, 131640, Note_on_c, 14, 62, 80
17, 131699, Note_on_c, 14, 62, 0
17, 131700, Note_on_c, 14, 65, 80
17, 131759, Note_on_c, 14, 65, 0
17, 131760, Note_on_c, 14, 61, 80
17, 131760, Note_on_c, 14, 66, 80
17, 131879, Note_on_c, 14, 66, 0
17, 131879, Note_on_c, 14, 61, 0
17, 131940, Note_on_c, 14, 66, 80
17, 131940, Note_on_c, 14, 61, 80
17, 131999, Note_on_c, 14, 61, 0
17, 131999, Note_on_c, 14, 66, 0
17, 132000, Note_on_c, 14, 62, 65
17, 132000, Note_on_c, 14, 66, 65
17, 132119, Note_on_c, 14, 66, 0
17, 132119, Note_on_c, 14, 62, 0
17, 132240, Note_on_c, 14, 62, 65
17, 132240, Note_on_c, 14, 66, 65
17, 132359, Note_on_c, 14, 66, 0
17, 132359, Note_on_c, 14, 62, 0
17, 132420, Note_on_c, 14, 66, 65
17, 132420, Note_on_c, 14, 70, 65
17, 132479, Note_on_c, 14, 70, 0
17, 132479, Note_on_c, 14, 66, 0
17, 132480, Note_on_c, 14, 66, 65
17, 132480, Note_on_c, 14, 71, 65
17, 132539, Note_on_c, 14, 71, 0
17, 132539, Note_on_c, 14, 66, 0
17, 132660, Note_on_c, 14, 61, 65
17, 132660, Note_on_c, 14, 66, 65
17, 132719, Note_on_c, 14, 66, 0
17, 132719, Note_on_c, 14, 61, 0
17, 132720, Note_on_c, 14, 62, 65
17, 132720, Note_on_c, 14, 66, 65
17, 132779, Note_on_c, 14, 66, 0
17, 132779, Note_on_c, 14, 62, 0
17, 132900, Note_on_c, 14, 66, 65
17, 132900, Note_on_c, 14, 69, 65
17, 132959, Note_on_c, 14, 69, 0
17, 132959, Note_on_c, 14, 66, 0
17, 132960, Note_on_c, 14, 64, 65
17, 132960, Note_on_c, 14, 67, 65
17, 133019, Note_on_c, 14, 67, 0
17, 133019, Note_on_c, 14, 64, 0
17, 133080, Note_on_c, 14, 63, 65
17, 133080, Note_on_c, 14, 66, 65
17, 133139, Note_on_c, 14, 66, 0
17, 133139, Note_on_c, 14, 63, 0
17, 133260, Note_on_c, 14, 64, 65
17, 133260, Note_on_c, 14, 67, 65
17, 133319, Note_on_c, 14, 67, 0
17, 133319, Note_on_c, 14, 64, 0
17, 133320, Note_on_c, 14, 64, 65
17, 133320, Note_on_c, 14, 69, 65
17, 133379, Note_on_c, 14, 69, 0
17, 133379, Note_on_c, 14, 64, 0
17, 133500, Note_on_c, 14, 64, 65
17, 133500, Note_on_c, 14, 67, 65
17, 133559, Note_on_c, 14, 67, 0
17, 133559, Note_on_c, 14, 64, 0
17, 133560, Note_on_c, 14, 64, 65
17, 133560, Note_on_c, 14, 66, 65
17, 133619, Note_on_c, 14, 66, 0
17, 133619, Note_on_c, 14, 64, 0
17, 133680, Note_on_c, 14, 71, 65
17, 133680, Note_on_c, 14, 63, 65
17, 133739, Note_on_c, 14, 63, 0
17, 133739, Note_on_c, 14, 71, 0
17, 133740, Note_on_c, 14, 66, 65
17, 133799, Note_on_c, 14, 66, 0
17, 133800, Note_on_c, 14, 64, 65
17, 133859, Note_on_c, 14, 64, 0
17, 133860, Note_on_c, 14, 63, 65
17, 133919, Note_on_c, 14, 63, 0
17, 133920, Note_on_c, 14, 64, 65
17, 133920, Note_on_c, 14, 67, 65
17, 133979, Note_on_c, 14, 67, 0
17, 133979, Note_on_c, 14, 64, 0
17, 133980, Note_on_c, 14, 63, 65
17, 133980, Note_on_c, 14, 69, 65
17, 134100, Note_on_c, 14, 69, 0
17, 134100, Note_on_c, 14, 63, 0
17, 134160, Note_on_c, 14, 64, 65
17, 134160, Note_on_c, 14, 67, 65
17, 134219, Note_on_c, 14, 67, 0
17, 134219, Note_on_c, 14, 64, 0
17, 134220, Note_on_c, 14, 64, 65
17, 134220, Note_on_c, 14, 67, 65
17, 134340, Note_on_c, 14, 67, 0
17, 134340, Note_on_c, 14, 64, 0
17, 134400, Note_on_c, 14, 60, 65
17, 134400, Note_on_c, 14, 63, 65
17, 134459, Note_on_c, 14, 63, 0
17, 134459, Note_on_c, 14, 60, 0
17, 134460, Note_on_c, 14, 60, 65
17, 134460, Note_on_c, 14, 63, 65
17, 134519, Note_on_c, 14, 63, 0
17, 134519, Note_on_c, 14, 60, 0
17, 134580, Note_on_c, 14, 67, 65
17, 134580, Note_on_c, 14, 64, 65
17, 134639, Note_on_c, 14, 64, 0
17, 134639, Note_on_c, 14, 67, 0
17, 134640, Note_on_c, 14, 60, 65
17, 134640, Note_on_c, 14, 69, 65
17, 134699, Note_on_c, 14, 69, 0
17, 134699, Note_on_c, 14, 60, 0
17, 134700, Note_on_c, 14, 66, 65
17, 134700, Note_on_c, 14, 60, 65
17, 134820, Note_on_c, 14, 60, 0
17, 134820, Note_on_c, 14, 66, 0
17, 134820, Note_on_c, 14, 59, 65
17, 134820, Note_on_c, 14, 69, 65
17, 134879, Note_on_c, 14, 69, 0
17, 134879, Note_on_c, 14, 59, 0
17, 134880, Note_on_c, 14, 69, 65
17, 134880, Note_on_c, 14, 63, 65
17, 134939, Note_on_c, 14, 63, 0
17, 134939, Note_on_c, 14, 69, 0
17, 134940, Note_on_c, 14, 66, 65
17, 134940, Note_on_c, 14, 63, 65
17, 135060, Note_on_c, 14, 63, 0
17, 135060, Note_on_c, 14, 66, 0
17, 135120, Note_on_c, 14, 64, 65
17, 135120, Note_on_c, 14, 67, 65
17, 135179, Note_on_c, 14, 67, 0
17, 135179, Note_on_c, 14, 64, 0
17, 135240, Note_on_c, 14, 69, 65
17, 135240, Note_on_c, 14, 66, 65
17, 135299, Note_on_c, 14, 66, 0
17, 135299, Note_on_c, 14, 69, 0
17, 135420, Note_on_c, 14, 64, 65
17, 135479, Note_on_c, 14, 64, 0
17, 135480, Note_on_c, 14, 66, 65
17, 135539, Note_on_c, 14, 66, 0
17, 135540, Note_on_c, 14, 63, 65
17, 135599, Note_on_c, 14, 63, 0
17, 135600, Note_on_c, 14, 67, 65
17, 135659, Note_on_c, 14, 67, 0
17, 135660, Note_on_c, 14, 69, 80
17, 135719, Note_on_c, 14, 69, 0
17, 135720, Note_on_c, 14, 71, 80
17, 135779, Note_on_c, 14, 71, 0
17, 135780, Note_on_c, 14, 62, 80
17, 135839, Note_on_c, 14, 62, 0
17, 135840, Note_on_c, 14, 71, 80
17, 135840, Note_on_c, 14, 62, 80
17, 135899, Note_on_c, 14, 62, 0
17, 135899, Note_on_c, 14, 71, 0
17, 135900, Note_on_c, 14, 69, 80
17, 135900, Note_on_c, 14, 60, 80
17, 135959, Note_on_c, 14, 60, 0
17, 135959, Note_on_c, 14, 69, 0
17, 135960, Note_on_c, 14, 59, 80
17, 135960, Note_on_c, 14, 69, 80
17, 136019, Note_on_c, 14, 69, 0
17, 136019, Note_on_c, 14, 59, 0
17, 136020, Note_on_c, 14, 63, 80
17, 136020, Note_on_c, 14, 66, 80
17, 136079, Note_on_c, 14, 66, 0
17, 136079, Note_on_c, 14, 63, 0
17, 136080, Note_on_c, 14, 67, 80
17, 136139, Note_on_c, 14, 67, 0
17, 136140, Note_on_c, 14, 64, 80
17, 136199, Note_on_c, 14, 64, 0
17, 136200, Note_on_c, 14, 67, 80
17, 136259, Note_on_c, 14, 67, 0
17, 136260, Note_on_c, 14, 66, 80
17, 136319, Note_on_c, 14, 66, 0
17, 136320, Note_on_c, 14, 64, 80
17, 136320, Note_on_c, 14, 67, 80
17, 136379, Note_on_c, 14, 67, 0
17, 136379, Note_on_c, 14, 64, 0
17, 136380, Note_on_c, 14, 66, 80
17, 136380, Note_on_c, 14, 64, 80
17, 136439, Note_on_c, 14, 64, 0
17, 136439, Note_on_c, 14, 66, 0
17, 136440, Note_on_c, 14, 64, 80
17, 136440, Note_on_c, 14, 67, 80
17, 136499, Note_on_c, 14, 67, 0
17, 136499, Note_on_c, 14, 64, 0
17, 136500, Note_on_c, 14, 70, 80
17, 136559, Note_on_c, 14, 70, 0
17, 136560, Note_on_c, 14, 70, 80
17, 136619, Note_on_c, 14, 70, 0
17, 136620, Note_on_c, 14, 66, 80
17, 136620, Note_on_c, 14, 71, 80
17, 136679, Note_on_c, 14, 71, 0
17, 136679, Note_on_c, 14, 66, 0
17, 136680, Note_on_c, 14, 64, 80
17, 136739, Note_on_c, 14, 64, 0
17, 136740, Note_on_c, 14, 63, 80
17, 136799, Note_on_c, 14, 63, 0
17, 136800, Note_on_c, 14, 64, 80
17, 136859, Note_on_c, 14, 64, 0
17, 136860, Note_on_c, 14, 67, 80
17, 136919, Note_on_c, 14, 67, 0
17, 136920, Note_on_c, 14, 64, 80
17, 136979, Note_on_c, 14, 64, 0
17, 136980, Note_on_c, 14, 63, 80
17, 136980, Note_on_c, 14, 59, 80
17, 137039, Note_on_c, 14, 59, 0
17, 137039, Note_on_c, 14, 63, 0
17, 137040, Note_on_c, 14, 59, 80
17, 137040, Note_on_c, 14, 64, 80
17, 137099, Note_on_c, 14, 64, 0
17, 137099, Note_on_c, 14, 59, 0
17, 137100, Note_on_c, 14, 64, 80
17, 137100, Note_on_c, 14, 67, 80
17, 137159, Note_on_c, 14, 67, 0
17, 137159, Note_on_c, 14, 64, 0
17, 137160, Note_on_c, 14, 59, 80
17, 137160, Note_on_c, 14, 66, 80
17, 137219, Note_on_c, 14, 66, 0
17, 137219, Note_on_c, 14, 59, 0
17, 137220, Note_on_c, 14, 69, 80
17, 137220, Note_on_c, 14, 63, 80
17, 137279, Note_on_c, 14, 63, 0
17, 137279, Note_on_c, 14, 69, 0
17, 137280, Note_on_c, 14, 64, 80
17, 137280, Note_on_c, 14, 67, 80
17, 137339, Note_on_c, 14, 67, 0
17, 137339, Note_on_c, 14, 64, 0
17, 137340, Note_on_c, 14, 64, 80
17, 137399, Note_on_c, 14, 64, 0
17, 137400, Note_on_c, 14, 66, 80
17, 137459, Note_on_c, 14, 66, 0
17, 137460, Note_on_c, 14, 63, 80
17, 137460, Note_on_c, 14, 66, 80
17, 137519, Note_on_c, 14, 66, 0
17, 137519, Note_on_c, 14, 63, 0
17, 137520, Note_on_c, 14, 59, 80
17, 137520, Note_on_c, 14, 64, 80
17, 137579, Note_on_c, 14, 64, 0
17, 137579, Note_on_c, 14, 59, 0
17, 137760, Note_on_c, 14, 59, 65
17, 137760, Note_on_c, 14, 64, 65
17, 137760, Note_on_c, 14, 67, 65
17, 137879, Note_on_c, 14, 67, 0
17, 137879, Note_on_c, 14, 64, 0
17, 137879, Note_on_c, 14, 59, 0
17, 138000, Note_on_c, 14, 61, 65
17, 138000, Note_on_c, 14, 67, 65
17, 138119, Note_on_c, 14, 67, 0
17, 138119, Note_on_c, 14, 61, 0
17, 138240, Note_on_c, 14, 61, 65
17, 138240, Note_on_c, 14, 66, 65
17, 138359, Note_on_c, 14, 66, 0
17, 138359, Note_on_c, 14, 61, 0
17, 138480, Note_on_c, 14, 59, 65
17, 138480, Note_on_c, 14, 66, 65
17, 138599, Note_on_c, 14, 66, 0
17, 138599, Note_on_c, 14, 59, 0
17, 138720, Note_on_c, 14, 59, 65
17, 138720, Note_on_c, 14, 64, 65
17, 138839, Note_on_c, 14, 64, 0
17, 138839, Note_on_c, 14, 59, 0
17, 138960, Note_on_c, 14, 58, 65
17, 138960, Note_on_c, 14, 64, 65
17, 139079, Note_on_c, 14, 64, 0
17, 139079, Note_on_c, 14, 58, 0
17, 139200, Note_on_c, 14, 59, 65
17, 139259, Note_on_c, 14, 59, 0
17, 139260, Note_on_c, 14, 61, 65
17, 139319, Note_on_c, 14, 61, 0
17, 139320, Note_on_c, 14, 62, 65
17, 139379, Note_on_c, 14, 62, 0
17, 139380, Note_on_c, 14, 64, 65
17, 139439, Note_on_c, 14, 64, 0
17, 139440, Note_on_c, 14, 62, 65
17, 139499, Note_on_c, 14, 62, 0
17, 139500, Note_on_c, 14, 64, 65
17, 139559, Note_on_c, 14, 64, 0
17, 139560, Note_on_c, 14, 66, 65
17, 139619, Note_on_c, 14, 66, 0
17, 139620, Note_on_c, 14, 62, 65
17, 139679, Note_on_c, 14, 62, 0
17, 139680, Note_on_c, 14, 62, 65
17, 139680, Note_on_c, 14, 67, 65
17, 139680, Note_on_c, 14, 64, 65
17, 139739, Note_on_c, 14, 64, 0
17, 139739, Note_on_c, 14, 67, 0
17, 139739, Note_on_c, 14, 62, 0
17, 139740, Note_on_c, 14, 61, 65
17, 139740, Note_on_c, 14, 64, 65
17, 139740, Note_on_c, 14, 57, 65
17, 139799, Note_on_c, 14, 57, 0
17, 139860, Note_on_c, 14, 64, 0
17, 139860, Note_on_c, 14, 61, 0
17, 139860, Note_on_c, 14, 59, 65
17, 139860, Note_on_c, 14, 67, 65
17, 139860, Note_on_c, 14, 62, 65
17, 139919, Note_on_c, 14, 62, 0
17, 139919, Note_on_c, 14, 67, 0
17, 139919, Note_on_c, 14, 59, 0
17, 139920, Note_on_c, 14, 69, 65
17, 139920, Note_on_c, 14, 67, 65
17, 140100, Note_on_c, 14, 67, 0
17, 140100, Note_on_c, 14, 69, 0
17, 140100, Note_on_c, 14, 64, 65
17, 140100, Note_on_c, 14, 67, 65
17, 140159, Note_on_c, 14, 67, 0
17, 140159, Note_on_c, 14, 64, 0
17, 140160, Note_on_c, 14, 62, 65
17, 140219, Note_on_c, 14, 62, 0
17, 140220, Note_on_c, 14, 66, 65
17, 140279, Note_on_c, 14, 66, 0
17, 140280, Note_on_c, 14, 62, 65
17, 140280, Note_on_c, 14, 66, 65
17, 140339, Note_on_c, 14, 66, 0
17, 140339, Note_on_c, 14, 62, 0
17, 140340, Note_on_c, 14, 61, 65
17, 140340, Note_on_c, 14, 64, 65
17, 140399, Note_on_c, 14, 64, 0
17, 140399, Note_on_c, 14, 61, 0
17, 140400, Note_on_c, 14, 62, 65
17, 140400, Note_on_c, 14, 57, 65
17, 140520, Note_on_c, 14, 57, 0
17, 140520, Note_on_c, 14, 62, 0
17, 140550, Note_on_c, 14, 66, 65
17, 140579, Note_on_c, 14, 66, 0
17, 140580, Note_on_c, 14, 67, 65
17, 140609, Note_on_c, 14, 67, 0
17, 140610, Note_on_c, 14, 69, 65
17, 140639, Note_on_c, 14, 69, 0
17, 140640, Note_on_c, 14, 67, 65
17, 140640, Note_on_c, 14, 71, 65
17, 140699, Note_on_c, 14, 71, 0
17, 140699, Note_on_c, 14, 67, 0
17, 140700, Note_on_c, 14, 62, 65
17, 140700, Note_on_c, 14, 67, 65
17, 140759, Note_on_c, 14, 67, 0
17, 140759, Note_on_c, 14, 62, 0
17, 140790, Note_on_c, 14, 67, 65
17, 140819, Note_on_c, 14, 67, 0
17, 140820, Note_on_c, 14, 69, 65
17, 140849, Note_on_c, 14, 69, 0
17, 140850, Note_on_c, 14, 71, 65
17, 140879, Note_on_c, 14, 71, 0
17, 140880, Note_on_c, 14, 69, 65
17, 140880, Note_on_c, 14, 73, 65
17, 140939, Note_on_c, 14, 73, 0
17, 140939, Note_on_c, 14, 69, 0
17, 140940, Note_on_c, 14, 64, 65
17, 140940, Note_on_c, 14, 69, 65
17, 140999, Note_on_c, 14, 69, 0
17, 140999, Note_on_c, 14, 64, 0
17, 141060, Note_on_c, 14, 67, 65
17, 141060, Note_on_c, 14, 64, 65
17, 141060, Note_on_c, 14, 62, 65
17, 141119, Note_on_c, 14, 62, 0
17, 141119, Note_on_c, 14, 64, 0
17, 141119, Note_on_c, 14, 67, 0
17, 141120, Note_on_c, 14, 61, 65
17, 141120, Note_on_c, 14, 64, 65
17, 141120, Note_on_c, 14, 69, 65
17, 141239, Note_on_c, 14, 69, 0
17, 141239, Note_on_c, 14, 64, 0
17, 141239, Note_on_c, 14, 61, 0
17, 141240, Note_on_c, 14, 61, 65
17, 141240, Note_on_c, 14, 64, 65
17, 141240, Note_on_c, 14, 67, 65
17, 141359, Note_on_c, 14, 67, 0
17, 141359, Note_on_c, 14, 64, 0
17, 141359, Note_on_c, 14, 61, 0
17, 141360, Note_on_c, 14, 62, 65
17, 141360, Note_on_c, 14, 66, 65
17, 141479, Note_on_c, 14, 66, 0
17, 141479, Note_on_c, 14, 62, 0
17, 141660, Note_on_c, 14, 62, 85
17, 141719, Note_on_c, 14, 62, 0
17, 141720, Note_on_c, 14, 66, 85
17, 141779, Note_on_c, 14, 66, 0
17, 141780, Note_on_c, 14, 61, 85
17, 141839, Note_on_c, 14, 61, 0
17, 141840, Note_on_c, 14, 66, 85
17, 141869, Note_on_c, 14, 66, 0
17, 141870, Note_on_c, 14, 64, 85
17, 141899, Note_on_c, 14, 64, 0
17, 141900, Note_on_c, 14, 66, 85
17, 141929, Note_on_c, 14, 66, 0
17, 141930, Note_on_c, 14, 64, 85
17, 141959, Note_on_c, 14, 64, 0
17, 141960, Note_on_c, 14, 61, 85
17, 142019, Note_on_c, 14, 61, 0
17, 142020, Note_on_c, 14, 58, 85
17, 142079, Note_on_c, 14, 58, 0
17, 142080, Note_on_c, 14, 62, 85
17, 142109, Note_on_c, 14, 62, 0
17, 142110, Note_on_c, 14, 61, 85
17, 142139, Note_on_c, 14, 61, 0
17, 142140, Note_on_c, 14, 62, 85
17, 142169, Note_on_c, 14, 62, 0
17, 142170, Note_on_c, 14, 61, 85
17, 142199, Note_on_c, 14, 61, 0
17, 142200, Note_on_c, 14, 66, 85
17, 142259, Note_on_c, 14, 66, 0
17, 142260, Note_on_c, 14, 58, 85
17, 142260, Note_on_c, 14, 64, 85
17, 142319, Note_on_c, 14, 64, 0
17, 142319, Note_on_c, 14, 58, 0
17, 142320, Note_on_c, 14, 59, 85
17, 142320, Note_on_c, 14, 62, 85
17, 142439, Note_on_c, 14, 62, 0
17, 142439, Note_on_c, 14, 59, 0
17, 142560, Note_on_c, 14, 59, 85
17, 142560, Note_on_c, 14, 64, 85
17, 142679, Note_on_c, 14, 64, 0
17, 142679, Note_on_c, 14, 59, 0
17, 142800, Note_on_c, 14, 55, 85
17, 142800, Note_on_c, 14, 64, 85
17, 142919, Note_on_c, 14, 64, 0
17, 142919, Note_on_c, 14, 55, 0
17, 143100, Note_on_c, 14, 60, 85
17, 143159, Note_on_c, 14, 60, 0
17, 143160, Note_on_c, 14, 67, 85
17, 143160, Note_on_c, 14, 64, 85
17, 143219, Note_on_c, 14, 64, 0
17, 143219, Note_on_c, 14, 67, 0
17, 143220, Note_on_c, 14, 66, 85
17, 143220, Note_on_c, 14, 63, 85
17, 143279, Note_on_c, 14, 63, 0
17, 143279, Note_on_c, 14, 66, 0
17, 143280, Note_on_c, 14, 67, 85
17, 143339, Note_on_c, 14, 67, 0
17, 143340, Note_on_c, 14, 69, 85
17, 143399, Note_on_c, 14, 69, 0
17, 143400, Note_on_c, 14, 71, 85
17, 143459, Note_on_c, 14, 71, 0
17, 143460, Note_on_c, 14, 67, 85
17, 143519, Note_on_c, 14, 67, 0
17, 143520, Note_on_c, 14, 64, 85
17, 143579, Note_on_c, 14, 64, 0
17, 143580, Note_on_c, 14, 66, 85
17, 143639, Note_on_c, 14, 66, 0
17, 143640, Note_on_c, 14, 70, 85
17, 143699, Note_on_c, 14, 70, 0
17, 143700, Note_on_c, 14, 66, 85
17, 143759, Note_on_c, 14, 66, 0
17, 143760, Note_on_c, 14, 66, 85
17, 143819, Note_on_c, 14, 66, 0
17, 143820, Note_on_c, 14, 61, 85
17, 143879, Note_on_c, 14, 61, 0
17, 143880, Note_on_c, 14, 67, 85
17, 143909, Note_on_c, 14, 67, 0
17, 143910, Note_on_c, 14, 66, 85
17, 143939, Note_on_c, 14, 66, 0
17, 143940, Note_on_c, 14, 64, 85
17, 143969, Note_on_c, 14, 64, 0
17, 143970, Note_on_c, 14, 62, 85
17, 143999, Note_on_c, 14, 62, 0
17, 144000, Note_on_c, 14, 59, 85
17, 144000, Note_on_c, 14, 62, 85
17, 144059, Note_on_c, 14, 62, 0
17, 144059, Note_on_c, 14, 59, 0
17, 144060, Note_on_c, 14, 61, 85
17, 144060, Note_on_c, 14, 59, 85
17, 144119, Note_on_c, 14, 59, 0
17, 144119, Note_on_c, 14, 61, 0
17, 144120, Note_on_c, 14, 59, 85
17, 144120, Note_on_c, 14, 64, 85
17, 144179, Note_on_c, 14, 64, 0
17, 144179, Note_on_c, 14, 59, 0
17, 144180, Note_on_c, 14, 65, 85
17, 144239, Note_on_c, 14, 65, 0
17, 144240, Note_on_c, 14, 65, 85
17, 144299, Note_on_c, 14, 65, 0
17, 144300, Note_on_c, 14, 66, 85
17, 144359, Note_on_c, 14, 66, 0
17, 144360, Note_on_c, 14, 59, 85
17, 144419, Note_on_c, 14, 59, 0
17, 144420, Note_on_c, 14, 58, 85
17, 144479, Note_on_c, 14, 58, 0
17, 144480, Note_on_c, 14, 58, 85
17, 144539, Note_on_c, 14, 58, 0
17, 144540, Note_on_c, 14, 59, 85
17, 144599, Note_on_c, 14, 59, 0
17, 144600, Note_on_c, 14, 62, 85
17, 144600, Note_on_c, 14, 66, 85
17, 144659, Note_on_c, 14, 66, 0
17, 144659, Note_on_c, 14, 62, 0
17, 144660, Note_on_c, 14, 67, 85
17, 144660, Note_on_c, 14, 64, 85
17, 144719, Note_on_c, 14, 64, 0
17, 144719, Note_on_c, 14, 67, 0
17, 144720, Note_on_c, 14, 64, 85
17, 144720, Note_on_c, 14, 67, 85
17, 144779, Note_on_c, 14, 67, 0
17, 144779, Note_on_c, 14, 64, 0
17, 144780, Note_on_c, 14, 66, 85
17, 144780, Note_on_c, 14, 62, 85
17, 144839, Note_on_c, 14, 62, 0
17, 144839, Note_on_c, 14, 66, 0
17, 144840, Note_on_c, 14, 66, 85
17, 144840, Note_on_c, 14, 62, 85
17, 144899, Note_on_c, 14, 62, 0
17, 144899, Note_on_c, 14, 66, 0
17, 144900, Note_on_c, 14, 64, 85
17, 144900, Note_on_c, 14, 61, 85
17, 144959, Note_on_c, 14, 61, 0
17, 144959, Note_on_c, 14, 64, 0
17, 144960, Note_on_c, 14, 66, 85
17, 144960, Note_on_c, 14, 59, 85
17, 145019, Note_on_c, 14, 59, 0
17, 145019, Note_on_c, 14, 66, 0
17, 145020, Note_on_c, 14, 66, 85
17, 145020, Note_on_c, 14, 61, 85
17, 145079, Note_on_c, 14, 61, 0
17, 145079, Note_on_c, 14, 66, 0
17, 145080, Note_on_c, 14, 59, 85
17, 145080, Note_on_c, 14, 62, 85
17, 145139, Note_on_c, 14, 62, 0
17, 145139, Note_on_c, 14, 59, 0
17, 145140, Note_on_c, 14, 61, 85
17, 145140, Note_on_c, 14, 58, 85
17, 145199, Note_on_c, 14, 58, 0
17, 145199, Note_on_c, 14, 61, 0
17, 145200, Note_on_c, 14, 59, 85
17, 145200, Note_on_c, 14, 62, 85
17, 145320, Note_on_c, 14, 62, 0
17, 145320, Note_on_c, 14, 59, 0
17, 145350, Note_on_c, 14, 67, 85
17, 145379, Note_on_c, 14, 67, 0
17, 145380, Note_on_c, 14, 66, 65
17, 145409, Note_on_c, 14, 66, 0
17, 145410, Note_on_c, 14, 64, 65
17, 145439, Note_on_c, 14, 64, 0
17, 145440, Note_on_c, 14, 62, 65
17, 145440, Note_on_c, 14, 66, 65
17, 145559, Note_on_c, 14, 66, 0
17, 145559, Note_on_c, 14, 62, 0
17, 145680, Note_on_c, 14, 59, 65
17, 145680, Note_on_c, 14, 62, 65
17, 145799, Note_on_c, 14, 62, 0
17, 145799, Note_on_c, 14, 59, 0
17, 145980, Note_on_c, 14, 64, 65
17, 145980, Note_on_c, 14, 61, 65
17, 146039, Note_on_c, 14, 61, 0
17, 146039, Note_on_c, 14, 64, 0
17, 146040, Note_on_c, 14, 62, 65
17, 146040, Note_on_c, 14, 59, 65
17, 146099, Note_on_c, 14, 59, 0
17, 146099, Note_on_c, 14, 62, 0
17, 146100, Note_on_c, 14, 61, 65
17, 146100, Note_on_c, 14, 58, 65
17, 146159, Note_on_c, 14, 58, 0
17, 146159, Note_on_c, 14, 61, 0
17, 146160, Note_on_c, 14, 62, 65
17, 146219, Note_on_c, 14, 62, 0
17, 146220, Note_on_c, 14, 64, 65
17, 146279, Note_on_c, 14, 64, 0
17, 146280, Note_on_c, 14, 66, 65
17, 146339, Note_on_c, 14, 66, 0
17, 146340, Note_on_c, 14, 62, 65
17, 146399, Note_on_c, 14, 62, 0
17, 146400, Note_on_c, 14, 62, 65
17, 146400, Note_on_c, 14, 66, 65
17, 146519, Note_on_c, 14, 66, 0
17, 146519, Note_on_c, 14, 62, 0
17, 146640, Note_on_c, 14, 59, 65
17, 146640, Note_on_c, 14, 62, 65
17, 146759, Note_on_c, 14, 62, 0
17, 146759, Note_on_c, 14, 59, 0
17, 146940, Note_on_c, 14, 64, 65
17, 146940, Note_on_c, 14, 61, 65
17, 146999, Note_on_c, 14, 61, 0
17, 146999, Note_on_c, 14, 64, 0
17, 147000, Note_on_c, 14, 62, 65
17, 147000, Note_on_c, 14, 59, 65
17, 147059, Note_on_c, 14, 59, 0
17, 147059, Note_on_c, 14, 62, 0
17, 147060, Note_on_c, 14, 61, 65
17, 147060, Note_on_c, 14, 58, 65
17, 147119, Note_on_c, 14, 58, 0
17, 147119, Note_on_c, 14, 61, 0
17, 147120, Note_on_c, 14, 59, 65
17, 147120, Note_on_c, 14, 62, 65
17, 147179, Note_on_c, 14, 62, 0
17, 147179, Note_on_c, 14, 59, 0
17, 147180, Note_on_c, 14, 61, 65
17, 147180, Note_on_c, 14, 64, 65
17, 147239, Note_on_c, 14, 64, 0
17, 147239, Note_on_c, 14, 61, 0
17, 147240, Note_on_c, 14, 62, 65
17, 147240, Note_on_c, 14, 66, 65
17, 147299, Note_on_c, 14, 66, 0
17, 147299, Note_on_c, 14, 62, 0
17, 147300, Note_on_c, 14, 59, 65
17, 147300, Note_on_c, 14, 62, 65
17, 147359, Note_on_c, 14, 62, 0
17, 147359, Note_on_c, 14, 59, 0
17, 147360, Note_on_c, 14, 59, 65
17, 147360, Note_on_c, 14, 62, 65
17, 147419, Note_on_c, 14, 62, 0
17, 147419, Note_on_c, 14, 59, 0
17, 147420, Note_on_c, 14, 58, 65
17, 147420, Note_on_c, 14, 61, 65
17, 147479, Note_on_c, 14, 61, 0
17, 147479, Note_on_c, 14, 58, 0
17, 147540, Note_on_c, 14, 61, 65
17, 147540, Note_on_c, 14, 65, 65
17, 147599, Note_on_c, 14, 65, 0
17, 147599, Note_on_c, 14, 61, 0
17, 147600, Note_on_c, 14, 61, 65
17, 147600, Note_on_c, 14, 65, 65
17, 147659, Note_on_c, 14, 65, 0
17, 147659, Note_on_c, 14, 61, 0
17, 147660, Note_on_c, 14, 61, 65
17, 147660, Note_on_c, 14, 66, 65
17, 147719, Note_on_c, 14, 66, 0
17, 147719, Note_on_c, 14, 61, 0
17, 147780, Note_on_c, 14, 64, 65
17, 147780, Note_on_c, 14, 69, 65
17, 147839, Note_on_c, 14, 69, 0
17, 147839, Note_on_c, 14, 64, 0
17, 147840, Note_on_c, 14, 62, 65
17, 147840, Note_on_c, 14, 69, 65
17, 147899, Note_on_c, 14, 69, 0
17, 147899, Note_on_c, 14, 62, 0
17, 147900, Note_on_c, 14, 61, 65
17, 147900, Note_on_c, 14, 68, 65
17, 147959, Note_on_c, 14, 68, 0
17, 147959, Note_on_c, 14, 61, 0
17, 148020, Note_on_c, 14, 60, 65
17, 148079, Note_on_c, 14, 60, 0
17, 148080, Note_on_c, 14, 60, 65
17, 148139, Note_on_c, 14, 60, 0
17, 148140, Note_on_c, 14, 61, 65
17, 148199, Note_on_c, 14, 61, 0
17, 148260, Note_on_c, 14, 65, 65
17, 148260, Note_on_c, 14, 68, 65
17, 148319, Note_on_c, 14, 68, 0
17, 148319, Note_on_c, 14, 65, 0
17, 148320, Note_on_c, 14, 59, 65
17, 148320, Note_on_c, 14, 66, 65
17, 148440, Note_on_c, 14, 66, 0
17, 148440, Note_on_c, 14, 59, 0
17, 148560, Note_on_c, 14, 61, 65
17, 148560, Note_on_c, 14, 66, 65
17, 148680, Note_on_c, 14, 66, 0
17, 148680, Note_on_c, 14, 61, 0
17, 148800, Note_on_c, 14, 67, 65
17, 148800, Note_on_c, 14, 63, 65
17, 148859, Note_on_c, 14, 63, 0
17, 148859, Note_on_c, 14, 67, 0
17, 148860, Note_on_c, 14, 68, 65
17, 148860, Note_on_c, 14, 64, 65
17, 148919, Note_on_c, 14, 64, 0
17, 148919, Note_on_c, 14, 68, 0
17, 149040, Note_on_c, 14, 64, 65
17, 149040, Note_on_c, 14, 67, 65
17, 149159, Note_on_c, 14, 67, 0
17, 149159, Note_on_c, 14, 64, 0
17, 149220, Note_on_c, 14, 62, 65
17, 149279, Note_on_c, 14, 62, 0
17, 149280, Note_on_c, 14, 59, 65
17, 149339, Note_on_c, 14, 59, 0
17, 149340, Note_on_c, 14, 62, 65
17, 149399, Note_on_c, 14, 62, 0
17, 149400, Note_on_c, 14, 58, 65
17, 149400, Note_on_c, 14, 61, 65
17, 149400, Note_on_c, 14, 66, 65
17, 149520, Note_on_c, 14, 66, 0
17, 149520, Note_on_c, 14, 61, 0
17, 149520, Note_on_c, 14, 58, 0
17, 149520, Note_on_c, 14, 59, 65
17, 149520, Note_on_c, 14, 62, 65
17, 149520, Note_on_c, 14, 66, 65
17, 149640, Note_on_c, 14, 66, 0
17, 149640, Note_on_c, 14, 62, 0
17, 149640, Note_on_c, 14, 59, 0
17, 149640, Note_on_c, 14, 58, 65
17, 149640, Note_on_c, 14, 61, 65
17, 149640, Note_on_c, 14, 66, 65
17, 149760, Note_on_c, 14, 66, 0
17, 149760, Note_on_c, 14, 61, 0
17, 149760, Note_on_c, 14, 58, 0
17, 149760, Note_on_c, 14, 59, 65
17, 149760, Note_on_c, 14, 62, 65
17, 149760, Note_on_c, 14, 66, 65
17, 149880, Note_on_c, 14, 66, 0
17, 149880, Note_on_c, 14, 62, 0
17, 149880, Note_on_c, 14, 59, 0
17, 149880, Note_on_c, 14, 58, 65
17, 149880, Note_on_c, 14, 61, 65
17, 149880, Note_on_c, 14, 64, 65
17, 150000, Note_on_c, 14, 64, 0
17, 150000, Note_on_c, 14, 61, 0
17, 150000, Note_on_c, 14, 58, 0
17, 150000, Note_on_c, 14, 59, 65
17, 150000, Note_on_c, 14, 62, 65
17, 150120, Note_on_c, 14, 62, 0
17, 150120, Note_on_c, 14, 59, 0
17, 150180, Note_on_c, 14, 69, 65
17, 150180, Note_on_c, 14, 63, 65
17, 150239, Note_on_c, 14, 63, 0
17, 150239, Note_on_c, 14, 69, 0
17, 150240, Note_on_c, 14, 64, 65
17, 150240, Note_on_c, 14, 67, 65
17, 150359, Note_on_c, 14, 67, 0
17, 150359, Note_on_c, 14, 64, 0
17, 150480, Note_on_c, 14, 64, 65
17, 150480, Note_on_c, 14, 67, 65
17, 150599, Note_on_c, 14, 67, 0
17, 150599, Note_on_c, 14, 64, 0
17, 150660, Note_on_c, 14, 63, 65
17, 150660, Note_on_c, 14, 59, 65
17, 150719, Note_on_c, 14, 59, 0
17, 150719, Note_on_c, 14, 63, 0
17, 150720, Note_on_c, 14, 64, 65
17, 150779, Note_on_c, 14, 64, 0
17, 150780, Note_on_c, 14, 60, 65
17, 150839, Note_on_c, 14, 60, 0
17, 150840, Note_on_c, 14, 67, 65
17, 150840, Note_on_c, 14, 64, 65
17, 150899, Note_on_c, 14, 64, 0
17, 150899, Note_on_c, 14, 67, 0
17, 150900, Note_on_c, 14, 66, 65
17, 150900, Note_on_c, 14, 63, 65
17, 150959, Note_on_c, 14, 63, 0
17, 150959, Note_on_c, 14, 66, 0
17, 150960, Note_on_c, 14, 67, 65
17, 150989, Note_on_c, 14, 67, 0
17, 150990, Note_on_c, 14, 69, 65
17, 151019, Note_on_c, 14, 69, 0
17, 151020, Note_on_c, 14, 67, 65
17, 151049, Note_on_c, 14, 67, 0
17, 151050, Note_on_c, 14, 66, 65
17, 151079, Note_on_c, 14, 66, 0
17, 151080, Note_on_c, 14, 59, 65
17, 151080, Note_on_c, 14, 64, 65
17, 151139, Note_on_c, 14, 64, 0
17, 151139, Note_on_c, 14, 59, 0
17, 151140, Note_on_c, 14, 64, 65
17, 151140, Note_on_c, 14, 67, 65
17, 151199, Note_on_c, 14, 67, 0
17, 151199, Note_on_c, 14, 64, 0
17, 151200, Note_on_c, 14, 64, 65
17, 151200, Note_on_c, 14, 67, 65
17, 151259, Note_on_c, 14, 67, 0
17, 151259, Note_on_c, 14, 64, 0
17, 151260, Note_on_c, 14, 66, 65
17, 151319, Note_on_c, 14, 66, 0
17, 151320, Note_on_c, 14, 71, 65
17, 151379, Note_on_c, 14, 71, 0
17, 151380, Note_on_c, 14, 64, 65
17, 151380, Note_on_c, 14, 70, 65
17, 151439, Note_on_c, 14, 70, 0
17, 151439, Note_on_c, 14, 64, 0
17, 151440, Note_on_c, 14, 64, 65
17, 151440, Note_on_c, 14, 70, 65
17, 151499, Note_on_c, 14, 70, 0
17, 151499, Note_on_c, 14, 64, 0
17, 151500, Note_on_c, 14, 62, 65
17, 151500, Note_on_c, 14, 71, 65
17, 151559, Note_on_c, 14, 71, 0
17, 151559, Note_on_c, 14, 62, 0
17, 151560, Note_on_c, 14, 64, 65
17, 151619, Note_on_c, 14, 64, 0
17, 151620, Note_on_c, 14, 71, 65
17, 151620, Note_on_c, 14, 62, 65
17, 151679, Note_on_c, 14, 62, 0
17, 151679, Note_on_c, 14, 71, 0
17, 151680, Note_on_c, 14, 71, 65
17, 151680, Note_on_c, 14, 62, 65
17, 151739, Note_on_c, 14, 62, 0
17, 151739, Note_on_c, 14, 71, 0
17, 151740, Note_on_c, 14, 73, 65
17, 151740, Note_on_c, 14, 61, 65
17, 151799, Note_on_c, 14, 61, 0
17, 151799, Note_on_c, 14, 73, 0
17, 151800, Note_on_c, 14, 64, 65
17, 151800, Note_on_c, 14, 73, 65
17, 151800, Note_on_c, 14, 59, 65
17, 151859, Note_on_c, 14, 59, 0
17, 151859, Note_on_c, 14, 73, 0
17, 151859, Note_on_c, 14, 64, 0
17, 151860, Note_on_c, 14, 65, 65
17, 151919, Note_on_c, 14, 65, 0
17, 151920, Note_on_c, 14, 62, 65
17, 151920, Note_on_c, 14, 59, 65
17, 151920, Note_on_c, 14, 66, 65
17, 151979, Note_on_c, 14, 66, 0
17, 151979, Note_on_c, 14, 59, 0
17, 151979, Note_on_c, 14, 62, 0
17, 151980, Note_on_c, 14, 61, 65
17, 151980, Note_on_c, 14, 64, 65
17, 152039, Note_on_c, 14, 64, 0
17, 152039, Note_on_c, 14, 61, 0
17, 152100, Note_on_c, 14, 66, 65
17, 152159, Note_on_c, 14, 66, 0
17, 152160, Note_on_c, 14, 62, 65
17, 152189, Note_on_c, 14, 62, 0
17, 152190, Note_on_c, 14, 64, 65
17, 152219, Note_on_c, 14, 64, 0
17, 152220, Note_on_c, 14, 66, 65
17, 152249, Note_on_c, 14, 66, 0
17, 152250, Note_on_c, 14, 64, 65
17, 152279, Note_on_c, 14, 64, 0
17, 152280, Note_on_c, 14, 59, 65
17, 152280, Note_on_c, 14, 62, 65
17, 152339, Note_on_c, 14, 62, 0
17, 152339, Note_on_c, 14, 59, 0
17, 152340, Note_on_c, 14, 61, 65
17, 152340, Note_on_c, 14, 58, 65
17, 152399, Note_on_c, 14, 58, 0
17, 152399, Note_on_c, 14, 61, 0
17, 152400, Note_on_c, 14, 62, 65
17, 152400, Note_on_c, 14, 59, 65
17, 152459, Note_on_c, 14, 59, 0
17, 152459, Note_on_c, 14, 62, 0
17, 152460, Note_on_c, 14, 62, 65
17, 152460, Note_on_c, 14, 66, 65
17, 152519, Note_on_c, 14, 66, 0
17, 152519, Note_on_c, 14, 62, 0
17, 152520, Note_on_c, 14, 61, 65
17, 152520, Note_on_c, 14, 66, 65
17, 152579, Note_on_c, 14, 66, 0
17, 152579, Note_on_c, 14, 61, 0
17, 152580, Note_on_c, 14, 61, 65
17, 152580, Note_on_c, 14, 64, 65
17, 152639, Note_on_c, 14, 64, 0
17, 152639, Note_on_c, 14, 61, 0
17, 152640, Note_on_c, 14, 62, 65
17, 152669, Note_on_c, 14, 62, 0
17, 152670, Note_on_c, 14, 64, 65
17, 152699, Note_on_c, 14, 64, 0
17, 152700, Note_on_c, 14, 66, 65
17, 152729, Note_on_c, 14, 66, 0
17, 152730, Note_on_c, 14, 64, 65
17, 152759, Note_on_c, 14, 64, 0
17, 152760, Note_on_c, 14, 66, 65
17, 152789, Note_on_c, 14, 66, 0
17, 152790, Note_on_c, 14, 64, 65
17, 152819, Note_on_c, 14, 64, 0
17, 152820, Note_on_c, 14, 62, 65
17, 152849, Note_on_c, 14, 62, 0
17, 152850, Note_on_c, 14, 61, 65
17, 152879, Note_on_c, 14, 61, 0
17, 152880, Note_on_c, 14, 62, 65
17, 152880, Note_on_c, 14, 59, 65
17, 152939, Note_on_c, 14, 59, 0
17, 152939, Note_on_c, 14, 62, 0
17, 152940, Note_on_c, 14, 62, 65
17, 152940, Note_on_c, 14, 66, 65
17, 152999, Note_on_c, 14, 66, 0
17, 152999, Note_on_c, 14, 62, 0
17, 153000, Note_on_c, 14, 61, 65
17, 153000, Note_on_c, 14, 66, 65
17, 153059, Note_on_c, 14, 66, 0
17, 153059, Note_on_c, 14, 61, 0
17, 153060, Note_on_c, 14, 58, 65
17, 153060, Note_on_c, 14, 64, 65
17, 153119, Note_on_c, 14, 64, 0
17, 153119, Note_on_c, 14, 58, 0
17, 153120, Note_on_c, 14, 59, 65
17, 153120, Note_on_c, 14, 66, 65
17, 153179, Note_on_c, 14, 66, 0
17, 153179, Note_on_c, 14, 59, 0
17, 153300, Note_on_c, 14, 59, 65
17, 153300, Note_on_c, 14, 65, 65
17, 153359, Note_on_c, 14, 65, 0
17, 153359, Note_on_c, 14, 59, 0
17, 153360, Note_on_c, 14, 66, 65
17, 153360, Note_on_c, 14, 59, 65
17, 153419, Note_on_c, 14, 59, 0
17, 153419, Note_on_c, 14, 66, 0
17, 153540, Note_on_c, 14, 59, 65
17, 153540, Note_on_c, 14, 67, 65
17, 153540, Note_on_c, 14, 62, 65
17, 153599, Note_on_c, 14, 62, 0
17, 153599, Note_on_c, 14, 67, 0
17, 153599, Note_on_c, 14, 59, 0
17, 153600, Note_on_c, 14, 66, 65
17, 153600, Note_on_c, 14, 62, 65
17, 153600, Note_on_c, 14, 59, 65
17, 153659, Note_on_c, 14, 59, 0
17, 153659, Note_on_c, 14, 62, 0
17, 153659, Note_on_c, 14, 66, 0
17, 153780, Note_on_c, 14, 70, 65
17, 153780, Note_on_c, 14, 61, 65
17, 153839, Note_on_c, 14, 61, 0
17, 153839, Note_on_c, 14, 70, 0
17, 153840, Note_on_c, 14, 62, 65
17, 153840, Note_on_c, 14, 66, 65
17, 153840, Note_on_c, 14, 71, 65
17, 153960, Note_on_c, 14, 71, 0
17, 153960, Note_on_c, 14, 66, 0
17, 153960, Note_on_c, 14, 62, 0
17, 154080, Note_on_c, 14, 66, 65
17, 154080, Note_on_c, 14, 62, 65
17, 154080, Note_on_c, 14, 69, 65
17, 154139, Note_on_c, 14, 66, 0
17, 154140, Note_on_c, 14, 65, 65
17, 154199, Note_on_c, 14, 65, 0
17, 154200, Note_on_c, 14, 69, 0
17, 154200, Note_on_c, 14, 62, 0
17, 154200, Note_on_c, 14, 66, 65
17, 154200, Note_on_c, 14, 71, 65
17, 154200, Note_on_c, 14, 62, 65
17, 154259, Note_on_c, 14, 66, 0
17, 154260, Note_on_c, 14, 66, 65
17, 154319, Note_on_c, 14, 66, 0
17, 154320, Note_on_c, 14, 62, 0
17, 154320, Note_on_c, 14, 71, 0
17, 154320, Note_on_c, 14, 62, 65
17, 154320, Note_on_c, 14, 59, 65
17, 154320, Note_on_c, 14, 68, 65
17, 154439, Note_on_c, 14, 68, 0
17, 154439, Note_on_c, 14, 59, 0
17, 154439, Note_on_c, 14, 62, 0
17, 154500, Note_on_c, 14, 71, 65
17, 154500, Note_on_c, 14, 61, 65
17, 154559, Note_on_c, 14, 61, 0
17, 154559, Note_on_c, 14, 71, 0
17, 154560, Note_on_c, 14, 62, 65
17, 154560, Note_on_c, 14, 71, 65
17, 154740, Note_on_c, 14, 71, 0
17, 154740, Note_on_c, 14, 62, 0
17, 154740, Note_on_c, 14, 61, 65
17, 154740, Note_on_c, 14, 70, 65
17, 154800, Note_on_c, 14, 70, 0
17, 154800, Note_on_c, 14, 61, 0
17, 154800, Note_on_c, 14, 66, 65
17, 154800, Note_on_c, 14, 62, 65
17, 154800, Note_on_c, 14, 71, 65
17, 154919, Note_on_c, 14, 71, 0
17, 154919, Note_on_c, 14, 62, 0
17, 154919, Note_on_c, 14, 66, 0
17, 154980, Note_on_c, 14, 66, 90
17, 154980, Note_on_c, 14, 58, 90
17, 155039, Note_on_c, 14, 58, 0
17, 155039, Note_on_c, 14, 66, 0
17, 155040, Note_on_c, 14, 66, 90
17, 155040, Note_on_c, 14, 59, 90
17, 155099, Note_on_c, 14, 59, 0
17, 155099, Note_on_c, 14, 66, 0
17, 155100, Note_on_c, 14, 66, 90
17, 155100, Note_on_c, 14, 62, 90
17, 155159, Note_on_c, 14, 62, 0
17, 155159, Note_on_c, 14, 66, 0
17, 155160, Note_on_c, 14, 64, 90
17, 155160, Note_on_c, 14, 70, 90
17, 155219, Note_on_c, 14, 70, 0
17, 155219, Note_on_c, 14, 64, 0
17, 155220, Note_on_c, 14, 66, 90
17, 155220, Note_on_c, 14, 64, 90
17, 155279, Note_on_c, 14, 64, 0
17, 155279, Note_on_c, 14, 66, 0
17, 155280, Note_on_c, 14, 62, 90
17, 155280, Note_on_c, 14, 66, 90
17, 155400, Note_on_c, 14, 66, 0
17, 155400, Note_on_c, 14, 62, 0
17, 155460, Note_on_c, 14, 61, 90
17, 155460, Note_on_c, 14, 66, 90
17, 155519, Note_on_c, 14, 66, 0
17, 155519, Note_on_c, 14, 61, 0
17, 155520, Note_on_c, 14, 62, 90
17, 155520, Note_on_c, 14, 66, 90
17, 155640, Note_on_c, 14, 66, 0
17, 155640, Note_on_c, 14, 62, 0
17, 155640, Note_on_c, 14, 61, 90
17, 155640, Note_on_c, 14, 71, 90
17, 155699, Note_on_c, 14, 71, 0
17, 155699, Note_on_c, 14, 61, 0
17, 155700, Note_on_c, 14, 61, 90
17, 155700, Note_on_c, 14, 70, 90
17, 155700, Note_on_c, 14, 66, 90
17, 155759, Note_on_c, 14, 66, 0
17, 155759, Note_on_c, 14, 70, 0
17, 155759, Note_on_c, 14, 61, 0
17, 155760, Note_on_c, 14, 62, 90
17, 155760, Note_on_c, 14, 66, 90
17, 155760, Note_on_c, 14, 71, 90
17, 155879, Note_on_c, 14, 71, 0
17, 155879, Note_on_c, 14, 66, 0
17, 155879, Note_on_c, 14, 62, 0
17, 155940, Note_on_c, 14, 61, 90
17, 155940, Note_on_c, 14, 66, 90
17, 155999, Note_on_c, 14, 66, 0
17, 155999, Note_on_c, 14, 61, 0
17, 156000, Note_on_c, 14, 62, 90
17, 156000, Note_on_c, 14, 66, 90
17, 156119, Note_on_c, 14, 66, 0
17, 156119, Note_on_c, 14, 62, 0
17, 156240, Note_on_c, 14, 59, 90
17, 156240, Note_on_c, 14, 62, 90
17, 156359, Note_on_c, 14, 62, 0
17, 156359, Note_on_c, 14, 59, 0
17, 156540, Note_on_c, 14, 61, 90
17, 156540, Note_on_c, 14, 71, 90
17, 156599, Note_on_c, 14, 71, 0
17, 156599, Note_on_c, 14, 61, 0
17, 156600, Note_on_c, 14, 74, 90
17, 156600, Note_on_c, 14, 62, 90
17, 156659, Note_on_c, 14, 62, 0
17, 156659, Note_on_c, 14, 74, 0
17, 156660, Note_on_c, 14, 61, 90
17, 156660, Note_on_c, 14, 70, 90
17, 156719, Note_on_c, 14, 70, 0
17, 156719, Note_on_c, 14, 61, 0
17, 156720, Note_on_c, 14, 66, 90
17, 156720, Note_on_c, 14, 71, 90
17, 156779, Note_on_c, 14, 71, 0
17, 156779, Note_on_c, 14, 66, 0
17, 156780, Note_on_c, 14, 70, 90
17, 156839, Note_on_c, 14, 70, 0
17, 156840, Note_on_c, 14, 66, 90
17, 156840, Note_on_c, 14, 71, 90
17, 156899, Note_on_c, 14, 71, 0
17, 156899, Note_on_c, 14, 66, 0
17, 156900, Note_on_c, 14, 59, 90
17, 156900, Note_on_c, 14, 66, 90
17, 156959, Note_on_c, 14, 66, 0
17, 156959, Note_on_c, 14, 59, 0
17, 156960, Note_on_c, 14, 59, 90
17, 156960, Note_on_c, 14, 62, 90
17, 157019, Note_on_c, 14, 62, 0
17, 157019, Note_on_c, 14, 59, 0
17, 157020, Note_on_c, 14, 61, 90
17, 157079, Note_on_c, 14, 61, 0
17, 157080, Note_on_c, 14, 65, 90
17, 157080, Note_on_c, 14, 61, 90
17, 157080, Note_on_c, 14, 59, 90
17, 157139, Note_on_c, 14, 59, 0
17, 157139, Note_on_c, 14, 61, 0
17, 157139, Note_on_c, 14, 65, 0
17, 157140, Note_on_c, 14, 59, 90
17, 157140, Note_on_c, 14, 65, 90
17, 157199, Note_on_c, 14, 65, 0
17, 157199, Note_on_c, 14, 59, 0
17, 157200, Note_on_c, 14, 65, 90
17, 157200, Note_on_c, 14, 59, 90
17, 157259, Note_on_c, 14, 59, 0
17, 157259, Note_on_c, 14, 65, 0
17, 157260, Note_on_c, 14, 57, 90
17, 157260, Note_on_c, 14, 66, 90
17, 157319, Note_on_c, 14, 66, 0
17, 157319, Note_on_c, 14, 57, 0
17, 157320, Note_on_c, 14, 61, 90
17, 157320, Note_on_c, 14, 66, 90
17, 157379, Note_on_c, 14, 66, 0
17, 157379, Note_on_c, 14, 61, 0
17, 157380, Note_on_c, 14, 69, 90
17, 157380, Note_on_c, 14, 60, 90
17, 157439, Note_on_c, 14, 60, 0
17, 157439, Note_on_c, 14, 69, 0
17, 157440, Note_on_c, 14, 69, 90
17, 157440, Note_on_c, 14, 60, 90
17, 157499, Note_on_c, 14, 60, 0
17, 157499, Note_on_c, 14, 69, 0
17, 157500, Note_on_c, 14, 68, 90
17, 157500, Note_on_c, 14, 59, 90
17, 157559, Note_on_c, 14, 59, 0
17, 157559, Note_on_c, 14, 68, 0
17, 157560, Note_on_c, 14, 63, 90
17, 157560, Note_on_c, 14, 71, 90
17, 157560, Note_on_c, 14, 57, 90
17, 157619, Note_on_c, 14, 57, 0
17, 157619, Note_on_c, 14, 71, 0
17, 157619, Note_on_c, 14, 63, 0
17, 157620, Note_on_c, 14, 69, 90
17, 157620, Note_on_c, 14, 63, 90
17, 157679, Note_on_c, 14, 63, 0
17, 157679, Note_on_c, 14, 69, 0
17, 157680, Note_on_c, 14, 69, 90
17, 157680, Note_on_c, 14, 63, 90
17, 157739, Note_on_c, 14, 63, 0
17, 157739, Note_on_c, 14, 69, 0
17, 157740, Note_on_c, 14, 67, 90
17, 157740, Note_on_c, 14, 64, 90
17, 157799, Note_on_c, 14, 64, 0
17, 157799, Note_on_c, 14, 67, 0
17, 157800, Note_on_c, 14, 67, 90
17, 157800, Note_on_c, 14, 61, 90
17, 157859, Note_on_c, 14, 61, 0
17, 157859, Note_on_c, 14, 67, 0
17, 157860, Note_on_c, 14, 64, 90
17, 157860, Note_on_c, 14, 59, 90
17, 157919, Note_on_c, 14, 59, 0
17, 157919, Note_on_c, 14, 64, 0
17, 157920, Note_on_c, 14, 58, 90
17, 157920, Note_on_c, 14, 62, 90
17, 158040, Note_on_c, 14, 62, 0
17, 158040, Note_on_c, 14, 58, 0
17, 158040, Note_on_c, 14, 66, 90
17, 158099, Note_on_c, 14, 66, 0
17, 158100, Note_on_c, 14, 64, 90
17, 158159, Note_on_c, 14, 64, 0
17, 158160, Note_on_c, 14, 67, 90
17, 158160, Note_on_c, 14, 58, 90
17, 158219, Note_on_c, 14, 58, 0
17, 158219, Note_on_c, 14, 67, 0
17, 158220, Note_on_c, 14, 66, 90
17, 158220, Note_on_c, 14, 59, 90
17, 158279, Note_on_c, 14, 59, 0
17, 158279, Note_on_c, 14, 66, 0
17, 158280, Note_on_c, 14, 66, 90
17, 158280, Note_on_c, 14, 64, 90
17, 158339, Note_on_c, 14, 64, 0
17, 158339, Note_on_c, 14, 66, 0
17, 158340, Note_on_c, 14, 61, 90
17, 158340, Note_on_c, 14, 64, 90
17, 158399, Note_on_c, 14, 64, 0
17, 158399, Note_on_c, 14, 61, 0
17, 158400, Note_on_c, 14, 62, 90
17, 158400, Note_on_c, 14, 66, 90
17, 158459, Note_on_c, 14, 66, 0
17, 158459, Note_on_c, 14, 62, 0
17, 158460, Note_on_c, 14, 66, 90
17, 158460, Note_on_c, 14, 59, 90
17, 158519, Note_on_c, 14, 59, 0
17, 158519, Note_on_c, 14, 66, 0
17, 158520, Note_on_c, 14, 62, 90
17, 158579, Note_on_c, 14, 62, 0
17, 158580, Note_on_c, 14, 64, 90
17, 158580, Note_on_c, 14, 61, 90
17, 158639, Note_on_c, 14, 61, 0
17, 158639, Note_on_c, 14, 64, 0
17, 158640, Note_on_c, 14, 59, 90
17, 158640, Note_on_c, 14, 62, 90
17, 158759, Note_on_c, 14, 62, 0
17, 158759, Note_on_c, 14, 59, 0
17, 158880, Note_on_c, 14, 69, 70
17, 158880, Note_on_c, 14, 61, 70
17, 158880, Note_on_c, 14, 64, 70
17, 159240, Note_on_c, 14, 69, 0
17, 159240, Note_on_c, 14, 67, 70
17, 159359, Note_on_c, 14, 64, 0
17, 159359, Note_on_c, 14, 61, 0
17, 159360, Note_on_c, 14, 67, 0
17, 159360, Note_on_c, 14, 61, 70
17, 159360, Note_on_c, 14, 66, 70
17, 159720, Note_on_c, 14, 66, 0
17, 159720, Note_on_c, 14, 64, 70
17, 159839, Note_on_c, 14, 61, 0
17, 159840, Note_on_c, 14, 64, 0
17, 159840, Note_on_c, 14, 71, 70
17, 159840, Note_on_c, 14, 59, 70
17, 159840, Note_on_c, 14, 62, 70
17, 160200, Note_on_c, 14, 71, 0
17, 160200, Note_on_c, 14, 69, 70
17, 160319, Note_on_c, 14, 62, 0
17, 160319, Note_on_c, 14, 59, 0
17, 160320, Note_on_c, 14, 69, 0
17, 160320, Note_on_c, 14, 68, 70
17, 160320, Note_on_c, 14, 62, 70
17, 160799, Note_on_c, 14, 62, 0
17, 160799, Note_on_c, 14, 68, 0
17, 160800, Note_on_c, 14, 64, 70
17, 160800, Note_on_c, 14, 67, 70
17, 161279, Note_on_c, 14, 67, 0
17, 161279, Note_on_c, 14, 64, 0
17, 161280, Note_on_c, 14, 60, 70
17, 161280, Note_on_c, 14, 66, 70
17, 161759, Note_on_c, 14, 66, 0
17, 161759, Note_on_c, 14, 60, 0
17, 161760, Note_on_c, 14, 62, 70
17, 161760, Note_on_c, 14, 59, 70
17, 161760, Note_on_c, 14, 67, 70
17, 161880, Note_on_c, 14, 67, 0
17, 161880, Note_on_c, 14, 59, 0
17, 161880, Note_on_c, 14, 62, 0
17, 161880, Note_on_c, 14, 69, 70
17, 161880, Note_on_c, 14, 61, 70
17, 161939, Note_on_c, 14, 69, 0
17, 161940, Note_on_c, 14, 67, 70
17, 161999, Note_on_c, 14, 67, 0
17, 162000, Note_on_c, 14, 61, 0
17, 162000, Note_on_c, 14, 61, 70
17, 162000, Note_on_c, 14, 64, 70
17, 162000, Note_on_c, 14, 67, 70
17, 162000, Note_on_c, 14, 69, 70
17, 162059, Note_on_c, 14, 69, 0
17, 162059, Note_on_c, 14, 67, 0
17, 162059, Note_on_c, 14, 64, 0
17, 162060, Note_on_c, 14, 62, 70
17, 162060, Note_on_c, 14, 66, 70
17, 162119, Note_on_c, 14, 66, 0
17, 162119, Note_on_c, 14, 62, 0
17, 162120, Note_on_c, 14, 61, 0
17, 162120, Note_on_c, 14, 62, 70
17, 162120, Note_on_c, 14, 66, 70
17, 162240, Note_on_c, 14, 66, 0
17, 162240, Note_on_c, 14, 62, 0
17, 162240, Note_on_c, 14, 61, 70
17, 162240, Note_on_c, 14, 65, 70
17, 162359, Note_on_c, 14, 65, 0
17, 162359, Note_on_c, 14, 61, 0
17, 162600, Note_on_c, 14, 57, 70
17, 162600, Note_on_c, 14, 66, 70
17, 162600, Note_on_c, 14, 62, 70
17, 162660, Note_on_c, 14, 62, 0
17, 162660, Note_on_c, 14, 66, 0
17, 162660, Note_on_c, 14, 64, 70
17, 162660, Note_on_c, 14, 61, 70
17, 162719, Note_on_c, 14, 57, 0
17, 162720, Note_on_c, 14, 61, 0
17, 162720, Note_on_c, 14, 64, 0
17, 162720, Note_on_c, 14, 57, 70
17, 162720, Note_on_c, 14, 62, 70
17, 162959, Note_on_c, 14, 62, 0
17, 162959, Note_on_c, 14, 57, 0
17, 162959, End_track
18, 0, Start_track
18, 0, MIDI_port, 0
18, 0, Title_t, "Clave L"
18, 0, Program_c, 14, 19
18, 0, Control_c, 14, 7, 127
18, 0, Control_c, 14, 10, 76
18, 840, Note_on_c, 14, 38, 80
18, 887, Note_on_c, 14, 38, 0
18, 900, Note_on_c, 14, 50, 90
18, 947, Note_on_c, 14, 50, 0
18, 960, Note_on_c, 14, 54, 80
18, 1007, Note_on_c, 14, 54, 0
18, 1020, Note_on_c, 14, 50, 80
18, 1067, Note_on_c, 14, 50, 0
18, 1080, Note_on_c, 14, 49, 90
18, 1127, Note_on_c, 14, 49, 0
18, 1140, Note_on_c, 14, 45, 80
18, 1187, Note_on_c, 14, 45, 0
18, 1200, Note_on_c, 14, 49, 80
18, 1247, Note_on_c, 14, 49, 0
18, 1260, Note_on_c, 14, 50, 90
18, 1307, Note_on_c, 14, 50, 0
18, 1320, Note_on_c, 14, 57, 80
18, 1367, Note_on_c, 14, 57, 0
18, 1380, Note_on_c, 14, 45, 80
18, 1427, Note_on_c, 14, 45, 0
18, 1440, Note_on_c, 14, 50, 90
18, 1487, Note_on_c, 14, 50, 0
18, 1500, Note_on_c, 14, 42, 80
18, 1547, Note_on_c, 14, 42, 0
18, 1560, Note_on_c, 14, 45, 80
18, 1607, Note_on_c, 14, 45, 0
18, 1620, Note_on_c, 14, 50, 90
18, 1715, Note_on_c, 14, 50, 0
18, 2280, Note_on_c, 14, 57, 80
18, 2327, Note_on_c, 14, 57, 0
18, 2340, Note_on_c, 14, 50, 90
18, 2435, Note_on_c, 14, 50, 0
18, 2460, Note_on_c, 14, 59, 80
18, 2507, Note_on_c, 14, 59, 0
18, 2520, Note_on_c, 14, 49, 90
18, 2615, Note_on_c, 14, 49, 0
18, 2640, Note_on_c, 14, 57, 80
18, 2687, Note_on_c, 14, 57, 0
18, 2700, Note_on_c, 14, 47, 90
18, 2747, Note_on_c, 14, 47, 0
18, 2760, Note_on_c, 14, 49, 80
18, 2807, Note_on_c, 14, 49, 0
18, 2820, Note_on_c, 14, 50, 80
18, 2867, Note_on_c, 14, 50, 0
18, 2880, Note_on_c, 14, 45, 90
18, 2927, Note_on_c, 14, 45, 0
18, 2940, Note_on_c, 14, 49, 80
18, 2987, Note_on_c, 14, 49, 0
18, 3000, Note_on_c, 14, 45, 80
18, 3047, Note_on_c, 14, 45, 0
18, 3060, Note_on_c, 14, 50, 90
18, 3089, Note_on_c, 14, 50, 0
18, 3090, Note_on_c, 14, 49, 90
18, 3119, Note_on_c, 14, 49, 0
18, 3120, Note_on_c, 14, 54, 80
18, 3149, Note_on_c, 14, 54, 0
18, 3150, Note_on_c, 14, 52, 80
18, 3179, Note_on_c, 14, 52, 0
18, 3180, Note_on_c, 14, 50, 80
18, 3209, Note_on_c, 14, 50, 0
18, 3210, Note_on_c, 14, 49, 80
18, 3239, Note_on_c, 14, 49, 0
18, 3240, Note_on_c, 14, 50, 90
18, 3269, Note_on_c, 14, 50, 0
18, 3270, Note_on_c, 14, 47, 90
18, 3299, Note_on_c, 14, 47, 0
18, 3300, Note_on_c, 14, 52, 80
18, 3329, Note_on_c, 14, 52, 0
18, 3330, Note_on_c, 14, 50, 80
18, 3359, Note_on_c, 14, 50, 0
18, 3360, Note_on_c, 14, 49, 80
18, 3389, Note_on_c, 14, 49, 0
18, 3390, Note_on_c, 14, 47, 80
18, 3419, Note_on_c, 14, 47, 0
18, 3420, Note_on_c, 14, 45, 90
18, 3467, Note_on_c, 14, 45, 0
18, 3480, Note_on_c, 14, 38, 80
18, 3527, Note_on_c, 14, 38, 0
18, 3540, Note_on_c, 14, 40, 80
18, 3587, Note_on_c, 14, 40, 0
18, 3600, Note_on_c, 14, 42, 65
18, 3660, Note_on_c, 14, 42, 0
18, 3780, Note_on_c, 14, 52, 65
18, 3840, Note_on_c, 14, 52, 0
18, 3960, Note_on_c, 14, 51, 65
18, 4020, Note_on_c, 14, 51, 0
18, 4140, Note_on_c, 14, 52, 65
18, 4169, Note_on_c, 14, 52, 0
18, 4170, Note_on_c, 14, 50, 90
18, 4199, Note_on_c, 14, 50, 0
18, 4200, Note_on_c, 14, 49, 80
18, 4229, Note_on_c, 14, 49, 0
18, 4230, Note_on_c, 14, 50, 80
18, 4259, Note_on_c, 14, 50, 0
18, 4260, Note_on_c, 14, 52, 80
18, 4307, Note_on_c, 14, 52, 0
18, 4320, Note_on_c, 14, 45, 90
18, 4415, Note_on_c, 14, 45, 0
18, 4920, Note_on_c, 14, 43, 80
18, 4967, Note_on_c, 14, 43, 0
18, 4980, Note_on_c, 14, 47, 80
18, 5027, Note_on_c, 14, 47, 0
18, 5040, Note_on_c, 14, 40, 90
18, 5087, Note_on_c, 14, 40, 0
18, 5100, Note_on_c, 14, 43, 80
18, 5147, Note_on_c, 14, 43, 0
18, 5160, Note_on_c, 14, 47, 80
18, 5207, Note_on_c, 14, 47, 0
18, 5220, Note_on_c, 14, 52, 90
18, 5315, Note_on_c, 14, 52, 0
18, 5640, Note_on_c, 14, 42, 80
18, 5687, Note_on_c, 14, 42, 0
18, 5700, Note_on_c, 14, 45, 80
18, 5747, Note_on_c, 14, 45, 0
18, 5760, Note_on_c, 14, 50, 90
18, 5819, Note_on_c, 14, 50, 0
18, 5820, Note_on_c, 14, 52, 80
18, 5867, Note_on_c, 14, 52, 0
18, 5880, Note_on_c, 14, 54, 80
18, 5927, Note_on_c, 14, 54, 0
18, 5940, Note_on_c, 14, 55, 90
18, 5999, Note_on_c, 14, 55, 0
18, 6000, Note_on_c, 14, 54, 80
18, 6047, Note_on_c, 14, 54, 0
18, 6060, Note_on_c, 14, 52, 80
18, 6107, Note_on_c, 14, 52, 0
18, 6120, Note_on_c, 14, 54, 90
18, 6179, Note_on_c, 14, 54, 0
18, 6180, Note_on_c, 14, 52, 80
18, 6227, Note_on_c, 14, 52, 0
18, 6240, Note_on_c, 14, 50, 80
18, 6287, Note_on_c, 14, 50, 0
18, 6300, Note_on_c, 14, 59, 90
18, 6359, Note_on_c, 14, 59, 0
18, 6360, Note_on_c, 14, 57, 80
18, 6407, Note_on_c, 14, 57, 0
18, 6420, Note_on_c, 14, 55, 80
18, 6467, Note_on_c, 14, 55, 0
18, 6480, Note_on_c, 14, 57, 90
18, 6539, Note_on_c, 14, 57, 0
18, 6540, Note_on_c, 14, 55, 80
18, 6587, Note_on_c, 14, 55, 0
18, 6600, Note_on_c, 14, 54, 80
18, 6647, Note_on_c, 14, 54, 0
18, 6660, Note_on_c, 14, 56, 90
18, 6719, Note_on_c, 14, 56, 0
18, 6720, Note_on_c, 14, 52, 80
18, 6767, Note_on_c, 14, 52, 0
18, 6780, Note_on_c, 14, 56, 80
18, 6827, Note_on_c, 14, 56, 0
18, 6840, Note_on_c, 14, 57, 90
18, 6887, Note_on_c, 14, 57, 0
18, 6900, Note_on_c, 14, 57, 80
18, 6947, Note_on_c, 14, 57, 0
18, 6960, Note_on_c, 14, 57, 80
18, 7007, Note_on_c, 14, 57, 0
18, 7020, Note_on_c, 14, 58, 90
18, 7079, Note_on_c, 14, 58, 0
18, 7080, Note_on_c, 14, 54, 80
18, 7127, Note_on_c, 14, 54, 0
18, 7140, Note_on_c, 14, 58, 80
18, 7187, Note_on_c, 14, 58, 0
18, 7200, Note_on_c, 14, 59, 90
18, 7247, Note_on_c, 14, 59, 0
18, 7260, Note_on_c, 14, 59, 80
18, 7307, Note_on_c, 14, 59, 0
18, 7320, Note_on_c, 14, 59, 80
18, 7367, Note_on_c, 14, 59, 0
18, 7380, Note_on_c, 14, 46, 90
18, 7427, Note_on_c, 14, 46, 0
18, 7440, Note_on_c, 14, 46, 80
18, 7487, Note_on_c, 14, 46, 0
18, 7500, Note_on_c, 14, 46, 80
18, 7547, Note_on_c, 14, 46, 0
18, 7560, Note_on_c, 14, 40, 90
18, 7607, Note_on_c, 14, 40, 0
18, 7620, Note_on_c, 14, 40, 80
18, 7667, Note_on_c, 14, 40, 0
18, 7680, Note_on_c, 14, 40, 80
18, 7727, Note_on_c, 14, 40, 0
18, 7740, Note_on_c, 14, 42, 90
18, 7799, Note_on_c, 14, 42, 0
18, 7800, Note_on_c, 14, 43, 80
18, 7847, Note_on_c, 14, 43, 0
18, 7860, Note_on_c, 14, 45, 80
18, 7907, Note_on_c, 14, 45, 0
18, 7920, Note_on_c, 14, 47, 65
18, 7980, Note_on_c, 14, 47, 0
18, 8100, Note_on_c, 14, 45, 65
18, 8160, Note_on_c, 14, 45, 0
18, 8280, Note_on_c, 14, 44, 65
18, 8340, Note_on_c, 14, 44, 0
18, 8460, Note_on_c, 14, 45, 90
18, 8507, Note_on_c, 14, 45, 0
18, 8520, Note_on_c, 14, 42, 80
18, 8567, Note_on_c, 14, 42, 0
18, 8580, Note_on_c, 14, 45, 80
18, 8627, Note_on_c, 14, 45, 0
18, 8640, Note_on_c, 14, 38, 90
18, 8735, Note_on_c, 14, 38, 0
18, 8760, Note_on_c, 14, 50, 80
18, 8789, Note_on_c, 14, 50, 0
18, 8790, Note_on_c, 14, 52, 80
18, 8819, Note_on_c, 14, 52, 0
18, 8820, Note_on_c, 14, 54, 90
18, 8867, Note_on_c, 14, 54, 0
18, 8880, Note_on_c, 14, 52, 80
18, 8927, Note_on_c, 14, 52, 0
18, 8940, Note_on_c, 14, 50, 80
18, 8987, Note_on_c, 14, 50, 0
18, 9000, Note_on_c, 14, 49, 90
18, 9047, Note_on_c, 14, 49, 0
18, 9060, Note_on_c, 14, 45, 80
18, 9107, Note_on_c, 14, 45, 0
18, 9120, Note_on_c, 14, 49, 80
18, 9167, Note_on_c, 14, 49, 0
18, 9180, Note_on_c, 14, 50, 90
18, 9227, Note_on_c, 14, 50, 0
18, 9240, Note_on_c, 14, 43, 80
18, 9287, Note_on_c, 14, 43, 0
18, 9300, Note_on_c, 14, 45, 80
18, 9347, Note_on_c, 14, 45, 0
18, 9360, Note_on_c, 14, 50, 90
18, 9407, Note_on_c, 14, 50, 0
18, 9420, Note_on_c, 14, 49, 80
18, 9467, Note_on_c, 14, 49, 0
18, 9480, Note_on_c, 14, 47, 80
18, 9527, Note_on_c, 14, 47, 0
18, 9540, Note_on_c, 14, 49, 90
18, 9587, Note_on_c, 14, 49, 0
18, 9600, Note_on_c, 14, 47, 80
18, 9647, Note_on_c, 14, 47, 0
18, 9660, Note_on_c, 14, 45, 80
18, 9707, Note_on_c, 14, 45, 0
18, 9720, Note_on_c, 14, 44, 90
18, 9767, Note_on_c, 14, 44, 0
18, 9780, Note_on_c, 14, 52, 80
18, 9827, Note_on_c, 14, 52, 0
18, 9840, Note_on_c, 14, 44, 80
18, 9887, Note_on_c, 14, 44, 0
18, 9900, Note_on_c, 14, 45, 90
18, 9947, Note_on_c, 14, 45, 0
18, 9960, Note_on_c, 14, 38, 80
18, 10007, Note_on_c, 14, 38, 0
18, 10020, Note_on_c, 14, 40, 80
18, 10067, Note_on_c, 14, 40, 0
18, 10080, Note_on_c, 14, 45, 90
18, 10127, Note_on_c, 14, 45, 0
18, 10140, Note_on_c, 14, 57, 80
18, 10187, Note_on_c, 14, 57, 0
18, 10200, Note_on_c, 14, 55, 80
18, 10247, Note_on_c, 14, 55, 0
18, 10260, Note_on_c, 14, 54, 90
18, 10307, Note_on_c, 14, 54, 0
18, 10320, Note_on_c, 14, 52, 80
18, 10367, Note_on_c, 14, 52, 0
18, 10380, Note_on_c, 14, 50, 80
18, 10427, Note_on_c, 14, 50, 0
18, 10440, Note_on_c, 14, 49, 90
18, 10487, Note_on_c, 14, 49, 0
18, 10500, Note_on_c, 14, 57, 80
18, 10547, Note_on_c, 14, 57, 0
18, 10560, Note_on_c, 14, 49, 80
18, 10607, Note_on_c, 14, 49, 0
18, 10620, Note_on_c, 14, 50, 90
18, 10667, Note_on_c, 14, 50, 0
18, 10680, Note_on_c, 14, 57, 80
18, 10727, Note_on_c, 14, 57, 0
18, 10740, Note_on_c, 14, 45, 80
18, 10787, Note_on_c, 14, 45, 0
18, 10800, Note_on_c, 14, 50, 90
18, 10847, Note_on_c, 14, 50, 0
18, 10860, Note_on_c, 14, 38, 80
18, 10907, Note_on_c, 14, 38, 0
18, 10920, Note_on_c, 14, 50, 80
18, 10967, Note_on_c, 14, 50, 0
18, 10980, Note_on_c, 14, 57, 90
18, 11075, Note_on_c, 14, 57, 0
18, 11100, Note_on_c, 14, 52, 80
18, 11148, Note_on_c, 14, 52, 0
18, 11160, Note_on_c, 14, 59, 90
18, 11255, Note_on_c, 14, 59, 0
18, 11280, Note_on_c, 14, 52, 80
18, 11327, Note_on_c, 14, 52, 0
18, 11340, Note_on_c, 14, 61, 90
18, 11387, Note_on_c, 14, 61, 0
18, 11400, Note_on_c, 14, 59, 80
18, 11429, Note_on_c, 14, 59, 0
18, 11430, Note_on_c, 14, 61, 80
18, 11459, Note_on_c, 14, 61, 0
18, 11460, Note_on_c, 14, 62, 80
18, 11489, Note_on_c, 14, 62, 0
18, 11490, Note_on_c, 14, 59, 80
18, 11519, Note_on_c, 14, 59, 0
18, 11520, Note_on_c, 14, 61, 90
18, 11567, Note_on_c, 14, 61, 0
18, 11580, Note_on_c, 14, 57, 80
18, 11627, Note_on_c, 14, 57, 0
18, 11640, Note_on_c, 14, 55, 80
18, 11687, Note_on_c, 14, 55, 0
18, 11700, Note_on_c, 14, 54, 90
18, 11747, Note_on_c, 14, 54, 0
18, 11760, Note_on_c, 14, 52, 80
18, 11807, Note_on_c, 14, 52, 0
18, 11820, Note_on_c, 14, 50, 80
18, 11867, Note_on_c, 14, 50, 0
18, 11880, Note_on_c, 14, 49, 90
18, 11927, Note_on_c, 14, 49, 0
18, 11940, Note_on_c, 14, 57, 80
18, 11987, Note_on_c, 14, 57, 0
18, 12000, Note_on_c, 14, 49, 80
18, 12047, Note_on_c, 14, 49, 0
18, 12060, Note_on_c, 14, 50, 90
18, 12107, Note_on_c, 14, 50, 0
18, 12120, Note_on_c, 14, 57, 80
18, 12167, Note_on_c, 14, 57, 0
18, 12180, Note_on_c, 14, 45, 80
18, 12227, Note_on_c, 14, 45, 0
18, 12240, Note_on_c, 14, 50, 90
18, 12287, Note_on_c, 14, 50, 0
18, 12300, Note_on_c, 14, 38, 80
18, 12347, Note_on_c, 14, 38, 0
18, 12360, Note_on_c, 14, 49, 80
18, 12407, Note_on_c, 14, 49, 0
18, 12420, Note_on_c, 14, 47, 90
18, 12467, Note_on_c, 14, 47, 0
18, 12480, Note_on_c, 14, 49, 80
18, 12527, Note_on_c, 14, 49, 0
18, 12540, Note_on_c, 14, 50, 80
18, 12587, Note_on_c, 14, 50, 0
18, 12600, Note_on_c, 14, 49, 90
18, 12647, Note_on_c, 14, 49, 0
18, 12660, Note_on_c, 14, 47, 80
18, 12707, Note_on_c, 14, 47, 0
18, 12720, Note_on_c, 14, 49, 80
18, 12767, Note_on_c, 14, 49, 0
18, 12780, Note_on_c, 14, 50, 90
18, 12827, Note_on_c, 14, 50, 0
18, 12840, Note_on_c, 14, 43, 80
18, 12887, Note_on_c, 14, 43, 0
18, 12900, Note_on_c, 14, 45, 80
18, 12947, Note_on_c, 14, 45, 0
18, 12960, Note_on_c, 14, 50, 90
18, 13007, Note_on_c, 14, 50, 0
18, 13020, Note_on_c, 14, 49, 80
18, 13067, Note_on_c, 14, 49, 0
18, 13080, Note_on_c, 14, 47, 80
18, 13127, Note_on_c, 14, 47, 0
18, 13140, Note_on_c, 14, 49, 90
18, 13187, Note_on_c, 14, 49, 0
18, 13200, Note_on_c, 14, 47, 80
18, 13247, Note_on_c, 14, 47, 0
18, 13260, Note_on_c, 14, 45, 80
18, 13307, Note_on_c, 14, 45, 0
18, 13320, Note_on_c, 14, 44, 90
18, 13367, Note_on_c, 14, 44, 0
18, 13380, Note_on_c, 14, 52, 80
18, 13427, Note_on_c, 14, 52, 0
18, 13440, Note_on_c, 14, 44, 80
18, 13487, Note_on_c, 14, 44, 0
18, 13500, Note_on_c, 14, 45, 90
18, 13547, Note_on_c, 14, 45, 0
18, 13560, Note_on_c, 14, 38, 80
18, 13607, Note_on_c, 14, 38, 0
18, 13620, Note_on_c, 14, 40, 80
18, 13667, Note_on_c, 14, 40, 0
18, 13680, Note_on_c, 14, 45, 90
18, 13727, Note_on_c, 14, 45, 0
18, 13740, Note_on_c, 14, 57, 80
18, 13787, Note_on_c, 14, 57, 0
18, 13800, Note_on_c, 14, 55, 80
18, 13847, Note_on_c, 14, 55, 0
18, 13860, Note_on_c, 14, 54, 90
18, 13907, Note_on_c, 14, 54, 0
18, 13920, Note_on_c, 14, 52, 80
18, 13967, Note_on_c, 14, 52, 0
18, 13980, Note_on_c, 14, 50, 80
18, 14027, Note_on_c, 14, 50, 0
18, 14040, Note_on_c, 14, 49, 90
18, 14087, Note_on_c, 14, 49, 0
18, 14100, Note_on_c, 14, 57, 80
18, 14147, Note_on_c, 14, 57, 0
18, 14160, Note_on_c, 14, 49, 80
18, 14207, Note_on_c, 14, 49, 0
18, 14220, Note_on_c, 14, 50, 90
18, 14267, Note_on_c, 14, 50, 0
18, 14280, Note_on_c, 14, 57, 80
18, 14327, Note_on_c, 14, 57, 0
18, 14340, Note_on_c, 14, 45, 80
18, 14387, Note_on_c, 14, 45, 0
18, 14400, Note_on_c, 14, 50, 90
18, 14447, Note_on_c, 14, 50, 0
18, 14460, Note_on_c, 14, 38, 80
18, 14507, Note_on_c, 14, 38, 0
18, 14520, Note_on_c, 14, 50, 80
18, 14567, Note_on_c, 14, 50, 0
18, 14580, Note_on_c, 14, 57, 90
18, 14675, Note_on_c, 14, 57, 0
18, 14700, Note_on_c, 14, 52, 80
18, 14747, Note_on_c, 14, 52, 0
18, 14760, Note_on_c, 14, 59, 90
18, 14855, Note_on_c, 14, 59, 0
18, 14880, Note_on_c, 14, 52, 80
18, 14927, Note_on_c, 14, 52, 0
18, 14940, Note_on_c, 14, 61, 90
18, 14987, Note_on_c, 14, 61, 0
18, 15000, Note_on_c, 14, 59, 80
18, 15029, Note_on_c, 14, 59, 0
18, 15030, Note_on_c, 14, 61, 80
18, 15059, Note_on_c, 14, 61, 0
18, 15060, Note_on_c, 14, 62, 80
18, 15089, Note_on_c, 14, 62, 0
18, 15090, Note_on_c, 14, 59, 80
18, 15119, Note_on_c, 14, 59, 0
18, 15120, Note_on_c, 14, 61, 90
18, 15167, Note_on_c, 14, 61, 0
18, 15180, Note_on_c, 14, 57, 80
18, 15227, Note_on_c, 14, 57, 0
18, 15240, Note_on_c, 14, 55, 80
18, 15287, Note_on_c, 14, 55, 0
18, 15300, Note_on_c, 14, 54, 90
18, 15347, Note_on_c, 14, 54, 0
18, 15360, Note_on_c, 14, 52, 80
18, 15407, Note_on_c, 14, 52, 0
18, 15420, Note_on_c, 14, 50, 80
18, 15467, Note_on_c, 14, 50, 0
18, 15480, Note_on_c, 14, 49, 90
18, 15527, Note_on_c, 14, 49, 0
18, 15540, Note_on_c, 14, 57, 80
18, 15587, Note_on_c, 14, 57, 0
18, 15600, Note_on_c, 14, 49, 80
18, 15647, Note_on_c, 14, 49, 0
18, 15660, Note_on_c, 14, 50, 90
18, 15707, Note_on_c, 14, 50, 0
18, 15720, Note_on_c, 14, 57, 80
18, 15767, Note_on_c, 14, 57, 0
18, 15780, Note_on_c, 14, 45, 80
18, 15827, Note_on_c, 14, 45, 0
18, 15840, Note_on_c, 14, 50, 90
18, 15887, Note_on_c, 14, 50, 0
18, 15900, Note_on_c, 14, 38, 80
18, 15947, Note_on_c, 14, 38, 0
18, 15960, Note_on_c, 14, 45, 80
18, 16007, Note_on_c, 14, 45, 0
18, 16020, Note_on_c, 14, 50, 90
18, 16067, Note_on_c, 14, 50, 0
18, 16080, Note_on_c, 14, 43, 80
18, 16109, Note_on_c, 14, 43, 0
18, 16110, Note_on_c, 14, 42, 80
18, 16139, Note_on_c, 14, 42, 0
18, 16140, Note_on_c, 14, 43, 80
18, 16235, Note_on_c, 14, 43, 0
18, 16260, Note_on_c, 14, 42, 80
18, 16289, Note_on_c, 14, 42, 0
18, 16290, Note_on_c, 14, 40, 80
18, 16319, Note_on_c, 14, 40, 0
18, 16320, Note_on_c, 14, 42, 80
18, 16415, Note_on_c, 14, 42, 0
18, 16440, Note_on_c, 14, 40, 80
18, 16487, Note_on_c, 14, 40, 0
18, 16500, Note_on_c, 14, 38, 80
18, 16547, Note_on_c, 14, 38, 0
18, 16560, Note_on_c, 14, 45, 90
18, 16607, Note_on_c, 14, 45, 0
18, 16620, Note_on_c, 14, 49, 80
18, 16667, Note_on_c, 14, 49, 0
18, 16680, Note_on_c, 14, 52, 80
18, 16727, Note_on_c, 14, 52, 0
18, 16740, Note_on_c, 14, 57, 90
18, 16787, Note_on_c, 14, 57, 0
18, 16800, Note_on_c, 14, 50, 80
18, 16829, Note_on_c, 14, 50, 0
18, 16830, Note_on_c, 14, 49, 80
18, 16859, Note_on_c, 14, 49, 0
18, 16860, Note_on_c, 14, 50, 80
18, 16955, Note_on_c, 14, 50, 0
18, 16980, Note_on_c, 14, 49, 80
18, 17009, Note_on_c, 14, 49, 0
18, 17010, Note_on_c, 14, 47, 80
18, 17039, Note_on_c, 14, 47, 0
18, 17040, Note_on_c, 14, 49, 80
18, 17135, Note_on_c, 14, 49, 0
18, 17160, Note_on_c, 14, 47, 80
18, 17207, Note_on_c, 14, 47, 0
18, 17220, Note_on_c, 14, 45, 80
18, 17267, Note_on_c, 14, 45, 0
18, 17280, Note_on_c, 14, 40, 90
18, 17327, Note_on_c, 14, 40, 0
18, 17340, Note_on_c, 14, 52, 80
18, 17387, Note_on_c, 14, 52, 0
18, 17400, Note_on_c, 14, 50, 80
18, 17447, Note_on_c, 14, 50, 0
18, 17460, Note_on_c, 14, 49, 90
18, 17489, Note_on_c, 14, 49, 0
18, 17490, Note_on_c, 14, 47, 90
18, 17519, Note_on_c, 14, 47, 0
18, 17520, Note_on_c, 14, 49, 80
18, 17549, Note_on_c, 14, 49, 0
18, 17550, Note_on_c, 14, 50, 80
18, 17579, Note_on_c, 14, 50, 0
18, 17580, Note_on_c, 14, 52, 80
18, 17627, Note_on_c, 14, 52, 0
18, 17640, Note_on_c, 14, 45, 90
18, 17687, Note_on_c, 14, 45, 0
18, 17700, Note_on_c, 14, 57, 80
18, 17747, Note_on_c, 14, 57, 0
18, 17760, Note_on_c, 14, 55, 80
18, 17807, Note_on_c, 14, 55, 0
18, 17820, Note_on_c, 14, 54, 90
18, 17849, Note_on_c, 14, 54, 0
18, 17850, Note_on_c, 14, 52, 90
18, 17879, Note_on_c, 14, 52, 0
18, 17880, Note_on_c, 14, 54, 80
18, 17909, Note_on_c, 14, 54, 0
18, 17910, Note_on_c, 14, 55, 80
18, 17939, Note_on_c, 14, 55, 0
18, 17940, Note_on_c, 14, 57, 80
18, 17987, Note_on_c, 14, 57, 0
18, 18000, Note_on_c, 14, 50, 90
18, 18047, Note_on_c, 14, 50, 0
18, 18060, Note_on_c, 14, 52, 80
18, 18107, Note_on_c, 14, 52, 0
18, 18120, Note_on_c, 14, 54, 80
18, 18167, Note_on_c, 14, 54, 0
18, 18180, Note_on_c, 14, 43, 90
18, 18275, Note_on_c, 14, 43, 0
18, 18300, Note_on_c, 14, 52, 80
18, 18347, Note_on_c, 14, 52, 0
18, 18360, Note_on_c, 14, 42, 90
18, 18455, Note_on_c, 14, 42, 0
18, 18480, Note_on_c, 14, 50, 80
18, 18527, Note_on_c, 14, 50, 0
18, 18540, Note_on_c, 14, 40, 90
18, 18587, Note_on_c, 14, 40, 0
18, 18600, Note_on_c, 14, 42, 80
18, 18647, Note_on_c, 14, 42, 0
18, 18660, Note_on_c, 14, 43, 80
18, 18731, Note_on_c, 14, 43, 0
18, 18750, Note_on_c, 14, 55, 90
18, 18779, Note_on_c, 14, 55, 0
18, 18780, Note_on_c, 14, 54, 80
18, 18809, Note_on_c, 14, 54, 0
18, 18810, Note_on_c, 14, 52, 80
18, 18839, Note_on_c, 14, 52, 0
18, 18840, Note_on_c, 14, 50, 80
18, 18869, Note_on_c, 14, 50, 0
18, 18870, Note_on_c, 14, 49, 80
18, 18899, Note_on_c, 14, 49, 0
18, 18900, Note_on_c, 14, 50, 90
18, 18995, Note_on_c, 14, 50, 0
18, 19020, Note_on_c, 14, 59, 80
18, 19067, Note_on_c, 14, 59, 0
18, 19080, Note_on_c, 14, 49, 90
18, 19175, Note_on_c, 14, 49, 0
18, 19200, Note_on_c, 14, 57, 80
18, 19247, Note_on_c, 14, 57, 0
18, 19260, Note_on_c, 14, 47, 90
18, 19307, Note_on_c, 14, 47, 0
18, 19320, Note_on_c, 14, 49, 80
18, 19367, Note_on_c, 14, 49, 0
18, 19380, Note_on_c, 14, 50, 80
18, 19427, Note_on_c, 14, 50, 0
18, 19440, Note_on_c, 14, 57, 90
18, 19487, Note_on_c, 14, 57, 0
18, 19500, Note_on_c, 14, 49, 80
18, 19547, Note_on_c, 14, 49, 0
18, 19560, Note_on_c, 14, 45, 80
18, 19607, Note_on_c, 14, 45, 0
18, 19620, Note_on_c, 14, 50, 90
18, 19667, Note_on_c, 14, 50, 0
18, 19680, Note_on_c, 14, 43, 80
18, 19709, Note_on_c, 14, 43, 0
18, 19710, Note_on_c, 14, 42, 80
18, 19739, Note_on_c, 14, 42, 0
18, 19740, Note_on_c, 14, 43, 80
18, 19835, Note_on_c, 14, 43, 0
18, 19860, Note_on_c, 14, 42, 80
18, 19889, Note_on_c, 14, 42, 0
18, 19890, Note_on_c, 14, 40, 80
18, 19919, Note_on_c, 14, 40, 0
18, 19920, Note_on_c, 14, 42, 80
18, 20015, Note_on_c, 14, 42, 0
18, 20040, Note_on_c, 14, 40, 80
18, 20087, Note_on_c, 14, 40, 0
18, 20100, Note_on_c, 14, 38, 80
18, 20147, Note_on_c, 14, 38, 0
18, 20160, Note_on_c, 14, 45, 90
18, 20207, Note_on_c, 14, 45, 0
18, 20220, Note_on_c, 14, 49, 80
18, 20267, Note_on_c, 14, 49, 0
18, 20280, Note_on_c, 14, 45, 80
18, 20327, Note_on_c, 14, 45, 0
18, 20340, Note_on_c, 14, 50, 90
18, 20369, Note_on_c, 14, 50, 0
18, 20370, Note_on_c, 14, 49, 90
18, 20399, Note_on_c, 14, 49, 0
18, 20400, Note_on_c, 14, 54, 80
18, 20429, Note_on_c, 14, 54, 0
18, 20430, Note_on_c, 14, 52, 80
18, 20459, Note_on_c, 14, 52, 0
18, 20460, Note_on_c, 14, 50, 80
18, 20489, Note_on_c, 14, 50, 0
18, 20490, Note_on_c, 14, 49, 80
18, 20519, Note_on_c, 14, 49, 0
18, 20520, Note_on_c, 14, 50, 90
18, 20549, Note_on_c, 14, 50, 0
18, 20550, Note_on_c, 14, 47, 90
18, 20579, Note_on_c, 14, 47, 0
18, 20580, Note_on_c, 14, 52, 80
18, 20609, Note_on_c, 14, 52, 0
18, 20610, Note_on_c, 14, 50, 80
18, 20639, Note_on_c, 14, 50, 0
18, 20640, Note_on_c, 14, 49, 80
18, 20669, Note_on_c, 14, 49, 0
18, 20670, Note_on_c, 14, 47, 80
18, 20699, Note_on_c, 14, 47, 0
18, 20700, Note_on_c, 14, 45, 90
18, 20747, Note_on_c, 14, 45, 0
18, 20760, Note_on_c, 14, 38, 80
18, 20807, Note_on_c, 14, 38, 0
18, 20820, Note_on_c, 14, 40, 80
18, 20867, Note_on_c, 14, 40, 0
18, 20880, Note_on_c, 14, 42, 70
18, 20940, Note_on_c, 14, 42, 0
18, 21060, Note_on_c, 14, 52, 70
18, 21120, Note_on_c, 14, 52, 0
18, 21240, Note_on_c, 14, 51, 70
18, 21300, Note_on_c, 14, 51, 0
18, 21420, Note_on_c, 14, 52, 70
18, 21449, Note_on_c, 14, 52, 0
18, 21450, Note_on_c, 14, 50, 90
18, 21479, Note_on_c, 14, 50, 0
18, 21480, Note_on_c, 14, 49, 90
18, 21509, Note_on_c, 14, 49, 0
18, 21510, Note_on_c, 14, 50, 90
18, 21539, Note_on_c, 14, 50, 0
18, 21540, Note_on_c, 14, 52, 90
18, 21587, Note_on_c, 14, 52, 0
18, 21600, Note_on_c, 14, 45, 90
18, 21647, Note_on_c, 14, 45, 0
18, 21660, Note_on_c, 14, 57, 80
18, 21719, Note_on_c, 14, 57, 0
18, 21720, Note_on_c, 14, 55, 80
18, 21767, Note_on_c, 14, 55, 0
18, 21780, Note_on_c, 14, 54, 90
18, 21827, Note_on_c, 14, 54, 0
18, 21840, Note_on_c, 14, 54, 80
18, 21899, Note_on_c, 14, 54, 0
18, 21900, Note_on_c, 14, 52, 80
18, 21947, Note_on_c, 14, 52, 0
18, 21960, Note_on_c, 14, 51, 90
18, 21990, Note_on_c, 14, 51, 0
18, 22020, Note_on_c, 14, 54, 80
18, 22049, Note_on_c, 14, 54, 0
18, 22050, Note_on_c, 14, 52, 80
18, 22079, Note_on_c, 14, 52, 0
18, 22080, Note_on_c, 14, 51, 80
18, 22109, Note_on_c, 14, 51, 0
18, 22110, Note_on_c, 14, 49, 80
18, 22139, Note_on_c, 14, 49, 0
18, 22140, Note_on_c, 14, 47, 90
18, 22187, Note_on_c, 14, 47, 0
18, 22200, Note_on_c, 14, 43, 80
18, 22247, Note_on_c, 14, 43, 0
18, 22260, Note_on_c, 14, 47, 80
18, 22307, Note_on_c, 14, 47, 0
18, 22320, Note_on_c, 14, 40, 90
18, 22367, Note_on_c, 14, 40, 0
18, 22380, Note_on_c, 14, 52, 80
18, 22439, Note_on_c, 14, 52, 0
18, 22440, Note_on_c, 14, 50, 80
18, 22487, Note_on_c, 14, 50, 0
18, 22500, Note_on_c, 14, 49, 90
18, 22547, Note_on_c, 14, 49, 0
18, 22560, Note_on_c, 14, 49, 80
18, 22619, Note_on_c, 14, 49, 0
18, 22620, Note_on_c, 14, 47, 80
18, 22667, Note_on_c, 14, 47, 0
18, 22680, Note_on_c, 14, 46, 90
18, 22710, Note_on_c, 14, 46, 0
18, 22740, Note_on_c, 14, 49, 80
18, 22769, Note_on_c, 14, 49, 0
18, 22770, Note_on_c, 14, 47, 80
18, 22799, Note_on_c, 14, 47, 0
18, 22800, Note_on_c, 14, 46, 80
18, 22829, Note_on_c, 14, 46, 0
18, 22830, Note_on_c, 14, 44, 80
18, 22859, Note_on_c, 14, 44, 0
18, 22860, Note_on_c, 14, 42, 90
18, 22907, Note_on_c, 14, 42, 0
18, 22920, Note_on_c, 14, 38, 80
18, 22967, Note_on_c, 14, 38, 0
18, 22980, Note_on_c, 14, 42, 80
18, 23027, Note_on_c, 14, 42, 0
18, 23040, Note_on_c, 14, 47, 90
18, 23087, Note_on_c, 14, 47, 0
18, 23100, Note_on_c, 14, 59, 80
18, 23159, Note_on_c, 14, 59, 0
18, 23160, Note_on_c, 14, 57, 80
18, 23207, Note_on_c, 14, 57, 0
18, 23220, Note_on_c, 14, 56, 90
18, 23267, Note_on_c, 14, 56, 0
18, 23280, Note_on_c, 14, 56, 80
18, 23339, Note_on_c, 14, 56, 0
18, 23340, Note_on_c, 14, 54, 80
18, 23387, Note_on_c, 14, 54, 0
18, 23400, Note_on_c, 14, 53, 90
18, 23430, Note_on_c, 14, 53, 0
18, 23460, Note_on_c, 14, 56, 80
18, 23489, Note_on_c, 14, 56, 0
18, 23490, Note_on_c, 14, 54, 80
18, 23519, Note_on_c, 14, 54, 0
18, 23520, Note_on_c, 14, 53, 80
18, 23549, Note_on_c, 14, 53, 0
18, 23550, Note_on_c, 14, 51, 80
18, 23579, Note_on_c, 14, 51, 0
18, 23580, Note_on_c, 14, 49, 90
18, 23627, Note_on_c, 14, 49, 0
18, 23640, Note_on_c, 14, 45, 80
18, 23687, Note_on_c, 14, 45, 0
18, 23700, Note_on_c, 14, 49, 80
18, 23747, Note_on_c, 14, 49, 0
18, 23760, Note_on_c, 14, 42, 90
18, 23807, Note_on_c, 14, 42, 0
18, 23820, Note_on_c, 14, 45, 80
18, 23867, Note_on_c, 14, 45, 0
18, 23880, Note_on_c, 14, 49, 80
18, 23927, Note_on_c, 14, 49, 0
18, 23940, Note_on_c, 14, 54, 90
18, 24035, Note_on_c, 14, 54, 0
18, 24060, Note_on_c, 14, 54, 80
18, 24107, Note_on_c, 14, 54, 0
18, 24120, Note_on_c, 14, 54, 90
18, 24167, Note_on_c, 14, 54, 0
18, 24180, Note_on_c, 14, 51, 80
18, 24209, Note_on_c, 14, 51, 0
18, 24210, Note_on_c, 14, 52, 80
18, 24239, Note_on_c, 14, 52, 0
18, 24240, Note_on_c, 14, 54, 80
18, 24287, Note_on_c, 14, 54, 0
18, 24300, Note_on_c, 14, 47, 90
18, 24347, Note_on_c, 14, 47, 0
18, 24360, Note_on_c, 14, 49, 80
18, 24407, Note_on_c, 14, 49, 0
18, 24420, Note_on_c, 14, 51, 80
18, 24467, Note_on_c, 14, 51, 0
18, 24480, Note_on_c, 14, 52, 90
18, 24527, Note_on_c, 14, 52, 0
18, 24540, Note_on_c, 14, 52, 80
18, 24599, Note_on_c, 14, 52, 0
18, 24600, Note_on_c, 14, 50, 80
18, 24647, Note_on_c, 14, 50, 0
18, 24660, Note_on_c, 14, 49, 90
18, 24707, Note_on_c, 14, 49, 0
18, 24720, Note_on_c, 14, 49, 80
18, 24779, Note_on_c, 14, 49, 0
18, 24780, Note_on_c, 14, 47, 80
18, 24827, Note_on_c, 14, 47, 0
18, 24840, Note_on_c, 14, 46, 90
18, 24870, Note_on_c, 14, 46, 0
18, 24900, Note_on_c, 14, 49, 80
18, 24929, Note_on_c, 14, 49, 0
18, 24930, Note_on_c, 14, 47, 80
18, 24959, Note_on_c, 14, 47, 0
18, 24960, Note_on_c, 14, 46, 80
18, 24989, Note_on_c, 14, 46, 0
18, 24990, Note_on_c, 14, 44, 80
18, 25019, Note_on_c, 14, 44, 0
18, 25020, Note_on_c, 14, 42, 90
18, 25067, Note_on_c, 14, 42, 0
18, 25080, Note_on_c, 14, 38, 80
18, 25127, Note_on_c, 14, 38, 0
18, 25140, Note_on_c, 14, 42, 80
18, 25187, Note_on_c, 14, 42, 0
18, 25200, Note_on_c, 14, 47, 90
18, 25247, Note_on_c, 14, 47, 0
18, 25260, Note_on_c, 14, 50, 80
18, 25307, Note_on_c, 14, 50, 0
18, 25320, Note_on_c, 14, 54, 80
18, 25367, Note_on_c, 14, 54, 0
18, 25380, Note_on_c, 14, 52, 90
18, 25409, Note_on_c, 14, 52, 0
18, 25410, Note_on_c, 14, 50, 90
18, 25439, Note_on_c, 14, 50, 0
18, 25440, Note_on_c, 14, 52, 80
18, 25469, Note_on_c, 14, 52, 0
18, 25470, Note_on_c, 14, 50, 80
18, 25499, Note_on_c, 14, 50, 0
18, 25500, Note_on_c, 14, 49, 80
18, 25529, Note_on_c, 14, 49, 0
18, 25530, Note_on_c, 14, 47, 80
18, 25559, Note_on_c, 14, 47, 0
18, 25560, Note_on_c, 14, 52, 90
18, 25607, Note_on_c, 14, 52, 0
18, 25620, Note_on_c, 14, 52, 80
18, 25679, Note_on_c, 14, 52, 0
18, 25680, Note_on_c, 14, 54, 80
18, 25727, Note_on_c, 14, 54, 0
18, 25740, Note_on_c, 14, 56, 90
18, 25799, Note_on_c, 14, 56, 0
18, 25800, Note_on_c, 14, 54, 80
18, 25847, Note_on_c, 14, 54, 0
18, 25860, Note_on_c, 14, 52, 80
18, 25907, Note_on_c, 14, 52, 0
18, 25920, Note_on_c, 14, 57, 90
18, 25967, Note_on_c, 14, 57, 0
18, 25980, Note_on_c, 14, 57, 80
18, 26039, Note_on_c, 14, 57, 0
18, 26040, Note_on_c, 14, 55, 80
18, 26087, Note_on_c, 14, 55, 0
18, 26100, Note_on_c, 14, 54, 90
18, 26147, Note_on_c, 14, 54, 0
18, 26160, Note_on_c, 14, 54, 80
18, 26219, Note_on_c, 14, 54, 0
18, 26220, Note_on_c, 14, 52, 80
18, 26267, Note_on_c, 14, 52, 0
18, 26280, Note_on_c, 14, 51, 90
18, 26310, Note_on_c, 14, 51, 0
18, 26340, Note_on_c, 14, 54, 80
18, 26369, Note_on_c, 14, 54, 0
18, 26370, Note_on_c, 14, 52, 80
18, 26399, Note_on_c, 14, 52, 0
18, 26400, Note_on_c, 14, 51, 80
18, 26429, Note_on_c, 14, 51, 0
18, 26430, Note_on_c, 14, 49, 80
18, 26459, Note_on_c, 14, 49, 0
18, 26460, Note_on_c, 14, 47, 90
18, 26507, Note_on_c, 14, 47, 0
18, 26520, Note_on_c, 14, 43, 80
18, 26567, Note_on_c, 14, 43, 0
18, 26580, Note_on_c, 14, 47, 80
18, 26627, Note_on_c, 14, 47, 0
18, 26640, Note_on_c, 14, 40, 90
18, 26687, Note_on_c, 14, 40, 0
18, 26700, Note_on_c, 14, 43, 80
18, 26747, Note_on_c, 14, 43, 0
18, 26760, Note_on_c, 14, 47, 80
18, 26807, Note_on_c, 14, 47, 0
18, 26820, Note_on_c, 14, 52, 90
18, 26850, Note_on_c, 14, 52, 0
18, 26880, Note_on_c, 14, 55, 80
18, 26909, Note_on_c, 14, 55, 0
18, 26910, Note_on_c, 14, 54, 80
18, 26939, Note_on_c, 14, 54, 0
18, 26940, Note_on_c, 14, 52, 80
18, 26969, Note_on_c, 14, 52, 0
18, 26970, Note_on_c, 14, 50, 80
18, 26999, Note_on_c, 14, 50, 0
18, 27000, Note_on_c, 14, 49, 90
18, 27030, Note_on_c, 14, 49, 0
18, 27060, Note_on_c, 14, 52, 80
18, 27089, Note_on_c, 14, 52, 0
18, 27090, Note_on_c, 14, 50, 80
18, 27119, Note_on_c, 14, 50, 0
18, 27120, Note_on_c, 14, 49, 80
18, 27149, Note_on_c, 14, 49, 0
18, 27150, Note_on_c, 14, 47, 80
18, 27179, Note_on_c, 14, 47, 0
18, 27180, Note_on_c, 14, 45, 90
18, 27227, Note_on_c, 14, 45, 0
18, 27240, Note_on_c, 14, 42, 80
18, 27287, Note_on_c, 14, 42, 0
18, 27300, Note_on_c, 14, 45, 80
18, 27347, Note_on_c, 14, 45, 0
18, 27360, Note_on_c, 14, 38, 90
18, 27390, Note_on_c, 14, 38, 0
18, 27420, Note_on_c, 14, 50, 80
18, 27449, Note_on_c, 14, 50, 0
18, 27450, Note_on_c, 14, 49, 80
18, 27479, Note_on_c, 14, 49, 0
18, 27480, Note_on_c, 14, 47, 80
18, 27509, Note_on_c, 14, 47, 0
18, 27510, Note_on_c, 14, 45, 80
18, 27539, Note_on_c, 14, 45, 0
18, 27540, Note_on_c, 14, 43, 90
18, 27587, Note_on_c, 14, 43, 0
18, 27600, Note_on_c, 14, 55, 80
18, 27647, Note_on_c, 14, 55, 0
18, 27660, Note_on_c, 14, 54, 80
18, 27707, Note_on_c, 14, 54, 0
18, 27720, Note_on_c, 14, 52, 90
18, 27767, Note_on_c, 14, 52, 0
18, 27780, Note_on_c, 14, 50, 80
18, 27827, Note_on_c, 14, 50, 0
18, 27840, Note_on_c, 14, 49, 80
18, 27887, Note_on_c, 14, 49, 0
18, 27900, Note_on_c, 14, 47, 90
18, 27947, Note_on_c, 14, 47, 0
18, 27960, Note_on_c, 14, 40, 80
18, 28007, Note_on_c, 14, 40, 0
18, 28020, Note_on_c, 14, 42, 80
18, 28067, Note_on_c, 14, 42, 0
18, 28080, Note_on_c, 14, 44, 70
18, 28140, Note_on_c, 14, 44, 0
18, 28260, Note_on_c, 14, 42, 70
18, 28320, Note_on_c, 14, 42, 0
18, 28440, Note_on_c, 14, 41, 70
18, 28500, Note_on_c, 14, 41, 0
18, 28620, Note_on_c, 14, 42, 70
18, 28668, Note_on_c, 14, 42, 0
18, 28680, Note_on_c, 14, 42, 80
18, 28728, Note_on_c, 14, 42, 0
18, 28740, Note_on_c, 14, 42, 80
18, 28788, Note_on_c, 14, 42, 0
18, 28800, Note_on_c, 14, 47, 90
18, 28895, Note_on_c, 14, 47, 0
18, 29640, Note_on_c, 14, 38, 80
18, 29687, Note_on_c, 14, 38, 0
18, 29700, Note_on_c, 14, 50, 90
18, 29747, Note_on_c, 14, 50, 0
18, 29760, Note_on_c, 14, 54, 80
18, 29807, Note_on_c, 14, 54, 0
18, 29820, Note_on_c, 14, 50, 80
18, 29867, Note_on_c, 14, 50, 0
18, 29880, Note_on_c, 14, 49, 90
18, 29927, Note_on_c, 14, 49, 0
18, 29940, Note_on_c, 14, 45, 80
18, 29987, Note_on_c, 14, 45, 0
18, 30000, Note_on_c, 14, 49, 80
18, 30047, Note_on_c, 14, 49, 0
18, 30060, Note_on_c, 14, 50, 90
18, 30107, Note_on_c, 14, 50, 0
18, 30120, Note_on_c, 14, 57, 80
18, 30167, Note_on_c, 14, 57, 0
18, 30180, Note_on_c, 14, 45, 80
18, 30227, Note_on_c, 14, 45, 0
18, 30240, Note_on_c, 14, 50, 90
18, 30287, Note_on_c, 14, 50, 0
18, 30300, Note_on_c, 14, 49, 80
18, 30347, Note_on_c, 14, 49, 0
18, 30360, Note_on_c, 14, 47, 80
18, 30407, Note_on_c, 14, 47, 0
18, 30420, Note_on_c, 14, 49, 90
18, 30467, Note_on_c, 14, 49, 0
18, 30480, Note_on_c, 14, 47, 80
18, 30527, Note_on_c, 14, 47, 0
18, 30540, Note_on_c, 14, 45, 80
18, 30587, Note_on_c, 14, 45, 0
18, 30600, Note_on_c, 14, 44, 90
18, 30647, Note_on_c, 14, 44, 0
18, 30660, Note_on_c, 14, 52, 80
18, 30707, Note_on_c, 14, 52, 0
18, 30720, Note_on_c, 14, 44, 80
18, 30767, Note_on_c, 14, 44, 0
18, 30780, Note_on_c, 14, 45, 90
18, 30827, Note_on_c, 14, 45, 0
18, 30840, Note_on_c, 14, 50, 80
18, 30887, Note_on_c, 14, 50, 0
18, 30900, Note_on_c, 14, 52, 80
18, 30947, Note_on_c, 14, 52, 0
18, 30960, Note_on_c, 14, 45, 90
18, 31007, Note_on_c, 14, 45, 0
18, 31020, Note_on_c, 14, 57, 80
18, 31067, Note_on_c, 14, 57, 0
18, 31080, Note_on_c, 14, 55, 80
18, 31127, Note_on_c, 14, 55, 0
18, 31140, Note_on_c, 14, 54, 90
18, 31187, Note_on_c, 14, 54, 0
18, 31200, Note_on_c, 14, 52, 80
18, 31247, Note_on_c, 14, 52, 0
18, 31260, Note_on_c, 14, 50, 80
18, 31307, Note_on_c, 14, 50, 0
18, 31320, Note_on_c, 14, 49, 90
18, 31367, Note_on_c, 14, 49, 0
18, 31380, Note_on_c, 14, 57, 80
18, 31427, Note_on_c, 14, 57, 0
18, 31440, Note_on_c, 14, 49, 80
18, 31487, Note_on_c, 14, 49, 0
18, 31500, Note_on_c, 14, 50, 90
18, 31547, Note_on_c, 14, 50, 0
18, 31560, Note_on_c, 14, 43, 80
18, 31607, Note_on_c, 14, 43, 0
18, 31620, Note_on_c, 14, 45, 80
18, 31667, Note_on_c, 14, 45, 0
18, 31680, Note_on_c, 14, 50, 90
18, 31727, Note_on_c, 14, 50, 0
18, 31740, Note_on_c, 14, 38, 80
18, 31787, Note_on_c, 14, 38, 0
18, 31800, Note_on_c, 14, 50, 80
18, 31847, Note_on_c, 14, 50, 0
18, 31860, Note_on_c, 14, 57, 90
18, 31955, Note_on_c, 14, 57, 0
18, 31980, Note_on_c, 14, 52, 80
18, 32027, Note_on_c, 14, 52, 0
18, 32040, Note_on_c, 14, 59, 90
18, 32135, Note_on_c, 14, 59, 0
18, 32160, Note_on_c, 14, 52, 80
18, 32207, Note_on_c, 14, 52, 0
18, 32220, Note_on_c, 14, 61, 90
18, 32267, Note_on_c, 14, 61, 0
18, 32280, Note_on_c, 14, 59, 80
18, 32309, Note_on_c, 14, 59, 0
18, 32310, Note_on_c, 14, 61, 80
18, 32339, Note_on_c, 14, 61, 0
18, 32340, Note_on_c, 14, 62, 80
18, 32369, Note_on_c, 14, 62, 0
18, 32370, Note_on_c, 14, 59, 80
18, 32399, Note_on_c, 14, 59, 0
18, 32400, Note_on_c, 14, 61, 90
18, 32447, Note_on_c, 14, 61, 0
18, 32460, Note_on_c, 14, 57, 80
18, 32507, Note_on_c, 14, 57, 0
18, 32520, Note_on_c, 14, 55, 80
18, 32567, Note_on_c, 14, 55, 0
18, 32580, Note_on_c, 14, 54, 90
18, 32627, Note_on_c, 14, 54, 0
18, 32640, Note_on_c, 14, 52, 80
18, 32687, Note_on_c, 14, 52, 0
18, 32700, Note_on_c, 14, 50, 80
18, 32747, Note_on_c, 14, 50, 0
18, 32760, Note_on_c, 14, 49, 90
18, 32807, Note_on_c, 14, 49, 0
18, 32820, Note_on_c, 14, 45, 80
18, 32867, Note_on_c, 14, 45, 0
18, 32880, Note_on_c, 14, 49, 80
18, 32927, Note_on_c, 14, 49, 0
18, 32940, Note_on_c, 14, 50, 90
18, 32987, Note_on_c, 14, 50, 0
18, 33000, Note_on_c, 14, 57, 80
18, 33047, Note_on_c, 14, 57, 0
18, 33060, Note_on_c, 14, 45, 80
18, 33107, Note_on_c, 14, 45, 0
18, 33120, Note_on_c, 14, 50, 90
18, 33167, Note_on_c, 14, 50, 0
18, 33180, Note_on_c, 14, 42, 80
18, 33227, Note_on_c, 14, 42, 0
18, 33240, Note_on_c, 14, 43, 80
18, 33287, Note_on_c, 14, 43, 0
18, 33300, Note_on_c, 14, 38, 90
18, 33347, Note_on_c, 14, 38, 0
18, 33360, Note_on_c, 14, 43, 80
18, 33389, Note_on_c, 14, 43, 0
18, 33390, Note_on_c, 14, 42, 80
18, 33419, Note_on_c, 14, 42, 0
18, 33420, Note_on_c, 14, 43, 80
18, 33515, Note_on_c, 14, 43, 0
18, 33540, Note_on_c, 14, 42, 80
18, 33569, Note_on_c, 14, 42, 0
18, 33570, Note_on_c, 14, 40, 80
18, 33599, Note_on_c, 14, 40, 0
18, 33600, Note_on_c, 14, 42, 80
18, 33695, Note_on_c, 14, 42, 0
18, 33720, Note_on_c, 14, 40, 80
18, 33767, Note_on_c, 14, 40, 0
18, 33780, Note_on_c, 14, 38, 80
18, 33827, Note_on_c, 14, 38, 0
18, 33840, Note_on_c, 14, 45, 90
18, 33887, Note_on_c, 14, 45, 0
18, 33900, Note_on_c, 14, 49, 80
18, 33947, Note_on_c, 14, 49, 0
18, 33960, Note_on_c, 14, 52, 80
18, 34007, Note_on_c, 14, 52, 0
18, 34020, Note_on_c, 14, 57, 90
18, 34067, Note_on_c, 14, 57, 0
18, 34080, Note_on_c, 14, 50, 80
18, 34109, Note_on_c, 14, 50, 0
18, 34110, Note_on_c, 14, 49, 80
18, 34139, Note_on_c, 14, 49, 0
18, 34140, Note_on_c, 14, 50, 80
18, 34235, Note_on_c, 14, 50, 0
18, 34260, Note_on_c, 14, 49, 80
18, 34289, Note_on_c, 14, 49, 0
18, 34290, Note_on_c, 14, 47, 80
18, 34319, Note_on_c, 14, 47, 0
18, 34320, Note_on_c, 14, 49, 80
18, 34415, Note_on_c, 14, 49, 0
18, 34440, Note_on_c, 14, 47, 80
18, 34487, Note_on_c, 14, 47, 0
18, 34500, Note_on_c, 14, 45, 80
18, 34547, Note_on_c, 14, 45, 0
18, 34560, Note_on_c, 14, 52, 90
18, 34590, Note_on_c, 14, 52, 0
18, 34620, Note_on_c, 14, 50, 80
18, 34649, Note_on_c, 14, 50, 0
18, 34650, Note_on_c, 14, 49, 80
18, 34679, Note_on_c, 14, 49, 0
18, 34680, Note_on_c, 14, 47, 80
18, 34709, Note_on_c, 14, 47, 0
18, 34710, Note_on_c, 14, 45, 80
18, 34739, Note_on_c, 14, 45, 0
18, 34740, Note_on_c, 14, 47, 90
18, 34787, Note_on_c, 14, 47, 0
18, 34800, Note_on_c, 14, 44, 80
18, 34847, Note_on_c, 14, 44, 0
18, 34860, Note_on_c, 14, 40, 80
18, 34907, Note_on_c, 14, 40, 0
18, 34920, Note_on_c, 14, 45, 90
18, 34950, Note_on_c, 14, 45, 0
18, 34980, Note_on_c, 14, 57, 80
18, 35009, Note_on_c, 14, 57, 0
18, 35010, Note_on_c, 14, 55, 80
18, 35039, Note_on_c, 14, 55, 0
18, 35040, Note_on_c, 14, 54, 80
18, 35069, Note_on_c, 14, 54, 0
18, 35070, Note_on_c, 14, 52, 80
18, 35099, Note_on_c, 14, 52, 0
18, 35100, Note_on_c, 14, 51, 90
18, 35147, Note_on_c, 14, 51, 0
18, 35160, Note_on_c, 14, 52, 80
18, 35207, Note_on_c, 14, 52, 0
18, 35220, Note_on_c, 14, 50, 80
18, 35267, Note_on_c, 14, 50, 0
18, 35280, Note_on_c, 14, 49, 90
18, 35310, Note_on_c, 14, 49, 0
18, 35340, Note_on_c, 14, 50, 80
18, 35369, Note_on_c, 14, 50, 0
18, 35370, Note_on_c, 14, 49, 80
18, 35399, Note_on_c, 14, 49, 0
18, 35400, Note_on_c, 14, 47, 80
18, 35429, Note_on_c, 14, 47, 0
18, 35430, Note_on_c, 14, 45, 80
18, 35459, Note_on_c, 14, 45, 0
18, 35460, Note_on_c, 14, 50, 90
18, 35507, Note_on_c, 14, 50, 0
18, 35520, Note_on_c, 14, 55, 80
18, 35549, Note_on_c, 14, 55, 0
18, 35550, Note_on_c, 14, 54, 80
18, 35579, Note_on_c, 14, 54, 0
18, 35580, Note_on_c, 14, 55, 80
18, 35675, Note_on_c, 14, 55, 0
18, 35700, Note_on_c, 14, 54, 80
18, 35729, Note_on_c, 14, 54, 0
18, 35730, Note_on_c, 14, 52, 80
18, 35759, Note_on_c, 14, 52, 0
18, 35760, Note_on_c, 14, 54, 80
18, 35855, Note_on_c, 14, 54, 0
18, 35880, Note_on_c, 14, 52, 80
18, 35927, Note_on_c, 14, 52, 0
18, 35940, Note_on_c, 14, 50, 80
18, 35987, Note_on_c, 14, 50, 0
18, 36000, Note_on_c, 14, 57, 90
18, 36059, Note_on_c, 14, 57, 0
18, 36060, Note_on_c, 14, 55, 80
18, 36107, Note_on_c, 14, 55, 0
18, 36120, Note_on_c, 14, 54, 80
18, 36167, Note_on_c, 14, 54, 0
18, 36180, Note_on_c, 14, 55, 90
18, 36239, Note_on_c, 14, 55, 0
18, 36240, Note_on_c, 14, 54, 80
18, 36287, Note_on_c, 14, 54, 0
18, 36300, Note_on_c, 14, 52, 80
18, 36347, Note_on_c, 14, 52, 0
18, 36360, Note_on_c, 14, 54, 90
18, 36419, Note_on_c, 14, 54, 0
18, 36420, Note_on_c, 14, 52, 80
18, 36467, Note_on_c, 14, 52, 0
18, 36480, Note_on_c, 14, 50, 80
18, 36527, Note_on_c, 14, 50, 0
18, 36540, Note_on_c, 14, 52, 90
18, 36587, Note_on_c, 14, 52, 0
18, 36600, Note_on_c, 14, 54, 80
18, 36647, Note_on_c, 14, 54, 0
18, 36660, Note_on_c, 14, 55, 80
18, 36755, Note_on_c, 14, 55, 0
18, 36780, Note_on_c, 14, 54, 80
18, 36827, Note_on_c, 14, 54, 0
18, 36840, Note_on_c, 14, 52, 80
18, 36887, Note_on_c, 14, 52, 0
18, 36900, Note_on_c, 14, 59, 90
18, 36929, Note_on_c, 14, 59, 0
18, 36930, Note_on_c, 14, 57, 90
18, 36959, Note_on_c, 14, 57, 0
18, 36960, Note_on_c, 14, 55, 80
18, 36989, Note_on_c, 14, 55, 0
18, 36990, Note_on_c, 14, 54, 80
18, 37019, Note_on_c, 14, 54, 0
18, 37020, Note_on_c, 14, 55, 80
18, 37115, Note_on_c, 14, 55, 0
18, 37140, Note_on_c, 14, 54, 80
18, 37169, Note_on_c, 14, 54, 0
18, 37170, Note_on_c, 14, 52, 80
18, 37199, Note_on_c, 14, 52, 0
18, 37200, Note_on_c, 14, 54, 80
18, 37295, Note_on_c, 14, 54, 0
18, 37320, Note_on_c, 14, 52, 80
18, 37367, Note_on_c, 14, 52, 0
18, 37380, Note_on_c, 14, 50, 80
18, 37427, Note_on_c, 14, 50, 0
18, 37440, Note_on_c, 14, 57, 90
18, 37487, Note_on_c, 14, 57, 0
18, 37500, Note_on_c, 14, 49, 80
18, 37547, Note_on_c, 14, 49, 0
18, 37560, Note_on_c, 14, 45, 80
18, 37607, Note_on_c, 14, 45, 0
18, 37620, Note_on_c, 14, 50, 90
18, 37649, Note_on_c, 14, 50, 0
18, 37650, Note_on_c, 14, 49, 90
18, 37679, Note_on_c, 14, 49, 0
18, 37680, Note_on_c, 14, 54, 80
18, 37709, Note_on_c, 14, 54, 0
18, 37710, Note_on_c, 14, 52, 80
18, 37739, Note_on_c, 14, 52, 0
18, 37740, Note_on_c, 14, 50, 80
18, 37769, Note_on_c, 14, 50, 0
18, 37770, Note_on_c, 14, 49, 80
18, 37799, Note_on_c, 14, 49, 0
18, 37800, Note_on_c, 14, 50, 90
18, 37829, Note_on_c, 14, 50, 0
18, 37830, Note_on_c, 14, 47, 90
18, 37859, Note_on_c, 14, 47, 0
18, 37860, Note_on_c, 14, 52, 80
18, 37889, Note_on_c, 14, 52, 0
18, 37890, Note_on_c, 14, 50, 80
18, 37919, Note_on_c, 14, 50, 0
18, 37920, Note_on_c, 14, 49, 80
18, 37949, Note_on_c, 14, 49, 0
18, 37950, Note_on_c, 14, 47, 80
18, 37979, Note_on_c, 14, 47, 0
18, 37980, Note_on_c, 14, 45, 90
18, 38027, Note_on_c, 14, 45, 0
18, 38040, Note_on_c, 14, 38, 80
18, 38087, Note_on_c, 14, 38, 0
18, 38100, Note_on_c, 14, 40, 80
18, 38147, Note_on_c, 14, 40, 0
18, 38160, Note_on_c, 14, 42, 70
18, 38220, Note_on_c, 14, 42, 0
18, 38340, Note_on_c, 14, 52, 70
18, 38400, Note_on_c, 14, 52, 0
18, 38520, Note_on_c, 14, 51, 70
18, 38580, Note_on_c, 14, 51, 0
18, 38700, Note_on_c, 14, 52, 90
18, 38729, Note_on_c, 14, 52, 0
18, 38730, Note_on_c, 14, 50, 90
18, 38759, Note_on_c, 14, 50, 0
18, 38760, Note_on_c, 14, 49, 80
18, 38789, Note_on_c, 14, 49, 0
18, 38790, Note_on_c, 14, 50, 80
18, 38819, Note_on_c, 14, 50, 0
18, 38820, Note_on_c, 14, 52, 80
18, 38867, Note_on_c, 14, 52, 0
18, 38880, Note_on_c, 14, 45, 90
18, 38975, Note_on_c, 14, 45, 0
18, 39480, Note_on_c, 14, 43, 80
18, 39527, Note_on_c, 14, 43, 0
18, 39540, Note_on_c, 14, 47, 80
18, 39587, Note_on_c, 14, 47, 0
18, 39600, Note_on_c, 14, 40, 90
18, 39647, Note_on_c, 14, 40, 0
18, 39660, Note_on_c, 14, 43, 80
18, 39707, Note_on_c, 14, 43, 0
18, 39720, Note_on_c, 14, 47, 80
18, 39767, Note_on_c, 14, 47, 0
18, 39780, Note_on_c, 14, 52, 90
18, 39875, Note_on_c, 14, 52, 0
18, 40200, Note_on_c, 14, 42, 80
18, 40247, Note_on_c, 14, 42, 0
18, 40260, Note_on_c, 14, 45, 80
18, 40307, Note_on_c, 14, 45, 0
18, 40320, Note_on_c, 14, 50, 90
18, 40379, Note_on_c, 14, 50, 0
18, 40380, Note_on_c, 14, 52, 80
18, 40427, Note_on_c, 14, 52, 0
18, 40440, Note_on_c, 14, 54, 80
18, 40487, Note_on_c, 14, 54, 0
18, 40500, Note_on_c, 14, 55, 90
18, 40559, Note_on_c, 14, 55, 0
18, 40560, Note_on_c, 14, 54, 80
18, 40607, Note_on_c, 14, 54, 0
18, 40620, Note_on_c, 14, 52, 80
18, 40667, Note_on_c, 14, 52, 0
18, 40680, Note_on_c, 14, 54, 90
18, 40739, Note_on_c, 14, 54, 0
18, 40740, Note_on_c, 14, 52, 80
18, 40787, Note_on_c, 14, 52, 0
18, 40800, Note_on_c, 14, 50, 80
18, 40847, Note_on_c, 14, 50, 0
18, 40860, Note_on_c, 14, 59, 90
18, 40919, Note_on_c, 14, 59, 0
18, 40920, Note_on_c, 14, 57, 80
18, 40967, Note_on_c, 14, 57, 0
18, 40980, Note_on_c, 14, 55, 80
18, 41027, Note_on_c, 14, 55, 0
18, 41040, Note_on_c, 14, 57, 90
18, 41099, Note_on_c, 14, 57, 0
18, 41100, Note_on_c, 14, 55, 80
18, 41147, Note_on_c, 14, 55, 0
18, 41160, Note_on_c, 14, 54, 80
18, 41207, Note_on_c, 14, 54, 0
18, 41220, Note_on_c, 14, 56, 90
18, 41279, Note_on_c, 14, 56, 0
18, 41280, Note_on_c, 14, 52, 80
18, 41327, Note_on_c, 14, 52, 0
18, 41340, Note_on_c, 14, 56, 80
18, 41387, Note_on_c, 14, 56, 0
18, 41400, Note_on_c, 14, 57, 90
18, 41447, Note_on_c, 14, 57, 0
18, 41460, Note_on_c, 14, 57, 80
18, 41507, Note_on_c, 14, 57, 0
18, 41520, Note_on_c, 14, 57, 80
18, 41567, Note_on_c, 14, 57, 0
18, 41580, Note_on_c, 14, 58, 90
18, 41639, Note_on_c, 14, 58, 0
18, 41640, Note_on_c, 14, 54, 80
18, 41687, Note_on_c, 14, 54, 0
18, 41700, Note_on_c, 14, 58, 80
18, 41747, Note_on_c, 14, 58, 0
18, 41760, Note_on_c, 14, 59, 90
18, 41807, Note_on_c, 14, 59, 0
18, 41820, Note_on_c, 14, 59, 80
18, 41867, Note_on_c, 14, 59, 0
18, 41880, Note_on_c, 14, 59, 80
18, 41927, Note_on_c, 14, 59, 0
18, 41940, Note_on_c, 14, 46, 90
18, 41987, Note_on_c, 14, 46, 0
18, 42000, Note_on_c, 14, 46, 80
18, 42047, Note_on_c, 14, 46, 0
18, 42060, Note_on_c, 14, 46, 80
18, 42107, Note_on_c, 14, 46, 0
18, 42120, Note_on_c, 14, 40, 90
18, 42167, Note_on_c, 14, 40, 0
18, 42180, Note_on_c, 14, 40, 80
18, 42227, Note_on_c, 14, 40, 0
18, 42240, Note_on_c, 14, 40, 80
18, 42287, Note_on_c, 14, 40, 0
18, 42300, Note_on_c, 14, 42, 90
18, 42347, Note_on_c, 14, 42, 0
18, 42360, Note_on_c, 14, 43, 80
18, 42407, Note_on_c, 14, 43, 0
18, 42420, Note_on_c, 14, 45, 80
18, 42467, Note_on_c, 14, 45, 0
18, 42480, Note_on_c, 14, 47, 70
18, 42540, Note_on_c, 14, 47, 0
18, 42660, Note_on_c, 14, 45, 70
18, 42720, Note_on_c, 14, 45, 0
18, 42840, Note_on_c, 14, 44, 70
18, 42900, Note_on_c, 14, 44, 0
18, 42900, Note_on_c, 14, 56, 70
18, 42947, Note_on_c, 14, 56, 0
18, 42960, Note_on_c, 14, 56, 80
18, 43007, Note_on_c, 14, 56, 0
18, 43020, Note_on_c, 14, 57, 90
18, 43067, Note_on_c, 14, 57, 0
18, 43080, Note_on_c, 14, 42, 80
18, 43127, Note_on_c, 14, 42, 0
18, 43140, Note_on_c, 14, 45, 80
18, 43187, Note_on_c, 14, 45, 0
18, 43200, Note_on_c, 14, 38, 90
18, 43295, Note_on_c, 14, 38, 0
18, 43560, Note_on_c, 14, 44, 80
18, 44640, Note_on_c, 14, 44, 0
18, 44640, Note_on_c, 14, 53, 80
18, 44999, Note_on_c, 14, 53, 0
18, 45000, Note_on_c, 14, 54, 80
18, 45119, Note_on_c, 14, 54, 0
18, 45120, Note_on_c, 14, 50, 80
18, 45239, Note_on_c, 14, 50, 0
18, 45240, Note_on_c, 14, 49, 80
18, 45479, Note_on_c, 14, 49, 0
18, 45480, Note_on_c, 14, 54, 80
18, 45719, Note_on_c, 14, 54, 0
18, 45720, Note_on_c, 14, 47, 80
18, 45839, Note_on_c, 14, 47, 0
18, 45840, Note_on_c, 14, 43, 80
18, 45959, Note_on_c, 14, 43, 0
18, 45960, Note_on_c, 14, 42, 80
18, 46920, Note_on_c, 14, 42, 0
18, 46920, Note_on_c, 14, 47, 80
18, 47279, Note_on_c, 14, 47, 0
18, 47280, Note_on_c, 14, 49, 80
18, 47519, Note_on_c, 14, 49, 0
18, 47520, Note_on_c, 14, 50, 80
18, 47759, Note_on_c, 14, 50, 0
18, 47760, Note_on_c, 14, 54, 80
18, 47879, Note_on_c, 14, 54, 0
18, 47880, Note_on_c, 14, 55, 80
18, 47999, Note_on_c, 14, 55, 0
18, 48000, Note_on_c, 14, 56, 80
18, 48119, Note_on_c, 14, 56, 0
18, 48240, Note_on_c, 14, 57, 80
18, 48359, Note_on_c, 14, 57, 0
18, 48360, Note_on_c, 14, 50, 80
18, 48600, Note_on_c, 14, 50, 0
18, 48840, Note_on_c, 14, 47, 60
18, 50040, Note_on_c, 14, 47, 0
18, 50040, Note_on_c, 14, 45, 60
18, 50519, Note_on_c, 14, 45, 0
18, 50520, Note_on_c, 14, 44, 60
18, 51120, Note_on_c, 14, 44, 0
18, 51120, Note_on_c, 14, 47, 60
18, 51240, Note_on_c, 14, 47, 0
18, 51240, Note_on_c, 14, 45, 60
18, 51360, Note_on_c, 14, 45, 0
18, 51360, Note_on_c, 14, 50, 60
18, 51480, Note_on_c, 14, 50, 0
18, 51600, Note_on_c, 14, 49, 60
18, 51720, Note_on_c, 14, 49, 0
18, 51720, Note_on_c, 14, 42, 60
18, 52080, Note_on_c, 14, 42, 0
18, 52080, Note_on_c, 14, 49, 60
18, 52680, Note_on_c, 14, 49, 0
18, 52680, Note_on_c, 14, 46, 60
18, 53400, Note_on_c, 14, 46, 0
18, 53400, Note_on_c, 14, 47, 60
18, 53640, Note_on_c, 14, 47, 0
18, 53640, Note_on_c, 14, 49, 60
18, 53700, Note_on_c, 14, 49, 0
18, 53700, Note_on_c, 14, 45, 60
18, 53760, Note_on_c, 14, 45, 0
18, 53760, Note_on_c, 14, 52, 60
18, 53820, Note_on_c, 14, 52, 0
18, 53820, Note_on_c, 14, 40, 60
18, 53880, Note_on_c, 14, 40, 0
18, 53880, Note_on_c, 14, 45, 60
18, 54120, Note_on_c, 14, 45, 0
18, 54360, Note_on_c, 14, 49, 64
18, 54420, Note_on_c, 14, 49, 0
18, 54420, Note_on_c, 14, 52, 64
18, 54480, Note_on_c, 14, 52, 0
18, 54480, Note_on_c, 14, 57, 64
18, 54540, Note_on_c, 14, 57, 0
18, 54540, Note_on_c, 14, 61, 64
18, 54600, Note_on_c, 14, 61, 0
18, 54600, Note_on_c, 14, 62, 64
18, 54660, Note_on_c, 14, 62, 0
18, 54720, Note_on_c, 14, 61, 64
18, 54780, Note_on_c, 14, 61, 0
18, 54840, Note_on_c, 14, 59, 64
18, 54900, Note_on_c, 14, 59, 0
18, 54900, Note_on_c, 14, 52, 64
18, 54960, Note_on_c, 14, 52, 0
18, 54960, Note_on_c, 14, 57, 64
18, 55020, Note_on_c, 14, 57, 0
18, 55020, Note_on_c, 14, 50, 64
18, 55050, Note_on_c, 14, 50, 0
18, 55050, Note_on_c, 14, 49, 64
18, 55080, Note_on_c, 14, 49, 0
18, 55080, Note_on_c, 14, 50, 64
18, 55260, Note_on_c, 14, 50, 0
18, 55260, Note_on_c, 14, 49, 64
18, 55320, Note_on_c, 14, 49, 0
18, 55320, Note_on_c, 14, 54, 64
18, 55380, Note_on_c, 14, 54, 0
18, 55380, Note_on_c, 14, 56, 64
18, 55440, Note_on_c, 14, 56, 0
18, 55440, Note_on_c, 14, 57, 64
18, 55500, Note_on_c, 14, 57, 0
18, 55500, Note_on_c, 14, 50, 64
18, 55560, Note_on_c, 14, 50, 0
18, 55560, Note_on_c, 14, 52, 64
18, 55620, Note_on_c, 14, 52, 0
18, 55620, Note_on_c, 14, 40, 64
18, 55680, Note_on_c, 14, 40, 0
18, 55680, Note_on_c, 14, 52, 64
18, 55740, Note_on_c, 14, 52, 0
18, 55740, Note_on_c, 14, 50, 64
18, 55800, Note_on_c, 14, 50, 0
18, 55800, Note_on_c, 14, 49, 52
18, 55860, Note_on_c, 14, 49, 0
18, 55860, Note_on_c, 14, 52, 52
18, 55920, Note_on_c, 14, 52, 0
18, 55920, Note_on_c, 14, 57, 52
18, 55980, Note_on_c, 14, 57, 0
18, 55980, Note_on_c, 14, 61, 52
18, 56040, Note_on_c, 14, 61, 0
18, 56040, Note_on_c, 14, 62, 52
18, 56100, Note_on_c, 14, 62, 0
18, 56160, Note_on_c, 14, 61, 52
18, 56220, Note_on_c, 14, 61, 0
18, 56280, Note_on_c, 14, 59, 52
18, 56340, Note_on_c, 14, 59, 0
18, 56340, Note_on_c, 14, 52, 52
18, 56400, Note_on_c, 14, 52, 0
18, 56400, Note_on_c, 14, 57, 52
18, 56460, Note_on_c, 14, 57, 0
18, 56460, Note_on_c, 14, 50, 52
18, 56490, Note_on_c, 14, 50, 0
18, 56490, Note_on_c, 14, 49, 52
18, 56520, Note_on_c, 14, 49, 0
18, 56520, Note_on_c, 14, 50, 52
18, 56700, Note_on_c, 14, 50, 0
18, 56700, Note_on_c, 14, 49, 52
18, 56760, Note_on_c, 14, 49, 0
18, 56760, Note_on_c, 14, 54, 52
18, 56820, Note_on_c, 14, 54, 0
18, 56820, Note_on_c, 14, 56, 52
18, 56880, Note_on_c, 14, 56, 0
18, 56880, Note_on_c, 14, 57, 52
18, 56940, Note_on_c, 14, 57, 0
18, 56940, Note_on_c, 14, 50, 52
18, 57000, Note_on_c, 14, 50, 0
18, 57000, Note_on_c, 14, 52, 52
18, 57060, Note_on_c, 14, 52, 0
18, 57060, Note_on_c, 14, 54, 52
18, 57120, Note_on_c, 14, 54, 0
18, 57120, Note_on_c, 14, 56, 52
18, 57180, Note_on_c, 14, 56, 0
18, 57180, Note_on_c, 14, 52, 52
18, 57240, Note_on_c, 14, 52, 0
18, 57240, Note_on_c, 14, 54, 64
18, 57300, Note_on_c, 14, 54, 0
18, 57300, Note_on_c, 14, 47, 64
18, 57360, Note_on_c, 14, 47, 0
18, 57360, Note_on_c, 14, 52, 64
18, 57420, Note_on_c, 14, 52, 0
18, 57420, Note_on_c, 14, 55, 64
18, 57480, Note_on_c, 14, 55, 0
18, 57480, Note_on_c, 14, 49, 64
18, 57540, Note_on_c, 14, 49, 0
18, 57540, Note_on_c, 14, 52, 64
18, 57600, Note_on_c, 14, 52, 0
18, 57600, Note_on_c, 14, 54, 64
18, 57660, Note_on_c, 14, 54, 0
18, 57660, Note_on_c, 14, 52, 64
18, 57720, Note_on_c, 14, 52, 0
18, 57720, Note_on_c, 14, 51, 64
18, 57780, Note_on_c, 14, 51, 0
18, 57780, Note_on_c, 14, 52, 64
18, 57840, Note_on_c, 14, 52, 0
18, 57840, Note_on_c, 14, 45, 64
18, 57870, Note_on_c, 14, 45, 0
18, 57870, Note_on_c, 14, 43, 64
18, 57900, Note_on_c, 14, 43, 0
18, 57900, Note_on_c, 14, 45, 64
18, 58020, Note_on_c, 14, 45, 0
18, 58020, Note_on_c, 14, 44, 64
18, 58080, Note_on_c, 14, 44, 0
18, 58080, Note_on_c, 14, 42, 64
18, 58140, Note_on_c, 14, 42, 0
18, 58140, Note_on_c, 14, 51, 64
18, 58200, Note_on_c, 14, 51, 0
18, 58200, Note_on_c, 14, 52, 64
18, 58260, Note_on_c, 14, 52, 0
18, 58260, Note_on_c, 14, 49, 64
18, 58320, Note_on_c, 14, 49, 0
18, 58320, Note_on_c, 14, 45, 64
18, 58380, Note_on_c, 14, 45, 0
18, 58380, Note_on_c, 14, 47, 64
18, 58440, Note_on_c, 14, 47, 0
18, 58440, Note_on_c, 14, 52, 64
18, 58500, Note_on_c, 14, 52, 0
18, 58500, Note_on_c, 14, 54, 64
18, 58560, Note_on_c, 14, 54, 0
18, 58560, Note_on_c, 14, 52, 64
18, 58620, Note_on_c, 14, 52, 0
18, 58620, Note_on_c, 14, 50, 64
18, 58680, Note_on_c, 14, 50, 0
18, 58680, Note_on_c, 14, 49, 64
18, 58740, Note_on_c, 14, 49, 0
18, 58740, Note_on_c, 14, 47, 64
18, 58800, Note_on_c, 14, 47, 0
18, 58800, Note_on_c, 14, 45, 64
18, 58860, Note_on_c, 14, 45, 0
18, 58860, Note_on_c, 14, 47, 64
18, 58890, Note_on_c, 14, 47, 0
18, 58890, Note_on_c, 14, 49, 64
18, 58920, Note_on_c, 14, 49, 0
18, 58920, Note_on_c, 14, 50, 64
18, 58950, Note_on_c, 14, 50, 0
18, 58950, Note_on_c, 14, 49, 64
18, 58980, Note_on_c, 14, 49, 0
18, 58980, Note_on_c, 14, 47, 64
18, 59010, Note_on_c, 14, 47, 0
18, 59010, Note_on_c, 14, 45, 64
18, 59040, Note_on_c, 14, 45, 0
18, 59040, Note_on_c, 14, 57, 64
18, 59100, Note_on_c, 14, 57, 0
18, 59100, Note_on_c, 14, 54, 64
18, 59160, Note_on_c, 14, 54, 0
18, 59160, Note_on_c, 14, 59, 64
18, 59220, Note_on_c, 14, 59, 0
18, 59220, Note_on_c, 14, 52, 64
18, 59280, Note_on_c, 14, 52, 0
18, 59280, Note_on_c, 14, 57, 64
18, 59340, Note_on_c, 14, 57, 0
18, 59340, Note_on_c, 14, 50, 64
18, 59370, Note_on_c, 14, 50, 0
18, 59370, Note_on_c, 14, 49, 64
18, 59400, Note_on_c, 14, 49, 0
18, 59400, Note_on_c, 14, 50, 64
18, 59580, Note_on_c, 14, 50, 0
18, 59580, Note_on_c, 14, 49, 64
18, 59640, Note_on_c, 14, 49, 0
18, 59640, Note_on_c, 14, 54, 64
18, 59700, Note_on_c, 14, 54, 0
18, 59700, Note_on_c, 14, 56, 64
18, 59760, Note_on_c, 14, 56, 0
18, 59760, Note_on_c, 14, 57, 64
18, 59820, Note_on_c, 14, 57, 0
18, 59820, Note_on_c, 14, 50, 64
18, 59880, Note_on_c, 14, 50, 0
18, 59880, Note_on_c, 14, 52, 64
18, 59940, Note_on_c, 14, 52, 0
18, 59940, Note_on_c, 14, 40, 64
18, 60000, Note_on_c, 14, 40, 0
18, 60000, Note_on_c, 14, 52, 64
18, 60060, Note_on_c, 14, 52, 0
18, 60060, Note_on_c, 14, 50, 64
18, 60120, Note_on_c, 14, 50, 0
18, 60120, Note_on_c, 14, 49, 52
18, 60180, Note_on_c, 14, 49, 0
18, 60180, Note_on_c, 14, 52, 52
18, 60240, Note_on_c, 14, 52, 0
18, 60240, Note_on_c, 14, 57, 52
18, 60300, Note_on_c, 14, 57, 0
18, 60300, Note_on_c, 14, 57, 52
18, 60360, Note_on_c, 14, 57, 0
18, 60360, Note_on_c, 14, 57, 52
18, 60420, Note_on_c, 14, 57, 0
18, 60420, Note_on_c, 14, 57, 52
18, 60480, Note_on_c, 14, 57, 0
18, 60480, Note_on_c, 14, 57, 52
18, 60540, Note_on_c, 14, 57, 0
18, 60540, Note_on_c, 14, 54, 52
18, 60600, Note_on_c, 14, 54, 0
18, 60600, Note_on_c, 14, 59, 52
18, 60660, Note_on_c, 14, 59, 0
18, 60660, Note_on_c, 14, 52, 52
18, 60720, Note_on_c, 14, 52, 0
18, 60720, Note_on_c, 14, 57, 52
18, 60780, Note_on_c, 14, 57, 0
18, 60780, Note_on_c, 14, 50, 52
18, 60810, Note_on_c, 14, 50, 0
18, 60810, Note_on_c, 14, 49, 52
18, 60840, Note_on_c, 14, 49, 0
18, 60840, Note_on_c, 14, 50, 52
18, 61020, Note_on_c, 14, 50, 0
18, 61020, Note_on_c, 14, 49, 52
18, 61080, Note_on_c, 14, 49, 0
18, 61080, Note_on_c, 14, 54, 52
18, 61140, Note_on_c, 14, 54, 0
18, 61140, Note_on_c, 14, 56, 52
18, 61200, Note_on_c, 14, 56, 0
18, 61200, Note_on_c, 14, 57, 52
18, 61260, Note_on_c, 14, 57, 0
18, 61260, Note_on_c, 14, 50, 52
18, 61320, Note_on_c, 14, 50, 0
18, 61320, Note_on_c, 14, 52, 52
18, 61380, Note_on_c, 14, 52, 0
18, 61380, Note_on_c, 14, 54, 52
18, 61440, Note_on_c, 14, 54, 0
18, 61440, Note_on_c, 14, 56, 52
18, 61500, Note_on_c, 14, 56, 0
18, 61500, Note_on_c, 14, 52, 52
18, 61560, Note_on_c, 14, 52, 0
18, 61560, Note_on_c, 14, 54, 52
18, 61620, Note_on_c, 14, 54, 0
18, 61620, Note_on_c, 14, 47, 52
18, 61680, Note_on_c, 14, 47, 0
18, 61680, Note_on_c, 14, 52, 52
18, 61740, Note_on_c, 14, 52, 0
18, 61740, Note_on_c, 14, 52, 52
18, 61800, Note_on_c, 14, 52, 0
18, 61800, Note_on_c, 14, 52, 52
18, 61860, Note_on_c, 14, 52, 0
18, 61860, Note_on_c, 14, 52, 52
18, 61920, Note_on_c, 14, 52, 0
18, 61920, Note_on_c, 14, 52, 52
18, 61980, Note_on_c, 14, 52, 0
18, 61980, Note_on_c, 14, 52, 52
18, 62040, Note_on_c, 14, 52, 0
18, 62040, Note_on_c, 14, 51, 52
18, 62100, Note_on_c, 14, 51, 0
18, 62100, Note_on_c, 14, 52, 52
18, 62160, Note_on_c, 14, 52, 0
18, 62160, Note_on_c, 14, 45, 52
18, 62220, Note_on_c, 14, 45, 0
18, 62220, Note_on_c, 14, 45, 52
18, 62280, Note_on_c, 14, 45, 0
18, 62280, Note_on_c, 14, 45, 52
18, 62340, Note_on_c, 14, 45, 0
18, 62340, Note_on_c, 14, 44, 52
18, 62400, Note_on_c, 14, 44, 0
18, 62400, Note_on_c, 14, 42, 52
18, 62460, Note_on_c, 14, 42, 0
18, 62460, Note_on_c, 14, 51, 52
18, 62520, Note_on_c, 14, 51, 0
18, 62520, Note_on_c, 14, 52, 52
18, 62580, Note_on_c, 14, 52, 0
18, 62580, Note_on_c, 14, 49, 52
18, 62640, Note_on_c, 14, 49, 0
18, 62640, Note_on_c, 14, 45, 52
18, 62700, Note_on_c, 14, 45, 0
18, 62700, Note_on_c, 14, 47, 52
18, 62760, Note_on_c, 14, 47, 0
18, 62760, Note_on_c, 14, 40, 52
18, 62820, Note_on_c, 14, 40, 0
18, 62820, Note_on_c, 14, 47, 52
18, 62880, Note_on_c, 14, 47, 0
18, 62880, Note_on_c, 14, 52, 52
18, 62940, Note_on_c, 14, 52, 0
18, 62940, Note_on_c, 14, 56, 52
18, 62970, Note_on_c, 14, 56, 0
18, 62970, Note_on_c, 14, 54, 52
18, 63000, Note_on_c, 14, 54, 0
18, 63000, Note_on_c, 14, 52, 72
18, 63060, Note_on_c, 14, 52, 0
18, 63060, Note_on_c, 14, 50, 72
18, 63120, Note_on_c, 14, 50, 0
18, 63120, Note_on_c, 14, 49, 72
18, 63180, Note_on_c, 14, 49, 0
18, 63180, Note_on_c, 14, 52, 72
18, 63240, Note_on_c, 14, 52, 0
18, 63240, Note_on_c, 14, 42, 72
18, 63300, Note_on_c, 14, 42, 0
18, 63300, Note_on_c, 14, 54, 72
18, 63360, Note_on_c, 14, 54, 0
18, 63360, Note_on_c, 14, 56, 72
18, 63420, Note_on_c, 14, 56, 0
18, 63420, Note_on_c, 14, 58, 72
18, 63480, Note_on_c, 14, 58, 0
18, 63480, Note_on_c, 14, 59, 72
18, 63540, Note_on_c, 14, 59, 0
18, 63540, Note_on_c, 14, 57, 72
18, 63600, Note_on_c, 14, 57, 0
18, 63600, Note_on_c, 14, 56, 72
18, 63660, Note_on_c, 14, 56, 0
18, 63660, Note_on_c, 14, 54, 72
18, 63720, Note_on_c, 14, 54, 0
18, 63720, Note_on_c, 14, 53, 72
18, 63780, Note_on_c, 14, 53, 0
18, 63780, Note_on_c, 14, 61, 72
18, 63840, Note_on_c, 14, 61, 0
18, 63840, Note_on_c, 14, 54, 72
18, 63900, Note_on_c, 14, 54, 0
18, 63900, Note_on_c, 14, 57, 72
18, 63960, Note_on_c, 14, 57, 0
18, 63960, Note_on_c, 14, 50, 72
18, 64020, Note_on_c, 14, 50, 0
18, 64080, Note_on_c, 14, 47, 72
18, 64140, Note_on_c, 14, 47, 0
18, 64200, Note_on_c, 14, 49, 72
18, 64260, Note_on_c, 14, 49, 0
18, 64260, Note_on_c, 14, 61, 72
18, 64320, Note_on_c, 14, 61, 0
18, 64320, Note_on_c, 14, 59, 72
18, 64350, Note_on_c, 14, 59, 0
18, 64350, Note_on_c, 14, 57, 72
18, 64380, Note_on_c, 14, 57, 0
18, 64380, Note_on_c, 14, 56, 72
18, 64410, Note_on_c, 14, 56, 0
18, 64410, Note_on_c, 14, 54, 72
18, 64440, Note_on_c, 14, 54, 0
18, 64440, Note_on_c, 14, 56, 72
18, 64500, Note_on_c, 14, 56, 0
18, 64500, Note_on_c, 14, 58, 72
18, 64560, Note_on_c, 14, 58, 0
18, 64560, Note_on_c, 14, 59, 72
18, 64620, Note_on_c, 14, 59, 0
18, 64620, Note_on_c, 14, 47, 72
18, 64680, Note_on_c, 14, 47, 0
18, 64680, Note_on_c, 14, 49, 72
18, 64740, Note_on_c, 14, 49, 0
18, 64740, Note_on_c, 14, 51, 72
18, 64800, Note_on_c, 14, 51, 0
18, 64800, Note_on_c, 14, 53, 72
18, 64860, Note_on_c, 14, 53, 0
18, 64860, Note_on_c, 14, 54, 72
18, 64920, Note_on_c, 14, 54, 0
18, 64920, Note_on_c, 14, 56, 72
18, 64980, Note_on_c, 14, 56, 0
18, 64980, Note_on_c, 14, 59, 72
18, 65040, Note_on_c, 14, 59, 0
18, 65040, Note_on_c, 14, 57, 72
18, 65100, Note_on_c, 14, 57, 0
18, 65100, Note_on_c, 14, 56, 72
18, 65160, Note_on_c, 14, 56, 0
18, 65160, Note_on_c, 14, 54, 72
18, 65220, Note_on_c, 14, 54, 0
18, 65220, Note_on_c, 14, 53, 72
18, 65280, Note_on_c, 14, 53, 0
18, 65280, Note_on_c, 14, 54, 72
18, 65340, Note_on_c, 14, 54, 0
18, 65340, Note_on_c, 14, 45, 72
18, 65400, Note_on_c, 14, 45, 0
18, 65400, Note_on_c, 14, 50, 72
18, 65460, Note_on_c, 14, 50, 0
18, 65460, Note_on_c, 14, 47, 72
18, 65520, Note_on_c, 14, 47, 0
18, 65520, Note_on_c, 14, 49, 72
18, 65580, Note_on_c, 14, 49, 0
18, 65580, Note_on_c, 14, 37, 72
18, 65640, Note_on_c, 14, 37, 0
18, 65640, Note_on_c, 14, 42, 72
18, 65700, Note_on_c, 14, 42, 0
18, 65700, Note_on_c, 14, 54, 72
18, 65730, Note_on_c, 14, 54, 0
18, 65730, Note_on_c, 14, 56, 72
18, 65760, Note_on_c, 14, 56, 0
18, 65760, Note_on_c, 14, 57, 72
18, 65820, Note_on_c, 14, 57, 0
18, 65820, Note_on_c, 14, 59, 72
18, 65880, Note_on_c, 14, 59, 0
18, 65880, Note_on_c, 14, 57, 72
18, 65940, Note_on_c, 14, 57, 0
18, 65940, Note_on_c, 14, 56, 72
18, 66000, Note_on_c, 14, 56, 0
18, 66000, Note_on_c, 14, 54, 72
18, 66060, Note_on_c, 14, 54, 0
18, 66060, Note_on_c, 14, 52, 72
18, 66090, Note_on_c, 14, 52, 0
18, 66090, Note_on_c, 14, 50, 72
18, 66120, Note_on_c, 14, 50, 0
18, 66120, Note_on_c, 14, 49, 72
18, 66180, Note_on_c, 14, 49, 0
18, 66180, Note_on_c, 14, 50, 72
18, 66210, Note_on_c, 14, 50, 0
18, 66210, Note_on_c, 14, 52, 72
18, 66240, Note_on_c, 14, 52, 0
18, 66240, Note_on_c, 14, 50, 72
18, 66270, Note_on_c, 14, 50, 0
18, 66270, Note_on_c, 14, 49, 72
18, 66300, Note_on_c, 14, 49, 0
18, 66300, Note_on_c, 14, 47, 72
18, 66330, Note_on_c, 14, 47, 0
18, 66330, Note_on_c, 14, 45, 72
18, 66360, Note_on_c, 14, 45, 0
18, 66360, Note_on_c, 14, 50, 72
18, 66420, Note_on_c, 14, 50, 0
18, 66420, Note_on_c, 14, 49, 72
18, 66480, Note_on_c, 14, 49, 0
18, 66480, Note_on_c, 14, 47, 72
18, 66540, Note_on_c, 14, 47, 0
18, 66540, Note_on_c, 14, 45, 72
18, 66600, Note_on_c, 14, 45, 0
18, 66600, Note_on_c, 14, 44, 72
18, 66660, Note_on_c, 14, 44, 0
18, 66660, Note_on_c, 14, 40, 72
18, 66720, Note_on_c, 14, 40, 0
18, 66720, Note_on_c, 14, 45, 72
18, 66780, Note_on_c, 14, 45, 0
18, 66780, Note_on_c, 14, 49, 72
18, 66840, Note_on_c, 14, 49, 0
18, 66840, Note_on_c, 14, 54, 72
18, 66900, Note_on_c, 14, 54, 0
18, 66900, Note_on_c, 14, 57, 72
18, 66930, Note_on_c, 14, 57, 0
18, 66930, Note_on_c, 14, 56, 72
18, 66960, Note_on_c, 14, 56, 0
18, 66960, Note_on_c, 14, 57, 72
18, 67140, Note_on_c, 14, 57, 0
18, 67140, Note_on_c, 14, 56, 72
18, 67170, Note_on_c, 14, 56, 0
18, 67170, Note_on_c, 14, 54, 72
18, 67200, Note_on_c, 14, 54, 0
18, 67200, Note_on_c, 14, 56, 72
18, 67260, Note_on_c, 14, 56, 0
18, 67260, Note_on_c, 14, 57, 72
18, 67290, Note_on_c, 14, 57, 0
18, 67290, Note_on_c, 14, 59, 72
18, 67320, Note_on_c, 14, 59, 0
18, 67320, Note_on_c, 14, 61, 72
18, 67500, Note_on_c, 14, 61, 0
18, 67500, Note_on_c, 14, 59, 72
18, 67530, Note_on_c, 14, 59, 0
18, 67530, Note_on_c, 14, 57, 72
18, 67560, Note_on_c, 14, 57, 0
18, 67560, Note_on_c, 14, 59, 72
18, 67620, Note_on_c, 14, 59, 0
18, 67620, Note_on_c, 14, 52, 72
18, 67680, Note_on_c, 14, 52, 0
18, 67680, Note_on_c, 14, 61, 72
18, 67740, Note_on_c, 14, 61, 0
18, 67740, Note_on_c, 14, 52, 72
18, 67800, Note_on_c, 14, 52, 0
18, 67800, Note_on_c, 14, 62, 72
18, 67860, Note_on_c, 14, 62, 0
18, 67860, Note_on_c, 14, 59, 72
18, 67920, Note_on_c, 14, 59, 0
18, 67920, Note_on_c, 14, 56, 72
18, 67980, Note_on_c, 14, 56, 0
18, 67980, Note_on_c, 14, 52, 72
18, 68040, Note_on_c, 14, 52, 0
18, 68040, Note_on_c, 14, 57, 72
18, 68100, Note_on_c, 14, 57, 0
18, 68100, Note_on_c, 14, 50, 72
18, 68220, Note_on_c, 14, 50, 0
18, 68220, Note_on_c, 14, 44, 72
18, 68280, Note_on_c, 14, 44, 0
18, 68280, Note_on_c, 14, 45, 72
18, 68340, Note_on_c, 14, 45, 0
18, 68340, Note_on_c, 14, 49, 72
18, 68400, Note_on_c, 14, 49, 0
18, 68400, Note_on_c, 14, 52, 72
18, 68460, Note_on_c, 14, 52, 0
18, 68460, Note_on_c, 14, 40, 72
18, 68520, Note_on_c, 14, 40, 0
18, 68520, Note_on_c, 14, 45, 72
18, 68580, Note_on_c, 14, 45, 0
18, 68580, Note_on_c, 14, 57, 72
18, 68640, Note_on_c, 14, 57, 0
18, 68640, Note_on_c, 14, 56, 72
18, 68700, Note_on_c, 14, 56, 0
18, 68700, Note_on_c, 14, 54, 72
18, 68760, Note_on_c, 14, 54, 0
18, 68760, Note_on_c, 14, 52, 72
18, 68820, Note_on_c, 14, 52, 0
18, 68820, Note_on_c, 14, 50, 72
18, 68880, Note_on_c, 14, 50, 0
18, 68880, Note_on_c, 14, 49, 48
18, 68940, Note_on_c, 14, 49, 0
18, 68940, Note_on_c, 14, 52, 48
18, 69000, Note_on_c, 14, 52, 0
18, 69000, Note_on_c, 14, 42, 48
18, 69060, Note_on_c, 14, 42, 0
18, 69060, Note_on_c, 14, 54, 48
18, 69120, Note_on_c, 14, 54, 0
18, 69120, Note_on_c, 14, 56, 48
18, 69180, Note_on_c, 14, 56, 0
18, 69180, Note_on_c, 14, 58, 48
18, 69240, Note_on_c, 14, 58, 0
18, 69240, Note_on_c, 14, 59, 48
18, 69270, Note_on_c, 14, 59, 0
18, 69270, Note_on_c, 14, 58, 48
18, 69300, Note_on_c, 14, 58, 0
18, 69300, Note_on_c, 14, 59, 48
18, 69330, Note_on_c, 14, 59, 0
18, 69330, Note_on_c, 14, 61, 48
18, 69360, Note_on_c, 14, 61, 0
18, 69360, Note_on_c, 14, 62, 48
18, 69420, Note_on_c, 14, 62, 0
18, 69420, Note_on_c, 14, 61, 48
18, 69480, Note_on_c, 14, 61, 0
18, 69480, Note_on_c, 14, 59, 48
18, 69540, Note_on_c, 14, 59, 0
18, 69540, Note_on_c, 14, 57, 48
18, 69600, Note_on_c, 14, 57, 0
18, 69600, Note_on_c, 14, 56, 48
18, 69630, Note_on_c, 14, 56, 0
18, 69630, Note_on_c, 14, 54, 48
18, 69660, Note_on_c, 14, 54, 0
18, 69660, Note_on_c, 14, 56, 48
18, 69690, Note_on_c, 14, 56, 0
18, 69690, Note_on_c, 14, 57, 48
18, 69720, Note_on_c, 14, 57, 0
18, 69720, Note_on_c, 14, 59, 48
18, 69780, Note_on_c, 14, 59, 0
18, 69780, Note_on_c, 14, 57, 48
18, 69840, Note_on_c, 14, 57, 0
18, 69840, Note_on_c, 14, 56, 48
18, 69900, Note_on_c, 14, 56, 0
18, 69900, Note_on_c, 14, 54, 48
18, 69960, Note_on_c, 14, 54, 0
18, 69960, Note_on_c, 14, 53, 48
18, 70020, Note_on_c, 14, 53, 0
18, 70020, Note_on_c, 14, 62, 48
18, 70050, Note_on_c, 14, 62, 0
18, 70050, Note_on_c, 14, 61, 48
18, 70080, Note_on_c, 14, 61, 0
18, 70080, Note_on_c, 14, 59, 48
18, 70110, Note_on_c, 14, 59, 0
18, 70110, Note_on_c, 14, 57, 48
18, 70140, Note_on_c, 14, 57, 0
18, 70140, Note_on_c, 14, 56, 48
18, 70170, Note_on_c, 14, 56, 0
18, 70170, Note_on_c, 14, 54, 48
18, 70200, Note_on_c, 14, 54, 0
18, 70200, Note_on_c, 14, 53, 48
18, 70260, Note_on_c, 14, 53, 0
18, 70260, Note_on_c, 14, 49, 48
18, 70320, Note_on_c, 14, 49, 0
18, 70320, Note_on_c, 14, 54, 48
18, 70380, Note_on_c, 14, 54, 0
18, 70380, Note_on_c, 14, 57, 48
18, 70440, Note_on_c, 14, 57, 0
18, 70440, Note_on_c, 14, 50, 48
18, 70500, Note_on_c, 14, 50, 0
18, 70560, Note_on_c, 14, 47, 48
18, 70620, Note_on_c, 14, 47, 0
18, 70680, Note_on_c, 14, 49, 48
18, 70740, Note_on_c, 14, 49, 0
18, 70740, Note_on_c, 14, 61, 48
18, 70800, Note_on_c, 14, 61, 0
18, 70800, Note_on_c, 14, 59, 48
18, 70830, Note_on_c, 14, 59, 0
18, 70830, Note_on_c, 14, 57, 48
18, 70860, Note_on_c, 14, 57, 0
18, 70860, Note_on_c, 14, 56, 48
18, 70890, Note_on_c, 14, 56, 0
18, 70890, Note_on_c, 14, 54, 48
18, 70920, Note_on_c, 14, 54, 0
18, 70920, Note_on_c, 14, 56, 48
18, 70980, Note_on_c, 14, 56, 0
18, 70980, Note_on_c, 14, 58, 48
18, 71040, Note_on_c, 14, 58, 0
18, 71040, Note_on_c, 14, 59, 48
18, 71100, Note_on_c, 14, 59, 0
18, 71100, Note_on_c, 14, 47, 48
18, 71160, Note_on_c, 14, 47, 0
18, 71160, Note_on_c, 14, 54, 48
18, 71220, Note_on_c, 14, 54, 0
18, 71220, Note_on_c, 14, 54, 48
18, 71280, Note_on_c, 14, 54, 0
18, 71280, Note_on_c, 14, 52, 48
18, 71340, Note_on_c, 14, 52, 0
18, 71340, Note_on_c, 14, 52, 48
18, 71400, Note_on_c, 14, 52, 0
18, 71400, Note_on_c, 14, 50, 48
18, 71460, Note_on_c, 14, 50, 0
18, 71460, Note_on_c, 14, 47, 48
18, 71520, Note_on_c, 14, 47, 0
18, 71520, Note_on_c, 14, 41, 48
18, 71580, Note_on_c, 14, 41, 0
18, 71580, Note_on_c, 14, 42, 48
18, 71640, Note_on_c, 14, 42, 0
18, 71640, Note_on_c, 14, 44, 48
18, 71700, Note_on_c, 14, 44, 0
18, 71700, Note_on_c, 14, 45, 48
18, 71760, Note_on_c, 14, 45, 0
18, 71760, Note_on_c, 14, 47, 48
18, 71820, Note_on_c, 14, 47, 0
18, 71820, Note_on_c, 14, 47, 48
18, 71880, Note_on_c, 14, 47, 0
18, 71880, Note_on_c, 14, 49, 48
18, 71940, Note_on_c, 14, 49, 0
18, 71940, Note_on_c, 14, 49, 48
18, 72000, Note_on_c, 14, 49, 0
18, 72000, Note_on_c, 14, 50, 48
18, 72060, Note_on_c, 14, 50, 0
18, 72060, Note_on_c, 14, 50, 48
18, 72120, Note_on_c, 14, 50, 0
18, 72120, Note_on_c, 14, 49, 48
18, 72180, Note_on_c, 14, 49, 0
18, 72180, Note_on_c, 14, 47, 48
18, 72240, Note_on_c, 14, 47, 0
18, 72240, Note_on_c, 14, 45, 48
18, 72300, Note_on_c, 14, 45, 0
18, 72300, Note_on_c, 14, 44, 48
18, 72360, Note_on_c, 14, 44, 0
18, 72360, Note_on_c, 14, 42, 48
18, 72420, Note_on_c, 14, 42, 0
18, 72420, Note_on_c, 14, 41, 48
18, 72480, Note_on_c, 14, 41, 0
18, 72480, Note_on_c, 14, 42, 48
18, 72540, Note_on_c, 14, 42, 0
18, 72540, Note_on_c, 14, 45, 48
18, 72600, Note_on_c, 14, 45, 0
18, 72600, Note_on_c, 14, 50, 48
18, 72660, Note_on_c, 14, 50, 0
18, 72660, Note_on_c, 14, 47, 48
18, 72720, Note_on_c, 14, 47, 0
18, 72720, Note_on_c, 14, 49, 48
18, 72780, Note_on_c, 14, 49, 0
18, 72780, Note_on_c, 14, 37, 48
18, 72840, Note_on_c, 14, 37, 0
18, 72840, Note_on_c, 14, 42, 48
18, 72900, Note_on_c, 14, 42, 0
18, 72900, Note_on_c, 14, 57, 48
18, 72960, Note_on_c, 14, 57, 0
18, 72960, Note_on_c, 14, 56, 72
18, 73020, Note_on_c, 14, 56, 0
18, 73020, Note_on_c, 14, 54, 72
18, 73080, Note_on_c, 14, 54, 0
18, 73080, Note_on_c, 14, 61, 72
18, 73140, Note_on_c, 14, 61, 0
18, 73140, Note_on_c, 14, 49, 72
18, 73200, Note_on_c, 14, 49, 0
18, 73200, Note_on_c, 14, 54, 72
18, 73260, Note_on_c, 14, 54, 0
18, 73260, Note_on_c, 14, 57, 72
18, 73320, Note_on_c, 14, 57, 0
18, 73320, Note_on_c, 14, 51, 72
18, 73380, Note_on_c, 14, 51, 0
18, 73380, Note_on_c, 14, 54, 72
18, 73440, Note_on_c, 14, 54, 0
18, 73440, Note_on_c, 14, 56, 72
18, 73500, Note_on_c, 14, 56, 0
18, 73500, Note_on_c, 14, 54, 72
18, 73560, Note_on_c, 14, 54, 0
18, 73560, Note_on_c, 14, 53, 72
18, 73620, Note_on_c, 14, 53, 0
18, 73620, Note_on_c, 14, 56, 72
18, 73680, Note_on_c, 14, 56, 0
18, 73680, Note_on_c, 14, 49, 72
18, 73740, Note_on_c, 14, 49, 0
18, 73740, Note_on_c, 14, 53, 72
18, 73800, Note_on_c, 14, 53, 0
18, 73800, Note_on_c, 14, 54, 72
18, 73860, Note_on_c, 14, 54, 0
18, 73860, Note_on_c, 14, 49, 72
18, 73920, Note_on_c, 14, 49, 0
18, 73920, Note_on_c, 14, 45, 72
18, 73980, Note_on_c, 14, 45, 0
18, 73980, Note_on_c, 14, 44, 72
18, 74040, Note_on_c, 14, 44, 0
18, 74040, Note_on_c, 14, 45, 72
18, 74100, Note_on_c, 14, 45, 0
18, 74100, Note_on_c, 14, 47, 72
18, 74160, Note_on_c, 14, 47, 0
18, 74160, Note_on_c, 14, 49, 72
18, 74220, Note_on_c, 14, 49, 0
18, 74220, Note_on_c, 14, 37, 72
18, 74280, Note_on_c, 14, 37, 0
18, 74280, Note_on_c, 14, 42, 72
18, 74340, Note_on_c, 14, 42, 0
18, 74340, Note_on_c, 14, 54, 72
18, 74370, Note_on_c, 14, 54, 0
18, 74370, Note_on_c, 14, 56, 72
18, 74400, Note_on_c, 14, 56, 0
18, 74400, Note_on_c, 14, 57, 72
18, 74460, Note_on_c, 14, 57, 0
18, 74460, Note_on_c, 14, 59, 72
18, 74520, Note_on_c, 14, 59, 0
18, 74520, Note_on_c, 14, 57, 72
18, 74580, Note_on_c, 14, 57, 0
18, 74580, Note_on_c, 14, 56, 52
18, 74640, Note_on_c, 14, 56, 0
18, 74640, Note_on_c, 14, 54, 52
18, 74700, Note_on_c, 14, 54, 0
18, 74700, Note_on_c, 14, 54, 52
18, 74760, Note_on_c, 14, 54, 0
18, 74760, Note_on_c, 14, 49, 52
18, 74820, Note_on_c, 14, 49, 0
18, 74820, Note_on_c, 14, 49, 52
18, 74880, Note_on_c, 14, 49, 0
18, 74880, Note_on_c, 14, 45, 52
18, 74940, Note_on_c, 14, 45, 0
18, 74940, Note_on_c, 14, 45, 52
18, 75000, Note_on_c, 14, 45, 0
18, 75000, Note_on_c, 14, 38, 52
18, 75060, Note_on_c, 14, 38, 0
18, 75060, Note_on_c, 14, 50, 52
18, 75090, Note_on_c, 14, 50, 0
18, 75090, Note_on_c, 14, 52, 52
18, 75120, Note_on_c, 14, 52, 0
18, 75120, Note_on_c, 14, 50, 52
18, 75180, Note_on_c, 14, 50, 0
18, 75180, Note_on_c, 14, 49, 52
18, 75240, Note_on_c, 14, 49, 0
18, 75240, Note_on_c, 14, 47, 52
18, 75300, Note_on_c, 14, 47, 0
18, 75300, Note_on_c, 14, 50, 52
18, 75360, Note_on_c, 14, 50, 0
18, 75360, Note_on_c, 14, 49, 52
18, 75420, Note_on_c, 14, 49, 0
18, 75420, Note_on_c, 14, 49, 52
18, 75480, Note_on_c, 14, 49, 0
18, 75480, Note_on_c, 14, 46, 52
18, 75540, Note_on_c, 14, 46, 0
18, 75540, Note_on_c, 14, 46, 52
18, 75600, Note_on_c, 14, 46, 0
18, 75600, Note_on_c, 14, 42, 52
18, 75660, Note_on_c, 14, 42, 0
18, 75660, Note_on_c, 14, 42, 52
18, 75720, Note_on_c, 14, 42, 0
18, 75720, Note_on_c, 14, 47, 52
18, 75780, Note_on_c, 14, 47, 0
18, 75780, Note_on_c, 14, 59, 52
18, 75810, Note_on_c, 14, 59, 0
18, 75810, Note_on_c, 14, 61, 52
18, 75840, Note_on_c, 14, 61, 0
18, 75840, Note_on_c, 14, 59, 52
18, 75900, Note_on_c, 14, 59, 0
18, 75900, Note_on_c, 14, 57, 52
18, 75960, Note_on_c, 14, 57, 0
18, 75960, Note_on_c, 14, 56, 52
18, 76020, Note_on_c, 14, 56, 0
18, 76020, Note_on_c, 14, 52, 52
18, 76080, Note_on_c, 14, 52, 0
18, 76080, Note_on_c, 14, 57, 52
18, 76140, Note_on_c, 14, 57, 0
18, 76140, Note_on_c, 14, 56, 52
18, 76200, Note_on_c, 14, 56, 0
18, 76200, Note_on_c, 14, 54, 52
18, 76260, Note_on_c, 14, 54, 0
18, 76260, Note_on_c, 14, 56, 52
18, 76320, Note_on_c, 14, 56, 0
18, 76320, Note_on_c, 14, 57, 52
18, 76380, Note_on_c, 14, 57, 0
18, 76380, Note_on_c, 14, 54, 52
18, 76440, Note_on_c, 14, 54, 0
18, 76440, Note_on_c, 14, 59, 52
18, 76500, Note_on_c, 14, 59, 0
18, 76500, Note_on_c, 14, 47, 52
18, 76560, Note_on_c, 14, 47, 0
18, 76560, Note_on_c, 14, 40, 52
18, 76620, Note_on_c, 14, 40, 0
18, 76620, Note_on_c, 14, 40, 52
18, 76680, Note_on_c, 14, 40, 0
18, 76680, Note_on_c, 14, 40, 52
18, 76740, Note_on_c, 14, 40, 0
18, 76740, Note_on_c, 14, 40, 52
18, 76800, Note_on_c, 14, 40, 0
18, 76800, Note_on_c, 14, 40, 52
18, 76860, Note_on_c, 14, 40, 0
18, 76860, Note_on_c, 14, 40, 52
18, 76920, Note_on_c, 14, 40, 0
18, 76920, Note_on_c, 14, 40, 52
18, 76980, Note_on_c, 14, 40, 0
18, 76980, Note_on_c, 14, 40, 52
18, 77040, Note_on_c, 14, 40, 0
18, 77040, Note_on_c, 14, 40, 52
18, 77100, Note_on_c, 14, 40, 0
18, 77100, Note_on_c, 14, 40, 52
18, 77160, Note_on_c, 14, 40, 0
18, 77160, Note_on_c, 14, 40, 52
18, 77220, Note_on_c, 14, 40, 0
18, 77220, Note_on_c, 14, 40, 52
18, 77280, Note_on_c, 14, 40, 0
18, 77280, Note_on_c, 14, 40, 52
18, 77340, Note_on_c, 14, 40, 0
18, 77340, Note_on_c, 14, 40, 52
18, 77400, Note_on_c, 14, 40, 0
18, 77400, Note_on_c, 14, 40, 52
18, 77460, Note_on_c, 14, 40, 0
18, 77460, Note_on_c, 14, 40, 52
18, 77520, Note_on_c, 14, 40, 0
18, 77520, Note_on_c, 14, 42, 52
18, 77580, Note_on_c, 14, 42, 0
18, 77580, Note_on_c, 14, 42, 52
18, 77640, Note_on_c, 14, 42, 0
18, 77640, Note_on_c, 14, 42, 52
18, 77700, Note_on_c, 14, 42, 0
18, 77700, Note_on_c, 14, 42, 52
18, 77760, Note_on_c, 14, 42, 0
18, 77760, Note_on_c, 14, 42, 52
18, 77820, Note_on_c, 14, 42, 0
18, 77820, Note_on_c, 14, 42, 52
18, 77880, Note_on_c, 14, 42, 0
18, 77880, Note_on_c, 14, 44, 52
18, 77940, Note_on_c, 14, 44, 0
18, 77940, Note_on_c, 14, 44, 52
18, 78000, Note_on_c, 14, 44, 0
18, 78000, Note_on_c, 14, 44, 52
18, 78060, Note_on_c, 14, 44, 0
18, 78060, Note_on_c, 14, 44, 52
18, 78120, Note_on_c, 14, 44, 0
18, 78120, Note_on_c, 14, 45, 52
18, 78180, Note_on_c, 14, 45, 0
18, 78180, Note_on_c, 14, 50, 52
18, 78300, Note_on_c, 14, 50, 0
18, 78300, Note_on_c, 14, 44, 52
18, 78360, Note_on_c, 14, 44, 0
18, 78360, Note_on_c, 14, 45, 52
18, 78420, Note_on_c, 14, 45, 0
18, 78420, Note_on_c, 14, 49, 52
18, 78480, Note_on_c, 14, 49, 0
18, 78480, Note_on_c, 14, 52, 52
18, 78540, Note_on_c, 14, 52, 0
18, 78540, Note_on_c, 14, 40, 52
18, 78600, Note_on_c, 14, 40, 0
18, 78600, Note_on_c, 14, 45, 52
18, 78660, Note_on_c, 14, 45, 0
18, 78660, Note_on_c, 14, 52, 55
18, 78720, Note_on_c, 14, 52, 0
18, 78720, Note_on_c, 14, 57, 58
18, 78780, Note_on_c, 14, 57, 0
18, 78780, Note_on_c, 14, 52, 61
18, 78840, Note_on_c, 14, 52, 0
18, 78840, Note_on_c, 14, 49, 64
18, 78900, Note_on_c, 14, 49, 0
18, 78900, Note_on_c, 14, 52, 68
18, 78960, Note_on_c, 14, 52, 0
18, 78960, Note_on_c, 14, 57, 72
18, 79020, Note_on_c, 14, 57, 0
18, 79020, Note_on_c, 14, 61, 72
18, 79080, Note_on_c, 14, 61, 0
18, 79080, Note_on_c, 14, 62, 72
18, 79140, Note_on_c, 14, 62, 0
18, 79200, Note_on_c, 14, 61, 72
18, 79260, Note_on_c, 14, 61, 0
18, 79320, Note_on_c, 14, 59, 72
18, 79380, Note_on_c, 14, 59, 0
18, 79380, Note_on_c, 14, 52, 72
18, 79440, Note_on_c, 14, 52, 0
18, 79440, Note_on_c, 14, 57, 72
18, 79500, Note_on_c, 14, 57, 0
18, 79500, Note_on_c, 14, 50, 72
18, 79530, Note_on_c, 14, 50, 0
18, 79530, Note_on_c, 14, 49, 72
18, 79560, Note_on_c, 14, 49, 0
18, 79560, Note_on_c, 14, 50, 72
18, 79740, Note_on_c, 14, 50, 0
18, 79740, Note_on_c, 14, 49, 72
18, 79800, Note_on_c, 14, 49, 0
18, 79800, Note_on_c, 14, 54, 72
18, 79860, Note_on_c, 14, 54, 0
18, 79860, Note_on_c, 14, 56, 72
18, 79920, Note_on_c, 14, 56, 0
18, 79920, Note_on_c, 14, 57, 72
18, 79980, Note_on_c, 14, 57, 0
18, 79980, Note_on_c, 14, 50, 72
18, 80040, Note_on_c, 14, 50, 0
18, 80040, Note_on_c, 14, 52, 72
18, 80100, Note_on_c, 14, 52, 0
18, 80100, Note_on_c, 14, 40, 72
18, 80160, Note_on_c, 14, 40, 0
18, 80160, Note_on_c, 14, 52, 72
18, 80220, Note_on_c, 14, 52, 0
18, 80220, Note_on_c, 14, 50, 72
18, 80280, Note_on_c, 14, 50, 0
18, 80280, Note_on_c, 14, 49, 48
18, 80340, Note_on_c, 14, 49, 0
18, 80340, Note_on_c, 14, 52, 48
18, 80400, Note_on_c, 14, 52, 0
18, 80400, Note_on_c, 14, 57, 48
18, 80460, Note_on_c, 14, 57, 0
18, 80460, Note_on_c, 14, 61, 48
18, 80520, Note_on_c, 14, 61, 0
18, 80520, Note_on_c, 14, 62, 48
18, 80580, Note_on_c, 14, 62, 0
18, 80640, Note_on_c, 14, 61, 48
18, 80700, Note_on_c, 14, 61, 0
18, 80760, Note_on_c, 14, 59, 48
18, 80820, Note_on_c, 14, 59, 0
18, 80820, Note_on_c, 14, 52, 48
18, 80880, Note_on_c, 14, 52, 0
18, 80880, Note_on_c, 14, 57, 48
18, 80940, Note_on_c, 14, 57, 0
18, 80940, Note_on_c, 14, 50, 48
18, 80970, Note_on_c, 14, 50, 0
18, 80970, Note_on_c, 14, 49, 48
18, 81000, Note_on_c, 14, 49, 0
18, 81000, Note_on_c, 14, 50, 48
18, 81180, Note_on_c, 14, 50, 0
18, 81180, Note_on_c, 14, 49, 48
18, 81240, Note_on_c, 14, 49, 0
18, 81240, Note_on_c, 14, 54, 48
18, 81300, Note_on_c, 14, 54, 0
18, 81300, Note_on_c, 14, 56, 48
18, 81360, Note_on_c, 14, 56, 0
18, 81360, Note_on_c, 14, 57, 48
18, 81420, Note_on_c, 14, 57, 0
18, 81420, Note_on_c, 14, 50, 48
18, 81480, Note_on_c, 14, 50, 0
18, 81480, Note_on_c, 14, 52, 48
18, 81540, Note_on_c, 14, 52, 0
18, 81540, Note_on_c, 14, 54, 48
18, 81600, Note_on_c, 14, 54, 0
18, 81600, Note_on_c, 14, 56, 48
18, 81660, Note_on_c, 14, 56, 0
18, 81660, Note_on_c, 14, 52, 48
18, 81720, Note_on_c, 14, 52, 0
18, 81720, Note_on_c, 14, 54, 72
18, 81780, Note_on_c, 14, 54, 0
18, 81780, Note_on_c, 14, 47, 72
18, 81840, Note_on_c, 14, 47, 0
18, 81840, Note_on_c, 14, 52, 72
18, 81900, Note_on_c, 14, 52, 0
18, 81900, Note_on_c, 14, 55, 72
18, 81960, Note_on_c, 14, 55, 0
18, 81960, Note_on_c, 14, 49, 72
18, 82020, Note_on_c, 14, 49, 0
18, 82020, Note_on_c, 14, 52, 72
18, 82080, Note_on_c, 14, 52, 0
18, 82080, Note_on_c, 14, 54, 72
18, 82140, Note_on_c, 14, 54, 0
18, 82140, Note_on_c, 14, 52, 72
18, 82200, Note_on_c, 14, 52, 0
18, 82200, Note_on_c, 14, 51, 72
18, 82260, Note_on_c, 14, 51, 0
18, 82260, Note_on_c, 14, 52, 72
18, 82320, Note_on_c, 14, 52, 0
18, 82320, Note_on_c, 14, 45, 72
18, 82350, Note_on_c, 14, 45, 0
18, 82350, Note_on_c, 14, 43, 72
18, 82380, Note_on_c, 14, 43, 0
18, 82380, Note_on_c, 14, 45, 72
18, 82500, Note_on_c, 14, 45, 0
18, 82500, Note_on_c, 14, 44, 72
18, 82560, Note_on_c, 14, 44, 0
18, 82560, Note_on_c, 14, 42, 72
18, 82620, Note_on_c, 14, 42, 0
18, 82620, Note_on_c, 14, 51, 72
18, 82680, Note_on_c, 14, 51, 0
18, 82680, Note_on_c, 14, 52, 72
18, 82740, Note_on_c, 14, 52, 0
18, 82740, Note_on_c, 14, 49, 72
18, 82800, Note_on_c, 14, 49, 0
18, 82800, Note_on_c, 14, 45, 72
18, 82860, Note_on_c, 14, 45, 0
18, 82860, Note_on_c, 14, 47, 72
18, 82920, Note_on_c, 14, 47, 0
18, 82920, Note_on_c, 14, 40, 72
18, 82980, Note_on_c, 14, 40, 0
18, 82980, Note_on_c, 14, 47, 72
18, 83040, Note_on_c, 14, 47, 0
18, 83040, Note_on_c, 14, 52, 72
18, 83100, Note_on_c, 14, 52, 0
18, 83100, Note_on_c, 14, 56, 72
18, 83130, Note_on_c, 14, 56, 0
18, 83130, Note_on_c, 14, 54, 72
18, 83160, Note_on_c, 14, 54, 0
18, 83160, Note_on_c, 14, 52, 72
18, 83220, Note_on_c, 14, 52, 0
18, 83220, Note_on_c, 14, 50, 72
18, 83280, Note_on_c, 14, 50, 0
18, 83280, Note_on_c, 14, 49, 72
18, 83340, Note_on_c, 14, 49, 0
18, 83340, Note_on_c, 14, 52, 72
18, 83400, Note_on_c, 14, 52, 0
18, 83400, Note_on_c, 14, 42, 72
18, 83460, Note_on_c, 14, 42, 0
18, 83460, Note_on_c, 14, 54, 72
18, 83520, Note_on_c, 14, 54, 0
18, 83520, Note_on_c, 14, 56, 72
18, 83580, Note_on_c, 14, 56, 0
18, 83580, Note_on_c, 14, 58, 72
18, 83640, Note_on_c, 14, 58, 0
18, 83640, Note_on_c, 14, 59, 72
18, 83700, Note_on_c, 14, 59, 0
18, 83700, Note_on_c, 14, 57, 72
18, 83760, Note_on_c, 14, 57, 0
18, 83760, Note_on_c, 14, 56, 72
18, 83820, Note_on_c, 14, 56, 0
18, 83820, Note_on_c, 14, 54, 72
18, 83880, Note_on_c, 14, 54, 0
18, 83880, Note_on_c, 14, 53, 72
18, 83940, Note_on_c, 14, 53, 0
18, 83940, Note_on_c, 14, 61, 72
18, 84000, Note_on_c, 14, 61, 0
18, 84000, Note_on_c, 14, 54, 72
18, 84060, Note_on_c, 14, 54, 0
18, 84060, Note_on_c, 14, 57, 72
18, 84120, Note_on_c, 14, 57, 0
18, 84120, Note_on_c, 14, 50, 72
18, 84180, Note_on_c, 14, 50, 0
18, 84240, Note_on_c, 14, 47, 72
18, 84300, Note_on_c, 14, 47, 0
18, 84360, Note_on_c, 14, 49, 72
18, 84420, Note_on_c, 14, 49, 0
18, 84420, Note_on_c, 14, 61, 72
18, 84480, Note_on_c, 14, 61, 0
18, 84480, Note_on_c, 14, 59, 72
18, 84510, Note_on_c, 14, 59, 0
18, 84510, Note_on_c, 14, 57, 72
18, 84540, Note_on_c, 14, 57, 0
18, 84540, Note_on_c, 14, 56, 72
18, 84570, Note_on_c, 14, 56, 0
18, 84570, Note_on_c, 14, 54, 72
18, 84600, Note_on_c, 14, 54, 0
18, 84600, Note_on_c, 14, 56, 72
18, 84660, Note_on_c, 14, 56, 0
18, 84660, Note_on_c, 14, 58, 72
18, 84720, Note_on_c, 14, 58, 0
18, 84720, Note_on_c, 14, 59, 72
18, 84780, Note_on_c, 14, 59, 0
18, 84780, Note_on_c, 14, 47, 72
18, 84840, Note_on_c, 14, 47, 0
18, 84840, Note_on_c, 14, 49, 72
18, 84900, Note_on_c, 14, 49, 0
18, 84900, Note_on_c, 14, 51, 72
18, 84960, Note_on_c, 14, 51, 0
18, 84960, Note_on_c, 14, 53, 72
18, 85020, Note_on_c, 14, 53, 0
18, 85020, Note_on_c, 14, 54, 72
18, 85080, Note_on_c, 14, 54, 0
18, 85080, Note_on_c, 14, 56, 72
18, 85140, Note_on_c, 14, 56, 0
18, 85140, Note_on_c, 14, 59, 72
18, 85200, Note_on_c, 14, 59, 0
18, 85200, Note_on_c, 14, 57, 72
18, 85260, Note_on_c, 14, 57, 0
18, 85260, Note_on_c, 14, 56, 72
18, 85320, Note_on_c, 14, 56, 0
18, 85320, Note_on_c, 14, 54, 72
18, 85380, Note_on_c, 14, 54, 0
18, 85380, Note_on_c, 14, 53, 72
18, 85440, Note_on_c, 14, 53, 0
18, 85440, Note_on_c, 14, 54, 72
18, 85500, Note_on_c, 14, 54, 0
18, 85500, Note_on_c, 14, 45, 72
18, 85560, Note_on_c, 14, 45, 0
18, 85560, Note_on_c, 14, 50, 72
18, 85620, Note_on_c, 14, 50, 0
18, 85620, Note_on_c, 14, 47, 72
18, 85680, Note_on_c, 14, 47, 0
18, 85680, Note_on_c, 14, 49, 72
18, 85740, Note_on_c, 14, 49, 0
18, 85740, Note_on_c, 14, 37, 72
18, 85800, Note_on_c, 14, 37, 0
18, 85800, Note_on_c, 14, 42, 72
18, 85860, Note_on_c, 14, 42, 0
18, 85860, Note_on_c, 14, 54, 72
18, 85890, Note_on_c, 14, 54, 0
18, 85890, Note_on_c, 14, 56, 72
18, 85920, Note_on_c, 14, 56, 0
18, 85920, Note_on_c, 14, 57, 72
18, 85980, Note_on_c, 14, 57, 0
18, 85980, Note_on_c, 14, 59, 72
18, 86040, Note_on_c, 14, 59, 0
18, 86040, Note_on_c, 14, 57, 72
18, 86100, Note_on_c, 14, 57, 0
18, 86100, Note_on_c, 14, 56, 72
18, 86160, Note_on_c, 14, 56, 0
18, 86160, Note_on_c, 14, 54, 72
18, 86220, Note_on_c, 14, 54, 0
18, 86220, Note_on_c, 14, 52, 72
18, 86250, Note_on_c, 14, 52, 0
18, 86250, Note_on_c, 14, 50, 72
18, 86280, Note_on_c, 14, 50, 0
18, 86280, Note_on_c, 14, 49, 72
18, 86340, Note_on_c, 14, 49, 0
18, 86340, Note_on_c, 14, 50, 72
18, 86370, Note_on_c, 14, 50, 0
18, 86370, Note_on_c, 14, 52, 72
18, 86400, Note_on_c, 14, 52, 0
18, 86400, Note_on_c, 14, 50, 72
18, 86430, Note_on_c, 14, 50, 0
18, 86430, Note_on_c, 14, 49, 72
18, 86460, Note_on_c, 14, 49, 0
18, 86460, Note_on_c, 14, 47, 72
18, 86490, Note_on_c, 14, 47, 0
18, 86490, Note_on_c, 14, 45, 72
18, 86520, Note_on_c, 14, 45, 0
18, 86520, Note_on_c, 14, 50, 72
18, 86580, Note_on_c, 14, 50, 0
18, 86580, Note_on_c, 14, 49, 72
18, 86640, Note_on_c, 14, 49, 0
18, 86640, Note_on_c, 14, 47, 72
18, 86700, Note_on_c, 14, 47, 0
18, 86700, Note_on_c, 14, 45, 72
18, 86760, Note_on_c, 14, 45, 0
18, 86760, Note_on_c, 14, 44, 72
18, 86820, Note_on_c, 14, 44, 0
18, 86820, Note_on_c, 14, 40, 72
18, 86880, Note_on_c, 14, 40, 0
18, 86880, Note_on_c, 14, 45, 72
18, 86940, Note_on_c, 14, 45, 0
18, 86940, Note_on_c, 14, 49, 72
18, 87000, Note_on_c, 14, 49, 0
18, 87000, Note_on_c, 14, 54, 72
18, 87060, Note_on_c, 14, 54, 0
18, 87060, Note_on_c, 14, 57, 72
18, 87090, Note_on_c, 14, 57, 0
18, 87090, Note_on_c, 14, 56, 72
18, 87120, Note_on_c, 14, 56, 0
18, 87120, Note_on_c, 14, 57, 72
18, 87300, Note_on_c, 14, 57, 0
18, 87300, Note_on_c, 14, 56, 72
18, 87330, Note_on_c, 14, 56, 0
18, 87330, Note_on_c, 14, 54, 72
18, 87360, Note_on_c, 14, 54, 0
18, 87360, Note_on_c, 14, 56, 72
18, 87420, Note_on_c, 14, 56, 0
18, 87420, Note_on_c, 14, 57, 72
18, 87450, Note_on_c, 14, 57, 0
18, 87450, Note_on_c, 14, 59, 72
18, 87480, Note_on_c, 14, 59, 0
18, 87480, Note_on_c, 14, 61, 72
18, 87660, Note_on_c, 14, 61, 0
18, 87660, Note_on_c, 14, 59, 72
18, 87690, Note_on_c, 14, 59, 0
18, 87690, Note_on_c, 14, 57, 72
18, 87720, Note_on_c, 14, 57, 0
18, 87720, Note_on_c, 14, 59, 72
18, 87780, Note_on_c, 14, 59, 0
18, 87780, Note_on_c, 14, 52, 72
18, 87840, Note_on_c, 14, 52, 0
18, 87840, Note_on_c, 14, 61, 72
18, 87900, Note_on_c, 14, 61, 0
18, 87900, Note_on_c, 14, 52, 72
18, 87960, Note_on_c, 14, 52, 0
18, 87960, Note_on_c, 14, 62, 72
18, 88020, Note_on_c, 14, 62, 0
18, 88020, Note_on_c, 14, 59, 72
18, 88080, Note_on_c, 14, 59, 0
18, 88080, Note_on_c, 14, 56, 72
18, 88140, Note_on_c, 14, 56, 0
18, 88140, Note_on_c, 14, 52, 72
18, 88200, Note_on_c, 14, 52, 0
18, 88200, Note_on_c, 14, 57, 72
18, 88260, Note_on_c, 14, 57, 0
18, 88260, Note_on_c, 14, 50, 72
18, 88380, Note_on_c, 14, 50, 0
18, 88380, Note_on_c, 14, 44, 72
18, 88440, Note_on_c, 14, 44, 0
18, 88440, Note_on_c, 14, 45, 72
18, 88500, Note_on_c, 14, 45, 0
18, 88500, Note_on_c, 14, 49, 72
18, 88560, Note_on_c, 14, 49, 0
18, 88560, Note_on_c, 14, 52, 72
18, 88620, Note_on_c, 14, 52, 0
18, 88620, Note_on_c, 14, 40, 72
18, 88680, Note_on_c, 14, 40, 0
18, 88680, Note_on_c, 14, 45, 72
18, 88920, Note_on_c, 14, 45, 0
18, 89040, Note_on_c, 14, 61, 70
18, 89040, Note_on_c, 14, 57, 70
18, 89040, Note_on_c, 14, 66, 70
18, 89040, Note_on_c, 14, 42, 70
18, 89520, Note_on_c, 14, 66, 0
18, 89520, Note_on_c, 14, 61, 0
18, 89520, Note_on_c, 14, 57, 0
18, 89520, Note_on_c, 14, 61, 70
18, 89520, Note_on_c, 14, 57, 70
18, 89520, Note_on_c, 14, 63, 70
18, 89640, Note_on_c, 14, 63, 0
18, 89640, Note_on_c, 14, 57, 0
18, 89640, Note_on_c, 14, 61, 0
18, 89640, Note_on_c, 14, 60, 70
18, 89640, Note_on_c, 14, 56, 70
18, 89759, Note_on_c, 14, 42, 0
18, 89760, Note_on_c, 14, 56, 0
18, 89760, Note_on_c, 14, 60, 0
18, 89760, Note_on_c, 14, 61, 70
18, 89760, Note_on_c, 14, 64, 70
18, 89760, Note_on_c, 14, 49, 70
18, 89999, Note_on_c, 14, 49, 0
18, 89999, Note_on_c, 14, 64, 0
18, 89999, Note_on_c, 14, 61, 0
18, 90000, Note_on_c, 14, 65, 70
18, 90000, Note_on_c, 14, 56, 70
18, 90000, Note_on_c, 14, 61, 70
18, 90000, Note_on_c, 14, 47, 70
18, 90840, Note_on_c, 14, 47, 0
18, 90840, Note_on_c, 14, 65, 0
18, 90840, Note_on_c, 14, 56, 0
18, 90840, Note_on_c, 14, 61, 0
18, 90840, Note_on_c, 14, 66, 70
18, 90840, Note_on_c, 14, 58, 70
18, 90840, Note_on_c, 14, 61, 70
18, 90840, Note_on_c, 14, 46, 70
18, 91080, Note_on_c, 14, 66, 0
18, 91080, Note_on_c, 14, 64, 70
18, 91199, Note_on_c, 14, 58, 0
18, 91199, Note_on_c, 14, 46, 0
18, 91199, Note_on_c, 14, 61, 0
18, 91200, Note_on_c, 14, 64, 0
18, 91200, Note_on_c, 14, 63, 70
18, 91200, Note_on_c, 14, 59, 70
18, 91200, Note_on_c, 14, 45, 70
18, 91440, Note_on_c, 14, 45, 0
18, 91440, Note_on_c, 14, 59, 0
18, 91440, Note_on_c, 14, 63, 0
18, 91440, Note_on_c, 14, 59, 70
18, 91440, Note_on_c, 14, 64, 70
18, 91440, Note_on_c, 14, 44, 70
18, 91680, Note_on_c, 14, 64, 0
18, 91680, Note_on_c, 14, 62, 70
18, 92160, Note_on_c, 14, 62, 0
18, 92160, Note_on_c, 14, 44, 0
18, 92160, Note_on_c, 14, 59, 0
18, 92160, Note_on_c, 14, 57, 70
18, 92160, Note_on_c, 14, 61, 70
18, 92160, Note_on_c, 14, 45, 70
18, 92519, Note_on_c, 14, 45, 0
18, 92519, Note_on_c, 14, 61, 0
18, 92519, Note_on_c, 14, 57, 0
18, 92520, Note_on_c, 14, 57, 70
18, 92520, Note_on_c, 14, 61, 70
18, 92520, Note_on_c, 14, 64, 70
18, 92520, Note_on_c, 14, 49, 70
18, 92879, Note_on_c, 14, 49, 0
18, 92879, Note_on_c, 14, 57, 0
18, 92879, Note_on_c, 14, 61, 0
18, 92879, Note_on_c, 14, 64, 0
18, 92880, Note_on_c, 14, 57, 70
18, 92880, Note_on_c, 14, 62, 70
18, 92880, Note_on_c, 14, 66, 70
18, 92880, Note_on_c, 14, 50, 70
18, 93359, Note_on_c, 14, 50, 0
18, 93359, Note_on_c, 14, 57, 0
18, 93359, Note_on_c, 14, 62, 0
18, 93359, Note_on_c, 14, 66, 0
18, 93360, Note_on_c, 14, 57, 70
18, 93360, Note_on_c, 14, 62, 70
18, 93360, Note_on_c, 14, 54, 70
18, 93600, Note_on_c, 14, 62, 0
18, 93600, Note_on_c, 14, 60, 70
18, 94080, Note_on_c, 14, 54, 0
18, 94080, Note_on_c, 14, 57, 0
18, 94080, Note_on_c, 14, 57, 70
18, 94080, Note_on_c, 14, 63, 70
18, 94080, Note_on_c, 14, 51, 70
18, 94320, Note_on_c, 14, 60, 0
18, 94560, Note_on_c, 14, 63, 0
18, 94560, Note_on_c, 14, 60, 70
18, 94800, Note_on_c, 14, 60, 0
18, 94800, Note_on_c, 14, 57, 0
18, 94800, Note_on_c, 14, 51, 0
18, 94800, Note_on_c, 14, 55, 70
18, 94800, Note_on_c, 14, 59, 70
18, 94800, Note_on_c, 14, 64, 70
18, 94800, Note_on_c, 14, 52, 70
18, 95279, Note_on_c, 14, 52, 0
18, 95279, Note_on_c, 14, 55, 0
18, 95279, Note_on_c, 14, 59, 0
18, 95279, Note_on_c, 14, 64, 0
18, 95280, Note_on_c, 14, 57, 70
18, 95280, Note_on_c, 14, 62, 70
18, 95280, Note_on_c, 14, 66, 70
18, 95280, Note_on_c, 14, 54, 70
18, 95519, Note_on_c, 14, 54, 0
18, 95519, Note_on_c, 14, 57, 0
18, 95519, Note_on_c, 14, 62, 0
18, 95519, Note_on_c, 14, 66, 0
18, 95520, Note_on_c, 14, 67, 70
18, 95520, Note_on_c, 14, 59, 70
18, 95520, Note_on_c, 14, 62, 70
18, 95520, Note_on_c, 14, 55, 70
18, 95640, Note_on_c, 14, 67, 0
18, 95640, Note_on_c, 14, 65, 70
18, 95759, Note_on_c, 14, 59, 0
18, 95759, Note_on_c, 14, 55, 0
18, 95759, Note_on_c, 14, 62, 0
18, 95760, Note_on_c, 14, 65, 0
18, 95760, Note_on_c, 14, 60, 70
18, 95760, Note_on_c, 14, 67, 70
18, 95760, Note_on_c, 14, 64, 70
18, 95760, Note_on_c, 14, 48, 70
18, 95820, Note_on_c, 14, 64, 0
18, 95820, Note_on_c, 14, 60, 0
18, 95820, Note_on_c, 14, 67, 0
18, 95820, Note_on_c, 14, 66, 70
18, 95820, Note_on_c, 14, 69, 70
18, 95879, Note_on_c, 14, 48, 0
18, 95880, Note_on_c, 14, 69, 0
18, 95880, Note_on_c, 14, 66, 0
18, 95880, Note_on_c, 14, 67, 70
18, 95880, Note_on_c, 14, 71, 70
18, 95880, Note_on_c, 14, 49, 70
18, 95999, Note_on_c, 14, 49, 0
18, 95999, Note_on_c, 14, 71, 0
18, 95999, Note_on_c, 14, 67, 0
18, 96120, Note_on_c, 14, 62, 70
18, 96120, Note_on_c, 14, 67, 70
18, 96120, Note_on_c, 14, 71, 70
18, 96120, Note_on_c, 14, 50, 70
18, 96180, Note_on_c, 14, 71, 0
18, 96180, Note_on_c, 14, 67, 0
18, 96180, Note_on_c, 14, 66, 70
18, 96180, Note_on_c, 14, 69, 70
18, 96239, Note_on_c, 14, 62, 0
18, 96239, Note_on_c, 14, 50, 0
18, 96240, Note_on_c, 14, 66, 0
18, 96240, Note_on_c, 14, 69, 0
18, 96240, Note_on_c, 14, 62, 70
18, 96240, Note_on_c, 14, 67, 70
18, 96240, Note_on_c, 14, 43, 70
18, 96479, Note_on_c, 14, 43, 0
18, 96479, Note_on_c, 14, 67, 0
18, 96479, Note_on_c, 14, 62, 0
18, 97080, Note_on_c, 14, 55, 80
18, 97140, Note_on_c, 14, 55, 0
18, 97140, Note_on_c, 14, 54, 80
18, 97200, Note_on_c, 14, 54, 0
18, 97200, Note_on_c, 14, 52, 80
18, 97260, Note_on_c, 14, 52, 0
18, 97260, Note_on_c, 14, 40, 80
18, 97320, Note_on_c, 14, 40, 0
18, 97320, Note_on_c, 14, 52, 80
18, 97380, Note_on_c, 14, 52, 0
18, 97380, Note_on_c, 14, 50, 80
18, 97440, Note_on_c, 14, 50, 0
18, 97440, Note_on_c, 14, 48, 80
18, 97620, Note_on_c, 14, 48, 0
18, 97620, Note_on_c, 14, 47, 80
18, 97680, Note_on_c, 14, 47, 0
18, 97680, Note_on_c, 14, 48, 80
18, 97740, Note_on_c, 14, 48, 0
18, 97740, Note_on_c, 14, 45, 80
18, 97800, Note_on_c, 14, 45, 0
18, 97800, Note_on_c, 14, 50, 80
18, 97860, Note_on_c, 14, 50, 0
18, 97860, Note_on_c, 14, 38, 80
18, 97920, Note_on_c, 14, 38, 0
18, 97920, Note_on_c, 14, 43, 80
18, 98028, Note_on_c, 14, 43, 0
18, 98040, Note_on_c, 14, 48, 80
18, 98160, Note_on_c, 14, 48, 0
18, 98160, Note_on_c, 14, 55, 80
18, 98220, Note_on_c, 14, 55, 0
18, 98220, Note_on_c, 14, 54, 80
18, 98280, Note_on_c, 14, 54, 0
18, 98280, Note_on_c, 14, 52, 80
18, 98340, Note_on_c, 14, 52, 0
18, 98340, Note_on_c, 14, 40, 80
18, 98400, Note_on_c, 14, 40, 0
18, 98400, Note_on_c, 14, 47, 80
18, 98460, Note_on_c, 14, 47, 0
18, 98460, Note_on_c, 14, 45, 80
18, 98520, Note_on_c, 14, 45, 0
18, 98520, Note_on_c, 14, 43, 80
18, 98580, Note_on_c, 14, 43, 0
18, 98580, Note_on_c, 14, 47, 80
18, 98640, Note_on_c, 14, 47, 0
18, 98640, Note_on_c, 14, 50, 80
18, 98760, Note_on_c, 14, 50, 0
18, 98760, Note_on_c, 14, 38, 80
18, 98880, Note_on_c, 14, 38, 0
18, 98880, Note_on_c, 14, 43, 80
18, 98988, Note_on_c, 14, 43, 0
18, 99000, Note_on_c, 14, 55, 80
18, 99060, Note_on_c, 14, 55, 0
18, 99060, Note_on_c, 14, 54, 80
18, 99120, Note_on_c, 14, 54, 0
18, 99120, Note_on_c, 14, 52, 80
18, 99180, Note_on_c, 14, 52, 0
18, 99180, Note_on_c, 14, 40, 80
18, 99240, Note_on_c, 14, 40, 0
18, 99240, Note_on_c, 14, 52, 80
18, 99300, Note_on_c, 14, 52, 0
18, 99300, Note_on_c, 14, 50, 80
18, 99360, Note_on_c, 14, 50, 0
18, 99360, Note_on_c, 14, 48, 80
18, 99540, Note_on_c, 14, 48, 0
18, 99540, Note_on_c, 14, 47, 80
18, 99600, Note_on_c, 14, 47, 0
18, 99600, Note_on_c, 14, 48, 80
18, 99660, Note_on_c, 14, 48, 0
18, 99660, Note_on_c, 14, 45, 80
18, 99720, Note_on_c, 14, 45, 0
18, 99720, Note_on_c, 14, 50, 80
18, 99780, Note_on_c, 14, 50, 0
18, 99780, Note_on_c, 14, 38, 80
18, 99840, Note_on_c, 14, 38, 0
18, 99840, Note_on_c, 14, 43, 80
18, 99948, Note_on_c, 14, 43, 0
18, 99960, Note_on_c, 14, 48, 80
18, 100080, Note_on_c, 14, 48, 0
18, 100080, Note_on_c, 14, 55, 80
18, 100140, Note_on_c, 14, 55, 0
18, 100140, Note_on_c, 14, 54, 80
18, 100200, Note_on_c, 14, 54, 0
18, 100200, Note_on_c, 14, 52, 80
18, 100260, Note_on_c, 14, 52, 0
18, 100260, Note_on_c, 14, 40, 80
18, 100320, Note_on_c, 14, 40, 0
18, 100320, Note_on_c, 14, 47, 80
18, 100380, Note_on_c, 14, 47, 0
18, 100380, Note_on_c, 14, 45, 80
18, 100440, Note_on_c, 14, 45, 0
18, 100440, Note_on_c, 14, 43, 80
18, 100500, Note_on_c, 14, 43, 0
18, 100500, Note_on_c, 14, 47, 80
18, 100560, Note_on_c, 14, 47, 0
18, 100560, Note_on_c, 14, 50, 80
18, 100680, Note_on_c, 14, 50, 0
18, 100680, Note_on_c, 14, 38, 80
18, 100800, Note_on_c, 14, 38, 0
18, 100800, Note_on_c, 14, 43, 80
18, 100908, Note_on_c, 14, 43, 0
18, 100920, Note_on_c, 14, 43, 80
18, 100980, Note_on_c, 14, 43, 0
18, 100980, Note_on_c, 14, 45, 80
18, 101040, Note_on_c, 14, 45, 0
18, 101040, Note_on_c, 14, 47, 80
18, 101100, Note_on_c, 14, 47, 0
18, 101100, Note_on_c, 14, 48, 80
18, 101160, Note_on_c, 14, 48, 0
18, 101160, Note_on_c, 14, 50, 80
18, 101220, Note_on_c, 14, 50, 0
18, 101220, Note_on_c, 14, 38, 80
18, 101280, Note_on_c, 14, 38, 0
18, 101280, Note_on_c, 14, 43, 80
18, 101340, Note_on_c, 14, 43, 0
18, 101340, Note_on_c, 14, 45, 80
18, 101400, Note_on_c, 14, 45, 0
18, 101400, Note_on_c, 14, 47, 80
18, 101460, Note_on_c, 14, 47, 0
18, 101460, Note_on_c, 14, 59, 80
18, 101520, Note_on_c, 14, 59, 0
18, 101520, Note_on_c, 14, 52, 80
18, 101580, Note_on_c, 14, 52, 0
18, 101580, Note_on_c, 14, 54, 80
18, 101640, Note_on_c, 14, 54, 0
18, 101640, Note_on_c, 14, 55, 80
18, 101700, Note_on_c, 14, 55, 0
18, 101700, Note_on_c, 14, 43, 80
18, 101760, Note_on_c, 14, 43, 0
18, 101760, Note_on_c, 14, 50, 80
18, 101868, Note_on_c, 14, 50, 0
18, 101880, Note_on_c, 14, 50, 80
18, 101940, Note_on_c, 14, 50, 0
18, 101940, Note_on_c, 14, 48, 80
18, 102000, Note_on_c, 14, 48, 0
18, 102000, Note_on_c, 14, 47, 80
18, 102060, Note_on_c, 14, 47, 0
18, 102060, Note_on_c, 14, 59, 80
18, 102120, Note_on_c, 14, 59, 0
18, 102120, Note_on_c, 14, 47, 80
18, 102180, Note_on_c, 14, 47, 0
18, 102180, Note_on_c, 14, 45, 80
18, 102240, Note_on_c, 14, 45, 0
18, 102240, Note_on_c, 14, 43, 80
18, 102300, Note_on_c, 14, 43, 0
18, 102300, Note_on_c, 14, 55, 80
18, 102360, Note_on_c, 14, 55, 0
18, 102360, Note_on_c, 14, 43, 80
18, 102420, Note_on_c, 14, 43, 0
18, 102420, Note_on_c, 14, 42, 80
18, 102480, Note_on_c, 14, 42, 0
18, 102480, Note_on_c, 14, 40, 80
18, 102540, Note_on_c, 14, 40, 0
18, 102540, Note_on_c, 14, 50, 80
18, 102600, Note_on_c, 14, 50, 0
18, 102600, Note_on_c, 14, 48, 80
18, 102720, Note_on_c, 14, 48, 0
18, 102720, Note_on_c, 14, 47, 80
18, 102828, Note_on_c, 14, 47, 0
18, 102840, Note_on_c, 14, 40, 80
18, 102960, Note_on_c, 14, 40, 0
18, 102960, Note_on_c, 14, 52, 80
18, 103020, Note_on_c, 14, 52, 0
18, 103020, Note_on_c, 14, 50, 80
18, 103080, Note_on_c, 14, 50, 0
18, 103080, Note_on_c, 14, 48, 80
18, 103140, Note_on_c, 14, 48, 0
18, 103140, Note_on_c, 14, 60, 80
18, 103200, Note_on_c, 14, 60, 0
18, 103200, Note_on_c, 14, 59, 80
18, 103260, Note_on_c, 14, 59, 0
18, 103260, Note_on_c, 14, 57, 80
18, 103320, Note_on_c, 14, 57, 0
18, 103320, Note_on_c, 14, 55, 80
18, 103380, Note_on_c, 14, 55, 0
18, 103380, Note_on_c, 14, 43, 80
18, 103440, Note_on_c, 14, 43, 0
18, 103440, Note_on_c, 14, 50, 80
18, 103560, Note_on_c, 14, 50, 0
18, 103560, Note_on_c, 14, 38, 80
18, 103680, Note_on_c, 14, 38, 0
18, 103680, Note_on_c, 14, 43, 80
18, 103800, Note_on_c, 14, 43, 0
18, 103920, Note_on_c, 14, 51, 60
18, 105120, Note_on_c, 14, 51, 0
18, 105120, Note_on_c, 14, 52, 60
18, 105360, Note_on_c, 14, 52, 0
18, 105360, Note_on_c, 14, 50, 60
18, 105600, Note_on_c, 14, 50, 0
18, 105600, Note_on_c, 14, 41, 60
18, 105780, Note_on_c, 14, 41, 0
18, 105780, Note_on_c, 14, 42, 60
18, 105810, Note_on_c, 14, 42, 0
18, 105810, Note_on_c, 14, 44, 60
18, 105840, Note_on_c, 14, 44, 0
18, 105840, Note_on_c, 14, 45, 60
18, 105900, Note_on_c, 14, 45, 0
18, 105900, Note_on_c, 14, 47, 60
18, 105930, Note_on_c, 14, 47, 0
18, 105930, Note_on_c, 14, 49, 60
18, 105960, Note_on_c, 14, 49, 0
18, 105960, Note_on_c, 14, 50, 60
18, 106140, Note_on_c, 14, 50, 0
18, 106140, Note_on_c, 14, 49, 60
18, 106170, Note_on_c, 14, 49, 0
18, 106170, Note_on_c, 14, 47, 60
18, 106200, Note_on_c, 14, 47, 0
18, 106200, Note_on_c, 14, 49, 60
18, 106260, Note_on_c, 14, 49, 0
18, 106260, Note_on_c, 14, 37, 60
18, 106320, Note_on_c, 14, 37, 0
18, 106320, Note_on_c, 14, 42, 70
18, 107520, Note_on_c, 14, 42, 0
18, 107520, Note_on_c, 14, 49, 70
18, 107759, Note_on_c, 14, 49, 0
18, 107760, Note_on_c, 14, 50, 70
18, 107879, Note_on_c, 14, 50, 0
18, 107880, Note_on_c, 14, 47, 70
18, 107999, Note_on_c, 14, 47, 0
18, 108120, Note_on_c, 14, 40, 90
18, 108239, Note_on_c, 14, 40, 0
18, 108240, Note_on_c, 14, 45, 90
18, 108719, Note_on_c, 14, 45, 0
18, 108720, Note_on_c, 14, 47, 70
18, 109199, Note_on_c, 14, 47, 0
18, 109200, Note_on_c, 14, 40, 70
18, 109439, Note_on_c, 14, 40, 0
18, 109440, Note_on_c, 14, 45, 70
18, 109679, Note_on_c, 14, 45, 0
18, 109680, Note_on_c, 14, 38, 70
18, 109739, Note_on_c, 14, 38, 0
18, 109740, Note_on_c, 14, 50, 90
18, 109769, Note_on_c, 14, 50, 0
18, 109770, Note_on_c, 14, 47, 90
18, 109799, Note_on_c, 14, 47, 0
18, 109800, Note_on_c, 14, 49, 90
18, 109829, Note_on_c, 14, 49, 0
18, 109830, Note_on_c, 14, 46, 90
18, 109859, Note_on_c, 14, 46, 0
18, 109860, Note_on_c, 14, 47, 90
18, 109889, Note_on_c, 14, 47, 0
18, 109890, Note_on_c, 14, 44, 90
18, 109919, Note_on_c, 14, 44, 0
18, 109920, Note_on_c, 14, 45, 70
18, 110880, Note_on_c, 14, 45, 0
18, 110880, Note_on_c, 14, 47, 70
18, 110939, Note_on_c, 14, 47, 0
18, 110940, Note_on_c, 14, 59, 90
18, 110969, Note_on_c, 14, 59, 0
18, 110970, Note_on_c, 14, 55, 90
18, 110999, Note_on_c, 14, 55, 0
18, 111000, Note_on_c, 14, 57, 90
18, 111029, Note_on_c, 14, 57, 0
18, 111030, Note_on_c, 14, 54, 90
18, 111059, Note_on_c, 14, 54, 0
18, 111060, Note_on_c, 14, 55, 90
18, 111089, Note_on_c, 14, 55, 0
18, 111090, Note_on_c, 14, 52, 90
18, 111119, Note_on_c, 14, 52, 0
18, 111120, Note_on_c, 14, 54, 70
18, 111599, Note_on_c, 14, 54, 0
18, 111600, Note_on_c, 14, 51, 70
18, 112140, Note_on_c, 14, 51, 0
18, 112140, Note_on_c, 14, 57, 90
18, 112169, Note_on_c, 14, 57, 0
18, 112170, Note_on_c, 14, 54, 90
18, 112199, Note_on_c, 14, 54, 0
18, 112200, Note_on_c, 14, 55, 90
18, 112229, Note_on_c, 14, 55, 0
18, 112230, Note_on_c, 14, 52, 90
18, 112259, Note_on_c, 14, 52, 0
18, 112260, Note_on_c, 14, 54, 90
18, 112289, Note_on_c, 14, 54, 0
18, 112290, Note_on_c, 14, 51, 90
18, 112319, Note_on_c, 14, 51, 0
18, 112320, Note_on_c, 14, 45, 70
18, 112559, Note_on_c, 14, 45, 0
18, 112560, Note_on_c, 14, 44, 70
18, 112980, Note_on_c, 14, 44, 0
18, 112980, Note_on_c, 14, 42, 70
18, 113040, Note_on_c, 14, 42, 0
18, 113040, Note_on_c, 14, 41, 70
18, 113219, Note_on_c, 14, 41, 0
18, 113220, Note_on_c, 14, 42, 90
18, 113249, Note_on_c, 14, 42, 0
18, 113250, Note_on_c, 14, 44, 90
18, 113279, Note_on_c, 14, 44, 0
18, 113280, Note_on_c, 14, 37, 70
18, 113519, Note_on_c, 14, 37, 0
18, 113520, Note_on_c, 14, 42, 90
18, 113579, Note_on_c, 14, 42, 0
18, 113580, Note_on_c, 14, 54, 90
18, 113639, Note_on_c, 14, 54, 0
18, 113640, Note_on_c, 14, 45, 90
18, 113699, Note_on_c, 14, 45, 0
18, 113700, Note_on_c, 14, 49, 90
18, 113759, Note_on_c, 14, 49, 0
18, 113760, Note_on_c, 14, 40, 70
18, 114239, Note_on_c, 14, 40, 0
18, 114240, Note_on_c, 14, 39, 70
18, 114599, Note_on_c, 14, 39, 0
18, 114660, Note_on_c, 14, 47, 70
18, 114719, Note_on_c, 14, 47, 0
18, 114720, Note_on_c, 14, 52, 70
18, 114779, Note_on_c, 14, 52, 0
18, 114780, Note_on_c, 14, 52, 70
18, 114839, Note_on_c, 14, 52, 0
18, 114840, Note_on_c, 14, 50, 70
18, 114899, Note_on_c, 14, 50, 0
18, 114900, Note_on_c, 14, 50, 70
18, 114959, Note_on_c, 14, 50, 0
18, 114960, Note_on_c, 14, 49, 70
18, 115019, Note_on_c, 14, 49, 0
18, 115020, Note_on_c, 14, 49, 70
18, 115079, Note_on_c, 14, 49, 0
18, 115080, Note_on_c, 14, 47, 70
18, 115139, Note_on_c, 14, 47, 0
18, 115140, Note_on_c, 14, 47, 70
18, 115199, Note_on_c, 14, 47, 0
18, 115200, Note_on_c, 14, 46, 70
18, 115259, Note_on_c, 14, 46, 0
18, 115260, Note_on_c, 14, 46, 70
18, 115319, Note_on_c, 14, 46, 0
18, 115320, Note_on_c, 14, 42, 70
18, 115379, Note_on_c, 14, 42, 0
18, 115380, Note_on_c, 14, 42, 70
18, 115439, Note_on_c, 14, 42, 0
18, 115440, Note_on_c, 14, 47, 70
18, 115499, Note_on_c, 14, 47, 0
18, 115500, Note_on_c, 14, 45, 70
18, 115559, Note_on_c, 14, 45, 0
18, 115560, Note_on_c, 14, 43, 70
18, 115619, Note_on_c, 14, 43, 0
18, 115620, Note_on_c, 14, 42, 70
18, 115679, Note_on_c, 14, 42, 0
18, 115680, Note_on_c, 14, 41, 70
18, 115799, Note_on_c, 14, 41, 0
18, 115800, Note_on_c, 14, 42, 70
18, 115919, Note_on_c, 14, 42, 0
18, 115920, Note_on_c, 14, 47, 70
18, 116160, Note_on_c, 14, 47, 0
18, 116580, Note_on_c, 14, 47, 80
18, 116639, Note_on_c, 14, 47, 0
18, 116640, Note_on_c, 14, 59, 80
18, 116759, Note_on_c, 14, 59, 0
18, 116880, Note_on_c, 14, 55, 80
18, 116999, Note_on_c, 14, 55, 0
18, 117180, Note_on_c, 14, 52, 80
18, 117239, Note_on_c, 14, 52, 0
18, 117240, Note_on_c, 14, 54, 80
18, 117299, Note_on_c, 14, 54, 0
18, 117300, Note_on_c, 14, 42, 80
18, 117359, Note_on_c, 14, 42, 0
18, 117360, Note_on_c, 14, 47, 80
18, 117419, Note_on_c, 14, 47, 0
18, 117420, Note_on_c, 14, 49, 80
18, 117479, Note_on_c, 14, 49, 0
18, 117480, Note_on_c, 14, 50, 80
18, 117509, Note_on_c, 14, 50, 0
18, 117510, Note_on_c, 14, 49, 80
18, 117539, Note_on_c, 14, 49, 0
18, 117540, Note_on_c, 14, 50, 60
18, 117569, Note_on_c, 14, 50, 0
18, 117570, Note_on_c, 14, 49, 60
18, 117599, Note_on_c, 14, 49, 0
18, 117600, Note_on_c, 14, 47, 60
18, 117719, Note_on_c, 14, 47, 0
18, 117840, Note_on_c, 14, 43, 60
18, 117959, Note_on_c, 14, 43, 0
18, 118140, Note_on_c, 14, 40, 60
18, 118199, Note_on_c, 14, 40, 0
18, 118200, Note_on_c, 14, 42, 60
18, 118259, Note_on_c, 14, 42, 0
18, 118260, Note_on_c, 14, 54, 60
18, 118319, Note_on_c, 14, 54, 0
18, 118320, Note_on_c, 14, 47, 60
18, 118379, Note_on_c, 14, 47, 0
18, 118380, Note_on_c, 14, 49, 60
18, 118439, Note_on_c, 14, 49, 0
18, 118440, Note_on_c, 14, 50, 60
18, 118499, Note_on_c, 14, 50, 0
18, 118500, Note_on_c, 14, 47, 80
18, 118559, Note_on_c, 14, 47, 0
18, 118560, Note_on_c, 14, 53, 80
18, 118619, Note_on_c, 14, 53, 0
18, 118620, Note_on_c, 14, 54, 80
18, 118679, Note_on_c, 14, 54, 0
18, 118680, Note_on_c, 14, 56, 80
18, 118739, Note_on_c, 14, 56, 0
18, 118740, Note_on_c, 14, 49, 80
18, 118799, Note_on_c, 14, 49, 0
18, 118800, Note_on_c, 14, 54, 80
18, 118859, Note_on_c, 14, 54, 0
18, 118860, Note_on_c, 14, 52, 80
18, 118919, Note_on_c, 14, 52, 0
18, 118920, Note_on_c, 14, 50, 80
18, 118979, Note_on_c, 14, 50, 0
18, 118980, Note_on_c, 14, 49, 80
18, 119039, Note_on_c, 14, 49, 0
18, 119040, Note_on_c, 14, 47, 80
18, 119099, Note_on_c, 14, 47, 0
18, 119100, Note_on_c, 14, 49, 80
18, 119159, Note_on_c, 14, 49, 0
18, 119160, Note_on_c, 14, 50, 80
18, 119219, Note_on_c, 14, 50, 0
18, 119220, Note_on_c, 14, 38, 80
18, 119279, Note_on_c, 14, 38, 0
18, 119280, Note_on_c, 14, 37, 80
18, 119339, Note_on_c, 14, 37, 0
18, 119340, Note_on_c, 14, 49, 80
18, 119369, Note_on_c, 14, 49, 0
18, 119370, Note_on_c, 14, 47, 80
18, 119399, Note_on_c, 14, 47, 0
18, 119400, Note_on_c, 14, 45, 80
18, 119459, Note_on_c, 14, 45, 0
18, 119460, Note_on_c, 14, 44, 80
18, 119519, Note_on_c, 14, 44, 0
18, 119520, Note_on_c, 14, 45, 80
18, 119579, Note_on_c, 14, 45, 0
18, 119580, Note_on_c, 14, 42, 80
18, 119639, Note_on_c, 14, 42, 0
18, 119640, Note_on_c, 14, 44, 80
18, 119699, Note_on_c, 14, 44, 0
18, 119700, Note_on_c, 14, 47, 80
18, 119759, Note_on_c, 14, 47, 0
18, 119760, Note_on_c, 14, 45, 80
18, 119819, Note_on_c, 14, 45, 0
18, 119820, Note_on_c, 14, 54, 80
18, 119879, Note_on_c, 14, 54, 0
18, 119880, Note_on_c, 14, 53, 80
18, 119939, Note_on_c, 14, 53, 0
18, 119940, Note_on_c, 14, 49, 80
18, 119999, Note_on_c, 14, 49, 0
18, 120000, Note_on_c, 14, 54, 80
18, 120059, Note_on_c, 14, 54, 0
18, 120060, Note_on_c, 14, 45, 80
18, 120119, Note_on_c, 14, 45, 0
18, 120120, Note_on_c, 14, 47, 80
18, 120179, Note_on_c, 14, 47, 0
18, 120180, Note_on_c, 14, 49, 80
18, 120239, Note_on_c, 14, 49, 0
18, 120240, Note_on_c, 14, 42, 80
18, 120299, Note_on_c, 14, 42, 0
18, 120300, Note_on_c, 14, 54, 80
18, 120329, Note_on_c, 14, 54, 0
18, 120330, Note_on_c, 14, 52, 80
18, 120359, Note_on_c, 14, 52, 0
18, 120360, Note_on_c, 14, 50, 80
18, 120389, Note_on_c, 14, 50, 0
18, 120390, Note_on_c, 14, 49, 80
18, 120419, Note_on_c, 14, 49, 0
18, 120420, Note_on_c, 14, 50, 80
18, 120449, Note_on_c, 14, 50, 0
18, 120450, Note_on_c, 14, 49, 80
18, 120479, Note_on_c, 14, 49, 0
18, 120480, Note_on_c, 14, 47, 65
18, 120599, Note_on_c, 14, 47, 0
18, 120720, Note_on_c, 14, 43, 65
18, 120839, Note_on_c, 14, 43, 0
18, 121020, Note_on_c, 14, 52, 65
18, 121079, Note_on_c, 14, 52, 0
18, 121080, Note_on_c, 14, 54, 65
18, 121139, Note_on_c, 14, 54, 0
18, 121140, Note_on_c, 14, 42, 65
18, 121199, Note_on_c, 14, 42, 0
18, 121200, Note_on_c, 14, 47, 65
18, 121259, Note_on_c, 14, 47, 0
18, 121260, Note_on_c, 14, 49, 65
18, 121319, Note_on_c, 14, 49, 0
18, 121320, Note_on_c, 14, 50, 65
18, 121349, Note_on_c, 14, 50, 0
18, 121350, Note_on_c, 14, 49, 65
18, 121379, Note_on_c, 14, 49, 0
18, 121380, Note_on_c, 14, 50, 65
18, 121409, Note_on_c, 14, 50, 0
18, 121410, Note_on_c, 14, 49, 65
18, 121439, Note_on_c, 14, 49, 0
18, 121440, Note_on_c, 14, 47, 65
18, 121559, Note_on_c, 14, 47, 0
18, 121680, Note_on_c, 14, 55, 65
18, 121799, Note_on_c, 14, 55, 0
18, 121980, Note_on_c, 14, 52, 65
18, 122039, Note_on_c, 14, 52, 0
18, 122040, Note_on_c, 14, 54, 65
18, 122099, Note_on_c, 14, 54, 0
18, 122100, Note_on_c, 14, 42, 65
18, 122159, Note_on_c, 14, 42, 0
18, 122160, Note_on_c, 14, 47, 65
18, 122219, Note_on_c, 14, 47, 0
18, 122220, Note_on_c, 14, 49, 65
18, 122279, Note_on_c, 14, 49, 0
18, 122280, Note_on_c, 14, 50, 65
18, 122339, Note_on_c, 14, 50, 0
18, 122340, Note_on_c, 14, 47, 65
18, 122399, Note_on_c, 14, 47, 0
18, 122400, Note_on_c, 14, 53, 65
18, 122459, Note_on_c, 14, 53, 0
18, 122460, Note_on_c, 14, 54, 65
18, 122519, Note_on_c, 14, 54, 0
18, 122520, Note_on_c, 14, 56, 65
18, 122579, Note_on_c, 14, 56, 0
18, 122580, Note_on_c, 14, 49, 65
18, 122639, Note_on_c, 14, 49, 0
18, 122640, Note_on_c, 14, 54, 65
18, 122699, Note_on_c, 14, 54, 0
18, 122700, Note_on_c, 14, 52, 65
18, 122759, Note_on_c, 14, 52, 0
18, 122760, Note_on_c, 14, 50, 65
18, 122819, Note_on_c, 14, 50, 0
18, 122820, Note_on_c, 14, 49, 65
18, 122879, Note_on_c, 14, 49, 0
18, 122880, Note_on_c, 14, 47, 65
18, 122939, Note_on_c, 14, 47, 0
18, 122940, Note_on_c, 14, 49, 65
18, 122999, Note_on_c, 14, 49, 0
18, 123000, Note_on_c, 14, 50, 65
18, 123059, Note_on_c, 14, 50, 0
18, 123060, Note_on_c, 14, 62, 65
18, 123119, Note_on_c, 14, 62, 0
18, 123120, Note_on_c, 14, 61, 65
18, 123179, Note_on_c, 14, 61, 0
18, 123180, Note_on_c, 14, 49, 65
18, 123209, Note_on_c, 14, 49, 0
18, 123210, Note_on_c, 14, 47, 65
18, 123239, Note_on_c, 14, 47, 0
18, 123240, Note_on_c, 14, 45, 65
18, 123269, Note_on_c, 14, 45, 0
18, 123270, Note_on_c, 14, 44, 65
18, 123299, Note_on_c, 14, 44, 0
18, 123300, Note_on_c, 14, 45, 65
18, 123329, Note_on_c, 14, 45, 0
18, 123330, Note_on_c, 14, 44, 65
18, 123359, Note_on_c, 14, 44, 0
18, 123360, Note_on_c, 14, 42, 65
18, 123419, Note_on_c, 14, 42, 0
18, 123420, Note_on_c, 14, 54, 65
18, 123449, Note_on_c, 14, 54, 0
18, 123450, Note_on_c, 14, 52, 65
18, 123479, Note_on_c, 14, 52, 0
18, 123480, Note_on_c, 14, 50, 65
18, 123509, Note_on_c, 14, 50, 0
18, 123510, Note_on_c, 14, 49, 65
18, 123539, Note_on_c, 14, 49, 0
18, 123540, Note_on_c, 14, 50, 65
18, 123569, Note_on_c, 14, 50, 0
18, 123570, Note_on_c, 14, 49, 65
18, 123599, Note_on_c, 14, 49, 0
18, 123600, Note_on_c, 14, 47, 65
18, 123659, Note_on_c, 14, 47, 0
18, 123660, Note_on_c, 14, 59, 65
18, 123689, Note_on_c, 14, 59, 0
18, 123690, Note_on_c, 14, 57, 65
18, 123719, Note_on_c, 14, 57, 0
18, 123720, Note_on_c, 14, 55, 65
18, 123749, Note_on_c, 14, 55, 0
18, 123750, Note_on_c, 14, 54, 65
18, 123779, Note_on_c, 14, 54, 0
18, 123780, Note_on_c, 14, 55, 65
18, 123809, Note_on_c, 14, 55, 0
18, 123810, Note_on_c, 14, 54, 65
18, 123839, Note_on_c, 14, 54, 0
18, 123840, Note_on_c, 14, 52, 65
18, 123900, Note_on_c, 14, 52, 0
18, 123900, Note_on_c, 14, 64, 65
18, 123929, Note_on_c, 14, 64, 0
18, 123930, Note_on_c, 14, 62, 65
18, 123959, Note_on_c, 14, 62, 0
18, 123960, Note_on_c, 14, 61, 65
18, 123989, Note_on_c, 14, 61, 0
18, 123990, Note_on_c, 14, 59, 65
18, 124019, Note_on_c, 14, 59, 0
18, 124020, Note_on_c, 14, 61, 65
18, 124049, Note_on_c, 14, 61, 0
18, 124050, Note_on_c, 14, 59, 65
18, 124079, Note_on_c, 14, 59, 0
18, 124080, Note_on_c, 14, 58, 65
18, 124199, Note_on_c, 14, 58, 0
18, 124260, Note_on_c, 14, 54, 65
18, 124260, Note_on_c, 14, 46, 65
18, 124319, Note_on_c, 14, 46, 0
18, 124319, Note_on_c, 14, 54, 0
18, 124320, Note_on_c, 14, 50, 65
18, 124379, Note_on_c, 14, 50, 0
18, 124380, Note_on_c, 14, 47, 65
18, 124439, Note_on_c, 14, 47, 0
18, 124440, Note_on_c, 14, 54, 65
18, 124469, Note_on_c, 14, 54, 0
18, 124470, Note_on_c, 14, 52, 65
18, 124499, Note_on_c, 14, 52, 0
18, 124500, Note_on_c, 14, 54, 65
18, 124529, Note_on_c, 14, 54, 0
18, 124530, Note_on_c, 14, 52, 65
18, 124559, Note_on_c, 14, 52, 0
18, 124560, Note_on_c, 14, 50, 65
18, 124619, Note_on_c, 14, 50, 0
18, 124620, Note_on_c, 14, 47, 65
18, 124679, Note_on_c, 14, 47, 0
18, 124680, Note_on_c, 14, 54, 65
18, 124709, Note_on_c, 14, 54, 0
18, 124710, Note_on_c, 14, 52, 65
18, 124739, Note_on_c, 14, 52, 0
18, 124740, Note_on_c, 14, 54, 65
18, 124769, Note_on_c, 14, 54, 0
18, 124770, Note_on_c, 14, 52, 65
18, 124799, Note_on_c, 14, 52, 0
18, 124800, Note_on_c, 14, 50, 65
18, 124859, Note_on_c, 14, 50, 0
18, 124860, Note_on_c, 14, 52, 65
18, 124919, Note_on_c, 14, 52, 0
18, 124920, Note_on_c, 14, 54, 65
18, 124979, Note_on_c, 14, 54, 0
18, 124980, Note_on_c, 14, 42, 65
18, 125039, Note_on_c, 14, 42, 0
18, 125040, Note_on_c, 14, 47, 65
18, 125099, Note_on_c, 14, 47, 0
18, 125100, Note_on_c, 14, 49, 65
18, 125159, Note_on_c, 14, 49, 0
18, 125160, Note_on_c, 14, 50, 65
18, 125189, Note_on_c, 14, 50, 0
18, 125190, Note_on_c, 14, 49, 65
18, 125219, Note_on_c, 14, 49, 0
18, 125220, Note_on_c, 14, 50, 65
18, 125249, Note_on_c, 14, 50, 0
18, 125250, Note_on_c, 14, 49, 65
18, 125279, Note_on_c, 14, 49, 0
18, 125280, Note_on_c, 14, 47, 65
18, 125399, Note_on_c, 14, 47, 0
18, 125520, Note_on_c, 14, 43, 65
18, 125639, Note_on_c, 14, 43, 0
18, 125820, Note_on_c, 14, 40, 65
18, 125879, Note_on_c, 14, 40, 0
18, 125880, Note_on_c, 14, 42, 65
18, 125939, Note_on_c, 14, 42, 0
18, 125940, Note_on_c, 14, 54, 65
18, 125999, Note_on_c, 14, 54, 0
18, 126000, Note_on_c, 14, 47, 65
18, 126029, Note_on_c, 14, 47, 0
18, 126030, Note_on_c, 14, 46, 65
18, 126059, Note_on_c, 14, 46, 0
18, 126060, Note_on_c, 14, 47, 65
18, 126089, Note_on_c, 14, 47, 0
18, 126090, Note_on_c, 14, 49, 65
18, 126119, Note_on_c, 14, 49, 0
18, 126120, Note_on_c, 14, 50, 65
18, 126179, Note_on_c, 14, 50, 0
18, 126180, Note_on_c, 14, 47, 65
18, 126239, Note_on_c, 14, 47, 0
18, 126240, Note_on_c, 14, 53, 65
18, 126299, Note_on_c, 14, 53, 0
18, 126300, Note_on_c, 14, 54, 65
18, 126359, Note_on_c, 14, 54, 0
18, 126360, Note_on_c, 14, 56, 65
18, 126419, Note_on_c, 14, 56, 0
18, 126420, Note_on_c, 14, 44, 65
18, 126479, Note_on_c, 14, 44, 0
18, 126480, Note_on_c, 14, 45, 65
18, 126539, Note_on_c, 14, 45, 0
18, 126540, Note_on_c, 14, 57, 65
18, 126599, Note_on_c, 14, 57, 0
18, 126600, Note_on_c, 14, 50, 65
18, 126659, Note_on_c, 14, 50, 0
18, 126660, Note_on_c, 14, 54, 65
18, 126719, Note_on_c, 14, 54, 0
18, 126720, Note_on_c, 14, 47, 65
18, 126779, Note_on_c, 14, 47, 0
18, 126780, Note_on_c, 14, 49, 65
18, 126839, Note_on_c, 14, 49, 0
18, 126840, Note_on_c, 14, 50, 65
18, 126899, Note_on_c, 14, 50, 0
18, 126900, Note_on_c, 14, 38, 65
18, 126959, Note_on_c, 14, 38, 0
18, 126960, Note_on_c, 14, 37, 65
18, 127019, Note_on_c, 14, 37, 0
18, 127020, Note_on_c, 14, 49, 65
18, 127049, Note_on_c, 14, 49, 0
18, 127050, Note_on_c, 14, 47, 65
18, 127079, Note_on_c, 14, 47, 0
18, 127080, Note_on_c, 14, 45, 65
18, 127109, Note_on_c, 14, 45, 0
18, 127110, Note_on_c, 14, 44, 65
18, 127139, Note_on_c, 14, 44, 0
18, 127140, Note_on_c, 14, 45, 65
18, 127169, Note_on_c, 14, 45, 0
18, 127170, Note_on_c, 14, 44, 65
18, 127199, Note_on_c, 14, 44, 0
18, 127200, Note_on_c, 14, 42, 65
18, 127259, Note_on_c, 14, 42, 0
18, 127260, Note_on_c, 14, 54, 65
18, 127319, Note_on_c, 14, 54, 0
18, 127320, Note_on_c, 14, 57, 65
18, 127379, Note_on_c, 14, 57, 0
18, 127380, Note_on_c, 14, 61, 65
18, 127439, Note_on_c, 14, 61, 0
18, 127440, Note_on_c, 14, 57, 65
18, 127499, Note_on_c, 14, 57, 0
18, 127500, Note_on_c, 14, 54, 65
18, 127559, Note_on_c, 14, 54, 0
18, 127560, Note_on_c, 14, 53, 65
18, 127619, Note_on_c, 14, 53, 0
18, 127620, Note_on_c, 14, 49, 65
18, 127679, Note_on_c, 14, 49, 0
18, 127680, Note_on_c, 14, 54, 65
18, 127739, Note_on_c, 14, 54, 0
18, 127740, Note_on_c, 14, 45, 65
18, 127799, Note_on_c, 14, 45, 0
18, 127800, Note_on_c, 14, 47, 65
18, 127859, Note_on_c, 14, 47, 0
18, 127860, Note_on_c, 14, 49, 65
18, 127919, Note_on_c, 14, 49, 0
18, 127920, Note_on_c, 14, 54, 65
18, 127979, Note_on_c, 14, 54, 0
18, 127980, Note_on_c, 14, 52, 65
18, 128009, Note_on_c, 14, 52, 0
18, 128010, Note_on_c, 14, 50, 65
18, 128039, Note_on_c, 14, 50, 0
18, 128040, Note_on_c, 14, 49, 65
18, 128069, Note_on_c, 14, 49, 0
18, 128070, Note_on_c, 14, 47, 65
18, 128099, Note_on_c, 14, 47, 0
18, 128100, Note_on_c, 14, 45, 80
18, 128129, Note_on_c, 14, 45, 0
18, 128130, Note_on_c, 14, 44, 80
18, 128159, Note_on_c, 14, 44, 0
18, 128160, Note_on_c, 14, 42, 80
18, 128279, Note_on_c, 14, 42, 0
18, 128400, Note_on_c, 14, 38, 80
18, 128519, Note_on_c, 14, 38, 0
18, 128700, Note_on_c, 14, 59, 80
18, 128759, Note_on_c, 14, 59, 0
18, 128760, Note_on_c, 14, 61, 80
18, 128819, Note_on_c, 14, 61, 0
18, 128820, Note_on_c, 14, 49, 80
18, 128879, Note_on_c, 14, 49, 0
18, 128880, Note_on_c, 14, 54, 80
18, 128939, Note_on_c, 14, 54, 0
18, 128940, Note_on_c, 14, 56, 80
18, 128999, Note_on_c, 14, 56, 0
18, 129000, Note_on_c, 14, 57, 80
18, 129059, Note_on_c, 14, 57, 0
18, 129060, Note_on_c, 14, 50, 80
18, 129119, Note_on_c, 14, 50, 0
18, 129120, Note_on_c, 14, 55, 80
18, 129239, Note_on_c, 14, 55, 0
18, 129360, Note_on_c, 14, 54, 80
18, 129479, Note_on_c, 14, 54, 0
18, 129660, Note_on_c, 14, 52, 80
18, 129719, Note_on_c, 14, 52, 0
18, 129720, Note_on_c, 14, 54, 80
18, 129779, Note_on_c, 14, 54, 0
18, 129780, Note_on_c, 14, 42, 80
18, 129839, Note_on_c, 14, 42, 0
18, 129840, Note_on_c, 14, 47, 80
18, 129899, Note_on_c, 14, 47, 0
18, 129900, Note_on_c, 14, 49, 80
18, 129959, Note_on_c, 14, 49, 0
18, 129960, Note_on_c, 14, 50, 80
18, 130019, Note_on_c, 14, 50, 0
18, 130020, Note_on_c, 14, 47, 80
18, 130079, Note_on_c, 14, 47, 0
18, 130080, Note_on_c, 14, 53, 80
18, 130109, Note_on_c, 14, 53, 0
18, 130110, Note_on_c, 14, 54, 80
18, 130139, Note_on_c, 14, 54, 0
18, 130140, Note_on_c, 14, 56, 80
18, 130169, Note_on_c, 14, 56, 0
18, 130170, Note_on_c, 14, 54, 80
18, 130199, Note_on_c, 14, 54, 0
18, 130200, Note_on_c, 14, 53, 80
18, 130259, Note_on_c, 14, 53, 0
18, 130260, Note_on_c, 14, 49, 80
18, 130319, Note_on_c, 14, 49, 0
18, 130320, Note_on_c, 14, 54, 80
18, 130349, Note_on_c, 14, 54, 0
18, 130350, Note_on_c, 14, 56, 80
18, 130379, Note_on_c, 14, 56, 0
18, 130380, Note_on_c, 14, 57, 80
18, 130409, Note_on_c, 14, 57, 0
18, 130410, Note_on_c, 14, 56, 80
18, 130439, Note_on_c, 14, 56, 0
18, 130440, Note_on_c, 14, 54, 80
18, 130499, Note_on_c, 14, 54, 0
18, 130500, Note_on_c, 14, 52, 80
18, 130559, Note_on_c, 14, 52, 0
18, 130560, Note_on_c, 14, 50, 80
18, 130589, Note_on_c, 14, 50, 0
18, 130590, Note_on_c, 14, 52, 80
18, 130619, Note_on_c, 14, 52, 0
18, 130620, Note_on_c, 14, 54, 80
18, 130649, Note_on_c, 14, 54, 0
18, 130650, Note_on_c, 14, 52, 80
18, 130679, Note_on_c, 14, 52, 0
18, 130680, Note_on_c, 14, 50, 80
18, 130739, Note_on_c, 14, 50, 0
18, 130740, Note_on_c, 14, 49, 80
18, 130799, Note_on_c, 14, 49, 0
18, 130800, Note_on_c, 14, 50, 80
18, 130859, Note_on_c, 14, 50, 0
18, 130860, Note_on_c, 14, 52, 80
18, 130919, Note_on_c, 14, 52, 0
18, 130920, Note_on_c, 14, 50, 80
18, 130979, Note_on_c, 14, 50, 0
18, 130980, Note_on_c, 14, 49, 80
18, 131039, Note_on_c, 14, 49, 0
18, 131040, Note_on_c, 14, 47, 80
18, 131099, Note_on_c, 14, 47, 0
18, 131100, Note_on_c, 14, 45, 80
18, 131159, Note_on_c, 14, 45, 0
18, 131160, Note_on_c, 14, 47, 80
18, 131219, Note_on_c, 14, 47, 0
18, 131220, Note_on_c, 14, 49, 80
18, 131279, Note_on_c, 14, 49, 0
18, 131280, Note_on_c, 14, 50, 80
18, 131339, Note_on_c, 14, 50, 0
18, 131340, Note_on_c, 14, 47, 80
18, 131399, Note_on_c, 14, 47, 0
18, 131400, Note_on_c, 14, 53, 80
18, 131459, Note_on_c, 14, 53, 0
18, 131460, Note_on_c, 14, 49, 80
18, 131519, Note_on_c, 14, 49, 0
18, 131520, Note_on_c, 14, 54, 80
18, 131579, Note_on_c, 14, 54, 0
18, 131580, Note_on_c, 14, 45, 80
18, 131639, Note_on_c, 14, 45, 0
18, 131640, Note_on_c, 14, 47, 80
18, 131699, Note_on_c, 14, 47, 0
18, 131700, Note_on_c, 14, 49, 80
18, 131759, Note_on_c, 14, 49, 0
18, 131760, Note_on_c, 14, 54, 80
18, 131819, Note_on_c, 14, 54, 0
18, 131820, Note_on_c, 14, 42, 80
18, 131849, Note_on_c, 14, 42, 0
18, 131850, Note_on_c, 14, 44, 80
18, 131879, Note_on_c, 14, 44, 0
18, 131880, Note_on_c, 14, 45, 80
18, 131939, Note_on_c, 14, 45, 0
18, 131940, Note_on_c, 14, 42, 80
18, 131999, Note_on_c, 14, 42, 0
18, 132000, Note_on_c, 14, 47, 65
18, 132119, Note_on_c, 14, 47, 0
18, 132180, Note_on_c, 14, 54, 65
18, 132239, Note_on_c, 14, 54, 0
18, 132240, Note_on_c, 14, 50, 65
18, 132299, Note_on_c, 14, 50, 0
18, 132300, Note_on_c, 14, 47, 65
18, 132359, Note_on_c, 14, 47, 0
18, 132420, Note_on_c, 14, 54, 65
18, 132479, Note_on_c, 14, 54, 0
18, 132480, Note_on_c, 14, 59, 65
18, 132539, Note_on_c, 14, 59, 0
18, 132540, Note_on_c, 14, 62, 65
18, 132599, Note_on_c, 14, 62, 0
18, 132600, Note_on_c, 14, 61, 65
18, 132659, Note_on_c, 14, 61, 0
18, 132660, Note_on_c, 14, 58, 65
18, 132719, Note_on_c, 14, 58, 0
18, 132720, Note_on_c, 14, 59, 65
18, 132779, Note_on_c, 14, 59, 0
18, 132780, Note_on_c, 14, 54, 65
18, 132839, Note_on_c, 14, 54, 0
18, 132840, Note_on_c, 14, 50, 65
18, 132899, Note_on_c, 14, 50, 0
18, 132900, Note_on_c, 14, 47, 65
18, 132959, Note_on_c, 14, 47, 0
18, 132960, Note_on_c, 14, 52, 65
18, 133019, Note_on_c, 14, 52, 0
18, 133020, Note_on_c, 14, 55, 65
18, 133079, Note_on_c, 14, 55, 0
18, 133080, Note_on_c, 14, 54, 65
18, 133139, Note_on_c, 14, 54, 0
18, 133260, Note_on_c, 14, 59, 65
18, 133319, Note_on_c, 14, 59, 0
18, 133320, Note_on_c, 14, 60, 65
18, 133379, Note_on_c, 14, 60, 0
18, 133500, Note_on_c, 14, 59, 65
18, 133559, Note_on_c, 14, 59, 0
18, 133560, Note_on_c, 14, 57, 65
18, 133619, Note_on_c, 14, 57, 0
18, 133620, Note_on_c, 14, 60, 65
18, 133679, Note_on_c, 14, 60, 0
18, 133680, Note_on_c, 14, 59, 65
18, 133739, Note_on_c, 14, 59, 0
18, 133740, Note_on_c, 14, 57, 65
18, 133799, Note_on_c, 14, 57, 0
18, 133800, Note_on_c, 14, 55, 65
18, 133859, Note_on_c, 14, 55, 0
18, 133860, Note_on_c, 14, 54, 65
18, 133919, Note_on_c, 14, 54, 0
18, 133920, Note_on_c, 14, 52, 65
18, 133979, Note_on_c, 14, 52, 0
18, 133980, Note_on_c, 14, 52, 65
18, 134039, Note_on_c, 14, 52, 0
18, 134040, Note_on_c, 14, 52, 65
18, 134099, Note_on_c, 14, 52, 0
18, 134100, Note_on_c, 14, 52, 65
18, 134159, Note_on_c, 14, 52, 0
18, 134160, Note_on_c, 14, 48, 65
18, 134219, Note_on_c, 14, 48, 0
18, 134220, Note_on_c, 14, 48, 65
18, 134279, Note_on_c, 14, 48, 0
18, 134280, Note_on_c, 14, 48, 65
18, 134339, Note_on_c, 14, 48, 0
18, 134340, Note_on_c, 14, 48, 65
18, 134399, Note_on_c, 14, 48, 0
18, 134400, Note_on_c, 14, 54, 65
18, 134459, Note_on_c, 14, 54, 0
18, 134460, Note_on_c, 14, 54, 65
18, 134519, Note_on_c, 14, 54, 0
18, 134520, Note_on_c, 14, 54, 65
18, 134579, Note_on_c, 14, 54, 0
18, 134580, Note_on_c, 14, 55, 65
18, 134639, Note_on_c, 14, 55, 0
18, 134640, Note_on_c, 14, 51, 65
18, 134699, Note_on_c, 14, 51, 0
18, 134700, Note_on_c, 14, 51, 65
18, 134759, Note_on_c, 14, 51, 0
18, 134760, Note_on_c, 14, 51, 65
18, 134819, Note_on_c, 14, 51, 0
18, 134820, Note_on_c, 14, 51, 65
18, 134879, Note_on_c, 14, 51, 0
18, 134880, Note_on_c, 14, 47, 65
18, 134939, Note_on_c, 14, 47, 0
18, 134940, Note_on_c, 14, 47, 65
18, 134999, Note_on_c, 14, 47, 0
18, 135000, Note_on_c, 14, 47, 65
18, 135059, Note_on_c, 14, 47, 0
18, 135060, Note_on_c, 14, 47, 65
18, 135119, Note_on_c, 14, 47, 0
18, 135120, Note_on_c, 14, 52, 65
18, 135179, Note_on_c, 14, 52, 0
18, 135180, Note_on_c, 14, 57, 65
18, 135209, Note_on_c, 14, 57, 0
18, 135210, Note_on_c, 14, 59, 65
18, 135239, Note_on_c, 14, 59, 0
18, 135240, Note_on_c, 14, 60, 65
18, 135299, Note_on_c, 14, 60, 0
18, 135420, Note_on_c, 14, 55, 65
18, 135479, Note_on_c, 14, 55, 0
18, 135480, Note_on_c, 14, 57, 65
18, 135539, Note_on_c, 14, 57, 0
18, 135540, Note_on_c, 14, 59, 65
18, 135599, Note_on_c, 14, 59, 0
18, 135600, Note_on_c, 14, 52, 65
18, 135659, Note_on_c, 14, 52, 0
18, 135660, Note_on_c, 14, 54, 80
18, 135719, Note_on_c, 14, 54, 0
18, 135720, Note_on_c, 14, 55, 80
18, 135779, Note_on_c, 14, 55, 0
18, 135780, Note_on_c, 14, 52, 80
18, 135839, Note_on_c, 14, 52, 0
18, 135840, Note_on_c, 14, 57, 80
18, 135899, Note_on_c, 14, 57, 0
18, 135900, Note_on_c, 14, 54, 80
18, 135959, Note_on_c, 14, 54, 0
18, 135960, Note_on_c, 14, 63, 80
18, 136019, Note_on_c, 14, 63, 0
18, 136020, Note_on_c, 14, 59, 80
18, 136079, Note_on_c, 14, 59, 0
18, 136080, Note_on_c, 14, 64, 80
18, 136139, Note_on_c, 14, 64, 0
18, 136140, Note_on_c, 14, 62, 80
18, 136199, Note_on_c, 14, 62, 0
18, 136200, Note_on_c, 14, 60, 80
18, 136259, Note_on_c, 14, 60, 0
18, 136260, Note_on_c, 14, 59, 80
18, 136319, Note_on_c, 14, 59, 0
18, 136320, Note_on_c, 14, 57, 80
18, 136379, Note_on_c, 14, 57, 0
18, 136380, Note_on_c, 14, 59, 80
18, 136439, Note_on_c, 14, 59, 0
18, 136440, Note_on_c, 14, 60, 80
18, 136499, Note_on_c, 14, 60, 0
18, 136500, Note_on_c, 14, 48, 80
18, 136559, Note_on_c, 14, 48, 0
18, 136560, Note_on_c, 14, 47, 80
18, 136619, Note_on_c, 14, 47, 0
18, 136620, Note_on_c, 14, 59, 80
18, 136649, Note_on_c, 14, 59, 0
18, 136650, Note_on_c, 14, 57, 80
18, 136679, Note_on_c, 14, 57, 0
18, 136680, Note_on_c, 14, 55, 80
18, 136739, Note_on_c, 14, 55, 0
18, 136740, Note_on_c, 14, 54, 80
18, 136799, Note_on_c, 14, 54, 0
18, 136800, Note_on_c, 14, 55, 80
18, 136859, Note_on_c, 14, 55, 0
18, 136860, Note_on_c, 14, 52, 80
18, 136919, Note_on_c, 14, 52, 0
18, 136920, Note_on_c, 14, 54, 80
18, 136979, Note_on_c, 14, 54, 0
18, 136980, Note_on_c, 14, 57, 80
18, 137039, Note_on_c, 14, 57, 0
18, 137040, Note_on_c, 14, 55, 80
18, 137099, Note_on_c, 14, 55, 0
18, 137100, Note_on_c, 14, 52, 80
18, 137159, Note_on_c, 14, 52, 0
18, 137160, Note_on_c, 14, 51, 80
18, 137219, Note_on_c, 14, 51, 0
18, 137220, Note_on_c, 14, 47, 80
18, 137279, Note_on_c, 14, 47, 0
18, 137280, Note_on_c, 14, 52, 80
18, 137339, Note_on_c, 14, 52, 0
18, 137340, Note_on_c, 14, 43, 80
18, 137399, Note_on_c, 14, 43, 0
18, 137400, Note_on_c, 14, 45, 80
18, 137459, Note_on_c, 14, 45, 0
18, 137460, Note_on_c, 14, 47, 80
18, 137519, Note_on_c, 14, 47, 0
18, 137520, Note_on_c, 14, 40, 80
18, 137579, Note_on_c, 14, 40, 0
18, 137580, Note_on_c, 14, 59, 65
18, 137609, Note_on_c, 14, 59, 0
18, 137610, Note_on_c, 14, 57, 65
18, 137639, Note_on_c, 14, 57, 0
18, 137640, Note_on_c, 14, 55, 65
18, 137669, Note_on_c, 14, 55, 0
18, 137670, Note_on_c, 14, 54, 65
18, 137699, Note_on_c, 14, 54, 0
18, 137700, Note_on_c, 14, 55, 65
18, 137729, Note_on_c, 14, 55, 0
18, 137730, Note_on_c, 14, 54, 65
18, 137759, Note_on_c, 14, 54, 0
18, 137760, Note_on_c, 14, 52, 65
18, 137819, Note_on_c, 14, 52, 0
18, 137820, Note_on_c, 14, 52, 65
18, 137879, Note_on_c, 14, 52, 0
18, 137880, Note_on_c, 14, 52, 65
18, 137939, Note_on_c, 14, 52, 0
18, 137940, Note_on_c, 14, 52, 65
18, 137999, Note_on_c, 14, 52, 0
18, 138000, Note_on_c, 14, 57, 65
18, 138059, Note_on_c, 14, 57, 0
18, 138060, Note_on_c, 14, 57, 65
18, 138119, Note_on_c, 14, 57, 0
18, 138120, Note_on_c, 14, 57, 65
18, 138179, Note_on_c, 14, 57, 0
18, 138180, Note_on_c, 14, 57, 65
18, 138239, Note_on_c, 14, 57, 0
18, 138240, Note_on_c, 14, 50, 65
18, 138299, Note_on_c, 14, 50, 0
18, 138300, Note_on_c, 14, 50, 65
18, 138359, Note_on_c, 14, 50, 0
18, 138360, Note_on_c, 14, 50, 65
18, 138419, Note_on_c, 14, 50, 0
18, 138420, Note_on_c, 14, 50, 65
18, 138479, Note_on_c, 14, 50, 0
18, 138480, Note_on_c, 14, 55, 65
18, 138539, Note_on_c, 14, 55, 0
18, 138540, Note_on_c, 14, 55, 65
18, 138599, Note_on_c, 14, 55, 0
18, 138600, Note_on_c, 14, 55, 65
18, 138659, Note_on_c, 14, 55, 0
18, 138660, Note_on_c, 14, 55, 65
18, 138719, Note_on_c, 14, 55, 0
18, 138720, Note_on_c, 14, 49, 65
18, 138779, Note_on_c, 14, 49, 0
18, 138780, Note_on_c, 14, 49, 65
18, 138839, Note_on_c, 14, 49, 0
18, 138840, Note_on_c, 14, 49, 65
18, 138899, Note_on_c, 14, 49, 0
18, 138900, Note_on_c, 14, 49, 65
18, 138959, Note_on_c, 14, 49, 0
18, 138960, Note_on_c, 14, 54, 65
18, 139019, Note_on_c, 14, 54, 0
18, 139020, Note_on_c, 14, 54, 65
18, 139079, Note_on_c, 14, 54, 0
18, 139080, Note_on_c, 14, 54, 65
18, 139139, Note_on_c, 14, 54, 0
18, 139140, Note_on_c, 14, 52, 65
18, 139199, Note_on_c, 14, 52, 0
18, 139200, Note_on_c, 14, 50, 65
18, 139259, Note_on_c, 14, 50, 0
18, 139260, Note_on_c, 14, 52, 65
18, 139319, Note_on_c, 14, 52, 0
18, 139320, Note_on_c, 14, 54, 65
18, 139379, Note_on_c, 14, 54, 0
18, 139380, Note_on_c, 14, 42, 65
18, 139439, Note_on_c, 14, 42, 0
18, 139440, Note_on_c, 14, 47, 65
18, 139499, Note_on_c, 14, 47, 0
18, 139500, Note_on_c, 14, 49, 65
18, 139559, Note_on_c, 14, 49, 0
18, 139560, Note_on_c, 14, 50, 65
18, 139619, Note_on_c, 14, 50, 0
18, 139620, Note_on_c, 14, 47, 65
18, 139679, Note_on_c, 14, 47, 0
18, 139680, Note_on_c, 14, 52, 65
18, 139739, Note_on_c, 14, 52, 0
18, 139740, Note_on_c, 14, 55, 65
18, 139769, Note_on_c, 14, 55, 0
18, 139770, Note_on_c, 14, 54, 65
18, 139799, Note_on_c, 14, 54, 0
18, 139800, Note_on_c, 14, 52, 65
18, 139829, Note_on_c, 14, 52, 0
18, 139830, Note_on_c, 14, 50, 65
18, 139859, Note_on_c, 14, 50, 0
18, 139860, Note_on_c, 14, 52, 65
18, 139889, Note_on_c, 14, 52, 0
18, 139890, Note_on_c, 14, 50, 65
18, 139919, Note_on_c, 14, 50, 0
18, 139920, Note_on_c, 14, 49, 65
18, 139949, Note_on_c, 14, 49, 0
18, 139950, Note_on_c, 14, 47, 65
18, 139979, Note_on_c, 14, 47, 0
18, 139980, Note_on_c, 14, 49, 65
18, 140009, Note_on_c, 14, 49, 0
18, 140010, Note_on_c, 14, 47, 65
18, 140039, Note_on_c, 14, 47, 0
18, 140040, Note_on_c, 14, 49, 65
18, 140099, Note_on_c, 14, 49, 0
18, 140100, Note_on_c, 14, 45, 65
18, 140159, Note_on_c, 14, 45, 0
18, 140160, Note_on_c, 14, 50, 65
18, 140219, Note_on_c, 14, 50, 0
18, 140220, Note_on_c, 14, 47, 65
18, 140279, Note_on_c, 14, 47, 0
18, 140280, Note_on_c, 14, 43, 65
18, 140339, Note_on_c, 14, 43, 0
18, 140340, Note_on_c, 14, 45, 65
18, 140399, Note_on_c, 14, 45, 0
18, 140400, Note_on_c, 14, 38, 65
18, 140459, Note_on_c, 14, 38, 0
18, 140460, Note_on_c, 14, 50, 65
18, 140519, Note_on_c, 14, 50, 0
18, 140550, Note_on_c, 14, 50, 65
18, 140579, Note_on_c, 14, 50, 0
18, 140580, Note_on_c, 14, 52, 65
18, 140609, Note_on_c, 14, 52, 0
18, 140610, Note_on_c, 14, 54, 65
18, 140639, Note_on_c, 14, 54, 0
18, 140640, Note_on_c, 14, 55, 65
18, 140699, Note_on_c, 14, 55, 0
18, 140700, Note_on_c, 14, 43, 65
18, 140759, Note_on_c, 14, 43, 0
18, 140790, Note_on_c, 14, 52, 65
18, 140819, Note_on_c, 14, 52, 0
18, 140820, Note_on_c, 14, 54, 65
18, 140849, Note_on_c, 14, 54, 0
18, 140850, Note_on_c, 14, 55, 65
18, 140879, Note_on_c, 14, 55, 0
18, 140880, Note_on_c, 14, 57, 65
18, 140909, Note_on_c, 14, 57, 0
18, 140910, Note_on_c, 14, 55, 65
18, 140939, Note_on_c, 14, 55, 0
18, 140940, Note_on_c, 14, 57, 65
18, 140969, Note_on_c, 14, 57, 0
18, 140970, Note_on_c, 14, 54, 65
18, 140999, Note_on_c, 14, 54, 0
18, 141000, Note_on_c, 14, 59, 65
18, 141059, Note_on_c, 14, 59, 0
18, 141060, Note_on_c, 14, 55, 65
18, 141119, Note_on_c, 14, 55, 0
18, 141120, Note_on_c, 14, 57, 65
18, 141239, Note_on_c, 14, 57, 0
18, 141240, Note_on_c, 14, 45, 65
18, 141359, Note_on_c, 14, 45, 0
18, 141360, Note_on_c, 14, 38, 65
18, 141479, Note_on_c, 14, 38, 0
18, 141660, Note_on_c, 14, 47, 85
18, 141719, Note_on_c, 14, 47, 0
18, 141720, Note_on_c, 14, 54, 85
18, 141749, Note_on_c, 14, 54, 0
18, 141750, Note_on_c, 14, 52, 85
18, 141779, Note_on_c, 14, 52, 0
18, 141780, Note_on_c, 14, 54, 85
18, 141809, Note_on_c, 14, 54, 0
18, 141810, Note_on_c, 14, 52, 85
18, 141839, Note_on_c, 14, 52, 0
18, 141840, Note_on_c, 14, 50, 85
18, 141899, Note_on_c, 14, 50, 0
18, 141900, Note_on_c, 14, 47, 85
18, 141959, Note_on_c, 14, 47, 0
18, 141960, Note_on_c, 14, 54, 85
18, 141989, Note_on_c, 14, 54, 0
18, 141990, Note_on_c, 14, 52, 85
18, 142019, Note_on_c, 14, 52, 0
18, 142020, Note_on_c, 14, 54, 85
18, 142049, Note_on_c, 14, 54, 0
18, 142050, Note_on_c, 14, 52, 85
18, 142079, Note_on_c, 14, 52, 0
18, 142080, Note_on_c, 14, 50, 85
18, 142139, Note_on_c, 14, 50, 0
18, 142140, Note_on_c, 14, 52, 85
18, 142199, Note_on_c, 14, 52, 0
18, 142200, Note_on_c, 14, 54, 85
18, 142259, Note_on_c, 14, 54, 0
18, 142260, Note_on_c, 14, 42, 85
18, 142319, Note_on_c, 14, 42, 0
18, 142320, Note_on_c, 14, 47, 85
18, 142379, Note_on_c, 14, 47, 0
18, 142380, Note_on_c, 14, 59, 85
18, 142409, Note_on_c, 14, 59, 0
18, 142410, Note_on_c, 14, 57, 85
18, 142439, Note_on_c, 14, 57, 0
18, 142440, Note_on_c, 14, 55, 85
18, 142469, Note_on_c, 14, 55, 0
18, 142470, Note_on_c, 14, 54, 85
18, 142499, Note_on_c, 14, 54, 0
18, 142500, Note_on_c, 14, 55, 85
18, 142529, Note_on_c, 14, 55, 0
18, 142530, Note_on_c, 14, 54, 85
18, 142559, Note_on_c, 14, 54, 0
18, 142560, Note_on_c, 14, 52, 85
18, 142679, Note_on_c, 14, 52, 0
18, 142800, Note_on_c, 14, 48, 85
18, 142919, Note_on_c, 14, 48, 0
18, 143100, Note_on_c, 14, 45, 85
18, 143159, Note_on_c, 14, 45, 0
18, 143160, Note_on_c, 14, 47, 85
18, 143219, Note_on_c, 14, 47, 0
18, 143220, Note_on_c, 14, 59, 85
18, 143279, Note_on_c, 14, 59, 0
18, 143280, Note_on_c, 14, 52, 85
18, 143339, Note_on_c, 14, 52, 0
18, 143340, Note_on_c, 14, 54, 85
18, 143399, Note_on_c, 14, 54, 0
18, 143400, Note_on_c, 14, 55, 85
18, 143459, Note_on_c, 14, 55, 0
18, 143460, Note_on_c, 14, 52, 85
18, 143519, Note_on_c, 14, 52, 0
18, 143520, Note_on_c, 14, 58, 85
18, 143579, Note_on_c, 14, 58, 0
18, 143580, Note_on_c, 14, 59, 85
18, 143639, Note_on_c, 14, 59, 0
18, 143640, Note_on_c, 14, 61, 85
18, 143699, Note_on_c, 14, 61, 0
18, 143700, Note_on_c, 14, 54, 85
18, 143759, Note_on_c, 14, 54, 0
18, 143760, Note_on_c, 14, 59, 85
18, 143819, Note_on_c, 14, 59, 0
18, 143820, Note_on_c, 14, 54, 85
18, 143879, Note_on_c, 14, 54, 0
18, 143880, Note_on_c, 14, 52, 85
18, 143909, Note_on_c, 14, 52, 0
18, 143910, Note_on_c, 14, 50, 85
18, 143939, Note_on_c, 14, 50, 0
18, 143940, Note_on_c, 14, 49, 85
18, 143969, Note_on_c, 14, 49, 0
18, 143970, Note_on_c, 14, 47, 85
18, 143999, Note_on_c, 14, 47, 0
18, 144000, Note_on_c, 14, 52, 85
18, 144059, Note_on_c, 14, 52, 0
18, 144060, Note_on_c, 14, 54, 85
18, 144119, Note_on_c, 14, 54, 0
18, 144120, Note_on_c, 14, 55, 85
18, 144179, Note_on_c, 14, 55, 0
18, 144180, Note_on_c, 14, 43, 85
18, 144239, Note_on_c, 14, 43, 0
18, 144240, Note_on_c, 14, 42, 85
18, 144299, Note_on_c, 14, 42, 0
18, 144300, Note_on_c, 14, 54, 85
18, 144329, Note_on_c, 14, 54, 0
18, 144330, Note_on_c, 14, 52, 85
18, 144359, Note_on_c, 14, 52, 0
18, 144360, Note_on_c, 14, 50, 85
18, 144419, Note_on_c, 14, 50, 0
18, 144420, Note_on_c, 14, 49, 85
18, 144479, Note_on_c, 14, 49, 0
18, 144480, Note_on_c, 14, 47, 85
18, 144509, Note_on_c, 14, 47, 0
18, 144510, Note_on_c, 14, 49, 85
18, 144539, Note_on_c, 14, 49, 0
18, 144540, Note_on_c, 14, 50, 85
18, 144569, Note_on_c, 14, 50, 0
18, 144570, Note_on_c, 14, 49, 85
18, 144599, Note_on_c, 14, 49, 0
18, 144600, Note_on_c, 14, 47, 85
18, 144659, Note_on_c, 14, 47, 0
18, 144660, Note_on_c, 14, 46, 85
18, 144719, Note_on_c, 14, 46, 0
18, 144720, Note_on_c, 14, 47, 85
18, 144779, Note_on_c, 14, 47, 0
18, 144780, Note_on_c, 14, 45, 85
18, 144809, Note_on_c, 14, 45, 0
18, 144810, Note_on_c, 14, 43, 85
18, 144839, Note_on_c, 14, 43, 0
18, 144840, Note_on_c, 14, 42, 85
18, 144899, Note_on_c, 14, 42, 0
18, 144900, Note_on_c, 14, 40, 85
18, 144959, Note_on_c, 14, 40, 0
18, 144960, Note_on_c, 14, 38, 85
18, 145019, Note_on_c, 14, 38, 0
18, 145020, Note_on_c, 14, 43, 85
18, 145079, Note_on_c, 14, 43, 0
18, 145080, Note_on_c, 14, 40, 85
18, 145139, Note_on_c, 14, 40, 0
18, 145140, Note_on_c, 14, 42, 85
18, 145199, Note_on_c, 14, 42, 0
18, 145200, Note_on_c, 14, 47, 85
18, 145259, Note_on_c, 14, 47, 0
18, 145260, Note_on_c, 14, 59, 85
18, 145319, Note_on_c, 14, 59, 0
18, 145320, Note_on_c, 14, 54, 85
18, 145349, Note_on_c, 14, 54, 0
18, 145350, Note_on_c, 14, 52, 85
18, 145379, Note_on_c, 14, 52, 0
18, 145380, Note_on_c, 14, 50, 65
18, 145409, Note_on_c, 14, 50, 0
18, 145410, Note_on_c, 14, 49, 65
18, 145439, Note_on_c, 14, 49, 0
18, 145440, Note_on_c, 14, 47, 65
18, 145559, Note_on_c, 14, 47, 0
18, 145680, Note_on_c, 14, 43, 65
18, 145799, Note_on_c, 14, 43, 0
18, 145980, Note_on_c, 14, 52, 65
18, 146039, Note_on_c, 14, 52, 0
18, 146040, Note_on_c, 14, 54, 65
18, 146099, Note_on_c, 14, 54, 0
18, 146100, Note_on_c, 14, 42, 65
18, 146159, Note_on_c, 14, 42, 0
18, 146160, Note_on_c, 14, 47, 65
18, 146219, Note_on_c, 14, 47, 0
18, 146220, Note_on_c, 14, 49, 65
18, 146279, Note_on_c, 14, 49, 0
18, 146280, Note_on_c, 14, 50, 65
18, 146309, Note_on_c, 14, 50, 0
18, 146310, Note_on_c, 14, 49, 65
18, 146339, Note_on_c, 14, 49, 0
18, 146340, Note_on_c, 14, 50, 65
18, 146369, Note_on_c, 14, 50, 0
18, 146370, Note_on_c, 14, 49, 65
18, 146399, Note_on_c, 14, 49, 0
18, 146400, Note_on_c, 14, 47, 65
18, 146519, Note_on_c, 14, 47, 0
18, 146640, Note_on_c, 14, 55, 65
18, 146759, Note_on_c, 14, 55, 0
18, 146940, Note_on_c, 14, 52, 65
18, 146999, Note_on_c, 14, 52, 0
18, 147000, Note_on_c, 14, 54, 65
18, 147059, Note_on_c, 14, 54, 0
18, 147060, Note_on_c, 14, 42, 65
18, 147119, Note_on_c, 14, 42, 0
18, 147120, Note_on_c, 14, 47, 65
18, 147179, Note_on_c, 14, 47, 0
18, 147180, Note_on_c, 14, 49, 65
18, 147239, Note_on_c, 14, 49, 0
18, 147240, Note_on_c, 14, 50, 65
18, 147299, Note_on_c, 14, 50, 0
18, 147300, Note_on_c, 14, 47, 65
18, 147359, Note_on_c, 14, 47, 0
18, 147360, Note_on_c, 14, 53, 65
18, 147419, Note_on_c, 14, 53, 0
18, 147420, Note_on_c, 14, 54, 65
18, 147479, Note_on_c, 14, 54, 0
18, 147480, Note_on_c, 14, 56, 65
18, 147539, Note_on_c, 14, 56, 0
18, 147540, Note_on_c, 14, 49, 65
18, 147599, Note_on_c, 14, 49, 0
18, 147600, Note_on_c, 14, 54, 65
18, 147659, Note_on_c, 14, 54, 0
18, 147660, Note_on_c, 14, 52, 65
18, 147719, Note_on_c, 14, 52, 0
18, 147720, Note_on_c, 14, 50, 65
18, 147779, Note_on_c, 14, 50, 0
18, 147780, Note_on_c, 14, 49, 65
18, 147839, Note_on_c, 14, 49, 0
18, 147840, Note_on_c, 14, 47, 65
18, 147899, Note_on_c, 14, 47, 0
18, 147900, Note_on_c, 14, 49, 65
18, 147959, Note_on_c, 14, 49, 0
18, 147960, Note_on_c, 14, 50, 65
18, 148019, Note_on_c, 14, 50, 0
18, 148020, Note_on_c, 14, 38, 65
18, 148079, Note_on_c, 14, 38, 0
18, 148080, Note_on_c, 14, 37, 65
18, 148139, Note_on_c, 14, 37, 0
18, 148140, Note_on_c, 14, 49, 65
18, 148169, Note_on_c, 14, 49, 0
18, 148170, Note_on_c, 14, 47, 65
18, 148199, Note_on_c, 14, 47, 0
18, 148200, Note_on_c, 14, 45, 65
18, 148229, Note_on_c, 14, 45, 0
18, 148230, Note_on_c, 14, 44, 65
18, 148259, Note_on_c, 14, 44, 0
18, 148260, Note_on_c, 14, 45, 65
18, 148289, Note_on_c, 14, 45, 0
18, 148290, Note_on_c, 14, 44, 65
18, 148319, Note_on_c, 14, 44, 0
18, 148320, Note_on_c, 14, 42, 65
18, 148379, Note_on_c, 14, 42, 0
18, 148380, Note_on_c, 14, 54, 65
18, 148409, Note_on_c, 14, 54, 0
18, 148410, Note_on_c, 14, 52, 65
18, 148439, Note_on_c, 14, 52, 0
18, 148440, Note_on_c, 14, 50, 65
18, 148469, Note_on_c, 14, 50, 0
18, 148470, Note_on_c, 14, 49, 65
18, 148499, Note_on_c, 14, 49, 0
18, 148500, Note_on_c, 14, 50, 65
18, 148529, Note_on_c, 14, 50, 0
18, 148530, Note_on_c, 14, 49, 65
18, 148559, Note_on_c, 14, 49, 0
18, 148560, Note_on_c, 14, 47, 65
18, 148619, Note_on_c, 14, 47, 0
18, 148620, Note_on_c, 14, 59, 65
18, 148649, Note_on_c, 14, 59, 0
18, 148650, Note_on_c, 14, 57, 65
18, 148679, Note_on_c, 14, 57, 0
18, 148680, Note_on_c, 14, 55, 65
18, 148709, Note_on_c, 14, 55, 0
18, 148710, Note_on_c, 14, 54, 65
18, 148739, Note_on_c, 14, 54, 0
18, 148740, Note_on_c, 14, 55, 65
18, 148769, Note_on_c, 14, 55, 0
18, 148770, Note_on_c, 14, 54, 65
18, 148799, Note_on_c, 14, 54, 0
18, 148800, Note_on_c, 14, 52, 65
18, 148829, Note_on_c, 14, 52, 0
18, 148830, Note_on_c, 14, 54, 65
18, 148859, Note_on_c, 14, 54, 0
18, 148860, Note_on_c, 14, 52, 65
18, 148889, Note_on_c, 14, 52, 0
18, 148890, Note_on_c, 14, 50, 65
18, 148919, Note_on_c, 14, 50, 0
18, 148920, Note_on_c, 14, 49, 65
18, 148949, Note_on_c, 14, 49, 0
18, 148950, Note_on_c, 14, 47, 65
18, 148979, Note_on_c, 14, 47, 0
18, 148980, Note_on_c, 14, 49, 65
18, 149009, Note_on_c, 14, 49, 0
18, 149010, Note_on_c, 14, 47, 65
18, 149039, Note_on_c, 14, 47, 0
18, 149040, Note_on_c, 14, 46, 65
18, 149159, Note_on_c, 14, 46, 0
18, 149220, Note_on_c, 14, 52, 65
18, 149279, Note_on_c, 14, 52, 0
18, 149280, Note_on_c, 14, 50, 65
18, 149339, Note_on_c, 14, 50, 0
18, 149340, Note_on_c, 14, 47, 65
18, 149399, Note_on_c, 14, 47, 0
18, 149400, Note_on_c, 14, 54, 65
18, 149429, Note_on_c, 14, 54, 0
18, 149430, Note_on_c, 14, 52, 65
18, 149459, Note_on_c, 14, 52, 0
18, 149460, Note_on_c, 14, 54, 65
18, 149489, Note_on_c, 14, 54, 0
18, 149490, Note_on_c, 14, 52, 65
18, 149519, Note_on_c, 14, 52, 0
18, 149520, Note_on_c, 14, 50, 65
18, 149579, Note_on_c, 14, 50, 0
18, 149580, Note_on_c, 14, 47, 65
18, 149639, Note_on_c, 14, 47, 0
18, 149640, Note_on_c, 14, 54, 65
18, 149669, Note_on_c, 14, 54, 0
18, 149670, Note_on_c, 14, 52, 65
18, 149699, Note_on_c, 14, 52, 0
18, 149700, Note_on_c, 14, 54, 65
18, 149729, Note_on_c, 14, 54, 0
18, 149730, Note_on_c, 14, 52, 65
18, 149759, Note_on_c, 14, 52, 0
18, 149760, Note_on_c, 14, 50, 65
18, 149819, Note_on_c, 14, 50, 0
18, 149820, Note_on_c, 14, 52, 65
18, 149879, Note_on_c, 14, 52, 0
18, 149880, Note_on_c, 14, 54, 65
18, 149939, Note_on_c, 14, 54, 0
18, 149940, Note_on_c, 14, 42, 65
18, 149999, Note_on_c, 14, 42, 0
18, 150000, Note_on_c, 14, 47, 65
18, 150059, Note_on_c, 14, 47, 0
18, 150060, Note_on_c, 14, 54, 65
18, 150119, Note_on_c, 14, 54, 0
18, 150120, Note_on_c, 14, 55, 65
18, 150179, Note_on_c, 14, 55, 0
18, 150180, Note_on_c, 14, 59, 65
18, 150239, Note_on_c, 14, 59, 0
18, 150240, Note_on_c, 14, 48, 65
18, 150359, Note_on_c, 14, 48, 0
18, 150480, Note_on_c, 14, 47, 65
18, 150599, Note_on_c, 14, 47, 0
18, 150660, Note_on_c, 14, 45, 65
18, 150719, Note_on_c, 14, 45, 0
18, 150720, Note_on_c, 14, 43, 65
18, 150779, Note_on_c, 14, 43, 0
18, 150780, Note_on_c, 14, 45, 65
18, 150839, Note_on_c, 14, 45, 0
18, 150840, Note_on_c, 14, 47, 65
18, 150899, Note_on_c, 14, 47, 0
18, 150900, Note_on_c, 14, 47, 65
18, 150959, Note_on_c, 14, 47, 0
18, 150960, Note_on_c, 14, 40, 65
18, 150989, Note_on_c, 14, 40, 0
18, 150990, Note_on_c, 14, 39, 65
18, 151019, Note_on_c, 14, 39, 0
18, 151020, Note_on_c, 14, 40, 65
18, 151049, Note_on_c, 14, 40, 0
18, 151050, Note_on_c, 14, 42, 65
18, 151079, Note_on_c, 14, 42, 0
18, 151080, Note_on_c, 14, 43, 65
18, 151139, Note_on_c, 14, 43, 0
18, 151140, Note_on_c, 14, 40, 65
18, 151199, Note_on_c, 14, 40, 0
18, 151200, Note_on_c, 14, 46, 65
18, 151259, Note_on_c, 14, 46, 0
18, 151260, Note_on_c, 14, 47, 65
18, 151319, Note_on_c, 14, 47, 0
18, 151320, Note_on_c, 14, 49, 65
18, 151379, Note_on_c, 14, 49, 0
18, 151380, Note_on_c, 14, 61, 65
18, 151439, Note_on_c, 14, 61, 0
18, 151440, Note_on_c, 14, 62, 65
18, 151499, Note_on_c, 14, 62, 0
18, 151500, Note_on_c, 14, 50, 65
18, 151559, Note_on_c, 14, 50, 0
18, 151560, Note_on_c, 14, 49, 65
18, 151619, Note_on_c, 14, 49, 0
18, 151620, Note_on_c, 14, 47, 65
18, 151679, Note_on_c, 14, 47, 0
18, 151680, Note_on_c, 14, 52, 65
18, 151739, Note_on_c, 14, 52, 0
18, 151740, Note_on_c, 14, 54, 65
18, 151799, Note_on_c, 14, 54, 0
18, 151800, Note_on_c, 14, 55, 65
18, 151859, Note_on_c, 14, 55, 0
18, 151860, Note_on_c, 14, 43, 65
18, 151919, Note_on_c, 14, 43, 0
18, 151920, Note_on_c, 14, 42, 65
18, 151979, Note_on_c, 14, 42, 0
18, 151980, Note_on_c, 14, 54, 65
18, 152009, Note_on_c, 14, 54, 0
18, 152010, Note_on_c, 14, 52, 65
18, 152039, Note_on_c, 14, 52, 0
18, 152040, Note_on_c, 14, 50, 65
18, 152069, Note_on_c, 14, 50, 0
18, 152070, Note_on_c, 14, 49, 65
18, 152099, Note_on_c, 14, 49, 0
18, 152100, Note_on_c, 14, 50, 65
18, 152129, Note_on_c, 14, 50, 0
18, 152130, Note_on_c, 14, 49, 65
18, 152159, Note_on_c, 14, 49, 0
18, 152160, Note_on_c, 14, 50, 65
18, 152219, Note_on_c, 14, 50, 0
18, 152220, Note_on_c, 14, 47, 65
18, 152279, Note_on_c, 14, 47, 0
18, 152280, Note_on_c, 14, 50, 65
18, 152309, Note_on_c, 14, 50, 0
18, 152310, Note_on_c, 14, 52, 65
18, 152339, Note_on_c, 14, 52, 0
18, 152340, Note_on_c, 14, 54, 65
18, 152369, Note_on_c, 14, 54, 0
18, 152370, Note_on_c, 14, 52, 65
18, 152399, Note_on_c, 14, 52, 0
18, 152400, Note_on_c, 14, 50, 65
18, 152459, Note_on_c, 14, 50, 0
18, 152460, Note_on_c, 14, 47, 65
18, 152519, Note_on_c, 14, 47, 0
18, 152520, Note_on_c, 14, 46, 65
18, 152579, Note_on_c, 14, 46, 0
18, 152580, Note_on_c, 14, 42, 65
18, 152639, Note_on_c, 14, 42, 0
18, 152700, Note_on_c, 14, 47, 65
18, 152759, Note_on_c, 14, 47, 0
18, 152760, Note_on_c, 14, 50, 65
18, 152789, Note_on_c, 14, 50, 0
18, 152790, Note_on_c, 14, 52, 65
18, 152819, Note_on_c, 14, 52, 0
18, 152820, Note_on_c, 14, 54, 65
18, 152849, Note_on_c, 14, 54, 0
18, 152850, Note_on_c, 14, 52, 65
18, 152879, Note_on_c, 14, 52, 0
18, 152880, Note_on_c, 14, 50, 65
18, 152939, Note_on_c, 14, 50, 0
18, 152940, Note_on_c, 14, 47, 65
18, 152999, Note_on_c, 14, 47, 0
18, 153000, Note_on_c, 14, 46, 65
18, 153059, Note_on_c, 14, 46, 0
18, 153060, Note_on_c, 14, 42, 65
18, 153119, Note_on_c, 14, 42, 0
18, 153120, Note_on_c, 14, 47, 65
18, 153179, Note_on_c, 14, 47, 0
18, 153300, Note_on_c, 14, 49, 65
18, 153359, Note_on_c, 14, 49, 0
18, 153360, Note_on_c, 14, 50, 65
18, 153419, Note_on_c, 14, 50, 0
18, 153540, Note_on_c, 14, 52, 65
18, 153599, Note_on_c, 14, 52, 0
18, 153600, Note_on_c, 14, 54, 65
18, 153659, Note_on_c, 14, 54, 0
18, 153780, Note_on_c, 14, 42, 65
18, 153839, Note_on_c, 14, 42, 0
18, 153840, Note_on_c, 14, 47, 65
18, 153899, Note_on_c, 14, 47, 0
18, 153900, Note_on_c, 14, 47, 65
18, 153959, Note_on_c, 14, 47, 0
18, 153960, Note_on_c, 14, 45, 65
18, 154019, Note_on_c, 14, 45, 0
18, 154020, Note_on_c, 14, 45, 65
18, 154079, Note_on_c, 14, 45, 0
18, 154080, Note_on_c, 14, 44, 65
18, 154139, Note_on_c, 14, 44, 0
18, 154140, Note_on_c, 14, 44, 65
18, 154199, Note_on_c, 14, 44, 0
18, 154200, Note_on_c, 14, 42, 65
18, 154259, Note_on_c, 14, 42, 0
18, 154260, Note_on_c, 14, 42, 65
18, 154319, Note_on_c, 14, 42, 0
18, 154320, Note_on_c, 14, 41, 65
18, 154439, Note_on_c, 14, 41, 0
18, 154500, Note_on_c, 14, 53, 65
18, 154559, Note_on_c, 14, 53, 0
18, 154560, Note_on_c, 14, 54, 65
18, 154679, Note_on_c, 14, 54, 0
18, 154680, Note_on_c, 14, 42, 65
18, 154799, Note_on_c, 14, 42, 0
18, 154800, Note_on_c, 14, 47, 65
18, 154919, Note_on_c, 14, 47, 0
18, 154980, Note_on_c, 14, 54, 90
18, 155039, Note_on_c, 14, 54, 0
18, 155040, Note_on_c, 14, 59, 90
18, 155099, Note_on_c, 14, 59, 0
18, 155100, Note_on_c, 14, 62, 90
18, 155159, Note_on_c, 14, 62, 0
18, 155160, Note_on_c, 14, 61, 90
18, 155219, Note_on_c, 14, 61, 0
18, 155220, Note_on_c, 14, 58, 90
18, 155279, Note_on_c, 14, 58, 0
18, 155280, Note_on_c, 14, 59, 90
18, 155339, Note_on_c, 14, 59, 0
18, 155340, Note_on_c, 14, 62, 90
18, 155399, Note_on_c, 14, 62, 0
18, 155400, Note_on_c, 14, 61, 90
18, 155459, Note_on_c, 14, 61, 0
18, 155460, Note_on_c, 14, 58, 90
18, 155519, Note_on_c, 14, 58, 0
18, 155520, Note_on_c, 14, 59, 90
18, 155579, Note_on_c, 14, 59, 0
18, 155580, Note_on_c, 14, 57, 90
18, 155609, Note_on_c, 14, 57, 0
18, 155610, Note_on_c, 14, 55, 90
18, 155639, Note_on_c, 14, 55, 0
18, 155640, Note_on_c, 14, 54, 90
18, 155699, Note_on_c, 14, 54, 0
18, 155700, Note_on_c, 14, 52, 90
18, 155759, Note_on_c, 14, 52, 0
18, 155760, Note_on_c, 14, 50, 90
18, 155789, Note_on_c, 14, 50, 0
18, 155790, Note_on_c, 14, 49, 90
18, 155819, Note_on_c, 14, 49, 0
18, 155820, Note_on_c, 14, 50, 90
18, 155849, Note_on_c, 14, 50, 0
18, 155850, Note_on_c, 14, 49, 90
18, 155879, Note_on_c, 14, 49, 0
18, 155880, Note_on_c, 14, 47, 90
18, 155909, Note_on_c, 14, 47, 0
18, 155910, Note_on_c, 14, 45, 90
18, 155939, Note_on_c, 14, 45, 0
18, 155940, Note_on_c, 14, 47, 90
18, 155969, Note_on_c, 14, 47, 0
18, 155970, Note_on_c, 14, 45, 90
18, 155999, Note_on_c, 14, 45, 0
18, 156000, Note_on_c, 14, 43, 90
18, 156119, Note_on_c, 14, 43, 0
18, 156240, Note_on_c, 14, 42, 90
18, 156359, Note_on_c, 14, 42, 0
18, 156540, Note_on_c, 14, 40, 90
18, 156599, Note_on_c, 14, 40, 0
18, 156600, Note_on_c, 14, 42, 90
18, 156659, Note_on_c, 14, 42, 0
18, 156660, Note_on_c, 14, 54, 90
18, 156719, Note_on_c, 14, 54, 0
18, 156720, Note_on_c, 14, 47, 90
18, 156779, Note_on_c, 14, 47, 0
18, 156780, Note_on_c, 14, 49, 90
18, 156839, Note_on_c, 14, 49, 0
18, 156840, Note_on_c, 14, 50, 90
18, 156899, Note_on_c, 14, 50, 0
18, 156900, Note_on_c, 14, 47, 90
18, 156959, Note_on_c, 14, 47, 0
18, 156960, Note_on_c, 14, 53, 90
18, 157019, Note_on_c, 14, 53, 0
18, 157020, Note_on_c, 14, 54, 90
18, 157079, Note_on_c, 14, 54, 0
18, 157080, Note_on_c, 14, 56, 90
18, 157139, Note_on_c, 14, 56, 0
18, 157140, Note_on_c, 14, 49, 90
18, 157199, Note_on_c, 14, 49, 0
18, 157200, Note_on_c, 14, 54, 90
18, 157259, Note_on_c, 14, 54, 0
18, 157260, Note_on_c, 14, 42, 90
18, 157319, Note_on_c, 14, 42, 0
18, 157320, Note_on_c, 14, 54, 90
18, 157379, Note_on_c, 14, 54, 0
18, 157380, Note_on_c, 14, 52, 90
18, 157439, Note_on_c, 14, 52, 0
18, 157440, Note_on_c, 14, 51, 90
18, 157499, Note_on_c, 14, 51, 0
18, 157500, Note_on_c, 14, 52, 90
18, 157559, Note_on_c, 14, 52, 0
18, 157560, Note_on_c, 14, 54, 90
18, 157619, Note_on_c, 14, 54, 0
18, 157620, Note_on_c, 14, 47, 90
18, 157679, Note_on_c, 14, 47, 0
18, 157680, Note_on_c, 14, 52, 90
18, 157739, Note_on_c, 14, 52, 0
18, 157740, Note_on_c, 14, 40, 90
18, 157799, Note_on_c, 14, 40, 0
18, 157800, Note_on_c, 14, 52, 90
18, 157949, Note_on_c, 14, 52, 0
18, 157950, Note_on_c, 14, 51, 90
18, 157979, Note_on_c, 14, 51, 0
18, 157980, Note_on_c, 14, 52, 90
18, 158009, Note_on_c, 14, 52, 0
18, 158010, Note_on_c, 14, 51, 90
18, 158039, Note_on_c, 14, 51, 0
18, 158040, Note_on_c, 14, 52, 90
18, 158189, Note_on_c, 14, 52, 0
18, 158190, Note_on_c, 14, 49, 90
18, 158219, Note_on_c, 14, 49, 0
18, 158220, Note_on_c, 14, 50, 90
18, 158249, Note_on_c, 14, 50, 0
18, 158250, Note_on_c, 14, 47, 90
18, 158279, Note_on_c, 14, 47, 0
18, 158280, Note_on_c, 14, 46, 90
18, 158339, Note_on_c, 14, 46, 0
18, 158340, Note_on_c, 14, 58, 90
18, 158399, Note_on_c, 14, 58, 0
18, 158400, Note_on_c, 14, 59, 90
18, 158459, Note_on_c, 14, 59, 0
18, 158460, Note_on_c, 14, 38, 90
18, 158519, Note_on_c, 14, 38, 0
18, 158520, Note_on_c, 14, 40, 90
18, 158579, Note_on_c, 14, 40, 0
18, 158580, Note_on_c, 14, 42, 90
18, 158639, Note_on_c, 14, 42, 0
18, 158640, Note_on_c, 14, 47, 90
18, 158759, Note_on_c, 14, 47, 0
18, 158880, Note_on_c, 14, 49, 70
18, 159359, Note_on_c, 14, 49, 0
18, 159360, Note_on_c, 14, 46, 70
18, 159839, Note_on_c, 14, 46, 0
18, 159840, Note_on_c, 14, 47, 70
18, 160319, Note_on_c, 14, 47, 0
18, 160320, Note_on_c, 14, 40, 70
18, 160799, Note_on_c, 14, 40, 0
18, 160800, Note_on_c, 14, 45, 70
18, 161279, Note_on_c, 14, 45, 0
18, 161280, Note_on_c, 14, 38, 70
18, 161759, Note_on_c, 14, 38, 0
18, 161760, Note_on_c, 14, 43, 70
18, 161819, Note_on_c, 14, 43, 0
18, 161820, Note_on_c, 14, 50, 70
18, 161879, Note_on_c, 14, 50, 0
18, 161880, Note_on_c, 14, 55, 70
18, 161939, Note_on_c, 14, 55, 0
18, 161940, Note_on_c, 14, 52, 70
18, 161999, Note_on_c, 14, 52, 0
18, 162000, Note_on_c, 14, 49, 70
18, 162059, Note_on_c, 14, 49, 0
18, 162060, Note_on_c, 14, 45, 70
18, 162119, Note_on_c, 14, 45, 0
18, 162120, Note_on_c, 14, 50, 70
18, 162179, Note_on_c, 14, 50, 0
18, 162180, Note_on_c, 14, 47, 70
18, 162239, Note_on_c, 14, 47, 0
18, 162240, Note_on_c, 14, 44, 70
18, 162359, Note_on_c, 14, 44, 0
18, 162600, Note_on_c, 14, 45, 70
18, 162719, Note_on_c, 14, 45, 0
18, 162720, Note_on_c, 14, 38, 70
18, 162959, Note_on_c, 14, 38, 0
18, 163650, Program_c, 14, 6
18, 163680, Note_on_c, 14, 50, 80
18, 163727, Note_on_c, 14, 50, 0
18, 163740, Note_on_c, 14, 38, 80
18, 163787, Note_on_c, 14, 38, 0
18, 164220, Note_on_c, 14, 50, 100
18, 164243, Note_on_c, 14, 50, 0
18, 164250, Note_on_c, 14, 49, 100
18, 164273, Note_on_c, 14, 49, 0
18, 164280, Note_on_c, 14, 50, 100
18, 164303, Note_on_c, 14, 50, 0
18, 164310, Note_on_c, 14, 52, 100
18, 164333, Note_on_c, 14, 52, 0
18, 164340, Note_on_c, 14, 54, 100
18, 164363, Note_on_c, 14, 54, 0
18, 164370, Note_on_c, 14, 55, 100
18, 164393, Note_on_c, 14, 55, 0
18, 164400, Note_on_c, 14, 57, 100
18, 164423, Note_on_c, 14, 57, 0
18, 164430, Note_on_c, 14, 55, 100
18, 164453, Note_on_c, 14, 55, 0
18, 164460, Note_on_c, 14, 57, 100
18, 164483, Note_on_c, 14, 57, 0
18, 164490, Note_on_c, 14, 59, 100
18, 164513, Note_on_c, 14, 59, 0
18, 164520, Note_on_c, 14, 57, 80
18, 164543, Note_on_c, 14, 57, 0
18, 164550, Note_on_c, 14, 55, 80
18, 164573, Note_on_c, 14, 55, 0
18, 164580, Note_on_c, 14, 54, 80
18, 164603, Note_on_c, 14, 54, 0
18, 164610, Note_on_c, 14, 52, 80
18, 164633, Note_on_c, 14, 52, 0
18, 164640, Note_on_c, 14, 50, 80
18, 164687, Note_on_c, 14, 50, 0
18, 164700, Note_on_c, 14, 38, 80
18, 164747, Note_on_c, 14, 38, 0
18, 165180, Note_on_c, 14, 50, 100
18, 165203, Note_on_c, 14, 50, 0
18, 165210, Note_on_c, 14, 49, 100
18, 165233, Note_on_c, 14, 49, 0
18, 165240, Note_on_c, 14, 50, 100
18, 165263, Note_on_c, 14, 50, 0
18, 165270, Note_on_c, 14, 52, 100
18, 165293, Note_on_c, 14, 52, 0
18, 165300, Note_on_c, 14, 54, 100
18, 165323, Note_on_c, 14, 54, 0
18, 165330, Note_on_c, 14, 55, 100
18, 165353, Note_on_c, 14, 55, 0
18, 165360, Note_on_c, 14, 57, 100
18, 165383, Note_on_c, 14, 57, 0
18, 165390, Note_on_c, 14, 55, 100
18, 165413, Note_on_c, 14, 55, 0
18, 165420, Note_on_c, 14, 57, 100
18, 165443, Note_on_c, 14, 57, 0
18, 165450, Note_on_c, 14, 59, 100
18, 165473, Note_on_c, 14, 59, 0
18, 165480, Note_on_c, 14, 57, 100
18, 165503, Note_on_c, 14, 57, 0
18, 165510, Note_on_c, 14, 55, 80
18, 165533, Note_on_c, 14, 55, 0
18, 165540, Note_on_c, 14, 54, 80
18, 165563, Note_on_c, 14, 54, 0
18, 165570, Note_on_c, 14, 52, 80
18, 165593, Note_on_c, 14, 52, 0
18, 165600, Note_on_c, 14, 50, 80
18, 165647, Note_on_c, 14, 50, 0
18, 165660, Note_on_c, 14, 49, 80
18, 165707, Note_on_c, 14, 49, 0
18, 165720, Note_on_c, 14, 50, 80
18, 165767, Note_on_c, 14, 50, 0
18, 165780, Note_on_c, 14, 49, 80
18, 165827, Note_on_c, 14, 49, 0
18, 165840, Note_on_c, 14, 50, 80
18, 165887, Note_on_c, 14, 50, 0
18, 165900, Note_on_c, 14, 62, 100
18, 165923, Note_on_c, 14, 62, 0
18, 165930, Note_on_c, 14, 61, 100
18, 165953, Note_on_c, 14, 61, 0
18, 165960, Note_on_c, 14, 62, 100
18, 166007, Note_on_c, 14, 62, 0
18, 166020, Note_on_c, 14, 59, 100
18, 166067, Note_on_c, 14, 59, 0
18, 166080, Note_on_c, 14, 49, 100
18, 166127, Note_on_c, 14, 49, 0
18, 166140, Note_on_c, 14, 47, 100
18, 166187, Note_on_c, 14, 47, 0
18, 166200, Note_on_c, 14, 49, 100
18, 166247, Note_on_c, 14, 49, 0
18, 166260, Note_on_c, 14, 47, 100
18, 166307, Note_on_c, 14, 47, 0
18, 166320, Note_on_c, 14, 49, 100
18, 166367, Note_on_c, 14, 49, 0
18, 166380, Note_on_c, 14, 61, 100
18, 166403, Note_on_c, 14, 61, 0
18, 166410, Note_on_c, 14, 59, 100
18, 166433, Note_on_c, 14, 59, 0
18, 166440, Note_on_c, 14, 61, 100
18, 166487, Note_on_c, 14, 61, 0
18, 166500, Note_on_c, 14, 57, 100
18, 166547, Note_on_c, 14, 57, 0
18, 166560, Note_on_c, 14, 47, 80
18, 166607, Note_on_c, 14, 47, 0
18, 166620, Note_on_c, 14, 59, 80
18, 166667, Note_on_c, 14, 59, 0
18, 166680, Note_on_c, 14, 57, 80
18, 166727, Note_on_c, 14, 57, 0
18, 166740, Note_on_c, 14, 45, 80
18, 166787, Note_on_c, 14, 45, 0
18, 166800, Note_on_c, 14, 43, 80
18, 166847, Note_on_c, 14, 43, 0
18, 166860, Note_on_c, 14, 55, 80
18, 166907, Note_on_c, 14, 55, 0
18, 166920, Note_on_c, 14, 54, 80
18, 166967, Note_on_c, 14, 54, 0
18, 166980, Note_on_c, 14, 42, 80
18, 167027, Note_on_c, 14, 42, 0
18, 167040, Note_on_c, 14, 40, 80
18, 167063, Note_on_c, 14, 40, 0
18, 167070, Note_on_c, 14, 42, 80
18, 167093, Note_on_c, 14, 42, 0
18, 167100, Note_on_c, 14, 43, 80
18, 167123, Note_on_c, 14, 43, 0
18, 167130, Note_on_c, 14, 45, 80
18, 167153, Note_on_c, 14, 45, 0
18, 167160, Note_on_c, 14, 47, 80
18, 167183, Note_on_c, 14, 47, 0
18, 167190, Note_on_c, 14, 49, 80
18, 167213, Note_on_c, 14, 49, 0
18, 167220, Note_on_c, 14, 50, 80
18, 167243, Note_on_c, 14, 50, 0
18, 167250, Note_on_c, 14, 47, 80
18, 167273, Note_on_c, 14, 47, 0
18, 167280, Note_on_c, 14, 49, 80
18, 167303, Note_on_c, 14, 49, 0
18, 167310, Note_on_c, 14, 45, 80
18, 167333, Note_on_c, 14, 45, 0
18, 167340, Note_on_c, 14, 49, 80
18, 167363, Note_on_c, 14, 49, 0
18, 167370, Note_on_c, 14, 52, 80
18, 167393, Note_on_c, 14, 52, 0
18, 167400, Note_on_c, 14, 57, 80
18, 167447, Note_on_c, 14, 57, 0
18, 167460, Note_on_c, 14, 49, 80
18, 167507, Note_on_c, 14, 49, 0
18, 167520, Note_on_c, 14, 50, 80
18, 167567, Note_on_c, 14, 50, 0
18, 167580, Note_on_c, 14, 47, 80
18, 167627, Note_on_c, 14, 47, 0
18, 167640, Note_on_c, 14, 43, 80
18, 167687, Note_on_c, 14, 43, 0
18, 167700, Note_on_c, 14, 45, 80
18, 167747, Note_on_c, 14, 45, 0
18, 167760, Note_on_c, 14, 47, 80
18, 167807, Note_on_c, 14, 47, 0
18, 167820, Note_on_c, 14, 59, 80
18, 167843, Note_on_c, 14, 59, 0
18, 167850, Note_on_c, 14, 57, 80
18, 167873, Note_on_c, 14, 57, 0
18, 167880, Note_on_c, 14, 59, 80
18, 167927, Note_on_c, 14, 59, 0
18, 167940, Note_on_c, 14, 47, 80
18, 167987, Note_on_c, 14, 47, 0
18, 168000, Note_on_c, 14, 42, 80
18, 168047, Note_on_c, 14, 42, 0
18, 168060, Note_on_c, 14, 54, 80
18, 168083, Note_on_c, 14, 54, 0
18, 168090, Note_on_c, 14, 52, 80
18, 168113, Note_on_c, 14, 52, 0
18, 168120, Note_on_c, 14, 54, 80
18, 168167, Note_on_c, 14, 54, 0
18, 168180, Note_on_c, 14, 50, 80
18, 168227, Note_on_c, 14, 50, 0
18, 168240, Note_on_c, 14, 55, 80
18, 168287, Note_on_c, 14, 55, 0
18, 168300, Note_on_c, 14, 43, 81
18, 168347, Note_on_c, 14, 43, 0
18, 168360, Note_on_c, 14, 42, 82
18, 168407, Note_on_c, 14, 42, 0
18, 168420, Note_on_c, 14, 54, 83
18, 168467, Note_on_c, 14, 54, 0
18, 168480, Note_on_c, 14, 52, 85
18, 168527, Note_on_c, 14, 52, 0
18, 168540, Note_on_c, 14, 40, 86
18, 168587, Note_on_c, 14, 40, 0
18, 168600, Note_on_c, 14, 38, 87
18, 168647, Note_on_c, 14, 38, 0
18, 168660, Note_on_c, 14, 50, 88
18, 168707, Note_on_c, 14, 50, 0
18, 168720, Note_on_c, 14, 49, 90
18, 168743, Note_on_c, 14, 49, 0
18, 168750, Note_on_c, 14, 62, 90
18, 168773, Note_on_c, 14, 62, 0
18, 168780, Note_on_c, 14, 61, 91
18, 168803, Note_on_c, 14, 61, 0
18, 168810, Note_on_c, 14, 59, 91
18, 168833, Note_on_c, 14, 59, 0
18, 168840, Note_on_c, 14, 57, 92
18, 168863, Note_on_c, 14, 57, 0
18, 168870, Note_on_c, 14, 55, 93
18, 168893, Note_on_c, 14, 55, 0
18, 168900, Note_on_c, 14, 54, 93
18, 168923, Note_on_c, 14, 54, 0
18, 168930, Note_on_c, 14, 52, 94
18, 168953, Note_on_c, 14, 52, 0
18, 168960, Note_on_c, 14, 50, 95
18, 168983, Note_on_c, 14, 50, 0
18, 168990, Note_on_c, 14, 49, 95
18, 169013, Note_on_c, 14, 49, 0
18, 169020, Note_on_c, 14, 47, 96
18, 169043, Note_on_c, 14, 47, 0
18, 169050, Note_on_c, 14, 45, 96
18, 169073, Note_on_c, 14, 45, 0
18, 169080, Note_on_c, 14, 43, 97
18, 169127, Note_on_c, 14, 43, 0
18, 169140, Note_on_c, 14, 45, 98
18, 169187, Note_on_c, 14, 45, 0
18, 169200, Note_on_c, 14, 38, 100
18, 169247, Note_on_c, 14, 38, 0
18, 169260, Note_on_c, 14, 50, 80
18, 169283, Note_on_c, 14, 50, 0
18, 169290, Note_on_c, 14, 52, 80
18, 169313, Note_on_c, 14, 52, 0
18, 169320, Note_on_c, 14, 50, 80
18, 169343, Note_on_c, 14, 50, 0
18, 169350, Note_on_c, 14, 48, 80
18, 169373, Note_on_c, 14, 48, 0
18, 169380, Note_on_c, 14, 47, 80
18, 169403, Note_on_c, 14, 47, 0
18, 169410, Note_on_c, 14, 45, 80
18, 169433, Note_on_c, 14, 45, 0
18, 169440, Note_on_c, 14, 43, 80
18, 169487, Note_on_c, 14, 43, 0
18, 169500, Note_on_c, 14, 55, 80
18, 169547, Note_on_c, 14, 55, 0
18, 169560, Note_on_c, 14, 54, 80
18, 169607, Note_on_c, 14, 54, 0
18, 169620, Note_on_c, 14, 42, 80
18, 169667, Note_on_c, 14, 42, 0
18, 169680, Note_on_c, 14, 47, 81
18, 169727, Note_on_c, 14, 47, 0
18, 169740, Note_on_c, 14, 59, 81
18, 169787, Note_on_c, 14, 59, 0
18, 169800, Note_on_c, 14, 57, 81
18, 169847, Note_on_c, 14, 57, 0
18, 169860, Note_on_c, 14, 45, 81
18, 169907, Note_on_c, 14, 45, 0
18, 169920, Note_on_c, 14, 43, 81
18, 169967, Note_on_c, 14, 43, 0
18, 169980, Note_on_c, 14, 55, 81
18, 170027, Note_on_c, 14, 55, 0
18, 170040, Note_on_c, 14, 57, 81
18, 170087, Note_on_c, 14, 57, 0
18, 170100, Note_on_c, 14, 45, 81
18, 170147, Note_on_c, 14, 45, 0
18, 170160, Note_on_c, 14, 50, 81
18, 170207, Note_on_c, 14, 50, 0
18, 170220, Note_on_c, 14, 54, 81
18, 170243, Note_on_c, 14, 54, 0
18, 170250, Note_on_c, 14, 52, 81
18, 170273, Note_on_c, 14, 52, 0
18, 170280, Note_on_c, 14, 50, 81
18, 170327, Note_on_c, 14, 50, 0
18, 170340, Note_on_c, 14, 49, 81
18, 170387, Note_on_c, 14, 49, 0
18, 170400, Note_on_c, 14, 47, 81
18, 170448, Note_on_c, 14, 47, 0
18, 170460, Note_on_c, 14, 59, 81
18, 170508, Note_on_c, 14, 59, 0
18, 170940, Note_on_c, 14, 47, 81
18, 170963, Note_on_c, 14, 47, 0
18, 170970, Note_on_c, 14, 46, 81
18, 170993, Note_on_c, 14, 46, 0
18, 171000, Note_on_c, 14, 47, 81
18, 171023, Note_on_c, 14, 47, 0
18, 171030, Note_on_c, 14, 49, 82
18, 171053, Note_on_c, 14, 49, 0
18, 171060, Note_on_c, 14, 50, 82
18, 171083, Note_on_c, 14, 50, 0
18, 171090, Note_on_c, 14, 52, 82
18, 171113, Note_on_c, 14, 52, 0
18, 171120, Note_on_c, 14, 54, 82
18, 171143, Note_on_c, 14, 54, 0
18, 171150, Note_on_c, 14, 52, 82
18, 171173, Note_on_c, 14, 52, 0
18, 171180, Note_on_c, 14, 54, 82
18, 171203, Note_on_c, 14, 54, 0
18, 171210, Note_on_c, 14, 55, 82
18, 171233, Note_on_c, 14, 55, 0
18, 171240, Note_on_c, 14, 54, 82
18, 171263, Note_on_c, 14, 54, 0
18, 171270, Note_on_c, 14, 52, 82
18, 171293, Note_on_c, 14, 52, 0
18, 171300, Note_on_c, 14, 50, 82
18, 171323, Note_on_c, 14, 50, 0
18, 171330, Note_on_c, 14, 49, 82
18, 171353, Note_on_c, 14, 49, 0
18, 171360, Note_on_c, 14, 47, 82
18, 171407, Note_on_c, 14, 47, 0
18, 171420, Note_on_c, 14, 59, 82
18, 171467, Note_on_c, 14, 59, 0
18, 171480, Note_on_c, 14, 55, 82
18, 171527, Note_on_c, 14, 55, 0
18, 171540, Note_on_c, 14, 50, 82
18, 171587, Note_on_c, 14, 50, 0
18, 171600, Note_on_c, 14, 52, 82
18, 171647, Note_on_c, 14, 52, 0
18, 171660, Note_on_c, 14, 49, 82
18, 171707, Note_on_c, 14, 49, 0
18, 171720, Note_on_c, 14, 54, 82
18, 171767, Note_on_c, 14, 54, 0
18, 171780, Note_on_c, 14, 42, 82
18, 171827, Note_on_c, 14, 42, 0
18, 171840, Note_on_c, 14, 47, 82
18, 171887, Note_on_c, 14, 47, 0
18, 171900, Note_on_c, 14, 54, 82
18, 171947, Note_on_c, 14, 54, 0
18, 171960, Note_on_c, 14, 59, 82
18, 172007, Note_on_c, 14, 59, 0
18, 172020, Note_on_c, 14, 54, 82
18, 172067, Note_on_c, 14, 54, 0
18, 172080, Note_on_c, 14, 55, 82
18, 172127, Note_on_c, 14, 55, 0
18, 172140, Note_on_c, 14, 52, 82
18, 172187, Note_on_c, 14, 52, 0
18, 172200, Note_on_c, 14, 57, 100
18, 172223, Note_on_c, 14, 57, 0
18, 172230, Note_on_c, 14, 55, 100
18, 172253, Note_on_c, 14, 55, 0
18, 172260, Note_on_c, 14, 54, 100
18, 172283, Note_on_c, 14, 54, 0
18, 172290, Note_on_c, 14, 52, 100
18, 172313, Note_on_c, 14, 52, 0
18, 172320, Note_on_c, 14, 50, 100
18, 172367, Note_on_c, 14, 50, 0
18, 172380, Note_on_c, 14, 38, 100
18, 172427, Note_on_c, 14, 38, 0
18, 172860, Note_on_c, 14, 50, 110
18, 172883, Note_on_c, 14, 50, 0
18, 172890, Note_on_c, 14, 49, 110
18, 172913, Note_on_c, 14, 49, 0
18, 172920, Note_on_c, 14, 50, 110
18, 172943, Note_on_c, 14, 50, 0
18, 172950, Note_on_c, 14, 52, 110
18, 172973, Note_on_c, 14, 52, 0
18, 172980, Note_on_c, 14, 54, 110
18, 173003, Note_on_c, 14, 54, 0
18, 173010, Note_on_c, 14, 55, 110
18, 173033, Note_on_c, 14, 55, 0
18, 173040, Note_on_c, 14, 57, 110
18, 173063, Note_on_c, 14, 57, 0
18, 173070, Note_on_c, 14, 55, 110
18, 173093, Note_on_c, 14, 55, 0
18, 173100, Note_on_c, 14, 57, 110
18, 173123, Note_on_c, 14, 57, 0
18, 173130, Note_on_c, 14, 59, 110
18, 173153, Note_on_c, 14, 59, 0
18, 173160, Note_on_c, 14, 57, 80
18, 173183, Note_on_c, 14, 57, 0
18, 173190, Note_on_c, 14, 55, 80
18, 173213, Note_on_c, 14, 55, 0
18, 173220, Note_on_c, 14, 54, 80
18, 173243, Note_on_c, 14, 54, 0
18, 173250, Note_on_c, 14, 52, 80
18, 173273, Note_on_c, 14, 52, 0
18, 173280, Note_on_c, 14, 50, 80
18, 173327, Note_on_c, 14, 50, 0
18, 173340, Note_on_c, 14, 38, 80
18, 173387, Note_on_c, 14, 38, 0
18, 173820, Note_on_c, 14, 50, 100
18, 173843, Note_on_c, 14, 50, 0
18, 173850, Note_on_c, 14, 49, 100
18, 173873, Note_on_c, 14, 49, 0
18, 173880, Note_on_c, 14, 50, 100
18, 173903, Note_on_c, 14, 50, 0
18, 173910, Note_on_c, 14, 52, 100
18, 173933, Note_on_c, 14, 52, 0
18, 173940, Note_on_c, 14, 54, 100
18, 173963, Note_on_c, 14, 54, 0
18, 173970, Note_on_c, 14, 55, 100
18, 173993, Note_on_c, 14, 55, 0
18, 174000, Note_on_c, 14, 57, 100
18, 174023, Note_on_c, 14, 57, 0
18, 174030, Note_on_c, 14, 55, 100
18, 174053, Note_on_c, 14, 55, 0
18, 174060, Note_on_c, 14, 57, 100
18, 174083, Note_on_c, 14, 57, 0
18, 174090, Note_on_c, 14, 59, 100
18, 174113, Note_on_c, 14, 59, 0
18, 174120, Note_on_c, 14, 57, 80
18, 174143, Note_on_c, 14, 57, 0
18, 174150, Note_on_c, 14, 55, 80
18, 174173, Note_on_c, 14, 55, 0
18, 174180, Note_on_c, 14, 54, 80
18, 174203, Note_on_c, 14, 54, 0
18, 174210, Note_on_c, 14, 52, 80
18, 174233, Note_on_c, 14, 52, 0
18, 174240, Note_on_c, 14, 50, 80
18, 174287, Note_on_c, 14, 50, 0
18, 174300, Note_on_c, 14, 49, 80
18, 174347, Note_on_c, 14, 49, 0
18, 174360, Note_on_c, 14, 50, 80
18, 174407, Note_on_c, 14, 50, 0
18, 174420, Note_on_c, 14, 49, 80
18, 174467, Note_on_c, 14, 49, 0
18, 174480, Note_on_c, 14, 50, 80
18, 174527, Note_on_c, 14, 50, 0
18, 174540, Note_on_c, 14, 62, 100
18, 174563, Note_on_c, 14, 62, 0
18, 174570, Note_on_c, 14, 61, 100
18, 174593, Note_on_c, 14, 61, 0
18, 174600, Note_on_c, 14, 62, 100
18, 174647, Note_on_c, 14, 62, 0
18, 174660, Note_on_c, 14, 59, 100
18, 174707, Note_on_c, 14, 59, 0
18, 174720, Note_on_c, 14, 49, 80
18, 174767, Note_on_c, 14, 49, 0
18, 174780, Note_on_c, 14, 47, 80
18, 174827, Note_on_c, 14, 47, 0
18, 174840, Note_on_c, 14, 49, 80
18, 174887, Note_on_c, 14, 49, 0
18, 174900, Note_on_c, 14, 47, 80
18, 174947, Note_on_c, 14, 47, 0
18, 174960, Note_on_c, 14, 49, 80
18, 175007, Note_on_c, 14, 49, 0
18, 175020, Note_on_c, 14, 61, 100
18, 175043, Note_on_c, 14, 61, 0
18, 175050, Note_on_c, 14, 59, 100
18, 175073, Note_on_c, 14, 59, 0
18, 175080, Note_on_c, 14, 61, 100
18, 175127, Note_on_c, 14, 61, 0
18, 175140, Note_on_c, 14, 57, 100
18, 175187, Note_on_c, 14, 57, 0
18, 175200, Note_on_c, 14, 47, 80
18, 175247, Note_on_c, 14, 47, 0
18, 175260, Note_on_c, 14, 59, 80
18, 175307, Note_on_c, 14, 59, 0
18, 175320, Note_on_c, 14, 57, 80
18, 175367, Note_on_c, 14, 57, 0
18, 175380, Note_on_c, 14, 45, 80
18, 175427, Note_on_c, 14, 45, 0
18, 175440, Note_on_c, 14, 43, 80
18, 175487, Note_on_c, 14, 43, 0
18, 175500, Note_on_c, 14, 55, 80
18, 175547, Note_on_c, 14, 55, 0
18, 175560, Note_on_c, 14, 54, 80
18, 175607, Note_on_c, 14, 54, 0
18, 175620, Note_on_c, 14, 42, 80
18, 175667, Note_on_c, 14, 42, 0
18, 175680, Note_on_c, 14, 40, 80
18, 175703, Note_on_c, 14, 40, 0
18, 175710, Note_on_c, 14, 42, 80
18, 175733, Note_on_c, 14, 42, 0
18, 175740, Note_on_c, 14, 43, 80
18, 175763, Note_on_c, 14, 43, 0
18, 175770, Note_on_c, 14, 45, 80
18, 175793, Note_on_c, 14, 45, 0
18, 175800, Note_on_c, 14, 47, 80
18, 175823, Note_on_c, 14, 47, 0
18, 175830, Note_on_c, 14, 49, 80
18, 175853, Note_on_c, 14, 49, 0
18, 175860, Note_on_c, 14, 50, 80
18, 175883, Note_on_c, 14, 50, 0
18, 175890, Note_on_c, 14, 47, 80
18, 175913, Note_on_c, 14, 47, 0
18, 175920, Note_on_c, 14, 49, 80
18, 175943, Note_on_c, 14, 49, 0
18, 175950, Note_on_c, 14, 45, 80
18, 175973, Note_on_c, 14, 45, 0
18, 175980, Note_on_c, 14, 49, 80
18, 176003, Note_on_c, 14, 49, 0
18, 176010, Note_on_c, 14, 52, 80
18, 176033, Note_on_c, 14, 52, 0
18, 176040, Note_on_c, 14, 57, 80
18, 176087, Note_on_c, 14, 57, 0
18, 176100, Note_on_c, 14, 49, 80
18, 176147, Note_on_c, 14, 49, 0
18, 176160, Note_on_c, 14, 50, 80
18, 176207, Note_on_c, 14, 50, 0
18, 176220, Note_on_c, 14, 47, 80
18, 176267, Note_on_c, 14, 47, 0
18, 176280, Note_on_c, 14, 43, 80
18, 176327, Note_on_c, 14, 43, 0
18, 176340, Note_on_c, 14, 45, 80
18, 176387, Note_on_c, 14, 45, 0
18, 176400, Note_on_c, 14, 47, 80
18, 176447, Note_on_c, 14, 47, 0
18, 176460, Note_on_c, 14, 59, 80
18, 176483, Note_on_c, 14, 59, 0
18, 176490, Note_on_c, 14, 57, 80
18, 176513, Note_on_c, 14, 57, 0
18, 176520, Note_on_c, 14, 59, 80
18, 176567, Note_on_c, 14, 59, 0
18, 176580, Note_on_c, 14, 47, 80
18, 176627, Note_on_c, 14, 47, 0
18, 176640, Note_on_c, 14, 42, 80
18, 176687, Note_on_c, 14, 42, 0
18, 176700, Note_on_c, 14, 54, 80
18, 176723, Note_on_c, 14, 54, 0
18, 176730, Note_on_c, 14, 52, 80
18, 176753, Note_on_c, 14, 52, 0
18, 176760, Note_on_c, 14, 54, 80
18, 176807, Note_on_c, 14, 54, 0
18, 176820, Note_on_c, 14, 50, 80
18, 176867, Note_on_c, 14, 50, 0
18, 176880, Note_on_c, 14, 55, 80
18, 176927, Note_on_c, 14, 55, 0
18, 176940, Note_on_c, 14, 43, 80
18, 176987, Note_on_c, 14, 43, 0
18, 177000, Note_on_c, 14, 42, 80
18, 177047, Note_on_c, 14, 42, 0
18, 177060, Note_on_c, 14, 54, 80
18, 177107, Note_on_c, 14, 54, 0
18, 177120, Note_on_c, 14, 52, 80
18, 177167, Note_on_c, 14, 52, 0
18, 177180, Note_on_c, 14, 40, 80
18, 177227, Note_on_c, 14, 40, 0
18, 177240, Note_on_c, 14, 38, 80
18, 177287, Note_on_c, 14, 38, 0
18, 177300, Note_on_c, 14, 50, 80
18, 177347, Note_on_c, 14, 50, 0
18, 177360, Note_on_c, 14, 49, 80
18, 177383, Note_on_c, 14, 49, 0
18, 177390, Note_on_c, 14, 62, 80
18, 177413, Note_on_c, 14, 62, 0
18, 177420, Note_on_c, 14, 61, 80
18, 177443, Note_on_c, 14, 61, 0
18, 177450, Note_on_c, 14, 59, 80
18, 177473, Note_on_c, 14, 59, 0
18, 177480, Note_on_c, 14, 57, 80
18, 177503, Note_on_c, 14, 57, 0
18, 177510, Note_on_c, 14, 55, 80
18, 177533, Note_on_c, 14, 55, 0
18, 177540, Note_on_c, 14, 54, 80
18, 177563, Note_on_c, 14, 54, 0
18, 177570, Note_on_c, 14, 52, 80
18, 177593, Note_on_c, 14, 52, 0
18, 177600, Note_on_c, 14, 50, 80
18, 177623, Note_on_c, 14, 50, 0
18, 177630, Note_on_c, 14, 49, 80
18, 177653, Note_on_c, 14, 49, 0
18, 177660, Note_on_c, 14, 47, 80
18, 177683, Note_on_c, 14, 47, 0
18, 177690, Note_on_c, 14, 45, 80
18, 177713, Note_on_c, 14, 45, 0
18, 177720, Note_on_c, 14, 43, 80
18, 177767, Note_on_c, 14, 43, 0
18, 177780, Note_on_c, 14, 45, 80
18, 177827, Note_on_c, 14, 45, 0
18, 177840, Note_on_c, 14, 38, 80
18, 177887, Note_on_c, 14, 38, 0
18, 177900, Note_on_c, 14, 50, 80
18, 177923, Note_on_c, 14, 50, 0
18, 177930, Note_on_c, 14, 52, 80
18, 177953, Note_on_c, 14, 52, 0
18, 177960, Note_on_c, 14, 50, 80
18, 177983, Note_on_c, 14, 50, 0
18, 177990, Note_on_c, 14, 48, 80
18, 178013, Note_on_c, 14, 48, 0
18, 178020, Note_on_c, 14, 47, 80
18, 178043, Note_on_c, 14, 47, 0
18, 178050, Note_on_c, 14, 45, 80
18, 178073, Note_on_c, 14, 45, 0
18, 178080, Note_on_c, 14, 43, 80
18, 178127, Note_on_c, 14, 43, 0
18, 178140, Note_on_c, 14, 55, 80
18, 178187, Note_on_c, 14, 55, 0
18, 178200, Note_on_c, 14, 54, 80
18, 178247, Note_on_c, 14, 54, 0
18, 178260, Note_on_c, 14, 42, 80
18, 178307, Note_on_c, 14, 42, 0
18, 178320, Note_on_c, 14, 47, 80
18, 178367, Note_on_c, 14, 47, 0
18, 178380, Note_on_c, 14, 59, 80
18, 178427, Note_on_c, 14, 59, 0
18, 178440, Note_on_c, 14, 57, 80
18, 178487, Note_on_c, 14, 57, 0
18, 178500, Note_on_c, 14, 45, 80
18, 178547, Note_on_c, 14, 45, 0
18, 178560, Note_on_c, 14, 43, 80
18, 178607, Note_on_c, 14, 43, 0
18, 178620, Note_on_c, 14, 55, 80
18, 178667, Note_on_c, 14, 55, 0
18, 178680, Note_on_c, 14, 57, 80
18, 178727, Note_on_c, 14, 57, 0
18, 178740, Note_on_c, 14, 45, 80
18, 178787, Note_on_c, 14, 45, 0
18, 178800, Note_on_c, 14, 50, 80
18, 178847, Note_on_c, 14, 50, 0
18, 178860, Note_on_c, 14, 54, 80
18, 178883, Note_on_c, 14, 54, 0
18, 178890, Note_on_c, 14, 52, 80
18, 178913, Note_on_c, 14, 52, 0
18, 178920, Note_on_c, 14, 50, 80
18, 178967, Note_on_c, 14, 50, 0
18, 178980, Note_on_c, 14, 49, 80
18, 179027, Note_on_c, 14, 49, 0
18, 179040, Note_on_c, 14, 47, 80
18, 179088, Note_on_c, 14, 47, 0
18, 179100, Note_on_c, 14, 59, 80
18, 179148, Note_on_c, 14, 59, 0
18, 179580, Note_on_c, 14, 47, 80
18, 179603, Note_on_c, 14, 47, 0
18, 179610, Note_on_c, 14, 46, 80
18, 179633, Note_on_c, 14, 46, 0
18, 179640, Note_on_c, 14, 47, 80
18, 179663, Note_on_c, 14, 47, 0
18, 179670, Note_on_c, 14, 49, 80
18, 179693, Note_on_c, 14, 49, 0
18, 179700, Note_on_c, 14, 50, 80
18, 179723, Note_on_c, 14, 50, 0
18, 179730, Note_on_c, 14, 52, 80
18, 179753, Note_on_c, 14, 52, 0
18, 179760, Note_on_c, 14, 54, 80
18, 179783, Note_on_c, 14, 54, 0
18, 179790, Note_on_c, 14, 52, 80
18, 179813, Note_on_c, 14, 52, 0
18, 179820, Note_on_c, 14, 54, 80
18, 179843, Note_on_c, 14, 54, 0
18, 179850, Note_on_c, 14, 55, 80
18, 179873, Note_on_c, 14, 55, 0
18, 179880, Note_on_c, 14, 54, 80
18, 179903, Note_on_c, 14, 54, 0
18, 179910, Note_on_c, 14, 52, 80
18, 179933, Note_on_c, 14, 52, 0
18, 179940, Note_on_c, 14, 50, 80
18, 179963, Note_on_c, 14, 50, 0
18, 179970, Note_on_c, 14, 49, 80
18, 179993, Note_on_c, 14, 49, 0
18, 180000, Note_on_c, 14, 47, 80
18, 180047, Note_on_c, 14, 47, 0
18, 180060, Note_on_c, 14, 59, 80
18, 180107, Note_on_c, 14, 59, 0
18, 180120, Note_on_c, 14, 55, 80
18, 180167, Note_on_c, 14, 55, 0
18, 180180, Note_on_c, 14, 50, 80
18, 180227, Note_on_c, 14, 50, 0
18, 180240, Note_on_c, 14, 52, 80
18, 180287, Note_on_c, 14, 52, 0
18, 180300, Note_on_c, 14, 49, 80
18, 180347, Note_on_c, 14, 49, 0
18, 180360, Note_on_c, 14, 54, 80
18, 180407, Note_on_c, 14, 54, 0
18, 180420, Note_on_c, 14, 42, 80
18, 180467, Note_on_c, 14, 42, 0
18, 180480, Note_on_c, 14, 47, 80
18, 180527, Note_on_c, 14, 47, 0
18, 180540, Note_on_c, 14, 54, 80
18, 180587, Note_on_c, 14, 54, 0
18, 180600, Note_on_c, 14, 59, 80
18, 180647, Note_on_c, 14, 59, 0
18, 180660, Note_on_c, 14, 54, 80
18, 180707, Note_on_c, 14, 54, 0
18, 180720, Note_on_c, 14, 55, 80
18, 180767, Note_on_c, 14, 55, 0
18, 180780, Note_on_c, 14, 52, 80
18, 180827, Note_on_c, 14, 52, 0
18, 180840, Note_on_c, 14, 57, 100
18, 180863, Note_on_c, 14, 57, 0
18, 180870, Note_on_c, 14, 55, 100
18, 180893, Note_on_c, 14, 55, 0
18, 180900, Note_on_c, 14, 54, 100
18, 180923, Note_on_c, 14, 54, 0
18, 180930, Note_on_c, 14, 52, 100
18, 180953, Note_on_c, 14, 52, 0
18, 180960, Note_on_c, 14, 50, 100
18, 181007, Note_on_c, 14, 50, 0
18, 181020, Note_on_c, 14, 38, 100
18, 181067, Note_on_c, 14, 38, 0
18, 181500, Note_on_c, 14, 50, 110
18, 181523, Note_on_c, 14, 50, 0
18, 181530, Note_on_c, 14, 49, 110
18, 181553, Note_on_c, 14, 49, 0
18, 181560, Note_on_c, 14, 50, 110
18, 181583, Note_on_c, 14, 50, 0
18, 181590, Note_on_c, 14, 52, 110
18, 181613, Note_on_c, 14, 52, 0
18, 181620, Note_on_c, 14, 54, 110
18, 181643, Note_on_c, 14, 54, 0
18, 181650, Note_on_c, 14, 55, 110
18, 181673, Note_on_c, 14, 55, 0
18, 181680, Note_on_c, 14, 57, 110
18, 181703, Note_on_c, 14, 57, 0
18, 181710, Note_on_c, 14, 55, 110
18, 181733, Note_on_c, 14, 55, 0
18, 181740, Note_on_c, 14, 57, 110
18, 181763, Note_on_c, 14, 57, 0
18, 181770, Note_on_c, 14, 59, 110
18, 181793, Note_on_c, 14, 59, 0
18, 181800, Note_on_c, 14, 57, 110
18, 181823, Note_on_c, 14, 57, 0
18, 181830, Note_on_c, 14, 55, 110
18, 181853, Note_on_c, 14, 55, 0
18, 181860, Note_on_c, 14, 54, 80
18, 181883, Note_on_c, 14, 54, 0
18, 181890, Note_on_c, 14, 52, 80
18, 181913, Note_on_c, 14, 52, 0
18, 181920, Note_on_c, 14, 50, 80
18, 181967, Note_on_c, 14, 50, 0
18, 181980, Note_on_c, 14, 38, 80
18, 182027, Note_on_c, 14, 38, 0
18, 182460, Note_on_c, 14, 50, 100
18, 182483, Note_on_c, 14, 50, 0
18, 182490, Note_on_c, 14, 49, 100
18, 182513, Note_on_c, 14, 49, 0
18, 182520, Note_on_c, 14, 50, 100
18, 182543, Note_on_c, 14, 50, 0
18, 182550, Note_on_c, 14, 52, 100
18, 182573, Note_on_c, 14, 52, 0
18, 182580, Note_on_c, 14, 54, 100
18, 182603, Note_on_c, 14, 54, 0
18, 182610, Note_on_c, 14, 55, 100
18, 182633, Note_on_c, 14, 55, 0
18, 182640, Note_on_c, 14, 57, 100
18, 182663, Note_on_c, 14, 57, 0
18, 182670, Note_on_c, 14, 56, 100
18, 182693, Note_on_c, 14, 56, 0
18, 182700, Note_on_c, 14, 57, 100
18, 182723, Note_on_c, 14, 57, 0
18, 182730, Note_on_c, 14, 59, 100
18, 182753, Note_on_c, 14, 59, 0
18, 182760, Note_on_c, 14, 57, 80
18, 182783, Note_on_c, 14, 57, 0
18, 182790, Note_on_c, 14, 56, 80
18, 182813, Note_on_c, 14, 56, 0
18, 182820, Note_on_c, 14, 54, 80
18, 182843, Note_on_c, 14, 54, 0
18, 182850, Note_on_c, 14, 52, 80
18, 182873, Note_on_c, 14, 52, 0
18, 182880, Note_on_c, 14, 57, 80
18, 182927, Note_on_c, 14, 57, 0
18, 182940, Note_on_c, 14, 55, 80
18, 182987, Note_on_c, 14, 55, 0
18, 183000, Note_on_c, 14, 54, 80
18, 183047, Note_on_c, 14, 54, 0
18, 183060, Note_on_c, 14, 50, 80
18, 183107, Note_on_c, 14, 50, 0
18, 183120, Note_on_c, 14, 55, 80
18, 183167, Note_on_c, 14, 55, 0
18, 183180, Note_on_c, 14, 54, 80
18, 183227, Note_on_c, 14, 54, 0
18, 183240, Note_on_c, 14, 52, 80
18, 183287, Note_on_c, 14, 52, 0
18, 183300, Note_on_c, 14, 57, 80
18, 183347, Note_on_c, 14, 57, 0
18, 183360, Note_on_c, 14, 59, 80
18, 183407, Note_on_c, 14, 59, 0
18, 183420, Note_on_c, 14, 57, 80
18, 183467, Note_on_c, 14, 57, 0
18, 183480, Note_on_c, 14, 59, 80
18, 183527, Note_on_c, 14, 59, 0
18, 183540, Note_on_c, 14, 55, 80
18, 183587, Note_on_c, 14, 55, 0
18, 183600, Note_on_c, 14, 50, 100
18, 183647, Note_on_c, 14, 50, 0
18, 183660, Note_on_c, 14, 62, 100
18, 183683, Note_on_c, 14, 62, 0
18, 183690, Note_on_c, 14, 61, 100
18, 183713, Note_on_c, 14, 61, 0
18, 183720, Note_on_c, 14, 62, 100
18, 183767, Note_on_c, 14, 62, 0
18, 183780, Note_on_c, 14, 59, 80
18, 183827, Note_on_c, 14, 59, 0
18, 183840, Note_on_c, 14, 49, 80
18, 183887, Note_on_c, 14, 49, 0
18, 183900, Note_on_c, 14, 47, 80
18, 183947, Note_on_c, 14, 47, 0
18, 183960, Note_on_c, 14, 49, 80
18, 184007, Note_on_c, 14, 49, 0
18, 184020, Note_on_c, 14, 47, 80
18, 184067, Note_on_c, 14, 47, 0
18, 184080, Note_on_c, 14, 49, 100
18, 184127, Note_on_c, 14, 49, 0
18, 184140, Note_on_c, 14, 61, 100
18, 184163, Note_on_c, 14, 61, 0
18, 184170, Note_on_c, 14, 59, 100
18, 184193, Note_on_c, 14, 59, 0
18, 184200, Note_on_c, 14, 61, 100
18, 184247, Note_on_c, 14, 61, 0
18, 184260, Note_on_c, 14, 57, 80
18, 184307, Note_on_c, 14, 57, 0
18, 184320, Note_on_c, 14, 47, 80
18, 184367, Note_on_c, 14, 47, 0
18, 184380, Note_on_c, 14, 59, 80
18, 184427, Note_on_c, 14, 59, 0
18, 184440, Note_on_c, 14, 54, 80
18, 184487, Note_on_c, 14, 54, 0
18, 184500, Note_on_c, 14, 50, 80
18, 184547, Note_on_c, 14, 50, 0
18, 184560, Note_on_c, 14, 43, 80
18, 184607, Note_on_c, 14, 43, 0
18, 184620, Note_on_c, 14, 55, 80
18, 184667, Note_on_c, 14, 55, 0
18, 184680, Note_on_c, 14, 50, 80
18, 184727, Note_on_c, 14, 50, 0
18, 184740, Note_on_c, 14, 47, 80
18, 184787, Note_on_c, 14, 47, 0
18, 184800, Note_on_c, 14, 40, 80
18, 184823, Note_on_c, 14, 40, 0
18, 184830, Note_on_c, 14, 42, 80
18, 184853, Note_on_c, 14, 42, 0
18, 184860, Note_on_c, 14, 43, 80
18, 184883, Note_on_c, 14, 43, 0
18, 184890, Note_on_c, 14, 45, 80
18, 184913, Note_on_c, 14, 45, 0
18, 184920, Note_on_c, 14, 47, 80
18, 184943, Note_on_c, 14, 47, 0
18, 184950, Note_on_c, 14, 50, 80
18, 184973, Note_on_c, 14, 50, 0
18, 184980, Note_on_c, 14, 49, 80
18, 185003, Note_on_c, 14, 49, 0
18, 185010, Note_on_c, 14, 47, 80
18, 185033, Note_on_c, 14, 47, 0
18, 185040, Note_on_c, 14, 46, 80
18, 185063, Note_on_c, 14, 46, 0
18, 185070, Note_on_c, 14, 42, 80
18, 185093, Note_on_c, 14, 42, 0
18, 185100, Note_on_c, 14, 46, 80
18, 185123, Note_on_c, 14, 46, 0
18, 185130, Note_on_c, 14, 49, 80
18, 185153, Note_on_c, 14, 49, 0
18, 185160, Note_on_c, 14, 54, 80
18, 185183, Note_on_c, 14, 54, 0
18, 185190, Note_on_c, 14, 52, 80
18, 185213, Note_on_c, 14, 52, 0
18, 185220, Note_on_c, 14, 50, 80
18, 185243, Note_on_c, 14, 50, 0
18, 185250, Note_on_c, 14, 49, 80
18, 185273, Note_on_c, 14, 49, 0
18, 185280, Note_on_c, 14, 47, 80
18, 185327, Note_on_c, 14, 47, 0
18, 185340, Note_on_c, 14, 59, 80
18, 185387, Note_on_c, 14, 59, 0
18, 185820, Note_on_c, 14, 47, 100
18, 185843, Note_on_c, 14, 47, 0
18, 185850, Note_on_c, 14, 46, 100
18, 185873, Note_on_c, 14, 46, 0
18, 185880, Note_on_c, 14, 47, 100
18, 185903, Note_on_c, 14, 47, 0
18, 185910, Note_on_c, 14, 49, 100
18, 185933, Note_on_c, 14, 49, 0
18, 185940, Note_on_c, 14, 50, 100
18, 185963, Note_on_c, 14, 50, 0
18, 185970, Note_on_c, 14, 52, 100
18, 185993, Note_on_c, 14, 52, 0
18, 186000, Note_on_c, 14, 54, 100
18, 186023, Note_on_c, 14, 54, 0
18, 186030, Note_on_c, 14, 52, 100
18, 186053, Note_on_c, 14, 52, 0
18, 186060, Note_on_c, 14, 54, 100
18, 186083, Note_on_c, 14, 54, 0
18, 186090, Note_on_c, 14, 55, 80
18, 186113, Note_on_c, 14, 55, 0
18, 186120, Note_on_c, 14, 54, 80
18, 186143, Note_on_c, 14, 54, 0
18, 186150, Note_on_c, 14, 52, 80
18, 186173, Note_on_c, 14, 52, 0
18, 186180, Note_on_c, 14, 50, 80
18, 186203, Note_on_c, 14, 50, 0
18, 186210, Note_on_c, 14, 49, 80
18, 186233, Note_on_c, 14, 49, 0
18, 186240, Note_on_c, 14, 47, 80
18, 186287, Note_on_c, 14, 47, 0
18, 186300, Note_on_c, 14, 46, 80
18, 186347, Note_on_c, 14, 46, 0
18, 186360, Note_on_c, 14, 47, 80
18, 186407, Note_on_c, 14, 47, 0
18, 186420, Note_on_c, 14, 45, 80
18, 186467, Note_on_c, 14, 45, 0
18, 186480, Note_on_c, 14, 44, 80
18, 186527, Note_on_c, 14, 44, 0
18, 186540, Note_on_c, 14, 56, 80
18, 186563, Note_on_c, 14, 56, 0
18, 186570, Note_on_c, 14, 54, 80
18, 186593, Note_on_c, 14, 54, 0
18, 186600, Note_on_c, 14, 56, 80
18, 186647, Note_on_c, 14, 56, 0
18, 186660, Note_on_c, 14, 52, 80
18, 186707, Note_on_c, 14, 52, 0
18, 186720, Note_on_c, 14, 45, 80
18, 186767, Note_on_c, 14, 45, 0
18, 186780, Note_on_c, 14, 44, 80
18, 186827, Note_on_c, 14, 44, 0
18, 186840, Note_on_c, 14, 45, 80
18, 186887, Note_on_c, 14, 45, 0
18, 186900, Note_on_c, 14, 44, 80
18, 186947, Note_on_c, 14, 44, 0
18, 186960, Note_on_c, 14, 42, 80
18, 187007, Note_on_c, 14, 42, 0
18, 187020, Note_on_c, 14, 54, 80
18, 187043, Note_on_c, 14, 54, 0
18, 187050, Note_on_c, 14, 52, 80
18, 187073, Note_on_c, 14, 52, 0
18, 187080, Note_on_c, 14, 54, 80
18, 187127, Note_on_c, 14, 54, 0
18, 187140, Note_on_c, 14, 49, 80
18, 187187, Note_on_c, 14, 49, 0
18, 187200, Note_on_c, 14, 50, 80
18, 187247, Note_on_c, 14, 50, 0
18, 187260, Note_on_c, 14, 47, 80
18, 187307, Note_on_c, 14, 47, 0
18, 187320, Note_on_c, 14, 52, 80
18, 187367, Note_on_c, 14, 52, 0
18, 187380, Note_on_c, 14, 40, 80
18, 187427, Note_on_c, 14, 40, 0
18, 187440, Note_on_c, 14, 45, 80
18, 187487, Note_on_c, 14, 45, 0
18, 187500, Note_on_c, 14, 57, 80
18, 187547, Note_on_c, 14, 57, 0
18, 187980, Note_on_c, 14, 45, 100
18, 188003, Note_on_c, 14, 45, 0
18, 188010, Note_on_c, 14, 44, 100
18, 188033, Note_on_c, 14, 44, 0
18, 188040, Note_on_c, 14, 45, 100
18, 188063, Note_on_c, 14, 45, 0
18, 188070, Note_on_c, 14, 47, 100
18, 188093, Note_on_c, 14, 47, 0
18, 188100, Note_on_c, 14, 49, 100
18, 188123, Note_on_c, 14, 49, 0
18, 188130, Note_on_c, 14, 50, 100
18, 188153, Note_on_c, 14, 50, 0
18, 188160, Note_on_c, 14, 52, 100
18, 188183, Note_on_c, 14, 52, 0
18, 188190, Note_on_c, 14, 54, 100
18, 188213, Note_on_c, 14, 54, 0
18, 188220, Note_on_c, 14, 56, 100
18, 188243, Note_on_c, 14, 56, 0
18, 188250, Note_on_c, 14, 54, 80
18, 188273, Note_on_c, 14, 54, 0
18, 188280, Note_on_c, 14, 53, 80
18, 188303, Note_on_c, 14, 53, 0
18, 188310, Note_on_c, 14, 51, 80
18, 188333, Note_on_c, 14, 51, 0
18, 188340, Note_on_c, 14, 53, 80
18, 188363, Note_on_c, 14, 53, 0
18, 188370, Note_on_c, 14, 49, 80
18, 188393, Note_on_c, 14, 49, 0
18, 188400, Note_on_c, 14, 54, 80
18, 188447, Note_on_c, 14, 54, 0
18, 188460, Note_on_c, 14, 42, 80
18, 188507, Note_on_c, 14, 42, 0
18, 188940, Note_on_c, 14, 42, 100
18, 188963, Note_on_c, 14, 42, 0
18, 188970, Note_on_c, 14, 40, 100
18, 188993, Note_on_c, 14, 40, 0
18, 189000, Note_on_c, 14, 42, 100
18, 189023, Note_on_c, 14, 42, 0
18, 189030, Note_on_c, 14, 44, 100
18, 189053, Note_on_c, 14, 44, 0
18, 189060, Note_on_c, 14, 46, 100
18, 189083, Note_on_c, 14, 46, 0
18, 189090, Note_on_c, 14, 42, 100
18, 189113, Note_on_c, 14, 42, 0
18, 189120, Note_on_c, 14, 47, 100
18, 189167, Note_on_c, 14, 47, 0
18, 189180, Note_on_c, 14, 59, 100
18, 189227, Note_on_c, 14, 59, 0
18, 189420, Note_on_c, 14, 40, 100
18, 189443, Note_on_c, 14, 40, 0
18, 189450, Note_on_c, 14, 38, 100
18, 189473, Note_on_c, 14, 38, 0
18, 189480, Note_on_c, 14, 40, 100
18, 189503, Note_on_c, 14, 40, 0
18, 189510, Note_on_c, 14, 42, 100
18, 189533, Note_on_c, 14, 42, 0
18, 189540, Note_on_c, 14, 44, 100
18, 189563, Note_on_c, 14, 44, 0
18, 189570, Note_on_c, 14, 40, 100
18, 189593, Note_on_c, 14, 40, 0
18, 189600, Note_on_c, 14, 45, 100
18, 189647, Note_on_c, 14, 45, 0
18, 189660, Note_on_c, 14, 57, 80
18, 189707, Note_on_c, 14, 57, 0
18, 189900, Note_on_c, 14, 38, 80
18, 189923, Note_on_c, 14, 38, 0
18, 189930, Note_on_c, 14, 37, 80
18, 189953, Note_on_c, 14, 37, 0
18, 189960, Note_on_c, 14, 38, 80
18, 189983, Note_on_c, 14, 38, 0
18, 189990, Note_on_c, 14, 40, 80
18, 190013, Note_on_c, 14, 40, 0
18, 190020, Note_on_c, 14, 42, 80
18, 190043, Note_on_c, 14, 42, 0
18, 190050, Note_on_c, 14, 38, 80
18, 190073, Note_on_c, 14, 38, 0
18, 190080, Note_on_c, 14, 40, 80
18, 190127, Note_on_c, 14, 40, 0
18, 190140, Note_on_c, 14, 52, 80
18, 190187, Note_on_c, 14, 52, 0
18, 190200, Note_on_c, 14, 54, 80
18, 190247, Note_on_c, 14, 54, 0
18, 190260, Note_on_c, 14, 55, 80
18, 190307, Note_on_c, 14, 55, 0
18, 190320, Note_on_c, 14, 57, 80
18, 190367, Note_on_c, 14, 57, 0
18, 190380, Note_on_c, 14, 55, 80
18, 190427, Note_on_c, 14, 55, 0
18, 190440, Note_on_c, 14, 57, 80
18, 190487, Note_on_c, 14, 57, 0
18, 190500, Note_on_c, 14, 45, 80
18, 190547, Note_on_c, 14, 45, 0
18, 190560, Note_on_c, 14, 50, 80
18, 190607, Note_on_c, 14, 50, 0
18, 190620, Note_on_c, 14, 38, 80
18, 190667, Note_on_c, 14, 38, 0
18, 191100, Note_on_c, 14, 50, 100
18, 191123, Note_on_c, 14, 50, 0
18, 191130, Note_on_c, 14, 49, 100
18, 191153, Note_on_c, 14, 49, 0
18, 191160, Note_on_c, 14, 50, 100
18, 191183, Note_on_c, 14, 50, 0
18, 191190, Note_on_c, 14, 52, 100
18, 191213, Note_on_c, 14, 52, 0
18, 191220, Note_on_c, 14, 54, 100
18, 191243, Note_on_c, 14, 54, 0
18, 191250, Note_on_c, 14, 55, 100
18, 191273, Note_on_c, 14, 55, 0
18, 191280, Note_on_c, 14, 57, 100
18, 191303, Note_on_c, 14, 57, 0
18, 191310, Note_on_c, 14, 55, 100
18, 191333, Note_on_c, 14, 55, 0
18, 191340, Note_on_c, 14, 57, 100
18, 191363, Note_on_c, 14, 57, 0
18, 191370, Note_on_c, 14, 59, 100
18, 191393, Note_on_c, 14, 59, 0
18, 191400, Note_on_c, 14, 57, 100
18, 191423, Note_on_c, 14, 57, 0
18, 191430, Note_on_c, 14, 55, 100
18, 191453, Note_on_c, 14, 55, 0
18, 191460, Note_on_c, 14, 54, 100
18, 191483, Note_on_c, 14, 54, 0
18, 191490, Note_on_c, 14, 52, 100
18, 191513, Note_on_c, 14, 52, 0
18, 191520, Note_on_c, 14, 50, 100
18, 191567, Note_on_c, 14, 50, 0
18, 191580, Note_on_c, 14, 38, 100
18, 191627, Note_on_c, 14, 38, 0
18, 192060, Note_on_c, 14, 50, 110
18, 192083, Note_on_c, 14, 50, 0
18, 192090, Note_on_c, 14, 49, 110
18, 192113, Note_on_c, 14, 49, 0
18, 192120, Note_on_c, 14, 50, 110
18, 192143, Note_on_c, 14, 50, 0
18, 192150, Note_on_c, 14, 52, 110
18, 192173, Note_on_c, 14, 52, 0
18, 192180, Note_on_c, 14, 54, 110
18, 192203, Note_on_c, 14, 54, 0
18, 192210, Note_on_c, 14, 55, 110
18, 192233, Note_on_c, 14, 55, 0
18, 192240, Note_on_c, 14, 57, 110
18, 192263, Note_on_c, 14, 57, 0
18, 192270, Note_on_c, 14, 55, 110
18, 192293, Note_on_c, 14, 55, 0
18, 192300, Note_on_c, 14, 57, 110
18, 192323, Note_on_c, 14, 57, 0
18, 192330, Note_on_c, 14, 59, 110
18, 192353, Note_on_c, 14, 59, 0
18, 192360, Note_on_c, 14, 57, 110
18, 192383, Note_on_c, 14, 57, 0
18, 192390, Note_on_c, 14, 55, 100
18, 192413, Note_on_c, 14, 55, 0
18, 192420, Note_on_c, 14, 54, 100
18, 192443, Note_on_c, 14, 54, 0
18, 192450, Note_on_c, 14, 52, 100
18, 192473, Note_on_c, 14, 52, 0
18, 192480, Note_on_c, 14, 50, 100
18, 192527, Note_on_c, 14, 50, 0
18, 192540, Note_on_c, 14, 49, 100
18, 192587, Note_on_c, 14, 49, 0
18, 192600, Note_on_c, 14, 50, 100
18, 192647, Note_on_c, 14, 50, 0
18, 192660, Note_on_c, 14, 49, 100
18, 192707, Note_on_c, 14, 49, 0
18, 192720, Note_on_c, 14, 50, 110
18, 192767, Note_on_c, 14, 50, 0
18, 192780, Note_on_c, 14, 62, 110
18, 192803, Note_on_c, 14, 62, 0
18, 192810, Note_on_c, 14, 61, 110
18, 192833, Note_on_c, 14, 61, 0
18, 192840, Note_on_c, 14, 62, 110
18, 192887, Note_on_c, 14, 62, 0
18, 192900, Note_on_c, 14, 59, 100
18, 192947, Note_on_c, 14, 59, 0
18, 192960, Note_on_c, 14, 49, 100
18, 193007, Note_on_c, 14, 49, 0
18, 193020, Note_on_c, 14, 47, 100
18, 193067, Note_on_c, 14, 47, 0
18, 193080, Note_on_c, 14, 49, 100
18, 193127, Note_on_c, 14, 49, 0
18, 193140, Note_on_c, 14, 47, 100
18, 193187, Note_on_c, 14, 47, 0
18, 193200, Note_on_c, 14, 49, 110
18, 193247, Note_on_c, 14, 49, 0
18, 193260, Note_on_c, 14, 61, 110
18, 193283, Note_on_c, 14, 61, 0
18, 193290, Note_on_c, 14, 59, 110
18, 193313, Note_on_c, 14, 59, 0
18, 193320, Note_on_c, 14, 61, 110
18, 193367, Note_on_c, 14, 61, 0
18, 193380, Note_on_c, 14, 57, 100
18, 193427, Note_on_c, 14, 57, 0
18, 193440, Note_on_c, 14, 47, 100
18, 193487, Note_on_c, 14, 47, 0
18, 193500, Note_on_c, 14, 59, 100
18, 193547, Note_on_c, 14, 59, 0
18, 193560, Note_on_c, 14, 57, 100
18, 193607, Note_on_c, 14, 57, 0
18, 193620, Note_on_c, 14, 45, 100
18, 193667, Note_on_c, 14, 45, 0
18, 193680, Note_on_c, 14, 43, 100
18, 193727, Note_on_c, 14, 43, 0
18, 193740, Note_on_c, 14, 55, 100
18, 193787, Note_on_c, 14, 55, 0
18, 193800, Note_on_c, 14, 54, 100
18, 193847, Note_on_c, 14, 54, 0
18, 193860, Note_on_c, 14, 42, 100
18, 193907, Note_on_c, 14, 42, 0
18, 193920, Note_on_c, 14, 40, 100
18, 193943, Note_on_c, 14, 40, 0
18, 193950, Note_on_c, 14, 42, 100
18, 193973, Note_on_c, 14, 42, 0
18, 193980, Note_on_c, 14, 43, 100
18, 194003, Note_on_c, 14, 43, 0
18, 194010, Note_on_c, 14, 45, 100
18, 194033, Note_on_c, 14, 45, 0
18, 194040, Note_on_c, 14, 47, 100
18, 194063, Note_on_c, 14, 47, 0
18, 194070, Note_on_c, 14, 49, 100
18, 194093, Note_on_c, 14, 49, 0
18, 194100, Note_on_c, 14, 50, 100
18, 194123, Note_on_c, 14, 50, 0
18, 194130, Note_on_c, 14, 47, 100
18, 194153, Note_on_c, 14, 47, 0
18, 194160, Note_on_c, 14, 49, 100
18, 194183, Note_on_c, 14, 49, 0
18, 194190, Note_on_c, 14, 45, 100
18, 194213, Note_on_c, 14, 45, 0
18, 194220, Note_on_c, 14, 49, 100
18, 194243, Note_on_c, 14, 49, 0
18, 194250, Note_on_c, 14, 52, 100
18, 194273, Note_on_c, 14, 52, 0
18, 194280, Note_on_c, 14, 57, 100
18, 194327, Note_on_c, 14, 57, 0
18, 194340, Note_on_c, 14, 49, 100
18, 194387, Note_on_c, 14, 49, 0
18, 194400, Note_on_c, 14, 50, 100
18, 194447, Note_on_c, 14, 50, 0
18, 194460, Note_on_c, 14, 47, 100
18, 194507, Note_on_c, 14, 47, 0
18, 194520, Note_on_c, 14, 43, 100
18, 194567, Note_on_c, 14, 43, 0
18, 194580, Note_on_c, 14, 45, 100
18, 194627, Note_on_c, 14, 45, 0
18, 194640, Note_on_c, 14, 47, 100
18, 194687, Note_on_c, 14, 47, 0
18, 194700, Note_on_c, 14, 59, 100
18, 194723, Note_on_c, 14, 59, 0
18, 194730, Note_on_c, 14, 57, 100
18, 194753, Note_on_c, 14, 57, 0
18, 194760, Note_on_c, 14, 59, 100
18, 194807, Note_on_c, 14, 59, 0
18, 194820, Note_on_c, 14, 47, 100
18, 194867, Note_on_c, 14, 47, 0
18, 194880, Note_on_c, 14, 42, 100
18, 194927, Note_on_c, 14, 42, 0
18, 194940, Note_on_c, 14, 54, 100
18, 194963, Note_on_c, 14, 54, 0
18, 194970, Note_on_c, 14, 52, 100
18, 194993, Note_on_c, 14, 52, 0
18, 195000, Note_on_c, 14, 54, 100
18, 195047, Note_on_c, 14, 54, 0
18, 195060, Note_on_c, 14, 50, 100
18, 195107, Note_on_c, 14, 50, 0
18, 195120, Note_on_c, 14, 55, 100
18, 195167, Note_on_c, 14, 55, 0
18, 195180, Note_on_c, 14, 43, 100
18, 195227, Note_on_c, 14, 43, 0
18, 195240, Note_on_c, 14, 42, 100
18, 195287, Note_on_c, 14, 42, 0
18, 195300, Note_on_c, 14, 54, 100
18, 195347, Note_on_c, 14, 54, 0
18, 195360, Note_on_c, 14, 52, 100
18, 195407, Note_on_c, 14, 52, 0
18, 195420, Note_on_c, 14, 40, 100
18, 195467, Note_on_c, 14, 40, 0
18, 195480, Note_on_c, 14, 38, 100
18, 195527, Note_on_c, 14, 38, 0
18, 195540, Note_on_c, 14, 50, 100
18, 195587, Note_on_c, 14, 50, 0
18, 195600, Note_on_c, 14, 49, 100
18, 195623, Note_on_c, 14, 49, 0
18, 195630, Note_on_c, 14, 62, 100
18, 195653, Note_on_c, 14, 62, 0
18, 195660, Note_on_c, 14, 61, 100
18, 195683, Note_on_c, 14, 61, 0
18, 195690, Note_on_c, 14, 59, 100
18, 195713, Note_on_c, 14, 59, 0
18, 195720, Note_on_c, 14, 57, 100
18, 195743, Note_on_c, 14, 57, 0
18, 195750, Note_on_c, 14, 55, 100
18, 195773, Note_on_c, 14, 55, 0
18, 195780, Note_on_c, 14, 54, 100
18, 195803, Note_on_c, 14, 54, 0
18, 195810, Note_on_c, 14, 52, 100
18, 195833, Note_on_c, 14, 52, 0
18, 195840, Note_on_c, 14, 50, 100
18, 195863, Note_on_c, 14, 50, 0
18, 195870, Note_on_c, 14, 49, 100
18, 195893, Note_on_c, 14, 49, 0
18, 195900, Note_on_c, 14, 47, 100
18, 195923, Note_on_c, 14, 47, 0
18, 195930, Note_on_c, 14, 45, 100
18, 195953, Note_on_c, 14, 45, 0
18, 195960, Note_on_c, 14, 43, 100
18, 196007, Note_on_c, 14, 43, 0
18, 196020, Note_on_c, 14, 45, 100
18, 196067, Note_on_c, 14, 45, 0
18, 196080, Note_on_c, 14, 38, 100
18, 196224, Note_on_c, 14, 38, 0
18, 196224, End_track
19, 0, Start_track
19, 0, MIDI_port, 0
19, 0, Title_t, "Continuo"
19, 0, Program_c, 15, 42
19, 0, Control_c, 15, 7, 127
19, 0, Control_c, 15, 10, 75
19, 840, Note_on_c, 15, 38, 80
19, 887, Note_on_c, 15, 38, 0
19, 900, Note_on_c, 15, 50, 90
19, 947, Note_on_c, 15, 50, 0
19, 960, Note_on_c, 15, 54, 80
19, 1007, Note_on_c, 15, 54, 0
19, 1020, Note_on_c, 15, 50, 80
19, 1067, Note_on_c, 15, 50, 0
19, 1080, Note_on_c, 15, 49, 90
19, 1127, Note_on_c, 15, 49, 0
19, 1140, Note_on_c, 15, 45, 80
19, 1187, Note_on_c, 15, 45, 0
19, 1200, Note_on_c, 15, 49, 80
19, 1247, Note_on_c, 15, 49, 0
19, 1260, Note_on_c, 15, 50, 90
19, 1307, Note_on_c, 15, 50, 0
19, 1320, Note_on_c, 15, 57, 80
19, 1367, Note_on_c, 15, 57, 0
19, 1380, Note_on_c, 15, 45, 80
19, 1427, Note_on_c, 15, 45, 0
19, 1440, Note_on_c, 15, 50, 90
19, 1487, Note_on_c, 15, 50, 0
19, 1500, Note_on_c, 15, 42, 80
19, 1547, Note_on_c, 15, 42, 0
19, 1560, Note_on_c, 15, 45, 80
19, 1607, Note_on_c, 15, 45, 0
19, 1620, Note_on_c, 15, 50, 90
19, 1715, Note_on_c, 15, 50, 0
19, 2280, Note_on_c, 15, 57, 80
19, 2327, Note_on_c, 15, 57, 0
19, 2340, Note_on_c, 15, 50, 90
19, 2435, Note_on_c, 15, 50, 0
19, 2460, Note_on_c, 15, 59, 80
19, 2507, Note_on_c, 15, 59, 0
19, 2520, Note_on_c, 15, 49, 90
19, 2615, Note_on_c, 15, 49, 0
19, 2640, Note_on_c, 15, 57, 80
19, 2687, Note_on_c, 15, 57, 0
19, 2700, Note_on_c, 15, 47, 90
19, 2747, Note_on_c, 15, 47, 0
19, 2760, Note_on_c, 15, 49, 80
19, 2807, Note_on_c, 15, 49, 0
19, 2820, Note_on_c, 15, 50, 80
19, 2867, Note_on_c, 15, 50, 0
19, 2880, Note_on_c, 15, 45, 90
19, 2927, Note_on_c, 15, 45, 0
19, 2940, Note_on_c, 15, 49, 80
19, 2987, Note_on_c, 15, 49, 0
19, 3000, Note_on_c, 15, 45, 80
19, 3047, Note_on_c, 15, 45, 0
19, 3060, Note_on_c, 15, 50, 90
19, 3089, Note_on_c, 15, 50, 0
19, 3090, Note_on_c, 15, 49, 90
19, 3119, Note_on_c, 15, 49, 0
19, 3120, Note_on_c, 15, 54, 80
19, 3149, Note_on_c, 15, 54, 0
19, 3150, Note_on_c, 15, 52, 80
19, 3179, Note_on_c, 15, 52, 0
19, 3180, Note_on_c, 15, 50, 80
19, 3209, Note_on_c, 15, 50, 0
19, 3210, Note_on_c, 15, 49, 80
19, 3239, Note_on_c, 15, 49, 0
19, 3240, Note_on_c, 15, 50, 90
19, 3269, Note_on_c, 15, 50, 0
19, 3270, Note_on_c, 15, 47, 90
19, 3299, Note_on_c, 15, 47, 0
19, 3300, Note_on_c, 15, 52, 80
19, 3329, Note_on_c, 15, 52, 0
19, 3330, Note_on_c, 15, 50, 80
19, 3359, Note_on_c, 15, 50, 0
19, 3360, Note_on_c, 15, 49, 80
19, 3389, Note_on_c, 15, 49, 0
19, 3390, Note_on_c, 15, 47, 80
19, 3419, Note_on_c, 15, 47, 0
19, 3420, Note_on_c, 15, 45, 90
19, 3467, Note_on_c, 15, 45, 0
19, 3480, Note_on_c, 15, 38, 80
19, 3527, Note_on_c, 15, 38, 0
19, 3540, Note_on_c, 15, 40, 80
19, 3587, Note_on_c, 15, 40, 0
19, 3600, Note_on_c, 15, 42, 65
19, 3629, Note_on_c, 15, 42, 0
19, 3630, Note_on_c, 15, 54, 65
19, 3659, Note_on_c, 15, 54, 0
19, 3660, Note_on_c, 15, 54, 65
19, 3689, Note_on_c, 15, 54, 0
19, 3690, Note_on_c, 15, 54, 65
19, 3719, Note_on_c, 15, 54, 0
19, 3720, Note_on_c, 15, 54, 65
19, 3749, Note_on_c, 15, 54, 0
19, 3750, Note_on_c, 15, 54, 65
19, 3779, Note_on_c, 15, 54, 0
19, 3780, Note_on_c, 15, 40, 65
19, 3809, Note_on_c, 15, 40, 0
19, 3810, Note_on_c, 15, 52, 65
19, 3839, Note_on_c, 15, 52, 0
19, 3840, Note_on_c, 15, 52, 65
19, 3869, Note_on_c, 15, 52, 0
19, 3870, Note_on_c, 15, 52, 65
19, 3899, Note_on_c, 15, 52, 0
19, 3900, Note_on_c, 15, 52, 65
19, 3929, Note_on_c, 15, 52, 0
19, 3930, Note_on_c, 15, 52, 65
19, 3959, Note_on_c, 15, 52, 0
19, 3960, Note_on_c, 15, 39, 65
19, 3989, Note_on_c, 15, 39, 0
19, 3990, Note_on_c, 15, 51, 65
19, 4019, Note_on_c, 15, 51, 0
19, 4020, Note_on_c, 15, 51, 65
19, 4049, Note_on_c, 15, 51, 0
19, 4050, Note_on_c, 15, 51, 65
19, 4079, Note_on_c, 15, 51, 0
19, 4080, Note_on_c, 15, 51, 65
19, 4109, Note_on_c, 15, 51, 0
19, 4110, Note_on_c, 15, 51, 65
19, 4139, Note_on_c, 15, 51, 0
19, 4140, Note_on_c, 15, 52, 65
19, 4169, Note_on_c, 15, 52, 0
19, 4170, Note_on_c, 15, 50, 90
19, 4199, Note_on_c, 15, 50, 0
19, 4200, Note_on_c, 15, 49, 80
19, 4229, Note_on_c, 15, 49, 0
19, 4230, Note_on_c, 15, 50, 80
19, 4259, Note_on_c, 15, 50, 0
19, 4260, Note_on_c, 15, 52, 80
19, 4307, Note_on_c, 15, 52, 0
19, 4320, Note_on_c, 15, 45, 90
19, 4415, Note_on_c, 15, 45, 0
19, 4920, Note_on_c, 15, 43, 80
19, 4967, Note_on_c, 15, 43, 0
19, 4980, Note_on_c, 15, 47, 80
19, 5027, Note_on_c, 15, 47, 0
19, 5040, Note_on_c, 15, 40, 90
19, 5087, Note_on_c, 15, 40, 0
19, 5100, Note_on_c, 15, 43, 80
19, 5147, Note_on_c, 15, 43, 0
19, 5160, Note_on_c, 15, 47, 80
19, 5207, Note_on_c, 15, 47, 0
19, 5220, Note_on_c, 15, 52, 90
19, 5315, Note_on_c, 15, 52, 0
19, 5640, Note_on_c, 15, 42, 80
19, 5687, Note_on_c, 15, 42, 0
19, 5700, Note_on_c, 15, 45, 80
19, 5747, Note_on_c, 15, 45, 0
19, 5760, Note_on_c, 15, 50, 90
19, 5819, Note_on_c, 15, 50, 0
19, 5820, Note_on_c, 15, 52, 80
19, 5867, Note_on_c, 15, 52, 0
19, 5880, Note_on_c, 15, 54, 80
19, 5927, Note_on_c, 15, 54, 0
19, 5940, Note_on_c, 15, 55, 90
19, 5999, Note_on_c, 15, 55, 0
19, 6000, Note_on_c, 15, 54, 80
19, 6047, Note_on_c, 15, 54, 0
19, 6060, Note_on_c, 15, 52, 80
19, 6107, Note_on_c, 15, 52, 0
19, 6120, Note_on_c, 15, 54, 90
19, 6179, Note_on_c, 15, 54, 0
19, 6180, Note_on_c, 15, 52, 80
19, 6227, Note_on_c, 15, 52, 0
19, 6240, Note_on_c, 15, 50, 80
19, 6287, Note_on_c, 15, 50, 0
19, 6300, Note_on_c, 15, 59, 90
19, 6359, Note_on_c, 15, 59, 0
19, 6360, Note_on_c, 15, 57, 80
19, 6407, Note_on_c, 15, 57, 0
19, 6420, Note_on_c, 15, 55, 80
19, 6467, Note_on_c, 15, 55, 0
19, 6480, Note_on_c, 15, 57, 90
19, 6539, Note_on_c, 15, 57, 0
19, 6540, Note_on_c, 15, 55, 80
19, 6587, Note_on_c, 15, 55, 0
19, 6600, Note_on_c, 15, 54, 80
19, 6647, Note_on_c, 15, 54, 0
19, 6660, Note_on_c, 15, 56, 90
19, 6719, Note_on_c, 15, 56, 0
19, 6720, Note_on_c, 15, 52, 80
19, 6767, Note_on_c, 15, 52, 0
19, 6780, Note_on_c, 15, 56, 80
19, 6827, Note_on_c, 15, 56, 0
19, 6840, Note_on_c, 15, 57, 90
19, 6887, Note_on_c, 15, 57, 0
19, 6900, Note_on_c, 15, 57, 80
19, 6947, Note_on_c, 15, 57, 0
19, 6960, Note_on_c, 15, 57, 80
19, 7007, Note_on_c, 15, 57, 0
19, 7020, Note_on_c, 15, 58, 90
19, 7079, Note_on_c, 15, 58, 0
19, 7080, Note_on_c, 15, 54, 80
19, 7127, Note_on_c, 15, 54, 0
19, 7140, Note_on_c, 15, 58, 80
19, 7187, Note_on_c, 15, 58, 0
19, 7200, Note_on_c, 15, 59, 90
19, 7247, Note_on_c, 15, 59, 0
19, 7260, Note_on_c, 15, 59, 80
19, 7307, Note_on_c, 15, 59, 0
19, 7320, Note_on_c, 15, 59, 80
19, 7367, Note_on_c, 15, 59, 0
19, 7380, Note_on_c, 15, 46, 90
19, 7427, Note_on_c, 15, 46, 0
19, 7440, Note_on_c, 15, 46, 80
19, 7487, Note_on_c, 15, 46, 0
19, 7500, Note_on_c, 15, 46, 80
19, 7547, Note_on_c, 15, 46, 0
19, 7560, Note_on_c, 15, 40, 90
19, 7607, Note_on_c, 15, 40, 0
19, 7620, Note_on_c, 15, 40, 80
19, 7667, Note_on_c, 15, 40, 0
19, 7680, Note_on_c, 15, 40, 80
19, 7727, Note_on_c, 15, 40, 0
19, 7740, Note_on_c, 15, 42, 90
19, 7799, Note_on_c, 15, 42, 0
19, 7800, Note_on_c, 15, 43, 80
19, 7847, Note_on_c, 15, 43, 0
19, 7860, Note_on_c, 15, 45, 80
19, 7907, Note_on_c, 15, 45, 0
19, 7920, Note_on_c, 15, 47, 65
19, 7949, Note_on_c, 15, 47, 0
19, 7950, Note_on_c, 15, 59, 65
19, 7979, Note_on_c, 15, 59, 0
19, 7980, Note_on_c, 15, 59, 65
19, 8009, Note_on_c, 15, 59, 0
19, 8010, Note_on_c, 15, 59, 65
19, 8039, Note_on_c, 15, 59, 0
19, 8040, Note_on_c, 15, 59, 65
19, 8069, Note_on_c, 15, 59, 0
19, 8070, Note_on_c, 15, 59, 65
19, 8099, Note_on_c, 15, 59, 0
19, 8100, Note_on_c, 15, 45, 65
19, 8129, Note_on_c, 15, 45, 0
19, 8130, Note_on_c, 15, 57, 65
19, 8159, Note_on_c, 15, 57, 0
19, 8160, Note_on_c, 15, 57, 65
19, 8189, Note_on_c, 15, 57, 0
19, 8190, Note_on_c, 15, 57, 65
19, 8219, Note_on_c, 15, 57, 0
19, 8220, Note_on_c, 15, 57, 65
19, 8249, Note_on_c, 15, 57, 0
19, 8250, Note_on_c, 15, 57, 65
19, 8279, Note_on_c, 15, 57, 0
19, 8280, Note_on_c, 15, 44, 65
19, 8309, Note_on_c, 15, 44, 0
19, 8310, Note_on_c, 15, 56, 65
19, 8339, Note_on_c, 15, 56, 0
19, 8340, Note_on_c, 15, 56, 65
19, 8369, Note_on_c, 15, 56, 0
19, 8370, Note_on_c, 15, 56, 65
19, 8399, Note_on_c, 15, 56, 0
19, 8400, Note_on_c, 15, 56, 80
19, 8429, Note_on_c, 15, 56, 0
19, 8430, Note_on_c, 15, 56, 80
19, 8459, Note_on_c, 15, 56, 0
19, 8460, Note_on_c, 15, 57, 90
19, 8507, Note_on_c, 15, 57, 0
19, 8520, Note_on_c, 15, 42, 80
19, 8567, Note_on_c, 15, 42, 0
19, 8580, Note_on_c, 15, 45, 80
19, 8627, Note_on_c, 15, 45, 0
19, 8640, Note_on_c, 15, 38, 90
19, 8735, Note_on_c, 15, 38, 0
19, 8760, Note_on_c, 15, 50, 80
19, 8789, Note_on_c, 15, 50, 0
19, 8790, Note_on_c, 15, 52, 80
19, 8819, Note_on_c, 15, 52, 0
19, 8820, Note_on_c, 15, 54, 90
19, 8867, Note_on_c, 15, 54, 0
19, 8880, Note_on_c, 15, 52, 80
19, 8927, Note_on_c, 15, 52, 0
19, 8940, Note_on_c, 15, 50, 80
19, 8987, Note_on_c, 15, 50, 0
19, 9000, Note_on_c, 15, 49, 90
19, 9047, Note_on_c, 15, 49, 0
19, 9060, Note_on_c, 15, 45, 80
19, 9107, Note_on_c, 15, 45, 0
19, 9120, Note_on_c, 15, 49, 80
19, 9167, Note_on_c, 15, 49, 0
19, 9180, Note_on_c, 15, 50, 90
19, 9227, Note_on_c, 15, 50, 0
19, 9240, Note_on_c, 15, 43, 80
19, 9287, Note_on_c, 15, 43, 0
19, 9300, Note_on_c, 15, 45, 80
19, 9347, Note_on_c, 15, 45, 0
19, 9360, Note_on_c, 15, 50, 90
19, 9407, Note_on_c, 15, 50, 0
19, 9420, Note_on_c, 15, 49, 80
19, 9467, Note_on_c, 15, 49, 0
19, 9480, Note_on_c, 15, 47, 80
19, 9527, Note_on_c, 15, 47, 0
19, 9540, Note_on_c, 15, 49, 90
19, 9587, Note_on_c, 15, 49, 0
19, 9600, Note_on_c, 15, 47, 80
19, 9647, Note_on_c, 15, 47, 0
19, 9660, Note_on_c, 15, 45, 80
19, 9707, Note_on_c, 15, 45, 0
19, 9720, Note_on_c, 15, 44, 90
19, 9767, Note_on_c, 15, 44, 0
19, 9780, Note_on_c, 15, 52, 80
19, 9827, Note_on_c, 15, 52, 0
19, 9840, Note_on_c, 15, 44, 80
19, 9887, Note_on_c, 15, 44, 0
19, 9900, Note_on_c, 15, 45, 90
19, 9947, Note_on_c, 15, 45, 0
19, 9960, Note_on_c, 15, 38, 80
19, 10007, Note_on_c, 15, 38, 0
19, 10020, Note_on_c, 15, 40, 80
19, 10067, Note_on_c, 15, 40, 0
19, 10080, Note_on_c, 15, 45, 90
19, 10127, Note_on_c, 15, 45, 0
19, 10140, Note_on_c, 15, 57, 80
19, 10187, Note_on_c, 15, 57, 0
19, 10200, Note_on_c, 15, 55, 80
19, 10247, Note_on_c, 15, 55, 0
19, 10260, Note_on_c, 15, 54, 90
19, 10307, Note_on_c, 15, 54, 0
19, 10320, Note_on_c, 15, 52, 80
19, 10367, Note_on_c, 15, 52, 0
19, 10380, Note_on_c, 15, 50, 80
19, 10427, Note_on_c, 15, 50, 0
19, 10440, Note_on_c, 15, 49, 90
19, 10487, Note_on_c, 15, 49, 0
19, 10500, Note_on_c, 15, 57, 80
19, 10547, Note_on_c, 15, 57, 0
19, 10560, Note_on_c, 15, 49, 80
19, 10607, Note_on_c, 15, 49, 0
19, 10620, Note_on_c, 15, 50, 90
19, 10667, Note_on_c, 15, 50, 0
19, 10680, Note_on_c, 15, 57, 80
19, 10727, Note_on_c, 15, 57, 0
19, 10740, Note_on_c, 15, 45, 80
19, 10787, Note_on_c, 15, 45, 0
19, 10800, Note_on_c, 15, 50, 90
19, 10847, Note_on_c, 15, 50, 0
19, 10860, Note_on_c, 15, 38, 80
19, 10907, Note_on_c, 15, 38, 0
19, 10920, Note_on_c, 15, 50, 80
19, 10967, Note_on_c, 15, 50, 0
19, 10980, Note_on_c, 15, 57, 90
19, 11075, Note_on_c, 15, 57, 0
19, 11100, Note_on_c, 15, 52, 80
19, 11148, Note_on_c, 15, 52, 0
19, 11160, Note_on_c, 15, 59, 90
19, 11255, Note_on_c, 15, 59, 0
19, 11280, Note_on_c, 15, 52, 80
19, 11327, Note_on_c, 15, 52, 0
19, 11340, Note_on_c, 15, 61, 90
19, 11387, Note_on_c, 15, 61, 0
19, 11400, Note_on_c, 15, 59, 80
19, 11429, Note_on_c, 15, 59, 0
19, 11430, Note_on_c, 15, 61, 80
19, 11459, Note_on_c, 15, 61, 0
19, 11460, Note_on_c, 15, 62, 80
19, 11489, Note_on_c, 15, 62, 0
19, 11490, Note_on_c, 15, 59, 80
19, 11519, Note_on_c, 15, 59, 0
19, 11520, Note_on_c, 15, 61, 90
19, 11567, Note_on_c, 15, 61, 0
19, 11580, Note_on_c, 15, 57, 80
19, 11627, Note_on_c, 15, 57, 0
19, 11640, Note_on_c, 15, 55, 80
19, 11687, Note_on_c, 15, 55, 0
19, 11700, Note_on_c, 15, 54, 90
19, 11747, Note_on_c, 15, 54, 0
19, 11760, Note_on_c, 15, 52, 80
19, 11807, Note_on_c, 15, 52, 0
19, 11820, Note_on_c, 15, 50, 80
19, 11867, Note_on_c, 15, 50, 0
19, 11880, Note_on_c, 15, 49, 90
19, 11927, Note_on_c, 15, 49, 0
19, 11940, Note_on_c, 15, 57, 80
19, 11987, Note_on_c, 15, 57, 0
19, 12000, Note_on_c, 15, 49, 80
19, 12047, Note_on_c, 15, 49, 0
19, 12060, Note_on_c, 15, 50, 90
19, 12107, Note_on_c, 15, 50, 0
19, 12120, Note_on_c, 15, 57, 80
19, 12167, Note_on_c, 15, 57, 0
19, 12180, Note_on_c, 15, 45, 80
19, 12227, Note_on_c, 15, 45, 0
19, 12240, Note_on_c, 15, 50, 90
19, 12287, Note_on_c, 15, 50, 0
19, 12300, Note_on_c, 15, 38, 80
19, 12347, Note_on_c, 15, 38, 0
19, 12360, Note_on_c, 15, 49, 80
19, 12407, Note_on_c, 15, 49, 0
19, 12420, Note_on_c, 15, 47, 90
19, 12467, Note_on_c, 15, 47, 0
19, 12480, Note_on_c, 15, 49, 80
19, 12527, Note_on_c, 15, 49, 0
19, 12540, Note_on_c, 15, 50, 80
19, 12587, Note_on_c, 15, 50, 0
19, 12600, Note_on_c, 15, 49, 90
19, 12647, Note_on_c, 15, 49, 0
19, 12660, Note_on_c, 15, 47, 80
19, 12707, Note_on_c, 15, 47, 0
19, 12720, Note_on_c, 15, 49, 80
19, 12767, Note_on_c, 15, 49, 0
19, 12780, Note_on_c, 15, 50, 90
19, 12827, Note_on_c, 15, 50, 0
19, 12840, Note_on_c, 15, 43, 80
19, 12887, Note_on_c, 15, 43, 0
19, 12900, Note_on_c, 15, 45, 80
19, 12947, Note_on_c, 15, 45, 0
19, 12960, Note_on_c, 15, 50, 90
19, 13007, Note_on_c, 15, 50, 0
19, 13020, Note_on_c, 15, 49, 80
19, 13067, Note_on_c, 15, 49, 0
19, 13080, Note_on_c, 15, 47, 80
19, 13127, Note_on_c, 15, 47, 0
19, 13140, Note_on_c, 15, 49, 90
19, 13187, Note_on_c, 15, 49, 0
19, 13200, Note_on_c, 15, 47, 80
19, 13247, Note_on_c, 15, 47, 0
19, 13260, Note_on_c, 15, 45, 80
19, 13307, Note_on_c, 15, 45, 0
19, 13320, Note_on_c, 15, 44, 90
19, 13367, Note_on_c, 15, 44, 0
19, 13380, Note_on_c, 15, 52, 80
19, 13427, Note_on_c, 15, 52, 0
19, 13440, Note_on_c, 15, 44, 80
19, 13487, Note_on_c, 15, 44, 0
19, 13500, Note_on_c, 15, 45, 90
19, 13547, Note_on_c, 15, 45, 0
19, 13560, Note_on_c, 15, 38, 80
19, 13607, Note_on_c, 15, 38, 0
19, 13620, Note_on_c, 15, 40, 80
19, 13667, Note_on_c, 15, 40, 0
19, 13680, Note_on_c, 15, 45, 90
19, 13727, Note_on_c, 15, 45, 0
19, 13740, Note_on_c, 15, 57, 80
19, 13787, Note_on_c, 15, 57, 0
19, 13800, Note_on_c, 15, 55, 80
19, 13847, Note_on_c, 15, 55, 0
19, 13860, Note_on_c, 15, 54, 90
19, 13907, Note_on_c, 15, 54, 0
19, 13920, Note_on_c, 15, 52, 80
19, 13967, Note_on_c, 15, 52, 0
19, 13980, Note_on_c, 15, 50, 80
19, 14027, Note_on_c, 15, 50, 0
19, 14040, Note_on_c, 15, 49, 90
19, 14087, Note_on_c, 15, 49, 0
19, 14100, Note_on_c, 15, 57, 80
19, 14147, Note_on_c, 15, 57, 0
19, 14160, Note_on_c, 15, 49, 80
19, 14207, Note_on_c, 15, 49, 0
19, 14220, Note_on_c, 15, 50, 90
19, 14267, Note_on_c, 15, 50, 0
19, 14280, Note_on_c, 15, 57, 80
19, 14327, Note_on_c, 15, 57, 0
19, 14340, Note_on_c, 15, 45, 80
19, 14387, Note_on_c, 15, 45, 0
19, 14400, Note_on_c, 15, 50, 90
19, 14447, Note_on_c, 15, 50, 0
19, 14460, Note_on_c, 15, 38, 80
19, 14507, Note_on_c, 15, 38, 0
19, 14520, Note_on_c, 15, 50, 80
19, 14567, Note_on_c, 15, 50, 0
19, 14580, Note_on_c, 15, 57, 90
19, 14675, Note_on_c, 15, 57, 0
19, 14700, Note_on_c, 15, 52, 80
19, 14747, Note_on_c, 15, 52, 0
19, 14760, Note_on_c, 15, 59, 90
19, 14855, Note_on_c, 15, 59, 0
19, 14880, Note_on_c, 15, 52, 80
19, 14927, Note_on_c, 15, 52, 0
19, 14940, Note_on_c, 15, 61, 90
19, 14987, Note_on_c, 15, 61, 0
19, 15000, Note_on_c, 15, 59, 80
19, 15029, Note_on_c, 15, 59, 0
19, 15030, Note_on_c, 15, 61, 80
19, 15059, Note_on_c, 15, 61, 0
19, 15060, Note_on_c, 15, 62, 80
19, 15089, Note_on_c, 15, 62, 0
19, 15090, Note_on_c, 15, 59, 80
19, 15119, Note_on_c, 15, 59, 0
19, 15120, Note_on_c, 15, 61, 90
19, 15167, Note_on_c, 15, 61, 0
19, 15180, Note_on_c, 15, 57, 80
19, 15227, Note_on_c, 15, 57, 0
19, 15240, Note_on_c, 15, 55, 80
19, 15287, Note_on_c, 15, 55, 0
19, 15300, Note_on_c, 15, 54, 90
19, 15347, Note_on_c, 15, 54, 0
19, 15360, Note_on_c, 15, 52, 80
19, 15407, Note_on_c, 15, 52, 0
19, 15420, Note_on_c, 15, 50, 80
19, 15467, Note_on_c, 15, 50, 0
19, 15480, Note_on_c, 15, 49, 90
19, 15527, Note_on_c, 15, 49, 0
19, 15540, Note_on_c, 15, 57, 80
19, 15587, Note_on_c, 15, 57, 0
19, 15600, Note_on_c, 15, 49, 80
19, 15647, Note_on_c, 15, 49, 0
19, 15660, Note_on_c, 15, 50, 90
19, 15707, Note_on_c, 15, 50, 0
19, 15720, Note_on_c, 15, 57, 80
19, 15767, Note_on_c, 15, 57, 0
19, 15780, Note_on_c, 15, 45, 80
19, 15827, Note_on_c, 15, 45, 0
19, 15840, Note_on_c, 15, 50, 90
19, 15887, Note_on_c, 15, 50, 0
19, 15900, Note_on_c, 15, 38, 80
19, 15947, Note_on_c, 15, 38, 0
19, 15960, Note_on_c, 15, 45, 80
19, 16007, Note_on_c, 15, 45, 0
19, 16020, Note_on_c, 15, 50, 90
19, 16067, Note_on_c, 15, 50, 0
19, 16080, Note_on_c, 15, 43, 80
19, 16109, Note_on_c, 15, 43, 0
19, 16110, Note_on_c, 15, 42, 80
19, 16139, Note_on_c, 15, 42, 0
19, 16140, Note_on_c, 15, 43, 80
19, 16235, Note_on_c, 15, 43, 0
19, 16260, Note_on_c, 15, 42, 80
19, 16289, Note_on_c, 15, 42, 0
19, 16290, Note_on_c, 15, 40, 80
19, 16319, Note_on_c, 15, 40, 0
19, 16320, Note_on_c, 15, 42, 80
19, 16415, Note_on_c, 15, 42, 0
19, 16440, Note_on_c, 15, 40, 80
19, 16487, Note_on_c, 15, 40, 0
19, 16500, Note_on_c, 15, 38, 80
19, 16547, Note_on_c, 15, 38, 0
19, 16560, Note_on_c, 15, 45, 90
19, 16607, Note_on_c, 15, 45, 0
19, 16620, Note_on_c, 15, 49, 80
19, 16667, Note_on_c, 15, 49, 0
19, 16680, Note_on_c, 15, 52, 80
19, 16727, Note_on_c, 15, 52, 0
19, 16740, Note_on_c, 15, 57, 90
19, 16787, Note_on_c, 15, 57, 0
19, 16800, Note_on_c, 15, 50, 80
19, 16829, Note_on_c, 15, 50, 0
19, 16830, Note_on_c, 15, 49, 80
19, 16859, Note_on_c, 15, 49, 0
19, 16860, Note_on_c, 15, 50, 80
19, 16955, Note_on_c, 15, 50, 0
19, 16980, Note_on_c, 15, 49, 80
19, 17009, Note_on_c, 15, 49, 0
19, 17010, Note_on_c, 15, 47, 80
19, 17039, Note_on_c, 15, 47, 0
19, 17040, Note_on_c, 15, 49, 80
19, 17135, Note_on_c, 15, 49, 0
19, 17160, Note_on_c, 15, 47, 80
19, 17207, Note_on_c, 15, 47, 0
19, 17220, Note_on_c, 15, 45, 80
19, 17267, Note_on_c, 15, 45, 0
19, 17280, Note_on_c, 15, 40, 90
19, 17327, Note_on_c, 15, 40, 0
19, 17340, Note_on_c, 15, 52, 80
19, 17387, Note_on_c, 15, 52, 0
19, 17400, Note_on_c, 15, 50, 80
19, 17447, Note_on_c, 15, 50, 0
19, 17460, Note_on_c, 15, 49, 90
19, 17489, Note_on_c, 15, 49, 0
19, 17490, Note_on_c, 15, 47, 90
19, 17519, Note_on_c, 15, 47, 0
19, 17520, Note_on_c, 15, 49, 80
19, 17549, Note_on_c, 15, 49, 0
19, 17550, Note_on_c, 15, 50, 80
19, 17579, Note_on_c, 15, 50, 0
19, 17580, Note_on_c, 15, 52, 80
19, 17627, Note_on_c, 15, 52, 0
19, 17640, Note_on_c, 15, 45, 90
19, 17687, Note_on_c, 15, 45, 0
19, 17700, Note_on_c, 15, 57, 80
19, 17747, Note_on_c, 15, 57, 0
19, 17760, Note_on_c, 15, 55, 80
19, 17807, Note_on_c, 15, 55, 0
19, 17820, Note_on_c, 15, 54, 90
19, 17849, Note_on_c, 15, 54, 0
19, 17850, Note_on_c, 15, 52, 90
19, 17879, Note_on_c, 15, 52, 0
19, 17880, Note_on_c, 15, 54, 80
19, 17909, Note_on_c, 15, 54, 0
19, 17910, Note_on_c, 15, 55, 80
19, 17939, Note_on_c, 15, 55, 0
19, 17940, Note_on_c, 15, 57, 80
19, 17987, Note_on_c, 15, 57, 0
19, 18000, Note_on_c, 15, 50, 90
19, 18047, Note_on_c, 15, 50, 0
19, 18060, Note_on_c, 15, 52, 80
19, 18107, Note_on_c, 15, 52, 0
19, 18120, Note_on_c, 15, 54, 80
19, 18167, Note_on_c, 15, 54, 0
19, 18180, Note_on_c, 15, 43, 90
19, 18275, Note_on_c, 15, 43, 0
19, 18300, Note_on_c, 15, 52, 80
19, 18347, Note_on_c, 15, 52, 0
19, 18360, Note_on_c, 15, 42, 90
19, 18455, Note_on_c, 15, 42, 0
19, 18480, Note_on_c, 15, 50, 80
19, 18527, Note_on_c, 15, 50, 0
19, 18540, Note_on_c, 15, 40, 90
19, 18587, Note_on_c, 15, 40, 0
19, 18600, Note_on_c, 15, 42, 80
19, 18647, Note_on_c, 15, 42, 0
19, 18660, Note_on_c, 15, 43, 80
19, 18731, Note_on_c, 15, 43, 0
19, 18750, Note_on_c, 15, 55, 90
19, 18779, Note_on_c, 15, 55, 0
19, 18780, Note_on_c, 15, 54, 80
19, 18809, Note_on_c, 15, 54, 0
19, 18810, Note_on_c, 15, 52, 80
19, 18839, Note_on_c, 15, 52, 0
19, 18840, Note_on_c, 15, 50, 80
19, 18869, Note_on_c, 15, 50, 0
19, 18870, Note_on_c, 15, 49, 80
19, 18899, Note_on_c, 15, 49, 0
19, 18900, Note_on_c, 15, 50, 90
19, 18995, Note_on_c, 15, 50, 0
19, 19020, Note_on_c, 15, 59, 80
19, 19067, Note_on_c, 15, 59, 0
19, 19080, Note_on_c, 15, 49, 90
19, 19175, Note_on_c, 15, 49, 0
19, 19200, Note_on_c, 15, 57, 80
19, 19247, Note_on_c, 15, 57, 0
19, 19260, Note_on_c, 15, 47, 90
19, 19307, Note_on_c, 15, 47, 0
19, 19320, Note_on_c, 15, 49, 80
19, 19367, Note_on_c, 15, 49, 0
19, 19380, Note_on_c, 15, 50, 80
19, 19427, Note_on_c, 15, 50, 0
19, 19440, Note_on_c, 15, 57, 90
19, 19487, Note_on_c, 15, 57, 0
19, 19500, Note_on_c, 15, 49, 80
19, 19547, Note_on_c, 15, 49, 0
19, 19560, Note_on_c, 15, 45, 80
19, 19607, Note_on_c, 15, 45, 0
19, 19620, Note_on_c, 15, 50, 90
19, 19667, Note_on_c, 15, 50, 0
19, 19680, Note_on_c, 15, 43, 80
19, 19709, Note_on_c, 15, 43, 0
19, 19710, Note_on_c, 15, 42, 80
19, 19739, Note_on_c, 15, 42, 0
19, 19740, Note_on_c, 15, 43, 80
19, 19835, Note_on_c, 15, 43, 0
19, 19860, Note_on_c, 15, 42, 80
19, 19889, Note_on_c, 15, 42, 0
19, 19890, Note_on_c, 15, 40, 80
19, 19919, Note_on_c, 15, 40, 0
19, 19920, Note_on_c, 15, 42, 80
19, 20015, Note_on_c, 15, 42, 0
19, 20040, Note_on_c, 15, 40, 80
19, 20087, Note_on_c, 15, 40, 0
19, 20100, Note_on_c, 15, 38, 80
19, 20147, Note_on_c, 15, 38, 0
19, 20160, Note_on_c, 15, 45, 90
19, 20207, Note_on_c, 15, 45, 0
19, 20220, Note_on_c, 15, 49, 80
19, 20267, Note_on_c, 15, 49, 0
19, 20280, Note_on_c, 15, 45, 80
19, 20327, Note_on_c, 15, 45, 0
19, 20340, Note_on_c, 15, 50, 90
19, 20369, Note_on_c, 15, 50, 0
19, 20370, Note_on_c, 15, 49, 90
19, 20399, Note_on_c, 15, 49, 0
19, 20400, Note_on_c, 15, 54, 80
19, 20429, Note_on_c, 15, 54, 0
19, 20430, Note_on_c, 15, 52, 80
19, 20459, Note_on_c, 15, 52, 0
19, 20460, Note_on_c, 15, 50, 80
19, 20489, Note_on_c, 15, 50, 0
19, 20490, Note_on_c, 15, 49, 80
19, 20519, Note_on_c, 15, 49, 0
19, 20520, Note_on_c, 15, 50, 90
19, 20549, Note_on_c, 15, 50, 0
19, 20550, Note_on_c, 15, 47, 90
19, 20579, Note_on_c, 15, 47, 0
19, 20580, Note_on_c, 15, 52, 80
19, 20609, Note_on_c, 15, 52, 0
19, 20610, Note_on_c, 15, 50, 80
19, 20639, Note_on_c, 15, 50, 0
19, 20640, Note_on_c, 15, 49, 80
19, 20669, Note_on_c, 15, 49, 0
19, 20670, Note_on_c, 15, 47, 80
19, 20699, Note_on_c, 15, 47, 0
19, 20700, Note_on_c, 15, 45, 90
19, 20747, Note_on_c, 15, 45, 0
19, 20760, Note_on_c, 15, 38, 80
19, 20807, Note_on_c, 15, 38, 0
19, 20820, Note_on_c, 15, 40, 80
19, 20867, Note_on_c, 15, 40, 0
19, 20880, Note_on_c, 15, 42, 70
19, 20909, Note_on_c, 15, 42, 0
19, 20910, Note_on_c, 15, 54, 70
19, 20939, Note_on_c, 15, 54, 0
19, 20940, Note_on_c, 15, 54, 70
19, 20969, Note_on_c, 15, 54, 0
19, 20970, Note_on_c, 15, 54, 70
19, 20999, Note_on_c, 15, 54, 0
19, 21000, Note_on_c, 15, 54, 70
19, 21029, Note_on_c, 15, 54, 0
19, 21030, Note_on_c, 15, 54, 70
19, 21059, Note_on_c, 15, 54, 0
19, 21060, Note_on_c, 15, 40, 70
19, 21089, Note_on_c, 15, 40, 0
19, 21090, Note_on_c, 15, 52, 70
19, 21119, Note_on_c, 15, 52, 0
19, 21120, Note_on_c, 15, 52, 70
19, 21149, Note_on_c, 15, 52, 0
19, 21150, Note_on_c, 15, 52, 70
19, 21179, Note_on_c, 15, 52, 0
19, 21180, Note_on_c, 15, 52, 70
19, 21209, Note_on_c, 15, 52, 0
19, 21210, Note_on_c, 15, 52, 70
19, 21239, Note_on_c, 15, 52, 0
19, 21240, Note_on_c, 15, 39, 70
19, 21269, Note_on_c, 15, 39, 0
19, 21270, Note_on_c, 15, 51, 70
19, 21299, Note_on_c, 15, 51, 0
19, 21300, Note_on_c, 15, 51, 70
19, 21329, Note_on_c, 15, 51, 0
19, 21330, Note_on_c, 15, 51, 70
19, 21359, Note_on_c, 15, 51, 0
19, 21360, Note_on_c, 15, 51, 70
19, 21389, Note_on_c, 15, 51, 0
19, 21390, Note_on_c, 15, 51, 70
19, 21419, Note_on_c, 15, 51, 0
19, 21420, Note_on_c, 15, 52, 70
19, 21449, Note_on_c, 15, 52, 0
19, 21450, Note_on_c, 15, 50, 90
19, 21479, Note_on_c, 15, 50, 0
19, 21480, Note_on_c, 15, 49, 90
19, 21509, Note_on_c, 15, 49, 0
19, 21510, Note_on_c, 15, 50, 90
19, 21539, Note_on_c, 15, 50, 0
19, 21540, Note_on_c, 15, 52, 90
19, 21587, Note_on_c, 15, 52, 0
19, 21600, Note_on_c, 15, 45, 90
19, 21647, Note_on_c, 15, 45, 0
19, 21660, Note_on_c, 15, 57, 80
19, 21719, Note_on_c, 15, 57, 0
19, 21720, Note_on_c, 15, 55, 80
19, 21767, Note_on_c, 15, 55, 0
19, 21780, Note_on_c, 15, 54, 90
19, 21827, Note_on_c, 15, 54, 0
19, 21840, Note_on_c, 15, 54, 80
19, 21899, Note_on_c, 15, 54, 0
19, 21900, Note_on_c, 15, 52, 80
19, 21947, Note_on_c, 15, 52, 0
19, 21960, Note_on_c, 15, 51, 90
19, 21990, Note_on_c, 15, 51, 0
19, 22020, Note_on_c, 15, 54, 80
19, 22049, Note_on_c, 15, 54, 0
19, 22050, Note_on_c, 15, 52, 80
19, 22079, Note_on_c, 15, 52, 0
19, 22080, Note_on_c, 15, 51, 80
19, 22109, Note_on_c, 15, 51, 0
19, 22110, Note_on_c, 15, 49, 80
19, 22139, Note_on_c, 15, 49, 0
19, 22140, Note_on_c, 15, 47, 90
19, 22187, Note_on_c, 15, 47, 0
19, 22200, Note_on_c, 15, 43, 80
19, 22247, Note_on_c, 15, 43, 0
19, 22260, Note_on_c, 15, 47, 80
19, 22307, Note_on_c, 15, 47, 0
19, 22320, Note_on_c, 15, 40, 90
19, 22367, Note_on_c, 15, 40, 0
19, 22380, Note_on_c, 15, 52, 80
19, 22439, Note_on_c, 15, 52, 0
19, 22440, Note_on_c, 15, 50, 80
19, 22487, Note_on_c, 15, 50, 0
19, 22500, Note_on_c, 15, 49, 90
19, 22547, Note_on_c, 15, 49, 0
19, 22560, Note_on_c, 15, 49, 80
19, 22619, Note_on_c, 15, 49, 0
19, 22620, Note_on_c, 15, 47, 80
19, 22667, Note_on_c, 15, 47, 0
19, 22680, Note_on_c, 15, 46, 90
19, 22710, Note_on_c, 15, 46, 0
19, 22740, Note_on_c, 15, 49, 80
19, 22769, Note_on_c, 15, 49, 0
19, 22770, Note_on_c, 15, 47, 80
19, 22799, Note_on_c, 15, 47, 0
19, 22800, Note_on_c, 15, 46, 80
19, 22829, Note_on_c, 15, 46, 0
19, 22830, Note_on_c, 15, 44, 80
19, 22859, Note_on_c, 15, 44, 0
19, 22860, Note_on_c, 15, 42, 90
19, 22907, Note_on_c, 15, 42, 0
19, 22920, Note_on_c, 15, 38, 80
19, 22967, Note_on_c, 15, 38, 0
19, 22980, Note_on_c, 15, 42, 80
19, 23027, Note_on_c, 15, 42, 0
19, 23040, Note_on_c, 15, 47, 90
19, 23087, Note_on_c, 15, 47, 0
19, 23100, Note_on_c, 15, 59, 80
19, 23159, Note_on_c, 15, 59, 0
19, 23160, Note_on_c, 15, 57, 80
19, 23207, Note_on_c, 15, 57, 0
19, 23220, Note_on_c, 15, 56, 90
19, 23267, Note_on_c, 15, 56, 0
19, 23280, Note_on_c, 15, 56, 80
19, 23339, Note_on_c, 15, 56, 0
19, 23340, Note_on_c, 15, 54, 80
19, 23387, Note_on_c, 15, 54, 0
19, 23400, Note_on_c, 15, 53, 90
19, 23430, Note_on_c, 15, 53, 0
19, 23460, Note_on_c, 15, 56, 80
19, 23489, Note_on_c, 15, 56, 0
19, 23490, Note_on_c, 15, 54, 80
19, 23519, Note_on_c, 15, 54, 0
19, 23520, Note_on_c, 15, 53, 80
19, 23549, Note_on_c, 15, 53, 0
19, 23550, Note_on_c, 15, 51, 80
19, 23579, Note_on_c, 15, 51, 0
19, 23580, Note_on_c, 15, 49, 90
19, 23627, Note_on_c, 15, 49, 0
19, 23640, Note_on_c, 15, 45, 80
19, 23687, Note_on_c, 15, 45, 0
19, 23700, Note_on_c, 15, 49, 80
19, 23747, Note_on_c, 15, 49, 0
19, 23760, Note_on_c, 15, 42, 90
19, 23807, Note_on_c, 15, 42, 0
19, 23820, Note_on_c, 15, 45, 80
19, 23867, Note_on_c, 15, 45, 0
19, 23880, Note_on_c, 15, 49, 80
19, 23927, Note_on_c, 15, 49, 0
19, 23940, Note_on_c, 15, 54, 90
19, 24035, Note_on_c, 15, 54, 0
19, 24060, Note_on_c, 15, 54, 80
19, 24107, Note_on_c, 15, 54, 0
19, 24120, Note_on_c, 15, 54, 90
19, 24167, Note_on_c, 15, 54, 0
19, 24180, Note_on_c, 15, 51, 80
19, 24209, Note_on_c, 15, 51, 0
19, 24210, Note_on_c, 15, 52, 80
19, 24239, Note_on_c, 15, 52, 0
19, 24240, Note_on_c, 15, 54, 80
19, 24287, Note_on_c, 15, 54, 0
19, 24300, Note_on_c, 15, 47, 90
19, 24347, Note_on_c, 15, 47, 0
19, 24360, Note_on_c, 15, 49, 80
19, 24407, Note_on_c, 15, 49, 0
19, 24420, Note_on_c, 15, 51, 80
19, 24467, Note_on_c, 15, 51, 0
19, 24480, Note_on_c, 15, 52, 90
19, 24527, Note_on_c, 15, 52, 0
19, 24540, Note_on_c, 15, 52, 80
19, 24599, Note_on_c, 15, 52, 0
19, 24600, Note_on_c, 15, 50, 80
19, 24647, Note_on_c, 15, 50, 0
19, 24660, Note_on_c, 15, 49, 90
19, 24707, Note_on_c, 15, 49, 0
19, 24720, Note_on_c, 15, 49, 80
19, 24779, Note_on_c, 15, 49, 0
19, 24780, Note_on_c, 15, 47, 80
19, 24827, Note_on_c, 15, 47, 0
19, 24840, Note_on_c, 15, 46, 90
19, 24870, Note_on_c, 15, 46, 0
19, 24900, Note_on_c, 15, 49, 80
19, 24929, Note_on_c, 15, 49, 0
19, 24930, Note_on_c, 15, 47, 80
19, 24959, Note_on_c, 15, 47, 0
19, 24960, Note_on_c, 15, 46, 80
19, 24989, Note_on_c, 15, 46, 0
19, 24990, Note_on_c, 15, 44, 80
19, 25019, Note_on_c, 15, 44, 0
19, 25020, Note_on_c, 15, 42, 90
19, 25067, Note_on_c, 15, 42, 0
19, 25080, Note_on_c, 15, 38, 80
19, 25127, Note_on_c, 15, 38, 0
19, 25140, Note_on_c, 15, 42, 80
19, 25187, Note_on_c, 15, 42, 0
19, 25200, Note_on_c, 15, 47, 90
19, 25247, Note_on_c, 15, 47, 0
19, 25260, Note_on_c, 15, 50, 80
19, 25307, Note_on_c, 15, 50, 0
19, 25320, Note_on_c, 15, 54, 80
19, 25367, Note_on_c, 15, 54, 0
19, 25380, Note_on_c, 15, 52, 90
19, 25409, Note_on_c, 15, 52, 0
19, 25410, Note_on_c, 15, 50, 90
19, 25439, Note_on_c, 15, 50, 0
19, 25440, Note_on_c, 15, 52, 80
19, 25469, Note_on_c, 15, 52, 0
19, 25470, Note_on_c, 15, 50, 80
19, 25499, Note_on_c, 15, 50, 0
19, 25500, Note_on_c, 15, 49, 80
19, 25529, Note_on_c, 15, 49, 0
19, 25530, Note_on_c, 15, 47, 80
19, 25559, Note_on_c, 15, 47, 0
19, 25560, Note_on_c, 15, 52, 90
19, 25607, Note_on_c, 15, 52, 0
19, 25620, Note_on_c, 15, 52, 80
19, 25679, Note_on_c, 15, 52, 0
19, 25680, Note_on_c, 15, 54, 80
19, 25727, Note_on_c, 15, 54, 0
19, 25740, Note_on_c, 15, 56, 90
19, 25799, Note_on_c, 15, 56, 0
19, 25800, Note_on_c, 15, 54, 80
19, 25847, Note_on_c, 15, 54, 0
19, 25860, Note_on_c, 15, 52, 80
19, 25907, Note_on_c, 15, 52, 0
19, 25920, Note_on_c, 15, 45, 90
19, 25967, Note_on_c, 15, 45, 0
19, 25980, Note_on_c, 15, 57, 80
19, 26039, Note_on_c, 15, 57, 0
19, 26040, Note_on_c, 15, 55, 80
19, 26087, Note_on_c, 15, 55, 0
19, 26100, Note_on_c, 15, 54, 90
19, 26147, Note_on_c, 15, 54, 0
19, 26160, Note_on_c, 15, 54, 80
19, 26219, Note_on_c, 15, 54, 0
19, 26220, Note_on_c, 15, 52, 80
19, 26267, Note_on_c, 15, 52, 0
19, 26280, Note_on_c, 15, 51, 90
19, 26310, Note_on_c, 15, 51, 0
19, 26340, Note_on_c, 15, 54, 80
19, 26369, Note_on_c, 15, 54, 0
19, 26370, Note_on_c, 15, 52, 80
19, 26399, Note_on_c, 15, 52, 0
19, 26400, Note_on_c, 15, 51, 80
19, 26429, Note_on_c, 15, 51, 0
19, 26430, Note_on_c, 15, 49, 80
19, 26459, Note_on_c, 15, 49, 0
19, 26460, Note_on_c, 15, 47, 90
19, 26507, Note_on_c, 15, 47, 0
19, 26520, Note_on_c, 15, 43, 80
19, 26567, Note_on_c, 15, 43, 0
19, 26580, Note_on_c, 15, 47, 80
19, 26627, Note_on_c, 15, 47, 0
19, 26640, Note_on_c, 15, 40, 90
19, 26687, Note_on_c, 15, 40, 0
19, 26700, Note_on_c, 15, 43, 80
19, 26747, Note_on_c, 15, 43, 0
19, 26760, Note_on_c, 15, 47, 80
19, 26807, Note_on_c, 15, 47, 0
19, 26820, Note_on_c, 15, 52, 90
19, 26850, Note_on_c, 15, 52, 0
19, 26880, Note_on_c, 15, 55, 80
19, 26909, Note_on_c, 15, 55, 0
19, 26910, Note_on_c, 15, 54, 80
19, 26939, Note_on_c, 15, 54, 0
19, 26940, Note_on_c, 15, 52, 80
19, 26969, Note_on_c, 15, 52, 0
19, 26970, Note_on_c, 15, 50, 80
19, 26999, Note_on_c, 15, 50, 0
19, 27000, Note_on_c, 15, 49, 90
19, 27030, Note_on_c, 15, 49, 0
19, 27060, Note_on_c, 15, 52, 80
19, 27089, Note_on_c, 15, 52, 0
19, 27090, Note_on_c, 15, 50, 80
19, 27119, Note_on_c, 15, 50, 0
19, 27120, Note_on_c, 15, 49, 80
19, 27149, Note_on_c, 15, 49, 0
19, 27150, Note_on_c, 15, 47, 80
19, 27179, Note_on_c, 15, 47, 0
19, 27180, Note_on_c, 15, 45, 90
19, 27227, Note_on_c, 15, 45, 0
19, 27240, Note_on_c, 15, 42, 80
19, 27287, Note_on_c, 15, 42, 0
19, 27300, Note_on_c, 15, 45, 80
19, 27347, Note_on_c, 15, 45, 0
19, 27360, Note_on_c, 15, 38, 90
19, 27390, Note_on_c, 15, 38, 0
19, 27420, Note_on_c, 15, 50, 80
19, 27449, Note_on_c, 15, 50, 0
19, 27450, Note_on_c, 15, 49, 80
19, 27479, Note_on_c, 15, 49, 0
19, 27480, Note_on_c, 15, 47, 80
19, 27509, Note_on_c, 15, 47, 0
19, 27510, Note_on_c, 15, 45, 80
19, 27539, Note_on_c, 15, 45, 0
19, 27540, Note_on_c, 15, 43, 90
19, 27587, Note_on_c, 15, 43, 0
19, 27600, Note_on_c, 15, 55, 80
19, 27647, Note_on_c, 15, 55, 0
19, 27660, Note_on_c, 15, 54, 80
19, 27707, Note_on_c, 15, 54, 0
19, 27720, Note_on_c, 15, 52, 90
19, 27767, Note_on_c, 15, 52, 0
19, 27780, Note_on_c, 15, 50, 80
19, 27827, Note_on_c, 15, 50, 0
19, 27840, Note_on_c, 15, 49, 80
19, 27887, Note_on_c, 15, 49, 0
19, 27900, Note_on_c, 15, 47, 90
19, 27947, Note_on_c, 15, 47, 0
19, 27960, Note_on_c, 15, 40, 80
19, 28007, Note_on_c, 15, 40, 0
19, 28020, Note_on_c, 15, 42, 80
19, 28067, Note_on_c, 15, 42, 0
19, 28080, Note_on_c, 15, 44, 70
19, 28109, Note_on_c, 15, 44, 0
19, 28110, Note_on_c, 15, 56, 70
19, 28139, Note_on_c, 15, 56, 0
19, 28140, Note_on_c, 15, 56, 70
19, 28169, Note_on_c, 15, 56, 0
19, 28170, Note_on_c, 15, 56, 70
19, 28199, Note_on_c, 15, 56, 0
19, 28200, Note_on_c, 15, 56, 70
19, 28229, Note_on_c, 15, 56, 0
19, 28230, Note_on_c, 15, 56, 70
19, 28259, Note_on_c, 15, 56, 0
19, 28260, Note_on_c, 15, 42, 70
19, 28289, Note_on_c, 15, 42, 0
19, 28290, Note_on_c, 15, 54, 70
19, 28319, Note_on_c, 15, 54, 0
19, 28320, Note_on_c, 15, 54, 70
19, 28349, Note_on_c, 15, 54, 0
19, 28350, Note_on_c, 15, 54, 70
19, 28379, Note_on_c, 15, 54, 0
19, 28380, Note_on_c, 15, 54, 70
19, 28409, Note_on_c, 15, 54, 0
19, 28410, Note_on_c, 15, 54, 70
19, 28439, Note_on_c, 15, 54, 0
19, 28440, Note_on_c, 15, 41, 70
19, 28469, Note_on_c, 15, 41, 0
19, 28470, Note_on_c, 15, 53, 70
19, 28499, Note_on_c, 15, 53, 0
19, 28500, Note_on_c, 15, 53, 70
19, 28529, Note_on_c, 15, 53, 0
19, 28530, Note_on_c, 15, 53, 70
19, 28559, Note_on_c, 15, 53, 0
19, 28560, Note_on_c, 15, 53, 70
19, 28589, Note_on_c, 15, 53, 0
19, 28590, Note_on_c, 15, 53, 70
19, 28619, Note_on_c, 15, 53, 0
19, 28620, Note_on_c, 15, 42, 70
19, 28649, Note_on_c, 15, 42, 0
19, 28650, Note_on_c, 15, 54, 90
19, 28679, Note_on_c, 15, 54, 0
19, 28680, Note_on_c, 15, 54, 80
19, 28709, Note_on_c, 15, 54, 0
19, 28710, Note_on_c, 15, 54, 80
19, 28739, Note_on_c, 15, 54, 0
19, 28740, Note_on_c, 15, 54, 80
19, 28769, Note_on_c, 15, 54, 0
19, 28770, Note_on_c, 15, 54, 80
19, 28799, Note_on_c, 15, 54, 0
19, 28800, Note_on_c, 15, 47, 90
19, 28895, Note_on_c, 15, 47, 0
19, 29640, Note_on_c, 15, 38, 80
19, 29687, Note_on_c, 15, 38, 0
19, 29700, Note_on_c, 15, 50, 90
19, 29747, Note_on_c, 15, 50, 0
19, 29760, Note_on_c, 15, 54, 80
19, 29807, Note_on_c, 15, 54, 0
19, 29820, Note_on_c, 15, 50, 80
19, 29867, Note_on_c, 15, 50, 0
19, 29880, Note_on_c, 15, 49, 90
19, 29927, Note_on_c, 15, 49, 0
19, 29940, Note_on_c, 15, 57, 80
19, 29987, Note_on_c, 15, 57, 0
19, 30000, Note_on_c, 15, 49, 80
19, 30047, Note_on_c, 15, 49, 0
19, 30060, Note_on_c, 15, 50, 90
19, 30107, Note_on_c, 15, 50, 0
19, 30120, Note_on_c, 15, 57, 80
19, 30167, Note_on_c, 15, 57, 0
19, 30180, Note_on_c, 15, 45, 80
19, 30227, Note_on_c, 15, 45, 0
19, 30240, Note_on_c, 15, 50, 90
19, 30287, Note_on_c, 15, 50, 0
19, 30300, Note_on_c, 15, 49, 80
19, 30347, Note_on_c, 15, 49, 0
19, 30360, Note_on_c, 15, 47, 80
19, 30407, Note_on_c, 15, 47, 0
19, 30420, Note_on_c, 15, 49, 90
19, 30467, Note_on_c, 15, 49, 0
19, 30480, Note_on_c, 15, 47, 80
19, 30527, Note_on_c, 15, 47, 0
19, 30540, Note_on_c, 15, 45, 80
19, 30587, Note_on_c, 15, 45, 0
19, 30600, Note_on_c, 15, 44, 90
19, 30647, Note_on_c, 15, 44, 0
19, 30660, Note_on_c, 15, 52, 80
19, 30707, Note_on_c, 15, 52, 0
19, 30720, Note_on_c, 15, 44, 80
19, 30767, Note_on_c, 15, 44, 0
19, 30780, Note_on_c, 15, 45, 90
19, 30827, Note_on_c, 15, 45, 0
19, 30840, Note_on_c, 15, 50, 80
19, 30887, Note_on_c, 15, 50, 0
19, 30900, Note_on_c, 15, 52, 80
19, 30947, Note_on_c, 15, 52, 0
19, 30960, Note_on_c, 15, 45, 90
19, 31007, Note_on_c, 15, 45, 0
19, 31020, Note_on_c, 15, 57, 80
19, 31067, Note_on_c, 15, 57, 0
19, 31080, Note_on_c, 15, 55, 80
19, 31127, Note_on_c, 15, 55, 0
19, 31140, Note_on_c, 15, 54, 90
19, 31187, Note_on_c, 15, 54, 0
19, 31200, Note_on_c, 15, 52, 80
19, 31247, Note_on_c, 15, 52, 0
19, 31260, Note_on_c, 15, 50, 80
19, 31307, Note_on_c, 15, 50, 0
19, 31320, Note_on_c, 15, 49, 90
19, 31367, Note_on_c, 15, 49, 0
19, 31380, Note_on_c, 15, 57, 80
19, 31427, Note_on_c, 15, 57, 0
19, 31440, Note_on_c, 15, 49, 80
19, 31487, Note_on_c, 15, 49, 0
19, 31500, Note_on_c, 15, 50, 90
19, 31547, Note_on_c, 15, 50, 0
19, 31560, Note_on_c, 15, 43, 80
19, 31607, Note_on_c, 15, 43, 0
19, 31620, Note_on_c, 15, 45, 80
19, 31667, Note_on_c, 15, 45, 0
19, 31680, Note_on_c, 15, 50, 90
19, 31727, Note_on_c, 15, 50, 0
19, 31740, Note_on_c, 15, 38, 80
19, 31787, Note_on_c, 15, 38, 0
19, 31800, Note_on_c, 15, 50, 80
19, 31847, Note_on_c, 15, 50, 0
19, 31860, Note_on_c, 15, 57, 90
19, 31955, Note_on_c, 15, 57, 0
19, 31980, Note_on_c, 15, 52, 80
19, 32027, Note_on_c, 15, 52, 0
19, 32040, Note_on_c, 15, 59, 90
19, 32135, Note_on_c, 15, 59, 0
19, 32160, Note_on_c, 15, 52, 80
19, 32207, Note_on_c, 15, 52, 0
19, 32220, Note_on_c, 15, 61, 90
19, 32267, Note_on_c, 15, 61, 0
19, 32280, Note_on_c, 15, 59, 80
19, 32309, Note_on_c, 15, 59, 0
19, 32310, Note_on_c, 15, 61, 80
19, 32339, Note_on_c, 15, 61, 0
19, 32340, Note_on_c, 15, 62, 80
19, 32369, Note_on_c, 15, 62, 0
19, 32370, Note_on_c, 15, 59, 80
19, 32399, Note_on_c, 15, 59, 0
19, 32400, Note_on_c, 15, 61, 90
19, 32447, Note_on_c, 15, 61, 0
19, 32460, Note_on_c, 15, 57, 80
19, 32507, Note_on_c, 15, 57, 0
19, 32520, Note_on_c, 15, 55, 80
19, 32567, Note_on_c, 15, 55, 0
19, 32580, Note_on_c, 15, 54, 90
19, 32627, Note_on_c, 15, 54, 0
19, 32640, Note_on_c, 15, 52, 80
19, 32687, Note_on_c, 15, 52, 0
19, 32700, Note_on_c, 15, 50, 80
19, 32747, Note_on_c, 15, 50, 0
19, 32760, Note_on_c, 15, 49, 90
19, 32807, Note_on_c, 15, 49, 0
19, 32820, Note_on_c, 15, 45, 80
19, 32867, Note_on_c, 15, 45, 0
19, 32880, Note_on_c, 15, 49, 80
19, 32927, Note_on_c, 15, 49, 0
19, 32940, Note_on_c, 15, 50, 90
19, 32987, Note_on_c, 15, 50, 0
19, 33000, Note_on_c, 15, 57, 80
19, 33047, Note_on_c, 15, 57, 0
19, 33060, Note_on_c, 15, 45, 80
19, 33107, Note_on_c, 15, 45, 0
19, 33120, Note_on_c, 15, 50, 90
19, 33167, Note_on_c, 15, 50, 0
19, 33180, Note_on_c, 15, 42, 80
19, 33227, Note_on_c, 15, 42, 0
19, 33240, Note_on_c, 15, 43, 80
19, 33287, Note_on_c, 15, 43, 0
19, 33300, Note_on_c, 15, 38, 90
19, 33347, Note_on_c, 15, 38, 0
19, 33360, Note_on_c, 15, 43, 80
19, 33389, Note_on_c, 15, 43, 0
19, 33390, Note_on_c, 15, 42, 80
19, 33419, Note_on_c, 15, 42, 0
19, 33420, Note_on_c, 15, 43, 80
19, 33515, Note_on_c, 15, 43, 0
19, 33540, Note_on_c, 15, 42, 80
19, 33569, Note_on_c, 15, 42, 0
19, 33570, Note_on_c, 15, 40, 80
19, 33599, Note_on_c, 15, 40, 0
19, 33600, Note_on_c, 15, 42, 80
19, 33695, Note_on_c, 15, 42, 0
19, 33720, Note_on_c, 15, 40, 80
19, 33767, Note_on_c, 15, 40, 0
19, 33780, Note_on_c, 15, 38, 80
19, 33827, Note_on_c, 15, 38, 0
19, 33840, Note_on_c, 15, 45, 90
19, 33887, Note_on_c, 15, 45, 0
19, 33900, Note_on_c, 15, 49, 80
19, 33947, Note_on_c, 15, 49, 0
19, 33960, Note_on_c, 15, 52, 80
19, 34007, Note_on_c, 15, 52, 0
19, 34020, Note_on_c, 15, 57, 90
19, 34067, Note_on_c, 15, 57, 0
19, 34080, Note_on_c, 15, 50, 80
19, 34109, Note_on_c, 15, 50, 0
19, 34110, Note_on_c, 15, 49, 80
19, 34139, Note_on_c, 15, 49, 0
19, 34140, Note_on_c, 15, 50, 80
19, 34235, Note_on_c, 15, 50, 0
19, 34260, Note_on_c, 15, 49, 80
19, 34289, Note_on_c, 15, 49, 0
19, 34290, Note_on_c, 15, 47, 80
19, 34319, Note_on_c, 15, 47, 0
19, 34320, Note_on_c, 15, 49, 80
19, 34415, Note_on_c, 15, 49, 0
19, 34440, Note_on_c, 15, 47, 80
19, 34487, Note_on_c, 15, 47, 0
19, 34500, Note_on_c, 15, 45, 80
19, 34547, Note_on_c, 15, 45, 0
19, 34560, Note_on_c, 15, 52, 90
19, 34590, Note_on_c, 15, 52, 0
19, 34620, Note_on_c, 15, 50, 80
19, 34649, Note_on_c, 15, 50, 0
19, 34650, Note_on_c, 15, 49, 80
19, 34679, Note_on_c, 15, 49, 0
19, 34680, Note_on_c, 15, 47, 80
19, 34709, Note_on_c, 15, 47, 0
19, 34710, Note_on_c, 15, 45, 80
19, 34739, Note_on_c, 15, 45, 0
19, 34740, Note_on_c, 15, 47, 90
19, 34787, Note_on_c, 15, 47, 0
19, 34800, Note_on_c, 15, 44, 80
19, 34847, Note_on_c, 15, 44, 0
19, 34860, Note_on_c, 15, 40, 80
19, 34907, Note_on_c, 15, 40, 0
19, 34920, Note_on_c, 15, 45, 90
19, 34950, Note_on_c, 15, 45, 0
19, 34980, Note_on_c, 15, 57, 80
19, 35009, Note_on_c, 15, 57, 0
19, 35010, Note_on_c, 15, 55, 80
19, 35039, Note_on_c, 15, 55, 0
19, 35040, Note_on_c, 15, 54, 80
19, 35069, Note_on_c, 15, 54, 0
19, 35070, Note_on_c, 15, 52, 80
19, 35099, Note_on_c, 15, 52, 0
19, 35100, Note_on_c, 15, 51, 90
19, 35147, Note_on_c, 15, 51, 0
19, 35160, Note_on_c, 15, 52, 80
19, 35207, Note_on_c, 15, 52, 0
19, 35220, Note_on_c, 15, 50, 80
19, 35267, Note_on_c, 15, 50, 0
19, 35280, Note_on_c, 15, 49, 90
19, 35310, Note_on_c, 15, 49, 0
19, 35340, Note_on_c, 15, 50, 80
19, 35369, Note_on_c, 15, 50, 0
19, 35370, Note_on_c, 15, 49, 80
19, 35399, Note_on_c, 15, 49, 0
19, 35400, Note_on_c, 15, 47, 80
19, 35429, Note_on_c, 15, 47, 0
19, 35430, Note_on_c, 15, 45, 80
19, 35459, Note_on_c, 15, 45, 0
19, 35460, Note_on_c, 15, 50, 90
19, 35507, Note_on_c, 15, 50, 0
19, 35520, Note_on_c, 15, 55, 80
19, 35549, Note_on_c, 15, 55, 0
19, 35550, Note_on_c, 15, 54, 80
19, 35579, Note_on_c, 15, 54, 0
19, 35580, Note_on_c, 15, 55, 80
19, 35675, Note_on_c, 15, 55, 0
19, 35700, Note_on_c, 15, 54, 80
19, 35729, Note_on_c, 15, 54, 0
19, 35730, Note_on_c, 15, 52, 80
19, 35759, Note_on_c, 15, 52, 0
19, 35760, Note_on_c, 15, 54, 80
19, 35855, Note_on_c, 15, 54, 0
19, 35880, Note_on_c, 15, 52, 80
19, 35927, Note_on_c, 15, 52, 0
19, 35940, Note_on_c, 15, 50, 80
19, 35987, Note_on_c, 15, 50, 0
19, 36000, Note_on_c, 15, 57, 90
19, 36059, Note_on_c, 15, 57, 0
19, 36060, Note_on_c, 15, 55, 80
19, 36107, Note_on_c, 15, 55, 0
19, 36120, Note_on_c, 15, 54, 80
19, 36167, Note_on_c, 15, 54, 0
19, 36180, Note_on_c, 15, 55, 90
19, 36239, Note_on_c, 15, 55, 0
19, 36240, Note_on_c, 15, 54, 80
19, 36287, Note_on_c, 15, 54, 0
19, 36300, Note_on_c, 15, 52, 80
19, 36347, Note_on_c, 15, 52, 0
19, 36360, Note_on_c, 15, 54, 90
19, 36419, Note_on_c, 15, 54, 0
19, 36420, Note_on_c, 15, 52, 80
19, 36467, Note_on_c, 15, 52, 0
19, 36480, Note_on_c, 15, 50, 80
19, 36527, Note_on_c, 15, 50, 0
19, 36540, Note_on_c, 15, 52, 90
19, 36587, Note_on_c, 15, 52, 0
19, 36600, Note_on_c, 15, 54, 80
19, 36647, Note_on_c, 15, 54, 0
19, 36660, Note_on_c, 15, 55, 80
19, 36755, Note_on_c, 15, 55, 0
19, 36780, Note_on_c, 15, 54, 80
19, 36827, Note_on_c, 15, 54, 0
19, 36840, Note_on_c, 15, 52, 80
19, 36887, Note_on_c, 15, 52, 0
19, 36900, Note_on_c, 15, 59, 90
19, 36929, Note_on_c, 15, 59, 0
19, 36930, Note_on_c, 15, 57, 90
19, 36959, Note_on_c, 15, 57, 0
19, 36960, Note_on_c, 15, 55, 80
19, 36989, Note_on_c, 15, 55, 0
19, 36990, Note_on_c, 15, 54, 80
19, 37019, Note_on_c, 15, 54, 0
19, 37020, Note_on_c, 15, 55, 80
19, 37115, Note_on_c, 15, 55, 0
19, 37140, Note_on_c, 15, 54, 80
19, 37169, Note_on_c, 15, 54, 0
19, 37170, Note_on_c, 15, 52, 80
19, 37199, Note_on_c, 15, 52, 0
19, 37200, Note_on_c, 15, 54, 80
19, 37295, Note_on_c, 15, 54, 0
19, 37320, Note_on_c, 15, 52, 80
19, 37367, Note_on_c, 15, 52, 0
19, 37380, Note_on_c, 15, 50, 80
19, 37427, Note_on_c, 15, 50, 0
19, 37440, Note_on_c, 15, 57, 90
19, 37487, Note_on_c, 15, 57, 0
19, 37500, Note_on_c, 15, 49, 80
19, 37547, Note_on_c, 15, 49, 0
19, 37560, Note_on_c, 15, 45, 80
19, 37607, Note_on_c, 15, 45, 0
19, 37620, Note_on_c, 15, 50, 90
19, 37649, Note_on_c, 15, 50, 0
19, 37650, Note_on_c, 15, 49, 90
19, 37679, Note_on_c, 15, 49, 0
19, 37680, Note_on_c, 15, 54, 80
19, 37709, Note_on_c, 15, 54, 0
19, 37710, Note_on_c, 15, 52, 80
19, 37739, Note_on_c, 15, 52, 0
19, 37740, Note_on_c, 15, 50, 80
19, 37769, Note_on_c, 15, 50, 0
19, 37770, Note_on_c, 15, 49, 80
19, 37799, Note_on_c, 15, 49, 0
19, 37800, Note_on_c, 15, 50, 90
19, 37829, Note_on_c, 15, 50, 0
19, 37830, Note_on_c, 15, 47, 90
19, 37859, Note_on_c, 15, 47, 0
19, 37860, Note_on_c, 15, 52, 80
19, 37889, Note_on_c, 15, 52, 0
19, 37890, Note_on_c, 15, 50, 80
19, 37919, Note_on_c, 15, 50, 0
19, 37920, Note_on_c, 15, 49, 80
19, 37949, Note_on_c, 15, 49, 0
19, 37950, Note_on_c, 15, 47, 80
19, 37979, Note_on_c, 15, 47, 0
19, 37980, Note_on_c, 15, 45, 90
19, 38027, Note_on_c, 15, 45, 0
19, 38040, Note_on_c, 15, 38, 80
19, 38087, Note_on_c, 15, 38, 0
19, 38100, Note_on_c, 15, 40, 80
19, 38147, Note_on_c, 15, 40, 0
19, 38160, Note_on_c, 15, 42, 70
19, 38189, Note_on_c, 15, 42, 0
19, 38190, Note_on_c, 15, 54, 70
19, 38219, Note_on_c, 15, 54, 0
19, 38220, Note_on_c, 15, 54, 70
19, 38249, Note_on_c, 15, 54, 0
19, 38250, Note_on_c, 15, 54, 70
19, 38279, Note_on_c, 15, 54, 0
19, 38280, Note_on_c, 15, 54, 70
19, 38309, Note_on_c, 15, 54, 0
19, 38310, Note_on_c, 15, 54, 70
19, 38339, Note_on_c, 15, 54, 0
19, 38340, Note_on_c, 15, 40, 70
19, 38369, Note_on_c, 15, 40, 0
19, 38370, Note_on_c, 15, 52, 70
19, 38399, Note_on_c, 15, 52, 0
19, 38400, Note_on_c, 15, 52, 70
19, 38429, Note_on_c, 15, 52, 0
19, 38430, Note_on_c, 15, 52, 70
19, 38459, Note_on_c, 15, 52, 0
19, 38460, Note_on_c, 15, 52, 70
19, 38489, Note_on_c, 15, 52, 0
19, 38490, Note_on_c, 15, 52, 70
19, 38519, Note_on_c, 15, 52, 0
19, 38520, Note_on_c, 15, 39, 70
19, 38549, Note_on_c, 15, 39, 0
19, 38550, Note_on_c, 15, 51, 70
19, 38579, Note_on_c, 15, 51, 0
19, 38580, Note_on_c, 15, 51, 70
19, 38609, Note_on_c, 15, 51, 0
19, 38610, Note_on_c, 15, 51, 70
19, 38639, Note_on_c, 15, 51, 0
19, 38640, Note_on_c, 15, 51, 70
19, 38669, Note_on_c, 15, 51, 0
19, 38670, Note_on_c, 15, 51, 70
19, 38699, Note_on_c, 15, 51, 0
19, 38700, Note_on_c, 15, 52, 90
19, 38729, Note_on_c, 15, 52, 0
19, 38730, Note_on_c, 15, 50, 90
19, 38759, Note_on_c, 15, 50, 0
19, 38760, Note_on_c, 15, 49, 80
19, 38789, Note_on_c, 15, 49, 0
19, 38790, Note_on_c, 15, 50, 80
19, 38819, Note_on_c, 15, 50, 0
19, 38820, Note_on_c, 15, 52, 80
19, 38867, Note_on_c, 15, 52, 0
19, 38880, Note_on_c, 15, 45, 90
19, 38975, Note_on_c, 15, 45, 0
19, 39480, Note_on_c, 15, 43, 80
19, 39527, Note_on_c, 15, 43, 0
19, 39540, Note_on_c, 15, 47, 80
19, 39587, Note_on_c, 15, 47, 0
19, 39600, Note_on_c, 15, 40, 90
19, 39647, Note_on_c, 15, 40, 0
19, 39660, Note_on_c, 15, 43, 80
19, 39707, Note_on_c, 15, 43, 0
19, 39720, Note_on_c, 15, 47, 80
19, 39767, Note_on_c, 15, 47, 0
19, 39780, Note_on_c, 15, 52, 90
19, 39875, Note_on_c, 15, 52, 0
19, 40200, Note_on_c, 15, 42, 80
19, 40247, Note_on_c, 15, 42, 0
19, 40260, Note_on_c, 15, 45, 80
19, 40307, Note_on_c, 15, 45, 0
19, 40320, Note_on_c, 15, 50, 90
19, 40379, Note_on_c, 15, 50, 0
19, 40380, Note_on_c, 15, 52, 80
19, 40427, Note_on_c, 15, 52, 0
19, 40440, Note_on_c, 15, 54, 80
19, 40487, Note_on_c, 15, 54, 0
19, 40500, Note_on_c, 15, 55, 90
19, 40559, Note_on_c, 15, 55, 0
19, 40560, Note_on_c, 15, 54, 80
19, 40607, Note_on_c, 15, 54, 0
19, 40620, Note_on_c, 15, 52, 80
19, 40667, Note_on_c, 15, 52, 0
19, 40680, Note_on_c, 15, 54, 90
19, 40739, Note_on_c, 15, 54, 0
19, 40740, Note_on_c, 15, 52, 80
19, 40787, Note_on_c, 15, 52, 0
19, 40800, Note_on_c, 15, 50, 80
19, 40847, Note_on_c, 15, 50, 0
19, 40860, Note_on_c, 15, 59, 90
19, 40919, Note_on_c, 15, 59, 0
19, 40920, Note_on_c, 15, 57, 80
19, 40967, Note_on_c, 15, 57, 0
19, 40980, Note_on_c, 15, 55, 80
19, 41027, Note_on_c, 15, 55, 0
19, 41040, Note_on_c, 15, 57, 90
19, 41099, Note_on_c, 15, 57, 0
19, 41100, Note_on_c, 15, 55, 80
19, 41147, Note_on_c, 15, 55, 0
19, 41160, Note_on_c, 15, 54, 80
19, 41207, Note_on_c, 15, 54, 0
19, 41220, Note_on_c, 15, 56, 90
19, 41279, Note_on_c, 15, 56, 0
19, 41280, Note_on_c, 15, 52, 80
19, 41327, Note_on_c, 15, 52, 0
19, 41340, Note_on_c, 15, 56, 80
19, 41387, Note_on_c, 15, 56, 0
19, 41400, Note_on_c, 15, 57, 90
19, 41447, Note_on_c, 15, 57, 0
19, 41460, Note_on_c, 15, 57, 80
19, 41507, Note_on_c, 15, 57, 0
19, 41520, Note_on_c, 15, 57, 80
19, 41567, Note_on_c, 15, 57, 0
19, 41580, Note_on_c, 15, 58, 90
19, 41639, Note_on_c, 15, 58, 0
19, 41640, Note_on_c, 15, 54, 80
19, 41687, Note_on_c, 15, 54, 0
19, 41700, Note_on_c, 15, 58, 80
19, 41747, Note_on_c, 15, 58, 0
19, 41760, Note_on_c, 15, 59, 90
19, 41807, Note_on_c, 15, 59, 0
19, 41820, Note_on_c, 15, 59, 80
19, 41867, Note_on_c, 15, 59, 0
19, 41880, Note_on_c, 15, 59, 80
19, 41927, Note_on_c, 15, 59, 0
19, 41940, Note_on_c, 15, 46, 90
19, 41987, Note_on_c, 15, 46, 0
19, 42000, Note_on_c, 15, 46, 80
19, 42047, Note_on_c, 15, 46, 0
19, 42060, Note_on_c, 15, 46, 80
19, 42107, Note_on_c, 15, 46, 0
19, 42120, Note_on_c, 15, 40, 90
19, 42167, Note_on_c, 15, 40, 0
19, 42180, Note_on_c, 15, 40, 80
19, 42227, Note_on_c, 15, 40, 0
19, 42240, Note_on_c, 15, 40, 80
19, 42287, Note_on_c, 15, 40, 0
19, 42300, Note_on_c, 15, 42, 90
19, 42347, Note_on_c, 15, 42, 0
19, 42360, Note_on_c, 15, 43, 80
19, 42407, Note_on_c, 15, 43, 0
19, 42420, Note_on_c, 15, 45, 80
19, 42467, Note_on_c, 15, 45, 0
19, 42480, Note_on_c, 15, 47, 70
19, 42509, Note_on_c, 15, 47, 0
19, 42510, Note_on_c, 15, 59, 70
19, 42539, Note_on_c, 15, 59, 0
19, 42540, Note_on_c, 15, 59, 70
19, 42569, Note_on_c, 15, 59, 0
19, 42570, Note_on_c, 15, 59, 70
19, 42599, Note_on_c, 15, 59, 0
19, 42600, Note_on_c, 15, 59, 70
19, 42629, Note_on_c, 15, 59, 0
19, 42630, Note_on_c, 15, 59, 70
19, 42659, Note_on_c, 15, 59, 0
19, 42660, Note_on_c, 15, 45, 70
19, 42689, Note_on_c, 15, 45, 0
19, 42690, Note_on_c, 15, 57, 70
19, 42719, Note_on_c, 15, 57, 0
19, 42720, Note_on_c, 15, 57, 70
19, 42749, Note_on_c, 15, 57, 0
19, 42750, Note_on_c, 15, 57, 70
19, 42779, Note_on_c, 15, 57, 0
19, 42780, Note_on_c, 15, 57, 70
19, 42809, Note_on_c, 15, 57, 0
19, 42810, Note_on_c, 15, 57, 70
19, 42839, Note_on_c, 15, 57, 0
19, 42840, Note_on_c, 15, 44, 70
19, 42869, Note_on_c, 15, 44, 0
19, 42870, Note_on_c, 15, 56, 70
19, 42899, Note_on_c, 15, 56, 0
19, 42900, Note_on_c, 15, 56, 70
19, 42929, Note_on_c, 15, 56, 0
19, 42930, Note_on_c, 15, 56, 70
19, 42959, Note_on_c, 15, 56, 0
19, 42960, Note_on_c, 15, 56, 80
19, 42989, Note_on_c, 15, 56, 0
19, 42990, Note_on_c, 15, 56, 80
19, 43019, Note_on_c, 15, 56, 0
19, 43020, Note_on_c, 15, 57, 90
19, 43067, Note_on_c, 15, 57, 0
19, 43080, Note_on_c, 15, 42, 80
19, 43127, Note_on_c, 15, 42, 0
19, 43140, Note_on_c, 15, 45, 80
19, 43187, Note_on_c, 15, 45, 0
19, 43200, Note_on_c, 15, 38, 90
19, 43295, Note_on_c, 15, 38, 0
19, 43560, Note_on_c, 15, 44, 80
19, 44640, Note_on_c, 15, 44, 0
19, 44640, Note_on_c, 15, 53, 80
19, 44999, Note_on_c, 15, 53, 0
19, 45000, Note_on_c, 15, 54, 80
19, 45119, Note_on_c, 15, 54, 0
19, 45120, Note_on_c, 15, 50, 80
19, 45239, Note_on_c, 15, 50, 0
19, 45240, Note_on_c, 15, 49, 80
19, 45479, Note_on_c, 15, 49, 0
19, 45480, Note_on_c, 15, 54, 80
19, 45719, Note_on_c, 15, 54, 0
19, 45720, Note_on_c, 15, 47, 80
19, 45839, Note_on_c, 15, 47, 0
19, 45840, Note_on_c, 15, 43, 80
19, 45959, Note_on_c, 15, 43, 0
19, 45960, Note_on_c, 15, 42, 80
19, 46920, Note_on_c, 15, 42, 0
19, 46920, Note_on_c, 15, 47, 80
19, 47279, Note_on_c, 15, 47, 0
19, 47280, Note_on_c, 15, 49, 80
19, 47519, Note_on_c, 15, 49, 0
19, 47520, Note_on_c, 15, 50, 80
19, 47759, Note_on_c, 15, 50, 0
19, 47760, Note_on_c, 15, 54, 80
19, 47879, Note_on_c, 15, 54, 0
19, 47880, Note_on_c, 15, 55, 80
19, 47999, Note_on_c, 15, 55, 0
19, 48000, Note_on_c, 15, 56, 80
19, 48119, Note_on_c, 15, 56, 0
19, 48240, Note_on_c, 15, 57, 80
19, 48359, Note_on_c, 15, 57, 0
19, 48360, Note_on_c, 15, 50, 80
19, 48600, Note_on_c, 15, 50, 0
19, 48840, Note_on_c, 15, 47, 60
19, 50040, Note_on_c, 15, 47, 0
19, 50040, Note_on_c, 15, 45, 60
19, 50519, Note_on_c, 15, 45, 0
19, 50520, Note_on_c, 15, 44, 60
19, 51120, Note_on_c, 15, 44, 0
19, 51120, Note_on_c, 15, 47, 60
19, 51240, Note_on_c, 15, 47, 0
19, 51240, Note_on_c, 15, 45, 60
19, 51360, Note_on_c, 15, 45, 0
19, 51360, Note_on_c, 15, 50, 60
19, 51480, Note_on_c, 15, 50, 0
19, 51600, Note_on_c, 15, 49, 60
19, 51720, Note_on_c, 15, 49, 0
19, 51720, Note_on_c, 15, 42, 60
19, 52080, Note_on_c, 15, 42, 0
19, 52080, Note_on_c, 15, 49, 60
19, 52680, Note_on_c, 15, 49, 0
19, 52680, Note_on_c, 15, 46, 60
19, 53400, Note_on_c, 15, 46, 0
19, 53400, Note_on_c, 15, 47, 60
19, 53640, Note_on_c, 15, 47, 0
19, 53640, Note_on_c, 15, 49, 60
19, 53700, Note_on_c, 15, 49, 0
19, 53700, Note_on_c, 15, 45, 60
19, 53760, Note_on_c, 15, 45, 0
19, 53760, Note_on_c, 15, 52, 60
19, 53820, Note_on_c, 15, 52, 0
19, 53820, Note_on_c, 15, 40, 60
19, 53880, Note_on_c, 15, 40, 0
19, 53880, Note_on_c, 15, 45, 60
19, 54120, Note_on_c, 15, 45, 0
19, 54360, Note_on_c, 15, 49, 64
19, 54420, Note_on_c, 15, 49, 0
19, 54420, Note_on_c, 15, 52, 64
19, 54480, Note_on_c, 15, 52, 0
19, 54480, Note_on_c, 15, 57, 64
19, 54540, Note_on_c, 15, 57, 0
19, 54540, Note_on_c, 15, 61, 64
19, 54600, Note_on_c, 15, 61, 0
19, 54600, Note_on_c, 15, 62, 64
19, 54660, Note_on_c, 15, 62, 0
19, 54720, Note_on_c, 15, 61, 64
19, 54780, Note_on_c, 15, 61, 0
19, 54840, Note_on_c, 15, 59, 64
19, 54900, Note_on_c, 15, 59, 0
19, 54900, Note_on_c, 15, 52, 64
19, 54960, Note_on_c, 15, 52, 0
19, 54960, Note_on_c, 15, 57, 64
19, 55020, Note_on_c, 15, 57, 0
19, 55020, Note_on_c, 15, 50, 64
19, 55050, Note_on_c, 15, 50, 0
19, 55050, Note_on_c, 15, 49, 64
19, 55080, Note_on_c, 15, 49, 0
19, 55080, Note_on_c, 15, 50, 64
19, 55260, Note_on_c, 15, 50, 0
19, 55260, Note_on_c, 15, 49, 64
19, 55320, Note_on_c, 15, 49, 0
19, 55320, Note_on_c, 15, 54, 64
19, 55380, Note_on_c, 15, 54, 0
19, 55380, Note_on_c, 15, 56, 64
19, 55440, Note_on_c, 15, 56, 0
19, 55440, Note_on_c, 15, 57, 64
19, 55500, Note_on_c, 15, 57, 0
19, 55500, Note_on_c, 15, 50, 64
19, 55560, Note_on_c, 15, 50, 0
19, 55560, Note_on_c, 15, 52, 64
19, 55620, Note_on_c, 15, 52, 0
19, 55620, Note_on_c, 15, 40, 64
19, 55680, Note_on_c, 15, 40, 0
19, 55680, Note_on_c, 15, 52, 64
19, 55740, Note_on_c, 15, 52, 0
19, 55740, Note_on_c, 15, 50, 64
19, 55800, Note_on_c, 15, 50, 0
19, 55800, Note_on_c, 15, 49, 52
19, 55860, Note_on_c, 15, 49, 0
19, 55860, Note_on_c, 15, 52, 52
19, 55920, Note_on_c, 15, 52, 0
19, 55920, Note_on_c, 15, 57, 52
19, 55980, Note_on_c, 15, 57, 0
19, 55980, Note_on_c, 15, 61, 52
19, 56040, Note_on_c, 15, 61, 0
19, 56040, Note_on_c, 15, 62, 52
19, 56100, Note_on_c, 15, 62, 0
19, 56160, Note_on_c, 15, 61, 52
19, 56220, Note_on_c, 15, 61, 0
19, 56280, Note_on_c, 15, 59, 52
19, 56340, Note_on_c, 15, 59, 0
19, 56340, Note_on_c, 15, 52, 52
19, 56400, Note_on_c, 15, 52, 0
19, 56400, Note_on_c, 15, 57, 52
19, 56460, Note_on_c, 15, 57, 0
19, 56460, Note_on_c, 15, 50, 52
19, 56490, Note_on_c, 15, 50, 0
19, 56490, Note_on_c, 15, 49, 52
19, 56520, Note_on_c, 15, 49, 0
19, 56520, Note_on_c, 15, 50, 52
19, 56700, Note_on_c, 15, 50, 0
19, 56700, Note_on_c, 15, 49, 52
19, 56760, Note_on_c, 15, 49, 0
19, 56760, Note_on_c, 15, 54, 52
19, 56820, Note_on_c, 15, 54, 0
19, 56820, Note_on_c, 15, 56, 52
19, 56880, Note_on_c, 15, 56, 0
19, 56880, Note_on_c, 15, 57, 52
19, 56940, Note_on_c, 15, 57, 0
19, 56940, Note_on_c, 15, 50, 52
19, 57000, Note_on_c, 15, 50, 0
19, 57000, Note_on_c, 15, 52, 52
19, 57060, Note_on_c, 15, 52, 0
19, 57060, Note_on_c, 15, 54, 52
19, 57120, Note_on_c, 15, 54, 0
19, 57120, Note_on_c, 15, 56, 52
19, 57180, Note_on_c, 15, 56, 0
19, 57180, Note_on_c, 15, 52, 52
19, 57240, Note_on_c, 15, 52, 0
19, 57240, Note_on_c, 15, 54, 64
19, 57300, Note_on_c, 15, 54, 0
19, 57300, Note_on_c, 15, 47, 64
19, 57360, Note_on_c, 15, 47, 0
19, 57360, Note_on_c, 15, 52, 64
19, 57420, Note_on_c, 15, 52, 0
19, 57420, Note_on_c, 15, 55, 64
19, 57480, Note_on_c, 15, 55, 0
19, 57480, Note_on_c, 15, 49, 64
19, 57540, Note_on_c, 15, 49, 0
19, 57540, Note_on_c, 15, 52, 64
19, 57600, Note_on_c, 15, 52, 0
19, 57600, Note_on_c, 15, 54, 64
19, 57660, Note_on_c, 15, 54, 0
19, 57660, Note_on_c, 15, 52, 64
19, 57720, Note_on_c, 15, 52, 0
19, 57720, Note_on_c, 15, 51, 64
19, 57780, Note_on_c, 15, 51, 0
19, 57780, Note_on_c, 15, 52, 64
19, 57840, Note_on_c, 15, 52, 0
19, 57840, Note_on_c, 15, 45, 64
19, 57870, Note_on_c, 15, 45, 0
19, 57870, Note_on_c, 15, 43, 64
19, 57900, Note_on_c, 15, 43, 0
19, 57900, Note_on_c, 15, 45, 64
19, 58020, Note_on_c, 15, 45, 0
19, 58020, Note_on_c, 15, 44, 64
19, 58080, Note_on_c, 15, 44, 0
19, 58080, Note_on_c, 15, 42, 64
19, 58140, Note_on_c, 15, 42, 0
19, 58140, Note_on_c, 15, 51, 64
19, 58200, Note_on_c, 15, 51, 0
19, 58200, Note_on_c, 15, 52, 64
19, 58260, Note_on_c, 15, 52, 0
19, 58260, Note_on_c, 15, 49, 64
19, 58320, Note_on_c, 15, 49, 0
19, 58320, Note_on_c, 15, 45, 64
19, 58380, Note_on_c, 15, 45, 0
19, 58380, Note_on_c, 15, 47, 64
19, 58440, Note_on_c, 15, 47, 0
19, 58440, Note_on_c, 15, 52, 64
19, 58500, Note_on_c, 15, 52, 0
19, 58500, Note_on_c, 15, 54, 64
19, 58560, Note_on_c, 15, 54, 0
19, 58560, Note_on_c, 15, 52, 64
19, 58620, Note_on_c, 15, 52, 0
19, 58620, Note_on_c, 15, 50, 64
19, 58680, Note_on_c, 15, 50, 0
19, 58680, Note_on_c, 15, 49, 64
19, 58740, Note_on_c, 15, 49, 0
19, 58740, Note_on_c, 15, 47, 64
19, 58800, Note_on_c, 15, 47, 0
19, 58800, Note_on_c, 15, 45, 64
19, 58860, Note_on_c, 15, 45, 0
19, 58860, Note_on_c, 15, 47, 64
19, 58890, Note_on_c, 15, 47, 0
19, 58890, Note_on_c, 15, 49, 64
19, 58920, Note_on_c, 15, 49, 0
19, 58920, Note_on_c, 15, 50, 64
19, 58950, Note_on_c, 15, 50, 0
19, 58950, Note_on_c, 15, 49, 64
19, 58980, Note_on_c, 15, 49, 0
19, 58980, Note_on_c, 15, 47, 64
19, 59010, Note_on_c, 15, 47, 0
19, 59010, Note_on_c, 15, 45, 64
19, 59040, Note_on_c, 15, 45, 0
19, 59040, Note_on_c, 15, 57, 64
19, 59100, Note_on_c, 15, 57, 0
19, 59100, Note_on_c, 15, 54, 64
19, 59160, Note_on_c, 15, 54, 0
19, 59160, Note_on_c, 15, 59, 64
19, 59220, Note_on_c, 15, 59, 0
19, 59220, Note_on_c, 15, 52, 64
19, 59280, Note_on_c, 15, 52, 0
19, 59280, Note_on_c, 15, 57, 64
19, 59340, Note_on_c, 15, 57, 0
19, 59340, Note_on_c, 15, 50, 64
19, 59370, Note_on_c, 15, 50, 0
19, 59370, Note_on_c, 15, 49, 64
19, 59400, Note_on_c, 15, 49, 0
19, 59400, Note_on_c, 15, 50, 64
19, 59580, Note_on_c, 15, 50, 0
19, 59580, Note_on_c, 15, 49, 64
19, 59640, Note_on_c, 15, 49, 0
19, 59640, Note_on_c, 15, 54, 64
19, 59700, Note_on_c, 15, 54, 0
19, 59700, Note_on_c, 15, 56, 64
19, 59760, Note_on_c, 15, 56, 0
19, 59760, Note_on_c, 15, 57, 64
19, 59820, Note_on_c, 15, 57, 0
19, 59820, Note_on_c, 15, 50, 64
19, 59880, Note_on_c, 15, 50, 0
19, 59880, Note_on_c, 15, 52, 64
19, 59940, Note_on_c, 15, 52, 0
19, 59940, Note_on_c, 15, 40, 64
19, 60000, Note_on_c, 15, 40, 0
19, 60000, Note_on_c, 15, 52, 64
19, 60060, Note_on_c, 15, 52, 0
19, 60060, Note_on_c, 15, 50, 64
19, 60120, Note_on_c, 15, 50, 0
19, 60120, Note_on_c, 15, 49, 52
19, 60180, Note_on_c, 15, 49, 0
19, 60180, Note_on_c, 15, 52, 52
19, 60240, Note_on_c, 15, 52, 0
19, 60240, Note_on_c, 15, 57, 52
19, 60300, Note_on_c, 15, 57, 0
19, 60300, Note_on_c, 15, 57, 52
19, 60360, Note_on_c, 15, 57, 0
19, 60360, Note_on_c, 15, 57, 52
19, 60420, Note_on_c, 15, 57, 0
19, 60420, Note_on_c, 15, 57, 52
19, 60480, Note_on_c, 15, 57, 0
19, 60480, Note_on_c, 15, 57, 52
19, 60540, Note_on_c, 15, 57, 0
19, 60540, Note_on_c, 15, 54, 52
19, 60600, Note_on_c, 15, 54, 0
19, 60600, Note_on_c, 15, 59, 52
19, 60660, Note_on_c, 15, 59, 0
19, 60660, Note_on_c, 15, 52, 52
19, 60720, Note_on_c, 15, 52, 0
19, 60720, Note_on_c, 15, 57, 52
19, 60780, Note_on_c, 15, 57, 0
19, 60780, Note_on_c, 15, 50, 52
19, 60810, Note_on_c, 15, 50, 0
19, 60810, Note_on_c, 15, 49, 52
19, 60840, Note_on_c, 15, 49, 0
19, 60840, Note_on_c, 15, 50, 52
19, 61020, Note_on_c, 15, 50, 0
19, 61020, Note_on_c, 15, 49, 52
19, 61080, Note_on_c, 15, 49, 0
19, 61080, Note_on_c, 15, 54, 52
19, 61140, Note_on_c, 15, 54, 0
19, 61140, Note_on_c, 15, 56, 52
19, 61200, Note_on_c, 15, 56, 0
19, 61200, Note_on_c, 15, 57, 52
19, 61260, Note_on_c, 15, 57, 0
19, 61260, Note_on_c, 15, 50, 52
19, 61320, Note_on_c, 15, 50, 0
19, 61320, Note_on_c, 15, 52, 52
19, 61380, Note_on_c, 15, 52, 0
19, 61380, Note_on_c, 15, 54, 52
19, 61440, Note_on_c, 15, 54, 0
19, 61440, Note_on_c, 15, 56, 52
19, 61500, Note_on_c, 15, 56, 0
19, 61500, Note_on_c, 15, 52, 52
19, 61560, Note_on_c, 15, 52, 0
19, 61560, Note_on_c, 15, 54, 52
19, 61620, Note_on_c, 15, 54, 0
19, 61620, Note_on_c, 15, 47, 52
19, 61680, Note_on_c, 15, 47, 0
19, 61680, Note_on_c, 15, 52, 52
19, 61740, Note_on_c, 15, 52, 0
19, 61740, Note_on_c, 15, 52, 52
19, 61800, Note_on_c, 15, 52, 0
19, 61800, Note_on_c, 15, 52, 52
19, 61860, Note_on_c, 15, 52, 0
19, 61860, Note_on_c, 15, 52, 52
19, 61920, Note_on_c, 15, 52, 0
19, 61920, Note_on_c, 15, 52, 52
19, 61980, Note_on_c, 15, 52, 0
19, 61980, Note_on_c, 15, 52, 52
19, 62040, Note_on_c, 15, 52, 0
19, 62040, Note_on_c, 15, 51, 52
19, 62100, Note_on_c, 15, 51, 0
19, 62100, Note_on_c, 15, 52, 52
19, 62160, Note_on_c, 15, 52, 0
19, 62160, Note_on_c, 15, 45, 52
19, 62220, Note_on_c, 15, 45, 0
19, 62220, Note_on_c, 15, 45, 52
19, 62280, Note_on_c, 15, 45, 0
19, 62280, Note_on_c, 15, 45, 52
19, 62340, Note_on_c, 15, 45, 0
19, 62340, Note_on_c, 15, 44, 52
19, 62400, Note_on_c, 15, 44, 0
19, 62400, Note_on_c, 15, 42, 52
19, 62460, Note_on_c, 15, 42, 0
19, 62460, Note_on_c, 15, 51, 52
19, 62520, Note_on_c, 15, 51, 0
19, 62520, Note_on_c, 15, 52, 52
19, 62580, Note_on_c, 15, 52, 0
19, 62580, Note_on_c, 15, 49, 52
19, 62640, Note_on_c, 15, 49, 0
19, 62640, Note_on_c, 15, 45, 52
19, 62700, Note_on_c, 15, 45, 0
19, 62700, Note_on_c, 15, 47, 52
19, 62760, Note_on_c, 15, 47, 0
19, 62760, Note_on_c, 15, 40, 52
19, 62820, Note_on_c, 15, 40, 0
19, 62820, Note_on_c, 15, 47, 52
19, 62880, Note_on_c, 15, 47, 0
19, 62880, Note_on_c, 15, 52, 52
19, 62940, Note_on_c, 15, 52, 0
19, 62940, Note_on_c, 15, 56, 52
19, 62970, Note_on_c, 15, 56, 0
19, 62970, Note_on_c, 15, 54, 52
19, 63000, Note_on_c, 15, 54, 0
19, 63000, Note_on_c, 15, 52, 72
19, 63060, Note_on_c, 15, 52, 0
19, 63060, Note_on_c, 15, 50, 72
19, 63120, Note_on_c, 15, 50, 0
19, 63120, Note_on_c, 15, 49, 72
19, 63180, Note_on_c, 15, 49, 0
19, 63180, Note_on_c, 15, 52, 72
19, 63240, Note_on_c, 15, 52, 0
19, 63240, Note_on_c, 15, 42, 72
19, 63300, Note_on_c, 15, 42, 0
19, 63300, Note_on_c, 15, 54, 72
19, 63360, Note_on_c, 15, 54, 0
19, 63360, Note_on_c, 15, 56, 72
19, 63420, Note_on_c, 15, 56, 0
19, 63420, Note_on_c, 15, 58, 72
19, 63480, Note_on_c, 15, 58, 0
19, 63480, Note_on_c, 15, 59, 72
19, 63540, Note_on_c, 15, 59, 0
19, 63540, Note_on_c, 15, 57, 72
19, 63600, Note_on_c, 15, 57, 0
19, 63600, Note_on_c, 15, 56, 72
19, 63660, Note_on_c, 15, 56, 0
19, 63660, Note_on_c, 15, 54, 72
19, 63720, Note_on_c, 15, 54, 0
19, 63720, Note_on_c, 15, 53, 72
19, 63780, Note_on_c, 15, 53, 0
19, 63780, Note_on_c, 15, 61, 72
19, 63840, Note_on_c, 15, 61, 0
19, 63840, Note_on_c, 15, 54, 72
19, 63900, Note_on_c, 15, 54, 0
19, 63900, Note_on_c, 15, 57, 72
19, 63960, Note_on_c, 15, 57, 0
19, 63960, Note_on_c, 15, 50, 72
19, 64020, Note_on_c, 15, 50, 0
19, 64080, Note_on_c, 15, 47, 72
19, 64140, Note_on_c, 15, 47, 0
19, 64200, Note_on_c, 15, 49, 72
19, 64260, Note_on_c, 15, 49, 0
19, 64260, Note_on_c, 15, 61, 72
19, 64320, Note_on_c, 15, 61, 0
19, 64320, Note_on_c, 15, 59, 72
19, 64350, Note_on_c, 15, 59, 0
19, 64350, Note_on_c, 15, 57, 72
19, 64380, Note_on_c, 15, 57, 0
19, 64380, Note_on_c, 15, 56, 72
19, 64410, Note_on_c, 15, 56, 0
19, 64410, Note_on_c, 15, 54, 72
19, 64440, Note_on_c, 15, 54, 0
19, 64440, Note_on_c, 15, 56, 72
19, 64500, Note_on_c, 15, 56, 0
19, 64500, Note_on_c, 15, 58, 72
19, 64560, Note_on_c, 15, 58, 0
19, 64560, Note_on_c, 15, 59, 72
19, 64620, Note_on_c, 15, 59, 0
19, 64620, Note_on_c, 15, 47, 72
19, 64680, Note_on_c, 15, 47, 0
19, 64680, Note_on_c, 15, 49, 72
19, 64740, Note_on_c, 15, 49, 0
19, 64740, Note_on_c, 15, 51, 72
19, 64800, Note_on_c, 15, 51, 0
19, 64800, Note_on_c, 15, 53, 72
19, 64860, Note_on_c, 15, 53, 0
19, 64860, Note_on_c, 15, 54, 72
19, 64920, Note_on_c, 15, 54, 0
19, 64920, Note_on_c, 15, 56, 72
19, 64980, Note_on_c, 15, 56, 0
19, 64980, Note_on_c, 15, 59, 72
19, 65040, Note_on_c, 15, 59, 0
19, 65040, Note_on_c, 15, 57, 72
19, 65100, Note_on_c, 15, 57, 0
19, 65100, Note_on_c, 15, 56, 72
19, 65160, Note_on_c, 15, 56, 0
19, 65160, Note_on_c, 15, 54, 72
19, 65220, Note_on_c, 15, 54, 0
19, 65220, Note_on_c, 15, 53, 72
19, 65280, Note_on_c, 15, 53, 0
19, 65280, Note_on_c, 15, 54, 72
19, 65340, Note_on_c, 15, 54, 0
19, 65340, Note_on_c, 15, 45, 72
19, 65400, Note_on_c, 15, 45, 0
19, 65400, Note_on_c, 15, 50, 72
19, 65460, Note_on_c, 15, 50, 0
19, 65460, Note_on_c, 15, 47, 72
19, 65520, Note_on_c, 15, 47, 0
19, 65520, Note_on_c, 15, 49, 72
19, 65580, Note_on_c, 15, 49, 0
19, 65580, Note_on_c, 15, 37, 72
19, 65640, Note_on_c, 15, 37, 0
19, 65640, Note_on_c, 15, 42, 72
19, 65700, Note_on_c, 15, 42, 0
19, 65700, Note_on_c, 15, 54, 72
19, 65730, Note_on_c, 15, 54, 0
19, 65730, Note_on_c, 15, 56, 72
19, 65760, Note_on_c, 15, 56, 0
19, 65760, Note_on_c, 15, 57, 72
19, 65820, Note_on_c, 15, 57, 0
19, 65820, Note_on_c, 15, 59, 72
19, 65880, Note_on_c, 15, 59, 0
19, 65880, Note_on_c, 15, 57, 72
19, 65940, Note_on_c, 15, 57, 0
19, 65940, Note_on_c, 15, 56, 72
19, 66000, Note_on_c, 15, 56, 0
19, 66000, Note_on_c, 15, 54, 72
19, 66060, Note_on_c, 15, 54, 0
19, 66060, Note_on_c, 15, 52, 72
19, 66090, Note_on_c, 15, 52, 0
19, 66090, Note_on_c, 15, 50, 72
19, 66120, Note_on_c, 15, 50, 0
19, 66120, Note_on_c, 15, 49, 72
19, 66180, Note_on_c, 15, 49, 0
19, 66180, Note_on_c, 15, 50, 72
19, 66210, Note_on_c, 15, 50, 0
19, 66210, Note_on_c, 15, 52, 72
19, 66240, Note_on_c, 15, 52, 0
19, 66240, Note_on_c, 15, 50, 72
19, 66270, Note_on_c, 15, 50, 0
19, 66270, Note_on_c, 15, 49, 72
19, 66300, Note_on_c, 15, 49, 0
19, 66300, Note_on_c, 15, 47, 72
19, 66330, Note_on_c, 15, 47, 0
19, 66330, Note_on_c, 15, 45, 72
19, 66360, Note_on_c, 15, 45, 0
19, 66360, Note_on_c, 15, 50, 72
19, 66420, Note_on_c, 15, 50, 0
19, 66420, Note_on_c, 15, 49, 72
19, 66480, Note_on_c, 15, 49, 0
19, 66480, Note_on_c, 15, 47, 72
19, 66540, Note_on_c, 15, 47, 0
19, 66540, Note_on_c, 15, 45, 72
19, 66600, Note_on_c, 15, 45, 0
19, 66600, Note_on_c, 15, 44, 72
19, 66660, Note_on_c, 15, 44, 0
19, 66660, Note_on_c, 15, 40, 72
19, 66720, Note_on_c, 15, 40, 0
19, 66720, Note_on_c, 15, 45, 72
19, 66780, Note_on_c, 15, 45, 0
19, 66780, Note_on_c, 15, 49, 72
19, 66840, Note_on_c, 15, 49, 0
19, 66840, Note_on_c, 15, 54, 72
19, 66900, Note_on_c, 15, 54, 0
19, 66900, Note_on_c, 15, 57, 72
19, 66930, Note_on_c, 15, 57, 0
19, 66930, Note_on_c, 15, 56, 72
19, 66960, Note_on_c, 15, 56, 0
19, 66960, Note_on_c, 15, 57, 72
19, 67140, Note_on_c, 15, 57, 0
19, 67140, Note_on_c, 15, 56, 72
19, 67170, Note_on_c, 15, 56, 0
19, 67170, Note_on_c, 15, 54, 72
19, 67200, Note_on_c, 15, 54, 0
19, 67200, Note_on_c, 15, 56, 72
19, 67260, Note_on_c, 15, 56, 0
19, 67260, Note_on_c, 15, 57, 72
19, 67290, Note_on_c, 15, 57, 0
19, 67290, Note_on_c, 15, 59, 72
19, 67320, Note_on_c, 15, 59, 0
19, 67320, Note_on_c, 15, 61, 72
19, 67500, Note_on_c, 15, 61, 0
19, 67500, Note_on_c, 15, 59, 72
19, 67530, Note_on_c, 15, 59, 0
19, 67530, Note_on_c, 15, 57, 72
19, 67560, Note_on_c, 15, 57, 0
19, 67560, Note_on_c, 15, 59, 72
19, 67620, Note_on_c, 15, 59, 0
19, 67620, Note_on_c, 15, 52, 72
19, 67680, Note_on_c, 15, 52, 0
19, 67680, Note_on_c, 15, 61, 72
19, 67740, Note_on_c, 15, 61, 0
19, 67740, Note_on_c, 15, 52, 72
19, 67800, Note_on_c, 15, 52, 0
19, 67800, Note_on_c, 15, 62, 72
19, 67860, Note_on_c, 15, 62, 0
19, 67860, Note_on_c, 15, 59, 72
19, 67920, Note_on_c, 15, 59, 0
19, 67920, Note_on_c, 15, 56, 72
19, 67980, Note_on_c, 15, 56, 0
19, 67980, Note_on_c, 15, 52, 72
19, 68040, Note_on_c, 15, 52, 0
19, 68040, Note_on_c, 15, 57, 72
19, 68100, Note_on_c, 15, 57, 0
19, 68100, Note_on_c, 15, 50, 72
19, 68220, Note_on_c, 15, 50, 0
19, 68220, Note_on_c, 15, 44, 72
19, 68280, Note_on_c, 15, 44, 0
19, 68280, Note_on_c, 15, 45, 72
19, 68340, Note_on_c, 15, 45, 0
19, 68340, Note_on_c, 15, 49, 72
19, 68400, Note_on_c, 15, 49, 0
19, 68400, Note_on_c, 15, 52, 72
19, 68460, Note_on_c, 15, 52, 0
19, 68460, Note_on_c, 15, 40, 72
19, 68520, Note_on_c, 15, 40, 0
19, 68520, Note_on_c, 15, 45, 72
19, 68580, Note_on_c, 15, 45, 0
19, 68580, Note_on_c, 15, 57, 72
19, 68640, Note_on_c, 15, 57, 0
19, 68640, Note_on_c, 15, 56, 72
19, 68700, Note_on_c, 15, 56, 0
19, 68700, Note_on_c, 15, 54, 72
19, 68760, Note_on_c, 15, 54, 0
19, 68760, Note_on_c, 15, 52, 72
19, 68820, Note_on_c, 15, 52, 0
19, 68820, Note_on_c, 15, 50, 72
19, 68880, Note_on_c, 15, 50, 0
19, 68880, Note_on_c, 15, 49, 48
19, 68940, Note_on_c, 15, 49, 0
19, 68940, Note_on_c, 15, 52, 48
19, 69000, Note_on_c, 15, 52, 0
19, 69000, Note_on_c, 15, 42, 48
19, 69060, Note_on_c, 15, 42, 0
19, 69060, Note_on_c, 15, 54, 48
19, 69120, Note_on_c, 15, 54, 0
19, 69120, Note_on_c, 15, 56, 48
19, 69180, Note_on_c, 15, 56, 0
19, 69180, Note_on_c, 15, 58, 48
19, 69240, Note_on_c, 15, 58, 0
19, 69240, Note_on_c, 15, 59, 48
19, 69270, Note_on_c, 15, 59, 0
19, 69270, Note_on_c, 15, 58, 48
19, 69300, Note_on_c, 15, 58, 0
19, 69300, Note_on_c, 15, 59, 48
19, 69330, Note_on_c, 15, 59, 0
19, 69330, Note_on_c, 15, 61, 48
19, 69360, Note_on_c, 15, 61, 0
19, 69360, Note_on_c, 15, 62, 48
19, 69420, Note_on_c, 15, 62, 0
19, 69420, Note_on_c, 15, 61, 48
19, 69480, Note_on_c, 15, 61, 0
19, 69480, Note_on_c, 15, 59, 48
19, 69540, Note_on_c, 15, 59, 0
19, 69540, Note_on_c, 15, 57, 48
19, 69600, Note_on_c, 15, 57, 0
19, 69600, Note_on_c, 15, 56, 48
19, 69630, Note_on_c, 15, 56, 0
19, 69630, Note_on_c, 15, 54, 48
19, 69660, Note_on_c, 15, 54, 0
19, 69660, Note_on_c, 15, 56, 48
19, 69690, Note_on_c, 15, 56, 0
19, 69690, Note_on_c, 15, 57, 48
19, 69720, Note_on_c, 15, 57, 0
19, 69720, Note_on_c, 15, 59, 48
19, 69780, Note_on_c, 15, 59, 0
19, 69780, Note_on_c, 15, 57, 48
19, 69840, Note_on_c, 15, 57, 0
19, 69840, Note_on_c, 15, 56, 48
19, 69900, Note_on_c, 15, 56, 0
19, 69900, Note_on_c, 15, 54, 48
19, 69960, Note_on_c, 15, 54, 0
19, 69960, Note_on_c, 15, 53, 48
19, 70020, Note_on_c, 15, 53, 0
19, 70020, Note_on_c, 15, 62, 48
19, 70050, Note_on_c, 15, 62, 0
19, 70050, Note_on_c, 15, 61, 48
19, 70080, Note_on_c, 15, 61, 0
19, 70080, Note_on_c, 15, 59, 48
19, 70110, Note_on_c, 15, 59, 0
19, 70110, Note_on_c, 15, 57, 48
19, 70140, Note_on_c, 15, 57, 0
19, 70140, Note_on_c, 15, 56, 48
19, 70170, Note_on_c, 15, 56, 0
19, 70170, Note_on_c, 15, 54, 48
19, 70200, Note_on_c, 15, 54, 0
19, 70200, Note_on_c, 15, 53, 48
19, 70260, Note_on_c, 15, 53, 0
19, 70260, Note_on_c, 15, 49, 48
19, 70320, Note_on_c, 15, 49, 0
19, 70320, Note_on_c, 15, 54, 48
19, 70380, Note_on_c, 15, 54, 0
19, 70380, Note_on_c, 15, 57, 48
19, 70440, Note_on_c, 15, 57, 0
19, 70440, Note_on_c, 15, 50, 48
19, 70500, Note_on_c, 15, 50, 0
19, 70560, Note_on_c, 15, 47, 48
19, 70620, Note_on_c, 15, 47, 0
19, 70680, Note_on_c, 15, 49, 48
19, 70740, Note_on_c, 15, 49, 0
19, 70740, Note_on_c, 15, 61, 48
19, 70800, Note_on_c, 15, 61, 0
19, 70800, Note_on_c, 15, 59, 48
19, 70830, Note_on_c, 15, 59, 0
19, 70830, Note_on_c, 15, 57, 48
19, 70860, Note_on_c, 15, 57, 0
19, 70860, Note_on_c, 15, 56, 48
19, 70890, Note_on_c, 15, 56, 0
19, 70890, Note_on_c, 15, 54, 48
19, 70920, Note_on_c, 15, 54, 0
19, 70920, Note_on_c, 15, 56, 48
19, 70980, Note_on_c, 15, 56, 0
19, 70980, Note_on_c, 15, 58, 48
19, 71040, Note_on_c, 15, 58, 0
19, 71040, Note_on_c, 15, 59, 48
19, 71100, Note_on_c, 15, 59, 0
19, 71100, Note_on_c, 15, 47, 48
19, 71160, Note_on_c, 15, 47, 0
19, 71160, Note_on_c, 15, 54, 48
19, 71220, Note_on_c, 15, 54, 0
19, 71220, Note_on_c, 15, 54, 48
19, 71280, Note_on_c, 15, 54, 0
19, 71280, Note_on_c, 15, 52, 48
19, 71340, Note_on_c, 15, 52, 0
19, 71340, Note_on_c, 15, 52, 48
19, 71400, Note_on_c, 15, 52, 0
19, 71400, Note_on_c, 15, 50, 48
19, 71460, Note_on_c, 15, 50, 0
19, 71460, Note_on_c, 15, 47, 48
19, 71520, Note_on_c, 15, 47, 0
19, 71520, Note_on_c, 15, 41, 48
19, 71580, Note_on_c, 15, 41, 0
19, 71580, Note_on_c, 15, 42, 48
19, 71640, Note_on_c, 15, 42, 0
19, 71640, Note_on_c, 15, 44, 48
19, 71700, Note_on_c, 15, 44, 0
19, 71700, Note_on_c, 15, 45, 48
19, 71760, Note_on_c, 15, 45, 0
19, 71760, Note_on_c, 15, 47, 48
19, 71820, Note_on_c, 15, 47, 0
19, 71820, Note_on_c, 15, 47, 48
19, 71880, Note_on_c, 15, 47, 0
19, 71880, Note_on_c, 15, 49, 48
19, 71940, Note_on_c, 15, 49, 0
19, 71940, Note_on_c, 15, 49, 48
19, 72000, Note_on_c, 15, 49, 0
19, 72000, Note_on_c, 15, 50, 48
19, 72060, Note_on_c, 15, 50, 0
19, 72060, Note_on_c, 15, 50, 48
19, 72120, Note_on_c, 15, 50, 0
19, 72120, Note_on_c, 15, 49, 48
19, 72180, Note_on_c, 15, 49, 0
19, 72180, Note_on_c, 15, 47, 48
19, 72240, Note_on_c, 15, 47, 0
19, 72240, Note_on_c, 15, 45, 48
19, 72300, Note_on_c, 15, 45, 0
19, 72300, Note_on_c, 15, 44, 48
19, 72360, Note_on_c, 15, 44, 0
19, 72360, Note_on_c, 15, 42, 48
19, 72420, Note_on_c, 15, 42, 0
19, 72420, Note_on_c, 15, 41, 48
19, 72480, Note_on_c, 15, 41, 0
19, 72480, Note_on_c, 15, 42, 48
19, 72540, Note_on_c, 15, 42, 0
19, 72540, Note_on_c, 15, 45, 48
19, 72600, Note_on_c, 15, 45, 0
19, 72600, Note_on_c, 15, 50, 48
19, 72660, Note_on_c, 15, 50, 0
19, 72660, Note_on_c, 15, 47, 48
19, 72720, Note_on_c, 15, 47, 0
19, 72720, Note_on_c, 15, 49, 48
19, 72780, Note_on_c, 15, 49, 0
19, 72780, Note_on_c, 15, 37, 48
19, 72840, Note_on_c, 15, 37, 0
19, 72840, Note_on_c, 15, 42, 48
19, 72900, Note_on_c, 15, 42, 0
19, 72900, Note_on_c, 15, 57, 48
19, 72960, Note_on_c, 15, 57, 0
19, 72960, Note_on_c, 15, 56, 72
19, 73020, Note_on_c, 15, 56, 0
19, 73020, Note_on_c, 15, 54, 72
19, 73080, Note_on_c, 15, 54, 0
19, 73080, Note_on_c, 15, 61, 72
19, 73140, Note_on_c, 15, 61, 0
19, 73140, Note_on_c, 15, 49, 72
19, 73200, Note_on_c, 15, 49, 0
19, 73200, Note_on_c, 15, 54, 72
19, 73260, Note_on_c, 15, 54, 0
19, 73260, Note_on_c, 15, 57, 72
19, 73320, Note_on_c, 15, 57, 0
19, 73320, Note_on_c, 15, 51, 72
19, 73380, Note_on_c, 15, 51, 0
19, 73380, Note_on_c, 15, 54, 72
19, 73440, Note_on_c, 15, 54, 0
19, 73440, Note_on_c, 15, 56, 72
19, 73500, Note_on_c, 15, 56, 0
19, 73500, Note_on_c, 15, 54, 72
19, 73560, Note_on_c, 15, 54, 0
19, 73560, Note_on_c, 15, 53, 72
19, 73620, Note_on_c, 15, 53, 0
19, 73620, Note_on_c, 15, 56, 72
19, 73680, Note_on_c, 15, 56, 0
19, 73680, Note_on_c, 15, 49, 72
19, 73740, Note_on_c, 15, 49, 0
19, 73740, Note_on_c, 15, 53, 72
19, 73800, Note_on_c, 15, 53, 0
19, 73800, Note_on_c, 15, 54, 72
19, 73860, Note_on_c, 15, 54, 0
19, 73860, Note_on_c, 15, 49, 72
19, 73920, Note_on_c, 15, 49, 0
19, 73920, Note_on_c, 15, 45, 72
19, 73980, Note_on_c, 15, 45, 0
19, 73980, Note_on_c, 15, 44, 72
19, 74040, Note_on_c, 15, 44, 0
19, 74040, Note_on_c, 15, 45, 72
19, 74100, Note_on_c, 15, 45, 0
19, 74100, Note_on_c, 15, 47, 72
19, 74160, Note_on_c, 15, 47, 0
19, 74160, Note_on_c, 15, 49, 72
19, 74220, Note_on_c, 15, 49, 0
19, 74220, Note_on_c, 15, 37, 72
19, 74280, Note_on_c, 15, 37, 0
19, 74280, Note_on_c, 15, 42, 72
19, 74340, Note_on_c, 15, 42, 0
19, 74340, Note_on_c, 15, 54, 72
19, 74370, Note_on_c, 15, 54, 0
19, 74370, Note_on_c, 15, 56, 72
19, 74400, Note_on_c, 15, 56, 0
19, 74400, Note_on_c, 15, 57, 72
19, 74460, Note_on_c, 15, 57, 0
19, 74460, Note_on_c, 15, 59, 72
19, 74520, Note_on_c, 15, 59, 0
19, 74520, Note_on_c, 15, 57, 72
19, 74580, Note_on_c, 15, 57, 0
19, 74580, Note_on_c, 15, 56, 52
19, 74640, Note_on_c, 15, 56, 0
19, 74640, Note_on_c, 15, 54, 52
19, 74700, Note_on_c, 15, 54, 0
19, 74700, Note_on_c, 15, 54, 52
19, 74760, Note_on_c, 15, 54, 0
19, 74760, Note_on_c, 15, 49, 52
19, 74820, Note_on_c, 15, 49, 0
19, 74820, Note_on_c, 15, 49, 52
19, 74880, Note_on_c, 15, 49, 0
19, 74880, Note_on_c, 15, 45, 52
19, 74940, Note_on_c, 15, 45, 0
19, 74940, Note_on_c, 15, 45, 52
19, 75000, Note_on_c, 15, 45, 0
19, 75000, Note_on_c, 15, 38, 52
19, 75060, Note_on_c, 15, 38, 0
19, 75060, Note_on_c, 15, 50, 52
19, 75090, Note_on_c, 15, 50, 0
19, 75090, Note_on_c, 15, 52, 52
19, 75120, Note_on_c, 15, 52, 0
19, 75120, Note_on_c, 15, 50, 52
19, 75180, Note_on_c, 15, 50, 0
19, 75180, Note_on_c, 15, 49, 52
19, 75240, Note_on_c, 15, 49, 0
19, 75240, Note_on_c, 15, 47, 52
19, 75300, Note_on_c, 15, 47, 0
19, 75300, Note_on_c, 15, 50, 52
19, 75360, Note_on_c, 15, 50, 0
19, 75360, Note_on_c, 15, 49, 52
19, 75420, Note_on_c, 15, 49, 0
19, 75420, Note_on_c, 15, 49, 52
19, 75480, Note_on_c, 15, 49, 0
19, 75480, Note_on_c, 15, 46, 52
19, 75540, Note_on_c, 15, 46, 0
19, 75540, Note_on_c, 15, 46, 52
19, 75600, Note_on_c, 15, 46, 0
19, 75600, Note_on_c, 15, 42, 52
19, 75660, Note_on_c, 15, 42, 0
19, 75660, Note_on_c, 15, 42, 52
19, 75720, Note_on_c, 15, 42, 0
19, 75720, Note_on_c, 15, 47, 52
19, 75780, Note_on_c, 15, 47, 0
19, 75780, Note_on_c, 15, 59, 52
19, 75810, Note_on_c, 15, 59, 0
19, 75810, Note_on_c, 15, 61, 52
19, 75840, Note_on_c, 15, 61, 0
19, 75840, Note_on_c, 15, 59, 52
19, 75900, Note_on_c, 15, 59, 0
19, 75900, Note_on_c, 15, 57, 52
19, 75960, Note_on_c, 15, 57, 0
19, 75960, Note_on_c, 15, 56, 52
19, 76020, Note_on_c, 15, 56, 0
19, 76020, Note_on_c, 15, 52, 52
19, 76080, Note_on_c, 15, 52, 0
19, 76080, Note_on_c, 15, 57, 52
19, 76140, Note_on_c, 15, 57, 0
19, 76140, Note_on_c, 15, 56, 52
19, 76200, Note_on_c, 15, 56, 0
19, 76200, Note_on_c, 15, 54, 52
19, 76260, Note_on_c, 15, 54, 0
19, 76260, Note_on_c, 15, 56, 52
19, 76320, Note_on_c, 15, 56, 0
19, 76320, Note_on_c, 15, 57, 52
19, 76380, Note_on_c, 15, 57, 0
19, 76380, Note_on_c, 15, 54, 52
19, 76440, Note_on_c, 15, 54, 0
19, 76440, Note_on_c, 15, 59, 52
19, 76500, Note_on_c, 15, 59, 0
19, 76500, Note_on_c, 15, 47, 52
19, 76560, Note_on_c, 15, 47, 0
19, 76560, Note_on_c, 15, 40, 52
19, 76620, Note_on_c, 15, 40, 0
19, 76620, Note_on_c, 15, 40, 52
19, 76680, Note_on_c, 15, 40, 0
19, 76680, Note_on_c, 15, 40, 52
19, 76740, Note_on_c, 15, 40, 0
19, 76740, Note_on_c, 15, 40, 52
19, 76800, Note_on_c, 15, 40, 0
19, 76800, Note_on_c, 15, 40, 52
19, 76860, Note_on_c, 15, 40, 0
19, 76860, Note_on_c, 15, 40, 52
19, 76920, Note_on_c, 15, 40, 0
19, 76920, Note_on_c, 15, 40, 52
19, 76980, Note_on_c, 15, 40, 0
19, 76980, Note_on_c, 15, 40, 52
19, 77040, Note_on_c, 15, 40, 0
19, 77040, Note_on_c, 15, 40, 52
19, 77100, Note_on_c, 15, 40, 0
19, 77100, Note_on_c, 15, 40, 52
19, 77160, Note_on_c, 15, 40, 0
19, 77160, Note_on_c, 15, 40, 52
19, 77220, Note_on_c, 15, 40, 0
19, 77220, Note_on_c, 15, 40, 52
19, 77280, Note_on_c, 15, 40, 0
19, 77280, Note_on_c, 15, 40, 52
19, 77340, Note_on_c, 15, 40, 0
19, 77340, Note_on_c, 15, 40, 52
19, 77400, Note_on_c, 15, 40, 0
19, 77400, Note_on_c, 15, 40, 52
19, 77460, Note_on_c, 15, 40, 0
19, 77460, Note_on_c, 15, 40, 52
19, 77520, Note_on_c, 15, 40, 0
19, 77520, Note_on_c, 15, 42, 52
19, 77580, Note_on_c, 15, 42, 0
19, 77580, Note_on_c, 15, 42, 52
19, 77640, Note_on_c, 15, 42, 0
19, 77640, Note_on_c, 15, 42, 52
19, 77700, Note_on_c, 15, 42, 0
19, 77700, Note_on_c, 15, 42, 52
19, 77760, Note_on_c, 15, 42, 0
19, 77760, Note_on_c, 15, 42, 52
19, 77820, Note_on_c, 15, 42, 0
19, 77820, Note_on_c, 15, 42, 52
19, 77880, Note_on_c, 15, 42, 0
19, 77880, Note_on_c, 15, 44, 52
19, 77940, Note_on_c, 15, 44, 0
19, 77940, Note_on_c, 15, 44, 52
19, 78000, Note_on_c, 15, 44, 0
19, 78000, Note_on_c, 15, 44, 52
19, 78060, Note_on_c, 15, 44, 0
19, 78060, Note_on_c, 15, 44, 52
19, 78120, Note_on_c, 15, 44, 0
19, 78120, Note_on_c, 15, 45, 52
19, 78180, Note_on_c, 15, 45, 0
19, 78180, Note_on_c, 15, 50, 52
19, 78300, Note_on_c, 15, 50, 0
19, 78300, Note_on_c, 15, 44, 52
19, 78360, Note_on_c, 15, 44, 0
19, 78360, Note_on_c, 15, 45, 52
19, 78420, Note_on_c, 15, 45, 0
19, 78420, Note_on_c, 15, 49, 52
19, 78480, Note_on_c, 15, 49, 0
19, 78480, Note_on_c, 15, 52, 52
19, 78540, Note_on_c, 15, 52, 0
19, 78540, Note_on_c, 15, 40, 52
19, 78600, Note_on_c, 15, 40, 0
19, 78600, Note_on_c, 15, 45, 52
19, 78660, Note_on_c, 15, 45, 0
19, 78660, Note_on_c, 15, 52, 55
19, 78720, Note_on_c, 15, 52, 0
19, 78720, Note_on_c, 15, 57, 58
19, 78780, Note_on_c, 15, 57, 0
19, 78780, Note_on_c, 15, 52, 61
19, 78840, Note_on_c, 15, 52, 0
19, 78840, Note_on_c, 15, 49, 64
19, 78900, Note_on_c, 15, 49, 0
19, 78900, Note_on_c, 15, 52, 68
19, 78960, Note_on_c, 15, 52, 0
19, 78960, Note_on_c, 15, 57, 72
19, 79020, Note_on_c, 15, 57, 0
19, 79020, Note_on_c, 15, 61, 72
19, 79080, Note_on_c, 15, 61, 0
19, 79080, Note_on_c, 15, 62, 72
19, 79140, Note_on_c, 15, 62, 0
19, 79200, Note_on_c, 15, 61, 72
19, 79260, Note_on_c, 15, 61, 0
19, 79320, Note_on_c, 15, 59, 72
19, 79380, Note_on_c, 15, 59, 0
19, 79380, Note_on_c, 15, 52, 72
19, 79440, Note_on_c, 15, 52, 0
19, 79440, Note_on_c, 15, 57, 72
19, 79500, Note_on_c, 15, 57, 0
19, 79500, Note_on_c, 15, 50, 72
19, 79530, Note_on_c, 15, 50, 0
19, 79530, Note_on_c, 15, 49, 72
19, 79560, Note_on_c, 15, 49, 0
19, 79560, Note_on_c, 15, 50, 72
19, 79740, Note_on_c, 15, 50, 0
19, 79740, Note_on_c, 15, 49, 72
19, 79800, Note_on_c, 15, 49, 0
19, 79800, Note_on_c, 15, 54, 72
19, 79860, Note_on_c, 15, 54, 0
19, 79860, Note_on_c, 15, 56, 72
19, 79920, Note_on_c, 15, 56, 0
19, 79920, Note_on_c, 15, 57, 72
19, 79980, Note_on_c, 15, 57, 0
19, 79980, Note_on_c, 15, 50, 72
19, 80040, Note_on_c, 15, 50, 0
19, 80040, Note_on_c, 15, 52, 72
19, 80100, Note_on_c, 15, 52, 0
19, 80100, Note_on_c, 15, 40, 72
19, 80160, Note_on_c, 15, 40, 0
19, 80160, Note_on_c, 15, 52, 72
19, 80220, Note_on_c, 15, 52, 0
19, 80220, Note_on_c, 15, 50, 72
19, 80280, Note_on_c, 15, 50, 0
19, 80280, Note_on_c, 15, 49, 48
19, 80340, Note_on_c, 15, 49, 0
19, 80340, Note_on_c, 15, 52, 48
19, 80400, Note_on_c, 15, 52, 0
19, 80400, Note_on_c, 15, 57, 48
19, 80460, Note_on_c, 15, 57, 0
19, 80460, Note_on_c, 15, 61, 48
19, 80520, Note_on_c, 15, 61, 0
19, 80520, Note_on_c, 15, 62, 48
19, 80580, Note_on_c, 15, 62, 0
19, 80640, Note_on_c, 15, 61, 48
19, 80700, Note_on_c, 15, 61, 0
19, 80760, Note_on_c, 15, 59, 48
19, 80820, Note_on_c, 15, 59, 0
19, 80820, Note_on_c, 15, 52, 48
19, 80880, Note_on_c, 15, 52, 0
19, 80880, Note_on_c, 15, 57, 48
19, 80940, Note_on_c, 15, 57, 0
19, 80940, Note_on_c, 15, 50, 48
19, 80970, Note_on_c, 15, 50, 0
19, 80970, Note_on_c, 15, 49, 48
19, 81000, Note_on_c, 15, 49, 0
19, 81000, Note_on_c, 15, 50, 48
19, 81180, Note_on_c, 15, 50, 0
19, 81180, Note_on_c, 15, 49, 48
19, 81240, Note_on_c, 15, 49, 0
19, 81240, Note_on_c, 15, 54, 48
19, 81300, Note_on_c, 15, 54, 0
19, 81300, Note_on_c, 15, 56, 48
19, 81360, Note_on_c, 15, 56, 0
19, 81360, Note_on_c, 15, 57, 48
19, 81420, Note_on_c, 15, 57, 0
19, 81420, Note_on_c, 15, 50, 48
19, 81480, Note_on_c, 15, 50, 0
19, 81480, Note_on_c, 15, 52, 48
19, 81540, Note_on_c, 15, 52, 0
19, 81540, Note_on_c, 15, 54, 48
19, 81600, Note_on_c, 15, 54, 0
19, 81600, Note_on_c, 15, 56, 48
19, 81660, Note_on_c, 15, 56, 0
19, 81660, Note_on_c, 15, 52, 48
19, 81720, Note_on_c, 15, 52, 0
19, 81720, Note_on_c, 15, 54, 72
19, 81780, Note_on_c, 15, 54, 0
19, 81780, Note_on_c, 15, 47, 72
19, 81840, Note_on_c, 15, 47, 0
19, 81840, Note_on_c, 15, 52, 72
19, 81900, Note_on_c, 15, 52, 0
19, 81900, Note_on_c, 15, 55, 72
19, 81960, Note_on_c, 15, 55, 0
19, 81960, Note_on_c, 15, 49, 72
19, 82020, Note_on_c, 15, 49, 0
19, 82020, Note_on_c, 15, 52, 72
19, 82080, Note_on_c, 15, 52, 0
19, 82080, Note_on_c, 15, 54, 72
19, 82140, Note_on_c, 15, 54, 0
19, 82140, Note_on_c, 15, 52, 72
19, 82200, Note_on_c, 15, 52, 0
19, 82200, Note_on_c, 15, 51, 72
19, 82260, Note_on_c, 15, 51, 0
19, 82260, Note_on_c, 15, 52, 72
19, 82320, Note_on_c, 15, 52, 0
19, 82320, Note_on_c, 15, 45, 72
19, 82350, Note_on_c, 15, 45, 0
19, 82350, Note_on_c, 15, 43, 72
19, 82380, Note_on_c, 15, 43, 0
19, 82380, Note_on_c, 15, 45, 72
19, 82500, Note_on_c, 15, 45, 0
19, 82500, Note_on_c, 15, 44, 72
19, 82560, Note_on_c, 15, 44, 0
19, 82560, Note_on_c, 15, 42, 72
19, 82620, Note_on_c, 15, 42, 0
19, 82620, Note_on_c, 15, 51, 72
19, 82680, Note_on_c, 15, 51, 0
19, 82680, Note_on_c, 15, 52, 72
19, 82740, Note_on_c, 15, 52, 0
19, 82740, Note_on_c, 15, 49, 72
19, 82800, Note_on_c, 15, 49, 0
19, 82800, Note_on_c, 15, 45, 72
19, 82860, Note_on_c, 15, 45, 0
19, 82860, Note_on_c, 15, 47, 72
19, 82920, Note_on_c, 15, 47, 0
19, 82920, Note_on_c, 15, 40, 72
19, 82980, Note_on_c, 15, 40, 0
19, 82980, Note_on_c, 15, 47, 72
19, 83040, Note_on_c, 15, 47, 0
19, 83040, Note_on_c, 15, 52, 72
19, 83100, Note_on_c, 15, 52, 0
19, 83100, Note_on_c, 15, 56, 72
19, 83130, Note_on_c, 15, 56, 0
19, 83130, Note_on_c, 15, 54, 72
19, 83160, Note_on_c, 15, 54, 0
19, 83160, Note_on_c, 15, 52, 72
19, 83220, Note_on_c, 15, 52, 0
19, 83220, Note_on_c, 15, 50, 72
19, 83280, Note_on_c, 15, 50, 0
19, 83280, Note_on_c, 15, 49, 72
19, 83340, Note_on_c, 15, 49, 0
19, 83340, Note_on_c, 15, 52, 72
19, 83400, Note_on_c, 15, 52, 0
19, 83400, Note_on_c, 15, 42, 72
19, 83460, Note_on_c, 15, 42, 0
19, 83460, Note_on_c, 15, 54, 72
19, 83520, Note_on_c, 15, 54, 0
19, 83520, Note_on_c, 15, 56, 72
19, 83580, Note_on_c, 15, 56, 0
19, 83580, Note_on_c, 15, 58, 72
19, 83640, Note_on_c, 15, 58, 0
19, 83640, Note_on_c, 15, 59, 72
19, 83700, Note_on_c, 15, 59, 0
19, 83700, Note_on_c, 15, 57, 72
19, 83760, Note_on_c, 15, 57, 0
19, 83760, Note_on_c, 15, 56, 72
19, 83820, Note_on_c, 15, 56, 0
19, 83820, Note_on_c, 15, 54, 72
19, 83880, Note_on_c, 15, 54, 0
19, 83880, Note_on_c, 15, 53, 72
19, 83940, Note_on_c, 15, 53, 0
19, 83940, Note_on_c, 15, 61, 72
19, 84000, Note_on_c, 15, 61, 0
19, 84000, Note_on_c, 15, 54, 72
19, 84060, Note_on_c, 15, 54, 0
19, 84060, Note_on_c, 15, 57, 72
19, 84120, Note_on_c, 15, 57, 0
19, 84120, Note_on_c, 15, 50, 72
19, 84180, Note_on_c, 15, 50, 0
19, 84240, Note_on_c, 15, 47, 72
19, 84300, Note_on_c, 15, 47, 0
19, 84360, Note_on_c, 15, 49, 72
19, 84420, Note_on_c, 15, 49, 0
19, 84420, Note_on_c, 15, 61, 72
19, 84480, Note_on_c, 15, 61, 0
19, 84480, Note_on_c, 15, 59, 72
19, 84510, Note_on_c, 15, 59, 0
19, 84510, Note_on_c, 15, 57, 72
19, 84540, Note_on_c, 15, 57, 0
19, 84540, Note_on_c, 15, 56, 72
19, 84570, Note_on_c, 15, 56, 0
19, 84570, Note_on_c, 15, 54, 72
19, 84600, Note_on_c, 15, 54, 0
19, 84600, Note_on_c, 15, 56, 72
19, 84660, Note_on_c, 15, 56, 0
19, 84660, Note_on_c, 15, 58, 72
19, 84720, Note_on_c, 15, 58, 0
19, 84720, Note_on_c, 15, 59, 72
19, 84780, Note_on_c, 15, 59, 0
19, 84780, Note_on_c, 15, 47, 72
19, 84840, Note_on_c, 15, 47, 0
19, 84840, Note_on_c, 15, 49, 72
19, 84900, Note_on_c, 15, 49, 0
19, 84900, Note_on_c, 15, 51, 72
19, 84960, Note_on_c, 15, 51, 0
19, 84960, Note_on_c, 15, 53, 72
19, 85020, Note_on_c, 15, 53, 0
19, 85020, Note_on_c, 15, 54, 72
19, 85080, Note_on_c, 15, 54, 0
19, 85080, Note_on_c, 15, 56, 72
19, 85140, Note_on_c, 15, 56, 0
19, 85140, Note_on_c, 15, 59, 72
19, 85200, Note_on_c, 15, 59, 0
19, 85200, Note_on_c, 15, 57, 72
19, 85260, Note_on_c, 15, 57, 0
19, 85260, Note_on_c, 15, 56, 72
19, 85320, Note_on_c, 15, 56, 0
19, 85320, Note_on_c, 15, 54, 72
19, 85380, Note_on_c, 15, 54, 0
19, 85380, Note_on_c, 15, 53, 72
19, 85440, Note_on_c, 15, 53, 0
19, 85440, Note_on_c, 15, 54, 72
19, 85500, Note_on_c, 15, 54, 0
19, 85500, Note_on_c, 15, 45, 72
19, 85560, Note_on_c, 15, 45, 0
19, 85560, Note_on_c, 15, 50, 72
19, 85620, Note_on_c, 15, 50, 0
19, 85620, Note_on_c, 15, 47, 72
19, 85680, Note_on_c, 15, 47, 0
19, 85680, Note_on_c, 15, 49, 72
19, 85740, Note_on_c, 15, 49, 0
19, 85740, Note_on_c, 15, 37, 72
19, 85800, Note_on_c, 15, 37, 0
19, 85800, Note_on_c, 15, 42, 72
19, 85860, Note_on_c, 15, 42, 0
19, 85860, Note_on_c, 15, 54, 72
19, 85890, Note_on_c, 15, 54, 0
19, 85890, Note_on_c, 15, 56, 72
19, 85920, Note_on_c, 15, 56, 0
19, 85920, Note_on_c, 15, 57, 72
19, 85980, Note_on_c, 15, 57, 0
19, 85980, Note_on_c, 15, 59, 72
19, 86040, Note_on_c, 15, 59, 0
19, 86040, Note_on_c, 15, 57, 72
19, 86100, Note_on_c, 15, 57, 0
19, 86100, Note_on_c, 15, 56, 72
19, 86160, Note_on_c, 15, 56, 0
19, 86160, Note_on_c, 15, 54, 72
19, 86220, Note_on_c, 15, 54, 0
19, 86220, Note_on_c, 15, 52, 72
19, 86250, Note_on_c, 15, 52, 0
19, 86250, Note_on_c, 15, 50, 72
19, 86280, Note_on_c, 15, 50, 0
19, 86280, Note_on_c, 15, 49, 72
19, 86340, Note_on_c, 15, 49, 0
19, 86340, Note_on_c, 15, 50, 72
19, 86370, Note_on_c, 15, 50, 0
19, 86370, Note_on_c, 15, 52, 72
19, 86400, Note_on_c, 15, 52, 0
19, 86400, Note_on_c, 15, 50, 72
19, 86430, Note_on_c, 15, 50, 0
19, 86430, Note_on_c, 15, 49, 72
19, 86460, Note_on_c, 15, 49, 0
19, 86460, Note_on_c, 15, 47, 72
19, 86490, Note_on_c, 15, 47, 0
19, 86490, Note_on_c, 15, 45, 72
19, 86520, Note_on_c, 15, 45, 0
19, 86520, Note_on_c, 15, 50, 72
19, 86580, Note_on_c, 15, 50, 0
19, 86580, Note_on_c, 15, 49, 72
19, 86640, Note_on_c, 15, 49, 0
19, 86640, Note_on_c, 15, 47, 72
19, 86700, Note_on_c, 15, 47, 0
19, 86700, Note_on_c, 15, 45, 72
19, 86760, Note_on_c, 15, 45, 0
19, 86760, Note_on_c, 15, 44, 72
19, 86820, Note_on_c, 15, 44, 0
19, 86820, Note_on_c, 15, 40, 72
19, 86880, Note_on_c, 15, 40, 0
19, 86880, Note_on_c, 15, 45, 72
19, 86940, Note_on_c, 15, 45, 0
19, 86940, Note_on_c, 15, 49, 72
19, 87000, Note_on_c, 15, 49, 0
19, 87000, Note_on_c, 15, 54, 72
19, 87060, Note_on_c, 15, 54, 0
19, 87060, Note_on_c, 15, 57, 72
19, 87090, Note_on_c, 15, 57, 0
19, 87090, Note_on_c, 15, 56, 72
19, 87120, Note_on_c, 15, 56, 0
19, 87120, Note_on_c, 15, 57, 72
19, 87300, Note_on_c, 15, 57, 0
19, 87300, Note_on_c, 15, 56, 72
19, 87330, Note_on_c, 15, 56, 0
19, 87330, Note_on_c, 15, 54, 72
19, 87360, Note_on_c, 15, 54, 0
19, 87360, Note_on_c, 15, 56, 72
19, 87420, Note_on_c, 15, 56, 0
19, 87420, Note_on_c, 15, 57, 72
19, 87450, Note_on_c, 15, 57, 0
19, 87450, Note_on_c, 15, 59, 72
19, 87480, Note_on_c, 15, 59, 0
19, 87480, Note_on_c, 15, 61, 72
19, 87660, Note_on_c, 15, 61, 0
19, 87660, Note_on_c, 15, 59, 72
19, 87690, Note_on_c, 15, 59, 0
19, 87690, Note_on_c, 15, 57, 72
19, 87720, Note_on_c, 15, 57, 0
19, 87720, Note_on_c, 15, 59, 72
19, 87780, Note_on_c, 15, 59, 0
19, 87780, Note_on_c, 15, 52, 72
19, 87840, Note_on_c, 15, 52, 0
19, 87840, Note_on_c, 15, 61, 72
19, 87900, Note_on_c, 15, 61, 0
19, 87900, Note_on_c, 15, 52, 72
19, 87960, Note_on_c, 15, 52, 0
19, 87960, Note_on_c, 15, 62, 72
19, 88020, Note_on_c, 15, 62, 0
19, 88020, Note_on_c, 15, 59, 72
19, 88080, Note_on_c, 15, 59, 0
19, 88080, Note_on_c, 15, 56, 72
19, 88140, Note_on_c, 15, 56, 0
19, 88140, Note_on_c, 15, 52, 72
19, 88200, Note_on_c, 15, 52, 0
19, 88200, Note_on_c, 15, 57, 72
19, 88260, Note_on_c, 15, 57, 0
19, 88260, Note_on_c, 15, 50, 72
19, 88380, Note_on_c, 15, 50, 0
19, 88380, Note_on_c, 15, 44, 72
19, 88440, Note_on_c, 15, 44, 0
19, 88440, Note_on_c, 15, 45, 72
19, 88500, Note_on_c, 15, 45, 0
19, 88500, Note_on_c, 15, 49, 72
19, 88560, Note_on_c, 15, 49, 0
19, 88560, Note_on_c, 15, 52, 72
19, 88620, Note_on_c, 15, 52, 0
19, 88620, Note_on_c, 15, 40, 72
19, 88680, Note_on_c, 15, 40, 0
19, 88680, Note_on_c, 15, 45, 72
19, 88920, Note_on_c, 15, 45, 0
19, 89040, Note_on_c, 15, 42, 70
19, 89759, Note_on_c, 15, 42, 0
19, 89760, Note_on_c, 15, 49, 70
19, 89999, Note_on_c, 15, 49, 0
19, 90000, Note_on_c, 15, 47, 70
19, 90840, Note_on_c, 15, 47, 0
19, 90840, Note_on_c, 15, 46, 70
19, 91199, Note_on_c, 15, 46, 0
19, 91200, Note_on_c, 15, 45, 70
19, 91440, Note_on_c, 15, 45, 0
19, 91440, Note_on_c, 15, 44, 70
19, 92160, Note_on_c, 15, 44, 0
19, 92160, Note_on_c, 15, 45, 70
19, 92519, Note_on_c, 15, 45, 0
19, 92520, Note_on_c, 15, 49, 70
19, 92879, Note_on_c, 15, 49, 0
19, 92880, Note_on_c, 15, 50, 70
19, 93359, Note_on_c, 15, 50, 0
19, 93360, Note_on_c, 15, 54, 70
19, 94080, Note_on_c, 15, 54, 0
19, 94080, Note_on_c, 15, 51, 70
19, 94800, Note_on_c, 15, 51, 0
19, 94800, Note_on_c, 15, 52, 70
19, 95279, Note_on_c, 15, 52, 0
19, 95280, Note_on_c, 15, 54, 70
19, 95519, Note_on_c, 15, 54, 0
19, 95520, Note_on_c, 15, 55, 70
19, 95759, Note_on_c, 15, 55, 0
19, 95760, Note_on_c, 15, 48, 70
19, 95879, Note_on_c, 15, 48, 0
19, 95880, Note_on_c, 15, 49, 70
19, 95999, Note_on_c, 15, 49, 0
19, 96120, Note_on_c, 15, 50, 70
19, 96239, Note_on_c, 15, 50, 0
19, 96240, Note_on_c, 15, 43, 70
19, 96479, Note_on_c, 15, 43, 0
19, 97080, Note_on_c, 15, 55, 80
19, 97140, Note_on_c, 15, 55, 0
19, 97140, Note_on_c, 15, 54, 80
19, 97200, Note_on_c, 15, 54, 0
19, 97200, Note_on_c, 15, 52, 80
19, 97260, Note_on_c, 15, 52, 0
19, 97260, Note_on_c, 15, 40, 80
19, 97320, Note_on_c, 15, 40, 0
19, 97320, Note_on_c, 15, 52, 80
19, 97380, Note_on_c, 15, 52, 0
19, 97380, Note_on_c, 15, 50, 80
19, 97440, Note_on_c, 15, 50, 0
19, 97440, Note_on_c, 15, 48, 80
19, 97500, Note_on_c, 15, 48, 0
19, 97500, Note_on_c, 15, 36, 80
19, 97560, Note_on_c, 15, 36, 0
19, 97560, Note_on_c, 15, 48, 80
19, 97620, Note_on_c, 15, 48, 0
19, 97620, Note_on_c, 15, 47, 80
19, 97680, Note_on_c, 15, 47, 0
19, 97680, Note_on_c, 15, 48, 80
19, 97740, Note_on_c, 15, 48, 0
19, 97740, Note_on_c, 15, 45, 80
19, 97800, Note_on_c, 15, 45, 0
19, 97800, Note_on_c, 15, 50, 80
19, 97860, Note_on_c, 15, 50, 0
19, 97860, Note_on_c, 15, 38, 80
19, 97920, Note_on_c, 15, 38, 0
19, 97920, Note_on_c, 15, 43, 80
19, 98028, Note_on_c, 15, 43, 0
19, 98040, Note_on_c, 15, 48, 80
19, 98160, Note_on_c, 15, 48, 0
19, 98160, Note_on_c, 15, 55, 80
19, 98220, Note_on_c, 15, 55, 0
19, 98220, Note_on_c, 15, 54, 80
19, 98280, Note_on_c, 15, 54, 0
19, 98280, Note_on_c, 15, 52, 80
19, 98340, Note_on_c, 15, 52, 0
19, 98340, Note_on_c, 15, 40, 80
19, 98400, Note_on_c, 15, 40, 0
19, 98400, Note_on_c, 15, 47, 80
19, 98460, Note_on_c, 15, 47, 0
19, 98460, Note_on_c, 15, 45, 80
19, 98520, Note_on_c, 15, 45, 0
19, 98520, Note_on_c, 15, 43, 80
19, 98580, Note_on_c, 15, 43, 0
19, 98580, Note_on_c, 15, 47, 80
19, 98640, Note_on_c, 15, 47, 0
19, 98640, Note_on_c, 15, 50, 80
19, 98760, Note_on_c, 15, 50, 0
19, 98760, Note_on_c, 15, 38, 80
19, 98880, Note_on_c, 15, 38, 0
19, 98880, Note_on_c, 15, 43, 80
19, 98988, Note_on_c, 15, 43, 0
19, 99000, Note_on_c, 15, 55, 80
19, 99060, Note_on_c, 15, 55, 0
19, 99060, Note_on_c, 15, 54, 80
19, 99120, Note_on_c, 15, 54, 0
19, 99120, Note_on_c, 15, 52, 80
19, 99180, Note_on_c, 15, 52, 0
19, 99180, Note_on_c, 15, 40, 80
19, 99240, Note_on_c, 15, 40, 0
19, 99240, Note_on_c, 15, 52, 80
19, 99300, Note_on_c, 15, 52, 0
19, 99300, Note_on_c, 15, 50, 80
19, 99360, Note_on_c, 15, 50, 0
19, 99360, Note_on_c, 15, 48, 80
19, 99420, Note_on_c, 15, 48, 0
19, 99420, Note_on_c, 15, 36, 80
19, 99480, Note_on_c, 15, 36, 0
19, 99480, Note_on_c, 15, 48, 80
19, 99540, Note_on_c, 15, 48, 0
19, 99540, Note_on_c, 15, 47, 80
19, 99600, Note_on_c, 15, 47, 0
19, 99600, Note_on_c, 15, 48, 80
19, 99660, Note_on_c, 15, 48, 0
19, 99660, Note_on_c, 15, 45, 80
19, 99720, Note_on_c, 15, 45, 0
19, 99720, Note_on_c, 15, 50, 80
19, 99780, Note_on_c, 15, 50, 0
19, 99780, Note_on_c, 15, 38, 80
19, 99840, Note_on_c, 15, 38, 0
19, 99840, Note_on_c, 15, 43, 80
19, 99948, Note_on_c, 15, 43, 0
19, 99960, Note_on_c, 15, 48, 80
19, 100080, Note_on_c, 15, 48, 0
19, 100080, Note_on_c, 15, 55, 80
19, 100140, Note_on_c, 15, 55, 0
19, 100140, Note_on_c, 15, 54, 80
19, 100200, Note_on_c, 15, 54, 0
19, 100200, Note_on_c, 15, 52, 80
19, 100260, Note_on_c, 15, 52, 0
19, 100260, Note_on_c, 15, 40, 80
19, 100320, Note_on_c, 15, 40, 0
19, 100320, Note_on_c, 15, 47, 80
19, 100380, Note_on_c, 15, 47, 0
19, 100380, Note_on_c, 15, 45, 80
19, 100440, Note_on_c, 15, 45, 0
19, 100440, Note_on_c, 15, 43, 80
19, 100500, Note_on_c, 15, 43, 0
19, 100500, Note_on_c, 15, 47, 80
19, 100560, Note_on_c, 15, 47, 0
19, 100560, Note_on_c, 15, 50, 80
19, 100680, Note_on_c, 15, 50, 0
19, 100680, Note_on_c, 15, 38, 80
19, 100800, Note_on_c, 15, 38, 0
19, 100800, Note_on_c, 15, 43, 80
19, 100908, Note_on_c, 15, 43, 0
19, 100920, Note_on_c, 15, 43, 80
19, 100980, Note_on_c, 15, 43, 0
19, 100980, Note_on_c, 15, 45, 80
19, 101040, Note_on_c, 15, 45, 0
19, 101040, Note_on_c, 15, 47, 80
19, 101100, Note_on_c, 15, 47, 0
19, 101100, Note_on_c, 15, 48, 80
19, 101160, Note_on_c, 15, 48, 0
19, 101160, Note_on_c, 15, 50, 80
19, 101220, Note_on_c, 15, 50, 0
19, 101220, Note_on_c, 15, 38, 80
19, 101280, Note_on_c, 15, 38, 0
19, 101280, Note_on_c, 15, 43, 80
19, 101340, Note_on_c, 15, 43, 0
19, 101340, Note_on_c, 15, 45, 80
19, 101400, Note_on_c, 15, 45, 0
19, 101400, Note_on_c, 15, 47, 80
19, 101460, Note_on_c, 15, 47, 0
19, 101460, Note_on_c, 15, 59, 80
19, 101520, Note_on_c, 15, 59, 0
19, 101520, Note_on_c, 15, 52, 80
19, 101580, Note_on_c, 15, 52, 0
19, 101580, Note_on_c, 15, 54, 80
19, 101640, Note_on_c, 15, 54, 0
19, 101640, Note_on_c, 15, 55, 80
19, 101700, Note_on_c, 15, 55, 0
19, 101700, Note_on_c, 15, 43, 80
19, 101760, Note_on_c, 15, 43, 0
19, 101760, Note_on_c, 15, 50, 80
19, 101868, Note_on_c, 15, 50, 0
19, 101880, Note_on_c, 15, 50, 80
19, 101940, Note_on_c, 15, 50, 0
19, 101940, Note_on_c, 15, 48, 80
19, 102000, Note_on_c, 15, 48, 0
19, 102000, Note_on_c, 15, 47, 80
19, 102060, Note_on_c, 15, 47, 0
19, 102060, Note_on_c, 15, 59, 80
19, 102120, Note_on_c, 15, 59, 0
19, 102120, Note_on_c, 15, 47, 80
19, 102180, Note_on_c, 15, 47, 0
19, 102180, Note_on_c, 15, 45, 80
19, 102240, Note_on_c, 15, 45, 0
19, 102240, Note_on_c, 15, 43, 80
19, 102300, Note_on_c, 15, 43, 0
19, 102300, Note_on_c, 15, 55, 80
19, 102360, Note_on_c, 15, 55, 0
19, 102360, Note_on_c, 15, 43, 80
19, 102420, Note_on_c, 15, 43, 0
19, 102420, Note_on_c, 15, 42, 80
19, 102480, Note_on_c, 15, 42, 0
19, 102480, Note_on_c, 15, 40, 80
19, 102540, Note_on_c, 15, 40, 0
19, 102540, Note_on_c, 15, 38, 80
19, 102600, Note_on_c, 15, 38, 0
19, 102600, Note_on_c, 15, 36, 80
19, 102660, Note_on_c, 15, 36, 0
19, 102660, Note_on_c, 15, 48, 80
19, 102720, Note_on_c, 15, 48, 0
19, 102720, Note_on_c, 15, 47, 80
19, 102828, Note_on_c, 15, 47, 0
19, 102840, Note_on_c, 15, 40, 80
19, 102960, Note_on_c, 15, 40, 0
19, 102960, Note_on_c, 15, 52, 80
19, 103020, Note_on_c, 15, 52, 0
19, 103020, Note_on_c, 15, 50, 80
19, 103080, Note_on_c, 15, 50, 0
19, 103080, Note_on_c, 15, 48, 80
19, 103140, Note_on_c, 15, 48, 0
19, 103140, Note_on_c, 15, 60, 80
19, 103200, Note_on_c, 15, 60, 0
19, 103200, Note_on_c, 15, 59, 80
19, 103260, Note_on_c, 15, 59, 0
19, 103260, Note_on_c, 15, 57, 80
19, 103320, Note_on_c, 15, 57, 0
19, 103320, Note_on_c, 15, 55, 80
19, 103380, Note_on_c, 15, 55, 0
19, 103380, Note_on_c, 15, 43, 80
19, 103440, Note_on_c, 15, 43, 0
19, 103440, Note_on_c, 15, 50, 80
19, 103560, Note_on_c, 15, 50, 0
19, 103560, Note_on_c, 15, 38, 80
19, 103680, Note_on_c, 15, 38, 0
19, 103680, Note_on_c, 15, 43, 80
19, 103800, Note_on_c, 15, 43, 0
19, 103920, Note_on_c, 15, 51, 60
19, 105120, Note_on_c, 15, 51, 0
19, 105120, Note_on_c, 15, 52, 60
19, 105360, Note_on_c, 15, 52, 0
19, 105360, Note_on_c, 15, 50, 60
19, 105600, Note_on_c, 15, 50, 0
19, 105600, Note_on_c, 15, 41, 60
19, 105780, Note_on_c, 15, 41, 0
19, 105780, Note_on_c, 15, 42, 60
19, 105810, Note_on_c, 15, 42, 0
19, 105810, Note_on_c, 15, 44, 60
19, 105840, Note_on_c, 15, 44, 0
19, 105840, Note_on_c, 15, 45, 60
19, 105900, Note_on_c, 15, 45, 0
19, 105900, Note_on_c, 15, 47, 60
19, 105930, Note_on_c, 15, 47, 0
19, 105930, Note_on_c, 15, 49, 60
19, 105960, Note_on_c, 15, 49, 0
19, 105960, Note_on_c, 15, 50, 60
19, 106140, Note_on_c, 15, 50, 0
19, 106140, Note_on_c, 15, 49, 60
19, 106170, Note_on_c, 15, 49, 0
19, 106170, Note_on_c, 15, 47, 60
19, 106200, Note_on_c, 15, 47, 0
19, 106200, Note_on_c, 15, 49, 60
19, 106260, Note_on_c, 15, 49, 0
19, 106260, Note_on_c, 15, 37, 60
19, 106320, Note_on_c, 15, 37, 0
19, 106320, Note_on_c, 15, 42, 70
19, 107520, Note_on_c, 15, 42, 0
19, 107520, Note_on_c, 15, 49, 70
19, 107759, Note_on_c, 15, 49, 0
19, 107760, Note_on_c, 15, 50, 70
19, 107879, Note_on_c, 15, 50, 0
19, 107880, Note_on_c, 15, 47, 70
19, 107999, Note_on_c, 15, 47, 0
19, 108120, Note_on_c, 15, 40, 90
19, 108239, Note_on_c, 15, 40, 0
19, 108240, Note_on_c, 15, 45, 90
19, 108719, Note_on_c, 15, 45, 0
19, 108720, Note_on_c, 15, 47, 70
19, 109199, Note_on_c, 15, 47, 0
19, 109200, Note_on_c, 15, 40, 70
19, 109439, Note_on_c, 15, 40, 0
19, 109440, Note_on_c, 15, 45, 70
19, 109679, Note_on_c, 15, 45, 0
19, 109680, Note_on_c, 15, 38, 70
19, 109739, Note_on_c, 15, 38, 0
19, 109740, Note_on_c, 15, 50, 90
19, 109769, Note_on_c, 15, 50, 0
19, 109770, Note_on_c, 15, 47, 90
19, 109799, Note_on_c, 15, 47, 0
19, 109800, Note_on_c, 15, 49, 90
19, 109829, Note_on_c, 15, 49, 0
19, 109830, Note_on_c, 15, 46, 90
19, 109859, Note_on_c, 15, 46, 0
19, 109860, Note_on_c, 15, 47, 90
19, 109889, Note_on_c, 15, 47, 0
19, 109890, Note_on_c, 15, 44, 90
19, 109919, Note_on_c, 15, 44, 0
19, 109920, Note_on_c, 15, 45, 70
19, 110880, Note_on_c, 15, 45, 0
19, 110880, Note_on_c, 15, 47, 70
19, 110939, Note_on_c, 15, 47, 0
19, 110940, Note_on_c, 15, 59, 90
19, 110969, Note_on_c, 15, 59, 0
19, 110970, Note_on_c, 15, 55, 90
19, 110999, Note_on_c, 15, 55, 0
19, 111000, Note_on_c, 15, 57, 90
19, 111029, Note_on_c, 15, 57, 0
19, 111030, Note_on_c, 15, 54, 90
19, 111059, Note_on_c, 15, 54, 0
19, 111060, Note_on_c, 15, 55, 90
19, 111089, Note_on_c, 15, 55, 0
19, 111090, Note_on_c, 15, 52, 90
19, 111119, Note_on_c, 15, 52, 0
19, 111120, Note_on_c, 15, 54, 70
19, 111599, Note_on_c, 15, 54, 0
19, 111600, Note_on_c, 15, 51, 70
19, 112140, Note_on_c, 15, 51, 0
19, 112140, Note_on_c, 15, 57, 90
19, 112169, Note_on_c, 15, 57, 0
19, 112170, Note_on_c, 15, 54, 90
19, 112199, Note_on_c, 15, 54, 0
19, 112200, Note_on_c, 15, 55, 90
19, 112229, Note_on_c, 15, 55, 0
19, 112230, Note_on_c, 15, 52, 90
19, 112259, Note_on_c, 15, 52, 0
19, 112260, Note_on_c, 15, 54, 90
19, 112289, Note_on_c, 15, 54, 0
19, 112290, Note_on_c, 15, 51, 90
19, 112319, Note_on_c, 15, 51, 0
19, 112320, Note_on_c, 15, 45, 70
19, 112559, Note_on_c, 15, 45, 0
19, 112560, Note_on_c, 15, 44, 70
19, 112980, Note_on_c, 15, 44, 0
19, 112980, Note_on_c, 15, 42, 70
19, 113040, Note_on_c, 15, 42, 0
19, 113040, Note_on_c, 15, 41, 70
19, 113219, Note_on_c, 15, 41, 0
19, 113220, Note_on_c, 15, 42, 90
19, 113249, Note_on_c, 15, 42, 0
19, 113250, Note_on_c, 15, 44, 90
19, 113279, Note_on_c, 15, 44, 0
19, 113280, Note_on_c, 15, 37, 70
19, 113519, Note_on_c, 15, 37, 0
19, 113520, Note_on_c, 15, 42, 90
19, 113579, Note_on_c, 15, 42, 0
19, 113580, Note_on_c, 15, 54, 90
19, 113639, Note_on_c, 15, 54, 0
19, 113640, Note_on_c, 15, 45, 90
19, 113699, Note_on_c, 15, 45, 0
19, 113700, Note_on_c, 15, 49, 90
19, 113759, Note_on_c, 15, 49, 0
19, 113760, Note_on_c, 15, 40, 70
19, 114239, Note_on_c, 15, 40, 0
19, 114240, Note_on_c, 15, 39, 70
19, 114599, Note_on_c, 15, 39, 0
19, 114660, Note_on_c, 15, 47, 70
19, 114719, Note_on_c, 15, 47, 0
19, 114720, Note_on_c, 15, 52, 70
19, 114779, Note_on_c, 15, 52, 0
19, 114780, Note_on_c, 15, 52, 70
19, 114839, Note_on_c, 15, 52, 0
19, 114840, Note_on_c, 15, 50, 70
19, 114899, Note_on_c, 15, 50, 0
19, 114900, Note_on_c, 15, 50, 70
19, 114959, Note_on_c, 15, 50, 0
19, 114960, Note_on_c, 15, 49, 70
19, 115019, Note_on_c, 15, 49, 0
19, 115020, Note_on_c, 15, 49, 70
19, 115079, Note_on_c, 15, 49, 0
19, 115080, Note_on_c, 15, 47, 70
19, 115139, Note_on_c, 15, 47, 0
19, 115140, Note_on_c, 15, 47, 70
19, 115199, Note_on_c, 15, 47, 0
19, 115200, Note_on_c, 15, 46, 70
19, 115259, Note_on_c, 15, 46, 0
19, 115260, Note_on_c, 15, 46, 70
19, 115319, Note_on_c, 15, 46, 0
19, 115320, Note_on_c, 15, 42, 70
19, 115379, Note_on_c, 15, 42, 0
19, 115380, Note_on_c, 15, 42, 70
19, 115439, Note_on_c, 15, 42, 0
19, 115440, Note_on_c, 15, 47, 70
19, 115499, Note_on_c, 15, 47, 0
19, 115500, Note_on_c, 15, 45, 70
19, 115559, Note_on_c, 15, 45, 0
19, 115560, Note_on_c, 15, 43, 70
19, 115619, Note_on_c, 15, 43, 0
19, 115620, Note_on_c, 15, 42, 70
19, 115679, Note_on_c, 15, 42, 0
19, 115680, Note_on_c, 15, 41, 70
19, 115799, Note_on_c, 15, 41, 0
19, 115800, Note_on_c, 15, 42, 70
19, 115919, Note_on_c, 15, 42, 0
19, 115920, Note_on_c, 15, 47, 70
19, 116160, Note_on_c, 15, 47, 0
19, 116580, Note_on_c, 15, 47, 80
19, 116639, Note_on_c, 15, 47, 0
19, 116640, Note_on_c, 15, 59, 80
19, 116759, Note_on_c, 15, 59, 0
19, 116880, Note_on_c, 15, 55, 80
19, 116999, Note_on_c, 15, 55, 0
19, 117180, Note_on_c, 15, 52, 80
19, 117239, Note_on_c, 15, 52, 0
19, 117240, Note_on_c, 15, 54, 80
19, 117299, Note_on_c, 15, 54, 0
19, 117300, Note_on_c, 15, 42, 80
19, 117359, Note_on_c, 15, 42, 0
19, 117360, Note_on_c, 15, 47, 80
19, 117419, Note_on_c, 15, 47, 0
19, 117420, Note_on_c, 15, 49, 80
19, 117479, Note_on_c, 15, 49, 0
19, 117480, Note_on_c, 15, 50, 80
19, 117509, Note_on_c, 15, 50, 0
19, 117510, Note_on_c, 15, 49, 80
19, 117539, Note_on_c, 15, 49, 0
19, 117540, Note_on_c, 15, 50, 60
19, 117569, Note_on_c, 15, 50, 0
19, 117570, Note_on_c, 15, 49, 60
19, 117599, Note_on_c, 15, 49, 0
19, 117600, Note_on_c, 15, 47, 60
19, 117719, Note_on_c, 15, 47, 0
19, 117840, Note_on_c, 15, 43, 60
19, 117959, Note_on_c, 15, 43, 0
19, 118140, Note_on_c, 15, 40, 60
19, 118199, Note_on_c, 15, 40, 0
19, 118200, Note_on_c, 15, 42, 60
19, 118259, Note_on_c, 15, 42, 0
19, 118260, Note_on_c, 15, 54, 60
19, 118319, Note_on_c, 15, 54, 0
19, 118320, Note_on_c, 15, 47, 60
19, 118379, Note_on_c, 15, 47, 0
19, 118380, Note_on_c, 15, 49, 60
19, 118439, Note_on_c, 15, 49, 0
19, 118440, Note_on_c, 15, 50, 60
19, 118499, Note_on_c, 15, 50, 0
19, 118500, Note_on_c, 15, 47, 80
19, 118559, Note_on_c, 15, 47, 0
19, 118560, Note_on_c, 15, 53, 80
19, 118619, Note_on_c, 15, 53, 0
19, 118620, Note_on_c, 15, 54, 80
19, 118679, Note_on_c, 15, 54, 0
19, 118680, Note_on_c, 15, 56, 80
19, 118739, Note_on_c, 15, 56, 0
19, 118740, Note_on_c, 15, 49, 80
19, 118799, Note_on_c, 15, 49, 0
19, 118800, Note_on_c, 15, 54, 80
19, 118859, Note_on_c, 15, 54, 0
19, 118860, Note_on_c, 15, 52, 80
19, 118919, Note_on_c, 15, 52, 0
19, 118920, Note_on_c, 15, 50, 80
19, 118979, Note_on_c, 15, 50, 0
19, 118980, Note_on_c, 15, 49, 80
19, 119039, Note_on_c, 15, 49, 0
19, 119040, Note_on_c, 15, 47, 80
19, 119099, Note_on_c, 15, 47, 0
19, 119100, Note_on_c, 15, 49, 80
19, 119159, Note_on_c, 15, 49, 0
19, 119160, Note_on_c, 15, 50, 80
19, 119219, Note_on_c, 15, 50, 0
19, 119220, Note_on_c, 15, 38, 80
19, 119279, Note_on_c, 15, 38, 0
19, 119280, Note_on_c, 15, 37, 80
19, 119339, Note_on_c, 15, 37, 0
19, 119340, Note_on_c, 15, 49, 80
19, 119369, Note_on_c, 15, 49, 0
19, 119370, Note_on_c, 15, 47, 80
19, 119399, Note_on_c, 15, 47, 0
19, 119400, Note_on_c, 15, 45, 80
19, 119459, Note_on_c, 15, 45, 0
19, 119460, Note_on_c, 15, 44, 80
19, 119519, Note_on_c, 15, 44, 0
19, 119520, Note_on_c, 15, 45, 80
19, 119579, Note_on_c, 15, 45, 0
19, 119580, Note_on_c, 15, 42, 80
19, 119639, Note_on_c, 15, 42, 0
19, 119640, Note_on_c, 15, 44, 80
19, 119699, Note_on_c, 15, 44, 0
19, 119700, Note_on_c, 15, 47, 80
19, 119759, Note_on_c, 15, 47, 0
19, 119760, Note_on_c, 15, 45, 80
19, 119819, Note_on_c, 15, 45, 0
19, 119820, Note_on_c, 15, 54, 80
19, 119879, Note_on_c, 15, 54, 0
19, 119880, Note_on_c, 15, 53, 80
19, 119939, Note_on_c, 15, 53, 0
19, 119940, Note_on_c, 15, 49, 80
19, 119999, Note_on_c, 15, 49, 0
19, 120000, Note_on_c, 15, 54, 80
19, 120059, Note_on_c, 15, 54, 0
19, 120060, Note_on_c, 15, 45, 80
19, 120119, Note_on_c, 15, 45, 0
19, 120120, Note_on_c, 15, 47, 80
19, 120179, Note_on_c, 15, 47, 0
19, 120180, Note_on_c, 15, 49, 80
19, 120239, Note_on_c, 15, 49, 0
19, 120240, Note_on_c, 15, 42, 80
19, 120299, Note_on_c, 15, 42, 0
19, 120300, Note_on_c, 15, 54, 80
19, 120329, Note_on_c, 15, 54, 0
19, 120330, Note_on_c, 15, 52, 80
19, 120359, Note_on_c, 15, 52, 0
19, 120360, Note_on_c, 15, 50, 80
19, 120389, Note_on_c, 15, 50, 0
19, 120390, Note_on_c, 15, 49, 80
19, 120419, Note_on_c, 15, 49, 0
19, 120420, Note_on_c, 15, 50, 80
19, 120449, Note_on_c, 15, 50, 0
19, 120450, Note_on_c, 15, 49, 80
19, 120479, Note_on_c, 15, 49, 0
19, 120480, Note_on_c, 15, 47, 65
19, 120599, Note_on_c, 15, 47, 0
19, 120720, Note_on_c, 15, 43, 65
19, 120839, Note_on_c, 15, 43, 0
19, 121020, Note_on_c, 15, 52, 65
19, 121079, Note_on_c, 15, 52, 0
19, 121080, Note_on_c, 15, 54, 65
19, 121139, Note_on_c, 15, 54, 0
19, 121140, Note_on_c, 15, 42, 65
19, 121199, Note_on_c, 15, 42, 0
19, 121200, Note_on_c, 15, 47, 65
19, 121259, Note_on_c, 15, 47, 0
19, 121260, Note_on_c, 15, 49, 65
19, 121319, Note_on_c, 15, 49, 0
19, 121320, Note_on_c, 15, 50, 65
19, 121349, Note_on_c, 15, 50, 0
19, 121350, Note_on_c, 15, 49, 65
19, 121379, Note_on_c, 15, 49, 0
19, 121380, Note_on_c, 15, 50, 65
19, 121409, Note_on_c, 15, 50, 0
19, 121410, Note_on_c, 15, 49, 65
19, 121439, Note_on_c, 15, 49, 0
19, 121440, Note_on_c, 15, 47, 65
19, 121559, Note_on_c, 15, 47, 0
19, 121680, Note_on_c, 15, 55, 65
19, 121799, Note_on_c, 15, 55, 0
19, 121980, Note_on_c, 15, 52, 65
19, 122039, Note_on_c, 15, 52, 0
19, 122040, Note_on_c, 15, 54, 65
19, 122099, Note_on_c, 15, 54, 0
19, 122100, Note_on_c, 15, 42, 65
19, 122159, Note_on_c, 15, 42, 0
19, 122160, Note_on_c, 15, 47, 65
19, 122219, Note_on_c, 15, 47, 0
19, 122220, Note_on_c, 15, 49, 65
19, 122279, Note_on_c, 15, 49, 0
19, 122280, Note_on_c, 15, 50, 65
19, 122339, Note_on_c, 15, 50, 0
19, 122340, Note_on_c, 15, 47, 65
19, 122399, Note_on_c, 15, 47, 0
19, 122400, Note_on_c, 15, 53, 65
19, 122459, Note_on_c, 15, 53, 0
19, 122460, Note_on_c, 15, 54, 65
19, 122519, Note_on_c, 15, 54, 0
19, 122520, Note_on_c, 15, 56, 65
19, 122579, Note_on_c, 15, 56, 0
19, 122580, Note_on_c, 15, 49, 65
19, 122639, Note_on_c, 15, 49, 0
19, 122640, Note_on_c, 15, 54, 65
19, 122699, Note_on_c, 15, 54, 0
19, 122700, Note_on_c, 15, 52, 65
19, 122759, Note_on_c, 15, 52, 0
19, 122760, Note_on_c, 15, 50, 65
19, 122819, Note_on_c, 15, 50, 0
19, 122820, Note_on_c, 15, 49, 65
19, 122879, Note_on_c, 15, 49, 0
19, 122880, Note_on_c, 15, 47, 65
19, 122939, Note_on_c, 15, 47, 0
19, 122940, Note_on_c, 15, 49, 65
19, 122999, Note_on_c, 15, 49, 0
19, 123000, Note_on_c, 15, 50, 65
19, 123059, Note_on_c, 15, 50, 0
19, 123060, Note_on_c, 15, 38, 65
19, 123119, Note_on_c, 15, 38, 0
19, 123120, Note_on_c, 15, 37, 65
19, 123179, Note_on_c, 15, 37, 0
19, 123180, Note_on_c, 15, 49, 65
19, 123209, Note_on_c, 15, 49, 0
19, 123210, Note_on_c, 15, 47, 65
19, 123239, Note_on_c, 15, 47, 0
19, 123240, Note_on_c, 15, 45, 65
19, 123269, Note_on_c, 15, 45, 0
19, 123270, Note_on_c, 15, 44, 65
19, 123299, Note_on_c, 15, 44, 0
19, 123300, Note_on_c, 15, 45, 65
19, 123329, Note_on_c, 15, 45, 0
19, 123330, Note_on_c, 15, 44, 65
19, 123359, Note_on_c, 15, 44, 0
19, 123360, Note_on_c, 15, 42, 65
19, 123419, Note_on_c, 15, 42, 0
19, 123420, Note_on_c, 15, 54, 65
19, 123449, Note_on_c, 15, 54, 0
19, 123450, Note_on_c, 15, 52, 65
19, 123479, Note_on_c, 15, 52, 0
19, 123480, Note_on_c, 15, 50, 65
19, 123509, Note_on_c, 15, 50, 0
19, 123510, Note_on_c, 15, 49, 65
19, 123539, Note_on_c, 15, 49, 0
19, 123540, Note_on_c, 15, 50, 65
19, 123569, Note_on_c, 15, 50, 0
19, 123570, Note_on_c, 15, 49, 65
19, 123599, Note_on_c, 15, 49, 0
19, 123600, Note_on_c, 15, 47, 65
19, 123659, Note_on_c, 15, 47, 0
19, 123660, Note_on_c, 15, 59, 65
19, 123689, Note_on_c, 15, 59, 0
19, 123690, Note_on_c, 15, 57, 65
19, 123719, Note_on_c, 15, 57, 0
19, 123720, Note_on_c, 15, 55, 65
19, 123749, Note_on_c, 15, 55, 0
19, 123750, Note_on_c, 15, 54, 65
19, 123779, Note_on_c, 15, 54, 0
19, 123780, Note_on_c, 15, 55, 65
19, 123809, Note_on_c, 15, 55, 0
19, 123810, Note_on_c, 15, 54, 65
19, 123839, Note_on_c, 15, 54, 0
19, 123840, Note_on_c, 15, 52, 65
19, 123869, Note_on_c, 15, 52, 0
19, 123870, Note_on_c, 15, 54, 65
19, 123899, Note_on_c, 15, 54, 0
19, 123900, Note_on_c, 15, 52, 65
19, 123929, Note_on_c, 15, 52, 0
19, 123930, Note_on_c, 15, 50, 65
19, 123959, Note_on_c, 15, 50, 0
19, 123960, Note_on_c, 15, 49, 65
19, 123989, Note_on_c, 15, 49, 0
19, 123990, Note_on_c, 15, 47, 65
19, 124019, Note_on_c, 15, 47, 0
19, 124020, Note_on_c, 15, 49, 65
19, 124049, Note_on_c, 15, 49, 0
19, 124050, Note_on_c, 15, 47, 65
19, 124079, Note_on_c, 15, 47, 0
19, 124080, Note_on_c, 15, 46, 65
19, 124199, Note_on_c, 15, 46, 0
19, 124260, Note_on_c, 15, 54, 65
19, 124319, Note_on_c, 15, 54, 0
19, 124320, Note_on_c, 15, 50, 65
19, 124379, Note_on_c, 15, 50, 0
19, 124380, Note_on_c, 15, 47, 65
19, 124439, Note_on_c, 15, 47, 0
19, 124440, Note_on_c, 15, 54, 65
19, 124469, Note_on_c, 15, 54, 0
19, 124470, Note_on_c, 15, 52, 65
19, 124499, Note_on_c, 15, 52, 0
19, 124500, Note_on_c, 15, 54, 65
19, 124529, Note_on_c, 15, 54, 0
19, 124530, Note_on_c, 15, 52, 65
19, 124559, Note_on_c, 15, 52, 0
19, 124560, Note_on_c, 15, 50, 65
19, 124619, Note_on_c, 15, 50, 0
19, 124620, Note_on_c, 15, 47, 65
19, 124679, Note_on_c, 15, 47, 0
19, 124680, Note_on_c, 15, 54, 65
19, 124709, Note_on_c, 15, 54, 0
19, 124710, Note_on_c, 15, 52, 65
19, 124739, Note_on_c, 15, 52, 0
19, 124740, Note_on_c, 15, 54, 65
19, 124769, Note_on_c, 15, 54, 0
19, 124770, Note_on_c, 15, 52, 65
19, 124799, Note_on_c, 15, 52, 0
19, 124800, Note_on_c, 15, 50, 65
19, 124859, Note_on_c, 15, 50, 0
19, 124860, Note_on_c, 15, 52, 65
19, 124919, Note_on_c, 15, 52, 0
19, 124920, Note_on_c, 15, 54, 65
19, 124979, Note_on_c, 15, 54, 0
19, 124980, Note_on_c, 15, 42, 65
19, 125039, Note_on_c, 15, 42, 0
19, 125040, Note_on_c, 15, 47, 65
19, 125099, Note_on_c, 15, 47, 0
19, 125100, Note_on_c, 15, 49, 65
19, 125159, Note_on_c, 15, 49, 0
19, 125160, Note_on_c, 15, 50, 65
19, 125189, Note_on_c, 15, 50, 0
19, 125190, Note_on_c, 15, 49, 65
19, 125219, Note_on_c, 15, 49, 0
19, 125220, Note_on_c, 15, 50, 65
19, 125249, Note_on_c, 15, 50, 0
19, 125250, Note_on_c, 15, 49, 65
19, 125279, Note_on_c, 15, 49, 0
19, 125280, Note_on_c, 15, 47, 65
19, 125399, Note_on_c, 15, 47, 0
19, 125520, Note_on_c, 15, 43, 65
19, 125639, Note_on_c, 15, 43, 0
19, 125820, Note_on_c, 15, 40, 65
19, 125879, Note_on_c, 15, 40, 0
19, 125880, Note_on_c, 15, 42, 65
19, 125939, Note_on_c, 15, 42, 0
19, 125940, Note_on_c, 15, 54, 65
19, 125999, Note_on_c, 15, 54, 0
19, 126000, Note_on_c, 15, 47, 65
19, 126029, Note_on_c, 15, 47, 0
19, 126030, Note_on_c, 15, 46, 65
19, 126059, Note_on_c, 15, 46, 0
19, 126060, Note_on_c, 15, 47, 65
19, 126089, Note_on_c, 15, 47, 0
19, 126090, Note_on_c, 15, 49, 65
19, 126119, Note_on_c, 15, 49, 0
19, 126120, Note_on_c, 15, 50, 65
19, 126179, Note_on_c, 15, 50, 0
19, 126180, Note_on_c, 15, 47, 65
19, 126239, Note_on_c, 15, 47, 0
19, 126240, Note_on_c, 15, 53, 65
19, 126299, Note_on_c, 15, 53, 0
19, 126300, Note_on_c, 15, 54, 65
19, 126359, Note_on_c, 15, 54, 0
19, 126360, Note_on_c, 15, 56, 65
19, 126419, Note_on_c, 15, 56, 0
19, 126420, Note_on_c, 15, 44, 65
19, 126479, Note_on_c, 15, 44, 0
19, 126480, Note_on_c, 15, 45, 65
19, 126539, Note_on_c, 15, 45, 0
19, 126540, Note_on_c, 15, 57, 65
19, 126599, Note_on_c, 15, 57, 0
19, 126600, Note_on_c, 15, 50, 65
19, 126659, Note_on_c, 15, 50, 0
19, 126660, Note_on_c, 15, 54, 65
19, 126719, Note_on_c, 15, 54, 0
19, 126720, Note_on_c, 15, 47, 65
19, 126779, Note_on_c, 15, 47, 0
19, 126780, Note_on_c, 15, 49, 65
19, 126839, Note_on_c, 15, 49, 0
19, 126840, Note_on_c, 15, 50, 65
19, 126899, Note_on_c, 15, 50, 0
19, 126900, Note_on_c, 15, 38, 65
19, 126959, Note_on_c, 15, 38, 0
19, 126960, Note_on_c, 15, 37, 65
19, 127019, Note_on_c, 15, 37, 0
19, 127020, Note_on_c, 15, 49, 65
19, 127049, Note_on_c, 15, 49, 0
19, 127050, Note_on_c, 15, 47, 65
19, 127079, Note_on_c, 15, 47, 0
19, 127080, Note_on_c, 15, 45, 65
19, 127109, Note_on_c, 15, 45, 0
19, 127110, Note_on_c, 15, 44, 65
19, 127139, Note_on_c, 15, 44, 0
19, 127140, Note_on_c, 15, 45, 65
19, 127169, Note_on_c, 15, 45, 0
19, 127170, Note_on_c, 15, 44, 65
19, 127199, Note_on_c, 15, 44, 0
19, 127200, Note_on_c, 15, 42, 65
19, 127259, Note_on_c, 15, 42, 0
19, 127260, Note_on_c, 15, 54, 65
19, 127319, Note_on_c, 15, 54, 0
19, 127320, Note_on_c, 15, 57, 65
19, 127379, Note_on_c, 15, 57, 0
19, 127380, Note_on_c, 15, 61, 65
19, 127439, Note_on_c, 15, 61, 0
19, 127440, Note_on_c, 15, 57, 65
19, 127499, Note_on_c, 15, 57, 0
19, 127500, Note_on_c, 15, 54, 65
19, 127559, Note_on_c, 15, 54, 0
19, 127560, Note_on_c, 15, 53, 65
19, 127619, Note_on_c, 15, 53, 0
19, 127620, Note_on_c, 15, 49, 65
19, 127679, Note_on_c, 15, 49, 0
19, 127680, Note_on_c, 15, 54, 65
19, 127739, Note_on_c, 15, 54, 0
19, 127740, Note_on_c, 15, 45, 65
19, 127799, Note_on_c, 15, 45, 0
19, 127800, Note_on_c, 15, 47, 65
19, 127859, Note_on_c, 15, 47, 0
19, 127860, Note_on_c, 15, 49, 65
19, 127919, Note_on_c, 15, 49, 0
19, 127920, Note_on_c, 15, 54, 65
19, 127979, Note_on_c, 15, 54, 0
19, 127980, Note_on_c, 15, 52, 65
19, 128009, Note_on_c, 15, 52, 0
19, 128010, Note_on_c, 15, 50, 65
19, 128039, Note_on_c, 15, 50, 0
19, 128040, Note_on_c, 15, 49, 65
19, 128069, Note_on_c, 15, 49, 0
19, 128070, Note_on_c, 15, 47, 65
19, 128099, Note_on_c, 15, 47, 0
19, 128100, Note_on_c, 15, 45, 80
19, 128129, Note_on_c, 15, 45, 0
19, 128130, Note_on_c, 15, 44, 80
19, 128159, Note_on_c, 15, 44, 0
19, 128160, Note_on_c, 15, 42, 80
19, 128279, Note_on_c, 15, 42, 0
19, 128400, Note_on_c, 15, 38, 80
19, 128519, Note_on_c, 15, 38, 0
19, 128700, Note_on_c, 15, 59, 80
19, 128759, Note_on_c, 15, 59, 0
19, 128760, Note_on_c, 15, 61, 80
19, 128819, Note_on_c, 15, 61, 0
19, 128820, Note_on_c, 15, 49, 80
19, 128879, Note_on_c, 15, 49, 0
19, 128880, Note_on_c, 15, 54, 80
19, 128939, Note_on_c, 15, 54, 0
19, 128940, Note_on_c, 15, 56, 80
19, 128999, Note_on_c, 15, 56, 0
19, 129000, Note_on_c, 15, 57, 80
19, 129059, Note_on_c, 15, 57, 0
19, 129060, Note_on_c, 15, 50, 80
19, 129119, Note_on_c, 15, 50, 0
19, 129120, Note_on_c, 15, 55, 80
19, 129239, Note_on_c, 15, 55, 0
19, 129360, Note_on_c, 15, 54, 80
19, 129479, Note_on_c, 15, 54, 0
19, 129660, Note_on_c, 15, 52, 80
19, 129719, Note_on_c, 15, 52, 0
19, 129720, Note_on_c, 15, 54, 80
19, 129779, Note_on_c, 15, 54, 0
19, 129780, Note_on_c, 15, 42, 80
19, 129839, Note_on_c, 15, 42, 0
19, 129840, Note_on_c, 15, 47, 80
19, 129899, Note_on_c, 15, 47, 0
19, 129900, Note_on_c, 15, 49, 80
19, 129959, Note_on_c, 15, 49, 0
19, 129960, Note_on_c, 15, 50, 80
19, 130019, Note_on_c, 15, 50, 0
19, 130020, Note_on_c, 15, 47, 80
19, 130079, Note_on_c, 15, 47, 0
19, 130080, Note_on_c, 15, 53, 80
19, 130109, Note_on_c, 15, 53, 0
19, 130110, Note_on_c, 15, 54, 80
19, 130139, Note_on_c, 15, 54, 0
19, 130140, Note_on_c, 15, 56, 80
19, 130169, Note_on_c, 15, 56, 0
19, 130170, Note_on_c, 15, 54, 80
19, 130199, Note_on_c, 15, 54, 0
19, 130200, Note_on_c, 15, 53, 80
19, 130259, Note_on_c, 15, 53, 0
19, 130260, Note_on_c, 15, 49, 80
19, 130319, Note_on_c, 15, 49, 0
19, 130320, Note_on_c, 15, 54, 80
19, 130349, Note_on_c, 15, 54, 0
19, 130350, Note_on_c, 15, 56, 80
19, 130379, Note_on_c, 15, 56, 0
19, 130380, Note_on_c, 15, 57, 80
19, 130409, Note_on_c, 15, 57, 0
19, 130410, Note_on_c, 15, 56, 80
19, 130439, Note_on_c, 15, 56, 0
19, 130440, Note_on_c, 15, 54, 80
19, 130499, Note_on_c, 15, 54, 0
19, 130500, Note_on_c, 15, 52, 80
19, 130559, Note_on_c, 15, 52, 0
19, 130560, Note_on_c, 15, 50, 80
19, 130589, Note_on_c, 15, 50, 0
19, 130590, Note_on_c, 15, 52, 80
19, 130619, Note_on_c, 15, 52, 0
19, 130620, Note_on_c, 15, 54, 80
19, 130649, Note_on_c, 15, 54, 0
19, 130650, Note_on_c, 15, 52, 80
19, 130679, Note_on_c, 15, 52, 0
19, 130680, Note_on_c, 15, 50, 80
19, 130739, Note_on_c, 15, 50, 0
19, 130740, Note_on_c, 15, 49, 80
19, 130799, Note_on_c, 15, 49, 0
19, 130800, Note_on_c, 15, 50, 80
19, 130859, Note_on_c, 15, 50, 0
19, 130860, Note_on_c, 15, 52, 80
19, 130919, Note_on_c, 15, 52, 0
19, 130920, Note_on_c, 15, 50, 80
19, 130979, Note_on_c, 15, 50, 0
19, 130980, Note_on_c, 15, 49, 80
19, 131039, Note_on_c, 15, 49, 0
19, 131040, Note_on_c, 15, 47, 80
19, 131099, Note_on_c, 15, 47, 0
19, 131100, Note_on_c, 15, 45, 80
19, 131159, Note_on_c, 15, 45, 0
19, 131160, Note_on_c, 15, 47, 80
19, 131219, Note_on_c, 15, 47, 0
19, 131220, Note_on_c, 15, 49, 80
19, 131279, Note_on_c, 15, 49, 0
19, 131280, Note_on_c, 15, 50, 80
19, 131339, Note_on_c, 15, 50, 0
19, 131340, Note_on_c, 15, 47, 80
19, 131399, Note_on_c, 15, 47, 0
19, 131400, Note_on_c, 15, 53, 80
19, 131459, Note_on_c, 15, 53, 0
19, 131460, Note_on_c, 15, 49, 80
19, 131519, Note_on_c, 15, 49, 0
19, 131520, Note_on_c, 15, 54, 80
19, 131579, Note_on_c, 15, 54, 0
19, 131580, Note_on_c, 15, 45, 80
19, 131639, Note_on_c, 15, 45, 0
19, 131640, Note_on_c, 15, 47, 80
19, 131699, Note_on_c, 15, 47, 0
19, 131700, Note_on_c, 15, 49, 80
19, 131759, Note_on_c, 15, 49, 0
19, 131760, Note_on_c, 15, 54, 80
19, 131819, Note_on_c, 15, 54, 0
19, 131820, Note_on_c, 15, 42, 80
19, 131849, Note_on_c, 15, 42, 0
19, 131850, Note_on_c, 15, 44, 80
19, 131879, Note_on_c, 15, 44, 0
19, 131880, Note_on_c, 15, 45, 80
19, 131939, Note_on_c, 15, 45, 0
19, 131940, Note_on_c, 15, 42, 80
19, 131999, Note_on_c, 15, 42, 0
19, 132000, Note_on_c, 15, 47, 65
19, 132119, Note_on_c, 15, 47, 0
19, 132180, Note_on_c, 15, 54, 65
19, 132239, Note_on_c, 15, 54, 0
19, 132240, Note_on_c, 15, 50, 65
19, 132299, Note_on_c, 15, 50, 0
19, 132300, Note_on_c, 15, 47, 65
19, 132359, Note_on_c, 15, 47, 0
19, 132420, Note_on_c, 15, 54, 65
19, 132479, Note_on_c, 15, 54, 0
19, 132480, Note_on_c, 15, 59, 65
19, 132539, Note_on_c, 15, 59, 0
19, 132540, Note_on_c, 15, 62, 65
19, 132599, Note_on_c, 15, 62, 0
19, 132600, Note_on_c, 15, 61, 65
19, 132659, Note_on_c, 15, 61, 0
19, 132660, Note_on_c, 15, 58, 65
19, 132719, Note_on_c, 15, 58, 0
19, 132720, Note_on_c, 15, 59, 65
19, 132779, Note_on_c, 15, 59, 0
19, 132780, Note_on_c, 15, 54, 65
19, 132839, Note_on_c, 15, 54, 0
19, 132840, Note_on_c, 15, 50, 65
19, 132899, Note_on_c, 15, 50, 0
19, 132900, Note_on_c, 15, 47, 65
19, 132959, Note_on_c, 15, 47, 0
19, 132960, Note_on_c, 15, 52, 65
19, 133019, Note_on_c, 15, 52, 0
19, 133020, Note_on_c, 15, 55, 65
19, 133079, Note_on_c, 15, 55, 0
19, 133080, Note_on_c, 15, 54, 65
19, 133139, Note_on_c, 15, 54, 0
19, 133260, Note_on_c, 15, 59, 65
19, 133319, Note_on_c, 15, 59, 0
19, 133320, Note_on_c, 15, 60, 65
19, 133379, Note_on_c, 15, 60, 0
19, 133500, Note_on_c, 15, 59, 65
19, 133559, Note_on_c, 15, 59, 0
19, 133560, Note_on_c, 15, 57, 65
19, 133619, Note_on_c, 15, 57, 0
19, 133620, Note_on_c, 15, 60, 65
19, 133679, Note_on_c, 15, 60, 0
19, 133680, Note_on_c, 15, 59, 65
19, 133739, Note_on_c, 15, 59, 0
19, 133740, Note_on_c, 15, 57, 65
19, 133799, Note_on_c, 15, 57, 0
19, 133800, Note_on_c, 15, 55, 65
19, 133859, Note_on_c, 15, 55, 0
19, 133860, Note_on_c, 15, 54, 65
19, 133919, Note_on_c, 15, 54, 0
19, 133920, Note_on_c, 15, 52, 65
19, 133979, Note_on_c, 15, 52, 0
19, 133980, Note_on_c, 15, 52, 65
19, 134039, Note_on_c, 15, 52, 0
19, 134040, Note_on_c, 15, 52, 65
19, 134099, Note_on_c, 15, 52, 0
19, 134100, Note_on_c, 15, 52, 65
19, 134159, Note_on_c, 15, 52, 0
19, 134160, Note_on_c, 15, 48, 65
19, 134219, Note_on_c, 15, 48, 0
19, 134220, Note_on_c, 15, 48, 65
19, 134279, Note_on_c, 15, 48, 0
19, 134280, Note_on_c, 15, 48, 65
19, 134339, Note_on_c, 15, 48, 0
19, 134340, Note_on_c, 15, 48, 65
19, 134399, Note_on_c, 15, 48, 0
19, 134400, Note_on_c, 15, 54, 65
19, 134459, Note_on_c, 15, 54, 0
19, 134460, Note_on_c, 15, 54, 65
19, 134519, Note_on_c, 15, 54, 0
19, 134520, Note_on_c, 15, 54, 65
19, 134579, Note_on_c, 15, 54, 0
19, 134580, Note_on_c, 15, 55, 65
19, 134639, Note_on_c, 15, 55, 0
19, 134640, Note_on_c, 15, 51, 65
19, 134699, Note_on_c, 15, 51, 0
19, 134700, Note_on_c, 15, 51, 65
19, 134759, Note_on_c, 15, 51, 0
19, 134760, Note_on_c, 15, 51, 65
19, 134819, Note_on_c, 15, 51, 0
19, 134820, Note_on_c, 15, 51, 65
19, 134879, Note_on_c, 15, 51, 0
19, 134880, Note_on_c, 15, 47, 65
19, 134939, Note_on_c, 15, 47, 0
19, 134940, Note_on_c, 15, 47, 65
19, 134999, Note_on_c, 15, 47, 0
19, 135000, Note_on_c, 15, 47, 65
19, 135059, Note_on_c, 15, 47, 0
19, 135060, Note_on_c, 15, 47, 65
19, 135119, Note_on_c, 15, 47, 0
19, 135120, Note_on_c, 15, 52, 65
19, 135179, Note_on_c, 15, 52, 0
19, 135180, Note_on_c, 15, 57, 65
19, 135209, Note_on_c, 15, 57, 0
19, 135210, Note_on_c, 15, 59, 65
19, 135239, Note_on_c, 15, 59, 0
19, 135240, Note_on_c, 15, 60, 65
19, 135299, Note_on_c, 15, 60, 0
19, 135420, Note_on_c, 15, 55, 65
19, 135479, Note_on_c, 15, 55, 0
19, 135480, Note_on_c, 15, 57, 65
19, 135539, Note_on_c, 15, 57, 0
19, 135540, Note_on_c, 15, 59, 65
19, 135599, Note_on_c, 15, 59, 0
19, 135600, Note_on_c, 15, 52, 65
19, 135659, Note_on_c, 15, 52, 0
19, 135660, Note_on_c, 15, 54, 80
19, 135719, Note_on_c, 15, 54, 0
19, 135720, Note_on_c, 15, 55, 80
19, 135779, Note_on_c, 15, 55, 0
19, 135780, Note_on_c, 15, 52, 80
19, 135839, Note_on_c, 15, 52, 0
19, 135840, Note_on_c, 15, 57, 80
19, 135899, Note_on_c, 15, 57, 0
19, 135900, Note_on_c, 15, 54, 80
19, 135959, Note_on_c, 15, 54, 0
19, 135960, Note_on_c, 15, 63, 80
19, 136019, Note_on_c, 15, 63, 0
19, 136020, Note_on_c, 15, 59, 80
19, 136079, Note_on_c, 15, 59, 0
19, 136080, Note_on_c, 15, 64, 80
19, 136139, Note_on_c, 15, 64, 0
19, 136140, Note_on_c, 15, 62, 80
19, 136199, Note_on_c, 15, 62, 0
19, 136200, Note_on_c, 15, 60, 80
19, 136259, Note_on_c, 15, 60, 0
19, 136260, Note_on_c, 15, 59, 80
19, 136319, Note_on_c, 15, 59, 0
19, 136320, Note_on_c, 15, 57, 80
19, 136379, Note_on_c, 15, 57, 0
19, 136380, Note_on_c, 15, 59, 80
19, 136439, Note_on_c, 15, 59, 0
19, 136440, Note_on_c, 15, 60, 80
19, 136499, Note_on_c, 15, 60, 0
19, 136500, Note_on_c, 15, 48, 80
19, 136559, Note_on_c, 15, 48, 0
19, 136560, Note_on_c, 15, 47, 80
19, 136619, Note_on_c, 15, 47, 0
19, 136620, Note_on_c, 15, 59, 80
19, 136649, Note_on_c, 15, 59, 0
19, 136650, Note_on_c, 15, 57, 80
19, 136679, Note_on_c, 15, 57, 0
19, 136680, Note_on_c, 15, 55, 80
19, 136739, Note_on_c, 15, 55, 0
19, 136740, Note_on_c, 15, 54, 80
19, 136799, Note_on_c, 15, 54, 0
19, 136800, Note_on_c, 15, 55, 80
19, 136859, Note_on_c, 15, 55, 0
19, 136860, Note_on_c, 15, 52, 80
19, 136919, Note_on_c, 15, 52, 0
19, 136920, Note_on_c, 15, 54, 80
19, 136979, Note_on_c, 15, 54, 0
19, 136980, Note_on_c, 15, 57, 80
19, 137039, Note_on_c, 15, 57, 0
19, 137040, Note_on_c, 15, 55, 80
19, 137099, Note_on_c, 15, 55, 0
19, 137100, Note_on_c, 15, 52, 80
19, 137159, Note_on_c, 15, 52, 0
19, 137160, Note_on_c, 15, 51, 80
19, 137219, Note_on_c, 15, 51, 0
19, 137220, Note_on_c, 15, 47, 80
19, 137279, Note_on_c, 15, 47, 0
19, 137280, Note_on_c, 15, 52, 80
19, 137339, Note_on_c, 15, 52, 0
19, 137340, Note_on_c, 15, 43, 80
19, 137399, Note_on_c, 15, 43, 0
19, 137400, Note_on_c, 15, 45, 80
19, 137459, Note_on_c, 15, 45, 0
19, 137460, Note_on_c, 15, 47, 80
19, 137519, Note_on_c, 15, 47, 0
19, 137520, Note_on_c, 15, 40, 80
19, 137579, Note_on_c, 15, 40, 0
19, 137580, Note_on_c, 15, 59, 65
19, 137609, Note_on_c, 15, 59, 0
19, 137610, Note_on_c, 15, 57, 65
19, 137639, Note_on_c, 15, 57, 0
19, 137640, Note_on_c, 15, 55, 65
19, 137669, Note_on_c, 15, 55, 0
19, 137670, Note_on_c, 15, 54, 65
19, 137699, Note_on_c, 15, 54, 0
19, 137700, Note_on_c, 15, 55, 65
19, 137729, Note_on_c, 15, 55, 0
19, 137730, Note_on_c, 15, 54, 65
19, 137759, Note_on_c, 15, 54, 0
19, 137760, Note_on_c, 15, 52, 65
19, 137819, Note_on_c, 15, 52, 0
19, 137820, Note_on_c, 15, 52, 65
19, 137879, Note_on_c, 15, 52, 0
19, 137880, Note_on_c, 15, 52, 65
19, 137939, Note_on_c, 15, 52, 0
19, 137940, Note_on_c, 15, 52, 65
19, 137999, Note_on_c, 15, 52, 0
19, 138000, Note_on_c, 15, 57, 65
19, 138059, Note_on_c, 15, 57, 0
19, 138060, Note_on_c, 15, 57, 65
19, 138119, Note_on_c, 15, 57, 0
19, 138120, Note_on_c, 15, 57, 65
19, 138179, Note_on_c, 15, 57, 0
19, 138180, Note_on_c, 15, 57, 65
19, 138239, Note_on_c, 15, 57, 0
19, 138240, Note_on_c, 15, 50, 65
19, 138299, Note_on_c, 15, 50, 0
19, 138300, Note_on_c, 15, 50, 65
19, 138359, Note_on_c, 15, 50, 0
19, 138360, Note_on_c, 15, 50, 65
19, 138419, Note_on_c, 15, 50, 0
19, 138420, Note_on_c, 15, 50, 65
19, 138479, Note_on_c, 15, 50, 0
19, 138480, Note_on_c, 15, 55, 65
19, 138539, Note_on_c, 15, 55, 0
19, 138540, Note_on_c, 15, 55, 65
19, 138599, Note_on_c, 15, 55, 0
19, 138600, Note_on_c, 15, 55, 65
19, 138659, Note_on_c, 15, 55, 0
19, 138660, Note_on_c, 15, 55, 65
19, 138719, Note_on_c, 15, 55, 0
19, 138720, Note_on_c, 15, 49, 65
19, 138779, Note_on_c, 15, 49, 0
19, 138780, Note_on_c, 15, 49, 65
19, 138839, Note_on_c, 15, 49, 0
19, 138840, Note_on_c, 15, 49, 65
19, 138899, Note_on_c, 15, 49, 0
19, 138900, Note_on_c, 15, 49, 65
19, 138959, Note_on_c, 15, 49, 0
19, 138960, Note_on_c, 15, 54, 65
19, 139019, Note_on_c, 15, 54, 0
19, 139020, Note_on_c, 15, 54, 65
19, 139079, Note_on_c, 15, 54, 0
19, 139080, Note_on_c, 15, 54, 65
19, 139139, Note_on_c, 15, 54, 0
19, 139140, Note_on_c, 15, 52, 65
19, 139199, Note_on_c, 15, 52, 0
19, 139200, Note_on_c, 15, 50, 65
19, 139259, Note_on_c, 15, 50, 0
19, 139260, Note_on_c, 15, 52, 65
19, 139319, Note_on_c, 15, 52, 0
19, 139320, Note_on_c, 15, 54, 65
19, 139379, Note_on_c, 15, 54, 0
19, 139380, Note_on_c, 15, 42, 65
19, 139439, Note_on_c, 15, 42, 0
19, 139440, Note_on_c, 15, 47, 65
19, 139499, Note_on_c, 15, 47, 0
19, 139500, Note_on_c, 15, 49, 65
19, 139559, Note_on_c, 15, 49, 0
19, 139560, Note_on_c, 15, 50, 65
19, 139619, Note_on_c, 15, 50, 0
19, 139620, Note_on_c, 15, 47, 65
19, 139679, Note_on_c, 15, 47, 0
19, 139680, Note_on_c, 15, 52, 65
19, 139739, Note_on_c, 15, 52, 0
19, 139740, Note_on_c, 15, 55, 65
19, 139769, Note_on_c, 15, 55, 0
19, 139770, Note_on_c, 15, 54, 65
19, 139799, Note_on_c, 15, 54, 0
19, 139800, Note_on_c, 15, 52, 65
19, 139829, Note_on_c, 15, 52, 0
19, 139830, Note_on_c, 15, 50, 65
19, 139859, Note_on_c, 15, 50, 0
19, 139860, Note_on_c, 15, 52, 65
19, 139889, Note_on_c, 15, 52, 0
19, 139890, Note_on_c, 15, 50, 65
19, 139919, Note_on_c, 15, 50, 0
19, 139920, Note_on_c, 15, 49, 65
19, 139949, Note_on_c, 15, 49, 0
19, 139950, Note_on_c, 15, 47, 65
19, 139979, Note_on_c, 15, 47, 0
19, 139980, Note_on_c, 15, 49, 65
19, 140009, Note_on_c, 15, 49, 0
19, 140010, Note_on_c, 15, 47, 65
19, 140039, Note_on_c, 15, 47, 0
19, 140040, Note_on_c, 15, 49, 65
19, 140099, Note_on_c, 15, 49, 0
19, 140100, Note_on_c, 15, 45, 65
19, 140159, Note_on_c, 15, 45, 0
19, 140160, Note_on_c, 15, 50, 65
19, 140219, Note_on_c, 15, 50, 0
19, 140220, Note_on_c, 15, 47, 65
19, 140279, Note_on_c, 15, 47, 0
19, 140280, Note_on_c, 15, 43, 65
19, 140339, Note_on_c, 15, 43, 0
19, 140340, Note_on_c, 15, 45, 65
19, 140399, Note_on_c, 15, 45, 0
19, 140400, Note_on_c, 15, 38, 65
19, 140459, Note_on_c, 15, 38, 0
19, 140460, Note_on_c, 15, 50, 65
19, 140519, Note_on_c, 15, 50, 0
19, 140550, Note_on_c, 15, 50, 65
19, 140579, Note_on_c, 15, 50, 0
19, 140580, Note_on_c, 15, 52, 65
19, 140609, Note_on_c, 15, 52, 0
19, 140610, Note_on_c, 15, 54, 65
19, 140639, Note_on_c, 15, 54, 0
19, 140640, Note_on_c, 15, 55, 65
19, 140699, Note_on_c, 15, 55, 0
19, 140700, Note_on_c, 15, 43, 65
19, 140759, Note_on_c, 15, 43, 0
19, 140790, Note_on_c, 15, 52, 65
19, 140819, Note_on_c, 15, 52, 0
19, 140820, Note_on_c, 15, 54, 65
19, 140849, Note_on_c, 15, 54, 0
19, 140850, Note_on_c, 15, 55, 65
19, 140879, Note_on_c, 15, 55, 0
19, 140880, Note_on_c, 15, 57, 65
19, 140909, Note_on_c, 15, 57, 0
19, 140910, Note_on_c, 15, 55, 65
19, 140939, Note_on_c, 15, 55, 0
19, 140940, Note_on_c, 15, 57, 65
19, 140969, Note_on_c, 15, 57, 0
19, 140970, Note_on_c, 15, 54, 65
19, 140999, Note_on_c, 15, 54, 0
19, 141000, Note_on_c, 15, 59, 65
19, 141059, Note_on_c, 15, 59, 0
19, 141060, Note_on_c, 15, 55, 65
19, 141119, Note_on_c, 15, 55, 0
19, 141120, Note_on_c, 15, 57, 65
19, 141239, Note_on_c, 15, 57, 0
19, 141240, Note_on_c, 15, 45, 65
19, 141359, Note_on_c, 15, 45, 0
19, 141360, Note_on_c, 15, 38, 65
19, 141479, Note_on_c, 15, 38, 0
19, 141660, Note_on_c, 15, 47, 85
19, 141719, Note_on_c, 15, 47, 0
19, 141720, Note_on_c, 15, 54, 85
19, 141749, Note_on_c, 15, 54, 0
19, 141750, Note_on_c, 15, 52, 85
19, 141779, Note_on_c, 15, 52, 0
19, 141780, Note_on_c, 15, 54, 85
19, 141809, Note_on_c, 15, 54, 0
19, 141810, Note_on_c, 15, 52, 85
19, 141839, Note_on_c, 15, 52, 0
19, 141840, Note_on_c, 15, 50, 85
19, 141899, Note_on_c, 15, 50, 0
19, 141900, Note_on_c, 15, 47, 85
19, 141959, Note_on_c, 15, 47, 0
19, 141960, Note_on_c, 15, 54, 85
19, 141989, Note_on_c, 15, 54, 0
19, 141990, Note_on_c, 15, 52, 85
19, 142019, Note_on_c, 15, 52, 0
19, 142020, Note_on_c, 15, 54, 85
19, 142049, Note_on_c, 15, 54, 0
19, 142050, Note_on_c, 15, 52, 85
19, 142079, Note_on_c, 15, 52, 0
19, 142080, Note_on_c, 15, 50, 85
19, 142139, Note_on_c, 15, 50, 0
19, 142140, Note_on_c, 15, 52, 85
19, 142199, Note_on_c, 15, 52, 0
19, 142200, Note_on_c, 15, 54, 85
19, 142259, Note_on_c, 15, 54, 0
19, 142260, Note_on_c, 15, 42, 85
19, 142319, Note_on_c, 15, 42, 0
19, 142320, Note_on_c, 15, 47, 85
19, 142379, Note_on_c, 15, 47, 0
19, 142380, Note_on_c, 15, 59, 85
19, 142409, Note_on_c, 15, 59, 0
19, 142410, Note_on_c, 15, 57, 85
19, 142439, Note_on_c, 15, 57, 0
19, 142440, Note_on_c, 15, 55, 85
19, 142469, Note_on_c, 15, 55, 0
19, 142470, Note_on_c, 15, 54, 85
19, 142499, Note_on_c, 15, 54, 0
19, 142500, Note_on_c, 15, 55, 85
19, 142529, Note_on_c, 15, 55, 0
19, 142530, Note_on_c, 15, 54, 85
19, 142559, Note_on_c, 15, 54, 0
19, 142560, Note_on_c, 15, 52, 85
19, 142679, Note_on_c, 15, 52, 0
19, 142800, Note_on_c, 15, 48, 85
19, 142919, Note_on_c, 15, 48, 0
19, 143100, Note_on_c, 15, 45, 85
19, 143159, Note_on_c, 15, 45, 0
19, 143160, Note_on_c, 15, 47, 85
19, 143219, Note_on_c, 15, 47, 0
19, 143220, Note_on_c, 15, 59, 85
19, 143279, Note_on_c, 15, 59, 0
19, 143280, Note_on_c, 15, 52, 85
19, 143339, Note_on_c, 15, 52, 0
19, 143340, Note_on_c, 15, 54, 85
19, 143399, Note_on_c, 15, 54, 0
19, 143400, Note_on_c, 15, 55, 85
19, 143459, Note_on_c, 15, 55, 0
19, 143460, Note_on_c, 15, 52, 85
19, 143519, Note_on_c, 15, 52, 0
19, 143520, Note_on_c, 15, 58, 85
19, 143579, Note_on_c, 15, 58, 0
19, 143580, Note_on_c, 15, 59, 85
19, 143639, Note_on_c, 15, 59, 0
19, 143640, Note_on_c, 15, 61, 85
19, 143699, Note_on_c, 15, 61, 0
19, 143700, Note_on_c, 15, 54, 85
19, 143759, Note_on_c, 15, 54, 0
19, 143760, Note_on_c, 15, 59, 85
19, 143819, Note_on_c, 15, 59, 0
19, 143820, Note_on_c, 15, 54, 85
19, 143879, Note_on_c, 15, 54, 0
19, 143880, Note_on_c, 15, 52, 85
19, 143909, Note_on_c, 15, 52, 0
19, 143910, Note_on_c, 15, 50, 85
19, 143939, Note_on_c, 15, 50, 0
19, 143940, Note_on_c, 15, 49, 85
19, 143969, Note_on_c, 15, 49, 0
19, 143970, Note_on_c, 15, 47, 85
19, 143999, Note_on_c, 15, 47, 0
19, 144000, Note_on_c, 15, 52, 85
19, 144059, Note_on_c, 15, 52, 0
19, 144060, Note_on_c, 15, 54, 85
19, 144119, Note_on_c, 15, 54, 0
19, 144120, Note_on_c, 15, 55, 85
19, 144179, Note_on_c, 15, 55, 0
19, 144180, Note_on_c, 15, 43, 85
19, 144239, Note_on_c, 15, 43, 0
19, 144240, Note_on_c, 15, 42, 85
19, 144299, Note_on_c, 15, 42, 0
19, 144300, Note_on_c, 15, 54, 85
19, 144329, Note_on_c, 15, 54, 0
19, 144330, Note_on_c, 15, 52, 85
19, 144359, Note_on_c, 15, 52, 0
19, 144360, Note_on_c, 15, 50, 85
19, 144419, Note_on_c, 15, 50, 0
19, 144420, Note_on_c, 15, 49, 85
19, 144479, Note_on_c, 15, 49, 0
19, 144480, Note_on_c, 15, 47, 85
19, 144509, Note_on_c, 15, 47, 0
19, 144510, Note_on_c, 15, 49, 85
19, 144539, Note_on_c, 15, 49, 0
19, 144540, Note_on_c, 15, 50, 85
19, 144569, Note_on_c, 15, 50, 0
19, 144570, Note_on_c, 15, 49, 85
19, 144599, Note_on_c, 15, 49, 0
19, 144600, Note_on_c, 15, 47, 85
19, 144659, Note_on_c, 15, 47, 0
19, 144660, Note_on_c, 15, 46, 85
19, 144719, Note_on_c, 15, 46, 0
19, 144720, Note_on_c, 15, 47, 85
19, 144779, Note_on_c, 15, 47, 0
19, 144780, Note_on_c, 15, 45, 85
19, 144809, Note_on_c, 15, 45, 0
19, 144810, Note_on_c, 15, 43, 85
19, 144839, Note_on_c, 15, 43, 0
19, 144840, Note_on_c, 15, 42, 85
19, 144899, Note_on_c, 15, 42, 0
19, 144900, Note_on_c, 15, 40, 85
19, 144959, Note_on_c, 15, 40, 0
19, 144960, Note_on_c, 15, 38, 85
19, 145019, Note_on_c, 15, 38, 0
19, 145020, Note_on_c, 15, 43, 85
19, 145079, Note_on_c, 15, 43, 0
19, 145080, Note_on_c, 15, 40, 85
19, 145139, Note_on_c, 15, 40, 0
19, 145140, Note_on_c, 15, 42, 85
19, 145199, Note_on_c, 15, 42, 0
19, 145200, Note_on_c, 15, 47, 85
19, 145259, Note_on_c, 15, 47, 0
19, 145260, Note_on_c, 15, 59, 85
19, 145319, Note_on_c, 15, 59, 0
19, 145320, Note_on_c, 15, 54, 85
19, 145349, Note_on_c, 15, 54, 0
19, 145350, Note_on_c, 15, 52, 85
19, 145379, Note_on_c, 15, 52, 0
19, 145380, Note_on_c, 15, 50, 65
19, 145409, Note_on_c, 15, 50, 0
19, 145410, Note_on_c, 15, 49, 65
19, 145439, Note_on_c, 15, 49, 0
19, 145440, Note_on_c, 15, 47, 65
19, 145559, Note_on_c, 15, 47, 0
19, 145680, Note_on_c, 15, 43, 65
19, 145799, Note_on_c, 15, 43, 0
19, 145980, Note_on_c, 15, 52, 65
19, 146039, Note_on_c, 15, 52, 0
19, 146040, Note_on_c, 15, 54, 65
19, 146099, Note_on_c, 15, 54, 0
19, 146100, Note_on_c, 15, 42, 65
19, 146159, Note_on_c, 15, 42, 0
19, 146160, Note_on_c, 15, 47, 65
19, 146219, Note_on_c, 15, 47, 0
19, 146220, Note_on_c, 15, 49, 65
19, 146279, Note_on_c, 15, 49, 0
19, 146280, Note_on_c, 15, 50, 65
19, 146309, Note_on_c, 15, 50, 0
19, 146310, Note_on_c, 15, 49, 65
19, 146339, Note_on_c, 15, 49, 0
19, 146340, Note_on_c, 15, 50, 65
19, 146369, Note_on_c, 15, 50, 0
19, 146370, Note_on_c, 15, 49, 65
19, 146399, Note_on_c, 15, 49, 0
19, 146400, Note_on_c, 15, 47, 65
19, 146519, Note_on_c, 15, 47, 0
19, 146640, Note_on_c, 15, 55, 65
19, 146759, Note_on_c, 15, 55, 0
19, 146940, Note_on_c, 15, 52, 65
19, 146999, Note_on_c, 15, 52, 0
19, 147000, Note_on_c, 15, 54, 65
19, 147059, Note_on_c, 15, 54, 0
19, 147060, Note_on_c, 15, 42, 65
19, 147119, Note_on_c, 15, 42, 0
19, 147120, Note_on_c, 15, 47, 65
19, 147179, Note_on_c, 15, 47, 0
19, 147180, Note_on_c, 15, 49, 65
19, 147239, Note_on_c, 15, 49, 0
19, 147240, Note_on_c, 15, 50, 65
19, 147299, Note_on_c, 15, 50, 0
19, 147300, Note_on_c, 15, 47, 65
19, 147359, Note_on_c, 15, 47, 0
19, 147360, Note_on_c, 15, 53, 65
19, 147419, Note_on_c, 15, 53, 0
19, 147420, Note_on_c, 15, 54, 65
19, 147479, Note_on_c, 15, 54, 0
19, 147480, Note_on_c, 15, 56, 65
19, 147539, Note_on_c, 15, 56, 0
19, 147540, Note_on_c, 15, 49, 65
19, 147599, Note_on_c, 15, 49, 0
19, 147600, Note_on_c, 15, 54, 65
19, 147659, Note_on_c, 15, 54, 0
19, 147660, Note_on_c, 15, 52, 65
19, 147719, Note_on_c, 15, 52, 0
19, 147720, Note_on_c, 15, 50, 65
19, 147779, Note_on_c, 15, 50, 0
19, 147780, Note_on_c, 15, 49, 65
19, 147839, Note_on_c, 15, 49, 0
19, 147840, Note_on_c, 15, 47, 65
19, 147899, Note_on_c, 15, 47, 0
19, 147900, Note_on_c, 15, 49, 65
19, 147959, Note_on_c, 15, 49, 0
19, 147960, Note_on_c, 15, 50, 65
19, 148019, Note_on_c, 15, 50, 0
19, 148020, Note_on_c, 15, 38, 65
19, 148079, Note_on_c, 15, 38, 0
19, 148080, Note_on_c, 15, 37, 65
19, 148139, Note_on_c, 15, 37, 0
19, 148140, Note_on_c, 15, 49, 65
19, 148169, Note_on_c, 15, 49, 0
19, 148170, Note_on_c, 15, 47, 65
19, 148199, Note_on_c, 15, 47, 0
19, 148200, Note_on_c, 15, 45, 65
19, 148229, Note_on_c, 15, 45, 0
19, 148230, Note_on_c, 15, 44, 65
19, 148259, Note_on_c, 15, 44, 0
19, 148260, Note_on_c, 15, 45, 65
19, 148289, Note_on_c, 15, 45, 0
19, 148290, Note_on_c, 15, 44, 65
19, 148319, Note_on_c, 15, 44, 0
19, 148320, Note_on_c, 15, 42, 65
19, 148379, Note_on_c, 15, 42, 0
19, 148380, Note_on_c, 15, 54, 65
19, 148409, Note_on_c, 15, 54, 0
19, 148410, Note_on_c, 15, 52, 65
19, 148439, Note_on_c, 15, 52, 0
19, 148440, Note_on_c, 15, 50, 65
19, 148469, Note_on_c, 15, 50, 0
19, 148470, Note_on_c, 15, 49, 65
19, 148499, Note_on_c, 15, 49, 0
19, 148500, Note_on_c, 15, 50, 65
19, 148529, Note_on_c, 15, 50, 0
19, 148530, Note_on_c, 15, 49, 65
19, 148559, Note_on_c, 15, 49, 0
19, 148560, Note_on_c, 15, 47, 65
19, 148619, Note_on_c, 15, 47, 0
19, 148620, Note_on_c, 15, 59, 65
19, 148649, Note_on_c, 15, 59, 0
19, 148650, Note_on_c, 15, 57, 65
19, 148679, Note_on_c, 15, 57, 0
19, 148680, Note_on_c, 15, 55, 65
19, 148709, Note_on_c, 15, 55, 0
19, 148710, Note_on_c, 15, 54, 65
19, 148739, Note_on_c, 15, 54, 0
19, 148740, Note_on_c, 15, 55, 65
19, 148769, Note_on_c, 15, 55, 0
19, 148770, Note_on_c, 15, 54, 65
19, 148799, Note_on_c, 15, 54, 0
19, 148800, Note_on_c, 15, 52, 65
19, 148829, Note_on_c, 15, 52, 0
19, 148830, Note_on_c, 15, 54, 65
19, 148859, Note_on_c, 15, 54, 0
19, 148860, Note_on_c, 15, 52, 65
19, 148889, Note_on_c, 15, 52, 0
19, 148890, Note_on_c, 15, 50, 65
19, 148919, Note_on_c, 15, 50, 0
19, 148920, Note_on_c, 15, 49, 65
19, 148949, Note_on_c, 15, 49, 0
19, 148950, Note_on_c, 15, 47, 65
19, 148979, Note_on_c, 15, 47, 0
19, 148980, Note_on_c, 15, 49, 65
19, 149009, Note_on_c, 15, 49, 0
19, 149010, Note_on_c, 15, 47, 65
19, 149039, Note_on_c, 15, 47, 0
19, 149040, Note_on_c, 15, 46, 65
19, 149159, Note_on_c, 15, 46, 0
19, 149220, Note_on_c, 15, 52, 65
19, 149279, Note_on_c, 15, 52, 0
19, 149280, Note_on_c, 15, 50, 65
19, 149339, Note_on_c, 15, 50, 0
19, 149340, Note_on_c, 15, 47, 65
19, 149399, Note_on_c, 15, 47, 0
19, 149400, Note_on_c, 15, 54, 65
19, 149429, Note_on_c, 15, 54, 0
19, 149430, Note_on_c, 15, 52, 65
19, 149459, Note_on_c, 15, 52, 0
19, 149460, Note_on_c, 15, 54, 65
19, 149489, Note_on_c, 15, 54, 0
19, 149490, Note_on_c, 15, 52, 65
19, 149519, Note_on_c, 15, 52, 0
19, 149520, Note_on_c, 15, 50, 65
19, 149579, Note_on_c, 15, 50, 0
19, 149580, Note_on_c, 15, 47, 65
19, 149639, Note_on_c, 15, 47, 0
19, 149640, Note_on_c, 15, 54, 65
19, 149669, Note_on_c, 15, 54, 0
19, 149670, Note_on_c, 15, 52, 65
19, 149699, Note_on_c, 15, 52, 0
19, 149700, Note_on_c, 15, 54, 65
19, 149729, Note_on_c, 15, 54, 0
19, 149730, Note_on_c, 15, 52, 65
19, 149759, Note_on_c, 15, 52, 0
19, 149760, Note_on_c, 15, 50, 65
19, 149819, Note_on_c, 15, 50, 0
19, 149820, Note_on_c, 15, 52, 65
19, 149879, Note_on_c, 15, 52, 0
19, 149880, Note_on_c, 15, 54, 65
19, 149939, Note_on_c, 15, 54, 0
19, 149940, Note_on_c, 15, 42, 65
19, 149999, Note_on_c, 15, 42, 0
19, 150000, Note_on_c, 15, 47, 65
19, 150059, Note_on_c, 15, 47, 0
19, 150060, Note_on_c, 15, 54, 65
19, 150119, Note_on_c, 15, 54, 0
19, 150120, Note_on_c, 15, 55, 65
19, 150179, Note_on_c, 15, 55, 0
19, 150180, Note_on_c, 15, 59, 65
19, 150239, Note_on_c, 15, 59, 0
19, 150240, Note_on_c, 15, 48, 65
19, 150359, Note_on_c, 15, 48, 0
19, 150480, Note_on_c, 15, 47, 65
19, 150599, Note_on_c, 15, 47, 0
19, 150660, Note_on_c, 15, 45, 65
19, 150719, Note_on_c, 15, 45, 0
19, 150720, Note_on_c, 15, 43, 65
19, 150779, Note_on_c, 15, 43, 0
19, 150780, Note_on_c, 15, 45, 65
19, 150839, Note_on_c, 15, 45, 0
19, 150840, Note_on_c, 15, 47, 65
19, 150899, Note_on_c, 15, 47, 0
19, 150900, Note_on_c, 15, 47, 65
19, 150959, Note_on_c, 15, 47, 0
19, 150960, Note_on_c, 15, 40, 65
19, 150989, Note_on_c, 15, 40, 0
19, 150990, Note_on_c, 15, 39, 65
19, 151019, Note_on_c, 15, 39, 0
19, 151020, Note_on_c, 15, 40, 65
19, 151049, Note_on_c, 15, 40, 0
19, 151050, Note_on_c, 15, 42, 65
19, 151079, Note_on_c, 15, 42, 0
19, 151080, Note_on_c, 15, 43, 65
19, 151139, Note_on_c, 15, 43, 0
19, 151140, Note_on_c, 15, 40, 65
19, 151199, Note_on_c, 15, 40, 0
19, 151200, Note_on_c, 15, 46, 65
19, 151259, Note_on_c, 15, 46, 0
19, 151260, Note_on_c, 15, 47, 65
19, 151319, Note_on_c, 15, 47, 0
19, 151320, Note_on_c, 15, 49, 65
19, 151379, Note_on_c, 15, 49, 0
19, 151380, Note_on_c, 15, 37, 65
19, 151439, Note_on_c, 15, 37, 0
19, 151440, Note_on_c, 15, 38, 65
19, 151499, Note_on_c, 15, 38, 0
19, 151500, Note_on_c, 15, 50, 65
19, 151559, Note_on_c, 15, 50, 0
19, 151560, Note_on_c, 15, 49, 65
19, 151619, Note_on_c, 15, 49, 0
19, 151620, Note_on_c, 15, 47, 65
19, 151679, Note_on_c, 15, 47, 0
19, 151680, Note_on_c, 15, 52, 65
19, 151739, Note_on_c, 15, 52, 0
19, 151740, Note_on_c, 15, 54, 65
19, 151799, Note_on_c, 15, 54, 0
19, 151800, Note_on_c, 15, 55, 65
19, 151859, Note_on_c, 15, 55, 0
19, 151860, Note_on_c, 15, 43, 65
19, 151919, Note_on_c, 15, 43, 0
19, 151920, Note_on_c, 15, 42, 65
19, 151979, Note_on_c, 15, 42, 0
19, 151980, Note_on_c, 15, 54, 65
19, 152009, Note_on_c, 15, 54, 0
19, 152010, Note_on_c, 15, 52, 65
19, 152039, Note_on_c, 15, 52, 0
19, 152040, Note_on_c, 15, 50, 65
19, 152069, Note_on_c, 15, 50, 0
19, 152070, Note_on_c, 15, 49, 65
19, 152099, Note_on_c, 15, 49, 0
19, 152100, Note_on_c, 15, 50, 65
19, 152129, Note_on_c, 15, 50, 0
19, 152130, Note_on_c, 15, 49, 65
19, 152159, Note_on_c, 15, 49, 0
19, 152160, Note_on_c, 15, 50, 65
19, 152219, Note_on_c, 15, 50, 0
19, 152220, Note_on_c, 15, 47, 65
19, 152279, Note_on_c, 15, 47, 0
19, 152280, Note_on_c, 15, 50, 65
19, 152309, Note_on_c, 15, 50, 0
19, 152310, Note_on_c, 15, 52, 65
19, 152339, Note_on_c, 15, 52, 0
19, 152340, Note_on_c, 15, 54, 65
19, 152369, Note_on_c, 15, 54, 0
19, 152370, Note_on_c, 15, 52, 65
19, 152399, Note_on_c, 15, 52, 0
19, 152400, Note_on_c, 15, 50, 65
19, 152459, Note_on_c, 15, 50, 0
19, 152460, Note_on_c, 15, 47, 65
19, 152519, Note_on_c, 15, 47, 0
19, 152520, Note_on_c, 15, 46, 65
19, 152579, Note_on_c, 15, 46, 0
19, 152580, Note_on_c, 15, 42, 65
19, 152639, Note_on_c, 15, 42, 0
19, 152700, Note_on_c, 15, 47, 65
19, 152759, Note_on_c, 15, 47, 0
19, 152760, Note_on_c, 15, 50, 65
19, 152789, Note_on_c, 15, 50, 0
19, 152790, Note_on_c, 15, 52, 65
19, 152819, Note_on_c, 15, 52, 0
19, 152820, Note_on_c, 15, 54, 65
19, 152849, Note_on_c, 15, 54, 0
19, 152850, Note_on_c, 15, 52, 65
19, 152879, Note_on_c, 15, 52, 0
19, 152880, Note_on_c, 15, 50, 65
19, 152939, Note_on_c, 15, 50, 0
19, 152940, Note_on_c, 15, 47, 65
19, 152999, Note_on_c, 15, 47, 0
19, 153000, Note_on_c, 15, 46, 65
19, 153059, Note_on_c, 15, 46, 0
19, 153060, Note_on_c, 15, 42, 65
19, 153119, Note_on_c, 15, 42, 0
19, 153120, Note_on_c, 15, 47, 65
19, 153179, Note_on_c, 15, 47, 0
19, 153300, Note_on_c, 15, 49, 65
19, 153359, Note_on_c, 15, 49, 0
19, 153360, Note_on_c, 15, 50, 65
19, 153419, Note_on_c, 15, 50, 0
19, 153540, Note_on_c, 15, 52, 65
19, 153599, Note_on_c, 15, 52, 0
19, 153600, Note_on_c, 15, 54, 65
19, 153659, Note_on_c, 15, 54, 0
19, 153780, Note_on_c, 15, 42, 65
19, 153839, Note_on_c, 15, 42, 0
19, 153840, Note_on_c, 15, 47, 65
19, 153899, Note_on_c, 15, 47, 0
19, 153900, Note_on_c, 15, 47, 65
19, 153959, Note_on_c, 15, 47, 0
19, 153960, Note_on_c, 15, 45, 65
19, 154019, Note_on_c, 15, 45, 0
19, 154020, Note_on_c, 15, 45, 65
19, 154079, Note_on_c, 15, 45, 0
19, 154080, Note_on_c, 15, 44, 65
19, 154139, Note_on_c, 15, 44, 0
19, 154140, Note_on_c, 15, 44, 65
19, 154199, Note_on_c, 15, 44, 0
19, 154200, Note_on_c, 15, 42, 65
19, 154259, Note_on_c, 15, 42, 0
19, 154260, Note_on_c, 15, 42, 65
19, 154319, Note_on_c, 15, 42, 0
19, 154320, Note_on_c, 15, 41, 65
19, 154439, Note_on_c, 15, 41, 0
19, 154500, Note_on_c, 15, 53, 65
19, 154559, Note_on_c, 15, 53, 0
19, 154560, Note_on_c, 15, 54, 65
19, 154679, Note_on_c, 15, 54, 0
19, 154680, Note_on_c, 15, 42, 65
19, 154799, Note_on_c, 15, 42, 0
19, 154800, Note_on_c, 15, 47, 65
19, 154919, Note_on_c, 15, 47, 0
19, 154980, Note_on_c, 15, 54, 90
19, 155039, Note_on_c, 15, 54, 0
19, 155040, Note_on_c, 15, 59, 90
19, 155099, Note_on_c, 15, 59, 0
19, 155100, Note_on_c, 15, 62, 90
19, 155159, Note_on_c, 15, 62, 0
19, 155160, Note_on_c, 15, 61, 90
19, 155219, Note_on_c, 15, 61, 0
19, 155220, Note_on_c, 15, 58, 90
19, 155279, Note_on_c, 15, 58, 0
19, 155280, Note_on_c, 15, 59, 90
19, 155339, Note_on_c, 15, 59, 0
19, 155340, Note_on_c, 15, 62, 90
19, 155399, Note_on_c, 15, 62, 0
19, 155400, Note_on_c, 15, 61, 90
19, 155459, Note_on_c, 15, 61, 0
19, 155460, Note_on_c, 15, 58, 90
19, 155519, Note_on_c, 15, 58, 0
19, 155520, Note_on_c, 15, 59, 90
19, 155579, Note_on_c, 15, 59, 0
19, 155580, Note_on_c, 15, 57, 90
19, 155609, Note_on_c, 15, 57, 0
19, 155610, Note_on_c, 15, 55, 90
19, 155639, Note_on_c, 15, 55, 0
19, 155640, Note_on_c, 15, 54, 90
19, 155699, Note_on_c, 15, 54, 0
19, 155700, Note_on_c, 15, 52, 90
19, 155759, Note_on_c, 15, 52, 0
19, 155760, Note_on_c, 15, 50, 90
19, 155789, Note_on_c, 15, 50, 0
19, 155790, Note_on_c, 15, 49, 90
19, 155819, Note_on_c, 15, 49, 0
19, 155820, Note_on_c, 15, 50, 90
19, 155849, Note_on_c, 15, 50, 0
19, 155850, Note_on_c, 15, 49, 90
19, 155879, Note_on_c, 15, 49, 0
19, 155880, Note_on_c, 15, 47, 90
19, 155909, Note_on_c, 15, 47, 0
19, 155910, Note_on_c, 15, 45, 90
19, 155939, Note_on_c, 15, 45, 0
19, 155940, Note_on_c, 15, 47, 90
19, 155969, Note_on_c, 15, 47, 0
19, 155970, Note_on_c, 15, 45, 90
19, 155999, Note_on_c, 15, 45, 0
19, 156000, Note_on_c, 15, 43, 90
19, 156119, Note_on_c, 15, 43, 0
19, 156240, Note_on_c, 15, 42, 90
19, 156359, Note_on_c, 15, 42, 0
19, 156540, Note_on_c, 15, 40, 90
19, 156599, Note_on_c, 15, 40, 0
19, 156600, Note_on_c, 15, 42, 90
19, 156659, Note_on_c, 15, 42, 0
19, 156660, Note_on_c, 15, 54, 90
19, 156719, Note_on_c, 15, 54, 0
19, 156720, Note_on_c, 15, 47, 90
19, 156779, Note_on_c, 15, 47, 0
19, 156780, Note_on_c, 15, 49, 90
19, 156839, Note_on_c, 15, 49, 0
19, 156840, Note_on_c, 15, 50, 90
19, 156899, Note_on_c, 15, 50, 0
19, 156900, Note_on_c, 15, 47, 90
19, 156959, Note_on_c, 15, 47, 0
19, 156960, Note_on_c, 15, 53, 90
19, 157019, Note_on_c, 15, 53, 0
19, 157020, Note_on_c, 15, 54, 90
19, 157079, Note_on_c, 15, 54, 0
19, 157080, Note_on_c, 15, 56, 90
19, 157139, Note_on_c, 15, 56, 0
19, 157140, Note_on_c, 15, 49, 90
19, 157199, Note_on_c, 15, 49, 0
19, 157200, Note_on_c, 15, 54, 90
19, 157259, Note_on_c, 15, 54, 0
19, 157260, Note_on_c, 15, 42, 90
19, 157319, Note_on_c, 15, 42, 0
19, 157320, Note_on_c, 15, 54, 90
19, 157379, Note_on_c, 15, 54, 0
19, 157380, Note_on_c, 15, 52, 90
19, 157439, Note_on_c, 15, 52, 0
19, 157440, Note_on_c, 15, 51, 90
19, 157499, Note_on_c, 15, 51, 0
19, 157500, Note_on_c, 15, 52, 90
19, 157559, Note_on_c, 15, 52, 0
19, 157560, Note_on_c, 15, 54, 90
19, 157619, Note_on_c, 15, 54, 0
19, 157620, Note_on_c, 15, 47, 90
19, 157679, Note_on_c, 15, 47, 0
19, 157680, Note_on_c, 15, 52, 90
19, 157739, Note_on_c, 15, 52, 0
19, 157740, Note_on_c, 15, 40, 90
19, 157799, Note_on_c, 15, 40, 0
19, 157800, Note_on_c, 15, 52, 90
19, 157949, Note_on_c, 15, 52, 0
19, 157950, Note_on_c, 15, 51, 90
19, 157979, Note_on_c, 15, 51, 0
19, 157980, Note_on_c, 15, 52, 90
19, 158009, Note_on_c, 15, 52, 0
19, 158010, Note_on_c, 15, 51, 90
19, 158039, Note_on_c, 15, 51, 0
19, 158040, Note_on_c, 15, 52, 90
19, 158189, Note_on_c, 15, 52, 0
19, 158190, Note_on_c, 15, 49, 90
19, 158219, Note_on_c, 15, 49, 0
19, 158220, Note_on_c, 15, 50, 90
19, 158249, Note_on_c, 15, 50, 0
19, 158250, Note_on_c, 15, 47, 90
19, 158279, Note_on_c, 15, 47, 0
19, 158280, Note_on_c, 15, 46, 90
19, 158339, Note_on_c, 15, 46, 0
19, 158340, Note_on_c, 15, 58, 90
19, 158399, Note_on_c, 15, 58, 0
19, 158400, Note_on_c, 15, 59, 90
19, 158459, Note_on_c, 15, 59, 0
19, 158460, Note_on_c, 15, 38, 90
19, 158519, Note_on_c, 15, 38, 0
19, 158520, Note_on_c, 15, 40, 90
19, 158579, Note_on_c, 15, 40, 0
19, 158580, Note_on_c, 15, 42, 90
19, 158639, Note_on_c, 15, 42, 0
19, 158640, Note_on_c, 15, 47, 90
19, 158759, Note_on_c, 15, 47, 0
19, 158880, Note_on_c, 15, 49, 70
19, 159359, Note_on_c, 15, 49, 0
19, 159360, Note_on_c, 15, 46, 70
19, 159839, Note_on_c, 15, 46, 0
19, 159840, Note_on_c, 15, 47, 70
19, 160319, Note_on_c, 15, 47, 0
19, 160320, Note_on_c, 15, 40, 70
19, 160799, Note_on_c, 15, 40, 0
19, 160800, Note_on_c, 15, 45, 70
19, 161279, Note_on_c, 15, 45, 0
19, 161280, Note_on_c, 15, 38, 70
19, 161759, Note_on_c, 15, 38, 0
19, 161760, Note_on_c, 15, 43, 70
19, 161819, Note_on_c, 15, 43, 0
19, 161820, Note_on_c, 15, 50, 70
19, 161879, Note_on_c, 15, 50, 0
19, 161880, Note_on_c, 15, 55, 70
19, 161939, Note_on_c, 15, 55, 0
19, 161940, Note_on_c, 15, 52, 70
19, 161999, Note_on_c, 15, 52, 0
19, 162000, Note_on_c, 15, 49, 70
19, 162059, Note_on_c, 15, 49, 0
19, 162060, Note_on_c, 15, 45, 70
19, 162119, Note_on_c, 15, 45, 0
19, 162120, Note_on_c, 15, 50, 70
19, 162179, Note_on_c, 15, 50, 0
19, 162180, Note_on_c, 15, 47, 70
19, 162239, Note_on_c, 15, 47, 0
19, 162240, Note_on_c, 15, 44, 70
19, 162359, Note_on_c, 15, 44, 0
19, 162600, Note_on_c, 15, 45, 70
19, 162719, Note_on_c, 15, 45, 0
19, 162720, Note_on_c, 15, 38, 70
19, 162959, Note_on_c, 15, 38, 0
19, 163680, Note_on_c, 15, 50, 80
19, 163727, Note_on_c, 15, 50, 0
19, 163740, Note_on_c, 15, 38, 80
19, 163787, Note_on_c, 15, 38, 0
19, 164220, Note_on_c, 15, 50, 100
19, 164243, Note_on_c, 15, 50, 0
19, 164250, Note_on_c, 15, 49, 100
19, 164273, Note_on_c, 15, 49, 0
19, 164280, Note_on_c, 15, 50, 100
19, 164303, Note_on_c, 15, 50, 0
19, 164310, Note_on_c, 15, 52, 100
19, 164333, Note_on_c, 15, 52, 0
19, 164340, Note_on_c, 15, 54, 100
19, 164363, Note_on_c, 15, 54, 0
19, 164370, Note_on_c, 15, 55, 100
19, 164393, Note_on_c, 15, 55, 0
19, 164400, Note_on_c, 15, 57, 100
19, 164423, Note_on_c, 15, 57, 0
19, 164430, Note_on_c, 15, 55, 100
19, 164453, Note_on_c, 15, 55, 0
19, 164460, Note_on_c, 15, 57, 100
19, 164483, Note_on_c, 15, 57, 0
19, 164490, Note_on_c, 15, 59, 100
19, 164513, Note_on_c, 15, 59, 0
19, 164520, Note_on_c, 15, 57, 80
19, 164543, Note_on_c, 15, 57, 0
19, 164550, Note_on_c, 15, 55, 80
19, 164573, Note_on_c, 15, 55, 0
19, 164580, Note_on_c, 15, 54, 80
19, 164603, Note_on_c, 15, 54, 0
19, 164610, Note_on_c, 15, 52, 80
19, 164633, Note_on_c, 15, 52, 0
19, 164640, Note_on_c, 15, 50, 80
19, 164687, Note_on_c, 15, 50, 0
19, 164700, Note_on_c, 15, 38, 80
19, 164747, Note_on_c, 15, 38, 0
19, 165180, Note_on_c, 15, 50, 100
19, 165203, Note_on_c, 15, 50, 0
19, 165210, Note_on_c, 15, 49, 100
19, 165233, Note_on_c, 15, 49, 0
19, 165240, Note_on_c, 15, 50, 100
19, 165263, Note_on_c, 15, 50, 0
19, 165270, Note_on_c, 15, 52, 100
19, 165293, Note_on_c, 15, 52, 0
19, 165300, Note_on_c, 15, 54, 100
19, 165323, Note_on_c, 15, 54, 0
19, 165330, Note_on_c, 15, 55, 100
19, 165353, Note_on_c, 15, 55, 0
19, 165360, Note_on_c, 15, 57, 100
19, 165383, Note_on_c, 15, 57, 0
19, 165390, Note_on_c, 15, 55, 100
19, 165413, Note_on_c, 15, 55, 0
19, 165420, Note_on_c, 15, 57, 100
19, 165443, Note_on_c, 15, 57, 0
19, 165450, Note_on_c, 15, 59, 100
19, 165473, Note_on_c, 15, 59, 0
19, 165480, Note_on_c, 15, 57, 100
19, 165503, Note_on_c, 15, 57, 0
19, 165510, Note_on_c, 15, 55, 80
19, 165533, Note_on_c, 15, 55, 0
19, 165540, Note_on_c, 15, 54, 80
19, 165563, Note_on_c, 15, 54, 0
19, 165570, Note_on_c, 15, 52, 80
19, 165593, Note_on_c, 15, 52, 0
19, 165600, Note_on_c, 15, 50, 80
19, 165647, Note_on_c, 15, 50, 0
19, 165660, Note_on_c, 15, 49, 80
19, 165707, Note_on_c, 15, 49, 0
19, 165720, Note_on_c, 15, 50, 80
19, 165767, Note_on_c, 15, 50, 0
19, 165780, Note_on_c, 15, 49, 80
19, 165827, Note_on_c, 15, 49, 0
19, 165840, Note_on_c, 15, 50, 80
19, 165887, Note_on_c, 15, 50, 0
19, 165900, Note_on_c, 15, 62, 100
19, 165923, Note_on_c, 15, 62, 0
19, 165930, Note_on_c, 15, 61, 100
19, 165953, Note_on_c, 15, 61, 0
19, 165960, Note_on_c, 15, 62, 100
19, 166007, Note_on_c, 15, 62, 0
19, 166020, Note_on_c, 15, 59, 100
19, 166067, Note_on_c, 15, 59, 0
19, 166080, Note_on_c, 15, 49, 100
19, 166127, Note_on_c, 15, 49, 0
19, 166140, Note_on_c, 15, 47, 100
19, 166187, Note_on_c, 15, 47, 0
19, 166200, Note_on_c, 15, 49, 100
19, 166247, Note_on_c, 15, 49, 0
19, 166260, Note_on_c, 15, 47, 100
19, 166307, Note_on_c, 15, 47, 0
19, 166320, Note_on_c, 15, 49, 100
19, 166367, Note_on_c, 15, 49, 0
19, 166380, Note_on_c, 15, 61, 100
19, 166403, Note_on_c, 15, 61, 0
19, 166410, Note_on_c, 15, 59, 100
19, 166433, Note_on_c, 15, 59, 0
19, 166440, Note_on_c, 15, 61, 100
19, 166487, Note_on_c, 15, 61, 0
19, 166500, Note_on_c, 15, 57, 100
19, 166547, Note_on_c, 15, 57, 0
19, 166560, Note_on_c, 15, 47, 80
19, 166607, Note_on_c, 15, 47, 0
19, 166620, Note_on_c, 15, 59, 80
19, 166667, Note_on_c, 15, 59, 0
19, 166680, Note_on_c, 15, 57, 80
19, 166727, Note_on_c, 15, 57, 0
19, 166740, Note_on_c, 15, 45, 80
19, 166787, Note_on_c, 15, 45, 0
19, 166800, Note_on_c, 15, 43, 80
19, 166847, Note_on_c, 15, 43, 0
19, 166860, Note_on_c, 15, 55, 80
19, 166907, Note_on_c, 15, 55, 0
19, 166920, Note_on_c, 15, 54, 80
19, 166967, Note_on_c, 15, 54, 0
19, 166980, Note_on_c, 15, 42, 80
19, 167027, Note_on_c, 15, 42, 0
19, 167040, Note_on_c, 15, 40, 80
19, 167063, Note_on_c, 15, 40, 0
19, 167070, Note_on_c, 15, 42, 80
19, 167093, Note_on_c, 15, 42, 0
19, 167100, Note_on_c, 15, 43, 80
19, 167123, Note_on_c, 15, 43, 0
19, 167130, Note_on_c, 15, 45, 80
19, 167153, Note_on_c, 15, 45, 0
19, 167160, Note_on_c, 15, 47, 80
19, 167183, Note_on_c, 15, 47, 0
19, 167190, Note_on_c, 15, 49, 80
19, 167213, Note_on_c, 15, 49, 0
19, 167220, Note_on_c, 15, 50, 80
19, 167243, Note_on_c, 15, 50, 0
19, 167250, Note_on_c, 15, 47, 80
19, 167273, Note_on_c, 15, 47, 0
19, 167280, Note_on_c, 15, 49, 80
19, 167303, Note_on_c, 15, 49, 0
19, 167310, Note_on_c, 15, 45, 80
19, 167333, Note_on_c, 15, 45, 0
19, 167340, Note_on_c, 15, 49, 80
19, 167363, Note_on_c, 15, 49, 0
19, 167370, Note_on_c, 15, 52, 80
19, 167393, Note_on_c, 15, 52, 0
19, 167400, Note_on_c, 15, 57, 80
19, 167447, Note_on_c, 15, 57, 0
19, 167460, Note_on_c, 15, 49, 80
19, 167507, Note_on_c, 15, 49, 0
19, 167520, Note_on_c, 15, 50, 80
19, 167567, Note_on_c, 15, 50, 0
19, 167580, Note_on_c, 15, 47, 80
19, 167627, Note_on_c, 15, 47, 0
19, 167640, Note_on_c, 15, 43, 80
19, 167687, Note_on_c, 15, 43, 0
19, 167700, Note_on_c, 15, 45, 80
19, 167747, Note_on_c, 15, 45, 0
19, 167760, Note_on_c, 15, 47, 80
19, 167807, Note_on_c, 15, 47, 0
19, 167820, Note_on_c, 15, 59, 80
19, 167843, Note_on_c, 15, 59, 0
19, 167850, Note_on_c, 15, 57, 80
19, 167873, Note_on_c, 15, 57, 0
19, 167880, Note_on_c, 15, 59, 80
19, 167927, Note_on_c, 15, 59, 0
19, 167940, Note_on_c, 15, 47, 80
19, 167987, Note_on_c, 15, 47, 0
19, 168000, Note_on_c, 15, 42, 80
19, 168047, Note_on_c, 15, 42, 0
19, 168060, Note_on_c, 15, 54, 80
19, 168083, Note_on_c, 15, 54, 0
19, 168090, Note_on_c, 15, 52, 80
19, 168113, Note_on_c, 15, 52, 0
19, 168120, Note_on_c, 15, 54, 80
19, 168167, Note_on_c, 15, 54, 0
19, 168180, Note_on_c, 15, 50, 80
19, 168227, Note_on_c, 15, 50, 0
19, 168240, Note_on_c, 15, 55, 80
19, 168287, Note_on_c, 15, 55, 0
19, 168300, Note_on_c, 15, 43, 81
19, 168347, Note_on_c, 15, 43, 0
19, 168360, Note_on_c, 15, 42, 82
19, 168407, Note_on_c, 15, 42, 0
19, 168420, Note_on_c, 15, 54, 83
19, 168467, Note_on_c, 15, 54, 0
19, 168480, Note_on_c, 15, 52, 85
19, 168527, Note_on_c, 15, 52, 0
19, 168540, Note_on_c, 15, 40, 86
19, 168587, Note_on_c, 15, 40, 0
19, 168600, Note_on_c, 15, 38, 87
19, 168647, Note_on_c, 15, 38, 0
19, 168660, Note_on_c, 15, 50, 88
19, 168707, Note_on_c, 15, 50, 0
19, 168720, Note_on_c, 15, 49, 90
19, 168743, Note_on_c, 15, 49, 0
19, 168750, Note_on_c, 15, 62, 90
19, 168773, Note_on_c, 15, 62, 0
19, 168780, Note_on_c, 15, 61, 91
19, 168803, Note_on_c, 15, 61, 0
19, 168810, Note_on_c, 15, 59, 91
19, 168833, Note_on_c, 15, 59, 0
19, 168840, Note_on_c, 15, 57, 92
19, 168863, Note_on_c, 15, 57, 0
19, 168870, Note_on_c, 15, 55, 93
19, 168893, Note_on_c, 15, 55, 0
19, 168900, Note_on_c, 15, 54, 93
19, 168923, Note_on_c, 15, 54, 0
19, 168930, Note_on_c, 15, 52, 94
19, 168953, Note_on_c, 15, 52, 0
19, 168960, Note_on_c, 15, 50, 95
19, 168983, Note_on_c, 15, 50, 0
19, 168990, Note_on_c, 15, 49, 95
19, 169013, Note_on_c, 15, 49, 0
19, 169020, Note_on_c, 15, 47, 96
19, 169043, Note_on_c, 15, 47, 0
19, 169050, Note_on_c, 15, 45, 96
19, 169073, Note_on_c, 15, 45, 0
19, 169080, Note_on_c, 15, 43, 97
19, 169127, Note_on_c, 15, 43, 0
19, 169140, Note_on_c, 15, 45, 98
19, 169187, Note_on_c, 15, 45, 0
19, 169200, Note_on_c, 15, 38, 100
19, 169247, Note_on_c, 15, 38, 0
19, 169260, Note_on_c, 15, 50, 80
19, 169283, Note_on_c, 15, 50, 0
19, 169290, Note_on_c, 15, 52, 80
19, 169313, Note_on_c, 15, 52, 0
19, 169320, Note_on_c, 15, 50, 80
19, 169343, Note_on_c, 15, 50, 0
19, 169350, Note_on_c, 15, 48, 80
19, 169373, Note_on_c, 15, 48, 0
19, 169380, Note_on_c, 15, 47, 80
19, 169403, Note_on_c, 15, 47, 0
19, 169410, Note_on_c, 15, 45, 80
19, 169433, Note_on_c, 15, 45, 0
19, 169440, Note_on_c, 15, 43, 80
19, 169487, Note_on_c, 15, 43, 0
19, 169500, Note_on_c, 15, 55, 80
19, 169547, Note_on_c, 15, 55, 0
19, 169560, Note_on_c, 15, 54, 80
19, 169607, Note_on_c, 15, 54, 0
19, 169620, Note_on_c, 15, 42, 80
19, 169667, Note_on_c, 15, 42, 0
19, 169680, Note_on_c, 15, 47, 81
19, 169727, Note_on_c, 15, 47, 0
19, 169740, Note_on_c, 15, 59, 81
19, 169787, Note_on_c, 15, 59, 0
19, 169800, Note_on_c, 15, 57, 81
19, 169847, Note_on_c, 15, 57, 0
19, 169860, Note_on_c, 15, 45, 81
19, 169907, Note_on_c, 15, 45, 0
19, 169920, Note_on_c, 15, 43, 81
19, 169967, Note_on_c, 15, 43, 0
19, 169980, Note_on_c, 15, 55, 81
19, 170027, Note_on_c, 15, 55, 0
19, 170040, Note_on_c, 15, 57, 81
19, 170087, Note_on_c, 15, 57, 0
19, 170100, Note_on_c, 15, 45, 81
19, 170147, Note_on_c, 15, 45, 0
19, 170160, Note_on_c, 15, 50, 81
19, 170207, Note_on_c, 15, 50, 0
19, 170220, Note_on_c, 15, 54, 81
19, 170243, Note_on_c, 15, 54, 0
19, 170250, Note_on_c, 15, 52, 81
19, 170273, Note_on_c, 15, 52, 0
19, 170280, Note_on_c, 15, 50, 81
19, 170327, Note_on_c, 15, 50, 0
19, 170340, Note_on_c, 15, 49, 81
19, 170387, Note_on_c, 15, 49, 0
19, 170400, Note_on_c, 15, 47, 81
19, 170495, Note_on_c, 15, 47, 0
19, 170940, Note_on_c, 15, 47, 81
19, 170963, Note_on_c, 15, 47, 0
19, 170970, Note_on_c, 15, 46, 81
19, 170993, Note_on_c, 15, 46, 0
19, 171000, Note_on_c, 15, 47, 81
19, 171023, Note_on_c, 15, 47, 0
19, 171030, Note_on_c, 15, 49, 82
19, 171053, Note_on_c, 15, 49, 0
19, 171060, Note_on_c, 15, 50, 82
19, 171083, Note_on_c, 15, 50, 0
19, 171090, Note_on_c, 15, 52, 82
19, 171113, Note_on_c, 15, 52, 0
19, 171120, Note_on_c, 15, 54, 82
19, 171143, Note_on_c, 15, 54, 0
19, 171150, Note_on_c, 15, 52, 82
19, 171173, Note_on_c, 15, 52, 0
19, 171180, Note_on_c, 15, 54, 82
19, 171203, Note_on_c, 15, 54, 0
19, 171210, Note_on_c, 15, 55, 82
19, 171233, Note_on_c, 15, 55, 0
19, 171240, Note_on_c, 15, 54, 82
19, 171263, Note_on_c, 15, 54, 0
19, 171270, Note_on_c, 15, 52, 82
19, 171293, Note_on_c, 15, 52, 0
19, 171300, Note_on_c, 15, 50, 82
19, 171323, Note_on_c, 15, 50, 0
19, 171330, Note_on_c, 15, 49, 82
19, 171353, Note_on_c, 15, 49, 0
19, 171360, Note_on_c, 15, 47, 82
19, 171407, Note_on_c, 15, 47, 0
19, 171420, Note_on_c, 15, 59, 82
19, 171467, Note_on_c, 15, 59, 0
19, 171480, Note_on_c, 15, 55, 82
19, 171527, Note_on_c, 15, 55, 0
19, 171540, Note_on_c, 15, 50, 82
19, 171587, Note_on_c, 15, 50, 0
19, 171600, Note_on_c, 15, 52, 82
19, 171647, Note_on_c, 15, 52, 0
19, 171660, Note_on_c, 15, 49, 82
19, 171707, Note_on_c, 15, 49, 0
19, 171720, Note_on_c, 15, 54, 82
19, 171767, Note_on_c, 15, 54, 0
19, 171780, Note_on_c, 15, 42, 82
19, 171827, Note_on_c, 15, 42, 0
19, 171840, Note_on_c, 15, 47, 82
19, 171887, Note_on_c, 15, 47, 0
19, 171900, Note_on_c, 15, 54, 82
19, 171947, Note_on_c, 15, 54, 0
19, 171960, Note_on_c, 15, 59, 82
19, 172007, Note_on_c, 15, 59, 0
19, 172020, Note_on_c, 15, 54, 82
19, 172067, Note_on_c, 15, 54, 0
19, 172080, Note_on_c, 15, 55, 82
19, 172127, Note_on_c, 15, 55, 0
19, 172140, Note_on_c, 15, 52, 82
19, 172187, Note_on_c, 15, 52, 0
19, 172200, Note_on_c, 15, 57, 100
19, 172223, Note_on_c, 15, 57, 0
19, 172230, Note_on_c, 15, 55, 100
19, 172253, Note_on_c, 15, 55, 0
19, 172260, Note_on_c, 15, 54, 100
19, 172283, Note_on_c, 15, 54, 0
19, 172290, Note_on_c, 15, 52, 100
19, 172313, Note_on_c, 15, 52, 0
19, 172320, Note_on_c, 15, 50, 100
19, 172367, Note_on_c, 15, 50, 0
19, 172380, Note_on_c, 15, 38, 100
19, 172427, Note_on_c, 15, 38, 0
19, 172860, Note_on_c, 15, 50, 110
19, 172883, Note_on_c, 15, 50, 0
19, 172890, Note_on_c, 15, 49, 110
19, 172913, Note_on_c, 15, 49, 0
19, 172920, Note_on_c, 15, 50, 110
19, 172943, Note_on_c, 15, 50, 0
19, 172950, Note_on_c, 15, 52, 110
19, 172973, Note_on_c, 15, 52, 0
19, 172980, Note_on_c, 15, 54, 110
19, 173003, Note_on_c, 15, 54, 0
19, 173010, Note_on_c, 15, 55, 110
19, 173033, Note_on_c, 15, 55, 0
19, 173040, Note_on_c, 15, 57, 110
19, 173063, Note_on_c, 15, 57, 0
19, 173070, Note_on_c, 15, 55, 110
19, 173093, Note_on_c, 15, 55, 0
19, 173100, Note_on_c, 15, 57, 110
19, 173123, Note_on_c, 15, 57, 0
19, 173130, Note_on_c, 15, 59, 110
19, 173153, Note_on_c, 15, 59, 0
19, 173160, Note_on_c, 15, 57, 80
19, 173183, Note_on_c, 15, 57, 0
19, 173190, Note_on_c, 15, 55, 80
19, 173213, Note_on_c, 15, 55, 0
19, 173220, Note_on_c, 15, 54, 80
19, 173243, Note_on_c, 15, 54, 0
19, 173250, Note_on_c, 15, 52, 80
19, 173273, Note_on_c, 15, 52, 0
19, 173280, Note_on_c, 15, 50, 80
19, 173327, Note_on_c, 15, 50, 0
19, 173340, Note_on_c, 15, 38, 80
19, 173387, Note_on_c, 15, 38, 0
19, 173820, Note_on_c, 15, 50, 100
19, 173843, Note_on_c, 15, 50, 0
19, 173850, Note_on_c, 15, 49, 100
19, 173873, Note_on_c, 15, 49, 0
19, 173880, Note_on_c, 15, 50, 100
19, 173903, Note_on_c, 15, 50, 0
19, 173910, Note_on_c, 15, 52, 100
19, 173933, Note_on_c, 15, 52, 0
19, 173940, Note_on_c, 15, 54, 100
19, 173963, Note_on_c, 15, 54, 0
19, 173970, Note_on_c, 15, 55, 100
19, 173993, Note_on_c, 15, 55, 0
19, 174000, Note_on_c, 15, 57, 100
19, 174023, Note_on_c, 15, 57, 0
19, 174030, Note_on_c, 15, 55, 100
19, 174053, Note_on_c, 15, 55, 0
19, 174060, Note_on_c, 15, 57, 100
19, 174083, Note_on_c, 15, 57, 0
19, 174090, Note_on_c, 15, 59, 100
19, 174113, Note_on_c, 15, 59, 0
19, 174120, Note_on_c, 15, 57, 80
19, 174143, Note_on_c, 15, 57, 0
19, 174150, Note_on_c, 15, 55, 80
19, 174173, Note_on_c, 15, 55, 0
19, 174180, Note_on_c, 15, 54, 80
19, 174203, Note_on_c, 15, 54, 0
19, 174210, Note_on_c, 15, 52, 80
19, 174233, Note_on_c, 15, 52, 0
19, 174240, Note_on_c, 15, 50, 80
19, 174287, Note_on_c, 15, 50, 0
19, 174300, Note_on_c, 15, 49, 80
19, 174347, Note_on_c, 15, 49, 0
19, 174360, Note_on_c, 15, 50, 80
19, 174407, Note_on_c, 15, 50, 0
19, 174420, Note_on_c, 15, 49, 80
19, 174467, Note_on_c, 15, 49, 0
19, 174480, Note_on_c, 15, 50, 80
19, 174527, Note_on_c, 15, 50, 0
19, 174540, Note_on_c, 15, 62, 100
19, 174563, Note_on_c, 15, 62, 0
19, 174570, Note_on_c, 15, 61, 100
19, 174593, Note_on_c, 15, 61, 0
19, 174600, Note_on_c, 15, 62, 100
19, 174647, Note_on_c, 15, 62, 0
19, 174660, Note_on_c, 15, 59, 100
19, 174707, Note_on_c, 15, 59, 0
19, 174720, Note_on_c, 15, 49, 80
19, 174767, Note_on_c, 15, 49, 0
19, 174780, Note_on_c, 15, 47, 80
19, 174827, Note_on_c, 15, 47, 0
19, 174840, Note_on_c, 15, 49, 80
19, 174887, Note_on_c, 15, 49, 0
19, 174900, Note_on_c, 15, 47, 80
19, 174947, Note_on_c, 15, 47, 0
19, 174960, Note_on_c, 15, 49, 80
19, 175007, Note_on_c, 15, 49, 0
19, 175020, Note_on_c, 15, 61, 100
19, 175043, Note_on_c, 15, 61, 0
19, 175050, Note_on_c, 15, 59, 100
19, 175073, Note_on_c, 15, 59, 0
19, 175080, Note_on_c, 15, 61, 100
19, 175127, Note_on_c, 15, 61, 0
19, 175140, Note_on_c, 15, 57, 100
19, 175187, Note_on_c, 15, 57, 0
19, 175200, Note_on_c, 15, 47, 80
19, 175247, Note_on_c, 15, 47, 0
19, 175260, Note_on_c, 15, 59, 80
19, 175307, Note_on_c, 15, 59, 0
19, 175320, Note_on_c, 15, 57, 80
19, 175367, Note_on_c, 15, 57, 0
19, 175380, Note_on_c, 15, 45, 80
19, 175427, Note_on_c, 15, 45, 0
19, 175440, Note_on_c, 15, 43, 80
19, 175487, Note_on_c, 15, 43, 0
19, 175500, Note_on_c, 15, 55, 80
19, 175547, Note_on_c, 15, 55, 0
19, 175560, Note_on_c, 15, 54, 80
19, 175607, Note_on_c, 15, 54, 0
19, 175620, Note_on_c, 15, 42, 80
19, 175667, Note_on_c, 15, 42, 0
19, 175680, Note_on_c, 15, 40, 80
19, 175703, Note_on_c, 15, 40, 0
19, 175710, Note_on_c, 15, 42, 80
19, 175733, Note_on_c, 15, 42, 0
19, 175740, Note_on_c, 15, 43, 80
19, 175763, Note_on_c, 15, 43, 0
19, 175770, Note_on_c, 15, 45, 80
19, 175793, Note_on_c, 15, 45, 0
19, 175800, Note_on_c, 15, 47, 80
19, 175823, Note_on_c, 15, 47, 0
19, 175830, Note_on_c, 15, 49, 80
19, 175853, Note_on_c, 15, 49, 0
19, 175860, Note_on_c, 15, 50, 80
19, 175883, Note_on_c, 15, 50, 0
19, 175890, Note_on_c, 15, 47, 80
19, 175913, Note_on_c, 15, 47, 0
19, 175920, Note_on_c, 15, 49, 80
19, 175943, Note_on_c, 15, 49, 0
19, 175950, Note_on_c, 15, 45, 80
19, 175973, Note_on_c, 15, 45, 0
19, 175980, Note_on_c, 15, 49, 80
19, 176003, Note_on_c, 15, 49, 0
19, 176010, Note_on_c, 15, 52, 80
19, 176033, Note_on_c, 15, 52, 0
19, 176040, Note_on_c, 15, 57, 80
19, 176087, Note_on_c, 15, 57, 0
19, 176100, Note_on_c, 15, 49, 80
19, 176147, Note_on_c, 15, 49, 0
19, 176160, Note_on_c, 15, 50, 80
19, 176207, Note_on_c, 15, 50, 0
19, 176220, Note_on_c, 15, 47, 80
19, 176267, Note_on_c, 15, 47, 0
19, 176280, Note_on_c, 15, 43, 80
19, 176327, Note_on_c, 15, 43, 0
19, 176340, Note_on_c, 15, 45, 80
19, 176387, Note_on_c, 15, 45, 0
19, 176400, Note_on_c, 15, 47, 80
19, 176447, Note_on_c, 15, 47, 0
19, 176460, Note_on_c, 15, 59, 80
19, 176483, Note_on_c, 15, 59, 0
19, 176490, Note_on_c, 15, 57, 80
19, 176513, Note_on_c, 15, 57, 0
19, 176520, Note_on_c, 15, 59, 80
19, 176567, Note_on_c, 15, 59, 0
19, 176580, Note_on_c, 15, 47, 80
19, 176627, Note_on_c, 15, 47, 0
19, 176640, Note_on_c, 15, 42, 80
19, 176687, Note_on_c, 15, 42, 0
19, 176700, Note_on_c, 15, 54, 80
19, 176723, Note_on_c, 15, 54, 0
19, 176730, Note_on_c, 15, 52, 80
19, 176753, Note_on_c, 15, 52, 0
19, 176760, Note_on_c, 15, 54, 80
19, 176807, Note_on_c, 15, 54, 0
19, 176820, Note_on_c, 15, 50, 80
19, 176867, Note_on_c, 15, 50, 0
19, 176880, Note_on_c, 15, 55, 80
19, 176927, Note_on_c, 15, 55, 0
19, 176940, Note_on_c, 15, 43, 80
19, 176987, Note_on_c, 15, 43, 0
19, 177000, Note_on_c, 15, 42, 80
19, 177047, Note_on_c, 15, 42, 0
19, 177060, Note_on_c, 15, 54, 80
19, 177107, Note_on_c, 15, 54, 0
19, 177120, Note_on_c, 15, 52, 80
19, 177167, Note_on_c, 15, 52, 0
19, 177180, Note_on_c, 15, 40, 80
19, 177227, Note_on_c, 15, 40, 0
19, 177240, Note_on_c, 15, 38, 80
19, 177287, Note_on_c, 15, 38, 0
19, 177300, Note_on_c, 15, 50, 80
19, 177347, Note_on_c, 15, 50, 0
19, 177360, Note_on_c, 15, 49, 80
19, 177383, Note_on_c, 15, 49, 0
19, 177390, Note_on_c, 15, 62, 80
19, 177413, Note_on_c, 15, 62, 0
19, 177420, Note_on_c, 15, 61, 80
19, 177443, Note_on_c, 15, 61, 0
19, 177450, Note_on_c, 15, 59, 80
19, 177473, Note_on_c, 15, 59, 0
19, 177480, Note_on_c, 15, 57, 80
19, 177503, Note_on_c, 15, 57, 0
19, 177510, Note_on_c, 15, 55, 80
19, 177533, Note_on_c, 15, 55, 0
19, 177540, Note_on_c, 15, 54, 80
19, 177563, Note_on_c, 15, 54, 0
19, 177570, Note_on_c, 15, 52, 80
19, 177593, Note_on_c, 15, 52, 0
19, 177600, Note_on_c, 15, 50, 80
19, 177623, Note_on_c, 15, 50, 0
19, 177630, Note_on_c, 15, 49, 80
19, 177653, Note_on_c, 15, 49, 0
19, 177660, Note_on_c, 15, 47, 80
19, 177683, Note_on_c, 15, 47, 0
19, 177690, Note_on_c, 15, 45, 80
19, 177713, Note_on_c, 15, 45, 0
19, 177720, Note_on_c, 15, 43, 80
19, 177767, Note_on_c, 15, 43, 0
19, 177780, Note_on_c, 15, 45, 80
19, 177827, Note_on_c, 15, 45, 0
19, 177840, Note_on_c, 15, 38, 80
19, 177887, Note_on_c, 15, 38, 0
19, 177900, Note_on_c, 15, 50, 80
19, 177923, Note_on_c, 15, 50, 0
19, 177930, Note_on_c, 15, 52, 80
19, 177953, Note_on_c, 15, 52, 0
19, 177960, Note_on_c, 15, 50, 80
19, 177983, Note_on_c, 15, 50, 0
19, 177990, Note_on_c, 15, 48, 80
19, 178013, Note_on_c, 15, 48, 0
19, 178020, Note_on_c, 15, 47, 80
19, 178043, Note_on_c, 15, 47, 0
19, 178050, Note_on_c, 15, 45, 80
19, 178073, Note_on_c, 15, 45, 0
19, 178080, Note_on_c, 15, 43, 80
19, 178127, Note_on_c, 15, 43, 0
19, 178140, Note_on_c, 15, 55, 80
19, 178187, Note_on_c, 15, 55, 0
19, 178200, Note_on_c, 15, 54, 80
19, 178247, Note_on_c, 15, 54, 0
19, 178260, Note_on_c, 15, 42, 80
19, 178307, Note_on_c, 15, 42, 0
19, 178320, Note_on_c, 15, 47, 80
19, 178367, Note_on_c, 15, 47, 0
19, 178380, Note_on_c, 15, 59, 80
19, 178427, Note_on_c, 15, 59, 0
19, 178440, Note_on_c, 15, 57, 80
19, 178487, Note_on_c, 15, 57, 0
19, 178500, Note_on_c, 15, 45, 80
19, 178547, Note_on_c, 15, 45, 0
19, 178560, Note_on_c, 15, 43, 80
19, 178607, Note_on_c, 15, 43, 0
19, 178620, Note_on_c, 15, 55, 80
19, 178667, Note_on_c, 15, 55, 0
19, 178680, Note_on_c, 15, 57, 80
19, 178727, Note_on_c, 15, 57, 0
19, 178740, Note_on_c, 15, 45, 80
19, 178787, Note_on_c, 15, 45, 0
19, 178800, Note_on_c, 15, 50, 80
19, 178847, Note_on_c, 15, 50, 0
19, 178860, Note_on_c, 15, 54, 80
19, 178883, Note_on_c, 15, 54, 0
19, 178890, Note_on_c, 15, 52, 80
19, 178913, Note_on_c, 15, 52, 0
19, 178920, Note_on_c, 15, 50, 80
19, 178967, Note_on_c, 15, 50, 0
19, 178980, Note_on_c, 15, 49, 80
19, 179027, Note_on_c, 15, 49, 0
19, 179040, Note_on_c, 15, 47, 80
19, 179135, Note_on_c, 15, 47, 0
19, 179580, Note_on_c, 15, 47, 80
19, 179603, Note_on_c, 15, 47, 0
19, 179610, Note_on_c, 15, 46, 80
19, 179633, Note_on_c, 15, 46, 0
19, 179640, Note_on_c, 15, 47, 80
19, 179663, Note_on_c, 15, 47, 0
19, 179670, Note_on_c, 15, 49, 80
19, 179693, Note_on_c, 15, 49, 0
19, 179700, Note_on_c, 15, 50, 80
19, 179723, Note_on_c, 15, 50, 0
19, 179730, Note_on_c, 15, 52, 80
19, 179753, Note_on_c, 15, 52, 0
19, 179760, Note_on_c, 15, 54, 80
19, 179783, Note_on_c, 15, 54, 0
19, 179790, Note_on_c, 15, 52, 80
19, 179813, Note_on_c, 15, 52, 0
19, 179820, Note_on_c, 15, 54, 80
19, 179843, Note_on_c, 15, 54, 0
19, 179850, Note_on_c, 15, 55, 80
19, 179873, Note_on_c, 15, 55, 0
19, 179880, Note_on_c, 15, 54, 80
19, 179903, Note_on_c, 15, 54, 0
19, 179910, Note_on_c, 15, 52, 80
19, 179933, Note_on_c, 15, 52, 0
19, 179940, Note_on_c, 15, 50, 80
19, 179963, Note_on_c, 15, 50, 0
19, 179970, Note_on_c, 15, 49, 80
19, 179993, Note_on_c, 15, 49, 0
19, 180000, Note_on_c, 15, 47, 80
19, 180047, Note_on_c, 15, 47, 0
19, 180060, Note_on_c, 15, 59, 80
19, 180107, Note_on_c, 15, 59, 0
19, 180120, Note_on_c, 15, 55, 80
19, 180167, Note_on_c, 15, 55, 0
19, 180180, Note_on_c, 15, 50, 80
19, 180227, Note_on_c, 15, 50, 0
19, 180240, Note_on_c, 15, 52, 80
19, 180287, Note_on_c, 15, 52, 0
19, 180300, Note_on_c, 15, 49, 80
19, 180347, Note_on_c, 15, 49, 0
19, 180360, Note_on_c, 15, 54, 80
19, 180407, Note_on_c, 15, 54, 0
19, 180420, Note_on_c, 15, 42, 80
19, 180467, Note_on_c, 15, 42, 0
19, 180480, Note_on_c, 15, 47, 80
19, 180527, Note_on_c, 15, 47, 0
19, 180540, Note_on_c, 15, 54, 80
19, 180587, Note_on_c, 15, 54, 0
19, 180600, Note_on_c, 15, 59, 80
19, 180647, Note_on_c, 15, 59, 0
19, 180660, Note_on_c, 15, 54, 80
19, 180707, Note_on_c, 15, 54, 0
19, 180720, Note_on_c, 15, 55, 80
19, 180767, Note_on_c, 15, 55, 0
19, 180780, Note_on_c, 15, 52, 80
19, 180827, Note_on_c, 15, 52, 0
19, 180840, Note_on_c, 15, 57, 100
19, 180863, Note_on_c, 15, 57, 0
19, 180870, Note_on_c, 15, 55, 100
19, 180893, Note_on_c, 15, 55, 0
19, 180900, Note_on_c, 15, 54, 100
19, 180923, Note_on_c, 15, 54, 0
19, 180930, Note_on_c, 15, 52, 100
19, 180953, Note_on_c, 15, 52, 0
19, 180960, Note_on_c, 15, 50, 100
19, 181007, Note_on_c, 15, 50, 0
19, 181020, Note_on_c, 15, 38, 100
19, 181067, Note_on_c, 15, 38, 0
19, 181500, Note_on_c, 15, 50, 110
19, 181523, Note_on_c, 15, 50, 0
19, 181530, Note_on_c, 15, 49, 110
19, 181553, Note_on_c, 15, 49, 0
19, 181560, Note_on_c, 15, 50, 110
19, 181583, Note_on_c, 15, 50, 0
19, 181590, Note_on_c, 15, 52, 110
19, 181613, Note_on_c, 15, 52, 0
19, 181620, Note_on_c, 15, 54, 110
19, 181643, Note_on_c, 15, 54, 0
19, 181650, Note_on_c, 15, 55, 110
19, 181673, Note_on_c, 15, 55, 0
19, 181680, Note_on_c, 15, 57, 110
19, 181703, Note_on_c, 15, 57, 0
19, 181710, Note_on_c, 15, 55, 110
19, 181733, Note_on_c, 15, 55, 0
19, 181740, Note_on_c, 15, 57, 110
19, 181763, Note_on_c, 15, 57, 0
19, 181770, Note_on_c, 15, 59, 110
19, 181793, Note_on_c, 15, 59, 0
19, 181800, Note_on_c, 15, 57, 110
19, 181823, Note_on_c, 15, 57, 0
19, 181830, Note_on_c, 15, 55, 110
19, 181853, Note_on_c, 15, 55, 0
19, 181860, Note_on_c, 15, 54, 80
19, 181883, Note_on_c, 15, 54, 0
19, 181890, Note_on_c, 15, 52, 80
19, 181913, Note_on_c, 15, 52, 0
19, 181920, Note_on_c, 15, 50, 80
19, 181967, Note_on_c, 15, 50, 0
19, 181980, Note_on_c, 15, 38, 80
19, 182027, Note_on_c, 15, 38, 0
19, 182460, Note_on_c, 15, 50, 100
19, 182483, Note_on_c, 15, 50, 0
19, 182490, Note_on_c, 15, 49, 100
19, 182513, Note_on_c, 15, 49, 0
19, 182520, Note_on_c, 15, 50, 100
19, 182543, Note_on_c, 15, 50, 0
19, 182550, Note_on_c, 15, 52, 100
19, 182573, Note_on_c, 15, 52, 0
19, 182580, Note_on_c, 15, 54, 100
19, 182603, Note_on_c, 15, 54, 0
19, 182610, Note_on_c, 15, 55, 100
19, 182633, Note_on_c, 15, 55, 0
19, 182640, Note_on_c, 15, 57, 100
19, 182663, Note_on_c, 15, 57, 0
19, 182670, Note_on_c, 15, 56, 100
19, 182693, Note_on_c, 15, 56, 0
19, 182700, Note_on_c, 15, 57, 100
19, 182723, Note_on_c, 15, 57, 0
19, 182730, Note_on_c, 15, 59, 100
19, 182753, Note_on_c, 15, 59, 0
19, 182760, Note_on_c, 15, 57, 80
19, 182783, Note_on_c, 15, 57, 0
19, 182790, Note_on_c, 15, 56, 80
19, 182813, Note_on_c, 15, 56, 0
19, 182820, Note_on_c, 15, 54, 80
19, 182843, Note_on_c, 15, 54, 0
19, 182850, Note_on_c, 15, 52, 80
19, 182873, Note_on_c, 15, 52, 0
19, 182880, Note_on_c, 15, 57, 80
19, 182927, Note_on_c, 15, 57, 0
19, 182940, Note_on_c, 15, 55, 80
19, 182987, Note_on_c, 15, 55, 0
19, 183000, Note_on_c, 15, 54, 80
19, 183047, Note_on_c, 15, 54, 0
19, 183060, Note_on_c, 15, 50, 80
19, 183107, Note_on_c, 15, 50, 0
19, 183120, Note_on_c, 15, 55, 80
19, 183167, Note_on_c, 15, 55, 0
19, 183180, Note_on_c, 15, 54, 80
19, 183227, Note_on_c, 15, 54, 0
19, 183240, Note_on_c, 15, 52, 80
19, 183287, Note_on_c, 15, 52, 0
19, 183300, Note_on_c, 15, 57, 80
19, 183347, Note_on_c, 15, 57, 0
19, 183360, Note_on_c, 15, 59, 80
19, 183407, Note_on_c, 15, 59, 0
19, 183420, Note_on_c, 15, 57, 80
19, 183467, Note_on_c, 15, 57, 0
19, 183480, Note_on_c, 15, 59, 80
19, 183527, Note_on_c, 15, 59, 0
19, 183540, Note_on_c, 15, 55, 80
19, 183587, Note_on_c, 15, 55, 0
19, 183600, Note_on_c, 15, 50, 100
19, 183647, Note_on_c, 15, 50, 0
19, 183660, Note_on_c, 15, 62, 100
19, 183683, Note_on_c, 15, 62, 0
19, 183690, Note_on_c, 15, 61, 100
19, 183713, Note_on_c, 15, 61, 0
19, 183720, Note_on_c, 15, 62, 100
19, 183767, Note_on_c, 15, 62, 0
19, 183780, Note_on_c, 15, 59, 80
19, 183827, Note_on_c, 15, 59, 0
19, 183840, Note_on_c, 15, 49, 80
19, 183887, Note_on_c, 15, 49, 0
19, 183900, Note_on_c, 15, 47, 80
19, 183947, Note_on_c, 15, 47, 0
19, 183960, Note_on_c, 15, 49, 80
19, 184007, Note_on_c, 15, 49, 0
19, 184020, Note_on_c, 15, 47, 80
19, 184067, Note_on_c, 15, 47, 0
19, 184080, Note_on_c, 15, 49, 100
19, 184127, Note_on_c, 15, 49, 0
19, 184140, Note_on_c, 15, 61, 100
19, 184163, Note_on_c, 15, 61, 0
19, 184170, Note_on_c, 15, 59, 100
19, 184193, Note_on_c, 15, 59, 0
19, 184200, Note_on_c, 15, 61, 100
19, 184247, Note_on_c, 15, 61, 0
19, 184260, Note_on_c, 15, 57, 80
19, 184307, Note_on_c, 15, 57, 0
19, 184320, Note_on_c, 15, 47, 80
19, 184367, Note_on_c, 15, 47, 0
19, 184380, Note_on_c, 15, 59, 80
19, 184427, Note_on_c, 15, 59, 0
19, 184440, Note_on_c, 15, 54, 80
19, 184487, Note_on_c, 15, 54, 0
19, 184500, Note_on_c, 15, 50, 80
19, 184547, Note_on_c, 15, 50, 0
19, 184560, Note_on_c, 15, 43, 80
19, 184607, Note_on_c, 15, 43, 0
19, 184620, Note_on_c, 15, 55, 80
19, 184667, Note_on_c, 15, 55, 0
19, 184680, Note_on_c, 15, 50, 80
19, 184727, Note_on_c, 15, 50, 0
19, 184740, Note_on_c, 15, 47, 80
19, 184787, Note_on_c, 15, 47, 0
19, 184800, Note_on_c, 15, 40, 80
19, 184823, Note_on_c, 15, 40, 0
19, 184830, Note_on_c, 15, 42, 80
19, 184853, Note_on_c, 15, 42, 0
19, 184860, Note_on_c, 15, 43, 80
19, 184883, Note_on_c, 15, 43, 0
19, 184890, Note_on_c, 15, 45, 80
19, 184913, Note_on_c, 15, 45, 0
19, 184920, Note_on_c, 15, 47, 80
19, 184943, Note_on_c, 15, 47, 0
19, 184950, Note_on_c, 15, 50, 80
19, 184973, Note_on_c, 15, 50, 0
19, 184980, Note_on_c, 15, 49, 80
19, 185003, Note_on_c, 15, 49, 0
19, 185010, Note_on_c, 15, 47, 80
19, 185033, Note_on_c, 15, 47, 0
19, 185040, Note_on_c, 15, 46, 80
19, 185063, Note_on_c, 15, 46, 0
19, 185070, Note_on_c, 15, 42, 80
19, 185093, Note_on_c, 15, 42, 0
19, 185100, Note_on_c, 15, 46, 80
19, 185123, Note_on_c, 15, 46, 0
19, 185130, Note_on_c, 15, 49, 80
19, 185153, Note_on_c, 15, 49, 0
19, 185160, Note_on_c, 15, 54, 80
19, 185183, Note_on_c, 15, 54, 0
19, 185190, Note_on_c, 15, 52, 80
19, 185213, Note_on_c, 15, 52, 0
19, 185220, Note_on_c, 15, 50, 80
19, 185243, Note_on_c, 15, 50, 0
19, 185250, Note_on_c, 15, 49, 80
19, 185273, Note_on_c, 15, 49, 0
19, 185280, Note_on_c, 15, 47, 80
19, 185327, Note_on_c, 15, 47, 0
19, 185340, Note_on_c, 15, 59, 80
19, 185387, Note_on_c, 15, 59, 0
19, 185820, Note_on_c, 15, 47, 100
19, 185843, Note_on_c, 15, 47, 0
19, 185850, Note_on_c, 15, 46, 100
19, 185873, Note_on_c, 15, 46, 0
19, 185880, Note_on_c, 15, 47, 100
19, 185903, Note_on_c, 15, 47, 0
19, 185910, Note_on_c, 15, 49, 100
19, 185933, Note_on_c, 15, 49, 0
19, 185940, Note_on_c, 15, 50, 100
19, 185963, Note_on_c, 15, 50, 0
19, 185970, Note_on_c, 15, 52, 100
19, 185993, Note_on_c, 15, 52, 0
19, 186000, Note_on_c, 15, 54, 100
19, 186023, Note_on_c, 15, 54, 0
19, 186030, Note_on_c, 15, 52, 100
19, 186053, Note_on_c, 15, 52, 0
19, 186060, Note_on_c, 15, 54, 100
19, 186083, Note_on_c, 15, 54, 0
19, 186090, Note_on_c, 15, 55, 80
19, 186113, Note_on_c, 15, 55, 0
19, 186120, Note_on_c, 15, 54, 80
19, 186143, Note_on_c, 15, 54, 0
19, 186150, Note_on_c, 15, 52, 80
19, 186173, Note_on_c, 15, 52, 0
19, 186180, Note_on_c, 15, 50, 80
19, 186203, Note_on_c, 15, 50, 0
19, 186210, Note_on_c, 15, 49, 80
19, 186233, Note_on_c, 15, 49, 0
19, 186240, Note_on_c, 15, 47, 80
19, 186287, Note_on_c, 15, 47, 0
19, 186300, Note_on_c, 15, 46, 80
19, 186347, Note_on_c, 15, 46, 0
19, 186360, Note_on_c, 15, 47, 80
19, 186407, Note_on_c, 15, 47, 0
19, 186420, Note_on_c, 15, 45, 80
19, 186467, Note_on_c, 15, 45, 0
19, 186480, Note_on_c, 15, 44, 80
19, 186527, Note_on_c, 15, 44, 0
19, 186540, Note_on_c, 15, 56, 80
19, 186563, Note_on_c, 15, 56, 0
19, 186570, Note_on_c, 15, 54, 80
19, 186593, Note_on_c, 15, 54, 0
19, 186600, Note_on_c, 15, 56, 80
19, 186647, Note_on_c, 15, 56, 0
19, 186660, Note_on_c, 15, 52, 80
19, 186707, Note_on_c, 15, 52, 0
19, 186720, Note_on_c, 15, 45, 80
19, 186767, Note_on_c, 15, 45, 0
19, 186780, Note_on_c, 15, 44, 80
19, 186827, Note_on_c, 15, 44, 0
19, 186840, Note_on_c, 15, 45, 80
19, 186887, Note_on_c, 15, 45, 0
19, 186900, Note_on_c, 15, 44, 80
19, 186947, Note_on_c, 15, 44, 0
19, 186960, Note_on_c, 15, 42, 80
19, 187007, Note_on_c, 15, 42, 0
19, 187020, Note_on_c, 15, 54, 80
19, 187043, Note_on_c, 15, 54, 0
19, 187050, Note_on_c, 15, 52, 80
19, 187073, Note_on_c, 15, 52, 0
19, 187080, Note_on_c, 15, 54, 80
19, 187127, Note_on_c, 15, 54, 0
19, 187140, Note_on_c, 15, 49, 80
19, 187187, Note_on_c, 15, 49, 0
19, 187200, Note_on_c, 15, 50, 80
19, 187247, Note_on_c, 15, 50, 0
19, 187260, Note_on_c, 15, 47, 80
19, 187307, Note_on_c, 15, 47, 0
19, 187320, Note_on_c, 15, 52, 80
19, 187367, Note_on_c, 15, 52, 0
19, 187380, Note_on_c, 15, 40, 80
19, 187427, Note_on_c, 15, 40, 0
19, 187440, Note_on_c, 15, 45, 80
19, 187487, Note_on_c, 15, 45, 0
19, 187500, Note_on_c, 15, 57, 80
19, 187547, Note_on_c, 15, 57, 0
19, 187980, Note_on_c, 15, 45, 100
19, 188003, Note_on_c, 15, 45, 0
19, 188010, Note_on_c, 15, 44, 100
19, 188033, Note_on_c, 15, 44, 0
19, 188040, Note_on_c, 15, 45, 100
19, 188063, Note_on_c, 15, 45, 0
19, 188070, Note_on_c, 15, 47, 100
19, 188093, Note_on_c, 15, 47, 0
19, 188100, Note_on_c, 15, 49, 100
19, 188123, Note_on_c, 15, 49, 0
19, 188130, Note_on_c, 15, 50, 100
19, 188153, Note_on_c, 15, 50, 0
19, 188160, Note_on_c, 15, 52, 100
19, 188183, Note_on_c, 15, 52, 0
19, 188190, Note_on_c, 15, 54, 100
19, 188213, Note_on_c, 15, 54, 0
19, 188220, Note_on_c, 15, 56, 100
19, 188243, Note_on_c, 15, 56, 0
19, 188250, Note_on_c, 15, 54, 80
19, 188273, Note_on_c, 15, 54, 0
19, 188280, Note_on_c, 15, 53, 80
19, 188303, Note_on_c, 15, 53, 0
19, 188310, Note_on_c, 15, 51, 80
19, 188333, Note_on_c, 15, 51, 0
19, 188340, Note_on_c, 15, 53, 80
19, 188363, Note_on_c, 15, 53, 0
19, 188370, Note_on_c, 15, 49, 80
19, 188393, Note_on_c, 15, 49, 0
19, 188400, Note_on_c, 15, 54, 80
19, 188447, Note_on_c, 15, 54, 0
19, 188460, Note_on_c, 15, 42, 80
19, 188507, Note_on_c, 15, 42, 0
19, 188940, Note_on_c, 15, 42, 100
19, 188963, Note_on_c, 15, 42, 0
19, 188970, Note_on_c, 15, 40, 100
19, 188993, Note_on_c, 15, 40, 0
19, 189000, Note_on_c, 15, 42, 100
19, 189023, Note_on_c, 15, 42, 0
19, 189030, Note_on_c, 15, 44, 100
19, 189053, Note_on_c, 15, 44, 0
19, 189060, Note_on_c, 15, 46, 100
19, 189083, Note_on_c, 15, 46, 0
19, 189090, Note_on_c, 15, 42, 100
19, 189113, Note_on_c, 15, 42, 0
19, 189120, Note_on_c, 15, 47, 100
19, 189167, Note_on_c, 15, 47, 0
19, 189180, Note_on_c, 15, 59, 100
19, 189227, Note_on_c, 15, 59, 0
19, 189420, Note_on_c, 15, 40, 100
19, 189443, Note_on_c, 15, 40, 0
19, 189450, Note_on_c, 15, 38, 100
19, 189473, Note_on_c, 15, 38, 0
19, 189480, Note_on_c, 15, 40, 100
19, 189503, Note_on_c, 15, 40, 0
19, 189510, Note_on_c, 15, 42, 100
19, 189533, Note_on_c, 15, 42, 0
19, 189540, Note_on_c, 15, 44, 100
19, 189563, Note_on_c, 15, 44, 0
19, 189570, Note_on_c, 15, 40, 100
19, 189593, Note_on_c, 15, 40, 0
19, 189600, Note_on_c, 15, 45, 100
19, 189647, Note_on_c, 15, 45, 0
19, 189660, Note_on_c, 15, 57, 80
19, 189707, Note_on_c, 15, 57, 0
19, 189900, Note_on_c, 15, 38, 80
19, 189923, Note_on_c, 15, 38, 0
19, 189930, Note_on_c, 15, 37, 80
19, 189953, Note_on_c, 15, 37, 0
19, 189960, Note_on_c, 15, 38, 80
19, 189983, Note_on_c, 15, 38, 0
19, 189990, Note_on_c, 15, 40, 80
19, 190013, Note_on_c, 15, 40, 0
19, 190020, Note_on_c, 15, 42, 80
19, 190043, Note_on_c, 15, 42, 0
19, 190050, Note_on_c, 15, 38, 80
19, 190073, Note_on_c, 15, 38, 0
19, 190080, Note_on_c, 15, 40, 80
19, 190127, Note_on_c, 15, 40, 0
19, 190140, Note_on_c, 15, 52, 80
19, 190187, Note_on_c, 15, 52, 0
19, 190200, Note_on_c, 15, 54, 80
19, 190247, Note_on_c, 15, 54, 0
19, 190260, Note_on_c, 15, 55, 80
19, 190307, Note_on_c, 15, 55, 0
19, 190320, Note_on_c, 15, 57, 80
19, 190367, Note_on_c, 15, 57, 0
19, 190380, Note_on_c, 15, 55, 80
19, 190427, Note_on_c, 15, 55, 0
19, 190440, Note_on_c, 15, 57, 80
19, 190487, Note_on_c, 15, 57, 0
19, 190500, Note_on_c, 15, 45, 80
19, 190547, Note_on_c, 15, 45, 0
19, 190560, Note_on_c, 15, 50, 80
19, 190607, Note_on_c, 15, 50, 0
19, 190620, Note_on_c, 15, 38, 80
19, 190667, Note_on_c, 15, 38, 0
19, 191100, Note_on_c, 15, 50, 100
19, 191123, Note_on_c, 15, 50, 0
19, 191130, Note_on_c, 15, 49, 100
19, 191153, Note_on_c, 15, 49, 0
19, 191160, Note_on_c, 15, 50, 100
19, 191183, Note_on_c, 15, 50, 0
19, 191190, Note_on_c, 15, 52, 100
19, 191213, Note_on_c, 15, 52, 0
19, 191220, Note_on_c, 15, 54, 100
19, 191243, Note_on_c, 15, 54, 0
19, 191250, Note_on_c, 15, 55, 100
19, 191273, Note_on_c, 15, 55, 0
19, 191280, Note_on_c, 15, 57, 100
19, 191303, Note_on_c, 15, 57, 0
19, 191310, Note_on_c, 15, 55, 100
19, 191333, Note_on_c, 15, 55, 0
19, 191340, Note_on_c, 15, 57, 100
19, 191363, Note_on_c, 15, 57, 0
19, 191370, Note_on_c, 15, 59, 100
19, 191393, Note_on_c, 15, 59, 0
19, 191400, Note_on_c, 15, 57, 100
19, 191423, Note_on_c, 15, 57, 0
19, 191430, Note_on_c, 15, 55, 100
19, 191453, Note_on_c, 15, 55, 0
19, 191460, Note_on_c, 15, 54, 100
19, 191483, Note_on_c, 15, 54, 0
19, 191490, Note_on_c, 15, 52, 100
19, 191513, Note_on_c, 15, 52, 0
19, 191520, Note_on_c, 15, 50, 100
19, 191567, Note_on_c, 15, 50, 0
19, 191580, Note_on_c, 15, 38, 100
19, 191627, Note_on_c, 15, 38, 0
19, 192060, Note_on_c, 15, 50, 110
19, 192083, Note_on_c, 15, 50, 0
19, 192090, Note_on_c, 15, 49, 110
19, 192113, Note_on_c, 15, 49, 0
19, 192120, Note_on_c, 15, 50, 110
19, 192143, Note_on_c, 15, 50, 0
19, 192150, Note_on_c, 15, 52, 110
19, 192173, Note_on_c, 15, 52, 0
19, 192180, Note_on_c, 15, 54, 110
19, 192203, Note_on_c, 15, 54, 0
19, 192210, Note_on_c, 15, 55, 110
19, 192233, Note_on_c, 15, 55, 0
19, 192240, Note_on_c, 15, 57, 110
19, 192263, Note_on_c, 15, 57, 0
19, 192270, Note_on_c, 15, 55, 110
19, 192293, Note_on_c, 15, 55, 0
19, 192300, Note_on_c, 15, 57, 110
19, 192323, Note_on_c, 15, 57, 0
19, 192330, Note_on_c, 15, 59, 110
19, 192353, Note_on_c, 15, 59, 0
19, 192360, Note_on_c, 15, 57, 110
19, 192383, Note_on_c, 15, 57, 0
19, 192390, Note_on_c, 15, 55, 100
19, 192413, Note_on_c, 15, 55, 0
19, 192420, Note_on_c, 15, 54, 100
19, 192443, Note_on_c, 15, 54, 0
19, 192450, Note_on_c, 15, 52, 100
19, 192473, Note_on_c, 15, 52, 0
19, 192480, Note_on_c, 15, 50, 100
19, 192527, Note_on_c, 15, 50, 0
19, 192540, Note_on_c, 15, 49, 100
19, 192587, Note_on_c, 15, 49, 0
19, 192600, Note_on_c, 15, 50, 100
19, 192647, Note_on_c, 15, 50, 0
19, 192660, Note_on_c, 15, 49, 100
19, 192707, Note_on_c, 15, 49, 0
19, 192720, Note_on_c, 15, 50, 110
19, 192767, Note_on_c, 15, 50, 0
19, 192780, Note_on_c, 15, 62, 110
19, 192803, Note_on_c, 15, 62, 0
19, 192810, Note_on_c, 15, 61, 110
19, 192833, Note_on_c, 15, 61, 0
19, 192840, Note_on_c, 15, 62, 110
19, 192887, Note_on_c, 15, 62, 0
19, 192900, Note_on_c, 15, 59, 100
19, 192947, Note_on_c, 15, 59, 0
19, 192960, Note_on_c, 15, 49, 100
19, 193007, Note_on_c, 15, 49, 0
19, 193020, Note_on_c, 15, 47, 100
19, 193067, Note_on_c, 15, 47, 0
19, 193080, Note_on_c, 15, 49, 100
19, 193127, Note_on_c, 15, 49, 0
19, 193140, Note_on_c, 15, 47, 100
19, 193187, Note_on_c, 15, 47, 0
19, 193200, Note_on_c, 15, 49, 110
19, 193247, Note_on_c, 15, 49, 0
19, 193260, Note_on_c, 15, 61, 110
19, 193283, Note_on_c, 15, 61, 0
19, 193290, Note_on_c, 15, 59, 110
19, 193313, Note_on_c, 15, 59, 0
19, 193320, Note_on_c, 15, 61, 110
19, 193367, Note_on_c, 15, 61, 0
19, 193380, Note_on_c, 15, 57, 100
19, 193427, Note_on_c, 15, 57, 0
19, 193440, Note_on_c, 15, 47, 100
19, 193487, Note_on_c, 15, 47, 0
19, 193500, Note_on_c, 15, 59, 100
19, 193547, Note_on_c, 15, 59, 0
19, 193560, Note_on_c, 15, 57, 100
19, 193607, Note_on_c, 15, 57, 0
19, 193620, Note_on_c, 15, 45, 100
19, 193667, Note_on_c, 15, 45, 0
19, 193680, Note_on_c, 15, 43, 100
19, 193727, Note_on_c, 15, 43, 0
19, 193740, Note_on_c, 15, 55, 100
19, 193787, Note_on_c, 15, 55, 0
19, 193800, Note_on_c, 15, 54, 100
19, 193847, Note_on_c, 15, 54, 0
19, 193860, Note_on_c, 15, 42, 100
19, 193907, Note_on_c, 15, 42, 0
19, 193920, Note_on_c, 15, 40, 100
19, 193943, Note_on_c, 15, 40, 0
19, 193950, Note_on_c, 15, 42, 100
19, 193973, Note_on_c, 15, 42, 0
19, 193980, Note_on_c, 15, 43, 100
19, 194003, Note_on_c, 15, 43, 0
19, 194010, Note_on_c, 15, 45, 100
19, 194033, Note_on_c, 15, 45, 0
19, 194040, Note_on_c, 15, 47, 100
19, 194063, Note_on_c, 15, 47, 0
19, 194070, Note_on_c, 15, 49, 100
19, 194093, Note_on_c, 15, 49, 0
19, 194100, Note_on_c, 15, 50, 100
19, 194123, Note_on_c, 15, 50, 0
19, 194130, Note_on_c, 15, 47, 100
19, 194153, Note_on_c, 15, 47, 0
19, 194160, Note_on_c, 15, 49, 100
19, 194183, Note_on_c, 15, 49, 0
19, 194190, Note_on_c, 15, 45, 100
19, 194213, Note_on_c, 15, 45, 0
19, 194220, Note_on_c, 15, 49, 100
19, 194243, Note_on_c, 15, 49, 0
19, 194250, Note_on_c, 15, 52, 100
19, 194273, Note_on_c, 15, 52, 0
19, 194280, Note_on_c, 15, 57, 100
19, 194327, Note_on_c, 15, 57, 0
19, 194340, Note_on_c, 15, 49, 100
19, 194387, Note_on_c, 15, 49, 0
19, 194400, Note_on_c, 15, 50, 100
19, 194447, Note_on_c, 15, 50, 0
19, 194460, Note_on_c, 15, 47, 100
19, 194507, Note_on_c, 15, 47, 0
19, 194520, Note_on_c, 15, 43, 100
19, 194567, Note_on_c, 15, 43, 0
19, 194580, Note_on_c, 15, 45, 100
19, 194627, Note_on_c, 15, 45, 0
19, 194640, Note_on_c, 15, 47, 100
19, 194687, Note_on_c, 15, 47, 0
19, 194700, Note_on_c, 15, 59, 100
19, 194723, Note_on_c, 15, 59, 0
19, 194730, Note_on_c, 15, 57, 100
19, 194753, Note_on_c, 15, 57, 0
19, 194760, Note_on_c, 15, 59, 100
19, 194807, Note_on_c, 15, 59, 0
19, 194820, Note_on_c, 15, 47, 100
19, 194867, Note_on_c, 15, 47, 0
19, 194880, Note_on_c, 15, 42, 100
19, 194927, Note_on_c, 15, 42, 0
19, 194940, Note_on_c, 15, 54, 100
19, 194963, Note_on_c, 15, 54, 0
19, 194970, Note_on_c, 15, 52, 100
19, 194993, Note_on_c, 15, 52, 0
19, 195000, Note_on_c, 15, 54, 100
19, 195047, Note_on_c, 15, 54, 0
19, 195060, Note_on_c, 15, 50, 100
19, 195107, Note_on_c, 15, 50, 0
19, 195120, Note_on_c, 15, 55, 100
19, 195167, Note_on_c, 15, 55, 0
19, 195180, Note_on_c, 15, 43, 100
19, 195227, Note_on_c, 15, 43, 0
19, 195240, Note_on_c, 15, 42, 100
19, 195287, Note_on_c, 15, 42, 0
19, 195300, Note_on_c, 15, 54, 100
19, 195347, Note_on_c, 15, 54, 0
19, 195360, Note_on_c, 15, 52, 100
19, 195407, Note_on_c, 15, 52, 0
19, 195420, Note_on_c, 15, 40, 100
19, 195467, Note_on_c, 15, 40, 0
19, 195480, Note_on_c, 15, 38, 100
19, 195527, Note_on_c, 15, 38, 0
19, 195540, Note_on_c, 15, 50, 100
19, 195587, Note_on_c, 15, 50, 0
19, 195600, Note_on_c, 15, 49, 100
19, 195623, Note_on_c, 15, 49, 0
19, 195630, Note_on_c, 15, 62, 100
19, 195653, Note_on_c, 15, 62, 0
19, 195660, Note_on_c, 15, 61, 100
19, 195683, Note_on_c, 15, 61, 0
19, 195690, Note_on_c, 15, 59, 100
19, 195713, Note_on_c, 15, 59, 0
19, 195720, Note_on_c, 15, 57, 100
19, 195743, Note_on_c, 15, 57, 0
19, 195750, Note_on_c, 15, 55, 100
19, 195773, Note_on_c, 15, 55, 0
19, 195780, Note_on_c, 15, 54, 100
19, 195803, Note_on_c, 15, 54, 0
19, 195810, Note_on_c, 15, 52, 100
19, 195833, Note_on_c, 15, 52, 0
19, 195840, Note_on_c, 15, 50, 100
19, 195863, Note_on_c, 15, 50, 0
19, 195870, Note_on_c, 15, 49, 100
19, 195893, Note_on_c, 15, 49, 0
19, 195900, Note_on_c, 15, 47, 100
19, 195923, Note_on_c, 15, 47, 0
19, 195930, Note_on_c, 15, 45, 100
19, 195953, Note_on_c, 15, 45, 0
19, 195960, Note_on_c, 15, 43, 100
19, 196007, Note_on_c, 15, 43, 0
19, 196020, Note_on_c, 15, 45, 100
19, 196067, Note_on_c, 15, 45, 0
19, 196080, Note_on_c, 15, 38, 100
19, 196224, Note_on_c, 15, 38, 0
19, 196224, End_track
0, 0, End_of_file
