0, 0, Header, 1, 35, 120
1, 0, Start_track
1, 0, Time_signature, 3, 2, 24, 8
1, 0, Key_signature, 2, "major"
1, 0, Tempo, 666667
1, 0, Marker_t, "Coro"
1, 70560, Time_signature, 4, 2, 24, 8
1, 70560, Tempo, 857143
1, 70560, Marker_t, "Recit Aeolus"
1, 82080, Key_signature, 3, "major"
1, 82080, Tempo, 1000000
1, 82080, Marker_t, "Aria Aeolus"
1, 122880, Key_signature, 2, "major"
1, 122880, Marker_t, "Recit Zephyrus"
1, 126720, Time_signature, 3, 3, 12, 8
1, 126900, Tempo, 1200000
1, 126900, Marker_t, "Aria Zephyrus"
1, 150655, Tempo, 1200000
1, 150710, Tempo, 1212121
1, 150715, Tempo, 1237113
1, 150720, Tempo, 1276596
1, 150725, Tempo, 1304348
1, 150730, Tempo, 1348315
1, 150735, Tempo, 1379310
1, 150740, Tempo, 1411765
1, 150745, Tempo, 1445783
1, 150750, Tempo, 1481481
1, 150755, Tempo, 1500000
1, 150760, Tempo, 1518987
1, 150765, Tempo, 1558442
1, 150770, Tempo, 1578947
1, 150775, Tempo, 1600000
1, 150780, Tempo, 1621622
1, 150785, Tempo, 1643836
1, 150790, Tempo, 1666667
1, 150795, Tempo, 1690141
1, 150800, Tempo, 1714286
1, 150805, Tempo, 1739130
1, 150810, Tempo, 1791045
1, 150820, Tempo, 1846154
1, 150825, Tempo, 1875000
1, 150830, Tempo, 1904762
1, 150835, Tempo, 1967213
1, 150850, Tempo, 2000000
1, 150865, Tempo, 2033898
1, 151200, Time_signature, 4, 2, 24, 8
1, 151200, Tempo, 750000
1, 151200, Marker_t, "Recit Aeolus"
1, 155520, Key_signature, 3, "major"
1, 155520, Tempo, 1000000
1, 155520, Marker_t, "Aria Pomona"
1, 180000, Key_signature, 2, "major"
1, 180000, Marker_t, "Recit Pallas & Pomona"
1, 185280, Time_signature, 2, 2, 24, 8
1, 185520, Time_signature, 12, 3, 12, 8
1, 185520, Marker_t, "Aria Pallas"
1, 221520, Time_signature, 4, 2, 24, 8
1, 221520, Marker_t, "Recit Pallas & Aeolus"
1, 235440, Time_signature, 3, 3, 12, 8
1, 235440, Tempo, 857143
1, 235440, Marker_t, "Aria Aeolus"
1, 271980, Time_signature, 4, 2, 24, 8
1, 271980, Marker_t, "Recit Pallas, Pomona & Zephyrus"
1, 285420, Time_signature, 3, 2, 24, 8
1, 285420, Key_signature, 1, "major"
1, 285420, Tempo, 800000
1, 285420, Marker_t, "Duetto Pomona & Zephyrus"
1, 316020, Time_signature, 4, 2, 24, 8
1, 316020, Marker_t, "Recit Pallas"
1, 320820, Time_signature, 2, 2, 24, 8
1, 320820, Key_signature, 2, "major"
1, 321060, Time_signature, 4, 2, 24, 8
1, 321060, Tempo, 300000
1, 321060, Marker_t, "Chor"
1, 363216, Tempo, 300000
1, 363220, Tempo, 301508
1, 363222, Tempo, 303030
1, 363224, Tempo, 304569
1, 363226, Tempo, 306122
1, 363232, Tempo, 307692
1, 363236, Tempo, 309278
1, 363240, Tempo, 310881
1, 363244, Tempo, 312500
1, 363246, Tempo, 314136
1, 363248, Tempo, 315789
1, 363252, Tempo, 317460
1, 363256, Tempo, 319149
1, 363258, Tempo, 320856
1, 363262, Tempo, 322581
1, 363266, Tempo, 324324
1, 363270, Tempo, 326087
1, 363274, Tempo, 327869
1, 363280, Tempo, 329670
1, 363286, Tempo, 331492
1, 363292, Tempo, 333333
1, 363298, Tempo, 335196
1, 363304, Tempo, 337079
1, 363312, Tempo, 338983
1, 363320, Tempo, 340909
1, 363328, Tempo, 342857
1, 363334, Tempo, 344828
1, 363344, Tempo, 346821
1, 364018, Tempo, 300000
1, 384420, Tempo, 298507
1, 384430, Tempo, 300000
1, 384438, Tempo, 301508
1, 384446, Tempo, 303030
1, 384456, Tempo, 304569
1, 384464, Tempo, 306122
1, 384472, Tempo, 307692
1, 384482, Tempo, 309278
1, 384490, Tempo, 310881
1, 384498, Tempo, 312500
1, 384508, Tempo, 314136
1, 384516, Tempo, 315789
1, 384524, Tempo, 317460
1, 384534, Tempo, 319149
1, 384542, Tempo, 320856
1, 384550, Tempo, 322581
1, 384560, Tempo, 324324
1, 384568, Tempo, 326087
1, 384576, Tempo, 327869
1, 384586, Tempo, 329670
1, 384594, Tempo, 331492
1, 384602, Tempo, 333333
1, 384612, Tempo, 335196
1, 384620, Tempo, 337079
1, 384628, Tempo, 338983
1, 384638, Tempo, 340909
1, 384646, Tempo, 342857
1, 384654, Tempo, 344828
1, 384664, Tempo, 346821
1, 384672, Tempo, 348837
1, 384680, Tempo, 350877
1, 384690, Tempo, 352941
1, 384698, Tempo, 355030
1, 384706, Tempo, 357143
1, 384716, Tempo, 359281
1, 384724, Tempo, 361446
1, 384732, Tempo, 363636
1, 384742, Tempo, 365854
1, 384750, Tempo, 368098
1, 384758, Tempo, 370370
1, 384766, Tempo, 372671
1, 384776, Tempo, 375000
1, 384784, Tempo, 377358
1, 384792, Tempo, 379747
1, 384802, Tempo, 382166
1, 384810, Tempo, 384615
1, 384818, Tempo, 387097
1, 384828, Tempo, 389610
1, 384836, Tempo, 392157
1, 384844, Tempo, 394737
1, 384854, Tempo, 397351
1, 384862, Tempo, 400000
1, 384870, Tempo, 402685
1, 384880, Tempo, 405405
1, 384888, Tempo, 408163
1, 384896, Tempo, 410959
1, 384906, Tempo, 413793
1, 384914, Tempo, 416667
1, 384922, Tempo, 419580
1, 384932, Tempo, 422535
1, 384940, Tempo, 425532
1, 384948, Tempo, 428571
1, 384958, Tempo, 431655
1, 384966, Tempo, 434783
1, 384974, Tempo, 437956
1, 384984, Tempo, 441176
1, 384992, Tempo, 444444
1, 385000, Tempo, 447761
1, 385010, Tempo, 451128
1, 385018, Tempo, 454545
1, 385026, Tempo, 458015
1, 385036, Tempo, 461538
1, 385044, Tempo, 465116
1, 385052, Tempo, 468750
1, 385062, Tempo, 472441
1, 385070, Tempo, 476190
1, 385078, Tempo, 480000
1, 385088, Tempo, 483871
1, 385096, Tempo, 487805
1, 385104, Tempo, 491803
1, 385112, Tempo, 495868
1, 385112, End_track
2, 0, Start_track
2, 0, MIDI_port, 0
2, 0, Title_t, "tromp i"
2, 0, Program_c, 0, 56
2, 0, Note_on_c, 0, 74, 80
2, 60, Note_on_c, 0, 74, 0
2, 60, Note_on_c, 0, 69, 80
2, 120, Note_on_c, 0, 69, 0
2, 360, Note_on_c, 0, 78, 80
2, 420, Note_on_c, 0, 78, 0
2, 420, Note_on_c, 0, 74, 80
2, 480, Note_on_c, 0, 74, 0
2, 720, Note_on_c, 0, 81, 80
2, 780, Note_on_c, 0, 81, 0
2, 780, Note_on_c, 0, 78, 80
2, 840, Note_on_c, 0, 78, 0
2, 1080, Note_on_c, 0, 86, 80
2, 1140, Note_on_c, 0, 86, 0
2, 1140, Note_on_c, 0, 81, 80
2, 1200, Note_on_c, 0, 81, 0
2, 1500, Note_on_c, 0, 81, 80
2, 1559, Note_on_c, 0, 81, 0
2, 1560, Note_on_c, 0, 81, 80
2, 1619, Note_on_c, 0, 81, 0
2, 1620, Note_on_c, 0, 81, 80
2, 1679, Note_on_c, 0, 81, 0
2, 1680, Note_on_c, 0, 81, 80
2, 1739, Note_on_c, 0, 81, 0
2, 1740, Note_on_c, 0, 83, 80
2, 1769, Note_on_c, 0, 83, 0
2, 1770, Note_on_c, 0, 85, 80
2, 1799, Note_on_c, 0, 85, 0
2, 1800, Note_on_c, 0, 86, 80
2, 1859, Note_on_c, 0, 86, 0
2, 1860, Note_on_c, 0, 78, 80
2, 1919, Note_on_c, 0, 78, 0
2, 1920, Note_on_c, 0, 78, 80
2, 1979, Note_on_c, 0, 78, 0
2, 1980, Note_on_c, 0, 78, 80
2, 2039, Note_on_c, 0, 78, 0
2, 2040, Note_on_c, 0, 78, 80
2, 2099, Note_on_c, 0, 78, 0
2, 2100, Note_on_c, 0, 80, 80
2, 2129, Note_on_c, 0, 80, 0
2, 2130, Note_on_c, 0, 81, 80
2, 2159, Note_on_c, 0, 81, 0
2, 2160, Note_on_c, 0, 83, 80
2, 2219, Note_on_c, 0, 83, 0
2, 2220, Note_on_c, 0, 76, 80
2, 2279, Note_on_c, 0, 76, 0
2, 2280, Note_on_c, 0, 76, 80
2, 2339, Note_on_c, 0, 76, 0
2, 2340, Note_on_c, 0, 76, 80
2, 2399, Note_on_c, 0, 76, 0
2, 2400, Note_on_c, 0, 76, 80
2, 2459, Note_on_c, 0, 76, 0
2, 2460, Note_on_c, 0, 78, 80
2, 2489, Note_on_c, 0, 78, 0
2, 2490, Note_on_c, 0, 80, 80
2, 2519, Note_on_c, 0, 80, 0
2, 2520, Note_on_c, 0, 81, 80
2, 2549, Note_on_c, 0, 81, 0
2, 2550, Note_on_c, 0, 80, 80
2, 2579, Note_on_c, 0, 80, 0
2, 2580, Note_on_c, 0, 81, 80
2, 2609, Note_on_c, 0, 81, 0
2, 2610, Note_on_c, 0, 83, 80
2, 2639, Note_on_c, 0, 83, 0
2, 2640, Note_on_c, 0, 85, 80
2, 2669, Note_on_c, 0, 85, 0
2, 2670, Note_on_c, 0, 83, 80
2, 2699, Note_on_c, 0, 83, 0
2, 2700, Note_on_c, 0, 81, 80
2, 2729, Note_on_c, 0, 81, 0
2, 2730, Note_on_c, 0, 83, 80
2, 2759, Note_on_c, 0, 83, 0
2, 2760, Note_on_c, 0, 83, 80
2, 2849, Note_on_c, 0, 83, 0
2, 2850, Note_on_c, 0, 85, 80
2, 2879, Note_on_c, 0, 85, 0
2, 2880, Note_on_c, 0, 85, 80
2, 2999, Note_on_c, 0, 85, 0
2, 5070, Note_on_c, 0, 74, 80
2, 5099, Note_on_c, 0, 74, 0
2, 5100, Note_on_c, 0, 76, 80
2, 5129, Note_on_c, 0, 76, 0
2, 5130, Note_on_c, 0, 78, 80
2, 5159, Note_on_c, 0, 78, 0
2, 5160, Note_on_c, 0, 79, 80
2, 5189, Note_on_c, 0, 79, 0
2, 5190, Note_on_c, 0, 81, 80
2, 5219, Note_on_c, 0, 81, 0
2, 5220, Note_on_c, 0, 83, 80
2, 5249, Note_on_c, 0, 83, 0
2, 5250, Note_on_c, 0, 85, 80
2, 5279, Note_on_c, 0, 85, 0
2, 5280, Note_on_c, 0, 86, 80
2, 5309, Note_on_c, 0, 86, 0
2, 5310, Note_on_c, 0, 85, 80
2, 5339, Note_on_c, 0, 85, 0
2, 5340, Note_on_c, 0, 86, 80
2, 5369, Note_on_c, 0, 86, 0
2, 5370, Note_on_c, 0, 85, 80
2, 5399, Note_on_c, 0, 85, 0
2, 5400, Note_on_c, 0, 83, 80
2, 5459, Note_on_c, 0, 83, 0
2, 5460, Note_on_c, 0, 79, 80
2, 5519, Note_on_c, 0, 79, 0
2, 5520, Note_on_c, 0, 79, 80
2, 5579, Note_on_c, 0, 79, 0
2, 5580, Note_on_c, 0, 83, 80
2, 5639, Note_on_c, 0, 83, 0
2, 5640, Note_on_c, 0, 83, 80
2, 5699, Note_on_c, 0, 83, 0
2, 5700, Note_on_c, 0, 81, 80
2, 5729, Note_on_c, 0, 81, 0
2, 5730, Note_on_c, 0, 79, 80
2, 5759, Note_on_c, 0, 79, 0
2, 5760, Note_on_c, 0, 81, 80
2, 5819, Note_on_c, 0, 81, 0
2, 5820, Note_on_c, 0, 78, 80
2, 5879, Note_on_c, 0, 78, 0
2, 5880, Note_on_c, 0, 78, 80
2, 5939, Note_on_c, 0, 78, 0
2, 5940, Note_on_c, 0, 81, 80
2, 5999, Note_on_c, 0, 81, 0
2, 6000, Note_on_c, 0, 81, 80
2, 6059, Note_on_c, 0, 81, 0
2, 6060, Note_on_c, 0, 79, 80
2, 6089, Note_on_c, 0, 79, 0
2, 6090, Note_on_c, 0, 78, 80
2, 6119, Note_on_c, 0, 78, 0
2, 6120, Note_on_c, 0, 79, 80
2, 6179, Note_on_c, 0, 79, 0
2, 6180, Note_on_c, 0, 76, 80
2, 6239, Note_on_c, 0, 76, 0
2, 6240, Note_on_c, 0, 76, 80
2, 6299, Note_on_c, 0, 76, 0
2, 6300, Note_on_c, 0, 79, 80
2, 6359, Note_on_c, 0, 79, 0
2, 6360, Note_on_c, 0, 79, 80
2, 6419, Note_on_c, 0, 79, 0
2, 6420, Note_on_c, 0, 78, 80
2, 6449, Note_on_c, 0, 78, 0
2, 6450, Note_on_c, 0, 76, 80
2, 6479, Note_on_c, 0, 76, 0
2, 6480, Note_on_c, 0, 78, 80
2, 6539, Note_on_c, 0, 78, 0
2, 6540, Note_on_c, 0, 78, 80
2, 6599, Note_on_c, 0, 78, 0
2, 6600, Note_on_c, 0, 78, 80
2, 6659, Note_on_c, 0, 78, 0
2, 6660, Note_on_c, 0, 78, 80
2, 6719, Note_on_c, 0, 78, 0
2, 6720, Note_on_c, 0, 78, 80
2, 6779, Note_on_c, 0, 78, 0
2, 6780, Note_on_c, 0, 78, 80
2, 6839, Note_on_c, 0, 78, 0
2, 6900, Note_on_c, 0, 77, 80
2, 6959, Note_on_c, 0, 77, 0
2, 6960, Note_on_c, 0, 77, 80
2, 7019, Note_on_c, 0, 77, 0
2, 7020, Note_on_c, 0, 77, 80
2, 7079, Note_on_c, 0, 77, 0
2, 7080, Note_on_c, 0, 77, 80
2, 7139, Note_on_c, 0, 77, 0
2, 7140, Note_on_c, 0, 77, 80
2, 7199, Note_on_c, 0, 77, 0
2, 7260, Note_on_c, 0, 76, 80
2, 7319, Note_on_c, 0, 76, 0
2, 7320, Note_on_c, 0, 76, 80
2, 7379, Note_on_c, 0, 76, 0
2, 7380, Note_on_c, 0, 76, 80
2, 7439, Note_on_c, 0, 76, 0
2, 7440, Note_on_c, 0, 76, 80
2, 7499, Note_on_c, 0, 76, 0
2, 7500, Note_on_c, 0, 76, 80
2, 7559, Note_on_c, 0, 76, 0
2, 7560, Note_on_c, 0, 85, 80
2, 7619, Note_on_c, 0, 85, 0
2, 7620, Note_on_c, 0, 81, 80
2, 7679, Note_on_c, 0, 81, 0
2, 7920, Note_on_c, 0, 86, 80
2, 7979, Note_on_c, 0, 86, 0
2, 7980, Note_on_c, 0, 81, 80
2, 8039, Note_on_c, 0, 81, 0
2, 8280, Note_on_c, 0, 85, 80
2, 8339, Note_on_c, 0, 85, 0
2, 8340, Note_on_c, 0, 81, 80
2, 8399, Note_on_c, 0, 81, 0
2, 8700, Note_on_c, 0, 81, 80
2, 8759, Note_on_c, 0, 81, 0
2, 8760, Note_on_c, 0, 81, 80
2, 8819, Note_on_c, 0, 81, 0
2, 8820, Note_on_c, 0, 81, 80
2, 8879, Note_on_c, 0, 81, 0
2, 8880, Note_on_c, 0, 81, 80
2, 8939, Note_on_c, 0, 81, 0
2, 8940, Note_on_c, 0, 83, 80
2, 8969, Note_on_c, 0, 83, 0
2, 8970, Note_on_c, 0, 85, 80
2, 8999, Note_on_c, 0, 85, 0
2, 9000, Note_on_c, 0, 86, 80
2, 9059, Note_on_c, 0, 86, 0
2, 9060, Note_on_c, 0, 78, 80
2, 9119, Note_on_c, 0, 78, 0
2, 9120, Note_on_c, 0, 78, 80
2, 9179, Note_on_c, 0, 78, 0
2, 9180, Note_on_c, 0, 78, 80
2, 9239, Note_on_c, 0, 78, 0
2, 9240, Note_on_c, 0, 78, 80
2, 9299, Note_on_c, 0, 78, 0
2, 9300, Note_on_c, 0, 79, 80
2, 9329, Note_on_c, 0, 79, 0
2, 9330, Note_on_c, 0, 81, 80
2, 9359, Note_on_c, 0, 81, 0
2, 9360, Note_on_c, 0, 83, 80
2, 9389, Note_on_c, 0, 83, 0
2, 9390, Note_on_c, 0, 81, 80
2, 9419, Note_on_c, 0, 81, 0
2, 9420, Note_on_c, 0, 83, 80
2, 9449, Note_on_c, 0, 83, 0
2, 9450, Note_on_c, 0, 81, 80
2, 9479, Note_on_c, 0, 81, 0
2, 9480, Note_on_c, 0, 79, 80
2, 9509, Note_on_c, 0, 79, 0
2, 9510, Note_on_c, 0, 78, 80
2, 9539, Note_on_c, 0, 78, 0
2, 9540, Note_on_c, 0, 79, 80
2, 9569, Note_on_c, 0, 79, 0
2, 9570, Note_on_c, 0, 78, 80
2, 9599, Note_on_c, 0, 78, 0
2, 9600, Note_on_c, 0, 76, 80
2, 9629, Note_on_c, 0, 76, 0
2, 9630, Note_on_c, 0, 74, 80
2, 9659, Note_on_c, 0, 74, 0
2, 9660, Note_on_c, 0, 76, 80
2, 9689, Note_on_c, 0, 76, 0
2, 9690, Note_on_c, 0, 74, 80
2, 9719, Note_on_c, 0, 74, 0
2, 9720, Note_on_c, 0, 79, 80
2, 9779, Note_on_c, 0, 79, 0
2, 9780, Note_on_c, 0, 81, 80
2, 9809, Note_on_c, 0, 81, 0
2, 9810, Note_on_c, 0, 79, 80
2, 9839, Note_on_c, 0, 79, 0
2, 9840, Note_on_c, 0, 78, 80
2, 9869, Note_on_c, 0, 78, 0
2, 9870, Note_on_c, 0, 76, 80
2, 9899, Note_on_c, 0, 76, 0
2, 9900, Note_on_c, 0, 74, 80
2, 9929, Note_on_c, 0, 74, 0
2, 9930, Note_on_c, 0, 76, 80
2, 9959, Note_on_c, 0, 76, 0
2, 9960, Note_on_c, 0, 76, 80
2, 10049, Note_on_c, 0, 76, 0
2, 10050, Note_on_c, 0, 74, 80
2, 10079, Note_on_c, 0, 74, 0
2, 10080, Note_on_c, 0, 74, 80
2, 10139, Note_on_c, 0, 74, 0
2, 10140, Note_on_c, 0, 69, 80
2, 10199, Note_on_c, 0, 69, 0
2, 10440, Note_on_c, 0, 86, 80
2, 10499, Note_on_c, 0, 86, 0
2, 10500, Note_on_c, 0, 83, 80
2, 10559, Note_on_c, 0, 83, 0
2, 10800, Note_on_c, 0, 69, 80
2, 10859, Note_on_c, 0, 69, 0
2, 10860, Note_on_c, 0, 66, 80
2, 10919, Note_on_c, 0, 66, 0
2, 11160, Note_on_c, 0, 83, 80
2, 11219, Note_on_c, 0, 83, 0
2, 11220, Note_on_c, 0, 79, 80
2, 11279, Note_on_c, 0, 79, 0
2, 11580, Note_on_c, 0, 81, 80
2, 11639, Note_on_c, 0, 81, 0
2, 11640, Note_on_c, 0, 81, 80
2, 11699, Note_on_c, 0, 81, 0
2, 11700, Note_on_c, 0, 81, 80
2, 11759, Note_on_c, 0, 81, 0
2, 11760, Note_on_c, 0, 81, 80
2, 11819, Note_on_c, 0, 81, 0
2, 11820, Note_on_c, 0, 81, 80
2, 11849, Note_on_c, 0, 81, 0
2, 11850, Note_on_c, 0, 83, 80
2, 11879, Note_on_c, 0, 83, 0
2, 11880, Note_on_c, 0, 85, 80
2, 11939, Note_on_c, 0, 85, 0
2, 11940, Note_on_c, 0, 81, 80
2, 11999, Note_on_c, 0, 81, 0
2, 12240, Note_on_c, 0, 86, 80
2, 12299, Note_on_c, 0, 86, 0
2, 12300, Note_on_c, 0, 81, 80
2, 12359, Note_on_c, 0, 81, 0
2, 12600, Note_on_c, 0, 85, 80
2, 12659, Note_on_c, 0, 85, 0
2, 12660, Note_on_c, 0, 81, 80
2, 12719, Note_on_c, 0, 81, 0
2, 13020, Note_on_c, 0, 81, 80
2, 13079, Note_on_c, 0, 81, 0
2, 13080, Note_on_c, 0, 81, 80
2, 13139, Note_on_c, 0, 81, 0
2, 13140, Note_on_c, 0, 81, 80
2, 13199, Note_on_c, 0, 81, 0
2, 13200, Note_on_c, 0, 81, 80
2, 13259, Note_on_c, 0, 81, 0
2, 13260, Note_on_c, 0, 83, 80
2, 13289, Note_on_c, 0, 83, 0
2, 13290, Note_on_c, 0, 85, 80
2, 13319, Note_on_c, 0, 85, 0
2, 13320, Note_on_c, 0, 86, 80
2, 13379, Note_on_c, 0, 86, 0
2, 13380, Note_on_c, 0, 78, 80
2, 13439, Note_on_c, 0, 78, 0
2, 13440, Note_on_c, 0, 78, 80
2, 13499, Note_on_c, 0, 78, 0
2, 13500, Note_on_c, 0, 78, 80
2, 13559, Note_on_c, 0, 78, 0
2, 13560, Note_on_c, 0, 78, 80
2, 13619, Note_on_c, 0, 78, 0
2, 13620, Note_on_c, 0, 79, 80
2, 13649, Note_on_c, 0, 79, 0
2, 13650, Note_on_c, 0, 81, 80
2, 13679, Note_on_c, 0, 81, 0
2, 13680, Note_on_c, 0, 83, 80
2, 13709, Note_on_c, 0, 83, 0
2, 13710, Note_on_c, 0, 81, 80
2, 13739, Note_on_c, 0, 81, 0
2, 13740, Note_on_c, 0, 83, 80
2, 13769, Note_on_c, 0, 83, 0
2, 13770, Note_on_c, 0, 81, 80
2, 13799, Note_on_c, 0, 81, 0
2, 13800, Note_on_c, 0, 79, 80
2, 13829, Note_on_c, 0, 79, 0
2, 13830, Note_on_c, 0, 78, 80
2, 13859, Note_on_c, 0, 78, 0
2, 13860, Note_on_c, 0, 79, 80
2, 13889, Note_on_c, 0, 79, 0
2, 13890, Note_on_c, 0, 78, 80
2, 13919, Note_on_c, 0, 78, 0
2, 13920, Note_on_c, 0, 76, 80
2, 13949, Note_on_c, 0, 76, 0
2, 13950, Note_on_c, 0, 74, 80
2, 13979, Note_on_c, 0, 74, 0
2, 13980, Note_on_c, 0, 76, 80
2, 14009, Note_on_c, 0, 76, 0
2, 14010, Note_on_c, 0, 74, 80
2, 14039, Note_on_c, 0, 74, 0
2, 14040, Note_on_c, 0, 79, 80
2, 14099, Note_on_c, 0, 79, 0
2, 14100, Note_on_c, 0, 81, 80
2, 14129, Note_on_c, 0, 81, 0
2, 14130, Note_on_c, 0, 79, 80
2, 14159, Note_on_c, 0, 79, 0
2, 14160, Note_on_c, 0, 78, 80
2, 14189, Note_on_c, 0, 78, 0
2, 14190, Note_on_c, 0, 76, 80
2, 14219, Note_on_c, 0, 76, 0
2, 14220, Note_on_c, 0, 74, 80
2, 14249, Note_on_c, 0, 74, 0
2, 14250, Note_on_c, 0, 76, 80
2, 14279, Note_on_c, 0, 76, 0
2, 14280, Note_on_c, 0, 76, 80
2, 14369, Note_on_c, 0, 76, 0
2, 14370, Note_on_c, 0, 74, 80
2, 14399, Note_on_c, 0, 74, 0
2, 14400, Note_on_c, 0, 74, 80
2, 14459, Note_on_c, 0, 74, 0
2, 14520, Note_on_c, 0, 69, 80
2, 14579, Note_on_c, 0, 69, 0
2, 14580, Note_on_c, 0, 66, 80
2, 14639, Note_on_c, 0, 66, 0
2, 14880, Note_on_c, 0, 74, 80
2, 14939, Note_on_c, 0, 74, 0
2, 14940, Note_on_c, 0, 69, 80
2, 14999, Note_on_c, 0, 69, 0
2, 15240, Note_on_c, 0, 78, 80
2, 15299, Note_on_c, 0, 78, 0
2, 15300, Note_on_c, 0, 74, 80
2, 15359, Note_on_c, 0, 74, 0
2, 15540, Note_on_c, 0, 69, 80
2, 15599, Note_on_c, 0, 69, 0
2, 15600, Note_on_c, 0, 69, 80
2, 15659, Note_on_c, 0, 69, 0
2, 15660, Note_on_c, 0, 74, 80
2, 15719, Note_on_c, 0, 74, 0
2, 15720, Note_on_c, 0, 74, 80
2, 15779, Note_on_c, 0, 74, 0
2, 15780, Note_on_c, 0, 78, 80
2, 15839, Note_on_c, 0, 78, 0
2, 15840, Note_on_c, 0, 78, 80
2, 15899, Note_on_c, 0, 78, 0
2, 15900, Note_on_c, 0, 81, 80
2, 15959, Note_on_c, 0, 81, 0
2, 15960, Note_on_c, 0, 81, 80
2, 16019, Note_on_c, 0, 81, 0
2, 16020, Note_on_c, 0, 81, 80
2, 16079, Note_on_c, 0, 81, 0
2, 16080, Note_on_c, 0, 81, 80
2, 16139, Note_on_c, 0, 81, 0
2, 16140, Note_on_c, 0, 83, 80
2, 16169, Note_on_c, 0, 83, 0
2, 16170, Note_on_c, 0, 85, 80
2, 16199, Note_on_c, 0, 85, 0
2, 16200, Note_on_c, 0, 86, 80
2, 16259, Note_on_c, 0, 86, 0
2, 16260, Note_on_c, 0, 78, 80
2, 16319, Note_on_c, 0, 78, 0
2, 16320, Note_on_c, 0, 78, 80
2, 16379, Note_on_c, 0, 78, 0
2, 16380, Note_on_c, 0, 78, 80
2, 16439, Note_on_c, 0, 78, 0
2, 16440, Note_on_c, 0, 78, 80
2, 16499, Note_on_c, 0, 78, 0
2, 16500, Note_on_c, 0, 80, 80
2, 16529, Note_on_c, 0, 80, 0
2, 16530, Note_on_c, 0, 81, 80
2, 16559, Note_on_c, 0, 81, 0
2, 16560, Note_on_c, 0, 83, 80
2, 16619, Note_on_c, 0, 83, 0
2, 16620, Note_on_c, 0, 76, 80
2, 16679, Note_on_c, 0, 76, 0
2, 16680, Note_on_c, 0, 76, 80
2, 16739, Note_on_c, 0, 76, 0
2, 16740, Note_on_c, 0, 76, 80
2, 16799, Note_on_c, 0, 76, 0
2, 16800, Note_on_c, 0, 76, 80
2, 16859, Note_on_c, 0, 76, 0
2, 16860, Note_on_c, 0, 78, 80
2, 16889, Note_on_c, 0, 78, 0
2, 16890, Note_on_c, 0, 80, 80
2, 16919, Note_on_c, 0, 80, 0
2, 16920, Note_on_c, 0, 81, 80
2, 16949, Note_on_c, 0, 81, 0
2, 16950, Note_on_c, 0, 80, 80
2, 16979, Note_on_c, 0, 80, 0
2, 16980, Note_on_c, 0, 81, 80
2, 17009, Note_on_c, 0, 81, 0
2, 17010, Note_on_c, 0, 83, 80
2, 17039, Note_on_c, 0, 83, 0
2, 17040, Note_on_c, 0, 85, 80
2, 17069, Note_on_c, 0, 85, 0
2, 17070, Note_on_c, 0, 83, 80
2, 17099, Note_on_c, 0, 83, 0
2, 17100, Note_on_c, 0, 81, 80
2, 17129, Note_on_c, 0, 81, 0
2, 17130, Note_on_c, 0, 83, 80
2, 17159, Note_on_c, 0, 83, 0
2, 17160, Note_on_c, 0, 83, 80
2, 17249, Note_on_c, 0, 83, 0
2, 17250, Note_on_c, 0, 85, 80
2, 17279, Note_on_c, 0, 85, 0
2, 17280, Note_on_c, 0, 85, 80
2, 17339, Note_on_c, 0, 85, 0
2, 17340, Note_on_c, 0, 85, 80
2, 17399, Note_on_c, 0, 85, 0
2, 17400, Note_on_c, 0, 85, 80
2, 17459, Note_on_c, 0, 85, 0
2, 17460, Note_on_c, 0, 85, 80
2, 17519, Note_on_c, 0, 85, 0
2, 17520, Note_on_c, 0, 85, 80
2, 17579, Note_on_c, 0, 85, 0
2, 17580, Note_on_c, 0, 85, 80
2, 17639, Note_on_c, 0, 85, 0
2, 17700, Note_on_c, 0, 84, 80
2, 17759, Note_on_c, 0, 84, 0
2, 17760, Note_on_c, 0, 84, 80
2, 17819, Note_on_c, 0, 84, 0
2, 17820, Note_on_c, 0, 84, 80
2, 17879, Note_on_c, 0, 84, 0
2, 17880, Note_on_c, 0, 84, 80
2, 17939, Note_on_c, 0, 84, 0
2, 17940, Note_on_c, 0, 84, 80
2, 17999, Note_on_c, 0, 84, 0
2, 18060, Note_on_c, 0, 83, 80
2, 18119, Note_on_c, 0, 83, 0
2, 18120, Note_on_c, 0, 83, 80
2, 18179, Note_on_c, 0, 83, 0
2, 18180, Note_on_c, 0, 83, 80
2, 18239, Note_on_c, 0, 83, 0
2, 18240, Note_on_c, 0, 83, 80
2, 18299, Note_on_c, 0, 83, 0
2, 18300, Note_on_c, 0, 83, 80
2, 18359, Note_on_c, 0, 83, 0
2, 18360, Note_on_c, 0, 83, 80
2, 18419, Note_on_c, 0, 83, 0
2, 18420, Note_on_c, 0, 80, 80
2, 18479, Note_on_c, 0, 80, 0
2, 18720, Note_on_c, 0, 85, 80
2, 18779, Note_on_c, 0, 85, 0
2, 18780, Note_on_c, 0, 81, 80
2, 18839, Note_on_c, 0, 81, 0
2, 19080, Note_on_c, 0, 83, 80
2, 19139, Note_on_c, 0, 83, 0
2, 19140, Note_on_c, 0, 80, 80
2, 19199, Note_on_c, 0, 80, 0
2, 19500, Note_on_c, 0, 85, 80
2, 19559, Note_on_c, 0, 85, 0
2, 19560, Note_on_c, 0, 85, 80
2, 19619, Note_on_c, 0, 85, 0
2, 19620, Note_on_c, 0, 85, 80
2, 19679, Note_on_c, 0, 85, 0
2, 19680, Note_on_c, 0, 85, 80
2, 19739, Note_on_c, 0, 85, 0
2, 19860, Note_on_c, 0, 85, 80
2, 19919, Note_on_c, 0, 85, 0
2, 19920, Note_on_c, 0, 85, 80
2, 19979, Note_on_c, 0, 85, 0
2, 19980, Note_on_c, 0, 85, 80
2, 20039, Note_on_c, 0, 85, 0
2, 20040, Note_on_c, 0, 85, 80
2, 20099, Note_on_c, 0, 85, 0
2, 20220, Note_on_c, 0, 81, 80
2, 20279, Note_on_c, 0, 81, 0
2, 20280, Note_on_c, 0, 83, 80
2, 20309, Note_on_c, 0, 83, 0
2, 20310, Note_on_c, 0, 85, 80
2, 20339, Note_on_c, 0, 85, 0
2, 20340, Note_on_c, 0, 83, 80
2, 20369, Note_on_c, 0, 83, 0
2, 20370, Note_on_c, 0, 85, 80
2, 20399, Note_on_c, 0, 85, 0
2, 20400, Note_on_c, 0, 86, 80
2, 20429, Note_on_c, 0, 86, 0
2, 20430, Note_on_c, 0, 88, 80
2, 20459, Note_on_c, 0, 88, 0
2, 20460, Note_on_c, 0, 85, 80
2, 20489, Note_on_c, 0, 85, 0
2, 20490, Note_on_c, 0, 86, 80
2, 20519, Note_on_c, 0, 86, 0
2, 20520, Note_on_c, 0, 88, 80
2, 20549, Note_on_c, 0, 88, 0
2, 20550, Note_on_c, 0, 86, 80
2, 20579, Note_on_c, 0, 86, 0
2, 20580, Note_on_c, 0, 85, 80
2, 20609, Note_on_c, 0, 85, 0
2, 20610, Note_on_c, 0, 83, 80
2, 20639, Note_on_c, 0, 83, 0
2, 20640, Note_on_c, 0, 81, 80
2, 20669, Note_on_c, 0, 81, 0
2, 20670, Note_on_c, 0, 80, 80
2, 20699, Note_on_c, 0, 80, 0
2, 20700, Note_on_c, 0, 81, 80
2, 20729, Note_on_c, 0, 81, 0
2, 20730, Note_on_c, 0, 78, 80
2, 20759, Note_on_c, 0, 78, 0
2, 20760, Note_on_c, 0, 80, 80
2, 20849, Note_on_c, 0, 80, 0
2, 20850, Note_on_c, 0, 81, 80
2, 20879, Note_on_c, 0, 81, 0
2, 20880, Note_on_c, 0, 81, 80
2, 20999, Note_on_c, 0, 81, 0
2, 23070, Note_on_c, 0, 74, 80
2, 23099, Note_on_c, 0, 74, 0
2, 23100, Note_on_c, 0, 76, 80
2, 23129, Note_on_c, 0, 76, 0
2, 23130, Note_on_c, 0, 78, 80
2, 23159, Note_on_c, 0, 78, 0
2, 23160, Note_on_c, 0, 79, 80
2, 23189, Note_on_c, 0, 79, 0
2, 23190, Note_on_c, 0, 81, 80
2, 23219, Note_on_c, 0, 81, 0
2, 23220, Note_on_c, 0, 83, 80
2, 23249, Note_on_c, 0, 83, 0
2, 23250, Note_on_c, 0, 85, 80
2, 23279, Note_on_c, 0, 85, 0
2, 23280, Note_on_c, 0, 86, 80
2, 23309, Note_on_c, 0, 86, 0
2, 23310, Note_on_c, 0, 85, 80
2, 23339, Note_on_c, 0, 85, 0
2, 23340, Note_on_c, 0, 86, 80
2, 23369, Note_on_c, 0, 86, 0
2, 23370, Note_on_c, 0, 85, 80
2, 23399, Note_on_c, 0, 85, 0
2, 23400, Note_on_c, 0, 83, 80
2, 23459, Note_on_c, 0, 83, 0
2, 23460, Note_on_c, 0, 79, 80
2, 23519, Note_on_c, 0, 79, 0
2, 23520, Note_on_c, 0, 79, 80
2, 23579, Note_on_c, 0, 79, 0
2, 23580, Note_on_c, 0, 83, 80
2, 23639, Note_on_c, 0, 83, 0
2, 23640, Note_on_c, 0, 83, 80
2, 23699, Note_on_c, 0, 83, 0
2, 23700, Note_on_c, 0, 81, 80
2, 23729, Note_on_c, 0, 81, 0
2, 23730, Note_on_c, 0, 79, 80
2, 23759, Note_on_c, 0, 79, 0
2, 23760, Note_on_c, 0, 81, 80
2, 23819, Note_on_c, 0, 81, 0
2, 23820, Note_on_c, 0, 78, 80
2, 23879, Note_on_c, 0, 78, 0
2, 23880, Note_on_c, 0, 78, 80
2, 23939, Note_on_c, 0, 78, 0
2, 23940, Note_on_c, 0, 81, 80
2, 23999, Note_on_c, 0, 81, 0
2, 24000, Note_on_c, 0, 81, 80
2, 24059, Note_on_c, 0, 81, 0
2, 24060, Note_on_c, 0, 79, 80
2, 24089, Note_on_c, 0, 79, 0
2, 24090, Note_on_c, 0, 78, 80
2, 24119, Note_on_c, 0, 78, 0
2, 24120, Note_on_c, 0, 79, 80
2, 24179, Note_on_c, 0, 79, 0
2, 24180, Note_on_c, 0, 76, 80
2, 24239, Note_on_c, 0, 76, 0
2, 24240, Note_on_c, 0, 76, 80
2, 24299, Note_on_c, 0, 76, 0
2, 24300, Note_on_c, 0, 79, 80
2, 24359, Note_on_c, 0, 79, 0
2, 24360, Note_on_c, 0, 79, 80
2, 24419, Note_on_c, 0, 79, 0
2, 24420, Note_on_c, 0, 78, 80
2, 24449, Note_on_c, 0, 78, 0
2, 24450, Note_on_c, 0, 76, 80
2, 24479, Note_on_c, 0, 76, 0
2, 24480, Note_on_c, 0, 78, 80
2, 24539, Note_on_c, 0, 78, 0
2, 24540, Note_on_c, 0, 78, 80
2, 24599, Note_on_c, 0, 78, 0
2, 24600, Note_on_c, 0, 78, 80
2, 24659, Note_on_c, 0, 78, 0
2, 24660, Note_on_c, 0, 78, 80
2, 24719, Note_on_c, 0, 78, 0
2, 24720, Note_on_c, 0, 78, 80
2, 24779, Note_on_c, 0, 78, 0
2, 24780, Note_on_c, 0, 78, 80
2, 24839, Note_on_c, 0, 78, 0
2, 24900, Note_on_c, 0, 77, 80
2, 24959, Note_on_c, 0, 77, 0
2, 24960, Note_on_c, 0, 77, 80
2, 25019, Note_on_c, 0, 77, 0
2, 25020, Note_on_c, 0, 77, 80
2, 25079, Note_on_c, 0, 77, 0
2, 25080, Note_on_c, 0, 77, 80
2, 25139, Note_on_c, 0, 77, 0
2, 25140, Note_on_c, 0, 77, 80
2, 25199, Note_on_c, 0, 77, 0
2, 25260, Note_on_c, 0, 76, 80
2, 25319, Note_on_c, 0, 76, 0
2, 25320, Note_on_c, 0, 76, 80
2, 25379, Note_on_c, 0, 76, 0
2, 25380, Note_on_c, 0, 76, 80
2, 25439, Note_on_c, 0, 76, 0
2, 25440, Note_on_c, 0, 76, 80
2, 25499, Note_on_c, 0, 76, 0
2, 25500, Note_on_c, 0, 76, 80
2, 25559, Note_on_c, 0, 76, 0
2, 25560, Note_on_c, 0, 85, 80
2, 25619, Note_on_c, 0, 85, 0
2, 25620, Note_on_c, 0, 81, 80
2, 25679, Note_on_c, 0, 81, 0
2, 25920, Note_on_c, 0, 86, 80
2, 25979, Note_on_c, 0, 86, 0
2, 25980, Note_on_c, 0, 81, 80
2, 26039, Note_on_c, 0, 81, 0
2, 26280, Note_on_c, 0, 85, 80
2, 26339, Note_on_c, 0, 85, 0
2, 26340, Note_on_c, 0, 81, 80
2, 26399, Note_on_c, 0, 81, 0
2, 26700, Note_on_c, 0, 81, 80
2, 26759, Note_on_c, 0, 81, 0
2, 26760, Note_on_c, 0, 81, 80
2, 26819, Note_on_c, 0, 81, 0
2, 26820, Note_on_c, 0, 81, 80
2, 26879, Note_on_c, 0, 81, 0
2, 26880, Note_on_c, 0, 81, 80
2, 26939, Note_on_c, 0, 81, 0
2, 26940, Note_on_c, 0, 83, 80
2, 26969, Note_on_c, 0, 83, 0
2, 26970, Note_on_c, 0, 85, 80
2, 26999, Note_on_c, 0, 85, 0
2, 27000, Note_on_c, 0, 86, 80
2, 27059, Note_on_c, 0, 86, 0
2, 27060, Note_on_c, 0, 78, 80
2, 27119, Note_on_c, 0, 78, 0
2, 27120, Note_on_c, 0, 78, 80
2, 27179, Note_on_c, 0, 78, 0
2, 27180, Note_on_c, 0, 78, 80
2, 27239, Note_on_c, 0, 78, 0
2, 27240, Note_on_c, 0, 78, 80
2, 27299, Note_on_c, 0, 78, 0
2, 27300, Note_on_c, 0, 79, 80
2, 27329, Note_on_c, 0, 79, 0
2, 27330, Note_on_c, 0, 81, 80
2, 27359, Note_on_c, 0, 81, 0
2, 27360, Note_on_c, 0, 83, 80
2, 27389, Note_on_c, 0, 83, 0
2, 27390, Note_on_c, 0, 81, 80
2, 27419, Note_on_c, 0, 81, 0
2, 27420, Note_on_c, 0, 83, 80
2, 27449, Note_on_c, 0, 83, 0
2, 27450, Note_on_c, 0, 81, 80
2, 27479, Note_on_c, 0, 81, 0
2, 27480, Note_on_c, 0, 79, 80
2, 27509, Note_on_c, 0, 79, 0
2, 27510, Note_on_c, 0, 78, 80
2, 27539, Note_on_c, 0, 78, 0
2, 27540, Note_on_c, 0, 79, 80
2, 27569, Note_on_c, 0, 79, 0
2, 27570, Note_on_c, 0, 78, 80
2, 27599, Note_on_c, 0, 78, 0
2, 27600, Note_on_c, 0, 76, 80
2, 27629, Note_on_c, 0, 76, 0
2, 27630, Note_on_c, 0, 74, 80
2, 27659, Note_on_c, 0, 74, 0
2, 27660, Note_on_c, 0, 76, 80
2, 27689, Note_on_c, 0, 76, 0
2, 27690, Note_on_c, 0, 74, 80
2, 27719, Note_on_c, 0, 74, 0
2, 27720, Note_on_c, 0, 79, 80
2, 27779, Note_on_c, 0, 79, 0
2, 27780, Note_on_c, 0, 81, 80
2, 27809, Note_on_c, 0, 81, 0
2, 27810, Note_on_c, 0, 79, 80
2, 27839, Note_on_c, 0, 79, 0
2, 27840, Note_on_c, 0, 78, 80
2, 27869, Note_on_c, 0, 78, 0
2, 27870, Note_on_c, 0, 76, 80
2, 27899, Note_on_c, 0, 76, 0
2, 27900, Note_on_c, 0, 74, 80
2, 27929, Note_on_c, 0, 74, 0
2, 27930, Note_on_c, 0, 76, 80
2, 27959, Note_on_c, 0, 76, 0
2, 27960, Note_on_c, 0, 76, 80
2, 28049, Note_on_c, 0, 76, 0
2, 28050, Note_on_c, 0, 74, 80
2, 28079, Note_on_c, 0, 74, 0
2, 28080, Note_on_c, 0, 74, 80
2, 28139, Note_on_c, 0, 74, 0
2, 28140, Note_on_c, 0, 81, 80
2, 28199, Note_on_c, 0, 81, 0
2, 28200, Note_on_c, 0, 81, 80
2, 28259, Note_on_c, 0, 81, 0
2, 28260, Note_on_c, 0, 81, 80
2, 28319, Note_on_c, 0, 81, 0
2, 28320, Note_on_c, 0, 81, 80
2, 28379, Note_on_c, 0, 81, 0
2, 28380, Note_on_c, 0, 79, 80
2, 28409, Note_on_c, 0, 79, 0
2, 28410, Note_on_c, 0, 81, 80
2, 28439, Note_on_c, 0, 81, 0
2, 28440, Note_on_c, 0, 83, 80
2, 28499, Note_on_c, 0, 83, 0
2, 28500, Note_on_c, 0, 83, 80
2, 28559, Note_on_c, 0, 83, 0
2, 28560, Note_on_c, 0, 83, 80
2, 28619, Note_on_c, 0, 83, 0
2, 28620, Note_on_c, 0, 83, 80
2, 28679, Note_on_c, 0, 83, 0
2, 28680, Note_on_c, 0, 83, 80
2, 28739, Note_on_c, 0, 83, 0
2, 28740, Note_on_c, 0, 81, 80
2, 28769, Note_on_c, 0, 81, 0
2, 28770, Note_on_c, 0, 83, 80
2, 28799, Note_on_c, 0, 83, 0
2, 28800, Note_on_c, 0, 84, 80
2, 28859, Note_on_c, 0, 84, 0
2, 28860, Note_on_c, 0, 84, 80
2, 28919, Note_on_c, 0, 84, 0
2, 28920, Note_on_c, 0, 84, 80
2, 28979, Note_on_c, 0, 84, 0
2, 28980, Note_on_c, 0, 84, 80
2, 29039, Note_on_c, 0, 84, 0
2, 29040, Note_on_c, 0, 84, 80
2, 29099, Note_on_c, 0, 84, 0
2, 29100, Note_on_c, 0, 83, 80
2, 29129, Note_on_c, 0, 83, 0
2, 29130, Note_on_c, 0, 81, 80
2, 29159, Note_on_c, 0, 81, 0
2, 29160, Note_on_c, 0, 83, 80
2, 29189, Note_on_c, 0, 83, 0
2, 29190, Note_on_c, 0, 81, 80
2, 29219, Note_on_c, 0, 81, 0
2, 29220, Note_on_c, 0, 83, 80
2, 29249, Note_on_c, 0, 83, 0
2, 29250, Note_on_c, 0, 81, 80
2, 29279, Note_on_c, 0, 81, 0
2, 29280, Note_on_c, 0, 79, 80
2, 29309, Note_on_c, 0, 79, 0
2, 29310, Note_on_c, 0, 78, 80
2, 29339, Note_on_c, 0, 78, 0
2, 29340, Note_on_c, 0, 79, 80
2, 29369, Note_on_c, 0, 79, 0
2, 29370, Note_on_c, 0, 78, 80
2, 29399, Note_on_c, 0, 78, 0
2, 29400, Note_on_c, 0, 76, 80
2, 29429, Note_on_c, 0, 76, 0
2, 29430, Note_on_c, 0, 74, 80
2, 29459, Note_on_c, 0, 74, 0
2, 29460, Note_on_c, 0, 76, 80
2, 29489, Note_on_c, 0, 76, 0
2, 29490, Note_on_c, 0, 74, 80
2, 29519, Note_on_c, 0, 74, 0
2, 29520, Note_on_c, 0, 79, 80
2, 29579, Note_on_c, 0, 79, 0
2, 29580, Note_on_c, 0, 81, 80
2, 29609, Note_on_c, 0, 81, 0
2, 29610, Note_on_c, 0, 79, 80
2, 29639, Note_on_c, 0, 79, 0
2, 29640, Note_on_c, 0, 78, 80
2, 29669, Note_on_c, 0, 78, 0
2, 29670, Note_on_c, 0, 76, 80
2, 29699, Note_on_c, 0, 76, 0
2, 29700, Note_on_c, 0, 74, 80
2, 29729, Note_on_c, 0, 74, 0
2, 29730, Note_on_c, 0, 76, 80
2, 29759, Note_on_c, 0, 76, 0
2, 29760, Note_on_c, 0, 76, 80
2, 29849, Note_on_c, 0, 76, 0
2, 29850, Note_on_c, 0, 74, 80
2, 29879, Note_on_c, 0, 74, 0
2, 29880, Note_on_c, 0, 74, 80
2, 29999, Note_on_c, 0, 74, 0
2, 39960, Note_on_c, 0, 74, 80
2, 40020, Note_on_c, 0, 74, 0
2, 40020, Note_on_c, 0, 69, 80
2, 40080, Note_on_c, 0, 69, 0
2, 40320, Note_on_c, 0, 78, 80
2, 40380, Note_on_c, 0, 78, 0
2, 40380, Note_on_c, 0, 74, 80
2, 40440, Note_on_c, 0, 74, 0
2, 40680, Note_on_c, 0, 81, 80
2, 40740, Note_on_c, 0, 81, 0
2, 40740, Note_on_c, 0, 78, 80
2, 40800, Note_on_c, 0, 78, 0
2, 41040, Note_on_c, 0, 86, 80
2, 41100, Note_on_c, 0, 86, 0
2, 41100, Note_on_c, 0, 81, 80
2, 41160, Note_on_c, 0, 81, 0
2, 41460, Note_on_c, 0, 81, 80
2, 41519, Note_on_c, 0, 81, 0
2, 41520, Note_on_c, 0, 81, 80
2, 41579, Note_on_c, 0, 81, 0
2, 41580, Note_on_c, 0, 81, 80
2, 41639, Note_on_c, 0, 81, 0
2, 41640, Note_on_c, 0, 81, 80
2, 41699, Note_on_c, 0, 81, 0
2, 41700, Note_on_c, 0, 83, 80
2, 41729, Note_on_c, 0, 83, 0
2, 41730, Note_on_c, 0, 85, 80
2, 41759, Note_on_c, 0, 85, 0
2, 41760, Note_on_c, 0, 86, 80
2, 41819, Note_on_c, 0, 86, 0
2, 41820, Note_on_c, 0, 78, 80
2, 41879, Note_on_c, 0, 78, 0
2, 41880, Note_on_c, 0, 78, 80
2, 41939, Note_on_c, 0, 78, 0
2, 41940, Note_on_c, 0, 78, 80
2, 41999, Note_on_c, 0, 78, 0
2, 42000, Note_on_c, 0, 78, 80
2, 42059, Note_on_c, 0, 78, 0
2, 42060, Note_on_c, 0, 80, 80
2, 42089, Note_on_c, 0, 80, 0
2, 42090, Note_on_c, 0, 81, 80
2, 42119, Note_on_c, 0, 81, 0
2, 42120, Note_on_c, 0, 83, 80
2, 42179, Note_on_c, 0, 83, 0
2, 42180, Note_on_c, 0, 76, 80
2, 42239, Note_on_c, 0, 76, 0
2, 42240, Note_on_c, 0, 76, 80
2, 42299, Note_on_c, 0, 76, 0
2, 42300, Note_on_c, 0, 76, 80
2, 42359, Note_on_c, 0, 76, 0
2, 42360, Note_on_c, 0, 76, 80
2, 42419, Note_on_c, 0, 76, 0
2, 42420, Note_on_c, 0, 78, 80
2, 42449, Note_on_c, 0, 78, 0
2, 42450, Note_on_c, 0, 80, 80
2, 42479, Note_on_c, 0, 80, 0
2, 42480, Note_on_c, 0, 81, 80
2, 42509, Note_on_c, 0, 81, 0
2, 42510, Note_on_c, 0, 80, 80
2, 42539, Note_on_c, 0, 80, 0
2, 42540, Note_on_c, 0, 81, 80
2, 42569, Note_on_c, 0, 81, 0
2, 42570, Note_on_c, 0, 83, 80
2, 42599, Note_on_c, 0, 83, 0
2, 42600, Note_on_c, 0, 85, 80
2, 42629, Note_on_c, 0, 85, 0
2, 42630, Note_on_c, 0, 83, 80
2, 42659, Note_on_c, 0, 83, 0
2, 42660, Note_on_c, 0, 81, 80
2, 42689, Note_on_c, 0, 81, 0
2, 42690, Note_on_c, 0, 83, 80
2, 42719, Note_on_c, 0, 83, 0
2, 42720, Note_on_c, 0, 83, 80
2, 42809, Note_on_c, 0, 83, 0
2, 42810, Note_on_c, 0, 85, 80
2, 42839, Note_on_c, 0, 85, 0
2, 42840, Note_on_c, 0, 85, 80
2, 42959, Note_on_c, 0, 85, 0
2, 45030, Note_on_c, 0, 74, 80
2, 45059, Note_on_c, 0, 74, 0
2, 45060, Note_on_c, 0, 76, 80
2, 45089, Note_on_c, 0, 76, 0
2, 45090, Note_on_c, 0, 78, 80
2, 45119, Note_on_c, 0, 78, 0
2, 45120, Note_on_c, 0, 79, 80
2, 45149, Note_on_c, 0, 79, 0
2, 45150, Note_on_c, 0, 81, 80
2, 45179, Note_on_c, 0, 81, 0
2, 45180, Note_on_c, 0, 83, 80
2, 45209, Note_on_c, 0, 83, 0
2, 45210, Note_on_c, 0, 85, 80
2, 45239, Note_on_c, 0, 85, 0
2, 45240, Note_on_c, 0, 86, 80
2, 45269, Note_on_c, 0, 86, 0
2, 45270, Note_on_c, 0, 85, 80
2, 45299, Note_on_c, 0, 85, 0
2, 45300, Note_on_c, 0, 86, 80
2, 45329, Note_on_c, 0, 86, 0
2, 45330, Note_on_c, 0, 85, 80
2, 45359, Note_on_c, 0, 85, 0
2, 45360, Note_on_c, 0, 83, 80
2, 45419, Note_on_c, 0, 83, 0
2, 45420, Note_on_c, 0, 79, 80
2, 45479, Note_on_c, 0, 79, 0
2, 45480, Note_on_c, 0, 79, 80
2, 45539, Note_on_c, 0, 79, 0
2, 45540, Note_on_c, 0, 83, 80
2, 45599, Note_on_c, 0, 83, 0
2, 45600, Note_on_c, 0, 83, 80
2, 45659, Note_on_c, 0, 83, 0
2, 45660, Note_on_c, 0, 81, 80
2, 45689, Note_on_c, 0, 81, 0
2, 45690, Note_on_c, 0, 79, 80
2, 45719, Note_on_c, 0, 79, 0
2, 45720, Note_on_c, 0, 81, 80
2, 45779, Note_on_c, 0, 81, 0
2, 45780, Note_on_c, 0, 78, 80
2, 45839, Note_on_c, 0, 78, 0
2, 45840, Note_on_c, 0, 78, 80
2, 45899, Note_on_c, 0, 78, 0
2, 45900, Note_on_c, 0, 81, 80
2, 45959, Note_on_c, 0, 81, 0
2, 45960, Note_on_c, 0, 81, 80
2, 46019, Note_on_c, 0, 81, 0
2, 46020, Note_on_c, 0, 79, 80
2, 46049, Note_on_c, 0, 79, 0
2, 46050, Note_on_c, 0, 78, 80
2, 46079, Note_on_c, 0, 78, 0
2, 46080, Note_on_c, 0, 79, 80
2, 46139, Note_on_c, 0, 79, 0
2, 46140, Note_on_c, 0, 76, 80
2, 46199, Note_on_c, 0, 76, 0
2, 46200, Note_on_c, 0, 76, 80
2, 46259, Note_on_c, 0, 76, 0
2, 46260, Note_on_c, 0, 79, 80
2, 46319, Note_on_c, 0, 79, 0
2, 46320, Note_on_c, 0, 79, 80
2, 46379, Note_on_c, 0, 79, 0
2, 46380, Note_on_c, 0, 78, 80
2, 46409, Note_on_c, 0, 78, 0
2, 46410, Note_on_c, 0, 76, 80
2, 46439, Note_on_c, 0, 76, 0
2, 46440, Note_on_c, 0, 78, 80
2, 46499, Note_on_c, 0, 78, 0
2, 46500, Note_on_c, 0, 78, 80
2, 46559, Note_on_c, 0, 78, 0
2, 46560, Note_on_c, 0, 78, 80
2, 46619, Note_on_c, 0, 78, 0
2, 46620, Note_on_c, 0, 78, 80
2, 46679, Note_on_c, 0, 78, 0
2, 46680, Note_on_c, 0, 78, 80
2, 46739, Note_on_c, 0, 78, 0
2, 46740, Note_on_c, 0, 78, 80
2, 46799, Note_on_c, 0, 78, 0
2, 46860, Note_on_c, 0, 77, 80
2, 46919, Note_on_c, 0, 77, 0
2, 46920, Note_on_c, 0, 77, 80
2, 46979, Note_on_c, 0, 77, 0
2, 46980, Note_on_c, 0, 77, 80
2, 47039, Note_on_c, 0, 77, 0
2, 47040, Note_on_c, 0, 77, 80
2, 47099, Note_on_c, 0, 77, 0
2, 47100, Note_on_c, 0, 77, 80
2, 47159, Note_on_c, 0, 77, 0
2, 47220, Note_on_c, 0, 76, 80
2, 47279, Note_on_c, 0, 76, 0
2, 47280, Note_on_c, 0, 76, 80
2, 47339, Note_on_c, 0, 76, 0
2, 47340, Note_on_c, 0, 76, 80
2, 47399, Note_on_c, 0, 76, 0
2, 47400, Note_on_c, 0, 76, 80
2, 47459, Note_on_c, 0, 76, 0
2, 47460, Note_on_c, 0, 76, 80
2, 47519, Note_on_c, 0, 76, 0
2, 47520, Note_on_c, 0, 85, 80
2, 47579, Note_on_c, 0, 85, 0
2, 47580, Note_on_c, 0, 81, 80
2, 47639, Note_on_c, 0, 81, 0
2, 47880, Note_on_c, 0, 86, 80
2, 47939, Note_on_c, 0, 86, 0
2, 47940, Note_on_c, 0, 81, 80
2, 47999, Note_on_c, 0, 81, 0
2, 48240, Note_on_c, 0, 85, 80
2, 48299, Note_on_c, 0, 85, 0
2, 48300, Note_on_c, 0, 81, 80
2, 48359, Note_on_c, 0, 81, 0
2, 48660, Note_on_c, 0, 81, 80
2, 48719, Note_on_c, 0, 81, 0
2, 48720, Note_on_c, 0, 81, 80
2, 48779, Note_on_c, 0, 81, 0
2, 48780, Note_on_c, 0, 81, 80
2, 48839, Note_on_c, 0, 81, 0
2, 48840, Note_on_c, 0, 81, 80
2, 48899, Note_on_c, 0, 81, 0
2, 48900, Note_on_c, 0, 83, 80
2, 48929, Note_on_c, 0, 83, 0
2, 48930, Note_on_c, 0, 85, 80
2, 48959, Note_on_c, 0, 85, 0
2, 48960, Note_on_c, 0, 86, 80
2, 49019, Note_on_c, 0, 86, 0
2, 49020, Note_on_c, 0, 78, 80
2, 49079, Note_on_c, 0, 78, 0
2, 49080, Note_on_c, 0, 78, 80
2, 49139, Note_on_c, 0, 78, 0
2, 49140, Note_on_c, 0, 78, 80
2, 49199, Note_on_c, 0, 78, 0
2, 49200, Note_on_c, 0, 78, 80
2, 49259, Note_on_c, 0, 78, 0
2, 49260, Note_on_c, 0, 79, 80
2, 49289, Note_on_c, 0, 79, 0
2, 49290, Note_on_c, 0, 81, 80
2, 49319, Note_on_c, 0, 81, 0
2, 49320, Note_on_c, 0, 83, 80
2, 49349, Note_on_c, 0, 83, 0
2, 49350, Note_on_c, 0, 81, 80
2, 49379, Note_on_c, 0, 81, 0
2, 49380, Note_on_c, 0, 83, 80
2, 49409, Note_on_c, 0, 83, 0
2, 49410, Note_on_c, 0, 81, 80
2, 49439, Note_on_c, 0, 81, 0
2, 49440, Note_on_c, 0, 79, 80
2, 49469, Note_on_c, 0, 79, 0
2, 49470, Note_on_c, 0, 78, 80
2, 49499, Note_on_c, 0, 78, 0
2, 49500, Note_on_c, 0, 79, 80
2, 49529, Note_on_c, 0, 79, 0
2, 49530, Note_on_c, 0, 78, 80
2, 49559, Note_on_c, 0, 78, 0
2, 49560, Note_on_c, 0, 76, 80
2, 49589, Note_on_c, 0, 76, 0
2, 49590, Note_on_c, 0, 74, 80
2, 49619, Note_on_c, 0, 74, 0
2, 49620, Note_on_c, 0, 76, 80
2, 49649, Note_on_c, 0, 76, 0
2, 49650, Note_on_c, 0, 74, 80
2, 49679, Note_on_c, 0, 74, 0
2, 49680, Note_on_c, 0, 79, 80
2, 49739, Note_on_c, 0, 79, 0
2, 49740, Note_on_c, 0, 81, 80
2, 49769, Note_on_c, 0, 81, 0
2, 49770, Note_on_c, 0, 79, 80
2, 49799, Note_on_c, 0, 79, 0
2, 49800, Note_on_c, 0, 78, 80
2, 49829, Note_on_c, 0, 78, 0
2, 49830, Note_on_c, 0, 76, 80
2, 49859, Note_on_c, 0, 76, 0
2, 49860, Note_on_c, 0, 74, 80
2, 49889, Note_on_c, 0, 74, 0
2, 49890, Note_on_c, 0, 76, 80
2, 49919, Note_on_c, 0, 76, 0
2, 49920, Note_on_c, 0, 76, 80
2, 50009, Note_on_c, 0, 76, 0
2, 50010, Note_on_c, 0, 74, 80
2, 50039, Note_on_c, 0, 74, 0
2, 50040, Note_on_c, 0, 74, 80
2, 50099, Note_on_c, 0, 74, 0
2, 50100, Note_on_c, 0, 69, 80
2, 50159, Note_on_c, 0, 69, 0
2, 50400, Note_on_c, 0, 86, 80
2, 50459, Note_on_c, 0, 86, 0
2, 50460, Note_on_c, 0, 83, 80
2, 50519, Note_on_c, 0, 83, 0
2, 50760, Note_on_c, 0, 69, 80
2, 50819, Note_on_c, 0, 69, 0
2, 50820, Note_on_c, 0, 66, 80
2, 50879, Note_on_c, 0, 66, 0
2, 51120, Note_on_c, 0, 83, 80
2, 51179, Note_on_c, 0, 83, 0
2, 51180, Note_on_c, 0, 79, 80
2, 51239, Note_on_c, 0, 79, 0
2, 51540, Note_on_c, 0, 81, 80
2, 51599, Note_on_c, 0, 81, 0
2, 51600, Note_on_c, 0, 81, 80
2, 51659, Note_on_c, 0, 81, 0
2, 51660, Note_on_c, 0, 81, 80
2, 51719, Note_on_c, 0, 81, 0
2, 51720, Note_on_c, 0, 81, 80
2, 51779, Note_on_c, 0, 81, 0
2, 51780, Note_on_c, 0, 81, 80
2, 51809, Note_on_c, 0, 81, 0
2, 51810, Note_on_c, 0, 83, 80
2, 51839, Note_on_c, 0, 83, 0
2, 51840, Note_on_c, 0, 85, 80
2, 51899, Note_on_c, 0, 85, 0
2, 51900, Note_on_c, 0, 81, 80
2, 51959, Note_on_c, 0, 81, 0
2, 52200, Note_on_c, 0, 86, 80
2, 52259, Note_on_c, 0, 86, 0
2, 52260, Note_on_c, 0, 81, 80
2, 52319, Note_on_c, 0, 81, 0
2, 52560, Note_on_c, 0, 85, 80
2, 52619, Note_on_c, 0, 85, 0
2, 52620, Note_on_c, 0, 81, 80
2, 52679, Note_on_c, 0, 81, 0
2, 52980, Note_on_c, 0, 81, 80
2, 53039, Note_on_c, 0, 81, 0
2, 53040, Note_on_c, 0, 81, 80
2, 53099, Note_on_c, 0, 81, 0
2, 53100, Note_on_c, 0, 81, 80
2, 53159, Note_on_c, 0, 81, 0
2, 53160, Note_on_c, 0, 81, 80
2, 53219, Note_on_c, 0, 81, 0
2, 53220, Note_on_c, 0, 83, 80
2, 53249, Note_on_c, 0, 83, 0
2, 53250, Note_on_c, 0, 85, 80
2, 53279, Note_on_c, 0, 85, 0
2, 53280, Note_on_c, 0, 86, 80
2, 53339, Note_on_c, 0, 86, 0
2, 53340, Note_on_c, 0, 78, 80
2, 53399, Note_on_c, 0, 78, 0
2, 53400, Note_on_c, 0, 78, 80
2, 53459, Note_on_c, 0, 78, 0
2, 53460, Note_on_c, 0, 78, 80
2, 53519, Note_on_c, 0, 78, 0
2, 53520, Note_on_c, 0, 78, 80
2, 53579, Note_on_c, 0, 78, 0
2, 53580, Note_on_c, 0, 79, 80
2, 53609, Note_on_c, 0, 79, 0
2, 53610, Note_on_c, 0, 81, 80
2, 53639, Note_on_c, 0, 81, 0
2, 53640, Note_on_c, 0, 83, 80
2, 53669, Note_on_c, 0, 83, 0
2, 53670, Note_on_c, 0, 81, 80
2, 53699, Note_on_c, 0, 81, 0
2, 53700, Note_on_c, 0, 83, 80
2, 53729, Note_on_c, 0, 83, 0
2, 53730, Note_on_c, 0, 81, 80
2, 53759, Note_on_c, 0, 81, 0
2, 53760, Note_on_c, 0, 79, 80
2, 53789, Note_on_c, 0, 79, 0
2, 53790, Note_on_c, 0, 78, 80
2, 53819, Note_on_c, 0, 78, 0
2, 53820, Note_on_c, 0, 79, 80
2, 53849, Note_on_c, 0, 79, 0
2, 53850, Note_on_c, 0, 78, 80
2, 53879, Note_on_c, 0, 78, 0
2, 53880, Note_on_c, 0, 76, 80
2, 53909, Note_on_c, 0, 76, 0
2, 53910, Note_on_c, 0, 74, 80
2, 53939, Note_on_c, 0, 74, 0
2, 53940, Note_on_c, 0, 76, 80
2, 53969, Note_on_c, 0, 76, 0
2, 53970, Note_on_c, 0, 74, 80
2, 53999, Note_on_c, 0, 74, 0
2, 54000, Note_on_c, 0, 79, 80
2, 54059, Note_on_c, 0, 79, 0
2, 54060, Note_on_c, 0, 81, 80
2, 54089, Note_on_c, 0, 81, 0
2, 54090, Note_on_c, 0, 79, 80
2, 54119, Note_on_c, 0, 79, 0
2, 54120, Note_on_c, 0, 78, 80
2, 54149, Note_on_c, 0, 78, 0
2, 54150, Note_on_c, 0, 76, 80
2, 54179, Note_on_c, 0, 76, 0
2, 54180, Note_on_c, 0, 74, 80
2, 54209, Note_on_c, 0, 74, 0
2, 54210, Note_on_c, 0, 76, 80
2, 54239, Note_on_c, 0, 76, 0
2, 54240, Note_on_c, 0, 76, 80
2, 54329, Note_on_c, 0, 76, 0
2, 54330, Note_on_c, 0, 74, 80
2, 54359, Note_on_c, 0, 74, 0
2, 54360, Note_on_c, 0, 74, 80
2, 54419, Note_on_c, 0, 74, 0
2, 54480, Note_on_c, 0, 69, 80
2, 54539, Note_on_c, 0, 69, 0
2, 54540, Note_on_c, 0, 66, 80
2, 54599, Note_on_c, 0, 66, 0
2, 54840, Note_on_c, 0, 74, 80
2, 54899, Note_on_c, 0, 74, 0
2, 54900, Note_on_c, 0, 69, 80
2, 54959, Note_on_c, 0, 69, 0
2, 55200, Note_on_c, 0, 78, 80
2, 55259, Note_on_c, 0, 78, 0
2, 55260, Note_on_c, 0, 74, 80
2, 55319, Note_on_c, 0, 74, 0
2, 55500, Note_on_c, 0, 69, 80
2, 55559, Note_on_c, 0, 69, 0
2, 55560, Note_on_c, 0, 69, 80
2, 55619, Note_on_c, 0, 69, 0
2, 55620, Note_on_c, 0, 74, 80
2, 55679, Note_on_c, 0, 74, 0
2, 55680, Note_on_c, 0, 74, 80
2, 55739, Note_on_c, 0, 74, 0
2, 55740, Note_on_c, 0, 78, 80
2, 55799, Note_on_c, 0, 78, 0
2, 55800, Note_on_c, 0, 78, 80
2, 55859, Note_on_c, 0, 78, 0
2, 55860, Note_on_c, 0, 81, 80
2, 55919, Note_on_c, 0, 81, 0
2, 55920, Note_on_c, 0, 81, 80
2, 55979, Note_on_c, 0, 81, 0
2, 55980, Note_on_c, 0, 81, 80
2, 56039, Note_on_c, 0, 81, 0
2, 56040, Note_on_c, 0, 81, 80
2, 56099, Note_on_c, 0, 81, 0
2, 56100, Note_on_c, 0, 83, 80
2, 56129, Note_on_c, 0, 83, 0
2, 56130, Note_on_c, 0, 85, 80
2, 56159, Note_on_c, 0, 85, 0
2, 56160, Note_on_c, 0, 86, 80
2, 56219, Note_on_c, 0, 86, 0
2, 56220, Note_on_c, 0, 78, 80
2, 56279, Note_on_c, 0, 78, 0
2, 56280, Note_on_c, 0, 78, 80
2, 56339, Note_on_c, 0, 78, 0
2, 56340, Note_on_c, 0, 78, 80
2, 56399, Note_on_c, 0, 78, 0
2, 56400, Note_on_c, 0, 78, 80
2, 56459, Note_on_c, 0, 78, 0
2, 56460, Note_on_c, 0, 80, 80
2, 56489, Note_on_c, 0, 80, 0
2, 56490, Note_on_c, 0, 81, 80
2, 56519, Note_on_c, 0, 81, 0
2, 56520, Note_on_c, 0, 83, 80
2, 56579, Note_on_c, 0, 83, 0
2, 56580, Note_on_c, 0, 76, 80
2, 56639, Note_on_c, 0, 76, 0
2, 56640, Note_on_c, 0, 76, 80
2, 56699, Note_on_c, 0, 76, 0
2, 56700, Note_on_c, 0, 76, 80
2, 56759, Note_on_c, 0, 76, 0
2, 56760, Note_on_c, 0, 76, 80
2, 56819, Note_on_c, 0, 76, 0
2, 56820, Note_on_c, 0, 78, 80
2, 56849, Note_on_c, 0, 78, 0
2, 56850, Note_on_c, 0, 80, 80
2, 56879, Note_on_c, 0, 80, 0
2, 56880, Note_on_c, 0, 81, 80
2, 56909, Note_on_c, 0, 81, 0
2, 56910, Note_on_c, 0, 80, 80
2, 56939, Note_on_c, 0, 80, 0
2, 56940, Note_on_c, 0, 81, 80
2, 56969, Note_on_c, 0, 81, 0
2, 56970, Note_on_c, 0, 83, 80
2, 56999, Note_on_c, 0, 83, 0
2, 57000, Note_on_c, 0, 85, 80
2, 57029, Note_on_c, 0, 85, 0
2, 57030, Note_on_c, 0, 83, 80
2, 57059, Note_on_c, 0, 83, 0
2, 57060, Note_on_c, 0, 81, 80
2, 57089, Note_on_c, 0, 81, 0
2, 57090, Note_on_c, 0, 83, 80
2, 57119, Note_on_c, 0, 83, 0
2, 57120, Note_on_c, 0, 83, 80
2, 57209, Note_on_c, 0, 83, 0
2, 57210, Note_on_c, 0, 85, 80
2, 57239, Note_on_c, 0, 85, 0
2, 57240, Note_on_c, 0, 85, 80
2, 57299, Note_on_c, 0, 85, 0
2, 57300, Note_on_c, 0, 85, 80
2, 57359, Note_on_c, 0, 85, 0
2, 57360, Note_on_c, 0, 85, 80
2, 57419, Note_on_c, 0, 85, 0
2, 57420, Note_on_c, 0, 85, 80
2, 57479, Note_on_c, 0, 85, 0
2, 57480, Note_on_c, 0, 85, 80
2, 57539, Note_on_c, 0, 85, 0
2, 57540, Note_on_c, 0, 85, 80
2, 57599, Note_on_c, 0, 85, 0
2, 57660, Note_on_c, 0, 84, 80
2, 57719, Note_on_c, 0, 84, 0
2, 57720, Note_on_c, 0, 84, 80
2, 57779, Note_on_c, 0, 84, 0
2, 57780, Note_on_c, 0, 84, 80
2, 57839, Note_on_c, 0, 84, 0
2, 57840, Note_on_c, 0, 84, 80
2, 57899, Note_on_c, 0, 84, 0
2, 57900, Note_on_c, 0, 84, 80
2, 57959, Note_on_c, 0, 84, 0
2, 58020, Note_on_c, 0, 83, 80
2, 58079, Note_on_c, 0, 83, 0
2, 58080, Note_on_c, 0, 83, 80
2, 58139, Note_on_c, 0, 83, 0
2, 58140, Note_on_c, 0, 83, 80
2, 58199, Note_on_c, 0, 83, 0
2, 58200, Note_on_c, 0, 83, 80
2, 58259, Note_on_c, 0, 83, 0
2, 58260, Note_on_c, 0, 83, 80
2, 58319, Note_on_c, 0, 83, 0
2, 58320, Note_on_c, 0, 83, 80
2, 58379, Note_on_c, 0, 83, 0
2, 58380, Note_on_c, 0, 80, 80
2, 58439, Note_on_c, 0, 80, 0
2, 58680, Note_on_c, 0, 85, 80
2, 58739, Note_on_c, 0, 85, 0
2, 58740, Note_on_c, 0, 81, 80
2, 58799, Note_on_c, 0, 81, 0
2, 59040, Note_on_c, 0, 83, 80
2, 59099, Note_on_c, 0, 83, 0
2, 59100, Note_on_c, 0, 80, 80
2, 59159, Note_on_c, 0, 80, 0
2, 59460, Note_on_c, 0, 85, 80
2, 59519, Note_on_c, 0, 85, 0
2, 59520, Note_on_c, 0, 85, 80
2, 59579, Note_on_c, 0, 85, 0
2, 59580, Note_on_c, 0, 85, 80
2, 59639, Note_on_c, 0, 85, 0
2, 59640, Note_on_c, 0, 85, 80
2, 59699, Note_on_c, 0, 85, 0
2, 59820, Note_on_c, 0, 85, 80
2, 59879, Note_on_c, 0, 85, 0
2, 59880, Note_on_c, 0, 85, 80
2, 59939, Note_on_c, 0, 85, 0
2, 59940, Note_on_c, 0, 85, 80
2, 59999, Note_on_c, 0, 85, 0
2, 60000, Note_on_c, 0, 85, 80
2, 60059, Note_on_c, 0, 85, 0
2, 60180, Note_on_c, 0, 81, 80
2, 60239, Note_on_c, 0, 81, 0
2, 60240, Note_on_c, 0, 83, 80
2, 60269, Note_on_c, 0, 83, 0
2, 60270, Note_on_c, 0, 85, 80
2, 60299, Note_on_c, 0, 85, 0
2, 60300, Note_on_c, 0, 83, 80
2, 60329, Note_on_c, 0, 83, 0
2, 60330, Note_on_c, 0, 85, 80
2, 60359, Note_on_c, 0, 85, 0
2, 60360, Note_on_c, 0, 86, 80
2, 60389, Note_on_c, 0, 86, 0
2, 60390, Note_on_c, 0, 88, 80
2, 60419, Note_on_c, 0, 88, 0
2, 60420, Note_on_c, 0, 85, 80
2, 60449, Note_on_c, 0, 85, 0
2, 60450, Note_on_c, 0, 86, 80
2, 60479, Note_on_c, 0, 86, 0
2, 60480, Note_on_c, 0, 88, 80
2, 60509, Note_on_c, 0, 88, 0
2, 60510, Note_on_c, 0, 86, 80
2, 60539, Note_on_c, 0, 86, 0
2, 60540, Note_on_c, 0, 85, 80
2, 60569, Note_on_c, 0, 85, 0
2, 60570, Note_on_c, 0, 83, 80
2, 60599, Note_on_c, 0, 83, 0
2, 60600, Note_on_c, 0, 81, 80
2, 60629, Note_on_c, 0, 81, 0
2, 60630, Note_on_c, 0, 80, 80
2, 60659, Note_on_c, 0, 80, 0
2, 60660, Note_on_c, 0, 81, 80
2, 60689, Note_on_c, 0, 81, 0
2, 60690, Note_on_c, 0, 78, 80
2, 60719, Note_on_c, 0, 78, 0
2, 60720, Note_on_c, 0, 80, 80
2, 60809, Note_on_c, 0, 80, 0
2, 60810, Note_on_c, 0, 81, 80
2, 60839, Note_on_c, 0, 81, 0
2, 60840, Note_on_c, 0, 81, 80
2, 60959, Note_on_c, 0, 81, 0
2, 63030, Note_on_c, 0, 74, 80
2, 63059, Note_on_c, 0, 74, 0
2, 63060, Note_on_c, 0, 76, 80
2, 63089, Note_on_c, 0, 76, 0
2, 63090, Note_on_c, 0, 78, 80
2, 63119, Note_on_c, 0, 78, 0
2, 63120, Note_on_c, 0, 79, 80
2, 63149, Note_on_c, 0, 79, 0
2, 63150, Note_on_c, 0, 81, 80
2, 63179, Note_on_c, 0, 81, 0
2, 63180, Note_on_c, 0, 83, 80
2, 63209, Note_on_c, 0, 83, 0
2, 63210, Note_on_c, 0, 85, 80
2, 63239, Note_on_c, 0, 85, 0
2, 63240, Note_on_c, 0, 86, 80
2, 63269, Note_on_c, 0, 86, 0
2, 63270, Note_on_c, 0, 85, 80
2, 63299, Note_on_c, 0, 85, 0
2, 63300, Note_on_c, 0, 86, 80
2, 63329, Note_on_c, 0, 86, 0
2, 63330, Note_on_c, 0, 85, 80
2, 63359, Note_on_c, 0, 85, 0
2, 63360, Note_on_c, 0, 83, 80
2, 63419, Note_on_c, 0, 83, 0
2, 63420, Note_on_c, 0, 79, 80
2, 63479, Note_on_c, 0, 79, 0
2, 63480, Note_on_c, 0, 79, 80
2, 63539, Note_on_c, 0, 79, 0
2, 63540, Note_on_c, 0, 83, 80
2, 63599, Note_on_c, 0, 83, 0
2, 63600, Note_on_c, 0, 83, 80
2, 63659, Note_on_c, 0, 83, 0
2, 63660, Note_on_c, 0, 81, 80
2, 63689, Note_on_c, 0, 81, 0
2, 63690, Note_on_c, 0, 79, 80
2, 63719, Note_on_c, 0, 79, 0
2, 63720, Note_on_c, 0, 81, 80
2, 63779, Note_on_c, 0, 81, 0
2, 63780, Note_on_c, 0, 78, 80
2, 63839, Note_on_c, 0, 78, 0
2, 63840, Note_on_c, 0, 78, 80
2, 63899, Note_on_c, 0, 78, 0
2, 63900, Note_on_c, 0, 81, 80
2, 63959, Note_on_c, 0, 81, 0
2, 63960, Note_on_c, 0, 81, 80
2, 64019, Note_on_c, 0, 81, 0
2, 64020, Note_on_c, 0, 79, 80
2, 64049, Note_on_c, 0, 79, 0
2, 64050, Note_on_c, 0, 78, 80
2, 64079, Note_on_c, 0, 78, 0
2, 64080, Note_on_c, 0, 79, 80
2, 64139, Note_on_c, 0, 79, 0
2, 64140, Note_on_c, 0, 76, 80
2, 64199, Note_on_c, 0, 76, 0
2, 64200, Note_on_c, 0, 76, 80
2, 64259, Note_on_c, 0, 76, 0
2, 64260, Note_on_c, 0, 79, 80
2, 64319, Note_on_c, 0, 79, 0
2, 64320, Note_on_c, 0, 79, 80
2, 64379, Note_on_c, 0, 79, 0
2, 64380, Note_on_c, 0, 78, 80
2, 64409, Note_on_c, 0, 78, 0
2, 64410, Note_on_c, 0, 76, 80
2, 64439, Note_on_c, 0, 76, 0
2, 64440, Note_on_c, 0, 78, 80
2, 64499, Note_on_c, 0, 78, 0
2, 64500, Note_on_c, 0, 78, 80
2, 64559, Note_on_c, 0, 78, 0
2, 64560, Note_on_c, 0, 78, 80
2, 64619, Note_on_c, 0, 78, 0
2, 64620, Note_on_c, 0, 78, 80
2, 64679, Note_on_c, 0, 78, 0
2, 64680, Note_on_c, 0, 78, 80
2, 64739, Note_on_c, 0, 78, 0
2, 64740, Note_on_c, 0, 78, 80
2, 64799, Note_on_c, 0, 78, 0
2, 64860, Note_on_c, 0, 77, 80
2, 64919, Note_on_c, 0, 77, 0
2, 64920, Note_on_c, 0, 77, 80
2, 64979, Note_on_c, 0, 77, 0
2, 64980, Note_on_c, 0, 77, 80
2, 65039, Note_on_c, 0, 77, 0
2, 65040, Note_on_c, 0, 77, 80
2, 65099, Note_on_c, 0, 77, 0
2, 65100, Note_on_c, 0, 77, 80
2, 65159, Note_on_c, 0, 77, 0
2, 65220, Note_on_c, 0, 76, 80
2, 65279, Note_on_c, 0, 76, 0
2, 65280, Note_on_c, 0, 76, 80
2, 65339, Note_on_c, 0, 76, 0
2, 65340, Note_on_c, 0, 76, 80
2, 65399, Note_on_c, 0, 76, 0
2, 65400, Note_on_c, 0, 76, 80
2, 65459, Note_on_c, 0, 76, 0
2, 65460, Note_on_c, 0, 76, 80
2, 65519, Note_on_c, 0, 76, 0
2, 65520, Note_on_c, 0, 85, 80
2, 65579, Note_on_c, 0, 85, 0
2, 65580, Note_on_c, 0, 81, 80
2, 65639, Note_on_c, 0, 81, 0
2, 65880, Note_on_c, 0, 86, 80
2, 65939, Note_on_c, 0, 86, 0
2, 65940, Note_on_c, 0, 81, 80
2, 65999, Note_on_c, 0, 81, 0
2, 66240, Note_on_c, 0, 85, 80
2, 66299, Note_on_c, 0, 85, 0
2, 66300, Note_on_c, 0, 81, 80
2, 66359, Note_on_c, 0, 81, 0
2, 66660, Note_on_c, 0, 81, 80
2, 66719, Note_on_c, 0, 81, 0
2, 66720, Note_on_c, 0, 81, 80
2, 66779, Note_on_c, 0, 81, 0
2, 66780, Note_on_c, 0, 81, 80
2, 66839, Note_on_c, 0, 81, 0
2, 66840, Note_on_c, 0, 81, 80
2, 66899, Note_on_c, 0, 81, 0
2, 66900, Note_on_c, 0, 83, 80
2, 66929, Note_on_c, 0, 83, 0
2, 66930, Note_on_c, 0, 85, 80
2, 66959, Note_on_c, 0, 85, 0
2, 66960, Note_on_c, 0, 86, 80
2, 67019, Note_on_c, 0, 86, 0
2, 67020, Note_on_c, 0, 78, 80
2, 67079, Note_on_c, 0, 78, 0
2, 67080, Note_on_c, 0, 78, 80
2, 67139, Note_on_c, 0, 78, 0
2, 67140, Note_on_c, 0, 78, 80
2, 67199, Note_on_c, 0, 78, 0
2, 67200, Note_on_c, 0, 78, 80
2, 67259, Note_on_c, 0, 78, 0
2, 67260, Note_on_c, 0, 79, 80
2, 67289, Note_on_c, 0, 79, 0
2, 67290, Note_on_c, 0, 81, 80
2, 67319, Note_on_c, 0, 81, 0
2, 67320, Note_on_c, 0, 83, 80
2, 67349, Note_on_c, 0, 83, 0
2, 67350, Note_on_c, 0, 81, 80
2, 67379, Note_on_c, 0, 81, 0
2, 67380, Note_on_c, 0, 83, 80
2, 67409, Note_on_c, 0, 83, 0
2, 67410, Note_on_c, 0, 81, 80
2, 67439, Note_on_c, 0, 81, 0
2, 67440, Note_on_c, 0, 79, 80
2, 67469, Note_on_c, 0, 79, 0
2, 67470, Note_on_c, 0, 78, 80
2, 67499, Note_on_c, 0, 78, 0
2, 67500, Note_on_c, 0, 79, 80
2, 67529, Note_on_c, 0, 79, 0
2, 67530, Note_on_c, 0, 78, 80
2, 67559, Note_on_c, 0, 78, 0
2, 67560, Note_on_c, 0, 76, 80
2, 67589, Note_on_c, 0, 76, 0
2, 67590, Note_on_c, 0, 74, 80
2, 67619, Note_on_c, 0, 74, 0
2, 67620, Note_on_c, 0, 76, 80
2, 67649, Note_on_c, 0, 76, 0
2, 67650, Note_on_c, 0, 74, 80
2, 67679, Note_on_c, 0, 74, 0
2, 67680, Note_on_c, 0, 79, 80
2, 67739, Note_on_c, 0, 79, 0
2, 67740, Note_on_c, 0, 81, 80
2, 67769, Note_on_c, 0, 81, 0
2, 67770, Note_on_c, 0, 79, 80
2, 67799, Note_on_c, 0, 79, 0
2, 67800, Note_on_c, 0, 78, 80
2, 67829, Note_on_c, 0, 78, 0
2, 67830, Note_on_c, 0, 76, 80
2, 67859, Note_on_c, 0, 76, 0
2, 67860, Note_on_c, 0, 74, 80
2, 67889, Note_on_c, 0, 74, 0
2, 67890, Note_on_c, 0, 76, 80
2, 67919, Note_on_c, 0, 76, 0
2, 67920, Note_on_c, 0, 76, 80
2, 68009, Note_on_c, 0, 76, 0
2, 68010, Note_on_c, 0, 74, 80
2, 68039, Note_on_c, 0, 74, 0
2, 68040, Note_on_c, 0, 74, 80
2, 68099, Note_on_c, 0, 74, 0
2, 68100, Note_on_c, 0, 81, 80
2, 68159, Note_on_c, 0, 81, 0
2, 68160, Note_on_c, 0, 81, 80
2, 68219, Note_on_c, 0, 81, 0
2, 68220, Note_on_c, 0, 81, 80
2, 68279, Note_on_c, 0, 81, 0
2, 68280, Note_on_c, 0, 81, 80
2, 68339, Note_on_c, 0, 81, 0
2, 68340, Note_on_c, 0, 79, 80
2, 68369, Note_on_c, 0, 79, 0
2, 68370, Note_on_c, 0, 81, 80
2, 68399, Note_on_c, 0, 81, 0
2, 68400, Note_on_c, 0, 83, 80
2, 68459, Note_on_c, 0, 83, 0
2, 68460, Note_on_c, 0, 83, 80
2, 68519, Note_on_c, 0, 83, 0
2, 68520, Note_on_c, 0, 83, 80
2, 68579, Note_on_c, 0, 83, 0
2, 68580, Note_on_c, 0, 83, 80
2, 68639, Note_on_c, 0, 83, 0
2, 68640, Note_on_c, 0, 83, 80
2, 68699, Note_on_c, 0, 83, 0
2, 68700, Note_on_c, 0, 81, 80
2, 68729, Note_on_c, 0, 81, 0
2, 68730, Note_on_c, 0, 83, 80
2, 68759, Note_on_c, 0, 83, 0
2, 68760, Note_on_c, 0, 84, 80
2, 68819, Note_on_c, 0, 84, 0
2, 68820, Note_on_c, 0, 84, 80
2, 68879, Note_on_c, 0, 84, 0
2, 68880, Note_on_c, 0, 84, 80
2, 68939, Note_on_c, 0, 84, 0
2, 68940, Note_on_c, 0, 84, 80
2, 68999, Note_on_c, 0, 84, 0
2, 69000, Note_on_c, 0, 84, 80
2, 69059, Note_on_c, 0, 84, 0
2, 69060, Note_on_c, 0, 83, 80
2, 69089, Note_on_c, 0, 83, 0
2, 69090, Note_on_c, 0, 81, 80
2, 69119, Note_on_c, 0, 81, 0
2, 69120, Note_on_c, 0, 83, 80
2, 69149, Note_on_c, 0, 83, 0
2, 69150, Note_on_c, 0, 81, 80
2, 69179, Note_on_c, 0, 81, 0
2, 69180, Note_on_c, 0, 83, 80
2, 69209, Note_on_c, 0, 83, 0
2, 69210, Note_on_c, 0, 81, 80
2, 69239, Note_on_c, 0, 81, 0
2, 69240, Note_on_c, 0, 79, 80
2, 69269, Note_on_c, 0, 79, 0
2, 69270, Note_on_c, 0, 78, 80
2, 69299, Note_on_c, 0, 78, 0
2, 69300, Note_on_c, 0, 79, 80
2, 69329, Note_on_c, 0, 79, 0
2, 69330, Note_on_c, 0, 78, 80
2, 69359, Note_on_c, 0, 78, 0
2, 69360, Note_on_c, 0, 76, 80
2, 69389, Note_on_c, 0, 76, 0
2, 69390, Note_on_c, 0, 74, 80
2, 69419, Note_on_c, 0, 74, 0
2, 69420, Note_on_c, 0, 76, 80
2, 69449, Note_on_c, 0, 76, 0
2, 69450, Note_on_c, 0, 74, 80
2, 69479, Note_on_c, 0, 74, 0
2, 69480, Note_on_c, 0, 79, 80
2, 69539, Note_on_c, 0, 79, 0
2, 69540, Note_on_c, 0, 81, 80
2, 69569, Note_on_c, 0, 81, 0
2, 69570, Note_on_c, 0, 79, 80
2, 69599, Note_on_c, 0, 79, 0
2, 69600, Note_on_c, 0, 78, 80
2, 69629, Note_on_c, 0, 78, 0
2, 69630, Note_on_c, 0, 76, 80
2, 69659, Note_on_c, 0, 76, 0
2, 69660, Note_on_c, 0, 74, 80
2, 69689, Note_on_c, 0, 74, 0
2, 69690, Note_on_c, 0, 76, 80
2, 69719, Note_on_c, 0, 76, 0
2, 69720, Note_on_c, 0, 76, 80
2, 69809, Note_on_c, 0, 76, 0
2, 69810, Note_on_c, 0, 74, 80
2, 69839, Note_on_c, 0, 74, 0
2, 69840, Note_on_c, 0, 74, 80
2, 69959, Note_on_c, 0, 74, 0
2, 70560, Note_on_c, 0, 83, 90
2, 70679, Note_on_c, 0, 83, 0
2, 71280, Note_on_c, 0, 84, 90
2, 71399, Note_on_c, 0, 84, 0
2, 71760, Note_on_c, 0, 84, 90
2, 71879, Note_on_c, 0, 84, 0
2, 72720, Note_on_c, 0, 83, 90
2, 72839, Note_on_c, 0, 83, 0
2, 72960, Note_on_c, 0, 81, 90
2, 73079, Note_on_c, 0, 81, 0
2, 73320, Note_on_c, 0, 81, 90
2, 73439, Note_on_c, 0, 81, 0
2, 73440, Note_on_c, 0, 83, 90
2, 73559, Note_on_c, 0, 83, 0
2, 73710, Note_on_c, 0, 85, 90
2, 73739, Note_on_c, 0, 85, 0
2, 73740, Note_on_c, 0, 85, 90
2, 73769, Note_on_c, 0, 85, 0
2, 73770, Note_on_c, 0, 85, 90
2, 73799, Note_on_c, 0, 85, 0
2, 73800, Note_on_c, 0, 85, 90
2, 73859, Note_on_c, 0, 85, 0
2, 74190, Note_on_c, 0, 86, 90
2, 74219, Note_on_c, 0, 86, 0
2, 74220, Note_on_c, 0, 86, 90
2, 74249, Note_on_c, 0, 86, 0
2, 74250, Note_on_c, 0, 86, 90
2, 74279, Note_on_c, 0, 86, 0
2, 74280, Note_on_c, 0, 86, 90
2, 74339, Note_on_c, 0, 86, 0
2, 74910, Note_on_c, 0, 66, 90
2, 74939, Note_on_c, 0, 66, 0
2, 74940, Note_on_c, 0, 66, 90
2, 74969, Note_on_c, 0, 66, 0
2, 74970, Note_on_c, 0, 66, 90
2, 74999, Note_on_c, 0, 66, 0
2, 75000, Note_on_c, 0, 66, 90
2, 75029, Note_on_c, 0, 66, 0
2, 75030, Note_on_c, 0, 66, 90
2, 75059, Note_on_c, 0, 66, 0
2, 75060, Note_on_c, 0, 66, 90
2, 75089, Note_on_c, 0, 66, 0
2, 75090, Note_on_c, 0, 66, 90
2, 75119, Note_on_c, 0, 66, 0
2, 75120, Note_on_c, 0, 66, 90
2, 75179, Note_on_c, 0, 66, 0
2, 75600, Note_on_c, 0, 81, 90
2, 75719, Note_on_c, 0, 81, 0
2, 76590, Note_on_c, 0, 86, 90
2, 76619, Note_on_c, 0, 86, 0
2, 76620, Note_on_c, 0, 86, 90
2, 76649, Note_on_c, 0, 86, 0
2, 76650, Note_on_c, 0, 86, 90
2, 76679, Note_on_c, 0, 86, 0
2, 76680, Note_on_c, 0, 85, 90
2, 76709, Note_on_c, 0, 85, 0
2, 76710, Note_on_c, 0, 85, 90
2, 76739, Note_on_c, 0, 85, 0
2, 76740, Note_on_c, 0, 85, 90
2, 76769, Note_on_c, 0, 85, 0
2, 76770, Note_on_c, 0, 85, 90
2, 76799, Note_on_c, 0, 85, 0
2, 76800, Note_on_c, 0, 86, 90
2, 76829, Note_on_c, 0, 86, 0
2, 76830, Note_on_c, 0, 81, 90
2, 76859, Note_on_c, 0, 81, 0
2, 76860, Note_on_c, 0, 81, 90
2, 76889, Note_on_c, 0, 81, 0
2, 76890, Note_on_c, 0, 78, 90
2, 76919, Note_on_c, 0, 78, 0
2, 76920, Note_on_c, 0, 78, 90
2, 76949, Note_on_c, 0, 78, 0
2, 76950, Note_on_c, 0, 74, 90
2, 76979, Note_on_c, 0, 74, 0
2, 76980, Note_on_c, 0, 74, 90
2, 77009, Note_on_c, 0, 74, 0
2, 77010, Note_on_c, 0, 69, 90
2, 77039, Note_on_c, 0, 69, 0
2, 77040, Note_on_c, 0, 69, 90
2, 77159, Note_on_c, 0, 69, 0
2, 77790, Note_on_c, 0, 85, 90
2, 77819, Note_on_c, 0, 85, 0
2, 77820, Note_on_c, 0, 85, 90
2, 77849, Note_on_c, 0, 85, 0
2, 77850, Note_on_c, 0, 85, 90
2, 77879, Note_on_c, 0, 85, 0
2, 77880, Note_on_c, 0, 85, 90
2, 77909, Note_on_c, 0, 85, 0
2, 77910, Note_on_c, 0, 85, 90
2, 77939, Note_on_c, 0, 85, 0
2, 77940, Note_on_c, 0, 85, 90
2, 77969, Note_on_c, 0, 85, 0
2, 77970, Note_on_c, 0, 85, 90
2, 77999, Note_on_c, 0, 85, 0
2, 78000, Note_on_c, 0, 83, 90
2, 78059, Note_on_c, 0, 83, 0
2, 78270, Note_on_c, 0, 85, 90
2, 78299, Note_on_c, 0, 85, 0
2, 78300, Note_on_c, 0, 85, 90
2, 78329, Note_on_c, 0, 85, 0
2, 78330, Note_on_c, 0, 85, 90
2, 78359, Note_on_c, 0, 85, 0
2, 78360, Note_on_c, 0, 86, 90
2, 78389, Note_on_c, 0, 86, 0
2, 78390, Note_on_c, 0, 86, 90
2, 78419, Note_on_c, 0, 86, 0
2, 78420, Note_on_c, 0, 86, 90
2, 78449, Note_on_c, 0, 86, 0
2, 78450, Note_on_c, 0, 86, 90
2, 78479, Note_on_c, 0, 86, 0
2, 78480, Note_on_c, 0, 85, 90
2, 78509, Note_on_c, 0, 85, 0
2, 78510, Note_on_c, 0, 69, 90
2, 78539, Note_on_c, 0, 69, 0
2, 78540, Note_on_c, 0, 69, 90
2, 78569, Note_on_c, 0, 69, 0
2, 78570, Note_on_c, 0, 69, 90
2, 78599, Note_on_c, 0, 69, 0
2, 78600, Note_on_c, 0, 69, 90
2, 78629, Note_on_c, 0, 69, 0
2, 78630, Note_on_c, 0, 69, 90
2, 78659, Note_on_c, 0, 69, 0
2, 78660, Note_on_c, 0, 69, 90
2, 78689, Note_on_c, 0, 69, 0
2, 78690, Note_on_c, 0, 69, 90
2, 78719, Note_on_c, 0, 69, 0
2, 78720, Note_on_c, 0, 69, 90
2, 78839, Note_on_c, 0, 69, 0
2, 78990, Note_on_c, 0, 66, 90
2, 79019, Note_on_c, 0, 66, 0
2, 79020, Note_on_c, 0, 66, 90
2, 79049, Note_on_c, 0, 66, 0
2, 79050, Note_on_c, 0, 66, 90
2, 79079, Note_on_c, 0, 66, 0
2, 79080, Note_on_c, 0, 66, 90
2, 79139, Note_on_c, 0, 66, 0
2, 79470, Note_on_c, 0, 66, 90
2, 79499, Note_on_c, 0, 66, 0
2, 79500, Note_on_c, 0, 66, 90
2, 79529, Note_on_c, 0, 66, 0
2, 79530, Note_on_c, 0, 66, 90
2, 79559, Note_on_c, 0, 66, 0
2, 79560, Note_on_c, 0, 66, 90
2, 79589, Note_on_c, 0, 66, 0
2, 79590, Note_on_c, 0, 66, 90
2, 79619, Note_on_c, 0, 66, 0
2, 79620, Note_on_c, 0, 66, 90
2, 79649, Note_on_c, 0, 66, 0
2, 79650, Note_on_c, 0, 66, 90
2, 79679, Note_on_c, 0, 66, 0
2, 79680, Note_on_c, 0, 66, 90
2, 79739, Note_on_c, 0, 66, 0
2, 79950, Note_on_c, 0, 83, 90
2, 79979, Note_on_c, 0, 83, 0
2, 79980, Note_on_c, 0, 83, 90
2, 80009, Note_on_c, 0, 83, 0
2, 80010, Note_on_c, 0, 83, 90
2, 80039, Note_on_c, 0, 83, 0
2, 80040, Note_on_c, 0, 83, 90
2, 80099, Note_on_c, 0, 83, 0
2, 235560, Note_on_c, 0, 69, 100
2, 235620, Note_on_c, 0, 69, 0
2, 235620, Note_on_c, 0, 74, 100
2, 235650, Note_on_c, 0, 74, 0
2, 235650, Note_on_c, 0, 76, 100
2, 235680, Note_on_c, 0, 76, 0
2, 235680, Note_on_c, 0, 78, 100
2, 235710, Note_on_c, 0, 78, 0
2, 235710, Note_on_c, 0, 79, 100
2, 235740, Note_on_c, 0, 79, 0
2, 235740, Note_on_c, 0, 81, 100
2, 235770, Note_on_c, 0, 81, 0
2, 235770, Note_on_c, 0, 79, 100
2, 235800, Note_on_c, 0, 79, 0
2, 235800, Note_on_c, 0, 78, 100
2, 235830, Note_on_c, 0, 78, 0
2, 235830, Note_on_c, 0, 79, 100
2, 235860, Note_on_c, 0, 79, 0
2, 235860, Note_on_c, 0, 78, 100
2, 235890, Note_on_c, 0, 78, 0
2, 235890, Note_on_c, 0, 79, 100
2, 235920, Note_on_c, 0, 79, 0
2, 235920, Note_on_c, 0, 81, 100
2, 235950, Note_on_c, 0, 81, 0
2, 235950, Note_on_c, 0, 79, 100
2, 235980, Note_on_c, 0, 79, 0
2, 235980, Note_on_c, 0, 78, 100
2, 236040, Note_on_c, 0, 78, 0
2, 236040, Note_on_c, 0, 74, 100
2, 236100, Note_on_c, 0, 74, 0
2, 236100, Note_on_c, 0, 69, 100
2, 236160, Note_on_c, 0, 69, 0
2, 236160, Note_on_c, 0, 74, 100
2, 236220, Note_on_c, 0, 74, 0
2, 236220, Note_on_c, 0, 69, 100
2, 236280, Note_on_c, 0, 69, 0
2, 236280, Note_on_c, 0, 66, 100
2, 236340, Note_on_c, 0, 66, 0
2, 236340, Note_on_c, 0, 69, 100
2, 236400, Note_on_c, 0, 69, 0
2, 236400, Note_on_c, 0, 74, 100
2, 236460, Note_on_c, 0, 74, 0
2, 236460, Note_on_c, 0, 78, 100
2, 236520, Note_on_c, 0, 78, 0
2, 236520, Note_on_c, 0, 81, 100
2, 236580, Note_on_c, 0, 81, 0
2, 236580, Note_on_c, 0, 86, 100
2, 236640, Note_on_c, 0, 86, 0
2, 236640, Note_on_c, 0, 81, 100
2, 236700, Note_on_c, 0, 81, 0
2, 236700, Note_on_c, 0, 81, 100
2, 236760, Note_on_c, 0, 81, 0
2, 236760, Note_on_c, 0, 83, 100
2, 236790, Note_on_c, 0, 83, 0
2, 236790, Note_on_c, 0, 81, 100
2, 236820, Note_on_c, 0, 81, 0
2, 236820, Note_on_c, 0, 79, 100
2, 236850, Note_on_c, 0, 79, 0
2, 236850, Note_on_c, 0, 78, 100
2, 236880, Note_on_c, 0, 78, 0
2, 236880, Note_on_c, 0, 76, 100
2, 237000, Note_on_c, 0, 76, 0
2, 237000, Note_on_c, 0, 76, 100
2, 237060, Note_on_c, 0, 76, 0
2, 237060, Note_on_c, 0, 81, 100
2, 237090, Note_on_c, 0, 81, 0
2, 237090, Note_on_c, 0, 83, 100
2, 237120, Note_on_c, 0, 83, 0
2, 237120, Note_on_c, 0, 81, 100
2, 237150, Note_on_c, 0, 81, 0
2, 237150, Note_on_c, 0, 83, 100
2, 237180, Note_on_c, 0, 83, 0
2, 237180, Note_on_c, 0, 84, 100
2, 237210, Note_on_c, 0, 84, 0
2, 237210, Note_on_c, 0, 83, 100
2, 237240, Note_on_c, 0, 83, 0
2, 237240, Note_on_c, 0, 81, 100
2, 237300, Note_on_c, 0, 81, 0
2, 237480, Note_on_c, 0, 83, 100
2, 237540, Note_on_c, 0, 83, 0
2, 237540, Note_on_c, 0, 79, 100
2, 237600, Note_on_c, 0, 79, 0
2, 237600, Note_on_c, 0, 79, 100
2, 237660, Note_on_c, 0, 79, 0
2, 237660, Note_on_c, 0, 83, 100
2, 237720, Note_on_c, 0, 83, 0
2, 237720, Note_on_c, 0, 79, 100
2, 237780, Note_on_c, 0, 79, 0
2, 237780, Note_on_c, 0, 79, 100
2, 237810, Note_on_c, 0, 79, 0
2, 237810, Note_on_c, 0, 81, 100
2, 237840, Note_on_c, 0, 81, 0
2, 237840, Note_on_c, 0, 79, 100
2, 237870, Note_on_c, 0, 79, 0
2, 237870, Note_on_c, 0, 81, 100
2, 237900, Note_on_c, 0, 81, 0
2, 237900, Note_on_c, 0, 83, 100
2, 237930, Note_on_c, 0, 83, 0
2, 237930, Note_on_c, 0, 81, 100
2, 237960, Note_on_c, 0, 81, 0
2, 237960, Note_on_c, 0, 79, 100
2, 238020, Note_on_c, 0, 79, 0
2, 238200, Note_on_c, 0, 81, 67
2, 238259, Note_on_c, 0, 81, 0
2, 238260, Note_on_c, 0, 78, 70
2, 238319, Note_on_c, 0, 78, 0
2, 238320, Note_on_c, 0, 78, 74
2, 238379, Note_on_c, 0, 78, 0
2, 238380, Note_on_c, 0, 81, 68
2, 238439, Note_on_c, 0, 81, 0
2, 238440, Note_on_c, 0, 78, 80
2, 238499, Note_on_c, 0, 78, 0
2, 238500, Note_on_c, 0, 83, 73
2, 238679, Note_on_c, 0, 83, 0
2, 238710, Note_on_c, 0, 81, 70
2, 238739, Note_on_c, 0, 81, 0
2, 238740, Note_on_c, 0, 83, 69
2, 238769, Note_on_c, 0, 83, 0
2, 238770, Note_on_c, 0, 85, 66
2, 238799, Note_on_c, 0, 85, 0
2, 238800, Note_on_c, 0, 83, 74
2, 238829, Note_on_c, 0, 83, 0
2, 238830, Note_on_c, 0, 85, 66
2, 238859, Note_on_c, 0, 85, 0
2, 238860, Note_on_c, 0, 81, 76
2, 239039, Note_on_c, 0, 81, 0
2, 239070, Note_on_c, 0, 79, 78
2, 239099, Note_on_c, 0, 79, 0
2, 239100, Note_on_c, 0, 81, 71
2, 239129, Note_on_c, 0, 81, 0
2, 239130, Note_on_c, 0, 83, 71
2, 239159, Note_on_c, 0, 83, 0
2, 239160, Note_on_c, 0, 81, 68
2, 239189, Note_on_c, 0, 81, 0
2, 239190, Note_on_c, 0, 83, 71
2, 239219, Note_on_c, 0, 83, 0
2, 239220, Note_on_c, 0, 79, 74
2, 239399, Note_on_c, 0, 79, 0
2, 239430, Note_on_c, 0, 78, 80
2, 239459, Note_on_c, 0, 78, 0
2, 239460, Note_on_c, 0, 79, 69
2, 239489, Note_on_c, 0, 79, 0
2, 239490, Note_on_c, 0, 81, 70
2, 239519, Note_on_c, 0, 81, 0
2, 239520, Note_on_c, 0, 79, 71
2, 239549, Note_on_c, 0, 79, 0
2, 239550, Note_on_c, 0, 81, 68
2, 239579, Note_on_c, 0, 81, 0
2, 239580, Note_on_c, 0, 78, 72
2, 239639, Note_on_c, 0, 78, 0
2, 239640, Note_on_c, 0, 81, 68
2, 239699, Note_on_c, 0, 81, 0
2, 239700, Note_on_c, 0, 78, 74
2, 239759, Note_on_c, 0, 78, 0
2, 239760, Note_on_c, 0, 74, 63
2, 239819, Note_on_c, 0, 74, 0
2, 239820, Note_on_c, 0, 69, 68
2, 239879, Note_on_c, 0, 69, 0
2, 239880, Note_on_c, 0, 74, 79
2, 239939, Note_on_c, 0, 74, 0
2, 239940, Note_on_c, 0, 76, 58
2, 239969, Note_on_c, 0, 76, 0
2, 239970, Note_on_c, 0, 78, 68
2, 239999, Note_on_c, 0, 78, 0
2, 240000, Note_on_c, 0, 76, 67
2, 240029, Note_on_c, 0, 76, 0
2, 240030, Note_on_c, 0, 78, 67
2, 240059, Note_on_c, 0, 78, 0
2, 240060, Note_on_c, 0, 79, 68
2, 240089, Note_on_c, 0, 79, 0
2, 240090, Note_on_c, 0, 78, 66
2, 240119, Note_on_c, 0, 78, 0
2, 240120, Note_on_c, 0, 76, 74
2, 240179, Note_on_c, 0, 76, 0
2, 240180, Note_on_c, 0, 79, 75
2, 240239, Note_on_c, 0, 79, 0
2, 240300, Note_on_c, 0, 78, 68
2, 240329, Note_on_c, 0, 78, 0
2, 240330, Note_on_c, 0, 79, 67
2, 240359, Note_on_c, 0, 79, 0
2, 240360, Note_on_c, 0, 78, 71
2, 240389, Note_on_c, 0, 78, 0
2, 240390, Note_on_c, 0, 79, 67
2, 240419, Note_on_c, 0, 79, 0
2, 240420, Note_on_c, 0, 81, 56
2, 240449, Note_on_c, 0, 81, 0
2, 240450, Note_on_c, 0, 79, 61
2, 240479, Note_on_c, 0, 79, 0
2, 240480, Note_on_c, 0, 78, 65
2, 240539, Note_on_c, 0, 78, 0
2, 240540, Note_on_c, 0, 81, 54
2, 240599, Note_on_c, 0, 81, 0
2, 240660, Note_on_c, 0, 80, 74
2, 240689, Note_on_c, 0, 80, 0
2, 240690, Note_on_c, 0, 81, 60
2, 240719, Note_on_c, 0, 81, 0
2, 240720, Note_on_c, 0, 80, 65
2, 240749, Note_on_c, 0, 80, 0
2, 240750, Note_on_c, 0, 81, 67
2, 240779, Note_on_c, 0, 81, 0
2, 240780, Note_on_c, 0, 83, 64
2, 240809, Note_on_c, 0, 83, 0
2, 240810, Note_on_c, 0, 80, 69
2, 240839, Note_on_c, 0, 80, 0
2, 240840, Note_on_c, 0, 81, 69
2, 240899, Note_on_c, 0, 81, 0
2, 240900, Note_on_c, 0, 76, 68
2, 240959, Note_on_c, 0, 76, 0
2, 240960, Note_on_c, 0, 78, 79
2, 241049, Note_on_c, 0, 78, 0
2, 241050, Note_on_c, 0, 79, 69
2, 241079, Note_on_c, 0, 79, 0
2, 241080, Note_on_c, 0, 76, 69
2, 241169, Note_on_c, 0, 76, 0
2, 241170, Note_on_c, 0, 74, 72
2, 241199, Note_on_c, 0, 74, 0
2, 241200, Note_on_c, 0, 74, 81
2, 241319, Note_on_c, 0, 74, 0
2, 242040, Note_on_c, 0, 69, 82
2, 242099, Note_on_c, 0, 69, 0
2, 242100, Note_on_c, 0, 74, 70
2, 242129, Note_on_c, 0, 74, 0
2, 242130, Note_on_c, 0, 76, 64
2, 242159, Note_on_c, 0, 76, 0
2, 242160, Note_on_c, 0, 78, 70
2, 242189, Note_on_c, 0, 78, 0
2, 242190, Note_on_c, 0, 79, 59
2, 242219, Note_on_c, 0, 79, 0
2, 242220, Note_on_c, 0, 81, 58
2, 242249, Note_on_c, 0, 81, 0
2, 242250, Note_on_c, 0, 79, 65
2, 242279, Note_on_c, 0, 79, 0
2, 242280, Note_on_c, 0, 78, 70
2, 242309, Note_on_c, 0, 78, 0
2, 242310, Note_on_c, 0, 79, 56
2, 242339, Note_on_c, 0, 79, 0
2, 242340, Note_on_c, 0, 78, 63
2, 242369, Note_on_c, 0, 78, 0
2, 242370, Note_on_c, 0, 79, 57
2, 242399, Note_on_c, 0, 79, 0
2, 242400, Note_on_c, 0, 81, 61
2, 242429, Note_on_c, 0, 81, 0
2, 242430, Note_on_c, 0, 79, 67
2, 242459, Note_on_c, 0, 79, 0
2, 242460, Note_on_c, 0, 78, 73
2, 242519, Note_on_c, 0, 78, 0
2, 242520, Note_on_c, 0, 74, 75
2, 242579, Note_on_c, 0, 74, 0
2, 242580, Note_on_c, 0, 69, 80
2, 242639, Note_on_c, 0, 69, 0
2, 242640, Note_on_c, 0, 74, 75
2, 242699, Note_on_c, 0, 74, 0
2, 242700, Note_on_c, 0, 69, 72
2, 242759, Note_on_c, 0, 69, 0
2, 242760, Note_on_c, 0, 66, 76
2, 242819, Note_on_c, 0, 66, 0
2, 242820, Note_on_c, 0, 69, 79
2, 243059, Note_on_c, 0, 69, 0
2, 244020, Note_on_c, 0, 83, 90
2, 244080, Note_on_c, 0, 83, 0
2, 244080, Note_on_c, 0, 85, 90
2, 244140, Note_on_c, 0, 85, 0
2, 244140, Note_on_c, 0, 81, 90
2, 244200, Note_on_c, 0, 81, 0
2, 244380, Note_on_c, 0, 81, 90
2, 244439, Note_on_c, 0, 81, 0
2, 244440, Note_on_c, 0, 83, 90
2, 244619, Note_on_c, 0, 83, 0
2, 244650, Note_on_c, 0, 80, 90
2, 244679, Note_on_c, 0, 80, 0
2, 244680, Note_on_c, 0, 81, 90
2, 244709, Note_on_c, 0, 81, 0
2, 244710, Note_on_c, 0, 83, 90
2, 244739, Note_on_c, 0, 83, 0
2, 244740, Note_on_c, 0, 85, 90
2, 244769, Note_on_c, 0, 85, 0
2, 244770, Note_on_c, 0, 83, 90
2, 244799, Note_on_c, 0, 83, 0
2, 244800, Note_on_c, 0, 81, 90
2, 244979, Note_on_c, 0, 81, 0
2, 245010, Note_on_c, 0, 78, 90
2, 245039, Note_on_c, 0, 78, 0
2, 245040, Note_on_c, 0, 80, 90
2, 245069, Note_on_c, 0, 80, 0
2, 245070, Note_on_c, 0, 81, 90
2, 245099, Note_on_c, 0, 81, 0
2, 245100, Note_on_c, 0, 83, 90
2, 245129, Note_on_c, 0, 83, 0
2, 245130, Note_on_c, 0, 85, 90
2, 245159, Note_on_c, 0, 85, 0
2, 245160, Note_on_c, 0, 86, 90
2, 245219, Note_on_c, 0, 86, 0
2, 245700, Note_on_c, 0, 83, 90
2, 245729, Note_on_c, 0, 83, 0
2, 245730, Note_on_c, 0, 85, 90
2, 245759, Note_on_c, 0, 85, 0
2, 245760, Note_on_c, 0, 83, 90
2, 245789, Note_on_c, 0, 83, 0
2, 245790, Note_on_c, 0, 85, 90
2, 245819, Note_on_c, 0, 85, 0
2, 245820, Note_on_c, 0, 86, 90
2, 245849, Note_on_c, 0, 86, 0
2, 245850, Note_on_c, 0, 85, 90
2, 245879, Note_on_c, 0, 85, 0
2, 245880, Note_on_c, 0, 83, 90
2, 245939, Note_on_c, 0, 83, 0
2, 245940, Note_on_c, 0, 86, 90
2, 245999, Note_on_c, 0, 86, 0
2, 246060, Note_on_c, 0, 81, 90
2, 246089, Note_on_c, 0, 81, 0
2, 246090, Note_on_c, 0, 83, 90
2, 246119, Note_on_c, 0, 83, 0
2, 246120, Note_on_c, 0, 81, 90
2, 246149, Note_on_c, 0, 81, 0
2, 246150, Note_on_c, 0, 83, 90
2, 246179, Note_on_c, 0, 83, 0
2, 246180, Note_on_c, 0, 85, 90
2, 246209, Note_on_c, 0, 85, 0
2, 246210, Note_on_c, 0, 83, 90
2, 246239, Note_on_c, 0, 83, 0
2, 246240, Note_on_c, 0, 81, 90
2, 246299, Note_on_c, 0, 81, 0
2, 246300, Note_on_c, 0, 85, 90
2, 246359, Note_on_c, 0, 85, 0
2, 246420, Note_on_c, 0, 80, 90
2, 246449, Note_on_c, 0, 80, 0
2, 246450, Note_on_c, 0, 81, 90
2, 246479, Note_on_c, 0, 81, 0
2, 246480, Note_on_c, 0, 80, 90
2, 246509, Note_on_c, 0, 80, 0
2, 246510, Note_on_c, 0, 81, 90
2, 246539, Note_on_c, 0, 81, 0
2, 246540, Note_on_c, 0, 83, 90
2, 246569, Note_on_c, 0, 83, 0
2, 246570, Note_on_c, 0, 81, 90
2, 246599, Note_on_c, 0, 81, 0
2, 246600, Note_on_c, 0, 83, 90
2, 246659, Note_on_c, 0, 83, 0
2, 246660, Note_on_c, 0, 86, 90
2, 246719, Note_on_c, 0, 86, 0
2, 247320, Note_on_c, 0, 76, 90
2, 247349, Note_on_c, 0, 76, 0
2, 247350, Note_on_c, 0, 78, 90
2, 247379, Note_on_c, 0, 78, 0
2, 247380, Note_on_c, 0, 76, 90
2, 247409, Note_on_c, 0, 76, 0
2, 247410, Note_on_c, 0, 78, 90
2, 247439, Note_on_c, 0, 78, 0
2, 247440, Note_on_c, 0, 79, 90
2, 247469, Note_on_c, 0, 79, 0
2, 247470, Note_on_c, 0, 78, 90
2, 247499, Note_on_c, 0, 78, 0
2, 247500, Note_on_c, 0, 76, 90
2, 247559, Note_on_c, 0, 76, 0
2, 247560, Note_on_c, 0, 79, 90
2, 247619, Note_on_c, 0, 79, 0
2, 247680, Note_on_c, 0, 78, 90
2, 247709, Note_on_c, 0, 78, 0
2, 247710, Note_on_c, 0, 79, 90
2, 247739, Note_on_c, 0, 79, 0
2, 247740, Note_on_c, 0, 78, 90
2, 247769, Note_on_c, 0, 78, 0
2, 247770, Note_on_c, 0, 79, 90
2, 247799, Note_on_c, 0, 79, 0
2, 247800, Note_on_c, 0, 81, 90
2, 247829, Note_on_c, 0, 81, 0
2, 247830, Note_on_c, 0, 79, 90
2, 247859, Note_on_c, 0, 79, 0
2, 247860, Note_on_c, 0, 78, 90
2, 247919, Note_on_c, 0, 78, 0
2, 247920, Note_on_c, 0, 81, 90
2, 247979, Note_on_c, 0, 81, 0
2, 248040, Note_on_c, 0, 80, 90
2, 248069, Note_on_c, 0, 80, 0
2, 248070, Note_on_c, 0, 81, 90
2, 248099, Note_on_c, 0, 81, 0
2, 248100, Note_on_c, 0, 80, 90
2, 248129, Note_on_c, 0, 80, 0
2, 248130, Note_on_c, 0, 81, 90
2, 248159, Note_on_c, 0, 81, 0
2, 248160, Note_on_c, 0, 83, 90
2, 248189, Note_on_c, 0, 83, 0
2, 248190, Note_on_c, 0, 80, 90
2, 248219, Note_on_c, 0, 80, 0
2, 248220, Note_on_c, 0, 81, 90
2, 248279, Note_on_c, 0, 81, 0
2, 248280, Note_on_c, 0, 76, 90
2, 248339, Note_on_c, 0, 76, 0
2, 248700, Note_on_c, 0, 76, 90
2, 248759, Note_on_c, 0, 76, 0
2, 248760, Note_on_c, 0, 81, 90
2, 248789, Note_on_c, 0, 81, 0
2, 248790, Note_on_c, 0, 83, 90
2, 248819, Note_on_c, 0, 83, 0
2, 248820, Note_on_c, 0, 81, 90
2, 248849, Note_on_c, 0, 81, 0
2, 248850, Note_on_c, 0, 83, 90
2, 248879, Note_on_c, 0, 83, 0
2, 248880, Note_on_c, 0, 85, 90
2, 248909, Note_on_c, 0, 85, 0
2, 248910, Note_on_c, 0, 83, 90
2, 248939, Note_on_c, 0, 83, 0
2, 248940, Note_on_c, 0, 81, 90
2, 248969, Note_on_c, 0, 81, 0
2, 248970, Note_on_c, 0, 83, 90
2, 248999, Note_on_c, 0, 83, 0
2, 249000, Note_on_c, 0, 81, 90
2, 249029, Note_on_c, 0, 81, 0
2, 249030, Note_on_c, 0, 83, 90
2, 249059, Note_on_c, 0, 83, 0
2, 249060, Note_on_c, 0, 85, 90
2, 249089, Note_on_c, 0, 85, 0
2, 249090, Note_on_c, 0, 81, 90
2, 249119, Note_on_c, 0, 81, 0
2, 249120, Note_on_c, 0, 83, 90
2, 249149, Note_on_c, 0, 83, 0
2, 249150, Note_on_c, 0, 85, 90
2, 249179, Note_on_c, 0, 85, 0
2, 249180, Note_on_c, 0, 83, 90
2, 249209, Note_on_c, 0, 83, 0
2, 249210, Note_on_c, 0, 85, 90
2, 249239, Note_on_c, 0, 85, 0
2, 249240, Note_on_c, 0, 86, 90
2, 249269, Note_on_c, 0, 86, 0
2, 249270, Note_on_c, 0, 85, 90
2, 249299, Note_on_c, 0, 85, 0
2, 249300, Note_on_c, 0, 83, 90
2, 249329, Note_on_c, 0, 83, 0
2, 249330, Note_on_c, 0, 85, 90
2, 249359, Note_on_c, 0, 85, 0
2, 249360, Note_on_c, 0, 83, 90
2, 249389, Note_on_c, 0, 83, 0
2, 249390, Note_on_c, 0, 85, 90
2, 249419, Note_on_c, 0, 85, 0
2, 249420, Note_on_c, 0, 86, 90
2, 249449, Note_on_c, 0, 86, 0
2, 249450, Note_on_c, 0, 83, 90
2, 249479, Note_on_c, 0, 83, 0
2, 249480, Note_on_c, 0, 85, 90
2, 249539, Note_on_c, 0, 85, 0
2, 249540, Note_on_c, 0, 83, 90
2, 249599, Note_on_c, 0, 83, 0
2, 249600, Note_on_c, 0, 86, 90
2, 249720, Note_on_c, 0, 86, 0
2, 249720, Note_on_c, 0, 85, 90
2, 249779, Note_on_c, 0, 85, 0
2, 249780, Note_on_c, 0, 83, 90
2, 249839, Note_on_c, 0, 83, 0
2, 249840, Note_on_c, 0, 85, 90
2, 249899, Note_on_c, 0, 85, 0
2, 249900, Note_on_c, 0, 86, 90
2, 249929, Note_on_c, 0, 86, 0
2, 249930, Note_on_c, 0, 85, 90
2, 249959, Note_on_c, 0, 85, 0
2, 249960, Note_on_c, 0, 83, 90
2, 249989, Note_on_c, 0, 83, 0
2, 249990, Note_on_c, 0, 85, 90
2, 250019, Note_on_c, 0, 85, 0
2, 250020, Note_on_c, 0, 81, 90
2, 250139, Note_on_c, 0, 81, 0
2, 250260, Note_on_c, 0, 69, 90
2, 250320, Note_on_c, 0, 69, 0
2, 250320, Note_on_c, 0, 69, 90
2, 250380, Note_on_c, 0, 69, 0
2, 250380, Note_on_c, 0, 69, 90
2, 250440, Note_on_c, 0, 69, 0
2, 250440, Note_on_c, 0, 69, 90
2, 250500, Note_on_c, 0, 69, 0
2, 250500, Note_on_c, 0, 69, 90
2, 250560, Note_on_c, 0, 69, 0
2, 250980, Note_on_c, 0, 66, 90
2, 251040, Note_on_c, 0, 66, 0
2, 251040, Note_on_c, 0, 66, 90
2, 251100, Note_on_c, 0, 66, 0
2, 251100, Note_on_c, 0, 66, 90
2, 251160, Note_on_c, 0, 66, 0
2, 251160, Note_on_c, 0, 66, 90
2, 251220, Note_on_c, 0, 66, 0
2, 251220, Note_on_c, 0, 66, 90
2, 251280, Note_on_c, 0, 66, 0
2, 251640, Note_on_c, 0, 74, 90
2, 251669, Note_on_c, 0, 74, 0
2, 251670, Note_on_c, 0, 76, 90
2, 251699, Note_on_c, 0, 76, 0
2, 251700, Note_on_c, 0, 74, 90
2, 251729, Note_on_c, 0, 74, 0
2, 251730, Note_on_c, 0, 76, 90
2, 251759, Note_on_c, 0, 76, 0
2, 251760, Note_on_c, 0, 78, 90
2, 251789, Note_on_c, 0, 78, 0
2, 251790, Note_on_c, 0, 76, 90
2, 251819, Note_on_c, 0, 76, 0
2, 251820, Note_on_c, 0, 74, 90
2, 251879, Note_on_c, 0, 74, 0
2, 251880, Note_on_c, 0, 83, 90
2, 251939, Note_on_c, 0, 83, 0
2, 252000, Note_on_c, 0, 76, 90
2, 252029, Note_on_c, 0, 76, 0
2, 252030, Note_on_c, 0, 78, 90
2, 252059, Note_on_c, 0, 78, 0
2, 252060, Note_on_c, 0, 76, 90
2, 252089, Note_on_c, 0, 76, 0
2, 252090, Note_on_c, 0, 78, 90
2, 252119, Note_on_c, 0, 78, 0
2, 252120, Note_on_c, 0, 79, 90
2, 252149, Note_on_c, 0, 79, 0
2, 252150, Note_on_c, 0, 78, 90
2, 252179, Note_on_c, 0, 78, 0
2, 252180, Note_on_c, 0, 76, 90
2, 252239, Note_on_c, 0, 76, 0
2, 252240, Note_on_c, 0, 85, 90
2, 252299, Note_on_c, 0, 85, 0
2, 255180, Note_on_c, 0, 69, 90
2, 255239, Note_on_c, 0, 69, 0
2, 255240, Note_on_c, 0, 74, 90
2, 255269, Note_on_c, 0, 74, 0
2, 255270, Note_on_c, 0, 76, 90
2, 255299, Note_on_c, 0, 76, 0
2, 255300, Note_on_c, 0, 78, 90
2, 255329, Note_on_c, 0, 78, 0
2, 255330, Note_on_c, 0, 79, 90
2, 255359, Note_on_c, 0, 79, 0
2, 255360, Note_on_c, 0, 81, 90
2, 255389, Note_on_c, 0, 81, 0
2, 255390, Note_on_c, 0, 79, 90
2, 255419, Note_on_c, 0, 79, 0
2, 255420, Note_on_c, 0, 78, 90
2, 255449, Note_on_c, 0, 78, 0
2, 255450, Note_on_c, 0, 79, 90
2, 255479, Note_on_c, 0, 79, 0
2, 255480, Note_on_c, 0, 78, 90
2, 255509, Note_on_c, 0, 78, 0
2, 255510, Note_on_c, 0, 79, 90
2, 255539, Note_on_c, 0, 79, 0
2, 255540, Note_on_c, 0, 81, 90
2, 255569, Note_on_c, 0, 81, 0
2, 255570, Note_on_c, 0, 79, 90
2, 255599, Note_on_c, 0, 79, 0
2, 255600, Note_on_c, 0, 78, 90
2, 255659, Note_on_c, 0, 78, 0
2, 255660, Note_on_c, 0, 74, 90
2, 255719, Note_on_c, 0, 74, 0
2, 255720, Note_on_c, 0, 69, 90
2, 255779, Note_on_c, 0, 69, 0
2, 255780, Note_on_c, 0, 74, 90
2, 255839, Note_on_c, 0, 74, 0
2, 255840, Note_on_c, 0, 69, 90
2, 255899, Note_on_c, 0, 69, 0
2, 255900, Note_on_c, 0, 66, 90
2, 255959, Note_on_c, 0, 66, 0
2, 256680, Note_on_c, 0, 76, 90
2, 256709, Note_on_c, 0, 76, 0
2, 256710, Note_on_c, 0, 78, 90
2, 256739, Note_on_c, 0, 78, 0
2, 256740, Note_on_c, 0, 76, 90
2, 256769, Note_on_c, 0, 76, 0
2, 256770, Note_on_c, 0, 78, 90
2, 256799, Note_on_c, 0, 78, 0
2, 256800, Note_on_c, 0, 79, 90
2, 256829, Note_on_c, 0, 79, 0
2, 256830, Note_on_c, 0, 78, 90
2, 256859, Note_on_c, 0, 78, 0
2, 256860, Note_on_c, 0, 76, 90
2, 256919, Note_on_c, 0, 76, 0
2, 256920, Note_on_c, 0, 79, 90
2, 256979, Note_on_c, 0, 79, 0
2, 257040, Note_on_c, 0, 78, 90
2, 257069, Note_on_c, 0, 78, 0
2, 257070, Note_on_c, 0, 79, 90
2, 257099, Note_on_c, 0, 79, 0
2, 257100, Note_on_c, 0, 78, 90
2, 257129, Note_on_c, 0, 78, 0
2, 257130, Note_on_c, 0, 79, 90
2, 257159, Note_on_c, 0, 79, 0
2, 257160, Note_on_c, 0, 81, 90
2, 257189, Note_on_c, 0, 81, 0
2, 257190, Note_on_c, 0, 79, 90
2, 257219, Note_on_c, 0, 79, 0
2, 257220, Note_on_c, 0, 78, 90
2, 257279, Note_on_c, 0, 78, 0
2, 257280, Note_on_c, 0, 81, 90
2, 257339, Note_on_c, 0, 81, 0
2, 257400, Note_on_c, 0, 80, 90
2, 257429, Note_on_c, 0, 80, 0
2, 257430, Note_on_c, 0, 81, 90
2, 257459, Note_on_c, 0, 81, 0
2, 257460, Note_on_c, 0, 80, 90
2, 257489, Note_on_c, 0, 80, 0
2, 257490, Note_on_c, 0, 81, 90
2, 257519, Note_on_c, 0, 81, 0
2, 257520, Note_on_c, 0, 83, 90
2, 257549, Note_on_c, 0, 83, 0
2, 257550, Note_on_c, 0, 80, 90
2, 257579, Note_on_c, 0, 80, 0
2, 257580, Note_on_c, 0, 81, 90
2, 257639, Note_on_c, 0, 81, 0
2, 257640, Note_on_c, 0, 76, 90
2, 257699, Note_on_c, 0, 76, 0
2, 257700, Note_on_c, 0, 78, 90
2, 257789, Note_on_c, 0, 78, 0
2, 257790, Note_on_c, 0, 79, 90
2, 257819, Note_on_c, 0, 79, 0
2, 257820, Note_on_c, 0, 76, 90
2, 257909, Note_on_c, 0, 76, 0
2, 257910, Note_on_c, 0, 74, 90
2, 257939, Note_on_c, 0, 74, 0
2, 257940, Note_on_c, 0, 74, 90
2, 257969, Note_on_c, 0, 74, 0
2, 257970, Note_on_c, 0, 76, 90
2, 257999, Note_on_c, 0, 76, 0
2, 258000, Note_on_c, 0, 74, 90
2, 258029, Note_on_c, 0, 74, 0
2, 258030, Note_on_c, 0, 76, 90
2, 258059, Note_on_c, 0, 76, 0
2, 258060, Note_on_c, 0, 78, 90
2, 258089, Note_on_c, 0, 78, 0
2, 258090, Note_on_c, 0, 76, 90
2, 258119, Note_on_c, 0, 76, 0
2, 258120, Note_on_c, 0, 74, 90
2, 258359, Note_on_c, 0, 74, 0
2, 259320, Note_on_c, 0, 83, 90
2, 259379, Note_on_c, 0, 83, 0
2, 259380, Note_on_c, 0, 85, 90
2, 259439, Note_on_c, 0, 85, 0
2, 259440, Note_on_c, 0, 81, 90
2, 259499, Note_on_c, 0, 81, 0
2, 259500, Note_on_c, 0, 81, 90
2, 259559, Note_on_c, 0, 81, 0
2, 259560, Note_on_c, 0, 81, 90
2, 259739, Note_on_c, 0, 81, 0
2, 259770, Note_on_c, 0, 79, 90
2, 259799, Note_on_c, 0, 79, 0
2, 259800, Note_on_c, 0, 81, 90
2, 259829, Note_on_c, 0, 81, 0
2, 259830, Note_on_c, 0, 83, 90
2, 259859, Note_on_c, 0, 83, 0
2, 259860, Note_on_c, 0, 81, 90
2, 259889, Note_on_c, 0, 81, 0
2, 259890, Note_on_c, 0, 83, 90
2, 259919, Note_on_c, 0, 83, 0
2, 259920, Note_on_c, 0, 79, 90
2, 259949, Note_on_c, 0, 79, 0
2, 259950, Note_on_c, 0, 81, 90
2, 259979, Note_on_c, 0, 81, 0
2, 259980, Note_on_c, 0, 79, 90
2, 260009, Note_on_c, 0, 79, 0
2, 260010, Note_on_c, 0, 81, 90
2, 260039, Note_on_c, 0, 81, 0
2, 260040, Note_on_c, 0, 83, 90
2, 260069, Note_on_c, 0, 83, 0
2, 260070, Note_on_c, 0, 81, 90
2, 260099, Note_on_c, 0, 81, 0
2, 260100, Note_on_c, 0, 79, 90
2, 260129, Note_on_c, 0, 79, 0
2, 260130, Note_on_c, 0, 81, 90
2, 260159, Note_on_c, 0, 81, 0
2, 260160, Note_on_c, 0, 79, 90
2, 260189, Note_on_c, 0, 79, 0
2, 260190, Note_on_c, 0, 81, 90
2, 260219, Note_on_c, 0, 81, 0
2, 260220, Note_on_c, 0, 83, 90
2, 260249, Note_on_c, 0, 83, 0
2, 260250, Note_on_c, 0, 81, 90
2, 260279, Note_on_c, 0, 81, 0
2, 260280, Note_on_c, 0, 79, 90
2, 260459, Note_on_c, 0, 79, 0
2, 260490, Note_on_c, 0, 78, 90
2, 260519, Note_on_c, 0, 78, 0
2, 260520, Note_on_c, 0, 79, 90
2, 260549, Note_on_c, 0, 79, 0
2, 260550, Note_on_c, 0, 81, 90
2, 260579, Note_on_c, 0, 81, 0
2, 260580, Note_on_c, 0, 79, 90
2, 260609, Note_on_c, 0, 79, 0
2, 260610, Note_on_c, 0, 81, 90
2, 260639, Note_on_c, 0, 81, 0
2, 260640, Note_on_c, 0, 79, 90
2, 260669, Note_on_c, 0, 79, 0
2, 260670, Note_on_c, 0, 81, 90
2, 260699, Note_on_c, 0, 81, 0
2, 260700, Note_on_c, 0, 79, 90
2, 260729, Note_on_c, 0, 79, 0
2, 260730, Note_on_c, 0, 81, 90
2, 260759, Note_on_c, 0, 81, 0
2, 260760, Note_on_c, 0, 83, 90
2, 260789, Note_on_c, 0, 83, 0
2, 260790, Note_on_c, 0, 81, 90
2, 260819, Note_on_c, 0, 81, 0
2, 260820, Note_on_c, 0, 79, 90
2, 260849, Note_on_c, 0, 79, 0
2, 260850, Note_on_c, 0, 81, 90
2, 260879, Note_on_c, 0, 81, 0
2, 260880, Note_on_c, 0, 79, 90
2, 260909, Note_on_c, 0, 79, 0
2, 260910, Note_on_c, 0, 81, 90
2, 260939, Note_on_c, 0, 81, 0
2, 260940, Note_on_c, 0, 83, 90
2, 260999, Note_on_c, 0, 83, 0
2, 261060, Note_on_c, 0, 83, 90
2, 261119, Note_on_c, 0, 83, 0
2, 261120, Note_on_c, 0, 79, 90
2, 261179, Note_on_c, 0, 79, 0
2, 261180, Note_on_c, 0, 79, 90
2, 261239, Note_on_c, 0, 79, 0
2, 261240, Note_on_c, 0, 83, 90
2, 261299, Note_on_c, 0, 83, 0
2, 261300, Note_on_c, 0, 76, 90
2, 261359, Note_on_c, 0, 76, 0
2, 261420, Note_on_c, 0, 81, 90
2, 261479, Note_on_c, 0, 81, 0
2, 261480, Note_on_c, 0, 78, 90
2, 261539, Note_on_c, 0, 78, 0
2, 261540, Note_on_c, 0, 78, 90
2, 261599, Note_on_c, 0, 78, 0
2, 261600, Note_on_c, 0, 81, 90
2, 261659, Note_on_c, 0, 81, 0
2, 261660, Note_on_c, 0, 74, 90
2, 261719, Note_on_c, 0, 74, 0
2, 261780, Note_on_c, 0, 79, 90
2, 261839, Note_on_c, 0, 79, 0
2, 261840, Note_on_c, 0, 76, 90
2, 261899, Note_on_c, 0, 76, 0
2, 261900, Note_on_c, 0, 76, 90
2, 261959, Note_on_c, 0, 76, 0
2, 261960, Note_on_c, 0, 79, 90
2, 262019, Note_on_c, 0, 79, 0
2, 262020, Note_on_c, 0, 69, 90
2, 262079, Note_on_c, 0, 69, 0
2, 262140, Note_on_c, 0, 78, 90
2, 262169, Note_on_c, 0, 78, 0
2, 262170, Note_on_c, 0, 79, 90
2, 262199, Note_on_c, 0, 79, 0
2, 262200, Note_on_c, 0, 78, 90
2, 262229, Note_on_c, 0, 78, 0
2, 262230, Note_on_c, 0, 79, 90
2, 262259, Note_on_c, 0, 79, 0
2, 262260, Note_on_c, 0, 81, 90
2, 262319, Note_on_c, 0, 81, 0
2, 262320, Note_on_c, 0, 83, 90
2, 262349, Note_on_c, 0, 83, 0
2, 262350, Note_on_c, 0, 81, 90
2, 262379, Note_on_c, 0, 81, 0
2, 262380, Note_on_c, 0, 79, 90
2, 262409, Note_on_c, 0, 79, 0
2, 262410, Note_on_c, 0, 78, 90
2, 262439, Note_on_c, 0, 78, 0
2, 262440, Note_on_c, 0, 76, 90
2, 262499, Note_on_c, 0, 76, 0
2, 262500, Note_on_c, 0, 79, 90
2, 262559, Note_on_c, 0, 79, 0
2, 262620, Note_on_c, 0, 76, 90
2, 262649, Note_on_c, 0, 76, 0
2, 262650, Note_on_c, 0, 78, 90
2, 262679, Note_on_c, 0, 78, 0
2, 262680, Note_on_c, 0, 76, 90
2, 262709, Note_on_c, 0, 76, 0
2, 262710, Note_on_c, 0, 78, 90
2, 262739, Note_on_c, 0, 78, 0
2, 262740, Note_on_c, 0, 79, 90
2, 262769, Note_on_c, 0, 79, 0
2, 262770, Note_on_c, 0, 76, 90
2, 262799, Note_on_c, 0, 76, 0
2, 262800, Note_on_c, 0, 78, 90
2, 262859, Note_on_c, 0, 78, 0
2, 262860, Note_on_c, 0, 81, 90
2, 262919, Note_on_c, 0, 81, 0
2, 262980, Note_on_c, 0, 78, 90
2, 263009, Note_on_c, 0, 78, 0
2, 263010, Note_on_c, 0, 79, 90
2, 263039, Note_on_c, 0, 79, 0
2, 263040, Note_on_c, 0, 78, 90
2, 263069, Note_on_c, 0, 78, 0
2, 263070, Note_on_c, 0, 79, 90
2, 263099, Note_on_c, 0, 79, 0
2, 263100, Note_on_c, 0, 81, 90
2, 263129, Note_on_c, 0, 81, 0
2, 263130, Note_on_c, 0, 78, 90
2, 263159, Note_on_c, 0, 78, 0
2, 263160, Note_on_c, 0, 83, 90
2, 263189, Note_on_c, 0, 83, 0
2, 263190, Note_on_c, 0, 85, 90
2, 263219, Note_on_c, 0, 85, 0
2, 263220, Note_on_c, 0, 83, 90
2, 263249, Note_on_c, 0, 83, 0
2, 263250, Note_on_c, 0, 85, 90
2, 263279, Note_on_c, 0, 85, 0
2, 263280, Note_on_c, 0, 86, 90
2, 263309, Note_on_c, 0, 86, 0
2, 263310, Note_on_c, 0, 83, 90
2, 263339, Note_on_c, 0, 83, 0
2, 263340, Note_on_c, 0, 85, 90
2, 263369, Note_on_c, 0, 85, 0
2, 263370, Note_on_c, 0, 83, 90
2, 263399, Note_on_c, 0, 83, 0
2, 263400, Note_on_c, 0, 81, 90
2, 263429, Note_on_c, 0, 81, 0
2, 263430, Note_on_c, 0, 79, 90
2, 263459, Note_on_c, 0, 79, 0
2, 263460, Note_on_c, 0, 78, 90
2, 263489, Note_on_c, 0, 78, 0
2, 263490, Note_on_c, 0, 79, 90
2, 263519, Note_on_c, 0, 79, 0
2, 263520, Note_on_c, 0, 81, 90
2, 263549, Note_on_c, 0, 81, 0
2, 263550, Note_on_c, 0, 83, 90
2, 263579, Note_on_c, 0, 83, 0
2, 263580, Note_on_c, 0, 85, 90
2, 263609, Note_on_c, 0, 85, 0
2, 263610, Note_on_c, 0, 86, 90
2, 263639, Note_on_c, 0, 86, 0
2, 263640, Note_on_c, 0, 83, 90
2, 263669, Note_on_c, 0, 83, 0
2, 263670, Note_on_c, 0, 85, 90
2, 263699, Note_on_c, 0, 85, 0
2, 263700, Note_on_c, 0, 86, 90
2, 263759, Note_on_c, 0, 86, 0
2, 265980, Note_on_c, 0, 69, 100
2, 266040, Note_on_c, 0, 69, 0
2, 266040, Note_on_c, 0, 74, 100
2, 266070, Note_on_c, 0, 74, 0
2, 266070, Note_on_c, 0, 76, 100
2, 266100, Note_on_c, 0, 76, 0
2, 266100, Note_on_c, 0, 78, 100
2, 266130, Note_on_c, 0, 78, 0
2, 266130, Note_on_c, 0, 79, 100
2, 266160, Note_on_c, 0, 79, 0
2, 266160, Note_on_c, 0, 81, 100
2, 266190, Note_on_c, 0, 81, 0
2, 266190, Note_on_c, 0, 79, 100
2, 266220, Note_on_c, 0, 79, 0
2, 266220, Note_on_c, 0, 78, 100
2, 266250, Note_on_c, 0, 78, 0
2, 266250, Note_on_c, 0, 79, 100
2, 266280, Note_on_c, 0, 79, 0
2, 266280, Note_on_c, 0, 78, 100
2, 266310, Note_on_c, 0, 78, 0
2, 266310, Note_on_c, 0, 79, 100
2, 266340, Note_on_c, 0, 79, 0
2, 266340, Note_on_c, 0, 81, 100
2, 266370, Note_on_c, 0, 81, 0
2, 266370, Note_on_c, 0, 79, 100
2, 266400, Note_on_c, 0, 79, 0
2, 266400, Note_on_c, 0, 78, 100
2, 266460, Note_on_c, 0, 78, 0
2, 266460, Note_on_c, 0, 74, 100
2, 266520, Note_on_c, 0, 74, 0
2, 266520, Note_on_c, 0, 69, 100
2, 266580, Note_on_c, 0, 69, 0
2, 266580, Note_on_c, 0, 74, 100
2, 266640, Note_on_c, 0, 74, 0
2, 266640, Note_on_c, 0, 69, 100
2, 266700, Note_on_c, 0, 69, 0
2, 266700, Note_on_c, 0, 66, 100
2, 266760, Note_on_c, 0, 66, 0
2, 266760, Note_on_c, 0, 69, 100
2, 266820, Note_on_c, 0, 69, 0
2, 266820, Note_on_c, 0, 74, 100
2, 266880, Note_on_c, 0, 74, 0
2, 266880, Note_on_c, 0, 78, 100
2, 266940, Note_on_c, 0, 78, 0
2, 266940, Note_on_c, 0, 81, 100
2, 267000, Note_on_c, 0, 81, 0
2, 267000, Note_on_c, 0, 86, 100
2, 267060, Note_on_c, 0, 86, 0
2, 267060, Note_on_c, 0, 81, 100
2, 267120, Note_on_c, 0, 81, 0
2, 267120, Note_on_c, 0, 81, 100
2, 267180, Note_on_c, 0, 81, 0
2, 267180, Note_on_c, 0, 83, 100
2, 267210, Note_on_c, 0, 83, 0
2, 267210, Note_on_c, 0, 81, 100
2, 267240, Note_on_c, 0, 81, 0
2, 267240, Note_on_c, 0, 79, 100
2, 267270, Note_on_c, 0, 79, 0
2, 267270, Note_on_c, 0, 78, 100
2, 267300, Note_on_c, 0, 78, 0
2, 267300, Note_on_c, 0, 76, 100
2, 267420, Note_on_c, 0, 76, 0
2, 267420, Note_on_c, 0, 76, 100
2, 267480, Note_on_c, 0, 76, 0
2, 267480, Note_on_c, 0, 81, 100
2, 267510, Note_on_c, 0, 81, 0
2, 267510, Note_on_c, 0, 83, 100
2, 267540, Note_on_c, 0, 83, 0
2, 267540, Note_on_c, 0, 81, 100
2, 267570, Note_on_c, 0, 81, 0
2, 267570, Note_on_c, 0, 83, 100
2, 267600, Note_on_c, 0, 83, 0
2, 267600, Note_on_c, 0, 84, 100
2, 267630, Note_on_c, 0, 84, 0
2, 267630, Note_on_c, 0, 83, 100
2, 267660, Note_on_c, 0, 83, 0
2, 267660, Note_on_c, 0, 81, 100
2, 267720, Note_on_c, 0, 81, 0
2, 267900, Note_on_c, 0, 83, 100
2, 267960, Note_on_c, 0, 83, 0
2, 267960, Note_on_c, 0, 79, 100
2, 268020, Note_on_c, 0, 79, 0
2, 268020, Note_on_c, 0, 79, 100
2, 268080, Note_on_c, 0, 79, 0
2, 268080, Note_on_c, 0, 83, 100
2, 268140, Note_on_c, 0, 83, 0
2, 268140, Note_on_c, 0, 79, 100
2, 268200, Note_on_c, 0, 79, 0
2, 268200, Note_on_c, 0, 79, 100
2, 268230, Note_on_c, 0, 79, 0
2, 268230, Note_on_c, 0, 81, 100
2, 268260, Note_on_c, 0, 81, 0
2, 268260, Note_on_c, 0, 79, 100
2, 268290, Note_on_c, 0, 79, 0
2, 268290, Note_on_c, 0, 81, 100
2, 268320, Note_on_c, 0, 81, 0
2, 268320, Note_on_c, 0, 83, 100
2, 268350, Note_on_c, 0, 83, 0
2, 268350, Note_on_c, 0, 81, 100
2, 268380, Note_on_c, 0, 81, 0
2, 268380, Note_on_c, 0, 79, 100
2, 268440, Note_on_c, 0, 79, 0
2, 268620, Note_on_c, 0, 81, 67
2, 268679, Note_on_c, 0, 81, 0
2, 268680, Note_on_c, 0, 78, 70
2, 268739, Note_on_c, 0, 78, 0
2, 268740, Note_on_c, 0, 78, 74
2, 268799, Note_on_c, 0, 78, 0
2, 268800, Note_on_c, 0, 81, 68
2, 268859, Note_on_c, 0, 81, 0
2, 268860, Note_on_c, 0, 78, 80
2, 268919, Note_on_c, 0, 78, 0
2, 268920, Note_on_c, 0, 83, 73
2, 269099, Note_on_c, 0, 83, 0
2, 269130, Note_on_c, 0, 81, 70
2, 269159, Note_on_c, 0, 81, 0
2, 269160, Note_on_c, 0, 83, 69
2, 269189, Note_on_c, 0, 83, 0
2, 269190, Note_on_c, 0, 85, 66
2, 269219, Note_on_c, 0, 85, 0
2, 269220, Note_on_c, 0, 83, 74
2, 269249, Note_on_c, 0, 83, 0
2, 269250, Note_on_c, 0, 85, 66
2, 269279, Note_on_c, 0, 85, 0
2, 269280, Note_on_c, 0, 81, 76
2, 269459, Note_on_c, 0, 81, 0
2, 269490, Note_on_c, 0, 79, 78
2, 269519, Note_on_c, 0, 79, 0
2, 269520, Note_on_c, 0, 81, 71
2, 269549, Note_on_c, 0, 81, 0
2, 269550, Note_on_c, 0, 83, 71
2, 269579, Note_on_c, 0, 83, 0
2, 269580, Note_on_c, 0, 81, 68
2, 269609, Note_on_c, 0, 81, 0
2, 269610, Note_on_c, 0, 83, 71
2, 269639, Note_on_c, 0, 83, 0
2, 269640, Note_on_c, 0, 79, 74
2, 269819, Note_on_c, 0, 79, 0
2, 269850, Note_on_c, 0, 78, 80
2, 269879, Note_on_c, 0, 78, 0
2, 269880, Note_on_c, 0, 79, 69
2, 269909, Note_on_c, 0, 79, 0
2, 269910, Note_on_c, 0, 81, 70
2, 269939, Note_on_c, 0, 81, 0
2, 269940, Note_on_c, 0, 79, 71
2, 269969, Note_on_c, 0, 79, 0
2, 269970, Note_on_c, 0, 81, 68
2, 269999, Note_on_c, 0, 81, 0
2, 270000, Note_on_c, 0, 78, 72
2, 270059, Note_on_c, 0, 78, 0
2, 270060, Note_on_c, 0, 81, 68
2, 270119, Note_on_c, 0, 81, 0
2, 270120, Note_on_c, 0, 78, 74
2, 270179, Note_on_c, 0, 78, 0
2, 270180, Note_on_c, 0, 74, 63
2, 270239, Note_on_c, 0, 74, 0
2, 270240, Note_on_c, 0, 69, 68
2, 270299, Note_on_c, 0, 69, 0
2, 270300, Note_on_c, 0, 74, 79
2, 270359, Note_on_c, 0, 74, 0
2, 270360, Note_on_c, 0, 76, 58
2, 270389, Note_on_c, 0, 76, 0
2, 270390, Note_on_c, 0, 78, 68
2, 270419, Note_on_c, 0, 78, 0
2, 270420, Note_on_c, 0, 76, 67
2, 270449, Note_on_c, 0, 76, 0
2, 270450, Note_on_c, 0, 78, 67
2, 270479, Note_on_c, 0, 78, 0
2, 270480, Note_on_c, 0, 79, 68
2, 270509, Note_on_c, 0, 79, 0
2, 270510, Note_on_c, 0, 78, 66
2, 270539, Note_on_c, 0, 78, 0
2, 270540, Note_on_c, 0, 76, 74
2, 270599, Note_on_c, 0, 76, 0
2, 270600, Note_on_c, 0, 79, 75
2, 270659, Note_on_c, 0, 79, 0
2, 270720, Note_on_c, 0, 78, 68
2, 270749, Note_on_c, 0, 78, 0
2, 270750, Note_on_c, 0, 79, 67
2, 270779, Note_on_c, 0, 79, 0
2, 270780, Note_on_c, 0, 78, 71
2, 270809, Note_on_c, 0, 78, 0
2, 270810, Note_on_c, 0, 79, 67
2, 270839, Note_on_c, 0, 79, 0
2, 270840, Note_on_c, 0, 81, 56
2, 270869, Note_on_c, 0, 81, 0
2, 270870, Note_on_c, 0, 79, 61
2, 270899, Note_on_c, 0, 79, 0
2, 270900, Note_on_c, 0, 78, 65
2, 270959, Note_on_c, 0, 78, 0
2, 270960, Note_on_c, 0, 81, 54
2, 271019, Note_on_c, 0, 81, 0
2, 271080, Note_on_c, 0, 80, 74
2, 271109, Note_on_c, 0, 80, 0
2, 271110, Note_on_c, 0, 81, 60
2, 271139, Note_on_c, 0, 81, 0
2, 271140, Note_on_c, 0, 80, 65
2, 271169, Note_on_c, 0, 80, 0
2, 271170, Note_on_c, 0, 81, 67
2, 271199, Note_on_c, 0, 81, 0
2, 271200, Note_on_c, 0, 83, 64
2, 271229, Note_on_c, 0, 83, 0
2, 271230, Note_on_c, 0, 80, 69
2, 271259, Note_on_c, 0, 80, 0
2, 271260, Note_on_c, 0, 81, 69
2, 271319, Note_on_c, 0, 81, 0
2, 271320, Note_on_c, 0, 76, 68
2, 271379, Note_on_c, 0, 76, 0
2, 271380, Note_on_c, 0, 78, 79
2, 271469, Note_on_c, 0, 78, 0
2, 271470, Note_on_c, 0, 79, 69
2, 271499, Note_on_c, 0, 79, 0
2, 271500, Note_on_c, 0, 76, 69
2, 271589, Note_on_c, 0, 76, 0
2, 271590, Note_on_c, 0, 74, 72
2, 271619, Note_on_c, 0, 74, 0
2, 271620, Note_on_c, 0, 74, 81
2, 271739, Note_on_c, 0, 74, 0
2, 321060, Note_on_c, 0, 86, 90
2, 321299, Note_on_c, 0, 86, 0
2, 321300, Note_on_c, 0, 81, 90
2, 321539, Note_on_c, 0, 81, 0
2, 322500, Note_on_c, 0, 86, 90
2, 322739, Note_on_c, 0, 86, 0
2, 322740, Note_on_c, 0, 81, 90
2, 322979, Note_on_c, 0, 81, 0
2, 323940, Note_on_c, 0, 86, 90
2, 324179, Note_on_c, 0, 86, 0
2, 324180, Note_on_c, 0, 81, 90
2, 324419, Note_on_c, 0, 81, 0
2, 324420, Note_on_c, 0, 78, 90
2, 324538, Note_on_c, 0, 78, 0
2, 324540, Note_on_c, 0, 74, 90
2, 324658, Note_on_c, 0, 74, 0
2, 324660, Note_on_c, 0, 81, 90
2, 324778, Note_on_c, 0, 81, 0
2, 324780, Note_on_c, 0, 78, 90
2, 324898, Note_on_c, 0, 78, 0
2, 324900, Note_on_c, 0, 86, 90
2, 325018, Note_on_c, 0, 86, 0
2, 325020, Note_on_c, 0, 81, 90
2, 325138, Note_on_c, 0, 81, 0
2, 325140, Note_on_c, 0, 78, 90
2, 325258, Note_on_c, 0, 78, 0
2, 325260, Note_on_c, 0, 74, 90
2, 325378, Note_on_c, 0, 74, 0
2, 325380, Note_on_c, 0, 81, 90
2, 325498, Note_on_c, 0, 81, 0
2, 325500, Note_on_c, 0, 81, 90
2, 325559, Note_on_c, 0, 81, 0
2, 325560, Note_on_c, 0, 79, 90
2, 325619, Note_on_c, 0, 79, 0
2, 325620, Note_on_c, 0, 83, 90
2, 325739, Note_on_c, 0, 83, 0
2, 325740, Note_on_c, 0, 81, 90
2, 325799, Note_on_c, 0, 81, 0
2, 325800, Note_on_c, 0, 79, 90
2, 325859, Note_on_c, 0, 79, 0
2, 325860, Note_on_c, 0, 81, 90
2, 325979, Note_on_c, 0, 81, 0
2, 325980, Note_on_c, 0, 79, 90
2, 326039, Note_on_c, 0, 79, 0
2, 326040, Note_on_c, 0, 78, 90
2, 326099, Note_on_c, 0, 78, 0
2, 326100, Note_on_c, 0, 76, 90
2, 326339, Note_on_c, 0, 76, 0
2, 326340, Note_on_c, 0, 85, 90
2, 326579, Note_on_c, 0, 85, 0
2, 326580, Note_on_c, 0, 81, 90
2, 326819, Note_on_c, 0, 81, 0
2, 327780, Note_on_c, 0, 85, 90
2, 328019, Note_on_c, 0, 85, 0
2, 328020, Note_on_c, 0, 81, 90
2, 328259, Note_on_c, 0, 81, 0
2, 329220, Note_on_c, 0, 85, 90
2, 329459, Note_on_c, 0, 85, 0
2, 329460, Note_on_c, 0, 81, 90
2, 329699, Note_on_c, 0, 81, 0
2, 329700, Note_on_c, 0, 69, 90
2, 329819, Note_on_c, 0, 69, 0
2, 329820, Note_on_c, 0, 69, 90
2, 329939, Note_on_c, 0, 69, 0
2, 329940, Note_on_c, 0, 69, 90
2, 330059, Note_on_c, 0, 69, 0
2, 330060, Note_on_c, 0, 69, 90
2, 330179, Note_on_c, 0, 69, 0
2, 330180, Note_on_c, 0, 69, 90
2, 330299, Note_on_c, 0, 69, 0
2, 330300, Note_on_c, 0, 69, 90
2, 330419, Note_on_c, 0, 69, 0
2, 330420, Note_on_c, 0, 69, 90
2, 330539, Note_on_c, 0, 69, 0
2, 330540, Note_on_c, 0, 69, 90
2, 330659, Note_on_c, 0, 69, 0
2, 330660, Note_on_c, 0, 74, 90
2, 330719, Note_on_c, 0, 74, 0
2, 330720, Note_on_c, 0, 76, 90
2, 330779, Note_on_c, 0, 76, 0
2, 330780, Note_on_c, 0, 78, 90
2, 330839, Note_on_c, 0, 78, 0
2, 330840, Note_on_c, 0, 79, 90
2, 330899, Note_on_c, 0, 79, 0
2, 330900, Note_on_c, 0, 81, 90
2, 331019, Note_on_c, 0, 81, 0
2, 331020, Note_on_c, 0, 83, 90
2, 331079, Note_on_c, 0, 83, 0
2, 331080, Note_on_c, 0, 81, 90
2, 331139, Note_on_c, 0, 81, 0
2, 331140, Note_on_c, 0, 79, 90
2, 331199, Note_on_c, 0, 79, 0
2, 331200, Note_on_c, 0, 78, 90
2, 331259, Note_on_c, 0, 78, 0
2, 331260, Note_on_c, 0, 76, 90
2, 331319, Note_on_c, 0, 76, 0
2, 331320, Note_on_c, 0, 78, 90
2, 331379, Note_on_c, 0, 78, 0
2, 331380, Note_on_c, 0, 74, 90
2, 331439, Note_on_c, 0, 74, 0
2, 331440, Note_on_c, 0, 76, 90
2, 331499, Note_on_c, 0, 76, 0
2, 331500, Note_on_c, 0, 74, 90
2, 331559, Note_on_c, 0, 74, 0
2, 331560, Note_on_c, 0, 76, 90
2, 331619, Note_on_c, 0, 76, 0
2, 331620, Note_on_c, 0, 78, 90
2, 331679, Note_on_c, 0, 78, 0
2, 331680, Note_on_c, 0, 79, 90
2, 331739, Note_on_c, 0, 79, 0
2, 331740, Note_on_c, 0, 78, 90
2, 331799, Note_on_c, 0, 78, 0
2, 331800, Note_on_c, 0, 79, 90
2, 331859, Note_on_c, 0, 79, 0
2, 331860, Note_on_c, 0, 81, 90
2, 332099, Note_on_c, 0, 81, 0
2, 333540, Note_on_c, 0, 62, 90
2, 333659, Note_on_c, 0, 62, 0
2, 333660, Note_on_c, 0, 62, 90
2, 333779, Note_on_c, 0, 62, 0
2, 333780, Note_on_c, 0, 62, 90
2, 333899, Note_on_c, 0, 62, 0
2, 333900, Note_on_c, 0, 62, 90
2, 334019, Note_on_c, 0, 62, 0
2, 334020, Note_on_c, 0, 62, 90
2, 334139, Note_on_c, 0, 62, 0
2, 334140, Note_on_c, 0, 62, 90
2, 334259, Note_on_c, 0, 62, 0
2, 334260, Note_on_c, 0, 62, 90
2, 334379, Note_on_c, 0, 62, 0
2, 334380, Note_on_c, 0, 62, 90
2, 334499, Note_on_c, 0, 62, 0
2, 334500, Note_on_c, 0, 86, 90
2, 334739, Note_on_c, 0, 86, 0
2, 334740, Note_on_c, 0, 81, 90
2, 334979, Note_on_c, 0, 81, 0
2, 334980, Note_on_c, 0, 78, 90
2, 335099, Note_on_c, 0, 78, 0
2, 335100, Note_on_c, 0, 74, 90
2, 335219, Note_on_c, 0, 74, 0
2, 335220, Note_on_c, 0, 81, 90
2, 335339, Note_on_c, 0, 81, 0
2, 335340, Note_on_c, 0, 78, 90
2, 335459, Note_on_c, 0, 78, 0
2, 335460, Note_on_c, 0, 86, 90
2, 335579, Note_on_c, 0, 86, 0
2, 335580, Note_on_c, 0, 81, 90
2, 335699, Note_on_c, 0, 81, 0
2, 335700, Note_on_c, 0, 78, 90
2, 335819, Note_on_c, 0, 78, 0
2, 335820, Note_on_c, 0, 74, 90
2, 335939, Note_on_c, 0, 74, 0
2, 335940, Note_on_c, 0, 81, 90
2, 336059, Note_on_c, 0, 81, 0
2, 336060, Note_on_c, 0, 81, 90
2, 336119, Note_on_c, 0, 81, 0
2, 336120, Note_on_c, 0, 79, 90
2, 336179, Note_on_c, 0, 79, 0
2, 336180, Note_on_c, 0, 83, 90
2, 336299, Note_on_c, 0, 83, 0
2, 336300, Note_on_c, 0, 81, 90
2, 336359, Note_on_c, 0, 81, 0
2, 336360, Note_on_c, 0, 79, 90
2, 336419, Note_on_c, 0, 79, 0
2, 336420, Note_on_c, 0, 81, 90
2, 336539, Note_on_c, 0, 81, 0
2, 336540, Note_on_c, 0, 79, 90
2, 336599, Note_on_c, 0, 79, 0
2, 336600, Note_on_c, 0, 78, 90
2, 336659, Note_on_c, 0, 78, 0
2, 336660, Note_on_c, 0, 76, 90
2, 336899, Note_on_c, 0, 76, 0
2, 337380, Note_on_c, 0, 76, 90
2, 337499, Note_on_c, 0, 76, 0
2, 337500, Note_on_c, 0, 76, 90
2, 337619, Note_on_c, 0, 76, 0
2, 337620, Note_on_c, 0, 76, 90
2, 337739, Note_on_c, 0, 76, 0
2, 337740, Note_on_c, 0, 76, 90
2, 337859, Note_on_c, 0, 76, 0
2, 337860, Note_on_c, 0, 76, 90
2, 337979, Note_on_c, 0, 76, 0
2, 337980, Note_on_c, 0, 76, 90
2, 338099, Note_on_c, 0, 76, 0
2, 338100, Note_on_c, 0, 76, 90
2, 338219, Note_on_c, 0, 76, 0
2, 338220, Note_on_c, 0, 76, 90
2, 338339, Note_on_c, 0, 76, 0
2, 338340, Note_on_c, 0, 81, 90
2, 338399, Note_on_c, 0, 81, 0
2, 338400, Note_on_c, 0, 83, 90
2, 338459, Note_on_c, 0, 83, 0
2, 338460, Note_on_c, 0, 81, 90
2, 338519, Note_on_c, 0, 81, 0
2, 338520, Note_on_c, 0, 83, 90
2, 338579, Note_on_c, 0, 83, 0
2, 338580, Note_on_c, 0, 85, 90
2, 338819, Note_on_c, 0, 85, 0
2, 338820, Note_on_c, 0, 69, 90
2, 338939, Note_on_c, 0, 69, 0
2, 338940, Note_on_c, 0, 69, 90
2, 339059, Note_on_c, 0, 69, 0
2, 339060, Note_on_c, 0, 69, 90
2, 339179, Note_on_c, 0, 69, 0
2, 339180, Note_on_c, 0, 69, 90
2, 339299, Note_on_c, 0, 69, 0
2, 339300, Note_on_c, 0, 69, 90
2, 339419, Note_on_c, 0, 69, 0
2, 339420, Note_on_c, 0, 69, 90
2, 339539, Note_on_c, 0, 69, 0
2, 339540, Note_on_c, 0, 69, 90
2, 339659, Note_on_c, 0, 69, 0
2, 339660, Note_on_c, 0, 69, 90
2, 339779, Note_on_c, 0, 69, 0
2, 339780, Note_on_c, 0, 85, 90
2, 340019, Note_on_c, 0, 85, 0
2, 340020, Note_on_c, 0, 81, 90
2, 340259, Note_on_c, 0, 81, 0
2, 340260, Note_on_c, 0, 69, 90
2, 340379, Note_on_c, 0, 69, 0
2, 340380, Note_on_c, 0, 69, 90
2, 340499, Note_on_c, 0, 69, 0
2, 340500, Note_on_c, 0, 69, 90
2, 340619, Note_on_c, 0, 69, 0
2, 340620, Note_on_c, 0, 69, 90
2, 340739, Note_on_c, 0, 69, 0
2, 340740, Note_on_c, 0, 69, 90
2, 340859, Note_on_c, 0, 69, 0
2, 340860, Note_on_c, 0, 69, 90
2, 340979, Note_on_c, 0, 69, 0
2, 340980, Note_on_c, 0, 69, 90
2, 341099, Note_on_c, 0, 69, 0
2, 341100, Note_on_c, 0, 69, 90
2, 341219, Note_on_c, 0, 69, 0
2, 341220, Note_on_c, 0, 74, 90
2, 341279, Note_on_c, 0, 74, 0
2, 341280, Note_on_c, 0, 76, 90
2, 341339, Note_on_c, 0, 76, 0
2, 341340, Note_on_c, 0, 78, 90
2, 341399, Note_on_c, 0, 78, 0
2, 341400, Note_on_c, 0, 79, 90
2, 341459, Note_on_c, 0, 79, 0
2, 341460, Note_on_c, 0, 81, 90
2, 341579, Note_on_c, 0, 81, 0
2, 341580, Note_on_c, 0, 83, 90
2, 341639, Note_on_c, 0, 83, 0
2, 341640, Note_on_c, 0, 81, 90
2, 341699, Note_on_c, 0, 81, 0
2, 341700, Note_on_c, 0, 79, 90
2, 341759, Note_on_c, 0, 79, 0
2, 341760, Note_on_c, 0, 78, 90
2, 341819, Note_on_c, 0, 78, 0
2, 341820, Note_on_c, 0, 76, 90
2, 341879, Note_on_c, 0, 76, 0
2, 341880, Note_on_c, 0, 78, 90
2, 341939, Note_on_c, 0, 78, 0
2, 341940, Note_on_c, 0, 74, 90
2, 342179, Note_on_c, 0, 74, 0
2, 347940, Note_on_c, 0, 86, 90
2, 348179, Note_on_c, 0, 86, 0
2, 348180, Note_on_c, 0, 81, 90
2, 348419, Note_on_c, 0, 81, 0
2, 349380, Note_on_c, 0, 86, 90
2, 349619, Note_on_c, 0, 86, 0
2, 349620, Note_on_c, 0, 81, 90
2, 349859, Note_on_c, 0, 81, 0
2, 349860, Note_on_c, 0, 81, 90
2, 349979, Note_on_c, 0, 81, 0
2, 349980, Note_on_c, 0, 81, 90
2, 350039, Note_on_c, 0, 81, 0
2, 350040, Note_on_c, 0, 79, 90
2, 350099, Note_on_c, 0, 79, 0
2, 350100, Note_on_c, 0, 83, 90
2, 350219, Note_on_c, 0, 83, 0
2, 350220, Note_on_c, 0, 81, 90
2, 350279, Note_on_c, 0, 81, 0
2, 350280, Note_on_c, 0, 79, 90
2, 350339, Note_on_c, 0, 79, 0
2, 350340, Note_on_c, 0, 81, 90
2, 350459, Note_on_c, 0, 81, 0
2, 350460, Note_on_c, 0, 81, 90
2, 350519, Note_on_c, 0, 81, 0
2, 350520, Note_on_c, 0, 79, 90
2, 350579, Note_on_c, 0, 79, 0
2, 350580, Note_on_c, 0, 83, 90
2, 350699, Note_on_c, 0, 83, 0
2, 350700, Note_on_c, 0, 81, 90
2, 350759, Note_on_c, 0, 81, 0
2, 350760, Note_on_c, 0, 79, 90
2, 350819, Note_on_c, 0, 79, 0
2, 350820, Note_on_c, 0, 86, 90
2, 351059, Note_on_c, 0, 86, 0
2, 351060, Note_on_c, 0, 81, 90
2, 351299, Note_on_c, 0, 81, 0
2, 351300, Note_on_c, 0, 78, 90
2, 351419, Note_on_c, 0, 78, 0
2, 351420, Note_on_c, 0, 74, 90
2, 351539, Note_on_c, 0, 74, 0
2, 351540, Note_on_c, 0, 81, 90
2, 351659, Note_on_c, 0, 81, 0
2, 351660, Note_on_c, 0, 78, 90
2, 351779, Note_on_c, 0, 78, 0
2, 351780, Note_on_c, 0, 86, 90
2, 351899, Note_on_c, 0, 86, 0
2, 351900, Note_on_c, 0, 81, 90
2, 352019, Note_on_c, 0, 81, 0
2, 352020, Note_on_c, 0, 78, 90
2, 352139, Note_on_c, 0, 78, 0
2, 352140, Note_on_c, 0, 74, 90
2, 352259, Note_on_c, 0, 74, 0
2, 352260, Note_on_c, 0, 81, 90
2, 352379, Note_on_c, 0, 81, 0
2, 352380, Note_on_c, 0, 81, 90
2, 352439, Note_on_c, 0, 81, 0
2, 352440, Note_on_c, 0, 79, 90
2, 352499, Note_on_c, 0, 79, 0
2, 352500, Note_on_c, 0, 83, 90
2, 352619, Note_on_c, 0, 83, 0
2, 352620, Note_on_c, 0, 81, 90
2, 352679, Note_on_c, 0, 81, 0
2, 352680, Note_on_c, 0, 79, 90
2, 352739, Note_on_c, 0, 79, 0
2, 352740, Note_on_c, 0, 81, 90
2, 352859, Note_on_c, 0, 81, 0
2, 352860, Note_on_c, 0, 79, 90
2, 352919, Note_on_c, 0, 79, 0
2, 352920, Note_on_c, 0, 78, 90
2, 352979, Note_on_c, 0, 78, 0
2, 352980, Note_on_c, 0, 76, 90
2, 353219, Note_on_c, 0, 76, 0
2, 353220, Note_on_c, 0, 85, 90
2, 353459, Note_on_c, 0, 85, 0
2, 353460, Note_on_c, 0, 81, 90
2, 353699, Note_on_c, 0, 81, 0
2, 354660, Note_on_c, 0, 85, 90
2, 354899, Note_on_c, 0, 85, 0
2, 354900, Note_on_c, 0, 81, 90
2, 355139, Note_on_c, 0, 81, 0
2, 355140, Note_on_c, 0, 69, 90
2, 355259, Note_on_c, 0, 69, 0
2, 355260, Note_on_c, 0, 69, 90
2, 355379, Note_on_c, 0, 69, 0
2, 355380, Note_on_c, 0, 69, 90
2, 355499, Note_on_c, 0, 69, 0
2, 355500, Note_on_c, 0, 69, 90
2, 355619, Note_on_c, 0, 69, 0
2, 355620, Note_on_c, 0, 69, 90
2, 355739, Note_on_c, 0, 69, 0
2, 355740, Note_on_c, 0, 69, 90
2, 355859, Note_on_c, 0, 69, 0
2, 355860, Note_on_c, 0, 69, 90
2, 355979, Note_on_c, 0, 69, 0
2, 355980, Note_on_c, 0, 69, 90
2, 356099, Note_on_c, 0, 69, 0
2, 356100, Note_on_c, 0, 85, 90
2, 356339, Note_on_c, 0, 85, 0
2, 356340, Note_on_c, 0, 81, 90
2, 356579, Note_on_c, 0, 81, 0
2, 356580, Note_on_c, 0, 79, 90
2, 356639, Note_on_c, 0, 79, 0
2, 356640, Note_on_c, 0, 78, 90
2, 356699, Note_on_c, 0, 78, 0
2, 356700, Note_on_c, 0, 79, 90
2, 356759, Note_on_c, 0, 79, 0
2, 356760, Note_on_c, 0, 78, 90
2, 356819, Note_on_c, 0, 78, 0
2, 356820, Note_on_c, 0, 76, 90
2, 356879, Note_on_c, 0, 76, 0
2, 356880, Note_on_c, 0, 78, 90
2, 356939, Note_on_c, 0, 78, 0
2, 356940, Note_on_c, 0, 76, 90
2, 356999, Note_on_c, 0, 76, 0
2, 357000, Note_on_c, 0, 78, 90
2, 357059, Note_on_c, 0, 78, 0
2, 357060, Note_on_c, 0, 79, 90
2, 357119, Note_on_c, 0, 79, 0
2, 357120, Note_on_c, 0, 78, 90
2, 357179, Note_on_c, 0, 78, 0
2, 357180, Note_on_c, 0, 79, 90
2, 357239, Note_on_c, 0, 79, 0
2, 357240, Note_on_c, 0, 78, 90
2, 357299, Note_on_c, 0, 78, 0
2, 357300, Note_on_c, 0, 76, 90
2, 357359, Note_on_c, 0, 76, 0
2, 357360, Note_on_c, 0, 78, 90
2, 357419, Note_on_c, 0, 78, 0
2, 357420, Note_on_c, 0, 76, 90
2, 357479, Note_on_c, 0, 76, 0
2, 357480, Note_on_c, 0, 78, 90
2, 357539, Note_on_c, 0, 78, 0
2, 357540, Note_on_c, 0, 74, 90
2, 357599, Note_on_c, 0, 74, 0
2, 357600, Note_on_c, 0, 76, 90
2, 357659, Note_on_c, 0, 76, 0
2, 357660, Note_on_c, 0, 78, 90
2, 357719, Note_on_c, 0, 78, 0
2, 357720, Note_on_c, 0, 79, 90
2, 357779, Note_on_c, 0, 79, 0
2, 357780, Note_on_c, 0, 81, 90
2, 357899, Note_on_c, 0, 81, 0
2, 357900, Note_on_c, 0, 83, 90
2, 357959, Note_on_c, 0, 83, 0
2, 357960, Note_on_c, 0, 81, 90
2, 358019, Note_on_c, 0, 81, 0
2, 358020, Note_on_c, 0, 79, 90
2, 358079, Note_on_c, 0, 79, 0
2, 358080, Note_on_c, 0, 78, 90
2, 358139, Note_on_c, 0, 78, 0
2, 358140, Note_on_c, 0, 76, 90
2, 358199, Note_on_c, 0, 76, 0
2, 358200, Note_on_c, 0, 78, 90
2, 358259, Note_on_c, 0, 78, 0
2, 358260, Note_on_c, 0, 74, 90
2, 358499, Note_on_c, 0, 74, 0
2, 359460, Note_on_c, 0, 81, 90
2, 359519, Note_on_c, 0, 81, 0
2, 359520, Note_on_c, 0, 83, 90
2, 359579, Note_on_c, 0, 83, 0
2, 359580, Note_on_c, 0, 81, 90
2, 359639, Note_on_c, 0, 81, 0
2, 359640, Note_on_c, 0, 83, 90
2, 359699, Note_on_c, 0, 83, 0
2, 359700, Note_on_c, 0, 85, 90
2, 359939, Note_on_c, 0, 85, 0
2, 364260, Note_on_c, 0, 86, 90
2, 364499, Note_on_c, 0, 86, 0
2, 364500, Note_on_c, 0, 81, 90
2, 364739, Note_on_c, 0, 81, 0
2, 365700, Note_on_c, 0, 86, 90
2, 365939, Note_on_c, 0, 86, 0
2, 365940, Note_on_c, 0, 81, 90
2, 366179, Note_on_c, 0, 81, 0
2, 367140, Note_on_c, 0, 86, 90
2, 367379, Note_on_c, 0, 86, 0
2, 367380, Note_on_c, 0, 81, 90
2, 367619, Note_on_c, 0, 81, 0
2, 367620, Note_on_c, 0, 78, 90
2, 367738, Note_on_c, 0, 78, 0
2, 367740, Note_on_c, 0, 74, 90
2, 367858, Note_on_c, 0, 74, 0
2, 367860, Note_on_c, 0, 81, 90
2, 367978, Note_on_c, 0, 81, 0
2, 367980, Note_on_c, 0, 78, 90
2, 368098, Note_on_c, 0, 78, 0
2, 368100, Note_on_c, 0, 86, 90
2, 368218, Note_on_c, 0, 86, 0
2, 368220, Note_on_c, 0, 81, 90
2, 368338, Note_on_c, 0, 81, 0
2, 368340, Note_on_c, 0, 78, 90
2, 368458, Note_on_c, 0, 78, 0
2, 368460, Note_on_c, 0, 74, 90
2, 368578, Note_on_c, 0, 74, 0
2, 368580, Note_on_c, 0, 81, 90
2, 368698, Note_on_c, 0, 81, 0
2, 368700, Note_on_c, 0, 81, 90
2, 368759, Note_on_c, 0, 81, 0
2, 368760, Note_on_c, 0, 79, 90
2, 368819, Note_on_c, 0, 79, 0
2, 368820, Note_on_c, 0, 83, 90
2, 368939, Note_on_c, 0, 83, 0
2, 368940, Note_on_c, 0, 81, 90
2, 368999, Note_on_c, 0, 81, 0
2, 369000, Note_on_c, 0, 79, 90
2, 369059, Note_on_c, 0, 79, 0
2, 369060, Note_on_c, 0, 81, 90
2, 369179, Note_on_c, 0, 81, 0
2, 369180, Note_on_c, 0, 79, 90
2, 369239, Note_on_c, 0, 79, 0
2, 369240, Note_on_c, 0, 78, 90
2, 369299, Note_on_c, 0, 78, 0
2, 369300, Note_on_c, 0, 76, 90
2, 369539, Note_on_c, 0, 76, 0
2, 369540, Note_on_c, 0, 85, 90
2, 369779, Note_on_c, 0, 85, 0
2, 369780, Note_on_c, 0, 81, 90
2, 370019, Note_on_c, 0, 81, 0
2, 370980, Note_on_c, 0, 85, 90
2, 371219, Note_on_c, 0, 85, 0
2, 371220, Note_on_c, 0, 81, 90
2, 371459, Note_on_c, 0, 81, 0
2, 372420, Note_on_c, 0, 85, 90
2, 372659, Note_on_c, 0, 85, 0
2, 372660, Note_on_c, 0, 81, 90
2, 372899, Note_on_c, 0, 81, 0
2, 372900, Note_on_c, 0, 69, 90
2, 373019, Note_on_c, 0, 69, 0
2, 373020, Note_on_c, 0, 69, 90
2, 373139, Note_on_c, 0, 69, 0
2, 373140, Note_on_c, 0, 69, 90
2, 373259, Note_on_c, 0, 69, 0
2, 373260, Note_on_c, 0, 69, 90
2, 373379, Note_on_c, 0, 69, 0
2, 373380, Note_on_c, 0, 69, 90
2, 373499, Note_on_c, 0, 69, 0
2, 373500, Note_on_c, 0, 69, 90
2, 373619, Note_on_c, 0, 69, 0
2, 373620, Note_on_c, 0, 69, 90
2, 373739, Note_on_c, 0, 69, 0
2, 373740, Note_on_c, 0, 69, 90
2, 373859, Note_on_c, 0, 69, 0
2, 373860, Note_on_c, 0, 74, 90
2, 373919, Note_on_c, 0, 74, 0
2, 373920, Note_on_c, 0, 76, 90
2, 373979, Note_on_c, 0, 76, 0
2, 373980, Note_on_c, 0, 78, 90
2, 374039, Note_on_c, 0, 78, 0
2, 374040, Note_on_c, 0, 79, 90
2, 374099, Note_on_c, 0, 79, 0
2, 374100, Note_on_c, 0, 81, 90
2, 374219, Note_on_c, 0, 81, 0
2, 374220, Note_on_c, 0, 83, 90
2, 374279, Note_on_c, 0, 83, 0
2, 374280, Note_on_c, 0, 81, 90
2, 374339, Note_on_c, 0, 81, 0
2, 374340, Note_on_c, 0, 79, 90
2, 374399, Note_on_c, 0, 79, 0
2, 374400, Note_on_c, 0, 78, 90
2, 374459, Note_on_c, 0, 78, 0
2, 374460, Note_on_c, 0, 76, 90
2, 374519, Note_on_c, 0, 76, 0
2, 374520, Note_on_c, 0, 78, 90
2, 374579, Note_on_c, 0, 78, 0
2, 374580, Note_on_c, 0, 74, 90
2, 374639, Note_on_c, 0, 74, 0
2, 374640, Note_on_c, 0, 76, 90
2, 374699, Note_on_c, 0, 76, 0
2, 374700, Note_on_c, 0, 74, 90
2, 374759, Note_on_c, 0, 74, 0
2, 374760, Note_on_c, 0, 76, 90
2, 374819, Note_on_c, 0, 76, 0
2, 374820, Note_on_c, 0, 78, 90
2, 374879, Note_on_c, 0, 78, 0
2, 374880, Note_on_c, 0, 79, 90
2, 374939, Note_on_c, 0, 79, 0
2, 374940, Note_on_c, 0, 78, 90
2, 374999, Note_on_c, 0, 78, 0
2, 375000, Note_on_c, 0, 79, 90
2, 375059, Note_on_c, 0, 79, 0
2, 375060, Note_on_c, 0, 81, 90
2, 375299, Note_on_c, 0, 81, 0
2, 376740, Note_on_c, 0, 62, 90
2, 376859, Note_on_c, 0, 62, 0
2, 376860, Note_on_c, 0, 62, 90
2, 376979, Note_on_c, 0, 62, 0
2, 376980, Note_on_c, 0, 62, 90
2, 377099, Note_on_c, 0, 62, 0
2, 377100, Note_on_c, 0, 62, 90
2, 377219, Note_on_c, 0, 62, 0
2, 377220, Note_on_c, 0, 62, 90
2, 377339, Note_on_c, 0, 62, 0
2, 377340, Note_on_c, 0, 62, 90
2, 377459, Note_on_c, 0, 62, 0
2, 377460, Note_on_c, 0, 62, 90
2, 377579, Note_on_c, 0, 62, 0
2, 377580, Note_on_c, 0, 62, 90
2, 377699, Note_on_c, 0, 62, 0
2, 377700, Note_on_c, 0, 86, 90
2, 377939, Note_on_c, 0, 86, 0
2, 377940, Note_on_c, 0, 81, 90
2, 378179, Note_on_c, 0, 81, 0
2, 378180, Note_on_c, 0, 78, 90
2, 378299, Note_on_c, 0, 78, 0
2, 378300, Note_on_c, 0, 74, 90
2, 378419, Note_on_c, 0, 74, 0
2, 378420, Note_on_c, 0, 81, 90
2, 378539, Note_on_c, 0, 81, 0
2, 378540, Note_on_c, 0, 78, 90
2, 378659, Note_on_c, 0, 78, 0
2, 378660, Note_on_c, 0, 86, 90
2, 378779, Note_on_c, 0, 86, 0
2, 378780, Note_on_c, 0, 81, 90
2, 378899, Note_on_c, 0, 81, 0
2, 378900, Note_on_c, 0, 78, 90
2, 379019, Note_on_c, 0, 78, 0
2, 379020, Note_on_c, 0, 74, 90
2, 379139, Note_on_c, 0, 74, 0
2, 379140, Note_on_c, 0, 81, 90
2, 379259, Note_on_c, 0, 81, 0
2, 379260, Note_on_c, 0, 81, 90
2, 379319, Note_on_c, 0, 81, 0
2, 379320, Note_on_c, 0, 79, 90
2, 379379, Note_on_c, 0, 79, 0
2, 379380, Note_on_c, 0, 83, 90
2, 379499, Note_on_c, 0, 83, 0
2, 379500, Note_on_c, 0, 81, 90
2, 379559, Note_on_c, 0, 81, 0
2, 379560, Note_on_c, 0, 79, 90
2, 379619, Note_on_c, 0, 79, 0
2, 379620, Note_on_c, 0, 81, 90
2, 379739, Note_on_c, 0, 81, 0
2, 379740, Note_on_c, 0, 79, 90
2, 379799, Note_on_c, 0, 79, 0
2, 379800, Note_on_c, 0, 78, 90
2, 379859, Note_on_c, 0, 78, 0
2, 379860, Note_on_c, 0, 76, 90
2, 380099, Note_on_c, 0, 76, 0
2, 380580, Note_on_c, 0, 76, 90
2, 380699, Note_on_c, 0, 76, 0
2, 380700, Note_on_c, 0, 76, 90
2, 380819, Note_on_c, 0, 76, 0
2, 380820, Note_on_c, 0, 76, 90
2, 380939, Note_on_c, 0, 76, 0
2, 380940, Note_on_c, 0, 76, 90
2, 381059, Note_on_c, 0, 76, 0
2, 381060, Note_on_c, 0, 76, 90
2, 381179, Note_on_c, 0, 76, 0
2, 381180, Note_on_c, 0, 76, 90
2, 381299, Note_on_c, 0, 76, 0
2, 381300, Note_on_c, 0, 76, 90
2, 381419, Note_on_c, 0, 76, 0
2, 381420, Note_on_c, 0, 76, 90
2, 381539, Note_on_c, 0, 76, 0
2, 381540, Note_on_c, 0, 81, 90
2, 381599, Note_on_c, 0, 81, 0
2, 381600, Note_on_c, 0, 83, 90
2, 381659, Note_on_c, 0, 83, 0
2, 381660, Note_on_c, 0, 81, 90
2, 381719, Note_on_c, 0, 81, 0
2, 381720, Note_on_c, 0, 83, 90
2, 381779, Note_on_c, 0, 83, 0
2, 381780, Note_on_c, 0, 85, 90
2, 382019, Note_on_c, 0, 85, 0
2, 382020, Note_on_c, 0, 69, 90
2, 382139, Note_on_c, 0, 69, 0
2, 382140, Note_on_c, 0, 69, 90
2, 382259, Note_on_c, 0, 69, 0
2, 382260, Note_on_c, 0, 69, 90
2, 382379, Note_on_c, 0, 69, 0
2, 382380, Note_on_c, 0, 69, 90
2, 382499, Note_on_c, 0, 69, 0
2, 382500, Note_on_c, 0, 69, 90
2, 382619, Note_on_c, 0, 69, 0
2, 382620, Note_on_c, 0, 69, 90
2, 382739, Note_on_c, 0, 69, 0
2, 382740, Note_on_c, 0, 69, 90
2, 382859, Note_on_c, 0, 69, 0
2, 382860, Note_on_c, 0, 69, 90
2, 382979, Note_on_c, 0, 69, 0
2, 382980, Note_on_c, 0, 85, 90
2, 383219, Note_on_c, 0, 85, 0
2, 383220, Note_on_c, 0, 81, 90
2, 383459, Note_on_c, 0, 81, 0
2, 383460, Note_on_c, 0, 69, 90
2, 383579, Note_on_c, 0, 69, 0
2, 383580, Note_on_c, 0, 69, 90
2, 383699, Note_on_c, 0, 69, 0
2, 383700, Note_on_c, 0, 69, 90
2, 383819, Note_on_c, 0, 69, 0
2, 383820, Note_on_c, 0, 69, 90
2, 383939, Note_on_c, 0, 69, 0
2, 383940, Note_on_c, 0, 69, 90
2, 384059, Note_on_c, 0, 69, 0
2, 384060, Note_on_c, 0, 69, 90
2, 384179, Note_on_c, 0, 69, 0
2, 384180, Note_on_c, 0, 69, 90
2, 384299, Note_on_c, 0, 69, 0
2, 384300, Note_on_c, 0, 69, 90
2, 384419, Note_on_c, 0, 69, 0
2, 384420, Note_on_c, 0, 74, 90
2, 384479, Note_on_c, 0, 74, 0
2, 384480, Note_on_c, 0, 76, 90
2, 384539, Note_on_c, 0, 76, 0
2, 384540, Note_on_c, 0, 78, 90
2, 384599, Note_on_c, 0, 78, 0
2, 384600, Note_on_c, 0, 79, 90
2, 384659, Note_on_c, 0, 79, 0
2, 384660, Note_on_c, 0, 81, 90
2, 384779, Note_on_c, 0, 81, 0
2, 384780, Note_on_c, 0, 83, 90
2, 384839, Note_on_c, 0, 83, 0
2, 384840, Note_on_c, 0, 81, 90
2, 384899, Note_on_c, 0, 81, 0
2, 384900, Note_on_c, 0, 79, 90
2, 384959, Note_on_c, 0, 79, 0
2, 384960, Note_on_c, 0, 78, 90
2, 385019, Note_on_c, 0, 78, 0
2, 385020, Note_on_c, 0, 76, 90
2, 385079, Note_on_c, 0, 76, 0
2, 385080, Note_on_c, 0, 78, 90
2, 385139, Note_on_c, 0, 78, 0
2, 385140, Note_on_c, 0, 74, 90
2, 385379, Note_on_c, 0, 74, 0
2, 385379, End_track
3, 0, Start_track
3, 0, MIDI_port, 0
3, 0, Title_t, "tromp ii"
3, 0, Program_c, 1, 56
3, 0, Note_on_c, 1, 69, 80
3, 60, Note_on_c, 1, 69, 0
3, 60, Note_on_c, 1, 66, 80
3, 120, Note_on_c, 1, 66, 0
3, 360, Note_on_c, 1, 74, 80
3, 420, Note_on_c, 1, 74, 0
3, 420, Note_on_c, 1, 69, 80
3, 480, Note_on_c, 1, 69, 0
3, 720, Note_on_c, 1, 78, 80
3, 780, Note_on_c, 1, 78, 0
3, 780, Note_on_c, 1, 74, 80
3, 840, Note_on_c, 1, 74, 0
3, 1080, Note_on_c, 1, 81, 80
3, 1140, Note_on_c, 1, 81, 0
3, 1140, Note_on_c, 1, 78, 80
3, 1200, Note_on_c, 1, 78, 0
3, 1500, Note_on_c, 1, 78, 80
3, 1559, Note_on_c, 1, 78, 0
3, 1560, Note_on_c, 1, 78, 80
3, 1619, Note_on_c, 1, 78, 0
3, 1620, Note_on_c, 1, 78, 80
3, 1679, Note_on_c, 1, 78, 0
3, 1680, Note_on_c, 1, 78, 80
3, 1739, Note_on_c, 1, 78, 0
3, 1740, Note_on_c, 1, 78, 80
3, 1799, Note_on_c, 1, 78, 0
3, 1860, Note_on_c, 1, 74, 80
3, 1919, Note_on_c, 1, 74, 0
3, 1920, Note_on_c, 1, 74, 80
3, 1979, Note_on_c, 1, 74, 0
3, 1980, Note_on_c, 1, 74, 80
3, 2039, Note_on_c, 1, 74, 0
3, 2040, Note_on_c, 1, 74, 80
3, 2099, Note_on_c, 1, 74, 0
3, 2100, Note_on_c, 1, 74, 80
3, 2159, Note_on_c, 1, 74, 0
3, 2220, Note_on_c, 1, 83, 80
3, 2279, Note_on_c, 1, 83, 0
3, 2280, Note_on_c, 1, 83, 80
3, 2339, Note_on_c, 1, 83, 0
3, 2340, Note_on_c, 1, 83, 80
3, 2399, Note_on_c, 1, 83, 0
3, 2400, Note_on_c, 1, 83, 80
3, 2459, Note_on_c, 1, 83, 0
3, 2460, Note_on_c, 1, 83, 80
3, 2519, Note_on_c, 1, 83, 0
3, 2580, Note_on_c, 1, 85, 80
3, 2609, Note_on_c, 1, 85, 0
3, 2610, Note_on_c, 1, 83, 80
3, 2639, Note_on_c, 1, 83, 0
3, 2640, Note_on_c, 1, 81, 80
3, 2699, Note_on_c, 1, 81, 0
3, 2700, Note_on_c, 1, 81, 80
3, 2759, Note_on_c, 1, 81, 0
3, 2760, Note_on_c, 1, 80, 80
3, 2849, Note_on_c, 1, 80, 0
3, 2850, Note_on_c, 1, 81, 80
3, 2879, Note_on_c, 1, 81, 0
3, 2880, Note_on_c, 1, 81, 80
3, 2999, Note_on_c, 1, 81, 0
3, 5040, Note_on_c, 1, 74, 80
3, 5099, Note_on_c, 1, 74, 0
3, 5100, Note_on_c, 1, 69, 80
3, 5159, Note_on_c, 1, 69, 0
3, 5760, Note_on_c, 1, 76, 80
3, 5819, Note_on_c, 1, 76, 0
3, 5820, Note_on_c, 1, 69, 80
3, 5879, Note_on_c, 1, 69, 0
3, 6540, Note_on_c, 1, 74, 80
3, 6599, Note_on_c, 1, 74, 0
3, 6600, Note_on_c, 1, 74, 80
3, 6659, Note_on_c, 1, 74, 0
3, 6660, Note_on_c, 1, 74, 80
3, 6719, Note_on_c, 1, 74, 0
3, 6720, Note_on_c, 1, 74, 80
3, 6779, Note_on_c, 1, 74, 0
3, 6780, Note_on_c, 1, 74, 80
3, 6839, Note_on_c, 1, 74, 0
3, 6900, Note_on_c, 1, 83, 80
3, 6959, Note_on_c, 1, 83, 0
3, 6960, Note_on_c, 1, 83, 80
3, 7019, Note_on_c, 1, 83, 0
3, 7020, Note_on_c, 1, 83, 80
3, 7079, Note_on_c, 1, 83, 0
3, 7080, Note_on_c, 1, 83, 80
3, 7139, Note_on_c, 1, 83, 0
3, 7140, Note_on_c, 1, 83, 80
3, 7199, Note_on_c, 1, 83, 0
3, 7260, Note_on_c, 1, 83, 80
3, 7319, Note_on_c, 1, 83, 0
3, 7320, Note_on_c, 1, 83, 80
3, 7379, Note_on_c, 1, 83, 0
3, 7380, Note_on_c, 1, 83, 80
3, 7439, Note_on_c, 1, 83, 0
3, 7440, Note_on_c, 1, 83, 80
3, 7499, Note_on_c, 1, 83, 0
3, 7500, Note_on_c, 1, 83, 80
3, 7559, Note_on_c, 1, 83, 0
3, 7560, Note_on_c, 1, 76, 80
3, 7619, Note_on_c, 1, 76, 0
3, 7620, Note_on_c, 1, 69, 80
3, 7679, Note_on_c, 1, 69, 0
3, 7920, Note_on_c, 1, 81, 80
3, 7979, Note_on_c, 1, 81, 0
3, 7980, Note_on_c, 1, 78, 80
3, 8039, Note_on_c, 1, 78, 0
3, 8280, Note_on_c, 1, 81, 80
3, 8339, Note_on_c, 1, 81, 0
3, 8340, Note_on_c, 1, 76, 80
3, 8399, Note_on_c, 1, 76, 0
3, 8700, Note_on_c, 1, 78, 80
3, 8759, Note_on_c, 1, 78, 0
3, 8760, Note_on_c, 1, 78, 80
3, 8819, Note_on_c, 1, 78, 0
3, 8820, Note_on_c, 1, 78, 80
3, 8879, Note_on_c, 1, 78, 0
3, 8880, Note_on_c, 1, 78, 80
3, 8939, Note_on_c, 1, 78, 0
3, 8940, Note_on_c, 1, 78, 80
3, 8999, Note_on_c, 1, 78, 0
3, 9060, Note_on_c, 1, 74, 80
3, 9119, Note_on_c, 1, 74, 0
3, 9120, Note_on_c, 1, 74, 80
3, 9179, Note_on_c, 1, 74, 0
3, 9180, Note_on_c, 1, 74, 80
3, 9239, Note_on_c, 1, 74, 0
3, 9240, Note_on_c, 1, 74, 80
3, 9299, Note_on_c, 1, 74, 0
3, 9300, Note_on_c, 1, 74, 80
3, 9359, Note_on_c, 1, 74, 0
3, 9420, Note_on_c, 1, 74, 80
3, 9479, Note_on_c, 1, 74, 0
3, 9480, Note_on_c, 1, 76, 80
3, 9509, Note_on_c, 1, 76, 0
3, 9510, Note_on_c, 1, 78, 80
3, 9539, Note_on_c, 1, 78, 0
3, 9540, Note_on_c, 1, 76, 80
3, 9569, Note_on_c, 1, 76, 0
3, 9570, Note_on_c, 1, 78, 80
3, 9599, Note_on_c, 1, 78, 0
3, 9600, Note_on_c, 1, 79, 80
3, 9629, Note_on_c, 1, 79, 0
3, 9630, Note_on_c, 1, 81, 80
3, 9659, Note_on_c, 1, 81, 0
3, 9660, Note_on_c, 1, 78, 80
3, 9689, Note_on_c, 1, 78, 0
3, 9690, Note_on_c, 1, 79, 80
3, 9719, Note_on_c, 1, 79, 0
3, 9720, Note_on_c, 1, 81, 80
3, 9749, Note_on_c, 1, 81, 0
3, 9750, Note_on_c, 1, 79, 80
3, 9779, Note_on_c, 1, 79, 0
3, 9780, Note_on_c, 1, 78, 80
3, 9809, Note_on_c, 1, 78, 0
3, 9810, Note_on_c, 1, 76, 80
3, 9839, Note_on_c, 1, 76, 0
3, 9840, Note_on_c, 1, 74, 80
3, 9899, Note_on_c, 1, 74, 0
3, 9900, Note_on_c, 1, 69, 80
3, 9959, Note_on_c, 1, 69, 0
3, 9960, Note_on_c, 1, 69, 80
3, 10049, Note_on_c, 1, 69, 0
3, 10050, Note_on_c, 1, 69, 80
3, 10079, Note_on_c, 1, 69, 0
3, 10080, Note_on_c, 1, 69, 80
3, 10139, Note_on_c, 1, 69, 0
3, 10140, Note_on_c, 1, 66, 80
3, 10199, Note_on_c, 1, 66, 0
3, 10440, Note_on_c, 1, 83, 80
3, 10499, Note_on_c, 1, 83, 0
3, 10500, Note_on_c, 1, 78, 80
3, 10559, Note_on_c, 1, 78, 0
3, 10800, Note_on_c, 1, 66, 80
3, 10859, Note_on_c, 1, 66, 0
3, 10860, Note_on_c, 1, 62, 80
3, 10919, Note_on_c, 1, 62, 0
3, 11160, Note_on_c, 1, 79, 80
3, 11219, Note_on_c, 1, 79, 0
3, 11220, Note_on_c, 1, 74, 80
3, 11279, Note_on_c, 1, 74, 0
3, 11580, Note_on_c, 1, 78, 80
3, 11639, Note_on_c, 1, 78, 0
3, 11640, Note_on_c, 1, 78, 80
3, 11699, Note_on_c, 1, 78, 0
3, 11700, Note_on_c, 1, 78, 80
3, 11759, Note_on_c, 1, 78, 0
3, 11760, Note_on_c, 1, 78, 80
3, 11819, Note_on_c, 1, 78, 0
3, 11820, Note_on_c, 1, 76, 80
3, 11879, Note_on_c, 1, 76, 0
3, 11880, Note_on_c, 1, 76, 80
3, 11939, Note_on_c, 1, 76, 0
3, 11940, Note_on_c, 1, 69, 80
3, 11999, Note_on_c, 1, 69, 0
3, 12240, Note_on_c, 1, 81, 80
3, 12299, Note_on_c, 1, 81, 0
3, 12300, Note_on_c, 1, 78, 80
3, 12359, Note_on_c, 1, 78, 0
3, 12600, Note_on_c, 1, 81, 80
3, 12659, Note_on_c, 1, 81, 0
3, 12660, Note_on_c, 1, 76, 80
3, 12719, Note_on_c, 1, 76, 0
3, 13020, Note_on_c, 1, 78, 80
3, 13079, Note_on_c, 1, 78, 0
3, 13080, Note_on_c, 1, 78, 80
3, 13139, Note_on_c, 1, 78, 0
3, 13140, Note_on_c, 1, 78, 80
3, 13199, Note_on_c, 1, 78, 0
3, 13200, Note_on_c, 1, 78, 80
3, 13259, Note_on_c, 1, 78, 0
3, 13260, Note_on_c, 1, 78, 80
3, 13319, Note_on_c, 1, 78, 0
3, 13380, Note_on_c, 1, 74, 80
3, 13439, Note_on_c, 1, 74, 0
3, 13440, Note_on_c, 1, 74, 80
3, 13499, Note_on_c, 1, 74, 0
3, 13500, Note_on_c, 1, 74, 80
3, 13559, Note_on_c, 1, 74, 0
3, 13560, Note_on_c, 1, 74, 80
3, 13619, Note_on_c, 1, 74, 0
3, 13620, Note_on_c, 1, 74, 80
3, 13679, Note_on_c, 1, 74, 0
3, 13740, Note_on_c, 1, 74, 80
3, 13799, Note_on_c, 1, 74, 0
3, 13800, Note_on_c, 1, 76, 80
3, 13829, Note_on_c, 1, 76, 0
3, 13830, Note_on_c, 1, 78, 80
3, 13859, Note_on_c, 1, 78, 0
3, 13860, Note_on_c, 1, 76, 80
3, 13889, Note_on_c, 1, 76, 0
3, 13890, Note_on_c, 1, 78, 80
3, 13919, Note_on_c, 1, 78, 0
3, 13920, Note_on_c, 1, 79, 80
3, 13949, Note_on_c, 1, 79, 0
3, 13950, Note_on_c, 1, 81, 80
3, 13979, Note_on_c, 1, 81, 0
3, 13980, Note_on_c, 1, 78, 80
3, 14009, Note_on_c, 1, 78, 0
3, 14010, Note_on_c, 1, 79, 80
3, 14039, Note_on_c, 1, 79, 0
3, 14040, Note_on_c, 1, 81, 80
3, 14069, Note_on_c, 1, 81, 0
3, 14070, Note_on_c, 1, 79, 80
3, 14099, Note_on_c, 1, 79, 0
3, 14100, Note_on_c, 1, 78, 80
3, 14129, Note_on_c, 1, 78, 0
3, 14130, Note_on_c, 1, 76, 80
3, 14159, Note_on_c, 1, 76, 0
3, 14160, Note_on_c, 1, 78, 80
3, 14219, Note_on_c, 1, 78, 0
3, 14220, Note_on_c, 1, 69, 80
3, 14279, Note_on_c, 1, 69, 0
3, 14280, Note_on_c, 1, 69, 80
3, 14369, Note_on_c, 1, 69, 0
3, 14370, Note_on_c, 1, 69, 80
3, 14399, Note_on_c, 1, 69, 0
3, 14400, Note_on_c, 1, 69, 80
3, 14459, Note_on_c, 1, 69, 0
3, 14520, Note_on_c, 1, 66, 80
3, 14579, Note_on_c, 1, 66, 0
3, 14580, Note_on_c, 1, 62, 80
3, 14639, Note_on_c, 1, 62, 0
3, 14880, Note_on_c, 1, 69, 80
3, 14939, Note_on_c, 1, 69, 0
3, 14940, Note_on_c, 1, 66, 80
3, 14999, Note_on_c, 1, 66, 0
3, 15240, Note_on_c, 1, 74, 80
3, 15299, Note_on_c, 1, 74, 0
3, 15300, Note_on_c, 1, 69, 80
3, 15359, Note_on_c, 1, 69, 0
3, 15540, Note_on_c, 1, 66, 80
3, 15599, Note_on_c, 1, 66, 0
3, 15600, Note_on_c, 1, 66, 80
3, 15659, Note_on_c, 1, 66, 0
3, 15660, Note_on_c, 1, 69, 80
3, 15719, Note_on_c, 1, 69, 0
3, 15720, Note_on_c, 1, 69, 80
3, 15779, Note_on_c, 1, 69, 0
3, 15780, Note_on_c, 1, 74, 80
3, 15839, Note_on_c, 1, 74, 0
3, 15840, Note_on_c, 1, 74, 80
3, 15899, Note_on_c, 1, 74, 0
3, 15900, Note_on_c, 1, 78, 80
3, 15959, Note_on_c, 1, 78, 0
3, 15960, Note_on_c, 1, 78, 80
3, 16019, Note_on_c, 1, 78, 0
3, 16020, Note_on_c, 1, 78, 80
3, 16079, Note_on_c, 1, 78, 0
3, 16080, Note_on_c, 1, 78, 80
3, 16139, Note_on_c, 1, 78, 0
3, 16140, Note_on_c, 1, 78, 80
3, 16199, Note_on_c, 1, 78, 0
3, 16260, Note_on_c, 1, 74, 80
3, 16319, Note_on_c, 1, 74, 0
3, 16320, Note_on_c, 1, 74, 80
3, 16379, Note_on_c, 1, 74, 0
3, 16380, Note_on_c, 1, 74, 80
3, 16439, Note_on_c, 1, 74, 0
3, 16440, Note_on_c, 1, 74, 80
3, 16499, Note_on_c, 1, 74, 0
3, 16500, Note_on_c, 1, 74, 80
3, 16559, Note_on_c, 1, 74, 0
3, 16620, Note_on_c, 1, 83, 80
3, 16679, Note_on_c, 1, 83, 0
3, 16680, Note_on_c, 1, 83, 80
3, 16739, Note_on_c, 1, 83, 0
3, 16740, Note_on_c, 1, 83, 80
3, 16799, Note_on_c, 1, 83, 0
3, 16800, Note_on_c, 1, 83, 80
3, 16859, Note_on_c, 1, 83, 0
3, 16860, Note_on_c, 1, 83, 80
3, 16919, Note_on_c, 1, 83, 0
3, 16980, Note_on_c, 1, 85, 80
3, 17009, Note_on_c, 1, 85, 0
3, 17010, Note_on_c, 1, 83, 80
3, 17039, Note_on_c, 1, 83, 0
3, 17040, Note_on_c, 1, 81, 80
3, 17099, Note_on_c, 1, 81, 0
3, 17100, Note_on_c, 1, 81, 80
3, 17159, Note_on_c, 1, 81, 0
3, 17160, Note_on_c, 1, 80, 80
3, 17249, Note_on_c, 1, 80, 0
3, 17250, Note_on_c, 1, 81, 80
3, 17279, Note_on_c, 1, 81, 0
3, 17280, Note_on_c, 1, 81, 80
3, 17339, Note_on_c, 1, 81, 0
3, 17340, Note_on_c, 1, 81, 80
3, 17399, Note_on_c, 1, 81, 0
3, 17400, Note_on_c, 1, 81, 80
3, 17459, Note_on_c, 1, 81, 0
3, 17460, Note_on_c, 1, 81, 80
3, 17519, Note_on_c, 1, 81, 0
3, 17520, Note_on_c, 1, 81, 80
3, 17579, Note_on_c, 1, 81, 0
3, 17580, Note_on_c, 1, 81, 80
3, 17639, Note_on_c, 1, 81, 0
3, 17700, Note_on_c, 1, 81, 80
3, 17759, Note_on_c, 1, 81, 0
3, 17760, Note_on_c, 1, 81, 80
3, 17819, Note_on_c, 1, 81, 0
3, 17820, Note_on_c, 1, 81, 80
3, 17879, Note_on_c, 1, 81, 0
3, 17880, Note_on_c, 1, 81, 80
3, 17939, Note_on_c, 1, 81, 0
3, 17940, Note_on_c, 1, 81, 80
3, 17999, Note_on_c, 1, 81, 0
3, 18060, Note_on_c, 1, 81, 80
3, 18119, Note_on_c, 1, 81, 0
3, 18120, Note_on_c, 1, 81, 80
3, 18179, Note_on_c, 1, 81, 0
3, 18180, Note_on_c, 1, 81, 80
3, 18239, Note_on_c, 1, 81, 0
3, 18240, Note_on_c, 1, 81, 80
3, 18299, Note_on_c, 1, 81, 0
3, 18300, Note_on_c, 1, 81, 80
3, 18359, Note_on_c, 1, 81, 0
3, 18360, Note_on_c, 1, 80, 80
3, 18419, Note_on_c, 1, 80, 0
3, 18420, Note_on_c, 1, 76, 80
3, 18479, Note_on_c, 1, 76, 0
3, 18720, Note_on_c, 1, 81, 80
3, 18779, Note_on_c, 1, 81, 0
3, 18780, Note_on_c, 1, 76, 80
3, 18839, Note_on_c, 1, 76, 0
3, 19080, Note_on_c, 1, 80, 80
3, 19139, Note_on_c, 1, 80, 0
3, 19140, Note_on_c, 1, 76, 80
3, 19199, Note_on_c, 1, 76, 0
3, 19500, Note_on_c, 1, 81, 80
3, 19559, Note_on_c, 1, 81, 0
3, 19560, Note_on_c, 1, 81, 80
3, 19619, Note_on_c, 1, 81, 0
3, 19620, Note_on_c, 1, 81, 80
3, 19679, Note_on_c, 1, 81, 0
3, 19680, Note_on_c, 1, 81, 80
3, 19739, Note_on_c, 1, 81, 0
3, 19860, Note_on_c, 1, 81, 80
3, 19919, Note_on_c, 1, 81, 0
3, 19920, Note_on_c, 1, 81, 80
3, 19979, Note_on_c, 1, 81, 0
3, 19980, Note_on_c, 1, 81, 80
3, 20039, Note_on_c, 1, 81, 0
3, 20040, Note_on_c, 1, 81, 80
3, 20099, Note_on_c, 1, 81, 0
3, 20580, Note_on_c, 1, 76, 80
3, 20639, Note_on_c, 1, 76, 0
3, 20640, Note_on_c, 1, 76, 80
3, 20669, Note_on_c, 1, 76, 0
3, 20670, Note_on_c, 1, 74, 80
3, 20699, Note_on_c, 1, 74, 0
3, 20700, Note_on_c, 1, 76, 80
3, 20729, Note_on_c, 1, 76, 0
3, 20730, Note_on_c, 1, 78, 80
3, 20759, Note_on_c, 1, 78, 0
3, 20760, Note_on_c, 1, 76, 80
3, 20849, Note_on_c, 1, 76, 0
3, 20850, Note_on_c, 1, 76, 80
3, 20879, Note_on_c, 1, 76, 0
3, 20880, Note_on_c, 1, 76, 80
3, 20999, Note_on_c, 1, 76, 0
3, 23040, Note_on_c, 1, 74, 80
3, 23099, Note_on_c, 1, 74, 0
3, 23100, Note_on_c, 1, 69, 80
3, 23159, Note_on_c, 1, 69, 0
3, 23760, Note_on_c, 1, 76, 80
3, 23819, Note_on_c, 1, 76, 0
3, 23820, Note_on_c, 1, 69, 80
3, 23879, Note_on_c, 1, 69, 0
3, 24540, Note_on_c, 1, 74, 80
3, 24599, Note_on_c, 1, 74, 0
3, 24600, Note_on_c, 1, 74, 80
3, 24659, Note_on_c, 1, 74, 0
3, 24660, Note_on_c, 1, 74, 80
3, 24719, Note_on_c, 1, 74, 0
3, 24720, Note_on_c, 1, 74, 80
3, 24779, Note_on_c, 1, 74, 0
3, 24780, Note_on_c, 1, 74, 80
3, 24839, Note_on_c, 1, 74, 0
3, 24900, Note_on_c, 1, 83, 80
3, 24959, Note_on_c, 1, 83, 0
3, 24960, Note_on_c, 1, 83, 80
3, 25019, Note_on_c, 1, 83, 0
3, 25020, Note_on_c, 1, 83, 80
3, 25079, Note_on_c, 1, 83, 0
3, 25080, Note_on_c, 1, 83, 80
3, 25139, Note_on_c, 1, 83, 0
3, 25140, Note_on_c, 1, 83, 80
3, 25199, Note_on_c, 1, 83, 0
3, 25260, Note_on_c, 1, 83, 80
3, 25319, Note_on_c, 1, 83, 0
3, 25320, Note_on_c, 1, 83, 80
3, 25379, Note_on_c, 1, 83, 0
3, 25380, Note_on_c, 1, 83, 80
3, 25439, Note_on_c, 1, 83, 0
3, 25440, Note_on_c, 1, 83, 80
3, 25499, Note_on_c, 1, 83, 0
3, 25500, Note_on_c, 1, 83, 80
3, 25559, Note_on_c, 1, 83, 0
3, 25560, Note_on_c, 1, 76, 80
3, 25619, Note_on_c, 1, 76, 0
3, 25620, Note_on_c, 1, 69, 80
3, 25679, Note_on_c, 1, 69, 0
3, 25920, Note_on_c, 1, 81, 80
3, 25979, Note_on_c, 1, 81, 0
3, 25980, Note_on_c, 1, 78, 80
3, 26039, Note_on_c, 1, 78, 0
3, 26280, Note_on_c, 1, 81, 80
3, 26339, Note_on_c, 1, 81, 0
3, 26340, Note_on_c, 1, 76, 80
3, 26399, Note_on_c, 1, 76, 0
3, 26700, Note_on_c, 1, 78, 80
3, 26759, Note_on_c, 1, 78, 0
3, 26760, Note_on_c, 1, 78, 80
3, 26819, Note_on_c, 1, 78, 0
3, 26820, Note_on_c, 1, 78, 80
3, 26879, Note_on_c, 1, 78, 0
3, 26880, Note_on_c, 1, 78, 80
3, 26939, Note_on_c, 1, 78, 0
3, 26940, Note_on_c, 1, 78, 80
3, 26999, Note_on_c, 1, 78, 0
3, 27060, Note_on_c, 1, 74, 80
3, 27119, Note_on_c, 1, 74, 0
3, 27120, Note_on_c, 1, 74, 80
3, 27179, Note_on_c, 1, 74, 0
3, 27180, Note_on_c, 1, 74, 80
3, 27239, Note_on_c, 1, 74, 0
3, 27240, Note_on_c, 1, 74, 80
3, 27299, Note_on_c, 1, 74, 0
3, 27300, Note_on_c, 1, 74, 80
3, 27359, Note_on_c, 1, 74, 0
3, 27420, Note_on_c, 1, 74, 80
3, 27479, Note_on_c, 1, 74, 0
3, 27480, Note_on_c, 1, 76, 80
3, 27509, Note_on_c, 1, 76, 0
3, 27510, Note_on_c, 1, 78, 80
3, 27539, Note_on_c, 1, 78, 0
3, 27540, Note_on_c, 1, 76, 80
3, 27569, Note_on_c, 1, 76, 0
3, 27570, Note_on_c, 1, 78, 80
3, 27599, Note_on_c, 1, 78, 0
3, 27600, Note_on_c, 1, 79, 80
3, 27629, Note_on_c, 1, 79, 0
3, 27630, Note_on_c, 1, 81, 80
3, 27659, Note_on_c, 1, 81, 0
3, 27660, Note_on_c, 1, 78, 80
3, 27689, Note_on_c, 1, 78, 0
3, 27690, Note_on_c, 1, 79, 80
3, 27719, Note_on_c, 1, 79, 0
3, 27720, Note_on_c, 1, 81, 80
3, 27749, Note_on_c, 1, 81, 0
3, 27750, Note_on_c, 1, 79, 80
3, 27779, Note_on_c, 1, 79, 0
3, 27780, Note_on_c, 1, 78, 80
3, 27809, Note_on_c, 1, 78, 0
3, 27810, Note_on_c, 1, 76, 80
3, 27839, Note_on_c, 1, 76, 0
3, 27840, Note_on_c, 1, 74, 80
3, 27899, Note_on_c, 1, 74, 0
3, 27900, Note_on_c, 1, 69, 80
3, 27959, Note_on_c, 1, 69, 0
3, 27960, Note_on_c, 1, 69, 80
3, 28049, Note_on_c, 1, 69, 0
3, 28050, Note_on_c, 1, 69, 80
3, 28079, Note_on_c, 1, 69, 0
3, 28080, Note_on_c, 1, 69, 80
3, 28139, Note_on_c, 1, 69, 0
3, 28140, Note_on_c, 1, 78, 80
3, 28199, Note_on_c, 1, 78, 0
3, 28200, Note_on_c, 1, 78, 80
3, 28259, Note_on_c, 1, 78, 0
3, 28260, Note_on_c, 1, 78, 80
3, 28319, Note_on_c, 1, 78, 0
3, 28320, Note_on_c, 1, 78, 80
3, 28379, Note_on_c, 1, 78, 0
3, 28380, Note_on_c, 1, 76, 80
3, 28409, Note_on_c, 1, 76, 0
3, 28410, Note_on_c, 1, 78, 80
3, 28439, Note_on_c, 1, 78, 0
3, 28440, Note_on_c, 1, 79, 80
3, 28499, Note_on_c, 1, 79, 0
3, 28500, Note_on_c, 1, 79, 80
3, 28559, Note_on_c, 1, 79, 0
3, 28560, Note_on_c, 1, 79, 80
3, 28619, Note_on_c, 1, 79, 0
3, 28620, Note_on_c, 1, 79, 80
3, 28679, Note_on_c, 1, 79, 0
3, 28680, Note_on_c, 1, 79, 80
3, 28739, Note_on_c, 1, 79, 0
3, 28740, Note_on_c, 1, 78, 80
3, 28769, Note_on_c, 1, 78, 0
3, 28770, Note_on_c, 1, 79, 80
3, 28799, Note_on_c, 1, 79, 0
3, 28800, Note_on_c, 1, 81, 80
3, 28859, Note_on_c, 1, 81, 0
3, 28860, Note_on_c, 1, 81, 80
3, 28919, Note_on_c, 1, 81, 0
3, 28920, Note_on_c, 1, 81, 80
3, 28979, Note_on_c, 1, 81, 0
3, 28980, Note_on_c, 1, 81, 80
3, 29039, Note_on_c, 1, 81, 0
3, 29040, Note_on_c, 1, 81, 80
3, 29099, Note_on_c, 1, 81, 0
3, 29100, Note_on_c, 1, 74, 80
3, 29159, Note_on_c, 1, 74, 0
3, 29160, Note_on_c, 1, 74, 80
3, 29219, Note_on_c, 1, 74, 0
3, 29220, Note_on_c, 1, 74, 80
3, 29279, Note_on_c, 1, 74, 0
3, 29280, Note_on_c, 1, 76, 80
3, 29309, Note_on_c, 1, 76, 0
3, 29310, Note_on_c, 1, 78, 80
3, 29339, Note_on_c, 1, 78, 0
3, 29340, Note_on_c, 1, 76, 80
3, 29369, Note_on_c, 1, 76, 0
3, 29370, Note_on_c, 1, 78, 80
3, 29399, Note_on_c, 1, 78, 0
3, 29400, Note_on_c, 1, 79, 80
3, 29429, Note_on_c, 1, 79, 0
3, 29430, Note_on_c, 1, 81, 80
3, 29459, Note_on_c, 1, 81, 0
3, 29460, Note_on_c, 1, 78, 80
3, 29489, Note_on_c, 1, 78, 0
3, 29490, Note_on_c, 1, 79, 80
3, 29519, Note_on_c, 1, 79, 0
3, 29520, Note_on_c, 1, 81, 80
3, 29549, Note_on_c, 1, 81, 0
3, 29550, Note_on_c, 1, 79, 80
3, 29579, Note_on_c, 1, 79, 0
3, 29580, Note_on_c, 1, 78, 80
3, 29609, Note_on_c, 1, 78, 0
3, 29610, Note_on_c, 1, 76, 80
3, 29639, Note_on_c, 1, 76, 0
3, 29640, Note_on_c, 1, 74, 80
3, 29699, Note_on_c, 1, 74, 0
3, 29700, Note_on_c, 1, 69, 80
3, 29759, Note_on_c, 1, 69, 0
3, 29760, Note_on_c, 1, 69, 80
3, 29849, Note_on_c, 1, 69, 0
3, 29850, Note_on_c, 1, 69, 80
3, 29879, Note_on_c, 1, 69, 0
3, 29880, Note_on_c, 1, 69, 80
3, 29999, Note_on_c, 1, 69, 0
3, 39960, Note_on_c, 1, 69, 80
3, 40020, Note_on_c, 1, 69, 0
3, 40020, Note_on_c, 1, 66, 80
3, 40080, Note_on_c, 1, 66, 0
3, 40320, Note_on_c, 1, 74, 80
3, 40380, Note_on_c, 1, 74, 0
3, 40380, Note_on_c, 1, 69, 80
3, 40440, Note_on_c, 1, 69, 0
3, 40680, Note_on_c, 1, 78, 80
3, 40740, Note_on_c, 1, 78, 0
3, 40740, Note_on_c, 1, 74, 80
3, 40800, Note_on_c, 1, 74, 0
3, 41040, Note_on_c, 1, 81, 80
3, 41100, Note_on_c, 1, 81, 0
3, 41100, Note_on_c, 1, 78, 80
3, 41160, Note_on_c, 1, 78, 0
3, 41460, Note_on_c, 1, 78, 80
3, 41519, Note_on_c, 1, 78, 0
3, 41520, Note_on_c, 1, 78, 80
3, 41579, Note_on_c, 1, 78, 0
3, 41580, Note_on_c, 1, 78, 80
3, 41639, Note_on_c, 1, 78, 0
3, 41640, Note_on_c, 1, 78, 80
3, 41699, Note_on_c, 1, 78, 0
3, 41700, Note_on_c, 1, 78, 80
3, 41759, Note_on_c, 1, 78, 0
3, 41820, Note_on_c, 1, 74, 80
3, 41879, Note_on_c, 1, 74, 0
3, 41880, Note_on_c, 1, 74, 80
3, 41939, Note_on_c, 1, 74, 0
3, 41940, Note_on_c, 1, 74, 80
3, 41999, Note_on_c, 1, 74, 0
3, 42000, Note_on_c, 1, 74, 80
3, 42059, Note_on_c, 1, 74, 0
3, 42060, Note_on_c, 1, 74, 80
3, 42119, Note_on_c, 1, 74, 0
3, 42180, Note_on_c, 1, 83, 80
3, 42239, Note_on_c, 1, 83, 0
3, 42240, Note_on_c, 1, 83, 80
3, 42299, Note_on_c, 1, 83, 0
3, 42300, Note_on_c, 1, 83, 80
3, 42359, Note_on_c, 1, 83, 0
3, 42360, Note_on_c, 1, 83, 80
3, 42419, Note_on_c, 1, 83, 0
3, 42420, Note_on_c, 1, 83, 80
3, 42479, Note_on_c, 1, 83, 0
3, 42540, Note_on_c, 1, 85, 80
3, 42569, Note_on_c, 1, 85, 0
3, 42570, Note_on_c, 1, 83, 80
3, 42599, Note_on_c, 1, 83, 0
3, 42600, Note_on_c, 1, 81, 80
3, 42659, Note_on_c, 1, 81, 0
3, 42660, Note_on_c, 1, 81, 80
3, 42719, Note_on_c, 1, 81, 0
3, 42720, Note_on_c, 1, 80, 80
3, 42809, Note_on_c, 1, 80, 0
3, 42810, Note_on_c, 1, 81, 80
3, 42839, Note_on_c, 1, 81, 0
3, 42840, Note_on_c, 1, 81, 80
3, 42959, Note_on_c, 1, 81, 0
3, 45000, Note_on_c, 1, 74, 80
3, 45059, Note_on_c, 1, 74, 0
3, 45060, Note_on_c, 1, 69, 80
3, 45119, Note_on_c, 1, 69, 0
3, 45720, Note_on_c, 1, 76, 80
3, 45779, Note_on_c, 1, 76, 0
3, 45780, Note_on_c, 1, 69, 80
3, 45839, Note_on_c, 1, 69, 0
3, 46500, Note_on_c, 1, 74, 80
3, 46559, Note_on_c, 1, 74, 0
3, 46560, Note_on_c, 1, 74, 80
3, 46619, Note_on_c, 1, 74, 0
3, 46620, Note_on_c, 1, 74, 80
3, 46679, Note_on_c, 1, 74, 0
3, 46680, Note_on_c, 1, 74, 80
3, 46739, Note_on_c, 1, 74, 0
3, 46740, Note_on_c, 1, 74, 80
3, 46799, Note_on_c, 1, 74, 0
3, 46860, Note_on_c, 1, 83, 80
3, 46919, Note_on_c, 1, 83, 0
3, 46920, Note_on_c, 1, 83, 80
3, 46979, Note_on_c, 1, 83, 0
3, 46980, Note_on_c, 1, 83, 80
3, 47039, Note_on_c, 1, 83, 0
3, 47040, Note_on_c, 1, 83, 80
3, 47099, Note_on_c, 1, 83, 0
3, 47100, Note_on_c, 1, 83, 80
3, 47159, Note_on_c, 1, 83, 0
3, 47220, Note_on_c, 1, 83, 80
3, 47279, Note_on_c, 1, 83, 0
3, 47280, Note_on_c, 1, 83, 80
3, 47339, Note_on_c, 1, 83, 0
3, 47340, Note_on_c, 1, 83, 80
3, 47399, Note_on_c, 1, 83, 0
3, 47400, Note_on_c, 1, 83, 80
3, 47459, Note_on_c, 1, 83, 0
3, 47460, Note_on_c, 1, 83, 80
3, 47519, Note_on_c, 1, 83, 0
3, 47520, Note_on_c, 1, 76, 80
3, 47579, Note_on_c, 1, 76, 0
3, 47580, Note_on_c, 1, 69, 80
3, 47639, Note_on_c, 1, 69, 0
3, 47880, Note_on_c, 1, 81, 80
3, 47939, Note_on_c, 1, 81, 0
3, 47940, Note_on_c, 1, 78, 80
3, 47999, Note_on_c, 1, 78, 0
3, 48240, Note_on_c, 1, 81, 80
3, 48299, Note_on_c, 1, 81, 0
3, 48300, Note_on_c, 1, 76, 80
3, 48359, Note_on_c, 1, 76, 0
3, 48660, Note_on_c, 1, 78, 80
3, 48719, Note_on_c, 1, 78, 0
3, 48720, Note_on_c, 1, 78, 80
3, 48779, Note_on_c, 1, 78, 0
3, 48780, Note_on_c, 1, 78, 80
3, 48839, Note_on_c, 1, 78, 0
3, 48840, Note_on_c, 1, 78, 80
3, 48899, Note_on_c, 1, 78, 0
3, 48900, Note_on_c, 1, 78, 80
3, 48959, Note_on_c, 1, 78, 0
3, 49020, Note_on_c, 1, 74, 80
3, 49079, Note_on_c, 1, 74, 0
3, 49080, Note_on_c, 1, 74, 80
3, 49139, Note_on_c, 1, 74, 0
3, 49140, Note_on_c, 1, 74, 80
3, 49199, Note_on_c, 1, 74, 0
3, 49200, Note_on_c, 1, 74, 80
3, 49259, Note_on_c, 1, 74, 0
3, 49260, Note_on_c, 1, 74, 80
3, 49319, Note_on_c, 1, 74, 0
3, 49380, Note_on_c, 1, 74, 80
3, 49439, Note_on_c, 1, 74, 0
3, 49440, Note_on_c, 1, 76, 80
3, 49469, Note_on_c, 1, 76, 0
3, 49470, Note_on_c, 1, 78, 80
3, 49499, Note_on_c, 1, 78, 0
3, 49500, Note_on_c, 1, 76, 80
3, 49529, Note_on_c, 1, 76, 0
3, 49530, Note_on_c, 1, 78, 80
3, 49559, Note_on_c, 1, 78, 0
3, 49560, Note_on_c, 1, 79, 80
3, 49589, Note_on_c, 1, 79, 0
3, 49590, Note_on_c, 1, 81, 80
3, 49619, Note_on_c, 1, 81, 0
3, 49620, Note_on_c, 1, 78, 80
3, 49649, Note_on_c, 1, 78, 0
3, 49650, Note_on_c, 1, 79, 80
3, 49679, Note_on_c, 1, 79, 0
3, 49680, Note_on_c, 1, 81, 80
3, 49709, Note_on_c, 1, 81, 0
3, 49710, Note_on_c, 1, 79, 80
3, 49739, Note_on_c, 1, 79, 0
3, 49740, Note_on_c, 1, 78, 80
3, 49769, Note_on_c, 1, 78, 0
3, 49770, Note_on_c, 1, 76, 80
3, 49799, Note_on_c, 1, 76, 0
3, 49800, Note_on_c, 1, 74, 80
3, 49859, Note_on_c, 1, 74, 0
3, 49860, Note_on_c, 1, 69, 80
3, 49919, Note_on_c, 1, 69, 0
3, 49920, Note_on_c, 1, 69, 80
3, 50009, Note_on_c, 1, 69, 0
3, 50010, Note_on_c, 1, 69, 80
3, 50039, Note_on_c, 1, 69, 0
3, 50040, Note_on_c, 1, 69, 80
3, 50099, Note_on_c, 1, 69, 0
3, 50100, Note_on_c, 1, 66, 80
3, 50159, Note_on_c, 1, 66, 0
3, 50400, Note_on_c, 1, 83, 80
3, 50459, Note_on_c, 1, 83, 0
3, 50460, Note_on_c, 1, 78, 80
3, 50519, Note_on_c, 1, 78, 0
3, 50760, Note_on_c, 1, 66, 80
3, 50819, Note_on_c, 1, 66, 0
3, 50820, Note_on_c, 1, 62, 80
3, 50879, Note_on_c, 1, 62, 0
3, 51120, Note_on_c, 1, 79, 80
3, 51179, Note_on_c, 1, 79, 0
3, 51180, Note_on_c, 1, 74, 80
3, 51239, Note_on_c, 1, 74, 0
3, 51540, Note_on_c, 1, 78, 80
3, 51599, Note_on_c, 1, 78, 0
3, 51600, Note_on_c, 1, 78, 80
3, 51659, Note_on_c, 1, 78, 0
3, 51660, Note_on_c, 1, 78, 80
3, 51719, Note_on_c, 1, 78, 0
3, 51720, Note_on_c, 1, 78, 80
3, 51779, Note_on_c, 1, 78, 0
3, 51780, Note_on_c, 1, 76, 80
3, 51839, Note_on_c, 1, 76, 0
3, 51840, Note_on_c, 1, 76, 80
3, 51899, Note_on_c, 1, 76, 0
3, 51900, Note_on_c, 1, 69, 80
3, 51959, Note_on_c, 1, 69, 0
3, 52200, Note_on_c, 1, 81, 80
3, 52259, Note_on_c, 1, 81, 0
3, 52260, Note_on_c, 1, 78, 80
3, 52319, Note_on_c, 1, 78, 0
3, 52560, Note_on_c, 1, 81, 80
3, 52619, Note_on_c, 1, 81, 0
3, 52620, Note_on_c, 1, 76, 80
3, 52679, Note_on_c, 1, 76, 0
3, 52980, Note_on_c, 1, 78, 80
3, 53039, Note_on_c, 1, 78, 0
3, 53040, Note_on_c, 1, 78, 80
3, 53099, Note_on_c, 1, 78, 0
3, 53100, Note_on_c, 1, 78, 80
3, 53159, Note_on_c, 1, 78, 0
3, 53160, Note_on_c, 1, 78, 80
3, 53219, Note_on_c, 1, 78, 0
3, 53220, Note_on_c, 1, 78, 80
3, 53279, Note_on_c, 1, 78, 0
3, 53340, Note_on_c, 1, 74, 80
3, 53399, Note_on_c, 1, 74, 0
3, 53400, Note_on_c, 1, 74, 80
3, 53459, Note_on_c, 1, 74, 0
3, 53460, Note_on_c, 1, 74, 80
3, 53519, Note_on_c, 1, 74, 0
3, 53520, Note_on_c, 1, 74, 80
3, 53579, Note_on_c, 1, 74, 0
3, 53580, Note_on_c, 1, 74, 80
3, 53639, Note_on_c, 1, 74, 0
3, 53700, Note_on_c, 1, 74, 80
3, 53759, Note_on_c, 1, 74, 0
3, 53760, Note_on_c, 1, 76, 80
3, 53789, Note_on_c, 1, 76, 0
3, 53790, Note_on_c, 1, 78, 80
3, 53819, Note_on_c, 1, 78, 0
3, 53820, Note_on_c, 1, 76, 80
3, 53849, Note_on_c, 1, 76, 0
3, 53850, Note_on_c, 1, 78, 80
3, 53879, Note_on_c, 1, 78, 0
3, 53880, Note_on_c, 1, 79, 80
3, 53909, Note_on_c, 1, 79, 0
3, 53910, Note_on_c, 1, 81, 80
3, 53939, Note_on_c, 1, 81, 0
3, 53940, Note_on_c, 1, 78, 80
3, 53969, Note_on_c, 1, 78, 0
3, 53970, Note_on_c, 1, 79, 80
3, 53999, Note_on_c, 1, 79, 0
3, 54000, Note_on_c, 1, 81, 80
3, 54029, Note_on_c, 1, 81, 0
3, 54030, Note_on_c, 1, 79, 80
3, 54059, Note_on_c, 1, 79, 0
3, 54060, Note_on_c, 1, 78, 80
3, 54089, Note_on_c, 1, 78, 0
3, 54090, Note_on_c, 1, 76, 80
3, 54119, Note_on_c, 1, 76, 0
3, 54120, Note_on_c, 1, 78, 80
3, 54179, Note_on_c, 1, 78, 0
3, 54180, Note_on_c, 1, 69, 80
3, 54239, Note_on_c, 1, 69, 0
3, 54240, Note_on_c, 1, 69, 80
3, 54329, Note_on_c, 1, 69, 0
3, 54330, Note_on_c, 1, 69, 80
3, 54359, Note_on_c, 1, 69, 0
3, 54360, Note_on_c, 1, 69, 80
3, 54419, Note_on_c, 1, 69, 0
3, 54480, Note_on_c, 1, 66, 80
3, 54539, Note_on_c, 1, 66, 0
3, 54540, Note_on_c, 1, 62, 80
3, 54599, Note_on_c, 1, 62, 0
3, 54840, Note_on_c, 1, 69, 80
3, 54899, Note_on_c, 1, 69, 0
3, 54900, Note_on_c, 1, 66, 80
3, 54959, Note_on_c, 1, 66, 0
3, 55200, Note_on_c, 1, 74, 80
3, 55259, Note_on_c, 1, 74, 0
3, 55260, Note_on_c, 1, 69, 80
3, 55319, Note_on_c, 1, 69, 0
3, 55500, Note_on_c, 1, 66, 80
3, 55559, Note_on_c, 1, 66, 0
3, 55560, Note_on_c, 1, 66, 80
3, 55619, Note_on_c, 1, 66, 0
3, 55620, Note_on_c, 1, 69, 80
3, 55679, Note_on_c, 1, 69, 0
3, 55680, Note_on_c, 1, 69, 80
3, 55739, Note_on_c, 1, 69, 0
3, 55740, Note_on_c, 1, 74, 80
3, 55799, Note_on_c, 1, 74, 0
3, 55800, Note_on_c, 1, 74, 80
3, 55859, Note_on_c, 1, 74, 0
3, 55860, Note_on_c, 1, 78, 80
3, 55919, Note_on_c, 1, 78, 0
3, 55920, Note_on_c, 1, 78, 80
3, 55979, Note_on_c, 1, 78, 0
3, 55980, Note_on_c, 1, 78, 80
3, 56039, Note_on_c, 1, 78, 0
3, 56040, Note_on_c, 1, 78, 80
3, 56099, Note_on_c, 1, 78, 0
3, 56100, Note_on_c, 1, 78, 80
3, 56159, Note_on_c, 1, 78, 0
3, 56220, Note_on_c, 1, 74, 80
3, 56279, Note_on_c, 1, 74, 0
3, 56280, Note_on_c, 1, 74, 80
3, 56339, Note_on_c, 1, 74, 0
3, 56340, Note_on_c, 1, 74, 80
3, 56399, Note_on_c, 1, 74, 0
3, 56400, Note_on_c, 1, 74, 80
3, 56459, Note_on_c, 1, 74, 0
3, 56460, Note_on_c, 1, 74, 80
3, 56519, Note_on_c, 1, 74, 0
3, 56580, Note_on_c, 1, 83, 80
3, 56639, Note_on_c, 1, 83, 0
3, 56640, Note_on_c, 1, 83, 80
3, 56699, Note_on_c, 1, 83, 0
3, 56700, Note_on_c, 1, 83, 80
3, 56759, Note_on_c, 1, 83, 0
3, 56760, Note_on_c, 1, 83, 80
3, 56819, Note_on_c, 1, 83, 0
3, 56820, Note_on_c, 1, 83, 80
3, 56879, Note_on_c, 1, 83, 0
3, 56940, Note_on_c, 1, 85, 80
3, 56969, Note_on_c, 1, 85, 0
3, 56970, Note_on_c, 1, 83, 80
3, 56999, Note_on_c, 1, 83, 0
3, 57000, Note_on_c, 1, 81, 80
3, 57059, Note_on_c, 1, 81, 0
3, 57060, Note_on_c, 1, 81, 80
3, 57119, Note_on_c, 1, 81, 0
3, 57120, Note_on_c, 1, 80, 80
3, 57209, Note_on_c, 1, 80, 0
3, 57210, Note_on_c, 1, 81, 80
3, 57239, Note_on_c, 1, 81, 0
3, 57240, Note_on_c, 1, 81, 80
3, 57299, Note_on_c, 1, 81, 0
3, 57300, Note_on_c, 1, 81, 80
3, 57359, Note_on_c, 1, 81, 0
3, 57360, Note_on_c, 1, 81, 80
3, 57419, Note_on_c, 1, 81, 0
3, 57420, Note_on_c, 1, 81, 80
3, 57479, Note_on_c, 1, 81, 0
3, 57480, Note_on_c, 1, 81, 80
3, 57539, Note_on_c, 1, 81, 0
3, 57540, Note_on_c, 1, 81, 80
3, 57599, Note_on_c, 1, 81, 0
3, 57660, Note_on_c, 1, 81, 80
3, 57719, Note_on_c, 1, 81, 0
3, 57720, Note_on_c, 1, 81, 80
3, 57779, Note_on_c, 1, 81, 0
3, 57780, Note_on_c, 1, 81, 80
3, 57839, Note_on_c, 1, 81, 0
3, 57840, Note_on_c, 1, 81, 80
3, 57899, Note_on_c, 1, 81, 0
3, 57900, Note_on_c, 1, 81, 80
3, 57959, Note_on_c, 1, 81, 0
3, 58020, Note_on_c, 1, 81, 80
3, 58079, Note_on_c, 1, 81, 0
3, 58080, Note_on_c, 1, 81, 80
3, 58139, Note_on_c, 1, 81, 0
3, 58140, Note_on_c, 1, 81, 80
3, 58199, Note_on_c, 1, 81, 0
3, 58200, Note_on_c, 1, 81, 80
3, 58259, Note_on_c, 1, 81, 0
3, 58260, Note_on_c, 1, 81, 80
3, 58319, Note_on_c, 1, 81, 0
3, 58320, Note_on_c, 1, 80, 80
3, 58379, Note_on_c, 1, 80, 0
3, 58380, Note_on_c, 1, 76, 80
3, 58439, Note_on_c, 1, 76, 0
3, 58680, Note_on_c, 1, 81, 80
3, 58739, Note_on_c, 1, 81, 0
3, 58740, Note_on_c, 1, 76, 80
3, 58799, Note_on_c, 1, 76, 0
3, 59040, Note_on_c, 1, 80, 80
3, 59099, Note_on_c, 1, 80, 0
3, 59100, Note_on_c, 1, 76, 80
3, 59159, Note_on_c, 1, 76, 0
3, 59460, Note_on_c, 1, 81, 80
3, 59519, Note_on_c, 1, 81, 0
3, 59520, Note_on_c, 1, 81, 80
3, 59579, Note_on_c, 1, 81, 0
3, 59580, Note_on_c, 1, 81, 80
3, 59639, Note_on_c, 1, 81, 0
3, 59640, Note_on_c, 1, 81, 80
3, 59699, Note_on_c, 1, 81, 0
3, 59820, Note_on_c, 1, 81, 80
3, 59879, Note_on_c, 1, 81, 0
3, 59880, Note_on_c, 1, 81, 80
3, 59939, Note_on_c, 1, 81, 0
3, 59940, Note_on_c, 1, 81, 80
3, 59999, Note_on_c, 1, 81, 0
3, 60000, Note_on_c, 1, 81, 80
3, 60059, Note_on_c, 1, 81, 0
3, 60540, Note_on_c, 1, 76, 80
3, 60599, Note_on_c, 1, 76, 0
3, 60600, Note_on_c, 1, 76, 80
3, 60629, Note_on_c, 1, 76, 0
3, 60630, Note_on_c, 1, 74, 80
3, 60659, Note_on_c, 1, 74, 0
3, 60660, Note_on_c, 1, 76, 80
3, 60689, Note_on_c, 1, 76, 0
3, 60690, Note_on_c, 1, 78, 80
3, 60719, Note_on_c, 1, 78, 0
3, 60720, Note_on_c, 1, 76, 80
3, 60809, Note_on_c, 1, 76, 0
3, 60810, Note_on_c, 1, 76, 80
3, 60839, Note_on_c, 1, 76, 0
3, 60840, Note_on_c, 1, 76, 80
3, 60959, Note_on_c, 1, 76, 0
3, 63000, Note_on_c, 1, 74, 80
3, 63059, Note_on_c, 1, 74, 0
3, 63060, Note_on_c, 1, 69, 80
3, 63119, Note_on_c, 1, 69, 0
3, 63720, Note_on_c, 1, 76, 80
3, 63779, Note_on_c, 1, 76, 0
3, 63780, Note_on_c, 1, 69, 80
3, 63839, Note_on_c, 1, 69, 0
3, 64500, Note_on_c, 1, 74, 80
3, 64559, Note_on_c, 1, 74, 0
3, 64560, Note_on_c, 1, 74, 80
3, 64619, Note_on_c, 1, 74, 0
3, 64620, Note_on_c, 1, 74, 80
3, 64679, Note_on_c, 1, 74, 0
3, 64680, Note_on_c, 1, 74, 80
3, 64739, Note_on_c, 1, 74, 0
3, 64740, Note_on_c, 1, 74, 80
3, 64799, Note_on_c, 1, 74, 0
3, 64860, Note_on_c, 1, 83, 80
3, 64919, Note_on_c, 1, 83, 0
3, 64920, Note_on_c, 1, 83, 80
3, 64979, Note_on_c, 1, 83, 0
3, 64980, Note_on_c, 1, 83, 80
3, 65039, Note_on_c, 1, 83, 0
3, 65040, Note_on_c, 1, 83, 80
3, 65099, Note_on_c, 1, 83, 0
3, 65100, Note_on_c, 1, 83, 80
3, 65159, Note_on_c, 1, 83, 0
3, 65220, Note_on_c, 1, 83, 80
3, 65279, Note_on_c, 1, 83, 0
3, 65280, Note_on_c, 1, 83, 80
3, 65339, Note_on_c, 1, 83, 0
3, 65340, Note_on_c, 1, 83, 80
3, 65399, Note_on_c, 1, 83, 0
3, 65400, Note_on_c, 1, 83, 80
3, 65459, Note_on_c, 1, 83, 0
3, 65460, Note_on_c, 1, 83, 80
3, 65519, Note_on_c, 1, 83, 0
3, 65520, Note_on_c, 1, 76, 80
3, 65579, Note_on_c, 1, 76, 0
3, 65580, Note_on_c, 1, 69, 80
3, 65639, Note_on_c, 1, 69, 0
3, 65880, Note_on_c, 1, 81, 80
3, 65939, Note_on_c, 1, 81, 0
3, 65940, Note_on_c, 1, 78, 80
3, 65999, Note_on_c, 1, 78, 0
3, 66240, Note_on_c, 1, 81, 80
3, 66299, Note_on_c, 1, 81, 0
3, 66300, Note_on_c, 1, 76, 80
3, 66359, Note_on_c, 1, 76, 0
3, 66660, Note_on_c, 1, 78, 80
3, 66719, Note_on_c, 1, 78, 0
3, 66720, Note_on_c, 1, 78, 80
3, 66779, Note_on_c, 1, 78, 0
3, 66780, Note_on_c, 1, 78, 80
3, 66839, Note_on_c, 1, 78, 0
3, 66840, Note_on_c, 1, 78, 80
3, 66899, Note_on_c, 1, 78, 0
3, 66900, Note_on_c, 1, 78, 80
3, 66959, Note_on_c, 1, 78, 0
3, 67020, Note_on_c, 1, 74, 80
3, 67079, Note_on_c, 1, 74, 0
3, 67080, Note_on_c, 1, 74, 80
3, 67139, Note_on_c, 1, 74, 0
3, 67140, Note_on_c, 1, 74, 80
3, 67199, Note_on_c, 1, 74, 0
3, 67200, Note_on_c, 1, 74, 80
3, 67259, Note_on_c, 1, 74, 0
3, 67260, Note_on_c, 1, 74, 80
3, 67319, Note_on_c, 1, 74, 0
3, 67380, Note_on_c, 1, 74, 80
3, 67439, Note_on_c, 1, 74, 0
3, 67440, Note_on_c, 1, 76, 80
3, 67469, Note_on_c, 1, 76, 0
3, 67470, Note_on_c, 1, 78, 80
3, 67499, Note_on_c, 1, 78, 0
3, 67500, Note_on_c, 1, 76, 80
3, 67529, Note_on_c, 1, 76, 0
3, 67530, Note_on_c, 1, 78, 80
3, 67559, Note_on_c, 1, 78, 0
3, 67560, Note_on_c, 1, 79, 80
3, 67589, Note_on_c, 1, 79, 0
3, 67590, Note_on_c, 1, 81, 80
3, 67619, Note_on_c, 1, 81, 0
3, 67620, Note_on_c, 1, 78, 80
3, 67649, Note_on_c, 1, 78, 0
3, 67650, Note_on_c, 1, 79, 80
3, 67679, Note_on_c, 1, 79, 0
3, 67680, Note_on_c, 1, 81, 80
3, 67709, Note_on_c, 1, 81, 0
3, 67710, Note_on_c, 1, 79, 80
3, 67739, Note_on_c, 1, 79, 0
3, 67740, Note_on_c, 1, 78, 80
3, 67769, Note_on_c, 1, 78, 0
3, 67770, Note_on_c, 1, 76, 80
3, 67799, Note_on_c, 1, 76, 0
3, 67800, Note_on_c, 1, 74, 80
3, 67859, Note_on_c, 1, 74, 0
3, 67860, Note_on_c, 1, 69, 80
3, 67919, Note_on_c, 1, 69, 0
3, 67920, Note_on_c, 1, 69, 80
3, 68009, Note_on_c, 1, 69, 0
3, 68010, Note_on_c, 1, 69, 80
3, 68039, Note_on_c, 1, 69, 0
3, 68040, Note_on_c, 1, 69, 80
3, 68099, Note_on_c, 1, 69, 0
3, 68100, Note_on_c, 1, 78, 80
3, 68159, Note_on_c, 1, 78, 0
3, 68160, Note_on_c, 1, 78, 80
3, 68219, Note_on_c, 1, 78, 0
3, 68220, Note_on_c, 1, 78, 80
3, 68279, Note_on_c, 1, 78, 0
3, 68280, Note_on_c, 1, 78, 80
3, 68339, Note_on_c, 1, 78, 0
3, 68340, Note_on_c, 1, 76, 80
3, 68369, Note_on_c, 1, 76, 0
3, 68370, Note_on_c, 1, 78, 80
3, 68399, Note_on_c, 1, 78, 0
3, 68400, Note_on_c, 1, 79, 80
3, 68459, Note_on_c, 1, 79, 0
3, 68460, Note_on_c, 1, 79, 80
3, 68519, Note_on_c, 1, 79, 0
3, 68520, Note_on_c, 1, 79, 80
3, 68579, Note_on_c, 1, 79, 0
3, 68580, Note_on_c, 1, 79, 80
3, 68639, Note_on_c, 1, 79, 0
3, 68640, Note_on_c, 1, 79, 80
3, 68699, Note_on_c, 1, 79, 0
3, 68700, Note_on_c, 1, 78, 80
3, 68729, Note_on_c, 1, 78, 0
3, 68730, Note_on_c, 1, 79, 80
3, 68759, Note_on_c, 1, 79, 0
3, 68760, Note_on_c, 1, 81, 80
3, 68819, Note_on_c, 1, 81, 0
3, 68820, Note_on_c, 1, 81, 80
3, 68879, Note_on_c, 1, 81, 0
3, 68880, Note_on_c, 1, 81, 80
3, 68939, Note_on_c, 1, 81, 0
3, 68940, Note_on_c, 1, 81, 80
3, 68999, Note_on_c, 1, 81, 0
3, 69000, Note_on_c, 1, 81, 80
3, 69059, Note_on_c, 1, 81, 0
3, 69060, Note_on_c, 1, 74, 80
3, 69119, Note_on_c, 1, 74, 0
3, 69120, Note_on_c, 1, 74, 80
3, 69179, Note_on_c, 1, 74, 0
3, 69180, Note_on_c, 1, 74, 80
3, 69239, Note_on_c, 1, 74, 0
3, 69240, Note_on_c, 1, 76, 80
3, 69269, Note_on_c, 1, 76, 0
3, 69270, Note_on_c, 1, 78, 80
3, 69299, Note_on_c, 1, 78, 0
3, 69300, Note_on_c, 1, 76, 80
3, 69329, Note_on_c, 1, 76, 0
3, 69330, Note_on_c, 1, 78, 80
3, 69359, Note_on_c, 1, 78, 0
3, 69360, Note_on_c, 1, 79, 80
3, 69389, Note_on_c, 1, 79, 0
3, 69390, Note_on_c, 1, 81, 80
3, 69419, Note_on_c, 1, 81, 0
3, 69420, Note_on_c, 1, 78, 80
3, 69449, Note_on_c, 1, 78, 0
3, 69450, Note_on_c, 1, 79, 80
3, 69479, Note_on_c, 1, 79, 0
3, 69480, Note_on_c, 1, 81, 80
3, 69509, Note_on_c, 1, 81, 0
3, 69510, Note_on_c, 1, 79, 80
3, 69539, Note_on_c, 1, 79, 0
3, 69540, Note_on_c, 1, 78, 80
3, 69569, Note_on_c, 1, 78, 0
3, 69570, Note_on_c, 1, 76, 80
3, 69599, Note_on_c, 1, 76, 0
3, 69600, Note_on_c, 1, 74, 80
3, 69659, Note_on_c, 1, 74, 0
3, 69660, Note_on_c, 1, 69, 80
3, 69719, Note_on_c, 1, 69, 0
3, 69720, Note_on_c, 1, 69, 80
3, 69809, Note_on_c, 1, 69, 0
3, 69810, Note_on_c, 1, 69, 80
3, 69839, Note_on_c, 1, 69, 0
3, 69840, Note_on_c, 1, 69, 80
3, 69959, Note_on_c, 1, 69, 0
3, 70560, Note_on_c, 1, 79, 90
3, 70679, Note_on_c, 1, 79, 0
3, 71280, Note_on_c, 1, 79, 90
3, 71399, Note_on_c, 1, 79, 0
3, 71760, Note_on_c, 1, 81, 90
3, 71879, Note_on_c, 1, 81, 0
3, 72720, Note_on_c, 1, 79, 90
3, 72839, Note_on_c, 1, 79, 0
3, 72960, Note_on_c, 1, 79, 90
3, 73079, Note_on_c, 1, 79, 0
3, 73320, Note_on_c, 1, 78, 90
3, 73439, Note_on_c, 1, 78, 0
3, 73440, Note_on_c, 1, 79, 90
3, 73559, Note_on_c, 1, 79, 0
3, 73710, Note_on_c, 1, 81, 90
3, 73739, Note_on_c, 1, 81, 0
3, 73740, Note_on_c, 1, 81, 90
3, 73769, Note_on_c, 1, 81, 0
3, 73770, Note_on_c, 1, 81, 90
3, 73799, Note_on_c, 1, 81, 0
3, 73800, Note_on_c, 1, 81, 90
3, 73859, Note_on_c, 1, 81, 0
3, 74190, Note_on_c, 1, 81, 90
3, 74219, Note_on_c, 1, 81, 0
3, 74220, Note_on_c, 1, 81, 90
3, 74249, Note_on_c, 1, 81, 0
3, 74250, Note_on_c, 1, 81, 90
3, 74279, Note_on_c, 1, 81, 0
3, 74280, Note_on_c, 1, 81, 90
3, 74339, Note_on_c, 1, 81, 0
3, 74910, Note_on_c, 1, 66, 90
3, 74939, Note_on_c, 1, 66, 0
3, 74940, Note_on_c, 1, 66, 90
3, 74969, Note_on_c, 1, 66, 0
3, 74970, Note_on_c, 1, 66, 90
3, 74999, Note_on_c, 1, 66, 0
3, 75000, Note_on_c, 1, 66, 90
3, 75029, Note_on_c, 1, 66, 0
3, 75030, Note_on_c, 1, 66, 90
3, 75059, Note_on_c, 1, 66, 0
3, 75060, Note_on_c, 1, 66, 90
3, 75089, Note_on_c, 1, 66, 0
3, 75090, Note_on_c, 1, 66, 90
3, 75119, Note_on_c, 1, 66, 0
3, 75120, Note_on_c, 1, 66, 90
3, 75179, Note_on_c, 1, 66, 0
3, 75600, Note_on_c, 1, 76, 90
3, 75719, Note_on_c, 1, 76, 0
3, 76590, Note_on_c, 1, 81, 90
3, 76619, Note_on_c, 1, 81, 0
3, 76620, Note_on_c, 1, 81, 90
3, 76649, Note_on_c, 1, 81, 0
3, 76650, Note_on_c, 1, 81, 90
3, 76679, Note_on_c, 1, 81, 0
3, 76680, Note_on_c, 1, 81, 90
3, 76709, Note_on_c, 1, 81, 0
3, 76710, Note_on_c, 1, 81, 90
3, 76739, Note_on_c, 1, 81, 0
3, 76740, Note_on_c, 1, 81, 90
3, 76769, Note_on_c, 1, 81, 0
3, 76770, Note_on_c, 1, 81, 90
3, 76799, Note_on_c, 1, 81, 0
3, 76800, Note_on_c, 1, 81, 90
3, 76829, Note_on_c, 1, 81, 0
3, 76830, Note_on_c, 1, 78, 90
3, 76859, Note_on_c, 1, 78, 0
3, 76860, Note_on_c, 1, 78, 90
3, 76889, Note_on_c, 1, 78, 0
3, 76890, Note_on_c, 1, 74, 90
3, 76919, Note_on_c, 1, 74, 0
3, 76920, Note_on_c, 1, 73, 90
3, 76949, Note_on_c, 1, 73, 0
3, 76950, Note_on_c, 1, 69, 90
3, 76979, Note_on_c, 1, 69, 0
3, 76980, Note_on_c, 1, 69, 90
3, 77009, Note_on_c, 1, 69, 0
3, 77010, Note_on_c, 1, 66, 90
3, 77039, Note_on_c, 1, 66, 0
3, 77040, Note_on_c, 1, 66, 90
3, 77159, Note_on_c, 1, 66, 0
3, 77790, Note_on_c, 1, 81, 90
3, 77819, Note_on_c, 1, 81, 0
3, 77820, Note_on_c, 1, 81, 90
3, 77849, Note_on_c, 1, 81, 0
3, 77850, Note_on_c, 1, 81, 90
3, 77879, Note_on_c, 1, 81, 0
3, 77880, Note_on_c, 1, 81, 90
3, 77909, Note_on_c, 1, 81, 0
3, 77910, Note_on_c, 1, 81, 90
3, 77939, Note_on_c, 1, 81, 0
3, 77940, Note_on_c, 1, 81, 90
3, 77969, Note_on_c, 1, 81, 0
3, 77970, Note_on_c, 1, 81, 90
3, 77999, Note_on_c, 1, 81, 0
3, 78000, Note_on_c, 1, 81, 90
3, 78059, Note_on_c, 1, 81, 0
3, 78270, Note_on_c, 1, 81, 90
3, 78299, Note_on_c, 1, 81, 0
3, 78300, Note_on_c, 1, 81, 90
3, 78329, Note_on_c, 1, 81, 0
3, 78330, Note_on_c, 1, 81, 90
3, 78359, Note_on_c, 1, 81, 0
3, 78360, Note_on_c, 1, 80, 90
3, 78389, Note_on_c, 1, 80, 0
3, 78390, Note_on_c, 1, 80, 90
3, 78419, Note_on_c, 1, 80, 0
3, 78420, Note_on_c, 1, 80, 90
3, 78449, Note_on_c, 1, 80, 0
3, 78450, Note_on_c, 1, 80, 90
3, 78479, Note_on_c, 1, 80, 0
3, 78480, Note_on_c, 1, 81, 90
3, 78509, Note_on_c, 1, 81, 0
3, 78510, Note_on_c, 1, 69, 90
3, 78539, Note_on_c, 1, 69, 0
3, 78540, Note_on_c, 1, 69, 90
3, 78569, Note_on_c, 1, 69, 0
3, 78570, Note_on_c, 1, 69, 90
3, 78599, Note_on_c, 1, 69, 0
3, 78600, Note_on_c, 1, 69, 90
3, 78629, Note_on_c, 1, 69, 0
3, 78630, Note_on_c, 1, 69, 90
3, 78659, Note_on_c, 1, 69, 0
3, 78660, Note_on_c, 1, 69, 90
3, 78689, Note_on_c, 1, 69, 0
3, 78690, Note_on_c, 1, 69, 90
3, 78719, Note_on_c, 1, 69, 0
3, 78720, Note_on_c, 1, 69, 90
3, 78839, Note_on_c, 1, 69, 0
3, 78990, Note_on_c, 1, 66, 90
3, 79019, Note_on_c, 1, 66, 0
3, 79020, Note_on_c, 1, 66, 90
3, 79049, Note_on_c, 1, 66, 0
3, 79050, Note_on_c, 1, 66, 90
3, 79079, Note_on_c, 1, 66, 0
3, 79080, Note_on_c, 1, 66, 90
3, 79139, Note_on_c, 1, 66, 0
3, 79470, Note_on_c, 1, 66, 90
3, 79499, Note_on_c, 1, 66, 0
3, 79500, Note_on_c, 1, 66, 90
3, 79529, Note_on_c, 1, 66, 0
3, 79530, Note_on_c, 1, 66, 90
3, 79559, Note_on_c, 1, 66, 0
3, 79560, Note_on_c, 1, 66, 90
3, 79589, Note_on_c, 1, 66, 0
3, 79590, Note_on_c, 1, 66, 90
3, 79619, Note_on_c, 1, 66, 0
3, 79620, Note_on_c, 1, 66, 90
3, 79649, Note_on_c, 1, 66, 0
3, 79650, Note_on_c, 1, 66, 90
3, 79679, Note_on_c, 1, 66, 0
3, 79680, Note_on_c, 1, 66, 90
3, 79739, Note_on_c, 1, 66, 0
3, 79950, Note_on_c, 1, 80, 90
3, 79979, Note_on_c, 1, 80, 0
3, 79980, Note_on_c, 1, 80, 90
3, 80009, Note_on_c, 1, 80, 0
3, 80010, Note_on_c, 1, 80, 90
3, 80039, Note_on_c, 1, 80, 0
3, 80040, Note_on_c, 1, 80, 90
3, 80099, Note_on_c, 1, 80, 0
3, 235560, Note_on_c, 1, 66, 100
3, 235620, Note_on_c, 1, 66, 0
3, 235620, Note_on_c, 1, 69, 100
3, 235680, Note_on_c, 1, 69, 0
3, 235680, Note_on_c, 1, 74, 100
3, 235710, Note_on_c, 1, 74, 0
3, 235710, Note_on_c, 1, 76, 100
3, 235740, Note_on_c, 1, 76, 0
3, 235740, Note_on_c, 1, 78, 100
3, 235770, Note_on_c, 1, 78, 0
3, 235770, Note_on_c, 1, 76, 100
3, 235800, Note_on_c, 1, 76, 0
3, 235800, Note_on_c, 1, 74, 100
3, 235830, Note_on_c, 1, 74, 0
3, 235830, Note_on_c, 1, 76, 100
3, 235860, Note_on_c, 1, 76, 0
3, 235860, Note_on_c, 1, 74, 100
3, 235890, Note_on_c, 1, 74, 0
3, 235890, Note_on_c, 1, 76, 100
3, 235920, Note_on_c, 1, 76, 0
3, 235920, Note_on_c, 1, 78, 100
3, 235950, Note_on_c, 1, 78, 0
3, 235950, Note_on_c, 1, 76, 100
3, 235980, Note_on_c, 1, 76, 0
3, 235980, Note_on_c, 1, 74, 100
3, 236040, Note_on_c, 1, 74, 0
3, 236040, Note_on_c, 1, 69, 100
3, 236100, Note_on_c, 1, 69, 0
3, 236100, Note_on_c, 1, 66, 100
3, 236160, Note_on_c, 1, 66, 0
3, 236160, Note_on_c, 1, 69, 100
3, 236220, Note_on_c, 1, 69, 0
3, 236220, Note_on_c, 1, 66, 100
3, 236280, Note_on_c, 1, 66, 0
3, 236280, Note_on_c, 1, 62, 100
3, 236340, Note_on_c, 1, 62, 0
3, 236340, Note_on_c, 1, 66, 100
3, 236400, Note_on_c, 1, 66, 0
3, 236400, Note_on_c, 1, 69, 100
3, 236460, Note_on_c, 1, 69, 0
3, 236460, Note_on_c, 1, 74, 100
3, 236520, Note_on_c, 1, 74, 0
3, 236520, Note_on_c, 1, 78, 100
3, 236580, Note_on_c, 1, 78, 0
3, 236580, Note_on_c, 1, 81, 100
3, 236640, Note_on_c, 1, 81, 0
3, 236640, Note_on_c, 1, 78, 100
3, 236700, Note_on_c, 1, 78, 0
3, 236700, Note_on_c, 1, 78, 100
3, 236760, Note_on_c, 1, 78, 0
3, 236760, Note_on_c, 1, 74, 100
3, 236820, Note_on_c, 1, 74, 0
3, 236820, Note_on_c, 1, 69, 100
3, 236880, Note_on_c, 1, 69, 0
3, 236880, Note_on_c, 1, 69, 100
3, 237000, Note_on_c, 1, 69, 0
3, 237000, Note_on_c, 1, 69, 100
3, 237060, Note_on_c, 1, 69, 0
3, 237060, Note_on_c, 1, 78, 100
3, 237090, Note_on_c, 1, 78, 0
3, 237090, Note_on_c, 1, 79, 100
3, 237120, Note_on_c, 1, 79, 0
3, 237120, Note_on_c, 1, 78, 100
3, 237150, Note_on_c, 1, 78, 0
3, 237150, Note_on_c, 1, 79, 100
3, 237180, Note_on_c, 1, 79, 0
3, 237180, Note_on_c, 1, 81, 100
3, 237210, Note_on_c, 1, 81, 0
3, 237210, Note_on_c, 1, 79, 100
3, 237240, Note_on_c, 1, 79, 0
3, 237240, Note_on_c, 1, 78, 100
3, 237300, Note_on_c, 1, 78, 0
3, 237480, Note_on_c, 1, 79, 100
3, 237540, Note_on_c, 1, 79, 0
3, 237540, Note_on_c, 1, 76, 100
3, 237600, Note_on_c, 1, 76, 0
3, 237600, Note_on_c, 1, 76, 100
3, 237660, Note_on_c, 1, 76, 0
3, 237660, Note_on_c, 1, 79, 100
3, 237720, Note_on_c, 1, 79, 0
3, 237720, Note_on_c, 1, 76, 100
3, 237780, Note_on_c, 1, 76, 0
3, 237780, Note_on_c, 1, 76, 100
3, 237810, Note_on_c, 1, 76, 0
3, 237810, Note_on_c, 1, 78, 100
3, 237840, Note_on_c, 1, 78, 0
3, 237840, Note_on_c, 1, 76, 100
3, 237870, Note_on_c, 1, 76, 0
3, 237870, Note_on_c, 1, 78, 100
3, 237900, Note_on_c, 1, 78, 0
3, 237900, Note_on_c, 1, 79, 100
3, 237930, Note_on_c, 1, 79, 0
3, 237930, Note_on_c, 1, 78, 100
3, 237960, Note_on_c, 1, 78, 0
3, 237960, Note_on_c, 1, 76, 100
3, 238020, Note_on_c, 1, 76, 0
3, 238200, Note_on_c, 1, 78, 90
3, 238259, Note_on_c, 1, 78, 0
3, 238260, Note_on_c, 1, 74, 90
3, 238319, Note_on_c, 1, 74, 0
3, 238320, Note_on_c, 1, 74, 90
3, 238379, Note_on_c, 1, 74, 0
3, 238380, Note_on_c, 1, 78, 90
3, 238439, Note_on_c, 1, 78, 0
3, 238440, Note_on_c, 1, 74, 90
3, 238499, Note_on_c, 1, 74, 0
3, 238500, Note_on_c, 1, 79, 90
3, 238710, Note_on_c, 1, 79, 0
3, 238710, Note_on_c, 1, 78, 90
3, 238739, Note_on_c, 1, 78, 0
3, 238740, Note_on_c, 1, 79, 90
3, 238769, Note_on_c, 1, 79, 0
3, 238770, Note_on_c, 1, 81, 90
3, 238799, Note_on_c, 1, 81, 0
3, 238800, Note_on_c, 1, 79, 90
3, 238829, Note_on_c, 1, 79, 0
3, 238830, Note_on_c, 1, 81, 90
3, 238859, Note_on_c, 1, 81, 0
3, 238860, Note_on_c, 1, 78, 90
3, 239070, Note_on_c, 1, 78, 0
3, 239070, Note_on_c, 1, 76, 90
3, 239099, Note_on_c, 1, 76, 0
3, 239100, Note_on_c, 1, 78, 90
3, 239129, Note_on_c, 1, 78, 0
3, 239130, Note_on_c, 1, 79, 90
3, 239159, Note_on_c, 1, 79, 0
3, 239160, Note_on_c, 1, 78, 90
3, 239189, Note_on_c, 1, 78, 0
3, 239190, Note_on_c, 1, 79, 90
3, 239219, Note_on_c, 1, 79, 0
3, 239220, Note_on_c, 1, 76, 90
3, 239430, Note_on_c, 1, 76, 0
3, 239430, Note_on_c, 1, 74, 90
3, 239459, Note_on_c, 1, 74, 0
3, 239460, Note_on_c, 1, 76, 90
3, 239489, Note_on_c, 1, 76, 0
3, 239490, Note_on_c, 1, 78, 90
3, 239519, Note_on_c, 1, 78, 0
3, 239520, Note_on_c, 1, 76, 90
3, 239549, Note_on_c, 1, 76, 0
3, 239550, Note_on_c, 1, 78, 90
3, 239579, Note_on_c, 1, 78, 0
3, 239580, Note_on_c, 1, 74, 90
3, 239639, Note_on_c, 1, 74, 0
3, 239640, Note_on_c, 1, 78, 90
3, 239699, Note_on_c, 1, 78, 0
3, 239700, Note_on_c, 1, 74, 90
3, 239759, Note_on_c, 1, 74, 0
3, 239760, Note_on_c, 1, 69, 90
3, 239819, Note_on_c, 1, 69, 0
3, 239820, Note_on_c, 1, 66, 90
3, 239879, Note_on_c, 1, 66, 0
3, 239880, Note_on_c, 1, 69, 90
3, 239939, Note_on_c, 1, 69, 0
3, 239940, Note_on_c, 1, 69, 90
3, 239969, Note_on_c, 1, 69, 0
3, 239970, Note_on_c, 1, 74, 90
3, 239999, Note_on_c, 1, 74, 0
3, 240000, Note_on_c, 1, 69, 90
3, 240029, Note_on_c, 1, 69, 0
3, 240030, Note_on_c, 1, 74, 90
3, 240059, Note_on_c, 1, 74, 0
3, 240060, Note_on_c, 1, 76, 90
3, 240089, Note_on_c, 1, 76, 0
3, 240090, Note_on_c, 1, 74, 90
3, 240119, Note_on_c, 1, 74, 0
3, 240120, Note_on_c, 1, 69, 90
3, 240179, Note_on_c, 1, 69, 0
3, 240180, Note_on_c, 1, 76, 90
3, 240239, Note_on_c, 1, 76, 0
3, 240300, Note_on_c, 1, 74, 90
3, 240329, Note_on_c, 1, 74, 0
3, 240330, Note_on_c, 1, 76, 90
3, 240359, Note_on_c, 1, 76, 0
3, 240360, Note_on_c, 1, 74, 90
3, 240389, Note_on_c, 1, 74, 0
3, 240390, Note_on_c, 1, 76, 90
3, 240419, Note_on_c, 1, 76, 0
3, 240420, Note_on_c, 1, 78, 90
3, 240449, Note_on_c, 1, 78, 0
3, 240450, Note_on_c, 1, 76, 90
3, 240479, Note_on_c, 1, 76, 0
3, 240480, Note_on_c, 1, 74, 90
3, 240539, Note_on_c, 1, 74, 0
3, 240540, Note_on_c, 1, 78, 90
3, 240599, Note_on_c, 1, 78, 0
3, 240660, Note_on_c, 1, 76, 90
3, 240719, Note_on_c, 1, 76, 0
3, 240720, Note_on_c, 1, 76, 90
3, 240779, Note_on_c, 1, 76, 0
3, 240780, Note_on_c, 1, 76, 90
3, 240839, Note_on_c, 1, 76, 0
3, 240840, Note_on_c, 1, 76, 90
3, 240899, Note_on_c, 1, 76, 0
3, 240900, Note_on_c, 1, 76, 90
3, 240959, Note_on_c, 1, 76, 0
3, 240960, Note_on_c, 1, 74, 90
3, 241079, Note_on_c, 1, 74, 0
3, 241080, Note_on_c, 1, 69, 90
3, 241109, Note_on_c, 1, 69, 0
3, 241110, Note_on_c, 1, 69, 90
3, 241139, Note_on_c, 1, 69, 0
3, 241140, Note_on_c, 1, 69, 90
3, 241169, Note_on_c, 1, 69, 0
3, 241170, Note_on_c, 1, 69, 90
3, 241199, Note_on_c, 1, 69, 0
3, 241200, Note_on_c, 1, 69, 90
3, 241319, Note_on_c, 1, 69, 0
3, 242040, Note_on_c, 1, 66, 90
3, 242099, Note_on_c, 1, 66, 0
3, 242100, Note_on_c, 1, 69, 90
3, 242159, Note_on_c, 1, 69, 0
3, 242160, Note_on_c, 1, 74, 90
3, 242189, Note_on_c, 1, 74, 0
3, 242190, Note_on_c, 1, 76, 90
3, 242219, Note_on_c, 1, 76, 0
3, 242220, Note_on_c, 1, 78, 90
3, 242249, Note_on_c, 1, 78, 0
3, 242250, Note_on_c, 1, 76, 90
3, 242279, Note_on_c, 1, 76, 0
3, 242280, Note_on_c, 1, 74, 90
3, 242309, Note_on_c, 1, 74, 0
3, 242310, Note_on_c, 1, 76, 90
3, 242339, Note_on_c, 1, 76, 0
3, 242340, Note_on_c, 1, 74, 90
3, 242369, Note_on_c, 1, 74, 0
3, 242370, Note_on_c, 1, 76, 90
3, 242399, Note_on_c, 1, 76, 0
3, 242400, Note_on_c, 1, 78, 90
3, 242429, Note_on_c, 1, 78, 0
3, 242430, Note_on_c, 1, 76, 90
3, 242459, Note_on_c, 1, 76, 0
3, 242460, Note_on_c, 1, 74, 90
3, 242519, Note_on_c, 1, 74, 0
3, 242520, Note_on_c, 1, 69, 90
3, 242579, Note_on_c, 1, 69, 0
3, 242580, Note_on_c, 1, 66, 90
3, 242639, Note_on_c, 1, 66, 0
3, 242640, Note_on_c, 1, 69, 90
3, 242699, Note_on_c, 1, 69, 0
3, 242700, Note_on_c, 1, 66, 90
3, 242759, Note_on_c, 1, 66, 0
3, 242760, Note_on_c, 1, 62, 90
3, 242819, Note_on_c, 1, 62, 0
3, 242820, Note_on_c, 1, 62, 90
3, 243059, Note_on_c, 1, 62, 0
3, 244020, Note_on_c, 1, 80, 90
3, 244080, Note_on_c, 1, 80, 0
3, 244080, Note_on_c, 1, 83, 90
3, 244140, Note_on_c, 1, 83, 0
3, 244140, Note_on_c, 1, 76, 90
3, 244200, Note_on_c, 1, 76, 0
3, 245700, Note_on_c, 1, 80, 90
3, 245729, Note_on_c, 1, 80, 0
3, 245730, Note_on_c, 1, 81, 90
3, 245759, Note_on_c, 1, 81, 0
3, 245760, Note_on_c, 1, 80, 90
3, 245789, Note_on_c, 1, 80, 0
3, 245790, Note_on_c, 1, 81, 90
3, 245819, Note_on_c, 1, 81, 0
3, 245820, Note_on_c, 1, 83, 90
3, 245849, Note_on_c, 1, 83, 0
3, 245850, Note_on_c, 1, 81, 90
3, 245879, Note_on_c, 1, 81, 0
3, 245880, Note_on_c, 1, 80, 90
3, 245939, Note_on_c, 1, 80, 0
3, 245940, Note_on_c, 1, 83, 90
3, 245999, Note_on_c, 1, 83, 0
3, 246240, Note_on_c, 1, 76, 90
3, 246299, Note_on_c, 1, 76, 0
3, 246300, Note_on_c, 1, 81, 90
3, 246359, Note_on_c, 1, 81, 0
3, 246600, Note_on_c, 1, 80, 90
3, 246659, Note_on_c, 1, 80, 0
3, 246660, Note_on_c, 1, 83, 90
3, 246719, Note_on_c, 1, 83, 0
3, 247320, Note_on_c, 1, 69, 90
3, 247349, Note_on_c, 1, 69, 0
3, 247350, Note_on_c, 1, 74, 90
3, 247379, Note_on_c, 1, 74, 0
3, 247380, Note_on_c, 1, 69, 90
3, 247409, Note_on_c, 1, 69, 0
3, 247410, Note_on_c, 1, 74, 90
3, 247439, Note_on_c, 1, 74, 0
3, 247440, Note_on_c, 1, 76, 90
3, 247469, Note_on_c, 1, 76, 0
3, 247470, Note_on_c, 1, 74, 90
3, 247499, Note_on_c, 1, 74, 0
3, 247500, Note_on_c, 1, 69, 90
3, 247559, Note_on_c, 1, 69, 0
3, 247560, Note_on_c, 1, 76, 90
3, 247619, Note_on_c, 1, 76, 0
3, 247680, Note_on_c, 1, 74, 90
3, 247709, Note_on_c, 1, 74, 0
3, 247710, Note_on_c, 1, 76, 90
3, 247739, Note_on_c, 1, 76, 0
3, 247740, Note_on_c, 1, 74, 90
3, 247769, Note_on_c, 1, 74, 0
3, 247770, Note_on_c, 1, 76, 90
3, 247799, Note_on_c, 1, 76, 0
3, 247800, Note_on_c, 1, 78, 90
3, 247829, Note_on_c, 1, 78, 0
3, 247830, Note_on_c, 1, 76, 90
3, 247859, Note_on_c, 1, 76, 0
3, 247860, Note_on_c, 1, 74, 90
3, 247919, Note_on_c, 1, 74, 0
3, 247920, Note_on_c, 1, 78, 90
3, 247979, Note_on_c, 1, 78, 0
3, 249060, Note_on_c, 1, 76, 90
3, 249120, Note_on_c, 1, 76, 0
3, 249120, Note_on_c, 1, 80, 90
3, 249149, Note_on_c, 1, 80, 0
3, 249150, Note_on_c, 1, 81, 90
3, 249179, Note_on_c, 1, 81, 0
3, 249180, Note_on_c, 1, 80, 90
3, 249209, Note_on_c, 1, 80, 0
3, 249210, Note_on_c, 1, 81, 90
3, 249239, Note_on_c, 1, 81, 0
3, 249240, Note_on_c, 1, 83, 90
3, 249269, Note_on_c, 1, 83, 0
3, 249270, Note_on_c, 1, 81, 90
3, 249299, Note_on_c, 1, 81, 0
3, 249300, Note_on_c, 1, 80, 90
3, 249329, Note_on_c, 1, 80, 0
3, 249330, Note_on_c, 1, 81, 90
3, 249359, Note_on_c, 1, 81, 0
3, 249360, Note_on_c, 1, 80, 90
3, 249389, Note_on_c, 1, 80, 0
3, 249390, Note_on_c, 1, 81, 90
3, 249419, Note_on_c, 1, 81, 0
3, 249420, Note_on_c, 1, 83, 90
3, 249449, Note_on_c, 1, 83, 0
3, 249450, Note_on_c, 1, 80, 90
3, 249479, Note_on_c, 1, 80, 0
3, 249480, Note_on_c, 1, 81, 90
3, 249539, Note_on_c, 1, 81, 0
3, 249540, Note_on_c, 1, 81, 90
3, 249599, Note_on_c, 1, 81, 0
3, 249600, Note_on_c, 1, 83, 90
3, 249659, Note_on_c, 1, 83, 0
3, 249660, Note_on_c, 1, 83, 90
3, 249719, Note_on_c, 1, 83, 0
3, 249840, Note_on_c, 1, 81, 90
3, 249899, Note_on_c, 1, 81, 0
3, 249900, Note_on_c, 1, 78, 90
3, 249959, Note_on_c, 1, 78, 0
3, 249960, Note_on_c, 1, 80, 90
3, 250019, Note_on_c, 1, 80, 0
3, 250020, Note_on_c, 1, 76, 90
3, 250139, Note_on_c, 1, 76, 0
3, 250260, Note_on_c, 1, 69, 90
3, 250320, Note_on_c, 1, 69, 0
3, 250320, Note_on_c, 1, 69, 90
3, 250380, Note_on_c, 1, 69, 0
3, 250380, Note_on_c, 1, 69, 90
3, 250440, Note_on_c, 1, 69, 0
3, 250440, Note_on_c, 1, 69, 90
3, 250500, Note_on_c, 1, 69, 0
3, 250500, Note_on_c, 1, 69, 90
3, 250560, Note_on_c, 1, 69, 0
3, 250980, Note_on_c, 1, 66, 90
3, 251040, Note_on_c, 1, 66, 0
3, 251040, Note_on_c, 1, 66, 90
3, 251100, Note_on_c, 1, 66, 0
3, 251100, Note_on_c, 1, 66, 90
3, 251160, Note_on_c, 1, 66, 0
3, 251160, Note_on_c, 1, 66, 90
3, 251220, Note_on_c, 1, 66, 0
3, 251220, Note_on_c, 1, 66, 90
3, 251280, Note_on_c, 1, 66, 0
3, 255180, Note_on_c, 1, 66, 90
3, 255239, Note_on_c, 1, 66, 0
3, 255240, Note_on_c, 1, 69, 90
3, 255299, Note_on_c, 1, 69, 0
3, 255300, Note_on_c, 1, 74, 90
3, 255329, Note_on_c, 1, 74, 0
3, 255330, Note_on_c, 1, 76, 90
3, 255359, Note_on_c, 1, 76, 0
3, 255360, Note_on_c, 1, 78, 90
3, 255389, Note_on_c, 1, 78, 0
3, 255390, Note_on_c, 1, 76, 90
3, 255419, Note_on_c, 1, 76, 0
3, 255420, Note_on_c, 1, 74, 90
3, 255449, Note_on_c, 1, 74, 0
3, 255450, Note_on_c, 1, 76, 90
3, 255479, Note_on_c, 1, 76, 0
3, 255480, Note_on_c, 1, 74, 90
3, 255509, Note_on_c, 1, 74, 0
3, 255510, Note_on_c, 1, 76, 90
3, 255539, Note_on_c, 1, 76, 0
3, 255540, Note_on_c, 1, 78, 90
3, 255569, Note_on_c, 1, 78, 0
3, 255570, Note_on_c, 1, 76, 90
3, 255599, Note_on_c, 1, 76, 0
3, 255600, Note_on_c, 1, 74, 90
3, 255659, Note_on_c, 1, 74, 0
3, 255660, Note_on_c, 1, 69, 90
3, 255719, Note_on_c, 1, 69, 0
3, 255720, Note_on_c, 1, 66, 90
3, 255779, Note_on_c, 1, 66, 0
3, 255780, Note_on_c, 1, 69, 90
3, 255839, Note_on_c, 1, 69, 0
3, 255840, Note_on_c, 1, 66, 90
3, 255899, Note_on_c, 1, 66, 0
3, 255900, Note_on_c, 1, 62, 90
3, 255959, Note_on_c, 1, 62, 0
3, 256680, Note_on_c, 1, 69, 90
3, 256709, Note_on_c, 1, 69, 0
3, 256710, Note_on_c, 1, 74, 90
3, 256739, Note_on_c, 1, 74, 0
3, 256740, Note_on_c, 1, 69, 90
3, 256769, Note_on_c, 1, 69, 0
3, 256770, Note_on_c, 1, 74, 90
3, 256799, Note_on_c, 1, 74, 0
3, 256800, Note_on_c, 1, 76, 90
3, 256829, Note_on_c, 1, 76, 0
3, 256830, Note_on_c, 1, 74, 90
3, 256859, Note_on_c, 1, 74, 0
3, 256860, Note_on_c, 1, 69, 90
3, 256919, Note_on_c, 1, 69, 0
3, 256920, Note_on_c, 1, 76, 90
3, 256979, Note_on_c, 1, 76, 0
3, 257040, Note_on_c, 1, 74, 90
3, 257069, Note_on_c, 1, 74, 0
3, 257070, Note_on_c, 1, 76, 90
3, 257099, Note_on_c, 1, 76, 0
3, 257100, Note_on_c, 1, 74, 90
3, 257129, Note_on_c, 1, 74, 0
3, 257130, Note_on_c, 1, 76, 90
3, 257159, Note_on_c, 1, 76, 0
3, 257160, Note_on_c, 1, 78, 90
3, 257189, Note_on_c, 1, 78, 0
3, 257190, Note_on_c, 1, 76, 90
3, 257219, Note_on_c, 1, 76, 0
3, 257220, Note_on_c, 1, 74, 90
3, 257279, Note_on_c, 1, 74, 0
3, 257280, Note_on_c, 1, 78, 90
3, 257339, Note_on_c, 1, 78, 0
3, 257400, Note_on_c, 1, 76, 90
3, 257459, Note_on_c, 1, 76, 0
3, 257460, Note_on_c, 1, 76, 90
3, 257519, Note_on_c, 1, 76, 0
3, 257520, Note_on_c, 1, 76, 90
3, 257579, Note_on_c, 1, 76, 0
3, 257580, Note_on_c, 1, 76, 90
3, 257639, Note_on_c, 1, 76, 0
3, 257640, Note_on_c, 1, 76, 90
3, 257699, Note_on_c, 1, 76, 0
3, 257700, Note_on_c, 1, 74, 90
3, 257819, Note_on_c, 1, 74, 0
3, 257820, Note_on_c, 1, 69, 90
3, 257849, Note_on_c, 1, 69, 0
3, 257850, Note_on_c, 1, 69, 90
3, 257879, Note_on_c, 1, 69, 0
3, 257880, Note_on_c, 1, 69, 90
3, 257909, Note_on_c, 1, 69, 0
3, 257910, Note_on_c, 1, 69, 90
3, 257939, Note_on_c, 1, 69, 0
3, 257940, Note_on_c, 1, 69, 90
3, 257999, Note_on_c, 1, 69, 0
3, 258000, Note_on_c, 1, 69, 90
3, 258059, Note_on_c, 1, 69, 0
3, 258060, Note_on_c, 1, 74, 90
3, 258119, Note_on_c, 1, 74, 0
3, 258120, Note_on_c, 1, 69, 90
3, 258359, Note_on_c, 1, 69, 0
3, 259320, Note_on_c, 1, 80, 90
3, 259379, Note_on_c, 1, 80, 0
3, 259380, Note_on_c, 1, 81, 90
3, 259439, Note_on_c, 1, 81, 0
3, 259440, Note_on_c, 1, 76, 90
3, 259499, Note_on_c, 1, 76, 0
3, 259500, Note_on_c, 1, 76, 90
3, 259559, Note_on_c, 1, 76, 0
3, 259560, Note_on_c, 1, 78, 90
3, 259739, Note_on_c, 1, 78, 0
3, 259770, Note_on_c, 1, 76, 90
3, 259799, Note_on_c, 1, 76, 0
3, 259800, Note_on_c, 1, 78, 90
3, 259829, Note_on_c, 1, 78, 0
3, 259830, Note_on_c, 1, 79, 90
3, 259859, Note_on_c, 1, 79, 0
3, 259860, Note_on_c, 1, 78, 90
3, 259889, Note_on_c, 1, 78, 0
3, 259890, Note_on_c, 1, 79, 90
3, 259919, Note_on_c, 1, 79, 0
3, 259920, Note_on_c, 1, 76, 90
3, 259949, Note_on_c, 1, 76, 0
3, 259950, Note_on_c, 1, 78, 90
3, 259979, Note_on_c, 1, 78, 0
3, 259980, Note_on_c, 1, 76, 90
3, 260009, Note_on_c, 1, 76, 0
3, 260010, Note_on_c, 1, 78, 90
3, 260039, Note_on_c, 1, 78, 0
3, 260040, Note_on_c, 1, 79, 90
3, 260069, Note_on_c, 1, 79, 0
3, 260070, Note_on_c, 1, 78, 90
3, 260099, Note_on_c, 1, 78, 0
3, 260100, Note_on_c, 1, 76, 90
3, 260129, Note_on_c, 1, 76, 0
3, 260130, Note_on_c, 1, 78, 90
3, 260159, Note_on_c, 1, 78, 0
3, 260160, Note_on_c, 1, 76, 90
3, 260189, Note_on_c, 1, 76, 0
3, 260190, Note_on_c, 1, 78, 90
3, 260219, Note_on_c, 1, 78, 0
3, 260220, Note_on_c, 1, 79, 90
3, 260249, Note_on_c, 1, 79, 0
3, 260250, Note_on_c, 1, 78, 90
3, 260279, Note_on_c, 1, 78, 0
3, 260280, Note_on_c, 1, 76, 90
3, 260459, Note_on_c, 1, 76, 0
3, 260490, Note_on_c, 1, 74, 90
3, 260519, Note_on_c, 1, 74, 0
3, 260520, Note_on_c, 1, 76, 90
3, 260549, Note_on_c, 1, 76, 0
3, 260550, Note_on_c, 1, 78, 90
3, 260579, Note_on_c, 1, 78, 0
3, 260580, Note_on_c, 1, 76, 90
3, 260609, Note_on_c, 1, 76, 0
3, 260610, Note_on_c, 1, 78, 90
3, 260639, Note_on_c, 1, 78, 0
3, 260640, Note_on_c, 1, 74, 90
3, 260669, Note_on_c, 1, 74, 0
3, 260670, Note_on_c, 1, 76, 90
3, 260699, Note_on_c, 1, 76, 0
3, 260700, Note_on_c, 1, 74, 90
3, 260729, Note_on_c, 1, 74, 0
3, 260730, Note_on_c, 1, 76, 90
3, 260759, Note_on_c, 1, 76, 0
3, 260760, Note_on_c, 1, 78, 90
3, 260789, Note_on_c, 1, 78, 0
3, 260790, Note_on_c, 1, 76, 90
3, 260819, Note_on_c, 1, 76, 0
3, 260820, Note_on_c, 1, 74, 90
3, 260849, Note_on_c, 1, 74, 0
3, 260850, Note_on_c, 1, 76, 90
3, 260879, Note_on_c, 1, 76, 0
3, 260880, Note_on_c, 1, 74, 90
3, 260909, Note_on_c, 1, 74, 0
3, 260910, Note_on_c, 1, 76, 90
3, 260939, Note_on_c, 1, 76, 0
3, 260940, Note_on_c, 1, 78, 90
3, 260999, Note_on_c, 1, 78, 0
3, 261060, Note_on_c, 1, 79, 90
3, 261119, Note_on_c, 1, 79, 0
3, 261120, Note_on_c, 1, 83, 90
3, 261179, Note_on_c, 1, 83, 0
3, 261180, Note_on_c, 1, 76, 90
3, 261239, Note_on_c, 1, 76, 0
3, 261240, Note_on_c, 1, 79, 90
3, 261299, Note_on_c, 1, 79, 0
3, 261300, Note_on_c, 1, 85, 90
3, 261359, Note_on_c, 1, 85, 0
3, 261420, Note_on_c, 1, 78, 90
3, 261479, Note_on_c, 1, 78, 0
3, 261480, Note_on_c, 1, 81, 90
3, 261539, Note_on_c, 1, 81, 0
3, 261540, Note_on_c, 1, 74, 90
3, 261599, Note_on_c, 1, 74, 0
3, 261600, Note_on_c, 1, 78, 90
3, 261659, Note_on_c, 1, 78, 0
3, 261660, Note_on_c, 1, 83, 90
3, 261719, Note_on_c, 1, 83, 0
3, 261780, Note_on_c, 1, 76, 90
3, 261839, Note_on_c, 1, 76, 0
3, 261840, Note_on_c, 1, 79, 90
3, 261899, Note_on_c, 1, 79, 0
3, 261900, Note_on_c, 1, 69, 90
3, 261959, Note_on_c, 1, 69, 0
3, 261960, Note_on_c, 1, 76, 90
3, 262019, Note_on_c, 1, 76, 0
3, 262020, Note_on_c, 1, 81, 90
3, 262079, Note_on_c, 1, 81, 0
3, 262140, Note_on_c, 1, 74, 90
3, 262169, Note_on_c, 1, 74, 0
3, 262170, Note_on_c, 1, 76, 90
3, 262199, Note_on_c, 1, 76, 0
3, 262200, Note_on_c, 1, 74, 90
3, 262229, Note_on_c, 1, 74, 0
3, 262230, Note_on_c, 1, 76, 90
3, 262259, Note_on_c, 1, 76, 0
3, 262260, Note_on_c, 1, 78, 90
3, 262319, Note_on_c, 1, 78, 0
3, 262320, Note_on_c, 1, 74, 90
3, 262379, Note_on_c, 1, 74, 0
3, 262380, Note_on_c, 1, 69, 90
3, 262439, Note_on_c, 1, 69, 0
3, 262440, Note_on_c, 1, 69, 90
3, 262499, Note_on_c, 1, 69, 0
3, 262500, Note_on_c, 1, 76, 90
3, 262559, Note_on_c, 1, 76, 0
3, 262620, Note_on_c, 1, 69, 90
3, 262649, Note_on_c, 1, 69, 0
3, 262650, Note_on_c, 1, 74, 90
3, 262679, Note_on_c, 1, 74, 0
3, 262680, Note_on_c, 1, 69, 90
3, 262709, Note_on_c, 1, 69, 0
3, 262710, Note_on_c, 1, 74, 90
3, 262739, Note_on_c, 1, 74, 0
3, 262740, Note_on_c, 1, 76, 90
3, 262769, Note_on_c, 1, 76, 0
3, 262770, Note_on_c, 1, 69, 90
3, 262799, Note_on_c, 1, 69, 0
3, 262800, Note_on_c, 1, 74, 90
3, 262859, Note_on_c, 1, 74, 0
3, 262860, Note_on_c, 1, 78, 90
3, 262919, Note_on_c, 1, 78, 0
3, 262980, Note_on_c, 1, 74, 90
3, 263009, Note_on_c, 1, 74, 0
3, 263010, Note_on_c, 1, 76, 90
3, 263039, Note_on_c, 1, 76, 0
3, 263040, Note_on_c, 1, 74, 90
3, 263069, Note_on_c, 1, 74, 0
3, 263070, Note_on_c, 1, 76, 90
3, 263099, Note_on_c, 1, 76, 0
3, 263100, Note_on_c, 1, 78, 90
3, 263129, Note_on_c, 1, 78, 0
3, 263130, Note_on_c, 1, 76, 90
3, 263159, Note_on_c, 1, 76, 0
3, 263160, Note_on_c, 1, 74, 90
3, 263189, Note_on_c, 1, 74, 0
3, 263190, Note_on_c, 1, 76, 90
3, 263219, Note_on_c, 1, 76, 0
3, 263220, Note_on_c, 1, 74, 90
3, 263249, Note_on_c, 1, 74, 0
3, 263250, Note_on_c, 1, 76, 90
3, 263279, Note_on_c, 1, 76, 0
3, 263280, Note_on_c, 1, 78, 90
3, 263309, Note_on_c, 1, 78, 0
3, 263310, Note_on_c, 1, 74, 90
3, 263339, Note_on_c, 1, 74, 0
3, 263340, Note_on_c, 1, 76, 90
3, 263369, Note_on_c, 1, 76, 0
3, 263370, Note_on_c, 1, 74, 90
3, 263399, Note_on_c, 1, 74, 0
3, 263400, Note_on_c, 1, 76, 90
3, 263429, Note_on_c, 1, 76, 0
3, 263430, Note_on_c, 1, 69, 90
3, 263459, Note_on_c, 1, 69, 0
3, 263460, Note_on_c, 1, 74, 90
3, 263489, Note_on_c, 1, 74, 0
3, 263490, Note_on_c, 1, 76, 90
3, 263519, Note_on_c, 1, 76, 0
3, 263520, Note_on_c, 1, 78, 90
3, 263549, Note_on_c, 1, 78, 0
3, 263550, Note_on_c, 1, 74, 90
3, 263579, Note_on_c, 1, 74, 0
3, 263580, Note_on_c, 1, 76, 90
3, 263609, Note_on_c, 1, 76, 0
3, 263610, Note_on_c, 1, 78, 90
3, 263639, Note_on_c, 1, 78, 0
3, 263640, Note_on_c, 1, 74, 90
3, 263669, Note_on_c, 1, 74, 0
3, 263670, Note_on_c, 1, 76, 90
3, 263699, Note_on_c, 1, 76, 0
3, 263700, Note_on_c, 1, 78, 90
3, 263759, Note_on_c, 1, 78, 0
3, 265980, Note_on_c, 1, 66, 100
3, 266040, Note_on_c, 1, 66, 0
3, 266040, Note_on_c, 1, 69, 100
3, 266100, Note_on_c, 1, 69, 0
3, 266100, Note_on_c, 1, 74, 100
3, 266130, Note_on_c, 1, 74, 0
3, 266130, Note_on_c, 1, 76, 100
3, 266160, Note_on_c, 1, 76, 0
3, 266160, Note_on_c, 1, 78, 100
3, 266190, Note_on_c, 1, 78, 0
3, 266190, Note_on_c, 1, 76, 100
3, 266220, Note_on_c, 1, 76, 0
3, 266220, Note_on_c, 1, 74, 100
3, 266250, Note_on_c, 1, 74, 0
3, 266250, Note_on_c, 1, 76, 100
3, 266280, Note_on_c, 1, 76, 0
3, 266280, Note_on_c, 1, 74, 100
3, 266310, Note_on_c, 1, 74, 0
3, 266310, Note_on_c, 1, 76, 100
3, 266340, Note_on_c, 1, 76, 0
3, 266340, Note_on_c, 1, 78, 100
3, 266370, Note_on_c, 1, 78, 0
3, 266370, Note_on_c, 1, 76, 100
3, 266400, Note_on_c, 1, 76, 0
3, 266400, Note_on_c, 1, 74, 100
3, 266460, Note_on_c, 1, 74, 0
3, 266460, Note_on_c, 1, 69, 100
3, 266520, Note_on_c, 1, 69, 0
3, 266520, Note_on_c, 1, 66, 100
3, 266580, Note_on_c, 1, 66, 0
3, 266580, Note_on_c, 1, 69, 100
3, 266640, Note_on_c, 1, 69, 0
3, 266640, Note_on_c, 1, 66, 100
3, 266700, Note_on_c, 1, 66, 0
3, 266700, Note_on_c, 1, 62, 100
3, 266760, Note_on_c, 1, 62, 0
3, 266760, Note_on_c, 1, 66, 100
3, 266820, Note_on_c, 1, 66, 0
3, 266820, Note_on_c, 1, 69, 100
3, 266880, Note_on_c, 1, 69, 0
3, 266880, Note_on_c, 1, 74, 100
3, 266940, Note_on_c, 1, 74, 0
3, 266940, Note_on_c, 1, 78, 100
3, 267000, Note_on_c, 1, 78, 0
3, 267000, Note_on_c, 1, 81, 100
3, 267060, Note_on_c, 1, 81, 0
3, 267060, Note_on_c, 1, 78, 100
3, 267120, Note_on_c, 1, 78, 0
3, 267120, Note_on_c, 1, 78, 100
3, 267180, Note_on_c, 1, 78, 0
3, 267180, Note_on_c, 1, 74, 100
3, 267240, Note_on_c, 1, 74, 0
3, 267240, Note_on_c, 1, 69, 100
3, 267300, Note_on_c, 1, 69, 0
3, 267300, Note_on_c, 1, 69, 100
3, 267420, Note_on_c, 1, 69, 0
3, 267420, Note_on_c, 1, 69, 100
3, 267480, Note_on_c, 1, 69, 0
3, 267480, Note_on_c, 1, 78, 100
3, 267510, Note_on_c, 1, 78, 0
3, 267510, Note_on_c, 1, 79, 100
3, 267540, Note_on_c, 1, 79, 0
3, 267540, Note_on_c, 1, 78, 100
3, 267570, Note_on_c, 1, 78, 0
3, 267570, Note_on_c, 1, 79, 100
3, 267600, Note_on_c, 1, 79, 0
3, 267600, Note_on_c, 1, 81, 100
3, 267630, Note_on_c, 1, 81, 0
3, 267630, Note_on_c, 1, 79, 100
3, 267660, Note_on_c, 1, 79, 0
3, 267660, Note_on_c, 1, 78, 100
3, 267720, Note_on_c, 1, 78, 0
3, 267900, Note_on_c, 1, 79, 100
3, 267960, Note_on_c, 1, 79, 0
3, 267960, Note_on_c, 1, 76, 100
3, 268020, Note_on_c, 1, 76, 0
3, 268020, Note_on_c, 1, 76, 100
3, 268080, Note_on_c, 1, 76, 0
3, 268080, Note_on_c, 1, 79, 100
3, 268140, Note_on_c, 1, 79, 0
3, 268140, Note_on_c, 1, 76, 100
3, 268200, Note_on_c, 1, 76, 0
3, 268200, Note_on_c, 1, 76, 100
3, 268230, Note_on_c, 1, 76, 0
3, 268230, Note_on_c, 1, 78, 100
3, 268260, Note_on_c, 1, 78, 0
3, 268260, Note_on_c, 1, 76, 100
3, 268290, Note_on_c, 1, 76, 0
3, 268290, Note_on_c, 1, 78, 100
3, 268320, Note_on_c, 1, 78, 0
3, 268320, Note_on_c, 1, 79, 100
3, 268350, Note_on_c, 1, 79, 0
3, 268350, Note_on_c, 1, 78, 100
3, 268380, Note_on_c, 1, 78, 0
3, 268380, Note_on_c, 1, 76, 100
3, 268440, Note_on_c, 1, 76, 0
3, 268620, Note_on_c, 1, 78, 90
3, 268679, Note_on_c, 1, 78, 0
3, 268680, Note_on_c, 1, 74, 90
3, 268739, Note_on_c, 1, 74, 0
3, 268740, Note_on_c, 1, 74, 90
3, 268799, Note_on_c, 1, 74, 0
3, 268800, Note_on_c, 1, 78, 90
3, 268859, Note_on_c, 1, 78, 0
3, 268860, Note_on_c, 1, 74, 90
3, 268919, Note_on_c, 1, 74, 0
3, 268920, Note_on_c, 1, 79, 90
3, 269130, Note_on_c, 1, 79, 0
3, 269130, Note_on_c, 1, 78, 90
3, 269159, Note_on_c, 1, 78, 0
3, 269160, Note_on_c, 1, 79, 90
3, 269189, Note_on_c, 1, 79, 0
3, 269190, Note_on_c, 1, 81, 90
3, 269219, Note_on_c, 1, 81, 0
3, 269220, Note_on_c, 1, 79, 90
3, 269249, Note_on_c, 1, 79, 0
3, 269250, Note_on_c, 1, 81, 90
3, 269279, Note_on_c, 1, 81, 0
3, 269280, Note_on_c, 1, 78, 90
3, 269490, Note_on_c, 1, 78, 0
3, 269490, Note_on_c, 1, 76, 90
3, 269519, Note_on_c, 1, 76, 0
3, 269520, Note_on_c, 1, 78, 90
3, 269549, Note_on_c, 1, 78, 0
3, 269550, Note_on_c, 1, 79, 90
3, 269579, Note_on_c, 1, 79, 0
3, 269580, Note_on_c, 1, 78, 90
3, 269609, Note_on_c, 1, 78, 0
3, 269610, Note_on_c, 1, 79, 90
3, 269639, Note_on_c, 1, 79, 0
3, 269640, Note_on_c, 1, 76, 90
3, 269850, Note_on_c, 1, 76, 0
3, 269850, Note_on_c, 1, 74, 90
3, 269879, Note_on_c, 1, 74, 0
3, 269880, Note_on_c, 1, 76, 90
3, 269909, Note_on_c, 1, 76, 0
3, 269910, Note_on_c, 1, 78, 90
3, 269939, Note_on_c, 1, 78, 0
3, 269940, Note_on_c, 1, 76, 90
3, 269969, Note_on_c, 1, 76, 0
3, 269970, Note_on_c, 1, 78, 90
3, 269999, Note_on_c, 1, 78, 0
3, 270000, Note_on_c, 1, 74, 90
3, 270059, Note_on_c, 1, 74, 0
3, 270060, Note_on_c, 1, 78, 90
3, 270119, Note_on_c, 1, 78, 0
3, 270120, Note_on_c, 1, 74, 90
3, 270179, Note_on_c, 1, 74, 0
3, 270180, Note_on_c, 1, 69, 90
3, 270239, Note_on_c, 1, 69, 0
3, 270240, Note_on_c, 1, 66, 90
3, 270299, Note_on_c, 1, 66, 0
3, 270300, Note_on_c, 1, 69, 90
3, 270359, Note_on_c, 1, 69, 0
3, 270360, Note_on_c, 1, 69, 90
3, 270389, Note_on_c, 1, 69, 0
3, 270390, Note_on_c, 1, 74, 90
3, 270419, Note_on_c, 1, 74, 0
3, 270420, Note_on_c, 1, 69, 90
3, 270449, Note_on_c, 1, 69, 0
3, 270450, Note_on_c, 1, 74, 90
3, 270479, Note_on_c, 1, 74, 0
3, 270480, Note_on_c, 1, 76, 90
3, 270509, Note_on_c, 1, 76, 0
3, 270510, Note_on_c, 1, 74, 90
3, 270539, Note_on_c, 1, 74, 0
3, 270540, Note_on_c, 1, 69, 90
3, 270599, Note_on_c, 1, 69, 0
3, 270600, Note_on_c, 1, 76, 90
3, 270659, Note_on_c, 1, 76, 0
3, 270720, Note_on_c, 1, 74, 90
3, 270749, Note_on_c, 1, 74, 0
3, 270750, Note_on_c, 1, 76, 90
3, 270779, Note_on_c, 1, 76, 0
3, 270780, Note_on_c, 1, 74, 90
3, 270809, Note_on_c, 1, 74, 0
3, 270810, Note_on_c, 1, 76, 90
3, 270839, Note_on_c, 1, 76, 0
3, 270840, Note_on_c, 1, 78, 90
3, 270869, Note_on_c, 1, 78, 0
3, 270870, Note_on_c, 1, 76, 90
3, 270899, Note_on_c, 1, 76, 0
3, 270900, Note_on_c, 1, 74, 90
3, 270959, Note_on_c, 1, 74, 0
3, 270960, Note_on_c, 1, 78, 90
3, 271019, Note_on_c, 1, 78, 0
3, 271080, Note_on_c, 1, 76, 90
3, 271139, Note_on_c, 1, 76, 0
3, 271140, Note_on_c, 1, 76, 90
3, 271199, Note_on_c, 1, 76, 0
3, 271200, Note_on_c, 1, 76, 90
3, 271259, Note_on_c, 1, 76, 0
3, 271260, Note_on_c, 1, 76, 90
3, 271319, Note_on_c, 1, 76, 0
3, 271320, Note_on_c, 1, 76, 90
3, 271379, Note_on_c, 1, 76, 0
3, 271380, Note_on_c, 1, 74, 90
3, 271499, Note_on_c, 1, 74, 0
3, 271500, Note_on_c, 1, 69, 90
3, 271529, Note_on_c, 1, 69, 0
3, 271530, Note_on_c, 1, 69, 90
3, 271559, Note_on_c, 1, 69, 0
3, 271560, Note_on_c, 1, 69, 90
3, 271589, Note_on_c, 1, 69, 0
3, 271590, Note_on_c, 1, 69, 90
3, 271619, Note_on_c, 1, 69, 0
3, 271620, Note_on_c, 1, 69, 90
3, 271739, Note_on_c, 1, 69, 0
3, 321060, Note_on_c, 1, 81, 90
3, 321299, Note_on_c, 1, 81, 0
3, 321300, Note_on_c, 1, 78, 90
3, 321539, Note_on_c, 1, 78, 0
3, 322500, Note_on_c, 1, 81, 90
3, 322739, Note_on_c, 1, 81, 0
3, 322740, Note_on_c, 1, 78, 90
3, 322979, Note_on_c, 1, 78, 0
3, 323940, Note_on_c, 1, 81, 90
3, 324179, Note_on_c, 1, 81, 0
3, 324180, Note_on_c, 1, 78, 90
3, 324419, Note_on_c, 1, 78, 0
3, 324420, Note_on_c, 1, 74, 90
3, 324539, Note_on_c, 1, 74, 0
3, 324540, Note_on_c, 1, 69, 90
3, 324659, Note_on_c, 1, 69, 0
3, 324660, Note_on_c, 1, 78, 90
3, 324779, Note_on_c, 1, 78, 0
3, 324780, Note_on_c, 1, 74, 90
3, 324899, Note_on_c, 1, 74, 0
3, 324900, Note_on_c, 1, 81, 90
3, 325019, Note_on_c, 1, 81, 0
3, 325020, Note_on_c, 1, 78, 90
3, 325139, Note_on_c, 1, 78, 0
3, 325140, Note_on_c, 1, 74, 90
3, 325259, Note_on_c, 1, 74, 0
3, 325260, Note_on_c, 1, 69, 90
3, 325379, Note_on_c, 1, 69, 0
3, 325380, Note_on_c, 1, 78, 90
3, 325499, Note_on_c, 1, 78, 0
3, 325500, Note_on_c, 1, 78, 90
3, 325559, Note_on_c, 1, 78, 0
3, 325560, Note_on_c, 1, 76, 90
3, 325619, Note_on_c, 1, 76, 0
3, 325620, Note_on_c, 1, 79, 90
3, 325739, Note_on_c, 1, 79, 0
3, 325740, Note_on_c, 1, 78, 90
3, 325799, Note_on_c, 1, 78, 0
3, 325800, Note_on_c, 1, 76, 90
3, 325859, Note_on_c, 1, 76, 0
3, 325860, Note_on_c, 1, 78, 90
3, 325979, Note_on_c, 1, 78, 0
3, 325980, Note_on_c, 1, 76, 90
3, 326039, Note_on_c, 1, 76, 0
3, 326040, Note_on_c, 1, 74, 90
3, 326099, Note_on_c, 1, 74, 0
3, 326100, Note_on_c, 1, 81, 90
3, 326339, Note_on_c, 1, 81, 0
3, 326340, Note_on_c, 1, 81, 90
3, 326579, Note_on_c, 1, 81, 0
3, 326580, Note_on_c, 1, 76, 90
3, 326819, Note_on_c, 1, 76, 0
3, 327780, Note_on_c, 1, 81, 90
3, 328019, Note_on_c, 1, 81, 0
3, 328020, Note_on_c, 1, 76, 90
3, 328259, Note_on_c, 1, 76, 0
3, 329220, Note_on_c, 1, 81, 90
3, 329459, Note_on_c, 1, 81, 0
3, 329460, Note_on_c, 1, 76, 90
3, 329699, Note_on_c, 1, 76, 0
3, 329700, Note_on_c, 1, 69, 90
3, 329819, Note_on_c, 1, 69, 0
3, 329820, Note_on_c, 1, 69, 90
3, 329939, Note_on_c, 1, 69, 0
3, 329940, Note_on_c, 1, 69, 90
3, 330059, Note_on_c, 1, 69, 0
3, 330060, Note_on_c, 1, 69, 90
3, 330179, Note_on_c, 1, 69, 0
3, 330180, Note_on_c, 1, 69, 90
3, 330299, Note_on_c, 1, 69, 0
3, 330300, Note_on_c, 1, 69, 90
3, 330419, Note_on_c, 1, 69, 0
3, 330420, Note_on_c, 1, 69, 90
3, 330539, Note_on_c, 1, 69, 0
3, 330540, Note_on_c, 1, 69, 90
3, 330659, Note_on_c, 1, 69, 0
3, 330660, Note_on_c, 1, 74, 90
3, 330779, Note_on_c, 1, 74, 0
3, 330780, Note_on_c, 1, 74, 90
3, 330899, Note_on_c, 1, 74, 0
3, 330900, Note_on_c, 1, 74, 90
3, 331019, Note_on_c, 1, 74, 0
3, 331020, Note_on_c, 1, 74, 90
3, 331139, Note_on_c, 1, 74, 0
3, 331140, Note_on_c, 1, 74, 90
3, 331259, Note_on_c, 1, 74, 0
3, 331260, Note_on_c, 1, 69, 90
3, 331379, Note_on_c, 1, 69, 0
3, 331380, Note_on_c, 1, 69, 90
3, 331499, Note_on_c, 1, 69, 0
3, 331500, Note_on_c, 1, 66, 90
3, 331559, Note_on_c, 1, 66, 0
3, 331560, Note_on_c, 1, 69, 90
3, 331619, Note_on_c, 1, 69, 0
3, 331620, Note_on_c, 1, 74, 90
3, 331679, Note_on_c, 1, 74, 0
3, 331680, Note_on_c, 1, 76, 90
3, 331739, Note_on_c, 1, 76, 0
3, 331740, Note_on_c, 1, 74, 90
3, 331799, Note_on_c, 1, 74, 0
3, 331800, Note_on_c, 1, 76, 90
3, 331859, Note_on_c, 1, 76, 0
3, 331860, Note_on_c, 1, 78, 90
3, 332099, Note_on_c, 1, 78, 0
3, 333540, Note_on_c, 1, 62, 90
3, 333659, Note_on_c, 1, 62, 0
3, 333660, Note_on_c, 1, 62, 90
3, 333779, Note_on_c, 1, 62, 0
3, 333780, Note_on_c, 1, 62, 90
3, 333899, Note_on_c, 1, 62, 0
3, 333900, Note_on_c, 1, 62, 90
3, 334019, Note_on_c, 1, 62, 0
3, 334020, Note_on_c, 1, 62, 90
3, 334139, Note_on_c, 1, 62, 0
3, 334140, Note_on_c, 1, 62, 90
3, 334259, Note_on_c, 1, 62, 0
3, 334260, Note_on_c, 1, 62, 90
3, 334379, Note_on_c, 1, 62, 0
3, 334380, Note_on_c, 1, 62, 90
3, 334499, Note_on_c, 1, 62, 0
3, 334500, Note_on_c, 1, 81, 90
3, 334739, Note_on_c, 1, 81, 0
3, 334740, Note_on_c, 1, 78, 90
3, 334979, Note_on_c, 1, 78, 0
3, 334980, Note_on_c, 1, 74, 90
3, 335099, Note_on_c, 1, 74, 0
3, 335100, Note_on_c, 1, 69, 90
3, 335219, Note_on_c, 1, 69, 0
3, 335220, Note_on_c, 1, 78, 90
3, 335339, Note_on_c, 1, 78, 0
3, 335340, Note_on_c, 1, 74, 90
3, 335459, Note_on_c, 1, 74, 0
3, 335460, Note_on_c, 1, 81, 90
3, 335579, Note_on_c, 1, 81, 0
3, 335580, Note_on_c, 1, 78, 90
3, 335699, Note_on_c, 1, 78, 0
3, 335700, Note_on_c, 1, 74, 90
3, 335819, Note_on_c, 1, 74, 0
3, 335820, Note_on_c, 1, 69, 90
3, 335939, Note_on_c, 1, 69, 0
3, 335940, Note_on_c, 1, 78, 90
3, 336059, Note_on_c, 1, 78, 0
3, 336060, Note_on_c, 1, 78, 90
3, 336119, Note_on_c, 1, 78, 0
3, 336120, Note_on_c, 1, 76, 90
3, 336179, Note_on_c, 1, 76, 0
3, 336180, Note_on_c, 1, 79, 90
3, 336299, Note_on_c, 1, 79, 0
3, 336300, Note_on_c, 1, 78, 90
3, 336359, Note_on_c, 1, 78, 0
3, 336360, Note_on_c, 1, 76, 90
3, 336419, Note_on_c, 1, 76, 0
3, 336420, Note_on_c, 1, 78, 90
3, 336539, Note_on_c, 1, 78, 0
3, 336540, Note_on_c, 1, 76, 90
3, 336599, Note_on_c, 1, 76, 0
3, 336600, Note_on_c, 1, 74, 90
3, 336659, Note_on_c, 1, 74, 0
3, 336660, Note_on_c, 1, 81, 90
3, 336899, Note_on_c, 1, 81, 0
3, 338340, Note_on_c, 1, 76, 90
3, 338459, Note_on_c, 1, 76, 0
3, 338460, Note_on_c, 1, 78, 90
3, 338519, Note_on_c, 1, 78, 0
3, 338520, Note_on_c, 1, 80, 90
3, 338579, Note_on_c, 1, 80, 0
3, 338580, Note_on_c, 1, 81, 90
3, 338819, Note_on_c, 1, 81, 0
3, 338820, Note_on_c, 1, 69, 90
3, 338939, Note_on_c, 1, 69, 0
3, 338940, Note_on_c, 1, 69, 90
3, 339059, Note_on_c, 1, 69, 0
3, 339060, Note_on_c, 1, 69, 90
3, 339179, Note_on_c, 1, 69, 0
3, 339180, Note_on_c, 1, 69, 90
3, 339299, Note_on_c, 1, 69, 0
3, 339300, Note_on_c, 1, 69, 90
3, 339419, Note_on_c, 1, 69, 0
3, 339420, Note_on_c, 1, 69, 90
3, 339539, Note_on_c, 1, 69, 0
3, 339540, Note_on_c, 1, 69, 90
3, 339659, Note_on_c, 1, 69, 0
3, 339660, Note_on_c, 1, 69, 90
3, 339779, Note_on_c, 1, 69, 0
3, 339780, Note_on_c, 1, 81, 90
3, 340019, Note_on_c, 1, 81, 0
3, 340020, Note_on_c, 1, 76, 90
3, 340259, Note_on_c, 1, 76, 0
3, 340260, Note_on_c, 1, 69, 90
3, 340379, Note_on_c, 1, 69, 0
3, 340380, Note_on_c, 1, 69, 90
3, 340499, Note_on_c, 1, 69, 0
3, 340500, Note_on_c, 1, 69, 90
3, 340619, Note_on_c, 1, 69, 0
3, 340620, Note_on_c, 1, 69, 90
3, 340739, Note_on_c, 1, 69, 0
3, 340740, Note_on_c, 1, 69, 90
3, 340859, Note_on_c, 1, 69, 0
3, 340860, Note_on_c, 1, 69, 90
3, 340979, Note_on_c, 1, 69, 0
3, 340980, Note_on_c, 1, 69, 90
3, 341099, Note_on_c, 1, 69, 0
3, 341100, Note_on_c, 1, 69, 90
3, 341219, Note_on_c, 1, 69, 0
3, 341220, Note_on_c, 1, 74, 90
3, 341339, Note_on_c, 1, 74, 0
3, 341340, Note_on_c, 1, 74, 90
3, 341459, Note_on_c, 1, 74, 0
3, 341460, Note_on_c, 1, 74, 90
3, 341579, Note_on_c, 1, 74, 0
3, 341580, Note_on_c, 1, 74, 90
3, 341699, Note_on_c, 1, 74, 0
3, 341700, Note_on_c, 1, 74, 90
3, 341819, Note_on_c, 1, 74, 0
3, 341820, Note_on_c, 1, 69, 90
3, 341939, Note_on_c, 1, 69, 0
3, 341940, Note_on_c, 1, 69, 90
3, 342179, Note_on_c, 1, 69, 0
3, 347940, Note_on_c, 1, 81, 90
3, 348179, Note_on_c, 1, 81, 0
3, 348180, Note_on_c, 1, 78, 90
3, 348419, Note_on_c, 1, 78, 0
3, 349380, Note_on_c, 1, 81, 90
3, 349619, Note_on_c, 1, 81, 0
3, 349620, Note_on_c, 1, 78, 90
3, 349859, Note_on_c, 1, 78, 0
3, 349860, Note_on_c, 1, 78, 90
3, 349979, Note_on_c, 1, 78, 0
3, 349980, Note_on_c, 1, 78, 90
3, 350039, Note_on_c, 1, 78, 0
3, 350040, Note_on_c, 1, 76, 90
3, 350099, Note_on_c, 1, 76, 0
3, 350100, Note_on_c, 1, 79, 90
3, 350219, Note_on_c, 1, 79, 0
3, 350220, Note_on_c, 1, 78, 90
3, 350279, Note_on_c, 1, 78, 0
3, 350280, Note_on_c, 1, 76, 90
3, 350339, Note_on_c, 1, 76, 0
3, 350340, Note_on_c, 1, 78, 90
3, 350459, Note_on_c, 1, 78, 0
3, 350460, Note_on_c, 1, 78, 90
3, 350519, Note_on_c, 1, 78, 0
3, 350520, Note_on_c, 1, 76, 90
3, 350579, Note_on_c, 1, 76, 0
3, 350580, Note_on_c, 1, 79, 90
3, 350699, Note_on_c, 1, 79, 0
3, 350700, Note_on_c, 1, 78, 90
3, 350759, Note_on_c, 1, 78, 0
3, 350760, Note_on_c, 1, 76, 90
3, 350819, Note_on_c, 1, 76, 0
3, 350820, Note_on_c, 1, 81, 90
3, 351059, Note_on_c, 1, 81, 0
3, 351060, Note_on_c, 1, 78, 90
3, 351299, Note_on_c, 1, 78, 0
3, 351300, Note_on_c, 1, 74, 90
3, 351419, Note_on_c, 1, 74, 0
3, 351420, Note_on_c, 1, 69, 90
3, 351539, Note_on_c, 1, 69, 0
3, 351540, Note_on_c, 1, 78, 90
3, 351659, Note_on_c, 1, 78, 0
3, 351660, Note_on_c, 1, 74, 90
3, 351779, Note_on_c, 1, 74, 0
3, 351780, Note_on_c, 1, 81, 90
3, 351899, Note_on_c, 1, 81, 0
3, 351900, Note_on_c, 1, 78, 90
3, 352019, Note_on_c, 1, 78, 0
3, 352020, Note_on_c, 1, 74, 90
3, 352139, Note_on_c, 1, 74, 0
3, 352140, Note_on_c, 1, 69, 90
3, 352259, Note_on_c, 1, 69, 0
3, 352260, Note_on_c, 1, 74, 90
3, 352379, Note_on_c, 1, 74, 0
3, 352380, Note_on_c, 1, 74, 90
3, 352499, Note_on_c, 1, 74, 0
3, 352500, Note_on_c, 1, 74, 90
3, 352619, Note_on_c, 1, 74, 0
3, 352620, Note_on_c, 1, 74, 90
3, 352739, Note_on_c, 1, 74, 0
3, 352740, Note_on_c, 1, 74, 90
3, 352859, Note_on_c, 1, 74, 0
3, 352860, Note_on_c, 1, 69, 90
3, 352979, Note_on_c, 1, 69, 0
3, 352980, Note_on_c, 1, 69, 90
3, 353219, Note_on_c, 1, 69, 0
3, 353220, Note_on_c, 1, 81, 90
3, 353459, Note_on_c, 1, 81, 0
3, 353460, Note_on_c, 1, 78, 90
3, 353699, Note_on_c, 1, 78, 0
3, 354660, Note_on_c, 1, 81, 90
3, 354899, Note_on_c, 1, 81, 0
3, 354900, Note_on_c, 1, 78, 90
3, 355139, Note_on_c, 1, 78, 0
3, 355140, Note_on_c, 1, 69, 90
3, 355259, Note_on_c, 1, 69, 0
3, 355260, Note_on_c, 1, 69, 90
3, 355379, Note_on_c, 1, 69, 0
3, 355380, Note_on_c, 1, 69, 90
3, 355499, Note_on_c, 1, 69, 0
3, 355500, Note_on_c, 1, 69, 90
3, 355619, Note_on_c, 1, 69, 0
3, 355620, Note_on_c, 1, 69, 90
3, 355739, Note_on_c, 1, 69, 0
3, 355740, Note_on_c, 1, 69, 90
3, 355859, Note_on_c, 1, 69, 0
3, 355860, Note_on_c, 1, 69, 90
3, 355979, Note_on_c, 1, 69, 0
3, 355980, Note_on_c, 1, 69, 90
3, 356099, Note_on_c, 1, 69, 0
3, 356100, Note_on_c, 1, 81, 90
3, 356339, Note_on_c, 1, 81, 0
3, 356340, Note_on_c, 1, 76, 90
3, 356579, Note_on_c, 1, 76, 0
3, 356580, Note_on_c, 1, 76, 90
3, 356639, Note_on_c, 1, 76, 0
3, 356640, Note_on_c, 1, 74, 90
3, 356699, Note_on_c, 1, 74, 0
3, 356700, Note_on_c, 1, 76, 90
3, 356759, Note_on_c, 1, 76, 0
3, 356760, Note_on_c, 1, 74, 90
3, 356819, Note_on_c, 1, 74, 0
3, 356820, Note_on_c, 1, 69, 90
3, 356879, Note_on_c, 1, 69, 0
3, 356880, Note_on_c, 1, 74, 90
3, 356939, Note_on_c, 1, 74, 0
3, 356940, Note_on_c, 1, 69, 90
3, 356999, Note_on_c, 1, 69, 0
3, 357000, Note_on_c, 1, 74, 90
3, 357059, Note_on_c, 1, 74, 0
3, 357060, Note_on_c, 1, 76, 90
3, 357119, Note_on_c, 1, 76, 0
3, 357120, Note_on_c, 1, 74, 90
3, 357179, Note_on_c, 1, 74, 0
3, 357180, Note_on_c, 1, 76, 90
3, 357239, Note_on_c, 1, 76, 0
3, 357240, Note_on_c, 1, 74, 90
3, 357299, Note_on_c, 1, 74, 0
3, 357300, Note_on_c, 1, 69, 90
3, 357359, Note_on_c, 1, 69, 0
3, 357360, Note_on_c, 1, 74, 90
3, 357419, Note_on_c, 1, 74, 0
3, 357420, Note_on_c, 1, 69, 90
3, 357479, Note_on_c, 1, 69, 0
3, 357480, Note_on_c, 1, 74, 90
3, 357539, Note_on_c, 1, 74, 0
3, 357540, Note_on_c, 1, 66, 90
3, 357599, Note_on_c, 1, 66, 0
3, 357600, Note_on_c, 1, 69, 90
3, 357659, Note_on_c, 1, 69, 0
3, 357660, Note_on_c, 1, 74, 90
3, 357719, Note_on_c, 1, 74, 0
3, 357720, Note_on_c, 1, 76, 90
3, 357779, Note_on_c, 1, 76, 0
3, 357780, Note_on_c, 1, 78, 90
3, 357839, Note_on_c, 1, 78, 0
3, 357840, Note_on_c, 1, 76, 90
3, 357899, Note_on_c, 1, 76, 0
3, 357900, Note_on_c, 1, 74, 90
3, 357959, Note_on_c, 1, 74, 0
3, 357960, Note_on_c, 1, 78, 90
3, 358019, Note_on_c, 1, 78, 0
3, 358020, Note_on_c, 1, 76, 90
3, 358079, Note_on_c, 1, 76, 0
3, 358080, Note_on_c, 1, 74, 90
3, 358139, Note_on_c, 1, 74, 0
3, 358140, Note_on_c, 1, 69, 90
3, 358259, Note_on_c, 1, 69, 0
3, 358260, Note_on_c, 1, 69, 90
3, 358499, Note_on_c, 1, 69, 0
3, 359460, Note_on_c, 1, 76, 90
3, 359579, Note_on_c, 1, 76, 0
3, 359580, Note_on_c, 1, 78, 90
3, 359639, Note_on_c, 1, 78, 0
3, 359640, Note_on_c, 1, 80, 90
3, 359699, Note_on_c, 1, 80, 0
3, 359700, Note_on_c, 1, 81, 90
3, 359939, Note_on_c, 1, 81, 0
3, 364260, Note_on_c, 1, 81, 90
3, 364499, Note_on_c, 1, 81, 0
3, 364500, Note_on_c, 1, 78, 90
3, 364739, Note_on_c, 1, 78, 0
3, 365700, Note_on_c, 1, 81, 90
3, 365939, Note_on_c, 1, 81, 0
3, 365940, Note_on_c, 1, 78, 90
3, 366179, Note_on_c, 1, 78, 0
3, 367140, Note_on_c, 1, 81, 90
3, 367379, Note_on_c, 1, 81, 0
3, 367380, Note_on_c, 1, 78, 90
3, 367619, Note_on_c, 1, 78, 0
3, 367620, Note_on_c, 1, 74, 90
3, 367739, Note_on_c, 1, 74, 0
3, 367740, Note_on_c, 1, 69, 90
3, 367859, Note_on_c, 1, 69, 0
3, 367860, Note_on_c, 1, 78, 90
3, 367979, Note_on_c, 1, 78, 0
3, 367980, Note_on_c, 1, 74, 90
3, 368099, Note_on_c, 1, 74, 0
3, 368100, Note_on_c, 1, 81, 90
3, 368219, Note_on_c, 1, 81, 0
3, 368220, Note_on_c, 1, 78, 90
3, 368339, Note_on_c, 1, 78, 0
3, 368340, Note_on_c, 1, 74, 90
3, 368459, Note_on_c, 1, 74, 0
3, 368460, Note_on_c, 1, 69, 90
3, 368579, Note_on_c, 1, 69, 0
3, 368580, Note_on_c, 1, 78, 90
3, 368699, Note_on_c, 1, 78, 0
3, 368700, Note_on_c, 1, 78, 90
3, 368759, Note_on_c, 1, 78, 0
3, 368760, Note_on_c, 1, 76, 90
3, 368819, Note_on_c, 1, 76, 0
3, 368820, Note_on_c, 1, 79, 90
3, 368939, Note_on_c, 1, 79, 0
3, 368940, Note_on_c, 1, 78, 90
3, 368999, Note_on_c, 1, 78, 0
3, 369000, Note_on_c, 1, 76, 90
3, 369059, Note_on_c, 1, 76, 0
3, 369060, Note_on_c, 1, 78, 90
3, 369179, Note_on_c, 1, 78, 0
3, 369180, Note_on_c, 1, 76, 90
3, 369239, Note_on_c, 1, 76, 0
3, 369240, Note_on_c, 1, 74, 90
3, 369299, Note_on_c, 1, 74, 0
3, 369300, Note_on_c, 1, 81, 90
3, 369539, Note_on_c, 1, 81, 0
3, 369540, Note_on_c, 1, 81, 90
3, 369779, Note_on_c, 1, 81, 0
3, 369780, Note_on_c, 1, 76, 90
3, 370019, Note_on_c, 1, 76, 0
3, 370980, Note_on_c, 1, 81, 90
3, 371219, Note_on_c, 1, 81, 0
3, 371220, Note_on_c, 1, 76, 90
3, 371459, Note_on_c, 1, 76, 0
3, 372420, Note_on_c, 1, 81, 90
3, 372659, Note_on_c, 1, 81, 0
3, 372660, Note_on_c, 1, 76, 90
3, 372899, Note_on_c, 1, 76, 0
3, 372900, Note_on_c, 1, 69, 90
3, 373019, Note_on_c, 1, 69, 0
3, 373020, Note_on_c, 1, 69, 90
3, 373139, Note_on_c, 1, 69, 0
3, 373140, Note_on_c, 1, 69, 90
3, 373259, Note_on_c, 1, 69, 0
3, 373260, Note_on_c, 1, 69, 90
3, 373379, Note_on_c, 1, 69, 0
3, 373380, Note_on_c, 1, 69, 90
3, 373499, Note_on_c, 1, 69, 0
3, 373500, Note_on_c, 1, 69, 90
3, 373619, Note_on_c, 1, 69, 0
3, 373620, Note_on_c, 1, 69, 90
3, 373739, Note_on_c, 1, 69, 0
3, 373740, Note_on_c, 1, 69, 90
3, 373859, Note_on_c, 1, 69, 0
3, 373860, Note_on_c, 1, 74, 90
3, 373979, Note_on_c, 1, 74, 0
3, 373980, Note_on_c, 1, 74, 90
3, 374099, Note_on_c, 1, 74, 0
3, 374100, Note_on_c, 1, 74, 90
3, 374219, Note_on_c, 1, 74, 0
3, 374220, Note_on_c, 1, 74, 90
3, 374339, Note_on_c, 1, 74, 0
3, 374340, Note_on_c, 1, 74, 90
3, 374459, Note_on_c, 1, 74, 0
3, 374460, Note_on_c, 1, 69, 90
3, 374579, Note_on_c, 1, 69, 0
3, 374580, Note_on_c, 1, 69, 90
3, 374699, Note_on_c, 1, 69, 0
3, 374700, Note_on_c, 1, 66, 90
3, 374759, Note_on_c, 1, 66, 0
3, 374760, Note_on_c, 1, 69, 90
3, 374819, Note_on_c, 1, 69, 0
3, 374820, Note_on_c, 1, 74, 90
3, 374879, Note_on_c, 1, 74, 0
3, 374880, Note_on_c, 1, 76, 90
3, 374939, Note_on_c, 1, 76, 0
3, 374940, Note_on_c, 1, 74, 90
3, 374999, Note_on_c, 1, 74, 0
3, 375000, Note_on_c, 1, 76, 90
3, 375059, Note_on_c, 1, 76, 0
3, 375060, Note_on_c, 1, 78, 90
3, 375299, Note_on_c, 1, 78, 0
3, 376740, Note_on_c, 1, 62, 90
3, 376859, Note_on_c, 1, 62, 0
3, 376860, Note_on_c, 1, 62, 90
3, 376979, Note_on_c, 1, 62, 0
3, 376980, Note_on_c, 1, 62, 90
3, 377099, Note_on_c, 1, 62, 0
3, 377100, Note_on_c, 1, 62, 90
3, 377219, Note_on_c, 1, 62, 0
3, 377220, Note_on_c, 1, 62, 90
3, 377339, Note_on_c, 1, 62, 0
3, 377340, Note_on_c, 1, 62, 90
3, 377459, Note_on_c, 1, 62, 0
3, 377460, Note_on_c, 1, 62, 90
3, 377579, Note_on_c, 1, 62, 0
3, 377580, Note_on_c, 1, 62, 90
3, 377699, Note_on_c, 1, 62, 0
3, 377700, Note_on_c, 1, 81, 90
3, 377939, Note_on_c, 1, 81, 0
3, 377940, Note_on_c, 1, 78, 90
3, 378179, Note_on_c, 1, 78, 0
3, 378180, Note_on_c, 1, 74, 90
3, 378299, Note_on_c, 1, 74, 0
3, 378300, Note_on_c, 1, 69, 90
3, 378419, Note_on_c, 1, 69, 0
3, 378420, Note_on_c, 1, 78, 90
3, 378539, Note_on_c, 1, 78, 0
3, 378540, Note_on_c, 1, 74, 90
3, 378659, Note_on_c, 1, 74, 0
3, 378660, Note_on_c, 1, 81, 90
3, 378779, Note_on_c, 1, 81, 0
3, 378780, Note_on_c, 1, 78, 90
3, 378899, Note_on_c, 1, 78, 0
3, 378900, Note_on_c, 1, 74, 90
3, 379019, Note_on_c, 1, 74, 0
3, 379020, Note_on_c, 1, 69, 90
3, 379139, Note_on_c, 1, 69, 0
3, 379140, Note_on_c, 1, 78, 90
3, 379259, Note_on_c, 1, 78, 0
3, 379260, Note_on_c, 1, 78, 90
3, 379319, Note_on_c, 1, 78, 0
3, 379320, Note_on_c, 1, 76, 90
3, 379379, Note_on_c, 1, 76, 0
3, 379380, Note_on_c, 1, 79, 90
3, 379499, Note_on_c, 1, 79, 0
3, 379500, Note_on_c, 1, 78, 90
3, 379559, Note_on_c, 1, 78, 0
3, 379560, Note_on_c, 1, 76, 90
3, 379619, Note_on_c, 1, 76, 0
3, 379620, Note_on_c, 1, 78, 90
3, 379739, Note_on_c, 1, 78, 0
3, 379740, Note_on_c, 1, 76, 90
3, 379799, Note_on_c, 1, 76, 0
3, 379800, Note_on_c, 1, 74, 90
3, 379859, Note_on_c, 1, 74, 0
3, 379860, Note_on_c, 1, 81, 90
3, 380099, Note_on_c, 1, 81, 0
3, 381540, Note_on_c, 1, 76, 90
3, 381659, Note_on_c, 1, 76, 0
3, 381660, Note_on_c, 1, 78, 90
3, 381719, Note_on_c, 1, 78, 0
3, 381720, Note_on_c, 1, 80, 90
3, 381779, Note_on_c, 1, 80, 0
3, 381780, Note_on_c, 1, 81, 90
3, 382019, Note_on_c, 1, 81, 0
3, 382020, Note_on_c, 1, 69, 90
3, 382139, Note_on_c, 1, 69, 0
3, 382140, Note_on_c, 1, 69, 90
3, 382259, Note_on_c, 1, 69, 0
3, 382260, Note_on_c, 1, 69, 90
3, 382379, Note_on_c, 1, 69, 0
3, 382380, Note_on_c, 1, 69, 90
3, 382499, Note_on_c, 1, 69, 0
3, 382500, Note_on_c, 1, 69, 90
3, 382619, Note_on_c, 1, 69, 0
3, 382620, Note_on_c, 1, 69, 90
3, 382739, Note_on_c, 1, 69, 0
3, 382740, Note_on_c, 1, 69, 90
3, 382859, Note_on_c, 1, 69, 0
3, 382860, Note_on_c, 1, 69, 90
3, 382979, Note_on_c, 1, 69, 0
3, 382980, Note_on_c, 1, 81, 90
3, 383219, Note_on_c, 1, 81, 0
3, 383220, Note_on_c, 1, 76, 90
3, 383459, Note_on_c, 1, 76, 0
3, 383460, Note_on_c, 1, 69, 90
3, 383579, Note_on_c, 1, 69, 0
3, 383580, Note_on_c, 1, 69, 90
3, 383699, Note_on_c, 1, 69, 0
3, 383700, Note_on_c, 1, 69, 90
3, 383819, Note_on_c, 1, 69, 0
3, 383820, Note_on_c, 1, 69, 90
3, 383939, Note_on_c, 1, 69, 0
3, 383940, Note_on_c, 1, 69, 90
3, 384059, Note_on_c, 1, 69, 0
3, 384060, Note_on_c, 1, 69, 90
3, 384179, Note_on_c, 1, 69, 0
3, 384180, Note_on_c, 1, 69, 90
3, 384299, Note_on_c, 1, 69, 0
3, 384300, Note_on_c, 1, 69, 90
3, 384419, Note_on_c, 1, 69, 0
3, 384420, Note_on_c, 1, 74, 90
3, 384539, Note_on_c, 1, 74, 0
3, 384540, Note_on_c, 1, 74, 90
3, 384659, Note_on_c, 1, 74, 0
3, 384660, Note_on_c, 1, 74, 90
3, 384779, Note_on_c, 1, 74, 0
3, 384780, Note_on_c, 1, 74, 90
3, 384899, Note_on_c, 1, 74, 0
3, 384900, Note_on_c, 1, 74, 90
3, 385019, Note_on_c, 1, 74, 0
3, 385020, Note_on_c, 1, 69, 90
3, 385139, Note_on_c, 1, 69, 0
3, 385140, Note_on_c, 1, 69, 90
3, 385379, Note_on_c, 1, 69, 0
3, 385379, End_track
4, 0, Start_track
4, 0, MIDI_port, 0
4, 0, Title_t, "tromp iii"
4, 0, Program_c, 0, 56
4, 0, Note_on_c, 0, 66, 80
4, 60, Note_on_c, 0, 66, 0
4, 60, Note_on_c, 0, 62, 80
4, 120, Note_on_c, 0, 62, 0
4, 360, Note_on_c, 0, 69, 80
4, 420, Note_on_c, 0, 69, 0
4, 420, Note_on_c, 0, 66, 80
4, 480, Note_on_c, 0, 66, 0
4, 720, Note_on_c, 0, 74, 80
4, 780, Note_on_c, 0, 74, 0
4, 780, Note_on_c, 0, 69, 80
4, 840, Note_on_c, 0, 69, 0
4, 1080, Note_on_c, 0, 78, 80
4, 1140, Note_on_c, 0, 78, 0
4, 1140, Note_on_c, 0, 74, 80
4, 1200, Note_on_c, 0, 74, 0
4, 1500, Note_on_c, 0, 74, 80
4, 1559, Note_on_c, 0, 74, 0
4, 1560, Note_on_c, 0, 74, 80
4, 1619, Note_on_c, 0, 74, 0
4, 1620, Note_on_c, 0, 74, 80
4, 1679, Note_on_c, 0, 74, 0
4, 1680, Note_on_c, 0, 74, 80
4, 1739, Note_on_c, 0, 74, 0
4, 1740, Note_on_c, 0, 74, 80
4, 1799, Note_on_c, 0, 74, 0
4, 1860, Note_on_c, 0, 66, 80
4, 1919, Note_on_c, 0, 66, 0
4, 1920, Note_on_c, 0, 66, 80
4, 1979, Note_on_c, 0, 66, 0
4, 1980, Note_on_c, 0, 66, 80
4, 2039, Note_on_c, 0, 66, 0
4, 2040, Note_on_c, 0, 66, 80
4, 2099, Note_on_c, 0, 66, 0
4, 2100, Note_on_c, 0, 66, 80
4, 2159, Note_on_c, 0, 66, 0
4, 2220, Note_on_c, 0, 80, 80
4, 2279, Note_on_c, 0, 80, 0
4, 2280, Note_on_c, 0, 80, 80
4, 2339, Note_on_c, 0, 80, 0
4, 2340, Note_on_c, 0, 80, 80
4, 2399, Note_on_c, 0, 80, 0
4, 2400, Note_on_c, 0, 80, 80
4, 2459, Note_on_c, 0, 80, 0
4, 2460, Note_on_c, 0, 80, 80
4, 2519, Note_on_c, 0, 80, 0
4, 2580, Note_on_c, 0, 76, 80
4, 2639, Note_on_c, 0, 76, 0
4, 2640, Note_on_c, 0, 76, 80
4, 2699, Note_on_c, 0, 76, 0
4, 2700, Note_on_c, 0, 76, 80
4, 2759, Note_on_c, 0, 76, 0
4, 2760, Note_on_c, 0, 76, 80
4, 2819, Note_on_c, 0, 76, 0
4, 2820, Note_on_c, 0, 76, 80
4, 2879, Note_on_c, 0, 76, 0
4, 2880, Note_on_c, 0, 76, 80
4, 2999, Note_on_c, 0, 76, 0
4, 5040, Note_on_c, 0, 69, 80
4, 5099, Note_on_c, 0, 69, 0
4, 5100, Note_on_c, 0, 66, 80
4, 5159, Note_on_c, 0, 66, 0
4, 5760, Note_on_c, 0, 69, 80
4, 5819, Note_on_c, 0, 69, 0
4, 5820, Note_on_c, 0, 62, 80
4, 5879, Note_on_c, 0, 62, 0
4, 6540, Note_on_c, 0, 69, 80
4, 6599, Note_on_c, 0, 69, 0
4, 6600, Note_on_c, 0, 69, 80
4, 6659, Note_on_c, 0, 69, 0
4, 6660, Note_on_c, 0, 69, 80
4, 6719, Note_on_c, 0, 69, 0
4, 6720, Note_on_c, 0, 69, 80
4, 6779, Note_on_c, 0, 69, 0
4, 6780, Note_on_c, 0, 69, 80
4, 6839, Note_on_c, 0, 69, 0
4, 6900, Note_on_c, 0, 74, 80
4, 6959, Note_on_c, 0, 74, 0
4, 6960, Note_on_c, 0, 74, 80
4, 7019, Note_on_c, 0, 74, 0
4, 7020, Note_on_c, 0, 74, 80
4, 7079, Note_on_c, 0, 74, 0
4, 7080, Note_on_c, 0, 74, 80
4, 7139, Note_on_c, 0, 74, 0
4, 7140, Note_on_c, 0, 74, 80
4, 7199, Note_on_c, 0, 74, 0
4, 7260, Note_on_c, 0, 74, 80
4, 7319, Note_on_c, 0, 74, 0
4, 7320, Note_on_c, 0, 74, 80
4, 7379, Note_on_c, 0, 74, 0
4, 7380, Note_on_c, 0, 74, 80
4, 7439, Note_on_c, 0, 74, 0
4, 7440, Note_on_c, 0, 74, 80
4, 7499, Note_on_c, 0, 74, 0
4, 7500, Note_on_c, 0, 74, 80
4, 7559, Note_on_c, 0, 74, 0
4, 7560, Note_on_c, 0, 81, 80
4, 7619, Note_on_c, 0, 81, 0
4, 7620, Note_on_c, 0, 76, 80
4, 7679, Note_on_c, 0, 76, 0
4, 7920, Note_on_c, 0, 78, 80
4, 7979, Note_on_c, 0, 78, 0
4, 7980, Note_on_c, 0, 74, 80
4, 8039, Note_on_c, 0, 74, 0
4, 8280, Note_on_c, 0, 76, 80
4, 8339, Note_on_c, 0, 76, 0
4, 8340, Note_on_c, 0, 69, 80
4, 8399, Note_on_c, 0, 69, 0
4, 8700, Note_on_c, 0, 74, 80
4, 8759, Note_on_c, 0, 74, 0
4, 8760, Note_on_c, 0, 74, 80
4, 8819, Note_on_c, 0, 74, 0
4, 8820, Note_on_c, 0, 74, 80
4, 8879, Note_on_c, 0, 74, 0
4, 8880, Note_on_c, 0, 74, 80
4, 8939, Note_on_c, 0, 74, 0
4, 8940, Note_on_c, 0, 74, 80
4, 8999, Note_on_c, 0, 74, 0
4, 9060, Note_on_c, 0, 66, 80
4, 9119, Note_on_c, 0, 66, 0
4, 9120, Note_on_c, 0, 66, 80
4, 9179, Note_on_c, 0, 66, 0
4, 9180, Note_on_c, 0, 66, 80
4, 9239, Note_on_c, 0, 66, 0
4, 9240, Note_on_c, 0, 66, 80
4, 9299, Note_on_c, 0, 66, 0
4, 9300, Note_on_c, 0, 66, 80
4, 9359, Note_on_c, 0, 66, 0
4, 9780, Note_on_c, 0, 69, 80
4, 9809, Note_on_c, 0, 69, 0
4, 9810, Note_on_c, 0, 69, 80
4, 9839, Note_on_c, 0, 69, 0
4, 9840, Note_on_c, 0, 69, 80
4, 9869, Note_on_c, 0, 69, 0
4, 9870, Note_on_c, 0, 69, 80
4, 9899, Note_on_c, 0, 69, 0
4, 9900, Note_on_c, 0, 69, 80
4, 9929, Note_on_c, 0, 69, 0
4, 9930, Note_on_c, 0, 69, 80
4, 9959, Note_on_c, 0, 69, 0
4, 9960, Note_on_c, 0, 69, 80
4, 10019, Note_on_c, 0, 69, 0
4, 10020, Note_on_c, 0, 69, 80
4, 10079, Note_on_c, 0, 69, 0
4, 10080, Note_on_c, 0, 66, 80
4, 10139, Note_on_c, 0, 66, 0
4, 10140, Note_on_c, 0, 62, 80
4, 10199, Note_on_c, 0, 62, 0
4, 10440, Note_on_c, 0, 78, 80
4, 10499, Note_on_c, 0, 78, 0
4, 10500, Note_on_c, 0, 74, 80
4, 10559, Note_on_c, 0, 74, 0
4, 10800, Note_on_c, 0, 62, 80
4, 10859, Note_on_c, 0, 62, 0
4, 10860, Note_on_c, 0, 57, 80
4, 10919, Note_on_c, 0, 57, 0
4, 11160, Note_on_c, 0, 74, 80
4, 11219, Note_on_c, 0, 74, 0
4, 11220, Note_on_c, 0, 62, 80
4, 11279, Note_on_c, 0, 62, 0
4, 11580, Note_on_c, 0, 74, 80
4, 11639, Note_on_c, 0, 74, 0
4, 11640, Note_on_c, 0, 74, 80
4, 11699, Note_on_c, 0, 74, 0
4, 11700, Note_on_c, 0, 74, 80
4, 11759, Note_on_c, 0, 74, 0
4, 11760, Note_on_c, 0, 74, 80
4, 11819, Note_on_c, 0, 74, 0
4, 11820, Note_on_c, 0, 69, 80
4, 11879, Note_on_c, 0, 69, 0
4, 11880, Note_on_c, 0, 81, 80
4, 11939, Note_on_c, 0, 81, 0
4, 11940, Note_on_c, 0, 76, 80
4, 11999, Note_on_c, 0, 76, 0
4, 12240, Note_on_c, 0, 78, 80
4, 12299, Note_on_c, 0, 78, 0
4, 12300, Note_on_c, 0, 74, 80
4, 12359, Note_on_c, 0, 74, 0
4, 12600, Note_on_c, 0, 76, 80
4, 12659, Note_on_c, 0, 76, 0
4, 12660, Note_on_c, 0, 69, 80
4, 12719, Note_on_c, 0, 69, 0
4, 13020, Note_on_c, 0, 74, 80
4, 13079, Note_on_c, 0, 74, 0
4, 13080, Note_on_c, 0, 74, 80
4, 13139, Note_on_c, 0, 74, 0
4, 13140, Note_on_c, 0, 74, 80
4, 13199, Note_on_c, 0, 74, 0
4, 13200, Note_on_c, 0, 74, 80
4, 13259, Note_on_c, 0, 74, 0
4, 13260, Note_on_c, 0, 74, 80
4, 13319, Note_on_c, 0, 74, 0
4, 13380, Note_on_c, 0, 66, 80
4, 13439, Note_on_c, 0, 66, 0
4, 13440, Note_on_c, 0, 66, 80
4, 13499, Note_on_c, 0, 66, 0
4, 13500, Note_on_c, 0, 66, 80
4, 13559, Note_on_c, 0, 66, 0
4, 13560, Note_on_c, 0, 66, 80
4, 13619, Note_on_c, 0, 66, 0
4, 13620, Note_on_c, 0, 66, 80
4, 13679, Note_on_c, 0, 66, 0
4, 14100, Note_on_c, 0, 69, 80
4, 14129, Note_on_c, 0, 69, 0
4, 14130, Note_on_c, 0, 69, 80
4, 14159, Note_on_c, 0, 69, 0
4, 14160, Note_on_c, 0, 69, 80
4, 14189, Note_on_c, 0, 69, 0
4, 14190, Note_on_c, 0, 69, 80
4, 14219, Note_on_c, 0, 69, 0
4, 14220, Note_on_c, 0, 69, 80
4, 14249, Note_on_c, 0, 69, 0
4, 14250, Note_on_c, 0, 69, 80
4, 14279, Note_on_c, 0, 69, 0
4, 14280, Note_on_c, 0, 69, 80
4, 14339, Note_on_c, 0, 69, 0
4, 14340, Note_on_c, 0, 69, 80
4, 14399, Note_on_c, 0, 69, 0
4, 14400, Note_on_c, 0, 66, 80
4, 14459, Note_on_c, 0, 66, 0
4, 14520, Note_on_c, 0, 62, 80
4, 14579, Note_on_c, 0, 62, 0
4, 14580, Note_on_c, 0, 57, 80
4, 14639, Note_on_c, 0, 57, 0
4, 14880, Note_on_c, 0, 66, 80
4, 14939, Note_on_c, 0, 66, 0
4, 14940, Note_on_c, 0, 62, 80
4, 14999, Note_on_c, 0, 62, 0
4, 15240, Note_on_c, 0, 69, 80
4, 15299, Note_on_c, 0, 69, 0
4, 15300, Note_on_c, 0, 66, 80
4, 15359, Note_on_c, 0, 66, 0
4, 15540, Note_on_c, 0, 62, 80
4, 15599, Note_on_c, 0, 62, 0
4, 15600, Note_on_c, 0, 62, 80
4, 15659, Note_on_c, 0, 62, 0
4, 15660, Note_on_c, 0, 66, 80
4, 15719, Note_on_c, 0, 66, 0
4, 15720, Note_on_c, 0, 66, 80
4, 15779, Note_on_c, 0, 66, 0
4, 15780, Note_on_c, 0, 69, 80
4, 15839, Note_on_c, 0, 69, 0
4, 15840, Note_on_c, 0, 69, 80
4, 15899, Note_on_c, 0, 69, 0
4, 15900, Note_on_c, 0, 74, 80
4, 15959, Note_on_c, 0, 74, 0
4, 15960, Note_on_c, 0, 74, 80
4, 16019, Note_on_c, 0, 74, 0
4, 16020, Note_on_c, 0, 74, 80
4, 16079, Note_on_c, 0, 74, 0
4, 16080, Note_on_c, 0, 74, 80
4, 16139, Note_on_c, 0, 74, 0
4, 16140, Note_on_c, 0, 74, 80
4, 16199, Note_on_c, 0, 74, 0
4, 16260, Note_on_c, 0, 66, 80
4, 16319, Note_on_c, 0, 66, 0
4, 16320, Note_on_c, 0, 66, 80
4, 16379, Note_on_c, 0, 66, 0
4, 16380, Note_on_c, 0, 66, 80
4, 16439, Note_on_c, 0, 66, 0
4, 16440, Note_on_c, 0, 66, 80
4, 16499, Note_on_c, 0, 66, 0
4, 16500, Note_on_c, 0, 66, 80
4, 16559, Note_on_c, 0, 66, 0
4, 16620, Note_on_c, 0, 80, 80
4, 16679, Note_on_c, 0, 80, 0
4, 16680, Note_on_c, 0, 80, 80
4, 16739, Note_on_c, 0, 80, 0
4, 16740, Note_on_c, 0, 80, 80
4, 16799, Note_on_c, 0, 80, 0
4, 16800, Note_on_c, 0, 80, 80
4, 16859, Note_on_c, 0, 80, 0
4, 16860, Note_on_c, 0, 80, 80
4, 16919, Note_on_c, 0, 80, 0
4, 16980, Note_on_c, 0, 76, 80
4, 17039, Note_on_c, 0, 76, 0
4, 17040, Note_on_c, 0, 76, 80
4, 17099, Note_on_c, 0, 76, 0
4, 17100, Note_on_c, 0, 76, 80
4, 17159, Note_on_c, 0, 76, 0
4, 17160, Note_on_c, 0, 76, 80
4, 17219, Note_on_c, 0, 76, 0
4, 17220, Note_on_c, 0, 76, 80
4, 17279, Note_on_c, 0, 76, 0
4, 17280, Note_on_c, 0, 76, 80
4, 17339, Note_on_c, 0, 76, 0
4, 17340, Note_on_c, 0, 76, 80
4, 17399, Note_on_c, 0, 76, 0
4, 17400, Note_on_c, 0, 76, 80
4, 17459, Note_on_c, 0, 76, 0
4, 17460, Note_on_c, 0, 76, 80
4, 17519, Note_on_c, 0, 76, 0
4, 17520, Note_on_c, 0, 76, 80
4, 17579, Note_on_c, 0, 76, 0
4, 17580, Note_on_c, 0, 76, 80
4, 17639, Note_on_c, 0, 76, 0
4, 17700, Note_on_c, 0, 69, 80
4, 17759, Note_on_c, 0, 69, 0
4, 17760, Note_on_c, 0, 69, 80
4, 17819, Note_on_c, 0, 69, 0
4, 17820, Note_on_c, 0, 69, 80
4, 17879, Note_on_c, 0, 69, 0
4, 17880, Note_on_c, 0, 69, 80
4, 17939, Note_on_c, 0, 69, 0
4, 17940, Note_on_c, 0, 69, 80
4, 17999, Note_on_c, 0, 69, 0
4, 18060, Note_on_c, 0, 78, 80
4, 18119, Note_on_c, 0, 78, 0
4, 18120, Note_on_c, 0, 78, 80
4, 18179, Note_on_c, 0, 78, 0
4, 18180, Note_on_c, 0, 78, 80
4, 18239, Note_on_c, 0, 78, 0
4, 18240, Note_on_c, 0, 78, 80
4, 18299, Note_on_c, 0, 78, 0
4, 18300, Note_on_c, 0, 78, 80
4, 18359, Note_on_c, 0, 78, 0
4, 18360, Note_on_c, 0, 76, 80
4, 18419, Note_on_c, 0, 76, 0
4, 18420, Note_on_c, 0, 74, 80
4, 18479, Note_on_c, 0, 74, 0
4, 18720, Note_on_c, 0, 76, 80
4, 18779, Note_on_c, 0, 76, 0
4, 18780, Note_on_c, 0, 69, 80
4, 18839, Note_on_c, 0, 69, 0
4, 19080, Note_on_c, 0, 76, 80
4, 19139, Note_on_c, 0, 76, 0
4, 19140, Note_on_c, 0, 74, 80
4, 19199, Note_on_c, 0, 74, 0
4, 19500, Note_on_c, 0, 76, 80
4, 19559, Note_on_c, 0, 76, 0
4, 19560, Note_on_c, 0, 76, 80
4, 19619, Note_on_c, 0, 76, 0
4, 19620, Note_on_c, 0, 76, 80
4, 19679, Note_on_c, 0, 76, 0
4, 19680, Note_on_c, 0, 76, 80
4, 19739, Note_on_c, 0, 76, 0
4, 19860, Note_on_c, 0, 78, 80
4, 19919, Note_on_c, 0, 78, 0
4, 19920, Note_on_c, 0, 78, 80
4, 19979, Note_on_c, 0, 78, 0
4, 19980, Note_on_c, 0, 78, 80
4, 20039, Note_on_c, 0, 78, 0
4, 20040, Note_on_c, 0, 78, 80
4, 20099, Note_on_c, 0, 78, 0
4, 20580, Note_on_c, 0, 69, 80
4, 20639, Note_on_c, 0, 69, 0
4, 20640, Note_on_c, 0, 69, 80
4, 20699, Note_on_c, 0, 69, 0
4, 20700, Note_on_c, 0, 69, 80
4, 20759, Note_on_c, 0, 69, 0
4, 20880, Note_on_c, 0, 69, 80
4, 20999, Note_on_c, 0, 69, 0
4, 23040, Note_on_c, 0, 69, 80
4, 23099, Note_on_c, 0, 69, 0
4, 23100, Note_on_c, 0, 66, 80
4, 23159, Note_on_c, 0, 66, 0
4, 23760, Note_on_c, 0, 69, 80
4, 23819, Note_on_c, 0, 69, 0
4, 23820, Note_on_c, 0, 62, 80
4, 23879, Note_on_c, 0, 62, 0
4, 24540, Note_on_c, 0, 69, 80
4, 24599, Note_on_c, 0, 69, 0
4, 24600, Note_on_c, 0, 69, 80
4, 24659, Note_on_c, 0, 69, 0
4, 24660, Note_on_c, 0, 69, 80
4, 24719, Note_on_c, 0, 69, 0
4, 24720, Note_on_c, 0, 69, 80
4, 24779, Note_on_c, 0, 69, 0
4, 24780, Note_on_c, 0, 69, 80
4, 24839, Note_on_c, 0, 69, 0
4, 24900, Note_on_c, 0, 74, 80
4, 24959, Note_on_c, 0, 74, 0
4, 24960, Note_on_c, 0, 74, 80
4, 25019, Note_on_c, 0, 74, 0
4, 25020, Note_on_c, 0, 74, 80
4, 25079, Note_on_c, 0, 74, 0
4, 25080, Note_on_c, 0, 74, 80
4, 25139, Note_on_c, 0, 74, 0
4, 25140, Note_on_c, 0, 74, 80
4, 25199, Note_on_c, 0, 74, 0
4, 25260, Note_on_c, 0, 74, 80
4, 25319, Note_on_c, 0, 74, 0
4, 25320, Note_on_c, 0, 74, 80
4, 25379, Note_on_c, 0, 74, 0
4, 25380, Note_on_c, 0, 74, 80
4, 25439, Note_on_c, 0, 74, 0
4, 25440, Note_on_c, 0, 74, 80
4, 25499, Note_on_c, 0, 74, 0
4, 25500, Note_on_c, 0, 74, 80
4, 25559, Note_on_c, 0, 74, 0
4, 25560, Note_on_c, 0, 81, 80
4, 25619, Note_on_c, 0, 81, 0
4, 25620, Note_on_c, 0, 76, 80
4, 25679, Note_on_c, 0, 76, 0
4, 25920, Note_on_c, 0, 78, 80
4, 25979, Note_on_c, 0, 78, 0
4, 25980, Note_on_c, 0, 74, 80
4, 26039, Note_on_c, 0, 74, 0
4, 26280, Note_on_c, 0, 76, 80
4, 26339, Note_on_c, 0, 76, 0
4, 26340, Note_on_c, 0, 69, 80
4, 26399, Note_on_c, 0, 69, 0
4, 26700, Note_on_c, 0, 74, 80
4, 26759, Note_on_c, 0, 74, 0
4, 26760, Note_on_c, 0, 74, 80
4, 26819, Note_on_c, 0, 74, 0
4, 26820, Note_on_c, 0, 74, 80
4, 26879, Note_on_c, 0, 74, 0
4, 26880, Note_on_c, 0, 74, 80
4, 26939, Note_on_c, 0, 74, 0
4, 26940, Note_on_c, 0, 74, 80
4, 26999, Note_on_c, 0, 74, 0
4, 27060, Note_on_c, 0, 66, 80
4, 27119, Note_on_c, 0, 66, 0
4, 27120, Note_on_c, 0, 66, 80
4, 27179, Note_on_c, 0, 66, 0
4, 27180, Note_on_c, 0, 66, 80
4, 27239, Note_on_c, 0, 66, 0
4, 27240, Note_on_c, 0, 66, 80
4, 27299, Note_on_c, 0, 66, 0
4, 27300, Note_on_c, 0, 66, 80
4, 27359, Note_on_c, 0, 66, 0
4, 27780, Note_on_c, 0, 69, 80
4, 27809, Note_on_c, 0, 69, 0
4, 27810, Note_on_c, 0, 69, 80
4, 27839, Note_on_c, 0, 69, 0
4, 27840, Note_on_c, 0, 69, 80
4, 27869, Note_on_c, 0, 69, 0
4, 27870, Note_on_c, 0, 69, 80
4, 27899, Note_on_c, 0, 69, 0
4, 27900, Note_on_c, 0, 69, 80
4, 27929, Note_on_c, 0, 69, 0
4, 27930, Note_on_c, 0, 69, 80
4, 27959, Note_on_c, 0, 69, 0
4, 27960, Note_on_c, 0, 69, 80
4, 28019, Note_on_c, 0, 69, 0
4, 28020, Note_on_c, 0, 69, 80
4, 28079, Note_on_c, 0, 69, 0
4, 28080, Note_on_c, 0, 78, 80
4, 28139, Note_on_c, 0, 78, 0
4, 28140, Note_on_c, 0, 74, 80
4, 28199, Note_on_c, 0, 74, 0
4, 28440, Note_on_c, 0, 83, 80
4, 28499, Note_on_c, 0, 83, 0
4, 28500, Note_on_c, 0, 79, 80
4, 28559, Note_on_c, 0, 79, 0
4, 28800, Note_on_c, 0, 81, 80
4, 28859, Note_on_c, 0, 81, 0
4, 28860, Note_on_c, 0, 78, 80
4, 28919, Note_on_c, 0, 78, 0
4, 29160, Note_on_c, 0, 74, 80
4, 29219, Note_on_c, 0, 74, 0
4, 29220, Note_on_c, 0, 62, 80
4, 29279, Note_on_c, 0, 62, 0
4, 29580, Note_on_c, 0, 69, 80
4, 29609, Note_on_c, 0, 69, 0
4, 29610, Note_on_c, 0, 69, 80
4, 29639, Note_on_c, 0, 69, 0
4, 29640, Note_on_c, 0, 69, 80
4, 29669, Note_on_c, 0, 69, 0
4, 29670, Note_on_c, 0, 69, 80
4, 29699, Note_on_c, 0, 69, 0
4, 29700, Note_on_c, 0, 69, 80
4, 29729, Note_on_c, 0, 69, 0
4, 29730, Note_on_c, 0, 69, 80
4, 29759, Note_on_c, 0, 69, 0
4, 29760, Note_on_c, 0, 69, 80
4, 29819, Note_on_c, 0, 69, 0
4, 29820, Note_on_c, 0, 69, 80
4, 29879, Note_on_c, 0, 69, 0
4, 29880, Note_on_c, 0, 69, 80
4, 29999, Note_on_c, 0, 69, 0
4, 39960, Note_on_c, 0, 66, 80
4, 40020, Note_on_c, 0, 66, 0
4, 40020, Note_on_c, 0, 62, 80
4, 40080, Note_on_c, 0, 62, 0
4, 40320, Note_on_c, 0, 69, 80
4, 40380, Note_on_c, 0, 69, 0
4, 40380, Note_on_c, 0, 66, 80
4, 40440, Note_on_c, 0, 66, 0
4, 40680, Note_on_c, 0, 74, 80
4, 40740, Note_on_c, 0, 74, 0
4, 40740, Note_on_c, 0, 69, 80
4, 40800, Note_on_c, 0, 69, 0
4, 41040, Note_on_c, 0, 78, 80
4, 41100, Note_on_c, 0, 78, 0
4, 41100, Note_on_c, 0, 74, 80
4, 41160, Note_on_c, 0, 74, 0
4, 41460, Note_on_c, 0, 74, 80
4, 41519, Note_on_c, 0, 74, 0
4, 41520, Note_on_c, 0, 74, 80
4, 41579, Note_on_c, 0, 74, 0
4, 41580, Note_on_c, 0, 74, 80
4, 41639, Note_on_c, 0, 74, 0
4, 41640, Note_on_c, 0, 74, 80
4, 41699, Note_on_c, 0, 74, 0
4, 41700, Note_on_c, 0, 74, 80
4, 41759, Note_on_c, 0, 74, 0
4, 41820, Note_on_c, 0, 66, 80
4, 41879, Note_on_c, 0, 66, 0
4, 41880, Note_on_c, 0, 66, 80
4, 41939, Note_on_c, 0, 66, 0
4, 41940, Note_on_c, 0, 66, 80
4, 41999, Note_on_c, 0, 66, 0
4, 42000, Note_on_c, 0, 66, 80
4, 42059, Note_on_c, 0, 66, 0
4, 42060, Note_on_c, 0, 66, 80
4, 42119, Note_on_c, 0, 66, 0
4, 42180, Note_on_c, 0, 80, 80
4, 42239, Note_on_c, 0, 80, 0
4, 42240, Note_on_c, 0, 80, 80
4, 42299, Note_on_c, 0, 80, 0
4, 42300, Note_on_c, 0, 80, 80
4, 42359, Note_on_c, 0, 80, 0
4, 42360, Note_on_c, 0, 80, 80
4, 42419, Note_on_c, 0, 80, 0
4, 42420, Note_on_c, 0, 80, 80
4, 42479, Note_on_c, 0, 80, 0
4, 42540, Note_on_c, 0, 76, 80
4, 42599, Note_on_c, 0, 76, 0
4, 42600, Note_on_c, 0, 76, 80
4, 42659, Note_on_c, 0, 76, 0
4, 42660, Note_on_c, 0, 76, 80
4, 42719, Note_on_c, 0, 76, 0
4, 42720, Note_on_c, 0, 76, 80
4, 42779, Note_on_c, 0, 76, 0
4, 42780, Note_on_c, 0, 76, 80
4, 42839, Note_on_c, 0, 76, 0
4, 42840, Note_on_c, 0, 76, 80
4, 42959, Note_on_c, 0, 76, 0
4, 45000, Note_on_c, 0, 69, 80
4, 45059, Note_on_c, 0, 69, 0
4, 45060, Note_on_c, 0, 66, 80
4, 45119, Note_on_c, 0, 66, 0
4, 45720, Note_on_c, 0, 69, 80
4, 45779, Note_on_c, 0, 69, 0
4, 45780, Note_on_c, 0, 62, 80
4, 45839, Note_on_c, 0, 62, 0
4, 46500, Note_on_c, 0, 69, 80
4, 46559, Note_on_c, 0, 69, 0
4, 46560, Note_on_c, 0, 69, 80
4, 46619, Note_on_c, 0, 69, 0
4, 46620, Note_on_c, 0, 69, 80
4, 46679, Note_on_c, 0, 69, 0
4, 46680, Note_on_c, 0, 69, 80
4, 46739, Note_on_c, 0, 69, 0
4, 46740, Note_on_c, 0, 69, 80
4, 46799, Note_on_c, 0, 69, 0
4, 46860, Note_on_c, 0, 74, 80
4, 46919, Note_on_c, 0, 74, 0
4, 46920, Note_on_c, 0, 74, 80
4, 46979, Note_on_c, 0, 74, 0
4, 46980, Note_on_c, 0, 74, 80
4, 47039, Note_on_c, 0, 74, 0
4, 47040, Note_on_c, 0, 74, 80
4, 47099, Note_on_c, 0, 74, 0
4, 47100, Note_on_c, 0, 74, 80
4, 47159, Note_on_c, 0, 74, 0
4, 47220, Note_on_c, 0, 74, 80
4, 47279, Note_on_c, 0, 74, 0
4, 47280, Note_on_c, 0, 74, 80
4, 47339, Note_on_c, 0, 74, 0
4, 47340, Note_on_c, 0, 74, 80
4, 47399, Note_on_c, 0, 74, 0
4, 47400, Note_on_c, 0, 74, 80
4, 47459, Note_on_c, 0, 74, 0
4, 47460, Note_on_c, 0, 74, 80
4, 47519, Note_on_c, 0, 74, 0
4, 47520, Note_on_c, 0, 81, 80
4, 47579, Note_on_c, 0, 81, 0
4, 47580, Note_on_c, 0, 76, 80
4, 47639, Note_on_c, 0, 76, 0
4, 47880, Note_on_c, 0, 78, 80
4, 47939, Note_on_c, 0, 78, 0
4, 47940, Note_on_c, 0, 74, 80
4, 47999, Note_on_c, 0, 74, 0
4, 48240, Note_on_c, 0, 76, 80
4, 48299, Note_on_c, 0, 76, 0
4, 48300, Note_on_c, 0, 69, 80
4, 48359, Note_on_c, 0, 69, 0
4, 48660, Note_on_c, 0, 74, 80
4, 48719, Note_on_c, 0, 74, 0
4, 48720, Note_on_c, 0, 74, 80
4, 48779, Note_on_c, 0, 74, 0
4, 48780, Note_on_c, 0, 74, 80
4, 48839, Note_on_c, 0, 74, 0
4, 48840, Note_on_c, 0, 74, 80
4, 48899, Note_on_c, 0, 74, 0
4, 48900, Note_on_c, 0, 74, 80
4, 48959, Note_on_c, 0, 74, 0
4, 49020, Note_on_c, 0, 66, 80
4, 49079, Note_on_c, 0, 66, 0
4, 49080, Note_on_c, 0, 66, 80
4, 49139, Note_on_c, 0, 66, 0
4, 49140, Note_on_c, 0, 66, 80
4, 49199, Note_on_c, 0, 66, 0
4, 49200, Note_on_c, 0, 66, 80
4, 49259, Note_on_c, 0, 66, 0
4, 49260, Note_on_c, 0, 66, 80
4, 49319, Note_on_c, 0, 66, 0
4, 49740, Note_on_c, 0, 69, 80
4, 49769, Note_on_c, 0, 69, 0
4, 49770, Note_on_c, 0, 69, 80
4, 49799, Note_on_c, 0, 69, 0
4, 49800, Note_on_c, 0, 69, 80
4, 49829, Note_on_c, 0, 69, 0
4, 49830, Note_on_c, 0, 69, 80
4, 49859, Note_on_c, 0, 69, 0
4, 49860, Note_on_c, 0, 69, 80
4, 49889, Note_on_c, 0, 69, 0
4, 49890, Note_on_c, 0, 69, 80
4, 49919, Note_on_c, 0, 69, 0
4, 49920, Note_on_c, 0, 69, 80
4, 49979, Note_on_c, 0, 69, 0
4, 49980, Note_on_c, 0, 69, 80
4, 50039, Note_on_c, 0, 69, 0
4, 50040, Note_on_c, 0, 66, 80
4, 50099, Note_on_c, 0, 66, 0
4, 50100, Note_on_c, 0, 62, 80
4, 50159, Note_on_c, 0, 62, 0
4, 50400, Note_on_c, 0, 78, 80
4, 50459, Note_on_c, 0, 78, 0
4, 50460, Note_on_c, 0, 74, 80
4, 50519, Note_on_c, 0, 74, 0
4, 50760, Note_on_c, 0, 62, 80
4, 50819, Note_on_c, 0, 62, 0
4, 50820, Note_on_c, 0, 57, 80
4, 50879, Note_on_c, 0, 57, 0
4, 51120, Note_on_c, 0, 74, 80
4, 51179, Note_on_c, 0, 74, 0
4, 51180, Note_on_c, 0, 62, 80
4, 51239, Note_on_c, 0, 62, 0
4, 51540, Note_on_c, 0, 74, 80
4, 51599, Note_on_c, 0, 74, 0
4, 51600, Note_on_c, 0, 74, 80
4, 51659, Note_on_c, 0, 74, 0
4, 51660, Note_on_c, 0, 74, 80
4, 51719, Note_on_c, 0, 74, 0
4, 51720, Note_on_c, 0, 74, 80
4, 51779, Note_on_c, 0, 74, 0
4, 51780, Note_on_c, 0, 69, 80
4, 51839, Note_on_c, 0, 69, 0
4, 51840, Note_on_c, 0, 81, 80
4, 51899, Note_on_c, 0, 81, 0
4, 51900, Note_on_c, 0, 76, 80
4, 51959, Note_on_c, 0, 76, 0
4, 52200, Note_on_c, 0, 78, 80
4, 52259, Note_on_c, 0, 78, 0
4, 52260, Note_on_c, 0, 74, 80
4, 52319, Note_on_c, 0, 74, 0
4, 52560, Note_on_c, 0, 76, 80
4, 52619, Note_on_c, 0, 76, 0
4, 52620, Note_on_c, 0, 69, 80
4, 52679, Note_on_c, 0, 69, 0
4, 52980, Note_on_c, 0, 74, 80
4, 53039, Note_on_c, 0, 74, 0
4, 53040, Note_on_c, 0, 74, 80
4, 53099, Note_on_c, 0, 74, 0
4, 53100, Note_on_c, 0, 74, 80
4, 53159, Note_on_c, 0, 74, 0
4, 53160, Note_on_c, 0, 74, 80
4, 53219, Note_on_c, 0, 74, 0
4, 53220, Note_on_c, 0, 74, 80
4, 53279, Note_on_c, 0, 74, 0
4, 53340, Note_on_c, 0, 66, 80
4, 53399, Note_on_c, 0, 66, 0
4, 53400, Note_on_c, 0, 66, 80
4, 53459, Note_on_c, 0, 66, 0
4, 53460, Note_on_c, 0, 66, 80
4, 53519, Note_on_c, 0, 66, 0
4, 53520, Note_on_c, 0, 66, 80
4, 53579, Note_on_c, 0, 66, 0
4, 53580, Note_on_c, 0, 66, 80
4, 53639, Note_on_c, 0, 66, 0
4, 54060, Note_on_c, 0, 69, 80
4, 54089, Note_on_c, 0, 69, 0
4, 54090, Note_on_c, 0, 69, 80
4, 54119, Note_on_c, 0, 69, 0
4, 54120, Note_on_c, 0, 69, 80
4, 54149, Note_on_c, 0, 69, 0
4, 54150, Note_on_c, 0, 69, 80
4, 54179, Note_on_c, 0, 69, 0
4, 54180, Note_on_c, 0, 69, 80
4, 54209, Note_on_c, 0, 69, 0
4, 54210, Note_on_c, 0, 69, 80
4, 54239, Note_on_c, 0, 69, 0
4, 54240, Note_on_c, 0, 69, 80
4, 54299, Note_on_c, 0, 69, 0
4, 54300, Note_on_c, 0, 69, 80
4, 54359, Note_on_c, 0, 69, 0
4, 54360, Note_on_c, 0, 66, 80
4, 54419, Note_on_c, 0, 66, 0
4, 54480, Note_on_c, 0, 62, 80
4, 54539, Note_on_c, 0, 62, 0
4, 54540, Note_on_c, 0, 57, 80
4, 54599, Note_on_c, 0, 57, 0
4, 54840, Note_on_c, 0, 66, 80
4, 54899, Note_on_c, 0, 66, 0
4, 54900, Note_on_c, 0, 62, 80
4, 54959, Note_on_c, 0, 62, 0
4, 55200, Note_on_c, 0, 69, 80
4, 55259, Note_on_c, 0, 69, 0
4, 55260, Note_on_c, 0, 66, 80
4, 55319, Note_on_c, 0, 66, 0
4, 55500, Note_on_c, 0, 62, 80
4, 55559, Note_on_c, 0, 62, 0
4, 55560, Note_on_c, 0, 62, 80
4, 55619, Note_on_c, 0, 62, 0
4, 55620, Note_on_c, 0, 66, 80
4, 55679, Note_on_c, 0, 66, 0
4, 55680, Note_on_c, 0, 66, 80
4, 55739, Note_on_c, 0, 66, 0
4, 55740, Note_on_c, 0, 69, 80
4, 55799, Note_on_c, 0, 69, 0
4, 55800, Note_on_c, 0, 69, 80
4, 55859, Note_on_c, 0, 69, 0
4, 55860, Note_on_c, 0, 74, 80
4, 55919, Note_on_c, 0, 74, 0
4, 55920, Note_on_c, 0, 74, 80
4, 55979, Note_on_c, 0, 74, 0
4, 55980, Note_on_c, 0, 74, 80
4, 56039, Note_on_c, 0, 74, 0
4, 56040, Note_on_c, 0, 74, 80
4, 56099, Note_on_c, 0, 74, 0
4, 56100, Note_on_c, 0, 74, 80
4, 56159, Note_on_c, 0, 74, 0
4, 56220, Note_on_c, 0, 66, 80
4, 56279, Note_on_c, 0, 66, 0
4, 56280, Note_on_c, 0, 66, 80
4, 56339, Note_on_c, 0, 66, 0
4, 56340, Note_on_c, 0, 66, 80
4, 56399, Note_on_c, 0, 66, 0
4, 56400, Note_on_c, 0, 66, 80
4, 56459, Note_on_c, 0, 66, 0
4, 56460, Note_on_c, 0, 66, 80
4, 56519, Note_on_c, 0, 66, 0
4, 56580, Note_on_c, 0, 80, 80
4, 56639, Note_on_c, 0, 80, 0
4, 56640, Note_on_c, 0, 80, 80
4, 56699, Note_on_c, 0, 80, 0
4, 56700, Note_on_c, 0, 80, 80
4, 56759, Note_on_c, 0, 80, 0
4, 56760, Note_on_c, 0, 80, 80
4, 56819, Note_on_c, 0, 80, 0
4, 56820, Note_on_c, 0, 80, 80
4, 56879, Note_on_c, 0, 80, 0
4, 56940, Note_on_c, 0, 76, 80
4, 56999, Note_on_c, 0, 76, 0
4, 57000, Note_on_c, 0, 76, 80
4, 57059, Note_on_c, 0, 76, 0
4, 57060, Note_on_c, 0, 76, 80
4, 57119, Note_on_c, 0, 76, 0
4, 57120, Note_on_c, 0, 76, 80
4, 57179, Note_on_c, 0, 76, 0
4, 57180, Note_on_c, 0, 76, 80
4, 57239, Note_on_c, 0, 76, 0
4, 57240, Note_on_c, 0, 76, 80
4, 57299, Note_on_c, 0, 76, 0
4, 57300, Note_on_c, 0, 76, 80
4, 57359, Note_on_c, 0, 76, 0
4, 57360, Note_on_c, 0, 76, 80
4, 57419, Note_on_c, 0, 76, 0
4, 57420, Note_on_c, 0, 76, 80
4, 57479, Note_on_c, 0, 76, 0
4, 57480, Note_on_c, 0, 76, 80
4, 57539, Note_on_c, 0, 76, 0
4, 57540, Note_on_c, 0, 76, 80
4, 57599, Note_on_c, 0, 76, 0
4, 57660, Note_on_c, 0, 69, 80
4, 57719, Note_on_c, 0, 69, 0
4, 57720, Note_on_c, 0, 69, 80
4, 57779, Note_on_c, 0, 69, 0
4, 57780, Note_on_c, 0, 69, 80
4, 57839, Note_on_c, 0, 69, 0
4, 57840, Note_on_c, 0, 69, 80
4, 57899, Note_on_c, 0, 69, 0
4, 57900, Note_on_c, 0, 69, 80
4, 57959, Note_on_c, 0, 69, 0
4, 58020, Note_on_c, 0, 78, 80
4, 58079, Note_on_c, 0, 78, 0
4, 58080, Note_on_c, 0, 78, 80
4, 58139, Note_on_c, 0, 78, 0
4, 58140, Note_on_c, 0, 78, 80
4, 58199, Note_on_c, 0, 78, 0
4, 58200, Note_on_c, 0, 78, 80
4, 58259, Note_on_c, 0, 78, 0
4, 58260, Note_on_c, 0, 78, 80
4, 58319, Note_on_c, 0, 78, 0
4, 58320, Note_on_c, 0, 76, 80
4, 58379, Note_on_c, 0, 76, 0
4, 58380, Note_on_c, 0, 74, 80
4, 58439, Note_on_c, 0, 74, 0
4, 58680, Note_on_c, 0, 76, 80
4, 58739, Note_on_c, 0, 76, 0
4, 58740, Note_on_c, 0, 69, 80
4, 58799, Note_on_c, 0, 69, 0
4, 59040, Note_on_c, 0, 76, 80
4, 59099, Note_on_c, 0, 76, 0
4, 59100, Note_on_c, 0, 74, 80
4, 59159, Note_on_c, 0, 74, 0
4, 59460, Note_on_c, 0, 76, 80
4, 59519, Note_on_c, 0, 76, 0
4, 59520, Note_on_c, 0, 76, 80
4, 59579, Note_on_c, 0, 76, 0
4, 59580, Note_on_c, 0, 76, 80
4, 59639, Note_on_c, 0, 76, 0
4, 59640, Note_on_c, 0, 76, 80
4, 59699, Note_on_c, 0, 76, 0
4, 59820, Note_on_c, 0, 78, 80
4, 59879, Note_on_c, 0, 78, 0
4, 59880, Note_on_c, 0, 78, 80
4, 59939, Note_on_c, 0, 78, 0
4, 59940, Note_on_c, 0, 78, 80
4, 59999, Note_on_c, 0, 78, 0
4, 60000, Note_on_c, 0, 78, 80
4, 60059, Note_on_c, 0, 78, 0
4, 60540, Note_on_c, 0, 69, 80
4, 60599, Note_on_c, 0, 69, 0
4, 60600, Note_on_c, 0, 69, 80
4, 60659, Note_on_c, 0, 69, 0
4, 60660, Note_on_c, 0, 69, 80
4, 60719, Note_on_c, 0, 69, 0
4, 60840, Note_on_c, 0, 69, 80
4, 60959, Note_on_c, 0, 69, 0
4, 63000, Note_on_c, 0, 69, 80
4, 63059, Note_on_c, 0, 69, 0
4, 63060, Note_on_c, 0, 66, 80
4, 63119, Note_on_c, 0, 66, 0
4, 63720, Note_on_c, 0, 69, 80
4, 63779, Note_on_c, 0, 69, 0
4, 63780, Note_on_c, 0, 62, 80
4, 63839, Note_on_c, 0, 62, 0
4, 64500, Note_on_c, 0, 69, 80
4, 64559, Note_on_c, 0, 69, 0
4, 64560, Note_on_c, 0, 69, 80
4, 64619, Note_on_c, 0, 69, 0
4, 64620, Note_on_c, 0, 69, 80
4, 64679, Note_on_c, 0, 69, 0
4, 64680, Note_on_c, 0, 69, 80
4, 64739, Note_on_c, 0, 69, 0
4, 64740, Note_on_c, 0, 69, 80
4, 64799, Note_on_c, 0, 69, 0
4, 64860, Note_on_c, 0, 74, 80
4, 64919, Note_on_c, 0, 74, 0
4, 64920, Note_on_c, 0, 74, 80
4, 64979, Note_on_c, 0, 74, 0
4, 64980, Note_on_c, 0, 74, 80
4, 65039, Note_on_c, 0, 74, 0
4, 65040, Note_on_c, 0, 74, 80
4, 65099, Note_on_c, 0, 74, 0
4, 65100, Note_on_c, 0, 74, 80
4, 65159, Note_on_c, 0, 74, 0
4, 65220, Note_on_c, 0, 74, 80
4, 65279, Note_on_c, 0, 74, 0
4, 65280, Note_on_c, 0, 74, 80
4, 65339, Note_on_c, 0, 74, 0
4, 65340, Note_on_c, 0, 74, 80
4, 65399, Note_on_c, 0, 74, 0
4, 65400, Note_on_c, 0, 74, 80
4, 65459, Note_on_c, 0, 74, 0
4, 65460, Note_on_c, 0, 74, 80
4, 65519, Note_on_c, 0, 74, 0
4, 65520, Note_on_c, 0, 81, 80
4, 65579, Note_on_c, 0, 81, 0
4, 65580, Note_on_c, 0, 76, 80
4, 65639, Note_on_c, 0, 76, 0
4, 65880, Note_on_c, 0, 78, 80
4, 65939, Note_on_c, 0, 78, 0
4, 65940, Note_on_c, 0, 74, 80
4, 65999, Note_on_c, 0, 74, 0
4, 66240, Note_on_c, 0, 76, 80
4, 66299, Note_on_c, 0, 76, 0
4, 66300, Note_on_c, 0, 69, 80
4, 66359, Note_on_c, 0, 69, 0
4, 66660, Note_on_c, 0, 74, 80
4, 66719, Note_on_c, 0, 74, 0
4, 66720, Note_on_c, 0, 74, 80
4, 66779, Note_on_c, 0, 74, 0
4, 66780, Note_on_c, 0, 74, 80
4, 66839, Note_on_c, 0, 74, 0
4, 66840, Note_on_c, 0, 74, 80
4, 66899, Note_on_c, 0, 74, 0
4, 66900, Note_on_c, 0, 74, 80
4, 66959, Note_on_c, 0, 74, 0
4, 67020, Note_on_c, 0, 66, 80
4, 67079, Note_on_c, 0, 66, 0
4, 67080, Note_on_c, 0, 66, 80
4, 67139, Note_on_c, 0, 66, 0
4, 67140, Note_on_c, 0, 66, 80
4, 67199, Note_on_c, 0, 66, 0
4, 67200, Note_on_c, 0, 66, 80
4, 67259, Note_on_c, 0, 66, 0
4, 67260, Note_on_c, 0, 66, 80
4, 67319, Note_on_c, 0, 66, 0
4, 67740, Note_on_c, 0, 69, 80
4, 67769, Note_on_c, 0, 69, 0
4, 67770, Note_on_c, 0, 69, 80
4, 67799, Note_on_c, 0, 69, 0
4, 67800, Note_on_c, 0, 69, 80
4, 67829, Note_on_c, 0, 69, 0
4, 67830, Note_on_c, 0, 69, 80
4, 67859, Note_on_c, 0, 69, 0
4, 67860, Note_on_c, 0, 69, 80
4, 67889, Note_on_c, 0, 69, 0
4, 67890, Note_on_c, 0, 69, 80
4, 67919, Note_on_c, 0, 69, 0
4, 67920, Note_on_c, 0, 69, 80
4, 67979, Note_on_c, 0, 69, 0
4, 67980, Note_on_c, 0, 69, 80
4, 68039, Note_on_c, 0, 69, 0
4, 68040, Note_on_c, 0, 78, 80
4, 68099, Note_on_c, 0, 78, 0
4, 68100, Note_on_c, 0, 74, 80
4, 68159, Note_on_c, 0, 74, 0
4, 68400, Note_on_c, 0, 83, 80
4, 68459, Note_on_c, 0, 83, 0
4, 68460, Note_on_c, 0, 79, 80
4, 68519, Note_on_c, 0, 79, 0
4, 68760, Note_on_c, 0, 81, 80
4, 68819, Note_on_c, 0, 81, 0
4, 68820, Note_on_c, 0, 78, 80
4, 68879, Note_on_c, 0, 78, 0
4, 69120, Note_on_c, 0, 74, 80
4, 69179, Note_on_c, 0, 74, 0
4, 69180, Note_on_c, 0, 62, 80
4, 69239, Note_on_c, 0, 62, 0
4, 69540, Note_on_c, 0, 69, 80
4, 69569, Note_on_c, 0, 69, 0
4, 69570, Note_on_c, 0, 69, 80
4, 69599, Note_on_c, 0, 69, 0
4, 69600, Note_on_c, 0, 69, 80
4, 69629, Note_on_c, 0, 69, 0
4, 69630, Note_on_c, 0, 69, 80
4, 69659, Note_on_c, 0, 69, 0
4, 69660, Note_on_c, 0, 69, 80
4, 69689, Note_on_c, 0, 69, 0
4, 69690, Note_on_c, 0, 69, 80
4, 69719, Note_on_c, 0, 69, 0
4, 69720, Note_on_c, 0, 69, 80
4, 69779, Note_on_c, 0, 69, 0
4, 69780, Note_on_c, 0, 69, 80
4, 69839, Note_on_c, 0, 69, 0
4, 69840, Note_on_c, 0, 69, 80
4, 69959, Note_on_c, 0, 69, 0
4, 70560, Note_on_c, 0, 74, 90
4, 70679, Note_on_c, 0, 74, 0
4, 71280, Note_on_c, 0, 76, 90
4, 71399, Note_on_c, 0, 76, 0
4, 71760, Note_on_c, 0, 74, 90
4, 71879, Note_on_c, 0, 74, 0
4, 72720, Note_on_c, 0, 76, 90
4, 72839, Note_on_c, 0, 76, 0
4, 72960, Note_on_c, 0, 76, 90
4, 73079, Note_on_c, 0, 76, 0
4, 73320, Note_on_c, 0, 74, 90
4, 73439, Note_on_c, 0, 74, 0
4, 73440, Note_on_c, 0, 74, 90
4, 73559, Note_on_c, 0, 74, 0
4, 73710, Note_on_c, 0, 76, 90
4, 73739, Note_on_c, 0, 76, 0
4, 73740, Note_on_c, 0, 76, 90
4, 73769, Note_on_c, 0, 76, 0
4, 73770, Note_on_c, 0, 76, 90
4, 73799, Note_on_c, 0, 76, 0
4, 73800, Note_on_c, 0, 76, 90
4, 73859, Note_on_c, 0, 76, 0
4, 74190, Note_on_c, 0, 78, 90
4, 74219, Note_on_c, 0, 78, 0
4, 74220, Note_on_c, 0, 78, 90
4, 74249, Note_on_c, 0, 78, 0
4, 74250, Note_on_c, 0, 78, 90
4, 74279, Note_on_c, 0, 78, 0
4, 74280, Note_on_c, 0, 78, 90
4, 74339, Note_on_c, 0, 78, 0
4, 74910, Note_on_c, 0, 66, 90
4, 74939, Note_on_c, 0, 66, 0
4, 74940, Note_on_c, 0, 66, 90
4, 74969, Note_on_c, 0, 66, 0
4, 74970, Note_on_c, 0, 66, 90
4, 74999, Note_on_c, 0, 66, 0
4, 75000, Note_on_c, 0, 66, 90
4, 75029, Note_on_c, 0, 66, 0
4, 75030, Note_on_c, 0, 66, 90
4, 75059, Note_on_c, 0, 66, 0
4, 75060, Note_on_c, 0, 66, 90
4, 75089, Note_on_c, 0, 66, 0
4, 75090, Note_on_c, 0, 66, 90
4, 75119, Note_on_c, 0, 66, 0
4, 75120, Note_on_c, 0, 66, 90
4, 75179, Note_on_c, 0, 66, 0
4, 75600, Note_on_c, 0, 69, 90
4, 75719, Note_on_c, 0, 69, 0
4, 76590, Note_on_c, 0, 78, 90
4, 76619, Note_on_c, 0, 78, 0
4, 76620, Note_on_c, 0, 78, 90
4, 76649, Note_on_c, 0, 78, 0
4, 76650, Note_on_c, 0, 78, 90
4, 76679, Note_on_c, 0, 78, 0
4, 76680, Note_on_c, 0, 76, 90
4, 76709, Note_on_c, 0, 76, 0
4, 76710, Note_on_c, 0, 76, 90
4, 76739, Note_on_c, 0, 76, 0
4, 76740, Note_on_c, 0, 76, 90
4, 76769, Note_on_c, 0, 76, 0
4, 76770, Note_on_c, 0, 79, 90
4, 76799, Note_on_c, 0, 79, 0
4, 76800, Note_on_c, 0, 78, 90
4, 76829, Note_on_c, 0, 78, 0
4, 76830, Note_on_c, 0, 74, 90
4, 76859, Note_on_c, 0, 74, 0
4, 76860, Note_on_c, 0, 74, 90
4, 76889, Note_on_c, 0, 74, 0
4, 76890, Note_on_c, 0, 69, 90
4, 76919, Note_on_c, 0, 69, 0
4, 76920, Note_on_c, 0, 69, 90
4, 76949, Note_on_c, 0, 69, 0
4, 76950, Note_on_c, 0, 66, 90
4, 76979, Note_on_c, 0, 66, 0
4, 76980, Note_on_c, 0, 66, 90
4, 77009, Note_on_c, 0, 66, 0
4, 77010, Note_on_c, 0, 62, 90
4, 77039, Note_on_c, 0, 62, 0
4, 77040, Note_on_c, 0, 62, 90
4, 77159, Note_on_c, 0, 62, 0
4, 77790, Note_on_c, 0, 76, 90
4, 77819, Note_on_c, 0, 76, 0
4, 77820, Note_on_c, 0, 76, 90
4, 77849, Note_on_c, 0, 76, 0
4, 77850, Note_on_c, 0, 76, 90
4, 77879, Note_on_c, 0, 76, 0
4, 77880, Note_on_c, 0, 76, 90
4, 77909, Note_on_c, 0, 76, 0
4, 77910, Note_on_c, 0, 76, 90
4, 77939, Note_on_c, 0, 76, 0
4, 77940, Note_on_c, 0, 79, 90
4, 77969, Note_on_c, 0, 79, 0
4, 77970, Note_on_c, 0, 79, 90
4, 77999, Note_on_c, 0, 79, 0
4, 78000, Note_on_c, 0, 78, 90
4, 78059, Note_on_c, 0, 78, 0
4, 78270, Note_on_c, 0, 76, 90
4, 78299, Note_on_c, 0, 76, 0
4, 78300, Note_on_c, 0, 76, 90
4, 78329, Note_on_c, 0, 76, 0
4, 78330, Note_on_c, 0, 76, 90
4, 78359, Note_on_c, 0, 76, 0
4, 78360, Note_on_c, 0, 76, 90
4, 78389, Note_on_c, 0, 76, 0
4, 78390, Note_on_c, 0, 76, 90
4, 78419, Note_on_c, 0, 76, 0
4, 78420, Note_on_c, 0, 76, 90
4, 78449, Note_on_c, 0, 76, 0
4, 78450, Note_on_c, 0, 76, 90
4, 78479, Note_on_c, 0, 76, 0
4, 78480, Note_on_c, 0, 76, 90
4, 78509, Note_on_c, 0, 76, 0
4, 78510, Note_on_c, 0, 69, 90
4, 78539, Note_on_c, 0, 69, 0
4, 78540, Note_on_c, 0, 69, 90
4, 78569, Note_on_c, 0, 69, 0
4, 78570, Note_on_c, 0, 69, 90
4, 78599, Note_on_c, 0, 69, 0
4, 78600, Note_on_c, 0, 69, 90
4, 78629, Note_on_c, 0, 69, 0
4, 78630, Note_on_c, 0, 69, 90
4, 78659, Note_on_c, 0, 69, 0
4, 78660, Note_on_c, 0, 69, 90
4, 78689, Note_on_c, 0, 69, 0
4, 78690, Note_on_c, 0, 69, 90
4, 78719, Note_on_c, 0, 69, 0
4, 78720, Note_on_c, 0, 69, 90
4, 78839, Note_on_c, 0, 69, 0
4, 78990, Note_on_c, 0, 66, 90
4, 79019, Note_on_c, 0, 66, 0
4, 79020, Note_on_c, 0, 66, 90
4, 79049, Note_on_c, 0, 66, 0
4, 79050, Note_on_c, 0, 66, 90
4, 79079, Note_on_c, 0, 66, 0
4, 79080, Note_on_c, 0, 66, 90
4, 79139, Note_on_c, 0, 66, 0
4, 79470, Note_on_c, 0, 66, 90
4, 79499, Note_on_c, 0, 66, 0
4, 79500, Note_on_c, 0, 66, 90
4, 79529, Note_on_c, 0, 66, 0
4, 79530, Note_on_c, 0, 66, 90
4, 79559, Note_on_c, 0, 66, 0
4, 79560, Note_on_c, 0, 66, 90
4, 79589, Note_on_c, 0, 66, 0
4, 79590, Note_on_c, 0, 66, 90
4, 79619, Note_on_c, 0, 66, 0
4, 79620, Note_on_c, 0, 66, 90
4, 79649, Note_on_c, 0, 66, 0
4, 79650, Note_on_c, 0, 66, 90
4, 79679, Note_on_c, 0, 66, 0
4, 79680, Note_on_c, 0, 66, 90
4, 79739, Note_on_c, 0, 66, 0
4, 79950, Note_on_c, 0, 76, 90
4, 79979, Note_on_c, 0, 76, 0
4, 79980, Note_on_c, 0, 76, 90
4, 80009, Note_on_c, 0, 76, 0
4, 80010, Note_on_c, 0, 76, 90
4, 80039, Note_on_c, 0, 76, 0
4, 80040, Note_on_c, 0, 76, 90
4, 80099, Note_on_c, 0, 76, 0
4, 235560, Note_on_c, 0, 62, 100
4, 235620, Note_on_c, 0, 62, 0
4, 235620, Note_on_c, 0, 66, 100
4, 235680, Note_on_c, 0, 66, 0
4, 235680, Note_on_c, 0, 69, 100
4, 235740, Note_on_c, 0, 69, 0
4, 235740, Note_on_c, 0, 74, 100
4, 235800, Note_on_c, 0, 74, 0
4, 235800, Note_on_c, 0, 69, 100
4, 235860, Note_on_c, 0, 69, 0
4, 235860, Note_on_c, 0, 69, 100
4, 235890, Note_on_c, 0, 69, 0
4, 235890, Note_on_c, 0, 69, 100
4, 235920, Note_on_c, 0, 69, 0
4, 235920, Note_on_c, 0, 74, 100
4, 235950, Note_on_c, 0, 74, 0
4, 235950, Note_on_c, 0, 74, 100
4, 235980, Note_on_c, 0, 74, 0
4, 235980, Note_on_c, 0, 69, 100
4, 236040, Note_on_c, 0, 69, 0
4, 236040, Note_on_c, 0, 66, 100
4, 236100, Note_on_c, 0, 66, 0
4, 236100, Note_on_c, 0, 62, 100
4, 236160, Note_on_c, 0, 62, 0
4, 236160, Note_on_c, 0, 66, 100
4, 236220, Note_on_c, 0, 66, 0
4, 236220, Note_on_c, 0, 62, 100
4, 236280, Note_on_c, 0, 62, 0
4, 236280, Note_on_c, 0, 57, 100
4, 236340, Note_on_c, 0, 57, 0
4, 236340, Note_on_c, 0, 62, 100
4, 236400, Note_on_c, 0, 62, 0
4, 236400, Note_on_c, 0, 69, 100
4, 236460, Note_on_c, 0, 69, 0
4, 236460, Note_on_c, 0, 69, 100
4, 236520, Note_on_c, 0, 69, 0
4, 236520, Note_on_c, 0, 74, 100
4, 236580, Note_on_c, 0, 74, 0
4, 236580, Note_on_c, 0, 78, 100
4, 236640, Note_on_c, 0, 78, 0
4, 236640, Note_on_c, 0, 74, 100
4, 236700, Note_on_c, 0, 74, 0
4, 236700, Note_on_c, 0, 74, 100
4, 236760, Note_on_c, 0, 74, 0
4, 236760, Note_on_c, 0, 69, 100
4, 236820, Note_on_c, 0, 69, 0
4, 236820, Note_on_c, 0, 62, 100
4, 236880, Note_on_c, 0, 62, 0
4, 238200, Note_on_c, 0, 74, 90
4, 238259, Note_on_c, 0, 74, 0
4, 238260, Note_on_c, 0, 69, 90
4, 238319, Note_on_c, 0, 69, 0
4, 238320, Note_on_c, 0, 69, 90
4, 238379, Note_on_c, 0, 69, 0
4, 238380, Note_on_c, 0, 74, 90
4, 238439, Note_on_c, 0, 74, 0
4, 238440, Note_on_c, 0, 69, 90
4, 238499, Note_on_c, 0, 69, 0
4, 238500, Note_on_c, 0, 74, 90
4, 238559, Note_on_c, 0, 74, 0
4, 238680, Note_on_c, 0, 76, 90
4, 238739, Note_on_c, 0, 76, 0
4, 238860, Note_on_c, 0, 66, 90
4, 238919, Note_on_c, 0, 66, 0
4, 239040, Note_on_c, 0, 66, 90
4, 239099, Note_on_c, 0, 66, 0
4, 239220, Note_on_c, 0, 76, 90
4, 239279, Note_on_c, 0, 76, 0
4, 239400, Note_on_c, 0, 69, 90
4, 239459, Note_on_c, 0, 69, 0
4, 239580, Note_on_c, 0, 69, 90
4, 239639, Note_on_c, 0, 69, 0
4, 239640, Note_on_c, 0, 69, 90
4, 239669, Note_on_c, 0, 69, 0
4, 239670, Note_on_c, 0, 69, 90
4, 239699, Note_on_c, 0, 69, 0
4, 239700, Note_on_c, 0, 69, 90
4, 239729, Note_on_c, 0, 69, 0
4, 239730, Note_on_c, 0, 69, 90
4, 239759, Note_on_c, 0, 69, 0
4, 239760, Note_on_c, 0, 69, 90
4, 239819, Note_on_c, 0, 69, 0
4, 239820, Note_on_c, 0, 62, 90
4, 239879, Note_on_c, 0, 62, 0
4, 239880, Note_on_c, 0, 66, 90
4, 239939, Note_on_c, 0, 66, 0
4, 239940, Note_on_c, 0, 69, 90
4, 239999, Note_on_c, 0, 69, 0
4, 240000, Note_on_c, 0, 69, 90
4, 240029, Note_on_c, 0, 69, 0
4, 240030, Note_on_c, 0, 69, 90
4, 240059, Note_on_c, 0, 69, 0
4, 240060, Note_on_c, 0, 69, 90
4, 240089, Note_on_c, 0, 69, 0
4, 240090, Note_on_c, 0, 69, 90
4, 240119, Note_on_c, 0, 69, 0
4, 240120, Note_on_c, 0, 69, 90
4, 240179, Note_on_c, 0, 69, 0
4, 240180, Note_on_c, 0, 69, 90
4, 240239, Note_on_c, 0, 69, 0
4, 240300, Note_on_c, 0, 69, 90
4, 240359, Note_on_c, 0, 69, 0
4, 240360, Note_on_c, 0, 69, 90
4, 240389, Note_on_c, 0, 69, 0
4, 240390, Note_on_c, 0, 69, 90
4, 240419, Note_on_c, 0, 69, 0
4, 240420, Note_on_c, 0, 69, 90
4, 240449, Note_on_c, 0, 69, 0
4, 240450, Note_on_c, 0, 69, 90
4, 240479, Note_on_c, 0, 69, 0
4, 240480, Note_on_c, 0, 69, 90
4, 240539, Note_on_c, 0, 69, 0
4, 240540, Note_on_c, 0, 74, 90
4, 240599, Note_on_c, 0, 74, 0
4, 240660, Note_on_c, 0, 74, 90
4, 240719, Note_on_c, 0, 74, 0
4, 240720, Note_on_c, 0, 74, 90
4, 240779, Note_on_c, 0, 74, 0
4, 240780, Note_on_c, 0, 74, 90
4, 240839, Note_on_c, 0, 74, 0
4, 240840, Note_on_c, 0, 69, 90
4, 240899, Note_on_c, 0, 69, 0
4, 240900, Note_on_c, 0, 69, 90
4, 240959, Note_on_c, 0, 69, 0
4, 240960, Note_on_c, 0, 69, 90
4, 241079, Note_on_c, 0, 69, 0
4, 241080, Note_on_c, 0, 69, 90
4, 241109, Note_on_c, 0, 69, 0
4, 241110, Note_on_c, 0, 69, 90
4, 241139, Note_on_c, 0, 69, 0
4, 241140, Note_on_c, 0, 69, 90
4, 241169, Note_on_c, 0, 69, 0
4, 241170, Note_on_c, 0, 69, 90
4, 241199, Note_on_c, 0, 69, 0
4, 241200, Note_on_c, 0, 66, 90
4, 241319, Note_on_c, 0, 66, 0
4, 242040, Note_on_c, 0, 62, 90
4, 242099, Note_on_c, 0, 62, 0
4, 242100, Note_on_c, 0, 66, 90
4, 242159, Note_on_c, 0, 66, 0
4, 242160, Note_on_c, 0, 69, 90
4, 242219, Note_on_c, 0, 69, 0
4, 242220, Note_on_c, 0, 74, 90
4, 242279, Note_on_c, 0, 74, 0
4, 242280, Note_on_c, 0, 69, 90
4, 242339, Note_on_c, 0, 69, 0
4, 242340, Note_on_c, 0, 69, 90
4, 242369, Note_on_c, 0, 69, 0
4, 242370, Note_on_c, 0, 69, 90
4, 242399, Note_on_c, 0, 69, 0
4, 242400, Note_on_c, 0, 74, 90
4, 242429, Note_on_c, 0, 74, 0
4, 242430, Note_on_c, 0, 74, 90
4, 242459, Note_on_c, 0, 74, 0
4, 242460, Note_on_c, 0, 69, 90
4, 242519, Note_on_c, 0, 69, 0
4, 242520, Note_on_c, 0, 66, 90
4, 242579, Note_on_c, 0, 66, 0
4, 242580, Note_on_c, 0, 62, 90
4, 242639, Note_on_c, 0, 62, 0
4, 242640, Note_on_c, 0, 66, 90
4, 242699, Note_on_c, 0, 66, 0
4, 242700, Note_on_c, 0, 62, 90
4, 242759, Note_on_c, 0, 62, 0
4, 242760, Note_on_c, 0, 57, 90
4, 242819, Note_on_c, 0, 57, 0
4, 242820, Note_on_c, 0, 66, 90
4, 243059, Note_on_c, 0, 66, 0
4, 244020, Note_on_c, 0, 76, 90
4, 244079, Note_on_c, 0, 76, 0
4, 244080, Note_on_c, 0, 76, 90
4, 244139, Note_on_c, 0, 76, 0
4, 244140, Note_on_c, 0, 69, 90
4, 244199, Note_on_c, 0, 69, 0
4, 245700, Note_on_c, 0, 76, 90
4, 245759, Note_on_c, 0, 76, 0
4, 245760, Note_on_c, 0, 76, 90
4, 245789, Note_on_c, 0, 76, 0
4, 245790, Note_on_c, 0, 76, 90
4, 245819, Note_on_c, 0, 76, 0
4, 245820, Note_on_c, 0, 76, 90
4, 245849, Note_on_c, 0, 76, 0
4, 245850, Note_on_c, 0, 76, 90
4, 245879, Note_on_c, 0, 76, 0
4, 245880, Note_on_c, 0, 76, 90
4, 245939, Note_on_c, 0, 76, 0
4, 246240, Note_on_c, 0, 69, 90
4, 246299, Note_on_c, 0, 69, 0
4, 246300, Note_on_c, 0, 76, 90
4, 246359, Note_on_c, 0, 76, 0
4, 246600, Note_on_c, 0, 76, 90
4, 246659, Note_on_c, 0, 76, 0
4, 246660, Note_on_c, 0, 80, 90
4, 246719, Note_on_c, 0, 80, 0
4, 247320, Note_on_c, 0, 69, 90
4, 247379, Note_on_c, 0, 69, 0
4, 247380, Note_on_c, 0, 69, 90
4, 247409, Note_on_c, 0, 69, 0
4, 247410, Note_on_c, 0, 69, 90
4, 247439, Note_on_c, 0, 69, 0
4, 247440, Note_on_c, 0, 69, 90
4, 247469, Note_on_c, 0, 69, 0
4, 247470, Note_on_c, 0, 69, 90
4, 247499, Note_on_c, 0, 69, 0
4, 247500, Note_on_c, 0, 69, 90
4, 247559, Note_on_c, 0, 69, 0
4, 249420, Note_on_c, 0, 76, 90
4, 249479, Note_on_c, 0, 76, 0
4, 249480, Note_on_c, 0, 76, 90
4, 249539, Note_on_c, 0, 76, 0
4, 249540, Note_on_c, 0, 78, 90
4, 249599, Note_on_c, 0, 78, 0
4, 249600, Note_on_c, 0, 78, 90
4, 249659, Note_on_c, 0, 78, 0
4, 249660, Note_on_c, 0, 76, 90
4, 249719, Note_on_c, 0, 76, 0
4, 249840, Note_on_c, 0, 76, 90
4, 249899, Note_on_c, 0, 76, 0
4, 249900, Note_on_c, 0, 74, 90
4, 249959, Note_on_c, 0, 74, 0
4, 249960, Note_on_c, 0, 74, 90
4, 250019, Note_on_c, 0, 74, 0
4, 250020, Note_on_c, 0, 69, 90
4, 250139, Note_on_c, 0, 69, 0
4, 250260, Note_on_c, 0, 69, 90
4, 250319, Note_on_c, 0, 69, 0
4, 250320, Note_on_c, 0, 69, 90
4, 250379, Note_on_c, 0, 69, 0
4, 250380, Note_on_c, 0, 69, 90
4, 250439, Note_on_c, 0, 69, 0
4, 250440, Note_on_c, 0, 69, 90
4, 250499, Note_on_c, 0, 69, 0
4, 250500, Note_on_c, 0, 69, 90
4, 250559, Note_on_c, 0, 69, 0
4, 250980, Note_on_c, 0, 66, 90
4, 251039, Note_on_c, 0, 66, 0
4, 251040, Note_on_c, 0, 66, 90
4, 251099, Note_on_c, 0, 66, 0
4, 251100, Note_on_c, 0, 66, 90
4, 251159, Note_on_c, 0, 66, 0
4, 251160, Note_on_c, 0, 66, 90
4, 251219, Note_on_c, 0, 66, 0
4, 251220, Note_on_c, 0, 66, 90
4, 251279, Note_on_c, 0, 66, 0
4, 255180, Note_on_c, 0, 62, 90
4, 255239, Note_on_c, 0, 62, 0
4, 255240, Note_on_c, 0, 66, 90
4, 255299, Note_on_c, 0, 66, 0
4, 255300, Note_on_c, 0, 69, 90
4, 255359, Note_on_c, 0, 69, 0
4, 255360, Note_on_c, 0, 74, 90
4, 255419, Note_on_c, 0, 74, 0
4, 255420, Note_on_c, 0, 69, 90
4, 255479, Note_on_c, 0, 69, 0
4, 255480, Note_on_c, 0, 69, 90
4, 255509, Note_on_c, 0, 69, 0
4, 255510, Note_on_c, 0, 69, 90
4, 255539, Note_on_c, 0, 69, 0
4, 255540, Note_on_c, 0, 74, 90
4, 255569, Note_on_c, 0, 74, 0
4, 255570, Note_on_c, 0, 74, 90
4, 255599, Note_on_c, 0, 74, 0
4, 255600, Note_on_c, 0, 69, 90
4, 255659, Note_on_c, 0, 69, 0
4, 255660, Note_on_c, 0, 66, 90
4, 255719, Note_on_c, 0, 66, 0
4, 255720, Note_on_c, 0, 62, 90
4, 255779, Note_on_c, 0, 62, 0
4, 255780, Note_on_c, 0, 66, 90
4, 255839, Note_on_c, 0, 66, 0
4, 255840, Note_on_c, 0, 62, 90
4, 255899, Note_on_c, 0, 62, 0
4, 255900, Note_on_c, 0, 57, 90
4, 255959, Note_on_c, 0, 57, 0
4, 256680, Note_on_c, 0, 69, 90
4, 256739, Note_on_c, 0, 69, 0
4, 256740, Note_on_c, 0, 69, 90
4, 256769, Note_on_c, 0, 69, 0
4, 256770, Note_on_c, 0, 69, 90
4, 256799, Note_on_c, 0, 69, 0
4, 256800, Note_on_c, 0, 69, 90
4, 256829, Note_on_c, 0, 69, 0
4, 256830, Note_on_c, 0, 69, 90
4, 256859, Note_on_c, 0, 69, 0
4, 256860, Note_on_c, 0, 69, 90
4, 256919, Note_on_c, 0, 69, 0
4, 256920, Note_on_c, 0, 69, 90
4, 256979, Note_on_c, 0, 69, 0
4, 257040, Note_on_c, 0, 69, 90
4, 257099, Note_on_c, 0, 69, 0
4, 257100, Note_on_c, 0, 69, 90
4, 257129, Note_on_c, 0, 69, 0
4, 257130, Note_on_c, 0, 69, 90
4, 257159, Note_on_c, 0, 69, 0
4, 257160, Note_on_c, 0, 69, 90
4, 257189, Note_on_c, 0, 69, 0
4, 257190, Note_on_c, 0, 69, 90
4, 257219, Note_on_c, 0, 69, 0
4, 257220, Note_on_c, 0, 69, 90
4, 257279, Note_on_c, 0, 69, 0
4, 257280, Note_on_c, 0, 74, 90
4, 257339, Note_on_c, 0, 74, 0
4, 257400, Note_on_c, 0, 74, 90
4, 257459, Note_on_c, 0, 74, 0
4, 257460, Note_on_c, 0, 74, 90
4, 257519, Note_on_c, 0, 74, 0
4, 257520, Note_on_c, 0, 74, 90
4, 257579, Note_on_c, 0, 74, 0
4, 257580, Note_on_c, 0, 69, 90
4, 257639, Note_on_c, 0, 69, 0
4, 257640, Note_on_c, 0, 69, 90
4, 257699, Note_on_c, 0, 69, 0
4, 257700, Note_on_c, 0, 69, 90
4, 257819, Note_on_c, 0, 69, 0
4, 257820, Note_on_c, 0, 69, 90
4, 257849, Note_on_c, 0, 69, 0
4, 257850, Note_on_c, 0, 69, 90
4, 257879, Note_on_c, 0, 69, 0
4, 257880, Note_on_c, 0, 69, 90
4, 257909, Note_on_c, 0, 69, 0
4, 257910, Note_on_c, 0, 69, 90
4, 257939, Note_on_c, 0, 69, 0
4, 257940, Note_on_c, 0, 66, 90
4, 257999, Note_on_c, 0, 66, 0
4, 258000, Note_on_c, 0, 66, 90
4, 258059, Note_on_c, 0, 66, 0
4, 258060, Note_on_c, 0, 69, 90
4, 258119, Note_on_c, 0, 69, 0
4, 258120, Note_on_c, 0, 66, 90
4, 258359, Note_on_c, 0, 66, 0
4, 259320, Note_on_c, 0, 76, 90
4, 259379, Note_on_c, 0, 76, 0
4, 259380, Note_on_c, 0, 76, 90
4, 259439, Note_on_c, 0, 76, 0
4, 259440, Note_on_c, 0, 69, 90
4, 259499, Note_on_c, 0, 69, 0
4, 260700, Note_on_c, 0, 69, 90
4, 260729, Note_on_c, 0, 69, 0
4, 260730, Note_on_c, 0, 69, 90
4, 260759, Note_on_c, 0, 69, 0
4, 260760, Note_on_c, 0, 74, 90
4, 260789, Note_on_c, 0, 74, 0
4, 260790, Note_on_c, 0, 74, 90
4, 260819, Note_on_c, 0, 74, 0
4, 260820, Note_on_c, 0, 69, 90
4, 260879, Note_on_c, 0, 69, 0
4, 262140, Note_on_c, 0, 69, 90
4, 262169, Note_on_c, 0, 69, 0
4, 262170, Note_on_c, 0, 69, 90
4, 262199, Note_on_c, 0, 69, 0
4, 262200, Note_on_c, 0, 69, 90
4, 262229, Note_on_c, 0, 69, 0
4, 262230, Note_on_c, 0, 69, 90
4, 262259, Note_on_c, 0, 69, 0
4, 262260, Note_on_c, 0, 69, 90
4, 262319, Note_on_c, 0, 69, 0
4, 262320, Note_on_c, 0, 62, 90
4, 262379, Note_on_c, 0, 62, 0
4, 262380, Note_on_c, 0, 66, 90
4, 262439, Note_on_c, 0, 66, 0
4, 262440, Note_on_c, 0, 69, 90
4, 262499, Note_on_c, 0, 69, 0
4, 262620, Note_on_c, 0, 69, 90
4, 262679, Note_on_c, 0, 69, 0
4, 262680, Note_on_c, 0, 69, 90
4, 262709, Note_on_c, 0, 69, 0
4, 262710, Note_on_c, 0, 69, 90
4, 262739, Note_on_c, 0, 69, 0
4, 262740, Note_on_c, 0, 69, 90
4, 262769, Note_on_c, 0, 69, 0
4, 262770, Note_on_c, 0, 69, 90
4, 262799, Note_on_c, 0, 69, 0
4, 262800, Note_on_c, 0, 69, 90
4, 262859, Note_on_c, 0, 69, 0
4, 262860, Note_on_c, 0, 74, 90
4, 262919, Note_on_c, 0, 74, 0
4, 262980, Note_on_c, 0, 69, 90
4, 263039, Note_on_c, 0, 69, 0
4, 263040, Note_on_c, 0, 69, 90
4, 263069, Note_on_c, 0, 69, 0
4, 263070, Note_on_c, 0, 69, 90
4, 263099, Note_on_c, 0, 69, 0
4, 263100, Note_on_c, 0, 69, 90
4, 263129, Note_on_c, 0, 69, 0
4, 263130, Note_on_c, 0, 69, 90
4, 263159, Note_on_c, 0, 69, 0
4, 263160, Note_on_c, 0, 62, 90
4, 263219, Note_on_c, 0, 62, 0
4, 263340, Note_on_c, 0, 69, 90
4, 263399, Note_on_c, 0, 69, 0
4, 263400, Note_on_c, 0, 69, 90
4, 263459, Note_on_c, 0, 69, 0
4, 263460, Note_on_c, 0, 69, 90
4, 263579, Note_on_c, 0, 69, 0
4, 263580, Note_on_c, 0, 69, 90
4, 263609, Note_on_c, 0, 69, 0
4, 263610, Note_on_c, 0, 69, 90
4, 263639, Note_on_c, 0, 69, 0
4, 263640, Note_on_c, 0, 69, 90
4, 263669, Note_on_c, 0, 69, 0
4, 263670, Note_on_c, 0, 69, 90
4, 263699, Note_on_c, 0, 69, 0
4, 263700, Note_on_c, 0, 69, 90
4, 263759, Note_on_c, 0, 69, 0
4, 265980, Note_on_c, 0, 62, 100
4, 266040, Note_on_c, 0, 62, 0
4, 266040, Note_on_c, 0, 66, 100
4, 266100, Note_on_c, 0, 66, 0
4, 266100, Note_on_c, 0, 69, 100
4, 266160, Note_on_c, 0, 69, 0
4, 266160, Note_on_c, 0, 74, 100
4, 266220, Note_on_c, 0, 74, 0
4, 266220, Note_on_c, 0, 69, 100
4, 266280, Note_on_c, 0, 69, 0
4, 266280, Note_on_c, 0, 69, 100
4, 266310, Note_on_c, 0, 69, 0
4, 266310, Note_on_c, 0, 69, 100
4, 266340, Note_on_c, 0, 69, 0
4, 266340, Note_on_c, 0, 74, 100
4, 266370, Note_on_c, 0, 74, 0
4, 266370, Note_on_c, 0, 74, 100
4, 266400, Note_on_c, 0, 74, 0
4, 266400, Note_on_c, 0, 69, 100
4, 266460, Note_on_c, 0, 69, 0
4, 266460, Note_on_c, 0, 66, 100
4, 266520, Note_on_c, 0, 66, 0
4, 266520, Note_on_c, 0, 62, 100
4, 266580, Note_on_c, 0, 62, 0
4, 266580, Note_on_c, 0, 66, 100
4, 266640, Note_on_c, 0, 66, 0
4, 266640, Note_on_c, 0, 62, 100
4, 266700, Note_on_c, 0, 62, 0
4, 266700, Note_on_c, 0, 57, 100
4, 266760, Note_on_c, 0, 57, 0
4, 266760, Note_on_c, 0, 62, 100
4, 266820, Note_on_c, 0, 62, 0
4, 266820, Note_on_c, 0, 69, 100
4, 266880, Note_on_c, 0, 69, 0
4, 266880, Note_on_c, 0, 69, 100
4, 266940, Note_on_c, 0, 69, 0
4, 266940, Note_on_c, 0, 74, 100
4, 267000, Note_on_c, 0, 74, 0
4, 267000, Note_on_c, 0, 78, 100
4, 267060, Note_on_c, 0, 78, 0
4, 267060, Note_on_c, 0, 74, 100
4, 267120, Note_on_c, 0, 74, 0
4, 267120, Note_on_c, 0, 74, 100
4, 267180, Note_on_c, 0, 74, 0
4, 267180, Note_on_c, 0, 69, 100
4, 267240, Note_on_c, 0, 69, 0
4, 267240, Note_on_c, 0, 62, 100
4, 267300, Note_on_c, 0, 62, 0
4, 268620, Note_on_c, 0, 74, 90
4, 268679, Note_on_c, 0, 74, 0
4, 268680, Note_on_c, 0, 69, 90
4, 268739, Note_on_c, 0, 69, 0
4, 268740, Note_on_c, 0, 69, 90
4, 268799, Note_on_c, 0, 69, 0
4, 268800, Note_on_c, 0, 74, 90
4, 268859, Note_on_c, 0, 74, 0
4, 268860, Note_on_c, 0, 69, 90
4, 268919, Note_on_c, 0, 69, 0
4, 268920, Note_on_c, 0, 74, 90
4, 268979, Note_on_c, 0, 74, 0
4, 269100, Note_on_c, 0, 76, 90
4, 269159, Note_on_c, 0, 76, 0
4, 269280, Note_on_c, 0, 66, 90
4, 269339, Note_on_c, 0, 66, 0
4, 269460, Note_on_c, 0, 66, 90
4, 269519, Note_on_c, 0, 66, 0
4, 269640, Note_on_c, 0, 76, 90
4, 269699, Note_on_c, 0, 76, 0
4, 269820, Note_on_c, 0, 69, 90
4, 269879, Note_on_c, 0, 69, 0
4, 270000, Note_on_c, 0, 69, 90
4, 270059, Note_on_c, 0, 69, 0
4, 270060, Note_on_c, 0, 69, 90
4, 270089, Note_on_c, 0, 69, 0
4, 270090, Note_on_c, 0, 69, 90
4, 270119, Note_on_c, 0, 69, 0
4, 270120, Note_on_c, 0, 69, 90
4, 270149, Note_on_c, 0, 69, 0
4, 270150, Note_on_c, 0, 69, 90
4, 270179, Note_on_c, 0, 69, 0
4, 270180, Note_on_c, 0, 69, 90
4, 270239, Note_on_c, 0, 69, 0
4, 270240, Note_on_c, 0, 62, 90
4, 270299, Note_on_c, 0, 62, 0
4, 270300, Note_on_c, 0, 66, 90
4, 270359, Note_on_c, 0, 66, 0
4, 270360, Note_on_c, 0, 69, 90
4, 270419, Note_on_c, 0, 69, 0
4, 270420, Note_on_c, 0, 69, 90
4, 270449, Note_on_c, 0, 69, 0
4, 270450, Note_on_c, 0, 69, 90
4, 270479, Note_on_c, 0, 69, 0
4, 270480, Note_on_c, 0, 69, 90
4, 270509, Note_on_c, 0, 69, 0
4, 270510, Note_on_c, 0, 69, 90
4, 270539, Note_on_c, 0, 69, 0
4, 270540, Note_on_c, 0, 69, 90
4, 270599, Note_on_c, 0, 69, 0
4, 270600, Note_on_c, 0, 69, 90
4, 270659, Note_on_c, 0, 69, 0
4, 270720, Note_on_c, 0, 69, 90
4, 270779, Note_on_c, 0, 69, 0
4, 270780, Note_on_c, 0, 69, 90
4, 270809, Note_on_c, 0, 69, 0
4, 270810, Note_on_c, 0, 69, 90
4, 270839, Note_on_c, 0, 69, 0
4, 270840, Note_on_c, 0, 69, 90
4, 270869, Note_on_c, 0, 69, 0
4, 270870, Note_on_c, 0, 69, 90
4, 270899, Note_on_c, 0, 69, 0
4, 270900, Note_on_c, 0, 69, 90
4, 270959, Note_on_c, 0, 69, 0
4, 270960, Note_on_c, 0, 74, 90
4, 271019, Note_on_c, 0, 74, 0
4, 271080, Note_on_c, 0, 74, 90
4, 271139, Note_on_c, 0, 74, 0
4, 271140, Note_on_c, 0, 74, 90
4, 271199, Note_on_c, 0, 74, 0
4, 271200, Note_on_c, 0, 74, 90
4, 271259, Note_on_c, 0, 74, 0
4, 271260, Note_on_c, 0, 69, 90
4, 271319, Note_on_c, 0, 69, 0
4, 271320, Note_on_c, 0, 69, 90
4, 271379, Note_on_c, 0, 69, 0
4, 271380, Note_on_c, 0, 69, 90
4, 271499, Note_on_c, 0, 69, 0
4, 271500, Note_on_c, 0, 69, 90
4, 271529, Note_on_c, 0, 69, 0
4, 271530, Note_on_c, 0, 69, 90
4, 271559, Note_on_c, 0, 69, 0
4, 271560, Note_on_c, 0, 69, 90
4, 271589, Note_on_c, 0, 69, 0
4, 271590, Note_on_c, 0, 69, 90
4, 271619, Note_on_c, 0, 69, 0
4, 271620, Note_on_c, 0, 66, 90
4, 271739, Note_on_c, 0, 66, 0
4, 321060, Note_on_c, 0, 78, 90
4, 321299, Note_on_c, 0, 78, 0
4, 321300, Note_on_c, 0, 74, 90
4, 321539, Note_on_c, 0, 74, 0
4, 322500, Note_on_c, 0, 78, 90
4, 322739, Note_on_c, 0, 78, 0
4, 322740, Note_on_c, 0, 74, 90
4, 322979, Note_on_c, 0, 74, 0
4, 323940, Note_on_c, 0, 78, 90
4, 324179, Note_on_c, 0, 78, 0
4, 324180, Note_on_c, 0, 74, 90
4, 324419, Note_on_c, 0, 74, 0
4, 324420, Note_on_c, 0, 69, 90
4, 324539, Note_on_c, 0, 69, 0
4, 324540, Note_on_c, 0, 66, 90
4, 324659, Note_on_c, 0, 66, 0
4, 324660, Note_on_c, 0, 74, 90
4, 324779, Note_on_c, 0, 74, 0
4, 324780, Note_on_c, 0, 69, 90
4, 324899, Note_on_c, 0, 69, 0
4, 324900, Note_on_c, 0, 78, 90
4, 325019, Note_on_c, 0, 78, 0
4, 325020, Note_on_c, 0, 74, 90
4, 325139, Note_on_c, 0, 74, 0
4, 325140, Note_on_c, 0, 69, 90
4, 325259, Note_on_c, 0, 69, 0
4, 325260, Note_on_c, 0, 66, 90
4, 325379, Note_on_c, 0, 66, 0
4, 325380, Note_on_c, 0, 74, 90
4, 325499, Note_on_c, 0, 74, 0
4, 325500, Note_on_c, 0, 74, 90
4, 325619, Note_on_c, 0, 74, 0
4, 325620, Note_on_c, 0, 74, 90
4, 325739, Note_on_c, 0, 74, 0
4, 325740, Note_on_c, 0, 74, 90
4, 325859, Note_on_c, 0, 74, 0
4, 325860, Note_on_c, 0, 74, 90
4, 325979, Note_on_c, 0, 74, 0
4, 325980, Note_on_c, 0, 69, 90
4, 326099, Note_on_c, 0, 69, 0
4, 326100, Note_on_c, 0, 69, 90
4, 326339, Note_on_c, 0, 69, 0
4, 326340, Note_on_c, 0, 76, 90
4, 326579, Note_on_c, 0, 76, 0
4, 326580, Note_on_c, 0, 69, 90
4, 326819, Note_on_c, 0, 69, 0
4, 327780, Note_on_c, 0, 76, 90
4, 328019, Note_on_c, 0, 76, 0
4, 328020, Note_on_c, 0, 69, 90
4, 328259, Note_on_c, 0, 69, 0
4, 329220, Note_on_c, 0, 76, 90
4, 329459, Note_on_c, 0, 76, 0
4, 329460, Note_on_c, 0, 69, 90
4, 329699, Note_on_c, 0, 69, 0
4, 329700, Note_on_c, 0, 69, 90
4, 329819, Note_on_c, 0, 69, 0
4, 329820, Note_on_c, 0, 69, 90
4, 329939, Note_on_c, 0, 69, 0
4, 329940, Note_on_c, 0, 69, 90
4, 330059, Note_on_c, 0, 69, 0
4, 330060, Note_on_c, 0, 69, 90
4, 330179, Note_on_c, 0, 69, 0
4, 330180, Note_on_c, 0, 69, 90
4, 330299, Note_on_c, 0, 69, 0
4, 330300, Note_on_c, 0, 69, 90
4, 330419, Note_on_c, 0, 69, 0
4, 330420, Note_on_c, 0, 69, 90
4, 330539, Note_on_c, 0, 69, 0
4, 330540, Note_on_c, 0, 69, 90
4, 330659, Note_on_c, 0, 69, 0
4, 330660, Note_on_c, 0, 66, 90
4, 330779, Note_on_c, 0, 66, 0
4, 330780, Note_on_c, 0, 62, 90
4, 330899, Note_on_c, 0, 62, 0
4, 330900, Note_on_c, 0, 69, 90
4, 331019, Note_on_c, 0, 69, 0
4, 331020, Note_on_c, 0, 62, 90
4, 331139, Note_on_c, 0, 62, 0
4, 331140, Note_on_c, 0, 69, 90
4, 331259, Note_on_c, 0, 69, 0
4, 331260, Note_on_c, 0, 69, 90
4, 331379, Note_on_c, 0, 69, 0
4, 331380, Note_on_c, 0, 66, 90
4, 331619, Note_on_c, 0, 66, 0
4, 333540, Note_on_c, 0, 62, 90
4, 333659, Note_on_c, 0, 62, 0
4, 333660, Note_on_c, 0, 62, 90
4, 333779, Note_on_c, 0, 62, 0
4, 333780, Note_on_c, 0, 62, 90
4, 333899, Note_on_c, 0, 62, 0
4, 333900, Note_on_c, 0, 62, 90
4, 334019, Note_on_c, 0, 62, 0
4, 334020, Note_on_c, 0, 62, 90
4, 334139, Note_on_c, 0, 62, 0
4, 334140, Note_on_c, 0, 62, 90
4, 334259, Note_on_c, 0, 62, 0
4, 334260, Note_on_c, 0, 62, 90
4, 334379, Note_on_c, 0, 62, 0
4, 334380, Note_on_c, 0, 62, 90
4, 334499, Note_on_c, 0, 62, 0
4, 334500, Note_on_c, 0, 78, 90
4, 334739, Note_on_c, 0, 78, 0
4, 334740, Note_on_c, 0, 74, 90
4, 334979, Note_on_c, 0, 74, 0
4, 334980, Note_on_c, 0, 69, 90
4, 335099, Note_on_c, 0, 69, 0
4, 335100, Note_on_c, 0, 66, 90
4, 335219, Note_on_c, 0, 66, 0
4, 335220, Note_on_c, 0, 74, 90
4, 335339, Note_on_c, 0, 74, 0
4, 335340, Note_on_c, 0, 69, 90
4, 335459, Note_on_c, 0, 69, 0
4, 335460, Note_on_c, 0, 78, 90
4, 335579, Note_on_c, 0, 78, 0
4, 335580, Note_on_c, 0, 74, 90
4, 335699, Note_on_c, 0, 74, 0
4, 335700, Note_on_c, 0, 69, 90
4, 335819, Note_on_c, 0, 69, 0
4, 335820, Note_on_c, 0, 66, 90
4, 335939, Note_on_c, 0, 66, 0
4, 335940, Note_on_c, 0, 74, 90
4, 336059, Note_on_c, 0, 74, 0
4, 336060, Note_on_c, 0, 74, 90
4, 336179, Note_on_c, 0, 74, 0
4, 336180, Note_on_c, 0, 74, 90
4, 336299, Note_on_c, 0, 74, 0
4, 336300, Note_on_c, 0, 74, 90
4, 336419, Note_on_c, 0, 74, 0
4, 336420, Note_on_c, 0, 74, 90
4, 336539, Note_on_c, 0, 74, 0
4, 336540, Note_on_c, 0, 69, 90
4, 336659, Note_on_c, 0, 69, 0
4, 336660, Note_on_c, 0, 69, 90
4, 336899, Note_on_c, 0, 69, 0
4, 338820, Note_on_c, 0, 69, 90
4, 338939, Note_on_c, 0, 69, 0
4, 338940, Note_on_c, 0, 69, 90
4, 339059, Note_on_c, 0, 69, 0
4, 339060, Note_on_c, 0, 69, 90
4, 339179, Note_on_c, 0, 69, 0
4, 339180, Note_on_c, 0, 69, 90
4, 339299, Note_on_c, 0, 69, 0
4, 339300, Note_on_c, 0, 69, 90
4, 339419, Note_on_c, 0, 69, 0
4, 339420, Note_on_c, 0, 69, 90
4, 339539, Note_on_c, 0, 69, 0
4, 339540, Note_on_c, 0, 69, 90
4, 339659, Note_on_c, 0, 69, 0
4, 339660, Note_on_c, 0, 69, 90
4, 339779, Note_on_c, 0, 69, 0
4, 339780, Note_on_c, 0, 76, 90
4, 340019, Note_on_c, 0, 76, 0
4, 340020, Note_on_c, 0, 69, 90
4, 340259, Note_on_c, 0, 69, 0
4, 340260, Note_on_c, 0, 69, 90
4, 340379, Note_on_c, 0, 69, 0
4, 340380, Note_on_c, 0, 69, 90
4, 340499, Note_on_c, 0, 69, 0
4, 340500, Note_on_c, 0, 69, 90
4, 340619, Note_on_c, 0, 69, 0
4, 340620, Note_on_c, 0, 69, 90
4, 340739, Note_on_c, 0, 69, 0
4, 340740, Note_on_c, 0, 69, 90
4, 340859, Note_on_c, 0, 69, 0
4, 340860, Note_on_c, 0, 69, 90
4, 340979, Note_on_c, 0, 69, 0
4, 340980, Note_on_c, 0, 69, 90
4, 341099, Note_on_c, 0, 69, 0
4, 341100, Note_on_c, 0, 69, 90
4, 341219, Note_on_c, 0, 69, 0
4, 341220, Note_on_c, 0, 66, 90
4, 341339, Note_on_c, 0, 66, 0
4, 341340, Note_on_c, 0, 62, 90
4, 341459, Note_on_c, 0, 62, 0
4, 341460, Note_on_c, 0, 69, 90
4, 341579, Note_on_c, 0, 69, 0
4, 341580, Note_on_c, 0, 62, 90
4, 341699, Note_on_c, 0, 62, 0
4, 341700, Note_on_c, 0, 69, 90
4, 341819, Note_on_c, 0, 69, 0
4, 341820, Note_on_c, 0, 69, 90
4, 341939, Note_on_c, 0, 69, 0
4, 341940, Note_on_c, 0, 66, 90
4, 342179, Note_on_c, 0, 66, 0
4, 347940, Note_on_c, 0, 78, 90
4, 348179, Note_on_c, 0, 78, 0
4, 348180, Note_on_c, 0, 74, 90
4, 348419, Note_on_c, 0, 74, 0
4, 349380, Note_on_c, 0, 78, 90
4, 349619, Note_on_c, 0, 78, 0
4, 349620, Note_on_c, 0, 74, 90
4, 349859, Note_on_c, 0, 74, 0
4, 350820, Note_on_c, 0, 78, 90
4, 351059, Note_on_c, 0, 78, 0
4, 351060, Note_on_c, 0, 74, 90
4, 351299, Note_on_c, 0, 74, 0
4, 351300, Note_on_c, 0, 69, 90
4, 351419, Note_on_c, 0, 69, 0
4, 351420, Note_on_c, 0, 66, 90
4, 351539, Note_on_c, 0, 66, 0
4, 351540, Note_on_c, 0, 74, 90
4, 351659, Note_on_c, 0, 74, 0
4, 351660, Note_on_c, 0, 69, 90
4, 351779, Note_on_c, 0, 69, 0
4, 351780, Note_on_c, 0, 78, 90
4, 351899, Note_on_c, 0, 78, 0
4, 351900, Note_on_c, 0, 74, 90
4, 352019, Note_on_c, 0, 74, 0
4, 352020, Note_on_c, 0, 69, 90
4, 352139, Note_on_c, 0, 69, 0
4, 352140, Note_on_c, 0, 66, 90
4, 352259, Note_on_c, 0, 66, 0
4, 352260, Note_on_c, 0, 74, 90
4, 352379, Note_on_c, 0, 74, 0
4, 352380, Note_on_c, 0, 74, 90
4, 352499, Note_on_c, 0, 74, 0
4, 352500, Note_on_c, 0, 74, 90
4, 352619, Note_on_c, 0, 74, 0
4, 352620, Note_on_c, 0, 74, 90
4, 352739, Note_on_c, 0, 74, 0
4, 352740, Note_on_c, 0, 74, 90
4, 352859, Note_on_c, 0, 74, 0
4, 352860, Note_on_c, 0, 69, 90
4, 352979, Note_on_c, 0, 69, 0
4, 352980, Note_on_c, 0, 69, 90
4, 353219, Note_on_c, 0, 69, 0
4, 353220, Note_on_c, 0, 76, 90
4, 353459, Note_on_c, 0, 76, 0
4, 353460, Note_on_c, 0, 69, 90
4, 353699, Note_on_c, 0, 69, 0
4, 354660, Note_on_c, 0, 76, 90
4, 354899, Note_on_c, 0, 76, 0
4, 354900, Note_on_c, 0, 69, 90
4, 355139, Note_on_c, 0, 69, 0
4, 355140, Note_on_c, 0, 69, 90
4, 355259, Note_on_c, 0, 69, 0
4, 355260, Note_on_c, 0, 69, 90
4, 355379, Note_on_c, 0, 69, 0
4, 355380, Note_on_c, 0, 69, 90
4, 355499, Note_on_c, 0, 69, 0
4, 355500, Note_on_c, 0, 69, 90
4, 355619, Note_on_c, 0, 69, 0
4, 355620, Note_on_c, 0, 69, 90
4, 355739, Note_on_c, 0, 69, 0
4, 355740, Note_on_c, 0, 69, 90
4, 355859, Note_on_c, 0, 69, 0
4, 355860, Note_on_c, 0, 69, 90
4, 355979, Note_on_c, 0, 69, 0
4, 355980, Note_on_c, 0, 69, 90
4, 356099, Note_on_c, 0, 69, 0
4, 356100, Note_on_c, 0, 76, 90
4, 356339, Note_on_c, 0, 76, 0
4, 356340, Note_on_c, 0, 69, 90
4, 356579, Note_on_c, 0, 69, 0
4, 356580, Note_on_c, 0, 69, 90
4, 356699, Note_on_c, 0, 69, 0
4, 356700, Note_on_c, 0, 69, 90
4, 356819, Note_on_c, 0, 69, 0
4, 356820, Note_on_c, 0, 69, 90
4, 356939, Note_on_c, 0, 69, 0
4, 356940, Note_on_c, 0, 69, 90
4, 357059, Note_on_c, 0, 69, 0
4, 357060, Note_on_c, 0, 69, 90
4, 357179, Note_on_c, 0, 69, 0
4, 357180, Note_on_c, 0, 69, 90
4, 357299, Note_on_c, 0, 69, 0
4, 357300, Note_on_c, 0, 69, 90
4, 357419, Note_on_c, 0, 69, 0
4, 357420, Note_on_c, 0, 69, 90
4, 357539, Note_on_c, 0, 69, 0
4, 357540, Note_on_c, 0, 66, 90
4, 357659, Note_on_c, 0, 66, 0
4, 357660, Note_on_c, 0, 62, 90
4, 357779, Note_on_c, 0, 62, 0
4, 357780, Note_on_c, 0, 69, 90
4, 357899, Note_on_c, 0, 69, 0
4, 357900, Note_on_c, 0, 62, 90
4, 358019, Note_on_c, 0, 62, 0
4, 358020, Note_on_c, 0, 69, 90
4, 358139, Note_on_c, 0, 69, 0
4, 358140, Note_on_c, 0, 69, 90
4, 358259, Note_on_c, 0, 69, 0
4, 358260, Note_on_c, 0, 66, 90
4, 358499, Note_on_c, 0, 66, 0
4, 364260, Note_on_c, 0, 78, 90
4, 364499, Note_on_c, 0, 78, 0
4, 364500, Note_on_c, 0, 74, 90
4, 364739, Note_on_c, 0, 74, 0
4, 365700, Note_on_c, 0, 78, 90
4, 365939, Note_on_c, 0, 78, 0
4, 365940, Note_on_c, 0, 74, 90
4, 366179, Note_on_c, 0, 74, 0
4, 367140, Note_on_c, 0, 78, 90
4, 367379, Note_on_c, 0, 78, 0
4, 367380, Note_on_c, 0, 74, 90
4, 367619, Note_on_c, 0, 74, 0
4, 367620, Note_on_c, 0, 69, 90
4, 367739, Note_on_c, 0, 69, 0
4, 367740, Note_on_c, 0, 66, 90
4, 367859, Note_on_c, 0, 66, 0
4, 367860, Note_on_c, 0, 74, 90
4, 367979, Note_on_c, 0, 74, 0
4, 367980, Note_on_c, 0, 69, 90
4, 368099, Note_on_c, 0, 69, 0
4, 368100, Note_on_c, 0, 78, 90
4, 368219, Note_on_c, 0, 78, 0
4, 368220, Note_on_c, 0, 74, 90
4, 368339, Note_on_c, 0, 74, 0
4, 368340, Note_on_c, 0, 69, 90
4, 368459, Note_on_c, 0, 69, 0
4, 368460, Note_on_c, 0, 66, 90
4, 368579, Note_on_c, 0, 66, 0
4, 368580, Note_on_c, 0, 74, 90
4, 368699, Note_on_c, 0, 74, 0
4, 368700, Note_on_c, 0, 74, 90
4, 368819, Note_on_c, 0, 74, 0
4, 368820, Note_on_c, 0, 74, 90
4, 368939, Note_on_c, 0, 74, 0
4, 368940, Note_on_c, 0, 74, 90
4, 369059, Note_on_c, 0, 74, 0
4, 369060, Note_on_c, 0, 74, 90
4, 369179, Note_on_c, 0, 74, 0
4, 369180, Note_on_c, 0, 69, 90
4, 369299, Note_on_c, 0, 69, 0
4, 369300, Note_on_c, 0, 69, 90
4, 369539, Note_on_c, 0, 69, 0
4, 369540, Note_on_c, 0, 76, 90
4, 369779, Note_on_c, 0, 76, 0
4, 369780, Note_on_c, 0, 69, 90
4, 370019, Note_on_c, 0, 69, 0
4, 370980, Note_on_c, 0, 76, 90
4, 371219, Note_on_c, 0, 76, 0
4, 371220, Note_on_c, 0, 69, 90
4, 371459, Note_on_c, 0, 69, 0
4, 372420, Note_on_c, 0, 76, 90
4, 372659, Note_on_c, 0, 76, 0
4, 372660, Note_on_c, 0, 69, 90
4, 372899, Note_on_c, 0, 69, 0
4, 372900, Note_on_c, 0, 69, 90
4, 373019, Note_on_c, 0, 69, 0
4, 373020, Note_on_c, 0, 69, 90
4, 373139, Note_on_c, 0, 69, 0
4, 373140, Note_on_c, 0, 69, 90
4, 373259, Note_on_c, 0, 69, 0
4, 373260, Note_on_c, 0, 69, 90
4, 373379, Note_on_c, 0, 69, 0
4, 373380, Note_on_c, 0, 69, 90
4, 373499, Note_on_c, 0, 69, 0
4, 373500, Note_on_c, 0, 69, 90
4, 373619, Note_on_c, 0, 69, 0
4, 373620, Note_on_c, 0, 69, 90
4, 373739, Note_on_c, 0, 69, 0
4, 373740, Note_on_c, 0, 69, 90
4, 373859, Note_on_c, 0, 69, 0
4, 373860, Note_on_c, 0, 66, 90
4, 373979, Note_on_c, 0, 66, 0
4, 373980, Note_on_c, 0, 62, 90
4, 374099, Note_on_c, 0, 62, 0
4, 374100, Note_on_c, 0, 69, 90
4, 374219, Note_on_c, 0, 69, 0
4, 374220, Note_on_c, 0, 62, 90
4, 374339, Note_on_c, 0, 62, 0
4, 374340, Note_on_c, 0, 69, 90
4, 374459, Note_on_c, 0, 69, 0
4, 374460, Note_on_c, 0, 69, 90
4, 374579, Note_on_c, 0, 69, 0
4, 374580, Note_on_c, 0, 66, 90
4, 374819, Note_on_c, 0, 66, 0
4, 376740, Note_on_c, 0, 62, 90
4, 376859, Note_on_c, 0, 62, 0
4, 376860, Note_on_c, 0, 62, 90
4, 376979, Note_on_c, 0, 62, 0
4, 376980, Note_on_c, 0, 62, 90
4, 377099, Note_on_c, 0, 62, 0
4, 377100, Note_on_c, 0, 62, 90
4, 377219, Note_on_c, 0, 62, 0
4, 377220, Note_on_c, 0, 62, 90
4, 377339, Note_on_c, 0, 62, 0
4, 377340, Note_on_c, 0, 62, 90
4, 377459, Note_on_c, 0, 62, 0
4, 377460, Note_on_c, 0, 62, 90
4, 377579, Note_on_c, 0, 62, 0
4, 377580, Note_on_c, 0, 62, 90
4, 377699, Note_on_c, 0, 62, 0
4, 377700, Note_on_c, 0, 78, 90
4, 377939, Note_on_c, 0, 78, 0
4, 377940, Note_on_c, 0, 74, 90
4, 378179, Note_on_c, 0, 74, 0
4, 378180, Note_on_c, 0, 69, 90
4, 378299, Note_on_c, 0, 69, 0
4, 378300, Note_on_c, 0, 66, 90
4, 378419, Note_on_c, 0, 66, 0
4, 378420, Note_on_c, 0, 74, 90
4, 378539, Note_on_c, 0, 74, 0
4, 378540, Note_on_c, 0, 69, 90
4, 378659, Note_on_c, 0, 69, 0
4, 378660, Note_on_c, 0, 78, 90
4, 378779, Note_on_c, 0, 78, 0
4, 378780, Note_on_c, 0, 74, 90
4, 378899, Note_on_c, 0, 74, 0
4, 378900, Note_on_c, 0, 69, 90
4, 379019, Note_on_c, 0, 69, 0
4, 379020, Note_on_c, 0, 66, 90
4, 379139, Note_on_c, 0, 66, 0
4, 379140, Note_on_c, 0, 74, 90
4, 379259, Note_on_c, 0, 74, 0
4, 379260, Note_on_c, 0, 74, 90
4, 379379, Note_on_c, 0, 74, 0
4, 379380, Note_on_c, 0, 74, 90
4, 379499, Note_on_c, 0, 74, 0
4, 379500, Note_on_c, 0, 74, 90
4, 379619, Note_on_c, 0, 74, 0
4, 379620, Note_on_c, 0, 74, 90
4, 379739, Note_on_c, 0, 74, 0
4, 379740, Note_on_c, 0, 69, 90
4, 379859, Note_on_c, 0, 69, 0
4, 379860, Note_on_c, 0, 69, 90
4, 380099, Note_on_c, 0, 69, 0
4, 382020, Note_on_c, 0, 69, 90
4, 382139, Note_on_c, 0, 69, 0
4, 382140, Note_on_c, 0, 69, 90
4, 382259, Note_on_c, 0, 69, 0
4, 382260, Note_on_c, 0, 69, 90
4, 382379, Note_on_c, 0, 69, 0
4, 382380, Note_on_c, 0, 69, 90
4, 382499, Note_on_c, 0, 69, 0
4, 382500, Note_on_c, 0, 69, 90
4, 382619, Note_on_c, 0, 69, 0
4, 382620, Note_on_c, 0, 69, 90
4, 382739, Note_on_c, 0, 69, 0
4, 382740, Note_on_c, 0, 69, 90
4, 382859, Note_on_c, 0, 69, 0
4, 382860, Note_on_c, 0, 69, 90
4, 382979, Note_on_c, 0, 69, 0
4, 382980, Note_on_c, 0, 76, 90
4, 383219, Note_on_c, 0, 76, 0
4, 383220, Note_on_c, 0, 69, 90
4, 383459, Note_on_c, 0, 69, 0
4, 383460, Note_on_c, 0, 69, 90
4, 383579, Note_on_c, 0, 69, 0
4, 383580, Note_on_c, 0, 69, 90
4, 383699, Note_on_c, 0, 69, 0
4, 383700, Note_on_c, 0, 69, 90
4, 383819, Note_on_c, 0, 69, 0
4, 383820, Note_on_c, 0, 69, 90
4, 383939, Note_on_c, 0, 69, 0
4, 383940, Note_on_c, 0, 69, 90
4, 384059, Note_on_c, 0, 69, 0
4, 384060, Note_on_c, 0, 69, 90
4, 384179, Note_on_c, 0, 69, 0
4, 384180, Note_on_c, 0, 69, 90
4, 384299, Note_on_c, 0, 69, 0
4, 384300, Note_on_c, 0, 69, 90
4, 384419, Note_on_c, 0, 69, 0
4, 384420, Note_on_c, 0, 66, 90
4, 384539, Note_on_c, 0, 66, 0
4, 384540, Note_on_c, 0, 62, 90
4, 384659, Note_on_c, 0, 62, 0
4, 384660, Note_on_c, 0, 69, 90
4, 384779, Note_on_c, 0, 69, 0
4, 384780, Note_on_c, 0, 62, 90
4, 384899, Note_on_c, 0, 62, 0
4, 384900, Note_on_c, 0, 69, 90
4, 385019, Note_on_c, 0, 69, 0
4, 385020, Note_on_c, 0, 69, 90
4, 385139, Note_on_c, 0, 69, 0
4, 385140, Note_on_c, 0, 66, 90
4, 385379, Note_on_c, 0, 66, 0
4, 385379, End_track
5, 0, Start_track
5, 0, MIDI_port, 0
5, 0, Title_t, "timbal"
5, 0, Program_c, 9, 2
5, 0, Note_on_c, 9, 50, 80
5, 120, Note_on_c, 9, 50, 0
5, 360, Note_on_c, 9, 50, 80
5, 480, Note_on_c, 9, 50, 0
5, 720, Note_on_c, 9, 50, 80
5, 840, Note_on_c, 9, 50, 0
5, 1080, Note_on_c, 9, 50, 80
5, 1200, Note_on_c, 9, 50, 0
5, 1500, Note_on_c, 9, 50, 80
5, 1529, Note_on_c, 9, 50, 0
5, 1530, Note_on_c, 9, 50, 80
5, 1559, Note_on_c, 9, 50, 0
5, 1560, Note_on_c, 9, 50, 80
5, 1589, Note_on_c, 9, 50, 0
5, 1590, Note_on_c, 9, 50, 80
5, 1619, Note_on_c, 9, 50, 0
5, 1620, Note_on_c, 9, 50, 80
5, 1649, Note_on_c, 9, 50, 0
5, 1650, Note_on_c, 9, 50, 80
5, 1679, Note_on_c, 9, 50, 0
5, 1680, Note_on_c, 9, 50, 80
5, 1739, Note_on_c, 9, 50, 0
5, 1860, Note_on_c, 9, 50, 80
5, 1889, Note_on_c, 9, 50, 0
5, 1890, Note_on_c, 9, 50, 80
5, 1919, Note_on_c, 9, 50, 0
5, 1920, Note_on_c, 9, 50, 80
5, 1949, Note_on_c, 9, 50, 0
5, 1950, Note_on_c, 9, 50, 80
5, 1979, Note_on_c, 9, 50, 0
5, 1980, Note_on_c, 9, 50, 80
5, 2009, Note_on_c, 9, 50, 0
5, 2010, Note_on_c, 9, 50, 80
5, 2039, Note_on_c, 9, 50, 0
5, 2040, Note_on_c, 9, 50, 80
5, 2099, Note_on_c, 9, 50, 0
5, 2220, Note_on_c, 9, 50, 80
5, 2249, Note_on_c, 9, 50, 0
5, 2250, Note_on_c, 9, 50, 80
5, 2279, Note_on_c, 9, 50, 0
5, 2280, Note_on_c, 9, 50, 80
5, 2309, Note_on_c, 9, 50, 0
5, 2310, Note_on_c, 9, 50, 80
5, 2339, Note_on_c, 9, 50, 0
5, 2340, Note_on_c, 9, 50, 80
5, 2369, Note_on_c, 9, 50, 0
5, 2370, Note_on_c, 9, 50, 80
5, 2399, Note_on_c, 9, 50, 0
5, 2400, Note_on_c, 9, 50, 80
5, 2459, Note_on_c, 9, 50, 0
5, 2580, Note_on_c, 9, 45, 80
5, 2609, Note_on_c, 9, 45, 0
5, 2610, Note_on_c, 9, 45, 80
5, 2639, Note_on_c, 9, 45, 0
5, 2640, Note_on_c, 9, 45, 80
5, 2699, Note_on_c, 9, 45, 0
5, 2700, Note_on_c, 9, 45, 80
5, 2759, Note_on_c, 9, 45, 0
5, 2760, Note_on_c, 9, 50, 80
5, 2789, Note_on_c, 9, 50, 0
5, 2790, Note_on_c, 9, 50, 80
5, 2819, Note_on_c, 9, 50, 0
5, 2820, Note_on_c, 9, 50, 80
5, 2849, Note_on_c, 9, 50, 0
5, 2850, Note_on_c, 9, 50, 80
5, 2879, Note_on_c, 9, 50, 0
5, 2880, Note_on_c, 9, 45, 80
5, 2999, Note_on_c, 9, 45, 0
5, 5040, Note_on_c, 9, 50, 80
5, 5159, Note_on_c, 9, 50, 0
5, 5760, Note_on_c, 9, 45, 80
5, 5879, Note_on_c, 9, 45, 0
5, 6540, Note_on_c, 9, 50, 80
5, 6569, Note_on_c, 9, 50, 0
5, 6570, Note_on_c, 9, 50, 80
5, 6599, Note_on_c, 9, 50, 0
5, 6600, Note_on_c, 9, 50, 80
5, 6629, Note_on_c, 9, 50, 0
5, 6630, Note_on_c, 9, 50, 80
5, 6659, Note_on_c, 9, 50, 0
5, 6660, Note_on_c, 9, 50, 80
5, 6689, Note_on_c, 9, 50, 0
5, 6690, Note_on_c, 9, 50, 80
5, 6719, Note_on_c, 9, 50, 0
5, 6720, Note_on_c, 9, 50, 80
5, 6779, Note_on_c, 9, 50, 0
5, 6900, Note_on_c, 9, 50, 80
5, 6929, Note_on_c, 9, 50, 0
5, 6930, Note_on_c, 9, 50, 80
5, 6959, Note_on_c, 9, 50, 0
5, 6960, Note_on_c, 9, 50, 80
5, 6989, Note_on_c, 9, 50, 0
5, 6990, Note_on_c, 9, 50, 80
5, 7019, Note_on_c, 9, 50, 0
5, 7020, Note_on_c, 9, 50, 80
5, 7049, Note_on_c, 9, 50, 0
5, 7050, Note_on_c, 9, 50, 80
5, 7079, Note_on_c, 9, 50, 0
5, 7080, Note_on_c, 9, 50, 80
5, 7139, Note_on_c, 9, 50, 0
5, 7260, Note_on_c, 9, 50, 80
5, 7289, Note_on_c, 9, 50, 0
5, 7290, Note_on_c, 9, 50, 80
5, 7319, Note_on_c, 9, 50, 0
5, 7320, Note_on_c, 9, 50, 80
5, 7349, Note_on_c, 9, 50, 0
5, 7350, Note_on_c, 9, 50, 80
5, 7379, Note_on_c, 9, 50, 0
5, 7380, Note_on_c, 9, 50, 80
5, 7409, Note_on_c, 9, 50, 0
5, 7410, Note_on_c, 9, 50, 80
5, 7439, Note_on_c, 9, 50, 0
5, 7440, Note_on_c, 9, 50, 80
5, 7499, Note_on_c, 9, 50, 0
5, 7560, Note_on_c, 9, 45, 80
5, 7574, Note_on_c, 9, 45, 0
5, 7575, Note_on_c, 9, 45, 80
5, 7589, Note_on_c, 9, 45, 0
5, 7590, Note_on_c, 9, 45, 80
5, 7604, Note_on_c, 9, 45, 0
5, 7605, Note_on_c, 9, 45, 80
5, 7619, Note_on_c, 9, 45, 0
5, 7620, Note_on_c, 9, 45, 80
5, 7634, Note_on_c, 9, 45, 0
5, 7635, Note_on_c, 9, 45, 80
5, 7649, Note_on_c, 9, 45, 0
5, 7650, Note_on_c, 9, 45, 80
5, 7664, Note_on_c, 9, 45, 0
5, 7665, Note_on_c, 9, 45, 80
5, 7679, Note_on_c, 9, 45, 0
5, 7680, Note_on_c, 9, 45, 80
5, 7694, Note_on_c, 9, 45, 0
5, 7695, Note_on_c, 9, 45, 80
5, 7709, Note_on_c, 9, 45, 0
5, 7710, Note_on_c, 9, 45, 80
5, 7724, Note_on_c, 9, 45, 0
5, 7725, Note_on_c, 9, 45, 80
5, 7739, Note_on_c, 9, 45, 0
5, 7740, Note_on_c, 9, 45, 80
5, 7754, Note_on_c, 9, 45, 0
5, 7755, Note_on_c, 9, 45, 80
5, 7769, Note_on_c, 9, 45, 0
5, 7770, Note_on_c, 9, 45, 80
5, 7784, Note_on_c, 9, 45, 0
5, 7785, Note_on_c, 9, 45, 80
5, 7799, Note_on_c, 9, 45, 0
5, 7800, Note_on_c, 9, 45, 80
5, 7814, Note_on_c, 9, 45, 0
5, 7815, Note_on_c, 9, 45, 80
5, 7829, Note_on_c, 9, 45, 0
5, 7830, Note_on_c, 9, 45, 80
5, 7844, Note_on_c, 9, 45, 0
5, 7845, Note_on_c, 9, 45, 80
5, 7859, Note_on_c, 9, 45, 0
5, 7860, Note_on_c, 9, 45, 80
5, 7874, Note_on_c, 9, 45, 0
5, 7875, Note_on_c, 9, 45, 80
5, 7889, Note_on_c, 9, 45, 0
5, 7890, Note_on_c, 9, 45, 80
5, 7904, Note_on_c, 9, 45, 0
5, 7905, Note_on_c, 9, 45, 80
5, 7919, Note_on_c, 9, 45, 0
5, 7920, Note_on_c, 9, 45, 80
5, 7934, Note_on_c, 9, 45, 0
5, 7935, Note_on_c, 9, 45, 80
5, 7949, Note_on_c, 9, 45, 0
5, 7950, Note_on_c, 9, 45, 80
5, 7964, Note_on_c, 9, 45, 0
5, 7965, Note_on_c, 9, 45, 80
5, 7979, Note_on_c, 9, 45, 0
5, 7980, Note_on_c, 9, 45, 80
5, 7994, Note_on_c, 9, 45, 0
5, 7995, Note_on_c, 9, 45, 80
5, 8009, Note_on_c, 9, 45, 0
5, 8010, Note_on_c, 9, 45, 80
5, 8024, Note_on_c, 9, 45, 0
5, 8025, Note_on_c, 9, 45, 80
5, 8039, Note_on_c, 9, 45, 0
5, 8040, Note_on_c, 9, 45, 80
5, 8054, Note_on_c, 9, 45, 0
5, 8055, Note_on_c, 9, 45, 80
5, 8069, Note_on_c, 9, 45, 0
5, 8070, Note_on_c, 9, 45, 80
5, 8084, Note_on_c, 9, 45, 0
5, 8085, Note_on_c, 9, 45, 80
5, 8099, Note_on_c, 9, 45, 0
5, 8100, Note_on_c, 9, 45, 80
5, 8114, Note_on_c, 9, 45, 0
5, 8115, Note_on_c, 9, 45, 80
5, 8129, Note_on_c, 9, 45, 0
5, 8130, Note_on_c, 9, 45, 80
5, 8144, Note_on_c, 9, 45, 0
5, 8145, Note_on_c, 9, 45, 80
5, 8159, Note_on_c, 9, 45, 0
5, 8160, Note_on_c, 9, 45, 80
5, 8174, Note_on_c, 9, 45, 0
5, 8175, Note_on_c, 9, 45, 80
5, 8189, Note_on_c, 9, 45, 0
5, 8190, Note_on_c, 9, 45, 80
5, 8204, Note_on_c, 9, 45, 0
5, 8205, Note_on_c, 9, 45, 80
5, 8219, Note_on_c, 9, 45, 0
5, 8220, Note_on_c, 9, 45, 80
5, 8234, Note_on_c, 9, 45, 0
5, 8235, Note_on_c, 9, 45, 80
5, 8249, Note_on_c, 9, 45, 0
5, 8250, Note_on_c, 9, 45, 80
5, 8264, Note_on_c, 9, 45, 0
5, 8265, Note_on_c, 9, 45, 80
5, 8279, Note_on_c, 9, 45, 0
5, 8280, Note_on_c, 9, 45, 80
5, 8519, Note_on_c, 9, 45, 0
5, 8700, Note_on_c, 9, 50, 80
5, 8729, Note_on_c, 9, 50, 0
5, 8730, Note_on_c, 9, 50, 80
5, 8759, Note_on_c, 9, 50, 0
5, 8760, Note_on_c, 9, 50, 80
5, 8789, Note_on_c, 9, 50, 0
5, 8790, Note_on_c, 9, 50, 80
5, 8819, Note_on_c, 9, 50, 0
5, 8820, Note_on_c, 9, 50, 80
5, 8849, Note_on_c, 9, 50, 0
5, 8850, Note_on_c, 9, 50, 80
5, 8879, Note_on_c, 9, 50, 0
5, 8880, Note_on_c, 9, 50, 80
5, 8939, Note_on_c, 9, 50, 0
5, 9060, Note_on_c, 9, 50, 80
5, 9089, Note_on_c, 9, 50, 0
5, 9090, Note_on_c, 9, 50, 80
5, 9119, Note_on_c, 9, 50, 0
5, 9120, Note_on_c, 9, 50, 80
5, 9149, Note_on_c, 9, 50, 0
5, 9150, Note_on_c, 9, 50, 80
5, 9179, Note_on_c, 9, 50, 0
5, 9180, Note_on_c, 9, 50, 80
5, 9209, Note_on_c, 9, 50, 0
5, 9210, Note_on_c, 9, 50, 80
5, 9239, Note_on_c, 9, 50, 0
5, 9240, Note_on_c, 9, 50, 80
5, 9299, Note_on_c, 9, 50, 0
5, 9780, Note_on_c, 9, 45, 80
5, 9809, Note_on_c, 9, 45, 0
5, 9810, Note_on_c, 9, 45, 80
5, 9839, Note_on_c, 9, 45, 0
5, 9840, Note_on_c, 9, 50, 80
5, 9869, Note_on_c, 9, 50, 0
5, 9870, Note_on_c, 9, 50, 80
5, 9899, Note_on_c, 9, 50, 0
5, 9900, Note_on_c, 9, 50, 80
5, 9929, Note_on_c, 9, 50, 0
5, 9930, Note_on_c, 9, 50, 80
5, 9959, Note_on_c, 9, 50, 0
5, 9960, Note_on_c, 9, 45, 80
5, 10019, Note_on_c, 9, 45, 0
5, 10020, Note_on_c, 9, 45, 80
5, 10079, Note_on_c, 9, 45, 0
5, 10080, Note_on_c, 9, 50, 80
5, 10199, Note_on_c, 9, 50, 0
5, 10440, Note_on_c, 9, 50, 80
5, 10559, Note_on_c, 9, 50, 0
5, 10800, Note_on_c, 9, 50, 80
5, 10919, Note_on_c, 9, 50, 0
5, 11160, Note_on_c, 9, 50, 80
5, 11279, Note_on_c, 9, 50, 0
5, 11580, Note_on_c, 9, 50, 80
5, 11609, Note_on_c, 9, 50, 0
5, 11610, Note_on_c, 9, 50, 80
5, 11639, Note_on_c, 9, 50, 0
5, 11640, Note_on_c, 9, 50, 80
5, 11669, Note_on_c, 9, 50, 0
5, 11670, Note_on_c, 9, 50, 80
5, 11699, Note_on_c, 9, 50, 0
5, 11700, Note_on_c, 9, 50, 80
5, 11729, Note_on_c, 9, 50, 0
5, 11730, Note_on_c, 9, 50, 80
5, 11759, Note_on_c, 9, 50, 0
5, 11760, Note_on_c, 9, 50, 80
5, 11819, Note_on_c, 9, 50, 0
5, 11880, Note_on_c, 9, 45, 80
5, 11894, Note_on_c, 9, 45, 0
5, 11895, Note_on_c, 9, 45, 80
5, 11909, Note_on_c, 9, 45, 0
5, 11910, Note_on_c, 9, 45, 80
5, 11924, Note_on_c, 9, 45, 0
5, 11925, Note_on_c, 9, 45, 80
5, 11939, Note_on_c, 9, 45, 0
5, 11940, Note_on_c, 9, 45, 80
5, 11954, Note_on_c, 9, 45, 0
5, 11955, Note_on_c, 9, 45, 80
5, 11969, Note_on_c, 9, 45, 0
5, 11970, Note_on_c, 9, 45, 80
5, 11984, Note_on_c, 9, 45, 0
5, 11985, Note_on_c, 9, 45, 80
5, 11999, Note_on_c, 9, 45, 0
5, 12000, Note_on_c, 9, 45, 80
5, 12014, Note_on_c, 9, 45, 0
5, 12015, Note_on_c, 9, 45, 80
5, 12029, Note_on_c, 9, 45, 0
5, 12030, Note_on_c, 9, 45, 80
5, 12044, Note_on_c, 9, 45, 0
5, 12045, Note_on_c, 9, 45, 80
5, 12059, Note_on_c, 9, 45, 0
5, 12060, Note_on_c, 9, 45, 80
5, 12074, Note_on_c, 9, 45, 0
5, 12075, Note_on_c, 9, 45, 80
5, 12089, Note_on_c, 9, 45, 0
5, 12090, Note_on_c, 9, 45, 80
5, 12104, Note_on_c, 9, 45, 0
5, 12105, Note_on_c, 9, 45, 80
5, 12119, Note_on_c, 9, 45, 0
5, 12120, Note_on_c, 9, 45, 80
5, 12134, Note_on_c, 9, 45, 0
5, 12135, Note_on_c, 9, 45, 80
5, 12149, Note_on_c, 9, 45, 0
5, 12150, Note_on_c, 9, 45, 80
5, 12164, Note_on_c, 9, 45, 0
5, 12165, Note_on_c, 9, 45, 80
5, 12179, Note_on_c, 9, 45, 0
5, 12180, Note_on_c, 9, 45, 80
5, 12194, Note_on_c, 9, 45, 0
5, 12195, Note_on_c, 9, 45, 80
5, 12209, Note_on_c, 9, 45, 0
5, 12210, Note_on_c, 9, 45, 80
5, 12224, Note_on_c, 9, 45, 0
5, 12225, Note_on_c, 9, 45, 80
5, 12239, Note_on_c, 9, 45, 0
5, 12240, Note_on_c, 9, 45, 80
5, 12254, Note_on_c, 9, 45, 0
5, 12255, Note_on_c, 9, 45, 80
5, 12269, Note_on_c, 9, 45, 0
5, 12270, Note_on_c, 9, 45, 80
5, 12284, Note_on_c, 9, 45, 0
5, 12285, Note_on_c, 9, 45, 80
5, 12299, Note_on_c, 9, 45, 0
5, 12300, Note_on_c, 9, 45, 80
5, 12314, Note_on_c, 9, 45, 0
5, 12315, Note_on_c, 9, 45, 80
5, 12329, Note_on_c, 9, 45, 0
5, 12330, Note_on_c, 9, 45, 80
5, 12344, Note_on_c, 9, 45, 0
5, 12345, Note_on_c, 9, 45, 80
5, 12359, Note_on_c, 9, 45, 0
5, 12360, Note_on_c, 9, 45, 80
5, 12374, Note_on_c, 9, 45, 0
5, 12375, Note_on_c, 9, 45, 80
5, 12389, Note_on_c, 9, 45, 0
5, 12390, Note_on_c, 9, 45, 80
5, 12404, Note_on_c, 9, 45, 0
5, 12405, Note_on_c, 9, 45, 80
5, 12419, Note_on_c, 9, 45, 0
5, 12420, Note_on_c, 9, 45, 80
5, 12434, Note_on_c, 9, 45, 0
5, 12435, Note_on_c, 9, 45, 80
5, 12449, Note_on_c, 9, 45, 0
5, 12450, Note_on_c, 9, 45, 80
5, 12464, Note_on_c, 9, 45, 0
5, 12465, Note_on_c, 9, 45, 80
5, 12479, Note_on_c, 9, 45, 0
5, 12480, Note_on_c, 9, 45, 80
5, 12494, Note_on_c, 9, 45, 0
5, 12495, Note_on_c, 9, 45, 80
5, 12509, Note_on_c, 9, 45, 0
5, 12510, Note_on_c, 9, 45, 80
5, 12524, Note_on_c, 9, 45, 0
5, 12525, Note_on_c, 9, 45, 80
5, 12539, Note_on_c, 9, 45, 0
5, 12540, Note_on_c, 9, 45, 80
5, 12554, Note_on_c, 9, 45, 0
5, 12555, Note_on_c, 9, 45, 80
5, 12569, Note_on_c, 9, 45, 0
5, 12570, Note_on_c, 9, 45, 80
5, 12584, Note_on_c, 9, 45, 0
5, 12585, Note_on_c, 9, 45, 80
5, 12599, Note_on_c, 9, 45, 0
5, 12600, Note_on_c, 9, 45, 80
5, 12839, Note_on_c, 9, 45, 0
5, 13020, Note_on_c, 9, 50, 80
5, 13049, Note_on_c, 9, 50, 0
5, 13050, Note_on_c, 9, 50, 80
5, 13079, Note_on_c, 9, 50, 0
5, 13080, Note_on_c, 9, 50, 80
5, 13109, Note_on_c, 9, 50, 0
5, 13110, Note_on_c, 9, 50, 80
5, 13139, Note_on_c, 9, 50, 0
5, 13140, Note_on_c, 9, 50, 80
5, 13169, Note_on_c, 9, 50, 0
5, 13170, Note_on_c, 9, 50, 80
5, 13199, Note_on_c, 9, 50, 0
5, 13200, Note_on_c, 9, 50, 80
5, 13259, Note_on_c, 9, 50, 0
5, 13380, Note_on_c, 9, 50, 80
5, 13409, Note_on_c, 9, 50, 0
5, 13410, Note_on_c, 9, 50, 80
5, 13439, Note_on_c, 9, 50, 0
5, 13440, Note_on_c, 9, 50, 80
5, 13469, Note_on_c, 9, 50, 0
5, 13470, Note_on_c, 9, 50, 80
5, 13499, Note_on_c, 9, 50, 0
5, 13500, Note_on_c, 9, 50, 80
5, 13529, Note_on_c, 9, 50, 0
5, 13530, Note_on_c, 9, 50, 80
5, 13559, Note_on_c, 9, 50, 0
5, 13560, Note_on_c, 9, 50, 80
5, 13619, Note_on_c, 9, 50, 0
5, 14100, Note_on_c, 9, 45, 80
5, 14129, Note_on_c, 9, 45, 0
5, 14130, Note_on_c, 9, 45, 80
5, 14159, Note_on_c, 9, 45, 0
5, 14160, Note_on_c, 9, 50, 80
5, 14189, Note_on_c, 9, 50, 0
5, 14190, Note_on_c, 9, 50, 80
5, 14219, Note_on_c, 9, 50, 0
5, 14220, Note_on_c, 9, 50, 80
5, 14249, Note_on_c, 9, 50, 0
5, 14250, Note_on_c, 9, 50, 80
5, 14279, Note_on_c, 9, 50, 0
5, 14280, Note_on_c, 9, 45, 80
5, 14339, Note_on_c, 9, 45, 0
5, 14340, Note_on_c, 9, 45, 80
5, 14399, Note_on_c, 9, 45, 0
5, 14400, Note_on_c, 9, 50, 80
5, 14414, Note_on_c, 9, 50, 0
5, 14415, Note_on_c, 9, 50, 80
5, 14429, Note_on_c, 9, 50, 0
5, 14430, Note_on_c, 9, 50, 80
5, 14444, Note_on_c, 9, 50, 0
5, 14445, Note_on_c, 9, 50, 80
5, 14459, Note_on_c, 9, 50, 0
5, 14460, Note_on_c, 9, 50, 80
5, 14474, Note_on_c, 9, 50, 0
5, 14475, Note_on_c, 9, 50, 80
5, 14489, Note_on_c, 9, 50, 0
5, 14490, Note_on_c, 9, 50, 80
5, 14504, Note_on_c, 9, 50, 0
5, 14505, Note_on_c, 9, 50, 80
5, 14519, Note_on_c, 9, 50, 0
5, 14520, Note_on_c, 9, 50, 80
5, 14534, Note_on_c, 9, 50, 0
5, 14535, Note_on_c, 9, 50, 80
5, 14549, Note_on_c, 9, 50, 0
5, 14550, Note_on_c, 9, 50, 80
5, 14564, Note_on_c, 9, 50, 0
5, 14565, Note_on_c, 9, 50, 80
5, 14579, Note_on_c, 9, 50, 0
5, 14580, Note_on_c, 9, 50, 80
5, 14594, Note_on_c, 9, 50, 0
5, 14595, Note_on_c, 9, 50, 80
5, 14609, Note_on_c, 9, 50, 0
5, 14610, Note_on_c, 9, 50, 80
5, 14624, Note_on_c, 9, 50, 0
5, 14625, Note_on_c, 9, 50, 80
5, 14639, Note_on_c, 9, 50, 0
5, 14640, Note_on_c, 9, 50, 80
5, 14654, Note_on_c, 9, 50, 0
5, 14655, Note_on_c, 9, 50, 80
5, 14669, Note_on_c, 9, 50, 0
5, 14670, Note_on_c, 9, 50, 80
5, 14684, Note_on_c, 9, 50, 0
5, 14685, Note_on_c, 9, 50, 80
5, 14699, Note_on_c, 9, 50, 0
5, 14700, Note_on_c, 9, 50, 80
5, 14714, Note_on_c, 9, 50, 0
5, 14715, Note_on_c, 9, 50, 80
5, 14729, Note_on_c, 9, 50, 0
5, 14730, Note_on_c, 9, 50, 80
5, 14744, Note_on_c, 9, 50, 0
5, 14745, Note_on_c, 9, 50, 80
5, 14759, Note_on_c, 9, 50, 0
5, 14760, Note_on_c, 9, 50, 80
5, 14774, Note_on_c, 9, 50, 0
5, 14775, Note_on_c, 9, 50, 80
5, 14789, Note_on_c, 9, 50, 0
5, 14790, Note_on_c, 9, 50, 80
5, 14804, Note_on_c, 9, 50, 0
5, 14805, Note_on_c, 9, 50, 80
5, 14819, Note_on_c, 9, 50, 0
5, 14820, Note_on_c, 9, 50, 80
5, 14834, Note_on_c, 9, 50, 0
5, 14835, Note_on_c, 9, 50, 80
5, 14849, Note_on_c, 9, 50, 0
5, 14850, Note_on_c, 9, 50, 80
5, 14864, Note_on_c, 9, 50, 0
5, 14865, Note_on_c, 9, 50, 80
5, 14879, Note_on_c, 9, 50, 0
5, 14880, Note_on_c, 9, 50, 80
5, 14894, Note_on_c, 9, 50, 0
5, 14895, Note_on_c, 9, 50, 80
5, 14909, Note_on_c, 9, 50, 0
5, 14910, Note_on_c, 9, 50, 80
5, 14924, Note_on_c, 9, 50, 0
5, 14925, Note_on_c, 9, 50, 80
5, 14939, Note_on_c, 9, 50, 0
5, 14940, Note_on_c, 9, 50, 80
5, 14954, Note_on_c, 9, 50, 0
5, 14955, Note_on_c, 9, 50, 80
5, 14969, Note_on_c, 9, 50, 0
5, 14970, Note_on_c, 9, 50, 80
5, 14984, Note_on_c, 9, 50, 0
5, 14985, Note_on_c, 9, 50, 80
5, 14999, Note_on_c, 9, 50, 0
5, 15000, Note_on_c, 9, 50, 80
5, 15014, Note_on_c, 9, 50, 0
5, 15015, Note_on_c, 9, 50, 80
5, 15029, Note_on_c, 9, 50, 0
5, 15030, Note_on_c, 9, 50, 80
5, 15044, Note_on_c, 9, 50, 0
5, 15045, Note_on_c, 9, 50, 80
5, 15059, Note_on_c, 9, 50, 0
5, 15060, Note_on_c, 9, 50, 80
5, 15074, Note_on_c, 9, 50, 0
5, 15075, Note_on_c, 9, 50, 80
5, 15089, Note_on_c, 9, 50, 0
5, 15090, Note_on_c, 9, 50, 80
5, 15104, Note_on_c, 9, 50, 0
5, 15105, Note_on_c, 9, 50, 80
5, 15119, Note_on_c, 9, 50, 0
5, 15120, Note_on_c, 9, 50, 80
5, 15134, Note_on_c, 9, 50, 0
5, 15135, Note_on_c, 9, 50, 80
5, 15149, Note_on_c, 9, 50, 0
5, 15150, Note_on_c, 9, 50, 80
5, 15164, Note_on_c, 9, 50, 0
5, 15165, Note_on_c, 9, 50, 80
5, 15179, Note_on_c, 9, 50, 0
5, 15180, Note_on_c, 9, 50, 80
5, 15194, Note_on_c, 9, 50, 0
5, 15195, Note_on_c, 9, 50, 80
5, 15209, Note_on_c, 9, 50, 0
5, 15210, Note_on_c, 9, 50, 80
5, 15224, Note_on_c, 9, 50, 0
5, 15225, Note_on_c, 9, 50, 80
5, 15239, Note_on_c, 9, 50, 0
5, 15240, Note_on_c, 9, 50, 80
5, 15254, Note_on_c, 9, 50, 0
5, 15255, Note_on_c, 9, 50, 80
5, 15269, Note_on_c, 9, 50, 0
5, 15270, Note_on_c, 9, 50, 80
5, 15284, Note_on_c, 9, 50, 0
5, 15285, Note_on_c, 9, 50, 80
5, 15299, Note_on_c, 9, 50, 0
5, 15300, Note_on_c, 9, 50, 80
5, 15314, Note_on_c, 9, 50, 0
5, 15315, Note_on_c, 9, 50, 80
5, 15329, Note_on_c, 9, 50, 0
5, 15330, Note_on_c, 9, 50, 80
5, 15344, Note_on_c, 9, 50, 0
5, 15345, Note_on_c, 9, 50, 80
5, 15359, Note_on_c, 9, 50, 0
5, 15360, Note_on_c, 9, 50, 80
5, 15374, Note_on_c, 9, 50, 0
5, 15375, Note_on_c, 9, 50, 80
5, 15389, Note_on_c, 9, 50, 0
5, 15390, Note_on_c, 9, 50, 80
5, 15404, Note_on_c, 9, 50, 0
5, 15405, Note_on_c, 9, 50, 80
5, 15419, Note_on_c, 9, 50, 0
5, 15420, Note_on_c, 9, 50, 80
5, 15434, Note_on_c, 9, 50, 0
5, 15435, Note_on_c, 9, 50, 80
5, 15449, Note_on_c, 9, 50, 0
5, 15450, Note_on_c, 9, 50, 80
5, 15464, Note_on_c, 9, 50, 0
5, 15465, Note_on_c, 9, 50, 80
5, 15479, Note_on_c, 9, 50, 0
5, 15480, Note_on_c, 9, 50, 80
5, 15494, Note_on_c, 9, 50, 0
5, 15495, Note_on_c, 9, 50, 80
5, 15509, Note_on_c, 9, 50, 0
5, 15510, Note_on_c, 9, 50, 80
5, 15524, Note_on_c, 9, 50, 0
5, 15525, Note_on_c, 9, 50, 80
5, 15539, Note_on_c, 9, 50, 0
5, 15540, Note_on_c, 9, 50, 80
5, 15554, Note_on_c, 9, 50, 0
5, 15555, Note_on_c, 9, 50, 80
5, 15569, Note_on_c, 9, 50, 0
5, 15570, Note_on_c, 9, 50, 80
5, 15584, Note_on_c, 9, 50, 0
5, 15585, Note_on_c, 9, 50, 80
5, 15599, Note_on_c, 9, 50, 0
5, 15600, Note_on_c, 9, 50, 80
5, 15614, Note_on_c, 9, 50, 0
5, 15615, Note_on_c, 9, 50, 80
5, 15629, Note_on_c, 9, 50, 0
5, 15630, Note_on_c, 9, 50, 80
5, 15644, Note_on_c, 9, 50, 0
5, 15645, Note_on_c, 9, 50, 80
5, 15659, Note_on_c, 9, 50, 0
5, 15660, Note_on_c, 9, 50, 80
5, 15674, Note_on_c, 9, 50, 0
5, 15675, Note_on_c, 9, 50, 80
5, 15689, Note_on_c, 9, 50, 0
5, 15690, Note_on_c, 9, 50, 80
5, 15704, Note_on_c, 9, 50, 0
5, 15705, Note_on_c, 9, 50, 80
5, 15719, Note_on_c, 9, 50, 0
5, 15720, Note_on_c, 9, 50, 80
5, 15734, Note_on_c, 9, 50, 0
5, 15735, Note_on_c, 9, 50, 80
5, 15749, Note_on_c, 9, 50, 0
5, 15750, Note_on_c, 9, 50, 80
5, 15764, Note_on_c, 9, 50, 0
5, 15765, Note_on_c, 9, 50, 80
5, 15779, Note_on_c, 9, 50, 0
5, 15780, Note_on_c, 9, 50, 80
5, 15794, Note_on_c, 9, 50, 0
5, 15795, Note_on_c, 9, 50, 80
5, 15809, Note_on_c, 9, 50, 0
5, 15810, Note_on_c, 9, 50, 80
5, 15824, Note_on_c, 9, 50, 0
5, 15825, Note_on_c, 9, 50, 80
5, 15839, Note_on_c, 9, 50, 0
5, 15840, Note_on_c, 9, 50, 80
5, 15899, Note_on_c, 9, 50, 0
5, 15900, Note_on_c, 9, 50, 80
5, 15929, Note_on_c, 9, 50, 0
5, 15930, Note_on_c, 9, 50, 80
5, 15959, Note_on_c, 9, 50, 0
5, 15960, Note_on_c, 9, 50, 80
5, 15989, Note_on_c, 9, 50, 0
5, 15990, Note_on_c, 9, 50, 80
5, 16019, Note_on_c, 9, 50, 0
5, 16020, Note_on_c, 9, 50, 80
5, 16049, Note_on_c, 9, 50, 0
5, 16050, Note_on_c, 9, 50, 80
5, 16079, Note_on_c, 9, 50, 0
5, 16080, Note_on_c, 9, 50, 80
5, 16139, Note_on_c, 9, 50, 0
5, 16260, Note_on_c, 9, 50, 80
5, 16289, Note_on_c, 9, 50, 0
5, 16290, Note_on_c, 9, 50, 80
5, 16319, Note_on_c, 9, 50, 0
5, 16320, Note_on_c, 9, 50, 80
5, 16349, Note_on_c, 9, 50, 0
5, 16350, Note_on_c, 9, 50, 80
5, 16379, Note_on_c, 9, 50, 0
5, 16380, Note_on_c, 9, 50, 80
5, 16409, Note_on_c, 9, 50, 0
5, 16410, Note_on_c, 9, 50, 80
5, 16439, Note_on_c, 9, 50, 0
5, 16440, Note_on_c, 9, 50, 80
5, 16499, Note_on_c, 9, 50, 0
5, 16620, Note_on_c, 9, 50, 80
5, 16649, Note_on_c, 9, 50, 0
5, 16650, Note_on_c, 9, 50, 80
5, 16679, Note_on_c, 9, 50, 0
5, 16680, Note_on_c, 9, 50, 80
5, 16709, Note_on_c, 9, 50, 0
5, 16710, Note_on_c, 9, 50, 80
5, 16739, Note_on_c, 9, 50, 0
5, 16740, Note_on_c, 9, 50, 80
5, 16769, Note_on_c, 9, 50, 0
5, 16770, Note_on_c, 9, 50, 80
5, 16799, Note_on_c, 9, 50, 0
5, 16800, Note_on_c, 9, 50, 80
5, 16859, Note_on_c, 9, 50, 0
5, 16980, Note_on_c, 9, 45, 80
5, 17009, Note_on_c, 9, 45, 0
5, 17010, Note_on_c, 9, 45, 80
5, 17039, Note_on_c, 9, 45, 0
5, 17040, Note_on_c, 9, 45, 80
5, 17099, Note_on_c, 9, 45, 0
5, 17100, Note_on_c, 9, 45, 80
5, 17159, Note_on_c, 9, 45, 0
5, 17160, Note_on_c, 9, 50, 80
5, 17189, Note_on_c, 9, 50, 0
5, 17190, Note_on_c, 9, 50, 80
5, 17219, Note_on_c, 9, 50, 0
5, 17220, Note_on_c, 9, 50, 80
5, 17249, Note_on_c, 9, 50, 0
5, 17250, Note_on_c, 9, 50, 80
5, 17279, Note_on_c, 9, 50, 0
5, 17280, Note_on_c, 9, 45, 80
5, 17339, Note_on_c, 9, 45, 0
5, 17340, Note_on_c, 9, 45, 80
5, 17369, Note_on_c, 9, 45, 0
5, 17370, Note_on_c, 9, 45, 80
5, 17399, Note_on_c, 9, 45, 0
5, 17400, Note_on_c, 9, 45, 80
5, 17429, Note_on_c, 9, 45, 0
5, 17430, Note_on_c, 9, 45, 80
5, 17459, Note_on_c, 9, 45, 0
5, 17460, Note_on_c, 9, 45, 80
5, 17489, Note_on_c, 9, 45, 0
5, 17490, Note_on_c, 9, 45, 80
5, 17519, Note_on_c, 9, 45, 0
5, 17520, Note_on_c, 9, 45, 80
5, 17579, Note_on_c, 9, 45, 0
5, 17700, Note_on_c, 9, 45, 80
5, 17729, Note_on_c, 9, 45, 0
5, 17730, Note_on_c, 9, 45, 80
5, 17759, Note_on_c, 9, 45, 0
5, 17760, Note_on_c, 9, 45, 80
5, 17789, Note_on_c, 9, 45, 0
5, 17790, Note_on_c, 9, 45, 80
5, 17819, Note_on_c, 9, 45, 0
5, 17820, Note_on_c, 9, 45, 80
5, 17849, Note_on_c, 9, 45, 0
5, 17850, Note_on_c, 9, 45, 80
5, 17879, Note_on_c, 9, 45, 0
5, 17880, Note_on_c, 9, 45, 80
5, 17939, Note_on_c, 9, 45, 0
5, 18060, Note_on_c, 9, 45, 80
5, 18089, Note_on_c, 9, 45, 0
5, 18090, Note_on_c, 9, 45, 80
5, 18119, Note_on_c, 9, 45, 0
5, 18120, Note_on_c, 9, 45, 80
5, 18149, Note_on_c, 9, 45, 0
5, 18150, Note_on_c, 9, 45, 80
5, 18179, Note_on_c, 9, 45, 0
5, 18180, Note_on_c, 9, 45, 80
5, 18209, Note_on_c, 9, 45, 0
5, 18210, Note_on_c, 9, 45, 80
5, 18239, Note_on_c, 9, 45, 0
5, 18240, Note_on_c, 9, 45, 80
5, 18299, Note_on_c, 9, 45, 0
5, 19500, Note_on_c, 9, 45, 80
5, 19529, Note_on_c, 9, 45, 0
5, 19530, Note_on_c, 9, 45, 80
5, 19559, Note_on_c, 9, 45, 0
5, 19560, Note_on_c, 9, 45, 80
5, 19589, Note_on_c, 9, 45, 0
5, 19590, Note_on_c, 9, 45, 80
5, 19619, Note_on_c, 9, 45, 0
5, 19620, Note_on_c, 9, 45, 80
5, 19649, Note_on_c, 9, 45, 0
5, 19650, Note_on_c, 9, 45, 80
5, 19679, Note_on_c, 9, 45, 0
5, 19680, Note_on_c, 9, 45, 80
5, 19739, Note_on_c, 9, 45, 0
5, 19860, Note_on_c, 9, 45, 80
5, 19889, Note_on_c, 9, 45, 0
5, 19890, Note_on_c, 9, 45, 80
5, 19919, Note_on_c, 9, 45, 0
5, 19920, Note_on_c, 9, 45, 80
5, 19949, Note_on_c, 9, 45, 0
5, 19950, Note_on_c, 9, 45, 80
5, 19979, Note_on_c, 9, 45, 0
5, 19980, Note_on_c, 9, 45, 80
5, 20009, Note_on_c, 9, 45, 0
5, 20010, Note_on_c, 9, 45, 80
5, 20039, Note_on_c, 9, 45, 0
5, 20040, Note_on_c, 9, 45, 80
5, 20099, Note_on_c, 9, 45, 0
5, 20580, Note_on_c, 9, 45, 80
5, 20609, Note_on_c, 9, 45, 0
5, 20610, Note_on_c, 9, 45, 80
5, 20639, Note_on_c, 9, 45, 0
5, 20640, Note_on_c, 9, 45, 80
5, 20699, Note_on_c, 9, 45, 0
5, 20700, Note_on_c, 9, 45, 80
5, 20759, Note_on_c, 9, 45, 0
5, 20880, Note_on_c, 9, 45, 80
5, 20999, Note_on_c, 9, 45, 0
5, 23040, Note_on_c, 9, 50, 80
5, 23159, Note_on_c, 9, 50, 0
5, 23760, Note_on_c, 9, 45, 80
5, 23879, Note_on_c, 9, 45, 0
5, 24540, Note_on_c, 9, 50, 80
5, 24569, Note_on_c, 9, 50, 0
5, 24570, Note_on_c, 9, 50, 80
5, 24599, Note_on_c, 9, 50, 0
5, 24600, Note_on_c, 9, 50, 80
5, 24629, Note_on_c, 9, 50, 0
5, 24630, Note_on_c, 9, 50, 80
5, 24659, Note_on_c, 9, 50, 0
5, 24660, Note_on_c, 9, 50, 80
5, 24689, Note_on_c, 9, 50, 0
5, 24690, Note_on_c, 9, 50, 80
5, 24719, Note_on_c, 9, 50, 0
5, 24720, Note_on_c, 9, 50, 80
5, 24779, Note_on_c, 9, 50, 0
5, 24900, Note_on_c, 9, 50, 80
5, 24929, Note_on_c, 9, 50, 0
5, 24930, Note_on_c, 9, 50, 80
5, 24959, Note_on_c, 9, 50, 0
5, 24960, Note_on_c, 9, 50, 80
5, 24989, Note_on_c, 9, 50, 0
5, 24990, Note_on_c, 9, 50, 80
5, 25019, Note_on_c, 9, 50, 0
5, 25020, Note_on_c, 9, 50, 80
5, 25049, Note_on_c, 9, 50, 0
5, 25050, Note_on_c, 9, 50, 80
5, 25079, Note_on_c, 9, 50, 0
5, 25080, Note_on_c, 9, 50, 80
5, 25139, Note_on_c, 9, 50, 0
5, 25260, Note_on_c, 9, 50, 80
5, 25289, Note_on_c, 9, 50, 0
5, 25290, Note_on_c, 9, 50, 80
5, 25319, Note_on_c, 9, 50, 0
5, 25320, Note_on_c, 9, 50, 80
5, 25349, Note_on_c, 9, 50, 0
5, 25350, Note_on_c, 9, 50, 80
5, 25379, Note_on_c, 9, 50, 0
5, 25380, Note_on_c, 9, 50, 80
5, 25409, Note_on_c, 9, 50, 0
5, 25410, Note_on_c, 9, 50, 80
5, 25439, Note_on_c, 9, 50, 0
5, 25440, Note_on_c, 9, 50, 80
5, 25499, Note_on_c, 9, 50, 0
5, 25560, Note_on_c, 9, 45, 80
5, 25574, Note_on_c, 9, 45, 0
5, 25575, Note_on_c, 9, 45, 80
5, 25589, Note_on_c, 9, 45, 0
5, 25590, Note_on_c, 9, 45, 80
5, 25604, Note_on_c, 9, 45, 0
5, 25605, Note_on_c, 9, 45, 80
5, 25619, Note_on_c, 9, 45, 0
5, 25620, Note_on_c, 9, 45, 80
5, 25634, Note_on_c, 9, 45, 0
5, 25635, Note_on_c, 9, 45, 80
5, 25649, Note_on_c, 9, 45, 0
5, 25650, Note_on_c, 9, 45, 80
5, 25664, Note_on_c, 9, 45, 0
5, 25665, Note_on_c, 9, 45, 80
5, 25679, Note_on_c, 9, 45, 0
5, 25680, Note_on_c, 9, 45, 80
5, 25694, Note_on_c, 9, 45, 0
5, 25695, Note_on_c, 9, 45, 80
5, 25709, Note_on_c, 9, 45, 0
5, 25710, Note_on_c, 9, 45, 80
5, 25724, Note_on_c, 9, 45, 0
5, 25725, Note_on_c, 9, 45, 80
5, 25739, Note_on_c, 9, 45, 0
5, 25740, Note_on_c, 9, 45, 80
5, 25754, Note_on_c, 9, 45, 0
5, 25755, Note_on_c, 9, 45, 80
5, 25769, Note_on_c, 9, 45, 0
5, 25770, Note_on_c, 9, 45, 80
5, 25784, Note_on_c, 9, 45, 0
5, 25785, Note_on_c, 9, 45, 80
5, 25799, Note_on_c, 9, 45, 0
5, 25800, Note_on_c, 9, 45, 80
5, 25814, Note_on_c, 9, 45, 0
5, 25815, Note_on_c, 9, 45, 80
5, 25829, Note_on_c, 9, 45, 0
5, 25830, Note_on_c, 9, 45, 80
5, 25844, Note_on_c, 9, 45, 0
5, 25845, Note_on_c, 9, 45, 80
5, 25859, Note_on_c, 9, 45, 0
5, 25860, Note_on_c, 9, 45, 80
5, 25874, Note_on_c, 9, 45, 0
5, 25875, Note_on_c, 9, 45, 80
5, 25889, Note_on_c, 9, 45, 0
5, 25890, Note_on_c, 9, 45, 80
5, 25904, Note_on_c, 9, 45, 0
5, 25905, Note_on_c, 9, 45, 80
5, 25919, Note_on_c, 9, 45, 0
5, 25920, Note_on_c, 9, 45, 80
5, 25934, Note_on_c, 9, 45, 0
5, 25935, Note_on_c, 9, 45, 80
5, 25949, Note_on_c, 9, 45, 0
5, 25950, Note_on_c, 9, 45, 80
5, 25964, Note_on_c, 9, 45, 0
5, 25965, Note_on_c, 9, 45, 80
5, 25979, Note_on_c, 9, 45, 0
5, 25980, Note_on_c, 9, 45, 80
5, 25994, Note_on_c, 9, 45, 0
5, 25995, Note_on_c, 9, 45, 80
5, 26009, Note_on_c, 9, 45, 0
5, 26010, Note_on_c, 9, 45, 80
5, 26024, Note_on_c, 9, 45, 0
5, 26025, Note_on_c, 9, 45, 80
5, 26039, Note_on_c, 9, 45, 0
5, 26040, Note_on_c, 9, 45, 80
5, 26054, Note_on_c, 9, 45, 0
5, 26055, Note_on_c, 9, 45, 80
5, 26069, Note_on_c, 9, 45, 0
5, 26070, Note_on_c, 9, 45, 80
5, 26084, Note_on_c, 9, 45, 0
5, 26085, Note_on_c, 9, 45, 80
5, 26099, Note_on_c, 9, 45, 0
5, 26100, Note_on_c, 9, 45, 80
5, 26114, Note_on_c, 9, 45, 0
5, 26115, Note_on_c, 9, 45, 80
5, 26129, Note_on_c, 9, 45, 0
5, 26130, Note_on_c, 9, 45, 80
5, 26144, Note_on_c, 9, 45, 0
5, 26145, Note_on_c, 9, 45, 80
5, 26159, Note_on_c, 9, 45, 0
5, 26160, Note_on_c, 9, 45, 80
5, 26174, Note_on_c, 9, 45, 0
5, 26175, Note_on_c, 9, 45, 80
5, 26189, Note_on_c, 9, 45, 0
5, 26190, Note_on_c, 9, 45, 80
5, 26204, Note_on_c, 9, 45, 0
5, 26205, Note_on_c, 9, 45, 80
5, 26219, Note_on_c, 9, 45, 0
5, 26220, Note_on_c, 9, 45, 80
5, 26234, Note_on_c, 9, 45, 0
5, 26235, Note_on_c, 9, 45, 80
5, 26249, Note_on_c, 9, 45, 0
5, 26250, Note_on_c, 9, 45, 80
5, 26264, Note_on_c, 9, 45, 0
5, 26265, Note_on_c, 9, 45, 80
5, 26279, Note_on_c, 9, 45, 0
5, 26280, Note_on_c, 9, 45, 80
5, 26294, Note_on_c, 9, 45, 0
5, 26295, Note_on_c, 9, 45, 80
5, 26309, Note_on_c, 9, 45, 0
5, 26310, Note_on_c, 9, 45, 80
5, 26324, Note_on_c, 9, 45, 0
5, 26325, Note_on_c, 9, 45, 80
5, 26339, Note_on_c, 9, 45, 0
5, 26340, Note_on_c, 9, 45, 80
5, 26354, Note_on_c, 9, 45, 0
5, 26355, Note_on_c, 9, 45, 80
5, 26369, Note_on_c, 9, 45, 0
5, 26370, Note_on_c, 9, 45, 80
5, 26384, Note_on_c, 9, 45, 0
5, 26385, Note_on_c, 9, 45, 80
5, 26399, Note_on_c, 9, 45, 0
5, 26400, Note_on_c, 9, 45, 80
5, 26414, Note_on_c, 9, 45, 0
5, 26415, Note_on_c, 9, 45, 80
5, 26429, Note_on_c, 9, 45, 0
5, 26430, Note_on_c, 9, 45, 80
5, 26444, Note_on_c, 9, 45, 0
5, 26445, Note_on_c, 9, 45, 80
5, 26459, Note_on_c, 9, 45, 0
5, 26460, Note_on_c, 9, 45, 80
5, 26474, Note_on_c, 9, 45, 0
5, 26475, Note_on_c, 9, 45, 80
5, 26489, Note_on_c, 9, 45, 0
5, 26490, Note_on_c, 9, 45, 80
5, 26504, Note_on_c, 9, 45, 0
5, 26505, Note_on_c, 9, 45, 80
5, 26519, Note_on_c, 9, 45, 0
5, 26520, Note_on_c, 9, 45, 80
5, 26534, Note_on_c, 9, 45, 0
5, 26535, Note_on_c, 9, 45, 80
5, 26549, Note_on_c, 9, 45, 0
5, 26550, Note_on_c, 9, 45, 80
5, 26564, Note_on_c, 9, 45, 0
5, 26565, Note_on_c, 9, 45, 80
5, 26579, Note_on_c, 9, 45, 0
5, 26580, Note_on_c, 9, 45, 80
5, 26594, Note_on_c, 9, 45, 0
5, 26595, Note_on_c, 9, 45, 80
5, 26609, Note_on_c, 9, 45, 0
5, 26610, Note_on_c, 9, 45, 80
5, 26624, Note_on_c, 9, 45, 0
5, 26625, Note_on_c, 9, 45, 80
5, 26639, Note_on_c, 9, 45, 0
5, 26640, Note_on_c, 9, 50, 80
5, 26699, Note_on_c, 9, 50, 0
5, 26700, Note_on_c, 9, 50, 80
5, 26729, Note_on_c, 9, 50, 0
5, 26730, Note_on_c, 9, 50, 80
5, 26759, Note_on_c, 9, 50, 0
5, 26760, Note_on_c, 9, 50, 80
5, 26789, Note_on_c, 9, 50, 0
5, 26790, Note_on_c, 9, 50, 80
5, 26819, Note_on_c, 9, 50, 0
5, 26820, Note_on_c, 9, 50, 80
5, 26849, Note_on_c, 9, 50, 0
5, 26850, Note_on_c, 9, 50, 80
5, 26879, Note_on_c, 9, 50, 0
5, 26880, Note_on_c, 9, 50, 80
5, 26939, Note_on_c, 9, 50, 0
5, 27060, Note_on_c, 9, 50, 80
5, 27089, Note_on_c, 9, 50, 0
5, 27090, Note_on_c, 9, 50, 80
5, 27119, Note_on_c, 9, 50, 0
5, 27120, Note_on_c, 9, 50, 80
5, 27149, Note_on_c, 9, 50, 0
5, 27150, Note_on_c, 9, 50, 80
5, 27179, Note_on_c, 9, 50, 0
5, 27180, Note_on_c, 9, 50, 80
5, 27209, Note_on_c, 9, 50, 0
5, 27210, Note_on_c, 9, 50, 80
5, 27239, Note_on_c, 9, 50, 0
5, 27240, Note_on_c, 9, 50, 80
5, 27299, Note_on_c, 9, 50, 0
5, 27780, Note_on_c, 9, 45, 80
5, 27809, Note_on_c, 9, 45, 0
5, 27810, Note_on_c, 9, 45, 80
5, 27839, Note_on_c, 9, 45, 0
5, 27840, Note_on_c, 9, 50, 80
5, 27869, Note_on_c, 9, 50, 0
5, 27870, Note_on_c, 9, 50, 80
5, 27899, Note_on_c, 9, 50, 0
5, 27900, Note_on_c, 9, 50, 80
5, 27929, Note_on_c, 9, 50, 0
5, 27930, Note_on_c, 9, 50, 80
5, 27959, Note_on_c, 9, 50, 0
5, 27960, Note_on_c, 9, 45, 80
5, 28019, Note_on_c, 9, 45, 0
5, 28020, Note_on_c, 9, 45, 80
5, 28079, Note_on_c, 9, 45, 0
5, 28080, Note_on_c, 9, 50, 80
5, 28094, Note_on_c, 9, 50, 0
5, 28095, Note_on_c, 9, 50, 80
5, 28109, Note_on_c, 9, 50, 0
5, 28110, Note_on_c, 9, 50, 80
5, 28124, Note_on_c, 9, 50, 0
5, 28125, Note_on_c, 9, 50, 80
5, 28139, Note_on_c, 9, 50, 0
5, 28140, Note_on_c, 9, 50, 80
5, 28154, Note_on_c, 9, 50, 0
5, 28155, Note_on_c, 9, 50, 80
5, 28169, Note_on_c, 9, 50, 0
5, 28170, Note_on_c, 9, 50, 80
5, 28184, Note_on_c, 9, 50, 0
5, 28185, Note_on_c, 9, 50, 80
5, 28199, Note_on_c, 9, 50, 0
5, 28200, Note_on_c, 9, 50, 80
5, 28214, Note_on_c, 9, 50, 0
5, 28215, Note_on_c, 9, 50, 80
5, 28229, Note_on_c, 9, 50, 0
5, 28230, Note_on_c, 9, 50, 80
5, 28244, Note_on_c, 9, 50, 0
5, 28245, Note_on_c, 9, 50, 80
5, 28259, Note_on_c, 9, 50, 0
5, 28260, Note_on_c, 9, 50, 80
5, 28274, Note_on_c, 9, 50, 0
5, 28275, Note_on_c, 9, 50, 80
5, 28289, Note_on_c, 9, 50, 0
5, 28290, Note_on_c, 9, 50, 80
5, 28304, Note_on_c, 9, 50, 0
5, 28305, Note_on_c, 9, 50, 80
5, 28319, Note_on_c, 9, 50, 0
5, 28320, Note_on_c, 9, 50, 80
5, 28334, Note_on_c, 9, 50, 0
5, 28335, Note_on_c, 9, 50, 80
5, 28349, Note_on_c, 9, 50, 0
5, 28350, Note_on_c, 9, 50, 80
5, 28364, Note_on_c, 9, 50, 0
5, 28365, Note_on_c, 9, 50, 80
5, 28379, Note_on_c, 9, 50, 0
5, 28380, Note_on_c, 9, 50, 80
5, 28394, Note_on_c, 9, 50, 0
5, 28395, Note_on_c, 9, 50, 80
5, 28409, Note_on_c, 9, 50, 0
5, 28410, Note_on_c, 9, 50, 80
5, 28424, Note_on_c, 9, 50, 0
5, 28425, Note_on_c, 9, 50, 80
5, 28439, Note_on_c, 9, 50, 0
5, 28440, Note_on_c, 9, 50, 80
5, 28454, Note_on_c, 9, 50, 0
5, 28455, Note_on_c, 9, 50, 80
5, 28469, Note_on_c, 9, 50, 0
5, 28470, Note_on_c, 9, 50, 80
5, 28484, Note_on_c, 9, 50, 0
5, 28485, Note_on_c, 9, 50, 80
5, 28499, Note_on_c, 9, 50, 0
5, 28500, Note_on_c, 9, 50, 80
5, 28514, Note_on_c, 9, 50, 0
5, 28515, Note_on_c, 9, 50, 80
5, 28529, Note_on_c, 9, 50, 0
5, 28530, Note_on_c, 9, 50, 80
5, 28544, Note_on_c, 9, 50, 0
5, 28545, Note_on_c, 9, 50, 80
5, 28559, Note_on_c, 9, 50, 0
5, 28560, Note_on_c, 9, 50, 80
5, 28574, Note_on_c, 9, 50, 0
5, 28575, Note_on_c, 9, 50, 80
5, 28589, Note_on_c, 9, 50, 0
5, 28590, Note_on_c, 9, 50, 80
5, 28604, Note_on_c, 9, 50, 0
5, 28605, Note_on_c, 9, 50, 80
5, 28619, Note_on_c, 9, 50, 0
5, 28620, Note_on_c, 9, 50, 80
5, 28634, Note_on_c, 9, 50, 0
5, 28635, Note_on_c, 9, 50, 80
5, 28649, Note_on_c, 9, 50, 0
5, 28650, Note_on_c, 9, 50, 80
5, 28664, Note_on_c, 9, 50, 0
5, 28665, Note_on_c, 9, 50, 80
5, 28679, Note_on_c, 9, 50, 0
5, 28680, Note_on_c, 9, 50, 80
5, 28694, Note_on_c, 9, 50, 0
5, 28695, Note_on_c, 9, 50, 80
5, 28709, Note_on_c, 9, 50, 0
5, 28710, Note_on_c, 9, 50, 80
5, 28724, Note_on_c, 9, 50, 0
5, 28725, Note_on_c, 9, 50, 80
5, 28739, Note_on_c, 9, 50, 0
5, 28740, Note_on_c, 9, 50, 80
5, 28754, Note_on_c, 9, 50, 0
5, 28755, Note_on_c, 9, 50, 80
5, 28769, Note_on_c, 9, 50, 0
5, 28770, Note_on_c, 9, 50, 80
5, 28784, Note_on_c, 9, 50, 0
5, 28785, Note_on_c, 9, 50, 80
5, 28799, Note_on_c, 9, 50, 0
5, 28800, Note_on_c, 9, 50, 80
5, 28814, Note_on_c, 9, 50, 0
5, 28815, Note_on_c, 9, 50, 80
5, 28829, Note_on_c, 9, 50, 0
5, 28830, Note_on_c, 9, 50, 80
5, 28844, Note_on_c, 9, 50, 0
5, 28845, Note_on_c, 9, 50, 80
5, 28859, Note_on_c, 9, 50, 0
5, 28860, Note_on_c, 9, 50, 80
5, 28874, Note_on_c, 9, 50, 0
5, 28875, Note_on_c, 9, 50, 80
5, 28889, Note_on_c, 9, 50, 0
5, 28890, Note_on_c, 9, 50, 80
5, 28904, Note_on_c, 9, 50, 0
5, 28905, Note_on_c, 9, 50, 80
5, 28919, Note_on_c, 9, 50, 0
5, 28920, Note_on_c, 9, 50, 80
5, 28934, Note_on_c, 9, 50, 0
5, 28935, Note_on_c, 9, 50, 80
5, 28949, Note_on_c, 9, 50, 0
5, 28950, Note_on_c, 9, 50, 80
5, 28964, Note_on_c, 9, 50, 0
5, 28965, Note_on_c, 9, 50, 80
5, 28979, Note_on_c, 9, 50, 0
5, 28980, Note_on_c, 9, 50, 80
5, 28994, Note_on_c, 9, 50, 0
5, 28995, Note_on_c, 9, 50, 80
5, 29009, Note_on_c, 9, 50, 0
5, 29010, Note_on_c, 9, 50, 80
5, 29024, Note_on_c, 9, 50, 0
5, 29025, Note_on_c, 9, 50, 80
5, 29039, Note_on_c, 9, 50, 0
5, 29040, Note_on_c, 9, 50, 80
5, 29054, Note_on_c, 9, 50, 0
5, 29055, Note_on_c, 9, 50, 80
5, 29069, Note_on_c, 9, 50, 0
5, 29070, Note_on_c, 9, 50, 80
5, 29084, Note_on_c, 9, 50, 0
5, 29085, Note_on_c, 9, 50, 80
5, 29099, Note_on_c, 9, 50, 0
5, 29100, Note_on_c, 9, 50, 80
5, 29114, Note_on_c, 9, 50, 0
5, 29115, Note_on_c, 9, 50, 80
5, 29129, Note_on_c, 9, 50, 0
5, 29130, Note_on_c, 9, 50, 80
5, 29144, Note_on_c, 9, 50, 0
5, 29145, Note_on_c, 9, 50, 80
5, 29159, Note_on_c, 9, 50, 0
5, 29160, Note_on_c, 9, 50, 80
5, 29279, Note_on_c, 9, 50, 0
5, 29580, Note_on_c, 9, 45, 80
5, 29609, Note_on_c, 9, 45, 0
5, 29610, Note_on_c, 9, 45, 80
5, 29639, Note_on_c, 9, 45, 0
5, 29640, Note_on_c, 9, 50, 80
5, 29669, Note_on_c, 9, 50, 0
5, 29670, Note_on_c, 9, 50, 80
5, 29699, Note_on_c, 9, 50, 0
5, 29700, Note_on_c, 9, 50, 80
5, 29729, Note_on_c, 9, 50, 0
5, 29730, Note_on_c, 9, 50, 80
5, 29759, Note_on_c, 9, 50, 0
5, 29760, Note_on_c, 9, 45, 80
5, 29819, Note_on_c, 9, 45, 0
5, 29820, Note_on_c, 9, 45, 80
5, 29879, Note_on_c, 9, 45, 0
5, 29880, Note_on_c, 9, 50, 80
5, 29999, Note_on_c, 9, 50, 0
5, 39960, Note_on_c, 9, 50, 80
5, 40080, Note_on_c, 9, 50, 0
5, 40320, Note_on_c, 9, 50, 80
5, 40440, Note_on_c, 9, 50, 0
5, 40680, Note_on_c, 9, 50, 80
5, 40800, Note_on_c, 9, 50, 0
5, 41040, Note_on_c, 9, 50, 80
5, 41160, Note_on_c, 9, 50, 0
5, 41460, Note_on_c, 9, 50, 80
5, 41489, Note_on_c, 9, 50, 0
5, 41490, Note_on_c, 9, 50, 80
5, 41519, Note_on_c, 9, 50, 0
5, 41520, Note_on_c, 9, 50, 80
5, 41549, Note_on_c, 9, 50, 0
5, 41550, Note_on_c, 9, 50, 80
5, 41579, Note_on_c, 9, 50, 0
5, 41580, Note_on_c, 9, 50, 80
5, 41609, Note_on_c, 9, 50, 0
5, 41610, Note_on_c, 9, 50, 80
5, 41639, Note_on_c, 9, 50, 0
5, 41640, Note_on_c, 9, 50, 80
5, 41699, Note_on_c, 9, 50, 0
5, 41820, Note_on_c, 9, 50, 80
5, 41849, Note_on_c, 9, 50, 0
5, 41850, Note_on_c, 9, 50, 80
5, 41879, Note_on_c, 9, 50, 0
5, 41880, Note_on_c, 9, 50, 80
5, 41909, Note_on_c, 9, 50, 0
5, 41910, Note_on_c, 9, 50, 80
5, 41939, Note_on_c, 9, 50, 0
5, 41940, Note_on_c, 9, 50, 80
5, 41969, Note_on_c, 9, 50, 0
5, 41970, Note_on_c, 9, 50, 80
5, 41999, Note_on_c, 9, 50, 0
5, 42000, Note_on_c, 9, 50, 80
5, 42059, Note_on_c, 9, 50, 0
5, 42180, Note_on_c, 9, 50, 80
5, 42209, Note_on_c, 9, 50, 0
5, 42210, Note_on_c, 9, 50, 80
5, 42239, Note_on_c, 9, 50, 0
5, 42240, Note_on_c, 9, 50, 80
5, 42269, Note_on_c, 9, 50, 0
5, 42270, Note_on_c, 9, 50, 80
5, 42299, Note_on_c, 9, 50, 0
5, 42300, Note_on_c, 9, 50, 80
5, 42329, Note_on_c, 9, 50, 0
5, 42330, Note_on_c, 9, 50, 80
5, 42359, Note_on_c, 9, 50, 0
5, 42360, Note_on_c, 9, 50, 80
5, 42419, Note_on_c, 9, 50, 0
5, 42540, Note_on_c, 9, 45, 80
5, 42569, Note_on_c, 9, 45, 0
5, 42570, Note_on_c, 9, 45, 80
5, 42599, Note_on_c, 9, 45, 0
5, 42600, Note_on_c, 9, 45, 80
5, 42659, Note_on_c, 9, 45, 0
5, 42660, Note_on_c, 9, 45, 80
5, 42719, Note_on_c, 9, 45, 0
5, 42720, Note_on_c, 9, 50, 80
5, 42749, Note_on_c, 9, 50, 0
5, 42750, Note_on_c, 9, 50, 80
5, 42779, Note_on_c, 9, 50, 0
5, 42780, Note_on_c, 9, 50, 80
5, 42809, Note_on_c, 9, 50, 0
5, 42810, Note_on_c, 9, 50, 80
5, 42839, Note_on_c, 9, 50, 0
5, 42840, Note_on_c, 9, 45, 80
5, 42959, Note_on_c, 9, 45, 0
5, 45000, Note_on_c, 9, 50, 80
5, 45119, Note_on_c, 9, 50, 0
5, 45720, Note_on_c, 9, 45, 80
5, 45839, Note_on_c, 9, 45, 0
5, 46500, Note_on_c, 9, 50, 80
5, 46529, Note_on_c, 9, 50, 0
5, 46530, Note_on_c, 9, 50, 80
5, 46559, Note_on_c, 9, 50, 0
5, 46560, Note_on_c, 9, 50, 80
5, 46589, Note_on_c, 9, 50, 0
5, 46590, Note_on_c, 9, 50, 80
5, 46619, Note_on_c, 9, 50, 0
5, 46620, Note_on_c, 9, 50, 80
5, 46649, Note_on_c, 9, 50, 0
5, 46650, Note_on_c, 9, 50, 80
5, 46679, Note_on_c, 9, 50, 0
5, 46680, Note_on_c, 9, 50, 80
5, 46739, Note_on_c, 9, 50, 0
5, 46860, Note_on_c, 9, 50, 80
5, 46889, Note_on_c, 9, 50, 0
5, 46890, Note_on_c, 9, 50, 80
5, 46919, Note_on_c, 9, 50, 0
5, 46920, Note_on_c, 9, 50, 80
5, 46949, Note_on_c, 9, 50, 0
5, 46950, Note_on_c, 9, 50, 80
5, 46979, Note_on_c, 9, 50, 0
5, 46980, Note_on_c, 9, 50, 80
5, 47009, Note_on_c, 9, 50, 0
5, 47010, Note_on_c, 9, 50, 80
5, 47039, Note_on_c, 9, 50, 0
5, 47040, Note_on_c, 9, 50, 80
5, 47099, Note_on_c, 9, 50, 0
5, 47220, Note_on_c, 9, 50, 80
5, 47249, Note_on_c, 9, 50, 0
5, 47250, Note_on_c, 9, 50, 80
5, 47279, Note_on_c, 9, 50, 0
5, 47280, Note_on_c, 9, 50, 80
5, 47309, Note_on_c, 9, 50, 0
5, 47310, Note_on_c, 9, 50, 80
5, 47339, Note_on_c, 9, 50, 0
5, 47340, Note_on_c, 9, 50, 80
5, 47369, Note_on_c, 9, 50, 0
5, 47370, Note_on_c, 9, 50, 80
5, 47399, Note_on_c, 9, 50, 0
5, 47400, Note_on_c, 9, 50, 80
5, 47459, Note_on_c, 9, 50, 0
5, 47520, Note_on_c, 9, 45, 80
5, 47534, Note_on_c, 9, 45, 0
5, 47535, Note_on_c, 9, 45, 80
5, 47549, Note_on_c, 9, 45, 0
5, 47550, Note_on_c, 9, 45, 80
5, 47564, Note_on_c, 9, 45, 0
5, 47565, Note_on_c, 9, 45, 80
5, 47579, Note_on_c, 9, 45, 0
5, 47580, Note_on_c, 9, 45, 80
5, 47594, Note_on_c, 9, 45, 0
5, 47595, Note_on_c, 9, 45, 80
5, 47609, Note_on_c, 9, 45, 0
5, 47610, Note_on_c, 9, 45, 80
5, 47624, Note_on_c, 9, 45, 0
5, 47625, Note_on_c, 9, 45, 80
5, 47639, Note_on_c, 9, 45, 0
5, 47640, Note_on_c, 9, 45, 80
5, 47654, Note_on_c, 9, 45, 0
5, 47655, Note_on_c, 9, 45, 80
5, 47669, Note_on_c, 9, 45, 0
5, 47670, Note_on_c, 9, 45, 80
5, 47684, Note_on_c, 9, 45, 0
5, 47685, Note_on_c, 9, 45, 80
5, 47699, Note_on_c, 9, 45, 0
5, 47700, Note_on_c, 9, 45, 80
5, 47714, Note_on_c, 9, 45, 0
5, 47715, Note_on_c, 9, 45, 80
5, 47729, Note_on_c, 9, 45, 0
5, 47730, Note_on_c, 9, 45, 80
5, 47744, Note_on_c, 9, 45, 0
5, 47745, Note_on_c, 9, 45, 80
5, 47759, Note_on_c, 9, 45, 0
5, 47760, Note_on_c, 9, 45, 80
5, 47774, Note_on_c, 9, 45, 0
5, 47775, Note_on_c, 9, 45, 80
5, 47789, Note_on_c, 9, 45, 0
5, 47790, Note_on_c, 9, 45, 80
5, 47804, Note_on_c, 9, 45, 0
5, 47805, Note_on_c, 9, 45, 80
5, 47819, Note_on_c, 9, 45, 0
5, 47820, Note_on_c, 9, 45, 80
5, 47834, Note_on_c, 9, 45, 0
5, 47835, Note_on_c, 9, 45, 80
5, 47849, Note_on_c, 9, 45, 0
5, 47850, Note_on_c, 9, 45, 80
5, 47864, Note_on_c, 9, 45, 0
5, 47865, Note_on_c, 9, 45, 80
5, 47879, Note_on_c, 9, 45, 0
5, 47880, Note_on_c, 9, 45, 80
5, 47894, Note_on_c, 9, 45, 0
5, 47895, Note_on_c, 9, 45, 80
5, 47909, Note_on_c, 9, 45, 0
5, 47910, Note_on_c, 9, 45, 80
5, 47924, Note_on_c, 9, 45, 0
5, 47925, Note_on_c, 9, 45, 80
5, 47939, Note_on_c, 9, 45, 0
5, 47940, Note_on_c, 9, 45, 80
5, 47954, Note_on_c, 9, 45, 0
5, 47955, Note_on_c, 9, 45, 80
5, 47969, Note_on_c, 9, 45, 0
5, 47970, Note_on_c, 9, 45, 80
5, 47984, Note_on_c, 9, 45, 0
5, 47985, Note_on_c, 9, 45, 80
5, 47999, Note_on_c, 9, 45, 0
5, 48000, Note_on_c, 9, 45, 80
5, 48014, Note_on_c, 9, 45, 0
5, 48015, Note_on_c, 9, 45, 80
5, 48029, Note_on_c, 9, 45, 0
5, 48030, Note_on_c, 9, 45, 80
5, 48044, Note_on_c, 9, 45, 0
5, 48045, Note_on_c, 9, 45, 80
5, 48059, Note_on_c, 9, 45, 0
5, 48060, Note_on_c, 9, 45, 80
5, 48074, Note_on_c, 9, 45, 0
5, 48075, Note_on_c, 9, 45, 80
5, 48089, Note_on_c, 9, 45, 0
5, 48090, Note_on_c, 9, 45, 80
5, 48104, Note_on_c, 9, 45, 0
5, 48105, Note_on_c, 9, 45, 80
5, 48119, Note_on_c, 9, 45, 0
5, 48120, Note_on_c, 9, 45, 80
5, 48134, Note_on_c, 9, 45, 0
5, 48135, Note_on_c, 9, 45, 80
5, 48149, Note_on_c, 9, 45, 0
5, 48150, Note_on_c, 9, 45, 80
5, 48164, Note_on_c, 9, 45, 0
5, 48165, Note_on_c, 9, 45, 80
5, 48179, Note_on_c, 9, 45, 0
5, 48180, Note_on_c, 9, 45, 80
5, 48194, Note_on_c, 9, 45, 0
5, 48195, Note_on_c, 9, 45, 80
5, 48209, Note_on_c, 9, 45, 0
5, 48210, Note_on_c, 9, 45, 80
5, 48224, Note_on_c, 9, 45, 0
5, 48225, Note_on_c, 9, 45, 80
5, 48239, Note_on_c, 9, 45, 0
5, 48240, Note_on_c, 9, 45, 80
5, 48479, Note_on_c, 9, 45, 0
5, 48660, Note_on_c, 9, 50, 80
5, 48689, Note_on_c, 9, 50, 0
5, 48690, Note_on_c, 9, 50, 80
5, 48719, Note_on_c, 9, 50, 0
5, 48720, Note_on_c, 9, 50, 80
5, 48749, Note_on_c, 9, 50, 0
5, 48750, Note_on_c, 9, 50, 80
5, 48779, Note_on_c, 9, 50, 0
5, 48780, Note_on_c, 9, 50, 80
5, 48809, Note_on_c, 9, 50, 0
5, 48810, Note_on_c, 9, 50, 80
5, 48839, Note_on_c, 9, 50, 0
5, 48840, Note_on_c, 9, 50, 80
5, 48899, Note_on_c, 9, 50, 0
5, 49020, Note_on_c, 9, 50, 80
5, 49049, Note_on_c, 9, 50, 0
5, 49050, Note_on_c, 9, 50, 80
5, 49079, Note_on_c, 9, 50, 0
5, 49080, Note_on_c, 9, 50, 80
5, 49109, Note_on_c, 9, 50, 0
5, 49110, Note_on_c, 9, 50, 80
5, 49139, Note_on_c, 9, 50, 0
5, 49140, Note_on_c, 9, 50, 80
5, 49169, Note_on_c, 9, 50, 0
5, 49170, Note_on_c, 9, 50, 80
5, 49199, Note_on_c, 9, 50, 0
5, 49200, Note_on_c, 9, 50, 80
5, 49259, Note_on_c, 9, 50, 0
5, 49740, Note_on_c, 9, 45, 80
5, 49769, Note_on_c, 9, 45, 0
5, 49770, Note_on_c, 9, 45, 80
5, 49799, Note_on_c, 9, 45, 0
5, 49800, Note_on_c, 9, 50, 80
5, 49829, Note_on_c, 9, 50, 0
5, 49830, Note_on_c, 9, 50, 80
5, 49859, Note_on_c, 9, 50, 0
5, 49860, Note_on_c, 9, 50, 80
5, 49889, Note_on_c, 9, 50, 0
5, 49890, Note_on_c, 9, 50, 80
5, 49919, Note_on_c, 9, 50, 0
5, 49920, Note_on_c, 9, 45, 80
5, 49979, Note_on_c, 9, 45, 0
5, 49980, Note_on_c, 9, 45, 80
5, 50039, Note_on_c, 9, 45, 0
5, 50040, Note_on_c, 9, 50, 80
5, 50159, Note_on_c, 9, 50, 0
5, 50400, Note_on_c, 9, 50, 80
5, 50519, Note_on_c, 9, 50, 0
5, 50760, Note_on_c, 9, 50, 80
5, 50879, Note_on_c, 9, 50, 0
5, 51120, Note_on_c, 9, 50, 80
5, 51239, Note_on_c, 9, 50, 0
5, 51540, Note_on_c, 9, 50, 80
5, 51569, Note_on_c, 9, 50, 0
5, 51570, Note_on_c, 9, 50, 80
5, 51599, Note_on_c, 9, 50, 0
5, 51600, Note_on_c, 9, 50, 80
5, 51629, Note_on_c, 9, 50, 0
5, 51630, Note_on_c, 9, 50, 80
5, 51659, Note_on_c, 9, 50, 0
5, 51660, Note_on_c, 9, 50, 80
5, 51689, Note_on_c, 9, 50, 0
5, 51690, Note_on_c, 9, 50, 80
5, 51719, Note_on_c, 9, 50, 0
5, 51720, Note_on_c, 9, 50, 80
5, 51779, Note_on_c, 9, 50, 0
5, 51840, Note_on_c, 9, 45, 80
5, 51854, Note_on_c, 9, 45, 0
5, 51855, Note_on_c, 9, 45, 80
5, 51869, Note_on_c, 9, 45, 0
5, 51870, Note_on_c, 9, 45, 80
5, 51884, Note_on_c, 9, 45, 0
5, 51885, Note_on_c, 9, 45, 80
5, 51899, Note_on_c, 9, 45, 0
5, 51900, Note_on_c, 9, 45, 80
5, 51914, Note_on_c, 9, 45, 0
5, 51915, Note_on_c, 9, 45, 80
5, 51929, Note_on_c, 9, 45, 0
5, 51930, Note_on_c, 9, 45, 80
5, 51944, Note_on_c, 9, 45, 0
5, 51945, Note_on_c, 9, 45, 80
5, 51959, Note_on_c, 9, 45, 0
5, 51960, Note_on_c, 9, 45, 80
5, 51974, Note_on_c, 9, 45, 0
5, 51975, Note_on_c, 9, 45, 80
5, 51989, Note_on_c, 9, 45, 0
5, 51990, Note_on_c, 9, 45, 80
5, 52004, Note_on_c, 9, 45, 0
5, 52005, Note_on_c, 9, 45, 80
5, 52019, Note_on_c, 9, 45, 0
5, 52020, Note_on_c, 9, 45, 80
5, 52034, Note_on_c, 9, 45, 0
5, 52035, Note_on_c, 9, 45, 80
5, 52049, Note_on_c, 9, 45, 0
5, 52050, Note_on_c, 9, 45, 80
5, 52064, Note_on_c, 9, 45, 0
5, 52065, Note_on_c, 9, 45, 80
5, 52079, Note_on_c, 9, 45, 0
5, 52080, Note_on_c, 9, 45, 80
5, 52094, Note_on_c, 9, 45, 0
5, 52095, Note_on_c, 9, 45, 80
5, 52109, Note_on_c, 9, 45, 0
5, 52110, Note_on_c, 9, 45, 80
5, 52124, Note_on_c, 9, 45, 0
5, 52125, Note_on_c, 9, 45, 80
5, 52139, Note_on_c, 9, 45, 0
5, 52140, Note_on_c, 9, 45, 80
5, 52154, Note_on_c, 9, 45, 0
5, 52155, Note_on_c, 9, 45, 80
5, 52169, Note_on_c, 9, 45, 0
5, 52170, Note_on_c, 9, 45, 80
5, 52184, Note_on_c, 9, 45, 0
5, 52185, Note_on_c, 9, 45, 80
5, 52199, Note_on_c, 9, 45, 0
5, 52200, Note_on_c, 9, 45, 80
5, 52214, Note_on_c, 9, 45, 0
5, 52215, Note_on_c, 9, 45, 80
5, 52229, Note_on_c, 9, 45, 0
5, 52230, Note_on_c, 9, 45, 80
5, 52244, Note_on_c, 9, 45, 0
5, 52245, Note_on_c, 9, 45, 80
5, 52259, Note_on_c, 9, 45, 0
5, 52260, Note_on_c, 9, 45, 80
5, 52274, Note_on_c, 9, 45, 0
5, 52275, Note_on_c, 9, 45, 80
5, 52289, Note_on_c, 9, 45, 0
5, 52290, Note_on_c, 9, 45, 80
5, 52304, Note_on_c, 9, 45, 0
5, 52305, Note_on_c, 9, 45, 80
5, 52319, Note_on_c, 9, 45, 0
5, 52320, Note_on_c, 9, 45, 80
5, 52334, Note_on_c, 9, 45, 0
5, 52335, Note_on_c, 9, 45, 80
5, 52349, Note_on_c, 9, 45, 0
5, 52350, Note_on_c, 9, 45, 80
5, 52364, Note_on_c, 9, 45, 0
5, 52365, Note_on_c, 9, 45, 80
5, 52379, Note_on_c, 9, 45, 0
5, 52380, Note_on_c, 9, 45, 80
5, 52394, Note_on_c, 9, 45, 0
5, 52395, Note_on_c, 9, 45, 80
5, 52409, Note_on_c, 9, 45, 0
5, 52410, Note_on_c, 9, 45, 80
5, 52424, Note_on_c, 9, 45, 0
5, 52425, Note_on_c, 9, 45, 80
5, 52439, Note_on_c, 9, 45, 0
5, 52440, Note_on_c, 9, 45, 80
5, 52454, Note_on_c, 9, 45, 0
5, 52455, Note_on_c, 9, 45, 80
5, 52469, Note_on_c, 9, 45, 0
5, 52470, Note_on_c, 9, 45, 80
5, 52484, Note_on_c, 9, 45, 0
5, 52485, Note_on_c, 9, 45, 80
5, 52499, Note_on_c, 9, 45, 0
5, 52500, Note_on_c, 9, 45, 80
5, 52514, Note_on_c, 9, 45, 0
5, 52515, Note_on_c, 9, 45, 80
5, 52529, Note_on_c, 9, 45, 0
5, 52530, Note_on_c, 9, 45, 80
5, 52544, Note_on_c, 9, 45, 0
5, 52545, Note_on_c, 9, 45, 80
5, 52559, Note_on_c, 9, 45, 0
5, 52560, Note_on_c, 9, 45, 80
5, 52799, Note_on_c, 9, 45, 0
5, 52980, Note_on_c, 9, 50, 80
5, 53009, Note_on_c, 9, 50, 0
5, 53010, Note_on_c, 9, 50, 80
5, 53039, Note_on_c, 9, 50, 0
5, 53040, Note_on_c, 9, 50, 80
5, 53069, Note_on_c, 9, 50, 0
5, 53070, Note_on_c, 9, 50, 80
5, 53099, Note_on_c, 9, 50, 0
5, 53100, Note_on_c, 9, 50, 80
5, 53129, Note_on_c, 9, 50, 0
5, 53130, Note_on_c, 9, 50, 80
5, 53159, Note_on_c, 9, 50, 0
5, 53160, Note_on_c, 9, 50, 80
5, 53219, Note_on_c, 9, 50, 0
5, 53340, Note_on_c, 9, 50, 80
5, 53369, Note_on_c, 9, 50, 0
5, 53370, Note_on_c, 9, 50, 80
5, 53399, Note_on_c, 9, 50, 0
5, 53400, Note_on_c, 9, 50, 80
5, 53429, Note_on_c, 9, 50, 0
5, 53430, Note_on_c, 9, 50, 80
5, 53459, Note_on_c, 9, 50, 0
5, 53460, Note_on_c, 9, 50, 80
5, 53489, Note_on_c, 9, 50, 0
5, 53490, Note_on_c, 9, 50, 80
5, 53519, Note_on_c, 9, 50, 0
5, 53520, Note_on_c, 9, 50, 80
5, 53579, Note_on_c, 9, 50, 0
5, 54060, Note_on_c, 9, 45, 80
5, 54089, Note_on_c, 9, 45, 0
5, 54090, Note_on_c, 9, 45, 80
5, 54119, Note_on_c, 9, 45, 0
5, 54120, Note_on_c, 9, 50, 80
5, 54149, Note_on_c, 9, 50, 0
5, 54150, Note_on_c, 9, 50, 80
5, 54179, Note_on_c, 9, 50, 0
5, 54180, Note_on_c, 9, 50, 80
5, 54209, Note_on_c, 9, 50, 0
5, 54210, Note_on_c, 9, 50, 80
5, 54239, Note_on_c, 9, 50, 0
5, 54240, Note_on_c, 9, 45, 80
5, 54299, Note_on_c, 9, 45, 0
5, 54300, Note_on_c, 9, 45, 80
5, 54359, Note_on_c, 9, 45, 0
5, 54360, Note_on_c, 9, 50, 80
5, 54374, Note_on_c, 9, 50, 0
5, 54375, Note_on_c, 9, 50, 80
5, 54389, Note_on_c, 9, 50, 0
5, 54390, Note_on_c, 9, 50, 80
5, 54404, Note_on_c, 9, 50, 0
5, 54405, Note_on_c, 9, 50, 80
5, 54419, Note_on_c, 9, 50, 0
5, 54420, Note_on_c, 9, 50, 80
5, 54434, Note_on_c, 9, 50, 0
5, 54435, Note_on_c, 9, 50, 80
5, 54449, Note_on_c, 9, 50, 0
5, 54450, Note_on_c, 9, 50, 80
5, 54464, Note_on_c, 9, 50, 0
5, 54465, Note_on_c, 9, 50, 80
5, 54479, Note_on_c, 9, 50, 0
5, 54480, Note_on_c, 9, 50, 80
5, 54494, Note_on_c, 9, 50, 0
5, 54495, Note_on_c, 9, 50, 80
5, 54509, Note_on_c, 9, 50, 0
5, 54510, Note_on_c, 9, 50, 80
5, 54524, Note_on_c, 9, 50, 0
5, 54525, Note_on_c, 9, 50, 80
5, 54539, Note_on_c, 9, 50, 0
5, 54540, Note_on_c, 9, 50, 80
5, 54554, Note_on_c, 9, 50, 0
5, 54555, Note_on_c, 9, 50, 80
5, 54569, Note_on_c, 9, 50, 0
5, 54570, Note_on_c, 9, 50, 80
5, 54584, Note_on_c, 9, 50, 0
5, 54585, Note_on_c, 9, 50, 80
5, 54599, Note_on_c, 9, 50, 0
5, 54600, Note_on_c, 9, 50, 80
5, 54614, Note_on_c, 9, 50, 0
5, 54615, Note_on_c, 9, 50, 80
5, 54629, Note_on_c, 9, 50, 0
5, 54630, Note_on_c, 9, 50, 80
5, 54644, Note_on_c, 9, 50, 0
5, 54645, Note_on_c, 9, 50, 80
5, 54659, Note_on_c, 9, 50, 0
5, 54660, Note_on_c, 9, 50, 80
5, 54674, Note_on_c, 9, 50, 0
5, 54675, Note_on_c, 9, 50, 80
5, 54689, Note_on_c, 9, 50, 0
5, 54690, Note_on_c, 9, 50, 80
5, 54704, Note_on_c, 9, 50, 0
5, 54705, Note_on_c, 9, 50, 80
5, 54719, Note_on_c, 9, 50, 0
5, 54720, Note_on_c, 9, 50, 80
5, 54734, Note_on_c, 9, 50, 0
5, 54735, Note_on_c, 9, 50, 80
5, 54749, Note_on_c, 9, 50, 0
5, 54750, Note_on_c, 9, 50, 80
5, 54764, Note_on_c, 9, 50, 0
5, 54765, Note_on_c, 9, 50, 80
5, 54779, Note_on_c, 9, 50, 0
5, 54780, Note_on_c, 9, 50, 80
5, 54794, Note_on_c, 9, 50, 0
5, 54795, Note_on_c, 9, 50, 80
5, 54809, Note_on_c, 9, 50, 0
5, 54810, Note_on_c, 9, 50, 80
5, 54824, Note_on_c, 9, 50, 0
5, 54825, Note_on_c, 9, 50, 80
5, 54839, Note_on_c, 9, 50, 0
5, 54840, Note_on_c, 9, 50, 80
5, 54854, Note_on_c, 9, 50, 0
5, 54855, Note_on_c, 9, 50, 80
5, 54869, Note_on_c, 9, 50, 0
5, 54870, Note_on_c, 9, 50, 80
5, 54884, Note_on_c, 9, 50, 0
5, 54885, Note_on_c, 9, 50, 80
5, 54899, Note_on_c, 9, 50, 0
5, 54900, Note_on_c, 9, 50, 80
5, 54914, Note_on_c, 9, 50, 0
5, 54915, Note_on_c, 9, 50, 80
5, 54929, Note_on_c, 9, 50, 0
5, 54930, Note_on_c, 9, 50, 80
5, 54944, Note_on_c, 9, 50, 0
5, 54945, Note_on_c, 9, 50, 80
5, 54959, Note_on_c, 9, 50, 0
5, 54960, Note_on_c, 9, 50, 80
5, 54974, Note_on_c, 9, 50, 0
5, 54975, Note_on_c, 9, 50, 80
5, 54989, Note_on_c, 9, 50, 0
5, 54990, Note_on_c, 9, 50, 80
5, 55004, Note_on_c, 9, 50, 0
5, 55005, Note_on_c, 9, 50, 80
5, 55019, Note_on_c, 9, 50, 0
5, 55020, Note_on_c, 9, 50, 80
5, 55034, Note_on_c, 9, 50, 0
5, 55035, Note_on_c, 9, 50, 80
5, 55049, Note_on_c, 9, 50, 0
5, 55050, Note_on_c, 9, 50, 80
5, 55064, Note_on_c, 9, 50, 0
5, 55065, Note_on_c, 9, 50, 80
5, 55079, Note_on_c, 9, 50, 0
5, 55080, Note_on_c, 9, 50, 80
5, 55094, Note_on_c, 9, 50, 0
5, 55095, Note_on_c, 9, 50, 80
5, 55109, Note_on_c, 9, 50, 0
5, 55110, Note_on_c, 9, 50, 80
5, 55124, Note_on_c, 9, 50, 0
5, 55125, Note_on_c, 9, 50, 80
5, 55139, Note_on_c, 9, 50, 0
5, 55140, Note_on_c, 9, 50, 80
5, 55154, Note_on_c, 9, 50, 0
5, 55155, Note_on_c, 9, 50, 80
5, 55169, Note_on_c, 9, 50, 0
5, 55170, Note_on_c, 9, 50, 80
5, 55184, Note_on_c, 9, 50, 0
5, 55185, Note_on_c, 9, 50, 80
5, 55199, Note_on_c, 9, 50, 0
5, 55200, Note_on_c, 9, 50, 80
5, 55214, Note_on_c, 9, 50, 0
5, 55215, Note_on_c, 9, 50, 80
5, 55229, Note_on_c, 9, 50, 0
5, 55230, Note_on_c, 9, 50, 80
5, 55244, Note_on_c, 9, 50, 0
5, 55245, Note_on_c, 9, 50, 80
5, 55259, Note_on_c, 9, 50, 0
5, 55260, Note_on_c, 9, 50, 80
5, 55274, Note_on_c, 9, 50, 0
5, 55275, Note_on_c, 9, 50, 80
5, 55289, Note_on_c, 9, 50, 0
5, 55290, Note_on_c, 9, 50, 80
5, 55304, Note_on_c, 9, 50, 0
5, 55305, Note_on_c, 9, 50, 80
5, 55319, Note_on_c, 9, 50, 0
5, 55320, Note_on_c, 9, 50, 80
5, 55334, Note_on_c, 9, 50, 0
5, 55335, Note_on_c, 9, 50, 80
5, 55349, Note_on_c, 9, 50, 0
5, 55350, Note_on_c, 9, 50, 80
5, 55364, Note_on_c, 9, 50, 0
5, 55365, Note_on_c, 9, 50, 80
5, 55379, Note_on_c, 9, 50, 0
5, 55380, Note_on_c, 9, 50, 80
5, 55394, Note_on_c, 9, 50, 0
5, 55395, Note_on_c, 9, 50, 80
5, 55409, Note_on_c, 9, 50, 0
5, 55410, Note_on_c, 9, 50, 80
5, 55424, Note_on_c, 9, 50, 0
5, 55425, Note_on_c, 9, 50, 80
5, 55439, Note_on_c, 9, 50, 0
5, 55440, Note_on_c, 9, 50, 80
5, 55454, Note_on_c, 9, 50, 0
5, 55455, Note_on_c, 9, 50, 80
5, 55469, Note_on_c, 9, 50, 0
5, 55470, Note_on_c, 9, 50, 80
5, 55484, Note_on_c, 9, 50, 0
5, 55485, Note_on_c, 9, 50, 80
5, 55499, Note_on_c, 9, 50, 0
5, 55500, Note_on_c, 9, 50, 80
5, 55514, Note_on_c, 9, 50, 0
5, 55515, Note_on_c, 9, 50, 80
5, 55529, Note_on_c, 9, 50, 0
5, 55530, Note_on_c, 9, 50, 80
5, 55544, Note_on_c, 9, 50, 0
5, 55545, Note_on_c, 9, 50, 80
5, 55559, Note_on_c, 9, 50, 0
5, 55560, Note_on_c, 9, 50, 80
5, 55574, Note_on_c, 9, 50, 0
5, 55575, Note_on_c, 9, 50, 80
5, 55589, Note_on_c, 9, 50, 0
5, 55590, Note_on_c, 9, 50, 80
5, 55604, Note_on_c, 9, 50, 0
5, 55605, Note_on_c, 9, 50, 80
5, 55619, Note_on_c, 9, 50, 0
5, 55620, Note_on_c, 9, 50, 80
5, 55634, Note_on_c, 9, 50, 0
5, 55635, Note_on_c, 9, 50, 80
5, 55649, Note_on_c, 9, 50, 0
5, 55650, Note_on_c, 9, 50, 80
5, 55664, Note_on_c, 9, 50, 0
5, 55665, Note_on_c, 9, 50, 80
5, 55679, Note_on_c, 9, 50, 0
5, 55680, Note_on_c, 9, 50, 80
5, 55694, Note_on_c, 9, 50, 0
5, 55695, Note_on_c, 9, 50, 80
5, 55709, Note_on_c, 9, 50, 0
5, 55710, Note_on_c, 9, 50, 80
5, 55724, Note_on_c, 9, 50, 0
5, 55725, Note_on_c, 9, 50, 80
5, 55739, Note_on_c, 9, 50, 0
5, 55740, Note_on_c, 9, 50, 80
5, 55754, Note_on_c, 9, 50, 0
5, 55755, Note_on_c, 9, 50, 80
5, 55769, Note_on_c, 9, 50, 0
5, 55770, Note_on_c, 9, 50, 80
5, 55784, Note_on_c, 9, 50, 0
5, 55785, Note_on_c, 9, 50, 80
5, 55799, Note_on_c, 9, 50, 0
5, 55800, Note_on_c, 9, 50, 80
5, 55859, Note_on_c, 9, 50, 0
5, 55860, Note_on_c, 9, 50, 80
5, 55889, Note_on_c, 9, 50, 0
5, 55890, Note_on_c, 9, 50, 80
5, 55919, Note_on_c, 9, 50, 0
5, 55920, Note_on_c, 9, 50, 80
5, 55949, Note_on_c, 9, 50, 0
5, 55950, Note_on_c, 9, 50, 80
5, 55979, Note_on_c, 9, 50, 0
5, 55980, Note_on_c, 9, 50, 80
5, 56009, Note_on_c, 9, 50, 0
5, 56010, Note_on_c, 9, 50, 80
5, 56039, Note_on_c, 9, 50, 0
5, 56040, Note_on_c, 9, 50, 80
5, 56099, Note_on_c, 9, 50, 0
5, 56220, Note_on_c, 9, 50, 80
5, 56249, Note_on_c, 9, 50, 0
5, 56250, Note_on_c, 9, 50, 80
5, 56279, Note_on_c, 9, 50, 0
5, 56280, Note_on_c, 9, 50, 80
5, 56309, Note_on_c, 9, 50, 0
5, 56310, Note_on_c, 9, 50, 80
5, 56339, Note_on_c, 9, 50, 0
5, 56340, Note_on_c, 9, 50, 80
5, 56369, Note_on_c, 9, 50, 0
5, 56370, Note_on_c, 9, 50, 80
5, 56399, Note_on_c, 9, 50, 0
5, 56400, Note_on_c, 9, 50, 80
5, 56459, Note_on_c, 9, 50, 0
5, 56580, Note_on_c, 9, 50, 80
5, 56609, Note_on_c, 9, 50, 0
5, 56610, Note_on_c, 9, 50, 80
5, 56639, Note_on_c, 9, 50, 0
5, 56640, Note_on_c, 9, 50, 80
5, 56669, Note_on_c, 9, 50, 0
5, 56670, Note_on_c, 9, 50, 80
5, 56699, Note_on_c, 9, 50, 0
5, 56700, Note_on_c, 9, 50, 80
5, 56729, Note_on_c, 9, 50, 0
5, 56730, Note_on_c, 9, 50, 80
5, 56759, Note_on_c, 9, 50, 0
5, 56760, Note_on_c, 9, 50, 80
5, 56819, Note_on_c, 9, 50, 0
5, 56940, Note_on_c, 9, 45, 80
5, 56969, Note_on_c, 9, 45, 0
5, 56970, Note_on_c, 9, 45, 80
5, 56999, Note_on_c, 9, 45, 0
5, 57000, Note_on_c, 9, 45, 80
5, 57059, Note_on_c, 9, 45, 0
5, 57060, Note_on_c, 9, 45, 80
5, 57119, Note_on_c, 9, 45, 0
5, 57120, Note_on_c, 9, 50, 80
5, 57149, Note_on_c, 9, 50, 0
5, 57150, Note_on_c, 9, 50, 80
5, 57179, Note_on_c, 9, 50, 0
5, 57180, Note_on_c, 9, 50, 80
5, 57209, Note_on_c, 9, 50, 0
5, 57210, Note_on_c, 9, 50, 80
5, 57239, Note_on_c, 9, 50, 0
5, 57240, Note_on_c, 9, 45, 80
5, 57299, Note_on_c, 9, 45, 0
5, 57300, Note_on_c, 9, 45, 80
5, 57329, Note_on_c, 9, 45, 0
5, 57330, Note_on_c, 9, 45, 80
5, 57359, Note_on_c, 9, 45, 0
5, 57360, Note_on_c, 9, 45, 80
5, 57389, Note_on_c, 9, 45, 0
5, 57390, Note_on_c, 9, 45, 80
5, 57419, Note_on_c, 9, 45, 0
5, 57420, Note_on_c, 9, 45, 80
5, 57449, Note_on_c, 9, 45, 0
5, 57450, Note_on_c, 9, 45, 80
5, 57479, Note_on_c, 9, 45, 0
5, 57480, Note_on_c, 9, 45, 80
5, 57539, Note_on_c, 9, 45, 0
5, 57660, Note_on_c, 9, 45, 80
5, 57689, Note_on_c, 9, 45, 0
5, 57690, Note_on_c, 9, 45, 80
5, 57719, Note_on_c, 9, 45, 0
5, 57720, Note_on_c, 9, 45, 80
5, 57749, Note_on_c, 9, 45, 0
5, 57750, Note_on_c, 9, 45, 80
5, 57779, Note_on_c, 9, 45, 0
5, 57780, Note_on_c, 9, 45, 80
5, 57809, Note_on_c, 9, 45, 0
5, 57810, Note_on_c, 9, 45, 80
5, 57839, Note_on_c, 9, 45, 0
5, 57840, Note_on_c, 9, 45, 80
5, 57899, Note_on_c, 9, 45, 0
5, 58020, Note_on_c, 9, 45, 80
5, 58049, Note_on_c, 9, 45, 0
5, 58050, Note_on_c, 9, 45, 80
5, 58079, Note_on_c, 9, 45, 0
5, 58080, Note_on_c, 9, 45, 80
5, 58109, Note_on_c, 9, 45, 0
5, 58110, Note_on_c, 9, 45, 80
5, 58139, Note_on_c, 9, 45, 0
5, 58140, Note_on_c, 9, 45, 80
5, 58169, Note_on_c, 9, 45, 0
5, 58170, Note_on_c, 9, 45, 80
5, 58199, Note_on_c, 9, 45, 0
5, 58200, Note_on_c, 9, 45, 80
5, 58259, Note_on_c, 9, 45, 0
5, 59460, Note_on_c, 9, 45, 80
5, 59489, Note_on_c, 9, 45, 0
5, 59490, Note_on_c, 9, 45, 80
5, 59519, Note_on_c, 9, 45, 0
5, 59520, Note_on_c, 9, 45, 80
5, 59549, Note_on_c, 9, 45, 0
5, 59550, Note_on_c, 9, 45, 80
5, 59579, Note_on_c, 9, 45, 0
5, 59580, Note_on_c, 9, 45, 80
5, 59609, Note_on_c, 9, 45, 0
5, 59610, Note_on_c, 9, 45, 80
5, 59639, Note_on_c, 9, 45, 0
5, 59640, Note_on_c, 9, 45, 80
5, 59699, Note_on_c, 9, 45, 0
5, 59820, Note_on_c, 9, 45, 80
5, 59849, Note_on_c, 9, 45, 0
5, 59850, Note_on_c, 9, 45, 80
5, 59879, Note_on_c, 9, 45, 0
5, 59880, Note_on_c, 9, 45, 80
5, 59909, Note_on_c, 9, 45, 0
5, 59910, Note_on_c, 9, 45, 80
5, 59939, Note_on_c, 9, 45, 0
5, 59940, Note_on_c, 9, 45, 80
5, 59969, Note_on_c, 9, 45, 0
5, 59970, Note_on_c, 9, 45, 80
5, 59999, Note_on_c, 9, 45, 0
5, 60000, Note_on_c, 9, 45, 80
5, 60059, Note_on_c, 9, 45, 0
5, 60540, Note_on_c, 9, 45, 80
5, 60569, Note_on_c, 9, 45, 0
5, 60570, Note_on_c, 9, 45, 80
5, 60599, Note_on_c, 9, 45, 0
5, 60600, Note_on_c, 9, 45, 80
5, 60659, Note_on_c, 9, 45, 0
5, 60660, Note_on_c, 9, 45, 80
5, 60719, Note_on_c, 9, 45, 0
5, 60840, Note_on_c, 9, 45, 80
5, 60959, Note_on_c, 9, 45, 0
5, 63000, Note_on_c, 9, 50, 80
5, 63119, Note_on_c, 9, 50, 0
5, 63720, Note_on_c, 9, 45, 80
5, 63839, Note_on_c, 9, 45, 0
5, 64500, Note_on_c, 9, 50, 80
5, 64529, Note_on_c, 9, 50, 0
5, 64530, Note_on_c, 9, 50, 80
5, 64559, Note_on_c, 9, 50, 0
5, 64560, Note_on_c, 9, 50, 80
5, 64589, Note_on_c, 9, 50, 0
5, 64590, Note_on_c, 9, 50, 80
5, 64619, Note_on_c, 9, 50, 0
5, 64620, Note_on_c, 9, 50, 80
5, 64649, Note_on_c, 9, 50, 0
5, 64650, Note_on_c, 9, 50, 80
5, 64679, Note_on_c, 9, 50, 0
5, 64680, Note_on_c, 9, 50, 80
5, 64739, Note_on_c, 9, 50, 0
5, 64860, Note_on_c, 9, 50, 80
5, 64889, Note_on_c, 9, 50, 0
5, 64890, Note_on_c, 9, 50, 80
5, 64919, Note_on_c, 9, 50, 0
5, 64920, Note_on_c, 9, 50, 80
5, 64949, Note_on_c, 9, 50, 0
5, 64950, Note_on_c, 9, 50, 80
5, 64979, Note_on_c, 9, 50, 0
5, 64980, Note_on_c, 9, 50, 80
5, 65009, Note_on_c, 9, 50, 0
5, 65010, Note_on_c, 9, 50, 80
5, 65039, Note_on_c, 9, 50, 0
5, 65040, Note_on_c, 9, 50, 80
5, 65099, Note_on_c, 9, 50, 0
5, 65220, Note_on_c, 9, 50, 80
5, 65249, Note_on_c, 9, 50, 0
5, 65250, Note_on_c, 9, 50, 80
5, 65279, Note_on_c, 9, 50, 0
5, 65280, Note_on_c, 9, 50, 80
5, 65309, Note_on_c, 9, 50, 0
5, 65310, Note_on_c, 9, 50, 80
5, 65339, Note_on_c, 9, 50, 0
5, 65340, Note_on_c, 9, 50, 80
5, 65369, Note_on_c, 9, 50, 0
5, 65370, Note_on_c, 9, 50, 80
5, 65399, Note_on_c, 9, 50, 0
5, 65400, Note_on_c, 9, 50, 80
5, 65459, Note_on_c, 9, 50, 0
5, 65520, Note_on_c, 9, 45, 80
5, 65534, Note_on_c, 9, 45, 0
5, 65535, Note_on_c, 9, 45, 80
5, 65549, Note_on_c, 9, 45, 0
5, 65550, Note_on_c, 9, 45, 80
5, 65564, Note_on_c, 9, 45, 0
5, 65565, Note_on_c, 9, 45, 80
5, 65579, Note_on_c, 9, 45, 0
5, 65580, Note_on_c, 9, 45, 80
5, 65594, Note_on_c, 9, 45, 0
5, 65595, Note_on_c, 9, 45, 80
5, 65609, Note_on_c, 9, 45, 0
5, 65610, Note_on_c, 9, 45, 80
5, 65624, Note_on_c, 9, 45, 0
5, 65625, Note_on_c, 9, 45, 80
5, 65639, Note_on_c, 9, 45, 0
5, 65640, Note_on_c, 9, 45, 80
5, 65654, Note_on_c, 9, 45, 0
5, 65655, Note_on_c, 9, 45, 80
5, 65669, Note_on_c, 9, 45, 0
5, 65670, Note_on_c, 9, 45, 80
5, 65684, Note_on_c, 9, 45, 0
5, 65685, Note_on_c, 9, 45, 80
5, 65699, Note_on_c, 9, 45, 0
5, 65700, Note_on_c, 9, 45, 80
5, 65714, Note_on_c, 9, 45, 0
5, 65715, Note_on_c, 9, 45, 80
5, 65729, Note_on_c, 9, 45, 0
5, 65730, Note_on_c, 9, 45, 80
5, 65744, Note_on_c, 9, 45, 0
5, 65745, Note_on_c, 9, 45, 80
5, 65759, Note_on_c, 9, 45, 0
5, 65760, Note_on_c, 9, 45, 80
5, 65774, Note_on_c, 9, 45, 0
5, 65775, Note_on_c, 9, 45, 80
5, 65789, Note_on_c, 9, 45, 0
5, 65790, Note_on_c, 9, 45, 80
5, 65804, Note_on_c, 9, 45, 0
5, 65805, Note_on_c, 9, 45, 80
5, 65819, Note_on_c, 9, 45, 0
5, 65820, Note_on_c, 9, 45, 80
5, 65834, Note_on_c, 9, 45, 0
5, 65835, Note_on_c, 9, 45, 80
5, 65849, Note_on_c, 9, 45, 0
5, 65850, Note_on_c, 9, 45, 80
5, 65864, Note_on_c, 9, 45, 0
5, 65865, Note_on_c, 9, 45, 80
5, 65879, Note_on_c, 9, 45, 0
5, 65880, Note_on_c, 9, 45, 80
5, 65894, Note_on_c, 9, 45, 0
5, 65895, Note_on_c, 9, 45, 80
5, 65909, Note_on_c, 9, 45, 0
5, 65910, Note_on_c, 9, 45, 80
5, 65924, Note_on_c, 9, 45, 0
5, 65925, Note_on_c, 9, 45, 80
5, 65939, Note_on_c, 9, 45, 0
5, 65940, Note_on_c, 9, 45, 80
5, 65954, Note_on_c, 9, 45, 0
5, 65955, Note_on_c, 9, 45, 80
5, 65969, Note_on_c, 9, 45, 0
5, 65970, Note_on_c, 9, 45, 80
5, 65984, Note_on_c, 9, 45, 0
5, 65985, Note_on_c, 9, 45, 80
5, 65999, Note_on_c, 9, 45, 0
5, 66000, Note_on_c, 9, 45, 80
5, 66014, Note_on_c, 9, 45, 0
5, 66015, Note_on_c, 9, 45, 80
5, 66029, Note_on_c, 9, 45, 0
5, 66030, Note_on_c, 9, 45, 80
5, 66044, Note_on_c, 9, 45, 0
5, 66045, Note_on_c, 9, 45, 80
5, 66059, Note_on_c, 9, 45, 0
5, 66060, Note_on_c, 9, 45, 80
5, 66074, Note_on_c, 9, 45, 0
5, 66075, Note_on_c, 9, 45, 80
5, 66089, Note_on_c, 9, 45, 0
5, 66090, Note_on_c, 9, 45, 80
5, 66104, Note_on_c, 9, 45, 0
5, 66105, Note_on_c, 9, 45, 80
5, 66119, Note_on_c, 9, 45, 0
5, 66120, Note_on_c, 9, 45, 80
5, 66134, Note_on_c, 9, 45, 0
5, 66135, Note_on_c, 9, 45, 80
5, 66149, Note_on_c, 9, 45, 0
5, 66150, Note_on_c, 9, 45, 80
5, 66164, Note_on_c, 9, 45, 0
5, 66165, Note_on_c, 9, 45, 80
5, 66179, Note_on_c, 9, 45, 0
5, 66180, Note_on_c, 9, 45, 80
5, 66194, Note_on_c, 9, 45, 0
5, 66195, Note_on_c, 9, 45, 80
5, 66209, Note_on_c, 9, 45, 0
5, 66210, Note_on_c, 9, 45, 80
5, 66224, Note_on_c, 9, 45, 0
5, 66225, Note_on_c, 9, 45, 80
5, 66239, Note_on_c, 9, 45, 0
5, 66240, Note_on_c, 9, 45, 80
5, 66254, Note_on_c, 9, 45, 0
5, 66255, Note_on_c, 9, 45, 80
5, 66269, Note_on_c, 9, 45, 0
5, 66270, Note_on_c, 9, 45, 80
5, 66284, Note_on_c, 9, 45, 0
5, 66285, Note_on_c, 9, 45, 80
5, 66299, Note_on_c, 9, 45, 0
5, 66300, Note_on_c, 9, 45, 80
5, 66314, Note_on_c, 9, 45, 0
5, 66315, Note_on_c, 9, 45, 80
5, 66329, Note_on_c, 9, 45, 0
5, 66330, Note_on_c, 9, 45, 80
5, 66344, Note_on_c, 9, 45, 0
5, 66345, Note_on_c, 9, 45, 80
5, 66359, Note_on_c, 9, 45, 0
5, 66360, Note_on_c, 9, 45, 80
5, 66374, Note_on_c, 9, 45, 0
5, 66375, Note_on_c, 9, 45, 80
5, 66389, Note_on_c, 9, 45, 0
5, 66390, Note_on_c, 9, 45, 80
5, 66404, Note_on_c, 9, 45, 0
5, 66405, Note_on_c, 9, 45, 80
5, 66419, Note_on_c, 9, 45, 0
5, 66420, Note_on_c, 9, 45, 80
5, 66434, Note_on_c, 9, 45, 0
5, 66435, Note_on_c, 9, 45, 80
5, 66449, Note_on_c, 9, 45, 0
5, 66450, Note_on_c, 9, 45, 80
5, 66464, Note_on_c, 9, 45, 0
5, 66465, Note_on_c, 9, 45, 80
5, 66479, Note_on_c, 9, 45, 0
5, 66480, Note_on_c, 9, 45, 80
5, 66494, Note_on_c, 9, 45, 0
5, 66495, Note_on_c, 9, 45, 80
5, 66509, Note_on_c, 9, 45, 0
5, 66510, Note_on_c, 9, 45, 80
5, 66524, Note_on_c, 9, 45, 0
5, 66525, Note_on_c, 9, 45, 80
5, 66539, Note_on_c, 9, 45, 0
5, 66540, Note_on_c, 9, 45, 80
5, 66554, Note_on_c, 9, 45, 0
5, 66555, Note_on_c, 9, 45, 80
5, 66569, Note_on_c, 9, 45, 0
5, 66570, Note_on_c, 9, 45, 80
5, 66584, Note_on_c, 9, 45, 0
5, 66585, Note_on_c, 9, 45, 80
5, 66599, Note_on_c, 9, 45, 0
5, 66600, Note_on_c, 9, 50, 80
5, 66659, Note_on_c, 9, 50, 0
5, 66660, Note_on_c, 9, 50, 80
5, 66689, Note_on_c, 9, 50, 0
5, 66690, Note_on_c, 9, 50, 80
5, 66719, Note_on_c, 9, 50, 0
5, 66720, Note_on_c, 9, 50, 80
5, 66749, Note_on_c, 9, 50, 0
5, 66750, Note_on_c, 9, 50, 80
5, 66779, Note_on_c, 9, 50, 0
5, 66780, Note_on_c, 9, 50, 80
5, 66809, Note_on_c, 9, 50, 0
5, 66810, Note_on_c, 9, 50, 80
5, 66839, Note_on_c, 9, 50, 0
5, 66840, Note_on_c, 9, 50, 80
5, 66899, Note_on_c, 9, 50, 0
5, 67020, Note_on_c, 9, 50, 80
5, 67049, Note_on_c, 9, 50, 0
5, 67050, Note_on_c, 9, 50, 80
5, 67079, Note_on_c, 9, 50, 0
5, 67080, Note_on_c, 9, 50, 80
5, 67109, Note_on_c, 9, 50, 0
5, 67110, Note_on_c, 9, 50, 80
5, 67139, Note_on_c, 9, 50, 0
5, 67140, Note_on_c, 9, 50, 80
5, 67169, Note_on_c, 9, 50, 0
5, 67170, Note_on_c, 9, 50, 80
5, 67199, Note_on_c, 9, 50, 0
5, 67200, Note_on_c, 9, 50, 80
5, 67259, Note_on_c, 9, 50, 0
5, 67740, Note_on_c, 9, 45, 80
5, 67769, Note_on_c, 9, 45, 0
5, 67770, Note_on_c, 9, 45, 80
5, 67799, Note_on_c, 9, 45, 0
5, 67800, Note_on_c, 9, 50, 80
5, 67829, Note_on_c, 9, 50, 0
5, 67830, Note_on_c, 9, 50, 80
5, 67859, Note_on_c, 9, 50, 0
5, 67860, Note_on_c, 9, 50, 80
5, 67889, Note_on_c, 9, 50, 0
5, 67890, Note_on_c, 9, 50, 80
5, 67919, Note_on_c, 9, 50, 0
5, 67920, Note_on_c, 9, 45, 80
5, 67979, Note_on_c, 9, 45, 0
5, 67980, Note_on_c, 9, 45, 80
5, 68039, Note_on_c, 9, 45, 0
5, 68040, Note_on_c, 9, 50, 80
5, 68054, Note_on_c, 9, 50, 0
5, 68055, Note_on_c, 9, 50, 80
5, 68069, Note_on_c, 9, 50, 0
5, 68070, Note_on_c, 9, 50, 80
5, 68084, Note_on_c, 9, 50, 0
5, 68085, Note_on_c, 9, 50, 80
5, 68099, Note_on_c, 9, 50, 0
5, 68100, Note_on_c, 9, 50, 80
5, 68114, Note_on_c, 9, 50, 0
5, 68115, Note_on_c, 9, 50, 80
5, 68129, Note_on_c, 9, 50, 0
5, 68130, Note_on_c, 9, 50, 80
5, 68144, Note_on_c, 9, 50, 0
5, 68145, Note_on_c, 9, 50, 80
5, 68159, Note_on_c, 9, 50, 0
5, 68160, Note_on_c, 9, 50, 80
5, 68174, Note_on_c, 9, 50, 0
5, 68175, Note_on_c, 9, 50, 80
5, 68189, Note_on_c, 9, 50, 0
5, 68190, Note_on_c, 9, 50, 80
5, 68204, Note_on_c, 9, 50, 0
5, 68205, Note_on_c, 9, 50, 80
5, 68219, Note_on_c, 9, 50, 0
5, 68220, Note_on_c, 9, 50, 80
5, 68234, Note_on_c, 9, 50, 0
5, 68235, Note_on_c, 9, 50, 80
5, 68249, Note_on_c, 9, 50, 0
5, 68250, Note_on_c, 9, 50, 80
5, 68264, Note_on_c, 9, 50, 0
5, 68265, Note_on_c, 9, 50, 80
5, 68279, Note_on_c, 9, 50, 0
5, 68280, Note_on_c, 9, 50, 80
5, 68294, Note_on_c, 9, 50, 0
5, 68295, Note_on_c, 9, 50, 80
5, 68309, Note_on_c, 9, 50, 0
5, 68310, Note_on_c, 9, 50, 80
5, 68324, Note_on_c, 9, 50, 0
5, 68325, Note_on_c, 9, 50, 80
5, 68339, Note_on_c, 9, 50, 0
5, 68340, Note_on_c, 9, 50, 80
5, 68354, Note_on_c, 9, 50, 0
5, 68355, Note_on_c, 9, 50, 80
5, 68369, Note_on_c, 9, 50, 0
5, 68370, Note_on_c, 9, 50, 80
5, 68384, Note_on_c, 9, 50, 0
5, 68385, Note_on_c, 9, 50, 80
5, 68399, Note_on_c, 9, 50, 0
5, 68400, Note_on_c, 9, 50, 80
5, 68414, Note_on_c, 9, 50, 0
5, 68415, Note_on_c, 9, 50, 80
5, 68429, Note_on_c, 9, 50, 0
5, 68430, Note_on_c, 9, 50, 80
5, 68444, Note_on_c, 9, 50, 0
5, 68445, Note_on_c, 9, 50, 80
5, 68459, Note_on_c, 9, 50, 0
5, 68460, Note_on_c, 9, 50, 80
5, 68474, Note_on_c, 9, 50, 0
5, 68475, Note_on_c, 9, 50, 80
5, 68489, Note_on_c, 9, 50, 0
5, 68490, Note_on_c, 9, 50, 80
5, 68504, Note_on_c, 9, 50, 0
5, 68505, Note_on_c, 9, 50, 80
5, 68519, Note_on_c, 9, 50, 0
5, 68520, Note_on_c, 9, 50, 80
5, 68534, Note_on_c, 9, 50, 0
5, 68535, Note_on_c, 9, 50, 80
5, 68549, Note_on_c, 9, 50, 0
5, 68550, Note_on_c, 9, 50, 80
5, 68564, Note_on_c, 9, 50, 0
5, 68565, Note_on_c, 9, 50, 80
5, 68579, Note_on_c, 9, 50, 0
5, 68580, Note_on_c, 9, 50, 80
5, 68594, Note_on_c, 9, 50, 0
5, 68595, Note_on_c, 9, 50, 80
5, 68609, Note_on_c, 9, 50, 0
5, 68610, Note_on_c, 9, 50, 80
5, 68624, Note_on_c, 9, 50, 0
5, 68625, Note_on_c, 9, 50, 80
5, 68639, Note_on_c, 9, 50, 0
5, 68640, Note_on_c, 9, 50, 80
5, 68654, Note_on_c, 9, 50, 0
5, 68655, Note_on_c, 9, 50, 80
5, 68669, Note_on_c, 9, 50, 0
5, 68670, Note_on_c, 9, 50, 80
5, 68684, Note_on_c, 9, 50, 0
5, 68685, Note_on_c, 9, 50, 80
5, 68699, Note_on_c, 9, 50, 0
5, 68700, Note_on_c, 9, 50, 80
5, 68714, Note_on_c, 9, 50, 0
5, 68715, Note_on_c, 9, 50, 80
5, 68729, Note_on_c, 9, 50, 0
5, 68730, Note_on_c, 9, 50, 80
5, 68744, Note_on_c, 9, 50, 0
5, 68745, Note_on_c, 9, 50, 80
5, 68759, Note_on_c, 9, 50, 0
5, 68760, Note_on_c, 9, 50, 80
5, 68774, Note_on_c, 9, 50, 0
5, 68775, Note_on_c, 9, 50, 80
5, 68789, Note_on_c, 9, 50, 0
5, 68790, Note_on_c, 9, 50, 80
5, 68804, Note_on_c, 9, 50, 0
5, 68805, Note_on_c, 9, 50, 80
5, 68819, Note_on_c, 9, 50, 0
5, 68820, Note_on_c, 9, 50, 80
5, 68834, Note_on_c, 9, 50, 0
5, 68835, Note_on_c, 9, 50, 80
5, 68849, Note_on_c, 9, 50, 0
5, 68850, Note_on_c, 9, 50, 80
5, 68864, Note_on_c, 9, 50, 0
5, 68865, Note_on_c, 9, 50, 80
5, 68879, Note_on_c, 9, 50, 0
5, 68880, Note_on_c, 9, 50, 80
5, 68894, Note_on_c, 9, 50, 0
5, 68895, Note_on_c, 9, 50, 80
5, 68909, Note_on_c, 9, 50, 0
5, 68910, Note_on_c, 9, 50, 80
5, 68924, Note_on_c, 9, 50, 0
5, 68925, Note_on_c, 9, 50, 80
5, 68939, Note_on_c, 9, 50, 0
5, 68940, Note_on_c, 9, 50, 80
5, 68954, Note_on_c, 9, 50, 0
5, 68955, Note_on_c, 9, 50, 80
5, 68969, Note_on_c, 9, 50, 0
5, 68970, Note_on_c, 9, 50, 80
5, 68984, Note_on_c, 9, 50, 0
5, 68985, Note_on_c, 9, 50, 80
5, 68999, Note_on_c, 9, 50, 0
5, 69000, Note_on_c, 9, 50, 80
5, 69014, Note_on_c, 9, 50, 0
5, 69015, Note_on_c, 9, 50, 80
5, 69029, Note_on_c, 9, 50, 0
5, 69030, Note_on_c, 9, 50, 80
5, 69044, Note_on_c, 9, 50, 0
5, 69045, Note_on_c, 9, 50, 80
5, 69059, Note_on_c, 9, 50, 0
5, 69060, Note_on_c, 9, 50, 80
5, 69074, Note_on_c, 9, 50, 0
5, 69075, Note_on_c, 9, 50, 80
5, 69089, Note_on_c, 9, 50, 0
5, 69090, Note_on_c, 9, 50, 80
5, 69104, Note_on_c, 9, 50, 0
5, 69105, Note_on_c, 9, 50, 80
5, 69119, Note_on_c, 9, 50, 0
5, 69120, Note_on_c, 9, 50, 80
5, 69239, Note_on_c, 9, 50, 0
5, 69540, Note_on_c, 9, 45, 80
5, 69569, Note_on_c, 9, 45, 0
5, 69570, Note_on_c, 9, 45, 80
5, 69599, Note_on_c, 9, 45, 0
5, 69600, Note_on_c, 9, 50, 80
5, 69629, Note_on_c, 9, 50, 0
5, 69630, Note_on_c, 9, 50, 80
5, 69659, Note_on_c, 9, 50, 0
5, 69660, Note_on_c, 9, 50, 80
5, 69689, Note_on_c, 9, 50, 0
5, 69690, Note_on_c, 9, 50, 80
5, 69719, Note_on_c, 9, 50, 0
5, 69720, Note_on_c, 9, 45, 80
5, 69779, Note_on_c, 9, 45, 0
5, 69780, Note_on_c, 9, 45, 80
5, 69839, Note_on_c, 9, 45, 0
5, 69840, Note_on_c, 9, 50, 80
5, 69959, Note_on_c, 9, 50, 0
5, 70560, Note_on_c, 9, 50, 100
5, 70680, Note_on_c, 9, 50, 0
5, 71760, Note_on_c, 9, 50, 100
5, 71880, Note_on_c, 9, 50, 0
5, 73320, Note_on_c, 9, 50, 100
5, 73440, Note_on_c, 9, 50, 0
5, 73440, Note_on_c, 9, 50, 100
5, 73560, Note_on_c, 9, 50, 0
5, 73710, Note_on_c, 9, 45, 100
5, 73740, Note_on_c, 9, 45, 0
5, 73740, Note_on_c, 9, 45, 100
5, 73770, Note_on_c, 9, 45, 0
5, 73770, Note_on_c, 9, 45, 100
5, 73800, Note_on_c, 9, 45, 0
5, 73800, Note_on_c, 9, 45, 90
5, 73859, Note_on_c, 9, 45, 0
5, 74190, Note_on_c, 9, 50, 100
5, 74220, Note_on_c, 9, 50, 0
5, 74220, Note_on_c, 9, 50, 100
5, 74250, Note_on_c, 9, 50, 0
5, 74250, Note_on_c, 9, 50, 100
5, 74280, Note_on_c, 9, 50, 0
5, 74280, Note_on_c, 9, 50, 100
5, 74340, Note_on_c, 9, 50, 0
5, 74910, Note_on_c, 9, 50, 90
5, 74939, Note_on_c, 9, 50, 0
5, 74940, Note_on_c, 9, 50, 90
5, 74969, Note_on_c, 9, 50, 0
5, 74970, Note_on_c, 9, 50, 90
5, 74999, Note_on_c, 9, 50, 0
5, 75000, Note_on_c, 9, 50, 90
5, 75059, Note_on_c, 9, 50, 0
5, 75600, Note_on_c, 9, 45, 90
5, 75719, Note_on_c, 9, 45, 0
5, 76590, Note_on_c, 9, 45, 90
5, 76619, Note_on_c, 9, 45, 0
5, 76620, Note_on_c, 9, 45, 90
5, 76649, Note_on_c, 9, 45, 0
5, 76650, Note_on_c, 9, 45, 90
5, 76679, Note_on_c, 9, 45, 0
5, 76680, Note_on_c, 9, 45, 90
5, 76709, Note_on_c, 9, 45, 0
5, 76710, Note_on_c, 9, 45, 90
5, 76739, Note_on_c, 9, 45, 0
5, 76740, Note_on_c, 9, 45, 90
5, 76769, Note_on_c, 9, 45, 0
5, 76770, Note_on_c, 9, 45, 90
5, 76799, Note_on_c, 9, 45, 0
5, 76800, Note_on_c, 9, 50, 90
5, 76829, Note_on_c, 9, 50, 0
5, 76830, Note_on_c, 9, 50, 90
5, 76859, Note_on_c, 9, 50, 0
5, 76860, Note_on_c, 9, 50, 90
5, 76889, Note_on_c, 9, 50, 0
5, 76890, Note_on_c, 9, 50, 90
5, 76919, Note_on_c, 9, 50, 0
5, 76920, Note_on_c, 9, 50, 90
5, 76949, Note_on_c, 9, 50, 0
5, 76950, Note_on_c, 9, 50, 90
5, 76979, Note_on_c, 9, 50, 0
5, 76980, Note_on_c, 9, 50, 90
5, 77009, Note_on_c, 9, 50, 0
5, 77010, Note_on_c, 9, 50, 90
5, 77039, Note_on_c, 9, 50, 0
5, 77040, Note_on_c, 9, 50, 90
5, 77159, Note_on_c, 9, 50, 0
5, 77790, Note_on_c, 9, 45, 90
5, 77819, Note_on_c, 9, 45, 0
5, 77820, Note_on_c, 9, 45, 90
5, 77849, Note_on_c, 9, 45, 0
5, 77850, Note_on_c, 9, 45, 90
5, 77879, Note_on_c, 9, 45, 0
5, 77880, Note_on_c, 9, 45, 90
5, 77909, Note_on_c, 9, 45, 0
5, 77910, Note_on_c, 9, 45, 90
5, 77939, Note_on_c, 9, 45, 0
5, 77940, Note_on_c, 9, 45, 90
5, 77969, Note_on_c, 9, 45, 0
5, 77970, Note_on_c, 9, 45, 90
5, 77999, Note_on_c, 9, 45, 0
5, 78000, Note_on_c, 9, 50, 90
5, 78060, Note_on_c, 9, 50, 0
5, 78510, Note_on_c, 9, 45, 90
5, 78539, Note_on_c, 9, 45, 0
5, 78540, Note_on_c, 9, 45, 90
5, 78569, Note_on_c, 9, 45, 0
5, 78570, Note_on_c, 9, 45, 90
5, 78599, Note_on_c, 9, 45, 0
5, 78600, Note_on_c, 9, 45, 90
5, 78629, Note_on_c, 9, 45, 0
5, 78630, Note_on_c, 9, 45, 90
5, 78659, Note_on_c, 9, 45, 0
5, 78660, Note_on_c, 9, 45, 90
5, 78689, Note_on_c, 9, 45, 0
5, 78690, Note_on_c, 9, 45, 90
5, 78719, Note_on_c, 9, 45, 0
5, 78720, Note_on_c, 9, 45, 90
5, 78839, Note_on_c, 9, 45, 0
5, 235560, Note_on_c, 9, 50, 100
5, 235620, Note_on_c, 9, 50, 0
5, 235620, Note_on_c, 9, 50, 100
5, 235635, Note_on_c, 9, 50, 0
5, 235635, Note_on_c, 9, 50, 100
5, 235650, Note_on_c, 9, 50, 0
5, 235650, Note_on_c, 9, 50, 100
5, 235665, Note_on_c, 9, 50, 0
5, 235665, Note_on_c, 9, 50, 100
5, 235680, Note_on_c, 9, 50, 0
5, 235680, Note_on_c, 9, 50, 100
5, 235695, Note_on_c, 9, 50, 0
5, 235695, Note_on_c, 9, 50, 100
5, 235710, Note_on_c, 9, 50, 0
5, 235710, Note_on_c, 9, 50, 100
5, 235725, Note_on_c, 9, 50, 0
5, 235725, Note_on_c, 9, 50, 100
5, 235740, Note_on_c, 9, 50, 0
5, 235740, Note_on_c, 9, 50, 100
5, 235755, Note_on_c, 9, 50, 0
5, 235755, Note_on_c, 9, 50, 100
5, 235770, Note_on_c, 9, 50, 0
5, 235770, Note_on_c, 9, 50, 100
5, 235785, Note_on_c, 9, 50, 0
5, 235785, Note_on_c, 9, 50, 100
5, 235800, Note_on_c, 9, 50, 0
5, 235800, Note_on_c, 9, 50, 100
5, 235815, Note_on_c, 9, 50, 0
5, 235815, Note_on_c, 9, 50, 100
5, 235830, Note_on_c, 9, 50, 0
5, 235830, Note_on_c, 9, 50, 100
5, 235845, Note_on_c, 9, 50, 0
5, 235845, Note_on_c, 9, 50, 100
5, 235860, Note_on_c, 9, 50, 0
5, 235860, Note_on_c, 9, 50, 100
5, 235875, Note_on_c, 9, 50, 0
5, 235875, Note_on_c, 9, 50, 100
5, 235890, Note_on_c, 9, 50, 0
5, 235890, Note_on_c, 9, 50, 100
5, 235905, Note_on_c, 9, 50, 0
5, 235905, Note_on_c, 9, 50, 100
5, 235920, Note_on_c, 9, 50, 0
5, 235920, Note_on_c, 9, 50, 100
5, 235935, Note_on_c, 9, 50, 0
5, 235935, Note_on_c, 9, 50, 100
5, 235950, Note_on_c, 9, 50, 0
5, 235950, Note_on_c, 9, 50, 100
5, 235965, Note_on_c, 9, 50, 0
5, 235965, Note_on_c, 9, 50, 100
5, 235980, Note_on_c, 9, 50, 0
5, 235980, Note_on_c, 9, 50, 100
5, 235995, Note_on_c, 9, 50, 0
5, 235995, Note_on_c, 9, 50, 100
5, 236010, Note_on_c, 9, 50, 0
5, 236010, Note_on_c, 9, 50, 100
5, 236025, Note_on_c, 9, 50, 0
5, 236025, Note_on_c, 9, 50, 100
5, 236040, Note_on_c, 9, 50, 0
5, 236040, Note_on_c, 9, 50, 100
5, 236055, Note_on_c, 9, 50, 0
5, 236055, Note_on_c, 9, 50, 100
5, 236070, Note_on_c, 9, 50, 0
5, 236070, Note_on_c, 9, 50, 100
5, 236085, Note_on_c, 9, 50, 0
5, 236085, Note_on_c, 9, 50, 100
5, 236100, Note_on_c, 9, 50, 0
5, 236100, Note_on_c, 9, 50, 100
5, 236115, Note_on_c, 9, 50, 0
5, 236115, Note_on_c, 9, 50, 100
5, 236130, Note_on_c, 9, 50, 0
5, 236130, Note_on_c, 9, 50, 100
5, 236145, Note_on_c, 9, 50, 0
5, 236145, Note_on_c, 9, 50, 100
5, 236160, Note_on_c, 9, 50, 0
5, 236160, Note_on_c, 9, 50, 100
5, 236175, Note_on_c, 9, 50, 0
5, 236175, Note_on_c, 9, 50, 100
5, 236190, Note_on_c, 9, 50, 0
5, 236190, Note_on_c, 9, 50, 100
5, 236205, Note_on_c, 9, 50, 0
5, 236205, Note_on_c, 9, 50, 100
5, 236220, Note_on_c, 9, 50, 0
5, 236220, Note_on_c, 9, 50, 100
5, 236235, Note_on_c, 9, 50, 0
5, 236235, Note_on_c, 9, 50, 100
5, 236250, Note_on_c, 9, 50, 0
5, 236250, Note_on_c, 9, 50, 100
5, 236265, Note_on_c, 9, 50, 0
5, 236265, Note_on_c, 9, 50, 100
5, 236280, Note_on_c, 9, 50, 0
5, 236280, Note_on_c, 9, 50, 100
5, 236295, Note_on_c, 9, 50, 0
5, 236295, Note_on_c, 9, 50, 100
5, 236310, Note_on_c, 9, 50, 0
5, 236310, Note_on_c, 9, 50, 100
5, 236325, Note_on_c, 9, 50, 0
5, 236325, Note_on_c, 9, 50, 100
5, 236340, Note_on_c, 9, 50, 0
5, 236340, Note_on_c, 9, 50, 100
5, 236400, Note_on_c, 9, 50, 0
5, 236400, Note_on_c, 9, 50, 100
5, 236460, Note_on_c, 9, 50, 0
5, 236460, Note_on_c, 9, 50, 100
5, 236520, Note_on_c, 9, 50, 0
5, 236520, Note_on_c, 9, 50, 100
5, 236580, Note_on_c, 9, 50, 0
5, 236580, Note_on_c, 9, 50, 100
5, 236640, Note_on_c, 9, 50, 0
5, 236640, Note_on_c, 9, 50, 100
5, 236700, Note_on_c, 9, 50, 0
5, 236700, Note_on_c, 9, 50, 100
5, 236760, Note_on_c, 9, 50, 0
5, 236760, Note_on_c, 9, 50, 100
5, 236790, Note_on_c, 9, 50, 0
5, 236790, Note_on_c, 9, 50, 100
5, 236820, Note_on_c, 9, 50, 0
5, 236820, Note_on_c, 9, 50, 100
5, 236850, Note_on_c, 9, 50, 0
5, 236850, Note_on_c, 9, 50, 100
5, 236880, Note_on_c, 9, 50, 0
5, 236880, Note_on_c, 9, 45, 100
5, 237000, Note_on_c, 9, 45, 0
5, 238200, Note_on_c, 9, 50, 90
5, 238229, Note_on_c, 9, 50, 0
5, 238230, Note_on_c, 9, 50, 90
5, 238259, Note_on_c, 9, 50, 0
5, 238260, Note_on_c, 9, 50, 90
5, 238289, Note_on_c, 9, 50, 0
5, 238290, Note_on_c, 9, 50, 90
5, 238319, Note_on_c, 9, 50, 0
5, 238320, Note_on_c, 9, 50, 90
5, 238379, Note_on_c, 9, 50, 0
5, 238380, Note_on_c, 9, 50, 90
5, 238409, Note_on_c, 9, 50, 0
5, 238410, Note_on_c, 9, 50, 90
5, 238439, Note_on_c, 9, 50, 0
5, 238440, Note_on_c, 9, 50, 90
5, 238469, Note_on_c, 9, 50, 0
5, 238470, Note_on_c, 9, 50, 90
5, 238499, Note_on_c, 9, 50, 0
5, 238500, Note_on_c, 9, 50, 90
5, 238559, Note_on_c, 9, 50, 0
5, 239640, Note_on_c, 9, 50, 90
5, 239699, Note_on_c, 9, 50, 0
5, 239700, Note_on_c, 9, 50, 90
5, 239759, Note_on_c, 9, 50, 0
5, 239760, Note_on_c, 9, 50, 90
5, 239819, Note_on_c, 9, 50, 0
5, 239820, Note_on_c, 9, 50, 90
5, 239879, Note_on_c, 9, 50, 0
5, 239880, Note_on_c, 9, 50, 90
5, 239939, Note_on_c, 9, 50, 0
5, 239940, Note_on_c, 9, 45, 90
5, 239954, Note_on_c, 9, 45, 0
5, 239955, Note_on_c, 9, 45, 90
5, 239969, Note_on_c, 9, 45, 0
5, 239970, Note_on_c, 9, 45, 90
5, 239984, Note_on_c, 9, 45, 0
5, 239985, Note_on_c, 9, 45, 90
5, 239999, Note_on_c, 9, 45, 0
5, 240000, Note_on_c, 9, 45, 90
5, 240014, Note_on_c, 9, 45, 0
5, 240015, Note_on_c, 9, 45, 90
5, 240029, Note_on_c, 9, 45, 0
5, 240030, Note_on_c, 9, 45, 90
5, 240044, Note_on_c, 9, 45, 0
5, 240045, Note_on_c, 9, 45, 90
5, 240059, Note_on_c, 9, 45, 0
5, 240060, Note_on_c, 9, 45, 90
5, 240074, Note_on_c, 9, 45, 0
5, 240075, Note_on_c, 9, 45, 90
5, 240089, Note_on_c, 9, 45, 0
5, 240090, Note_on_c, 9, 45, 90
5, 240104, Note_on_c, 9, 45, 0
5, 240105, Note_on_c, 9, 45, 90
5, 240119, Note_on_c, 9, 45, 0
5, 240120, Note_on_c, 9, 45, 90
5, 240134, Note_on_c, 9, 45, 0
5, 240135, Note_on_c, 9, 45, 90
5, 240149, Note_on_c, 9, 45, 0
5, 240150, Note_on_c, 9, 45, 90
5, 240164, Note_on_c, 9, 45, 0
5, 240165, Note_on_c, 9, 45, 90
5, 240179, Note_on_c, 9, 45, 0
5, 240180, Note_on_c, 9, 45, 90
5, 240194, Note_on_c, 9, 45, 0
5, 240195, Note_on_c, 9, 45, 90
5, 240209, Note_on_c, 9, 45, 0
5, 240210, Note_on_c, 9, 45, 90
5, 240224, Note_on_c, 9, 45, 0
5, 240225, Note_on_c, 9, 45, 90
5, 240239, Note_on_c, 9, 45, 0
5, 240240, Note_on_c, 9, 45, 90
5, 240254, Note_on_c, 9, 45, 0
5, 240255, Note_on_c, 9, 45, 90
5, 240269, Note_on_c, 9, 45, 0
5, 240270, Note_on_c, 9, 45, 90
5, 240284, Note_on_c, 9, 45, 0
5, 240285, Note_on_c, 9, 45, 90
5, 240299, Note_on_c, 9, 45, 0
5, 240300, Note_on_c, 9, 45, 90
5, 240314, Note_on_c, 9, 45, 0
5, 240315, Note_on_c, 9, 45, 90
5, 240329, Note_on_c, 9, 45, 0
5, 240330, Note_on_c, 9, 45, 90
5, 240344, Note_on_c, 9, 45, 0
5, 240345, Note_on_c, 9, 45, 90
5, 240359, Note_on_c, 9, 45, 0
5, 240360, Note_on_c, 9, 45, 90
5, 240374, Note_on_c, 9, 45, 0
5, 240375, Note_on_c, 9, 45, 90
5, 240389, Note_on_c, 9, 45, 0
5, 240390, Note_on_c, 9, 45, 90
5, 240404, Note_on_c, 9, 45, 0
5, 240405, Note_on_c, 9, 45, 90
5, 240419, Note_on_c, 9, 45, 0
5, 240420, Note_on_c, 9, 45, 90
5, 240434, Note_on_c, 9, 45, 0
5, 240435, Note_on_c, 9, 45, 90
5, 240449, Note_on_c, 9, 45, 0
5, 240450, Note_on_c, 9, 45, 90
5, 240464, Note_on_c, 9, 45, 0
5, 240465, Note_on_c, 9, 45, 90
5, 240479, Note_on_c, 9, 45, 0
5, 240480, Note_on_c, 9, 45, 90
5, 240494, Note_on_c, 9, 45, 0
5, 240495, Note_on_c, 9, 45, 90
5, 240509, Note_on_c, 9, 45, 0
5, 240510, Note_on_c, 9, 45, 90
5, 240524, Note_on_c, 9, 45, 0
5, 240525, Note_on_c, 9, 45, 90
5, 240539, Note_on_c, 9, 45, 0
5, 240540, Note_on_c, 9, 45, 90
5, 240554, Note_on_c, 9, 45, 0
5, 240555, Note_on_c, 9, 45, 90
5, 240569, Note_on_c, 9, 45, 0
5, 240570, Note_on_c, 9, 45, 90
5, 240584, Note_on_c, 9, 45, 0
5, 240585, Note_on_c, 9, 45, 90
5, 240599, Note_on_c, 9, 45, 0
5, 240600, Note_on_c, 9, 45, 90
5, 240614, Note_on_c, 9, 45, 0
5, 240615, Note_on_c, 9, 45, 90
5, 240629, Note_on_c, 9, 45, 0
5, 240630, Note_on_c, 9, 45, 90
5, 240644, Note_on_c, 9, 45, 0
5, 240645, Note_on_c, 9, 45, 90
5, 240659, Note_on_c, 9, 45, 0
5, 240660, Note_on_c, 9, 45, 90
5, 240674, Note_on_c, 9, 45, 0
5, 240675, Note_on_c, 9, 45, 90
5, 240689, Note_on_c, 9, 45, 0
5, 240690, Note_on_c, 9, 45, 90
5, 240704, Note_on_c, 9, 45, 0
5, 240705, Note_on_c, 9, 45, 90
5, 240719, Note_on_c, 9, 45, 0
5, 240720, Note_on_c, 9, 45, 90
5, 240734, Note_on_c, 9, 45, 0
5, 240735, Note_on_c, 9, 45, 90
5, 240749, Note_on_c, 9, 45, 0
5, 240750, Note_on_c, 9, 45, 90
5, 240764, Note_on_c, 9, 45, 0
5, 240765, Note_on_c, 9, 45, 90
5, 240779, Note_on_c, 9, 45, 0
5, 240780, Note_on_c, 9, 45, 90
5, 240794, Note_on_c, 9, 45, 0
5, 240795, Note_on_c, 9, 45, 90
5, 240809, Note_on_c, 9, 45, 0
5, 240810, Note_on_c, 9, 45, 90
5, 240824, Note_on_c, 9, 45, 0
5, 240825, Note_on_c, 9, 45, 90
5, 240839, Note_on_c, 9, 45, 0
5, 240840, Note_on_c, 9, 45, 90
5, 240854, Note_on_c, 9, 45, 0
5, 240855, Note_on_c, 9, 45, 90
5, 240869, Note_on_c, 9, 45, 0
5, 240870, Note_on_c, 9, 45, 90
5, 240884, Note_on_c, 9, 45, 0
5, 240885, Note_on_c, 9, 45, 90
5, 240899, Note_on_c, 9, 45, 0
5, 240900, Note_on_c, 9, 45, 90
5, 240959, Note_on_c, 9, 45, 0
5, 240960, Note_on_c, 9, 50, 90
5, 241019, Note_on_c, 9, 50, 0
5, 241020, Note_on_c, 9, 50, 90
5, 241079, Note_on_c, 9, 50, 0
5, 241080, Note_on_c, 9, 45, 90
5, 241109, Note_on_c, 9, 45, 0
5, 241110, Note_on_c, 9, 45, 90
5, 241139, Note_on_c, 9, 45, 0
5, 241140, Note_on_c, 9, 45, 90
5, 241169, Note_on_c, 9, 45, 0
5, 241170, Note_on_c, 9, 45, 90
5, 241199, Note_on_c, 9, 45, 0
5, 241200, Note_on_c, 9, 50, 90
5, 241319, Note_on_c, 9, 50, 0
5, 242040, Note_on_c, 9, 50, 90
5, 242099, Note_on_c, 9, 50, 0
5, 242100, Note_on_c, 9, 50, 90
5, 242114, Note_on_c, 9, 50, 0
5, 242115, Note_on_c, 9, 50, 90
5, 242129, Note_on_c, 9, 50, 0
5, 242130, Note_on_c, 9, 50, 90
5, 242144, Note_on_c, 9, 50, 0
5, 242145, Note_on_c, 9, 50, 90
5, 242159, Note_on_c, 9, 50, 0
5, 242160, Note_on_c, 9, 50, 90
5, 242174, Note_on_c, 9, 50, 0
5, 242175, Note_on_c, 9, 50, 90
5, 242189, Note_on_c, 9, 50, 0
5, 242190, Note_on_c, 9, 50, 90
5, 242204, Note_on_c, 9, 50, 0
5, 242205, Note_on_c, 9, 50, 90
5, 242219, Note_on_c, 9, 50, 0
5, 242220, Note_on_c, 9, 50, 90
5, 242234, Note_on_c, 9, 50, 0
5, 242235, Note_on_c, 9, 50, 90
5, 242249, Note_on_c, 9, 50, 0
5, 242250, Note_on_c, 9, 50, 90
5, 242264, Note_on_c, 9, 50, 0
5, 242265, Note_on_c, 9, 50, 90
5, 242279, Note_on_c, 9, 50, 0
5, 242280, Note_on_c, 9, 50, 90
5, 242294, Note_on_c, 9, 50, 0
5, 242295, Note_on_c, 9, 50, 90
5, 242309, Note_on_c, 9, 50, 0
5, 242310, Note_on_c, 9, 50, 90
5, 242324, Note_on_c, 9, 50, 0
5, 242325, Note_on_c, 9, 50, 90
5, 242339, Note_on_c, 9, 50, 0
5, 242340, Note_on_c, 9, 50, 90
5, 242354, Note_on_c, 9, 50, 0
5, 242355, Note_on_c, 9, 50, 90
5, 242369, Note_on_c, 9, 50, 0
5, 242370, Note_on_c, 9, 50, 90
5, 242384, Note_on_c, 9, 50, 0
5, 242385, Note_on_c, 9, 50, 90
5, 242399, Note_on_c, 9, 50, 0
5, 242400, Note_on_c, 9, 50, 90
5, 242414, Note_on_c, 9, 50, 0
5, 242415, Note_on_c, 9, 50, 90
5, 242429, Note_on_c, 9, 50, 0
5, 242430, Note_on_c, 9, 50, 90
5, 242444, Note_on_c, 9, 50, 0
5, 242445, Note_on_c, 9, 50, 90
5, 242459, Note_on_c, 9, 50, 0
5, 242460, Note_on_c, 9, 50, 90
5, 242474, Note_on_c, 9, 50, 0
5, 242475, Note_on_c, 9, 50, 90
5, 242489, Note_on_c, 9, 50, 0
5, 242490, Note_on_c, 9, 50, 90
5, 242504, Note_on_c, 9, 50, 0
5, 242505, Note_on_c, 9, 50, 90
5, 242519, Note_on_c, 9, 50, 0
5, 242520, Note_on_c, 9, 50, 90
5, 242534, Note_on_c, 9, 50, 0
5, 242535, Note_on_c, 9, 50, 90
5, 242549, Note_on_c, 9, 50, 0
5, 242550, Note_on_c, 9, 50, 90
5, 242564, Note_on_c, 9, 50, 0
5, 242565, Note_on_c, 9, 50, 90
5, 242579, Note_on_c, 9, 50, 0
5, 242580, Note_on_c, 9, 50, 90
5, 242594, Note_on_c, 9, 50, 0
5, 242595, Note_on_c, 9, 50, 90
5, 242609, Note_on_c, 9, 50, 0
5, 242610, Note_on_c, 9, 50, 90
5, 242624, Note_on_c, 9, 50, 0
5, 242625, Note_on_c, 9, 50, 90
5, 242639, Note_on_c, 9, 50, 0
5, 242640, Note_on_c, 9, 50, 90
5, 242654, Note_on_c, 9, 50, 0
5, 242655, Note_on_c, 9, 50, 90
5, 242669, Note_on_c, 9, 50, 0
5, 242670, Note_on_c, 9, 50, 90
5, 242684, Note_on_c, 9, 50, 0
5, 242685, Note_on_c, 9, 50, 90
5, 242699, Note_on_c, 9, 50, 0
5, 242700, Note_on_c, 9, 50, 90
5, 242714, Note_on_c, 9, 50, 0
5, 242715, Note_on_c, 9, 50, 90
5, 242729, Note_on_c, 9, 50, 0
5, 242730, Note_on_c, 9, 50, 90
5, 242744, Note_on_c, 9, 50, 0
5, 242745, Note_on_c, 9, 50, 90
5, 242759, Note_on_c, 9, 50, 0
5, 242760, Note_on_c, 9, 50, 90
5, 242774, Note_on_c, 9, 50, 0
5, 242775, Note_on_c, 9, 50, 90
5, 242789, Note_on_c, 9, 50, 0
5, 242790, Note_on_c, 9, 50, 90
5, 242804, Note_on_c, 9, 50, 0
5, 242805, Note_on_c, 9, 50, 90
5, 242819, Note_on_c, 9, 50, 0
5, 242820, Note_on_c, 9, 50, 90
5, 242834, Note_on_c, 9, 50, 0
5, 242835, Note_on_c, 9, 50, 90
5, 242849, Note_on_c, 9, 50, 0
5, 242850, Note_on_c, 9, 50, 90
5, 242864, Note_on_c, 9, 50, 0
5, 242865, Note_on_c, 9, 50, 90
5, 242879, Note_on_c, 9, 50, 0
5, 243000, Note_on_c, 9, 45, 90
5, 243059, Note_on_c, 9, 45, 0
5, 244080, Note_on_c, 9, 45, 100
5, 244140, Note_on_c, 9, 45, 0
5, 246240, Note_on_c, 9, 45, 100
5, 246300, Note_on_c, 9, 45, 0
5, 246300, Note_on_c, 9, 45, 100
5, 246360, Note_on_c, 9, 45, 0
5, 246780, Note_on_c, 9, 45, 100
5, 246840, Note_on_c, 9, 45, 0
5, 246840, Note_on_c, 9, 45, 90
5, 246869, Note_on_c, 9, 45, 0
5, 246870, Note_on_c, 9, 45, 90
5, 246899, Note_on_c, 9, 45, 0
5, 246900, Note_on_c, 9, 45, 90
5, 246929, Note_on_c, 9, 45, 0
5, 246930, Note_on_c, 9, 45, 90
5, 246959, Note_on_c, 9, 45, 0
5, 246960, Note_on_c, 9, 45, 90
5, 247019, Note_on_c, 9, 45, 0
5, 247320, Note_on_c, 9, 45, 90
5, 247334, Note_on_c, 9, 45, 0
5, 247335, Note_on_c, 9, 45, 90
5, 247349, Note_on_c, 9, 45, 0
5, 247350, Note_on_c, 9, 45, 90
5, 247364, Note_on_c, 9, 45, 0
5, 247365, Note_on_c, 9, 45, 90
5, 247379, Note_on_c, 9, 45, 0
5, 247380, Note_on_c, 9, 45, 90
5, 247394, Note_on_c, 9, 45, 0
5, 247395, Note_on_c, 9, 45, 90
5, 247409, Note_on_c, 9, 45, 0
5, 247410, Note_on_c, 9, 45, 90
5, 247424, Note_on_c, 9, 45, 0
5, 247425, Note_on_c, 9, 45, 90
5, 247439, Note_on_c, 9, 45, 0
5, 247440, Note_on_c, 9, 45, 90
5, 247454, Note_on_c, 9, 45, 0
5, 247455, Note_on_c, 9, 45, 90
5, 247469, Note_on_c, 9, 45, 0
5, 247470, Note_on_c, 9, 45, 90
5, 247484, Note_on_c, 9, 45, 0
5, 247485, Note_on_c, 9, 45, 90
5, 247499, Note_on_c, 9, 45, 0
5, 247500, Note_on_c, 9, 45, 90
5, 247514, Note_on_c, 9, 45, 0
5, 247515, Note_on_c, 9, 45, 90
5, 247529, Note_on_c, 9, 45, 0
5, 247530, Note_on_c, 9, 45, 90
5, 247544, Note_on_c, 9, 45, 0
5, 247545, Note_on_c, 9, 45, 90
5, 247559, Note_on_c, 9, 45, 0
5, 247560, Note_on_c, 9, 45, 90
5, 247574, Note_on_c, 9, 45, 0
5, 247575, Note_on_c, 9, 45, 90
5, 247589, Note_on_c, 9, 45, 0
5, 247590, Note_on_c, 9, 45, 90
5, 247604, Note_on_c, 9, 45, 0
5, 247605, Note_on_c, 9, 45, 90
5, 247619, Note_on_c, 9, 45, 0
5, 247620, Note_on_c, 9, 45, 90
5, 247634, Note_on_c, 9, 45, 0
5, 247635, Note_on_c, 9, 45, 90
5, 247649, Note_on_c, 9, 45, 0
5, 247650, Note_on_c, 9, 45, 90
5, 247664, Note_on_c, 9, 45, 0
5, 247665, Note_on_c, 9, 45, 90
5, 247679, Note_on_c, 9, 45, 0
5, 247680, Note_on_c, 9, 50, 90
5, 247739, Note_on_c, 9, 50, 0
5, 249480, Note_on_c, 9, 45, 100
5, 249540, Note_on_c, 9, 45, 0
5, 249540, Note_on_c, 9, 50, 100
5, 249600, Note_on_c, 9, 50, 0
5, 249840, Note_on_c, 9, 45, 100
5, 249900, Note_on_c, 9, 45, 0
5, 249900, Note_on_c, 9, 50, 100
5, 249960, Note_on_c, 9, 50, 0
5, 250020, Note_on_c, 9, 45, 100
5, 250140, Note_on_c, 9, 45, 0
5, 255180, Note_on_c, 9, 50, 100
5, 255240, Note_on_c, 9, 50, 0
5, 255240, Note_on_c, 9, 50, 90
5, 255254, Note_on_c, 9, 50, 0
5, 255255, Note_on_c, 9, 50, 90
5, 255269, Note_on_c, 9, 50, 0
5, 255270, Note_on_c, 9, 50, 90
5, 255284, Note_on_c, 9, 50, 0
5, 255285, Note_on_c, 9, 50, 90
5, 255299, Note_on_c, 9, 50, 0
5, 255300, Note_on_c, 9, 50, 90
5, 255314, Note_on_c, 9, 50, 0
5, 255315, Note_on_c, 9, 50, 90
5, 255329, Note_on_c, 9, 50, 0
5, 255330, Note_on_c, 9, 50, 90
5, 255344, Note_on_c, 9, 50, 0
5, 255345, Note_on_c, 9, 50, 90
5, 255359, Note_on_c, 9, 50, 0
5, 255360, Note_on_c, 9, 50, 90
5, 255374, Note_on_c, 9, 50, 0
5, 255375, Note_on_c, 9, 50, 90
5, 255389, Note_on_c, 9, 50, 0
5, 255390, Note_on_c, 9, 50, 90
5, 255404, Note_on_c, 9, 50, 0
5, 255405, Note_on_c, 9, 50, 90
5, 255419, Note_on_c, 9, 50, 0
5, 255420, Note_on_c, 9, 50, 90
5, 255434, Note_on_c, 9, 50, 0
5, 255435, Note_on_c, 9, 50, 90
5, 255449, Note_on_c, 9, 50, 0
5, 255450, Note_on_c, 9, 50, 90
5, 255464, Note_on_c, 9, 50, 0
5, 255465, Note_on_c, 9, 50, 90
5, 255479, Note_on_c, 9, 50, 0
5, 255480, Note_on_c, 9, 50, 90
5, 255494, Note_on_c, 9, 50, 0
5, 255495, Note_on_c, 9, 50, 90
5, 255509, Note_on_c, 9, 50, 0
5, 255510, Note_on_c, 9, 50, 90
5, 255524, Note_on_c, 9, 50, 0
5, 255525, Note_on_c, 9, 50, 90
5, 255539, Note_on_c, 9, 50, 0
5, 255540, Note_on_c, 9, 50, 90
5, 255554, Note_on_c, 9, 50, 0
5, 255555, Note_on_c, 9, 50, 90
5, 255569, Note_on_c, 9, 50, 0
5, 255570, Note_on_c, 9, 50, 90
5, 255584, Note_on_c, 9, 50, 0
5, 255585, Note_on_c, 9, 50, 90
5, 255599, Note_on_c, 9, 50, 0
5, 255600, Note_on_c, 9, 50, 90
5, 255614, Note_on_c, 9, 50, 0
5, 255615, Note_on_c, 9, 50, 90
5, 255629, Note_on_c, 9, 50, 0
5, 255630, Note_on_c, 9, 50, 90
5, 255644, Note_on_c, 9, 50, 0
5, 255645, Note_on_c, 9, 50, 90
5, 255659, Note_on_c, 9, 50, 0
5, 255660, Note_on_c, 9, 50, 90
5, 255674, Note_on_c, 9, 50, 0
5, 255675, Note_on_c, 9, 50, 90
5, 255689, Note_on_c, 9, 50, 0
5, 255690, Note_on_c, 9, 50, 90
5, 255704, Note_on_c, 9, 50, 0
5, 255705, Note_on_c, 9, 50, 90
5, 255719, Note_on_c, 9, 50, 0
5, 255720, Note_on_c, 9, 50, 90
5, 255734, Note_on_c, 9, 50, 0
5, 255735, Note_on_c, 9, 50, 90
5, 255749, Note_on_c, 9, 50, 0
5, 255750, Note_on_c, 9, 50, 90
5, 255764, Note_on_c, 9, 50, 0
5, 255765, Note_on_c, 9, 50, 90
5, 255779, Note_on_c, 9, 50, 0
5, 255780, Note_on_c, 9, 50, 90
5, 255794, Note_on_c, 9, 50, 0
5, 255795, Note_on_c, 9, 50, 90
5, 255809, Note_on_c, 9, 50, 0
5, 255810, Note_on_c, 9, 50, 90
5, 255824, Note_on_c, 9, 50, 0
5, 255825, Note_on_c, 9, 50, 90
5, 255839, Note_on_c, 9, 50, 0
5, 255840, Note_on_c, 9, 50, 90
5, 255854, Note_on_c, 9, 50, 0
5, 255855, Note_on_c, 9, 50, 90
5, 255869, Note_on_c, 9, 50, 0
5, 255870, Note_on_c, 9, 50, 90
5, 255884, Note_on_c, 9, 50, 0
5, 255885, Note_on_c, 9, 50, 90
5, 255899, Note_on_c, 9, 50, 0
5, 255900, Note_on_c, 9, 50, 90
5, 255914, Note_on_c, 9, 50, 0
5, 255915, Note_on_c, 9, 50, 90
5, 255929, Note_on_c, 9, 50, 0
5, 255930, Note_on_c, 9, 50, 90
5, 255944, Note_on_c, 9, 50, 0
5, 255945, Note_on_c, 9, 50, 90
5, 255959, Note_on_c, 9, 50, 0
5, 255960, Note_on_c, 9, 50, 90
5, 256020, Note_on_c, 9, 50, 0
5, 256680, Note_on_c, 9, 45, 90
5, 256694, Note_on_c, 9, 45, 0
5, 256695, Note_on_c, 9, 45, 90
5, 256709, Note_on_c, 9, 45, 0
5, 256710, Note_on_c, 9, 45, 90
5, 256724, Note_on_c, 9, 45, 0
5, 256725, Note_on_c, 9, 45, 90
5, 256739, Note_on_c, 9, 45, 0
5, 256740, Note_on_c, 9, 45, 90
5, 256754, Note_on_c, 9, 45, 0
5, 256755, Note_on_c, 9, 45, 90
5, 256769, Note_on_c, 9, 45, 0
5, 256770, Note_on_c, 9, 45, 90
5, 256784, Note_on_c, 9, 45, 0
5, 256785, Note_on_c, 9, 45, 90
5, 256799, Note_on_c, 9, 45, 0
5, 256800, Note_on_c, 9, 45, 90
5, 256814, Note_on_c, 9, 45, 0
5, 256815, Note_on_c, 9, 45, 90
5, 256829, Note_on_c, 9, 45, 0
5, 256830, Note_on_c, 9, 45, 90
5, 256844, Note_on_c, 9, 45, 0
5, 256845, Note_on_c, 9, 45, 90
5, 256859, Note_on_c, 9, 45, 0
5, 256860, Note_on_c, 9, 45, 90
5, 256874, Note_on_c, 9, 45, 0
5, 256875, Note_on_c, 9, 45, 90
5, 256889, Note_on_c, 9, 45, 0
5, 256890, Note_on_c, 9, 45, 90
5, 256904, Note_on_c, 9, 45, 0
5, 256905, Note_on_c, 9, 45, 90
5, 256919, Note_on_c, 9, 45, 0
5, 256920, Note_on_c, 9, 45, 90
5, 256934, Note_on_c, 9, 45, 0
5, 256935, Note_on_c, 9, 45, 90
5, 256949, Note_on_c, 9, 45, 0
5, 256950, Note_on_c, 9, 45, 90
5, 256964, Note_on_c, 9, 45, 0
5, 256965, Note_on_c, 9, 45, 90
5, 256979, Note_on_c, 9, 45, 0
5, 256980, Note_on_c, 9, 45, 90
5, 256994, Note_on_c, 9, 45, 0
5, 256995, Note_on_c, 9, 45, 90
5, 257009, Note_on_c, 9, 45, 0
5, 257010, Note_on_c, 9, 45, 90
5, 257024, Note_on_c, 9, 45, 0
5, 257025, Note_on_c, 9, 45, 90
5, 257039, Note_on_c, 9, 45, 0
5, 257040, Note_on_c, 9, 45, 90
5, 257054, Note_on_c, 9, 45, 0
5, 257055, Note_on_c, 9, 45, 90
5, 257069, Note_on_c, 9, 45, 0
5, 257070, Note_on_c, 9, 45, 90
5, 257084, Note_on_c, 9, 45, 0
5, 257085, Note_on_c, 9, 45, 90
5, 257099, Note_on_c, 9, 45, 0
5, 257100, Note_on_c, 9, 45, 90
5, 257114, Note_on_c, 9, 45, 0
5, 257115, Note_on_c, 9, 45, 90
5, 257129, Note_on_c, 9, 45, 0
5, 257130, Note_on_c, 9, 45, 90
5, 257144, Note_on_c, 9, 45, 0
5, 257145, Note_on_c, 9, 45, 90
5, 257159, Note_on_c, 9, 45, 0
5, 257160, Note_on_c, 9, 45, 90
5, 257174, Note_on_c, 9, 45, 0
5, 257175, Note_on_c, 9, 45, 90
5, 257189, Note_on_c, 9, 45, 0
5, 257190, Note_on_c, 9, 45, 90
5, 257204, Note_on_c, 9, 45, 0
5, 257205, Note_on_c, 9, 45, 90
5, 257219, Note_on_c, 9, 45, 0
5, 257220, Note_on_c, 9, 45, 90
5, 257234, Note_on_c, 9, 45, 0
5, 257235, Note_on_c, 9, 45, 90
5, 257249, Note_on_c, 9, 45, 0
5, 257250, Note_on_c, 9, 45, 90
5, 257264, Note_on_c, 9, 45, 0
5, 257265, Note_on_c, 9, 45, 90
5, 257279, Note_on_c, 9, 45, 0
5, 257280, Note_on_c, 9, 45, 90
5, 257294, Note_on_c, 9, 45, 0
5, 257295, Note_on_c, 9, 45, 90
5, 257309, Note_on_c, 9, 45, 0
5, 257310, Note_on_c, 9, 45, 90
5, 257324, Note_on_c, 9, 45, 0
5, 257325, Note_on_c, 9, 45, 90
5, 257339, Note_on_c, 9, 45, 0
5, 257340, Note_on_c, 9, 45, 90
5, 257354, Note_on_c, 9, 45, 0
5, 257355, Note_on_c, 9, 45, 90
5, 257369, Note_on_c, 9, 45, 0
5, 257370, Note_on_c, 9, 45, 90
5, 257384, Note_on_c, 9, 45, 0
5, 257385, Note_on_c, 9, 45, 90
5, 257399, Note_on_c, 9, 45, 0
5, 257400, Note_on_c, 9, 45, 90
5, 257414, Note_on_c, 9, 45, 0
5, 257415, Note_on_c, 9, 45, 90
5, 257429, Note_on_c, 9, 45, 0
5, 257430, Note_on_c, 9, 45, 90
5, 257444, Note_on_c, 9, 45, 0
5, 257445, Note_on_c, 9, 45, 90
5, 257459, Note_on_c, 9, 45, 0
5, 257460, Note_on_c, 9, 45, 90
5, 257474, Note_on_c, 9, 45, 0
5, 257475, Note_on_c, 9, 45, 90
5, 257489, Note_on_c, 9, 45, 0
5, 257490, Note_on_c, 9, 45, 90
5, 257504, Note_on_c, 9, 45, 0
5, 257505, Note_on_c, 9, 45, 90
5, 257519, Note_on_c, 9, 45, 0
5, 257520, Note_on_c, 9, 45, 90
5, 257534, Note_on_c, 9, 45, 0
5, 257535, Note_on_c, 9, 45, 90
5, 257549, Note_on_c, 9, 45, 0
5, 257550, Note_on_c, 9, 45, 90
5, 257564, Note_on_c, 9, 45, 0
5, 257565, Note_on_c, 9, 45, 90
5, 257579, Note_on_c, 9, 45, 0
5, 257580, Note_on_c, 9, 45, 90
5, 257594, Note_on_c, 9, 45, 0
5, 257595, Note_on_c, 9, 45, 90
5, 257609, Note_on_c, 9, 45, 0
5, 257610, Note_on_c, 9, 45, 90
5, 257624, Note_on_c, 9, 45, 0
5, 257625, Note_on_c, 9, 45, 90
5, 257639, Note_on_c, 9, 45, 0
5, 257640, Note_on_c, 9, 45, 90
5, 257699, Note_on_c, 9, 45, 0
5, 257700, Note_on_c, 9, 50, 90
5, 257759, Note_on_c, 9, 50, 0
5, 257760, Note_on_c, 9, 50, 90
5, 257819, Note_on_c, 9, 50, 0
5, 257820, Note_on_c, 9, 45, 90
5, 257849, Note_on_c, 9, 45, 0
5, 257850, Note_on_c, 9, 45, 90
5, 257879, Note_on_c, 9, 45, 0
5, 257880, Note_on_c, 9, 45, 90
5, 257909, Note_on_c, 9, 45, 0
5, 257910, Note_on_c, 9, 45, 90
5, 257939, Note_on_c, 9, 45, 0
5, 257940, Note_on_c, 9, 50, 90
5, 257999, Note_on_c, 9, 50, 0
5, 258120, Note_on_c, 9, 45, 90
5, 258179, Note_on_c, 9, 45, 0
5, 258300, Note_on_c, 9, 50, 90
5, 258359, Note_on_c, 9, 50, 0
5, 259380, Note_on_c, 9, 45, 90
5, 259440, Note_on_c, 9, 45, 0
5, 260700, Note_on_c, 9, 50, 90
5, 260730, Note_on_c, 9, 50, 0
5, 260730, Note_on_c, 9, 50, 90
5, 260760, Note_on_c, 9, 50, 0
5, 260760, Note_on_c, 9, 50, 90
5, 260790, Note_on_c, 9, 50, 0
5, 260790, Note_on_c, 9, 50, 90
5, 260820, Note_on_c, 9, 50, 0
5, 260820, Note_on_c, 9, 50, 90
5, 260880, Note_on_c, 9, 50, 0
5, 262140, Note_on_c, 9, 50, 90
5, 262169, Note_on_c, 9, 50, 0
5, 262170, Note_on_c, 9, 50, 90
5, 262199, Note_on_c, 9, 50, 0
5, 262200, Note_on_c, 9, 50, 90
5, 262229, Note_on_c, 9, 50, 0
5, 262230, Note_on_c, 9, 50, 90
5, 262259, Note_on_c, 9, 50, 0
5, 262260, Note_on_c, 9, 50, 90
5, 262319, Note_on_c, 9, 50, 0
5, 262320, Note_on_c, 9, 50, 90
5, 262379, Note_on_c, 9, 50, 0
5, 262380, Note_on_c, 9, 50, 90
5, 262439, Note_on_c, 9, 50, 0
5, 262440, Note_on_c, 9, 45, 90
5, 262454, Note_on_c, 9, 45, 0
5, 262455, Note_on_c, 9, 45, 90
5, 262469, Note_on_c, 9, 45, 0
5, 262470, Note_on_c, 9, 45, 90
5, 262484, Note_on_c, 9, 45, 0
5, 262485, Note_on_c, 9, 45, 90
5, 262499, Note_on_c, 9, 45, 0
5, 262500, Note_on_c, 9, 45, 90
5, 262514, Note_on_c, 9, 45, 0
5, 262515, Note_on_c, 9, 45, 90
5, 262529, Note_on_c, 9, 45, 0
5, 262530, Note_on_c, 9, 45, 90
5, 262544, Note_on_c, 9, 45, 0
5, 262545, Note_on_c, 9, 45, 90
5, 262559, Note_on_c, 9, 45, 0
5, 262560, Note_on_c, 9, 45, 90
5, 262574, Note_on_c, 9, 45, 0
5, 262575, Note_on_c, 9, 45, 90
5, 262589, Note_on_c, 9, 45, 0
5, 262590, Note_on_c, 9, 45, 90
5, 262604, Note_on_c, 9, 45, 0
5, 262605, Note_on_c, 9, 45, 90
5, 262619, Note_on_c, 9, 45, 0
5, 262620, Note_on_c, 9, 45, 90
5, 262634, Note_on_c, 9, 45, 0
5, 262635, Note_on_c, 9, 45, 90
5, 262649, Note_on_c, 9, 45, 0
5, 262650, Note_on_c, 9, 45, 90
5, 262664, Note_on_c, 9, 45, 0
5, 262665, Note_on_c, 9, 45, 90
5, 262679, Note_on_c, 9, 45, 0
5, 262680, Note_on_c, 9, 45, 90
5, 262694, Note_on_c, 9, 45, 0
5, 262695, Note_on_c, 9, 45, 90
5, 262709, Note_on_c, 9, 45, 0
5, 262710, Note_on_c, 9, 45, 90
5, 262724, Note_on_c, 9, 45, 0
5, 262725, Note_on_c, 9, 45, 90
5, 262739, Note_on_c, 9, 45, 0
5, 262740, Note_on_c, 9, 45, 90
5, 262754, Note_on_c, 9, 45, 0
5, 262755, Note_on_c, 9, 45, 90
5, 262769, Note_on_c, 9, 45, 0
5, 262770, Note_on_c, 9, 45, 90
5, 262784, Note_on_c, 9, 45, 0
5, 262785, Note_on_c, 9, 45, 90
5, 262799, Note_on_c, 9, 45, 0
5, 262800, Note_on_c, 9, 45, 90
5, 262814, Note_on_c, 9, 45, 0
5, 262815, Note_on_c, 9, 45, 90
5, 262829, Note_on_c, 9, 45, 0
5, 262830, Note_on_c, 9, 45, 90
5, 262844, Note_on_c, 9, 45, 0
5, 262845, Note_on_c, 9, 45, 90
5, 262859, Note_on_c, 9, 45, 0
5, 262860, Note_on_c, 9, 45, 90
5, 262874, Note_on_c, 9, 45, 0
5, 262875, Note_on_c, 9, 45, 90
5, 262889, Note_on_c, 9, 45, 0
5, 262890, Note_on_c, 9, 45, 90
5, 262904, Note_on_c, 9, 45, 0
5, 262905, Note_on_c, 9, 45, 90
5, 262919, Note_on_c, 9, 45, 0
5, 262920, Note_on_c, 9, 45, 90
5, 262934, Note_on_c, 9, 45, 0
5, 262935, Note_on_c, 9, 45, 90
5, 262949, Note_on_c, 9, 45, 0
5, 262950, Note_on_c, 9, 45, 90
5, 262964, Note_on_c, 9, 45, 0
5, 262965, Note_on_c, 9, 45, 90
5, 262979, Note_on_c, 9, 45, 0
5, 262980, Note_on_c, 9, 45, 90
5, 262994, Note_on_c, 9, 45, 0
5, 262995, Note_on_c, 9, 45, 90
5, 263009, Note_on_c, 9, 45, 0
5, 263010, Note_on_c, 9, 45, 90
5, 263024, Note_on_c, 9, 45, 0
5, 263025, Note_on_c, 9, 45, 90
5, 263039, Note_on_c, 9, 45, 0
5, 263040, Note_on_c, 9, 45, 90
5, 263054, Note_on_c, 9, 45, 0
5, 263055, Note_on_c, 9, 45, 90
5, 263069, Note_on_c, 9, 45, 0
5, 263070, Note_on_c, 9, 45, 90
5, 263084, Note_on_c, 9, 45, 0
5, 263085, Note_on_c, 9, 45, 90
5, 263099, Note_on_c, 9, 45, 0
5, 263100, Note_on_c, 9, 45, 90
5, 263114, Note_on_c, 9, 45, 0
5, 263115, Note_on_c, 9, 45, 90
5, 263129, Note_on_c, 9, 45, 0
5, 263130, Note_on_c, 9, 45, 90
5, 263144, Note_on_c, 9, 45, 0
5, 263145, Note_on_c, 9, 45, 90
5, 263159, Note_on_c, 9, 45, 0
5, 263160, Note_on_c, 9, 45, 90
5, 263174, Note_on_c, 9, 45, 0
5, 263175, Note_on_c, 9, 45, 90
5, 263189, Note_on_c, 9, 45, 0
5, 263190, Note_on_c, 9, 45, 90
5, 263204, Note_on_c, 9, 45, 0
5, 263205, Note_on_c, 9, 45, 90
5, 263219, Note_on_c, 9, 45, 0
5, 263220, Note_on_c, 9, 45, 90
5, 263234, Note_on_c, 9, 45, 0
5, 263235, Note_on_c, 9, 45, 90
5, 263249, Note_on_c, 9, 45, 0
5, 263250, Note_on_c, 9, 45, 90
5, 263264, Note_on_c, 9, 45, 0
5, 263265, Note_on_c, 9, 45, 90
5, 263279, Note_on_c, 9, 45, 0
5, 263280, Note_on_c, 9, 45, 90
5, 263294, Note_on_c, 9, 45, 0
5, 263295, Note_on_c, 9, 45, 90
5, 263309, Note_on_c, 9, 45, 0
5, 263310, Note_on_c, 9, 45, 90
5, 263324, Note_on_c, 9, 45, 0
5, 263325, Note_on_c, 9, 45, 90
5, 263339, Note_on_c, 9, 45, 0
5, 263340, Note_on_c, 9, 45, 90
5, 263399, Note_on_c, 9, 45, 0
5, 263400, Note_on_c, 9, 45, 90
5, 263459, Note_on_c, 9, 45, 0
5, 263460, Note_on_c, 9, 50, 90
5, 263519, Note_on_c, 9, 50, 0
5, 263520, Note_on_c, 9, 50, 90
5, 263579, Note_on_c, 9, 50, 0
5, 263580, Note_on_c, 9, 45, 90
5, 263609, Note_on_c, 9, 45, 0
5, 263610, Note_on_c, 9, 45, 90
5, 263639, Note_on_c, 9, 45, 0
5, 263640, Note_on_c, 9, 45, 90
5, 263669, Note_on_c, 9, 45, 0
5, 263670, Note_on_c, 9, 45, 90
5, 263699, Note_on_c, 9, 45, 0
5, 263700, Note_on_c, 9, 50, 90
5, 263759, Note_on_c, 9, 50, 0
5, 265980, Note_on_c, 9, 50, 100
5, 266040, Note_on_c, 9, 50, 0
5, 266040, Note_on_c, 9, 50, 100
5, 266055, Note_on_c, 9, 50, 0
5, 266055, Note_on_c, 9, 50, 100
5, 266070, Note_on_c, 9, 50, 0
5, 266070, Note_on_c, 9, 50, 100
5, 266085, Note_on_c, 9, 50, 0
5, 266085, Note_on_c, 9, 50, 100
5, 266100, Note_on_c, 9, 50, 0
5, 266100, Note_on_c, 9, 50, 100
5, 266115, Note_on_c, 9, 50, 0
5, 266115, Note_on_c, 9, 50, 100
5, 266130, Note_on_c, 9, 50, 0
5, 266130, Note_on_c, 9, 50, 100
5, 266145, Note_on_c, 9, 50, 0
5, 266145, Note_on_c, 9, 50, 100
5, 266160, Note_on_c, 9, 50, 0
5, 266160, Note_on_c, 9, 50, 100
5, 266175, Note_on_c, 9, 50, 0
5, 266175, Note_on_c, 9, 50, 100
5, 266190, Note_on_c, 9, 50, 0
5, 266190, Note_on_c, 9, 50, 100
5, 266205, Note_on_c, 9, 50, 0
5, 266205, Note_on_c, 9, 50, 100
5, 266220, Note_on_c, 9, 50, 0
5, 266220, Note_on_c, 9, 50, 100
5, 266235, Note_on_c, 9, 50, 0
5, 266235, Note_on_c, 9, 50, 100
5, 266250, Note_on_c, 9, 50, 0
5, 266250, Note_on_c, 9, 50, 100
5, 266265, Note_on_c, 9, 50, 0
5, 266265, Note_on_c, 9, 50, 100
5, 266280, Note_on_c, 9, 50, 0
5, 266280, Note_on_c, 9, 50, 100
5, 266295, Note_on_c, 9, 50, 0
5, 266295, Note_on_c, 9, 50, 100
5, 266310, Note_on_c, 9, 50, 0
5, 266310, Note_on_c, 9, 50, 100
5, 266325, Note_on_c, 9, 50, 0
5, 266325, Note_on_c, 9, 50, 100
5, 266340, Note_on_c, 9, 50, 0
5, 266340, Note_on_c, 9, 50, 100
5, 266355, Note_on_c, 9, 50, 0
5, 266355, Note_on_c, 9, 50, 100
5, 266370, Note_on_c, 9, 50, 0
5, 266370, Note_on_c, 9, 50, 100
5, 266385, Note_on_c, 9, 50, 0
5, 266385, Note_on_c, 9, 50, 100
5, 266400, Note_on_c, 9, 50, 0
5, 266400, Note_on_c, 9, 50, 100
5, 266415, Note_on_c, 9, 50, 0
5, 266415, Note_on_c, 9, 50, 100
5, 266430, Note_on_c, 9, 50, 0
5, 266430, Note_on_c, 9, 50, 100
5, 266445, Note_on_c, 9, 50, 0
5, 266445, Note_on_c, 9, 50, 100
5, 266460, Note_on_c, 9, 50, 0
5, 266460, Note_on_c, 9, 50, 100
5, 266475, Note_on_c, 9, 50, 0
5, 266475, Note_on_c, 9, 50, 100
5, 266490, Note_on_c, 9, 50, 0
5, 266490, Note_on_c, 9, 50, 100
5, 266505, Note_on_c, 9, 50, 0
5, 266505, Note_on_c, 9, 50, 100
5, 266520, Note_on_c, 9, 50, 0
5, 266520, Note_on_c, 9, 50, 100
5, 266535, Note_on_c, 9, 50, 0
5, 266535, Note_on_c, 9, 50, 100
5, 266550, Note_on_c, 9, 50, 0
5, 266550, Note_on_c, 9, 50, 100
5, 266565, Note_on_c, 9, 50, 0
5, 266565, Note_on_c, 9, 50, 100
5, 266580, Note_on_c, 9, 50, 0
5, 266580, Note_on_c, 9, 50, 100
5, 266595, Note_on_c, 9, 50, 0
5, 266595, Note_on_c, 9, 50, 100
5, 266610, Note_on_c, 9, 50, 0
5, 266610, Note_on_c, 9, 50, 100
5, 266625, Note_on_c, 9, 50, 0
5, 266625, Note_on_c, 9, 50, 100
5, 266640, Note_on_c, 9, 50, 0
5, 266640, Note_on_c, 9, 50, 100
5, 266655, Note_on_c, 9, 50, 0
5, 266655, Note_on_c, 9, 50, 100
5, 266670, Note_on_c, 9, 50, 0
5, 266670, Note_on_c, 9, 50, 100
5, 266685, Note_on_c, 9, 50, 0
5, 266685, Note_on_c, 9, 50, 100
5, 266700, Note_on_c, 9, 50, 0
5, 266700, Note_on_c, 9, 50, 100
5, 266715, Note_on_c, 9, 50, 0
5, 266715, Note_on_c, 9, 50, 100
5, 266730, Note_on_c, 9, 50, 0
5, 266730, Note_on_c, 9, 50, 100
5, 266745, Note_on_c, 9, 50, 0
5, 266745, Note_on_c, 9, 50, 100
5, 266760, Note_on_c, 9, 50, 0
5, 266760, Note_on_c, 9, 50, 100
5, 266820, Note_on_c, 9, 50, 0
5, 266820, Note_on_c, 9, 50, 100
5, 266880, Note_on_c, 9, 50, 0
5, 266880, Note_on_c, 9, 50, 100
5, 266940, Note_on_c, 9, 50, 0
5, 266940, Note_on_c, 9, 50, 100
5, 267000, Note_on_c, 9, 50, 0
5, 267000, Note_on_c, 9, 50, 100
5, 267060, Note_on_c, 9, 50, 0
5, 267060, Note_on_c, 9, 50, 100
5, 267120, Note_on_c, 9, 50, 0
5, 267120, Note_on_c, 9, 50, 100
5, 267180, Note_on_c, 9, 50, 0
5, 267180, Note_on_c, 9, 50, 100
5, 267210, Note_on_c, 9, 50, 0
5, 267210, Note_on_c, 9, 50, 100
5, 267240, Note_on_c, 9, 50, 0
5, 267240, Note_on_c, 9, 50, 100
5, 267270, Note_on_c, 9, 50, 0
5, 267270, Note_on_c, 9, 50, 100
5, 267300, Note_on_c, 9, 50, 0
5, 267300, Note_on_c, 9, 45, 100
5, 267420, Note_on_c, 9, 45, 0
5, 268620, Note_on_c, 9, 50, 90
5, 268649, Note_on_c, 9, 50, 0
5, 268650, Note_on_c, 9, 50, 90
5, 268679, Note_on_c, 9, 50, 0
5, 268680, Note_on_c, 9, 50, 90
5, 268709, Note_on_c, 9, 50, 0
5, 268710, Note_on_c, 9, 50, 90
5, 268739, Note_on_c, 9, 50, 0
5, 268740, Note_on_c, 9, 50, 90
5, 268799, Note_on_c, 9, 50, 0
5, 268800, Note_on_c, 9, 50, 90
5, 268829, Note_on_c, 9, 50, 0
5, 268830, Note_on_c, 9, 50, 90
5, 268859, Note_on_c, 9, 50, 0
5, 268860, Note_on_c, 9, 50, 90
5, 268889, Note_on_c, 9, 50, 0
5, 268890, Note_on_c, 9, 50, 90
5, 268919, Note_on_c, 9, 50, 0
5, 268920, Note_on_c, 9, 50, 90
5, 268979, Note_on_c, 9, 50, 0
5, 270060, Note_on_c, 9, 50, 90
5, 270119, Note_on_c, 9, 50, 0
5, 270120, Note_on_c, 9, 50, 90
5, 270179, Note_on_c, 9, 50, 0
5, 270180, Note_on_c, 9, 50, 90
5, 270239, Note_on_c, 9, 50, 0
5, 270240, Note_on_c, 9, 50, 90
5, 270299, Note_on_c, 9, 50, 0
5, 270300, Note_on_c, 9, 50, 90
5, 270359, Note_on_c, 9, 50, 0
5, 270360, Note_on_c, 9, 45, 90
5, 270374, Note_on_c, 9, 45, 0
5, 270375, Note_on_c, 9, 45, 90
5, 270389, Note_on_c, 9, 45, 0
5, 270390, Note_on_c, 9, 45, 90
5, 270404, Note_on_c, 9, 45, 0
5, 270405, Note_on_c, 9, 45, 90
5, 270419, Note_on_c, 9, 45, 0
5, 270420, Note_on_c, 9, 45, 90
5, 270434, Note_on_c, 9, 45, 0
5, 270435, Note_on_c, 9, 45, 90
5, 270449, Note_on_c, 9, 45, 0
5, 270450, Note_on_c, 9, 45, 90
5, 270464, Note_on_c, 9, 45, 0
5, 270465, Note_on_c, 9, 45, 90
5, 270479, Note_on_c, 9, 45, 0
5, 270480, Note_on_c, 9, 45, 90
5, 270494, Note_on_c, 9, 45, 0
5, 270495, Note_on_c, 9, 45, 90
5, 270509, Note_on_c, 9, 45, 0
5, 270510, Note_on_c, 9, 45, 90
5, 270524, Note_on_c, 9, 45, 0
5, 270525, Note_on_c, 9, 45, 90
5, 270539, Note_on_c, 9, 45, 0
5, 270540, Note_on_c, 9, 45, 90
5, 270554, Note_on_c, 9, 45, 0
5, 270555, Note_on_c, 9, 45, 90
5, 270569, Note_on_c, 9, 45, 0
5, 270570, Note_on_c, 9, 45, 90
5, 270584, Note_on_c, 9, 45, 0
5, 270585, Note_on_c, 9, 45, 90
5, 270599, Note_on_c, 9, 45, 0
5, 270600, Note_on_c, 9, 45, 90
5, 270614, Note_on_c, 9, 45, 0
5, 270615, Note_on_c, 9, 45, 90
5, 270629, Note_on_c, 9, 45, 0
5, 270630, Note_on_c, 9, 45, 90
5, 270644, Note_on_c, 9, 45, 0
5, 270645, Note_on_c, 9, 45, 90
5, 270659, Note_on_c, 9, 45, 0
5, 270660, Note_on_c, 9, 45, 90
5, 270674, Note_on_c, 9, 45, 0
5, 270675, Note_on_c, 9, 45, 90
5, 270689, Note_on_c, 9, 45, 0
5, 270690, Note_on_c, 9, 45, 90
5, 270704, Note_on_c, 9, 45, 0
5, 270705, Note_on_c, 9, 45, 90
5, 270719, Note_on_c, 9, 45, 0
5, 270720, Note_on_c, 9, 45, 90
5, 270734, Note_on_c, 9, 45, 0
5, 270735, Note_on_c, 9, 45, 90
5, 270749, Note_on_c, 9, 45, 0
5, 270750, Note_on_c, 9, 45, 90
5, 270764, Note_on_c, 9, 45, 0
5, 270765, Note_on_c, 9, 45, 90
5, 270779, Note_on_c, 9, 45, 0
5, 270780, Note_on_c, 9, 45, 90
5, 270794, Note_on_c, 9, 45, 0
5, 270795, Note_on_c, 9, 45, 90
5, 270809, Note_on_c, 9, 45, 0
5, 270810, Note_on_c, 9, 45, 90
5, 270824, Note_on_c, 9, 45, 0
5, 270825, Note_on_c, 9, 45, 90
5, 270839, Note_on_c, 9, 45, 0
5, 270840, Note_on_c, 9, 45, 90
5, 270854, Note_on_c, 9, 45, 0
5, 270855, Note_on_c, 9, 45, 90
5, 270869, Note_on_c, 9, 45, 0
5, 270870, Note_on_c, 9, 45, 90
5, 270884, Note_on_c, 9, 45, 0
5, 270885, Note_on_c, 9, 45, 90
5, 270899, Note_on_c, 9, 45, 0
5, 270900, Note_on_c, 9, 45, 90
5, 270914, Note_on_c, 9, 45, 0
5, 270915, Note_on_c, 9, 45, 90
5, 270929, Note_on_c, 9, 45, 0
5, 270930, Note_on_c, 9, 45, 90
5, 270944, Note_on_c, 9, 45, 0
5, 270945, Note_on_c, 9, 45, 90
5, 270959, Note_on_c, 9, 45, 0
5, 270960, Note_on_c, 9, 45, 90
5, 270974, Note_on_c, 9, 45, 0
5, 270975, Note_on_c, 9, 45, 90
5, 270989, Note_on_c, 9, 45, 0
5, 270990, Note_on_c, 9, 45, 90
5, 271004, Note_on_c, 9, 45, 0
5, 271005, Note_on_c, 9, 45, 90
5, 271019, Note_on_c, 9, 45, 0
5, 271020, Note_on_c, 9, 45, 90
5, 271034, Note_on_c, 9, 45, 0
5, 271035, Note_on_c, 9, 45, 90
5, 271049, Note_on_c, 9, 45, 0
5, 271050, Note_on_c, 9, 45, 90
5, 271064, Note_on_c, 9, 45, 0
5, 271065, Note_on_c, 9, 45, 90
5, 271079, Note_on_c, 9, 45, 0
5, 271080, Note_on_c, 9, 45, 90
5, 271094, Note_on_c, 9, 45, 0
5, 271095, Note_on_c, 9, 45, 90
5, 271109, Note_on_c, 9, 45, 0
5, 271110, Note_on_c, 9, 45, 90
5, 271124, Note_on_c, 9, 45, 0
5, 271125, Note_on_c, 9, 45, 90
5, 271139, Note_on_c, 9, 45, 0
5, 271140, Note_on_c, 9, 45, 90
5, 271154, Note_on_c, 9, 45, 0
5, 271155, Note_on_c, 9, 45, 90
5, 271169, Note_on_c, 9, 45, 0
5, 271170, Note_on_c, 9, 45, 90
5, 271184, Note_on_c, 9, 45, 0
5, 271185, Note_on_c, 9, 45, 90
5, 271199, Note_on_c, 9, 45, 0
5, 271200, Note_on_c, 9, 45, 90
5, 271214, Note_on_c, 9, 45, 0
5, 271215, Note_on_c, 9, 45, 90
5, 271229, Note_on_c, 9, 45, 0
5, 271230, Note_on_c, 9, 45, 90
5, 271244, Note_on_c, 9, 45, 0
5, 271245, Note_on_c, 9, 45, 90
5, 271259, Note_on_c, 9, 45, 0
5, 271260, Note_on_c, 9, 45, 90
5, 271274, Note_on_c, 9, 45, 0
5, 271275, Note_on_c, 9, 45, 90
5, 271289, Note_on_c, 9, 45, 0
5, 271290, Note_on_c, 9, 45, 90
5, 271304, Note_on_c, 9, 45, 0
5, 271305, Note_on_c, 9, 45, 90
5, 271319, Note_on_c, 9, 45, 0
5, 271320, Note_on_c, 9, 45, 90
5, 271379, Note_on_c, 9, 45, 0
5, 271380, Note_on_c, 9, 50, 90
5, 271439, Note_on_c, 9, 50, 0
5, 271440, Note_on_c, 9, 50, 90
5, 271499, Note_on_c, 9, 50, 0
5, 271500, Note_on_c, 9, 45, 90
5, 271529, Note_on_c, 9, 45, 0
5, 271530, Note_on_c, 9, 45, 90
5, 271559, Note_on_c, 9, 45, 0
5, 271560, Note_on_c, 9, 45, 90
5, 271589, Note_on_c, 9, 45, 0
5, 271590, Note_on_c, 9, 45, 90
5, 271619, Note_on_c, 9, 45, 0
5, 271620, Note_on_c, 9, 50, 90
5, 271739, Note_on_c, 9, 50, 0
5, 321060, Note_on_c, 9, 50, 90
5, 321119, Note_on_c, 9, 50, 0
5, 321120, Note_on_c, 9, 50, 90
5, 321149, Note_on_c, 9, 50, 0
5, 321150, Note_on_c, 9, 50, 90
5, 321179, Note_on_c, 9, 50, 0
5, 321180, Note_on_c, 9, 50, 90
5, 321239, Note_on_c, 9, 50, 0
5, 321240, Note_on_c, 9, 50, 90
5, 321299, Note_on_c, 9, 50, 0
5, 321300, Note_on_c, 9, 50, 90
5, 321539, Note_on_c, 9, 50, 0
5, 322500, Note_on_c, 9, 50, 90
5, 322559, Note_on_c, 9, 50, 0
5, 322560, Note_on_c, 9, 50, 90
5, 322589, Note_on_c, 9, 50, 0
5, 322590, Note_on_c, 9, 50, 90
5, 322619, Note_on_c, 9, 50, 0
5, 322620, Note_on_c, 9, 50, 90
5, 322679, Note_on_c, 9, 50, 0
5, 322680, Note_on_c, 9, 50, 90
5, 322739, Note_on_c, 9, 50, 0
5, 322740, Note_on_c, 9, 50, 90
5, 322979, Note_on_c, 9, 50, 0
5, 323940, Note_on_c, 9, 50, 90
5, 323999, Note_on_c, 9, 50, 0
5, 324000, Note_on_c, 9, 50, 90
5, 324029, Note_on_c, 9, 50, 0
5, 324030, Note_on_c, 9, 50, 90
5, 324059, Note_on_c, 9, 50, 0
5, 324060, Note_on_c, 9, 50, 90
5, 324119, Note_on_c, 9, 50, 0
5, 324120, Note_on_c, 9, 50, 90
5, 324179, Note_on_c, 9, 50, 0
5, 324180, Note_on_c, 9, 50, 90
5, 324419, Note_on_c, 9, 50, 0
5, 324420, Note_on_c, 9, 50, 90
5, 324539, Note_on_c, 9, 50, 0
5, 324540, Note_on_c, 9, 50, 90
5, 324659, Note_on_c, 9, 50, 0
5, 324660, Note_on_c, 9, 50, 90
5, 324779, Note_on_c, 9, 50, 0
5, 324780, Note_on_c, 9, 50, 90
5, 324899, Note_on_c, 9, 50, 0
5, 324900, Note_on_c, 9, 50, 90
5, 324959, Note_on_c, 9, 50, 0
5, 324960, Note_on_c, 9, 50, 90
5, 325019, Note_on_c, 9, 50, 0
5, 325020, Note_on_c, 9, 50, 90
5, 325079, Note_on_c, 9, 50, 0
5, 325080, Note_on_c, 9, 50, 90
5, 325139, Note_on_c, 9, 50, 0
5, 325140, Note_on_c, 9, 50, 90
5, 325259, Note_on_c, 9, 50, 0
5, 325260, Note_on_c, 9, 50, 90
5, 325379, Note_on_c, 9, 50, 0
5, 325380, Note_on_c, 9, 50, 90
5, 325439, Note_on_c, 9, 50, 0
5, 325440, Note_on_c, 9, 50, 90
5, 325499, Note_on_c, 9, 50, 0
5, 325500, Note_on_c, 9, 50, 90
5, 325559, Note_on_c, 9, 50, 0
5, 325560, Note_on_c, 9, 50, 90
5, 325619, Note_on_c, 9, 50, 0
5, 325620, Note_on_c, 9, 50, 90
5, 325679, Note_on_c, 9, 50, 0
5, 325680, Note_on_c, 9, 50, 90
5, 325739, Note_on_c, 9, 50, 0
5, 325740, Note_on_c, 9, 50, 90
5, 325799, Note_on_c, 9, 50, 0
5, 325800, Note_on_c, 9, 50, 90
5, 325859, Note_on_c, 9, 50, 0
5, 325860, Note_on_c, 9, 50, 90
5, 325919, Note_on_c, 9, 50, 0
5, 325920, Note_on_c, 9, 50, 90
5, 325979, Note_on_c, 9, 50, 0
5, 325980, Note_on_c, 9, 50, 90
5, 326039, Note_on_c, 9, 50, 0
5, 326040, Note_on_c, 9, 50, 90
5, 326099, Note_on_c, 9, 50, 0
5, 326100, Note_on_c, 9, 45, 90
5, 326339, Note_on_c, 9, 45, 0
5, 326340, Note_on_c, 9, 45, 90
5, 326399, Note_on_c, 9, 45, 0
5, 326400, Note_on_c, 9, 45, 90
5, 326429, Note_on_c, 9, 45, 0
5, 326430, Note_on_c, 9, 45, 90
5, 326459, Note_on_c, 9, 45, 0
5, 326460, Note_on_c, 9, 45, 90
5, 326519, Note_on_c, 9, 45, 0
5, 326520, Note_on_c, 9, 45, 90
5, 326579, Note_on_c, 9, 45, 0
5, 326580, Note_on_c, 9, 45, 90
5, 326819, Note_on_c, 9, 45, 0
5, 327780, Note_on_c, 9, 45, 90
5, 327839, Note_on_c, 9, 45, 0
5, 327840, Note_on_c, 9, 45, 90
5, 327869, Note_on_c, 9, 45, 0
5, 327870, Note_on_c, 9, 45, 90
5, 327899, Note_on_c, 9, 45, 0
5, 327900, Note_on_c, 9, 45, 90
5, 327959, Note_on_c, 9, 45, 0
5, 327960, Note_on_c, 9, 45, 90
5, 328019, Note_on_c, 9, 45, 0
5, 328020, Note_on_c, 9, 45, 90
5, 328259, Note_on_c, 9, 45, 0
5, 329220, Note_on_c, 9, 45, 90
5, 329279, Note_on_c, 9, 45, 0
5, 329280, Note_on_c, 9, 45, 90
5, 329309, Note_on_c, 9, 45, 0
5, 329310, Note_on_c, 9, 45, 90
5, 329339, Note_on_c, 9, 45, 0
5, 329340, Note_on_c, 9, 45, 90
5, 329399, Note_on_c, 9, 45, 0
5, 329400, Note_on_c, 9, 45, 90
5, 329459, Note_on_c, 9, 45, 0
5, 329460, Note_on_c, 9, 45, 90
5, 329699, Note_on_c, 9, 45, 0
5, 329700, Note_on_c, 9, 45, 90
5, 329819, Note_on_c, 9, 45, 0
5, 329820, Note_on_c, 9, 45, 90
5, 329939, Note_on_c, 9, 45, 0
5, 329940, Note_on_c, 9, 45, 90
5, 330059, Note_on_c, 9, 45, 0
5, 330060, Note_on_c, 9, 45, 90
5, 330179, Note_on_c, 9, 45, 0
5, 330180, Note_on_c, 9, 45, 90
5, 330239, Note_on_c, 9, 45, 0
5, 330240, Note_on_c, 9, 45, 90
5, 330299, Note_on_c, 9, 45, 0
5, 330300, Note_on_c, 9, 45, 90
5, 330359, Note_on_c, 9, 45, 0
5, 330360, Note_on_c, 9, 45, 90
5, 330419, Note_on_c, 9, 45, 0
5, 330420, Note_on_c, 9, 45, 90
5, 330539, Note_on_c, 9, 45, 0
5, 330540, Note_on_c, 9, 45, 90
5, 330659, Note_on_c, 9, 45, 0
5, 330660, Note_on_c, 9, 50, 90
5, 330719, Note_on_c, 9, 50, 0
5, 330720, Note_on_c, 9, 50, 90
5, 330779, Note_on_c, 9, 50, 0
5, 330780, Note_on_c, 9, 50, 90
5, 330839, Note_on_c, 9, 50, 0
5, 330840, Note_on_c, 9, 50, 90
5, 330899, Note_on_c, 9, 50, 0
5, 330900, Note_on_c, 9, 50, 90
5, 330959, Note_on_c, 9, 50, 0
5, 330960, Note_on_c, 9, 50, 90
5, 331019, Note_on_c, 9, 50, 0
5, 331020, Note_on_c, 9, 50, 90
5, 331079, Note_on_c, 9, 50, 0
5, 331080, Note_on_c, 9, 50, 90
5, 331139, Note_on_c, 9, 50, 0
5, 331140, Note_on_c, 9, 45, 90
5, 331199, Note_on_c, 9, 45, 0
5, 331200, Note_on_c, 9, 45, 90
5, 331259, Note_on_c, 9, 45, 0
5, 331260, Note_on_c, 9, 45, 90
5, 331319, Note_on_c, 9, 45, 0
5, 331320, Note_on_c, 9, 45, 90
5, 331379, Note_on_c, 9, 45, 0
5, 331380, Note_on_c, 9, 50, 90
5, 331619, Note_on_c, 9, 50, 0
5, 334500, Note_on_c, 9, 50, 90
5, 334559, Note_on_c, 9, 50, 0
5, 334560, Note_on_c, 9, 50, 90
5, 334589, Note_on_c, 9, 50, 0
5, 334590, Note_on_c, 9, 50, 90
5, 334619, Note_on_c, 9, 50, 0
5, 334620, Note_on_c, 9, 50, 90
5, 334679, Note_on_c, 9, 50, 0
5, 334680, Note_on_c, 9, 50, 90
5, 334739, Note_on_c, 9, 50, 0
5, 334740, Note_on_c, 9, 50, 90
5, 334979, Note_on_c, 9, 50, 0
5, 334980, Note_on_c, 9, 50, 90
5, 335099, Note_on_c, 9, 50, 0
5, 335100, Note_on_c, 9, 50, 90
5, 335219, Note_on_c, 9, 50, 0
5, 335220, Note_on_c, 9, 50, 90
5, 335339, Note_on_c, 9, 50, 0
5, 335340, Note_on_c, 9, 50, 90
5, 335459, Note_on_c, 9, 50, 0
5, 335460, Note_on_c, 9, 50, 90
5, 335519, Note_on_c, 9, 50, 0
5, 335520, Note_on_c, 9, 50, 90
5, 335579, Note_on_c, 9, 50, 0
5, 335580, Note_on_c, 9, 50, 90
5, 335639, Note_on_c, 9, 50, 0
5, 335640, Note_on_c, 9, 50, 90
5, 335699, Note_on_c, 9, 50, 0
5, 335700, Note_on_c, 9, 50, 90
5, 335819, Note_on_c, 9, 50, 0
5, 335820, Note_on_c, 9, 50, 90
5, 335939, Note_on_c, 9, 50, 0
5, 335940, Note_on_c, 9, 50, 90
5, 335999, Note_on_c, 9, 50, 0
5, 336000, Note_on_c, 9, 50, 90
5, 336059, Note_on_c, 9, 50, 0
5, 336060, Note_on_c, 9, 50, 90
5, 336119, Note_on_c, 9, 50, 0
5, 336120, Note_on_c, 9, 50, 90
5, 336179, Note_on_c, 9, 50, 0
5, 336180, Note_on_c, 9, 50, 90
5, 336239, Note_on_c, 9, 50, 0
5, 336240, Note_on_c, 9, 50, 90
5, 336299, Note_on_c, 9, 50, 0
5, 336300, Note_on_c, 9, 50, 90
5, 336359, Note_on_c, 9, 50, 0
5, 336360, Note_on_c, 9, 50, 90
5, 336419, Note_on_c, 9, 50, 0
5, 336420, Note_on_c, 9, 50, 90
5, 336479, Note_on_c, 9, 50, 0
5, 336480, Note_on_c, 9, 50, 90
5, 336539, Note_on_c, 9, 50, 0
5, 336540, Note_on_c, 9, 50, 90
5, 336599, Note_on_c, 9, 50, 0
5, 336600, Note_on_c, 9, 50, 90
5, 336659, Note_on_c, 9, 50, 0
5, 336660, Note_on_c, 9, 45, 90
5, 336899, Note_on_c, 9, 45, 0
5, 339780, Note_on_c, 9, 45, 90
5, 339839, Note_on_c, 9, 45, 0
5, 339840, Note_on_c, 9, 45, 90
5, 339869, Note_on_c, 9, 45, 0
5, 339870, Note_on_c, 9, 45, 90
5, 339899, Note_on_c, 9, 45, 0
5, 339900, Note_on_c, 9, 45, 90
5, 339959, Note_on_c, 9, 45, 0
5, 339960, Note_on_c, 9, 45, 90
5, 340019, Note_on_c, 9, 45, 0
5, 340020, Note_on_c, 9, 45, 90
5, 340259, Note_on_c, 9, 45, 0
5, 340260, Note_on_c, 9, 45, 90
5, 340379, Note_on_c, 9, 45, 0
5, 340380, Note_on_c, 9, 45, 90
5, 340499, Note_on_c, 9, 45, 0
5, 340500, Note_on_c, 9, 45, 90
5, 340619, Note_on_c, 9, 45, 0
5, 340620, Note_on_c, 9, 45, 90
5, 340739, Note_on_c, 9, 45, 0
5, 340740, Note_on_c, 9, 45, 90
5, 340799, Note_on_c, 9, 45, 0
5, 340800, Note_on_c, 9, 45, 90
5, 340859, Note_on_c, 9, 45, 0
5, 340860, Note_on_c, 9, 45, 90
5, 340919, Note_on_c, 9, 45, 0
5, 340920, Note_on_c, 9, 45, 90
5, 340979, Note_on_c, 9, 45, 0
5, 340980, Note_on_c, 9, 45, 90
5, 341099, Note_on_c, 9, 45, 0
5, 341100, Note_on_c, 9, 45, 90
5, 341219, Note_on_c, 9, 45, 0
5, 341220, Note_on_c, 9, 50, 90
5, 341279, Note_on_c, 9, 50, 0
5, 341280, Note_on_c, 9, 50, 90
5, 341339, Note_on_c, 9, 50, 0
5, 341340, Note_on_c, 9, 50, 90
5, 341399, Note_on_c, 9, 50, 0
5, 341400, Note_on_c, 9, 50, 90
5, 341459, Note_on_c, 9, 50, 0
5, 341460, Note_on_c, 9, 50, 90
5, 341519, Note_on_c, 9, 50, 0
5, 341520, Note_on_c, 9, 50, 90
5, 341579, Note_on_c, 9, 50, 0
5, 341580, Note_on_c, 9, 50, 90
5, 341639, Note_on_c, 9, 50, 0
5, 341640, Note_on_c, 9, 50, 90
5, 341699, Note_on_c, 9, 50, 0
5, 341700, Note_on_c, 9, 45, 90
5, 341759, Note_on_c, 9, 45, 0
5, 341760, Note_on_c, 9, 45, 90
5, 341819, Note_on_c, 9, 45, 0
5, 341820, Note_on_c, 9, 45, 90
5, 341879, Note_on_c, 9, 45, 0
5, 341880, Note_on_c, 9, 45, 90
5, 341939, Note_on_c, 9, 45, 0
5, 341940, Note_on_c, 9, 50, 90
5, 342179, Note_on_c, 9, 50, 0
5, 347940, Note_on_c, 9, 50, 90
5, 347999, Note_on_c, 9, 50, 0
5, 348000, Note_on_c, 9, 50, 90
5, 348029, Note_on_c, 9, 50, 0
5, 348030, Note_on_c, 9, 50, 90
5, 348059, Note_on_c, 9, 50, 0
5, 348060, Note_on_c, 9, 50, 90
5, 348119, Note_on_c, 9, 50, 0
5, 348120, Note_on_c, 9, 50, 90
5, 348179, Note_on_c, 9, 50, 0
5, 348180, Note_on_c, 9, 50, 90
5, 348419, Note_on_c, 9, 50, 0
5, 349380, Note_on_c, 9, 50, 90
5, 349439, Note_on_c, 9, 50, 0
5, 349440, Note_on_c, 9, 50, 90
5, 349469, Note_on_c, 9, 50, 0
5, 349470, Note_on_c, 9, 50, 90
5, 349499, Note_on_c, 9, 50, 0
5, 349500, Note_on_c, 9, 50, 90
5, 349559, Note_on_c, 9, 50, 0
5, 349560, Note_on_c, 9, 50, 90
5, 349619, Note_on_c, 9, 50, 0
5, 349620, Note_on_c, 9, 50, 90
5, 349859, Note_on_c, 9, 50, 0
5, 350820, Note_on_c, 9, 50, 90
5, 350879, Note_on_c, 9, 50, 0
5, 350880, Note_on_c, 9, 50, 90
5, 350909, Note_on_c, 9, 50, 0
5, 350910, Note_on_c, 9, 50, 90
5, 350939, Note_on_c, 9, 50, 0
5, 350940, Note_on_c, 9, 50, 90
5, 350999, Note_on_c, 9, 50, 0
5, 351000, Note_on_c, 9, 50, 90
5, 351059, Note_on_c, 9, 50, 0
5, 351060, Note_on_c, 9, 50, 90
5, 351299, Note_on_c, 9, 50, 0
5, 351300, Note_on_c, 9, 50, 90
5, 351419, Note_on_c, 9, 50, 0
5, 351420, Note_on_c, 9, 50, 90
5, 351539, Note_on_c, 9, 50, 0
5, 351540, Note_on_c, 9, 50, 90
5, 351659, Note_on_c, 9, 50, 0
5, 351660, Note_on_c, 9, 50, 90
5, 351779, Note_on_c, 9, 50, 0
5, 351780, Note_on_c, 9, 50, 90
5, 351839, Note_on_c, 9, 50, 0
5, 351840, Note_on_c, 9, 50, 90
5, 351899, Note_on_c, 9, 50, 0
5, 351900, Note_on_c, 9, 50, 90
5, 351959, Note_on_c, 9, 50, 0
5, 351960, Note_on_c, 9, 50, 90
5, 352019, Note_on_c, 9, 50, 0
5, 352020, Note_on_c, 9, 50, 90
5, 352139, Note_on_c, 9, 50, 0
5, 352140, Note_on_c, 9, 50, 90
5, 352259, Note_on_c, 9, 50, 0
5, 352260, Note_on_c, 9, 50, 90
5, 352319, Note_on_c, 9, 50, 0
5, 352320, Note_on_c, 9, 50, 90
5, 352379, Note_on_c, 9, 50, 0
5, 352380, Note_on_c, 9, 50, 90
5, 352439, Note_on_c, 9, 50, 0
5, 352440, Note_on_c, 9, 50, 90
5, 352499, Note_on_c, 9, 50, 0
5, 352500, Note_on_c, 9, 50, 90
5, 352559, Note_on_c, 9, 50, 0
5, 352560, Note_on_c, 9, 50, 90
5, 352619, Note_on_c, 9, 50, 0
5, 352620, Note_on_c, 9, 50, 90
5, 352679, Note_on_c, 9, 50, 0
5, 352680, Note_on_c, 9, 50, 90
5, 352739, Note_on_c, 9, 50, 0
5, 352740, Note_on_c, 9, 50, 90
5, 352799, Note_on_c, 9, 50, 0
5, 352800, Note_on_c, 9, 50, 90
5, 352859, Note_on_c, 9, 50, 0
5, 352860, Note_on_c, 9, 50, 90
5, 352919, Note_on_c, 9, 50, 0
5, 352920, Note_on_c, 9, 50, 90
5, 352979, Note_on_c, 9, 50, 0
5, 352980, Note_on_c, 9, 45, 90
5, 353219, Note_on_c, 9, 45, 0
5, 353220, Note_on_c, 9, 45, 90
5, 353279, Note_on_c, 9, 45, 0
5, 353280, Note_on_c, 9, 45, 90
5, 353309, Note_on_c, 9, 45, 0
5, 353310, Note_on_c, 9, 45, 90
5, 353339, Note_on_c, 9, 45, 0
5, 353340, Note_on_c, 9, 45, 90
5, 353399, Note_on_c, 9, 45, 0
5, 353400, Note_on_c, 9, 45, 90
5, 353459, Note_on_c, 9, 45, 0
5, 353460, Note_on_c, 9, 45, 90
5, 353699, Note_on_c, 9, 45, 0
5, 354660, Note_on_c, 9, 45, 90
5, 354719, Note_on_c, 9, 45, 0
5, 354720, Note_on_c, 9, 45, 90
5, 354749, Note_on_c, 9, 45, 0
5, 354750, Note_on_c, 9, 45, 90
5, 354779, Note_on_c, 9, 45, 0
5, 354780, Note_on_c, 9, 45, 90
5, 354839, Note_on_c, 9, 45, 0
5, 354840, Note_on_c, 9, 45, 90
5, 354899, Note_on_c, 9, 45, 0
5, 354900, Note_on_c, 9, 45, 90
5, 355139, Note_on_c, 9, 45, 0
5, 355140, Note_on_c, 9, 45, 90
5, 355259, Note_on_c, 9, 45, 0
5, 355260, Note_on_c, 9, 45, 90
5, 355379, Note_on_c, 9, 45, 0
5, 355380, Note_on_c, 9, 45, 90
5, 355499, Note_on_c, 9, 45, 0
5, 355500, Note_on_c, 9, 45, 90
5, 355619, Note_on_c, 9, 45, 0
5, 355620, Note_on_c, 9, 45, 90
5, 355739, Note_on_c, 9, 45, 0
5, 355740, Note_on_c, 9, 45, 90
5, 355859, Note_on_c, 9, 45, 0
5, 355860, Note_on_c, 9, 45, 90
5, 355979, Note_on_c, 9, 45, 0
5, 355980, Note_on_c, 9, 45, 90
5, 356099, Note_on_c, 9, 45, 0
5, 356100, Note_on_c, 9, 45, 90
5, 356159, Note_on_c, 9, 45, 0
5, 356160, Note_on_c, 9, 45, 90
5, 356189, Note_on_c, 9, 45, 0
5, 356190, Note_on_c, 9, 45, 90
5, 356219, Note_on_c, 9, 45, 0
5, 356220, Note_on_c, 9, 45, 90
5, 356279, Note_on_c, 9, 45, 0
5, 356280, Note_on_c, 9, 45, 90
5, 356339, Note_on_c, 9, 45, 0
5, 356340, Note_on_c, 9, 45, 90
5, 356579, Note_on_c, 9, 45, 0
5, 356580, Note_on_c, 9, 45, 90
5, 356699, Note_on_c, 9, 45, 0
5, 356700, Note_on_c, 9, 45, 90
5, 356819, Note_on_c, 9, 45, 0
5, 356820, Note_on_c, 9, 45, 90
5, 356939, Note_on_c, 9, 45, 0
5, 356940, Note_on_c, 9, 45, 90
5, 357059, Note_on_c, 9, 45, 0
5, 357060, Note_on_c, 9, 45, 90
5, 357119, Note_on_c, 9, 45, 0
5, 357120, Note_on_c, 9, 45, 90
5, 357179, Note_on_c, 9, 45, 0
5, 357180, Note_on_c, 9, 45, 90
5, 357239, Note_on_c, 9, 45, 0
5, 357240, Note_on_c, 9, 45, 90
5, 357299, Note_on_c, 9, 45, 0
5, 357300, Note_on_c, 9, 45, 90
5, 357419, Note_on_c, 9, 45, 0
5, 357420, Note_on_c, 9, 45, 90
5, 357539, Note_on_c, 9, 45, 0
5, 357540, Note_on_c, 9, 50, 90
5, 357599, Note_on_c, 9, 50, 0
5, 357600, Note_on_c, 9, 50, 90
5, 357659, Note_on_c, 9, 50, 0
5, 357660, Note_on_c, 9, 50, 90
5, 357719, Note_on_c, 9, 50, 0
5, 357720, Note_on_c, 9, 50, 90
5, 357779, Note_on_c, 9, 50, 0
5, 357780, Note_on_c, 9, 50, 90
5, 357839, Note_on_c, 9, 50, 0
5, 357840, Note_on_c, 9, 50, 90
5, 357899, Note_on_c, 9, 50, 0
5, 357900, Note_on_c, 9, 50, 90
5, 357959, Note_on_c, 9, 50, 0
5, 357960, Note_on_c, 9, 50, 90
5, 358019, Note_on_c, 9, 50, 0
5, 358020, Note_on_c, 9, 45, 90
5, 358079, Note_on_c, 9, 45, 0
5, 358080, Note_on_c, 9, 45, 90
5, 358139, Note_on_c, 9, 45, 0
5, 358140, Note_on_c, 9, 45, 90
5, 358199, Note_on_c, 9, 45, 0
5, 358200, Note_on_c, 9, 45, 90
5, 358259, Note_on_c, 9, 45, 0
5, 358260, Note_on_c, 9, 50, 90
5, 358499, Note_on_c, 9, 50, 0
5, 364260, Note_on_c, 9, 50, 90
5, 364319, Note_on_c, 9, 50, 0
5, 364320, Note_on_c, 9, 50, 90
5, 364349, Note_on_c, 9, 50, 0
5, 364350, Note_on_c, 9, 50, 90
5, 364379, Note_on_c, 9, 50, 0
5, 364380, Note_on_c, 9, 50, 90
5, 364439, Note_on_c, 9, 50, 0
5, 364440, Note_on_c, 9, 50, 90
5, 364499, Note_on_c, 9, 50, 0
5, 364500, Note_on_c, 9, 50, 90
5, 364739, Note_on_c, 9, 50, 0
5, 365700, Note_on_c, 9, 50, 90
5, 365759, Note_on_c, 9, 50, 0
5, 365760, Note_on_c, 9, 50, 90
5, 365789, Note_on_c, 9, 50, 0
5, 365790, Note_on_c, 9, 50, 90
5, 365819, Note_on_c, 9, 50, 0
5, 365820, Note_on_c, 9, 50, 90
5, 365879, Note_on_c, 9, 50, 0
5, 365880, Note_on_c, 9, 50, 90
5, 365939, Note_on_c, 9, 50, 0
5, 365940, Note_on_c, 9, 50, 90
5, 366179, Note_on_c, 9, 50, 0
5, 367140, Note_on_c, 9, 50, 90
5, 367199, Note_on_c, 9, 50, 0
5, 367200, Note_on_c, 9, 50, 90
5, 367229, Note_on_c, 9, 50, 0
5, 367230, Note_on_c, 9, 50, 90
5, 367259, Note_on_c, 9, 50, 0
5, 367260, Note_on_c, 9, 50, 90
5, 367319, Note_on_c, 9, 50, 0
5, 367320, Note_on_c, 9, 50, 90
5, 367379, Note_on_c, 9, 50, 0
5, 367380, Note_on_c, 9, 50, 90
5, 367619, Note_on_c, 9, 50, 0
5, 367620, Note_on_c, 9, 50, 90
5, 367739, Note_on_c, 9, 50, 0
5, 367740, Note_on_c, 9, 50, 90
5, 367859, Note_on_c, 9, 50, 0
5, 367860, Note_on_c, 9, 50, 90
5, 367979, Note_on_c, 9, 50, 0
5, 367980, Note_on_c, 9, 50, 90
5, 368099, Note_on_c, 9, 50, 0
5, 368100, Note_on_c, 9, 50, 90
5, 368159, Note_on_c, 9, 50, 0
5, 368160, Note_on_c, 9, 50, 90
5, 368219, Note_on_c, 9, 50, 0
5, 368220, Note_on_c, 9, 50, 90
5, 368279, Note_on_c, 9, 50, 0
5, 368280, Note_on_c, 9, 50, 90
5, 368339, Note_on_c, 9, 50, 0
5, 368340, Note_on_c, 9, 50, 90
5, 368459, Note_on_c, 9, 50, 0
5, 368460, Note_on_c, 9, 50, 90
5, 368579, Note_on_c, 9, 50, 0
5, 368580, Note_on_c, 9, 50, 90
5, 368639, Note_on_c, 9, 50, 0
5, 368640, Note_on_c, 9, 50, 90
5, 368699, Note_on_c, 9, 50, 0
5, 368700, Note_on_c, 9, 50, 90
5, 368759, Note_on_c, 9, 50, 0
5, 368760, Note_on_c, 9, 50, 90
5, 368819, Note_on_c, 9, 50, 0
5, 368820, Note_on_c, 9, 50, 90
5, 368879, Note_on_c, 9, 50, 0
5, 368880, Note_on_c, 9, 50, 90
5, 368939, Note_on_c, 9, 50, 0
5, 368940, Note_on_c, 9, 50, 90
5, 368999, Note_on_c, 9, 50, 0
5, 369000, Note_on_c, 9, 50, 90
5, 369059, Note_on_c, 9, 50, 0
5, 369060, Note_on_c, 9, 50, 90
5, 369119, Note_on_c, 9, 50, 0
5, 369120, Note_on_c, 9, 50, 90
5, 369179, Note_on_c, 9, 50, 0
5, 369180, Note_on_c, 9, 50, 90
5, 369239, Note_on_c, 9, 50, 0
5, 369240, Note_on_c, 9, 50, 90
5, 369299, Note_on_c, 9, 50, 0
5, 369300, Note_on_c, 9, 45, 90
5, 369539, Note_on_c, 9, 45, 0
5, 369540, Note_on_c, 9, 45, 90
5, 369599, Note_on_c, 9, 45, 0
5, 369600, Note_on_c, 9, 45, 90
5, 369629, Note_on_c, 9, 45, 0
5, 369630, Note_on_c, 9, 45, 90
5, 369659, Note_on_c, 9, 45, 0
5, 369660, Note_on_c, 9, 45, 90
5, 369719, Note_on_c, 9, 45, 0
5, 369720, Note_on_c, 9, 45, 90
5, 369779, Note_on_c, 9, 45, 0
5, 369780, Note_on_c, 9, 45, 90
5, 370019, Note_on_c, 9, 45, 0
5, 370980, Note_on_c, 9, 45, 90
5, 371039, Note_on_c, 9, 45, 0
5, 371040, Note_on_c, 9, 45, 90
5, 371069, Note_on_c, 9, 45, 0
5, 371070, Note_on_c, 9, 45, 90
5, 371099, Note_on_c, 9, 45, 0
5, 371100, Note_on_c, 9, 45, 90
5, 371159, Note_on_c, 9, 45, 0
5, 371160, Note_on_c, 9, 45, 90
5, 371219, Note_on_c, 9, 45, 0
5, 371220, Note_on_c, 9, 45, 90
5, 371459, Note_on_c, 9, 45, 0
5, 372420, Note_on_c, 9, 45, 90
5, 372479, Note_on_c, 9, 45, 0
5, 372480, Note_on_c, 9, 45, 90
5, 372509, Note_on_c, 9, 45, 0
5, 372510, Note_on_c, 9, 45, 90
5, 372539, Note_on_c, 9, 45, 0
5, 372540, Note_on_c, 9, 45, 90
5, 372599, Note_on_c, 9, 45, 0
5, 372600, Note_on_c, 9, 45, 90
5, 372659, Note_on_c, 9, 45, 0
5, 372660, Note_on_c, 9, 45, 90
5, 372899, Note_on_c, 9, 45, 0
5, 372900, Note_on_c, 9, 45, 90
5, 373019, Note_on_c, 9, 45, 0
5, 373020, Note_on_c, 9, 45, 90
5, 373139, Note_on_c, 9, 45, 0
5, 373140, Note_on_c, 9, 45, 90
5, 373259, Note_on_c, 9, 45, 0
5, 373260, Note_on_c, 9, 45, 90
5, 373379, Note_on_c, 9, 45, 0
5, 373380, Note_on_c, 9, 45, 90
5, 373439, Note_on_c, 9, 45, 0
5, 373440, Note_on_c, 9, 45, 90
5, 373499, Note_on_c, 9, 45, 0
5, 373500, Note_on_c, 9, 45, 90
5, 373559, Note_on_c, 9, 45, 0
5, 373560, Note_on_c, 9, 45, 90
5, 373619, Note_on_c, 9, 45, 0
5, 373620, Note_on_c, 9, 45, 90
5, 373739, Note_on_c, 9, 45, 0
5, 373740, Note_on_c, 9, 45, 90
5, 373859, Note_on_c, 9, 45, 0
5, 373860, Note_on_c, 9, 50, 90
5, 373919, Note_on_c, 9, 50, 0
5, 373920, Note_on_c, 9, 50, 90
5, 373979, Note_on_c, 9, 50, 0
5, 373980, Note_on_c, 9, 50, 90
5, 374039, Note_on_c, 9, 50, 0
5, 374040, Note_on_c, 9, 50, 90
5, 374099, Note_on_c, 9, 50, 0
5, 374100, Note_on_c, 9, 50, 90
5, 374159, Note_on_c, 9, 50, 0
5, 374160, Note_on_c, 9, 50, 90
5, 374219, Note_on_c, 9, 50, 0
5, 374220, Note_on_c, 9, 50, 90
5, 374279, Note_on_c, 9, 50, 0
5, 374280, Note_on_c, 9, 50, 90
5, 374339, Note_on_c, 9, 50, 0
5, 374340, Note_on_c, 9, 45, 90
5, 374399, Note_on_c, 9, 45, 0
5, 374400, Note_on_c, 9, 45, 90
5, 374459, Note_on_c, 9, 45, 0
5, 374460, Note_on_c, 9, 45, 90
5, 374519, Note_on_c, 9, 45, 0
5, 374520, Note_on_c, 9, 45, 90
5, 374579, Note_on_c, 9, 45, 0
5, 374580, Note_on_c, 9, 50, 90
5, 374819, Note_on_c, 9, 50, 0
5, 377700, Note_on_c, 9, 50, 90
5, 377759, Note_on_c, 9, 50, 0
5, 377760, Note_on_c, 9, 50, 90
5, 377789, Note_on_c, 9, 50, 0
5, 377790, Note_on_c, 9, 50, 90
5, 377819, Note_on_c, 9, 50, 0
5, 377820, Note_on_c, 9, 50, 90
5, 377879, Note_on_c, 9, 50, 0
5, 377880, Note_on_c, 9, 50, 90
5, 377939, Note_on_c, 9, 50, 0
5, 377940, Note_on_c, 9, 50, 90
5, 378179, Note_on_c, 9, 50, 0
5, 378180, Note_on_c, 9, 50, 90
5, 378299, Note_on_c, 9, 50, 0
5, 378300, Note_on_c, 9, 50, 90
5, 378419, Note_on_c, 9, 50, 0
5, 378420, Note_on_c, 9, 50, 90
5, 378539, Note_on_c, 9, 50, 0
5, 378540, Note_on_c, 9, 50, 90
5, 378659, Note_on_c, 9, 50, 0
5, 378660, Note_on_c, 9, 50, 90
5, 378719, Note_on_c, 9, 50, 0
5, 378720, Note_on_c, 9, 50, 90
5, 378779, Note_on_c, 9, 50, 0
5, 378780, Note_on_c, 9, 50, 90
5, 378839, Note_on_c, 9, 50, 0
5, 378840, Note_on_c, 9, 50, 90
5, 378899, Note_on_c, 9, 50, 0
5, 378900, Note_on_c, 9, 50, 90
5, 379019, Note_on_c, 9, 50, 0
5, 379020, Note_on_c, 9, 50, 90
5, 379139, Note_on_c, 9, 50, 0
5, 379140, Note_on_c, 9, 50, 90
5, 379199, Note_on_c, 9, 50, 0
5, 379200, Note_on_c, 9, 50, 90
5, 379259, Note_on_c, 9, 50, 0
5, 379260, Note_on_c, 9, 50, 90
5, 379319, Note_on_c, 9, 50, 0
5, 379320, Note_on_c, 9, 50, 90
5, 379379, Note_on_c, 9, 50, 0
5, 379380, Note_on_c, 9, 50, 90
5, 379439, Note_on_c, 9, 50, 0
5, 379440, Note_on_c, 9, 50, 90
5, 379499, Note_on_c, 9, 50, 0
5, 379500, Note_on_c, 9, 50, 90
5, 379559, Note_on_c, 9, 50, 0
5, 379560, Note_on_c, 9, 50, 90
5, 379619, Note_on_c, 9, 50, 0
5, 379620, Note_on_c, 9, 50, 90
5, 379679, Note_on_c, 9, 50, 0
5, 379680, Note_on_c, 9, 50, 90
5, 379739, Note_on_c, 9, 50, 0
5, 379740, Note_on_c, 9, 50, 90
5, 379799, Note_on_c, 9, 50, 0
5, 379800, Note_on_c, 9, 50, 90
5, 379859, Note_on_c, 9, 50, 0
5, 379860, Note_on_c, 9, 45, 90
5, 380099, Note_on_c, 9, 45, 0
5, 382980, Note_on_c, 9, 45, 90
5, 383039, Note_on_c, 9, 45, 0
5, 383040, Note_on_c, 9, 45, 90
5, 383069, Note_on_c, 9, 45, 0
5, 383070, Note_on_c, 9, 45, 90
5, 383099, Note_on_c, 9, 45, 0
5, 383100, Note_on_c, 9, 45, 90
5, 383159, Note_on_c, 9, 45, 0
5, 383160, Note_on_c, 9, 45, 90
5, 383219, Note_on_c, 9, 45, 0
5, 383220, Note_on_c, 9, 45, 90
5, 383459, Note_on_c, 9, 45, 0
5, 383460, Note_on_c, 9, 45, 90
5, 383579, Note_on_c, 9, 45, 0
5, 383580, Note_on_c, 9, 45, 90
5, 383699, Note_on_c, 9, 45, 0
5, 383700, Note_on_c, 9, 45, 90
5, 383819, Note_on_c, 9, 45, 0
5, 383820, Note_on_c, 9, 45, 90
5, 383939, Note_on_c, 9, 45, 0
5, 383940, Note_on_c, 9, 45, 90
5, 383999, Note_on_c, 9, 45, 0
5, 384000, Note_on_c, 9, 45, 90
5, 384059, Note_on_c, 9, 45, 0
5, 384060, Note_on_c, 9, 45, 90
5, 384119, Note_on_c, 9, 45, 0
5, 384120, Note_on_c, 9, 45, 90
5, 384179, Note_on_c, 9, 45, 0
5, 384180, Note_on_c, 9, 45, 90
5, 384299, Note_on_c, 9, 45, 0
5, 384300, Note_on_c, 9, 45, 90
5, 384419, Note_on_c, 9, 45, 0
5, 384420, Note_on_c, 9, 50, 90
5, 384479, Note_on_c, 9, 50, 0
5, 384480, Note_on_c, 9, 50, 90
5, 384539, Note_on_c, 9, 50, 0
5, 384540, Note_on_c, 9, 50, 90
5, 384599, Note_on_c, 9, 50, 0
5, 384600, Note_on_c, 9, 50, 90
5, 384659, Note_on_c, 9, 50, 0
5, 384660, Note_on_c, 9, 50, 90
5, 384719, Note_on_c, 9, 50, 0
5, 384720, Note_on_c, 9, 50, 90
5, 384779, Note_on_c, 9, 50, 0
5, 384780, Note_on_c, 9, 50, 90
5, 384839, Note_on_c, 9, 50, 0
5, 384840, Note_on_c, 9, 50, 90
5, 384899, Note_on_c, 9, 50, 0
5, 384900, Note_on_c, 9, 45, 90
5, 384959, Note_on_c, 9, 45, 0
5, 384960, Note_on_c, 9, 45, 90
5, 385019, Note_on_c, 9, 45, 0
5, 385020, Note_on_c, 9, 45, 90
5, 385079, Note_on_c, 9, 45, 0
5, 385080, Note_on_c, 9, 45, 90
5, 385139, Note_on_c, 9, 45, 0
5, 385140, Note_on_c, 9, 50, 90
5, 385379, Note_on_c, 9, 50, 0
5, 385379, End_track
6, 0, Start_track
6, 0, MIDI_port, 0
6, 0, Title_t, "corno i"
6, 0, Program_c, 2, 60
6, 240, Note_on_c, 2, 57, 110
6, 300, Note_on_c, 2, 57, 0
6, 300, Note_on_c, 2, 54, 110
6, 360, Note_on_c, 2, 54, 0
6, 600, Note_on_c, 2, 62, 110
6, 660, Note_on_c, 2, 62, 0
6, 660, Note_on_c, 2, 57, 110
6, 720, Note_on_c, 2, 57, 0
6, 960, Note_on_c, 2, 66, 110
6, 1020, Note_on_c, 2, 66, 0
6, 1020, Note_on_c, 2, 62, 110
6, 1080, Note_on_c, 2, 62, 0
6, 1320, Note_on_c, 2, 69, 110
6, 1380, Note_on_c, 2, 69, 0
6, 1380, Note_on_c, 2, 66, 110
6, 1440, Note_on_c, 2, 66, 0
6, 1440, Note_on_c, 2, 66, 110
6, 2160, Note_on_c, 2, 66, 0
6, 2160, Note_on_c, 2, 64, 110
6, 2580, Note_on_c, 2, 64, 0
6, 2580, Note_on_c, 2, 64, 110
6, 2610, Note_on_c, 2, 64, 0
6, 2610, Note_on_c, 2, 64, 110
6, 2640, Note_on_c, 2, 64, 0
6, 2640, Note_on_c, 2, 64, 110
6, 2670, Note_on_c, 2, 64, 0
6, 2670, Note_on_c, 2, 64, 110
6, 2700, Note_on_c, 2, 64, 0
6, 2700, Note_on_c, 2, 64, 110
6, 2730, Note_on_c, 2, 64, 0
6, 2730, Note_on_c, 2, 64, 110
6, 2760, Note_on_c, 2, 64, 0
6, 2760, Note_on_c, 2, 64, 110
6, 2790, Note_on_c, 2, 64, 0
6, 2790, Note_on_c, 2, 64, 110
6, 2820, Note_on_c, 2, 64, 0
6, 2820, Note_on_c, 2, 64, 110
6, 2850, Note_on_c, 2, 64, 0
6, 2850, Note_on_c, 2, 64, 110
6, 2880, Note_on_c, 2, 64, 0
6, 2880, Note_on_c, 2, 64, 110
6, 3000, Note_on_c, 2, 64, 0
6, 4380, Note_on_c, 2, 64, 110
6, 4439, Note_on_c, 2, 64, 0
6, 4440, Note_on_c, 2, 64, 110
6, 4499, Note_on_c, 2, 64, 0
6, 4500, Note_on_c, 2, 64, 110
6, 4559, Note_on_c, 2, 64, 0
6, 4560, Note_on_c, 2, 64, 110
6, 4619, Note_on_c, 2, 64, 0
6, 4620, Note_on_c, 2, 66, 110
6, 4649, Note_on_c, 2, 66, 0
6, 4650, Note_on_c, 2, 67, 110
6, 4679, Note_on_c, 2, 67, 0
6, 4680, Note_on_c, 2, 69, 110
6, 4739, Note_on_c, 2, 69, 0
6, 4740, Note_on_c, 2, 57, 110
6, 4769, Note_on_c, 2, 57, 0
6, 4770, Note_on_c, 2, 57, 110
6, 4799, Note_on_c, 2, 57, 0
6, 4800, Note_on_c, 2, 57, 110
6, 4829, Note_on_c, 2, 57, 0
6, 4830, Note_on_c, 2, 57, 110
6, 4859, Note_on_c, 2, 57, 0
6, 4860, Note_on_c, 2, 57, 110
6, 4889, Note_on_c, 2, 57, 0
6, 4890, Note_on_c, 2, 57, 110
6, 4919, Note_on_c, 2, 57, 0
6, 4920, Note_on_c, 2, 57, 110
6, 4949, Note_on_c, 2, 57, 0
6, 4950, Note_on_c, 2, 57, 110
6, 4979, Note_on_c, 2, 57, 0
6, 4980, Note_on_c, 2, 57, 110
6, 5009, Note_on_c, 2, 57, 0
6, 5010, Note_on_c, 2, 57, 110
6, 5039, Note_on_c, 2, 57, 0
6, 5040, Note_on_c, 2, 57, 110
6, 5159, Note_on_c, 2, 57, 0
6, 5280, Note_on_c, 2, 69, 110
6, 5339, Note_on_c, 2, 69, 0
6, 5340, Note_on_c, 2, 69, 110
6, 5399, Note_on_c, 2, 69, 0
6, 5400, Note_on_c, 2, 69, 110
6, 5459, Note_on_c, 2, 69, 0
6, 5460, Note_on_c, 2, 71, 110
6, 5489, Note_on_c, 2, 71, 0
6, 5490, Note_on_c, 2, 69, 110
6, 5519, Note_on_c, 2, 69, 0
6, 5520, Note_on_c, 2, 67, 110
6, 5579, Note_on_c, 2, 67, 0
6, 5580, Note_on_c, 2, 67, 110
6, 5639, Note_on_c, 2, 67, 0
6, 5640, Note_on_c, 2, 67, 110
6, 5699, Note_on_c, 2, 67, 0
6, 5700, Note_on_c, 2, 67, 110
6, 5759, Note_on_c, 2, 67, 0
6, 5760, Note_on_c, 2, 67, 110
6, 5819, Note_on_c, 2, 67, 0
6, 5820, Note_on_c, 2, 69, 110
6, 5849, Note_on_c, 2, 69, 0
6, 5850, Note_on_c, 2, 67, 110
6, 5879, Note_on_c, 2, 67, 0
6, 5880, Note_on_c, 2, 66, 110
6, 5939, Note_on_c, 2, 66, 0
6, 5940, Note_on_c, 2, 66, 110
6, 5999, Note_on_c, 2, 66, 0
6, 6000, Note_on_c, 2, 66, 110
6, 6059, Note_on_c, 2, 66, 0
6, 6060, Note_on_c, 2, 66, 110
6, 6119, Note_on_c, 2, 66, 0
6, 6120, Note_on_c, 2, 66, 110
6, 6179, Note_on_c, 2, 66, 0
6, 6180, Note_on_c, 2, 67, 110
6, 6209, Note_on_c, 2, 67, 0
6, 6210, Note_on_c, 2, 66, 110
6, 6239, Note_on_c, 2, 66, 0
6, 6240, Note_on_c, 2, 64, 110
6, 6299, Note_on_c, 2, 64, 0
6, 6300, Note_on_c, 2, 64, 110
6, 6359, Note_on_c, 2, 64, 0
6, 6360, Note_on_c, 2, 64, 110
6, 6419, Note_on_c, 2, 64, 0
6, 6420, Note_on_c, 2, 64, 110
6, 6479, Note_on_c, 2, 64, 0
6, 6480, Note_on_c, 2, 62, 110
6, 6539, Note_on_c, 2, 62, 0
6, 6540, Note_on_c, 2, 66, 110
6, 6599, Note_on_c, 2, 66, 0
6, 6600, Note_on_c, 2, 66, 110
6, 6659, Note_on_c, 2, 66, 0
6, 6660, Note_on_c, 2, 66, 110
6, 6719, Note_on_c, 2, 66, 0
6, 6720, Note_on_c, 2, 66, 110
6, 6779, Note_on_c, 2, 66, 0
6, 6780, Note_on_c, 2, 66, 110
6, 6839, Note_on_c, 2, 66, 0
6, 6900, Note_on_c, 2, 68, 110
6, 6959, Note_on_c, 2, 68, 0
6, 6960, Note_on_c, 2, 68, 110
6, 7019, Note_on_c, 2, 68, 0
6, 7020, Note_on_c, 2, 68, 110
6, 7079, Note_on_c, 2, 68, 0
6, 7080, Note_on_c, 2, 68, 110
6, 7139, Note_on_c, 2, 68, 0
6, 7140, Note_on_c, 2, 68, 110
6, 7199, Note_on_c, 2, 68, 0
6, 7260, Note_on_c, 2, 71, 110
6, 7319, Note_on_c, 2, 71, 0
6, 7320, Note_on_c, 2, 71, 110
6, 7379, Note_on_c, 2, 71, 0
6, 7380, Note_on_c, 2, 71, 110
6, 7439, Note_on_c, 2, 71, 0
6, 7440, Note_on_c, 2, 71, 110
6, 7499, Note_on_c, 2, 71, 0
6, 7500, Note_on_c, 2, 71, 110
6, 7559, Note_on_c, 2, 71, 0
6, 7560, Note_on_c, 2, 73, 110
6, 7619, Note_on_c, 2, 73, 0
6, 7620, Note_on_c, 2, 64, 110
6, 7679, Note_on_c, 2, 64, 0
6, 7680, Note_on_c, 2, 64, 110
6, 7739, Note_on_c, 2, 64, 0
6, 7740, Note_on_c, 2, 64, 110
6, 7799, Note_on_c, 2, 64, 0
6, 7800, Note_on_c, 2, 64, 110
6, 7859, Note_on_c, 2, 64, 0
6, 7860, Note_on_c, 2, 62, 110
6, 7889, Note_on_c, 2, 62, 0
6, 7890, Note_on_c, 2, 64, 110
6, 7919, Note_on_c, 2, 64, 0
6, 7920, Note_on_c, 2, 66, 110
6, 7979, Note_on_c, 2, 66, 0
6, 7980, Note_on_c, 2, 66, 110
6, 8039, Note_on_c, 2, 66, 0
6, 8040, Note_on_c, 2, 66, 110
6, 8099, Note_on_c, 2, 66, 0
6, 8100, Note_on_c, 2, 66, 110
6, 8159, Note_on_c, 2, 66, 0
6, 8160, Note_on_c, 2, 66, 110
6, 8219, Note_on_c, 2, 66, 0
6, 8220, Note_on_c, 2, 64, 110
6, 8249, Note_on_c, 2, 64, 0
6, 8250, Note_on_c, 2, 66, 110
6, 8279, Note_on_c, 2, 66, 0
6, 8280, Note_on_c, 2, 67, 110
6, 8339, Note_on_c, 2, 67, 0
6, 8340, Note_on_c, 2, 67, 110
6, 8399, Note_on_c, 2, 67, 0
6, 8400, Note_on_c, 2, 67, 110
6, 8459, Note_on_c, 2, 67, 0
6, 8460, Note_on_c, 2, 67, 110
6, 8519, Note_on_c, 2, 67, 0
6, 8520, Note_on_c, 2, 67, 110
6, 8579, Note_on_c, 2, 67, 0
6, 8580, Note_on_c, 2, 66, 110
6, 8609, Note_on_c, 2, 66, 0
6, 8610, Note_on_c, 2, 67, 110
6, 8639, Note_on_c, 2, 67, 0
6, 8640, Note_on_c, 2, 69, 110
6, 9270, Note_on_c, 2, 69, 0
6, 9270, Note_on_c, 2, 71, 110
6, 9299, Note_on_c, 2, 71, 0
6, 9300, Note_on_c, 2, 67, 110
6, 9329, Note_on_c, 2, 67, 0
6, 9330, Note_on_c, 2, 69, 110
6, 9359, Note_on_c, 2, 69, 0
6, 9360, Note_on_c, 2, 71, 110
6, 9389, Note_on_c, 2, 71, 0
6, 9390, Note_on_c, 2, 69, 110
6, 9419, Note_on_c, 2, 69, 0
6, 9420, Note_on_c, 2, 71, 110
6, 9449, Note_on_c, 2, 71, 0
6, 9450, Note_on_c, 2, 69, 110
6, 9479, Note_on_c, 2, 69, 0
6, 9480, Note_on_c, 2, 67, 110
6, 9509, Note_on_c, 2, 67, 0
6, 9510, Note_on_c, 2, 66, 110
6, 9539, Note_on_c, 2, 66, 0
6, 9540, Note_on_c, 2, 67, 110
6, 9569, Note_on_c, 2, 67, 0
6, 9570, Note_on_c, 2, 66, 110
6, 9599, Note_on_c, 2, 66, 0
6, 9600, Note_on_c, 2, 64, 110
6, 9629, Note_on_c, 2, 64, 0
6, 9630, Note_on_c, 2, 62, 110
6, 9659, Note_on_c, 2, 62, 0
6, 9660, Note_on_c, 2, 64, 110
6, 9689, Note_on_c, 2, 64, 0
6, 9690, Note_on_c, 2, 62, 110
6, 9719, Note_on_c, 2, 62, 0
6, 9720, Note_on_c, 2, 67, 110
6, 9779, Note_on_c, 2, 67, 0
6, 9780, Note_on_c, 2, 69, 110
6, 9809, Note_on_c, 2, 69, 0
6, 9810, Note_on_c, 2, 67, 110
6, 9839, Note_on_c, 2, 67, 0
6, 9840, Note_on_c, 2, 66, 110
6, 9869, Note_on_c, 2, 66, 0
6, 9870, Note_on_c, 2, 64, 110
6, 9899, Note_on_c, 2, 64, 0
6, 9900, Note_on_c, 2, 62, 110
6, 9929, Note_on_c, 2, 62, 0
6, 9930, Note_on_c, 2, 64, 110
6, 9959, Note_on_c, 2, 64, 0
6, 9960, Note_on_c, 2, 64, 110
6, 10049, Note_on_c, 2, 64, 0
6, 10050, Note_on_c, 2, 62, 110
6, 10079, Note_on_c, 2, 62, 0
6, 10080, Note_on_c, 2, 62, 110
6, 10139, Note_on_c, 2, 62, 0
6, 10140, Note_on_c, 2, 50, 110
6, 10199, Note_on_c, 2, 50, 0
6, 10200, Note_on_c, 2, 50, 110
6, 10259, Note_on_c, 2, 50, 0
6, 10260, Note_on_c, 2, 50, 110
6, 10319, Note_on_c, 2, 50, 0
6, 10320, Note_on_c, 2, 50, 110
6, 10379, Note_on_c, 2, 50, 0
6, 10380, Note_on_c, 2, 50, 110
6, 10439, Note_on_c, 2, 50, 0
6, 10440, Note_on_c, 2, 62, 110
6, 10499, Note_on_c, 2, 62, 0
6, 10500, Note_on_c, 2, 50, 110
6, 10559, Note_on_c, 2, 50, 0
6, 10560, Note_on_c, 2, 50, 110
6, 10619, Note_on_c, 2, 50, 0
6, 10620, Note_on_c, 2, 50, 110
6, 10679, Note_on_c, 2, 50, 0
6, 10680, Note_on_c, 2, 50, 110
6, 10739, Note_on_c, 2, 50, 0
6, 10740, Note_on_c, 2, 50, 110
6, 10799, Note_on_c, 2, 50, 0
6, 10800, Note_on_c, 2, 62, 110
6, 10859, Note_on_c, 2, 62, 0
6, 10860, Note_on_c, 2, 50, 110
6, 10919, Note_on_c, 2, 50, 0
6, 10920, Note_on_c, 2, 50, 110
6, 10979, Note_on_c, 2, 50, 0
6, 10980, Note_on_c, 2, 50, 110
6, 11039, Note_on_c, 2, 50, 0
6, 11040, Note_on_c, 2, 50, 110
6, 11099, Note_on_c, 2, 50, 0
6, 11100, Note_on_c, 2, 50, 110
6, 11159, Note_on_c, 2, 50, 0
6, 11160, Note_on_c, 2, 62, 110
6, 11219, Note_on_c, 2, 62, 0
6, 11220, Note_on_c, 2, 50, 110
6, 11279, Note_on_c, 2, 50, 0
6, 11280, Note_on_c, 2, 50, 110
6, 11339, Note_on_c, 2, 50, 0
6, 11340, Note_on_c, 2, 50, 110
6, 11399, Note_on_c, 2, 50, 0
6, 11400, Note_on_c, 2, 50, 110
6, 11459, Note_on_c, 2, 50, 0
6, 11460, Note_on_c, 2, 50, 110
6, 11519, Note_on_c, 2, 50, 0
6, 11580, Note_on_c, 2, 62, 110
6, 11609, Note_on_c, 2, 62, 0
6, 11610, Note_on_c, 2, 64, 110
6, 11639, Note_on_c, 2, 64, 0
6, 11640, Note_on_c, 2, 66, 110
6, 11669, Note_on_c, 2, 66, 0
6, 11670, Note_on_c, 2, 67, 110
6, 11699, Note_on_c, 2, 67, 0
6, 11700, Note_on_c, 2, 69, 110
6, 11729, Note_on_c, 2, 69, 0
6, 11730, Note_on_c, 2, 71, 110
6, 11759, Note_on_c, 2, 71, 0
6, 11760, Note_on_c, 2, 69, 110
6, 11819, Note_on_c, 2, 69, 0
6, 11820, Note_on_c, 2, 67, 110
6, 11849, Note_on_c, 2, 67, 0
6, 11850, Note_on_c, 2, 66, 110
6, 11879, Note_on_c, 2, 66, 0
6, 11880, Note_on_c, 2, 64, 110
6, 11939, Note_on_c, 2, 64, 0
6, 11940, Note_on_c, 2, 64, 110
6, 11999, Note_on_c, 2, 64, 0
6, 12000, Note_on_c, 2, 64, 110
6, 12059, Note_on_c, 2, 64, 0
6, 12060, Note_on_c, 2, 64, 110
6, 12119, Note_on_c, 2, 64, 0
6, 12120, Note_on_c, 2, 64, 110
6, 12179, Note_on_c, 2, 64, 0
6, 12180, Note_on_c, 2, 62, 110
6, 12209, Note_on_c, 2, 62, 0
6, 12210, Note_on_c, 2, 64, 110
6, 12239, Note_on_c, 2, 64, 0
6, 12240, Note_on_c, 2, 66, 110
6, 12299, Note_on_c, 2, 66, 0
6, 12300, Note_on_c, 2, 66, 110
6, 12359, Note_on_c, 2, 66, 0
6, 12360, Note_on_c, 2, 66, 110
6, 12419, Note_on_c, 2, 66, 0
6, 12420, Note_on_c, 2, 66, 110
6, 12479, Note_on_c, 2, 66, 0
6, 12480, Note_on_c, 2, 66, 110
6, 12539, Note_on_c, 2, 66, 0
6, 12540, Note_on_c, 2, 64, 110
6, 12569, Note_on_c, 2, 64, 0
6, 12570, Note_on_c, 2, 66, 110
6, 12599, Note_on_c, 2, 66, 0
6, 12600, Note_on_c, 2, 67, 110
6, 12659, Note_on_c, 2, 67, 0
6, 12660, Note_on_c, 2, 67, 110
6, 12719, Note_on_c, 2, 67, 0
6, 12720, Note_on_c, 2, 67, 110
6, 12779, Note_on_c, 2, 67, 0
6, 12780, Note_on_c, 2, 67, 110
6, 12839, Note_on_c, 2, 67, 0
6, 12840, Note_on_c, 2, 67, 110
6, 12899, Note_on_c, 2, 67, 0
6, 12900, Note_on_c, 2, 66, 110
6, 12929, Note_on_c, 2, 66, 0
6, 12930, Note_on_c, 2, 67, 110
6, 12959, Note_on_c, 2, 67, 0
6, 12960, Note_on_c, 2, 69, 110
6, 13590, Note_on_c, 2, 69, 0
6, 13590, Note_on_c, 2, 71, 110
6, 13619, Note_on_c, 2, 71, 0
6, 13620, Note_on_c, 2, 67, 110
6, 13649, Note_on_c, 2, 67, 0
6, 13650, Note_on_c, 2, 69, 110
6, 13679, Note_on_c, 2, 69, 0
6, 13680, Note_on_c, 2, 71, 110
6, 13709, Note_on_c, 2, 71, 0
6, 13710, Note_on_c, 2, 69, 110
6, 13739, Note_on_c, 2, 69, 0
6, 13740, Note_on_c, 2, 71, 110
6, 13769, Note_on_c, 2, 71, 0
6, 13770, Note_on_c, 2, 69, 110
6, 13799, Note_on_c, 2, 69, 0
6, 13800, Note_on_c, 2, 67, 110
6, 13829, Note_on_c, 2, 67, 0
6, 13830, Note_on_c, 2, 66, 110
6, 13859, Note_on_c, 2, 66, 0
6, 13860, Note_on_c, 2, 67, 110
6, 13889, Note_on_c, 2, 67, 0
6, 13890, Note_on_c, 2, 66, 110
6, 13919, Note_on_c, 2, 66, 0
6, 13920, Note_on_c, 2, 64, 110
6, 13949, Note_on_c, 2, 64, 0
6, 13950, Note_on_c, 2, 62, 110
6, 13979, Note_on_c, 2, 62, 0
6, 13980, Note_on_c, 2, 64, 110
6, 14009, Note_on_c, 2, 64, 0
6, 14010, Note_on_c, 2, 62, 110
6, 14039, Note_on_c, 2, 62, 0
6, 14040, Note_on_c, 2, 67, 110
6, 14099, Note_on_c, 2, 67, 0
6, 14100, Note_on_c, 2, 69, 110
6, 14129, Note_on_c, 2, 69, 0
6, 14130, Note_on_c, 2, 67, 110
6, 14159, Note_on_c, 2, 67, 0
6, 14160, Note_on_c, 2, 66, 110
6, 14189, Note_on_c, 2, 66, 0
6, 14190, Note_on_c, 2, 64, 110
6, 14219, Note_on_c, 2, 64, 0
6, 14220, Note_on_c, 2, 62, 110
6, 14249, Note_on_c, 2, 62, 0
6, 14250, Note_on_c, 2, 64, 110
6, 14279, Note_on_c, 2, 64, 0
6, 14280, Note_on_c, 2, 64, 110
6, 14369, Note_on_c, 2, 64, 0
6, 14370, Note_on_c, 2, 62, 110
6, 14399, Note_on_c, 2, 62, 0
6, 14400, Note_on_c, 2, 62, 110
6, 14519, Note_on_c, 2, 62, 0
6, 14520, Note_on_c, 2, 62, 110
6, 14579, Note_on_c, 2, 62, 0
6, 14580, Note_on_c, 2, 50, 110
6, 14639, Note_on_c, 2, 50, 0
6, 14640, Note_on_c, 2, 50, 110
6, 14699, Note_on_c, 2, 50, 0
6, 14700, Note_on_c, 2, 50, 110
6, 14759, Note_on_c, 2, 50, 0
6, 14760, Note_on_c, 2, 50, 110
6, 14819, Note_on_c, 2, 50, 0
6, 14820, Note_on_c, 2, 50, 110
6, 14879, Note_on_c, 2, 50, 0
6, 14880, Note_on_c, 2, 62, 110
6, 14939, Note_on_c, 2, 62, 0
6, 14940, Note_on_c, 2, 50, 110
6, 14999, Note_on_c, 2, 50, 0
6, 15000, Note_on_c, 2, 50, 110
6, 15059, Note_on_c, 2, 50, 0
6, 15060, Note_on_c, 2, 50, 110
6, 15119, Note_on_c, 2, 50, 0
6, 15120, Note_on_c, 2, 50, 110
6, 15179, Note_on_c, 2, 50, 0
6, 15180, Note_on_c, 2, 50, 110
6, 15239, Note_on_c, 2, 50, 0
6, 15240, Note_on_c, 2, 62, 110
6, 15299, Note_on_c, 2, 62, 0
6, 15300, Note_on_c, 2, 50, 110
6, 15359, Note_on_c, 2, 50, 0
6, 15360, Note_on_c, 2, 50, 110
6, 15419, Note_on_c, 2, 50, 0
6, 15420, Note_on_c, 2, 50, 110
6, 15479, Note_on_c, 2, 50, 0
6, 15480, Note_on_c, 2, 50, 110
6, 15539, Note_on_c, 2, 50, 0
6, 15540, Note_on_c, 2, 50, 110
6, 15599, Note_on_c, 2, 50, 0
6, 15600, Note_on_c, 2, 62, 110
6, 15659, Note_on_c, 2, 62, 0
6, 15660, Note_on_c, 2, 50, 110
6, 15719, Note_on_c, 2, 50, 0
6, 15720, Note_on_c, 2, 50, 110
6, 15779, Note_on_c, 2, 50, 0
6, 15780, Note_on_c, 2, 50, 110
6, 15839, Note_on_c, 2, 50, 0
6, 15840, Note_on_c, 2, 66, 110
6, 16559, Note_on_c, 2, 66, 0
6, 16560, Note_on_c, 2, 64, 110
6, 16919, Note_on_c, 2, 64, 0
6, 16980, Note_on_c, 2, 64, 110
6, 17009, Note_on_c, 2, 64, 0
6, 17010, Note_on_c, 2, 64, 110
6, 17039, Note_on_c, 2, 64, 0
6, 17040, Note_on_c, 2, 64, 110
6, 17069, Note_on_c, 2, 64, 0
6, 17070, Note_on_c, 2, 64, 110
6, 17099, Note_on_c, 2, 64, 0
6, 17100, Note_on_c, 2, 64, 110
6, 17129, Note_on_c, 2, 64, 0
6, 17130, Note_on_c, 2, 64, 110
6, 17159, Note_on_c, 2, 64, 0
6, 17160, Note_on_c, 2, 64, 110
6, 17189, Note_on_c, 2, 64, 0
6, 17190, Note_on_c, 2, 64, 110
6, 17219, Note_on_c, 2, 64, 0
6, 17220, Note_on_c, 2, 64, 110
6, 17249, Note_on_c, 2, 64, 0
6, 17250, Note_on_c, 2, 64, 110
6, 17279, Note_on_c, 2, 64, 0
6, 17280, Note_on_c, 2, 64, 110
6, 17339, Note_on_c, 2, 64, 0
6, 17340, Note_on_c, 2, 64, 110
6, 17399, Note_on_c, 2, 64, 0
6, 17400, Note_on_c, 2, 64, 110
6, 17459, Note_on_c, 2, 64, 0
6, 17460, Note_on_c, 2, 64, 110
6, 17519, Note_on_c, 2, 64, 0
6, 17520, Note_on_c, 2, 64, 110
6, 17579, Note_on_c, 2, 64, 0
6, 17580, Note_on_c, 2, 64, 110
6, 17639, Note_on_c, 2, 64, 0
6, 17700, Note_on_c, 2, 66, 110
6, 17759, Note_on_c, 2, 66, 0
6, 17760, Note_on_c, 2, 66, 110
6, 17819, Note_on_c, 2, 66, 0
6, 17820, Note_on_c, 2, 66, 110
6, 17879, Note_on_c, 2, 66, 0
6, 17880, Note_on_c, 2, 66, 110
6, 17939, Note_on_c, 2, 66, 0
6, 17940, Note_on_c, 2, 66, 110
6, 17999, Note_on_c, 2, 66, 0
6, 18060, Note_on_c, 2, 66, 110
6, 18119, Note_on_c, 2, 66, 0
6, 18120, Note_on_c, 2, 66, 110
6, 18179, Note_on_c, 2, 66, 0
6, 18180, Note_on_c, 2, 66, 110
6, 18239, Note_on_c, 2, 66, 0
6, 18240, Note_on_c, 2, 66, 110
6, 18299, Note_on_c, 2, 66, 0
6, 18300, Note_on_c, 2, 66, 110
6, 18359, Note_on_c, 2, 66, 0
6, 18480, Note_on_c, 2, 68, 110
6, 18539, Note_on_c, 2, 68, 0
6, 18540, Note_on_c, 2, 64, 110
6, 18599, Note_on_c, 2, 64, 0
6, 18840, Note_on_c, 2, 69, 110
6, 18899, Note_on_c, 2, 69, 0
6, 18900, Note_on_c, 2, 64, 110
6, 18959, Note_on_c, 2, 64, 0
6, 19200, Note_on_c, 2, 68, 110
6, 19259, Note_on_c, 2, 68, 0
6, 19260, Note_on_c, 2, 64, 110
6, 19319, Note_on_c, 2, 64, 0
6, 19500, Note_on_c, 2, 64, 110
6, 19559, Note_on_c, 2, 64, 0
6, 19560, Note_on_c, 2, 64, 110
6, 19619, Note_on_c, 2, 64, 0
6, 19620, Note_on_c, 2, 64, 110
6, 19679, Note_on_c, 2, 64, 0
6, 19680, Note_on_c, 2, 64, 110
6, 19739, Note_on_c, 2, 64, 0
6, 19740, Note_on_c, 2, 66, 110
6, 19769, Note_on_c, 2, 66, 0
6, 19770, Note_on_c, 2, 68, 110
6, 19799, Note_on_c, 2, 68, 0
6, 19800, Note_on_c, 2, 69, 110
6, 19859, Note_on_c, 2, 69, 0
6, 19860, Note_on_c, 2, 57, 110
6, 19919, Note_on_c, 2, 57, 0
6, 19920, Note_on_c, 2, 57, 110
6, 19979, Note_on_c, 2, 57, 0
6, 19980, Note_on_c, 2, 57, 110
6, 20039, Note_on_c, 2, 57, 0
6, 20040, Note_on_c, 2, 57, 110
6, 20099, Note_on_c, 2, 57, 0
6, 20100, Note_on_c, 2, 62, 110
6, 20129, Note_on_c, 2, 62, 0
6, 20130, Note_on_c, 2, 64, 110
6, 20159, Note_on_c, 2, 64, 0
6, 20160, Note_on_c, 2, 66, 110
6, 20219, Note_on_c, 2, 66, 0
6, 20220, Note_on_c, 2, 66, 110
6, 20279, Note_on_c, 2, 66, 0
6, 20280, Note_on_c, 2, 68, 110
6, 20309, Note_on_c, 2, 68, 0
6, 20310, Note_on_c, 2, 69, 110
6, 20339, Note_on_c, 2, 69, 0
6, 20340, Note_on_c, 2, 68, 110
6, 20369, Note_on_c, 2, 68, 0
6, 20370, Note_on_c, 2, 69, 110
6, 20399, Note_on_c, 2, 69, 0
6, 20400, Note_on_c, 2, 71, 110
6, 20459, Note_on_c, 2, 71, 0
6, 20460, Note_on_c, 2, 64, 110
6, 20519, Note_on_c, 2, 64, 0
6, 20520, Note_on_c, 2, 64, 110
6, 20579, Note_on_c, 2, 64, 0
6, 20580, Note_on_c, 2, 64, 110
6, 20609, Note_on_c, 2, 64, 0
6, 20610, Note_on_c, 2, 64, 110
6, 20639, Note_on_c, 2, 64, 0
6, 20640, Note_on_c, 2, 64, 110
6, 20669, Note_on_c, 2, 64, 0
6, 20670, Note_on_c, 2, 64, 110
6, 20699, Note_on_c, 2, 64, 0
6, 20700, Note_on_c, 2, 64, 110
6, 20729, Note_on_c, 2, 64, 0
6, 20730, Note_on_c, 2, 64, 110
6, 20759, Note_on_c, 2, 64, 0
6, 20760, Note_on_c, 2, 64, 110
6, 20789, Note_on_c, 2, 64, 0
6, 20790, Note_on_c, 2, 64, 110
6, 20819, Note_on_c, 2, 64, 0
6, 20820, Note_on_c, 2, 64, 110
6, 20849, Note_on_c, 2, 64, 0
6, 20850, Note_on_c, 2, 64, 110
6, 20879, Note_on_c, 2, 64, 0
6, 20880, Note_on_c, 2, 64, 110
6, 20999, Note_on_c, 2, 64, 0
6, 22380, Note_on_c, 2, 64, 110
6, 22439, Note_on_c, 2, 64, 0
6, 22440, Note_on_c, 2, 64, 110
6, 22499, Note_on_c, 2, 64, 0
6, 22500, Note_on_c, 2, 64, 110
6, 22559, Note_on_c, 2, 64, 0
6, 22560, Note_on_c, 2, 64, 110
6, 22619, Note_on_c, 2, 64, 0
6, 22620, Note_on_c, 2, 66, 110
6, 22649, Note_on_c, 2, 66, 0
6, 22650, Note_on_c, 2, 67, 110
6, 22679, Note_on_c, 2, 67, 0
6, 22680, Note_on_c, 2, 69, 110
6, 22739, Note_on_c, 2, 69, 0
6, 22740, Note_on_c, 2, 57, 110
6, 22769, Note_on_c, 2, 57, 0
6, 22770, Note_on_c, 2, 57, 110
6, 22799, Note_on_c, 2, 57, 0
6, 22800, Note_on_c, 2, 57, 110
6, 22829, Note_on_c, 2, 57, 0
6, 22830, Note_on_c, 2, 57, 110
6, 22859, Note_on_c, 2, 57, 0
6, 22860, Note_on_c, 2, 57, 110
6, 22889, Note_on_c, 2, 57, 0
6, 22890, Note_on_c, 2, 57, 110
6, 22919, Note_on_c, 2, 57, 0
6, 22920, Note_on_c, 2, 57, 110
6, 22949, Note_on_c, 2, 57, 0
6, 22950, Note_on_c, 2, 57, 110
6, 22979, Note_on_c, 2, 57, 0
6, 22980, Note_on_c, 2, 57, 110
6, 23009, Note_on_c, 2, 57, 0
6, 23010, Note_on_c, 2, 57, 110
6, 23039, Note_on_c, 2, 57, 0
6, 23040, Note_on_c, 2, 57, 110
6, 23159, Note_on_c, 2, 57, 0
6, 23280, Note_on_c, 2, 69, 110
6, 23339, Note_on_c, 2, 69, 0
6, 23340, Note_on_c, 2, 69, 110
6, 23399, Note_on_c, 2, 69, 0
6, 23400, Note_on_c, 2, 69, 110
6, 23459, Note_on_c, 2, 69, 0
6, 23460, Note_on_c, 2, 71, 110
6, 23489, Note_on_c, 2, 71, 0
6, 23490, Note_on_c, 2, 69, 110
6, 23519, Note_on_c, 2, 69, 0
6, 23520, Note_on_c, 2, 67, 110
6, 23579, Note_on_c, 2, 67, 0
6, 23580, Note_on_c, 2, 67, 110
6, 23639, Note_on_c, 2, 67, 0
6, 23640, Note_on_c, 2, 67, 110
6, 23699, Note_on_c, 2, 67, 0
6, 23700, Note_on_c, 2, 67, 110
6, 23759, Note_on_c, 2, 67, 0
6, 23760, Note_on_c, 2, 67, 110
6, 23819, Note_on_c, 2, 67, 0
6, 23820, Note_on_c, 2, 69, 110
6, 23849, Note_on_c, 2, 69, 0
6, 23850, Note_on_c, 2, 67, 110
6, 23879, Note_on_c, 2, 67, 0
6, 23880, Note_on_c, 2, 66, 110
6, 23939, Note_on_c, 2, 66, 0
6, 23940, Note_on_c, 2, 66, 110
6, 23999, Note_on_c, 2, 66, 0
6, 24000, Note_on_c, 2, 66, 110
6, 24059, Note_on_c, 2, 66, 0
6, 24060, Note_on_c, 2, 66, 110
6, 24119, Note_on_c, 2, 66, 0
6, 24120, Note_on_c, 2, 66, 110
6, 24179, Note_on_c, 2, 66, 0
6, 24180, Note_on_c, 2, 67, 110
6, 24209, Note_on_c, 2, 67, 0
6, 24210, Note_on_c, 2, 66, 110
6, 24239, Note_on_c, 2, 66, 0
6, 24240, Note_on_c, 2, 64, 110
6, 24299, Note_on_c, 2, 64, 0
6, 24300, Note_on_c, 2, 64, 110
6, 24359, Note_on_c, 2, 64, 0
6, 24360, Note_on_c, 2, 64, 110
6, 24419, Note_on_c, 2, 64, 0
6, 24420, Note_on_c, 2, 64, 110
6, 24479, Note_on_c, 2, 64, 0
6, 24480, Note_on_c, 2, 62, 110
6, 24539, Note_on_c, 2, 62, 0
6, 24540, Note_on_c, 2, 66, 110
6, 24599, Note_on_c, 2, 66, 0
6, 24600, Note_on_c, 2, 66, 110
6, 24659, Note_on_c, 2, 66, 0
6, 24660, Note_on_c, 2, 66, 110
6, 24719, Note_on_c, 2, 66, 0
6, 24720, Note_on_c, 2, 66, 110
6, 24779, Note_on_c, 2, 66, 0
6, 24780, Note_on_c, 2, 66, 110
6, 24839, Note_on_c, 2, 66, 0
6, 24900, Note_on_c, 2, 68, 110
6, 24959, Note_on_c, 2, 68, 0
6, 24960, Note_on_c, 2, 68, 110
6, 25019, Note_on_c, 2, 68, 0
6, 25020, Note_on_c, 2, 68, 110
6, 25079, Note_on_c, 2, 68, 0
6, 25080, Note_on_c, 2, 68, 110
6, 25139, Note_on_c, 2, 68, 0
6, 25140, Note_on_c, 2, 68, 110
6, 25199, Note_on_c, 2, 68, 0
6, 25260, Note_on_c, 2, 71, 110
6, 25319, Note_on_c, 2, 71, 0
6, 25320, Note_on_c, 2, 71, 110
6, 25379, Note_on_c, 2, 71, 0
6, 25380, Note_on_c, 2, 71, 110
6, 25439, Note_on_c, 2, 71, 0
6, 25440, Note_on_c, 2, 71, 110
6, 25499, Note_on_c, 2, 71, 0
6, 25500, Note_on_c, 2, 71, 110
6, 25559, Note_on_c, 2, 71, 0
6, 25560, Note_on_c, 2, 73, 110
6, 25619, Note_on_c, 2, 73, 0
6, 25620, Note_on_c, 2, 64, 110
6, 25679, Note_on_c, 2, 64, 0
6, 25680, Note_on_c, 2, 64, 110
6, 25739, Note_on_c, 2, 64, 0
6, 25740, Note_on_c, 2, 64, 110
6, 25799, Note_on_c, 2, 64, 0
6, 25800, Note_on_c, 2, 64, 110
6, 25859, Note_on_c, 2, 64, 0
6, 25860, Note_on_c, 2, 62, 110
6, 25889, Note_on_c, 2, 62, 0
6, 25890, Note_on_c, 2, 64, 110
6, 25919, Note_on_c, 2, 64, 0
6, 25920, Note_on_c, 2, 66, 110
6, 25979, Note_on_c, 2, 66, 0
6, 25980, Note_on_c, 2, 66, 110
6, 26039, Note_on_c, 2, 66, 0
6, 26040, Note_on_c, 2, 66, 110
6, 26099, Note_on_c, 2, 66, 0
6, 26100, Note_on_c, 2, 66, 110
6, 26159, Note_on_c, 2, 66, 0
6, 26160, Note_on_c, 2, 66, 110
6, 26219, Note_on_c, 2, 66, 0
6, 26220, Note_on_c, 2, 64, 110
6, 26249, Note_on_c, 2, 64, 0
6, 26250, Note_on_c, 2, 66, 110
6, 26279, Note_on_c, 2, 66, 0
6, 26280, Note_on_c, 2, 67, 110
6, 26339, Note_on_c, 2, 67, 0
6, 26340, Note_on_c, 2, 67, 110
6, 26399, Note_on_c, 2, 67, 0
6, 26400, Note_on_c, 2, 67, 110
6, 26459, Note_on_c, 2, 67, 0
6, 26460, Note_on_c, 2, 67, 110
6, 26519, Note_on_c, 2, 67, 0
6, 26520, Note_on_c, 2, 67, 110
6, 26579, Note_on_c, 2, 67, 0
6, 26580, Note_on_c, 2, 66, 110
6, 26609, Note_on_c, 2, 66, 0
6, 26610, Note_on_c, 2, 67, 110
6, 26639, Note_on_c, 2, 67, 0
6, 26640, Note_on_c, 2, 69, 110
6, 27270, Note_on_c, 2, 69, 0
6, 27270, Note_on_c, 2, 71, 110
6, 27299, Note_on_c, 2, 71, 0
6, 27300, Note_on_c, 2, 67, 110
6, 27329, Note_on_c, 2, 67, 0
6, 27330, Note_on_c, 2, 69, 110
6, 27359, Note_on_c, 2, 69, 0
6, 27360, Note_on_c, 2, 71, 110
6, 27389, Note_on_c, 2, 71, 0
6, 27390, Note_on_c, 2, 69, 110
6, 27419, Note_on_c, 2, 69, 0
6, 27420, Note_on_c, 2, 71, 110
6, 27449, Note_on_c, 2, 71, 0
6, 27450, Note_on_c, 2, 69, 110
6, 27479, Note_on_c, 2, 69, 0
6, 27480, Note_on_c, 2, 67, 110
6, 27509, Note_on_c, 2, 67, 0
6, 27510, Note_on_c, 2, 66, 110
6, 27539, Note_on_c, 2, 66, 0
6, 27540, Note_on_c, 2, 67, 110
6, 27569, Note_on_c, 2, 67, 0
6, 27570, Note_on_c, 2, 66, 110
6, 27599, Note_on_c, 2, 66, 0
6, 27600, Note_on_c, 2, 64, 110
6, 27629, Note_on_c, 2, 64, 0
6, 27630, Note_on_c, 2, 62, 110
6, 27659, Note_on_c, 2, 62, 0
6, 27660, Note_on_c, 2, 64, 110
6, 27689, Note_on_c, 2, 64, 0
6, 27690, Note_on_c, 2, 62, 110
6, 27719, Note_on_c, 2, 62, 0
6, 27720, Note_on_c, 2, 67, 110
6, 27779, Note_on_c, 2, 67, 0
6, 27780, Note_on_c, 2, 69, 110
6, 27809, Note_on_c, 2, 69, 0
6, 27810, Note_on_c, 2, 67, 110
6, 27839, Note_on_c, 2, 67, 0
6, 27840, Note_on_c, 2, 66, 110
6, 27869, Note_on_c, 2, 66, 0
6, 27870, Note_on_c, 2, 64, 110
6, 27899, Note_on_c, 2, 64, 0
6, 27900, Note_on_c, 2, 62, 110
6, 27929, Note_on_c, 2, 62, 0
6, 27930, Note_on_c, 2, 64, 110
6, 27959, Note_on_c, 2, 64, 0
6, 27960, Note_on_c, 2, 64, 110
6, 28049, Note_on_c, 2, 64, 0
6, 28050, Note_on_c, 2, 62, 110
6, 28079, Note_on_c, 2, 62, 0
6, 28080, Note_on_c, 2, 62, 110
6, 28139, Note_on_c, 2, 62, 0
6, 28140, Note_on_c, 2, 57, 110
6, 28199, Note_on_c, 2, 57, 0
6, 28440, Note_on_c, 2, 67, 110
6, 28499, Note_on_c, 2, 67, 0
6, 28500, Note_on_c, 2, 62, 110
6, 28559, Note_on_c, 2, 62, 0
6, 28800, Note_on_c, 2, 66, 110
6, 28859, Note_on_c, 2, 66, 0
6, 28860, Note_on_c, 2, 62, 110
6, 28919, Note_on_c, 2, 62, 0
6, 29220, Note_on_c, 2, 71, 110
6, 29249, Note_on_c, 2, 71, 0
6, 29250, Note_on_c, 2, 69, 110
6, 29279, Note_on_c, 2, 69, 0
6, 29280, Note_on_c, 2, 67, 110
6, 29309, Note_on_c, 2, 67, 0
6, 29310, Note_on_c, 2, 66, 110
6, 29339, Note_on_c, 2, 66, 0
6, 29340, Note_on_c, 2, 67, 110
6, 29369, Note_on_c, 2, 67, 0
6, 29370, Note_on_c, 2, 66, 110
6, 29399, Note_on_c, 2, 66, 0
6, 29400, Note_on_c, 2, 64, 110
6, 29429, Note_on_c, 2, 64, 0
6, 29430, Note_on_c, 2, 62, 110
6, 29459, Note_on_c, 2, 62, 0
6, 29460, Note_on_c, 2, 64, 110
6, 29489, Note_on_c, 2, 64, 0
6, 29490, Note_on_c, 2, 62, 110
6, 29519, Note_on_c, 2, 62, 0
6, 29520, Note_on_c, 2, 67, 110
6, 29579, Note_on_c, 2, 67, 0
6, 29580, Note_on_c, 2, 69, 110
6, 29609, Note_on_c, 2, 69, 0
6, 29610, Note_on_c, 2, 67, 110
6, 29639, Note_on_c, 2, 67, 0
6, 29640, Note_on_c, 2, 66, 110
6, 29669, Note_on_c, 2, 66, 0
6, 29670, Note_on_c, 2, 64, 110
6, 29699, Note_on_c, 2, 64, 0
6, 29700, Note_on_c, 2, 62, 110
6, 29729, Note_on_c, 2, 62, 0
6, 29730, Note_on_c, 2, 64, 110
6, 29759, Note_on_c, 2, 64, 0
6, 29760, Note_on_c, 2, 64, 110
6, 29849, Note_on_c, 2, 64, 0
6, 29850, Note_on_c, 2, 62, 110
6, 29879, Note_on_c, 2, 62, 0
6, 29880, Note_on_c, 2, 62, 110
6, 29999, Note_on_c, 2, 62, 0
6, 30240, Note_on_c, 2, 69, 110
6, 30299, Note_on_c, 2, 69, 0
6, 30300, Note_on_c, 2, 57, 110
6, 30359, Note_on_c, 2, 57, 0
6, 30360, Note_on_c, 2, 57, 110
6, 30419, Note_on_c, 2, 57, 0
6, 30420, Note_on_c, 2, 57, 110
6, 30479, Note_on_c, 2, 57, 0
6, 30480, Note_on_c, 2, 57, 110
6, 30539, Note_on_c, 2, 57, 0
6, 30540, Note_on_c, 2, 57, 110
6, 30599, Note_on_c, 2, 57, 0
6, 30600, Note_on_c, 2, 64, 110
6, 30719, Note_on_c, 2, 64, 0
6, 30960, Note_on_c, 2, 66, 110
6, 31019, Note_on_c, 2, 66, 0
6, 31020, Note_on_c, 2, 54, 110
6, 31079, Note_on_c, 2, 54, 0
6, 31080, Note_on_c, 2, 54, 110
6, 31139, Note_on_c, 2, 54, 0
6, 31140, Note_on_c, 2, 54, 110
6, 31199, Note_on_c, 2, 54, 0
6, 31200, Note_on_c, 2, 54, 110
6, 31259, Note_on_c, 2, 54, 0
6, 31260, Note_on_c, 2, 54, 110
6, 31319, Note_on_c, 2, 54, 0
6, 31800, Note_on_c, 2, 66, 110
6, 31859, Note_on_c, 2, 66, 0
6, 31860, Note_on_c, 2, 54, 110
6, 31919, Note_on_c, 2, 54, 0
6, 31920, Note_on_c, 2, 54, 110
6, 31979, Note_on_c, 2, 54, 0
6, 31980, Note_on_c, 2, 54, 110
6, 32039, Note_on_c, 2, 54, 0
6, 32040, Note_on_c, 2, 54, 110
6, 32099, Note_on_c, 2, 54, 0
6, 32100, Note_on_c, 2, 54, 110
6, 32159, Note_on_c, 2, 54, 0
6, 32160, Note_on_c, 2, 66, 110
6, 32219, Note_on_c, 2, 66, 0
6, 32220, Note_on_c, 2, 54, 110
6, 32279, Note_on_c, 2, 54, 0
6, 32280, Note_on_c, 2, 54, 110
6, 32339, Note_on_c, 2, 54, 0
6, 32340, Note_on_c, 2, 54, 110
6, 32399, Note_on_c, 2, 54, 0
6, 32400, Note_on_c, 2, 54, 110
6, 32459, Note_on_c, 2, 54, 0
6, 32460, Note_on_c, 2, 54, 110
6, 32519, Note_on_c, 2, 54, 0
6, 32520, Note_on_c, 2, 66, 110
6, 32579, Note_on_c, 2, 66, 0
6, 32580, Note_on_c, 2, 54, 110
6, 32639, Note_on_c, 2, 54, 0
6, 32640, Note_on_c, 2, 54, 110
6, 32699, Note_on_c, 2, 54, 0
6, 32700, Note_on_c, 2, 54, 110
6, 32759, Note_on_c, 2, 54, 0
6, 32760, Note_on_c, 2, 54, 110
6, 32879, Note_on_c, 2, 54, 0
6, 36360, Note_on_c, 2, 66, 110
6, 36419, Note_on_c, 2, 66, 0
6, 36420, Note_on_c, 2, 54, 110
6, 36479, Note_on_c, 2, 54, 0
6, 36480, Note_on_c, 2, 54, 110
6, 36539, Note_on_c, 2, 54, 0
6, 36540, Note_on_c, 2, 54, 110
6, 36599, Note_on_c, 2, 54, 0
6, 36600, Note_on_c, 2, 54, 110
6, 36659, Note_on_c, 2, 54, 0
6, 36660, Note_on_c, 2, 54, 110
6, 36719, Note_on_c, 2, 54, 0
6, 36720, Note_on_c, 2, 66, 110
6, 36779, Note_on_c, 2, 66, 0
6, 36780, Note_on_c, 2, 54, 110
6, 36839, Note_on_c, 2, 54, 0
6, 36840, Note_on_c, 2, 54, 110
6, 36899, Note_on_c, 2, 54, 0
6, 36900, Note_on_c, 2, 54, 110
6, 36959, Note_on_c, 2, 54, 0
6, 36960, Note_on_c, 2, 54, 110
6, 37019, Note_on_c, 2, 54, 0
6, 37020, Note_on_c, 2, 54, 110
6, 37079, Note_on_c, 2, 54, 0
6, 37080, Note_on_c, 2, 66, 110
6, 37139, Note_on_c, 2, 66, 0
6, 37140, Note_on_c, 2, 54, 110
6, 37199, Note_on_c, 2, 54, 0
6, 37200, Note_on_c, 2, 54, 110
6, 37259, Note_on_c, 2, 54, 0
6, 37260, Note_on_c, 2, 54, 110
6, 37319, Note_on_c, 2, 54, 0
6, 37320, Note_on_c, 2, 54, 110
6, 37379, Note_on_c, 2, 54, 0
6, 37380, Note_on_c, 2, 54, 110
6, 37439, Note_on_c, 2, 54, 0
6, 37440, Note_on_c, 2, 54, 110
6, 37499, Note_on_c, 2, 54, 0
6, 38040, Note_on_c, 2, 74, 110
6, 38099, Note_on_c, 2, 74, 0
6, 38100, Note_on_c, 2, 71, 110
6, 38159, Note_on_c, 2, 71, 0
6, 38400, Note_on_c, 2, 73, 110
6, 38459, Note_on_c, 2, 73, 0
6, 38460, Note_on_c, 2, 69, 110
6, 38519, Note_on_c, 2, 69, 0
6, 38760, Note_on_c, 2, 71, 110
6, 38819, Note_on_c, 2, 71, 0
6, 38820, Note_on_c, 2, 68, 110
6, 38879, Note_on_c, 2, 68, 0
6, 39120, Note_on_c, 2, 69, 110
6, 39179, Note_on_c, 2, 69, 0
6, 39180, Note_on_c, 2, 66, 110
6, 39239, Note_on_c, 2, 66, 0
6, 40200, Note_on_c, 2, 57, 110
6, 40260, Note_on_c, 2, 57, 0
6, 40260, Note_on_c, 2, 54, 110
6, 40320, Note_on_c, 2, 54, 0
6, 40560, Note_on_c, 2, 62, 110
6, 40620, Note_on_c, 2, 62, 0
6, 40620, Note_on_c, 2, 57, 110
6, 40680, Note_on_c, 2, 57, 0
6, 40920, Note_on_c, 2, 66, 110
6, 40980, Note_on_c, 2, 66, 0
6, 40980, Note_on_c, 2, 62, 110
6, 41040, Note_on_c, 2, 62, 0
6, 41280, Note_on_c, 2, 69, 110
6, 41340, Note_on_c, 2, 69, 0
6, 41340, Note_on_c, 2, 66, 110
6, 41400, Note_on_c, 2, 66, 0
6, 41400, Note_on_c, 2, 66, 110
6, 42120, Note_on_c, 2, 66, 0
6, 42120, Note_on_c, 2, 64, 110
6, 42540, Note_on_c, 2, 64, 0
6, 42540, Note_on_c, 2, 64, 110
6, 42570, Note_on_c, 2, 64, 0
6, 42570, Note_on_c, 2, 64, 110
6, 42600, Note_on_c, 2, 64, 0
6, 42600, Note_on_c, 2, 64, 110
6, 42630, Note_on_c, 2, 64, 0
6, 42630, Note_on_c, 2, 64, 110
6, 42660, Note_on_c, 2, 64, 0
6, 42660, Note_on_c, 2, 64, 110
6, 42690, Note_on_c, 2, 64, 0
6, 42690, Note_on_c, 2, 64, 110
6, 42720, Note_on_c, 2, 64, 0
6, 42720, Note_on_c, 2, 64, 110
6, 42750, Note_on_c, 2, 64, 0
6, 42750, Note_on_c, 2, 64, 110
6, 42780, Note_on_c, 2, 64, 0
6, 42780, Note_on_c, 2, 64, 110
6, 42810, Note_on_c, 2, 64, 0
6, 42810, Note_on_c, 2, 64, 110
6, 42840, Note_on_c, 2, 64, 0
6, 42840, Note_on_c, 2, 64, 110
6, 42960, Note_on_c, 2, 64, 0
6, 44340, Note_on_c, 2, 64, 110
6, 44399, Note_on_c, 2, 64, 0
6, 44400, Note_on_c, 2, 64, 110
6, 44459, Note_on_c, 2, 64, 0
6, 44460, Note_on_c, 2, 64, 110
6, 44519, Note_on_c, 2, 64, 0
6, 44520, Note_on_c, 2, 64, 110
6, 44579, Note_on_c, 2, 64, 0
6, 44580, Note_on_c, 2, 66, 110
6, 44609, Note_on_c, 2, 66, 0
6, 44610, Note_on_c, 2, 67, 110
6, 44639, Note_on_c, 2, 67, 0
6, 44640, Note_on_c, 2, 69, 110
6, 44699, Note_on_c, 2, 69, 0
6, 44700, Note_on_c, 2, 57, 110
6, 44729, Note_on_c, 2, 57, 0
6, 44730, Note_on_c, 2, 57, 110
6, 44759, Note_on_c, 2, 57, 0
6, 44760, Note_on_c, 2, 57, 110
6, 44789, Note_on_c, 2, 57, 0
6, 44790, Note_on_c, 2, 57, 110
6, 44819, Note_on_c, 2, 57, 0
6, 44820, Note_on_c, 2, 57, 110
6, 44849, Note_on_c, 2, 57, 0
6, 44850, Note_on_c, 2, 57, 110
6, 44879, Note_on_c, 2, 57, 0
6, 44880, Note_on_c, 2, 57, 110
6, 44909, Note_on_c, 2, 57, 0
6, 44910, Note_on_c, 2, 57, 110
6, 44939, Note_on_c, 2, 57, 0
6, 44940, Note_on_c, 2, 57, 110
6, 44969, Note_on_c, 2, 57, 0
6, 44970, Note_on_c, 2, 57, 110
6, 44999, Note_on_c, 2, 57, 0
6, 45000, Note_on_c, 2, 57, 110
6, 45119, Note_on_c, 2, 57, 0
6, 45240, Note_on_c, 2, 69, 110
6, 45299, Note_on_c, 2, 69, 0
6, 45300, Note_on_c, 2, 69, 110
6, 45359, Note_on_c, 2, 69, 0
6, 45360, Note_on_c, 2, 69, 110
6, 45419, Note_on_c, 2, 69, 0
6, 45420, Note_on_c, 2, 71, 110
6, 45449, Note_on_c, 2, 71, 0
6, 45450, Note_on_c, 2, 69, 110
6, 45479, Note_on_c, 2, 69, 0
6, 45480, Note_on_c, 2, 67, 110
6, 45539, Note_on_c, 2, 67, 0
6, 45540, Note_on_c, 2, 67, 110
6, 45599, Note_on_c, 2, 67, 0
6, 45600, Note_on_c, 2, 67, 110
6, 45659, Note_on_c, 2, 67, 0
6, 45660, Note_on_c, 2, 67, 110
6, 45719, Note_on_c, 2, 67, 0
6, 45720, Note_on_c, 2, 67, 110
6, 45779, Note_on_c, 2, 67, 0
6, 45780, Note_on_c, 2, 69, 110
6, 45809, Note_on_c, 2, 69, 0
6, 45810, Note_on_c, 2, 67, 110
6, 45839, Note_on_c, 2, 67, 0
6, 45840, Note_on_c, 2, 66, 110
6, 45899, Note_on_c, 2, 66, 0
6, 45900, Note_on_c, 2, 66, 110
6, 45959, Note_on_c, 2, 66, 0
6, 45960, Note_on_c, 2, 66, 110
6, 46019, Note_on_c, 2, 66, 0
6, 46020, Note_on_c, 2, 66, 110
6, 46079, Note_on_c, 2, 66, 0
6, 46080, Note_on_c, 2, 66, 110
6, 46139, Note_on_c, 2, 66, 0
6, 46140, Note_on_c, 2, 67, 110
6, 46169, Note_on_c, 2, 67, 0
6, 46170, Note_on_c, 2, 66, 110
6, 46199, Note_on_c, 2, 66, 0
6, 46200, Note_on_c, 2, 64, 110
6, 46259, Note_on_c, 2, 64, 0
6, 46260, Note_on_c, 2, 64, 110
6, 46319, Note_on_c, 2, 64, 0
6, 46320, Note_on_c, 2, 64, 110
6, 46379, Note_on_c, 2, 64, 0
6, 46380, Note_on_c, 2, 64, 110
6, 46439, Note_on_c, 2, 64, 0
6, 46440, Note_on_c, 2, 62, 110
6, 46499, Note_on_c, 2, 62, 0
6, 46500, Note_on_c, 2, 66, 110
6, 46559, Note_on_c, 2, 66, 0
6, 46560, Note_on_c, 2, 66, 110
6, 46619, Note_on_c, 2, 66, 0
6, 46620, Note_on_c, 2, 66, 110
6, 46679, Note_on_c, 2, 66, 0
6, 46680, Note_on_c, 2, 66, 110
6, 46739, Note_on_c, 2, 66, 0
6, 46740, Note_on_c, 2, 66, 110
6, 46799, Note_on_c, 2, 66, 0
6, 46860, Note_on_c, 2, 68, 110
6, 46919, Note_on_c, 2, 68, 0
6, 46920, Note_on_c, 2, 68, 110
6, 46979, Note_on_c, 2, 68, 0
6, 46980, Note_on_c, 2, 68, 110
6, 47039, Note_on_c, 2, 68, 0
6, 47040, Note_on_c, 2, 68, 110
6, 47099, Note_on_c, 2, 68, 0
6, 47100, Note_on_c, 2, 68, 110
6, 47159, Note_on_c, 2, 68, 0
6, 47220, Note_on_c, 2, 71, 110
6, 47279, Note_on_c, 2, 71, 0
6, 47280, Note_on_c, 2, 71, 110
6, 47339, Note_on_c, 2, 71, 0
6, 47340, Note_on_c, 2, 71, 110
6, 47399, Note_on_c, 2, 71, 0
6, 47400, Note_on_c, 2, 71, 110
6, 47459, Note_on_c, 2, 71, 0
6, 47460, Note_on_c, 2, 71, 110
6, 47519, Note_on_c, 2, 71, 0
6, 47520, Note_on_c, 2, 73, 110
6, 47579, Note_on_c, 2, 73, 0
6, 47580, Note_on_c, 2, 64, 110
6, 47639, Note_on_c, 2, 64, 0
6, 47640, Note_on_c, 2, 64, 110
6, 47699, Note_on_c, 2, 64, 0
6, 47700, Note_on_c, 2, 64, 110
6, 47759, Note_on_c, 2, 64, 0
6, 47760, Note_on_c, 2, 64, 110
6, 47819, Note_on_c, 2, 64, 0
6, 47820, Note_on_c, 2, 62, 110
6, 47849, Note_on_c, 2, 62, 0
6, 47850, Note_on_c, 2, 64, 110
6, 47879, Note_on_c, 2, 64, 0
6, 47880, Note_on_c, 2, 66, 110
6, 47939, Note_on_c, 2, 66, 0
6, 47940, Note_on_c, 2, 66, 110
6, 47999, Note_on_c, 2, 66, 0
6, 48000, Note_on_c, 2, 66, 110
6, 48059, Note_on_c, 2, 66, 0
6, 48060, Note_on_c, 2, 66, 110
6, 48119, Note_on_c, 2, 66, 0
6, 48120, Note_on_c, 2, 66, 110
6, 48179, Note_on_c, 2, 66, 0
6, 48180, Note_on_c, 2, 64, 110
6, 48209, Note_on_c, 2, 64, 0
6, 48210, Note_on_c, 2, 66, 110
6, 48239, Note_on_c, 2, 66, 0
6, 48240, Note_on_c, 2, 67, 110
6, 48299, Note_on_c, 2, 67, 0
6, 48300, Note_on_c, 2, 67, 110
6, 48359, Note_on_c, 2, 67, 0
6, 48360, Note_on_c, 2, 67, 110
6, 48419, Note_on_c, 2, 67, 0
6, 48420, Note_on_c, 2, 67, 110
6, 48479, Note_on_c, 2, 67, 0
6, 48480, Note_on_c, 2, 67, 110
6, 48539, Note_on_c, 2, 67, 0
6, 48540, Note_on_c, 2, 66, 110
6, 48569, Note_on_c, 2, 66, 0
6, 48570, Note_on_c, 2, 67, 110
6, 48599, Note_on_c, 2, 67, 0
6, 48600, Note_on_c, 2, 69, 110
6, 49230, Note_on_c, 2, 69, 0
6, 49230, Note_on_c, 2, 71, 110
6, 49259, Note_on_c, 2, 71, 0
6, 49260, Note_on_c, 2, 67, 110
6, 49289, Note_on_c, 2, 67, 0
6, 49290, Note_on_c, 2, 69, 110
6, 49319, Note_on_c, 2, 69, 0
6, 49320, Note_on_c, 2, 71, 110
6, 49349, Note_on_c, 2, 71, 0
6, 49350, Note_on_c, 2, 69, 110
6, 49379, Note_on_c, 2, 69, 0
6, 49380, Note_on_c, 2, 71, 110
6, 49409, Note_on_c, 2, 71, 0
6, 49410, Note_on_c, 2, 69, 110
6, 49439, Note_on_c, 2, 69, 0
6, 49440, Note_on_c, 2, 67, 110
6, 49469, Note_on_c, 2, 67, 0
6, 49470, Note_on_c, 2, 66, 110
6, 49499, Note_on_c, 2, 66, 0
6, 49500, Note_on_c, 2, 67, 110
6, 49529, Note_on_c, 2, 67, 0
6, 49530, Note_on_c, 2, 66, 110
6, 49559, Note_on_c, 2, 66, 0
6, 49560, Note_on_c, 2, 64, 110
6, 49589, Note_on_c, 2, 64, 0
6, 49590, Note_on_c, 2, 62, 110
6, 49619, Note_on_c, 2, 62, 0
6, 49620, Note_on_c, 2, 64, 110
6, 49649, Note_on_c, 2, 64, 0
6, 49650, Note_on_c, 2, 62, 110
6, 49679, Note_on_c, 2, 62, 0
6, 49680, Note_on_c, 2, 67, 110
6, 49739, Note_on_c, 2, 67, 0
6, 49740, Note_on_c, 2, 69, 110
6, 49769, Note_on_c, 2, 69, 0
6, 49770, Note_on_c, 2, 67, 110
6, 49799, Note_on_c, 2, 67, 0
6, 49800, Note_on_c, 2, 66, 110
6, 49829, Note_on_c, 2, 66, 0
6, 49830, Note_on_c, 2, 64, 110
6, 49859, Note_on_c, 2, 64, 0
6, 49860, Note_on_c, 2, 62, 110
6, 49889, Note_on_c, 2, 62, 0
6, 49890, Note_on_c, 2, 64, 110
6, 49919, Note_on_c, 2, 64, 0
6, 49920, Note_on_c, 2, 64, 110
6, 50009, Note_on_c, 2, 64, 0
6, 50010, Note_on_c, 2, 62, 110
6, 50039, Note_on_c, 2, 62, 0
6, 50040, Note_on_c, 2, 62, 110
6, 50099, Note_on_c, 2, 62, 0
6, 50100, Note_on_c, 2, 50, 110
6, 50159, Note_on_c, 2, 50, 0
6, 50160, Note_on_c, 2, 50, 110
6, 50219, Note_on_c, 2, 50, 0
6, 50220, Note_on_c, 2, 50, 110
6, 50279, Note_on_c, 2, 50, 0
6, 50280, Note_on_c, 2, 50, 110
6, 50339, Note_on_c, 2, 50, 0
6, 50340, Note_on_c, 2, 50, 110
6, 50399, Note_on_c, 2, 50, 0
6, 50400, Note_on_c, 2, 62, 110
6, 50459, Note_on_c, 2, 62, 0
6, 50460, Note_on_c, 2, 50, 110
6, 50519, Note_on_c, 2, 50, 0
6, 50520, Note_on_c, 2, 50, 110
6, 50579, Note_on_c, 2, 50, 0
6, 50580, Note_on_c, 2, 50, 110
6, 50639, Note_on_c, 2, 50, 0
6, 50640, Note_on_c, 2, 50, 110
6, 50699, Note_on_c, 2, 50, 0
6, 50700, Note_on_c, 2, 50, 110
6, 50759, Note_on_c, 2, 50, 0
6, 50760, Note_on_c, 2, 62, 110
6, 50819, Note_on_c, 2, 62, 0
6, 50820, Note_on_c, 2, 50, 110
6, 50879, Note_on_c, 2, 50, 0
6, 50880, Note_on_c, 2, 50, 110
6, 50939, Note_on_c, 2, 50, 0
6, 50940, Note_on_c, 2, 50, 110
6, 50999, Note_on_c, 2, 50, 0
6, 51000, Note_on_c, 2, 50, 110
6, 51059, Note_on_c, 2, 50, 0
6, 51060, Note_on_c, 2, 50, 110
6, 51119, Note_on_c, 2, 50, 0
6, 51120, Note_on_c, 2, 62, 110
6, 51179, Note_on_c, 2, 62, 0
6, 51180, Note_on_c, 2, 50, 110
6, 51239, Note_on_c, 2, 50, 0
6, 51240, Note_on_c, 2, 50, 110
6, 51299, Note_on_c, 2, 50, 0
6, 51300, Note_on_c, 2, 50, 110
6, 51359, Note_on_c, 2, 50, 0
6, 51360, Note_on_c, 2, 50, 110
6, 51419, Note_on_c, 2, 50, 0
6, 51420, Note_on_c, 2, 50, 110
6, 51479, Note_on_c, 2, 50, 0
6, 51540, Note_on_c, 2, 62, 110
6, 51569, Note_on_c, 2, 62, 0
6, 51570, Note_on_c, 2, 64, 110
6, 51599, Note_on_c, 2, 64, 0
6, 51600, Note_on_c, 2, 66, 110
6, 51629, Note_on_c, 2, 66, 0
6, 51630, Note_on_c, 2, 67, 110
6, 51659, Note_on_c, 2, 67, 0
6, 51660, Note_on_c, 2, 69, 110
6, 51689, Note_on_c, 2, 69, 0
6, 51690, Note_on_c, 2, 71, 110
6, 51719, Note_on_c, 2, 71, 0
6, 51720, Note_on_c, 2, 69, 110
6, 51779, Note_on_c, 2, 69, 0
6, 51780, Note_on_c, 2, 67, 110
6, 51809, Note_on_c, 2, 67, 0
6, 51810, Note_on_c, 2, 66, 110
6, 51839, Note_on_c, 2, 66, 0
6, 51840, Note_on_c, 2, 64, 110
6, 51899, Note_on_c, 2, 64, 0
6, 51900, Note_on_c, 2, 64, 110
6, 51959, Note_on_c, 2, 64, 0
6, 51960, Note_on_c, 2, 64, 110
6, 52019, Note_on_c, 2, 64, 0
6, 52020, Note_on_c, 2, 64, 110
6, 52079, Note_on_c, 2, 64, 0
6, 52080, Note_on_c, 2, 64, 110
6, 52139, Note_on_c, 2, 64, 0
6, 52140, Note_on_c, 2, 62, 110
6, 52169, Note_on_c, 2, 62, 0
6, 52170, Note_on_c, 2, 64, 110
6, 52199, Note_on_c, 2, 64, 0
6, 52200, Note_on_c, 2, 66, 110
6, 52259, Note_on_c, 2, 66, 0
6, 52260, Note_on_c, 2, 66, 110
6, 52319, Note_on_c, 2, 66, 0
6, 52320, Note_on_c, 2, 66, 110
6, 52379, Note_on_c, 2, 66, 0
6, 52380, Note_on_c, 2, 66, 110
6, 52439, Note_on_c, 2, 66, 0
6, 52440, Note_on_c, 2, 66, 110
6, 52499, Note_on_c, 2, 66, 0
6, 52500, Note_on_c, 2, 64, 110
6, 52529, Note_on_c, 2, 64, 0
6, 52530, Note_on_c, 2, 66, 110
6, 52559, Note_on_c, 2, 66, 0
6, 52560, Note_on_c, 2, 67, 110
6, 52619, Note_on_c, 2, 67, 0
6, 52620, Note_on_c, 2, 67, 110
6, 52679, Note_on_c, 2, 67, 0
6, 52680, Note_on_c, 2, 67, 110
6, 52739, Note_on_c, 2, 67, 0
6, 52740, Note_on_c, 2, 67, 110
6, 52799, Note_on_c, 2, 67, 0
6, 52800, Note_on_c, 2, 67, 110
6, 52859, Note_on_c, 2, 67, 0
6, 52860, Note_on_c, 2, 66, 110
6, 52889, Note_on_c, 2, 66, 0
6, 52890, Note_on_c, 2, 67, 110
6, 52919, Note_on_c, 2, 67, 0
6, 52920, Note_on_c, 2, 69, 110
6, 53550, Note_on_c, 2, 69, 0
6, 53550, Note_on_c, 2, 71, 110
6, 53579, Note_on_c, 2, 71, 0
6, 53580, Note_on_c, 2, 67, 110
6, 53609, Note_on_c, 2, 67, 0
6, 53610, Note_on_c, 2, 69, 110
6, 53639, Note_on_c, 2, 69, 0
6, 53640, Note_on_c, 2, 71, 110
6, 53669, Note_on_c, 2, 71, 0
6, 53670, Note_on_c, 2, 69, 110
6, 53699, Note_on_c, 2, 69, 0
6, 53700, Note_on_c, 2, 71, 110
6, 53729, Note_on_c, 2, 71, 0
6, 53730, Note_on_c, 2, 69, 110
6, 53759, Note_on_c, 2, 69, 0
6, 53760, Note_on_c, 2, 67, 110
6, 53789, Note_on_c, 2, 67, 0
6, 53790, Note_on_c, 2, 66, 110
6, 53819, Note_on_c, 2, 66, 0
6, 53820, Note_on_c, 2, 67, 110
6, 53849, Note_on_c, 2, 67, 0
6, 53850, Note_on_c, 2, 66, 110
6, 53879, Note_on_c, 2, 66, 0
6, 53880, Note_on_c, 2, 64, 110
6, 53909, Note_on_c, 2, 64, 0
6, 53910, Note_on_c, 2, 62, 110
6, 53939, Note_on_c, 2, 62, 0
6, 53940, Note_on_c, 2, 64, 110
6, 53969, Note_on_c, 2, 64, 0
6, 53970, Note_on_c, 2, 62, 110
6, 53999, Note_on_c, 2, 62, 0
6, 54000, Note_on_c, 2, 67, 110
6, 54059, Note_on_c, 2, 67, 0
6, 54060, Note_on_c, 2, 69, 110
6, 54089, Note_on_c, 2, 69, 0
6, 54090, Note_on_c, 2, 67, 110
6, 54119, Note_on_c, 2, 67, 0
6, 54120, Note_on_c, 2, 66, 110
6, 54149, Note_on_c, 2, 66, 0
6, 54150, Note_on_c, 2, 64, 110
6, 54179, Note_on_c, 2, 64, 0
6, 54180, Note_on_c, 2, 62, 110
6, 54209, Note_on_c, 2, 62, 0
6, 54210, Note_on_c, 2, 64, 110
6, 54239, Note_on_c, 2, 64, 0
6, 54240, Note_on_c, 2, 64, 110
6, 54329, Note_on_c, 2, 64, 0
6, 54330, Note_on_c, 2, 62, 110
6, 54359, Note_on_c, 2, 62, 0
6, 54360, Note_on_c, 2, 62, 110
6, 54479, Note_on_c, 2, 62, 0
6, 54480, Note_on_c, 2, 62, 110
6, 54539, Note_on_c, 2, 62, 0
6, 54540, Note_on_c, 2, 50, 110
6, 54599, Note_on_c, 2, 50, 0
6, 54600, Note_on_c, 2, 50, 110
6, 54659, Note_on_c, 2, 50, 0
6, 54660, Note_on_c, 2, 50, 110
6, 54719, Note_on_c, 2, 50, 0
6, 54720, Note_on_c, 2, 50, 110
6, 54779, Note_on_c, 2, 50, 0
6, 54780, Note_on_c, 2, 50, 110
6, 54839, Note_on_c, 2, 50, 0
6, 54840, Note_on_c, 2, 62, 110
6, 54899, Note_on_c, 2, 62, 0
6, 54900, Note_on_c, 2, 50, 110
6, 54959, Note_on_c, 2, 50, 0
6, 54960, Note_on_c, 2, 50, 110
6, 55019, Note_on_c, 2, 50, 0
6, 55020, Note_on_c, 2, 50, 110
6, 55079, Note_on_c, 2, 50, 0
6, 55080, Note_on_c, 2, 50, 110
6, 55139, Note_on_c, 2, 50, 0
6, 55140, Note_on_c, 2, 50, 110
6, 55199, Note_on_c, 2, 50, 0
6, 55200, Note_on_c, 2, 62, 110
6, 55259, Note_on_c, 2, 62, 0
6, 55260, Note_on_c, 2, 50, 110
6, 55319, Note_on_c, 2, 50, 0
6, 55320, Note_on_c, 2, 50, 110
6, 55379, Note_on_c, 2, 50, 0
6, 55380, Note_on_c, 2, 50, 110
6, 55439, Note_on_c, 2, 50, 0
6, 55440, Note_on_c, 2, 50, 110
6, 55499, Note_on_c, 2, 50, 0
6, 55500, Note_on_c, 2, 50, 110
6, 55559, Note_on_c, 2, 50, 0
6, 55560, Note_on_c, 2, 62, 110
6, 55619, Note_on_c, 2, 62, 0
6, 55620, Note_on_c, 2, 50, 110
6, 55679, Note_on_c, 2, 50, 0
6, 55680, Note_on_c, 2, 50, 110
6, 55739, Note_on_c, 2, 50, 0
6, 55740, Note_on_c, 2, 50, 110
6, 55799, Note_on_c, 2, 50, 0
6, 55800, Note_on_c, 2, 66, 110
6, 56519, Note_on_c, 2, 66, 0
6, 56520, Note_on_c, 2, 64, 110
6, 56879, Note_on_c, 2, 64, 0
6, 56940, Note_on_c, 2, 64, 110
6, 56969, Note_on_c, 2, 64, 0
6, 56970, Note_on_c, 2, 64, 110
6, 56999, Note_on_c, 2, 64, 0
6, 57000, Note_on_c, 2, 64, 110
6, 57029, Note_on_c, 2, 64, 0
6, 57030, Note_on_c, 2, 64, 110
6, 57059, Note_on_c, 2, 64, 0
6, 57060, Note_on_c, 2, 64, 110
6, 57089, Note_on_c, 2, 64, 0
6, 57090, Note_on_c, 2, 64, 110
6, 57119, Note_on_c, 2, 64, 0
6, 57120, Note_on_c, 2, 64, 110
6, 57149, Note_on_c, 2, 64, 0
6, 57150, Note_on_c, 2, 64, 110
6, 57179, Note_on_c, 2, 64, 0
6, 57180, Note_on_c, 2, 64, 110
6, 57209, Note_on_c, 2, 64, 0
6, 57210, Note_on_c, 2, 64, 110
6, 57239, Note_on_c, 2, 64, 0
6, 57240, Note_on_c, 2, 64, 110
6, 57299, Note_on_c, 2, 64, 0
6, 57300, Note_on_c, 2, 64, 110
6, 57359, Note_on_c, 2, 64, 0
6, 57360, Note_on_c, 2, 64, 110
6, 57419, Note_on_c, 2, 64, 0
6, 57420, Note_on_c, 2, 64, 110
6, 57479, Note_on_c, 2, 64, 0
6, 57480, Note_on_c, 2, 64, 110
6, 57539, Note_on_c, 2, 64, 0
6, 57540, Note_on_c, 2, 64, 110
6, 57599, Note_on_c, 2, 64, 0
6, 57660, Note_on_c, 2, 66, 110
6, 57719, Note_on_c, 2, 66, 0
6, 57720, Note_on_c, 2, 66, 110
6, 57779, Note_on_c, 2, 66, 0
6, 57780, Note_on_c, 2, 66, 110
6, 57839, Note_on_c, 2, 66, 0
6, 57840, Note_on_c, 2, 66, 110
6, 57899, Note_on_c, 2, 66, 0
6, 57900, Note_on_c, 2, 66, 110
6, 57959, Note_on_c, 2, 66, 0
6, 58020, Note_on_c, 2, 66, 110
6, 58079, Note_on_c, 2, 66, 0
6, 58080, Note_on_c, 2, 66, 110
6, 58139, Note_on_c, 2, 66, 0
6, 58140, Note_on_c, 2, 66, 110
6, 58199, Note_on_c, 2, 66, 0
6, 58200, Note_on_c, 2, 66, 110
6, 58259, Note_on_c, 2, 66, 0
6, 58260, Note_on_c, 2, 66, 110
6, 58319, Note_on_c, 2, 66, 0
6, 58440, Note_on_c, 2, 68, 110
6, 58499, Note_on_c, 2, 68, 0
6, 58500, Note_on_c, 2, 64, 110
6, 58559, Note_on_c, 2, 64, 0
6, 58800, Note_on_c, 2, 69, 110
6, 58859, Note_on_c, 2, 69, 0
6, 58860, Note_on_c, 2, 64, 110
6, 58919, Note_on_c, 2, 64, 0
6, 59160, Note_on_c, 2, 68, 110
6, 59219, Note_on_c, 2, 68, 0
6, 59220, Note_on_c, 2, 64, 110
6, 59279, Note_on_c, 2, 64, 0
6, 59460, Note_on_c, 2, 64, 110
6, 59519, Note_on_c, 2, 64, 0
6, 59520, Note_on_c, 2, 64, 110
6, 59579, Note_on_c, 2, 64, 0
6, 59580, Note_on_c, 2, 64, 110
6, 59639, Note_on_c, 2, 64, 0
6, 59640, Note_on_c, 2, 64, 110
6, 59699, Note_on_c, 2, 64, 0
6, 59700, Note_on_c, 2, 66, 110
6, 59729, Note_on_c, 2, 66, 0
6, 59730, Note_on_c, 2, 68, 110
6, 59759, Note_on_c, 2, 68, 0
6, 59760, Note_on_c, 2, 69, 110
6, 59819, Note_on_c, 2, 69, 0
6, 59820, Note_on_c, 2, 57, 110
6, 59879, Note_on_c, 2, 57, 0
6, 59880, Note_on_c, 2, 57, 110
6, 59939, Note_on_c, 2, 57, 0
6, 59940, Note_on_c, 2, 57, 110
6, 59999, Note_on_c, 2, 57, 0
6, 60000, Note_on_c, 2, 57, 110
6, 60059, Note_on_c, 2, 57, 0
6, 60060, Note_on_c, 2, 62, 110
6, 60089, Note_on_c, 2, 62, 0
6, 60090, Note_on_c, 2, 64, 110
6, 60119, Note_on_c, 2, 64, 0
6, 60120, Note_on_c, 2, 66, 110
6, 60179, Note_on_c, 2, 66, 0
6, 60180, Note_on_c, 2, 66, 110
6, 60239, Note_on_c, 2, 66, 0
6, 60240, Note_on_c, 2, 68, 110
6, 60269, Note_on_c, 2, 68, 0
6, 60270, Note_on_c, 2, 69, 110
6, 60299, Note_on_c, 2, 69, 0
6, 60300, Note_on_c, 2, 68, 110
6, 60329, Note_on_c, 2, 68, 0
6, 60330, Note_on_c, 2, 69, 110
6, 60359, Note_on_c, 2, 69, 0
6, 60360, Note_on_c, 2, 71, 110
6, 60419, Note_on_c, 2, 71, 0
6, 60420, Note_on_c, 2, 64, 110
6, 60479, Note_on_c, 2, 64, 0
6, 60480, Note_on_c, 2, 64, 110
6, 60539, Note_on_c, 2, 64, 0
6, 60540, Note_on_c, 2, 64, 110
6, 60569, Note_on_c, 2, 64, 0
6, 60570, Note_on_c, 2, 64, 110
6, 60599, Note_on_c, 2, 64, 0
6, 60600, Note_on_c, 2, 64, 110
6, 60629, Note_on_c, 2, 64, 0
6, 60630, Note_on_c, 2, 64, 110
6, 60659, Note_on_c, 2, 64, 0
6, 60660, Note_on_c, 2, 64, 110
6, 60689, Note_on_c, 2, 64, 0
6, 60690, Note_on_c, 2, 64, 110
6, 60719, Note_on_c, 2, 64, 0
6, 60720, Note_on_c, 2, 64, 110
6, 60749, Note_on_c, 2, 64, 0
6, 60750, Note_on_c, 2, 64, 110
6, 60779, Note_on_c, 2, 64, 0
6, 60780, Note_on_c, 2, 64, 110
6, 60809, Note_on_c, 2, 64, 0
6, 60810, Note_on_c, 2, 64, 110
6, 60839, Note_on_c, 2, 64, 0
6, 60840, Note_on_c, 2, 64, 110
6, 60959, Note_on_c, 2, 64, 0
6, 62340, Note_on_c, 2, 64, 110
6, 62399, Note_on_c, 2, 64, 0
6, 62400, Note_on_c, 2, 64, 110
6, 62459, Note_on_c, 2, 64, 0
6, 62460, Note_on_c, 2, 64, 110
6, 62519, Note_on_c, 2, 64, 0
6, 62520, Note_on_c, 2, 64, 110
6, 62579, Note_on_c, 2, 64, 0
6, 62580, Note_on_c, 2, 66, 110
6, 62609, Note_on_c, 2, 66, 0
6, 62610, Note_on_c, 2, 67, 110
6, 62639, Note_on_c, 2, 67, 0
6, 62640, Note_on_c, 2, 69, 110
6, 62699, Note_on_c, 2, 69, 0
6, 62700, Note_on_c, 2, 57, 110
6, 62729, Note_on_c, 2, 57, 0
6, 62730, Note_on_c, 2, 57, 110
6, 62759, Note_on_c, 2, 57, 0
6, 62760, Note_on_c, 2, 57, 110
6, 62789, Note_on_c, 2, 57, 0
6, 62790, Note_on_c, 2, 57, 110
6, 62819, Note_on_c, 2, 57, 0
6, 62820, Note_on_c, 2, 57, 110
6, 62849, Note_on_c, 2, 57, 0
6, 62850, Note_on_c, 2, 57, 110
6, 62879, Note_on_c, 2, 57, 0
6, 62880, Note_on_c, 2, 57, 110
6, 62909, Note_on_c, 2, 57, 0
6, 62910, Note_on_c, 2, 57, 110
6, 62939, Note_on_c, 2, 57, 0
6, 62940, Note_on_c, 2, 57, 110
6, 62969, Note_on_c, 2, 57, 0
6, 62970, Note_on_c, 2, 57, 110
6, 62999, Note_on_c, 2, 57, 0
6, 63000, Note_on_c, 2, 57, 110
6, 63119, Note_on_c, 2, 57, 0
6, 63240, Note_on_c, 2, 69, 110
6, 63299, Note_on_c, 2, 69, 0
6, 63300, Note_on_c, 2, 69, 110
6, 63359, Note_on_c, 2, 69, 0
6, 63360, Note_on_c, 2, 69, 110
6, 63419, Note_on_c, 2, 69, 0
6, 63420, Note_on_c, 2, 71, 110
6, 63449, Note_on_c, 2, 71, 0
6, 63450, Note_on_c, 2, 69, 110
6, 63479, Note_on_c, 2, 69, 0
6, 63480, Note_on_c, 2, 67, 110
6, 63539, Note_on_c, 2, 67, 0
6, 63540, Note_on_c, 2, 67, 110
6, 63599, Note_on_c, 2, 67, 0
6, 63600, Note_on_c, 2, 67, 110
6, 63659, Note_on_c, 2, 67, 0
6, 63660, Note_on_c, 2, 67, 110
6, 63719, Note_on_c, 2, 67, 0
6, 63720, Note_on_c, 2, 67, 110
6, 63779, Note_on_c, 2, 67, 0
6, 63780, Note_on_c, 2, 69, 110
6, 63809, Note_on_c, 2, 69, 0
6, 63810, Note_on_c, 2, 67, 110
6, 63839, Note_on_c, 2, 67, 0
6, 63840, Note_on_c, 2, 66, 110
6, 63899, Note_on_c, 2, 66, 0
6, 63900, Note_on_c, 2, 66, 110
6, 63959, Note_on_c, 2, 66, 0
6, 63960, Note_on_c, 2, 66, 110
6, 64019, Note_on_c, 2, 66, 0
6, 64020, Note_on_c, 2, 66, 110
6, 64079, Note_on_c, 2, 66, 0
6, 64080, Note_on_c, 2, 66, 110
6, 64139, Note_on_c, 2, 66, 0
6, 64140, Note_on_c, 2, 67, 110
6, 64169, Note_on_c, 2, 67, 0
6, 64170, Note_on_c, 2, 66, 110
6, 64199, Note_on_c, 2, 66, 0
6, 64200, Note_on_c, 2, 64, 110
6, 64259, Note_on_c, 2, 64, 0
6, 64260, Note_on_c, 2, 64, 110
6, 64319, Note_on_c, 2, 64, 0
6, 64320, Note_on_c, 2, 64, 110
6, 64379, Note_on_c, 2, 64, 0
6, 64380, Note_on_c, 2, 64, 110
6, 64439, Note_on_c, 2, 64, 0
6, 64440, Note_on_c, 2, 62, 110
6, 64499, Note_on_c, 2, 62, 0
6, 64500, Note_on_c, 2, 66, 110
6, 64559, Note_on_c, 2, 66, 0
6, 64560, Note_on_c, 2, 66, 110
6, 64619, Note_on_c, 2, 66, 0
6, 64620, Note_on_c, 2, 66, 110
6, 64679, Note_on_c, 2, 66, 0
6, 64680, Note_on_c, 2, 66, 110
6, 64739, Note_on_c, 2, 66, 0
6, 64740, Note_on_c, 2, 66, 110
6, 64799, Note_on_c, 2, 66, 0
6, 64860, Note_on_c, 2, 68, 110
6, 64919, Note_on_c, 2, 68, 0
6, 64920, Note_on_c, 2, 68, 110
6, 64979, Note_on_c, 2, 68, 0
6, 64980, Note_on_c, 2, 68, 110
6, 65039, Note_on_c, 2, 68, 0
6, 65040, Note_on_c, 2, 68, 110
6, 65099, Note_on_c, 2, 68, 0
6, 65100, Note_on_c, 2, 68, 110
6, 65159, Note_on_c, 2, 68, 0
6, 65220, Note_on_c, 2, 71, 110
6, 65279, Note_on_c, 2, 71, 0
6, 65280, Note_on_c, 2, 71, 110
6, 65339, Note_on_c, 2, 71, 0
6, 65340, Note_on_c, 2, 71, 110
6, 65399, Note_on_c, 2, 71, 0
6, 65400, Note_on_c, 2, 71, 110
6, 65459, Note_on_c, 2, 71, 0
6, 65460, Note_on_c, 2, 71, 110
6, 65519, Note_on_c, 2, 71, 0
6, 65520, Note_on_c, 2, 73, 110
6, 65579, Note_on_c, 2, 73, 0
6, 65580, Note_on_c, 2, 64, 110
6, 65639, Note_on_c, 2, 64, 0
6, 65640, Note_on_c, 2, 64, 110
6, 65699, Note_on_c, 2, 64, 0
6, 65700, Note_on_c, 2, 64, 110
6, 65759, Note_on_c, 2, 64, 0
6, 65760, Note_on_c, 2, 64, 110
6, 65819, Note_on_c, 2, 64, 0
6, 65820, Note_on_c, 2, 62, 110
6, 65849, Note_on_c, 2, 62, 0
6, 65850, Note_on_c, 2, 64, 110
6, 65879, Note_on_c, 2, 64, 0
6, 65880, Note_on_c, 2, 66, 110
6, 65939, Note_on_c, 2, 66, 0
6, 65940, Note_on_c, 2, 66, 110
6, 65999, Note_on_c, 2, 66, 0
6, 66000, Note_on_c, 2, 66, 110
6, 66059, Note_on_c, 2, 66, 0
6, 66060, Note_on_c, 2, 66, 110
6, 66119, Note_on_c, 2, 66, 0
6, 66120, Note_on_c, 2, 66, 110
6, 66179, Note_on_c, 2, 66, 0
6, 66180, Note_on_c, 2, 64, 110
6, 66209, Note_on_c, 2, 64, 0
6, 66210, Note_on_c, 2, 66, 110
6, 66239, Note_on_c, 2, 66, 0
6, 66240, Note_on_c, 2, 67, 110
6, 66299, Note_on_c, 2, 67, 0
6, 66300, Note_on_c, 2, 67, 110
6, 66359, Note_on_c, 2, 67, 0
6, 66360, Note_on_c, 2, 67, 110
6, 66419, Note_on_c, 2, 67, 0
6, 66420, Note_on_c, 2, 67, 110
6, 66479, Note_on_c, 2, 67, 0
6, 66480, Note_on_c, 2, 67, 110
6, 66539, Note_on_c, 2, 67, 0
6, 66540, Note_on_c, 2, 66, 110
6, 66569, Note_on_c, 2, 66, 0
6, 66570, Note_on_c, 2, 67, 110
6, 66599, Note_on_c, 2, 67, 0
6, 66600, Note_on_c, 2, 69, 110
6, 67230, Note_on_c, 2, 69, 0
6, 67230, Note_on_c, 2, 71, 110
6, 67259, Note_on_c, 2, 71, 0
6, 67260, Note_on_c, 2, 67, 110
6, 67289, Note_on_c, 2, 67, 0
6, 67290, Note_on_c, 2, 69, 110
6, 67319, Note_on_c, 2, 69, 0
6, 67320, Note_on_c, 2, 71, 110
6, 67349, Note_on_c, 2, 71, 0
6, 67350, Note_on_c, 2, 69, 110
6, 67379, Note_on_c, 2, 69, 0
6, 67380, Note_on_c, 2, 71, 110
6, 67409, Note_on_c, 2, 71, 0
6, 67410, Note_on_c, 2, 69, 110
6, 67439, Note_on_c, 2, 69, 0
6, 67440, Note_on_c, 2, 67, 110
6, 67469, Note_on_c, 2, 67, 0
6, 67470, Note_on_c, 2, 66, 110
6, 67499, Note_on_c, 2, 66, 0
6, 67500, Note_on_c, 2, 67, 110
6, 67529, Note_on_c, 2, 67, 0
6, 67530, Note_on_c, 2, 66, 110
6, 67559, Note_on_c, 2, 66, 0
6, 67560, Note_on_c, 2, 64, 110
6, 67589, Note_on_c, 2, 64, 0
6, 67590, Note_on_c, 2, 62, 110
6, 67619, Note_on_c, 2, 62, 0
6, 67620, Note_on_c, 2, 64, 110
6, 67649, Note_on_c, 2, 64, 0
6, 67650, Note_on_c, 2, 62, 110
6, 67679, Note_on_c, 2, 62, 0
6, 67680, Note_on_c, 2, 67, 110
6, 67739, Note_on_c, 2, 67, 0
6, 67740, Note_on_c, 2, 69, 110
6, 67769, Note_on_c, 2, 69, 0
6, 67770, Note_on_c, 2, 67, 110
6, 67799, Note_on_c, 2, 67, 0
6, 67800, Note_on_c, 2, 66, 110
6, 67829, Note_on_c, 2, 66, 0
6, 67830, Note_on_c, 2, 64, 110
6, 67859, Note_on_c, 2, 64, 0
6, 67860, Note_on_c, 2, 62, 110
6, 67889, Note_on_c, 2, 62, 0
6, 67890, Note_on_c, 2, 64, 110
6, 67919, Note_on_c, 2, 64, 0
6, 67920, Note_on_c, 2, 64, 110
6, 68009, Note_on_c, 2, 64, 0
6, 68010, Note_on_c, 2, 62, 110
6, 68039, Note_on_c, 2, 62, 0
6, 68040, Note_on_c, 2, 62, 110
6, 68099, Note_on_c, 2, 62, 0
6, 68100, Note_on_c, 2, 57, 110
6, 68159, Note_on_c, 2, 57, 0
6, 68400, Note_on_c, 2, 67, 110
6, 68459, Note_on_c, 2, 67, 0
6, 68460, Note_on_c, 2, 62, 110
6, 68519, Note_on_c, 2, 62, 0
6, 68760, Note_on_c, 2, 66, 110
6, 68819, Note_on_c, 2, 66, 0
6, 68820, Note_on_c, 2, 62, 110
6, 68879, Note_on_c, 2, 62, 0
6, 69180, Note_on_c, 2, 71, 110
6, 69209, Note_on_c, 2, 71, 0
6, 69210, Note_on_c, 2, 69, 110
6, 69239, Note_on_c, 2, 69, 0
6, 69240, Note_on_c, 2, 67, 110
6, 69269, Note_on_c, 2, 67, 0
6, 69270, Note_on_c, 2, 66, 110
6, 69299, Note_on_c, 2, 66, 0
6, 69300, Note_on_c, 2, 67, 110
6, 69329, Note_on_c, 2, 67, 0
6, 69330, Note_on_c, 2, 66, 110
6, 69359, Note_on_c, 2, 66, 0
6, 69360, Note_on_c, 2, 64, 110
6, 69389, Note_on_c, 2, 64, 0
6, 69390, Note_on_c, 2, 62, 110
6, 69419, Note_on_c, 2, 62, 0
6, 69420, Note_on_c, 2, 64, 110
6, 69449, Note_on_c, 2, 64, 0
6, 69450, Note_on_c, 2, 62, 110
6, 69479, Note_on_c, 2, 62, 0
6, 69480, Note_on_c, 2, 67, 110
6, 69539, Note_on_c, 2, 67, 0
6, 69540, Note_on_c, 2, 69, 110
6, 69569, Note_on_c, 2, 69, 0
6, 69570, Note_on_c, 2, 67, 110
6, 69599, Note_on_c, 2, 67, 0
6, 69600, Note_on_c, 2, 66, 110
6, 69629, Note_on_c, 2, 66, 0
6, 69630, Note_on_c, 2, 64, 110
6, 69659, Note_on_c, 2, 64, 0
6, 69660, Note_on_c, 2, 62, 110
6, 69689, Note_on_c, 2, 62, 0
6, 69690, Note_on_c, 2, 64, 110
6, 69719, Note_on_c, 2, 64, 0
6, 69720, Note_on_c, 2, 64, 110
6, 69809, Note_on_c, 2, 64, 0
6, 69810, Note_on_c, 2, 62, 110
6, 69839, Note_on_c, 2, 62, 0
6, 69840, Note_on_c, 2, 62, 110
6, 69959, Note_on_c, 2, 62, 0
6, 70560, Note_on_c, 2, 67, 120
6, 70679, Note_on_c, 2, 67, 0
6, 71280, Note_on_c, 2, 67, 120
6, 71399, Note_on_c, 2, 67, 0
6, 71760, Note_on_c, 2, 66, 120
6, 71879, Note_on_c, 2, 66, 0
6, 72240, Note_on_c, 2, 54, 120
6, 72359, Note_on_c, 2, 54, 0
6, 72720, Note_on_c, 2, 67, 120
6, 72839, Note_on_c, 2, 67, 0
6, 72960, Note_on_c, 2, 69, 120
6, 73079, Note_on_c, 2, 69, 0
6, 73320, Note_on_c, 2, 69, 120
6, 73439, Note_on_c, 2, 69, 0
6, 73440, Note_on_c, 2, 67, 120
6, 73559, Note_on_c, 2, 67, 0
6, 73710, Note_on_c, 2, 64, 120
6, 73739, Note_on_c, 2, 64, 0
6, 73740, Note_on_c, 2, 64, 120
6, 73769, Note_on_c, 2, 64, 0
6, 73770, Note_on_c, 2, 64, 120
6, 73799, Note_on_c, 2, 64, 0
6, 73800, Note_on_c, 2, 64, 120
6, 73859, Note_on_c, 2, 64, 0
6, 74190, Note_on_c, 2, 62, 120
6, 74219, Note_on_c, 2, 62, 0
6, 74220, Note_on_c, 2, 62, 120
6, 74249, Note_on_c, 2, 62, 0
6, 74250, Note_on_c, 2, 62, 120
6, 74279, Note_on_c, 2, 62, 0
6, 74280, Note_on_c, 2, 62, 120
6, 74339, Note_on_c, 2, 62, 0
6, 74670, Note_on_c, 2, 54, 120
6, 74699, Note_on_c, 2, 54, 0
6, 74700, Note_on_c, 2, 54, 120
6, 74729, Note_on_c, 2, 54, 0
6, 74730, Note_on_c, 2, 54, 120
6, 74759, Note_on_c, 2, 54, 0
6, 74760, Note_on_c, 2, 54, 120
6, 74819, Note_on_c, 2, 54, 0
6, 74910, Note_on_c, 2, 50, 120
6, 74939, Note_on_c, 2, 50, 0
6, 74940, Note_on_c, 2, 50, 120
6, 74969, Note_on_c, 2, 50, 0
6, 74970, Note_on_c, 2, 50, 120
6, 74999, Note_on_c, 2, 50, 0
6, 75000, Note_on_c, 2, 50, 120
6, 75029, Note_on_c, 2, 50, 0
6, 75030, Note_on_c, 2, 50, 120
6, 75059, Note_on_c, 2, 50, 0
6, 75060, Note_on_c, 2, 50, 120
6, 75089, Note_on_c, 2, 50, 0
6, 75090, Note_on_c, 2, 50, 120
6, 75119, Note_on_c, 2, 50, 0
6, 75120, Note_on_c, 2, 54, 120
6, 75179, Note_on_c, 2, 54, 0
6, 75600, Note_on_c, 2, 64, 120
6, 75719, Note_on_c, 2, 64, 0
6, 76080, Note_on_c, 2, 69, 120
6, 76199, Note_on_c, 2, 69, 0
6, 76320, Note_on_c, 2, 71, 120
6, 76439, Note_on_c, 2, 71, 0
6, 76590, Note_on_c, 2, 69, 120
6, 76619, Note_on_c, 2, 69, 0
6, 76620, Note_on_c, 2, 69, 120
6, 76649, Note_on_c, 2, 69, 0
6, 76650, Note_on_c, 2, 66, 120
6, 76679, Note_on_c, 2, 66, 0
6, 76680, Note_on_c, 2, 67, 120
6, 76709, Note_on_c, 2, 67, 0
6, 76710, Note_on_c, 2, 67, 120
6, 76739, Note_on_c, 2, 67, 0
6, 76740, Note_on_c, 2, 67, 120
6, 76769, Note_on_c, 2, 67, 0
6, 76770, Note_on_c, 2, 64, 120
6, 76799, Note_on_c, 2, 64, 0
6, 76800, Note_on_c, 2, 66, 120
6, 76829, Note_on_c, 2, 66, 0
6, 76830, Note_on_c, 2, 54, 120
6, 76859, Note_on_c, 2, 54, 0
6, 76860, Note_on_c, 2, 54, 120
6, 76889, Note_on_c, 2, 54, 0
6, 76890, Note_on_c, 2, 54, 120
6, 76919, Note_on_c, 2, 54, 0
6, 76920, Note_on_c, 2, 54, 120
6, 76949, Note_on_c, 2, 54, 0
6, 76950, Note_on_c, 2, 54, 120
6, 76979, Note_on_c, 2, 54, 0
6, 76980, Note_on_c, 2, 54, 120
6, 77009, Note_on_c, 2, 54, 0
6, 77010, Note_on_c, 2, 54, 120
6, 77039, Note_on_c, 2, 54, 0
6, 77040, Note_on_c, 2, 54, 120
6, 77159, Note_on_c, 2, 54, 0
6, 77310, Note_on_c, 2, 62, 120
6, 77339, Note_on_c, 2, 62, 0
6, 77340, Note_on_c, 2, 62, 120
6, 77369, Note_on_c, 2, 62, 0
6, 77370, Note_on_c, 2, 62, 120
6, 77399, Note_on_c, 2, 62, 0
6, 77400, Note_on_c, 2, 62, 120
6, 77429, Note_on_c, 2, 62, 0
6, 77430, Note_on_c, 2, 62, 120
6, 77459, Note_on_c, 2, 62, 0
6, 77460, Note_on_c, 2, 62, 120
6, 77489, Note_on_c, 2, 62, 0
6, 77490, Note_on_c, 2, 62, 120
6, 77519, Note_on_c, 2, 62, 0
6, 77520, Note_on_c, 2, 64, 120
6, 77579, Note_on_c, 2, 64, 0
6, 77790, Note_on_c, 2, 57, 120
6, 77819, Note_on_c, 2, 57, 0
6, 77820, Note_on_c, 2, 57, 120
6, 77849, Note_on_c, 2, 57, 0
6, 77850, Note_on_c, 2, 57, 120
6, 77879, Note_on_c, 2, 57, 0
6, 77880, Note_on_c, 2, 57, 120
6, 77909, Note_on_c, 2, 57, 0
6, 77910, Note_on_c, 2, 57, 120
6, 77939, Note_on_c, 2, 57, 0
6, 77940, Note_on_c, 2, 57, 120
6, 77969, Note_on_c, 2, 57, 0
6, 77970, Note_on_c, 2, 57, 120
6, 77999, Note_on_c, 2, 57, 0
6, 78000, Note_on_c, 2, 66, 120
6, 78059, Note_on_c, 2, 66, 0
6, 78270, Note_on_c, 2, 64, 120
6, 78299, Note_on_c, 2, 64, 0
6, 78300, Note_on_c, 2, 64, 120
6, 78329, Note_on_c, 2, 64, 0
6, 78330, Note_on_c, 2, 64, 120
6, 78359, Note_on_c, 2, 64, 0
6, 78360, Note_on_c, 2, 64, 120
6, 78389, Note_on_c, 2, 64, 0
6, 78390, Note_on_c, 2, 64, 120
6, 78419, Note_on_c, 2, 64, 0
6, 78420, Note_on_c, 2, 64, 120
6, 78449, Note_on_c, 2, 64, 0
6, 78450, Note_on_c, 2, 64, 120
6, 78479, Note_on_c, 2, 64, 0
6, 78480, Note_on_c, 2, 64, 120
6, 78509, Note_on_c, 2, 64, 0
6, 78510, Note_on_c, 2, 69, 120
6, 78539, Note_on_c, 2, 69, 0
6, 78540, Note_on_c, 2, 69, 120
6, 78569, Note_on_c, 2, 69, 0
6, 78570, Note_on_c, 2, 69, 120
6, 78599, Note_on_c, 2, 69, 0
6, 78600, Note_on_c, 2, 69, 120
6, 78629, Note_on_c, 2, 69, 0
6, 78630, Note_on_c, 2, 69, 120
6, 78659, Note_on_c, 2, 69, 0
6, 78660, Note_on_c, 2, 69, 120
6, 78689, Note_on_c, 2, 69, 0
6, 78690, Note_on_c, 2, 69, 120
6, 78719, Note_on_c, 2, 69, 0
6, 78720, Note_on_c, 2, 69, 120
6, 78839, Note_on_c, 2, 69, 0
6, 78990, Note_on_c, 2, 73, 120
6, 79019, Note_on_c, 2, 73, 0
6, 79020, Note_on_c, 2, 73, 120
6, 79049, Note_on_c, 2, 73, 0
6, 79050, Note_on_c, 2, 73, 120
6, 79079, Note_on_c, 2, 73, 0
6, 79080, Note_on_c, 2, 73, 120
6, 79139, Note_on_c, 2, 73, 0
6, 79470, Note_on_c, 2, 71, 120
6, 79499, Note_on_c, 2, 71, 0
6, 79500, Note_on_c, 2, 71, 120
6, 79529, Note_on_c, 2, 71, 0
6, 79530, Note_on_c, 2, 71, 120
6, 79559, Note_on_c, 2, 71, 0
6, 79560, Note_on_c, 2, 71, 120
6, 79589, Note_on_c, 2, 71, 0
6, 79590, Note_on_c, 2, 71, 120
6, 79619, Note_on_c, 2, 71, 0
6, 79620, Note_on_c, 2, 71, 120
6, 79649, Note_on_c, 2, 71, 0
6, 79650, Note_on_c, 2, 71, 120
6, 79679, Note_on_c, 2, 71, 0
6, 79680, Note_on_c, 2, 69, 120
6, 79739, Note_on_c, 2, 69, 0
6, 79950, Note_on_c, 2, 64, 120
6, 79979, Note_on_c, 2, 64, 0
6, 79980, Note_on_c, 2, 64, 120
6, 80009, Note_on_c, 2, 64, 0
6, 80010, Note_on_c, 2, 64, 120
6, 80039, Note_on_c, 2, 64, 0
6, 80040, Note_on_c, 2, 64, 120
6, 80099, Note_on_c, 2, 64, 0
6, 80430, Note_on_c, 2, 71, 120
6, 80459, Note_on_c, 2, 71, 0
6, 80460, Note_on_c, 2, 71, 120
6, 80489, Note_on_c, 2, 71, 0
6, 80490, Note_on_c, 2, 71, 120
6, 80519, Note_on_c, 2, 71, 0
6, 80520, Note_on_c, 2, 71, 120
6, 80579, Note_on_c, 2, 71, 0
6, 235560, Note_on_c, 2, 69, 127
6, 235620, Note_on_c, 2, 69, 0
6, 235620, Note_on_c, 2, 66, 127
6, 235680, Note_on_c, 2, 66, 0
6, 235680, Note_on_c, 2, 62, 127
6, 235740, Note_on_c, 2, 62, 0
6, 235740, Note_on_c, 2, 57, 127
6, 235800, Note_on_c, 2, 57, 0
6, 235800, Note_on_c, 2, 62, 127
6, 235860, Note_on_c, 2, 62, 0
6, 235860, Note_on_c, 2, 57, 127
6, 235920, Note_on_c, 2, 57, 0
6, 235920, Note_on_c, 2, 54, 127
6, 235950, Note_on_c, 2, 54, 0
6, 235950, Note_on_c, 2, 57, 127
6, 235980, Note_on_c, 2, 57, 0
6, 235980, Note_on_c, 2, 62, 127
6, 236010, Note_on_c, 2, 62, 0
6, 236010, Note_on_c, 2, 64, 127
6, 236040, Note_on_c, 2, 64, 0
6, 236040, Note_on_c, 2, 66, 127
6, 236070, Note_on_c, 2, 66, 0
6, 236070, Note_on_c, 2, 67, 127
6, 236100, Note_on_c, 2, 67, 0
6, 236100, Note_on_c, 2, 69, 127
6, 236130, Note_on_c, 2, 69, 0
6, 236130, Note_on_c, 2, 67, 127
6, 236160, Note_on_c, 2, 67, 0
6, 236160, Note_on_c, 2, 66, 127
6, 236190, Note_on_c, 2, 66, 0
6, 236190, Note_on_c, 2, 67, 127
6, 236220, Note_on_c, 2, 67, 0
6, 236220, Note_on_c, 2, 66, 127
6, 236250, Note_on_c, 2, 66, 0
6, 236250, Note_on_c, 2, 67, 127
6, 236280, Note_on_c, 2, 67, 0
6, 236280, Note_on_c, 2, 69, 127
6, 236310, Note_on_c, 2, 69, 0
6, 236310, Note_on_c, 2, 67, 127
6, 236340, Note_on_c, 2, 67, 0
6, 236340, Note_on_c, 2, 66, 127
6, 236760, Note_on_c, 2, 66, 0
6, 236760, Note_on_c, 2, 67, 127
6, 236790, Note_on_c, 2, 67, 0
6, 236790, Note_on_c, 2, 66, 127
6, 236820, Note_on_c, 2, 66, 0
6, 236820, Note_on_c, 2, 64, 127
6, 236850, Note_on_c, 2, 64, 0
6, 236850, Note_on_c, 2, 62, 127
6, 236880, Note_on_c, 2, 62, 0
6, 236880, Note_on_c, 2, 64, 127
6, 236940, Note_on_c, 2, 64, 0
6, 236940, Note_on_c, 2, 57, 127
6, 237000, Note_on_c, 2, 57, 0
6, 237000, Note_on_c, 2, 69, 127
6, 237060, Note_on_c, 2, 69, 0
6, 237060, Note_on_c, 2, 69, 127
6, 237270, Note_on_c, 2, 69, 0
6, 237270, Note_on_c, 2, 67, 127
6, 237300, Note_on_c, 2, 67, 0
6, 237300, Note_on_c, 2, 69, 127
6, 237330, Note_on_c, 2, 69, 0
6, 237330, Note_on_c, 2, 71, 127
6, 237360, Note_on_c, 2, 71, 0
6, 237360, Note_on_c, 2, 69, 127
6, 237390, Note_on_c, 2, 69, 0
6, 237390, Note_on_c, 2, 71, 127
6, 237420, Note_on_c, 2, 71, 0
6, 237420, Note_on_c, 2, 67, 127
6, 237450, Note_on_c, 2, 67, 0
6, 237450, Note_on_c, 2, 69, 127
6, 237480, Note_on_c, 2, 69, 0
6, 237480, Note_on_c, 2, 67, 127
6, 237510, Note_on_c, 2, 67, 0
6, 237510, Note_on_c, 2, 69, 127
6, 237540, Note_on_c, 2, 69, 0
6, 237540, Note_on_c, 2, 71, 127
6, 237570, Note_on_c, 2, 71, 0
6, 237570, Note_on_c, 2, 69, 127
6, 237600, Note_on_c, 2, 69, 0
6, 237600, Note_on_c, 2, 67, 127
6, 237630, Note_on_c, 2, 67, 0
6, 237630, Note_on_c, 2, 69, 127
6, 237660, Note_on_c, 2, 69, 0
6, 237660, Note_on_c, 2, 67, 127
6, 237690, Note_on_c, 2, 67, 0
6, 237690, Note_on_c, 2, 69, 127
6, 237720, Note_on_c, 2, 69, 0
6, 237720, Note_on_c, 2, 71, 127
6, 237750, Note_on_c, 2, 71, 0
6, 237750, Note_on_c, 2, 69, 127
6, 237780, Note_on_c, 2, 69, 0
6, 237780, Note_on_c, 2, 67, 127
6, 237990, Note_on_c, 2, 67, 0
6, 237990, Note_on_c, 2, 66, 127
6, 238020, Note_on_c, 2, 66, 0
6, 238020, Note_on_c, 2, 67, 127
6, 238050, Note_on_c, 2, 67, 0
6, 238050, Note_on_c, 2, 69, 127
6, 238080, Note_on_c, 2, 69, 0
6, 238080, Note_on_c, 2, 67, 127
6, 238110, Note_on_c, 2, 67, 0
6, 238110, Note_on_c, 2, 69, 127
6, 238140, Note_on_c, 2, 69, 0
6, 238140, Note_on_c, 2, 66, 120
6, 238169, Note_on_c, 2, 66, 0
6, 238170, Note_on_c, 2, 67, 120
6, 238199, Note_on_c, 2, 67, 0
6, 238200, Note_on_c, 2, 66, 120
6, 238229, Note_on_c, 2, 66, 0
6, 238230, Note_on_c, 2, 67, 120
6, 238259, Note_on_c, 2, 67, 0
6, 238260, Note_on_c, 2, 69, 120
6, 238289, Note_on_c, 2, 69, 0
6, 238290, Note_on_c, 2, 67, 120
6, 238319, Note_on_c, 2, 67, 0
6, 238320, Note_on_c, 2, 66, 120
6, 238349, Note_on_c, 2, 66, 0
6, 238350, Note_on_c, 2, 67, 120
6, 238379, Note_on_c, 2, 67, 0
6, 238380, Note_on_c, 2, 66, 120
6, 238409, Note_on_c, 2, 66, 0
6, 238410, Note_on_c, 2, 67, 120
6, 238439, Note_on_c, 2, 67, 0
6, 238440, Note_on_c, 2, 69, 120
6, 238499, Note_on_c, 2, 69, 0
6, 238560, Note_on_c, 2, 71, 120
6, 238619, Note_on_c, 2, 71, 0
6, 238620, Note_on_c, 2, 67, 120
6, 238679, Note_on_c, 2, 67, 0
6, 238680, Note_on_c, 2, 67, 120
6, 238739, Note_on_c, 2, 67, 0
6, 238740, Note_on_c, 2, 71, 120
6, 238799, Note_on_c, 2, 71, 0
6, 238800, Note_on_c, 2, 64, 120
6, 238859, Note_on_c, 2, 64, 0
6, 238920, Note_on_c, 2, 69, 120
6, 238979, Note_on_c, 2, 69, 0
6, 238980, Note_on_c, 2, 66, 120
6, 239039, Note_on_c, 2, 66, 0
6, 239040, Note_on_c, 2, 66, 120
6, 239099, Note_on_c, 2, 66, 0
6, 239100, Note_on_c, 2, 69, 120
6, 239159, Note_on_c, 2, 69, 0
6, 239160, Note_on_c, 2, 62, 120
6, 239219, Note_on_c, 2, 62, 0
6, 239280, Note_on_c, 2, 67, 120
6, 239339, Note_on_c, 2, 67, 0
6, 239340, Note_on_c, 2, 64, 120
6, 239399, Note_on_c, 2, 64, 0
6, 239400, Note_on_c, 2, 64, 120
6, 239459, Note_on_c, 2, 64, 0
6, 239460, Note_on_c, 2, 67, 120
6, 239519, Note_on_c, 2, 67, 0
6, 239520, Note_on_c, 2, 57, 120
6, 239579, Note_on_c, 2, 57, 0
6, 239640, Note_on_c, 2, 66, 120
6, 239669, Note_on_c, 2, 66, 0
6, 239670, Note_on_c, 2, 67, 120
6, 239699, Note_on_c, 2, 67, 0
6, 239700, Note_on_c, 2, 66, 120
6, 239729, Note_on_c, 2, 66, 0
6, 239730, Note_on_c, 2, 67, 120
6, 239759, Note_on_c, 2, 67, 0
6, 239760, Note_on_c, 2, 69, 120
6, 239819, Note_on_c, 2, 69, 0
6, 239820, Note_on_c, 2, 71, 120
6, 239849, Note_on_c, 2, 71, 0
6, 239850, Note_on_c, 2, 69, 120
6, 239879, Note_on_c, 2, 69, 0
6, 239880, Note_on_c, 2, 67, 120
6, 239909, Note_on_c, 2, 67, 0
6, 239910, Note_on_c, 2, 66, 120
6, 239939, Note_on_c, 2, 66, 0
6, 239940, Note_on_c, 2, 64, 120
6, 239999, Note_on_c, 2, 64, 0
6, 240000, Note_on_c, 2, 67, 120
6, 240059, Note_on_c, 2, 67, 0
6, 240120, Note_on_c, 2, 64, 120
6, 240149, Note_on_c, 2, 64, 0
6, 240150, Note_on_c, 2, 66, 120
6, 240179, Note_on_c, 2, 66, 0
6, 240180, Note_on_c, 2, 64, 120
6, 240209, Note_on_c, 2, 64, 0
6, 240210, Note_on_c, 2, 66, 120
6, 240239, Note_on_c, 2, 66, 0
6, 240240, Note_on_c, 2, 67, 120
6, 240269, Note_on_c, 2, 67, 0
6, 240270, Note_on_c, 2, 64, 120
6, 240299, Note_on_c, 2, 64, 0
6, 240300, Note_on_c, 2, 66, 120
6, 240359, Note_on_c, 2, 66, 0
6, 240360, Note_on_c, 2, 69, 120
6, 240419, Note_on_c, 2, 69, 0
6, 240480, Note_on_c, 2, 66, 120
6, 240509, Note_on_c, 2, 66, 0
6, 240510, Note_on_c, 2, 67, 120
6, 240539, Note_on_c, 2, 67, 0
6, 240540, Note_on_c, 2, 66, 120
6, 240569, Note_on_c, 2, 66, 0
6, 240570, Note_on_c, 2, 67, 120
6, 240599, Note_on_c, 2, 67, 0
6, 240600, Note_on_c, 2, 69, 120
6, 240629, Note_on_c, 2, 69, 0
6, 240630, Note_on_c, 2, 66, 120
6, 240659, Note_on_c, 2, 66, 0
6, 240660, Note_on_c, 2, 71, 120
6, 240689, Note_on_c, 2, 71, 0
6, 240690, Note_on_c, 2, 73, 120
6, 240719, Note_on_c, 2, 73, 0
6, 240720, Note_on_c, 2, 71, 120
6, 240749, Note_on_c, 2, 71, 0
6, 240750, Note_on_c, 2, 73, 120
6, 240779, Note_on_c, 2, 73, 0
6, 240780, Note_on_c, 2, 74, 120
6, 240809, Note_on_c, 2, 74, 0
6, 240810, Note_on_c, 2, 71, 120
6, 240839, Note_on_c, 2, 71, 0
6, 240840, Note_on_c, 2, 73, 120
6, 240869, Note_on_c, 2, 73, 0
6, 240870, Note_on_c, 2, 71, 120
6, 240899, Note_on_c, 2, 71, 0
6, 240900, Note_on_c, 2, 69, 120
6, 240929, Note_on_c, 2, 69, 0
6, 240930, Note_on_c, 2, 67, 120
6, 240959, Note_on_c, 2, 67, 0
6, 240960, Note_on_c, 2, 66, 120
6, 240989, Note_on_c, 2, 66, 0
6, 240990, Note_on_c, 2, 67, 120
6, 241019, Note_on_c, 2, 67, 0
6, 241020, Note_on_c, 2, 69, 120
6, 241049, Note_on_c, 2, 69, 0
6, 241050, Note_on_c, 2, 71, 120
6, 241079, Note_on_c, 2, 71, 0
6, 241080, Note_on_c, 2, 73, 120
6, 241109, Note_on_c, 2, 73, 0
6, 241110, Note_on_c, 2, 74, 120
6, 241139, Note_on_c, 2, 74, 0
6, 241140, Note_on_c, 2, 71, 120
6, 241169, Note_on_c, 2, 71, 0
6, 241170, Note_on_c, 2, 73, 120
6, 241199, Note_on_c, 2, 73, 0
6, 241200, Note_on_c, 2, 74, 120
6, 241319, Note_on_c, 2, 74, 0
6, 242040, Note_on_c, 2, 69, 120
6, 242099, Note_on_c, 2, 69, 0
6, 242100, Note_on_c, 2, 66, 120
6, 242159, Note_on_c, 2, 66, 0
6, 242160, Note_on_c, 2, 62, 120
6, 242219, Note_on_c, 2, 62, 0
6, 242220, Note_on_c, 2, 57, 120
6, 242279, Note_on_c, 2, 57, 0
6, 242280, Note_on_c, 2, 62, 120
6, 242339, Note_on_c, 2, 62, 0
6, 242340, Note_on_c, 2, 57, 120
6, 242399, Note_on_c, 2, 57, 0
6, 242400, Note_on_c, 2, 54, 120
6, 242429, Note_on_c, 2, 54, 0
6, 242430, Note_on_c, 2, 57, 120
6, 242459, Note_on_c, 2, 57, 0
6, 242460, Note_on_c, 2, 62, 120
6, 242489, Note_on_c, 2, 62, 0
6, 242490, Note_on_c, 2, 64, 120
6, 242519, Note_on_c, 2, 64, 0
6, 242520, Note_on_c, 2, 66, 120
6, 242549, Note_on_c, 2, 66, 0
6, 242550, Note_on_c, 2, 67, 120
6, 242579, Note_on_c, 2, 67, 0
6, 242580, Note_on_c, 2, 69, 120
6, 242609, Note_on_c, 2, 69, 0
6, 242610, Note_on_c, 2, 67, 120
6, 242639, Note_on_c, 2, 67, 0
6, 242640, Note_on_c, 2, 66, 120
6, 242669, Note_on_c, 2, 66, 0
6, 242670, Note_on_c, 2, 67, 120
6, 242699, Note_on_c, 2, 67, 0
6, 242700, Note_on_c, 2, 66, 120
6, 242729, Note_on_c, 2, 66, 0
6, 242730, Note_on_c, 2, 67, 120
6, 242759, Note_on_c, 2, 67, 0
6, 242760, Note_on_c, 2, 69, 120
6, 242789, Note_on_c, 2, 69, 0
6, 242790, Note_on_c, 2, 67, 120
6, 242819, Note_on_c, 2, 67, 0
6, 242820, Note_on_c, 2, 66, 120
6, 243059, Note_on_c, 2, 66, 0
6, 243660, Note_on_c, 2, 69, 127
6, 243720, Note_on_c, 2, 69, 0
6, 243720, Note_on_c, 2, 71, 127
6, 243780, Note_on_c, 2, 71, 0
6, 243780, Note_on_c, 2, 67, 127
6, 243840, Note_on_c, 2, 67, 0
6, 244200, Note_on_c, 2, 64, 120
6, 244259, Note_on_c, 2, 64, 0
6, 244260, Note_on_c, 2, 66, 120
6, 244499, Note_on_c, 2, 66, 0
6, 244500, Note_on_c, 2, 71, 120
6, 244529, Note_on_c, 2, 71, 0
6, 244530, Note_on_c, 2, 69, 120
6, 244559, Note_on_c, 2, 69, 0
6, 244560, Note_on_c, 2, 68, 120
6, 244589, Note_on_c, 2, 68, 0
6, 244590, Note_on_c, 2, 66, 120
6, 244619, Note_on_c, 2, 66, 0
6, 244620, Note_on_c, 2, 64, 120
6, 244859, Note_on_c, 2, 64, 0
6, 244860, Note_on_c, 2, 69, 120
6, 244889, Note_on_c, 2, 69, 0
6, 244890, Note_on_c, 2, 68, 120
6, 244919, Note_on_c, 2, 68, 0
6, 244920, Note_on_c, 2, 66, 120
6, 244949, Note_on_c, 2, 66, 0
6, 244950, Note_on_c, 2, 64, 120
6, 244979, Note_on_c, 2, 64, 0
6, 244980, Note_on_c, 2, 62, 120
6, 245039, Note_on_c, 2, 62, 0
6, 245880, Note_on_c, 2, 71, 120
6, 245909, Note_on_c, 2, 71, 0
6, 245910, Note_on_c, 2, 73, 120
6, 245939, Note_on_c, 2, 73, 0
6, 245940, Note_on_c, 2, 71, 120
6, 245969, Note_on_c, 2, 71, 0
6, 245970, Note_on_c, 2, 73, 120
6, 245999, Note_on_c, 2, 73, 0
6, 246000, Note_on_c, 2, 74, 120
6, 246029, Note_on_c, 2, 74, 0
6, 246030, Note_on_c, 2, 71, 120
6, 246059, Note_on_c, 2, 71, 0
6, 246060, Note_on_c, 2, 73, 120
6, 246119, Note_on_c, 2, 73, 0
6, 246120, Note_on_c, 2, 69, 120
6, 246179, Note_on_c, 2, 69, 0
6, 246240, Note_on_c, 2, 69, 120
6, 246269, Note_on_c, 2, 69, 0
6, 246270, Note_on_c, 2, 71, 120
6, 246299, Note_on_c, 2, 71, 0
6, 246300, Note_on_c, 2, 69, 120
6, 246329, Note_on_c, 2, 69, 0
6, 246330, Note_on_c, 2, 71, 120
6, 246359, Note_on_c, 2, 71, 0
6, 246360, Note_on_c, 2, 73, 120
6, 246389, Note_on_c, 2, 73, 0
6, 246390, Note_on_c, 2, 69, 120
6, 246419, Note_on_c, 2, 69, 0
6, 246420, Note_on_c, 2, 71, 120
6, 246479, Note_on_c, 2, 71, 0
6, 246480, Note_on_c, 2, 64, 120
6, 246539, Note_on_c, 2, 64, 0
6, 246600, Note_on_c, 2, 68, 120
6, 246629, Note_on_c, 2, 68, 0
6, 246630, Note_on_c, 2, 69, 120
6, 246659, Note_on_c, 2, 69, 0
6, 246660, Note_on_c, 2, 68, 120
6, 246689, Note_on_c, 2, 68, 0
6, 246690, Note_on_c, 2, 69, 120
6, 246719, Note_on_c, 2, 69, 0
6, 246720, Note_on_c, 2, 71, 120
6, 246749, Note_on_c, 2, 71, 0
6, 246750, Note_on_c, 2, 68, 120
6, 246779, Note_on_c, 2, 68, 0
6, 246780, Note_on_c, 2, 69, 120
6, 246839, Note_on_c, 2, 69, 0
6, 246840, Note_on_c, 2, 64, 120
6, 246899, Note_on_c, 2, 64, 0
6, 247500, Note_on_c, 2, 64, 120
6, 247529, Note_on_c, 2, 64, 0
6, 247530, Note_on_c, 2, 66, 120
6, 247559, Note_on_c, 2, 66, 0
6, 247560, Note_on_c, 2, 64, 120
6, 247589, Note_on_c, 2, 64, 0
6, 247590, Note_on_c, 2, 66, 120
6, 247619, Note_on_c, 2, 66, 0
6, 247620, Note_on_c, 2, 67, 120
6, 247649, Note_on_c, 2, 67, 0
6, 247650, Note_on_c, 2, 64, 120
6, 247679, Note_on_c, 2, 64, 0
6, 247680, Note_on_c, 2, 66, 120
6, 247739, Note_on_c, 2, 66, 0
6, 247740, Note_on_c, 2, 69, 120
6, 247799, Note_on_c, 2, 69, 0
6, 247860, Note_on_c, 2, 66, 120
6, 247889, Note_on_c, 2, 66, 0
6, 247890, Note_on_c, 2, 67, 120
6, 247919, Note_on_c, 2, 67, 0
6, 247920, Note_on_c, 2, 66, 120
6, 247949, Note_on_c, 2, 66, 0
6, 247950, Note_on_c, 2, 67, 120
6, 247979, Note_on_c, 2, 67, 0
6, 247980, Note_on_c, 2, 69, 120
6, 248009, Note_on_c, 2, 69, 0
6, 248010, Note_on_c, 2, 66, 120
6, 248039, Note_on_c, 2, 66, 0
6, 248040, Note_on_c, 2, 71, 120
6, 248069, Note_on_c, 2, 71, 0
6, 248070, Note_on_c, 2, 73, 120
6, 248099, Note_on_c, 2, 73, 0
6, 248100, Note_on_c, 2, 71, 120
6, 248129, Note_on_c, 2, 71, 0
6, 248130, Note_on_c, 2, 73, 120
6, 248159, Note_on_c, 2, 73, 0
6, 248160, Note_on_c, 2, 74, 120
6, 248189, Note_on_c, 2, 74, 0
6, 248190, Note_on_c, 2, 71, 120
6, 248219, Note_on_c, 2, 71, 0
6, 248220, Note_on_c, 2, 73, 120
6, 248279, Note_on_c, 2, 73, 0
6, 248280, Note_on_c, 2, 69, 120
6, 248339, Note_on_c, 2, 69, 0
6, 248700, Note_on_c, 2, 64, 120
6, 248759, Note_on_c, 2, 64, 0
6, 248760, Note_on_c, 2, 64, 120
6, 248819, Note_on_c, 2, 64, 0
6, 248820, Note_on_c, 2, 64, 120
6, 248879, Note_on_c, 2, 64, 0
6, 248880, Note_on_c, 2, 64, 120
6, 248939, Note_on_c, 2, 64, 0
6, 248940, Note_on_c, 2, 64, 120
6, 248999, Note_on_c, 2, 64, 0
6, 249000, Note_on_c, 2, 64, 120
6, 249059, Note_on_c, 2, 64, 0
6, 249060, Note_on_c, 2, 64, 120
6, 249119, Note_on_c, 2, 64, 0
6, 249120, Note_on_c, 2, 64, 120
6, 249179, Note_on_c, 2, 64, 0
6, 249180, Note_on_c, 2, 64, 120
6, 249239, Note_on_c, 2, 64, 0
6, 249240, Note_on_c, 2, 64, 120
6, 249299, Note_on_c, 2, 64, 0
6, 249300, Note_on_c, 2, 64, 120
6, 249359, Note_on_c, 2, 64, 0
6, 249360, Note_on_c, 2, 64, 120
6, 249419, Note_on_c, 2, 64, 0
6, 249420, Note_on_c, 2, 64, 120
6, 249479, Note_on_c, 2, 64, 0
6, 249480, Note_on_c, 2, 64, 120
6, 249509, Note_on_c, 2, 64, 0
6, 249510, Note_on_c, 2, 67, 120
6, 249539, Note_on_c, 2, 67, 0
6, 249540, Note_on_c, 2, 66, 120
6, 249569, Note_on_c, 2, 66, 0
6, 249570, Note_on_c, 2, 67, 120
6, 249599, Note_on_c, 2, 67, 0
6, 249600, Note_on_c, 2, 69, 120
6, 249629, Note_on_c, 2, 69, 0
6, 249630, Note_on_c, 2, 66, 120
6, 249659, Note_on_c, 2, 66, 0
6, 249660, Note_on_c, 2, 68, 120
6, 249689, Note_on_c, 2, 68, 0
6, 249690, Note_on_c, 2, 69, 120
6, 249719, Note_on_c, 2, 69, 0
6, 249720, Note_on_c, 2, 68, 120
6, 249749, Note_on_c, 2, 68, 0
6, 249750, Note_on_c, 2, 69, 120
6, 249779, Note_on_c, 2, 69, 0
6, 249780, Note_on_c, 2, 71, 120
6, 249809, Note_on_c, 2, 71, 0
6, 249810, Note_on_c, 2, 68, 120
6, 249839, Note_on_c, 2, 68, 0
6, 249840, Note_on_c, 2, 69, 120
6, 249899, Note_on_c, 2, 69, 0
6, 249900, Note_on_c, 2, 71, 120
6, 249959, Note_on_c, 2, 71, 0
6, 249960, Note_on_c, 2, 68, 120
6, 250019, Note_on_c, 2, 68, 0
6, 250020, Note_on_c, 2, 69, 120
6, 250139, Note_on_c, 2, 69, 0
6, 250620, Note_on_c, 2, 67, 127
6, 250680, Note_on_c, 2, 67, 0
6, 250680, Note_on_c, 2, 67, 127
6, 250740, Note_on_c, 2, 67, 0
6, 250740, Note_on_c, 2, 67, 127
6, 250800, Note_on_c, 2, 67, 0
6, 250800, Note_on_c, 2, 67, 127
6, 250860, Note_on_c, 2, 67, 0
6, 250860, Note_on_c, 2, 67, 127
6, 250920, Note_on_c, 2, 67, 0
6, 251340, Note_on_c, 2, 64, 127
6, 251400, Note_on_c, 2, 64, 0
6, 251400, Note_on_c, 2, 64, 127
6, 251460, Note_on_c, 2, 64, 0
6, 251460, Note_on_c, 2, 64, 127
6, 251520, Note_on_c, 2, 64, 0
6, 251520, Note_on_c, 2, 64, 127
6, 251580, Note_on_c, 2, 64, 0
6, 251580, Note_on_c, 2, 64, 127
6, 251640, Note_on_c, 2, 64, 0
6, 251640, Note_on_c, 2, 62, 127
6, 251700, Note_on_c, 2, 62, 0
6, 251820, Note_on_c, 2, 62, 120
6, 251849, Note_on_c, 2, 62, 0
6, 251850, Note_on_c, 2, 64, 120
6, 251879, Note_on_c, 2, 64, 0
6, 251880, Note_on_c, 2, 62, 120
6, 251909, Note_on_c, 2, 62, 0
6, 251910, Note_on_c, 2, 64, 120
6, 251939, Note_on_c, 2, 64, 0
6, 251940, Note_on_c, 2, 66, 120
6, 251969, Note_on_c, 2, 66, 0
6, 251970, Note_on_c, 2, 62, 120
6, 251999, Note_on_c, 2, 62, 0
6, 252000, Note_on_c, 2, 64, 120
6, 252059, Note_on_c, 2, 64, 0
6, 252060, Note_on_c, 2, 67, 120
6, 252119, Note_on_c, 2, 67, 0
6, 252180, Note_on_c, 2, 64, 120
6, 252209, Note_on_c, 2, 64, 0
6, 252210, Note_on_c, 2, 66, 120
6, 252239, Note_on_c, 2, 66, 0
6, 252240, Note_on_c, 2, 64, 120
6, 252269, Note_on_c, 2, 64, 0
6, 252270, Note_on_c, 2, 66, 120
6, 252299, Note_on_c, 2, 66, 0
6, 252300, Note_on_c, 2, 67, 120
6, 252329, Note_on_c, 2, 67, 0
6, 252330, Note_on_c, 2, 64, 120
6, 252359, Note_on_c, 2, 64, 0
6, 252360, Note_on_c, 2, 66, 120
6, 252419, Note_on_c, 2, 66, 0
6, 252420, Note_on_c, 2, 54, 120
6, 252479, Note_on_c, 2, 54, 0
6, 252480, Note_on_c, 2, 54, 120
6, 252539, Note_on_c, 2, 54, 0
6, 252540, Note_on_c, 2, 54, 120
6, 252599, Note_on_c, 2, 54, 0
6, 252600, Note_on_c, 2, 54, 120
6, 252659, Note_on_c, 2, 54, 0
6, 252660, Note_on_c, 2, 54, 120
6, 252719, Note_on_c, 2, 54, 0
6, 252720, Note_on_c, 2, 54, 120
6, 252779, Note_on_c, 2, 54, 0
6, 252780, Note_on_c, 2, 54, 120
6, 252839, Note_on_c, 2, 54, 0
6, 252840, Note_on_c, 2, 54, 120
6, 252899, Note_on_c, 2, 54, 0
6, 252900, Note_on_c, 2, 54, 120
6, 252959, Note_on_c, 2, 54, 0
6, 252960, Note_on_c, 2, 54, 120
6, 253019, Note_on_c, 2, 54, 0
6, 253020, Note_on_c, 2, 54, 120
6, 253079, Note_on_c, 2, 54, 0
6, 253740, Note_on_c, 2, 66, 120
6, 253769, Note_on_c, 2, 66, 0
6, 253770, Note_on_c, 2, 67, 120
6, 253799, Note_on_c, 2, 67, 0
6, 253800, Note_on_c, 2, 69, 120
6, 253859, Note_on_c, 2, 69, 0
6, 253860, Note_on_c, 2, 69, 120
6, 253919, Note_on_c, 2, 69, 0
6, 253920, Note_on_c, 2, 69, 120
6, 253979, Note_on_c, 2, 69, 0
6, 253980, Note_on_c, 2, 69, 120
6, 254039, Note_on_c, 2, 69, 0
6, 254040, Note_on_c, 2, 69, 120
6, 254099, Note_on_c, 2, 69, 0
6, 254100, Note_on_c, 2, 69, 120
6, 254159, Note_on_c, 2, 69, 0
6, 254160, Note_on_c, 2, 67, 120
6, 254189, Note_on_c, 2, 67, 0
6, 254190, Note_on_c, 2, 69, 120
6, 254219, Note_on_c, 2, 69, 0
6, 254220, Note_on_c, 2, 67, 120
6, 254249, Note_on_c, 2, 67, 0
6, 254250, Note_on_c, 2, 69, 120
6, 254279, Note_on_c, 2, 69, 0
6, 254280, Note_on_c, 2, 71, 120
6, 254309, Note_on_c, 2, 71, 0
6, 254310, Note_on_c, 2, 69, 120
6, 254339, Note_on_c, 2, 69, 0
6, 254340, Note_on_c, 2, 67, 120
6, 254369, Note_on_c, 2, 67, 0
6, 254370, Note_on_c, 2, 69, 120
6, 254399, Note_on_c, 2, 69, 0
6, 254400, Note_on_c, 2, 67, 120
6, 254429, Note_on_c, 2, 67, 0
6, 254430, Note_on_c, 2, 69, 120
6, 254459, Note_on_c, 2, 69, 0
6, 254460, Note_on_c, 2, 71, 120
6, 254489, Note_on_c, 2, 71, 0
6, 254490, Note_on_c, 2, 69, 120
6, 254519, Note_on_c, 2, 69, 0
6, 254520, Note_on_c, 2, 67, 120
6, 254579, Note_on_c, 2, 67, 0
6, 254580, Note_on_c, 2, 67, 120
6, 254639, Note_on_c, 2, 67, 0
6, 254640, Note_on_c, 2, 67, 120
6, 254699, Note_on_c, 2, 67, 0
6, 254700, Note_on_c, 2, 67, 120
6, 254759, Note_on_c, 2, 67, 0
6, 254760, Note_on_c, 2, 67, 120
6, 254819, Note_on_c, 2, 67, 0
6, 254820, Note_on_c, 2, 67, 120
6, 254879, Note_on_c, 2, 67, 0
6, 254880, Note_on_c, 2, 66, 120
6, 254909, Note_on_c, 2, 66, 0
6, 254910, Note_on_c, 2, 67, 120
6, 254939, Note_on_c, 2, 67, 0
6, 254940, Note_on_c, 2, 66, 120
6, 254969, Note_on_c, 2, 66, 0
6, 254970, Note_on_c, 2, 67, 120
6, 254999, Note_on_c, 2, 67, 0
6, 255000, Note_on_c, 2, 69, 120
6, 255029, Note_on_c, 2, 69, 0
6, 255030, Note_on_c, 2, 67, 120
6, 255059, Note_on_c, 2, 67, 0
6, 255060, Note_on_c, 2, 66, 120
6, 255089, Note_on_c, 2, 66, 0
6, 255090, Note_on_c, 2, 67, 120
6, 255119, Note_on_c, 2, 67, 0
6, 255120, Note_on_c, 2, 66, 120
6, 255149, Note_on_c, 2, 66, 0
6, 255150, Note_on_c, 2, 67, 120
6, 255179, Note_on_c, 2, 67, 0
6, 255180, Note_on_c, 2, 69, 120
6, 255209, Note_on_c, 2, 69, 0
6, 255210, Note_on_c, 2, 67, 120
6, 255239, Note_on_c, 2, 67, 0
6, 255240, Note_on_c, 2, 66, 120
6, 255299, Note_on_c, 2, 66, 0
6, 255300, Note_on_c, 2, 62, 120
6, 255359, Note_on_c, 2, 62, 0
6, 255360, Note_on_c, 2, 57, 120
6, 255419, Note_on_c, 2, 57, 0
6, 255420, Note_on_c, 2, 62, 120
6, 255479, Note_on_c, 2, 62, 0
6, 255480, Note_on_c, 2, 57, 120
6, 255539, Note_on_c, 2, 57, 0
6, 255540, Note_on_c, 2, 54, 120
6, 255569, Note_on_c, 2, 54, 0
6, 255570, Note_on_c, 2, 57, 120
6, 255599, Note_on_c, 2, 57, 0
6, 255600, Note_on_c, 2, 62, 120
6, 255629, Note_on_c, 2, 62, 0
6, 255630, Note_on_c, 2, 64, 120
6, 255659, Note_on_c, 2, 64, 0
6, 255660, Note_on_c, 2, 66, 120
6, 255689, Note_on_c, 2, 66, 0
6, 255690, Note_on_c, 2, 67, 120
6, 255719, Note_on_c, 2, 67, 0
6, 255720, Note_on_c, 2, 69, 120
6, 255749, Note_on_c, 2, 69, 0
6, 255750, Note_on_c, 2, 67, 120
6, 255779, Note_on_c, 2, 67, 0
6, 255780, Note_on_c, 2, 66, 120
6, 255809, Note_on_c, 2, 66, 0
6, 255810, Note_on_c, 2, 67, 120
6, 255839, Note_on_c, 2, 67, 0
6, 255840, Note_on_c, 2, 66, 120
6, 255869, Note_on_c, 2, 66, 0
6, 255870, Note_on_c, 2, 67, 120
6, 255899, Note_on_c, 2, 67, 0
6, 255900, Note_on_c, 2, 69, 120
6, 255929, Note_on_c, 2, 69, 0
6, 255930, Note_on_c, 2, 67, 120
6, 255959, Note_on_c, 2, 67, 0
6, 255960, Note_on_c, 2, 66, 120
6, 256019, Note_on_c, 2, 66, 0
6, 256500, Note_on_c, 2, 62, 120
6, 256529, Note_on_c, 2, 62, 0
6, 256530, Note_on_c, 2, 64, 120
6, 256559, Note_on_c, 2, 64, 0
6, 256560, Note_on_c, 2, 62, 120
6, 256589, Note_on_c, 2, 62, 0
6, 256590, Note_on_c, 2, 64, 120
6, 256619, Note_on_c, 2, 64, 0
6, 256620, Note_on_c, 2, 66, 120
6, 256649, Note_on_c, 2, 66, 0
6, 256650, Note_on_c, 2, 68, 120
6, 256679, Note_on_c, 2, 68, 0
6, 256680, Note_on_c, 2, 69, 120
6, 256739, Note_on_c, 2, 69, 0
6, 256740, Note_on_c, 2, 64, 120
6, 256799, Note_on_c, 2, 64, 0
6, 256860, Note_on_c, 2, 64, 120
6, 256889, Note_on_c, 2, 64, 0
6, 256890, Note_on_c, 2, 66, 120
6, 256919, Note_on_c, 2, 66, 0
6, 256920, Note_on_c, 2, 64, 120
6, 256949, Note_on_c, 2, 64, 0
6, 256950, Note_on_c, 2, 66, 120
6, 256979, Note_on_c, 2, 66, 0
6, 256980, Note_on_c, 2, 67, 120
6, 257009, Note_on_c, 2, 67, 0
6, 257010, Note_on_c, 2, 64, 120
6, 257039, Note_on_c, 2, 64, 0
6, 257040, Note_on_c, 2, 66, 120
6, 257099, Note_on_c, 2, 66, 0
6, 257100, Note_on_c, 2, 69, 120
6, 257159, Note_on_c, 2, 69, 0
6, 257220, Note_on_c, 2, 66, 120
6, 257249, Note_on_c, 2, 66, 0
6, 257250, Note_on_c, 2, 67, 120
6, 257279, Note_on_c, 2, 67, 0
6, 257280, Note_on_c, 2, 66, 120
6, 257309, Note_on_c, 2, 66, 0
6, 257310, Note_on_c, 2, 67, 120
6, 257339, Note_on_c, 2, 67, 0
6, 257340, Note_on_c, 2, 69, 120
6, 257369, Note_on_c, 2, 69, 0
6, 257370, Note_on_c, 2, 66, 120
6, 257399, Note_on_c, 2, 66, 0
6, 257400, Note_on_c, 2, 71, 120
6, 257429, Note_on_c, 2, 71, 0
6, 257430, Note_on_c, 2, 73, 120
6, 257459, Note_on_c, 2, 73, 0
6, 257460, Note_on_c, 2, 71, 120
6, 257489, Note_on_c, 2, 71, 0
6, 257490, Note_on_c, 2, 73, 120
6, 257519, Note_on_c, 2, 73, 0
6, 257520, Note_on_c, 2, 74, 120
6, 257549, Note_on_c, 2, 74, 0
6, 257550, Note_on_c, 2, 71, 120
6, 257579, Note_on_c, 2, 71, 0
6, 257580, Note_on_c, 2, 73, 120
6, 257609, Note_on_c, 2, 73, 0
6, 257610, Note_on_c, 2, 71, 120
6, 257639, Note_on_c, 2, 71, 0
6, 257640, Note_on_c, 2, 69, 120
6, 257669, Note_on_c, 2, 69, 0
6, 257670, Note_on_c, 2, 67, 120
6, 257699, Note_on_c, 2, 67, 0
6, 257700, Note_on_c, 2, 66, 120
6, 257729, Note_on_c, 2, 66, 0
6, 257730, Note_on_c, 2, 67, 120
6, 257759, Note_on_c, 2, 67, 0
6, 257760, Note_on_c, 2, 69, 120
6, 257789, Note_on_c, 2, 69, 0
6, 257790, Note_on_c, 2, 71, 120
6, 257819, Note_on_c, 2, 71, 0
6, 257820, Note_on_c, 2, 73, 120
6, 257849, Note_on_c, 2, 73, 0
6, 257850, Note_on_c, 2, 74, 120
6, 257879, Note_on_c, 2, 74, 0
6, 257880, Note_on_c, 2, 71, 120
6, 257909, Note_on_c, 2, 71, 0
6, 257910, Note_on_c, 2, 73, 120
6, 257939, Note_on_c, 2, 73, 0
6, 257940, Note_on_c, 2, 74, 120
6, 257999, Note_on_c, 2, 74, 0
6, 258000, Note_on_c, 2, 69, 120
6, 258059, Note_on_c, 2, 69, 0
6, 258060, Note_on_c, 2, 66, 120
6, 258119, Note_on_c, 2, 66, 0
6, 258120, Note_on_c, 2, 69, 120
6, 258359, Note_on_c, 2, 69, 0
6, 258960, Note_on_c, 2, 69, 127
6, 259020, Note_on_c, 2, 69, 0
6, 259020, Note_on_c, 2, 71, 127
6, 259080, Note_on_c, 2, 71, 0
6, 259080, Note_on_c, 2, 67, 127
6, 259140, Note_on_c, 2, 67, 0
6, 259500, Note_on_c, 2, 64, 120
6, 259559, Note_on_c, 2, 64, 0
6, 259560, Note_on_c, 2, 69, 120
6, 259589, Note_on_c, 2, 69, 0
6, 259590, Note_on_c, 2, 71, 120
6, 259619, Note_on_c, 2, 71, 0
6, 259620, Note_on_c, 2, 69, 120
6, 259649, Note_on_c, 2, 69, 0
6, 259650, Note_on_c, 2, 71, 120
6, 259679, Note_on_c, 2, 71, 0
6, 259680, Note_on_c, 2, 72, 120
6, 259709, Note_on_c, 2, 72, 0
6, 259710, Note_on_c, 2, 71, 120
6, 259739, Note_on_c, 2, 71, 0
6, 259740, Note_on_c, 2, 69, 120
6, 259799, Note_on_c, 2, 69, 0
6, 259980, Note_on_c, 2, 71, 120
6, 260039, Note_on_c, 2, 71, 0
6, 260040, Note_on_c, 2, 67, 120
6, 260099, Note_on_c, 2, 67, 0
6, 260100, Note_on_c, 2, 67, 120
6, 260159, Note_on_c, 2, 67, 0
6, 260160, Note_on_c, 2, 71, 120
6, 260219, Note_on_c, 2, 71, 0
6, 260220, Note_on_c, 2, 67, 120
6, 260279, Note_on_c, 2, 67, 0
6, 260280, Note_on_c, 2, 67, 120
6, 260309, Note_on_c, 2, 67, 0
6, 260310, Note_on_c, 2, 69, 120
6, 260339, Note_on_c, 2, 69, 0
6, 260340, Note_on_c, 2, 67, 120
6, 260369, Note_on_c, 2, 67, 0
6, 260370, Note_on_c, 2, 69, 120
6, 260399, Note_on_c, 2, 69, 0
6, 260400, Note_on_c, 2, 71, 120
6, 260429, Note_on_c, 2, 71, 0
6, 260430, Note_on_c, 2, 69, 120
6, 260459, Note_on_c, 2, 69, 0
6, 260460, Note_on_c, 2, 67, 120
6, 260519, Note_on_c, 2, 67, 0
6, 260700, Note_on_c, 2, 69, 120
6, 260759, Note_on_c, 2, 69, 0
6, 260760, Note_on_c, 2, 66, 120
6, 260819, Note_on_c, 2, 66, 0
6, 260820, Note_on_c, 2, 66, 120
6, 260879, Note_on_c, 2, 66, 0
6, 260880, Note_on_c, 2, 69, 120
6, 260939, Note_on_c, 2, 69, 0
6, 260940, Note_on_c, 2, 66, 120
6, 260999, Note_on_c, 2, 66, 0
6, 261000, Note_on_c, 2, 71, 120
6, 261179, Note_on_c, 2, 71, 0
6, 261210, Note_on_c, 2, 69, 120
6, 261239, Note_on_c, 2, 69, 0
6, 261240, Note_on_c, 2, 71, 120
6, 261269, Note_on_c, 2, 71, 0
6, 261270, Note_on_c, 2, 73, 120
6, 261299, Note_on_c, 2, 73, 0
6, 261300, Note_on_c, 2, 71, 120
6, 261329, Note_on_c, 2, 71, 0
6, 261330, Note_on_c, 2, 73, 120
6, 261359, Note_on_c, 2, 73, 0
6, 261360, Note_on_c, 2, 69, 120
6, 261539, Note_on_c, 2, 69, 0
6, 261540, Note_on_c, 2, 69, 120
6, 261569, Note_on_c, 2, 69, 0
6, 261570, Note_on_c, 2, 67, 120
6, 261599, Note_on_c, 2, 67, 0
6, 261600, Note_on_c, 2, 69, 120
6, 261629, Note_on_c, 2, 69, 0
6, 261630, Note_on_c, 2, 71, 120
6, 261659, Note_on_c, 2, 71, 0
6, 261660, Note_on_c, 2, 69, 120
6, 261689, Note_on_c, 2, 69, 0
6, 261690, Note_on_c, 2, 71, 120
6, 261719, Note_on_c, 2, 71, 0
6, 261720, Note_on_c, 2, 67, 120
6, 261899, Note_on_c, 2, 67, 0
6, 261930, Note_on_c, 2, 66, 120
6, 261959, Note_on_c, 2, 66, 0
6, 261960, Note_on_c, 2, 67, 120
6, 261989, Note_on_c, 2, 67, 0
6, 261990, Note_on_c, 2, 69, 120
6, 262019, Note_on_c, 2, 69, 0
6, 262020, Note_on_c, 2, 67, 120
6, 262049, Note_on_c, 2, 67, 0
6, 262050, Note_on_c, 2, 69, 120
6, 262079, Note_on_c, 2, 69, 0
6, 262080, Note_on_c, 2, 66, 120
6, 262139, Note_on_c, 2, 66, 0
6, 262140, Note_on_c, 2, 69, 120
6, 262199, Note_on_c, 2, 69, 0
6, 262200, Note_on_c, 2, 66, 120
6, 262259, Note_on_c, 2, 66, 0
6, 262260, Note_on_c, 2, 62, 120
6, 262319, Note_on_c, 2, 62, 0
6, 262320, Note_on_c, 2, 57, 120
6, 262379, Note_on_c, 2, 57, 0
6, 262380, Note_on_c, 2, 62, 120
6, 262439, Note_on_c, 2, 62, 0
6, 262440, Note_on_c, 2, 64, 120
6, 262469, Note_on_c, 2, 64, 0
6, 262470, Note_on_c, 2, 66, 120
6, 262499, Note_on_c, 2, 66, 0
6, 262500, Note_on_c, 2, 64, 120
6, 262529, Note_on_c, 2, 64, 0
6, 262530, Note_on_c, 2, 66, 120
6, 262559, Note_on_c, 2, 66, 0
6, 262560, Note_on_c, 2, 67, 120
6, 262589, Note_on_c, 2, 67, 0
6, 262590, Note_on_c, 2, 66, 120
6, 262619, Note_on_c, 2, 66, 0
6, 262620, Note_on_c, 2, 64, 120
6, 262679, Note_on_c, 2, 64, 0
6, 262680, Note_on_c, 2, 67, 120
6, 262739, Note_on_c, 2, 67, 0
6, 262800, Note_on_c, 2, 66, 120
6, 262829, Note_on_c, 2, 66, 0
6, 262830, Note_on_c, 2, 67, 120
6, 262859, Note_on_c, 2, 67, 0
6, 262860, Note_on_c, 2, 66, 120
6, 262889, Note_on_c, 2, 66, 0
6, 262890, Note_on_c, 2, 67, 120
6, 262919, Note_on_c, 2, 67, 0
6, 262920, Note_on_c, 2, 69, 120
6, 262949, Note_on_c, 2, 69, 0
6, 262950, Note_on_c, 2, 67, 120
6, 262979, Note_on_c, 2, 67, 0
6, 262980, Note_on_c, 2, 66, 120
6, 263039, Note_on_c, 2, 66, 0
6, 263040, Note_on_c, 2, 69, 120
6, 263099, Note_on_c, 2, 69, 0
6, 263160, Note_on_c, 2, 68, 120
6, 263189, Note_on_c, 2, 68, 0
6, 263190, Note_on_c, 2, 69, 120
6, 263219, Note_on_c, 2, 69, 0
6, 263220, Note_on_c, 2, 68, 120
6, 263249, Note_on_c, 2, 68, 0
6, 263250, Note_on_c, 2, 69, 120
6, 263279, Note_on_c, 2, 69, 0
6, 263280, Note_on_c, 2, 71, 120
6, 263309, Note_on_c, 2, 71, 0
6, 263310, Note_on_c, 2, 68, 120
6, 263339, Note_on_c, 2, 68, 0
6, 263340, Note_on_c, 2, 69, 120
6, 263399, Note_on_c, 2, 69, 0
6, 263400, Note_on_c, 2, 64, 120
6, 263459, Note_on_c, 2, 64, 0
6, 263460, Note_on_c, 2, 66, 120
6, 263549, Note_on_c, 2, 66, 0
6, 263550, Note_on_c, 2, 67, 120
6, 263579, Note_on_c, 2, 67, 0
6, 263580, Note_on_c, 2, 64, 120
6, 263669, Note_on_c, 2, 64, 0
6, 263670, Note_on_c, 2, 62, 120
6, 263699, Note_on_c, 2, 62, 0
6, 263700, Note_on_c, 2, 62, 120
6, 263759, Note_on_c, 2, 62, 0
6, 265980, Note_on_c, 2, 69, 127
6, 266040, Note_on_c, 2, 69, 0
6, 266040, Note_on_c, 2, 66, 127
6, 266100, Note_on_c, 2, 66, 0
6, 266100, Note_on_c, 2, 62, 127
6, 266160, Note_on_c, 2, 62, 0
6, 266160, Note_on_c, 2, 57, 127
6, 266220, Note_on_c, 2, 57, 0
6, 266220, Note_on_c, 2, 62, 127
6, 266280, Note_on_c, 2, 62, 0
6, 266280, Note_on_c, 2, 57, 127
6, 266340, Note_on_c, 2, 57, 0
6, 266340, Note_on_c, 2, 54, 127
6, 266370, Note_on_c, 2, 54, 0
6, 266370, Note_on_c, 2, 57, 127
6, 266400, Note_on_c, 2, 57, 0
6, 266400, Note_on_c, 2, 62, 127
6, 266430, Note_on_c, 2, 62, 0
6, 266430, Note_on_c, 2, 64, 127
6, 266460, Note_on_c, 2, 64, 0
6, 266460, Note_on_c, 2, 66, 127
6, 266490, Note_on_c, 2, 66, 0
6, 266490, Note_on_c, 2, 67, 127
6, 266520, Note_on_c, 2, 67, 0
6, 266520, Note_on_c, 2, 69, 127
6, 266550, Note_on_c, 2, 69, 0
6, 266550, Note_on_c, 2, 67, 127
6, 266580, Note_on_c, 2, 67, 0
6, 266580, Note_on_c, 2, 66, 127
6, 266610, Note_on_c, 2, 66, 0
6, 266610, Note_on_c, 2, 67, 127
6, 266640, Note_on_c, 2, 67, 0
6, 266640, Note_on_c, 2, 66, 127
6, 266670, Note_on_c, 2, 66, 0
6, 266670, Note_on_c, 2, 67, 127
6, 266700, Note_on_c, 2, 67, 0
6, 266700, Note_on_c, 2, 69, 127
6, 266730, Note_on_c, 2, 69, 0
6, 266730, Note_on_c, 2, 67, 127
6, 266760, Note_on_c, 2, 67, 0
6, 266760, Note_on_c, 2, 66, 127
6, 267180, Note_on_c, 2, 66, 0
6, 267180, Note_on_c, 2, 67, 127
6, 267210, Note_on_c, 2, 67, 0
6, 267210, Note_on_c, 2, 66, 127
6, 267240, Note_on_c, 2, 66, 0
6, 267240, Note_on_c, 2, 64, 127
6, 267270, Note_on_c, 2, 64, 0
6, 267270, Note_on_c, 2, 62, 127
6, 267300, Note_on_c, 2, 62, 0
6, 267300, Note_on_c, 2, 64, 127
6, 267360, Note_on_c, 2, 64, 0
6, 267360, Note_on_c, 2, 57, 127
6, 267420, Note_on_c, 2, 57, 0
6, 267420, Note_on_c, 2, 69, 127
6, 267480, Note_on_c, 2, 69, 0
6, 267480, Note_on_c, 2, 69, 127
6, 267690, Note_on_c, 2, 69, 0
6, 267690, Note_on_c, 2, 67, 127
6, 267720, Note_on_c, 2, 67, 0
6, 267720, Note_on_c, 2, 69, 127
6, 267750, Note_on_c, 2, 69, 0
6, 267750, Note_on_c, 2, 71, 127
6, 267780, Note_on_c, 2, 71, 0
6, 267780, Note_on_c, 2, 69, 127
6, 267810, Note_on_c, 2, 69, 0
6, 267810, Note_on_c, 2, 71, 127
6, 267840, Note_on_c, 2, 71, 0
6, 267840, Note_on_c, 2, 67, 127
6, 267870, Note_on_c, 2, 67, 0
6, 267870, Note_on_c, 2, 69, 127
6, 267900, Note_on_c, 2, 69, 0
6, 267900, Note_on_c, 2, 67, 127
6, 267930, Note_on_c, 2, 67, 0
6, 267930, Note_on_c, 2, 69, 127
6, 267960, Note_on_c, 2, 69, 0
6, 267960, Note_on_c, 2, 71, 127
6, 267990, Note_on_c, 2, 71, 0
6, 267990, Note_on_c, 2, 69, 127
6, 268020, Note_on_c, 2, 69, 0
6, 268020, Note_on_c, 2, 67, 127
6, 268050, Note_on_c, 2, 67, 0
6, 268050, Note_on_c, 2, 69, 127
6, 268080, Note_on_c, 2, 69, 0
6, 268080, Note_on_c, 2, 67, 127
6, 268110, Note_on_c, 2, 67, 0
6, 268110, Note_on_c, 2, 69, 127
6, 268140, Note_on_c, 2, 69, 0
6, 268140, Note_on_c, 2, 71, 127
6, 268170, Note_on_c, 2, 71, 0
6, 268170, Note_on_c, 2, 69, 127
6, 268200, Note_on_c, 2, 69, 0
6, 268200, Note_on_c, 2, 67, 127
6, 268410, Note_on_c, 2, 67, 0
6, 268410, Note_on_c, 2, 66, 127
6, 268440, Note_on_c, 2, 66, 0
6, 268440, Note_on_c, 2, 67, 127
6, 268470, Note_on_c, 2, 67, 0
6, 268470, Note_on_c, 2, 69, 127
6, 268500, Note_on_c, 2, 69, 0
6, 268500, Note_on_c, 2, 67, 127
6, 268530, Note_on_c, 2, 67, 0
6, 268530, Note_on_c, 2, 69, 127
6, 268560, Note_on_c, 2, 69, 0
6, 268560, Note_on_c, 2, 66, 120
6, 268589, Note_on_c, 2, 66, 0
6, 268590, Note_on_c, 2, 67, 120
6, 268619, Note_on_c, 2, 67, 0
6, 268620, Note_on_c, 2, 66, 120
6, 268649, Note_on_c, 2, 66, 0
6, 268650, Note_on_c, 2, 67, 120
6, 268679, Note_on_c, 2, 67, 0
6, 268680, Note_on_c, 2, 69, 120
6, 268709, Note_on_c, 2, 69, 0
6, 268710, Note_on_c, 2, 67, 120
6, 268739, Note_on_c, 2, 67, 0
6, 268740, Note_on_c, 2, 66, 120
6, 268769, Note_on_c, 2, 66, 0
6, 268770, Note_on_c, 2, 67, 120
6, 268799, Note_on_c, 2, 67, 0
6, 268800, Note_on_c, 2, 66, 120
6, 268829, Note_on_c, 2, 66, 0
6, 268830, Note_on_c, 2, 67, 120
6, 268859, Note_on_c, 2, 67, 0
6, 268860, Note_on_c, 2, 69, 120
6, 268919, Note_on_c, 2, 69, 0
6, 268980, Note_on_c, 2, 71, 120
6, 269039, Note_on_c, 2, 71, 0
6, 269040, Note_on_c, 2, 67, 120
6, 269099, Note_on_c, 2, 67, 0
6, 269100, Note_on_c, 2, 67, 120
6, 269159, Note_on_c, 2, 67, 0
6, 269160, Note_on_c, 2, 71, 120
6, 269219, Note_on_c, 2, 71, 0
6, 269220, Note_on_c, 2, 64, 120
6, 269279, Note_on_c, 2, 64, 0
6, 269340, Note_on_c, 2, 69, 120
6, 269399, Note_on_c, 2, 69, 0
6, 269400, Note_on_c, 2, 66, 120
6, 269459, Note_on_c, 2, 66, 0
6, 269460, Note_on_c, 2, 66, 120
6, 269519, Note_on_c, 2, 66, 0
6, 269520, Note_on_c, 2, 69, 120
6, 269579, Note_on_c, 2, 69, 0
6, 269580, Note_on_c, 2, 62, 120
6, 269639, Note_on_c, 2, 62, 0
6, 269700, Note_on_c, 2, 67, 120
6, 269759, Note_on_c, 2, 67, 0
6, 269760, Note_on_c, 2, 64, 120
6, 269819, Note_on_c, 2, 64, 0
6, 269820, Note_on_c, 2, 64, 120
6, 269879, Note_on_c, 2, 64, 0
6, 269880, Note_on_c, 2, 67, 120
6, 269939, Note_on_c, 2, 67, 0
6, 269940, Note_on_c, 2, 57, 120
6, 269999, Note_on_c, 2, 57, 0
6, 270060, Note_on_c, 2, 66, 120
6, 270089, Note_on_c, 2, 66, 0
6, 270090, Note_on_c, 2, 67, 120
6, 270119, Note_on_c, 2, 67, 0
6, 270120, Note_on_c, 2, 66, 120
6, 270149, Note_on_c, 2, 66, 0
6, 270150, Note_on_c, 2, 67, 120
6, 270179, Note_on_c, 2, 67, 0
6, 270180, Note_on_c, 2, 69, 120
6, 270239, Note_on_c, 2, 69, 0
6, 270240, Note_on_c, 2, 71, 120
6, 270269, Note_on_c, 2, 71, 0
6, 270270, Note_on_c, 2, 69, 120
6, 270299, Note_on_c, 2, 69, 0
6, 270300, Note_on_c, 2, 67, 120
6, 270329, Note_on_c, 2, 67, 0
6, 270330, Note_on_c, 2, 66, 120
6, 270359, Note_on_c, 2, 66, 0
6, 270360, Note_on_c, 2, 64, 120
6, 270419, Note_on_c, 2, 64, 0
6, 270420, Note_on_c, 2, 67, 120
6, 270479, Note_on_c, 2, 67, 0
6, 270540, Note_on_c, 2, 64, 120
6, 270569, Note_on_c, 2, 64, 0
6, 270570, Note_on_c, 2, 66, 120
6, 270599, Note_on_c, 2, 66, 0
6, 270600, Note_on_c, 2, 64, 120
6, 270629, Note_on_c, 2, 64, 0
6, 270630, Note_on_c, 2, 66, 120
6, 270659, Note_on_c, 2, 66, 0
6, 270660, Note_on_c, 2, 67, 120
6, 270689, Note_on_c, 2, 67, 0
6, 270690, Note_on_c, 2, 64, 120
6, 270719, Note_on_c, 2, 64, 0
6, 270720, Note_on_c, 2, 66, 120
6, 270779, Note_on_c, 2, 66, 0
6, 270780, Note_on_c, 2, 69, 120
6, 270839, Note_on_c, 2, 69, 0
6, 270900, Note_on_c, 2, 66, 120
6, 270929, Note_on_c, 2, 66, 0
6, 270930, Note_on_c, 2, 67, 120
6, 270959, Note_on_c, 2, 67, 0
6, 270960, Note_on_c, 2, 66, 120
6, 270989, Note_on_c, 2, 66, 0
6, 270990, Note_on_c, 2, 67, 120
6, 271019, Note_on_c, 2, 67, 0
6, 271020, Note_on_c, 2, 69, 120
6, 271049, Note_on_c, 2, 69, 0
6, 271050, Note_on_c, 2, 66, 120
6, 271079, Note_on_c, 2, 66, 0
6, 271080, Note_on_c, 2, 71, 120
6, 271109, Note_on_c, 2, 71, 0
6, 271110, Note_on_c, 2, 73, 120
6, 271139, Note_on_c, 2, 73, 0
6, 271140, Note_on_c, 2, 71, 120
6, 271169, Note_on_c, 2, 71, 0
6, 271170, Note_on_c, 2, 73, 120
6, 271199, Note_on_c, 2, 73, 0
6, 271200, Note_on_c, 2, 74, 120
6, 271229, Note_on_c, 2, 74, 0
6, 271230, Note_on_c, 2, 71, 120
6, 271259, Note_on_c, 2, 71, 0
6, 271260, Note_on_c, 2, 73, 120
6, 271289, Note_on_c, 2, 73, 0
6, 271290, Note_on_c, 2, 71, 120
6, 271319, Note_on_c, 2, 71, 0
6, 271320, Note_on_c, 2, 69, 120
6, 271349, Note_on_c, 2, 69, 0
6, 271350, Note_on_c, 2, 67, 120
6, 271379, Note_on_c, 2, 67, 0
6, 271380, Note_on_c, 2, 66, 120
6, 271409, Note_on_c, 2, 66, 0
6, 271410, Note_on_c, 2, 67, 120
6, 271439, Note_on_c, 2, 67, 0
6, 271440, Note_on_c, 2, 69, 120
6, 271469, Note_on_c, 2, 69, 0
6, 271470, Note_on_c, 2, 71, 120
6, 271499, Note_on_c, 2, 71, 0
6, 271500, Note_on_c, 2, 73, 120
6, 271529, Note_on_c, 2, 73, 0
6, 271530, Note_on_c, 2, 74, 120
6, 271559, Note_on_c, 2, 74, 0
6, 271560, Note_on_c, 2, 71, 120
6, 271589, Note_on_c, 2, 71, 0
6, 271590, Note_on_c, 2, 73, 120
6, 271619, Note_on_c, 2, 73, 0
6, 271620, Note_on_c, 2, 74, 120
6, 271739, Note_on_c, 2, 74, 0
6, 321060, Note_on_c, 2, 62, 120
6, 321060, Note_on_c, 2, 66, 120
6, 321119, Note_on_c, 2, 66, 0
6, 321119, Note_on_c, 2, 62, 0
6, 321120, Note_on_c, 2, 64, 120
6, 321120, Note_on_c, 2, 67, 120
6, 321179, Note_on_c, 2, 67, 0
6, 321179, Note_on_c, 2, 64, 0
6, 321180, Note_on_c, 2, 62, 120
6, 321180, Note_on_c, 2, 66, 120
6, 321239, Note_on_c, 2, 66, 0
6, 321239, Note_on_c, 2, 62, 0
6, 321240, Note_on_c, 2, 64, 120
6, 321240, Note_on_c, 2, 67, 120
6, 321299, Note_on_c, 2, 67, 0
6, 321299, Note_on_c, 2, 64, 0
6, 321300, Note_on_c, 2, 66, 120
6, 321300, Note_on_c, 2, 69, 120
6, 321539, Note_on_c, 2, 69, 0
6, 321539, Note_on_c, 2, 66, 0
6, 321540, Note_on_c, 2, 57, 120
6, 321659, Note_on_c, 2, 57, 0
6, 321660, Note_on_c, 2, 57, 120
6, 321779, Note_on_c, 2, 57, 0
6, 321780, Note_on_c, 2, 57, 120
6, 321899, Note_on_c, 2, 57, 0
6, 321900, Note_on_c, 2, 57, 120
6, 322019, Note_on_c, 2, 57, 0
6, 322020, Note_on_c, 2, 57, 120
6, 322139, Note_on_c, 2, 57, 0
6, 322140, Note_on_c, 2, 57, 120
6, 322259, Note_on_c, 2, 57, 0
6, 322260, Note_on_c, 2, 57, 120
6, 322379, Note_on_c, 2, 57, 0
6, 322380, Note_on_c, 2, 57, 120
6, 322499, Note_on_c, 2, 57, 0
6, 322500, Note_on_c, 2, 62, 120
6, 322500, Note_on_c, 2, 66, 120
6, 322559, Note_on_c, 2, 66, 0
6, 322559, Note_on_c, 2, 62, 0
6, 322560, Note_on_c, 2, 64, 120
6, 322560, Note_on_c, 2, 67, 120
6, 322619, Note_on_c, 2, 67, 0
6, 322619, Note_on_c, 2, 64, 0
6, 322620, Note_on_c, 2, 62, 120
6, 322620, Note_on_c, 2, 66, 120
6, 322679, Note_on_c, 2, 66, 0
6, 322679, Note_on_c, 2, 62, 0
6, 322680, Note_on_c, 2, 64, 120
6, 322680, Note_on_c, 2, 67, 120
6, 322739, Note_on_c, 2, 67, 0
6, 322739, Note_on_c, 2, 64, 0
6, 322740, Note_on_c, 2, 66, 120
6, 322740, Note_on_c, 2, 69, 120
6, 322979, Note_on_c, 2, 69, 0
6, 322979, Note_on_c, 2, 66, 0
6, 322980, Note_on_c, 2, 50, 120
6, 323099, Note_on_c, 2, 50, 0
6, 323100, Note_on_c, 2, 50, 120
6, 323219, Note_on_c, 2, 50, 0
6, 323220, Note_on_c, 2, 50, 120
6, 323339, Note_on_c, 2, 50, 0
6, 323340, Note_on_c, 2, 50, 120
6, 323459, Note_on_c, 2, 50, 0
6, 323460, Note_on_c, 2, 50, 120
6, 323579, Note_on_c, 2, 50, 0
6, 323580, Note_on_c, 2, 50, 120
6, 323699, Note_on_c, 2, 50, 0
6, 323700, Note_on_c, 2, 50, 120
6, 323819, Note_on_c, 2, 50, 0
6, 323820, Note_on_c, 2, 50, 120
6, 323939, Note_on_c, 2, 50, 0
6, 323940, Note_on_c, 2, 62, 120
6, 323940, Note_on_c, 2, 66, 120
6, 323999, Note_on_c, 2, 66, 0
6, 323999, Note_on_c, 2, 62, 0
6, 324000, Note_on_c, 2, 64, 120
6, 324000, Note_on_c, 2, 67, 120
6, 324059, Note_on_c, 2, 67, 0
6, 324059, Note_on_c, 2, 64, 0
6, 324060, Note_on_c, 2, 62, 120
6, 324060, Note_on_c, 2, 66, 120
6, 324119, Note_on_c, 2, 66, 0
6, 324119, Note_on_c, 2, 62, 0
6, 324120, Note_on_c, 2, 64, 120
6, 324120, Note_on_c, 2, 67, 120
6, 324179, Note_on_c, 2, 67, 0
6, 324179, Note_on_c, 2, 64, 0
6, 324180, Note_on_c, 2, 66, 120
6, 324180, Note_on_c, 2, 69, 120
6, 324419, Note_on_c, 2, 69, 0
6, 324419, Note_on_c, 2, 66, 0
6, 324420, Note_on_c, 2, 66, 120
6, 324420, Note_on_c, 2, 62, 120
6, 324479, Note_on_c, 2, 62, 0
6, 324479, Note_on_c, 2, 66, 0
6, 324480, Note_on_c, 2, 67, 120
6, 324480, Note_on_c, 2, 64, 120
6, 324539, Note_on_c, 2, 64, 0
6, 324539, Note_on_c, 2, 67, 0
6, 324540, Note_on_c, 2, 66, 120
6, 324540, Note_on_c, 2, 62, 120
6, 324599, Note_on_c, 2, 62, 0
6, 324599, Note_on_c, 2, 66, 0
6, 324600, Note_on_c, 2, 64, 120
6, 324600, Note_on_c, 2, 67, 120
6, 324659, Note_on_c, 2, 67, 0
6, 324659, Note_on_c, 2, 64, 0
6, 324660, Note_on_c, 2, 66, 120
6, 324660, Note_on_c, 2, 69, 120
6, 324719, Note_on_c, 2, 69, 0
6, 324719, Note_on_c, 2, 66, 0
6, 324720, Note_on_c, 2, 64, 120
6, 324720, Note_on_c, 2, 67, 120
6, 324779, Note_on_c, 2, 67, 0
6, 324779, Note_on_c, 2, 64, 0
6, 324780, Note_on_c, 2, 66, 120
6, 324780, Note_on_c, 2, 69, 120
6, 324839, Note_on_c, 2, 69, 0
6, 324839, Note_on_c, 2, 66, 0
6, 324840, Note_on_c, 2, 64, 120
6, 324840, Note_on_c, 2, 67, 120
6, 324899, Note_on_c, 2, 67, 0
6, 324899, Note_on_c, 2, 64, 0
6, 324900, Note_on_c, 2, 62, 120
6, 324900, Note_on_c, 2, 66, 120
6, 324959, Note_on_c, 2, 66, 0
6, 324959, Note_on_c, 2, 62, 0
6, 324960, Note_on_c, 2, 64, 120
6, 324960, Note_on_c, 2, 67, 120
6, 325019, Note_on_c, 2, 67, 0
6, 325019, Note_on_c, 2, 64, 0
6, 325020, Note_on_c, 2, 62, 120
6, 325020, Note_on_c, 2, 66, 120
6, 325079, Note_on_c, 2, 66, 0
6, 325079, Note_on_c, 2, 62, 0
6, 325080, Note_on_c, 2, 64, 120
6, 325080, Note_on_c, 2, 67, 120
6, 325139, Note_on_c, 2, 67, 0
6, 325139, Note_on_c, 2, 64, 0
6, 325140, Note_on_c, 2, 66, 120
6, 325140, Note_on_c, 2, 69, 120
6, 325199, Note_on_c, 2, 69, 0
6, 325199, Note_on_c, 2, 66, 0
6, 325200, Note_on_c, 2, 64, 120
6, 325200, Note_on_c, 2, 67, 120
6, 325259, Note_on_c, 2, 67, 0
6, 325259, Note_on_c, 2, 64, 0
6, 325260, Note_on_c, 2, 66, 120
6, 325260, Note_on_c, 2, 69, 120
6, 325319, Note_on_c, 2, 69, 0
6, 325319, Note_on_c, 2, 66, 0
6, 325320, Note_on_c, 2, 64, 120
6, 325320, Note_on_c, 2, 67, 120
6, 325379, Note_on_c, 2, 67, 0
6, 325379, Note_on_c, 2, 64, 0
6, 325380, Note_on_c, 2, 62, 120
6, 325380, Note_on_c, 2, 66, 120
6, 325499, Note_on_c, 2, 66, 0
6, 325499, Note_on_c, 2, 62, 0
6, 325500, Note_on_c, 2, 69, 120
6, 325500, Note_on_c, 2, 66, 120
6, 325559, Note_on_c, 2, 66, 0
6, 325559, Note_on_c, 2, 69, 0
6, 325560, Note_on_c, 2, 67, 120
6, 325560, Note_on_c, 2, 64, 120
6, 325619, Note_on_c, 2, 64, 0
6, 325619, Note_on_c, 2, 67, 0
6, 325620, Note_on_c, 2, 71, 120
6, 325620, Note_on_c, 2, 67, 120
6, 325739, Note_on_c, 2, 67, 0
6, 325739, Note_on_c, 2, 71, 0
6, 325740, Note_on_c, 2, 69, 120
6, 325740, Note_on_c, 2, 66, 120
6, 325799, Note_on_c, 2, 66, 0
6, 325799, Note_on_c, 2, 69, 0
6, 325800, Note_on_c, 2, 67, 120
6, 325800, Note_on_c, 2, 64, 120
6, 325859, Note_on_c, 2, 64, 0
6, 325859, Note_on_c, 2, 67, 0
6, 325860, Note_on_c, 2, 69, 120
6, 325860, Note_on_c, 2, 66, 120
6, 325979, Note_on_c, 2, 66, 0
6, 325979, Note_on_c, 2, 69, 0
6, 325980, Note_on_c, 2, 64, 120
6, 325980, Note_on_c, 2, 67, 120
6, 326039, Note_on_c, 2, 67, 0
6, 326039, Note_on_c, 2, 64, 0
6, 326040, Note_on_c, 2, 62, 120
6, 326040, Note_on_c, 2, 66, 120
6, 326099, Note_on_c, 2, 66, 0
6, 326099, Note_on_c, 2, 62, 0
6, 326100, Note_on_c, 2, 57, 120
6, 326100, Note_on_c, 2, 64, 120
6, 326339, Note_on_c, 2, 64, 0
6, 326339, Note_on_c, 2, 57, 0
6, 326340, Note_on_c, 2, 69, 120
6, 326340, Note_on_c, 2, 73, 120
6, 326399, Note_on_c, 2, 73, 0
6, 326399, Note_on_c, 2, 69, 0
6, 326400, Note_on_c, 2, 68, 120
6, 326400, Note_on_c, 2, 71, 120
6, 326459, Note_on_c, 2, 71, 0
6, 326459, Note_on_c, 2, 68, 0
6, 326460, Note_on_c, 2, 73, 120
6, 326460, Note_on_c, 2, 69, 120
6, 326519, Note_on_c, 2, 69, 0
6, 326519, Note_on_c, 2, 73, 0
6, 326520, Note_on_c, 2, 68, 120
6, 326520, Note_on_c, 2, 71, 120
6, 326579, Note_on_c, 2, 71, 0
6, 326579, Note_on_c, 2, 68, 0
6, 326580, Note_on_c, 2, 73, 120
6, 326580, Note_on_c, 2, 69, 120
6, 326819, Note_on_c, 2, 69, 0
6, 326819, Note_on_c, 2, 73, 0
6, 326820, Note_on_c, 2, 64, 120
6, 326939, Note_on_c, 2, 64, 0
6, 326940, Note_on_c, 2, 64, 120
6, 327059, Note_on_c, 2, 64, 0
6, 327060, Note_on_c, 2, 64, 120
6, 327179, Note_on_c, 2, 64, 0
6, 327180, Note_on_c, 2, 64, 120
6, 327299, Note_on_c, 2, 64, 0
6, 327300, Note_on_c, 2, 64, 120
6, 327419, Note_on_c, 2, 64, 0
6, 327420, Note_on_c, 2, 64, 120
6, 327539, Note_on_c, 2, 64, 0
6, 327540, Note_on_c, 2, 64, 120
6, 327659, Note_on_c, 2, 64, 0
6, 327660, Note_on_c, 2, 64, 120
6, 327779, Note_on_c, 2, 64, 0
6, 327780, Note_on_c, 2, 73, 120
6, 327780, Note_on_c, 2, 69, 120
6, 327839, Note_on_c, 2, 69, 0
6, 327839, Note_on_c, 2, 73, 0
6, 327840, Note_on_c, 2, 68, 120
6, 327840, Note_on_c, 2, 71, 120
6, 327899, Note_on_c, 2, 71, 0
6, 327899, Note_on_c, 2, 68, 0
6, 327900, Note_on_c, 2, 73, 120
6, 327900, Note_on_c, 2, 69, 120
6, 327959, Note_on_c, 2, 69, 0
6, 327959, Note_on_c, 2, 73, 0
6, 327960, Note_on_c, 2, 68, 120
6, 327960, Note_on_c, 2, 71, 120
6, 328019, Note_on_c, 2, 71, 0
6, 328019, Note_on_c, 2, 68, 0
6, 328020, Note_on_c, 2, 73, 120
6, 328020, Note_on_c, 2, 69, 120
6, 328259, Note_on_c, 2, 69, 0
6, 328259, Note_on_c, 2, 73, 0
6, 328260, Note_on_c, 2, 57, 120
6, 328379, Note_on_c, 2, 57, 0
6, 328380, Note_on_c, 2, 57, 120
6, 328499, Note_on_c, 2, 57, 0
6, 328500, Note_on_c, 2, 57, 120
6, 328619, Note_on_c, 2, 57, 0
6, 328620, Note_on_c, 2, 57, 120
6, 328739, Note_on_c, 2, 57, 0
6, 328740, Note_on_c, 2, 57, 120
6, 328859, Note_on_c, 2, 57, 0
6, 328860, Note_on_c, 2, 57, 120
6, 328979, Note_on_c, 2, 57, 0
6, 328980, Note_on_c, 2, 57, 120
6, 329099, Note_on_c, 2, 57, 0
6, 329100, Note_on_c, 2, 57, 120
6, 329219, Note_on_c, 2, 57, 0
6, 329220, Note_on_c, 2, 73, 120
6, 329220, Note_on_c, 2, 69, 120
6, 329279, Note_on_c, 2, 69, 0
6, 329279, Note_on_c, 2, 73, 0
6, 329280, Note_on_c, 2, 68, 120
6, 329280, Note_on_c, 2, 71, 120
6, 329339, Note_on_c, 2, 71, 0
6, 329339, Note_on_c, 2, 68, 0
6, 329340, Note_on_c, 2, 69, 120
6, 329340, Note_on_c, 2, 73, 120
6, 329399, Note_on_c, 2, 73, 0
6, 329399, Note_on_c, 2, 69, 0
6, 329400, Note_on_c, 2, 68, 120
6, 329400, Note_on_c, 2, 71, 120
6, 329459, Note_on_c, 2, 71, 0
6, 329459, Note_on_c, 2, 68, 0
6, 329460, Note_on_c, 2, 73, 120
6, 329460, Note_on_c, 2, 69, 120
6, 329699, Note_on_c, 2, 69, 0
6, 329699, Note_on_c, 2, 73, 0
6, 329700, Note_on_c, 2, 67, 120
6, 329700, Note_on_c, 2, 64, 120
6, 329759, Note_on_c, 2, 64, 0
6, 329759, Note_on_c, 2, 67, 0
6, 329760, Note_on_c, 2, 62, 120
6, 329760, Note_on_c, 2, 66, 120
6, 329819, Note_on_c, 2, 66, 0
6, 329819, Note_on_c, 2, 62, 0
6, 329820, Note_on_c, 2, 64, 120
6, 329820, Note_on_c, 2, 67, 120
6, 329879, Note_on_c, 2, 67, 0
6, 329879, Note_on_c, 2, 64, 0
6, 329880, Note_on_c, 2, 66, 120
6, 329880, Note_on_c, 2, 62, 120
6, 329939, Note_on_c, 2, 62, 0
6, 329939, Note_on_c, 2, 66, 0
6, 329940, Note_on_c, 2, 57, 120
6, 329940, Note_on_c, 2, 64, 120
6, 329999, Note_on_c, 2, 64, 0
6, 329999, Note_on_c, 2, 57, 0
6, 330000, Note_on_c, 2, 62, 120
6, 330000, Note_on_c, 2, 66, 120
6, 330059, Note_on_c, 2, 66, 0
6, 330059, Note_on_c, 2, 62, 0
6, 330060, Note_on_c, 2, 64, 120
6, 330060, Note_on_c, 2, 57, 120
6, 330119, Note_on_c, 2, 57, 0
6, 330119, Note_on_c, 2, 64, 0
6, 330120, Note_on_c, 2, 66, 120
6, 330120, Note_on_c, 2, 62, 120
6, 330179, Note_on_c, 2, 62, 0
6, 330179, Note_on_c, 2, 66, 0
6, 330180, Note_on_c, 2, 64, 120
6, 330180, Note_on_c, 2, 67, 120
6, 330239, Note_on_c, 2, 67, 0
6, 330239, Note_on_c, 2, 64, 0
6, 330240, Note_on_c, 2, 62, 120
6, 330240, Note_on_c, 2, 66, 120
6, 330299, Note_on_c, 2, 66, 0
6, 330299, Note_on_c, 2, 62, 0
6, 330300, Note_on_c, 2, 64, 120
6, 330300, Note_on_c, 2, 67, 120
6, 330359, Note_on_c, 2, 67, 0
6, 330359, Note_on_c, 2, 64, 0
6, 330360, Note_on_c, 2, 62, 120
6, 330360, Note_on_c, 2, 66, 120
6, 330419, Note_on_c, 2, 66, 0
6, 330419, Note_on_c, 2, 62, 0
6, 330420, Note_on_c, 2, 57, 120
6, 330420, Note_on_c, 2, 64, 120
6, 330479, Note_on_c, 2, 64, 0
6, 330479, Note_on_c, 2, 57, 0
6, 330480, Note_on_c, 2, 66, 120
6, 330480, Note_on_c, 2, 62, 120
6, 330539, Note_on_c, 2, 62, 0
6, 330539, Note_on_c, 2, 66, 0
6, 330540, Note_on_c, 2, 64, 120
6, 330540, Note_on_c, 2, 57, 120
6, 330599, Note_on_c, 2, 57, 0
6, 330599, Note_on_c, 2, 64, 0
6, 330600, Note_on_c, 2, 66, 120
6, 330600, Note_on_c, 2, 62, 120
6, 330659, Note_on_c, 2, 62, 0
6, 330659, Note_on_c, 2, 66, 0
6, 330660, Note_on_c, 2, 62, 120
6, 330660, Note_on_c, 2, 54, 120
6, 330719, Note_on_c, 2, 54, 0
6, 330719, Note_on_c, 2, 62, 0
6, 330720, Note_on_c, 2, 57, 120
6, 330720, Note_on_c, 2, 64, 120
6, 330779, Note_on_c, 2, 64, 0
6, 330779, Note_on_c, 2, 57, 0
6, 330780, Note_on_c, 2, 66, 120
6, 330780, Note_on_c, 2, 62, 120
6, 330839, Note_on_c, 2, 62, 0
6, 330839, Note_on_c, 2, 66, 0
6, 330840, Note_on_c, 2, 64, 120
6, 330840, Note_on_c, 2, 67, 120
6, 330899, Note_on_c, 2, 67, 0
6, 330899, Note_on_c, 2, 64, 0
6, 330900, Note_on_c, 2, 69, 120
6, 330900, Note_on_c, 2, 66, 120
6, 330959, Note_on_c, 2, 66, 0
6, 330960, Note_on_c, 2, 64, 120
6, 331019, Note_on_c, 2, 64, 0
6, 331020, Note_on_c, 2, 69, 0
6, 331020, Note_on_c, 2, 62, 120
6, 331020, Note_on_c, 2, 71, 120
6, 331079, Note_on_c, 2, 71, 0
6, 331079, Note_on_c, 2, 62, 0
6, 331080, Note_on_c, 2, 64, 120
6, 331080, Note_on_c, 2, 69, 120
6, 331139, Note_on_c, 2, 69, 0
6, 331139, Note_on_c, 2, 64, 0
6, 331140, Note_on_c, 2, 57, 120
6, 331140, Note_on_c, 2, 67, 120
6, 331199, Note_on_c, 2, 67, 0
6, 331200, Note_on_c, 2, 66, 120
6, 331259, Note_on_c, 2, 66, 0
6, 331260, Note_on_c, 2, 57, 0
6, 331260, Note_on_c, 2, 57, 120
6, 331260, Note_on_c, 2, 64, 120
6, 331319, Note_on_c, 2, 64, 0
6, 331320, Note_on_c, 2, 66, 120
6, 331379, Note_on_c, 2, 66, 0
6, 331380, Note_on_c, 2, 57, 0
6, 331380, Note_on_c, 2, 54, 120
6, 331380, Note_on_c, 2, 62, 120
6, 331619, Note_on_c, 2, 62, 0
6, 331619, Note_on_c, 2, 54, 0
6, 332100, Note_on_c, 2, 57, 120
6, 332219, Note_on_c, 2, 57, 0
6, 332220, Note_on_c, 2, 57, 120
6, 332339, Note_on_c, 2, 57, 0
6, 332340, Note_on_c, 2, 57, 120
6, 332459, Note_on_c, 2, 57, 0
6, 332460, Note_on_c, 2, 57, 120
6, 332579, Note_on_c, 2, 57, 0
6, 332580, Note_on_c, 2, 57, 120
6, 332699, Note_on_c, 2, 57, 0
6, 332700, Note_on_c, 2, 57, 120
6, 332819, Note_on_c, 2, 57, 0
6, 332820, Note_on_c, 2, 57, 120
6, 332939, Note_on_c, 2, 57, 0
6, 332940, Note_on_c, 2, 57, 120
6, 333059, Note_on_c, 2, 57, 0
6, 333060, Note_on_c, 2, 62, 120
6, 333060, Note_on_c, 2, 66, 120
6, 333119, Note_on_c, 2, 66, 0
6, 333119, Note_on_c, 2, 62, 0
6, 333120, Note_on_c, 2, 64, 120
6, 333120, Note_on_c, 2, 67, 120
6, 333179, Note_on_c, 2, 67, 0
6, 333179, Note_on_c, 2, 64, 0
6, 333180, Note_on_c, 2, 66, 120
6, 333180, Note_on_c, 2, 62, 120
6, 333239, Note_on_c, 2, 62, 0
6, 333239, Note_on_c, 2, 66, 0
6, 333240, Note_on_c, 2, 64, 120
6, 333240, Note_on_c, 2, 67, 120
6, 333299, Note_on_c, 2, 67, 0
6, 333299, Note_on_c, 2, 64, 0
6, 333300, Note_on_c, 2, 66, 120
6, 333300, Note_on_c, 2, 69, 120
6, 333539, Note_on_c, 2, 69, 0
6, 333539, Note_on_c, 2, 66, 0
6, 333540, Note_on_c, 2, 50, 120
6, 333659, Note_on_c, 2, 50, 0
6, 333660, Note_on_c, 2, 50, 120
6, 333779, Note_on_c, 2, 50, 0
6, 333780, Note_on_c, 2, 50, 120
6, 333899, Note_on_c, 2, 50, 0
6, 333900, Note_on_c, 2, 50, 120
6, 334019, Note_on_c, 2, 50, 0
6, 334020, Note_on_c, 2, 50, 120
6, 334139, Note_on_c, 2, 50, 0
6, 334140, Note_on_c, 2, 50, 120
6, 334259, Note_on_c, 2, 50, 0
6, 334260, Note_on_c, 2, 50, 120
6, 334379, Note_on_c, 2, 50, 0
6, 334380, Note_on_c, 2, 50, 120
6, 334499, Note_on_c, 2, 50, 0
6, 334500, Note_on_c, 2, 62, 120
6, 334500, Note_on_c, 2, 66, 120
6, 334559, Note_on_c, 2, 66, 0
6, 334559, Note_on_c, 2, 62, 0
6, 334560, Note_on_c, 2, 64, 120
6, 334560, Note_on_c, 2, 67, 120
6, 334619, Note_on_c, 2, 67, 0
6, 334619, Note_on_c, 2, 64, 0
6, 334620, Note_on_c, 2, 62, 120
6, 334620, Note_on_c, 2, 66, 120
6, 334679, Note_on_c, 2, 66, 0
6, 334679, Note_on_c, 2, 62, 0
6, 334680, Note_on_c, 2, 64, 120
6, 334680, Note_on_c, 2, 67, 120
6, 334739, Note_on_c, 2, 67, 0
6, 334739, Note_on_c, 2, 64, 0
6, 334740, Note_on_c, 2, 66, 120
6, 334740, Note_on_c, 2, 69, 120
6, 334979, Note_on_c, 2, 69, 0
6, 334979, Note_on_c, 2, 66, 0
6, 334980, Note_on_c, 2, 62, 120
6, 334980, Note_on_c, 2, 66, 120
6, 335039, Note_on_c, 2, 66, 0
6, 335039, Note_on_c, 2, 62, 0
6, 335040, Note_on_c, 2, 64, 120
6, 335040, Note_on_c, 2, 67, 120
6, 335099, Note_on_c, 2, 67, 0
6, 335099, Note_on_c, 2, 64, 0
6, 335100, Note_on_c, 2, 66, 120
6, 335100, Note_on_c, 2, 62, 120
6, 335159, Note_on_c, 2, 62, 0
6, 335159, Note_on_c, 2, 66, 0
6, 335160, Note_on_c, 2, 64, 120
6, 335160, Note_on_c, 2, 67, 120
6, 335219, Note_on_c, 2, 67, 0
6, 335219, Note_on_c, 2, 64, 0
6, 335220, Note_on_c, 2, 66, 120
6, 335220, Note_on_c, 2, 69, 120
6, 335279, Note_on_c, 2, 69, 0
6, 335279, Note_on_c, 2, 66, 0
6, 335280, Note_on_c, 2, 64, 120
6, 335280, Note_on_c, 2, 67, 120
6, 335339, Note_on_c, 2, 67, 0
6, 335339, Note_on_c, 2, 64, 0
6, 335340, Note_on_c, 2, 66, 120
6, 335340, Note_on_c, 2, 69, 120
6, 335399, Note_on_c, 2, 69, 0
6, 335399, Note_on_c, 2, 66, 0
6, 335400, Note_on_c, 2, 64, 120
6, 335400, Note_on_c, 2, 67, 120
6, 335459, Note_on_c, 2, 67, 0
6, 335459, Note_on_c, 2, 64, 0
6, 335460, Note_on_c, 2, 62, 120
6, 335460, Note_on_c, 2, 66, 120
6, 335519, Note_on_c, 2, 66, 0
6, 335519, Note_on_c, 2, 62, 0
6, 335520, Note_on_c, 2, 64, 120
6, 335520, Note_on_c, 2, 67, 120
6, 335579, Note_on_c, 2, 67, 0
6, 335579, Note_on_c, 2, 64, 0
6, 335580, Note_on_c, 2, 62, 120
6, 335580, Note_on_c, 2, 66, 120
6, 335639, Note_on_c, 2, 66, 0
6, 335639, Note_on_c, 2, 62, 0
6, 335640, Note_on_c, 2, 64, 120
6, 335640, Note_on_c, 2, 67, 120
6, 335699, Note_on_c, 2, 67, 0
6, 335699, Note_on_c, 2, 64, 0
6, 335700, Note_on_c, 2, 66, 120
6, 335700, Note_on_c, 2, 69, 120
6, 335759, Note_on_c, 2, 69, 0
6, 335759, Note_on_c, 2, 66, 0
6, 335760, Note_on_c, 2, 64, 120
6, 335760, Note_on_c, 2, 67, 120
6, 335819, Note_on_c, 2, 67, 0
6, 335819, Note_on_c, 2, 64, 0
6, 335820, Note_on_c, 2, 66, 120
6, 335820, Note_on_c, 2, 69, 120
6, 335879, Note_on_c, 2, 69, 0
6, 335879, Note_on_c, 2, 66, 0
6, 335880, Note_on_c, 2, 64, 120
6, 335880, Note_on_c, 2, 67, 120
6, 335939, Note_on_c, 2, 67, 0
6, 335939, Note_on_c, 2, 64, 0
6, 335940, Note_on_c, 2, 66, 120
6, 335940, Note_on_c, 2, 62, 120
6, 336059, Note_on_c, 2, 62, 0
6, 336059, Note_on_c, 2, 66, 0
6, 336060, Note_on_c, 2, 66, 120
6, 336060, Note_on_c, 2, 69, 120
6, 336119, Note_on_c, 2, 69, 0
6, 336119, Note_on_c, 2, 66, 0
6, 336120, Note_on_c, 2, 64, 120
6, 336120, Note_on_c, 2, 67, 120
6, 336179, Note_on_c, 2, 67, 0
6, 336179, Note_on_c, 2, 64, 0
6, 336180, Note_on_c, 2, 67, 120
6, 336180, Note_on_c, 2, 71, 120
6, 336299, Note_on_c, 2, 71, 0
6, 336299, Note_on_c, 2, 67, 0
6, 336300, Note_on_c, 2, 69, 120
6, 336300, Note_on_c, 2, 66, 120
6, 336359, Note_on_c, 2, 66, 0
6, 336359, Note_on_c, 2, 69, 0
6, 336360, Note_on_c, 2, 67, 120
6, 336360, Note_on_c, 2, 64, 120
6, 336419, Note_on_c, 2, 64, 0
6, 336419, Note_on_c, 2, 67, 0
6, 336420, Note_on_c, 2, 66, 120
6, 336420, Note_on_c, 2, 69, 120
6, 336539, Note_on_c, 2, 69, 0
6, 336539, Note_on_c, 2, 66, 0
6, 336540, Note_on_c, 2, 64, 120
6, 336540, Note_on_c, 2, 67, 120
6, 336599, Note_on_c, 2, 67, 0
6, 336599, Note_on_c, 2, 64, 0
6, 336600, Note_on_c, 2, 66, 120
6, 336600, Note_on_c, 2, 62, 120
6, 336659, Note_on_c, 2, 62, 0
6, 336659, Note_on_c, 2, 66, 0
6, 336660, Note_on_c, 2, 64, 120
6, 336660, Note_on_c, 2, 57, 120
6, 336899, Note_on_c, 2, 57, 0
6, 336899, Note_on_c, 2, 64, 0
6, 336900, Note_on_c, 2, 57, 120
6, 336900, Note_on_c, 2, 69, 120
6, 336959, Note_on_c, 2, 69, 0
6, 336960, Note_on_c, 2, 71, 120
6, 337019, Note_on_c, 2, 71, 0
6, 337020, Note_on_c, 2, 57, 0
6, 337020, Note_on_c, 2, 64, 120
6, 337020, Note_on_c, 2, 69, 120
6, 337079, Note_on_c, 2, 69, 0
6, 337080, Note_on_c, 2, 71, 120
6, 337139, Note_on_c, 2, 71, 0
6, 337140, Note_on_c, 2, 64, 0
6, 337140, Note_on_c, 2, 69, 120
6, 337140, Note_on_c, 2, 73, 120
6, 337379, Note_on_c, 2, 73, 0
6, 337379, Note_on_c, 2, 69, 0
6, 338820, Note_on_c, 2, 57, 120
6, 338939, Note_on_c, 2, 57, 0
6, 338940, Note_on_c, 2, 57, 120
6, 339059, Note_on_c, 2, 57, 0
6, 339060, Note_on_c, 2, 57, 120
6, 339179, Note_on_c, 2, 57, 0
6, 339180, Note_on_c, 2, 57, 120
6, 339299, Note_on_c, 2, 57, 0
6, 339300, Note_on_c, 2, 57, 120
6, 339419, Note_on_c, 2, 57, 0
6, 339420, Note_on_c, 2, 57, 120
6, 339539, Note_on_c, 2, 57, 0
6, 339540, Note_on_c, 2, 57, 120
6, 339659, Note_on_c, 2, 57, 0
6, 339660, Note_on_c, 2, 57, 120
6, 339779, Note_on_c, 2, 57, 0
6, 339780, Note_on_c, 2, 64, 120
6, 339780, Note_on_c, 2, 69, 120
6, 339839, Note_on_c, 2, 69, 0
6, 339840, Note_on_c, 2, 71, 120
6, 339899, Note_on_c, 2, 71, 0
6, 339900, Note_on_c, 2, 64, 0
6, 339900, Note_on_c, 2, 64, 120
6, 339900, Note_on_c, 2, 69, 120
6, 339959, Note_on_c, 2, 69, 0
6, 339959, Note_on_c, 2, 64, 0
6, 339960, Note_on_c, 2, 68, 120
6, 339960, Note_on_c, 2, 71, 120
6, 340019, Note_on_c, 2, 71, 0
6, 340019, Note_on_c, 2, 68, 0
6, 340020, Note_on_c, 2, 73, 120
6, 340020, Note_on_c, 2, 69, 120
6, 340259, Note_on_c, 2, 69, 0
6, 340259, Note_on_c, 2, 73, 0
6, 340260, Note_on_c, 2, 67, 120
6, 340260, Note_on_c, 2, 64, 120
6, 340319, Note_on_c, 2, 64, 0
6, 340319, Note_on_c, 2, 67, 0
6, 340320, Note_on_c, 2, 62, 120
6, 340320, Note_on_c, 2, 66, 120
6, 340379, Note_on_c, 2, 66, 0
6, 340379, Note_on_c, 2, 62, 0
6, 340380, Note_on_c, 2, 64, 120
6, 340380, Note_on_c, 2, 67, 120
6, 340439, Note_on_c, 2, 67, 0
6, 340439, Note_on_c, 2, 64, 0
6, 340440, Note_on_c, 2, 62, 120
6, 340440, Note_on_c, 2, 66, 120
6, 340499, Note_on_c, 2, 66, 0
6, 340499, Note_on_c, 2, 62, 0
6, 340500, Note_on_c, 2, 57, 120
6, 340500, Note_on_c, 2, 64, 120
6, 340559, Note_on_c, 2, 64, 0
6, 340559, Note_on_c, 2, 57, 0
6, 340560, Note_on_c, 2, 66, 120
6, 340560, Note_on_c, 2, 62, 120
6, 340619, Note_on_c, 2, 62, 0
6, 340619, Note_on_c, 2, 66, 0
6, 340620, Note_on_c, 2, 64, 120
6, 340620, Note_on_c, 2, 57, 120
6, 340679, Note_on_c, 2, 57, 0
6, 340679, Note_on_c, 2, 64, 0
6, 340680, Note_on_c, 2, 66, 120
6, 340680, Note_on_c, 2, 62, 120
6, 340739, Note_on_c, 2, 62, 0
6, 340739, Note_on_c, 2, 66, 0
6, 340740, Note_on_c, 2, 64, 120
6, 340740, Note_on_c, 2, 67, 120
6, 340799, Note_on_c, 2, 67, 0
6, 340799, Note_on_c, 2, 64, 0
6, 340800, Note_on_c, 2, 62, 120
6, 340800, Note_on_c, 2, 66, 120
6, 340859, Note_on_c, 2, 66, 0
6, 340859, Note_on_c, 2, 62, 0
6, 340860, Note_on_c, 2, 64, 120
6, 340860, Note_on_c, 2, 67, 120
6, 340919, Note_on_c, 2, 67, 0
6, 340919, Note_on_c, 2, 64, 0
6, 340920, Note_on_c, 2, 62, 120
6, 340920, Note_on_c, 2, 66, 120
6, 340979, Note_on_c, 2, 66, 0
6, 340979, Note_on_c, 2, 62, 0
6, 340980, Note_on_c, 2, 64, 120
6, 340980, Note_on_c, 2, 57, 120
6, 341039, Note_on_c, 2, 57, 0
6, 341039, Note_on_c, 2, 64, 0
6, 341040, Note_on_c, 2, 62, 120
6, 341040, Note_on_c, 2, 66, 120
6, 341099, Note_on_c, 2, 66, 0
6, 341099, Note_on_c, 2, 62, 0
6, 341100, Note_on_c, 2, 57, 120
6, 341100, Note_on_c, 2, 64, 120
6, 341159, Note_on_c, 2, 64, 0
6, 341159, Note_on_c, 2, 57, 0
6, 341160, Note_on_c, 2, 66, 120
6, 341160, Note_on_c, 2, 62, 120
6, 341219, Note_on_c, 2, 62, 0
6, 341219, Note_on_c, 2, 66, 0
6, 341220, Note_on_c, 2, 54, 120
6, 341220, Note_on_c, 2, 62, 120
6, 341279, Note_on_c, 2, 62, 0
6, 341279, Note_on_c, 2, 54, 0
6, 341280, Note_on_c, 2, 64, 120
6, 341280, Note_on_c, 2, 57, 120
6, 341339, Note_on_c, 2, 57, 0
6, 341339, Note_on_c, 2, 64, 0
6, 341340, Note_on_c, 2, 62, 120
6, 341340, Note_on_c, 2, 66, 120
6, 341399, Note_on_c, 2, 66, 0
6, 341399, Note_on_c, 2, 62, 0
6, 341400, Note_on_c, 2, 64, 120
6, 341400, Note_on_c, 2, 67, 120
6, 341459, Note_on_c, 2, 67, 0
6, 341459, Note_on_c, 2, 64, 0
6, 341460, Note_on_c, 2, 69, 120
6, 341460, Note_on_c, 2, 66, 120
6, 341519, Note_on_c, 2, 66, 0
6, 341520, Note_on_c, 2, 64, 120
6, 341579, Note_on_c, 2, 64, 0
6, 341580, Note_on_c, 2, 69, 0
6, 341580, Note_on_c, 2, 71, 120
6, 341580, Note_on_c, 2, 62, 120
6, 341639, Note_on_c, 2, 62, 0
6, 341639, Note_on_c, 2, 71, 0
6, 341640, Note_on_c, 2, 64, 120
6, 341640, Note_on_c, 2, 69, 120
6, 341699, Note_on_c, 2, 69, 0
6, 341699, Note_on_c, 2, 64, 0
6, 341700, Note_on_c, 2, 57, 120
6, 341700, Note_on_c, 2, 67, 120
6, 341759, Note_on_c, 2, 67, 0
6, 341760, Note_on_c, 2, 66, 120
6, 341819, Note_on_c, 2, 66, 0
6, 341820, Note_on_c, 2, 57, 0
6, 341820, Note_on_c, 2, 57, 120
6, 341820, Note_on_c, 2, 64, 120
6, 341879, Note_on_c, 2, 64, 0
6, 341880, Note_on_c, 2, 66, 120
6, 341939, Note_on_c, 2, 66, 0
6, 341940, Note_on_c, 2, 57, 0
6, 341940, Note_on_c, 2, 54, 120
6, 341940, Note_on_c, 2, 62, 120
6, 342179, Note_on_c, 2, 62, 0
6, 342179, Note_on_c, 2, 54, 0
6, 343140, Note_on_c, 2, 62, 120
6, 343140, Note_on_c, 2, 71, 120
6, 343200, Note_on_c, 2, 71, 0
6, 343200, Note_on_c, 2, 62, 0
6, 343200, Note_on_c, 2, 73, 120
6, 343200, Note_on_c, 2, 64, 120
6, 343260, Note_on_c, 2, 64, 0
6, 343260, Note_on_c, 2, 73, 0
6, 343260, Note_on_c, 2, 62, 120
6, 343260, Note_on_c, 2, 71, 120
6, 343320, Note_on_c, 2, 71, 0
6, 343320, Note_on_c, 2, 62, 0
6, 343320, Note_on_c, 2, 64, 120
6, 343320, Note_on_c, 2, 73, 120
6, 343380, Note_on_c, 2, 73, 0
6, 343380, Note_on_c, 2, 64, 0
6, 343380, Note_on_c, 2, 66, 120
6, 343380, Note_on_c, 2, 74, 120
6, 343619, Note_on_c, 2, 74, 0
6, 343619, Note_on_c, 2, 66, 0
6, 344340, Note_on_c, 2, 64, 120
6, 344459, Note_on_c, 2, 64, 0
6, 344460, Note_on_c, 2, 64, 120
6, 344579, Note_on_c, 2, 64, 0
6, 344580, Note_on_c, 2, 64, 120
6, 344699, Note_on_c, 2, 64, 0
6, 344700, Note_on_c, 2, 64, 120
6, 344819, Note_on_c, 2, 64, 0
6, 344820, Note_on_c, 2, 64, 120
6, 344939, Note_on_c, 2, 64, 0
6, 344940, Note_on_c, 2, 64, 120
6, 345059, Note_on_c, 2, 64, 0
6, 345060, Note_on_c, 2, 64, 120
6, 345179, Note_on_c, 2, 64, 0
6, 345180, Note_on_c, 2, 64, 120
6, 345299, Note_on_c, 2, 64, 0
6, 345300, Note_on_c, 2, 64, 120
6, 345419, Note_on_c, 2, 64, 0
6, 345420, Note_on_c, 2, 64, 120
6, 345539, Note_on_c, 2, 64, 0
6, 345540, Note_on_c, 2, 64, 120
6, 345659, Note_on_c, 2, 64, 0
6, 345660, Note_on_c, 2, 64, 120
6, 345779, Note_on_c, 2, 64, 0
6, 345780, Note_on_c, 2, 64, 120
6, 345899, Note_on_c, 2, 64, 0
6, 345900, Note_on_c, 2, 64, 120
6, 346019, Note_on_c, 2, 64, 0
6, 346020, Note_on_c, 2, 64, 120
6, 346139, Note_on_c, 2, 64, 0
6, 347580, Note_on_c, 2, 57, 120
6, 347580, Note_on_c, 2, 64, 120
6, 347639, Note_on_c, 2, 64, 0
6, 347640, Note_on_c, 2, 66, 120
6, 347699, Note_on_c, 2, 66, 0
6, 347700, Note_on_c, 2, 57, 0
6, 347700, Note_on_c, 2, 64, 120
6, 347700, Note_on_c, 2, 67, 120
6, 347759, Note_on_c, 2, 67, 0
6, 347759, Note_on_c, 2, 64, 0
6, 347760, Note_on_c, 2, 66, 120
6, 347760, Note_on_c, 2, 69, 120
6, 347819, Note_on_c, 2, 69, 0
6, 347819, Note_on_c, 2, 66, 0
6, 347820, Note_on_c, 2, 64, 120
6, 347820, Note_on_c, 2, 67, 120
6, 347879, Note_on_c, 2, 67, 0
6, 347879, Note_on_c, 2, 64, 0
6, 347880, Note_on_c, 2, 66, 120
6, 347880, Note_on_c, 2, 69, 120
6, 347939, Note_on_c, 2, 69, 0
6, 347939, Note_on_c, 2, 66, 0
6, 347940, Note_on_c, 2, 62, 120
6, 347940, Note_on_c, 2, 66, 120
6, 347999, Note_on_c, 2, 66, 0
6, 347999, Note_on_c, 2, 62, 0
6, 348000, Note_on_c, 2, 64, 120
6, 348000, Note_on_c, 2, 67, 120
6, 348059, Note_on_c, 2, 67, 0
6, 348059, Note_on_c, 2, 64, 0
6, 348060, Note_on_c, 2, 62, 120
6, 348060, Note_on_c, 2, 66, 120
6, 348119, Note_on_c, 2, 66, 0
6, 348119, Note_on_c, 2, 62, 0
6, 348120, Note_on_c, 2, 64, 120
6, 348120, Note_on_c, 2, 67, 120
6, 348179, Note_on_c, 2, 67, 0
6, 348179, Note_on_c, 2, 64, 0
6, 348180, Note_on_c, 2, 66, 120
6, 348180, Note_on_c, 2, 69, 120
6, 348419, Note_on_c, 2, 69, 0
6, 348419, Note_on_c, 2, 66, 0
6, 349380, Note_on_c, 2, 62, 120
6, 349380, Note_on_c, 2, 66, 120
6, 349439, Note_on_c, 2, 66, 0
6, 349439, Note_on_c, 2, 62, 0
6, 349440, Note_on_c, 2, 64, 120
6, 349440, Note_on_c, 2, 67, 120
6, 349499, Note_on_c, 2, 67, 0
6, 349499, Note_on_c, 2, 64, 0
6, 349500, Note_on_c, 2, 62, 120
6, 349500, Note_on_c, 2, 66, 120
6, 349559, Note_on_c, 2, 66, 0
6, 349559, Note_on_c, 2, 62, 0
6, 349560, Note_on_c, 2, 64, 120
6, 349560, Note_on_c, 2, 67, 120
6, 349619, Note_on_c, 2, 67, 0
6, 349619, Note_on_c, 2, 64, 0
6, 349620, Note_on_c, 2, 66, 120
6, 349620, Note_on_c, 2, 69, 120
6, 349859, Note_on_c, 2, 69, 0
6, 349859, Note_on_c, 2, 66, 0
6, 349860, Note_on_c, 2, 50, 120
6, 349979, Note_on_c, 2, 50, 0
6, 349980, Note_on_c, 2, 50, 120
6, 350099, Note_on_c, 2, 50, 0
6, 350100, Note_on_c, 2, 50, 120
6, 350219, Note_on_c, 2, 50, 0
6, 350220, Note_on_c, 2, 50, 120
6, 350339, Note_on_c, 2, 50, 0
6, 350340, Note_on_c, 2, 50, 120
6, 350459, Note_on_c, 2, 50, 0
6, 350460, Note_on_c, 2, 50, 120
6, 350579, Note_on_c, 2, 50, 0
6, 350580, Note_on_c, 2, 50, 120
6, 350699, Note_on_c, 2, 50, 0
6, 350700, Note_on_c, 2, 50, 120
6, 350819, Note_on_c, 2, 50, 0
6, 350820, Note_on_c, 2, 62, 120
6, 350820, Note_on_c, 2, 66, 120
6, 350879, Note_on_c, 2, 66, 0
6, 350879, Note_on_c, 2, 62, 0
6, 350880, Note_on_c, 2, 64, 120
6, 350880, Note_on_c, 2, 67, 120
6, 350939, Note_on_c, 2, 67, 0
6, 350939, Note_on_c, 2, 64, 0
6, 350940, Note_on_c, 2, 62, 120
6, 350940, Note_on_c, 2, 66, 120
6, 350999, Note_on_c, 2, 66, 0
6, 350999, Note_on_c, 2, 62, 0
6, 351000, Note_on_c, 2, 64, 120
6, 351000, Note_on_c, 2, 67, 120
6, 351059, Note_on_c, 2, 67, 0
6, 351059, Note_on_c, 2, 64, 0
6, 351060, Note_on_c, 2, 66, 120
6, 351060, Note_on_c, 2, 69, 120
6, 351299, Note_on_c, 2, 69, 0
6, 351299, Note_on_c, 2, 66, 0
6, 351300, Note_on_c, 2, 62, 120
6, 351300, Note_on_c, 2, 66, 120
6, 351359, Note_on_c, 2, 66, 0
6, 351359, Note_on_c, 2, 62, 0
6, 351360, Note_on_c, 2, 64, 120
6, 351360, Note_on_c, 2, 67, 120
6, 351419, Note_on_c, 2, 67, 0
6, 351419, Note_on_c, 2, 64, 0
6, 351420, Note_on_c, 2, 62, 120
6, 351420, Note_on_c, 2, 66, 120
6, 351479, Note_on_c, 2, 66, 0
6, 351479, Note_on_c, 2, 62, 0
6, 351480, Note_on_c, 2, 67, 120
6, 351480, Note_on_c, 2, 64, 120
6, 351539, Note_on_c, 2, 64, 0
6, 351539, Note_on_c, 2, 67, 0
6, 351540, Note_on_c, 2, 69, 120
6, 351540, Note_on_c, 2, 66, 120
6, 351599, Note_on_c, 2, 66, 0
6, 351599, Note_on_c, 2, 69, 0
6, 351600, Note_on_c, 2, 64, 120
6, 351600, Note_on_c, 2, 67, 120
6, 351659, Note_on_c, 2, 67, 0
6, 351659, Note_on_c, 2, 64, 0
6, 351660, Note_on_c, 2, 66, 120
6, 351660, Note_on_c, 2, 69, 120
6, 351719, Note_on_c, 2, 69, 0
6, 351719, Note_on_c, 2, 66, 0
6, 351720, Note_on_c, 2, 67, 120
6, 351720, Note_on_c, 2, 64, 120
6, 351779, Note_on_c, 2, 64, 0
6, 351779, Note_on_c, 2, 67, 0
6, 351780, Note_on_c, 2, 66, 120
6, 351780, Note_on_c, 2, 62, 120
6, 351839, Note_on_c, 2, 62, 0
6, 351839, Note_on_c, 2, 66, 0
6, 351840, Note_on_c, 2, 67, 120
6, 351840, Note_on_c, 2, 64, 120
6, 351899, Note_on_c, 2, 64, 0
6, 351899, Note_on_c, 2, 67, 0
6, 351900, Note_on_c, 2, 62, 120
6, 351900, Note_on_c, 2, 66, 120
6, 351959, Note_on_c, 2, 66, 0
6, 351959, Note_on_c, 2, 62, 0
6, 351960, Note_on_c, 2, 64, 120
6, 351960, Note_on_c, 2, 67, 120
6, 352019, Note_on_c, 2, 67, 0
6, 352019, Note_on_c, 2, 64, 0
6, 352020, Note_on_c, 2, 66, 120
6, 352020, Note_on_c, 2, 69, 120
6, 352079, Note_on_c, 2, 69, 0
6, 352079, Note_on_c, 2, 66, 0
6, 352080, Note_on_c, 2, 64, 120
6, 352080, Note_on_c, 2, 67, 120
6, 352139, Note_on_c, 2, 67, 0
6, 352139, Note_on_c, 2, 64, 0
6, 352140, Note_on_c, 2, 66, 120
6, 352140, Note_on_c, 2, 69, 120
6, 352199, Note_on_c, 2, 69, 0
6, 352199, Note_on_c, 2, 66, 0
6, 352200, Note_on_c, 2, 64, 120
6, 352200, Note_on_c, 2, 67, 120
6, 352259, Note_on_c, 2, 67, 0
6, 352259, Note_on_c, 2, 64, 0
6, 352260, Note_on_c, 2, 66, 120
6, 352260, Note_on_c, 2, 62, 120
6, 352379, Note_on_c, 2, 62, 0
6, 352379, Note_on_c, 2, 66, 0
6, 352380, Note_on_c, 2, 66, 120
6, 352380, Note_on_c, 2, 69, 120
6, 352439, Note_on_c, 2, 69, 0
6, 352439, Note_on_c, 2, 66, 0
6, 352440, Note_on_c, 2, 64, 120
6, 352440, Note_on_c, 2, 67, 120
6, 352499, Note_on_c, 2, 67, 0
6, 352499, Note_on_c, 2, 64, 0
6, 352500, Note_on_c, 2, 67, 120
6, 352500, Note_on_c, 2, 71, 120
6, 352619, Note_on_c, 2, 71, 0
6, 352619, Note_on_c, 2, 67, 0
6, 352620, Note_on_c, 2, 66, 120
6, 352620, Note_on_c, 2, 69, 120
6, 352679, Note_on_c, 2, 69, 0
6, 352679, Note_on_c, 2, 66, 0
6, 352680, Note_on_c, 2, 64, 120
6, 352680, Note_on_c, 2, 67, 120
6, 352739, Note_on_c, 2, 67, 0
6, 352739, Note_on_c, 2, 64, 0
6, 352740, Note_on_c, 2, 66, 120
6, 352740, Note_on_c, 2, 69, 120
6, 352859, Note_on_c, 2, 69, 0
6, 352859, Note_on_c, 2, 66, 0
6, 352860, Note_on_c, 2, 67, 120
6, 352860, Note_on_c, 2, 64, 120
6, 352919, Note_on_c, 2, 64, 0
6, 352919, Note_on_c, 2, 67, 0
6, 352920, Note_on_c, 2, 62, 120
6, 352920, Note_on_c, 2, 66, 120
6, 352979, Note_on_c, 2, 66, 0
6, 352979, Note_on_c, 2, 62, 0
6, 352980, Note_on_c, 2, 64, 120
6, 352980, Note_on_c, 2, 57, 120
6, 353219, Note_on_c, 2, 57, 0
6, 353219, Note_on_c, 2, 64, 0
6, 353220, Note_on_c, 2, 57, 120
6, 353220, Note_on_c, 2, 69, 120
6, 353280, Note_on_c, 2, 69, 0
6, 353280, Note_on_c, 2, 71, 120
6, 353340, Note_on_c, 2, 71, 0
6, 353340, Note_on_c, 2, 57, 0
6, 353340, Note_on_c, 2, 64, 120
6, 353340, Note_on_c, 2, 69, 120
6, 353400, Note_on_c, 2, 69, 0
6, 353400, Note_on_c, 2, 71, 120
6, 353460, Note_on_c, 2, 71, 0
6, 353460, Note_on_c, 2, 64, 0
6, 353460, Note_on_c, 2, 73, 120
6, 353460, Note_on_c, 2, 69, 120
6, 353700, Note_on_c, 2, 69, 0
6, 353700, Note_on_c, 2, 73, 0
6, 354660, Note_on_c, 2, 57, 120
6, 354660, Note_on_c, 2, 69, 120
6, 354719, Note_on_c, 2, 69, 0
6, 354720, Note_on_c, 2, 71, 120
6, 354779, Note_on_c, 2, 71, 0
6, 354780, Note_on_c, 2, 57, 0
6, 354780, Note_on_c, 2, 64, 120
6, 354780, Note_on_c, 2, 69, 120
6, 354839, Note_on_c, 2, 69, 0
6, 354840, Note_on_c, 2, 71, 120
6, 354899, Note_on_c, 2, 71, 0
6, 354900, Note_on_c, 2, 64, 0
6, 354900, Note_on_c, 2, 73, 120
6, 354900, Note_on_c, 2, 69, 120
6, 355139, Note_on_c, 2, 69, 0
6, 355139, Note_on_c, 2, 73, 0
6, 355140, Note_on_c, 2, 64, 120
6, 355140, Note_on_c, 2, 73, 120
6, 355259, Note_on_c, 2, 73, 0
6, 355259, Note_on_c, 2, 64, 0
6, 355260, Note_on_c, 2, 64, 120
6, 355260, Note_on_c, 2, 73, 120
6, 355319, Note_on_c, 2, 73, 0
6, 355319, Note_on_c, 2, 64, 0
6, 355320, Note_on_c, 2, 62, 120
6, 355320, Note_on_c, 2, 71, 120
6, 355379, Note_on_c, 2, 71, 0
6, 355379, Note_on_c, 2, 62, 0
6, 355380, Note_on_c, 2, 66, 120
6, 355380, Note_on_c, 2, 74, 120
6, 355499, Note_on_c, 2, 74, 0
6, 355499, Note_on_c, 2, 66, 0
6, 355500, Note_on_c, 2, 64, 120
6, 355500, Note_on_c, 2, 73, 120
6, 355559, Note_on_c, 2, 73, 0
6, 355559, Note_on_c, 2, 64, 0
6, 355560, Note_on_c, 2, 62, 120
6, 355560, Note_on_c, 2, 71, 120
6, 355619, Note_on_c, 2, 71, 0
6, 355619, Note_on_c, 2, 62, 0
6, 355620, Note_on_c, 2, 64, 120
6, 355620, Note_on_c, 2, 73, 120
6, 355739, Note_on_c, 2, 73, 0
6, 355739, Note_on_c, 2, 64, 0
6, 355740, Note_on_c, 2, 73, 120
6, 355740, Note_on_c, 2, 64, 120
6, 355799, Note_on_c, 2, 64, 0
6, 355799, Note_on_c, 2, 73, 0
6, 355800, Note_on_c, 2, 62, 120
6, 355800, Note_on_c, 2, 71, 120
6, 355859, Note_on_c, 2, 71, 0
6, 355859, Note_on_c, 2, 62, 0
6, 355860, Note_on_c, 2, 66, 120
6, 355860, Note_on_c, 2, 74, 120
6, 355979, Note_on_c, 2, 74, 0
6, 355979, Note_on_c, 2, 66, 0
6, 355980, Note_on_c, 2, 73, 120
6, 355980, Note_on_c, 2, 64, 120
6, 356039, Note_on_c, 2, 64, 0
6, 356039, Note_on_c, 2, 73, 0
6, 356040, Note_on_c, 2, 62, 120
6, 356040, Note_on_c, 2, 71, 120
6, 356099, Note_on_c, 2, 71, 0
6, 356099, Note_on_c, 2, 62, 0
6, 356100, Note_on_c, 2, 64, 120
6, 356100, Note_on_c, 2, 69, 120
6, 356159, Note_on_c, 2, 69, 0
6, 356160, Note_on_c, 2, 71, 120
6, 356219, Note_on_c, 2, 71, 0
6, 356220, Note_on_c, 2, 64, 0
6, 356220, Note_on_c, 2, 66, 120
6, 356220, Note_on_c, 2, 69, 120
6, 356279, Note_on_c, 2, 69, 0
6, 356279, Note_on_c, 2, 66, 0
6, 356280, Note_on_c, 2, 68, 120
6, 356280, Note_on_c, 2, 71, 120
6, 356339, Note_on_c, 2, 71, 0
6, 356339, Note_on_c, 2, 68, 0
6, 356340, Note_on_c, 2, 73, 120
6, 356340, Note_on_c, 2, 69, 120
6, 356580, Note_on_c, 2, 69, 0
6, 356580, Note_on_c, 2, 73, 0
6, 356580, Note_on_c, 2, 57, 120
6, 356580, Note_on_c, 2, 64, 120
6, 356699, Note_on_c, 2, 64, 0
6, 356699, Note_on_c, 2, 57, 0
6, 356700, Note_on_c, 2, 64, 120
6, 356700, Note_on_c, 2, 69, 120
6, 356819, Note_on_c, 2, 69, 0
6, 356819, Note_on_c, 2, 64, 0
6, 356820, Note_on_c, 2, 64, 120
6, 356820, Note_on_c, 2, 69, 120
6, 356939, Note_on_c, 2, 69, 0
6, 356939, Note_on_c, 2, 64, 0
6, 356940, Note_on_c, 2, 73, 120
6, 356940, Note_on_c, 2, 69, 120
6, 357059, Note_on_c, 2, 69, 0
6, 357059, Note_on_c, 2, 73, 0
6, 357060, Note_on_c, 2, 69, 120
6, 357060, Note_on_c, 2, 73, 120
6, 357179, Note_on_c, 2, 73, 0
6, 357179, Note_on_c, 2, 69, 0
6, 357180, Note_on_c, 2, 64, 120
6, 357180, Note_on_c, 2, 69, 120
6, 357299, Note_on_c, 2, 69, 0
6, 357299, Note_on_c, 2, 64, 0
6, 357300, Note_on_c, 2, 64, 120
6, 357300, Note_on_c, 2, 69, 120
6, 357419, Note_on_c, 2, 69, 0
6, 357419, Note_on_c, 2, 64, 0
6, 357420, Note_on_c, 2, 64, 120
6, 357420, Note_on_c, 2, 57, 120
6, 357539, Note_on_c, 2, 57, 0
6, 357539, Note_on_c, 2, 64, 0
6, 357540, Note_on_c, 2, 54, 120
6, 357540, Note_on_c, 2, 62, 120
6, 357599, Note_on_c, 2, 62, 0
6, 357599, Note_on_c, 2, 54, 0
6, 357600, Note_on_c, 2, 64, 120
6, 357600, Note_on_c, 2, 57, 120
6, 357659, Note_on_c, 2, 57, 0
6, 357659, Note_on_c, 2, 64, 0
6, 357660, Note_on_c, 2, 66, 120
6, 357660, Note_on_c, 2, 62, 120
6, 357719, Note_on_c, 2, 62, 0
6, 357719, Note_on_c, 2, 66, 0
6, 357720, Note_on_c, 2, 64, 120
6, 357720, Note_on_c, 2, 67, 120
6, 357779, Note_on_c, 2, 67, 0
6, 357779, Note_on_c, 2, 64, 0
6, 357780, Note_on_c, 2, 66, 120
6, 357780, Note_on_c, 2, 69, 120
6, 357839, Note_on_c, 2, 66, 0
6, 357840, Note_on_c, 2, 64, 120
6, 357899, Note_on_c, 2, 64, 0
6, 357900, Note_on_c, 2, 69, 0
6, 357900, Note_on_c, 2, 62, 120
6, 357900, Note_on_c, 2, 71, 120
6, 357959, Note_on_c, 2, 71, 0
6, 357959, Note_on_c, 2, 62, 0
6, 357960, Note_on_c, 2, 64, 120
6, 357960, Note_on_c, 2, 69, 120
6, 358019, Note_on_c, 2, 69, 0
6, 358019, Note_on_c, 2, 64, 0
6, 358020, Note_on_c, 2, 67, 120
6, 358020, Note_on_c, 2, 64, 120
6, 358079, Note_on_c, 2, 64, 0
6, 358079, Note_on_c, 2, 67, 0
6, 358080, Note_on_c, 2, 62, 120
6, 358080, Note_on_c, 2, 66, 120
6, 358139, Note_on_c, 2, 66, 0
6, 358139, Note_on_c, 2, 62, 0
6, 358140, Note_on_c, 2, 64, 120
6, 358140, Note_on_c, 2, 57, 120
6, 358199, Note_on_c, 2, 57, 0
6, 358199, Note_on_c, 2, 64, 0
6, 358200, Note_on_c, 2, 66, 120
6, 358259, Note_on_c, 2, 66, 0
6, 358260, Note_on_c, 2, 62, 120
6, 358260, Note_on_c, 2, 54, 120
6, 358499, Note_on_c, 2, 54, 0
6, 358499, Note_on_c, 2, 62, 0
6, 359460, Note_on_c, 2, 73, 120
6, 359460, Note_on_c, 2, 69, 120
6, 359699, Note_on_c, 2, 69, 0
6, 359699, Note_on_c, 2, 73, 0
6, 359700, Note_on_c, 2, 64, 120
6, 359700, Note_on_c, 2, 69, 120
6, 359939, Note_on_c, 2, 69, 0
6, 359939, Note_on_c, 2, 64, 0
6, 364260, Note_on_c, 2, 62, 120
6, 364260, Note_on_c, 2, 66, 120
6, 364319, Note_on_c, 2, 66, 0
6, 364319, Note_on_c, 2, 62, 0
6, 364320, Note_on_c, 2, 64, 120
6, 364320, Note_on_c, 2, 67, 120
6, 364379, Note_on_c, 2, 67, 0
6, 364379, Note_on_c, 2, 64, 0
6, 364380, Note_on_c, 2, 62, 120
6, 364380, Note_on_c, 2, 66, 120
6, 364439, Note_on_c, 2, 66, 0
6, 364439, Note_on_c, 2, 62, 0
6, 364440, Note_on_c, 2, 64, 120
6, 364440, Note_on_c, 2, 67, 120
6, 364499, Note_on_c, 2, 67, 0
6, 364499, Note_on_c, 2, 64, 0
6, 364500, Note_on_c, 2, 66, 120
6, 364500, Note_on_c, 2, 69, 120
6, 364739, Note_on_c, 2, 69, 0
6, 364739, Note_on_c, 2, 66, 0
6, 364740, Note_on_c, 2, 57, 120
6, 364859, Note_on_c, 2, 57, 0
6, 364860, Note_on_c, 2, 57, 120
6, 364979, Note_on_c, 2, 57, 0
6, 364980, Note_on_c, 2, 57, 120
6, 365099, Note_on_c, 2, 57, 0
6, 365100, Note_on_c, 2, 57, 120
6, 365219, Note_on_c, 2, 57, 0
6, 365220, Note_on_c, 2, 57, 120
6, 365339, Note_on_c, 2, 57, 0
6, 365340, Note_on_c, 2, 57, 120
6, 365459, Note_on_c, 2, 57, 0
6, 365460, Note_on_c, 2, 57, 120
6, 365579, Note_on_c, 2, 57, 0
6, 365580, Note_on_c, 2, 57, 120
6, 365699, Note_on_c, 2, 57, 0
6, 365700, Note_on_c, 2, 62, 120
6, 365700, Note_on_c, 2, 66, 120
6, 365759, Note_on_c, 2, 66, 0
6, 365759, Note_on_c, 2, 62, 0
6, 365760, Note_on_c, 2, 64, 120
6, 365760, Note_on_c, 2, 67, 120
6, 365819, Note_on_c, 2, 67, 0
6, 365819, Note_on_c, 2, 64, 0
6, 365820, Note_on_c, 2, 62, 120
6, 365820, Note_on_c, 2, 66, 120
6, 365879, Note_on_c, 2, 66, 0
6, 365879, Note_on_c, 2, 62, 0
6, 365880, Note_on_c, 2, 64, 120
6, 365880, Note_on_c, 2, 67, 120
6, 365939, Note_on_c, 2, 67, 0
6, 365939, Note_on_c, 2, 64, 0
6, 365940, Note_on_c, 2, 66, 120
6, 365940, Note_on_c, 2, 69, 120
6, 366179, Note_on_c, 2, 69, 0
6, 366179, Note_on_c, 2, 66, 0
6, 366180, Note_on_c, 2, 50, 120
6, 366299, Note_on_c, 2, 50, 0
6, 366300, Note_on_c, 2, 50, 120
6, 366419, Note_on_c, 2, 50, 0
6, 366420, Note_on_c, 2, 50, 120
6, 366539, Note_on_c, 2, 50, 0
6, 366540, Note_on_c, 2, 50, 120
6, 366659, Note_on_c, 2, 50, 0
6, 366660, Note_on_c, 2, 50, 120
6, 366779, Note_on_c, 2, 50, 0
6, 366780, Note_on_c, 2, 50, 120
6, 366899, Note_on_c, 2, 50, 0
6, 366900, Note_on_c, 2, 50, 120
6, 367019, Note_on_c, 2, 50, 0
6, 367020, Note_on_c, 2, 50, 120
6, 367139, Note_on_c, 2, 50, 0
6, 367140, Note_on_c, 2, 62, 120
6, 367140, Note_on_c, 2, 66, 120
6, 367199, Note_on_c, 2, 66, 0
6, 367199, Note_on_c, 2, 62, 0
6, 367200, Note_on_c, 2, 64, 120
6, 367200, Note_on_c, 2, 67, 120
6, 367259, Note_on_c, 2, 67, 0
6, 367259, Note_on_c, 2, 64, 0
6, 367260, Note_on_c, 2, 62, 120
6, 367260, Note_on_c, 2, 66, 120
6, 367319, Note_on_c, 2, 66, 0
6, 367319, Note_on_c, 2, 62, 0
6, 367320, Note_on_c, 2, 64, 120
6, 367320, Note_on_c, 2, 67, 120
6, 367379, Note_on_c, 2, 67, 0
6, 367379, Note_on_c, 2, 64, 0
6, 367380, Note_on_c, 2, 66, 120
6, 367380, Note_on_c, 2, 69, 120
6, 367619, Note_on_c, 2, 69, 0
6, 367619, Note_on_c, 2, 66, 0
6, 367620, Note_on_c, 2, 66, 120
6, 367620, Note_on_c, 2, 62, 120
6, 367679, Note_on_c, 2, 62, 0
6, 367679, Note_on_c, 2, 66, 0
6, 367680, Note_on_c, 2, 67, 120
6, 367680, Note_on_c, 2, 64, 120
6, 367739, Note_on_c, 2, 64, 0
6, 367739, Note_on_c, 2, 67, 0
6, 367740, Note_on_c, 2, 66, 120
6, 367740, Note_on_c, 2, 62, 120
6, 367799, Note_on_c, 2, 62, 0
6, 367799, Note_on_c, 2, 66, 0
6, 367800, Note_on_c, 2, 64, 120
6, 367800, Note_on_c, 2, 67, 120
6, 367859, Note_on_c, 2, 67, 0
6, 367859, Note_on_c, 2, 64, 0
6, 367860, Note_on_c, 2, 66, 120
6, 367860, Note_on_c, 2, 69, 120
6, 367919, Note_on_c, 2, 69, 0
6, 367919, Note_on_c, 2, 66, 0
6, 367920, Note_on_c, 2, 64, 120
6, 367920, Note_on_c, 2, 67, 120
6, 367979, Note_on_c, 2, 67, 0
6, 367979, Note_on_c, 2, 64, 0
6, 367980, Note_on_c, 2, 66, 120
6, 367980, Note_on_c, 2, 69, 120
6, 368039, Note_on_c, 2, 69, 0
6, 368039, Note_on_c, 2, 66, 0
6, 368040, Note_on_c, 2, 64, 120
6, 368040, Note_on_c, 2, 67, 120
6, 368099, Note_on_c, 2, 67, 0
6, 368099, Note_on_c, 2, 64, 0
6, 368100, Note_on_c, 2, 62, 120
6, 368100, Note_on_c, 2, 66, 120
6, 368159, Note_on_c, 2, 66, 0
6, 368159, Note_on_c, 2, 62, 0
6, 368160, Note_on_c, 2, 64, 120
6, 368160, Note_on_c, 2, 67, 120
6, 368219, Note_on_c, 2, 67, 0
6, 368219, Note_on_c, 2, 64, 0
6, 368220, Note_on_c, 2, 62, 120
6, 368220, Note_on_c, 2, 66, 120
6, 368279, Note_on_c, 2, 66, 0
6, 368279, Note_on_c, 2, 62, 0
6, 368280, Note_on_c, 2, 64, 120
6, 368280, Note_on_c, 2, 67, 120
6, 368339, Note_on_c, 2, 67, 0
6, 368339, Note_on_c, 2, 64, 0
6, 368340, Note_on_c, 2, 66, 120
6, 368340, Note_on_c, 2, 69, 120
6, 368399, Note_on_c, 2, 69, 0
6, 368399, Note_on_c, 2, 66, 0
6, 368400, Note_on_c, 2, 64, 120
6, 368400, Note_on_c, 2, 67, 120
6, 368459, Note_on_c, 2, 67, 0
6, 368459, Note_on_c, 2, 64, 0
6, 368460, Note_on_c, 2, 66, 120
6, 368460, Note_on_c, 2, 69, 120
6, 368519, Note_on_c, 2, 69, 0
6, 368519, Note_on_c, 2, 66, 0
6, 368520, Note_on_c, 2, 64, 120
6, 368520, Note_on_c, 2, 67, 120
6, 368579, Note_on_c, 2, 67, 0
6, 368579, Note_on_c, 2, 64, 0
6, 368580, Note_on_c, 2, 62, 120
6, 368580, Note_on_c, 2, 66, 120
6, 368699, Note_on_c, 2, 66, 0
6, 368699, Note_on_c, 2, 62, 0
6, 368700, Note_on_c, 2, 69, 120
6, 368700, Note_on_c, 2, 66, 120
6, 368759, Note_on_c, 2, 66, 0
6, 368759, Note_on_c, 2, 69, 0
6, 368760, Note_on_c, 2, 67, 120
6, 368760, Note_on_c, 2, 64, 120
6, 368819, Note_on_c, 2, 64, 0
6, 368819, Note_on_c, 2, 67, 0
6, 368820, Note_on_c, 2, 71, 120
6, 368820, Note_on_c, 2, 67, 120
6, 368939, Note_on_c, 2, 67, 0
6, 368939, Note_on_c, 2, 71, 0
6, 368940, Note_on_c, 2, 69, 120
6, 368940, Note_on_c, 2, 66, 120
6, 368999, Note_on_c, 2, 66, 0
6, 368999, Note_on_c, 2, 69, 0
6, 369000, Note_on_c, 2, 67, 120
6, 369000, Note_on_c, 2, 64, 120
6, 369059, Note_on_c, 2, 64, 0
6, 369059, Note_on_c, 2, 67, 0
6, 369060, Note_on_c, 2, 69, 120
6, 369060, Note_on_c, 2, 66, 120
6, 369179, Note_on_c, 2, 66, 0
6, 369179, Note_on_c, 2, 69, 0
6, 369180, Note_on_c, 2, 64, 120
6, 369180, Note_on_c, 2, 67, 120
6, 369239, Note_on_c, 2, 67, 0
6, 369239, Note_on_c, 2, 64, 0
6, 369240, Note_on_c, 2, 62, 120
6, 369240, Note_on_c, 2, 66, 120
6, 369299, Note_on_c, 2, 66, 0
6, 369299, Note_on_c, 2, 62, 0
6, 369300, Note_on_c, 2, 57, 120
6, 369300, Note_on_c, 2, 64, 120
6, 369539, Note_on_c, 2, 64, 0
6, 369539, Note_on_c, 2, 57, 0
6, 369540, Note_on_c, 2, 69, 120
6, 369540, Note_on_c, 2, 73, 120
6, 369599, Note_on_c, 2, 73, 0
6, 369599, Note_on_c, 2, 69, 0
6, 369600, Note_on_c, 2, 68, 120
6, 369600, Note_on_c, 2, 71, 120
6, 369659, Note_on_c, 2, 71, 0
6, 369659, Note_on_c, 2, 68, 0
6, 369660, Note_on_c, 2, 73, 120
6, 369660, Note_on_c, 2, 69, 120
6, 369719, Note_on_c, 2, 69, 0
6, 369719, Note_on_c, 2, 73, 0
6, 369720, Note_on_c, 2, 68, 120
6, 369720, Note_on_c, 2, 71, 120
6, 369779, Note_on_c, 2, 71, 0
6, 369779, Note_on_c, 2, 68, 0
6, 369780, Note_on_c, 2, 73, 120
6, 369780, Note_on_c, 2, 69, 120
6, 370019, Note_on_c, 2, 69, 0
6, 370019, Note_on_c, 2, 73, 0
6, 370020, Note_on_c, 2, 64, 120
6, 370139, Note_on_c, 2, 64, 0
6, 370140, Note_on_c, 2, 64, 120
6, 370259, Note_on_c, 2, 64, 0
6, 370260, Note_on_c, 2, 64, 120
6, 370379, Note_on_c, 2, 64, 0
6, 370380, Note_on_c, 2, 64, 120
6, 370499, Note_on_c, 2, 64, 0
6, 370500, Note_on_c, 2, 64, 120
6, 370619, Note_on_c, 2, 64, 0
6, 370620, Note_on_c, 2, 64, 120
6, 370739, Note_on_c, 2, 64, 0
6, 370740, Note_on_c, 2, 64, 120
6, 370859, Note_on_c, 2, 64, 0
6, 370860, Note_on_c, 2, 64, 120
6, 370979, Note_on_c, 2, 64, 0
6, 370980, Note_on_c, 2, 73, 120
6, 370980, Note_on_c, 2, 69, 120
6, 371039, Note_on_c, 2, 69, 0
6, 371039, Note_on_c, 2, 73, 0
6, 371040, Note_on_c, 2, 68, 120
6, 371040, Note_on_c, 2, 71, 120
6, 371099, Note_on_c, 2, 71, 0
6, 371099, Note_on_c, 2, 68, 0
6, 371100, Note_on_c, 2, 73, 120
6, 371100, Note_on_c, 2, 69, 120
6, 371159, Note_on_c, 2, 69, 0
6, 371159, Note_on_c, 2, 73, 0
6, 371160, Note_on_c, 2, 68, 120
6, 371160, Note_on_c, 2, 71, 120
6, 371219, Note_on_c, 2, 71, 0
6, 371219, Note_on_c, 2, 68, 0
6, 371220, Note_on_c, 2, 73, 120
6, 371220, Note_on_c, 2, 69, 120
6, 371459, Note_on_c, 2, 69, 0
6, 371459, Note_on_c, 2, 73, 0
6, 371460, Note_on_c, 2, 57, 120
6, 371579, Note_on_c, 2, 57, 0
6, 371580, Note_on_c, 2, 57, 120
6, 371699, Note_on_c, 2, 57, 0
6, 371700, Note_on_c, 2, 57, 120
6, 371819, Note_on_c, 2, 57, 0
6, 371820, Note_on_c, 2, 57, 120
6, 371939, Note_on_c, 2, 57, 0
6, 371940, Note_on_c, 2, 57, 120
6, 372059, Note_on_c, 2, 57, 0
6, 372060, Note_on_c, 2, 57, 120
6, 372179, Note_on_c, 2, 57, 0
6, 372180, Note_on_c, 2, 57, 120
6, 372299, Note_on_c, 2, 57, 0
6, 372300, Note_on_c, 2, 57, 120
6, 372419, Note_on_c, 2, 57, 0
6, 372420, Note_on_c, 2, 73, 120
6, 372420, Note_on_c, 2, 69, 120
6, 372479, Note_on_c, 2, 69, 0
6, 372479, Note_on_c, 2, 73, 0
6, 372480, Note_on_c, 2, 68, 120
6, 372480, Note_on_c, 2, 71, 120
6, 372539, Note_on_c, 2, 71, 0
6, 372539, Note_on_c, 2, 68, 0
6, 372540, Note_on_c, 2, 69, 120
6, 372540, Note_on_c, 2, 73, 120
6, 372599, Note_on_c, 2, 73, 0
6, 372599, Note_on_c, 2, 69, 0
6, 372600, Note_on_c, 2, 68, 120
6, 372600, Note_on_c, 2, 71, 120
6, 372659, Note_on_c, 2, 71, 0
6, 372659, Note_on_c, 2, 68, 0
6, 372660, Note_on_c, 2, 73, 120
6, 372660, Note_on_c, 2, 69, 120
6, 372899, Note_on_c, 2, 69, 0
6, 372899, Note_on_c, 2, 73, 0
6, 372900, Note_on_c, 2, 67, 120
6, 372900, Note_on_c, 2, 64, 120
6, 372959, Note_on_c, 2, 64, 0
6, 372959, Note_on_c, 2, 67, 0
6, 372960, Note_on_c, 2, 62, 120
6, 372960, Note_on_c, 2, 66, 120
6, 373019, Note_on_c, 2, 66, 0
6, 373019, Note_on_c, 2, 62, 0
6, 373020, Note_on_c, 2, 64, 120
6, 373020, Note_on_c, 2, 67, 120
6, 373079, Note_on_c, 2, 67, 0
6, 373079, Note_on_c, 2, 64, 0
6, 373080, Note_on_c, 2, 66, 120
6, 373080, Note_on_c, 2, 62, 120
6, 373139, Note_on_c, 2, 62, 0
6, 373139, Note_on_c, 2, 66, 0
6, 373140, Note_on_c, 2, 57, 120
6, 373140, Note_on_c, 2, 64, 120
6, 373199, Note_on_c, 2, 64, 0
6, 373199, Note_on_c, 2, 57, 0
6, 373200, Note_on_c, 2, 62, 120
6, 373200, Note_on_c, 2, 66, 120
6, 373259, Note_on_c, 2, 66, 0
6, 373259, Note_on_c, 2, 62, 0
6, 373260, Note_on_c, 2, 64, 120
6, 373260, Note_on_c, 2, 57, 120
6, 373319, Note_on_c, 2, 57, 0
6, 373319, Note_on_c, 2, 64, 0
6, 373320, Note_on_c, 2, 66, 120
6, 373320, Note_on_c, 2, 62, 120
6, 373379, Note_on_c, 2, 62, 0
6, 373379, Note_on_c, 2, 66, 0
6, 373380, Note_on_c, 2, 64, 120
6, 373380, Note_on_c, 2, 67, 120
6, 373439, Note_on_c, 2, 67, 0
6, 373439, Note_on_c, 2, 64, 0
6, 373440, Note_on_c, 2, 62, 120
6, 373440, Note_on_c, 2, 66, 120
6, 373499, Note_on_c, 2, 66, 0
6, 373499, Note_on_c, 2, 62, 0
6, 373500, Note_on_c, 2, 64, 120
6, 373500, Note_on_c, 2, 67, 120
6, 373559, Note_on_c, 2, 67, 0
6, 373559, Note_on_c, 2, 64, 0
6, 373560, Note_on_c, 2, 62, 120
6, 373560, Note_on_c, 2, 66, 120
6, 373619, Note_on_c, 2, 66, 0
6, 373619, Note_on_c, 2, 62, 0
6, 373620, Note_on_c, 2, 57, 120
6, 373620, Note_on_c, 2, 64, 120
6, 373679, Note_on_c, 2, 64, 0
6, 373679, Note_on_c, 2, 57, 0
6, 373680, Note_on_c, 2, 66, 120
6, 373680, Note_on_c, 2, 62, 120
6, 373739, Note_on_c, 2, 62, 0
6, 373739, Note_on_c, 2, 66, 0
6, 373740, Note_on_c, 2, 64, 120
6, 373740, Note_on_c, 2, 57, 120
6, 373799, Note_on_c, 2, 57, 0
6, 373799, Note_on_c, 2, 64, 0
6, 373800, Note_on_c, 2, 66, 120
6, 373800, Note_on_c, 2, 62, 120
6, 373859, Note_on_c, 2, 62, 0
6, 373859, Note_on_c, 2, 66, 0
6, 373860, Note_on_c, 2, 62, 120
6, 373860, Note_on_c, 2, 54, 120
6, 373919, Note_on_c, 2, 54, 0
6, 373919, Note_on_c, 2, 62, 0
6, 373920, Note_on_c, 2, 57, 120
6, 373920, Note_on_c, 2, 64, 120
6, 373979, Note_on_c, 2, 64, 0
6, 373979, Note_on_c, 2, 57, 0
6, 373980, Note_on_c, 2, 66, 120
6, 373980, Note_on_c, 2, 62, 120
6, 374039, Note_on_c, 2, 62, 0
6, 374039, Note_on_c, 2, 66, 0
6, 374040, Note_on_c, 2, 64, 120
6, 374040, Note_on_c, 2, 67, 120
6, 374099, Note_on_c, 2, 67, 0
6, 374099, Note_on_c, 2, 64, 0
6, 374100, Note_on_c, 2, 69, 120
6, 374100, Note_on_c, 2, 66, 120
6, 374159, Note_on_c, 2, 66, 0
6, 374160, Note_on_c, 2, 64, 120
6, 374219, Note_on_c, 2, 64, 0
6, 374220, Note_on_c, 2, 69, 0
6, 374220, Note_on_c, 2, 62, 120
6, 374220, Note_on_c, 2, 71, 120
6, 374279, Note_on_c, 2, 71, 0
6, 374279, Note_on_c, 2, 62, 0
6, 374280, Note_on_c, 2, 64, 120
6, 374280, Note_on_c, 2, 69, 120
6, 374339, Note_on_c, 2, 69, 0
6, 374339, Note_on_c, 2, 64, 0
6, 374340, Note_on_c, 2, 57, 120
6, 374340, Note_on_c, 2, 67, 120
6, 374399, Note_on_c, 2, 67, 0
6, 374400, Note_on_c, 2, 66, 120
6, 374459, Note_on_c, 2, 66, 0
6, 374460, Note_on_c, 2, 57, 0
6, 374460, Note_on_c, 2, 57, 120
6, 374460, Note_on_c, 2, 64, 120
6, 374519, Note_on_c, 2, 64, 0
6, 374520, Note_on_c, 2, 66, 120
6, 374579, Note_on_c, 2, 66, 0
6, 374580, Note_on_c, 2, 57, 0
6, 374580, Note_on_c, 2, 54, 120
6, 374580, Note_on_c, 2, 62, 120
6, 374819, Note_on_c, 2, 62, 0
6, 374819, Note_on_c, 2, 54, 0
6, 375300, Note_on_c, 2, 57, 120
6, 375419, Note_on_c, 2, 57, 0
6, 375420, Note_on_c, 2, 57, 120
6, 375539, Note_on_c, 2, 57, 0
6, 375540, Note_on_c, 2, 57, 120
6, 375659, Note_on_c, 2, 57, 0
6, 375660, Note_on_c, 2, 57, 120
6, 375779, Note_on_c, 2, 57, 0
6, 375780, Note_on_c, 2, 57, 120
6, 375899, Note_on_c, 2, 57, 0
6, 375900, Note_on_c, 2, 57, 120
6, 376019, Note_on_c, 2, 57, 0
6, 376020, Note_on_c, 2, 57, 120
6, 376139, Note_on_c, 2, 57, 0
6, 376140, Note_on_c, 2, 57, 120
6, 376259, Note_on_c, 2, 57, 0
6, 376260, Note_on_c, 2, 62, 120
6, 376260, Note_on_c, 2, 66, 120
6, 376319, Note_on_c, 2, 66, 0
6, 376319, Note_on_c, 2, 62, 0
6, 376320, Note_on_c, 2, 64, 120
6, 376320, Note_on_c, 2, 67, 120
6, 376379, Note_on_c, 2, 67, 0
6, 376379, Note_on_c, 2, 64, 0
6, 376380, Note_on_c, 2, 66, 120
6, 376380, Note_on_c, 2, 62, 120
6, 376439, Note_on_c, 2, 62, 0
6, 376439, Note_on_c, 2, 66, 0
6, 376440, Note_on_c, 2, 64, 120
6, 376440, Note_on_c, 2, 67, 120
6, 376499, Note_on_c, 2, 67, 0
6, 376499, Note_on_c, 2, 64, 0
6, 376500, Note_on_c, 2, 66, 120
6, 376500, Note_on_c, 2, 69, 120
6, 376739, Note_on_c, 2, 69, 0
6, 376739, Note_on_c, 2, 66, 0
6, 376740, Note_on_c, 2, 50, 120
6, 376859, Note_on_c, 2, 50, 0
6, 376860, Note_on_c, 2, 50, 120
6, 376979, Note_on_c, 2, 50, 0
6, 376980, Note_on_c, 2, 50, 120
6, 377099, Note_on_c, 2, 50, 0
6, 377100, Note_on_c, 2, 50, 120
6, 377219, Note_on_c, 2, 50, 0
6, 377220, Note_on_c, 2, 50, 120
6, 377339, Note_on_c, 2, 50, 0
6, 377340, Note_on_c, 2, 50, 120
6, 377459, Note_on_c, 2, 50, 0
6, 377460, Note_on_c, 2, 50, 120
6, 377579, Note_on_c, 2, 50, 0
6, 377580, Note_on_c, 2, 50, 120
6, 377699, Note_on_c, 2, 50, 0
6, 377700, Note_on_c, 2, 62, 120
6, 377700, Note_on_c, 2, 66, 120
6, 377759, Note_on_c, 2, 66, 0
6, 377759, Note_on_c, 2, 62, 0
6, 377760, Note_on_c, 2, 64, 120
6, 377760, Note_on_c, 2, 67, 120
6, 377819, Note_on_c, 2, 67, 0
6, 377819, Note_on_c, 2, 64, 0
6, 377820, Note_on_c, 2, 62, 120
6, 377820, Note_on_c, 2, 66, 120
6, 377879, Note_on_c, 2, 66, 0
6, 377879, Note_on_c, 2, 62, 0
6, 377880, Note_on_c, 2, 64, 120
6, 377880, Note_on_c, 2, 67, 120
6, 377939, Note_on_c, 2, 67, 0
6, 377939, Note_on_c, 2, 64, 0
6, 377940, Note_on_c, 2, 66, 120
6, 377940, Note_on_c, 2, 69, 120
6, 378179, Note_on_c, 2, 69, 0
6, 378179, Note_on_c, 2, 66, 0
6, 378180, Note_on_c, 2, 62, 120
6, 378180, Note_on_c, 2, 66, 120
6, 378239, Note_on_c, 2, 66, 0
6, 378239, Note_on_c, 2, 62, 0
6, 378240, Note_on_c, 2, 64, 120
6, 378240, Note_on_c, 2, 67, 120
6, 378299, Note_on_c, 2, 67, 0
6, 378299, Note_on_c, 2, 64, 0
6, 378300, Note_on_c, 2, 66, 120
6, 378300, Note_on_c, 2, 62, 120
6, 378359, Note_on_c, 2, 62, 0
6, 378359, Note_on_c, 2, 66, 0
6, 378360, Note_on_c, 2, 64, 120
6, 378360, Note_on_c, 2, 67, 120
6, 378419, Note_on_c, 2, 67, 0
6, 378419, Note_on_c, 2, 64, 0
6, 378420, Note_on_c, 2, 66, 120
6, 378420, Note_on_c, 2, 69, 120
6, 378479, Note_on_c, 2, 69, 0
6, 378479, Note_on_c, 2, 66, 0
6, 378480, Note_on_c, 2, 64, 120
6, 378480, Note_on_c, 2, 67, 120
6, 378539, Note_on_c, 2, 67, 0
6, 378539, Note_on_c, 2, 64, 0
6, 378540, Note_on_c, 2, 66, 120
6, 378540, Note_on_c, 2, 69, 120
6, 378599, Note_on_c, 2, 69, 0
6, 378599, Note_on_c, 2, 66, 0
6, 378600, Note_on_c, 2, 64, 120
6, 378600, Note_on_c, 2, 67, 120
6, 378659, Note_on_c, 2, 67, 0
6, 378659, Note_on_c, 2, 64, 0
6, 378660, Note_on_c, 2, 62, 120
6, 378660, Note_on_c, 2, 66, 120
6, 378719, Note_on_c, 2, 66, 0
6, 378719, Note_on_c, 2, 62, 0
6, 378720, Note_on_c, 2, 64, 120
6, 378720, Note_on_c, 2, 67, 120
6, 378779, Note_on_c, 2, 67, 0
6, 378779, Note_on_c, 2, 64, 0
6, 378780, Note_on_c, 2, 62, 120
6, 378780, Note_on_c, 2, 66, 120
6, 378839, Note_on_c, 2, 66, 0
6, 378839, Note_on_c, 2, 62, 0
6, 378840, Note_on_c, 2, 64, 120
6, 378840, Note_on_c, 2, 67, 120
6, 378899, Note_on_c, 2, 67, 0
6, 378899, Note_on_c, 2, 64, 0
6, 378900, Note_on_c, 2, 66, 120
6, 378900, Note_on_c, 2, 69, 120
6, 378959, Note_on_c, 2, 69, 0
6, 378959, Note_on_c, 2, 66, 0
6, 378960, Note_on_c, 2, 64, 120
6, 378960, Note_on_c, 2, 67, 120
6, 379019, Note_on_c, 2, 67, 0
6, 379019, Note_on_c, 2, 64, 0
6, 379020, Note_on_c, 2, 66, 120
6, 379020, Note_on_c, 2, 69, 120
6, 379079, Note_on_c, 2, 69, 0
6, 379079, Note_on_c, 2, 66, 0
6, 379080, Note_on_c, 2, 64, 120
6, 379080, Note_on_c, 2, 67, 120
6, 379139, Note_on_c, 2, 67, 0
6, 379139, Note_on_c, 2, 64, 0
6, 379140, Note_on_c, 2, 66, 120
6, 379140, Note_on_c, 2, 62, 120
6, 379259, Note_on_c, 2, 62, 0
6, 379259, Note_on_c, 2, 66, 0
6, 379260, Note_on_c, 2, 66, 120
6, 379260, Note_on_c, 2, 69, 120
6, 379319, Note_on_c, 2, 69, 0
6, 379319, Note_on_c, 2, 66, 0
6, 379320, Note_on_c, 2, 64, 120
6, 379320, Note_on_c, 2, 67, 120
6, 379379, Note_on_c, 2, 67, 0
6, 379379, Note_on_c, 2, 64, 0
6, 379380, Note_on_c, 2, 67, 120
6, 379380, Note_on_c, 2, 71, 120
6, 379499, Note_on_c, 2, 71, 0
6, 379499, Note_on_c, 2, 67, 0
6, 379500, Note_on_c, 2, 69, 120
6, 379500, Note_on_c, 2, 66, 120
6, 379559, Note_on_c, 2, 66, 0
6, 379559, Note_on_c, 2, 69, 0
6, 379560, Note_on_c, 2, 67, 120
6, 379560, Note_on_c, 2, 64, 120
6, 379619, Note_on_c, 2, 64, 0
6, 379619, Note_on_c, 2, 67, 0
6, 379620, Note_on_c, 2, 66, 120
6, 379620, Note_on_c, 2, 69, 120
6, 379739, Note_on_c, 2, 69, 0
6, 379739, Note_on_c, 2, 66, 0
6, 379740, Note_on_c, 2, 64, 120
6, 379740, Note_on_c, 2, 67, 120
6, 379799, Note_on_c, 2, 67, 0
6, 379799, Note_on_c, 2, 64, 0
6, 379800, Note_on_c, 2, 66, 120
6, 379800, Note_on_c, 2, 62, 120
6, 379859, Note_on_c, 2, 62, 0
6, 379859, Note_on_c, 2, 66, 0
6, 379860, Note_on_c, 2, 64, 120
6, 379860, Note_on_c, 2, 57, 120
6, 380099, Note_on_c, 2, 57, 0
6, 380099, Note_on_c, 2, 64, 0
6, 380100, Note_on_c, 2, 57, 120
6, 380100, Note_on_c, 2, 69, 120
6, 380159, Note_on_c, 2, 69, 0
6, 380160, Note_on_c, 2, 71, 120
6, 380219, Note_on_c, 2, 71, 0
6, 380220, Note_on_c, 2, 57, 0
6, 380220, Note_on_c, 2, 64, 120
6, 380220, Note_on_c, 2, 69, 120
6, 380279, Note_on_c, 2, 69, 0
6, 380280, Note_on_c, 2, 71, 120
6, 380339, Note_on_c, 2, 71, 0
6, 380340, Note_on_c, 2, 64, 0
6, 380340, Note_on_c, 2, 69, 120
6, 380340, Note_on_c, 2, 73, 120
6, 380579, Note_on_c, 2, 73, 0
6, 380579, Note_on_c, 2, 69, 0
6, 382020, Note_on_c, 2, 57, 120
6, 382139, Note_on_c, 2, 57, 0
6, 382140, Note_on_c, 2, 57, 120
6, 382259, Note_on_c, 2, 57, 0
6, 382260, Note_on_c, 2, 57, 120
6, 382379, Note_on_c, 2, 57, 0
6, 382380, Note_on_c, 2, 57, 120
6, 382499, Note_on_c, 2, 57, 0
6, 382500, Note_on_c, 2, 57, 120
6, 382619, Note_on_c, 2, 57, 0
6, 382620, Note_on_c, 2, 57, 120
6, 382739, Note_on_c, 2, 57, 0
6, 382740, Note_on_c, 2, 57, 120
6, 382859, Note_on_c, 2, 57, 0
6, 382860, Note_on_c, 2, 57, 120
6, 382979, Note_on_c, 2, 57, 0
6, 382980, Note_on_c, 2, 64, 120
6, 382980, Note_on_c, 2, 69, 120
6, 383039, Note_on_c, 2, 69, 0
6, 383040, Note_on_c, 2, 71, 120
6, 383099, Note_on_c, 2, 71, 0
6, 383100, Note_on_c, 2, 64, 0
6, 383100, Note_on_c, 2, 64, 120
6, 383100, Note_on_c, 2, 69, 120
6, 383159, Note_on_c, 2, 69, 0
6, 383159, Note_on_c, 2, 64, 0
6, 383160, Note_on_c, 2, 68, 120
6, 383160, Note_on_c, 2, 71, 120
6, 383219, Note_on_c, 2, 71, 0
6, 383219, Note_on_c, 2, 68, 0
6, 383220, Note_on_c, 2, 73, 120
6, 383220, Note_on_c, 2, 69, 120
6, 383459, Note_on_c, 2, 69, 0
6, 383459, Note_on_c, 2, 73, 0
6, 383460, Note_on_c, 2, 67, 120
6, 383460, Note_on_c, 2, 64, 120
6, 383519, Note_on_c, 2, 64, 0
6, 383519, Note_on_c, 2, 67, 0
6, 383520, Note_on_c, 2, 62, 120
6, 383520, Note_on_c, 2, 66, 120
6, 383579, Note_on_c, 2, 66, 0
6, 383579, Note_on_c, 2, 62, 0
6, 383580, Note_on_c, 2, 64, 120
6, 383580, Note_on_c, 2, 67, 120
6, 383639, Note_on_c, 2, 67, 0
6, 383639, Note_on_c, 2, 64, 0
6, 383640, Note_on_c, 2, 62, 120
6, 383640, Note_on_c, 2, 66, 120
6, 383699, Note_on_c, 2, 66, 0
6, 383699, Note_on_c, 2, 62, 0
6, 383700, Note_on_c, 2, 57, 120
6, 383700, Note_on_c, 2, 64, 120
6, 383759, Note_on_c, 2, 64, 0
6, 383759, Note_on_c, 2, 57, 0
6, 383760, Note_on_c, 2, 66, 120
6, 383760, Note_on_c, 2, 62, 120
6, 383819, Note_on_c, 2, 62, 0
6, 383819, Note_on_c, 2, 66, 0
6, 383820, Note_on_c, 2, 64, 120
6, 383820, Note_on_c, 2, 57, 120
6, 383879, Note_on_c, 2, 57, 0
6, 383879, Note_on_c, 2, 64, 0
6, 383880, Note_on_c, 2, 66, 120
6, 383880, Note_on_c, 2, 62, 120
6, 383939, Note_on_c, 2, 62, 0
6, 383939, Note_on_c, 2, 66, 0
6, 383940, Note_on_c, 2, 64, 120
6, 383940, Note_on_c, 2, 67, 120
6, 383999, Note_on_c, 2, 67, 0
6, 383999, Note_on_c, 2, 64, 0
6, 384000, Note_on_c, 2, 62, 120
6, 384000, Note_on_c, 2, 66, 120
6, 384059, Note_on_c, 2, 66, 0
6, 384059, Note_on_c, 2, 62, 0
6, 384060, Note_on_c, 2, 64, 120
6, 384060, Note_on_c, 2, 67, 120
6, 384119, Note_on_c, 2, 67, 0
6, 384119, Note_on_c, 2, 64, 0
6, 384120, Note_on_c, 2, 62, 120
6, 384120, Note_on_c, 2, 66, 120
6, 384179, Note_on_c, 2, 66, 0
6, 384179, Note_on_c, 2, 62, 0
6, 384180, Note_on_c, 2, 64, 120
6, 384180, Note_on_c, 2, 57, 120
6, 384239, Note_on_c, 2, 57, 0
6, 384239, Note_on_c, 2, 64, 0
6, 384240, Note_on_c, 2, 62, 120
6, 384240, Note_on_c, 2, 66, 120
6, 384299, Note_on_c, 2, 66, 0
6, 384299, Note_on_c, 2, 62, 0
6, 384300, Note_on_c, 2, 57, 120
6, 384300, Note_on_c, 2, 64, 120
6, 384359, Note_on_c, 2, 64, 0
6, 384359, Note_on_c, 2, 57, 0
6, 384360, Note_on_c, 2, 66, 120
6, 384360, Note_on_c, 2, 62, 120
6, 384419, Note_on_c, 2, 62, 0
6, 384419, Note_on_c, 2, 66, 0
6, 384420, Note_on_c, 2, 54, 120
6, 384420, Note_on_c, 2, 62, 120
6, 384479, Note_on_c, 2, 62, 0
6, 384479, Note_on_c, 2, 54, 0
6, 384480, Note_on_c, 2, 64, 120
6, 384480, Note_on_c, 2, 57, 120
6, 384539, Note_on_c, 2, 57, 0
6, 384539, Note_on_c, 2, 64, 0
6, 384540, Note_on_c, 2, 62, 120
6, 384540, Note_on_c, 2, 66, 120
6, 384599, Note_on_c, 2, 66, 0
6, 384599, Note_on_c, 2, 62, 0
6, 384600, Note_on_c, 2, 64, 120
6, 384600, Note_on_c, 2, 67, 120
6, 384659, Note_on_c, 2, 67, 0
6, 384659, Note_on_c, 2, 64, 0
6, 384660, Note_on_c, 2, 69, 120
6, 384660, Note_on_c, 2, 66, 120
6, 384719, Note_on_c, 2, 66, 0
6, 384720, Note_on_c, 2, 64, 120
6, 384779, Note_on_c, 2, 64, 0
6, 384780, Note_on_c, 2, 69, 0
6, 384780, Note_on_c, 2, 71, 120
6, 384780, Note_on_c, 2, 62, 120
6, 384839, Note_on_c, 2, 62, 0
6, 384839, Note_on_c, 2, 71, 0
6, 384840, Note_on_c, 2, 64, 120
6, 384840, Note_on_c, 2, 69, 120
6, 384899, Note_on_c, 2, 69, 0
6, 384899, Note_on_c, 2, 64, 0
6, 384900, Note_on_c, 2, 57, 120
6, 384900, Note_on_c, 2, 67, 120
6, 384959, Note_on_c, 2, 67, 0
6, 384960, Note_on_c, 2, 66, 120
6, 385019, Note_on_c, 2, 66, 0
6, 385020, Note_on_c, 2, 57, 0
6, 385020, Note_on_c, 2, 57, 120
6, 385020, Note_on_c, 2, 64, 120
6, 385079, Note_on_c, 2, 64, 0
6, 385080, Note_on_c, 2, 66, 120
6, 385139, Note_on_c, 2, 66, 0
6, 385140, Note_on_c, 2, 57, 0
6, 385140, Note_on_c, 2, 54, 120
6, 385140, Note_on_c, 2, 62, 120
6, 385379, Note_on_c, 2, 62, 0
6, 385379, Note_on_c, 2, 54, 0
6, 385379, End_track
7, 0, Start_track
7, 0, MIDI_port, 0
7, 0, Title_t, "corno ii"
7, 0, Program_c, 3, 60
7, 240, Note_on_c, 3, 54, 110
7, 300, Note_on_c, 3, 54, 0
7, 300, Note_on_c, 3, 50, 110
7, 360, Note_on_c, 3, 50, 0
7, 600, Note_on_c, 3, 57, 110
7, 660, Note_on_c, 3, 57, 0
7, 660, Note_on_c, 3, 54, 110
7, 720, Note_on_c, 3, 54, 0
7, 960, Note_on_c, 3, 62, 110
7, 1020, Note_on_c, 3, 62, 0
7, 1020, Note_on_c, 3, 57, 110
7, 1080, Note_on_c, 3, 57, 0
7, 1320, Note_on_c, 3, 66, 110
7, 1380, Note_on_c, 3, 66, 0
7, 1380, Note_on_c, 3, 62, 110
7, 1440, Note_on_c, 3, 62, 0
7, 1440, Note_on_c, 3, 62, 110
7, 2520, Note_on_c, 3, 62, 0
7, 2580, Note_on_c, 3, 64, 110
7, 2609, Note_on_c, 3, 64, 0
7, 2610, Note_on_c, 3, 64, 110
7, 2639, Note_on_c, 3, 64, 0
7, 2640, Note_on_c, 3, 64, 110
7, 2669, Note_on_c, 3, 64, 0
7, 2670, Note_on_c, 3, 64, 110
7, 2699, Note_on_c, 3, 64, 0
7, 2700, Note_on_c, 3, 64, 110
7, 2729, Note_on_c, 3, 64, 0
7, 2730, Note_on_c, 3, 64, 110
7, 2759, Note_on_c, 3, 64, 0
7, 2760, Note_on_c, 3, 64, 110
7, 2789, Note_on_c, 3, 64, 0
7, 2790, Note_on_c, 3, 64, 110
7, 2819, Note_on_c, 3, 64, 0
7, 2820, Note_on_c, 3, 64, 110
7, 2849, Note_on_c, 3, 64, 0
7, 2850, Note_on_c, 3, 64, 110
7, 2879, Note_on_c, 3, 64, 0
7, 2880, Note_on_c, 3, 64, 110
7, 2999, Note_on_c, 3, 64, 0
7, 4380, Note_on_c, 3, 64, 110
7, 4439, Note_on_c, 3, 64, 0
7, 4440, Note_on_c, 3, 64, 110
7, 4499, Note_on_c, 3, 64, 0
7, 4500, Note_on_c, 3, 64, 110
7, 4559, Note_on_c, 3, 64, 0
7, 4560, Note_on_c, 3, 64, 110
7, 4619, Note_on_c, 3, 64, 0
7, 4620, Note_on_c, 3, 66, 110
7, 4649, Note_on_c, 3, 66, 0
7, 4650, Note_on_c, 3, 67, 110
7, 4679, Note_on_c, 3, 67, 0
7, 4680, Note_on_c, 3, 69, 110
7, 4739, Note_on_c, 3, 69, 0
7, 4740, Note_on_c, 3, 57, 110
7, 4769, Note_on_c, 3, 57, 0
7, 4770, Note_on_c, 3, 57, 110
7, 4799, Note_on_c, 3, 57, 0
7, 4800, Note_on_c, 3, 57, 110
7, 4829, Note_on_c, 3, 57, 0
7, 4830, Note_on_c, 3, 57, 110
7, 4859, Note_on_c, 3, 57, 0
7, 4860, Note_on_c, 3, 57, 110
7, 4889, Note_on_c, 3, 57, 0
7, 4890, Note_on_c, 3, 57, 110
7, 4919, Note_on_c, 3, 57, 0
7, 4920, Note_on_c, 3, 57, 110
7, 4949, Note_on_c, 3, 57, 0
7, 4950, Note_on_c, 3, 57, 110
7, 4979, Note_on_c, 3, 57, 0
7, 4980, Note_on_c, 3, 57, 110
7, 5009, Note_on_c, 3, 57, 0
7, 5010, Note_on_c, 3, 57, 110
7, 5039, Note_on_c, 3, 57, 0
7, 5040, Note_on_c, 3, 57, 110
7, 5159, Note_on_c, 3, 57, 0
7, 5280, Note_on_c, 3, 66, 110
7, 5339, Note_on_c, 3, 66, 0
7, 5340, Note_on_c, 3, 66, 110
7, 5399, Note_on_c, 3, 66, 0
7, 5400, Note_on_c, 3, 66, 110
7, 5459, Note_on_c, 3, 66, 0
7, 5460, Note_on_c, 3, 67, 110
7, 5489, Note_on_c, 3, 67, 0
7, 5490, Note_on_c, 3, 66, 110
7, 5519, Note_on_c, 3, 66, 0
7, 5520, Note_on_c, 3, 64, 110
7, 5579, Note_on_c, 3, 64, 0
7, 5580, Note_on_c, 3, 64, 110
7, 5639, Note_on_c, 3, 64, 0
7, 5640, Note_on_c, 3, 64, 110
7, 5699, Note_on_c, 3, 64, 0
7, 5700, Note_on_c, 3, 64, 110
7, 5759, Note_on_c, 3, 64, 0
7, 5760, Note_on_c, 3, 64, 110
7, 5819, Note_on_c, 3, 64, 0
7, 5820, Note_on_c, 3, 66, 110
7, 5849, Note_on_c, 3, 66, 0
7, 5850, Note_on_c, 3, 64, 110
7, 5879, Note_on_c, 3, 64, 0
7, 5880, Note_on_c, 3, 62, 110
7, 5939, Note_on_c, 3, 62, 0
7, 5940, Note_on_c, 3, 62, 110
7, 5999, Note_on_c, 3, 62, 0
7, 6000, Note_on_c, 3, 62, 110
7, 6059, Note_on_c, 3, 62, 0
7, 6060, Note_on_c, 3, 62, 110
7, 6119, Note_on_c, 3, 62, 0
7, 6120, Note_on_c, 3, 62, 110
7, 6179, Note_on_c, 3, 62, 0
7, 6180, Note_on_c, 3, 64, 110
7, 6209, Note_on_c, 3, 64, 0
7, 6210, Note_on_c, 3, 62, 110
7, 6239, Note_on_c, 3, 62, 0
7, 6240, Note_on_c, 3, 57, 110
7, 6299, Note_on_c, 3, 57, 0
7, 6300, Note_on_c, 3, 57, 110
7, 6359, Note_on_c, 3, 57, 0
7, 6360, Note_on_c, 3, 57, 110
7, 6419, Note_on_c, 3, 57, 0
7, 6420, Note_on_c, 3, 57, 110
7, 6479, Note_on_c, 3, 57, 0
7, 6480, Note_on_c, 3, 57, 110
7, 6539, Note_on_c, 3, 57, 0
7, 6540, Note_on_c, 3, 62, 110
7, 6599, Note_on_c, 3, 62, 0
7, 6600, Note_on_c, 3, 62, 110
7, 6659, Note_on_c, 3, 62, 0
7, 6660, Note_on_c, 3, 62, 110
7, 6719, Note_on_c, 3, 62, 0
7, 6720, Note_on_c, 3, 62, 110
7, 6779, Note_on_c, 3, 62, 0
7, 6780, Note_on_c, 3, 62, 110
7, 6839, Note_on_c, 3, 62, 0
7, 6900, Note_on_c, 3, 62, 110
7, 6959, Note_on_c, 3, 62, 0
7, 6960, Note_on_c, 3, 62, 110
7, 7019, Note_on_c, 3, 62, 0
7, 7020, Note_on_c, 3, 62, 110
7, 7079, Note_on_c, 3, 62, 0
7, 7080, Note_on_c, 3, 62, 110
7, 7139, Note_on_c, 3, 62, 0
7, 7140, Note_on_c, 3, 62, 110
7, 7199, Note_on_c, 3, 62, 0
7, 7260, Note_on_c, 3, 64, 110
7, 7319, Note_on_c, 3, 64, 0
7, 7320, Note_on_c, 3, 64, 110
7, 7379, Note_on_c, 3, 64, 0
7, 7380, Note_on_c, 3, 64, 110
7, 7439, Note_on_c, 3, 64, 0
7, 7440, Note_on_c, 3, 64, 110
7, 7499, Note_on_c, 3, 64, 0
7, 7500, Note_on_c, 3, 64, 110
7, 7559, Note_on_c, 3, 64, 0
7, 7560, Note_on_c, 3, 64, 110
7, 7619, Note_on_c, 3, 64, 0
7, 7620, Note_on_c, 3, 57, 110
7, 7679, Note_on_c, 3, 57, 0
7, 7680, Note_on_c, 3, 57, 110
7, 7739, Note_on_c, 3, 57, 0
7, 7740, Note_on_c, 3, 57, 110
7, 7799, Note_on_c, 3, 57, 0
7, 7800, Note_on_c, 3, 57, 110
7, 7859, Note_on_c, 3, 57, 0
7, 7860, Note_on_c, 3, 54, 110
7, 7889, Note_on_c, 3, 54, 0
7, 7890, Note_on_c, 3, 57, 110
7, 7919, Note_on_c, 3, 57, 0
7, 7920, Note_on_c, 3, 62, 110
7, 7979, Note_on_c, 3, 62, 0
7, 7980, Note_on_c, 3, 62, 110
7, 8039, Note_on_c, 3, 62, 0
7, 8040, Note_on_c, 3, 62, 110
7, 8099, Note_on_c, 3, 62, 0
7, 8100, Note_on_c, 3, 62, 110
7, 8159, Note_on_c, 3, 62, 0
7, 8160, Note_on_c, 3, 62, 110
7, 8219, Note_on_c, 3, 62, 0
7, 8220, Note_on_c, 3, 57, 110
7, 8249, Note_on_c, 3, 57, 0
7, 8250, Note_on_c, 3, 62, 110
7, 8279, Note_on_c, 3, 62, 0
7, 8280, Note_on_c, 3, 64, 110
7, 8339, Note_on_c, 3, 64, 0
7, 8340, Note_on_c, 3, 64, 110
7, 8399, Note_on_c, 3, 64, 0
7, 8400, Note_on_c, 3, 64, 110
7, 8459, Note_on_c, 3, 64, 0
7, 8460, Note_on_c, 3, 64, 110
7, 8519, Note_on_c, 3, 64, 0
7, 8520, Note_on_c, 3, 64, 110
7, 8579, Note_on_c, 3, 64, 0
7, 8580, Note_on_c, 3, 62, 110
7, 8609, Note_on_c, 3, 62, 0
7, 8610, Note_on_c, 3, 64, 110
7, 8639, Note_on_c, 3, 64, 0
7, 8640, Note_on_c, 3, 66, 110
7, 9270, Note_on_c, 3, 66, 0
7, 9270, Note_on_c, 3, 67, 110
7, 9299, Note_on_c, 3, 67, 0
7, 9300, Note_on_c, 3, 64, 110
7, 9329, Note_on_c, 3, 64, 0
7, 9330, Note_on_c, 3, 66, 110
7, 9359, Note_on_c, 3, 66, 0
7, 9360, Note_on_c, 3, 67, 110
7, 9419, Note_on_c, 3, 67, 0
7, 9420, Note_on_c, 3, 62, 110
7, 9479, Note_on_c, 3, 62, 0
7, 9480, Note_on_c, 3, 64, 110
7, 9509, Note_on_c, 3, 64, 0
7, 9510, Note_on_c, 3, 66, 110
7, 9539, Note_on_c, 3, 66, 0
7, 9540, Note_on_c, 3, 64, 110
7, 9569, Note_on_c, 3, 64, 0
7, 9570, Note_on_c, 3, 66, 110
7, 9599, Note_on_c, 3, 66, 0
7, 9600, Note_on_c, 3, 67, 110
7, 9629, Note_on_c, 3, 67, 0
7, 9630, Note_on_c, 3, 69, 110
7, 9659, Note_on_c, 3, 69, 0
7, 9660, Note_on_c, 3, 66, 110
7, 9689, Note_on_c, 3, 66, 0
7, 9690, Note_on_c, 3, 67, 110
7, 9719, Note_on_c, 3, 67, 0
7, 9720, Note_on_c, 3, 69, 110
7, 9749, Note_on_c, 3, 69, 0
7, 9750, Note_on_c, 3, 67, 110
7, 9779, Note_on_c, 3, 67, 0
7, 9780, Note_on_c, 3, 66, 110
7, 9809, Note_on_c, 3, 66, 0
7, 9810, Note_on_c, 3, 64, 110
7, 9839, Note_on_c, 3, 64, 0
7, 9840, Note_on_c, 3, 62, 110
7, 9899, Note_on_c, 3, 62, 0
7, 9900, Note_on_c, 3, 57, 110
7, 9959, Note_on_c, 3, 57, 0
7, 9960, Note_on_c, 3, 57, 110
7, 9989, Note_on_c, 3, 57, 0
7, 9990, Note_on_c, 3, 54, 110
7, 10019, Note_on_c, 3, 54, 0
7, 10020, Note_on_c, 3, 57, 110
7, 10079, Note_on_c, 3, 57, 0
7, 10080, Note_on_c, 3, 54, 110
7, 10200, Note_on_c, 3, 54, 0
7, 10200, Note_on_c, 3, 62, 110
7, 10259, Note_on_c, 3, 62, 0
7, 10260, Note_on_c, 3, 50, 110
7, 10319, Note_on_c, 3, 50, 0
7, 10320, Note_on_c, 3, 50, 110
7, 10379, Note_on_c, 3, 50, 0
7, 10380, Note_on_c, 3, 50, 110
7, 10439, Note_on_c, 3, 50, 0
7, 10440, Note_on_c, 3, 50, 110
7, 10499, Note_on_c, 3, 50, 0
7, 10500, Note_on_c, 3, 50, 110
7, 10559, Note_on_c, 3, 50, 0
7, 10560, Note_on_c, 3, 62, 110
7, 10619, Note_on_c, 3, 62, 0
7, 10620, Note_on_c, 3, 50, 110
7, 10679, Note_on_c, 3, 50, 0
7, 10680, Note_on_c, 3, 50, 110
7, 10739, Note_on_c, 3, 50, 0
7, 10740, Note_on_c, 3, 50, 110
7, 10799, Note_on_c, 3, 50, 0
7, 10800, Note_on_c, 3, 50, 110
7, 10859, Note_on_c, 3, 50, 0
7, 10860, Note_on_c, 3, 50, 110
7, 10919, Note_on_c, 3, 50, 0
7, 10920, Note_on_c, 3, 62, 110
7, 10979, Note_on_c, 3, 62, 0
7, 10980, Note_on_c, 3, 50, 110
7, 11039, Note_on_c, 3, 50, 0
7, 11040, Note_on_c, 3, 50, 110
7, 11099, Note_on_c, 3, 50, 0
7, 11100, Note_on_c, 3, 50, 110
7, 11159, Note_on_c, 3, 50, 0
7, 11160, Note_on_c, 3, 50, 110
7, 11219, Note_on_c, 3, 50, 0
7, 11220, Note_on_c, 3, 50, 110
7, 11279, Note_on_c, 3, 50, 0
7, 11280, Note_on_c, 3, 62, 110
7, 11339, Note_on_c, 3, 62, 0
7, 11340, Note_on_c, 3, 50, 110
7, 11399, Note_on_c, 3, 50, 0
7, 11400, Note_on_c, 3, 50, 110
7, 11459, Note_on_c, 3, 50, 0
7, 11460, Note_on_c, 3, 50, 110
7, 11519, Note_on_c, 3, 50, 0
7, 11520, Note_on_c, 3, 50, 110
7, 11579, Note_on_c, 3, 50, 0
7, 11580, Note_on_c, 3, 57, 110
7, 11639, Note_on_c, 3, 57, 0
7, 11640, Note_on_c, 3, 57, 110
7, 11699, Note_on_c, 3, 57, 0
7, 11700, Note_on_c, 3, 62, 110
7, 11759, Note_on_c, 3, 62, 0
7, 11760, Note_on_c, 3, 66, 110
7, 11819, Note_on_c, 3, 66, 0
7, 11820, Note_on_c, 3, 64, 110
7, 11849, Note_on_c, 3, 64, 0
7, 11850, Note_on_c, 3, 62, 110
7, 11879, Note_on_c, 3, 62, 0
7, 11880, Note_on_c, 3, 57, 110
7, 11939, Note_on_c, 3, 57, 0
7, 11940, Note_on_c, 3, 57, 110
7, 11999, Note_on_c, 3, 57, 0
7, 12000, Note_on_c, 3, 57, 110
7, 12059, Note_on_c, 3, 57, 0
7, 12060, Note_on_c, 3, 57, 110
7, 12119, Note_on_c, 3, 57, 0
7, 12120, Note_on_c, 3, 57, 110
7, 12179, Note_on_c, 3, 57, 0
7, 12180, Note_on_c, 3, 54, 110
7, 12209, Note_on_c, 3, 54, 0
7, 12210, Note_on_c, 3, 57, 110
7, 12239, Note_on_c, 3, 57, 0
7, 12240, Note_on_c, 3, 62, 110
7, 12299, Note_on_c, 3, 62, 0
7, 12300, Note_on_c, 3, 62, 110
7, 12359, Note_on_c, 3, 62, 0
7, 12360, Note_on_c, 3, 62, 110
7, 12419, Note_on_c, 3, 62, 0
7, 12420, Note_on_c, 3, 62, 110
7, 12479, Note_on_c, 3, 62, 0
7, 12480, Note_on_c, 3, 62, 110
7, 12539, Note_on_c, 3, 62, 0
7, 12540, Note_on_c, 3, 57, 110
7, 12569, Note_on_c, 3, 57, 0
7, 12570, Note_on_c, 3, 62, 110
7, 12599, Note_on_c, 3, 62, 0
7, 12600, Note_on_c, 3, 64, 110
7, 12659, Note_on_c, 3, 64, 0
7, 12660, Note_on_c, 3, 64, 110
7, 12719, Note_on_c, 3, 64, 0
7, 12720, Note_on_c, 3, 64, 110
7, 12779, Note_on_c, 3, 64, 0
7, 12780, Note_on_c, 3, 64, 110
7, 12839, Note_on_c, 3, 64, 0
7, 12840, Note_on_c, 3, 64, 110
7, 12899, Note_on_c, 3, 64, 0
7, 12900, Note_on_c, 3, 62, 110
7, 12929, Note_on_c, 3, 62, 0
7, 12930, Note_on_c, 3, 64, 110
7, 12959, Note_on_c, 3, 64, 0
7, 12960, Note_on_c, 3, 66, 110
7, 13590, Note_on_c, 3, 66, 0
7, 13590, Note_on_c, 3, 67, 110
7, 13619, Note_on_c, 3, 67, 0
7, 13620, Note_on_c, 3, 64, 110
7, 13649, Note_on_c, 3, 64, 0
7, 13650, Note_on_c, 3, 66, 110
7, 13679, Note_on_c, 3, 66, 0
7, 13680, Note_on_c, 3, 67, 110
7, 13739, Note_on_c, 3, 67, 0
7, 13740, Note_on_c, 3, 62, 110
7, 13799, Note_on_c, 3, 62, 0
7, 13800, Note_on_c, 3, 64, 110
7, 13829, Note_on_c, 3, 64, 0
7, 13830, Note_on_c, 3, 66, 110
7, 13859, Note_on_c, 3, 66, 0
7, 13860, Note_on_c, 3, 64, 110
7, 13889, Note_on_c, 3, 64, 0
7, 13890, Note_on_c, 3, 66, 110
7, 13919, Note_on_c, 3, 66, 0
7, 13920, Note_on_c, 3, 67, 110
7, 13949, Note_on_c, 3, 67, 0
7, 13950, Note_on_c, 3, 69, 110
7, 13979, Note_on_c, 3, 69, 0
7, 13980, Note_on_c, 3, 66, 110
7, 14009, Note_on_c, 3, 66, 0
7, 14010, Note_on_c, 3, 67, 110
7, 14039, Note_on_c, 3, 67, 0
7, 14040, Note_on_c, 3, 69, 110
7, 14069, Note_on_c, 3, 69, 0
7, 14070, Note_on_c, 3, 67, 110
7, 14099, Note_on_c, 3, 67, 0
7, 14100, Note_on_c, 3, 66, 110
7, 14129, Note_on_c, 3, 66, 0
7, 14130, Note_on_c, 3, 64, 110
7, 14159, Note_on_c, 3, 64, 0
7, 14160, Note_on_c, 3, 62, 110
7, 14219, Note_on_c, 3, 62, 0
7, 14220, Note_on_c, 3, 57, 110
7, 14279, Note_on_c, 3, 57, 0
7, 14280, Note_on_c, 3, 57, 110
7, 14309, Note_on_c, 3, 57, 0
7, 14310, Note_on_c, 3, 54, 110
7, 14339, Note_on_c, 3, 54, 0
7, 14340, Note_on_c, 3, 57, 110
7, 14399, Note_on_c, 3, 57, 0
7, 14400, Note_on_c, 3, 54, 110
7, 14519, Note_on_c, 3, 54, 0
7, 14640, Note_on_c, 3, 62, 110
7, 14699, Note_on_c, 3, 62, 0
7, 14700, Note_on_c, 3, 50, 110
7, 14759, Note_on_c, 3, 50, 0
7, 14760, Note_on_c, 3, 50, 110
7, 14819, Note_on_c, 3, 50, 0
7, 14820, Note_on_c, 3, 50, 110
7, 14879, Note_on_c, 3, 50, 0
7, 14880, Note_on_c, 3, 50, 110
7, 14939, Note_on_c, 3, 50, 0
7, 14940, Note_on_c, 3, 50, 110
7, 14999, Note_on_c, 3, 50, 0
7, 15000, Note_on_c, 3, 62, 110
7, 15059, Note_on_c, 3, 62, 0
7, 15060, Note_on_c, 3, 50, 110
7, 15119, Note_on_c, 3, 50, 0
7, 15120, Note_on_c, 3, 50, 110
7, 15179, Note_on_c, 3, 50, 0
7, 15180, Note_on_c, 3, 50, 110
7, 15239, Note_on_c, 3, 50, 0
7, 15240, Note_on_c, 3, 50, 110
7, 15299, Note_on_c, 3, 50, 0
7, 15300, Note_on_c, 3, 50, 110
7, 15359, Note_on_c, 3, 50, 0
7, 15360, Note_on_c, 3, 62, 110
7, 15419, Note_on_c, 3, 62, 0
7, 15420, Note_on_c, 3, 50, 110
7, 15479, Note_on_c, 3, 50, 0
7, 15480, Note_on_c, 3, 50, 110
7, 15539, Note_on_c, 3, 50, 0
7, 15540, Note_on_c, 3, 50, 110
7, 15599, Note_on_c, 3, 50, 0
7, 15600, Note_on_c, 3, 50, 110
7, 15659, Note_on_c, 3, 50, 0
7, 15660, Note_on_c, 3, 50, 110
7, 15719, Note_on_c, 3, 50, 0
7, 15720, Note_on_c, 3, 62, 110
7, 15779, Note_on_c, 3, 62, 0
7, 15780, Note_on_c, 3, 50, 110
7, 15839, Note_on_c, 3, 50, 0
7, 15840, Note_on_c, 3, 62, 110
7, 16920, Note_on_c, 3, 62, 0
7, 16980, Note_on_c, 3, 64, 110
7, 17009, Note_on_c, 3, 64, 0
7, 17010, Note_on_c, 3, 64, 110
7, 17039, Note_on_c, 3, 64, 0
7, 17040, Note_on_c, 3, 64, 110
7, 17069, Note_on_c, 3, 64, 0
7, 17070, Note_on_c, 3, 64, 110
7, 17099, Note_on_c, 3, 64, 0
7, 17100, Note_on_c, 3, 64, 110
7, 17129, Note_on_c, 3, 64, 0
7, 17130, Note_on_c, 3, 64, 110
7, 17159, Note_on_c, 3, 64, 0
7, 17160, Note_on_c, 3, 64, 110
7, 17189, Note_on_c, 3, 64, 0
7, 17190, Note_on_c, 3, 64, 110
7, 17219, Note_on_c, 3, 64, 0
7, 17220, Note_on_c, 3, 64, 110
7, 17249, Note_on_c, 3, 64, 0
7, 17250, Note_on_c, 3, 64, 110
7, 17279, Note_on_c, 3, 64, 0
7, 17280, Note_on_c, 3, 64, 110
7, 17339, Note_on_c, 3, 64, 0
7, 17340, Note_on_c, 3, 57, 110
7, 17399, Note_on_c, 3, 57, 0
7, 17400, Note_on_c, 3, 57, 110
7, 17459, Note_on_c, 3, 57, 0
7, 17460, Note_on_c, 3, 57, 110
7, 17519, Note_on_c, 3, 57, 0
7, 17520, Note_on_c, 3, 57, 110
7, 17579, Note_on_c, 3, 57, 0
7, 17580, Note_on_c, 3, 57, 110
7, 17639, Note_on_c, 3, 57, 0
7, 17700, Note_on_c, 3, 57, 110
7, 17759, Note_on_c, 3, 57, 0
7, 17760, Note_on_c, 3, 57, 110
7, 17819, Note_on_c, 3, 57, 0
7, 17820, Note_on_c, 3, 57, 110
7, 17879, Note_on_c, 3, 57, 0
7, 17880, Note_on_c, 3, 57, 110
7, 17939, Note_on_c, 3, 57, 0
7, 17940, Note_on_c, 3, 57, 110
7, 17999, Note_on_c, 3, 57, 0
7, 18060, Note_on_c, 3, 54, 110
7, 18119, Note_on_c, 3, 54, 0
7, 18120, Note_on_c, 3, 54, 110
7, 18179, Note_on_c, 3, 54, 0
7, 18180, Note_on_c, 3, 54, 110
7, 18239, Note_on_c, 3, 54, 0
7, 18240, Note_on_c, 3, 54, 110
7, 18299, Note_on_c, 3, 54, 0
7, 18300, Note_on_c, 3, 54, 110
7, 18359, Note_on_c, 3, 54, 0
7, 18480, Note_on_c, 3, 68, 110
7, 18539, Note_on_c, 3, 68, 0
7, 18540, Note_on_c, 3, 64, 110
7, 18599, Note_on_c, 3, 64, 0
7, 18840, Note_on_c, 3, 69, 110
7, 18899, Note_on_c, 3, 69, 0
7, 18900, Note_on_c, 3, 64, 110
7, 18959, Note_on_c, 3, 64, 0
7, 19200, Note_on_c, 3, 68, 110
7, 19259, Note_on_c, 3, 68, 0
7, 19260, Note_on_c, 3, 64, 110
7, 19319, Note_on_c, 3, 64, 0
7, 19500, Note_on_c, 3, 64, 110
7, 19559, Note_on_c, 3, 64, 0
7, 19560, Note_on_c, 3, 64, 110
7, 19619, Note_on_c, 3, 64, 0
7, 19620, Note_on_c, 3, 64, 110
7, 19679, Note_on_c, 3, 64, 0
7, 19680, Note_on_c, 3, 64, 110
7, 19739, Note_on_c, 3, 64, 0
7, 19740, Note_on_c, 3, 66, 110
7, 19769, Note_on_c, 3, 66, 0
7, 19770, Note_on_c, 3, 68, 110
7, 19799, Note_on_c, 3, 68, 0
7, 19800, Note_on_c, 3, 69, 110
7, 19859, Note_on_c, 3, 69, 0
7, 19860, Note_on_c, 3, 57, 110
7, 19919, Note_on_c, 3, 57, 0
7, 19920, Note_on_c, 3, 57, 110
7, 19979, Note_on_c, 3, 57, 0
7, 19980, Note_on_c, 3, 57, 110
7, 20039, Note_on_c, 3, 57, 0
7, 20040, Note_on_c, 3, 57, 110
7, 20099, Note_on_c, 3, 57, 0
7, 20100, Note_on_c, 3, 62, 110
7, 20129, Note_on_c, 3, 62, 0
7, 20130, Note_on_c, 3, 64, 110
7, 20159, Note_on_c, 3, 64, 0
7, 20160, Note_on_c, 3, 66, 110
7, 20219, Note_on_c, 3, 66, 0
7, 20220, Note_on_c, 3, 66, 110
7, 20279, Note_on_c, 3, 66, 0
7, 20280, Note_on_c, 3, 68, 110
7, 20309, Note_on_c, 3, 68, 0
7, 20310, Note_on_c, 3, 69, 110
7, 20339, Note_on_c, 3, 69, 0
7, 20340, Note_on_c, 3, 68, 110
7, 20369, Note_on_c, 3, 68, 0
7, 20370, Note_on_c, 3, 69, 110
7, 20399, Note_on_c, 3, 69, 0
7, 20400, Note_on_c, 3, 71, 110
7, 20459, Note_on_c, 3, 71, 0
7, 20460, Note_on_c, 3, 64, 110
7, 20519, Note_on_c, 3, 64, 0
7, 20520, Note_on_c, 3, 64, 110
7, 20579, Note_on_c, 3, 64, 0
7, 20580, Note_on_c, 3, 64, 110
7, 20609, Note_on_c, 3, 64, 0
7, 20610, Note_on_c, 3, 64, 110
7, 20639, Note_on_c, 3, 64, 0
7, 20640, Note_on_c, 3, 64, 110
7, 20669, Note_on_c, 3, 64, 0
7, 20670, Note_on_c, 3, 64, 110
7, 20699, Note_on_c, 3, 64, 0
7, 20700, Note_on_c, 3, 64, 110
7, 20729, Note_on_c, 3, 64, 0
7, 20730, Note_on_c, 3, 64, 110
7, 20759, Note_on_c, 3, 64, 0
7, 20760, Note_on_c, 3, 64, 110
7, 20789, Note_on_c, 3, 64, 0
7, 20790, Note_on_c, 3, 64, 110
7, 20819, Note_on_c, 3, 64, 0
7, 20820, Note_on_c, 3, 64, 110
7, 20849, Note_on_c, 3, 64, 0
7, 20850, Note_on_c, 3, 64, 110
7, 20879, Note_on_c, 3, 64, 0
7, 20880, Note_on_c, 3, 64, 110
7, 21000, Note_on_c, 3, 64, 0
7, 22380, Note_on_c, 3, 64, 110
7, 22439, Note_on_c, 3, 64, 0
7, 22440, Note_on_c, 3, 64, 110
7, 22499, Note_on_c, 3, 64, 0
7, 22500, Note_on_c, 3, 64, 110
7, 22559, Note_on_c, 3, 64, 0
7, 22560, Note_on_c, 3, 64, 110
7, 22619, Note_on_c, 3, 64, 0
7, 22620, Note_on_c, 3, 66, 110
7, 22649, Note_on_c, 3, 66, 0
7, 22650, Note_on_c, 3, 67, 110
7, 22679, Note_on_c, 3, 67, 0
7, 22680, Note_on_c, 3, 69, 110
7, 22739, Note_on_c, 3, 69, 0
7, 22740, Note_on_c, 3, 57, 110
7, 22769, Note_on_c, 3, 57, 0
7, 22770, Note_on_c, 3, 57, 110
7, 22799, Note_on_c, 3, 57, 0
7, 22800, Note_on_c, 3, 57, 110
7, 22829, Note_on_c, 3, 57, 0
7, 22830, Note_on_c, 3, 57, 110
7, 22859, Note_on_c, 3, 57, 0
7, 22860, Note_on_c, 3, 57, 110
7, 22889, Note_on_c, 3, 57, 0
7, 22890, Note_on_c, 3, 57, 110
7, 22919, Note_on_c, 3, 57, 0
7, 22920, Note_on_c, 3, 57, 110
7, 22949, Note_on_c, 3, 57, 0
7, 22950, Note_on_c, 3, 57, 110
7, 22979, Note_on_c, 3, 57, 0
7, 22980, Note_on_c, 3, 57, 110
7, 23009, Note_on_c, 3, 57, 0
7, 23010, Note_on_c, 3, 57, 110
7, 23039, Note_on_c, 3, 57, 0
7, 23040, Note_on_c, 3, 57, 110
7, 23159, Note_on_c, 3, 57, 0
7, 23280, Note_on_c, 3, 66, 110
7, 23339, Note_on_c, 3, 66, 0
7, 23340, Note_on_c, 3, 66, 110
7, 23399, Note_on_c, 3, 66, 0
7, 23400, Note_on_c, 3, 66, 110
7, 23459, Note_on_c, 3, 66, 0
7, 23460, Note_on_c, 3, 67, 110
7, 23489, Note_on_c, 3, 67, 0
7, 23490, Note_on_c, 3, 66, 110
7, 23519, Note_on_c, 3, 66, 0
7, 23520, Note_on_c, 3, 64, 110
7, 23579, Note_on_c, 3, 64, 0
7, 23580, Note_on_c, 3, 64, 110
7, 23639, Note_on_c, 3, 64, 0
7, 23640, Note_on_c, 3, 64, 110
7, 23699, Note_on_c, 3, 64, 0
7, 23700, Note_on_c, 3, 64, 110
7, 23759, Note_on_c, 3, 64, 0
7, 23760, Note_on_c, 3, 64, 110
7, 23819, Note_on_c, 3, 64, 0
7, 23820, Note_on_c, 3, 66, 110
7, 23849, Note_on_c, 3, 66, 0
7, 23850, Note_on_c, 3, 64, 110
7, 23879, Note_on_c, 3, 64, 0
7, 23880, Note_on_c, 3, 62, 110
7, 23939, Note_on_c, 3, 62, 0
7, 23940, Note_on_c, 3, 62, 110
7, 23999, Note_on_c, 3, 62, 0
7, 24000, Note_on_c, 3, 62, 110
7, 24059, Note_on_c, 3, 62, 0
7, 24060, Note_on_c, 3, 62, 110
7, 24119, Note_on_c, 3, 62, 0
7, 24120, Note_on_c, 3, 62, 110
7, 24179, Note_on_c, 3, 62, 0
7, 24180, Note_on_c, 3, 64, 110
7, 24209, Note_on_c, 3, 64, 0
7, 24210, Note_on_c, 3, 62, 110
7, 24239, Note_on_c, 3, 62, 0
7, 24240, Note_on_c, 3, 57, 110
7, 24299, Note_on_c, 3, 57, 0
7, 24300, Note_on_c, 3, 57, 110
7, 24359, Note_on_c, 3, 57, 0
7, 24360, Note_on_c, 3, 57, 110
7, 24419, Note_on_c, 3, 57, 0
7, 24420, Note_on_c, 3, 57, 110
7, 24479, Note_on_c, 3, 57, 0
7, 24480, Note_on_c, 3, 54, 110
7, 24539, Note_on_c, 3, 54, 0
7, 24540, Note_on_c, 3, 62, 110
7, 24599, Note_on_c, 3, 62, 0
7, 24600, Note_on_c, 3, 62, 110
7, 24659, Note_on_c, 3, 62, 0
7, 24660, Note_on_c, 3, 62, 110
7, 24719, Note_on_c, 3, 62, 0
7, 24720, Note_on_c, 3, 62, 110
7, 24779, Note_on_c, 3, 62, 0
7, 24780, Note_on_c, 3, 62, 110
7, 24839, Note_on_c, 3, 62, 0
7, 24900, Note_on_c, 3, 62, 110
7, 24959, Note_on_c, 3, 62, 0
7, 24960, Note_on_c, 3, 62, 110
7, 25019, Note_on_c, 3, 62, 0
7, 25020, Note_on_c, 3, 62, 110
7, 25079, Note_on_c, 3, 62, 0
7, 25080, Note_on_c, 3, 62, 110
7, 25139, Note_on_c, 3, 62, 0
7, 25140, Note_on_c, 3, 62, 110
7, 25199, Note_on_c, 3, 62, 0
7, 25260, Note_on_c, 3, 64, 110
7, 25319, Note_on_c, 3, 64, 0
7, 25320, Note_on_c, 3, 64, 110
7, 25379, Note_on_c, 3, 64, 0
7, 25380, Note_on_c, 3, 64, 110
7, 25439, Note_on_c, 3, 64, 0
7, 25440, Note_on_c, 3, 64, 110
7, 25499, Note_on_c, 3, 64, 0
7, 25500, Note_on_c, 3, 64, 110
7, 25559, Note_on_c, 3, 64, 0
7, 25560, Note_on_c, 3, 64, 110
7, 25619, Note_on_c, 3, 64, 0
7, 25620, Note_on_c, 3, 57, 110
7, 25679, Note_on_c, 3, 57, 0
7, 25680, Note_on_c, 3, 57, 110
7, 25739, Note_on_c, 3, 57, 0
7, 25740, Note_on_c, 3, 57, 110
7, 25799, Note_on_c, 3, 57, 0
7, 25800, Note_on_c, 3, 57, 110
7, 25859, Note_on_c, 3, 57, 0
7, 25860, Note_on_c, 3, 54, 110
7, 25889, Note_on_c, 3, 54, 0
7, 25890, Note_on_c, 3, 57, 110
7, 25919, Note_on_c, 3, 57, 0
7, 25920, Note_on_c, 3, 62, 110
7, 25979, Note_on_c, 3, 62, 0
7, 25980, Note_on_c, 3, 62, 110
7, 26039, Note_on_c, 3, 62, 0
7, 26040, Note_on_c, 3, 62, 110
7, 26099, Note_on_c, 3, 62, 0
7, 26100, Note_on_c, 3, 62, 110
7, 26159, Note_on_c, 3, 62, 0
7, 26160, Note_on_c, 3, 62, 110
7, 26219, Note_on_c, 3, 62, 0
7, 26220, Note_on_c, 3, 57, 110
7, 26249, Note_on_c, 3, 57, 0
7, 26250, Note_on_c, 3, 62, 110
7, 26279, Note_on_c, 3, 62, 0
7, 26280, Note_on_c, 3, 64, 110
7, 26339, Note_on_c, 3, 64, 0
7, 26340, Note_on_c, 3, 64, 110
7, 26399, Note_on_c, 3, 64, 0
7, 26400, Note_on_c, 3, 64, 110
7, 26459, Note_on_c, 3, 64, 0
7, 26460, Note_on_c, 3, 64, 110
7, 26519, Note_on_c, 3, 64, 0
7, 26520, Note_on_c, 3, 64, 110
7, 26579, Note_on_c, 3, 64, 0
7, 26580, Note_on_c, 3, 62, 110
7, 26609, Note_on_c, 3, 62, 0
7, 26610, Note_on_c, 3, 64, 110
7, 26639, Note_on_c, 3, 64, 0
7, 26640, Note_on_c, 3, 66, 110
7, 27270, Note_on_c, 3, 66, 0
7, 27270, Note_on_c, 3, 67, 110
7, 27299, Note_on_c, 3, 67, 0
7, 27300, Note_on_c, 3, 64, 110
7, 27329, Note_on_c, 3, 64, 0
7, 27330, Note_on_c, 3, 66, 110
7, 27359, Note_on_c, 3, 66, 0
7, 27360, Note_on_c, 3, 67, 110
7, 27419, Note_on_c, 3, 67, 0
7, 27420, Note_on_c, 3, 62, 110
7, 27479, Note_on_c, 3, 62, 0
7, 27480, Note_on_c, 3, 64, 110
7, 27509, Note_on_c, 3, 64, 0
7, 27510, Note_on_c, 3, 66, 110
7, 27539, Note_on_c, 3, 66, 0
7, 27540, Note_on_c, 3, 64, 110
7, 27569, Note_on_c, 3, 64, 0
7, 27570, Note_on_c, 3, 66, 110
7, 27599, Note_on_c, 3, 66, 0
7, 27600, Note_on_c, 3, 67, 110
7, 27629, Note_on_c, 3, 67, 0
7, 27630, Note_on_c, 3, 69, 110
7, 27659, Note_on_c, 3, 69, 0
7, 27660, Note_on_c, 3, 66, 110
7, 27689, Note_on_c, 3, 66, 0
7, 27690, Note_on_c, 3, 67, 110
7, 27719, Note_on_c, 3, 67, 0
7, 27720, Note_on_c, 3, 69, 110
7, 27749, Note_on_c, 3, 69, 0
7, 27750, Note_on_c, 3, 67, 110
7, 27779, Note_on_c, 3, 67, 0
7, 27780, Note_on_c, 3, 66, 110
7, 27809, Note_on_c, 3, 66, 0
7, 27810, Note_on_c, 3, 64, 110
7, 27839, Note_on_c, 3, 64, 0
7, 27840, Note_on_c, 3, 62, 110
7, 27899, Note_on_c, 3, 62, 0
7, 27900, Note_on_c, 3, 57, 110
7, 27959, Note_on_c, 3, 57, 0
7, 27960, Note_on_c, 3, 57, 110
7, 27989, Note_on_c, 3, 57, 0
7, 27990, Note_on_c, 3, 54, 110
7, 28019, Note_on_c, 3, 54, 0
7, 28020, Note_on_c, 3, 57, 110
7, 28079, Note_on_c, 3, 57, 0
7, 28080, Note_on_c, 3, 57, 110
7, 28139, Note_on_c, 3, 57, 0
7, 28140, Note_on_c, 3, 54, 110
7, 28199, Note_on_c, 3, 54, 0
7, 28440, Note_on_c, 3, 62, 110
7, 28499, Note_on_c, 3, 62, 0
7, 28500, Note_on_c, 3, 50, 110
7, 28559, Note_on_c, 3, 50, 0
7, 28800, Note_on_c, 3, 62, 110
7, 28859, Note_on_c, 3, 62, 0
7, 28860, Note_on_c, 3, 57, 110
7, 28919, Note_on_c, 3, 57, 0
7, 29220, Note_on_c, 3, 62, 110
7, 29279, Note_on_c, 3, 62, 0
7, 29280, Note_on_c, 3, 64, 110
7, 29309, Note_on_c, 3, 64, 0
7, 29310, Note_on_c, 3, 66, 110
7, 29339, Note_on_c, 3, 66, 0
7, 29340, Note_on_c, 3, 64, 110
7, 29369, Note_on_c, 3, 64, 0
7, 29370, Note_on_c, 3, 66, 110
7, 29399, Note_on_c, 3, 66, 0
7, 29400, Note_on_c, 3, 67, 110
7, 29429, Note_on_c, 3, 67, 0
7, 29430, Note_on_c, 3, 69, 110
7, 29459, Note_on_c, 3, 69, 0
7, 29460, Note_on_c, 3, 66, 110
7, 29489, Note_on_c, 3, 66, 0
7, 29490, Note_on_c, 3, 67, 110
7, 29519, Note_on_c, 3, 67, 0
7, 29520, Note_on_c, 3, 69, 110
7, 29549, Note_on_c, 3, 69, 0
7, 29550, Note_on_c, 3, 67, 110
7, 29579, Note_on_c, 3, 67, 0
7, 29580, Note_on_c, 3, 66, 110
7, 29609, Note_on_c, 3, 66, 0
7, 29610, Note_on_c, 3, 64, 110
7, 29639, Note_on_c, 3, 64, 0
7, 29640, Note_on_c, 3, 64, 110
7, 29699, Note_on_c, 3, 64, 0
7, 29700, Note_on_c, 3, 57, 110
7, 29759, Note_on_c, 3, 57, 0
7, 29760, Note_on_c, 3, 57, 110
7, 29789, Note_on_c, 3, 57, 0
7, 29790, Note_on_c, 3, 54, 110
7, 29819, Note_on_c, 3, 54, 0
7, 29820, Note_on_c, 3, 57, 110
7, 29879, Note_on_c, 3, 57, 0
7, 29880, Note_on_c, 3, 54, 110
7, 29999, Note_on_c, 3, 54, 0
7, 30360, Note_on_c, 3, 69, 110
7, 30419, Note_on_c, 3, 69, 0
7, 30420, Note_on_c, 3, 57, 110
7, 30479, Note_on_c, 3, 57, 0
7, 30480, Note_on_c, 3, 57, 110
7, 30539, Note_on_c, 3, 57, 0
7, 30540, Note_on_c, 3, 57, 110
7, 30599, Note_on_c, 3, 57, 0
7, 30600, Note_on_c, 3, 64, 110
7, 30720, Note_on_c, 3, 64, 0
7, 31080, Note_on_c, 3, 62, 110
7, 31139, Note_on_c, 3, 62, 0
7, 31140, Note_on_c, 3, 54, 110
7, 31199, Note_on_c, 3, 54, 0
7, 31200, Note_on_c, 3, 54, 110
7, 31259, Note_on_c, 3, 54, 0
7, 31260, Note_on_c, 3, 54, 110
7, 31319, Note_on_c, 3, 54, 0
7, 31920, Note_on_c, 3, 66, 110
7, 31979, Note_on_c, 3, 66, 0
7, 31980, Note_on_c, 3, 54, 110
7, 32039, Note_on_c, 3, 54, 0
7, 32040, Note_on_c, 3, 54, 110
7, 32099, Note_on_c, 3, 54, 0
7, 32100, Note_on_c, 3, 54, 110
7, 32159, Note_on_c, 3, 54, 0
7, 32160, Note_on_c, 3, 54, 110
7, 32219, Note_on_c, 3, 54, 0
7, 32220, Note_on_c, 3, 54, 110
7, 32279, Note_on_c, 3, 54, 0
7, 32280, Note_on_c, 3, 66, 110
7, 32339, Note_on_c, 3, 66, 0
7, 32340, Note_on_c, 3, 54, 110
7, 32399, Note_on_c, 3, 54, 0
7, 32400, Note_on_c, 3, 54, 110
7, 32459, Note_on_c, 3, 54, 0
7, 32460, Note_on_c, 3, 54, 110
7, 32519, Note_on_c, 3, 54, 0
7, 32520, Note_on_c, 3, 54, 110
7, 32579, Note_on_c, 3, 54, 0
7, 32580, Note_on_c, 3, 54, 110
7, 32639, Note_on_c, 3, 54, 0
7, 32640, Note_on_c, 3, 66, 110
7, 32699, Note_on_c, 3, 66, 0
7, 32700, Note_on_c, 3, 54, 110
7, 32759, Note_on_c, 3, 54, 0
7, 32760, Note_on_c, 3, 54, 110
7, 32879, Note_on_c, 3, 54, 0
7, 36480, Note_on_c, 3, 66, 110
7, 36539, Note_on_c, 3, 66, 0
7, 36540, Note_on_c, 3, 54, 110
7, 36599, Note_on_c, 3, 54, 0
7, 36600, Note_on_c, 3, 54, 110
7, 36659, Note_on_c, 3, 54, 0
7, 36660, Note_on_c, 3, 54, 110
7, 36719, Note_on_c, 3, 54, 0
7, 36720, Note_on_c, 3, 54, 110
7, 36779, Note_on_c, 3, 54, 0
7, 36780, Note_on_c, 3, 54, 110
7, 36839, Note_on_c, 3, 54, 0
7, 36840, Note_on_c, 3, 66, 110
7, 36899, Note_on_c, 3, 66, 0
7, 36900, Note_on_c, 3, 54, 110
7, 36959, Note_on_c, 3, 54, 0
7, 36960, Note_on_c, 3, 54, 110
7, 37019, Note_on_c, 3, 54, 0
7, 37020, Note_on_c, 3, 54, 110
7, 37079, Note_on_c, 3, 54, 0
7, 37080, Note_on_c, 3, 54, 110
7, 37139, Note_on_c, 3, 54, 0
7, 37140, Note_on_c, 3, 54, 110
7, 37199, Note_on_c, 3, 54, 0
7, 37200, Note_on_c, 3, 66, 110
7, 37259, Note_on_c, 3, 66, 0
7, 37260, Note_on_c, 3, 54, 110
7, 37319, Note_on_c, 3, 54, 0
7, 37320, Note_on_c, 3, 54, 110
7, 37379, Note_on_c, 3, 54, 0
7, 37380, Note_on_c, 3, 54, 110
7, 37439, Note_on_c, 3, 54, 0
7, 37440, Note_on_c, 3, 54, 110
7, 37499, Note_on_c, 3, 54, 0
7, 38040, Note_on_c, 3, 71, 110
7, 38099, Note_on_c, 3, 71, 0
7, 38100, Note_on_c, 3, 68, 110
7, 38159, Note_on_c, 3, 68, 0
7, 38400, Note_on_c, 3, 69, 110
7, 38459, Note_on_c, 3, 69, 0
7, 38460, Note_on_c, 3, 66, 110
7, 38519, Note_on_c, 3, 66, 0
7, 38760, Note_on_c, 3, 68, 110
7, 38819, Note_on_c, 3, 68, 0
7, 38820, Note_on_c, 3, 62, 110
7, 38879, Note_on_c, 3, 62, 0
7, 39120, Note_on_c, 3, 66, 110
7, 39179, Note_on_c, 3, 66, 0
7, 39180, Note_on_c, 3, 54, 110
7, 39239, Note_on_c, 3, 54, 0
7, 40200, Note_on_c, 3, 54, 110
7, 40260, Note_on_c, 3, 54, 0
7, 40260, Note_on_c, 3, 50, 110
7, 40320, Note_on_c, 3, 50, 0
7, 40560, Note_on_c, 3, 57, 110
7, 40620, Note_on_c, 3, 57, 0
7, 40620, Note_on_c, 3, 54, 110
7, 40680, Note_on_c, 3, 54, 0
7, 40920, Note_on_c, 3, 62, 110
7, 40980, Note_on_c, 3, 62, 0
7, 40980, Note_on_c, 3, 57, 110
7, 41040, Note_on_c, 3, 57, 0
7, 41280, Note_on_c, 3, 66, 110
7, 41340, Note_on_c, 3, 66, 0
7, 41340, Note_on_c, 3, 62, 110
7, 41400, Note_on_c, 3, 62, 0
7, 41400, Note_on_c, 3, 62, 110
7, 42480, Note_on_c, 3, 62, 0
7, 42540, Note_on_c, 3, 64, 110
7, 42569, Note_on_c, 3, 64, 0
7, 42570, Note_on_c, 3, 64, 110
7, 42599, Note_on_c, 3, 64, 0
7, 42600, Note_on_c, 3, 64, 110
7, 42629, Note_on_c, 3, 64, 0
7, 42630, Note_on_c, 3, 64, 110
7, 42659, Note_on_c, 3, 64, 0
7, 42660, Note_on_c, 3, 64, 110
7, 42689, Note_on_c, 3, 64, 0
7, 42690, Note_on_c, 3, 64, 110
7, 42719, Note_on_c, 3, 64, 0
7, 42720, Note_on_c, 3, 64, 110
7, 42749, Note_on_c, 3, 64, 0
7, 42750, Note_on_c, 3, 64, 110
7, 42779, Note_on_c, 3, 64, 0
7, 42780, Note_on_c, 3, 64, 110
7, 42809, Note_on_c, 3, 64, 0
7, 42810, Note_on_c, 3, 64, 110
7, 42839, Note_on_c, 3, 64, 0
7, 42840, Note_on_c, 3, 64, 110
7, 42959, Note_on_c, 3, 64, 0
7, 44340, Note_on_c, 3, 64, 110
7, 44399, Note_on_c, 3, 64, 0
7, 44400, Note_on_c, 3, 64, 110
7, 44459, Note_on_c, 3, 64, 0
7, 44460, Note_on_c, 3, 64, 110
7, 44519, Note_on_c, 3, 64, 0
7, 44520, Note_on_c, 3, 64, 110
7, 44579, Note_on_c, 3, 64, 0
7, 44580, Note_on_c, 3, 66, 110
7, 44609, Note_on_c, 3, 66, 0
7, 44610, Note_on_c, 3, 67, 110
7, 44639, Note_on_c, 3, 67, 0
7, 44640, Note_on_c, 3, 69, 110
7, 44699, Note_on_c, 3, 69, 0
7, 44700, Note_on_c, 3, 57, 110
7, 44729, Note_on_c, 3, 57, 0
7, 44730, Note_on_c, 3, 57, 110
7, 44759, Note_on_c, 3, 57, 0
7, 44760, Note_on_c, 3, 57, 110
7, 44789, Note_on_c, 3, 57, 0
7, 44790, Note_on_c, 3, 57, 110
7, 44819, Note_on_c, 3, 57, 0
7, 44820, Note_on_c, 3, 57, 110
7, 44849, Note_on_c, 3, 57, 0
7, 44850, Note_on_c, 3, 57, 110
7, 44879, Note_on_c, 3, 57, 0
7, 44880, Note_on_c, 3, 57, 110
7, 44909, Note_on_c, 3, 57, 0
7, 44910, Note_on_c, 3, 57, 110
7, 44939, Note_on_c, 3, 57, 0
7, 44940, Note_on_c, 3, 57, 110
7, 44969, Note_on_c, 3, 57, 0
7, 44970, Note_on_c, 3, 57, 110
7, 44999, Note_on_c, 3, 57, 0
7, 45000, Note_on_c, 3, 57, 110
7, 45119, Note_on_c, 3, 57, 0
7, 45240, Note_on_c, 3, 66, 110
7, 45299, Note_on_c, 3, 66, 0
7, 45300, Note_on_c, 3, 66, 110
7, 45359, Note_on_c, 3, 66, 0
7, 45360, Note_on_c, 3, 66, 110
7, 45419, Note_on_c, 3, 66, 0
7, 45420, Note_on_c, 3, 67, 110
7, 45449, Note_on_c, 3, 67, 0
7, 45450, Note_on_c, 3, 66, 110
7, 45479, Note_on_c, 3, 66, 0
7, 45480, Note_on_c, 3, 64, 110
7, 45539, Note_on_c, 3, 64, 0
7, 45540, Note_on_c, 3, 64, 110
7, 45599, Note_on_c, 3, 64, 0
7, 45600, Note_on_c, 3, 64, 110
7, 45659, Note_on_c, 3, 64, 0
7, 45660, Note_on_c, 3, 64, 110
7, 45719, Note_on_c, 3, 64, 0
7, 45720, Note_on_c, 3, 64, 110
7, 45779, Note_on_c, 3, 64, 0
7, 45780, Note_on_c, 3, 66, 110
7, 45809, Note_on_c, 3, 66, 0
7, 45810, Note_on_c, 3, 64, 110
7, 45839, Note_on_c, 3, 64, 0
7, 45840, Note_on_c, 3, 62, 110
7, 45899, Note_on_c, 3, 62, 0
7, 45900, Note_on_c, 3, 62, 110
7, 45959, Note_on_c, 3, 62, 0
7, 45960, Note_on_c, 3, 62, 110
7, 46019, Note_on_c, 3, 62, 0
7, 46020, Note_on_c, 3, 62, 110
7, 46079, Note_on_c, 3, 62, 0
7, 46080, Note_on_c, 3, 62, 110
7, 46139, Note_on_c, 3, 62, 0
7, 46140, Note_on_c, 3, 64, 110
7, 46169, Note_on_c, 3, 64, 0
7, 46170, Note_on_c, 3, 62, 110
7, 46199, Note_on_c, 3, 62, 0
7, 46200, Note_on_c, 3, 57, 110
7, 46259, Note_on_c, 3, 57, 0
7, 46260, Note_on_c, 3, 57, 110
7, 46319, Note_on_c, 3, 57, 0
7, 46320, Note_on_c, 3, 57, 110
7, 46379, Note_on_c, 3, 57, 0
7, 46380, Note_on_c, 3, 57, 110
7, 46439, Note_on_c, 3, 57, 0
7, 46440, Note_on_c, 3, 57, 110
7, 46499, Note_on_c, 3, 57, 0
7, 46500, Note_on_c, 3, 62, 110
7, 46559, Note_on_c, 3, 62, 0
7, 46560, Note_on_c, 3, 62, 110
7, 46619, Note_on_c, 3, 62, 0
7, 46620, Note_on_c, 3, 62, 110
7, 46679, Note_on_c, 3, 62, 0
7, 46680, Note_on_c, 3, 62, 110
7, 46739, Note_on_c, 3, 62, 0
7, 46740, Note_on_c, 3, 62, 110
7, 46799, Note_on_c, 3, 62, 0
7, 46860, Note_on_c, 3, 62, 110
7, 46919, Note_on_c, 3, 62, 0
7, 46920, Note_on_c, 3, 62, 110
7, 46979, Note_on_c, 3, 62, 0
7, 46980, Note_on_c, 3, 62, 110
7, 47039, Note_on_c, 3, 62, 0
7, 47040, Note_on_c, 3, 62, 110
7, 47099, Note_on_c, 3, 62, 0
7, 47100, Note_on_c, 3, 62, 110
7, 47159, Note_on_c, 3, 62, 0
7, 47220, Note_on_c, 3, 64, 110
7, 47279, Note_on_c, 3, 64, 0
7, 47280, Note_on_c, 3, 64, 110
7, 47339, Note_on_c, 3, 64, 0
7, 47340, Note_on_c, 3, 64, 110
7, 47399, Note_on_c, 3, 64, 0
7, 47400, Note_on_c, 3, 64, 110
7, 47459, Note_on_c, 3, 64, 0
7, 47460, Note_on_c, 3, 64, 110
7, 47519, Note_on_c, 3, 64, 0
7, 47520, Note_on_c, 3, 64, 110
7, 47579, Note_on_c, 3, 64, 0
7, 47580, Note_on_c, 3, 57, 110
7, 47639, Note_on_c, 3, 57, 0
7, 47640, Note_on_c, 3, 57, 110
7, 47699, Note_on_c, 3, 57, 0
7, 47700, Note_on_c, 3, 57, 110
7, 47759, Note_on_c, 3, 57, 0
7, 47760, Note_on_c, 3, 57, 110
7, 47819, Note_on_c, 3, 57, 0
7, 47820, Note_on_c, 3, 54, 110
7, 47849, Note_on_c, 3, 54, 0
7, 47850, Note_on_c, 3, 57, 110
7, 47879, Note_on_c, 3, 57, 0
7, 47880, Note_on_c, 3, 62, 110
7, 47939, Note_on_c, 3, 62, 0
7, 47940, Note_on_c, 3, 62, 110
7, 47999, Note_on_c, 3, 62, 0
7, 48000, Note_on_c, 3, 62, 110
7, 48059, Note_on_c, 3, 62, 0
7, 48060, Note_on_c, 3, 62, 110
7, 48119, Note_on_c, 3, 62, 0
7, 48120, Note_on_c, 3, 62, 110
7, 48179, Note_on_c, 3, 62, 0
7, 48180, Note_on_c, 3, 57, 110
7, 48209, Note_on_c, 3, 57, 0
7, 48210, Note_on_c, 3, 62, 110
7, 48239, Note_on_c, 3, 62, 0
7, 48240, Note_on_c, 3, 64, 110
7, 48299, Note_on_c, 3, 64, 0
7, 48300, Note_on_c, 3, 64, 110
7, 48359, Note_on_c, 3, 64, 0
7, 48360, Note_on_c, 3, 64, 110
7, 48419, Note_on_c, 3, 64, 0
7, 48420, Note_on_c, 3, 64, 110
7, 48479, Note_on_c, 3, 64, 0
7, 48480, Note_on_c, 3, 64, 110
7, 48539, Note_on_c, 3, 64, 0
7, 48540, Note_on_c, 3, 62, 110
7, 48569, Note_on_c, 3, 62, 0
7, 48570, Note_on_c, 3, 64, 110
7, 48599, Note_on_c, 3, 64, 0
7, 48600, Note_on_c, 3, 66, 110
7, 49230, Note_on_c, 3, 66, 0
7, 49230, Note_on_c, 3, 67, 110
7, 49259, Note_on_c, 3, 67, 0
7, 49260, Note_on_c, 3, 64, 110
7, 49289, Note_on_c, 3, 64, 0
7, 49290, Note_on_c, 3, 66, 110
7, 49319, Note_on_c, 3, 66, 0
7, 49320, Note_on_c, 3, 67, 110
7, 49379, Note_on_c, 3, 67, 0
7, 49380, Note_on_c, 3, 62, 110
7, 49439, Note_on_c, 3, 62, 0
7, 49440, Note_on_c, 3, 64, 110
7, 49469, Note_on_c, 3, 64, 0
7, 49470, Note_on_c, 3, 66, 110
7, 49499, Note_on_c, 3, 66, 0
7, 49500, Note_on_c, 3, 64, 110
7, 49529, Note_on_c, 3, 64, 0
7, 49530, Note_on_c, 3, 66, 110
7, 49559, Note_on_c, 3, 66, 0
7, 49560, Note_on_c, 3, 67, 110
7, 49589, Note_on_c, 3, 67, 0
7, 49590, Note_on_c, 3, 69, 110
7, 49619, Note_on_c, 3, 69, 0
7, 49620, Note_on_c, 3, 66, 110
7, 49649, Note_on_c, 3, 66, 0
7, 49650, Note_on_c, 3, 67, 110
7, 49679, Note_on_c, 3, 67, 0
7, 49680, Note_on_c, 3, 69, 110
7, 49709, Note_on_c, 3, 69, 0
7, 49710, Note_on_c, 3, 67, 110
7, 49739, Note_on_c, 3, 67, 0
7, 49740, Note_on_c, 3, 66, 110
7, 49769, Note_on_c, 3, 66, 0
7, 49770, Note_on_c, 3, 64, 110
7, 49799, Note_on_c, 3, 64, 0
7, 49800, Note_on_c, 3, 62, 110
7, 49859, Note_on_c, 3, 62, 0
7, 49860, Note_on_c, 3, 57, 110
7, 49919, Note_on_c, 3, 57, 0
7, 49920, Note_on_c, 3, 57, 110
7, 49949, Note_on_c, 3, 57, 0
7, 49950, Note_on_c, 3, 54, 110
7, 49979, Note_on_c, 3, 54, 0
7, 49980, Note_on_c, 3, 57, 110
7, 50039, Note_on_c, 3, 57, 0
7, 50040, Note_on_c, 3, 54, 110
7, 50160, Note_on_c, 3, 54, 0
7, 50160, Note_on_c, 3, 62, 110
7, 50219, Note_on_c, 3, 62, 0
7, 50220, Note_on_c, 3, 50, 110
7, 50279, Note_on_c, 3, 50, 0
7, 50280, Note_on_c, 3, 50, 110
7, 50339, Note_on_c, 3, 50, 0
7, 50340, Note_on_c, 3, 50, 110
7, 50399, Note_on_c, 3, 50, 0
7, 50400, Note_on_c, 3, 50, 110
7, 50459, Note_on_c, 3, 50, 0
7, 50460, Note_on_c, 3, 50, 110
7, 50519, Note_on_c, 3, 50, 0
7, 50520, Note_on_c, 3, 62, 110
7, 50579, Note_on_c, 3, 62, 0
7, 50580, Note_on_c, 3, 50, 110
7, 50639, Note_on_c, 3, 50, 0
7, 50640, Note_on_c, 3, 50, 110
7, 50699, Note_on_c, 3, 50, 0
7, 50700, Note_on_c, 3, 50, 110
7, 50759, Note_on_c, 3, 50, 0
7, 50760, Note_on_c, 3, 50, 110
7, 50819, Note_on_c, 3, 50, 0
7, 50820, Note_on_c, 3, 50, 110
7, 50879, Note_on_c, 3, 50, 0
7, 50880, Note_on_c, 3, 62, 110
7, 50939, Note_on_c, 3, 62, 0
7, 50940, Note_on_c, 3, 50, 110
7, 50999, Note_on_c, 3, 50, 0
7, 51000, Note_on_c, 3, 50, 110
7, 51059, Note_on_c, 3, 50, 0
7, 51060, Note_on_c, 3, 50, 110
7, 51119, Note_on_c, 3, 50, 0
7, 51120, Note_on_c, 3, 50, 110
7, 51179, Note_on_c, 3, 50, 0
7, 51180, Note_on_c, 3, 50, 110
7, 51239, Note_on_c, 3, 50, 0
7, 51240, Note_on_c, 3, 62, 110
7, 51299, Note_on_c, 3, 62, 0
7, 51300, Note_on_c, 3, 50, 110
7, 51359, Note_on_c, 3, 50, 0
7, 51360, Note_on_c, 3, 50, 110
7, 51419, Note_on_c, 3, 50, 0
7, 51420, Note_on_c, 3, 50, 110
7, 51479, Note_on_c, 3, 50, 0
7, 51480, Note_on_c, 3, 50, 110
7, 51539, Note_on_c, 3, 50, 0
7, 51540, Note_on_c, 3, 57, 110
7, 51599, Note_on_c, 3, 57, 0
7, 51600, Note_on_c, 3, 57, 110
7, 51659, Note_on_c, 3, 57, 0
7, 51660, Note_on_c, 3, 62, 110
7, 51719, Note_on_c, 3, 62, 0
7, 51720, Note_on_c, 3, 66, 110
7, 51779, Note_on_c, 3, 66, 0
7, 51780, Note_on_c, 3, 64, 110
7, 51809, Note_on_c, 3, 64, 0
7, 51810, Note_on_c, 3, 62, 110
7, 51839, Note_on_c, 3, 62, 0
7, 51840, Note_on_c, 3, 57, 110
7, 51899, Note_on_c, 3, 57, 0
7, 51900, Note_on_c, 3, 57, 110
7, 51959, Note_on_c, 3, 57, 0
7, 51960, Note_on_c, 3, 57, 110
7, 52019, Note_on_c, 3, 57, 0
7, 52020, Note_on_c, 3, 57, 110
7, 52079, Note_on_c, 3, 57, 0
7, 52080, Note_on_c, 3, 57, 110
7, 52139, Note_on_c, 3, 57, 0
7, 52140, Note_on_c, 3, 54, 110
7, 52169, Note_on_c, 3, 54, 0
7, 52170, Note_on_c, 3, 57, 110
7, 52199, Note_on_c, 3, 57, 0
7, 52200, Note_on_c, 3, 62, 110
7, 52259, Note_on_c, 3, 62, 0
7, 52260, Note_on_c, 3, 62, 110
7, 52319, Note_on_c, 3, 62, 0
7, 52320, Note_on_c, 3, 62, 110
7, 52379, Note_on_c, 3, 62, 0
7, 52380, Note_on_c, 3, 62, 110
7, 52439, Note_on_c, 3, 62, 0
7, 52440, Note_on_c, 3, 62, 110
7, 52499, Note_on_c, 3, 62, 0
7, 52500, Note_on_c, 3, 57, 110
7, 52529, Note_on_c, 3, 57, 0
7, 52530, Note_on_c, 3, 62, 110
7, 52559, Note_on_c, 3, 62, 0
7, 52560, Note_on_c, 3, 64, 110
7, 52619, Note_on_c, 3, 64, 0
7, 52620, Note_on_c, 3, 64, 110
7, 52679, Note_on_c, 3, 64, 0
7, 52680, Note_on_c, 3, 64, 110
7, 52739, Note_on_c, 3, 64, 0
7, 52740, Note_on_c, 3, 64, 110
7, 52799, Note_on_c, 3, 64, 0
7, 52800, Note_on_c, 3, 64, 110
7, 52859, Note_on_c, 3, 64, 0
7, 52860, Note_on_c, 3, 62, 110
7, 52889, Note_on_c, 3, 62, 0
7, 52890, Note_on_c, 3, 64, 110
7, 52919, Note_on_c, 3, 64, 0
7, 52920, Note_on_c, 3, 66, 110
7, 53550, Note_on_c, 3, 66, 0
7, 53550, Note_on_c, 3, 67, 110
7, 53579, Note_on_c, 3, 67, 0
7, 53580, Note_on_c, 3, 64, 110
7, 53609, Note_on_c, 3, 64, 0
7, 53610, Note_on_c, 3, 66, 110
7, 53639, Note_on_c, 3, 66, 0
7, 53640, Note_on_c, 3, 67, 110
7, 53699, Note_on_c, 3, 67, 0
7, 53700, Note_on_c, 3, 62, 110
7, 53759, Note_on_c, 3, 62, 0
7, 53760, Note_on_c, 3, 64, 110
7, 53789, Note_on_c, 3, 64, 0
7, 53790, Note_on_c, 3, 66, 110
7, 53819, Note_on_c, 3, 66, 0
7, 53820, Note_on_c, 3, 64, 110
7, 53849, Note_on_c, 3, 64, 0
7, 53850, Note_on_c, 3, 66, 110
7, 53879, Note_on_c, 3, 66, 0
7, 53880, Note_on_c, 3, 67, 110
7, 53909, Note_on_c, 3, 67, 0
7, 53910, Note_on_c, 3, 69, 110
7, 53939, Note_on_c, 3, 69, 0
7, 53940, Note_on_c, 3, 66, 110
7, 53969, Note_on_c, 3, 66, 0
7, 53970, Note_on_c, 3, 67, 110
7, 53999, Note_on_c, 3, 67, 0
7, 54000, Note_on_c, 3, 69, 110
7, 54029, Note_on_c, 3, 69, 0
7, 54030, Note_on_c, 3, 67, 110
7, 54059, Note_on_c, 3, 67, 0
7, 54060, Note_on_c, 3, 66, 110
7, 54089, Note_on_c, 3, 66, 0
7, 54090, Note_on_c, 3, 64, 110
7, 54119, Note_on_c, 3, 64, 0
7, 54120, Note_on_c, 3, 62, 110
7, 54179, Note_on_c, 3, 62, 0
7, 54180, Note_on_c, 3, 57, 110
7, 54239, Note_on_c, 3, 57, 0
7, 54240, Note_on_c, 3, 57, 110
7, 54269, Note_on_c, 3, 57, 0
7, 54270, Note_on_c, 3, 54, 110
7, 54299, Note_on_c, 3, 54, 0
7, 54300, Note_on_c, 3, 57, 110
7, 54359, Note_on_c, 3, 57, 0
7, 54360, Note_on_c, 3, 54, 110
7, 54479, Note_on_c, 3, 54, 0
7, 54600, Note_on_c, 3, 62, 110
7, 54659, Note_on_c, 3, 62, 0
7, 54660, Note_on_c, 3, 50, 110
7, 54719, Note_on_c, 3, 50, 0
7, 54720, Note_on_c, 3, 50, 110
7, 54779, Note_on_c, 3, 50, 0
7, 54780, Note_on_c, 3, 50, 110
7, 54839, Note_on_c, 3, 50, 0
7, 54840, Note_on_c, 3, 50, 110
7, 54899, Note_on_c, 3, 50, 0
7, 54900, Note_on_c, 3, 50, 110
7, 54959, Note_on_c, 3, 50, 0
7, 54960, Note_on_c, 3, 62, 110
7, 55019, Note_on_c, 3, 62, 0
7, 55020, Note_on_c, 3, 50, 110
7, 55079, Note_on_c, 3, 50, 0
7, 55080, Note_on_c, 3, 50, 110
7, 55139, Note_on_c, 3, 50, 0
7, 55140, Note_on_c, 3, 50, 110
7, 55199, Note_on_c, 3, 50, 0
7, 55200, Note_on_c, 3, 50, 110
7, 55259, Note_on_c, 3, 50, 0
7, 55260, Note_on_c, 3, 50, 110
7, 55319, Note_on_c, 3, 50, 0
7, 55320, Note_on_c, 3, 62, 110
7, 55379, Note_on_c, 3, 62, 0
7, 55380, Note_on_c, 3, 50, 110
7, 55439, Note_on_c, 3, 50, 0
7, 55440, Note_on_c, 3, 50, 110
7, 55499, Note_on_c, 3, 50, 0
7, 55500, Note_on_c, 3, 50, 110
7, 55559, Note_on_c, 3, 50, 0
7, 55560, Note_on_c, 3, 50, 110
7, 55619, Note_on_c, 3, 50, 0
7, 55620, Note_on_c, 3, 50, 110
7, 55679, Note_on_c, 3, 50, 0
7, 55680, Note_on_c, 3, 62, 110
7, 55739, Note_on_c, 3, 62, 0
7, 55740, Note_on_c, 3, 50, 110
7, 55799, Note_on_c, 3, 50, 0
7, 55800, Note_on_c, 3, 62, 110
7, 56880, Note_on_c, 3, 62, 0
7, 56940, Note_on_c, 3, 64, 110
7, 56969, Note_on_c, 3, 64, 0
7, 56970, Note_on_c, 3, 64, 110
7, 56999, Note_on_c, 3, 64, 0
7, 57000, Note_on_c, 3, 64, 110
7, 57029, Note_on_c, 3, 64, 0
7, 57030, Note_on_c, 3, 64, 110
7, 57059, Note_on_c, 3, 64, 0
7, 57060, Note_on_c, 3, 64, 110
7, 57089, Note_on_c, 3, 64, 0
7, 57090, Note_on_c, 3, 64, 110
7, 57119, Note_on_c, 3, 64, 0
7, 57120, Note_on_c, 3, 64, 110
7, 57149, Note_on_c, 3, 64, 0
7, 57150, Note_on_c, 3, 64, 110
7, 57179, Note_on_c, 3, 64, 0
7, 57180, Note_on_c, 3, 64, 110
7, 57209, Note_on_c, 3, 64, 0
7, 57210, Note_on_c, 3, 64, 110
7, 57239, Note_on_c, 3, 64, 0
7, 57240, Note_on_c, 3, 64, 110
7, 57299, Note_on_c, 3, 64, 0
7, 57300, Note_on_c, 3, 57, 110
7, 57359, Note_on_c, 3, 57, 0
7, 57360, Note_on_c, 3, 57, 110
7, 57419, Note_on_c, 3, 57, 0
7, 57420, Note_on_c, 3, 57, 110
7, 57479, Note_on_c, 3, 57, 0
7, 57480, Note_on_c, 3, 57, 110
7, 57539, Note_on_c, 3, 57, 0
7, 57540, Note_on_c, 3, 57, 110
7, 57599, Note_on_c, 3, 57, 0
7, 57660, Note_on_c, 3, 57, 110
7, 57719, Note_on_c, 3, 57, 0
7, 57720, Note_on_c, 3, 57, 110
7, 57779, Note_on_c, 3, 57, 0
7, 57780, Note_on_c, 3, 57, 110
7, 57839, Note_on_c, 3, 57, 0
7, 57840, Note_on_c, 3, 57, 110
7, 57899, Note_on_c, 3, 57, 0
7, 57900, Note_on_c, 3, 57, 110
7, 57959, Note_on_c, 3, 57, 0
7, 58020, Note_on_c, 3, 54, 110
7, 58079, Note_on_c, 3, 54, 0
7, 58080, Note_on_c, 3, 54, 110
7, 58139, Note_on_c, 3, 54, 0
7, 58140, Note_on_c, 3, 54, 110
7, 58199, Note_on_c, 3, 54, 0
7, 58200, Note_on_c, 3, 54, 110
7, 58259, Note_on_c, 3, 54, 0
7, 58260, Note_on_c, 3, 54, 110
7, 58319, Note_on_c, 3, 54, 0
7, 58440, Note_on_c, 3, 68, 110
7, 58499, Note_on_c, 3, 68, 0
7, 58500, Note_on_c, 3, 64, 110
7, 58559, Note_on_c, 3, 64, 0
7, 58800, Note_on_c, 3, 69, 110
7, 58859, Note_on_c, 3, 69, 0
7, 58860, Note_on_c, 3, 64, 110
7, 58919, Note_on_c, 3, 64, 0
7, 59160, Note_on_c, 3, 68, 110
7, 59219, Note_on_c, 3, 68, 0
7, 59220, Note_on_c, 3, 64, 110
7, 59279, Note_on_c, 3, 64, 0
7, 59460, Note_on_c, 3, 64, 110
7, 59519, Note_on_c, 3, 64, 0
7, 59520, Note_on_c, 3, 64, 110
7, 59579, Note_on_c, 3, 64, 0
7, 59580, Note_on_c, 3, 64, 110
7, 59639, Note_on_c, 3, 64, 0
7, 59640, Note_on_c, 3, 64, 110
7, 59699, Note_on_c, 3, 64, 0
7, 59700, Note_on_c, 3, 66, 110
7, 59729, Note_on_c, 3, 66, 0
7, 59730, Note_on_c, 3, 68, 110
7, 59759, Note_on_c, 3, 68, 0
7, 59760, Note_on_c, 3, 69, 110
7, 59819, Note_on_c, 3, 69, 0
7, 59820, Note_on_c, 3, 57, 110
7, 59879, Note_on_c, 3, 57, 0
7, 59880, Note_on_c, 3, 57, 110
7, 59939, Note_on_c, 3, 57, 0
7, 59940, Note_on_c, 3, 57, 110
7, 59999, Note_on_c, 3, 57, 0
7, 60000, Note_on_c, 3, 57, 110
7, 60059, Note_on_c, 3, 57, 0
7, 60060, Note_on_c, 3, 62, 110
7, 60089, Note_on_c, 3, 62, 0
7, 60090, Note_on_c, 3, 64, 110
7, 60119, Note_on_c, 3, 64, 0
7, 60120, Note_on_c, 3, 66, 110
7, 60179, Note_on_c, 3, 66, 0
7, 60180, Note_on_c, 3, 66, 110
7, 60239, Note_on_c, 3, 66, 0
7, 60240, Note_on_c, 3, 68, 110
7, 60269, Note_on_c, 3, 68, 0
7, 60270, Note_on_c, 3, 69, 110
7, 60299, Note_on_c, 3, 69, 0
7, 60300, Note_on_c, 3, 68, 110
7, 60329, Note_on_c, 3, 68, 0
7, 60330, Note_on_c, 3, 69, 110
7, 60359, Note_on_c, 3, 69, 0
7, 60360, Note_on_c, 3, 71, 110
7, 60419, Note_on_c, 3, 71, 0
7, 60420, Note_on_c, 3, 64, 110
7, 60479, Note_on_c, 3, 64, 0
7, 60480, Note_on_c, 3, 64, 110
7, 60539, Note_on_c, 3, 64, 0
7, 60540, Note_on_c, 3, 64, 110
7, 60569, Note_on_c, 3, 64, 0
7, 60570, Note_on_c, 3, 64, 110
7, 60599, Note_on_c, 3, 64, 0
7, 60600, Note_on_c, 3, 64, 110
7, 60629, Note_on_c, 3, 64, 0
7, 60630, Note_on_c, 3, 64, 110
7, 60659, Note_on_c, 3, 64, 0
7, 60660, Note_on_c, 3, 64, 110
7, 60689, Note_on_c, 3, 64, 0
7, 60690, Note_on_c, 3, 64, 110
7, 60719, Note_on_c, 3, 64, 0
7, 60720, Note_on_c, 3, 64, 110
7, 60749, Note_on_c, 3, 64, 0
7, 60750, Note_on_c, 3, 64, 110
7, 60779, Note_on_c, 3, 64, 0
7, 60780, Note_on_c, 3, 64, 110
7, 60809, Note_on_c, 3, 64, 0
7, 60810, Note_on_c, 3, 64, 110
7, 60839, Note_on_c, 3, 64, 0
7, 60840, Note_on_c, 3, 64, 110
7, 60960, Note_on_c, 3, 64, 0
7, 62340, Note_on_c, 3, 64, 110
7, 62399, Note_on_c, 3, 64, 0
7, 62400, Note_on_c, 3, 64, 110
7, 62459, Note_on_c, 3, 64, 0
7, 62460, Note_on_c, 3, 64, 110
7, 62519, Note_on_c, 3, 64, 0
7, 62520, Note_on_c, 3, 64, 110
7, 62579, Note_on_c, 3, 64, 0
7, 62580, Note_on_c, 3, 66, 110
7, 62609, Note_on_c, 3, 66, 0
7, 62610, Note_on_c, 3, 67, 110
7, 62639, Note_on_c, 3, 67, 0
7, 62640, Note_on_c, 3, 69, 110
7, 62699, Note_on_c, 3, 69, 0
7, 62700, Note_on_c, 3, 57, 110
7, 62729, Note_on_c, 3, 57, 0
7, 62730, Note_on_c, 3, 57, 110
7, 62759, Note_on_c, 3, 57, 0
7, 62760, Note_on_c, 3, 57, 110
7, 62789, Note_on_c, 3, 57, 0
7, 62790, Note_on_c, 3, 57, 110
7, 62819, Note_on_c, 3, 57, 0
7, 62820, Note_on_c, 3, 57, 110
7, 62849, Note_on_c, 3, 57, 0
7, 62850, Note_on_c, 3, 57, 110
7, 62879, Note_on_c, 3, 57, 0
7, 62880, Note_on_c, 3, 57, 110
7, 62909, Note_on_c, 3, 57, 0
7, 62910, Note_on_c, 3, 57, 110
7, 62939, Note_on_c, 3, 57, 0
7, 62940, Note_on_c, 3, 57, 110
7, 62969, Note_on_c, 3, 57, 0
7, 62970, Note_on_c, 3, 57, 110
7, 62999, Note_on_c, 3, 57, 0
7, 63000, Note_on_c, 3, 57, 110
7, 63119, Note_on_c, 3, 57, 0
7, 63240, Note_on_c, 3, 66, 110
7, 63299, Note_on_c, 3, 66, 0
7, 63300, Note_on_c, 3, 66, 110
7, 63359, Note_on_c, 3, 66, 0
7, 63360, Note_on_c, 3, 66, 110
7, 63419, Note_on_c, 3, 66, 0
7, 63420, Note_on_c, 3, 67, 110
7, 63449, Note_on_c, 3, 67, 0
7, 63450, Note_on_c, 3, 66, 110
7, 63479, Note_on_c, 3, 66, 0
7, 63480, Note_on_c, 3, 64, 110
7, 63539, Note_on_c, 3, 64, 0
7, 63540, Note_on_c, 3, 64, 110
7, 63599, Note_on_c, 3, 64, 0
7, 63600, Note_on_c, 3, 64, 110
7, 63659, Note_on_c, 3, 64, 0
7, 63660, Note_on_c, 3, 64, 110
7, 63719, Note_on_c, 3, 64, 0
7, 63720, Note_on_c, 3, 64, 110
7, 63779, Note_on_c, 3, 64, 0
7, 63780, Note_on_c, 3, 66, 110
7, 63809, Note_on_c, 3, 66, 0
7, 63810, Note_on_c, 3, 64, 110
7, 63839, Note_on_c, 3, 64, 0
7, 63840, Note_on_c, 3, 62, 110
7, 63899, Note_on_c, 3, 62, 0
7, 63900, Note_on_c, 3, 62, 110
7, 63959, Note_on_c, 3, 62, 0
7, 63960, Note_on_c, 3, 62, 110
7, 64019, Note_on_c, 3, 62, 0
7, 64020, Note_on_c, 3, 62, 110
7, 64079, Note_on_c, 3, 62, 0
7, 64080, Note_on_c, 3, 62, 110
7, 64139, Note_on_c, 3, 62, 0
7, 64140, Note_on_c, 3, 64, 110
7, 64169, Note_on_c, 3, 64, 0
7, 64170, Note_on_c, 3, 62, 110
7, 64199, Note_on_c, 3, 62, 0
7, 64200, Note_on_c, 3, 57, 110
7, 64259, Note_on_c, 3, 57, 0
7, 64260, Note_on_c, 3, 57, 110
7, 64319, Note_on_c, 3, 57, 0
7, 64320, Note_on_c, 3, 57, 110
7, 64379, Note_on_c, 3, 57, 0
7, 64380, Note_on_c, 3, 57, 110
7, 64439, Note_on_c, 3, 57, 0
7, 64440, Note_on_c, 3, 54, 110
7, 64499, Note_on_c, 3, 54, 0
7, 64500, Note_on_c, 3, 62, 110
7, 64559, Note_on_c, 3, 62, 0
7, 64560, Note_on_c, 3, 62, 110
7, 64619, Note_on_c, 3, 62, 0
7, 64620, Note_on_c, 3, 62, 110
7, 64679, Note_on_c, 3, 62, 0
7, 64680, Note_on_c, 3, 62, 110
7, 64739, Note_on_c, 3, 62, 0
7, 64740, Note_on_c, 3, 62, 110
7, 64799, Note_on_c, 3, 62, 0
7, 64860, Note_on_c, 3, 62, 110
7, 64919, Note_on_c, 3, 62, 0
7, 64920, Note_on_c, 3, 62, 110
7, 64979, Note_on_c, 3, 62, 0
7, 64980, Note_on_c, 3, 62, 110
7, 65039, Note_on_c, 3, 62, 0
7, 65040, Note_on_c, 3, 62, 110
7, 65099, Note_on_c, 3, 62, 0
7, 65100, Note_on_c, 3, 62, 110
7, 65159, Note_on_c, 3, 62, 0
7, 65220, Note_on_c, 3, 64, 110
7, 65279, Note_on_c, 3, 64, 0
7, 65280, Note_on_c, 3, 64, 110
7, 65339, Note_on_c, 3, 64, 0
7, 65340, Note_on_c, 3, 64, 110
7, 65399, Note_on_c, 3, 64, 0
7, 65400, Note_on_c, 3, 64, 110
7, 65459, Note_on_c, 3, 64, 0
7, 65460, Note_on_c, 3, 64, 110
7, 65519, Note_on_c, 3, 64, 0
7, 65520, Note_on_c, 3, 64, 110
7, 65579, Note_on_c, 3, 64, 0
7, 65580, Note_on_c, 3, 57, 110
7, 65639, Note_on_c, 3, 57, 0
7, 65640, Note_on_c, 3, 57, 110
7, 65699, Note_on_c, 3, 57, 0
7, 65700, Note_on_c, 3, 57, 110
7, 65759, Note_on_c, 3, 57, 0
7, 65760, Note_on_c, 3, 57, 110
7, 65819, Note_on_c, 3, 57, 0
7, 65820, Note_on_c, 3, 54, 110
7, 65849, Note_on_c, 3, 54, 0
7, 65850, Note_on_c, 3, 57, 110
7, 65879, Note_on_c, 3, 57, 0
7, 65880, Note_on_c, 3, 62, 110
7, 65939, Note_on_c, 3, 62, 0
7, 65940, Note_on_c, 3, 62, 110
7, 65999, Note_on_c, 3, 62, 0
7, 66000, Note_on_c, 3, 62, 110
7, 66059, Note_on_c, 3, 62, 0
7, 66060, Note_on_c, 3, 62, 110
7, 66119, Note_on_c, 3, 62, 0
7, 66120, Note_on_c, 3, 62, 110
7, 66179, Note_on_c, 3, 62, 0
7, 66180, Note_on_c, 3, 57, 110
7, 66209, Note_on_c, 3, 57, 0
7, 66210, Note_on_c, 3, 62, 110
7, 66239, Note_on_c, 3, 62, 0
7, 66240, Note_on_c, 3, 64, 110
7, 66299, Note_on_c, 3, 64, 0
7, 66300, Note_on_c, 3, 64, 110
7, 66359, Note_on_c, 3, 64, 0
7, 66360, Note_on_c, 3, 64, 110
7, 66419, Note_on_c, 3, 64, 0
7, 66420, Note_on_c, 3, 64, 110
7, 66479, Note_on_c, 3, 64, 0
7, 66480, Note_on_c, 3, 64, 110
7, 66539, Note_on_c, 3, 64, 0
7, 66540, Note_on_c, 3, 62, 110
7, 66569, Note_on_c, 3, 62, 0
7, 66570, Note_on_c, 3, 64, 110
7, 66599, Note_on_c, 3, 64, 0
7, 66600, Note_on_c, 3, 66, 110
7, 67230, Note_on_c, 3, 66, 0
7, 67230, Note_on_c, 3, 67, 110
7, 67259, Note_on_c, 3, 67, 0
7, 67260, Note_on_c, 3, 64, 110
7, 67289, Note_on_c, 3, 64, 0
7, 67290, Note_on_c, 3, 66, 110
7, 67319, Note_on_c, 3, 66, 0
7, 67320, Note_on_c, 3, 67, 110
7, 67379, Note_on_c, 3, 67, 0
7, 67380, Note_on_c, 3, 62, 110
7, 67439, Note_on_c, 3, 62, 0
7, 67440, Note_on_c, 3, 64, 110
7, 67469, Note_on_c, 3, 64, 0
7, 67470, Note_on_c, 3, 66, 110
7, 67499, Note_on_c, 3, 66, 0
7, 67500, Note_on_c, 3, 64, 110
7, 67529, Note_on_c, 3, 64, 0
7, 67530, Note_on_c, 3, 66, 110
7, 67559, Note_on_c, 3, 66, 0
7, 67560, Note_on_c, 3, 67, 110
7, 67589, Note_on_c, 3, 67, 0
7, 67590, Note_on_c, 3, 69, 110
7, 67619, Note_on_c, 3, 69, 0
7, 67620, Note_on_c, 3, 66, 110
7, 67649, Note_on_c, 3, 66, 0
7, 67650, Note_on_c, 3, 67, 110
7, 67679, Note_on_c, 3, 67, 0
7, 67680, Note_on_c, 3, 69, 110
7, 67709, Note_on_c, 3, 69, 0
7, 67710, Note_on_c, 3, 67, 110
7, 67739, Note_on_c, 3, 67, 0
7, 67740, Note_on_c, 3, 66, 110
7, 67769, Note_on_c, 3, 66, 0
7, 67770, Note_on_c, 3, 64, 110
7, 67799, Note_on_c, 3, 64, 0
7, 67800, Note_on_c, 3, 62, 110
7, 67859, Note_on_c, 3, 62, 0
7, 67860, Note_on_c, 3, 57, 110
7, 67919, Note_on_c, 3, 57, 0
7, 67920, Note_on_c, 3, 57, 110
7, 67949, Note_on_c, 3, 57, 0
7, 67950, Note_on_c, 3, 54, 110
7, 67979, Note_on_c, 3, 54, 0
7, 67980, Note_on_c, 3, 57, 110
7, 68039, Note_on_c, 3, 57, 0
7, 68040, Note_on_c, 3, 57, 110
7, 68099, Note_on_c, 3, 57, 0
7, 68100, Note_on_c, 3, 54, 110
7, 68159, Note_on_c, 3, 54, 0
7, 68400, Note_on_c, 3, 62, 110
7, 68459, Note_on_c, 3, 62, 0
7, 68460, Note_on_c, 3, 50, 110
7, 68519, Note_on_c, 3, 50, 0
7, 68760, Note_on_c, 3, 62, 110
7, 68819, Note_on_c, 3, 62, 0
7, 68820, Note_on_c, 3, 57, 110
7, 68879, Note_on_c, 3, 57, 0
7, 69180, Note_on_c, 3, 62, 110
7, 69239, Note_on_c, 3, 62, 0
7, 69240, Note_on_c, 3, 64, 110
7, 69269, Note_on_c, 3, 64, 0
7, 69270, Note_on_c, 3, 66, 110
7, 69299, Note_on_c, 3, 66, 0
7, 69300, Note_on_c, 3, 64, 110
7, 69329, Note_on_c, 3, 64, 0
7, 69330, Note_on_c, 3, 66, 110
7, 69359, Note_on_c, 3, 66, 0
7, 69360, Note_on_c, 3, 67, 110
7, 69389, Note_on_c, 3, 67, 0
7, 69390, Note_on_c, 3, 69, 110
7, 69419, Note_on_c, 3, 69, 0
7, 69420, Note_on_c, 3, 66, 110
7, 69449, Note_on_c, 3, 66, 0
7, 69450, Note_on_c, 3, 67, 110
7, 69479, Note_on_c, 3, 67, 0
7, 69480, Note_on_c, 3, 69, 110
7, 69509, Note_on_c, 3, 69, 0
7, 69510, Note_on_c, 3, 67, 110
7, 69539, Note_on_c, 3, 67, 0
7, 69540, Note_on_c, 3, 66, 110
7, 69569, Note_on_c, 3, 66, 0
7, 69570, Note_on_c, 3, 64, 110
7, 69599, Note_on_c, 3, 64, 0
7, 69600, Note_on_c, 3, 64, 110
7, 69659, Note_on_c, 3, 64, 0
7, 69660, Note_on_c, 3, 57, 110
7, 69719, Note_on_c, 3, 57, 0
7, 69720, Note_on_c, 3, 57, 110
7, 69749, Note_on_c, 3, 57, 0
7, 69750, Note_on_c, 3, 54, 110
7, 69779, Note_on_c, 3, 54, 0
7, 69780, Note_on_c, 3, 57, 110
7, 69839, Note_on_c, 3, 57, 0
7, 69840, Note_on_c, 3, 54, 110
7, 69959, Note_on_c, 3, 54, 0
7, 70560, Note_on_c, 3, 62, 120
7, 70679, Note_on_c, 3, 62, 0
7, 71280, Note_on_c, 3, 60, 120
7, 71399, Note_on_c, 3, 60, 0
7, 71760, Note_on_c, 3, 57, 120
7, 71879, Note_on_c, 3, 57, 0
7, 72240, Note_on_c, 3, 54, 120
7, 72359, Note_on_c, 3, 54, 0
7, 72720, Note_on_c, 3, 64, 120
7, 72839, Note_on_c, 3, 64, 0
7, 72960, Note_on_c, 3, 64, 120
7, 73079, Note_on_c, 3, 64, 0
7, 73320, Note_on_c, 3, 66, 120
7, 73439, Note_on_c, 3, 66, 0
7, 73440, Note_on_c, 3, 62, 120
7, 73559, Note_on_c, 3, 62, 0
7, 73710, Note_on_c, 3, 57, 120
7, 73739, Note_on_c, 3, 57, 0
7, 73740, Note_on_c, 3, 57, 120
7, 73769, Note_on_c, 3, 57, 0
7, 73770, Note_on_c, 3, 57, 120
7, 73799, Note_on_c, 3, 57, 0
7, 73800, Note_on_c, 3, 57, 120
7, 73859, Note_on_c, 3, 57, 0
7, 74190, Note_on_c, 3, 54, 120
7, 74219, Note_on_c, 3, 54, 0
7, 74220, Note_on_c, 3, 54, 120
7, 74249, Note_on_c, 3, 54, 0
7, 74250, Note_on_c, 3, 54, 120
7, 74279, Note_on_c, 3, 54, 0
7, 74280, Note_on_c, 3, 54, 120
7, 74339, Note_on_c, 3, 54, 0
7, 74670, Note_on_c, 3, 54, 120
7, 74699, Note_on_c, 3, 54, 0
7, 74700, Note_on_c, 3, 54, 120
7, 74729, Note_on_c, 3, 54, 0
7, 74730, Note_on_c, 3, 54, 120
7, 74759, Note_on_c, 3, 54, 0
7, 74760, Note_on_c, 3, 54, 120
7, 74819, Note_on_c, 3, 54, 0
7, 74910, Note_on_c, 3, 50, 120
7, 74939, Note_on_c, 3, 50, 0
7, 74940, Note_on_c, 3, 50, 120
7, 74969, Note_on_c, 3, 50, 0
7, 74970, Note_on_c, 3, 50, 120
7, 74999, Note_on_c, 3, 50, 0
7, 75000, Note_on_c, 3, 50, 120
7, 75029, Note_on_c, 3, 50, 0
7, 75030, Note_on_c, 3, 50, 120
7, 75059, Note_on_c, 3, 50, 0
7, 75060, Note_on_c, 3, 50, 120
7, 75089, Note_on_c, 3, 50, 0
7, 75090, Note_on_c, 3, 50, 120
7, 75119, Note_on_c, 3, 50, 0
7, 75120, Note_on_c, 3, 54, 120
7, 75179, Note_on_c, 3, 54, 0
7, 75600, Note_on_c, 3, 57, 120
7, 75719, Note_on_c, 3, 57, 0
7, 76080, Note_on_c, 3, 66, 120
7, 76199, Note_on_c, 3, 66, 0
7, 76320, Note_on_c, 3, 62, 120
7, 76439, Note_on_c, 3, 62, 0
7, 76590, Note_on_c, 3, 66, 120
7, 76619, Note_on_c, 3, 66, 0
7, 76620, Note_on_c, 3, 66, 120
7, 76649, Note_on_c, 3, 66, 0
7, 76650, Note_on_c, 3, 62, 120
7, 76679, Note_on_c, 3, 62, 0
7, 76680, Note_on_c, 3, 64, 120
7, 76709, Note_on_c, 3, 64, 0
7, 76710, Note_on_c, 3, 64, 120
7, 76739, Note_on_c, 3, 64, 0
7, 76740, Note_on_c, 3, 64, 120
7, 76769, Note_on_c, 3, 64, 0
7, 76770, Note_on_c, 3, 57, 120
7, 76799, Note_on_c, 3, 57, 0
7, 76800, Note_on_c, 3, 57, 120
7, 76829, Note_on_c, 3, 57, 0
7, 76830, Note_on_c, 3, 50, 120
7, 76859, Note_on_c, 3, 50, 0
7, 76860, Note_on_c, 3, 50, 120
7, 76889, Note_on_c, 3, 50, 0
7, 76890, Note_on_c, 3, 50, 120
7, 76919, Note_on_c, 3, 50, 0
7, 76920, Note_on_c, 3, 50, 120
7, 76949, Note_on_c, 3, 50, 0
7, 76950, Note_on_c, 3, 50, 120
7, 76979, Note_on_c, 3, 50, 0
7, 76980, Note_on_c, 3, 50, 120
7, 77009, Note_on_c, 3, 50, 0
7, 77010, Note_on_c, 3, 50, 120
7, 77039, Note_on_c, 3, 50, 0
7, 77040, Note_on_c, 3, 50, 120
7, 77159, Note_on_c, 3, 50, 0
7, 77310, Note_on_c, 3, 62, 120
7, 77339, Note_on_c, 3, 62, 0
7, 77340, Note_on_c, 3, 62, 120
7, 77369, Note_on_c, 3, 62, 0
7, 77370, Note_on_c, 3, 62, 120
7, 77399, Note_on_c, 3, 62, 0
7, 77400, Note_on_c, 3, 62, 120
7, 77429, Note_on_c, 3, 62, 0
7, 77430, Note_on_c, 3, 62, 120
7, 77459, Note_on_c, 3, 62, 0
7, 77460, Note_on_c, 3, 62, 120
7, 77489, Note_on_c, 3, 62, 0
7, 77490, Note_on_c, 3, 62, 120
7, 77519, Note_on_c, 3, 62, 0
7, 77520, Note_on_c, 3, 62, 120
7, 77579, Note_on_c, 3, 62, 0
7, 77790, Note_on_c, 3, 57, 120
7, 77819, Note_on_c, 3, 57, 0
7, 77820, Note_on_c, 3, 57, 120
7, 77849, Note_on_c, 3, 57, 0
7, 77850, Note_on_c, 3, 57, 120
7, 77879, Note_on_c, 3, 57, 0
7, 77880, Note_on_c, 3, 57, 120
7, 77909, Note_on_c, 3, 57, 0
7, 77910, Note_on_c, 3, 57, 120
7, 77939, Note_on_c, 3, 57, 0
7, 77940, Note_on_c, 3, 57, 120
7, 77969, Note_on_c, 3, 57, 0
7, 77970, Note_on_c, 3, 57, 120
7, 77999, Note_on_c, 3, 57, 0
7, 78000, Note_on_c, 3, 62, 120
7, 78059, Note_on_c, 3, 62, 0
7, 78270, Note_on_c, 3, 64, 120
7, 78299, Note_on_c, 3, 64, 0
7, 78300, Note_on_c, 3, 64, 120
7, 78329, Note_on_c, 3, 64, 0
7, 78330, Note_on_c, 3, 64, 120
7, 78359, Note_on_c, 3, 64, 0
7, 78360, Note_on_c, 3, 64, 120
7, 78389, Note_on_c, 3, 64, 0
7, 78390, Note_on_c, 3, 64, 120
7, 78419, Note_on_c, 3, 64, 0
7, 78420, Note_on_c, 3, 64, 120
7, 78449, Note_on_c, 3, 64, 0
7, 78450, Note_on_c, 3, 64, 120
7, 78479, Note_on_c, 3, 64, 0
7, 78480, Note_on_c, 3, 64, 120
7, 78509, Note_on_c, 3, 64, 0
7, 78510, Note_on_c, 3, 69, 120
7, 78539, Note_on_c, 3, 69, 0
7, 78540, Note_on_c, 3, 69, 120
7, 78569, Note_on_c, 3, 69, 0
7, 78570, Note_on_c, 3, 69, 120
7, 78599, Note_on_c, 3, 69, 0
7, 78600, Note_on_c, 3, 69, 120
7, 78629, Note_on_c, 3, 69, 0
7, 78630, Note_on_c, 3, 69, 120
7, 78659, Note_on_c, 3, 69, 0
7, 78660, Note_on_c, 3, 69, 120
7, 78689, Note_on_c, 3, 69, 0
7, 78690, Note_on_c, 3, 69, 120
7, 78719, Note_on_c, 3, 69, 0
7, 78720, Note_on_c, 3, 69, 120
7, 78839, Note_on_c, 3, 69, 0
7, 78990, Note_on_c, 3, 64, 120
7, 79019, Note_on_c, 3, 64, 0
7, 79020, Note_on_c, 3, 64, 120
7, 79049, Note_on_c, 3, 64, 0
7, 79050, Note_on_c, 3, 64, 120
7, 79079, Note_on_c, 3, 64, 0
7, 79080, Note_on_c, 3, 64, 120
7, 79139, Note_on_c, 3, 64, 0
7, 79470, Note_on_c, 3, 66, 120
7, 79499, Note_on_c, 3, 66, 0
7, 79500, Note_on_c, 3, 66, 120
7, 79529, Note_on_c, 3, 66, 0
7, 79530, Note_on_c, 3, 66, 120
7, 79559, Note_on_c, 3, 66, 0
7, 79560, Note_on_c, 3, 66, 120
7, 79589, Note_on_c, 3, 66, 0
7, 79590, Note_on_c, 3, 66, 120
7, 79619, Note_on_c, 3, 66, 0
7, 79620, Note_on_c, 3, 66, 120
7, 79649, Note_on_c, 3, 66, 0
7, 79650, Note_on_c, 3, 66, 120
7, 79679, Note_on_c, 3, 66, 0
7, 79680, Note_on_c, 3, 66, 120
7, 79739, Note_on_c, 3, 66, 0
7, 79950, Note_on_c, 3, 64, 120
7, 79979, Note_on_c, 3, 64, 0
7, 79980, Note_on_c, 3, 64, 120
7, 80009, Note_on_c, 3, 64, 0
7, 80010, Note_on_c, 3, 64, 120
7, 80039, Note_on_c, 3, 64, 0
7, 80040, Note_on_c, 3, 64, 120
7, 80099, Note_on_c, 3, 64, 0
7, 80430, Note_on_c, 3, 68, 120
7, 80459, Note_on_c, 3, 68, 0
7, 80460, Note_on_c, 3, 68, 120
7, 80489, Note_on_c, 3, 68, 0
7, 80490, Note_on_c, 3, 68, 120
7, 80519, Note_on_c, 3, 68, 0
7, 80520, Note_on_c, 3, 68, 120
7, 80579, Note_on_c, 3, 68, 0
7, 235560, Note_on_c, 3, 66, 127
7, 235620, Note_on_c, 3, 66, 0
7, 235620, Note_on_c, 3, 62, 127
7, 235680, Note_on_c, 3, 62, 0
7, 235680, Note_on_c, 3, 57, 127
7, 235740, Note_on_c, 3, 57, 0
7, 235740, Note_on_c, 3, 54, 127
7, 235800, Note_on_c, 3, 54, 0
7, 235800, Note_on_c, 3, 57, 127
7, 235860, Note_on_c, 3, 57, 0
7, 235860, Note_on_c, 3, 54, 127
7, 235920, Note_on_c, 3, 54, 0
7, 235920, Note_on_c, 3, 50, 127
7, 235980, Note_on_c, 3, 50, 0
7, 235980, Note_on_c, 3, 54, 127
7, 236010, Note_on_c, 3, 54, 0
7, 236010, Note_on_c, 3, 57, 127
7, 236040, Note_on_c, 3, 57, 0
7, 236040, Note_on_c, 3, 62, 127
7, 236070, Note_on_c, 3, 62, 0
7, 236070, Note_on_c, 3, 64, 127
7, 236100, Note_on_c, 3, 64, 0
7, 236100, Note_on_c, 3, 66, 127
7, 236130, Note_on_c, 3, 66, 0
7, 236130, Note_on_c, 3, 64, 127
7, 236160, Note_on_c, 3, 64, 0
7, 236160, Note_on_c, 3, 62, 127
7, 236190, Note_on_c, 3, 62, 0
7, 236190, Note_on_c, 3, 64, 127
7, 236220, Note_on_c, 3, 64, 0
7, 236220, Note_on_c, 3, 62, 127
7, 236250, Note_on_c, 3, 62, 0
7, 236250, Note_on_c, 3, 64, 127
7, 236280, Note_on_c, 3, 64, 0
7, 236280, Note_on_c, 3, 66, 127
7, 236310, Note_on_c, 3, 66, 0
7, 236310, Note_on_c, 3, 64, 127
7, 236340, Note_on_c, 3, 64, 0
7, 236340, Note_on_c, 3, 62, 127
7, 236760, Note_on_c, 3, 62, 0
7, 236760, Note_on_c, 3, 50, 127
7, 236820, Note_on_c, 3, 50, 0
7, 236820, Note_on_c, 3, 54, 127
7, 236880, Note_on_c, 3, 54, 0
7, 236880, Note_on_c, 3, 57, 127
7, 237000, Note_on_c, 3, 57, 0
7, 237000, Note_on_c, 3, 64, 127
7, 237060, Note_on_c, 3, 64, 0
7, 237060, Note_on_c, 3, 66, 127
7, 237270, Note_on_c, 3, 66, 0
7, 237270, Note_on_c, 3, 64, 127
7, 237300, Note_on_c, 3, 64, 0
7, 237300, Note_on_c, 3, 66, 127
7, 237330, Note_on_c, 3, 66, 0
7, 237330, Note_on_c, 3, 67, 127
7, 237360, Note_on_c, 3, 67, 0
7, 237360, Note_on_c, 3, 66, 127
7, 237390, Note_on_c, 3, 66, 0
7, 237390, Note_on_c, 3, 67, 127
7, 237420, Note_on_c, 3, 67, 0
7, 237420, Note_on_c, 3, 64, 127
7, 237450, Note_on_c, 3, 64, 0
7, 237450, Note_on_c, 3, 66, 127
7, 237480, Note_on_c, 3, 66, 0
7, 237480, Note_on_c, 3, 64, 127
7, 237510, Note_on_c, 3, 64, 0
7, 237510, Note_on_c, 3, 66, 127
7, 237540, Note_on_c, 3, 66, 0
7, 237540, Note_on_c, 3, 67, 127
7, 237570, Note_on_c, 3, 67, 0
7, 237570, Note_on_c, 3, 66, 127
7, 237600, Note_on_c, 3, 66, 0
7, 237600, Note_on_c, 3, 64, 127
7, 237630, Note_on_c, 3, 64, 0
7, 237630, Note_on_c, 3, 66, 127
7, 237660, Note_on_c, 3, 66, 0
7, 237660, Note_on_c, 3, 64, 127
7, 237690, Note_on_c, 3, 64, 0
7, 237690, Note_on_c, 3, 66, 127
7, 237720, Note_on_c, 3, 66, 0
7, 237720, Note_on_c, 3, 67, 127
7, 237750, Note_on_c, 3, 67, 0
7, 237750, Note_on_c, 3, 66, 127
7, 237780, Note_on_c, 3, 66, 0
7, 237780, Note_on_c, 3, 64, 127
7, 237990, Note_on_c, 3, 64, 0
7, 237990, Note_on_c, 3, 62, 127
7, 238020, Note_on_c, 3, 62, 0
7, 238020, Note_on_c, 3, 64, 127
7, 238050, Note_on_c, 3, 64, 0
7, 238050, Note_on_c, 3, 66, 127
7, 238080, Note_on_c, 3, 66, 0
7, 238080, Note_on_c, 3, 64, 127
7, 238110, Note_on_c, 3, 64, 0
7, 238110, Note_on_c, 3, 66, 127
7, 238140, Note_on_c, 3, 66, 0
7, 238140, Note_on_c, 3, 62, 120
7, 238169, Note_on_c, 3, 62, 0
7, 238170, Note_on_c, 3, 64, 120
7, 238199, Note_on_c, 3, 64, 0
7, 238200, Note_on_c, 3, 62, 120
7, 238229, Note_on_c, 3, 62, 0
7, 238230, Note_on_c, 3, 64, 120
7, 238259, Note_on_c, 3, 64, 0
7, 238260, Note_on_c, 3, 66, 120
7, 238289, Note_on_c, 3, 66, 0
7, 238290, Note_on_c, 3, 64, 120
7, 238319, Note_on_c, 3, 64, 0
7, 238320, Note_on_c, 3, 62, 120
7, 238349, Note_on_c, 3, 62, 0
7, 238350, Note_on_c, 3, 64, 120
7, 238379, Note_on_c, 3, 64, 0
7, 238380, Note_on_c, 3, 62, 120
7, 238409, Note_on_c, 3, 62, 0
7, 238410, Note_on_c, 3, 64, 120
7, 238439, Note_on_c, 3, 64, 0
7, 238440, Note_on_c, 3, 66, 120
7, 238499, Note_on_c, 3, 66, 0
7, 238560, Note_on_c, 3, 67, 120
7, 238619, Note_on_c, 3, 67, 0
7, 238620, Note_on_c, 3, 71, 120
7, 238679, Note_on_c, 3, 71, 0
7, 238680, Note_on_c, 3, 64, 120
7, 238739, Note_on_c, 3, 64, 0
7, 238740, Note_on_c, 3, 67, 120
7, 238799, Note_on_c, 3, 67, 0
7, 238800, Note_on_c, 3, 73, 120
7, 238859, Note_on_c, 3, 73, 0
7, 238920, Note_on_c, 3, 66, 120
7, 238979, Note_on_c, 3, 66, 0
7, 238980, Note_on_c, 3, 69, 120
7, 239039, Note_on_c, 3, 69, 0
7, 239040, Note_on_c, 3, 62, 120
7, 239099, Note_on_c, 3, 62, 0
7, 239100, Note_on_c, 3, 66, 120
7, 239159, Note_on_c, 3, 66, 0
7, 239160, Note_on_c, 3, 71, 120
7, 239219, Note_on_c, 3, 71, 0
7, 239280, Note_on_c, 3, 64, 120
7, 239339, Note_on_c, 3, 64, 0
7, 239340, Note_on_c, 3, 67, 120
7, 239399, Note_on_c, 3, 67, 0
7, 239400, Note_on_c, 3, 57, 120
7, 239459, Note_on_c, 3, 57, 0
7, 239460, Note_on_c, 3, 64, 120
7, 239519, Note_on_c, 3, 64, 0
7, 239520, Note_on_c, 3, 69, 120
7, 239579, Note_on_c, 3, 69, 0
7, 239640, Note_on_c, 3, 62, 120
7, 239669, Note_on_c, 3, 62, 0
7, 239670, Note_on_c, 3, 64, 120
7, 239699, Note_on_c, 3, 64, 0
7, 239700, Note_on_c, 3, 62, 120
7, 239729, Note_on_c, 3, 62, 0
7, 239730, Note_on_c, 3, 64, 120
7, 239759, Note_on_c, 3, 64, 0
7, 239760, Note_on_c, 3, 66, 120
7, 239819, Note_on_c, 3, 66, 0
7, 239820, Note_on_c, 3, 62, 120
7, 239879, Note_on_c, 3, 62, 0
7, 239880, Note_on_c, 3, 57, 120
7, 239939, Note_on_c, 3, 57, 0
7, 239940, Note_on_c, 3, 57, 120
7, 239999, Note_on_c, 3, 57, 0
7, 240000, Note_on_c, 3, 64, 120
7, 240059, Note_on_c, 3, 64, 0
7, 240120, Note_on_c, 3, 57, 120
7, 240149, Note_on_c, 3, 57, 0
7, 240150, Note_on_c, 3, 62, 120
7, 240179, Note_on_c, 3, 62, 0
7, 240180, Note_on_c, 3, 57, 120
7, 240209, Note_on_c, 3, 57, 0
7, 240210, Note_on_c, 3, 62, 120
7, 240239, Note_on_c, 3, 62, 0
7, 240240, Note_on_c, 3, 64, 120
7, 240269, Note_on_c, 3, 64, 0
7, 240270, Note_on_c, 3, 57, 120
7, 240299, Note_on_c, 3, 57, 0
7, 240300, Note_on_c, 3, 62, 120
7, 240359, Note_on_c, 3, 62, 0
7, 240360, Note_on_c, 3, 66, 120
7, 240419, Note_on_c, 3, 66, 0
7, 240480, Note_on_c, 3, 62, 120
7, 240509, Note_on_c, 3, 62, 0
7, 240510, Note_on_c, 3, 64, 120
7, 240539, Note_on_c, 3, 64, 0
7, 240540, Note_on_c, 3, 62, 120
7, 240569, Note_on_c, 3, 62, 0
7, 240570, Note_on_c, 3, 64, 120
7, 240599, Note_on_c, 3, 64, 0
7, 240600, Note_on_c, 3, 66, 120
7, 240629, Note_on_c, 3, 66, 0
7, 240630, Note_on_c, 3, 64, 120
7, 240659, Note_on_c, 3, 64, 0
7, 240660, Note_on_c, 3, 62, 120
7, 240689, Note_on_c, 3, 62, 0
7, 240690, Note_on_c, 3, 64, 120
7, 240719, Note_on_c, 3, 64, 0
7, 240720, Note_on_c, 3, 62, 120
7, 240749, Note_on_c, 3, 62, 0
7, 240750, Note_on_c, 3, 64, 120
7, 240779, Note_on_c, 3, 64, 0
7, 240780, Note_on_c, 3, 66, 120
7, 240809, Note_on_c, 3, 66, 0
7, 240810, Note_on_c, 3, 62, 120
7, 240839, Note_on_c, 3, 62, 0
7, 240840, Note_on_c, 3, 64, 120
7, 240869, Note_on_c, 3, 64, 0
7, 240870, Note_on_c, 3, 62, 120
7, 240899, Note_on_c, 3, 62, 0
7, 240900, Note_on_c, 3, 64, 120
7, 240929, Note_on_c, 3, 64, 0
7, 240930, Note_on_c, 3, 57, 120
7, 240959, Note_on_c, 3, 57, 0
7, 240960, Note_on_c, 3, 62, 120
7, 240989, Note_on_c, 3, 62, 0
7, 240990, Note_on_c, 3, 64, 120
7, 241019, Note_on_c, 3, 64, 0
7, 241020, Note_on_c, 3, 66, 120
7, 241049, Note_on_c, 3, 66, 0
7, 241050, Note_on_c, 3, 62, 120
7, 241079, Note_on_c, 3, 62, 0
7, 241080, Note_on_c, 3, 64, 120
7, 241109, Note_on_c, 3, 64, 0
7, 241110, Note_on_c, 3, 66, 120
7, 241139, Note_on_c, 3, 66, 0
7, 241140, Note_on_c, 3, 62, 120
7, 241169, Note_on_c, 3, 62, 0
7, 241170, Note_on_c, 3, 64, 120
7, 241199, Note_on_c, 3, 64, 0
7, 241200, Note_on_c, 3, 66, 120
7, 241319, Note_on_c, 3, 66, 0
7, 242040, Note_on_c, 3, 62, 120
7, 242099, Note_on_c, 3, 62, 0
7, 242100, Note_on_c, 3, 62, 120
7, 242159, Note_on_c, 3, 62, 0
7, 242160, Note_on_c, 3, 57, 120
7, 242219, Note_on_c, 3, 57, 0
7, 242220, Note_on_c, 3, 54, 120
7, 242279, Note_on_c, 3, 54, 0
7, 242280, Note_on_c, 3, 57, 120
7, 242339, Note_on_c, 3, 57, 0
7, 242340, Note_on_c, 3, 54, 120
7, 242399, Note_on_c, 3, 54, 0
7, 242400, Note_on_c, 3, 50, 120
7, 242400, Note_on_c, 3, 49, 120
7, 242459, Note_on_c, 3, 49, 0
7, 242459, Note_on_c, 3, 50, 0
7, 242460, Note_on_c, 3, 54, 120
7, 242489, Note_on_c, 3, 54, 0
7, 242490, Note_on_c, 3, 57, 120
7, 242519, Note_on_c, 3, 57, 0
7, 242520, Note_on_c, 3, 62, 120
7, 242549, Note_on_c, 3, 62, 0
7, 242550, Note_on_c, 3, 64, 120
7, 242579, Note_on_c, 3, 64, 0
7, 242580, Note_on_c, 3, 66, 120
7, 242609, Note_on_c, 3, 66, 0
7, 242610, Note_on_c, 3, 64, 120
7, 242639, Note_on_c, 3, 64, 0
7, 242640, Note_on_c, 3, 62, 120
7, 242669, Note_on_c, 3, 62, 0
7, 242670, Note_on_c, 3, 64, 120
7, 242699, Note_on_c, 3, 64, 0
7, 242700, Note_on_c, 3, 62, 120
7, 242729, Note_on_c, 3, 62, 0
7, 242730, Note_on_c, 3, 64, 120
7, 242759, Note_on_c, 3, 64, 0
7, 242760, Note_on_c, 3, 66, 120
7, 242789, Note_on_c, 3, 66, 0
7, 242790, Note_on_c, 3, 64, 120
7, 242819, Note_on_c, 3, 64, 0
7, 242820, Note_on_c, 3, 62, 120
7, 243059, Note_on_c, 3, 62, 0
7, 243660, Note_on_c, 3, 66, 120
7, 243720, Note_on_c, 3, 66, 0
7, 243720, Note_on_c, 3, 67, 120
7, 243780, Note_on_c, 3, 67, 0
7, 243780, Note_on_c, 3, 62, 120
7, 243840, Note_on_c, 3, 62, 0
7, 245880, Note_on_c, 3, 68, 120
7, 245909, Note_on_c, 3, 68, 0
7, 245910, Note_on_c, 3, 69, 120
7, 245939, Note_on_c, 3, 69, 0
7, 245940, Note_on_c, 3, 68, 120
7, 245969, Note_on_c, 3, 68, 0
7, 245970, Note_on_c, 3, 69, 120
7, 245999, Note_on_c, 3, 69, 0
7, 246000, Note_on_c, 3, 71, 120
7, 246029, Note_on_c, 3, 71, 0
7, 246030, Note_on_c, 3, 68, 120
7, 246059, Note_on_c, 3, 68, 0
7, 246060, Note_on_c, 3, 69, 120
7, 246119, Note_on_c, 3, 69, 0
7, 246120, Note_on_c, 3, 64, 120
7, 246179, Note_on_c, 3, 64, 0
7, 246240, Note_on_c, 3, 57, 120
7, 246299, Note_on_c, 3, 57, 0
7, 246300, Note_on_c, 3, 57, 120
7, 246359, Note_on_c, 3, 57, 0
7, 246360, Note_on_c, 3, 57, 120
7, 246419, Note_on_c, 3, 57, 0
7, 246420, Note_on_c, 3, 64, 120
7, 246479, Note_on_c, 3, 64, 0
7, 246600, Note_on_c, 3, 64, 120
7, 246659, Note_on_c, 3, 64, 0
7, 246660, Note_on_c, 3, 64, 120
7, 246719, Note_on_c, 3, 64, 0
7, 246720, Note_on_c, 3, 64, 120
7, 246779, Note_on_c, 3, 64, 0
7, 246780, Note_on_c, 3, 64, 120
7, 246839, Note_on_c, 3, 64, 0
7, 246840, Note_on_c, 3, 57, 120
7, 246899, Note_on_c, 3, 57, 0
7, 247500, Note_on_c, 3, 57, 120
7, 247529, Note_on_c, 3, 57, 0
7, 247530, Note_on_c, 3, 62, 120
7, 247559, Note_on_c, 3, 62, 0
7, 247560, Note_on_c, 3, 57, 120
7, 247589, Note_on_c, 3, 57, 0
7, 247590, Note_on_c, 3, 62, 120
7, 247619, Note_on_c, 3, 62, 0
7, 247620, Note_on_c, 3, 64, 120
7, 247649, Note_on_c, 3, 64, 0
7, 247650, Note_on_c, 3, 57, 120
7, 247679, Note_on_c, 3, 57, 0
7, 247680, Note_on_c, 3, 62, 120
7, 247739, Note_on_c, 3, 62, 0
7, 247740, Note_on_c, 3, 66, 120
7, 247799, Note_on_c, 3, 66, 0
7, 247860, Note_on_c, 3, 62, 120
7, 247889, Note_on_c, 3, 62, 0
7, 247890, Note_on_c, 3, 64, 120
7, 247919, Note_on_c, 3, 64, 0
7, 247920, Note_on_c, 3, 62, 120
7, 247949, Note_on_c, 3, 62, 0
7, 247950, Note_on_c, 3, 64, 120
7, 247979, Note_on_c, 3, 64, 0
7, 247980, Note_on_c, 3, 66, 120
7, 248009, Note_on_c, 3, 66, 0
7, 248010, Note_on_c, 3, 64, 120
7, 248039, Note_on_c, 3, 64, 0
7, 248040, Note_on_c, 3, 62, 120
7, 248099, Note_on_c, 3, 62, 0
7, 248100, Note_on_c, 3, 50, 120
7, 248159, Note_on_c, 3, 50, 0
7, 248700, Note_on_c, 3, 64, 120
7, 248759, Note_on_c, 3, 64, 0
7, 248760, Note_on_c, 3, 64, 120
7, 248819, Note_on_c, 3, 64, 0
7, 248820, Note_on_c, 3, 64, 120
7, 248879, Note_on_c, 3, 64, 0
7, 248880, Note_on_c, 3, 64, 120
7, 248939, Note_on_c, 3, 64, 0
7, 248940, Note_on_c, 3, 64, 120
7, 248999, Note_on_c, 3, 64, 0
7, 249000, Note_on_c, 3, 64, 120
7, 249059, Note_on_c, 3, 64, 0
7, 249060, Note_on_c, 3, 64, 120
7, 249119, Note_on_c, 3, 64, 0
7, 249120, Note_on_c, 3, 64, 120
7, 249179, Note_on_c, 3, 64, 0
7, 249180, Note_on_c, 3, 64, 120
7, 249239, Note_on_c, 3, 64, 0
7, 249240, Note_on_c, 3, 64, 120
7, 249299, Note_on_c, 3, 64, 0
7, 249300, Note_on_c, 3, 64, 120
7, 249359, Note_on_c, 3, 64, 0
7, 249360, Note_on_c, 3, 64, 120
7, 249419, Note_on_c, 3, 64, 0
7, 249420, Note_on_c, 3, 64, 120
7, 249479, Note_on_c, 3, 64, 0
7, 249480, Note_on_c, 3, 64, 120
7, 249539, Note_on_c, 3, 64, 0
7, 249540, Note_on_c, 3, 62, 120
7, 249569, Note_on_c, 3, 62, 0
7, 249570, Note_on_c, 3, 64, 120
7, 249599, Note_on_c, 3, 64, 0
7, 249600, Note_on_c, 3, 66, 120
7, 249629, Note_on_c, 3, 66, 0
7, 249630, Note_on_c, 3, 62, 120
7, 249659, Note_on_c, 3, 62, 0
7, 249660, Note_on_c, 3, 64, 120
7, 249689, Note_on_c, 3, 64, 0
7, 249690, Note_on_c, 3, 66, 120
7, 249719, Note_on_c, 3, 66, 0
7, 249720, Note_on_c, 3, 64, 120
7, 249749, Note_on_c, 3, 64, 0
7, 249750, Note_on_c, 3, 66, 120
7, 249779, Note_on_c, 3, 66, 0
7, 249780, Note_on_c, 3, 68, 120
7, 249839, Note_on_c, 3, 68, 0
7, 249840, Note_on_c, 3, 64, 120
7, 249899, Note_on_c, 3, 64, 0
7, 249900, Note_on_c, 3, 66, 120
7, 249959, Note_on_c, 3, 66, 0
7, 249960, Note_on_c, 3, 64, 120
7, 250019, Note_on_c, 3, 64, 0
7, 250020, Note_on_c, 3, 64, 120
7, 250139, Note_on_c, 3, 64, 0
7, 250620, Note_on_c, 3, 67, 120
7, 250680, Note_on_c, 3, 67, 0
7, 250680, Note_on_c, 3, 67, 120
7, 250740, Note_on_c, 3, 67, 0
7, 250740, Note_on_c, 3, 67, 120
7, 250800, Note_on_c, 3, 67, 0
7, 250800, Note_on_c, 3, 67, 120
7, 250860, Note_on_c, 3, 67, 0
7, 250860, Note_on_c, 3, 67, 120
7, 250920, Note_on_c, 3, 67, 0
7, 251340, Note_on_c, 3, 64, 120
7, 251400, Note_on_c, 3, 64, 0
7, 251400, Note_on_c, 3, 64, 120
7, 251460, Note_on_c, 3, 64, 0
7, 251460, Note_on_c, 3, 64, 120
7, 251520, Note_on_c, 3, 64, 0
7, 251520, Note_on_c, 3, 64, 120
7, 251580, Note_on_c, 3, 64, 0
7, 251580, Note_on_c, 3, 64, 120
7, 251640, Note_on_c, 3, 64, 0
7, 252420, Note_on_c, 3, 54, 120
7, 252480, Note_on_c, 3, 54, 0
7, 252480, Note_on_c, 3, 54, 120
7, 252540, Note_on_c, 3, 54, 0
7, 252540, Note_on_c, 3, 54, 120
7, 252600, Note_on_c, 3, 54, 0
7, 252600, Note_on_c, 3, 54, 120
7, 252660, Note_on_c, 3, 54, 0
7, 252660, Note_on_c, 3, 54, 120
7, 252720, Note_on_c, 3, 54, 0
7, 252720, Note_on_c, 3, 54, 120
7, 252780, Note_on_c, 3, 54, 0
7, 252780, Note_on_c, 3, 54, 120
7, 252840, Note_on_c, 3, 54, 0
7, 252840, Note_on_c, 3, 54, 120
7, 252900, Note_on_c, 3, 54, 0
7, 252900, Note_on_c, 3, 54, 120
7, 252960, Note_on_c, 3, 54, 0
7, 252960, Note_on_c, 3, 54, 120
7, 253020, Note_on_c, 3, 54, 0
7, 253020, Note_on_c, 3, 54, 120
7, 253080, Note_on_c, 3, 54, 0
7, 253740, Note_on_c, 3, 62, 120
7, 253769, Note_on_c, 3, 62, 0
7, 253770, Note_on_c, 3, 64, 120
7, 253799, Note_on_c, 3, 64, 0
7, 253800, Note_on_c, 3, 66, 120
7, 253859, Note_on_c, 3, 66, 0
7, 253860, Note_on_c, 3, 66, 120
7, 253919, Note_on_c, 3, 66, 0
7, 253920, Note_on_c, 3, 66, 120
7, 253979, Note_on_c, 3, 66, 0
7, 253980, Note_on_c, 3, 66, 120
7, 254039, Note_on_c, 3, 66, 0
7, 254040, Note_on_c, 3, 66, 120
7, 254099, Note_on_c, 3, 66, 0
7, 254100, Note_on_c, 3, 66, 120
7, 254159, Note_on_c, 3, 66, 0
7, 254160, Note_on_c, 3, 64, 120
7, 254189, Note_on_c, 3, 64, 0
7, 254190, Note_on_c, 3, 66, 120
7, 254219, Note_on_c, 3, 66, 0
7, 254220, Note_on_c, 3, 64, 120
7, 254249, Note_on_c, 3, 64, 0
7, 254250, Note_on_c, 3, 66, 120
7, 254279, Note_on_c, 3, 66, 0
7, 254280, Note_on_c, 3, 67, 120
7, 254309, Note_on_c, 3, 67, 0
7, 254310, Note_on_c, 3, 66, 120
7, 254339, Note_on_c, 3, 66, 0
7, 254340, Note_on_c, 3, 64, 120
7, 254369, Note_on_c, 3, 64, 0
7, 254370, Note_on_c, 3, 66, 120
7, 254399, Note_on_c, 3, 66, 0
7, 254400, Note_on_c, 3, 64, 120
7, 254429, Note_on_c, 3, 64, 0
7, 254430, Note_on_c, 3, 66, 120
7, 254459, Note_on_c, 3, 66, 0
7, 254460, Note_on_c, 3, 67, 120
7, 254489, Note_on_c, 3, 67, 0
7, 254490, Note_on_c, 3, 66, 120
7, 254519, Note_on_c, 3, 66, 0
7, 254520, Note_on_c, 3, 64, 120
7, 254579, Note_on_c, 3, 64, 0
7, 254580, Note_on_c, 3, 64, 120
7, 254639, Note_on_c, 3, 64, 0
7, 254640, Note_on_c, 3, 64, 120
7, 254699, Note_on_c, 3, 64, 0
7, 254700, Note_on_c, 3, 64, 120
7, 254759, Note_on_c, 3, 64, 0
7, 254760, Note_on_c, 3, 64, 120
7, 254819, Note_on_c, 3, 64, 0
7, 254820, Note_on_c, 3, 64, 120
7, 254879, Note_on_c, 3, 64, 0
7, 254880, Note_on_c, 3, 62, 120
7, 254909, Note_on_c, 3, 62, 0
7, 254910, Note_on_c, 3, 64, 120
7, 254939, Note_on_c, 3, 64, 0
7, 254940, Note_on_c, 3, 62, 120
7, 254969, Note_on_c, 3, 62, 0
7, 254970, Note_on_c, 3, 64, 120
7, 254999, Note_on_c, 3, 64, 0
7, 255000, Note_on_c, 3, 66, 120
7, 255029, Note_on_c, 3, 66, 0
7, 255030, Note_on_c, 3, 64, 120
7, 255059, Note_on_c, 3, 64, 0
7, 255060, Note_on_c, 3, 62, 120
7, 255089, Note_on_c, 3, 62, 0
7, 255090, Note_on_c, 3, 64, 120
7, 255119, Note_on_c, 3, 64, 0
7, 255120, Note_on_c, 3, 62, 120
7, 255149, Note_on_c, 3, 62, 0
7, 255150, Note_on_c, 3, 64, 120
7, 255179, Note_on_c, 3, 64, 0
7, 255180, Note_on_c, 3, 66, 120
7, 255209, Note_on_c, 3, 66, 0
7, 255210, Note_on_c, 3, 64, 120
7, 255239, Note_on_c, 3, 64, 0
7, 255240, Note_on_c, 3, 62, 120
7, 255299, Note_on_c, 3, 62, 0
7, 255300, Note_on_c, 3, 57, 120
7, 255359, Note_on_c, 3, 57, 0
7, 255360, Note_on_c, 3, 54, 120
7, 255419, Note_on_c, 3, 54, 0
7, 255420, Note_on_c, 3, 57, 120
7, 255479, Note_on_c, 3, 57, 0
7, 255480, Note_on_c, 3, 54, 120
7, 255539, Note_on_c, 3, 54, 0
7, 255540, Note_on_c, 3, 50, 120
7, 255599, Note_on_c, 3, 50, 0
7, 255600, Note_on_c, 3, 54, 120
7, 255629, Note_on_c, 3, 54, 0
7, 255630, Note_on_c, 3, 57, 120
7, 255659, Note_on_c, 3, 57, 0
7, 255660, Note_on_c, 3, 62, 120
7, 255689, Note_on_c, 3, 62, 0
7, 255690, Note_on_c, 3, 64, 120
7, 255719, Note_on_c, 3, 64, 0
7, 255720, Note_on_c, 3, 66, 120
7, 255749, Note_on_c, 3, 66, 0
7, 255750, Note_on_c, 3, 64, 120
7, 255779, Note_on_c, 3, 64, 0
7, 255780, Note_on_c, 3, 62, 120
7, 255809, Note_on_c, 3, 62, 0
7, 255810, Note_on_c, 3, 64, 120
7, 255839, Note_on_c, 3, 64, 0
7, 255840, Note_on_c, 3, 62, 120
7, 255869, Note_on_c, 3, 62, 0
7, 255870, Note_on_c, 3, 64, 120
7, 255899, Note_on_c, 3, 64, 0
7, 255900, Note_on_c, 3, 66, 120
7, 255929, Note_on_c, 3, 66, 0
7, 255930, Note_on_c, 3, 64, 120
7, 255959, Note_on_c, 3, 64, 0
7, 255960, Note_on_c, 3, 62, 120
7, 256019, Note_on_c, 3, 62, 0
7, 256500, Note_on_c, 3, 54, 120
7, 256529, Note_on_c, 3, 54, 0
7, 256530, Note_on_c, 3, 57, 120
7, 256559, Note_on_c, 3, 57, 0
7, 256560, Note_on_c, 3, 54, 120
7, 256589, Note_on_c, 3, 54, 0
7, 256590, Note_on_c, 3, 57, 120
7, 256619, Note_on_c, 3, 57, 0
7, 256620, Note_on_c, 3, 62, 120
7, 256679, Note_on_c, 3, 62, 0
7, 256680, Note_on_c, 3, 64, 120
7, 256739, Note_on_c, 3, 64, 0
7, 256740, Note_on_c, 3, 57, 120
7, 256799, Note_on_c, 3, 57, 0
7, 256860, Note_on_c, 3, 57, 120
7, 256889, Note_on_c, 3, 57, 0
7, 256890, Note_on_c, 3, 62, 120
7, 256919, Note_on_c, 3, 62, 0
7, 256920, Note_on_c, 3, 57, 120
7, 256949, Note_on_c, 3, 57, 0
7, 256950, Note_on_c, 3, 62, 120
7, 256979, Note_on_c, 3, 62, 0
7, 256980, Note_on_c, 3, 64, 120
7, 257009, Note_on_c, 3, 64, 0
7, 257010, Note_on_c, 3, 57, 120
7, 257039, Note_on_c, 3, 57, 0
7, 257040, Note_on_c, 3, 62, 120
7, 257099, Note_on_c, 3, 62, 0
7, 257100, Note_on_c, 3, 66, 120
7, 257159, Note_on_c, 3, 66, 0
7, 257220, Note_on_c, 3, 62, 120
7, 257249, Note_on_c, 3, 62, 0
7, 257250, Note_on_c, 3, 64, 120
7, 257279, Note_on_c, 3, 64, 0
7, 257280, Note_on_c, 3, 62, 120
7, 257309, Note_on_c, 3, 62, 0
7, 257310, Note_on_c, 3, 64, 120
7, 257339, Note_on_c, 3, 64, 0
7, 257340, Note_on_c, 3, 66, 120
7, 257369, Note_on_c, 3, 66, 0
7, 257370, Note_on_c, 3, 64, 120
7, 257399, Note_on_c, 3, 64, 0
7, 257400, Note_on_c, 3, 62, 120
7, 257429, Note_on_c, 3, 62, 0
7, 257430, Note_on_c, 3, 64, 120
7, 257459, Note_on_c, 3, 64, 0
7, 257460, Note_on_c, 3, 62, 120
7, 257489, Note_on_c, 3, 62, 0
7, 257490, Note_on_c, 3, 64, 120
7, 257519, Note_on_c, 3, 64, 0
7, 257520, Note_on_c, 3, 66, 120
7, 257549, Note_on_c, 3, 66, 0
7, 257550, Note_on_c, 3, 62, 120
7, 257579, Note_on_c, 3, 62, 0
7, 257580, Note_on_c, 3, 64, 120
7, 257609, Note_on_c, 3, 64, 0
7, 257610, Note_on_c, 3, 62, 120
7, 257639, Note_on_c, 3, 62, 0
7, 257640, Note_on_c, 3, 64, 120
7, 257669, Note_on_c, 3, 64, 0
7, 257670, Note_on_c, 3, 57, 120
7, 257699, Note_on_c, 3, 57, 0
7, 257700, Note_on_c, 3, 62, 120
7, 257729, Note_on_c, 3, 62, 0
7, 257730, Note_on_c, 3, 64, 120
7, 257759, Note_on_c, 3, 64, 0
7, 257760, Note_on_c, 3, 66, 120
7, 257789, Note_on_c, 3, 66, 0
7, 257790, Note_on_c, 3, 62, 120
7, 257819, Note_on_c, 3, 62, 0
7, 257820, Note_on_c, 3, 64, 120
7, 257849, Note_on_c, 3, 64, 0
7, 257850, Note_on_c, 3, 66, 120
7, 257879, Note_on_c, 3, 66, 0
7, 257880, Note_on_c, 3, 62, 120
7, 257909, Note_on_c, 3, 62, 0
7, 257910, Note_on_c, 3, 64, 120
7, 257939, Note_on_c, 3, 64, 0
7, 257940, Note_on_c, 3, 66, 120
7, 257999, Note_on_c, 3, 66, 0
7, 258000, Note_on_c, 3, 66, 120
7, 258059, Note_on_c, 3, 66, 0
7, 258060, Note_on_c, 3, 62, 120
7, 258119, Note_on_c, 3, 62, 0
7, 258120, Note_on_c, 3, 66, 120
7, 258359, Note_on_c, 3, 66, 0
7, 258960, Note_on_c, 3, 66, 120
7, 259020, Note_on_c, 3, 66, 0
7, 259020, Note_on_c, 3, 67, 120
7, 259080, Note_on_c, 3, 67, 0
7, 259080, Note_on_c, 3, 62, 120
7, 259140, Note_on_c, 3, 62, 0
7, 259500, Note_on_c, 3, 57, 120
7, 259559, Note_on_c, 3, 57, 0
7, 259560, Note_on_c, 3, 66, 120
7, 259589, Note_on_c, 3, 66, 0
7, 259590, Note_on_c, 3, 67, 120
7, 259619, Note_on_c, 3, 67, 0
7, 259620, Note_on_c, 3, 66, 120
7, 259649, Note_on_c, 3, 66, 0
7, 259650, Note_on_c, 3, 67, 120
7, 259679, Note_on_c, 3, 67, 0
7, 259680, Note_on_c, 3, 69, 120
7, 259709, Note_on_c, 3, 69, 0
7, 259710, Note_on_c, 3, 67, 120
7, 259739, Note_on_c, 3, 67, 0
7, 259740, Note_on_c, 3, 66, 120
7, 259799, Note_on_c, 3, 66, 0
7, 259980, Note_on_c, 3, 67, 120
7, 260039, Note_on_c, 3, 67, 0
7, 260040, Note_on_c, 3, 64, 120
7, 260099, Note_on_c, 3, 64, 0
7, 260100, Note_on_c, 3, 64, 120
7, 260159, Note_on_c, 3, 64, 0
7, 260160, Note_on_c, 3, 67, 120
7, 260219, Note_on_c, 3, 67, 0
7, 260220, Note_on_c, 3, 64, 120
7, 260279, Note_on_c, 3, 64, 0
7, 260280, Note_on_c, 3, 64, 120
7, 260309, Note_on_c, 3, 64, 0
7, 260310, Note_on_c, 3, 66, 120
7, 260339, Note_on_c, 3, 66, 0
7, 260340, Note_on_c, 3, 64, 120
7, 260369, Note_on_c, 3, 64, 0
7, 260370, Note_on_c, 3, 66, 120
7, 260399, Note_on_c, 3, 66, 0
7, 260400, Note_on_c, 3, 67, 120
7, 260429, Note_on_c, 3, 67, 0
7, 260430, Note_on_c, 3, 66, 120
7, 260459, Note_on_c, 3, 66, 0
7, 260460, Note_on_c, 3, 64, 120
7, 260519, Note_on_c, 3, 64, 0
7, 260700, Note_on_c, 3, 66, 120
7, 260759, Note_on_c, 3, 66, 0
7, 260760, Note_on_c, 3, 62, 120
7, 260819, Note_on_c, 3, 62, 0
7, 260820, Note_on_c, 3, 62, 120
7, 260879, Note_on_c, 3, 62, 0
7, 260880, Note_on_c, 3, 66, 120
7, 260939, Note_on_c, 3, 66, 0
7, 260940, Note_on_c, 3, 62, 120
7, 260999, Note_on_c, 3, 62, 0
7, 261000, Note_on_c, 3, 67, 120
7, 261179, Note_on_c, 3, 67, 0
7, 261210, Note_on_c, 3, 66, 120
7, 261239, Note_on_c, 3, 66, 0
7, 261240, Note_on_c, 3, 67, 120
7, 261269, Note_on_c, 3, 67, 0
7, 261270, Note_on_c, 3, 69, 120
7, 261299, Note_on_c, 3, 69, 0
7, 261300, Note_on_c, 3, 67, 120
7, 261329, Note_on_c, 3, 67, 0
7, 261330, Note_on_c, 3, 69, 120
7, 261359, Note_on_c, 3, 69, 0
7, 261360, Note_on_c, 3, 66, 120
7, 261539, Note_on_c, 3, 66, 0
7, 261570, Note_on_c, 3, 64, 120
7, 261599, Note_on_c, 3, 64, 0
7, 261600, Note_on_c, 3, 66, 120
7, 261629, Note_on_c, 3, 66, 0
7, 261630, Note_on_c, 3, 67, 120
7, 261659, Note_on_c, 3, 67, 0
7, 261660, Note_on_c, 3, 66, 120
7, 261689, Note_on_c, 3, 66, 0
7, 261690, Note_on_c, 3, 67, 120
7, 261719, Note_on_c, 3, 67, 0
7, 261720, Note_on_c, 3, 64, 120
7, 261899, Note_on_c, 3, 64, 0
7, 261930, Note_on_c, 3, 62, 120
7, 261959, Note_on_c, 3, 62, 0
7, 261960, Note_on_c, 3, 64, 120
7, 261989, Note_on_c, 3, 64, 0
7, 261990, Note_on_c, 3, 66, 120
7, 262019, Note_on_c, 3, 66, 0
7, 262020, Note_on_c, 3, 64, 120
7, 262049, Note_on_c, 3, 64, 0
7, 262050, Note_on_c, 3, 66, 120
7, 262079, Note_on_c, 3, 66, 0
7, 262080, Note_on_c, 3, 62, 120
7, 262139, Note_on_c, 3, 62, 0
7, 262140, Note_on_c, 3, 66, 120
7, 262199, Note_on_c, 3, 66, 0
7, 262200, Note_on_c, 3, 62, 120
7, 262259, Note_on_c, 3, 62, 0
7, 262260, Note_on_c, 3, 57, 120
7, 262319, Note_on_c, 3, 57, 0
7, 262320, Note_on_c, 3, 54, 120
7, 262379, Note_on_c, 3, 54, 0
7, 262380, Note_on_c, 3, 57, 120
7, 262439, Note_on_c, 3, 57, 0
7, 262440, Note_on_c, 3, 57, 120
7, 262469, Note_on_c, 3, 57, 0
7, 262470, Note_on_c, 3, 62, 120
7, 262499, Note_on_c, 3, 62, 0
7, 262500, Note_on_c, 3, 57, 120
7, 262529, Note_on_c, 3, 57, 0
7, 262530, Note_on_c, 3, 62, 120
7, 262559, Note_on_c, 3, 62, 0
7, 262560, Note_on_c, 3, 64, 120
7, 262589, Note_on_c, 3, 64, 0
7, 262590, Note_on_c, 3, 62, 120
7, 262619, Note_on_c, 3, 62, 0
7, 262620, Note_on_c, 3, 57, 120
7, 262679, Note_on_c, 3, 57, 0
7, 262680, Note_on_c, 3, 64, 120
7, 262739, Note_on_c, 3, 64, 0
7, 262800, Note_on_c, 3, 62, 120
7, 262829, Note_on_c, 3, 62, 0
7, 262830, Note_on_c, 3, 64, 120
7, 262859, Note_on_c, 3, 64, 0
7, 262860, Note_on_c, 3, 62, 120
7, 262889, Note_on_c, 3, 62, 0
7, 262890, Note_on_c, 3, 64, 120
7, 262919, Note_on_c, 3, 64, 0
7, 262920, Note_on_c, 3, 66, 120
7, 262949, Note_on_c, 3, 66, 0
7, 262950, Note_on_c, 3, 64, 120
7, 262979, Note_on_c, 3, 64, 0
7, 262980, Note_on_c, 3, 62, 120
7, 263039, Note_on_c, 3, 62, 0
7, 263040, Note_on_c, 3, 66, 120
7, 263099, Note_on_c, 3, 66, 0
7, 263160, Note_on_c, 3, 68, 120
7, 263189, Note_on_c, 3, 68, 0
7, 263190, Note_on_c, 3, 69, 120
7, 263219, Note_on_c, 3, 69, 0
7, 263220, Note_on_c, 3, 68, 120
7, 263249, Note_on_c, 3, 68, 0
7, 263250, Note_on_c, 3, 69, 120
7, 263279, Note_on_c, 3, 69, 0
7, 263280, Note_on_c, 3, 71, 120
7, 263309, Note_on_c, 3, 71, 0
7, 263310, Note_on_c, 3, 68, 120
7, 263339, Note_on_c, 3, 68, 0
7, 263340, Note_on_c, 3, 69, 120
7, 263399, Note_on_c, 3, 69, 0
7, 263400, Note_on_c, 3, 64, 120
7, 263459, Note_on_c, 3, 64, 0
7, 263460, Note_on_c, 3, 62, 120
7, 263489, Note_on_c, 3, 62, 0
7, 263490, Note_on_c, 3, 57, 120
7, 263519, Note_on_c, 3, 57, 0
7, 263520, Note_on_c, 3, 62, 120
7, 263549, Note_on_c, 3, 62, 0
7, 263550, Note_on_c, 3, 57, 120
7, 263579, Note_on_c, 3, 57, 0
7, 263580, Note_on_c, 3, 57, 120
7, 263609, Note_on_c, 3, 57, 0
7, 263610, Note_on_c, 3, 54, 120
7, 263639, Note_on_c, 3, 54, 0
7, 263640, Note_on_c, 3, 57, 120
7, 263699, Note_on_c, 3, 57, 0
7, 263700, Note_on_c, 3, 54, 120
7, 263759, Note_on_c, 3, 54, 0
7, 265980, Note_on_c, 3, 66, 127
7, 266040, Note_on_c, 3, 66, 0
7, 266040, Note_on_c, 3, 62, 127
7, 266100, Note_on_c, 3, 62, 0
7, 266100, Note_on_c, 3, 57, 127
7, 266160, Note_on_c, 3, 57, 0
7, 266160, Note_on_c, 3, 54, 127
7, 266220, Note_on_c, 3, 54, 0
7, 266220, Note_on_c, 3, 57, 127
7, 266280, Note_on_c, 3, 57, 0
7, 266280, Note_on_c, 3, 54, 127
7, 266340, Note_on_c, 3, 54, 0
7, 266340, Note_on_c, 3, 50, 127
7, 266400, Note_on_c, 3, 50, 0
7, 266400, Note_on_c, 3, 54, 127
7, 266430, Note_on_c, 3, 54, 0
7, 266430, Note_on_c, 3, 57, 127
7, 266460, Note_on_c, 3, 57, 0
7, 266460, Note_on_c, 3, 62, 127
7, 266490, Note_on_c, 3, 62, 0
7, 266490, Note_on_c, 3, 64, 127
7, 266520, Note_on_c, 3, 64, 0
7, 266520, Note_on_c, 3, 66, 127
7, 266550, Note_on_c, 3, 66, 0
7, 266550, Note_on_c, 3, 64, 127
7, 266580, Note_on_c, 3, 64, 0
7, 266580, Note_on_c, 3, 62, 127
7, 266610, Note_on_c, 3, 62, 0
7, 266610, Note_on_c, 3, 64, 127
7, 266640, Note_on_c, 3, 64, 0
7, 266640, Note_on_c, 3, 62, 127
7, 266670, Note_on_c, 3, 62, 0
7, 266670, Note_on_c, 3, 64, 127
7, 266700, Note_on_c, 3, 64, 0
7, 266700, Note_on_c, 3, 66, 127
7, 266730, Note_on_c, 3, 66, 0
7, 266730, Note_on_c, 3, 64, 127
7, 266760, Note_on_c, 3, 64, 0
7, 266760, Note_on_c, 3, 62, 127
7, 267180, Note_on_c, 3, 62, 0
7, 267180, Note_on_c, 3, 50, 127
7, 267240, Note_on_c, 3, 50, 0
7, 267240, Note_on_c, 3, 54, 127
7, 267300, Note_on_c, 3, 54, 0
7, 267300, Note_on_c, 3, 57, 127
7, 267420, Note_on_c, 3, 57, 0
7, 267420, Note_on_c, 3, 64, 127
7, 267480, Note_on_c, 3, 64, 0
7, 267480, Note_on_c, 3, 66, 127
7, 267690, Note_on_c, 3, 66, 0
7, 267690, Note_on_c, 3, 64, 127
7, 267720, Note_on_c, 3, 64, 0
7, 267720, Note_on_c, 3, 66, 127
7, 267750, Note_on_c, 3, 66, 0
7, 267750, Note_on_c, 3, 67, 127
7, 267780, Note_on_c, 3, 67, 0
7, 267780, Note_on_c, 3, 66, 127
7, 267810, Note_on_c, 3, 66, 0
7, 267810, Note_on_c, 3, 67, 127
7, 267840, Note_on_c, 3, 67, 0
7, 267840, Note_on_c, 3, 64, 127
7, 267870, Note_on_c, 3, 64, 0
7, 267870, Note_on_c, 3, 66, 127
7, 267900, Note_on_c, 3, 66, 0
7, 267900, Note_on_c, 3, 64, 127
7, 267930, Note_on_c, 3, 64, 0
7, 267930, Note_on_c, 3, 66, 127
7, 267960, Note_on_c, 3, 66, 0
7, 267960, Note_on_c, 3, 67, 127
7, 267990, Note_on_c, 3, 67, 0
7, 267990, Note_on_c, 3, 66, 127
7, 268020, Note_on_c, 3, 66, 0
7, 268020, Note_on_c, 3, 64, 127
7, 268050, Note_on_c, 3, 64, 0
7, 268050, Note_on_c, 3, 66, 127
7, 268080, Note_on_c, 3, 66, 0
7, 268080, Note_on_c, 3, 64, 127
7, 268110, Note_on_c, 3, 64, 0
7, 268110, Note_on_c, 3, 66, 127
7, 268140, Note_on_c, 3, 66, 0
7, 268140, Note_on_c, 3, 67, 127
7, 268170, Note_on_c, 3, 67, 0
7, 268170, Note_on_c, 3, 66, 127
7, 268200, Note_on_c, 3, 66, 0
7, 268200, Note_on_c, 3, 64, 127
7, 268410, Note_on_c, 3, 64, 0
7, 268410, Note_on_c, 3, 62, 127
7, 268440, Note_on_c, 3, 62, 0
7, 268440, Note_on_c, 3, 64, 127
7, 268470, Note_on_c, 3, 64, 0
7, 268470, Note_on_c, 3, 66, 127
7, 268500, Note_on_c, 3, 66, 0
7, 268500, Note_on_c, 3, 64, 127
7, 268530, Note_on_c, 3, 64, 0
7, 268530, Note_on_c, 3, 66, 127
7, 268560, Note_on_c, 3, 66, 0
7, 268560, Note_on_c, 3, 62, 120
7, 268589, Note_on_c, 3, 62, 0
7, 268590, Note_on_c, 3, 64, 120
7, 268619, Note_on_c, 3, 64, 0
7, 268620, Note_on_c, 3, 62, 120
7, 268649, Note_on_c, 3, 62, 0
7, 268650, Note_on_c, 3, 64, 120
7, 268679, Note_on_c, 3, 64, 0
7, 268680, Note_on_c, 3, 66, 120
7, 268709, Note_on_c, 3, 66, 0
7, 268710, Note_on_c, 3, 64, 120
7, 268739, Note_on_c, 3, 64, 0
7, 268740, Note_on_c, 3, 62, 120
7, 268769, Note_on_c, 3, 62, 0
7, 268770, Note_on_c, 3, 64, 120
7, 268799, Note_on_c, 3, 64, 0
7, 268800, Note_on_c, 3, 62, 120
7, 268829, Note_on_c, 3, 62, 0
7, 268830, Note_on_c, 3, 64, 120
7, 268859, Note_on_c, 3, 64, 0
7, 268860, Note_on_c, 3, 66, 120
7, 268919, Note_on_c, 3, 66, 0
7, 268980, Note_on_c, 3, 67, 120
7, 269039, Note_on_c, 3, 67, 0
7, 269040, Note_on_c, 3, 71, 120
7, 269099, Note_on_c, 3, 71, 0
7, 269100, Note_on_c, 3, 64, 120
7, 269159, Note_on_c, 3, 64, 0
7, 269160, Note_on_c, 3, 67, 120
7, 269219, Note_on_c, 3, 67, 0
7, 269220, Note_on_c, 3, 73, 120
7, 269279, Note_on_c, 3, 73, 0
7, 269340, Note_on_c, 3, 66, 120
7, 269399, Note_on_c, 3, 66, 0
7, 269400, Note_on_c, 3, 69, 120
7, 269459, Note_on_c, 3, 69, 0
7, 269460, Note_on_c, 3, 62, 120
7, 269519, Note_on_c, 3, 62, 0
7, 269520, Note_on_c, 3, 66, 120
7, 269579, Note_on_c, 3, 66, 0
7, 269580, Note_on_c, 3, 71, 120
7, 269639, Note_on_c, 3, 71, 0
7, 269700, Note_on_c, 3, 64, 120
7, 269759, Note_on_c, 3, 64, 0
7, 269760, Note_on_c, 3, 67, 120
7, 269819, Note_on_c, 3, 67, 0
7, 269820, Note_on_c, 3, 57, 120
7, 269879, Note_on_c, 3, 57, 0
7, 269880, Note_on_c, 3, 64, 120
7, 269939, Note_on_c, 3, 64, 0
7, 269940, Note_on_c, 3, 69, 120
7, 269999, Note_on_c, 3, 69, 0
7, 270060, Note_on_c, 3, 62, 120
7, 270089, Note_on_c, 3, 62, 0
7, 270090, Note_on_c, 3, 64, 120
7, 270119, Note_on_c, 3, 64, 0
7, 270120, Note_on_c, 3, 62, 120
7, 270149, Note_on_c, 3, 62, 0
7, 270150, Note_on_c, 3, 64, 120
7, 270179, Note_on_c, 3, 64, 0
7, 270180, Note_on_c, 3, 66, 120
7, 270239, Note_on_c, 3, 66, 0
7, 270240, Note_on_c, 3, 62, 120
7, 270299, Note_on_c, 3, 62, 0
7, 270300, Note_on_c, 3, 57, 120
7, 270359, Note_on_c, 3, 57, 0
7, 270360, Note_on_c, 3, 57, 120
7, 270419, Note_on_c, 3, 57, 0
7, 270420, Note_on_c, 3, 64, 120
7, 270479, Note_on_c, 3, 64, 0
7, 270540, Note_on_c, 3, 57, 120
7, 270569, Note_on_c, 3, 57, 0
7, 270570, Note_on_c, 3, 62, 120
7, 270599, Note_on_c, 3, 62, 0
7, 270600, Note_on_c, 3, 57, 120
7, 270629, Note_on_c, 3, 57, 0
7, 270630, Note_on_c, 3, 62, 120
7, 270659, Note_on_c, 3, 62, 0
7, 270660, Note_on_c, 3, 64, 120
7, 270689, Note_on_c, 3, 64, 0
7, 270690, Note_on_c, 3, 57, 120
7, 270719, Note_on_c, 3, 57, 0
7, 270720, Note_on_c, 3, 62, 120
7, 270779, Note_on_c, 3, 62, 0
7, 270780, Note_on_c, 3, 66, 120
7, 270839, Note_on_c, 3, 66, 0
7, 270900, Note_on_c, 3, 62, 120
7, 270929, Note_on_c, 3, 62, 0
7, 270930, Note_on_c, 3, 64, 120
7, 270959, Note_on_c, 3, 64, 0
7, 270960, Note_on_c, 3, 62, 120
7, 270989, Note_on_c, 3, 62, 0
7, 270990, Note_on_c, 3, 64, 120
7, 271019, Note_on_c, 3, 64, 0
7, 271020, Note_on_c, 3, 66, 120
7, 271049, Note_on_c, 3, 66, 0
7, 271050, Note_on_c, 3, 64, 120
7, 271079, Note_on_c, 3, 64, 0
7, 271080, Note_on_c, 3, 62, 120
7, 271109, Note_on_c, 3, 62, 0
7, 271110, Note_on_c, 3, 64, 120
7, 271139, Note_on_c, 3, 64, 0
7, 271140, Note_on_c, 3, 62, 120
7, 271169, Note_on_c, 3, 62, 0
7, 271170, Note_on_c, 3, 64, 120
7, 271199, Note_on_c, 3, 64, 0
7, 271200, Note_on_c, 3, 66, 120
7, 271229, Note_on_c, 3, 66, 0
7, 271230, Note_on_c, 3, 62, 120
7, 271259, Note_on_c, 3, 62, 0
7, 271260, Note_on_c, 3, 64, 120
7, 271289, Note_on_c, 3, 64, 0
7, 271290, Note_on_c, 3, 62, 120
7, 271319, Note_on_c, 3, 62, 0
7, 271320, Note_on_c, 3, 64, 120
7, 271349, Note_on_c, 3, 64, 0
7, 271350, Note_on_c, 3, 57, 120
7, 271379, Note_on_c, 3, 57, 0
7, 271380, Note_on_c, 3, 62, 120
7, 271409, Note_on_c, 3, 62, 0
7, 271410, Note_on_c, 3, 64, 120
7, 271439, Note_on_c, 3, 64, 0
7, 271440, Note_on_c, 3, 66, 120
7, 271469, Note_on_c, 3, 66, 0
7, 271470, Note_on_c, 3, 62, 120
7, 271499, Note_on_c, 3, 62, 0
7, 271500, Note_on_c, 3, 64, 120
7, 271529, Note_on_c, 3, 64, 0
7, 271530, Note_on_c, 3, 66, 120
7, 271559, Note_on_c, 3, 66, 0
7, 271560, Note_on_c, 3, 62, 120
7, 271589, Note_on_c, 3, 62, 0
7, 271590, Note_on_c, 3, 64, 120
7, 271619, Note_on_c, 3, 64, 0
7, 271620, Note_on_c, 3, 66, 120
7, 271739, Note_on_c, 3, 66, 0
7, 321060, Note_on_c, 3, 62, 120
7, 321060, Note_on_c, 3, 66, 120
7, 321119, Note_on_c, 3, 66, 0
7, 321119, Note_on_c, 3, 62, 0
7, 321120, Note_on_c, 3, 64, 120
7, 321120, Note_on_c, 3, 67, 120
7, 321179, Note_on_c, 3, 67, 0
7, 321179, Note_on_c, 3, 64, 0
7, 321180, Note_on_c, 3, 62, 120
7, 321180, Note_on_c, 3, 66, 120
7, 321239, Note_on_c, 3, 66, 0
7, 321239, Note_on_c, 3, 62, 0
7, 321240, Note_on_c, 3, 64, 120
7, 321240, Note_on_c, 3, 67, 120
7, 321299, Note_on_c, 3, 67, 0
7, 321299, Note_on_c, 3, 64, 0
7, 321300, Note_on_c, 3, 66, 120
7, 321300, Note_on_c, 3, 69, 120
7, 321539, Note_on_c, 3, 69, 0
7, 321539, Note_on_c, 3, 66, 0
7, 321540, Note_on_c, 3, 57, 120
7, 321659, Note_on_c, 3, 57, 0
7, 321660, Note_on_c, 3, 57, 120
7, 321779, Note_on_c, 3, 57, 0
7, 321780, Note_on_c, 3, 57, 120
7, 321899, Note_on_c, 3, 57, 0
7, 321900, Note_on_c, 3, 57, 120
7, 322019, Note_on_c, 3, 57, 0
7, 322020, Note_on_c, 3, 57, 120
7, 322139, Note_on_c, 3, 57, 0
7, 322140, Note_on_c, 3, 57, 120
7, 322259, Note_on_c, 3, 57, 0
7, 322260, Note_on_c, 3, 57, 120
7, 322379, Note_on_c, 3, 57, 0
7, 322380, Note_on_c, 3, 57, 120
7, 322499, Note_on_c, 3, 57, 0
7, 322500, Note_on_c, 3, 62, 120
7, 322500, Note_on_c, 3, 66, 120
7, 322559, Note_on_c, 3, 66, 0
7, 322559, Note_on_c, 3, 62, 0
7, 322560, Note_on_c, 3, 64, 120
7, 322560, Note_on_c, 3, 67, 120
7, 322619, Note_on_c, 3, 67, 0
7, 322619, Note_on_c, 3, 64, 0
7, 322620, Note_on_c, 3, 62, 120
7, 322620, Note_on_c, 3, 66, 120
7, 322679, Note_on_c, 3, 66, 0
7, 322679, Note_on_c, 3, 62, 0
7, 322680, Note_on_c, 3, 64, 120
7, 322680, Note_on_c, 3, 67, 120
7, 322739, Note_on_c, 3, 67, 0
7, 322739, Note_on_c, 3, 64, 0
7, 322740, Note_on_c, 3, 66, 120
7, 322740, Note_on_c, 3, 69, 120
7, 322979, Note_on_c, 3, 69, 0
7, 322979, Note_on_c, 3, 66, 0
7, 322980, Note_on_c, 3, 50, 120
7, 323099, Note_on_c, 3, 50, 0
7, 323100, Note_on_c, 3, 50, 120
7, 323219, Note_on_c, 3, 50, 0
7, 323220, Note_on_c, 3, 50, 120
7, 323339, Note_on_c, 3, 50, 0
7, 323340, Note_on_c, 3, 50, 120
7, 323459, Note_on_c, 3, 50, 0
7, 323460, Note_on_c, 3, 50, 120
7, 323579, Note_on_c, 3, 50, 0
7, 323580, Note_on_c, 3, 50, 120
7, 323699, Note_on_c, 3, 50, 0
7, 323700, Note_on_c, 3, 50, 120
7, 323819, Note_on_c, 3, 50, 0
7, 323820, Note_on_c, 3, 50, 120
7, 323939, Note_on_c, 3, 50, 0
7, 323940, Note_on_c, 3, 62, 120
7, 323940, Note_on_c, 3, 66, 120
7, 323999, Note_on_c, 3, 66, 0
7, 323999, Note_on_c, 3, 62, 0
7, 324000, Note_on_c, 3, 64, 120
7, 324000, Note_on_c, 3, 67, 120
7, 324059, Note_on_c, 3, 67, 0
7, 324059, Note_on_c, 3, 64, 0
7, 324060, Note_on_c, 3, 62, 120
7, 324060, Note_on_c, 3, 66, 120
7, 324119, Note_on_c, 3, 66, 0
7, 324119, Note_on_c, 3, 62, 0
7, 324120, Note_on_c, 3, 64, 120
7, 324120, Note_on_c, 3, 67, 120
7, 324179, Note_on_c, 3, 67, 0
7, 324179, Note_on_c, 3, 64, 0
7, 324180, Note_on_c, 3, 66, 120
7, 324180, Note_on_c, 3, 69, 120
7, 324419, Note_on_c, 3, 69, 0
7, 324419, Note_on_c, 3, 66, 0
7, 324420, Note_on_c, 3, 66, 120
7, 324420, Note_on_c, 3, 62, 120
7, 324479, Note_on_c, 3, 62, 0
7, 324479, Note_on_c, 3, 66, 0
7, 324480, Note_on_c, 3, 67, 120
7, 324480, Note_on_c, 3, 64, 120
7, 324539, Note_on_c, 3, 64, 0
7, 324539, Note_on_c, 3, 67, 0
7, 324540, Note_on_c, 3, 66, 120
7, 324540, Note_on_c, 3, 62, 120
7, 324599, Note_on_c, 3, 62, 0
7, 324599, Note_on_c, 3, 66, 0
7, 324600, Note_on_c, 3, 64, 120
7, 324600, Note_on_c, 3, 67, 120
7, 324659, Note_on_c, 3, 67, 0
7, 324659, Note_on_c, 3, 64, 0
7, 324660, Note_on_c, 3, 66, 120
7, 324660, Note_on_c, 3, 69, 120
7, 324719, Note_on_c, 3, 69, 0
7, 324719, Note_on_c, 3, 66, 0
7, 324720, Note_on_c, 3, 64, 120
7, 324720, Note_on_c, 3, 67, 120
7, 324779, Note_on_c, 3, 67, 0
7, 324779, Note_on_c, 3, 64, 0
7, 324780, Note_on_c, 3, 66, 120
7, 324780, Note_on_c, 3, 69, 120
7, 324839, Note_on_c, 3, 69, 0
7, 324839, Note_on_c, 3, 66, 0
7, 324840, Note_on_c, 3, 64, 120
7, 324840, Note_on_c, 3, 67, 120
7, 324899, Note_on_c, 3, 67, 0
7, 324899, Note_on_c, 3, 64, 0
7, 324900, Note_on_c, 3, 62, 120
7, 324900, Note_on_c, 3, 66, 120
7, 324959, Note_on_c, 3, 66, 0
7, 324959, Note_on_c, 3, 62, 0
7, 324960, Note_on_c, 3, 64, 120
7, 324960, Note_on_c, 3, 67, 120
7, 325019, Note_on_c, 3, 67, 0
7, 325019, Note_on_c, 3, 64, 0
7, 325020, Note_on_c, 3, 62, 120
7, 325020, Note_on_c, 3, 66, 120
7, 325079, Note_on_c, 3, 66, 0
7, 325079, Note_on_c, 3, 62, 0
7, 325080, Note_on_c, 3, 64, 120
7, 325080, Note_on_c, 3, 67, 120
7, 325139, Note_on_c, 3, 67, 0
7, 325139, Note_on_c, 3, 64, 0
7, 325140, Note_on_c, 3, 66, 120
7, 325140, Note_on_c, 3, 69, 120
7, 325199, Note_on_c, 3, 69, 0
7, 325199, Note_on_c, 3, 66, 0
7, 325200, Note_on_c, 3, 64, 120
7, 325200, Note_on_c, 3, 67, 120
7, 325259, Note_on_c, 3, 67, 0
7, 325259, Note_on_c, 3, 64, 0
7, 325260, Note_on_c, 3, 66, 120
7, 325260, Note_on_c, 3, 69, 120
7, 325319, Note_on_c, 3, 69, 0
7, 325319, Note_on_c, 3, 66, 0
7, 325320, Note_on_c, 3, 64, 120
7, 325320, Note_on_c, 3, 67, 120
7, 325379, Note_on_c, 3, 67, 0
7, 325379, Note_on_c, 3, 64, 0
7, 325380, Note_on_c, 3, 62, 120
7, 325380, Note_on_c, 3, 66, 120
7, 325499, Note_on_c, 3, 66, 0
7, 325499, Note_on_c, 3, 62, 0
7, 325500, Note_on_c, 3, 66, 120
7, 325500, Note_on_c, 3, 69, 120
7, 325559, Note_on_c, 3, 69, 0
7, 325559, Note_on_c, 3, 66, 0
7, 325560, Note_on_c, 3, 64, 120
7, 325560, Note_on_c, 3, 67, 120
7, 325619, Note_on_c, 3, 67, 0
7, 325619, Note_on_c, 3, 64, 0
7, 325620, Note_on_c, 3, 67, 120
7, 325620, Note_on_c, 3, 71, 120
7, 325739, Note_on_c, 3, 71, 0
7, 325739, Note_on_c, 3, 67, 0
7, 325740, Note_on_c, 3, 66, 120
7, 325740, Note_on_c, 3, 69, 120
7, 325799, Note_on_c, 3, 69, 0
7, 325799, Note_on_c, 3, 66, 0
7, 325800, Note_on_c, 3, 64, 120
7, 325800, Note_on_c, 3, 67, 120
7, 325859, Note_on_c, 3, 67, 0
7, 325859, Note_on_c, 3, 64, 0
7, 325860, Note_on_c, 3, 66, 120
7, 325860, Note_on_c, 3, 69, 120
7, 325979, Note_on_c, 3, 69, 0
7, 325979, Note_on_c, 3, 66, 0
7, 325980, Note_on_c, 3, 64, 120
7, 325980, Note_on_c, 3, 67, 120
7, 326039, Note_on_c, 3, 67, 0
7, 326039, Note_on_c, 3, 64, 0
7, 326040, Note_on_c, 3, 62, 120
7, 326040, Note_on_c, 3, 66, 120
7, 326099, Note_on_c, 3, 66, 0
7, 326099, Note_on_c, 3, 62, 0
7, 326100, Note_on_c, 3, 57, 120
7, 326100, Note_on_c, 3, 64, 120
7, 326339, Note_on_c, 3, 64, 0
7, 326339, Note_on_c, 3, 57, 0
7, 326340, Note_on_c, 3, 69, 120
7, 326340, Note_on_c, 3, 73, 120
7, 326399, Note_on_c, 3, 73, 0
7, 326399, Note_on_c, 3, 69, 0
7, 326400, Note_on_c, 3, 68, 120
7, 326400, Note_on_c, 3, 71, 120
7, 326459, Note_on_c, 3, 71, 0
7, 326459, Note_on_c, 3, 68, 0
7, 326460, Note_on_c, 3, 73, 120
7, 326460, Note_on_c, 3, 69, 120
7, 326519, Note_on_c, 3, 69, 0
7, 326519, Note_on_c, 3, 73, 0
7, 326520, Note_on_c, 3, 68, 120
7, 326520, Note_on_c, 3, 71, 120
7, 326579, Note_on_c, 3, 71, 0
7, 326579, Note_on_c, 3, 68, 0
7, 326580, Note_on_c, 3, 73, 120
7, 326580, Note_on_c, 3, 69, 120
7, 326819, Note_on_c, 3, 69, 0
7, 326819, Note_on_c, 3, 73, 0
7, 326820, Note_on_c, 3, 64, 120
7, 326939, Note_on_c, 3, 64, 0
7, 326940, Note_on_c, 3, 64, 120
7, 327059, Note_on_c, 3, 64, 0
7, 327060, Note_on_c, 3, 64, 120
7, 327179, Note_on_c, 3, 64, 0
7, 327180, Note_on_c, 3, 64, 120
7, 327299, Note_on_c, 3, 64, 0
7, 327300, Note_on_c, 3, 64, 120
7, 327419, Note_on_c, 3, 64, 0
7, 327420, Note_on_c, 3, 64, 120
7, 327539, Note_on_c, 3, 64, 0
7, 327540, Note_on_c, 3, 64, 120
7, 327659, Note_on_c, 3, 64, 0
7, 327660, Note_on_c, 3, 64, 120
7, 327779, Note_on_c, 3, 64, 0
7, 327780, Note_on_c, 3, 73, 120
7, 327780, Note_on_c, 3, 69, 120
7, 327839, Note_on_c, 3, 69, 0
7, 327839, Note_on_c, 3, 73, 0
7, 327840, Note_on_c, 3, 68, 120
7, 327840, Note_on_c, 3, 71, 120
7, 327899, Note_on_c, 3, 71, 0
7, 327899, Note_on_c, 3, 68, 0
7, 327900, Note_on_c, 3, 73, 120
7, 327900, Note_on_c, 3, 69, 120
7, 327959, Note_on_c, 3, 69, 0
7, 327959, Note_on_c, 3, 73, 0
7, 327960, Note_on_c, 3, 68, 120
7, 327960, Note_on_c, 3, 71, 120
7, 328019, Note_on_c, 3, 71, 0
7, 328019, Note_on_c, 3, 68, 0
7, 328020, Note_on_c, 3, 73, 120
7, 328020, Note_on_c, 3, 69, 120
7, 328259, Note_on_c, 3, 69, 0
7, 328259, Note_on_c, 3, 73, 0
7, 328260, Note_on_c, 3, 57, 120
7, 328379, Note_on_c, 3, 57, 0
7, 328380, Note_on_c, 3, 57, 120
7, 328499, Note_on_c, 3, 57, 0
7, 328500, Note_on_c, 3, 57, 120
7, 328619, Note_on_c, 3, 57, 0
7, 328620, Note_on_c, 3, 57, 120
7, 328739, Note_on_c, 3, 57, 0
7, 328740, Note_on_c, 3, 57, 120
7, 328859, Note_on_c, 3, 57, 0
7, 328860, Note_on_c, 3, 57, 120
7, 328979, Note_on_c, 3, 57, 0
7, 328980, Note_on_c, 3, 57, 120
7, 329099, Note_on_c, 3, 57, 0
7, 329100, Note_on_c, 3, 57, 120
7, 329219, Note_on_c, 3, 57, 0
7, 329220, Note_on_c, 3, 73, 120
7, 329220, Note_on_c, 3, 69, 120
7, 329279, Note_on_c, 3, 69, 0
7, 329279, Note_on_c, 3, 73, 0
7, 329280, Note_on_c, 3, 68, 120
7, 329280, Note_on_c, 3, 71, 120
7, 329339, Note_on_c, 3, 71, 0
7, 329339, Note_on_c, 3, 68, 0
7, 329340, Note_on_c, 3, 69, 120
7, 329340, Note_on_c, 3, 73, 120
7, 329399, Note_on_c, 3, 73, 0
7, 329399, Note_on_c, 3, 69, 0
7, 329400, Note_on_c, 3, 68, 120
7, 329400, Note_on_c, 3, 71, 120
7, 329459, Note_on_c, 3, 71, 0
7, 329459, Note_on_c, 3, 68, 0
7, 329460, Note_on_c, 3, 73, 120
7, 329460, Note_on_c, 3, 69, 120
7, 329699, Note_on_c, 3, 69, 0
7, 329699, Note_on_c, 3, 73, 0
7, 329700, Note_on_c, 3, 67, 120
7, 329700, Note_on_c, 3, 64, 120
7, 329759, Note_on_c, 3, 64, 0
7, 329759, Note_on_c, 3, 67, 0
7, 329760, Note_on_c, 3, 62, 120
7, 329760, Note_on_c, 3, 66, 120
7, 329819, Note_on_c, 3, 66, 0
7, 329819, Note_on_c, 3, 62, 0
7, 329820, Note_on_c, 3, 64, 120
7, 329820, Note_on_c, 3, 67, 120
7, 329879, Note_on_c, 3, 67, 0
7, 329879, Note_on_c, 3, 64, 0
7, 329880, Note_on_c, 3, 66, 120
7, 329880, Note_on_c, 3, 62, 120
7, 329939, Note_on_c, 3, 62, 0
7, 329939, Note_on_c, 3, 66, 0
7, 329940, Note_on_c, 3, 57, 120
7, 329940, Note_on_c, 3, 64, 120
7, 329999, Note_on_c, 3, 64, 0
7, 329999, Note_on_c, 3, 57, 0
7, 330000, Note_on_c, 3, 62, 120
7, 330000, Note_on_c, 3, 66, 120
7, 330059, Note_on_c, 3, 66, 0
7, 330059, Note_on_c, 3, 62, 0
7, 330060, Note_on_c, 3, 64, 120
7, 330060, Note_on_c, 3, 57, 120
7, 330119, Note_on_c, 3, 57, 0
7, 330119, Note_on_c, 3, 64, 0
7, 330120, Note_on_c, 3, 66, 120
7, 330120, Note_on_c, 3, 62, 120
7, 330179, Note_on_c, 3, 62, 0
7, 330179, Note_on_c, 3, 66, 0
7, 330180, Note_on_c, 3, 64, 120
7, 330180, Note_on_c, 3, 67, 120
7, 330239, Note_on_c, 3, 67, 0
7, 330239, Note_on_c, 3, 64, 0
7, 330240, Note_on_c, 3, 62, 120
7, 330240, Note_on_c, 3, 66, 120
7, 330299, Note_on_c, 3, 66, 0
7, 330299, Note_on_c, 3, 62, 0
7, 330300, Note_on_c, 3, 64, 120
7, 330300, Note_on_c, 3, 67, 120
7, 330359, Note_on_c, 3, 67, 0
7, 330359, Note_on_c, 3, 64, 0
7, 330360, Note_on_c, 3, 62, 120
7, 330360, Note_on_c, 3, 66, 120
7, 330419, Note_on_c, 3, 66, 0
7, 330419, Note_on_c, 3, 62, 0
7, 330420, Note_on_c, 3, 57, 120
7, 330420, Note_on_c, 3, 64, 120
7, 330479, Note_on_c, 3, 64, 0
7, 330479, Note_on_c, 3, 57, 0
7, 330480, Note_on_c, 3, 66, 120
7, 330480, Note_on_c, 3, 62, 120
7, 330539, Note_on_c, 3, 62, 0
7, 330539, Note_on_c, 3, 66, 0
7, 330540, Note_on_c, 3, 64, 120
7, 330540, Note_on_c, 3, 57, 120
7, 330599, Note_on_c, 3, 57, 0
7, 330599, Note_on_c, 3, 64, 0
7, 330600, Note_on_c, 3, 66, 120
7, 330600, Note_on_c, 3, 62, 120
7, 330659, Note_on_c, 3, 62, 0
7, 330659, Note_on_c, 3, 66, 0
7, 330660, Note_on_c, 3, 62, 120
7, 330660, Note_on_c, 3, 54, 120
7, 330719, Note_on_c, 3, 54, 0
7, 330719, Note_on_c, 3, 62, 0
7, 330720, Note_on_c, 3, 57, 120
7, 330720, Note_on_c, 3, 64, 120
7, 330779, Note_on_c, 3, 64, 0
7, 330779, Note_on_c, 3, 57, 0
7, 330780, Note_on_c, 3, 66, 120
7, 330780, Note_on_c, 3, 62, 120
7, 330839, Note_on_c, 3, 62, 0
7, 330839, Note_on_c, 3, 66, 0
7, 330840, Note_on_c, 3, 64, 120
7, 330840, Note_on_c, 3, 67, 120
7, 330899, Note_on_c, 3, 67, 0
7, 330899, Note_on_c, 3, 64, 0
7, 330900, Note_on_c, 3, 69, 120
7, 330900, Note_on_c, 3, 66, 120
7, 330959, Note_on_c, 3, 66, 0
7, 330960, Note_on_c, 3, 64, 120
7, 331019, Note_on_c, 3, 64, 0
7, 331020, Note_on_c, 3, 69, 0
7, 331020, Note_on_c, 3, 62, 120
7, 331020, Note_on_c, 3, 71, 120
7, 331079, Note_on_c, 3, 71, 0
7, 331079, Note_on_c, 3, 62, 0
7, 331080, Note_on_c, 3, 64, 120
7, 331080, Note_on_c, 3, 69, 120
7, 331139, Note_on_c, 3, 69, 0
7, 331139, Note_on_c, 3, 64, 0
7, 331140, Note_on_c, 3, 57, 120
7, 331140, Note_on_c, 3, 67, 120
7, 331199, Note_on_c, 3, 67, 0
7, 331200, Note_on_c, 3, 66, 120
7, 331259, Note_on_c, 3, 66, 0
7, 331260, Note_on_c, 3, 57, 0
7, 331260, Note_on_c, 3, 57, 120
7, 331260, Note_on_c, 3, 64, 120
7, 331319, Note_on_c, 3, 64, 0
7, 331320, Note_on_c, 3, 66, 120
7, 331379, Note_on_c, 3, 66, 0
7, 331380, Note_on_c, 3, 57, 0
7, 331380, Note_on_c, 3, 54, 120
7, 331380, Note_on_c, 3, 62, 120
7, 331619, Note_on_c, 3, 62, 0
7, 331619, Note_on_c, 3, 54, 0
7, 332100, Note_on_c, 3, 57, 120
7, 332219, Note_on_c, 3, 57, 0
7, 332220, Note_on_c, 3, 57, 120
7, 332339, Note_on_c, 3, 57, 0
7, 332340, Note_on_c, 3, 57, 120
7, 332459, Note_on_c, 3, 57, 0
7, 332460, Note_on_c, 3, 57, 120
7, 332579, Note_on_c, 3, 57, 0
7, 332580, Note_on_c, 3, 57, 120
7, 332699, Note_on_c, 3, 57, 0
7, 332700, Note_on_c, 3, 57, 120
7, 332819, Note_on_c, 3, 57, 0
7, 332820, Note_on_c, 3, 57, 120
7, 332939, Note_on_c, 3, 57, 0
7, 332940, Note_on_c, 3, 57, 120
7, 333059, Note_on_c, 3, 57, 0
7, 333060, Note_on_c, 3, 62, 120
7, 333060, Note_on_c, 3, 66, 120
7, 333119, Note_on_c, 3, 66, 0
7, 333119, Note_on_c, 3, 62, 0
7, 333120, Note_on_c, 3, 64, 120
7, 333120, Note_on_c, 3, 67, 120
7, 333179, Note_on_c, 3, 67, 0
7, 333179, Note_on_c, 3, 64, 0
7, 333180, Note_on_c, 3, 66, 120
7, 333180, Note_on_c, 3, 62, 120
7, 333239, Note_on_c, 3, 62, 0
7, 333239, Note_on_c, 3, 66, 0
7, 333240, Note_on_c, 3, 64, 120
7, 333240, Note_on_c, 3, 67, 120
7, 333299, Note_on_c, 3, 67, 0
7, 333299, Note_on_c, 3, 64, 0
7, 333300, Note_on_c, 3, 66, 120
7, 333300, Note_on_c, 3, 69, 120
7, 333539, Note_on_c, 3, 69, 0
7, 333539, Note_on_c, 3, 66, 0
7, 333540, Note_on_c, 3, 50, 120
7, 333659, Note_on_c, 3, 50, 0
7, 333660, Note_on_c, 3, 50, 120
7, 333779, Note_on_c, 3, 50, 0
7, 333780, Note_on_c, 3, 50, 120
7, 333899, Note_on_c, 3, 50, 0
7, 333900, Note_on_c, 3, 50, 120
7, 334019, Note_on_c, 3, 50, 0
7, 334020, Note_on_c, 3, 50, 120
7, 334139, Note_on_c, 3, 50, 0
7, 334140, Note_on_c, 3, 50, 120
7, 334259, Note_on_c, 3, 50, 0
7, 334260, Note_on_c, 3, 50, 120
7, 334379, Note_on_c, 3, 50, 0
7, 334380, Note_on_c, 3, 50, 120
7, 334499, Note_on_c, 3, 50, 0
7, 334500, Note_on_c, 3, 62, 120
7, 334500, Note_on_c, 3, 66, 120
7, 334559, Note_on_c, 3, 66, 0
7, 334559, Note_on_c, 3, 62, 0
7, 334560, Note_on_c, 3, 64, 120
7, 334560, Note_on_c, 3, 67, 120
7, 334619, Note_on_c, 3, 67, 0
7, 334619, Note_on_c, 3, 64, 0
7, 334620, Note_on_c, 3, 62, 120
7, 334620, Note_on_c, 3, 66, 120
7, 334679, Note_on_c, 3, 66, 0
7, 334679, Note_on_c, 3, 62, 0
7, 334680, Note_on_c, 3, 64, 120
7, 334680, Note_on_c, 3, 67, 120
7, 334739, Note_on_c, 3, 67, 0
7, 334739, Note_on_c, 3, 64, 0
7, 334740, Note_on_c, 3, 66, 120
7, 334740, Note_on_c, 3, 69, 120
7, 334979, Note_on_c, 3, 69, 0
7, 334979, Note_on_c, 3, 66, 0
7, 334980, Note_on_c, 3, 62, 120
7, 334980, Note_on_c, 3, 66, 120
7, 335039, Note_on_c, 3, 66, 0
7, 335039, Note_on_c, 3, 62, 0
7, 335040, Note_on_c, 3, 64, 120
7, 335040, Note_on_c, 3, 67, 120
7, 335099, Note_on_c, 3, 67, 0
7, 335099, Note_on_c, 3, 64, 0
7, 335100, Note_on_c, 3, 66, 120
7, 335100, Note_on_c, 3, 62, 120
7, 335159, Note_on_c, 3, 62, 0
7, 335159, Note_on_c, 3, 66, 0
7, 335160, Note_on_c, 3, 64, 120
7, 335160, Note_on_c, 3, 67, 120
7, 335219, Note_on_c, 3, 67, 0
7, 335219, Note_on_c, 3, 64, 0
7, 335220, Note_on_c, 3, 66, 120
7, 335220, Note_on_c, 3, 69, 120
7, 335279, Note_on_c, 3, 69, 0
7, 335279, Note_on_c, 3, 66, 0
7, 335280, Note_on_c, 3, 64, 120
7, 335280, Note_on_c, 3, 67, 120
7, 335339, Note_on_c, 3, 67, 0
7, 335339, Note_on_c, 3, 64, 0
7, 335340, Note_on_c, 3, 66, 120
7, 335340, Note_on_c, 3, 69, 120
7, 335399, Note_on_c, 3, 69, 0
7, 335399, Note_on_c, 3, 66, 0
7, 335400, Note_on_c, 3, 64, 120
7, 335400, Note_on_c, 3, 67, 120
7, 335459, Note_on_c, 3, 67, 0
7, 335459, Note_on_c, 3, 64, 0
7, 335460, Note_on_c, 3, 62, 120
7, 335460, Note_on_c, 3, 66, 120
7, 335519, Note_on_c, 3, 66, 0
7, 335519, Note_on_c, 3, 62, 0
7, 335520, Note_on_c, 3, 64, 120
7, 335520, Note_on_c, 3, 67, 120
7, 335579, Note_on_c, 3, 67, 0
7, 335579, Note_on_c, 3, 64, 0
7, 335580, Note_on_c, 3, 62, 120
7, 335580, Note_on_c, 3, 66, 120
7, 335639, Note_on_c, 3, 66, 0
7, 335639, Note_on_c, 3, 62, 0
7, 335640, Note_on_c, 3, 64, 120
7, 335640, Note_on_c, 3, 67, 120
7, 335699, Note_on_c, 3, 67, 0
7, 335699, Note_on_c, 3, 64, 0
7, 335700, Note_on_c, 3, 66, 120
7, 335700, Note_on_c, 3, 69, 120
7, 335759, Note_on_c, 3, 69, 0
7, 335759, Note_on_c, 3, 66, 0
7, 335760, Note_on_c, 3, 64, 120
7, 335760, Note_on_c, 3, 67, 120
7, 335819, Note_on_c, 3, 67, 0
7, 335819, Note_on_c, 3, 64, 0
7, 335820, Note_on_c, 3, 66, 120
7, 335820, Note_on_c, 3, 69, 120
7, 335879, Note_on_c, 3, 69, 0
7, 335879, Note_on_c, 3, 66, 0
7, 335880, Note_on_c, 3, 64, 120
7, 335880, Note_on_c, 3, 67, 120
7, 335939, Note_on_c, 3, 67, 0
7, 335939, Note_on_c, 3, 64, 0
7, 335940, Note_on_c, 3, 66, 120
7, 335940, Note_on_c, 3, 62, 120
7, 336059, Note_on_c, 3, 62, 0
7, 336059, Note_on_c, 3, 66, 0
7, 336060, Note_on_c, 3, 66, 120
7, 336060, Note_on_c, 3, 69, 120
7, 336119, Note_on_c, 3, 69, 0
7, 336119, Note_on_c, 3, 66, 0
7, 336120, Note_on_c, 3, 64, 120
7, 336120, Note_on_c, 3, 67, 120
7, 336179, Note_on_c, 3, 67, 0
7, 336179, Note_on_c, 3, 64, 0
7, 336180, Note_on_c, 3, 67, 120
7, 336180, Note_on_c, 3, 71, 120
7, 336299, Note_on_c, 3, 71, 0
7, 336299, Note_on_c, 3, 67, 0
7, 336300, Note_on_c, 3, 69, 120
7, 336300, Note_on_c, 3, 66, 120
7, 336359, Note_on_c, 3, 66, 0
7, 336359, Note_on_c, 3, 69, 0
7, 336360, Note_on_c, 3, 67, 120
7, 336360, Note_on_c, 3, 64, 120
7, 336419, Note_on_c, 3, 64, 0
7, 336419, Note_on_c, 3, 67, 0
7, 336420, Note_on_c, 3, 66, 120
7, 336420, Note_on_c, 3, 69, 120
7, 336539, Note_on_c, 3, 69, 0
7, 336539, Note_on_c, 3, 66, 0
7, 336540, Note_on_c, 3, 64, 120
7, 336540, Note_on_c, 3, 67, 120
7, 336599, Note_on_c, 3, 67, 0
7, 336599, Note_on_c, 3, 64, 0
7, 336600, Note_on_c, 3, 66, 120
7, 336600, Note_on_c, 3, 62, 120
7, 336659, Note_on_c, 3, 62, 0
7, 336659, Note_on_c, 3, 66, 0
7, 336660, Note_on_c, 3, 64, 120
7, 336660, Note_on_c, 3, 57, 120
7, 336899, Note_on_c, 3, 57, 0
7, 336899, Note_on_c, 3, 64, 0
7, 336900, Note_on_c, 3, 57, 120
7, 336900, Note_on_c, 3, 69, 120
7, 336959, Note_on_c, 3, 69, 0
7, 336960, Note_on_c, 3, 71, 120
7, 337019, Note_on_c, 3, 71, 0
7, 337020, Note_on_c, 3, 57, 0
7, 337020, Note_on_c, 3, 64, 120
7, 337020, Note_on_c, 3, 69, 120
7, 337079, Note_on_c, 3, 69, 0
7, 337080, Note_on_c, 3, 71, 120
7, 337139, Note_on_c, 3, 71, 0
7, 337140, Note_on_c, 3, 64, 0
7, 337140, Note_on_c, 3, 69, 120
7, 337140, Note_on_c, 3, 73, 120
7, 337379, Note_on_c, 3, 73, 0
7, 337379, Note_on_c, 3, 69, 0
7, 338820, Note_on_c, 3, 57, 120
7, 338939, Note_on_c, 3, 57, 0
7, 338940, Note_on_c, 3, 57, 120
7, 339059, Note_on_c, 3, 57, 0
7, 339060, Note_on_c, 3, 57, 120
7, 339179, Note_on_c, 3, 57, 0
7, 339180, Note_on_c, 3, 57, 120
7, 339299, Note_on_c, 3, 57, 0
7, 339300, Note_on_c, 3, 57, 120
7, 339419, Note_on_c, 3, 57, 0
7, 339420, Note_on_c, 3, 57, 120
7, 339539, Note_on_c, 3, 57, 0
7, 339540, Note_on_c, 3, 57, 120
7, 339659, Note_on_c, 3, 57, 0
7, 339660, Note_on_c, 3, 57, 120
7, 339779, Note_on_c, 3, 57, 0
7, 339780, Note_on_c, 3, 64, 120
7, 339780, Note_on_c, 3, 69, 120
7, 339839, Note_on_c, 3, 69, 0
7, 339840, Note_on_c, 3, 71, 120
7, 339899, Note_on_c, 3, 71, 0
7, 339900, Note_on_c, 3, 64, 0
7, 339900, Note_on_c, 3, 64, 120
7, 339900, Note_on_c, 3, 69, 120
7, 339959, Note_on_c, 3, 69, 0
7, 339959, Note_on_c, 3, 64, 0
7, 339960, Note_on_c, 3, 68, 120
7, 339960, Note_on_c, 3, 71, 120
7, 340019, Note_on_c, 3, 71, 0
7, 340019, Note_on_c, 3, 68, 0
7, 340020, Note_on_c, 3, 73, 120
7, 340020, Note_on_c, 3, 69, 120
7, 340259, Note_on_c, 3, 69, 0
7, 340259, Note_on_c, 3, 73, 0
7, 340260, Note_on_c, 3, 67, 120
7, 340260, Note_on_c, 3, 64, 120
7, 340319, Note_on_c, 3, 64, 0
7, 340319, Note_on_c, 3, 67, 0
7, 340320, Note_on_c, 3, 62, 120
7, 340320, Note_on_c, 3, 66, 120
7, 340379, Note_on_c, 3, 66, 0
7, 340379, Note_on_c, 3, 62, 0
7, 340380, Note_on_c, 3, 64, 120
7, 340380, Note_on_c, 3, 67, 120
7, 340439, Note_on_c, 3, 67, 0
7, 340439, Note_on_c, 3, 64, 0
7, 340440, Note_on_c, 3, 62, 120
7, 340440, Note_on_c, 3, 66, 120
7, 340499, Note_on_c, 3, 66, 0
7, 340499, Note_on_c, 3, 62, 0
7, 340500, Note_on_c, 3, 57, 120
7, 340500, Note_on_c, 3, 64, 120
7, 340559, Note_on_c, 3, 64, 0
7, 340559, Note_on_c, 3, 57, 0
7, 340560, Note_on_c, 3, 66, 120
7, 340560, Note_on_c, 3, 62, 120
7, 340619, Note_on_c, 3, 62, 0
7, 340619, Note_on_c, 3, 66, 0
7, 340620, Note_on_c, 3, 64, 120
7, 340620, Note_on_c, 3, 57, 120
7, 340679, Note_on_c, 3, 57, 0
7, 340679, Note_on_c, 3, 64, 0
7, 340680, Note_on_c, 3, 66, 120
7, 340680, Note_on_c, 3, 62, 120
7, 340739, Note_on_c, 3, 62, 0
7, 340739, Note_on_c, 3, 66, 0
7, 340740, Note_on_c, 3, 64, 120
7, 340740, Note_on_c, 3, 67, 120
7, 340799, Note_on_c, 3, 67, 0
7, 340799, Note_on_c, 3, 64, 0
7, 340800, Note_on_c, 3, 62, 120
7, 340800, Note_on_c, 3, 66, 120
7, 340859, Note_on_c, 3, 66, 0
7, 340859, Note_on_c, 3, 62, 0
7, 340860, Note_on_c, 3, 64, 120
7, 340860, Note_on_c, 3, 67, 120
7, 340919, Note_on_c, 3, 67, 0
7, 340919, Note_on_c, 3, 64, 0
7, 340920, Note_on_c, 3, 62, 120
7, 340920, Note_on_c, 3, 66, 120
7, 340979, Note_on_c, 3, 66, 0
7, 340979, Note_on_c, 3, 62, 0
7, 340980, Note_on_c, 3, 64, 120
7, 340980, Note_on_c, 3, 57, 120
7, 341039, Note_on_c, 3, 57, 0
7, 341039, Note_on_c, 3, 64, 0
7, 341040, Note_on_c, 3, 62, 120
7, 341040, Note_on_c, 3, 66, 120
7, 341099, Note_on_c, 3, 66, 0
7, 341099, Note_on_c, 3, 62, 0
7, 341100, Note_on_c, 3, 57, 120
7, 341100, Note_on_c, 3, 64, 120
7, 341159, Note_on_c, 3, 64, 0
7, 341159, Note_on_c, 3, 57, 0
7, 341160, Note_on_c, 3, 66, 120
7, 341160, Note_on_c, 3, 62, 120
7, 341219, Note_on_c, 3, 62, 0
7, 341219, Note_on_c, 3, 66, 0
7, 341220, Note_on_c, 3, 54, 120
7, 341220, Note_on_c, 3, 62, 120
7, 341279, Note_on_c, 3, 62, 0
7, 341279, Note_on_c, 3, 54, 0
7, 341280, Note_on_c, 3, 64, 120
7, 341280, Note_on_c, 3, 57, 120
7, 341339, Note_on_c, 3, 57, 0
7, 341339, Note_on_c, 3, 64, 0
7, 341340, Note_on_c, 3, 62, 120
7, 341340, Note_on_c, 3, 66, 120
7, 341399, Note_on_c, 3, 66, 0
7, 341399, Note_on_c, 3, 62, 0
7, 341400, Note_on_c, 3, 64, 120
7, 341400, Note_on_c, 3, 67, 120
7, 341459, Note_on_c, 3, 67, 0
7, 341459, Note_on_c, 3, 64, 0
7, 341460, Note_on_c, 3, 69, 120
7, 341460, Note_on_c, 3, 66, 120
7, 341519, Note_on_c, 3, 66, 0
7, 341520, Note_on_c, 3, 64, 120
7, 341579, Note_on_c, 3, 64, 0
7, 341580, Note_on_c, 3, 69, 0
7, 341580, Note_on_c, 3, 71, 120
7, 341580, Note_on_c, 3, 62, 120
7, 341639, Note_on_c, 3, 62, 0
7, 341639, Note_on_c, 3, 71, 0
7, 341640, Note_on_c, 3, 64, 120
7, 341640, Note_on_c, 3, 69, 120
7, 341699, Note_on_c, 3, 69, 0
7, 341699, Note_on_c, 3, 64, 0
7, 341700, Note_on_c, 3, 57, 120
7, 341700, Note_on_c, 3, 67, 120
7, 341759, Note_on_c, 3, 67, 0
7, 341760, Note_on_c, 3, 66, 120
7, 341819, Note_on_c, 3, 66, 0
7, 341820, Note_on_c, 3, 57, 0
7, 341820, Note_on_c, 3, 57, 120
7, 341820, Note_on_c, 3, 64, 120
7, 341879, Note_on_c, 3, 64, 0
7, 341880, Note_on_c, 3, 66, 120
7, 341939, Note_on_c, 3, 66, 0
7, 341940, Note_on_c, 3, 57, 0
7, 341940, Note_on_c, 3, 54, 120
7, 341940, Note_on_c, 3, 62, 120
7, 342179, Note_on_c, 3, 62, 0
7, 342179, Note_on_c, 3, 54, 0
7, 343140, Note_on_c, 3, 62, 120
7, 343140, Note_on_c, 3, 71, 120
7, 343200, Note_on_c, 3, 71, 0
7, 343200, Note_on_c, 3, 62, 0
7, 343200, Note_on_c, 3, 73, 120
7, 343200, Note_on_c, 3, 64, 120
7, 343260, Note_on_c, 3, 64, 0
7, 343260, Note_on_c, 3, 73, 0
7, 343260, Note_on_c, 3, 62, 120
7, 343260, Note_on_c, 3, 71, 120
7, 343320, Note_on_c, 3, 71, 0
7, 343320, Note_on_c, 3, 62, 0
7, 343320, Note_on_c, 3, 64, 120
7, 343320, Note_on_c, 3, 73, 120
7, 343380, Note_on_c, 3, 73, 0
7, 343380, Note_on_c, 3, 64, 0
7, 343380, Note_on_c, 3, 66, 120
7, 343380, Note_on_c, 3, 74, 120
7, 343619, Note_on_c, 3, 74, 0
7, 343619, Note_on_c, 3, 66, 0
7, 344340, Note_on_c, 3, 64, 120
7, 344459, Note_on_c, 3, 64, 0
7, 344460, Note_on_c, 3, 64, 120
7, 344579, Note_on_c, 3, 64, 0
7, 344580, Note_on_c, 3, 64, 120
7, 344699, Note_on_c, 3, 64, 0
7, 344700, Note_on_c, 3, 64, 120
7, 344819, Note_on_c, 3, 64, 0
7, 344820, Note_on_c, 3, 64, 120
7, 344939, Note_on_c, 3, 64, 0
7, 344940, Note_on_c, 3, 64, 120
7, 345059, Note_on_c, 3, 64, 0
7, 345060, Note_on_c, 3, 64, 120
7, 345179, Note_on_c, 3, 64, 0
7, 345180, Note_on_c, 3, 64, 120
7, 345299, Note_on_c, 3, 64, 0
7, 345300, Note_on_c, 3, 64, 120
7, 345419, Note_on_c, 3, 64, 0
7, 345420, Note_on_c, 3, 64, 120
7, 345539, Note_on_c, 3, 64, 0
7, 345540, Note_on_c, 3, 64, 120
7, 345659, Note_on_c, 3, 64, 0
7, 345660, Note_on_c, 3, 64, 120
7, 345779, Note_on_c, 3, 64, 0
7, 345780, Note_on_c, 3, 64, 120
7, 345899, Note_on_c, 3, 64, 0
7, 345900, Note_on_c, 3, 64, 120
7, 346019, Note_on_c, 3, 64, 0
7, 346020, Note_on_c, 3, 64, 120
7, 346139, Note_on_c, 3, 64, 0
7, 347580, Note_on_c, 3, 57, 120
7, 347580, Note_on_c, 3, 64, 120
7, 347639, Note_on_c, 3, 64, 0
7, 347640, Note_on_c, 3, 66, 120
7, 347699, Note_on_c, 3, 66, 0
7, 347700, Note_on_c, 3, 57, 0
7, 347700, Note_on_c, 3, 64, 120
7, 347700, Note_on_c, 3, 67, 120
7, 347759, Note_on_c, 3, 67, 0
7, 347759, Note_on_c, 3, 64, 0
7, 347760, Note_on_c, 3, 66, 120
7, 347760, Note_on_c, 3, 69, 120
7, 347819, Note_on_c, 3, 69, 0
7, 347819, Note_on_c, 3, 66, 0
7, 347820, Note_on_c, 3, 64, 120
7, 347820, Note_on_c, 3, 67, 120
7, 347879, Note_on_c, 3, 67, 0
7, 347879, Note_on_c, 3, 64, 0
7, 347880, Note_on_c, 3, 66, 120
7, 347880, Note_on_c, 3, 69, 120
7, 347939, Note_on_c, 3, 69, 0
7, 347939, Note_on_c, 3, 66, 0
7, 347940, Note_on_c, 3, 62, 120
7, 347940, Note_on_c, 3, 66, 120
7, 347999, Note_on_c, 3, 66, 0
7, 347999, Note_on_c, 3, 62, 0
7, 348000, Note_on_c, 3, 64, 120
7, 348000, Note_on_c, 3, 67, 120
7, 348059, Note_on_c, 3, 67, 0
7, 348059, Note_on_c, 3, 64, 0
7, 348060, Note_on_c, 3, 62, 120
7, 348060, Note_on_c, 3, 66, 120
7, 348119, Note_on_c, 3, 66, 0
7, 348119, Note_on_c, 3, 62, 0
7, 348120, Note_on_c, 3, 64, 120
7, 348120, Note_on_c, 3, 67, 120
7, 348179, Note_on_c, 3, 67, 0
7, 348179, Note_on_c, 3, 64, 0
7, 348180, Note_on_c, 3, 66, 120
7, 348180, Note_on_c, 3, 69, 120
7, 348419, Note_on_c, 3, 69, 0
7, 348419, Note_on_c, 3, 66, 0
7, 349380, Note_on_c, 3, 62, 120
7, 349380, Note_on_c, 3, 66, 120
7, 349439, Note_on_c, 3, 66, 0
7, 349439, Note_on_c, 3, 62, 0
7, 349440, Note_on_c, 3, 64, 120
7, 349440, Note_on_c, 3, 67, 120
7, 349499, Note_on_c, 3, 67, 0
7, 349499, Note_on_c, 3, 64, 0
7, 349500, Note_on_c, 3, 62, 120
7, 349500, Note_on_c, 3, 66, 120
7, 349559, Note_on_c, 3, 66, 0
7, 349559, Note_on_c, 3, 62, 0
7, 349560, Note_on_c, 3, 64, 120
7, 349560, Note_on_c, 3, 67, 120
7, 349619, Note_on_c, 3, 67, 0
7, 349619, Note_on_c, 3, 64, 0
7, 349620, Note_on_c, 3, 66, 120
7, 349620, Note_on_c, 3, 69, 120
7, 349859, Note_on_c, 3, 69, 0
7, 349859, Note_on_c, 3, 66, 0
7, 349860, Note_on_c, 3, 50, 120
7, 349979, Note_on_c, 3, 50, 0
7, 349980, Note_on_c, 3, 50, 120
7, 350099, Note_on_c, 3, 50, 0
7, 350100, Note_on_c, 3, 50, 120
7, 350219, Note_on_c, 3, 50, 0
7, 350220, Note_on_c, 3, 50, 120
7, 350339, Note_on_c, 3, 50, 0
7, 350340, Note_on_c, 3, 50, 120
7, 350459, Note_on_c, 3, 50, 0
7, 350460, Note_on_c, 3, 50, 120
7, 350579, Note_on_c, 3, 50, 0
7, 350580, Note_on_c, 3, 50, 120
7, 350699, Note_on_c, 3, 50, 0
7, 350700, Note_on_c, 3, 50, 120
7, 350819, Note_on_c, 3, 50, 0
7, 350820, Note_on_c, 3, 62, 120
7, 350820, Note_on_c, 3, 66, 120
7, 350879, Note_on_c, 3, 66, 0
7, 350879, Note_on_c, 3, 62, 0
7, 350880, Note_on_c, 3, 64, 120
7, 350880, Note_on_c, 3, 67, 120
7, 350939, Note_on_c, 3, 67, 0
7, 350939, Note_on_c, 3, 64, 0
7, 350940, Note_on_c, 3, 62, 120
7, 350940, Note_on_c, 3, 66, 120
7, 350999, Note_on_c, 3, 66, 0
7, 350999, Note_on_c, 3, 62, 0
7, 351000, Note_on_c, 3, 64, 120
7, 351000, Note_on_c, 3, 67, 120
7, 351059, Note_on_c, 3, 67, 0
7, 351059, Note_on_c, 3, 64, 0
7, 351060, Note_on_c, 3, 66, 120
7, 351060, Note_on_c, 3, 69, 120
7, 351299, Note_on_c, 3, 69, 0
7, 351299, Note_on_c, 3, 66, 0
7, 351300, Note_on_c, 3, 62, 120
7, 351300, Note_on_c, 3, 66, 120
7, 351359, Note_on_c, 3, 66, 0
7, 351359, Note_on_c, 3, 62, 0
7, 351360, Note_on_c, 3, 64, 120
7, 351360, Note_on_c, 3, 67, 120
7, 351419, Note_on_c, 3, 67, 0
7, 351419, Note_on_c, 3, 64, 0
7, 351420, Note_on_c, 3, 62, 120
7, 351420, Note_on_c, 3, 66, 120
7, 351479, Note_on_c, 3, 66, 0
7, 351479, Note_on_c, 3, 62, 0
7, 351480, Note_on_c, 3, 67, 120
7, 351480, Note_on_c, 3, 64, 120
7, 351539, Note_on_c, 3, 64, 0
7, 351539, Note_on_c, 3, 67, 0
7, 351540, Note_on_c, 3, 69, 120
7, 351540, Note_on_c, 3, 66, 120
7, 351599, Note_on_c, 3, 66, 0
7, 351599, Note_on_c, 3, 69, 0
7, 351600, Note_on_c, 3, 64, 120
7, 351600, Note_on_c, 3, 67, 120
7, 351659, Note_on_c, 3, 67, 0
7, 351659, Note_on_c, 3, 64, 0
7, 351660, Note_on_c, 3, 66, 120
7, 351660, Note_on_c, 3, 69, 120
7, 351719, Note_on_c, 3, 69, 0
7, 351719, Note_on_c, 3, 66, 0
7, 351720, Note_on_c, 3, 67, 120
7, 351720, Note_on_c, 3, 64, 120
7, 351779, Note_on_c, 3, 64, 0
7, 351779, Note_on_c, 3, 67, 0
7, 351780, Note_on_c, 3, 66, 120
7, 351780, Note_on_c, 3, 62, 120
7, 351839, Note_on_c, 3, 62, 0
7, 351839, Note_on_c, 3, 66, 0
7, 351840, Note_on_c, 3, 67, 120
7, 351840, Note_on_c, 3, 64, 120
7, 351899, Note_on_c, 3, 64, 0
7, 351899, Note_on_c, 3, 67, 0
7, 351900, Note_on_c, 3, 62, 120
7, 351900, Note_on_c, 3, 66, 120
7, 351959, Note_on_c, 3, 66, 0
7, 351959, Note_on_c, 3, 62, 0
7, 351960, Note_on_c, 3, 64, 120
7, 351960, Note_on_c, 3, 67, 120
7, 352019, Note_on_c, 3, 67, 0
7, 352019, Note_on_c, 3, 64, 0
7, 352020, Note_on_c, 3, 66, 120
7, 352020, Note_on_c, 3, 69, 120
7, 352079, Note_on_c, 3, 69, 0
7, 352079, Note_on_c, 3, 66, 0
7, 352080, Note_on_c, 3, 64, 120
7, 352080, Note_on_c, 3, 67, 120
7, 352139, Note_on_c, 3, 67, 0
7, 352139, Note_on_c, 3, 64, 0
7, 352140, Note_on_c, 3, 66, 120
7, 352140, Note_on_c, 3, 69, 120
7, 352199, Note_on_c, 3, 69, 0
7, 352199, Note_on_c, 3, 66, 0
7, 352200, Note_on_c, 3, 64, 120
7, 352200, Note_on_c, 3, 67, 120
7, 352259, Note_on_c, 3, 67, 0
7, 352259, Note_on_c, 3, 64, 0
7, 352260, Note_on_c, 3, 66, 120
7, 352260, Note_on_c, 3, 62, 120
7, 352379, Note_on_c, 3, 62, 0
7, 352379, Note_on_c, 3, 66, 0
7, 352380, Note_on_c, 3, 66, 120
7, 352380, Note_on_c, 3, 69, 120
7, 352439, Note_on_c, 3, 69, 0
7, 352439, Note_on_c, 3, 66, 0
7, 352440, Note_on_c, 3, 64, 120
7, 352440, Note_on_c, 3, 67, 120
7, 352499, Note_on_c, 3, 67, 0
7, 352499, Note_on_c, 3, 64, 0
7, 352500, Note_on_c, 3, 67, 120
7, 352500, Note_on_c, 3, 71, 120
7, 352619, Note_on_c, 3, 71, 0
7, 352619, Note_on_c, 3, 67, 0
7, 352620, Note_on_c, 3, 66, 120
7, 352620, Note_on_c, 3, 69, 120
7, 352679, Note_on_c, 3, 69, 0
7, 352679, Note_on_c, 3, 66, 0
7, 352680, Note_on_c, 3, 64, 120
7, 352680, Note_on_c, 3, 67, 120
7, 352739, Note_on_c, 3, 67, 0
7, 352739, Note_on_c, 3, 64, 0
7, 352740, Note_on_c, 3, 66, 120
7, 352740, Note_on_c, 3, 69, 120
7, 352859, Note_on_c, 3, 69, 0
7, 352859, Note_on_c, 3, 66, 0
7, 352860, Note_on_c, 3, 67, 120
7, 352860, Note_on_c, 3, 64, 120
7, 352919, Note_on_c, 3, 64, 0
7, 352919, Note_on_c, 3, 67, 0
7, 352920, Note_on_c, 3, 62, 120
7, 352920, Note_on_c, 3, 66, 120
7, 352979, Note_on_c, 3, 66, 0
7, 352979, Note_on_c, 3, 62, 0
7, 352980, Note_on_c, 3, 64, 120
7, 352980, Note_on_c, 3, 57, 120
7, 353219, Note_on_c, 3, 57, 0
7, 353219, Note_on_c, 3, 64, 0
7, 353220, Note_on_c, 3, 57, 120
7, 353220, Note_on_c, 3, 69, 120
7, 353280, Note_on_c, 3, 69, 0
7, 353280, Note_on_c, 3, 71, 120
7, 353340, Note_on_c, 3, 71, 0
7, 353340, Note_on_c, 3, 57, 0
7, 353340, Note_on_c, 3, 64, 120
7, 353340, Note_on_c, 3, 69, 120
7, 353400, Note_on_c, 3, 69, 0
7, 353400, Note_on_c, 3, 71, 120
7, 353460, Note_on_c, 3, 71, 0
7, 353460, Note_on_c, 3, 64, 0
7, 353460, Note_on_c, 3, 73, 120
7, 353460, Note_on_c, 3, 69, 120
7, 353700, Note_on_c, 3, 69, 0
7, 353700, Note_on_c, 3, 73, 0
7, 354660, Note_on_c, 3, 57, 120
7, 354660, Note_on_c, 3, 69, 120
7, 354719, Note_on_c, 3, 69, 0
7, 354720, Note_on_c, 3, 71, 120
7, 354779, Note_on_c, 3, 71, 0
7, 354780, Note_on_c, 3, 57, 0
7, 354780, Note_on_c, 3, 64, 120
7, 354780, Note_on_c, 3, 69, 120
7, 354839, Note_on_c, 3, 69, 0
7, 354840, Note_on_c, 3, 71, 120
7, 354899, Note_on_c, 3, 71, 0
7, 354900, Note_on_c, 3, 64, 0
7, 354900, Note_on_c, 3, 73, 120
7, 354900, Note_on_c, 3, 69, 120
7, 355139, Note_on_c, 3, 69, 0
7, 355139, Note_on_c, 3, 73, 0
7, 355140, Note_on_c, 3, 64, 120
7, 355140, Note_on_c, 3, 73, 120
7, 355259, Note_on_c, 3, 73, 0
7, 355259, Note_on_c, 3, 64, 0
7, 355260, Note_on_c, 3, 64, 120
7, 355260, Note_on_c, 3, 73, 120
7, 355319, Note_on_c, 3, 73, 0
7, 355319, Note_on_c, 3, 64, 0
7, 355320, Note_on_c, 3, 62, 120
7, 355320, Note_on_c, 3, 71, 120
7, 355379, Note_on_c, 3, 71, 0
7, 355379, Note_on_c, 3, 62, 0
7, 355380, Note_on_c, 3, 66, 120
7, 355380, Note_on_c, 3, 74, 120
7, 355499, Note_on_c, 3, 74, 0
7, 355499, Note_on_c, 3, 66, 0
7, 355500, Note_on_c, 3, 64, 120
7, 355500, Note_on_c, 3, 73, 120
7, 355559, Note_on_c, 3, 73, 0
7, 355559, Note_on_c, 3, 64, 0
7, 355560, Note_on_c, 3, 62, 120
7, 355560, Note_on_c, 3, 71, 120
7, 355619, Note_on_c, 3, 71, 0
7, 355619, Note_on_c, 3, 62, 0
7, 355620, Note_on_c, 3, 64, 120
7, 355620, Note_on_c, 3, 73, 120
7, 355739, Note_on_c, 3, 73, 0
7, 355739, Note_on_c, 3, 64, 0
7, 355740, Note_on_c, 3, 73, 120
7, 355740, Note_on_c, 3, 64, 120
7, 355799, Note_on_c, 3, 64, 0
7, 355799, Note_on_c, 3, 73, 0
7, 355800, Note_on_c, 3, 62, 120
7, 355800, Note_on_c, 3, 71, 120
7, 355859, Note_on_c, 3, 71, 0
7, 355859, Note_on_c, 3, 62, 0
7, 355860, Note_on_c, 3, 66, 120
7, 355860, Note_on_c, 3, 74, 120
7, 355979, Note_on_c, 3, 74, 0
7, 355979, Note_on_c, 3, 66, 0
7, 355980, Note_on_c, 3, 73, 120
7, 355980, Note_on_c, 3, 64, 120
7, 356039, Note_on_c, 3, 64, 0
7, 356039, Note_on_c, 3, 73, 0
7, 356040, Note_on_c, 3, 62, 120
7, 356040, Note_on_c, 3, 71, 120
7, 356099, Note_on_c, 3, 71, 0
7, 356099, Note_on_c, 3, 62, 0
7, 356100, Note_on_c, 3, 64, 120
7, 356100, Note_on_c, 3, 69, 120
7, 356159, Note_on_c, 3, 69, 0
7, 356160, Note_on_c, 3, 71, 120
7, 356219, Note_on_c, 3, 71, 0
7, 356220, Note_on_c, 3, 64, 0
7, 356220, Note_on_c, 3, 66, 120
7, 356220, Note_on_c, 3, 69, 120
7, 356279, Note_on_c, 3, 69, 0
7, 356279, Note_on_c, 3, 66, 0
7, 356280, Note_on_c, 3, 68, 120
7, 356280, Note_on_c, 3, 71, 120
7, 356339, Note_on_c, 3, 71, 0
7, 356339, Note_on_c, 3, 68, 0
7, 356340, Note_on_c, 3, 73, 120
7, 356340, Note_on_c, 3, 69, 120
7, 356580, Note_on_c, 3, 69, 0
7, 356580, Note_on_c, 3, 73, 0
7, 356580, Note_on_c, 3, 57, 120
7, 356580, Note_on_c, 3, 64, 120
7, 356699, Note_on_c, 3, 64, 0
7, 356699, Note_on_c, 3, 57, 0
7, 356700, Note_on_c, 3, 64, 120
7, 356700, Note_on_c, 3, 69, 120
7, 356819, Note_on_c, 3, 69, 0
7, 356819, Note_on_c, 3, 64, 0
7, 356820, Note_on_c, 3, 64, 120
7, 356820, Note_on_c, 3, 69, 120
7, 356939, Note_on_c, 3, 69, 0
7, 356939, Note_on_c, 3, 64, 0
7, 356940, Note_on_c, 3, 73, 120
7, 356940, Note_on_c, 3, 69, 120
7, 357059, Note_on_c, 3, 69, 0
7, 357059, Note_on_c, 3, 73, 0
7, 357060, Note_on_c, 3, 69, 120
7, 357060, Note_on_c, 3, 73, 120
7, 357179, Note_on_c, 3, 73, 0
7, 357179, Note_on_c, 3, 69, 0
7, 357180, Note_on_c, 3, 64, 120
7, 357180, Note_on_c, 3, 69, 120
7, 357299, Note_on_c, 3, 69, 0
7, 357299, Note_on_c, 3, 64, 0
7, 357300, Note_on_c, 3, 64, 120
7, 357300, Note_on_c, 3, 69, 120
7, 357419, Note_on_c, 3, 69, 0
7, 357419, Note_on_c, 3, 64, 0
7, 357420, Note_on_c, 3, 64, 120
7, 357420, Note_on_c, 3, 57, 120
7, 357539, Note_on_c, 3, 57, 0
7, 357539, Note_on_c, 3, 64, 0
7, 357540, Note_on_c, 3, 54, 120
7, 357540, Note_on_c, 3, 62, 120
7, 357599, Note_on_c, 3, 62, 0
7, 357599, Note_on_c, 3, 54, 0
7, 357600, Note_on_c, 3, 64, 120
7, 357600, Note_on_c, 3, 57, 120
7, 357659, Note_on_c, 3, 57, 0
7, 357659, Note_on_c, 3, 64, 0
7, 357660, Note_on_c, 3, 66, 120
7, 357660, Note_on_c, 3, 62, 120
7, 357719, Note_on_c, 3, 62, 0
7, 357719, Note_on_c, 3, 66, 0
7, 357720, Note_on_c, 3, 64, 120
7, 357720, Note_on_c, 3, 67, 120
7, 357779, Note_on_c, 3, 67, 0
7, 357779, Note_on_c, 3, 64, 0
7, 357780, Note_on_c, 3, 66, 120
7, 357780, Note_on_c, 3, 69, 120
7, 357839, Note_on_c, 3, 66, 0
7, 357840, Note_on_c, 3, 64, 120
7, 357899, Note_on_c, 3, 64, 0
7, 357900, Note_on_c, 3, 69, 0
7, 357900, Note_on_c, 3, 62, 120
7, 357900, Note_on_c, 3, 71, 120
7, 357959, Note_on_c, 3, 71, 0
7, 357959, Note_on_c, 3, 62, 0
7, 357960, Note_on_c, 3, 64, 120
7, 357960, Note_on_c, 3, 69, 120
7, 358019, Note_on_c, 3, 69, 0
7, 358019, Note_on_c, 3, 64, 0
7, 358020, Note_on_c, 3, 67, 120
7, 358020, Note_on_c, 3, 64, 120
7, 358079, Note_on_c, 3, 64, 0
7, 358079, Note_on_c, 3, 67, 0
7, 358080, Note_on_c, 3, 62, 120
7, 358080, Note_on_c, 3, 66, 120
7, 358139, Note_on_c, 3, 66, 0
7, 358139, Note_on_c, 3, 62, 0
7, 358140, Note_on_c, 3, 64, 120
7, 358140, Note_on_c, 3, 57, 120
7, 358199, Note_on_c, 3, 57, 0
7, 358199, Note_on_c, 3, 64, 0
7, 358200, Note_on_c, 3, 66, 120
7, 358259, Note_on_c, 3, 66, 0
7, 358260, Note_on_c, 3, 62, 120
7, 358260, Note_on_c, 3, 54, 120
7, 358499, Note_on_c, 3, 54, 0
7, 358499, Note_on_c, 3, 62, 0
7, 359460, Note_on_c, 3, 73, 120
7, 359460, Note_on_c, 3, 69, 120
7, 359699, Note_on_c, 3, 69, 0
7, 359699, Note_on_c, 3, 73, 0
7, 359700, Note_on_c, 3, 64, 120
7, 359700, Note_on_c, 3, 69, 120
7, 359939, Note_on_c, 3, 69, 0
7, 359939, Note_on_c, 3, 64, 0
7, 364260, Note_on_c, 3, 62, 120
7, 364260, Note_on_c, 3, 66, 120
7, 364319, Note_on_c, 3, 66, 0
7, 364319, Note_on_c, 3, 62, 0
7, 364320, Note_on_c, 3, 64, 120
7, 364320, Note_on_c, 3, 67, 120
7, 364379, Note_on_c, 3, 67, 0
7, 364379, Note_on_c, 3, 64, 0
7, 364380, Note_on_c, 3, 62, 120
7, 364380, Note_on_c, 3, 66, 120
7, 364439, Note_on_c, 3, 66, 0
7, 364439, Note_on_c, 3, 62, 0
7, 364440, Note_on_c, 3, 64, 120
7, 364440, Note_on_c, 3, 67, 120
7, 364499, Note_on_c, 3, 67, 0
7, 364499, Note_on_c, 3, 64, 0
7, 364500, Note_on_c, 3, 66, 120
7, 364500, Note_on_c, 3, 69, 120
7, 364739, Note_on_c, 3, 69, 0
7, 364739, Note_on_c, 3, 66, 0
7, 364740, Note_on_c, 3, 57, 120
7, 364859, Note_on_c, 3, 57, 0
7, 364860, Note_on_c, 3, 57, 120
7, 364979, Note_on_c, 3, 57, 0
7, 364980, Note_on_c, 3, 57, 120
7, 365099, Note_on_c, 3, 57, 0
7, 365100, Note_on_c, 3, 57, 120
7, 365219, Note_on_c, 3, 57, 0
7, 365220, Note_on_c, 3, 57, 120
7, 365339, Note_on_c, 3, 57, 0
7, 365340, Note_on_c, 3, 57, 120
7, 365459, Note_on_c, 3, 57, 0
7, 365460, Note_on_c, 3, 57, 120
7, 365579, Note_on_c, 3, 57, 0
7, 365580, Note_on_c, 3, 57, 120
7, 365699, Note_on_c, 3, 57, 0
7, 365700, Note_on_c, 3, 62, 120
7, 365700, Note_on_c, 3, 66, 120
7, 365759, Note_on_c, 3, 66, 0
7, 365759, Note_on_c, 3, 62, 0
7, 365760, Note_on_c, 3, 64, 120
7, 365760, Note_on_c, 3, 67, 120
7, 365819, Note_on_c, 3, 67, 0
7, 365819, Note_on_c, 3, 64, 0
7, 365820, Note_on_c, 3, 62, 120
7, 365820, Note_on_c, 3, 66, 120
7, 365879, Note_on_c, 3, 66, 0
7, 365879, Note_on_c, 3, 62, 0
7, 365880, Note_on_c, 3, 64, 120
7, 365880, Note_on_c, 3, 67, 120
7, 365939, Note_on_c, 3, 67, 0
7, 365939, Note_on_c, 3, 64, 0
7, 365940, Note_on_c, 3, 66, 120
7, 365940, Note_on_c, 3, 69, 120
7, 366179, Note_on_c, 3, 69, 0
7, 366179, Note_on_c, 3, 66, 0
7, 366180, Note_on_c, 3, 50, 120
7, 366299, Note_on_c, 3, 50, 0
7, 366300, Note_on_c, 3, 50, 120
7, 366419, Note_on_c, 3, 50, 0
7, 366420, Note_on_c, 3, 50, 120
7, 366539, Note_on_c, 3, 50, 0
7, 366540, Note_on_c, 3, 50, 120
7, 366659, Note_on_c, 3, 50, 0
7, 366660, Note_on_c, 3, 50, 120
7, 366779, Note_on_c, 3, 50, 0
7, 366780, Note_on_c, 3, 50, 120
7, 366899, Note_on_c, 3, 50, 0
7, 366900, Note_on_c, 3, 50, 120
7, 367019, Note_on_c, 3, 50, 0
7, 367020, Note_on_c, 3, 50, 120
7, 367139, Note_on_c, 3, 50, 0
7, 367140, Note_on_c, 3, 62, 120
7, 367140, Note_on_c, 3, 66, 120
7, 367199, Note_on_c, 3, 66, 0
7, 367199, Note_on_c, 3, 62, 0
7, 367200, Note_on_c, 3, 64, 120
7, 367200, Note_on_c, 3, 67, 120
7, 367259, Note_on_c, 3, 67, 0
7, 367259, Note_on_c, 3, 64, 0
7, 367260, Note_on_c, 3, 62, 120
7, 367260, Note_on_c, 3, 66, 120
7, 367319, Note_on_c, 3, 66, 0
7, 367319, Note_on_c, 3, 62, 0
7, 367320, Note_on_c, 3, 64, 120
7, 367320, Note_on_c, 3, 67, 120
7, 367379, Note_on_c, 3, 67, 0
7, 367379, Note_on_c, 3, 64, 0
7, 367380, Note_on_c, 3, 66, 120
7, 367380, Note_on_c, 3, 69, 120
7, 367619, Note_on_c, 3, 69, 0
7, 367619, Note_on_c, 3, 66, 0
7, 367620, Note_on_c, 3, 66, 120
7, 367620, Note_on_c, 3, 62, 120
7, 367679, Note_on_c, 3, 62, 0
7, 367679, Note_on_c, 3, 66, 0
7, 367680, Note_on_c, 3, 67, 120
7, 367680, Note_on_c, 3, 64, 120
7, 367739, Note_on_c, 3, 64, 0
7, 367739, Note_on_c, 3, 67, 0
7, 367740, Note_on_c, 3, 66, 120
7, 367740, Note_on_c, 3, 62, 120
7, 367799, Note_on_c, 3, 62, 0
7, 367799, Note_on_c, 3, 66, 0
7, 367800, Note_on_c, 3, 64, 120
7, 367800, Note_on_c, 3, 67, 120
7, 367859, Note_on_c, 3, 67, 0
7, 367859, Note_on_c, 3, 64, 0
7, 367860, Note_on_c, 3, 66, 120
7, 367860, Note_on_c, 3, 69, 120
7, 367919, Note_on_c, 3, 69, 0
7, 367919, Note_on_c, 3, 66, 0
7, 367920, Note_on_c, 3, 64, 120
7, 367920, Note_on_c, 3, 67, 120
7, 367979, Note_on_c, 3, 67, 0
7, 367979, Note_on_c, 3, 64, 0
7, 367980, Note_on_c, 3, 66, 120
7, 367980, Note_on_c, 3, 69, 120
7, 368039, Note_on_c, 3, 69, 0
7, 368039, Note_on_c, 3, 66, 0
7, 368040, Note_on_c, 3, 64, 120
7, 368040, Note_on_c, 3, 67, 120
7, 368099, Note_on_c, 3, 67, 0
7, 368099, Note_on_c, 3, 64, 0
7, 368100, Note_on_c, 3, 62, 120
7, 368100, Note_on_c, 3, 66, 120
7, 368159, Note_on_c, 3, 66, 0
7, 368159, Note_on_c, 3, 62, 0
7, 368160, Note_on_c, 3, 64, 120
7, 368160, Note_on_c, 3, 67, 120
7, 368219, Note_on_c, 3, 67, 0
7, 368219, Note_on_c, 3, 64, 0
7, 368220, Note_on_c, 3, 62, 120
7, 368220, Note_on_c, 3, 66, 120
7, 368279, Note_on_c, 3, 66, 0
7, 368279, Note_on_c, 3, 62, 0
7, 368280, Note_on_c, 3, 64, 120
7, 368280, Note_on_c, 3, 67, 120
7, 368339, Note_on_c, 3, 67, 0
7, 368339, Note_on_c, 3, 64, 0
7, 368340, Note_on_c, 3, 66, 120
7, 368340, Note_on_c, 3, 69, 120
7, 368399, Note_on_c, 3, 69, 0
7, 368399, Note_on_c, 3, 66, 0
7, 368400, Note_on_c, 3, 64, 120
7, 368400, Note_on_c, 3, 67, 120
7, 368459, Note_on_c, 3, 67, 0
7, 368459, Note_on_c, 3, 64, 0
7, 368460, Note_on_c, 3, 66, 120
7, 368460, Note_on_c, 3, 69, 120
7, 368519, Note_on_c, 3, 69, 0
7, 368519, Note_on_c, 3, 66, 0
7, 368520, Note_on_c, 3, 64, 120
7, 368520, Note_on_c, 3, 67, 120
7, 368579, Note_on_c, 3, 67, 0
7, 368579, Note_on_c, 3, 64, 0
7, 368580, Note_on_c, 3, 62, 120
7, 368580, Note_on_c, 3, 66, 120
7, 368699, Note_on_c, 3, 66, 0
7, 368699, Note_on_c, 3, 62, 0
7, 368700, Note_on_c, 3, 66, 120
7, 368700, Note_on_c, 3, 69, 120
7, 368759, Note_on_c, 3, 69, 0
7, 368759, Note_on_c, 3, 66, 0
7, 368760, Note_on_c, 3, 64, 120
7, 368760, Note_on_c, 3, 67, 120
7, 368819, Note_on_c, 3, 67, 0
7, 368819, Note_on_c, 3, 64, 0
7, 368820, Note_on_c, 3, 67, 120
7, 368820, Note_on_c, 3, 71, 120
7, 368939, Note_on_c, 3, 71, 0
7, 368939, Note_on_c, 3, 67, 0
7, 368940, Note_on_c, 3, 66, 120
7, 368940, Note_on_c, 3, 69, 120
7, 368999, Note_on_c, 3, 69, 0
7, 368999, Note_on_c, 3, 66, 0
7, 369000, Note_on_c, 3, 64, 120
7, 369000, Note_on_c, 3, 67, 120
7, 369059, Note_on_c, 3, 67, 0
7, 369059, Note_on_c, 3, 64, 0
7, 369060, Note_on_c, 3, 66, 120
7, 369060, Note_on_c, 3, 69, 120
7, 369179, Note_on_c, 3, 69, 0
7, 369179, Note_on_c, 3, 66, 0
7, 369180, Note_on_c, 3, 64, 120
7, 369180, Note_on_c, 3, 67, 120
7, 369239, Note_on_c, 3, 67, 0
7, 369239, Note_on_c, 3, 64, 0
7, 369240, Note_on_c, 3, 62, 120
7, 369240, Note_on_c, 3, 66, 120
7, 369299, Note_on_c, 3, 66, 0
7, 369299, Note_on_c, 3, 62, 0
7, 369300, Note_on_c, 3, 57, 120
7, 369300, Note_on_c, 3, 64, 120
7, 369539, Note_on_c, 3, 64, 0
7, 369539, Note_on_c, 3, 57, 0
7, 369540, Note_on_c, 3, 69, 120
7, 369540, Note_on_c, 3, 73, 120
7, 369599, Note_on_c, 3, 73, 0
7, 369599, Note_on_c, 3, 69, 0
7, 369600, Note_on_c, 3, 68, 120
7, 369600, Note_on_c, 3, 71, 120
7, 369659, Note_on_c, 3, 71, 0
7, 369659, Note_on_c, 3, 68, 0
7, 369660, Note_on_c, 3, 73, 120
7, 369660, Note_on_c, 3, 69, 120
7, 369719, Note_on_c, 3, 69, 0
7, 369719, Note_on_c, 3, 73, 0
7, 369720, Note_on_c, 3, 68, 120
7, 369720, Note_on_c, 3, 71, 120
7, 369779, Note_on_c, 3, 71, 0
7, 369779, Note_on_c, 3, 68, 0
7, 369780, Note_on_c, 3, 73, 120
7, 369780, Note_on_c, 3, 69, 120
7, 370019, Note_on_c, 3, 69, 0
7, 370019, Note_on_c, 3, 73, 0
7, 370020, Note_on_c, 3, 64, 120
7, 370139, Note_on_c, 3, 64, 0
7, 370140, Note_on_c, 3, 64, 120
7, 370259, Note_on_c, 3, 64, 0
7, 370260, Note_on_c, 3, 64, 120
7, 370379, Note_on_c, 3, 64, 0
7, 370380, Note_on_c, 3, 64, 120
7, 370499, Note_on_c, 3, 64, 0
7, 370500, Note_on_c, 3, 64, 120
7, 370619, Note_on_c, 3, 64, 0
7, 370620, Note_on_c, 3, 64, 120
7, 370739, Note_on_c, 3, 64, 0
7, 370740, Note_on_c, 3, 64, 120
7, 370859, Note_on_c, 3, 64, 0
7, 370860, Note_on_c, 3, 64, 120
7, 370979, Note_on_c, 3, 64, 0
7, 370980, Note_on_c, 3, 73, 120
7, 370980, Note_on_c, 3, 69, 120
7, 371039, Note_on_c, 3, 69, 0
7, 371039, Note_on_c, 3, 73, 0
7, 371040, Note_on_c, 3, 68, 120
7, 371040, Note_on_c, 3, 71, 120
7, 371099, Note_on_c, 3, 71, 0
7, 371099, Note_on_c, 3, 68, 0
7, 371100, Note_on_c, 3, 73, 120
7, 371100, Note_on_c, 3, 69, 120
7, 371159, Note_on_c, 3, 69, 0
7, 371159, Note_on_c, 3, 73, 0
7, 371160, Note_on_c, 3, 68, 120
7, 371160, Note_on_c, 3, 71, 120
7, 371219, Note_on_c, 3, 71, 0
7, 371219, Note_on_c, 3, 68, 0
7, 371220, Note_on_c, 3, 73, 120
7, 371220, Note_on_c, 3, 69, 120
7, 371459, Note_on_c, 3, 69, 0
7, 371459, Note_on_c, 3, 73, 0
7, 371460, Note_on_c, 3, 57, 120
7, 371579, Note_on_c, 3, 57, 0
7, 371580, Note_on_c, 3, 57, 120
7, 371699, Note_on_c, 3, 57, 0
7, 371700, Note_on_c, 3, 57, 120
7, 371819, Note_on_c, 3, 57, 0
7, 371820, Note_on_c, 3, 57, 120
7, 371939, Note_on_c, 3, 57, 0
7, 371940, Note_on_c, 3, 57, 120
7, 372059, Note_on_c, 3, 57, 0
7, 372060, Note_on_c, 3, 57, 120
7, 372179, Note_on_c, 3, 57, 0
7, 372180, Note_on_c, 3, 57, 120
7, 372299, Note_on_c, 3, 57, 0
7, 372300, Note_on_c, 3, 57, 120
7, 372419, Note_on_c, 3, 57, 0
7, 372420, Note_on_c, 3, 73, 120
7, 372420, Note_on_c, 3, 69, 120
7, 372479, Note_on_c, 3, 69, 0
7, 372479, Note_on_c, 3, 73, 0
7, 372480, Note_on_c, 3, 68, 120
7, 372480, Note_on_c, 3, 71, 120
7, 372539, Note_on_c, 3, 71, 0
7, 372539, Note_on_c, 3, 68, 0
7, 372540, Note_on_c, 3, 69, 120
7, 372540, Note_on_c, 3, 73, 120
7, 372599, Note_on_c, 3, 73, 0
7, 372599, Note_on_c, 3, 69, 0
7, 372600, Note_on_c, 3, 68, 120
7, 372600, Note_on_c, 3, 71, 120
7, 372659, Note_on_c, 3, 71, 0
7, 372659, Note_on_c, 3, 68, 0
7, 372660, Note_on_c, 3, 73, 120
7, 372660, Note_on_c, 3, 69, 120
7, 372899, Note_on_c, 3, 69, 0
7, 372899, Note_on_c, 3, 73, 0
7, 372900, Note_on_c, 3, 67, 120
7, 372900, Note_on_c, 3, 64, 120
7, 372959, Note_on_c, 3, 64, 0
7, 372959, Note_on_c, 3, 67, 0
7, 372960, Note_on_c, 3, 62, 120
7, 372960, Note_on_c, 3, 66, 120
7, 373019, Note_on_c, 3, 66, 0
7, 373019, Note_on_c, 3, 62, 0
7, 373020, Note_on_c, 3, 64, 120
7, 373020, Note_on_c, 3, 67, 120
7, 373079, Note_on_c, 3, 67, 0
7, 373079, Note_on_c, 3, 64, 0
7, 373080, Note_on_c, 3, 66, 120
7, 373080, Note_on_c, 3, 62, 120
7, 373139, Note_on_c, 3, 62, 0
7, 373139, Note_on_c, 3, 66, 0
7, 373140, Note_on_c, 3, 57, 120
7, 373140, Note_on_c, 3, 64, 120
7, 373199, Note_on_c, 3, 64, 0
7, 373199, Note_on_c, 3, 57, 0
7, 373200, Note_on_c, 3, 62, 120
7, 373200, Note_on_c, 3, 66, 120
7, 373259, Note_on_c, 3, 66, 0
7, 373259, Note_on_c, 3, 62, 0
7, 373260, Note_on_c, 3, 64, 120
7, 373260, Note_on_c, 3, 57, 120
7, 373319, Note_on_c, 3, 57, 0
7, 373319, Note_on_c, 3, 64, 0
7, 373320, Note_on_c, 3, 66, 120
7, 373320, Note_on_c, 3, 62, 120
7, 373379, Note_on_c, 3, 62, 0
7, 373379, Note_on_c, 3, 66, 0
7, 373380, Note_on_c, 3, 64, 120
7, 373380, Note_on_c, 3, 67, 120
7, 373439, Note_on_c, 3, 67, 0
7, 373439, Note_on_c, 3, 64, 0
7, 373440, Note_on_c, 3, 62, 120
7, 373440, Note_on_c, 3, 66, 120
7, 373499, Note_on_c, 3, 66, 0
7, 373499, Note_on_c, 3, 62, 0
7, 373500, Note_on_c, 3, 64, 120
7, 373500, Note_on_c, 3, 67, 120
7, 373559, Note_on_c, 3, 67, 0
7, 373559, Note_on_c, 3, 64, 0
7, 373560, Note_on_c, 3, 62, 120
7, 373560, Note_on_c, 3, 66, 120
7, 373619, Note_on_c, 3, 66, 0
7, 373619, Note_on_c, 3, 62, 0
7, 373620, Note_on_c, 3, 57, 120
7, 373620, Note_on_c, 3, 64, 120
7, 373679, Note_on_c, 3, 64, 0
7, 373679, Note_on_c, 3, 57, 0
7, 373680, Note_on_c, 3, 66, 120
7, 373680, Note_on_c, 3, 62, 120
7, 373739, Note_on_c, 3, 62, 0
7, 373739, Note_on_c, 3, 66, 0
7, 373740, Note_on_c, 3, 64, 120
7, 373740, Note_on_c, 3, 57, 120
7, 373799, Note_on_c, 3, 57, 0
7, 373799, Note_on_c, 3, 64, 0
7, 373800, Note_on_c, 3, 66, 120
7, 373800, Note_on_c, 3, 62, 120
7, 373859, Note_on_c, 3, 62, 0
7, 373859, Note_on_c, 3, 66, 0
7, 373860, Note_on_c, 3, 62, 120
7, 373860, Note_on_c, 3, 54, 120
7, 373919, Note_on_c, 3, 54, 0
7, 373919, Note_on_c, 3, 62, 0
7, 373920, Note_on_c, 3, 57, 120
7, 373920, Note_on_c, 3, 64, 120
7, 373979, Note_on_c, 3, 64, 0
7, 373979, Note_on_c, 3, 57, 0
7, 373980, Note_on_c, 3, 66, 120
7, 373980, Note_on_c, 3, 62, 120
7, 374039, Note_on_c, 3, 62, 0
7, 374039, Note_on_c, 3, 66, 0
7, 374040, Note_on_c, 3, 64, 120
7, 374040, Note_on_c, 3, 67, 120
7, 374099, Note_on_c, 3, 67, 0
7, 374099, Note_on_c, 3, 64, 0
7, 374100, Note_on_c, 3, 69, 120
7, 374100, Note_on_c, 3, 66, 120
7, 374159, Note_on_c, 3, 66, 0
7, 374160, Note_on_c, 3, 64, 120
7, 374219, Note_on_c, 3, 64, 0
7, 374220, Note_on_c, 3, 69, 0
7, 374220, Note_on_c, 3, 62, 120
7, 374220, Note_on_c, 3, 71, 120
7, 374279, Note_on_c, 3, 71, 0
7, 374279, Note_on_c, 3, 62, 0
7, 374280, Note_on_c, 3, 64, 120
7, 374280, Note_on_c, 3, 69, 120
7, 374339, Note_on_c, 3, 69, 0
7, 374339, Note_on_c, 3, 64, 0
7, 374340, Note_on_c, 3, 57, 120
7, 374340, Note_on_c, 3, 67, 120
7, 374399, Note_on_c, 3, 67, 0
7, 374400, Note_on_c, 3, 66, 120
7, 374459, Note_on_c, 3, 66, 0
7, 374460, Note_on_c, 3, 57, 0
7, 374460, Note_on_c, 3, 57, 120
7, 374460, Note_on_c, 3, 64, 120
7, 374519, Note_on_c, 3, 64, 0
7, 374520, Note_on_c, 3, 66, 120
7, 374579, Note_on_c, 3, 66, 0
7, 374580, Note_on_c, 3, 57, 0
7, 374580, Note_on_c, 3, 54, 120
7, 374580, Note_on_c, 3, 62, 120
7, 374819, Note_on_c, 3, 62, 0
7, 374819, Note_on_c, 3, 54, 0
7, 375300, Note_on_c, 3, 57, 120
7, 375419, Note_on_c, 3, 57, 0
7, 375420, Note_on_c, 3, 57, 120
7, 375539, Note_on_c, 3, 57, 0
7, 375540, Note_on_c, 3, 57, 120
7, 375659, Note_on_c, 3, 57, 0
7, 375660, Note_on_c, 3, 57, 120
7, 375779, Note_on_c, 3, 57, 0
7, 375780, Note_on_c, 3, 57, 120
7, 375899, Note_on_c, 3, 57, 0
7, 375900, Note_on_c, 3, 57, 120
7, 376019, Note_on_c, 3, 57, 0
7, 376020, Note_on_c, 3, 57, 120
7, 376139, Note_on_c, 3, 57, 0
7, 376140, Note_on_c, 3, 57, 120
7, 376259, Note_on_c, 3, 57, 0
7, 376260, Note_on_c, 3, 62, 120
7, 376260, Note_on_c, 3, 66, 120
7, 376319, Note_on_c, 3, 66, 0
7, 376319, Note_on_c, 3, 62, 0
7, 376320, Note_on_c, 3, 64, 120
7, 376320, Note_on_c, 3, 67, 120
7, 376379, Note_on_c, 3, 67, 0
7, 376379, Note_on_c, 3, 64, 0
7, 376380, Note_on_c, 3, 66, 120
7, 376380, Note_on_c, 3, 62, 120
7, 376439, Note_on_c, 3, 62, 0
7, 376439, Note_on_c, 3, 66, 0
7, 376440, Note_on_c, 3, 64, 120
7, 376440, Note_on_c, 3, 67, 120
7, 376499, Note_on_c, 3, 67, 0
7, 376499, Note_on_c, 3, 64, 0
7, 376500, Note_on_c, 3, 66, 120
7, 376500, Note_on_c, 3, 69, 120
7, 376739, Note_on_c, 3, 69, 0
7, 376739, Note_on_c, 3, 66, 0
7, 376740, Note_on_c, 3, 50, 120
7, 376859, Note_on_c, 3, 50, 0
7, 376860, Note_on_c, 3, 50, 120
7, 376979, Note_on_c, 3, 50, 0
7, 376980, Note_on_c, 3, 50, 120
7, 377099, Note_on_c, 3, 50, 0
7, 377100, Note_on_c, 3, 50, 120
7, 377219, Note_on_c, 3, 50, 0
7, 377220, Note_on_c, 3, 50, 120
7, 377339, Note_on_c, 3, 50, 0
7, 377340, Note_on_c, 3, 50, 120
7, 377459, Note_on_c, 3, 50, 0
7, 377460, Note_on_c, 3, 50, 120
7, 377579, Note_on_c, 3, 50, 0
7, 377580, Note_on_c, 3, 50, 120
7, 377699, Note_on_c, 3, 50, 0
7, 377700, Note_on_c, 3, 62, 120
7, 377700, Note_on_c, 3, 66, 120
7, 377759, Note_on_c, 3, 66, 0
7, 377759, Note_on_c, 3, 62, 0
7, 377760, Note_on_c, 3, 64, 120
7, 377760, Note_on_c, 3, 67, 120
7, 377819, Note_on_c, 3, 67, 0
7, 377819, Note_on_c, 3, 64, 0
7, 377820, Note_on_c, 3, 62, 120
7, 377820, Note_on_c, 3, 66, 120
7, 377879, Note_on_c, 3, 66, 0
7, 377879, Note_on_c, 3, 62, 0
7, 377880, Note_on_c, 3, 64, 120
7, 377880, Note_on_c, 3, 67, 120
7, 377939, Note_on_c, 3, 67, 0
7, 377939, Note_on_c, 3, 64, 0
7, 377940, Note_on_c, 3, 66, 120
7, 377940, Note_on_c, 3, 69, 120
7, 378179, Note_on_c, 3, 69, 0
7, 378179, Note_on_c, 3, 66, 0
7, 378180, Note_on_c, 3, 62, 120
7, 378180, Note_on_c, 3, 66, 120
7, 378239, Note_on_c, 3, 66, 0
7, 378239, Note_on_c, 3, 62, 0
7, 378240, Note_on_c, 3, 64, 120
7, 378240, Note_on_c, 3, 67, 120
7, 378299, Note_on_c, 3, 67, 0
7, 378299, Note_on_c, 3, 64, 0
7, 378300, Note_on_c, 3, 66, 120
7, 378300, Note_on_c, 3, 62, 120
7, 378359, Note_on_c, 3, 62, 0
7, 378359, Note_on_c, 3, 66, 0
7, 378360, Note_on_c, 3, 64, 120
7, 378360, Note_on_c, 3, 67, 120
7, 378419, Note_on_c, 3, 67, 0
7, 378419, Note_on_c, 3, 64, 0
7, 378420, Note_on_c, 3, 66, 120
7, 378420, Note_on_c, 3, 69, 120
7, 378479, Note_on_c, 3, 69, 0
7, 378479, Note_on_c, 3, 66, 0
7, 378480, Note_on_c, 3, 64, 120
7, 378480, Note_on_c, 3, 67, 120
7, 378539, Note_on_c, 3, 67, 0
7, 378539, Note_on_c, 3, 64, 0
7, 378540, Note_on_c, 3, 66, 120
7, 378540, Note_on_c, 3, 69, 120
7, 378599, Note_on_c, 3, 69, 0
7, 378599, Note_on_c, 3, 66, 0
7, 378600, Note_on_c, 3, 64, 120
7, 378600, Note_on_c, 3, 67, 120
7, 378659, Note_on_c, 3, 67, 0
7, 378659, Note_on_c, 3, 64, 0
7, 378660, Note_on_c, 3, 62, 120
7, 378660, Note_on_c, 3, 66, 120
7, 378719, Note_on_c, 3, 66, 0
7, 378719, Note_on_c, 3, 62, 0
7, 378720, Note_on_c, 3, 64, 120
7, 378720, Note_on_c, 3, 67, 120
7, 378779, Note_on_c, 3, 67, 0
7, 378779, Note_on_c, 3, 64, 0
7, 378780, Note_on_c, 3, 62, 120
7, 378780, Note_on_c, 3, 66, 120
7, 378839, Note_on_c, 3, 66, 0
7, 378839, Note_on_c, 3, 62, 0
7, 378840, Note_on_c, 3, 64, 120
7, 378840, Note_on_c, 3, 67, 120
7, 378899, Note_on_c, 3, 67, 0
7, 378899, Note_on_c, 3, 64, 0
7, 378900, Note_on_c, 3, 66, 120
7, 378900, Note_on_c, 3, 69, 120
7, 378959, Note_on_c, 3, 69, 0
7, 378959, Note_on_c, 3, 66, 0
7, 378960, Note_on_c, 3, 64, 120
7, 378960, Note_on_c, 3, 67, 120
7, 379019, Note_on_c, 3, 67, 0
7, 379019, Note_on_c, 3, 64, 0
7, 379020, Note_on_c, 3, 66, 120
7, 379020, Note_on_c, 3, 69, 120
7, 379079, Note_on_c, 3, 69, 0
7, 379079, Note_on_c, 3, 66, 0
7, 379080, Note_on_c, 3, 64, 120
7, 379080, Note_on_c, 3, 67, 120
7, 379139, Note_on_c, 3, 67, 0
7, 379139, Note_on_c, 3, 64, 0
7, 379140, Note_on_c, 3, 66, 120
7, 379140, Note_on_c, 3, 62, 120
7, 379259, Note_on_c, 3, 62, 0
7, 379259, Note_on_c, 3, 66, 0
7, 379260, Note_on_c, 3, 66, 120
7, 379260, Note_on_c, 3, 69, 120
7, 379319, Note_on_c, 3, 69, 0
7, 379319, Note_on_c, 3, 66, 0
7, 379320, Note_on_c, 3, 64, 120
7, 379320, Note_on_c, 3, 67, 120
7, 379379, Note_on_c, 3, 67, 0
7, 379379, Note_on_c, 3, 64, 0
7, 379380, Note_on_c, 3, 67, 120
7, 379380, Note_on_c, 3, 71, 120
7, 379499, Note_on_c, 3, 71, 0
7, 379499, Note_on_c, 3, 67, 0
7, 379500, Note_on_c, 3, 69, 120
7, 379500, Note_on_c, 3, 66, 120
7, 379559, Note_on_c, 3, 66, 0
7, 379559, Note_on_c, 3, 69, 0
7, 379560, Note_on_c, 3, 67, 120
7, 379560, Note_on_c, 3, 64, 120
7, 379619, Note_on_c, 3, 64, 0
7, 379619, Note_on_c, 3, 67, 0
7, 379620, Note_on_c, 3, 66, 120
7, 379620, Note_on_c, 3, 69, 120
7, 379739, Note_on_c, 3, 69, 0
7, 379739, Note_on_c, 3, 66, 0
7, 379740, Note_on_c, 3, 64, 120
7, 379740, Note_on_c, 3, 67, 120
7, 379799, Note_on_c, 3, 67, 0
7, 379799, Note_on_c, 3, 64, 0
7, 379800, Note_on_c, 3, 66, 120
7, 379800, Note_on_c, 3, 62, 120
7, 379859, Note_on_c, 3, 62, 0
7, 379859, Note_on_c, 3, 66, 0
7, 379860, Note_on_c, 3, 64, 120
7, 379860, Note_on_c, 3, 57, 120
7, 380099, Note_on_c, 3, 57, 0
7, 380099, Note_on_c, 3, 64, 0
7, 380100, Note_on_c, 3, 57, 120
7, 380100, Note_on_c, 3, 69, 120
7, 380159, Note_on_c, 3, 69, 0
7, 380160, Note_on_c, 3, 71, 120
7, 380219, Note_on_c, 3, 71, 0
7, 380220, Note_on_c, 3, 57, 0
7, 380220, Note_on_c, 3, 64, 120
7, 380220, Note_on_c, 3, 69, 120
7, 380279, Note_on_c, 3, 69, 0
7, 380280, Note_on_c, 3, 71, 120
7, 380339, Note_on_c, 3, 71, 0
7, 380340, Note_on_c, 3, 64, 0
7, 380340, Note_on_c, 3, 69, 120
7, 380340, Note_on_c, 3, 73, 120
7, 380579, Note_on_c, 3, 73, 0
7, 380579, Note_on_c, 3, 69, 0
7, 382020, Note_on_c, 3, 57, 120
7, 382139, Note_on_c, 3, 57, 0
7, 382140, Note_on_c, 3, 57, 120
7, 382259, Note_on_c, 3, 57, 0
7, 382260, Note_on_c, 3, 57, 120
7, 382379, Note_on_c, 3, 57, 0
7, 382380, Note_on_c, 3, 57, 120
7, 382499, Note_on_c, 3, 57, 0
7, 382500, Note_on_c, 3, 57, 120
7, 382619, Note_on_c, 3, 57, 0
7, 382620, Note_on_c, 3, 57, 120
7, 382739, Note_on_c, 3, 57, 0
7, 382740, Note_on_c, 3, 57, 120
7, 382859, Note_on_c, 3, 57, 0
7, 382860, Note_on_c, 3, 57, 120
7, 382979, Note_on_c, 3, 57, 0
7, 382980, Note_on_c, 3, 64, 120
7, 382980, Note_on_c, 3, 69, 120
7, 383039, Note_on_c, 3, 69, 0
7, 383040, Note_on_c, 3, 71, 120
7, 383099, Note_on_c, 3, 71, 0
7, 383100, Note_on_c, 3, 64, 0
7, 383100, Note_on_c, 3, 64, 120
7, 383100, Note_on_c, 3, 69, 120
7, 383159, Note_on_c, 3, 69, 0
7, 383159, Note_on_c, 3, 64, 0
7, 383160, Note_on_c, 3, 68, 120
7, 383160, Note_on_c, 3, 71, 120
7, 383219, Note_on_c, 3, 71, 0
7, 383219, Note_on_c, 3, 68, 0
7, 383220, Note_on_c, 3, 73, 120
7, 383220, Note_on_c, 3, 69, 120
7, 383459, Note_on_c, 3, 69, 0
7, 383459, Note_on_c, 3, 73, 0
7, 383460, Note_on_c, 3, 67, 120
7, 383460, Note_on_c, 3, 64, 120
7, 383519, Note_on_c, 3, 64, 0
7, 383519, Note_on_c, 3, 67, 0
7, 383520, Note_on_c, 3, 62, 120
7, 383520, Note_on_c, 3, 66, 120
7, 383579, Note_on_c, 3, 66, 0
7, 383579, Note_on_c, 3, 62, 0
7, 383580, Note_on_c, 3, 64, 120
7, 383580, Note_on_c, 3, 67, 120
7, 383639, Note_on_c, 3, 67, 0
7, 383639, Note_on_c, 3, 64, 0
7, 383640, Note_on_c, 3, 62, 120
7, 383640, Note_on_c, 3, 66, 120
7, 383699, Note_on_c, 3, 66, 0
7, 383699, Note_on_c, 3, 62, 0
7, 383700, Note_on_c, 3, 57, 120
7, 383700, Note_on_c, 3, 64, 120
7, 383759, Note_on_c, 3, 64, 0
7, 383759, Note_on_c, 3, 57, 0
7, 383760, Note_on_c, 3, 66, 120
7, 383760, Note_on_c, 3, 62, 120
7, 383819, Note_on_c, 3, 62, 0
7, 383819, Note_on_c, 3, 66, 0
7, 383820, Note_on_c, 3, 64, 120
7, 383820, Note_on_c, 3, 57, 120
7, 383879, Note_on_c, 3, 57, 0
7, 383879, Note_on_c, 3, 64, 0
7, 383880, Note_on_c, 3, 66, 120
7, 383880, Note_on_c, 3, 62, 120
7, 383939, Note_on_c, 3, 62, 0
7, 383939, Note_on_c, 3, 66, 0
7, 383940, Note_on_c, 3, 64, 120
7, 383940, Note_on_c, 3, 67, 120
7, 383999, Note_on_c, 3, 67, 0
7, 383999, Note_on_c, 3, 64, 0
7, 384000, Note_on_c, 3, 62, 120
7, 384000, Note_on_c, 3, 66, 120
7, 384059, Note_on_c, 3, 66, 0
7, 384059, Note_on_c, 3, 62, 0
7, 384060, Note_on_c, 3, 64, 120
7, 384060, Note_on_c, 3, 67, 120
7, 384119, Note_on_c, 3, 67, 0
7, 384119, Note_on_c, 3, 64, 0
7, 384120, Note_on_c, 3, 62, 120
7, 384120, Note_on_c, 3, 66, 120
7, 384179, Note_on_c, 3, 66, 0
7, 384179, Note_on_c, 3, 62, 0
7, 384180, Note_on_c, 3, 64, 120
7, 384180, Note_on_c, 3, 57, 120
7, 384239, Note_on_c, 3, 57, 0
7, 384239, Note_on_c, 3, 64, 0
7, 384240, Note_on_c, 3, 62, 120
7, 384240, Note_on_c, 3, 66, 120
7, 384299, Note_on_c, 3, 66, 0
7, 384299, Note_on_c, 3, 62, 0
7, 384300, Note_on_c, 3, 57, 120
7, 384300, Note_on_c, 3, 64, 120
7, 384359, Note_on_c, 3, 64, 0
7, 384359, Note_on_c, 3, 57, 0
7, 384360, Note_on_c, 3, 66, 120
7, 384360, Note_on_c, 3, 62, 120
7, 384419, Note_on_c, 3, 62, 0
7, 384419, Note_on_c, 3, 66, 0
7, 384420, Note_on_c, 3, 54, 120
7, 384420, Note_on_c, 3, 62, 120
7, 384479, Note_on_c, 3, 62, 0
7, 384479, Note_on_c, 3, 54, 0
7, 384480, Note_on_c, 3, 64, 120
7, 384480, Note_on_c, 3, 57, 120
7, 384539, Note_on_c, 3, 57, 0
7, 384539, Note_on_c, 3, 64, 0
7, 384540, Note_on_c, 3, 62, 120
7, 384540, Note_on_c, 3, 66, 120
7, 384599, Note_on_c, 3, 66, 0
7, 384599, Note_on_c, 3, 62, 0
7, 384600, Note_on_c, 3, 64, 120
7, 384600, Note_on_c, 3, 67, 120
7, 384659, Note_on_c, 3, 67, 0
7, 384659, Note_on_c, 3, 64, 0
7, 384660, Note_on_c, 3, 69, 120
7, 384660, Note_on_c, 3, 66, 120
7, 384719, Note_on_c, 3, 66, 0
7, 384720, Note_on_c, 3, 64, 120
7, 384779, Note_on_c, 3, 64, 0
7, 384780, Note_on_c, 3, 69, 0
7, 384780, Note_on_c, 3, 71, 120
7, 384780, Note_on_c, 3, 62, 120
7, 384839, Note_on_c, 3, 62, 0
7, 384839, Note_on_c, 3, 71, 0
7, 384840, Note_on_c, 3, 64, 120
7, 384840, Note_on_c, 3, 69, 120
7, 384899, Note_on_c, 3, 69, 0
7, 384899, Note_on_c, 3, 64, 0
7, 384900, Note_on_c, 3, 57, 120
7, 384900, Note_on_c, 3, 67, 120
7, 384959, Note_on_c, 3, 67, 0
7, 384960, Note_on_c, 3, 66, 120
7, 385019, Note_on_c, 3, 66, 0
7, 385020, Note_on_c, 3, 57, 0
7, 385020, Note_on_c, 3, 57, 120
7, 385020, Note_on_c, 3, 64, 120
7, 385079, Note_on_c, 3, 64, 0
7, 385080, Note_on_c, 3, 66, 120
7, 385139, Note_on_c, 3, 66, 0
7, 385140, Note_on_c, 3, 57, 0
7, 385140, Note_on_c, 3, 54, 120
7, 385140, Note_on_c, 3, 62, 120
7, 385379, Note_on_c, 3, 62, 0
7, 385379, Note_on_c, 3, 54, 0
7, 385379, End_track
8, 0, Start_track
8, 0, MIDI_port, 0
8, 0, Title_t, "flauta i"
8, 0, Program_c, 4, 73
8, 30, Note_on_c, 4, 74, 100
8, 60, Note_on_c, 4, 74, 0
8, 60, Note_on_c, 4, 76, 100
8, 90, Note_on_c, 4, 76, 0
8, 90, Note_on_c, 4, 78, 100
8, 120, Note_on_c, 4, 78, 0
8, 120, Note_on_c, 4, 79, 100
8, 150, Note_on_c, 4, 79, 0
8, 150, Note_on_c, 4, 81, 100
8, 180, Note_on_c, 4, 81, 0
8, 180, Note_on_c, 4, 83, 100
8, 210, Note_on_c, 4, 83, 0
8, 210, Note_on_c, 4, 85, 100
8, 240, Note_on_c, 4, 85, 0
8, 240, Note_on_c, 4, 86, 100
8, 270, Note_on_c, 4, 86, 0
8, 270, Note_on_c, 4, 85, 100
8, 300, Note_on_c, 4, 85, 0
8, 300, Note_on_c, 4, 86, 100
8, 330, Note_on_c, 4, 86, 0
8, 330, Note_on_c, 4, 85, 100
8, 360, Note_on_c, 4, 85, 0
8, 360, Note_on_c, 4, 86, 100
8, 390, Note_on_c, 4, 86, 0
8, 390, Note_on_c, 4, 66, 100
8, 420, Note_on_c, 4, 66, 0
8, 420, Note_on_c, 4, 67, 100
8, 450, Note_on_c, 4, 67, 0
8, 450, Note_on_c, 4, 69, 100
8, 480, Note_on_c, 4, 69, 0
8, 480, Note_on_c, 4, 71, 100
8, 510, Note_on_c, 4, 71, 0
8, 510, Note_on_c, 4, 73, 100
8, 540, Note_on_c, 4, 73, 0
8, 540, Note_on_c, 4, 74, 100
8, 570, Note_on_c, 4, 74, 0
8, 570, Note_on_c, 4, 76, 100
8, 600, Note_on_c, 4, 76, 0
8, 600, Note_on_c, 4, 78, 100
8, 630, Note_on_c, 4, 78, 0
8, 630, Note_on_c, 4, 76, 100
8, 660, Note_on_c, 4, 76, 0
8, 660, Note_on_c, 4, 78, 100
8, 690, Note_on_c, 4, 78, 0
8, 690, Note_on_c, 4, 76, 100
8, 720, Note_on_c, 4, 76, 0
8, 720, Note_on_c, 4, 78, 100
8, 750, Note_on_c, 4, 78, 0
8, 750, Note_on_c, 4, 81, 100
8, 780, Note_on_c, 4, 81, 0
8, 780, Note_on_c, 4, 79, 100
8, 810, Note_on_c, 4, 79, 0
8, 810, Note_on_c, 4, 78, 100
8, 840, Note_on_c, 4, 78, 0
8, 840, Note_on_c, 4, 76, 100
8, 870, Note_on_c, 4, 76, 0
8, 870, Note_on_c, 4, 74, 100
8, 900, Note_on_c, 4, 74, 0
8, 900, Note_on_c, 4, 73, 100
8, 930, Note_on_c, 4, 73, 0
8, 930, Note_on_c, 4, 71, 100
8, 960, Note_on_c, 4, 71, 0
8, 960, Note_on_c, 4, 69, 100
8, 990, Note_on_c, 4, 69, 0
8, 990, Note_on_c, 4, 67, 100
8, 1020, Note_on_c, 4, 67, 0
8, 1020, Note_on_c, 4, 66, 100
8, 1050, Note_on_c, 4, 66, 0
8, 1050, Note_on_c, 4, 69, 100
8, 1080, Note_on_c, 4, 69, 0
8, 1080, Note_on_c, 4, 62, 100
8, 1140, Note_on_c, 4, 62, 0
8, 1200, Note_on_c, 4, 78, 100
8, 1260, Note_on_c, 4, 78, 0
8, 1260, Note_on_c, 4, 74, 100
8, 1320, Note_on_c, 4, 74, 0
8, 1830, Note_on_c, 4, 74, 100
8, 1859, Note_on_c, 4, 74, 0
8, 1860, Note_on_c, 4, 76, 100
8, 1889, Note_on_c, 4, 76, 0
8, 1890, Note_on_c, 4, 78, 100
8, 1919, Note_on_c, 4, 78, 0
8, 1920, Note_on_c, 4, 79, 100
8, 1949, Note_on_c, 4, 79, 0
8, 1950, Note_on_c, 4, 81, 100
8, 1979, Note_on_c, 4, 81, 0
8, 1980, Note_on_c, 4, 83, 100
8, 2009, Note_on_c, 4, 83, 0
8, 2010, Note_on_c, 4, 85, 100
8, 2039, Note_on_c, 4, 85, 0
8, 2040, Note_on_c, 4, 86, 100
8, 2069, Note_on_c, 4, 86, 0
8, 2070, Note_on_c, 4, 85, 100
8, 2099, Note_on_c, 4, 85, 0
8, 2100, Note_on_c, 4, 86, 100
8, 2129, Note_on_c, 4, 86, 0
8, 2130, Note_on_c, 4, 85, 100
8, 2159, Note_on_c, 4, 85, 0
8, 2160, Note_on_c, 4, 83, 100
8, 2189, Note_on_c, 4, 83, 0
8, 2190, Note_on_c, 4, 81, 100
8, 2219, Note_on_c, 4, 81, 0
8, 2220, Note_on_c, 4, 83, 100
8, 2249, Note_on_c, 4, 83, 0
8, 2250, Note_on_c, 4, 81, 100
8, 2279, Note_on_c, 4, 81, 0
8, 2280, Note_on_c, 4, 80, 100
8, 2309, Note_on_c, 4, 80, 0
8, 2310, Note_on_c, 4, 78, 100
8, 2339, Note_on_c, 4, 78, 0
8, 2340, Note_on_c, 4, 80, 100
8, 2369, Note_on_c, 4, 80, 0
8, 2370, Note_on_c, 4, 78, 100
8, 2399, Note_on_c, 4, 78, 0
8, 2400, Note_on_c, 4, 76, 100
8, 2429, Note_on_c, 4, 76, 0
8, 2430, Note_on_c, 4, 74, 100
8, 2459, Note_on_c, 4, 74, 0
8, 2460, Note_on_c, 4, 76, 100
8, 2489, Note_on_c, 4, 76, 0
8, 2490, Note_on_c, 4, 74, 100
8, 2519, Note_on_c, 4, 74, 0
8, 2520, Note_on_c, 4, 73, 100
8, 2549, Note_on_c, 4, 73, 0
8, 2550, Note_on_c, 4, 76, 100
8, 2579, Note_on_c, 4, 76, 0
8, 2580, Note_on_c, 4, 81, 100
8, 2609, Note_on_c, 4, 81, 0
8, 2610, Note_on_c, 4, 83, 100
8, 2639, Note_on_c, 4, 83, 0
8, 2640, Note_on_c, 4, 85, 100
8, 2669, Note_on_c, 4, 85, 0
8, 2670, Note_on_c, 4, 83, 100
8, 2699, Note_on_c, 4, 83, 0
8, 2700, Note_on_c, 4, 81, 100
8, 2729, Note_on_c, 4, 81, 0
8, 2730, Note_on_c, 4, 83, 100
8, 2759, Note_on_c, 4, 83, 0
8, 2760, Note_on_c, 4, 83, 100
8, 2849, Note_on_c, 4, 83, 0
8, 2850, Note_on_c, 4, 81, 100
8, 2879, Note_on_c, 4, 81, 0
8, 2880, Note_on_c, 4, 81, 100
8, 2939, Note_on_c, 4, 81, 0
8, 2940, Note_on_c, 4, 76, 100
8, 2999, Note_on_c, 4, 76, 0
8, 3000, Note_on_c, 4, 76, 100
8, 3059, Note_on_c, 4, 76, 0
8, 3060, Note_on_c, 4, 76, 100
8, 3119, Note_on_c, 4, 76, 0
8, 3120, Note_on_c, 4, 76, 100
8, 3179, Note_on_c, 4, 76, 0
8, 3180, Note_on_c, 4, 78, 100
8, 3209, Note_on_c, 4, 78, 0
8, 3210, Note_on_c, 4, 79, 100
8, 3239, Note_on_c, 4, 79, 0
8, 3240, Note_on_c, 4, 81, 100
8, 3299, Note_on_c, 4, 81, 0
8, 3300, Note_on_c, 4, 84, 100
8, 3329, Note_on_c, 4, 84, 0
8, 3330, Note_on_c, 4, 83, 100
8, 3359, Note_on_c, 4, 83, 0
8, 3360, Note_on_c, 4, 81, 100
8, 3419, Note_on_c, 4, 81, 0
8, 3420, Note_on_c, 4, 84, 100
8, 3449, Note_on_c, 4, 84, 0
8, 3450, Note_on_c, 4, 83, 100
8, 3479, Note_on_c, 4, 83, 0
8, 3480, Note_on_c, 4, 81, 100
8, 3539, Note_on_c, 4, 81, 0
8, 3540, Note_on_c, 4, 81, 100
8, 3599, Note_on_c, 4, 81, 0
8, 3600, Note_on_c, 4, 81, 100
8, 3959, Note_on_c, 4, 81, 0
8, 3960, Note_on_c, 4, 79, 100
8, 3989, Note_on_c, 4, 79, 0
8, 3990, Note_on_c, 4, 71, 100
8, 4019, Note_on_c, 4, 71, 0
8, 4020, Note_on_c, 4, 73, 100
8, 4049, Note_on_c, 4, 73, 0
8, 4050, Note_on_c, 4, 75, 100
8, 4079, Note_on_c, 4, 75, 0
8, 4080, Note_on_c, 4, 76, 100
8, 4109, Note_on_c, 4, 76, 0
8, 4110, Note_on_c, 4, 78, 100
8, 4139, Note_on_c, 4, 78, 0
8, 4140, Note_on_c, 4, 79, 100
8, 4169, Note_on_c, 4, 79, 0
8, 4170, Note_on_c, 4, 81, 100
8, 4199, Note_on_c, 4, 81, 0
8, 4200, Note_on_c, 4, 83, 100
8, 4229, Note_on_c, 4, 83, 0
8, 4230, Note_on_c, 4, 81, 100
8, 4259, Note_on_c, 4, 81, 0
8, 4260, Note_on_c, 4, 83, 100
8, 4289, Note_on_c, 4, 83, 0
8, 4290, Note_on_c, 4, 81, 100
8, 4319, Note_on_c, 4, 81, 0
8, 4320, Note_on_c, 4, 79, 100
8, 4679, Note_on_c, 4, 79, 0
8, 4710, Note_on_c, 4, 69, 100
8, 4739, Note_on_c, 4, 69, 0
8, 4740, Note_on_c, 4, 71, 100
8, 4769, Note_on_c, 4, 71, 0
8, 4770, Note_on_c, 4, 73, 100
8, 4799, Note_on_c, 4, 73, 0
8, 4800, Note_on_c, 4, 74, 100
8, 4829, Note_on_c, 4, 74, 0
8, 4830, Note_on_c, 4, 76, 100
8, 4859, Note_on_c, 4, 76, 0
8, 4860, Note_on_c, 4, 78, 100
8, 4889, Note_on_c, 4, 78, 0
8, 4890, Note_on_c, 4, 79, 100
8, 4919, Note_on_c, 4, 79, 0
8, 4920, Note_on_c, 4, 81, 100
8, 4949, Note_on_c, 4, 81, 0
8, 4950, Note_on_c, 4, 83, 100
8, 4979, Note_on_c, 4, 83, 0
8, 4980, Note_on_c, 4, 79, 100
8, 5009, Note_on_c, 4, 79, 0
8, 5010, Note_on_c, 4, 81, 100
8, 5039, Note_on_c, 4, 81, 0
8, 5040, Note_on_c, 4, 78, 100
8, 5069, Note_on_c, 4, 78, 0
8, 5070, Note_on_c, 4, 69, 100
8, 5099, Note_on_c, 4, 69, 0
8, 5100, Note_on_c, 4, 71, 100
8, 5129, Note_on_c, 4, 71, 0
8, 5130, Note_on_c, 4, 73, 100
8, 5159, Note_on_c, 4, 73, 0
8, 5160, Note_on_c, 4, 74, 100
8, 5189, Note_on_c, 4, 74, 0
8, 5190, Note_on_c, 4, 76, 100
8, 5219, Note_on_c, 4, 76, 0
8, 5220, Note_on_c, 4, 78, 100
8, 5249, Note_on_c, 4, 78, 0
8, 5250, Note_on_c, 4, 79, 100
8, 5279, Note_on_c, 4, 79, 0
8, 5280, Note_on_c, 4, 81, 100
8, 5339, Note_on_c, 4, 81, 0
8, 5430, Note_on_c, 4, 71, 100
8, 5459, Note_on_c, 4, 71, 0
8, 5460, Note_on_c, 4, 73, 100
8, 5489, Note_on_c, 4, 73, 0
8, 5490, Note_on_c, 4, 74, 100
8, 5519, Note_on_c, 4, 74, 0
8, 5520, Note_on_c, 4, 76, 100
8, 5549, Note_on_c, 4, 76, 0
8, 5550, Note_on_c, 4, 78, 100
8, 5579, Note_on_c, 4, 78, 0
8, 5580, Note_on_c, 4, 79, 100
8, 5609, Note_on_c, 4, 79, 0
8, 5610, Note_on_c, 4, 81, 100
8, 5639, Note_on_c, 4, 81, 0
8, 5640, Note_on_c, 4, 83, 100
8, 5699, Note_on_c, 4, 83, 0
8, 5790, Note_on_c, 4, 69, 100
8, 5819, Note_on_c, 4, 69, 0
8, 5820, Note_on_c, 4, 71, 100
8, 5849, Note_on_c, 4, 71, 0
8, 5850, Note_on_c, 4, 73, 100
8, 5879, Note_on_c, 4, 73, 0
8, 5880, Note_on_c, 4, 74, 100
8, 5909, Note_on_c, 4, 74, 0
8, 5910, Note_on_c, 4, 76, 100
8, 5939, Note_on_c, 4, 76, 0
8, 5940, Note_on_c, 4, 78, 100
8, 5969, Note_on_c, 4, 78, 0
8, 5970, Note_on_c, 4, 79, 100
8, 5999, Note_on_c, 4, 79, 0
8, 6000, Note_on_c, 4, 81, 100
8, 6059, Note_on_c, 4, 81, 0
8, 6150, Note_on_c, 4, 67, 100
8, 6179, Note_on_c, 4, 67, 0
8, 6180, Note_on_c, 4, 69, 100
8, 6209, Note_on_c, 4, 69, 0
8, 6210, Note_on_c, 4, 71, 100
8, 6239, Note_on_c, 4, 71, 0
8, 6240, Note_on_c, 4, 73, 100
8, 6269, Note_on_c, 4, 73, 0
8, 6270, Note_on_c, 4, 74, 100
8, 6299, Note_on_c, 4, 74, 0
8, 6300, Note_on_c, 4, 76, 100
8, 6329, Note_on_c, 4, 76, 0
8, 6330, Note_on_c, 4, 78, 100
8, 6359, Note_on_c, 4, 78, 0
8, 6360, Note_on_c, 4, 79, 100
8, 6419, Note_on_c, 4, 79, 0
8, 6510, Note_on_c, 4, 66, 100
8, 6539, Note_on_c, 4, 66, 0
8, 6540, Note_on_c, 4, 67, 100
8, 6569, Note_on_c, 4, 67, 0
8, 6570, Note_on_c, 4, 69, 100
8, 6599, Note_on_c, 4, 69, 0
8, 6600, Note_on_c, 4, 71, 100
8, 6629, Note_on_c, 4, 71, 0
8, 6630, Note_on_c, 4, 73, 100
8, 6659, Note_on_c, 4, 73, 0
8, 6660, Note_on_c, 4, 74, 100
8, 6689, Note_on_c, 4, 74, 0
8, 6690, Note_on_c, 4, 76, 100
8, 6719, Note_on_c, 4, 76, 0
8, 6720, Note_on_c, 4, 78, 100
8, 6779, Note_on_c, 4, 78, 0
8, 6870, Note_on_c, 4, 69, 100
8, 6899, Note_on_c, 4, 69, 0
8, 6900, Note_on_c, 4, 68, 100
8, 6929, Note_on_c, 4, 68, 0
8, 6930, Note_on_c, 4, 69, 100
8, 6959, Note_on_c, 4, 69, 0
8, 6960, Note_on_c, 4, 71, 100
8, 6989, Note_on_c, 4, 71, 0
8, 6990, Note_on_c, 4, 73, 100
8, 7019, Note_on_c, 4, 73, 0
8, 7020, Note_on_c, 4, 74, 100
8, 7049, Note_on_c, 4, 74, 0
8, 7050, Note_on_c, 4, 76, 100
8, 7079, Note_on_c, 4, 76, 0
8, 7080, Note_on_c, 4, 77, 100
8, 7139, Note_on_c, 4, 77, 0
8, 7230, Note_on_c, 4, 74, 100
8, 7259, Note_on_c, 4, 74, 0
8, 7260, Note_on_c, 4, 76, 100
8, 7289, Note_on_c, 4, 76, 0
8, 7290, Note_on_c, 4, 78, 100
8, 7319, Note_on_c, 4, 78, 0
8, 7320, Note_on_c, 4, 80, 100
8, 7349, Note_on_c, 4, 80, 0
8, 7350, Note_on_c, 4, 81, 100
8, 7379, Note_on_c, 4, 81, 0
8, 7380, Note_on_c, 4, 83, 100
8, 7409, Note_on_c, 4, 83, 0
8, 7410, Note_on_c, 4, 85, 100
8, 7439, Note_on_c, 4, 85, 0
8, 7440, Note_on_c, 4, 86, 100
8, 7499, Note_on_c, 4, 86, 0
8, 7680, Note_on_c, 4, 81, 100
8, 7739, Note_on_c, 4, 81, 0
8, 7740, Note_on_c, 4, 76, 100
8, 7799, Note_on_c, 4, 76, 0
8, 8040, Note_on_c, 4, 81, 100
8, 8099, Note_on_c, 4, 81, 0
8, 8100, Note_on_c, 4, 78, 100
8, 8159, Note_on_c, 4, 78, 0
8, 8400, Note_on_c, 4, 81, 100
8, 8459, Note_on_c, 4, 81, 0
8, 8460, Note_on_c, 4, 76, 100
8, 8519, Note_on_c, 4, 76, 0
8, 9030, Note_on_c, 4, 74, 100
8, 9059, Note_on_c, 4, 74, 0
8, 9060, Note_on_c, 4, 76, 100
8, 9089, Note_on_c, 4, 76, 0
8, 9090, Note_on_c, 4, 78, 100
8, 9119, Note_on_c, 4, 78, 0
8, 9120, Note_on_c, 4, 79, 100
8, 9149, Note_on_c, 4, 79, 0
8, 9150, Note_on_c, 4, 81, 100
8, 9179, Note_on_c, 4, 81, 0
8, 9180, Note_on_c, 4, 83, 100
8, 9209, Note_on_c, 4, 83, 0
8, 9210, Note_on_c, 4, 85, 100
8, 9239, Note_on_c, 4, 85, 0
8, 9240, Note_on_c, 4, 86, 100
8, 9269, Note_on_c, 4, 86, 0
8, 9270, Note_on_c, 4, 85, 100
8, 9299, Note_on_c, 4, 85, 0
8, 9300, Note_on_c, 4, 86, 100
8, 9329, Note_on_c, 4, 86, 0
8, 9330, Note_on_c, 4, 85, 100
8, 9359, Note_on_c, 4, 85, 0
8, 9360, Note_on_c, 4, 83, 100
8, 9389, Note_on_c, 4, 83, 0
8, 9390, Note_on_c, 4, 81, 100
8, 9419, Note_on_c, 4, 81, 0
8, 9420, Note_on_c, 4, 83, 100
8, 9449, Note_on_c, 4, 83, 0
8, 9450, Note_on_c, 4, 81, 100
8, 9479, Note_on_c, 4, 81, 0
8, 9480, Note_on_c, 4, 79, 100
8, 9509, Note_on_c, 4, 79, 0
8, 9510, Note_on_c, 4, 78, 100
8, 9539, Note_on_c, 4, 78, 0
8, 9540, Note_on_c, 4, 79, 100
8, 9569, Note_on_c, 4, 79, 0
8, 9570, Note_on_c, 4, 78, 100
8, 9599, Note_on_c, 4, 78, 0
8, 9600, Note_on_c, 4, 76, 100
8, 9629, Note_on_c, 4, 76, 0
8, 9630, Note_on_c, 4, 74, 100
8, 9659, Note_on_c, 4, 74, 0
8, 9660, Note_on_c, 4, 76, 100
8, 9689, Note_on_c, 4, 76, 0
8, 9690, Note_on_c, 4, 74, 100
8, 9719, Note_on_c, 4, 74, 0
8, 9720, Note_on_c, 4, 79, 100
8, 9779, Note_on_c, 4, 79, 0
8, 9780, Note_on_c, 4, 81, 100
8, 9809, Note_on_c, 4, 81, 0
8, 9810, Note_on_c, 4, 79, 100
8, 9839, Note_on_c, 4, 79, 0
8, 9840, Note_on_c, 4, 78, 100
8, 9869, Note_on_c, 4, 78, 0
8, 9870, Note_on_c, 4, 76, 100
8, 9899, Note_on_c, 4, 76, 0
8, 9900, Note_on_c, 4, 74, 100
8, 9929, Note_on_c, 4, 74, 0
8, 9930, Note_on_c, 4, 76, 100
8, 9959, Note_on_c, 4, 76, 0
8, 9960, Note_on_c, 4, 76, 100
8, 10049, Note_on_c, 4, 76, 0
8, 10050, Note_on_c, 4, 74, 100
8, 10079, Note_on_c, 4, 74, 0
8, 10080, Note_on_c, 4, 74, 100
8, 10199, Note_on_c, 4, 74, 0
8, 10200, Note_on_c, 4, 78, 100
8, 10259, Note_on_c, 4, 78, 0
8, 10260, Note_on_c, 4, 74, 100
8, 10319, Note_on_c, 4, 74, 0
8, 10560, Note_on_c, 4, 78, 100
8, 10619, Note_on_c, 4, 78, 0
8, 10620, Note_on_c, 4, 74, 100
8, 10679, Note_on_c, 4, 74, 0
8, 10920, Note_on_c, 4, 74, 100
8, 10979, Note_on_c, 4, 74, 0
8, 10980, Note_on_c, 4, 69, 100
8, 11039, Note_on_c, 4, 69, 0
8, 11280, Note_on_c, 4, 74, 100
8, 11339, Note_on_c, 4, 74, 0
8, 11340, Note_on_c, 4, 71, 100
8, 11399, Note_on_c, 4, 71, 0
8, 11580, Note_on_c, 4, 81, 100
8, 11609, Note_on_c, 4, 81, 0
8, 11610, Note_on_c, 4, 79, 100
8, 11639, Note_on_c, 4, 79, 0
8, 11640, Note_on_c, 4, 78, 100
8, 11669, Note_on_c, 4, 78, 0
8, 11670, Note_on_c, 4, 76, 100
8, 11699, Note_on_c, 4, 76, 0
8, 11700, Note_on_c, 4, 74, 100
8, 11729, Note_on_c, 4, 74, 0
8, 11730, Note_on_c, 4, 73, 100
8, 11759, Note_on_c, 4, 73, 0
8, 11760, Note_on_c, 4, 74, 100
8, 11789, Note_on_c, 4, 74, 0
8, 11790, Note_on_c, 4, 71, 100
8, 11819, Note_on_c, 4, 71, 0
8, 11820, Note_on_c, 4, 73, 100
8, 11849, Note_on_c, 4, 73, 0
8, 11850, Note_on_c, 4, 69, 100
8, 11879, Note_on_c, 4, 69, 0
8, 11880, Note_on_c, 4, 76, 100
8, 11999, Note_on_c, 4, 76, 0
8, 12000, Note_on_c, 4, 81, 100
8, 12059, Note_on_c, 4, 81, 0
8, 12060, Note_on_c, 4, 76, 100
8, 12119, Note_on_c, 4, 76, 0
8, 12360, Note_on_c, 4, 81, 100
8, 12419, Note_on_c, 4, 81, 0
8, 12420, Note_on_c, 4, 78, 100
8, 12479, Note_on_c, 4, 78, 0
8, 12720, Note_on_c, 4, 81, 100
8, 12779, Note_on_c, 4, 81, 0
8, 12780, Note_on_c, 4, 76, 100
8, 12839, Note_on_c, 4, 76, 0
8, 13350, Note_on_c, 4, 74, 100
8, 13379, Note_on_c, 4, 74, 0
8, 13380, Note_on_c, 4, 76, 100
8, 13409, Note_on_c, 4, 76, 0
8, 13410, Note_on_c, 4, 78, 100
8, 13439, Note_on_c, 4, 78, 0
8, 13440, Note_on_c, 4, 79, 100
8, 13469, Note_on_c, 4, 79, 0
8, 13470, Note_on_c, 4, 81, 100
8, 13499, Note_on_c, 4, 81, 0
8, 13500, Note_on_c, 4, 83, 100
8, 13529, Note_on_c, 4, 83, 0
8, 13530, Note_on_c, 4, 85, 100
8, 13559, Note_on_c, 4, 85, 0
8, 13560, Note_on_c, 4, 86, 100
8, 13589, Note_on_c, 4, 86, 0
8, 13590, Note_on_c, 4, 85, 100
8, 13619, Note_on_c, 4, 85, 0
8, 13620, Note_on_c, 4, 86, 100
8, 13649, Note_on_c, 4, 86, 0
8, 13650, Note_on_c, 4, 85, 100
8, 13679, Note_on_c, 4, 85, 0
8, 13680, Note_on_c, 4, 83, 100
8, 13709, Note_on_c, 4, 83, 0
8, 13710, Note_on_c, 4, 81, 100
8, 13739, Note_on_c, 4, 81, 0
8, 13740, Note_on_c, 4, 83, 100
8, 13769, Note_on_c, 4, 83, 0
8, 13770, Note_on_c, 4, 81, 100
8, 13799, Note_on_c, 4, 81, 0
8, 13800, Note_on_c, 4, 79, 100
8, 13829, Note_on_c, 4, 79, 0
8, 13830, Note_on_c, 4, 78, 100
8, 13859, Note_on_c, 4, 78, 0
8, 13860, Note_on_c, 4, 79, 100
8, 13889, Note_on_c, 4, 79, 0
8, 13890, Note_on_c, 4, 78, 100
8, 13919, Note_on_c, 4, 78, 0
8, 13920, Note_on_c, 4, 76, 100
8, 13949, Note_on_c, 4, 76, 0
8, 13950, Note_on_c, 4, 74, 100
8, 13979, Note_on_c, 4, 74, 0
8, 13980, Note_on_c, 4, 76, 100
8, 14009, Note_on_c, 4, 76, 0
8, 14010, Note_on_c, 4, 74, 100
8, 14039, Note_on_c, 4, 74, 0
8, 14040, Note_on_c, 4, 79, 100
8, 14099, Note_on_c, 4, 79, 0
8, 14100, Note_on_c, 4, 81, 100
8, 14129, Note_on_c, 4, 81, 0
8, 14130, Note_on_c, 4, 79, 100
8, 14159, Note_on_c, 4, 79, 0
8, 14160, Note_on_c, 4, 78, 100
8, 14189, Note_on_c, 4, 78, 0
8, 14190, Note_on_c, 4, 76, 100
8, 14219, Note_on_c, 4, 76, 0
8, 14220, Note_on_c, 4, 74, 100
8, 14249, Note_on_c, 4, 74, 0
8, 14250, Note_on_c, 4, 76, 100
8, 14279, Note_on_c, 4, 76, 0
8, 14280, Note_on_c, 4, 76, 100
8, 14369, Note_on_c, 4, 76, 0
8, 14370, Note_on_c, 4, 74, 100
8, 14399, Note_on_c, 4, 74, 0
8, 14400, Note_on_c, 4, 74, 100
8, 14429, Note_on_c, 4, 74, 0
8, 14430, Note_on_c, 4, 74, 100
8, 14459, Note_on_c, 4, 74, 0
8, 14460, Note_on_c, 4, 76, 100
8, 14489, Note_on_c, 4, 76, 0
8, 14490, Note_on_c, 4, 78, 100
8, 14519, Note_on_c, 4, 78, 0
8, 14520, Note_on_c, 4, 79, 100
8, 14549, Note_on_c, 4, 79, 0
8, 14550, Note_on_c, 4, 81, 100
8, 14579, Note_on_c, 4, 81, 0
8, 14580, Note_on_c, 4, 83, 100
8, 14609, Note_on_c, 4, 83, 0
8, 14610, Note_on_c, 4, 85, 100
8, 14639, Note_on_c, 4, 85, 0
8, 14640, Note_on_c, 4, 86, 100
8, 14669, Note_on_c, 4, 86, 0
8, 14670, Note_on_c, 4, 85, 100
8, 14699, Note_on_c, 4, 85, 0
8, 14700, Note_on_c, 4, 86, 100
8, 14729, Note_on_c, 4, 86, 0
8, 14730, Note_on_c, 4, 85, 100
8, 14759, Note_on_c, 4, 85, 0
8, 14760, Note_on_c, 4, 86, 100
8, 14789, Note_on_c, 4, 86, 0
8, 14790, Note_on_c, 4, 66, 100
8, 14819, Note_on_c, 4, 66, 0
8, 14820, Note_on_c, 4, 67, 100
8, 14849, Note_on_c, 4, 67, 0
8, 14850, Note_on_c, 4, 69, 100
8, 14879, Note_on_c, 4, 69, 0
8, 14880, Note_on_c, 4, 71, 100
8, 14909, Note_on_c, 4, 71, 0
8, 14910, Note_on_c, 4, 73, 100
8, 14939, Note_on_c, 4, 73, 0
8, 14940, Note_on_c, 4, 74, 100
8, 14969, Note_on_c, 4, 74, 0
8, 14970, Note_on_c, 4, 76, 100
8, 14999, Note_on_c, 4, 76, 0
8, 15000, Note_on_c, 4, 78, 100
8, 15029, Note_on_c, 4, 78, 0
8, 15030, Note_on_c, 4, 76, 100
8, 15059, Note_on_c, 4, 76, 0
8, 15060, Note_on_c, 4, 78, 100
8, 15089, Note_on_c, 4, 78, 0
8, 15090, Note_on_c, 4, 76, 100
8, 15119, Note_on_c, 4, 76, 0
8, 15120, Note_on_c, 4, 78, 100
8, 15149, Note_on_c, 4, 78, 0
8, 15150, Note_on_c, 4, 81, 100
8, 15179, Note_on_c, 4, 81, 0
8, 15180, Note_on_c, 4, 79, 100
8, 15209, Note_on_c, 4, 79, 0
8, 15210, Note_on_c, 4, 78, 100
8, 15239, Note_on_c, 4, 78, 0
8, 15240, Note_on_c, 4, 76, 100
8, 15269, Note_on_c, 4, 76, 0
8, 15270, Note_on_c, 4, 74, 100
8, 15299, Note_on_c, 4, 74, 0
8, 15300, Note_on_c, 4, 73, 100
8, 15329, Note_on_c, 4, 73, 0
8, 15330, Note_on_c, 4, 71, 100
8, 15359, Note_on_c, 4, 71, 0
8, 15360, Note_on_c, 4, 69, 100
8, 15389, Note_on_c, 4, 69, 0
8, 15390, Note_on_c, 4, 67, 100
8, 15419, Note_on_c, 4, 67, 0
8, 15420, Note_on_c, 4, 66, 100
8, 15449, Note_on_c, 4, 66, 0
8, 15450, Note_on_c, 4, 69, 100
8, 15479, Note_on_c, 4, 69, 0
8, 15480, Note_on_c, 4, 62, 100
8, 15509, Note_on_c, 4, 62, 0
8, 15510, Note_on_c, 4, 86, 100
8, 15539, Note_on_c, 4, 86, 0
8, 15540, Note_on_c, 4, 85, 100
8, 15569, Note_on_c, 4, 85, 0
8, 15570, Note_on_c, 4, 83, 100
8, 15599, Note_on_c, 4, 83, 0
8, 15600, Note_on_c, 4, 81, 100
8, 15629, Note_on_c, 4, 81, 0
8, 15630, Note_on_c, 4, 79, 100
8, 15659, Note_on_c, 4, 79, 0
8, 15660, Note_on_c, 4, 78, 100
8, 15689, Note_on_c, 4, 78, 0
8, 15690, Note_on_c, 4, 76, 100
8, 15719, Note_on_c, 4, 76, 0
8, 15720, Note_on_c, 4, 74, 100
8, 15749, Note_on_c, 4, 74, 0
8, 15750, Note_on_c, 4, 76, 100
8, 15779, Note_on_c, 4, 76, 0
8, 15780, Note_on_c, 4, 74, 100
8, 15809, Note_on_c, 4, 74, 0
8, 15810, Note_on_c, 4, 76, 100
8, 15839, Note_on_c, 4, 76, 0
8, 15840, Note_on_c, 4, 74, 100
8, 15869, Note_on_c, 4, 74, 0
8, 15870, Note_on_c, 4, 78, 100
8, 15899, Note_on_c, 4, 78, 0
8, 15900, Note_on_c, 4, 76, 100
8, 15929, Note_on_c, 4, 76, 0
8, 15930, Note_on_c, 4, 74, 100
8, 15959, Note_on_c, 4, 74, 0
8, 15960, Note_on_c, 4, 73, 100
8, 15989, Note_on_c, 4, 73, 0
8, 15990, Note_on_c, 4, 71, 100
8, 16019, Note_on_c, 4, 71, 0
8, 16020, Note_on_c, 4, 69, 100
8, 16049, Note_on_c, 4, 69, 0
8, 16050, Note_on_c, 4, 67, 100
8, 16079, Note_on_c, 4, 67, 0
8, 16080, Note_on_c, 4, 66, 100
8, 16139, Note_on_c, 4, 66, 0
8, 16230, Note_on_c, 4, 74, 100
8, 16259, Note_on_c, 4, 74, 0
8, 16260, Note_on_c, 4, 76, 100
8, 16289, Note_on_c, 4, 76, 0
8, 16290, Note_on_c, 4, 78, 100
8, 16319, Note_on_c, 4, 78, 0
8, 16320, Note_on_c, 4, 79, 100
8, 16349, Note_on_c, 4, 79, 0
8, 16350, Note_on_c, 4, 81, 100
8, 16379, Note_on_c, 4, 81, 0
8, 16380, Note_on_c, 4, 83, 100
8, 16409, Note_on_c, 4, 83, 0
8, 16410, Note_on_c, 4, 85, 100
8, 16439, Note_on_c, 4, 85, 0
8, 16440, Note_on_c, 4, 86, 100
8, 16469, Note_on_c, 4, 86, 0
8, 16470, Note_on_c, 4, 85, 100
8, 16499, Note_on_c, 4, 85, 0
8, 16500, Note_on_c, 4, 86, 100
8, 16529, Note_on_c, 4, 86, 0
8, 16530, Note_on_c, 4, 85, 100
8, 16559, Note_on_c, 4, 85, 0
8, 16560, Note_on_c, 4, 83, 100
8, 16589, Note_on_c, 4, 83, 0
8, 16590, Note_on_c, 4, 81, 100
8, 16619, Note_on_c, 4, 81, 0
8, 16620, Note_on_c, 4, 83, 100
8, 16649, Note_on_c, 4, 83, 0
8, 16650, Note_on_c, 4, 81, 100
8, 16679, Note_on_c, 4, 81, 0
8, 16680, Note_on_c, 4, 80, 100
8, 16709, Note_on_c, 4, 80, 0
8, 16710, Note_on_c, 4, 78, 100
8, 16739, Note_on_c, 4, 78, 0
8, 16740, Note_on_c, 4, 80, 100
8, 16769, Note_on_c, 4, 80, 0
8, 16770, Note_on_c, 4, 78, 100
8, 16799, Note_on_c, 4, 78, 0
8, 16800, Note_on_c, 4, 76, 100
8, 16829, Note_on_c, 4, 76, 0
8, 16830, Note_on_c, 4, 74, 100
8, 16859, Note_on_c, 4, 74, 0
8, 16860, Note_on_c, 4, 76, 100
8, 16889, Note_on_c, 4, 76, 0
8, 16890, Note_on_c, 4, 74, 100
8, 16919, Note_on_c, 4, 74, 0
8, 16920, Note_on_c, 4, 73, 100
8, 16949, Note_on_c, 4, 73, 0
8, 16950, Note_on_c, 4, 76, 100
8, 16979, Note_on_c, 4, 76, 0
8, 16980, Note_on_c, 4, 81, 100
8, 17009, Note_on_c, 4, 81, 0
8, 17010, Note_on_c, 4, 83, 100
8, 17039, Note_on_c, 4, 83, 0
8, 17040, Note_on_c, 4, 85, 100
8, 17069, Note_on_c, 4, 85, 0
8, 17070, Note_on_c, 4, 83, 100
8, 17099, Note_on_c, 4, 83, 0
8, 17100, Note_on_c, 4, 81, 100
8, 17129, Note_on_c, 4, 81, 0
8, 17130, Note_on_c, 4, 83, 100
8, 17159, Note_on_c, 4, 83, 0
8, 17160, Note_on_c, 4, 83, 100
8, 17249, Note_on_c, 4, 83, 0
8, 17250, Note_on_c, 4, 81, 100
8, 17279, Note_on_c, 4, 81, 0
8, 17280, Note_on_c, 4, 81, 100
8, 17309, Note_on_c, 4, 81, 0
8, 17310, Note_on_c, 4, 73, 100
8, 17339, Note_on_c, 4, 73, 0
8, 17340, Note_on_c, 4, 74, 100
8, 17369, Note_on_c, 4, 74, 0
8, 17370, Note_on_c, 4, 76, 100
8, 17399, Note_on_c, 4, 76, 0
8, 17400, Note_on_c, 4, 78, 100
8, 17429, Note_on_c, 4, 78, 0
8, 17430, Note_on_c, 4, 80, 100
8, 17459, Note_on_c, 4, 80, 0
8, 17460, Note_on_c, 4, 81, 100
8, 17489, Note_on_c, 4, 81, 0
8, 17490, Note_on_c, 4, 83, 100
8, 17519, Note_on_c, 4, 83, 0
8, 17520, Note_on_c, 4, 85, 100
8, 17579, Note_on_c, 4, 85, 0
8, 17670, Note_on_c, 4, 76, 100
8, 17699, Note_on_c, 4, 76, 0
8, 17700, Note_on_c, 4, 75, 100
8, 17729, Note_on_c, 4, 75, 0
8, 17730, Note_on_c, 4, 76, 100
8, 17759, Note_on_c, 4, 76, 0
8, 17760, Note_on_c, 4, 78, 100
8, 17789, Note_on_c, 4, 78, 0
8, 17790, Note_on_c, 4, 80, 100
8, 17819, Note_on_c, 4, 80, 0
8, 17820, Note_on_c, 4, 81, 100
8, 17849, Note_on_c, 4, 81, 0
8, 17850, Note_on_c, 4, 83, 100
8, 17879, Note_on_c, 4, 83, 0
8, 17880, Note_on_c, 4, 84, 100
8, 17939, Note_on_c, 4, 84, 0
8, 18030, Note_on_c, 4, 69, 100
8, 18059, Note_on_c, 4, 69, 0
8, 18060, Note_on_c, 4, 71, 100
8, 18089, Note_on_c, 4, 71, 0
8, 18090, Note_on_c, 4, 73, 100
8, 18119, Note_on_c, 4, 73, 0
8, 18120, Note_on_c, 4, 75, 100
8, 18149, Note_on_c, 4, 75, 0
8, 18150, Note_on_c, 4, 76, 100
8, 18179, Note_on_c, 4, 76, 0
8, 18180, Note_on_c, 4, 78, 100
8, 18209, Note_on_c, 4, 78, 0
8, 18210, Note_on_c, 4, 80, 100
8, 18239, Note_on_c, 4, 80, 0
8, 18240, Note_on_c, 4, 81, 100
8, 18299, Note_on_c, 4, 81, 0
8, 18420, Note_on_c, 4, 83, 100
8, 18479, Note_on_c, 4, 83, 0
8, 18480, Note_on_c, 4, 83, 100
8, 18539, Note_on_c, 4, 83, 0
8, 18540, Note_on_c, 4, 83, 100
8, 18599, Note_on_c, 4, 83, 0
8, 18600, Note_on_c, 4, 83, 100
8, 18659, Note_on_c, 4, 83, 0
8, 18660, Note_on_c, 4, 81, 100
8, 18689, Note_on_c, 4, 81, 0
8, 18690, Note_on_c, 4, 83, 100
8, 18719, Note_on_c, 4, 83, 0
8, 18720, Note_on_c, 4, 85, 100
8, 18779, Note_on_c, 4, 85, 0
8, 18780, Note_on_c, 4, 85, 100
8, 18839, Note_on_c, 4, 85, 0
8, 18840, Note_on_c, 4, 85, 100
8, 18899, Note_on_c, 4, 85, 0
8, 18900, Note_on_c, 4, 85, 100
8, 18959, Note_on_c, 4, 85, 0
8, 18960, Note_on_c, 4, 85, 100
8, 19019, Note_on_c, 4, 85, 0
8, 19020, Note_on_c, 4, 83, 100
8, 19049, Note_on_c, 4, 83, 0
8, 19050, Note_on_c, 4, 85, 100
8, 19079, Note_on_c, 4, 85, 0
8, 19080, Note_on_c, 4, 86, 100
8, 19139, Note_on_c, 4, 86, 0
8, 19140, Note_on_c, 4, 86, 100
8, 19199, Note_on_c, 4, 86, 0
8, 19200, Note_on_c, 4, 86, 100
8, 19259, Note_on_c, 4, 86, 0
8, 19260, Note_on_c, 4, 86, 100
8, 19319, Note_on_c, 4, 86, 0
8, 19320, Note_on_c, 4, 86, 100
8, 19379, Note_on_c, 4, 86, 0
8, 19380, Note_on_c, 4, 85, 100
8, 19409, Note_on_c, 4, 85, 0
8, 19410, Note_on_c, 4, 86, 100
8, 19439, Note_on_c, 4, 86, 0
8, 19440, Note_on_c, 4, 88, 100
8, 20040, Note_on_c, 4, 88, 0
8, 20070, Note_on_c, 4, 90, 100
8, 20099, Note_on_c, 4, 90, 0
8, 20100, Note_on_c, 4, 86, 100
8, 20129, Note_on_c, 4, 86, 0
8, 20130, Note_on_c, 4, 88, 100
8, 20159, Note_on_c, 4, 88, 0
8, 20160, Note_on_c, 4, 90, 100
8, 20189, Note_on_c, 4, 90, 0
8, 20190, Note_on_c, 4, 88, 100
8, 20219, Note_on_c, 4, 88, 0
8, 20220, Note_on_c, 4, 90, 100
8, 20249, Note_on_c, 4, 90, 0
8, 20250, Note_on_c, 4, 88, 100
8, 20279, Note_on_c, 4, 88, 0
8, 20280, Note_on_c, 4, 86, 100
8, 20309, Note_on_c, 4, 86, 0
8, 20310, Note_on_c, 4, 85, 100
8, 20339, Note_on_c, 4, 85, 0
8, 20340, Note_on_c, 4, 86, 100
8, 20369, Note_on_c, 4, 86, 0
8, 20370, Note_on_c, 4, 85, 100
8, 20399, Note_on_c, 4, 85, 0
8, 20400, Note_on_c, 4, 83, 100
8, 20429, Note_on_c, 4, 83, 0
8, 20430, Note_on_c, 4, 81, 100
8, 20459, Note_on_c, 4, 81, 0
8, 20460, Note_on_c, 4, 83, 100
8, 20489, Note_on_c, 4, 83, 0
8, 20490, Note_on_c, 4, 81, 100
8, 20519, Note_on_c, 4, 81, 0
8, 20520, Note_on_c, 4, 86, 100
8, 20579, Note_on_c, 4, 86, 0
8, 20580, Note_on_c, 4, 88, 100
8, 20609, Note_on_c, 4, 88, 0
8, 20610, Note_on_c, 4, 86, 100
8, 20639, Note_on_c, 4, 86, 0
8, 20640, Note_on_c, 4, 85, 100
8, 20669, Note_on_c, 4, 85, 0
8, 20670, Note_on_c, 4, 83, 100
8, 20699, Note_on_c, 4, 83, 0
8, 20700, Note_on_c, 4, 81, 100
8, 20729, Note_on_c, 4, 81, 0
8, 20730, Note_on_c, 4, 83, 100
8, 20759, Note_on_c, 4, 83, 0
8, 20760, Note_on_c, 4, 83, 100
8, 20849, Note_on_c, 4, 83, 0
8, 20850, Note_on_c, 4, 81, 100
8, 20879, Note_on_c, 4, 81, 0
8, 20880, Note_on_c, 4, 81, 100
8, 20939, Note_on_c, 4, 81, 0
8, 20940, Note_on_c, 4, 76, 100
8, 20999, Note_on_c, 4, 76, 0
8, 21000, Note_on_c, 4, 76, 100
8, 21059, Note_on_c, 4, 76, 0
8, 21060, Note_on_c, 4, 76, 100
8, 21119, Note_on_c, 4, 76, 0
8, 21120, Note_on_c, 4, 76, 100
8, 21179, Note_on_c, 4, 76, 0
8, 21180, Note_on_c, 4, 78, 100
8, 21209, Note_on_c, 4, 78, 0
8, 21210, Note_on_c, 4, 79, 100
8, 21239, Note_on_c, 4, 79, 0
8, 21240, Note_on_c, 4, 81, 100
8, 21299, Note_on_c, 4, 81, 0
8, 21300, Note_on_c, 4, 84, 100
8, 21329, Note_on_c, 4, 84, 0
8, 21330, Note_on_c, 4, 83, 100
8, 21359, Note_on_c, 4, 83, 0
8, 21360, Note_on_c, 4, 81, 100
8, 21419, Note_on_c, 4, 81, 0
8, 21420, Note_on_c, 4, 84, 100
8, 21449, Note_on_c, 4, 84, 0
8, 21450, Note_on_c, 4, 83, 100
8, 21479, Note_on_c, 4, 83, 0
8, 21480, Note_on_c, 4, 81, 100
8, 21539, Note_on_c, 4, 81, 0
8, 21540, Note_on_c, 4, 81, 100
8, 21599, Note_on_c, 4, 81, 0
8, 21600, Note_on_c, 4, 81, 100
8, 21959, Note_on_c, 4, 81, 0
8, 21960, Note_on_c, 4, 79, 100
8, 21989, Note_on_c, 4, 79, 0
8, 21990, Note_on_c, 4, 71, 100
8, 22019, Note_on_c, 4, 71, 0
8, 22020, Note_on_c, 4, 73, 100
8, 22049, Note_on_c, 4, 73, 0
8, 22050, Note_on_c, 4, 75, 100
8, 22079, Note_on_c, 4, 75, 0
8, 22080, Note_on_c, 4, 76, 100
8, 22109, Note_on_c, 4, 76, 0
8, 22110, Note_on_c, 4, 78, 100
8, 22139, Note_on_c, 4, 78, 0
8, 22140, Note_on_c, 4, 79, 100
8, 22169, Note_on_c, 4, 79, 0
8, 22170, Note_on_c, 4, 81, 100
8, 22199, Note_on_c, 4, 81, 0
8, 22200, Note_on_c, 4, 83, 100
8, 22229, Note_on_c, 4, 83, 0
8, 22230, Note_on_c, 4, 81, 100
8, 22259, Note_on_c, 4, 81, 0
8, 22260, Note_on_c, 4, 83, 100
8, 22289, Note_on_c, 4, 83, 0
8, 22290, Note_on_c, 4, 81, 100
8, 22319, Note_on_c, 4, 81, 0
8, 22320, Note_on_c, 4, 79, 100
8, 22679, Note_on_c, 4, 79, 0
8, 22710, Note_on_c, 4, 69, 100
8, 22739, Note_on_c, 4, 69, 0
8, 22740, Note_on_c, 4, 71, 100
8, 22769, Note_on_c, 4, 71, 0
8, 22770, Note_on_c, 4, 73, 100
8, 22799, Note_on_c, 4, 73, 0
8, 22800, Note_on_c, 4, 74, 100
8, 22829, Note_on_c, 4, 74, 0
8, 22830, Note_on_c, 4, 76, 100
8, 22859, Note_on_c, 4, 76, 0
8, 22860, Note_on_c, 4, 78, 100
8, 22889, Note_on_c, 4, 78, 0
8, 22890, Note_on_c, 4, 79, 100
8, 22919, Note_on_c, 4, 79, 0
8, 22920, Note_on_c, 4, 81, 100
8, 22949, Note_on_c, 4, 81, 0
8, 22950, Note_on_c, 4, 83, 100
8, 22979, Note_on_c, 4, 83, 0
8, 22980, Note_on_c, 4, 79, 100
8, 23009, Note_on_c, 4, 79, 0
8, 23010, Note_on_c, 4, 81, 100
8, 23039, Note_on_c, 4, 81, 0
8, 23040, Note_on_c, 4, 78, 100
8, 23069, Note_on_c, 4, 78, 0
8, 23070, Note_on_c, 4, 69, 100
8, 23099, Note_on_c, 4, 69, 0
8, 23100, Note_on_c, 4, 71, 100
8, 23129, Note_on_c, 4, 71, 0
8, 23130, Note_on_c, 4, 73, 100
8, 23159, Note_on_c, 4, 73, 0
8, 23160, Note_on_c, 4, 74, 100
8, 23189, Note_on_c, 4, 74, 0
8, 23190, Note_on_c, 4, 76, 100
8, 23219, Note_on_c, 4, 76, 0
8, 23220, Note_on_c, 4, 78, 100
8, 23249, Note_on_c, 4, 78, 0
8, 23250, Note_on_c, 4, 79, 100
8, 23279, Note_on_c, 4, 79, 0
8, 23280, Note_on_c, 4, 81, 100
8, 23339, Note_on_c, 4, 81, 0
8, 23430, Note_on_c, 4, 71, 100
8, 23459, Note_on_c, 4, 71, 0
8, 23460, Note_on_c, 4, 73, 100
8, 23489, Note_on_c, 4, 73, 0
8, 23490, Note_on_c, 4, 74, 100
8, 23519, Note_on_c, 4, 74, 0
8, 23520, Note_on_c, 4, 76, 100
8, 23549, Note_on_c, 4, 76, 0
8, 23550, Note_on_c, 4, 78, 100
8, 23579, Note_on_c, 4, 78, 0
8, 23580, Note_on_c, 4, 79, 100
8, 23609, Note_on_c, 4, 79, 0
8, 23610, Note_on_c, 4, 81, 100
8, 23639, Note_on_c, 4, 81, 0
8, 23640, Note_on_c, 4, 83, 100
8, 23699, Note_on_c, 4, 83, 0
8, 23790, Note_on_c, 4, 69, 100
8, 23819, Note_on_c, 4, 69, 0
8, 23820, Note_on_c, 4, 71, 100
8, 23849, Note_on_c, 4, 71, 0
8, 23850, Note_on_c, 4, 73, 100
8, 23879, Note_on_c, 4, 73, 0
8, 23880, Note_on_c, 4, 74, 100
8, 23909, Note_on_c, 4, 74, 0
8, 23910, Note_on_c, 4, 76, 100
8, 23939, Note_on_c, 4, 76, 0
8, 23940, Note_on_c, 4, 78, 100
8, 23969, Note_on_c, 4, 78, 0
8, 23970, Note_on_c, 4, 79, 100
8, 23999, Note_on_c, 4, 79, 0
8, 24000, Note_on_c, 4, 81, 100
8, 24059, Note_on_c, 4, 81, 0
8, 24150, Note_on_c, 4, 67, 100
8, 24179, Note_on_c, 4, 67, 0
8, 24180, Note_on_c, 4, 69, 100
8, 24209, Note_on_c, 4, 69, 0
8, 24210, Note_on_c, 4, 71, 100
8, 24239, Note_on_c, 4, 71, 0
8, 24240, Note_on_c, 4, 73, 100
8, 24269, Note_on_c, 4, 73, 0
8, 24270, Note_on_c, 4, 74, 100
8, 24299, Note_on_c, 4, 74, 0
8, 24300, Note_on_c, 4, 76, 100
8, 24329, Note_on_c, 4, 76, 0
8, 24330, Note_on_c, 4, 78, 100
8, 24359, Note_on_c, 4, 78, 0
8, 24360, Note_on_c, 4, 79, 100
8, 24419, Note_on_c, 4, 79, 0
8, 24510, Note_on_c, 4, 66, 100
8, 24539, Note_on_c, 4, 66, 0
8, 24540, Note_on_c, 4, 67, 100
8, 24569, Note_on_c, 4, 67, 0
8, 24570, Note_on_c, 4, 69, 100
8, 24599, Note_on_c, 4, 69, 0
8, 24600, Note_on_c, 4, 71, 100
8, 24629, Note_on_c, 4, 71, 0
8, 24630, Note_on_c, 4, 73, 100
8, 24659, Note_on_c, 4, 73, 0
8, 24660, Note_on_c, 4, 74, 100
8, 24689, Note_on_c, 4, 74, 0
8, 24690, Note_on_c, 4, 76, 100
8, 24719, Note_on_c, 4, 76, 0
8, 24720, Note_on_c, 4, 78, 100
8, 24779, Note_on_c, 4, 78, 0
8, 24870, Note_on_c, 4, 69, 100
8, 24899, Note_on_c, 4, 69, 0
8, 24900, Note_on_c, 4, 68, 100
8, 24929, Note_on_c, 4, 68, 0
8, 24930, Note_on_c, 4, 69, 100
8, 24959, Note_on_c, 4, 69, 0
8, 24960, Note_on_c, 4, 71, 100
8, 24989, Note_on_c, 4, 71, 0
8, 24990, Note_on_c, 4, 73, 100
8, 25019, Note_on_c, 4, 73, 0
8, 25020, Note_on_c, 4, 74, 100
8, 25049, Note_on_c, 4, 74, 0
8, 25050, Note_on_c, 4, 76, 100
8, 25079, Note_on_c, 4, 76, 0
8, 25080, Note_on_c, 4, 77, 100
8, 25139, Note_on_c, 4, 77, 0
8, 25230, Note_on_c, 4, 74, 100
8, 25259, Note_on_c, 4, 74, 0
8, 25260, Note_on_c, 4, 76, 100
8, 25289, Note_on_c, 4, 76, 0
8, 25290, Note_on_c, 4, 78, 100
8, 25319, Note_on_c, 4, 78, 0
8, 25320, Note_on_c, 4, 80, 100
8, 25349, Note_on_c, 4, 80, 0
8, 25350, Note_on_c, 4, 81, 100
8, 25379, Note_on_c, 4, 81, 0
8, 25380, Note_on_c, 4, 83, 100
8, 25409, Note_on_c, 4, 83, 0
8, 25410, Note_on_c, 4, 85, 100
8, 25439, Note_on_c, 4, 85, 0
8, 25440, Note_on_c, 4, 86, 100
8, 25499, Note_on_c, 4, 86, 0
8, 25680, Note_on_c, 4, 81, 100
8, 25739, Note_on_c, 4, 81, 0
8, 25740, Note_on_c, 4, 76, 100
8, 25799, Note_on_c, 4, 76, 0
8, 26040, Note_on_c, 4, 81, 100
8, 26099, Note_on_c, 4, 81, 0
8, 26100, Note_on_c, 4, 78, 100
8, 26159, Note_on_c, 4, 78, 0
8, 26400, Note_on_c, 4, 81, 100
8, 26459, Note_on_c, 4, 81, 0
8, 26460, Note_on_c, 4, 76, 100
8, 26519, Note_on_c, 4, 76, 0
8, 27030, Note_on_c, 4, 74, 100
8, 27059, Note_on_c, 4, 74, 0
8, 27060, Note_on_c, 4, 76, 100
8, 27089, Note_on_c, 4, 76, 0
8, 27090, Note_on_c, 4, 78, 100
8, 27119, Note_on_c, 4, 78, 0
8, 27120, Note_on_c, 4, 79, 100
8, 27149, Note_on_c, 4, 79, 0
8, 27150, Note_on_c, 4, 81, 100
8, 27179, Note_on_c, 4, 81, 0
8, 27180, Note_on_c, 4, 83, 100
8, 27209, Note_on_c, 4, 83, 0
8, 27210, Note_on_c, 4, 85, 100
8, 27239, Note_on_c, 4, 85, 0
8, 27240, Note_on_c, 4, 86, 100
8, 27269, Note_on_c, 4, 86, 0
8, 27270, Note_on_c, 4, 85, 100
8, 27299, Note_on_c, 4, 85, 0
8, 27300, Note_on_c, 4, 86, 100
8, 27329, Note_on_c, 4, 86, 0
8, 27330, Note_on_c, 4, 85, 100
8, 27359, Note_on_c, 4, 85, 0
8, 27360, Note_on_c, 4, 83, 100
8, 27389, Note_on_c, 4, 83, 0
8, 27390, Note_on_c, 4, 81, 100
8, 27419, Note_on_c, 4, 81, 0
8, 27420, Note_on_c, 4, 83, 100
8, 27449, Note_on_c, 4, 83, 0
8, 27450, Note_on_c, 4, 81, 100
8, 27479, Note_on_c, 4, 81, 0
8, 27480, Note_on_c, 4, 79, 100
8, 27509, Note_on_c, 4, 79, 0
8, 27510, Note_on_c, 4, 78, 100
8, 27539, Note_on_c, 4, 78, 0
8, 27540, Note_on_c, 4, 79, 100
8, 27569, Note_on_c, 4, 79, 0
8, 27570, Note_on_c, 4, 78, 100
8, 27599, Note_on_c, 4, 78, 0
8, 27600, Note_on_c, 4, 76, 100
8, 27629, Note_on_c, 4, 76, 0
8, 27630, Note_on_c, 4, 74, 100
8, 27659, Note_on_c, 4, 74, 0
8, 27660, Note_on_c, 4, 76, 100
8, 27689, Note_on_c, 4, 76, 0
8, 27690, Note_on_c, 4, 74, 100
8, 27719, Note_on_c, 4, 74, 0
8, 27720, Note_on_c, 4, 79, 100
8, 27779, Note_on_c, 4, 79, 0
8, 27780, Note_on_c, 4, 81, 100
8, 27809, Note_on_c, 4, 81, 0
8, 27810, Note_on_c, 4, 79, 100
8, 27839, Note_on_c, 4, 79, 0
8, 27840, Note_on_c, 4, 78, 100
8, 27869, Note_on_c, 4, 78, 0
8, 27870, Note_on_c, 4, 76, 100
8, 27899, Note_on_c, 4, 76, 0
8, 27900, Note_on_c, 4, 74, 100
8, 27929, Note_on_c, 4, 74, 0
8, 27930, Note_on_c, 4, 76, 100
8, 27959, Note_on_c, 4, 76, 0
8, 27960, Note_on_c, 4, 76, 100
8, 28049, Note_on_c, 4, 76, 0
8, 28050, Note_on_c, 4, 74, 100
8, 28079, Note_on_c, 4, 74, 0
8, 28080, Note_on_c, 4, 74, 100
8, 28199, Note_on_c, 4, 74, 0
8, 28200, Note_on_c, 4, 81, 100
8, 28259, Note_on_c, 4, 81, 0
8, 28260, Note_on_c, 4, 78, 100
8, 28319, Note_on_c, 4, 78, 0
8, 28560, Note_on_c, 4, 79, 100
8, 28619, Note_on_c, 4, 79, 0
8, 28620, Note_on_c, 4, 74, 100
8, 28679, Note_on_c, 4, 74, 0
8, 28920, Note_on_c, 4, 78, 100
8, 28979, Note_on_c, 4, 78, 0
8, 28980, Note_on_c, 4, 74, 100
8, 29039, Note_on_c, 4, 74, 0
8, 29220, Note_on_c, 4, 83, 100
8, 29249, Note_on_c, 4, 83, 0
8, 29250, Note_on_c, 4, 81, 100
8, 29279, Note_on_c, 4, 81, 0
8, 29280, Note_on_c, 4, 79, 100
8, 29309, Note_on_c, 4, 79, 0
8, 29310, Note_on_c, 4, 78, 100
8, 29339, Note_on_c, 4, 78, 0
8, 29340, Note_on_c, 4, 79, 100
8, 29369, Note_on_c, 4, 79, 0
8, 29370, Note_on_c, 4, 78, 100
8, 29399, Note_on_c, 4, 78, 0
8, 29400, Note_on_c, 4, 76, 100
8, 29429, Note_on_c, 4, 76, 0
8, 29430, Note_on_c, 4, 74, 100
8, 29459, Note_on_c, 4, 74, 0
8, 29460, Note_on_c, 4, 76, 100
8, 29489, Note_on_c, 4, 76, 0
8, 29490, Note_on_c, 4, 74, 100
8, 29519, Note_on_c, 4, 74, 0
8, 29520, Note_on_c, 4, 79, 100
8, 29579, Note_on_c, 4, 79, 0
8, 29580, Note_on_c, 4, 81, 100
8, 29609, Note_on_c, 4, 81, 0
8, 29610, Note_on_c, 4, 79, 100
8, 29639, Note_on_c, 4, 79, 0
8, 29640, Note_on_c, 4, 78, 100
8, 29669, Note_on_c, 4, 78, 0
8, 29670, Note_on_c, 4, 76, 100
8, 29699, Note_on_c, 4, 76, 0
8, 29700, Note_on_c, 4, 74, 100
8, 29729, Note_on_c, 4, 74, 0
8, 29730, Note_on_c, 4, 76, 100
8, 29759, Note_on_c, 4, 76, 0
8, 29760, Note_on_c, 4, 76, 100
8, 29849, Note_on_c, 4, 76, 0
8, 29850, Note_on_c, 4, 74, 100
8, 29879, Note_on_c, 4, 74, 0
8, 29880, Note_on_c, 4, 74, 100
8, 29999, Note_on_c, 4, 74, 0
8, 30270, Note_on_c, 4, 73, 100
8, 30299, Note_on_c, 4, 73, 0
8, 30300, Note_on_c, 4, 74, 100
8, 30329, Note_on_c, 4, 74, 0
8, 30330, Note_on_c, 4, 76, 100
8, 30359, Note_on_c, 4, 76, 0
8, 30360, Note_on_c, 4, 78, 100
8, 30389, Note_on_c, 4, 78, 0
8, 30390, Note_on_c, 4, 79, 100
8, 30419, Note_on_c, 4, 79, 0
8, 30420, Note_on_c, 4, 81, 100
8, 30449, Note_on_c, 4, 81, 0
8, 30450, Note_on_c, 4, 83, 100
8, 30479, Note_on_c, 4, 83, 0
8, 30480, Note_on_c, 4, 85, 100
8, 30509, Note_on_c, 4, 85, 0
8, 30510, Note_on_c, 4, 86, 100
8, 30539, Note_on_c, 4, 86, 0
8, 30540, Note_on_c, 4, 88, 100
8, 30569, Note_on_c, 4, 88, 0
8, 30570, Note_on_c, 4, 90, 100
8, 30599, Note_on_c, 4, 90, 0
8, 30600, Note_on_c, 4, 91, 100
8, 30659, Note_on_c, 4, 91, 0
8, 30990, Note_on_c, 4, 79, 100
8, 31019, Note_on_c, 4, 79, 0
8, 31020, Note_on_c, 4, 78, 100
8, 31049, Note_on_c, 4, 78, 0
8, 31050, Note_on_c, 4, 76, 100
8, 31079, Note_on_c, 4, 76, 0
8, 31080, Note_on_c, 4, 74, 100
8, 31109, Note_on_c, 4, 74, 0
8, 31110, Note_on_c, 4, 73, 100
8, 31139, Note_on_c, 4, 73, 0
8, 31140, Note_on_c, 4, 71, 100
8, 31169, Note_on_c, 4, 71, 0
8, 31170, Note_on_c, 4, 70, 100
8, 31199, Note_on_c, 4, 70, 0
8, 31200, Note_on_c, 4, 71, 100
8, 31259, Note_on_c, 4, 71, 0
8, 31740, Note_on_c, 4, 70, 100
8, 31769, Note_on_c, 4, 70, 0
8, 31770, Note_on_c, 4, 71, 100
8, 31799, Note_on_c, 4, 71, 0
8, 31800, Note_on_c, 4, 73, 100
8, 31829, Note_on_c, 4, 73, 0
8, 31830, Note_on_c, 4, 74, 100
8, 31859, Note_on_c, 4, 74, 0
8, 31860, Note_on_c, 4, 76, 100
8, 31889, Note_on_c, 4, 76, 0
8, 31890, Note_on_c, 4, 78, 100
8, 31919, Note_on_c, 4, 78, 0
8, 31920, Note_on_c, 4, 79, 100
8, 31949, Note_on_c, 4, 79, 0
8, 31950, Note_on_c, 4, 78, 100
8, 31979, Note_on_c, 4, 78, 0
8, 31980, Note_on_c, 4, 79, 100
8, 32009, Note_on_c, 4, 79, 0
8, 32010, Note_on_c, 4, 78, 100
8, 32039, Note_on_c, 4, 78, 0
8, 32040, Note_on_c, 4, 76, 100
8, 32069, Note_on_c, 4, 76, 0
8, 32070, Note_on_c, 4, 74, 100
8, 32099, Note_on_c, 4, 74, 0
8, 32100, Note_on_c, 4, 73, 100
8, 32129, Note_on_c, 4, 73, 0
8, 32130, Note_on_c, 4, 74, 100
8, 32159, Note_on_c, 4, 74, 0
8, 32160, Note_on_c, 4, 76, 100
8, 32189, Note_on_c, 4, 76, 0
8, 32190, Note_on_c, 4, 74, 100
8, 32219, Note_on_c, 4, 74, 0
8, 32220, Note_on_c, 4, 73, 100
8, 32249, Note_on_c, 4, 73, 0
8, 32250, Note_on_c, 4, 74, 100
8, 32279, Note_on_c, 4, 74, 0
8, 32280, Note_on_c, 4, 76, 100
8, 32309, Note_on_c, 4, 76, 0
8, 32310, Note_on_c, 4, 74, 100
8, 32339, Note_on_c, 4, 74, 0
8, 32340, Note_on_c, 4, 73, 100
8, 32369, Note_on_c, 4, 73, 0
8, 32370, Note_on_c, 4, 71, 100
8, 32399, Note_on_c, 4, 71, 0
8, 32400, Note_on_c, 4, 73, 100
8, 32429, Note_on_c, 4, 73, 0
8, 32430, Note_on_c, 4, 66, 100
8, 32459, Note_on_c, 4, 66, 0
8, 32460, Note_on_c, 4, 68, 100
8, 32489, Note_on_c, 4, 68, 0
8, 32490, Note_on_c, 4, 70, 100
8, 32519, Note_on_c, 4, 70, 0
8, 32520, Note_on_c, 4, 71, 100
8, 32549, Note_on_c, 4, 71, 0
8, 32550, Note_on_c, 4, 73, 100
8, 32579, Note_on_c, 4, 73, 0
8, 32580, Note_on_c, 4, 74, 100
8, 32609, Note_on_c, 4, 74, 0
8, 32610, Note_on_c, 4, 76, 100
8, 32639, Note_on_c, 4, 76, 0
8, 32640, Note_on_c, 4, 78, 100
8, 32669, Note_on_c, 4, 78, 0
8, 32670, Note_on_c, 4, 79, 100
8, 32699, Note_on_c, 4, 79, 0
8, 32700, Note_on_c, 4, 76, 100
8, 32729, Note_on_c, 4, 76, 0
8, 32730, Note_on_c, 4, 78, 100
8, 32759, Note_on_c, 4, 78, 0
8, 32760, Note_on_c, 4, 74, 100
8, 32879, Note_on_c, 4, 74, 0
8, 33870, Note_on_c, 4, 71, 100
8, 33899, Note_on_c, 4, 71, 0
8, 33900, Note_on_c, 4, 73, 100
8, 33929, Note_on_c, 4, 73, 0
8, 33930, Note_on_c, 4, 75, 100
8, 33959, Note_on_c, 4, 75, 0
8, 33960, Note_on_c, 4, 76, 100
8, 33989, Note_on_c, 4, 76, 0
8, 33990, Note_on_c, 4, 78, 100
8, 34019, Note_on_c, 4, 78, 0
8, 34020, Note_on_c, 4, 79, 100
8, 34049, Note_on_c, 4, 79, 0
8, 34050, Note_on_c, 4, 81, 100
8, 34079, Note_on_c, 4, 81, 0
8, 34080, Note_on_c, 4, 83, 100
8, 34139, Note_on_c, 4, 83, 0
8, 34230, Note_on_c, 4, 69, 100
8, 34259, Note_on_c, 4, 69, 0
8, 34260, Note_on_c, 4, 71, 100
8, 34289, Note_on_c, 4, 71, 0
8, 34290, Note_on_c, 4, 73, 100
8, 34319, Note_on_c, 4, 73, 0
8, 34320, Note_on_c, 4, 74, 100
8, 34349, Note_on_c, 4, 74, 0
8, 34350, Note_on_c, 4, 76, 100
8, 34379, Note_on_c, 4, 76, 0
8, 34380, Note_on_c, 4, 78, 100
8, 34409, Note_on_c, 4, 78, 0
8, 34410, Note_on_c, 4, 79, 100
8, 34439, Note_on_c, 4, 79, 0
8, 34440, Note_on_c, 4, 81, 100
8, 34469, Note_on_c, 4, 81, 0
8, 34470, Note_on_c, 4, 83, 100
8, 34499, Note_on_c, 4, 83, 0
8, 34500, Note_on_c, 4, 81, 100
8, 34529, Note_on_c, 4, 81, 0
8, 34530, Note_on_c, 4, 79, 100
8, 34559, Note_on_c, 4, 79, 0
8, 34560, Note_on_c, 4, 78, 100
8, 34589, Note_on_c, 4, 78, 0
8, 34590, Note_on_c, 4, 69, 100
8, 34619, Note_on_c, 4, 69, 0
8, 34620, Note_on_c, 4, 71, 100
8, 34649, Note_on_c, 4, 71, 0
8, 34650, Note_on_c, 4, 73, 100
8, 34679, Note_on_c, 4, 73, 0
8, 34680, Note_on_c, 4, 74, 100
8, 34709, Note_on_c, 4, 74, 0
8, 34710, Note_on_c, 4, 76, 100
8, 34739, Note_on_c, 4, 76, 0
8, 34740, Note_on_c, 4, 78, 100
8, 34769, Note_on_c, 4, 78, 0
8, 34770, Note_on_c, 4, 79, 100
8, 34799, Note_on_c, 4, 79, 0
8, 34800, Note_on_c, 4, 81, 100
8, 34859, Note_on_c, 4, 81, 0
8, 34950, Note_on_c, 4, 67, 100
8, 34979, Note_on_c, 4, 67, 0
8, 34980, Note_on_c, 4, 69, 100
8, 35009, Note_on_c, 4, 69, 0
8, 35010, Note_on_c, 4, 71, 100
8, 35039, Note_on_c, 4, 71, 0
8, 35040, Note_on_c, 4, 73, 100
8, 35069, Note_on_c, 4, 73, 0
8, 35070, Note_on_c, 4, 74, 100
8, 35099, Note_on_c, 4, 74, 0
8, 35100, Note_on_c, 4, 76, 100
8, 35129, Note_on_c, 4, 76, 0
8, 35130, Note_on_c, 4, 78, 100
8, 35159, Note_on_c, 4, 78, 0
8, 35160, Note_on_c, 4, 79, 100
8, 35189, Note_on_c, 4, 79, 0
8, 35190, Note_on_c, 4, 81, 100
8, 35219, Note_on_c, 4, 81, 0
8, 35220, Note_on_c, 4, 79, 100
8, 35249, Note_on_c, 4, 79, 0
8, 35250, Note_on_c, 4, 78, 100
8, 35279, Note_on_c, 4, 78, 0
8, 35280, Note_on_c, 4, 76, 100
8, 35309, Note_on_c, 4, 76, 0
8, 35310, Note_on_c, 4, 67, 100
8, 35339, Note_on_c, 4, 67, 0
8, 35340, Note_on_c, 4, 69, 100
8, 35369, Note_on_c, 4, 69, 0
8, 35370, Note_on_c, 4, 71, 100
8, 35399, Note_on_c, 4, 71, 0
8, 35400, Note_on_c, 4, 73, 100
8, 35429, Note_on_c, 4, 73, 0
8, 35430, Note_on_c, 4, 74, 100
8, 35459, Note_on_c, 4, 74, 0
8, 35460, Note_on_c, 4, 76, 100
8, 35489, Note_on_c, 4, 76, 0
8, 35490, Note_on_c, 4, 78, 100
8, 35519, Note_on_c, 4, 78, 0
8, 35520, Note_on_c, 4, 79, 100
8, 35579, Note_on_c, 4, 79, 0
8, 35670, Note_on_c, 4, 66, 100
8, 35699, Note_on_c, 4, 66, 0
8, 35700, Note_on_c, 4, 68, 100
8, 35729, Note_on_c, 4, 68, 0
8, 35730, Note_on_c, 4, 70, 100
8, 35759, Note_on_c, 4, 70, 0
8, 35760, Note_on_c, 4, 71, 100
8, 35789, Note_on_c, 4, 71, 0
8, 35790, Note_on_c, 4, 73, 100
8, 35819, Note_on_c, 4, 73, 0
8, 35820, Note_on_c, 4, 74, 100
8, 35849, Note_on_c, 4, 74, 0
8, 35850, Note_on_c, 4, 76, 100
8, 35879, Note_on_c, 4, 76, 0
8, 35880, Note_on_c, 4, 78, 100
8, 35909, Note_on_c, 4, 78, 0
8, 35910, Note_on_c, 4, 79, 100
8, 35939, Note_on_c, 4, 79, 0
8, 35940, Note_on_c, 4, 78, 100
8, 35969, Note_on_c, 4, 78, 0
8, 35970, Note_on_c, 4, 76, 100
8, 35999, Note_on_c, 4, 76, 0
8, 36000, Note_on_c, 4, 74, 100
8, 36029, Note_on_c, 4, 74, 0
8, 36030, Note_on_c, 4, 71, 100
8, 36059, Note_on_c, 4, 71, 0
8, 36060, Note_on_c, 4, 79, 100
8, 36089, Note_on_c, 4, 79, 0
8, 36090, Note_on_c, 4, 78, 100
8, 36119, Note_on_c, 4, 78, 0
8, 36120, Note_on_c, 4, 76, 100
8, 36149, Note_on_c, 4, 76, 0
8, 36150, Note_on_c, 4, 74, 100
8, 36179, Note_on_c, 4, 74, 0
8, 36180, Note_on_c, 4, 76, 100
8, 36209, Note_on_c, 4, 76, 0
8, 36210, Note_on_c, 4, 74, 100
8, 36239, Note_on_c, 4, 74, 0
8, 36240, Note_on_c, 4, 72, 100
8, 36269, Note_on_c, 4, 72, 0
8, 36270, Note_on_c, 4, 71, 100
8, 36299, Note_on_c, 4, 71, 0
8, 36300, Note_on_c, 4, 72, 100
8, 36329, Note_on_c, 4, 72, 0
8, 36330, Note_on_c, 4, 71, 100
8, 36359, Note_on_c, 4, 71, 0
8, 36360, Note_on_c, 4, 70, 100
8, 36479, Note_on_c, 4, 70, 0
8, 36480, Note_on_c, 4, 76, 100
8, 36539, Note_on_c, 4, 76, 0
8, 36540, Note_on_c, 4, 73, 100
8, 36599, Note_on_c, 4, 73, 0
8, 36840, Note_on_c, 4, 78, 100
8, 36899, Note_on_c, 4, 78, 0
8, 36900, Note_on_c, 4, 74, 100
8, 36959, Note_on_c, 4, 74, 0
8, 37200, Note_on_c, 4, 79, 100
8, 37259, Note_on_c, 4, 79, 0
8, 37260, Note_on_c, 4, 76, 100
8, 37319, Note_on_c, 4, 76, 0
8, 37500, Note_on_c, 4, 79, 100
8, 37529, Note_on_c, 4, 79, 0
8, 37530, Note_on_c, 4, 78, 100
8, 37559, Note_on_c, 4, 78, 0
8, 37560, Note_on_c, 4, 76, 100
8, 37589, Note_on_c, 4, 76, 0
8, 37590, Note_on_c, 4, 74, 100
8, 37619, Note_on_c, 4, 74, 0
8, 37620, Note_on_c, 4, 73, 100
8, 37649, Note_on_c, 4, 73, 0
8, 37650, Note_on_c, 4, 71, 100
8, 37679, Note_on_c, 4, 71, 0
8, 37680, Note_on_c, 4, 74, 100
8, 37709, Note_on_c, 4, 74, 0
8, 37710, Note_on_c, 4, 73, 100
8, 37739, Note_on_c, 4, 73, 0
8, 37740, Note_on_c, 4, 71, 100
8, 37769, Note_on_c, 4, 71, 0
8, 37770, Note_on_c, 4, 70, 100
8, 37799, Note_on_c, 4, 70, 0
8, 37800, Note_on_c, 4, 83, 100
8, 37859, Note_on_c, 4, 83, 0
8, 37860, Note_on_c, 4, 80, 100
8, 37919, Note_on_c, 4, 80, 0
8, 38160, Note_on_c, 4, 81, 100
8, 38219, Note_on_c, 4, 81, 0
8, 38220, Note_on_c, 4, 78, 100
8, 38279, Note_on_c, 4, 78, 0
8, 38520, Note_on_c, 4, 80, 100
8, 38579, Note_on_c, 4, 80, 0
8, 38580, Note_on_c, 4, 77, 100
8, 38639, Note_on_c, 4, 77, 0
8, 38880, Note_on_c, 4, 78, 100
8, 38939, Note_on_c, 4, 78, 0
8, 38940, Note_on_c, 4, 73, 100
8, 38999, Note_on_c, 4, 73, 0
8, 39060, Note_on_c, 4, 73, 100
8, 39119, Note_on_c, 4, 73, 0
8, 39120, Note_on_c, 4, 78, 100
8, 39149, Note_on_c, 4, 78, 0
8, 39150, Note_on_c, 4, 76, 100
8, 39179, Note_on_c, 4, 76, 0
8, 39180, Note_on_c, 4, 78, 100
8, 39209, Note_on_c, 4, 78, 0
8, 39210, Note_on_c, 4, 76, 100
8, 39239, Note_on_c, 4, 76, 0
8, 39240, Note_on_c, 4, 74, 100
8, 39269, Note_on_c, 4, 74, 0
8, 39270, Note_on_c, 4, 73, 100
8, 39299, Note_on_c, 4, 73, 0
8, 39300, Note_on_c, 4, 74, 100
8, 39329, Note_on_c, 4, 74, 0
8, 39330, Note_on_c, 4, 71, 100
8, 39359, Note_on_c, 4, 71, 0
8, 39360, Note_on_c, 4, 77, 100
8, 39419, Note_on_c, 4, 77, 0
8, 39420, Note_on_c, 4, 78, 100
8, 39479, Note_on_c, 4, 78, 0
8, 39480, Note_on_c, 4, 73, 100
8, 39539, Note_on_c, 4, 73, 0
8, 39540, Note_on_c, 4, 77, 100
8, 39599, Note_on_c, 4, 77, 0
8, 39600, Note_on_c, 4, 78, 100
8, 39959, Note_on_c, 4, 78, 0
8, 39990, Note_on_c, 4, 74, 100
8, 40020, Note_on_c, 4, 74, 0
8, 40020, Note_on_c, 4, 76, 100
8, 40050, Note_on_c, 4, 76, 0
8, 40050, Note_on_c, 4, 78, 100
8, 40080, Note_on_c, 4, 78, 0
8, 40080, Note_on_c, 4, 79, 100
8, 40110, Note_on_c, 4, 79, 0
8, 40110, Note_on_c, 4, 81, 100
8, 40140, Note_on_c, 4, 81, 0
8, 40140, Note_on_c, 4, 83, 100
8, 40170, Note_on_c, 4, 83, 0
8, 40170, Note_on_c, 4, 85, 100
8, 40200, Note_on_c, 4, 85, 0
8, 40200, Note_on_c, 4, 86, 100
8, 40230, Note_on_c, 4, 86, 0
8, 40230, Note_on_c, 4, 85, 100
8, 40260, Note_on_c, 4, 85, 0
8, 40260, Note_on_c, 4, 86, 100
8, 40290, Note_on_c, 4, 86, 0
8, 40290, Note_on_c, 4, 85, 100
8, 40320, Note_on_c, 4, 85, 0
8, 40320, Note_on_c, 4, 86, 100
8, 40350, Note_on_c, 4, 86, 0
8, 40350, Note_on_c, 4, 66, 100
8, 40380, Note_on_c, 4, 66, 0
8, 40380, Note_on_c, 4, 67, 100
8, 40410, Note_on_c, 4, 67, 0
8, 40410, Note_on_c, 4, 69, 100
8, 40440, Note_on_c, 4, 69, 0
8, 40440, Note_on_c, 4, 71, 100
8, 40470, Note_on_c, 4, 71, 0
8, 40470, Note_on_c, 4, 73, 100
8, 40500, Note_on_c, 4, 73, 0
8, 40500, Note_on_c, 4, 74, 100
8, 40530, Note_on_c, 4, 74, 0
8, 40530, Note_on_c, 4, 76, 100
8, 40560, Note_on_c, 4, 76, 0
8, 40560, Note_on_c, 4, 78, 100
8, 40590, Note_on_c, 4, 78, 0
8, 40590, Note_on_c, 4, 76, 100
8, 40620, Note_on_c, 4, 76, 0
8, 40620, Note_on_c, 4, 78, 100
8, 40650, Note_on_c, 4, 78, 0
8, 40650, Note_on_c, 4, 76, 100
8, 40680, Note_on_c, 4, 76, 0
8, 40680, Note_on_c, 4, 78, 100
8, 40710, Note_on_c, 4, 78, 0
8, 40710, Note_on_c, 4, 81, 100
8, 40740, Note_on_c, 4, 81, 0
8, 40740, Note_on_c, 4, 79, 100
8, 40770, Note_on_c, 4, 79, 0
8, 40770, Note_on_c, 4, 78, 100
8, 40800, Note_on_c, 4, 78, 0
8, 40800, Note_on_c, 4, 76, 100
8, 40830, Note_on_c, 4, 76, 0
8, 40830, Note_on_c, 4, 74, 100
8, 40860, Note_on_c, 4, 74, 0
8, 40860, Note_on_c, 4, 73, 100
8, 40890, Note_on_c, 4, 73, 0
8, 40890, Note_on_c, 4, 71, 100
8, 40920, Note_on_c, 4, 71, 0
8, 40920, Note_on_c, 4, 69, 100
8, 40950, Note_on_c, 4, 69, 0
8, 40950, Note_on_c, 4, 67, 100
8, 40980, Note_on_c, 4, 67, 0
8, 40980, Note_on_c, 4, 66, 100
8, 41010, Note_on_c, 4, 66, 0
8, 41010, Note_on_c, 4, 69, 100
8, 41040, Note_on_c, 4, 69, 0
8, 41040, Note_on_c, 4, 62, 100
8, 41100, Note_on_c, 4, 62, 0
8, 41160, Note_on_c, 4, 78, 100
8, 41220, Note_on_c, 4, 78, 0
8, 41220, Note_on_c, 4, 74, 100
8, 41280, Note_on_c, 4, 74, 0
8, 41790, Note_on_c, 4, 74, 100
8, 41819, Note_on_c, 4, 74, 0
8, 41820, Note_on_c, 4, 76, 100
8, 41849, Note_on_c, 4, 76, 0
8, 41850, Note_on_c, 4, 78, 100
8, 41879, Note_on_c, 4, 78, 0
8, 41880, Note_on_c, 4, 79, 100
8, 41909, Note_on_c, 4, 79, 0
8, 41910, Note_on_c, 4, 81, 100
8, 41939, Note_on_c, 4, 81, 0
8, 41940, Note_on_c, 4, 83, 100
8, 41969, Note_on_c, 4, 83, 0
8, 41970, Note_on_c, 4, 85, 100
8, 41999, Note_on_c, 4, 85, 0
8, 42000, Note_on_c, 4, 86, 100
8, 42029, Note_on_c, 4, 86, 0
8, 42030, Note_on_c, 4, 85, 100
8, 42059, Note_on_c, 4, 85, 0
8, 42060, Note_on_c, 4, 86, 100
8, 42089, Note_on_c, 4, 86, 0
8, 42090, Note_on_c, 4, 85, 100
8, 42119, Note_on_c, 4, 85, 0
8, 42120, Note_on_c, 4, 83, 100
8, 42149, Note_on_c, 4, 83, 0
8, 42150, Note_on_c, 4, 81, 100
8, 42179, Note_on_c, 4, 81, 0
8, 42180, Note_on_c, 4, 83, 100
8, 42209, Note_on_c, 4, 83, 0
8, 42210, Note_on_c, 4, 81, 100
8, 42239, Note_on_c, 4, 81, 0
8, 42240, Note_on_c, 4, 80, 100
8, 42269, Note_on_c, 4, 80, 0
8, 42270, Note_on_c, 4, 78, 100
8, 42299, Note_on_c, 4, 78, 0
8, 42300, Note_on_c, 4, 80, 100
8, 42329, Note_on_c, 4, 80, 0
8, 42330, Note_on_c, 4, 78, 100
8, 42359, Note_on_c, 4, 78, 0
8, 42360, Note_on_c, 4, 76, 100
8, 42389, Note_on_c, 4, 76, 0
8, 42390, Note_on_c, 4, 74, 100
8, 42419, Note_on_c, 4, 74, 0
8, 42420, Note_on_c, 4, 76, 100
8, 42449, Note_on_c, 4, 76, 0
8, 42450, Note_on_c, 4, 74, 100
8, 42479, Note_on_c, 4, 74, 0
8, 42480, Note_on_c, 4, 73, 100
8, 42509, Note_on_c, 4, 73, 0
8, 42510, Note_on_c, 4, 76, 100
8, 42539, Note_on_c, 4, 76, 0
8, 42540, Note_on_c, 4, 81, 100
8, 42569, Note_on_c, 4, 81, 0
8, 42570, Note_on_c, 4, 83, 100
8, 42599, Note_on_c, 4, 83, 0
8, 42600, Note_on_c, 4, 85, 100
8, 42629, Note_on_c, 4, 85, 0
8, 42630, Note_on_c, 4, 83, 100
8, 42659, Note_on_c, 4, 83, 0
8, 42660, Note_on_c, 4, 81, 100
8, 42689, Note_on_c, 4, 81, 0
8, 42690, Note_on_c, 4, 83, 100
8, 42719, Note_on_c, 4, 83, 0
8, 42720, Note_on_c, 4, 83, 100
8, 42809, Note_on_c, 4, 83, 0
8, 42810, Note_on_c, 4, 81, 100
8, 42839, Note_on_c, 4, 81, 0
8, 42840, Note_on_c, 4, 81, 100
8, 42899, Note_on_c, 4, 81, 0
8, 42900, Note_on_c, 4, 76, 100
8, 42959, Note_on_c, 4, 76, 0
8, 42960, Note_on_c, 4, 76, 100
8, 43019, Note_on_c, 4, 76, 0
8, 43020, Note_on_c, 4, 76, 100
8, 43079, Note_on_c, 4, 76, 0
8, 43080, Note_on_c, 4, 76, 100
8, 43139, Note_on_c, 4, 76, 0
8, 43140, Note_on_c, 4, 78, 100
8, 43169, Note_on_c, 4, 78, 0
8, 43170, Note_on_c, 4, 79, 100
8, 43199, Note_on_c, 4, 79, 0
8, 43200, Note_on_c, 4, 81, 100
8, 43259, Note_on_c, 4, 81, 0
8, 43260, Note_on_c, 4, 84, 100
8, 43289, Note_on_c, 4, 84, 0
8, 43290, Note_on_c, 4, 83, 100
8, 43319, Note_on_c, 4, 83, 0
8, 43320, Note_on_c, 4, 81, 100
8, 43379, Note_on_c, 4, 81, 0
8, 43380, Note_on_c, 4, 84, 100
8, 43409, Note_on_c, 4, 84, 0
8, 43410, Note_on_c, 4, 83, 100
8, 43439, Note_on_c, 4, 83, 0
8, 43440, Note_on_c, 4, 81, 100
8, 43499, Note_on_c, 4, 81, 0
8, 43500, Note_on_c, 4, 81, 100
8, 43559, Note_on_c, 4, 81, 0
8, 43560, Note_on_c, 4, 81, 100
8, 43919, Note_on_c, 4, 81, 0
8, 43920, Note_on_c, 4, 79, 100
8, 43949, Note_on_c, 4, 79, 0
8, 43950, Note_on_c, 4, 71, 100
8, 43979, Note_on_c, 4, 71, 0
8, 43980, Note_on_c, 4, 73, 100
8, 44009, Note_on_c, 4, 73, 0
8, 44010, Note_on_c, 4, 75, 100
8, 44039, Note_on_c, 4, 75, 0
8, 44040, Note_on_c, 4, 76, 100
8, 44069, Note_on_c, 4, 76, 0
8, 44070, Note_on_c, 4, 78, 100
8, 44099, Note_on_c, 4, 78, 0
8, 44100, Note_on_c, 4, 79, 100
8, 44129, Note_on_c, 4, 79, 0
8, 44130, Note_on_c, 4, 81, 100
8, 44159, Note_on_c, 4, 81, 0
8, 44160, Note_on_c, 4, 83, 100
8, 44189, Note_on_c, 4, 83, 0
8, 44190, Note_on_c, 4, 81, 100
8, 44219, Note_on_c, 4, 81, 0
8, 44220, Note_on_c, 4, 83, 100
8, 44249, Note_on_c, 4, 83, 0
8, 44250, Note_on_c, 4, 81, 100
8, 44279, Note_on_c, 4, 81, 0
8, 44280, Note_on_c, 4, 79, 100
8, 44639, Note_on_c, 4, 79, 0
8, 44670, Note_on_c, 4, 69, 100
8, 44699, Note_on_c, 4, 69, 0
8, 44700, Note_on_c, 4, 71, 100
8, 44729, Note_on_c, 4, 71, 0
8, 44730, Note_on_c, 4, 73, 100
8, 44759, Note_on_c, 4, 73, 0
8, 44760, Note_on_c, 4, 74, 100
8, 44789, Note_on_c, 4, 74, 0
8, 44790, Note_on_c, 4, 76, 100
8, 44819, Note_on_c, 4, 76, 0
8, 44820, Note_on_c, 4, 78, 100
8, 44849, Note_on_c, 4, 78, 0
8, 44850, Note_on_c, 4, 79, 100
8, 44879, Note_on_c, 4, 79, 0
8, 44880, Note_on_c, 4, 81, 100
8, 44909, Note_on_c, 4, 81, 0
8, 44910, Note_on_c, 4, 83, 100
8, 44939, Note_on_c, 4, 83, 0
8, 44940, Note_on_c, 4, 79, 100
8, 44969, Note_on_c, 4, 79, 0
8, 44970, Note_on_c, 4, 81, 100
8, 44999, Note_on_c, 4, 81, 0
8, 45000, Note_on_c, 4, 78, 100
8, 45029, Note_on_c, 4, 78, 0
8, 45030, Note_on_c, 4, 69, 100
8, 45059, Note_on_c, 4, 69, 0
8, 45060, Note_on_c, 4, 71, 100
8, 45089, Note_on_c, 4, 71, 0
8, 45090, Note_on_c, 4, 73, 100
8, 45119, Note_on_c, 4, 73, 0
8, 45120, Note_on_c, 4, 74, 100
8, 45149, Note_on_c, 4, 74, 0
8, 45150, Note_on_c, 4, 76, 100
8, 45179, Note_on_c, 4, 76, 0
8, 45180, Note_on_c, 4, 78, 100
8, 45209, Note_on_c, 4, 78, 0
8, 45210, Note_on_c, 4, 79, 100
8, 45239, Note_on_c, 4, 79, 0
8, 45240, Note_on_c, 4, 81, 100
8, 45299, Note_on_c, 4, 81, 0
8, 45390, Note_on_c, 4, 71, 100
8, 45419, Note_on_c, 4, 71, 0
8, 45420, Note_on_c, 4, 73, 100
8, 45449, Note_on_c, 4, 73, 0
8, 45450, Note_on_c, 4, 74, 100
8, 45479, Note_on_c, 4, 74, 0
8, 45480, Note_on_c, 4, 76, 100
8, 45509, Note_on_c, 4, 76, 0
8, 45510, Note_on_c, 4, 78, 100
8, 45539, Note_on_c, 4, 78, 0
8, 45540, Note_on_c, 4, 79, 100
8, 45569, Note_on_c, 4, 79, 0
8, 45570, Note_on_c, 4, 81, 100
8, 45599, Note_on_c, 4, 81, 0
8, 45600, Note_on_c, 4, 83, 100
8, 45659, Note_on_c, 4, 83, 0
8, 45750, Note_on_c, 4, 69, 100
8, 45779, Note_on_c, 4, 69, 0
8, 45780, Note_on_c, 4, 71, 100
8, 45809, Note_on_c, 4, 71, 0
8, 45810, Note_on_c, 4, 73, 100
8, 45839, Note_on_c, 4, 73, 0
8, 45840, Note_on_c, 4, 74, 100
8, 45869, Note_on_c, 4, 74, 0
8, 45870, Note_on_c, 4, 76, 100
8, 45899, Note_on_c, 4, 76, 0
8, 45900, Note_on_c, 4, 78, 100
8, 45929, Note_on_c, 4, 78, 0
8, 45930, Note_on_c, 4, 79, 100
8, 45959, Note_on_c, 4, 79, 0
8, 45960, Note_on_c, 4, 81, 100
8, 46019, Note_on_c, 4, 81, 0
8, 46110, Note_on_c, 4, 67, 100
8, 46139, Note_on_c, 4, 67, 0
8, 46140, Note_on_c, 4, 69, 100
8, 46169, Note_on_c, 4, 69, 0
8, 46170, Note_on_c, 4, 71, 100
8, 46199, Note_on_c, 4, 71, 0
8, 46200, Note_on_c, 4, 73, 100
8, 46229, Note_on_c, 4, 73, 0
8, 46230, Note_on_c, 4, 74, 100
8, 46259, Note_on_c, 4, 74, 0
8, 46260, Note_on_c, 4, 76, 100
8, 46289, Note_on_c, 4, 76, 0
8, 46290, Note_on_c, 4, 78, 100
8, 46319, Note_on_c, 4, 78, 0
8, 46320, Note_on_c, 4, 79, 100
8, 46379, Note_on_c, 4, 79, 0
8, 46470, Note_on_c, 4, 66, 100
8, 46499, Note_on_c, 4, 66, 0
8, 46500, Note_on_c, 4, 67, 100
8, 46529, Note_on_c, 4, 67, 0
8, 46530, Note_on_c, 4, 69, 100
8, 46559, Note_on_c, 4, 69, 0
8, 46560, Note_on_c, 4, 71, 100
8, 46589, Note_on_c, 4, 71, 0
8, 46590, Note_on_c, 4, 73, 100
8, 46619, Note_on_c, 4, 73, 0
8, 46620, Note_on_c, 4, 74, 100
8, 46649, Note_on_c, 4, 74, 0
8, 46650, Note_on_c, 4, 76, 100
8, 46679, Note_on_c, 4, 76, 0
8, 46680, Note_on_c, 4, 78, 100
8, 46739, Note_on_c, 4, 78, 0
8, 46830, Note_on_c, 4, 69, 100
8, 46859, Note_on_c, 4, 69, 0
8, 46860, Note_on_c, 4, 68, 100
8, 46889, Note_on_c, 4, 68, 0
8, 46890, Note_on_c, 4, 69, 100
8, 46919, Note_on_c, 4, 69, 0
8, 46920, Note_on_c, 4, 71, 100
8, 46949, Note_on_c, 4, 71, 0
8, 46950, Note_on_c, 4, 73, 100
8, 46979, Note_on_c, 4, 73, 0
8, 46980, Note_on_c, 4, 74, 100
8, 47009, Note_on_c, 4, 74, 0
8, 47010, Note_on_c, 4, 76, 100
8, 47039, Note_on_c, 4, 76, 0
8, 47040, Note_on_c, 4, 77, 100
8, 47099, Note_on_c, 4, 77, 0
8, 47190, Note_on_c, 4, 74, 100
8, 47219, Note_on_c, 4, 74, 0
8, 47220, Note_on_c, 4, 76, 100
8, 47249, Note_on_c, 4, 76, 0
8, 47250, Note_on_c, 4, 78, 100
8, 47279, Note_on_c, 4, 78, 0
8, 47280, Note_on_c, 4, 80, 100
8, 47309, Note_on_c, 4, 80, 0
8, 47310, Note_on_c, 4, 81, 100
8, 47339, Note_on_c, 4, 81, 0
8, 47340, Note_on_c, 4, 83, 100
8, 47369, Note_on_c, 4, 83, 0
8, 47370, Note_on_c, 4, 85, 100
8, 47399, Note_on_c, 4, 85, 0
8, 47400, Note_on_c, 4, 86, 100
8, 47459, Note_on_c, 4, 86, 0
8, 47640, Note_on_c, 4, 81, 100
8, 47699, Note_on_c, 4, 81, 0
8, 47700, Note_on_c, 4, 76, 100
8, 47759, Note_on_c, 4, 76, 0
8, 48000, Note_on_c, 4, 81, 100
8, 48059, Note_on_c, 4, 81, 0
8, 48060, Note_on_c, 4, 78, 100
8, 48119, Note_on_c, 4, 78, 0
8, 48360, Note_on_c, 4, 81, 100
8, 48419, Note_on_c, 4, 81, 0
8, 48420, Note_on_c, 4, 76, 100
8, 48479, Note_on_c, 4, 76, 0
8, 48990, Note_on_c, 4, 74, 100
8, 49019, Note_on_c, 4, 74, 0
8, 49020, Note_on_c, 4, 76, 100
8, 49049, Note_on_c, 4, 76, 0
8, 49050, Note_on_c, 4, 78, 100
8, 49079, Note_on_c, 4, 78, 0
8, 49080, Note_on_c, 4, 79, 100
8, 49109, Note_on_c, 4, 79, 0
8, 49110, Note_on_c, 4, 81, 100
8, 49139, Note_on_c, 4, 81, 0
8, 49140, Note_on_c, 4, 83, 100
8, 49169, Note_on_c, 4, 83, 0
8, 49170, Note_on_c, 4, 85, 100
8, 49199, Note_on_c, 4, 85, 0
8, 49200, Note_on_c, 4, 86, 100
8, 49229, Note_on_c, 4, 86, 0
8, 49230, Note_on_c, 4, 85, 100
8, 49259, Note_on_c, 4, 85, 0
8, 49260, Note_on_c, 4, 86, 100
8, 49289, Note_on_c, 4, 86, 0
8, 49290, Note_on_c, 4, 85, 100
8, 49319, Note_on_c, 4, 85, 0
8, 49320, Note_on_c, 4, 83, 100
8, 49349, Note_on_c, 4, 83, 0
8, 49350, Note_on_c, 4, 81, 100
8, 49379, Note_on_c, 4, 81, 0
8, 49380, Note_on_c, 4, 83, 100
8, 49409, Note_on_c, 4, 83, 0
8, 49410, Note_on_c, 4, 81, 100
8, 49439, Note_on_c, 4, 81, 0
8, 49440, Note_on_c, 4, 79, 100
8, 49469, Note_on_c, 4, 79, 0
8, 49470, Note_on_c, 4, 78, 100
8, 49499, Note_on_c, 4, 78, 0
8, 49500, Note_on_c, 4, 79, 100
8, 49529, Note_on_c, 4, 79, 0
8, 49530, Note_on_c, 4, 78, 100
8, 49559, Note_on_c, 4, 78, 0
8, 49560, Note_on_c, 4, 76, 100
8, 49589, Note_on_c, 4, 76, 0
8, 49590, Note_on_c, 4, 74, 100
8, 49619, Note_on_c, 4, 74, 0
8, 49620, Note_on_c, 4, 76, 100
8, 49649, Note_on_c, 4, 76, 0
8, 49650, Note_on_c, 4, 74, 100
8, 49679, Note_on_c, 4, 74, 0
8, 49680, Note_on_c, 4, 79, 100
8, 49739, Note_on_c, 4, 79, 0
8, 49740, Note_on_c, 4, 81, 100
8, 49769, Note_on_c, 4, 81, 0
8, 49770, Note_on_c, 4, 79, 100
8, 49799, Note_on_c, 4, 79, 0
8, 49800, Note_on_c, 4, 78, 100
8, 49829, Note_on_c, 4, 78, 0
8, 49830, Note_on_c, 4, 76, 100
8, 49859, Note_on_c, 4, 76, 0
8, 49860, Note_on_c, 4, 74, 100
8, 49889, Note_on_c, 4, 74, 0
8, 49890, Note_on_c, 4, 76, 100
8, 49919, Note_on_c, 4, 76, 0
8, 49920, Note_on_c, 4, 76, 100
8, 50009, Note_on_c, 4, 76, 0
8, 50010, Note_on_c, 4, 74, 100
8, 50039, Note_on_c, 4, 74, 0
8, 50040, Note_on_c, 4, 74, 100
8, 50159, Note_on_c, 4, 74, 0
8, 50160, Note_on_c, 4, 78, 100
8, 50219, Note_on_c, 4, 78, 0
8, 50220, Note_on_c, 4, 74, 100
8, 50279, Note_on_c, 4, 74, 0
8, 50520, Note_on_c, 4, 78, 100
8, 50579, Note_on_c, 4, 78, 0
8, 50580, Note_on_c, 4, 74, 100
8, 50639, Note_on_c, 4, 74, 0
8, 50880, Note_on_c, 4, 74, 100
8, 50939, Note_on_c, 4, 74, 0
8, 50940, Note_on_c, 4, 69, 100
8, 50999, Note_on_c, 4, 69, 0
8, 51240, Note_on_c, 4, 74, 100
8, 51299, Note_on_c, 4, 74, 0
8, 51300, Note_on_c, 4, 71, 100
8, 51359, Note_on_c, 4, 71, 0
8, 51540, Note_on_c, 4, 81, 100
8, 51569, Note_on_c, 4, 81, 0
8, 51570, Note_on_c, 4, 79, 100
8, 51599, Note_on_c, 4, 79, 0
8, 51600, Note_on_c, 4, 78, 100
8, 51629, Note_on_c, 4, 78, 0
8, 51630, Note_on_c, 4, 76, 100
8, 51659, Note_on_c, 4, 76, 0
8, 51660, Note_on_c, 4, 74, 100
8, 51689, Note_on_c, 4, 74, 0
8, 51690, Note_on_c, 4, 73, 100
8, 51719, Note_on_c, 4, 73, 0
8, 51720, Note_on_c, 4, 74, 100
8, 51749, Note_on_c, 4, 74, 0
8, 51750, Note_on_c, 4, 71, 100
8, 51779, Note_on_c, 4, 71, 0
8, 51780, Note_on_c, 4, 73, 100
8, 51809, Note_on_c, 4, 73, 0
8, 51810, Note_on_c, 4, 69, 100
8, 51839, Note_on_c, 4, 69, 0
8, 51840, Note_on_c, 4, 76, 100
8, 51959, Note_on_c, 4, 76, 0
8, 51960, Note_on_c, 4, 81, 100
8, 52019, Note_on_c, 4, 81, 0
8, 52020, Note_on_c, 4, 76, 100
8, 52079, Note_on_c, 4, 76, 0
8, 52320, Note_on_c, 4, 81, 100
8, 52379, Note_on_c, 4, 81, 0
8, 52380, Note_on_c, 4, 78, 100
8, 52439, Note_on_c, 4, 78, 0
8, 52680, Note_on_c, 4, 81, 100
8, 52739, Note_on_c, 4, 81, 0
8, 52740, Note_on_c, 4, 76, 100
8, 52799, Note_on_c, 4, 76, 0
8, 53310, Note_on_c, 4, 74, 100
8, 53339, Note_on_c, 4, 74, 0
8, 53340, Note_on_c, 4, 76, 100
8, 53369, Note_on_c, 4, 76, 0
8, 53370, Note_on_c, 4, 78, 100
8, 53399, Note_on_c, 4, 78, 0
8, 53400, Note_on_c, 4, 79, 100
8, 53429, Note_on_c, 4, 79, 0
8, 53430, Note_on_c, 4, 81, 100
8, 53459, Note_on_c, 4, 81, 0
8, 53460, Note_on_c, 4, 83, 100
8, 53489, Note_on_c, 4, 83, 0
8, 53490, Note_on_c, 4, 85, 100
8, 53519, Note_on_c, 4, 85, 0
8, 53520, Note_on_c, 4, 86, 100
8, 53549, Note_on_c, 4, 86, 0
8, 53550, Note_on_c, 4, 85, 100
8, 53579, Note_on_c, 4, 85, 0
8, 53580, Note_on_c, 4, 86, 100
8, 53609, Note_on_c, 4, 86, 0
8, 53610, Note_on_c, 4, 85, 100
8, 53639, Note_on_c, 4, 85, 0
8, 53640, Note_on_c, 4, 83, 100
8, 53669, Note_on_c, 4, 83, 0
8, 53670, Note_on_c, 4, 81, 100
8, 53699, Note_on_c, 4, 81, 0
8, 53700, Note_on_c, 4, 83, 100
8, 53729, Note_on_c, 4, 83, 0
8, 53730, Note_on_c, 4, 81, 100
8, 53759, Note_on_c, 4, 81, 0
8, 53760, Note_on_c, 4, 79, 100
8, 53789, Note_on_c, 4, 79, 0
8, 53790, Note_on_c, 4, 78, 100
8, 53819, Note_on_c, 4, 78, 0
8, 53820, Note_on_c, 4, 79, 100
8, 53849, Note_on_c, 4, 79, 0
8, 53850, Note_on_c, 4, 78, 100
8, 53879, Note_on_c, 4, 78, 0
8, 53880, Note_on_c, 4, 76, 100
8, 53909, Note_on_c, 4, 76, 0
8, 53910, Note_on_c, 4, 74, 100
8, 53939, Note_on_c, 4, 74, 0
8, 53940, Note_on_c, 4, 76, 100
8, 53969, Note_on_c, 4, 76, 0
8, 53970, Note_on_c, 4, 74, 100
8, 53999, Note_on_c, 4, 74, 0
8, 54000, Note_on_c, 4, 79, 100
8, 54059, Note_on_c, 4, 79, 0
8, 54060, Note_on_c, 4, 81, 100
8, 54089, Note_on_c, 4, 81, 0
8, 54090, Note_on_c, 4, 79, 100
8, 54119, Note_on_c, 4, 79, 0
8, 54120, Note_on_c, 4, 78, 100
8, 54149, Note_on_c, 4, 78, 0
8, 54150, Note_on_c, 4, 76, 100
8, 54179, Note_on_c, 4, 76, 0
8, 54180, Note_on_c, 4, 74, 100
8, 54209, Note_on_c, 4, 74, 0
8, 54210, Note_on_c, 4, 76, 100
8, 54239, Note_on_c, 4, 76, 0
8, 54240, Note_on_c, 4, 76, 100
8, 54329, Note_on_c, 4, 76, 0
8, 54330, Note_on_c, 4, 74, 100
8, 54359, Note_on_c, 4, 74, 0
8, 54360, Note_on_c, 4, 74, 100
8, 54389, Note_on_c, 4, 74, 0
8, 54390, Note_on_c, 4, 74, 100
8, 54419, Note_on_c, 4, 74, 0
8, 54420, Note_on_c, 4, 76, 100
8, 54449, Note_on_c, 4, 76, 0
8, 54450, Note_on_c, 4, 78, 100
8, 54479, Note_on_c, 4, 78, 0
8, 54480, Note_on_c, 4, 79, 100
8, 54509, Note_on_c, 4, 79, 0
8, 54510, Note_on_c, 4, 81, 100
8, 54539, Note_on_c, 4, 81, 0
8, 54540, Note_on_c, 4, 83, 100
8, 54569, Note_on_c, 4, 83, 0
8, 54570, Note_on_c, 4, 85, 100
8, 54599, Note_on_c, 4, 85, 0
8, 54600, Note_on_c, 4, 86, 100
8, 54629, Note_on_c, 4, 86, 0
8, 54630, Note_on_c, 4, 85, 100
8, 54659, Note_on_c, 4, 85, 0
8, 54660, Note_on_c, 4, 86, 100
8, 54689, Note_on_c, 4, 86, 0
8, 54690, Note_on_c, 4, 85, 100
8, 54719, Note_on_c, 4, 85, 0
8, 54720, Note_on_c, 4, 86, 100
8, 54749, Note_on_c, 4, 86, 0
8, 54750, Note_on_c, 4, 66, 100
8, 54779, Note_on_c, 4, 66, 0
8, 54780, Note_on_c, 4, 67, 100
8, 54809, Note_on_c, 4, 67, 0
8, 54810, Note_on_c, 4, 69, 100
8, 54839, Note_on_c, 4, 69, 0
8, 54840, Note_on_c, 4, 71, 100
8, 54869, Note_on_c, 4, 71, 0
8, 54870, Note_on_c, 4, 73, 100
8, 54899, Note_on_c, 4, 73, 0
8, 54900, Note_on_c, 4, 74, 100
8, 54929, Note_on_c, 4, 74, 0
8, 54930, Note_on_c, 4, 76, 100
8, 54959, Note_on_c, 4, 76, 0
8, 54960, Note_on_c, 4, 78, 100
8, 54989, Note_on_c, 4, 78, 0
8, 54990, Note_on_c, 4, 76, 100
8, 55019, Note_on_c, 4, 76, 0
8, 55020, Note_on_c, 4, 78, 100
8, 55049, Note_on_c, 4, 78, 0
8, 55050, Note_on_c, 4, 76, 100
8, 55079, Note_on_c, 4, 76, 0
8, 55080, Note_on_c, 4, 78, 100
8, 55109, Note_on_c, 4, 78, 0
8, 55110, Note_on_c, 4, 81, 100
8, 55139, Note_on_c, 4, 81, 0
8, 55140, Note_on_c, 4, 79, 100
8, 55169, Note_on_c, 4, 79, 0
8, 55170, Note_on_c, 4, 78, 100
8, 55199, Note_on_c, 4, 78, 0
8, 55200, Note_on_c, 4, 76, 100
8, 55229, Note_on_c, 4, 76, 0
8, 55230, Note_on_c, 4, 74, 100
8, 55259, Note_on_c, 4, 74, 0
8, 55260, Note_on_c, 4, 73, 100
8, 55289, Note_on_c, 4, 73, 0
8, 55290, Note_on_c, 4, 71, 100
8, 55319, Note_on_c, 4, 71, 0
8, 55320, Note_on_c, 4, 69, 100
8, 55349, Note_on_c, 4, 69, 0
8, 55350, Note_on_c, 4, 67, 100
8, 55379, Note_on_c, 4, 67, 0
8, 55380, Note_on_c, 4, 66, 100
8, 55409, Note_on_c, 4, 66, 0
8, 55410, Note_on_c, 4, 69, 100
8, 55439, Note_on_c, 4, 69, 0
8, 55440, Note_on_c, 4, 62, 100
8, 55469, Note_on_c, 4, 62, 0
8, 55470, Note_on_c, 4, 86, 100
8, 55499, Note_on_c, 4, 86, 0
8, 55500, Note_on_c, 4, 85, 100
8, 55529, Note_on_c, 4, 85, 0
8, 55530, Note_on_c, 4, 83, 100
8, 55559, Note_on_c, 4, 83, 0
8, 55560, Note_on_c, 4, 81, 100
8, 55589, Note_on_c, 4, 81, 0
8, 55590, Note_on_c, 4, 79, 100
8, 55619, Note_on_c, 4, 79, 0
8, 55620, Note_on_c, 4, 78, 100
8, 55649, Note_on_c, 4, 78, 0
8, 55650, Note_on_c, 4, 76, 100
8, 55679, Note_on_c, 4, 76, 0
8, 55680, Note_on_c, 4, 74, 100
8, 55709, Note_on_c, 4, 74, 0
8, 55710, Note_on_c, 4, 76, 100
8, 55739, Note_on_c, 4, 76, 0
8, 55740, Note_on_c, 4, 74, 100
8, 55769, Note_on_c, 4, 74, 0
8, 55770, Note_on_c, 4, 76, 100
8, 55799, Note_on_c, 4, 76, 0
8, 55800, Note_on_c, 4, 74, 100
8, 55829, Note_on_c, 4, 74, 0
8, 55830, Note_on_c, 4, 78, 100
8, 55859, Note_on_c, 4, 78, 0
8, 55860, Note_on_c, 4, 76, 100
8, 55889, Note_on_c, 4, 76, 0
8, 55890, Note_on_c, 4, 74, 100
8, 55919, Note_on_c, 4, 74, 0
8, 55920, Note_on_c, 4, 73, 100
8, 55949, Note_on_c, 4, 73, 0
8, 55950, Note_on_c, 4, 71, 100
8, 55979, Note_on_c, 4, 71, 0
8, 55980, Note_on_c, 4, 69, 100
8, 56009, Note_on_c, 4, 69, 0
8, 56010, Note_on_c, 4, 67, 100
8, 56039, Note_on_c, 4, 67, 0
8, 56040, Note_on_c, 4, 66, 100
8, 56099, Note_on_c, 4, 66, 0
8, 56190, Note_on_c, 4, 74, 100
8, 56219, Note_on_c, 4, 74, 0
8, 56220, Note_on_c, 4, 76, 100
8, 56249, Note_on_c, 4, 76, 0
8, 56250, Note_on_c, 4, 78, 100
8, 56279, Note_on_c, 4, 78, 0
8, 56280, Note_on_c, 4, 79, 100
8, 56309, Note_on_c, 4, 79, 0
8, 56310, Note_on_c, 4, 81, 100
8, 56339, Note_on_c, 4, 81, 0
8, 56340, Note_on_c, 4, 83, 100
8, 56369, Note_on_c, 4, 83, 0
8, 56370, Note_on_c, 4, 85, 100
8, 56399, Note_on_c, 4, 85, 0
8, 56400, Note_on_c, 4, 86, 100
8, 56429, Note_on_c, 4, 86, 0
8, 56430, Note_on_c, 4, 85, 100
8, 56459, Note_on_c, 4, 85, 0
8, 56460, Note_on_c, 4, 86, 100
8, 56489, Note_on_c, 4, 86, 0
8, 56490, Note_on_c, 4, 85, 100
8, 56519, Note_on_c, 4, 85, 0
8, 56520, Note_on_c, 4, 83, 100
8, 56549, Note_on_c, 4, 83, 0
8, 56550, Note_on_c, 4, 81, 100
8, 56579, Note_on_c, 4, 81, 0
8, 56580, Note_on_c, 4, 83, 100
8, 56609, Note_on_c, 4, 83, 0
8, 56610, Note_on_c, 4, 81, 100
8, 56639, Note_on_c, 4, 81, 0
8, 56640, Note_on_c, 4, 80, 100
8, 56669, Note_on_c, 4, 80, 0
8, 56670, Note_on_c, 4, 78, 100
8, 56699, Note_on_c, 4, 78, 0
8, 56700, Note_on_c, 4, 80, 100
8, 56729, Note_on_c, 4, 80, 0
8, 56730, Note_on_c, 4, 78, 100
8, 56759, Note_on_c, 4, 78, 0
8, 56760, Note_on_c, 4, 76, 100
8, 56789, Note_on_c, 4, 76, 0
8, 56790, Note_on_c, 4, 74, 100
8, 56819, Note_on_c, 4, 74, 0
8, 56820, Note_on_c, 4, 76, 100
8, 56849, Note_on_c, 4, 76, 0
8, 56850, Note_on_c, 4, 74, 100
8, 56879, Note_on_c, 4, 74, 0
8, 56880, Note_on_c, 4, 73, 100
8, 56909, Note_on_c, 4, 73, 0
8, 56910, Note_on_c, 4, 76, 100
8, 56939, Note_on_c, 4, 76, 0
8, 56940, Note_on_c, 4, 81, 100
8, 56969, Note_on_c, 4, 81, 0
8, 56970, Note_on_c, 4, 83, 100
8, 56999, Note_on_c, 4, 83, 0
8, 57000, Note_on_c, 4, 85, 100
8, 57029, Note_on_c, 4, 85, 0
8, 57030, Note_on_c, 4, 83, 100
8, 57059, Note_on_c, 4, 83, 0
8, 57060, Note_on_c, 4, 81, 100
8, 57089, Note_on_c, 4, 81, 0
8, 57090, Note_on_c, 4, 83, 100
8, 57119, Note_on_c, 4, 83, 0
8, 57120, Note_on_c, 4, 83, 100
8, 57209, Note_on_c, 4, 83, 0
8, 57210, Note_on_c, 4, 81, 100
8, 57239, Note_on_c, 4, 81, 0
8, 57240, Note_on_c, 4, 81, 100
8, 57269, Note_on_c, 4, 81, 0
8, 57270, Note_on_c, 4, 73, 100
8, 57299, Note_on_c, 4, 73, 0
8, 57300, Note_on_c, 4, 74, 100
8, 57329, Note_on_c, 4, 74, 0
8, 57330, Note_on_c, 4, 76, 100
8, 57359, Note_on_c, 4, 76, 0
8, 57360, Note_on_c, 4, 78, 100
8, 57389, Note_on_c, 4, 78, 0
8, 57390, Note_on_c, 4, 80, 100
8, 57419, Note_on_c, 4, 80, 0
8, 57420, Note_on_c, 4, 81, 100
8, 57449, Note_on_c, 4, 81, 0
8, 57450, Note_on_c, 4, 83, 100
8, 57479, Note_on_c, 4, 83, 0
8, 57480, Note_on_c, 4, 85, 100
8, 57539, Note_on_c, 4, 85, 0
8, 57630, Note_on_c, 4, 76, 100
8, 57659, Note_on_c, 4, 76, 0
8, 57660, Note_on_c, 4, 75, 100
8, 57689, Note_on_c, 4, 75, 0
8, 57690, Note_on_c, 4, 76, 100
8, 57719, Note_on_c, 4, 76, 0
8, 57720, Note_on_c, 4, 78, 100
8, 57749, Note_on_c, 4, 78, 0
8, 57750, Note_on_c, 4, 80, 100
8, 57779, Note_on_c, 4, 80, 0
8, 57780, Note_on_c, 4, 81, 100
8, 57809, Note_on_c, 4, 81, 0
8, 57810, Note_on_c, 4, 83, 100
8, 57839, Note_on_c, 4, 83, 0
8, 57840, Note_on_c, 4, 84, 100
8, 57899, Note_on_c, 4, 84, 0
8, 57990, Note_on_c, 4, 69, 100
8, 58019, Note_on_c, 4, 69, 0
8, 58020, Note_on_c, 4, 71, 100
8, 58049, Note_on_c, 4, 71, 0
8, 58050, Note_on_c, 4, 73, 100
8, 58079, Note_on_c, 4, 73, 0
8, 58080, Note_on_c, 4, 75, 100
8, 58109, Note_on_c, 4, 75, 0
8, 58110, Note_on_c, 4, 76, 100
8, 58139, Note_on_c, 4, 76, 0
8, 58140, Note_on_c, 4, 78, 100
8, 58169, Note_on_c, 4, 78, 0
8, 58170, Note_on_c, 4, 80, 100
8, 58199, Note_on_c, 4, 80, 0
8, 58200, Note_on_c, 4, 81, 100
8, 58259, Note_on_c, 4, 81, 0
8, 58380, Note_on_c, 4, 83, 100
8, 58439, Note_on_c, 4, 83, 0
8, 58440, Note_on_c, 4, 83, 100
8, 58499, Note_on_c, 4, 83, 0
8, 58500, Note_on_c, 4, 83, 100
8, 58559, Note_on_c, 4, 83, 0
8, 58560, Note_on_c, 4, 83, 100
8, 58619, Note_on_c, 4, 83, 0
8, 58620, Note_on_c, 4, 81, 100
8, 58649, Note_on_c, 4, 81, 0
8, 58650, Note_on_c, 4, 83, 100
8, 58679, Note_on_c, 4, 83, 0
8, 58680, Note_on_c, 4, 85, 100
8, 58739, Note_on_c, 4, 85, 0
8, 58740, Note_on_c, 4, 85, 100
8, 58799, Note_on_c, 4, 85, 0
8, 58800, Note_on_c, 4, 85, 100
8, 58859, Note_on_c, 4, 85, 0
8, 58860, Note_on_c, 4, 85, 100
8, 58919, Note_on_c, 4, 85, 0
8, 58920, Note_on_c, 4, 85, 100
8, 58979, Note_on_c, 4, 85, 0
8, 58980, Note_on_c, 4, 83, 100
8, 59009, Note_on_c, 4, 83, 0
8, 59010, Note_on_c, 4, 85, 100
8, 59039, Note_on_c, 4, 85, 0
8, 59040, Note_on_c, 4, 86, 100
8, 59099, Note_on_c, 4, 86, 0
8, 59100, Note_on_c, 4, 86, 100
8, 59159, Note_on_c, 4, 86, 0
8, 59160, Note_on_c, 4, 86, 100
8, 59219, Note_on_c, 4, 86, 0
8, 59220, Note_on_c, 4, 86, 100
8, 59279, Note_on_c, 4, 86, 0
8, 59280, Note_on_c, 4, 86, 100
8, 59339, Note_on_c, 4, 86, 0
8, 59340, Note_on_c, 4, 85, 100
8, 59369, Note_on_c, 4, 85, 0
8, 59370, Note_on_c, 4, 86, 100
8, 59399, Note_on_c, 4, 86, 0
8, 59400, Note_on_c, 4, 88, 100
8, 60000, Note_on_c, 4, 88, 0
8, 60030, Note_on_c, 4, 90, 100
8, 60059, Note_on_c, 4, 90, 0
8, 60060, Note_on_c, 4, 86, 100
8, 60089, Note_on_c, 4, 86, 0
8, 60090, Note_on_c, 4, 88, 100
8, 60119, Note_on_c, 4, 88, 0
8, 60120, Note_on_c, 4, 90, 100
8, 60149, Note_on_c, 4, 90, 0
8, 60150, Note_on_c, 4, 88, 100
8, 60179, Note_on_c, 4, 88, 0
8, 60180, Note_on_c, 4, 90, 100
8, 60209, Note_on_c, 4, 90, 0
8, 60210, Note_on_c, 4, 88, 100
8, 60239, Note_on_c, 4, 88, 0
8, 60240, Note_on_c, 4, 86, 100
8, 60269, Note_on_c, 4, 86, 0
8, 60270, Note_on_c, 4, 85, 100
8, 60299, Note_on_c, 4, 85, 0
8, 60300, Note_on_c, 4, 86, 100
8, 60329, Note_on_c, 4, 86, 0
8, 60330, Note_on_c, 4, 85, 100
8, 60359, Note_on_c, 4, 85, 0
8, 60360, Note_on_c, 4, 83, 100
8, 60389, Note_on_c, 4, 83, 0
8, 60390, Note_on_c, 4, 81, 100
8, 60419, Note_on_c, 4, 81, 0
8, 60420, Note_on_c, 4, 83, 100
8, 60449, Note_on_c, 4, 83, 0
8, 60450, Note_on_c, 4, 81, 100
8, 60479, Note_on_c, 4, 81, 0
8, 60480, Note_on_c, 4, 86, 100
8, 60539, Note_on_c, 4, 86, 0
8, 60540, Note_on_c, 4, 88, 100
8, 60569, Note_on_c, 4, 88, 0
8, 60570, Note_on_c, 4, 86, 100
8, 60599, Note_on_c, 4, 86, 0
8, 60600, Note_on_c, 4, 85, 100
8, 60629, Note_on_c, 4, 85, 0
8, 60630, Note_on_c, 4, 83, 100
8, 60659, Note_on_c, 4, 83, 0
8, 60660, Note_on_c, 4, 81, 100
8, 60689, Note_on_c, 4, 81, 0
8, 60690, Note_on_c, 4, 83, 100
8, 60719, Note_on_c, 4, 83, 0
8, 60720, Note_on_c, 4, 83, 100
8, 60809, Note_on_c, 4, 83, 0
8, 60810, Note_on_c, 4, 81, 100
8, 60839, Note_on_c, 4, 81, 0
8, 60840, Note_on_c, 4, 81, 100
8, 60899, Note_on_c, 4, 81, 0
8, 60900, Note_on_c, 4, 76, 100
8, 60959, Note_on_c, 4, 76, 0
8, 60960, Note_on_c, 4, 76, 100
8, 61019, Note_on_c, 4, 76, 0
8, 61020, Note_on_c, 4, 76, 100
8, 61079, Note_on_c, 4, 76, 0
8, 61080, Note_on_c, 4, 76, 100
8, 61139, Note_on_c, 4, 76, 0
8, 61140, Note_on_c, 4, 78, 100
8, 61169, Note_on_c, 4, 78, 0
8, 61170, Note_on_c, 4, 79, 100
8, 61199, Note_on_c, 4, 79, 0
8, 61200, Note_on_c, 4, 81, 100
8, 61259, Note_on_c, 4, 81, 0
8, 61260, Note_on_c, 4, 84, 100
8, 61289, Note_on_c, 4, 84, 0
8, 61290, Note_on_c, 4, 83, 100
8, 61319, Note_on_c, 4, 83, 0
8, 61320, Note_on_c, 4, 81, 100
8, 61379, Note_on_c, 4, 81, 0
8, 61380, Note_on_c, 4, 84, 100
8, 61409, Note_on_c, 4, 84, 0
8, 61410, Note_on_c, 4, 83, 100
8, 61439, Note_on_c, 4, 83, 0
8, 61440, Note_on_c, 4, 81, 100
8, 61499, Note_on_c, 4, 81, 0
8, 61500, Note_on_c, 4, 81, 100
8, 61559, Note_on_c, 4, 81, 0
8, 61560, Note_on_c, 4, 81, 100
8, 61919, Note_on_c, 4, 81, 0
8, 61920, Note_on_c, 4, 79, 100
8, 61949, Note_on_c, 4, 79, 0
8, 61950, Note_on_c, 4, 71, 100
8, 61979, Note_on_c, 4, 71, 0
8, 61980, Note_on_c, 4, 73, 100
8, 62009, Note_on_c, 4, 73, 0
8, 62010, Note_on_c, 4, 75, 100
8, 62039, Note_on_c, 4, 75, 0
8, 62040, Note_on_c, 4, 76, 100
8, 62069, Note_on_c, 4, 76, 0
8, 62070, Note_on_c, 4, 78, 100
8, 62099, Note_on_c, 4, 78, 0
8, 62100, Note_on_c, 4, 79, 100
8, 62129, Note_on_c, 4, 79, 0
8, 62130, Note_on_c, 4, 81, 100
8, 62159, Note_on_c, 4, 81, 0
8, 62160, Note_on_c, 4, 83, 100
8, 62189, Note_on_c, 4, 83, 0
8, 62190, Note_on_c, 4, 81, 100
8, 62219, Note_on_c, 4, 81, 0
8, 62220, Note_on_c, 4, 83, 100
8, 62249, Note_on_c, 4, 83, 0
8, 62250, Note_on_c, 4, 81, 100
8, 62279, Note_on_c, 4, 81, 0
8, 62280, Note_on_c, 4, 79, 100
8, 62639, Note_on_c, 4, 79, 0
8, 62670, Note_on_c, 4, 69, 100
8, 62699, Note_on_c, 4, 69, 0
8, 62700, Note_on_c, 4, 71, 100
8, 62729, Note_on_c, 4, 71, 0
8, 62730, Note_on_c, 4, 73, 100
8, 62759, Note_on_c, 4, 73, 0
8, 62760, Note_on_c, 4, 74, 100
8, 62789, Note_on_c, 4, 74, 0
8, 62790, Note_on_c, 4, 76, 100
8, 62819, Note_on_c, 4, 76, 0
8, 62820, Note_on_c, 4, 78, 100
8, 62849, Note_on_c, 4, 78, 0
8, 62850, Note_on_c, 4, 79, 100
8, 62879, Note_on_c, 4, 79, 0
8, 62880, Note_on_c, 4, 81, 100
8, 62909, Note_on_c, 4, 81, 0
8, 62910, Note_on_c, 4, 83, 100
8, 62939, Note_on_c, 4, 83, 0
8, 62940, Note_on_c, 4, 79, 100
8, 62969, Note_on_c, 4, 79, 0
8, 62970, Note_on_c, 4, 81, 100
8, 62999, Note_on_c, 4, 81, 0
8, 63000, Note_on_c, 4, 78, 100
8, 63029, Note_on_c, 4, 78, 0
8, 63030, Note_on_c, 4, 69, 100
8, 63059, Note_on_c, 4, 69, 0
8, 63060, Note_on_c, 4, 71, 100
8, 63089, Note_on_c, 4, 71, 0
8, 63090, Note_on_c, 4, 73, 100
8, 63119, Note_on_c, 4, 73, 0
8, 63120, Note_on_c, 4, 74, 100
8, 63149, Note_on_c, 4, 74, 0
8, 63150, Note_on_c, 4, 76, 100
8, 63179, Note_on_c, 4, 76, 0
8, 63180, Note_on_c, 4, 78, 100
8, 63209, Note_on_c, 4, 78, 0
8, 63210, Note_on_c, 4, 79, 100
8, 63239, Note_on_c, 4, 79, 0
8, 63240, Note_on_c, 4, 81, 100
8, 63299, Note_on_c, 4, 81, 0
8, 63390, Note_on_c, 4, 71, 100
8, 63419, Note_on_c, 4, 71, 0
8, 63420, Note_on_c, 4, 73, 100
8, 63449, Note_on_c, 4, 73, 0
8, 63450, Note_on_c, 4, 74, 100
8, 63479, Note_on_c, 4, 74, 0
8, 63480, Note_on_c, 4, 76, 100
8, 63509, Note_on_c, 4, 76, 0
8, 63510, Note_on_c, 4, 78, 100
8, 63539, Note_on_c, 4, 78, 0
8, 63540, Note_on_c, 4, 79, 100
8, 63569, Note_on_c, 4, 79, 0
8, 63570, Note_on_c, 4, 81, 100
8, 63599, Note_on_c, 4, 81, 0
8, 63600, Note_on_c, 4, 83, 100
8, 63659, Note_on_c, 4, 83, 0
8, 63750, Note_on_c, 4, 69, 100
8, 63779, Note_on_c, 4, 69, 0
8, 63780, Note_on_c, 4, 71, 100
8, 63809, Note_on_c, 4, 71, 0
8, 63810, Note_on_c, 4, 73, 100
8, 63839, Note_on_c, 4, 73, 0
8, 63840, Note_on_c, 4, 74, 100
8, 63869, Note_on_c, 4, 74, 0
8, 63870, Note_on_c, 4, 76, 100
8, 63899, Note_on_c, 4, 76, 0
8, 63900, Note_on_c, 4, 78, 100
8, 63929, Note_on_c, 4, 78, 0
8, 63930, Note_on_c, 4, 79, 100
8, 63959, Note_on_c, 4, 79, 0
8, 63960, Note_on_c, 4, 81, 100
8, 64019, Note_on_c, 4, 81, 0
8, 64110, Note_on_c, 4, 67, 100
8, 64139, Note_on_c, 4, 67, 0
8, 64140, Note_on_c, 4, 69, 100
8, 64169, Note_on_c, 4, 69, 0
8, 64170, Note_on_c, 4, 71, 100
8, 64199, Note_on_c, 4, 71, 0
8, 64200, Note_on_c, 4, 73, 100
8, 64229, Note_on_c, 4, 73, 0
8, 64230, Note_on_c, 4, 74, 100
8, 64259, Note_on_c, 4, 74, 0
8, 64260, Note_on_c, 4, 76, 100
8, 64289, Note_on_c, 4, 76, 0
8, 64290, Note_on_c, 4, 78, 100
8, 64319, Note_on_c, 4, 78, 0
8, 64320, Note_on_c, 4, 79, 100
8, 64379, Note_on_c, 4, 79, 0
8, 64470, Note_on_c, 4, 66, 100
8, 64499, Note_on_c, 4, 66, 0
8, 64500, Note_on_c, 4, 67, 100
8, 64529, Note_on_c, 4, 67, 0
8, 64530, Note_on_c, 4, 69, 100
8, 64559, Note_on_c, 4, 69, 0
8, 64560, Note_on_c, 4, 71, 100
8, 64589, Note_on_c, 4, 71, 0
8, 64590, Note_on_c, 4, 73, 100
8, 64619, Note_on_c, 4, 73, 0
8, 64620, Note_on_c, 4, 74, 100
8, 64649, Note_on_c, 4, 74, 0
8, 64650, Note_on_c, 4, 76, 100
8, 64679, Note_on_c, 4, 76, 0
8, 64680, Note_on_c, 4, 78, 100
8, 64739, Note_on_c, 4, 78, 0
8, 64830, Note_on_c, 4, 69, 100
8, 64859, Note_on_c, 4, 69, 0
8, 64860, Note_on_c, 4, 68, 100
8, 64889, Note_on_c, 4, 68, 0
8, 64890, Note_on_c, 4, 69, 100
8, 64919, Note_on_c, 4, 69, 0
8, 64920, Note_on_c, 4, 71, 100
8, 64949, Note_on_c, 4, 71, 0
8, 64950, Note_on_c, 4, 73, 100
8, 64979, Note_on_c, 4, 73, 0
8, 64980, Note_on_c, 4, 74, 100
8, 65009, Note_on_c, 4, 74, 0
8, 65010, Note_on_c, 4, 76, 100
8, 65039, Note_on_c, 4, 76, 0
8, 65040, Note_on_c, 4, 77, 100
8, 65099, Note_on_c, 4, 77, 0
8, 65190, Note_on_c, 4, 74, 100
8, 65219, Note_on_c, 4, 74, 0
8, 65220, Note_on_c, 4, 76, 100
8, 65249, Note_on_c, 4, 76, 0
8, 65250, Note_on_c, 4, 78, 100
8, 65279, Note_on_c, 4, 78, 0
8, 65280, Note_on_c, 4, 80, 100
8, 65309, Note_on_c, 4, 80, 0
8, 65310, Note_on_c, 4, 81, 100
8, 65339, Note_on_c, 4, 81, 0
8, 65340, Note_on_c, 4, 83, 100
8, 65369, Note_on_c, 4, 83, 0
8, 65370, Note_on_c, 4, 85, 100
8, 65399, Note_on_c, 4, 85, 0
8, 65400, Note_on_c, 4, 86, 100
8, 65459, Note_on_c, 4, 86, 0
8, 65640, Note_on_c, 4, 81, 100
8, 65699, Note_on_c, 4, 81, 0
8, 65700, Note_on_c, 4, 76, 100
8, 65759, Note_on_c, 4, 76, 0
8, 66000, Note_on_c, 4, 81, 100
8, 66059, Note_on_c, 4, 81, 0
8, 66060, Note_on_c, 4, 78, 100
8, 66119, Note_on_c, 4, 78, 0
8, 66360, Note_on_c, 4, 81, 100
8, 66419, Note_on_c, 4, 81, 0
8, 66420, Note_on_c, 4, 76, 100
8, 66479, Note_on_c, 4, 76, 0
8, 66990, Note_on_c, 4, 74, 100
8, 67019, Note_on_c, 4, 74, 0
8, 67020, Note_on_c, 4, 76, 100
8, 67049, Note_on_c, 4, 76, 0
8, 67050, Note_on_c, 4, 78, 100
8, 67079, Note_on_c, 4, 78, 0
8, 67080, Note_on_c, 4, 79, 100
8, 67109, Note_on_c, 4, 79, 0
8, 67110, Note_on_c, 4, 81, 100
8, 67139, Note_on_c, 4, 81, 0
8, 67140, Note_on_c, 4, 83, 100
8, 67169, Note_on_c, 4, 83, 0
8, 67170, Note_on_c, 4, 85, 100
8, 67199, Note_on_c, 4, 85, 0
8, 67200, Note_on_c, 4, 86, 100
8, 67229, Note_on_c, 4, 86, 0
8, 67230, Note_on_c, 4, 85, 100
8, 67259, Note_on_c, 4, 85, 0
8, 67260, Note_on_c, 4, 86, 100
8, 67289, Note_on_c, 4, 86, 0
8, 67290, Note_on_c, 4, 85, 100
8, 67319, Note_on_c, 4, 85, 0
8, 67320, Note_on_c, 4, 83, 100
8, 67349, Note_on_c, 4, 83, 0
8, 67350, Note_on_c, 4, 81, 100
8, 67379, Note_on_c, 4, 81, 0
8, 67380, Note_on_c, 4, 83, 100
8, 67409, Note_on_c, 4, 83, 0
8, 67410, Note_on_c, 4, 81, 100
8, 67439, Note_on_c, 4, 81, 0
8, 67440, Note_on_c, 4, 79, 100
8, 67469, Note_on_c, 4, 79, 0
8, 67470, Note_on_c, 4, 78, 100
8, 67499, Note_on_c, 4, 78, 0
8, 67500, Note_on_c, 4, 79, 100
8, 67529, Note_on_c, 4, 79, 0
8, 67530, Note_on_c, 4, 78, 100
8, 67559, Note_on_c, 4, 78, 0
8, 67560, Note_on_c, 4, 76, 100
8, 67589, Note_on_c, 4, 76, 0
8, 67590, Note_on_c, 4, 74, 100
8, 67619, Note_on_c, 4, 74, 0
8, 67620, Note_on_c, 4, 76, 100
8, 67649, Note_on_c, 4, 76, 0
8, 67650, Note_on_c, 4, 74, 100
8, 67679, Note_on_c, 4, 74, 0
8, 67680, Note_on_c, 4, 79, 100
8, 67739, Note_on_c, 4, 79, 0
8, 67740, Note_on_c, 4, 81, 100
8, 67769, Note_on_c, 4, 81, 0
8, 67770, Note_on_c, 4, 79, 100
8, 67799, Note_on_c, 4, 79, 0
8, 67800, Note_on_c, 4, 78, 100
8, 67829, Note_on_c, 4, 78, 0
8, 67830, Note_on_c, 4, 76, 100
8, 67859, Note_on_c, 4, 76, 0
8, 67860, Note_on_c, 4, 74, 100
8, 67889, Note_on_c, 4, 74, 0
8, 67890, Note_on_c, 4, 76, 100
8, 67919, Note_on_c, 4, 76, 0
8, 67920, Note_on_c, 4, 76, 100
8, 68009, Note_on_c, 4, 76, 0
8, 68010, Note_on_c, 4, 74, 100
8, 68039, Note_on_c, 4, 74, 0
8, 68040, Note_on_c, 4, 74, 100
8, 68159, Note_on_c, 4, 74, 0
8, 68160, Note_on_c, 4, 81, 100
8, 68219, Note_on_c, 4, 81, 0
8, 68220, Note_on_c, 4, 78, 100
8, 68279, Note_on_c, 4, 78, 0
8, 68520, Note_on_c, 4, 79, 100
8, 68579, Note_on_c, 4, 79, 0
8, 68580, Note_on_c, 4, 74, 100
8, 68639, Note_on_c, 4, 74, 0
8, 68880, Note_on_c, 4, 78, 100
8, 68939, Note_on_c, 4, 78, 0
8, 68940, Note_on_c, 4, 74, 100
8, 68999, Note_on_c, 4, 74, 0
8, 69180, Note_on_c, 4, 83, 100
8, 69209, Note_on_c, 4, 83, 0
8, 69210, Note_on_c, 4, 81, 100
8, 69239, Note_on_c, 4, 81, 0
8, 69240, Note_on_c, 4, 79, 100
8, 69269, Note_on_c, 4, 79, 0
8, 69270, Note_on_c, 4, 78, 100
8, 69299, Note_on_c, 4, 78, 0
8, 69300, Note_on_c, 4, 79, 100
8, 69329, Note_on_c, 4, 79, 0
8, 69330, Note_on_c, 4, 78, 100
8, 69359, Note_on_c, 4, 78, 0
8, 69360, Note_on_c, 4, 76, 100
8, 69389, Note_on_c, 4, 76, 0
8, 69390, Note_on_c, 4, 74, 100
8, 69419, Note_on_c, 4, 74, 0
8, 69420, Note_on_c, 4, 76, 100
8, 69449, Note_on_c, 4, 76, 0
8, 69450, Note_on_c, 4, 74, 100
8, 69479, Note_on_c, 4, 74, 0
8, 69480, Note_on_c, 4, 79, 100
8, 69539, Note_on_c, 4, 79, 0
8, 69540, Note_on_c, 4, 81, 100
8, 69569, Note_on_c, 4, 81, 0
8, 69570, Note_on_c, 4, 79, 100
8, 69599, Note_on_c, 4, 79, 0
8, 69600, Note_on_c, 4, 78, 100
8, 69629, Note_on_c, 4, 78, 0
8, 69630, Note_on_c, 4, 76, 100
8, 69659, Note_on_c, 4, 76, 0
8, 69660, Note_on_c, 4, 74, 100
8, 69689, Note_on_c, 4, 74, 0
8, 69690, Note_on_c, 4, 76, 100
8, 69719, Note_on_c, 4, 76, 0
8, 69720, Note_on_c, 4, 76, 100
8, 69809, Note_on_c, 4, 76, 0
8, 69810, Note_on_c, 4, 74, 100
8, 69839, Note_on_c, 4, 74, 0
8, 69840, Note_on_c, 4, 74, 100
8, 69959, Note_on_c, 4, 74, 0
8, 70560, Note_on_c, 4, 86, 110
8, 70679, Note_on_c, 4, 86, 0
8, 71280, Note_on_c, 4, 79, 110
8, 71399, Note_on_c, 4, 79, 0
8, 71760, Note_on_c, 4, 81, 110
8, 71879, Note_on_c, 4, 81, 0
8, 72240, Note_on_c, 4, 81, 110
8, 72359, Note_on_c, 4, 81, 0
8, 72720, Note_on_c, 4, 76, 110
8, 72839, Note_on_c, 4, 76, 0
8, 72960, Note_on_c, 4, 84, 110
8, 73079, Note_on_c, 4, 84, 0
8, 73320, Note_on_c, 4, 84, 110
8, 73439, Note_on_c, 4, 84, 0
8, 73440, Note_on_c, 4, 83, 110
8, 73559, Note_on_c, 4, 83, 0
8, 73695, Note_on_c, 4, 76, 110
8, 73709, Note_on_c, 4, 76, 0
8, 73710, Note_on_c, 4, 78, 110
8, 73724, Note_on_c, 4, 78, 0
8, 73725, Note_on_c, 4, 79, 110
8, 73739, Note_on_c, 4, 79, 0
8, 73740, Note_on_c, 4, 81, 110
8, 73754, Note_on_c, 4, 81, 0
8, 73755, Note_on_c, 4, 83, 110
8, 73769, Note_on_c, 4, 83, 0
8, 73770, Note_on_c, 4, 85, 110
8, 73784, Note_on_c, 4, 85, 0
8, 73785, Note_on_c, 4, 86, 110
8, 73799, Note_on_c, 4, 86, 0
8, 73800, Note_on_c, 4, 88, 110
8, 73859, Note_on_c, 4, 88, 0
8, 74175, Note_on_c, 4, 74, 110
8, 74189, Note_on_c, 4, 74, 0
8, 74190, Note_on_c, 4, 76, 110
8, 74204, Note_on_c, 4, 76, 0
8, 74205, Note_on_c, 4, 78, 110
8, 74219, Note_on_c, 4, 78, 0
8, 74220, Note_on_c, 4, 79, 110
8, 74234, Note_on_c, 4, 79, 0
8, 74235, Note_on_c, 4, 81, 110
8, 74249, Note_on_c, 4, 81, 0
8, 74250, Note_on_c, 4, 83, 110
8, 74264, Note_on_c, 4, 83, 0
8, 74265, Note_on_c, 4, 85, 110
8, 74279, Note_on_c, 4, 85, 0
8, 74280, Note_on_c, 4, 86, 110
8, 74339, Note_on_c, 4, 86, 0
8, 74655, Note_on_c, 4, 73, 110
8, 74669, Note_on_c, 4, 73, 0
8, 74670, Note_on_c, 4, 74, 110
8, 74684, Note_on_c, 4, 74, 0
8, 74685, Note_on_c, 4, 76, 110
8, 74699, Note_on_c, 4, 76, 0
8, 74700, Note_on_c, 4, 78, 110
8, 74714, Note_on_c, 4, 78, 0
8, 74715, Note_on_c, 4, 80, 110
8, 74729, Note_on_c, 4, 80, 0
8, 74730, Note_on_c, 4, 82, 110
8, 74744, Note_on_c, 4, 82, 0
8, 74745, Note_on_c, 4, 83, 110
8, 74759, Note_on_c, 4, 83, 0
8, 74760, Note_on_c, 4, 85, 110
8, 74819, Note_on_c, 4, 85, 0
8, 74895, Note_on_c, 4, 71, 110
8, 74909, Note_on_c, 4, 71, 0
8, 74910, Note_on_c, 4, 73, 110
8, 74924, Note_on_c, 4, 73, 0
8, 74925, Note_on_c, 4, 74, 110
8, 74939, Note_on_c, 4, 74, 0
8, 74940, Note_on_c, 4, 76, 110
8, 74954, Note_on_c, 4, 76, 0
8, 74955, Note_on_c, 4, 78, 110
8, 74969, Note_on_c, 4, 78, 0
8, 74970, Note_on_c, 4, 79, 110
8, 74984, Note_on_c, 4, 79, 0
8, 74985, Note_on_c, 4, 81, 110
8, 74999, Note_on_c, 4, 81, 0
8, 75000, Note_on_c, 4, 83, 110
8, 75014, Note_on_c, 4, 83, 0
8, 75015, Note_on_c, 4, 78, 110
8, 75029, Note_on_c, 4, 78, 0
8, 75030, Note_on_c, 4, 79, 110
8, 75044, Note_on_c, 4, 79, 0
8, 75045, Note_on_c, 4, 81, 110
8, 75059, Note_on_c, 4, 81, 0
8, 75060, Note_on_c, 4, 83, 110
8, 75074, Note_on_c, 4, 83, 0
8, 75075, Note_on_c, 4, 85, 110
8, 75089, Note_on_c, 4, 85, 0
8, 75090, Note_on_c, 4, 86, 110
8, 75104, Note_on_c, 4, 86, 0
8, 75105, Note_on_c, 4, 88, 110
8, 75119, Note_on_c, 4, 88, 0
8, 75120, Note_on_c, 4, 90, 110
8, 75179, Note_on_c, 4, 90, 0
8, 75360, Note_on_c, 4, 88, 110
8, 75419, Note_on_c, 4, 88, 0
8, 75600, Note_on_c, 4, 81, 110
8, 75719, Note_on_c, 4, 81, 0
8, 76080, Note_on_c, 4, 81, 110
8, 76199, Note_on_c, 4, 81, 0
8, 76320, Note_on_c, 4, 86, 110
8, 76439, Note_on_c, 4, 86, 0
8, 76575, Note_on_c, 4, 69, 110
8, 76589, Note_on_c, 4, 69, 0
8, 76590, Note_on_c, 4, 71, 110
8, 76604, Note_on_c, 4, 71, 0
8, 76605, Note_on_c, 4, 73, 110
8, 76619, Note_on_c, 4, 73, 0
8, 76620, Note_on_c, 4, 74, 110
8, 76634, Note_on_c, 4, 74, 0
8, 76635, Note_on_c, 4, 76, 110
8, 76649, Note_on_c, 4, 76, 0
8, 76650, Note_on_c, 4, 78, 110
8, 76664, Note_on_c, 4, 78, 0
8, 76665, Note_on_c, 4, 79, 110
8, 76679, Note_on_c, 4, 79, 0
8, 76680, Note_on_c, 4, 81, 110
8, 76709, Note_on_c, 4, 81, 0
8, 76710, Note_on_c, 4, 76, 110
8, 76724, Note_on_c, 4, 76, 0
8, 76725, Note_on_c, 4, 78, 110
8, 76739, Note_on_c, 4, 78, 0
8, 76740, Note_on_c, 4, 79, 110
8, 76754, Note_on_c, 4, 79, 0
8, 76755, Note_on_c, 4, 81, 110
8, 76769, Note_on_c, 4, 81, 0
8, 76770, Note_on_c, 4, 83, 110
8, 76784, Note_on_c, 4, 83, 0
8, 76785, Note_on_c, 4, 85, 110
8, 76799, Note_on_c, 4, 85, 0
8, 76800, Note_on_c, 4, 86, 110
8, 76829, Note_on_c, 4, 86, 0
8, 76830, Note_on_c, 4, 85, 110
8, 76844, Note_on_c, 4, 85, 0
8, 76845, Note_on_c, 4, 83, 110
8, 76859, Note_on_c, 4, 83, 0
8, 76860, Note_on_c, 4, 81, 110
8, 76874, Note_on_c, 4, 81, 0
8, 76875, Note_on_c, 4, 79, 110
8, 76889, Note_on_c, 4, 79, 0
8, 76890, Note_on_c, 4, 78, 110
8, 76904, Note_on_c, 4, 78, 0
8, 76905, Note_on_c, 4, 76, 110
8, 76919, Note_on_c, 4, 76, 0
8, 76920, Note_on_c, 4, 74, 110
8, 76949, Note_on_c, 4, 74, 0
8, 76950, Note_on_c, 4, 73, 110
8, 76964, Note_on_c, 4, 73, 0
8, 76965, Note_on_c, 4, 71, 110
8, 76979, Note_on_c, 4, 71, 0
8, 76980, Note_on_c, 4, 69, 110
8, 76994, Note_on_c, 4, 69, 0
8, 76995, Note_on_c, 4, 67, 110
8, 77009, Note_on_c, 4, 67, 0
8, 77010, Note_on_c, 4, 66, 110
8, 77024, Note_on_c, 4, 66, 0
8, 77025, Note_on_c, 4, 64, 110
8, 77039, Note_on_c, 4, 64, 0
8, 77040, Note_on_c, 4, 62, 110
8, 77159, Note_on_c, 4, 62, 0
8, 77295, Note_on_c, 4, 68, 110
8, 77309, Note_on_c, 4, 68, 0
8, 77310, Note_on_c, 4, 69, 110
8, 77324, Note_on_c, 4, 69, 0
8, 77325, Note_on_c, 4, 71, 110
8, 77339, Note_on_c, 4, 71, 0
8, 77340, Note_on_c, 4, 73, 110
8, 77354, Note_on_c, 4, 73, 0
8, 77355, Note_on_c, 4, 74, 110
8, 77369, Note_on_c, 4, 74, 0
8, 77370, Note_on_c, 4, 76, 110
8, 77384, Note_on_c, 4, 76, 0
8, 77385, Note_on_c, 4, 78, 110
8, 77399, Note_on_c, 4, 78, 0
8, 77400, Note_on_c, 4, 79, 110
8, 77414, Note_on_c, 4, 79, 0
8, 77415, Note_on_c, 4, 78, 110
8, 77429, Note_on_c, 4, 78, 0
8, 77430, Note_on_c, 4, 76, 110
8, 77444, Note_on_c, 4, 76, 0
8, 77445, Note_on_c, 4, 78, 110
8, 77459, Note_on_c, 4, 78, 0
8, 77460, Note_on_c, 4, 79, 110
8, 77474, Note_on_c, 4, 79, 0
8, 77475, Note_on_c, 4, 81, 110
8, 77489, Note_on_c, 4, 81, 0
8, 77490, Note_on_c, 4, 83, 110
8, 77504, Note_on_c, 4, 83, 0
8, 77505, Note_on_c, 4, 85, 110
8, 77519, Note_on_c, 4, 85, 0
8, 77520, Note_on_c, 4, 86, 110
8, 77579, Note_on_c, 4, 86, 0
8, 77775, Note_on_c, 4, 73, 110
8, 77789, Note_on_c, 4, 73, 0
8, 77790, Note_on_c, 4, 74, 110
8, 77804, Note_on_c, 4, 74, 0
8, 77805, Note_on_c, 4, 76, 110
8, 77819, Note_on_c, 4, 76, 0
8, 77820, Note_on_c, 4, 78, 110
8, 77834, Note_on_c, 4, 78, 0
8, 77835, Note_on_c, 4, 80, 110
8, 77849, Note_on_c, 4, 80, 0
8, 77850, Note_on_c, 4, 81, 110
8, 77864, Note_on_c, 4, 81, 0
8, 77865, Note_on_c, 4, 83, 110
8, 77879, Note_on_c, 4, 83, 0
8, 77880, Note_on_c, 4, 85, 110
8, 77894, Note_on_c, 4, 85, 0
8, 77895, Note_on_c, 4, 86, 110
8, 77909, Note_on_c, 4, 86, 0
8, 77910, Note_on_c, 4, 88, 110
8, 77924, Note_on_c, 4, 88, 0
8, 77925, Note_on_c, 4, 86, 110
8, 77939, Note_on_c, 4, 86, 0
8, 77940, Note_on_c, 4, 85, 110
8, 77954, Note_on_c, 4, 85, 0
8, 77955, Note_on_c, 4, 83, 110
8, 77969, Note_on_c, 4, 83, 0
8, 77970, Note_on_c, 4, 81, 110
8, 77984, Note_on_c, 4, 81, 0
8, 77985, Note_on_c, 4, 79, 110
8, 77999, Note_on_c, 4, 79, 0
8, 78000, Note_on_c, 4, 78, 110
8, 78059, Note_on_c, 4, 78, 0
8, 78270, Note_on_c, 4, 85, 110
8, 78284, Note_on_c, 4, 85, 0
8, 78285, Note_on_c, 4, 83, 110
8, 78299, Note_on_c, 4, 83, 0
8, 78300, Note_on_c, 4, 81, 110
8, 78314, Note_on_c, 4, 81, 0
8, 78315, Note_on_c, 4, 80, 110
8, 78329, Note_on_c, 4, 80, 0
8, 78330, Note_on_c, 4, 78, 110
8, 78344, Note_on_c, 4, 78, 0
8, 78345, Note_on_c, 4, 76, 110
8, 78359, Note_on_c, 4, 76, 0
8, 78360, Note_on_c, 4, 74, 110
8, 78374, Note_on_c, 4, 74, 0
8, 78375, Note_on_c, 4, 73, 110
8, 78389, Note_on_c, 4, 73, 0
8, 78390, Note_on_c, 4, 71, 110
8, 78404, Note_on_c, 4, 71, 0
8, 78405, Note_on_c, 4, 69, 110
8, 78419, Note_on_c, 4, 69, 0
8, 78420, Note_on_c, 4, 68, 110
8, 78434, Note_on_c, 4, 68, 0
8, 78435, Note_on_c, 4, 66, 110
8, 78449, Note_on_c, 4, 66, 0
8, 78450, Note_on_c, 4, 64, 110
8, 78464, Note_on_c, 4, 64, 0
8, 78465, Note_on_c, 4, 62, 110
8, 78479, Note_on_c, 4, 62, 0
8, 78480, Note_on_c, 4, 64, 110
8, 78509, Note_on_c, 4, 64, 0
8, 78510, Note_on_c, 4, 69, 110
8, 78524, Note_on_c, 4, 69, 0
8, 78525, Note_on_c, 4, 73, 110
8, 78539, Note_on_c, 4, 73, 0
8, 78540, Note_on_c, 4, 76, 110
8, 78569, Note_on_c, 4, 76, 0
8, 78570, Note_on_c, 4, 73, 110
8, 78584, Note_on_c, 4, 73, 0
8, 78585, Note_on_c, 4, 76, 110
8, 78599, Note_on_c, 4, 76, 0
8, 78600, Note_on_c, 4, 81, 110
8, 78629, Note_on_c, 4, 81, 0
8, 78630, Note_on_c, 4, 76, 110
8, 78644, Note_on_c, 4, 76, 0
8, 78645, Note_on_c, 4, 81, 110
8, 78659, Note_on_c, 4, 81, 0
8, 78660, Note_on_c, 4, 85, 110
8, 78689, Note_on_c, 4, 85, 0
8, 78690, Note_on_c, 4, 81, 110
8, 78704, Note_on_c, 4, 81, 0
8, 78705, Note_on_c, 4, 85, 110
8, 78719, Note_on_c, 4, 85, 0
8, 78720, Note_on_c, 4, 88, 110
8, 78839, Note_on_c, 4, 88, 0
8, 78975, Note_on_c, 4, 73, 110
8, 78989, Note_on_c, 4, 73, 0
8, 78990, Note_on_c, 4, 74, 110
8, 79004, Note_on_c, 4, 74, 0
8, 79005, Note_on_c, 4, 76, 110
8, 79019, Note_on_c, 4, 76, 0
8, 79020, Note_on_c, 4, 78, 110
8, 79034, Note_on_c, 4, 78, 0
8, 79035, Note_on_c, 4, 80, 110
8, 79049, Note_on_c, 4, 80, 0
8, 79050, Note_on_c, 4, 82, 110
8, 79064, Note_on_c, 4, 82, 0
8, 79065, Note_on_c, 4, 83, 110
8, 79079, Note_on_c, 4, 83, 0
8, 79080, Note_on_c, 4, 85, 110
8, 79139, Note_on_c, 4, 85, 0
8, 79455, Note_on_c, 4, 83, 110
8, 79469, Note_on_c, 4, 83, 0
8, 79470, Note_on_c, 4, 81, 110
8, 79484, Note_on_c, 4, 81, 0
8, 79485, Note_on_c, 4, 79, 110
8, 79499, Note_on_c, 4, 79, 0
8, 79500, Note_on_c, 4, 78, 110
8, 79514, Note_on_c, 4, 78, 0
8, 79515, Note_on_c, 4, 76, 110
8, 79529, Note_on_c, 4, 76, 0
8, 79530, Note_on_c, 4, 75, 110
8, 79544, Note_on_c, 4, 75, 0
8, 79545, Note_on_c, 4, 73, 110
8, 79559, Note_on_c, 4, 73, 0
8, 79560, Note_on_c, 4, 71, 110
8, 79574, Note_on_c, 4, 71, 0
8, 79575, Note_on_c, 4, 73, 110
8, 79589, Note_on_c, 4, 73, 0
8, 79590, Note_on_c, 4, 75, 110
8, 79604, Note_on_c, 4, 75, 0
8, 79605, Note_on_c, 4, 76, 110
8, 79619, Note_on_c, 4, 76, 0
8, 79620, Note_on_c, 4, 78, 110
8, 79634, Note_on_c, 4, 78, 0
8, 79635, Note_on_c, 4, 79, 110
8, 79649, Note_on_c, 4, 79, 0
8, 79650, Note_on_c, 4, 81, 110
8, 79664, Note_on_c, 4, 81, 0
8, 79665, Note_on_c, 4, 83, 110
8, 79679, Note_on_c, 4, 83, 0
8, 79680, Note_on_c, 4, 84, 110
8, 79739, Note_on_c, 4, 84, 0
8, 80070, Note_on_c, 4, 76, 110
8, 80084, Note_on_c, 4, 76, 0
8, 80085, Note_on_c, 4, 78, 110
8, 80099, Note_on_c, 4, 78, 0
8, 80100, Note_on_c, 4, 80, 110
8, 80114, Note_on_c, 4, 80, 0
8, 80115, Note_on_c, 4, 81, 110
8, 80129, Note_on_c, 4, 81, 0
8, 80130, Note_on_c, 4, 83, 110
8, 80144, Note_on_c, 4, 83, 0
8, 80145, Note_on_c, 4, 85, 110
8, 80159, Note_on_c, 4, 85, 0
8, 80160, Note_on_c, 4, 86, 110
8, 80219, Note_on_c, 4, 86, 0
8, 80430, Note_on_c, 4, 77, 110
8, 80444, Note_on_c, 4, 77, 0
8, 80445, Note_on_c, 4, 78, 110
8, 80459, Note_on_c, 4, 78, 0
8, 80460, Note_on_c, 4, 80, 110
8, 80474, Note_on_c, 4, 80, 0
8, 80475, Note_on_c, 4, 81, 110
8, 80489, Note_on_c, 4, 81, 0
8, 80490, Note_on_c, 4, 83, 110
8, 80504, Note_on_c, 4, 83, 0
8, 80505, Note_on_c, 4, 85, 110
8, 80519, Note_on_c, 4, 85, 0
8, 80520, Note_on_c, 4, 86, 110
8, 80579, Note_on_c, 4, 86, 0
8, 80910, Note_on_c, 4, 85, 110
8, 80924, Note_on_c, 4, 85, 0
8, 80925, Note_on_c, 4, 83, 110
8, 80939, Note_on_c, 4, 83, 0
8, 80940, Note_on_c, 4, 81, 110
8, 80954, Note_on_c, 4, 81, 0
8, 80955, Note_on_c, 4, 80, 110
8, 80969, Note_on_c, 4, 80, 0
8, 80970, Note_on_c, 4, 78, 110
8, 80984, Note_on_c, 4, 78, 0
8, 80985, Note_on_c, 4, 77, 110
8, 80999, Note_on_c, 4, 77, 0
8, 81000, Note_on_c, 4, 78, 110
8, 81059, Note_on_c, 4, 78, 0
8, 81150, Note_on_c, 4, 74, 110
8, 81164, Note_on_c, 4, 74, 0
8, 81165, Note_on_c, 4, 73, 110
8, 81179, Note_on_c, 4, 73, 0
8, 81180, Note_on_c, 4, 71, 110
8, 81194, Note_on_c, 4, 71, 0
8, 81195, Note_on_c, 4, 69, 110
8, 81209, Note_on_c, 4, 69, 0
8, 81210, Note_on_c, 4, 67, 110
8, 81224, Note_on_c, 4, 67, 0
8, 81225, Note_on_c, 4, 66, 110
8, 81239, Note_on_c, 4, 66, 0
8, 81240, Note_on_c, 4, 67, 110
8, 81299, Note_on_c, 4, 67, 0
8, 81390, Note_on_c, 4, 71, 110
8, 81404, Note_on_c, 4, 71, 0
8, 81405, Note_on_c, 4, 69, 110
8, 81419, Note_on_c, 4, 69, 0
8, 81420, Note_on_c, 4, 68, 110
8, 81434, Note_on_c, 4, 68, 0
8, 81435, Note_on_c, 4, 66, 110
8, 81449, Note_on_c, 4, 66, 0
8, 81450, Note_on_c, 4, 65, 110
8, 81464, Note_on_c, 4, 65, 0
8, 81465, Note_on_c, 4, 63, 110
8, 81479, Note_on_c, 4, 63, 0
8, 81480, Note_on_c, 4, 65, 110
8, 81539, Note_on_c, 4, 65, 0
8, 226800, Note_on_c, 4, 79, 120
8, 227280, Note_on_c, 4, 79, 0
8, 227280, Note_on_c, 4, 78, 120
8, 227520, Note_on_c, 4, 78, 0
8, 227520, Note_on_c, 4, 79, 120
8, 228000, Note_on_c, 4, 79, 0
8, 228000, Note_on_c, 4, 76, 120
8, 228360, Note_on_c, 4, 76, 0
8, 228360, Note_on_c, 4, 83, 120
8, 228480, Note_on_c, 4, 83, 0
8, 228480, Note_on_c, 4, 81, 120
8, 229680, Note_on_c, 4, 81, 0
8, 229680, Note_on_c, 4, 85, 120
8, 229920, Note_on_c, 4, 85, 0
8, 229920, Note_on_c, 4, 86, 120
8, 230160, Note_on_c, 4, 86, 0
8, 230160, Note_on_c, 4, 85, 120
8, 230400, Note_on_c, 4, 85, 0
8, 230520, Note_on_c, 4, 85, 120
8, 230550, Note_on_c, 4, 85, 0
8, 230550, Note_on_c, 4, 83, 120
8, 230580, Note_on_c, 4, 83, 0
8, 230580, Note_on_c, 4, 85, 120
8, 230610, Note_on_c, 4, 85, 0
8, 230610, Note_on_c, 4, 82, 120
8, 230640, Note_on_c, 4, 82, 0
8, 230640, Note_on_c, 4, 83, 120
8, 231120, Note_on_c, 4, 83, 0
8, 231120, Note_on_c, 4, 81, 120
8, 231360, Note_on_c, 4, 81, 0
8, 231360, Note_on_c, 4, 83, 120
8, 231600, Note_on_c, 4, 83, 0
8, 231600, Note_on_c, 4, 81, 120
8, 231840, Note_on_c, 4, 81, 0
8, 231840, Note_on_c, 4, 80, 120
8, 232080, Note_on_c, 4, 80, 0
8, 232080, Note_on_c, 4, 78, 120
8, 233520, Note_on_c, 4, 78, 0
8, 233520, Note_on_c, 4, 76, 110
8, 234240, Note_on_c, 4, 76, 0
8, 234240, Note_on_c, 4, 74, 110
8, 234720, Note_on_c, 4, 74, 0
8, 234840, Note_on_c, 4, 73, 110
8, 234870, Note_on_c, 4, 73, 0
8, 234870, Note_on_c, 4, 76, 110
8, 234900, Note_on_c, 4, 76, 0
8, 234900, Note_on_c, 4, 79, 110
8, 234930, Note_on_c, 4, 79, 0
8, 234930, Note_on_c, 4, 76, 110
8, 234960, Note_on_c, 4, 76, 0
8, 234960, Note_on_c, 4, 78, 110
8, 235200, Note_on_c, 4, 78, 0
8, 285420, Note_on_c, 4, 74, 120
8, 285450, Note_on_c, 4, 74, 0
8, 285450, Note_on_c, 4, 79, 120
8, 285480, Note_on_c, 4, 79, 0
8, 285480, Note_on_c, 4, 83, 120
8, 285570, Note_on_c, 4, 83, 0
8, 285570, Note_on_c, 4, 81, 120
8, 285600, Note_on_c, 4, 81, 0
8, 285600, Note_on_c, 4, 79, 120
8, 285630, Note_on_c, 4, 79, 0
8, 285630, Note_on_c, 4, 78, 120
8, 285660, Note_on_c, 4, 78, 0
8, 285660, Note_on_c, 4, 79, 120
8, 285690, Note_on_c, 4, 79, 0
8, 285690, Note_on_c, 4, 74, 120
8, 285720, Note_on_c, 4, 74, 0
8, 285720, Note_on_c, 4, 71, 120
8, 285750, Note_on_c, 4, 71, 0
8, 285750, Note_on_c, 4, 74, 120
8, 285780, Note_on_c, 4, 74, 0
8, 285780, Note_on_c, 4, 79, 120
8, 285810, Note_on_c, 4, 79, 0
8, 285810, Note_on_c, 4, 83, 120
8, 285840, Note_on_c, 4, 83, 0
8, 285840, Note_on_c, 4, 86, 120
8, 285870, Note_on_c, 4, 86, 0
8, 285870, Note_on_c, 4, 84, 120
8, 285900, Note_on_c, 4, 84, 0
8, 285900, Note_on_c, 4, 86, 120
8, 285930, Note_on_c, 4, 86, 0
8, 285930, Note_on_c, 4, 84, 120
8, 285960, Note_on_c, 4, 84, 0
8, 285960, Note_on_c, 4, 83, 120
8, 285990, Note_on_c, 4, 83, 0
8, 285990, Note_on_c, 4, 81, 120
8, 286020, Note_on_c, 4, 81, 0
8, 286020, Note_on_c, 4, 83, 120
8, 286050, Note_on_c, 4, 83, 0
8, 286050, Note_on_c, 4, 79, 120
8, 286080, Note_on_c, 4, 79, 0
8, 286080, Note_on_c, 4, 74, 120
8, 286110, Note_on_c, 4, 74, 0
8, 286110, Note_on_c, 4, 77, 120
8, 286140, Note_on_c, 4, 77, 0
8, 286140, Note_on_c, 4, 76, 120
8, 286200, Note_on_c, 4, 76, 0
8, 286200, Note_on_c, 4, 76, 120
8, 286230, Note_on_c, 4, 76, 0
8, 286230, Note_on_c, 4, 74, 120
8, 286260, Note_on_c, 4, 74, 0
8, 286260, Note_on_c, 4, 76, 120
8, 286320, Note_on_c, 4, 76, 0
8, 286320, Note_on_c, 4, 76, 120
8, 286350, Note_on_c, 4, 76, 0
8, 286350, Note_on_c, 4, 79, 120
8, 286380, Note_on_c, 4, 79, 0
8, 286380, Note_on_c, 4, 77, 120
8, 286410, Note_on_c, 4, 77, 0
8, 286410, Note_on_c, 4, 76, 120
8, 286440, Note_on_c, 4, 76, 0
8, 286440, Note_on_c, 4, 74, 120
8, 286470, Note_on_c, 4, 74, 0
8, 286470, Note_on_c, 4, 72, 120
8, 286500, Note_on_c, 4, 72, 0
8, 286500, Note_on_c, 4, 74, 120
8, 286560, Note_on_c, 4, 74, 0
8, 286560, Note_on_c, 4, 79, 120
8, 286590, Note_on_c, 4, 79, 0
8, 286590, Note_on_c, 4, 78, 120
8, 286620, Note_on_c, 4, 78, 0
8, 286620, Note_on_c, 4, 79, 120
8, 286680, Note_on_c, 4, 79, 0
8, 286680, Note_on_c, 4, 67, 120
8, 286800, Note_on_c, 4, 67, 0
8, 286800, Note_on_c, 4, 69, 120
8, 286830, Note_on_c, 4, 69, 0
8, 286830, Note_on_c, 4, 71, 120
8, 286860, Note_on_c, 4, 71, 0
8, 286860, Note_on_c, 4, 72, 120
8, 286920, Note_on_c, 4, 72, 0
8, 286920, Note_on_c, 4, 72, 120
8, 286950, Note_on_c, 4, 72, 0
8, 286950, Note_on_c, 4, 71, 120
8, 286980, Note_on_c, 4, 71, 0
8, 286980, Note_on_c, 4, 72, 120
8, 287040, Note_on_c, 4, 72, 0
8, 287040, Note_on_c, 4, 72, 120
8, 287070, Note_on_c, 4, 72, 0
8, 287070, Note_on_c, 4, 81, 120
8, 287100, Note_on_c, 4, 81, 0
8, 287100, Note_on_c, 4, 79, 120
8, 287130, Note_on_c, 4, 79, 0
8, 287130, Note_on_c, 4, 78, 120
8, 287160, Note_on_c, 4, 78, 0
8, 287160, Note_on_c, 4, 76, 120
8, 287190, Note_on_c, 4, 76, 0
8, 287190, Note_on_c, 4, 74, 120
8, 287220, Note_on_c, 4, 74, 0
8, 287220, Note_on_c, 4, 72, 120
8, 287250, Note_on_c, 4, 72, 0
8, 287250, Note_on_c, 4, 69, 120
8, 287280, Note_on_c, 4, 69, 0
8, 287280, Note_on_c, 4, 71, 120
8, 287340, Note_on_c, 4, 71, 0
8, 287340, Note_on_c, 4, 71, 120
8, 287490, Note_on_c, 4, 71, 0
8, 287490, Note_on_c, 4, 74, 120
8, 287520, Note_on_c, 4, 74, 0
8, 287520, Note_on_c, 4, 71, 120
8, 287550, Note_on_c, 4, 71, 0
8, 287550, Note_on_c, 4, 67, 120
8, 287580, Note_on_c, 4, 67, 0
8, 287580, Note_on_c, 4, 69, 120
8, 287610, Note_on_c, 4, 69, 0
8, 287610, Note_on_c, 4, 66, 120
8, 287640, Note_on_c, 4, 66, 0
8, 287640, Note_on_c, 4, 67, 120
8, 287700, Note_on_c, 4, 67, 0
8, 287700, Note_on_c, 4, 67, 120
8, 287850, Note_on_c, 4, 67, 0
8, 287850, Note_on_c, 4, 79, 120
8, 287880, Note_on_c, 4, 79, 0
8, 287880, Note_on_c, 4, 76, 120
8, 287910, Note_on_c, 4, 76, 0
8, 287910, Note_on_c, 4, 73, 120
8, 287940, Note_on_c, 4, 73, 0
8, 287940, Note_on_c, 4, 74, 120
8, 287970, Note_on_c, 4, 74, 0
8, 287970, Note_on_c, 4, 71, 120
8, 288000, Note_on_c, 4, 71, 0
8, 288000, Note_on_c, 4, 73, 120
8, 288060, Note_on_c, 4, 73, 0
8, 288060, Note_on_c, 4, 73, 120
8, 288210, Note_on_c, 4, 73, 0
8, 288210, Note_on_c, 4, 81, 120
8, 288240, Note_on_c, 4, 81, 0
8, 288240, Note_on_c, 4, 78, 120
8, 288270, Note_on_c, 4, 78, 0
8, 288270, Note_on_c, 4, 74, 120
8, 288300, Note_on_c, 4, 74, 0
8, 288300, Note_on_c, 4, 76, 120
8, 288330, Note_on_c, 4, 76, 0
8, 288330, Note_on_c, 4, 73, 120
8, 288360, Note_on_c, 4, 73, 0
8, 288360, Note_on_c, 4, 74, 120
8, 288420, Note_on_c, 4, 74, 0
8, 288420, Note_on_c, 4, 74, 120
8, 288450, Note_on_c, 4, 74, 0
8, 288450, Note_on_c, 4, 79, 120
8, 288480, Note_on_c, 4, 79, 0
8, 288480, Note_on_c, 4, 78, 120
8, 288540, Note_on_c, 4, 78, 0
8, 288540, Note_on_c, 4, 78, 120
8, 288570, Note_on_c, 4, 78, 0
8, 288570, Note_on_c, 4, 83, 120
8, 288600, Note_on_c, 4, 83, 0
8, 288600, Note_on_c, 4, 81, 120
8, 288660, Note_on_c, 4, 81, 0
8, 288660, Note_on_c, 4, 81, 120
8, 288810, Note_on_c, 4, 81, 0
8, 288810, Note_on_c, 4, 69, 120
8, 288840, Note_on_c, 4, 69, 0
8, 288840, Note_on_c, 4, 71, 120
8, 288870, Note_on_c, 4, 71, 0
8, 288870, Note_on_c, 4, 69, 120
8, 288900, Note_on_c, 4, 69, 0
8, 288900, Note_on_c, 4, 79, 120
8, 288930, Note_on_c, 4, 79, 0
8, 288930, Note_on_c, 4, 69, 120
8, 288960, Note_on_c, 4, 69, 0
8, 288960, Note_on_c, 4, 71, 120
8, 288990, Note_on_c, 4, 71, 0
8, 288990, Note_on_c, 4, 69, 120
8, 289020, Note_on_c, 4, 69, 0
8, 289020, Note_on_c, 4, 78, 120
8, 289050, Note_on_c, 4, 78, 0
8, 289050, Note_on_c, 4, 74, 120
8, 289065, Note_on_c, 4, 74, 0
8, 289065, Note_on_c, 4, 76, 120
8, 289080, Note_on_c, 4, 76, 0
8, 289080, Note_on_c, 4, 78, 120
8, 289110, Note_on_c, 4, 78, 0
8, 289110, Note_on_c, 4, 81, 120
8, 289140, Note_on_c, 4, 81, 0
8, 289140, Note_on_c, 4, 78, 120
8, 289170, Note_on_c, 4, 78, 0
8, 289170, Note_on_c, 4, 74, 120
8, 289185, Note_on_c, 4, 74, 0
8, 289185, Note_on_c, 4, 76, 120
8, 289200, Note_on_c, 4, 76, 0
8, 289200, Note_on_c, 4, 78, 120
8, 289230, Note_on_c, 4, 78, 0
8, 289230, Note_on_c, 4, 81, 120
8, 289260, Note_on_c, 4, 81, 0
8, 289260, Note_on_c, 4, 78, 120
8, 289280, Note_on_c, 4, 78, 0
8, 289280, Note_on_c, 4, 76, 120
8, 289300, Note_on_c, 4, 76, 0
8, 289300, Note_on_c, 4, 74, 120
8, 289320, Note_on_c, 4, 74, 0
8, 289320, Note_on_c, 4, 76, 120
8, 289340, Note_on_c, 4, 76, 0
8, 289340, Note_on_c, 4, 74, 120
8, 289360, Note_on_c, 4, 74, 0
8, 289360, Note_on_c, 4, 73, 120
8, 289380, Note_on_c, 4, 73, 0
8, 289380, Note_on_c, 4, 74, 120
8, 289500, Note_on_c, 4, 74, 0
8, 289500, Note_on_c, 4, 62, 120
8, 289740, Note_on_c, 4, 62, 0
8, 290100, Note_on_c, 4, 74, 120
8, 290130, Note_on_c, 4, 74, 0
8, 290130, Note_on_c, 4, 79, 120
8, 290160, Note_on_c, 4, 79, 0
8, 290160, Note_on_c, 4, 83, 120
8, 290250, Note_on_c, 4, 83, 0
8, 290250, Note_on_c, 4, 81, 120
8, 290280, Note_on_c, 4, 81, 0
8, 290280, Note_on_c, 4, 79, 120
8, 290310, Note_on_c, 4, 79, 0
8, 290310, Note_on_c, 4, 78, 120
8, 290340, Note_on_c, 4, 78, 0
8, 290340, Note_on_c, 4, 79, 120
8, 290370, Note_on_c, 4, 79, 0
8, 290370, Note_on_c, 4, 74, 120
8, 290400, Note_on_c, 4, 74, 0
8, 290400, Note_on_c, 4, 71, 120
8, 290430, Note_on_c, 4, 71, 0
8, 290430, Note_on_c, 4, 74, 120
8, 290460, Note_on_c, 4, 74, 0
8, 290460, Note_on_c, 4, 79, 120
8, 290490, Note_on_c, 4, 79, 0
8, 290490, Note_on_c, 4, 83, 120
8, 290520, Note_on_c, 4, 83, 0
8, 290520, Note_on_c, 4, 86, 120
8, 290580, Note_on_c, 4, 86, 0
8, 290580, Note_on_c, 4, 86, 120
8, 290820, Note_on_c, 4, 86, 0
8, 290850, Note_on_c, 4, 74, 120
8, 290880, Note_on_c, 4, 74, 0
8, 290880, Note_on_c, 4, 73, 120
8, 290910, Note_on_c, 4, 73, 0
8, 290910, Note_on_c, 4, 74, 120
8, 290940, Note_on_c, 4, 74, 0
8, 290940, Note_on_c, 4, 76, 120
8, 290970, Note_on_c, 4, 76, 0
8, 290970, Note_on_c, 4, 74, 120
8, 291000, Note_on_c, 4, 74, 0
8, 291000, Note_on_c, 4, 73, 120
8, 291030, Note_on_c, 4, 73, 0
8, 291030, Note_on_c, 4, 74, 120
8, 291060, Note_on_c, 4, 74, 0
8, 291060, Note_on_c, 4, 86, 120
8, 291090, Note_on_c, 4, 86, 0
8, 291090, Note_on_c, 4, 83, 120
8, 291120, Note_on_c, 4, 83, 0
8, 291120, Note_on_c, 4, 84, 120
8, 291180, Note_on_c, 4, 84, 0
8, 291180, Note_on_c, 4, 84, 120
8, 291209, Note_on_c, 4, 84, 0
8, 291210, Note_on_c, 4, 81, 120
8, 291239, Note_on_c, 4, 81, 0
8, 291240, Note_on_c, 4, 83, 120
8, 291329, Note_on_c, 4, 83, 0
8, 291330, Note_on_c, 4, 81, 120
8, 291359, Note_on_c, 4, 81, 0
8, 291360, Note_on_c, 4, 79, 120
8, 291389, Note_on_c, 4, 79, 0
8, 291390, Note_on_c, 4, 78, 120
8, 291419, Note_on_c, 4, 78, 0
8, 291420, Note_on_c, 4, 79, 120
8, 291449, Note_on_c, 4, 79, 0
8, 291450, Note_on_c, 4, 74, 120
8, 291479, Note_on_c, 4, 74, 0
8, 291480, Note_on_c, 4, 71, 120
8, 291509, Note_on_c, 4, 71, 0
8, 291510, Note_on_c, 4, 74, 120
8, 291539, Note_on_c, 4, 74, 0
8, 291540, Note_on_c, 4, 79, 120
8, 291569, Note_on_c, 4, 79, 0
8, 291570, Note_on_c, 4, 83, 120
8, 291599, Note_on_c, 4, 83, 0
8, 291600, Note_on_c, 4, 86, 120
8, 291629, Note_on_c, 4, 86, 0
8, 291630, Note_on_c, 4, 84, 120
8, 291659, Note_on_c, 4, 84, 0
8, 291660, Note_on_c, 4, 86, 120
8, 291689, Note_on_c, 4, 86, 0
8, 291690, Note_on_c, 4, 84, 120
8, 291719, Note_on_c, 4, 84, 0
8, 291720, Note_on_c, 4, 83, 120
8, 291749, Note_on_c, 4, 83, 0
8, 291750, Note_on_c, 4, 81, 120
8, 291779, Note_on_c, 4, 81, 0
8, 291780, Note_on_c, 4, 83, 120
8, 291839, Note_on_c, 4, 83, 0
8, 291840, Note_on_c, 4, 79, 120
8, 291899, Note_on_c, 4, 79, 0
8, 292020, Note_on_c, 4, 79, 120
8, 292320, Note_on_c, 4, 79, 0
8, 292320, Note_on_c, 4, 67, 120
8, 292439, Note_on_c, 4, 67, 0
8, 292440, Note_on_c, 4, 69, 120
8, 292469, Note_on_c, 4, 69, 0
8, 292470, Note_on_c, 4, 71, 120
8, 292499, Note_on_c, 4, 71, 0
8, 292500, Note_on_c, 4, 72, 120
8, 292529, Note_on_c, 4, 72, 0
8, 292530, Note_on_c, 4, 71, 120
8, 292559, Note_on_c, 4, 71, 0
8, 292560, Note_on_c, 4, 69, 120
8, 292589, Note_on_c, 4, 69, 0
8, 292590, Note_on_c, 4, 67, 120
8, 292619, Note_on_c, 4, 67, 0
8, 292620, Note_on_c, 4, 72, 120
8, 292679, Note_on_c, 4, 72, 0
8, 292680, Note_on_c, 4, 79, 120
8, 292709, Note_on_c, 4, 79, 0
8, 292710, Note_on_c, 4, 78, 120
8, 292739, Note_on_c, 4, 78, 0
8, 292740, Note_on_c, 4, 79, 120
8, 292769, Note_on_c, 4, 79, 0
8, 292770, Note_on_c, 4, 86, 120
8, 292799, Note_on_c, 4, 86, 0
8, 292800, Note_on_c, 4, 84, 120
8, 292829, Note_on_c, 4, 84, 0
8, 292830, Note_on_c, 4, 83, 120
8, 292859, Note_on_c, 4, 83, 0
8, 292860, Note_on_c, 4, 81, 120
8, 292889, Note_on_c, 4, 81, 0
8, 292890, Note_on_c, 4, 79, 120
8, 292919, Note_on_c, 4, 79, 0
8, 292920, Note_on_c, 4, 78, 120
8, 292949, Note_on_c, 4, 78, 0
8, 292950, Note_on_c, 4, 79, 120
8, 292979, Note_on_c, 4, 79, 0
8, 292980, Note_on_c, 4, 69, 120
8, 293009, Note_on_c, 4, 69, 0
8, 293010, Note_on_c, 4, 78, 120
8, 293039, Note_on_c, 4, 78, 0
8, 293040, Note_on_c, 4, 79, 120
8, 293069, Note_on_c, 4, 79, 0
8, 293070, Note_on_c, 4, 76, 120
8, 293099, Note_on_c, 4, 76, 0
8, 293100, Note_on_c, 4, 78, 120
8, 293129, Note_on_c, 4, 78, 0
8, 293130, Note_on_c, 4, 74, 120
8, 293144, Note_on_c, 4, 74, 0
8, 293145, Note_on_c, 4, 76, 120
8, 293159, Note_on_c, 4, 76, 0
8, 293160, Note_on_c, 4, 78, 120
8, 293189, Note_on_c, 4, 78, 0
8, 293190, Note_on_c, 4, 81, 120
8, 293219, Note_on_c, 4, 81, 0
8, 293220, Note_on_c, 4, 78, 120
8, 293239, Note_on_c, 4, 78, 0
8, 293240, Note_on_c, 4, 76, 120
8, 293259, Note_on_c, 4, 76, 0
8, 293260, Note_on_c, 4, 74, 120
8, 293279, Note_on_c, 4, 74, 0
8, 293280, Note_on_c, 4, 76, 120
8, 293299, Note_on_c, 4, 76, 0
8, 293300, Note_on_c, 4, 74, 120
8, 293319, Note_on_c, 4, 74, 0
8, 293320, Note_on_c, 4, 73, 120
8, 293339, Note_on_c, 4, 73, 0
8, 293340, Note_on_c, 4, 74, 120
8, 293369, Note_on_c, 4, 74, 0
8, 293370, Note_on_c, 4, 69, 120
8, 293399, Note_on_c, 4, 69, 0
8, 293400, Note_on_c, 4, 78, 120
8, 293489, Note_on_c, 4, 78, 0
8, 293490, Note_on_c, 4, 76, 120
8, 293519, Note_on_c, 4, 76, 0
8, 293520, Note_on_c, 4, 74, 120
8, 293549, Note_on_c, 4, 74, 0
8, 293550, Note_on_c, 4, 73, 120
8, 293579, Note_on_c, 4, 73, 0
8, 293580, Note_on_c, 4, 74, 120
8, 293609, Note_on_c, 4, 74, 0
8, 293610, Note_on_c, 4, 69, 120
8, 293639, Note_on_c, 4, 69, 0
8, 293640, Note_on_c, 4, 66, 120
8, 293669, Note_on_c, 4, 66, 0
8, 293670, Note_on_c, 4, 69, 120
8, 293699, Note_on_c, 4, 69, 0
8, 293700, Note_on_c, 4, 74, 120
8, 293729, Note_on_c, 4, 74, 0
8, 293730, Note_on_c, 4, 78, 120
8, 293759, Note_on_c, 4, 78, 0
8, 293760, Note_on_c, 4, 81, 120
8, 293789, Note_on_c, 4, 81, 0
8, 293790, Note_on_c, 4, 79, 120
8, 293819, Note_on_c, 4, 79, 0
8, 293820, Note_on_c, 4, 81, 120
8, 293849, Note_on_c, 4, 81, 0
8, 293850, Note_on_c, 4, 79, 120
8, 293879, Note_on_c, 4, 79, 0
8, 293880, Note_on_c, 4, 78, 120
8, 293909, Note_on_c, 4, 78, 0
8, 293910, Note_on_c, 4, 76, 120
8, 293939, Note_on_c, 4, 76, 0
8, 293940, Note_on_c, 4, 78, 120
8, 293969, Note_on_c, 4, 78, 0
8, 293970, Note_on_c, 4, 74, 120
8, 293999, Note_on_c, 4, 74, 0
8, 294000, Note_on_c, 4, 69, 120
8, 294029, Note_on_c, 4, 69, 0
8, 294030, Note_on_c, 4, 74, 120
8, 294059, Note_on_c, 4, 74, 0
8, 294060, Note_on_c, 4, 78, 120
8, 294089, Note_on_c, 4, 78, 0
8, 294090, Note_on_c, 4, 81, 120
8, 294119, Note_on_c, 4, 81, 0
8, 294120, Note_on_c, 4, 86, 120
8, 294149, Note_on_c, 4, 86, 0
8, 294150, Note_on_c, 4, 85, 120
8, 294179, Note_on_c, 4, 85, 0
8, 294180, Note_on_c, 4, 86, 120
8, 294299, Note_on_c, 4, 86, 0
8, 294300, Note_on_c, 4, 81, 120
8, 294419, Note_on_c, 4, 81, 0
8, 294450, Note_on_c, 4, 69, 120
8, 294479, Note_on_c, 4, 69, 0
8, 294480, Note_on_c, 4, 68, 120
8, 294509, Note_on_c, 4, 68, 0
8, 294510, Note_on_c, 4, 69, 120
8, 294539, Note_on_c, 4, 69, 0
8, 294540, Note_on_c, 4, 71, 120
8, 294569, Note_on_c, 4, 71, 0
8, 294570, Note_on_c, 4, 69, 120
8, 294599, Note_on_c, 4, 69, 0
8, 294600, Note_on_c, 4, 68, 120
8, 294629, Note_on_c, 4, 68, 0
8, 294630, Note_on_c, 4, 69, 120
8, 294659, Note_on_c, 4, 69, 0
8, 294660, Note_on_c, 4, 83, 120
8, 294689, Note_on_c, 4, 83, 0
8, 294690, Note_on_c, 4, 79, 120
8, 294719, Note_on_c, 4, 79, 0
8, 294720, Note_on_c, 4, 81, 120
8, 294779, Note_on_c, 4, 81, 0
8, 294780, Note_on_c, 4, 81, 120
8, 294809, Note_on_c, 4, 81, 0
8, 294810, Note_on_c, 4, 78, 120
8, 294839, Note_on_c, 4, 78, 0
8, 294840, Note_on_c, 4, 79, 120
8, 294899, Note_on_c, 4, 79, 0
8, 294900, Note_on_c, 4, 79, 120
8, 295139, Note_on_c, 4, 79, 0
8, 295170, Note_on_c, 4, 69, 120
8, 295199, Note_on_c, 4, 69, 0
8, 295200, Note_on_c, 4, 68, 120
8, 295229, Note_on_c, 4, 68, 0
8, 295230, Note_on_c, 4, 69, 120
8, 295259, Note_on_c, 4, 69, 0
8, 295260, Note_on_c, 4, 71, 120
8, 295289, Note_on_c, 4, 71, 0
8, 295290, Note_on_c, 4, 69, 120
8, 295319, Note_on_c, 4, 69, 0
8, 295320, Note_on_c, 4, 68, 120
8, 295349, Note_on_c, 4, 68, 0
8, 295350, Note_on_c, 4, 69, 120
8, 295379, Note_on_c, 4, 69, 0
8, 295380, Note_on_c, 4, 79, 120
8, 295409, Note_on_c, 4, 79, 0
8, 295410, Note_on_c, 4, 76, 120
8, 295439, Note_on_c, 4, 76, 0
8, 295440, Note_on_c, 4, 78, 120
8, 295499, Note_on_c, 4, 78, 0
8, 295500, Note_on_c, 4, 78, 120
8, 295529, Note_on_c, 4, 78, 0
8, 295530, Note_on_c, 4, 74, 120
8, 295559, Note_on_c, 4, 74, 0
8, 295560, Note_on_c, 4, 76, 120
8, 295619, Note_on_c, 4, 76, 0
8, 295620, Note_on_c, 4, 76, 120
8, 295739, Note_on_c, 4, 76, 0
8, 295800, Note_on_c, 4, 76, 120
8, 295859, Note_on_c, 4, 76, 0
8, 295860, Note_on_c, 4, 76, 120
8, 295889, Note_on_c, 4, 76, 0
8, 295890, Note_on_c, 4, 73, 120
8, 295919, Note_on_c, 4, 73, 0
8, 295920, Note_on_c, 4, 74, 120
8, 295979, Note_on_c, 4, 74, 0
8, 295980, Note_on_c, 4, 74, 120
8, 296009, Note_on_c, 4, 74, 0
8, 296010, Note_on_c, 4, 78, 120
8, 296039, Note_on_c, 4, 78, 0
8, 296040, Note_on_c, 4, 74, 120
8, 296069, Note_on_c, 4, 74, 0
8, 296070, Note_on_c, 4, 69, 120
8, 296099, Note_on_c, 4, 69, 0
8, 296100, Note_on_c, 4, 71, 120
8, 296129, Note_on_c, 4, 71, 0
8, 296130, Note_on_c, 4, 67, 120
8, 296159, Note_on_c, 4, 67, 0
8, 296160, Note_on_c, 4, 69, 120
8, 296219, Note_on_c, 4, 69, 0
8, 296220, Note_on_c, 4, 69, 120
8, 296249, Note_on_c, 4, 69, 0
8, 296250, Note_on_c, 4, 66, 120
8, 296279, Note_on_c, 4, 66, 0
8, 296280, Note_on_c, 4, 67, 120
8, 296339, Note_on_c, 4, 67, 0
8, 296340, Note_on_c, 4, 67, 120
8, 296490, Note_on_c, 4, 67, 0
8, 296490, Note_on_c, 4, 79, 120
8, 296519, Note_on_c, 4, 79, 0
8, 296520, Note_on_c, 4, 76, 120
8, 296549, Note_on_c, 4, 76, 0
8, 296550, Note_on_c, 4, 73, 120
8, 296579, Note_on_c, 4, 73, 0
8, 296580, Note_on_c, 4, 74, 120
8, 296609, Note_on_c, 4, 74, 0
8, 296610, Note_on_c, 4, 71, 120
8, 296639, Note_on_c, 4, 71, 0
8, 296640, Note_on_c, 4, 73, 120
8, 296699, Note_on_c, 4, 73, 0
8, 296700, Note_on_c, 4, 73, 120
8, 296850, Note_on_c, 4, 73, 0
8, 296850, Note_on_c, 4, 81, 120
8, 296879, Note_on_c, 4, 81, 0
8, 296880, Note_on_c, 4, 78, 120
8, 296909, Note_on_c, 4, 78, 0
8, 296910, Note_on_c, 4, 74, 120
8, 296939, Note_on_c, 4, 74, 0
8, 296940, Note_on_c, 4, 76, 120
8, 296969, Note_on_c, 4, 76, 0
8, 296970, Note_on_c, 4, 73, 120
8, 296999, Note_on_c, 4, 73, 0
8, 297000, Note_on_c, 4, 74, 120
8, 297059, Note_on_c, 4, 74, 0
8, 297060, Note_on_c, 4, 74, 120
8, 297089, Note_on_c, 4, 74, 0
8, 297090, Note_on_c, 4, 79, 120
8, 297119, Note_on_c, 4, 79, 0
8, 297120, Note_on_c, 4, 78, 120
8, 297179, Note_on_c, 4, 78, 0
8, 297180, Note_on_c, 4, 78, 120
8, 297209, Note_on_c, 4, 78, 0
8, 297210, Note_on_c, 4, 83, 120
8, 297239, Note_on_c, 4, 83, 0
8, 297240, Note_on_c, 4, 81, 120
8, 297299, Note_on_c, 4, 81, 0
8, 297300, Note_on_c, 4, 81, 120
8, 297450, Note_on_c, 4, 81, 0
8, 297450, Note_on_c, 4, 69, 120
8, 297479, Note_on_c, 4, 69, 0
8, 297480, Note_on_c, 4, 71, 120
8, 297509, Note_on_c, 4, 71, 0
8, 297510, Note_on_c, 4, 69, 120
8, 297539, Note_on_c, 4, 69, 0
8, 297540, Note_on_c, 4, 79, 120
8, 297569, Note_on_c, 4, 79, 0
8, 297570, Note_on_c, 4, 69, 120
8, 297599, Note_on_c, 4, 69, 0
8, 297600, Note_on_c, 4, 71, 120
8, 297629, Note_on_c, 4, 71, 0
8, 297630, Note_on_c, 4, 69, 120
8, 297659, Note_on_c, 4, 69, 0
8, 297660, Note_on_c, 4, 79, 120
8, 297719, Note_on_c, 4, 79, 0
8, 298020, Note_on_c, 4, 69, 120
8, 298049, Note_on_c, 4, 69, 0
8, 298050, Note_on_c, 4, 74, 120
8, 298079, Note_on_c, 4, 74, 0
8, 298080, Note_on_c, 4, 78, 120
8, 298169, Note_on_c, 4, 78, 0
8, 298170, Note_on_c, 4, 76, 120
8, 298199, Note_on_c, 4, 76, 0
8, 298200, Note_on_c, 4, 79, 120
8, 298229, Note_on_c, 4, 79, 0
8, 298230, Note_on_c, 4, 78, 120
8, 298259, Note_on_c, 4, 78, 0
8, 298260, Note_on_c, 4, 76, 120
8, 298289, Note_on_c, 4, 76, 0
8, 298290, Note_on_c, 4, 74, 120
8, 298319, Note_on_c, 4, 74, 0
8, 298320, Note_on_c, 4, 73, 120
8, 298349, Note_on_c, 4, 73, 0
8, 298350, Note_on_c, 4, 74, 120
8, 298379, Note_on_c, 4, 74, 0
8, 298380, Note_on_c, 4, 83, 120
8, 298439, Note_on_c, 4, 83, 0
8, 298440, Note_on_c, 4, 83, 120
8, 298469, Note_on_c, 4, 83, 0
8, 298470, Note_on_c, 4, 81, 120
8, 298499, Note_on_c, 4, 81, 0
8, 298500, Note_on_c, 4, 83, 120
8, 298559, Note_on_c, 4, 83, 0
8, 298560, Note_on_c, 4, 83, 120
8, 298589, Note_on_c, 4, 83, 0
8, 298590, Note_on_c, 4, 86, 120
8, 298619, Note_on_c, 4, 86, 0
8, 298620, Note_on_c, 4, 84, 120
8, 298649, Note_on_c, 4, 84, 0
8, 298650, Note_on_c, 4, 83, 120
8, 298679, Note_on_c, 4, 83, 0
8, 298680, Note_on_c, 4, 81, 120
8, 298709, Note_on_c, 4, 81, 0
8, 298710, Note_on_c, 4, 79, 120
8, 298739, Note_on_c, 4, 79, 0
8, 298740, Note_on_c, 4, 81, 120
8, 298799, Note_on_c, 4, 81, 0
8, 298800, Note_on_c, 4, 86, 120
8, 298829, Note_on_c, 4, 86, 0
8, 298830, Note_on_c, 4, 85, 120
8, 298859, Note_on_c, 4, 85, 0
8, 298860, Note_on_c, 4, 86, 120
8, 298919, Note_on_c, 4, 86, 0
8, 298920, Note_on_c, 4, 74, 120
8, 299039, Note_on_c, 4, 74, 0
8, 299040, Note_on_c, 4, 76, 120
8, 299069, Note_on_c, 4, 76, 0
8, 299070, Note_on_c, 4, 78, 120
8, 299099, Note_on_c, 4, 78, 0
8, 299100, Note_on_c, 4, 79, 120
8, 299159, Note_on_c, 4, 79, 0
8, 299160, Note_on_c, 4, 79, 120
8, 299189, Note_on_c, 4, 79, 0
8, 299190, Note_on_c, 4, 78, 120
8, 299219, Note_on_c, 4, 78, 0
8, 299220, Note_on_c, 4, 79, 120
8, 299279, Note_on_c, 4, 79, 0
8, 299280, Note_on_c, 4, 79, 120
8, 299309, Note_on_c, 4, 79, 0
8, 299310, Note_on_c, 4, 88, 120
8, 299339, Note_on_c, 4, 88, 0
8, 299340, Note_on_c, 4, 86, 120
8, 299369, Note_on_c, 4, 86, 0
8, 299370, Note_on_c, 4, 85, 120
8, 299399, Note_on_c, 4, 85, 0
8, 299400, Note_on_c, 4, 83, 120
8, 299429, Note_on_c, 4, 83, 0
8, 299430, Note_on_c, 4, 81, 120
8, 299459, Note_on_c, 4, 81, 0
8, 299460, Note_on_c, 4, 79, 120
8, 299489, Note_on_c, 4, 79, 0
8, 299490, Note_on_c, 4, 76, 120
8, 299519, Note_on_c, 4, 76, 0
8, 299520, Note_on_c, 4, 78, 120
8, 299579, Note_on_c, 4, 78, 0
8, 299580, Note_on_c, 4, 78, 120
8, 299730, Note_on_c, 4, 78, 0
8, 299730, Note_on_c, 4, 81, 120
8, 299759, Note_on_c, 4, 81, 0
8, 299760, Note_on_c, 4, 78, 120
8, 299789, Note_on_c, 4, 78, 0
8, 299790, Note_on_c, 4, 74, 120
8, 299819, Note_on_c, 4, 74, 0
8, 299820, Note_on_c, 4, 76, 120
8, 299849, Note_on_c, 4, 76, 0
8, 299850, Note_on_c, 4, 73, 120
8, 299879, Note_on_c, 4, 73, 0
8, 299880, Note_on_c, 4, 74, 120
8, 299939, Note_on_c, 4, 74, 0
8, 299940, Note_on_c, 4, 74, 120
8, 299969, Note_on_c, 4, 74, 0
8, 299970, Note_on_c, 4, 79, 120
8, 299999, Note_on_c, 4, 79, 0
8, 300000, Note_on_c, 4, 78, 120
8, 300059, Note_on_c, 4, 78, 0
8, 300060, Note_on_c, 4, 78, 120
8, 300089, Note_on_c, 4, 78, 0
8, 300090, Note_on_c, 4, 83, 120
8, 300119, Note_on_c, 4, 83, 0
8, 300120, Note_on_c, 4, 81, 120
8, 300179, Note_on_c, 4, 81, 0
8, 300180, Note_on_c, 4, 81, 120
8, 300330, Note_on_c, 4, 81, 0
8, 300330, Note_on_c, 4, 69, 120
8, 300359, Note_on_c, 4, 69, 0
8, 300360, Note_on_c, 4, 71, 120
8, 300389, Note_on_c, 4, 71, 0
8, 300390, Note_on_c, 4, 69, 120
8, 300419, Note_on_c, 4, 69, 0
8, 300420, Note_on_c, 4, 79, 120
8, 300449, Note_on_c, 4, 79, 0
8, 300450, Note_on_c, 4, 69, 120
8, 300479, Note_on_c, 4, 69, 0
8, 300480, Note_on_c, 4, 71, 120
8, 300509, Note_on_c, 4, 71, 0
8, 300510, Note_on_c, 4, 69, 120
8, 300539, Note_on_c, 4, 69, 0
8, 300540, Note_on_c, 4, 78, 120
8, 300569, Note_on_c, 4, 78, 0
8, 300570, Note_on_c, 4, 74, 120
8, 300584, Note_on_c, 4, 74, 0
8, 300585, Note_on_c, 4, 76, 120
8, 300599, Note_on_c, 4, 76, 0
8, 300600, Note_on_c, 4, 78, 120
8, 300629, Note_on_c, 4, 78, 0
8, 300630, Note_on_c, 4, 81, 120
8, 300659, Note_on_c, 4, 81, 0
8, 300660, Note_on_c, 4, 78, 120
8, 300689, Note_on_c, 4, 78, 0
8, 300690, Note_on_c, 4, 74, 120
8, 300704, Note_on_c, 4, 74, 0
8, 300705, Note_on_c, 4, 76, 120
8, 300719, Note_on_c, 4, 76, 0
8, 300720, Note_on_c, 4, 78, 120
8, 300749, Note_on_c, 4, 78, 0
8, 300750, Note_on_c, 4, 81, 120
8, 300779, Note_on_c, 4, 81, 0
8, 300780, Note_on_c, 4, 78, 120
8, 300799, Note_on_c, 4, 78, 0
8, 300800, Note_on_c, 4, 76, 120
8, 300819, Note_on_c, 4, 76, 0
8, 300820, Note_on_c, 4, 74, 120
8, 300839, Note_on_c, 4, 74, 0
8, 300840, Note_on_c, 4, 76, 120
8, 300859, Note_on_c, 4, 76, 0
8, 300860, Note_on_c, 4, 74, 120
8, 300879, Note_on_c, 4, 74, 0
8, 300880, Note_on_c, 4, 73, 120
8, 300899, Note_on_c, 4, 73, 0
8, 300900, Note_on_c, 4, 74, 120
8, 301019, Note_on_c, 4, 74, 0
8, 301020, Note_on_c, 4, 86, 120
8, 301259, Note_on_c, 4, 86, 0
8, 301320, Note_on_c, 4, 79, 120
8, 301349, Note_on_c, 4, 79, 0
8, 301350, Note_on_c, 4, 78, 120
8, 301379, Note_on_c, 4, 78, 0
8, 301380, Note_on_c, 4, 79, 120
8, 301439, Note_on_c, 4, 79, 0
8, 301440, Note_on_c, 4, 79, 120
8, 301469, Note_on_c, 4, 79, 0
8, 301470, Note_on_c, 4, 78, 120
8, 301499, Note_on_c, 4, 78, 0
8, 301500, Note_on_c, 4, 79, 120
8, 301559, Note_on_c, 4, 79, 0
8, 301680, Note_on_c, 4, 76, 120
8, 301709, Note_on_c, 4, 76, 0
8, 301710, Note_on_c, 4, 74, 120
8, 301739, Note_on_c, 4, 74, 0
8, 301740, Note_on_c, 4, 76, 120
8, 301799, Note_on_c, 4, 76, 0
8, 301800, Note_on_c, 4, 76, 120
8, 301829, Note_on_c, 4, 76, 0
8, 301830, Note_on_c, 4, 74, 120
8, 301859, Note_on_c, 4, 74, 0
8, 301860, Note_on_c, 4, 76, 120
8, 301919, Note_on_c, 4, 76, 0
8, 302040, Note_on_c, 4, 81, 120
8, 302069, Note_on_c, 4, 81, 0
8, 302070, Note_on_c, 4, 80, 120
8, 302099, Note_on_c, 4, 80, 0
8, 302100, Note_on_c, 4, 81, 120
8, 302159, Note_on_c, 4, 81, 0
8, 302160, Note_on_c, 4, 81, 120
8, 302189, Note_on_c, 4, 81, 0
8, 302190, Note_on_c, 4, 80, 120
8, 302219, Note_on_c, 4, 80, 0
8, 302220, Note_on_c, 4, 81, 120
8, 302279, Note_on_c, 4, 81, 0
8, 302460, Note_on_c, 4, 81, 120
8, 303300, Note_on_c, 4, 81, 0
8, 303960, Note_on_c, 4, 78, 120
8, 304019, Note_on_c, 4, 78, 0
8, 304020, Note_on_c, 4, 83, 120
8, 304049, Note_on_c, 4, 83, 0
8, 304050, Note_on_c, 4, 79, 120
8, 304079, Note_on_c, 4, 79, 0
8, 304080, Note_on_c, 4, 81, 120
8, 304139, Note_on_c, 4, 81, 0
8, 304140, Note_on_c, 4, 81, 120
8, 304169, Note_on_c, 4, 81, 0
8, 304170, Note_on_c, 4, 78, 120
8, 304199, Note_on_c, 4, 78, 0
8, 304200, Note_on_c, 4, 79, 120
8, 304259, Note_on_c, 4, 79, 0
8, 304260, Note_on_c, 4, 79, 120
8, 304319, Note_on_c, 4, 79, 0
8, 304320, Note_on_c, 4, 71, 120
8, 304379, Note_on_c, 4, 71, 0
8, 304380, Note_on_c, 4, 71, 120
8, 304409, Note_on_c, 4, 71, 0
8, 304410, Note_on_c, 4, 67, 120
8, 304439, Note_on_c, 4, 67, 0
8, 304440, Note_on_c, 4, 69, 120
8, 304499, Note_on_c, 4, 69, 0
8, 304500, Note_on_c, 4, 69, 120
8, 304529, Note_on_c, 4, 69, 0
8, 304530, Note_on_c, 4, 64, 120
8, 304559, Note_on_c, 4, 64, 0
8, 304560, Note_on_c, 4, 66, 120
8, 304619, Note_on_c, 4, 66, 0
8, 304620, Note_on_c, 4, 66, 120
8, 304679, Note_on_c, 4, 66, 0
8, 305220, Note_on_c, 4, 76, 120
8, 305249, Note_on_c, 4, 76, 0
8, 305250, Note_on_c, 4, 79, 120
8, 305279, Note_on_c, 4, 79, 0
8, 305280, Note_on_c, 4, 83, 120
8, 305309, Note_on_c, 4, 83, 0
8, 305310, Note_on_c, 4, 81, 120
8, 305339, Note_on_c, 4, 81, 0
8, 305340, Note_on_c, 4, 83, 120
8, 305369, Note_on_c, 4, 83, 0
8, 305370, Note_on_c, 4, 81, 120
8, 305399, Note_on_c, 4, 81, 0
8, 305400, Note_on_c, 4, 79, 120
8, 305429, Note_on_c, 4, 79, 0
8, 305430, Note_on_c, 4, 78, 120
8, 305459, Note_on_c, 4, 78, 0
8, 305460, Note_on_c, 4, 79, 120
8, 305489, Note_on_c, 4, 79, 0
8, 305490, Note_on_c, 4, 76, 120
8, 305519, Note_on_c, 4, 76, 0
8, 305520, Note_on_c, 4, 75, 120
8, 305549, Note_on_c, 4, 75, 0
8, 305550, Note_on_c, 4, 76, 120
8, 305579, Note_on_c, 4, 76, 0
8, 305580, Note_on_c, 4, 72, 120
8, 305639, Note_on_c, 4, 72, 0
8, 305640, Note_on_c, 4, 72, 120
8, 305669, Note_on_c, 4, 72, 0
8, 305670, Note_on_c, 4, 71, 120
8, 305699, Note_on_c, 4, 71, 0
8, 305700, Note_on_c, 4, 72, 120
8, 305759, Note_on_c, 4, 72, 0
8, 305760, Note_on_c, 4, 72, 120
8, 305789, Note_on_c, 4, 72, 0
8, 305790, Note_on_c, 4, 76, 120
8, 305819, Note_on_c, 4, 76, 0
8, 305820, Note_on_c, 4, 74, 120
8, 305849, Note_on_c, 4, 74, 0
8, 305850, Note_on_c, 4, 72, 120
8, 305879, Note_on_c, 4, 72, 0
8, 305880, Note_on_c, 4, 71, 120
8, 305909, Note_on_c, 4, 71, 0
8, 305910, Note_on_c, 4, 69, 120
8, 305939, Note_on_c, 4, 69, 0
8, 305940, Note_on_c, 4, 71, 120
8, 305999, Note_on_c, 4, 71, 0
8, 306000, Note_on_c, 4, 76, 120
8, 306029, Note_on_c, 4, 76, 0
8, 306030, Note_on_c, 4, 75, 120
8, 306059, Note_on_c, 4, 75, 0
8, 306060, Note_on_c, 4, 76, 120
8, 306119, Note_on_c, 4, 76, 0
8, 306120, Note_on_c, 4, 64, 120
8, 306239, Note_on_c, 4, 64, 0
8, 306240, Note_on_c, 4, 66, 120
8, 306269, Note_on_c, 4, 66, 0
8, 306270, Note_on_c, 4, 67, 120
8, 306299, Note_on_c, 4, 67, 0
8, 306300, Note_on_c, 4, 69, 120
8, 306359, Note_on_c, 4, 69, 0
8, 306360, Note_on_c, 4, 69, 120
8, 306389, Note_on_c, 4, 69, 0
8, 306390, Note_on_c, 4, 67, 120
8, 306419, Note_on_c, 4, 67, 0
8, 306420, Note_on_c, 4, 69, 120
8, 306479, Note_on_c, 4, 69, 0
8, 306480, Note_on_c, 4, 69, 120
8, 306509, Note_on_c, 4, 69, 0
8, 306510, Note_on_c, 4, 78, 120
8, 306539, Note_on_c, 4, 78, 0
8, 306540, Note_on_c, 4, 76, 120
8, 306569, Note_on_c, 4, 76, 0
8, 306570, Note_on_c, 4, 75, 120
8, 306599, Note_on_c, 4, 75, 0
8, 306600, Note_on_c, 4, 73, 120
8, 306629, Note_on_c, 4, 73, 0
8, 306630, Note_on_c, 4, 71, 120
8, 306659, Note_on_c, 4, 71, 0
8, 306660, Note_on_c, 4, 81, 120
8, 306689, Note_on_c, 4, 81, 0
8, 306690, Note_on_c, 4, 78, 120
8, 306719, Note_on_c, 4, 78, 0
8, 306720, Note_on_c, 4, 79, 120
8, 306779, Note_on_c, 4, 79, 0
8, 306780, Note_on_c, 4, 80, 120
8, 306809, Note_on_c, 4, 80, 0
8, 306810, Note_on_c, 4, 83, 120
8, 306839, Note_on_c, 4, 83, 0
8, 306840, Note_on_c, 4, 81, 120
8, 306899, Note_on_c, 4, 81, 0
8, 306900, Note_on_c, 4, 81, 120
8, 306929, Note_on_c, 4, 81, 0
8, 306930, Note_on_c, 4, 84, 120
8, 306959, Note_on_c, 4, 84, 0
8, 306960, Note_on_c, 4, 83, 120
8, 307019, Note_on_c, 4, 83, 0
8, 307020, Note_on_c, 4, 83, 120
8, 307170, Note_on_c, 4, 83, 0
8, 307170, Note_on_c, 4, 79, 120
8, 307184, Note_on_c, 4, 79, 0
8, 307185, Note_on_c, 4, 81, 120
8, 307199, Note_on_c, 4, 81, 0
8, 307200, Note_on_c, 4, 83, 120
8, 307229, Note_on_c, 4, 83, 0
8, 307230, Note_on_c, 4, 88, 120
8, 307259, Note_on_c, 4, 88, 0
8, 307260, Note_on_c, 4, 79, 120
8, 307279, Note_on_c, 4, 79, 0
8, 307280, Note_on_c, 4, 78, 120
8, 307299, Note_on_c, 4, 78, 0
8, 307300, Note_on_c, 4, 76, 120
8, 307319, Note_on_c, 4, 76, 0
8, 307320, Note_on_c, 4, 78, 120
8, 307339, Note_on_c, 4, 78, 0
8, 307340, Note_on_c, 4, 76, 120
8, 307359, Note_on_c, 4, 76, 0
8, 307360, Note_on_c, 4, 75, 120
8, 307379, Note_on_c, 4, 75, 0
8, 307380, Note_on_c, 4, 76, 120
8, 307499, Note_on_c, 4, 76, 0
8, 307500, Note_on_c, 4, 64, 120
8, 307739, Note_on_c, 4, 64, 0
8, 307800, Note_on_c, 4, 76, 120
8, 307829, Note_on_c, 4, 76, 0
8, 307830, Note_on_c, 4, 74, 120
8, 307859, Note_on_c, 4, 74, 0
8, 307860, Note_on_c, 4, 76, 120
8, 307919, Note_on_c, 4, 76, 0
8, 307920, Note_on_c, 4, 76, 120
8, 307949, Note_on_c, 4, 76, 0
8, 307950, Note_on_c, 4, 74, 120
8, 307979, Note_on_c, 4, 74, 0
8, 307980, Note_on_c, 4, 76, 120
8, 308039, Note_on_c, 4, 76, 0
8, 308160, Note_on_c, 4, 74, 120
8, 308189, Note_on_c, 4, 74, 0
8, 308190, Note_on_c, 4, 72, 120
8, 308219, Note_on_c, 4, 72, 0
8, 308220, Note_on_c, 4, 74, 120
8, 308279, Note_on_c, 4, 74, 0
8, 308280, Note_on_c, 4, 74, 120
8, 308309, Note_on_c, 4, 74, 0
8, 308310, Note_on_c, 4, 72, 120
8, 308339, Note_on_c, 4, 72, 0
8, 308340, Note_on_c, 4, 74, 120
8, 308399, Note_on_c, 4, 74, 0
8, 308520, Note_on_c, 4, 79, 120
8, 308549, Note_on_c, 4, 79, 0
8, 308550, Note_on_c, 4, 78, 120
8, 308579, Note_on_c, 4, 78, 0
8, 308580, Note_on_c, 4, 79, 120
8, 308639, Note_on_c, 4, 79, 0
8, 308640, Note_on_c, 4, 79, 120
8, 308669, Note_on_c, 4, 79, 0
8, 308670, Note_on_c, 4, 78, 120
8, 308699, Note_on_c, 4, 78, 0
8, 308700, Note_on_c, 4, 79, 120
8, 308759, Note_on_c, 4, 79, 0
8, 308940, Note_on_c, 4, 86, 120
8, 309840, Note_on_c, 4, 86, 0
8, 309840, Note_on_c, 4, 79, 120
8, 309869, Note_on_c, 4, 79, 0
8, 309870, Note_on_c, 4, 78, 120
8, 309899, Note_on_c, 4, 78, 0
8, 309900, Note_on_c, 4, 79, 120
8, 309959, Note_on_c, 4, 79, 0
8, 309960, Note_on_c, 4, 79, 120
8, 309989, Note_on_c, 4, 79, 0
8, 309990, Note_on_c, 4, 78, 120
8, 310019, Note_on_c, 4, 78, 0
8, 310020, Note_on_c, 4, 79, 120
8, 310079, Note_on_c, 4, 79, 0
8, 310440, Note_on_c, 4, 74, 120
8, 310499, Note_on_c, 4, 74, 0
8, 310500, Note_on_c, 4, 84, 120
8, 310529, Note_on_c, 4, 84, 0
8, 310530, Note_on_c, 4, 81, 120
8, 310559, Note_on_c, 4, 81, 0
8, 310560, Note_on_c, 4, 83, 120
8, 310619, Note_on_c, 4, 83, 0
8, 310620, Note_on_c, 4, 83, 120
8, 310649, Note_on_c, 4, 83, 0
8, 310650, Note_on_c, 4, 79, 120
8, 310679, Note_on_c, 4, 79, 0
8, 310680, Note_on_c, 4, 81, 120
8, 310739, Note_on_c, 4, 81, 0
8, 310740, Note_on_c, 4, 81, 120
8, 310799, Note_on_c, 4, 81, 0
8, 310800, Note_on_c, 4, 74, 120
8, 310859, Note_on_c, 4, 74, 0
8, 310860, Note_on_c, 4, 83, 120
8, 310889, Note_on_c, 4, 83, 0
8, 310890, Note_on_c, 4, 79, 120
8, 310919, Note_on_c, 4, 79, 0
8, 310920, Note_on_c, 4, 81, 120
8, 310979, Note_on_c, 4, 81, 0
8, 310980, Note_on_c, 4, 81, 120
8, 311009, Note_on_c, 4, 81, 0
8, 311010, Note_on_c, 4, 78, 120
8, 311039, Note_on_c, 4, 78, 0
8, 311040, Note_on_c, 4, 79, 120
8, 311099, Note_on_c, 4, 79, 0
8, 311100, Note_on_c, 4, 79, 120
8, 311159, Note_on_c, 4, 79, 0
8, 311850, Note_on_c, 4, 67, 120
8, 311879, Note_on_c, 4, 67, 0
8, 311880, Note_on_c, 4, 69, 120
8, 311909, Note_on_c, 4, 69, 0
8, 311910, Note_on_c, 4, 71, 120
8, 311939, Note_on_c, 4, 71, 0
8, 311940, Note_on_c, 4, 72, 120
8, 311969, Note_on_c, 4, 72, 0
8, 311970, Note_on_c, 4, 71, 120
8, 311999, Note_on_c, 4, 71, 0
8, 312000, Note_on_c, 4, 69, 120
8, 312029, Note_on_c, 4, 69, 0
8, 312030, Note_on_c, 4, 67, 120
8, 312059, Note_on_c, 4, 67, 0
8, 312060, Note_on_c, 4, 76, 120
8, 312119, Note_on_c, 4, 76, 0
8, 312120, Note_on_c, 4, 76, 120
8, 312149, Note_on_c, 4, 76, 0
8, 312150, Note_on_c, 4, 74, 120
8, 312179, Note_on_c, 4, 74, 0
8, 312180, Note_on_c, 4, 76, 120
8, 312239, Note_on_c, 4, 76, 0
8, 312240, Note_on_c, 4, 76, 120
8, 312269, Note_on_c, 4, 76, 0
8, 312270, Note_on_c, 4, 79, 120
8, 312299, Note_on_c, 4, 79, 0
8, 312300, Note_on_c, 4, 77, 120
8, 312329, Note_on_c, 4, 77, 0
8, 312330, Note_on_c, 4, 76, 120
8, 312359, Note_on_c, 4, 76, 0
8, 312360, Note_on_c, 4, 74, 120
8, 312389, Note_on_c, 4, 74, 0
8, 312390, Note_on_c, 4, 72, 120
8, 312419, Note_on_c, 4, 72, 0
8, 312420, Note_on_c, 4, 74, 120
8, 312479, Note_on_c, 4, 74, 0
8, 312480, Note_on_c, 4, 79, 120
8, 312509, Note_on_c, 4, 79, 0
8, 312510, Note_on_c, 4, 78, 120
8, 312539, Note_on_c, 4, 78, 0
8, 312540, Note_on_c, 4, 79, 120
8, 312599, Note_on_c, 4, 79, 0
8, 312600, Note_on_c, 4, 67, 120
8, 312719, Note_on_c, 4, 67, 0
8, 312720, Note_on_c, 4, 69, 120
8, 312749, Note_on_c, 4, 69, 0
8, 312750, Note_on_c, 4, 71, 120
8, 312779, Note_on_c, 4, 71, 0
8, 312780, Note_on_c, 4, 72, 120
8, 312839, Note_on_c, 4, 72, 0
8, 312840, Note_on_c, 4, 72, 120
8, 312869, Note_on_c, 4, 72, 0
8, 312870, Note_on_c, 4, 71, 120
8, 312899, Note_on_c, 4, 71, 0
8, 312900, Note_on_c, 4, 72, 120
8, 312959, Note_on_c, 4, 72, 0
8, 312960, Note_on_c, 4, 72, 120
8, 312989, Note_on_c, 4, 72, 0
8, 312990, Note_on_c, 4, 81, 120
8, 313019, Note_on_c, 4, 81, 0
8, 313020, Note_on_c, 4, 79, 120
8, 313049, Note_on_c, 4, 79, 0
8, 313050, Note_on_c, 4, 78, 120
8, 313079, Note_on_c, 4, 78, 0
8, 313080, Note_on_c, 4, 76, 120
8, 313109, Note_on_c, 4, 76, 0
8, 313110, Note_on_c, 4, 74, 120
8, 313139, Note_on_c, 4, 74, 0
8, 313140, Note_on_c, 4, 72, 120
8, 313169, Note_on_c, 4, 72, 0
8, 313170, Note_on_c, 4, 69, 120
8, 313199, Note_on_c, 4, 69, 0
8, 313200, Note_on_c, 4, 71, 120
8, 313259, Note_on_c, 4, 71, 0
8, 313260, Note_on_c, 4, 71, 120
8, 313410, Note_on_c, 4, 71, 0
8, 313410, Note_on_c, 4, 74, 120
8, 313439, Note_on_c, 4, 74, 0
8, 313440, Note_on_c, 4, 71, 120
8, 313469, Note_on_c, 4, 71, 0
8, 313470, Note_on_c, 4, 67, 120
8, 313499, Note_on_c, 4, 67, 0
8, 313500, Note_on_c, 4, 77, 120
8, 313529, Note_on_c, 4, 77, 0
8, 313530, Note_on_c, 4, 74, 120
8, 313559, Note_on_c, 4, 74, 0
8, 313560, Note_on_c, 4, 76, 120
8, 313619, Note_on_c, 4, 76, 0
8, 313620, Note_on_c, 4, 76, 120
8, 313770, Note_on_c, 4, 76, 0
8, 313770, Note_on_c, 4, 76, 120
8, 313799, Note_on_c, 4, 76, 0
8, 313800, Note_on_c, 4, 73, 120
8, 313829, Note_on_c, 4, 73, 0
8, 313830, Note_on_c, 4, 69, 120
8, 313859, Note_on_c, 4, 69, 0
8, 313860, Note_on_c, 4, 79, 120
8, 313889, Note_on_c, 4, 79, 0
8, 313890, Note_on_c, 4, 76, 120
8, 313919, Note_on_c, 4, 76, 0
8, 313920, Note_on_c, 4, 78, 120
8, 313979, Note_on_c, 4, 78, 0
8, 313980, Note_on_c, 4, 78, 120
8, 314130, Note_on_c, 4, 78, 0
8, 314130, Note_on_c, 4, 75, 120
8, 314159, Note_on_c, 4, 75, 0
8, 314160, Note_on_c, 4, 71, 120
8, 314189, Note_on_c, 4, 71, 0
8, 314190, Note_on_c, 4, 67, 120
8, 314219, Note_on_c, 4, 67, 0
8, 314220, Note_on_c, 4, 69, 120
8, 314249, Note_on_c, 4, 69, 0
8, 314250, Note_on_c, 4, 66, 120
8, 314279, Note_on_c, 4, 66, 0
8, 314280, Note_on_c, 4, 67, 120
8, 314339, Note_on_c, 4, 67, 0
8, 314340, Note_on_c, 4, 67, 120
8, 314369, Note_on_c, 4, 67, 0
8, 314370, Note_on_c, 4, 72, 120
8, 314399, Note_on_c, 4, 72, 0
8, 314400, Note_on_c, 4, 71, 120
8, 314459, Note_on_c, 4, 71, 0
8, 314460, Note_on_c, 4, 71, 120
8, 314489, Note_on_c, 4, 71, 0
8, 314490, Note_on_c, 4, 76, 120
8, 314519, Note_on_c, 4, 76, 0
8, 314520, Note_on_c, 4, 74, 120
8, 314579, Note_on_c, 4, 74, 0
8, 314580, Note_on_c, 4, 86, 120
8, 314730, Note_on_c, 4, 86, 0
8, 314730, Note_on_c, 4, 74, 120
8, 314759, Note_on_c, 4, 74, 0
8, 314760, Note_on_c, 4, 76, 120
8, 314789, Note_on_c, 4, 76, 0
8, 314790, Note_on_c, 4, 74, 120
8, 314819, Note_on_c, 4, 74, 0
8, 314820, Note_on_c, 4, 84, 120
8, 314849, Note_on_c, 4, 84, 0
8, 314850, Note_on_c, 4, 74, 120
8, 314879, Note_on_c, 4, 74, 0
8, 314880, Note_on_c, 4, 76, 120
8, 314909, Note_on_c, 4, 76, 0
8, 314910, Note_on_c, 4, 74, 120
8, 314939, Note_on_c, 4, 74, 0
8, 314940, Note_on_c, 4, 83, 120
8, 314969, Note_on_c, 4, 83, 0
8, 314970, Note_on_c, 4, 79, 120
8, 314984, Note_on_c, 4, 79, 0
8, 314985, Note_on_c, 4, 81, 120
8, 314999, Note_on_c, 4, 81, 0
8, 315000, Note_on_c, 4, 83, 120
8, 315029, Note_on_c, 4, 83, 0
8, 315030, Note_on_c, 4, 86, 120
8, 315059, Note_on_c, 4, 86, 0
8, 315060, Note_on_c, 4, 83, 120
8, 315089, Note_on_c, 4, 83, 0
8, 315090, Note_on_c, 4, 79, 120
8, 315104, Note_on_c, 4, 79, 0
8, 315105, Note_on_c, 4, 81, 120
8, 315119, Note_on_c, 4, 81, 0
8, 315120, Note_on_c, 4, 83, 120
8, 315149, Note_on_c, 4, 83, 0
8, 315150, Note_on_c, 4, 86, 120
8, 315179, Note_on_c, 4, 86, 0
8, 315180, Note_on_c, 4, 83, 120
8, 315199, Note_on_c, 4, 83, 0
8, 315200, Note_on_c, 4, 81, 120
8, 315219, Note_on_c, 4, 81, 0
8, 315220, Note_on_c, 4, 79, 120
8, 315239, Note_on_c, 4, 79, 0
8, 315240, Note_on_c, 4, 81, 120
8, 315259, Note_on_c, 4, 81, 0
8, 315260, Note_on_c, 4, 79, 120
8, 315279, Note_on_c, 4, 79, 0
8, 315280, Note_on_c, 4, 78, 120
8, 315299, Note_on_c, 4, 78, 0
8, 315300, Note_on_c, 4, 79, 120
8, 315419, Note_on_c, 4, 79, 0
8, 315420, Note_on_c, 4, 91, 120
8, 315659, Note_on_c, 4, 91, 0
8, 321060, Note_on_c, 4, 86, 110
8, 321299, Note_on_c, 4, 86, 0
8, 321300, Note_on_c, 4, 81, 110
8, 321539, Note_on_c, 4, 81, 0
8, 321540, Note_on_c, 4, 78, 110
8, 321659, Note_on_c, 4, 78, 0
8, 321660, Note_on_c, 4, 78, 110
8, 321719, Note_on_c, 4, 78, 0
8, 321720, Note_on_c, 4, 76, 110
8, 321779, Note_on_c, 4, 76, 0
8, 321780, Note_on_c, 4, 79, 110
8, 321899, Note_on_c, 4, 79, 0
8, 321900, Note_on_c, 4, 78, 110
8, 321959, Note_on_c, 4, 78, 0
8, 321960, Note_on_c, 4, 76, 110
8, 322019, Note_on_c, 4, 76, 0
8, 322020, Note_on_c, 4, 78, 110
8, 322139, Note_on_c, 4, 78, 0
8, 322140, Note_on_c, 4, 78, 110
8, 322199, Note_on_c, 4, 78, 0
8, 322200, Note_on_c, 4, 76, 110
8, 322259, Note_on_c, 4, 76, 0
8, 322260, Note_on_c, 4, 79, 110
8, 322379, Note_on_c, 4, 79, 0
8, 322380, Note_on_c, 4, 78, 110
8, 322439, Note_on_c, 4, 78, 0
8, 322440, Note_on_c, 4, 76, 110
8, 322499, Note_on_c, 4, 76, 0
8, 322500, Note_on_c, 4, 86, 110
8, 322739, Note_on_c, 4, 86, 0
8, 322740, Note_on_c, 4, 81, 110
8, 322979, Note_on_c, 4, 81, 0
8, 322980, Note_on_c, 4, 81, 110
8, 323099, Note_on_c, 4, 81, 0
8, 323100, Note_on_c, 4, 81, 110
8, 323159, Note_on_c, 4, 81, 0
8, 323160, Note_on_c, 4, 79, 110
8, 323219, Note_on_c, 4, 79, 0
8, 323220, Note_on_c, 4, 83, 110
8, 323339, Note_on_c, 4, 83, 0
8, 323340, Note_on_c, 4, 81, 110
8, 323399, Note_on_c, 4, 81, 0
8, 323400, Note_on_c, 4, 79, 110
8, 323459, Note_on_c, 4, 79, 0
8, 323460, Note_on_c, 4, 81, 110
8, 323579, Note_on_c, 4, 81, 0
8, 323580, Note_on_c, 4, 81, 110
8, 323639, Note_on_c, 4, 81, 0
8, 323640, Note_on_c, 4, 79, 110
8, 323699, Note_on_c, 4, 79, 0
8, 323700, Note_on_c, 4, 83, 110
8, 323819, Note_on_c, 4, 83, 0
8, 323820, Note_on_c, 4, 81, 110
8, 323879, Note_on_c, 4, 81, 0
8, 323880, Note_on_c, 4, 79, 110
8, 323939, Note_on_c, 4, 79, 0
8, 323940, Note_on_c, 4, 86, 110
8, 324179, Note_on_c, 4, 86, 0
8, 324180, Note_on_c, 4, 81, 110
8, 324419, Note_on_c, 4, 81, 0
8, 324420, Note_on_c, 4, 78, 110
8, 324539, Note_on_c, 4, 78, 0
8, 324540, Note_on_c, 4, 74, 110
8, 324659, Note_on_c, 4, 74, 0
8, 324660, Note_on_c, 4, 81, 110
8, 324779, Note_on_c, 4, 81, 0
8, 324780, Note_on_c, 4, 78, 110
8, 324899, Note_on_c, 4, 78, 0
8, 324900, Note_on_c, 4, 86, 110
8, 325019, Note_on_c, 4, 86, 0
8, 325020, Note_on_c, 4, 81, 110
8, 325139, Note_on_c, 4, 81, 0
8, 325140, Note_on_c, 4, 78, 110
8, 325259, Note_on_c, 4, 78, 0
8, 325260, Note_on_c, 4, 74, 110
8, 325379, Note_on_c, 4, 74, 0
8, 325380, Note_on_c, 4, 81, 110
8, 325499, Note_on_c, 4, 81, 0
8, 325500, Note_on_c, 4, 81, 110
8, 325559, Note_on_c, 4, 81, 0
8, 325560, Note_on_c, 4, 79, 110
8, 325619, Note_on_c, 4, 79, 0
8, 325620, Note_on_c, 4, 83, 110
8, 325739, Note_on_c, 4, 83, 0
8, 325740, Note_on_c, 4, 81, 110
8, 325799, Note_on_c, 4, 81, 0
8, 325800, Note_on_c, 4, 79, 110
8, 325859, Note_on_c, 4, 79, 0
8, 325860, Note_on_c, 4, 81, 110
8, 325979, Note_on_c, 4, 81, 0
8, 325980, Note_on_c, 4, 79, 110
8, 326039, Note_on_c, 4, 79, 0
8, 326040, Note_on_c, 4, 78, 110
8, 326099, Note_on_c, 4, 78, 0
8, 326100, Note_on_c, 4, 76, 110
8, 326339, Note_on_c, 4, 76, 0
8, 326340, Note_on_c, 4, 88, 110
8, 326579, Note_on_c, 4, 88, 0
8, 326580, Note_on_c, 4, 85, 110
8, 326819, Note_on_c, 4, 85, 0
8, 326820, Note_on_c, 4, 81, 110
8, 326939, Note_on_c, 4, 81, 0
8, 326940, Note_on_c, 4, 81, 110
8, 326999, Note_on_c, 4, 81, 0
8, 327000, Note_on_c, 4, 80, 110
8, 327059, Note_on_c, 4, 80, 0
8, 327060, Note_on_c, 4, 83, 110
8, 327179, Note_on_c, 4, 83, 0
8, 327180, Note_on_c, 4, 81, 110
8, 327239, Note_on_c, 4, 81, 0
8, 327240, Note_on_c, 4, 80, 110
8, 327299, Note_on_c, 4, 80, 0
8, 327300, Note_on_c, 4, 81, 110
8, 327419, Note_on_c, 4, 81, 0
8, 327420, Note_on_c, 4, 81, 110
8, 327479, Note_on_c, 4, 81, 0
8, 327480, Note_on_c, 4, 80, 110
8, 327539, Note_on_c, 4, 80, 0
8, 327540, Note_on_c, 4, 83, 110
8, 327659, Note_on_c, 4, 83, 0
8, 327660, Note_on_c, 4, 81, 110
8, 327719, Note_on_c, 4, 81, 0
8, 327720, Note_on_c, 4, 80, 110
8, 327779, Note_on_c, 4, 80, 0
8, 327780, Note_on_c, 4, 85, 110
8, 328019, Note_on_c, 4, 85, 0
8, 328020, Note_on_c, 4, 81, 110
8, 328259, Note_on_c, 4, 81, 0
8, 328260, Note_on_c, 4, 85, 110
8, 328379, Note_on_c, 4, 85, 0
8, 328380, Note_on_c, 4, 85, 110
8, 328439, Note_on_c, 4, 85, 0
8, 328440, Note_on_c, 4, 83, 110
8, 328499, Note_on_c, 4, 83, 0
8, 328500, Note_on_c, 4, 86, 110
8, 328619, Note_on_c, 4, 86, 0
8, 328620, Note_on_c, 4, 85, 110
8, 328679, Note_on_c, 4, 85, 0
8, 328680, Note_on_c, 4, 83, 110
8, 328739, Note_on_c, 4, 83, 0
8, 328740, Note_on_c, 4, 85, 110
8, 328859, Note_on_c, 4, 85, 0
8, 328860, Note_on_c, 4, 85, 110
8, 328919, Note_on_c, 4, 85, 0
8, 328920, Note_on_c, 4, 83, 110
8, 328979, Note_on_c, 4, 83, 0
8, 328980, Note_on_c, 4, 86, 110
8, 329099, Note_on_c, 4, 86, 0
8, 329100, Note_on_c, 4, 85, 110
8, 329159, Note_on_c, 4, 85, 0
8, 329160, Note_on_c, 4, 83, 110
8, 329219, Note_on_c, 4, 83, 0
8, 329220, Note_on_c, 4, 81, 110
8, 329459, Note_on_c, 4, 81, 0
8, 329460, Note_on_c, 4, 76, 110
8, 329699, Note_on_c, 4, 76, 0
8, 329700, Note_on_c, 4, 73, 110
8, 329819, Note_on_c, 4, 73, 0
8, 329820, Note_on_c, 4, 69, 110
8, 329939, Note_on_c, 4, 69, 0
8, 329940, Note_on_c, 4, 76, 110
8, 330059, Note_on_c, 4, 76, 0
8, 330060, Note_on_c, 4, 73, 110
8, 330179, Note_on_c, 4, 73, 0
8, 330180, Note_on_c, 4, 79, 110
8, 330299, Note_on_c, 4, 79, 0
8, 330300, Note_on_c, 4, 76, 110
8, 330419, Note_on_c, 4, 76, 0
8, 330420, Note_on_c, 4, 73, 110
8, 330539, Note_on_c, 4, 73, 0
8, 330540, Note_on_c, 4, 69, 110
8, 330659, Note_on_c, 4, 69, 0
8, 330660, Note_on_c, 4, 74, 110
8, 330719, Note_on_c, 4, 74, 0
8, 330720, Note_on_c, 4, 76, 110
8, 330779, Note_on_c, 4, 76, 0
8, 330780, Note_on_c, 4, 78, 110
8, 330839, Note_on_c, 4, 78, 0
8, 330840, Note_on_c, 4, 79, 110
8, 330899, Note_on_c, 4, 79, 0
8, 330900, Note_on_c, 4, 81, 110
8, 331019, Note_on_c, 4, 81, 0
8, 331020, Note_on_c, 4, 83, 110
8, 331079, Note_on_c, 4, 83, 0
8, 331080, Note_on_c, 4, 81, 110
8, 331139, Note_on_c, 4, 81, 0
8, 331140, Note_on_c, 4, 79, 110
8, 331199, Note_on_c, 4, 79, 0
8, 331200, Note_on_c, 4, 78, 110
8, 331259, Note_on_c, 4, 78, 0
8, 331260, Note_on_c, 4, 76, 110
8, 331319, Note_on_c, 4, 76, 0
8, 331320, Note_on_c, 4, 78, 110
8, 331379, Note_on_c, 4, 78, 0
8, 331380, Note_on_c, 4, 74, 110
8, 331619, Note_on_c, 4, 74, 0
8, 333540, Note_on_c, 4, 81, 110
8, 333659, Note_on_c, 4, 81, 0
8, 333660, Note_on_c, 4, 81, 110
8, 333719, Note_on_c, 4, 81, 0
8, 333720, Note_on_c, 4, 79, 110
8, 333779, Note_on_c, 4, 79, 0
8, 333780, Note_on_c, 4, 83, 110
8, 333899, Note_on_c, 4, 83, 0
8, 333900, Note_on_c, 4, 81, 110
8, 333959, Note_on_c, 4, 81, 0
8, 333960, Note_on_c, 4, 79, 110
8, 334019, Note_on_c, 4, 79, 0
8, 334020, Note_on_c, 4, 81, 110
8, 334139, Note_on_c, 4, 81, 0
8, 334140, Note_on_c, 4, 81, 110
8, 334199, Note_on_c, 4, 81, 0
8, 334200, Note_on_c, 4, 79, 110
8, 334259, Note_on_c, 4, 79, 0
8, 334260, Note_on_c, 4, 83, 110
8, 334379, Note_on_c, 4, 83, 0
8, 334380, Note_on_c, 4, 81, 110
8, 334439, Note_on_c, 4, 81, 0
8, 334440, Note_on_c, 4, 79, 110
8, 334499, Note_on_c, 4, 79, 0
8, 334500, Note_on_c, 4, 86, 110
8, 334739, Note_on_c, 4, 86, 0
8, 334740, Note_on_c, 4, 81, 110
8, 334979, Note_on_c, 4, 81, 0
8, 334980, Note_on_c, 4, 78, 110
8, 335099, Note_on_c, 4, 78, 0
8, 335100, Note_on_c, 4, 74, 110
8, 335219, Note_on_c, 4, 74, 0
8, 335220, Note_on_c, 4, 81, 110
8, 335339, Note_on_c, 4, 81, 0
8, 335340, Note_on_c, 4, 78, 110
8, 335459, Note_on_c, 4, 78, 0
8, 335460, Note_on_c, 4, 86, 110
8, 335579, Note_on_c, 4, 86, 0
8, 335580, Note_on_c, 4, 81, 110
8, 335699, Note_on_c, 4, 81, 0
8, 335700, Note_on_c, 4, 78, 110
8, 335819, Note_on_c, 4, 78, 0
8, 335820, Note_on_c, 4, 74, 110
8, 335939, Note_on_c, 4, 74, 0
8, 335940, Note_on_c, 4, 81, 110
8, 336059, Note_on_c, 4, 81, 0
8, 336060, Note_on_c, 4, 81, 110
8, 336119, Note_on_c, 4, 81, 0
8, 336120, Note_on_c, 4, 79, 110
8, 336179, Note_on_c, 4, 79, 0
8, 336180, Note_on_c, 4, 83, 110
8, 336299, Note_on_c, 4, 83, 0
8, 336300, Note_on_c, 4, 81, 110
8, 336359, Note_on_c, 4, 81, 0
8, 336360, Note_on_c, 4, 79, 110
8, 336419, Note_on_c, 4, 79, 0
8, 336420, Note_on_c, 4, 81, 110
8, 336539, Note_on_c, 4, 81, 0
8, 336540, Note_on_c, 4, 79, 110
8, 336599, Note_on_c, 4, 79, 0
8, 336600, Note_on_c, 4, 78, 110
8, 336659, Note_on_c, 4, 78, 0
8, 336660, Note_on_c, 4, 76, 110
8, 336899, Note_on_c, 4, 76, 0
8, 337380, Note_on_c, 4, 81, 110
8, 337499, Note_on_c, 4, 81, 0
8, 337500, Note_on_c, 4, 81, 110
8, 337559, Note_on_c, 4, 81, 0
8, 337560, Note_on_c, 4, 80, 110
8, 337619, Note_on_c, 4, 80, 0
8, 337620, Note_on_c, 4, 83, 110
8, 337739, Note_on_c, 4, 83, 0
8, 337740, Note_on_c, 4, 81, 110
8, 337799, Note_on_c, 4, 81, 0
8, 337800, Note_on_c, 4, 80, 110
8, 337859, Note_on_c, 4, 80, 0
8, 337860, Note_on_c, 4, 81, 110
8, 337979, Note_on_c, 4, 81, 0
8, 337980, Note_on_c, 4, 81, 110
8, 338039, Note_on_c, 4, 81, 0
8, 338040, Note_on_c, 4, 80, 110
8, 338099, Note_on_c, 4, 80, 0
8, 338100, Note_on_c, 4, 83, 110
8, 338219, Note_on_c, 4, 83, 0
8, 338220, Note_on_c, 4, 81, 110
8, 338279, Note_on_c, 4, 81, 0
8, 338280, Note_on_c, 4, 80, 110
8, 338339, Note_on_c, 4, 80, 0
8, 338340, Note_on_c, 4, 81, 110
8, 338579, Note_on_c, 4, 81, 0
8, 338820, Note_on_c, 4, 85, 110
8, 338939, Note_on_c, 4, 85, 0
8, 338940, Note_on_c, 4, 85, 110
8, 338999, Note_on_c, 4, 85, 0
8, 339000, Note_on_c, 4, 83, 110
8, 339059, Note_on_c, 4, 83, 0
8, 339060, Note_on_c, 4, 86, 110
8, 339179, Note_on_c, 4, 86, 0
8, 339180, Note_on_c, 4, 85, 110
8, 339239, Note_on_c, 4, 85, 0
8, 339240, Note_on_c, 4, 83, 110
8, 339299, Note_on_c, 4, 83, 0
8, 339300, Note_on_c, 4, 85, 110
8, 339419, Note_on_c, 4, 85, 0
8, 339420, Note_on_c, 4, 85, 110
8, 339479, Note_on_c, 4, 85, 0
8, 339480, Note_on_c, 4, 83, 110
8, 339539, Note_on_c, 4, 83, 0
8, 339540, Note_on_c, 4, 86, 110
8, 339659, Note_on_c, 4, 86, 0
8, 339660, Note_on_c, 4, 85, 110
8, 339719, Note_on_c, 4, 85, 0
8, 339720, Note_on_c, 4, 83, 110
8, 339779, Note_on_c, 4, 83, 0
8, 339780, Note_on_c, 4, 81, 110
8, 340019, Note_on_c, 4, 81, 0
8, 340020, Note_on_c, 4, 76, 110
8, 340259, Note_on_c, 4, 76, 0
8, 340260, Note_on_c, 4, 73, 110
8, 340379, Note_on_c, 4, 73, 0
8, 340380, Note_on_c, 4, 69, 110
8, 340499, Note_on_c, 4, 69, 0
8, 340500, Note_on_c, 4, 76, 110
8, 340619, Note_on_c, 4, 76, 0
8, 340620, Note_on_c, 4, 73, 110
8, 340739, Note_on_c, 4, 73, 0
8, 340740, Note_on_c, 4, 79, 110
8, 340859, Note_on_c, 4, 79, 0
8, 340860, Note_on_c, 4, 76, 110
8, 340979, Note_on_c, 4, 76, 0
8, 340980, Note_on_c, 4, 73, 110
8, 341099, Note_on_c, 4, 73, 0
8, 341100, Note_on_c, 4, 69, 110
8, 341219, Note_on_c, 4, 69, 0
8, 341220, Note_on_c, 4, 74, 110
8, 341279, Note_on_c, 4, 74, 0
8, 341280, Note_on_c, 4, 76, 110
8, 341339, Note_on_c, 4, 76, 0
8, 341340, Note_on_c, 4, 78, 110
8, 341399, Note_on_c, 4, 78, 0
8, 341400, Note_on_c, 4, 79, 110
8, 341459, Note_on_c, 4, 79, 0
8, 341460, Note_on_c, 4, 81, 110
8, 341579, Note_on_c, 4, 81, 0
8, 341580, Note_on_c, 4, 83, 110
8, 341639, Note_on_c, 4, 83, 0
8, 341640, Note_on_c, 4, 81, 110
8, 341699, Note_on_c, 4, 81, 0
8, 341700, Note_on_c, 4, 79, 110
8, 341759, Note_on_c, 4, 79, 0
8, 341760, Note_on_c, 4, 78, 110
8, 341819, Note_on_c, 4, 78, 0
8, 341820, Note_on_c, 4, 76, 110
8, 341879, Note_on_c, 4, 76, 0
8, 341880, Note_on_c, 4, 78, 110
8, 341939, Note_on_c, 4, 78, 0
8, 341940, Note_on_c, 4, 74, 110
8, 342179, Note_on_c, 4, 74, 0
8, 343140, Note_on_c, 4, 83, 110
8, 343379, Note_on_c, 4, 83, 0
8, 343380, Note_on_c, 4, 78, 110
8, 343619, Note_on_c, 4, 78, 0
8, 344580, Note_on_c, 4, 81, 110
8, 344820, Note_on_c, 4, 81, 0
8, 344820, Note_on_c, 4, 76, 110
8, 345060, Note_on_c, 4, 76, 0
8, 346020, Note_on_c, 4, 81, 110
8, 346260, Note_on_c, 4, 81, 0
8, 346260, Note_on_c, 4, 76, 110
8, 346620, Note_on_c, 4, 76, 0
8, 346620, Note_on_c, 4, 78, 110
8, 346739, Note_on_c, 4, 78, 0
8, 346740, Note_on_c, 4, 76, 110
8, 346859, Note_on_c, 4, 76, 0
8, 346860, Note_on_c, 4, 74, 110
8, 346979, Note_on_c, 4, 74, 0
8, 346980, Note_on_c, 4, 73, 110
8, 347219, Note_on_c, 4, 73, 0
8, 347220, Note_on_c, 4, 71, 110
8, 347279, Note_on_c, 4, 71, 0
8, 347280, Note_on_c, 4, 69, 110
8, 347339, Note_on_c, 4, 69, 0
8, 347340, Note_on_c, 4, 71, 110
8, 347459, Note_on_c, 4, 71, 0
8, 347460, Note_on_c, 4, 69, 110
8, 347699, Note_on_c, 4, 69, 0
8, 347940, Note_on_c, 4, 86, 110
8, 348179, Note_on_c, 4, 86, 0
8, 348180, Note_on_c, 4, 81, 110
8, 348419, Note_on_c, 4, 81, 0
8, 349380, Note_on_c, 4, 86, 110
8, 349619, Note_on_c, 4, 86, 0
8, 349620, Note_on_c, 4, 81, 110
8, 349859, Note_on_c, 4, 81, 0
8, 350820, Note_on_c, 4, 86, 110
8, 351059, Note_on_c, 4, 86, 0
8, 351060, Note_on_c, 4, 81, 110
8, 351299, Note_on_c, 4, 81, 0
8, 351300, Note_on_c, 4, 78, 110
8, 351419, Note_on_c, 4, 78, 0
8, 351420, Note_on_c, 4, 74, 110
8, 351539, Note_on_c, 4, 74, 0
8, 351540, Note_on_c, 4, 81, 110
8, 351659, Note_on_c, 4, 81, 0
8, 351660, Note_on_c, 4, 78, 110
8, 351779, Note_on_c, 4, 78, 0
8, 351780, Note_on_c, 4, 86, 110
8, 351899, Note_on_c, 4, 86, 0
8, 351900, Note_on_c, 4, 81, 110
8, 352019, Note_on_c, 4, 81, 0
8, 352020, Note_on_c, 4, 78, 110
8, 352139, Note_on_c, 4, 78, 0
8, 352140, Note_on_c, 4, 74, 110
8, 352259, Note_on_c, 4, 74, 0
8, 352260, Note_on_c, 4, 81, 110
8, 352379, Note_on_c, 4, 81, 0
8, 352380, Note_on_c, 4, 81, 110
8, 352439, Note_on_c, 4, 81, 0
8, 352440, Note_on_c, 4, 79, 110
8, 352499, Note_on_c, 4, 79, 0
8, 352500, Note_on_c, 4, 83, 110
8, 352619, Note_on_c, 4, 83, 0
8, 352620, Note_on_c, 4, 81, 110
8, 352679, Note_on_c, 4, 81, 0
8, 352680, Note_on_c, 4, 79, 110
8, 352739, Note_on_c, 4, 79, 0
8, 352740, Note_on_c, 4, 81, 110
8, 352859, Note_on_c, 4, 81, 0
8, 352860, Note_on_c, 4, 79, 110
8, 352919, Note_on_c, 4, 79, 0
8, 352920, Note_on_c, 4, 78, 110
8, 352979, Note_on_c, 4, 78, 0
8, 352980, Note_on_c, 4, 76, 110
8, 353219, Note_on_c, 4, 76, 0
8, 353220, Note_on_c, 4, 88, 110
8, 353459, Note_on_c, 4, 88, 0
8, 353460, Note_on_c, 4, 85, 110
8, 353699, Note_on_c, 4, 85, 0
8, 353700, Note_on_c, 4, 76, 110
8, 353819, Note_on_c, 4, 76, 0
8, 353820, Note_on_c, 4, 76, 110
8, 353939, Note_on_c, 4, 76, 0
8, 353940, Note_on_c, 4, 76, 110
8, 354059, Note_on_c, 4, 76, 0
8, 354060, Note_on_c, 4, 76, 110
8, 354179, Note_on_c, 4, 76, 0
8, 354180, Note_on_c, 4, 76, 110
8, 354299, Note_on_c, 4, 76, 0
8, 354300, Note_on_c, 4, 76, 110
8, 354419, Note_on_c, 4, 76, 0
8, 354420, Note_on_c, 4, 76, 110
8, 354539, Note_on_c, 4, 76, 0
8, 354540, Note_on_c, 4, 76, 110
8, 354659, Note_on_c, 4, 76, 0
8, 354660, Note_on_c, 4, 88, 110
8, 354899, Note_on_c, 4, 88, 0
8, 354900, Note_on_c, 4, 85, 110
8, 355139, Note_on_c, 4, 85, 0
8, 356100, Note_on_c, 4, 88, 110
8, 356339, Note_on_c, 4, 88, 0
8, 356340, Note_on_c, 4, 85, 110
8, 356579, Note_on_c, 4, 85, 0
8, 356580, Note_on_c, 4, 85, 110
8, 356699, Note_on_c, 4, 85, 0
8, 356700, Note_on_c, 4, 81, 110
8, 356819, Note_on_c, 4, 81, 0
8, 356820, Note_on_c, 4, 88, 110
8, 356939, Note_on_c, 4, 88, 0
8, 356940, Note_on_c, 4, 85, 110
8, 357059, Note_on_c, 4, 85, 0
8, 357060, Note_on_c, 4, 91, 110
8, 357179, Note_on_c, 4, 91, 0
8, 357180, Note_on_c, 4, 88, 110
8, 357299, Note_on_c, 4, 88, 0
8, 357300, Note_on_c, 4, 85, 110
8, 357419, Note_on_c, 4, 85, 0
8, 357420, Note_on_c, 4, 81, 110
8, 357539, Note_on_c, 4, 81, 0
8, 357540, Note_on_c, 4, 74, 110
8, 357599, Note_on_c, 4, 74, 0
8, 357600, Note_on_c, 4, 76, 110
8, 357659, Note_on_c, 4, 76, 0
8, 357660, Note_on_c, 4, 78, 110
8, 357719, Note_on_c, 4, 78, 0
8, 357720, Note_on_c, 4, 79, 110
8, 357779, Note_on_c, 4, 79, 0
8, 357780, Note_on_c, 4, 81, 110
8, 357899, Note_on_c, 4, 81, 0
8, 357900, Note_on_c, 4, 83, 110
8, 357959, Note_on_c, 4, 83, 0
8, 357960, Note_on_c, 4, 81, 110
8, 358019, Note_on_c, 4, 81, 0
8, 358020, Note_on_c, 4, 79, 110
8, 358079, Note_on_c, 4, 79, 0
8, 358080, Note_on_c, 4, 78, 110
8, 358139, Note_on_c, 4, 78, 0
8, 358140, Note_on_c, 4, 76, 110
8, 358199, Note_on_c, 4, 76, 0
8, 358200, Note_on_c, 4, 78, 110
8, 358259, Note_on_c, 4, 78, 0
8, 358260, Note_on_c, 4, 74, 110
8, 358499, Note_on_c, 4, 74, 0
8, 358500, Note_on_c, 4, 81, 110
8, 358619, Note_on_c, 4, 81, 0
8, 358620, Note_on_c, 4, 83, 110
8, 358679, Note_on_c, 4, 83, 0
8, 358680, Note_on_c, 4, 85, 110
8, 358739, Note_on_c, 4, 85, 0
8, 358740, Note_on_c, 4, 86, 110
8, 358979, Note_on_c, 4, 86, 0
8, 359460, Note_on_c, 4, 88, 110
8, 359699, Note_on_c, 4, 88, 0
8, 359700, Note_on_c, 4, 85, 110
8, 359939, Note_on_c, 4, 85, 0
8, 360900, Note_on_c, 4, 90, 110
8, 361139, Note_on_c, 4, 90, 0
8, 361140, Note_on_c, 4, 85, 110
8, 361379, Note_on_c, 4, 85, 0
8, 362340, Note_on_c, 4, 85, 110
8, 362579, Note_on_c, 4, 85, 0
8, 362580, Note_on_c, 4, 81, 110
8, 362939, Note_on_c, 4, 81, 0
8, 362940, Note_on_c, 4, 83, 110
8, 362999, Note_on_c, 4, 83, 0
8, 363000, Note_on_c, 4, 81, 110
8, 363059, Note_on_c, 4, 81, 0
8, 363060, Note_on_c, 4, 80, 110
8, 363179, Note_on_c, 4, 80, 0
8, 363180, Note_on_c, 4, 78, 110
8, 363299, Note_on_c, 4, 78, 0
8, 363300, Note_on_c, 4, 78, 110
8, 363539, Note_on_c, 4, 78, 0
8, 363540, Note_on_c, 4, 77, 110
8, 363779, Note_on_c, 4, 77, 0
8, 363780, Note_on_c, 4, 78, 110
8, 364019, Note_on_c, 4, 78, 0
8, 364260, Note_on_c, 4, 86, 110
8, 364499, Note_on_c, 4, 86, 0
8, 364500, Note_on_c, 4, 81, 110
8, 364739, Note_on_c, 4, 81, 0
8, 364740, Note_on_c, 4, 78, 110
8, 364859, Note_on_c, 4, 78, 0
8, 364860, Note_on_c, 4, 78, 110
8, 364919, Note_on_c, 4, 78, 0
8, 364920, Note_on_c, 4, 76, 110
8, 364979, Note_on_c, 4, 76, 0
8, 364980, Note_on_c, 4, 79, 110
8, 365099, Note_on_c, 4, 79, 0
8, 365100, Note_on_c, 4, 78, 110
8, 365159, Note_on_c, 4, 78, 0
8, 365160, Note_on_c, 4, 76, 110
8, 365219, Note_on_c, 4, 76, 0
8, 365220, Note_on_c, 4, 78, 110
8, 365339, Note_on_c, 4, 78, 0
8, 365340, Note_on_c, 4, 78, 110
8, 365399, Note_on_c, 4, 78, 0
8, 365400, Note_on_c, 4, 76, 110
8, 365459, Note_on_c, 4, 76, 0
8, 365460, Note_on_c, 4, 79, 110
8, 365579, Note_on_c, 4, 79, 0
8, 365580, Note_on_c, 4, 78, 110
8, 365639, Note_on_c, 4, 78, 0
8, 365640, Note_on_c, 4, 76, 110
8, 365699, Note_on_c, 4, 76, 0
8, 365700, Note_on_c, 4, 86, 110
8, 365939, Note_on_c, 4, 86, 0
8, 365940, Note_on_c, 4, 81, 110
8, 366179, Note_on_c, 4, 81, 0
8, 366180, Note_on_c, 4, 81, 110
8, 366299, Note_on_c, 4, 81, 0
8, 366300, Note_on_c, 4, 81, 110
8, 366359, Note_on_c, 4, 81, 0
8, 366360, Note_on_c, 4, 79, 110
8, 366419, Note_on_c, 4, 79, 0
8, 366420, Note_on_c, 4, 83, 110
8, 366539, Note_on_c, 4, 83, 0
8, 366540, Note_on_c, 4, 81, 110
8, 366599, Note_on_c, 4, 81, 0
8, 366600, Note_on_c, 4, 79, 110
8, 366659, Note_on_c, 4, 79, 0
8, 366660, Note_on_c, 4, 81, 110
8, 366779, Note_on_c, 4, 81, 0
8, 366780, Note_on_c, 4, 81, 110
8, 366839, Note_on_c, 4, 81, 0
8, 366840, Note_on_c, 4, 79, 110
8, 366899, Note_on_c, 4, 79, 0
8, 366900, Note_on_c, 4, 83, 110
8, 367019, Note_on_c, 4, 83, 0
8, 367020, Note_on_c, 4, 81, 110
8, 367079, Note_on_c, 4, 81, 0
8, 367080, Note_on_c, 4, 79, 110
8, 367139, Note_on_c, 4, 79, 0
8, 367140, Note_on_c, 4, 86, 110
8, 367379, Note_on_c, 4, 86, 0
8, 367380, Note_on_c, 4, 81, 110
8, 367619, Note_on_c, 4, 81, 0
8, 367620, Note_on_c, 4, 78, 110
8, 367739, Note_on_c, 4, 78, 0
8, 367740, Note_on_c, 4, 74, 110
8, 367859, Note_on_c, 4, 74, 0
8, 367860, Note_on_c, 4, 81, 110
8, 367979, Note_on_c, 4, 81, 0
8, 367980, Note_on_c, 4, 78, 110
8, 368099, Note_on_c, 4, 78, 0
8, 368100, Note_on_c, 4, 86, 110
8, 368219, Note_on_c, 4, 86, 0
8, 368220, Note_on_c, 4, 81, 110
8, 368339, Note_on_c, 4, 81, 0
8, 368340, Note_on_c, 4, 78, 110
8, 368459, Note_on_c, 4, 78, 0
8, 368460, Note_on_c, 4, 74, 110
8, 368579, Note_on_c, 4, 74, 0
8, 368580, Note_on_c, 4, 81, 110
8, 368699, Note_on_c, 4, 81, 0
8, 368700, Note_on_c, 4, 81, 110
8, 368759, Note_on_c, 4, 81, 0
8, 368760, Note_on_c, 4, 79, 110
8, 368819, Note_on_c, 4, 79, 0
8, 368820, Note_on_c, 4, 83, 110
8, 368939, Note_on_c, 4, 83, 0
8, 368940, Note_on_c, 4, 81, 110
8, 368999, Note_on_c, 4, 81, 0
8, 369000, Note_on_c, 4, 79, 110
8, 369059, Note_on_c, 4, 79, 0
8, 369060, Note_on_c, 4, 81, 110
8, 369179, Note_on_c, 4, 81, 0
8, 369180, Note_on_c, 4, 79, 110
8, 369239, Note_on_c, 4, 79, 0
8, 369240, Note_on_c, 4, 78, 110
8, 369299, Note_on_c, 4, 78, 0
8, 369300, Note_on_c, 4, 76, 110
8, 369539, Note_on_c, 4, 76, 0
8, 369540, Note_on_c, 4, 88, 110
8, 369779, Note_on_c, 4, 88, 0
8, 369780, Note_on_c, 4, 85, 110
8, 370019, Note_on_c, 4, 85, 0
8, 370020, Note_on_c, 4, 81, 110
8, 370139, Note_on_c, 4, 81, 0
8, 370140, Note_on_c, 4, 81, 110
8, 370199, Note_on_c, 4, 81, 0
8, 370200, Note_on_c, 4, 80, 110
8, 370259, Note_on_c, 4, 80, 0
8, 370260, Note_on_c, 4, 83, 110
8, 370379, Note_on_c, 4, 83, 0
8, 370380, Note_on_c, 4, 81, 110
8, 370439, Note_on_c, 4, 81, 0
8, 370440, Note_on_c, 4, 80, 110
8, 370499, Note_on_c, 4, 80, 0
8, 370500, Note_on_c, 4, 81, 110
8, 370619, Note_on_c, 4, 81, 0
8, 370620, Note_on_c, 4, 81, 110
8, 370679, Note_on_c, 4, 81, 0
8, 370680, Note_on_c, 4, 80, 110
8, 370739, Note_on_c, 4, 80, 0
8, 370740, Note_on_c, 4, 83, 110
8, 370859, Note_on_c, 4, 83, 0
8, 370860, Note_on_c, 4, 81, 110
8, 370919, Note_on_c, 4, 81, 0
8, 370920, Note_on_c, 4, 80, 110
8, 370979, Note_on_c, 4, 80, 0
8, 370980, Note_on_c, 4, 85, 110
8, 371219, Note_on_c, 4, 85, 0
8, 371220, Note_on_c, 4, 81, 110
8, 371459, Note_on_c, 4, 81, 0
8, 371460, Note_on_c, 4, 85, 110
8, 371579, Note_on_c, 4, 85, 0
8, 371580, Note_on_c, 4, 85, 110
8, 371639, Note_on_c, 4, 85, 0
8, 371640, Note_on_c, 4, 83, 110
8, 371699, Note_on_c, 4, 83, 0
8, 371700, Note_on_c, 4, 86, 110
8, 371819, Note_on_c, 4, 86, 0
8, 371820, Note_on_c, 4, 85, 110
8, 371879, Note_on_c, 4, 85, 0
8, 371880, Note_on_c, 4, 83, 110
8, 371939, Note_on_c, 4, 83, 0
8, 371940, Note_on_c, 4, 85, 110
8, 372059, Note_on_c, 4, 85, 0
8, 372060, Note_on_c, 4, 85, 110
8, 372119, Note_on_c, 4, 85, 0
8, 372120, Note_on_c, 4, 83, 110
8, 372179, Note_on_c, 4, 83, 0
8, 372180, Note_on_c, 4, 86, 110
8, 372299, Note_on_c, 4, 86, 0
8, 372300, Note_on_c, 4, 85, 110
8, 372359, Note_on_c, 4, 85, 0
8, 372360, Note_on_c, 4, 83, 110
8, 372419, Note_on_c, 4, 83, 0
8, 372420, Note_on_c, 4, 81, 110
8, 372659, Note_on_c, 4, 81, 0
8, 372660, Note_on_c, 4, 76, 110
8, 372899, Note_on_c, 4, 76, 0
8, 372900, Note_on_c, 4, 73, 110
8, 373019, Note_on_c, 4, 73, 0
8, 373020, Note_on_c, 4, 69, 110
8, 373139, Note_on_c, 4, 69, 0
8, 373140, Note_on_c, 4, 76, 110
8, 373259, Note_on_c, 4, 76, 0
8, 373260, Note_on_c, 4, 73, 110
8, 373379, Note_on_c, 4, 73, 0
8, 373380, Note_on_c, 4, 79, 110
8, 373499, Note_on_c, 4, 79, 0
8, 373500, Note_on_c, 4, 76, 110
8, 373619, Note_on_c, 4, 76, 0
8, 373620, Note_on_c, 4, 73, 110
8, 373739, Note_on_c, 4, 73, 0
8, 373740, Note_on_c, 4, 69, 110
8, 373859, Note_on_c, 4, 69, 0
8, 373860, Note_on_c, 4, 74, 110
8, 373919, Note_on_c, 4, 74, 0
8, 373920, Note_on_c, 4, 76, 110
8, 373979, Note_on_c, 4, 76, 0
8, 373980, Note_on_c, 4, 78, 110
8, 374039, Note_on_c, 4, 78, 0
8, 374040, Note_on_c, 4, 79, 110
8, 374099, Note_on_c, 4, 79, 0
8, 374100, Note_on_c, 4, 81, 110
8, 374219, Note_on_c, 4, 81, 0
8, 374220, Note_on_c, 4, 83, 110
8, 374279, Note_on_c, 4, 83, 0
8, 374280, Note_on_c, 4, 81, 110
8, 374339, Note_on_c, 4, 81, 0
8, 374340, Note_on_c, 4, 79, 110
8, 374399, Note_on_c, 4, 79, 0
8, 374400, Note_on_c, 4, 78, 110
8, 374459, Note_on_c, 4, 78, 0
8, 374460, Note_on_c, 4, 76, 110
8, 374519, Note_on_c, 4, 76, 0
8, 374520, Note_on_c, 4, 78, 110
8, 374579, Note_on_c, 4, 78, 0
8, 374580, Note_on_c, 4, 74, 110
8, 374819, Note_on_c, 4, 74, 0
8, 376740, Note_on_c, 4, 81, 110
8, 376859, Note_on_c, 4, 81, 0
8, 376860, Note_on_c, 4, 81, 110
8, 376919, Note_on_c, 4, 81, 0
8, 376920, Note_on_c, 4, 79, 110
8, 376979, Note_on_c, 4, 79, 0
8, 376980, Note_on_c, 4, 83, 110
8, 377099, Note_on_c, 4, 83, 0
8, 377100, Note_on_c, 4, 81, 110
8, 377159, Note_on_c, 4, 81, 0
8, 377160, Note_on_c, 4, 79, 110
8, 377219, Note_on_c, 4, 79, 0
8, 377220, Note_on_c, 4, 81, 110
8, 377339, Note_on_c, 4, 81, 0
8, 377340, Note_on_c, 4, 81, 110
8, 377399, Note_on_c, 4, 81, 0
8, 377400, Note_on_c, 4, 79, 110
8, 377459, Note_on_c, 4, 79, 0
8, 377460, Note_on_c, 4, 83, 110
8, 377579, Note_on_c, 4, 83, 0
8, 377580, Note_on_c, 4, 81, 110
8, 377639, Note_on_c, 4, 81, 0
8, 377640, Note_on_c, 4, 79, 110
8, 377699, Note_on_c, 4, 79, 0
8, 377700, Note_on_c, 4, 86, 110
8, 377939, Note_on_c, 4, 86, 0
8, 377940, Note_on_c, 4, 81, 110
8, 378179, Note_on_c, 4, 81, 0
8, 378180, Note_on_c, 4, 78, 110
8, 378299, Note_on_c, 4, 78, 0
8, 378300, Note_on_c, 4, 74, 110
8, 378419, Note_on_c, 4, 74, 0
8, 378420, Note_on_c, 4, 81, 110
8, 378539, Note_on_c, 4, 81, 0
8, 378540, Note_on_c, 4, 78, 110
8, 378659, Note_on_c, 4, 78, 0
8, 378660, Note_on_c, 4, 86, 110
8, 378779, Note_on_c, 4, 86, 0
8, 378780, Note_on_c, 4, 81, 110
8, 378899, Note_on_c, 4, 81, 0
8, 378900, Note_on_c, 4, 78, 110
8, 379019, Note_on_c, 4, 78, 0
8, 379020, Note_on_c, 4, 74, 110
8, 379139, Note_on_c, 4, 74, 0
8, 379140, Note_on_c, 4, 81, 110
8, 379259, Note_on_c, 4, 81, 0
8, 379260, Note_on_c, 4, 81, 110
8, 379319, Note_on_c, 4, 81, 0
8, 379320, Note_on_c, 4, 79, 110
8, 379379, Note_on_c, 4, 79, 0
8, 379380, Note_on_c, 4, 83, 110
8, 379499, Note_on_c, 4, 83, 0
8, 379500, Note_on_c, 4, 81, 110
8, 379559, Note_on_c, 4, 81, 0
8, 379560, Note_on_c, 4, 79, 110
8, 379619, Note_on_c, 4, 79, 0
8, 379620, Note_on_c, 4, 81, 110
8, 379739, Note_on_c, 4, 81, 0
8, 379740, Note_on_c, 4, 79, 110
8, 379799, Note_on_c, 4, 79, 0
8, 379800, Note_on_c, 4, 78, 110
8, 379859, Note_on_c, 4, 78, 0
8, 379860, Note_on_c, 4, 76, 110
8, 380099, Note_on_c, 4, 76, 0
8, 380580, Note_on_c, 4, 81, 110
8, 380699, Note_on_c, 4, 81, 0
8, 380700, Note_on_c, 4, 81, 110
8, 380759, Note_on_c, 4, 81, 0
8, 380760, Note_on_c, 4, 80, 110
8, 380819, Note_on_c, 4, 80, 0
8, 380820, Note_on_c, 4, 83, 110
8, 380939, Note_on_c, 4, 83, 0
8, 380940, Note_on_c, 4, 81, 110
8, 380999, Note_on_c, 4, 81, 0
8, 381000, Note_on_c, 4, 80, 110
8, 381059, Note_on_c, 4, 80, 0
8, 381060, Note_on_c, 4, 81, 110
8, 381179, Note_on_c, 4, 81, 0
8, 381180, Note_on_c, 4, 81, 110
8, 381239, Note_on_c, 4, 81, 0
8, 381240, Note_on_c, 4, 80, 110
8, 381299, Note_on_c, 4, 80, 0
8, 381300, Note_on_c, 4, 83, 110
8, 381419, Note_on_c, 4, 83, 0
8, 381420, Note_on_c, 4, 81, 110
8, 381479, Note_on_c, 4, 81, 0
8, 381480, Note_on_c, 4, 80, 110
8, 381539, Note_on_c, 4, 80, 0
8, 381540, Note_on_c, 4, 81, 110
8, 381779, Note_on_c, 4, 81, 0
8, 382020, Note_on_c, 4, 85, 110
8, 382139, Note_on_c, 4, 85, 0
8, 382140, Note_on_c, 4, 85, 110
8, 382199, Note_on_c, 4, 85, 0
8, 382200, Note_on_c, 4, 83, 110
8, 382259, Note_on_c, 4, 83, 0
8, 382260, Note_on_c, 4, 86, 110
8, 382379, Note_on_c, 4, 86, 0
8, 382380, Note_on_c, 4, 85, 110
8, 382439, Note_on_c, 4, 85, 0
8, 382440, Note_on_c, 4, 83, 110
8, 382499, Note_on_c, 4, 83, 0
8, 382500, Note_on_c, 4, 85, 110
8, 382619, Note_on_c, 4, 85, 0
8, 382620, Note_on_c, 4, 85, 110
8, 382679, Note_on_c, 4, 85, 0
8, 382680, Note_on_c, 4, 83, 110
8, 382739, Note_on_c, 4, 83, 0
8, 382740, Note_on_c, 4, 86, 110
8, 382859, Note_on_c, 4, 86, 0
8, 382860, Note_on_c, 4, 85, 110
8, 382919, Note_on_c, 4, 85, 0
8, 382920, Note_on_c, 4, 83, 110
8, 382979, Note_on_c, 4, 83, 0
8, 382980, Note_on_c, 4, 81, 110
8, 383219, Note_on_c, 4, 81, 0
8, 383220, Note_on_c, 4, 76, 110
8, 383459, Note_on_c, 4, 76, 0
8, 383460, Note_on_c, 4, 73, 110
8, 383579, Note_on_c, 4, 73, 0
8, 383580, Note_on_c, 4, 69, 110
8, 383699, Note_on_c, 4, 69, 0
8, 383700, Note_on_c, 4, 76, 110
8, 383819, Note_on_c, 4, 76, 0
8, 383820, Note_on_c, 4, 73, 110
8, 383939, Note_on_c, 4, 73, 0
8, 383940, Note_on_c, 4, 79, 110
8, 384059, Note_on_c, 4, 79, 0
8, 384060, Note_on_c, 4, 76, 110
8, 384179, Note_on_c, 4, 76, 0
8, 384180, Note_on_c, 4, 73, 110
8, 384299, Note_on_c, 4, 73, 0
8, 384300, Note_on_c, 4, 69, 110
8, 384419, Note_on_c, 4, 69, 0
8, 384420, Note_on_c, 4, 74, 110
8, 384479, Note_on_c, 4, 74, 0
8, 384480, Note_on_c, 4, 76, 110
8, 384539, Note_on_c, 4, 76, 0
8, 384540, Note_on_c, 4, 78, 110
8, 384599, Note_on_c, 4, 78, 0
8, 384600, Note_on_c, 4, 79, 110
8, 384659, Note_on_c, 4, 79, 0
8, 384660, Note_on_c, 4, 81, 110
8, 384779, Note_on_c, 4, 81, 0
8, 384780, Note_on_c, 4, 83, 110
8, 384839, Note_on_c, 4, 83, 0
8, 384840, Note_on_c, 4, 81, 110
8, 384899, Note_on_c, 4, 81, 0
8, 384900, Note_on_c, 4, 79, 110
8, 384959, Note_on_c, 4, 79, 0
8, 384960, Note_on_c, 4, 78, 110
8, 385019, Note_on_c, 4, 78, 0
8, 385020, Note_on_c, 4, 76, 110
8, 385079, Note_on_c, 4, 76, 0
8, 385080, Note_on_c, 4, 78, 110
8, 385139, Note_on_c, 4, 78, 0
8, 385140, Note_on_c, 4, 74, 110
8, 385379, Note_on_c, 4, 74, 0
8, 385379, End_track
9, 0, Start_track
9, 0, MIDI_port, 0
9, 0, Title_t, "flauta ii"
9, 0, Program_c, 5, 73
9, 390, Note_on_c, 5, 74, 100
9, 420, Note_on_c, 5, 74, 0
9, 420, Note_on_c, 5, 76, 100
9, 450, Note_on_c, 5, 76, 0
9, 450, Note_on_c, 5, 78, 100
9, 480, Note_on_c, 5, 78, 0
9, 480, Note_on_c, 5, 79, 100
9, 510, Note_on_c, 5, 79, 0
9, 510, Note_on_c, 5, 81, 100
9, 540, Note_on_c, 5, 81, 0
9, 540, Note_on_c, 5, 83, 100
9, 570, Note_on_c, 5, 83, 0
9, 570, Note_on_c, 5, 85, 100
9, 600, Note_on_c, 5, 85, 0
9, 600, Note_on_c, 5, 86, 100
9, 630, Note_on_c, 5, 86, 0
9, 630, Note_on_c, 5, 85, 100
9, 660, Note_on_c, 5, 85, 0
9, 660, Note_on_c, 5, 86, 100
9, 690, Note_on_c, 5, 86, 0
9, 690, Note_on_c, 5, 85, 100
9, 720, Note_on_c, 5, 85, 0
9, 720, Note_on_c, 5, 86, 100
9, 750, Note_on_c, 5, 86, 0
9, 1080, Note_on_c, 5, 62, 100
9, 1140, Note_on_c, 5, 62, 0
9, 1200, Note_on_c, 5, 78, 100
9, 1260, Note_on_c, 5, 78, 0
9, 1260, Note_on_c, 5, 74, 100
9, 1320, Note_on_c, 5, 74, 0
9, 1830, Note_on_c, 5, 74, 100
9, 1859, Note_on_c, 5, 74, 0
9, 1860, Note_on_c, 5, 76, 100
9, 1889, Note_on_c, 5, 76, 0
9, 1890, Note_on_c, 5, 78, 100
9, 1919, Note_on_c, 5, 78, 0
9, 1920, Note_on_c, 5, 79, 100
9, 1949, Note_on_c, 5, 79, 0
9, 1950, Note_on_c, 5, 81, 100
9, 1979, Note_on_c, 5, 81, 0
9, 1980, Note_on_c, 5, 83, 100
9, 2009, Note_on_c, 5, 83, 0
9, 2010, Note_on_c, 5, 85, 100
9, 2039, Note_on_c, 5, 85, 0
9, 2040, Note_on_c, 5, 86, 100
9, 2069, Note_on_c, 5, 86, 0
9, 2070, Note_on_c, 5, 85, 100
9, 2099, Note_on_c, 5, 85, 0
9, 2100, Note_on_c, 5, 86, 100
9, 2129, Note_on_c, 5, 86, 0
9, 2130, Note_on_c, 5, 85, 100
9, 2159, Note_on_c, 5, 85, 0
9, 2160, Note_on_c, 5, 83, 100
9, 2189, Note_on_c, 5, 83, 0
9, 2190, Note_on_c, 5, 81, 100
9, 2219, Note_on_c, 5, 81, 0
9, 2220, Note_on_c, 5, 83, 100
9, 2249, Note_on_c, 5, 83, 0
9, 2250, Note_on_c, 5, 81, 100
9, 2279, Note_on_c, 5, 81, 0
9, 2280, Note_on_c, 5, 80, 100
9, 2309, Note_on_c, 5, 80, 0
9, 2310, Note_on_c, 5, 78, 100
9, 2339, Note_on_c, 5, 78, 0
9, 2340, Note_on_c, 5, 80, 100
9, 2369, Note_on_c, 5, 80, 0
9, 2370, Note_on_c, 5, 78, 100
9, 2399, Note_on_c, 5, 78, 0
9, 2400, Note_on_c, 5, 76, 100
9, 2429, Note_on_c, 5, 76, 0
9, 2430, Note_on_c, 5, 74, 100
9, 2459, Note_on_c, 5, 74, 0
9, 2460, Note_on_c, 5, 76, 100
9, 2489, Note_on_c, 5, 76, 0
9, 2490, Note_on_c, 5, 74, 100
9, 2519, Note_on_c, 5, 74, 0
9, 2520, Note_on_c, 5, 73, 100
9, 2549, Note_on_c, 5, 73, 0
9, 2550, Note_on_c, 5, 76, 100
9, 2579, Note_on_c, 5, 76, 0
9, 2580, Note_on_c, 5, 81, 100
9, 2609, Note_on_c, 5, 81, 0
9, 2610, Note_on_c, 5, 83, 100
9, 2639, Note_on_c, 5, 83, 0
9, 2640, Note_on_c, 5, 85, 100
9, 2669, Note_on_c, 5, 85, 0
9, 2670, Note_on_c, 5, 83, 100
9, 2699, Note_on_c, 5, 83, 0
9, 2700, Note_on_c, 5, 81, 100
9, 2729, Note_on_c, 5, 81, 0
9, 2730, Note_on_c, 5, 83, 100
9, 2759, Note_on_c, 5, 83, 0
9, 2760, Note_on_c, 5, 83, 100
9, 2849, Note_on_c, 5, 83, 0
9, 2850, Note_on_c, 5, 81, 100
9, 2879, Note_on_c, 5, 81, 0
9, 2880, Note_on_c, 5, 81, 100
9, 2939, Note_on_c, 5, 81, 0
9, 2940, Note_on_c, 5, 73, 100
9, 2999, Note_on_c, 5, 73, 0
9, 3000, Note_on_c, 5, 73, 100
9, 3059, Note_on_c, 5, 73, 0
9, 3060, Note_on_c, 5, 73, 100
9, 3119, Note_on_c, 5, 73, 0
9, 3120, Note_on_c, 5, 73, 100
9, 3179, Note_on_c, 5, 73, 0
9, 3180, Note_on_c, 5, 74, 100
9, 3209, Note_on_c, 5, 74, 0
9, 3210, Note_on_c, 5, 76, 100
9, 3239, Note_on_c, 5, 76, 0
9, 3240, Note_on_c, 5, 78, 100
9, 3299, Note_on_c, 5, 78, 0
9, 3300, Note_on_c, 5, 81, 100
9, 3329, Note_on_c, 5, 81, 0
9, 3330, Note_on_c, 5, 79, 100
9, 3359, Note_on_c, 5, 79, 0
9, 3360, Note_on_c, 5, 78, 100
9, 3419, Note_on_c, 5, 78, 0
9, 3420, Note_on_c, 5, 81, 100
9, 3449, Note_on_c, 5, 81, 0
9, 3450, Note_on_c, 5, 79, 100
9, 3479, Note_on_c, 5, 79, 0
9, 3480, Note_on_c, 5, 78, 100
9, 3539, Note_on_c, 5, 78, 0
9, 3540, Note_on_c, 5, 78, 100
9, 3599, Note_on_c, 5, 78, 0
9, 3600, Note_on_c, 5, 78, 100
9, 3959, Note_on_c, 5, 78, 0
9, 3960, Note_on_c, 5, 76, 100
9, 3989, Note_on_c, 5, 76, 0
9, 3990, Note_on_c, 5, 71, 100
9, 4019, Note_on_c, 5, 71, 0
9, 4020, Note_on_c, 5, 73, 100
9, 4049, Note_on_c, 5, 73, 0
9, 4050, Note_on_c, 5, 75, 100
9, 4079, Note_on_c, 5, 75, 0
9, 4080, Note_on_c, 5, 76, 100
9, 4109, Note_on_c, 5, 76, 0
9, 4110, Note_on_c, 5, 78, 100
9, 4139, Note_on_c, 5, 78, 0
9, 4140, Note_on_c, 5, 79, 100
9, 4169, Note_on_c, 5, 79, 0
9, 4170, Note_on_c, 5, 81, 100
9, 4199, Note_on_c, 5, 81, 0
9, 4200, Note_on_c, 5, 83, 100
9, 4229, Note_on_c, 5, 83, 0
9, 4230, Note_on_c, 5, 81, 100
9, 4259, Note_on_c, 5, 81, 0
9, 4260, Note_on_c, 5, 83, 100
9, 4289, Note_on_c, 5, 83, 0
9, 4290, Note_on_c, 5, 81, 100
9, 4319, Note_on_c, 5, 81, 0
9, 4320, Note_on_c, 5, 79, 100
9, 4679, Note_on_c, 5, 79, 0
9, 4710, Note_on_c, 5, 69, 100
9, 4739, Note_on_c, 5, 69, 0
9, 4740, Note_on_c, 5, 71, 100
9, 4769, Note_on_c, 5, 71, 0
9, 4770, Note_on_c, 5, 73, 100
9, 4799, Note_on_c, 5, 73, 0
9, 4800, Note_on_c, 5, 74, 100
9, 4829, Note_on_c, 5, 74, 0
9, 4830, Note_on_c, 5, 76, 100
9, 4859, Note_on_c, 5, 76, 0
9, 4860, Note_on_c, 5, 78, 100
9, 4889, Note_on_c, 5, 78, 0
9, 4890, Note_on_c, 5, 79, 100
9, 4919, Note_on_c, 5, 79, 0
9, 4920, Note_on_c, 5, 81, 100
9, 4949, Note_on_c, 5, 81, 0
9, 4950, Note_on_c, 5, 83, 100
9, 4979, Note_on_c, 5, 83, 0
9, 4980, Note_on_c, 5, 79, 100
9, 5009, Note_on_c, 5, 79, 0
9, 5010, Note_on_c, 5, 81, 100
9, 5039, Note_on_c, 5, 81, 0
9, 5040, Note_on_c, 5, 78, 100
9, 5069, Note_on_c, 5, 78, 0
9, 5070, Note_on_c, 5, 69, 100
9, 5099, Note_on_c, 5, 69, 0
9, 5100, Note_on_c, 5, 71, 100
9, 5129, Note_on_c, 5, 71, 0
9, 5130, Note_on_c, 5, 73, 100
9, 5159, Note_on_c, 5, 73, 0
9, 5160, Note_on_c, 5, 74, 100
9, 5189, Note_on_c, 5, 74, 0
9, 5190, Note_on_c, 5, 76, 100
9, 5219, Note_on_c, 5, 76, 0
9, 5220, Note_on_c, 5, 78, 100
9, 5249, Note_on_c, 5, 78, 0
9, 5250, Note_on_c, 5, 79, 100
9, 5279, Note_on_c, 5, 79, 0
9, 5280, Note_on_c, 5, 81, 100
9, 5339, Note_on_c, 5, 81, 0
9, 5430, Note_on_c, 5, 71, 100
9, 5459, Note_on_c, 5, 71, 0
9, 5460, Note_on_c, 5, 73, 100
9, 5489, Note_on_c, 5, 73, 0
9, 5490, Note_on_c, 5, 74, 100
9, 5519, Note_on_c, 5, 74, 0
9, 5520, Note_on_c, 5, 76, 100
9, 5549, Note_on_c, 5, 76, 0
9, 5550, Note_on_c, 5, 78, 100
9, 5579, Note_on_c, 5, 78, 0
9, 5580, Note_on_c, 5, 79, 100
9, 5609, Note_on_c, 5, 79, 0
9, 5610, Note_on_c, 5, 81, 100
9, 5639, Note_on_c, 5, 81, 0
9, 5640, Note_on_c, 5, 83, 100
9, 5699, Note_on_c, 5, 83, 0
9, 5790, Note_on_c, 5, 69, 100
9, 5819, Note_on_c, 5, 69, 0
9, 5820, Note_on_c, 5, 71, 100
9, 5849, Note_on_c, 5, 71, 0
9, 5850, Note_on_c, 5, 73, 100
9, 5879, Note_on_c, 5, 73, 0
9, 5880, Note_on_c, 5, 74, 100
9, 5909, Note_on_c, 5, 74, 0
9, 5910, Note_on_c, 5, 76, 100
9, 5939, Note_on_c, 5, 76, 0
9, 5940, Note_on_c, 5, 78, 100
9, 5969, Note_on_c, 5, 78, 0
9, 5970, Note_on_c, 5, 79, 100
9, 5999, Note_on_c, 5, 79, 0
9, 6000, Note_on_c, 5, 81, 100
9, 6059, Note_on_c, 5, 81, 0
9, 6150, Note_on_c, 5, 67, 100
9, 6179, Note_on_c, 5, 67, 0
9, 6180, Note_on_c, 5, 69, 100
9, 6209, Note_on_c, 5, 69, 0
9, 6210, Note_on_c, 5, 71, 100
9, 6239, Note_on_c, 5, 71, 0
9, 6240, Note_on_c, 5, 73, 100
9, 6269, Note_on_c, 5, 73, 0
9, 6270, Note_on_c, 5, 74, 100
9, 6299, Note_on_c, 5, 74, 0
9, 6300, Note_on_c, 5, 76, 100
9, 6329, Note_on_c, 5, 76, 0
9, 6330, Note_on_c, 5, 78, 100
9, 6359, Note_on_c, 5, 78, 0
9, 6360, Note_on_c, 5, 79, 100
9, 6419, Note_on_c, 5, 79, 0
9, 6510, Note_on_c, 5, 66, 100
9, 6539, Note_on_c, 5, 66, 0
9, 6540, Note_on_c, 5, 67, 100
9, 6569, Note_on_c, 5, 67, 0
9, 6570, Note_on_c, 5, 69, 100
9, 6599, Note_on_c, 5, 69, 0
9, 6600, Note_on_c, 5, 71, 100
9, 6629, Note_on_c, 5, 71, 0
9, 6630, Note_on_c, 5, 73, 100
9, 6659, Note_on_c, 5, 73, 0
9, 6660, Note_on_c, 5, 74, 100
9, 6689, Note_on_c, 5, 74, 0
9, 6690, Note_on_c, 5, 76, 100
9, 6719, Note_on_c, 5, 76, 0
9, 6720, Note_on_c, 5, 78, 100
9, 6779, Note_on_c, 5, 78, 0
9, 6870, Note_on_c, 5, 69, 100
9, 6899, Note_on_c, 5, 69, 0
9, 6900, Note_on_c, 5, 68, 100
9, 6929, Note_on_c, 5, 68, 0
9, 6930, Note_on_c, 5, 69, 100
9, 6959, Note_on_c, 5, 69, 0
9, 6960, Note_on_c, 5, 71, 100
9, 6989, Note_on_c, 5, 71, 0
9, 6990, Note_on_c, 5, 73, 100
9, 7019, Note_on_c, 5, 73, 0
9, 7020, Note_on_c, 5, 74, 100
9, 7049, Note_on_c, 5, 74, 0
9, 7050, Note_on_c, 5, 76, 100
9, 7079, Note_on_c, 5, 76, 0
9, 7080, Note_on_c, 5, 77, 100
9, 7139, Note_on_c, 5, 77, 0
9, 7230, Note_on_c, 5, 74, 100
9, 7259, Note_on_c, 5, 74, 0
9, 7260, Note_on_c, 5, 76, 100
9, 7289, Note_on_c, 5, 76, 0
9, 7290, Note_on_c, 5, 78, 100
9, 7319, Note_on_c, 5, 78, 0
9, 7320, Note_on_c, 5, 80, 100
9, 7349, Note_on_c, 5, 80, 0
9, 7350, Note_on_c, 5, 81, 100
9, 7379, Note_on_c, 5, 81, 0
9, 7380, Note_on_c, 5, 83, 100
9, 7409, Note_on_c, 5, 83, 0
9, 7410, Note_on_c, 5, 85, 100
9, 7439, Note_on_c, 5, 85, 0
9, 7440, Note_on_c, 5, 86, 100
9, 7499, Note_on_c, 5, 86, 0
9, 7680, Note_on_c, 5, 81, 100
9, 7739, Note_on_c, 5, 81, 0
9, 7740, Note_on_c, 5, 76, 100
9, 7799, Note_on_c, 5, 76, 0
9, 8040, Note_on_c, 5, 81, 100
9, 8099, Note_on_c, 5, 81, 0
9, 8100, Note_on_c, 5, 78, 100
9, 8159, Note_on_c, 5, 78, 0
9, 8400, Note_on_c, 5, 81, 100
9, 8459, Note_on_c, 5, 81, 0
9, 8460, Note_on_c, 5, 76, 100
9, 8519, Note_on_c, 5, 76, 0
9, 9030, Note_on_c, 5, 74, 100
9, 9059, Note_on_c, 5, 74, 0
9, 9060, Note_on_c, 5, 76, 100
9, 9089, Note_on_c, 5, 76, 0
9, 9090, Note_on_c, 5, 78, 100
9, 9119, Note_on_c, 5, 78, 0
9, 9120, Note_on_c, 5, 79, 100
9, 9149, Note_on_c, 5, 79, 0
9, 9150, Note_on_c, 5, 81, 100
9, 9179, Note_on_c, 5, 81, 0
9, 9180, Note_on_c, 5, 83, 100
9, 9209, Note_on_c, 5, 83, 0
9, 9210, Note_on_c, 5, 85, 100
9, 9239, Note_on_c, 5, 85, 0
9, 9240, Note_on_c, 5, 86, 100
9, 9269, Note_on_c, 5, 86, 0
9, 9270, Note_on_c, 5, 85, 100
9, 9299, Note_on_c, 5, 85, 0
9, 9300, Note_on_c, 5, 86, 100
9, 9329, Note_on_c, 5, 86, 0
9, 9330, Note_on_c, 5, 85, 100
9, 9359, Note_on_c, 5, 85, 0
9, 9360, Note_on_c, 5, 83, 100
9, 9389, Note_on_c, 5, 83, 0
9, 9390, Note_on_c, 5, 81, 100
9, 9419, Note_on_c, 5, 81, 0
9, 9420, Note_on_c, 5, 83, 100
9, 9449, Note_on_c, 5, 83, 0
9, 9450, Note_on_c, 5, 81, 100
9, 9479, Note_on_c, 5, 81, 0
9, 9480, Note_on_c, 5, 79, 100
9, 9509, Note_on_c, 5, 79, 0
9, 9510, Note_on_c, 5, 78, 100
9, 9539, Note_on_c, 5, 78, 0
9, 9540, Note_on_c, 5, 79, 100
9, 9569, Note_on_c, 5, 79, 0
9, 9570, Note_on_c, 5, 78, 100
9, 9599, Note_on_c, 5, 78, 0
9, 9600, Note_on_c, 5, 76, 100
9, 9629, Note_on_c, 5, 76, 0
9, 9630, Note_on_c, 5, 74, 100
9, 9659, Note_on_c, 5, 74, 0
9, 9660, Note_on_c, 5, 76, 100
9, 9689, Note_on_c, 5, 76, 0
9, 9690, Note_on_c, 5, 74, 100
9, 9719, Note_on_c, 5, 74, 0
9, 9720, Note_on_c, 5, 79, 100
9, 9779, Note_on_c, 5, 79, 0
9, 9780, Note_on_c, 5, 81, 100
9, 9809, Note_on_c, 5, 81, 0
9, 9810, Note_on_c, 5, 79, 100
9, 9839, Note_on_c, 5, 79, 0
9, 9840, Note_on_c, 5, 78, 100
9, 9869, Note_on_c, 5, 78, 0
9, 9870, Note_on_c, 5, 76, 100
9, 9899, Note_on_c, 5, 76, 0
9, 9900, Note_on_c, 5, 74, 100
9, 9929, Note_on_c, 5, 74, 0
9, 9930, Note_on_c, 5, 76, 100
9, 9959, Note_on_c, 5, 76, 0
9, 9960, Note_on_c, 5, 76, 100
9, 10049, Note_on_c, 5, 76, 0
9, 10050, Note_on_c, 5, 74, 100
9, 10079, Note_on_c, 5, 74, 0
9, 10080, Note_on_c, 5, 74, 100
9, 10199, Note_on_c, 5, 74, 0
9, 10200, Note_on_c, 5, 78, 100
9, 10259, Note_on_c, 5, 78, 0
9, 10260, Note_on_c, 5, 74, 100
9, 10319, Note_on_c, 5, 74, 0
9, 10560, Note_on_c, 5, 78, 100
9, 10619, Note_on_c, 5, 78, 0
9, 10620, Note_on_c, 5, 74, 100
9, 10679, Note_on_c, 5, 74, 0
9, 10920, Note_on_c, 5, 74, 100
9, 10979, Note_on_c, 5, 74, 0
9, 10980, Note_on_c, 5, 69, 100
9, 11039, Note_on_c, 5, 69, 0
9, 11280, Note_on_c, 5, 74, 100
9, 11339, Note_on_c, 5, 74, 0
9, 11340, Note_on_c, 5, 71, 100
9, 11399, Note_on_c, 5, 71, 0
9, 11580, Note_on_c, 5, 81, 100
9, 11609, Note_on_c, 5, 81, 0
9, 11610, Note_on_c, 5, 79, 100
9, 11639, Note_on_c, 5, 79, 0
9, 11640, Note_on_c, 5, 78, 100
9, 11669, Note_on_c, 5, 78, 0
9, 11670, Note_on_c, 5, 76, 100
9, 11699, Note_on_c, 5, 76, 0
9, 11700, Note_on_c, 5, 74, 100
9, 11729, Note_on_c, 5, 74, 0
9, 11730, Note_on_c, 5, 73, 100
9, 11759, Note_on_c, 5, 73, 0
9, 11760, Note_on_c, 5, 74, 100
9, 11789, Note_on_c, 5, 74, 0
9, 11790, Note_on_c, 5, 71, 100
9, 11819, Note_on_c, 5, 71, 0
9, 11820, Note_on_c, 5, 73, 100
9, 11849, Note_on_c, 5, 73, 0
9, 11850, Note_on_c, 5, 69, 100
9, 11879, Note_on_c, 5, 69, 0
9, 11880, Note_on_c, 5, 76, 100
9, 11999, Note_on_c, 5, 76, 0
9, 12000, Note_on_c, 5, 81, 100
9, 12059, Note_on_c, 5, 81, 0
9, 12060, Note_on_c, 5, 76, 100
9, 12119, Note_on_c, 5, 76, 0
9, 12360, Note_on_c, 5, 81, 100
9, 12419, Note_on_c, 5, 81, 0
9, 12420, Note_on_c, 5, 78, 100
9, 12479, Note_on_c, 5, 78, 0
9, 12720, Note_on_c, 5, 81, 100
9, 12779, Note_on_c, 5, 81, 0
9, 12780, Note_on_c, 5, 76, 100
9, 12839, Note_on_c, 5, 76, 0
9, 13350, Note_on_c, 5, 74, 100
9, 13379, Note_on_c, 5, 74, 0
9, 13380, Note_on_c, 5, 76, 100
9, 13409, Note_on_c, 5, 76, 0
9, 13410, Note_on_c, 5, 78, 100
9, 13439, Note_on_c, 5, 78, 0
9, 13440, Note_on_c, 5, 79, 100
9, 13469, Note_on_c, 5, 79, 0
9, 13470, Note_on_c, 5, 81, 100
9, 13499, Note_on_c, 5, 81, 0
9, 13500, Note_on_c, 5, 83, 100
9, 13529, Note_on_c, 5, 83, 0
9, 13530, Note_on_c, 5, 85, 100
9, 13559, Note_on_c, 5, 85, 0
9, 13560, Note_on_c, 5, 86, 100
9, 13589, Note_on_c, 5, 86, 0
9, 13590, Note_on_c, 5, 85, 100
9, 13619, Note_on_c, 5, 85, 0
9, 13620, Note_on_c, 5, 86, 100
9, 13649, Note_on_c, 5, 86, 0
9, 13650, Note_on_c, 5, 85, 100
9, 13679, Note_on_c, 5, 85, 0
9, 13680, Note_on_c, 5, 83, 100
9, 13709, Note_on_c, 5, 83, 0
9, 13710, Note_on_c, 5, 81, 100
9, 13739, Note_on_c, 5, 81, 0
9, 13740, Note_on_c, 5, 83, 100
9, 13769, Note_on_c, 5, 83, 0
9, 13770, Note_on_c, 5, 81, 100
9, 13799, Note_on_c, 5, 81, 0
9, 13800, Note_on_c, 5, 79, 100
9, 13829, Note_on_c, 5, 79, 0
9, 13830, Note_on_c, 5, 78, 100
9, 13859, Note_on_c, 5, 78, 0
9, 13860, Note_on_c, 5, 79, 100
9, 13889, Note_on_c, 5, 79, 0
9, 13890, Note_on_c, 5, 78, 100
9, 13919, Note_on_c, 5, 78, 0
9, 13920, Note_on_c, 5, 76, 100
9, 13949, Note_on_c, 5, 76, 0
9, 13950, Note_on_c, 5, 74, 100
9, 13979, Note_on_c, 5, 74, 0
9, 13980, Note_on_c, 5, 76, 100
9, 14009, Note_on_c, 5, 76, 0
9, 14010, Note_on_c, 5, 74, 100
9, 14039, Note_on_c, 5, 74, 0
9, 14040, Note_on_c, 5, 79, 100
9, 14099, Note_on_c, 5, 79, 0
9, 14100, Note_on_c, 5, 81, 100
9, 14129, Note_on_c, 5, 81, 0
9, 14130, Note_on_c, 5, 79, 100
9, 14159, Note_on_c, 5, 79, 0
9, 14160, Note_on_c, 5, 78, 100
9, 14189, Note_on_c, 5, 78, 0
9, 14190, Note_on_c, 5, 76, 100
9, 14219, Note_on_c, 5, 76, 0
9, 14220, Note_on_c, 5, 74, 100
9, 14249, Note_on_c, 5, 74, 0
9, 14250, Note_on_c, 5, 76, 100
9, 14279, Note_on_c, 5, 76, 0
9, 14280, Note_on_c, 5, 76, 100
9, 14369, Note_on_c, 5, 76, 0
9, 14370, Note_on_c, 5, 74, 100
9, 14399, Note_on_c, 5, 74, 0
9, 14400, Note_on_c, 5, 74, 100
9, 14460, Note_on_c, 5, 74, 0
9, 14790, Note_on_c, 5, 74, 100
9, 14819, Note_on_c, 5, 74, 0
9, 14820, Note_on_c, 5, 76, 100
9, 14849, Note_on_c, 5, 76, 0
9, 14850, Note_on_c, 5, 78, 100
9, 14879, Note_on_c, 5, 78, 0
9, 14880, Note_on_c, 5, 79, 100
9, 14909, Note_on_c, 5, 79, 0
9, 14910, Note_on_c, 5, 81, 100
9, 14939, Note_on_c, 5, 81, 0
9, 14940, Note_on_c, 5, 83, 100
9, 14969, Note_on_c, 5, 83, 0
9, 14970, Note_on_c, 5, 85, 100
9, 14999, Note_on_c, 5, 85, 0
9, 15000, Note_on_c, 5, 86, 100
9, 15029, Note_on_c, 5, 86, 0
9, 15030, Note_on_c, 5, 85, 100
9, 15059, Note_on_c, 5, 85, 0
9, 15060, Note_on_c, 5, 86, 100
9, 15089, Note_on_c, 5, 86, 0
9, 15090, Note_on_c, 5, 85, 100
9, 15119, Note_on_c, 5, 85, 0
9, 15120, Note_on_c, 5, 86, 100
9, 15149, Note_on_c, 5, 86, 0
9, 15150, Note_on_c, 5, 81, 100
9, 15179, Note_on_c, 5, 81, 0
9, 15180, Note_on_c, 5, 79, 100
9, 15209, Note_on_c, 5, 79, 0
9, 15210, Note_on_c, 5, 78, 100
9, 15239, Note_on_c, 5, 78, 0
9, 15240, Note_on_c, 5, 76, 100
9, 15269, Note_on_c, 5, 76, 0
9, 15270, Note_on_c, 5, 74, 100
9, 15299, Note_on_c, 5, 74, 0
9, 15300, Note_on_c, 5, 73, 100
9, 15329, Note_on_c, 5, 73, 0
9, 15330, Note_on_c, 5, 71, 100
9, 15359, Note_on_c, 5, 71, 0
9, 15360, Note_on_c, 5, 69, 100
9, 15389, Note_on_c, 5, 69, 0
9, 15390, Note_on_c, 5, 67, 100
9, 15419, Note_on_c, 5, 67, 0
9, 15420, Note_on_c, 5, 66, 100
9, 15449, Note_on_c, 5, 66, 0
9, 15450, Note_on_c, 5, 69, 100
9, 15479, Note_on_c, 5, 69, 0
9, 15480, Note_on_c, 5, 62, 100
9, 15509, Note_on_c, 5, 62, 0
9, 15510, Note_on_c, 5, 86, 100
9, 15539, Note_on_c, 5, 86, 0
9, 15540, Note_on_c, 5, 85, 100
9, 15569, Note_on_c, 5, 85, 0
9, 15570, Note_on_c, 5, 83, 100
9, 15599, Note_on_c, 5, 83, 0
9, 15600, Note_on_c, 5, 81, 100
9, 15629, Note_on_c, 5, 81, 0
9, 15630, Note_on_c, 5, 79, 100
9, 15659, Note_on_c, 5, 79, 0
9, 15660, Note_on_c, 5, 78, 100
9, 15689, Note_on_c, 5, 78, 0
9, 15690, Note_on_c, 5, 76, 100
9, 15719, Note_on_c, 5, 76, 0
9, 15720, Note_on_c, 5, 74, 100
9, 15749, Note_on_c, 5, 74, 0
9, 15750, Note_on_c, 5, 76, 100
9, 15779, Note_on_c, 5, 76, 0
9, 15780, Note_on_c, 5, 74, 100
9, 15809, Note_on_c, 5, 74, 0
9, 15810, Note_on_c, 5, 76, 100
9, 15839, Note_on_c, 5, 76, 0
9, 15840, Note_on_c, 5, 74, 100
9, 15869, Note_on_c, 5, 74, 0
9, 15870, Note_on_c, 5, 78, 100
9, 15899, Note_on_c, 5, 78, 0
9, 15900, Note_on_c, 5, 76, 100
9, 15929, Note_on_c, 5, 76, 0
9, 15930, Note_on_c, 5, 74, 100
9, 15959, Note_on_c, 5, 74, 0
9, 15960, Note_on_c, 5, 73, 100
9, 15989, Note_on_c, 5, 73, 0
9, 15990, Note_on_c, 5, 71, 100
9, 16019, Note_on_c, 5, 71, 0
9, 16020, Note_on_c, 5, 69, 100
9, 16049, Note_on_c, 5, 69, 0
9, 16050, Note_on_c, 5, 67, 100
9, 16079, Note_on_c, 5, 67, 0
9, 16080, Note_on_c, 5, 66, 100
9, 16139, Note_on_c, 5, 66, 0
9, 16230, Note_on_c, 5, 74, 100
9, 16259, Note_on_c, 5, 74, 0
9, 16260, Note_on_c, 5, 76, 100
9, 16289, Note_on_c, 5, 76, 0
9, 16290, Note_on_c, 5, 78, 100
9, 16319, Note_on_c, 5, 78, 0
9, 16320, Note_on_c, 5, 79, 100
9, 16349, Note_on_c, 5, 79, 0
9, 16350, Note_on_c, 5, 81, 100
9, 16379, Note_on_c, 5, 81, 0
9, 16380, Note_on_c, 5, 83, 100
9, 16409, Note_on_c, 5, 83, 0
9, 16410, Note_on_c, 5, 85, 100
9, 16439, Note_on_c, 5, 85, 0
9, 16440, Note_on_c, 5, 86, 100
9, 16469, Note_on_c, 5, 86, 0
9, 16470, Note_on_c, 5, 85, 100
9, 16499, Note_on_c, 5, 85, 0
9, 16500, Note_on_c, 5, 86, 100
9, 16529, Note_on_c, 5, 86, 0
9, 16530, Note_on_c, 5, 85, 100
9, 16559, Note_on_c, 5, 85, 0
9, 16560, Note_on_c, 5, 83, 100
9, 16589, Note_on_c, 5, 83, 0
9, 16590, Note_on_c, 5, 81, 100
9, 16619, Note_on_c, 5, 81, 0
9, 16620, Note_on_c, 5, 83, 100
9, 16649, Note_on_c, 5, 83, 0
9, 16650, Note_on_c, 5, 81, 100
9, 16679, Note_on_c, 5, 81, 0
9, 16680, Note_on_c, 5, 80, 100
9, 16709, Note_on_c, 5, 80, 0
9, 16710, Note_on_c, 5, 78, 100
9, 16739, Note_on_c, 5, 78, 0
9, 16740, Note_on_c, 5, 80, 100
9, 16769, Note_on_c, 5, 80, 0
9, 16770, Note_on_c, 5, 78, 100
9, 16799, Note_on_c, 5, 78, 0
9, 16800, Note_on_c, 5, 76, 100
9, 16829, Note_on_c, 5, 76, 0
9, 16830, Note_on_c, 5, 74, 100
9, 16859, Note_on_c, 5, 74, 0
9, 16860, Note_on_c, 5, 76, 100
9, 16889, Note_on_c, 5, 76, 0
9, 16890, Note_on_c, 5, 74, 100
9, 16919, Note_on_c, 5, 74, 0
9, 16920, Note_on_c, 5, 73, 100
9, 16949, Note_on_c, 5, 73, 0
9, 16950, Note_on_c, 5, 76, 100
9, 16979, Note_on_c, 5, 76, 0
9, 16980, Note_on_c, 5, 81, 100
9, 17009, Note_on_c, 5, 81, 0
9, 17010, Note_on_c, 5, 83, 100
9, 17039, Note_on_c, 5, 83, 0
9, 17040, Note_on_c, 5, 85, 100
9, 17069, Note_on_c, 5, 85, 0
9, 17070, Note_on_c, 5, 83, 100
9, 17099, Note_on_c, 5, 83, 0
9, 17100, Note_on_c, 5, 81, 100
9, 17129, Note_on_c, 5, 81, 0
9, 17130, Note_on_c, 5, 83, 100
9, 17159, Note_on_c, 5, 83, 0
9, 17160, Note_on_c, 5, 83, 100
9, 17249, Note_on_c, 5, 83, 0
9, 17250, Note_on_c, 5, 81, 100
9, 17279, Note_on_c, 5, 81, 0
9, 17280, Note_on_c, 5, 81, 100
9, 17309, Note_on_c, 5, 81, 0
9, 17310, Note_on_c, 5, 73, 100
9, 17339, Note_on_c, 5, 73, 0
9, 17340, Note_on_c, 5, 74, 100
9, 17369, Note_on_c, 5, 74, 0
9, 17370, Note_on_c, 5, 76, 100
9, 17399, Note_on_c, 5, 76, 0
9, 17400, Note_on_c, 5, 78, 100
9, 17429, Note_on_c, 5, 78, 0
9, 17430, Note_on_c, 5, 80, 100
9, 17459, Note_on_c, 5, 80, 0
9, 17460, Note_on_c, 5, 81, 100
9, 17489, Note_on_c, 5, 81, 0
9, 17490, Note_on_c, 5, 83, 100
9, 17519, Note_on_c, 5, 83, 0
9, 17520, Note_on_c, 5, 85, 100
9, 17579, Note_on_c, 5, 85, 0
9, 17670, Note_on_c, 5, 76, 100
9, 17699, Note_on_c, 5, 76, 0
9, 17700, Note_on_c, 5, 75, 100
9, 17729, Note_on_c, 5, 75, 0
9, 17730, Note_on_c, 5, 76, 100
9, 17759, Note_on_c, 5, 76, 0
9, 17760, Note_on_c, 5, 78, 100
9, 17789, Note_on_c, 5, 78, 0
9, 17790, Note_on_c, 5, 80, 100
9, 17819, Note_on_c, 5, 80, 0
9, 17820, Note_on_c, 5, 81, 100
9, 17849, Note_on_c, 5, 81, 0
9, 17850, Note_on_c, 5, 83, 100
9, 17879, Note_on_c, 5, 83, 0
9, 17880, Note_on_c, 5, 84, 100
9, 17939, Note_on_c, 5, 84, 0
9, 18030, Note_on_c, 5, 69, 100
9, 18059, Note_on_c, 5, 69, 0
9, 18060, Note_on_c, 5, 71, 100
9, 18089, Note_on_c, 5, 71, 0
9, 18090, Note_on_c, 5, 73, 100
9, 18119, Note_on_c, 5, 73, 0
9, 18120, Note_on_c, 5, 75, 100
9, 18149, Note_on_c, 5, 75, 0
9, 18150, Note_on_c, 5, 76, 100
9, 18179, Note_on_c, 5, 76, 0
9, 18180, Note_on_c, 5, 78, 100
9, 18209, Note_on_c, 5, 78, 0
9, 18210, Note_on_c, 5, 80, 100
9, 18239, Note_on_c, 5, 80, 0
9, 18240, Note_on_c, 5, 81, 100
9, 18299, Note_on_c, 5, 81, 0
9, 18420, Note_on_c, 5, 80, 100
9, 18479, Note_on_c, 5, 80, 0
9, 18480, Note_on_c, 5, 80, 100
9, 18539, Note_on_c, 5, 80, 0
9, 18540, Note_on_c, 5, 80, 100
9, 18599, Note_on_c, 5, 80, 0
9, 18600, Note_on_c, 5, 80, 100
9, 18659, Note_on_c, 5, 80, 0
9, 18660, Note_on_c, 5, 78, 100
9, 18689, Note_on_c, 5, 78, 0
9, 18690, Note_on_c, 5, 80, 100
9, 18719, Note_on_c, 5, 80, 0
9, 18720, Note_on_c, 5, 81, 100
9, 18779, Note_on_c, 5, 81, 0
9, 18780, Note_on_c, 5, 81, 100
9, 18839, Note_on_c, 5, 81, 0
9, 18840, Note_on_c, 5, 81, 100
9, 18899, Note_on_c, 5, 81, 0
9, 18900, Note_on_c, 5, 81, 100
9, 18959, Note_on_c, 5, 81, 0
9, 18960, Note_on_c, 5, 81, 100
9, 19019, Note_on_c, 5, 81, 0
9, 19020, Note_on_c, 5, 80, 100
9, 19049, Note_on_c, 5, 80, 0
9, 19050, Note_on_c, 5, 81, 100
9, 19079, Note_on_c, 5, 81, 0
9, 19080, Note_on_c, 5, 83, 100
9, 19139, Note_on_c, 5, 83, 0
9, 19140, Note_on_c, 5, 83, 100
9, 19199, Note_on_c, 5, 83, 0
9, 19200, Note_on_c, 5, 83, 100
9, 19259, Note_on_c, 5, 83, 0
9, 19260, Note_on_c, 5, 83, 100
9, 19319, Note_on_c, 5, 83, 0
9, 19320, Note_on_c, 5, 83, 100
9, 19379, Note_on_c, 5, 83, 0
9, 19380, Note_on_c, 5, 81, 100
9, 19409, Note_on_c, 5, 81, 0
9, 19410, Note_on_c, 5, 83, 100
9, 19439, Note_on_c, 5, 83, 0
9, 19440, Note_on_c, 5, 85, 100
9, 20040, Note_on_c, 5, 85, 0
9, 20070, Note_on_c, 5, 86, 100
9, 20099, Note_on_c, 5, 86, 0
9, 20100, Note_on_c, 5, 83, 100
9, 20129, Note_on_c, 5, 83, 0
9, 20130, Note_on_c, 5, 85, 100
9, 20159, Note_on_c, 5, 85, 0
9, 20160, Note_on_c, 5, 86, 100
9, 20220, Note_on_c, 5, 86, 0
9, 20220, Note_on_c, 5, 81, 100
9, 20280, Note_on_c, 5, 81, 0
9, 20280, Note_on_c, 5, 86, 100
9, 20309, Note_on_c, 5, 86, 0
9, 20310, Note_on_c, 5, 85, 100
9, 20339, Note_on_c, 5, 85, 0
9, 20340, Note_on_c, 5, 86, 100
9, 20369, Note_on_c, 5, 86, 0
9, 20370, Note_on_c, 5, 85, 100
9, 20399, Note_on_c, 5, 85, 0
9, 20400, Note_on_c, 5, 83, 100
9, 20429, Note_on_c, 5, 83, 0
9, 20430, Note_on_c, 5, 81, 100
9, 20459, Note_on_c, 5, 81, 0
9, 20460, Note_on_c, 5, 83, 100
9, 20489, Note_on_c, 5, 83, 0
9, 20490, Note_on_c, 5, 81, 100
9, 20519, Note_on_c, 5, 81, 0
9, 20520, Note_on_c, 5, 86, 100
9, 20579, Note_on_c, 5, 86, 0
9, 20580, Note_on_c, 5, 88, 100
9, 20609, Note_on_c, 5, 88, 0
9, 20610, Note_on_c, 5, 86, 100
9, 20639, Note_on_c, 5, 86, 0
9, 20640, Note_on_c, 5, 85, 100
9, 20669, Note_on_c, 5, 85, 0
9, 20670, Note_on_c, 5, 83, 100
9, 20699, Note_on_c, 5, 83, 0
9, 20700, Note_on_c, 5, 81, 100
9, 20729, Note_on_c, 5, 81, 0
9, 20730, Note_on_c, 5, 83, 100
9, 20759, Note_on_c, 5, 83, 0
9, 20760, Note_on_c, 5, 83, 100
9, 20849, Note_on_c, 5, 83, 0
9, 20850, Note_on_c, 5, 81, 100
9, 20879, Note_on_c, 5, 81, 0
9, 20880, Note_on_c, 5, 81, 100
9, 20939, Note_on_c, 5, 81, 0
9, 20940, Note_on_c, 5, 73, 100
9, 20999, Note_on_c, 5, 73, 0
9, 21000, Note_on_c, 5, 73, 100
9, 21059, Note_on_c, 5, 73, 0
9, 21060, Note_on_c, 5, 73, 100
9, 21119, Note_on_c, 5, 73, 0
9, 21120, Note_on_c, 5, 73, 100
9, 21179, Note_on_c, 5, 73, 0
9, 21180, Note_on_c, 5, 74, 100
9, 21209, Note_on_c, 5, 74, 0
9, 21210, Note_on_c, 5, 76, 100
9, 21239, Note_on_c, 5, 76, 0
9, 21240, Note_on_c, 5, 78, 100
9, 21299, Note_on_c, 5, 78, 0
9, 21300, Note_on_c, 5, 81, 100
9, 21329, Note_on_c, 5, 81, 0
9, 21330, Note_on_c, 5, 79, 100
9, 21359, Note_on_c, 5, 79, 0
9, 21360, Note_on_c, 5, 78, 100
9, 21419, Note_on_c, 5, 78, 0
9, 21420, Note_on_c, 5, 81, 100
9, 21449, Note_on_c, 5, 81, 0
9, 21450, Note_on_c, 5, 79, 100
9, 21479, Note_on_c, 5, 79, 0
9, 21480, Note_on_c, 5, 78, 100
9, 21539, Note_on_c, 5, 78, 0
9, 21540, Note_on_c, 5, 78, 100
9, 21599, Note_on_c, 5, 78, 0
9, 21600, Note_on_c, 5, 78, 100
9, 21959, Note_on_c, 5, 78, 0
9, 21960, Note_on_c, 5, 76, 100
9, 21989, Note_on_c, 5, 76, 0
9, 21990, Note_on_c, 5, 71, 100
9, 22019, Note_on_c, 5, 71, 0
9, 22020, Note_on_c, 5, 73, 100
9, 22049, Note_on_c, 5, 73, 0
9, 22050, Note_on_c, 5, 75, 100
9, 22079, Note_on_c, 5, 75, 0
9, 22080, Note_on_c, 5, 76, 100
9, 22109, Note_on_c, 5, 76, 0
9, 22110, Note_on_c, 5, 78, 100
9, 22139, Note_on_c, 5, 78, 0
9, 22140, Note_on_c, 5, 79, 100
9, 22169, Note_on_c, 5, 79, 0
9, 22170, Note_on_c, 5, 81, 100
9, 22199, Note_on_c, 5, 81, 0
9, 22200, Note_on_c, 5, 83, 100
9, 22229, Note_on_c, 5, 83, 0
9, 22230, Note_on_c, 5, 81, 100
9, 22259, Note_on_c, 5, 81, 0
9, 22260, Note_on_c, 5, 83, 100
9, 22289, Note_on_c, 5, 83, 0
9, 22290, Note_on_c, 5, 81, 100
9, 22319, Note_on_c, 5, 81, 0
9, 22320, Note_on_c, 5, 79, 100
9, 22679, Note_on_c, 5, 79, 0
9, 22710, Note_on_c, 5, 69, 100
9, 22739, Note_on_c, 5, 69, 0
9, 22740, Note_on_c, 5, 71, 100
9, 22769, Note_on_c, 5, 71, 0
9, 22770, Note_on_c, 5, 73, 100
9, 22799, Note_on_c, 5, 73, 0
9, 22800, Note_on_c, 5, 74, 100
9, 22829, Note_on_c, 5, 74, 0
9, 22830, Note_on_c, 5, 76, 100
9, 22859, Note_on_c, 5, 76, 0
9, 22860, Note_on_c, 5, 78, 100
9, 22889, Note_on_c, 5, 78, 0
9, 22890, Note_on_c, 5, 79, 100
9, 22919, Note_on_c, 5, 79, 0
9, 22920, Note_on_c, 5, 81, 100
9, 22949, Note_on_c, 5, 81, 0
9, 22950, Note_on_c, 5, 83, 100
9, 22979, Note_on_c, 5, 83, 0
9, 22980, Note_on_c, 5, 79, 100
9, 23009, Note_on_c, 5, 79, 0
9, 23010, Note_on_c, 5, 81, 100
9, 23039, Note_on_c, 5, 81, 0
9, 23040, Note_on_c, 5, 78, 100
9, 23069, Note_on_c, 5, 78, 0
9, 23070, Note_on_c, 5, 69, 100
9, 23099, Note_on_c, 5, 69, 0
9, 23100, Note_on_c, 5, 71, 100
9, 23129, Note_on_c, 5, 71, 0
9, 23130, Note_on_c, 5, 73, 100
9, 23159, Note_on_c, 5, 73, 0
9, 23160, Note_on_c, 5, 74, 100
9, 23189, Note_on_c, 5, 74, 0
9, 23190, Note_on_c, 5, 76, 100
9, 23219, Note_on_c, 5, 76, 0
9, 23220, Note_on_c, 5, 78, 100
9, 23249, Note_on_c, 5, 78, 0
9, 23250, Note_on_c, 5, 79, 100
9, 23279, Note_on_c, 5, 79, 0
9, 23280, Note_on_c, 5, 81, 100
9, 23339, Note_on_c, 5, 81, 0
9, 23430, Note_on_c, 5, 71, 100
9, 23459, Note_on_c, 5, 71, 0
9, 23460, Note_on_c, 5, 73, 100
9, 23489, Note_on_c, 5, 73, 0
9, 23490, Note_on_c, 5, 74, 100
9, 23519, Note_on_c, 5, 74, 0
9, 23520, Note_on_c, 5, 76, 100
9, 23549, Note_on_c, 5, 76, 0
9, 23550, Note_on_c, 5, 78, 100
9, 23579, Note_on_c, 5, 78, 0
9, 23580, Note_on_c, 5, 79, 100
9, 23609, Note_on_c, 5, 79, 0
9, 23610, Note_on_c, 5, 81, 100
9, 23639, Note_on_c, 5, 81, 0
9, 23640, Note_on_c, 5, 83, 100
9, 23699, Note_on_c, 5, 83, 0
9, 23790, Note_on_c, 5, 69, 100
9, 23819, Note_on_c, 5, 69, 0
9, 23820, Note_on_c, 5, 71, 100
9, 23849, Note_on_c, 5, 71, 0
9, 23850, Note_on_c, 5, 73, 100
9, 23879, Note_on_c, 5, 73, 0
9, 23880, Note_on_c, 5, 74, 100
9, 23909, Note_on_c, 5, 74, 0
9, 23910, Note_on_c, 5, 76, 100
9, 23939, Note_on_c, 5, 76, 0
9, 23940, Note_on_c, 5, 78, 100
9, 23969, Note_on_c, 5, 78, 0
9, 23970, Note_on_c, 5, 79, 100
9, 23999, Note_on_c, 5, 79, 0
9, 24000, Note_on_c, 5, 81, 100
9, 24059, Note_on_c, 5, 81, 0
9, 24150, Note_on_c, 5, 67, 100
9, 24179, Note_on_c, 5, 67, 0
9, 24180, Note_on_c, 5, 69, 100
9, 24209, Note_on_c, 5, 69, 0
9, 24210, Note_on_c, 5, 71, 100
9, 24239, Note_on_c, 5, 71, 0
9, 24240, Note_on_c, 5, 73, 100
9, 24269, Note_on_c, 5, 73, 0
9, 24270, Note_on_c, 5, 74, 100
9, 24299, Note_on_c, 5, 74, 0
9, 24300, Note_on_c, 5, 76, 100
9, 24329, Note_on_c, 5, 76, 0
9, 24330, Note_on_c, 5, 78, 100
9, 24359, Note_on_c, 5, 78, 0
9, 24360, Note_on_c, 5, 79, 100
9, 24419, Note_on_c, 5, 79, 0
9, 24510, Note_on_c, 5, 66, 100
9, 24539, Note_on_c, 5, 66, 0
9, 24540, Note_on_c, 5, 67, 100
9, 24569, Note_on_c, 5, 67, 0
9, 24570, Note_on_c, 5, 69, 100
9, 24599, Note_on_c, 5, 69, 0
9, 24600, Note_on_c, 5, 71, 100
9, 24629, Note_on_c, 5, 71, 0
9, 24630, Note_on_c, 5, 73, 100
9, 24659, Note_on_c, 5, 73, 0
9, 24660, Note_on_c, 5, 74, 100
9, 24689, Note_on_c, 5, 74, 0
9, 24690, Note_on_c, 5, 76, 100
9, 24719, Note_on_c, 5, 76, 0
9, 24720, Note_on_c, 5, 78, 100
9, 24779, Note_on_c, 5, 78, 0
9, 24870, Note_on_c, 5, 69, 100
9, 24899, Note_on_c, 5, 69, 0
9, 24900, Note_on_c, 5, 68, 100
9, 24929, Note_on_c, 5, 68, 0
9, 24930, Note_on_c, 5, 69, 100
9, 24959, Note_on_c, 5, 69, 0
9, 24960, Note_on_c, 5, 71, 100
9, 24989, Note_on_c, 5, 71, 0
9, 24990, Note_on_c, 5, 73, 100
9, 25019, Note_on_c, 5, 73, 0
9, 25020, Note_on_c, 5, 74, 100
9, 25049, Note_on_c, 5, 74, 0
9, 25050, Note_on_c, 5, 76, 100
9, 25079, Note_on_c, 5, 76, 0
9, 25080, Note_on_c, 5, 77, 100
9, 25139, Note_on_c, 5, 77, 0
9, 25230, Note_on_c, 5, 74, 100
9, 25259, Note_on_c, 5, 74, 0
9, 25260, Note_on_c, 5, 76, 100
9, 25289, Note_on_c, 5, 76, 0
9, 25290, Note_on_c, 5, 78, 100
9, 25319, Note_on_c, 5, 78, 0
9, 25320, Note_on_c, 5, 80, 100
9, 25349, Note_on_c, 5, 80, 0
9, 25350, Note_on_c, 5, 81, 100
9, 25379, Note_on_c, 5, 81, 0
9, 25380, Note_on_c, 5, 83, 100
9, 25409, Note_on_c, 5, 83, 0
9, 25410, Note_on_c, 5, 85, 100
9, 25439, Note_on_c, 5, 85, 0
9, 25440, Note_on_c, 5, 86, 100
9, 25499, Note_on_c, 5, 86, 0
9, 25680, Note_on_c, 5, 81, 100
9, 25739, Note_on_c, 5, 81, 0
9, 25740, Note_on_c, 5, 76, 100
9, 25799, Note_on_c, 5, 76, 0
9, 26040, Note_on_c, 5, 81, 100
9, 26099, Note_on_c, 5, 81, 0
9, 26100, Note_on_c, 5, 78, 100
9, 26159, Note_on_c, 5, 78, 0
9, 26400, Note_on_c, 5, 81, 100
9, 26459, Note_on_c, 5, 81, 0
9, 26460, Note_on_c, 5, 76, 100
9, 26519, Note_on_c, 5, 76, 0
9, 27030, Note_on_c, 5, 74, 100
9, 27059, Note_on_c, 5, 74, 0
9, 27060, Note_on_c, 5, 76, 100
9, 27089, Note_on_c, 5, 76, 0
9, 27090, Note_on_c, 5, 78, 100
9, 27119, Note_on_c, 5, 78, 0
9, 27120, Note_on_c, 5, 79, 100
9, 27149, Note_on_c, 5, 79, 0
9, 27150, Note_on_c, 5, 81, 100
9, 27179, Note_on_c, 5, 81, 0
9, 27180, Note_on_c, 5, 83, 100
9, 27209, Note_on_c, 5, 83, 0
9, 27210, Note_on_c, 5, 85, 100
9, 27239, Note_on_c, 5, 85, 0
9, 27240, Note_on_c, 5, 86, 100
9, 27269, Note_on_c, 5, 86, 0
9, 27270, Note_on_c, 5, 85, 100
9, 27299, Note_on_c, 5, 85, 0
9, 27300, Note_on_c, 5, 86, 100
9, 27329, Note_on_c, 5, 86, 0
9, 27330, Note_on_c, 5, 85, 100
9, 27359, Note_on_c, 5, 85, 0
9, 27360, Note_on_c, 5, 83, 100
9, 27389, Note_on_c, 5, 83, 0
9, 27390, Note_on_c, 5, 81, 100
9, 27419, Note_on_c, 5, 81, 0
9, 27420, Note_on_c, 5, 83, 100
9, 27449, Note_on_c, 5, 83, 0
9, 27450, Note_on_c, 5, 81, 100
9, 27479, Note_on_c, 5, 81, 0
9, 27480, Note_on_c, 5, 79, 100
9, 27509, Note_on_c, 5, 79, 0
9, 27510, Note_on_c, 5, 78, 100
9, 27539, Note_on_c, 5, 78, 0
9, 27540, Note_on_c, 5, 79, 100
9, 27569, Note_on_c, 5, 79, 0
9, 27570, Note_on_c, 5, 78, 100
9, 27599, Note_on_c, 5, 78, 0
9, 27600, Note_on_c, 5, 76, 100
9, 27629, Note_on_c, 5, 76, 0
9, 27630, Note_on_c, 5, 74, 100
9, 27659, Note_on_c, 5, 74, 0
9, 27660, Note_on_c, 5, 76, 100
9, 27689, Note_on_c, 5, 76, 0
9, 27690, Note_on_c, 5, 74, 100
9, 27719, Note_on_c, 5, 74, 0
9, 27720, Note_on_c, 5, 79, 100
9, 27779, Note_on_c, 5, 79, 0
9, 27780, Note_on_c, 5, 81, 100
9, 27809, Note_on_c, 5, 81, 0
9, 27810, Note_on_c, 5, 79, 100
9, 27839, Note_on_c, 5, 79, 0
9, 27840, Note_on_c, 5, 78, 100
9, 27869, Note_on_c, 5, 78, 0
9, 27870, Note_on_c, 5, 76, 100
9, 27899, Note_on_c, 5, 76, 0
9, 27900, Note_on_c, 5, 74, 100
9, 27929, Note_on_c, 5, 74, 0
9, 27930, Note_on_c, 5, 76, 100
9, 27959, Note_on_c, 5, 76, 0
9, 27960, Note_on_c, 5, 76, 100
9, 28049, Note_on_c, 5, 76, 0
9, 28050, Note_on_c, 5, 74, 100
9, 28079, Note_on_c, 5, 74, 0
9, 28080, Note_on_c, 5, 74, 100
9, 28199, Note_on_c, 5, 74, 0
9, 28200, Note_on_c, 5, 81, 100
9, 28259, Note_on_c, 5, 81, 0
9, 28260, Note_on_c, 5, 78, 100
9, 28319, Note_on_c, 5, 78, 0
9, 28560, Note_on_c, 5, 79, 100
9, 28619, Note_on_c, 5, 79, 0
9, 28620, Note_on_c, 5, 74, 100
9, 28679, Note_on_c, 5, 74, 0
9, 28920, Note_on_c, 5, 78, 100
9, 28979, Note_on_c, 5, 78, 0
9, 28980, Note_on_c, 5, 74, 100
9, 29039, Note_on_c, 5, 74, 0
9, 29220, Note_on_c, 5, 83, 100
9, 29249, Note_on_c, 5, 83, 0
9, 29250, Note_on_c, 5, 81, 100
9, 29279, Note_on_c, 5, 81, 0
9, 29280, Note_on_c, 5, 79, 100
9, 29309, Note_on_c, 5, 79, 0
9, 29310, Note_on_c, 5, 78, 100
9, 29339, Note_on_c, 5, 78, 0
9, 29340, Note_on_c, 5, 79, 100
9, 29369, Note_on_c, 5, 79, 0
9, 29370, Note_on_c, 5, 78, 100
9, 29399, Note_on_c, 5, 78, 0
9, 29400, Note_on_c, 5, 76, 100
9, 29429, Note_on_c, 5, 76, 0
9, 29430, Note_on_c, 5, 74, 100
9, 29459, Note_on_c, 5, 74, 0
9, 29460, Note_on_c, 5, 76, 100
9, 29489, Note_on_c, 5, 76, 0
9, 29490, Note_on_c, 5, 74, 100
9, 29519, Note_on_c, 5, 74, 0
9, 29520, Note_on_c, 5, 79, 100
9, 29579, Note_on_c, 5, 79, 0
9, 29580, Note_on_c, 5, 81, 100
9, 29609, Note_on_c, 5, 81, 0
9, 29610, Note_on_c, 5, 79, 100
9, 29639, Note_on_c, 5, 79, 0
9, 29640, Note_on_c, 5, 78, 100
9, 29669, Note_on_c, 5, 78, 0
9, 29670, Note_on_c, 5, 76, 100
9, 29699, Note_on_c, 5, 76, 0
9, 29700, Note_on_c, 5, 74, 100
9, 29729, Note_on_c, 5, 74, 0
9, 29730, Note_on_c, 5, 76, 100
9, 29759, Note_on_c, 5, 76, 0
9, 29760, Note_on_c, 5, 76, 100
9, 29849, Note_on_c, 5, 76, 0
9, 29850, Note_on_c, 5, 74, 100
9, 29879, Note_on_c, 5, 74, 0
9, 29880, Note_on_c, 5, 74, 100
9, 29999, Note_on_c, 5, 74, 0
9, 30270, Note_on_c, 5, 73, 100
9, 30299, Note_on_c, 5, 73, 0
9, 30300, Note_on_c, 5, 74, 100
9, 30329, Note_on_c, 5, 74, 0
9, 30330, Note_on_c, 5, 76, 100
9, 30359, Note_on_c, 5, 76, 0
9, 30360, Note_on_c, 5, 78, 100
9, 30389, Note_on_c, 5, 78, 0
9, 30390, Note_on_c, 5, 79, 100
9, 30419, Note_on_c, 5, 79, 0
9, 30420, Note_on_c, 5, 81, 100
9, 30449, Note_on_c, 5, 81, 0
9, 30450, Note_on_c, 5, 83, 100
9, 30479, Note_on_c, 5, 83, 0
9, 30480, Note_on_c, 5, 85, 100
9, 30509, Note_on_c, 5, 85, 0
9, 30510, Note_on_c, 5, 86, 100
9, 30539, Note_on_c, 5, 86, 0
9, 30540, Note_on_c, 5, 88, 100
9, 30569, Note_on_c, 5, 88, 0
9, 30570, Note_on_c, 5, 90, 100
9, 30599, Note_on_c, 5, 90, 0
9, 30600, Note_on_c, 5, 91, 100
9, 30659, Note_on_c, 5, 91, 0
9, 30990, Note_on_c, 5, 79, 100
9, 31019, Note_on_c, 5, 79, 0
9, 31020, Note_on_c, 5, 78, 100
9, 31049, Note_on_c, 5, 78, 0
9, 31050, Note_on_c, 5, 76, 100
9, 31079, Note_on_c, 5, 76, 0
9, 31080, Note_on_c, 5, 74, 100
9, 31109, Note_on_c, 5, 74, 0
9, 31110, Note_on_c, 5, 73, 100
9, 31139, Note_on_c, 5, 73, 0
9, 31140, Note_on_c, 5, 71, 100
9, 31169, Note_on_c, 5, 71, 0
9, 31170, Note_on_c, 5, 70, 100
9, 31199, Note_on_c, 5, 70, 0
9, 31200, Note_on_c, 5, 71, 100
9, 31259, Note_on_c, 5, 71, 0
9, 31740, Note_on_c, 5, 66, 100
9, 31769, Note_on_c, 5, 66, 0
9, 31770, Note_on_c, 5, 68, 100
9, 31799, Note_on_c, 5, 68, 0
9, 31800, Note_on_c, 5, 70, 100
9, 31829, Note_on_c, 5, 70, 0
9, 31830, Note_on_c, 5, 71, 100
9, 31859, Note_on_c, 5, 71, 0
9, 31860, Note_on_c, 5, 73, 100
9, 31889, Note_on_c, 5, 73, 0
9, 31890, Note_on_c, 5, 74, 100
9, 31919, Note_on_c, 5, 74, 0
9, 31920, Note_on_c, 5, 76, 100
9, 31949, Note_on_c, 5, 76, 0
9, 31950, Note_on_c, 5, 74, 100
9, 31979, Note_on_c, 5, 74, 0
9, 31980, Note_on_c, 5, 76, 100
9, 32009, Note_on_c, 5, 76, 0
9, 32010, Note_on_c, 5, 74, 100
9, 32039, Note_on_c, 5, 74, 0
9, 32040, Note_on_c, 5, 73, 100
9, 32069, Note_on_c, 5, 73, 0
9, 32070, Note_on_c, 5, 71, 100
9, 32099, Note_on_c, 5, 71, 0
9, 32100, Note_on_c, 5, 70, 100
9, 32129, Note_on_c, 5, 70, 0
9, 32130, Note_on_c, 5, 71, 100
9, 32159, Note_on_c, 5, 71, 0
9, 32160, Note_on_c, 5, 73, 100
9, 32189, Note_on_c, 5, 73, 0
9, 32190, Note_on_c, 5, 71, 100
9, 32219, Note_on_c, 5, 71, 0
9, 32220, Note_on_c, 5, 70, 100
9, 32249, Note_on_c, 5, 70, 0
9, 32250, Note_on_c, 5, 71, 100
9, 32279, Note_on_c, 5, 71, 0
9, 32280, Note_on_c, 5, 73, 100
9, 32309, Note_on_c, 5, 73, 0
9, 32310, Note_on_c, 5, 71, 100
9, 32339, Note_on_c, 5, 71, 0
9, 32340, Note_on_c, 5, 70, 100
9, 32369, Note_on_c, 5, 70, 0
9, 32370, Note_on_c, 5, 68, 100
9, 32399, Note_on_c, 5, 68, 0
9, 32400, Note_on_c, 5, 70, 100
9, 32429, Note_on_c, 5, 70, 0
9, 32430, Note_on_c, 5, 66, 100
9, 32459, Note_on_c, 5, 66, 0
9, 32460, Note_on_c, 5, 68, 100
9, 32489, Note_on_c, 5, 68, 0
9, 32490, Note_on_c, 5, 70, 100
9, 32519, Note_on_c, 5, 70, 0
9, 32520, Note_on_c, 5, 71, 100
9, 32549, Note_on_c, 5, 71, 0
9, 32550, Note_on_c, 5, 73, 100
9, 32579, Note_on_c, 5, 73, 0
9, 32580, Note_on_c, 5, 74, 100
9, 32609, Note_on_c, 5, 74, 0
9, 32610, Note_on_c, 5, 76, 100
9, 32639, Note_on_c, 5, 76, 0
9, 32640, Note_on_c, 5, 78, 100
9, 32669, Note_on_c, 5, 78, 0
9, 32670, Note_on_c, 5, 79, 100
9, 32699, Note_on_c, 5, 79, 0
9, 32700, Note_on_c, 5, 76, 100
9, 32729, Note_on_c, 5, 76, 0
9, 32730, Note_on_c, 5, 78, 100
9, 32759, Note_on_c, 5, 78, 0
9, 32760, Note_on_c, 5, 74, 100
9, 32879, Note_on_c, 5, 74, 0
9, 33870, Note_on_c, 5, 71, 100
9, 33899, Note_on_c, 5, 71, 0
9, 33900, Note_on_c, 5, 73, 100
9, 33929, Note_on_c, 5, 73, 0
9, 33930, Note_on_c, 5, 75, 100
9, 33959, Note_on_c, 5, 75, 0
9, 33960, Note_on_c, 5, 76, 100
9, 33989, Note_on_c, 5, 76, 0
9, 33990, Note_on_c, 5, 78, 100
9, 34019, Note_on_c, 5, 78, 0
9, 34020, Note_on_c, 5, 79, 100
9, 34049, Note_on_c, 5, 79, 0
9, 34050, Note_on_c, 5, 81, 100
9, 34079, Note_on_c, 5, 81, 0
9, 34080, Note_on_c, 5, 83, 100
9, 34139, Note_on_c, 5, 83, 0
9, 34230, Note_on_c, 5, 69, 100
9, 34259, Note_on_c, 5, 69, 0
9, 34260, Note_on_c, 5, 71, 100
9, 34289, Note_on_c, 5, 71, 0
9, 34290, Note_on_c, 5, 73, 100
9, 34319, Note_on_c, 5, 73, 0
9, 34320, Note_on_c, 5, 74, 100
9, 34349, Note_on_c, 5, 74, 0
9, 34350, Note_on_c, 5, 76, 100
9, 34379, Note_on_c, 5, 76, 0
9, 34380, Note_on_c, 5, 78, 100
9, 34409, Note_on_c, 5, 78, 0
9, 34410, Note_on_c, 5, 79, 100
9, 34439, Note_on_c, 5, 79, 0
9, 34440, Note_on_c, 5, 81, 100
9, 34469, Note_on_c, 5, 81, 0
9, 34470, Note_on_c, 5, 83, 100
9, 34499, Note_on_c, 5, 83, 0
9, 34500, Note_on_c, 5, 81, 100
9, 34529, Note_on_c, 5, 81, 0
9, 34530, Note_on_c, 5, 79, 100
9, 34559, Note_on_c, 5, 79, 0
9, 34560, Note_on_c, 5, 78, 100
9, 34589, Note_on_c, 5, 78, 0
9, 34590, Note_on_c, 5, 69, 100
9, 34619, Note_on_c, 5, 69, 0
9, 34620, Note_on_c, 5, 71, 100
9, 34649, Note_on_c, 5, 71, 0
9, 34650, Note_on_c, 5, 73, 100
9, 34679, Note_on_c, 5, 73, 0
9, 34680, Note_on_c, 5, 74, 100
9, 34709, Note_on_c, 5, 74, 0
9, 34710, Note_on_c, 5, 76, 100
9, 34739, Note_on_c, 5, 76, 0
9, 34740, Note_on_c, 5, 78, 100
9, 34769, Note_on_c, 5, 78, 0
9, 34770, Note_on_c, 5, 79, 100
9, 34799, Note_on_c, 5, 79, 0
9, 34800, Note_on_c, 5, 81, 100
9, 34859, Note_on_c, 5, 81, 0
9, 34950, Note_on_c, 5, 67, 100
9, 34979, Note_on_c, 5, 67, 0
9, 34980, Note_on_c, 5, 69, 100
9, 35009, Note_on_c, 5, 69, 0
9, 35010, Note_on_c, 5, 71, 100
9, 35039, Note_on_c, 5, 71, 0
9, 35040, Note_on_c, 5, 73, 100
9, 35069, Note_on_c, 5, 73, 0
9, 35070, Note_on_c, 5, 74, 100
9, 35099, Note_on_c, 5, 74, 0
9, 35100, Note_on_c, 5, 76, 100
9, 35129, Note_on_c, 5, 76, 0
9, 35130, Note_on_c, 5, 78, 100
9, 35159, Note_on_c, 5, 78, 0
9, 35160, Note_on_c, 5, 79, 100
9, 35189, Note_on_c, 5, 79, 0
9, 35190, Note_on_c, 5, 81, 100
9, 35219, Note_on_c, 5, 81, 0
9, 35220, Note_on_c, 5, 79, 100
9, 35249, Note_on_c, 5, 79, 0
9, 35250, Note_on_c, 5, 78, 100
9, 35279, Note_on_c, 5, 78, 0
9, 35280, Note_on_c, 5, 76, 100
9, 35309, Note_on_c, 5, 76, 0
9, 35310, Note_on_c, 5, 67, 100
9, 35339, Note_on_c, 5, 67, 0
9, 35340, Note_on_c, 5, 69, 100
9, 35369, Note_on_c, 5, 69, 0
9, 35370, Note_on_c, 5, 71, 100
9, 35399, Note_on_c, 5, 71, 0
9, 35400, Note_on_c, 5, 73, 100
9, 35429, Note_on_c, 5, 73, 0
9, 35430, Note_on_c, 5, 74, 100
9, 35459, Note_on_c, 5, 74, 0
9, 35460, Note_on_c, 5, 76, 100
9, 35489, Note_on_c, 5, 76, 0
9, 35490, Note_on_c, 5, 78, 100
9, 35519, Note_on_c, 5, 78, 0
9, 35520, Note_on_c, 5, 79, 100
9, 35579, Note_on_c, 5, 79, 0
9, 35670, Note_on_c, 5, 66, 100
9, 35699, Note_on_c, 5, 66, 0
9, 35700, Note_on_c, 5, 68, 100
9, 35729, Note_on_c, 5, 68, 0
9, 35730, Note_on_c, 5, 70, 100
9, 35759, Note_on_c, 5, 70, 0
9, 35760, Note_on_c, 5, 71, 100
9, 35789, Note_on_c, 5, 71, 0
9, 35790, Note_on_c, 5, 73, 100
9, 35819, Note_on_c, 5, 73, 0
9, 35820, Note_on_c, 5, 74, 100
9, 35849, Note_on_c, 5, 74, 0
9, 35850, Note_on_c, 5, 76, 100
9, 35879, Note_on_c, 5, 76, 0
9, 35880, Note_on_c, 5, 78, 100
9, 35909, Note_on_c, 5, 78, 0
9, 35910, Note_on_c, 5, 79, 100
9, 35939, Note_on_c, 5, 79, 0
9, 35940, Note_on_c, 5, 78, 100
9, 35969, Note_on_c, 5, 78, 0
9, 35970, Note_on_c, 5, 76, 100
9, 35999, Note_on_c, 5, 76, 0
9, 36000, Note_on_c, 5, 74, 100
9, 36029, Note_on_c, 5, 74, 0
9, 36030, Note_on_c, 5, 71, 100
9, 36059, Note_on_c, 5, 71, 0
9, 36060, Note_on_c, 5, 79, 100
9, 36089, Note_on_c, 5, 79, 0
9, 36090, Note_on_c, 5, 78, 100
9, 36119, Note_on_c, 5, 78, 0
9, 36120, Note_on_c, 5, 76, 100
9, 36149, Note_on_c, 5, 76, 0
9, 36150, Note_on_c, 5, 74, 100
9, 36179, Note_on_c, 5, 74, 0
9, 36180, Note_on_c, 5, 76, 100
9, 36209, Note_on_c, 5, 76, 0
9, 36210, Note_on_c, 5, 74, 100
9, 36239, Note_on_c, 5, 74, 0
9, 36240, Note_on_c, 5, 72, 100
9, 36269, Note_on_c, 5, 72, 0
9, 36270, Note_on_c, 5, 71, 100
9, 36299, Note_on_c, 5, 71, 0
9, 36300, Note_on_c, 5, 72, 100
9, 36329, Note_on_c, 5, 72, 0
9, 36330, Note_on_c, 5, 71, 100
9, 36359, Note_on_c, 5, 71, 0
9, 36360, Note_on_c, 5, 70, 100
9, 36479, Note_on_c, 5, 70, 0
9, 36480, Note_on_c, 5, 76, 100
9, 36539, Note_on_c, 5, 76, 0
9, 36540, Note_on_c, 5, 73, 100
9, 36599, Note_on_c, 5, 73, 0
9, 36840, Note_on_c, 5, 78, 100
9, 36899, Note_on_c, 5, 78, 0
9, 36900, Note_on_c, 5, 74, 100
9, 36959, Note_on_c, 5, 74, 0
9, 37200, Note_on_c, 5, 79, 100
9, 37259, Note_on_c, 5, 79, 0
9, 37260, Note_on_c, 5, 76, 100
9, 37319, Note_on_c, 5, 76, 0
9, 37500, Note_on_c, 5, 79, 100
9, 37529, Note_on_c, 5, 79, 0
9, 37530, Note_on_c, 5, 78, 100
9, 37559, Note_on_c, 5, 78, 0
9, 37560, Note_on_c, 5, 76, 100
9, 37589, Note_on_c, 5, 76, 0
9, 37590, Note_on_c, 5, 74, 100
9, 37619, Note_on_c, 5, 74, 0
9, 37620, Note_on_c, 5, 73, 100
9, 37649, Note_on_c, 5, 73, 0
9, 37650, Note_on_c, 5, 71, 100
9, 37679, Note_on_c, 5, 71, 0
9, 37680, Note_on_c, 5, 74, 100
9, 37709, Note_on_c, 5, 74, 0
9, 37710, Note_on_c, 5, 73, 100
9, 37739, Note_on_c, 5, 73, 0
9, 37740, Note_on_c, 5, 71, 100
9, 37769, Note_on_c, 5, 71, 0
9, 37770, Note_on_c, 5, 70, 100
9, 37799, Note_on_c, 5, 70, 0
9, 37800, Note_on_c, 5, 80, 100
9, 37859, Note_on_c, 5, 80, 0
9, 37860, Note_on_c, 5, 77, 100
9, 37919, Note_on_c, 5, 77, 0
9, 38160, Note_on_c, 5, 78, 100
9, 38219, Note_on_c, 5, 78, 0
9, 38220, Note_on_c, 5, 73, 100
9, 38279, Note_on_c, 5, 73, 0
9, 38520, Note_on_c, 5, 77, 100
9, 38579, Note_on_c, 5, 77, 0
9, 38580, Note_on_c, 5, 71, 100
9, 38639, Note_on_c, 5, 71, 0
9, 38880, Note_on_c, 5, 73, 100
9, 38939, Note_on_c, 5, 73, 0
9, 38940, Note_on_c, 5, 69, 100
9, 38999, Note_on_c, 5, 69, 0
9, 39060, Note_on_c, 5, 73, 100
9, 39119, Note_on_c, 5, 73, 0
9, 39120, Note_on_c, 5, 78, 100
9, 39149, Note_on_c, 5, 78, 0
9, 39150, Note_on_c, 5, 76, 100
9, 39179, Note_on_c, 5, 76, 0
9, 39180, Note_on_c, 5, 78, 100
9, 39209, Note_on_c, 5, 78, 0
9, 39210, Note_on_c, 5, 76, 100
9, 39239, Note_on_c, 5, 76, 0
9, 39240, Note_on_c, 5, 74, 100
9, 39269, Note_on_c, 5, 74, 0
9, 39270, Note_on_c, 5, 73, 100
9, 39299, Note_on_c, 5, 73, 0
9, 39300, Note_on_c, 5, 74, 100
9, 39329, Note_on_c, 5, 74, 0
9, 39330, Note_on_c, 5, 71, 100
9, 39359, Note_on_c, 5, 71, 0
9, 39360, Note_on_c, 5, 77, 100
9, 39419, Note_on_c, 5, 77, 0
9, 39420, Note_on_c, 5, 78, 100
9, 39479, Note_on_c, 5, 78, 0
9, 39480, Note_on_c, 5, 73, 100
9, 39539, Note_on_c, 5, 73, 0
9, 39540, Note_on_c, 5, 77, 100
9, 39599, Note_on_c, 5, 77, 0
9, 39600, Note_on_c, 5, 78, 100
9, 39959, Note_on_c, 5, 78, 0
9, 40350, Note_on_c, 5, 74, 100
9, 40380, Note_on_c, 5, 74, 0
9, 40380, Note_on_c, 5, 76, 100
9, 40410, Note_on_c, 5, 76, 0
9, 40410, Note_on_c, 5, 78, 100
9, 40440, Note_on_c, 5, 78, 0
9, 40440, Note_on_c, 5, 79, 100
9, 40470, Note_on_c, 5, 79, 0
9, 40470, Note_on_c, 5, 81, 100
9, 40500, Note_on_c, 5, 81, 0
9, 40500, Note_on_c, 5, 83, 100
9, 40530, Note_on_c, 5, 83, 0
9, 40530, Note_on_c, 5, 85, 100
9, 40560, Note_on_c, 5, 85, 0
9, 40560, Note_on_c, 5, 86, 100
9, 40590, Note_on_c, 5, 86, 0
9, 40590, Note_on_c, 5, 85, 100
9, 40620, Note_on_c, 5, 85, 0
9, 40620, Note_on_c, 5, 86, 100
9, 40650, Note_on_c, 5, 86, 0
9, 40650, Note_on_c, 5, 85, 100
9, 40680, Note_on_c, 5, 85, 0
9, 40680, Note_on_c, 5, 86, 100
9, 40710, Note_on_c, 5, 86, 0
9, 41040, Note_on_c, 5, 62, 100
9, 41100, Note_on_c, 5, 62, 0
9, 41160, Note_on_c, 5, 78, 100
9, 41220, Note_on_c, 5, 78, 0
9, 41220, Note_on_c, 5, 74, 100
9, 41280, Note_on_c, 5, 74, 0
9, 41790, Note_on_c, 5, 74, 100
9, 41819, Note_on_c, 5, 74, 0
9, 41820, Note_on_c, 5, 76, 100
9, 41849, Note_on_c, 5, 76, 0
9, 41850, Note_on_c, 5, 78, 100
9, 41879, Note_on_c, 5, 78, 0
9, 41880, Note_on_c, 5, 79, 100
9, 41909, Note_on_c, 5, 79, 0
9, 41910, Note_on_c, 5, 81, 100
9, 41939, Note_on_c, 5, 81, 0
9, 41940, Note_on_c, 5, 83, 100
9, 41969, Note_on_c, 5, 83, 0
9, 41970, Note_on_c, 5, 85, 100
9, 41999, Note_on_c, 5, 85, 0
9, 42000, Note_on_c, 5, 86, 100
9, 42029, Note_on_c, 5, 86, 0
9, 42030, Note_on_c, 5, 85, 100
9, 42059, Note_on_c, 5, 85, 0
9, 42060, Note_on_c, 5, 86, 100
9, 42089, Note_on_c, 5, 86, 0
9, 42090, Note_on_c, 5, 85, 100
9, 42119, Note_on_c, 5, 85, 0
9, 42120, Note_on_c, 5, 83, 100
9, 42149, Note_on_c, 5, 83, 0
9, 42150, Note_on_c, 5, 81, 100
9, 42179, Note_on_c, 5, 81, 0
9, 42180, Note_on_c, 5, 83, 100
9, 42209, Note_on_c, 5, 83, 0
9, 42210, Note_on_c, 5, 81, 100
9, 42239, Note_on_c, 5, 81, 0
9, 42240, Note_on_c, 5, 80, 100
9, 42269, Note_on_c, 5, 80, 0
9, 42270, Note_on_c, 5, 78, 100
9, 42299, Note_on_c, 5, 78, 0
9, 42300, Note_on_c, 5, 80, 100
9, 42329, Note_on_c, 5, 80, 0
9, 42330, Note_on_c, 5, 78, 100
9, 42359, Note_on_c, 5, 78, 0
9, 42360, Note_on_c, 5, 76, 100
9, 42389, Note_on_c, 5, 76, 0
9, 42390, Note_on_c, 5, 74, 100
9, 42419, Note_on_c, 5, 74, 0
9, 42420, Note_on_c, 5, 76, 100
9, 42449, Note_on_c, 5, 76, 0
9, 42450, Note_on_c, 5, 74, 100
9, 42479, Note_on_c, 5, 74, 0
9, 42480, Note_on_c, 5, 73, 100
9, 42509, Note_on_c, 5, 73, 0
9, 42510, Note_on_c, 5, 76, 100
9, 42539, Note_on_c, 5, 76, 0
9, 42540, Note_on_c, 5, 81, 100
9, 42569, Note_on_c, 5, 81, 0
9, 42570, Note_on_c, 5, 83, 100
9, 42599, Note_on_c, 5, 83, 0
9, 42600, Note_on_c, 5, 85, 100
9, 42629, Note_on_c, 5, 85, 0
9, 42630, Note_on_c, 5, 83, 100
9, 42659, Note_on_c, 5, 83, 0
9, 42660, Note_on_c, 5, 81, 100
9, 42689, Note_on_c, 5, 81, 0
9, 42690, Note_on_c, 5, 83, 100
9, 42719, Note_on_c, 5, 83, 0
9, 42720, Note_on_c, 5, 83, 100
9, 42809, Note_on_c, 5, 83, 0
9, 42810, Note_on_c, 5, 81, 100
9, 42839, Note_on_c, 5, 81, 0
9, 42840, Note_on_c, 5, 81, 100
9, 42899, Note_on_c, 5, 81, 0
9, 42900, Note_on_c, 5, 73, 100
9, 42959, Note_on_c, 5, 73, 0
9, 42960, Note_on_c, 5, 73, 100
9, 43019, Note_on_c, 5, 73, 0
9, 43020, Note_on_c, 5, 73, 100
9, 43079, Note_on_c, 5, 73, 0
9, 43080, Note_on_c, 5, 73, 100
9, 43139, Note_on_c, 5, 73, 0
9, 43140, Note_on_c, 5, 74, 100
9, 43169, Note_on_c, 5, 74, 0
9, 43170, Note_on_c, 5, 76, 100
9, 43199, Note_on_c, 5, 76, 0
9, 43200, Note_on_c, 5, 78, 100
9, 43259, Note_on_c, 5, 78, 0
9, 43260, Note_on_c, 5, 81, 100
9, 43289, Note_on_c, 5, 81, 0
9, 43290, Note_on_c, 5, 79, 100
9, 43319, Note_on_c, 5, 79, 0
9, 43320, Note_on_c, 5, 78, 100
9, 43379, Note_on_c, 5, 78, 0
9, 43380, Note_on_c, 5, 81, 100
9, 43409, Note_on_c, 5, 81, 0
9, 43410, Note_on_c, 5, 79, 100
9, 43439, Note_on_c, 5, 79, 0
9, 43440, Note_on_c, 5, 78, 100
9, 43499, Note_on_c, 5, 78, 0
9, 43500, Note_on_c, 5, 78, 100
9, 43559, Note_on_c, 5, 78, 0
9, 43560, Note_on_c, 5, 78, 100
9, 43919, Note_on_c, 5, 78, 0
9, 43920, Note_on_c, 5, 76, 100
9, 43949, Note_on_c, 5, 76, 0
9, 43950, Note_on_c, 5, 71, 100
9, 43979, Note_on_c, 5, 71, 0
9, 43980, Note_on_c, 5, 73, 100
9, 44009, Note_on_c, 5, 73, 0
9, 44010, Note_on_c, 5, 75, 100
9, 44039, Note_on_c, 5, 75, 0
9, 44040, Note_on_c, 5, 76, 100
9, 44069, Note_on_c, 5, 76, 0
9, 44070, Note_on_c, 5, 78, 100
9, 44099, Note_on_c, 5, 78, 0
9, 44100, Note_on_c, 5, 79, 100
9, 44129, Note_on_c, 5, 79, 0
9, 44130, Note_on_c, 5, 81, 100
9, 44159, Note_on_c, 5, 81, 0
9, 44160, Note_on_c, 5, 83, 100
9, 44189, Note_on_c, 5, 83, 0
9, 44190, Note_on_c, 5, 81, 100
9, 44219, Note_on_c, 5, 81, 0
9, 44220, Note_on_c, 5, 83, 100
9, 44249, Note_on_c, 5, 83, 0
9, 44250, Note_on_c, 5, 81, 100
9, 44279, Note_on_c, 5, 81, 0
9, 44280, Note_on_c, 5, 79, 100
9, 44639, Note_on_c, 5, 79, 0
9, 44670, Note_on_c, 5, 69, 100
9, 44699, Note_on_c, 5, 69, 0
9, 44700, Note_on_c, 5, 71, 100
9, 44729, Note_on_c, 5, 71, 0
9, 44730, Note_on_c, 5, 73, 100
9, 44759, Note_on_c, 5, 73, 0
9, 44760, Note_on_c, 5, 74, 100
9, 44789, Note_on_c, 5, 74, 0
9, 44790, Note_on_c, 5, 76, 100
9, 44819, Note_on_c, 5, 76, 0
9, 44820, Note_on_c, 5, 78, 100
9, 44849, Note_on_c, 5, 78, 0
9, 44850, Note_on_c, 5, 79, 100
9, 44879, Note_on_c, 5, 79, 0
9, 44880, Note_on_c, 5, 81, 100
9, 44909, Note_on_c, 5, 81, 0
9, 44910, Note_on_c, 5, 83, 100
9, 44939, Note_on_c, 5, 83, 0
9, 44940, Note_on_c, 5, 79, 100
9, 44969, Note_on_c, 5, 79, 0
9, 44970, Note_on_c, 5, 81, 100
9, 44999, Note_on_c, 5, 81, 0
9, 45000, Note_on_c, 5, 78, 100
9, 45029, Note_on_c, 5, 78, 0
9, 45030, Note_on_c, 5, 69, 100
9, 45059, Note_on_c, 5, 69, 0
9, 45060, Note_on_c, 5, 71, 100
9, 45089, Note_on_c, 5, 71, 0
9, 45090, Note_on_c, 5, 73, 100
9, 45119, Note_on_c, 5, 73, 0
9, 45120, Note_on_c, 5, 74, 100
9, 45149, Note_on_c, 5, 74, 0
9, 45150, Note_on_c, 5, 76, 100
9, 45179, Note_on_c, 5, 76, 0
9, 45180, Note_on_c, 5, 78, 100
9, 45209, Note_on_c, 5, 78, 0
9, 45210, Note_on_c, 5, 79, 100
9, 45239, Note_on_c, 5, 79, 0
9, 45240, Note_on_c, 5, 81, 100
9, 45299, Note_on_c, 5, 81, 0
9, 45390, Note_on_c, 5, 71, 100
9, 45419, Note_on_c, 5, 71, 0
9, 45420, Note_on_c, 5, 73, 100
9, 45449, Note_on_c, 5, 73, 0
9, 45450, Note_on_c, 5, 74, 100
9, 45479, Note_on_c, 5, 74, 0
9, 45480, Note_on_c, 5, 76, 100
9, 45509, Note_on_c, 5, 76, 0
9, 45510, Note_on_c, 5, 78, 100
9, 45539, Note_on_c, 5, 78, 0
9, 45540, Note_on_c, 5, 79, 100
9, 45569, Note_on_c, 5, 79, 0
9, 45570, Note_on_c, 5, 81, 100
9, 45599, Note_on_c, 5, 81, 0
9, 45600, Note_on_c, 5, 83, 100
9, 45659, Note_on_c, 5, 83, 0
9, 45750, Note_on_c, 5, 69, 100
9, 45779, Note_on_c, 5, 69, 0
9, 45780, Note_on_c, 5, 71, 100
9, 45809, Note_on_c, 5, 71, 0
9, 45810, Note_on_c, 5, 73, 100
9, 45839, Note_on_c, 5, 73, 0
9, 45840, Note_on_c, 5, 74, 100
9, 45869, Note_on_c, 5, 74, 0
9, 45870, Note_on_c, 5, 76, 100
9, 45899, Note_on_c, 5, 76, 0
9, 45900, Note_on_c, 5, 78, 100
9, 45929, Note_on_c, 5, 78, 0
9, 45930, Note_on_c, 5, 79, 100
9, 45959, Note_on_c, 5, 79, 0
9, 45960, Note_on_c, 5, 81, 100
9, 46019, Note_on_c, 5, 81, 0
9, 46110, Note_on_c, 5, 67, 100
9, 46139, Note_on_c, 5, 67, 0
9, 46140, Note_on_c, 5, 69, 100
9, 46169, Note_on_c, 5, 69, 0
9, 46170, Note_on_c, 5, 71, 100
9, 46199, Note_on_c, 5, 71, 0
9, 46200, Note_on_c, 5, 73, 100
9, 46229, Note_on_c, 5, 73, 0
9, 46230, Note_on_c, 5, 74, 100
9, 46259, Note_on_c, 5, 74, 0
9, 46260, Note_on_c, 5, 76, 100
9, 46289, Note_on_c, 5, 76, 0
9, 46290, Note_on_c, 5, 78, 100
9, 46319, Note_on_c, 5, 78, 0
9, 46320, Note_on_c, 5, 79, 100
9, 46379, Note_on_c, 5, 79, 0
9, 46470, Note_on_c, 5, 66, 100
9, 46499, Note_on_c, 5, 66, 0
9, 46500, Note_on_c, 5, 67, 100
9, 46529, Note_on_c, 5, 67, 0
9, 46530, Note_on_c, 5, 69, 100
9, 46559, Note_on_c, 5, 69, 0
9, 46560, Note_on_c, 5, 71, 100
9, 46589, Note_on_c, 5, 71, 0
9, 46590, Note_on_c, 5, 73, 100
9, 46619, Note_on_c, 5, 73, 0
9, 46620, Note_on_c, 5, 74, 100
9, 46649, Note_on_c, 5, 74, 0
9, 46650, Note_on_c, 5, 76, 100
9, 46679, Note_on_c, 5, 76, 0
9, 46680, Note_on_c, 5, 78, 100
9, 46739, Note_on_c, 5, 78, 0
9, 46830, Note_on_c, 5, 69, 100
9, 46859, Note_on_c, 5, 69, 0
9, 46860, Note_on_c, 5, 68, 100
9, 46889, Note_on_c, 5, 68, 0
9, 46890, Note_on_c, 5, 69, 100
9, 46919, Note_on_c, 5, 69, 0
9, 46920, Note_on_c, 5, 71, 100
9, 46949, Note_on_c, 5, 71, 0
9, 46950, Note_on_c, 5, 73, 100
9, 46979, Note_on_c, 5, 73, 0
9, 46980, Note_on_c, 5, 74, 100
9, 47009, Note_on_c, 5, 74, 0
9, 47010, Note_on_c, 5, 76, 100
9, 47039, Note_on_c, 5, 76, 0
9, 47040, Note_on_c, 5, 77, 100
9, 47099, Note_on_c, 5, 77, 0
9, 47190, Note_on_c, 5, 74, 100
9, 47219, Note_on_c, 5, 74, 0
9, 47220, Note_on_c, 5, 76, 100
9, 47249, Note_on_c, 5, 76, 0
9, 47250, Note_on_c, 5, 78, 100
9, 47279, Note_on_c, 5, 78, 0
9, 47280, Note_on_c, 5, 80, 100
9, 47309, Note_on_c, 5, 80, 0
9, 47310, Note_on_c, 5, 81, 100
9, 47339, Note_on_c, 5, 81, 0
9, 47340, Note_on_c, 5, 83, 100
9, 47369, Note_on_c, 5, 83, 0
9, 47370, Note_on_c, 5, 85, 100
9, 47399, Note_on_c, 5, 85, 0
9, 47400, Note_on_c, 5, 86, 100
9, 47459, Note_on_c, 5, 86, 0
9, 47640, Note_on_c, 5, 81, 100
9, 47699, Note_on_c, 5, 81, 0
9, 47700, Note_on_c, 5, 76, 100
9, 47759, Note_on_c, 5, 76, 0
9, 48000, Note_on_c, 5, 81, 100
9, 48059, Note_on_c, 5, 81, 0
9, 48060, Note_on_c, 5, 78, 100
9, 48119, Note_on_c, 5, 78, 0
9, 48360, Note_on_c, 5, 81, 100
9, 48419, Note_on_c, 5, 81, 0
9, 48420, Note_on_c, 5, 76, 100
9, 48479, Note_on_c, 5, 76, 0
9, 48990, Note_on_c, 5, 74, 100
9, 49019, Note_on_c, 5, 74, 0
9, 49020, Note_on_c, 5, 76, 100
9, 49049, Note_on_c, 5, 76, 0
9, 49050, Note_on_c, 5, 78, 100
9, 49079, Note_on_c, 5, 78, 0
9, 49080, Note_on_c, 5, 79, 100
9, 49109, Note_on_c, 5, 79, 0
9, 49110, Note_on_c, 5, 81, 100
9, 49139, Note_on_c, 5, 81, 0
9, 49140, Note_on_c, 5, 83, 100
9, 49169, Note_on_c, 5, 83, 0
9, 49170, Note_on_c, 5, 85, 100
9, 49199, Note_on_c, 5, 85, 0
9, 49200, Note_on_c, 5, 86, 100
9, 49229, Note_on_c, 5, 86, 0
9, 49230, Note_on_c, 5, 85, 100
9, 49259, Note_on_c, 5, 85, 0
9, 49260, Note_on_c, 5, 86, 100
9, 49289, Note_on_c, 5, 86, 0
9, 49290, Note_on_c, 5, 85, 100
9, 49319, Note_on_c, 5, 85, 0
9, 49320, Note_on_c, 5, 83, 100
9, 49349, Note_on_c, 5, 83, 0
9, 49350, Note_on_c, 5, 81, 100
9, 49379, Note_on_c, 5, 81, 0
9, 49380, Note_on_c, 5, 83, 100
9, 49409, Note_on_c, 5, 83, 0
9, 49410, Note_on_c, 5, 81, 100
9, 49439, Note_on_c, 5, 81, 0
9, 49440, Note_on_c, 5, 79, 100
9, 49469, Note_on_c, 5, 79, 0
9, 49470, Note_on_c, 5, 78, 100
9, 49499, Note_on_c, 5, 78, 0
9, 49500, Note_on_c, 5, 79, 100
9, 49529, Note_on_c, 5, 79, 0
9, 49530, Note_on_c, 5, 78, 100
9, 49559, Note_on_c, 5, 78, 0
9, 49560, Note_on_c, 5, 76, 100
9, 49589, Note_on_c, 5, 76, 0
9, 49590, Note_on_c, 5, 74, 100
9, 49619, Note_on_c, 5, 74, 0
9, 49620, Note_on_c, 5, 76, 100
9, 49649, Note_on_c, 5, 76, 0
9, 49650, Note_on_c, 5, 74, 100
9, 49679, Note_on_c, 5, 74, 0
9, 49680, Note_on_c, 5, 79, 100
9, 49739, Note_on_c, 5, 79, 0
9, 49740, Note_on_c, 5, 81, 100
9, 49769, Note_on_c, 5, 81, 0
9, 49770, Note_on_c, 5, 79, 100
9, 49799, Note_on_c, 5, 79, 0
9, 49800, Note_on_c, 5, 78, 100
9, 49829, Note_on_c, 5, 78, 0
9, 49830, Note_on_c, 5, 76, 100
9, 49859, Note_on_c, 5, 76, 0
9, 49860, Note_on_c, 5, 74, 100
9, 49889, Note_on_c, 5, 74, 0
9, 49890, Note_on_c, 5, 76, 100
9, 49919, Note_on_c, 5, 76, 0
9, 49920, Note_on_c, 5, 76, 100
9, 50009, Note_on_c, 5, 76, 0
9, 50010, Note_on_c, 5, 74, 100
9, 50039, Note_on_c, 5, 74, 0
9, 50040, Note_on_c, 5, 74, 100
9, 50159, Note_on_c, 5, 74, 0
9, 50160, Note_on_c, 5, 78, 100
9, 50219, Note_on_c, 5, 78, 0
9, 50220, Note_on_c, 5, 74, 100
9, 50279, Note_on_c, 5, 74, 0
9, 50520, Note_on_c, 5, 78, 100
9, 50579, Note_on_c, 5, 78, 0
9, 50580, Note_on_c, 5, 74, 100
9, 50639, Note_on_c, 5, 74, 0
9, 50880, Note_on_c, 5, 74, 100
9, 50939, Note_on_c, 5, 74, 0
9, 50940, Note_on_c, 5, 69, 100
9, 50999, Note_on_c, 5, 69, 0
9, 51240, Note_on_c, 5, 74, 100
9, 51299, Note_on_c, 5, 74, 0
9, 51300, Note_on_c, 5, 71, 100
9, 51359, Note_on_c, 5, 71, 0
9, 51540, Note_on_c, 5, 81, 100
9, 51569, Note_on_c, 5, 81, 0
9, 51570, Note_on_c, 5, 79, 100
9, 51599, Note_on_c, 5, 79, 0
9, 51600, Note_on_c, 5, 78, 100
9, 51629, Note_on_c, 5, 78, 0
9, 51630, Note_on_c, 5, 76, 100
9, 51659, Note_on_c, 5, 76, 0
9, 51660, Note_on_c, 5, 74, 100
9, 51689, Note_on_c, 5, 74, 0
9, 51690, Note_on_c, 5, 73, 100
9, 51719, Note_on_c, 5, 73, 0
9, 51720, Note_on_c, 5, 74, 100
9, 51749, Note_on_c, 5, 74, 0
9, 51750, Note_on_c, 5, 71, 100
9, 51779, Note_on_c, 5, 71, 0
9, 51780, Note_on_c, 5, 73, 100
9, 51809, Note_on_c, 5, 73, 0
9, 51810, Note_on_c, 5, 69, 100
9, 51839, Note_on_c, 5, 69, 0
9, 51840, Note_on_c, 5, 76, 100
9, 51959, Note_on_c, 5, 76, 0
9, 51960, Note_on_c, 5, 81, 100
9, 52019, Note_on_c, 5, 81, 0
9, 52020, Note_on_c, 5, 76, 100
9, 52079, Note_on_c, 5, 76, 0
9, 52320, Note_on_c, 5, 81, 100
9, 52379, Note_on_c, 5, 81, 0
9, 52380, Note_on_c, 5, 78, 100
9, 52439, Note_on_c, 5, 78, 0
9, 52680, Note_on_c, 5, 81, 100
9, 52739, Note_on_c, 5, 81, 0
9, 52740, Note_on_c, 5, 76, 100
9, 52799, Note_on_c, 5, 76, 0
9, 53310, Note_on_c, 5, 74, 100
9, 53339, Note_on_c, 5, 74, 0
9, 53340, Note_on_c, 5, 76, 100
9, 53369, Note_on_c, 5, 76, 0
9, 53370, Note_on_c, 5, 78, 100
9, 53399, Note_on_c, 5, 78, 0
9, 53400, Note_on_c, 5, 79, 100
9, 53429, Note_on_c, 5, 79, 0
9, 53430, Note_on_c, 5, 81, 100
9, 53459, Note_on_c, 5, 81, 0
9, 53460, Note_on_c, 5, 83, 100
9, 53489, Note_on_c, 5, 83, 0
9, 53490, Note_on_c, 5, 85, 100
9, 53519, Note_on_c, 5, 85, 0
9, 53520, Note_on_c, 5, 86, 100
9, 53549, Note_on_c, 5, 86, 0
9, 53550, Note_on_c, 5, 85, 100
9, 53579, Note_on_c, 5, 85, 0
9, 53580, Note_on_c, 5, 86, 100
9, 53609, Note_on_c, 5, 86, 0
9, 53610, Note_on_c, 5, 85, 100
9, 53639, Note_on_c, 5, 85, 0
9, 53640, Note_on_c, 5, 83, 100
9, 53669, Note_on_c, 5, 83, 0
9, 53670, Note_on_c, 5, 81, 100
9, 53699, Note_on_c, 5, 81, 0
9, 53700, Note_on_c, 5, 83, 100
9, 53729, Note_on_c, 5, 83, 0
9, 53730, Note_on_c, 5, 81, 100
9, 53759, Note_on_c, 5, 81, 0
9, 53760, Note_on_c, 5, 79, 100
9, 53789, Note_on_c, 5, 79, 0
9, 53790, Note_on_c, 5, 78, 100
9, 53819, Note_on_c, 5, 78, 0
9, 53820, Note_on_c, 5, 79, 100
9, 53849, Note_on_c, 5, 79, 0
9, 53850, Note_on_c, 5, 78, 100
9, 53879, Note_on_c, 5, 78, 0
9, 53880, Note_on_c, 5, 76, 100
9, 53909, Note_on_c, 5, 76, 0
9, 53910, Note_on_c, 5, 74, 100
9, 53939, Note_on_c, 5, 74, 0
9, 53940, Note_on_c, 5, 76, 100
9, 53969, Note_on_c, 5, 76, 0
9, 53970, Note_on_c, 5, 74, 100
9, 53999, Note_on_c, 5, 74, 0
9, 54000, Note_on_c, 5, 79, 100
9, 54059, Note_on_c, 5, 79, 0
9, 54060, Note_on_c, 5, 81, 100
9, 54089, Note_on_c, 5, 81, 0
9, 54090, Note_on_c, 5, 79, 100
9, 54119, Note_on_c, 5, 79, 0
9, 54120, Note_on_c, 5, 78, 100
9, 54149, Note_on_c, 5, 78, 0
9, 54150, Note_on_c, 5, 76, 100
9, 54179, Note_on_c, 5, 76, 0
9, 54180, Note_on_c, 5, 74, 100
9, 54209, Note_on_c, 5, 74, 0
9, 54210, Note_on_c, 5, 76, 100
9, 54239, Note_on_c, 5, 76, 0
9, 54240, Note_on_c, 5, 76, 100
9, 54329, Note_on_c, 5, 76, 0
9, 54330, Note_on_c, 5, 74, 100
9, 54359, Note_on_c, 5, 74, 0
9, 54360, Note_on_c, 5, 74, 100
9, 54420, Note_on_c, 5, 74, 0
9, 54750, Note_on_c, 5, 74, 100
9, 54779, Note_on_c, 5, 74, 0
9, 54780, Note_on_c, 5, 76, 100
9, 54809, Note_on_c, 5, 76, 0
9, 54810, Note_on_c, 5, 78, 100
9, 54839, Note_on_c, 5, 78, 0
9, 54840, Note_on_c, 5, 79, 100
9, 54869, Note_on_c, 5, 79, 0
9, 54870, Note_on_c, 5, 81, 100
9, 54899, Note_on_c, 5, 81, 0
9, 54900, Note_on_c, 5, 83, 100
9, 54929, Note_on_c, 5, 83, 0
9, 54930, Note_on_c, 5, 85, 100
9, 54959, Note_on_c, 5, 85, 0
9, 54960, Note_on_c, 5, 86, 100
9, 54989, Note_on_c, 5, 86, 0
9, 54990, Note_on_c, 5, 85, 100
9, 55019, Note_on_c, 5, 85, 0
9, 55020, Note_on_c, 5, 86, 100
9, 55049, Note_on_c, 5, 86, 0
9, 55050, Note_on_c, 5, 85, 100
9, 55079, Note_on_c, 5, 85, 0
9, 55080, Note_on_c, 5, 86, 100
9, 55109, Note_on_c, 5, 86, 0
9, 55110, Note_on_c, 5, 81, 100
9, 55139, Note_on_c, 5, 81, 0
9, 55140, Note_on_c, 5, 79, 100
9, 55169, Note_on_c, 5, 79, 0
9, 55170, Note_on_c, 5, 78, 100
9, 55199, Note_on_c, 5, 78, 0
9, 55200, Note_on_c, 5, 76, 100
9, 55229, Note_on_c, 5, 76, 0
9, 55230, Note_on_c, 5, 74, 100
9, 55259, Note_on_c, 5, 74, 0
9, 55260, Note_on_c, 5, 73, 100
9, 55289, Note_on_c, 5, 73, 0
9, 55290, Note_on_c, 5, 71, 100
9, 55319, Note_on_c, 5, 71, 0
9, 55320, Note_on_c, 5, 69, 100
9, 55349, Note_on_c, 5, 69, 0
9, 55350, Note_on_c, 5, 67, 100
9, 55379, Note_on_c, 5, 67, 0
9, 55380, Note_on_c, 5, 66, 100
9, 55409, Note_on_c, 5, 66, 0
9, 55410, Note_on_c, 5, 69, 100
9, 55439, Note_on_c, 5, 69, 0
9, 55440, Note_on_c, 5, 62, 100
9, 55469, Note_on_c, 5, 62, 0
9, 55470, Note_on_c, 5, 86, 100
9, 55499, Note_on_c, 5, 86, 0
9, 55500, Note_on_c, 5, 85, 100
9, 55529, Note_on_c, 5, 85, 0
9, 55530, Note_on_c, 5, 83, 100
9, 55559, Note_on_c, 5, 83, 0
9, 55560, Note_on_c, 5, 81, 100
9, 55589, Note_on_c, 5, 81, 0
9, 55590, Note_on_c, 5, 79, 100
9, 55619, Note_on_c, 5, 79, 0
9, 55620, Note_on_c, 5, 78, 100
9, 55649, Note_on_c, 5, 78, 0
9, 55650, Note_on_c, 5, 76, 100
9, 55679, Note_on_c, 5, 76, 0
9, 55680, Note_on_c, 5, 74, 100
9, 55709, Note_on_c, 5, 74, 0
9, 55710, Note_on_c, 5, 76, 100
9, 55739, Note_on_c, 5, 76, 0
9, 55740, Note_on_c, 5, 74, 100
9, 55769, Note_on_c, 5, 74, 0
9, 55770, Note_on_c, 5, 76, 100
9, 55799, Note_on_c, 5, 76, 0
9, 55800, Note_on_c, 5, 74, 100
9, 55829, Note_on_c, 5, 74, 0
9, 55830, Note_on_c, 5, 78, 100
9, 55859, Note_on_c, 5, 78, 0
9, 55860, Note_on_c, 5, 76, 100
9, 55889, Note_on_c, 5, 76, 0
9, 55890, Note_on_c, 5, 74, 100
9, 55919, Note_on_c, 5, 74, 0
9, 55920, Note_on_c, 5, 73, 100
9, 55949, Note_on_c, 5, 73, 0
9, 55950, Note_on_c, 5, 71, 100
9, 55979, Note_on_c, 5, 71, 0
9, 55980, Note_on_c, 5, 69, 100
9, 56009, Note_on_c, 5, 69, 0
9, 56010, Note_on_c, 5, 67, 100
9, 56039, Note_on_c, 5, 67, 0
9, 56040, Note_on_c, 5, 66, 100
9, 56099, Note_on_c, 5, 66, 0
9, 56190, Note_on_c, 5, 74, 100
9, 56219, Note_on_c, 5, 74, 0
9, 56220, Note_on_c, 5, 76, 100
9, 56249, Note_on_c, 5, 76, 0
9, 56250, Note_on_c, 5, 78, 100
9, 56279, Note_on_c, 5, 78, 0
9, 56280, Note_on_c, 5, 79, 100
9, 56309, Note_on_c, 5, 79, 0
9, 56310, Note_on_c, 5, 81, 100
9, 56339, Note_on_c, 5, 81, 0
9, 56340, Note_on_c, 5, 83, 100
9, 56369, Note_on_c, 5, 83, 0
9, 56370, Note_on_c, 5, 85, 100
9, 56399, Note_on_c, 5, 85, 0
9, 56400, Note_on_c, 5, 86, 100
9, 56429, Note_on_c, 5, 86, 0
9, 56430, Note_on_c, 5, 85, 100
9, 56459, Note_on_c, 5, 85, 0
9, 56460, Note_on_c, 5, 86, 100
9, 56489, Note_on_c, 5, 86, 0
9, 56490, Note_on_c, 5, 85, 100
9, 56519, Note_on_c, 5, 85, 0
9, 56520, Note_on_c, 5, 83, 100
9, 56549, Note_on_c, 5, 83, 0
9, 56550, Note_on_c, 5, 81, 100
9, 56579, Note_on_c, 5, 81, 0
9, 56580, Note_on_c, 5, 83, 100
9, 56609, Note_on_c, 5, 83, 0
9, 56610, Note_on_c, 5, 81, 100
9, 56639, Note_on_c, 5, 81, 0
9, 56640, Note_on_c, 5, 80, 100
9, 56669, Note_on_c, 5, 80, 0
9, 56670, Note_on_c, 5, 78, 100
9, 56699, Note_on_c, 5, 78, 0
9, 56700, Note_on_c, 5, 80, 100
9, 56729, Note_on_c, 5, 80, 0
9, 56730, Note_on_c, 5, 78, 100
9, 56759, Note_on_c, 5, 78, 0
9, 56760, Note_on_c, 5, 76, 100
9, 56789, Note_on_c, 5, 76, 0
9, 56790, Note_on_c, 5, 74, 100
9, 56819, Note_on_c, 5, 74, 0
9, 56820, Note_on_c, 5, 76, 100
9, 56849, Note_on_c, 5, 76, 0
9, 56850, Note_on_c, 5, 74, 100
9, 56879, Note_on_c, 5, 74, 0
9, 56880, Note_on_c, 5, 73, 100
9, 56909, Note_on_c, 5, 73, 0
9, 56910, Note_on_c, 5, 76, 100
9, 56939, Note_on_c, 5, 76, 0
9, 56940, Note_on_c, 5, 81, 100
9, 56969, Note_on_c, 5, 81, 0
9, 56970, Note_on_c, 5, 83, 100
9, 56999, Note_on_c, 5, 83, 0
9, 57000, Note_on_c, 5, 85, 100
9, 57029, Note_on_c, 5, 85, 0
9, 57030, Note_on_c, 5, 83, 100
9, 57059, Note_on_c, 5, 83, 0
9, 57060, Note_on_c, 5, 81, 100
9, 57089, Note_on_c, 5, 81, 0
9, 57090, Note_on_c, 5, 83, 100
9, 57119, Note_on_c, 5, 83, 0
9, 57120, Note_on_c, 5, 83, 100
9, 57209, Note_on_c, 5, 83, 0
9, 57210, Note_on_c, 5, 81, 100
9, 57239, Note_on_c, 5, 81, 0
9, 57240, Note_on_c, 5, 81, 100
9, 57269, Note_on_c, 5, 81, 0
9, 57270, Note_on_c, 5, 73, 100
9, 57299, Note_on_c, 5, 73, 0
9, 57300, Note_on_c, 5, 74, 100
9, 57329, Note_on_c, 5, 74, 0
9, 57330, Note_on_c, 5, 76, 100
9, 57359, Note_on_c, 5, 76, 0
9, 57360, Note_on_c, 5, 78, 100
9, 57389, Note_on_c, 5, 78, 0
9, 57390, Note_on_c, 5, 80, 100
9, 57419, Note_on_c, 5, 80, 0
9, 57420, Note_on_c, 5, 81, 100
9, 57449, Note_on_c, 5, 81, 0
9, 57450, Note_on_c, 5, 83, 100
9, 57479, Note_on_c, 5, 83, 0
9, 57480, Note_on_c, 5, 85, 100
9, 57539, Note_on_c, 5, 85, 0
9, 57630, Note_on_c, 5, 76, 100
9, 57659, Note_on_c, 5, 76, 0
9, 57660, Note_on_c, 5, 75, 100
9, 57689, Note_on_c, 5, 75, 0
9, 57690, Note_on_c, 5, 76, 100
9, 57719, Note_on_c, 5, 76, 0
9, 57720, Note_on_c, 5, 78, 100
9, 57749, Note_on_c, 5, 78, 0
9, 57750, Note_on_c, 5, 80, 100
9, 57779, Note_on_c, 5, 80, 0
9, 57780, Note_on_c, 5, 81, 100
9, 57809, Note_on_c, 5, 81, 0
9, 57810, Note_on_c, 5, 83, 100
9, 57839, Note_on_c, 5, 83, 0
9, 57840, Note_on_c, 5, 84, 100
9, 57899, Note_on_c, 5, 84, 0
9, 57990, Note_on_c, 5, 69, 100
9, 58019, Note_on_c, 5, 69, 0
9, 58020, Note_on_c, 5, 71, 100
9, 58049, Note_on_c, 5, 71, 0
9, 58050, Note_on_c, 5, 73, 100
9, 58079, Note_on_c, 5, 73, 0
9, 58080, Note_on_c, 5, 75, 100
9, 58109, Note_on_c, 5, 75, 0
9, 58110, Note_on_c, 5, 76, 100
9, 58139, Note_on_c, 5, 76, 0
9, 58140, Note_on_c, 5, 78, 100
9, 58169, Note_on_c, 5, 78, 0
9, 58170, Note_on_c, 5, 80, 100
9, 58199, Note_on_c, 5, 80, 0
9, 58200, Note_on_c, 5, 81, 100
9, 58259, Note_on_c, 5, 81, 0
9, 58380, Note_on_c, 5, 80, 100
9, 58439, Note_on_c, 5, 80, 0
9, 58440, Note_on_c, 5, 80, 100
9, 58499, Note_on_c, 5, 80, 0
9, 58500, Note_on_c, 5, 80, 100
9, 58559, Note_on_c, 5, 80, 0
9, 58560, Note_on_c, 5, 80, 100
9, 58619, Note_on_c, 5, 80, 0
9, 58620, Note_on_c, 5, 78, 100
9, 58649, Note_on_c, 5, 78, 0
9, 58650, Note_on_c, 5, 80, 100
9, 58679, Note_on_c, 5, 80, 0
9, 58680, Note_on_c, 5, 81, 100
9, 58739, Note_on_c, 5, 81, 0
9, 58740, Note_on_c, 5, 81, 100
9, 58799, Note_on_c, 5, 81, 0
9, 58800, Note_on_c, 5, 81, 100
9, 58859, Note_on_c, 5, 81, 0
9, 58860, Note_on_c, 5, 81, 100
9, 58919, Note_on_c, 5, 81, 0
9, 58920, Note_on_c, 5, 81, 100
9, 58979, Note_on_c, 5, 81, 0
9, 58980, Note_on_c, 5, 80, 100
9, 59009, Note_on_c, 5, 80, 0
9, 59010, Note_on_c, 5, 81, 100
9, 59039, Note_on_c, 5, 81, 0
9, 59040, Note_on_c, 5, 83, 100
9, 59099, Note_on_c, 5, 83, 0
9, 59100, Note_on_c, 5, 83, 100
9, 59159, Note_on_c, 5, 83, 0
9, 59160, Note_on_c, 5, 83, 100
9, 59219, Note_on_c, 5, 83, 0
9, 59220, Note_on_c, 5, 83, 100
9, 59279, Note_on_c, 5, 83, 0
9, 59280, Note_on_c, 5, 83, 100
9, 59339, Note_on_c, 5, 83, 0
9, 59340, Note_on_c, 5, 81, 100
9, 59369, Note_on_c, 5, 81, 0
9, 59370, Note_on_c, 5, 83, 100
9, 59399, Note_on_c, 5, 83, 0
9, 59400, Note_on_c, 5, 85, 100
9, 60000, Note_on_c, 5, 85, 0
9, 60030, Note_on_c, 5, 86, 100
9, 60059, Note_on_c, 5, 86, 0
9, 60060, Note_on_c, 5, 83, 100
9, 60089, Note_on_c, 5, 83, 0
9, 60090, Note_on_c, 5, 85, 100
9, 60119, Note_on_c, 5, 85, 0
9, 60120, Note_on_c, 5, 86, 100
9, 60180, Note_on_c, 5, 86, 0
9, 60180, Note_on_c, 5, 81, 100
9, 60240, Note_on_c, 5, 81, 0
9, 60240, Note_on_c, 5, 86, 100
9, 60269, Note_on_c, 5, 86, 0
9, 60270, Note_on_c, 5, 85, 100
9, 60299, Note_on_c, 5, 85, 0
9, 60300, Note_on_c, 5, 86, 100
9, 60329, Note_on_c, 5, 86, 0
9, 60330, Note_on_c, 5, 85, 100
9, 60359, Note_on_c, 5, 85, 0
9, 60360, Note_on_c, 5, 83, 100
9, 60389, Note_on_c, 5, 83, 0
9, 60390, Note_on_c, 5, 81, 100
9, 60419, Note_on_c, 5, 81, 0
9, 60420, Note_on_c, 5, 83, 100
9, 60449, Note_on_c, 5, 83, 0
9, 60450, Note_on_c, 5, 81, 100
9, 60479, Note_on_c, 5, 81, 0
9, 60480, Note_on_c, 5, 86, 100
9, 60539, Note_on_c, 5, 86, 0
9, 60540, Note_on_c, 5, 88, 100
9, 60569, Note_on_c, 5, 88, 0
9, 60570, Note_on_c, 5, 86, 100
9, 60599, Note_on_c, 5, 86, 0
9, 60600, Note_on_c, 5, 85, 100
9, 60629, Note_on_c, 5, 85, 0
9, 60630, Note_on_c, 5, 83, 100
9, 60659, Note_on_c, 5, 83, 0
9, 60660, Note_on_c, 5, 81, 100
9, 60689, Note_on_c, 5, 81, 0
9, 60690, Note_on_c, 5, 83, 100
9, 60719, Note_on_c, 5, 83, 0
9, 60720, Note_on_c, 5, 83, 100
9, 60809, Note_on_c, 5, 83, 0
9, 60810, Note_on_c, 5, 81, 100
9, 60839, Note_on_c, 5, 81, 0
9, 60840, Note_on_c, 5, 81, 100
9, 60899, Note_on_c, 5, 81, 0
9, 60900, Note_on_c, 5, 73, 100
9, 60959, Note_on_c, 5, 73, 0
9, 60960, Note_on_c, 5, 73, 100
9, 61019, Note_on_c, 5, 73, 0
9, 61020, Note_on_c, 5, 73, 100
9, 61079, Note_on_c, 5, 73, 0
9, 61080, Note_on_c, 5, 73, 100
9, 61139, Note_on_c, 5, 73, 0
9, 61140, Note_on_c, 5, 74, 100
9, 61169, Note_on_c, 5, 74, 0
9, 61170, Note_on_c, 5, 76, 100
9, 61199, Note_on_c, 5, 76, 0
9, 61200, Note_on_c, 5, 78, 100
9, 61259, Note_on_c, 5, 78, 0
9, 61260, Note_on_c, 5, 81, 100
9, 61289, Note_on_c, 5, 81, 0
9, 61290, Note_on_c, 5, 79, 100
9, 61319, Note_on_c, 5, 79, 0
9, 61320, Note_on_c, 5, 78, 100
9, 61379, Note_on_c, 5, 78, 0
9, 61380, Note_on_c, 5, 81, 100
9, 61409, Note_on_c, 5, 81, 0
9, 61410, Note_on_c, 5, 79, 100
9, 61439, Note_on_c, 5, 79, 0
9, 61440, Note_on_c, 5, 78, 100
9, 61499, Note_on_c, 5, 78, 0
9, 61500, Note_on_c, 5, 78, 100
9, 61559, Note_on_c, 5, 78, 0
9, 61560, Note_on_c, 5, 78, 100
9, 61919, Note_on_c, 5, 78, 0
9, 61920, Note_on_c, 5, 76, 100
9, 61949, Note_on_c, 5, 76, 0
9, 61950, Note_on_c, 5, 71, 100
9, 61979, Note_on_c, 5, 71, 0
9, 61980, Note_on_c, 5, 73, 100
9, 62009, Note_on_c, 5, 73, 0
9, 62010, Note_on_c, 5, 75, 100
9, 62039, Note_on_c, 5, 75, 0
9, 62040, Note_on_c, 5, 76, 100
9, 62069, Note_on_c, 5, 76, 0
9, 62070, Note_on_c, 5, 78, 100
9, 62099, Note_on_c, 5, 78, 0
9, 62100, Note_on_c, 5, 79, 100
9, 62129, Note_on_c, 5, 79, 0
9, 62130, Note_on_c, 5, 81, 100
9, 62159, Note_on_c, 5, 81, 0
9, 62160, Note_on_c, 5, 83, 100
9, 62189, Note_on_c, 5, 83, 0
9, 62190, Note_on_c, 5, 81, 100
9, 62219, Note_on_c, 5, 81, 0
9, 62220, Note_on_c, 5, 83, 100
9, 62249, Note_on_c, 5, 83, 0
9, 62250, Note_on_c, 5, 81, 100
9, 62279, Note_on_c, 5, 81, 0
9, 62280, Note_on_c, 5, 79, 100
9, 62639, Note_on_c, 5, 79, 0
9, 62670, Note_on_c, 5, 69, 100
9, 62699, Note_on_c, 5, 69, 0
9, 62700, Note_on_c, 5, 71, 100
9, 62729, Note_on_c, 5, 71, 0
9, 62730, Note_on_c, 5, 73, 100
9, 62759, Note_on_c, 5, 73, 0
9, 62760, Note_on_c, 5, 74, 100
9, 62789, Note_on_c, 5, 74, 0
9, 62790, Note_on_c, 5, 76, 100
9, 62819, Note_on_c, 5, 76, 0
9, 62820, Note_on_c, 5, 78, 100
9, 62849, Note_on_c, 5, 78, 0
9, 62850, Note_on_c, 5, 79, 100
9, 62879, Note_on_c, 5, 79, 0
9, 62880, Note_on_c, 5, 81, 100
9, 62909, Note_on_c, 5, 81, 0
9, 62910, Note_on_c, 5, 83, 100
9, 62939, Note_on_c, 5, 83, 0
9, 62940, Note_on_c, 5, 79, 100
9, 62969, Note_on_c, 5, 79, 0
9, 62970, Note_on_c, 5, 81, 100
9, 62999, Note_on_c, 5, 81, 0
9, 63000, Note_on_c, 5, 78, 100
9, 63029, Note_on_c, 5, 78, 0
9, 63030, Note_on_c, 5, 69, 100
9, 63059, Note_on_c, 5, 69, 0
9, 63060, Note_on_c, 5, 71, 100
9, 63089, Note_on_c, 5, 71, 0
9, 63090, Note_on_c, 5, 73, 100
9, 63119, Note_on_c, 5, 73, 0
9, 63120, Note_on_c, 5, 74, 100
9, 63149, Note_on_c, 5, 74, 0
9, 63150, Note_on_c, 5, 76, 100
9, 63179, Note_on_c, 5, 76, 0
9, 63180, Note_on_c, 5, 78, 100
9, 63209, Note_on_c, 5, 78, 0
9, 63210, Note_on_c, 5, 79, 100
9, 63239, Note_on_c, 5, 79, 0
9, 63240, Note_on_c, 5, 81, 100
9, 63299, Note_on_c, 5, 81, 0
9, 63390, Note_on_c, 5, 71, 100
9, 63419, Note_on_c, 5, 71, 0
9, 63420, Note_on_c, 5, 73, 100
9, 63449, Note_on_c, 5, 73, 0
9, 63450, Note_on_c, 5, 74, 100
9, 63479, Note_on_c, 5, 74, 0
9, 63480, Note_on_c, 5, 76, 100
9, 63509, Note_on_c, 5, 76, 0
9, 63510, Note_on_c, 5, 78, 100
9, 63539, Note_on_c, 5, 78, 0
9, 63540, Note_on_c, 5, 79, 100
9, 63569, Note_on_c, 5, 79, 0
9, 63570, Note_on_c, 5, 81, 100
9, 63599, Note_on_c, 5, 81, 0
9, 63600, Note_on_c, 5, 83, 100
9, 63659, Note_on_c, 5, 83, 0
9, 63750, Note_on_c, 5, 69, 100
9, 63779, Note_on_c, 5, 69, 0
9, 63780, Note_on_c, 5, 71, 100
9, 63809, Note_on_c, 5, 71, 0
9, 63810, Note_on_c, 5, 73, 100
9, 63839, Note_on_c, 5, 73, 0
9, 63840, Note_on_c, 5, 74, 100
9, 63869, Note_on_c, 5, 74, 0
9, 63870, Note_on_c, 5, 76, 100
9, 63899, Note_on_c, 5, 76, 0
9, 63900, Note_on_c, 5, 78, 100
9, 63929, Note_on_c, 5, 78, 0
9, 63930, Note_on_c, 5, 79, 100
9, 63959, Note_on_c, 5, 79, 0
9, 63960, Note_on_c, 5, 81, 100
9, 64019, Note_on_c, 5, 81, 0
9, 64110, Note_on_c, 5, 67, 100
9, 64139, Note_on_c, 5, 67, 0
9, 64140, Note_on_c, 5, 69, 100
9, 64169, Note_on_c, 5, 69, 0
9, 64170, Note_on_c, 5, 71, 100
9, 64199, Note_on_c, 5, 71, 0
9, 64200, Note_on_c, 5, 73, 100
9, 64229, Note_on_c, 5, 73, 0
9, 64230, Note_on_c, 5, 74, 100
9, 64259, Note_on_c, 5, 74, 0
9, 64260, Note_on_c, 5, 76, 100
9, 64289, Note_on_c, 5, 76, 0
9, 64290, Note_on_c, 5, 78, 100
9, 64319, Note_on_c, 5, 78, 0
9, 64320, Note_on_c, 5, 79, 100
9, 64379, Note_on_c, 5, 79, 0
9, 64470, Note_on_c, 5, 66, 100
9, 64499, Note_on_c, 5, 66, 0
9, 64500, Note_on_c, 5, 67, 100
9, 64529, Note_on_c, 5, 67, 0
9, 64530, Note_on_c, 5, 69, 100
9, 64559, Note_on_c, 5, 69, 0
9, 64560, Note_on_c, 5, 71, 100
9, 64589, Note_on_c, 5, 71, 0
9, 64590, Note_on_c, 5, 73, 100
9, 64619, Note_on_c, 5, 73, 0
9, 64620, Note_on_c, 5, 74, 100
9, 64649, Note_on_c, 5, 74, 0
9, 64650, Note_on_c, 5, 76, 100
9, 64679, Note_on_c, 5, 76, 0
9, 64680, Note_on_c, 5, 78, 100
9, 64739, Note_on_c, 5, 78, 0
9, 64830, Note_on_c, 5, 69, 100
9, 64859, Note_on_c, 5, 69, 0
9, 64860, Note_on_c, 5, 68, 100
9, 64889, Note_on_c, 5, 68, 0
9, 64890, Note_on_c, 5, 69, 100
9, 64919, Note_on_c, 5, 69, 0
9, 64920, Note_on_c, 5, 71, 100
9, 64949, Note_on_c, 5, 71, 0
9, 64950, Note_on_c, 5, 73, 100
9, 64979, Note_on_c, 5, 73, 0
9, 64980, Note_on_c, 5, 74, 100
9, 65009, Note_on_c, 5, 74, 0
9, 65010, Note_on_c, 5, 76, 100
9, 65039, Note_on_c, 5, 76, 0
9, 65040, Note_on_c, 5, 77, 100
9, 65099, Note_on_c, 5, 77, 0
9, 65190, Note_on_c, 5, 74, 100
9, 65219, Note_on_c, 5, 74, 0
9, 65220, Note_on_c, 5, 76, 100
9, 65249, Note_on_c, 5, 76, 0
9, 65250, Note_on_c, 5, 78, 100
9, 65279, Note_on_c, 5, 78, 0
9, 65280, Note_on_c, 5, 80, 100
9, 65309, Note_on_c, 5, 80, 0
9, 65310, Note_on_c, 5, 81, 100
9, 65339, Note_on_c, 5, 81, 0
9, 65340, Note_on_c, 5, 83, 100
9, 65369, Note_on_c, 5, 83, 0
9, 65370, Note_on_c, 5, 85, 100
9, 65399, Note_on_c, 5, 85, 0
9, 65400, Note_on_c, 5, 86, 100
9, 65459, Note_on_c, 5, 86, 0
9, 65640, Note_on_c, 5, 81, 100
9, 65699, Note_on_c, 5, 81, 0
9, 65700, Note_on_c, 5, 76, 100
9, 65759, Note_on_c, 5, 76, 0
9, 66000, Note_on_c, 5, 81, 100
9, 66059, Note_on_c, 5, 81, 0
9, 66060, Note_on_c, 5, 78, 100
9, 66119, Note_on_c, 5, 78, 0
9, 66360, Note_on_c, 5, 81, 100
9, 66419, Note_on_c, 5, 81, 0
9, 66420, Note_on_c, 5, 76, 100
9, 66479, Note_on_c, 5, 76, 0
9, 66990, Note_on_c, 5, 74, 100
9, 67019, Note_on_c, 5, 74, 0
9, 67020, Note_on_c, 5, 76, 100
9, 67049, Note_on_c, 5, 76, 0
9, 67050, Note_on_c, 5, 78, 100
9, 67079, Note_on_c, 5, 78, 0
9, 67080, Note_on_c, 5, 79, 100
9, 67109, Note_on_c, 5, 79, 0
9, 67110, Note_on_c, 5, 81, 100
9, 67139, Note_on_c, 5, 81, 0
9, 67140, Note_on_c, 5, 83, 100
9, 67169, Note_on_c, 5, 83, 0
9, 67170, Note_on_c, 5, 85, 100
9, 67199, Note_on_c, 5, 85, 0
9, 67200, Note_on_c, 5, 86, 100
9, 67229, Note_on_c, 5, 86, 0
9, 67230, Note_on_c, 5, 85, 100
9, 67259, Note_on_c, 5, 85, 0
9, 67260, Note_on_c, 5, 86, 100
9, 67289, Note_on_c, 5, 86, 0
9, 67290, Note_on_c, 5, 85, 100
9, 67319, Note_on_c, 5, 85, 0
9, 67320, Note_on_c, 5, 83, 100
9, 67349, Note_on_c, 5, 83, 0
9, 67350, Note_on_c, 5, 81, 100
9, 67379, Note_on_c, 5, 81, 0
9, 67380, Note_on_c, 5, 83, 100
9, 67409, Note_on_c, 5, 83, 0
9, 67410, Note_on_c, 5, 81, 100
9, 67439, Note_on_c, 5, 81, 0
9, 67440, Note_on_c, 5, 79, 100
9, 67469, Note_on_c, 5, 79, 0
9, 67470, Note_on_c, 5, 78, 100
9, 67499, Note_on_c, 5, 78, 0
9, 67500, Note_on_c, 5, 79, 100
9, 67529, Note_on_c, 5, 79, 0
9, 67530, Note_on_c, 5, 78, 100
9, 67559, Note_on_c, 5, 78, 0
9, 67560, Note_on_c, 5, 76, 100
9, 67589, Note_on_c, 5, 76, 0
9, 67590, Note_on_c, 5, 74, 100
9, 67619, Note_on_c, 5, 74, 0
9, 67620, Note_on_c, 5, 76, 100
9, 67649, Note_on_c, 5, 76, 0
9, 67650, Note_on_c, 5, 74, 100
9, 67679, Note_on_c, 5, 74, 0
9, 67680, Note_on_c, 5, 79, 100
9, 67739, Note_on_c, 5, 79, 0
9, 67740, Note_on_c, 5, 81, 100
9, 67769, Note_on_c, 5, 81, 0
9, 67770, Note_on_c, 5, 79, 100
9, 67799, Note_on_c, 5, 79, 0
9, 67800, Note_on_c, 5, 78, 100
9, 67829, Note_on_c, 5, 78, 0
9, 67830, Note_on_c, 5, 76, 100
9, 67859, Note_on_c, 5, 76, 0
9, 67860, Note_on_c, 5, 74, 100
9, 67889, Note_on_c, 5, 74, 0
9, 67890, Note_on_c, 5, 76, 100
9, 67919, Note_on_c, 5, 76, 0
9, 67920, Note_on_c, 5, 76, 100
9, 68009, Note_on_c, 5, 76, 0
9, 68010, Note_on_c, 5, 74, 100
9, 68039, Note_on_c, 5, 74, 0
9, 68040, Note_on_c, 5, 74, 100
9, 68159, Note_on_c, 5, 74, 0
9, 68160, Note_on_c, 5, 81, 100
9, 68219, Note_on_c, 5, 81, 0
9, 68220, Note_on_c, 5, 78, 100
9, 68279, Note_on_c, 5, 78, 0
9, 68520, Note_on_c, 5, 79, 100
9, 68579, Note_on_c, 5, 79, 0
9, 68580, Note_on_c, 5, 74, 100
9, 68639, Note_on_c, 5, 74, 0
9, 68880, Note_on_c, 5, 78, 100
9, 68939, Note_on_c, 5, 78, 0
9, 68940, Note_on_c, 5, 74, 100
9, 68999, Note_on_c, 5, 74, 0
9, 69180, Note_on_c, 5, 83, 100
9, 69209, Note_on_c, 5, 83, 0
9, 69210, Note_on_c, 5, 81, 100
9, 69239, Note_on_c, 5, 81, 0
9, 69240, Note_on_c, 5, 79, 100
9, 69269, Note_on_c, 5, 79, 0
9, 69270, Note_on_c, 5, 78, 100
9, 69299, Note_on_c, 5, 78, 0
9, 69300, Note_on_c, 5, 79, 100
9, 69329, Note_on_c, 5, 79, 0
9, 69330, Note_on_c, 5, 78, 100
9, 69359, Note_on_c, 5, 78, 0
9, 69360, Note_on_c, 5, 76, 100
9, 69389, Note_on_c, 5, 76, 0
9, 69390, Note_on_c, 5, 74, 100
9, 69419, Note_on_c, 5, 74, 0
9, 69420, Note_on_c, 5, 76, 100
9, 69449, Note_on_c, 5, 76, 0
9, 69450, Note_on_c, 5, 74, 100
9, 69479, Note_on_c, 5, 74, 0
9, 69480, Note_on_c, 5, 79, 100
9, 69539, Note_on_c, 5, 79, 0
9, 69540, Note_on_c, 5, 81, 100
9, 69569, Note_on_c, 5, 81, 0
9, 69570, Note_on_c, 5, 79, 100
9, 69599, Note_on_c, 5, 79, 0
9, 69600, Note_on_c, 5, 78, 100
9, 69629, Note_on_c, 5, 78, 0
9, 69630, Note_on_c, 5, 76, 100
9, 69659, Note_on_c, 5, 76, 0
9, 69660, Note_on_c, 5, 74, 100
9, 69689, Note_on_c, 5, 74, 0
9, 69690, Note_on_c, 5, 76, 100
9, 69719, Note_on_c, 5, 76, 0
9, 69720, Note_on_c, 5, 76, 100
9, 69809, Note_on_c, 5, 76, 0
9, 69810, Note_on_c, 5, 74, 100
9, 69839, Note_on_c, 5, 74, 0
9, 69840, Note_on_c, 5, 74, 100
9, 69959, Note_on_c, 5, 74, 0
9, 70560, Note_on_c, 5, 83, 110
9, 70679, Note_on_c, 5, 83, 0
9, 71280, Note_on_c, 5, 76, 110
9, 71399, Note_on_c, 5, 76, 0
9, 71760, Note_on_c, 5, 78, 110
9, 71879, Note_on_c, 5, 78, 0
9, 72240, Note_on_c, 5, 78, 110
9, 72359, Note_on_c, 5, 78, 0
9, 72720, Note_on_c, 5, 71, 110
9, 72839, Note_on_c, 5, 71, 0
9, 72960, Note_on_c, 5, 79, 110
9, 73079, Note_on_c, 5, 79, 0
9, 73320, Note_on_c, 5, 78, 110
9, 73439, Note_on_c, 5, 78, 0
9, 73440, Note_on_c, 5, 79, 110
9, 73559, Note_on_c, 5, 79, 0
9, 73695, Note_on_c, 5, 76, 110
9, 73709, Note_on_c, 5, 76, 0
9, 73710, Note_on_c, 5, 78, 110
9, 73724, Note_on_c, 5, 78, 0
9, 73725, Note_on_c, 5, 79, 110
9, 73739, Note_on_c, 5, 79, 0
9, 73740, Note_on_c, 5, 81, 110
9, 73754, Note_on_c, 5, 81, 0
9, 73755, Note_on_c, 5, 83, 110
9, 73769, Note_on_c, 5, 83, 0
9, 73770, Note_on_c, 5, 85, 110
9, 73784, Note_on_c, 5, 85, 0
9, 73785, Note_on_c, 5, 86, 110
9, 73799, Note_on_c, 5, 86, 0
9, 73800, Note_on_c, 5, 88, 110
9, 73859, Note_on_c, 5, 88, 0
9, 74175, Note_on_c, 5, 74, 110
9, 74189, Note_on_c, 5, 74, 0
9, 74190, Note_on_c, 5, 76, 110
9, 74204, Note_on_c, 5, 76, 0
9, 74205, Note_on_c, 5, 78, 110
9, 74219, Note_on_c, 5, 78, 0
9, 74220, Note_on_c, 5, 79, 110
9, 74234, Note_on_c, 5, 79, 0
9, 74235, Note_on_c, 5, 81, 110
9, 74249, Note_on_c, 5, 81, 0
9, 74250, Note_on_c, 5, 83, 110
9, 74264, Note_on_c, 5, 83, 0
9, 74265, Note_on_c, 5, 85, 110
9, 74279, Note_on_c, 5, 85, 0
9, 74280, Note_on_c, 5, 86, 110
9, 74339, Note_on_c, 5, 86, 0
9, 74655, Note_on_c, 5, 73, 110
9, 74669, Note_on_c, 5, 73, 0
9, 74670, Note_on_c, 5, 74, 110
9, 74684, Note_on_c, 5, 74, 0
9, 74685, Note_on_c, 5, 76, 110
9, 74699, Note_on_c, 5, 76, 0
9, 74700, Note_on_c, 5, 78, 110
9, 74714, Note_on_c, 5, 78, 0
9, 74715, Note_on_c, 5, 80, 110
9, 74729, Note_on_c, 5, 80, 0
9, 74730, Note_on_c, 5, 82, 110
9, 74744, Note_on_c, 5, 82, 0
9, 74745, Note_on_c, 5, 83, 110
9, 74759, Note_on_c, 5, 83, 0
9, 74760, Note_on_c, 5, 85, 110
9, 74819, Note_on_c, 5, 85, 0
9, 74895, Note_on_c, 5, 71, 110
9, 74909, Note_on_c, 5, 71, 0
9, 74910, Note_on_c, 5, 73, 110
9, 74924, Note_on_c, 5, 73, 0
9, 74925, Note_on_c, 5, 74, 110
9, 74939, Note_on_c, 5, 74, 0
9, 74940, Note_on_c, 5, 76, 110
9, 74954, Note_on_c, 5, 76, 0
9, 74955, Note_on_c, 5, 78, 110
9, 74969, Note_on_c, 5, 78, 0
9, 74970, Note_on_c, 5, 79, 110
9, 74984, Note_on_c, 5, 79, 0
9, 74985, Note_on_c, 5, 81, 110
9, 74999, Note_on_c, 5, 81, 0
9, 75000, Note_on_c, 5, 83, 110
9, 75014, Note_on_c, 5, 83, 0
9, 75015, Note_on_c, 5, 78, 110
9, 75029, Note_on_c, 5, 78, 0
9, 75030, Note_on_c, 5, 79, 110
9, 75044, Note_on_c, 5, 79, 0
9, 75045, Note_on_c, 5, 81, 110
9, 75059, Note_on_c, 5, 81, 0
9, 75060, Note_on_c, 5, 83, 110
9, 75074, Note_on_c, 5, 83, 0
9, 75075, Note_on_c, 5, 85, 110
9, 75089, Note_on_c, 5, 85, 0
9, 75090, Note_on_c, 5, 86, 110
9, 75104, Note_on_c, 5, 86, 0
9, 75105, Note_on_c, 5, 88, 110
9, 75119, Note_on_c, 5, 88, 0
9, 75120, Note_on_c, 5, 90, 110
9, 75179, Note_on_c, 5, 90, 0
9, 75360, Note_on_c, 5, 83, 110
9, 75419, Note_on_c, 5, 83, 0
9, 75600, Note_on_c, 5, 76, 110
9, 75719, Note_on_c, 5, 76, 0
9, 76080, Note_on_c, 5, 75, 110
9, 76199, Note_on_c, 5, 75, 0
9, 76320, Note_on_c, 5, 83, 110
9, 76439, Note_on_c, 5, 83, 0
9, 76575, Note_on_c, 5, 69, 110
9, 76589, Note_on_c, 5, 69, 0
9, 76590, Note_on_c, 5, 71, 110
9, 76604, Note_on_c, 5, 71, 0
9, 76605, Note_on_c, 5, 73, 110
9, 76619, Note_on_c, 5, 73, 0
9, 76620, Note_on_c, 5, 74, 110
9, 76634, Note_on_c, 5, 74, 0
9, 76635, Note_on_c, 5, 76, 110
9, 76649, Note_on_c, 5, 76, 0
9, 76650, Note_on_c, 5, 78, 110
9, 76664, Note_on_c, 5, 78, 0
9, 76665, Note_on_c, 5, 79, 110
9, 76679, Note_on_c, 5, 79, 0
9, 76680, Note_on_c, 5, 81, 110
9, 76709, Note_on_c, 5, 81, 0
9, 76710, Note_on_c, 5, 76, 110
9, 76724, Note_on_c, 5, 76, 0
9, 76725, Note_on_c, 5, 78, 110
9, 76739, Note_on_c, 5, 78, 0
9, 76740, Note_on_c, 5, 79, 110
9, 76754, Note_on_c, 5, 79, 0
9, 76755, Note_on_c, 5, 81, 110
9, 76769, Note_on_c, 5, 81, 0
9, 76770, Note_on_c, 5, 83, 110
9, 76784, Note_on_c, 5, 83, 0
9, 76785, Note_on_c, 5, 85, 110
9, 76799, Note_on_c, 5, 85, 0
9, 76800, Note_on_c, 5, 86, 110
9, 76829, Note_on_c, 5, 86, 0
9, 76830, Note_on_c, 5, 85, 110
9, 76844, Note_on_c, 5, 85, 0
9, 76845, Note_on_c, 5, 83, 110
9, 76859, Note_on_c, 5, 83, 0
9, 76860, Note_on_c, 5, 81, 110
9, 76874, Note_on_c, 5, 81, 0
9, 76875, Note_on_c, 5, 79, 110
9, 76889, Note_on_c, 5, 79, 0
9, 76890, Note_on_c, 5, 78, 110
9, 76904, Note_on_c, 5, 78, 0
9, 76905, Note_on_c, 5, 76, 110
9, 76919, Note_on_c, 5, 76, 0
9, 76920, Note_on_c, 5, 74, 110
9, 76949, Note_on_c, 5, 74, 0
9, 76950, Note_on_c, 5, 73, 110
9, 76964, Note_on_c, 5, 73, 0
9, 76965, Note_on_c, 5, 71, 110
9, 76979, Note_on_c, 5, 71, 0
9, 76980, Note_on_c, 5, 69, 110
9, 76994, Note_on_c, 5, 69, 0
9, 76995, Note_on_c, 5, 67, 110
9, 77009, Note_on_c, 5, 67, 0
9, 77010, Note_on_c, 5, 66, 110
9, 77024, Note_on_c, 5, 66, 0
9, 77025, Note_on_c, 5, 64, 110
9, 77039, Note_on_c, 5, 64, 0
9, 77040, Note_on_c, 5, 62, 110
9, 77159, Note_on_c, 5, 62, 0
9, 77295, Note_on_c, 5, 68, 110
9, 77309, Note_on_c, 5, 68, 0
9, 77310, Note_on_c, 5, 69, 110
9, 77324, Note_on_c, 5, 69, 0
9, 77325, Note_on_c, 5, 71, 110
9, 77339, Note_on_c, 5, 71, 0
9, 77340, Note_on_c, 5, 73, 110
9, 77354, Note_on_c, 5, 73, 0
9, 77355, Note_on_c, 5, 74, 110
9, 77369, Note_on_c, 5, 74, 0
9, 77370, Note_on_c, 5, 76, 110
9, 77384, Note_on_c, 5, 76, 0
9, 77385, Note_on_c, 5, 78, 110
9, 77399, Note_on_c, 5, 78, 0
9, 77400, Note_on_c, 5, 79, 110
9, 77414, Note_on_c, 5, 79, 0
9, 77415, Note_on_c, 5, 78, 110
9, 77429, Note_on_c, 5, 78, 0
9, 77430, Note_on_c, 5, 76, 110
9, 77444, Note_on_c, 5, 76, 0
9, 77445, Note_on_c, 5, 78, 110
9, 77459, Note_on_c, 5, 78, 0
9, 77460, Note_on_c, 5, 79, 110
9, 77474, Note_on_c, 5, 79, 0
9, 77475, Note_on_c, 5, 81, 110
9, 77489, Note_on_c, 5, 81, 0
9, 77490, Note_on_c, 5, 83, 110
9, 77504, Note_on_c, 5, 83, 0
9, 77505, Note_on_c, 5, 85, 110
9, 77519, Note_on_c, 5, 85, 0
9, 77520, Note_on_c, 5, 86, 110
9, 77579, Note_on_c, 5, 86, 0
9, 77775, Note_on_c, 5, 73, 110
9, 77789, Note_on_c, 5, 73, 0
9, 77790, Note_on_c, 5, 74, 110
9, 77804, Note_on_c, 5, 74, 0
9, 77805, Note_on_c, 5, 76, 110
9, 77819, Note_on_c, 5, 76, 0
9, 77820, Note_on_c, 5, 78, 110
9, 77834, Note_on_c, 5, 78, 0
9, 77835, Note_on_c, 5, 80, 110
9, 77849, Note_on_c, 5, 80, 0
9, 77850, Note_on_c, 5, 81, 110
9, 77864, Note_on_c, 5, 81, 0
9, 77865, Note_on_c, 5, 83, 110
9, 77879, Note_on_c, 5, 83, 0
9, 77880, Note_on_c, 5, 85, 110
9, 77894, Note_on_c, 5, 85, 0
9, 77895, Note_on_c, 5, 86, 110
9, 77909, Note_on_c, 5, 86, 0
9, 77910, Note_on_c, 5, 88, 110
9, 77924, Note_on_c, 5, 88, 0
9, 77925, Note_on_c, 5, 86, 110
9, 77939, Note_on_c, 5, 86, 0
9, 77940, Note_on_c, 5, 85, 110
9, 77954, Note_on_c, 5, 85, 0
9, 77955, Note_on_c, 5, 83, 110
9, 77969, Note_on_c, 5, 83, 0
9, 77970, Note_on_c, 5, 81, 110
9, 77984, Note_on_c, 5, 81, 0
9, 77985, Note_on_c, 5, 79, 110
9, 77999, Note_on_c, 5, 79, 0
9, 78000, Note_on_c, 5, 78, 110
9, 78059, Note_on_c, 5, 78, 0
9, 78270, Note_on_c, 5, 85, 110
9, 78284, Note_on_c, 5, 85, 0
9, 78285, Note_on_c, 5, 83, 110
9, 78299, Note_on_c, 5, 83, 0
9, 78300, Note_on_c, 5, 81, 110
9, 78314, Note_on_c, 5, 81, 0
9, 78315, Note_on_c, 5, 80, 110
9, 78329, Note_on_c, 5, 80, 0
9, 78330, Note_on_c, 5, 78, 110
9, 78344, Note_on_c, 5, 78, 0
9, 78345, Note_on_c, 5, 76, 110
9, 78359, Note_on_c, 5, 76, 0
9, 78360, Note_on_c, 5, 74, 110
9, 78374, Note_on_c, 5, 74, 0
9, 78375, Note_on_c, 5, 73, 110
9, 78389, Note_on_c, 5, 73, 0
9, 78390, Note_on_c, 5, 71, 110
9, 78404, Note_on_c, 5, 71, 0
9, 78405, Note_on_c, 5, 69, 110
9, 78419, Note_on_c, 5, 69, 0
9, 78420, Note_on_c, 5, 68, 110
9, 78434, Note_on_c, 5, 68, 0
9, 78435, Note_on_c, 5, 66, 110
9, 78449, Note_on_c, 5, 66, 0
9, 78450, Note_on_c, 5, 64, 110
9, 78464, Note_on_c, 5, 64, 0
9, 78465, Note_on_c, 5, 62, 110
9, 78479, Note_on_c, 5, 62, 0
9, 78480, Note_on_c, 5, 64, 110
9, 78509, Note_on_c, 5, 64, 0
9, 78510, Note_on_c, 5, 69, 110
9, 78524, Note_on_c, 5, 69, 0
9, 78525, Note_on_c, 5, 73, 110
9, 78539, Note_on_c, 5, 73, 0
9, 78540, Note_on_c, 5, 76, 110
9, 78569, Note_on_c, 5, 76, 0
9, 78570, Note_on_c, 5, 73, 110
9, 78584, Note_on_c, 5, 73, 0
9, 78585, Note_on_c, 5, 76, 110
9, 78599, Note_on_c, 5, 76, 0
9, 78600, Note_on_c, 5, 81, 110
9, 78629, Note_on_c, 5, 81, 0
9, 78630, Note_on_c, 5, 76, 110
9, 78644, Note_on_c, 5, 76, 0
9, 78645, Note_on_c, 5, 81, 110
9, 78659, Note_on_c, 5, 81, 0
9, 78660, Note_on_c, 5, 85, 110
9, 78689, Note_on_c, 5, 85, 0
9, 78690, Note_on_c, 5, 81, 110
9, 78704, Note_on_c, 5, 81, 0
9, 78705, Note_on_c, 5, 85, 110
9, 78719, Note_on_c, 5, 85, 0
9, 78720, Note_on_c, 5, 88, 110
9, 78839, Note_on_c, 5, 88, 0
9, 78975, Note_on_c, 5, 73, 110
9, 78989, Note_on_c, 5, 73, 0
9, 78990, Note_on_c, 5, 74, 110
9, 79004, Note_on_c, 5, 74, 0
9, 79005, Note_on_c, 5, 76, 110
9, 79019, Note_on_c, 5, 76, 0
9, 79020, Note_on_c, 5, 78, 110
9, 79034, Note_on_c, 5, 78, 0
9, 79035, Note_on_c, 5, 80, 110
9, 79049, Note_on_c, 5, 80, 0
9, 79050, Note_on_c, 5, 82, 110
9, 79064, Note_on_c, 5, 82, 0
9, 79065, Note_on_c, 5, 83, 110
9, 79079, Note_on_c, 5, 83, 0
9, 79080, Note_on_c, 5, 85, 110
9, 79139, Note_on_c, 5, 85, 0
9, 79455, Note_on_c, 5, 83, 110
9, 79469, Note_on_c, 5, 83, 0
9, 79470, Note_on_c, 5, 81, 110
9, 79484, Note_on_c, 5, 81, 0
9, 79485, Note_on_c, 5, 79, 110
9, 79499, Note_on_c, 5, 79, 0
9, 79500, Note_on_c, 5, 78, 110
9, 79514, Note_on_c, 5, 78, 0
9, 79515, Note_on_c, 5, 76, 110
9, 79529, Note_on_c, 5, 76, 0
9, 79530, Note_on_c, 5, 75, 110
9, 79544, Note_on_c, 5, 75, 0
9, 79545, Note_on_c, 5, 73, 110
9, 79559, Note_on_c, 5, 73, 0
9, 79560, Note_on_c, 5, 71, 110
9, 79574, Note_on_c, 5, 71, 0
9, 79575, Note_on_c, 5, 73, 110
9, 79589, Note_on_c, 5, 73, 0
9, 79590, Note_on_c, 5, 75, 110
9, 79604, Note_on_c, 5, 75, 0
9, 79605, Note_on_c, 5, 76, 110
9, 79619, Note_on_c, 5, 76, 0
9, 79620, Note_on_c, 5, 78, 110
9, 79634, Note_on_c, 5, 78, 0
9, 79635, Note_on_c, 5, 79, 110
9, 79649, Note_on_c, 5, 79, 0
9, 79650, Note_on_c, 5, 81, 110
9, 79664, Note_on_c, 5, 81, 0
9, 79665, Note_on_c, 5, 83, 110
9, 79679, Note_on_c, 5, 83, 0
9, 79680, Note_on_c, 5, 84, 110
9, 79739, Note_on_c, 5, 84, 0
9, 80070, Note_on_c, 5, 76, 110
9, 80084, Note_on_c, 5, 76, 0
9, 80085, Note_on_c, 5, 78, 110
9, 80099, Note_on_c, 5, 78, 0
9, 80100, Note_on_c, 5, 80, 110
9, 80114, Note_on_c, 5, 80, 0
9, 80115, Note_on_c, 5, 81, 110
9, 80129, Note_on_c, 5, 81, 0
9, 80130, Note_on_c, 5, 83, 110
9, 80144, Note_on_c, 5, 83, 0
9, 80145, Note_on_c, 5, 85, 110
9, 80159, Note_on_c, 5, 85, 0
9, 80160, Note_on_c, 5, 86, 110
9, 80219, Note_on_c, 5, 86, 0
9, 80430, Note_on_c, 5, 77, 110
9, 80444, Note_on_c, 5, 77, 0
9, 80445, Note_on_c, 5, 78, 110
9, 80459, Note_on_c, 5, 78, 0
9, 80460, Note_on_c, 5, 80, 110
9, 80474, Note_on_c, 5, 80, 0
9, 80475, Note_on_c, 5, 81, 110
9, 80489, Note_on_c, 5, 81, 0
9, 80490, Note_on_c, 5, 83, 110
9, 80504, Note_on_c, 5, 83, 0
9, 80505, Note_on_c, 5, 85, 110
9, 80519, Note_on_c, 5, 85, 0
9, 80520, Note_on_c, 5, 86, 110
9, 80579, Note_on_c, 5, 86, 0
9, 80910, Note_on_c, 5, 85, 110
9, 80924, Note_on_c, 5, 85, 0
9, 80925, Note_on_c, 5, 83, 110
9, 80939, Note_on_c, 5, 83, 0
9, 80940, Note_on_c, 5, 81, 110
9, 80954, Note_on_c, 5, 81, 0
9, 80955, Note_on_c, 5, 80, 110
9, 80969, Note_on_c, 5, 80, 0
9, 80970, Note_on_c, 5, 78, 110
9, 80984, Note_on_c, 5, 78, 0
9, 80985, Note_on_c, 5, 77, 110
9, 80999, Note_on_c, 5, 77, 0
9, 81000, Note_on_c, 5, 78, 110
9, 81059, Note_on_c, 5, 78, 0
9, 81150, Note_on_c, 5, 74, 110
9, 81164, Note_on_c, 5, 74, 0
9, 81165, Note_on_c, 5, 73, 110
9, 81179, Note_on_c, 5, 73, 0
9, 81180, Note_on_c, 5, 71, 110
9, 81194, Note_on_c, 5, 71, 0
9, 81195, Note_on_c, 5, 69, 110
9, 81209, Note_on_c, 5, 69, 0
9, 81210, Note_on_c, 5, 67, 110
9, 81224, Note_on_c, 5, 67, 0
9, 81225, Note_on_c, 5, 66, 110
9, 81239, Note_on_c, 5, 66, 0
9, 81240, Note_on_c, 5, 67, 110
9, 81299, Note_on_c, 5, 67, 0
9, 81390, Note_on_c, 5, 71, 110
9, 81404, Note_on_c, 5, 71, 0
9, 81405, Note_on_c, 5, 69, 110
9, 81419, Note_on_c, 5, 69, 0
9, 81420, Note_on_c, 5, 68, 110
9, 81434, Note_on_c, 5, 68, 0
9, 81435, Note_on_c, 5, 66, 110
9, 81449, Note_on_c, 5, 66, 0
9, 81450, Note_on_c, 5, 65, 110
9, 81464, Note_on_c, 5, 65, 0
9, 81465, Note_on_c, 5, 63, 110
9, 81479, Note_on_c, 5, 63, 0
9, 81480, Note_on_c, 5, 65, 110
9, 81539, Note_on_c, 5, 65, 0
9, 226800, Note_on_c, 5, 74, 120
9, 227040, Note_on_c, 5, 74, 0
9, 227040, Note_on_c, 5, 72, 120
9, 227520, Note_on_c, 5, 72, 0
9, 227520, Note_on_c, 5, 74, 120
9, 228000, Note_on_c, 5, 74, 0
9, 228000, Note_on_c, 5, 71, 120
9, 228480, Note_on_c, 5, 71, 0
9, 228480, Note_on_c, 5, 76, 120
9, 228600, Note_on_c, 5, 76, 0
9, 228600, Note_on_c, 5, 72, 120
9, 228960, Note_on_c, 5, 72, 0
9, 228960, Note_on_c, 5, 76, 120
9, 229200, Note_on_c, 5, 76, 0
9, 229200, Note_on_c, 5, 73, 120
9, 229440, Note_on_c, 5, 73, 0
9, 229440, Note_on_c, 5, 74, 120
9, 229560, Note_on_c, 5, 74, 0
9, 229560, Note_on_c, 5, 78, 120
9, 229800, Note_on_c, 5, 78, 0
9, 229800, Note_on_c, 5, 76, 120
9, 229860, Note_on_c, 5, 76, 0
9, 229860, Note_on_c, 5, 73, 120
9, 229920, Note_on_c, 5, 73, 0
9, 229920, Note_on_c, 5, 78, 120
9, 230040, Note_on_c, 5, 78, 0
9, 230040, Note_on_c, 5, 83, 120
9, 230400, Note_on_c, 5, 83, 0
9, 230520, Note_on_c, 5, 76, 120
9, 230550, Note_on_c, 5, 76, 0
9, 230550, Note_on_c, 5, 74, 120
9, 230580, Note_on_c, 5, 74, 0
9, 230580, Note_on_c, 5, 76, 120
9, 230610, Note_on_c, 5, 76, 0
9, 230610, Note_on_c, 5, 73, 120
9, 230640, Note_on_c, 5, 73, 0
9, 230640, Note_on_c, 5, 74, 120
9, 231240, Note_on_c, 5, 74, 0
9, 231240, Note_on_c, 5, 78, 120
9, 231360, Note_on_c, 5, 78, 0
9, 231360, Note_on_c, 5, 71, 120
9, 231480, Note_on_c, 5, 71, 0
9, 231480, Note_on_c, 5, 74, 120
9, 231840, Note_on_c, 5, 74, 0
9, 231840, Note_on_c, 5, 73, 120
9, 231960, Note_on_c, 5, 73, 0
9, 231960, Note_on_c, 5, 71, 110
9, 232019, Note_on_c, 5, 71, 0
9, 232020, Note_on_c, 5, 68, 110
9, 232079, Note_on_c, 5, 68, 0
9, 232080, Note_on_c, 5, 73, 110
9, 232320, Note_on_c, 5, 73, 0
9, 232320, Note_on_c, 5, 69, 110
9, 233040, Note_on_c, 5, 69, 0
9, 233040, Note_on_c, 5, 75, 110
9, 233280, Note_on_c, 5, 75, 0
9, 233280, Note_on_c, 5, 68, 110
9, 233760, Note_on_c, 5, 68, 0
9, 233760, Note_on_c, 5, 66, 110
9, 234240, Note_on_c, 5, 66, 0
9, 234480, Note_on_c, 5, 64, 110
9, 234720, Note_on_c, 5, 64, 0
9, 234840, Note_on_c, 5, 64, 110
9, 234900, Note_on_c, 5, 64, 0
9, 234900, Note_on_c, 5, 73, 110
9, 234960, Note_on_c, 5, 73, 0
9, 234960, Note_on_c, 5, 74, 110
9, 235200, Note_on_c, 5, 74, 0
9, 321060, Note_on_c, 5, 86, 110
9, 321299, Note_on_c, 5, 86, 0
9, 321300, Note_on_c, 5, 81, 110
9, 321539, Note_on_c, 5, 81, 0
9, 321540, Note_on_c, 5, 74, 110
9, 321659, Note_on_c, 5, 74, 0
9, 321660, Note_on_c, 5, 74, 110
9, 321719, Note_on_c, 5, 74, 0
9, 321720, Note_on_c, 5, 73, 110
9, 321779, Note_on_c, 5, 73, 0
9, 321780, Note_on_c, 5, 76, 110
9, 321899, Note_on_c, 5, 76, 0
9, 321900, Note_on_c, 5, 74, 110
9, 321959, Note_on_c, 5, 74, 0
9, 321960, Note_on_c, 5, 73, 110
9, 322019, Note_on_c, 5, 73, 0
9, 322020, Note_on_c, 5, 74, 110
9, 322139, Note_on_c, 5, 74, 0
9, 322140, Note_on_c, 5, 74, 110
9, 322199, Note_on_c, 5, 74, 0
9, 322200, Note_on_c, 5, 73, 110
9, 322259, Note_on_c, 5, 73, 0
9, 322260, Note_on_c, 5, 76, 110
9, 322379, Note_on_c, 5, 76, 0
9, 322380, Note_on_c, 5, 74, 110
9, 322439, Note_on_c, 5, 74, 0
9, 322440, Note_on_c, 5, 73, 110
9, 322499, Note_on_c, 5, 73, 0
9, 322500, Note_on_c, 5, 86, 110
9, 322739, Note_on_c, 5, 86, 0
9, 322740, Note_on_c, 5, 81, 110
9, 322979, Note_on_c, 5, 81, 0
9, 322980, Note_on_c, 5, 78, 110
9, 323099, Note_on_c, 5, 78, 0
9, 323100, Note_on_c, 5, 78, 110
9, 323159, Note_on_c, 5, 78, 0
9, 323160, Note_on_c, 5, 76, 110
9, 323219, Note_on_c, 5, 76, 0
9, 323220, Note_on_c, 5, 79, 110
9, 323339, Note_on_c, 5, 79, 0
9, 323340, Note_on_c, 5, 78, 110
9, 323399, Note_on_c, 5, 78, 0
9, 323400, Note_on_c, 5, 76, 110
9, 323459, Note_on_c, 5, 76, 0
9, 323460, Note_on_c, 5, 78, 110
9, 323579, Note_on_c, 5, 78, 0
9, 323580, Note_on_c, 5, 78, 110
9, 323639, Note_on_c, 5, 78, 0
9, 323640, Note_on_c, 5, 76, 110
9, 323699, Note_on_c, 5, 76, 0
9, 323700, Note_on_c, 5, 79, 110
9, 323819, Note_on_c, 5, 79, 0
9, 323820, Note_on_c, 5, 78, 110
9, 323879, Note_on_c, 5, 78, 0
9, 323880, Note_on_c, 5, 76, 110
9, 323939, Note_on_c, 5, 76, 0
9, 323940, Note_on_c, 5, 86, 110
9, 324179, Note_on_c, 5, 86, 0
9, 324180, Note_on_c, 5, 81, 110
9, 324419, Note_on_c, 5, 81, 0
9, 324420, Note_on_c, 5, 78, 110
9, 324539, Note_on_c, 5, 78, 0
9, 324540, Note_on_c, 5, 74, 110
9, 324659, Note_on_c, 5, 74, 0
9, 324660, Note_on_c, 5, 81, 110
9, 324779, Note_on_c, 5, 81, 0
9, 324780, Note_on_c, 5, 78, 110
9, 324899, Note_on_c, 5, 78, 0
9, 324900, Note_on_c, 5, 86, 110
9, 325019, Note_on_c, 5, 86, 0
9, 325020, Note_on_c, 5, 81, 110
9, 325139, Note_on_c, 5, 81, 0
9, 325140, Note_on_c, 5, 78, 110
9, 325259, Note_on_c, 5, 78, 0
9, 325260, Note_on_c, 5, 74, 110
9, 325379, Note_on_c, 5, 74, 0
9, 325380, Note_on_c, 5, 78, 110
9, 325499, Note_on_c, 5, 78, 0
9, 325500, Note_on_c, 5, 78, 110
9, 325559, Note_on_c, 5, 78, 0
9, 325560, Note_on_c, 5, 76, 110
9, 325619, Note_on_c, 5, 76, 0
9, 325620, Note_on_c, 5, 79, 110
9, 325739, Note_on_c, 5, 79, 0
9, 325740, Note_on_c, 5, 78, 110
9, 325799, Note_on_c, 5, 78, 0
9, 325800, Note_on_c, 5, 76, 110
9, 325859, Note_on_c, 5, 76, 0
9, 325860, Note_on_c, 5, 78, 110
9, 325979, Note_on_c, 5, 78, 0
9, 325980, Note_on_c, 5, 76, 110
9, 326039, Note_on_c, 5, 76, 0
9, 326040, Note_on_c, 5, 74, 110
9, 326099, Note_on_c, 5, 74, 0
9, 326100, Note_on_c, 5, 73, 110
9, 326339, Note_on_c, 5, 73, 0
9, 326340, Note_on_c, 5, 88, 110
9, 326579, Note_on_c, 5, 88, 0
9, 326580, Note_on_c, 5, 85, 110
9, 326819, Note_on_c, 5, 85, 0
9, 326820, Note_on_c, 5, 73, 110
9, 326939, Note_on_c, 5, 73, 0
9, 326940, Note_on_c, 5, 73, 110
9, 326999, Note_on_c, 5, 73, 0
9, 327000, Note_on_c, 5, 71, 110
9, 327059, Note_on_c, 5, 71, 0
9, 327060, Note_on_c, 5, 74, 110
9, 327179, Note_on_c, 5, 74, 0
9, 327180, Note_on_c, 5, 73, 110
9, 327239, Note_on_c, 5, 73, 0
9, 327240, Note_on_c, 5, 71, 110
9, 327299, Note_on_c, 5, 71, 0
9, 327300, Note_on_c, 5, 73, 110
9, 327419, Note_on_c, 5, 73, 0
9, 327420, Note_on_c, 5, 73, 110
9, 327479, Note_on_c, 5, 73, 0
9, 327480, Note_on_c, 5, 71, 110
9, 327539, Note_on_c, 5, 71, 0
9, 327540, Note_on_c, 5, 74, 110
9, 327659, Note_on_c, 5, 74, 0
9, 327660, Note_on_c, 5, 73, 110
9, 327719, Note_on_c, 5, 73, 0
9, 327720, Note_on_c, 5, 71, 110
9, 327779, Note_on_c, 5, 71, 0
9, 327780, Note_on_c, 5, 85, 110
9, 328019, Note_on_c, 5, 85, 0
9, 328020, Note_on_c, 5, 81, 110
9, 328259, Note_on_c, 5, 81, 0
9, 328260, Note_on_c, 5, 76, 110
9, 328379, Note_on_c, 5, 76, 0
9, 328380, Note_on_c, 5, 76, 110
9, 328439, Note_on_c, 5, 76, 0
9, 328440, Note_on_c, 5, 74, 110
9, 328499, Note_on_c, 5, 74, 0
9, 328500, Note_on_c, 5, 78, 110
9, 328619, Note_on_c, 5, 78, 0
9, 328620, Note_on_c, 5, 76, 110
9, 328679, Note_on_c, 5, 76, 0
9, 328680, Note_on_c, 5, 74, 110
9, 328739, Note_on_c, 5, 74, 0
9, 328740, Note_on_c, 5, 76, 110
9, 328859, Note_on_c, 5, 76, 0
9, 328860, Note_on_c, 5, 76, 110
9, 328919, Note_on_c, 5, 76, 0
9, 328920, Note_on_c, 5, 74, 110
9, 328979, Note_on_c, 5, 74, 0
9, 328980, Note_on_c, 5, 78, 110
9, 329099, Note_on_c, 5, 78, 0
9, 329100, Note_on_c, 5, 76, 110
9, 329159, Note_on_c, 5, 76, 0
9, 329160, Note_on_c, 5, 74, 110
9, 329219, Note_on_c, 5, 74, 0
9, 329220, Note_on_c, 5, 81, 110
9, 329459, Note_on_c, 5, 81, 0
9, 329460, Note_on_c, 5, 76, 110
9, 329699, Note_on_c, 5, 76, 0
9, 329700, Note_on_c, 5, 73, 110
9, 329819, Note_on_c, 5, 73, 0
9, 329820, Note_on_c, 5, 69, 110
9, 329939, Note_on_c, 5, 69, 0
9, 329940, Note_on_c, 5, 76, 110
9, 330059, Note_on_c, 5, 76, 0
9, 330060, Note_on_c, 5, 73, 110
9, 330179, Note_on_c, 5, 73, 0
9, 330180, Note_on_c, 5, 79, 110
9, 330299, Note_on_c, 5, 79, 0
9, 330300, Note_on_c, 5, 76, 110
9, 330419, Note_on_c, 5, 76, 0
9, 330420, Note_on_c, 5, 73, 110
9, 330539, Note_on_c, 5, 73, 0
9, 330540, Note_on_c, 5, 69, 110
9, 330659, Note_on_c, 5, 69, 0
9, 330660, Note_on_c, 5, 74, 110
9, 330719, Note_on_c, 5, 74, 0
9, 330720, Note_on_c, 5, 76, 110
9, 330779, Note_on_c, 5, 76, 0
9, 330780, Note_on_c, 5, 78, 110
9, 330839, Note_on_c, 5, 78, 0
9, 330840, Note_on_c, 5, 79, 110
9, 330899, Note_on_c, 5, 79, 0
9, 330900, Note_on_c, 5, 81, 110
9, 331019, Note_on_c, 5, 81, 0
9, 331020, Note_on_c, 5, 83, 110
9, 331079, Note_on_c, 5, 83, 0
9, 331080, Note_on_c, 5, 81, 110
9, 331139, Note_on_c, 5, 81, 0
9, 331140, Note_on_c, 5, 79, 110
9, 331199, Note_on_c, 5, 79, 0
9, 331200, Note_on_c, 5, 78, 110
9, 331259, Note_on_c, 5, 78, 0
9, 331260, Note_on_c, 5, 76, 110
9, 331319, Note_on_c, 5, 76, 0
9, 331320, Note_on_c, 5, 78, 110
9, 331379, Note_on_c, 5, 78, 0
9, 331380, Note_on_c, 5, 74, 110
9, 331619, Note_on_c, 5, 74, 0
9, 333540, Note_on_c, 5, 78, 110
9, 333659, Note_on_c, 5, 78, 0
9, 333660, Note_on_c, 5, 78, 110
9, 333719, Note_on_c, 5, 78, 0
9, 333720, Note_on_c, 5, 76, 110
9, 333779, Note_on_c, 5, 76, 0
9, 333780, Note_on_c, 5, 79, 110
9, 333899, Note_on_c, 5, 79, 0
9, 333900, Note_on_c, 5, 78, 110
9, 333959, Note_on_c, 5, 78, 0
9, 333960, Note_on_c, 5, 76, 110
9, 334019, Note_on_c, 5, 76, 0
9, 334020, Note_on_c, 5, 78, 110
9, 334139, Note_on_c, 5, 78, 0
9, 334140, Note_on_c, 5, 78, 110
9, 334199, Note_on_c, 5, 78, 0
9, 334200, Note_on_c, 5, 76, 110
9, 334259, Note_on_c, 5, 76, 0
9, 334260, Note_on_c, 5, 79, 110
9, 334379, Note_on_c, 5, 79, 0
9, 334380, Note_on_c, 5, 78, 110
9, 334439, Note_on_c, 5, 78, 0
9, 334440, Note_on_c, 5, 76, 110
9, 334499, Note_on_c, 5, 76, 0
9, 334500, Note_on_c, 5, 81, 110
9, 334739, Note_on_c, 5, 81, 0
9, 334740, Note_on_c, 5, 78, 110
9, 334979, Note_on_c, 5, 78, 0
9, 334980, Note_on_c, 5, 74, 110
9, 335099, Note_on_c, 5, 74, 0
9, 335100, Note_on_c, 5, 69, 110
9, 335219, Note_on_c, 5, 69, 0
9, 335220, Note_on_c, 5, 78, 110
9, 335339, Note_on_c, 5, 78, 0
9, 335340, Note_on_c, 5, 74, 110
9, 335459, Note_on_c, 5, 74, 0
9, 335460, Note_on_c, 5, 81, 110
9, 335579, Note_on_c, 5, 81, 0
9, 335580, Note_on_c, 5, 78, 110
9, 335699, Note_on_c, 5, 78, 0
9, 335700, Note_on_c, 5, 74, 110
9, 335819, Note_on_c, 5, 74, 0
9, 335820, Note_on_c, 5, 69, 110
9, 335939, Note_on_c, 5, 69, 0
9, 335940, Note_on_c, 5, 78, 110
9, 336059, Note_on_c, 5, 78, 0
9, 336060, Note_on_c, 5, 78, 110
9, 336119, Note_on_c, 5, 78, 0
9, 336120, Note_on_c, 5, 76, 110
9, 336179, Note_on_c, 5, 76, 0
9, 336180, Note_on_c, 5, 79, 110
9, 336299, Note_on_c, 5, 79, 0
9, 336300, Note_on_c, 5, 78, 110
9, 336359, Note_on_c, 5, 78, 0
9, 336360, Note_on_c, 5, 76, 110
9, 336419, Note_on_c, 5, 76, 0
9, 336420, Note_on_c, 5, 78, 110
9, 336539, Note_on_c, 5, 78, 0
9, 336540, Note_on_c, 5, 76, 110
9, 336599, Note_on_c, 5, 76, 0
9, 336600, Note_on_c, 5, 74, 110
9, 336659, Note_on_c, 5, 74, 0
9, 336660, Note_on_c, 5, 73, 110
9, 336899, Note_on_c, 5, 73, 0
9, 337380, Note_on_c, 5, 73, 110
9, 337499, Note_on_c, 5, 73, 0
9, 337500, Note_on_c, 5, 73, 110
9, 337559, Note_on_c, 5, 73, 0
9, 337560, Note_on_c, 5, 71, 110
9, 337619, Note_on_c, 5, 71, 0
9, 337620, Note_on_c, 5, 74, 110
9, 337739, Note_on_c, 5, 74, 0
9, 337740, Note_on_c, 5, 73, 110
9, 337799, Note_on_c, 5, 73, 0
9, 337800, Note_on_c, 5, 71, 110
9, 337859, Note_on_c, 5, 71, 0
9, 337860, Note_on_c, 5, 73, 110
9, 337979, Note_on_c, 5, 73, 0
9, 337980, Note_on_c, 5, 73, 110
9, 338039, Note_on_c, 5, 73, 0
9, 338040, Note_on_c, 5, 71, 110
9, 338099, Note_on_c, 5, 71, 0
9, 338100, Note_on_c, 5, 74, 110
9, 338219, Note_on_c, 5, 74, 0
9, 338220, Note_on_c, 5, 73, 110
9, 338279, Note_on_c, 5, 73, 0
9, 338280, Note_on_c, 5, 71, 110
9, 338339, Note_on_c, 5, 71, 0
9, 338340, Note_on_c, 5, 73, 110
9, 338579, Note_on_c, 5, 73, 0
9, 338820, Note_on_c, 5, 76, 110
9, 338939, Note_on_c, 5, 76, 0
9, 338940, Note_on_c, 5, 76, 110
9, 338999, Note_on_c, 5, 76, 0
9, 339000, Note_on_c, 5, 74, 110
9, 339059, Note_on_c, 5, 74, 0
9, 339060, Note_on_c, 5, 78, 110
9, 339179, Note_on_c, 5, 78, 0
9, 339180, Note_on_c, 5, 76, 110
9, 339239, Note_on_c, 5, 76, 0
9, 339240, Note_on_c, 5, 74, 110
9, 339299, Note_on_c, 5, 74, 0
9, 339300, Note_on_c, 5, 76, 110
9, 339419, Note_on_c, 5, 76, 0
9, 339420, Note_on_c, 5, 76, 110
9, 339479, Note_on_c, 5, 76, 0
9, 339480, Note_on_c, 5, 74, 110
9, 339539, Note_on_c, 5, 74, 0
9, 339540, Note_on_c, 5, 78, 110
9, 339659, Note_on_c, 5, 78, 0
9, 339660, Note_on_c, 5, 76, 110
9, 339719, Note_on_c, 5, 76, 0
9, 339720, Note_on_c, 5, 74, 110
9, 339779, Note_on_c, 5, 74, 0
9, 339780, Note_on_c, 5, 81, 110
9, 340019, Note_on_c, 5, 81, 0
9, 340020, Note_on_c, 5, 76, 110
9, 340259, Note_on_c, 5, 76, 0
9, 340260, Note_on_c, 5, 73, 110
9, 340379, Note_on_c, 5, 73, 0
9, 340380, Note_on_c, 5, 69, 110
9, 340499, Note_on_c, 5, 69, 0
9, 340500, Note_on_c, 5, 76, 110
9, 340619, Note_on_c, 5, 76, 0
9, 340620, Note_on_c, 5, 73, 110
9, 340739, Note_on_c, 5, 73, 0
9, 340740, Note_on_c, 5, 79, 110
9, 340859, Note_on_c, 5, 79, 0
9, 340860, Note_on_c, 5, 76, 110
9, 340979, Note_on_c, 5, 76, 0
9, 340980, Note_on_c, 5, 73, 110
9, 341099, Note_on_c, 5, 73, 0
9, 341100, Note_on_c, 5, 69, 110
9, 341219, Note_on_c, 5, 69, 0
9, 341220, Note_on_c, 5, 74, 110
9, 341279, Note_on_c, 5, 74, 0
9, 341280, Note_on_c, 5, 76, 110
9, 341339, Note_on_c, 5, 76, 0
9, 341340, Note_on_c, 5, 78, 110
9, 341399, Note_on_c, 5, 78, 0
9, 341400, Note_on_c, 5, 79, 110
9, 341459, Note_on_c, 5, 79, 0
9, 341460, Note_on_c, 5, 81, 110
9, 341579, Note_on_c, 5, 81, 0
9, 341580, Note_on_c, 5, 83, 110
9, 341639, Note_on_c, 5, 83, 0
9, 341640, Note_on_c, 5, 81, 110
9, 341699, Note_on_c, 5, 81, 0
9, 341700, Note_on_c, 5, 79, 110
9, 341759, Note_on_c, 5, 79, 0
9, 341760, Note_on_c, 5, 78, 110
9, 341819, Note_on_c, 5, 78, 0
9, 341820, Note_on_c, 5, 76, 110
9, 341879, Note_on_c, 5, 76, 0
9, 341880, Note_on_c, 5, 78, 110
9, 341939, Note_on_c, 5, 78, 0
9, 341940, Note_on_c, 5, 74, 110
9, 342179, Note_on_c, 5, 74, 0
9, 343140, Note_on_c, 5, 83, 110
9, 343379, Note_on_c, 5, 83, 0
9, 343380, Note_on_c, 5, 78, 110
9, 343619, Note_on_c, 5, 78, 0
9, 344580, Note_on_c, 5, 81, 110
9, 344819, Note_on_c, 5, 81, 0
9, 344820, Note_on_c, 5, 76, 110
9, 345059, Note_on_c, 5, 76, 0
9, 346020, Note_on_c, 5, 81, 110
9, 346259, Note_on_c, 5, 81, 0
9, 346260, Note_on_c, 5, 76, 110
9, 346619, Note_on_c, 5, 76, 0
9, 346620, Note_on_c, 5, 78, 110
9, 346739, Note_on_c, 5, 78, 0
9, 346740, Note_on_c, 5, 76, 110
9, 346859, Note_on_c, 5, 76, 0
9, 346860, Note_on_c, 5, 74, 110
9, 346979, Note_on_c, 5, 74, 0
9, 346980, Note_on_c, 5, 73, 110
9, 347219, Note_on_c, 5, 73, 0
9, 347220, Note_on_c, 5, 71, 110
9, 347279, Note_on_c, 5, 71, 0
9, 347280, Note_on_c, 5, 69, 110
9, 347339, Note_on_c, 5, 69, 0
9, 347340, Note_on_c, 5, 71, 110
9, 347459, Note_on_c, 5, 71, 0
9, 347460, Note_on_c, 5, 69, 110
9, 347699, Note_on_c, 5, 69, 0
9, 347940, Note_on_c, 5, 86, 110
9, 348179, Note_on_c, 5, 86, 0
9, 348180, Note_on_c, 5, 81, 110
9, 348419, Note_on_c, 5, 81, 0
9, 349380, Note_on_c, 5, 86, 110
9, 349619, Note_on_c, 5, 86, 0
9, 349620, Note_on_c, 5, 81, 110
9, 349859, Note_on_c, 5, 81, 0
9, 350820, Note_on_c, 5, 86, 110
9, 351059, Note_on_c, 5, 86, 0
9, 351060, Note_on_c, 5, 81, 110
9, 351299, Note_on_c, 5, 81, 0
9, 351300, Note_on_c, 5, 78, 110
9, 351419, Note_on_c, 5, 78, 0
9, 351420, Note_on_c, 5, 74, 110
9, 351539, Note_on_c, 5, 74, 0
9, 351540, Note_on_c, 5, 81, 110
9, 351659, Note_on_c, 5, 81, 0
9, 351660, Note_on_c, 5, 78, 110
9, 351779, Note_on_c, 5, 78, 0
9, 351780, Note_on_c, 5, 86, 110
9, 351899, Note_on_c, 5, 86, 0
9, 351900, Note_on_c, 5, 81, 110
9, 352019, Note_on_c, 5, 81, 0
9, 352020, Note_on_c, 5, 78, 110
9, 352139, Note_on_c, 5, 78, 0
9, 352140, Note_on_c, 5, 74, 110
9, 352259, Note_on_c, 5, 74, 0
9, 352260, Note_on_c, 5, 78, 110
9, 352379, Note_on_c, 5, 78, 0
9, 352380, Note_on_c, 5, 78, 110
9, 352439, Note_on_c, 5, 78, 0
9, 352440, Note_on_c, 5, 76, 110
9, 352499, Note_on_c, 5, 76, 0
9, 352500, Note_on_c, 5, 79, 110
9, 352619, Note_on_c, 5, 79, 0
9, 352620, Note_on_c, 5, 78, 110
9, 352679, Note_on_c, 5, 78, 0
9, 352680, Note_on_c, 5, 76, 110
9, 352739, Note_on_c, 5, 76, 0
9, 352740, Note_on_c, 5, 78, 110
9, 352859, Note_on_c, 5, 78, 0
9, 352860, Note_on_c, 5, 76, 110
9, 352919, Note_on_c, 5, 76, 0
9, 352920, Note_on_c, 5, 74, 110
9, 352979, Note_on_c, 5, 74, 0
9, 352980, Note_on_c, 5, 73, 110
9, 353219, Note_on_c, 5, 73, 0
9, 353220, Note_on_c, 5, 88, 110
9, 353459, Note_on_c, 5, 88, 0
9, 353460, Note_on_c, 5, 85, 110
9, 353699, Note_on_c, 5, 85, 0
9, 353700, Note_on_c, 5, 76, 110
9, 353819, Note_on_c, 5, 76, 0
9, 353820, Note_on_c, 5, 76, 110
9, 353939, Note_on_c, 5, 76, 0
9, 353940, Note_on_c, 5, 76, 110
9, 354059, Note_on_c, 5, 76, 0
9, 354060, Note_on_c, 5, 76, 110
9, 354179, Note_on_c, 5, 76, 0
9, 354180, Note_on_c, 5, 76, 110
9, 354299, Note_on_c, 5, 76, 0
9, 354300, Note_on_c, 5, 76, 110
9, 354419, Note_on_c, 5, 76, 0
9, 354420, Note_on_c, 5, 76, 110
9, 354539, Note_on_c, 5, 76, 0
9, 354540, Note_on_c, 5, 76, 110
9, 354659, Note_on_c, 5, 76, 0
9, 354660, Note_on_c, 5, 88, 110
9, 354899, Note_on_c, 5, 88, 0
9, 354900, Note_on_c, 5, 85, 110
9, 355139, Note_on_c, 5, 85, 0
9, 356100, Note_on_c, 5, 88, 110
9, 356339, Note_on_c, 5, 88, 0
9, 356340, Note_on_c, 5, 85, 110
9, 356579, Note_on_c, 5, 85, 0
9, 356580, Note_on_c, 5, 85, 110
9, 356699, Note_on_c, 5, 85, 0
9, 356700, Note_on_c, 5, 81, 110
9, 356819, Note_on_c, 5, 81, 0
9, 356820, Note_on_c, 5, 88, 110
9, 356939, Note_on_c, 5, 88, 0
9, 356940, Note_on_c, 5, 85, 110
9, 357059, Note_on_c, 5, 85, 0
9, 357060, Note_on_c, 5, 91, 110
9, 357179, Note_on_c, 5, 91, 0
9, 357180, Note_on_c, 5, 88, 110
9, 357299, Note_on_c, 5, 88, 0
9, 357300, Note_on_c, 5, 85, 110
9, 357419, Note_on_c, 5, 85, 0
9, 357420, Note_on_c, 5, 81, 110
9, 357539, Note_on_c, 5, 81, 0
9, 357540, Note_on_c, 5, 74, 110
9, 357599, Note_on_c, 5, 74, 0
9, 357600, Note_on_c, 5, 76, 110
9, 357659, Note_on_c, 5, 76, 0
9, 357660, Note_on_c, 5, 78, 110
9, 357719, Note_on_c, 5, 78, 0
9, 357720, Note_on_c, 5, 79, 110
9, 357779, Note_on_c, 5, 79, 0
9, 357780, Note_on_c, 5, 81, 110
9, 357899, Note_on_c, 5, 81, 0
9, 357900, Note_on_c, 5, 83, 110
9, 357959, Note_on_c, 5, 83, 0
9, 357960, Note_on_c, 5, 81, 110
9, 358019, Note_on_c, 5, 81, 0
9, 358020, Note_on_c, 5, 79, 110
9, 358079, Note_on_c, 5, 79, 0
9, 358080, Note_on_c, 5, 78, 110
9, 358139, Note_on_c, 5, 78, 0
9, 358140, Note_on_c, 5, 76, 110
9, 358199, Note_on_c, 5, 76, 0
9, 358200, Note_on_c, 5, 78, 110
9, 358259, Note_on_c, 5, 78, 0
9, 358260, Note_on_c, 5, 74, 110
9, 358499, Note_on_c, 5, 74, 0
9, 358500, Note_on_c, 5, 74, 110
9, 358559, Note_on_c, 5, 74, 0
9, 358560, Note_on_c, 5, 76, 110
9, 358619, Note_on_c, 5, 76, 0
9, 358620, Note_on_c, 5, 74, 110
9, 358679, Note_on_c, 5, 74, 0
9, 358680, Note_on_c, 5, 76, 110
9, 358739, Note_on_c, 5, 76, 0
9, 358740, Note_on_c, 5, 78, 110
9, 358979, Note_on_c, 5, 78, 0
9, 359460, Note_on_c, 5, 88, 110
9, 359699, Note_on_c, 5, 88, 0
9, 359700, Note_on_c, 5, 85, 110
9, 359939, Note_on_c, 5, 85, 0
9, 360900, Note_on_c, 5, 90, 110
9, 361139, Note_on_c, 5, 90, 0
9, 361140, Note_on_c, 5, 85, 110
9, 361379, Note_on_c, 5, 85, 0
9, 362340, Note_on_c, 5, 85, 110
9, 362579, Note_on_c, 5, 85, 0
9, 362580, Note_on_c, 5, 81, 110
9, 362939, Note_on_c, 5, 81, 0
9, 362940, Note_on_c, 5, 83, 110
9, 362999, Note_on_c, 5, 83, 0
9, 363000, Note_on_c, 5, 81, 110
9, 363059, Note_on_c, 5, 81, 0
9, 363060, Note_on_c, 5, 80, 110
9, 363179, Note_on_c, 5, 80, 0
9, 363180, Note_on_c, 5, 78, 110
9, 363299, Note_on_c, 5, 78, 0
9, 363300, Note_on_c, 5, 78, 110
9, 363539, Note_on_c, 5, 78, 0
9, 363540, Note_on_c, 5, 77, 110
9, 363779, Note_on_c, 5, 77, 0
9, 363780, Note_on_c, 5, 78, 110
9, 364019, Note_on_c, 5, 78, 0
9, 364260, Note_on_c, 5, 86, 110
9, 364499, Note_on_c, 5, 86, 0
9, 364500, Note_on_c, 5, 81, 110
9, 364739, Note_on_c, 5, 81, 0
9, 364740, Note_on_c, 5, 74, 110
9, 364859, Note_on_c, 5, 74, 0
9, 364860, Note_on_c, 5, 74, 110
9, 364919, Note_on_c, 5, 74, 0
9, 364920, Note_on_c, 5, 73, 110
9, 364979, Note_on_c, 5, 73, 0
9, 364980, Note_on_c, 5, 76, 110
9, 365099, Note_on_c, 5, 76, 0
9, 365100, Note_on_c, 5, 74, 110
9, 365159, Note_on_c, 5, 74, 0
9, 365160, Note_on_c, 5, 73, 110
9, 365219, Note_on_c, 5, 73, 0
9, 365220, Note_on_c, 5, 74, 110
9, 365339, Note_on_c, 5, 74, 0
9, 365340, Note_on_c, 5, 74, 110
9, 365399, Note_on_c, 5, 74, 0
9, 365400, Note_on_c, 5, 73, 110
9, 365459, Note_on_c, 5, 73, 0
9, 365460, Note_on_c, 5, 76, 110
9, 365579, Note_on_c, 5, 76, 0
9, 365580, Note_on_c, 5, 74, 110
9, 365639, Note_on_c, 5, 74, 0
9, 365640, Note_on_c, 5, 73, 110
9, 365699, Note_on_c, 5, 73, 0
9, 365700, Note_on_c, 5, 86, 110
9, 365939, Note_on_c, 5, 86, 0
9, 365940, Note_on_c, 5, 81, 110
9, 366179, Note_on_c, 5, 81, 0
9, 366180, Note_on_c, 5, 78, 110
9, 366299, Note_on_c, 5, 78, 0
9, 366300, Note_on_c, 5, 78, 110
9, 366359, Note_on_c, 5, 78, 0
9, 366360, Note_on_c, 5, 76, 110
9, 366419, Note_on_c, 5, 76, 0
9, 366420, Note_on_c, 5, 79, 110
9, 366539, Note_on_c, 5, 79, 0
9, 366540, Note_on_c, 5, 78, 110
9, 366599, Note_on_c, 5, 78, 0
9, 366600, Note_on_c, 5, 76, 110
9, 366659, Note_on_c, 5, 76, 0
9, 366660, Note_on_c, 5, 78, 110
9, 366779, Note_on_c, 5, 78, 0
9, 366780, Note_on_c, 5, 78, 110
9, 366839, Note_on_c, 5, 78, 0
9, 366840, Note_on_c, 5, 76, 110
9, 366899, Note_on_c, 5, 76, 0
9, 366900, Note_on_c, 5, 79, 110
9, 367019, Note_on_c, 5, 79, 0
9, 367020, Note_on_c, 5, 78, 110
9, 367079, Note_on_c, 5, 78, 0
9, 367080, Note_on_c, 5, 76, 110
9, 367139, Note_on_c, 5, 76, 0
9, 367140, Note_on_c, 5, 86, 110
9, 367379, Note_on_c, 5, 86, 0
9, 367380, Note_on_c, 5, 81, 110
9, 367619, Note_on_c, 5, 81, 0
9, 367620, Note_on_c, 5, 78, 110
9, 367739, Note_on_c, 5, 78, 0
9, 367740, Note_on_c, 5, 74, 110
9, 367859, Note_on_c, 5, 74, 0
9, 367860, Note_on_c, 5, 81, 110
9, 367979, Note_on_c, 5, 81, 0
9, 367980, Note_on_c, 5, 78, 110
9, 368099, Note_on_c, 5, 78, 0
9, 368100, Note_on_c, 5, 86, 110
9, 368219, Note_on_c, 5, 86, 0
9, 368220, Note_on_c, 5, 81, 110
9, 368339, Note_on_c, 5, 81, 0
9, 368340, Note_on_c, 5, 78, 110
9, 368459, Note_on_c, 5, 78, 0
9, 368460, Note_on_c, 5, 74, 110
9, 368579, Note_on_c, 5, 74, 0
9, 368580, Note_on_c, 5, 78, 110
9, 368699, Note_on_c, 5, 78, 0
9, 368700, Note_on_c, 5, 78, 110
9, 368759, Note_on_c, 5, 78, 0
9, 368760, Note_on_c, 5, 76, 110
9, 368819, Note_on_c, 5, 76, 0
9, 368820, Note_on_c, 5, 79, 110
9, 368939, Note_on_c, 5, 79, 0
9, 368940, Note_on_c, 5, 78, 110
9, 368999, Note_on_c, 5, 78, 0
9, 369000, Note_on_c, 5, 76, 110
9, 369059, Note_on_c, 5, 76, 0
9, 369060, Note_on_c, 5, 78, 110
9, 369179, Note_on_c, 5, 78, 0
9, 369180, Note_on_c, 5, 76, 110
9, 369239, Note_on_c, 5, 76, 0
9, 369240, Note_on_c, 5, 74, 110
9, 369299, Note_on_c, 5, 74, 0
9, 369300, Note_on_c, 5, 73, 110
9, 369539, Note_on_c, 5, 73, 0
9, 369540, Note_on_c, 5, 88, 110
9, 369779, Note_on_c, 5, 88, 0
9, 369780, Note_on_c, 5, 85, 110
9, 370019, Note_on_c, 5, 85, 0
9, 370020, Note_on_c, 5, 73, 110
9, 370139, Note_on_c, 5, 73, 0
9, 370140, Note_on_c, 5, 73, 110
9, 370199, Note_on_c, 5, 73, 0
9, 370200, Note_on_c, 5, 71, 110
9, 370259, Note_on_c, 5, 71, 0
9, 370260, Note_on_c, 5, 74, 110
9, 370379, Note_on_c, 5, 74, 0
9, 370380, Note_on_c, 5, 73, 110
9, 370439, Note_on_c, 5, 73, 0
9, 370440, Note_on_c, 5, 71, 110
9, 370499, Note_on_c, 5, 71, 0
9, 370500, Note_on_c, 5, 73, 110
9, 370619, Note_on_c, 5, 73, 0
9, 370620, Note_on_c, 5, 73, 110
9, 370679, Note_on_c, 5, 73, 0
9, 370680, Note_on_c, 5, 71, 110
9, 370739, Note_on_c, 5, 71, 0
9, 370740, Note_on_c, 5, 74, 110
9, 370859, Note_on_c, 5, 74, 0
9, 370860, Note_on_c, 5, 73, 110
9, 370919, Note_on_c, 5, 73, 0
9, 370920, Note_on_c, 5, 71, 110
9, 370979, Note_on_c, 5, 71, 0
9, 370980, Note_on_c, 5, 85, 110
9, 371219, Note_on_c, 5, 85, 0
9, 371220, Note_on_c, 5, 81, 110
9, 371459, Note_on_c, 5, 81, 0
9, 371460, Note_on_c, 5, 76, 110
9, 371579, Note_on_c, 5, 76, 0
9, 371580, Note_on_c, 5, 76, 110
9, 371639, Note_on_c, 5, 76, 0
9, 371640, Note_on_c, 5, 74, 110
9, 371699, Note_on_c, 5, 74, 0
9, 371700, Note_on_c, 5, 78, 110
9, 371819, Note_on_c, 5, 78, 0
9, 371820, Note_on_c, 5, 76, 110
9, 371879, Note_on_c, 5, 76, 0
9, 371880, Note_on_c, 5, 74, 110
9, 371939, Note_on_c, 5, 74, 0
9, 371940, Note_on_c, 5, 76, 110
9, 372059, Note_on_c, 5, 76, 0
9, 372060, Note_on_c, 5, 76, 110
9, 372119, Note_on_c, 5, 76, 0
9, 372120, Note_on_c, 5, 74, 110
9, 372179, Note_on_c, 5, 74, 0
9, 372180, Note_on_c, 5, 78, 110
9, 372299, Note_on_c, 5, 78, 0
9, 372300, Note_on_c, 5, 76, 110
9, 372359, Note_on_c, 5, 76, 0
9, 372360, Note_on_c, 5, 74, 110
9, 372419, Note_on_c, 5, 74, 0
9, 372420, Note_on_c, 5, 81, 110
9, 372659, Note_on_c, 5, 81, 0
9, 372660, Note_on_c, 5, 76, 110
9, 372899, Note_on_c, 5, 76, 0
9, 372900, Note_on_c, 5, 73, 110
9, 373019, Note_on_c, 5, 73, 0
9, 373020, Note_on_c, 5, 69, 110
9, 373139, Note_on_c, 5, 69, 0
9, 373140, Note_on_c, 5, 76, 110
9, 373259, Note_on_c, 5, 76, 0
9, 373260, Note_on_c, 5, 73, 110
9, 373379, Note_on_c, 5, 73, 0
9, 373380, Note_on_c, 5, 79, 110
9, 373499, Note_on_c, 5, 79, 0
9, 373500, Note_on_c, 5, 76, 110
9, 373619, Note_on_c, 5, 76, 0
9, 373620, Note_on_c, 5, 73, 110
9, 373739, Note_on_c, 5, 73, 0
9, 373740, Note_on_c, 5, 69, 110
9, 373859, Note_on_c, 5, 69, 0
9, 373860, Note_on_c, 5, 74, 110
9, 373919, Note_on_c, 5, 74, 0
9, 373920, Note_on_c, 5, 76, 110
9, 373979, Note_on_c, 5, 76, 0
9, 373980, Note_on_c, 5, 78, 110
9, 374039, Note_on_c, 5, 78, 0
9, 374040, Note_on_c, 5, 79, 110
9, 374099, Note_on_c, 5, 79, 0
9, 374100, Note_on_c, 5, 81, 110
9, 374219, Note_on_c, 5, 81, 0
9, 374220, Note_on_c, 5, 83, 110
9, 374279, Note_on_c, 5, 83, 0
9, 374280, Note_on_c, 5, 81, 110
9, 374339, Note_on_c, 5, 81, 0
9, 374340, Note_on_c, 5, 79, 110
9, 374399, Note_on_c, 5, 79, 0
9, 374400, Note_on_c, 5, 78, 110
9, 374459, Note_on_c, 5, 78, 0
9, 374460, Note_on_c, 5, 76, 110
9, 374519, Note_on_c, 5, 76, 0
9, 374520, Note_on_c, 5, 78, 110
9, 374579, Note_on_c, 5, 78, 0
9, 374580, Note_on_c, 5, 74, 110
9, 374819, Note_on_c, 5, 74, 0
9, 376740, Note_on_c, 5, 78, 110
9, 376859, Note_on_c, 5, 78, 0
9, 376860, Note_on_c, 5, 78, 110
9, 376919, Note_on_c, 5, 78, 0
9, 376920, Note_on_c, 5, 76, 110
9, 376979, Note_on_c, 5, 76, 0
9, 376980, Note_on_c, 5, 79, 110
9, 377099, Note_on_c, 5, 79, 0
9, 377100, Note_on_c, 5, 78, 110
9, 377159, Note_on_c, 5, 78, 0
9, 377160, Note_on_c, 5, 76, 110
9, 377219, Note_on_c, 5, 76, 0
9, 377220, Note_on_c, 5, 78, 110
9, 377339, Note_on_c, 5, 78, 0
9, 377340, Note_on_c, 5, 78, 110
9, 377399, Note_on_c, 5, 78, 0
9, 377400, Note_on_c, 5, 76, 110
9, 377459, Note_on_c, 5, 76, 0
9, 377460, Note_on_c, 5, 79, 110
9, 377579, Note_on_c, 5, 79, 0
9, 377580, Note_on_c, 5, 78, 110
9, 377639, Note_on_c, 5, 78, 0
9, 377640, Note_on_c, 5, 76, 110
9, 377699, Note_on_c, 5, 76, 0
9, 377700, Note_on_c, 5, 81, 110
9, 377939, Note_on_c, 5, 81, 0
9, 377940, Note_on_c, 5, 78, 110
9, 378179, Note_on_c, 5, 78, 0
9, 378180, Note_on_c, 5, 74, 110
9, 378299, Note_on_c, 5, 74, 0
9, 378300, Note_on_c, 5, 69, 110
9, 378419, Note_on_c, 5, 69, 0
9, 378420, Note_on_c, 5, 78, 110
9, 378539, Note_on_c, 5, 78, 0
9, 378540, Note_on_c, 5, 74, 110
9, 378659, Note_on_c, 5, 74, 0
9, 378660, Note_on_c, 5, 81, 110
9, 378779, Note_on_c, 5, 81, 0
9, 378780, Note_on_c, 5, 78, 110
9, 378899, Note_on_c, 5, 78, 0
9, 378900, Note_on_c, 5, 74, 110
9, 379019, Note_on_c, 5, 74, 0
9, 379020, Note_on_c, 5, 69, 110
9, 379139, Note_on_c, 5, 69, 0
9, 379140, Note_on_c, 5, 78, 110
9, 379259, Note_on_c, 5, 78, 0
9, 379260, Note_on_c, 5, 78, 110
9, 379319, Note_on_c, 5, 78, 0
9, 379320, Note_on_c, 5, 76, 110
9, 379379, Note_on_c, 5, 76, 0
9, 379380, Note_on_c, 5, 79, 110
9, 379499, Note_on_c, 5, 79, 0
9, 379500, Note_on_c, 5, 78, 110
9, 379559, Note_on_c, 5, 78, 0
9, 379560, Note_on_c, 5, 76, 110
9, 379619, Note_on_c, 5, 76, 0
9, 379620, Note_on_c, 5, 78, 110
9, 379739, Note_on_c, 5, 78, 0
9, 379740, Note_on_c, 5, 76, 110
9, 379799, Note_on_c, 5, 76, 0
9, 379800, Note_on_c, 5, 74, 110
9, 379859, Note_on_c, 5, 74, 0
9, 379860, Note_on_c, 5, 73, 110
9, 380099, Note_on_c, 5, 73, 0
9, 380580, Note_on_c, 5, 73, 110
9, 380699, Note_on_c, 5, 73, 0
9, 380700, Note_on_c, 5, 73, 110
9, 380759, Note_on_c, 5, 73, 0
9, 380760, Note_on_c, 5, 71, 110
9, 380819, Note_on_c, 5, 71, 0
9, 380820, Note_on_c, 5, 74, 110
9, 380939, Note_on_c, 5, 74, 0
9, 380940, Note_on_c, 5, 73, 110
9, 380999, Note_on_c, 5, 73, 0
9, 381000, Note_on_c, 5, 71, 110
9, 381059, Note_on_c, 5, 71, 0
9, 381060, Note_on_c, 5, 73, 110
9, 381179, Note_on_c, 5, 73, 0
9, 381180, Note_on_c, 5, 73, 110
9, 381239, Note_on_c, 5, 73, 0
9, 381240, Note_on_c, 5, 71, 110
9, 381299, Note_on_c, 5, 71, 0
9, 381300, Note_on_c, 5, 74, 110
9, 381419, Note_on_c, 5, 74, 0
9, 381420, Note_on_c, 5, 73, 110
9, 381479, Note_on_c, 5, 73, 0
9, 381480, Note_on_c, 5, 71, 110
9, 381539, Note_on_c, 5, 71, 0
9, 381540, Note_on_c, 5, 73, 110
9, 381779, Note_on_c, 5, 73, 0
9, 382020, Note_on_c, 5, 76, 110
9, 382139, Note_on_c, 5, 76, 0
9, 382140, Note_on_c, 5, 76, 110
9, 382199, Note_on_c, 5, 76, 0
9, 382200, Note_on_c, 5, 74, 110
9, 382259, Note_on_c, 5, 74, 0
9, 382260, Note_on_c, 5, 78, 110
9, 382379, Note_on_c, 5, 78, 0
9, 382380, Note_on_c, 5, 76, 110
9, 382439, Note_on_c, 5, 76, 0
9, 382440, Note_on_c, 5, 74, 110
9, 382499, Note_on_c, 5, 74, 0
9, 382500, Note_on_c, 5, 76, 110
9, 382619, Note_on_c, 5, 76, 0
9, 382620, Note_on_c, 5, 76, 110
9, 382679, Note_on_c, 5, 76, 0
9, 382680, Note_on_c, 5, 74, 110
9, 382739, Note_on_c, 5, 74, 0
9, 382740, Note_on_c, 5, 78, 110
9, 382859, Note_on_c, 5, 78, 0
9, 382860, Note_on_c, 5, 76, 110
9, 382919, Note_on_c, 5, 76, 0
9, 382920, Note_on_c, 5, 74, 110
9, 382979, Note_on_c, 5, 74, 0
9, 382980, Note_on_c, 5, 81, 110
9, 383219, Note_on_c, 5, 81, 0
9, 383220, Note_on_c, 5, 76, 110
9, 383459, Note_on_c, 5, 76, 0
9, 383460, Note_on_c, 5, 73, 110
9, 383579, Note_on_c, 5, 73, 0
9, 383580, Note_on_c, 5, 69, 110
9, 383699, Note_on_c, 5, 69, 0
9, 383700, Note_on_c, 5, 76, 110
9, 383819, Note_on_c, 5, 76, 0
9, 383820, Note_on_c, 5, 73, 110
9, 383939, Note_on_c, 5, 73, 0
9, 383940, Note_on_c, 5, 79, 110
9, 384059, Note_on_c, 5, 79, 0
9, 384060, Note_on_c, 5, 76, 110
9, 384179, Note_on_c, 5, 76, 0
9, 384180, Note_on_c, 5, 73, 110
9, 384299, Note_on_c, 5, 73, 0
9, 384300, Note_on_c, 5, 69, 110
9, 384419, Note_on_c, 5, 69, 0
9, 384420, Note_on_c, 5, 74, 110
9, 384479, Note_on_c, 5, 74, 0
9, 384480, Note_on_c, 5, 76, 110
9, 384539, Note_on_c, 5, 76, 0
9, 384540, Note_on_c, 5, 78, 110
9, 384599, Note_on_c, 5, 78, 0
9, 384600, Note_on_c, 5, 79, 110
9, 384659, Note_on_c, 5, 79, 0
9, 384660, Note_on_c, 5, 81, 110
9, 384779, Note_on_c, 5, 81, 0
9, 384780, Note_on_c, 5, 83, 110
9, 384839, Note_on_c, 5, 83, 0
9, 384840, Note_on_c, 5, 81, 110
9, 384899, Note_on_c, 5, 81, 0
9, 384900, Note_on_c, 5, 79, 110
9, 384959, Note_on_c, 5, 79, 0
9, 384960, Note_on_c, 5, 78, 110
9, 385019, Note_on_c, 5, 78, 0
9, 385020, Note_on_c, 5, 76, 110
9, 385079, Note_on_c, 5, 76, 0
9, 385080, Note_on_c, 5, 78, 110
9, 385139, Note_on_c, 5, 78, 0
9, 385140, Note_on_c, 5, 74, 110
9, 385379, Note_on_c, 5, 74, 0
9, 385379, End_track
10, 0, Start_track
10, 0, MIDI_port, 0
10, 0, Title_t, "oboe i"
10, 0, Program_c, 6, 68
10, 750, Note_on_c, 6, 66, 80
10, 780, Note_on_c, 6, 66, 0
10, 780, Note_on_c, 6, 67, 80
10, 810, Note_on_c, 6, 67, 0
10, 810, Note_on_c, 6, 69, 80
10, 840, Note_on_c, 6, 69, 0
10, 840, Note_on_c, 6, 71, 80
10, 870, Note_on_c, 6, 71, 0
10, 870, Note_on_c, 6, 73, 80
10, 900, Note_on_c, 6, 73, 0
10, 900, Note_on_c, 6, 74, 80
10, 930, Note_on_c, 6, 74, 0
10, 930, Note_on_c, 6, 76, 80
10, 960, Note_on_c, 6, 76, 0
10, 960, Note_on_c, 6, 78, 80
10, 990, Note_on_c, 6, 78, 0
10, 990, Note_on_c, 6, 76, 80
10, 1020, Note_on_c, 6, 76, 0
10, 1020, Note_on_c, 6, 78, 80
10, 1050, Note_on_c, 6, 78, 0
10, 1050, Note_on_c, 6, 76, 80
10, 1080, Note_on_c, 6, 76, 0
10, 1080, Note_on_c, 6, 78, 80
10, 1140, Note_on_c, 6, 78, 0
10, 1200, Note_on_c, 6, 74, 80
10, 1260, Note_on_c, 6, 74, 0
10, 1260, Note_on_c, 6, 66, 80
10, 1320, Note_on_c, 6, 66, 0
10, 1470, Note_on_c, 6, 66, 80
10, 1499, Note_on_c, 6, 66, 0
10, 1500, Note_on_c, 6, 67, 80
10, 1529, Note_on_c, 6, 67, 0
10, 1530, Note_on_c, 6, 69, 80
10, 1559, Note_on_c, 6, 69, 0
10, 1560, Note_on_c, 6, 71, 80
10, 1589, Note_on_c, 6, 71, 0
10, 1590, Note_on_c, 6, 73, 80
10, 1619, Note_on_c, 6, 73, 0
10, 1620, Note_on_c, 6, 74, 80
10, 1649, Note_on_c, 6, 74, 0
10, 1650, Note_on_c, 6, 76, 80
10, 1679, Note_on_c, 6, 76, 0
10, 1680, Note_on_c, 6, 78, 80
10, 1709, Note_on_c, 6, 78, 0
10, 1710, Note_on_c, 6, 76, 80
10, 1739, Note_on_c, 6, 76, 0
10, 1740, Note_on_c, 6, 78, 80
10, 1769, Note_on_c, 6, 78, 0
10, 1770, Note_on_c, 6, 76, 80
10, 1799, Note_on_c, 6, 76, 0
10, 1800, Note_on_c, 6, 78, 80
10, 1829, Note_on_c, 6, 78, 0
10, 1830, Note_on_c, 6, 74, 80
10, 1859, Note_on_c, 6, 74, 0
10, 1860, Note_on_c, 6, 76, 80
10, 1889, Note_on_c, 6, 76, 0
10, 1890, Note_on_c, 6, 78, 80
10, 1919, Note_on_c, 6, 78, 0
10, 1920, Note_on_c, 6, 79, 80
10, 1949, Note_on_c, 6, 79, 0
10, 1950, Note_on_c, 6, 81, 80
10, 1979, Note_on_c, 6, 81, 0
10, 1980, Note_on_c, 6, 83, 80
10, 2009, Note_on_c, 6, 83, 0
10, 2010, Note_on_c, 6, 85, 80
10, 2039, Note_on_c, 6, 85, 0
10, 2040, Note_on_c, 6, 86, 80
10, 2069, Note_on_c, 6, 86, 0
10, 2070, Note_on_c, 6, 85, 80
10, 2099, Note_on_c, 6, 85, 0
10, 2100, Note_on_c, 6, 86, 80
10, 2129, Note_on_c, 6, 86, 0
10, 2130, Note_on_c, 6, 85, 80
10, 2159, Note_on_c, 6, 85, 0
10, 2160, Note_on_c, 6, 83, 80
10, 2189, Note_on_c, 6, 83, 0
10, 2190, Note_on_c, 6, 81, 80
10, 2219, Note_on_c, 6, 81, 0
10, 2220, Note_on_c, 6, 83, 80
10, 2249, Note_on_c, 6, 83, 0
10, 2250, Note_on_c, 6, 81, 80
10, 2279, Note_on_c, 6, 81, 0
10, 2280, Note_on_c, 6, 80, 80
10, 2309, Note_on_c, 6, 80, 0
10, 2310, Note_on_c, 6, 78, 80
10, 2339, Note_on_c, 6, 78, 0
10, 2340, Note_on_c, 6, 80, 80
10, 2369, Note_on_c, 6, 80, 0
10, 2370, Note_on_c, 6, 78, 80
10, 2399, Note_on_c, 6, 78, 0
10, 2400, Note_on_c, 6, 76, 80
10, 2429, Note_on_c, 6, 76, 0
10, 2430, Note_on_c, 6, 74, 80
10, 2459, Note_on_c, 6, 74, 0
10, 2460, Note_on_c, 6, 76, 80
10, 2489, Note_on_c, 6, 76, 0
10, 2490, Note_on_c, 6, 74, 80
10, 2519, Note_on_c, 6, 74, 0
10, 2520, Note_on_c, 6, 73, 80
10, 2549, Note_on_c, 6, 73, 0
10, 2550, Note_on_c, 6, 76, 80
10, 2579, Note_on_c, 6, 76, 0
10, 2580, Note_on_c, 6, 81, 80
10, 2609, Note_on_c, 6, 81, 0
10, 2610, Note_on_c, 6, 83, 80
10, 2639, Note_on_c, 6, 83, 0
10, 2640, Note_on_c, 6, 85, 80
10, 2669, Note_on_c, 6, 85, 0
10, 2670, Note_on_c, 6, 83, 80
10, 2699, Note_on_c, 6, 83, 0
10, 2700, Note_on_c, 6, 81, 80
10, 2729, Note_on_c, 6, 81, 0
10, 2730, Note_on_c, 6, 83, 80
10, 2759, Note_on_c, 6, 83, 0
10, 2760, Note_on_c, 6, 83, 80
10, 2849, Note_on_c, 6, 83, 0
10, 2850, Note_on_c, 6, 81, 80
10, 2879, Note_on_c, 6, 81, 0
10, 2880, Note_on_c, 6, 81, 80
10, 2999, Note_on_c, 6, 81, 0
10, 3270, Note_on_c, 6, 66, 80
10, 3299, Note_on_c, 6, 66, 0
10, 3300, Note_on_c, 6, 67, 80
10, 3329, Note_on_c, 6, 67, 0
10, 3330, Note_on_c, 6, 69, 80
10, 3359, Note_on_c, 6, 69, 0
10, 3360, Note_on_c, 6, 71, 80
10, 3389, Note_on_c, 6, 71, 0
10, 3390, Note_on_c, 6, 73, 80
10, 3419, Note_on_c, 6, 73, 0
10, 3420, Note_on_c, 6, 75, 80
10, 3449, Note_on_c, 6, 75, 0
10, 3450, Note_on_c, 6, 76, 80
10, 3479, Note_on_c, 6, 76, 0
10, 3480, Note_on_c, 6, 78, 80
10, 3509, Note_on_c, 6, 78, 0
10, 3510, Note_on_c, 6, 76, 80
10, 3539, Note_on_c, 6, 76, 0
10, 3540, Note_on_c, 6, 78, 80
10, 3569, Note_on_c, 6, 78, 0
10, 3570, Note_on_c, 6, 76, 80
10, 3599, Note_on_c, 6, 76, 0
10, 3600, Note_on_c, 6, 75, 80
10, 3629, Note_on_c, 6, 75, 0
10, 3630, Note_on_c, 6, 71, 80
10, 3659, Note_on_c, 6, 71, 0
10, 3660, Note_on_c, 6, 73, 80
10, 3689, Note_on_c, 6, 73, 0
10, 3690, Note_on_c, 6, 75, 80
10, 3719, Note_on_c, 6, 75, 0
10, 3720, Note_on_c, 6, 76, 80
10, 3749, Note_on_c, 6, 76, 0
10, 3750, Note_on_c, 6, 78, 80
10, 3779, Note_on_c, 6, 78, 0
10, 3780, Note_on_c, 6, 79, 80
10, 3809, Note_on_c, 6, 79, 0
10, 3810, Note_on_c, 6, 81, 80
10, 3839, Note_on_c, 6, 81, 0
10, 3840, Note_on_c, 6, 83, 80
10, 3869, Note_on_c, 6, 83, 0
10, 3870, Note_on_c, 6, 84, 80
10, 3899, Note_on_c, 6, 84, 0
10, 3900, Note_on_c, 6, 81, 80
10, 3929, Note_on_c, 6, 81, 0
10, 3930, Note_on_c, 6, 83, 80
10, 3959, Note_on_c, 6, 83, 0
10, 3960, Note_on_c, 6, 79, 80
10, 4019, Note_on_c, 6, 79, 0
10, 4020, Note_on_c, 6, 71, 80
10, 4079, Note_on_c, 6, 71, 0
10, 4080, Note_on_c, 6, 71, 80
10, 4139, Note_on_c, 6, 71, 0
10, 4140, Note_on_c, 6, 71, 80
10, 4199, Note_on_c, 6, 71, 0
10, 4200, Note_on_c, 6, 71, 80
10, 4259, Note_on_c, 6, 71, 0
10, 4260, Note_on_c, 6, 73, 80
10, 4289, Note_on_c, 6, 73, 0
10, 4290, Note_on_c, 6, 75, 80
10, 4319, Note_on_c, 6, 75, 0
10, 4320, Note_on_c, 6, 76, 80
10, 4379, Note_on_c, 6, 76, 0
10, 4380, Note_on_c, 6, 79, 80
10, 4409, Note_on_c, 6, 79, 0
10, 4410, Note_on_c, 6, 78, 80
10, 4439, Note_on_c, 6, 78, 0
10, 4440, Note_on_c, 6, 76, 80
10, 4499, Note_on_c, 6, 76, 0
10, 4500, Note_on_c, 6, 79, 80
10, 4529, Note_on_c, 6, 79, 0
10, 4530, Note_on_c, 6, 78, 80
10, 4559, Note_on_c, 6, 78, 0
10, 4560, Note_on_c, 6, 76, 80
10, 4619, Note_on_c, 6, 76, 0
10, 4620, Note_on_c, 6, 76, 80
10, 4679, Note_on_c, 6, 76, 0
10, 4680, Note_on_c, 6, 76, 80
10, 5039, Note_on_c, 6, 76, 0
10, 5040, Note_on_c, 6, 78, 80
10, 5069, Note_on_c, 6, 78, 0
10, 5070, Note_on_c, 6, 66, 80
10, 5099, Note_on_c, 6, 66, 0
10, 5100, Note_on_c, 6, 67, 80
10, 5129, Note_on_c, 6, 67, 0
10, 5130, Note_on_c, 6, 69, 80
10, 5159, Note_on_c, 6, 69, 0
10, 5160, Note_on_c, 6, 71, 80
10, 5189, Note_on_c, 6, 71, 0
10, 5190, Note_on_c, 6, 73, 80
10, 5219, Note_on_c, 6, 73, 0
10, 5220, Note_on_c, 6, 74, 80
10, 5249, Note_on_c, 6, 74, 0
10, 5250, Note_on_c, 6, 76, 80
10, 5279, Note_on_c, 6, 76, 0
10, 5280, Note_on_c, 6, 78, 80
10, 5339, Note_on_c, 6, 78, 0
10, 5550, Note_on_c, 6, 81, 80
10, 5579, Note_on_c, 6, 81, 0
10, 5580, Note_on_c, 6, 79, 80
10, 5609, Note_on_c, 6, 79, 0
10, 5610, Note_on_c, 6, 78, 80
10, 5639, Note_on_c, 6, 78, 0
10, 5640, Note_on_c, 6, 76, 80
10, 5669, Note_on_c, 6, 76, 0
10, 5670, Note_on_c, 6, 74, 80
10, 5699, Note_on_c, 6, 74, 0
10, 5700, Note_on_c, 6, 73, 80
10, 5729, Note_on_c, 6, 73, 0
10, 5730, Note_on_c, 6, 71, 80
10, 5759, Note_on_c, 6, 71, 0
10, 5760, Note_on_c, 6, 69, 80
10, 5819, Note_on_c, 6, 69, 0
10, 5910, Note_on_c, 6, 79, 80
10, 5939, Note_on_c, 6, 79, 0
10, 5940, Note_on_c, 6, 78, 80
10, 5969, Note_on_c, 6, 78, 0
10, 5970, Note_on_c, 6, 76, 80
10, 5999, Note_on_c, 6, 76, 0
10, 6000, Note_on_c, 6, 74, 80
10, 6029, Note_on_c, 6, 74, 0
10, 6030, Note_on_c, 6, 73, 80
10, 6059, Note_on_c, 6, 73, 0
10, 6060, Note_on_c, 6, 71, 80
10, 6089, Note_on_c, 6, 71, 0
10, 6090, Note_on_c, 6, 69, 80
10, 6119, Note_on_c, 6, 69, 0
10, 6120, Note_on_c, 6, 67, 80
10, 6179, Note_on_c, 6, 67, 0
10, 6270, Note_on_c, 6, 78, 80
10, 6299, Note_on_c, 6, 78, 0
10, 6300, Note_on_c, 6, 76, 80
10, 6329, Note_on_c, 6, 76, 0
10, 6330, Note_on_c, 6, 74, 80
10, 6359, Note_on_c, 6, 74, 0
10, 6360, Note_on_c, 6, 73, 80
10, 6389, Note_on_c, 6, 73, 0
10, 6390, Note_on_c, 6, 71, 80
10, 6419, Note_on_c, 6, 71, 0
10, 6420, Note_on_c, 6, 69, 80
10, 6449, Note_on_c, 6, 69, 0
10, 6450, Note_on_c, 6, 67, 80
10, 6479, Note_on_c, 6, 67, 0
10, 6480, Note_on_c, 6, 66, 80
10, 6539, Note_on_c, 6, 66, 0
10, 6630, Note_on_c, 6, 76, 80
10, 6659, Note_on_c, 6, 76, 0
10, 6660, Note_on_c, 6, 74, 80
10, 6689, Note_on_c, 6, 74, 0
10, 6690, Note_on_c, 6, 73, 80
10, 6719, Note_on_c, 6, 73, 0
10, 6720, Note_on_c, 6, 71, 80
10, 6749, Note_on_c, 6, 71, 0
10, 6750, Note_on_c, 6, 69, 80
10, 6779, Note_on_c, 6, 69, 0
10, 6780, Note_on_c, 6, 68, 80
10, 6809, Note_on_c, 6, 68, 0
10, 6810, Note_on_c, 6, 66, 80
10, 6839, Note_on_c, 6, 66, 0
10, 6840, Note_on_c, 6, 68, 80
10, 6899, Note_on_c, 6, 68, 0
10, 6990, Note_on_c, 6, 76, 80
10, 7019, Note_on_c, 6, 76, 0
10, 7020, Note_on_c, 6, 74, 80
10, 7049, Note_on_c, 6, 74, 0
10, 7050, Note_on_c, 6, 72, 80
10, 7079, Note_on_c, 6, 72, 0
10, 7080, Note_on_c, 6, 71, 80
10, 7109, Note_on_c, 6, 71, 0
10, 7110, Note_on_c, 6, 69, 80
10, 7139, Note_on_c, 6, 69, 0
10, 7140, Note_on_c, 6, 68, 80
10, 7169, Note_on_c, 6, 68, 0
10, 7170, Note_on_c, 6, 66, 80
10, 7199, Note_on_c, 6, 66, 0
10, 7200, Note_on_c, 6, 64, 80
10, 7259, Note_on_c, 6, 64, 0
10, 7350, Note_on_c, 6, 73, 80
10, 7379, Note_on_c, 6, 73, 0
10, 7380, Note_on_c, 6, 71, 80
10, 7409, Note_on_c, 6, 71, 0
10, 7410, Note_on_c, 6, 69, 80
10, 7439, Note_on_c, 6, 69, 0
10, 7440, Note_on_c, 6, 68, 80
10, 7469, Note_on_c, 6, 68, 0
10, 7470, Note_on_c, 6, 66, 80
10, 7499, Note_on_c, 6, 66, 0
10, 7500, Note_on_c, 6, 64, 80
10, 7529, Note_on_c, 6, 64, 0
10, 7530, Note_on_c, 6, 62, 80
10, 7559, Note_on_c, 6, 62, 0
10, 7560, Note_on_c, 6, 69, 80
10, 7619, Note_on_c, 6, 69, 0
10, 7680, Note_on_c, 6, 76, 80
10, 7739, Note_on_c, 6, 76, 0
10, 7740, Note_on_c, 6, 73, 80
10, 7799, Note_on_c, 6, 73, 0
10, 8040, Note_on_c, 6, 78, 80
10, 8099, Note_on_c, 6, 78, 0
10, 8100, Note_on_c, 6, 74, 80
10, 8159, Note_on_c, 6, 74, 0
10, 8400, Note_on_c, 6, 76, 80
10, 8459, Note_on_c, 6, 76, 0
10, 8460, Note_on_c, 6, 73, 80
10, 8519, Note_on_c, 6, 73, 0
10, 8670, Note_on_c, 6, 66, 80
10, 8699, Note_on_c, 6, 66, 0
10, 8700, Note_on_c, 6, 67, 80
10, 8729, Note_on_c, 6, 67, 0
10, 8730, Note_on_c, 6, 69, 80
10, 8759, Note_on_c, 6, 69, 0
10, 8760, Note_on_c, 6, 71, 80
10, 8789, Note_on_c, 6, 71, 0
10, 8790, Note_on_c, 6, 73, 80
10, 8819, Note_on_c, 6, 73, 0
10, 8820, Note_on_c, 6, 74, 80
10, 8849, Note_on_c, 6, 74, 0
10, 8850, Note_on_c, 6, 76, 80
10, 8879, Note_on_c, 6, 76, 0
10, 8880, Note_on_c, 6, 78, 80
10, 8909, Note_on_c, 6, 78, 0
10, 8910, Note_on_c, 6, 76, 80
10, 8939, Note_on_c, 6, 76, 0
10, 8940, Note_on_c, 6, 78, 80
10, 8969, Note_on_c, 6, 78, 0
10, 8970, Note_on_c, 6, 76, 80
10, 8999, Note_on_c, 6, 76, 0
10, 9000, Note_on_c, 6, 78, 80
10, 9029, Note_on_c, 6, 78, 0
10, 9030, Note_on_c, 6, 74, 80
10, 9059, Note_on_c, 6, 74, 0
10, 9060, Note_on_c, 6, 76, 80
10, 9089, Note_on_c, 6, 76, 0
10, 9090, Note_on_c, 6, 78, 80
10, 9119, Note_on_c, 6, 78, 0
10, 9120, Note_on_c, 6, 79, 80
10, 9149, Note_on_c, 6, 79, 0
10, 9150, Note_on_c, 6, 81, 80
10, 9179, Note_on_c, 6, 81, 0
10, 9180, Note_on_c, 6, 83, 80
10, 9209, Note_on_c, 6, 83, 0
10, 9210, Note_on_c, 6, 85, 80
10, 9239, Note_on_c, 6, 85, 0
10, 9240, Note_on_c, 6, 86, 80
10, 9269, Note_on_c, 6, 86, 0
10, 9270, Note_on_c, 6, 85, 80
10, 9299, Note_on_c, 6, 85, 0
10, 9300, Note_on_c, 6, 86, 80
10, 9329, Note_on_c, 6, 86, 0
10, 9330, Note_on_c, 6, 85, 80
10, 9359, Note_on_c, 6, 85, 0
10, 9360, Note_on_c, 6, 83, 80
10, 9389, Note_on_c, 6, 83, 0
10, 9390, Note_on_c, 6, 81, 80
10, 9419, Note_on_c, 6, 81, 0
10, 9420, Note_on_c, 6, 83, 80
10, 9449, Note_on_c, 6, 83, 0
10, 9450, Note_on_c, 6, 81, 80
10, 9479, Note_on_c, 6, 81, 0
10, 9480, Note_on_c, 6, 79, 80
10, 9509, Note_on_c, 6, 79, 0
10, 9510, Note_on_c, 6, 78, 80
10, 9539, Note_on_c, 6, 78, 0
10, 9540, Note_on_c, 6, 79, 80
10, 9569, Note_on_c, 6, 79, 0
10, 9570, Note_on_c, 6, 78, 80
10, 9599, Note_on_c, 6, 78, 0
10, 9600, Note_on_c, 6, 76, 80
10, 9629, Note_on_c, 6, 76, 0
10, 9630, Note_on_c, 6, 74, 80
10, 9659, Note_on_c, 6, 74, 0
10, 9660, Note_on_c, 6, 76, 80
10, 9689, Note_on_c, 6, 76, 0
10, 9690, Note_on_c, 6, 74, 80
10, 9719, Note_on_c, 6, 74, 0
10, 9720, Note_on_c, 6, 79, 80
10, 9779, Note_on_c, 6, 79, 0
10, 9780, Note_on_c, 6, 81, 80
10, 9809, Note_on_c, 6, 81, 0
10, 9810, Note_on_c, 6, 79, 80
10, 9839, Note_on_c, 6, 79, 0
10, 9840, Note_on_c, 6, 78, 80
10, 9869, Note_on_c, 6, 78, 0
10, 9870, Note_on_c, 6, 76, 80
10, 9899, Note_on_c, 6, 76, 0
10, 9900, Note_on_c, 6, 74, 80
10, 9929, Note_on_c, 6, 74, 0
10, 9930, Note_on_c, 6, 76, 80
10, 9959, Note_on_c, 6, 76, 0
10, 9960, Note_on_c, 6, 76, 80
10, 10049, Note_on_c, 6, 76, 0
10, 10050, Note_on_c, 6, 74, 80
10, 10079, Note_on_c, 6, 74, 0
10, 10080, Note_on_c, 6, 74, 80
10, 10199, Note_on_c, 6, 74, 0
10, 10200, Note_on_c, 6, 74, 80
10, 10259, Note_on_c, 6, 74, 0
10, 10260, Note_on_c, 6, 69, 80
10, 10319, Note_on_c, 6, 69, 0
10, 10560, Note_on_c, 6, 71, 80
10, 10619, Note_on_c, 6, 71, 0
10, 10620, Note_on_c, 6, 66, 80
10, 10679, Note_on_c, 6, 66, 0
10, 10920, Note_on_c, 6, 69, 80
10, 10979, Note_on_c, 6, 69, 0
10, 10980, Note_on_c, 6, 66, 80
10, 11039, Note_on_c, 6, 66, 0
10, 11280, Note_on_c, 6, 74, 80
10, 11339, Note_on_c, 6, 74, 0
10, 11340, Note_on_c, 6, 71, 80
10, 11399, Note_on_c, 6, 71, 0
10, 11580, Note_on_c, 6, 81, 80
10, 11609, Note_on_c, 6, 81, 0
10, 11610, Note_on_c, 6, 79, 80
10, 11639, Note_on_c, 6, 79, 0
10, 11640, Note_on_c, 6, 78, 80
10, 11669, Note_on_c, 6, 78, 0
10, 11670, Note_on_c, 6, 76, 80
10, 11699, Note_on_c, 6, 76, 0
10, 11700, Note_on_c, 6, 74, 80
10, 11729, Note_on_c, 6, 74, 0
10, 11730, Note_on_c, 6, 73, 80
10, 11759, Note_on_c, 6, 73, 0
10, 11760, Note_on_c, 6, 74, 80
10, 11789, Note_on_c, 6, 74, 0
10, 11790, Note_on_c, 6, 71, 80
10, 11819, Note_on_c, 6, 71, 0
10, 11820, Note_on_c, 6, 73, 80
10, 11849, Note_on_c, 6, 73, 0
10, 11850, Note_on_c, 6, 69, 80
10, 11879, Note_on_c, 6, 69, 0
10, 11880, Note_on_c, 6, 76, 80
10, 11999, Note_on_c, 6, 76, 0
10, 12000, Note_on_c, 6, 76, 80
10, 12059, Note_on_c, 6, 76, 0
10, 12060, Note_on_c, 6, 73, 80
10, 12119, Note_on_c, 6, 73, 0
10, 12360, Note_on_c, 6, 78, 80
10, 12419, Note_on_c, 6, 78, 0
10, 12420, Note_on_c, 6, 74, 80
10, 12479, Note_on_c, 6, 74, 0
10, 12720, Note_on_c, 6, 76, 80
10, 12779, Note_on_c, 6, 76, 0
10, 12780, Note_on_c, 6, 73, 80
10, 12839, Note_on_c, 6, 73, 0
10, 12990, Note_on_c, 6, 66, 80
10, 13019, Note_on_c, 6, 66, 0
10, 13020, Note_on_c, 6, 67, 80
10, 13049, Note_on_c, 6, 67, 0
10, 13050, Note_on_c, 6, 69, 80
10, 13079, Note_on_c, 6, 69, 0
10, 13080, Note_on_c, 6, 71, 80
10, 13109, Note_on_c, 6, 71, 0
10, 13110, Note_on_c, 6, 73, 80
10, 13139, Note_on_c, 6, 73, 0
10, 13140, Note_on_c, 6, 74, 80
10, 13169, Note_on_c, 6, 74, 0
10, 13170, Note_on_c, 6, 76, 80
10, 13199, Note_on_c, 6, 76, 0
10, 13200, Note_on_c, 6, 78, 80
10, 13229, Note_on_c, 6, 78, 0
10, 13230, Note_on_c, 6, 76, 80
10, 13259, Note_on_c, 6, 76, 0
10, 13260, Note_on_c, 6, 78, 80
10, 13289, Note_on_c, 6, 78, 0
10, 13290, Note_on_c, 6, 76, 80
10, 13319, Note_on_c, 6, 76, 0
10, 13320, Note_on_c, 6, 78, 80
10, 13349, Note_on_c, 6, 78, 0
10, 13350, Note_on_c, 6, 74, 80
10, 13379, Note_on_c, 6, 74, 0
10, 13380, Note_on_c, 6, 76, 80
10, 13409, Note_on_c, 6, 76, 0
10, 13410, Note_on_c, 6, 78, 80
10, 13439, Note_on_c, 6, 78, 0
10, 13440, Note_on_c, 6, 79, 80
10, 13469, Note_on_c, 6, 79, 0
10, 13470, Note_on_c, 6, 81, 80
10, 13499, Note_on_c, 6, 81, 0
10, 13500, Note_on_c, 6, 83, 80
10, 13529, Note_on_c, 6, 83, 0
10, 13530, Note_on_c, 6, 85, 80
10, 13559, Note_on_c, 6, 85, 0
10, 13560, Note_on_c, 6, 86, 80
10, 13589, Note_on_c, 6, 86, 0
10, 13590, Note_on_c, 6, 85, 80
10, 13619, Note_on_c, 6, 85, 0
10, 13620, Note_on_c, 6, 86, 80
10, 13649, Note_on_c, 6, 86, 0
10, 13650, Note_on_c, 6, 85, 80
10, 13679, Note_on_c, 6, 85, 0
10, 13680, Note_on_c, 6, 83, 80
10, 13709, Note_on_c, 6, 83, 0
10, 13710, Note_on_c, 6, 81, 80
10, 13739, Note_on_c, 6, 81, 0
10, 13740, Note_on_c, 6, 83, 80
10, 13769, Note_on_c, 6, 83, 0
10, 13770, Note_on_c, 6, 81, 80
10, 13799, Note_on_c, 6, 81, 0
10, 13800, Note_on_c, 6, 79, 80
10, 13829, Note_on_c, 6, 79, 0
10, 13830, Note_on_c, 6, 78, 80
10, 13859, Note_on_c, 6, 78, 0
10, 13860, Note_on_c, 6, 79, 80
10, 13889, Note_on_c, 6, 79, 0
10, 13890, Note_on_c, 6, 78, 80
10, 13919, Note_on_c, 6, 78, 0
10, 13920, Note_on_c, 6, 76, 80
10, 13949, Note_on_c, 6, 76, 0
10, 13950, Note_on_c, 6, 74, 80
10, 13979, Note_on_c, 6, 74, 0
10, 13980, Note_on_c, 6, 76, 80
10, 14009, Note_on_c, 6, 76, 0
10, 14010, Note_on_c, 6, 74, 80
10, 14039, Note_on_c, 6, 74, 0
10, 14040, Note_on_c, 6, 79, 80
10, 14099, Note_on_c, 6, 79, 0
10, 14100, Note_on_c, 6, 81, 80
10, 14129, Note_on_c, 6, 81, 0
10, 14130, Note_on_c, 6, 79, 80
10, 14159, Note_on_c, 6, 79, 0
10, 14160, Note_on_c, 6, 78, 80
10, 14189, Note_on_c, 6, 78, 0
10, 14190, Note_on_c, 6, 76, 80
10, 14219, Note_on_c, 6, 76, 0
10, 14220, Note_on_c, 6, 74, 80
10, 14249, Note_on_c, 6, 74, 0
10, 14250, Note_on_c, 6, 76, 80
10, 14279, Note_on_c, 6, 76, 0
10, 14280, Note_on_c, 6, 76, 80
10, 14369, Note_on_c, 6, 76, 0
10, 14370, Note_on_c, 6, 74, 80
10, 14399, Note_on_c, 6, 74, 0
10, 14400, Note_on_c, 6, 74, 80
10, 14459, Note_on_c, 6, 74, 0
10, 15150, Note_on_c, 6, 66, 80
10, 15179, Note_on_c, 6, 66, 0
10, 15180, Note_on_c, 6, 67, 80
10, 15209, Note_on_c, 6, 67, 0
10, 15210, Note_on_c, 6, 69, 80
10, 15239, Note_on_c, 6, 69, 0
10, 15240, Note_on_c, 6, 71, 80
10, 15269, Note_on_c, 6, 71, 0
10, 15270, Note_on_c, 6, 73, 80
10, 15299, Note_on_c, 6, 73, 0
10, 15300, Note_on_c, 6, 74, 80
10, 15329, Note_on_c, 6, 74, 0
10, 15330, Note_on_c, 6, 76, 80
10, 15359, Note_on_c, 6, 76, 0
10, 15360, Note_on_c, 6, 78, 80
10, 15389, Note_on_c, 6, 78, 0
10, 15390, Note_on_c, 6, 76, 80
10, 15419, Note_on_c, 6, 76, 0
10, 15420, Note_on_c, 6, 78, 80
10, 15449, Note_on_c, 6, 78, 0
10, 15450, Note_on_c, 6, 76, 80
10, 15479, Note_on_c, 6, 76, 0
10, 15480, Note_on_c, 6, 78, 80
10, 15509, Note_on_c, 6, 78, 0
10, 15510, Note_on_c, 6, 81, 80
10, 15539, Note_on_c, 6, 81, 0
10, 15540, Note_on_c, 6, 79, 80
10, 15569, Note_on_c, 6, 79, 0
10, 15570, Note_on_c, 6, 78, 80
10, 15599, Note_on_c, 6, 78, 0
10, 15600, Note_on_c, 6, 76, 80
10, 15629, Note_on_c, 6, 76, 0
10, 15630, Note_on_c, 6, 74, 80
10, 15659, Note_on_c, 6, 74, 0
10, 15660, Note_on_c, 6, 73, 80
10, 15689, Note_on_c, 6, 73, 0
10, 15690, Note_on_c, 6, 71, 80
10, 15719, Note_on_c, 6, 71, 0
10, 15720, Note_on_c, 6, 69, 80
10, 15749, Note_on_c, 6, 69, 0
10, 15750, Note_on_c, 6, 71, 80
10, 15779, Note_on_c, 6, 71, 0
10, 15780, Note_on_c, 6, 69, 80
10, 15809, Note_on_c, 6, 69, 0
10, 15810, Note_on_c, 6, 71, 80
10, 15839, Note_on_c, 6, 71, 0
10, 15840, Note_on_c, 6, 69, 80
10, 15869, Note_on_c, 6, 69, 0
10, 15870, Note_on_c, 6, 66, 80
10, 15899, Note_on_c, 6, 66, 0
10, 15900, Note_on_c, 6, 67, 80
10, 15929, Note_on_c, 6, 67, 0
10, 15930, Note_on_c, 6, 69, 80
10, 15959, Note_on_c, 6, 69, 0
10, 15960, Note_on_c, 6, 71, 80
10, 15989, Note_on_c, 6, 71, 0
10, 15990, Note_on_c, 6, 73, 80
10, 16019, Note_on_c, 6, 73, 0
10, 16020, Note_on_c, 6, 74, 80
10, 16049, Note_on_c, 6, 74, 0
10, 16050, Note_on_c, 6, 76, 80
10, 16079, Note_on_c, 6, 76, 0
10, 16080, Note_on_c, 6, 78, 80
10, 16109, Note_on_c, 6, 78, 0
10, 16110, Note_on_c, 6, 76, 80
10, 16139, Note_on_c, 6, 76, 0
10, 16140, Note_on_c, 6, 78, 80
10, 16169, Note_on_c, 6, 78, 0
10, 16170, Note_on_c, 6, 76, 80
10, 16199, Note_on_c, 6, 76, 0
10, 16200, Note_on_c, 6, 78, 80
10, 16229, Note_on_c, 6, 78, 0
10, 16230, Note_on_c, 6, 74, 80
10, 16259, Note_on_c, 6, 74, 0
10, 16260, Note_on_c, 6, 76, 80
10, 16289, Note_on_c, 6, 76, 0
10, 16290, Note_on_c, 6, 78, 80
10, 16319, Note_on_c, 6, 78, 0
10, 16320, Note_on_c, 6, 79, 80
10, 16349, Note_on_c, 6, 79, 0
10, 16350, Note_on_c, 6, 81, 80
10, 16379, Note_on_c, 6, 81, 0
10, 16380, Note_on_c, 6, 83, 80
10, 16409, Note_on_c, 6, 83, 0
10, 16410, Note_on_c, 6, 85, 80
10, 16439, Note_on_c, 6, 85, 0
10, 16440, Note_on_c, 6, 86, 80
10, 16469, Note_on_c, 6, 86, 0
10, 16470, Note_on_c, 6, 85, 80
10, 16499, Note_on_c, 6, 85, 0
10, 16500, Note_on_c, 6, 86, 80
10, 16529, Note_on_c, 6, 86, 0
10, 16530, Note_on_c, 6, 85, 80
10, 16559, Note_on_c, 6, 85, 0
10, 16560, Note_on_c, 6, 83, 80
10, 16589, Note_on_c, 6, 83, 0
10, 16590, Note_on_c, 6, 81, 80
10, 16619, Note_on_c, 6, 81, 0
10, 16620, Note_on_c, 6, 83, 80
10, 16649, Note_on_c, 6, 83, 0
10, 16650, Note_on_c, 6, 81, 80
10, 16679, Note_on_c, 6, 81, 0
10, 16680, Note_on_c, 6, 80, 80
10, 16709, Note_on_c, 6, 80, 0
10, 16710, Note_on_c, 6, 78, 80
10, 16739, Note_on_c, 6, 78, 0
10, 16740, Note_on_c, 6, 80, 80
10, 16769, Note_on_c, 6, 80, 0
10, 16770, Note_on_c, 6, 78, 80
10, 16799, Note_on_c, 6, 78, 0
10, 16800, Note_on_c, 6, 76, 80
10, 16829, Note_on_c, 6, 76, 0
10, 16830, Note_on_c, 6, 74, 80
10, 16859, Note_on_c, 6, 74, 0
10, 16860, Note_on_c, 6, 76, 80
10, 16889, Note_on_c, 6, 76, 0
10, 16890, Note_on_c, 6, 74, 80
10, 16919, Note_on_c, 6, 74, 0
10, 16920, Note_on_c, 6, 73, 80
10, 16949, Note_on_c, 6, 73, 0
10, 16950, Note_on_c, 6, 76, 80
10, 16979, Note_on_c, 6, 76, 0
10, 16980, Note_on_c, 6, 81, 80
10, 17009, Note_on_c, 6, 81, 0
10, 17010, Note_on_c, 6, 83, 80
10, 17039, Note_on_c, 6, 83, 0
10, 17040, Note_on_c, 6, 85, 80
10, 17069, Note_on_c, 6, 85, 0
10, 17070, Note_on_c, 6, 83, 80
10, 17099, Note_on_c, 6, 83, 0
10, 17100, Note_on_c, 6, 81, 80
10, 17129, Note_on_c, 6, 81, 0
10, 17130, Note_on_c, 6, 83, 80
10, 17159, Note_on_c, 6, 83, 0
10, 17160, Note_on_c, 6, 83, 80
10, 17249, Note_on_c, 6, 83, 0
10, 17250, Note_on_c, 6, 81, 80
10, 17279, Note_on_c, 6, 81, 0
10, 17280, Note_on_c, 6, 81, 80
10, 17399, Note_on_c, 6, 81, 0
10, 17430, Note_on_c, 6, 83, 80
10, 17459, Note_on_c, 6, 83, 0
10, 17460, Note_on_c, 6, 81, 80
10, 17489, Note_on_c, 6, 81, 0
10, 17490, Note_on_c, 6, 80, 80
10, 17519, Note_on_c, 6, 80, 0
10, 17520, Note_on_c, 6, 78, 80
10, 17549, Note_on_c, 6, 78, 0
10, 17550, Note_on_c, 6, 76, 80
10, 17579, Note_on_c, 6, 76, 0
10, 17580, Note_on_c, 6, 75, 80
10, 17609, Note_on_c, 6, 75, 0
10, 17610, Note_on_c, 6, 73, 80
10, 17639, Note_on_c, 6, 73, 0
10, 17640, Note_on_c, 6, 75, 80
10, 17699, Note_on_c, 6, 75, 0
10, 17790, Note_on_c, 6, 83, 80
10, 17819, Note_on_c, 6, 83, 0
10, 17820, Note_on_c, 6, 81, 80
10, 17849, Note_on_c, 6, 81, 0
10, 17850, Note_on_c, 6, 80, 80
10, 17879, Note_on_c, 6, 80, 0
10, 17880, Note_on_c, 6, 78, 80
10, 17909, Note_on_c, 6, 78, 0
10, 17910, Note_on_c, 6, 76, 80
10, 17939, Note_on_c, 6, 76, 0
10, 17940, Note_on_c, 6, 75, 80
10, 17969, Note_on_c, 6, 75, 0
10, 17970, Note_on_c, 6, 73, 80
10, 17999, Note_on_c, 6, 73, 0
10, 18000, Note_on_c, 6, 71, 80
10, 18059, Note_on_c, 6, 71, 0
10, 18150, Note_on_c, 6, 80, 80
10, 18179, Note_on_c, 6, 80, 0
10, 18180, Note_on_c, 6, 78, 80
10, 18209, Note_on_c, 6, 78, 0
10, 18210, Note_on_c, 6, 76, 80
10, 18239, Note_on_c, 6, 76, 0
10, 18240, Note_on_c, 6, 75, 80
10, 18269, Note_on_c, 6, 75, 0
10, 18270, Note_on_c, 6, 73, 80
10, 18299, Note_on_c, 6, 73, 0
10, 18300, Note_on_c, 6, 71, 80
10, 18329, Note_on_c, 6, 71, 0
10, 18330, Note_on_c, 6, 69, 80
10, 18359, Note_on_c, 6, 69, 0
10, 18360, Note_on_c, 6, 76, 80
10, 18419, Note_on_c, 6, 76, 0
10, 18480, Note_on_c, 6, 76, 80
10, 18539, Note_on_c, 6, 76, 0
10, 18540, Note_on_c, 6, 71, 80
10, 18599, Note_on_c, 6, 71, 0
10, 18840, Note_on_c, 6, 76, 80
10, 18899, Note_on_c, 6, 76, 0
10, 18900, Note_on_c, 6, 73, 80
10, 18959, Note_on_c, 6, 73, 0
10, 19200, Note_on_c, 6, 76, 80
10, 19259, Note_on_c, 6, 76, 0
10, 19260, Note_on_c, 6, 71, 80
10, 19319, Note_on_c, 6, 71, 0
10, 19830, Note_on_c, 6, 69, 80
10, 19859, Note_on_c, 6, 69, 0
10, 19860, Note_on_c, 6, 71, 80
10, 19889, Note_on_c, 6, 71, 0
10, 19890, Note_on_c, 6, 73, 80
10, 19919, Note_on_c, 6, 73, 0
10, 19920, Note_on_c, 6, 74, 80
10, 19949, Note_on_c, 6, 74, 0
10, 19950, Note_on_c, 6, 76, 80
10, 19979, Note_on_c, 6, 76, 0
10, 19980, Note_on_c, 6, 78, 80
10, 20009, Note_on_c, 6, 78, 0
10, 20010, Note_on_c, 6, 80, 80
10, 20039, Note_on_c, 6, 80, 0
10, 20040, Note_on_c, 6, 81, 80
10, 20069, Note_on_c, 6, 81, 0
10, 20070, Note_on_c, 6, 80, 80
10, 20099, Note_on_c, 6, 80, 0
10, 20100, Note_on_c, 6, 81, 80
10, 20129, Note_on_c, 6, 81, 0
10, 20130, Note_on_c, 6, 80, 80
10, 20159, Note_on_c, 6, 80, 0
10, 20160, Note_on_c, 6, 78, 80
10, 20189, Note_on_c, 6, 78, 0
10, 20190, Note_on_c, 6, 76, 80
10, 20219, Note_on_c, 6, 76, 0
10, 20220, Note_on_c, 6, 78, 80
10, 20249, Note_on_c, 6, 78, 0
10, 20250, Note_on_c, 6, 76, 80
10, 20279, Note_on_c, 6, 76, 0
10, 20280, Note_on_c, 6, 74, 80
10, 20309, Note_on_c, 6, 74, 0
10, 20310, Note_on_c, 6, 73, 80
10, 20339, Note_on_c, 6, 73, 0
10, 20340, Note_on_c, 6, 74, 80
10, 20369, Note_on_c, 6, 74, 0
10, 20370, Note_on_c, 6, 73, 80
10, 20399, Note_on_c, 6, 73, 0
10, 20400, Note_on_c, 6, 71, 80
10, 20429, Note_on_c, 6, 71, 0
10, 20430, Note_on_c, 6, 69, 80
10, 20459, Note_on_c, 6, 69, 0
10, 20460, Note_on_c, 6, 71, 80
10, 20489, Note_on_c, 6, 71, 0
10, 20490, Note_on_c, 6, 69, 80
10, 20519, Note_on_c, 6, 69, 0
10, 20520, Note_on_c, 6, 74, 80
10, 20579, Note_on_c, 6, 74, 0
10, 20580, Note_on_c, 6, 76, 80
10, 20609, Note_on_c, 6, 76, 0
10, 20610, Note_on_c, 6, 74, 80
10, 20639, Note_on_c, 6, 74, 0
10, 20640, Note_on_c, 6, 73, 80
10, 20669, Note_on_c, 6, 73, 0
10, 20670, Note_on_c, 6, 71, 80
10, 20699, Note_on_c, 6, 71, 0
10, 20700, Note_on_c, 6, 69, 80
10, 20729, Note_on_c, 6, 69, 0
10, 20730, Note_on_c, 6, 71, 80
10, 20759, Note_on_c, 6, 71, 0
10, 20760, Note_on_c, 6, 71, 80
10, 20849, Note_on_c, 6, 71, 0
10, 20850, Note_on_c, 6, 69, 80
10, 20879, Note_on_c, 6, 69, 0
10, 20880, Note_on_c, 6, 69, 80
10, 21000, Note_on_c, 6, 69, 0
10, 21270, Note_on_c, 6, 66, 80
10, 21299, Note_on_c, 6, 66, 0
10, 21300, Note_on_c, 6, 67, 80
10, 21329, Note_on_c, 6, 67, 0
10, 21330, Note_on_c, 6, 69, 80
10, 21359, Note_on_c, 6, 69, 0
10, 21360, Note_on_c, 6, 71, 80
10, 21389, Note_on_c, 6, 71, 0
10, 21390, Note_on_c, 6, 73, 80
10, 21419, Note_on_c, 6, 73, 0
10, 21420, Note_on_c, 6, 75, 80
10, 21449, Note_on_c, 6, 75, 0
10, 21450, Note_on_c, 6, 76, 80
10, 21479, Note_on_c, 6, 76, 0
10, 21480, Note_on_c, 6, 78, 80
10, 21509, Note_on_c, 6, 78, 0
10, 21510, Note_on_c, 6, 76, 80
10, 21539, Note_on_c, 6, 76, 0
10, 21540, Note_on_c, 6, 78, 80
10, 21569, Note_on_c, 6, 78, 0
10, 21570, Note_on_c, 6, 76, 80
10, 21599, Note_on_c, 6, 76, 0
10, 21600, Note_on_c, 6, 75, 80
10, 21629, Note_on_c, 6, 75, 0
10, 21630, Note_on_c, 6, 71, 80
10, 21659, Note_on_c, 6, 71, 0
10, 21660, Note_on_c, 6, 73, 80
10, 21689, Note_on_c, 6, 73, 0
10, 21690, Note_on_c, 6, 75, 80
10, 21719, Note_on_c, 6, 75, 0
10, 21720, Note_on_c, 6, 76, 80
10, 21749, Note_on_c, 6, 76, 0
10, 21750, Note_on_c, 6, 78, 80
10, 21779, Note_on_c, 6, 78, 0
10, 21780, Note_on_c, 6, 79, 80
10, 21809, Note_on_c, 6, 79, 0
10, 21810, Note_on_c, 6, 81, 80
10, 21839, Note_on_c, 6, 81, 0
10, 21840, Note_on_c, 6, 83, 80
10, 21869, Note_on_c, 6, 83, 0
10, 21870, Note_on_c, 6, 84, 80
10, 21899, Note_on_c, 6, 84, 0
10, 21900, Note_on_c, 6, 81, 80
10, 21929, Note_on_c, 6, 81, 0
10, 21930, Note_on_c, 6, 83, 80
10, 21959, Note_on_c, 6, 83, 0
10, 21960, Note_on_c, 6, 79, 80
10, 22019, Note_on_c, 6, 79, 0
10, 22020, Note_on_c, 6, 71, 80
10, 22079, Note_on_c, 6, 71, 0
10, 22080, Note_on_c, 6, 71, 80
10, 22139, Note_on_c, 6, 71, 0
10, 22140, Note_on_c, 6, 71, 80
10, 22199, Note_on_c, 6, 71, 0
10, 22200, Note_on_c, 6, 71, 80
10, 22259, Note_on_c, 6, 71, 0
10, 22260, Note_on_c, 6, 73, 80
10, 22289, Note_on_c, 6, 73, 0
10, 22290, Note_on_c, 6, 75, 80
10, 22319, Note_on_c, 6, 75, 0
10, 22320, Note_on_c, 6, 76, 80
10, 22379, Note_on_c, 6, 76, 0
10, 22380, Note_on_c, 6, 79, 80
10, 22409, Note_on_c, 6, 79, 0
10, 22410, Note_on_c, 6, 78, 80
10, 22439, Note_on_c, 6, 78, 0
10, 22440, Note_on_c, 6, 76, 80
10, 22499, Note_on_c, 6, 76, 0
10, 22500, Note_on_c, 6, 79, 80
10, 22529, Note_on_c, 6, 79, 0
10, 22530, Note_on_c, 6, 78, 80
10, 22559, Note_on_c, 6, 78, 0
10, 22560, Note_on_c, 6, 76, 80
10, 22619, Note_on_c, 6, 76, 0
10, 22620, Note_on_c, 6, 76, 80
10, 22679, Note_on_c, 6, 76, 0
10, 22680, Note_on_c, 6, 76, 80
10, 23039, Note_on_c, 6, 76, 0
10, 23040, Note_on_c, 6, 78, 80
10, 23069, Note_on_c, 6, 78, 0
10, 23070, Note_on_c, 6, 66, 80
10, 23099, Note_on_c, 6, 66, 0
10, 23100, Note_on_c, 6, 67, 80
10, 23129, Note_on_c, 6, 67, 0
10, 23130, Note_on_c, 6, 69, 80
10, 23159, Note_on_c, 6, 69, 0
10, 23160, Note_on_c, 6, 71, 80
10, 23189, Note_on_c, 6, 71, 0
10, 23190, Note_on_c, 6, 73, 80
10, 23219, Note_on_c, 6, 73, 0
10, 23220, Note_on_c, 6, 74, 80
10, 23249, Note_on_c, 6, 74, 0
10, 23250, Note_on_c, 6, 76, 80
10, 23279, Note_on_c, 6, 76, 0
10, 23280, Note_on_c, 6, 78, 80
10, 23339, Note_on_c, 6, 78, 0
10, 23550, Note_on_c, 6, 81, 80
10, 23579, Note_on_c, 6, 81, 0
10, 23580, Note_on_c, 6, 79, 80
10, 23609, Note_on_c, 6, 79, 0
10, 23610, Note_on_c, 6, 78, 80
10, 23639, Note_on_c, 6, 78, 0
10, 23640, Note_on_c, 6, 76, 80
10, 23669, Note_on_c, 6, 76, 0
10, 23670, Note_on_c, 6, 74, 80
10, 23699, Note_on_c, 6, 74, 0
10, 23700, Note_on_c, 6, 73, 80
10, 23729, Note_on_c, 6, 73, 0
10, 23730, Note_on_c, 6, 71, 80
10, 23759, Note_on_c, 6, 71, 0
10, 23760, Note_on_c, 6, 69, 80
10, 23819, Note_on_c, 6, 69, 0
10, 23910, Note_on_c, 6, 79, 80
10, 23939, Note_on_c, 6, 79, 0
10, 23940, Note_on_c, 6, 78, 80
10, 23969, Note_on_c, 6, 78, 0
10, 23970, Note_on_c, 6, 76, 80
10, 23999, Note_on_c, 6, 76, 0
10, 24000, Note_on_c, 6, 74, 80
10, 24029, Note_on_c, 6, 74, 0
10, 24030, Note_on_c, 6, 73, 80
10, 24059, Note_on_c, 6, 73, 0
10, 24060, Note_on_c, 6, 71, 80
10, 24089, Note_on_c, 6, 71, 0
10, 24090, Note_on_c, 6, 69, 80
10, 24119, Note_on_c, 6, 69, 0
10, 24120, Note_on_c, 6, 67, 80
10, 24179, Note_on_c, 6, 67, 0
10, 24270, Note_on_c, 6, 78, 80
10, 24299, Note_on_c, 6, 78, 0
10, 24300, Note_on_c, 6, 76, 80
10, 24329, Note_on_c, 6, 76, 0
10, 24330, Note_on_c, 6, 74, 80
10, 24359, Note_on_c, 6, 74, 0
10, 24360, Note_on_c, 6, 73, 80
10, 24389, Note_on_c, 6, 73, 0
10, 24390, Note_on_c, 6, 71, 80
10, 24419, Note_on_c, 6, 71, 0
10, 24420, Note_on_c, 6, 69, 80
10, 24449, Note_on_c, 6, 69, 0
10, 24450, Note_on_c, 6, 67, 80
10, 24479, Note_on_c, 6, 67, 0
10, 24480, Note_on_c, 6, 66, 80
10, 24539, Note_on_c, 6, 66, 0
10, 24630, Note_on_c, 6, 76, 80
10, 24659, Note_on_c, 6, 76, 0
10, 24660, Note_on_c, 6, 74, 80
10, 24689, Note_on_c, 6, 74, 0
10, 24690, Note_on_c, 6, 73, 80
10, 24719, Note_on_c, 6, 73, 0
10, 24720, Note_on_c, 6, 71, 80
10, 24749, Note_on_c, 6, 71, 0
10, 24750, Note_on_c, 6, 69, 80
10, 24779, Note_on_c, 6, 69, 0
10, 24780, Note_on_c, 6, 68, 80
10, 24809, Note_on_c, 6, 68, 0
10, 24810, Note_on_c, 6, 66, 80
10, 24839, Note_on_c, 6, 66, 0
10, 24840, Note_on_c, 6, 68, 80
10, 24899, Note_on_c, 6, 68, 0
10, 24990, Note_on_c, 6, 76, 80
10, 25019, Note_on_c, 6, 76, 0
10, 25020, Note_on_c, 6, 74, 80
10, 25049, Note_on_c, 6, 74, 0
10, 25050, Note_on_c, 6, 72, 80
10, 25079, Note_on_c, 6, 72, 0
10, 25080, Note_on_c, 6, 71, 80
10, 25109, Note_on_c, 6, 71, 0
10, 25110, Note_on_c, 6, 69, 80
10, 25139, Note_on_c, 6, 69, 0
10, 25140, Note_on_c, 6, 68, 80
10, 25169, Note_on_c, 6, 68, 0
10, 25170, Note_on_c, 6, 66, 80
10, 25199, Note_on_c, 6, 66, 0
10, 25200, Note_on_c, 6, 64, 80
10, 25260, Note_on_c, 6, 64, 0
10, 25350, Note_on_c, 6, 73, 80
10, 25379, Note_on_c, 6, 73, 0
10, 25380, Note_on_c, 6, 71, 80
10, 25409, Note_on_c, 6, 71, 0
10, 25410, Note_on_c, 6, 69, 80
10, 25439, Note_on_c, 6, 69, 0
10, 25440, Note_on_c, 6, 68, 80
10, 25469, Note_on_c, 6, 68, 0
10, 25470, Note_on_c, 6, 66, 80
10, 25499, Note_on_c, 6, 66, 0
10, 25500, Note_on_c, 6, 64, 80
10, 25529, Note_on_c, 6, 64, 0
10, 25530, Note_on_c, 6, 62, 80
10, 25559, Note_on_c, 6, 62, 0
10, 25560, Note_on_c, 6, 69, 80
10, 25619, Note_on_c, 6, 69, 0
10, 25680, Note_on_c, 6, 76, 80
10, 25739, Note_on_c, 6, 76, 0
10, 25740, Note_on_c, 6, 73, 80
10, 25799, Note_on_c, 6, 73, 0
10, 26040, Note_on_c, 6, 78, 80
10, 26099, Note_on_c, 6, 78, 0
10, 26100, Note_on_c, 6, 74, 80
10, 26159, Note_on_c, 6, 74, 0
10, 26400, Note_on_c, 6, 76, 80
10, 26459, Note_on_c, 6, 76, 0
10, 26460, Note_on_c, 6, 73, 80
10, 26519, Note_on_c, 6, 73, 0
10, 26670, Note_on_c, 6, 66, 80
10, 26699, Note_on_c, 6, 66, 0
10, 26700, Note_on_c, 6, 67, 80
10, 26729, Note_on_c, 6, 67, 0
10, 26730, Note_on_c, 6, 69, 80
10, 26759, Note_on_c, 6, 69, 0
10, 26760, Note_on_c, 6, 71, 80
10, 26789, Note_on_c, 6, 71, 0
10, 26790, Note_on_c, 6, 73, 80
10, 26819, Note_on_c, 6, 73, 0
10, 26820, Note_on_c, 6, 74, 80
10, 26849, Note_on_c, 6, 74, 0
10, 26850, Note_on_c, 6, 76, 80
10, 26879, Note_on_c, 6, 76, 0
10, 26880, Note_on_c, 6, 78, 80
10, 26909, Note_on_c, 6, 78, 0
10, 26910, Note_on_c, 6, 76, 80
10, 26939, Note_on_c, 6, 76, 0
10, 26940, Note_on_c, 6, 78, 80
10, 26969, Note_on_c, 6, 78, 0
10, 26970, Note_on_c, 6, 76, 80
10, 26999, Note_on_c, 6, 76, 0
10, 27000, Note_on_c, 6, 78, 80
10, 27029, Note_on_c, 6, 78, 0
10, 27030, Note_on_c, 6, 74, 80
10, 27059, Note_on_c, 6, 74, 0
10, 27060, Note_on_c, 6, 76, 80
10, 27089, Note_on_c, 6, 76, 0
10, 27090, Note_on_c, 6, 78, 80
10, 27119, Note_on_c, 6, 78, 0
10, 27120, Note_on_c, 6, 79, 80
10, 27149, Note_on_c, 6, 79, 0
10, 27150, Note_on_c, 6, 81, 80
10, 27179, Note_on_c, 6, 81, 0
10, 27180, Note_on_c, 6, 83, 80
10, 27209, Note_on_c, 6, 83, 0
10, 27210, Note_on_c, 6, 85, 80
10, 27239, Note_on_c, 6, 85, 0
10, 27240, Note_on_c, 6, 86, 80
10, 27269, Note_on_c, 6, 86, 0
10, 27270, Note_on_c, 6, 85, 80
10, 27299, Note_on_c, 6, 85, 0
10, 27300, Note_on_c, 6, 86, 80
10, 27329, Note_on_c, 6, 86, 0
10, 27330, Note_on_c, 6, 85, 80
10, 27359, Note_on_c, 6, 85, 0
10, 27360, Note_on_c, 6, 83, 80
10, 27389, Note_on_c, 6, 83, 0
10, 27390, Note_on_c, 6, 81, 80
10, 27419, Note_on_c, 6, 81, 0
10, 27420, Note_on_c, 6, 83, 80
10, 27449, Note_on_c, 6, 83, 0
10, 27450, Note_on_c, 6, 81, 80
10, 27479, Note_on_c, 6, 81, 0
10, 27480, Note_on_c, 6, 79, 80
10, 27509, Note_on_c, 6, 79, 0
10, 27510, Note_on_c, 6, 78, 80
10, 27539, Note_on_c, 6, 78, 0
10, 27540, Note_on_c, 6, 79, 80
10, 27569, Note_on_c, 6, 79, 0
10, 27570, Note_on_c, 6, 78, 80
10, 27599, Note_on_c, 6, 78, 0
10, 27600, Note_on_c, 6, 76, 80
10, 27629, Note_on_c, 6, 76, 0
10, 27630, Note_on_c, 6, 74, 80
10, 27659, Note_on_c, 6, 74, 0
10, 27660, Note_on_c, 6, 76, 80
10, 27689, Note_on_c, 6, 76, 0
10, 27690, Note_on_c, 6, 74, 80
10, 27719, Note_on_c, 6, 74, 0
10, 27720, Note_on_c, 6, 79, 80
10, 27779, Note_on_c, 6, 79, 0
10, 27780, Note_on_c, 6, 81, 80
10, 27809, Note_on_c, 6, 81, 0
10, 27810, Note_on_c, 6, 79, 80
10, 27839, Note_on_c, 6, 79, 0
10, 27840, Note_on_c, 6, 78, 80
10, 27869, Note_on_c, 6, 78, 0
10, 27870, Note_on_c, 6, 76, 80
10, 27899, Note_on_c, 6, 76, 0
10, 27900, Note_on_c, 6, 74, 80
10, 27929, Note_on_c, 6, 74, 0
10, 27930, Note_on_c, 6, 76, 80
10, 27959, Note_on_c, 6, 76, 0
10, 27960, Note_on_c, 6, 76, 80
10, 28050, Note_on_c, 6, 76, 0
10, 28050, Note_on_c, 6, 74, 80
10, 28080, Note_on_c, 6, 74, 0
10, 28080, Note_on_c, 6, 74, 80
10, 28199, Note_on_c, 6, 74, 0
10, 28200, Note_on_c, 6, 78, 80
10, 28259, Note_on_c, 6, 78, 0
10, 28260, Note_on_c, 6, 74, 80
10, 28319, Note_on_c, 6, 74, 0
10, 28560, Note_on_c, 6, 74, 80
10, 28619, Note_on_c, 6, 74, 0
10, 28620, Note_on_c, 6, 71, 80
10, 28679, Note_on_c, 6, 71, 0
10, 28920, Note_on_c, 6, 74, 80
10, 28979, Note_on_c, 6, 74, 0
10, 28980, Note_on_c, 6, 69, 80
10, 29039, Note_on_c, 6, 69, 0
10, 29160, Note_on_c, 6, 83, 80
10, 29189, Note_on_c, 6, 83, 0
10, 29190, Note_on_c, 6, 81, 80
10, 29219, Note_on_c, 6, 81, 0
10, 29220, Note_on_c, 6, 83, 80
10, 29249, Note_on_c, 6, 83, 0
10, 29250, Note_on_c, 6, 81, 80
10, 29279, Note_on_c, 6, 81, 0
10, 29280, Note_on_c, 6, 79, 80
10, 29309, Note_on_c, 6, 79, 0
10, 29310, Note_on_c, 6, 78, 80
10, 29339, Note_on_c, 6, 78, 0
10, 29340, Note_on_c, 6, 79, 80
10, 29369, Note_on_c, 6, 79, 0
10, 29370, Note_on_c, 6, 78, 80
10, 29399, Note_on_c, 6, 78, 0
10, 29400, Note_on_c, 6, 76, 80
10, 29429, Note_on_c, 6, 76, 0
10, 29430, Note_on_c, 6, 74, 80
10, 29459, Note_on_c, 6, 74, 0
10, 29460, Note_on_c, 6, 76, 80
10, 29489, Note_on_c, 6, 76, 0
10, 29490, Note_on_c, 6, 74, 80
10, 29519, Note_on_c, 6, 74, 0
10, 29520, Note_on_c, 6, 79, 80
10, 29579, Note_on_c, 6, 79, 0
10, 29580, Note_on_c, 6, 81, 80
10, 29609, Note_on_c, 6, 81, 0
10, 29610, Note_on_c, 6, 79, 80
10, 29639, Note_on_c, 6, 79, 0
10, 29640, Note_on_c, 6, 78, 80
10, 29669, Note_on_c, 6, 78, 0
10, 29670, Note_on_c, 6, 76, 80
10, 29699, Note_on_c, 6, 76, 0
10, 29700, Note_on_c, 6, 74, 80
10, 29729, Note_on_c, 6, 74, 0
10, 29730, Note_on_c, 6, 76, 80
10, 29759, Note_on_c, 6, 76, 0
10, 29760, Note_on_c, 6, 76, 80
10, 29849, Note_on_c, 6, 76, 0
10, 29850, Note_on_c, 6, 74, 80
10, 29879, Note_on_c, 6, 74, 0
10, 29880, Note_on_c, 6, 74, 80
10, 29999, Note_on_c, 6, 74, 0
10, 30270, Note_on_c, 6, 81, 80
10, 30299, Note_on_c, 6, 81, 0
10, 30300, Note_on_c, 6, 79, 80
10, 30329, Note_on_c, 6, 79, 0
10, 30330, Note_on_c, 6, 78, 80
10, 30359, Note_on_c, 6, 78, 0
10, 30360, Note_on_c, 6, 76, 80
10, 30389, Note_on_c, 6, 76, 0
10, 30390, Note_on_c, 6, 74, 80
10, 30419, Note_on_c, 6, 74, 0
10, 30420, Note_on_c, 6, 73, 80
10, 30449, Note_on_c, 6, 73, 0
10, 30450, Note_on_c, 6, 71, 80
10, 30479, Note_on_c, 6, 71, 0
10, 30480, Note_on_c, 6, 69, 80
10, 30539, Note_on_c, 6, 69, 0
10, 30990, Note_on_c, 6, 79, 80
10, 31019, Note_on_c, 6, 79, 0
10, 31020, Note_on_c, 6, 78, 80
10, 31049, Note_on_c, 6, 78, 0
10, 31050, Note_on_c, 6, 76, 80
10, 31079, Note_on_c, 6, 76, 0
10, 31080, Note_on_c, 6, 74, 80
10, 31109, Note_on_c, 6, 74, 0
10, 31110, Note_on_c, 6, 73, 80
10, 31139, Note_on_c, 6, 73, 0
10, 31140, Note_on_c, 6, 71, 80
10, 31169, Note_on_c, 6, 71, 0
10, 31170, Note_on_c, 6, 70, 80
10, 31199, Note_on_c, 6, 70, 0
10, 31200, Note_on_c, 6, 71, 80
10, 31259, Note_on_c, 6, 71, 0
10, 32430, Note_on_c, 6, 66, 80
10, 32459, Note_on_c, 6, 66, 0
10, 32460, Note_on_c, 6, 68, 80
10, 32489, Note_on_c, 6, 68, 0
10, 32490, Note_on_c, 6, 70, 80
10, 32519, Note_on_c, 6, 70, 0
10, 32520, Note_on_c, 6, 71, 80
10, 32549, Note_on_c, 6, 71, 0
10, 32550, Note_on_c, 6, 73, 80
10, 32579, Note_on_c, 6, 73, 0
10, 32580, Note_on_c, 6, 75, 80
10, 32609, Note_on_c, 6, 75, 0
10, 32610, Note_on_c, 6, 76, 80
10, 32639, Note_on_c, 6, 76, 0
10, 32640, Note_on_c, 6, 78, 80
10, 32669, Note_on_c, 6, 78, 0
10, 32670, Note_on_c, 6, 79, 80
10, 32699, Note_on_c, 6, 79, 0
10, 32700, Note_on_c, 6, 76, 80
10, 32729, Note_on_c, 6, 76, 0
10, 32730, Note_on_c, 6, 78, 80
10, 32759, Note_on_c, 6, 78, 0
10, 32760, Note_on_c, 6, 74, 80
10, 32789, Note_on_c, 6, 74, 0
10, 32790, Note_on_c, 6, 73, 80
10, 32819, Note_on_c, 6, 73, 0
10, 32820, Note_on_c, 6, 71, 80
10, 32849, Note_on_c, 6, 71, 0
10, 32850, Note_on_c, 6, 73, 80
10, 32879, Note_on_c, 6, 73, 0
10, 32880, Note_on_c, 6, 74, 80
10, 32909, Note_on_c, 6, 74, 0
10, 32910, Note_on_c, 6, 76, 80
10, 32939, Note_on_c, 6, 76, 0
10, 32940, Note_on_c, 6, 78, 80
10, 32969, Note_on_c, 6, 78, 0
10, 32970, Note_on_c, 6, 79, 80
10, 32999, Note_on_c, 6, 79, 0
10, 33000, Note_on_c, 6, 81, 80
10, 33029, Note_on_c, 6, 81, 0
10, 33030, Note_on_c, 6, 79, 80
10, 33059, Note_on_c, 6, 79, 0
10, 33060, Note_on_c, 6, 81, 80
10, 33089, Note_on_c, 6, 81, 0
10, 33090, Note_on_c, 6, 79, 80
10, 33119, Note_on_c, 6, 79, 0
10, 33120, Note_on_c, 6, 78, 80
10, 33149, Note_on_c, 6, 78, 0
10, 33150, Note_on_c, 6, 76, 80
10, 33179, Note_on_c, 6, 76, 0
10, 33180, Note_on_c, 6, 75, 80
10, 33209, Note_on_c, 6, 75, 0
10, 33210, Note_on_c, 6, 76, 80
10, 33239, Note_on_c, 6, 76, 0
10, 33240, Note_on_c, 6, 78, 80
10, 33269, Note_on_c, 6, 78, 0
10, 33270, Note_on_c, 6, 76, 80
10, 33299, Note_on_c, 6, 76, 0
10, 33300, Note_on_c, 6, 75, 80
10, 33329, Note_on_c, 6, 75, 0
10, 33330, Note_on_c, 6, 76, 80
10, 33359, Note_on_c, 6, 76, 0
10, 33360, Note_on_c, 6, 78, 80
10, 33389, Note_on_c, 6, 78, 0
10, 33390, Note_on_c, 6, 76, 80
10, 33419, Note_on_c, 6, 76, 0
10, 33420, Note_on_c, 6, 75, 80
10, 33449, Note_on_c, 6, 75, 0
10, 33450, Note_on_c, 6, 76, 80
10, 33479, Note_on_c, 6, 76, 0
10, 33480, Note_on_c, 6, 78, 80
10, 33509, Note_on_c, 6, 78, 0
10, 33510, Note_on_c, 6, 63, 80
10, 33539, Note_on_c, 6, 63, 0
10, 33540, Note_on_c, 6, 64, 80
10, 33569, Note_on_c, 6, 64, 0
10, 33570, Note_on_c, 6, 66, 80
10, 33599, Note_on_c, 6, 66, 0
10, 33600, Note_on_c, 6, 67, 80
10, 33629, Note_on_c, 6, 67, 0
10, 33630, Note_on_c, 6, 69, 80
10, 33659, Note_on_c, 6, 69, 0
10, 33660, Note_on_c, 6, 71, 80
10, 33689, Note_on_c, 6, 71, 0
10, 33690, Note_on_c, 6, 73, 80
10, 33719, Note_on_c, 6, 73, 0
10, 33720, Note_on_c, 6, 75, 80
10, 33749, Note_on_c, 6, 75, 0
10, 33750, Note_on_c, 6, 76, 80
10, 33779, Note_on_c, 6, 76, 0
10, 33780, Note_on_c, 6, 73, 80
10, 33809, Note_on_c, 6, 73, 0
10, 33810, Note_on_c, 6, 75, 80
10, 33839, Note_on_c, 6, 75, 0
10, 33840, Note_on_c, 6, 76, 80
10, 33959, Note_on_c, 6, 76, 0
10, 33990, Note_on_c, 6, 81, 80
10, 34019, Note_on_c, 6, 81, 0
10, 34020, Note_on_c, 6, 79, 80
10, 34049, Note_on_c, 6, 79, 0
10, 34050, Note_on_c, 6, 78, 80
10, 34079, Note_on_c, 6, 78, 0
10, 34080, Note_on_c, 6, 76, 80
10, 34109, Note_on_c, 6, 76, 0
10, 34110, Note_on_c, 6, 74, 80
10, 34139, Note_on_c, 6, 74, 0
10, 34140, Note_on_c, 6, 73, 80
10, 34169, Note_on_c, 6, 73, 0
10, 34170, Note_on_c, 6, 71, 80
10, 34199, Note_on_c, 6, 71, 0
10, 34200, Note_on_c, 6, 73, 80
10, 34229, Note_on_c, 6, 73, 0
10, 34230, Note_on_c, 6, 81, 80
10, 34259, Note_on_c, 6, 81, 0
10, 34260, Note_on_c, 6, 79, 80
10, 34289, Note_on_c, 6, 79, 0
10, 34290, Note_on_c, 6, 78, 80
10, 34319, Note_on_c, 6, 78, 0
10, 34320, Note_on_c, 6, 76, 80
10, 34349, Note_on_c, 6, 76, 0
10, 34350, Note_on_c, 6, 74, 80
10, 34379, Note_on_c, 6, 74, 0
10, 34380, Note_on_c, 6, 73, 80
10, 34409, Note_on_c, 6, 73, 0
10, 34410, Note_on_c, 6, 71, 80
10, 34439, Note_on_c, 6, 71, 0
10, 34440, Note_on_c, 6, 69, 80
10, 34469, Note_on_c, 6, 69, 0
10, 34470, Note_on_c, 6, 67, 80
10, 34499, Note_on_c, 6, 67, 0
10, 34500, Note_on_c, 6, 66, 80
10, 34529, Note_on_c, 6, 66, 0
10, 34530, Note_on_c, 6, 64, 80
10, 34559, Note_on_c, 6, 64, 0
10, 34560, Note_on_c, 6, 62, 80
10, 34679, Note_on_c, 6, 62, 0
10, 34710, Note_on_c, 6, 79, 80
10, 34739, Note_on_c, 6, 79, 0
10, 34740, Note_on_c, 6, 78, 80
10, 34769, Note_on_c, 6, 78, 0
10, 34770, Note_on_c, 6, 76, 80
10, 34799, Note_on_c, 6, 76, 0
10, 34800, Note_on_c, 6, 74, 80
10, 34829, Note_on_c, 6, 74, 0
10, 34830, Note_on_c, 6, 73, 80
10, 34859, Note_on_c, 6, 73, 0
10, 34860, Note_on_c, 6, 71, 80
10, 34889, Note_on_c, 6, 71, 0
10, 34890, Note_on_c, 6, 69, 80
10, 34919, Note_on_c, 6, 69, 0
10, 34920, Note_on_c, 6, 71, 80
10, 34949, Note_on_c, 6, 71, 0
10, 34950, Note_on_c, 6, 79, 80
10, 34979, Note_on_c, 6, 79, 0
10, 34980, Note_on_c, 6, 78, 80
10, 35009, Note_on_c, 6, 78, 0
10, 35010, Note_on_c, 6, 76, 80
10, 35039, Note_on_c, 6, 76, 0
10, 35040, Note_on_c, 6, 74, 80
10, 35069, Note_on_c, 6, 74, 0
10, 35070, Note_on_c, 6, 73, 80
10, 35099, Note_on_c, 6, 73, 0
10, 35100, Note_on_c, 6, 71, 80
10, 35129, Note_on_c, 6, 71, 0
10, 35130, Note_on_c, 6, 69, 80
10, 35159, Note_on_c, 6, 69, 0
10, 35160, Note_on_c, 6, 67, 80
10, 35189, Note_on_c, 6, 67, 0
10, 35190, Note_on_c, 6, 66, 80
10, 35219, Note_on_c, 6, 66, 0
10, 35220, Note_on_c, 6, 64, 80
10, 35249, Note_on_c, 6, 64, 0
10, 35250, Note_on_c, 6, 62, 80
10, 35279, Note_on_c, 6, 62, 0
10, 35280, Note_on_c, 6, 67, 80
10, 35399, Note_on_c, 6, 67, 0
10, 35430, Note_on_c, 6, 78, 80
10, 35459, Note_on_c, 6, 78, 0
10, 35460, Note_on_c, 6, 76, 80
10, 35489, Note_on_c, 6, 76, 0
10, 35490, Note_on_c, 6, 74, 80
10, 35519, Note_on_c, 6, 74, 0
10, 35520, Note_on_c, 6, 73, 80
10, 35549, Note_on_c, 6, 73, 0
10, 35550, Note_on_c, 6, 71, 80
10, 35579, Note_on_c, 6, 71, 0
10, 35580, Note_on_c, 6, 70, 80
10, 35609, Note_on_c, 6, 70, 0
10, 35610, Note_on_c, 6, 68, 80
10, 35639, Note_on_c, 6, 68, 0
10, 35640, Note_on_c, 6, 70, 80
10, 35669, Note_on_c, 6, 70, 0
10, 35670, Note_on_c, 6, 78, 80
10, 35699, Note_on_c, 6, 78, 0
10, 35700, Note_on_c, 6, 76, 80
10, 35729, Note_on_c, 6, 76, 0
10, 35730, Note_on_c, 6, 74, 80
10, 35759, Note_on_c, 6, 74, 0
10, 35760, Note_on_c, 6, 73, 80
10, 35789, Note_on_c, 6, 73, 0
10, 35790, Note_on_c, 6, 71, 80
10, 35819, Note_on_c, 6, 71, 0
10, 35820, Note_on_c, 6, 70, 80
10, 35849, Note_on_c, 6, 70, 0
10, 35850, Note_on_c, 6, 68, 80
10, 35879, Note_on_c, 6, 68, 0
10, 35880, Note_on_c, 6, 66, 80
10, 35909, Note_on_c, 6, 66, 0
10, 35910, Note_on_c, 6, 76, 80
10, 35939, Note_on_c, 6, 76, 0
10, 35940, Note_on_c, 6, 74, 80
10, 35969, Note_on_c, 6, 74, 0
10, 35970, Note_on_c, 6, 73, 80
10, 35999, Note_on_c, 6, 73, 0
10, 36000, Note_on_c, 6, 74, 80
10, 36029, Note_on_c, 6, 74, 0
10, 36030, Note_on_c, 6, 71, 80
10, 36059, Note_on_c, 6, 71, 0
10, 36060, Note_on_c, 6, 79, 80
10, 36089, Note_on_c, 6, 79, 0
10, 36090, Note_on_c, 6, 78, 80
10, 36119, Note_on_c, 6, 78, 0
10, 36120, Note_on_c, 6, 76, 80
10, 36149, Note_on_c, 6, 76, 0
10, 36150, Note_on_c, 6, 74, 80
10, 36179, Note_on_c, 6, 74, 0
10, 36180, Note_on_c, 6, 76, 80
10, 36209, Note_on_c, 6, 76, 0
10, 36210, Note_on_c, 6, 74, 80
10, 36239, Note_on_c, 6, 74, 0
10, 36240, Note_on_c, 6, 72, 80
10, 36269, Note_on_c, 6, 72, 0
10, 36270, Note_on_c, 6, 71, 80
10, 36299, Note_on_c, 6, 71, 0
10, 36300, Note_on_c, 6, 72, 80
10, 36329, Note_on_c, 6, 72, 0
10, 36330, Note_on_c, 6, 71, 80
10, 36359, Note_on_c, 6, 71, 0
10, 36360, Note_on_c, 6, 70, 80
10, 36479, Note_on_c, 6, 70, 0
10, 36480, Note_on_c, 6, 73, 80
10, 36539, Note_on_c, 6, 73, 0
10, 36540, Note_on_c, 6, 70, 80
10, 36599, Note_on_c, 6, 70, 0
10, 36840, Note_on_c, 6, 74, 80
10, 36899, Note_on_c, 6, 74, 0
10, 36900, Note_on_c, 6, 71, 80
10, 36959, Note_on_c, 6, 71, 0
10, 37200, Note_on_c, 6, 79, 80
10, 37259, Note_on_c, 6, 79, 0
10, 37260, Note_on_c, 6, 76, 80
10, 37319, Note_on_c, 6, 76, 0
10, 37500, Note_on_c, 6, 79, 80
10, 37529, Note_on_c, 6, 79, 0
10, 37530, Note_on_c, 6, 78, 80
10, 37559, Note_on_c, 6, 78, 0
10, 37560, Note_on_c, 6, 76, 80
10, 37589, Note_on_c, 6, 76, 0
10, 37590, Note_on_c, 6, 74, 80
10, 37619, Note_on_c, 6, 74, 0
10, 37620, Note_on_c, 6, 73, 80
10, 37649, Note_on_c, 6, 73, 0
10, 37650, Note_on_c, 6, 71, 80
10, 37679, Note_on_c, 6, 71, 0
10, 37680, Note_on_c, 6, 74, 80
10, 37709, Note_on_c, 6, 74, 0
10, 37710, Note_on_c, 6, 73, 80
10, 37739, Note_on_c, 6, 73, 0
10, 37740, Note_on_c, 6, 71, 80
10, 37769, Note_on_c, 6, 71, 0
10, 37770, Note_on_c, 6, 70, 80
10, 37799, Note_on_c, 6, 70, 0
10, 37800, Note_on_c, 6, 71, 80
10, 37859, Note_on_c, 6, 71, 0
10, 37860, Note_on_c, 6, 77, 80
10, 37919, Note_on_c, 6, 77, 0
10, 37920, Note_on_c, 6, 77, 80
10, 37979, Note_on_c, 6, 77, 0
10, 37980, Note_on_c, 6, 77, 80
10, 38039, Note_on_c, 6, 77, 0
10, 38040, Note_on_c, 6, 77, 80
10, 38099, Note_on_c, 6, 77, 0
10, 38100, Note_on_c, 6, 75, 80
10, 38129, Note_on_c, 6, 75, 0
10, 38130, Note_on_c, 6, 77, 80
10, 38159, Note_on_c, 6, 77, 0
10, 38160, Note_on_c, 6, 78, 80
10, 38219, Note_on_c, 6, 78, 0
10, 38220, Note_on_c, 6, 78, 80
10, 38279, Note_on_c, 6, 78, 0
10, 38280, Note_on_c, 6, 78, 80
10, 38339, Note_on_c, 6, 78, 0
10, 38340, Note_on_c, 6, 78, 80
10, 38399, Note_on_c, 6, 78, 0
10, 38400, Note_on_c, 6, 78, 80
10, 38459, Note_on_c, 6, 78, 0
10, 38460, Note_on_c, 6, 77, 80
10, 38489, Note_on_c, 6, 77, 0
10, 38490, Note_on_c, 6, 78, 80
10, 38519, Note_on_c, 6, 78, 0
10, 38520, Note_on_c, 6, 80, 80
10, 38579, Note_on_c, 6, 80, 0
10, 38580, Note_on_c, 6, 80, 80
10, 38639, Note_on_c, 6, 80, 0
10, 38640, Note_on_c, 6, 80, 80
10, 38699, Note_on_c, 6, 80, 0
10, 38700, Note_on_c, 6, 80, 80
10, 38759, Note_on_c, 6, 80, 0
10, 38760, Note_on_c, 6, 80, 80
10, 38819, Note_on_c, 6, 80, 0
10, 38820, Note_on_c, 6, 78, 80
10, 38849, Note_on_c, 6, 78, 0
10, 38850, Note_on_c, 6, 80, 80
10, 38879, Note_on_c, 6, 80, 0
10, 38880, Note_on_c, 6, 81, 80
10, 38939, Note_on_c, 6, 81, 0
10, 38940, Note_on_c, 6, 81, 80
10, 38999, Note_on_c, 6, 81, 0
10, 39000, Note_on_c, 6, 81, 80
10, 39059, Note_on_c, 6, 81, 0
10, 39060, Note_on_c, 6, 81, 80
10, 39119, Note_on_c, 6, 81, 0
10, 39120, Note_on_c, 6, 81, 80
10, 39179, Note_on_c, 6, 81, 0
10, 39180, Note_on_c, 6, 80, 80
10, 39209, Note_on_c, 6, 80, 0
10, 39210, Note_on_c, 6, 81, 80
10, 39239, Note_on_c, 6, 81, 0
10, 39240, Note_on_c, 6, 83, 80
10, 39299, Note_on_c, 6, 83, 0
10, 39300, Note_on_c, 6, 80, 80
10, 39359, Note_on_c, 6, 80, 0
10, 39360, Note_on_c, 6, 77, 80
10, 39419, Note_on_c, 6, 77, 0
10, 39420, Note_on_c, 6, 78, 80
10, 39479, Note_on_c, 6, 78, 0
10, 39480, Note_on_c, 6, 73, 80
10, 39539, Note_on_c, 6, 73, 0
10, 39540, Note_on_c, 6, 77, 80
10, 39599, Note_on_c, 6, 77, 0
10, 39600, Note_on_c, 6, 78, 80
10, 39959, Note_on_c, 6, 78, 0
10, 40710, Note_on_c, 6, 66, 80
10, 40740, Note_on_c, 6, 66, 0
10, 40740, Note_on_c, 6, 67, 80
10, 40770, Note_on_c, 6, 67, 0
10, 40770, Note_on_c, 6, 69, 80
10, 40800, Note_on_c, 6, 69, 0
10, 40800, Note_on_c, 6, 71, 80
10, 40830, Note_on_c, 6, 71, 0
10, 40830, Note_on_c, 6, 73, 80
10, 40860, Note_on_c, 6, 73, 0
10, 40860, Note_on_c, 6, 74, 80
10, 40890, Note_on_c, 6, 74, 0
10, 40890, Note_on_c, 6, 76, 80
10, 40920, Note_on_c, 6, 76, 0
10, 40920, Note_on_c, 6, 78, 80
10, 40950, Note_on_c, 6, 78, 0
10, 40950, Note_on_c, 6, 76, 80
10, 40980, Note_on_c, 6, 76, 0
10, 40980, Note_on_c, 6, 78, 80
10, 41010, Note_on_c, 6, 78, 0
10, 41010, Note_on_c, 6, 76, 80
10, 41040, Note_on_c, 6, 76, 0
10, 41040, Note_on_c, 6, 78, 80
10, 41100, Note_on_c, 6, 78, 0
10, 41160, Note_on_c, 6, 74, 80
10, 41220, Note_on_c, 6, 74, 0
10, 41220, Note_on_c, 6, 66, 80
10, 41280, Note_on_c, 6, 66, 0
10, 41430, Note_on_c, 6, 66, 80
10, 41459, Note_on_c, 6, 66, 0
10, 41460, Note_on_c, 6, 67, 80
10, 41489, Note_on_c, 6, 67, 0
10, 41490, Note_on_c, 6, 69, 80
10, 41519, Note_on_c, 6, 69, 0
10, 41520, Note_on_c, 6, 71, 80
10, 41549, Note_on_c, 6, 71, 0
10, 41550, Note_on_c, 6, 73, 80
10, 41579, Note_on_c, 6, 73, 0
10, 41580, Note_on_c, 6, 74, 80
10, 41609, Note_on_c, 6, 74, 0
10, 41610, Note_on_c, 6, 76, 80
10, 41639, Note_on_c, 6, 76, 0
10, 41640, Note_on_c, 6, 78, 80
10, 41669, Note_on_c, 6, 78, 0
10, 41670, Note_on_c, 6, 76, 80
10, 41699, Note_on_c, 6, 76, 0
10, 41700, Note_on_c, 6, 78, 80
10, 41729, Note_on_c, 6, 78, 0
10, 41730, Note_on_c, 6, 76, 80
10, 41759, Note_on_c, 6, 76, 0
10, 41760, Note_on_c, 6, 78, 80
10, 41789, Note_on_c, 6, 78, 0
10, 41790, Note_on_c, 6, 74, 80
10, 41819, Note_on_c, 6, 74, 0
10, 41820, Note_on_c, 6, 76, 80
10, 41849, Note_on_c, 6, 76, 0
10, 41850, Note_on_c, 6, 78, 80
10, 41879, Note_on_c, 6, 78, 0
10, 41880, Note_on_c, 6, 79, 80
10, 41909, Note_on_c, 6, 79, 0
10, 41910, Note_on_c, 6, 81, 80
10, 41939, Note_on_c, 6, 81, 0
10, 41940, Note_on_c, 6, 83, 80
10, 41969, Note_on_c, 6, 83, 0
10, 41970, Note_on_c, 6, 85, 80
10, 41999, Note_on_c, 6, 85, 0
10, 42000, Note_on_c, 6, 86, 80
10, 42029, Note_on_c, 6, 86, 0
10, 42030, Note_on_c, 6, 85, 80
10, 42059, Note_on_c, 6, 85, 0
10, 42060, Note_on_c, 6, 86, 80
10, 42089, Note_on_c, 6, 86, 0
10, 42090, Note_on_c, 6, 85, 80
10, 42119, Note_on_c, 6, 85, 0
10, 42120, Note_on_c, 6, 83, 80
10, 42149, Note_on_c, 6, 83, 0
10, 42150, Note_on_c, 6, 81, 80
10, 42179, Note_on_c, 6, 81, 0
10, 42180, Note_on_c, 6, 83, 80
10, 42209, Note_on_c, 6, 83, 0
10, 42210, Note_on_c, 6, 81, 80
10, 42239, Note_on_c, 6, 81, 0
10, 42240, Note_on_c, 6, 80, 80
10, 42269, Note_on_c, 6, 80, 0
10, 42270, Note_on_c, 6, 78, 80
10, 42299, Note_on_c, 6, 78, 0
10, 42300, Note_on_c, 6, 80, 80
10, 42329, Note_on_c, 6, 80, 0
10, 42330, Note_on_c, 6, 78, 80
10, 42359, Note_on_c, 6, 78, 0
10, 42360, Note_on_c, 6, 76, 80
10, 42389, Note_on_c, 6, 76, 0
10, 42390, Note_on_c, 6, 74, 80
10, 42419, Note_on_c, 6, 74, 0
10, 42420, Note_on_c, 6, 76, 80
10, 42449, Note_on_c, 6, 76, 0
10, 42450, Note_on_c, 6, 74, 80
10, 42479, Note_on_c, 6, 74, 0
10, 42480, Note_on_c, 6, 73, 80
10, 42509, Note_on_c, 6, 73, 0
10, 42510, Note_on_c, 6, 76, 80
10, 42539, Note_on_c, 6, 76, 0
10, 42540, Note_on_c, 6, 81, 80
10, 42569, Note_on_c, 6, 81, 0
10, 42570, Note_on_c, 6, 83, 80
10, 42599, Note_on_c, 6, 83, 0
10, 42600, Note_on_c, 6, 85, 80
10, 42629, Note_on_c, 6, 85, 0
10, 42630, Note_on_c, 6, 83, 80
10, 42659, Note_on_c, 6, 83, 0
10, 42660, Note_on_c, 6, 81, 80
10, 42689, Note_on_c, 6, 81, 0
10, 42690, Note_on_c, 6, 83, 80
10, 42719, Note_on_c, 6, 83, 0
10, 42720, Note_on_c, 6, 83, 80
10, 42809, Note_on_c, 6, 83, 0
10, 42810, Note_on_c, 6, 81, 80
10, 42839, Note_on_c, 6, 81, 0
10, 42840, Note_on_c, 6, 81, 80
10, 42959, Note_on_c, 6, 81, 0
10, 43230, Note_on_c, 6, 66, 80
10, 43259, Note_on_c, 6, 66, 0
10, 43260, Note_on_c, 6, 67, 80
10, 43289, Note_on_c, 6, 67, 0
10, 43290, Note_on_c, 6, 69, 80
10, 43319, Note_on_c, 6, 69, 0
10, 43320, Note_on_c, 6, 71, 80
10, 43349, Note_on_c, 6, 71, 0
10, 43350, Note_on_c, 6, 73, 80
10, 43379, Note_on_c, 6, 73, 0
10, 43380, Note_on_c, 6, 75, 80
10, 43409, Note_on_c, 6, 75, 0
10, 43410, Note_on_c, 6, 76, 80
10, 43439, Note_on_c, 6, 76, 0
10, 43440, Note_on_c, 6, 78, 80
10, 43469, Note_on_c, 6, 78, 0
10, 43470, Note_on_c, 6, 76, 80
10, 43499, Note_on_c, 6, 76, 0
10, 43500, Note_on_c, 6, 78, 80
10, 43529, Note_on_c, 6, 78, 0
10, 43530, Note_on_c, 6, 76, 80
10, 43559, Note_on_c, 6, 76, 0
10, 43560, Note_on_c, 6, 75, 80
10, 43589, Note_on_c, 6, 75, 0
10, 43590, Note_on_c, 6, 71, 80
10, 43619, Note_on_c, 6, 71, 0
10, 43620, Note_on_c, 6, 73, 80
10, 43649, Note_on_c, 6, 73, 0
10, 43650, Note_on_c, 6, 75, 80
10, 43679, Note_on_c, 6, 75, 0
10, 43680, Note_on_c, 6, 76, 80
10, 43709, Note_on_c, 6, 76, 0
10, 43710, Note_on_c, 6, 78, 80
10, 43739, Note_on_c, 6, 78, 0
10, 43740, Note_on_c, 6, 79, 80
10, 43769, Note_on_c, 6, 79, 0
10, 43770, Note_on_c, 6, 81, 80
10, 43799, Note_on_c, 6, 81, 0
10, 43800, Note_on_c, 6, 83, 80
10, 43829, Note_on_c, 6, 83, 0
10, 43830, Note_on_c, 6, 84, 80
10, 43859, Note_on_c, 6, 84, 0
10, 43860, Note_on_c, 6, 81, 80
10, 43889, Note_on_c, 6, 81, 0
10, 43890, Note_on_c, 6, 83, 80
10, 43919, Note_on_c, 6, 83, 0
10, 43920, Note_on_c, 6, 79, 80
10, 43979, Note_on_c, 6, 79, 0
10, 43980, Note_on_c, 6, 71, 80
10, 44039, Note_on_c, 6, 71, 0
10, 44040, Note_on_c, 6, 71, 80
10, 44099, Note_on_c, 6, 71, 0
10, 44100, Note_on_c, 6, 71, 80
10, 44159, Note_on_c, 6, 71, 0
10, 44160, Note_on_c, 6, 71, 80
10, 44219, Note_on_c, 6, 71, 0
10, 44220, Note_on_c, 6, 73, 80
10, 44249, Note_on_c, 6, 73, 0
10, 44250, Note_on_c, 6, 75, 80
10, 44279, Note_on_c, 6, 75, 0
10, 44280, Note_on_c, 6, 76, 80
10, 44339, Note_on_c, 6, 76, 0
10, 44340, Note_on_c, 6, 79, 80
10, 44369, Note_on_c, 6, 79, 0
10, 44370, Note_on_c, 6, 78, 80
10, 44399, Note_on_c, 6, 78, 0
10, 44400, Note_on_c, 6, 76, 80
10, 44459, Note_on_c, 6, 76, 0
10, 44460, Note_on_c, 6, 79, 80
10, 44489, Note_on_c, 6, 79, 0
10, 44490, Note_on_c, 6, 78, 80
10, 44519, Note_on_c, 6, 78, 0
10, 44520, Note_on_c, 6, 76, 80
10, 44579, Note_on_c, 6, 76, 0
10, 44580, Note_on_c, 6, 76, 80
10, 44639, Note_on_c, 6, 76, 0
10, 44640, Note_on_c, 6, 76, 80
10, 44999, Note_on_c, 6, 76, 0
10, 45000, Note_on_c, 6, 78, 80
10, 45029, Note_on_c, 6, 78, 0
10, 45030, Note_on_c, 6, 66, 80
10, 45059, Note_on_c, 6, 66, 0
10, 45060, Note_on_c, 6, 67, 80
10, 45089, Note_on_c, 6, 67, 0
10, 45090, Note_on_c, 6, 69, 80
10, 45119, Note_on_c, 6, 69, 0
10, 45120, Note_on_c, 6, 71, 80
10, 45149, Note_on_c, 6, 71, 0
10, 45150, Note_on_c, 6, 73, 80
10, 45179, Note_on_c, 6, 73, 0
10, 45180, Note_on_c, 6, 74, 80
10, 45209, Note_on_c, 6, 74, 0
10, 45210, Note_on_c, 6, 76, 80
10, 45239, Note_on_c, 6, 76, 0
10, 45240, Note_on_c, 6, 78, 80
10, 45299, Note_on_c, 6, 78, 0
10, 45510, Note_on_c, 6, 81, 80
10, 45539, Note_on_c, 6, 81, 0
10, 45540, Note_on_c, 6, 79, 80
10, 45569, Note_on_c, 6, 79, 0
10, 45570, Note_on_c, 6, 78, 80
10, 45599, Note_on_c, 6, 78, 0
10, 45600, Note_on_c, 6, 76, 80
10, 45629, Note_on_c, 6, 76, 0
10, 45630, Note_on_c, 6, 74, 80
10, 45659, Note_on_c, 6, 74, 0
10, 45660, Note_on_c, 6, 73, 80
10, 45689, Note_on_c, 6, 73, 0
10, 45690, Note_on_c, 6, 71, 80
10, 45719, Note_on_c, 6, 71, 0
10, 45720, Note_on_c, 6, 69, 80
10, 45779, Note_on_c, 6, 69, 0
10, 45870, Note_on_c, 6, 79, 80
10, 45899, Note_on_c, 6, 79, 0
10, 45900, Note_on_c, 6, 78, 80
10, 45929, Note_on_c, 6, 78, 0
10, 45930, Note_on_c, 6, 76, 80
10, 45959, Note_on_c, 6, 76, 0
10, 45960, Note_on_c, 6, 74, 80
10, 45989, Note_on_c, 6, 74, 0
10, 45990, Note_on_c, 6, 73, 80
10, 46019, Note_on_c, 6, 73, 0
10, 46020, Note_on_c, 6, 71, 80
10, 46049, Note_on_c, 6, 71, 0
10, 46050, Note_on_c, 6, 69, 80
10, 46079, Note_on_c, 6, 69, 0
10, 46080, Note_on_c, 6, 67, 80
10, 46139, Note_on_c, 6, 67, 0
10, 46230, Note_on_c, 6, 78, 80
10, 46259, Note_on_c, 6, 78, 0
10, 46260, Note_on_c, 6, 76, 80
10, 46289, Note_on_c, 6, 76, 0
10, 46290, Note_on_c, 6, 74, 80
10, 46319, Note_on_c, 6, 74, 0
10, 46320, Note_on_c, 6, 73, 80
10, 46349, Note_on_c, 6, 73, 0
10, 46350, Note_on_c, 6, 71, 80
10, 46379, Note_on_c, 6, 71, 0
10, 46380, Note_on_c, 6, 69, 80
10, 46409, Note_on_c, 6, 69, 0
10, 46410, Note_on_c, 6, 67, 80
10, 46439, Note_on_c, 6, 67, 0
10, 46440, Note_on_c, 6, 66, 80
10, 46499, Note_on_c, 6, 66, 0
10, 46590, Note_on_c, 6, 76, 80
10, 46619, Note_on_c, 6, 76, 0
10, 46620, Note_on_c, 6, 74, 80
10, 46649, Note_on_c, 6, 74, 0
10, 46650, Note_on_c, 6, 73, 80
10, 46679, Note_on_c, 6, 73, 0
10, 46680, Note_on_c, 6, 71, 80
10, 46709, Note_on_c, 6, 71, 0
10, 46710, Note_on_c, 6, 69, 80
10, 46739, Note_on_c, 6, 69, 0
10, 46740, Note_on_c, 6, 68, 80
10, 46769, Note_on_c, 6, 68, 0
10, 46770, Note_on_c, 6, 66, 80
10, 46799, Note_on_c, 6, 66, 0
10, 46800, Note_on_c, 6, 68, 80
10, 46859, Note_on_c, 6, 68, 0
10, 46950, Note_on_c, 6, 76, 80
10, 46979, Note_on_c, 6, 76, 0
10, 46980, Note_on_c, 6, 74, 80
10, 47009, Note_on_c, 6, 74, 0
10, 47010, Note_on_c, 6, 72, 80
10, 47039, Note_on_c, 6, 72, 0
10, 47040, Note_on_c, 6, 71, 80
10, 47069, Note_on_c, 6, 71, 0
10, 47070, Note_on_c, 6, 69, 80
10, 47099, Note_on_c, 6, 69, 0
10, 47100, Note_on_c, 6, 68, 80
10, 47129, Note_on_c, 6, 68, 0
10, 47130, Note_on_c, 6, 66, 80
10, 47159, Note_on_c, 6, 66, 0
10, 47160, Note_on_c, 6, 64, 80
10, 47219, Note_on_c, 6, 64, 0
10, 47310, Note_on_c, 6, 73, 80
10, 47339, Note_on_c, 6, 73, 0
10, 47340, Note_on_c, 6, 71, 80
10, 47369, Note_on_c, 6, 71, 0
10, 47370, Note_on_c, 6, 69, 80
10, 47399, Note_on_c, 6, 69, 0
10, 47400, Note_on_c, 6, 68, 80
10, 47429, Note_on_c, 6, 68, 0
10, 47430, Note_on_c, 6, 66, 80
10, 47459, Note_on_c, 6, 66, 0
10, 47460, Note_on_c, 6, 64, 80
10, 47489, Note_on_c, 6, 64, 0
10, 47490, Note_on_c, 6, 62, 80
10, 47519, Note_on_c, 6, 62, 0
10, 47520, Note_on_c, 6, 69, 80
10, 47579, Note_on_c, 6, 69, 0
10, 47640, Note_on_c, 6, 76, 80
10, 47699, Note_on_c, 6, 76, 0
10, 47700, Note_on_c, 6, 73, 80
10, 47759, Note_on_c, 6, 73, 0
10, 48000, Note_on_c, 6, 78, 80
10, 48059, Note_on_c, 6, 78, 0
10, 48060, Note_on_c, 6, 74, 80
10, 48119, Note_on_c, 6, 74, 0
10, 48360, Note_on_c, 6, 76, 80
10, 48419, Note_on_c, 6, 76, 0
10, 48420, Note_on_c, 6, 73, 80
10, 48479, Note_on_c, 6, 73, 0
10, 48630, Note_on_c, 6, 66, 80
10, 48659, Note_on_c, 6, 66, 0
10, 48660, Note_on_c, 6, 67, 80
10, 48689, Note_on_c, 6, 67, 0
10, 48690, Note_on_c, 6, 69, 80
10, 48719, Note_on_c, 6, 69, 0
10, 48720, Note_on_c, 6, 71, 80
10, 48749, Note_on_c, 6, 71, 0
10, 48750, Note_on_c, 6, 73, 80
10, 48779, Note_on_c, 6, 73, 0
10, 48780, Note_on_c, 6, 74, 80
10, 48809, Note_on_c, 6, 74, 0
10, 48810, Note_on_c, 6, 76, 80
10, 48839, Note_on_c, 6, 76, 0
10, 48840, Note_on_c, 6, 78, 80
10, 48869, Note_on_c, 6, 78, 0
10, 48870, Note_on_c, 6, 76, 80
10, 48899, Note_on_c, 6, 76, 0
10, 48900, Note_on_c, 6, 78, 80
10, 48929, Note_on_c, 6, 78, 0
10, 48930, Note_on_c, 6, 76, 80
10, 48959, Note_on_c, 6, 76, 0
10, 48960, Note_on_c, 6, 78, 80
10, 48989, Note_on_c, 6, 78, 0
10, 48990, Note_on_c, 6, 74, 80
10, 49019, Note_on_c, 6, 74, 0
10, 49020, Note_on_c, 6, 76, 80
10, 49049, Note_on_c, 6, 76, 0
10, 49050, Note_on_c, 6, 78, 80
10, 49079, Note_on_c, 6, 78, 0
10, 49080, Note_on_c, 6, 79, 80
10, 49109, Note_on_c, 6, 79, 0
10, 49110, Note_on_c, 6, 81, 80
10, 49139, Note_on_c, 6, 81, 0
10, 49140, Note_on_c, 6, 83, 80
10, 49169, Note_on_c, 6, 83, 0
10, 49170, Note_on_c, 6, 85, 80
10, 49199, Note_on_c, 6, 85, 0
10, 49200, Note_on_c, 6, 86, 80
10, 49229, Note_on_c, 6, 86, 0
10, 49230, Note_on_c, 6, 85, 80
10, 49259, Note_on_c, 6, 85, 0
10, 49260, Note_on_c, 6, 86, 80
10, 49289, Note_on_c, 6, 86, 0
10, 49290, Note_on_c, 6, 85, 80
10, 49319, Note_on_c, 6, 85, 0
10, 49320, Note_on_c, 6, 83, 80
10, 49349, Note_on_c, 6, 83, 0
10, 49350, Note_on_c, 6, 81, 80
10, 49379, Note_on_c, 6, 81, 0
10, 49380, Note_on_c, 6, 83, 80
10, 49409, Note_on_c, 6, 83, 0
10, 49410, Note_on_c, 6, 81, 80
10, 49439, Note_on_c, 6, 81, 0
10, 49440, Note_on_c, 6, 79, 80
10, 49469, Note_on_c, 6, 79, 0
10, 49470, Note_on_c, 6, 78, 80
10, 49499, Note_on_c, 6, 78, 0
10, 49500, Note_on_c, 6, 79, 80
10, 49529, Note_on_c, 6, 79, 0
10, 49530, Note_on_c, 6, 78, 80
10, 49559, Note_on_c, 6, 78, 0
10, 49560, Note_on_c, 6, 76, 80
10, 49589, Note_on_c, 6, 76, 0
10, 49590, Note_on_c, 6, 74, 80
10, 49619, Note_on_c, 6, 74, 0
10, 49620, Note_on_c, 6, 76, 80
10, 49649, Note_on_c, 6, 76, 0
10, 49650, Note_on_c, 6, 74, 80
10, 49679, Note_on_c, 6, 74, 0
10, 49680, Note_on_c, 6, 79, 80
10, 49739, Note_on_c, 6, 79, 0
10, 49740, Note_on_c, 6, 81, 80
10, 49769, Note_on_c, 6, 81, 0
10, 49770, Note_on_c, 6, 79, 80
10, 49799, Note_on_c, 6, 79, 0
10, 49800, Note_on_c, 6, 78, 80
10, 49829, Note_on_c, 6, 78, 0
10, 49830, Note_on_c, 6, 76, 80
10, 49859, Note_on_c, 6, 76, 0
10, 49860, Note_on_c, 6, 74, 80
10, 49889, Note_on_c, 6, 74, 0
10, 49890, Note_on_c, 6, 76, 80
10, 49919, Note_on_c, 6, 76, 0
10, 49920, Note_on_c, 6, 76, 80
10, 50009, Note_on_c, 6, 76, 0
10, 50010, Note_on_c, 6, 74, 80
10, 50039, Note_on_c, 6, 74, 0
10, 50040, Note_on_c, 6, 74, 80
10, 50159, Note_on_c, 6, 74, 0
10, 50160, Note_on_c, 6, 74, 80
10, 50219, Note_on_c, 6, 74, 0
10, 50220, Note_on_c, 6, 69, 80
10, 50279, Note_on_c, 6, 69, 0
10, 50520, Note_on_c, 6, 71, 80
10, 50579, Note_on_c, 6, 71, 0
10, 50580, Note_on_c, 6, 66, 80
10, 50639, Note_on_c, 6, 66, 0
10, 50880, Note_on_c, 6, 69, 80
10, 50939, Note_on_c, 6, 69, 0
10, 50940, Note_on_c, 6, 66, 80
10, 50999, Note_on_c, 6, 66, 0
10, 51240, Note_on_c, 6, 74, 80
10, 51299, Note_on_c, 6, 74, 0
10, 51300, Note_on_c, 6, 71, 80
10, 51359, Note_on_c, 6, 71, 0
10, 51540, Note_on_c, 6, 81, 80
10, 51569, Note_on_c, 6, 81, 0
10, 51570, Note_on_c, 6, 79, 80
10, 51599, Note_on_c, 6, 79, 0
10, 51600, Note_on_c, 6, 78, 80
10, 51629, Note_on_c, 6, 78, 0
10, 51630, Note_on_c, 6, 76, 80
10, 51659, Note_on_c, 6, 76, 0
10, 51660, Note_on_c, 6, 74, 80
10, 51689, Note_on_c, 6, 74, 0
10, 51690, Note_on_c, 6, 73, 80
10, 51719, Note_on_c, 6, 73, 0
10, 51720, Note_on_c, 6, 74, 80
10, 51749, Note_on_c, 6, 74, 0
10, 51750, Note_on_c, 6, 71, 80
10, 51779, Note_on_c, 6, 71, 0
10, 51780, Note_on_c, 6, 73, 80
10, 51809, Note_on_c, 6, 73, 0
10, 51810, Note_on_c, 6, 69, 80
10, 51839, Note_on_c, 6, 69, 0
10, 51840, Note_on_c, 6, 76, 80
10, 51959, Note_on_c, 6, 76, 0
10, 51960, Note_on_c, 6, 76, 80
10, 52019, Note_on_c, 6, 76, 0
10, 52020, Note_on_c, 6, 73, 80
10, 52079, Note_on_c, 6, 73, 0
10, 52320, Note_on_c, 6, 78, 80
10, 52379, Note_on_c, 6, 78, 0
10, 52380, Note_on_c, 6, 74, 80
10, 52439, Note_on_c, 6, 74, 0
10, 52680, Note_on_c, 6, 76, 80
10, 52739, Note_on_c, 6, 76, 0
10, 52740, Note_on_c, 6, 73, 80
10, 52799, Note_on_c, 6, 73, 0
10, 52950, Note_on_c, 6, 66, 80
10, 52979, Note_on_c, 6, 66, 0
10, 52980, Note_on_c, 6, 67, 80
10, 53009, Note_on_c, 6, 67, 0
10, 53010, Note_on_c, 6, 69, 80
10, 53039, Note_on_c, 6, 69, 0
10, 53040, Note_on_c, 6, 71, 80
10, 53069, Note_on_c, 6, 71, 0
10, 53070, Note_on_c, 6, 73, 80
10, 53099, Note_on_c, 6, 73, 0
10, 53100, Note_on_c, 6, 74, 80
10, 53129, Note_on_c, 6, 74, 0
10, 53130, Note_on_c, 6, 76, 80
10, 53159, Note_on_c, 6, 76, 0
10, 53160, Note_on_c, 6, 78, 80
10, 53189, Note_on_c, 6, 78, 0
10, 53190, Note_on_c, 6, 76, 80
10, 53219, Note_on_c, 6, 76, 0
10, 53220, Note_on_c, 6, 78, 80
10, 53249, Note_on_c, 6, 78, 0
10, 53250, Note_on_c, 6, 76, 80
10, 53279, Note_on_c, 6, 76, 0
10, 53280, Note_on_c, 6, 78, 80
10, 53309, Note_on_c, 6, 78, 0
10, 53310, Note_on_c, 6, 74, 80
10, 53339, Note_on_c, 6, 74, 0
10, 53340, Note_on_c, 6, 76, 80
10, 53369, Note_on_c, 6, 76, 0
10, 53370, Note_on_c, 6, 78, 80
10, 53399, Note_on_c, 6, 78, 0
10, 53400, Note_on_c, 6, 79, 80
10, 53429, Note_on_c, 6, 79, 0
10, 53430, Note_on_c, 6, 81, 80
10, 53459, Note_on_c, 6, 81, 0
10, 53460, Note_on_c, 6, 83, 80
10, 53489, Note_on_c, 6, 83, 0
10, 53490, Note_on_c, 6, 85, 80
10, 53519, Note_on_c, 6, 85, 0
10, 53520, Note_on_c, 6, 86, 80
10, 53549, Note_on_c, 6, 86, 0
10, 53550, Note_on_c, 6, 85, 80
10, 53579, Note_on_c, 6, 85, 0
10, 53580, Note_on_c, 6, 86, 80
10, 53609, Note_on_c, 6, 86, 0
10, 53610, Note_on_c, 6, 85, 80
10, 53639, Note_on_c, 6, 85, 0
10, 53640, Note_on_c, 6, 83, 80
10, 53669, Note_on_c, 6, 83, 0
10, 53670, Note_on_c, 6, 81, 80
10, 53699, Note_on_c, 6, 81, 0
10, 53700, Note_on_c, 6, 83, 80
10, 53729, Note_on_c, 6, 83, 0
10, 53730, Note_on_c, 6, 81, 80
10, 53759, Note_on_c, 6, 81, 0
10, 53760, Note_on_c, 6, 79, 80
10, 53789, Note_on_c, 6, 79, 0
10, 53790, Note_on_c, 6, 78, 80
10, 53819, Note_on_c, 6, 78, 0
10, 53820, Note_on_c, 6, 79, 80
10, 53849, Note_on_c, 6, 79, 0
10, 53850, Note_on_c, 6, 78, 80
10, 53879, Note_on_c, 6, 78, 0
10, 53880, Note_on_c, 6, 76, 80
10, 53909, Note_on_c, 6, 76, 0
10, 53910, Note_on_c, 6, 74, 80
10, 53939, Note_on_c, 6, 74, 0
10, 53940, Note_on_c, 6, 76, 80
10, 53969, Note_on_c, 6, 76, 0
10, 53970, Note_on_c, 6, 74, 80
10, 53999, Note_on_c, 6, 74, 0
10, 54000, Note_on_c, 6, 79, 80
10, 54059, Note_on_c, 6, 79, 0
10, 54060, Note_on_c, 6, 81, 80
10, 54089, Note_on_c, 6, 81, 0
10, 54090, Note_on_c, 6, 79, 80
10, 54119, Note_on_c, 6, 79, 0
10, 54120, Note_on_c, 6, 78, 80
10, 54149, Note_on_c, 6, 78, 0
10, 54150, Note_on_c, 6, 76, 80
10, 54179, Note_on_c, 6, 76, 0
10, 54180, Note_on_c, 6, 74, 80
10, 54209, Note_on_c, 6, 74, 0
10, 54210, Note_on_c, 6, 76, 80
10, 54239, Note_on_c, 6, 76, 0
10, 54240, Note_on_c, 6, 76, 80
10, 54329, Note_on_c, 6, 76, 0
10, 54330, Note_on_c, 6, 74, 80
10, 54359, Note_on_c, 6, 74, 0
10, 54360, Note_on_c, 6, 74, 80
10, 54419, Note_on_c, 6, 74, 0
10, 55110, Note_on_c, 6, 66, 80
10, 55139, Note_on_c, 6, 66, 0
10, 55140, Note_on_c, 6, 67, 80
10, 55169, Note_on_c, 6, 67, 0
10, 55170, Note_on_c, 6, 69, 80
10, 55199, Note_on_c, 6, 69, 0
10, 55200, Note_on_c, 6, 71, 80
10, 55229, Note_on_c, 6, 71, 0
10, 55230, Note_on_c, 6, 73, 80
10, 55259, Note_on_c, 6, 73, 0
10, 55260, Note_on_c, 6, 74, 80
10, 55289, Note_on_c, 6, 74, 0
10, 55290, Note_on_c, 6, 76, 80
10, 55319, Note_on_c, 6, 76, 0
10, 55320, Note_on_c, 6, 78, 80
10, 55349, Note_on_c, 6, 78, 0
10, 55350, Note_on_c, 6, 76, 80
10, 55379, Note_on_c, 6, 76, 0
10, 55380, Note_on_c, 6, 78, 80
10, 55409, Note_on_c, 6, 78, 0
10, 55410, Note_on_c, 6, 76, 80
10, 55439, Note_on_c, 6, 76, 0
10, 55440, Note_on_c, 6, 78, 80
10, 55469, Note_on_c, 6, 78, 0
10, 55470, Note_on_c, 6, 81, 80
10, 55499, Note_on_c, 6, 81, 0
10, 55500, Note_on_c, 6, 79, 80
10, 55529, Note_on_c, 6, 79, 0
10, 55530, Note_on_c, 6, 78, 80
10, 55559, Note_on_c, 6, 78, 0
10, 55560, Note_on_c, 6, 76, 80
10, 55589, Note_on_c, 6, 76, 0
10, 55590, Note_on_c, 6, 74, 80
10, 55619, Note_on_c, 6, 74, 0
10, 55620, Note_on_c, 6, 73, 80
10, 55649, Note_on_c, 6, 73, 0
10, 55650, Note_on_c, 6, 71, 80
10, 55679, Note_on_c, 6, 71, 0
10, 55680, Note_on_c, 6, 69, 80
10, 55709, Note_on_c, 6, 69, 0
10, 55710, Note_on_c, 6, 71, 80
10, 55739, Note_on_c, 6, 71, 0
10, 55740, Note_on_c, 6, 69, 80
10, 55769, Note_on_c, 6, 69, 0
10, 55770, Note_on_c, 6, 71, 80
10, 55799, Note_on_c, 6, 71, 0
10, 55800, Note_on_c, 6, 69, 80
10, 55829, Note_on_c, 6, 69, 0
10, 55830, Note_on_c, 6, 66, 80
10, 55859, Note_on_c, 6, 66, 0
10, 55860, Note_on_c, 6, 67, 80
10, 55889, Note_on_c, 6, 67, 0
10, 55890, Note_on_c, 6, 69, 80
10, 55919, Note_on_c, 6, 69, 0
10, 55920, Note_on_c, 6, 71, 80
10, 55949, Note_on_c, 6, 71, 0
10, 55950, Note_on_c, 6, 73, 80
10, 55979, Note_on_c, 6, 73, 0
10, 55980, Note_on_c, 6, 74, 80
10, 56009, Note_on_c, 6, 74, 0
10, 56010, Note_on_c, 6, 76, 80
10, 56039, Note_on_c, 6, 76, 0
10, 56040, Note_on_c, 6, 78, 80
10, 56069, Note_on_c, 6, 78, 0
10, 56070, Note_on_c, 6, 76, 80
10, 56099, Note_on_c, 6, 76, 0
10, 56100, Note_on_c, 6, 78, 80
10, 56129, Note_on_c, 6, 78, 0
10, 56130, Note_on_c, 6, 76, 80
10, 56159, Note_on_c, 6, 76, 0
10, 56160, Note_on_c, 6, 78, 80
10, 56189, Note_on_c, 6, 78, 0
10, 56190, Note_on_c, 6, 74, 80
10, 56219, Note_on_c, 6, 74, 0
10, 56220, Note_on_c, 6, 76, 80
10, 56249, Note_on_c, 6, 76, 0
10, 56250, Note_on_c, 6, 78, 80
10, 56279, Note_on_c, 6, 78, 0
10, 56280, Note_on_c, 6, 79, 80
10, 56309, Note_on_c, 6, 79, 0
10, 56310, Note_on_c, 6, 81, 80
10, 56339, Note_on_c, 6, 81, 0
10, 56340, Note_on_c, 6, 83, 80
10, 56369, Note_on_c, 6, 83, 0
10, 56370, Note_on_c, 6, 85, 80
10, 56399, Note_on_c, 6, 85, 0
10, 56400, Note_on_c, 6, 86, 80
10, 56429, Note_on_c, 6, 86, 0
10, 56430, Note_on_c, 6, 85, 80
10, 56459, Note_on_c, 6, 85, 0
10, 56460, Note_on_c, 6, 86, 80
10, 56489, Note_on_c, 6, 86, 0
10, 56490, Note_on_c, 6, 85, 80
10, 56519, Note_on_c, 6, 85, 0
10, 56520, Note_on_c, 6, 83, 80
10, 56549, Note_on_c, 6, 83, 0
10, 56550, Note_on_c, 6, 81, 80
10, 56579, Note_on_c, 6, 81, 0
10, 56580, Note_on_c, 6, 83, 80
10, 56609, Note_on_c, 6, 83, 0
10, 56610, Note_on_c, 6, 81, 80
10, 56639, Note_on_c, 6, 81, 0
10, 56640, Note_on_c, 6, 80, 80
10, 56669, Note_on_c, 6, 80, 0
10, 56670, Note_on_c, 6, 78, 80
10, 56699, Note_on_c, 6, 78, 0
10, 56700, Note_on_c, 6, 80, 80
10, 56729, Note_on_c, 6, 80, 0
10, 56730, Note_on_c, 6, 78, 80
10, 56759, Note_on_c, 6, 78, 0
10, 56760, Note_on_c, 6, 76, 80
10, 56789, Note_on_c, 6, 76, 0
10, 56790, Note_on_c, 6, 74, 80
10, 56819, Note_on_c, 6, 74, 0
10, 56820, Note_on_c, 6, 76, 80
10, 56849, Note_on_c, 6, 76, 0
10, 56850, Note_on_c, 6, 74, 80
10, 56879, Note_on_c, 6, 74, 0
10, 56880, Note_on_c, 6, 73, 80
10, 56909, Note_on_c, 6, 73, 0
10, 56910, Note_on_c, 6, 76, 80
10, 56939, Note_on_c, 6, 76, 0
10, 56940, Note_on_c, 6, 81, 80
10, 56969, Note_on_c, 6, 81, 0
10, 56970, Note_on_c, 6, 83, 80
10, 56999, Note_on_c, 6, 83, 0
10, 57000, Note_on_c, 6, 85, 80
10, 57029, Note_on_c, 6, 85, 0
10, 57030, Note_on_c, 6, 83, 80
10, 57059, Note_on_c, 6, 83, 0
10, 57060, Note_on_c, 6, 81, 80
10, 57089, Note_on_c, 6, 81, 0
10, 57090, Note_on_c, 6, 83, 80
10, 57119, Note_on_c, 6, 83, 0
10, 57120, Note_on_c, 6, 83, 80
10, 57209, Note_on_c, 6, 83, 0
10, 57210, Note_on_c, 6, 81, 80
10, 57239, Note_on_c, 6, 81, 0
10, 57240, Note_on_c, 6, 81, 80
10, 57359, Note_on_c, 6, 81, 0
10, 57390, Note_on_c, 6, 83, 80
10, 57419, Note_on_c, 6, 83, 0
10, 57420, Note_on_c, 6, 81, 80
10, 57449, Note_on_c, 6, 81, 0
10, 57450, Note_on_c, 6, 80, 80
10, 57479, Note_on_c, 6, 80, 0
10, 57480, Note_on_c, 6, 78, 80
10, 57509, Note_on_c, 6, 78, 0
10, 57510, Note_on_c, 6, 76, 80
10, 57539, Note_on_c, 6, 76, 0
10, 57540, Note_on_c, 6, 75, 80
10, 57569, Note_on_c, 6, 75, 0
10, 57570, Note_on_c, 6, 73, 80
10, 57599, Note_on_c, 6, 73, 0
10, 57600, Note_on_c, 6, 75, 80
10, 57659, Note_on_c, 6, 75, 0
10, 57750, Note_on_c, 6, 83, 80
10, 57779, Note_on_c, 6, 83, 0
10, 57780, Note_on_c, 6, 81, 80
10, 57809, Note_on_c, 6, 81, 0
10, 57810, Note_on_c, 6, 80, 80
10, 57839, Note_on_c, 6, 80, 0
10, 57840, Note_on_c, 6, 78, 80
10, 57869, Note_on_c, 6, 78, 0
10, 57870, Note_on_c, 6, 76, 80
10, 57899, Note_on_c, 6, 76, 0
10, 57900, Note_on_c, 6, 75, 80
10, 57929, Note_on_c, 6, 75, 0
10, 57930, Note_on_c, 6, 73, 80
10, 57959, Note_on_c, 6, 73, 0
10, 57960, Note_on_c, 6, 71, 80
10, 58019, Note_on_c, 6, 71, 0
10, 58110, Note_on_c, 6, 80, 80
10, 58139, Note_on_c, 6, 80, 0
10, 58140, Note_on_c, 6, 78, 80
10, 58169, Note_on_c, 6, 78, 0
10, 58170, Note_on_c, 6, 76, 80
10, 58199, Note_on_c, 6, 76, 0
10, 58200, Note_on_c, 6, 75, 80
10, 58229, Note_on_c, 6, 75, 0
10, 58230, Note_on_c, 6, 73, 80
10, 58259, Note_on_c, 6, 73, 0
10, 58260, Note_on_c, 6, 71, 80
10, 58289, Note_on_c, 6, 71, 0
10, 58290, Note_on_c, 6, 69, 80
10, 58319, Note_on_c, 6, 69, 0
10, 58320, Note_on_c, 6, 76, 80
10, 58379, Note_on_c, 6, 76, 0
10, 58440, Note_on_c, 6, 76, 80
10, 58499, Note_on_c, 6, 76, 0
10, 58500, Note_on_c, 6, 71, 80
10, 58559, Note_on_c, 6, 71, 0
10, 58800, Note_on_c, 6, 76, 80
10, 58859, Note_on_c, 6, 76, 0
10, 58860, Note_on_c, 6, 73, 80
10, 58919, Note_on_c, 6, 73, 0
10, 59160, Note_on_c, 6, 76, 80
10, 59219, Note_on_c, 6, 76, 0
10, 59220, Note_on_c, 6, 71, 80
10, 59279, Note_on_c, 6, 71, 0
10, 59790, Note_on_c, 6, 69, 80
10, 59819, Note_on_c, 6, 69, 0
10, 59820, Note_on_c, 6, 71, 80
10, 59849, Note_on_c, 6, 71, 0
10, 59850, Note_on_c, 6, 73, 80
10, 59879, Note_on_c, 6, 73, 0
10, 59880, Note_on_c, 6, 74, 80
10, 59909, Note_on_c, 6, 74, 0
10, 59910, Note_on_c, 6, 76, 80
10, 59939, Note_on_c, 6, 76, 0
10, 59940, Note_on_c, 6, 78, 80
10, 59969, Note_on_c, 6, 78, 0
10, 59970, Note_on_c, 6, 80, 80
10, 59999, Note_on_c, 6, 80, 0
10, 60000, Note_on_c, 6, 81, 80
10, 60029, Note_on_c, 6, 81, 0
10, 60030, Note_on_c, 6, 80, 80
10, 60059, Note_on_c, 6, 80, 0
10, 60060, Note_on_c, 6, 81, 80
10, 60089, Note_on_c, 6, 81, 0
10, 60090, Note_on_c, 6, 80, 80
10, 60119, Note_on_c, 6, 80, 0
10, 60120, Note_on_c, 6, 78, 80
10, 60149, Note_on_c, 6, 78, 0
10, 60150, Note_on_c, 6, 76, 80
10, 60179, Note_on_c, 6, 76, 0
10, 60180, Note_on_c, 6, 78, 80
10, 60209, Note_on_c, 6, 78, 0
10, 60210, Note_on_c, 6, 76, 80
10, 60239, Note_on_c, 6, 76, 0
10, 60240, Note_on_c, 6, 74, 80
10, 60269, Note_on_c, 6, 74, 0
10, 60270, Note_on_c, 6, 73, 80
10, 60299, Note_on_c, 6, 73, 0
10, 60300, Note_on_c, 6, 74, 80
10, 60329, Note_on_c, 6, 74, 0
10, 60330, Note_on_c, 6, 73, 80
10, 60359, Note_on_c, 6, 73, 0
10, 60360, Note_on_c, 6, 71, 80
10, 60389, Note_on_c, 6, 71, 0
10, 60390, Note_on_c, 6, 69, 80
10, 60419, Note_on_c, 6, 69, 0
10, 60420, Note_on_c, 6, 71, 80
10, 60449, Note_on_c, 6, 71, 0
10, 60450, Note_on_c, 6, 69, 80
10, 60479, Note_on_c, 6, 69, 0
10, 60480, Note_on_c, 6, 74, 80
10, 60539, Note_on_c, 6, 74, 0
10, 60540, Note_on_c, 6, 76, 80
10, 60569, Note_on_c, 6, 76, 0
10, 60570, Note_on_c, 6, 74, 80
10, 60599, Note_on_c, 6, 74, 0
10, 60600, Note_on_c, 6, 73, 80
10, 60629, Note_on_c, 6, 73, 0
10, 60630, Note_on_c, 6, 71, 80
10, 60659, Note_on_c, 6, 71, 0
10, 60660, Note_on_c, 6, 69, 80
10, 60689, Note_on_c, 6, 69, 0
10, 60690, Note_on_c, 6, 71, 80
10, 60719, Note_on_c, 6, 71, 0
10, 60720, Note_on_c, 6, 71, 80
10, 60809, Note_on_c, 6, 71, 0
10, 60810, Note_on_c, 6, 69, 80
10, 60839, Note_on_c, 6, 69, 0
10, 60840, Note_on_c, 6, 69, 80
10, 60960, Note_on_c, 6, 69, 0
10, 61230, Note_on_c, 6, 66, 80
10, 61259, Note_on_c, 6, 66, 0
10, 61260, Note_on_c, 6, 67, 80
10, 61289, Note_on_c, 6, 67, 0
10, 61290, Note_on_c, 6, 69, 80
10, 61319, Note_on_c, 6, 69, 0
10, 61320, Note_on_c, 6, 71, 80
10, 61349, Note_on_c, 6, 71, 0
10, 61350, Note_on_c, 6, 73, 80
10, 61379, Note_on_c, 6, 73, 0
10, 61380, Note_on_c, 6, 75, 80
10, 61409, Note_on_c, 6, 75, 0
10, 61410, Note_on_c, 6, 76, 80
10, 61439, Note_on_c, 6, 76, 0
10, 61440, Note_on_c, 6, 78, 80
10, 61469, Note_on_c, 6, 78, 0
10, 61470, Note_on_c, 6, 76, 80
10, 61499, Note_on_c, 6, 76, 0
10, 61500, Note_on_c, 6, 78, 80
10, 61529, Note_on_c, 6, 78, 0
10, 61530, Note_on_c, 6, 76, 80
10, 61559, Note_on_c, 6, 76, 0
10, 61560, Note_on_c, 6, 75, 80
10, 61589, Note_on_c, 6, 75, 0
10, 61590, Note_on_c, 6, 71, 80
10, 61619, Note_on_c, 6, 71, 0
10, 61620, Note_on_c, 6, 73, 80
10, 61649, Note_on_c, 6, 73, 0
10, 61650, Note_on_c, 6, 75, 80
10, 61679, Note_on_c, 6, 75, 0
10, 61680, Note_on_c, 6, 76, 80
10, 61709, Note_on_c, 6, 76, 0
10, 61710, Note_on_c, 6, 78, 80
10, 61739, Note_on_c, 6, 78, 0
10, 61740, Note_on_c, 6, 79, 80
10, 61769, Note_on_c, 6, 79, 0
10, 61770, Note_on_c, 6, 81, 80
10, 61799, Note_on_c, 6, 81, 0
10, 61800, Note_on_c, 6, 83, 80
10, 61829, Note_on_c, 6, 83, 0
10, 61830, Note_on_c, 6, 84, 80
10, 61859, Note_on_c, 6, 84, 0
10, 61860, Note_on_c, 6, 81, 80
10, 61889, Note_on_c, 6, 81, 0
10, 61890, Note_on_c, 6, 83, 80
10, 61919, Note_on_c, 6, 83, 0
10, 61920, Note_on_c, 6, 79, 80
10, 61979, Note_on_c, 6, 79, 0
10, 61980, Note_on_c, 6, 71, 80
10, 62039, Note_on_c, 6, 71, 0
10, 62040, Note_on_c, 6, 71, 80
10, 62099, Note_on_c, 6, 71, 0
10, 62100, Note_on_c, 6, 71, 80
10, 62159, Note_on_c, 6, 71, 0
10, 62160, Note_on_c, 6, 71, 80
10, 62219, Note_on_c, 6, 71, 0
10, 62220, Note_on_c, 6, 73, 80
10, 62249, Note_on_c, 6, 73, 0
10, 62250, Note_on_c, 6, 75, 80
10, 62279, Note_on_c, 6, 75, 0
10, 62280, Note_on_c, 6, 76, 80
10, 62339, Note_on_c, 6, 76, 0
10, 62340, Note_on_c, 6, 79, 80
10, 62369, Note_on_c, 6, 79, 0
10, 62370, Note_on_c, 6, 78, 80
10, 62399, Note_on_c, 6, 78, 0
10, 62400, Note_on_c, 6, 76, 80
10, 62459, Note_on_c, 6, 76, 0
10, 62460, Note_on_c, 6, 79, 80
10, 62489, Note_on_c, 6, 79, 0
10, 62490, Note_on_c, 6, 78, 80
10, 62519, Note_on_c, 6, 78, 0
10, 62520, Note_on_c, 6, 76, 80
10, 62579, Note_on_c, 6, 76, 0
10, 62580, Note_on_c, 6, 76, 80
10, 62639, Note_on_c, 6, 76, 0
10, 62640, Note_on_c, 6, 76, 80
10, 62999, Note_on_c, 6, 76, 0
10, 63000, Note_on_c, 6, 78, 80
10, 63029, Note_on_c, 6, 78, 0
10, 63030, Note_on_c, 6, 66, 80
10, 63059, Note_on_c, 6, 66, 0
10, 63060, Note_on_c, 6, 67, 80
10, 63089, Note_on_c, 6, 67, 0
10, 63090, Note_on_c, 6, 69, 80
10, 63119, Note_on_c, 6, 69, 0
10, 63120, Note_on_c, 6, 71, 80
10, 63149, Note_on_c, 6, 71, 0
10, 63150, Note_on_c, 6, 73, 80
10, 63179, Note_on_c, 6, 73, 0
10, 63180, Note_on_c, 6, 74, 80
10, 63209, Note_on_c, 6, 74, 0
10, 63210, Note_on_c, 6, 76, 80
10, 63239, Note_on_c, 6, 76, 0
10, 63240, Note_on_c, 6, 78, 80
10, 63299, Note_on_c, 6, 78, 0
10, 63510, Note_on_c, 6, 81, 80
10, 63539, Note_on_c, 6, 81, 0
10, 63540, Note_on_c, 6, 79, 80
10, 63569, Note_on_c, 6, 79, 0
10, 63570, Note_on_c, 6, 78, 80
10, 63599, Note_on_c, 6, 78, 0
10, 63600, Note_on_c, 6, 76, 80
10, 63629, Note_on_c, 6, 76, 0
10, 63630, Note_on_c, 6, 74, 80
10, 63659, Note_on_c, 6, 74, 0
10, 63660, Note_on_c, 6, 73, 80
10, 63689, Note_on_c, 6, 73, 0
10, 63690, Note_on_c, 6, 71, 80
10, 63719, Note_on_c, 6, 71, 0
10, 63720, Note_on_c, 6, 69, 80
10, 63779, Note_on_c, 6, 69, 0
10, 63870, Note_on_c, 6, 79, 80
10, 63899, Note_on_c, 6, 79, 0
10, 63900, Note_on_c, 6, 78, 80
10, 63929, Note_on_c, 6, 78, 0
10, 63930, Note_on_c, 6, 76, 80
10, 63959, Note_on_c, 6, 76, 0
10, 63960, Note_on_c, 6, 74, 80
10, 63989, Note_on_c, 6, 74, 0
10, 63990, Note_on_c, 6, 73, 80
10, 64019, Note_on_c, 6, 73, 0
10, 64020, Note_on_c, 6, 71, 80
10, 64049, Note_on_c, 6, 71, 0
10, 64050, Note_on_c, 6, 69, 80
10, 64079, Note_on_c, 6, 69, 0
10, 64080, Note_on_c, 6, 67, 80
10, 64139, Note_on_c, 6, 67, 0
10, 64230, Note_on_c, 6, 78, 80
10, 64259, Note_on_c, 6, 78, 0
10, 64260, Note_on_c, 6, 76, 80
10, 64289, Note_on_c, 6, 76, 0
10, 64290, Note_on_c, 6, 74, 80
10, 64319, Note_on_c, 6, 74, 0
10, 64320, Note_on_c, 6, 73, 80
10, 64349, Note_on_c, 6, 73, 0
10, 64350, Note_on_c, 6, 71, 80
10, 64379, Note_on_c, 6, 71, 0
10, 64380, Note_on_c, 6, 69, 80
10, 64409, Note_on_c, 6, 69, 0
10, 64410, Note_on_c, 6, 67, 80
10, 64439, Note_on_c, 6, 67, 0
10, 64440, Note_on_c, 6, 66, 80
10, 64499, Note_on_c, 6, 66, 0
10, 64590, Note_on_c, 6, 76, 80
10, 64619, Note_on_c, 6, 76, 0
10, 64620, Note_on_c, 6, 74, 80
10, 64649, Note_on_c, 6, 74, 0
10, 64650, Note_on_c, 6, 73, 80
10, 64679, Note_on_c, 6, 73, 0
10, 64680, Note_on_c, 6, 71, 80
10, 64709, Note_on_c, 6, 71, 0
10, 64710, Note_on_c, 6, 69, 80
10, 64739, Note_on_c, 6, 69, 0
10, 64740, Note_on_c, 6, 68, 80
10, 64769, Note_on_c, 6, 68, 0
10, 64770, Note_on_c, 6, 66, 80
10, 64799, Note_on_c, 6, 66, 0
10, 64800, Note_on_c, 6, 68, 80
10, 64859, Note_on_c, 6, 68, 0
10, 64950, Note_on_c, 6, 76, 80
10, 64979, Note_on_c, 6, 76, 0
10, 64980, Note_on_c, 6, 74, 80
10, 65009, Note_on_c, 6, 74, 0
10, 65010, Note_on_c, 6, 72, 80
10, 65039, Note_on_c, 6, 72, 0
10, 65040, Note_on_c, 6, 71, 80
10, 65069, Note_on_c, 6, 71, 0
10, 65070, Note_on_c, 6, 69, 80
10, 65099, Note_on_c, 6, 69, 0
10, 65100, Note_on_c, 6, 68, 80
10, 65129, Note_on_c, 6, 68, 0
10, 65130, Note_on_c, 6, 66, 80
10, 65159, Note_on_c, 6, 66, 0
10, 65160, Note_on_c, 6, 64, 80
10, 65220, Note_on_c, 6, 64, 0
10, 65310, Note_on_c, 6, 73, 80
10, 65339, Note_on_c, 6, 73, 0
10, 65340, Note_on_c, 6, 71, 80
10, 65369, Note_on_c, 6, 71, 0
10, 65370, Note_on_c, 6, 69, 80
10, 65399, Note_on_c, 6, 69, 0
10, 65400, Note_on_c, 6, 68, 80
10, 65429, Note_on_c, 6, 68, 0
10, 65430, Note_on_c, 6, 66, 80
10, 65459, Note_on_c, 6, 66, 0
10, 65460, Note_on_c, 6, 64, 80
10, 65489, Note_on_c, 6, 64, 0
10, 65490, Note_on_c, 6, 62, 80
10, 65519, Note_on_c, 6, 62, 0
10, 65520, Note_on_c, 6, 69, 80
10, 65579, Note_on_c, 6, 69, 0
10, 65640, Note_on_c, 6, 76, 80
10, 65699, Note_on_c, 6, 76, 0
10, 65700, Note_on_c, 6, 73, 80
10, 65759, Note_on_c, 6, 73, 0
10, 66000, Note_on_c, 6, 78, 80
10, 66059, Note_on_c, 6, 78, 0
10, 66060, Note_on_c, 6, 74, 80
10, 66119, Note_on_c, 6, 74, 0
10, 66360, Note_on_c, 6, 76, 80
10, 66419, Note_on_c, 6, 76, 0
10, 66420, Note_on_c, 6, 73, 80
10, 66479, Note_on_c, 6, 73, 0
10, 66630, Note_on_c, 6, 66, 80
10, 66659, Note_on_c, 6, 66, 0
10, 66660, Note_on_c, 6, 67, 80
10, 66689, Note_on_c, 6, 67, 0
10, 66690, Note_on_c, 6, 69, 80
10, 66719, Note_on_c, 6, 69, 0
10, 66720, Note_on_c, 6, 71, 80
10, 66749, Note_on_c, 6, 71, 0
10, 66750, Note_on_c, 6, 73, 80
10, 66779, Note_on_c, 6, 73, 0
10, 66780, Note_on_c, 6, 74, 80
10, 66809, Note_on_c, 6, 74, 0
10, 66810, Note_on_c, 6, 76, 80
10, 66839, Note_on_c, 6, 76, 0
10, 66840, Note_on_c, 6, 78, 80
10, 66869, Note_on_c, 6, 78, 0
10, 66870, Note_on_c, 6, 76, 80
10, 66899, Note_on_c, 6, 76, 0
10, 66900, Note_on_c, 6, 78, 80
10, 66929, Note_on_c, 6, 78, 0
10, 66930, Note_on_c, 6, 76, 80
10, 66959, Note_on_c, 6, 76, 0
10, 66960, Note_on_c, 6, 78, 80
10, 66989, Note_on_c, 6, 78, 0
10, 66990, Note_on_c, 6, 74, 80
10, 67019, Note_on_c, 6, 74, 0
10, 67020, Note_on_c, 6, 76, 80
10, 67049, Note_on_c, 6, 76, 0
10, 67050, Note_on_c, 6, 78, 80
10, 67079, Note_on_c, 6, 78, 0
10, 67080, Note_on_c, 6, 79, 80
10, 67109, Note_on_c, 6, 79, 0
10, 67110, Note_on_c, 6, 81, 80
10, 67139, Note_on_c, 6, 81, 0
10, 67140, Note_on_c, 6, 83, 80
10, 67169, Note_on_c, 6, 83, 0
10, 67170, Note_on_c, 6, 85, 80
10, 67199, Note_on_c, 6, 85, 0
10, 67200, Note_on_c, 6, 86, 80
10, 67229, Note_on_c, 6, 86, 0
10, 67230, Note_on_c, 6, 85, 80
10, 67259, Note_on_c, 6, 85, 0
10, 67260, Note_on_c, 6, 86, 80
10, 67289, Note_on_c, 6, 86, 0
10, 67290, Note_on_c, 6, 85, 80
10, 67319, Note_on_c, 6, 85, 0
10, 67320, Note_on_c, 6, 83, 80
10, 67349, Note_on_c, 6, 83, 0
10, 67350, Note_on_c, 6, 81, 80
10, 67379, Note_on_c, 6, 81, 0
10, 67380, Note_on_c, 6, 83, 80
10, 67409, Note_on_c, 6, 83, 0
10, 67410, Note_on_c, 6, 81, 80
10, 67439, Note_on_c, 6, 81, 0
10, 67440, Note_on_c, 6, 79, 80
10, 67469, Note_on_c, 6, 79, 0
10, 67470, Note_on_c, 6, 78, 80
10, 67499, Note_on_c, 6, 78, 0
10, 67500, Note_on_c, 6, 79, 80
10, 67529, Note_on_c, 6, 79, 0
10, 67530, Note_on_c, 6, 78, 80
10, 67559, Note_on_c, 6, 78, 0
10, 67560, Note_on_c, 6, 76, 80
10, 67589, Note_on_c, 6, 76, 0
10, 67590, Note_on_c, 6, 74, 80
10, 67619, Note_on_c, 6, 74, 0
10, 67620, Note_on_c, 6, 76, 80
10, 67649, Note_on_c, 6, 76, 0
10, 67650, Note_on_c, 6, 74, 80
10, 67679, Note_on_c, 6, 74, 0
10, 67680, Note_on_c, 6, 79, 80
10, 67739, Note_on_c, 6, 79, 0
10, 67740, Note_on_c, 6, 81, 80
10, 67769, Note_on_c, 6, 81, 0
10, 67770, Note_on_c, 6, 79, 80
10, 67799, Note_on_c, 6, 79, 0
10, 67800, Note_on_c, 6, 78, 80
10, 67829, Note_on_c, 6, 78, 0
10, 67830, Note_on_c, 6, 76, 80
10, 67859, Note_on_c, 6, 76, 0
10, 67860, Note_on_c, 6, 74, 80
10, 67889, Note_on_c, 6, 74, 0
10, 67890, Note_on_c, 6, 76, 80
10, 67919, Note_on_c, 6, 76, 0
10, 67920, Note_on_c, 6, 76, 80
10, 68010, Note_on_c, 6, 76, 0
10, 68010, Note_on_c, 6, 74, 80
10, 68040, Note_on_c, 6, 74, 0
10, 68040, Note_on_c, 6, 74, 80
10, 68159, Note_on_c, 6, 74, 0
10, 68160, Note_on_c, 6, 78, 80
10, 68219, Note_on_c, 6, 78, 0
10, 68220, Note_on_c, 6, 74, 80
10, 68279, Note_on_c, 6, 74, 0
10, 68520, Note_on_c, 6, 74, 80
10, 68579, Note_on_c, 6, 74, 0
10, 68580, Note_on_c, 6, 71, 80
10, 68639, Note_on_c, 6, 71, 0
10, 68880, Note_on_c, 6, 74, 80
10, 68939, Note_on_c, 6, 74, 0
10, 68940, Note_on_c, 6, 69, 80
10, 68999, Note_on_c, 6, 69, 0
10, 69120, Note_on_c, 6, 83, 80
10, 69149, Note_on_c, 6, 83, 0
10, 69150, Note_on_c, 6, 81, 80
10, 69179, Note_on_c, 6, 81, 0
10, 69180, Note_on_c, 6, 83, 80
10, 69209, Note_on_c, 6, 83, 0
10, 69210, Note_on_c, 6, 81, 80
10, 69239, Note_on_c, 6, 81, 0
10, 69240, Note_on_c, 6, 79, 80
10, 69269, Note_on_c, 6, 79, 0
10, 69270, Note_on_c, 6, 78, 80
10, 69299, Note_on_c, 6, 78, 0
10, 69300, Note_on_c, 6, 79, 80
10, 69329, Note_on_c, 6, 79, 0
10, 69330, Note_on_c, 6, 78, 80
10, 69359, Note_on_c, 6, 78, 0
10, 69360, Note_on_c, 6, 76, 80
10, 69389, Note_on_c, 6, 76, 0
10, 69390, Note_on_c, 6, 74, 80
10, 69419, Note_on_c, 6, 74, 0
10, 69420, Note_on_c, 6, 76, 80
10, 69449, Note_on_c, 6, 76, 0
10, 69450, Note_on_c, 6, 74, 80
10, 69479, Note_on_c, 6, 74, 0
10, 69480, Note_on_c, 6, 79, 80
10, 69539, Note_on_c, 6, 79, 0
10, 69540, Note_on_c, 6, 81, 80
10, 69569, Note_on_c, 6, 81, 0
10, 69570, Note_on_c, 6, 79, 80
10, 69599, Note_on_c, 6, 79, 0
10, 69600, Note_on_c, 6, 78, 80
10, 69629, Note_on_c, 6, 78, 0
10, 69630, Note_on_c, 6, 76, 80
10, 69659, Note_on_c, 6, 76, 0
10, 69660, Note_on_c, 6, 74, 80
10, 69689, Note_on_c, 6, 74, 0
10, 69690, Note_on_c, 6, 76, 80
10, 69719, Note_on_c, 6, 76, 0
10, 69720, Note_on_c, 6, 76, 80
10, 69809, Note_on_c, 6, 76, 0
10, 69810, Note_on_c, 6, 74, 80
10, 69839, Note_on_c, 6, 74, 0
10, 69840, Note_on_c, 6, 74, 80
10, 69959, Note_on_c, 6, 74, 0
10, 70560, Note_on_c, 6, 79, 90
10, 70679, Note_on_c, 6, 79, 0
10, 71280, Note_on_c, 6, 84, 90
10, 71399, Note_on_c, 6, 84, 0
10, 71760, Note_on_c, 6, 78, 90
10, 71879, Note_on_c, 6, 78, 0
10, 72240, Note_on_c, 6, 78, 90
10, 72359, Note_on_c, 6, 78, 0
10, 72720, Note_on_c, 6, 76, 90
10, 72839, Note_on_c, 6, 76, 0
10, 72960, Note_on_c, 6, 76, 90
10, 73079, Note_on_c, 6, 76, 0
10, 73320, Note_on_c, 6, 78, 90
10, 73439, Note_on_c, 6, 78, 0
10, 73440, Note_on_c, 6, 79, 90
10, 73559, Note_on_c, 6, 79, 0
10, 73710, Note_on_c, 6, 81, 90
10, 73739, Note_on_c, 6, 81, 0
10, 73740, Note_on_c, 6, 81, 90
10, 73769, Note_on_c, 6, 81, 0
10, 73770, Note_on_c, 6, 81, 90
10, 73799, Note_on_c, 6, 81, 0
10, 73800, Note_on_c, 6, 81, 90
10, 73859, Note_on_c, 6, 81, 0
10, 74190, Note_on_c, 6, 81, 90
10, 74219, Note_on_c, 6, 81, 0
10, 74220, Note_on_c, 6, 81, 90
10, 74249, Note_on_c, 6, 81, 0
10, 74250, Note_on_c, 6, 81, 90
10, 74279, Note_on_c, 6, 81, 0
10, 74280, Note_on_c, 6, 81, 90
10, 74339, Note_on_c, 6, 81, 0
10, 74670, Note_on_c, 6, 73, 90
10, 74699, Note_on_c, 6, 73, 0
10, 74700, Note_on_c, 6, 73, 90
10, 74729, Note_on_c, 6, 73, 0
10, 74730, Note_on_c, 6, 73, 90
10, 74759, Note_on_c, 6, 73, 0
10, 74760, Note_on_c, 6, 73, 90
10, 74819, Note_on_c, 6, 73, 0
10, 74910, Note_on_c, 6, 71, 90
10, 74939, Note_on_c, 6, 71, 0
10, 74940, Note_on_c, 6, 71, 90
10, 74969, Note_on_c, 6, 71, 0
10, 74970, Note_on_c, 6, 74, 90
10, 74999, Note_on_c, 6, 74, 0
10, 75000, Note_on_c, 6, 78, 90
10, 75029, Note_on_c, 6, 78, 0
10, 75030, Note_on_c, 6, 74, 90
10, 75059, Note_on_c, 6, 74, 0
10, 75060, Note_on_c, 6, 78, 90
10, 75089, Note_on_c, 6, 78, 0
10, 75090, Note_on_c, 6, 83, 90
10, 75119, Note_on_c, 6, 83, 0
10, 75120, Note_on_c, 6, 83, 90
10, 75179, Note_on_c, 6, 83, 0
10, 75360, Note_on_c, 6, 83, 90
10, 75419, Note_on_c, 6, 83, 0
10, 75600, Note_on_c, 6, 76, 90
10, 75719, Note_on_c, 6, 76, 0
10, 76080, Note_on_c, 6, 81, 90
10, 76199, Note_on_c, 6, 81, 0
10, 76320, Note_on_c, 6, 77, 90
10, 76439, Note_on_c, 6, 77, 0
10, 76590, Note_on_c, 6, 74, 90
10, 76619, Note_on_c, 6, 74, 0
10, 76620, Note_on_c, 6, 78, 90
10, 76649, Note_on_c, 6, 78, 0
10, 76650, Note_on_c, 6, 81, 90
10, 76679, Note_on_c, 6, 81, 0
10, 76680, Note_on_c, 6, 85, 90
10, 76709, Note_on_c, 6, 85, 0
10, 76710, Note_on_c, 6, 81, 90
10, 76739, Note_on_c, 6, 81, 0
10, 76740, Note_on_c, 6, 76, 90
10, 76769, Note_on_c, 6, 76, 0
10, 76770, Note_on_c, 6, 81, 90
10, 76799, Note_on_c, 6, 81, 0
10, 76800, Note_on_c, 6, 81, 90
10, 76829, Note_on_c, 6, 81, 0
10, 76830, Note_on_c, 6, 81, 90
10, 76859, Note_on_c, 6, 81, 0
10, 76860, Note_on_c, 6, 78, 90
10, 76889, Note_on_c, 6, 78, 0
10, 76890, Note_on_c, 6, 78, 90
10, 76919, Note_on_c, 6, 78, 0
10, 76920, Note_on_c, 6, 78, 90
10, 76949, Note_on_c, 6, 78, 0
10, 76950, Note_on_c, 6, 78, 90
10, 76979, Note_on_c, 6, 78, 0
10, 76980, Note_on_c, 6, 74, 90
10, 77009, Note_on_c, 6, 74, 0
10, 77010, Note_on_c, 6, 74, 90
10, 77039, Note_on_c, 6, 74, 0
10, 77040, Note_on_c, 6, 78, 90
10, 77159, Note_on_c, 6, 78, 0
10, 77310, Note_on_c, 6, 80, 90
10, 77339, Note_on_c, 6, 80, 0
10, 77340, Note_on_c, 6, 80, 90
10, 77369, Note_on_c, 6, 80, 0
10, 77370, Note_on_c, 6, 80, 90
10, 77399, Note_on_c, 6, 80, 0
10, 77400, Note_on_c, 6, 80, 90
10, 77429, Note_on_c, 6, 80, 0
10, 77430, Note_on_c, 6, 83, 90
10, 77459, Note_on_c, 6, 83, 0
10, 77460, Note_on_c, 6, 83, 90
10, 77489, Note_on_c, 6, 83, 0
10, 77490, Note_on_c, 6, 83, 90
10, 77519, Note_on_c, 6, 83, 0
10, 77520, Note_on_c, 6, 83, 90
10, 77579, Note_on_c, 6, 83, 0
10, 77790, Note_on_c, 6, 81, 90
10, 77819, Note_on_c, 6, 81, 0
10, 77820, Note_on_c, 6, 81, 90
10, 77849, Note_on_c, 6, 81, 0
10, 77850, Note_on_c, 6, 81, 90
10, 77879, Note_on_c, 6, 81, 0
10, 77880, Note_on_c, 6, 81, 90
10, 77909, Note_on_c, 6, 81, 0
10, 77910, Note_on_c, 6, 81, 90
10, 77939, Note_on_c, 6, 81, 0
10, 77940, Note_on_c, 6, 81, 90
10, 77969, Note_on_c, 6, 81, 0
10, 77970, Note_on_c, 6, 81, 90
10, 77999, Note_on_c, 6, 81, 0
10, 78000, Note_on_c, 6, 83, 90
10, 78059, Note_on_c, 6, 83, 0
10, 78270, Note_on_c, 6, 76, 90
10, 78299, Note_on_c, 6, 76, 0
10, 78300, Note_on_c, 6, 76, 90
10, 78329, Note_on_c, 6, 76, 0
10, 78330, Note_on_c, 6, 76, 90
10, 78359, Note_on_c, 6, 76, 0
10, 78360, Note_on_c, 6, 76, 90
10, 78389, Note_on_c, 6, 76, 0
10, 78390, Note_on_c, 6, 71, 90
10, 78419, Note_on_c, 6, 71, 0
10, 78420, Note_on_c, 6, 71, 90
10, 78449, Note_on_c, 6, 71, 0
10, 78450, Note_on_c, 6, 71, 90
10, 78479, Note_on_c, 6, 71, 0
10, 78480, Note_on_c, 6, 73, 90
10, 78509, Note_on_c, 6, 73, 0
10, 78510, Note_on_c, 6, 64, 90
10, 78524, Note_on_c, 6, 64, 0
10, 78525, Note_on_c, 6, 69, 90
10, 78539, Note_on_c, 6, 69, 0
10, 78540, Note_on_c, 6, 73, 90
10, 78569, Note_on_c, 6, 73, 0
10, 78570, Note_on_c, 6, 69, 90
10, 78584, Note_on_c, 6, 69, 0
10, 78585, Note_on_c, 6, 73, 90
10, 78599, Note_on_c, 6, 73, 0
10, 78600, Note_on_c, 6, 76, 90
10, 78629, Note_on_c, 6, 76, 0
10, 78630, Note_on_c, 6, 73, 90
10, 78644, Note_on_c, 6, 73, 0
10, 78645, Note_on_c, 6, 76, 90
10, 78659, Note_on_c, 6, 76, 0
10, 78660, Note_on_c, 6, 81, 90
10, 78689, Note_on_c, 6, 81, 0
10, 78690, Note_on_c, 6, 76, 90
10, 78704, Note_on_c, 6, 76, 0
10, 78705, Note_on_c, 6, 81, 90
10, 78719, Note_on_c, 6, 81, 0
10, 78720, Note_on_c, 6, 85, 90
10, 78839, Note_on_c, 6, 85, 0
10, 78990, Note_on_c, 6, 78, 90
10, 79019, Note_on_c, 6, 78, 0
10, 79020, Note_on_c, 6, 78, 90
10, 79049, Note_on_c, 6, 78, 0
10, 79050, Note_on_c, 6, 78, 90
10, 79079, Note_on_c, 6, 78, 0
10, 79080, Note_on_c, 6, 78, 90
10, 79139, Note_on_c, 6, 78, 0
10, 79470, Note_on_c, 6, 78, 90
10, 79499, Note_on_c, 6, 78, 0
10, 79500, Note_on_c, 6, 78, 90
10, 79529, Note_on_c, 6, 78, 0
10, 79530, Note_on_c, 6, 78, 90
10, 79559, Note_on_c, 6, 78, 0
10, 79560, Note_on_c, 6, 78, 90
10, 79589, Note_on_c, 6, 78, 0
10, 79590, Note_on_c, 6, 83, 90
10, 79619, Note_on_c, 6, 83, 0
10, 79620, Note_on_c, 6, 83, 90
10, 79649, Note_on_c, 6, 83, 0
10, 79650, Note_on_c, 6, 83, 90
10, 79679, Note_on_c, 6, 83, 0
10, 79680, Note_on_c, 6, 84, 90
10, 79739, Note_on_c, 6, 84, 0
10, 79935, Note_on_c, 6, 64, 90
10, 79949, Note_on_c, 6, 64, 0
10, 79950, Note_on_c, 6, 66, 90
10, 79964, Note_on_c, 6, 66, 0
10, 79965, Note_on_c, 6, 68, 90
10, 79979, Note_on_c, 6, 68, 0
10, 79980, Note_on_c, 6, 69, 90
10, 79994, Note_on_c, 6, 69, 0
10, 79995, Note_on_c, 6, 71, 90
10, 80009, Note_on_c, 6, 71, 0
10, 80010, Note_on_c, 6, 73, 90
10, 80024, Note_on_c, 6, 73, 0
10, 80025, Note_on_c, 6, 74, 90
10, 80039, Note_on_c, 6, 74, 0
10, 80040, Note_on_c, 6, 76, 90
10, 80099, Note_on_c, 6, 76, 0
10, 80430, Note_on_c, 6, 74, 90
10, 80459, Note_on_c, 6, 74, 0
10, 80460, Note_on_c, 6, 74, 90
10, 80489, Note_on_c, 6, 74, 0
10, 80490, Note_on_c, 6, 74, 90
10, 80519, Note_on_c, 6, 74, 0
10, 80520, Note_on_c, 6, 74, 90
10, 80579, Note_on_c, 6, 74, 0
10, 80910, Note_on_c, 6, 73, 90
10, 80939, Note_on_c, 6, 73, 0
10, 80940, Note_on_c, 6, 73, 90
10, 80969, Note_on_c, 6, 73, 0
10, 80970, Note_on_c, 6, 73, 90
10, 80999, Note_on_c, 6, 73, 0
10, 81000, Note_on_c, 6, 73, 90
10, 81059, Note_on_c, 6, 73, 0
10, 82500, Note_on_c, 6, 64, 90
10, 82559, Note_on_c, 6, 64, 0
10, 82560, Note_on_c, 6, 69, 90
10, 82619, Note_on_c, 6, 69, 0
10, 82620, Note_on_c, 6, 69, 90
10, 82679, Note_on_c, 6, 69, 0
10, 82680, Note_on_c, 6, 69, 90
10, 82739, Note_on_c, 6, 69, 0
10, 82740, Note_on_c, 6, 69, 90
10, 82799, Note_on_c, 6, 69, 0
10, 82800, Note_on_c, 6, 69, 90
10, 82859, Note_on_c, 6, 69, 0
10, 82860, Note_on_c, 6, 64, 90
10, 82889, Note_on_c, 6, 64, 0
10, 82890, Note_on_c, 6, 69, 90
10, 82919, Note_on_c, 6, 69, 0
10, 82920, Note_on_c, 6, 73, 90
10, 82949, Note_on_c, 6, 73, 0
10, 82950, Note_on_c, 6, 71, 90
10, 82979, Note_on_c, 6, 71, 0
10, 82980, Note_on_c, 6, 69, 90
10, 83009, Note_on_c, 6, 69, 0
10, 83010, Note_on_c, 6, 68, 90
10, 83039, Note_on_c, 6, 68, 0
10, 83040, Note_on_c, 6, 69, 90
10, 83099, Note_on_c, 6, 69, 0
10, 83100, Note_on_c, 6, 64, 90
10, 83129, Note_on_c, 6, 64, 0
10, 83130, Note_on_c, 6, 69, 90
10, 83159, Note_on_c, 6, 69, 0
10, 83160, Note_on_c, 6, 74, 90
10, 83189, Note_on_c, 6, 74, 0
10, 83190, Note_on_c, 6, 73, 90
10, 83219, Note_on_c, 6, 73, 0
10, 83220, Note_on_c, 6, 71, 90
10, 83249, Note_on_c, 6, 71, 0
10, 83250, Note_on_c, 6, 69, 90
10, 83279, Note_on_c, 6, 69, 0
10, 83280, Note_on_c, 6, 71, 90
10, 83339, Note_on_c, 6, 71, 0
10, 83340, Note_on_c, 6, 64, 90
10, 83369, Note_on_c, 6, 64, 0
10, 83370, Note_on_c, 6, 71, 90
10, 83399, Note_on_c, 6, 71, 0
10, 83400, Note_on_c, 6, 76, 90
10, 83429, Note_on_c, 6, 76, 0
10, 83430, Note_on_c, 6, 74, 90
10, 83459, Note_on_c, 6, 74, 0
10, 83460, Note_on_c, 6, 73, 90
10, 83489, Note_on_c, 6, 73, 0
10, 83490, Note_on_c, 6, 71, 90
10, 83519, Note_on_c, 6, 71, 0
10, 83520, Note_on_c, 6, 73, 90
10, 83579, Note_on_c, 6, 73, 0
10, 83580, Note_on_c, 6, 71, 90
10, 83609, Note_on_c, 6, 71, 0
10, 83610, Note_on_c, 6, 73, 90
10, 83639, Note_on_c, 6, 73, 0
10, 83640, Note_on_c, 6, 69, 90
10, 83699, Note_on_c, 6, 69, 0
10, 83700, Note_on_c, 6, 73, 90
10, 83759, Note_on_c, 6, 73, 0
10, 83760, Note_on_c, 6, 71, 90
10, 83819, Note_on_c, 6, 71, 0
10, 83820, Note_on_c, 6, 71, 90
10, 83879, Note_on_c, 6, 71, 0
10, 83880, Note_on_c, 6, 71, 90
10, 83939, Note_on_c, 6, 71, 0
10, 83940, Note_on_c, 6, 71, 90
10, 83999, Note_on_c, 6, 71, 0
10, 84000, Note_on_c, 6, 71, 90
10, 84059, Note_on_c, 6, 71, 0
10, 84060, Note_on_c, 6, 73, 90
10, 84089, Note_on_c, 6, 73, 0
10, 84090, Note_on_c, 6, 75, 90
10, 84119, Note_on_c, 6, 75, 0
10, 84120, Note_on_c, 6, 76, 90
10, 84149, Note_on_c, 6, 76, 0
10, 84150, Note_on_c, 6, 78, 90
10, 84179, Note_on_c, 6, 78, 0
10, 84180, Note_on_c, 6, 80, 90
10, 84209, Note_on_c, 6, 80, 0
10, 84210, Note_on_c, 6, 76, 90
10, 84239, Note_on_c, 6, 76, 0
10, 84240, Note_on_c, 6, 69, 90
10, 84299, Note_on_c, 6, 69, 0
10, 84300, Note_on_c, 6, 71, 90
10, 84329, Note_on_c, 6, 71, 0
10, 84330, Note_on_c, 6, 73, 90
10, 84359, Note_on_c, 6, 73, 0
10, 84360, Note_on_c, 6, 75, 90
10, 84389, Note_on_c, 6, 75, 0
10, 84390, Note_on_c, 6, 76, 90
10, 84419, Note_on_c, 6, 76, 0
10, 84420, Note_on_c, 6, 78, 90
10, 84449, Note_on_c, 6, 78, 0
10, 84450, Note_on_c, 6, 75, 90
10, 84479, Note_on_c, 6, 75, 0
10, 84480, Note_on_c, 6, 76, 90
10, 84539, Note_on_c, 6, 76, 0
10, 84540, Note_on_c, 6, 71, 90
10, 84599, Note_on_c, 6, 71, 0
10, 84600, Note_on_c, 6, 68, 90
10, 84659, Note_on_c, 6, 68, 0
10, 84660, Note_on_c, 6, 66, 90
10, 84689, Note_on_c, 6, 66, 0
10, 84690, Note_on_c, 6, 64, 90
10, 84719, Note_on_c, 6, 64, 0
10, 84720, Note_on_c, 6, 64, 90
10, 84839, Note_on_c, 6, 64, 0
10, 84870, Note_on_c, 6, 66, 90
10, 84899, Note_on_c, 6, 66, 0
10, 84900, Note_on_c, 6, 68, 90
10, 84929, Note_on_c, 6, 68, 0
10, 84930, Note_on_c, 6, 69, 90
10, 84959, Note_on_c, 6, 69, 0
10, 84960, Note_on_c, 6, 71, 90
10, 85019, Note_on_c, 6, 71, 0
10, 85020, Note_on_c, 6, 73, 90
10, 85079, Note_on_c, 6, 73, 0
10, 85080, Note_on_c, 6, 71, 90
10, 85139, Note_on_c, 6, 71, 0
10, 85140, Note_on_c, 6, 69, 90
10, 85199, Note_on_c, 6, 69, 0
10, 85200, Note_on_c, 6, 71, 90
10, 85259, Note_on_c, 6, 71, 0
10, 85260, Note_on_c, 6, 69, 90
10, 85289, Note_on_c, 6, 69, 0
10, 85290, Note_on_c, 6, 71, 90
10, 85319, Note_on_c, 6, 71, 0
10, 85320, Note_on_c, 6, 68, 90
10, 85349, Note_on_c, 6, 68, 0
10, 85350, Note_on_c, 6, 69, 90
10, 85379, Note_on_c, 6, 69, 0
10, 85380, Note_on_c, 6, 71, 90
10, 85409, Note_on_c, 6, 71, 0
10, 85410, Note_on_c, 6, 73, 90
10, 85439, Note_on_c, 6, 73, 0
10, 85440, Note_on_c, 6, 74, 90
10, 85499, Note_on_c, 6, 74, 0
10, 85500, Note_on_c, 6, 69, 90
10, 85529, Note_on_c, 6, 69, 0
10, 85530, Note_on_c, 6, 74, 90
10, 85559, Note_on_c, 6, 74, 0
10, 85560, Note_on_c, 6, 78, 90
10, 85589, Note_on_c, 6, 78, 0
10, 85590, Note_on_c, 6, 76, 90
10, 85619, Note_on_c, 6, 76, 0
10, 85620, Note_on_c, 6, 74, 90
10, 85649, Note_on_c, 6, 74, 0
10, 85650, Note_on_c, 6, 73, 90
10, 85679, Note_on_c, 6, 73, 0
10, 85680, Note_on_c, 6, 74, 90
10, 85739, Note_on_c, 6, 74, 0
10, 85740, Note_on_c, 6, 69, 90
10, 85769, Note_on_c, 6, 69, 0
10, 85770, Note_on_c, 6, 74, 90
10, 85799, Note_on_c, 6, 74, 0
10, 85800, Note_on_c, 6, 78, 90
10, 85829, Note_on_c, 6, 78, 0
10, 85830, Note_on_c, 6, 76, 90
10, 85859, Note_on_c, 6, 76, 0
10, 85860, Note_on_c, 6, 74, 90
10, 85889, Note_on_c, 6, 74, 0
10, 85890, Note_on_c, 6, 73, 90
10, 85919, Note_on_c, 6, 73, 0
10, 85920, Note_on_c, 6, 74, 90
10, 85979, Note_on_c, 6, 74, 0
10, 85980, Note_on_c, 6, 64, 90
10, 86009, Note_on_c, 6, 64, 0
10, 86010, Note_on_c, 6, 73, 90
10, 86039, Note_on_c, 6, 73, 0
10, 86040, Note_on_c, 6, 74, 90
10, 86069, Note_on_c, 6, 74, 0
10, 86070, Note_on_c, 6, 73, 90
10, 86099, Note_on_c, 6, 73, 0
10, 86100, Note_on_c, 6, 71, 90
10, 86129, Note_on_c, 6, 71, 0
10, 86130, Note_on_c, 6, 69, 90
10, 86159, Note_on_c, 6, 69, 0
10, 86160, Note_on_c, 6, 71, 90
10, 86219, Note_on_c, 6, 71, 0
10, 86220, Note_on_c, 6, 64, 90
10, 86249, Note_on_c, 6, 64, 0
10, 86250, Note_on_c, 6, 74, 90
10, 86279, Note_on_c, 6, 74, 0
10, 86280, Note_on_c, 6, 76, 90
10, 86309, Note_on_c, 6, 76, 0
10, 86310, Note_on_c, 6, 74, 90
10, 86339, Note_on_c, 6, 74, 0
10, 86340, Note_on_c, 6, 73, 90
10, 86369, Note_on_c, 6, 73, 0
10, 86370, Note_on_c, 6, 71, 90
10, 86399, Note_on_c, 6, 71, 0
10, 86400, Note_on_c, 6, 74, 90
10, 86429, Note_on_c, 6, 74, 0
10, 86430, Note_on_c, 6, 73, 90
10, 86459, Note_on_c, 6, 73, 0
10, 86460, Note_on_c, 6, 71, 90
10, 86489, Note_on_c, 6, 71, 0
10, 86490, Note_on_c, 6, 69, 90
10, 86519, Note_on_c, 6, 69, 0
10, 86520, Note_on_c, 6, 71, 90
10, 86579, Note_on_c, 6, 71, 0
10, 86580, Note_on_c, 6, 68, 90
10, 86639, Note_on_c, 6, 68, 0
10, 86640, Note_on_c, 6, 69, 90
10, 86699, Note_on_c, 6, 69, 0
10, 86700, Note_on_c, 6, 73, 90
10, 86729, Note_on_c, 6, 73, 0
10, 86730, Note_on_c, 6, 74, 90
10, 86759, Note_on_c, 6, 74, 0
10, 86760, Note_on_c, 6, 76, 90
10, 86819, Note_on_c, 6, 76, 0
10, 86820, Note_on_c, 6, 78, 90
10, 86849, Note_on_c, 6, 78, 0
10, 86850, Note_on_c, 6, 80, 90
10, 86879, Note_on_c, 6, 80, 0
10, 86880, Note_on_c, 6, 81, 90
10, 86939, Note_on_c, 6, 81, 0
10, 86940, Note_on_c, 6, 69, 90
10, 86999, Note_on_c, 6, 69, 0
10, 87000, Note_on_c, 6, 64, 90
10, 87059, Note_on_c, 6, 64, 0
10, 87060, Note_on_c, 6, 68, 90
10, 87119, Note_on_c, 6, 68, 0
10, 87120, Note_on_c, 6, 69, 90
10, 87299, Note_on_c, 6, 69, 0
10, 87300, Note_on_c, 6, 64, 90
10, 87359, Note_on_c, 6, 64, 0
10, 87360, Note_on_c, 6, 69, 90
10, 87419, Note_on_c, 6, 69, 0
10, 87420, Note_on_c, 6, 69, 90
10, 87479, Note_on_c, 6, 69, 0
10, 87480, Note_on_c, 6, 69, 90
10, 87539, Note_on_c, 6, 69, 0
10, 87540, Note_on_c, 6, 69, 90
10, 87599, Note_on_c, 6, 69, 0
10, 87600, Note_on_c, 6, 69, 90
10, 87659, Note_on_c, 6, 69, 0
10, 87660, Note_on_c, 6, 64, 90
10, 87689, Note_on_c, 6, 64, 0
10, 87690, Note_on_c, 6, 69, 90
10, 87719, Note_on_c, 6, 69, 0
10, 87720, Note_on_c, 6, 73, 90
10, 87749, Note_on_c, 6, 73, 0
10, 87750, Note_on_c, 6, 71, 90
10, 87779, Note_on_c, 6, 71, 0
10, 87780, Note_on_c, 6, 69, 90
10, 87809, Note_on_c, 6, 69, 0
10, 87810, Note_on_c, 6, 68, 90
10, 87839, Note_on_c, 6, 68, 0
10, 87840, Note_on_c, 6, 69, 90
10, 87899, Note_on_c, 6, 69, 0
10, 87900, Note_on_c, 6, 64, 90
10, 87929, Note_on_c, 6, 64, 0
10, 87930, Note_on_c, 6, 69, 90
10, 87959, Note_on_c, 6, 69, 0
10, 87960, Note_on_c, 6, 74, 90
10, 87989, Note_on_c, 6, 74, 0
10, 87990, Note_on_c, 6, 73, 90
10, 88019, Note_on_c, 6, 73, 0
10, 88020, Note_on_c, 6, 71, 90
10, 88049, Note_on_c, 6, 71, 0
10, 88050, Note_on_c, 6, 69, 90
10, 88079, Note_on_c, 6, 69, 0
10, 88080, Note_on_c, 6, 71, 90
10, 88139, Note_on_c, 6, 71, 0
10, 88140, Note_on_c, 6, 64, 90
10, 88169, Note_on_c, 6, 64, 0
10, 88170, Note_on_c, 6, 71, 90
10, 88199, Note_on_c, 6, 71, 0
10, 88200, Note_on_c, 6, 76, 90
10, 88229, Note_on_c, 6, 76, 0
10, 88230, Note_on_c, 6, 74, 90
10, 88259, Note_on_c, 6, 74, 0
10, 88260, Note_on_c, 6, 73, 90
10, 88289, Note_on_c, 6, 73, 0
10, 88290, Note_on_c, 6, 71, 90
10, 88319, Note_on_c, 6, 71, 0
10, 88320, Note_on_c, 6, 73, 90
10, 88379, Note_on_c, 6, 73, 0
10, 88380, Note_on_c, 6, 71, 90
10, 88409, Note_on_c, 6, 71, 0
10, 88410, Note_on_c, 6, 73, 90
10, 88439, Note_on_c, 6, 73, 0
10, 88440, Note_on_c, 6, 69, 90
10, 88469, Note_on_c, 6, 69, 0
10, 88470, Note_on_c, 6, 71, 90
10, 88499, Note_on_c, 6, 71, 0
10, 88500, Note_on_c, 6, 73, 90
10, 88529, Note_on_c, 6, 73, 0
10, 88530, Note_on_c, 6, 74, 90
10, 88559, Note_on_c, 6, 74, 0
10, 88560, Note_on_c, 6, 76, 90
10, 88619, Note_on_c, 6, 76, 0
10, 88620, Note_on_c, 6, 76, 90
10, 88679, Note_on_c, 6, 76, 0
10, 88680, Note_on_c, 6, 76, 90
10, 88739, Note_on_c, 6, 76, 0
10, 88740, Note_on_c, 6, 76, 90
10, 88799, Note_on_c, 6, 76, 0
10, 88800, Note_on_c, 6, 76, 90
10, 88859, Note_on_c, 6, 76, 0
10, 88860, Note_on_c, 6, 78, 90
10, 88889, Note_on_c, 6, 78, 0
10, 88890, Note_on_c, 6, 80, 90
10, 88919, Note_on_c, 6, 80, 0
10, 88920, Note_on_c, 6, 81, 90
10, 88949, Note_on_c, 6, 81, 0
10, 88950, Note_on_c, 6, 83, 90
10, 88979, Note_on_c, 6, 83, 0
10, 88980, Note_on_c, 6, 85, 90
10, 89009, Note_on_c, 6, 85, 0
10, 89010, Note_on_c, 6, 81, 90
10, 89039, Note_on_c, 6, 81, 0
10, 89040, Note_on_c, 6, 74, 90
10, 89099, Note_on_c, 6, 74, 0
10, 89100, Note_on_c, 6, 76, 90
10, 89129, Note_on_c, 6, 76, 0
10, 89130, Note_on_c, 6, 78, 90
10, 89159, Note_on_c, 6, 78, 0
10, 89160, Note_on_c, 6, 80, 90
10, 89189, Note_on_c, 6, 80, 0
10, 89190, Note_on_c, 6, 81, 90
10, 89219, Note_on_c, 6, 81, 0
10, 89220, Note_on_c, 6, 83, 90
10, 89249, Note_on_c, 6, 83, 0
10, 89250, Note_on_c, 6, 80, 90
10, 89279, Note_on_c, 6, 80, 0
10, 89280, Note_on_c, 6, 81, 90
10, 89339, Note_on_c, 6, 81, 0
10, 89340, Note_on_c, 6, 76, 90
10, 89399, Note_on_c, 6, 76, 0
10, 89400, Note_on_c, 6, 73, 90
10, 89459, Note_on_c, 6, 73, 0
10, 89460, Note_on_c, 6, 71, 90
10, 89489, Note_on_c, 6, 71, 0
10, 89490, Note_on_c, 6, 69, 90
10, 89519, Note_on_c, 6, 69, 0
10, 89520, Note_on_c, 6, 69, 90
10, 89549, Note_on_c, 6, 69, 0
10, 89550, Note_on_c, 6, 68, 90
10, 89579, Note_on_c, 6, 68, 0
10, 89580, Note_on_c, 6, 66, 90
10, 89609, Note_on_c, 6, 66, 0
10, 89610, Note_on_c, 6, 64, 90
10, 89639, Note_on_c, 6, 64, 0
10, 89640, Note_on_c, 6, 73, 90
10, 89669, Note_on_c, 6, 73, 0
10, 89670, Note_on_c, 6, 71, 90
10, 89699, Note_on_c, 6, 71, 0
10, 89700, Note_on_c, 6, 69, 90
10, 89729, Note_on_c, 6, 69, 0
10, 89730, Note_on_c, 6, 68, 90
10, 89759, Note_on_c, 6, 68, 0
10, 89760, Note_on_c, 6, 69, 90
10, 89819, Note_on_c, 6, 69, 0
10, 89820, Note_on_c, 6, 69, 90
10, 89879, Note_on_c, 6, 69, 0
10, 89880, Note_on_c, 6, 69, 90
10, 89939, Note_on_c, 6, 69, 0
10, 89940, Note_on_c, 6, 69, 90
10, 89999, Note_on_c, 6, 69, 0
10, 90000, Note_on_c, 6, 69, 90
10, 90059, Note_on_c, 6, 69, 0
10, 90060, Note_on_c, 6, 64, 90
10, 90089, Note_on_c, 6, 64, 0
10, 90090, Note_on_c, 6, 69, 90
10, 90119, Note_on_c, 6, 69, 0
10, 90120, Note_on_c, 6, 73, 90
10, 90149, Note_on_c, 6, 73, 0
10, 90150, Note_on_c, 6, 71, 90
10, 90179, Note_on_c, 6, 71, 0
10, 90180, Note_on_c, 6, 69, 90
10, 90209, Note_on_c, 6, 69, 0
10, 90210, Note_on_c, 6, 68, 90
10, 90239, Note_on_c, 6, 68, 0
10, 90240, Note_on_c, 6, 69, 90
10, 90299, Note_on_c, 6, 69, 0
10, 90300, Note_on_c, 6, 64, 90
10, 90329, Note_on_c, 6, 64, 0
10, 90330, Note_on_c, 6, 69, 90
10, 90359, Note_on_c, 6, 69, 0
10, 90360, Note_on_c, 6, 74, 90
10, 90389, Note_on_c, 6, 74, 0
10, 90390, Note_on_c, 6, 73, 90
10, 90419, Note_on_c, 6, 73, 0
10, 90420, Note_on_c, 6, 71, 90
10, 90449, Note_on_c, 6, 71, 0
10, 90450, Note_on_c, 6, 69, 90
10, 90479, Note_on_c, 6, 69, 0
10, 90480, Note_on_c, 6, 71, 90
10, 90539, Note_on_c, 6, 71, 0
10, 90540, Note_on_c, 6, 64, 90
10, 90569, Note_on_c, 6, 64, 0
10, 90570, Note_on_c, 6, 71, 90
10, 90599, Note_on_c, 6, 71, 0
10, 90600, Note_on_c, 6, 76, 90
10, 90629, Note_on_c, 6, 76, 0
10, 90630, Note_on_c, 6, 74, 90
10, 90659, Note_on_c, 6, 74, 0
10, 90660, Note_on_c, 6, 73, 90
10, 90689, Note_on_c, 6, 73, 0
10, 90690, Note_on_c, 6, 71, 90
10, 90719, Note_on_c, 6, 71, 0
10, 90720, Note_on_c, 6, 73, 90
10, 90779, Note_on_c, 6, 73, 0
10, 90780, Note_on_c, 6, 71, 90
10, 90809, Note_on_c, 6, 71, 0
10, 90810, Note_on_c, 6, 73, 90
10, 90839, Note_on_c, 6, 73, 0
10, 90840, Note_on_c, 6, 69, 90
10, 90899, Note_on_c, 6, 69, 0
10, 90900, Note_on_c, 6, 73, 90
10, 90959, Note_on_c, 6, 73, 0
10, 90960, Note_on_c, 6, 71, 90
10, 91019, Note_on_c, 6, 71, 0
10, 91020, Note_on_c, 6, 71, 90
10, 91079, Note_on_c, 6, 71, 0
10, 91080, Note_on_c, 6, 71, 90
10, 91139, Note_on_c, 6, 71, 0
10, 91140, Note_on_c, 6, 71, 90
10, 91199, Note_on_c, 6, 71, 0
10, 91200, Note_on_c, 6, 71, 90
10, 91259, Note_on_c, 6, 71, 0
10, 91260, Note_on_c, 6, 73, 90
10, 91289, Note_on_c, 6, 73, 0
10, 91290, Note_on_c, 6, 75, 90
10, 91319, Note_on_c, 6, 75, 0
10, 91320, Note_on_c, 6, 76, 90
10, 91349, Note_on_c, 6, 76, 0
10, 91350, Note_on_c, 6, 78, 90
10, 91379, Note_on_c, 6, 78, 0
10, 91380, Note_on_c, 6, 80, 90
10, 91409, Note_on_c, 6, 80, 0
10, 91410, Note_on_c, 6, 76, 90
10, 91439, Note_on_c, 6, 76, 0
10, 91440, Note_on_c, 6, 69, 90
10, 91499, Note_on_c, 6, 69, 0
10, 91500, Note_on_c, 6, 71, 90
10, 91529, Note_on_c, 6, 71, 0
10, 91530, Note_on_c, 6, 73, 90
10, 91559, Note_on_c, 6, 73, 0
10, 91560, Note_on_c, 6, 75, 90
10, 91589, Note_on_c, 6, 75, 0
10, 91590, Note_on_c, 6, 76, 90
10, 91619, Note_on_c, 6, 76, 0
10, 91620, Note_on_c, 6, 78, 90
10, 91649, Note_on_c, 6, 78, 0
10, 91650, Note_on_c, 6, 75, 90
10, 91679, Note_on_c, 6, 75, 0
10, 91680, Note_on_c, 6, 76, 90
10, 91739, Note_on_c, 6, 76, 0
10, 91740, Note_on_c, 6, 71, 90
10, 91799, Note_on_c, 6, 71, 0
10, 91800, Note_on_c, 6, 68, 90
10, 91859, Note_on_c, 6, 68, 0
10, 91860, Note_on_c, 6, 66, 90
10, 91889, Note_on_c, 6, 66, 0
10, 91890, Note_on_c, 6, 64, 90
10, 91919, Note_on_c, 6, 64, 0
10, 91920, Note_on_c, 6, 64, 90
10, 92039, Note_on_c, 6, 64, 0
10, 92070, Note_on_c, 6, 66, 90
10, 92099, Note_on_c, 6, 66, 0
10, 92100, Note_on_c, 6, 68, 90
10, 92129, Note_on_c, 6, 68, 0
10, 92130, Note_on_c, 6, 69, 90
10, 92159, Note_on_c, 6, 69, 0
10, 92160, Note_on_c, 6, 71, 90
10, 92219, Note_on_c, 6, 71, 0
10, 92220, Note_on_c, 6, 73, 90
10, 92279, Note_on_c, 6, 73, 0
10, 92280, Note_on_c, 6, 71, 90
10, 92339, Note_on_c, 6, 71, 0
10, 92340, Note_on_c, 6, 69, 90
10, 92399, Note_on_c, 6, 69, 0
10, 92400, Note_on_c, 6, 71, 90
10, 92459, Note_on_c, 6, 71, 0
10, 92460, Note_on_c, 6, 69, 90
10, 92489, Note_on_c, 6, 69, 0
10, 92490, Note_on_c, 6, 71, 90
10, 92519, Note_on_c, 6, 71, 0
10, 92520, Note_on_c, 6, 68, 90
10, 92579, Note_on_c, 6, 68, 0
10, 92580, Note_on_c, 6, 76, 90
10, 92639, Note_on_c, 6, 76, 0
10, 92640, Note_on_c, 6, 73, 90
10, 92759, Note_on_c, 6, 73, 0
10, 92820, Note_on_c, 6, 73, 90
10, 92879, Note_on_c, 6, 73, 0
10, 92880, Note_on_c, 6, 69, 90
10, 92999, Note_on_c, 6, 69, 0
10, 93030, Note_on_c, 6, 73, 90
10, 93059, Note_on_c, 6, 73, 0
10, 93060, Note_on_c, 6, 74, 90
10, 93089, Note_on_c, 6, 74, 0
10, 93090, Note_on_c, 6, 76, 90
10, 93119, Note_on_c, 6, 76, 0
10, 93120, Note_on_c, 6, 78, 90
10, 93179, Note_on_c, 6, 78, 0
10, 93180, Note_on_c, 6, 79, 90
10, 93239, Note_on_c, 6, 79, 0
10, 93240, Note_on_c, 6, 78, 90
10, 93299, Note_on_c, 6, 78, 0
10, 93300, Note_on_c, 6, 76, 90
10, 93359, Note_on_c, 6, 76, 0
10, 93360, Note_on_c, 6, 74, 90
10, 93419, Note_on_c, 6, 74, 0
10, 93420, Note_on_c, 6, 74, 90
10, 93449, Note_on_c, 6, 74, 0
10, 93450, Note_on_c, 6, 73, 90
10, 93479, Note_on_c, 6, 73, 0
10, 93480, Note_on_c, 6, 71, 90
10, 93539, Note_on_c, 6, 71, 0
10, 93540, Note_on_c, 6, 74, 90
10, 93569, Note_on_c, 6, 74, 0
10, 93570, Note_on_c, 6, 73, 90
10, 93599, Note_on_c, 6, 73, 0
10, 93600, Note_on_c, 6, 71, 90
10, 93659, Note_on_c, 6, 71, 0
10, 93660, Note_on_c, 6, 71, 90
10, 93689, Note_on_c, 6, 71, 0
10, 93690, Note_on_c, 6, 69, 90
10, 93719, Note_on_c, 6, 69, 0
10, 93720, Note_on_c, 6, 68, 90
10, 93779, Note_on_c, 6, 68, 0
10, 93780, Note_on_c, 6, 71, 90
10, 93809, Note_on_c, 6, 71, 0
10, 93810, Note_on_c, 6, 69, 90
10, 93839, Note_on_c, 6, 69, 0
10, 93840, Note_on_c, 6, 68, 90
10, 93959, Note_on_c, 6, 68, 0
10, 93990, Note_on_c, 6, 71, 90
10, 94019, Note_on_c, 6, 71, 0
10, 94020, Note_on_c, 6, 73, 90
10, 94049, Note_on_c, 6, 73, 0
10, 94050, Note_on_c, 6, 74, 90
10, 94079, Note_on_c, 6, 74, 0
10, 94080, Note_on_c, 6, 76, 90
10, 94139, Note_on_c, 6, 76, 0
10, 94140, Note_on_c, 6, 78, 90
10, 94199, Note_on_c, 6, 78, 0
10, 94200, Note_on_c, 6, 76, 90
10, 94259, Note_on_c, 6, 76, 0
10, 94260, Note_on_c, 6, 74, 90
10, 94319, Note_on_c, 6, 74, 0
10, 94320, Note_on_c, 6, 76, 90
10, 94379, Note_on_c, 6, 76, 0
10, 94380, Note_on_c, 6, 74, 90
10, 94409, Note_on_c, 6, 74, 0
10, 94410, Note_on_c, 6, 76, 90
10, 94439, Note_on_c, 6, 76, 0
10, 94440, Note_on_c, 6, 73, 90
10, 94499, Note_on_c, 6, 73, 0
10, 94500, Note_on_c, 6, 78, 90
10, 94559, Note_on_c, 6, 78, 0
10, 94560, Note_on_c, 6, 76, 90
10, 94619, Note_on_c, 6, 76, 0
10, 94620, Note_on_c, 6, 76, 90
10, 94679, Note_on_c, 6, 76, 0
10, 94680, Note_on_c, 6, 76, 90
10, 94739, Note_on_c, 6, 76, 0
10, 94740, Note_on_c, 6, 76, 90
10, 94799, Note_on_c, 6, 76, 0
10, 94800, Note_on_c, 6, 76, 90
10, 94859, Note_on_c, 6, 76, 0
10, 94860, Note_on_c, 6, 76, 90
10, 94919, Note_on_c, 6, 76, 0
10, 94920, Note_on_c, 6, 76, 90
10, 94979, Note_on_c, 6, 76, 0
10, 94980, Note_on_c, 6, 76, 90
10, 95039, Note_on_c, 6, 76, 0
10, 95040, Note_on_c, 6, 76, 90
10, 95099, Note_on_c, 6, 76, 0
10, 95100, Note_on_c, 6, 74, 90
10, 95129, Note_on_c, 6, 74, 0
10, 95130, Note_on_c, 6, 76, 90
10, 95159, Note_on_c, 6, 76, 0
10, 95160, Note_on_c, 6, 73, 90
10, 95219, Note_on_c, 6, 73, 0
10, 95220, Note_on_c, 6, 81, 90
10, 95279, Note_on_c, 6, 81, 0
10, 95280, Note_on_c, 6, 80, 90
10, 95399, Note_on_c, 6, 80, 0
10, 95460, Note_on_c, 6, 85, 90
10, 95519, Note_on_c, 6, 85, 0
10, 95520, Note_on_c, 6, 81, 90
10, 95579, Note_on_c, 6, 81, 0
10, 95580, Note_on_c, 6, 73, 90
10, 95609, Note_on_c, 6, 73, 0
10, 95610, Note_on_c, 6, 81, 90
10, 95639, Note_on_c, 6, 81, 0
10, 95640, Note_on_c, 6, 85, 90
10, 95669, Note_on_c, 6, 85, 0
10, 95670, Note_on_c, 6, 83, 90
10, 95699, Note_on_c, 6, 83, 0
10, 95700, Note_on_c, 6, 81, 90
10, 95729, Note_on_c, 6, 81, 0
10, 95730, Note_on_c, 6, 80, 90
10, 95759, Note_on_c, 6, 80, 0
10, 95760, Note_on_c, 6, 81, 90
10, 95819, Note_on_c, 6, 81, 0
10, 95820, Note_on_c, 6, 73, 90
10, 95849, Note_on_c, 6, 73, 0
10, 95850, Note_on_c, 6, 81, 90
10, 95879, Note_on_c, 6, 81, 0
10, 95880, Note_on_c, 6, 85, 90
10, 95909, Note_on_c, 6, 85, 0
10, 95910, Note_on_c, 6, 83, 90
10, 95939, Note_on_c, 6, 83, 0
10, 95940, Note_on_c, 6, 81, 90
10, 95969, Note_on_c, 6, 81, 0
10, 95970, Note_on_c, 6, 80, 90
10, 95999, Note_on_c, 6, 80, 0
10, 96000, Note_on_c, 6, 81, 90
10, 96059, Note_on_c, 6, 81, 0
10, 96060, Note_on_c, 6, 71, 90
10, 96089, Note_on_c, 6, 71, 0
10, 96090, Note_on_c, 6, 80, 90
10, 96119, Note_on_c, 6, 80, 0
10, 96120, Note_on_c, 6, 81, 90
10, 96149, Note_on_c, 6, 81, 0
10, 96150, Note_on_c, 6, 80, 90
10, 96179, Note_on_c, 6, 80, 0
10, 96180, Note_on_c, 6, 78, 90
10, 96209, Note_on_c, 6, 78, 0
10, 96210, Note_on_c, 6, 76, 90
10, 96239, Note_on_c, 6, 76, 0
10, 96240, Note_on_c, 6, 78, 90
10, 96299, Note_on_c, 6, 78, 0
10, 96300, Note_on_c, 6, 71, 90
10, 96329, Note_on_c, 6, 71, 0
10, 96330, Note_on_c, 6, 81, 90
10, 96359, Note_on_c, 6, 81, 0
10, 96360, Note_on_c, 6, 83, 90
10, 96389, Note_on_c, 6, 83, 0
10, 96390, Note_on_c, 6, 81, 90
10, 96419, Note_on_c, 6, 81, 0
10, 96420, Note_on_c, 6, 80, 90
10, 96449, Note_on_c, 6, 80, 0
10, 96450, Note_on_c, 6, 78, 90
10, 96479, Note_on_c, 6, 78, 0
10, 96480, Note_on_c, 6, 80, 90
10, 96539, Note_on_c, 6, 80, 0
10, 96540, Note_on_c, 6, 78, 90
10, 96569, Note_on_c, 6, 78, 0
10, 96570, Note_on_c, 6, 76, 90
10, 96599, Note_on_c, 6, 76, 0
10, 96600, Note_on_c, 6, 78, 90
10, 96659, Note_on_c, 6, 78, 0
10, 96660, Note_on_c, 6, 75, 90
10, 96719, Note_on_c, 6, 75, 0
10, 96720, Note_on_c, 6, 76, 90
10, 96749, Note_on_c, 6, 76, 0
10, 96750, Note_on_c, 6, 75, 90
10, 96779, Note_on_c, 6, 75, 0
10, 96780, Note_on_c, 6, 73, 90
10, 96809, Note_on_c, 6, 73, 0
10, 96810, Note_on_c, 6, 71, 90
10, 96839, Note_on_c, 6, 71, 0
10, 96840, Note_on_c, 6, 69, 90
10, 96869, Note_on_c, 6, 69, 0
10, 96870, Note_on_c, 6, 68, 90
10, 96899, Note_on_c, 6, 68, 0
10, 96900, Note_on_c, 6, 66, 90
10, 96929, Note_on_c, 6, 66, 0
10, 96930, Note_on_c, 6, 64, 90
10, 96959, Note_on_c, 6, 64, 0
10, 96960, Note_on_c, 6, 69, 90
10, 97019, Note_on_c, 6, 69, 0
10, 97020, Note_on_c, 6, 64, 90
10, 97049, Note_on_c, 6, 64, 0
10, 97050, Note_on_c, 6, 69, 90
10, 97079, Note_on_c, 6, 69, 0
10, 97080, Note_on_c, 6, 73, 90
10, 97109, Note_on_c, 6, 73, 0
10, 97110, Note_on_c, 6, 71, 90
10, 97139, Note_on_c, 6, 71, 0
10, 97140, Note_on_c, 6, 69, 90
10, 97169, Note_on_c, 6, 69, 0
10, 97170, Note_on_c, 6, 68, 90
10, 97199, Note_on_c, 6, 68, 0
10, 97200, Note_on_c, 6, 69, 90
10, 97259, Note_on_c, 6, 69, 0
10, 97260, Note_on_c, 6, 64, 90
10, 97289, Note_on_c, 6, 64, 0
10, 97290, Note_on_c, 6, 69, 90
10, 97319, Note_on_c, 6, 69, 0
10, 97320, Note_on_c, 6, 73, 90
10, 97349, Note_on_c, 6, 73, 0
10, 97350, Note_on_c, 6, 71, 90
10, 97379, Note_on_c, 6, 71, 0
10, 97380, Note_on_c, 6, 69, 90
10, 97409, Note_on_c, 6, 69, 0
10, 97410, Note_on_c, 6, 68, 90
10, 97439, Note_on_c, 6, 68, 0
10, 97440, Note_on_c, 6, 69, 90
10, 97499, Note_on_c, 6, 69, 0
10, 97500, Note_on_c, 6, 59, 90
10, 97529, Note_on_c, 6, 59, 0
10, 97530, Note_on_c, 6, 68, 90
10, 97559, Note_on_c, 6, 68, 0
10, 97560, Note_on_c, 6, 69, 90
10, 97589, Note_on_c, 6, 69, 0
10, 97590, Note_on_c, 6, 68, 90
10, 97619, Note_on_c, 6, 68, 0
10, 97620, Note_on_c, 6, 66, 90
10, 97649, Note_on_c, 6, 66, 0
10, 97650, Note_on_c, 6, 64, 90
10, 97679, Note_on_c, 6, 64, 0
10, 97680, Note_on_c, 6, 66, 90
10, 97739, Note_on_c, 6, 66, 0
10, 97740, Note_on_c, 6, 59, 90
10, 97769, Note_on_c, 6, 59, 0
10, 97770, Note_on_c, 6, 69, 90
10, 97799, Note_on_c, 6, 69, 0
10, 97800, Note_on_c, 6, 71, 90
10, 97829, Note_on_c, 6, 71, 0
10, 97830, Note_on_c, 6, 69, 90
10, 97859, Note_on_c, 6, 69, 0
10, 97860, Note_on_c, 6, 68, 90
10, 97889, Note_on_c, 6, 68, 0
10, 97890, Note_on_c, 6, 66, 90
10, 97919, Note_on_c, 6, 66, 0
10, 97920, Note_on_c, 6, 69, 90
10, 97949, Note_on_c, 6, 69, 0
10, 97950, Note_on_c, 6, 68, 90
10, 97979, Note_on_c, 6, 68, 0
10, 97980, Note_on_c, 6, 66, 90
10, 98009, Note_on_c, 6, 66, 0
10, 98010, Note_on_c, 6, 64, 90
10, 98039, Note_on_c, 6, 64, 0
10, 98040, Note_on_c, 6, 66, 90
10, 98099, Note_on_c, 6, 66, 0
10, 98100, Note_on_c, 6, 63, 90
10, 98159, Note_on_c, 6, 63, 0
10, 98160, Note_on_c, 6, 64, 90
10, 98219, Note_on_c, 6, 64, 0
10, 98220, Note_on_c, 6, 68, 90
10, 98249, Note_on_c, 6, 68, 0
10, 98250, Note_on_c, 6, 69, 90
10, 98279, Note_on_c, 6, 69, 0
10, 98280, Note_on_c, 6, 71, 90
10, 98339, Note_on_c, 6, 71, 0
10, 98340, Note_on_c, 6, 73, 90
10, 98369, Note_on_c, 6, 73, 0
10, 98370, Note_on_c, 6, 75, 90
10, 98399, Note_on_c, 6, 75, 0
10, 98400, Note_on_c, 6, 76, 90
10, 98459, Note_on_c, 6, 76, 0
10, 98460, Note_on_c, 6, 83, 90
10, 98519, Note_on_c, 6, 83, 0
10, 98520, Note_on_c, 6, 71, 90
10, 98579, Note_on_c, 6, 71, 0
10, 98580, Note_on_c, 6, 75, 90
10, 98639, Note_on_c, 6, 75, 0
10, 98640, Note_on_c, 6, 76, 90
10, 98759, Note_on_c, 6, 76, 0
10, 98910, Note_on_c, 6, 71, 90
10, 98939, Note_on_c, 6, 71, 0
10, 98940, Note_on_c, 6, 76, 90
10, 98969, Note_on_c, 6, 76, 0
10, 98970, Note_on_c, 6, 78, 90
10, 98999, Note_on_c, 6, 78, 0
10, 99000, Note_on_c, 6, 80, 90
10, 99029, Note_on_c, 6, 80, 0
10, 99030, Note_on_c, 6, 76, 90
10, 99059, Note_on_c, 6, 76, 0
10, 99060, Note_on_c, 6, 71, 90
10, 99089, Note_on_c, 6, 71, 0
10, 99090, Note_on_c, 6, 76, 90
10, 99119, Note_on_c, 6, 76, 0
10, 99120, Note_on_c, 6, 80, 90
10, 99179, Note_on_c, 6, 80, 0
10, 99390, Note_on_c, 6, 73, 90
10, 99419, Note_on_c, 6, 73, 0
10, 99420, Note_on_c, 6, 78, 90
10, 99449, Note_on_c, 6, 78, 0
10, 99450, Note_on_c, 6, 80, 90
10, 99479, Note_on_c, 6, 80, 0
10, 99480, Note_on_c, 6, 81, 90
10, 99509, Note_on_c, 6, 81, 0
10, 99510, Note_on_c, 6, 78, 90
10, 99539, Note_on_c, 6, 78, 0
10, 99540, Note_on_c, 6, 73, 90
10, 99569, Note_on_c, 6, 73, 0
10, 99570, Note_on_c, 6, 78, 90
10, 99599, Note_on_c, 6, 78, 0
10, 99600, Note_on_c, 6, 79, 90
10, 99629, Note_on_c, 6, 79, 0
10, 99630, Note_on_c, 6, 69, 90
10, 99659, Note_on_c, 6, 69, 0
10, 99660, Note_on_c, 6, 76, 90
10, 99689, Note_on_c, 6, 76, 0
10, 99690, Note_on_c, 6, 78, 90
10, 99719, Note_on_c, 6, 78, 0
10, 99720, Note_on_c, 6, 79, 90
10, 99749, Note_on_c, 6, 79, 0
10, 99750, Note_on_c, 6, 76, 90
10, 99779, Note_on_c, 6, 76, 0
10, 99780, Note_on_c, 6, 69, 90
10, 99809, Note_on_c, 6, 69, 0
10, 99810, Note_on_c, 6, 76, 90
10, 99839, Note_on_c, 6, 76, 0
10, 99840, Note_on_c, 6, 78, 90
10, 99869, Note_on_c, 6, 78, 0
10, 99870, Note_on_c, 6, 69, 90
10, 99899, Note_on_c, 6, 69, 0
10, 99900, Note_on_c, 6, 74, 90
10, 99929, Note_on_c, 6, 74, 0
10, 99930, Note_on_c, 6, 76, 90
10, 99959, Note_on_c, 6, 76, 0
10, 99960, Note_on_c, 6, 78, 90
10, 99989, Note_on_c, 6, 78, 0
10, 99990, Note_on_c, 6, 74, 90
10, 100019, Note_on_c, 6, 74, 0
10, 100020, Note_on_c, 6, 69, 90
10, 100049, Note_on_c, 6, 69, 0
10, 100050, Note_on_c, 6, 74, 90
10, 100079, Note_on_c, 6, 74, 0
10, 100080, Note_on_c, 6, 78, 90
10, 100109, Note_on_c, 6, 78, 0
10, 100110, Note_on_c, 6, 73, 90
10, 100139, Note_on_c, 6, 73, 0
10, 100140, Note_on_c, 6, 70, 90
10, 100169, Note_on_c, 6, 70, 0
10, 100170, Note_on_c, 6, 73, 90
10, 100199, Note_on_c, 6, 73, 0
10, 100200, Note_on_c, 6, 78, 90
10, 100229, Note_on_c, 6, 78, 0
10, 100230, Note_on_c, 6, 73, 90
10, 100259, Note_on_c, 6, 73, 0
10, 100260, Note_on_c, 6, 70, 90
10, 100289, Note_on_c, 6, 70, 0
10, 100290, Note_on_c, 6, 73, 90
10, 100319, Note_on_c, 6, 73, 0
10, 100320, Note_on_c, 6, 66, 90
10, 100379, Note_on_c, 6, 66, 0
10, 100740, Note_on_c, 6, 73, 90
10, 100799, Note_on_c, 6, 73, 0
10, 100800, Note_on_c, 6, 78, 90
10, 100875, Note_on_c, 6, 78, 0
10, 100875, Note_on_c, 6, 73, 90
10, 100889, Note_on_c, 6, 73, 0
10, 100890, Note_on_c, 6, 71, 90
10, 100904, Note_on_c, 6, 71, 0
10, 100905, Note_on_c, 6, 73, 90
10, 100919, Note_on_c, 6, 73, 0
10, 100920, Note_on_c, 6, 78, 90
10, 100995, Note_on_c, 6, 78, 0
10, 100995, Note_on_c, 6, 73, 90
10, 101009, Note_on_c, 6, 73, 0
10, 101010, Note_on_c, 6, 71, 90
10, 101024, Note_on_c, 6, 71, 0
10, 101025, Note_on_c, 6, 73, 90
10, 101039, Note_on_c, 6, 73, 0
10, 101041, Note_on_c, 6, 78, 90
10, 101116, Note_on_c, 6, 78, 0
10, 101116, Note_on_c, 6, 73, 90
10, 101130, Note_on_c, 6, 73, 0
10, 101131, Note_on_c, 6, 71, 90
10, 101145, Note_on_c, 6, 71, 0
10, 101146, Note_on_c, 6, 73, 90
10, 101160, Note_on_c, 6, 73, 0
10, 101162, Note_on_c, 6, 78, 90
10, 101237, Note_on_c, 6, 78, 0
10, 101237, Note_on_c, 6, 73, 90
10, 101251, Note_on_c, 6, 73, 0
10, 101252, Note_on_c, 6, 71, 90
10, 101266, Note_on_c, 6, 71, 0
10, 101267, Note_on_c, 6, 73, 90
10, 101281, Note_on_c, 6, 73, 0
10, 101283, Note_on_c, 6, 78, 90
10, 101358, Note_on_c, 6, 78, 0
10, 101358, Note_on_c, 6, 73, 90
10, 101372, Note_on_c, 6, 73, 0
10, 101373, Note_on_c, 6, 71, 90
10, 101387, Note_on_c, 6, 71, 0
10, 101388, Note_on_c, 6, 73, 90
10, 101402, Note_on_c, 6, 73, 0
10, 101404, Note_on_c, 6, 78, 90
10, 101479, Note_on_c, 6, 78, 0
10, 101479, Note_on_c, 6, 73, 90
10, 101493, Note_on_c, 6, 73, 0
10, 101494, Note_on_c, 6, 71, 90
10, 101508, Note_on_c, 6, 71, 0
10, 101509, Note_on_c, 6, 73, 90
10, 101520, Note_on_c, 6, 80, 90
10, 101523, Note_on_c, 6, 73, 0
10, 101595, Note_on_c, 6, 80, 0
10, 101600, Note_on_c, 6, 73, 90
10, 101614, Note_on_c, 6, 73, 0
10, 101615, Note_on_c, 6, 71, 90
10, 101629, Note_on_c, 6, 71, 0
10, 101630, Note_on_c, 6, 73, 90
10, 101640, Note_on_c, 6, 80, 90
10, 101644, Note_on_c, 6, 73, 0
10, 101715, Note_on_c, 6, 80, 0
10, 101721, Note_on_c, 6, 73, 90
10, 101735, Note_on_c, 6, 73, 0
10, 101736, Note_on_c, 6, 71, 90
10, 101750, Note_on_c, 6, 71, 0
10, 101751, Note_on_c, 6, 73, 90
10, 101760, Note_on_c, 6, 81, 90
10, 101765, Note_on_c, 6, 73, 0
10, 101835, Note_on_c, 6, 81, 0
10, 101842, Note_on_c, 6, 73, 90
10, 101856, Note_on_c, 6, 73, 0
10, 101857, Note_on_c, 6, 71, 90
10, 101871, Note_on_c, 6, 71, 0
10, 101872, Note_on_c, 6, 73, 90
10, 101880, Note_on_c, 6, 81, 90
10, 101886, Note_on_c, 6, 73, 0
10, 101955, Note_on_c, 6, 81, 0
10, 101955, Note_on_c, 6, 73, 90
10, 101969, Note_on_c, 6, 73, 0
10, 101970, Note_on_c, 6, 71, 90
10, 101984, Note_on_c, 6, 71, 0
10, 101985, Note_on_c, 6, 73, 90
10, 101999, Note_on_c, 6, 73, 0
10, 102000, Note_on_c, 6, 81, 90
10, 102014, Note_on_c, 6, 81, 0
10, 102015, Note_on_c, 6, 71, 90
10, 102029, Note_on_c, 6, 71, 0
10, 102030, Note_on_c, 6, 73, 90
10, 102044, Note_on_c, 6, 73, 0
10, 102045, Note_on_c, 6, 74, 90
10, 102059, Note_on_c, 6, 74, 0
10, 102060, Note_on_c, 6, 76, 90
10, 102074, Note_on_c, 6, 76, 0
10, 102075, Note_on_c, 6, 78, 90
10, 102089, Note_on_c, 6, 78, 0
10, 102090, Note_on_c, 6, 80, 90
10, 102104, Note_on_c, 6, 80, 0
10, 102105, Note_on_c, 6, 81, 90
10, 102119, Note_on_c, 6, 81, 0
10, 102120, Note_on_c, 6, 83, 90
10, 102134, Note_on_c, 6, 83, 0
10, 102135, Note_on_c, 6, 80, 90
10, 102149, Note_on_c, 6, 80, 0
10, 102150, Note_on_c, 6, 78, 90
10, 102164, Note_on_c, 6, 78, 0
10, 102165, Note_on_c, 6, 80, 90
10, 102179, Note_on_c, 6, 80, 0
10, 102180, Note_on_c, 6, 81, 90
10, 102194, Note_on_c, 6, 81, 0
10, 102195, Note_on_c, 6, 78, 90
10, 102209, Note_on_c, 6, 78, 0
10, 102210, Note_on_c, 6, 76, 90
10, 102224, Note_on_c, 6, 76, 0
10, 102225, Note_on_c, 6, 78, 90
10, 102239, Note_on_c, 6, 78, 0
10, 102240, Note_on_c, 6, 80, 90
10, 102315, Note_on_c, 6, 80, 0
10, 102315, Note_on_c, 6, 71, 90
10, 102329, Note_on_c, 6, 71, 0
10, 102330, Note_on_c, 6, 69, 90
10, 102344, Note_on_c, 6, 69, 0
10, 102345, Note_on_c, 6, 71, 90
10, 102359, Note_on_c, 6, 71, 0
10, 102360, Note_on_c, 6, 80, 90
10, 102435, Note_on_c, 6, 80, 0
10, 102435, Note_on_c, 6, 71, 90
10, 102449, Note_on_c, 6, 71, 0
10, 102450, Note_on_c, 6, 69, 90
10, 102464, Note_on_c, 6, 69, 0
10, 102465, Note_on_c, 6, 71, 90
10, 102479, Note_on_c, 6, 71, 0
10, 102480, Note_on_c, 6, 80, 90
10, 102494, Note_on_c, 6, 80, 0
10, 102495, Note_on_c, 6, 69, 90
10, 102509, Note_on_c, 6, 69, 0
10, 102510, Note_on_c, 6, 71, 90
10, 102524, Note_on_c, 6, 71, 0
10, 102525, Note_on_c, 6, 73, 90
10, 102539, Note_on_c, 6, 73, 0
10, 102540, Note_on_c, 6, 74, 90
10, 102554, Note_on_c, 6, 74, 0
10, 102555, Note_on_c, 6, 76, 90
10, 102569, Note_on_c, 6, 76, 0
10, 102570, Note_on_c, 6, 78, 90
10, 102584, Note_on_c, 6, 78, 0
10, 102585, Note_on_c, 6, 80, 90
10, 102599, Note_on_c, 6, 80, 0
10, 102600, Note_on_c, 6, 81, 90
10, 102614, Note_on_c, 6, 81, 0
10, 102615, Note_on_c, 6, 78, 90
10, 102629, Note_on_c, 6, 78, 0
10, 102630, Note_on_c, 6, 76, 90
10, 102644, Note_on_c, 6, 76, 0
10, 102645, Note_on_c, 6, 78, 90
10, 102659, Note_on_c, 6, 78, 0
10, 102660, Note_on_c, 6, 80, 90
10, 102674, Note_on_c, 6, 80, 0
10, 102675, Note_on_c, 6, 76, 90
10, 102689, Note_on_c, 6, 76, 0
10, 102690, Note_on_c, 6, 74, 90
10, 102704, Note_on_c, 6, 74, 0
10, 102705, Note_on_c, 6, 76, 90
10, 102719, Note_on_c, 6, 76, 0
10, 102720, Note_on_c, 6, 78, 90
10, 102795, Note_on_c, 6, 78, 0
10, 102795, Note_on_c, 6, 69, 90
10, 102809, Note_on_c, 6, 69, 0
10, 102810, Note_on_c, 6, 68, 90
10, 102824, Note_on_c, 6, 68, 0
10, 102825, Note_on_c, 6, 69, 90
10, 102839, Note_on_c, 6, 69, 0
10, 102841, Note_on_c, 6, 78, 90
10, 102915, Note_on_c, 6, 69, 90
10, 102916, Note_on_c, 6, 78, 0
10, 102929, Note_on_c, 6, 69, 0
10, 102930, Note_on_c, 6, 68, 90
10, 102944, Note_on_c, 6, 68, 0
10, 102945, Note_on_c, 6, 69, 90
10, 102959, Note_on_c, 6, 69, 0
10, 102960, Note_on_c, 6, 78, 90
10, 102974, Note_on_c, 6, 78, 0
10, 102975, Note_on_c, 6, 68, 90
10, 102989, Note_on_c, 6, 68, 0
10, 102990, Note_on_c, 6, 69, 90
10, 103004, Note_on_c, 6, 69, 0
10, 103005, Note_on_c, 6, 71, 90
10, 103019, Note_on_c, 6, 71, 0
10, 103020, Note_on_c, 6, 73, 90
10, 103034, Note_on_c, 6, 73, 0
10, 103035, Note_on_c, 6, 74, 90
10, 103049, Note_on_c, 6, 74, 0
10, 103050, Note_on_c, 6, 76, 90
10, 103064, Note_on_c, 6, 76, 0
10, 103065, Note_on_c, 6, 78, 90
10, 103079, Note_on_c, 6, 78, 0
10, 103080, Note_on_c, 6, 80, 90
10, 103094, Note_on_c, 6, 80, 0
10, 103095, Note_on_c, 6, 71, 90
10, 103109, Note_on_c, 6, 71, 0
10, 103110, Note_on_c, 6, 69, 90
10, 103124, Note_on_c, 6, 69, 0
10, 103125, Note_on_c, 6, 71, 90
10, 103139, Note_on_c, 6, 71, 0
10, 103140, Note_on_c, 6, 78, 90
10, 103154, Note_on_c, 6, 78, 0
10, 103155, Note_on_c, 6, 71, 90
10, 103169, Note_on_c, 6, 71, 0
10, 103170, Note_on_c, 6, 69, 90
10, 103184, Note_on_c, 6, 69, 0
10, 103185, Note_on_c, 6, 71, 90
10, 103199, Note_on_c, 6, 71, 0
10, 103200, Note_on_c, 6, 77, 90
10, 103259, Note_on_c, 6, 77, 0
10, 103260, Note_on_c, 6, 73, 90
10, 103319, Note_on_c, 6, 73, 0
10, 103620, Note_on_c, 6, 73, 90
10, 103649, Note_on_c, 6, 73, 0
10, 103650, Note_on_c, 6, 75, 90
10, 103679, Note_on_c, 6, 75, 0
10, 103680, Note_on_c, 6, 77, 90
10, 103739, Note_on_c, 6, 77, 0
10, 103740, Note_on_c, 6, 78, 90
10, 103799, Note_on_c, 6, 78, 0
10, 103800, Note_on_c, 6, 77, 90
10, 103859, Note_on_c, 6, 77, 0
10, 103860, Note_on_c, 6, 75, 90
10, 103919, Note_on_c, 6, 75, 0
10, 103920, Note_on_c, 6, 77, 90
10, 103979, Note_on_c, 6, 77, 0
10, 103980, Note_on_c, 6, 75, 90
10, 104009, Note_on_c, 6, 75, 0
10, 104010, Note_on_c, 6, 77, 90
10, 104039, Note_on_c, 6, 77, 0
10, 104040, Note_on_c, 6, 73, 90
10, 104099, Note_on_c, 6, 73, 0
10, 104100, Note_on_c, 6, 85, 90
10, 104159, Note_on_c, 6, 85, 0
10, 104160, Note_on_c, 6, 78, 90
10, 104219, Note_on_c, 6, 78, 0
10, 104220, Note_on_c, 6, 81, 90
10, 104249, Note_on_c, 6, 81, 0
10, 104250, Note_on_c, 6, 80, 90
10, 104279, Note_on_c, 6, 80, 0
10, 104280, Note_on_c, 6, 78, 90
10, 104339, Note_on_c, 6, 78, 0
10, 104340, Note_on_c, 6, 78, 90
10, 104399, Note_on_c, 6, 78, 0
10, 104400, Note_on_c, 6, 78, 90
10, 104459, Note_on_c, 6, 78, 0
10, 104460, Note_on_c, 6, 75, 90
10, 104489, Note_on_c, 6, 75, 0
10, 104490, Note_on_c, 6, 77, 90
10, 104519, Note_on_c, 6, 77, 0
10, 104520, Note_on_c, 6, 78, 90
10, 104579, Note_on_c, 6, 78, 0
10, 104580, Note_on_c, 6, 78, 90
10, 104639, Note_on_c, 6, 78, 0
10, 104640, Note_on_c, 6, 80, 90
10, 104699, Note_on_c, 6, 80, 0
10, 104700, Note_on_c, 6, 77, 90
10, 104729, Note_on_c, 6, 77, 0
10, 104730, Note_on_c, 6, 78, 90
10, 104759, Note_on_c, 6, 78, 0
10, 104760, Note_on_c, 6, 80, 90
10, 104819, Note_on_c, 6, 80, 0
10, 104820, Note_on_c, 6, 80, 90
10, 104879, Note_on_c, 6, 80, 0
10, 104880, Note_on_c, 6, 80, 90
10, 104939, Note_on_c, 6, 80, 0
10, 104940, Note_on_c, 6, 83, 90
10, 104969, Note_on_c, 6, 83, 0
10, 104970, Note_on_c, 6, 81, 90
10, 104999, Note_on_c, 6, 81, 0
10, 105000, Note_on_c, 6, 80, 90
10, 105059, Note_on_c, 6, 80, 0
10, 105060, Note_on_c, 6, 80, 90
10, 105119, Note_on_c, 6, 80, 0
10, 105120, Note_on_c, 6, 80, 90
10, 105149, Note_on_c, 6, 80, 0
10, 105150, Note_on_c, 6, 78, 90
10, 105179, Note_on_c, 6, 78, 0
10, 105180, Note_on_c, 6, 77, 90
10, 105209, Note_on_c, 6, 77, 0
10, 105210, Note_on_c, 6, 78, 90
10, 105239, Note_on_c, 6, 78, 0
10, 105240, Note_on_c, 6, 83, 90
10, 105299, Note_on_c, 6, 83, 0
10, 105300, Note_on_c, 6, 80, 90
10, 105359, Note_on_c, 6, 80, 0
10, 105360, Note_on_c, 6, 78, 90
10, 105419, Note_on_c, 6, 78, 0
10, 105420, Note_on_c, 6, 69, 90
10, 105449, Note_on_c, 6, 69, 0
10, 105450, Note_on_c, 6, 71, 90
10, 105479, Note_on_c, 6, 71, 0
10, 105480, Note_on_c, 6, 73, 90
10, 105539, Note_on_c, 6, 73, 0
10, 105540, Note_on_c, 6, 75, 90
10, 105569, Note_on_c, 6, 75, 0
10, 105570, Note_on_c, 6, 77, 90
10, 105599, Note_on_c, 6, 77, 0
10, 105600, Note_on_c, 6, 78, 90
10, 105659, Note_on_c, 6, 78, 0
10, 106020, Note_on_c, 6, 73, 90
10, 106079, Note_on_c, 6, 73, 0
10, 106080, Note_on_c, 6, 73, 90
10, 106139, Note_on_c, 6, 73, 0
10, 106140, Note_on_c, 6, 73, 90
10, 106199, Note_on_c, 6, 73, 0
10, 106200, Note_on_c, 6, 73, 90
10, 106259, Note_on_c, 6, 73, 0
10, 106260, Note_on_c, 6, 73, 90
10, 106319, Note_on_c, 6, 73, 0
10, 106320, Note_on_c, 6, 73, 90
10, 106379, Note_on_c, 6, 73, 0
10, 106380, Note_on_c, 6, 69, 90
10, 106409, Note_on_c, 6, 69, 0
10, 106410, Note_on_c, 6, 73, 90
10, 106439, Note_on_c, 6, 73, 0
10, 106440, Note_on_c, 6, 78, 90
10, 106469, Note_on_c, 6, 78, 0
10, 106470, Note_on_c, 6, 76, 90
10, 106499, Note_on_c, 6, 76, 0
10, 106500, Note_on_c, 6, 74, 90
10, 106529, Note_on_c, 6, 74, 0
10, 106530, Note_on_c, 6, 73, 90
10, 106559, Note_on_c, 6, 73, 0
10, 106560, Note_on_c, 6, 73, 90
10, 106619, Note_on_c, 6, 73, 0
10, 106620, Note_on_c, 6, 73, 90
10, 106679, Note_on_c, 6, 73, 0
10, 106680, Note_on_c, 6, 73, 90
10, 106739, Note_on_c, 6, 73, 0
10, 106740, Note_on_c, 6, 73, 90
10, 106799, Note_on_c, 6, 73, 0
10, 106800, Note_on_c, 6, 73, 90
10, 106859, Note_on_c, 6, 73, 0
10, 106860, Note_on_c, 6, 68, 90
10, 106889, Note_on_c, 6, 68, 0
10, 106890, Note_on_c, 6, 73, 90
10, 106919, Note_on_c, 6, 73, 0
10, 106920, Note_on_c, 6, 80, 90
10, 106949, Note_on_c, 6, 80, 0
10, 106950, Note_on_c, 6, 78, 90
10, 106979, Note_on_c, 6, 78, 0
10, 106980, Note_on_c, 6, 77, 90
10, 107009, Note_on_c, 6, 77, 0
10, 107010, Note_on_c, 6, 75, 90
10, 107039, Note_on_c, 6, 75, 0
10, 107040, Note_on_c, 6, 73, 90
10, 107099, Note_on_c, 6, 73, 0
10, 107100, Note_on_c, 6, 75, 90
10, 107129, Note_on_c, 6, 75, 0
10, 107130, Note_on_c, 6, 77, 90
10, 107159, Note_on_c, 6, 77, 0
10, 107160, Note_on_c, 6, 78, 90
10, 107189, Note_on_c, 6, 78, 0
10, 107190, Note_on_c, 6, 80, 90
10, 107219, Note_on_c, 6, 80, 0
10, 107220, Note_on_c, 6, 81, 90
10, 107249, Note_on_c, 6, 81, 0
10, 107250, Note_on_c, 6, 78, 90
10, 107279, Note_on_c, 6, 78, 0
10, 107280, Note_on_c, 6, 71, 90
10, 107339, Note_on_c, 6, 71, 0
10, 107340, Note_on_c, 6, 73, 90
10, 107369, Note_on_c, 6, 73, 0
10, 107370, Note_on_c, 6, 75, 90
10, 107399, Note_on_c, 6, 75, 0
10, 107400, Note_on_c, 6, 77, 90
10, 107429, Note_on_c, 6, 77, 0
10, 107430, Note_on_c, 6, 78, 90
10, 107459, Note_on_c, 6, 78, 0
10, 107460, Note_on_c, 6, 80, 90
10, 107489, Note_on_c, 6, 80, 0
10, 107490, Note_on_c, 6, 77, 90
10, 107519, Note_on_c, 6, 77, 0
10, 107520, Note_on_c, 6, 78, 90
10, 107579, Note_on_c, 6, 78, 0
10, 107580, Note_on_c, 6, 73, 90
10, 107639, Note_on_c, 6, 73, 0
10, 107640, Note_on_c, 6, 69, 90
10, 107699, Note_on_c, 6, 69, 0
10, 107700, Note_on_c, 6, 68, 90
10, 107729, Note_on_c, 6, 68, 0
10, 107730, Note_on_c, 6, 66, 90
10, 107759, Note_on_c, 6, 66, 0
10, 107760, Note_on_c, 6, 66, 90
10, 107789, Note_on_c, 6, 66, 0
10, 107790, Note_on_c, 6, 65, 90
10, 107819, Note_on_c, 6, 65, 0
10, 107820, Note_on_c, 6, 66, 90
10, 107849, Note_on_c, 6, 66, 0
10, 107850, Note_on_c, 6, 68, 90
10, 107879, Note_on_c, 6, 68, 0
10, 107880, Note_on_c, 6, 69, 90
10, 107909, Note_on_c, 6, 69, 0
10, 107910, Note_on_c, 6, 71, 90
10, 107939, Note_on_c, 6, 71, 0
10, 107940, Note_on_c, 6, 73, 90
10, 107969, Note_on_c, 6, 73, 0
10, 107970, Note_on_c, 6, 74, 90
10, 107999, Note_on_c, 6, 74, 0
10, 108000, Note_on_c, 6, 76, 90
10, 108059, Note_on_c, 6, 76, 0
10, 108060, Note_on_c, 6, 78, 90
10, 108119, Note_on_c, 6, 78, 0
10, 108120, Note_on_c, 6, 76, 90
10, 108179, Note_on_c, 6, 76, 0
10, 108180, Note_on_c, 6, 74, 90
10, 108239, Note_on_c, 6, 74, 0
10, 108240, Note_on_c, 6, 73, 90
10, 108299, Note_on_c, 6, 73, 0
10, 108300, Note_on_c, 6, 71, 90
10, 108329, Note_on_c, 6, 71, 0
10, 108330, Note_on_c, 6, 73, 90
10, 108359, Note_on_c, 6, 73, 0
10, 108360, Note_on_c, 6, 69, 90
10, 108419, Note_on_c, 6, 69, 0
10, 108420, Note_on_c, 6, 71, 90
10, 108479, Note_on_c, 6, 71, 0
10, 108480, Note_on_c, 6, 73, 90
10, 108539, Note_on_c, 6, 73, 0
10, 108540, Note_on_c, 6, 71, 90
10, 108569, Note_on_c, 6, 71, 0
10, 108570, Note_on_c, 6, 73, 90
10, 108599, Note_on_c, 6, 73, 0
10, 108600, Note_on_c, 6, 69, 90
10, 108659, Note_on_c, 6, 69, 0
10, 108660, Note_on_c, 6, 73, 90
10, 108719, Note_on_c, 6, 73, 0
10, 108720, Note_on_c, 6, 74, 90
10, 108779, Note_on_c, 6, 74, 0
10, 108780, Note_on_c, 6, 73, 90
10, 108809, Note_on_c, 6, 73, 0
10, 108810, Note_on_c, 6, 74, 90
10, 108839, Note_on_c, 6, 74, 0
10, 108840, Note_on_c, 6, 71, 90
10, 108899, Note_on_c, 6, 71, 0
10, 108900, Note_on_c, 6, 74, 90
10, 108959, Note_on_c, 6, 74, 0
10, 108960, Note_on_c, 6, 76, 90
10, 109019, Note_on_c, 6, 76, 0
10, 109020, Note_on_c, 6, 74, 90
10, 109049, Note_on_c, 6, 74, 0
10, 109050, Note_on_c, 6, 76, 90
10, 109079, Note_on_c, 6, 76, 0
10, 109080, Note_on_c, 6, 73, 90
10, 109139, Note_on_c, 6, 73, 0
10, 109140, Note_on_c, 6, 76, 90
10, 109199, Note_on_c, 6, 76, 0
10, 109200, Note_on_c, 6, 71, 90
10, 109259, Note_on_c, 6, 71, 0
10, 109260, Note_on_c, 6, 71, 90
10, 109319, Note_on_c, 6, 71, 0
10, 109320, Note_on_c, 6, 71, 90
10, 109379, Note_on_c, 6, 71, 0
10, 109380, Note_on_c, 6, 71, 90
10, 109439, Note_on_c, 6, 71, 0
10, 109440, Note_on_c, 6, 71, 90
10, 109499, Note_on_c, 6, 71, 0
10, 109500, Note_on_c, 6, 73, 90
10, 109529, Note_on_c, 6, 73, 0
10, 109530, Note_on_c, 6, 75, 90
10, 109559, Note_on_c, 6, 75, 0
10, 109560, Note_on_c, 6, 76, 90
10, 109589, Note_on_c, 6, 76, 0
10, 109590, Note_on_c, 6, 78, 90
10, 109619, Note_on_c, 6, 78, 0
10, 109620, Note_on_c, 6, 80, 90
10, 109649, Note_on_c, 6, 80, 0
10, 109650, Note_on_c, 6, 76, 90
10, 109679, Note_on_c, 6, 76, 0
10, 109680, Note_on_c, 6, 69, 90
10, 109739, Note_on_c, 6, 69, 0
10, 109740, Note_on_c, 6, 71, 90
10, 109769, Note_on_c, 6, 71, 0
10, 109770, Note_on_c, 6, 73, 90
10, 109799, Note_on_c, 6, 73, 0
10, 109800, Note_on_c, 6, 75, 90
10, 109829, Note_on_c, 6, 75, 0
10, 109830, Note_on_c, 6, 76, 90
10, 109859, Note_on_c, 6, 76, 0
10, 109860, Note_on_c, 6, 78, 90
10, 109889, Note_on_c, 6, 78, 0
10, 109890, Note_on_c, 6, 75, 90
10, 109919, Note_on_c, 6, 75, 0
10, 109920, Note_on_c, 6, 76, 90
10, 109979, Note_on_c, 6, 76, 0
10, 109980, Note_on_c, 6, 71, 90
10, 110039, Note_on_c, 6, 71, 0
10, 110040, Note_on_c, 6, 68, 90
10, 110099, Note_on_c, 6, 68, 0
10, 110100, Note_on_c, 6, 66, 90
10, 110129, Note_on_c, 6, 66, 0
10, 110130, Note_on_c, 6, 64, 90
10, 110159, Note_on_c, 6, 64, 0
10, 110160, Note_on_c, 6, 64, 90
10, 110760, Note_on_c, 6, 64, 0
10, 110910, Note_on_c, 6, 66, 90
10, 110939, Note_on_c, 6, 66, 0
10, 110940, Note_on_c, 6, 71, 90
10, 110969, Note_on_c, 6, 71, 0
10, 110970, Note_on_c, 6, 74, 90
10, 110999, Note_on_c, 6, 74, 0
10, 111000, Note_on_c, 6, 78, 90
10, 111029, Note_on_c, 6, 78, 0
10, 111030, Note_on_c, 6, 74, 90
10, 111059, Note_on_c, 6, 74, 0
10, 111060, Note_on_c, 6, 71, 90
10, 111089, Note_on_c, 6, 71, 0
10, 111090, Note_on_c, 6, 80, 90
10, 111119, Note_on_c, 6, 80, 0
10, 111120, Note_on_c, 6, 81, 90
10, 111149, Note_on_c, 6, 81, 0
10, 111150, Note_on_c, 6, 69, 90
10, 111179, Note_on_c, 6, 69, 0
10, 111180, Note_on_c, 6, 74, 90
10, 111209, Note_on_c, 6, 74, 0
10, 111210, Note_on_c, 6, 78, 90
10, 111239, Note_on_c, 6, 78, 0
10, 111240, Note_on_c, 6, 81, 90
10, 111269, Note_on_c, 6, 81, 0
10, 111270, Note_on_c, 6, 78, 90
10, 111299, Note_on_c, 6, 78, 0
10, 111300, Note_on_c, 6, 74, 90
10, 111329, Note_on_c, 6, 74, 0
10, 111330, Note_on_c, 6, 81, 90
10, 111359, Note_on_c, 6, 81, 0
10, 111360, Note_on_c, 6, 83, 90
10, 111389, Note_on_c, 6, 83, 0
10, 111390, Note_on_c, 6, 71, 90
10, 111419, Note_on_c, 6, 71, 0
10, 111420, Note_on_c, 6, 76, 90
10, 111449, Note_on_c, 6, 76, 0
10, 111450, Note_on_c, 6, 80, 90
10, 111479, Note_on_c, 6, 80, 0
10, 111480, Note_on_c, 6, 83, 90
10, 111509, Note_on_c, 6, 83, 0
10, 111510, Note_on_c, 6, 80, 90
10, 111539, Note_on_c, 6, 80, 0
10, 111540, Note_on_c, 6, 76, 90
10, 111569, Note_on_c, 6, 76, 0
10, 111570, Note_on_c, 6, 80, 90
10, 111599, Note_on_c, 6, 80, 0
10, 111600, Note_on_c, 6, 69, 90
10, 111629, Note_on_c, 6, 69, 0
10, 111630, Note_on_c, 6, 73, 90
10, 111659, Note_on_c, 6, 73, 0
10, 111660, Note_on_c, 6, 76, 90
10, 111689, Note_on_c, 6, 76, 0
10, 111690, Note_on_c, 6, 81, 90
10, 111719, Note_on_c, 6, 81, 0
10, 111720, Note_on_c, 6, 85, 90
10, 111749, Note_on_c, 6, 85, 0
10, 111750, Note_on_c, 6, 81, 90
10, 111779, Note_on_c, 6, 81, 0
10, 111780, Note_on_c, 6, 76, 90
10, 111809, Note_on_c, 6, 76, 0
10, 111810, Note_on_c, 6, 79, 90
10, 111839, Note_on_c, 6, 79, 0
10, 111840, Note_on_c, 6, 78, 90
10, 111899, Note_on_c, 6, 78, 0
10, 112260, Note_on_c, 6, 64, 90
10, 112319, Note_on_c, 6, 64, 0
10, 112320, Note_on_c, 6, 69, 90
10, 112379, Note_on_c, 6, 69, 0
10, 112380, Note_on_c, 6, 69, 90
10, 112439, Note_on_c, 6, 69, 0
10, 112440, Note_on_c, 6, 69, 90
10, 112499, Note_on_c, 6, 69, 0
10, 112500, Note_on_c, 6, 69, 90
10, 112559, Note_on_c, 6, 69, 0
10, 112560, Note_on_c, 6, 69, 90
10, 112619, Note_on_c, 6, 69, 0
10, 112620, Note_on_c, 6, 64, 90
10, 112649, Note_on_c, 6, 64, 0
10, 112650, Note_on_c, 6, 69, 90
10, 112679, Note_on_c, 6, 69, 0
10, 112680, Note_on_c, 6, 73, 90
10, 112709, Note_on_c, 6, 73, 0
10, 112710, Note_on_c, 6, 71, 90
10, 112739, Note_on_c, 6, 71, 0
10, 112740, Note_on_c, 6, 69, 90
10, 112769, Note_on_c, 6, 69, 0
10, 112770, Note_on_c, 6, 68, 90
10, 112799, Note_on_c, 6, 68, 0
10, 112800, Note_on_c, 6, 69, 90
10, 112859, Note_on_c, 6, 69, 0
10, 112860, Note_on_c, 6, 64, 90
10, 112889, Note_on_c, 6, 64, 0
10, 112890, Note_on_c, 6, 69, 90
10, 112919, Note_on_c, 6, 69, 0
10, 112920, Note_on_c, 6, 74, 90
10, 112949, Note_on_c, 6, 74, 0
10, 112950, Note_on_c, 6, 73, 90
10, 112979, Note_on_c, 6, 73, 0
10, 112980, Note_on_c, 6, 71, 90
10, 113009, Note_on_c, 6, 71, 0
10, 113010, Note_on_c, 6, 69, 90
10, 113039, Note_on_c, 6, 69, 0
10, 113040, Note_on_c, 6, 71, 90
10, 113099, Note_on_c, 6, 71, 0
10, 113100, Note_on_c, 6, 64, 90
10, 113129, Note_on_c, 6, 64, 0
10, 113130, Note_on_c, 6, 71, 90
10, 113159, Note_on_c, 6, 71, 0
10, 113160, Note_on_c, 6, 76, 90
10, 113189, Note_on_c, 6, 76, 0
10, 113190, Note_on_c, 6, 74, 90
10, 113219, Note_on_c, 6, 74, 0
10, 113220, Note_on_c, 6, 73, 90
10, 113249, Note_on_c, 6, 73, 0
10, 113250, Note_on_c, 6, 71, 90
10, 113279, Note_on_c, 6, 71, 0
10, 113280, Note_on_c, 6, 73, 90
10, 113339, Note_on_c, 6, 73, 0
10, 113340, Note_on_c, 6, 71, 90
10, 113369, Note_on_c, 6, 71, 0
10, 113370, Note_on_c, 6, 73, 90
10, 113399, Note_on_c, 6, 73, 0
10, 113400, Note_on_c, 6, 69, 90
10, 113429, Note_on_c, 6, 69, 0
10, 113430, Note_on_c, 6, 73, 90
10, 113459, Note_on_c, 6, 73, 0
10, 113460, Note_on_c, 6, 74, 90
10, 113489, Note_on_c, 6, 74, 0
10, 113490, Note_on_c, 6, 76, 90
10, 113519, Note_on_c, 6, 76, 0
10, 113520, Note_on_c, 6, 78, 90
10, 113595, Note_on_c, 6, 78, 0
10, 113595, Note_on_c, 6, 74, 90
10, 113609, Note_on_c, 6, 74, 0
10, 113610, Note_on_c, 6, 73, 90
10, 113624, Note_on_c, 6, 73, 0
10, 113625, Note_on_c, 6, 74, 90
10, 113639, Note_on_c, 6, 74, 0
10, 113641, Note_on_c, 6, 78, 90
10, 113715, Note_on_c, 6, 74, 90
10, 113716, Note_on_c, 6, 78, 0
10, 113729, Note_on_c, 6, 74, 0
10, 113730, Note_on_c, 6, 73, 90
10, 113744, Note_on_c, 6, 73, 0
10, 113745, Note_on_c, 6, 74, 90
10, 113759, Note_on_c, 6, 74, 0
10, 113760, Note_on_c, 6, 78, 90
10, 113774, Note_on_c, 6, 78, 0
10, 113775, Note_on_c, 6, 68, 90
10, 113789, Note_on_c, 6, 68, 0
10, 113790, Note_on_c, 6, 69, 90
10, 113804, Note_on_c, 6, 69, 0
10, 113805, Note_on_c, 6, 71, 90
10, 113819, Note_on_c, 6, 71, 0
10, 113820, Note_on_c, 6, 73, 90
10, 113834, Note_on_c, 6, 73, 0
10, 113835, Note_on_c, 6, 74, 90
10, 113849, Note_on_c, 6, 74, 0
10, 113850, Note_on_c, 6, 76, 90
10, 113864, Note_on_c, 6, 76, 0
10, 113865, Note_on_c, 6, 78, 90
10, 113879, Note_on_c, 6, 78, 0
10, 113880, Note_on_c, 6, 80, 90
10, 113894, Note_on_c, 6, 80, 0
10, 113895, Note_on_c, 6, 76, 90
10, 113909, Note_on_c, 6, 76, 0
10, 113910, Note_on_c, 6, 74, 90
10, 113924, Note_on_c, 6, 74, 0
10, 113925, Note_on_c, 6, 76, 90
10, 113939, Note_on_c, 6, 76, 0
10, 113940, Note_on_c, 6, 78, 90
10, 113954, Note_on_c, 6, 78, 0
10, 113955, Note_on_c, 6, 74, 90
10, 113969, Note_on_c, 6, 74, 0
10, 113970, Note_on_c, 6, 73, 90
10, 113984, Note_on_c, 6, 73, 0
10, 113985, Note_on_c, 6, 74, 90
10, 113999, Note_on_c, 6, 74, 0
10, 114000, Note_on_c, 6, 76, 90
10, 114075, Note_on_c, 6, 76, 0
10, 114075, Note_on_c, 6, 73, 90
10, 114089, Note_on_c, 6, 73, 0
10, 114090, Note_on_c, 6, 71, 90
10, 114104, Note_on_c, 6, 71, 0
10, 114105, Note_on_c, 6, 73, 90
10, 114119, Note_on_c, 6, 73, 0
10, 114120, Note_on_c, 6, 76, 90
10, 114195, Note_on_c, 6, 76, 0
10, 114196, Note_on_c, 6, 73, 90
10, 114210, Note_on_c, 6, 73, 0
10, 114211, Note_on_c, 6, 71, 90
10, 114225, Note_on_c, 6, 71, 0
10, 114226, Note_on_c, 6, 73, 90
10, 114240, Note_on_c, 6, 73, 0
10, 114240, Note_on_c, 6, 76, 90
10, 114254, Note_on_c, 6, 76, 0
10, 114255, Note_on_c, 6, 66, 90
10, 114269, Note_on_c, 6, 66, 0
10, 114270, Note_on_c, 6, 68, 90
10, 114284, Note_on_c, 6, 68, 0
10, 114285, Note_on_c, 6, 69, 90
10, 114299, Note_on_c, 6, 69, 0
10, 114300, Note_on_c, 6, 71, 90
10, 114314, Note_on_c, 6, 71, 0
10, 114315, Note_on_c, 6, 73, 90
10, 114329, Note_on_c, 6, 73, 0
10, 114330, Note_on_c, 6, 74, 90
10, 114344, Note_on_c, 6, 74, 0
10, 114345, Note_on_c, 6, 76, 90
10, 114359, Note_on_c, 6, 76, 0
10, 114360, Note_on_c, 6, 78, 90
10, 114374, Note_on_c, 6, 78, 0
10, 114375, Note_on_c, 6, 74, 90
10, 114389, Note_on_c, 6, 74, 0
10, 114390, Note_on_c, 6, 73, 90
10, 114404, Note_on_c, 6, 73, 0
10, 114405, Note_on_c, 6, 74, 90
10, 114419, Note_on_c, 6, 74, 0
10, 114420, Note_on_c, 6, 76, 90
10, 114434, Note_on_c, 6, 76, 0
10, 114435, Note_on_c, 6, 73, 90
10, 114449, Note_on_c, 6, 73, 0
10, 114450, Note_on_c, 6, 71, 90
10, 114464, Note_on_c, 6, 71, 0
10, 114465, Note_on_c, 6, 73, 90
10, 114479, Note_on_c, 6, 73, 0
10, 114480, Note_on_c, 6, 74, 90
10, 114555, Note_on_c, 6, 74, 0
10, 114555, Note_on_c, 6, 71, 90
10, 114569, Note_on_c, 6, 71, 0
10, 114570, Note_on_c, 6, 69, 90
10, 114584, Note_on_c, 6, 69, 0
10, 114585, Note_on_c, 6, 71, 90
10, 114599, Note_on_c, 6, 71, 0
10, 114600, Note_on_c, 6, 74, 90
10, 114675, Note_on_c, 6, 74, 0
10, 114675, Note_on_c, 6, 71, 90
10, 114689, Note_on_c, 6, 71, 0
10, 114690, Note_on_c, 6, 69, 90
10, 114704, Note_on_c, 6, 69, 0
10, 114705, Note_on_c, 6, 71, 90
10, 114719, Note_on_c, 6, 71, 0
10, 114720, Note_on_c, 6, 74, 90
10, 114734, Note_on_c, 6, 74, 0
10, 114735, Note_on_c, 6, 64, 90
10, 114749, Note_on_c, 6, 64, 0
10, 114750, Note_on_c, 6, 66, 90
10, 114764, Note_on_c, 6, 66, 0
10, 114765, Note_on_c, 6, 68, 90
10, 114779, Note_on_c, 6, 68, 0
10, 114780, Note_on_c, 6, 69, 90
10, 114794, Note_on_c, 6, 69, 0
10, 114795, Note_on_c, 6, 71, 90
10, 114809, Note_on_c, 6, 71, 0
10, 114810, Note_on_c, 6, 73, 90
10, 114824, Note_on_c, 6, 73, 0
10, 114825, Note_on_c, 6, 74, 90
10, 114839, Note_on_c, 6, 74, 0
10, 114840, Note_on_c, 6, 76, 90
10, 114854, Note_on_c, 6, 76, 0
10, 114855, Note_on_c, 6, 73, 90
10, 114869, Note_on_c, 6, 73, 0
10, 114870, Note_on_c, 6, 71, 90
10, 114884, Note_on_c, 6, 71, 0
10, 114885, Note_on_c, 6, 73, 90
10, 114899, Note_on_c, 6, 73, 0
10, 114900, Note_on_c, 6, 74, 90
10, 114914, Note_on_c, 6, 74, 0
10, 114915, Note_on_c, 6, 71, 90
10, 114929, Note_on_c, 6, 71, 0
10, 114930, Note_on_c, 6, 69, 90
10, 114944, Note_on_c, 6, 69, 0
10, 114945, Note_on_c, 6, 71, 90
10, 114959, Note_on_c, 6, 71, 0
10, 114960, Note_on_c, 6, 73, 90
10, 114974, Note_on_c, 6, 73, 0
10, 114975, Note_on_c, 6, 71, 90
10, 114989, Note_on_c, 6, 71, 0
10, 114990, Note_on_c, 6, 73, 90
10, 115004, Note_on_c, 6, 73, 0
10, 115005, Note_on_c, 6, 74, 90
10, 115019, Note_on_c, 6, 74, 0
10, 115020, Note_on_c, 6, 76, 90
10, 115034, Note_on_c, 6, 76, 0
10, 115035, Note_on_c, 6, 78, 90
10, 115049, Note_on_c, 6, 78, 0
10, 115050, Note_on_c, 6, 80, 90
10, 115064, Note_on_c, 6, 80, 0
10, 115065, Note_on_c, 6, 81, 90
10, 115079, Note_on_c, 6, 81, 0
10, 115080, Note_on_c, 6, 83, 90
10, 115094, Note_on_c, 6, 83, 0
10, 115095, Note_on_c, 6, 80, 90
10, 115109, Note_on_c, 6, 80, 0
10, 115110, Note_on_c, 6, 78, 90
10, 115124, Note_on_c, 6, 78, 0
10, 115125, Note_on_c, 6, 80, 90
10, 115139, Note_on_c, 6, 80, 0
10, 115140, Note_on_c, 6, 81, 90
10, 115154, Note_on_c, 6, 81, 0
10, 115155, Note_on_c, 6, 78, 90
10, 115169, Note_on_c, 6, 78, 0
10, 115170, Note_on_c, 6, 76, 90
10, 115184, Note_on_c, 6, 76, 0
10, 115185, Note_on_c, 6, 78, 90
10, 115199, Note_on_c, 6, 78, 0
10, 115200, Note_on_c, 6, 80, 90
10, 115214, Note_on_c, 6, 80, 0
10, 115215, Note_on_c, 6, 76, 90
10, 115229, Note_on_c, 6, 76, 0
10, 115230, Note_on_c, 6, 74, 90
10, 115244, Note_on_c, 6, 74, 0
10, 115245, Note_on_c, 6, 76, 90
10, 115259, Note_on_c, 6, 76, 0
10, 115260, Note_on_c, 6, 78, 90
10, 115274, Note_on_c, 6, 78, 0
10, 115275, Note_on_c, 6, 74, 90
10, 115289, Note_on_c, 6, 74, 0
10, 115290, Note_on_c, 6, 73, 90
10, 115304, Note_on_c, 6, 73, 0
10, 115305, Note_on_c, 6, 74, 90
10, 115319, Note_on_c, 6, 74, 0
10, 115320, Note_on_c, 6, 76, 90
10, 115334, Note_on_c, 6, 76, 0
10, 115335, Note_on_c, 6, 73, 90
10, 115349, Note_on_c, 6, 73, 0
10, 115350, Note_on_c, 6, 71, 90
10, 115364, Note_on_c, 6, 71, 0
10, 115365, Note_on_c, 6, 73, 90
10, 115379, Note_on_c, 6, 73, 0
10, 115380, Note_on_c, 6, 74, 90
10, 115394, Note_on_c, 6, 74, 0
10, 115395, Note_on_c, 6, 71, 90
10, 115409, Note_on_c, 6, 71, 0
10, 115410, Note_on_c, 6, 69, 90
10, 115424, Note_on_c, 6, 69, 0
10, 115425, Note_on_c, 6, 71, 90
10, 115439, Note_on_c, 6, 71, 0
10, 115440, Note_on_c, 6, 73, 90
10, 115469, Note_on_c, 6, 73, 0
10, 115470, Note_on_c, 6, 76, 90
10, 115499, Note_on_c, 6, 76, 0
10, 115500, Note_on_c, 6, 81, 90
10, 115559, Note_on_c, 6, 81, 0
10, 115860, Note_on_c, 6, 68, 90
10, 115889, Note_on_c, 6, 68, 0
10, 115890, Note_on_c, 6, 69, 90
10, 115919, Note_on_c, 6, 69, 0
10, 115920, Note_on_c, 6, 71, 90
10, 115979, Note_on_c, 6, 71, 0
10, 115980, Note_on_c, 6, 69, 90
10, 116039, Note_on_c, 6, 69, 0
10, 116040, Note_on_c, 6, 71, 90
10, 116099, Note_on_c, 6, 71, 0
10, 116100, Note_on_c, 6, 73, 90
10, 116159, Note_on_c, 6, 73, 0
10, 116160, Note_on_c, 6, 74, 90
10, 116219, Note_on_c, 6, 74, 0
10, 116220, Note_on_c, 6, 69, 90
10, 116249, Note_on_c, 6, 69, 0
10, 116250, Note_on_c, 6, 74, 90
10, 116279, Note_on_c, 6, 74, 0
10, 116280, Note_on_c, 6, 78, 90
10, 116309, Note_on_c, 6, 78, 0
10, 116310, Note_on_c, 6, 76, 90
10, 116339, Note_on_c, 6, 76, 0
10, 116340, Note_on_c, 6, 74, 90
10, 116369, Note_on_c, 6, 74, 0
10, 116370, Note_on_c, 6, 73, 90
10, 116399, Note_on_c, 6, 73, 0
10, 116400, Note_on_c, 6, 74, 90
10, 116459, Note_on_c, 6, 74, 0
10, 116460, Note_on_c, 6, 69, 90
10, 116489, Note_on_c, 6, 69, 0
10, 116490, Note_on_c, 6, 74, 90
10, 116519, Note_on_c, 6, 74, 0
10, 116520, Note_on_c, 6, 78, 90
10, 116549, Note_on_c, 6, 78, 0
10, 116550, Note_on_c, 6, 76, 90
10, 116579, Note_on_c, 6, 76, 0
10, 116580, Note_on_c, 6, 74, 90
10, 116609, Note_on_c, 6, 74, 0
10, 116610, Note_on_c, 6, 73, 90
10, 116639, Note_on_c, 6, 73, 0
10, 116640, Note_on_c, 6, 74, 90
10, 116699, Note_on_c, 6, 74, 0
10, 116700, Note_on_c, 6, 64, 90
10, 116729, Note_on_c, 6, 64, 0
10, 116730, Note_on_c, 6, 73, 90
10, 116759, Note_on_c, 6, 73, 0
10, 116760, Note_on_c, 6, 74, 90
10, 116789, Note_on_c, 6, 74, 0
10, 116790, Note_on_c, 6, 73, 90
10, 116819, Note_on_c, 6, 73, 0
10, 116820, Note_on_c, 6, 71, 90
10, 116849, Note_on_c, 6, 71, 0
10, 116850, Note_on_c, 6, 69, 90
10, 116879, Note_on_c, 6, 69, 0
10, 116880, Note_on_c, 6, 71, 90
10, 116939, Note_on_c, 6, 71, 0
10, 116940, Note_on_c, 6, 64, 90
10, 116969, Note_on_c, 6, 64, 0
10, 116970, Note_on_c, 6, 74, 90
10, 116999, Note_on_c, 6, 74, 0
10, 117000, Note_on_c, 6, 76, 90
10, 117029, Note_on_c, 6, 76, 0
10, 117030, Note_on_c, 6, 74, 90
10, 117059, Note_on_c, 6, 74, 0
10, 117060, Note_on_c, 6, 73, 90
10, 117089, Note_on_c, 6, 73, 0
10, 117090, Note_on_c, 6, 71, 90
10, 117119, Note_on_c, 6, 71, 0
10, 117120, Note_on_c, 6, 73, 90
10, 117179, Note_on_c, 6, 73, 0
10, 117180, Note_on_c, 6, 76, 90
10, 117239, Note_on_c, 6, 76, 0
10, 117240, Note_on_c, 6, 74, 90
10, 117269, Note_on_c, 6, 74, 0
10, 117270, Note_on_c, 6, 73, 90
10, 117299, Note_on_c, 6, 73, 0
10, 117300, Note_on_c, 6, 71, 90
10, 117329, Note_on_c, 6, 71, 0
10, 117330, Note_on_c, 6, 73, 90
10, 117359, Note_on_c, 6, 73, 0
10, 117360, Note_on_c, 6, 69, 90
10, 117419, Note_on_c, 6, 69, 0
10, 117420, Note_on_c, 6, 73, 90
10, 117449, Note_on_c, 6, 73, 0
10, 117450, Note_on_c, 6, 74, 90
10, 117479, Note_on_c, 6, 74, 0
10, 117480, Note_on_c, 6, 76, 90
10, 117539, Note_on_c, 6, 76, 0
10, 117540, Note_on_c, 6, 78, 90
10, 117569, Note_on_c, 6, 78, 0
10, 117570, Note_on_c, 6, 80, 90
10, 117599, Note_on_c, 6, 80, 0
10, 117600, Note_on_c, 6, 81, 90
10, 117659, Note_on_c, 6, 81, 0
10, 118020, Note_on_c, 6, 64, 90
10, 118079, Note_on_c, 6, 64, 0
10, 118080, Note_on_c, 6, 69, 90
10, 118139, Note_on_c, 6, 69, 0
10, 118140, Note_on_c, 6, 69, 90
10, 118199, Note_on_c, 6, 69, 0
10, 118200, Note_on_c, 6, 69, 90
10, 118259, Note_on_c, 6, 69, 0
10, 118260, Note_on_c, 6, 69, 90
10, 118319, Note_on_c, 6, 69, 0
10, 118320, Note_on_c, 6, 69, 90
10, 118379, Note_on_c, 6, 69, 0
10, 118380, Note_on_c, 6, 64, 90
10, 118409, Note_on_c, 6, 64, 0
10, 118410, Note_on_c, 6, 69, 90
10, 118439, Note_on_c, 6, 69, 0
10, 118440, Note_on_c, 6, 73, 90
10, 118469, Note_on_c, 6, 73, 0
10, 118470, Note_on_c, 6, 71, 90
10, 118499, Note_on_c, 6, 71, 0
10, 118500, Note_on_c, 6, 69, 90
10, 118529, Note_on_c, 6, 69, 0
10, 118530, Note_on_c, 6, 68, 90
10, 118559, Note_on_c, 6, 68, 0
10, 118560, Note_on_c, 6, 69, 90
10, 118619, Note_on_c, 6, 69, 0
10, 118620, Note_on_c, 6, 64, 90
10, 118649, Note_on_c, 6, 64, 0
10, 118650, Note_on_c, 6, 69, 90
10, 118679, Note_on_c, 6, 69, 0
10, 118680, Note_on_c, 6, 74, 90
10, 118709, Note_on_c, 6, 74, 0
10, 118710, Note_on_c, 6, 73, 90
10, 118739, Note_on_c, 6, 73, 0
10, 118740, Note_on_c, 6, 71, 90
10, 118769, Note_on_c, 6, 71, 0
10, 118770, Note_on_c, 6, 69, 90
10, 118799, Note_on_c, 6, 69, 0
10, 118800, Note_on_c, 6, 71, 90
10, 118859, Note_on_c, 6, 71, 0
10, 118860, Note_on_c, 6, 64, 90
10, 118889, Note_on_c, 6, 64, 0
10, 118890, Note_on_c, 6, 71, 90
10, 118919, Note_on_c, 6, 71, 0
10, 118920, Note_on_c, 6, 76, 90
10, 118949, Note_on_c, 6, 76, 0
10, 118950, Note_on_c, 6, 74, 90
10, 118979, Note_on_c, 6, 74, 0
10, 118980, Note_on_c, 6, 73, 90
10, 119009, Note_on_c, 6, 73, 0
10, 119010, Note_on_c, 6, 71, 90
10, 119039, Note_on_c, 6, 71, 0
10, 119040, Note_on_c, 6, 73, 90
10, 119099, Note_on_c, 6, 73, 0
10, 119100, Note_on_c, 6, 71, 90
10, 119129, Note_on_c, 6, 71, 0
10, 119130, Note_on_c, 6, 73, 90
10, 119159, Note_on_c, 6, 73, 0
10, 119160, Note_on_c, 6, 69, 90
10, 119219, Note_on_c, 6, 69, 0
10, 119220, Note_on_c, 6, 73, 90
10, 119279, Note_on_c, 6, 73, 0
10, 119280, Note_on_c, 6, 71, 90
10, 119339, Note_on_c, 6, 71, 0
10, 119340, Note_on_c, 6, 71, 90
10, 119399, Note_on_c, 6, 71, 0
10, 119400, Note_on_c, 6, 71, 90
10, 119459, Note_on_c, 6, 71, 0
10, 119460, Note_on_c, 6, 71, 90
10, 119519, Note_on_c, 6, 71, 0
10, 119520, Note_on_c, 6, 71, 90
10, 119579, Note_on_c, 6, 71, 0
10, 119580, Note_on_c, 6, 73, 90
10, 119609, Note_on_c, 6, 73, 0
10, 119610, Note_on_c, 6, 75, 90
10, 119639, Note_on_c, 6, 75, 0
10, 119640, Note_on_c, 6, 76, 90
10, 119669, Note_on_c, 6, 76, 0
10, 119670, Note_on_c, 6, 78, 90
10, 119699, Note_on_c, 6, 78, 0
10, 119700, Note_on_c, 6, 80, 90
10, 119729, Note_on_c, 6, 80, 0
10, 119730, Note_on_c, 6, 76, 90
10, 119759, Note_on_c, 6, 76, 0
10, 119760, Note_on_c, 6, 69, 90
10, 119819, Note_on_c, 6, 69, 0
10, 119820, Note_on_c, 6, 71, 90
10, 119849, Note_on_c, 6, 71, 0
10, 119850, Note_on_c, 6, 73, 90
10, 119879, Note_on_c, 6, 73, 0
10, 119880, Note_on_c, 6, 75, 90
10, 119909, Note_on_c, 6, 75, 0
10, 119910, Note_on_c, 6, 76, 90
10, 119939, Note_on_c, 6, 76, 0
10, 119940, Note_on_c, 6, 78, 90
10, 119969, Note_on_c, 6, 78, 0
10, 119970, Note_on_c, 6, 75, 90
10, 119999, Note_on_c, 6, 75, 0
10, 120000, Note_on_c, 6, 76, 90
10, 120059, Note_on_c, 6, 76, 0
10, 120060, Note_on_c, 6, 71, 90
10, 120119, Note_on_c, 6, 71, 0
10, 120120, Note_on_c, 6, 68, 90
10, 120179, Note_on_c, 6, 68, 0
10, 120180, Note_on_c, 6, 66, 90
10, 120209, Note_on_c, 6, 66, 0
10, 120210, Note_on_c, 6, 64, 90
10, 120239, Note_on_c, 6, 64, 0
10, 120240, Note_on_c, 6, 64, 90
10, 120359, Note_on_c, 6, 64, 0
10, 120390, Note_on_c, 6, 66, 90
10, 120419, Note_on_c, 6, 66, 0
10, 120420, Note_on_c, 6, 68, 90
10, 120449, Note_on_c, 6, 68, 0
10, 120450, Note_on_c, 6, 69, 90
10, 120479, Note_on_c, 6, 69, 0
10, 120480, Note_on_c, 6, 71, 90
10, 120539, Note_on_c, 6, 71, 0
10, 120540, Note_on_c, 6, 73, 90
10, 120599, Note_on_c, 6, 73, 0
10, 120600, Note_on_c, 6, 71, 90
10, 120659, Note_on_c, 6, 71, 0
10, 120660, Note_on_c, 6, 69, 90
10, 120719, Note_on_c, 6, 69, 0
10, 120720, Note_on_c, 6, 71, 90
10, 120779, Note_on_c, 6, 71, 0
10, 120780, Note_on_c, 6, 69, 90
10, 120809, Note_on_c, 6, 69, 0
10, 120810, Note_on_c, 6, 71, 90
10, 120839, Note_on_c, 6, 71, 0
10, 120840, Note_on_c, 6, 68, 90
10, 120869, Note_on_c, 6, 68, 0
10, 120870, Note_on_c, 6, 69, 90
10, 120899, Note_on_c, 6, 69, 0
10, 120900, Note_on_c, 6, 71, 90
10, 120929, Note_on_c, 6, 71, 0
10, 120930, Note_on_c, 6, 73, 90
10, 120959, Note_on_c, 6, 73, 0
10, 120960, Note_on_c, 6, 74, 90
10, 121019, Note_on_c, 6, 74, 0
10, 121020, Note_on_c, 6, 69, 90
10, 121049, Note_on_c, 6, 69, 0
10, 121050, Note_on_c, 6, 74, 90
10, 121079, Note_on_c, 6, 74, 0
10, 121080, Note_on_c, 6, 78, 90
10, 121109, Note_on_c, 6, 78, 0
10, 121110, Note_on_c, 6, 76, 90
10, 121139, Note_on_c, 6, 76, 0
10, 121140, Note_on_c, 6, 74, 90
10, 121169, Note_on_c, 6, 74, 0
10, 121170, Note_on_c, 6, 73, 90
10, 121199, Note_on_c, 6, 73, 0
10, 121200, Note_on_c, 6, 74, 90
10, 121259, Note_on_c, 6, 74, 0
10, 121260, Note_on_c, 6, 69, 90
10, 121289, Note_on_c, 6, 69, 0
10, 121290, Note_on_c, 6, 74, 90
10, 121319, Note_on_c, 6, 74, 0
10, 121320, Note_on_c, 6, 78, 90
10, 121349, Note_on_c, 6, 78, 0
10, 121350, Note_on_c, 6, 76, 90
10, 121379, Note_on_c, 6, 76, 0
10, 121380, Note_on_c, 6, 74, 90
10, 121409, Note_on_c, 6, 74, 0
10, 121410, Note_on_c, 6, 73, 90
10, 121439, Note_on_c, 6, 73, 0
10, 121440, Note_on_c, 6, 74, 90
10, 121499, Note_on_c, 6, 74, 0
10, 121500, Note_on_c, 6, 64, 90
10, 121529, Note_on_c, 6, 64, 0
10, 121530, Note_on_c, 6, 73, 90
10, 121559, Note_on_c, 6, 73, 0
10, 121560, Note_on_c, 6, 74, 90
10, 121589, Note_on_c, 6, 74, 0
10, 121590, Note_on_c, 6, 73, 90
10, 121619, Note_on_c, 6, 73, 0
10, 121620, Note_on_c, 6, 71, 90
10, 121649, Note_on_c, 6, 71, 0
10, 121650, Note_on_c, 6, 69, 90
10, 121679, Note_on_c, 6, 69, 0
10, 121680, Note_on_c, 6, 71, 90
10, 121739, Note_on_c, 6, 71, 0
10, 121740, Note_on_c, 6, 64, 90
10, 121769, Note_on_c, 6, 64, 0
10, 121770, Note_on_c, 6, 74, 90
10, 121799, Note_on_c, 6, 74, 0
10, 121800, Note_on_c, 6, 76, 90
10, 121829, Note_on_c, 6, 76, 0
10, 121830, Note_on_c, 6, 74, 90
10, 121859, Note_on_c, 6, 74, 0
10, 121860, Note_on_c, 6, 73, 90
10, 121889, Note_on_c, 6, 73, 0
10, 121890, Note_on_c, 6, 71, 90
10, 121919, Note_on_c, 6, 71, 0
10, 121920, Note_on_c, 6, 74, 90
10, 121949, Note_on_c, 6, 74, 0
10, 121950, Note_on_c, 6, 73, 90
10, 121979, Note_on_c, 6, 73, 0
10, 121980, Note_on_c, 6, 71, 90
10, 122009, Note_on_c, 6, 71, 0
10, 122010, Note_on_c, 6, 69, 90
10, 122039, Note_on_c, 6, 69, 0
10, 122040, Note_on_c, 6, 71, 90
10, 122099, Note_on_c, 6, 71, 0
10, 122100, Note_on_c, 6, 68, 90
10, 122159, Note_on_c, 6, 68, 0
10, 122160, Note_on_c, 6, 69, 90
10, 122219, Note_on_c, 6, 69, 0
10, 122220, Note_on_c, 6, 73, 90
10, 122249, Note_on_c, 6, 73, 0
10, 122250, Note_on_c, 6, 74, 90
10, 122279, Note_on_c, 6, 74, 0
10, 122280, Note_on_c, 6, 76, 90
10, 122339, Note_on_c, 6, 76, 0
10, 122340, Note_on_c, 6, 78, 90
10, 122369, Note_on_c, 6, 78, 0
10, 122370, Note_on_c, 6, 80, 90
10, 122399, Note_on_c, 6, 80, 0
10, 122400, Note_on_c, 6, 81, 90
10, 122459, Note_on_c, 6, 81, 0
10, 122460, Note_on_c, 6, 69, 90
10, 122519, Note_on_c, 6, 69, 0
10, 122520, Note_on_c, 6, 64, 90
10, 122579, Note_on_c, 6, 64, 0
10, 122580, Note_on_c, 6, 68, 90
10, 122639, Note_on_c, 6, 68, 0
10, 122640, Note_on_c, 6, 69, 90
10, 122759, Note_on_c, 6, 69, 0
10, 155520, Note_on_c, 6, 69, 100
10, 155550, Note_on_c, 6, 69, 0
10, 155550, Note_on_c, 6, 71, 100
10, 155580, Note_on_c, 6, 71, 0
10, 155580, Note_on_c, 6, 73, 100
10, 155700, Note_on_c, 6, 73, 0
10, 155700, Note_on_c, 6, 71, 100
10, 155760, Note_on_c, 6, 71, 0
10, 155760, Note_on_c, 6, 69, 100
10, 155820, Note_on_c, 6, 69, 0
10, 155820, Note_on_c, 6, 68, 100
10, 155850, Note_on_c, 6, 68, 0
10, 155850, Note_on_c, 6, 66, 100
10, 155880, Note_on_c, 6, 66, 0
10, 155880, Note_on_c, 6, 68, 100
10, 155940, Note_on_c, 6, 68, 0
10, 155940, Note_on_c, 6, 65, 100
10, 156000, Note_on_c, 6, 65, 0
10, 156000, Note_on_c, 6, 66, 100
10, 156030, Note_on_c, 6, 66, 0
10, 156030, Note_on_c, 6, 61, 100
10, 156060, Note_on_c, 6, 61, 0
10, 156060, Note_on_c, 6, 66, 100
10, 156090, Note_on_c, 6, 66, 0
10, 156090, Note_on_c, 6, 69, 100
10, 156120, Note_on_c, 6, 69, 0
10, 156120, Note_on_c, 6, 68, 100
10, 156150, Note_on_c, 6, 68, 0
10, 156150, Note_on_c, 6, 66, 100
10, 156180, Note_on_c, 6, 66, 0
10, 156180, Note_on_c, 6, 65, 100
10, 156210, Note_on_c, 6, 65, 0
10, 156210, Note_on_c, 6, 66, 100
10, 156240, Note_on_c, 6, 66, 0
10, 156240, Note_on_c, 6, 68, 100
10, 156270, Note_on_c, 6, 68, 0
10, 156270, Note_on_c, 6, 61, 100
10, 156300, Note_on_c, 6, 61, 0
10, 156300, Note_on_c, 6, 68, 100
10, 156330, Note_on_c, 6, 68, 0
10, 156330, Note_on_c, 6, 71, 100
10, 156360, Note_on_c, 6, 71, 0
10, 156360, Note_on_c, 6, 69, 100
10, 156390, Note_on_c, 6, 69, 0
10, 156390, Note_on_c, 6, 68, 100
10, 156420, Note_on_c, 6, 68, 0
10, 156420, Note_on_c, 6, 66, 100
10, 156450, Note_on_c, 6, 66, 0
10, 156450, Note_on_c, 6, 68, 100
10, 156480, Note_on_c, 6, 68, 0
10, 156480, Note_on_c, 6, 69, 100
10, 156540, Note_on_c, 6, 69, 0
10, 156540, Note_on_c, 6, 71, 100
10, 156555, Note_on_c, 6, 71, 0
10, 156555, Note_on_c, 6, 73, 100
10, 156570, Note_on_c, 6, 73, 0
10, 156570, Note_on_c, 6, 74, 100
10, 156660, Note_on_c, 6, 74, 0
10, 156660, Note_on_c, 6, 73, 100
10, 156720, Note_on_c, 6, 73, 0
10, 156720, Note_on_c, 6, 71, 100
10, 156780, Note_on_c, 6, 71, 0
10, 156780, Note_on_c, 6, 69, 100
10, 156810, Note_on_c, 6, 69, 0
10, 156810, Note_on_c, 6, 68, 100
10, 156840, Note_on_c, 6, 68, 0
10, 156840, Note_on_c, 6, 76, 100
10, 156900, Note_on_c, 6, 76, 0
10, 156900, Note_on_c, 6, 71, 100
10, 156960, Note_on_c, 6, 71, 0
10, 156960, Note_on_c, 6, 73, 100
10, 156990, Note_on_c, 6, 73, 0
10, 156990, Note_on_c, 6, 71, 100
10, 157020, Note_on_c, 6, 71, 0
10, 157020, Note_on_c, 6, 69, 100
10, 157050, Note_on_c, 6, 69, 0
10, 157050, Note_on_c, 6, 68, 100
10, 157080, Note_on_c, 6, 68, 0
10, 157080, Note_on_c, 6, 69, 100
10, 157110, Note_on_c, 6, 69, 0
10, 157110, Note_on_c, 6, 71, 100
10, 157140, Note_on_c, 6, 71, 0
10, 157140, Note_on_c, 6, 73, 100
10, 157170, Note_on_c, 6, 73, 0
10, 157170, Note_on_c, 6, 74, 100
10, 157200, Note_on_c, 6, 74, 0
10, 157200, Note_on_c, 6, 76, 100
10, 157230, Note_on_c, 6, 76, 0
10, 157230, Note_on_c, 6, 78, 100
10, 157260, Note_on_c, 6, 78, 0
10, 157260, Note_on_c, 6, 79, 100
10, 157380, Note_on_c, 6, 79, 0
10, 157380, Note_on_c, 6, 78, 100
10, 157440, Note_on_c, 6, 78, 0
10, 157440, Note_on_c, 6, 76, 100
10, 157470, Note_on_c, 6, 76, 0
10, 157470, Note_on_c, 6, 74, 100
10, 157500, Note_on_c, 6, 74, 0
10, 157500, Note_on_c, 6, 73, 100
10, 157530, Note_on_c, 6, 73, 0
10, 157530, Note_on_c, 6, 71, 100
10, 157560, Note_on_c, 6, 71, 0
10, 157560, Note_on_c, 6, 80, 100
10, 157590, Note_on_c, 6, 80, 0
10, 157590, Note_on_c, 6, 71, 100
10, 157620, Note_on_c, 6, 71, 0
10, 157620, Note_on_c, 6, 73, 100
10, 157650, Note_on_c, 6, 73, 0
10, 157650, Note_on_c, 6, 68, 100
10, 157680, Note_on_c, 6, 68, 0
10, 157680, Note_on_c, 6, 69, 100
10, 157710, Note_on_c, 6, 69, 0
10, 157710, Note_on_c, 6, 65, 100
10, 157740, Note_on_c, 6, 65, 0
10, 157740, Note_on_c, 6, 66, 100
10, 157770, Note_on_c, 6, 66, 0
10, 157770, Note_on_c, 6, 74, 100
10, 157800, Note_on_c, 6, 74, 0
10, 157800, Note_on_c, 6, 71, 100
10, 157815, Note_on_c, 6, 71, 0
10, 157815, Note_on_c, 6, 73, 100
10, 157830, Note_on_c, 6, 73, 0
10, 157830, Note_on_c, 6, 71, 100
10, 157840, Note_on_c, 6, 71, 0
10, 157840, Note_on_c, 6, 73, 100
10, 157850, Note_on_c, 6, 73, 0
10, 157850, Note_on_c, 6, 71, 100
10, 157860, Note_on_c, 6, 71, 0
10, 157860, Note_on_c, 6, 73, 100
10, 157875, Note_on_c, 6, 73, 0
10, 157875, Note_on_c, 6, 71, 100
10, 157890, Note_on_c, 6, 71, 0
10, 157890, Note_on_c, 6, 73, 100
10, 157920, Note_on_c, 6, 73, 0
10, 157920, Note_on_c, 6, 73, 100
10, 158070, Note_on_c, 6, 73, 0
10, 158070, Note_on_c, 6, 71, 100
10, 158100, Note_on_c, 6, 71, 0
10, 158100, Note_on_c, 6, 71, 100
10, 158130, Note_on_c, 6, 71, 0
10, 158130, Note_on_c, 6, 70, 100
10, 158160, Note_on_c, 6, 70, 0
10, 158160, Note_on_c, 6, 70, 100
10, 158190, Note_on_c, 6, 70, 0
10, 158190, Note_on_c, 6, 79, 100
10, 158220, Note_on_c, 6, 79, 0
10, 158220, Note_on_c, 6, 78, 100
10, 158250, Note_on_c, 6, 78, 0
10, 158250, Note_on_c, 6, 71, 100
10, 158280, Note_on_c, 6, 71, 0
10, 158280, Note_on_c, 6, 70, 100
10, 158310, Note_on_c, 6, 70, 0
10, 158310, Note_on_c, 6, 76, 100
10, 158340, Note_on_c, 6, 76, 0
10, 158340, Note_on_c, 6, 74, 100
10, 158370, Note_on_c, 6, 74, 0
10, 158370, Note_on_c, 6, 73, 100
10, 158400, Note_on_c, 6, 73, 0
10, 158400, Note_on_c, 6, 74, 100
10, 158430, Note_on_c, 6, 74, 0
10, 158430, Note_on_c, 6, 73, 100
10, 158460, Note_on_c, 6, 73, 0
10, 158460, Note_on_c, 6, 71, 100
10, 158550, Note_on_c, 6, 71, 0
10, 158550, Note_on_c, 6, 69, 100
10, 158580, Note_on_c, 6, 69, 0
10, 158580, Note_on_c, 6, 69, 100
10, 158610, Note_on_c, 6, 69, 0
10, 158610, Note_on_c, 6, 68, 100
10, 158640, Note_on_c, 6, 68, 0
10, 158640, Note_on_c, 6, 68, 100
10, 158670, Note_on_c, 6, 68, 0
10, 158670, Note_on_c, 6, 74, 100
10, 158700, Note_on_c, 6, 74, 0
10, 158700, Note_on_c, 6, 73, 100
10, 158730, Note_on_c, 6, 73, 0
10, 158730, Note_on_c, 6, 66, 100
10, 158760, Note_on_c, 6, 66, 0
10, 158760, Note_on_c, 6, 65, 100
10, 158790, Note_on_c, 6, 65, 0
10, 158790, Note_on_c, 6, 71, 100
10, 158820, Note_on_c, 6, 71, 0
10, 158820, Note_on_c, 6, 69, 100
10, 158850, Note_on_c, 6, 69, 0
10, 158850, Note_on_c, 6, 68, 100
10, 158880, Note_on_c, 6, 68, 0
10, 158880, Note_on_c, 6, 69, 100
10, 158910, Note_on_c, 6, 69, 0
10, 158910, Note_on_c, 6, 68, 100
10, 158940, Note_on_c, 6, 68, 0
10, 158940, Note_on_c, 6, 66, 100
10, 159030, Note_on_c, 6, 66, 0
10, 159030, Note_on_c, 6, 73, 100
10, 159060, Note_on_c, 6, 73, 0
10, 159060, Note_on_c, 6, 73, 100
10, 159090, Note_on_c, 6, 73, 0
10, 159090, Note_on_c, 6, 72, 100
10, 159120, Note_on_c, 6, 72, 0
10, 159120, Note_on_c, 6, 72, 100
10, 159150, Note_on_c, 6, 72, 0
10, 159150, Note_on_c, 6, 81, 100
10, 159180, Note_on_c, 6, 81, 0
10, 159180, Note_on_c, 6, 80, 100
10, 159210, Note_on_c, 6, 80, 0
10, 159210, Note_on_c, 6, 73, 100
10, 159240, Note_on_c, 6, 73, 0
10, 159240, Note_on_c, 6, 72, 100
10, 159270, Note_on_c, 6, 72, 0
10, 159270, Note_on_c, 6, 75, 100
10, 159300, Note_on_c, 6, 75, 0
10, 159300, Note_on_c, 6, 68, 100
10, 159330, Note_on_c, 6, 68, 0
10, 159330, Note_on_c, 6, 66, 100
10, 159360, Note_on_c, 6, 66, 0
10, 159360, Note_on_c, 6, 65, 100
10, 159390, Note_on_c, 6, 65, 0
10, 159390, Note_on_c, 6, 74, 100
10, 159420, Note_on_c, 6, 74, 0
10, 159420, Note_on_c, 6, 73, 100
10, 159450, Note_on_c, 6, 73, 0
10, 159450, Note_on_c, 6, 66, 100
10, 159480, Note_on_c, 6, 66, 0
10, 159480, Note_on_c, 6, 65, 100
10, 159510, Note_on_c, 6, 65, 0
10, 159510, Note_on_c, 6, 68, 100
10, 159540, Note_on_c, 6, 68, 0
10, 159540, Note_on_c, 6, 61, 100
10, 159570, Note_on_c, 6, 61, 0
10, 159570, Note_on_c, 6, 59, 100
10, 159600, Note_on_c, 6, 59, 0
10, 159600, Note_on_c, 6, 57, 100
10, 159630, Note_on_c, 6, 57, 0
10, 159630, Note_on_c, 6, 61, 100
10, 159660, Note_on_c, 6, 61, 0
10, 159660, Note_on_c, 6, 66, 100
10, 159690, Note_on_c, 6, 66, 0
10, 159690, Note_on_c, 6, 71, 100
10, 159720, Note_on_c, 6, 71, 0
10, 159720, Note_on_c, 6, 68, 100
10, 159735, Note_on_c, 6, 68, 0
10, 159735, Note_on_c, 6, 69, 100
10, 159750, Note_on_c, 6, 69, 0
10, 159750, Note_on_c, 6, 68, 100
10, 159760, Note_on_c, 6, 68, 0
10, 159760, Note_on_c, 6, 69, 100
10, 159770, Note_on_c, 6, 69, 0
10, 159770, Note_on_c, 6, 68, 100
10, 159780, Note_on_c, 6, 68, 0
10, 159780, Note_on_c, 6, 69, 100
10, 159795, Note_on_c, 6, 69, 0
10, 159795, Note_on_c, 6, 68, 100
10, 159810, Note_on_c, 6, 68, 0
10, 159810, Note_on_c, 6, 66, 100
10, 159840, Note_on_c, 6, 66, 0
10, 159840, Note_on_c, 6, 66, 100
10, 159960, Note_on_c, 6, 66, 0
10, 160350, Note_on_c, 6, 61, 100
10, 160380, Note_on_c, 6, 61, 0
10, 160380, Note_on_c, 6, 66, 100
10, 160410, Note_on_c, 6, 66, 0
10, 160410, Note_on_c, 6, 69, 100
10, 160440, Note_on_c, 6, 69, 0
10, 160440, Note_on_c, 6, 68, 100
10, 160470, Note_on_c, 6, 68, 0
10, 160470, Note_on_c, 6, 66, 100
10, 160500, Note_on_c, 6, 66, 0
10, 160500, Note_on_c, 6, 65, 100
10, 160530, Note_on_c, 6, 65, 0
10, 160530, Note_on_c, 6, 66, 100
10, 160560, Note_on_c, 6, 66, 0
10, 160560, Note_on_c, 6, 68, 100
10, 160590, Note_on_c, 6, 68, 0
10, 160590, Note_on_c, 6, 61, 100
10, 160620, Note_on_c, 6, 61, 0
10, 160620, Note_on_c, 6, 68, 100
10, 160650, Note_on_c, 6, 68, 0
10, 160650, Note_on_c, 6, 71, 100
10, 160680, Note_on_c, 6, 71, 0
10, 160680, Note_on_c, 6, 69, 100
10, 160710, Note_on_c, 6, 69, 0
10, 160710, Note_on_c, 6, 68, 100
10, 160740, Note_on_c, 6, 68, 0
10, 160740, Note_on_c, 6, 66, 100
10, 160770, Note_on_c, 6, 66, 0
10, 160770, Note_on_c, 6, 68, 100
10, 160800, Note_on_c, 6, 68, 0
10, 160800, Note_on_c, 6, 69, 100
10, 160860, Note_on_c, 6, 69, 0
10, 160860, Note_on_c, 6, 66, 100
10, 160920, Note_on_c, 6, 66, 0
10, 161340, Note_on_c, 6, 69, 100
10, 161370, Note_on_c, 6, 69, 0
10, 161370, Note_on_c, 6, 68, 100
10, 161400, Note_on_c, 6, 68, 0
10, 161400, Note_on_c, 6, 69, 100
10, 161430, Note_on_c, 6, 69, 0
10, 161430, Note_on_c, 6, 71, 100
10, 161460, Note_on_c, 6, 71, 0
10, 161460, Note_on_c, 6, 73, 100
10, 161490, Note_on_c, 6, 73, 0
10, 161490, Note_on_c, 6, 74, 100
10, 161520, Note_on_c, 6, 74, 0
10, 161520, Note_on_c, 6, 76, 100
10, 161550, Note_on_c, 6, 76, 0
10, 161550, Note_on_c, 6, 78, 100
10, 161580, Note_on_c, 6, 78, 0
10, 161580, Note_on_c, 6, 79, 100
10, 161700, Note_on_c, 6, 79, 0
10, 161700, Note_on_c, 6, 78, 100
10, 161760, Note_on_c, 6, 78, 0
10, 161760, Note_on_c, 6, 76, 100
10, 161790, Note_on_c, 6, 76, 0
10, 161790, Note_on_c, 6, 74, 100
10, 161820, Note_on_c, 6, 74, 0
10, 161820, Note_on_c, 6, 73, 100
10, 161850, Note_on_c, 6, 73, 0
10, 161850, Note_on_c, 6, 71, 100
10, 161880, Note_on_c, 6, 71, 0
10, 161880, Note_on_c, 6, 80, 100
10, 162030, Note_on_c, 6, 80, 0
10, 162030, Note_on_c, 6, 77, 100
10, 162060, Note_on_c, 6, 77, 0
10, 162060, Note_on_c, 6, 78, 100
10, 162090, Note_on_c, 6, 78, 0
10, 162090, Note_on_c, 6, 74, 100
10, 162120, Note_on_c, 6, 74, 0
10, 162120, Note_on_c, 6, 71, 100
10, 162210, Note_on_c, 6, 71, 0
10, 162210, Note_on_c, 6, 73, 100
10, 162240, Note_on_c, 6, 73, 0
10, 162240, Note_on_c, 6, 73, 100
10, 162390, Note_on_c, 6, 73, 0
10, 162390, Note_on_c, 6, 71, 90
10, 162419, Note_on_c, 6, 71, 0
10, 162420, Note_on_c, 6, 71, 90
10, 162449, Note_on_c, 6, 71, 0
10, 162450, Note_on_c, 6, 70, 90
10, 162479, Note_on_c, 6, 70, 0
10, 162480, Note_on_c, 6, 70, 90
10, 162509, Note_on_c, 6, 70, 0
10, 162510, Note_on_c, 6, 79, 90
10, 162539, Note_on_c, 6, 79, 0
10, 162540, Note_on_c, 6, 78, 90
10, 162569, Note_on_c, 6, 78, 0
10, 162570, Note_on_c, 6, 71, 90
10, 162599, Note_on_c, 6, 71, 0
10, 162600, Note_on_c, 6, 70, 90
10, 162629, Note_on_c, 6, 70, 0
10, 162630, Note_on_c, 6, 76, 90
10, 162659, Note_on_c, 6, 76, 0
10, 162660, Note_on_c, 6, 74, 90
10, 162689, Note_on_c, 6, 74, 0
10, 162690, Note_on_c, 6, 73, 90
10, 162719, Note_on_c, 6, 73, 0
10, 162720, Note_on_c, 6, 74, 90
10, 162749, Note_on_c, 6, 74, 0
10, 162750, Note_on_c, 6, 73, 90
10, 162779, Note_on_c, 6, 73, 0
10, 162780, Note_on_c, 6, 71, 90
10, 162869, Note_on_c, 6, 71, 0
10, 162870, Note_on_c, 6, 69, 90
10, 162899, Note_on_c, 6, 69, 0
10, 162900, Note_on_c, 6, 69, 90
10, 162929, Note_on_c, 6, 69, 0
10, 162930, Note_on_c, 6, 68, 90
10, 162959, Note_on_c, 6, 68, 0
10, 162960, Note_on_c, 6, 68, 90
10, 162989, Note_on_c, 6, 68, 0
10, 162990, Note_on_c, 6, 78, 90
10, 163019, Note_on_c, 6, 78, 0
10, 163020, Note_on_c, 6, 76, 90
10, 163049, Note_on_c, 6, 76, 0
10, 163050, Note_on_c, 6, 69, 90
10, 163079, Note_on_c, 6, 69, 0
10, 163080, Note_on_c, 6, 68, 90
10, 163109, Note_on_c, 6, 68, 0
10, 163110, Note_on_c, 6, 74, 90
10, 163139, Note_on_c, 6, 74, 0
10, 163140, Note_on_c, 6, 73, 90
10, 163169, Note_on_c, 6, 73, 0
10, 163170, Note_on_c, 6, 71, 90
10, 163199, Note_on_c, 6, 71, 0
10, 163200, Note_on_c, 6, 73, 90
10, 163229, Note_on_c, 6, 73, 0
10, 163230, Note_on_c, 6, 71, 90
10, 163259, Note_on_c, 6, 71, 0
10, 163260, Note_on_c, 6, 69, 90
10, 163349, Note_on_c, 6, 69, 0
10, 163350, Note_on_c, 6, 68, 90
10, 163379, Note_on_c, 6, 68, 0
10, 163380, Note_on_c, 6, 66, 90
10, 163409, Note_on_c, 6, 66, 0
10, 163410, Note_on_c, 6, 65, 90
10, 163439, Note_on_c, 6, 65, 0
10, 163440, Note_on_c, 6, 66, 90
10, 163500, Note_on_c, 6, 66, 0
10, 163500, Note_on_c, 6, 61, 90
10, 163560, Note_on_c, 6, 61, 0
10, 163740, Note_on_c, 6, 74, 90
10, 163859, Note_on_c, 6, 74, 0
10, 163860, Note_on_c, 6, 73, 90
10, 163919, Note_on_c, 6, 73, 0
10, 163920, Note_on_c, 6, 71, 90
10, 163979, Note_on_c, 6, 71, 0
10, 163980, Note_on_c, 6, 68, 90
10, 164039, Note_on_c, 6, 68, 0
10, 164040, Note_on_c, 6, 73, 90
10, 164099, Note_on_c, 6, 73, 0
10, 164100, Note_on_c, 6, 71, 90
10, 164159, Note_on_c, 6, 71, 0
10, 164160, Note_on_c, 6, 69, 90
10, 164189, Note_on_c, 6, 69, 0
10, 164190, Note_on_c, 6, 66, 90
10, 164219, Note_on_c, 6, 66, 0
10, 164220, Note_on_c, 6, 69, 90
10, 164249, Note_on_c, 6, 69, 0
10, 164250, Note_on_c, 6, 73, 90
10, 164279, Note_on_c, 6, 73, 0
10, 164280, Note_on_c, 6, 71, 90
10, 164309, Note_on_c, 6, 71, 0
10, 164310, Note_on_c, 6, 69, 90
10, 164339, Note_on_c, 6, 69, 0
10, 164340, Note_on_c, 6, 68, 90
10, 164369, Note_on_c, 6, 68, 0
10, 164370, Note_on_c, 6, 69, 90
10, 164399, Note_on_c, 6, 69, 0
10, 164400, Note_on_c, 6, 71, 90
10, 164429, Note_on_c, 6, 71, 0
10, 164430, Note_on_c, 6, 61, 90
10, 164459, Note_on_c, 6, 61, 0
10, 164460, Note_on_c, 6, 68, 90
10, 164489, Note_on_c, 6, 68, 0
10, 164490, Note_on_c, 6, 71, 90
10, 164519, Note_on_c, 6, 71, 0
10, 164520, Note_on_c, 6, 69, 90
10, 164549, Note_on_c, 6, 69, 0
10, 164550, Note_on_c, 6, 68, 90
10, 164579, Note_on_c, 6, 68, 0
10, 164580, Note_on_c, 6, 66, 90
10, 164609, Note_on_c, 6, 66, 0
10, 164610, Note_on_c, 6, 68, 90
10, 164639, Note_on_c, 6, 68, 0
10, 164640, Note_on_c, 6, 69, 90
10, 164669, Note_on_c, 6, 69, 0
10, 164670, Note_on_c, 6, 61, 90
10, 164699, Note_on_c, 6, 61, 0
10, 164700, Note_on_c, 6, 66, 90
10, 164729, Note_on_c, 6, 66, 0
10, 164730, Note_on_c, 6, 69, 90
10, 164759, Note_on_c, 6, 69, 0
10, 164760, Note_on_c, 6, 68, 90
10, 164789, Note_on_c, 6, 68, 0
10, 164790, Note_on_c, 6, 66, 90
10, 164819, Note_on_c, 6, 66, 0
10, 164820, Note_on_c, 6, 64, 90
10, 164849, Note_on_c, 6, 64, 0
10, 164850, Note_on_c, 6, 66, 90
10, 164879, Note_on_c, 6, 66, 0
10, 164880, Note_on_c, 6, 68, 90
10, 164909, Note_on_c, 6, 68, 0
10, 164910, Note_on_c, 6, 60, 90
10, 164939, Note_on_c, 6, 60, 0
10, 164940, Note_on_c, 6, 63, 90
10, 164969, Note_on_c, 6, 63, 0
10, 164970, Note_on_c, 6, 66, 90
10, 164999, Note_on_c, 6, 66, 0
10, 165000, Note_on_c, 6, 64, 90
10, 165029, Note_on_c, 6, 64, 0
10, 165030, Note_on_c, 6, 63, 90
10, 165059, Note_on_c, 6, 63, 0
10, 165060, Note_on_c, 6, 61, 90
10, 165089, Note_on_c, 6, 61, 0
10, 165090, Note_on_c, 6, 63, 90
10, 165119, Note_on_c, 6, 63, 0
10, 165120, Note_on_c, 6, 64, 90
10, 165149, Note_on_c, 6, 64, 0
10, 165150, Note_on_c, 6, 66, 90
10, 165179, Note_on_c, 6, 66, 0
10, 165180, Note_on_c, 6, 68, 90
10, 165269, Note_on_c, 6, 68, 0
10, 165270, Note_on_c, 6, 69, 90
10, 165299, Note_on_c, 6, 69, 0
10, 165300, Note_on_c, 6, 71, 90
10, 165329, Note_on_c, 6, 71, 0
10, 165330, Note_on_c, 6, 73, 90
10, 165359, Note_on_c, 6, 73, 0
10, 165360, Note_on_c, 6, 74, 90
10, 165419, Note_on_c, 6, 74, 0
10, 165420, Note_on_c, 6, 71, 90
10, 165479, Note_on_c, 6, 71, 0
10, 165480, Note_on_c, 6, 77, 90
10, 165569, Note_on_c, 6, 77, 0
10, 165570, Note_on_c, 6, 78, 90
10, 165599, Note_on_c, 6, 78, 0
10, 165600, Note_on_c, 6, 78, 90
10, 165629, Note_on_c, 6, 78, 0
10, 165630, Note_on_c, 6, 80, 90
10, 165659, Note_on_c, 6, 80, 0
10, 165660, Note_on_c, 6, 81, 90
10, 165749, Note_on_c, 6, 81, 0
10, 165750, Note_on_c, 6, 78, 90
10, 165779, Note_on_c, 6, 78, 0
10, 165780, Note_on_c, 6, 80, 90
10, 165809, Note_on_c, 6, 80, 0
10, 165810, Note_on_c, 6, 75, 90
10, 165839, Note_on_c, 6, 75, 0
10, 165840, Note_on_c, 6, 76, 90
10, 165959, Note_on_c, 6, 76, 0
10, 165990, Note_on_c, 6, 78, 90
10, 166004, Note_on_c, 6, 78, 0
10, 166005, Note_on_c, 6, 76, 90
10, 166019, Note_on_c, 6, 76, 0
10, 166020, Note_on_c, 6, 75, 90
10, 166049, Note_on_c, 6, 75, 0
10, 166050, Note_on_c, 6, 76, 90
10, 166064, Note_on_c, 6, 76, 0
10, 166065, Note_on_c, 6, 73, 90
10, 166079, Note_on_c, 6, 73, 0
10, 166080, Note_on_c, 6, 72, 90
10, 166109, Note_on_c, 6, 72, 0
10, 166110, Note_on_c, 6, 73, 90
10, 166139, Note_on_c, 6, 73, 0
10, 166140, Note_on_c, 6, 75, 90
10, 166169, Note_on_c, 6, 75, 0
10, 166170, Note_on_c, 6, 72, 90
10, 166199, Note_on_c, 6, 72, 0
10, 166200, Note_on_c, 6, 68, 90
10, 166259, Note_on_c, 6, 68, 0
10, 166830, Note_on_c, 6, 59, 90
10, 166859, Note_on_c, 6, 59, 0
10, 166860, Note_on_c, 6, 66, 90
10, 166889, Note_on_c, 6, 66, 0
10, 166890, Note_on_c, 6, 69, 90
10, 166919, Note_on_c, 6, 69, 0
10, 166920, Note_on_c, 6, 68, 90
10, 166949, Note_on_c, 6, 68, 0
10, 166950, Note_on_c, 6, 66, 90
10, 166979, Note_on_c, 6, 66, 0
10, 166980, Note_on_c, 6, 64, 90
10, 167009, Note_on_c, 6, 64, 0
10, 167010, Note_on_c, 6, 66, 90
10, 167039, Note_on_c, 6, 66, 0
10, 167040, Note_on_c, 6, 68, 90
10, 167159, Note_on_c, 6, 68, 0
10, 167310, Note_on_c, 6, 61, 90
10, 167339, Note_on_c, 6, 61, 0
10, 167340, Note_on_c, 6, 68, 90
10, 167369, Note_on_c, 6, 68, 0
10, 167370, Note_on_c, 6, 71, 90
10, 167399, Note_on_c, 6, 71, 0
10, 167400, Note_on_c, 6, 69, 90
10, 167429, Note_on_c, 6, 69, 0
10, 167430, Note_on_c, 6, 68, 90
10, 167459, Note_on_c, 6, 68, 0
10, 167460, Note_on_c, 6, 66, 90
10, 167489, Note_on_c, 6, 66, 0
10, 167490, Note_on_c, 6, 68, 90
10, 167519, Note_on_c, 6, 68, 0
10, 167520, Note_on_c, 6, 69, 90
10, 167639, Note_on_c, 6, 69, 0
10, 168240, Note_on_c, 6, 64, 90
10, 168390, Note_on_c, 6, 64, 0
10, 168390, Note_on_c, 6, 74, 90
10, 168419, Note_on_c, 6, 74, 0
10, 168420, Note_on_c, 6, 74, 90
10, 168449, Note_on_c, 6, 74, 0
10, 168450, Note_on_c, 6, 73, 90
10, 168479, Note_on_c, 6, 73, 0
10, 168480, Note_on_c, 6, 73, 90
10, 168509, Note_on_c, 6, 73, 0
10, 168510, Note_on_c, 6, 69, 90
10, 168539, Note_on_c, 6, 69, 0
10, 168540, Note_on_c, 6, 64, 90
10, 168599, Note_on_c, 6, 64, 0
10, 168720, Note_on_c, 6, 62, 90
10, 168870, Note_on_c, 6, 62, 0
10, 168870, Note_on_c, 6, 72, 90
10, 168899, Note_on_c, 6, 72, 0
10, 168900, Note_on_c, 6, 72, 90
10, 168929, Note_on_c, 6, 72, 0
10, 168930, Note_on_c, 6, 71, 90
10, 168959, Note_on_c, 6, 71, 0
10, 168960, Note_on_c, 6, 71, 90
10, 168989, Note_on_c, 6, 71, 0
10, 168990, Note_on_c, 6, 67, 90
10, 169019, Note_on_c, 6, 67, 0
10, 169020, Note_on_c, 6, 62, 90
10, 169079, Note_on_c, 6, 62, 0
10, 169110, Note_on_c, 6, 64, 90
10, 169139, Note_on_c, 6, 64, 0
10, 169140, Note_on_c, 6, 64, 90
10, 169169, Note_on_c, 6, 64, 0
10, 169170, Note_on_c, 6, 63, 90
10, 169199, Note_on_c, 6, 63, 0
10, 169200, Note_on_c, 6, 63, 90
10, 169229, Note_on_c, 6, 63, 0
10, 169230, Note_on_c, 6, 72, 90
10, 169259, Note_on_c, 6, 72, 0
10, 169260, Note_on_c, 6, 71, 90
10, 169289, Note_on_c, 6, 71, 0
10, 169290, Note_on_c, 6, 64, 90
10, 169319, Note_on_c, 6, 64, 0
10, 169320, Note_on_c, 6, 63, 90
10, 169349, Note_on_c, 6, 63, 0
10, 169350, Note_on_c, 6, 69, 90
10, 169379, Note_on_c, 6, 69, 0
10, 169380, Note_on_c, 6, 67, 90
10, 169409, Note_on_c, 6, 67, 0
10, 169410, Note_on_c, 6, 66, 90
10, 169439, Note_on_c, 6, 66, 0
10, 169440, Note_on_c, 6, 67, 90
10, 169469, Note_on_c, 6, 67, 0
10, 169470, Note_on_c, 6, 71, 90
10, 169499, Note_on_c, 6, 71, 0
10, 169500, Note_on_c, 6, 71, 90
10, 169529, Note_on_c, 6, 71, 0
10, 169530, Note_on_c, 6, 70, 90
10, 169559, Note_on_c, 6, 70, 0
10, 169560, Note_on_c, 6, 70, 90
10, 169589, Note_on_c, 6, 70, 0
10, 169590, Note_on_c, 6, 79, 90
10, 169619, Note_on_c, 6, 79, 0
10, 169620, Note_on_c, 6, 79, 90
10, 169649, Note_on_c, 6, 79, 0
10, 169650, Note_on_c, 6, 78, 90
10, 169679, Note_on_c, 6, 78, 0
10, 169680, Note_on_c, 6, 78, 90
10, 169739, Note_on_c, 6, 78, 0
10, 169950, Note_on_c, 6, 66, 90
10, 169979, Note_on_c, 6, 66, 0
10, 169980, Note_on_c, 6, 71, 90
10, 170009, Note_on_c, 6, 71, 0
10, 170010, Note_on_c, 6, 74, 90
10, 170039, Note_on_c, 6, 74, 0
10, 170040, Note_on_c, 6, 73, 90
10, 170069, Note_on_c, 6, 73, 0
10, 170070, Note_on_c, 6, 71, 90
10, 170099, Note_on_c, 6, 71, 0
10, 170100, Note_on_c, 6, 70, 90
10, 170129, Note_on_c, 6, 70, 0
10, 170130, Note_on_c, 6, 71, 90
10, 170159, Note_on_c, 6, 71, 0
10, 170160, Note_on_c, 6, 73, 90
10, 170189, Note_on_c, 6, 73, 0
10, 170190, Note_on_c, 6, 66, 90
10, 170219, Note_on_c, 6, 66, 0
10, 170220, Note_on_c, 6, 73, 90
10, 170249, Note_on_c, 6, 73, 0
10, 170250, Note_on_c, 6, 76, 90
10, 170279, Note_on_c, 6, 76, 0
10, 170280, Note_on_c, 6, 74, 90
10, 170309, Note_on_c, 6, 74, 0
10, 170310, Note_on_c, 6, 73, 90
10, 170339, Note_on_c, 6, 73, 0
10, 170340, Note_on_c, 6, 71, 90
10, 170369, Note_on_c, 6, 71, 0
10, 170370, Note_on_c, 6, 73, 90
10, 170399, Note_on_c, 6, 73, 0
10, 170400, Note_on_c, 6, 74, 90
10, 170460, Note_on_c, 6, 74, 0
10, 170460, Note_on_c, 6, 76, 90
10, 170474, Note_on_c, 6, 76, 0
10, 170475, Note_on_c, 6, 78, 90
10, 170489, Note_on_c, 6, 78, 0
10, 170490, Note_on_c, 6, 79, 90
10, 170579, Note_on_c, 6, 79, 0
10, 170580, Note_on_c, 6, 78, 90
10, 170639, Note_on_c, 6, 78, 0
10, 170640, Note_on_c, 6, 76, 90
10, 170699, Note_on_c, 6, 76, 0
10, 170700, Note_on_c, 6, 74, 90
10, 170729, Note_on_c, 6, 74, 0
10, 170730, Note_on_c, 6, 73, 90
10, 170759, Note_on_c, 6, 73, 0
10, 170760, Note_on_c, 6, 81, 90
10, 170819, Note_on_c, 6, 81, 0
10, 170820, Note_on_c, 6, 76, 90
10, 170879, Note_on_c, 6, 76, 0
10, 170880, Note_on_c, 6, 78, 90
10, 170999, Note_on_c, 6, 78, 0
10, 171630, Note_on_c, 6, 66, 90
10, 171659, Note_on_c, 6, 66, 0
10, 171660, Note_on_c, 6, 73, 90
10, 171689, Note_on_c, 6, 73, 0
10, 171690, Note_on_c, 6, 76, 90
10, 171719, Note_on_c, 6, 76, 0
10, 171720, Note_on_c, 6, 74, 90
10, 171749, Note_on_c, 6, 74, 0
10, 171750, Note_on_c, 6, 73, 90
10, 171779, Note_on_c, 6, 73, 0
10, 171780, Note_on_c, 6, 71, 90
10, 171809, Note_on_c, 6, 71, 0
10, 171810, Note_on_c, 6, 73, 90
10, 171839, Note_on_c, 6, 73, 0
10, 171840, Note_on_c, 6, 74, 90
10, 171869, Note_on_c, 6, 74, 0
10, 171870, Note_on_c, 6, 69, 90
10, 171899, Note_on_c, 6, 69, 0
10, 171900, Note_on_c, 6, 69, 90
10, 171929, Note_on_c, 6, 69, 0
10, 171930, Note_on_c, 6, 68, 90
10, 171959, Note_on_c, 6, 68, 0
10, 171960, Note_on_c, 6, 68, 90
10, 171989, Note_on_c, 6, 68, 0
10, 171990, Note_on_c, 6, 66, 90
10, 172019, Note_on_c, 6, 66, 0
10, 172020, Note_on_c, 6, 66, 90
10, 172049, Note_on_c, 6, 66, 0
10, 172050, Note_on_c, 6, 65, 90
10, 172079, Note_on_c, 6, 65, 0
10, 172080, Note_on_c, 6, 65, 90
10, 172109, Note_on_c, 6, 65, 0
10, 172110, Note_on_c, 6, 74, 90
10, 172139, Note_on_c, 6, 74, 0
10, 172140, Note_on_c, 6, 73, 90
10, 172169, Note_on_c, 6, 73, 0
10, 172170, Note_on_c, 6, 66, 90
10, 172199, Note_on_c, 6, 66, 0
10, 172200, Note_on_c, 6, 65, 90
10, 172229, Note_on_c, 6, 65, 0
10, 172230, Note_on_c, 6, 74, 90
10, 172259, Note_on_c, 6, 74, 0
10, 172260, Note_on_c, 6, 73, 90
10, 172289, Note_on_c, 6, 73, 0
10, 172290, Note_on_c, 6, 71, 90
10, 172319, Note_on_c, 6, 71, 0
10, 172320, Note_on_c, 6, 69, 90
10, 172349, Note_on_c, 6, 69, 0
10, 172350, Note_on_c, 6, 73, 90
10, 172379, Note_on_c, 6, 73, 0
10, 172380, Note_on_c, 6, 78, 90
10, 172409, Note_on_c, 6, 78, 0
10, 172410, Note_on_c, 6, 76, 90
10, 172439, Note_on_c, 6, 76, 0
10, 172440, Note_on_c, 6, 76, 90
10, 172469, Note_on_c, 6, 76, 0
10, 172470, Note_on_c, 6, 74, 90
10, 172499, Note_on_c, 6, 74, 0
10, 172500, Note_on_c, 6, 74, 90
10, 172529, Note_on_c, 6, 74, 0
10, 172530, Note_on_c, 6, 73, 90
10, 172559, Note_on_c, 6, 73, 0
10, 172560, Note_on_c, 6, 73, 90
10, 172589, Note_on_c, 6, 73, 0
10, 172590, Note_on_c, 6, 71, 90
10, 172619, Note_on_c, 6, 71, 0
10, 172620, Note_on_c, 6, 71, 90
10, 172649, Note_on_c, 6, 71, 0
10, 172650, Note_on_c, 6, 70, 90
10, 172679, Note_on_c, 6, 70, 0
10, 172680, Note_on_c, 6, 70, 90
10, 172709, Note_on_c, 6, 70, 0
10, 172710, Note_on_c, 6, 67, 90
10, 172739, Note_on_c, 6, 67, 0
10, 172740, Note_on_c, 6, 67, 90
10, 172769, Note_on_c, 6, 67, 0
10, 172770, Note_on_c, 6, 66, 90
10, 172799, Note_on_c, 6, 66, 0
10, 172800, Note_on_c, 6, 66, 90
10, 172829, Note_on_c, 6, 66, 0
10, 172830, Note_on_c, 6, 76, 90
10, 172859, Note_on_c, 6, 76, 0
10, 172860, Note_on_c, 6, 76, 90
10, 172889, Note_on_c, 6, 76, 0
10, 172890, Note_on_c, 6, 74, 90
10, 172919, Note_on_c, 6, 74, 0
10, 172920, Note_on_c, 6, 74, 90
10, 172949, Note_on_c, 6, 74, 0
10, 172950, Note_on_c, 6, 73, 90
10, 172979, Note_on_c, 6, 73, 0
10, 172980, Note_on_c, 6, 73, 90
10, 173009, Note_on_c, 6, 73, 0
10, 173010, Note_on_c, 6, 71, 90
10, 173039, Note_on_c, 6, 71, 0
10, 173040, Note_on_c, 6, 71, 90
10, 173069, Note_on_c, 6, 71, 0
10, 173070, Note_on_c, 6, 69, 90
10, 173099, Note_on_c, 6, 69, 0
10, 173100, Note_on_c, 6, 69, 90
10, 173129, Note_on_c, 6, 69, 0
10, 173130, Note_on_c, 6, 68, 90
10, 173159, Note_on_c, 6, 68, 0
10, 173160, Note_on_c, 6, 68, 90
10, 173189, Note_on_c, 6, 68, 0
10, 173190, Note_on_c, 6, 66, 90
10, 173219, Note_on_c, 6, 66, 0
10, 173220, Note_on_c, 6, 66, 90
10, 173249, Note_on_c, 6, 66, 0
10, 173250, Note_on_c, 6, 64, 90
10, 173279, Note_on_c, 6, 64, 0
10, 173280, Note_on_c, 6, 64, 90
10, 173309, Note_on_c, 6, 64, 0
10, 173310, Note_on_c, 6, 74, 90
10, 173339, Note_on_c, 6, 74, 0
10, 173340, Note_on_c, 6, 74, 90
10, 173369, Note_on_c, 6, 74, 0
10, 173370, Note_on_c, 6, 73, 90
10, 173399, Note_on_c, 6, 73, 0
10, 173400, Note_on_c, 6, 73, 90
10, 173429, Note_on_c, 6, 73, 0
10, 173430, Note_on_c, 6, 71, 90
10, 173459, Note_on_c, 6, 71, 0
10, 173460, Note_on_c, 6, 71, 90
10, 173489, Note_on_c, 6, 71, 0
10, 173490, Note_on_c, 6, 69, 90
10, 173519, Note_on_c, 6, 69, 0
10, 173520, Note_on_c, 6, 69, 90
10, 173549, Note_on_c, 6, 69, 0
10, 173550, Note_on_c, 6, 68, 90
10, 173579, Note_on_c, 6, 68, 0
10, 173580, Note_on_c, 6, 68, 90
10, 173609, Note_on_c, 6, 68, 0
10, 173610, Note_on_c, 6, 66, 90
10, 173639, Note_on_c, 6, 66, 0
10, 173640, Note_on_c, 6, 66, 90
10, 173669, Note_on_c, 6, 66, 0
10, 173670, Note_on_c, 6, 64, 90
10, 173699, Note_on_c, 6, 64, 0
10, 173700, Note_on_c, 6, 64, 90
10, 173729, Note_on_c, 6, 64, 0
10, 173730, Note_on_c, 6, 62, 90
10, 173759, Note_on_c, 6, 62, 0
10, 173760, Note_on_c, 6, 62, 90
10, 173789, Note_on_c, 6, 62, 0
10, 173790, Note_on_c, 6, 73, 90
10, 173819, Note_on_c, 6, 73, 0
10, 173820, Note_on_c, 6, 73, 90
10, 173849, Note_on_c, 6, 73, 0
10, 173850, Note_on_c, 6, 71, 90
10, 173879, Note_on_c, 6, 71, 0
10, 173880, Note_on_c, 6, 71, 90
10, 173909, Note_on_c, 6, 71, 0
10, 173910, Note_on_c, 6, 69, 90
10, 173939, Note_on_c, 6, 69, 0
10, 173940, Note_on_c, 6, 69, 90
10, 173969, Note_on_c, 6, 69, 0
10, 173970, Note_on_c, 6, 68, 90
10, 173999, Note_on_c, 6, 68, 0
10, 174000, Note_on_c, 6, 68, 90
10, 174029, Note_on_c, 6, 68, 0
10, 174030, Note_on_c, 6, 78, 90
10, 174059, Note_on_c, 6, 78, 0
10, 174060, Note_on_c, 6, 78, 90
10, 174089, Note_on_c, 6, 78, 0
10, 174090, Note_on_c, 6, 77, 90
10, 174119, Note_on_c, 6, 77, 0
10, 174120, Note_on_c, 6, 77, 90
10, 174149, Note_on_c, 6, 77, 0
10, 174150, Note_on_c, 6, 80, 90
10, 174179, Note_on_c, 6, 80, 0
10, 174180, Note_on_c, 6, 80, 90
10, 174209, Note_on_c, 6, 80, 0
10, 174210, Note_on_c, 6, 73, 90
10, 174239, Note_on_c, 6, 73, 0
10, 174240, Note_on_c, 6, 73, 90
10, 174269, Note_on_c, 6, 73, 0
10, 174270, Note_on_c, 6, 76, 90
10, 174299, Note_on_c, 6, 76, 0
10, 174300, Note_on_c, 6, 76, 90
10, 174329, Note_on_c, 6, 76, 0
10, 174330, Note_on_c, 6, 75, 90
10, 174359, Note_on_c, 6, 75, 0
10, 174360, Note_on_c, 6, 75, 90
10, 174389, Note_on_c, 6, 75, 0
10, 174390, Note_on_c, 6, 73, 90
10, 174419, Note_on_c, 6, 73, 0
10, 174420, Note_on_c, 6, 73, 90
10, 174449, Note_on_c, 6, 73, 0
10, 174450, Note_on_c, 6, 72, 90
10, 174479, Note_on_c, 6, 72, 0
10, 174480, Note_on_c, 6, 72, 90
10, 174509, Note_on_c, 6, 72, 0
10, 174510, Note_on_c, 6, 81, 90
10, 174539, Note_on_c, 6, 81, 0
10, 174540, Note_on_c, 6, 80, 90
10, 174569, Note_on_c, 6, 80, 0
10, 174570, Note_on_c, 6, 73, 90
10, 174599, Note_on_c, 6, 73, 0
10, 174600, Note_on_c, 6, 72, 90
10, 174629, Note_on_c, 6, 72, 0
10, 174630, Note_on_c, 6, 75, 90
10, 174659, Note_on_c, 6, 75, 0
10, 174660, Note_on_c, 6, 68, 90
10, 174689, Note_on_c, 6, 68, 0
10, 174690, Note_on_c, 6, 66, 90
10, 174719, Note_on_c, 6, 66, 0
10, 174720, Note_on_c, 6, 65, 90
10, 174749, Note_on_c, 6, 65, 0
10, 174750, Note_on_c, 6, 74, 90
10, 174779, Note_on_c, 6, 74, 0
10, 174780, Note_on_c, 6, 73, 90
10, 174809, Note_on_c, 6, 73, 0
10, 174810, Note_on_c, 6, 66, 90
10, 174839, Note_on_c, 6, 66, 0
10, 174840, Note_on_c, 6, 65, 90
10, 174869, Note_on_c, 6, 65, 0
10, 174870, Note_on_c, 6, 68, 90
10, 174899, Note_on_c, 6, 68, 0
10, 174900, Note_on_c, 6, 61, 90
10, 174929, Note_on_c, 6, 61, 0
10, 174930, Note_on_c, 6, 59, 90
10, 174959, Note_on_c, 6, 59, 0
10, 174960, Note_on_c, 6, 57, 90
10, 175019, Note_on_c, 6, 57, 0
10, 175200, Note_on_c, 6, 69, 90
10, 175229, Note_on_c, 6, 69, 0
10, 175230, Note_on_c, 6, 71, 90
10, 175259, Note_on_c, 6, 71, 0
10, 175260, Note_on_c, 6, 73, 90
10, 175379, Note_on_c, 6, 73, 0
10, 175380, Note_on_c, 6, 71, 90
10, 175439, Note_on_c, 6, 71, 0
10, 175440, Note_on_c, 6, 69, 90
10, 175499, Note_on_c, 6, 69, 0
10, 175500, Note_on_c, 6, 68, 90
10, 175529, Note_on_c, 6, 68, 0
10, 175530, Note_on_c, 6, 66, 90
10, 175559, Note_on_c, 6, 66, 0
10, 175560, Note_on_c, 6, 68, 90
10, 175619, Note_on_c, 6, 68, 0
10, 175620, Note_on_c, 6, 65, 90
10, 175679, Note_on_c, 6, 65, 0
10, 175680, Note_on_c, 6, 66, 90
10, 175709, Note_on_c, 6, 66, 0
10, 175710, Note_on_c, 6, 61, 90
10, 175739, Note_on_c, 6, 61, 0
10, 175740, Note_on_c, 6, 66, 90
10, 175769, Note_on_c, 6, 66, 0
10, 175770, Note_on_c, 6, 69, 90
10, 175799, Note_on_c, 6, 69, 0
10, 175800, Note_on_c, 6, 68, 90
10, 175829, Note_on_c, 6, 68, 0
10, 175830, Note_on_c, 6, 66, 90
10, 175859, Note_on_c, 6, 66, 0
10, 175860, Note_on_c, 6, 65, 90
10, 175889, Note_on_c, 6, 65, 0
10, 175890, Note_on_c, 6, 66, 90
10, 175919, Note_on_c, 6, 66, 0
10, 175920, Note_on_c, 6, 68, 90
10, 175949, Note_on_c, 6, 68, 0
10, 175950, Note_on_c, 6, 61, 90
10, 175979, Note_on_c, 6, 61, 0
10, 175980, Note_on_c, 6, 68, 90
10, 176009, Note_on_c, 6, 68, 0
10, 176010, Note_on_c, 6, 71, 90
10, 176039, Note_on_c, 6, 71, 0
10, 176040, Note_on_c, 6, 69, 90
10, 176069, Note_on_c, 6, 69, 0
10, 176070, Note_on_c, 6, 68, 90
10, 176099, Note_on_c, 6, 68, 0
10, 176100, Note_on_c, 6, 66, 90
10, 176129, Note_on_c, 6, 66, 0
10, 176130, Note_on_c, 6, 68, 90
10, 176159, Note_on_c, 6, 68, 0
10, 176160, Note_on_c, 6, 69, 90
10, 176219, Note_on_c, 6, 69, 0
10, 176220, Note_on_c, 6, 71, 90
10, 176234, Note_on_c, 6, 71, 0
10, 176235, Note_on_c, 6, 73, 90
10, 176249, Note_on_c, 6, 73, 0
10, 176250, Note_on_c, 6, 74, 90
10, 176339, Note_on_c, 6, 74, 0
10, 176340, Note_on_c, 6, 73, 90
10, 176399, Note_on_c, 6, 73, 0
10, 176400, Note_on_c, 6, 71, 90
10, 176459, Note_on_c, 6, 71, 0
10, 176460, Note_on_c, 6, 69, 90
10, 176489, Note_on_c, 6, 69, 0
10, 176490, Note_on_c, 6, 68, 90
10, 176519, Note_on_c, 6, 68, 0
10, 176520, Note_on_c, 6, 76, 90
10, 176579, Note_on_c, 6, 76, 0
10, 176580, Note_on_c, 6, 71, 90
10, 176639, Note_on_c, 6, 71, 0
10, 176640, Note_on_c, 6, 73, 90
10, 176669, Note_on_c, 6, 73, 0
10, 176670, Note_on_c, 6, 71, 90
10, 176699, Note_on_c, 6, 71, 0
10, 176700, Note_on_c, 6, 69, 90
10, 176729, Note_on_c, 6, 69, 0
10, 176730, Note_on_c, 6, 68, 90
10, 176759, Note_on_c, 6, 68, 0
10, 176760, Note_on_c, 6, 69, 90
10, 176789, Note_on_c, 6, 69, 0
10, 176790, Note_on_c, 6, 71, 90
10, 176819, Note_on_c, 6, 71, 0
10, 176820, Note_on_c, 6, 73, 90
10, 176849, Note_on_c, 6, 73, 0
10, 176850, Note_on_c, 6, 74, 90
10, 176879, Note_on_c, 6, 74, 0
10, 176880, Note_on_c, 6, 76, 90
10, 176909, Note_on_c, 6, 76, 0
10, 176910, Note_on_c, 6, 78, 90
10, 176939, Note_on_c, 6, 78, 0
10, 176940, Note_on_c, 6, 79, 90
10, 177059, Note_on_c, 6, 79, 0
10, 177060, Note_on_c, 6, 78, 90
10, 177119, Note_on_c, 6, 78, 0
10, 177120, Note_on_c, 6, 76, 90
10, 177149, Note_on_c, 6, 76, 0
10, 177150, Note_on_c, 6, 74, 90
10, 177179, Note_on_c, 6, 74, 0
10, 177180, Note_on_c, 6, 73, 90
10, 177209, Note_on_c, 6, 73, 0
10, 177210, Note_on_c, 6, 71, 90
10, 177239, Note_on_c, 6, 71, 0
10, 177240, Note_on_c, 6, 80, 90
10, 177269, Note_on_c, 6, 80, 0
10, 177270, Note_on_c, 6, 71, 90
10, 177299, Note_on_c, 6, 71, 0
10, 177300, Note_on_c, 6, 73, 90
10, 177329, Note_on_c, 6, 73, 0
10, 177330, Note_on_c, 6, 68, 90
10, 177359, Note_on_c, 6, 68, 0
10, 177360, Note_on_c, 6, 69, 90
10, 177389, Note_on_c, 6, 69, 0
10, 177390, Note_on_c, 6, 65, 90
10, 177419, Note_on_c, 6, 65, 0
10, 177420, Note_on_c, 6, 66, 90
10, 177449, Note_on_c, 6, 66, 0
10, 177450, Note_on_c, 6, 74, 90
10, 177479, Note_on_c, 6, 74, 0
10, 177480, Note_on_c, 6, 71, 90
10, 177569, Note_on_c, 6, 71, 0
10, 177570, Note_on_c, 6, 73, 90
10, 177599, Note_on_c, 6, 73, 0
10, 177600, Note_on_c, 6, 73, 90
10, 177719, Note_on_c, 6, 73, 0
10, 177750, Note_on_c, 6, 71, 90
10, 177779, Note_on_c, 6, 71, 0
10, 177780, Note_on_c, 6, 71, 90
10, 177809, Note_on_c, 6, 71, 0
10, 177810, Note_on_c, 6, 70, 90
10, 177839, Note_on_c, 6, 70, 0
10, 177840, Note_on_c, 6, 70, 90
10, 177869, Note_on_c, 6, 70, 0
10, 177870, Note_on_c, 6, 79, 90
10, 177899, Note_on_c, 6, 79, 0
10, 177900, Note_on_c, 6, 78, 90
10, 177929, Note_on_c, 6, 78, 0
10, 177930, Note_on_c, 6, 71, 90
10, 177959, Note_on_c, 6, 71, 0
10, 177960, Note_on_c, 6, 70, 90
10, 177989, Note_on_c, 6, 70, 0
10, 177990, Note_on_c, 6, 76, 90
10, 178019, Note_on_c, 6, 76, 0
10, 178020, Note_on_c, 6, 74, 90
10, 178049, Note_on_c, 6, 74, 0
10, 178050, Note_on_c, 6, 73, 90
10, 178079, Note_on_c, 6, 73, 0
10, 178080, Note_on_c, 6, 74, 90
10, 178109, Note_on_c, 6, 74, 0
10, 178110, Note_on_c, 6, 73, 90
10, 178139, Note_on_c, 6, 73, 0
10, 178140, Note_on_c, 6, 71, 90
10, 178229, Note_on_c, 6, 71, 0
10, 178230, Note_on_c, 6, 69, 90
10, 178259, Note_on_c, 6, 69, 0
10, 178260, Note_on_c, 6, 69, 90
10, 178289, Note_on_c, 6, 69, 0
10, 178290, Note_on_c, 6, 68, 90
10, 178319, Note_on_c, 6, 68, 0
10, 178320, Note_on_c, 6, 68, 90
10, 178349, Note_on_c, 6, 68, 0
10, 178350, Note_on_c, 6, 74, 90
10, 178379, Note_on_c, 6, 74, 0
10, 178380, Note_on_c, 6, 73, 90
10, 178409, Note_on_c, 6, 73, 0
10, 178410, Note_on_c, 6, 66, 90
10, 178439, Note_on_c, 6, 66, 0
10, 178440, Note_on_c, 6, 65, 90
10, 178469, Note_on_c, 6, 65, 0
10, 178470, Note_on_c, 6, 71, 90
10, 178499, Note_on_c, 6, 71, 0
10, 178500, Note_on_c, 6, 69, 90
10, 178529, Note_on_c, 6, 69, 0
10, 178530, Note_on_c, 6, 68, 90
10, 178559, Note_on_c, 6, 68, 0
10, 178560, Note_on_c, 6, 69, 90
10, 178589, Note_on_c, 6, 69, 0
10, 178590, Note_on_c, 6, 68, 90
10, 178619, Note_on_c, 6, 68, 0
10, 178620, Note_on_c, 6, 66, 90
10, 178709, Note_on_c, 6, 66, 0
10, 178710, Note_on_c, 6, 73, 90
10, 178739, Note_on_c, 6, 73, 0
10, 178740, Note_on_c, 6, 73, 90
10, 178769, Note_on_c, 6, 73, 0
10, 178770, Note_on_c, 6, 72, 90
10, 178799, Note_on_c, 6, 72, 0
10, 178800, Note_on_c, 6, 72, 90
10, 178829, Note_on_c, 6, 72, 0
10, 178830, Note_on_c, 6, 81, 90
10, 178859, Note_on_c, 6, 81, 0
10, 178860, Note_on_c, 6, 80, 90
10, 178889, Note_on_c, 6, 80, 0
10, 178890, Note_on_c, 6, 73, 90
10, 178919, Note_on_c, 6, 73, 0
10, 178920, Note_on_c, 6, 72, 90
10, 178949, Note_on_c, 6, 72, 0
10, 178950, Note_on_c, 6, 75, 90
10, 178979, Note_on_c, 6, 75, 0
10, 178980, Note_on_c, 6, 68, 90
10, 179009, Note_on_c, 6, 68, 0
10, 179010, Note_on_c, 6, 66, 90
10, 179039, Note_on_c, 6, 66, 0
10, 179040, Note_on_c, 6, 65, 90
10, 179069, Note_on_c, 6, 65, 0
10, 179070, Note_on_c, 6, 74, 90
10, 179099, Note_on_c, 6, 74, 0
10, 179100, Note_on_c, 6, 73, 90
10, 179129, Note_on_c, 6, 73, 0
10, 179130, Note_on_c, 6, 66, 90
10, 179159, Note_on_c, 6, 66, 0
10, 179160, Note_on_c, 6, 65, 90
10, 179189, Note_on_c, 6, 65, 0
10, 179190, Note_on_c, 6, 68, 90
10, 179219, Note_on_c, 6, 68, 0
10, 179220, Note_on_c, 6, 61, 90
10, 179249, Note_on_c, 6, 61, 0
10, 179250, Note_on_c, 6, 59, 90
10, 179279, Note_on_c, 6, 59, 0
10, 179280, Note_on_c, 6, 57, 90
10, 179309, Note_on_c, 6, 57, 0
10, 179310, Note_on_c, 6, 61, 90
10, 179339, Note_on_c, 6, 61, 0
10, 179340, Note_on_c, 6, 66, 90
10, 179369, Note_on_c, 6, 66, 0
10, 179370, Note_on_c, 6, 71, 90
10, 179399, Note_on_c, 6, 71, 0
10, 179400, Note_on_c, 6, 68, 90
10, 179489, Note_on_c, 6, 68, 0
10, 179490, Note_on_c, 6, 66, 90
10, 179519, Note_on_c, 6, 66, 0
10, 179520, Note_on_c, 6, 66, 90
10, 179639, Note_on_c, 6, 66, 0
10, 321060, Note_on_c, 6, 78, 90
10, 321060, Note_on_c, 6, 81, 90
10, 321299, Note_on_c, 6, 81, 0
10, 321299, Note_on_c, 6, 78, 0
10, 321300, Note_on_c, 6, 78, 90
10, 321300, Note_on_c, 6, 74, 90
10, 321539, Note_on_c, 6, 74, 0
10, 321539, Note_on_c, 6, 78, 0
10, 321540, Note_on_c, 6, 66, 90
10, 321540, Note_on_c, 6, 74, 90
10, 321659, Note_on_c, 6, 74, 0
10, 321659, Note_on_c, 6, 66, 0
10, 321660, Note_on_c, 6, 66, 90
10, 321660, Note_on_c, 6, 74, 90
10, 321719, Note_on_c, 6, 74, 0
10, 321719, Note_on_c, 6, 66, 0
10, 321720, Note_on_c, 6, 73, 90
10, 321720, Note_on_c, 6, 64, 90
10, 321779, Note_on_c, 6, 64, 0
10, 321779, Note_on_c, 6, 73, 0
10, 321780, Note_on_c, 6, 76, 90
10, 321780, Note_on_c, 6, 67, 90
10, 321899, Note_on_c, 6, 67, 0
10, 321899, Note_on_c, 6, 76, 0
10, 321900, Note_on_c, 6, 66, 90
10, 321900, Note_on_c, 6, 74, 90
10, 321959, Note_on_c, 6, 74, 0
10, 321959, Note_on_c, 6, 66, 0
10, 321960, Note_on_c, 6, 73, 90
10, 321960, Note_on_c, 6, 64, 90
10, 322019, Note_on_c, 6, 64, 0
10, 322019, Note_on_c, 6, 73, 0
10, 322020, Note_on_c, 6, 66, 90
10, 322020, Note_on_c, 6, 74, 90
10, 322139, Note_on_c, 6, 74, 0
10, 322139, Note_on_c, 6, 66, 0
10, 322140, Note_on_c, 6, 66, 90
10, 322140, Note_on_c, 6, 74, 90
10, 322199, Note_on_c, 6, 74, 0
10, 322199, Note_on_c, 6, 66, 0
10, 322200, Note_on_c, 6, 73, 90
10, 322200, Note_on_c, 6, 64, 90
10, 322259, Note_on_c, 6, 64, 0
10, 322259, Note_on_c, 6, 73, 0
10, 322260, Note_on_c, 6, 67, 90
10, 322260, Note_on_c, 6, 76, 90
10, 322379, Note_on_c, 6, 76, 0
10, 322379, Note_on_c, 6, 67, 0
10, 322380, Note_on_c, 6, 74, 90
10, 322380, Note_on_c, 6, 66, 90
10, 322439, Note_on_c, 6, 66, 0
10, 322439, Note_on_c, 6, 74, 0
10, 322440, Note_on_c, 6, 73, 90
10, 322440, Note_on_c, 6, 64, 90
10, 322499, Note_on_c, 6, 64, 0
10, 322499, Note_on_c, 6, 73, 0
10, 322500, Note_on_c, 6, 78, 90
10, 322500, Note_on_c, 6, 81, 90
10, 322739, Note_on_c, 6, 81, 0
10, 322739, Note_on_c, 6, 78, 0
10, 322740, Note_on_c, 6, 78, 90
10, 322740, Note_on_c, 6, 74, 90
10, 322979, Note_on_c, 6, 74, 0
10, 322979, Note_on_c, 6, 78, 0
10, 322980, Note_on_c, 6, 78, 90
10, 322980, Note_on_c, 6, 69, 90
10, 323099, Note_on_c, 6, 69, 0
10, 323099, Note_on_c, 6, 78, 0
10, 323100, Note_on_c, 6, 78, 90
10, 323100, Note_on_c, 6, 69, 90
10, 323159, Note_on_c, 6, 69, 0
10, 323159, Note_on_c, 6, 78, 0
10, 323160, Note_on_c, 6, 76, 90
10, 323160, Note_on_c, 6, 67, 90
10, 323219, Note_on_c, 6, 67, 0
10, 323219, Note_on_c, 6, 76, 0
10, 323220, Note_on_c, 6, 79, 90
10, 323220, Note_on_c, 6, 71, 90
10, 323339, Note_on_c, 6, 71, 0
10, 323339, Note_on_c, 6, 79, 0
10, 323340, Note_on_c, 6, 78, 90
10, 323340, Note_on_c, 6, 69, 90
10, 323399, Note_on_c, 6, 69, 0
10, 323399, Note_on_c, 6, 78, 0
10, 323400, Note_on_c, 6, 76, 90
10, 323400, Note_on_c, 6, 67, 90
10, 323459, Note_on_c, 6, 67, 0
10, 323459, Note_on_c, 6, 76, 0
10, 323460, Note_on_c, 6, 78, 90
10, 323460, Note_on_c, 6, 69, 90
10, 323579, Note_on_c, 6, 69, 0
10, 323579, Note_on_c, 6, 78, 0
10, 323580, Note_on_c, 6, 78, 90
10, 323580, Note_on_c, 6, 69, 90
10, 323639, Note_on_c, 6, 69, 0
10, 323639, Note_on_c, 6, 78, 0
10, 323640, Note_on_c, 6, 76, 90
10, 323640, Note_on_c, 6, 67, 90
10, 323699, Note_on_c, 6, 67, 0
10, 323699, Note_on_c, 6, 76, 0
10, 323700, Note_on_c, 6, 79, 90
10, 323700, Note_on_c, 6, 71, 90
10, 323819, Note_on_c, 6, 71, 0
10, 323819, Note_on_c, 6, 79, 0
10, 323820, Note_on_c, 6, 78, 90
10, 323820, Note_on_c, 6, 69, 90
10, 323879, Note_on_c, 6, 69, 0
10, 323879, Note_on_c, 6, 78, 0
10, 323880, Note_on_c, 6, 76, 90
10, 323880, Note_on_c, 6, 67, 90
10, 323939, Note_on_c, 6, 67, 0
10, 323939, Note_on_c, 6, 76, 0
10, 323940, Note_on_c, 6, 78, 90
10, 323940, Note_on_c, 6, 81, 90
10, 324179, Note_on_c, 6, 81, 0
10, 324179, Note_on_c, 6, 78, 0
10, 324180, Note_on_c, 6, 74, 90
10, 324180, Note_on_c, 6, 78, 90
10, 324419, Note_on_c, 6, 78, 0
10, 324419, Note_on_c, 6, 74, 0
10, 324420, Note_on_c, 6, 69, 90
10, 324420, Note_on_c, 6, 74, 90
10, 324539, Note_on_c, 6, 74, 0
10, 324539, Note_on_c, 6, 69, 0
10, 324540, Note_on_c, 6, 66, 90
10, 324540, Note_on_c, 6, 69, 90
10, 324659, Note_on_c, 6, 69, 0
10, 324659, Note_on_c, 6, 66, 0
10, 324660, Note_on_c, 6, 74, 90
10, 324660, Note_on_c, 6, 78, 90
10, 324779, Note_on_c, 6, 78, 0
10, 324779, Note_on_c, 6, 74, 0
10, 324780, Note_on_c, 6, 69, 90
10, 324780, Note_on_c, 6, 74, 90
10, 324899, Note_on_c, 6, 74, 0
10, 324899, Note_on_c, 6, 69, 0
10, 324900, Note_on_c, 6, 78, 90
10, 324900, Note_on_c, 6, 81, 90
10, 325019, Note_on_c, 6, 81, 0
10, 325019, Note_on_c, 6, 78, 0
10, 325020, Note_on_c, 6, 74, 90
10, 325020, Note_on_c, 6, 78, 90
10, 325139, Note_on_c, 6, 78, 0
10, 325139, Note_on_c, 6, 74, 0
10, 325140, Note_on_c, 6, 69, 90
10, 325140, Note_on_c, 6, 74, 90
10, 325259, Note_on_c, 6, 74, 0
10, 325259, Note_on_c, 6, 69, 0
10, 325260, Note_on_c, 6, 66, 90
10, 325260, Note_on_c, 6, 69, 90
10, 325379, Note_on_c, 6, 69, 0
10, 325379, Note_on_c, 6, 66, 0
10, 325380, Note_on_c, 6, 78, 90
10, 325380, Note_on_c, 6, 81, 90
10, 325499, Note_on_c, 6, 81, 0
10, 325499, Note_on_c, 6, 78, 0
10, 325500, Note_on_c, 6, 78, 90
10, 325500, Note_on_c, 6, 81, 90
10, 325559, Note_on_c, 6, 81, 0
10, 325559, Note_on_c, 6, 78, 0
10, 325560, Note_on_c, 6, 76, 90
10, 325560, Note_on_c, 6, 79, 90
10, 325619, Note_on_c, 6, 79, 0
10, 325619, Note_on_c, 6, 76, 0
10, 325620, Note_on_c, 6, 79, 90
10, 325620, Note_on_c, 6, 83, 90
10, 325739, Note_on_c, 6, 83, 0
10, 325739, Note_on_c, 6, 79, 0
10, 325740, Note_on_c, 6, 81, 90
10, 325740, Note_on_c, 6, 78, 90
10, 325799, Note_on_c, 6, 78, 0
10, 325799, Note_on_c, 6, 81, 0
10, 325800, Note_on_c, 6, 76, 90
10, 325800, Note_on_c, 6, 79, 90
10, 325859, Note_on_c, 6, 79, 0
10, 325859, Note_on_c, 6, 76, 0
10, 325860, Note_on_c, 6, 78, 90
10, 325860, Note_on_c, 6, 81, 90
10, 325979, Note_on_c, 6, 81, 0
10, 325979, Note_on_c, 6, 78, 0
10, 325980, Note_on_c, 6, 79, 90
10, 325980, Note_on_c, 6, 76, 90
10, 326039, Note_on_c, 6, 76, 0
10, 326039, Note_on_c, 6, 79, 0
10, 326040, Note_on_c, 6, 78, 90
10, 326040, Note_on_c, 6, 74, 90
10, 326099, Note_on_c, 6, 74, 0
10, 326099, Note_on_c, 6, 78, 0
10, 326100, Note_on_c, 6, 73, 90
10, 326100, Note_on_c, 6, 76, 90
10, 326339, Note_on_c, 6, 76, 0
10, 326339, Note_on_c, 6, 73, 0
10, 326340, Note_on_c, 6, 85, 90
10, 326340, Note_on_c, 6, 81, 90
10, 326579, Note_on_c, 6, 81, 0
10, 326579, Note_on_c, 6, 85, 0
10, 326580, Note_on_c, 6, 76, 90
10, 326580, Note_on_c, 6, 81, 90
10, 326819, Note_on_c, 6, 81, 0
10, 326819, Note_on_c, 6, 76, 0
10, 326820, Note_on_c, 6, 73, 90
10, 326820, Note_on_c, 6, 69, 90
10, 326939, Note_on_c, 6, 69, 0
10, 326939, Note_on_c, 6, 73, 0
10, 326940, Note_on_c, 6, 73, 90
10, 326940, Note_on_c, 6, 69, 90
10, 326999, Note_on_c, 6, 69, 0
10, 326999, Note_on_c, 6, 73, 0
10, 327000, Note_on_c, 6, 68, 90
10, 327000, Note_on_c, 6, 71, 90
10, 327059, Note_on_c, 6, 71, 0
10, 327059, Note_on_c, 6, 68, 0
10, 327060, Note_on_c, 6, 74, 90
10, 327060, Note_on_c, 6, 71, 90
10, 327179, Note_on_c, 6, 71, 0
10, 327179, Note_on_c, 6, 74, 0
10, 327180, Note_on_c, 6, 73, 90
10, 327180, Note_on_c, 6, 69, 90
10, 327239, Note_on_c, 6, 69, 0
10, 327239, Note_on_c, 6, 73, 0
10, 327240, Note_on_c, 6, 68, 90
10, 327240, Note_on_c, 6, 71, 90
10, 327299, Note_on_c, 6, 71, 0
10, 327299, Note_on_c, 6, 68, 0
10, 327300, Note_on_c, 6, 73, 90
10, 327300, Note_on_c, 6, 69, 90
10, 327419, Note_on_c, 6, 69, 0
10, 327419, Note_on_c, 6, 73, 0
10, 327420, Note_on_c, 6, 73, 90
10, 327420, Note_on_c, 6, 69, 90
10, 327479, Note_on_c, 6, 69, 0
10, 327479, Note_on_c, 6, 73, 0
10, 327480, Note_on_c, 6, 68, 90
10, 327480, Note_on_c, 6, 71, 90
10, 327539, Note_on_c, 6, 71, 0
10, 327539, Note_on_c, 6, 68, 0
10, 327540, Note_on_c, 6, 74, 90
10, 327540, Note_on_c, 6, 71, 90
10, 327659, Note_on_c, 6, 71, 0
10, 327659, Note_on_c, 6, 74, 0
10, 327660, Note_on_c, 6, 73, 90
10, 327660, Note_on_c, 6, 69, 90
10, 327719, Note_on_c, 6, 69, 0
10, 327719, Note_on_c, 6, 73, 0
10, 327720, Note_on_c, 6, 68, 90
10, 327720, Note_on_c, 6, 71, 90
10, 327779, Note_on_c, 6, 71, 0
10, 327779, Note_on_c, 6, 68, 0
10, 327780, Note_on_c, 6, 81, 90
10, 327780, Note_on_c, 6, 76, 90
10, 328019, Note_on_c, 6, 76, 0
10, 328019, Note_on_c, 6, 81, 0
10, 328020, Note_on_c, 6, 73, 90
10, 328020, Note_on_c, 6, 76, 90
10, 328259, Note_on_c, 6, 76, 0
10, 328259, Note_on_c, 6, 73, 0
10, 328260, Note_on_c, 6, 73, 90
10, 328260, Note_on_c, 6, 76, 90
10, 328379, Note_on_c, 6, 76, 0
10, 328379, Note_on_c, 6, 73, 0
10, 328380, Note_on_c, 6, 73, 90
10, 328380, Note_on_c, 6, 76, 90
10, 328439, Note_on_c, 6, 76, 0
10, 328439, Note_on_c, 6, 73, 0
10, 328440, Note_on_c, 6, 71, 90
10, 328440, Note_on_c, 6, 74, 90
10, 328499, Note_on_c, 6, 74, 0
10, 328499, Note_on_c, 6, 71, 0
10, 328500, Note_on_c, 6, 74, 90
10, 328500, Note_on_c, 6, 78, 90
10, 328619, Note_on_c, 6, 78, 0
10, 328619, Note_on_c, 6, 74, 0
10, 328620, Note_on_c, 6, 73, 90
10, 328620, Note_on_c, 6, 76, 90
10, 328679, Note_on_c, 6, 76, 0
10, 328679, Note_on_c, 6, 73, 0
10, 328680, Note_on_c, 6, 71, 90
10, 328680, Note_on_c, 6, 74, 90
10, 328739, Note_on_c, 6, 74, 0
10, 328739, Note_on_c, 6, 71, 0
10, 328740, Note_on_c, 6, 76, 90
10, 328740, Note_on_c, 6, 73, 90
10, 328859, Note_on_c, 6, 73, 0
10, 328859, Note_on_c, 6, 76, 0
10, 328860, Note_on_c, 6, 73, 90
10, 328860, Note_on_c, 6, 76, 90
10, 328919, Note_on_c, 6, 76, 0
10, 328919, Note_on_c, 6, 73, 0
10, 328920, Note_on_c, 6, 74, 90
10, 328920, Note_on_c, 6, 71, 90
10, 328979, Note_on_c, 6, 71, 0
10, 328979, Note_on_c, 6, 74, 0
10, 328980, Note_on_c, 6, 78, 90
10, 328980, Note_on_c, 6, 74, 90
10, 329099, Note_on_c, 6, 74, 0
10, 329099, Note_on_c, 6, 78, 0
10, 329100, Note_on_c, 6, 76, 90
10, 329100, Note_on_c, 6, 73, 90
10, 329159, Note_on_c, 6, 73, 0
10, 329159, Note_on_c, 6, 76, 0
10, 329160, Note_on_c, 6, 74, 90
10, 329160, Note_on_c, 6, 71, 90
10, 329219, Note_on_c, 6, 71, 0
10, 329219, Note_on_c, 6, 74, 0
10, 329220, Note_on_c, 6, 73, 90
10, 329220, Note_on_c, 6, 76, 90
10, 329459, Note_on_c, 6, 76, 0
10, 329459, Note_on_c, 6, 73, 0
10, 329460, Note_on_c, 6, 73, 90
10, 329460, Note_on_c, 6, 69, 90
10, 329699, Note_on_c, 6, 69, 0
10, 329699, Note_on_c, 6, 73, 0
10, 329700, Note_on_c, 6, 64, 90
10, 329700, Note_on_c, 6, 69, 90
10, 329819, Note_on_c, 6, 69, 0
10, 329819, Note_on_c, 6, 64, 0
10, 329820, Note_on_c, 6, 61, 90
10, 329820, Note_on_c, 6, 64, 90
10, 329939, Note_on_c, 6, 64, 0
10, 329939, Note_on_c, 6, 61, 0
10, 329940, Note_on_c, 6, 73, 90
10, 329940, Note_on_c, 6, 69, 90
10, 330059, Note_on_c, 6, 69, 0
10, 330059, Note_on_c, 6, 73, 0
10, 330060, Note_on_c, 6, 69, 90
10, 330060, Note_on_c, 6, 64, 90
10, 330179, Note_on_c, 6, 64, 0
10, 330179, Note_on_c, 6, 69, 0
10, 330180, Note_on_c, 6, 73, 90
10, 330180, Note_on_c, 6, 76, 90
10, 330299, Note_on_c, 6, 76, 0
10, 330299, Note_on_c, 6, 73, 0
10, 330300, Note_on_c, 6, 73, 90
10, 330300, Note_on_c, 6, 69, 90
10, 330419, Note_on_c, 6, 69, 0
10, 330419, Note_on_c, 6, 73, 0
10, 330420, Note_on_c, 6, 64, 90
10, 330420, Note_on_c, 6, 69, 90
10, 330539, Note_on_c, 6, 69, 0
10, 330539, Note_on_c, 6, 64, 0
10, 330540, Note_on_c, 6, 69, 90
10, 330540, Note_on_c, 6, 73, 90
10, 330659, Note_on_c, 6, 73, 0
10, 330659, Note_on_c, 6, 69, 0
10, 330660, Note_on_c, 6, 66, 90
10, 330660, Note_on_c, 6, 74, 90
10, 330719, Note_on_c, 6, 74, 0
10, 330720, Note_on_c, 6, 76, 90
10, 330779, Note_on_c, 6, 76, 0
10, 330779, Note_on_c, 6, 66, 0
10, 330780, Note_on_c, 6, 74, 90
10, 330780, Note_on_c, 6, 78, 90
10, 330839, Note_on_c, 6, 78, 0
10, 330840, Note_on_c, 6, 79, 90
10, 330899, Note_on_c, 6, 79, 0
10, 330899, Note_on_c, 6, 74, 0
10, 330900, Note_on_c, 6, 74, 90
10, 330900, Note_on_c, 6, 81, 90
10, 331019, Note_on_c, 6, 81, 0
10, 331019, Note_on_c, 6, 74, 0
10, 331020, Note_on_c, 6, 74, 90
10, 331020, Note_on_c, 6, 83, 90
10, 331079, Note_on_c, 6, 83, 0
10, 331080, Note_on_c, 6, 81, 90
10, 331139, Note_on_c, 6, 81, 0
10, 331139, Note_on_c, 6, 74, 0
10, 331140, Note_on_c, 6, 74, 90
10, 331140, Note_on_c, 6, 79, 90
10, 331199, Note_on_c, 6, 79, 0
10, 331200, Note_on_c, 6, 78, 90
10, 331259, Note_on_c, 6, 78, 0
10, 331259, Note_on_c, 6, 74, 0
10, 331260, Note_on_c, 6, 73, 90
10, 331260, Note_on_c, 6, 76, 90
10, 331319, Note_on_c, 6, 76, 0
10, 331320, Note_on_c, 6, 78, 90
10, 331379, Note_on_c, 6, 78, 0
10, 331379, Note_on_c, 6, 73, 0
10, 331380, Note_on_c, 6, 74, 90
10, 331619, Note_on_c, 6, 74, 0
10, 333540, Note_on_c, 6, 78, 90
10, 333540, Note_on_c, 6, 69, 90
10, 333659, Note_on_c, 6, 69, 0
10, 333659, Note_on_c, 6, 78, 0
10, 333660, Note_on_c, 6, 78, 90
10, 333660, Note_on_c, 6, 69, 90
10, 333719, Note_on_c, 6, 69, 0
10, 333719, Note_on_c, 6, 78, 0
10, 333720, Note_on_c, 6, 76, 90
10, 333720, Note_on_c, 6, 67, 90
10, 333779, Note_on_c, 6, 67, 0
10, 333779, Note_on_c, 6, 76, 0
10, 333780, Note_on_c, 6, 79, 90
10, 333780, Note_on_c, 6, 71, 90
10, 333899, Note_on_c, 6, 71, 0
10, 333899, Note_on_c, 6, 79, 0
10, 333900, Note_on_c, 6, 78, 90
10, 333900, Note_on_c, 6, 69, 90
10, 333959, Note_on_c, 6, 69, 0
10, 333959, Note_on_c, 6, 78, 0
10, 333960, Note_on_c, 6, 76, 90
10, 333960, Note_on_c, 6, 67, 90
10, 334019, Note_on_c, 6, 67, 0
10, 334019, Note_on_c, 6, 76, 0
10, 334020, Note_on_c, 6, 78, 90
10, 334020, Note_on_c, 6, 69, 90
10, 334139, Note_on_c, 6, 69, 0
10, 334139, Note_on_c, 6, 78, 0
10, 334140, Note_on_c, 6, 78, 90
10, 334140, Note_on_c, 6, 69, 90
10, 334199, Note_on_c, 6, 69, 0
10, 334199, Note_on_c, 6, 78, 0
10, 334200, Note_on_c, 6, 76, 90
10, 334200, Note_on_c, 6, 67, 90
10, 334259, Note_on_c, 6, 67, 0
10, 334259, Note_on_c, 6, 76, 0
10, 334260, Note_on_c, 6, 79, 90
10, 334260, Note_on_c, 6, 71, 90
10, 334379, Note_on_c, 6, 71, 0
10, 334379, Note_on_c, 6, 79, 0
10, 334380, Note_on_c, 6, 78, 90
10, 334380, Note_on_c, 6, 69, 90
10, 334439, Note_on_c, 6, 69, 0
10, 334439, Note_on_c, 6, 78, 0
10, 334440, Note_on_c, 6, 76, 90
10, 334440, Note_on_c, 6, 67, 90
10, 334499, Note_on_c, 6, 67, 0
10, 334499, Note_on_c, 6, 76, 0
10, 334500, Note_on_c, 6, 78, 90
10, 334500, Note_on_c, 6, 81, 90
10, 334739, Note_on_c, 6, 81, 0
10, 334739, Note_on_c, 6, 78, 0
10, 334740, Note_on_c, 6, 74, 90
10, 334740, Note_on_c, 6, 78, 90
10, 334979, Note_on_c, 6, 78, 0
10, 334979, Note_on_c, 6, 74, 0
10, 334980, Note_on_c, 6, 69, 90
10, 334980, Note_on_c, 6, 74, 90
10, 335099, Note_on_c, 6, 74, 0
10, 335099, Note_on_c, 6, 69, 0
10, 335100, Note_on_c, 6, 66, 90
10, 335100, Note_on_c, 6, 69, 90
10, 335219, Note_on_c, 6, 69, 0
10, 335219, Note_on_c, 6, 66, 0
10, 335220, Note_on_c, 6, 74, 90
10, 335220, Note_on_c, 6, 78, 90
10, 335339, Note_on_c, 6, 78, 0
10, 335339, Note_on_c, 6, 74, 0
10, 335340, Note_on_c, 6, 69, 90
10, 335340, Note_on_c, 6, 74, 90
10, 335459, Note_on_c, 6, 74, 0
10, 335459, Note_on_c, 6, 69, 0
10, 335460, Note_on_c, 6, 78, 90
10, 335460, Note_on_c, 6, 81, 90
10, 335579, Note_on_c, 6, 81, 0
10, 335579, Note_on_c, 6, 78, 0
10, 335580, Note_on_c, 6, 74, 90
10, 335580, Note_on_c, 6, 78, 90
10, 335699, Note_on_c, 6, 78, 0
10, 335699, Note_on_c, 6, 74, 0
10, 335700, Note_on_c, 6, 69, 90
10, 335700, Note_on_c, 6, 74, 90
10, 335819, Note_on_c, 6, 74, 0
10, 335819, Note_on_c, 6, 69, 0
10, 335820, Note_on_c, 6, 66, 90
10, 335820, Note_on_c, 6, 69, 90
10, 335939, Note_on_c, 6, 69, 0
10, 335939, Note_on_c, 6, 66, 0
10, 335940, Note_on_c, 6, 78, 90
10, 335940, Note_on_c, 6, 81, 90
10, 336059, Note_on_c, 6, 81, 0
10, 336059, Note_on_c, 6, 78, 0
10, 336060, Note_on_c, 6, 78, 90
10, 336060, Note_on_c, 6, 81, 90
10, 336119, Note_on_c, 6, 81, 0
10, 336119, Note_on_c, 6, 78, 0
10, 336120, Note_on_c, 6, 76, 90
10, 336120, Note_on_c, 6, 79, 90
10, 336179, Note_on_c, 6, 79, 0
10, 336179, Note_on_c, 6, 76, 0
10, 336180, Note_on_c, 6, 79, 90
10, 336180, Note_on_c, 6, 83, 90
10, 336299, Note_on_c, 6, 83, 0
10, 336299, Note_on_c, 6, 79, 0
10, 336300, Note_on_c, 6, 81, 90
10, 336300, Note_on_c, 6, 78, 90
10, 336359, Note_on_c, 6, 78, 0
10, 336359, Note_on_c, 6, 81, 0
10, 336360, Note_on_c, 6, 76, 90
10, 336360, Note_on_c, 6, 79, 90
10, 336419, Note_on_c, 6, 79, 0
10, 336419, Note_on_c, 6, 76, 0
10, 336420, Note_on_c, 6, 78, 90
10, 336420, Note_on_c, 6, 81, 90
10, 336539, Note_on_c, 6, 81, 0
10, 336539, Note_on_c, 6, 78, 0
10, 336540, Note_on_c, 6, 79, 90
10, 336540, Note_on_c, 6, 76, 90
10, 336599, Note_on_c, 6, 76, 0
10, 336599, Note_on_c, 6, 79, 0
10, 336600, Note_on_c, 6, 78, 90
10, 336600, Note_on_c, 6, 74, 90
10, 336659, Note_on_c, 6, 74, 0
10, 336659, Note_on_c, 6, 78, 0
10, 336660, Note_on_c, 6, 73, 90
10, 336660, Note_on_c, 6, 76, 90
10, 336899, Note_on_c, 6, 76, 0
10, 336899, Note_on_c, 6, 73, 0
10, 338820, Note_on_c, 6, 73, 90
10, 338820, Note_on_c, 6, 76, 90
10, 338939, Note_on_c, 6, 76, 0
10, 338939, Note_on_c, 6, 73, 0
10, 338940, Note_on_c, 6, 73, 90
10, 338940, Note_on_c, 6, 76, 90
10, 338999, Note_on_c, 6, 76, 0
10, 338999, Note_on_c, 6, 73, 0
10, 339000, Note_on_c, 6, 74, 90
10, 339000, Note_on_c, 6, 71, 90
10, 339059, Note_on_c, 6, 71, 0
10, 339059, Note_on_c, 6, 74, 0
10, 339060, Note_on_c, 6, 78, 90
10, 339060, Note_on_c, 6, 74, 90
10, 339179, Note_on_c, 6, 74, 0
10, 339179, Note_on_c, 6, 78, 0
10, 339180, Note_on_c, 6, 73, 90
10, 339180, Note_on_c, 6, 76, 90
10, 339239, Note_on_c, 6, 76, 0
10, 339239, Note_on_c, 6, 73, 0
10, 339240, Note_on_c, 6, 71, 90
10, 339240, Note_on_c, 6, 74, 90
10, 339299, Note_on_c, 6, 74, 0
10, 339299, Note_on_c, 6, 71, 0
10, 339300, Note_on_c, 6, 73, 90
10, 339300, Note_on_c, 6, 76, 90
10, 339419, Note_on_c, 6, 76, 0
10, 339419, Note_on_c, 6, 73, 0
10, 339420, Note_on_c, 6, 73, 90
10, 339420, Note_on_c, 6, 76, 90
10, 339479, Note_on_c, 6, 76, 0
10, 339479, Note_on_c, 6, 73, 0
10, 339480, Note_on_c, 6, 71, 90
10, 339480, Note_on_c, 6, 74, 90
10, 339539, Note_on_c, 6, 74, 0
10, 339539, Note_on_c, 6, 71, 0
10, 339540, Note_on_c, 6, 74, 90
10, 339540, Note_on_c, 6, 78, 90
10, 339659, Note_on_c, 6, 78, 0
10, 339659, Note_on_c, 6, 74, 0
10, 339660, Note_on_c, 6, 73, 90
10, 339660, Note_on_c, 6, 76, 90
10, 339719, Note_on_c, 6, 76, 0
10, 339719, Note_on_c, 6, 73, 0
10, 339720, Note_on_c, 6, 71, 90
10, 339720, Note_on_c, 6, 74, 90
10, 339779, Note_on_c, 6, 74, 0
10, 339779, Note_on_c, 6, 71, 0
10, 339780, Note_on_c, 6, 73, 90
10, 339780, Note_on_c, 6, 76, 90
10, 340019, Note_on_c, 6, 76, 0
10, 340019, Note_on_c, 6, 73, 0
10, 340020, Note_on_c, 6, 73, 90
10, 340020, Note_on_c, 6, 69, 90
10, 340259, Note_on_c, 6, 69, 0
10, 340259, Note_on_c, 6, 73, 0
10, 340260, Note_on_c, 6, 64, 90
10, 340260, Note_on_c, 6, 69, 90
10, 340379, Note_on_c, 6, 69, 0
10, 340379, Note_on_c, 6, 64, 0
10, 340380, Note_on_c, 6, 64, 90
10, 340380, Note_on_c, 6, 61, 90
10, 340499, Note_on_c, 6, 61, 0
10, 340499, Note_on_c, 6, 64, 0
10, 340500, Note_on_c, 6, 73, 90
10, 340500, Note_on_c, 6, 69, 90
10, 340619, Note_on_c, 6, 69, 0
10, 340619, Note_on_c, 6, 73, 0
10, 340620, Note_on_c, 6, 64, 90
10, 340620, Note_on_c, 6, 69, 90
10, 340739, Note_on_c, 6, 69, 0
10, 340739, Note_on_c, 6, 64, 0
10, 340740, Note_on_c, 6, 73, 90
10, 340740, Note_on_c, 6, 76, 90
10, 340859, Note_on_c, 6, 76, 0
10, 340859, Note_on_c, 6, 73, 0
10, 340860, Note_on_c, 6, 73, 90
10, 340860, Note_on_c, 6, 69, 90
10, 340979, Note_on_c, 6, 69, 0
10, 340979, Note_on_c, 6, 73, 0
10, 340980, Note_on_c, 6, 64, 90
10, 340980, Note_on_c, 6, 69, 90
10, 341099, Note_on_c, 6, 69, 0
10, 341099, Note_on_c, 6, 64, 0
10, 341100, Note_on_c, 6, 73, 90
10, 341100, Note_on_c, 6, 69, 90
10, 341219, Note_on_c, 6, 69, 0
10, 341219, Note_on_c, 6, 73, 0
10, 341220, Note_on_c, 6, 66, 90
10, 341220, Note_on_c, 6, 74, 90
10, 341279, Note_on_c, 6, 74, 0
10, 341280, Note_on_c, 6, 76, 90
10, 341339, Note_on_c, 6, 76, 0
10, 341339, Note_on_c, 6, 66, 0
10, 341340, Note_on_c, 6, 74, 90
10, 341340, Note_on_c, 6, 78, 90
10, 341399, Note_on_c, 6, 78, 0
10, 341400, Note_on_c, 6, 79, 90
10, 341459, Note_on_c, 6, 79, 0
10, 341459, Note_on_c, 6, 74, 0
10, 341460, Note_on_c, 6, 74, 90
10, 341460, Note_on_c, 6, 81, 90
10, 341579, Note_on_c, 6, 81, 0
10, 341579, Note_on_c, 6, 74, 0
10, 341580, Note_on_c, 6, 74, 90
10, 341580, Note_on_c, 6, 83, 90
10, 341639, Note_on_c, 6, 83, 0
10, 341640, Note_on_c, 6, 81, 90
10, 341699, Note_on_c, 6, 81, 0
10, 341699, Note_on_c, 6, 74, 0
10, 341700, Note_on_c, 6, 74, 90
10, 341700, Note_on_c, 6, 79, 90
10, 341759, Note_on_c, 6, 79, 0
10, 341760, Note_on_c, 6, 78, 90
10, 341819, Note_on_c, 6, 78, 0
10, 341819, Note_on_c, 6, 74, 0
10, 341820, Note_on_c, 6, 73, 90
10, 341820, Note_on_c, 6, 76, 90
10, 341879, Note_on_c, 6, 76, 0
10, 341880, Note_on_c, 6, 78, 90
10, 341939, Note_on_c, 6, 78, 0
10, 341939, Note_on_c, 6, 73, 0
10, 341940, Note_on_c, 6, 74, 90
10, 342179, Note_on_c, 6, 74, 0
10, 342180, Note_on_c, 6, 74, 90
10, 342180, Note_on_c, 6, 71, 90
10, 342239, Note_on_c, 6, 71, 0
10, 342239, Note_on_c, 6, 74, 0
10, 342240, Note_on_c, 6, 73, 90
10, 342240, Note_on_c, 6, 76, 90
10, 342299, Note_on_c, 6, 76, 0
10, 342299, Note_on_c, 6, 73, 0
10, 342300, Note_on_c, 6, 71, 90
10, 342300, Note_on_c, 6, 74, 90
10, 342359, Note_on_c, 6, 74, 0
10, 342359, Note_on_c, 6, 71, 0
10, 342360, Note_on_c, 6, 73, 90
10, 342360, Note_on_c, 6, 76, 90
10, 342419, Note_on_c, 6, 76, 0
10, 342419, Note_on_c, 6, 73, 0
10, 342420, Note_on_c, 6, 78, 90
10, 342420, Note_on_c, 6, 74, 90
10, 342659, Note_on_c, 6, 74, 0
10, 342659, Note_on_c, 6, 78, 0
10, 343140, Note_on_c, 6, 78, 90
10, 343140, Note_on_c, 6, 74, 90
10, 343379, Note_on_c, 6, 74, 0
10, 343379, Note_on_c, 6, 78, 0
10, 343380, Note_on_c, 6, 74, 90
10, 343380, Note_on_c, 6, 71, 90
10, 343619, Note_on_c, 6, 71, 0
10, 343619, Note_on_c, 6, 74, 0
10, 344580, Note_on_c, 6, 73, 90
10, 344580, Note_on_c, 6, 81, 90
10, 344819, Note_on_c, 6, 81, 0
10, 344819, Note_on_c, 6, 73, 0
10, 344820, Note_on_c, 6, 71, 90
10, 344820, Note_on_c, 6, 76, 90
10, 345059, Note_on_c, 6, 76, 0
10, 345059, Note_on_c, 6, 71, 0
10, 346020, Note_on_c, 6, 73, 90
10, 346020, Note_on_c, 6, 81, 90
10, 346259, Note_on_c, 6, 81, 0
10, 346259, Note_on_c, 6, 73, 0
10, 346260, Note_on_c, 6, 76, 90
10, 346260, Note_on_c, 6, 71, 90
10, 346379, Note_on_c, 6, 71, 0
10, 346380, Note_on_c, 6, 64, 90
10, 346499, Note_on_c, 6, 64, 0
10, 346500, Note_on_c, 6, 68, 90
10, 346619, Note_on_c, 6, 68, 0
10, 346620, Note_on_c, 6, 76, 0
10, 346620, Note_on_c, 6, 69, 90
10, 346620, Note_on_c, 6, 78, 90
10, 346739, Note_on_c, 6, 78, 0
10, 346739, Note_on_c, 6, 69, 0
10, 346740, Note_on_c, 6, 71, 90
10, 346740, Note_on_c, 6, 76, 90
10, 346859, Note_on_c, 6, 76, 0
10, 346859, Note_on_c, 6, 71, 0
10, 346860, Note_on_c, 6, 68, 90
10, 346860, Note_on_c, 6, 74, 90
10, 346979, Note_on_c, 6, 74, 0
10, 346979, Note_on_c, 6, 68, 0
10, 346980, Note_on_c, 6, 73, 90
10, 346980, Note_on_c, 6, 69, 90
10, 347219, Note_on_c, 6, 69, 0
10, 347219, Note_on_c, 6, 73, 0
10, 347220, Note_on_c, 6, 68, 90
10, 347220, Note_on_c, 6, 71, 90
10, 347279, Note_on_c, 6, 71, 0
10, 347280, Note_on_c, 6, 69, 90
10, 347339, Note_on_c, 6, 69, 0
10, 347340, Note_on_c, 6, 71, 90
10, 347459, Note_on_c, 6, 71, 0
10, 347459, Note_on_c, 6, 68, 0
10, 347460, Note_on_c, 6, 69, 90
10, 347699, Note_on_c, 6, 69, 0
10, 347940, Note_on_c, 6, 81, 90
10, 347940, Note_on_c, 6, 78, 90
10, 348179, Note_on_c, 6, 78, 0
10, 348179, Note_on_c, 6, 81, 0
10, 348180, Note_on_c, 6, 78, 90
10, 348180, Note_on_c, 6, 74, 90
10, 348419, Note_on_c, 6, 74, 0
10, 348419, Note_on_c, 6, 78, 0
10, 348420, Note_on_c, 6, 78, 90
10, 348420, Note_on_c, 6, 74, 90
10, 348539, Note_on_c, 6, 74, 0
10, 348539, Note_on_c, 6, 78, 0
10, 348540, Note_on_c, 6, 74, 90
10, 348540, Note_on_c, 6, 78, 90
10, 348599, Note_on_c, 6, 78, 0
10, 348599, Note_on_c, 6, 74, 0
10, 348600, Note_on_c, 6, 73, 90
10, 348600, Note_on_c, 6, 76, 90
10, 348659, Note_on_c, 6, 76, 0
10, 348659, Note_on_c, 6, 73, 0
10, 348660, Note_on_c, 6, 76, 90
10, 348660, Note_on_c, 6, 79, 90
10, 348779, Note_on_c, 6, 79, 0
10, 348779, Note_on_c, 6, 76, 0
10, 348780, Note_on_c, 6, 78, 90
10, 348780, Note_on_c, 6, 74, 90
10, 348839, Note_on_c, 6, 74, 0
10, 348839, Note_on_c, 6, 78, 0
10, 348840, Note_on_c, 6, 73, 90
10, 348840, Note_on_c, 6, 76, 90
10, 348899, Note_on_c, 6, 76, 0
10, 348899, Note_on_c, 6, 73, 0
10, 348900, Note_on_c, 6, 78, 90
10, 348900, Note_on_c, 6, 74, 90
10, 349019, Note_on_c, 6, 74, 0
10, 349019, Note_on_c, 6, 78, 0
10, 349020, Note_on_c, 6, 78, 90
10, 349020, Note_on_c, 6, 74, 90
10, 349079, Note_on_c, 6, 74, 0
10, 349079, Note_on_c, 6, 78, 0
10, 349080, Note_on_c, 6, 73, 90
10, 349080, Note_on_c, 6, 76, 90
10, 349139, Note_on_c, 6, 76, 0
10, 349139, Note_on_c, 6, 73, 0
10, 349140, Note_on_c, 6, 76, 90
10, 349140, Note_on_c, 6, 79, 90
10, 349259, Note_on_c, 6, 79, 0
10, 349259, Note_on_c, 6, 76, 0
10, 349260, Note_on_c, 6, 78, 90
10, 349260, Note_on_c, 6, 74, 90
10, 349319, Note_on_c, 6, 74, 0
10, 349319, Note_on_c, 6, 78, 0
10, 349320, Note_on_c, 6, 73, 90
10, 349320, Note_on_c, 6, 76, 90
10, 349379, Note_on_c, 6, 76, 0
10, 349379, Note_on_c, 6, 73, 0
10, 349380, Note_on_c, 6, 78, 90
10, 349380, Note_on_c, 6, 81, 90
10, 349619, Note_on_c, 6, 81, 0
10, 349619, Note_on_c, 6, 78, 0
10, 349620, Note_on_c, 6, 78, 90
10, 349620, Note_on_c, 6, 74, 90
10, 349859, Note_on_c, 6, 74, 0
10, 349859, Note_on_c, 6, 78, 0
10, 350820, Note_on_c, 6, 78, 90
10, 350820, Note_on_c, 6, 81, 90
10, 351059, Note_on_c, 6, 81, 0
10, 351059, Note_on_c, 6, 78, 0
10, 351060, Note_on_c, 6, 78, 90
10, 351060, Note_on_c, 6, 74, 90
10, 351299, Note_on_c, 6, 74, 0
10, 351299, Note_on_c, 6, 78, 0
10, 351300, Note_on_c, 6, 74, 90
10, 351300, Note_on_c, 6, 69, 90
10, 351419, Note_on_c, 6, 69, 0
10, 351419, Note_on_c, 6, 74, 0
10, 351420, Note_on_c, 6, 66, 90
10, 351420, Note_on_c, 6, 69, 90
10, 351539, Note_on_c, 6, 69, 0
10, 351539, Note_on_c, 6, 66, 0
10, 351540, Note_on_c, 6, 78, 90
10, 351540, Note_on_c, 6, 74, 90
10, 351659, Note_on_c, 6, 74, 0
10, 351659, Note_on_c, 6, 78, 0
10, 351660, Note_on_c, 6, 74, 90
10, 351660, Note_on_c, 6, 69, 90
10, 351779, Note_on_c, 6, 69, 0
10, 351779, Note_on_c, 6, 74, 0
10, 351780, Note_on_c, 6, 81, 90
10, 351780, Note_on_c, 6, 78, 90
10, 351899, Note_on_c, 6, 78, 0
10, 351899, Note_on_c, 6, 81, 0
10, 351900, Note_on_c, 6, 74, 90
10, 351900, Note_on_c, 6, 78, 90
10, 352019, Note_on_c, 6, 78, 0
10, 352019, Note_on_c, 6, 74, 0
10, 352020, Note_on_c, 6, 74, 90
10, 352020, Note_on_c, 6, 69, 90
10, 352139, Note_on_c, 6, 69, 0
10, 352139, Note_on_c, 6, 74, 0
10, 352140, Note_on_c, 6, 66, 90
10, 352140, Note_on_c, 6, 69, 90
10, 352259, Note_on_c, 6, 69, 0
10, 352259, Note_on_c, 6, 66, 0
10, 352260, Note_on_c, 6, 78, 90
10, 352260, Note_on_c, 6, 81, 90
10, 352379, Note_on_c, 6, 81, 0
10, 352379, Note_on_c, 6, 78, 0
10, 352380, Note_on_c, 6, 78, 90
10, 352380, Note_on_c, 6, 81, 90
10, 352439, Note_on_c, 6, 81, 0
10, 352439, Note_on_c, 6, 78, 0
10, 352440, Note_on_c, 6, 76, 90
10, 352440, Note_on_c, 6, 79, 90
10, 352499, Note_on_c, 6, 79, 0
10, 352499, Note_on_c, 6, 76, 0
10, 352500, Note_on_c, 6, 83, 90
10, 352500, Note_on_c, 6, 79, 90
10, 352619, Note_on_c, 6, 79, 0
10, 352619, Note_on_c, 6, 83, 0
10, 352620, Note_on_c, 6, 78, 90
10, 352620, Note_on_c, 6, 81, 90
10, 352679, Note_on_c, 6, 81, 0
10, 352679, Note_on_c, 6, 78, 0
10, 352680, Note_on_c, 6, 76, 90
10, 352680, Note_on_c, 6, 79, 90
10, 352739, Note_on_c, 6, 79, 0
10, 352739, Note_on_c, 6, 76, 0
10, 352740, Note_on_c, 6, 78, 90
10, 352740, Note_on_c, 6, 81, 90
10, 352859, Note_on_c, 6, 81, 0
10, 352859, Note_on_c, 6, 78, 0
10, 352860, Note_on_c, 6, 79, 90
10, 352860, Note_on_c, 6, 76, 90
10, 352919, Note_on_c, 6, 76, 0
10, 352919, Note_on_c, 6, 79, 0
10, 352920, Note_on_c, 6, 78, 90
10, 352920, Note_on_c, 6, 74, 90
10, 352979, Note_on_c, 6, 74, 0
10, 352979, Note_on_c, 6, 78, 0
10, 352980, Note_on_c, 6, 73, 90
10, 352980, Note_on_c, 6, 76, 90
10, 353219, Note_on_c, 6, 76, 0
10, 353219, Note_on_c, 6, 73, 0
10, 353220, Note_on_c, 6, 81, 90
10, 353220, Note_on_c, 6, 85, 90
10, 353459, Note_on_c, 6, 85, 0
10, 353459, Note_on_c, 6, 81, 0
10, 353460, Note_on_c, 6, 76, 90
10, 353460, Note_on_c, 6, 81, 90
10, 353699, Note_on_c, 6, 81, 0
10, 353699, Note_on_c, 6, 76, 0
10, 353700, Note_on_c, 6, 64, 90
10, 353819, Note_on_c, 6, 64, 0
10, 353820, Note_on_c, 6, 64, 90
10, 353939, Note_on_c, 6, 64, 0
10, 353940, Note_on_c, 6, 64, 90
10, 354059, Note_on_c, 6, 64, 0
10, 354060, Note_on_c, 6, 64, 90
10, 354179, Note_on_c, 6, 64, 0
10, 354180, Note_on_c, 6, 64, 90
10, 354299, Note_on_c, 6, 64, 0
10, 354300, Note_on_c, 6, 64, 90
10, 354419, Note_on_c, 6, 64, 0
10, 354420, Note_on_c, 6, 64, 90
10, 354539, Note_on_c, 6, 64, 0
10, 354540, Note_on_c, 6, 64, 90
10, 354659, Note_on_c, 6, 64, 0
10, 354660, Note_on_c, 6, 81, 90
10, 354660, Note_on_c, 6, 85, 90
10, 354900, Note_on_c, 6, 85, 0
10, 354900, Note_on_c, 6, 81, 0
10, 354900, Note_on_c, 6, 76, 90
10, 354900, Note_on_c, 6, 81, 90
10, 355140, Note_on_c, 6, 81, 0
10, 355140, Note_on_c, 6, 76, 0
10, 356100, Note_on_c, 6, 85, 90
10, 356100, Note_on_c, 6, 81, 90
10, 356339, Note_on_c, 6, 81, 0
10, 356339, Note_on_c, 6, 85, 0
10, 356340, Note_on_c, 6, 76, 90
10, 356340, Note_on_c, 6, 81, 90
10, 356579, Note_on_c, 6, 81, 0
10, 356579, Note_on_c, 6, 76, 0
10, 356580, Note_on_c, 6, 69, 90
10, 356580, Note_on_c, 6, 76, 90
10, 356699, Note_on_c, 6, 76, 0
10, 356699, Note_on_c, 6, 69, 0
10, 356700, Note_on_c, 6, 64, 90
10, 356700, Note_on_c, 6, 73, 90
10, 356819, Note_on_c, 6, 73, 0
10, 356819, Note_on_c, 6, 64, 0
10, 356820, Note_on_c, 6, 73, 90
10, 356820, Note_on_c, 6, 81, 90
10, 356939, Note_on_c, 6, 81, 0
10, 356939, Note_on_c, 6, 73, 0
10, 356940, Note_on_c, 6, 76, 90
10, 356940, Note_on_c, 6, 69, 90
10, 357059, Note_on_c, 6, 69, 0
10, 357059, Note_on_c, 6, 76, 0
10, 357060, Note_on_c, 6, 85, 90
10, 357060, Note_on_c, 6, 76, 90
10, 357179, Note_on_c, 6, 76, 0
10, 357179, Note_on_c, 6, 85, 0
10, 357180, Note_on_c, 6, 73, 90
10, 357180, Note_on_c, 6, 81, 90
10, 357299, Note_on_c, 6, 81, 0
10, 357299, Note_on_c, 6, 73, 0
10, 357300, Note_on_c, 6, 69, 90
10, 357300, Note_on_c, 6, 76, 90
10, 357419, Note_on_c, 6, 76, 0
10, 357419, Note_on_c, 6, 69, 0
10, 357420, Note_on_c, 6, 64, 90
10, 357420, Note_on_c, 6, 73, 90
10, 357539, Note_on_c, 6, 73, 0
10, 357539, Note_on_c, 6, 64, 0
10, 357540, Note_on_c, 6, 71, 90
10, 357540, Note_on_c, 6, 74, 90
10, 357600, Note_on_c, 6, 74, 0
10, 357600, Note_on_c, 6, 71, 0
10, 357600, Note_on_c, 6, 73, 90
10, 357600, Note_on_c, 6, 76, 90
10, 357660, Note_on_c, 6, 76, 0
10, 357660, Note_on_c, 6, 73, 0
10, 357660, Note_on_c, 6, 74, 90
10, 357660, Note_on_c, 6, 78, 90
10, 357720, Note_on_c, 6, 78, 0
10, 357720, Note_on_c, 6, 79, 90
10, 357780, Note_on_c, 6, 79, 0
10, 357780, Note_on_c, 6, 74, 0
10, 357780, Note_on_c, 6, 74, 90
10, 357780, Note_on_c, 6, 81, 90
10, 357899, Note_on_c, 6, 81, 0
10, 357899, Note_on_c, 6, 74, 0
10, 357900, Note_on_c, 6, 74, 90
10, 357900, Note_on_c, 6, 83, 90
10, 357959, Note_on_c, 6, 83, 0
10, 357960, Note_on_c, 6, 81, 90
10, 358019, Note_on_c, 6, 81, 0
10, 358020, Note_on_c, 6, 74, 0
10, 358020, Note_on_c, 6, 74, 90
10, 358020, Note_on_c, 6, 79, 90
10, 358079, Note_on_c, 6, 79, 0
10, 358080, Note_on_c, 6, 78, 90
10, 358139, Note_on_c, 6, 78, 0
10, 358140, Note_on_c, 6, 74, 0
10, 358140, Note_on_c, 6, 73, 90
10, 358140, Note_on_c, 6, 76, 90
10, 358199, Note_on_c, 6, 76, 0
10, 358200, Note_on_c, 6, 78, 90
10, 358259, Note_on_c, 6, 78, 0
10, 358260, Note_on_c, 6, 73, 0
10, 358260, Note_on_c, 6, 69, 90
10, 358260, Note_on_c, 6, 74, 90
10, 358499, Note_on_c, 6, 74, 0
10, 358499, Note_on_c, 6, 69, 0
10, 359460, Note_on_c, 6, 81, 90
10, 359460, Note_on_c, 6, 73, 90
10, 359699, Note_on_c, 6, 73, 0
10, 359699, Note_on_c, 6, 81, 0
10, 359700, Note_on_c, 6, 76, 90
10, 359700, Note_on_c, 6, 69, 90
10, 359939, Note_on_c, 6, 69, 0
10, 359939, Note_on_c, 6, 76, 0
10, 360900, Note_on_c, 6, 85, 90
10, 360900, Note_on_c, 6, 81, 90
10, 361139, Note_on_c, 6, 81, 0
10, 361139, Note_on_c, 6, 85, 0
10, 361140, Note_on_c, 6, 73, 90
10, 361140, Note_on_c, 6, 80, 90
10, 361379, Note_on_c, 6, 80, 0
10, 361379, Note_on_c, 6, 73, 0
10, 362340, Note_on_c, 6, 78, 90
10, 362340, Note_on_c, 6, 81, 90
10, 362579, Note_on_c, 6, 81, 0
10, 362579, Note_on_c, 6, 78, 0
10, 362580, Note_on_c, 6, 78, 90
10, 362580, Note_on_c, 6, 73, 90
10, 362819, Note_on_c, 6, 73, 0
10, 362820, Note_on_c, 6, 71, 90
10, 362880, Note_on_c, 6, 78, 0
10, 362880, Note_on_c, 6, 76, 90
10, 362940, Note_on_c, 6, 76, 0
10, 362940, Note_on_c, 6, 71, 0
10, 362940, Note_on_c, 6, 74, 90
10, 363000, Note_on_c, 6, 74, 0
10, 363000, Note_on_c, 6, 73, 90
10, 363060, Note_on_c, 6, 73, 0
10, 363060, Note_on_c, 6, 71, 90
10, 363120, Note_on_c, 6, 71, 0
10, 363120, Note_on_c, 6, 73, 90
10, 363180, Note_on_c, 6, 73, 0
10, 363180, Note_on_c, 6, 74, 90
10, 363300, Note_on_c, 6, 74, 0
10, 363300, Note_on_c, 6, 69, 90
10, 363540, Note_on_c, 6, 69, 0
10, 363540, Note_on_c, 6, 68, 90
10, 363780, Note_on_c, 6, 68, 0
10, 363780, Note_on_c, 6, 66, 90
10, 364020, Note_on_c, 6, 66, 0
10, 364260, Note_on_c, 6, 78, 90
10, 364260, Note_on_c, 6, 81, 90
10, 364499, Note_on_c, 6, 81, 0
10, 364499, Note_on_c, 6, 78, 0
10, 364500, Note_on_c, 6, 78, 90
10, 364500, Note_on_c, 6, 74, 90
10, 364739, Note_on_c, 6, 74, 0
10, 364739, Note_on_c, 6, 78, 0
10, 364740, Note_on_c, 6, 66, 90
10, 364740, Note_on_c, 6, 74, 90
10, 364859, Note_on_c, 6, 74, 0
10, 364859, Note_on_c, 6, 66, 0
10, 364860, Note_on_c, 6, 66, 90
10, 364860, Note_on_c, 6, 74, 90
10, 364919, Note_on_c, 6, 74, 0
10, 364919, Note_on_c, 6, 66, 0
10, 364920, Note_on_c, 6, 73, 90
10, 364920, Note_on_c, 6, 64, 90
10, 364979, Note_on_c, 6, 64, 0
10, 364979, Note_on_c, 6, 73, 0
10, 364980, Note_on_c, 6, 76, 90
10, 364980, Note_on_c, 6, 67, 90
10, 365099, Note_on_c, 6, 67, 0
10, 365099, Note_on_c, 6, 76, 0
10, 365100, Note_on_c, 6, 66, 90
10, 365100, Note_on_c, 6, 74, 90
10, 365159, Note_on_c, 6, 74, 0
10, 365159, Note_on_c, 6, 66, 0
10, 365160, Note_on_c, 6, 73, 90
10, 365160, Note_on_c, 6, 64, 90
10, 365219, Note_on_c, 6, 64, 0
10, 365219, Note_on_c, 6, 73, 0
10, 365220, Note_on_c, 6, 66, 90
10, 365220, Note_on_c, 6, 74, 90
10, 365339, Note_on_c, 6, 74, 0
10, 365339, Note_on_c, 6, 66, 0
10, 365340, Note_on_c, 6, 66, 90
10, 365340, Note_on_c, 6, 74, 90
10, 365399, Note_on_c, 6, 74, 0
10, 365399, Note_on_c, 6, 66, 0
10, 365400, Note_on_c, 6, 73, 90
10, 365400, Note_on_c, 6, 64, 90
10, 365459, Note_on_c, 6, 64, 0
10, 365459, Note_on_c, 6, 73, 0
10, 365460, Note_on_c, 6, 67, 90
10, 365460, Note_on_c, 6, 76, 90
10, 365579, Note_on_c, 6, 76, 0
10, 365579, Note_on_c, 6, 67, 0
10, 365580, Note_on_c, 6, 74, 90
10, 365580, Note_on_c, 6, 66, 90
10, 365639, Note_on_c, 6, 66, 0
10, 365639, Note_on_c, 6, 74, 0
10, 365640, Note_on_c, 6, 73, 90
10, 365640, Note_on_c, 6, 64, 90
10, 365699, Note_on_c, 6, 64, 0
10, 365699, Note_on_c, 6, 73, 0
10, 365700, Note_on_c, 6, 78, 90
10, 365700, Note_on_c, 6, 81, 90
10, 365939, Note_on_c, 6, 81, 0
10, 365939, Note_on_c, 6, 78, 0
10, 365940, Note_on_c, 6, 78, 90
10, 365940, Note_on_c, 6, 74, 90
10, 366179, Note_on_c, 6, 74, 0
10, 366179, Note_on_c, 6, 78, 0
10, 366180, Note_on_c, 6, 78, 90
10, 366180, Note_on_c, 6, 69, 90
10, 366299, Note_on_c, 6, 69, 0
10, 366299, Note_on_c, 6, 78, 0
10, 366300, Note_on_c, 6, 78, 90
10, 366300, Note_on_c, 6, 69, 90
10, 366359, Note_on_c, 6, 69, 0
10, 366359, Note_on_c, 6, 78, 0
10, 366360, Note_on_c, 6, 76, 90
10, 366360, Note_on_c, 6, 67, 90
10, 366419, Note_on_c, 6, 67, 0
10, 366419, Note_on_c, 6, 76, 0
10, 366420, Note_on_c, 6, 79, 90
10, 366420, Note_on_c, 6, 71, 90
10, 366539, Note_on_c, 6, 71, 0
10, 366539, Note_on_c, 6, 79, 0
10, 366540, Note_on_c, 6, 78, 90
10, 366540, Note_on_c, 6, 69, 90
10, 366599, Note_on_c, 6, 69, 0
10, 366599, Note_on_c, 6, 78, 0
10, 366600, Note_on_c, 6, 76, 90
10, 366600, Note_on_c, 6, 67, 90
10, 366659, Note_on_c, 6, 67, 0
10, 366659, Note_on_c, 6, 76, 0
10, 366660, Note_on_c, 6, 78, 90
10, 366660, Note_on_c, 6, 69, 90
10, 366779, Note_on_c, 6, 69, 0
10, 366779, Note_on_c, 6, 78, 0
10, 366780, Note_on_c, 6, 78, 90
10, 366780, Note_on_c, 6, 69, 90
10, 366839, Note_on_c, 6, 69, 0
10, 366839, Note_on_c, 6, 78, 0
10, 366840, Note_on_c, 6, 76, 90
10, 366840, Note_on_c, 6, 67, 90
10, 366899, Note_on_c, 6, 67, 0
10, 366899, Note_on_c, 6, 76, 0
10, 366900, Note_on_c, 6, 79, 90
10, 366900, Note_on_c, 6, 71, 90
10, 367019, Note_on_c, 6, 71, 0
10, 367019, Note_on_c, 6, 79, 0
10, 367020, Note_on_c, 6, 78, 90
10, 367020, Note_on_c, 6, 69, 90
10, 367079, Note_on_c, 6, 69, 0
10, 367079, Note_on_c, 6, 78, 0
10, 367080, Note_on_c, 6, 76, 90
10, 367080, Note_on_c, 6, 67, 90
10, 367139, Note_on_c, 6, 67, 0
10, 367139, Note_on_c, 6, 76, 0
10, 367140, Note_on_c, 6, 78, 90
10, 367140, Note_on_c, 6, 81, 90
10, 367379, Note_on_c, 6, 81, 0
10, 367379, Note_on_c, 6, 78, 0
10, 367380, Note_on_c, 6, 74, 90
10, 367380, Note_on_c, 6, 78, 90
10, 367619, Note_on_c, 6, 78, 0
10, 367619, Note_on_c, 6, 74, 0
10, 367620, Note_on_c, 6, 69, 90
10, 367620, Note_on_c, 6, 74, 90
10, 367739, Note_on_c, 6, 74, 0
10, 367739, Note_on_c, 6, 69, 0
10, 367740, Note_on_c, 6, 66, 90
10, 367740, Note_on_c, 6, 69, 90
10, 367859, Note_on_c, 6, 69, 0
10, 367859, Note_on_c, 6, 66, 0
10, 367860, Note_on_c, 6, 74, 90
10, 367860, Note_on_c, 6, 78, 90
10, 367979, Note_on_c, 6, 78, 0
10, 367979, Note_on_c, 6, 74, 0
10, 367980, Note_on_c, 6, 69, 90
10, 367980, Note_on_c, 6, 74, 90
10, 368099, Note_on_c, 6, 74, 0
10, 368099, Note_on_c, 6, 69, 0
10, 368100, Note_on_c, 6, 78, 90
10, 368100, Note_on_c, 6, 81, 90
10, 368219, Note_on_c, 6, 81, 0
10, 368219, Note_on_c, 6, 78, 0
10, 368220, Note_on_c, 6, 74, 90
10, 368220, Note_on_c, 6, 78, 90
10, 368339, Note_on_c, 6, 78, 0
10, 368339, Note_on_c, 6, 74, 0
10, 368340, Note_on_c, 6, 69, 90
10, 368340, Note_on_c, 6, 74, 90
10, 368459, Note_on_c, 6, 74, 0
10, 368459, Note_on_c, 6, 69, 0
10, 368460, Note_on_c, 6, 66, 90
10, 368460, Note_on_c, 6, 69, 90
10, 368579, Note_on_c, 6, 69, 0
10, 368579, Note_on_c, 6, 66, 0
10, 368580, Note_on_c, 6, 78, 90
10, 368580, Note_on_c, 6, 81, 90
10, 368699, Note_on_c, 6, 81, 0
10, 368699, Note_on_c, 6, 78, 0
10, 368700, Note_on_c, 6, 78, 90
10, 368700, Note_on_c, 6, 81, 90
10, 368759, Note_on_c, 6, 81, 0
10, 368759, Note_on_c, 6, 78, 0
10, 368760, Note_on_c, 6, 76, 90
10, 368760, Note_on_c, 6, 79, 90
10, 368819, Note_on_c, 6, 79, 0
10, 368819, Note_on_c, 6, 76, 0
10, 368820, Note_on_c, 6, 79, 90
10, 368820, Note_on_c, 6, 83, 90
10, 368939, Note_on_c, 6, 83, 0
10, 368939, Note_on_c, 6, 79, 0
10, 368940, Note_on_c, 6, 81, 90
10, 368940, Note_on_c, 6, 78, 90
10, 368999, Note_on_c, 6, 78, 0
10, 368999, Note_on_c, 6, 81, 0
10, 369000, Note_on_c, 6, 76, 90
10, 369000, Note_on_c, 6, 79, 90
10, 369059, Note_on_c, 6, 79, 0
10, 369059, Note_on_c, 6, 76, 0
10, 369060, Note_on_c, 6, 78, 90
10, 369060, Note_on_c, 6, 81, 90
10, 369179, Note_on_c, 6, 81, 0
10, 369179, Note_on_c, 6, 78, 0
10, 369180, Note_on_c, 6, 79, 90
10, 369180, Note_on_c, 6, 76, 90
10, 369239, Note_on_c, 6, 76, 0
10, 369239, Note_on_c, 6, 79, 0
10, 369240, Note_on_c, 6, 78, 90
10, 369240, Note_on_c, 6, 74, 90
10, 369299, Note_on_c, 6, 74, 0
10, 369299, Note_on_c, 6, 78, 0
10, 369300, Note_on_c, 6, 73, 90
10, 369300, Note_on_c, 6, 76, 90
10, 369539, Note_on_c, 6, 76, 0
10, 369539, Note_on_c, 6, 73, 0
10, 369540, Note_on_c, 6, 85, 90
10, 369540, Note_on_c, 6, 81, 90
10, 369779, Note_on_c, 6, 81, 0
10, 369779, Note_on_c, 6, 85, 0
10, 369780, Note_on_c, 6, 76, 90
10, 369780, Note_on_c, 6, 81, 90
10, 370019, Note_on_c, 6, 81, 0
10, 370019, Note_on_c, 6, 76, 0
10, 370020, Note_on_c, 6, 73, 90
10, 370020, Note_on_c, 6, 69, 90
10, 370139, Note_on_c, 6, 69, 0
10, 370139, Note_on_c, 6, 73, 0
10, 370140, Note_on_c, 6, 73, 90
10, 370140, Note_on_c, 6, 69, 90
10, 370199, Note_on_c, 6, 69, 0
10, 370199, Note_on_c, 6, 73, 0
10, 370200, Note_on_c, 6, 68, 90
10, 370200, Note_on_c, 6, 71, 90
10, 370259, Note_on_c, 6, 71, 0
10, 370259, Note_on_c, 6, 68, 0
10, 370260, Note_on_c, 6, 74, 90
10, 370260, Note_on_c, 6, 71, 90
10, 370379, Note_on_c, 6, 71, 0
10, 370379, Note_on_c, 6, 74, 0
10, 370380, Note_on_c, 6, 73, 90
10, 370380, Note_on_c, 6, 69, 90
10, 370439, Note_on_c, 6, 69, 0
10, 370439, Note_on_c, 6, 73, 0
10, 370440, Note_on_c, 6, 68, 90
10, 370440, Note_on_c, 6, 71, 90
10, 370499, Note_on_c, 6, 71, 0
10, 370499, Note_on_c, 6, 68, 0
10, 370500, Note_on_c, 6, 73, 90
10, 370500, Note_on_c, 6, 69, 90
10, 370619, Note_on_c, 6, 69, 0
10, 370619, Note_on_c, 6, 73, 0
10, 370620, Note_on_c, 6, 73, 90
10, 370620, Note_on_c, 6, 69, 90
10, 370679, Note_on_c, 6, 69, 0
10, 370679, Note_on_c, 6, 73, 0
10, 370680, Note_on_c, 6, 68, 90
10, 370680, Note_on_c, 6, 71, 90
10, 370739, Note_on_c, 6, 71, 0
10, 370739, Note_on_c, 6, 68, 0
10, 370740, Note_on_c, 6, 74, 90
10, 370740, Note_on_c, 6, 71, 90
10, 370859, Note_on_c, 6, 71, 0
10, 370859, Note_on_c, 6, 74, 0
10, 370860, Note_on_c, 6, 73, 90
10, 370860, Note_on_c, 6, 69, 90
10, 370919, Note_on_c, 6, 69, 0
10, 370919, Note_on_c, 6, 73, 0
10, 370920, Note_on_c, 6, 68, 90
10, 370920, Note_on_c, 6, 71, 90
10, 370979, Note_on_c, 6, 71, 0
10, 370979, Note_on_c, 6, 68, 0
10, 370980, Note_on_c, 6, 81, 90
10, 370980, Note_on_c, 6, 76, 90
10, 371219, Note_on_c, 6, 76, 0
10, 371219, Note_on_c, 6, 81, 0
10, 371220, Note_on_c, 6, 73, 90
10, 371220, Note_on_c, 6, 76, 90
10, 371459, Note_on_c, 6, 76, 0
10, 371459, Note_on_c, 6, 73, 0
10, 371460, Note_on_c, 6, 73, 90
10, 371460, Note_on_c, 6, 76, 90
10, 371579, Note_on_c, 6, 76, 0
10, 371579, Note_on_c, 6, 73, 0
10, 371580, Note_on_c, 6, 73, 90
10, 371580, Note_on_c, 6, 76, 90
10, 371639, Note_on_c, 6, 76, 0
10, 371639, Note_on_c, 6, 73, 0
10, 371640, Note_on_c, 6, 71, 90
10, 371640, Note_on_c, 6, 74, 90
10, 371699, Note_on_c, 6, 74, 0
10, 371699, Note_on_c, 6, 71, 0
10, 371700, Note_on_c, 6, 74, 90
10, 371700, Note_on_c, 6, 78, 90
10, 371819, Note_on_c, 6, 78, 0
10, 371819, Note_on_c, 6, 74, 0
10, 371820, Note_on_c, 6, 73, 90
10, 371820, Note_on_c, 6, 76, 90
10, 371879, Note_on_c, 6, 76, 0
10, 371879, Note_on_c, 6, 73, 0
10, 371880, Note_on_c, 6, 71, 90
10, 371880, Note_on_c, 6, 74, 90
10, 371939, Note_on_c, 6, 74, 0
10, 371939, Note_on_c, 6, 71, 0
10, 371940, Note_on_c, 6, 76, 90
10, 371940, Note_on_c, 6, 73, 90
10, 372059, Note_on_c, 6, 73, 0
10, 372059, Note_on_c, 6, 76, 0
10, 372060, Note_on_c, 6, 73, 90
10, 372060, Note_on_c, 6, 76, 90
10, 372119, Note_on_c, 6, 76, 0
10, 372119, Note_on_c, 6, 73, 0
10, 372120, Note_on_c, 6, 74, 90
10, 372120, Note_on_c, 6, 71, 90
10, 372179, Note_on_c, 6, 71, 0
10, 372179, Note_on_c, 6, 74, 0
10, 372180, Note_on_c, 6, 78, 90
10, 372180, Note_on_c, 6, 74, 90
10, 372299, Note_on_c, 6, 74, 0
10, 372299, Note_on_c, 6, 78, 0
10, 372300, Note_on_c, 6, 76, 90
10, 372300, Note_on_c, 6, 73, 90
10, 372359, Note_on_c, 6, 73, 0
10, 372359, Note_on_c, 6, 76, 0
10, 372360, Note_on_c, 6, 74, 90
10, 372360, Note_on_c, 6, 71, 90
10, 372419, Note_on_c, 6, 71, 0
10, 372419, Note_on_c, 6, 74, 0
10, 372420, Note_on_c, 6, 73, 90
10, 372420, Note_on_c, 6, 76, 90
10, 372659, Note_on_c, 6, 76, 0
10, 372659, Note_on_c, 6, 73, 0
10, 372660, Note_on_c, 6, 73, 90
10, 372660, Note_on_c, 6, 69, 90
10, 372899, Note_on_c, 6, 69, 0
10, 372899, Note_on_c, 6, 73, 0
10, 372900, Note_on_c, 6, 64, 90
10, 372900, Note_on_c, 6, 69, 90
10, 373019, Note_on_c, 6, 69, 0
10, 373019, Note_on_c, 6, 64, 0
10, 373020, Note_on_c, 6, 61, 90
10, 373020, Note_on_c, 6, 64, 90
10, 373139, Note_on_c, 6, 64, 0
10, 373139, Note_on_c, 6, 61, 0
10, 373140, Note_on_c, 6, 73, 90
10, 373140, Note_on_c, 6, 69, 90
10, 373259, Note_on_c, 6, 69, 0
10, 373259, Note_on_c, 6, 73, 0
10, 373260, Note_on_c, 6, 69, 90
10, 373260, Note_on_c, 6, 64, 90
10, 373379, Note_on_c, 6, 64, 0
10, 373379, Note_on_c, 6, 69, 0
10, 373380, Note_on_c, 6, 73, 90
10, 373380, Note_on_c, 6, 76, 90
10, 373499, Note_on_c, 6, 76, 0
10, 373499, Note_on_c, 6, 73, 0
10, 373500, Note_on_c, 6, 73, 90
10, 373500, Note_on_c, 6, 69, 90
10, 373619, Note_on_c, 6, 69, 0
10, 373619, Note_on_c, 6, 73, 0
10, 373620, Note_on_c, 6, 64, 90
10, 373620, Note_on_c, 6, 69, 90
10, 373739, Note_on_c, 6, 69, 0
10, 373739, Note_on_c, 6, 64, 0
10, 373740, Note_on_c, 6, 69, 90
10, 373740, Note_on_c, 6, 73, 90
10, 373859, Note_on_c, 6, 73, 0
10, 373859, Note_on_c, 6, 69, 0
10, 373860, Note_on_c, 6, 66, 90
10, 373860, Note_on_c, 6, 74, 90
10, 373919, Note_on_c, 6, 74, 0
10, 373920, Note_on_c, 6, 76, 90
10, 373979, Note_on_c, 6, 76, 0
10, 373979, Note_on_c, 6, 66, 0
10, 373980, Note_on_c, 6, 74, 90
10, 373980, Note_on_c, 6, 78, 90
10, 374039, Note_on_c, 6, 78, 0
10, 374040, Note_on_c, 6, 79, 90
10, 374099, Note_on_c, 6, 79, 0
10, 374099, Note_on_c, 6, 74, 0
10, 374100, Note_on_c, 6, 74, 90
10, 374100, Note_on_c, 6, 81, 90
10, 374219, Note_on_c, 6, 81, 0
10, 374219, Note_on_c, 6, 74, 0
10, 374220, Note_on_c, 6, 74, 90
10, 374220, Note_on_c, 6, 83, 90
10, 374279, Note_on_c, 6, 83, 0
10, 374280, Note_on_c, 6, 81, 90
10, 374339, Note_on_c, 6, 81, 0
10, 374339, Note_on_c, 6, 74, 0
10, 374340, Note_on_c, 6, 74, 90
10, 374340, Note_on_c, 6, 79, 90
10, 374399, Note_on_c, 6, 79, 0
10, 374400, Note_on_c, 6, 78, 90
10, 374459, Note_on_c, 6, 78, 0
10, 374459, Note_on_c, 6, 74, 0
10, 374460, Note_on_c, 6, 73, 90
10, 374460, Note_on_c, 6, 76, 90
10, 374519, Note_on_c, 6, 76, 0
10, 374520, Note_on_c, 6, 78, 90
10, 374579, Note_on_c, 6, 78, 0
10, 374579, Note_on_c, 6, 73, 0
10, 374580, Note_on_c, 6, 74, 90
10, 374819, Note_on_c, 6, 74, 0
10, 376740, Note_on_c, 6, 78, 90
10, 376740, Note_on_c, 6, 69, 90
10, 376859, Note_on_c, 6, 69, 0
10, 376859, Note_on_c, 6, 78, 0
10, 376860, Note_on_c, 6, 78, 90
10, 376860, Note_on_c, 6, 69, 90
10, 376919, Note_on_c, 6, 69, 0
10, 376919, Note_on_c, 6, 78, 0
10, 376920, Note_on_c, 6, 76, 90
10, 376920, Note_on_c, 6, 67, 90
10, 376979, Note_on_c, 6, 67, 0
10, 376979, Note_on_c, 6, 76, 0
10, 376980, Note_on_c, 6, 79, 90
10, 376980, Note_on_c, 6, 71, 90
10, 377099, Note_on_c, 6, 71, 0
10, 377099, Note_on_c, 6, 79, 0
10, 377100, Note_on_c, 6, 78, 90
10, 377100, Note_on_c, 6, 69, 90
10, 377159, Note_on_c, 6, 69, 0
10, 377159, Note_on_c, 6, 78, 0
10, 377160, Note_on_c, 6, 76, 90
10, 377160, Note_on_c, 6, 67, 90
10, 377219, Note_on_c, 6, 67, 0
10, 377219, Note_on_c, 6, 76, 0
10, 377220, Note_on_c, 6, 78, 90
10, 377220, Note_on_c, 6, 69, 90
10, 377339, Note_on_c, 6, 69, 0
10, 377339, Note_on_c, 6, 78, 0
10, 377340, Note_on_c, 6, 78, 90
10, 377340, Note_on_c, 6, 69, 90
10, 377399, Note_on_c, 6, 69, 0
10, 377399, Note_on_c, 6, 78, 0
10, 377400, Note_on_c, 6, 76, 90
10, 377400, Note_on_c, 6, 67, 90
10, 377459, Note_on_c, 6, 67, 0
10, 377459, Note_on_c, 6, 76, 0
10, 377460, Note_on_c, 6, 79, 90
10, 377460, Note_on_c, 6, 71, 90
10, 377579, Note_on_c, 6, 71, 0
10, 377579, Note_on_c, 6, 79, 0
10, 377580, Note_on_c, 6, 78, 90
10, 377580, Note_on_c, 6, 69, 90
10, 377639, Note_on_c, 6, 69, 0
10, 377639, Note_on_c, 6, 78, 0
10, 377640, Note_on_c, 6, 76, 90
10, 377640, Note_on_c, 6, 67, 90
10, 377699, Note_on_c, 6, 67, 0
10, 377699, Note_on_c, 6, 76, 0
10, 377700, Note_on_c, 6, 78, 90
10, 377700, Note_on_c, 6, 81, 90
10, 377939, Note_on_c, 6, 81, 0
10, 377939, Note_on_c, 6, 78, 0
10, 377940, Note_on_c, 6, 74, 90
10, 377940, Note_on_c, 6, 78, 90
10, 378179, Note_on_c, 6, 78, 0
10, 378179, Note_on_c, 6, 74, 0
10, 378180, Note_on_c, 6, 69, 90
10, 378180, Note_on_c, 6, 74, 90
10, 378299, Note_on_c, 6, 74, 0
10, 378299, Note_on_c, 6, 69, 0
10, 378300, Note_on_c, 6, 66, 90
10, 378300, Note_on_c, 6, 69, 90
10, 378419, Note_on_c, 6, 69, 0
10, 378419, Note_on_c, 6, 66, 0
10, 378420, Note_on_c, 6, 74, 90
10, 378420, Note_on_c, 6, 78, 90
10, 378539, Note_on_c, 6, 78, 0
10, 378539, Note_on_c, 6, 74, 0
10, 378540, Note_on_c, 6, 69, 90
10, 378540, Note_on_c, 6, 74, 90
10, 378659, Note_on_c, 6, 74, 0
10, 378659, Note_on_c, 6, 69, 0
10, 378660, Note_on_c, 6, 78, 90
10, 378660, Note_on_c, 6, 81, 90
10, 378779, Note_on_c, 6, 81, 0
10, 378779, Note_on_c, 6, 78, 0
10, 378780, Note_on_c, 6, 74, 90
10, 378780, Note_on_c, 6, 78, 90
10, 378899, Note_on_c, 6, 78, 0
10, 378899, Note_on_c, 6, 74, 0
10, 378900, Note_on_c, 6, 69, 90
10, 378900, Note_on_c, 6, 74, 90
10, 379019, Note_on_c, 6, 74, 0
10, 379019, Note_on_c, 6, 69, 0
10, 379020, Note_on_c, 6, 66, 90
10, 379020, Note_on_c, 6, 69, 90
10, 379139, Note_on_c, 6, 69, 0
10, 379139, Note_on_c, 6, 66, 0
10, 379140, Note_on_c, 6, 78, 90
10, 379140, Note_on_c, 6, 81, 90
10, 379259, Note_on_c, 6, 81, 0
10, 379259, Note_on_c, 6, 78, 0
10, 379260, Note_on_c, 6, 78, 90
10, 379260, Note_on_c, 6, 81, 90
10, 379319, Note_on_c, 6, 81, 0
10, 379319, Note_on_c, 6, 78, 0
10, 379320, Note_on_c, 6, 76, 90
10, 379320, Note_on_c, 6, 79, 90
10, 379379, Note_on_c, 6, 79, 0
10, 379379, Note_on_c, 6, 76, 0
10, 379380, Note_on_c, 6, 79, 90
10, 379380, Note_on_c, 6, 83, 90
10, 379499, Note_on_c, 6, 83, 0
10, 379499, Note_on_c, 6, 79, 0
10, 379500, Note_on_c, 6, 81, 90
10, 379500, Note_on_c, 6, 78, 90
10, 379559, Note_on_c, 6, 78, 0
10, 379559, Note_on_c, 6, 81, 0
10, 379560, Note_on_c, 6, 76, 90
10, 379560, Note_on_c, 6, 79, 90
10, 379619, Note_on_c, 6, 79, 0
10, 379619, Note_on_c, 6, 76, 0
10, 379620, Note_on_c, 6, 78, 90
10, 379620, Note_on_c, 6, 81, 90
10, 379739, Note_on_c, 6, 81, 0
10, 379739, Note_on_c, 6, 78, 0
10, 379740, Note_on_c, 6, 79, 90
10, 379740, Note_on_c, 6, 76, 90
10, 379799, Note_on_c, 6, 76, 0
10, 379799, Note_on_c, 6, 79, 0
10, 379800, Note_on_c, 6, 78, 90
10, 379800, Note_on_c, 6, 74, 90
10, 379859, Note_on_c, 6, 74, 0
10, 379859, Note_on_c, 6, 78, 0
10, 379860, Note_on_c, 6, 73, 90
10, 379860, Note_on_c, 6, 76, 90
10, 380099, Note_on_c, 6, 76, 0
10, 380099, Note_on_c, 6, 73, 0
10, 382020, Note_on_c, 6, 73, 90
10, 382020, Note_on_c, 6, 76, 90
10, 382139, Note_on_c, 6, 76, 0
10, 382139, Note_on_c, 6, 73, 0
10, 382140, Note_on_c, 6, 73, 90
10, 382140, Note_on_c, 6, 76, 90
10, 382199, Note_on_c, 6, 76, 0
10, 382199, Note_on_c, 6, 73, 0
10, 382200, Note_on_c, 6, 74, 90
10, 382200, Note_on_c, 6, 71, 90
10, 382259, Note_on_c, 6, 71, 0
10, 382259, Note_on_c, 6, 74, 0
10, 382260, Note_on_c, 6, 78, 90
10, 382260, Note_on_c, 6, 74, 90
10, 382379, Note_on_c, 6, 74, 0
10, 382379, Note_on_c, 6, 78, 0
10, 382380, Note_on_c, 6, 73, 90
10, 382380, Note_on_c, 6, 76, 90
10, 382439, Note_on_c, 6, 76, 0
10, 382439, Note_on_c, 6, 73, 0
10, 382440, Note_on_c, 6, 71, 90
10, 382440, Note_on_c, 6, 74, 90
10, 382499, Note_on_c, 6, 74, 0
10, 382499, Note_on_c, 6, 71, 0
10, 382500, Note_on_c, 6, 73, 90
10, 382500, Note_on_c, 6, 76, 90
10, 382619, Note_on_c, 6, 76, 0
10, 382619, Note_on_c, 6, 73, 0
10, 382620, Note_on_c, 6, 73, 90
10, 382620, Note_on_c, 6, 76, 90
10, 382679, Note_on_c, 6, 76, 0
10, 382679, Note_on_c, 6, 73, 0
10, 382680, Note_on_c, 6, 71, 90
10, 382680, Note_on_c, 6, 74, 90
10, 382739, Note_on_c, 6, 74, 0
10, 382739, Note_on_c, 6, 71, 0
10, 382740, Note_on_c, 6, 74, 90
10, 382740, Note_on_c, 6, 78, 90
10, 382859, Note_on_c, 6, 78, 0
10, 382859, Note_on_c, 6, 74, 0
10, 382860, Note_on_c, 6, 73, 90
10, 382860, Note_on_c, 6, 76, 90
10, 382919, Note_on_c, 6, 76, 0
10, 382919, Note_on_c, 6, 73, 0
10, 382920, Note_on_c, 6, 71, 90
10, 382920, Note_on_c, 6, 74, 90
10, 382979, Note_on_c, 6, 74, 0
10, 382979, Note_on_c, 6, 71, 0
10, 382980, Note_on_c, 6, 73, 90
10, 382980, Note_on_c, 6, 76, 90
10, 383219, Note_on_c, 6, 76, 0
10, 383219, Note_on_c, 6, 73, 0
10, 383220, Note_on_c, 6, 73, 90
10, 383220, Note_on_c, 6, 69, 90
10, 383459, Note_on_c, 6, 69, 0
10, 383459, Note_on_c, 6, 73, 0
10, 383460, Note_on_c, 6, 64, 90
10, 383460, Note_on_c, 6, 69, 90
10, 383579, Note_on_c, 6, 69, 0
10, 383579, Note_on_c, 6, 64, 0
10, 383580, Note_on_c, 6, 64, 90
10, 383580, Note_on_c, 6, 61, 90
10, 383699, Note_on_c, 6, 61, 0
10, 383699, Note_on_c, 6, 64, 0
10, 383700, Note_on_c, 6, 73, 90
10, 383700, Note_on_c, 6, 69, 90
10, 383819, Note_on_c, 6, 69, 0
10, 383819, Note_on_c, 6, 73, 0
10, 383820, Note_on_c, 6, 64, 90
10, 383820, Note_on_c, 6, 69, 90
10, 383939, Note_on_c, 6, 69, 0
10, 383939, Note_on_c, 6, 64, 0
10, 383940, Note_on_c, 6, 73, 90
10, 383940, Note_on_c, 6, 76, 90
10, 384059, Note_on_c, 6, 76, 0
10, 384059, Note_on_c, 6, 73, 0
10, 384060, Note_on_c, 6, 73, 90
10, 384060, Note_on_c, 6, 69, 90
10, 384179, Note_on_c, 6, 69, 0
10, 384179, Note_on_c, 6, 73, 0
10, 384180, Note_on_c, 6, 64, 90
10, 384180, Note_on_c, 6, 69, 90
10, 384299, Note_on_c, 6, 69, 0
10, 384299, Note_on_c, 6, 64, 0
10, 384300, Note_on_c, 6, 73, 90
10, 384300, Note_on_c, 6, 69, 90
10, 384419, Note_on_c, 6, 69, 0
10, 384419, Note_on_c, 6, 73, 0
10, 384420, Note_on_c, 6, 66, 90
10, 384420, Note_on_c, 6, 74, 90
10, 384479, Note_on_c, 6, 74, 0
10, 384480, Note_on_c, 6, 76, 90
10, 384539, Note_on_c, 6, 76, 0
10, 384539, Note_on_c, 6, 66, 0
10, 384540, Note_on_c, 6, 74, 90
10, 384540, Note_on_c, 6, 78, 90
10, 384599, Note_on_c, 6, 78, 0
10, 384600, Note_on_c, 6, 79, 90
10, 384659, Note_on_c, 6, 79, 0
10, 384659, Note_on_c, 6, 74, 0
10, 384660, Note_on_c, 6, 74, 90
10, 384660, Note_on_c, 6, 81, 90
10, 384779, Note_on_c, 6, 81, 0
10, 384779, Note_on_c, 6, 74, 0
10, 384780, Note_on_c, 6, 74, 90
10, 384780, Note_on_c, 6, 83, 90
10, 384839, Note_on_c, 6, 83, 0
10, 384840, Note_on_c, 6, 81, 90
10, 384899, Note_on_c, 6, 81, 0
10, 384899, Note_on_c, 6, 74, 0
10, 384900, Note_on_c, 6, 74, 90
10, 384900, Note_on_c, 6, 79, 90
10, 384959, Note_on_c, 6, 79, 0
10, 384960, Note_on_c, 6, 78, 90
10, 385019, Note_on_c, 6, 78, 0
10, 385019, Note_on_c, 6, 74, 0
10, 385020, Note_on_c, 6, 73, 90
10, 385020, Note_on_c, 6, 76, 90
10, 385079, Note_on_c, 6, 76, 0
10, 385080, Note_on_c, 6, 78, 90
10, 385139, Note_on_c, 6, 78, 0
10, 385139, Note_on_c, 6, 73, 0
10, 385140, Note_on_c, 6, 74, 90
10, 385379, Note_on_c, 6, 74, 0
10, 385379, End_track
11, 0, Start_track
11, 0, MIDI_port, 0
11, 0, Title_t, "oboe ii"
11, 0, Program_c, 7, 68
11, 750, Note_on_c, 7, 62, 80
11, 780, Note_on_c, 7, 62, 0
11, 780, Note_on_c, 7, 64, 80
11, 810, Note_on_c, 7, 64, 0
11, 810, Note_on_c, 7, 66, 80
11, 840, Note_on_c, 7, 66, 0
11, 840, Note_on_c, 7, 67, 80
11, 870, Note_on_c, 7, 67, 0
11, 870, Note_on_c, 7, 69, 80
11, 900, Note_on_c, 7, 69, 0
11, 900, Note_on_c, 7, 71, 80
11, 930, Note_on_c, 7, 71, 0
11, 930, Note_on_c, 7, 73, 80
11, 960, Note_on_c, 7, 73, 0
11, 960, Note_on_c, 7, 74, 80
11, 990, Note_on_c, 7, 74, 0
11, 990, Note_on_c, 7, 73, 80
11, 1020, Note_on_c, 7, 73, 0
11, 1020, Note_on_c, 7, 74, 80
11, 1050, Note_on_c, 7, 74, 0
11, 1050, Note_on_c, 7, 73, 80
11, 1080, Note_on_c, 7, 73, 0
11, 1080, Note_on_c, 7, 74, 80
11, 1140, Note_on_c, 7, 74, 0
11, 1200, Note_on_c, 7, 69, 80
11, 1260, Note_on_c, 7, 69, 0
11, 1260, Note_on_c, 7, 66, 80
11, 1320, Note_on_c, 7, 66, 0
11, 1470, Note_on_c, 7, 66, 80
11, 1499, Note_on_c, 7, 66, 0
11, 1500, Note_on_c, 7, 67, 80
11, 1529, Note_on_c, 7, 67, 0
11, 1530, Note_on_c, 7, 69, 80
11, 1559, Note_on_c, 7, 69, 0
11, 1560, Note_on_c, 7, 71, 80
11, 1589, Note_on_c, 7, 71, 0
11, 1590, Note_on_c, 7, 73, 80
11, 1619, Note_on_c, 7, 73, 0
11, 1620, Note_on_c, 7, 74, 80
11, 1649, Note_on_c, 7, 74, 0
11, 1650, Note_on_c, 7, 76, 80
11, 1679, Note_on_c, 7, 76, 0
11, 1680, Note_on_c, 7, 78, 80
11, 1709, Note_on_c, 7, 78, 0
11, 1710, Note_on_c, 7, 76, 80
11, 1739, Note_on_c, 7, 76, 0
11, 1740, Note_on_c, 7, 78, 80
11, 1769, Note_on_c, 7, 78, 0
11, 1770, Note_on_c, 7, 76, 80
11, 1799, Note_on_c, 7, 76, 0
11, 1800, Note_on_c, 7, 74, 80
11, 1859, Note_on_c, 7, 74, 0
11, 1860, Note_on_c, 7, 74, 80
11, 1919, Note_on_c, 7, 74, 0
11, 1920, Note_on_c, 7, 74, 80
11, 1979, Note_on_c, 7, 74, 0
11, 1980, Note_on_c, 7, 74, 80
11, 2039, Note_on_c, 7, 74, 0
11, 2040, Note_on_c, 7, 74, 80
11, 2099, Note_on_c, 7, 74, 0
11, 2100, Note_on_c, 7, 74, 80
11, 2159, Note_on_c, 7, 74, 0
11, 2160, Note_on_c, 7, 76, 80
11, 2189, Note_on_c, 7, 76, 0
11, 2190, Note_on_c, 7, 78, 80
11, 2219, Note_on_c, 7, 78, 0
11, 2220, Note_on_c, 7, 76, 80
11, 2249, Note_on_c, 7, 76, 0
11, 2250, Note_on_c, 7, 78, 80
11, 2279, Note_on_c, 7, 78, 0
11, 2280, Note_on_c, 7, 80, 80
11, 2309, Note_on_c, 7, 80, 0
11, 2310, Note_on_c, 7, 81, 80
11, 2339, Note_on_c, 7, 81, 0
11, 2340, Note_on_c, 7, 80, 80
11, 2369, Note_on_c, 7, 80, 0
11, 2370, Note_on_c, 7, 81, 80
11, 2399, Note_on_c, 7, 81, 0
11, 2400, Note_on_c, 7, 83, 80
11, 2429, Note_on_c, 7, 83, 0
11, 2430, Note_on_c, 7, 85, 80
11, 2459, Note_on_c, 7, 85, 0
11, 2460, Note_on_c, 7, 81, 80
11, 2489, Note_on_c, 7, 81, 0
11, 2490, Note_on_c, 7, 83, 80
11, 2519, Note_on_c, 7, 83, 0
11, 2520, Note_on_c, 7, 85, 80
11, 2549, Note_on_c, 7, 85, 0
11, 2550, Note_on_c, 7, 86, 80
11, 2579, Note_on_c, 7, 86, 0
11, 2580, Note_on_c, 7, 85, 80
11, 2609, Note_on_c, 7, 85, 0
11, 2610, Note_on_c, 7, 83, 80
11, 2639, Note_on_c, 7, 83, 0
11, 2640, Note_on_c, 7, 81, 80
11, 2669, Note_on_c, 7, 81, 0
11, 2670, Note_on_c, 7, 80, 80
11, 2699, Note_on_c, 7, 80, 0
11, 2700, Note_on_c, 7, 81, 80
11, 2729, Note_on_c, 7, 81, 0
11, 2730, Note_on_c, 7, 78, 80
11, 2759, Note_on_c, 7, 78, 0
11, 2760, Note_on_c, 7, 80, 80
11, 2849, Note_on_c, 7, 80, 0
11, 2850, Note_on_c, 7, 81, 80
11, 2879, Note_on_c, 7, 81, 0
11, 2880, Note_on_c, 7, 81, 80
11, 2999, Note_on_c, 7, 81, 0
11, 3270, Note_on_c, 7, 66, 80
11, 3299, Note_on_c, 7, 66, 0
11, 3300, Note_on_c, 7, 67, 80
11, 3329, Note_on_c, 7, 67, 0
11, 3330, Note_on_c, 7, 69, 80
11, 3359, Note_on_c, 7, 69, 0
11, 3360, Note_on_c, 7, 71, 80
11, 3389, Note_on_c, 7, 71, 0
11, 3390, Note_on_c, 7, 73, 80
11, 3419, Note_on_c, 7, 73, 0
11, 3420, Note_on_c, 7, 74, 80
11, 3449, Note_on_c, 7, 74, 0
11, 3450, Note_on_c, 7, 76, 80
11, 3479, Note_on_c, 7, 76, 0
11, 3480, Note_on_c, 7, 78, 80
11, 3509, Note_on_c, 7, 78, 0
11, 3510, Note_on_c, 7, 76, 80
11, 3539, Note_on_c, 7, 76, 0
11, 3540, Note_on_c, 7, 78, 80
11, 3569, Note_on_c, 7, 78, 0
11, 3570, Note_on_c, 7, 76, 80
11, 3599, Note_on_c, 7, 76, 0
11, 3600, Note_on_c, 7, 75, 80
11, 3629, Note_on_c, 7, 75, 0
11, 3630, Note_on_c, 7, 63, 80
11, 3659, Note_on_c, 7, 63, 0
11, 3660, Note_on_c, 7, 64, 80
11, 3689, Note_on_c, 7, 64, 0
11, 3690, Note_on_c, 7, 66, 80
11, 3719, Note_on_c, 7, 66, 0
11, 3720, Note_on_c, 7, 67, 80
11, 3749, Note_on_c, 7, 67, 0
11, 3750, Note_on_c, 7, 69, 80
11, 3779, Note_on_c, 7, 69, 0
11, 3780, Note_on_c, 7, 71, 80
11, 3809, Note_on_c, 7, 71, 0
11, 3810, Note_on_c, 7, 73, 80
11, 3839, Note_on_c, 7, 73, 0
11, 3840, Note_on_c, 7, 75, 80
11, 3869, Note_on_c, 7, 75, 0
11, 3870, Note_on_c, 7, 76, 80
11, 3899, Note_on_c, 7, 76, 0
11, 3900, Note_on_c, 7, 73, 80
11, 3929, Note_on_c, 7, 73, 0
11, 3930, Note_on_c, 7, 75, 80
11, 3959, Note_on_c, 7, 75, 0
11, 3960, Note_on_c, 7, 76, 80
11, 4019, Note_on_c, 7, 76, 0
11, 4020, Note_on_c, 7, 67, 80
11, 4079, Note_on_c, 7, 67, 0
11, 4080, Note_on_c, 7, 67, 80
11, 4139, Note_on_c, 7, 67, 0
11, 4140, Note_on_c, 7, 67, 80
11, 4199, Note_on_c, 7, 67, 0
11, 4200, Note_on_c, 7, 67, 80
11, 4259, Note_on_c, 7, 67, 0
11, 4260, Note_on_c, 7, 64, 80
11, 4289, Note_on_c, 7, 64, 0
11, 4290, Note_on_c, 7, 66, 80
11, 4319, Note_on_c, 7, 66, 0
11, 4320, Note_on_c, 7, 67, 80
11, 4379, Note_on_c, 7, 67, 0
11, 4380, Note_on_c, 7, 71, 80
11, 4409, Note_on_c, 7, 71, 0
11, 4410, Note_on_c, 7, 69, 80
11, 4439, Note_on_c, 7, 69, 0
11, 4440, Note_on_c, 7, 67, 80
11, 4499, Note_on_c, 7, 67, 0
11, 4500, Note_on_c, 7, 71, 80
11, 4529, Note_on_c, 7, 71, 0
11, 4530, Note_on_c, 7, 69, 80
11, 4559, Note_on_c, 7, 69, 0
11, 4560, Note_on_c, 7, 67, 80
11, 4619, Note_on_c, 7, 67, 0
11, 4620, Note_on_c, 7, 67, 80
11, 4679, Note_on_c, 7, 67, 0
11, 4680, Note_on_c, 7, 69, 80
11, 5039, Note_on_c, 7, 69, 0
11, 5070, Note_on_c, 7, 66, 80
11, 5099, Note_on_c, 7, 66, 0
11, 5100, Note_on_c, 7, 67, 80
11, 5129, Note_on_c, 7, 67, 0
11, 5130, Note_on_c, 7, 69, 80
11, 5159, Note_on_c, 7, 69, 0
11, 5160, Note_on_c, 7, 71, 80
11, 5189, Note_on_c, 7, 71, 0
11, 5190, Note_on_c, 7, 73, 80
11, 5219, Note_on_c, 7, 73, 0
11, 5220, Note_on_c, 7, 74, 80
11, 5249, Note_on_c, 7, 74, 0
11, 5250, Note_on_c, 7, 76, 80
11, 5279, Note_on_c, 7, 76, 0
11, 5280, Note_on_c, 7, 78, 80
11, 5339, Note_on_c, 7, 78, 0
11, 5550, Note_on_c, 7, 81, 80
11, 5579, Note_on_c, 7, 81, 0
11, 5580, Note_on_c, 7, 79, 80
11, 5609, Note_on_c, 7, 79, 0
11, 5610, Note_on_c, 7, 78, 80
11, 5639, Note_on_c, 7, 78, 0
11, 5640, Note_on_c, 7, 76, 80
11, 5669, Note_on_c, 7, 76, 0
11, 5670, Note_on_c, 7, 74, 80
11, 5699, Note_on_c, 7, 74, 0
11, 5700, Note_on_c, 7, 73, 80
11, 5729, Note_on_c, 7, 73, 0
11, 5730, Note_on_c, 7, 71, 80
11, 5759, Note_on_c, 7, 71, 0
11, 5760, Note_on_c, 7, 69, 80
11, 5819, Note_on_c, 7, 69, 0
11, 5910, Note_on_c, 7, 79, 80
11, 5939, Note_on_c, 7, 79, 0
11, 5940, Note_on_c, 7, 78, 80
11, 5969, Note_on_c, 7, 78, 0
11, 5970, Note_on_c, 7, 76, 80
11, 5999, Note_on_c, 7, 76, 0
11, 6000, Note_on_c, 7, 74, 80
11, 6029, Note_on_c, 7, 74, 0
11, 6030, Note_on_c, 7, 73, 80
11, 6059, Note_on_c, 7, 73, 0
11, 6060, Note_on_c, 7, 71, 80
11, 6089, Note_on_c, 7, 71, 0
11, 6090, Note_on_c, 7, 69, 80
11, 6119, Note_on_c, 7, 69, 0
11, 6120, Note_on_c, 7, 67, 80
11, 6179, Note_on_c, 7, 67, 0
11, 6270, Note_on_c, 7, 78, 80
11, 6299, Note_on_c, 7, 78, 0
11, 6300, Note_on_c, 7, 76, 80
11, 6329, Note_on_c, 7, 76, 0
11, 6330, Note_on_c, 7, 74, 80
11, 6359, Note_on_c, 7, 74, 0
11, 6360, Note_on_c, 7, 73, 80
11, 6389, Note_on_c, 7, 73, 0
11, 6390, Note_on_c, 7, 71, 80
11, 6419, Note_on_c, 7, 71, 0
11, 6420, Note_on_c, 7, 69, 80
11, 6449, Note_on_c, 7, 69, 0
11, 6450, Note_on_c, 7, 67, 80
11, 6479, Note_on_c, 7, 67, 0
11, 6480, Note_on_c, 7, 66, 80
11, 6539, Note_on_c, 7, 66, 0
11, 6630, Note_on_c, 7, 76, 80
11, 6659, Note_on_c, 7, 76, 0
11, 6660, Note_on_c, 7, 74, 80
11, 6689, Note_on_c, 7, 74, 0
11, 6690, Note_on_c, 7, 73, 80
11, 6719, Note_on_c, 7, 73, 0
11, 6720, Note_on_c, 7, 71, 80
11, 6749, Note_on_c, 7, 71, 0
11, 6750, Note_on_c, 7, 69, 80
11, 6779, Note_on_c, 7, 69, 0
11, 6780, Note_on_c, 7, 68, 80
11, 6809, Note_on_c, 7, 68, 0
11, 6810, Note_on_c, 7, 66, 80
11, 6839, Note_on_c, 7, 66, 0
11, 6840, Note_on_c, 7, 68, 80
11, 6899, Note_on_c, 7, 68, 0
11, 6990, Note_on_c, 7, 76, 80
11, 7019, Note_on_c, 7, 76, 0
11, 7020, Note_on_c, 7, 74, 80
11, 7049, Note_on_c, 7, 74, 0
11, 7050, Note_on_c, 7, 72, 80
11, 7079, Note_on_c, 7, 72, 0
11, 7080, Note_on_c, 7, 71, 80
11, 7109, Note_on_c, 7, 71, 0
11, 7110, Note_on_c, 7, 69, 80
11, 7139, Note_on_c, 7, 69, 0
11, 7140, Note_on_c, 7, 68, 80
11, 7169, Note_on_c, 7, 68, 0
11, 7170, Note_on_c, 7, 66, 80
11, 7199, Note_on_c, 7, 66, 0
11, 7200, Note_on_c, 7, 64, 80
11, 7259, Note_on_c, 7, 64, 0
11, 7350, Note_on_c, 7, 73, 80
11, 7379, Note_on_c, 7, 73, 0
11, 7380, Note_on_c, 7, 71, 80
11, 7409, Note_on_c, 7, 71, 0
11, 7410, Note_on_c, 7, 69, 80
11, 7439, Note_on_c, 7, 69, 0
11, 7440, Note_on_c, 7, 68, 80
11, 7469, Note_on_c, 7, 68, 0
11, 7470, Note_on_c, 7, 66, 80
11, 7499, Note_on_c, 7, 66, 0
11, 7500, Note_on_c, 7, 64, 80
11, 7529, Note_on_c, 7, 64, 0
11, 7530, Note_on_c, 7, 62, 80
11, 7559, Note_on_c, 7, 62, 0
11, 7560, Note_on_c, 7, 69, 80
11, 7619, Note_on_c, 7, 69, 0
11, 7680, Note_on_c, 7, 73, 80
11, 7739, Note_on_c, 7, 73, 0
11, 7740, Note_on_c, 7, 69, 80
11, 7799, Note_on_c, 7, 69, 0
11, 8040, Note_on_c, 7, 74, 80
11, 8099, Note_on_c, 7, 74, 0
11, 8100, Note_on_c, 7, 69, 80
11, 8159, Note_on_c, 7, 69, 0
11, 8400, Note_on_c, 7, 73, 80
11, 8459, Note_on_c, 7, 73, 0
11, 8460, Note_on_c, 7, 69, 80
11, 8519, Note_on_c, 7, 69, 0
11, 8670, Note_on_c, 7, 66, 80
11, 8699, Note_on_c, 7, 66, 0
11, 8700, Note_on_c, 7, 67, 80
11, 8729, Note_on_c, 7, 67, 0
11, 8730, Note_on_c, 7, 69, 80
11, 8759, Note_on_c, 7, 69, 0
11, 8760, Note_on_c, 7, 71, 80
11, 8789, Note_on_c, 7, 71, 0
11, 8790, Note_on_c, 7, 73, 80
11, 8819, Note_on_c, 7, 73, 0
11, 8820, Note_on_c, 7, 74, 80
11, 8849, Note_on_c, 7, 74, 0
11, 8850, Note_on_c, 7, 76, 80
11, 8879, Note_on_c, 7, 76, 0
11, 8880, Note_on_c, 7, 78, 80
11, 8909, Note_on_c, 7, 78, 0
11, 8910, Note_on_c, 7, 76, 80
11, 8939, Note_on_c, 7, 76, 0
11, 8940, Note_on_c, 7, 78, 80
11, 8969, Note_on_c, 7, 78, 0
11, 8970, Note_on_c, 7, 76, 80
11, 8999, Note_on_c, 7, 76, 0
11, 9000, Note_on_c, 7, 74, 80
11, 9059, Note_on_c, 7, 74, 0
11, 9060, Note_on_c, 7, 74, 80
11, 9119, Note_on_c, 7, 74, 0
11, 9120, Note_on_c, 7, 74, 80
11, 9179, Note_on_c, 7, 74, 0
11, 9180, Note_on_c, 7, 74, 80
11, 9239, Note_on_c, 7, 74, 0
11, 9240, Note_on_c, 7, 74, 80
11, 9299, Note_on_c, 7, 74, 0
11, 9300, Note_on_c, 7, 74, 80
11, 9359, Note_on_c, 7, 74, 0
11, 9360, Note_on_c, 7, 74, 80
11, 9419, Note_on_c, 7, 74, 0
11, 9420, Note_on_c, 7, 74, 80
11, 9479, Note_on_c, 7, 74, 0
11, 9480, Note_on_c, 7, 76, 80
11, 9509, Note_on_c, 7, 76, 0
11, 9510, Note_on_c, 7, 78, 80
11, 9539, Note_on_c, 7, 78, 0
11, 9540, Note_on_c, 7, 76, 80
11, 9569, Note_on_c, 7, 76, 0
11, 9570, Note_on_c, 7, 78, 80
11, 9599, Note_on_c, 7, 78, 0
11, 9600, Note_on_c, 7, 79, 80
11, 9629, Note_on_c, 7, 79, 0
11, 9630, Note_on_c, 7, 81, 80
11, 9659, Note_on_c, 7, 81, 0
11, 9660, Note_on_c, 7, 78, 80
11, 9689, Note_on_c, 7, 78, 0
11, 9690, Note_on_c, 7, 79, 80
11, 9719, Note_on_c, 7, 79, 0
11, 9720, Note_on_c, 7, 81, 80
11, 9749, Note_on_c, 7, 81, 0
11, 9750, Note_on_c, 7, 79, 80
11, 9779, Note_on_c, 7, 79, 0
11, 9780, Note_on_c, 7, 78, 80
11, 9809, Note_on_c, 7, 78, 0
11, 9810, Note_on_c, 7, 76, 80
11, 9839, Note_on_c, 7, 76, 0
11, 9840, Note_on_c, 7, 74, 80
11, 9869, Note_on_c, 7, 74, 0
11, 9870, Note_on_c, 7, 73, 80
11, 9899, Note_on_c, 7, 73, 0
11, 9900, Note_on_c, 7, 74, 80
11, 9929, Note_on_c, 7, 74, 0
11, 9930, Note_on_c, 7, 71, 80
11, 9959, Note_on_c, 7, 71, 0
11, 9960, Note_on_c, 7, 73, 80
11, 10049, Note_on_c, 7, 73, 0
11, 10050, Note_on_c, 7, 74, 80
11, 10079, Note_on_c, 7, 74, 0
11, 10080, Note_on_c, 7, 74, 80
11, 10199, Note_on_c, 7, 74, 0
11, 10200, Note_on_c, 7, 69, 80
11, 10259, Note_on_c, 7, 69, 0
11, 10260, Note_on_c, 7, 66, 80
11, 10319, Note_on_c, 7, 66, 0
11, 10560, Note_on_c, 7, 71, 80
11, 10619, Note_on_c, 7, 71, 0
11, 10620, Note_on_c, 7, 66, 80
11, 10679, Note_on_c, 7, 66, 0
11, 10920, Note_on_c, 7, 66, 80
11, 10979, Note_on_c, 7, 66, 0
11, 10980, Note_on_c, 7, 62, 80
11, 11039, Note_on_c, 7, 62, 0
11, 11280, Note_on_c, 7, 67, 80
11, 11339, Note_on_c, 7, 67, 0
11, 11340, Note_on_c, 7, 62, 80
11, 11399, Note_on_c, 7, 62, 0
11, 11580, Note_on_c, 7, 74, 80
11, 11639, Note_on_c, 7, 74, 0
11, 11640, Note_on_c, 7, 69, 80
11, 11669, Note_on_c, 7, 69, 0
11, 11670, Note_on_c, 7, 67, 80
11, 11699, Note_on_c, 7, 67, 0
11, 11700, Note_on_c, 7, 66, 80
11, 11729, Note_on_c, 7, 66, 0
11, 11730, Note_on_c, 7, 64, 80
11, 11759, Note_on_c, 7, 64, 0
11, 11760, Note_on_c, 7, 66, 80
11, 11789, Note_on_c, 7, 66, 0
11, 11790, Note_on_c, 7, 62, 80
11, 11819, Note_on_c, 7, 62, 0
11, 11820, Note_on_c, 7, 64, 80
11, 11849, Note_on_c, 7, 64, 0
11, 11850, Note_on_c, 7, 69, 80
11, 11879, Note_on_c, 7, 69, 0
11, 11880, Note_on_c, 7, 73, 80
11, 11999, Note_on_c, 7, 73, 0
11, 12000, Note_on_c, 7, 73, 80
11, 12059, Note_on_c, 7, 73, 0
11, 12060, Note_on_c, 7, 69, 80
11, 12119, Note_on_c, 7, 69, 0
11, 12360, Note_on_c, 7, 74, 80
11, 12419, Note_on_c, 7, 74, 0
11, 12420, Note_on_c, 7, 69, 80
11, 12479, Note_on_c, 7, 69, 0
11, 12720, Note_on_c, 7, 73, 80
11, 12779, Note_on_c, 7, 73, 0
11, 12780, Note_on_c, 7, 69, 80
11, 12839, Note_on_c, 7, 69, 0
11, 12990, Note_on_c, 7, 66, 80
11, 13019, Note_on_c, 7, 66, 0
11, 13020, Note_on_c, 7, 67, 80
11, 13049, Note_on_c, 7, 67, 0
11, 13050, Note_on_c, 7, 69, 80
11, 13079, Note_on_c, 7, 69, 0
11, 13080, Note_on_c, 7, 71, 80
11, 13109, Note_on_c, 7, 71, 0
11, 13110, Note_on_c, 7, 73, 80
11, 13139, Note_on_c, 7, 73, 0
11, 13140, Note_on_c, 7, 74, 80
11, 13169, Note_on_c, 7, 74, 0
11, 13170, Note_on_c, 7, 76, 80
11, 13199, Note_on_c, 7, 76, 0
11, 13200, Note_on_c, 7, 78, 80
11, 13229, Note_on_c, 7, 78, 0
11, 13230, Note_on_c, 7, 76, 80
11, 13259, Note_on_c, 7, 76, 0
11, 13260, Note_on_c, 7, 78, 80
11, 13289, Note_on_c, 7, 78, 0
11, 13290, Note_on_c, 7, 76, 80
11, 13319, Note_on_c, 7, 76, 0
11, 13320, Note_on_c, 7, 74, 80
11, 13379, Note_on_c, 7, 74, 0
11, 13380, Note_on_c, 7, 74, 80
11, 13439, Note_on_c, 7, 74, 0
11, 13440, Note_on_c, 7, 74, 80
11, 13499, Note_on_c, 7, 74, 0
11, 13500, Note_on_c, 7, 74, 80
11, 13559, Note_on_c, 7, 74, 0
11, 13560, Note_on_c, 7, 74, 80
11, 13619, Note_on_c, 7, 74, 0
11, 13620, Note_on_c, 7, 74, 80
11, 13679, Note_on_c, 7, 74, 0
11, 13680, Note_on_c, 7, 74, 80
11, 13739, Note_on_c, 7, 74, 0
11, 13740, Note_on_c, 7, 74, 80
11, 13799, Note_on_c, 7, 74, 0
11, 13800, Note_on_c, 7, 76, 80
11, 13829, Note_on_c, 7, 76, 0
11, 13830, Note_on_c, 7, 78, 80
11, 13859, Note_on_c, 7, 78, 0
11, 13860, Note_on_c, 7, 76, 80
11, 13889, Note_on_c, 7, 76, 0
11, 13890, Note_on_c, 7, 78, 80
11, 13919, Note_on_c, 7, 78, 0
11, 13920, Note_on_c, 7, 79, 80
11, 13949, Note_on_c, 7, 79, 0
11, 13950, Note_on_c, 7, 81, 80
11, 13979, Note_on_c, 7, 81, 0
11, 13980, Note_on_c, 7, 78, 80
11, 14009, Note_on_c, 7, 78, 0
11, 14010, Note_on_c, 7, 79, 80
11, 14039, Note_on_c, 7, 79, 0
11, 14040, Note_on_c, 7, 81, 80
11, 14069, Note_on_c, 7, 81, 0
11, 14070, Note_on_c, 7, 79, 80
11, 14099, Note_on_c, 7, 79, 0
11, 14100, Note_on_c, 7, 78, 80
11, 14129, Note_on_c, 7, 78, 0
11, 14130, Note_on_c, 7, 76, 80
11, 14159, Note_on_c, 7, 76, 0
11, 14160, Note_on_c, 7, 74, 80
11, 14189, Note_on_c, 7, 74, 0
11, 14190, Note_on_c, 7, 73, 80
11, 14219, Note_on_c, 7, 73, 0
11, 14220, Note_on_c, 7, 74, 80
11, 14249, Note_on_c, 7, 74, 0
11, 14250, Note_on_c, 7, 71, 80
11, 14279, Note_on_c, 7, 71, 0
11, 14280, Note_on_c, 7, 73, 80
11, 14369, Note_on_c, 7, 73, 0
11, 14370, Note_on_c, 7, 74, 80
11, 14399, Note_on_c, 7, 74, 0
11, 14400, Note_on_c, 7, 74, 80
11, 14519, Note_on_c, 7, 74, 0
11, 15150, Note_on_c, 7, 62, 80
11, 15179, Note_on_c, 7, 62, 0
11, 15180, Note_on_c, 7, 64, 80
11, 15209, Note_on_c, 7, 64, 0
11, 15210, Note_on_c, 7, 66, 80
11, 15239, Note_on_c, 7, 66, 0
11, 15240, Note_on_c, 7, 67, 80
11, 15269, Note_on_c, 7, 67, 0
11, 15270, Note_on_c, 7, 69, 80
11, 15299, Note_on_c, 7, 69, 0
11, 15300, Note_on_c, 7, 71, 80
11, 15329, Note_on_c, 7, 71, 0
11, 15330, Note_on_c, 7, 73, 80
11, 15359, Note_on_c, 7, 73, 0
11, 15360, Note_on_c, 7, 74, 80
11, 15389, Note_on_c, 7, 74, 0
11, 15390, Note_on_c, 7, 73, 80
11, 15419, Note_on_c, 7, 73, 0
11, 15420, Note_on_c, 7, 74, 80
11, 15449, Note_on_c, 7, 74, 0
11, 15450, Note_on_c, 7, 73, 80
11, 15479, Note_on_c, 7, 73, 0
11, 15480, Note_on_c, 7, 74, 80
11, 15509, Note_on_c, 7, 74, 0
11, 15510, Note_on_c, 7, 78, 80
11, 15539, Note_on_c, 7, 78, 0
11, 15540, Note_on_c, 7, 76, 80
11, 15569, Note_on_c, 7, 76, 0
11, 15570, Note_on_c, 7, 74, 80
11, 15599, Note_on_c, 7, 74, 0
11, 15600, Note_on_c, 7, 73, 80
11, 15629, Note_on_c, 7, 73, 0
11, 15630, Note_on_c, 7, 71, 80
11, 15659, Note_on_c, 7, 71, 0
11, 15660, Note_on_c, 7, 69, 80
11, 15689, Note_on_c, 7, 69, 0
11, 15690, Note_on_c, 7, 67, 80
11, 15719, Note_on_c, 7, 67, 0
11, 15720, Note_on_c, 7, 66, 80
11, 15749, Note_on_c, 7, 66, 0
11, 15750, Note_on_c, 7, 67, 80
11, 15779, Note_on_c, 7, 67, 0
11, 15780, Note_on_c, 7, 66, 80
11, 15809, Note_on_c, 7, 66, 0
11, 15810, Note_on_c, 7, 67, 80
11, 15839, Note_on_c, 7, 67, 0
11, 15840, Note_on_c, 7, 66, 80
11, 15869, Note_on_c, 7, 66, 0
11, 15870, Note_on_c, 7, 66, 80
11, 15899, Note_on_c, 7, 66, 0
11, 15900, Note_on_c, 7, 67, 80
11, 15929, Note_on_c, 7, 67, 0
11, 15930, Note_on_c, 7, 69, 80
11, 15959, Note_on_c, 7, 69, 0
11, 15960, Note_on_c, 7, 71, 80
11, 15989, Note_on_c, 7, 71, 0
11, 15990, Note_on_c, 7, 73, 80
11, 16019, Note_on_c, 7, 73, 0
11, 16020, Note_on_c, 7, 74, 80
11, 16049, Note_on_c, 7, 74, 0
11, 16050, Note_on_c, 7, 76, 80
11, 16079, Note_on_c, 7, 76, 0
11, 16080, Note_on_c, 7, 78, 80
11, 16109, Note_on_c, 7, 78, 0
11, 16110, Note_on_c, 7, 76, 80
11, 16139, Note_on_c, 7, 76, 0
11, 16140, Note_on_c, 7, 78, 80
11, 16169, Note_on_c, 7, 78, 0
11, 16170, Note_on_c, 7, 76, 80
11, 16199, Note_on_c, 7, 76, 0
11, 16200, Note_on_c, 7, 74, 80
11, 16259, Note_on_c, 7, 74, 0
11, 16260, Note_on_c, 7, 73, 80
11, 16289, Note_on_c, 7, 73, 0
11, 16290, Note_on_c, 7, 71, 80
11, 16319, Note_on_c, 7, 71, 0
11, 16320, Note_on_c, 7, 69, 80
11, 16349, Note_on_c, 7, 69, 0
11, 16350, Note_on_c, 7, 67, 80
11, 16379, Note_on_c, 7, 67, 0
11, 16380, Note_on_c, 7, 66, 80
11, 16409, Note_on_c, 7, 66, 0
11, 16410, Note_on_c, 7, 64, 80
11, 16439, Note_on_c, 7, 64, 0
11, 16440, Note_on_c, 7, 62, 80
11, 16499, Note_on_c, 7, 62, 0
11, 16500, Note_on_c, 7, 71, 80
11, 16559, Note_on_c, 7, 71, 0
11, 16560, Note_on_c, 7, 76, 80
11, 16589, Note_on_c, 7, 76, 0
11, 16590, Note_on_c, 7, 78, 80
11, 16619, Note_on_c, 7, 78, 0
11, 16620, Note_on_c, 7, 76, 80
11, 16649, Note_on_c, 7, 76, 0
11, 16650, Note_on_c, 7, 78, 80
11, 16679, Note_on_c, 7, 78, 0
11, 16680, Note_on_c, 7, 80, 80
11, 16709, Note_on_c, 7, 80, 0
11, 16710, Note_on_c, 7, 81, 80
11, 16739, Note_on_c, 7, 81, 0
11, 16740, Note_on_c, 7, 80, 80
11, 16769, Note_on_c, 7, 80, 0
11, 16770, Note_on_c, 7, 81, 80
11, 16799, Note_on_c, 7, 81, 0
11, 16800, Note_on_c, 7, 83, 80
11, 16829, Note_on_c, 7, 83, 0
11, 16830, Note_on_c, 7, 85, 80
11, 16859, Note_on_c, 7, 85, 0
11, 16860, Note_on_c, 7, 81, 80
11, 16889, Note_on_c, 7, 81, 0
11, 16890, Note_on_c, 7, 83, 80
11, 16919, Note_on_c, 7, 83, 0
11, 16920, Note_on_c, 7, 85, 80
11, 16949, Note_on_c, 7, 85, 0
11, 16950, Note_on_c, 7, 86, 80
11, 16979, Note_on_c, 7, 86, 0
11, 16980, Note_on_c, 7, 85, 80
11, 17009, Note_on_c, 7, 85, 0
11, 17010, Note_on_c, 7, 83, 80
11, 17039, Note_on_c, 7, 83, 0
11, 17040, Note_on_c, 7, 81, 80
11, 17069, Note_on_c, 7, 81, 0
11, 17070, Note_on_c, 7, 80, 80
11, 17099, Note_on_c, 7, 80, 0
11, 17100, Note_on_c, 7, 81, 80
11, 17129, Note_on_c, 7, 81, 0
11, 17130, Note_on_c, 7, 78, 80
11, 17159, Note_on_c, 7, 78, 0
11, 17160, Note_on_c, 7, 80, 80
11, 17249, Note_on_c, 7, 80, 0
11, 17250, Note_on_c, 7, 81, 80
11, 17279, Note_on_c, 7, 81, 0
11, 17280, Note_on_c, 7, 81, 80
11, 17399, Note_on_c, 7, 81, 0
11, 17430, Note_on_c, 7, 83, 80
11, 17459, Note_on_c, 7, 83, 0
11, 17460, Note_on_c, 7, 81, 80
11, 17489, Note_on_c, 7, 81, 0
11, 17490, Note_on_c, 7, 80, 80
11, 17519, Note_on_c, 7, 80, 0
11, 17520, Note_on_c, 7, 78, 80
11, 17549, Note_on_c, 7, 78, 0
11, 17550, Note_on_c, 7, 76, 80
11, 17579, Note_on_c, 7, 76, 0
11, 17580, Note_on_c, 7, 75, 80
11, 17609, Note_on_c, 7, 75, 0
11, 17610, Note_on_c, 7, 73, 80
11, 17639, Note_on_c, 7, 73, 0
11, 17640, Note_on_c, 7, 75, 80
11, 17699, Note_on_c, 7, 75, 0
11, 17790, Note_on_c, 7, 83, 80
11, 17819, Note_on_c, 7, 83, 0
11, 17820, Note_on_c, 7, 81, 80
11, 17849, Note_on_c, 7, 81, 0
11, 17850, Note_on_c, 7, 80, 80
11, 17879, Note_on_c, 7, 80, 0
11, 17880, Note_on_c, 7, 78, 80
11, 17909, Note_on_c, 7, 78, 0
11, 17910, Note_on_c, 7, 76, 80
11, 17939, Note_on_c, 7, 76, 0
11, 17940, Note_on_c, 7, 75, 80
11, 17969, Note_on_c, 7, 75, 0
11, 17970, Note_on_c, 7, 73, 80
11, 17999, Note_on_c, 7, 73, 0
11, 18000, Note_on_c, 7, 71, 80
11, 18059, Note_on_c, 7, 71, 0
11, 18150, Note_on_c, 7, 80, 80
11, 18179, Note_on_c, 7, 80, 0
11, 18180, Note_on_c, 7, 78, 80
11, 18209, Note_on_c, 7, 78, 0
11, 18210, Note_on_c, 7, 76, 80
11, 18239, Note_on_c, 7, 76, 0
11, 18240, Note_on_c, 7, 75, 80
11, 18269, Note_on_c, 7, 75, 0
11, 18270, Note_on_c, 7, 73, 80
11, 18299, Note_on_c, 7, 73, 0
11, 18300, Note_on_c, 7, 71, 80
11, 18329, Note_on_c, 7, 71, 0
11, 18330, Note_on_c, 7, 69, 80
11, 18359, Note_on_c, 7, 69, 0
11, 18360, Note_on_c, 7, 76, 80
11, 18419, Note_on_c, 7, 76, 0
11, 18480, Note_on_c, 7, 71, 80
11, 18539, Note_on_c, 7, 71, 0
11, 18540, Note_on_c, 7, 68, 80
11, 18599, Note_on_c, 7, 68, 0
11, 18840, Note_on_c, 7, 73, 80
11, 18899, Note_on_c, 7, 73, 0
11, 18900, Note_on_c, 7, 69, 80
11, 18959, Note_on_c, 7, 69, 0
11, 19200, Note_on_c, 7, 71, 80
11, 19259, Note_on_c, 7, 71, 0
11, 19260, Note_on_c, 7, 68, 80
11, 19319, Note_on_c, 7, 68, 0
11, 19830, Note_on_c, 7, 69, 80
11, 19859, Note_on_c, 7, 69, 0
11, 19860, Note_on_c, 7, 71, 80
11, 19889, Note_on_c, 7, 71, 0
11, 19890, Note_on_c, 7, 73, 80
11, 19919, Note_on_c, 7, 73, 0
11, 19920, Note_on_c, 7, 74, 80
11, 19949, Note_on_c, 7, 74, 0
11, 19950, Note_on_c, 7, 76, 80
11, 19979, Note_on_c, 7, 76, 0
11, 19980, Note_on_c, 7, 78, 80
11, 20009, Note_on_c, 7, 78, 0
11, 20010, Note_on_c, 7, 80, 80
11, 20039, Note_on_c, 7, 80, 0
11, 20040, Note_on_c, 7, 81, 80
11, 20069, Note_on_c, 7, 81, 0
11, 20070, Note_on_c, 7, 80, 80
11, 20099, Note_on_c, 7, 80, 0
11, 20100, Note_on_c, 7, 81, 80
11, 20129, Note_on_c, 7, 81, 0
11, 20130, Note_on_c, 7, 80, 80
11, 20159, Note_on_c, 7, 80, 0
11, 20160, Note_on_c, 7, 78, 80
11, 20189, Note_on_c, 7, 78, 0
11, 20190, Note_on_c, 7, 76, 80
11, 20219, Note_on_c, 7, 76, 0
11, 20220, Note_on_c, 7, 78, 80
11, 20249, Note_on_c, 7, 78, 0
11, 20250, Note_on_c, 7, 76, 80
11, 20279, Note_on_c, 7, 76, 0
11, 20280, Note_on_c, 7, 74, 80
11, 20309, Note_on_c, 7, 74, 0
11, 20310, Note_on_c, 7, 73, 80
11, 20339, Note_on_c, 7, 73, 0
11, 20340, Note_on_c, 7, 74, 80
11, 20369, Note_on_c, 7, 74, 0
11, 20370, Note_on_c, 7, 73, 80
11, 20399, Note_on_c, 7, 73, 0
11, 20400, Note_on_c, 7, 71, 80
11, 20429, Note_on_c, 7, 71, 0
11, 20430, Note_on_c, 7, 69, 80
11, 20459, Note_on_c, 7, 69, 0
11, 20460, Note_on_c, 7, 71, 80
11, 20489, Note_on_c, 7, 71, 0
11, 20490, Note_on_c, 7, 69, 80
11, 20519, Note_on_c, 7, 69, 0
11, 20520, Note_on_c, 7, 74, 80
11, 20579, Note_on_c, 7, 74, 0
11, 20580, Note_on_c, 7, 76, 80
11, 20609, Note_on_c, 7, 76, 0
11, 20610, Note_on_c, 7, 74, 80
11, 20639, Note_on_c, 7, 74, 0
11, 20640, Note_on_c, 7, 73, 80
11, 20669, Note_on_c, 7, 73, 0
11, 20670, Note_on_c, 7, 71, 80
11, 20699, Note_on_c, 7, 71, 0
11, 20700, Note_on_c, 7, 69, 80
11, 20729, Note_on_c, 7, 69, 0
11, 20730, Note_on_c, 7, 71, 80
11, 20759, Note_on_c, 7, 71, 0
11, 20760, Note_on_c, 7, 71, 80
11, 20849, Note_on_c, 7, 71, 0
11, 20850, Note_on_c, 7, 69, 80
11, 20879, Note_on_c, 7, 69, 0
11, 20880, Note_on_c, 7, 69, 80
11, 20999, Note_on_c, 7, 69, 0
11, 21270, Note_on_c, 7, 66, 80
11, 21299, Note_on_c, 7, 66, 0
11, 21300, Note_on_c, 7, 67, 80
11, 21329, Note_on_c, 7, 67, 0
11, 21330, Note_on_c, 7, 69, 80
11, 21359, Note_on_c, 7, 69, 0
11, 21360, Note_on_c, 7, 71, 80
11, 21389, Note_on_c, 7, 71, 0
11, 21390, Note_on_c, 7, 73, 80
11, 21419, Note_on_c, 7, 73, 0
11, 21420, Note_on_c, 7, 75, 80
11, 21449, Note_on_c, 7, 75, 0
11, 21450, Note_on_c, 7, 76, 80
11, 21479, Note_on_c, 7, 76, 0
11, 21480, Note_on_c, 7, 78, 80
11, 21509, Note_on_c, 7, 78, 0
11, 21510, Note_on_c, 7, 76, 80
11, 21539, Note_on_c, 7, 76, 0
11, 21540, Note_on_c, 7, 78, 80
11, 21569, Note_on_c, 7, 78, 0
11, 21570, Note_on_c, 7, 76, 80
11, 21599, Note_on_c, 7, 76, 0
11, 21600, Note_on_c, 7, 75, 80
11, 21629, Note_on_c, 7, 75, 0
11, 21630, Note_on_c, 7, 63, 80
11, 21659, Note_on_c, 7, 63, 0
11, 21660, Note_on_c, 7, 64, 80
11, 21689, Note_on_c, 7, 64, 0
11, 21690, Note_on_c, 7, 66, 80
11, 21719, Note_on_c, 7, 66, 0
11, 21720, Note_on_c, 7, 67, 80
11, 21749, Note_on_c, 7, 67, 0
11, 21750, Note_on_c, 7, 69, 80
11, 21779, Note_on_c, 7, 69, 0
11, 21780, Note_on_c, 7, 71, 80
11, 21809, Note_on_c, 7, 71, 0
11, 21810, Note_on_c, 7, 73, 80
11, 21839, Note_on_c, 7, 73, 0
11, 21840, Note_on_c, 7, 75, 80
11, 21869, Note_on_c, 7, 75, 0
11, 21870, Note_on_c, 7, 76, 80
11, 21899, Note_on_c, 7, 76, 0
11, 21900, Note_on_c, 7, 73, 80
11, 21929, Note_on_c, 7, 73, 0
11, 21930, Note_on_c, 7, 75, 80
11, 21959, Note_on_c, 7, 75, 0
11, 21960, Note_on_c, 7, 76, 80
11, 22019, Note_on_c, 7, 76, 0
11, 22020, Note_on_c, 7, 67, 80
11, 22079, Note_on_c, 7, 67, 0
11, 22080, Note_on_c, 7, 67, 80
11, 22139, Note_on_c, 7, 67, 0
11, 22140, Note_on_c, 7, 67, 80
11, 22199, Note_on_c, 7, 67, 0
11, 22200, Note_on_c, 7, 67, 80
11, 22259, Note_on_c, 7, 67, 0
11, 22260, Note_on_c, 7, 64, 80
11, 22289, Note_on_c, 7, 64, 0
11, 22290, Note_on_c, 7, 66, 80
11, 22319, Note_on_c, 7, 66, 0
11, 22320, Note_on_c, 7, 67, 80
11, 22379, Note_on_c, 7, 67, 0
11, 22380, Note_on_c, 7, 71, 80
11, 22409, Note_on_c, 7, 71, 0
11, 22410, Note_on_c, 7, 69, 80
11, 22439, Note_on_c, 7, 69, 0
11, 22440, Note_on_c, 7, 67, 80
11, 22499, Note_on_c, 7, 67, 0
11, 22500, Note_on_c, 7, 71, 80
11, 22529, Note_on_c, 7, 71, 0
11, 22530, Note_on_c, 7, 69, 80
11, 22559, Note_on_c, 7, 69, 0
11, 22560, Note_on_c, 7, 67, 80
11, 22619, Note_on_c, 7, 67, 0
11, 22620, Note_on_c, 7, 67, 80
11, 22679, Note_on_c, 7, 67, 0
11, 22680, Note_on_c, 7, 67, 80
11, 23039, Note_on_c, 7, 67, 0
11, 23070, Note_on_c, 7, 66, 80
11, 23099, Note_on_c, 7, 66, 0
11, 23100, Note_on_c, 7, 67, 80
11, 23129, Note_on_c, 7, 67, 0
11, 23130, Note_on_c, 7, 69, 80
11, 23159, Note_on_c, 7, 69, 0
11, 23160, Note_on_c, 7, 71, 80
11, 23189, Note_on_c, 7, 71, 0
11, 23190, Note_on_c, 7, 73, 80
11, 23219, Note_on_c, 7, 73, 0
11, 23220, Note_on_c, 7, 74, 80
11, 23249, Note_on_c, 7, 74, 0
11, 23250, Note_on_c, 7, 76, 80
11, 23279, Note_on_c, 7, 76, 0
11, 23280, Note_on_c, 7, 78, 80
11, 23339, Note_on_c, 7, 78, 0
11, 23550, Note_on_c, 7, 81, 80
11, 23579, Note_on_c, 7, 81, 0
11, 23580, Note_on_c, 7, 79, 80
11, 23609, Note_on_c, 7, 79, 0
11, 23610, Note_on_c, 7, 78, 80
11, 23639, Note_on_c, 7, 78, 0
11, 23640, Note_on_c, 7, 76, 80
11, 23669, Note_on_c, 7, 76, 0
11, 23670, Note_on_c, 7, 74, 80
11, 23699, Note_on_c, 7, 74, 0
11, 23700, Note_on_c, 7, 73, 80
11, 23729, Note_on_c, 7, 73, 0
11, 23730, Note_on_c, 7, 71, 80
11, 23759, Note_on_c, 7, 71, 0
11, 23760, Note_on_c, 7, 69, 80
11, 23819, Note_on_c, 7, 69, 0
11, 23910, Note_on_c, 7, 79, 80
11, 23939, Note_on_c, 7, 79, 0
11, 23940, Note_on_c, 7, 78, 80
11, 23969, Note_on_c, 7, 78, 0
11, 23970, Note_on_c, 7, 76, 80
11, 23999, Note_on_c, 7, 76, 0
11, 24000, Note_on_c, 7, 74, 80
11, 24029, Note_on_c, 7, 74, 0
11, 24030, Note_on_c, 7, 73, 80
11, 24059, Note_on_c, 7, 73, 0
11, 24060, Note_on_c, 7, 71, 80
11, 24089, Note_on_c, 7, 71, 0
11, 24090, Note_on_c, 7, 69, 80
11, 24119, Note_on_c, 7, 69, 0
11, 24120, Note_on_c, 7, 67, 80
11, 24179, Note_on_c, 7, 67, 0
11, 24270, Note_on_c, 7, 78, 80
11, 24299, Note_on_c, 7, 78, 0
11, 24300, Note_on_c, 7, 76, 80
11, 24329, Note_on_c, 7, 76, 0
11, 24330, Note_on_c, 7, 74, 80
11, 24359, Note_on_c, 7, 74, 0
11, 24360, Note_on_c, 7, 73, 80
11, 24389, Note_on_c, 7, 73, 0
11, 24390, Note_on_c, 7, 71, 80
11, 24419, Note_on_c, 7, 71, 0
11, 24420, Note_on_c, 7, 69, 80
11, 24449, Note_on_c, 7, 69, 0
11, 24450, Note_on_c, 7, 67, 80
11, 24479, Note_on_c, 7, 67, 0
11, 24480, Note_on_c, 7, 66, 80
11, 24539, Note_on_c, 7, 66, 0
11, 24630, Note_on_c, 7, 76, 80
11, 24659, Note_on_c, 7, 76, 0
11, 24660, Note_on_c, 7, 74, 80
11, 24689, Note_on_c, 7, 74, 0
11, 24690, Note_on_c, 7, 73, 80
11, 24719, Note_on_c, 7, 73, 0
11, 24720, Note_on_c, 7, 71, 80
11, 24749, Note_on_c, 7, 71, 0
11, 24750, Note_on_c, 7, 69, 80
11, 24779, Note_on_c, 7, 69, 0
11, 24780, Note_on_c, 7, 68, 80
11, 24809, Note_on_c, 7, 68, 0
11, 24810, Note_on_c, 7, 66, 80
11, 24839, Note_on_c, 7, 66, 0
11, 24840, Note_on_c, 7, 68, 80
11, 24899, Note_on_c, 7, 68, 0
11, 24990, Note_on_c, 7, 76, 80
11, 25019, Note_on_c, 7, 76, 0
11, 25020, Note_on_c, 7, 74, 80
11, 25049, Note_on_c, 7, 74, 0
11, 25050, Note_on_c, 7, 72, 80
11, 25079, Note_on_c, 7, 72, 0
11, 25080, Note_on_c, 7, 71, 80
11, 25109, Note_on_c, 7, 71, 0
11, 25110, Note_on_c, 7, 69, 80
11, 25139, Note_on_c, 7, 69, 0
11, 25140, Note_on_c, 7, 68, 80
11, 25169, Note_on_c, 7, 68, 0
11, 25170, Note_on_c, 7, 66, 80
11, 25199, Note_on_c, 7, 66, 0
11, 25200, Note_on_c, 7, 64, 80
11, 25260, Note_on_c, 7, 64, 0
11, 25350, Note_on_c, 7, 73, 80
11, 25379, Note_on_c, 7, 73, 0
11, 25380, Note_on_c, 7, 71, 80
11, 25409, Note_on_c, 7, 71, 0
11, 25410, Note_on_c, 7, 69, 80
11, 25439, Note_on_c, 7, 69, 0
11, 25440, Note_on_c, 7, 68, 80
11, 25469, Note_on_c, 7, 68, 0
11, 25470, Note_on_c, 7, 66, 80
11, 25499, Note_on_c, 7, 66, 0
11, 25500, Note_on_c, 7, 64, 80
11, 25529, Note_on_c, 7, 64, 0
11, 25530, Note_on_c, 7, 62, 80
11, 25559, Note_on_c, 7, 62, 0
11, 25560, Note_on_c, 7, 69, 80
11, 25619, Note_on_c, 7, 69, 0
11, 25680, Note_on_c, 7, 73, 80
11, 25739, Note_on_c, 7, 73, 0
11, 25740, Note_on_c, 7, 69, 80
11, 25799, Note_on_c, 7, 69, 0
11, 26040, Note_on_c, 7, 74, 80
11, 26099, Note_on_c, 7, 74, 0
11, 26100, Note_on_c, 7, 69, 80
11, 26159, Note_on_c, 7, 69, 0
11, 26400, Note_on_c, 7, 73, 80
11, 26459, Note_on_c, 7, 73, 0
11, 26460, Note_on_c, 7, 69, 80
11, 26519, Note_on_c, 7, 69, 0
11, 26670, Note_on_c, 7, 66, 80
11, 26699, Note_on_c, 7, 66, 0
11, 26700, Note_on_c, 7, 67, 80
11, 26729, Note_on_c, 7, 67, 0
11, 26730, Note_on_c, 7, 69, 80
11, 26759, Note_on_c, 7, 69, 0
11, 26760, Note_on_c, 7, 71, 80
11, 26789, Note_on_c, 7, 71, 0
11, 26790, Note_on_c, 7, 73, 80
11, 26819, Note_on_c, 7, 73, 0
11, 26820, Note_on_c, 7, 74, 80
11, 26849, Note_on_c, 7, 74, 0
11, 26850, Note_on_c, 7, 76, 80
11, 26879, Note_on_c, 7, 76, 0
11, 26880, Note_on_c, 7, 78, 80
11, 26909, Note_on_c, 7, 78, 0
11, 26910, Note_on_c, 7, 76, 80
11, 26939, Note_on_c, 7, 76, 0
11, 26940, Note_on_c, 7, 78, 80
11, 26969, Note_on_c, 7, 78, 0
11, 26970, Note_on_c, 7, 76, 80
11, 26999, Note_on_c, 7, 76, 0
11, 27000, Note_on_c, 7, 74, 80
11, 27059, Note_on_c, 7, 74, 0
11, 27060, Note_on_c, 7, 74, 80
11, 27119, Note_on_c, 7, 74, 0
11, 27120, Note_on_c, 7, 74, 80
11, 27179, Note_on_c, 7, 74, 0
11, 27180, Note_on_c, 7, 74, 80
11, 27239, Note_on_c, 7, 74, 0
11, 27240, Note_on_c, 7, 74, 80
11, 27299, Note_on_c, 7, 74, 0
11, 27300, Note_on_c, 7, 74, 80
11, 27359, Note_on_c, 7, 74, 0
11, 27360, Note_on_c, 7, 74, 80
11, 27419, Note_on_c, 7, 74, 0
11, 27420, Note_on_c, 7, 74, 80
11, 27479, Note_on_c, 7, 74, 0
11, 27480, Note_on_c, 7, 76, 80
11, 27509, Note_on_c, 7, 76, 0
11, 27510, Note_on_c, 7, 78, 80
11, 27539, Note_on_c, 7, 78, 0
11, 27540, Note_on_c, 7, 76, 80
11, 27569, Note_on_c, 7, 76, 0
11, 27570, Note_on_c, 7, 78, 80
11, 27599, Note_on_c, 7, 78, 0
11, 27600, Note_on_c, 7, 79, 80
11, 27629, Note_on_c, 7, 79, 0
11, 27630, Note_on_c, 7, 81, 80
11, 27659, Note_on_c, 7, 81, 0
11, 27660, Note_on_c, 7, 78, 80
11, 27689, Note_on_c, 7, 78, 0
11, 27690, Note_on_c, 7, 79, 80
11, 27719, Note_on_c, 7, 79, 0
11, 27720, Note_on_c, 7, 81, 80
11, 27749, Note_on_c, 7, 81, 0
11, 27750, Note_on_c, 7, 79, 80
11, 27779, Note_on_c, 7, 79, 0
11, 27780, Note_on_c, 7, 78, 80
11, 27809, Note_on_c, 7, 78, 0
11, 27810, Note_on_c, 7, 76, 80
11, 27839, Note_on_c, 7, 76, 0
11, 27840, Note_on_c, 7, 74, 80
11, 27869, Note_on_c, 7, 74, 0
11, 27870, Note_on_c, 7, 73, 80
11, 27899, Note_on_c, 7, 73, 0
11, 27900, Note_on_c, 7, 74, 80
11, 27929, Note_on_c, 7, 74, 0
11, 27930, Note_on_c, 7, 71, 80
11, 27959, Note_on_c, 7, 71, 0
11, 27960, Note_on_c, 7, 73, 80
11, 28049, Note_on_c, 7, 73, 0
11, 28050, Note_on_c, 7, 74, 80
11, 28079, Note_on_c, 7, 74, 0
11, 28080, Note_on_c, 7, 74, 80
11, 28199, Note_on_c, 7, 74, 0
11, 28200, Note_on_c, 7, 74, 80
11, 28259, Note_on_c, 7, 74, 0
11, 28260, Note_on_c, 7, 69, 80
11, 28319, Note_on_c, 7, 69, 0
11, 28560, Note_on_c, 7, 71, 80
11, 28619, Note_on_c, 7, 71, 0
11, 28620, Note_on_c, 7, 67, 80
11, 28679, Note_on_c, 7, 67, 0
11, 28920, Note_on_c, 7, 69, 80
11, 28979, Note_on_c, 7, 69, 0
11, 28980, Note_on_c, 7, 66, 80
11, 29039, Note_on_c, 7, 66, 0
11, 29220, Note_on_c, 7, 74, 80
11, 29279, Note_on_c, 7, 74, 0
11, 29280, Note_on_c, 7, 76, 80
11, 29309, Note_on_c, 7, 76, 0
11, 29310, Note_on_c, 7, 78, 80
11, 29339, Note_on_c, 7, 78, 0
11, 29340, Note_on_c, 7, 76, 80
11, 29369, Note_on_c, 7, 76, 0
11, 29370, Note_on_c, 7, 78, 80
11, 29399, Note_on_c, 7, 78, 0
11, 29400, Note_on_c, 7, 79, 80
11, 29429, Note_on_c, 7, 79, 0
11, 29430, Note_on_c, 7, 81, 80
11, 29459, Note_on_c, 7, 81, 0
11, 29460, Note_on_c, 7, 78, 80
11, 29489, Note_on_c, 7, 78, 0
11, 29490, Note_on_c, 7, 79, 80
11, 29519, Note_on_c, 7, 79, 0
11, 29520, Note_on_c, 7, 81, 80
11, 29549, Note_on_c, 7, 81, 0
11, 29550, Note_on_c, 7, 79, 80
11, 29579, Note_on_c, 7, 79, 0
11, 29580, Note_on_c, 7, 78, 80
11, 29609, Note_on_c, 7, 78, 0
11, 29610, Note_on_c, 7, 76, 80
11, 29639, Note_on_c, 7, 76, 0
11, 29640, Note_on_c, 7, 74, 80
11, 29669, Note_on_c, 7, 74, 0
11, 29670, Note_on_c, 7, 73, 80
11, 29699, Note_on_c, 7, 73, 0
11, 29700, Note_on_c, 7, 74, 80
11, 29729, Note_on_c, 7, 74, 0
11, 29730, Note_on_c, 7, 71, 80
11, 29759, Note_on_c, 7, 71, 0
11, 29760, Note_on_c, 7, 73, 80
11, 29849, Note_on_c, 7, 73, 0
11, 29850, Note_on_c, 7, 74, 80
11, 29879, Note_on_c, 7, 74, 0
11, 29880, Note_on_c, 7, 74, 80
11, 29999, Note_on_c, 7, 74, 0
11, 30270, Note_on_c, 7, 81, 80
11, 30299, Note_on_c, 7, 81, 0
11, 30300, Note_on_c, 7, 79, 80
11, 30329, Note_on_c, 7, 79, 0
11, 30330, Note_on_c, 7, 78, 80
11, 30359, Note_on_c, 7, 78, 0
11, 30360, Note_on_c, 7, 76, 80
11, 30389, Note_on_c, 7, 76, 0
11, 30390, Note_on_c, 7, 74, 80
11, 30419, Note_on_c, 7, 74, 0
11, 30420, Note_on_c, 7, 73, 80
11, 30449, Note_on_c, 7, 73, 0
11, 30450, Note_on_c, 7, 71, 80
11, 30479, Note_on_c, 7, 71, 0
11, 30480, Note_on_c, 7, 69, 80
11, 30539, Note_on_c, 7, 69, 0
11, 30990, Note_on_c, 7, 74, 80
11, 31019, Note_on_c, 7, 74, 0
11, 31020, Note_on_c, 7, 73, 80
11, 31049, Note_on_c, 7, 73, 0
11, 31050, Note_on_c, 7, 71, 80
11, 31079, Note_on_c, 7, 71, 0
11, 31080, Note_on_c, 7, 70, 80
11, 31109, Note_on_c, 7, 70, 0
11, 31110, Note_on_c, 7, 67, 80
11, 31139, Note_on_c, 7, 67, 0
11, 31140, Note_on_c, 7, 66, 80
11, 31169, Note_on_c, 7, 66, 0
11, 31170, Note_on_c, 7, 64, 80
11, 31199, Note_on_c, 7, 64, 0
11, 31200, Note_on_c, 7, 62, 80
11, 31259, Note_on_c, 7, 62, 0
11, 32430, Note_on_c, 7, 66, 80
11, 32459, Note_on_c, 7, 66, 0
11, 32460, Note_on_c, 7, 68, 80
11, 32489, Note_on_c, 7, 68, 0
11, 32490, Note_on_c, 7, 70, 80
11, 32519, Note_on_c, 7, 70, 0
11, 32520, Note_on_c, 7, 71, 80
11, 32549, Note_on_c, 7, 71, 0
11, 32550, Note_on_c, 7, 73, 80
11, 32579, Note_on_c, 7, 73, 0
11, 32580, Note_on_c, 7, 74, 80
11, 32609, Note_on_c, 7, 74, 0
11, 32610, Note_on_c, 7, 76, 80
11, 32639, Note_on_c, 7, 76, 0
11, 32640, Note_on_c, 7, 78, 80
11, 32669, Note_on_c, 7, 78, 0
11, 32670, Note_on_c, 7, 79, 80
11, 32699, Note_on_c, 7, 79, 0
11, 32700, Note_on_c, 7, 76, 80
11, 32729, Note_on_c, 7, 76, 0
11, 32730, Note_on_c, 7, 78, 80
11, 32759, Note_on_c, 7, 78, 0
11, 32760, Note_on_c, 7, 74, 80
11, 32819, Note_on_c, 7, 74, 0
11, 32820, Note_on_c, 7, 62, 80
11, 32849, Note_on_c, 7, 62, 0
11, 32850, Note_on_c, 7, 64, 80
11, 32879, Note_on_c, 7, 64, 0
11, 32880, Note_on_c, 7, 66, 80
11, 32909, Note_on_c, 7, 66, 0
11, 32910, Note_on_c, 7, 67, 80
11, 32939, Note_on_c, 7, 67, 0
11, 32940, Note_on_c, 7, 69, 80
11, 32969, Note_on_c, 7, 69, 0
11, 32970, Note_on_c, 7, 71, 80
11, 32999, Note_on_c, 7, 71, 0
11, 33000, Note_on_c, 7, 72, 80
11, 33029, Note_on_c, 7, 72, 0
11, 33030, Note_on_c, 7, 71, 80
11, 33059, Note_on_c, 7, 71, 0
11, 33060, Note_on_c, 7, 72, 80
11, 33089, Note_on_c, 7, 72, 0
11, 33090, Note_on_c, 7, 71, 80
11, 33119, Note_on_c, 7, 71, 0
11, 33120, Note_on_c, 7, 69, 80
11, 33149, Note_on_c, 7, 69, 0
11, 33150, Note_on_c, 7, 67, 80
11, 33179, Note_on_c, 7, 67, 0
11, 33180, Note_on_c, 7, 66, 80
11, 33209, Note_on_c, 7, 66, 0
11, 33210, Note_on_c, 7, 67, 80
11, 33239, Note_on_c, 7, 67, 0
11, 33240, Note_on_c, 7, 69, 80
11, 33269, Note_on_c, 7, 69, 0
11, 33270, Note_on_c, 7, 67, 80
11, 33299, Note_on_c, 7, 67, 0
11, 33300, Note_on_c, 7, 66, 80
11, 33329, Note_on_c, 7, 66, 0
11, 33330, Note_on_c, 7, 67, 80
11, 33359, Note_on_c, 7, 67, 0
11, 33360, Note_on_c, 7, 69, 80
11, 33389, Note_on_c, 7, 69, 0
11, 33390, Note_on_c, 7, 67, 80
11, 33419, Note_on_c, 7, 67, 0
11, 33420, Note_on_c, 7, 66, 80
11, 33449, Note_on_c, 7, 66, 0
11, 33450, Note_on_c, 7, 67, 80
11, 33479, Note_on_c, 7, 67, 0
11, 33480, Note_on_c, 7, 69, 80
11, 33509, Note_on_c, 7, 69, 0
11, 33510, Note_on_c, 7, 63, 80
11, 33539, Note_on_c, 7, 63, 0
11, 33540, Note_on_c, 7, 64, 80
11, 33569, Note_on_c, 7, 64, 0
11, 33570, Note_on_c, 7, 66, 80
11, 33599, Note_on_c, 7, 66, 0
11, 33600, Note_on_c, 7, 67, 80
11, 33629, Note_on_c, 7, 67, 0
11, 33630, Note_on_c, 7, 69, 80
11, 33659, Note_on_c, 7, 69, 0
11, 33660, Note_on_c, 7, 71, 80
11, 33689, Note_on_c, 7, 71, 0
11, 33690, Note_on_c, 7, 73, 80
11, 33719, Note_on_c, 7, 73, 0
11, 33720, Note_on_c, 7, 75, 80
11, 33749, Note_on_c, 7, 75, 0
11, 33750, Note_on_c, 7, 76, 80
11, 33779, Note_on_c, 7, 76, 0
11, 33780, Note_on_c, 7, 73, 80
11, 33809, Note_on_c, 7, 73, 0
11, 33810, Note_on_c, 7, 75, 80
11, 33839, Note_on_c, 7, 75, 0
11, 33840, Note_on_c, 7, 76, 80
11, 33959, Note_on_c, 7, 76, 0
11, 33990, Note_on_c, 7, 72, 80
11, 34019, Note_on_c, 7, 72, 0
11, 34020, Note_on_c, 7, 71, 80
11, 34049, Note_on_c, 7, 71, 0
11, 34050, Note_on_c, 7, 69, 80
11, 34079, Note_on_c, 7, 69, 0
11, 34080, Note_on_c, 7, 67, 80
11, 34109, Note_on_c, 7, 67, 0
11, 34110, Note_on_c, 7, 66, 80
11, 34139, Note_on_c, 7, 66, 0
11, 34140, Note_on_c, 7, 64, 80
11, 34169, Note_on_c, 7, 64, 0
11, 34170, Note_on_c, 7, 62, 80
11, 34199, Note_on_c, 7, 62, 0
11, 34200, Note_on_c, 7, 64, 80
11, 34229, Note_on_c, 7, 64, 0
11, 34230, Note_on_c, 7, 81, 80
11, 34259, Note_on_c, 7, 81, 0
11, 34260, Note_on_c, 7, 79, 80
11, 34289, Note_on_c, 7, 79, 0
11, 34290, Note_on_c, 7, 78, 80
11, 34319, Note_on_c, 7, 78, 0
11, 34320, Note_on_c, 7, 76, 80
11, 34349, Note_on_c, 7, 76, 0
11, 34350, Note_on_c, 7, 74, 80
11, 34379, Note_on_c, 7, 74, 0
11, 34380, Note_on_c, 7, 73, 80
11, 34409, Note_on_c, 7, 73, 0
11, 34410, Note_on_c, 7, 71, 80
11, 34439, Note_on_c, 7, 71, 0
11, 34440, Note_on_c, 7, 69, 80
11, 34469, Note_on_c, 7, 69, 0
11, 34470, Note_on_c, 7, 67, 80
11, 34499, Note_on_c, 7, 67, 0
11, 34500, Note_on_c, 7, 66, 80
11, 34529, Note_on_c, 7, 66, 0
11, 34530, Note_on_c, 7, 64, 80
11, 34559, Note_on_c, 7, 64, 0
11, 34560, Note_on_c, 7, 62, 80
11, 34679, Note_on_c, 7, 62, 0
11, 34710, Note_on_c, 7, 71, 80
11, 34739, Note_on_c, 7, 71, 0
11, 34740, Note_on_c, 7, 69, 80
11, 34769, Note_on_c, 7, 69, 0
11, 34770, Note_on_c, 7, 67, 80
11, 34799, Note_on_c, 7, 67, 0
11, 34800, Note_on_c, 7, 66, 80
11, 34829, Note_on_c, 7, 66, 0
11, 34830, Note_on_c, 7, 64, 80
11, 34859, Note_on_c, 7, 64, 0
11, 34860, Note_on_c, 7, 62, 80
11, 34889, Note_on_c, 7, 62, 0
11, 34890, Note_on_c, 7, 61, 80
11, 34919, Note_on_c, 7, 61, 0
11, 34920, Note_on_c, 7, 62, 80
11, 34949, Note_on_c, 7, 62, 0
11, 34950, Note_on_c, 7, 79, 80
11, 34979, Note_on_c, 7, 79, 0
11, 34980, Note_on_c, 7, 78, 80
11, 35009, Note_on_c, 7, 78, 0
11, 35010, Note_on_c, 7, 76, 80
11, 35039, Note_on_c, 7, 76, 0
11, 35040, Note_on_c, 7, 74, 80
11, 35069, Note_on_c, 7, 74, 0
11, 35070, Note_on_c, 7, 73, 80
11, 35099, Note_on_c, 7, 73, 0
11, 35100, Note_on_c, 7, 71, 80
11, 35129, Note_on_c, 7, 71, 0
11, 35130, Note_on_c, 7, 69, 80
11, 35159, Note_on_c, 7, 69, 0
11, 35160, Note_on_c, 7, 67, 80
11, 35189, Note_on_c, 7, 67, 0
11, 35190, Note_on_c, 7, 66, 80
11, 35219, Note_on_c, 7, 66, 0
11, 35220, Note_on_c, 7, 64, 80
11, 35249, Note_on_c, 7, 64, 0
11, 35250, Note_on_c, 7, 62, 80
11, 35279, Note_on_c, 7, 62, 0
11, 35280, Note_on_c, 7, 67, 80
11, 35399, Note_on_c, 7, 67, 0
11, 35430, Note_on_c, 7, 81, 80
11, 35459, Note_on_c, 7, 81, 0
11, 35460, Note_on_c, 7, 79, 80
11, 35489, Note_on_c, 7, 79, 0
11, 35490, Note_on_c, 7, 78, 80
11, 35519, Note_on_c, 7, 78, 0
11, 35520, Note_on_c, 7, 76, 80
11, 35549, Note_on_c, 7, 76, 0
11, 35550, Note_on_c, 7, 74, 80
11, 35579, Note_on_c, 7, 74, 0
11, 35580, Note_on_c, 7, 73, 80
11, 35609, Note_on_c, 7, 73, 0
11, 35610, Note_on_c, 7, 71, 80
11, 35639, Note_on_c, 7, 71, 0
11, 35640, Note_on_c, 7, 78, 80
11, 35699, Note_on_c, 7, 78, 0
11, 35700, Note_on_c, 7, 76, 80
11, 35729, Note_on_c, 7, 76, 0
11, 35730, Note_on_c, 7, 74, 80
11, 35759, Note_on_c, 7, 74, 0
11, 35760, Note_on_c, 7, 73, 80
11, 35789, Note_on_c, 7, 73, 0
11, 35790, Note_on_c, 7, 71, 80
11, 35819, Note_on_c, 7, 71, 0
11, 35820, Note_on_c, 7, 70, 80
11, 35849, Note_on_c, 7, 70, 0
11, 35850, Note_on_c, 7, 68, 80
11, 35879, Note_on_c, 7, 68, 0
11, 35880, Note_on_c, 7, 66, 80
11, 35909, Note_on_c, 7, 66, 0
11, 35910, Note_on_c, 7, 76, 80
11, 35939, Note_on_c, 7, 76, 0
11, 35940, Note_on_c, 7, 74, 80
11, 35969, Note_on_c, 7, 74, 0
11, 35970, Note_on_c, 7, 73, 80
11, 35999, Note_on_c, 7, 73, 0
11, 36000, Note_on_c, 7, 74, 80
11, 36029, Note_on_c, 7, 74, 0
11, 36030, Note_on_c, 7, 71, 80
11, 36059, Note_on_c, 7, 71, 0
11, 36060, Note_on_c, 7, 79, 80
11, 36089, Note_on_c, 7, 79, 0
11, 36090, Note_on_c, 7, 78, 80
11, 36119, Note_on_c, 7, 78, 0
11, 36120, Note_on_c, 7, 76, 80
11, 36149, Note_on_c, 7, 76, 0
11, 36150, Note_on_c, 7, 74, 80
11, 36179, Note_on_c, 7, 74, 0
11, 36180, Note_on_c, 7, 76, 80
11, 36209, Note_on_c, 7, 76, 0
11, 36210, Note_on_c, 7, 74, 80
11, 36239, Note_on_c, 7, 74, 0
11, 36240, Note_on_c, 7, 72, 80
11, 36269, Note_on_c, 7, 72, 0
11, 36270, Note_on_c, 7, 71, 80
11, 36299, Note_on_c, 7, 71, 0
11, 36300, Note_on_c, 7, 72, 80
11, 36329, Note_on_c, 7, 72, 0
11, 36330, Note_on_c, 7, 71, 80
11, 36359, Note_on_c, 7, 71, 0
11, 36360, Note_on_c, 7, 70, 80
11, 36479, Note_on_c, 7, 70, 0
11, 36480, Note_on_c, 7, 70, 80
11, 36539, Note_on_c, 7, 70, 0
11, 36540, Note_on_c, 7, 66, 80
11, 36599, Note_on_c, 7, 66, 0
11, 36840, Note_on_c, 7, 71, 80
11, 36899, Note_on_c, 7, 71, 0
11, 36900, Note_on_c, 7, 66, 80
11, 36959, Note_on_c, 7, 66, 0
11, 37200, Note_on_c, 7, 73, 80
11, 37259, Note_on_c, 7, 73, 0
11, 37260, Note_on_c, 7, 70, 80
11, 37319, Note_on_c, 7, 70, 0
11, 37500, Note_on_c, 7, 76, 80
11, 37529, Note_on_c, 7, 76, 0
11, 37530, Note_on_c, 7, 74, 80
11, 37559, Note_on_c, 7, 74, 0
11, 37560, Note_on_c, 7, 73, 80
11, 37589, Note_on_c, 7, 73, 0
11, 37590, Note_on_c, 7, 71, 80
11, 37619, Note_on_c, 7, 71, 0
11, 37620, Note_on_c, 7, 70, 80
11, 37649, Note_on_c, 7, 70, 0
11, 37650, Note_on_c, 7, 71, 80
11, 37679, Note_on_c, 7, 71, 0
11, 37680, Note_on_c, 7, 66, 80
11, 37739, Note_on_c, 7, 66, 0
11, 37740, Note_on_c, 7, 66, 80
11, 37799, Note_on_c, 7, 66, 0
11, 37800, Note_on_c, 7, 68, 80
11, 37859, Note_on_c, 7, 68, 0
11, 37860, Note_on_c, 7, 68, 80
11, 37919, Note_on_c, 7, 68, 0
11, 37920, Note_on_c, 7, 68, 80
11, 37979, Note_on_c, 7, 68, 0
11, 37980, Note_on_c, 7, 68, 80
11, 38039, Note_on_c, 7, 68, 0
11, 38040, Note_on_c, 7, 68, 80
11, 38099, Note_on_c, 7, 68, 0
11, 38100, Note_on_c, 7, 66, 80
11, 38129, Note_on_c, 7, 66, 0
11, 38130, Note_on_c, 7, 68, 80
11, 38159, Note_on_c, 7, 68, 0
11, 38160, Note_on_c, 7, 69, 80
11, 38219, Note_on_c, 7, 69, 0
11, 38220, Note_on_c, 7, 69, 80
11, 38279, Note_on_c, 7, 69, 0
11, 38280, Note_on_c, 7, 69, 80
11, 38339, Note_on_c, 7, 69, 0
11, 38340, Note_on_c, 7, 69, 80
11, 38399, Note_on_c, 7, 69, 0
11, 38400, Note_on_c, 7, 69, 80
11, 38459, Note_on_c, 7, 69, 0
11, 38460, Note_on_c, 7, 68, 80
11, 38489, Note_on_c, 7, 68, 0
11, 38490, Note_on_c, 7, 69, 80
11, 38519, Note_on_c, 7, 69, 0
11, 38520, Note_on_c, 7, 71, 80
11, 38579, Note_on_c, 7, 71, 0
11, 38580, Note_on_c, 7, 71, 80
11, 38639, Note_on_c, 7, 71, 0
11, 38640, Note_on_c, 7, 71, 80
11, 38699, Note_on_c, 7, 71, 0
11, 38700, Note_on_c, 7, 71, 80
11, 38759, Note_on_c, 7, 71, 0
11, 38760, Note_on_c, 7, 71, 80
11, 38819, Note_on_c, 7, 71, 0
11, 38820, Note_on_c, 7, 69, 80
11, 38849, Note_on_c, 7, 69, 0
11, 38850, Note_on_c, 7, 71, 80
11, 38879, Note_on_c, 7, 71, 0
11, 38880, Note_on_c, 7, 73, 80
11, 38939, Note_on_c, 7, 73, 0
11, 38940, Note_on_c, 7, 73, 80
11, 38999, Note_on_c, 7, 73, 0
11, 39000, Note_on_c, 7, 73, 80
11, 39059, Note_on_c, 7, 73, 0
11, 39060, Note_on_c, 7, 73, 80
11, 39119, Note_on_c, 7, 73, 0
11, 39120, Note_on_c, 7, 73, 80
11, 39179, Note_on_c, 7, 73, 0
11, 39180, Note_on_c, 7, 71, 80
11, 39209, Note_on_c, 7, 71, 0
11, 39210, Note_on_c, 7, 73, 80
11, 39239, Note_on_c, 7, 73, 0
11, 39240, Note_on_c, 7, 74, 80
11, 39269, Note_on_c, 7, 74, 0
11, 39270, Note_on_c, 7, 73, 80
11, 39299, Note_on_c, 7, 73, 0
11, 39300, Note_on_c, 7, 74, 80
11, 39329, Note_on_c, 7, 74, 0
11, 39330, Note_on_c, 7, 71, 80
11, 39359, Note_on_c, 7, 71, 0
11, 39360, Note_on_c, 7, 73, 80
11, 39419, Note_on_c, 7, 73, 0
11, 39420, Note_on_c, 7, 74, 80
11, 39449, Note_on_c, 7, 74, 0
11, 39450, Note_on_c, 7, 73, 80
11, 39479, Note_on_c, 7, 73, 0
11, 39480, Note_on_c, 7, 71, 80
11, 39509, Note_on_c, 7, 71, 0
11, 39510, Note_on_c, 7, 69, 80
11, 39539, Note_on_c, 7, 69, 0
11, 39540, Note_on_c, 7, 68, 80
11, 39569, Note_on_c, 7, 68, 0
11, 39570, Note_on_c, 7, 66, 80
11, 39599, Note_on_c, 7, 66, 0
11, 39600, Note_on_c, 7, 66, 80
11, 39959, Note_on_c, 7, 66, 0
11, 40710, Note_on_c, 7, 62, 80
11, 40740, Note_on_c, 7, 62, 0
11, 40740, Note_on_c, 7, 64, 80
11, 40770, Note_on_c, 7, 64, 0
11, 40770, Note_on_c, 7, 66, 80
11, 40800, Note_on_c, 7, 66, 0
11, 40800, Note_on_c, 7, 67, 80
11, 40830, Note_on_c, 7, 67, 0
11, 40830, Note_on_c, 7, 69, 80
11, 40860, Note_on_c, 7, 69, 0
11, 40860, Note_on_c, 7, 71, 80
11, 40890, Note_on_c, 7, 71, 0
11, 40890, Note_on_c, 7, 73, 80
11, 40920, Note_on_c, 7, 73, 0
11, 40920, Note_on_c, 7, 74, 80
11, 40950, Note_on_c, 7, 74, 0
11, 40950, Note_on_c, 7, 73, 80
11, 40980, Note_on_c, 7, 73, 0
11, 40980, Note_on_c, 7, 74, 80
11, 41010, Note_on_c, 7, 74, 0
11, 41010, Note_on_c, 7, 73, 80
11, 41040, Note_on_c, 7, 73, 0
11, 41040, Note_on_c, 7, 74, 80
11, 41100, Note_on_c, 7, 74, 0
11, 41160, Note_on_c, 7, 69, 80
11, 41220, Note_on_c, 7, 69, 0
11, 41220, Note_on_c, 7, 66, 80
11, 41280, Note_on_c, 7, 66, 0
11, 41430, Note_on_c, 7, 66, 80
11, 41459, Note_on_c, 7, 66, 0
11, 41460, Note_on_c, 7, 67, 80
11, 41489, Note_on_c, 7, 67, 0
11, 41490, Note_on_c, 7, 69, 80
11, 41519, Note_on_c, 7, 69, 0
11, 41520, Note_on_c, 7, 71, 80
11, 41549, Note_on_c, 7, 71, 0
11, 41550, Note_on_c, 7, 73, 80
11, 41579, Note_on_c, 7, 73, 0
11, 41580, Note_on_c, 7, 74, 80
11, 41609, Note_on_c, 7, 74, 0
11, 41610, Note_on_c, 7, 76, 80
11, 41639, Note_on_c, 7, 76, 0
11, 41640, Note_on_c, 7, 78, 80
11, 41669, Note_on_c, 7, 78, 0
11, 41670, Note_on_c, 7, 76, 80
11, 41699, Note_on_c, 7, 76, 0
11, 41700, Note_on_c, 7, 78, 80
11, 41729, Note_on_c, 7, 78, 0
11, 41730, Note_on_c, 7, 76, 80
11, 41759, Note_on_c, 7, 76, 0
11, 41760, Note_on_c, 7, 74, 80
11, 41819, Note_on_c, 7, 74, 0
11, 41820, Note_on_c, 7, 74, 80
11, 41879, Note_on_c, 7, 74, 0
11, 41880, Note_on_c, 7, 74, 80
11, 41939, Note_on_c, 7, 74, 0
11, 41940, Note_on_c, 7, 74, 80
11, 41999, Note_on_c, 7, 74, 0
11, 42000, Note_on_c, 7, 74, 80
11, 42059, Note_on_c, 7, 74, 0
11, 42060, Note_on_c, 7, 74, 80
11, 42119, Note_on_c, 7, 74, 0
11, 42120, Note_on_c, 7, 76, 80
11, 42149, Note_on_c, 7, 76, 0
11, 42150, Note_on_c, 7, 78, 80
11, 42179, Note_on_c, 7, 78, 0
11, 42180, Note_on_c, 7, 76, 80
11, 42209, Note_on_c, 7, 76, 0
11, 42210, Note_on_c, 7, 78, 80
11, 42239, Note_on_c, 7, 78, 0
11, 42240, Note_on_c, 7, 80, 80
11, 42269, Note_on_c, 7, 80, 0
11, 42270, Note_on_c, 7, 81, 80
11, 42299, Note_on_c, 7, 81, 0
11, 42300, Note_on_c, 7, 80, 80
11, 42329, Note_on_c, 7, 80, 0
11, 42330, Note_on_c, 7, 81, 80
11, 42359, Note_on_c, 7, 81, 0
11, 42360, Note_on_c, 7, 83, 80
11, 42389, Note_on_c, 7, 83, 0
11, 42390, Note_on_c, 7, 85, 80
11, 42419, Note_on_c, 7, 85, 0
11, 42420, Note_on_c, 7, 81, 80
11, 42449, Note_on_c, 7, 81, 0
11, 42450, Note_on_c, 7, 83, 80
11, 42479, Note_on_c, 7, 83, 0
11, 42480, Note_on_c, 7, 85, 80
11, 42509, Note_on_c, 7, 85, 0
11, 42510, Note_on_c, 7, 86, 80
11, 42539, Note_on_c, 7, 86, 0
11, 42540, Note_on_c, 7, 85, 80
11, 42569, Note_on_c, 7, 85, 0
11, 42570, Note_on_c, 7, 83, 80
11, 42599, Note_on_c, 7, 83, 0
11, 42600, Note_on_c, 7, 81, 80
11, 42629, Note_on_c, 7, 81, 0
11, 42630, Note_on_c, 7, 80, 80
11, 42659, Note_on_c, 7, 80, 0
11, 42660, Note_on_c, 7, 81, 80
11, 42689, Note_on_c, 7, 81, 0
11, 42690, Note_on_c, 7, 78, 80
11, 42719, Note_on_c, 7, 78, 0
11, 42720, Note_on_c, 7, 80, 80
11, 42809, Note_on_c, 7, 80, 0
11, 42810, Note_on_c, 7, 81, 80
11, 42839, Note_on_c, 7, 81, 0
11, 42840, Note_on_c, 7, 81, 80
11, 42959, Note_on_c, 7, 81, 0
11, 43230, Note_on_c, 7, 66, 80
11, 43259, Note_on_c, 7, 66, 0
11, 43260, Note_on_c, 7, 67, 80
11, 43289, Note_on_c, 7, 67, 0
11, 43290, Note_on_c, 7, 69, 80
11, 43319, Note_on_c, 7, 69, 0
11, 43320, Note_on_c, 7, 71, 80
11, 43349, Note_on_c, 7, 71, 0
11, 43350, Note_on_c, 7, 73, 80
11, 43379, Note_on_c, 7, 73, 0
11, 43380, Note_on_c, 7, 74, 80
11, 43409, Note_on_c, 7, 74, 0
11, 43410, Note_on_c, 7, 76, 80
11, 43439, Note_on_c, 7, 76, 0
11, 43440, Note_on_c, 7, 78, 80
11, 43469, Note_on_c, 7, 78, 0
11, 43470, Note_on_c, 7, 76, 80
11, 43499, Note_on_c, 7, 76, 0
11, 43500, Note_on_c, 7, 78, 80
11, 43529, Note_on_c, 7, 78, 0
11, 43530, Note_on_c, 7, 76, 80
11, 43559, Note_on_c, 7, 76, 0
11, 43560, Note_on_c, 7, 75, 80
11, 43589, Note_on_c, 7, 75, 0
11, 43590, Note_on_c, 7, 63, 80
11, 43619, Note_on_c, 7, 63, 0
11, 43620, Note_on_c, 7, 64, 80
11, 43649, Note_on_c, 7, 64, 0
11, 43650, Note_on_c, 7, 66, 80
11, 43679, Note_on_c, 7, 66, 0
11, 43680, Note_on_c, 7, 67, 80
11, 43709, Note_on_c, 7, 67, 0
11, 43710, Note_on_c, 7, 69, 80
11, 43739, Note_on_c, 7, 69, 0
11, 43740, Note_on_c, 7, 71, 80
11, 43769, Note_on_c, 7, 71, 0
11, 43770, Note_on_c, 7, 73, 80
11, 43799, Note_on_c, 7, 73, 0
11, 43800, Note_on_c, 7, 75, 80
11, 43829, Note_on_c, 7, 75, 0
11, 43830, Note_on_c, 7, 76, 80
11, 43859, Note_on_c, 7, 76, 0
11, 43860, Note_on_c, 7, 73, 80
11, 43889, Note_on_c, 7, 73, 0
11, 43890, Note_on_c, 7, 75, 80
11, 43919, Note_on_c, 7, 75, 0
11, 43920, Note_on_c, 7, 76, 80
11, 43979, Note_on_c, 7, 76, 0
11, 43980, Note_on_c, 7, 67, 80
11, 44039, Note_on_c, 7, 67, 0
11, 44040, Note_on_c, 7, 67, 80
11, 44099, Note_on_c, 7, 67, 0
11, 44100, Note_on_c, 7, 67, 80
11, 44159, Note_on_c, 7, 67, 0
11, 44160, Note_on_c, 7, 67, 80
11, 44219, Note_on_c, 7, 67, 0
11, 44220, Note_on_c, 7, 64, 80
11, 44249, Note_on_c, 7, 64, 0
11, 44250, Note_on_c, 7, 66, 80
11, 44279, Note_on_c, 7, 66, 0
11, 44280, Note_on_c, 7, 67, 80
11, 44339, Note_on_c, 7, 67, 0
11, 44340, Note_on_c, 7, 71, 80
11, 44369, Note_on_c, 7, 71, 0
11, 44370, Note_on_c, 7, 69, 80
11, 44399, Note_on_c, 7, 69, 0
11, 44400, Note_on_c, 7, 67, 80
11, 44459, Note_on_c, 7, 67, 0
11, 44460, Note_on_c, 7, 71, 80
11, 44489, Note_on_c, 7, 71, 0
11, 44490, Note_on_c, 7, 69, 80
11, 44519, Note_on_c, 7, 69, 0
11, 44520, Note_on_c, 7, 67, 80
11, 44579, Note_on_c, 7, 67, 0
11, 44580, Note_on_c, 7, 67, 80
11, 44639, Note_on_c, 7, 67, 0
11, 44640, Note_on_c, 7, 69, 80
11, 44999, Note_on_c, 7, 69, 0
11, 45030, Note_on_c, 7, 66, 80
11, 45059, Note_on_c, 7, 66, 0
11, 45060, Note_on_c, 7, 67, 80
11, 45089, Note_on_c, 7, 67, 0
11, 45090, Note_on_c, 7, 69, 80
11, 45119, Note_on_c, 7, 69, 0
11, 45120, Note_on_c, 7, 71, 80
11, 45149, Note_on_c, 7, 71, 0
11, 45150, Note_on_c, 7, 73, 80
11, 45179, Note_on_c, 7, 73, 0
11, 45180, Note_on_c, 7, 74, 80
11, 45209, Note_on_c, 7, 74, 0
11, 45210, Note_on_c, 7, 76, 80
11, 45239, Note_on_c, 7, 76, 0
11, 45240, Note_on_c, 7, 78, 80
11, 45299, Note_on_c, 7, 78, 0
11, 45510, Note_on_c, 7, 81, 80
11, 45539, Note_on_c, 7, 81, 0
11, 45540, Note_on_c, 7, 79, 80
11, 45569, Note_on_c, 7, 79, 0
11, 45570, Note_on_c, 7, 78, 80
11, 45599, Note_on_c, 7, 78, 0
11, 45600, Note_on_c, 7, 76, 80
11, 45629, Note_on_c, 7, 76, 0
11, 45630, Note_on_c, 7, 74, 80
11, 45659, Note_on_c, 7, 74, 0
11, 45660, Note_on_c, 7, 73, 80
11, 45689, Note_on_c, 7, 73, 0
11, 45690, Note_on_c, 7, 71, 80
11, 45719, Note_on_c, 7, 71, 0
11, 45720, Note_on_c, 7, 69, 80
11, 45779, Note_on_c, 7, 69, 0
11, 45870, Note_on_c, 7, 79, 80
11, 45899, Note_on_c, 7, 79, 0
11, 45900, Note_on_c, 7, 78, 80
11, 45929, Note_on_c, 7, 78, 0
11, 45930, Note_on_c, 7, 76, 80
11, 45959, Note_on_c, 7, 76, 0
11, 45960, Note_on_c, 7, 74, 80
11, 45989, Note_on_c, 7, 74, 0
11, 45990, Note_on_c, 7, 73, 80
11, 46019, Note_on_c, 7, 73, 0
11, 46020, Note_on_c, 7, 71, 80
11, 46049, Note_on_c, 7, 71, 0
11, 46050, Note_on_c, 7, 69, 80
11, 46079, Note_on_c, 7, 69, 0
11, 46080, Note_on_c, 7, 67, 80
11, 46139, Note_on_c, 7, 67, 0
11, 46230, Note_on_c, 7, 78, 80
11, 46259, Note_on_c, 7, 78, 0
11, 46260, Note_on_c, 7, 76, 80
11, 46289, Note_on_c, 7, 76, 0
11, 46290, Note_on_c, 7, 74, 80
11, 46319, Note_on_c, 7, 74, 0
11, 46320, Note_on_c, 7, 73, 80
11, 46349, Note_on_c, 7, 73, 0
11, 46350, Note_on_c, 7, 71, 80
11, 46379, Note_on_c, 7, 71, 0
11, 46380, Note_on_c, 7, 69, 80
11, 46409, Note_on_c, 7, 69, 0
11, 46410, Note_on_c, 7, 67, 80
11, 46439, Note_on_c, 7, 67, 0
11, 46440, Note_on_c, 7, 66, 80
11, 46499, Note_on_c, 7, 66, 0
11, 46590, Note_on_c, 7, 76, 80
11, 46619, Note_on_c, 7, 76, 0
11, 46620, Note_on_c, 7, 74, 80
11, 46649, Note_on_c, 7, 74, 0
11, 46650, Note_on_c, 7, 73, 80
11, 46679, Note_on_c, 7, 73, 0
11, 46680, Note_on_c, 7, 71, 80
11, 46709, Note_on_c, 7, 71, 0
11, 46710, Note_on_c, 7, 69, 80
11, 46739, Note_on_c, 7, 69, 0
11, 46740, Note_on_c, 7, 68, 80
11, 46769, Note_on_c, 7, 68, 0
11, 46770, Note_on_c, 7, 66, 80
11, 46799, Note_on_c, 7, 66, 0
11, 46800, Note_on_c, 7, 68, 80
11, 46859, Note_on_c, 7, 68, 0
11, 46950, Note_on_c, 7, 76, 80
11, 46979, Note_on_c, 7, 76, 0
11, 46980, Note_on_c, 7, 74, 80
11, 47009, Note_on_c, 7, 74, 0
11, 47010, Note_on_c, 7, 72, 80
11, 47039, Note_on_c, 7, 72, 0
11, 47040, Note_on_c, 7, 71, 80
11, 47069, Note_on_c, 7, 71, 0
11, 47070, Note_on_c, 7, 69, 80
11, 47099, Note_on_c, 7, 69, 0
11, 47100, Note_on_c, 7, 68, 80
11, 47129, Note_on_c, 7, 68, 0
11, 47130, Note_on_c, 7, 66, 80
11, 47159, Note_on_c, 7, 66, 0
11, 47160, Note_on_c, 7, 64, 80
11, 47219, Note_on_c, 7, 64, 0
11, 47310, Note_on_c, 7, 73, 80
11, 47339, Note_on_c, 7, 73, 0
11, 47340, Note_on_c, 7, 71, 80
11, 47369, Note_on_c, 7, 71, 0
11, 47370, Note_on_c, 7, 69, 80
11, 47399, Note_on_c, 7, 69, 0
11, 47400, Note_on_c, 7, 68, 80
11, 47429, Note_on_c, 7, 68, 0
11, 47430, Note_on_c, 7, 66, 80
11, 47459, Note_on_c, 7, 66, 0
11, 47460, Note_on_c, 7, 64, 80
11, 47489, Note_on_c, 7, 64, 0
11, 47490, Note_on_c, 7, 62, 80
11, 47519, Note_on_c, 7, 62, 0
11, 47520, Note_on_c, 7, 69, 80
11, 47579, Note_on_c, 7, 69, 0
11, 47640, Note_on_c, 7, 73, 80
11, 47699, Note_on_c, 7, 73, 0
11, 47700, Note_on_c, 7, 69, 80
11, 47759, Note_on_c, 7, 69, 0
11, 48000, Note_on_c, 7, 74, 80
11, 48059, Note_on_c, 7, 74, 0
11, 48060, Note_on_c, 7, 69, 80
11, 48119, Note_on_c, 7, 69, 0
11, 48360, Note_on_c, 7, 73, 80
11, 48419, Note_on_c, 7, 73, 0
11, 48420, Note_on_c, 7, 69, 80
11, 48479, Note_on_c, 7, 69, 0
11, 48630, Note_on_c, 7, 66, 80
11, 48659, Note_on_c, 7, 66, 0
11, 48660, Note_on_c, 7, 67, 80
11, 48689, Note_on_c, 7, 67, 0
11, 48690, Note_on_c, 7, 69, 80
11, 48719, Note_on_c, 7, 69, 0
11, 48720, Note_on_c, 7, 71, 80
11, 48749, Note_on_c, 7, 71, 0
11, 48750, Note_on_c, 7, 73, 80
11, 48779, Note_on_c, 7, 73, 0
11, 48780, Note_on_c, 7, 74, 80
11, 48809, Note_on_c, 7, 74, 0
11, 48810, Note_on_c, 7, 76, 80
11, 48839, Note_on_c, 7, 76, 0
11, 48840, Note_on_c, 7, 78, 80
11, 48869, Note_on_c, 7, 78, 0
11, 48870, Note_on_c, 7, 76, 80
11, 48899, Note_on_c, 7, 76, 0
11, 48900, Note_on_c, 7, 78, 80
11, 48929, Note_on_c, 7, 78, 0
11, 48930, Note_on_c, 7, 76, 80
11, 48959, Note_on_c, 7, 76, 0
11, 48960, Note_on_c, 7, 74, 80
11, 49019, Note_on_c, 7, 74, 0
11, 49020, Note_on_c, 7, 74, 80
11, 49079, Note_on_c, 7, 74, 0
11, 49080, Note_on_c, 7, 74, 80
11, 49139, Note_on_c, 7, 74, 0
11, 49140, Note_on_c, 7, 74, 80
11, 49199, Note_on_c, 7, 74, 0
11, 49200, Note_on_c, 7, 74, 80
11, 49259, Note_on_c, 7, 74, 0
11, 49260, Note_on_c, 7, 74, 80
11, 49319, Note_on_c, 7, 74, 0
11, 49320, Note_on_c, 7, 74, 80
11, 49379, Note_on_c, 7, 74, 0
11, 49380, Note_on_c, 7, 74, 80
11, 49439, Note_on_c, 7, 74, 0
11, 49440, Note_on_c, 7, 76, 80
11, 49469, Note_on_c, 7, 76, 0
11, 49470, Note_on_c, 7, 78, 80
11, 49499, Note_on_c, 7, 78, 0
11, 49500, Note_on_c, 7, 76, 80
11, 49529, Note_on_c, 7, 76, 0
11, 49530, Note_on_c, 7, 78, 80
11, 49559, Note_on_c, 7, 78, 0
11, 49560, Note_on_c, 7, 79, 80
11, 49589, Note_on_c, 7, 79, 0
11, 49590, Note_on_c, 7, 81, 80
11, 49619, Note_on_c, 7, 81, 0
11, 49620, Note_on_c, 7, 78, 80
11, 49649, Note_on_c, 7, 78, 0
11, 49650, Note_on_c, 7, 79, 80
11, 49679, Note_on_c, 7, 79, 0
11, 49680, Note_on_c, 7, 81, 80
11, 49709, Note_on_c, 7, 81, 0
11, 49710, Note_on_c, 7, 79, 80
11, 49739, Note_on_c, 7, 79, 0
11, 49740, Note_on_c, 7, 78, 80
11, 49769, Note_on_c, 7, 78, 0
11, 49770, Note_on_c, 7, 76, 80
11, 49799, Note_on_c, 7, 76, 0
11, 49800, Note_on_c, 7, 74, 80
11, 49829, Note_on_c, 7, 74, 0
11, 49830, Note_on_c, 7, 73, 80
11, 49859, Note_on_c, 7, 73, 0
11, 49860, Note_on_c, 7, 74, 80
11, 49889, Note_on_c, 7, 74, 0
11, 49890, Note_on_c, 7, 71, 80
11, 49919, Note_on_c, 7, 71, 0
11, 49920, Note_on_c, 7, 73, 80
11, 50009, Note_on_c, 7, 73, 0
11, 50010, Note_on_c, 7, 74, 80
11, 50039, Note_on_c, 7, 74, 0
11, 50040, Note_on_c, 7, 74, 80
11, 50159, Note_on_c, 7, 74, 0
11, 50160, Note_on_c, 7, 69, 80
11, 50219, Note_on_c, 7, 69, 0
11, 50220, Note_on_c, 7, 66, 80
11, 50279, Note_on_c, 7, 66, 0
11, 50520, Note_on_c, 7, 71, 80
11, 50579, Note_on_c, 7, 71, 0
11, 50580, Note_on_c, 7, 66, 80
11, 50639, Note_on_c, 7, 66, 0
11, 50880, Note_on_c, 7, 66, 80
11, 50939, Note_on_c, 7, 66, 0
11, 50940, Note_on_c, 7, 62, 80
11, 50999, Note_on_c, 7, 62, 0
11, 51240, Note_on_c, 7, 67, 80
11, 51299, Note_on_c, 7, 67, 0
11, 51300, Note_on_c, 7, 62, 80
11, 51359, Note_on_c, 7, 62, 0
11, 51540, Note_on_c, 7, 74, 80
11, 51599, Note_on_c, 7, 74, 0
11, 51600, Note_on_c, 7, 69, 80
11, 51629, Note_on_c, 7, 69, 0
11, 51630, Note_on_c, 7, 67, 80
11, 51659, Note_on_c, 7, 67, 0
11, 51660, Note_on_c, 7, 66, 80
11, 51689, Note_on_c, 7, 66, 0
11, 51690, Note_on_c, 7, 64, 80
11, 51719, Note_on_c, 7, 64, 0
11, 51720, Note_on_c, 7, 66, 80
11, 51749, Note_on_c, 7, 66, 0
11, 51750, Note_on_c, 7, 62, 80
11, 51779, Note_on_c, 7, 62, 0
11, 51780, Note_on_c, 7, 64, 80
11, 51809, Note_on_c, 7, 64, 0
11, 51810, Note_on_c, 7, 69, 80
11, 51839, Note_on_c, 7, 69, 0
11, 51840, Note_on_c, 7, 73, 80
11, 51959, Note_on_c, 7, 73, 0
11, 51960, Note_on_c, 7, 73, 80
11, 52019, Note_on_c, 7, 73, 0
11, 52020, Note_on_c, 7, 69, 80
11, 52079, Note_on_c, 7, 69, 0
11, 52320, Note_on_c, 7, 74, 80
11, 52379, Note_on_c, 7, 74, 0
11, 52380, Note_on_c, 7, 69, 80
11, 52439, Note_on_c, 7, 69, 0
11, 52680, Note_on_c, 7, 73, 80
11, 52739, Note_on_c, 7, 73, 0
11, 52740, Note_on_c, 7, 69, 80
11, 52799, Note_on_c, 7, 69, 0
11, 52950, Note_on_c, 7, 66, 80
11, 52979, Note_on_c, 7, 66, 0
11, 52980, Note_on_c, 7, 67, 80
11, 53009, Note_on_c, 7, 67, 0
11, 53010, Note_on_c, 7, 69, 80
11, 53039, Note_on_c, 7, 69, 0
11, 53040, Note_on_c, 7, 71, 80
11, 53069, Note_on_c, 7, 71, 0
11, 53070, Note_on_c, 7, 73, 80
11, 53099, Note_on_c, 7, 73, 0
11, 53100, Note_on_c, 7, 74, 80
11, 53129, Note_on_c, 7, 74, 0
11, 53130, Note_on_c, 7, 76, 80
11, 53159, Note_on_c, 7, 76, 0
11, 53160, Note_on_c, 7, 78, 80
11, 53189, Note_on_c, 7, 78, 0
11, 53190, Note_on_c, 7, 76, 80
11, 53219, Note_on_c, 7, 76, 0
11, 53220, Note_on_c, 7, 78, 80
11, 53249, Note_on_c, 7, 78, 0
11, 53250, Note_on_c, 7, 76, 80
11, 53279, Note_on_c, 7, 76, 0
11, 53280, Note_on_c, 7, 74, 80
11, 53339, Note_on_c, 7, 74, 0
11, 53340, Note_on_c, 7, 74, 80
11, 53399, Note_on_c, 7, 74, 0
11, 53400, Note_on_c, 7, 74, 80
11, 53459, Note_on_c, 7, 74, 0
11, 53460, Note_on_c, 7, 74, 80
11, 53519, Note_on_c, 7, 74, 0
11, 53520, Note_on_c, 7, 74, 80
11, 53579, Note_on_c, 7, 74, 0
11, 53580, Note_on_c, 7, 74, 80
11, 53639, Note_on_c, 7, 74, 0
11, 53640, Note_on_c, 7, 74, 80
11, 53699, Note_on_c, 7, 74, 0
11, 53700, Note_on_c, 7, 74, 80
11, 53759, Note_on_c, 7, 74, 0
11, 53760, Note_on_c, 7, 76, 80
11, 53789, Note_on_c, 7, 76, 0
11, 53790, Note_on_c, 7, 78, 80
11, 53819, Note_on_c, 7, 78, 0
11, 53820, Note_on_c, 7, 76, 80
11, 53849, Note_on_c, 7, 76, 0
11, 53850, Note_on_c, 7, 78, 80
11, 53879, Note_on_c, 7, 78, 0
11, 53880, Note_on_c, 7, 79, 80
11, 53909, Note_on_c, 7, 79, 0
11, 53910, Note_on_c, 7, 81, 80
11, 53939, Note_on_c, 7, 81, 0
11, 53940, Note_on_c, 7, 78, 80
11, 53969, Note_on_c, 7, 78, 0
11, 53970, Note_on_c, 7, 79, 80
11, 53999, Note_on_c, 7, 79, 0
11, 54000, Note_on_c, 7, 81, 80
11, 54029, Note_on_c, 7, 81, 0
11, 54030, Note_on_c, 7, 79, 80
11, 54059, Note_on_c, 7, 79, 0
11, 54060, Note_on_c, 7, 78, 80
11, 54089, Note_on_c, 7, 78, 0
11, 54090, Note_on_c, 7, 76, 80
11, 54119, Note_on_c, 7, 76, 0
11, 54120, Note_on_c, 7, 74, 80
11, 54149, Note_on_c, 7, 74, 0
11, 54150, Note_on_c, 7, 73, 80
11, 54179, Note_on_c, 7, 73, 0
11, 54180, Note_on_c, 7, 74, 80
11, 54209, Note_on_c, 7, 74, 0
11, 54210, Note_on_c, 7, 71, 80
11, 54239, Note_on_c, 7, 71, 0
11, 54240, Note_on_c, 7, 73, 80
11, 54329, Note_on_c, 7, 73, 0
11, 54330, Note_on_c, 7, 74, 80
11, 54359, Note_on_c, 7, 74, 0
11, 54360, Note_on_c, 7, 74, 80
11, 54479, Note_on_c, 7, 74, 0
11, 55110, Note_on_c, 7, 62, 80
11, 55139, Note_on_c, 7, 62, 0
11, 55140, Note_on_c, 7, 64, 80
11, 55169, Note_on_c, 7, 64, 0
11, 55170, Note_on_c, 7, 66, 80
11, 55199, Note_on_c, 7, 66, 0
11, 55200, Note_on_c, 7, 67, 80
11, 55229, Note_on_c, 7, 67, 0
11, 55230, Note_on_c, 7, 69, 80
11, 55259, Note_on_c, 7, 69, 0
11, 55260, Note_on_c, 7, 71, 80
11, 55289, Note_on_c, 7, 71, 0
11, 55290, Note_on_c, 7, 73, 80
11, 55319, Note_on_c, 7, 73, 0
11, 55320, Note_on_c, 7, 74, 80
11, 55349, Note_on_c, 7, 74, 0
11, 55350, Note_on_c, 7, 73, 80
11, 55379, Note_on_c, 7, 73, 0
11, 55380, Note_on_c, 7, 74, 80
11, 55409, Note_on_c, 7, 74, 0
11, 55410, Note_on_c, 7, 73, 80
11, 55439, Note_on_c, 7, 73, 0
11, 55440, Note_on_c, 7, 74, 80
11, 55469, Note_on_c, 7, 74, 0
11, 55470, Note_on_c, 7, 78, 80
11, 55499, Note_on_c, 7, 78, 0
11, 55500, Note_on_c, 7, 76, 80
11, 55529, Note_on_c, 7, 76, 0
11, 55530, Note_on_c, 7, 74, 80
11, 55559, Note_on_c, 7, 74, 0
11, 55560, Note_on_c, 7, 73, 80
11, 55589, Note_on_c, 7, 73, 0
11, 55590, Note_on_c, 7, 71, 80
11, 55619, Note_on_c, 7, 71, 0
11, 55620, Note_on_c, 7, 69, 80
11, 55649, Note_on_c, 7, 69, 0
11, 55650, Note_on_c, 7, 67, 80
11, 55679, Note_on_c, 7, 67, 0
11, 55680, Note_on_c, 7, 66, 80
11, 55709, Note_on_c, 7, 66, 0
11, 55710, Note_on_c, 7, 67, 80
11, 55739, Note_on_c, 7, 67, 0
11, 55740, Note_on_c, 7, 66, 80
11, 55769, Note_on_c, 7, 66, 0
11, 55770, Note_on_c, 7, 67, 80
11, 55799, Note_on_c, 7, 67, 0
11, 55800, Note_on_c, 7, 66, 80
11, 55829, Note_on_c, 7, 66, 0
11, 55830, Note_on_c, 7, 66, 80
11, 55859, Note_on_c, 7, 66, 0
11, 55860, Note_on_c, 7, 67, 80
11, 55889, Note_on_c, 7, 67, 0
11, 55890, Note_on_c, 7, 69, 80
11, 55919, Note_on_c, 7, 69, 0
11, 55920, Note_on_c, 7, 71, 80
11, 55949, Note_on_c, 7, 71, 0
11, 55950, Note_on_c, 7, 73, 80
11, 55979, Note_on_c, 7, 73, 0
11, 55980, Note_on_c, 7, 74, 80
11, 56009, Note_on_c, 7, 74, 0
11, 56010, Note_on_c, 7, 76, 80
11, 56039, Note_on_c, 7, 76, 0
11, 56040, Note_on_c, 7, 78, 80
11, 56069, Note_on_c, 7, 78, 0
11, 56070, Note_on_c, 7, 76, 80
11, 56099, Note_on_c, 7, 76, 0
11, 56100, Note_on_c, 7, 78, 80
11, 56129, Note_on_c, 7, 78, 0
11, 56130, Note_on_c, 7, 76, 80
11, 56159, Note_on_c, 7, 76, 0
11, 56160, Note_on_c, 7, 74, 80
11, 56219, Note_on_c, 7, 74, 0
11, 56220, Note_on_c, 7, 73, 80
11, 56249, Note_on_c, 7, 73, 0
11, 56250, Note_on_c, 7, 71, 80
11, 56279, Note_on_c, 7, 71, 0
11, 56280, Note_on_c, 7, 69, 80
11, 56309, Note_on_c, 7, 69, 0
11, 56310, Note_on_c, 7, 67, 80
11, 56339, Note_on_c, 7, 67, 0
11, 56340, Note_on_c, 7, 66, 80
11, 56369, Note_on_c, 7, 66, 0
11, 56370, Note_on_c, 7, 64, 80
11, 56399, Note_on_c, 7, 64, 0
11, 56400, Note_on_c, 7, 62, 80
11, 56459, Note_on_c, 7, 62, 0
11, 56460, Note_on_c, 7, 71, 80
11, 56519, Note_on_c, 7, 71, 0
11, 56520, Note_on_c, 7, 76, 80
11, 56549, Note_on_c, 7, 76, 0
11, 56550, Note_on_c, 7, 78, 80
11, 56579, Note_on_c, 7, 78, 0
11, 56580, Note_on_c, 7, 76, 80
11, 56609, Note_on_c, 7, 76, 0
11, 56610, Note_on_c, 7, 78, 80
11, 56639, Note_on_c, 7, 78, 0
11, 56640, Note_on_c, 7, 80, 80
11, 56669, Note_on_c, 7, 80, 0
11, 56670, Note_on_c, 7, 81, 80
11, 56699, Note_on_c, 7, 81, 0
11, 56700, Note_on_c, 7, 80, 80
11, 56729, Note_on_c, 7, 80, 0
11, 56730, Note_on_c, 7, 81, 80
11, 56759, Note_on_c, 7, 81, 0
11, 56760, Note_on_c, 7, 83, 80
11, 56789, Note_on_c, 7, 83, 0
11, 56790, Note_on_c, 7, 85, 80
11, 56819, Note_on_c, 7, 85, 0
11, 56820, Note_on_c, 7, 81, 80
11, 56849, Note_on_c, 7, 81, 0
11, 56850, Note_on_c, 7, 83, 80
11, 56879, Note_on_c, 7, 83, 0
11, 56880, Note_on_c, 7, 85, 80
11, 56909, Note_on_c, 7, 85, 0
11, 56910, Note_on_c, 7, 86, 80
11, 56939, Note_on_c, 7, 86, 0
11, 56940, Note_on_c, 7, 85, 80
11, 56969, Note_on_c, 7, 85, 0
11, 56970, Note_on_c, 7, 83, 80
11, 56999, Note_on_c, 7, 83, 0
11, 57000, Note_on_c, 7, 81, 80
11, 57029, Note_on_c, 7, 81, 0
11, 57030, Note_on_c, 7, 80, 80
11, 57059, Note_on_c, 7, 80, 0
11, 57060, Note_on_c, 7, 81, 80
11, 57089, Note_on_c, 7, 81, 0
11, 57090, Note_on_c, 7, 78, 80
11, 57119, Note_on_c, 7, 78, 0
11, 57120, Note_on_c, 7, 80, 80
11, 57209, Note_on_c, 7, 80, 0
11, 57210, Note_on_c, 7, 81, 80
11, 57239, Note_on_c, 7, 81, 0
11, 57240, Note_on_c, 7, 81, 80
11, 57359, Note_on_c, 7, 81, 0
11, 57390, Note_on_c, 7, 83, 80
11, 57419, Note_on_c, 7, 83, 0
11, 57420, Note_on_c, 7, 81, 80
11, 57449, Note_on_c, 7, 81, 0
11, 57450, Note_on_c, 7, 80, 80
11, 57479, Note_on_c, 7, 80, 0
11, 57480, Note_on_c, 7, 78, 80
11, 57509, Note_on_c, 7, 78, 0
11, 57510, Note_on_c, 7, 76, 80
11, 57539, Note_on_c, 7, 76, 0
11, 57540, Note_on_c, 7, 75, 80
11, 57569, Note_on_c, 7, 75, 0
11, 57570, Note_on_c, 7, 73, 80
11, 57599, Note_on_c, 7, 73, 0
11, 57600, Note_on_c, 7, 75, 80
11, 57659, Note_on_c, 7, 75, 0
11, 57750, Note_on_c, 7, 83, 80
11, 57779, Note_on_c, 7, 83, 0
11, 57780, Note_on_c, 7, 81, 80
11, 57809, Note_on_c, 7, 81, 0
11, 57810, Note_on_c, 7, 80, 80
11, 57839, Note_on_c, 7, 80, 0
11, 57840, Note_on_c, 7, 78, 80
11, 57869, Note_on_c, 7, 78, 0
11, 57870, Note_on_c, 7, 76, 80
11, 57899, Note_on_c, 7, 76, 0
11, 57900, Note_on_c, 7, 75, 80
11, 57929, Note_on_c, 7, 75, 0
11, 57930, Note_on_c, 7, 73, 80
11, 57959, Note_on_c, 7, 73, 0
11, 57960, Note_on_c, 7, 71, 80
11, 58019, Note_on_c, 7, 71, 0
11, 58110, Note_on_c, 7, 80, 80
11, 58139, Note_on_c, 7, 80, 0
11, 58140, Note_on_c, 7, 78, 80
11, 58169, Note_on_c, 7, 78, 0
11, 58170, Note_on_c, 7, 76, 80
11, 58199, Note_on_c, 7, 76, 0
11, 58200, Note_on_c, 7, 75, 80
11, 58229, Note_on_c, 7, 75, 0
11, 58230, Note_on_c, 7, 73, 80
11, 58259, Note_on_c, 7, 73, 0
11, 58260, Note_on_c, 7, 71, 80
11, 58289, Note_on_c, 7, 71, 0
11, 58290, Note_on_c, 7, 69, 80
11, 58319, Note_on_c, 7, 69, 0
11, 58320, Note_on_c, 7, 76, 80
11, 58379, Note_on_c, 7, 76, 0
11, 58440, Note_on_c, 7, 71, 80
11, 58499, Note_on_c, 7, 71, 0
11, 58500, Note_on_c, 7, 68, 80
11, 58559, Note_on_c, 7, 68, 0
11, 58800, Note_on_c, 7, 73, 80
11, 58859, Note_on_c, 7, 73, 0
11, 58860, Note_on_c, 7, 69, 80
11, 58919, Note_on_c, 7, 69, 0
11, 59160, Note_on_c, 7, 71, 80
11, 59219, Note_on_c, 7, 71, 0
11, 59220, Note_on_c, 7, 68, 80
11, 59279, Note_on_c, 7, 68, 0
11, 59790, Note_on_c, 7, 69, 80
11, 59819, Note_on_c, 7, 69, 0
11, 59820, Note_on_c, 7, 71, 80
11, 59849, Note_on_c, 7, 71, 0
11, 59850, Note_on_c, 7, 73, 80
11, 59879, Note_on_c, 7, 73, 0
11, 59880, Note_on_c, 7, 74, 80
11, 59909, Note_on_c, 7, 74, 0
11, 59910, Note_on_c, 7, 76, 80
11, 59939, Note_on_c, 7, 76, 0
11, 59940, Note_on_c, 7, 78, 80
11, 59969, Note_on_c, 7, 78, 0
11, 59970, Note_on_c, 7, 80, 80
11, 59999, Note_on_c, 7, 80, 0
11, 60000, Note_on_c, 7, 81, 80
11, 60029, Note_on_c, 7, 81, 0
11, 60030, Note_on_c, 7, 80, 80
11, 60059, Note_on_c, 7, 80, 0
11, 60060, Note_on_c, 7, 81, 80
11, 60089, Note_on_c, 7, 81, 0
11, 60090, Note_on_c, 7, 80, 80
11, 60119, Note_on_c, 7, 80, 0
11, 60120, Note_on_c, 7, 78, 80
11, 60149, Note_on_c, 7, 78, 0
11, 60150, Note_on_c, 7, 76, 80
11, 60179, Note_on_c, 7, 76, 0
11, 60180, Note_on_c, 7, 78, 80
11, 60209, Note_on_c, 7, 78, 0
11, 60210, Note_on_c, 7, 76, 80
11, 60239, Note_on_c, 7, 76, 0
11, 60240, Note_on_c, 7, 74, 80
11, 60269, Note_on_c, 7, 74, 0
11, 60270, Note_on_c, 7, 73, 80
11, 60299, Note_on_c, 7, 73, 0
11, 60300, Note_on_c, 7, 74, 80
11, 60329, Note_on_c, 7, 74, 0
11, 60330, Note_on_c, 7, 73, 80
11, 60359, Note_on_c, 7, 73, 0
11, 60360, Note_on_c, 7, 71, 80
11, 60389, Note_on_c, 7, 71, 0
11, 60390, Note_on_c, 7, 69, 80
11, 60419, Note_on_c, 7, 69, 0
11, 60420, Note_on_c, 7, 71, 80
11, 60449, Note_on_c, 7, 71, 0
11, 60450, Note_on_c, 7, 69, 80
11, 60479, Note_on_c, 7, 69, 0
11, 60480, Note_on_c, 7, 74, 80
11, 60539, Note_on_c, 7, 74, 0
11, 60540, Note_on_c, 7, 76, 80
11, 60569, Note_on_c, 7, 76, 0
11, 60570, Note_on_c, 7, 74, 80
11, 60599, Note_on_c, 7, 74, 0
11, 60600, Note_on_c, 7, 73, 80
11, 60629, Note_on_c, 7, 73, 0
11, 60630, Note_on_c, 7, 71, 80
11, 60659, Note_on_c, 7, 71, 0
11, 60660, Note_on_c, 7, 69, 80
11, 60689, Note_on_c, 7, 69, 0
11, 60690, Note_on_c, 7, 71, 80
11, 60719, Note_on_c, 7, 71, 0
11, 60720, Note_on_c, 7, 71, 80
11, 60809, Note_on_c, 7, 71, 0
11, 60810, Note_on_c, 7, 69, 80
11, 60839, Note_on_c, 7, 69, 0
11, 60840, Note_on_c, 7, 69, 80
11, 60959, Note_on_c, 7, 69, 0
11, 61230, Note_on_c, 7, 66, 80
11, 61259, Note_on_c, 7, 66, 0
11, 61260, Note_on_c, 7, 67, 80
11, 61289, Note_on_c, 7, 67, 0
11, 61290, Note_on_c, 7, 69, 80
11, 61319, Note_on_c, 7, 69, 0
11, 61320, Note_on_c, 7, 71, 80
11, 61349, Note_on_c, 7, 71, 0
11, 61350, Note_on_c, 7, 73, 80
11, 61379, Note_on_c, 7, 73, 0
11, 61380, Note_on_c, 7, 75, 80
11, 61409, Note_on_c, 7, 75, 0
11, 61410, Note_on_c, 7, 76, 80
11, 61439, Note_on_c, 7, 76, 0
11, 61440, Note_on_c, 7, 78, 80
11, 61469, Note_on_c, 7, 78, 0
11, 61470, Note_on_c, 7, 76, 80
11, 61499, Note_on_c, 7, 76, 0
11, 61500, Note_on_c, 7, 78, 80
11, 61529, Note_on_c, 7, 78, 0
11, 61530, Note_on_c, 7, 76, 80
11, 61559, Note_on_c, 7, 76, 0
11, 61560, Note_on_c, 7, 75, 80
11, 61589, Note_on_c, 7, 75, 0
11, 61590, Note_on_c, 7, 63, 80
11, 61619, Note_on_c, 7, 63, 0
11, 61620, Note_on_c, 7, 64, 80
11, 61649, Note_on_c, 7, 64, 0
11, 61650, Note_on_c, 7, 66, 80
11, 61679, Note_on_c, 7, 66, 0
11, 61680, Note_on_c, 7, 67, 80
11, 61709, Note_on_c, 7, 67, 0
11, 61710, Note_on_c, 7, 69, 80
11, 61739, Note_on_c, 7, 69, 0
11, 61740, Note_on_c, 7, 71, 80
11, 61769, Note_on_c, 7, 71, 0
11, 61770, Note_on_c, 7, 73, 80
11, 61799, Note_on_c, 7, 73, 0
11, 61800, Note_on_c, 7, 75, 80
11, 61829, Note_on_c, 7, 75, 0
11, 61830, Note_on_c, 7, 76, 80
11, 61859, Note_on_c, 7, 76, 0
11, 61860, Note_on_c, 7, 73, 80
11, 61889, Note_on_c, 7, 73, 0
11, 61890, Note_on_c, 7, 75, 80
11, 61919, Note_on_c, 7, 75, 0
11, 61920, Note_on_c, 7, 76, 80
11, 61979, Note_on_c, 7, 76, 0
11, 61980, Note_on_c, 7, 67, 80
11, 62039, Note_on_c, 7, 67, 0
11, 62040, Note_on_c, 7, 67, 80
11, 62099, Note_on_c, 7, 67, 0
11, 62100, Note_on_c, 7, 67, 80
11, 62159, Note_on_c, 7, 67, 0
11, 62160, Note_on_c, 7, 67, 80
11, 62219, Note_on_c, 7, 67, 0
11, 62220, Note_on_c, 7, 64, 80
11, 62249, Note_on_c, 7, 64, 0
11, 62250, Note_on_c, 7, 66, 80
11, 62279, Note_on_c, 7, 66, 0
11, 62280, Note_on_c, 7, 67, 80
11, 62339, Note_on_c, 7, 67, 0
11, 62340, Note_on_c, 7, 71, 80
11, 62369, Note_on_c, 7, 71, 0
11, 62370, Note_on_c, 7, 69, 80
11, 62399, Note_on_c, 7, 69, 0
11, 62400, Note_on_c, 7, 67, 80
11, 62459, Note_on_c, 7, 67, 0
11, 62460, Note_on_c, 7, 71, 80
11, 62489, Note_on_c, 7, 71, 0
11, 62490, Note_on_c, 7, 69, 80
11, 62519, Note_on_c, 7, 69, 0
11, 62520, Note_on_c, 7, 67, 80
11, 62579, Note_on_c, 7, 67, 0
11, 62580, Note_on_c, 7, 67, 80
11, 62639, Note_on_c, 7, 67, 0
11, 62640, Note_on_c, 7, 67, 80
11, 62999, Note_on_c, 7, 67, 0
11, 63030, Note_on_c, 7, 66, 80
11, 63059, Note_on_c, 7, 66, 0
11, 63060, Note_on_c, 7, 67, 80
11, 63089, Note_on_c, 7, 67, 0
11, 63090, Note_on_c, 7, 69, 80
11, 63119, Note_on_c, 7, 69, 0
11, 63120, Note_on_c, 7, 71, 80
11, 63149, Note_on_c, 7, 71, 0
11, 63150, Note_on_c, 7, 73, 80
11, 63179, Note_on_c, 7, 73, 0
11, 63180, Note_on_c, 7, 74, 80
11, 63209, Note_on_c, 7, 74, 0
11, 63210, Note_on_c, 7, 76, 80
11, 63239, Note_on_c, 7, 76, 0
11, 63240, Note_on_c, 7, 78, 80
11, 63299, Note_on_c, 7, 78, 0
11, 63510, Note_on_c, 7, 81, 80
11, 63539, Note_on_c, 7, 81, 0
11, 63540, Note_on_c, 7, 79, 80
11, 63569, Note_on_c, 7, 79, 0
11, 63570, Note_on_c, 7, 78, 80
11, 63599, Note_on_c, 7, 78, 0
11, 63600, Note_on_c, 7, 76, 80
11, 63629, Note_on_c, 7, 76, 0
11, 63630, Note_on_c, 7, 74, 80
11, 63659, Note_on_c, 7, 74, 0
11, 63660, Note_on_c, 7, 73, 80
11, 63689, Note_on_c, 7, 73, 0
11, 63690, Note_on_c, 7, 71, 80
11, 63719, Note_on_c, 7, 71, 0
11, 63720, Note_on_c, 7, 69, 80
11, 63779, Note_on_c, 7, 69, 0
11, 63870, Note_on_c, 7, 79, 80
11, 63899, Note_on_c, 7, 79, 0
11, 63900, Note_on_c, 7, 78, 80
11, 63929, Note_on_c, 7, 78, 0
11, 63930, Note_on_c, 7, 76, 80
11, 63959, Note_on_c, 7, 76, 0
11, 63960, Note_on_c, 7, 74, 80
11, 63989, Note_on_c, 7, 74, 0
11, 63990, Note_on_c, 7, 73, 80
11, 64019, Note_on_c, 7, 73, 0
11, 64020, Note_on_c, 7, 71, 80
11, 64049, Note_on_c, 7, 71, 0
11, 64050, Note_on_c, 7, 69, 80
11, 64079, Note_on_c, 7, 69, 0
11, 64080, Note_on_c, 7, 67, 80
11, 64139, Note_on_c, 7, 67, 0
11, 64230, Note_on_c, 7, 78, 80
11, 64259, Note_on_c, 7, 78, 0
11, 64260, Note_on_c, 7, 76, 80
11, 64289, Note_on_c, 7, 76, 0
11, 64290, Note_on_c, 7, 74, 80
11, 64319, Note_on_c, 7, 74, 0
11, 64320, Note_on_c, 7, 73, 80
11, 64349, Note_on_c, 7, 73, 0
11, 64350, Note_on_c, 7, 71, 80
11, 64379, Note_on_c, 7, 71, 0
11, 64380, Note_on_c, 7, 69, 80
11, 64409, Note_on_c, 7, 69, 0
11, 64410, Note_on_c, 7, 67, 80
11, 64439, Note_on_c, 7, 67, 0
11, 64440, Note_on_c, 7, 66, 80
11, 64499, Note_on_c, 7, 66, 0
11, 64590, Note_on_c, 7, 76, 80
11, 64619, Note_on_c, 7, 76, 0
11, 64620, Note_on_c, 7, 74, 80
11, 64649, Note_on_c, 7, 74, 0
11, 64650, Note_on_c, 7, 73, 80
11, 64679, Note_on_c, 7, 73, 0
11, 64680, Note_on_c, 7, 71, 80
11, 64709, Note_on_c, 7, 71, 0
11, 64710, Note_on_c, 7, 69, 80
11, 64739, Note_on_c, 7, 69, 0
11, 64740, Note_on_c, 7, 68, 80
11, 64769, Note_on_c, 7, 68, 0
11, 64770, Note_on_c, 7, 66, 80
11, 64799, Note_on_c, 7, 66, 0
11, 64800, Note_on_c, 7, 68, 80
11, 64859, Note_on_c, 7, 68, 0
11, 64950, Note_on_c, 7, 76, 80
11, 64979, Note_on_c, 7, 76, 0
11, 64980, Note_on_c, 7, 74, 80
11, 65009, Note_on_c, 7, 74, 0
11, 65010, Note_on_c, 7, 72, 80
11, 65039, Note_on_c, 7, 72, 0
11, 65040, Note_on_c, 7, 71, 80
11, 65069, Note_on_c, 7, 71, 0
11, 65070, Note_on_c, 7, 69, 80
11, 65099, Note_on_c, 7, 69, 0
11, 65100, Note_on_c, 7, 68, 80
11, 65129, Note_on_c, 7, 68, 0
11, 65130, Note_on_c, 7, 66, 80
11, 65159, Note_on_c, 7, 66, 0
11, 65160, Note_on_c, 7, 64, 80
11, 65220, Note_on_c, 7, 64, 0
11, 65310, Note_on_c, 7, 73, 80
11, 65339, Note_on_c, 7, 73, 0
11, 65340, Note_on_c, 7, 71, 80
11, 65369, Note_on_c, 7, 71, 0
11, 65370, Note_on_c, 7, 69, 80
11, 65399, Note_on_c, 7, 69, 0
11, 65400, Note_on_c, 7, 68, 80
11, 65429, Note_on_c, 7, 68, 0
11, 65430, Note_on_c, 7, 66, 80
11, 65459, Note_on_c, 7, 66, 0
11, 65460, Note_on_c, 7, 64, 80
11, 65489, Note_on_c, 7, 64, 0
11, 65490, Note_on_c, 7, 62, 80
11, 65519, Note_on_c, 7, 62, 0
11, 65520, Note_on_c, 7, 69, 80
11, 65579, Note_on_c, 7, 69, 0
11, 65640, Note_on_c, 7, 73, 80
11, 65699, Note_on_c, 7, 73, 0
11, 65700, Note_on_c, 7, 69, 80
11, 65759, Note_on_c, 7, 69, 0
11, 66000, Note_on_c, 7, 74, 80
11, 66059, Note_on_c, 7, 74, 0
11, 66060, Note_on_c, 7, 69, 80
11, 66119, Note_on_c, 7, 69, 0
11, 66360, Note_on_c, 7, 73, 80
11, 66419, Note_on_c, 7, 73, 0
11, 66420, Note_on_c, 7, 69, 80
11, 66479, Note_on_c, 7, 69, 0
11, 66630, Note_on_c, 7, 66, 80
11, 66659, Note_on_c, 7, 66, 0
11, 66660, Note_on_c, 7, 67, 80
11, 66689, Note_on_c, 7, 67, 0
11, 66690, Note_on_c, 7, 69, 80
11, 66719, Note_on_c, 7, 69, 0
11, 66720, Note_on_c, 7, 71, 80
11, 66749, Note_on_c, 7, 71, 0
11, 66750, Note_on_c, 7, 73, 80
11, 66779, Note_on_c, 7, 73, 0
11, 66780, Note_on_c, 7, 74, 80
11, 66809, Note_on_c, 7, 74, 0
11, 66810, Note_on_c, 7, 76, 80
11, 66839, Note_on_c, 7, 76, 0
11, 66840, Note_on_c, 7, 78, 80
11, 66869, Note_on_c, 7, 78, 0
11, 66870, Note_on_c, 7, 76, 80
11, 66899, Note_on_c, 7, 76, 0
11, 66900, Note_on_c, 7, 78, 80
11, 66929, Note_on_c, 7, 78, 0
11, 66930, Note_on_c, 7, 76, 80
11, 66959, Note_on_c, 7, 76, 0
11, 66960, Note_on_c, 7, 74, 80
11, 67019, Note_on_c, 7, 74, 0
11, 67020, Note_on_c, 7, 74, 80
11, 67079, Note_on_c, 7, 74, 0
11, 67080, Note_on_c, 7, 74, 80
11, 67139, Note_on_c, 7, 74, 0
11, 67140, Note_on_c, 7, 74, 80
11, 67199, Note_on_c, 7, 74, 0
11, 67200, Note_on_c, 7, 74, 80
11, 67259, Note_on_c, 7, 74, 0
11, 67260, Note_on_c, 7, 74, 80
11, 67319, Note_on_c, 7, 74, 0
11, 67320, Note_on_c, 7, 74, 80
11, 67379, Note_on_c, 7, 74, 0
11, 67380, Note_on_c, 7, 74, 80
11, 67439, Note_on_c, 7, 74, 0
11, 67440, Note_on_c, 7, 76, 80
11, 67469, Note_on_c, 7, 76, 0
11, 67470, Note_on_c, 7, 78, 80
11, 67499, Note_on_c, 7, 78, 0
11, 67500, Note_on_c, 7, 76, 80
11, 67529, Note_on_c, 7, 76, 0
11, 67530, Note_on_c, 7, 78, 80
11, 67559, Note_on_c, 7, 78, 0
11, 67560, Note_on_c, 7, 79, 80
11, 67589, Note_on_c, 7, 79, 0
11, 67590, Note_on_c, 7, 81, 80
11, 67619, Note_on_c, 7, 81, 0
11, 67620, Note_on_c, 7, 78, 80
11, 67649, Note_on_c, 7, 78, 0
11, 67650, Note_on_c, 7, 79, 80
11, 67679, Note_on_c, 7, 79, 0
11, 67680, Note_on_c, 7, 81, 80
11, 67709, Note_on_c, 7, 81, 0
11, 67710, Note_on_c, 7, 79, 80
11, 67739, Note_on_c, 7, 79, 0
11, 67740, Note_on_c, 7, 78, 80
11, 67769, Note_on_c, 7, 78, 0
11, 67770, Note_on_c, 7, 76, 80
11, 67799, Note_on_c, 7, 76, 0
11, 67800, Note_on_c, 7, 74, 80
11, 67829, Note_on_c, 7, 74, 0
11, 67830, Note_on_c, 7, 73, 80
11, 67859, Note_on_c, 7, 73, 0
11, 67860, Note_on_c, 7, 74, 80
11, 67889, Note_on_c, 7, 74, 0
11, 67890, Note_on_c, 7, 71, 80
11, 67919, Note_on_c, 7, 71, 0
11, 67920, Note_on_c, 7, 73, 80
11, 68009, Note_on_c, 7, 73, 0
11, 68010, Note_on_c, 7, 74, 80
11, 68039, Note_on_c, 7, 74, 0
11, 68040, Note_on_c, 7, 74, 80
11, 68159, Note_on_c, 7, 74, 0
11, 68160, Note_on_c, 7, 74, 80
11, 68219, Note_on_c, 7, 74, 0
11, 68220, Note_on_c, 7, 69, 80
11, 68279, Note_on_c, 7, 69, 0
11, 68520, Note_on_c, 7, 71, 80
11, 68579, Note_on_c, 7, 71, 0
11, 68580, Note_on_c, 7, 67, 80
11, 68639, Note_on_c, 7, 67, 0
11, 68880, Note_on_c, 7, 69, 80
11, 68939, Note_on_c, 7, 69, 0
11, 68940, Note_on_c, 7, 66, 80
11, 68999, Note_on_c, 7, 66, 0
11, 69180, Note_on_c, 7, 74, 80
11, 69239, Note_on_c, 7, 74, 0
11, 69240, Note_on_c, 7, 76, 80
11, 69269, Note_on_c, 7, 76, 0
11, 69270, Note_on_c, 7, 78, 80
11, 69299, Note_on_c, 7, 78, 0
11, 69300, Note_on_c, 7, 76, 80
11, 69329, Note_on_c, 7, 76, 0
11, 69330, Note_on_c, 7, 78, 80
11, 69359, Note_on_c, 7, 78, 0
11, 69360, Note_on_c, 7, 79, 80
11, 69389, Note_on_c, 7, 79, 0
11, 69390, Note_on_c, 7, 81, 80
11, 69419, Note_on_c, 7, 81, 0
11, 69420, Note_on_c, 7, 78, 80
11, 69449, Note_on_c, 7, 78, 0
11, 69450, Note_on_c, 7, 79, 80
11, 69479, Note_on_c, 7, 79, 0
11, 69480, Note_on_c, 7, 81, 80
11, 69509, Note_on_c, 7, 81, 0
11, 69510, Note_on_c, 7, 79, 80
11, 69539, Note_on_c, 7, 79, 0
11, 69540, Note_on_c, 7, 78, 80
11, 69569, Note_on_c, 7, 78, 0
11, 69570, Note_on_c, 7, 76, 80
11, 69599, Note_on_c, 7, 76, 0
11, 69600, Note_on_c, 7, 74, 80
11, 69629, Note_on_c, 7, 74, 0
11, 69630, Note_on_c, 7, 73, 80
11, 69659, Note_on_c, 7, 73, 0
11, 69660, Note_on_c, 7, 74, 80
11, 69689, Note_on_c, 7, 74, 0
11, 69690, Note_on_c, 7, 71, 80
11, 69719, Note_on_c, 7, 71, 0
11, 69720, Note_on_c, 7, 73, 80
11, 69809, Note_on_c, 7, 73, 0
11, 69810, Note_on_c, 7, 74, 80
11, 69839, Note_on_c, 7, 74, 0
11, 69840, Note_on_c, 7, 74, 80
11, 69959, Note_on_c, 7, 74, 0
11, 70560, Note_on_c, 7, 74, 90
11, 70679, Note_on_c, 7, 74, 0
11, 71280, Note_on_c, 7, 79, 90
11, 71399, Note_on_c, 7, 79, 0
11, 71760, Note_on_c, 7, 72, 90
11, 71879, Note_on_c, 7, 72, 0
11, 72240, Note_on_c, 7, 71, 90
11, 72359, Note_on_c, 7, 71, 0
11, 72720, Note_on_c, 7, 67, 90
11, 72839, Note_on_c, 7, 67, 0
11, 72960, Note_on_c, 7, 67, 90
11, 73079, Note_on_c, 7, 67, 0
11, 73320, Note_on_c, 7, 74, 90
11, 73439, Note_on_c, 7, 74, 0
11, 73440, Note_on_c, 7, 74, 90
11, 73559, Note_on_c, 7, 74, 0
11, 73710, Note_on_c, 7, 76, 90
11, 73739, Note_on_c, 7, 76, 0
11, 73740, Note_on_c, 7, 76, 90
11, 73769, Note_on_c, 7, 76, 0
11, 73770, Note_on_c, 7, 76, 90
11, 73799, Note_on_c, 7, 76, 0
11, 73800, Note_on_c, 7, 76, 90
11, 73859, Note_on_c, 7, 76, 0
11, 74190, Note_on_c, 7, 78, 90
11, 74219, Note_on_c, 7, 78, 0
11, 74220, Note_on_c, 7, 78, 90
11, 74249, Note_on_c, 7, 78, 0
11, 74250, Note_on_c, 7, 78, 90
11, 74279, Note_on_c, 7, 78, 0
11, 74280, Note_on_c, 7, 78, 90
11, 74339, Note_on_c, 7, 78, 0
11, 74670, Note_on_c, 7, 70, 90
11, 74699, Note_on_c, 7, 70, 0
11, 74700, Note_on_c, 7, 70, 90
11, 74729, Note_on_c, 7, 70, 0
11, 74730, Note_on_c, 7, 70, 90
11, 74759, Note_on_c, 7, 70, 0
11, 74760, Note_on_c, 7, 70, 90
11, 74819, Note_on_c, 7, 70, 0
11, 74910, Note_on_c, 7, 66, 90
11, 74939, Note_on_c, 7, 66, 0
11, 74940, Note_on_c, 7, 66, 90
11, 74969, Note_on_c, 7, 66, 0
11, 74970, Note_on_c, 7, 71, 90
11, 74999, Note_on_c, 7, 71, 0
11, 75000, Note_on_c, 7, 74, 90
11, 75029, Note_on_c, 7, 74, 0
11, 75030, Note_on_c, 7, 71, 90
11, 75059, Note_on_c, 7, 71, 0
11, 75060, Note_on_c, 7, 74, 90
11, 75089, Note_on_c, 7, 74, 0
11, 75090, Note_on_c, 7, 78, 90
11, 75119, Note_on_c, 7, 78, 0
11, 75120, Note_on_c, 7, 78, 90
11, 75179, Note_on_c, 7, 78, 0
11, 75360, Note_on_c, 7, 74, 90
11, 75419, Note_on_c, 7, 74, 0
11, 75600, Note_on_c, 7, 73, 90
11, 75719, Note_on_c, 7, 73, 0
11, 76080, Note_on_c, 7, 75, 90
11, 76199, Note_on_c, 7, 75, 0
11, 76320, Note_on_c, 7, 74, 90
11, 76439, Note_on_c, 7, 74, 0
11, 76590, Note_on_c, 7, 66, 90
11, 76619, Note_on_c, 7, 66, 0
11, 76620, Note_on_c, 7, 69, 90
11, 76649, Note_on_c, 7, 69, 0
11, 76650, Note_on_c, 7, 74, 90
11, 76679, Note_on_c, 7, 74, 0
11, 76680, Note_on_c, 7, 69, 90
11, 76709, Note_on_c, 7, 69, 0
11, 76710, Note_on_c, 7, 73, 90
11, 76739, Note_on_c, 7, 73, 0
11, 76740, Note_on_c, 7, 76, 90
11, 76769, Note_on_c, 7, 76, 0
11, 76770, Note_on_c, 7, 79, 90
11, 76799, Note_on_c, 7, 79, 0
11, 76800, Note_on_c, 7, 78, 90
11, 76829, Note_on_c, 7, 78, 0
11, 76830, Note_on_c, 7, 78, 90
11, 76859, Note_on_c, 7, 78, 0
11, 76860, Note_on_c, 7, 74, 90
11, 76889, Note_on_c, 7, 74, 0
11, 76890, Note_on_c, 7, 74, 90
11, 76919, Note_on_c, 7, 74, 0
11, 76920, Note_on_c, 7, 74, 90
11, 76949, Note_on_c, 7, 74, 0
11, 76950, Note_on_c, 7, 74, 90
11, 76979, Note_on_c, 7, 74, 0
11, 76980, Note_on_c, 7, 69, 90
11, 77009, Note_on_c, 7, 69, 0
11, 77010, Note_on_c, 7, 69, 90
11, 77039, Note_on_c, 7, 69, 0
11, 77040, Note_on_c, 7, 74, 90
11, 77159, Note_on_c, 7, 74, 0
11, 77310, Note_on_c, 7, 74, 90
11, 77339, Note_on_c, 7, 74, 0
11, 77340, Note_on_c, 7, 74, 90
11, 77369, Note_on_c, 7, 74, 0
11, 77370, Note_on_c, 7, 74, 90
11, 77399, Note_on_c, 7, 74, 0
11, 77400, Note_on_c, 7, 74, 90
11, 77429, Note_on_c, 7, 74, 0
11, 77430, Note_on_c, 7, 74, 90
11, 77459, Note_on_c, 7, 74, 0
11, 77460, Note_on_c, 7, 74, 90
11, 77489, Note_on_c, 7, 74, 0
11, 77490, Note_on_c, 7, 74, 90
11, 77519, Note_on_c, 7, 74, 0
11, 77520, Note_on_c, 7, 74, 90
11, 77579, Note_on_c, 7, 74, 0
11, 77790, Note_on_c, 7, 73, 90
11, 77819, Note_on_c, 7, 73, 0
11, 77820, Note_on_c, 7, 73, 90
11, 77849, Note_on_c, 7, 73, 0
11, 77850, Note_on_c, 7, 73, 90
11, 77879, Note_on_c, 7, 73, 0
11, 77880, Note_on_c, 7, 73, 90
11, 77909, Note_on_c, 7, 73, 0
11, 77910, Note_on_c, 7, 73, 90
11, 77939, Note_on_c, 7, 73, 0
11, 77940, Note_on_c, 7, 73, 90
11, 77969, Note_on_c, 7, 73, 0
11, 77970, Note_on_c, 7, 73, 90
11, 77999, Note_on_c, 7, 73, 0
11, 78000, Note_on_c, 7, 74, 90
11, 78059, Note_on_c, 7, 74, 0
11, 78270, Note_on_c, 7, 73, 90
11, 78299, Note_on_c, 7, 73, 0
11, 78300, Note_on_c, 7, 73, 90
11, 78329, Note_on_c, 7, 73, 0
11, 78330, Note_on_c, 7, 73, 90
11, 78359, Note_on_c, 7, 73, 0
11, 78360, Note_on_c, 7, 71, 90
11, 78389, Note_on_c, 7, 71, 0
11, 78390, Note_on_c, 7, 64, 90
11, 78419, Note_on_c, 7, 64, 0
11, 78420, Note_on_c, 7, 64, 90
11, 78449, Note_on_c, 7, 64, 0
11, 78450, Note_on_c, 7, 64, 90
11, 78479, Note_on_c, 7, 64, 0
11, 78480, Note_on_c, 7, 64, 90
11, 78509, Note_on_c, 7, 64, 0
11, 78510, Note_on_c, 7, 64, 90
11, 78524, Note_on_c, 7, 64, 0
11, 78525, Note_on_c, 7, 69, 90
11, 78539, Note_on_c, 7, 69, 0
11, 78540, Note_on_c, 7, 73, 90
11, 78569, Note_on_c, 7, 73, 0
11, 78570, Note_on_c, 7, 69, 90
11, 78584, Note_on_c, 7, 69, 0
11, 78585, Note_on_c, 7, 73, 90
11, 78599, Note_on_c, 7, 73, 0
11, 78600, Note_on_c, 7, 76, 90
11, 78629, Note_on_c, 7, 76, 0
11, 78630, Note_on_c, 7, 73, 90
11, 78644, Note_on_c, 7, 73, 0
11, 78645, Note_on_c, 7, 76, 90
11, 78659, Note_on_c, 7, 76, 0
11, 78660, Note_on_c, 7, 81, 90
11, 78689, Note_on_c, 7, 81, 0
11, 78690, Note_on_c, 7, 76, 90
11, 78704, Note_on_c, 7, 76, 0
11, 78705, Note_on_c, 7, 81, 90
11, 78719, Note_on_c, 7, 81, 0
11, 78720, Note_on_c, 7, 85, 90
11, 78839, Note_on_c, 7, 85, 0
11, 78990, Note_on_c, 7, 73, 90
11, 79019, Note_on_c, 7, 73, 0
11, 79020, Note_on_c, 7, 73, 90
11, 79049, Note_on_c, 7, 73, 0
11, 79050, Note_on_c, 7, 73, 90
11, 79079, Note_on_c, 7, 73, 0
11, 79080, Note_on_c, 7, 73, 90
11, 79139, Note_on_c, 7, 73, 0
11, 79470, Note_on_c, 7, 75, 90
11, 79499, Note_on_c, 7, 75, 0
11, 79500, Note_on_c, 7, 75, 90
11, 79529, Note_on_c, 7, 75, 0
11, 79530, Note_on_c, 7, 75, 90
11, 79559, Note_on_c, 7, 75, 0
11, 79560, Note_on_c, 7, 75, 90
11, 79589, Note_on_c, 7, 75, 0
11, 79590, Note_on_c, 7, 78, 90
11, 79619, Note_on_c, 7, 78, 0
11, 79620, Note_on_c, 7, 78, 90
11, 79649, Note_on_c, 7, 78, 0
11, 79650, Note_on_c, 7, 78, 90
11, 79679, Note_on_c, 7, 78, 0
11, 79680, Note_on_c, 7, 78, 90
11, 79739, Note_on_c, 7, 78, 0
11, 79935, Note_on_c, 7, 64, 90
11, 79949, Note_on_c, 7, 64, 0
11, 79950, Note_on_c, 7, 66, 90
11, 79964, Note_on_c, 7, 66, 0
11, 79965, Note_on_c, 7, 68, 90
11, 79979, Note_on_c, 7, 68, 0
11, 79980, Note_on_c, 7, 69, 90
11, 79994, Note_on_c, 7, 69, 0
11, 79995, Note_on_c, 7, 71, 90
11, 80009, Note_on_c, 7, 71, 0
11, 80010, Note_on_c, 7, 73, 90
11, 80024, Note_on_c, 7, 73, 0
11, 80025, Note_on_c, 7, 74, 90
11, 80039, Note_on_c, 7, 74, 0
11, 80040, Note_on_c, 7, 76, 90
11, 80099, Note_on_c, 7, 76, 0
11, 80430, Note_on_c, 7, 71, 90
11, 80459, Note_on_c, 7, 71, 0
11, 80460, Note_on_c, 7, 71, 90
11, 80489, Note_on_c, 7, 71, 0
11, 80490, Note_on_c, 7, 71, 90
11, 80519, Note_on_c, 7, 71, 0
11, 80520, Note_on_c, 7, 71, 90
11, 80579, Note_on_c, 7, 71, 0
11, 80910, Note_on_c, 7, 69, 90
11, 80939, Note_on_c, 7, 69, 0
11, 80940, Note_on_c, 7, 69, 90
11, 80969, Note_on_c, 7, 69, 0
11, 80970, Note_on_c, 7, 69, 90
11, 80999, Note_on_c, 7, 69, 0
11, 81000, Note_on_c, 7, 69, 90
11, 81059, Note_on_c, 7, 69, 0
11, 81059, End_track
12, 0, Start_track
12, 0, MIDI_port, 0
12, 0, Title_t, "Violino Solo"
12, 185640, Control_c, 8, 0, 0
12, 185640, Program_c, 8, 40
12, 185700, Note_on_c, 8, 64, 90
12, 185729, Note_on_c, 8, 64, 0
12, 185730, Note_on_c, 8, 68, 90
12, 185759, Note_on_c, 8, 68, 0
12, 185760, Note_on_c, 8, 71, 90
12, 185789, Note_on_c, 8, 71, 0
12, 185790, Note_on_c, 8, 76, 90
12, 185819, Note_on_c, 8, 76, 0
12, 185820, Note_on_c, 8, 80, 90
12, 185849, Note_on_c, 8, 80, 0
12, 185850, Note_on_c, 8, 83, 90
12, 185879, Note_on_c, 8, 83, 0
12, 185880, Note_on_c, 8, 80, 90
12, 185939, Note_on_c, 8, 80, 0
12, 185940, Note_on_c, 8, 78, 90
12, 185999, Note_on_c, 8, 78, 0
12, 186000, Note_on_c, 8, 81, 90
12, 186119, Note_on_c, 8, 81, 0
12, 186120, Note_on_c, 8, 80, 90
12, 186179, Note_on_c, 8, 80, 0
12, 186180, Note_on_c, 8, 78, 90
12, 186239, Note_on_c, 8, 78, 0
12, 186240, Note_on_c, 8, 75, 90
12, 186329, Note_on_c, 8, 75, 0
12, 186330, Note_on_c, 8, 73, 90
12, 186359, Note_on_c, 8, 73, 0
12, 186360, Note_on_c, 8, 71, 90
12, 186389, Note_on_c, 8, 71, 0
12, 186390, Note_on_c, 8, 69, 90
12, 186419, Note_on_c, 8, 69, 0
12, 186420, Note_on_c, 8, 68, 90
12, 186449, Note_on_c, 8, 68, 0
12, 186450, Note_on_c, 8, 71, 90
12, 186479, Note_on_c, 8, 71, 0
12, 186480, Note_on_c, 8, 76, 90
12, 186509, Note_on_c, 8, 76, 0
12, 186510, Note_on_c, 8, 80, 90
12, 186539, Note_on_c, 8, 80, 0
12, 186540, Note_on_c, 8, 83, 90
12, 186569, Note_on_c, 8, 83, 0
12, 186570, Note_on_c, 8, 86, 90
12, 186599, Note_on_c, 8, 86, 0
12, 186600, Note_on_c, 8, 85, 90
12, 186629, Note_on_c, 8, 85, 0
12, 186630, Note_on_c, 8, 80, 90
12, 186659, Note_on_c, 8, 80, 0
12, 186660, Note_on_c, 8, 81, 90
12, 186689, Note_on_c, 8, 81, 0
12, 186690, Note_on_c, 8, 76, 90
12, 186719, Note_on_c, 8, 76, 0
12, 186720, Note_on_c, 8, 73, 90
12, 186749, Note_on_c, 8, 73, 0
12, 186750, Note_on_c, 8, 69, 90
12, 186779, Note_on_c, 8, 69, 0
12, 186780, Note_on_c, 8, 66, 90
12, 186809, Note_on_c, 8, 66, 0
12, 186810, Note_on_c, 8, 69, 90
12, 186839, Note_on_c, 8, 69, 0
12, 186840, Note_on_c, 8, 75, 90
12, 186869, Note_on_c, 8, 75, 0
12, 186870, Note_on_c, 8, 78, 90
12, 186899, Note_on_c, 8, 78, 0
12, 186900, Note_on_c, 8, 81, 90
12, 186929, Note_on_c, 8, 81, 0
12, 186930, Note_on_c, 8, 85, 90
12, 186959, Note_on_c, 8, 85, 0
12, 186960, Note_on_c, 8, 83, 90
12, 186989, Note_on_c, 8, 83, 0
12, 186990, Note_on_c, 8, 78, 90
12, 187019, Note_on_c, 8, 78, 0
12, 187020, Note_on_c, 8, 80, 90
12, 187049, Note_on_c, 8, 80, 0
12, 187050, Note_on_c, 8, 75, 90
12, 187079, Note_on_c, 8, 75, 0
12, 187080, Note_on_c, 8, 71, 90
12, 187109, Note_on_c, 8, 71, 0
12, 187110, Note_on_c, 8, 68, 90
12, 187139, Note_on_c, 8, 68, 0
12, 187140, Note_on_c, 8, 64, 90
12, 187169, Note_on_c, 8, 64, 0
12, 187170, Note_on_c, 8, 68, 90
12, 187199, Note_on_c, 8, 68, 0
12, 187200, Note_on_c, 8, 73, 90
12, 187229, Note_on_c, 8, 73, 0
12, 187230, Note_on_c, 8, 76, 90
12, 187259, Note_on_c, 8, 76, 0
12, 187260, Note_on_c, 8, 80, 90
12, 187289, Note_on_c, 8, 80, 0
12, 187290, Note_on_c, 8, 83, 90
12, 187319, Note_on_c, 8, 83, 0
12, 187320, Note_on_c, 8, 81, 90
12, 187349, Note_on_c, 8, 81, 0
12, 187350, Note_on_c, 8, 76, 90
12, 187379, Note_on_c, 8, 76, 0
12, 187380, Note_on_c, 8, 78, 90
12, 187409, Note_on_c, 8, 78, 0
12, 187410, Note_on_c, 8, 73, 90
12, 187439, Note_on_c, 8, 73, 0
12, 187440, Note_on_c, 8, 69, 90
12, 187469, Note_on_c, 8, 69, 0
12, 187470, Note_on_c, 8, 66, 90
12, 187499, Note_on_c, 8, 66, 0
12, 187500, Note_on_c, 8, 63, 90
12, 187529, Note_on_c, 8, 63, 0
12, 187530, Note_on_c, 8, 66, 90
12, 187559, Note_on_c, 8, 66, 0
12, 187560, Note_on_c, 8, 71, 90
12, 187589, Note_on_c, 8, 71, 0
12, 187590, Note_on_c, 8, 75, 90
12, 187619, Note_on_c, 8, 75, 0
12, 187620, Note_on_c, 8, 78, 90
12, 187649, Note_on_c, 8, 78, 0
12, 187650, Note_on_c, 8, 81, 90
12, 187679, Note_on_c, 8, 81, 0
12, 187680, Note_on_c, 8, 80, 90
12, 187709, Note_on_c, 8, 80, 0
12, 187710, Note_on_c, 8, 75, 90
12, 187739, Note_on_c, 8, 75, 0
12, 187740, Note_on_c, 8, 76, 90
12, 187769, Note_on_c, 8, 76, 0
12, 187770, Note_on_c, 8, 71, 90
12, 187799, Note_on_c, 8, 71, 0
12, 187800, Note_on_c, 8, 68, 90
12, 187829, Note_on_c, 8, 68, 0
12, 187830, Note_on_c, 8, 71, 90
12, 187859, Note_on_c, 8, 71, 0
12, 187860, Note_on_c, 8, 74, 90
12, 187889, Note_on_c, 8, 74, 0
12, 187890, Note_on_c, 8, 71, 90
12, 187919, Note_on_c, 8, 71, 0
12, 187920, Note_on_c, 8, 80, 90
12, 187949, Note_on_c, 8, 80, 0
12, 187950, Note_on_c, 8, 74, 90
12, 187979, Note_on_c, 8, 74, 0
12, 187980, Note_on_c, 8, 83, 90
12, 188009, Note_on_c, 8, 83, 0
12, 188010, Note_on_c, 8, 74, 90
12, 188039, Note_on_c, 8, 74, 0
12, 188040, Note_on_c, 8, 73, 90
12, 188069, Note_on_c, 8, 73, 0
12, 188070, Note_on_c, 8, 71, 90
12, 188099, Note_on_c, 8, 71, 0
12, 188100, Note_on_c, 8, 69, 90
12, 188129, Note_on_c, 8, 69, 0
12, 188130, Note_on_c, 8, 64, 90
12, 188159, Note_on_c, 8, 64, 0
12, 188160, Note_on_c, 8, 69, 90
12, 188189, Note_on_c, 8, 69, 0
12, 188190, Note_on_c, 8, 73, 90
12, 188219, Note_on_c, 8, 73, 0
12, 188220, Note_on_c, 8, 76, 90
12, 188249, Note_on_c, 8, 76, 0
12, 188250, Note_on_c, 8, 73, 90
12, 188279, Note_on_c, 8, 73, 0
12, 188280, Note_on_c, 8, 82, 90
12, 188309, Note_on_c, 8, 82, 0
12, 188310, Note_on_c, 8, 76, 90
12, 188339, Note_on_c, 8, 76, 0
12, 188340, Note_on_c, 8, 85, 90
12, 188369, Note_on_c, 8, 85, 0
12, 188370, Note_on_c, 8, 76, 90
12, 188399, Note_on_c, 8, 76, 0
12, 188400, Note_on_c, 8, 75, 90
12, 188429, Note_on_c, 8, 75, 0
12, 188430, Note_on_c, 8, 73, 90
12, 188459, Note_on_c, 8, 73, 0
12, 188460, Note_on_c, 8, 71, 90
12, 188489, Note_on_c, 8, 71, 0
12, 188490, Note_on_c, 8, 66, 90
12, 188519, Note_on_c, 8, 66, 0
12, 188520, Note_on_c, 8, 71, 90
12, 188549, Note_on_c, 8, 71, 0
12, 188550, Note_on_c, 8, 75, 90
12, 188579, Note_on_c, 8, 75, 0
12, 188580, Note_on_c, 8, 78, 90
12, 188609, Note_on_c, 8, 78, 0
12, 188610, Note_on_c, 8, 69, 90
12, 188639, Note_on_c, 8, 69, 0
12, 188640, Note_on_c, 8, 83, 90
12, 188669, Note_on_c, 8, 83, 0
12, 188670, Note_on_c, 8, 69, 90
12, 188699, Note_on_c, 8, 69, 0
12, 188700, Note_on_c, 8, 87, 90
12, 188729, Note_on_c, 8, 87, 0
12, 188730, Note_on_c, 8, 69, 90
12, 188759, Note_on_c, 8, 69, 0
12, 188760, Note_on_c, 8, 88, 90
12, 188789, Note_on_c, 8, 88, 0
12, 188790, Note_on_c, 8, 83, 90
12, 188819, Note_on_c, 8, 83, 0
12, 188820, Note_on_c, 8, 80, 90
12, 188849, Note_on_c, 8, 80, 0
12, 188850, Note_on_c, 8, 78, 90
12, 188879, Note_on_c, 8, 78, 0
12, 188880, Note_on_c, 8, 76, 90
12, 188909, Note_on_c, 8, 76, 0
12, 188910, Note_on_c, 8, 71, 90
12, 188939, Note_on_c, 8, 71, 0
12, 188940, Note_on_c, 8, 76, 90
12, 188969, Note_on_c, 8, 76, 0
12, 188970, Note_on_c, 8, 80, 90
12, 188999, Note_on_c, 8, 80, 0
12, 189000, Note_on_c, 8, 83, 90
12, 189029, Note_on_c, 8, 83, 0
12, 189030, Note_on_c, 8, 80, 90
12, 189059, Note_on_c, 8, 80, 0
12, 189060, Note_on_c, 8, 88, 90
12, 189089, Note_on_c, 8, 88, 0
12, 189090, Note_on_c, 8, 83, 90
12, 189119, Note_on_c, 8, 83, 0
12, 189120, Note_on_c, 8, 90, 90
12, 189149, Note_on_c, 8, 90, 0
12, 189150, Note_on_c, 8, 87, 90
12, 189179, Note_on_c, 8, 87, 0
12, 189180, Note_on_c, 8, 81, 90
12, 189209, Note_on_c, 8, 81, 0
12, 189210, Note_on_c, 8, 80, 90
12, 189239, Note_on_c, 8, 80, 0
12, 189240, Note_on_c, 8, 78, 90
12, 189269, Note_on_c, 8, 78, 0
12, 189270, Note_on_c, 8, 71, 90
12, 189299, Note_on_c, 8, 71, 0
12, 189300, Note_on_c, 8, 78, 90
12, 189329, Note_on_c, 8, 78, 0
12, 189330, Note_on_c, 8, 81, 90
12, 189359, Note_on_c, 8, 81, 0
12, 189360, Note_on_c, 8, 87, 90
12, 189389, Note_on_c, 8, 87, 0
12, 189390, Note_on_c, 8, 81, 90
12, 189419, Note_on_c, 8, 81, 0
12, 189420, Note_on_c, 8, 90, 90
12, 189449, Note_on_c, 8, 90, 0
12, 189450, Note_on_c, 8, 87, 90
12, 189479, Note_on_c, 8, 87, 0
12, 189480, Note_on_c, 8, 92, 90
12, 189509, Note_on_c, 8, 92, 0
12, 189510, Note_on_c, 8, 87, 90
12, 189539, Note_on_c, 8, 87, 0
12, 189540, Note_on_c, 8, 88, 90
12, 189569, Note_on_c, 8, 88, 0
12, 189570, Note_on_c, 8, 83, 90
12, 189599, Note_on_c, 8, 83, 0
12, 189600, Note_on_c, 8, 80, 90
12, 189629, Note_on_c, 8, 80, 0
12, 189630, Note_on_c, 8, 76, 90
12, 189659, Note_on_c, 8, 76, 0
12, 189660, Note_on_c, 8, 71, 90
12, 189689, Note_on_c, 8, 71, 0
12, 189690, Note_on_c, 8, 73, 90
12, 189704, Note_on_c, 8, 73, 0
12, 189705, Note_on_c, 8, 75, 90
12, 189719, Note_on_c, 8, 75, 0
12, 189720, Note_on_c, 8, 76, 90
12, 189734, Note_on_c, 8, 76, 0
12, 189735, Note_on_c, 8, 78, 90
12, 189749, Note_on_c, 8, 78, 0
12, 189750, Note_on_c, 8, 80, 90
12, 189764, Note_on_c, 8, 80, 0
12, 189765, Note_on_c, 8, 81, 90
12, 189779, Note_on_c, 8, 81, 0
12, 189780, Note_on_c, 8, 83, 90
12, 189794, Note_on_c, 8, 83, 0
12, 189795, Note_on_c, 8, 85, 90
12, 189809, Note_on_c, 8, 85, 0
12, 189810, Note_on_c, 8, 87, 90
12, 189839, Note_on_c, 8, 87, 0
12, 189840, Note_on_c, 8, 88, 90
12, 189869, Note_on_c, 8, 88, 0
12, 189870, Note_on_c, 8, 83, 90
12, 189899, Note_on_c, 8, 83, 0
12, 189900, Note_on_c, 8, 80, 90
12, 189929, Note_on_c, 8, 80, 0
12, 189930, Note_on_c, 8, 76, 90
12, 189959, Note_on_c, 8, 76, 0
12, 189960, Note_on_c, 8, 71, 90
12, 189989, Note_on_c, 8, 71, 0
12, 189990, Note_on_c, 8, 68, 90
12, 190019, Note_on_c, 8, 68, 0
12, 190020, Note_on_c, 8, 64, 90
12, 190770, Note_on_c, 8, 64, 0
12, 190770, Note_on_c, 8, 68, 90
12, 190800, Note_on_c, 8, 68, 0
12, 190800, Note_on_c, 8, 71, 90
12, 190830, Note_on_c, 8, 71, 0
12, 190830, Note_on_c, 8, 76, 90
12, 190860, Note_on_c, 8, 76, 0
12, 190860, Note_on_c, 8, 80, 90
12, 190890, Note_on_c, 8, 80, 0
12, 190890, Note_on_c, 8, 83, 90
12, 190920, Note_on_c, 8, 83, 0
12, 190920, Note_on_c, 8, 80, 90
12, 190980, Note_on_c, 8, 80, 0
12, 190980, Note_on_c, 8, 78, 90
12, 191040, Note_on_c, 8, 78, 0
12, 191040, Note_on_c, 8, 81, 90
12, 191160, Note_on_c, 8, 81, 0
12, 191160, Note_on_c, 8, 80, 90
12, 191220, Note_on_c, 8, 80, 0
12, 191220, Note_on_c, 8, 78, 90
12, 191280, Note_on_c, 8, 78, 0
12, 191280, Note_on_c, 8, 75, 90
12, 191370, Note_on_c, 8, 75, 0
12, 191370, Note_on_c, 8, 71, 90
12, 191399, Note_on_c, 8, 71, 0
12, 191400, Note_on_c, 8, 69, 90
12, 191429, Note_on_c, 8, 69, 0
12, 191430, Note_on_c, 8, 68, 90
12, 191459, Note_on_c, 8, 68, 0
12, 191460, Note_on_c, 8, 66, 90
12, 191489, Note_on_c, 8, 66, 0
12, 191490, Note_on_c, 8, 68, 90
12, 191519, Note_on_c, 8, 68, 0
12, 191520, Note_on_c, 8, 69, 90
12, 191549, Note_on_c, 8, 69, 0
12, 191550, Note_on_c, 8, 66, 90
12, 191579, Note_on_c, 8, 66, 0
12, 191580, Note_on_c, 8, 75, 90
12, 191609, Note_on_c, 8, 75, 0
12, 191610, Note_on_c, 8, 69, 90
12, 191639, Note_on_c, 8, 69, 0
12, 191640, Note_on_c, 8, 76, 90
12, 191669, Note_on_c, 8, 76, 0
12, 191670, Note_on_c, 8, 71, 90
12, 191699, Note_on_c, 8, 71, 0
12, 191700, Note_on_c, 8, 68, 90
12, 191729, Note_on_c, 8, 68, 0
12, 191730, Note_on_c, 8, 66, 90
12, 191759, Note_on_c, 8, 66, 0
12, 191760, Note_on_c, 8, 64, 90
12, 191789, Note_on_c, 8, 64, 0
12, 191790, Note_on_c, 8, 59, 90
12, 191819, Note_on_c, 8, 59, 0
12, 191820, Note_on_c, 8, 64, 90
12, 191849, Note_on_c, 8, 64, 0
12, 191850, Note_on_c, 8, 68, 90
12, 191879, Note_on_c, 8, 68, 0
12, 191880, Note_on_c, 8, 71, 90
12, 191909, Note_on_c, 8, 71, 0
12, 191910, Note_on_c, 8, 68, 90
12, 191939, Note_on_c, 8, 68, 0
12, 191940, Note_on_c, 8, 76, 90
12, 191969, Note_on_c, 8, 76, 0
12, 191970, Note_on_c, 8, 71, 90
12, 191999, Note_on_c, 8, 71, 0
12, 192000, Note_on_c, 8, 78, 90
12, 192029, Note_on_c, 8, 78, 0
12, 192030, Note_on_c, 8, 75, 90
12, 192059, Note_on_c, 8, 75, 0
12, 192060, Note_on_c, 8, 69, 90
12, 192089, Note_on_c, 8, 69, 0
12, 192090, Note_on_c, 8, 68, 90
12, 192119, Note_on_c, 8, 68, 0
12, 192120, Note_on_c, 8, 66, 90
12, 192149, Note_on_c, 8, 66, 0
12, 192150, Note_on_c, 8, 59, 90
12, 192179, Note_on_c, 8, 59, 0
12, 192180, Note_on_c, 8, 66, 90
12, 192209, Note_on_c, 8, 66, 0
12, 192210, Note_on_c, 8, 69, 90
12, 192239, Note_on_c, 8, 69, 0
12, 192240, Note_on_c, 8, 75, 90
12, 192269, Note_on_c, 8, 75, 0
12, 192270, Note_on_c, 8, 69, 90
12, 192299, Note_on_c, 8, 69, 0
12, 192300, Note_on_c, 8, 78, 90
12, 192329, Note_on_c, 8, 78, 0
12, 192330, Note_on_c, 8, 75, 90
12, 192359, Note_on_c, 8, 75, 0
12, 192360, Note_on_c, 8, 80, 90
12, 192389, Note_on_c, 8, 80, 0
12, 192390, Note_on_c, 8, 75, 90
12, 192419, Note_on_c, 8, 75, 0
12, 192420, Note_on_c, 8, 76, 90
12, 192449, Note_on_c, 8, 76, 0
12, 192450, Note_on_c, 8, 71, 90
12, 192479, Note_on_c, 8, 71, 0
12, 192480, Note_on_c, 8, 68, 90
12, 192509, Note_on_c, 8, 68, 0
12, 192510, Note_on_c, 8, 64, 90
12, 192539, Note_on_c, 8, 64, 0
12, 192540, Note_on_c, 8, 59, 90
12, 192569, Note_on_c, 8, 59, 0
12, 192570, Note_on_c, 8, 61, 90
12, 192584, Note_on_c, 8, 61, 0
12, 192585, Note_on_c, 8, 63, 90
12, 192599, Note_on_c, 8, 63, 0
12, 192600, Note_on_c, 8, 64, 90
12, 192614, Note_on_c, 8, 64, 0
12, 192615, Note_on_c, 8, 66, 90
12, 192629, Note_on_c, 8, 66, 0
12, 192630, Note_on_c, 8, 68, 90
12, 192644, Note_on_c, 8, 68, 0
12, 192645, Note_on_c, 8, 69, 90
12, 192659, Note_on_c, 8, 69, 0
12, 192660, Note_on_c, 8, 71, 90
12, 192674, Note_on_c, 8, 71, 0
12, 192675, Note_on_c, 8, 73, 90
12, 192689, Note_on_c, 8, 73, 0
12, 192690, Note_on_c, 8, 75, 90
12, 192719, Note_on_c, 8, 75, 0
12, 192720, Note_on_c, 8, 76, 90
12, 192749, Note_on_c, 8, 76, 0
12, 192750, Note_on_c, 8, 71, 90
12, 192779, Note_on_c, 8, 71, 0
12, 192780, Note_on_c, 8, 68, 90
12, 192809, Note_on_c, 8, 68, 0
12, 192810, Note_on_c, 8, 71, 90
12, 192839, Note_on_c, 8, 71, 0
12, 192840, Note_on_c, 8, 76, 90
12, 192869, Note_on_c, 8, 76, 0
12, 192870, Note_on_c, 8, 78, 90
12, 192899, Note_on_c, 8, 78, 0
12, 192900, Note_on_c, 8, 80, 90
12, 192959, Note_on_c, 8, 80, 0
12, 192960, Note_on_c, 8, 78, 90
12, 192989, Note_on_c, 8, 78, 0
12, 192990, Note_on_c, 8, 76, 90
12, 193019, Note_on_c, 8, 76, 0
12, 193020, Note_on_c, 8, 78, 90
12, 193049, Note_on_c, 8, 78, 0
12, 193050, Note_on_c, 8, 81, 90
12, 193079, Note_on_c, 8, 81, 0
12, 193080, Note_on_c, 8, 80, 90
12, 193109, Note_on_c, 8, 80, 0
12, 193110, Note_on_c, 8, 85, 90
12, 193139, Note_on_c, 8, 85, 0
12, 193140, Note_on_c, 8, 83, 90
12, 193169, Note_on_c, 8, 83, 0
12, 193170, Note_on_c, 8, 81, 90
12, 193199, Note_on_c, 8, 81, 0
12, 193200, Note_on_c, 8, 80, 90
12, 193229, Note_on_c, 8, 80, 0
12, 193230, Note_on_c, 8, 78, 90
12, 193259, Note_on_c, 8, 78, 0
12, 193260, Note_on_c, 8, 76, 90
12, 193289, Note_on_c, 8, 76, 0
12, 193290, Note_on_c, 8, 81, 90
12, 193319, Note_on_c, 8, 81, 0
12, 193320, Note_on_c, 8, 80, 90
12, 193349, Note_on_c, 8, 80, 0
12, 193350, Note_on_c, 8, 78, 90
12, 193379, Note_on_c, 8, 78, 0
12, 193380, Note_on_c, 8, 76, 90
12, 193409, Note_on_c, 8, 76, 0
12, 193410, Note_on_c, 8, 75, 90
12, 193439, Note_on_c, 8, 75, 0
12, 193440, Note_on_c, 8, 76, 90
12, 193469, Note_on_c, 8, 76, 0
12, 193470, Note_on_c, 8, 80, 90
12, 193499, Note_on_c, 8, 80, 0
12, 193500, Note_on_c, 8, 78, 90
12, 193529, Note_on_c, 8, 78, 0
12, 193530, Note_on_c, 8, 76, 90
12, 193559, Note_on_c, 8, 76, 0
12, 193560, Note_on_c, 8, 75, 90
12, 193589, Note_on_c, 8, 75, 0
12, 193590, Note_on_c, 8, 73, 90
12, 193619, Note_on_c, 8, 73, 0
12, 193620, Note_on_c, 8, 71, 90
12, 193649, Note_on_c, 8, 71, 0
12, 193650, Note_on_c, 8, 68, 90
12, 193679, Note_on_c, 8, 68, 0
12, 193680, Note_on_c, 8, 71, 90
12, 193709, Note_on_c, 8, 71, 0
12, 193710, Note_on_c, 8, 76, 90
12, 193739, Note_on_c, 8, 76, 0
12, 193740, Note_on_c, 8, 80, 90
12, 193769, Note_on_c, 8, 80, 0
12, 193770, Note_on_c, 8, 83, 90
12, 193799, Note_on_c, 8, 83, 0
12, 193800, Note_on_c, 8, 80, 90
12, 193859, Note_on_c, 8, 80, 0
12, 193860, Note_on_c, 8, 78, 90
12, 193919, Note_on_c, 8, 78, 0
12, 193920, Note_on_c, 8, 81, 90
12, 194039, Note_on_c, 8, 81, 0
12, 194040, Note_on_c, 8, 80, 90
12, 194099, Note_on_c, 8, 80, 0
12, 194100, Note_on_c, 8, 78, 90
12, 194159, Note_on_c, 8, 78, 0
12, 194160, Note_on_c, 8, 75, 90
12, 194189, Note_on_c, 8, 75, 0
12, 194190, Note_on_c, 8, 80, 90
12, 194219, Note_on_c, 8, 80, 0
12, 194220, Note_on_c, 8, 78, 90
12, 194249, Note_on_c, 8, 78, 0
12, 194250, Note_on_c, 8, 76, 90
12, 194279, Note_on_c, 8, 76, 0
12, 194280, Note_on_c, 8, 75, 90
12, 194309, Note_on_c, 8, 75, 0
12, 194310, Note_on_c, 8, 73, 90
12, 194339, Note_on_c, 8, 73, 0
12, 194340, Note_on_c, 8, 71, 90
12, 194459, Note_on_c, 8, 71, 0
12, 194550, Note_on_c, 8, 74, 90
12, 194579, Note_on_c, 8, 74, 0
12, 194580, Note_on_c, 8, 73, 90
12, 194609, Note_on_c, 8, 73, 0
12, 194610, Note_on_c, 8, 71, 90
12, 194639, Note_on_c, 8, 71, 0
12, 194640, Note_on_c, 8, 69, 90
12, 194669, Note_on_c, 8, 69, 0
12, 194670, Note_on_c, 8, 68, 90
12, 194699, Note_on_c, 8, 68, 0
12, 194700, Note_on_c, 8, 80, 90
12, 194879, Note_on_c, 8, 80, 0
12, 194910, Note_on_c, 8, 73, 90
12, 194939, Note_on_c, 8, 73, 0
12, 194940, Note_on_c, 8, 71, 90
12, 194969, Note_on_c, 8, 71, 0
12, 194970, Note_on_c, 8, 69, 90
12, 194999, Note_on_c, 8, 69, 0
12, 195000, Note_on_c, 8, 68, 90
12, 195029, Note_on_c, 8, 68, 0
12, 195030, Note_on_c, 8, 66, 90
12, 195059, Note_on_c, 8, 66, 0
12, 195060, Note_on_c, 8, 78, 90
12, 195239, Note_on_c, 8, 78, 0
12, 195270, Note_on_c, 8, 75, 90
12, 195299, Note_on_c, 8, 75, 0
12, 195300, Note_on_c, 8, 73, 90
12, 195329, Note_on_c, 8, 73, 0
12, 195330, Note_on_c, 8, 72, 90
12, 195359, Note_on_c, 8, 72, 0
12, 195360, Note_on_c, 8, 70, 90
12, 195389, Note_on_c, 8, 70, 0
12, 195390, Note_on_c, 8, 68, 90
12, 195419, Note_on_c, 8, 68, 0
12, 195420, Note_on_c, 8, 66, 90
12, 195449, Note_on_c, 8, 66, 0
12, 195450, Note_on_c, 8, 69, 90
12, 195479, Note_on_c, 8, 69, 0
12, 195480, Note_on_c, 8, 68, 90
12, 195509, Note_on_c, 8, 68, 0
12, 195510, Note_on_c, 8, 66, 90
12, 195539, Note_on_c, 8, 66, 0
12, 195540, Note_on_c, 8, 64, 90
12, 195569, Note_on_c, 8, 64, 0
12, 195570, Note_on_c, 8, 63, 90
12, 195599, Note_on_c, 8, 63, 0
12, 195600, Note_on_c, 8, 64, 90
12, 195629, Note_on_c, 8, 64, 0
12, 195630, Note_on_c, 8, 68, 90
12, 195659, Note_on_c, 8, 68, 0
12, 195660, Note_on_c, 8, 66, 90
12, 195689, Note_on_c, 8, 66, 0
12, 195690, Note_on_c, 8, 64, 90
12, 195719, Note_on_c, 8, 64, 0
12, 195720, Note_on_c, 8, 63, 90
12, 195749, Note_on_c, 8, 63, 0
12, 195750, Note_on_c, 8, 61, 90
12, 195779, Note_on_c, 8, 61, 0
12, 196350, Note_on_c, 8, 61, 90
12, 196379, Note_on_c, 8, 61, 0
12, 196380, Note_on_c, 8, 66, 90
12, 196409, Note_on_c, 8, 66, 0
12, 196410, Note_on_c, 8, 68, 90
12, 196439, Note_on_c, 8, 68, 0
12, 196440, Note_on_c, 8, 70, 90
12, 196469, Note_on_c, 8, 70, 0
12, 196470, Note_on_c, 8, 71, 90
12, 196499, Note_on_c, 8, 71, 0
12, 196500, Note_on_c, 8, 73, 90
12, 196529, Note_on_c, 8, 73, 0
12, 196530, Note_on_c, 8, 75, 90
12, 196559, Note_on_c, 8, 75, 0
12, 196560, Note_on_c, 8, 76, 90
12, 196589, Note_on_c, 8, 76, 0
12, 196590, Note_on_c, 8, 73, 90
12, 196619, Note_on_c, 8, 73, 0
12, 196620, Note_on_c, 8, 82, 90
12, 196649, Note_on_c, 8, 82, 0
12, 196650, Note_on_c, 8, 76, 90
12, 196679, Note_on_c, 8, 76, 0
12, 196680, Note_on_c, 8, 83, 90
12, 196709, Note_on_c, 8, 83, 0
12, 196710, Note_on_c, 8, 78, 90
12, 196739, Note_on_c, 8, 78, 0
12, 196740, Note_on_c, 8, 75, 90
12, 196769, Note_on_c, 8, 75, 0
12, 196770, Note_on_c, 8, 73, 90
12, 196799, Note_on_c, 8, 73, 0
12, 196800, Note_on_c, 8, 71, 90
12, 196829, Note_on_c, 8, 71, 0
12, 196830, Note_on_c, 8, 66, 90
12, 196859, Note_on_c, 8, 66, 0
12, 196860, Note_on_c, 8, 71, 90
12, 196889, Note_on_c, 8, 71, 0
12, 196890, Note_on_c, 8, 75, 90
12, 196919, Note_on_c, 8, 75, 0
12, 196920, Note_on_c, 8, 78, 90
12, 196949, Note_on_c, 8, 78, 0
12, 196950, Note_on_c, 8, 75, 90
12, 196979, Note_on_c, 8, 75, 0
12, 196980, Note_on_c, 8, 83, 90
12, 197009, Note_on_c, 8, 83, 0
12, 197010, Note_on_c, 8, 78, 90
12, 197039, Note_on_c, 8, 78, 0
12, 197040, Note_on_c, 8, 85, 90
12, 197069, Note_on_c, 8, 85, 0
12, 197070, Note_on_c, 8, 82, 90
12, 197099, Note_on_c, 8, 82, 0
12, 197100, Note_on_c, 8, 76, 90
12, 197129, Note_on_c, 8, 76, 0
12, 197130, Note_on_c, 8, 75, 90
12, 197159, Note_on_c, 8, 75, 0
12, 197160, Note_on_c, 8, 73, 90
12, 197189, Note_on_c, 8, 73, 0
12, 197190, Note_on_c, 8, 66, 90
12, 197219, Note_on_c, 8, 66, 0
12, 197220, Note_on_c, 8, 73, 90
12, 197249, Note_on_c, 8, 73, 0
12, 197250, Note_on_c, 8, 76, 90
12, 197279, Note_on_c, 8, 76, 0
12, 197280, Note_on_c, 8, 82, 90
12, 197309, Note_on_c, 8, 82, 0
12, 197310, Note_on_c, 8, 76, 90
12, 197339, Note_on_c, 8, 76, 0
12, 197340, Note_on_c, 8, 85, 90
12, 197369, Note_on_c, 8, 85, 0
12, 197370, Note_on_c, 8, 82, 90
12, 197399, Note_on_c, 8, 82, 0
12, 197400, Note_on_c, 8, 87, 90
12, 197429, Note_on_c, 8, 87, 0
12, 197430, Note_on_c, 8, 82, 90
12, 197459, Note_on_c, 8, 82, 0
12, 197460, Note_on_c, 8, 83, 90
12, 197489, Note_on_c, 8, 83, 0
12, 197490, Note_on_c, 8, 78, 90
12, 197519, Note_on_c, 8, 78, 0
12, 197520, Note_on_c, 8, 75, 90
12, 197549, Note_on_c, 8, 75, 0
12, 197550, Note_on_c, 8, 71, 90
12, 197579, Note_on_c, 8, 71, 0
12, 197580, Note_on_c, 8, 66, 90
12, 197609, Note_on_c, 8, 66, 0
12, 197610, Note_on_c, 8, 68, 90
12, 197624, Note_on_c, 8, 68, 0
12, 197625, Note_on_c, 8, 70, 90
12, 197639, Note_on_c, 8, 70, 0
12, 197640, Note_on_c, 8, 71, 90
12, 197654, Note_on_c, 8, 71, 0
12, 197655, Note_on_c, 8, 73, 90
12, 197669, Note_on_c, 8, 73, 0
12, 197670, Note_on_c, 8, 75, 90
12, 197684, Note_on_c, 8, 75, 0
12, 197685, Note_on_c, 8, 76, 90
12, 197699, Note_on_c, 8, 76, 0
12, 197700, Note_on_c, 8, 78, 90
12, 197714, Note_on_c, 8, 78, 0
12, 197715, Note_on_c, 8, 80, 90
12, 197729, Note_on_c, 8, 80, 0
12, 197730, Note_on_c, 8, 82, 90
12, 197759, Note_on_c, 8, 82, 0
12, 197760, Note_on_c, 8, 83, 90
12, 197789, Note_on_c, 8, 83, 0
12, 197790, Note_on_c, 8, 78, 90
12, 197819, Note_on_c, 8, 78, 0
12, 197820, Note_on_c, 8, 75, 90
12, 197849, Note_on_c, 8, 75, 0
12, 197850, Note_on_c, 8, 71, 90
12, 197879, Note_on_c, 8, 71, 0
12, 197880, Note_on_c, 8, 66, 90
12, 197909, Note_on_c, 8, 66, 0
12, 197910, Note_on_c, 8, 63, 90
12, 197939, Note_on_c, 8, 63, 0
12, 197940, Note_on_c, 8, 59, 90
12, 197969, Note_on_c, 8, 59, 0
12, 197970, Note_on_c, 8, 63, 90
12, 197999, Note_on_c, 8, 63, 0
12, 198000, Note_on_c, 8, 66, 90
12, 198029, Note_on_c, 8, 66, 0
12, 198030, Note_on_c, 8, 71, 90
12, 198059, Note_on_c, 8, 71, 0
12, 198060, Note_on_c, 8, 75, 90
12, 198089, Note_on_c, 8, 75, 0
12, 198090, Note_on_c, 8, 78, 90
12, 198119, Note_on_c, 8, 78, 0
12, 198120, Note_on_c, 8, 75, 90
12, 198179, Note_on_c, 8, 75, 0
12, 198180, Note_on_c, 8, 73, 90
12, 198239, Note_on_c, 8, 73, 0
12, 198240, Note_on_c, 8, 76, 90
12, 198359, Note_on_c, 8, 76, 0
12, 198360, Note_on_c, 8, 75, 90
12, 198419, Note_on_c, 8, 75, 0
12, 198420, Note_on_c, 8, 71, 90
12, 198479, Note_on_c, 8, 71, 0
12, 198480, Note_on_c, 8, 70, 90
12, 198569, Note_on_c, 8, 70, 0
12, 198570, Note_on_c, 8, 68, 90
12, 198599, Note_on_c, 8, 68, 0
12, 198600, Note_on_c, 8, 66, 90
12, 198629, Note_on_c, 8, 66, 0
12, 198630, Note_on_c, 8, 64, 90
12, 198659, Note_on_c, 8, 64, 0
12, 198660, Note_on_c, 8, 63, 90
12, 198689, Note_on_c, 8, 63, 0
12, 198690, Note_on_c, 8, 66, 90
12, 198719, Note_on_c, 8, 66, 0
12, 198720, Note_on_c, 8, 71, 90
12, 198749, Note_on_c, 8, 71, 0
12, 198750, Note_on_c, 8, 75, 90
12, 198779, Note_on_c, 8, 75, 0
12, 198780, Note_on_c, 8, 78, 90
12, 198809, Note_on_c, 8, 78, 0
12, 198810, Note_on_c, 8, 81, 90
12, 198839, Note_on_c, 8, 81, 0
12, 198840, Note_on_c, 8, 80, 90
12, 198869, Note_on_c, 8, 80, 0
12, 198870, Note_on_c, 8, 75, 90
12, 198899, Note_on_c, 8, 75, 0
12, 198900, Note_on_c, 8, 76, 90
12, 198929, Note_on_c, 8, 76, 0
12, 198930, Note_on_c, 8, 71, 90
12, 198959, Note_on_c, 8, 71, 0
12, 198960, Note_on_c, 8, 68, 90
12, 198989, Note_on_c, 8, 68, 0
12, 198990, Note_on_c, 8, 64, 90
12, 199019, Note_on_c, 8, 64, 0
12, 199020, Note_on_c, 8, 61, 90
12, 199049, Note_on_c, 8, 61, 0
12, 199050, Note_on_c, 8, 64, 90
12, 199079, Note_on_c, 8, 64, 0
12, 199080, Note_on_c, 8, 70, 90
12, 199109, Note_on_c, 8, 70, 0
12, 199110, Note_on_c, 8, 73, 90
12, 199139, Note_on_c, 8, 73, 0
12, 199140, Note_on_c, 8, 76, 90
12, 199169, Note_on_c, 8, 76, 0
12, 199170, Note_on_c, 8, 80, 90
12, 199199, Note_on_c, 8, 80, 0
12, 199200, Note_on_c, 8, 78, 90
12, 199229, Note_on_c, 8, 78, 0
12, 199230, Note_on_c, 8, 73, 90
12, 199259, Note_on_c, 8, 73, 0
12, 199260, Note_on_c, 8, 75, 90
12, 199289, Note_on_c, 8, 75, 0
12, 199290, Note_on_c, 8, 70, 90
12, 199319, Note_on_c, 8, 70, 0
12, 199320, Note_on_c, 8, 66, 90
12, 199349, Note_on_c, 8, 66, 0
12, 199350, Note_on_c, 8, 63, 90
12, 199379, Note_on_c, 8, 63, 0
12, 199380, Note_on_c, 8, 59, 90
12, 199409, Note_on_c, 8, 59, 0
12, 199410, Note_on_c, 8, 63, 90
12, 199439, Note_on_c, 8, 63, 0
12, 199440, Note_on_c, 8, 68, 90
12, 199469, Note_on_c, 8, 68, 0
12, 199470, Note_on_c, 8, 71, 90
12, 199499, Note_on_c, 8, 71, 0
12, 199500, Note_on_c, 8, 75, 90
12, 199529, Note_on_c, 8, 75, 0
12, 199530, Note_on_c, 8, 78, 90
12, 199559, Note_on_c, 8, 78, 0
12, 199560, Note_on_c, 8, 76, 90
12, 199589, Note_on_c, 8, 76, 0
12, 199590, Note_on_c, 8, 71, 90
12, 199619, Note_on_c, 8, 71, 0
12, 199620, Note_on_c, 8, 73, 90
12, 199649, Note_on_c, 8, 73, 0
12, 199650, Note_on_c, 8, 68, 90
12, 199679, Note_on_c, 8, 68, 0
12, 199680, Note_on_c, 8, 64, 90
12, 199709, Note_on_c, 8, 64, 0
12, 199710, Note_on_c, 8, 61, 90
12, 199739, Note_on_c, 8, 61, 0
12, 199740, Note_on_c, 8, 58, 90
12, 199769, Note_on_c, 8, 58, 0
12, 199770, Note_on_c, 8, 61, 90
12, 199799, Note_on_c, 8, 61, 0
12, 199800, Note_on_c, 8, 66, 90
12, 199829, Note_on_c, 8, 66, 0
12, 199830, Note_on_c, 8, 70, 90
12, 199859, Note_on_c, 8, 70, 0
12, 199860, Note_on_c, 8, 73, 90
12, 199889, Note_on_c, 8, 73, 0
12, 199890, Note_on_c, 8, 76, 90
12, 199919, Note_on_c, 8, 76, 0
12, 199920, Note_on_c, 8, 75, 90
12, 199979, Note_on_c, 8, 75, 0
12, 199980, Note_on_c, 8, 73, 90
12, 200039, Note_on_c, 8, 73, 0
12, 200040, Note_on_c, 8, 76, 90
12, 200159, Note_on_c, 8, 76, 0
12, 200160, Note_on_c, 8, 75, 90
12, 200219, Note_on_c, 8, 75, 0
12, 200220, Note_on_c, 8, 80, 90
12, 200339, Note_on_c, 8, 80, 0
12, 200340, Note_on_c, 8, 78, 90
12, 200399, Note_on_c, 8, 78, 0
12, 200400, Note_on_c, 8, 71, 90
12, 200459, Note_on_c, 8, 71, 0
12, 200460, Note_on_c, 8, 70, 90
12, 200579, Note_on_c, 8, 70, 0
12, 200580, Note_on_c, 8, 71, 90
12, 200639, Note_on_c, 8, 71, 0
12, 200640, Note_on_c, 8, 71, 90
12, 200669, Note_on_c, 8, 71, 0
12, 200670, Note_on_c, 8, 68, 90
12, 200699, Note_on_c, 8, 68, 0
12, 200700, Note_on_c, 8, 66, 90
12, 200729, Note_on_c, 8, 66, 0
12, 200730, Note_on_c, 8, 64, 90
12, 200759, Note_on_c, 8, 64, 0
12, 200760, Note_on_c, 8, 63, 90
12, 200789, Note_on_c, 8, 63, 0
12, 200790, Note_on_c, 8, 61, 90
12, 200819, Note_on_c, 8, 61, 0
12, 200820, Note_on_c, 8, 59, 90
12, 200939, Note_on_c, 8, 59, 0
12, 201180, Note_on_c, 8, 68, 90
12, 201209, Note_on_c, 8, 68, 0
12, 201210, Note_on_c, 8, 71, 90
12, 201239, Note_on_c, 8, 71, 0
12, 201240, Note_on_c, 8, 76, 90
12, 201269, Note_on_c, 8, 76, 0
12, 201270, Note_on_c, 8, 80, 90
12, 201299, Note_on_c, 8, 80, 0
12, 201300, Note_on_c, 8, 83, 90
12, 201329, Note_on_c, 8, 83, 0
12, 201330, Note_on_c, 8, 86, 90
12, 201359, Note_on_c, 8, 86, 0
12, 201360, Note_on_c, 8, 85, 90
12, 201389, Note_on_c, 8, 85, 0
12, 201390, Note_on_c, 8, 80, 90
12, 201419, Note_on_c, 8, 80, 0
12, 201420, Note_on_c, 8, 81, 90
12, 201449, Note_on_c, 8, 81, 0
12, 201450, Note_on_c, 8, 76, 90
12, 201479, Note_on_c, 8, 76, 0
12, 201480, Note_on_c, 8, 73, 90
12, 201509, Note_on_c, 8, 73, 0
12, 201510, Note_on_c, 8, 69, 90
12, 201539, Note_on_c, 8, 69, 0
12, 201750, Note_on_c, 8, 73, 90
12, 201779, Note_on_c, 8, 73, 0
12, 201780, Note_on_c, 8, 72, 90
12, 201809, Note_on_c, 8, 72, 0
12, 201810, Note_on_c, 8, 73, 90
12, 201839, Note_on_c, 8, 73, 0
12, 201840, Note_on_c, 8, 75, 90
12, 201869, Note_on_c, 8, 75, 0
12, 201870, Note_on_c, 8, 76, 90
12, 201899, Note_on_c, 8, 76, 0
12, 201900, Note_on_c, 8, 78, 90
12, 201929, Note_on_c, 8, 78, 0
12, 201930, Note_on_c, 8, 80, 90
12, 201959, Note_on_c, 8, 80, 0
12, 201960, Note_on_c, 8, 81, 90
12, 201989, Note_on_c, 8, 81, 0
12, 201990, Note_on_c, 8, 78, 90
12, 202019, Note_on_c, 8, 78, 0
12, 202020, Note_on_c, 8, 80, 90
12, 202049, Note_on_c, 8, 80, 0
12, 202050, Note_on_c, 8, 81, 90
12, 202079, Note_on_c, 8, 81, 0
12, 202080, Note_on_c, 8, 75, 90
12, 202109, Note_on_c, 8, 75, 0
12, 202110, Note_on_c, 8, 80, 90
12, 202139, Note_on_c, 8, 80, 0
12, 202140, Note_on_c, 8, 78, 90
12, 202169, Note_on_c, 8, 78, 0
12, 202170, Note_on_c, 8, 76, 90
12, 202199, Note_on_c, 8, 76, 0
12, 202200, Note_on_c, 8, 75, 90
12, 202229, Note_on_c, 8, 75, 0
12, 202230, Note_on_c, 8, 73, 90
12, 202259, Note_on_c, 8, 73, 0
12, 202260, Note_on_c, 8, 72, 90
12, 202319, Note_on_c, 8, 72, 0
12, 202440, Note_on_c, 8, 73, 90
12, 202469, Note_on_c, 8, 73, 0
12, 202470, Note_on_c, 8, 66, 90
12, 202499, Note_on_c, 8, 66, 0
12, 202500, Note_on_c, 8, 68, 90
12, 202529, Note_on_c, 8, 68, 0
12, 202530, Note_on_c, 8, 63, 90
12, 202559, Note_on_c, 8, 63, 0
12, 202560, Note_on_c, 8, 64, 90
12, 202589, Note_on_c, 8, 64, 0
12, 202590, Note_on_c, 8, 60, 90
12, 202619, Note_on_c, 8, 60, 0
12, 202620, Note_on_c, 8, 61, 90
12, 202649, Note_on_c, 8, 61, 0
12, 202650, Note_on_c, 8, 63, 90
12, 202679, Note_on_c, 8, 63, 0
12, 202680, Note_on_c, 8, 64, 90
12, 202709, Note_on_c, 8, 64, 0
12, 202710, Note_on_c, 8, 66, 90
12, 202739, Note_on_c, 8, 66, 0
12, 202740, Note_on_c, 8, 68, 90
12, 202769, Note_on_c, 8, 68, 0
12, 202770, Note_on_c, 8, 70, 90
12, 202799, Note_on_c, 8, 70, 0
12, 202800, Note_on_c, 8, 71, 90
12, 202829, Note_on_c, 8, 71, 0
12, 202830, Note_on_c, 8, 64, 90
12, 202859, Note_on_c, 8, 64, 0
12, 202860, Note_on_c, 8, 66, 90
12, 202889, Note_on_c, 8, 66, 0
12, 202890, Note_on_c, 8, 61, 90
12, 202919, Note_on_c, 8, 61, 0
12, 202920, Note_on_c, 8, 63, 90
12, 202949, Note_on_c, 8, 63, 0
12, 202950, Note_on_c, 8, 58, 90
12, 202979, Note_on_c, 8, 58, 0
12, 202980, Note_on_c, 8, 59, 90
12, 203009, Note_on_c, 8, 59, 0
12, 203010, Note_on_c, 8, 63, 90
12, 203039, Note_on_c, 8, 63, 0
12, 203040, Note_on_c, 8, 64, 90
12, 203069, Note_on_c, 8, 64, 0
12, 203070, Note_on_c, 8, 66, 90
12, 203099, Note_on_c, 8, 66, 0
12, 203100, Note_on_c, 8, 68, 90
12, 203129, Note_on_c, 8, 68, 0
12, 203130, Note_on_c, 8, 69, 90
12, 203159, Note_on_c, 8, 69, 0
12, 203160, Note_on_c, 8, 71, 90
12, 203189, Note_on_c, 8, 71, 0
12, 203190, Note_on_c, 8, 66, 90
12, 203219, Note_on_c, 8, 66, 0
12, 203220, Note_on_c, 8, 68, 90
12, 203249, Note_on_c, 8, 68, 0
12, 203250, Note_on_c, 8, 61, 90
12, 203279, Note_on_c, 8, 61, 0
12, 203280, Note_on_c, 8, 62, 90
12, 203309, Note_on_c, 8, 62, 0
12, 203310, Note_on_c, 8, 57, 90
12, 203339, Note_on_c, 8, 57, 0
12, 203340, Note_on_c, 8, 59, 90
12, 203369, Note_on_c, 8, 59, 0
12, 203370, Note_on_c, 8, 61, 90
12, 203399, Note_on_c, 8, 61, 0
12, 203400, Note_on_c, 8, 62, 90
12, 203429, Note_on_c, 8, 62, 0
12, 203430, Note_on_c, 8, 64, 90
12, 203459, Note_on_c, 8, 64, 0
12, 203460, Note_on_c, 8, 66, 90
12, 203489, Note_on_c, 8, 66, 0
12, 203490, Note_on_c, 8, 68, 90
12, 203519, Note_on_c, 8, 68, 0
12, 203520, Note_on_c, 8, 69, 90
12, 203760, Note_on_c, 8, 69, 0
12, 203910, Note_on_c, 8, 83, 90
12, 203939, Note_on_c, 8, 83, 0
12, 203940, Note_on_c, 8, 81, 90
12, 203969, Note_on_c, 8, 81, 0
12, 203970, Note_on_c, 8, 80, 90
12, 203999, Note_on_c, 8, 80, 0
12, 204000, Note_on_c, 8, 78, 90
12, 204029, Note_on_c, 8, 78, 0
12, 204030, Note_on_c, 8, 76, 90
12, 204059, Note_on_c, 8, 76, 0
12, 204060, Note_on_c, 8, 74, 90
12, 204089, Note_on_c, 8, 74, 0
12, 204090, Note_on_c, 8, 78, 90
12, 204119, Note_on_c, 8, 78, 0
12, 204120, Note_on_c, 8, 76, 90
12, 204149, Note_on_c, 8, 76, 0
12, 204150, Note_on_c, 8, 74, 90
12, 204179, Note_on_c, 8, 74, 0
12, 204180, Note_on_c, 8, 73, 90
12, 204209, Note_on_c, 8, 73, 0
12, 204210, Note_on_c, 8, 71, 90
12, 204239, Note_on_c, 8, 71, 0
12, 204240, Note_on_c, 8, 73, 90
12, 204269, Note_on_c, 8, 73, 0
12, 204270, Note_on_c, 8, 76, 90
12, 204299, Note_on_c, 8, 76, 0
12, 204300, Note_on_c, 8, 74, 90
12, 204329, Note_on_c, 8, 74, 0
12, 204330, Note_on_c, 8, 73, 90
12, 204359, Note_on_c, 8, 73, 0
12, 204360, Note_on_c, 8, 71, 90
12, 204389, Note_on_c, 8, 71, 0
12, 204390, Note_on_c, 8, 69, 90
12, 204419, Note_on_c, 8, 69, 0
12, 204420, Note_on_c, 8, 81, 90
12, 204990, Note_on_c, 8, 81, 0
12, 204990, Note_on_c, 8, 62, 90
12, 205019, Note_on_c, 8, 62, 0
12, 205020, Note_on_c, 8, 64, 90
12, 205049, Note_on_c, 8, 64, 0
12, 205050, Note_on_c, 8, 66, 90
12, 205079, Note_on_c, 8, 66, 0
12, 205080, Note_on_c, 8, 68, 90
12, 205109, Note_on_c, 8, 68, 0
12, 205110, Note_on_c, 8, 69, 90
12, 205139, Note_on_c, 8, 69, 0
12, 205140, Note_on_c, 8, 71, 90
12, 205169, Note_on_c, 8, 71, 0
12, 205170, Note_on_c, 8, 73, 90
12, 205199, Note_on_c, 8, 73, 0
12, 205200, Note_on_c, 8, 74, 90
12, 205229, Note_on_c, 8, 74, 0
12, 205230, Note_on_c, 8, 71, 90
12, 205259, Note_on_c, 8, 71, 0
12, 205260, Note_on_c, 8, 80, 90
12, 205289, Note_on_c, 8, 80, 0
12, 205290, Note_on_c, 8, 74, 90
12, 205319, Note_on_c, 8, 74, 0
12, 205320, Note_on_c, 8, 81, 90
12, 205349, Note_on_c, 8, 81, 0
12, 205350, Note_on_c, 8, 76, 90
12, 205379, Note_on_c, 8, 76, 0
12, 205380, Note_on_c, 8, 73, 90
12, 205409, Note_on_c, 8, 73, 0
12, 205410, Note_on_c, 8, 71, 90
12, 205439, Note_on_c, 8, 71, 0
12, 205440, Note_on_c, 8, 69, 90
12, 205469, Note_on_c, 8, 69, 0
12, 205470, Note_on_c, 8, 64, 90
12, 205499, Note_on_c, 8, 64, 0
12, 205500, Note_on_c, 8, 69, 90
12, 205529, Note_on_c, 8, 69, 0
12, 205530, Note_on_c, 8, 73, 90
12, 205559, Note_on_c, 8, 73, 0
12, 205560, Note_on_c, 8, 76, 90
12, 205589, Note_on_c, 8, 76, 0
12, 205590, Note_on_c, 8, 73, 90
12, 205619, Note_on_c, 8, 73, 0
12, 205620, Note_on_c, 8, 81, 90
12, 205649, Note_on_c, 8, 81, 0
12, 205650, Note_on_c, 8, 76, 90
12, 205679, Note_on_c, 8, 76, 0
12, 205680, Note_on_c, 8, 83, 90
12, 205709, Note_on_c, 8, 83, 0
12, 205710, Note_on_c, 8, 80, 90
12, 205739, Note_on_c, 8, 80, 0
12, 205740, Note_on_c, 8, 74, 90
12, 205769, Note_on_c, 8, 74, 0
12, 205770, Note_on_c, 8, 73, 90
12, 205799, Note_on_c, 8, 73, 0
12, 205800, Note_on_c, 8, 71, 90
12, 205829, Note_on_c, 8, 71, 0
12, 205830, Note_on_c, 8, 64, 90
12, 205859, Note_on_c, 8, 64, 0
12, 205860, Note_on_c, 8, 71, 90
12, 205889, Note_on_c, 8, 71, 0
12, 205890, Note_on_c, 8, 74, 90
12, 205919, Note_on_c, 8, 74, 0
12, 205920, Note_on_c, 8, 80, 90
12, 205949, Note_on_c, 8, 80, 0
12, 205950, Note_on_c, 8, 74, 90
12, 205979, Note_on_c, 8, 74, 0
12, 205980, Note_on_c, 8, 83, 90
12, 206009, Note_on_c, 8, 83, 0
12, 206010, Note_on_c, 8, 80, 90
12, 206039, Note_on_c, 8, 80, 0
12, 206040, Note_on_c, 8, 85, 90
12, 206069, Note_on_c, 8, 85, 0
12, 206070, Note_on_c, 8, 80, 90
12, 206099, Note_on_c, 8, 80, 0
12, 206100, Note_on_c, 8, 81, 90
12, 206129, Note_on_c, 8, 81, 0
12, 206130, Note_on_c, 8, 76, 90
12, 206159, Note_on_c, 8, 76, 0
12, 206160, Note_on_c, 8, 73, 90
12, 206189, Note_on_c, 8, 73, 0
12, 206190, Note_on_c, 8, 69, 90
12, 206219, Note_on_c, 8, 69, 0
12, 206220, Note_on_c, 8, 64, 90
12, 206249, Note_on_c, 8, 64, 0
12, 206250, Note_on_c, 8, 66, 90
12, 206264, Note_on_c, 8, 66, 0
12, 206265, Note_on_c, 8, 68, 90
12, 206279, Note_on_c, 8, 68, 0
12, 206280, Note_on_c, 8, 69, 90
12, 206294, Note_on_c, 8, 69, 0
12, 206295, Note_on_c, 8, 71, 90
12, 206309, Note_on_c, 8, 71, 0
12, 206310, Note_on_c, 8, 73, 90
12, 206324, Note_on_c, 8, 73, 0
12, 206325, Note_on_c, 8, 74, 90
12, 206339, Note_on_c, 8, 74, 0
12, 206340, Note_on_c, 8, 76, 90
12, 206354, Note_on_c, 8, 76, 0
12, 206355, Note_on_c, 8, 78, 90
12, 206369, Note_on_c, 8, 78, 0
12, 206370, Note_on_c, 8, 80, 90
12, 206399, Note_on_c, 8, 80, 0
12, 206400, Note_on_c, 8, 81, 90
12, 206429, Note_on_c, 8, 81, 0
12, 206430, Note_on_c, 8, 76, 90
12, 206459, Note_on_c, 8, 76, 0
12, 206460, Note_on_c, 8, 73, 90
12, 206489, Note_on_c, 8, 73, 0
12, 206490, Note_on_c, 8, 69, 90
12, 206519, Note_on_c, 8, 69, 0
12, 206520, Note_on_c, 8, 64, 90
12, 206549, Note_on_c, 8, 64, 0
12, 206550, Note_on_c, 8, 61, 90
12, 206579, Note_on_c, 8, 61, 0
12, 206580, Note_on_c, 8, 57, 90
12, 206609, Note_on_c, 8, 57, 0
12, 206610, Note_on_c, 8, 61, 90
12, 206639, Note_on_c, 8, 61, 0
12, 206640, Note_on_c, 8, 64, 90
12, 206669, Note_on_c, 8, 64, 0
12, 206670, Note_on_c, 8, 69, 90
12, 206699, Note_on_c, 8, 69, 0
12, 206700, Note_on_c, 8, 73, 90
12, 206729, Note_on_c, 8, 73, 0
12, 206730, Note_on_c, 8, 76, 90
12, 206759, Note_on_c, 8, 76, 0
12, 206760, Note_on_c, 8, 73, 90
12, 206819, Note_on_c, 8, 73, 0
12, 206820, Note_on_c, 8, 71, 90
12, 206879, Note_on_c, 8, 71, 0
12, 206880, Note_on_c, 8, 74, 90
12, 206999, Note_on_c, 8, 74, 0
12, 207000, Note_on_c, 8, 73, 90
12, 207059, Note_on_c, 8, 73, 0
12, 207060, Note_on_c, 8, 71, 90
12, 207119, Note_on_c, 8, 71, 0
12, 207120, Note_on_c, 8, 68, 90
12, 207239, Note_on_c, 8, 68, 0
12, 207660, Note_on_c, 8, 68, 90
12, 207689, Note_on_c, 8, 68, 0
12, 207690, Note_on_c, 8, 73, 90
12, 207719, Note_on_c, 8, 73, 0
12, 207720, Note_on_c, 8, 77, 90
12, 207749, Note_on_c, 8, 77, 0
12, 207750, Note_on_c, 8, 80, 90
12, 207779, Note_on_c, 8, 80, 0
12, 207780, Note_on_c, 8, 81, 90
12, 207809, Note_on_c, 8, 81, 0
12, 207810, Note_on_c, 8, 83, 90
12, 207839, Note_on_c, 8, 83, 0
12, 207840, Note_on_c, 8, 81, 90
12, 207869, Note_on_c, 8, 81, 0
12, 207870, Note_on_c, 8, 77, 90
12, 207899, Note_on_c, 8, 77, 0
12, 207900, Note_on_c, 8, 78, 90
12, 207929, Note_on_c, 8, 78, 0
12, 207930, Note_on_c, 8, 73, 90
12, 207959, Note_on_c, 8, 73, 0
12, 207960, Note_on_c, 8, 69, 90
12, 207989, Note_on_c, 8, 69, 0
12, 207990, Note_on_c, 8, 66, 90
12, 208019, Note_on_c, 8, 66, 0
12, 208590, Note_on_c, 8, 83, 90
12, 208619, Note_on_c, 8, 83, 0
12, 208620, Note_on_c, 8, 81, 90
12, 208649, Note_on_c, 8, 81, 0
12, 208650, Note_on_c, 8, 80, 90
12, 208679, Note_on_c, 8, 80, 0
12, 208680, Note_on_c, 8, 78, 90
12, 208709, Note_on_c, 8, 78, 0
12, 208710, Note_on_c, 8, 76, 90
12, 208739, Note_on_c, 8, 76, 0
12, 208740, Note_on_c, 8, 75, 90
12, 208859, Note_on_c, 8, 75, 0
12, 208950, Note_on_c, 8, 59, 90
12, 208979, Note_on_c, 8, 59, 0
12, 208980, Note_on_c, 8, 61, 90
12, 209009, Note_on_c, 8, 61, 0
12, 209010, Note_on_c, 8, 63, 90
12, 209039, Note_on_c, 8, 63, 0
12, 209040, Note_on_c, 8, 64, 90
12, 209069, Note_on_c, 8, 64, 0
12, 209070, Note_on_c, 8, 66, 90
12, 209099, Note_on_c, 8, 66, 0
12, 209100, Note_on_c, 8, 68, 90
12, 209129, Note_on_c, 8, 68, 0
12, 209130, Note_on_c, 8, 71, 90
12, 209159, Note_on_c, 8, 71, 0
12, 209160, Note_on_c, 8, 69, 90
12, 209189, Note_on_c, 8, 69, 0
12, 209190, Note_on_c, 8, 68, 90
12, 209219, Note_on_c, 8, 68, 0
12, 209220, Note_on_c, 8, 66, 90
12, 209249, Note_on_c, 8, 66, 0
12, 209250, Note_on_c, 8, 65, 90
12, 209279, Note_on_c, 8, 65, 0
12, 209280, Note_on_c, 8, 66, 90
12, 209309, Note_on_c, 8, 66, 0
12, 209310, Note_on_c, 8, 68, 90
12, 209339, Note_on_c, 8, 68, 0
12, 209340, Note_on_c, 8, 69, 90
12, 209369, Note_on_c, 8, 69, 0
12, 209370, Note_on_c, 8, 71, 90
12, 209399, Note_on_c, 8, 71, 0
12, 209400, Note_on_c, 8, 73, 90
12, 209429, Note_on_c, 8, 73, 0
12, 209430, Note_on_c, 8, 75, 90
12, 209459, Note_on_c, 8, 75, 0
12, 209460, Note_on_c, 8, 76, 90
12, 209489, Note_on_c, 8, 76, 0
12, 209490, Note_on_c, 8, 80, 90
12, 209519, Note_on_c, 8, 80, 0
12, 209520, Note_on_c, 8, 78, 90
12, 209549, Note_on_c, 8, 78, 0
12, 209550, Note_on_c, 8, 76, 90
12, 209579, Note_on_c, 8, 76, 0
12, 209580, Note_on_c, 8, 75, 90
12, 209609, Note_on_c, 8, 75, 0
12, 209610, Note_on_c, 8, 73, 90
12, 209639, Note_on_c, 8, 73, 0
12, 209640, Note_on_c, 8, 75, 90
12, 209669, Note_on_c, 8, 75, 0
12, 209670, Note_on_c, 8, 76, 90
12, 209699, Note_on_c, 8, 76, 0
12, 209700, Note_on_c, 8, 78, 90
12, 209729, Note_on_c, 8, 78, 0
12, 209730, Note_on_c, 8, 80, 90
12, 209759, Note_on_c, 8, 80, 0
12, 209760, Note_on_c, 8, 81, 90
12, 209789, Note_on_c, 8, 81, 0
12, 209790, Note_on_c, 8, 78, 90
12, 209819, Note_on_c, 8, 78, 0
12, 209820, Note_on_c, 8, 72, 90
12, 209849, Note_on_c, 8, 72, 0
12, 209850, Note_on_c, 8, 75, 90
12, 209879, Note_on_c, 8, 75, 0
12, 209880, Note_on_c, 8, 73, 90
12, 209909, Note_on_c, 8, 73, 0
12, 209910, Note_on_c, 8, 72, 90
12, 209939, Note_on_c, 8, 72, 0
12, 209940, Note_on_c, 8, 70, 90
12, 209969, Note_on_c, 8, 70, 0
12, 209970, Note_on_c, 8, 68, 90
12, 209999, Note_on_c, 8, 68, 0
12, 210000, Note_on_c, 8, 80, 90
12, 210059, Note_on_c, 8, 80, 0
12, 210390, Note_on_c, 8, 90, 90
12, 210419, Note_on_c, 8, 90, 0
12, 210420, Note_on_c, 8, 88, 90
12, 210449, Note_on_c, 8, 88, 0
12, 210450, Note_on_c, 8, 87, 90
12, 210479, Note_on_c, 8, 87, 0
12, 210480, Note_on_c, 8, 85, 90
12, 210509, Note_on_c, 8, 85, 0
12, 210510, Note_on_c, 8, 83, 90
12, 210539, Note_on_c, 8, 83, 0
12, 210540, Note_on_c, 8, 81, 90
12, 210569, Note_on_c, 8, 81, 0
12, 210570, Note_on_c, 8, 85, 90
12, 210599, Note_on_c, 8, 85, 0
12, 210600, Note_on_c, 8, 83, 90
12, 210629, Note_on_c, 8, 83, 0
12, 210630, Note_on_c, 8, 81, 90
12, 210659, Note_on_c, 8, 81, 0
12, 210660, Note_on_c, 8, 80, 90
12, 210689, Note_on_c, 8, 80, 0
12, 210690, Note_on_c, 8, 78, 90
12, 210719, Note_on_c, 8, 78, 0
12, 210720, Note_on_c, 8, 80, 90
12, 210749, Note_on_c, 8, 80, 0
12, 210750, Note_on_c, 8, 83, 90
12, 210779, Note_on_c, 8, 83, 0
12, 210780, Note_on_c, 8, 81, 90
12, 210809, Note_on_c, 8, 81, 0
12, 210810, Note_on_c, 8, 80, 90
12, 210839, Note_on_c, 8, 80, 0
12, 210840, Note_on_c, 8, 78, 90
12, 210869, Note_on_c, 8, 78, 0
12, 210870, Note_on_c, 8, 76, 90
12, 210899, Note_on_c, 8, 76, 0
12, 210900, Note_on_c, 8, 88, 90
12, 211530, Note_on_c, 8, 88, 0
12, 211530, Note_on_c, 8, 64, 90
12, 211559, Note_on_c, 8, 64, 0
12, 211560, Note_on_c, 8, 68, 90
12, 211589, Note_on_c, 8, 68, 0
12, 211590, Note_on_c, 8, 71, 90
12, 211619, Note_on_c, 8, 71, 0
12, 211620, Note_on_c, 8, 74, 90
12, 211649, Note_on_c, 8, 74, 0
12, 211650, Note_on_c, 8, 71, 90
12, 211679, Note_on_c, 8, 71, 0
12, 211680, Note_on_c, 8, 80, 90
12, 211709, Note_on_c, 8, 80, 0
12, 211710, Note_on_c, 8, 74, 90
12, 211739, Note_on_c, 8, 74, 0
12, 211740, Note_on_c, 8, 83, 90
12, 211769, Note_on_c, 8, 83, 0
12, 211770, Note_on_c, 8, 74, 90
12, 211799, Note_on_c, 8, 74, 0
12, 211800, Note_on_c, 8, 73, 90
12, 211829, Note_on_c, 8, 73, 0
12, 211830, Note_on_c, 8, 71, 90
12, 211859, Note_on_c, 8, 71, 0
12, 211860, Note_on_c, 8, 69, 90
12, 211889, Note_on_c, 8, 69, 0
12, 211890, Note_on_c, 8, 64, 90
12, 211919, Note_on_c, 8, 64, 0
12, 211920, Note_on_c, 8, 69, 90
12, 211949, Note_on_c, 8, 69, 0
12, 211950, Note_on_c, 8, 73, 90
12, 211979, Note_on_c, 8, 73, 0
12, 211980, Note_on_c, 8, 76, 90
12, 212009, Note_on_c, 8, 76, 0
12, 212010, Note_on_c, 8, 73, 90
12, 212039, Note_on_c, 8, 73, 0
12, 212040, Note_on_c, 8, 82, 90
12, 212069, Note_on_c, 8, 82, 0
12, 212070, Note_on_c, 8, 76, 90
12, 212099, Note_on_c, 8, 76, 0
12, 212100, Note_on_c, 8, 85, 90
12, 212129, Note_on_c, 8, 85, 0
12, 212130, Note_on_c, 8, 76, 90
12, 212159, Note_on_c, 8, 76, 0
12, 212160, Note_on_c, 8, 75, 90
12, 212189, Note_on_c, 8, 75, 0
12, 212190, Note_on_c, 8, 73, 90
12, 212219, Note_on_c, 8, 73, 0
12, 212220, Note_on_c, 8, 71, 90
12, 212249, Note_on_c, 8, 71, 0
12, 212250, Note_on_c, 8, 66, 90
12, 212279, Note_on_c, 8, 66, 0
12, 212280, Note_on_c, 8, 71, 90
12, 212309, Note_on_c, 8, 71, 0
12, 212310, Note_on_c, 8, 75, 90
12, 212339, Note_on_c, 8, 75, 0
12, 212340, Note_on_c, 8, 78, 90
12, 212369, Note_on_c, 8, 78, 0
12, 212370, Note_on_c, 8, 69, 90
12, 212399, Note_on_c, 8, 69, 0
12, 212400, Note_on_c, 8, 83, 90
12, 212429, Note_on_c, 8, 83, 0
12, 212430, Note_on_c, 8, 69, 90
12, 212459, Note_on_c, 8, 69, 0
12, 212460, Note_on_c, 8, 87, 90
12, 212489, Note_on_c, 8, 87, 0
12, 212490, Note_on_c, 8, 69, 90
12, 212519, Note_on_c, 8, 69, 0
12, 212520, Note_on_c, 8, 88, 90
12, 212549, Note_on_c, 8, 88, 0
12, 212550, Note_on_c, 8, 83, 90
12, 212579, Note_on_c, 8, 83, 0
12, 212580, Note_on_c, 8, 80, 90
12, 212609, Note_on_c, 8, 80, 0
12, 212610, Note_on_c, 8, 78, 90
12, 212639, Note_on_c, 8, 78, 0
12, 212640, Note_on_c, 8, 76, 90
12, 212669, Note_on_c, 8, 76, 0
12, 212670, Note_on_c, 8, 71, 90
12, 212699, Note_on_c, 8, 71, 0
12, 212700, Note_on_c, 8, 76, 90
12, 212729, Note_on_c, 8, 76, 0
12, 212730, Note_on_c, 8, 80, 90
12, 212759, Note_on_c, 8, 80, 0
12, 212760, Note_on_c, 8, 83, 90
12, 212789, Note_on_c, 8, 83, 0
12, 212790, Note_on_c, 8, 80, 90
12, 212819, Note_on_c, 8, 80, 0
12, 212820, Note_on_c, 8, 88, 90
12, 212849, Note_on_c, 8, 88, 0
12, 212850, Note_on_c, 8, 83, 90
12, 212879, Note_on_c, 8, 83, 0
12, 212880, Note_on_c, 8, 90, 90
12, 212909, Note_on_c, 8, 90, 0
12, 212910, Note_on_c, 8, 87, 90
12, 212939, Note_on_c, 8, 87, 0
12, 212940, Note_on_c, 8, 81, 90
12, 212969, Note_on_c, 8, 81, 0
12, 212970, Note_on_c, 8, 80, 90
12, 212999, Note_on_c, 8, 80, 0
12, 213000, Note_on_c, 8, 78, 90
12, 213029, Note_on_c, 8, 78, 0
12, 213030, Note_on_c, 8, 71, 90
12, 213059, Note_on_c, 8, 71, 0
12, 213060, Note_on_c, 8, 78, 90
12, 213089, Note_on_c, 8, 78, 0
12, 213090, Note_on_c, 8, 81, 90
12, 213119, Note_on_c, 8, 81, 0
12, 213120, Note_on_c, 8, 87, 90
12, 213149, Note_on_c, 8, 87, 0
12, 213150, Note_on_c, 8, 81, 90
12, 213179, Note_on_c, 8, 81, 0
12, 213180, Note_on_c, 8, 90, 90
12, 213209, Note_on_c, 8, 90, 0
12, 213210, Note_on_c, 8, 87, 90
12, 213239, Note_on_c, 8, 87, 0
12, 213240, Note_on_c, 8, 92, 90
12, 213269, Note_on_c, 8, 92, 0
12, 213270, Note_on_c, 8, 87, 90
12, 213299, Note_on_c, 8, 87, 0
12, 213300, Note_on_c, 8, 88, 90
12, 213329, Note_on_c, 8, 88, 0
12, 213330, Note_on_c, 8, 83, 90
12, 213359, Note_on_c, 8, 83, 0
12, 213360, Note_on_c, 8, 80, 90
12, 213389, Note_on_c, 8, 80, 0
12, 213390, Note_on_c, 8, 76, 90
12, 213419, Note_on_c, 8, 76, 0
12, 213420, Note_on_c, 8, 71, 90
12, 213449, Note_on_c, 8, 71, 0
12, 213450, Note_on_c, 8, 73, 90
12, 213464, Note_on_c, 8, 73, 0
12, 213465, Note_on_c, 8, 75, 90
12, 213479, Note_on_c, 8, 75, 0
12, 213480, Note_on_c, 8, 76, 90
12, 213494, Note_on_c, 8, 76, 0
12, 213495, Note_on_c, 8, 78, 90
12, 213509, Note_on_c, 8, 78, 0
12, 213510, Note_on_c, 8, 80, 90
12, 213524, Note_on_c, 8, 80, 0
12, 213525, Note_on_c, 8, 81, 90
12, 213539, Note_on_c, 8, 81, 0
12, 213540, Note_on_c, 8, 83, 90
12, 213554, Note_on_c, 8, 83, 0
12, 213555, Note_on_c, 8, 85, 90
12, 213569, Note_on_c, 8, 85, 0
12, 213570, Note_on_c, 8, 87, 90
12, 213599, Note_on_c, 8, 87, 0
12, 213600, Note_on_c, 8, 88, 90
12, 213629, Note_on_c, 8, 88, 0
12, 213630, Note_on_c, 8, 83, 90
12, 213659, Note_on_c, 8, 83, 0
12, 213660, Note_on_c, 8, 80, 90
12, 213689, Note_on_c, 8, 80, 0
12, 213690, Note_on_c, 8, 76, 90
12, 213719, Note_on_c, 8, 76, 0
12, 213720, Note_on_c, 8, 71, 90
12, 213749, Note_on_c, 8, 71, 0
12, 213750, Note_on_c, 8, 68, 90
12, 213779, Note_on_c, 8, 68, 0
12, 213780, Note_on_c, 8, 64, 90
12, 214710, Note_on_c, 8, 64, 0
12, 214710, Note_on_c, 8, 64, 90
12, 214739, Note_on_c, 8, 64, 0
12, 214740, Note_on_c, 8, 63, 90
12, 214769, Note_on_c, 8, 63, 0
12, 214770, Note_on_c, 8, 64, 90
12, 214799, Note_on_c, 8, 64, 0
12, 214800, Note_on_c, 8, 70, 90
12, 214829, Note_on_c, 8, 70, 0
12, 214830, Note_on_c, 8, 64, 90
12, 214859, Note_on_c, 8, 64, 0
12, 214860, Note_on_c, 8, 73, 90
12, 214889, Note_on_c, 8, 73, 0
12, 214890, Note_on_c, 8, 64, 90
12, 214919, Note_on_c, 8, 64, 0
12, 214920, Note_on_c, 8, 70, 90
12, 214949, Note_on_c, 8, 70, 0
12, 214950, Note_on_c, 8, 64, 90
12, 214979, Note_on_c, 8, 64, 0
12, 214980, Note_on_c, 8, 63, 90
12, 215009, Note_on_c, 8, 63, 0
12, 215010, Note_on_c, 8, 64, 90
12, 215039, Note_on_c, 8, 64, 0
12, 215040, Note_on_c, 8, 63, 90
12, 215099, Note_on_c, 8, 63, 0
12, 216660, Note_on_c, 8, 64, 90
12, 216689, Note_on_c, 8, 64, 0
12, 216690, Note_on_c, 8, 68, 90
12, 216719, Note_on_c, 8, 68, 0
12, 216720, Note_on_c, 8, 71, 90
12, 216749, Note_on_c, 8, 71, 0
12, 216750, Note_on_c, 8, 76, 90
12, 216779, Note_on_c, 8, 76, 0
12, 216780, Note_on_c, 8, 80, 90
12, 216809, Note_on_c, 8, 80, 0
12, 216810, Note_on_c, 8, 83, 90
12, 216839, Note_on_c, 8, 83, 0
12, 216840, Note_on_c, 8, 80, 90
12, 216899, Note_on_c, 8, 80, 0
12, 216900, Note_on_c, 8, 78, 90
12, 216959, Note_on_c, 8, 78, 0
12, 216960, Note_on_c, 8, 81, 90
12, 217079, Note_on_c, 8, 81, 0
12, 217080, Note_on_c, 8, 80, 90
12, 217139, Note_on_c, 8, 80, 0
12, 217140, Note_on_c, 8, 78, 90
12, 217199, Note_on_c, 8, 78, 0
12, 217200, Note_on_c, 8, 75, 90
12, 217289, Note_on_c, 8, 75, 0
12, 217290, Note_on_c, 8, 73, 90
12, 217319, Note_on_c, 8, 73, 0
12, 217320, Note_on_c, 8, 71, 90
12, 217349, Note_on_c, 8, 71, 0
12, 217350, Note_on_c, 8, 69, 90
12, 217379, Note_on_c, 8, 69, 0
12, 217380, Note_on_c, 8, 68, 90
12, 217409, Note_on_c, 8, 68, 0
12, 217410, Note_on_c, 8, 71, 90
12, 217439, Note_on_c, 8, 71, 0
12, 217440, Note_on_c, 8, 76, 90
12, 217469, Note_on_c, 8, 76, 0
12, 217470, Note_on_c, 8, 80, 90
12, 217499, Note_on_c, 8, 80, 0
12, 217500, Note_on_c, 8, 83, 90
12, 217529, Note_on_c, 8, 83, 0
12, 217530, Note_on_c, 8, 86, 90
12, 217559, Note_on_c, 8, 86, 0
12, 217560, Note_on_c, 8, 85, 90
12, 217589, Note_on_c, 8, 85, 0
12, 217590, Note_on_c, 8, 80, 90
12, 217619, Note_on_c, 8, 80, 0
12, 217620, Note_on_c, 8, 81, 90
12, 217649, Note_on_c, 8, 81, 0
12, 217650, Note_on_c, 8, 76, 90
12, 217679, Note_on_c, 8, 76, 0
12, 217680, Note_on_c, 8, 73, 90
12, 217709, Note_on_c, 8, 73, 0
12, 217710, Note_on_c, 8, 69, 90
12, 217739, Note_on_c, 8, 69, 0
12, 217740, Note_on_c, 8, 66, 90
12, 217769, Note_on_c, 8, 66, 0
12, 217770, Note_on_c, 8, 69, 90
12, 217799, Note_on_c, 8, 69, 0
12, 217800, Note_on_c, 8, 75, 90
12, 217829, Note_on_c, 8, 75, 0
12, 217830, Note_on_c, 8, 78, 90
12, 217859, Note_on_c, 8, 78, 0
12, 217860, Note_on_c, 8, 81, 90
12, 217889, Note_on_c, 8, 81, 0
12, 217890, Note_on_c, 8, 85, 90
12, 217919, Note_on_c, 8, 85, 0
12, 217920, Note_on_c, 8, 83, 90
12, 217949, Note_on_c, 8, 83, 0
12, 217950, Note_on_c, 8, 78, 90
12, 217979, Note_on_c, 8, 78, 0
12, 217980, Note_on_c, 8, 80, 90
12, 218009, Note_on_c, 8, 80, 0
12, 218010, Note_on_c, 8, 75, 90
12, 218039, Note_on_c, 8, 75, 0
12, 218040, Note_on_c, 8, 71, 90
12, 218069, Note_on_c, 8, 71, 0
12, 218070, Note_on_c, 8, 68, 90
12, 218099, Note_on_c, 8, 68, 0
12, 218100, Note_on_c, 8, 64, 90
12, 218129, Note_on_c, 8, 64, 0
12, 218130, Note_on_c, 8, 68, 90
12, 218159, Note_on_c, 8, 68, 0
12, 218160, Note_on_c, 8, 73, 90
12, 218189, Note_on_c, 8, 73, 0
12, 218190, Note_on_c, 8, 76, 90
12, 218219, Note_on_c, 8, 76, 0
12, 218220, Note_on_c, 8, 80, 90
12, 218249, Note_on_c, 8, 80, 0
12, 218250, Note_on_c, 8, 83, 90
12, 218279, Note_on_c, 8, 83, 0
12, 218280, Note_on_c, 8, 81, 90
12, 218309, Note_on_c, 8, 81, 0
12, 218310, Note_on_c, 8, 76, 90
12, 218339, Note_on_c, 8, 76, 0
12, 218340, Note_on_c, 8, 78, 90
12, 218369, Note_on_c, 8, 78, 0
12, 218370, Note_on_c, 8, 73, 90
12, 218399, Note_on_c, 8, 73, 0
12, 218400, Note_on_c, 8, 69, 90
12, 218429, Note_on_c, 8, 69, 0
12, 218430, Note_on_c, 8, 66, 90
12, 218459, Note_on_c, 8, 66, 0
12, 218460, Note_on_c, 8, 63, 90
12, 218489, Note_on_c, 8, 63, 0
12, 218490, Note_on_c, 8, 66, 90
12, 218519, Note_on_c, 8, 66, 0
12, 218520, Note_on_c, 8, 71, 90
12, 218549, Note_on_c, 8, 71, 0
12, 218550, Note_on_c, 8, 75, 90
12, 218579, Note_on_c, 8, 75, 0
12, 218580, Note_on_c, 8, 78, 90
12, 218609, Note_on_c, 8, 78, 0
12, 218610, Note_on_c, 8, 81, 90
12, 218639, Note_on_c, 8, 81, 0
12, 218640, Note_on_c, 8, 80, 90
12, 218669, Note_on_c, 8, 80, 0
12, 218670, Note_on_c, 8, 75, 90
12, 218699, Note_on_c, 8, 75, 0
12, 218700, Note_on_c, 8, 76, 90
12, 218729, Note_on_c, 8, 76, 0
12, 218730, Note_on_c, 8, 71, 90
12, 218759, Note_on_c, 8, 71, 0
12, 218760, Note_on_c, 8, 68, 90
12, 218789, Note_on_c, 8, 68, 0
12, 218790, Note_on_c, 8, 71, 90
12, 218819, Note_on_c, 8, 71, 0
12, 218820, Note_on_c, 8, 74, 90
12, 218849, Note_on_c, 8, 74, 0
12, 218850, Note_on_c, 8, 71, 90
12, 218879, Note_on_c, 8, 71, 0
12, 218880, Note_on_c, 8, 80, 90
12, 218909, Note_on_c, 8, 80, 0
12, 218910, Note_on_c, 8, 74, 90
12, 218939, Note_on_c, 8, 74, 0
12, 218940, Note_on_c, 8, 83, 90
12, 218969, Note_on_c, 8, 83, 0
12, 218970, Note_on_c, 8, 74, 90
12, 218999, Note_on_c, 8, 74, 0
12, 219000, Note_on_c, 8, 73, 90
12, 219029, Note_on_c, 8, 73, 0
12, 219030, Note_on_c, 8, 71, 90
12, 219059, Note_on_c, 8, 71, 0
12, 219060, Note_on_c, 8, 69, 90
12, 219089, Note_on_c, 8, 69, 0
12, 219090, Note_on_c, 8, 64, 90
12, 219119, Note_on_c, 8, 64, 0
12, 219120, Note_on_c, 8, 69, 90
12, 219149, Note_on_c, 8, 69, 0
12, 219150, Note_on_c, 8, 73, 90
12, 219179, Note_on_c, 8, 73, 0
12, 219180, Note_on_c, 8, 76, 90
12, 219209, Note_on_c, 8, 76, 0
12, 219210, Note_on_c, 8, 73, 90
12, 219239, Note_on_c, 8, 73, 0
12, 219240, Note_on_c, 8, 82, 90
12, 219269, Note_on_c, 8, 82, 0
12, 219270, Note_on_c, 8, 76, 90
12, 219299, Note_on_c, 8, 76, 0
12, 219300, Note_on_c, 8, 85, 90
12, 219329, Note_on_c, 8, 85, 0
12, 219330, Note_on_c, 8, 76, 90
12, 219359, Note_on_c, 8, 76, 0
12, 219360, Note_on_c, 8, 75, 90
12, 219389, Note_on_c, 8, 75, 0
12, 219390, Note_on_c, 8, 73, 90
12, 219419, Note_on_c, 8, 73, 0
12, 219420, Note_on_c, 8, 71, 90
12, 219449, Note_on_c, 8, 71, 0
12, 219450, Note_on_c, 8, 66, 90
12, 219479, Note_on_c, 8, 66, 0
12, 219480, Note_on_c, 8, 71, 90
12, 219509, Note_on_c, 8, 71, 0
12, 219510, Note_on_c, 8, 75, 90
12, 219539, Note_on_c, 8, 75, 0
12, 219540, Note_on_c, 8, 78, 90
12, 219569, Note_on_c, 8, 78, 0
12, 219570, Note_on_c, 8, 69, 90
12, 219599, Note_on_c, 8, 69, 0
12, 219600, Note_on_c, 8, 83, 90
12, 219629, Note_on_c, 8, 83, 0
12, 219630, Note_on_c, 8, 69, 90
12, 219659, Note_on_c, 8, 69, 0
12, 219660, Note_on_c, 8, 87, 90
12, 219689, Note_on_c, 8, 87, 0
12, 219690, Note_on_c, 8, 69, 90
12, 219719, Note_on_c, 8, 69, 0
12, 219720, Note_on_c, 8, 88, 90
12, 219749, Note_on_c, 8, 88, 0
12, 219750, Note_on_c, 8, 83, 90
12, 219779, Note_on_c, 8, 83, 0
12, 219780, Note_on_c, 8, 80, 90
12, 219809, Note_on_c, 8, 80, 0
12, 219810, Note_on_c, 8, 78, 90
12, 219839, Note_on_c, 8, 78, 0
12, 219840, Note_on_c, 8, 76, 90
12, 219869, Note_on_c, 8, 76, 0
12, 219870, Note_on_c, 8, 71, 90
12, 219899, Note_on_c, 8, 71, 0
12, 219900, Note_on_c, 8, 76, 90
12, 219929, Note_on_c, 8, 76, 0
12, 219930, Note_on_c, 8, 80, 90
12, 219959, Note_on_c, 8, 80, 0
12, 219960, Note_on_c, 8, 83, 90
12, 219989, Note_on_c, 8, 83, 0
12, 219990, Note_on_c, 8, 80, 90
12, 220019, Note_on_c, 8, 80, 0
12, 220020, Note_on_c, 8, 88, 90
12, 220049, Note_on_c, 8, 88, 0
12, 220050, Note_on_c, 8, 83, 90
12, 220079, Note_on_c, 8, 83, 0
12, 220080, Note_on_c, 8, 90, 90
12, 220109, Note_on_c, 8, 90, 0
12, 220110, Note_on_c, 8, 87, 90
12, 220139, Note_on_c, 8, 87, 0
12, 220140, Note_on_c, 8, 81, 90
12, 220169, Note_on_c, 8, 81, 0
12, 220170, Note_on_c, 8, 80, 90
12, 220199, Note_on_c, 8, 80, 0
12, 220200, Note_on_c, 8, 78, 90
12, 220229, Note_on_c, 8, 78, 0
12, 220230, Note_on_c, 8, 71, 90
12, 220259, Note_on_c, 8, 71, 0
12, 220260, Note_on_c, 8, 78, 90
12, 220289, Note_on_c, 8, 78, 0
12, 220290, Note_on_c, 8, 81, 90
12, 220319, Note_on_c, 8, 81, 0
12, 220320, Note_on_c, 8, 87, 90
12, 220349, Note_on_c, 8, 87, 0
12, 220350, Note_on_c, 8, 81, 90
12, 220379, Note_on_c, 8, 81, 0
12, 220380, Note_on_c, 8, 90, 90
12, 220409, Note_on_c, 8, 90, 0
12, 220410, Note_on_c, 8, 87, 90
12, 220439, Note_on_c, 8, 87, 0
12, 220440, Note_on_c, 8, 92, 90
12, 220469, Note_on_c, 8, 92, 0
12, 220470, Note_on_c, 8, 87, 90
12, 220499, Note_on_c, 8, 87, 0
12, 220500, Note_on_c, 8, 88, 90
12, 220529, Note_on_c, 8, 88, 0
12, 220530, Note_on_c, 8, 83, 90
12, 220559, Note_on_c, 8, 83, 0
12, 220560, Note_on_c, 8, 80, 90
12, 220589, Note_on_c, 8, 80, 0
12, 220590, Note_on_c, 8, 76, 90
12, 220619, Note_on_c, 8, 76, 0
12, 220620, Note_on_c, 8, 71, 90
12, 220649, Note_on_c, 8, 71, 0
12, 220650, Note_on_c, 8, 73, 90
12, 220664, Note_on_c, 8, 73, 0
12, 220665, Note_on_c, 8, 75, 90
12, 220679, Note_on_c, 8, 75, 0
12, 220680, Note_on_c, 8, 76, 90
12, 220694, Note_on_c, 8, 76, 0
12, 220695, Note_on_c, 8, 78, 90
12, 220709, Note_on_c, 8, 78, 0
12, 220710, Note_on_c, 8, 80, 90
12, 220724, Note_on_c, 8, 80, 0
12, 220725, Note_on_c, 8, 81, 90
12, 220739, Note_on_c, 8, 81, 0
12, 220740, Note_on_c, 8, 83, 90
12, 220754, Note_on_c, 8, 83, 0
12, 220755, Note_on_c, 8, 85, 90
12, 220769, Note_on_c, 8, 85, 0
12, 220770, Note_on_c, 8, 87, 90
12, 220799, Note_on_c, 8, 87, 0
12, 220800, Note_on_c, 8, 88, 90
12, 220829, Note_on_c, 8, 88, 0
12, 220830, Note_on_c, 8, 83, 90
12, 220859, Note_on_c, 8, 83, 0
12, 220860, Note_on_c, 8, 80, 90
12, 220889, Note_on_c, 8, 80, 0
12, 220890, Note_on_c, 8, 76, 90
12, 220919, Note_on_c, 8, 76, 0
12, 220920, Note_on_c, 8, 71, 90
12, 220949, Note_on_c, 8, 71, 0
12, 220950, Note_on_c, 8, 68, 90
12, 220979, Note_on_c, 8, 68, 0
12, 220980, Note_on_c, 8, 64, 90
12, 221099, Note_on_c, 8, 64, 0
12, 221099, End_track
13, 0, Start_track
13, 0, MIDI_port, 0
13, 0, Title_t, "Viola D'amore"
13, 126900, Control_c, 8, 0, 0
13, 126900, Program_c, 8, 40
13, 126900, Note_on_c, 8, 71, 100
13, 126930, Note_on_c, 8, 71, 0
13, 126930, Note_on_c, 8, 73, 100
13, 126960, Note_on_c, 8, 73, 0
13, 126960, Note_on_c, 8, 74, 100
13, 127020, Note_on_c, 8, 74, 0
13, 127020, Note_on_c, 8, 73, 100
13, 127080, Note_on_c, 8, 73, 0
13, 127080, Note_on_c, 8, 71, 100
13, 127140, Note_on_c, 8, 71, 0
13, 127140, Note_on_c, 8, 66, 100
13, 127170, Note_on_c, 8, 66, 0
13, 127170, Note_on_c, 8, 64, 100
13, 127200, Note_on_c, 8, 64, 0
13, 127200, Note_on_c, 8, 66, 100
13, 127260, Note_on_c, 8, 66, 0
13, 127260, Note_on_c, 8, 73, 100
13, 127290, Note_on_c, 8, 73, 0
13, 127290, Note_on_c, 8, 74, 100
13, 127320, Note_on_c, 8, 74, 0
13, 127320, Note_on_c, 8, 76, 100
13, 127350, Note_on_c, 8, 76, 0
13, 127350, Note_on_c, 8, 73, 100
13, 127380, Note_on_c, 8, 73, 0
13, 127380, Note_on_c, 8, 74, 100
13, 127410, Note_on_c, 8, 74, 0
13, 127410, Note_on_c, 8, 71, 100
13, 127440, Note_on_c, 8, 71, 0
13, 127440, Note_on_c, 8, 73, 100
13, 127500, Note_on_c, 8, 73, 0
13, 127500, Note_on_c, 8, 66, 100
13, 127530, Note_on_c, 8, 66, 0
13, 127530, Note_on_c, 8, 64, 100
13, 127560, Note_on_c, 8, 64, 0
13, 127560, Note_on_c, 8, 66, 100
13, 127620, Note_on_c, 8, 66, 0
13, 127620, Note_on_c, 8, 74, 100
13, 127830, Note_on_c, 8, 74, 0
13, 127830, Note_on_c, 8, 71, 100
13, 127860, Note_on_c, 8, 71, 0
13, 127860, Note_on_c, 8, 70, 100
13, 127890, Note_on_c, 8, 70, 0
13, 127890, Note_on_c, 8, 71, 100
13, 127920, Note_on_c, 8, 71, 0
13, 127920, Note_on_c, 8, 79, 100
13, 127950, Note_on_c, 8, 79, 0
13, 127950, Note_on_c, 8, 76, 100
13, 127980, Note_on_c, 8, 76, 0
13, 127980, Note_on_c, 8, 73, 100
13, 128190, Note_on_c, 8, 73, 0
13, 128190, Note_on_c, 8, 69, 100
13, 128220, Note_on_c, 8, 69, 0
13, 128220, Note_on_c, 8, 68, 100
13, 128250, Note_on_c, 8, 68, 0
13, 128250, Note_on_c, 8, 69, 100
13, 128280, Note_on_c, 8, 69, 0
13, 128280, Note_on_c, 8, 78, 100
13, 128310, Note_on_c, 8, 78, 0
13, 128310, Note_on_c, 8, 74, 100
13, 128340, Note_on_c, 8, 74, 0
13, 128340, Note_on_c, 8, 71, 100
13, 128730, Note_on_c, 8, 71, 0
13, 128730, Note_on_c, 8, 74, 100
13, 128760, Note_on_c, 8, 74, 0
13, 128760, Note_on_c, 8, 79, 100
13, 128790, Note_on_c, 8, 79, 0
13, 128790, Note_on_c, 8, 78, 100
13, 128820, Note_on_c, 8, 78, 0
13, 128820, Note_on_c, 8, 70, 100
13, 128850, Note_on_c, 8, 70, 0
13, 128850, Note_on_c, 8, 71, 100
13, 128880, Note_on_c, 8, 71, 0
13, 128880, Note_on_c, 8, 71, 100
13, 129000, Note_on_c, 8, 71, 0
13, 129060, Note_on_c, 8, 74, 100
13, 129090, Note_on_c, 8, 74, 0
13, 129090, Note_on_c, 8, 76, 100
13, 129120, Note_on_c, 8, 76, 0
13, 129120, Note_on_c, 8, 78, 100
13, 129180, Note_on_c, 8, 78, 0
13, 129180, Note_on_c, 8, 70, 100
13, 129240, Note_on_c, 8, 70, 0
13, 129240, Note_on_c, 8, 71, 100
13, 129300, Note_on_c, 8, 71, 0
13, 129300, Note_on_c, 8, 62, 100
13, 129330, Note_on_c, 8, 62, 0
13, 129330, Note_on_c, 8, 61, 100
13, 129360, Note_on_c, 8, 61, 0
13, 129360, Note_on_c, 8, 62, 100
13, 129390, Note_on_c, 8, 62, 0
13, 129390, Note_on_c, 8, 66, 100
13, 129420, Note_on_c, 8, 66, 0
13, 129420, Note_on_c, 8, 70, 100
13, 129450, Note_on_c, 8, 70, 0
13, 129450, Note_on_c, 8, 71, 100
13, 129480, Note_on_c, 8, 71, 0
13, 129480, Note_on_c, 8, 73, 100
13, 129540, Note_on_c, 8, 73, 0
13, 129540, Note_on_c, 8, 78, 100
13, 129600, Note_on_c, 8, 78, 0
13, 129600, Note_on_c, 8, 70, 100
13, 129630, Note_on_c, 8, 70, 0
13, 129630, Note_on_c, 8, 74, 100
13, 129660, Note_on_c, 8, 74, 0
13, 129660, Note_on_c, 8, 73, 100
13, 129720, Note_on_c, 8, 73, 0
13, 129780, Note_on_c, 8, 66, 100
13, 130500, Note_on_c, 8, 66, 0
13, 130500, Note_on_c, 8, 78, 100
13, 130530, Note_on_c, 8, 78, 0
13, 130530, Note_on_c, 8, 73, 100
13, 130560, Note_on_c, 8, 73, 0
13, 130560, Note_on_c, 8, 74, 100
13, 130590, Note_on_c, 8, 74, 0
13, 130590, Note_on_c, 8, 78, 100
13, 130620, Note_on_c, 8, 78, 0
13, 130620, Note_on_c, 8, 82, 100
13, 130650, Note_on_c, 8, 82, 0
13, 130650, Note_on_c, 8, 83, 100
13, 130680, Note_on_c, 8, 83, 0
13, 130680, Note_on_c, 8, 79, 100
13, 130890, Note_on_c, 8, 79, 0
13, 130890, Note_on_c, 8, 74, 100
13, 130920, Note_on_c, 8, 74, 0
13, 130920, Note_on_c, 8, 76, 100
13, 130950, Note_on_c, 8, 76, 0
13, 130950, Note_on_c, 8, 79, 100
13, 130980, Note_on_c, 8, 79, 0
13, 130980, Note_on_c, 8, 71, 100
13, 131010, Note_on_c, 8, 71, 0
13, 131010, Note_on_c, 8, 69, 100
13, 131040, Note_on_c, 8, 69, 0
13, 131040, Note_on_c, 8, 78, 100
13, 131250, Note_on_c, 8, 78, 0
13, 131250, Note_on_c, 8, 83, 100
13, 131280, Note_on_c, 8, 83, 0
13, 131280, Note_on_c, 8, 79, 100
13, 131310, Note_on_c, 8, 79, 0
13, 131310, Note_on_c, 8, 75, 100
13, 131340, Note_on_c, 8, 75, 0
13, 131340, Note_on_c, 8, 76, 100
13, 131370, Note_on_c, 8, 76, 0
13, 131370, Note_on_c, 8, 73, 100
13, 131400, Note_on_c, 8, 73, 0
13, 131400, Note_on_c, 8, 74, 100
13, 131430, Note_on_c, 8, 74, 0
13, 131430, Note_on_c, 8, 83, 100
13, 131460, Note_on_c, 8, 83, 0
13, 131460, Note_on_c, 8, 78, 100
13, 131490, Note_on_c, 8, 78, 0
13, 131490, Note_on_c, 8, 73, 100
13, 131520, Note_on_c, 8, 73, 0
13, 131520, Note_on_c, 8, 74, 100
13, 131550, Note_on_c, 8, 74, 0
13, 131550, Note_on_c, 8, 71, 100
13, 131580, Note_on_c, 8, 71, 0
13, 131580, Note_on_c, 8, 73, 100
13, 131790, Note_on_c, 8, 73, 0
13, 131790, Note_on_c, 8, 79, 100
13, 131820, Note_on_c, 8, 79, 0
13, 131820, Note_on_c, 8, 78, 100
13, 131850, Note_on_c, 8, 78, 0
13, 131850, Note_on_c, 8, 74, 100
13, 131880, Note_on_c, 8, 74, 0
13, 131880, Note_on_c, 8, 76, 100
13, 131910, Note_on_c, 8, 76, 0
13, 131910, Note_on_c, 8, 73, 100
13, 131940, Note_on_c, 8, 73, 0
13, 131940, Note_on_c, 8, 74, 100
13, 131970, Note_on_c, 8, 74, 0
13, 131970, Note_on_c, 8, 73, 100
13, 132000, Note_on_c, 8, 73, 0
13, 132000, Note_on_c, 8, 76, 100
13, 132030, Note_on_c, 8, 76, 0
13, 132030, Note_on_c, 8, 74, 100
13, 132060, Note_on_c, 8, 74, 0
13, 132060, Note_on_c, 8, 73, 100
13, 132090, Note_on_c, 8, 73, 0
13, 132090, Note_on_c, 8, 71, 100
13, 132120, Note_on_c, 8, 71, 0
13, 132120, Note_on_c, 8, 70, 100
13, 132150, Note_on_c, 8, 70, 0
13, 132150, Note_on_c, 8, 67, 100
13, 132180, Note_on_c, 8, 67, 0
13, 132180, Note_on_c, 8, 66, 100
13, 132240, Note_on_c, 8, 66, 0
13, 132510, Note_on_c, 8, 73, 100
13, 132540, Note_on_c, 8, 73, 0
13, 132540, Note_on_c, 8, 71, 100
13, 132570, Note_on_c, 8, 71, 0
13, 132570, Note_on_c, 8, 68, 100
13, 132600, Note_on_c, 8, 68, 0
13, 132600, Note_on_c, 8, 69, 100
13, 132630, Note_on_c, 8, 69, 0
13, 132630, Note_on_c, 8, 66, 100
13, 132660, Note_on_c, 8, 66, 0
13, 132660, Note_on_c, 8, 68, 100
13, 132720, Note_on_c, 8, 68, 0
13, 132720, Note_on_c, 8, 76, 100
13, 132870, Note_on_c, 8, 76, 0
13, 132870, Note_on_c, 8, 71, 100
13, 132900, Note_on_c, 8, 71, 0
13, 132900, Note_on_c, 8, 69, 100
13, 132930, Note_on_c, 8, 69, 0
13, 132930, Note_on_c, 8, 66, 100
13, 132960, Note_on_c, 8, 66, 0
13, 132960, Note_on_c, 8, 67, 100
13, 132990, Note_on_c, 8, 67, 0
13, 132990, Note_on_c, 8, 64, 100
13, 133020, Note_on_c, 8, 64, 0
13, 133020, Note_on_c, 8, 66, 100
13, 133440, Note_on_c, 8, 66, 0
13, 133740, Note_on_c, 8, 78, 100
13, 133770, Note_on_c, 8, 78, 0
13, 133770, Note_on_c, 8, 80, 100
13, 133800, Note_on_c, 8, 80, 0
13, 133800, Note_on_c, 8, 81, 100
13, 133860, Note_on_c, 8, 81, 0
13, 133860, Note_on_c, 8, 80, 100
13, 133920, Note_on_c, 8, 80, 0
13, 133920, Note_on_c, 8, 78, 100
13, 133980, Note_on_c, 8, 78, 0
13, 133980, Note_on_c, 8, 73, 100
13, 134010, Note_on_c, 8, 73, 0
13, 134010, Note_on_c, 8, 71, 100
13, 134040, Note_on_c, 8, 71, 0
13, 134040, Note_on_c, 8, 73, 100
13, 134100, Note_on_c, 8, 73, 0
13, 134100, Note_on_c, 8, 73, 100
13, 134490, Note_on_c, 8, 73, 0
13, 134490, Note_on_c, 8, 68, 100
13, 134520, Note_on_c, 8, 68, 0
13, 134520, Note_on_c, 8, 69, 100
13, 134550, Note_on_c, 8, 69, 0
13, 134550, Note_on_c, 8, 73, 100
13, 134580, Note_on_c, 8, 73, 0
13, 134580, Note_on_c, 8, 77, 100
13, 134610, Note_on_c, 8, 77, 0
13, 134610, Note_on_c, 8, 78, 100
13, 134640, Note_on_c, 8, 78, 0
13, 134640, Note_on_c, 8, 74, 100
13, 134850, Note_on_c, 8, 74, 0
13, 134850, Note_on_c, 8, 69, 100
13, 134880, Note_on_c, 8, 69, 0
13, 134880, Note_on_c, 8, 71, 100
13, 134910, Note_on_c, 8, 71, 0
13, 134910, Note_on_c, 8, 74, 100
13, 134940, Note_on_c, 8, 74, 0
13, 134940, Note_on_c, 8, 66, 100
13, 134970, Note_on_c, 8, 66, 0
13, 134970, Note_on_c, 8, 64, 100
13, 135000, Note_on_c, 8, 64, 0
13, 135000, Note_on_c, 8, 73, 100
13, 135210, Note_on_c, 8, 73, 0
13, 135210, Note_on_c, 8, 78, 100
13, 135240, Note_on_c, 8, 78, 0
13, 135240, Note_on_c, 8, 74, 100
13, 135270, Note_on_c, 8, 74, 0
13, 135270, Note_on_c, 8, 70, 100
13, 135300, Note_on_c, 8, 70, 0
13, 135300, Note_on_c, 8, 71, 100
13, 135330, Note_on_c, 8, 71, 0
13, 135330, Note_on_c, 8, 68, 100
13, 135360, Note_on_c, 8, 68, 0
13, 135360, Note_on_c, 8, 69, 100
13, 135390, Note_on_c, 8, 69, 0
13, 135390, Note_on_c, 8, 78, 100
13, 135420, Note_on_c, 8, 78, 0
13, 135420, Note_on_c, 8, 73, 100
13, 135450, Note_on_c, 8, 73, 0
13, 135450, Note_on_c, 8, 68, 100
13, 135480, Note_on_c, 8, 68, 0
13, 135480, Note_on_c, 8, 69, 100
13, 135510, Note_on_c, 8, 69, 0
13, 135510, Note_on_c, 8, 66, 100
13, 135540, Note_on_c, 8, 66, 0
13, 135540, Note_on_c, 8, 68, 100
13, 135600, Note_on_c, 8, 68, 0
13, 135720, Note_on_c, 8, 73, 100
13, 135750, Note_on_c, 8, 73, 0
13, 135750, Note_on_c, 8, 74, 100
13, 135780, Note_on_c, 8, 74, 0
13, 135780, Note_on_c, 8, 76, 100
13, 135840, Note_on_c, 8, 76, 0
13, 135840, Note_on_c, 8, 74, 100
13, 135900, Note_on_c, 8, 74, 0
13, 135900, Note_on_c, 8, 73, 100
13, 135960, Note_on_c, 8, 73, 0
13, 135960, Note_on_c, 8, 66, 100
13, 135990, Note_on_c, 8, 66, 0
13, 135990, Note_on_c, 8, 65, 100
13, 136020, Note_on_c, 8, 65, 0
13, 136020, Note_on_c, 8, 66, 100
13, 136080, Note_on_c, 8, 66, 0
13, 136080, Note_on_c, 8, 71, 100
13, 136110, Note_on_c, 8, 71, 0
13, 136110, Note_on_c, 8, 73, 100
13, 136140, Note_on_c, 8, 73, 0
13, 136140, Note_on_c, 8, 74, 100
13, 136170, Note_on_c, 8, 74, 0
13, 136170, Note_on_c, 8, 71, 100
13, 136200, Note_on_c, 8, 71, 0
13, 136200, Note_on_c, 8, 73, 100
13, 136230, Note_on_c, 8, 73, 0
13, 136230, Note_on_c, 8, 70, 100
13, 136260, Note_on_c, 8, 70, 0
13, 136260, Note_on_c, 8, 71, 100
13, 136320, Note_on_c, 8, 71, 0
13, 136320, Note_on_c, 8, 66, 100
13, 136350, Note_on_c, 8, 66, 0
13, 136350, Note_on_c, 8, 65, 100
13, 136380, Note_on_c, 8, 65, 0
13, 136380, Note_on_c, 8, 66, 100
13, 136440, Note_on_c, 8, 66, 0
13, 136440, Note_on_c, 8, 78, 100
13, 136830, Note_on_c, 8, 78, 0
13, 136830, Note_on_c, 8, 69, 100
13, 136860, Note_on_c, 8, 69, 0
13, 136860, Note_on_c, 8, 74, 100
13, 136890, Note_on_c, 8, 74, 0
13, 136890, Note_on_c, 8, 73, 100
13, 136920, Note_on_c, 8, 73, 0
13, 136920, Note_on_c, 8, 65, 100
13, 136950, Note_on_c, 8, 65, 0
13, 136950, Note_on_c, 8, 66, 100
13, 136980, Note_on_c, 8, 66, 0
13, 136980, Note_on_c, 8, 66, 100
13, 137100, Note_on_c, 8, 66, 0
13, 137160, Note_on_c, 8, 80, 100
13, 137190, Note_on_c, 8, 80, 0
13, 137190, Note_on_c, 8, 81, 100
13, 137220, Note_on_c, 8, 81, 0
13, 137220, Note_on_c, 8, 83, 100
13, 137280, Note_on_c, 8, 83, 0
13, 137280, Note_on_c, 8, 74, 100
13, 137400, Note_on_c, 8, 74, 0
13, 137400, Note_on_c, 8, 73, 100
13, 137430, Note_on_c, 8, 73, 0
13, 137430, Note_on_c, 8, 71, 100
13, 137460, Note_on_c, 8, 71, 0
13, 137460, Note_on_c, 8, 73, 100
13, 137520, Note_on_c, 8, 73, 0
13, 137880, Note_on_c, 8, 76, 100
13, 137910, Note_on_c, 8, 76, 0
13, 137910, Note_on_c, 8, 78, 100
13, 137940, Note_on_c, 8, 78, 0
13, 137940, Note_on_c, 8, 79, 100
13, 138000, Note_on_c, 8, 79, 0
13, 138000, Note_on_c, 8, 78, 100
13, 138060, Note_on_c, 8, 78, 0
13, 138060, Note_on_c, 8, 76, 100
13, 138120, Note_on_c, 8, 76, 0
13, 138120, Note_on_c, 8, 71, 100
13, 138150, Note_on_c, 8, 71, 0
13, 138150, Note_on_c, 8, 69, 100
13, 138180, Note_on_c, 8, 69, 0
13, 138180, Note_on_c, 8, 71, 100
13, 138240, Note_on_c, 8, 71, 0
13, 138240, Note_on_c, 8, 81, 100
13, 138450, Note_on_c, 8, 81, 0
13, 138450, Note_on_c, 8, 78, 100
13, 138480, Note_on_c, 8, 78, 0
13, 138480, Note_on_c, 8, 79, 100
13, 138510, Note_on_c, 8, 79, 0
13, 138510, Note_on_c, 8, 76, 100
13, 138540, Note_on_c, 8, 76, 0
13, 138540, Note_on_c, 8, 78, 100
13, 138570, Note_on_c, 8, 78, 0
13, 138570, Note_on_c, 8, 75, 100
13, 138600, Note_on_c, 8, 75, 0
13, 138600, Note_on_c, 8, 76, 100
13, 138630, Note_on_c, 8, 76, 0
13, 138630, Note_on_c, 8, 74, 100
13, 138660, Note_on_c, 8, 74, 0
13, 138660, Note_on_c, 8, 72, 100
13, 138690, Note_on_c, 8, 72, 0
13, 138690, Note_on_c, 8, 71, 100
13, 138720, Note_on_c, 8, 71, 0
13, 138720, Note_on_c, 8, 69, 100
13, 138900, Note_on_c, 8, 69, 0
13, 138990, Note_on_c, 8, 66, 100
13, 139020, Note_on_c, 8, 66, 0
13, 139020, Note_on_c, 8, 67, 100
13, 139050, Note_on_c, 8, 67, 0
13, 139050, Note_on_c, 8, 71, 100
13, 139080, Note_on_c, 8, 71, 0
13, 139080, Note_on_c, 8, 75, 100
13, 139110, Note_on_c, 8, 75, 0
13, 139110, Note_on_c, 8, 76, 100
13, 139140, Note_on_c, 8, 76, 0
13, 139140, Note_on_c, 8, 72, 100
13, 139350, Note_on_c, 8, 72, 0
13, 139350, Note_on_c, 8, 67, 100
13, 139380, Note_on_c, 8, 67, 0
13, 139380, Note_on_c, 8, 69, 100
13, 139410, Note_on_c, 8, 69, 0
13, 139410, Note_on_c, 8, 72, 100
13, 139440, Note_on_c, 8, 72, 0
13, 139440, Note_on_c, 8, 64, 100
13, 139470, Note_on_c, 8, 64, 0
13, 139470, Note_on_c, 8, 62, 100
13, 139500, Note_on_c, 8, 62, 0
13, 139500, Note_on_c, 8, 71, 100
13, 139710, Note_on_c, 8, 71, 0
13, 139710, Note_on_c, 8, 76, 100
13, 139740, Note_on_c, 8, 76, 0
13, 139740, Note_on_c, 8, 72, 100
13, 139770, Note_on_c, 8, 72, 0
13, 139770, Note_on_c, 8, 68, 100
13, 139800, Note_on_c, 8, 68, 0
13, 139800, Note_on_c, 8, 69, 100
13, 139830, Note_on_c, 8, 69, 0
13, 139830, Note_on_c, 8, 66, 100
13, 139860, Note_on_c, 8, 66, 0
13, 139860, Note_on_c, 8, 67, 100
13, 139890, Note_on_c, 8, 67, 0
13, 139890, Note_on_c, 8, 76, 100
13, 139920, Note_on_c, 8, 76, 0
13, 139920, Note_on_c, 8, 71, 100
13, 139950, Note_on_c, 8, 71, 0
13, 139950, Note_on_c, 8, 66, 100
13, 139980, Note_on_c, 8, 66, 0
13, 139980, Note_on_c, 8, 67, 100
13, 140010, Note_on_c, 8, 67, 0
13, 140010, Note_on_c, 8, 64, 100
13, 140040, Note_on_c, 8, 64, 0
13, 140040, Note_on_c, 8, 72, 100
13, 140100, Note_on_c, 8, 72, 0
13, 140220, Note_on_c, 8, 71, 100
13, 140580, Note_on_c, 8, 71, 0
13, 140580, Note_on_c, 8, 78, 100
13, 140610, Note_on_c, 8, 78, 0
13, 140610, Note_on_c, 8, 79, 100
13, 140640, Note_on_c, 8, 79, 0
13, 140640, Note_on_c, 8, 81, 100
13, 140670, Note_on_c, 8, 81, 0
13, 140670, Note_on_c, 8, 78, 100
13, 140700, Note_on_c, 8, 78, 0
13, 140700, Note_on_c, 8, 79, 100
13, 140730, Note_on_c, 8, 79, 0
13, 140730, Note_on_c, 8, 76, 100
13, 140760, Note_on_c, 8, 76, 0
13, 140760, Note_on_c, 8, 78, 100
13, 140820, Note_on_c, 8, 78, 0
13, 140820, Note_on_c, 8, 71, 100
13, 140850, Note_on_c, 8, 71, 0
13, 140850, Note_on_c, 8, 69, 100
13, 140880, Note_on_c, 8, 69, 0
13, 140880, Note_on_c, 8, 71, 100
13, 140940, Note_on_c, 8, 71, 0
13, 140940, Note_on_c, 8, 76, 100
13, 141330, Note_on_c, 8, 76, 0
13, 141330, Note_on_c, 8, 79, 100
13, 141360, Note_on_c, 8, 79, 0
13, 141360, Note_on_c, 8, 84, 100
13, 141390, Note_on_c, 8, 84, 0
13, 141390, Note_on_c, 8, 83, 100
13, 141420, Note_on_c, 8, 83, 0
13, 141420, Note_on_c, 8, 75, 100
13, 141450, Note_on_c, 8, 75, 0
13, 141450, Note_on_c, 8, 76, 100
13, 141480, Note_on_c, 8, 76, 0
13, 141480, Note_on_c, 8, 76, 100
13, 141600, Note_on_c, 8, 76, 0
13, 142920, Note_on_c, 8, 71, 100
13, 142950, Note_on_c, 8, 71, 0
13, 142950, Note_on_c, 8, 73, 100
13, 142980, Note_on_c, 8, 73, 0
13, 142980, Note_on_c, 8, 74, 100
13, 143040, Note_on_c, 8, 74, 0
13, 143040, Note_on_c, 8, 73, 100
13, 143100, Note_on_c, 8, 73, 0
13, 143100, Note_on_c, 8, 71, 100
13, 143160, Note_on_c, 8, 71, 0
13, 143160, Note_on_c, 8, 66, 100
13, 143190, Note_on_c, 8, 66, 0
13, 143190, Note_on_c, 8, 64, 100
13, 143220, Note_on_c, 8, 64, 0
13, 143220, Note_on_c, 8, 66, 100
13, 143280, Note_on_c, 8, 66, 0
13, 143280, Note_on_c, 8, 73, 100
13, 143310, Note_on_c, 8, 73, 0
13, 143310, Note_on_c, 8, 74, 100
13, 143340, Note_on_c, 8, 74, 0
13, 143340, Note_on_c, 8, 76, 100
13, 143370, Note_on_c, 8, 76, 0
13, 143370, Note_on_c, 8, 73, 100
13, 143400, Note_on_c, 8, 73, 0
13, 143400, Note_on_c, 8, 74, 100
13, 143430, Note_on_c, 8, 74, 0
13, 143430, Note_on_c, 8, 71, 100
13, 143460, Note_on_c, 8, 71, 0
13, 143460, Note_on_c, 8, 73, 100
13, 143520, Note_on_c, 8, 73, 0
13, 143520, Note_on_c, 8, 66, 100
13, 143550, Note_on_c, 8, 66, 0
13, 143550, Note_on_c, 8, 64, 100
13, 143580, Note_on_c, 8, 64, 0
13, 143580, Note_on_c, 8, 66, 100
13, 143640, Note_on_c, 8, 66, 0
13, 143640, Note_on_c, 8, 74, 100
13, 143670, Note_on_c, 8, 74, 0
13, 143670, Note_on_c, 8, 76, 100
13, 143700, Note_on_c, 8, 76, 0
13, 143700, Note_on_c, 8, 78, 100
13, 143760, Note_on_c, 8, 78, 0
13, 143760, Note_on_c, 8, 70, 100
13, 143820, Note_on_c, 8, 70, 0
13, 143820, Note_on_c, 8, 71, 100
13, 143880, Note_on_c, 8, 71, 0
13, 143880, Note_on_c, 8, 62, 100
13, 143910, Note_on_c, 8, 62, 0
13, 143910, Note_on_c, 8, 61, 100
13, 143940, Note_on_c, 8, 61, 0
13, 143940, Note_on_c, 8, 62, 100
13, 143970, Note_on_c, 8, 62, 0
13, 143970, Note_on_c, 8, 66, 100
13, 144000, Note_on_c, 8, 66, 0
13, 144000, Note_on_c, 8, 70, 100
13, 144030, Note_on_c, 8, 70, 0
13, 144030, Note_on_c, 8, 71, 100
13, 144060, Note_on_c, 8, 71, 0
13, 144060, Note_on_c, 8, 73, 100
13, 144120, Note_on_c, 8, 73, 0
13, 144120, Note_on_c, 8, 78, 100
13, 144180, Note_on_c, 8, 78, 0
13, 144180, Note_on_c, 8, 70, 100
13, 144210, Note_on_c, 8, 70, 0
13, 144210, Note_on_c, 8, 74, 100
13, 144240, Note_on_c, 8, 74, 0
13, 144240, Note_on_c, 8, 73, 100
13, 144360, Note_on_c, 8, 73, 0
13, 144360, Note_on_c, 8, 74, 100
13, 144570, Note_on_c, 8, 74, 0
13, 144570, Note_on_c, 8, 71, 100
13, 144600, Note_on_c, 8, 71, 0
13, 144600, Note_on_c, 8, 70, 100
13, 144630, Note_on_c, 8, 70, 0
13, 144630, Note_on_c, 8, 71, 100
13, 144660, Note_on_c, 8, 71, 0
13, 144660, Note_on_c, 8, 79, 100
13, 144690, Note_on_c, 8, 79, 0
13, 144690, Note_on_c, 8, 76, 100
13, 144720, Note_on_c, 8, 76, 0
13, 144720, Note_on_c, 8, 73, 100
13, 144930, Note_on_c, 8, 73, 0
13, 144930, Note_on_c, 8, 69, 100
13, 144960, Note_on_c, 8, 69, 0
13, 144960, Note_on_c, 8, 68, 100
13, 144990, Note_on_c, 8, 68, 0
13, 144990, Note_on_c, 8, 69, 100
13, 145020, Note_on_c, 8, 69, 0
13, 145020, Note_on_c, 8, 78, 100
13, 145050, Note_on_c, 8, 78, 0
13, 145050, Note_on_c, 8, 74, 100
13, 145080, Note_on_c, 8, 74, 0
13, 145080, Note_on_c, 8, 71, 100
13, 145500, Note_on_c, 8, 71, 0
13, 145500, Note_on_c, 8, 70, 100
13, 145560, Note_on_c, 8, 70, 0
13, 145560, Note_on_c, 8, 76, 100
13, 145650, Note_on_c, 8, 76, 0
13, 145650, Note_on_c, 8, 73, 100
13, 145680, Note_on_c, 8, 73, 0
13, 145680, Note_on_c, 8, 74, 100
13, 145710, Note_on_c, 8, 74, 0
13, 145710, Note_on_c, 8, 71, 100
13, 145740, Note_on_c, 8, 71, 0
13, 145740, Note_on_c, 8, 73, 100
13, 145770, Note_on_c, 8, 73, 0
13, 145770, Note_on_c, 8, 70, 100
13, 145800, Note_on_c, 8, 70, 0
13, 145800, Note_on_c, 8, 71, 100
13, 145830, Note_on_c, 8, 71, 0
13, 145830, Note_on_c, 8, 69, 100
13, 145860, Note_on_c, 8, 69, 0
13, 145860, Note_on_c, 8, 67, 100
13, 145890, Note_on_c, 8, 67, 0
13, 145890, Note_on_c, 8, 66, 100
13, 145920, Note_on_c, 8, 66, 0
13, 145920, Note_on_c, 8, 64, 100
13, 146100, Note_on_c, 8, 64, 0
13, 146190, Note_on_c, 8, 84, 100
13, 146220, Note_on_c, 8, 84, 0
13, 146220, Note_on_c, 8, 83, 100
13, 146250, Note_on_c, 8, 83, 0
13, 146250, Note_on_c, 8, 79, 100
13, 146280, Note_on_c, 8, 79, 0
13, 146280, Note_on_c, 8, 81, 100
13, 146310, Note_on_c, 8, 81, 0
13, 146310, Note_on_c, 8, 78, 100
13, 146340, Note_on_c, 8, 78, 0
13, 146340, Note_on_c, 8, 79, 100
13, 146550, Note_on_c, 8, 79, 0
13, 146550, Note_on_c, 8, 83, 100
13, 146580, Note_on_c, 8, 83, 0
13, 146580, Note_on_c, 8, 81, 100
13, 146610, Note_on_c, 8, 81, 0
13, 146610, Note_on_c, 8, 78, 100
13, 146640, Note_on_c, 8, 78, 0
13, 146640, Note_on_c, 8, 79, 100
13, 146670, Note_on_c, 8, 79, 0
13, 146670, Note_on_c, 8, 76, 100
13, 146700, Note_on_c, 8, 76, 0
13, 146700, Note_on_c, 8, 78, 100
13, 146910, Note_on_c, 8, 78, 0
13, 146910, Note_on_c, 8, 83, 100
13, 146940, Note_on_c, 8, 83, 0
13, 146940, Note_on_c, 8, 78, 100
13, 146970, Note_on_c, 8, 78, 0
13, 146970, Note_on_c, 8, 75, 100
13, 147000, Note_on_c, 8, 75, 0
13, 147000, Note_on_c, 8, 76, 100
13, 147030, Note_on_c, 8, 76, 0
13, 147030, Note_on_c, 8, 73, 100
13, 147060, Note_on_c, 8, 73, 0
13, 147060, Note_on_c, 8, 74, 100
13, 147090, Note_on_c, 8, 74, 0
13, 147090, Note_on_c, 8, 71, 100
13, 147120, Note_on_c, 8, 71, 0
13, 147120, Note_on_c, 8, 67, 100
13, 147150, Note_on_c, 8, 67, 0
13, 147150, Note_on_c, 8, 64, 100
13, 147180, Note_on_c, 8, 64, 0
13, 147180, Note_on_c, 8, 66, 100
13, 147210, Note_on_c, 8, 66, 0
13, 147210, Note_on_c, 8, 62, 100
13, 147240, Note_on_c, 8, 62, 0
13, 147240, Note_on_c, 8, 67, 100
13, 147300, Note_on_c, 8, 67, 0
13, 147420, Note_on_c, 8, 66, 100
13, 147960, Note_on_c, 8, 66, 0
13, 147960, Note_on_c, 8, 73, 100
13, 147990, Note_on_c, 8, 73, 0
13, 147990, Note_on_c, 8, 74, 100
13, 148020, Note_on_c, 8, 74, 0
13, 148020, Note_on_c, 8, 76, 100
13, 148050, Note_on_c, 8, 76, 0
13, 148050, Note_on_c, 8, 73, 100
13, 148080, Note_on_c, 8, 73, 0
13, 148080, Note_on_c, 8, 74, 100
13, 148110, Note_on_c, 8, 74, 0
13, 148110, Note_on_c, 8, 71, 100
13, 148140, Note_on_c, 8, 71, 0
13, 148140, Note_on_c, 8, 73, 100
13, 148200, Note_on_c, 8, 73, 0
13, 148200, Note_on_c, 8, 66, 100
13, 148230, Note_on_c, 8, 66, 0
13, 148230, Note_on_c, 8, 64, 100
13, 148260, Note_on_c, 8, 64, 0
13, 148260, Note_on_c, 8, 66, 100
13, 148320, Note_on_c, 8, 66, 0
13, 148680, Note_on_c, 8, 76, 100
13, 148890, Note_on_c, 8, 76, 0
13, 148890, Note_on_c, 8, 69, 100
13, 148920, Note_on_c, 8, 69, 0
13, 148920, Note_on_c, 8, 68, 100
13, 148950, Note_on_c, 8, 68, 0
13, 148950, Note_on_c, 8, 69, 100
13, 148980, Note_on_c, 8, 69, 0
13, 148980, Note_on_c, 8, 78, 100
13, 149010, Note_on_c, 8, 78, 0
13, 149010, Note_on_c, 8, 74, 100
13, 149040, Note_on_c, 8, 74, 0
13, 149040, Note_on_c, 8, 71, 100
13, 149430, Note_on_c, 8, 71, 0
13, 149430, Note_on_c, 8, 74, 100
13, 149460, Note_on_c, 8, 74, 0
13, 149460, Note_on_c, 8, 79, 100
13, 149490, Note_on_c, 8, 79, 0
13, 149490, Note_on_c, 8, 78, 100
13, 149520, Note_on_c, 8, 78, 0
13, 149520, Note_on_c, 8, 70, 100
13, 149550, Note_on_c, 8, 70, 0
13, 149550, Note_on_c, 8, 71, 100
13, 149580, Note_on_c, 8, 71, 0
13, 149580, Note_on_c, 8, 71, 100
13, 150330, Note_on_c, 8, 71, 0
13, 150330, Note_on_c, 8, 83, 100
13, 150360, Note_on_c, 8, 83, 0
13, 150360, Note_on_c, 8, 79, 100
13, 150390, Note_on_c, 8, 79, 0
13, 150390, Note_on_c, 8, 75, 100
13, 150420, Note_on_c, 8, 75, 0
13, 150420, Note_on_c, 8, 76, 100
13, 150450, Note_on_c, 8, 76, 0
13, 150450, Note_on_c, 8, 73, 100
13, 150480, Note_on_c, 8, 73, 0
13, 150480, Note_on_c, 8, 74, 100
13, 150510, Note_on_c, 8, 74, 0
13, 150510, Note_on_c, 8, 83, 100
13, 150540, Note_on_c, 8, 83, 0
13, 150540, Note_on_c, 8, 78, 100
13, 150570, Note_on_c, 8, 78, 0
13, 150570, Note_on_c, 8, 73, 100
13, 150600, Note_on_c, 8, 73, 0
13, 150600, Note_on_c, 8, 74, 100
13, 150630, Note_on_c, 8, 74, 0
13, 150630, Note_on_c, 8, 71, 100
13, 150660, Note_on_c, 8, 71, 0
13, 150660, Note_on_c, 8, 79, 100
13, 150690, Note_on_c, 8, 79, 0
13, 150690, Note_on_c, 8, 78, 100
13, 150720, Note_on_c, 8, 78, 0
13, 150720, Note_on_c, 8, 76, 100
13, 150750, Note_on_c, 8, 76, 0
13, 150750, Note_on_c, 8, 74, 100
13, 150780, Note_on_c, 8, 74, 0
13, 150780, Note_on_c, 8, 73, 100
13, 150810, Note_on_c, 8, 73, 0
13, 150810, Note_on_c, 8, 74, 100
13, 150840, Note_on_c, 8, 74, 0
13, 150840, Note_on_c, 8, 71, 100
13, 151020, Note_on_c, 8, 71, 0
13, 151020, End_track
14, 0, Start_track
14, 0, MIDI_port, 0
14, 0, Title_t, "Viola da gamba"
14, 126900, Control_c, 10, 0, 20
14, 126900, Program_c, 10, 41
14, 126900, Note_on_c, 10, 54, 127
14, 127620, Note_on_c, 10, 54, 0
14, 127620, Note_on_c, 10, 66, 127
14, 127650, Note_on_c, 10, 66, 0
14, 127650, Note_on_c, 10, 61, 127
14, 127680, Note_on_c, 10, 61, 0
14, 127680, Note_on_c, 10, 62, 127
14, 127710, Note_on_c, 10, 62, 0
14, 127710, Note_on_c, 10, 66, 127
14, 127740, Note_on_c, 10, 66, 0
14, 127740, Note_on_c, 10, 70, 127
14, 127770, Note_on_c, 10, 70, 0
14, 127770, Note_on_c, 10, 71, 127
14, 127800, Note_on_c, 10, 71, 0
14, 127800, Note_on_c, 10, 67, 127
14, 128010, Note_on_c, 10, 67, 0
14, 128010, Note_on_c, 10, 62, 127
14, 128040, Note_on_c, 10, 62, 0
14, 128040, Note_on_c, 10, 64, 127
14, 128070, Note_on_c, 10, 64, 0
14, 128070, Note_on_c, 10, 67, 127
14, 128100, Note_on_c, 10, 67, 0
14, 128100, Note_on_c, 10, 59, 127
14, 128130, Note_on_c, 10, 59, 0
14, 128130, Note_on_c, 10, 57, 127
14, 128160, Note_on_c, 10, 57, 0
14, 128160, Note_on_c, 10, 66, 127
14, 128370, Note_on_c, 10, 66, 0
14, 128370, Note_on_c, 10, 71, 127
14, 128400, Note_on_c, 10, 71, 0
14, 128400, Note_on_c, 10, 67, 127
14, 128430, Note_on_c, 10, 67, 0
14, 128430, Note_on_c, 10, 63, 127
14, 128460, Note_on_c, 10, 63, 0
14, 128460, Note_on_c, 10, 64, 127
14, 128490, Note_on_c, 10, 64, 0
14, 128490, Note_on_c, 10, 61, 127
14, 128520, Note_on_c, 10, 61, 0
14, 128520, Note_on_c, 10, 62, 127
14, 128550, Note_on_c, 10, 62, 0
14, 128550, Note_on_c, 10, 71, 127
14, 128580, Note_on_c, 10, 71, 0
14, 128580, Note_on_c, 10, 66, 127
14, 128610, Note_on_c, 10, 66, 0
14, 128610, Note_on_c, 10, 61, 127
14, 128640, Note_on_c, 10, 61, 0
14, 128640, Note_on_c, 10, 62, 127
14, 128670, Note_on_c, 10, 62, 0
14, 128670, Note_on_c, 10, 59, 127
14, 128700, Note_on_c, 10, 59, 0
14, 128700, Note_on_c, 10, 67, 127
14, 128730, Note_on_c, 10, 67, 0
14, 128730, Note_on_c, 10, 66, 127
14, 128760, Note_on_c, 10, 66, 0
14, 128760, Note_on_c, 10, 64, 127
14, 128790, Note_on_c, 10, 64, 0
14, 128790, Note_on_c, 10, 62, 127
14, 128820, Note_on_c, 10, 62, 0
14, 128820, Note_on_c, 10, 61, 127
14, 128850, Note_on_c, 10, 61, 0
14, 128850, Note_on_c, 10, 62, 127
14, 128880, Note_on_c, 10, 62, 0
14, 128880, Note_on_c, 10, 59, 127
14, 128910, Note_on_c, 10, 59, 0
14, 128910, Note_on_c, 10, 64, 127
14, 128940, Note_on_c, 10, 64, 0
14, 128940, Note_on_c, 10, 62, 127
14, 128970, Note_on_c, 10, 62, 0
14, 128970, Note_on_c, 10, 61, 127
14, 129000, Note_on_c, 10, 61, 0
14, 129000, Note_on_c, 10, 59, 127
14, 129030, Note_on_c, 10, 59, 0
14, 129030, Note_on_c, 10, 58, 127
14, 129060, Note_on_c, 10, 58, 0
14, 129060, Note_on_c, 10, 59, 127
14, 129090, Note_on_c, 10, 59, 0
14, 129090, Note_on_c, 10, 61, 127
14, 129120, Note_on_c, 10, 61, 0
14, 129120, Note_on_c, 10, 62, 127
14, 129180, Note_on_c, 10, 62, 0
14, 129180, Note_on_c, 10, 61, 127
14, 129240, Note_on_c, 10, 61, 0
14, 129240, Note_on_c, 10, 59, 127
14, 129300, Note_on_c, 10, 59, 0
14, 129300, Note_on_c, 10, 54, 127
14, 129330, Note_on_c, 10, 54, 0
14, 129330, Note_on_c, 10, 52, 127
14, 129360, Note_on_c, 10, 52, 0
14, 129360, Note_on_c, 10, 54, 127
14, 129420, Note_on_c, 10, 54, 0
14, 129420, Note_on_c, 10, 61, 127
14, 129450, Note_on_c, 10, 61, 0
14, 129450, Note_on_c, 10, 62, 127
14, 129480, Note_on_c, 10, 62, 0
14, 129480, Note_on_c, 10, 64, 127
14, 129510, Note_on_c, 10, 64, 0
14, 129510, Note_on_c, 10, 61, 127
14, 129540, Note_on_c, 10, 61, 0
14, 129540, Note_on_c, 10, 62, 127
14, 129570, Note_on_c, 10, 62, 0
14, 129570, Note_on_c, 10, 59, 127
14, 129600, Note_on_c, 10, 59, 0
14, 129600, Note_on_c, 10, 61, 127
14, 129660, Note_on_c, 10, 61, 0
14, 129660, Note_on_c, 10, 54, 127
14, 129690, Note_on_c, 10, 54, 0
14, 129690, Note_on_c, 10, 52, 127
14, 129720, Note_on_c, 10, 52, 0
14, 129720, Note_on_c, 10, 54, 127
14, 129780, Note_on_c, 10, 54, 0
14, 129780, Note_on_c, 10, 62, 127
14, 129810, Note_on_c, 10, 62, 0
14, 129810, Note_on_c, 10, 64, 127
14, 129840, Note_on_c, 10, 64, 0
14, 129840, Note_on_c, 10, 66, 127
14, 129900, Note_on_c, 10, 66, 0
14, 129900, Note_on_c, 10, 58, 127
14, 129960, Note_on_c, 10, 58, 0
14, 129960, Note_on_c, 10, 59, 127
14, 130020, Note_on_c, 10, 59, 0
14, 130020, Note_on_c, 10, 50, 127
14, 130050, Note_on_c, 10, 50, 0
14, 130050, Note_on_c, 10, 49, 127
14, 130080, Note_on_c, 10, 49, 0
14, 130080, Note_on_c, 10, 50, 127
14, 130110, Note_on_c, 10, 50, 0
14, 130110, Note_on_c, 10, 54, 127
14, 130140, Note_on_c, 10, 54, 0
14, 130140, Note_on_c, 10, 58, 127
14, 130170, Note_on_c, 10, 58, 0
14, 130170, Note_on_c, 10, 59, 127
14, 130200, Note_on_c, 10, 59, 0
14, 130200, Note_on_c, 10, 61, 127
14, 130260, Note_on_c, 10, 61, 0
14, 130260, Note_on_c, 10, 66, 127
14, 130320, Note_on_c, 10, 66, 0
14, 130320, Note_on_c, 10, 58, 127
14, 130350, Note_on_c, 10, 58, 0
14, 130350, Note_on_c, 10, 62, 127
14, 130380, Note_on_c, 10, 62, 0
14, 130380, Note_on_c, 10, 61, 127
14, 130500, Note_on_c, 10, 61, 0
14, 130500, Note_on_c, 10, 62, 127
14, 130710, Note_on_c, 10, 62, 0
14, 130710, Note_on_c, 10, 59, 127
14, 130740, Note_on_c, 10, 59, 0
14, 130740, Note_on_c, 10, 58, 127
14, 130770, Note_on_c, 10, 58, 0
14, 130770, Note_on_c, 10, 59, 127
14, 130800, Note_on_c, 10, 59, 0
14, 130800, Note_on_c, 10, 67, 127
14, 130830, Note_on_c, 10, 67, 0
14, 130830, Note_on_c, 10, 64, 127
14, 130860, Note_on_c, 10, 64, 0
14, 130860, Note_on_c, 10, 61, 127
14, 131070, Note_on_c, 10, 61, 0
14, 131070, Note_on_c, 10, 57, 127
14, 131100, Note_on_c, 10, 57, 0
14, 131100, Note_on_c, 10, 56, 127
14, 131130, Note_on_c, 10, 56, 0
14, 131130, Note_on_c, 10, 57, 127
14, 131160, Note_on_c, 10, 57, 0
14, 131160, Note_on_c, 10, 66, 127
14, 131190, Note_on_c, 10, 66, 0
14, 131190, Note_on_c, 10, 62, 127
14, 131220, Note_on_c, 10, 62, 0
14, 131220, Note_on_c, 10, 59, 127
14, 131640, Note_on_c, 10, 59, 0
14, 131640, Note_on_c, 10, 58, 127
14, 131700, Note_on_c, 10, 58, 0
14, 131700, Note_on_c, 10, 64, 127
14, 131790, Note_on_c, 10, 64, 0
14, 131790, Note_on_c, 10, 61, 127
14, 131820, Note_on_c, 10, 61, 0
14, 131820, Note_on_c, 10, 62, 127
14, 131850, Note_on_c, 10, 62, 0
14, 131850, Note_on_c, 10, 59, 127
14, 131880, Note_on_c, 10, 59, 0
14, 131880, Note_on_c, 10, 61, 127
14, 131910, Note_on_c, 10, 61, 0
14, 131910, Note_on_c, 10, 58, 127
14, 131940, Note_on_c, 10, 58, 0
14, 131940, Note_on_c, 10, 59, 127
14, 131970, Note_on_c, 10, 59, 0
14, 131970, Note_on_c, 10, 57, 127
14, 132000, Note_on_c, 10, 57, 0
14, 132000, Note_on_c, 10, 55, 127
14, 132030, Note_on_c, 10, 55, 0
14, 132030, Note_on_c, 10, 54, 127
14, 132060, Note_on_c, 10, 54, 0
14, 132060, Note_on_c, 10, 52, 127
14, 132240, Note_on_c, 10, 52, 0
14, 132330, Note_on_c, 10, 67, 127
14, 132360, Note_on_c, 10, 67, 0
14, 132360, Note_on_c, 10, 66, 127
14, 132390, Note_on_c, 10, 66, 0
14, 132390, Note_on_c, 10, 62, 127
14, 132420, Note_on_c, 10, 62, 0
14, 132420, Note_on_c, 10, 64, 127
14, 132450, Note_on_c, 10, 64, 0
14, 132450, Note_on_c, 10, 61, 127
14, 132480, Note_on_c, 10, 61, 0
14, 132480, Note_on_c, 10, 62, 127
14, 132690, Note_on_c, 10, 62, 0
14, 132690, Note_on_c, 10, 66, 127
14, 132720, Note_on_c, 10, 66, 0
14, 132720, Note_on_c, 10, 64, 127
14, 132750, Note_on_c, 10, 64, 0
14, 132750, Note_on_c, 10, 61, 127
14, 132780, Note_on_c, 10, 61, 0
14, 132780, Note_on_c, 10, 62, 127
14, 132810, Note_on_c, 10, 62, 0
14, 132810, Note_on_c, 10, 59, 127
14, 132840, Note_on_c, 10, 59, 0
14, 132840, Note_on_c, 10, 61, 127
14, 133050, Note_on_c, 10, 61, 0
14, 133050, Note_on_c, 10, 66, 127
14, 133080, Note_on_c, 10, 66, 0
14, 133080, Note_on_c, 10, 61, 127
14, 133110, Note_on_c, 10, 61, 0
14, 133110, Note_on_c, 10, 58, 127
14, 133140, Note_on_c, 10, 58, 0
14, 133140, Note_on_c, 10, 59, 127
14, 133170, Note_on_c, 10, 59, 0
14, 133170, Note_on_c, 10, 56, 127
14, 133200, Note_on_c, 10, 56, 0
14, 133200, Note_on_c, 10, 57, 127
14, 133230, Note_on_c, 10, 57, 0
14, 133230, Note_on_c, 10, 66, 127
14, 133260, Note_on_c, 10, 66, 0
14, 133260, Note_on_c, 10, 62, 127
14, 133290, Note_on_c, 10, 62, 0
14, 133290, Note_on_c, 10, 59, 127
14, 133320, Note_on_c, 10, 59, 0
14, 133320, Note_on_c, 10, 61, 127
14, 133350, Note_on_c, 10, 61, 0
14, 133350, Note_on_c, 10, 57, 127
14, 133380, Note_on_c, 10, 57, 0
14, 133380, Note_on_c, 10, 62, 127
14, 133440, Note_on_c, 10, 62, 0
14, 133560, Note_on_c, 10, 61, 127
14, 134100, Note_on_c, 10, 61, 0
14, 134100, Note_on_c, 10, 68, 127
14, 134130, Note_on_c, 10, 68, 0
14, 134130, Note_on_c, 10, 69, 127
14, 134160, Note_on_c, 10, 69, 0
14, 134160, Note_on_c, 10, 71, 127
14, 134190, Note_on_c, 10, 71, 0
14, 134190, Note_on_c, 10, 68, 127
14, 134220, Note_on_c, 10, 68, 0
14, 134220, Note_on_c, 10, 69, 127
14, 134250, Note_on_c, 10, 69, 0
14, 134250, Note_on_c, 10, 66, 127
14, 134280, Note_on_c, 10, 66, 0
14, 134280, Note_on_c, 10, 68, 127
14, 134340, Note_on_c, 10, 68, 0
14, 134340, Note_on_c, 10, 61, 127
14, 134370, Note_on_c, 10, 61, 0
14, 134370, Note_on_c, 10, 59, 127
14, 134400, Note_on_c, 10, 59, 0
14, 134400, Note_on_c, 10, 61, 127
14, 134460, Note_on_c, 10, 61, 0
14, 134820, Note_on_c, 10, 59, 127
14, 135030, Note_on_c, 10, 59, 0
14, 135030, Note_on_c, 10, 52, 127
14, 135060, Note_on_c, 10, 52, 0
14, 135060, Note_on_c, 10, 51, 127
14, 135090, Note_on_c, 10, 51, 0
14, 135090, Note_on_c, 10, 52, 127
14, 135120, Note_on_c, 10, 52, 0
14, 135120, Note_on_c, 10, 61, 127
14, 135150, Note_on_c, 10, 61, 0
14, 135150, Note_on_c, 10, 57, 127
14, 135180, Note_on_c, 10, 57, 0
14, 135180, Note_on_c, 10, 54, 127
14, 135570, Note_on_c, 10, 54, 0
14, 135570, Note_on_c, 10, 57, 127
14, 135600, Note_on_c, 10, 57, 0
14, 135600, Note_on_c, 10, 62, 127
14, 135630, Note_on_c, 10, 62, 0
14, 135630, Note_on_c, 10, 61, 127
14, 135660, Note_on_c, 10, 61, 0
14, 135660, Note_on_c, 10, 53, 127
14, 135690, Note_on_c, 10, 53, 0
14, 135690, Note_on_c, 10, 54, 127
14, 135720, Note_on_c, 10, 54, 0
14, 135720, Note_on_c, 10, 54, 127
14, 136470, Note_on_c, 10, 54, 0
14, 136470, Note_on_c, 10, 66, 127
14, 136500, Note_on_c, 10, 66, 0
14, 136500, Note_on_c, 10, 62, 127
14, 136530, Note_on_c, 10, 62, 0
14, 136530, Note_on_c, 10, 58, 127
14, 136560, Note_on_c, 10, 58, 0
14, 136560, Note_on_c, 10, 59, 127
14, 136590, Note_on_c, 10, 59, 0
14, 136590, Note_on_c, 10, 56, 127
14, 136620, Note_on_c, 10, 56, 0
14, 136620, Note_on_c, 10, 57, 127
14, 136650, Note_on_c, 10, 57, 0
14, 136650, Note_on_c, 10, 66, 127
14, 136680, Note_on_c, 10, 66, 0
14, 136680, Note_on_c, 10, 61, 127
14, 136710, Note_on_c, 10, 61, 0
14, 136710, Note_on_c, 10, 56, 127
14, 136740, Note_on_c, 10, 56, 0
14, 136740, Note_on_c, 10, 57, 127
14, 136770, Note_on_c, 10, 57, 0
14, 136770, Note_on_c, 10, 54, 127
14, 136800, Note_on_c, 10, 54, 0
14, 136800, Note_on_c, 10, 62, 127
14, 136830, Note_on_c, 10, 62, 0
14, 136830, Note_on_c, 10, 61, 127
14, 136860, Note_on_c, 10, 61, 0
14, 136860, Note_on_c, 10, 59, 127
14, 136890, Note_on_c, 10, 59, 0
14, 136890, Note_on_c, 10, 57, 127
14, 136920, Note_on_c, 10, 57, 0
14, 136920, Note_on_c, 10, 56, 127
14, 136950, Note_on_c, 10, 56, 0
14, 136950, Note_on_c, 10, 57, 127
14, 136980, Note_on_c, 10, 57, 0
14, 136980, Note_on_c, 10, 54, 127
14, 137100, Note_on_c, 10, 54, 0
14, 137520, Note_on_c, 10, 66, 127
14, 137550, Note_on_c, 10, 66, 0
14, 137550, Note_on_c, 10, 67, 127
14, 137580, Note_on_c, 10, 67, 0
14, 137580, Note_on_c, 10, 69, 127
14, 137640, Note_on_c, 10, 69, 0
14, 137640, Note_on_c, 10, 60, 127
14, 137760, Note_on_c, 10, 60, 0
14, 137760, Note_on_c, 10, 59, 127
14, 137790, Note_on_c, 10, 59, 0
14, 137790, Note_on_c, 10, 57, 127
14, 137820, Note_on_c, 10, 57, 0
14, 137820, Note_on_c, 10, 55, 127
14, 137850, Note_on_c, 10, 55, 0
14, 137850, Note_on_c, 10, 54, 127
14, 137880, Note_on_c, 10, 54, 0
14, 137880, Note_on_c, 10, 52, 127
14, 138000, Note_on_c, 10, 52, 0
14, 138060, Note_on_c, 10, 64, 127
14, 138090, Note_on_c, 10, 64, 0
14, 138090, Note_on_c, 10, 66, 127
14, 138120, Note_on_c, 10, 66, 0
14, 138120, Note_on_c, 10, 67, 127
14, 138180, Note_on_c, 10, 67, 0
14, 138180, Note_on_c, 10, 66, 127
14, 138240, Note_on_c, 10, 66, 0
14, 138240, Note_on_c, 10, 64, 127
14, 138300, Note_on_c, 10, 64, 0
14, 138300, Note_on_c, 10, 52, 127
14, 138330, Note_on_c, 10, 52, 0
14, 138330, Note_on_c, 10, 51, 127
14, 138360, Note_on_c, 10, 51, 0
14, 138360, Note_on_c, 10, 52, 127
14, 138420, Note_on_c, 10, 52, 0
14, 138420, Note_on_c, 10, 71, 127
14, 138630, Note_on_c, 10, 71, 0
14, 138630, Note_on_c, 10, 66, 127
14, 138660, Note_on_c, 10, 66, 0
14, 138660, Note_on_c, 10, 69, 127
14, 138690, Note_on_c, 10, 69, 0
14, 138690, Note_on_c, 10, 67, 127
14, 138720, Note_on_c, 10, 67, 0
14, 138720, Note_on_c, 10, 66, 127
14, 138750, Note_on_c, 10, 66, 0
14, 138750, Note_on_c, 10, 64, 127
14, 138780, Note_on_c, 10, 64, 0
14, 138780, Note_on_c, 10, 63, 127
14, 138810, Note_on_c, 10, 63, 0
14, 138810, Note_on_c, 10, 60, 127
14, 138840, Note_on_c, 10, 60, 0
14, 138840, Note_on_c, 10, 59, 127
14, 138900, Note_on_c, 10, 59, 0
14, 139170, Note_on_c, 10, 52, 127
14, 139200, Note_on_c, 10, 52, 0
14, 139200, Note_on_c, 10, 51, 127
14, 139230, Note_on_c, 10, 51, 0
14, 139230, Note_on_c, 10, 52, 127
14, 139260, Note_on_c, 10, 52, 0
14, 139260, Note_on_c, 10, 60, 127
14, 139290, Note_on_c, 10, 60, 0
14, 139290, Note_on_c, 10, 57, 127
14, 139320, Note_on_c, 10, 57, 0
14, 139320, Note_on_c, 10, 54, 127
14, 139530, Note_on_c, 10, 54, 0
14, 139530, Note_on_c, 10, 50, 127
14, 139560, Note_on_c, 10, 50, 0
14, 139560, Note_on_c, 10, 49, 127
14, 139590, Note_on_c, 10, 49, 0
14, 139590, Note_on_c, 10, 50, 127
14, 139620, Note_on_c, 10, 50, 0
14, 139620, Note_on_c, 10, 59, 127
14, 139650, Note_on_c, 10, 59, 0
14, 139650, Note_on_c, 10, 55, 127
14, 139680, Note_on_c, 10, 55, 0
14, 139680, Note_on_c, 10, 52, 127
14, 140040, Note_on_c, 10, 52, 0
14, 140220, Note_on_c, 10, 64, 127
14, 140250, Note_on_c, 10, 64, 0
14, 140250, Note_on_c, 10, 66, 127
14, 140280, Note_on_c, 10, 66, 0
14, 140280, Note_on_c, 10, 67, 127
14, 140340, Note_on_c, 10, 67, 0
14, 140340, Note_on_c, 10, 66, 127
14, 140400, Note_on_c, 10, 66, 0
14, 140400, Note_on_c, 10, 64, 127
14, 140460, Note_on_c, 10, 64, 0
14, 140460, Note_on_c, 10, 59, 127
14, 140490, Note_on_c, 10, 59, 0
14, 140490, Note_on_c, 10, 57, 127
14, 140520, Note_on_c, 10, 57, 0
14, 140520, Note_on_c, 10, 59, 127
14, 140580, Note_on_c, 10, 59, 0
14, 140580, Note_on_c, 10, 71, 127
14, 140970, Note_on_c, 10, 71, 0
14, 140970, Note_on_c, 10, 64, 127
14, 141000, Note_on_c, 10, 64, 0
14, 141000, Note_on_c, 10, 60, 127
14, 141030, Note_on_c, 10, 60, 0
14, 141030, Note_on_c, 10, 56, 127
14, 141060, Note_on_c, 10, 56, 0
14, 141060, Note_on_c, 10, 57, 127
14, 141090, Note_on_c, 10, 57, 0
14, 141090, Note_on_c, 10, 54, 127
14, 141120, Note_on_c, 10, 54, 0
14, 141120, Note_on_c, 10, 55, 127
14, 141150, Note_on_c, 10, 55, 0
14, 141150, Note_on_c, 10, 64, 127
14, 141180, Note_on_c, 10, 64, 0
14, 141180, Note_on_c, 10, 59, 127
14, 141210, Note_on_c, 10, 59, 0
14, 141210, Note_on_c, 10, 54, 127
14, 141240, Note_on_c, 10, 54, 0
14, 141240, Note_on_c, 10, 55, 127
14, 141270, Note_on_c, 10, 55, 0
14, 141270, Note_on_c, 10, 52, 127
14, 141300, Note_on_c, 10, 52, 0
14, 141300, Note_on_c, 10, 60, 127
14, 141330, Note_on_c, 10, 60, 0
14, 141330, Note_on_c, 10, 59, 127
14, 141360, Note_on_c, 10, 59, 0
14, 141360, Note_on_c, 10, 57, 127
14, 141390, Note_on_c, 10, 57, 0
14, 141390, Note_on_c, 10, 55, 127
14, 141420, Note_on_c, 10, 55, 0
14, 141420, Note_on_c, 10, 54, 127
14, 141450, Note_on_c, 10, 54, 0
14, 141450, Note_on_c, 10, 55, 127
14, 141480, Note_on_c, 10, 55, 0
14, 141480, Note_on_c, 10, 52, 127
14, 141600, Note_on_c, 10, 52, 0
14, 142920, Note_on_c, 10, 62, 127
14, 142950, Note_on_c, 10, 62, 0
14, 142950, Note_on_c, 10, 64, 127
14, 142980, Note_on_c, 10, 64, 0
14, 142980, Note_on_c, 10, 66, 127
14, 143040, Note_on_c, 10, 66, 0
14, 143040, Note_on_c, 10, 58, 127
14, 143100, Note_on_c, 10, 58, 0
14, 143100, Note_on_c, 10, 59, 127
14, 143160, Note_on_c, 10, 59, 0
14, 143160, Note_on_c, 10, 50, 127
14, 143190, Note_on_c, 10, 50, 0
14, 143190, Note_on_c, 10, 49, 127
14, 143220, Note_on_c, 10, 49, 0
14, 143220, Note_on_c, 10, 50, 127
14, 143250, Note_on_c, 10, 50, 0
14, 143250, Note_on_c, 10, 54, 127
14, 143280, Note_on_c, 10, 54, 0
14, 143280, Note_on_c, 10, 58, 127
14, 143310, Note_on_c, 10, 58, 0
14, 143310, Note_on_c, 10, 59, 127
14, 143340, Note_on_c, 10, 59, 0
14, 143340, Note_on_c, 10, 61, 127
14, 143400, Note_on_c, 10, 61, 0
14, 143400, Note_on_c, 10, 66, 127
14, 143460, Note_on_c, 10, 66, 0
14, 143460, Note_on_c, 10, 58, 127
14, 143490, Note_on_c, 10, 58, 0
14, 143490, Note_on_c, 10, 62, 127
14, 143520, Note_on_c, 10, 62, 0
14, 143520, Note_on_c, 10, 61, 127
14, 143580, Note_on_c, 10, 61, 0
14, 143640, Note_on_c, 10, 66, 127
14, 144390, Note_on_c, 10, 66, 0
14, 144390, Note_on_c, 10, 61, 127
14, 144420, Note_on_c, 10, 61, 0
14, 144420, Note_on_c, 10, 62, 127
14, 144450, Note_on_c, 10, 62, 0
14, 144450, Note_on_c, 10, 66, 127
14, 144480, Note_on_c, 10, 66, 0
14, 144480, Note_on_c, 10, 70, 127
14, 144510, Note_on_c, 10, 70, 0
14, 144510, Note_on_c, 10, 71, 127
14, 144540, Note_on_c, 10, 71, 0
14, 144540, Note_on_c, 10, 67, 127
14, 144750, Note_on_c, 10, 67, 0
14, 144750, Note_on_c, 10, 62, 127
14, 144780, Note_on_c, 10, 62, 0
14, 144780, Note_on_c, 10, 64, 127
14, 144810, Note_on_c, 10, 64, 0
14, 144810, Note_on_c, 10, 67, 127
14, 144840, Note_on_c, 10, 67, 0
14, 144840, Note_on_c, 10, 59, 127
14, 144870, Note_on_c, 10, 59, 0
14, 144870, Note_on_c, 10, 57, 127
14, 144900, Note_on_c, 10, 57, 0
14, 144900, Note_on_c, 10, 66, 127
14, 145110, Note_on_c, 10, 66, 0
14, 145110, Note_on_c, 10, 71, 127
14, 145140, Note_on_c, 10, 71, 0
14, 145140, Note_on_c, 10, 67, 127
14, 145170, Note_on_c, 10, 67, 0
14, 145170, Note_on_c, 10, 63, 127
14, 145200, Note_on_c, 10, 63, 0
14, 145200, Note_on_c, 10, 64, 127
14, 145230, Note_on_c, 10, 64, 0
14, 145230, Note_on_c, 10, 61, 127
14, 145260, Note_on_c, 10, 61, 0
14, 145260, Note_on_c, 10, 62, 127
14, 145290, Note_on_c, 10, 62, 0
14, 145290, Note_on_c, 10, 71, 127
14, 145320, Note_on_c, 10, 71, 0
14, 145320, Note_on_c, 10, 66, 127
14, 145350, Note_on_c, 10, 66, 0
14, 145350, Note_on_c, 10, 61, 127
14, 145380, Note_on_c, 10, 61, 0
14, 145380, Note_on_c, 10, 62, 127
14, 145410, Note_on_c, 10, 62, 0
14, 145410, Note_on_c, 10, 59, 127
14, 145440, Note_on_c, 10, 59, 0
14, 145440, Note_on_c, 10, 61, 127
14, 145650, Note_on_c, 10, 61, 0
14, 145650, Note_on_c, 10, 67, 127
14, 145680, Note_on_c, 10, 67, 0
14, 145680, Note_on_c, 10, 66, 127
14, 145710, Note_on_c, 10, 66, 0
14, 145710, Note_on_c, 10, 62, 127
14, 145740, Note_on_c, 10, 62, 0
14, 145740, Note_on_c, 10, 64, 127
14, 145770, Note_on_c, 10, 64, 0
14, 145770, Note_on_c, 10, 61, 127
14, 145800, Note_on_c, 10, 61, 0
14, 145800, Note_on_c, 10, 62, 127
14, 145830, Note_on_c, 10, 62, 0
14, 145830, Note_on_c, 10, 61, 127
14, 145860, Note_on_c, 10, 61, 0
14, 145860, Note_on_c, 10, 64, 127
14, 145890, Note_on_c, 10, 64, 0
14, 145890, Note_on_c, 10, 62, 127
14, 145920, Note_on_c, 10, 62, 0
14, 145920, Note_on_c, 10, 61, 127
14, 145950, Note_on_c, 10, 61, 0
14, 145950, Note_on_c, 10, 59, 127
14, 145980, Note_on_c, 10, 59, 0
14, 145980, Note_on_c, 10, 58, 127
14, 146010, Note_on_c, 10, 58, 0
14, 146010, Note_on_c, 10, 55, 127
14, 146040, Note_on_c, 10, 55, 0
14, 146040, Note_on_c, 10, 54, 127
14, 146100, Note_on_c, 10, 54, 0
14, 146370, Note_on_c, 10, 66, 127
14, 146400, Note_on_c, 10, 66, 0
14, 146400, Note_on_c, 10, 64, 127
14, 146430, Note_on_c, 10, 64, 0
14, 146430, Note_on_c, 10, 61, 127
14, 146460, Note_on_c, 10, 61, 0
14, 146460, Note_on_c, 10, 62, 127
14, 146490, Note_on_c, 10, 62, 0
14, 146490, Note_on_c, 10, 59, 127
14, 146520, Note_on_c, 10, 59, 0
14, 146520, Note_on_c, 10, 57, 127
14, 146580, Note_on_c, 10, 57, 0
14, 146580, Note_on_c, 10, 69, 127
14, 146730, Note_on_c, 10, 69, 0
14, 146730, Note_on_c, 10, 64, 127
14, 146760, Note_on_c, 10, 64, 0
14, 146760, Note_on_c, 10, 62, 127
14, 146790, Note_on_c, 10, 62, 0
14, 146790, Note_on_c, 10, 59, 127
14, 146820, Note_on_c, 10, 59, 0
14, 146820, Note_on_c, 10, 60, 127
14, 146850, Note_on_c, 10, 60, 0
14, 146850, Note_on_c, 10, 57, 127
14, 146880, Note_on_c, 10, 57, 0
14, 146880, Note_on_c, 10, 59, 127
14, 147300, Note_on_c, 10, 59, 0
14, 147600, Note_on_c, 10, 59, 127
14, 147630, Note_on_c, 10, 59, 0
14, 147630, Note_on_c, 10, 61, 127
14, 147660, Note_on_c, 10, 61, 0
14, 147660, Note_on_c, 10, 62, 127
14, 147720, Note_on_c, 10, 62, 0
14, 147720, Note_on_c, 10, 61, 127
14, 147780, Note_on_c, 10, 61, 0
14, 147780, Note_on_c, 10, 59, 127
14, 147840, Note_on_c, 10, 59, 0
14, 147840, Note_on_c, 10, 54, 127
14, 147870, Note_on_c, 10, 54, 0
14, 147870, Note_on_c, 10, 52, 127
14, 147900, Note_on_c, 10, 52, 0
14, 147900, Note_on_c, 10, 54, 127
14, 147960, Note_on_c, 10, 54, 0
14, 147960, Note_on_c, 10, 66, 127
14, 148350, Note_on_c, 10, 66, 0
14, 148350, Note_on_c, 10, 61, 127
14, 148380, Note_on_c, 10, 61, 0
14, 148380, Note_on_c, 10, 62, 127
14, 148410, Note_on_c, 10, 62, 0
14, 148410, Note_on_c, 10, 66, 127
14, 148440, Note_on_c, 10, 66, 0
14, 148440, Note_on_c, 10, 70, 127
14, 148470, Note_on_c, 10, 70, 0
14, 148470, Note_on_c, 10, 71, 127
14, 148500, Note_on_c, 10, 71, 0
14, 148500, Note_on_c, 10, 67, 127
14, 148710, Note_on_c, 10, 67, 0
14, 148710, Note_on_c, 10, 62, 127
14, 148740, Note_on_c, 10, 62, 0
14, 148740, Note_on_c, 10, 64, 127
14, 148770, Note_on_c, 10, 64, 0
14, 148770, Note_on_c, 10, 67, 127
14, 148800, Note_on_c, 10, 67, 0
14, 148800, Note_on_c, 10, 59, 127
14, 148830, Note_on_c, 10, 59, 0
14, 148830, Note_on_c, 10, 57, 127
14, 148860, Note_on_c, 10, 57, 0
14, 148860, Note_on_c, 10, 66, 127
14, 149070, Note_on_c, 10, 66, 0
14, 149070, Note_on_c, 10, 71, 127
14, 149100, Note_on_c, 10, 71, 0
14, 149100, Note_on_c, 10, 67, 127
14, 149130, Note_on_c, 10, 67, 0
14, 149130, Note_on_c, 10, 63, 127
14, 149160, Note_on_c, 10, 63, 0
14, 149160, Note_on_c, 10, 64, 127
14, 149190, Note_on_c, 10, 64, 0
14, 149190, Note_on_c, 10, 61, 127
14, 149220, Note_on_c, 10, 61, 0
14, 149220, Note_on_c, 10, 62, 127
14, 149250, Note_on_c, 10, 62, 0
14, 149250, Note_on_c, 10, 71, 127
14, 149280, Note_on_c, 10, 71, 0
14, 149280, Note_on_c, 10, 66, 127
14, 149310, Note_on_c, 10, 66, 0
14, 149310, Note_on_c, 10, 61, 127
14, 149340, Note_on_c, 10, 61, 0
14, 149340, Note_on_c, 10, 62, 127
14, 149370, Note_on_c, 10, 62, 0
14, 149370, Note_on_c, 10, 59, 127
14, 149400, Note_on_c, 10, 59, 0
14, 149400, Note_on_c, 10, 61, 127
14, 149460, Note_on_c, 10, 61, 0
14, 149580, Note_on_c, 10, 66, 127
14, 149610, Note_on_c, 10, 66, 0
14, 149610, Note_on_c, 10, 67, 127
14, 149640, Note_on_c, 10, 67, 0
14, 149640, Note_on_c, 10, 69, 127
14, 149700, Note_on_c, 10, 69, 0
14, 149700, Note_on_c, 10, 67, 127
14, 149760, Note_on_c, 10, 67, 0
14, 149760, Note_on_c, 10, 66, 127
14, 149820, Note_on_c, 10, 66, 0
14, 149820, Note_on_c, 10, 59, 127
14, 149850, Note_on_c, 10, 59, 0
14, 149850, Note_on_c, 10, 58, 127
14, 149880, Note_on_c, 10, 58, 0
14, 149880, Note_on_c, 10, 59, 127
14, 149940, Note_on_c, 10, 59, 0
14, 149940, Note_on_c, 10, 64, 127
14, 149970, Note_on_c, 10, 64, 0
14, 149970, Note_on_c, 10, 66, 127
14, 150000, Note_on_c, 10, 66, 0
14, 150000, Note_on_c, 10, 67, 127
14, 150030, Note_on_c, 10, 67, 0
14, 150030, Note_on_c, 10, 64, 127
14, 150060, Note_on_c, 10, 64, 0
14, 150060, Note_on_c, 10, 66, 127
14, 150090, Note_on_c, 10, 66, 0
14, 150090, Note_on_c, 10, 63, 127
14, 150120, Note_on_c, 10, 63, 0
14, 150120, Note_on_c, 10, 64, 127
14, 150180, Note_on_c, 10, 64, 0
14, 150180, Note_on_c, 10, 59, 127
14, 150210, Note_on_c, 10, 59, 0
14, 150210, Note_on_c, 10, 58, 127
14, 150240, Note_on_c, 10, 58, 0
14, 150240, Note_on_c, 10, 59, 127
14, 150300, Note_on_c, 10, 59, 0
14, 150300, Note_on_c, 10, 71, 127
14, 150690, Note_on_c, 10, 71, 0
14, 150690, Note_on_c, 10, 62, 127
14, 150720, Note_on_c, 10, 62, 0
14, 150720, Note_on_c, 10, 67, 127
14, 150750, Note_on_c, 10, 67, 0
14, 150750, Note_on_c, 10, 66, 127
14, 150780, Note_on_c, 10, 66, 0
14, 150780, Note_on_c, 10, 58, 127
14, 150810, Note_on_c, 10, 58, 0
14, 150810, Note_on_c, 10, 59, 127
14, 150840, Note_on_c, 10, 59, 0
14, 150840, Note_on_c, 10, 59, 127
14, 151020, Note_on_c, 10, 59, 0
14, 151020, End_track
15, 0, Start_track
15, 0, MIDI_port, 0
15, 0, Title_t, "violin i"
15, 0, Program_c, 8, 48
15, 120, Note_on_c, 8, 66, 80
15, 180, Note_on_c, 8, 66, 0
15, 180, Note_on_c, 8, 62, 80
15, 240, Note_on_c, 8, 62, 0
15, 480, Note_on_c, 8, 69, 80
15, 540, Note_on_c, 8, 69, 0
15, 540, Note_on_c, 8, 66, 80
15, 600, Note_on_c, 8, 66, 0
15, 840, Note_on_c, 8, 74, 80
15, 900, Note_on_c, 8, 74, 0
15, 900, Note_on_c, 8, 69, 80
15, 960, Note_on_c, 8, 69, 0
15, 1110, Note_on_c, 8, 62, 80
15, 1140, Note_on_c, 8, 62, 0
15, 1140, Note_on_c, 8, 64, 80
15, 1170, Note_on_c, 8, 64, 0
15, 1170, Note_on_c, 8, 66, 80
15, 1200, Note_on_c, 8, 66, 0
15, 1200, Note_on_c, 8, 67, 80
15, 1230, Note_on_c, 8, 67, 0
15, 1230, Note_on_c, 8, 69, 80
15, 1260, Note_on_c, 8, 69, 0
15, 1260, Note_on_c, 8, 71, 80
15, 1290, Note_on_c, 8, 71, 0
15, 1290, Note_on_c, 8, 73, 80
15, 1320, Note_on_c, 8, 73, 0
15, 1320, Note_on_c, 8, 74, 80
15, 1350, Note_on_c, 8, 74, 0
15, 1350, Note_on_c, 8, 73, 80
15, 1380, Note_on_c, 8, 73, 0
15, 1380, Note_on_c, 8, 74, 80
15, 1410, Note_on_c, 8, 74, 0
15, 1410, Note_on_c, 8, 73, 80
15, 1440, Note_on_c, 8, 73, 0
15, 1440, Note_on_c, 8, 74, 80
15, 1469, Note_on_c, 8, 74, 0
15, 1470, Note_on_c, 8, 66, 80
15, 1499, Note_on_c, 8, 66, 0
15, 1500, Note_on_c, 8, 67, 80
15, 1529, Note_on_c, 8, 67, 0
15, 1530, Note_on_c, 8, 69, 80
15, 1559, Note_on_c, 8, 69, 0
15, 1560, Note_on_c, 8, 71, 80
15, 1589, Note_on_c, 8, 71, 0
15, 1590, Note_on_c, 8, 73, 80
15, 1619, Note_on_c, 8, 73, 0
15, 1620, Note_on_c, 8, 74, 80
15, 1649, Note_on_c, 8, 74, 0
15, 1650, Note_on_c, 8, 76, 80
15, 1679, Note_on_c, 8, 76, 0
15, 1680, Note_on_c, 8, 78, 80
15, 1709, Note_on_c, 8, 78, 0
15, 1710, Note_on_c, 8, 76, 80
15, 1739, Note_on_c, 8, 76, 0
15, 1740, Note_on_c, 8, 78, 80
15, 1769, Note_on_c, 8, 78, 0
15, 1770, Note_on_c, 8, 76, 80
15, 1799, Note_on_c, 8, 76, 0
15, 1800, Note_on_c, 8, 78, 80
15, 1829, Note_on_c, 8, 78, 0
15, 1830, Note_on_c, 8, 74, 80
15, 1859, Note_on_c, 8, 74, 0
15, 1860, Note_on_c, 8, 76, 80
15, 1889, Note_on_c, 8, 76, 0
15, 1890, Note_on_c, 8, 78, 80
15, 1919, Note_on_c, 8, 78, 0
15, 1920, Note_on_c, 8, 79, 80
15, 1949, Note_on_c, 8, 79, 0
15, 1950, Note_on_c, 8, 81, 80
15, 1979, Note_on_c, 8, 81, 0
15, 1980, Note_on_c, 8, 83, 80
15, 2009, Note_on_c, 8, 83, 0
15, 2010, Note_on_c, 8, 85, 80
15, 2039, Note_on_c, 8, 85, 0
15, 2040, Note_on_c, 8, 86, 80
15, 2069, Note_on_c, 8, 86, 0
15, 2070, Note_on_c, 8, 85, 80
15, 2099, Note_on_c, 8, 85, 0
15, 2100, Note_on_c, 8, 86, 80
15, 2129, Note_on_c, 8, 86, 0
15, 2130, Note_on_c, 8, 85, 80
15, 2159, Note_on_c, 8, 85, 0
15, 2160, Note_on_c, 8, 83, 80
15, 2189, Note_on_c, 8, 83, 0
15, 2190, Note_on_c, 8, 81, 80
15, 2219, Note_on_c, 8, 81, 0
15, 2220, Note_on_c, 8, 83, 80
15, 2249, Note_on_c, 8, 83, 0
15, 2250, Note_on_c, 8, 81, 80
15, 2279, Note_on_c, 8, 81, 0
15, 2280, Note_on_c, 8, 80, 80
15, 2309, Note_on_c, 8, 80, 0
15, 2310, Note_on_c, 8, 78, 80
15, 2339, Note_on_c, 8, 78, 0
15, 2340, Note_on_c, 8, 80, 80
15, 2369, Note_on_c, 8, 80, 0
15, 2370, Note_on_c, 8, 78, 80
15, 2399, Note_on_c, 8, 78, 0
15, 2400, Note_on_c, 8, 76, 80
15, 2429, Note_on_c, 8, 76, 0
15, 2430, Note_on_c, 8, 74, 80
15, 2459, Note_on_c, 8, 74, 0
15, 2460, Note_on_c, 8, 76, 80
15, 2489, Note_on_c, 8, 76, 0
15, 2490, Note_on_c, 8, 74, 80
15, 2519, Note_on_c, 8, 74, 0
15, 2520, Note_on_c, 8, 73, 80
15, 2549, Note_on_c, 8, 73, 0
15, 2550, Note_on_c, 8, 76, 80
15, 2579, Note_on_c, 8, 76, 0
15, 2580, Note_on_c, 8, 81, 80
15, 2609, Note_on_c, 8, 81, 0
15, 2610, Note_on_c, 8, 83, 80
15, 2639, Note_on_c, 8, 83, 0
15, 2640, Note_on_c, 8, 85, 80
15, 2669, Note_on_c, 8, 85, 0
15, 2670, Note_on_c, 8, 83, 80
15, 2699, Note_on_c, 8, 83, 0
15, 2700, Note_on_c, 8, 81, 80
15, 2729, Note_on_c, 8, 81, 0
15, 2730, Note_on_c, 8, 83, 80
15, 2759, Note_on_c, 8, 83, 0
15, 2760, Note_on_c, 8, 83, 80
15, 2849, Note_on_c, 8, 83, 0
15, 2850, Note_on_c, 8, 81, 80
15, 2879, Note_on_c, 8, 81, 0
15, 2880, Note_on_c, 8, 81, 80
15, 2909, Note_on_c, 8, 81, 0
15, 2910, Note_on_c, 8, 57, 80
15, 2939, Note_on_c, 8, 57, 0
15, 2940, Note_on_c, 8, 59, 80
15, 2969, Note_on_c, 8, 59, 0
15, 2970, Note_on_c, 8, 61, 80
15, 2999, Note_on_c, 8, 61, 0
15, 3000, Note_on_c, 8, 62, 80
15, 3029, Note_on_c, 8, 62, 0
15, 3030, Note_on_c, 8, 64, 80
15, 3059, Note_on_c, 8, 64, 0
15, 3060, Note_on_c, 8, 66, 80
15, 3089, Note_on_c, 8, 66, 0
15, 3090, Note_on_c, 8, 67, 80
15, 3119, Note_on_c, 8, 67, 0
15, 3120, Note_on_c, 8, 69, 80
15, 3149, Note_on_c, 8, 69, 0
15, 3150, Note_on_c, 8, 67, 80
15, 3179, Note_on_c, 8, 67, 0
15, 3180, Note_on_c, 8, 69, 80
15, 3209, Note_on_c, 8, 69, 0
15, 3210, Note_on_c, 8, 67, 80
15, 3239, Note_on_c, 8, 67, 0
15, 3240, Note_on_c, 8, 66, 80
15, 3299, Note_on_c, 8, 66, 0
15, 3300, Note_on_c, 8, 66, 80
15, 3359, Note_on_c, 8, 66, 0
15, 3360, Note_on_c, 8, 66, 80
15, 3419, Note_on_c, 8, 66, 0
15, 3420, Note_on_c, 8, 66, 80
15, 3479, Note_on_c, 8, 66, 0
15, 3480, Note_on_c, 8, 66, 80
15, 3539, Note_on_c, 8, 66, 0
15, 3540, Note_on_c, 8, 67, 80
15, 3569, Note_on_c, 8, 67, 0
15, 3570, Note_on_c, 8, 69, 80
15, 3599, Note_on_c, 8, 69, 0
15, 3600, Note_on_c, 8, 71, 80
15, 3629, Note_on_c, 8, 71, 0
15, 3630, Note_on_c, 8, 71, 80
15, 3659, Note_on_c, 8, 71, 0
15, 3660, Note_on_c, 8, 73, 80
15, 3689, Note_on_c, 8, 73, 0
15, 3690, Note_on_c, 8, 75, 80
15, 3719, Note_on_c, 8, 75, 0
15, 3720, Note_on_c, 8, 76, 80
15, 3749, Note_on_c, 8, 76, 0
15, 3750, Note_on_c, 8, 78, 80
15, 3779, Note_on_c, 8, 78, 0
15, 3780, Note_on_c, 8, 79, 80
15, 3809, Note_on_c, 8, 79, 0
15, 3810, Note_on_c, 8, 81, 80
15, 3839, Note_on_c, 8, 81, 0
15, 3840, Note_on_c, 8, 83, 80
15, 3869, Note_on_c, 8, 83, 0
15, 3870, Note_on_c, 8, 84, 80
15, 3899, Note_on_c, 8, 84, 0
15, 3900, Note_on_c, 8, 81, 80
15, 3929, Note_on_c, 8, 81, 0
15, 3930, Note_on_c, 8, 83, 80
15, 3959, Note_on_c, 8, 83, 0
15, 3960, Note_on_c, 8, 79, 80
15, 4019, Note_on_c, 8, 79, 0
15, 4350, Note_on_c, 8, 64, 80
15, 4379, Note_on_c, 8, 64, 0
15, 4380, Note_on_c, 8, 66, 80
15, 4409, Note_on_c, 8, 66, 0
15, 4410, Note_on_c, 8, 67, 80
15, 4439, Note_on_c, 8, 67, 0
15, 4440, Note_on_c, 8, 69, 80
15, 4469, Note_on_c, 8, 69, 0
15, 4470, Note_on_c, 8, 71, 80
15, 4499, Note_on_c, 8, 71, 0
15, 4500, Note_on_c, 8, 73, 80
15, 4529, Note_on_c, 8, 73, 0
15, 4530, Note_on_c, 8, 74, 80
15, 4559, Note_on_c, 8, 74, 0
15, 4560, Note_on_c, 8, 76, 80
15, 4589, Note_on_c, 8, 76, 0
15, 4590, Note_on_c, 8, 74, 80
15, 4619, Note_on_c, 8, 74, 0
15, 4620, Note_on_c, 8, 76, 80
15, 4649, Note_on_c, 8, 76, 0
15, 4650, Note_on_c, 8, 74, 80
15, 4679, Note_on_c, 8, 74, 0
15, 4680, Note_on_c, 8, 73, 80
15, 4709, Note_on_c, 8, 73, 0
15, 4710, Note_on_c, 8, 69, 80
15, 4739, Note_on_c, 8, 69, 0
15, 4740, Note_on_c, 8, 71, 80
15, 4769, Note_on_c, 8, 71, 0
15, 4770, Note_on_c, 8, 73, 80
15, 4799, Note_on_c, 8, 73, 0
15, 4800, Note_on_c, 8, 74, 80
15, 4829, Note_on_c, 8, 74, 0
15, 4830, Note_on_c, 8, 76, 80
15, 4859, Note_on_c, 8, 76, 0
15, 4860, Note_on_c, 8, 78, 80
15, 4889, Note_on_c, 8, 78, 0
15, 4890, Note_on_c, 8, 79, 80
15, 4919, Note_on_c, 8, 79, 0
15, 4920, Note_on_c, 8, 81, 80
15, 4949, Note_on_c, 8, 81, 0
15, 4950, Note_on_c, 8, 83, 80
15, 4979, Note_on_c, 8, 83, 0
15, 4980, Note_on_c, 8, 79, 80
15, 5009, Note_on_c, 8, 79, 0
15, 5010, Note_on_c, 8, 81, 80
15, 5039, Note_on_c, 8, 81, 0
15, 5040, Note_on_c, 8, 78, 80
15, 5069, Note_on_c, 8, 78, 0
15, 5070, Note_on_c, 8, 74, 80
15, 5099, Note_on_c, 8, 74, 0
15, 5100, Note_on_c, 8, 73, 80
15, 5129, Note_on_c, 8, 73, 0
15, 5130, Note_on_c, 8, 71, 80
15, 5159, Note_on_c, 8, 71, 0
15, 5160, Note_on_c, 8, 69, 80
15, 5189, Note_on_c, 8, 69, 0
15, 5190, Note_on_c, 8, 67, 80
15, 5219, Note_on_c, 8, 67, 0
15, 5220, Note_on_c, 8, 66, 80
15, 5249, Note_on_c, 8, 66, 0
15, 5250, Note_on_c, 8, 64, 80
15, 5279, Note_on_c, 8, 64, 0
15, 5280, Note_on_c, 8, 62, 80
15, 5339, Note_on_c, 8, 62, 0
15, 5460, Note_on_c, 8, 64, 80
15, 5519, Note_on_c, 8, 64, 0
15, 5520, Note_on_c, 8, 64, 80
15, 5579, Note_on_c, 8, 64, 0
15, 5580, Note_on_c, 8, 64, 80
15, 5639, Note_on_c, 8, 64, 0
15, 5640, Note_on_c, 8, 64, 80
15, 5699, Note_on_c, 8, 64, 0
15, 5700, Note_on_c, 8, 66, 80
15, 5729, Note_on_c, 8, 66, 0
15, 5730, Note_on_c, 8, 67, 80
15, 5759, Note_on_c, 8, 67, 0
15, 5760, Note_on_c, 8, 61, 80
15, 5819, Note_on_c, 8, 61, 0
15, 5820, Note_on_c, 8, 62, 80
15, 5879, Note_on_c, 8, 62, 0
15, 5880, Note_on_c, 8, 62, 80
15, 5939, Note_on_c, 8, 62, 0
15, 5940, Note_on_c, 8, 62, 80
15, 5999, Note_on_c, 8, 62, 0
15, 6000, Note_on_c, 8, 62, 80
15, 6059, Note_on_c, 8, 62, 0
15, 6060, Note_on_c, 8, 64, 80
15, 6089, Note_on_c, 8, 64, 0
15, 6090, Note_on_c, 8, 66, 80
15, 6119, Note_on_c, 8, 66, 0
15, 6120, Note_on_c, 8, 59, 80
15, 6179, Note_on_c, 8, 59, 0
15, 6180, Note_on_c, 8, 61, 80
15, 6239, Note_on_c, 8, 61, 0
15, 6240, Note_on_c, 8, 61, 80
15, 6299, Note_on_c, 8, 61, 0
15, 6300, Note_on_c, 8, 61, 80
15, 6359, Note_on_c, 8, 61, 0
15, 6360, Note_on_c, 8, 61, 80
15, 6419, Note_on_c, 8, 61, 0
15, 6420, Note_on_c, 8, 62, 80
15, 6449, Note_on_c, 8, 62, 0
15, 6450, Note_on_c, 8, 64, 80
15, 6479, Note_on_c, 8, 64, 0
15, 6480, Note_on_c, 8, 57, 80
15, 6539, Note_on_c, 8, 57, 0
15, 6750, Note_on_c, 8, 69, 80
15, 6779, Note_on_c, 8, 69, 0
15, 6780, Note_on_c, 8, 71, 80
15, 6809, Note_on_c, 8, 71, 0
15, 6810, Note_on_c, 8, 73, 80
15, 6839, Note_on_c, 8, 73, 0
15, 6840, Note_on_c, 8, 74, 80
15, 6869, Note_on_c, 8, 74, 0
15, 6870, Note_on_c, 8, 72, 80
15, 6899, Note_on_c, 8, 72, 0
15, 6900, Note_on_c, 8, 71, 80
15, 6929, Note_on_c, 8, 71, 0
15, 6930, Note_on_c, 8, 69, 80
15, 6959, Note_on_c, 8, 69, 0
15, 6960, Note_on_c, 8, 68, 80
15, 7019, Note_on_c, 8, 68, 0
15, 7110, Note_on_c, 8, 66, 80
15, 7139, Note_on_c, 8, 66, 0
15, 7140, Note_on_c, 8, 68, 80
15, 7169, Note_on_c, 8, 68, 0
15, 7170, Note_on_c, 8, 69, 80
15, 7199, Note_on_c, 8, 69, 0
15, 7200, Note_on_c, 8, 71, 80
15, 7229, Note_on_c, 8, 71, 0
15, 7230, Note_on_c, 8, 69, 80
15, 7259, Note_on_c, 8, 69, 0
15, 7260, Note_on_c, 8, 68, 80
15, 7289, Note_on_c, 8, 68, 0
15, 7290, Note_on_c, 8, 66, 80
15, 7319, Note_on_c, 8, 66, 0
15, 7320, Note_on_c, 8, 64, 80
15, 7379, Note_on_c, 8, 64, 0
15, 7470, Note_on_c, 8, 68, 80
15, 7499, Note_on_c, 8, 68, 0
15, 7500, Note_on_c, 8, 69, 80
15, 7529, Note_on_c, 8, 69, 0
15, 7530, Note_on_c, 8, 71, 80
15, 7559, Note_on_c, 8, 71, 0
15, 7560, Note_on_c, 8, 73, 80
15, 7619, Note_on_c, 8, 73, 0
15, 7620, Note_on_c, 8, 76, 80
15, 7679, Note_on_c, 8, 76, 0
15, 7800, Note_on_c, 8, 76, 80
15, 7859, Note_on_c, 8, 76, 0
15, 7860, Note_on_c, 8, 73, 80
15, 7919, Note_on_c, 8, 73, 0
15, 8160, Note_on_c, 8, 78, 80
15, 8219, Note_on_c, 8, 78, 0
15, 8220, Note_on_c, 8, 74, 80
15, 8279, Note_on_c, 8, 74, 0
15, 8520, Note_on_c, 8, 76, 80
15, 8579, Note_on_c, 8, 76, 0
15, 8580, Note_on_c, 8, 73, 80
15, 8639, Note_on_c, 8, 73, 0
15, 8640, Note_on_c, 8, 74, 80
15, 8669, Note_on_c, 8, 74, 0
15, 8670, Note_on_c, 8, 66, 80
15, 8699, Note_on_c, 8, 66, 0
15, 8700, Note_on_c, 8, 67, 80
15, 8729, Note_on_c, 8, 67, 0
15, 8730, Note_on_c, 8, 69, 80
15, 8759, Note_on_c, 8, 69, 0
15, 8760, Note_on_c, 8, 71, 80
15, 8789, Note_on_c, 8, 71, 0
15, 8790, Note_on_c, 8, 73, 80
15, 8819, Note_on_c, 8, 73, 0
15, 8820, Note_on_c, 8, 74, 80
15, 8849, Note_on_c, 8, 74, 0
15, 8850, Note_on_c, 8, 76, 80
15, 8879, Note_on_c, 8, 76, 0
15, 8880, Note_on_c, 8, 78, 80
15, 8909, Note_on_c, 8, 78, 0
15, 8910, Note_on_c, 8, 76, 80
15, 8939, Note_on_c, 8, 76, 0
15, 8940, Note_on_c, 8, 78, 80
15, 8969, Note_on_c, 8, 78, 0
15, 8970, Note_on_c, 8, 76, 80
15, 8999, Note_on_c, 8, 76, 0
15, 9000, Note_on_c, 8, 78, 80
15, 9029, Note_on_c, 8, 78, 0
15, 9030, Note_on_c, 8, 74, 80
15, 9059, Note_on_c, 8, 74, 0
15, 9060, Note_on_c, 8, 76, 80
15, 9089, Note_on_c, 8, 76, 0
15, 9090, Note_on_c, 8, 78, 80
15, 9119, Note_on_c, 8, 78, 0
15, 9120, Note_on_c, 8, 79, 80
15, 9149, Note_on_c, 8, 79, 0
15, 9150, Note_on_c, 8, 81, 80
15, 9179, Note_on_c, 8, 81, 0
15, 9180, Note_on_c, 8, 83, 80
15, 9209, Note_on_c, 8, 83, 0
15, 9210, Note_on_c, 8, 85, 80
15, 9239, Note_on_c, 8, 85, 0
15, 9240, Note_on_c, 8, 86, 80
15, 9269, Note_on_c, 8, 86, 0
15, 9270, Note_on_c, 8, 85, 80
15, 9299, Note_on_c, 8, 85, 0
15, 9300, Note_on_c, 8, 86, 80
15, 9329, Note_on_c, 8, 86, 0
15, 9330, Note_on_c, 8, 85, 80
15, 9359, Note_on_c, 8, 85, 0
15, 9360, Note_on_c, 8, 83, 80
15, 9389, Note_on_c, 8, 83, 0
15, 9390, Note_on_c, 8, 81, 80
15, 9419, Note_on_c, 8, 81, 0
15, 9420, Note_on_c, 8, 83, 80
15, 9449, Note_on_c, 8, 83, 0
15, 9450, Note_on_c, 8, 81, 80
15, 9479, Note_on_c, 8, 81, 0
15, 9480, Note_on_c, 8, 79, 80
15, 9509, Note_on_c, 8, 79, 0
15, 9510, Note_on_c, 8, 78, 80
15, 9539, Note_on_c, 8, 78, 0
15, 9540, Note_on_c, 8, 79, 80
15, 9569, Note_on_c, 8, 79, 0
15, 9570, Note_on_c, 8, 78, 80
15, 9599, Note_on_c, 8, 78, 0
15, 9600, Note_on_c, 8, 76, 80
15, 9629, Note_on_c, 8, 76, 0
15, 9630, Note_on_c, 8, 74, 80
15, 9659, Note_on_c, 8, 74, 0
15, 9660, Note_on_c, 8, 76, 80
15, 9689, Note_on_c, 8, 76, 0
15, 9690, Note_on_c, 8, 74, 80
15, 9719, Note_on_c, 8, 74, 0
15, 9720, Note_on_c, 8, 79, 80
15, 9779, Note_on_c, 8, 79, 0
15, 9780, Note_on_c, 8, 81, 80
15, 9809, Note_on_c, 8, 81, 0
15, 9810, Note_on_c, 8, 79, 80
15, 9839, Note_on_c, 8, 79, 0
15, 9840, Note_on_c, 8, 78, 80
15, 9869, Note_on_c, 8, 78, 0
15, 9870, Note_on_c, 8, 76, 80
15, 9899, Note_on_c, 8, 76, 0
15, 9900, Note_on_c, 8, 74, 80
15, 9929, Note_on_c, 8, 74, 0
15, 9930, Note_on_c, 8, 76, 80
15, 9959, Note_on_c, 8, 76, 0
15, 9960, Note_on_c, 8, 76, 80
15, 10049, Note_on_c, 8, 76, 0
15, 10050, Note_on_c, 8, 74, 80
15, 10079, Note_on_c, 8, 74, 0
15, 10080, Note_on_c, 8, 74, 80
15, 10199, Note_on_c, 8, 74, 0
15, 10320, Note_on_c, 8, 81, 80
15, 10379, Note_on_c, 8, 81, 0
15, 10380, Note_on_c, 8, 78, 80
15, 10439, Note_on_c, 8, 78, 0
15, 10680, Note_on_c, 8, 71, 80
15, 10739, Note_on_c, 8, 71, 0
15, 10740, Note_on_c, 8, 66, 80
15, 10799, Note_on_c, 8, 66, 0
15, 11040, Note_on_c, 8, 78, 80
15, 11099, Note_on_c, 8, 78, 0
15, 11100, Note_on_c, 8, 74, 80
15, 11159, Note_on_c, 8, 74, 0
15, 11400, Note_on_c, 8, 67, 80
15, 11459, Note_on_c, 8, 67, 0
15, 11460, Note_on_c, 8, 62, 80
15, 11519, Note_on_c, 8, 62, 0
15, 11580, Note_on_c, 8, 81, 80
15, 11609, Note_on_c, 8, 81, 0
15, 11610, Note_on_c, 8, 79, 80
15, 11639, Note_on_c, 8, 79, 0
15, 11640, Note_on_c, 8, 78, 80
15, 11669, Note_on_c, 8, 78, 0
15, 11670, Note_on_c, 8, 76, 80
15, 11699, Note_on_c, 8, 76, 0
15, 11700, Note_on_c, 8, 74, 80
15, 11729, Note_on_c, 8, 74, 0
15, 11730, Note_on_c, 8, 73, 80
15, 11759, Note_on_c, 8, 73, 0
15, 11760, Note_on_c, 8, 74, 80
15, 11789, Note_on_c, 8, 74, 0
15, 11790, Note_on_c, 8, 71, 80
15, 11819, Note_on_c, 8, 71, 0
15, 11820, Note_on_c, 8, 73, 80
15, 11849, Note_on_c, 8, 73, 0
15, 11850, Note_on_c, 8, 69, 80
15, 11879, Note_on_c, 8, 69, 0
15, 11880, Note_on_c, 8, 76, 80
15, 11999, Note_on_c, 8, 76, 0
15, 12120, Note_on_c, 8, 76, 80
15, 12179, Note_on_c, 8, 76, 0
15, 12180, Note_on_c, 8, 73, 80
15, 12239, Note_on_c, 8, 73, 0
15, 12480, Note_on_c, 8, 78, 80
15, 12539, Note_on_c, 8, 78, 0
15, 12540, Note_on_c, 8, 74, 80
15, 12599, Note_on_c, 8, 74, 0
15, 12840, Note_on_c, 8, 76, 80
15, 12899, Note_on_c, 8, 76, 0
15, 12900, Note_on_c, 8, 73, 80
15, 12959, Note_on_c, 8, 73, 0
15, 12960, Note_on_c, 8, 74, 80
15, 12989, Note_on_c, 8, 74, 0
15, 12990, Note_on_c, 8, 66, 80
15, 13019, Note_on_c, 8, 66, 0
15, 13020, Note_on_c, 8, 67, 80
15, 13049, Note_on_c, 8, 67, 0
15, 13050, Note_on_c, 8, 69, 80
15, 13079, Note_on_c, 8, 69, 0
15, 13080, Note_on_c, 8, 71, 80
15, 13109, Note_on_c, 8, 71, 0
15, 13110, Note_on_c, 8, 73, 80
15, 13139, Note_on_c, 8, 73, 0
15, 13140, Note_on_c, 8, 74, 80
15, 13169, Note_on_c, 8, 74, 0
15, 13170, Note_on_c, 8, 76, 80
15, 13199, Note_on_c, 8, 76, 0
15, 13200, Note_on_c, 8, 78, 80
15, 13229, Note_on_c, 8, 78, 0
15, 13230, Note_on_c, 8, 76, 80
15, 13259, Note_on_c, 8, 76, 0
15, 13260, Note_on_c, 8, 78, 80
15, 13289, Note_on_c, 8, 78, 0
15, 13290, Note_on_c, 8, 76, 80
15, 13319, Note_on_c, 8, 76, 0
15, 13320, Note_on_c, 8, 78, 80
15, 13349, Note_on_c, 8, 78, 0
15, 13350, Note_on_c, 8, 74, 80
15, 13379, Note_on_c, 8, 74, 0
15, 13380, Note_on_c, 8, 76, 80
15, 13409, Note_on_c, 8, 76, 0
15, 13410, Note_on_c, 8, 78, 80
15, 13439, Note_on_c, 8, 78, 0
15, 13440, Note_on_c, 8, 79, 80
15, 13469, Note_on_c, 8, 79, 0
15, 13470, Note_on_c, 8, 81, 80
15, 13499, Note_on_c, 8, 81, 0
15, 13500, Note_on_c, 8, 83, 80
15, 13529, Note_on_c, 8, 83, 0
15, 13530, Note_on_c, 8, 85, 80
15, 13559, Note_on_c, 8, 85, 0
15, 13560, Note_on_c, 8, 86, 80
15, 13589, Note_on_c, 8, 86, 0
15, 13590, Note_on_c, 8, 85, 80
15, 13619, Note_on_c, 8, 85, 0
15, 13620, Note_on_c, 8, 86, 80
15, 13649, Note_on_c, 8, 86, 0
15, 13650, Note_on_c, 8, 85, 80
15, 13679, Note_on_c, 8, 85, 0
15, 13680, Note_on_c, 8, 83, 80
15, 13709, Note_on_c, 8, 83, 0
15, 13710, Note_on_c, 8, 81, 80
15, 13739, Note_on_c, 8, 81, 0
15, 13740, Note_on_c, 8, 83, 80
15, 13769, Note_on_c, 8, 83, 0
15, 13770, Note_on_c, 8, 81, 80
15, 13799, Note_on_c, 8, 81, 0
15, 13800, Note_on_c, 8, 79, 80
15, 13829, Note_on_c, 8, 79, 0
15, 13830, Note_on_c, 8, 78, 80
15, 13859, Note_on_c, 8, 78, 0
15, 13860, Note_on_c, 8, 79, 80
15, 13889, Note_on_c, 8, 79, 0
15, 13890, Note_on_c, 8, 78, 80
15, 13919, Note_on_c, 8, 78, 0
15, 13920, Note_on_c, 8, 76, 80
15, 13949, Note_on_c, 8, 76, 0
15, 13950, Note_on_c, 8, 74, 80
15, 13979, Note_on_c, 8, 74, 0
15, 13980, Note_on_c, 8, 76, 80
15, 14009, Note_on_c, 8, 76, 0
15, 14010, Note_on_c, 8, 74, 80
15, 14039, Note_on_c, 8, 74, 0
15, 14040, Note_on_c, 8, 79, 80
15, 14099, Note_on_c, 8, 79, 0
15, 14100, Note_on_c, 8, 81, 80
15, 14129, Note_on_c, 8, 81, 0
15, 14130, Note_on_c, 8, 79, 80
15, 14159, Note_on_c, 8, 79, 0
15, 14160, Note_on_c, 8, 78, 80
15, 14189, Note_on_c, 8, 78, 0
15, 14190, Note_on_c, 8, 76, 80
15, 14219, Note_on_c, 8, 76, 0
15, 14220, Note_on_c, 8, 74, 80
15, 14249, Note_on_c, 8, 74, 0
15, 14250, Note_on_c, 8, 76, 80
15, 14279, Note_on_c, 8, 76, 0
15, 14280, Note_on_c, 8, 76, 80
15, 14369, Note_on_c, 8, 76, 0
15, 14370, Note_on_c, 8, 74, 80
15, 14399, Note_on_c, 8, 74, 0
15, 14400, Note_on_c, 8, 74, 80
15, 14519, Note_on_c, 8, 74, 0
15, 14640, Note_on_c, 8, 66, 80
15, 14699, Note_on_c, 8, 66, 0
15, 14700, Note_on_c, 8, 62, 80
15, 14759, Note_on_c, 8, 62, 0
15, 15000, Note_on_c, 8, 69, 80
15, 15059, Note_on_c, 8, 69, 0
15, 15060, Note_on_c, 8, 66, 80
15, 15119, Note_on_c, 8, 66, 0
15, 15360, Note_on_c, 8, 74, 80
15, 15419, Note_on_c, 8, 74, 0
15, 15420, Note_on_c, 8, 69, 80
15, 15479, Note_on_c, 8, 69, 0
15, 15510, Note_on_c, 8, 62, 80
15, 15539, Note_on_c, 8, 62, 0
15, 15540, Note_on_c, 8, 64, 80
15, 15569, Note_on_c, 8, 64, 0
15, 15570, Note_on_c, 8, 66, 80
15, 15599, Note_on_c, 8, 66, 0
15, 15600, Note_on_c, 8, 67, 80
15, 15629, Note_on_c, 8, 67, 0
15, 15630, Note_on_c, 8, 69, 80
15, 15659, Note_on_c, 8, 69, 0
15, 15660, Note_on_c, 8, 71, 80
15, 15689, Note_on_c, 8, 71, 0
15, 15690, Note_on_c, 8, 73, 80
15, 15719, Note_on_c, 8, 73, 0
15, 15720, Note_on_c, 8, 74, 80
15, 15749, Note_on_c, 8, 74, 0
15, 15750, Note_on_c, 8, 73, 80
15, 15779, Note_on_c, 8, 73, 0
15, 15780, Note_on_c, 8, 74, 80
15, 15809, Note_on_c, 8, 74, 0
15, 15810, Note_on_c, 8, 73, 80
15, 15839, Note_on_c, 8, 73, 0
15, 15840, Note_on_c, 8, 74, 80
15, 15869, Note_on_c, 8, 74, 0
15, 15870, Note_on_c, 8, 66, 80
15, 15899, Note_on_c, 8, 66, 0
15, 15900, Note_on_c, 8, 67, 80
15, 15929, Note_on_c, 8, 67, 0
15, 15930, Note_on_c, 8, 69, 80
15, 15959, Note_on_c, 8, 69, 0
15, 15960, Note_on_c, 8, 71, 80
15, 15989, Note_on_c, 8, 71, 0
15, 15990, Note_on_c, 8, 73, 80
15, 16019, Note_on_c, 8, 73, 0
15, 16020, Note_on_c, 8, 74, 80
15, 16049, Note_on_c, 8, 74, 0
15, 16050, Note_on_c, 8, 76, 80
15, 16079, Note_on_c, 8, 76, 0
15, 16080, Note_on_c, 8, 78, 80
15, 16109, Note_on_c, 8, 78, 0
15, 16110, Note_on_c, 8, 76, 80
15, 16139, Note_on_c, 8, 76, 0
15, 16140, Note_on_c, 8, 78, 80
15, 16169, Note_on_c, 8, 78, 0
15, 16170, Note_on_c, 8, 76, 80
15, 16199, Note_on_c, 8, 76, 0
15, 16200, Note_on_c, 8, 78, 80
15, 16229, Note_on_c, 8, 78, 0
15, 16230, Note_on_c, 8, 74, 80
15, 16259, Note_on_c, 8, 74, 0
15, 16260, Note_on_c, 8, 76, 80
15, 16289, Note_on_c, 8, 76, 0
15, 16290, Note_on_c, 8, 78, 80
15, 16319, Note_on_c, 8, 78, 0
15, 16320, Note_on_c, 8, 79, 80
15, 16349, Note_on_c, 8, 79, 0
15, 16350, Note_on_c, 8, 81, 80
15, 16379, Note_on_c, 8, 81, 0
15, 16380, Note_on_c, 8, 83, 80
15, 16409, Note_on_c, 8, 83, 0
15, 16410, Note_on_c, 8, 85, 80
15, 16439, Note_on_c, 8, 85, 0
15, 16440, Note_on_c, 8, 86, 80
15, 16469, Note_on_c, 8, 86, 0
15, 16470, Note_on_c, 8, 85, 80
15, 16499, Note_on_c, 8, 85, 0
15, 16500, Note_on_c, 8, 86, 80
15, 16529, Note_on_c, 8, 86, 0
15, 16530, Note_on_c, 8, 85, 80
15, 16559, Note_on_c, 8, 85, 0
15, 16560, Note_on_c, 8, 83, 80
15, 16589, Note_on_c, 8, 83, 0
15, 16590, Note_on_c, 8, 81, 80
15, 16619, Note_on_c, 8, 81, 0
15, 16620, Note_on_c, 8, 83, 80
15, 16649, Note_on_c, 8, 83, 0
15, 16650, Note_on_c, 8, 81, 80
15, 16679, Note_on_c, 8, 81, 0
15, 16680, Note_on_c, 8, 80, 80
15, 16709, Note_on_c, 8, 80, 0
15, 16710, Note_on_c, 8, 78, 80
15, 16739, Note_on_c, 8, 78, 0
15, 16740, Note_on_c, 8, 80, 80
15, 16769, Note_on_c, 8, 80, 0
15, 16770, Note_on_c, 8, 78, 80
15, 16799, Note_on_c, 8, 78, 0
15, 16800, Note_on_c, 8, 76, 80
15, 16829, Note_on_c, 8, 76, 0
15, 16830, Note_on_c, 8, 74, 80
15, 16859, Note_on_c, 8, 74, 0
15, 16860, Note_on_c, 8, 76, 80
15, 16889, Note_on_c, 8, 76, 0
15, 16890, Note_on_c, 8, 74, 80
15, 16919, Note_on_c, 8, 74, 0
15, 16920, Note_on_c, 8, 73, 80
15, 16949, Note_on_c, 8, 73, 0
15, 16950, Note_on_c, 8, 76, 80
15, 16979, Note_on_c, 8, 76, 0
15, 16980, Note_on_c, 8, 81, 80
15, 17009, Note_on_c, 8, 81, 0
15, 17010, Note_on_c, 8, 83, 80
15, 17039, Note_on_c, 8, 83, 0
15, 17040, Note_on_c, 8, 85, 80
15, 17069, Note_on_c, 8, 85, 0
15, 17070, Note_on_c, 8, 83, 80
15, 17099, Note_on_c, 8, 83, 0
15, 17100, Note_on_c, 8, 81, 80
15, 17129, Note_on_c, 8, 81, 0
15, 17130, Note_on_c, 8, 83, 80
15, 17159, Note_on_c, 8, 83, 0
15, 17160, Note_on_c, 8, 83, 80
15, 17249, Note_on_c, 8, 83, 0
15, 17250, Note_on_c, 8, 81, 80
15, 17279, Note_on_c, 8, 81, 0
15, 17280, Note_on_c, 8, 81, 80
15, 17399, Note_on_c, 8, 81, 0
15, 17550, Note_on_c, 8, 64, 80
15, 17579, Note_on_c, 8, 64, 0
15, 17580, Note_on_c, 8, 66, 80
15, 17609, Note_on_c, 8, 66, 0
15, 17610, Note_on_c, 8, 68, 80
15, 17639, Note_on_c, 8, 68, 0
15, 17640, Note_on_c, 8, 69, 80
15, 17669, Note_on_c, 8, 69, 0
15, 17670, Note_on_c, 8, 68, 80
15, 17699, Note_on_c, 8, 68, 0
15, 17700, Note_on_c, 8, 66, 80
15, 17729, Note_on_c, 8, 66, 0
15, 17730, Note_on_c, 8, 64, 80
15, 17759, Note_on_c, 8, 64, 0
15, 17760, Note_on_c, 8, 63, 80
15, 17819, Note_on_c, 8, 63, 0
15, 17910, Note_on_c, 8, 61, 80
15, 17939, Note_on_c, 8, 61, 0
15, 17940, Note_on_c, 8, 63, 80
15, 17969, Note_on_c, 8, 63, 0
15, 17970, Note_on_c, 8, 64, 80
15, 17999, Note_on_c, 8, 64, 0
15, 18000, Note_on_c, 8, 66, 80
15, 18029, Note_on_c, 8, 66, 0
15, 18030, Note_on_c, 8, 64, 80
15, 18059, Note_on_c, 8, 64, 0
15, 18060, Note_on_c, 8, 63, 80
15, 18089, Note_on_c, 8, 63, 0
15, 18090, Note_on_c, 8, 61, 80
15, 18119, Note_on_c, 8, 61, 0
15, 18120, Note_on_c, 8, 59, 80
15, 18179, Note_on_c, 8, 59, 0
15, 18270, Note_on_c, 8, 63, 80
15, 18299, Note_on_c, 8, 63, 0
15, 18300, Note_on_c, 8, 64, 80
15, 18329, Note_on_c, 8, 64, 0
15, 18330, Note_on_c, 8, 66, 80
15, 18359, Note_on_c, 8, 66, 0
15, 18360, Note_on_c, 8, 68, 80
15, 18419, Note_on_c, 8, 68, 0
15, 18420, Note_on_c, 8, 71, 80
15, 18479, Note_on_c, 8, 71, 0
15, 18600, Note_on_c, 8, 68, 80
15, 18659, Note_on_c, 8, 68, 0
15, 18660, Note_on_c, 8, 64, 80
15, 18719, Note_on_c, 8, 64, 0
15, 18960, Note_on_c, 8, 69, 80
15, 19019, Note_on_c, 8, 69, 0
15, 19020, Note_on_c, 8, 64, 80
15, 19079, Note_on_c, 8, 64, 0
15, 19320, Note_on_c, 8, 68, 80
15, 19379, Note_on_c, 8, 68, 0
15, 19380, Note_on_c, 8, 64, 80
15, 19439, Note_on_c, 8, 64, 0
15, 19440, Note_on_c, 8, 69, 80
15, 19469, Note_on_c, 8, 69, 0
15, 19470, Note_on_c, 8, 61, 80
15, 19499, Note_on_c, 8, 61, 0
15, 19500, Note_on_c, 8, 62, 80
15, 19529, Note_on_c, 8, 62, 0
15, 19530, Note_on_c, 8, 64, 80
15, 19559, Note_on_c, 8, 64, 0
15, 19560, Note_on_c, 8, 66, 80
15, 19589, Note_on_c, 8, 66, 0
15, 19590, Note_on_c, 8, 68, 80
15, 19619, Note_on_c, 8, 68, 0
15, 19620, Note_on_c, 8, 69, 80
15, 19649, Note_on_c, 8, 69, 0
15, 19650, Note_on_c, 8, 71, 80
15, 19679, Note_on_c, 8, 71, 0
15, 19680, Note_on_c, 8, 73, 80
15, 19709, Note_on_c, 8, 73, 0
15, 19710, Note_on_c, 8, 71, 80
15, 19739, Note_on_c, 8, 71, 0
15, 19740, Note_on_c, 8, 73, 80
15, 19769, Note_on_c, 8, 73, 0
15, 19770, Note_on_c, 8, 71, 80
15, 19799, Note_on_c, 8, 71, 0
15, 19800, Note_on_c, 8, 73, 80
15, 19829, Note_on_c, 8, 73, 0
15, 19830, Note_on_c, 8, 69, 80
15, 19859, Note_on_c, 8, 69, 0
15, 19860, Note_on_c, 8, 71, 80
15, 19889, Note_on_c, 8, 71, 0
15, 19890, Note_on_c, 8, 73, 80
15, 19919, Note_on_c, 8, 73, 0
15, 19920, Note_on_c, 8, 74, 80
15, 19949, Note_on_c, 8, 74, 0
15, 19950, Note_on_c, 8, 76, 80
15, 19979, Note_on_c, 8, 76, 0
15, 19980, Note_on_c, 8, 78, 80
15, 20009, Note_on_c, 8, 78, 0
15, 20010, Note_on_c, 8, 80, 80
15, 20039, Note_on_c, 8, 80, 0
15, 20040, Note_on_c, 8, 81, 80
15, 20069, Note_on_c, 8, 81, 0
15, 20070, Note_on_c, 8, 80, 80
15, 20099, Note_on_c, 8, 80, 0
15, 20100, Note_on_c, 8, 81, 80
15, 20129, Note_on_c, 8, 81, 0
15, 20130, Note_on_c, 8, 80, 80
15, 20159, Note_on_c, 8, 80, 0
15, 20160, Note_on_c, 8, 78, 80
15, 20189, Note_on_c, 8, 78, 0
15, 20190, Note_on_c, 8, 76, 80
15, 20219, Note_on_c, 8, 76, 0
15, 20220, Note_on_c, 8, 78, 80
15, 20249, Note_on_c, 8, 78, 0
15, 20250, Note_on_c, 8, 76, 80
15, 20279, Note_on_c, 8, 76, 0
15, 20280, Note_on_c, 8, 74, 80
15, 20309, Note_on_c, 8, 74, 0
15, 20310, Note_on_c, 8, 73, 80
15, 20339, Note_on_c, 8, 73, 0
15, 20340, Note_on_c, 8, 74, 80
15, 20369, Note_on_c, 8, 74, 0
15, 20370, Note_on_c, 8, 73, 80
15, 20399, Note_on_c, 8, 73, 0
15, 20400, Note_on_c, 8, 71, 80
15, 20429, Note_on_c, 8, 71, 0
15, 20430, Note_on_c, 8, 69, 80
15, 20459, Note_on_c, 8, 69, 0
15, 20460, Note_on_c, 8, 71, 80
15, 20489, Note_on_c, 8, 71, 0
15, 20490, Note_on_c, 8, 69, 80
15, 20519, Note_on_c, 8, 69, 0
15, 20520, Note_on_c, 8, 74, 80
15, 20579, Note_on_c, 8, 74, 0
15, 20580, Note_on_c, 8, 76, 80
15, 20609, Note_on_c, 8, 76, 0
15, 20610, Note_on_c, 8, 74, 80
15, 20639, Note_on_c, 8, 74, 0
15, 20640, Note_on_c, 8, 73, 80
15, 20669, Note_on_c, 8, 73, 0
15, 20670, Note_on_c, 8, 71, 80
15, 20699, Note_on_c, 8, 71, 0
15, 20700, Note_on_c, 8, 69, 80
15, 20729, Note_on_c, 8, 69, 0
15, 20730, Note_on_c, 8, 71, 80
15, 20759, Note_on_c, 8, 71, 0
15, 20760, Note_on_c, 8, 71, 80
15, 20849, Note_on_c, 8, 71, 0
15, 20850, Note_on_c, 8, 69, 80
15, 20879, Note_on_c, 8, 69, 0
15, 20880, Note_on_c, 8, 69, 80
15, 20909, Note_on_c, 8, 69, 0
15, 20910, Note_on_c, 8, 57, 80
15, 20939, Note_on_c, 8, 57, 0
15, 20940, Note_on_c, 8, 59, 80
15, 20969, Note_on_c, 8, 59, 0
15, 20970, Note_on_c, 8, 61, 80
15, 20999, Note_on_c, 8, 61, 0
15, 21000, Note_on_c, 8, 62, 80
15, 21029, Note_on_c, 8, 62, 0
15, 21030, Note_on_c, 8, 64, 80
15, 21059, Note_on_c, 8, 64, 0
15, 21060, Note_on_c, 8, 66, 80
15, 21089, Note_on_c, 8, 66, 0
15, 21090, Note_on_c, 8, 67, 80
15, 21119, Note_on_c, 8, 67, 0
15, 21120, Note_on_c, 8, 69, 80
15, 21149, Note_on_c, 8, 69, 0
15, 21150, Note_on_c, 8, 67, 80
15, 21179, Note_on_c, 8, 67, 0
15, 21180, Note_on_c, 8, 69, 80
15, 21209, Note_on_c, 8, 69, 0
15, 21210, Note_on_c, 8, 67, 80
15, 21239, Note_on_c, 8, 67, 0
15, 21240, Note_on_c, 8, 66, 80
15, 21299, Note_on_c, 8, 66, 0
15, 21300, Note_on_c, 8, 66, 80
15, 21359, Note_on_c, 8, 66, 0
15, 21360, Note_on_c, 8, 66, 80
15, 21419, Note_on_c, 8, 66, 0
15, 21420, Note_on_c, 8, 66, 80
15, 21479, Note_on_c, 8, 66, 0
15, 21480, Note_on_c, 8, 66, 80
15, 21539, Note_on_c, 8, 66, 0
15, 21540, Note_on_c, 8, 67, 80
15, 21569, Note_on_c, 8, 67, 0
15, 21570, Note_on_c, 8, 69, 80
15, 21599, Note_on_c, 8, 69, 0
15, 21600, Note_on_c, 8, 71, 80
15, 21629, Note_on_c, 8, 71, 0
15, 21630, Note_on_c, 8, 71, 80
15, 21659, Note_on_c, 8, 71, 0
15, 21660, Note_on_c, 8, 73, 80
15, 21689, Note_on_c, 8, 73, 0
15, 21690, Note_on_c, 8, 75, 80
15, 21719, Note_on_c, 8, 75, 0
15, 21720, Note_on_c, 8, 76, 80
15, 21749, Note_on_c, 8, 76, 0
15, 21750, Note_on_c, 8, 78, 80
15, 21779, Note_on_c, 8, 78, 0
15, 21780, Note_on_c, 8, 79, 80
15, 21809, Note_on_c, 8, 79, 0
15, 21810, Note_on_c, 8, 81, 80
15, 21839, Note_on_c, 8, 81, 0
15, 21840, Note_on_c, 8, 83, 80
15, 21869, Note_on_c, 8, 83, 0
15, 21870, Note_on_c, 8, 84, 80
15, 21899, Note_on_c, 8, 84, 0
15, 21900, Note_on_c, 8, 81, 80
15, 21929, Note_on_c, 8, 81, 0
15, 21930, Note_on_c, 8, 83, 80
15, 21959, Note_on_c, 8, 83, 0
15, 21960, Note_on_c, 8, 79, 80
15, 22019, Note_on_c, 8, 79, 0
15, 22350, Note_on_c, 8, 64, 80
15, 22379, Note_on_c, 8, 64, 0
15, 22380, Note_on_c, 8, 66, 80
15, 22409, Note_on_c, 8, 66, 0
15, 22410, Note_on_c, 8, 67, 80
15, 22439, Note_on_c, 8, 67, 0
15, 22440, Note_on_c, 8, 69, 80
15, 22469, Note_on_c, 8, 69, 0
15, 22470, Note_on_c, 8, 71, 80
15, 22499, Note_on_c, 8, 71, 0
15, 22500, Note_on_c, 8, 73, 80
15, 22529, Note_on_c, 8, 73, 0
15, 22530, Note_on_c, 8, 74, 80
15, 22559, Note_on_c, 8, 74, 0
15, 22560, Note_on_c, 8, 76, 80
15, 22589, Note_on_c, 8, 76, 0
15, 22590, Note_on_c, 8, 74, 80
15, 22619, Note_on_c, 8, 74, 0
15, 22620, Note_on_c, 8, 76, 80
15, 22649, Note_on_c, 8, 76, 0
15, 22650, Note_on_c, 8, 74, 80
15, 22679, Note_on_c, 8, 74, 0
15, 22680, Note_on_c, 8, 73, 80
15, 22709, Note_on_c, 8, 73, 0
15, 22710, Note_on_c, 8, 69, 80
15, 22739, Note_on_c, 8, 69, 0
15, 22740, Note_on_c, 8, 71, 80
15, 22769, Note_on_c, 8, 71, 0
15, 22770, Note_on_c, 8, 73, 80
15, 22799, Note_on_c, 8, 73, 0
15, 22800, Note_on_c, 8, 74, 80
15, 22829, Note_on_c, 8, 74, 0
15, 22830, Note_on_c, 8, 76, 80
15, 22859, Note_on_c, 8, 76, 0
15, 22860, Note_on_c, 8, 78, 80
15, 22889, Note_on_c, 8, 78, 0
15, 22890, Note_on_c, 8, 79, 80
15, 22919, Note_on_c, 8, 79, 0
15, 22920, Note_on_c, 8, 81, 80
15, 22949, Note_on_c, 8, 81, 0
15, 22950, Note_on_c, 8, 83, 80
15, 22979, Note_on_c, 8, 83, 0
15, 22980, Note_on_c, 8, 79, 80
15, 23009, Note_on_c, 8, 79, 0
15, 23010, Note_on_c, 8, 81, 80
15, 23039, Note_on_c, 8, 81, 0
15, 23040, Note_on_c, 8, 78, 80
15, 23069, Note_on_c, 8, 78, 0
15, 23070, Note_on_c, 8, 74, 80
15, 23099, Note_on_c, 8, 74, 0
15, 23100, Note_on_c, 8, 73, 80
15, 23129, Note_on_c, 8, 73, 0
15, 23130, Note_on_c, 8, 71, 80
15, 23159, Note_on_c, 8, 71, 0
15, 23160, Note_on_c, 8, 69, 80
15, 23189, Note_on_c, 8, 69, 0
15, 23190, Note_on_c, 8, 67, 80
15, 23219, Note_on_c, 8, 67, 0
15, 23220, Note_on_c, 8, 66, 80
15, 23249, Note_on_c, 8, 66, 0
15, 23250, Note_on_c, 8, 64, 80
15, 23279, Note_on_c, 8, 64, 0
15, 23280, Note_on_c, 8, 62, 80
15, 23339, Note_on_c, 8, 62, 0
15, 23460, Note_on_c, 8, 64, 80
15, 23519, Note_on_c, 8, 64, 0
15, 23520, Note_on_c, 8, 64, 80
15, 23579, Note_on_c, 8, 64, 0
15, 23580, Note_on_c, 8, 64, 80
15, 23639, Note_on_c, 8, 64, 0
15, 23640, Note_on_c, 8, 64, 80
15, 23699, Note_on_c, 8, 64, 0
15, 23700, Note_on_c, 8, 66, 80
15, 23729, Note_on_c, 8, 66, 0
15, 23730, Note_on_c, 8, 67, 80
15, 23759, Note_on_c, 8, 67, 0
15, 23760, Note_on_c, 8, 61, 80
15, 23819, Note_on_c, 8, 61, 0
15, 23820, Note_on_c, 8, 62, 80
15, 23879, Note_on_c, 8, 62, 0
15, 23880, Note_on_c, 8, 62, 80
15, 23939, Note_on_c, 8, 62, 0
15, 23940, Note_on_c, 8, 62, 80
15, 23999, Note_on_c, 8, 62, 0
15, 24000, Note_on_c, 8, 62, 80
15, 24059, Note_on_c, 8, 62, 0
15, 24060, Note_on_c, 8, 64, 80
15, 24089, Note_on_c, 8, 64, 0
15, 24090, Note_on_c, 8, 66, 80
15, 24119, Note_on_c, 8, 66, 0
15, 24120, Note_on_c, 8, 59, 80
15, 24179, Note_on_c, 8, 59, 0
15, 24180, Note_on_c, 8, 61, 80
15, 24239, Note_on_c, 8, 61, 0
15, 24240, Note_on_c, 8, 61, 80
15, 24299, Note_on_c, 8, 61, 0
15, 24300, Note_on_c, 8, 61, 80
15, 24359, Note_on_c, 8, 61, 0
15, 24360, Note_on_c, 8, 61, 80
15, 24419, Note_on_c, 8, 61, 0
15, 24420, Note_on_c, 8, 62, 80
15, 24449, Note_on_c, 8, 62, 0
15, 24450, Note_on_c, 8, 64, 80
15, 24479, Note_on_c, 8, 64, 0
15, 24480, Note_on_c, 8, 57, 80
15, 24539, Note_on_c, 8, 57, 0
15, 24750, Note_on_c, 8, 69, 80
15, 24779, Note_on_c, 8, 69, 0
15, 24780, Note_on_c, 8, 71, 80
15, 24809, Note_on_c, 8, 71, 0
15, 24810, Note_on_c, 8, 73, 80
15, 24839, Note_on_c, 8, 73, 0
15, 24840, Note_on_c, 8, 74, 80
15, 24869, Note_on_c, 8, 74, 0
15, 24870, Note_on_c, 8, 72, 80
15, 24899, Note_on_c, 8, 72, 0
15, 24900, Note_on_c, 8, 71, 80
15, 24929, Note_on_c, 8, 71, 0
15, 24930, Note_on_c, 8, 69, 80
15, 24959, Note_on_c, 8, 69, 0
15, 24960, Note_on_c, 8, 68, 80
15, 25019, Note_on_c, 8, 68, 0
15, 25110, Note_on_c, 8, 69, 80
15, 25139, Note_on_c, 8, 69, 0
15, 25140, Note_on_c, 8, 68, 80
15, 25169, Note_on_c, 8, 68, 0
15, 25170, Note_on_c, 8, 69, 80
15, 25199, Note_on_c, 8, 69, 0
15, 25200, Note_on_c, 8, 71, 80
15, 25229, Note_on_c, 8, 71, 0
15, 25230, Note_on_c, 8, 69, 80
15, 25259, Note_on_c, 8, 69, 0
15, 25260, Note_on_c, 8, 68, 80
15, 25289, Note_on_c, 8, 68, 0
15, 25290, Note_on_c, 8, 66, 80
15, 25319, Note_on_c, 8, 66, 0
15, 25320, Note_on_c, 8, 64, 80
15, 25379, Note_on_c, 8, 64, 0
15, 25470, Note_on_c, 8, 68, 80
15, 25499, Note_on_c, 8, 68, 0
15, 25500, Note_on_c, 8, 69, 80
15, 25529, Note_on_c, 8, 69, 0
15, 25530, Note_on_c, 8, 71, 80
15, 25559, Note_on_c, 8, 71, 0
15, 25560, Note_on_c, 8, 73, 80
15, 25619, Note_on_c, 8, 73, 0
15, 25620, Note_on_c, 8, 76, 80
15, 25679, Note_on_c, 8, 76, 0
15, 25800, Note_on_c, 8, 76, 80
15, 25859, Note_on_c, 8, 76, 0
15, 25860, Note_on_c, 8, 73, 80
15, 25919, Note_on_c, 8, 73, 0
15, 26160, Note_on_c, 8, 78, 80
15, 26219, Note_on_c, 8, 78, 0
15, 26220, Note_on_c, 8, 74, 80
15, 26279, Note_on_c, 8, 74, 0
15, 26520, Note_on_c, 8, 76, 80
15, 26579, Note_on_c, 8, 76, 0
15, 26580, Note_on_c, 8, 73, 80
15, 26639, Note_on_c, 8, 73, 0
15, 26640, Note_on_c, 8, 74, 80
15, 26670, Note_on_c, 8, 74, 0
15, 26670, Note_on_c, 8, 66, 80
15, 26700, Note_on_c, 8, 66, 0
15, 26700, Note_on_c, 8, 67, 80
15, 26730, Note_on_c, 8, 67, 0
15, 26730, Note_on_c, 8, 69, 80
15, 26760, Note_on_c, 8, 69, 0
15, 26760, Note_on_c, 8, 71, 80
15, 26790, Note_on_c, 8, 71, 0
15, 26790, Note_on_c, 8, 73, 80
15, 26820, Note_on_c, 8, 73, 0
15, 26820, Note_on_c, 8, 74, 80
15, 26850, Note_on_c, 8, 74, 0
15, 26850, Note_on_c, 8, 76, 80
15, 26880, Note_on_c, 8, 76, 0
15, 26880, Note_on_c, 8, 78, 80
15, 26910, Note_on_c, 8, 78, 0
15, 26910, Note_on_c, 8, 76, 80
15, 26940, Note_on_c, 8, 76, 0
15, 26940, Note_on_c, 8, 78, 80
15, 26970, Note_on_c, 8, 78, 0
15, 26970, Note_on_c, 8, 76, 80
15, 27000, Note_on_c, 8, 76, 0
15, 27000, Note_on_c, 8, 78, 80
15, 27030, Note_on_c, 8, 78, 0
15, 27030, Note_on_c, 8, 74, 80
15, 27060, Note_on_c, 8, 74, 0
15, 27060, Note_on_c, 8, 76, 80
15, 27090, Note_on_c, 8, 76, 0
15, 27090, Note_on_c, 8, 78, 80
15, 27120, Note_on_c, 8, 78, 0
15, 27120, Note_on_c, 8, 79, 80
15, 27150, Note_on_c, 8, 79, 0
15, 27150, Note_on_c, 8, 81, 80
15, 27180, Note_on_c, 8, 81, 0
15, 27180, Note_on_c, 8, 83, 80
15, 27210, Note_on_c, 8, 83, 0
15, 27210, Note_on_c, 8, 85, 80
15, 27240, Note_on_c, 8, 85, 0
15, 27240, Note_on_c, 8, 86, 80
15, 27270, Note_on_c, 8, 86, 0
15, 27270, Note_on_c, 8, 85, 80
15, 27300, Note_on_c, 8, 85, 0
15, 27300, Note_on_c, 8, 86, 80
15, 27330, Note_on_c, 8, 86, 0
15, 27330, Note_on_c, 8, 85, 80
15, 27360, Note_on_c, 8, 85, 0
15, 27360, Note_on_c, 8, 83, 80
15, 27390, Note_on_c, 8, 83, 0
15, 27390, Note_on_c, 8, 81, 80
15, 27420, Note_on_c, 8, 81, 0
15, 27420, Note_on_c, 8, 83, 80
15, 27450, Note_on_c, 8, 83, 0
15, 27450, Note_on_c, 8, 81, 80
15, 27480, Note_on_c, 8, 81, 0
15, 27480, Note_on_c, 8, 79, 80
15, 27510, Note_on_c, 8, 79, 0
15, 27510, Note_on_c, 8, 78, 80
15, 27540, Note_on_c, 8, 78, 0
15, 27540, Note_on_c, 8, 79, 80
15, 27570, Note_on_c, 8, 79, 0
15, 27570, Note_on_c, 8, 78, 80
15, 27600, Note_on_c, 8, 78, 0
15, 27600, Note_on_c, 8, 76, 80
15, 27630, Note_on_c, 8, 76, 0
15, 27630, Note_on_c, 8, 74, 80
15, 27660, Note_on_c, 8, 74, 0
15, 27660, Note_on_c, 8, 76, 80
15, 27690, Note_on_c, 8, 76, 0
15, 27690, Note_on_c, 8, 74, 80
15, 27720, Note_on_c, 8, 74, 0
15, 27720, Note_on_c, 8, 79, 80
15, 27779, Note_on_c, 8, 79, 0
15, 27780, Note_on_c, 8, 81, 80
15, 27809, Note_on_c, 8, 81, 0
15, 27810, Note_on_c, 8, 79, 80
15, 27839, Note_on_c, 8, 79, 0
15, 27840, Note_on_c, 8, 78, 80
15, 27869, Note_on_c, 8, 78, 0
15, 27870, Note_on_c, 8, 76, 80
15, 27899, Note_on_c, 8, 76, 0
15, 27900, Note_on_c, 8, 74, 80
15, 27929, Note_on_c, 8, 74, 0
15, 27930, Note_on_c, 8, 76, 80
15, 27959, Note_on_c, 8, 76, 0
15, 27960, Note_on_c, 8, 76, 80
15, 28049, Note_on_c, 8, 76, 0
15, 28050, Note_on_c, 8, 74, 80
15, 28079, Note_on_c, 8, 74, 0
15, 28080, Note_on_c, 8, 74, 80
15, 28199, Note_on_c, 8, 74, 0
15, 28320, Note_on_c, 8, 86, 80
15, 28379, Note_on_c, 8, 86, 0
15, 28380, Note_on_c, 8, 81, 80
15, 28439, Note_on_c, 8, 81, 0
15, 28680, Note_on_c, 8, 83, 80
15, 28739, Note_on_c, 8, 83, 0
15, 28740, Note_on_c, 8, 79, 80
15, 28799, Note_on_c, 8, 79, 0
15, 29040, Note_on_c, 8, 81, 80
15, 29099, Note_on_c, 8, 81, 0
15, 29100, Note_on_c, 8, 78, 80
15, 29159, Note_on_c, 8, 78, 0
15, 29160, Note_on_c, 8, 83, 80
15, 29189, Note_on_c, 8, 83, 0
15, 29190, Note_on_c, 8, 81, 80
15, 29219, Note_on_c, 8, 81, 0
15, 29220, Note_on_c, 8, 83, 80
15, 29249, Note_on_c, 8, 83, 0
15, 29250, Note_on_c, 8, 81, 80
15, 29279, Note_on_c, 8, 81, 0
15, 29280, Note_on_c, 8, 79, 80
15, 29309, Note_on_c, 8, 79, 0
15, 29310, Note_on_c, 8, 78, 80
15, 29339, Note_on_c, 8, 78, 0
15, 29340, Note_on_c, 8, 79, 80
15, 29369, Note_on_c, 8, 79, 0
15, 29370, Note_on_c, 8, 78, 80
15, 29399, Note_on_c, 8, 78, 0
15, 29400, Note_on_c, 8, 76, 80
15, 29429, Note_on_c, 8, 76, 0
15, 29430, Note_on_c, 8, 74, 80
15, 29459, Note_on_c, 8, 74, 0
15, 29460, Note_on_c, 8, 76, 80
15, 29489, Note_on_c, 8, 76, 0
15, 29490, Note_on_c, 8, 74, 80
15, 29519, Note_on_c, 8, 74, 0
15, 29520, Note_on_c, 8, 79, 80
15, 29579, Note_on_c, 8, 79, 0
15, 29580, Note_on_c, 8, 81, 80
15, 29609, Note_on_c, 8, 81, 0
15, 29610, Note_on_c, 8, 79, 80
15, 29639, Note_on_c, 8, 79, 0
15, 29640, Note_on_c, 8, 78, 80
15, 29669, Note_on_c, 8, 78, 0
15, 29670, Note_on_c, 8, 76, 80
15, 29699, Note_on_c, 8, 76, 0
15, 29700, Note_on_c, 8, 74, 80
15, 29729, Note_on_c, 8, 74, 0
15, 29730, Note_on_c, 8, 76, 80
15, 29759, Note_on_c, 8, 76, 0
15, 29760, Note_on_c, 8, 76, 80
15, 29849, Note_on_c, 8, 76, 0
15, 29850, Note_on_c, 8, 74, 80
15, 29879, Note_on_c, 8, 74, 0
15, 29880, Note_on_c, 8, 74, 80
15, 29999, Note_on_c, 8, 74, 0
15, 30390, Note_on_c, 8, 71, 80
15, 30419, Note_on_c, 8, 71, 0
15, 30420, Note_on_c, 8, 69, 80
15, 30449, Note_on_c, 8, 69, 0
15, 30450, Note_on_c, 8, 67, 80
15, 30479, Note_on_c, 8, 67, 0
15, 30480, Note_on_c, 8, 66, 80
15, 30509, Note_on_c, 8, 66, 0
15, 30510, Note_on_c, 8, 64, 80
15, 30539, Note_on_c, 8, 64, 0
15, 30540, Note_on_c, 8, 62, 80
15, 30569, Note_on_c, 8, 62, 0
15, 30570, Note_on_c, 8, 61, 80
15, 30599, Note_on_c, 8, 61, 0
15, 30600, Note_on_c, 8, 59, 80
15, 30629, Note_on_c, 8, 59, 0
15, 30630, Note_on_c, 8, 57, 80
15, 30659, Note_on_c, 8, 57, 0
15, 30660, Note_on_c, 8, 55, 80
15, 30689, Note_on_c, 8, 55, 0
15, 30690, Note_on_c, 8, 59, 80
15, 30719, Note_on_c, 8, 59, 0
15, 30720, Note_on_c, 8, 64, 80
15, 30779, Note_on_c, 8, 64, 0
15, 30990, Note_on_c, 8, 79, 80
15, 31019, Note_on_c, 8, 79, 0
15, 31020, Note_on_c, 8, 78, 80
15, 31049, Note_on_c, 8, 78, 0
15, 31050, Note_on_c, 8, 76, 80
15, 31079, Note_on_c, 8, 76, 0
15, 31080, Note_on_c, 8, 74, 80
15, 31109, Note_on_c, 8, 74, 0
15, 31110, Note_on_c, 8, 73, 80
15, 31139, Note_on_c, 8, 73, 0
15, 31140, Note_on_c, 8, 71, 80
15, 31169, Note_on_c, 8, 71, 0
15, 31170, Note_on_c, 8, 70, 80
15, 31199, Note_on_c, 8, 70, 0
15, 31200, Note_on_c, 8, 71, 80
15, 31259, Note_on_c, 8, 71, 0
15, 31740, Note_on_c, 8, 61, 80
15, 31799, Note_on_c, 8, 61, 0
15, 31800, Note_on_c, 8, 61, 80
15, 31859, Note_on_c, 8, 61, 0
15, 31860, Note_on_c, 8, 61, 80
15, 31919, Note_on_c, 8, 61, 0
15, 31920, Note_on_c, 8, 61, 80
15, 31979, Note_on_c, 8, 61, 0
15, 31980, Note_on_c, 8, 61, 80
15, 32009, Note_on_c, 8, 61, 0
15, 32010, Note_on_c, 8, 62, 80
15, 32039, Note_on_c, 8, 62, 0
15, 32040, Note_on_c, 8, 64, 80
15, 32099, Note_on_c, 8, 64, 0
15, 32100, Note_on_c, 8, 67, 80
15, 32129, Note_on_c, 8, 67, 0
15, 32130, Note_on_c, 8, 66, 80
15, 32159, Note_on_c, 8, 66, 0
15, 32160, Note_on_c, 8, 64, 80
15, 32219, Note_on_c, 8, 64, 0
15, 32220, Note_on_c, 8, 67, 80
15, 32249, Note_on_c, 8, 67, 0
15, 32250, Note_on_c, 8, 66, 80
15, 32279, Note_on_c, 8, 66, 0
15, 32280, Note_on_c, 8, 64, 80
15, 32339, Note_on_c, 8, 64, 0
15, 32340, Note_on_c, 8, 64, 80
15, 32399, Note_on_c, 8, 64, 0
15, 32400, Note_on_c, 8, 64, 80
15, 32519, Note_on_c, 8, 64, 0
15, 32550, Note_on_c, 8, 62, 80
15, 32579, Note_on_c, 8, 62, 0
15, 32580, Note_on_c, 8, 61, 80
15, 32609, Note_on_c, 8, 61, 0
15, 32610, Note_on_c, 8, 59, 80
15, 32639, Note_on_c, 8, 59, 0
15, 32640, Note_on_c, 8, 58, 80
15, 32669, Note_on_c, 8, 58, 0
15, 32670, Note_on_c, 8, 59, 80
15, 32699, Note_on_c, 8, 59, 0
15, 32700, Note_on_c, 8, 56, 80
15, 32729, Note_on_c, 8, 56, 0
15, 32730, Note_on_c, 8, 58, 80
15, 32759, Note_on_c, 8, 58, 0
15, 32760, Note_on_c, 8, 59, 80
15, 32819, Note_on_c, 8, 59, 0
15, 32820, Note_on_c, 8, 59, 80
15, 32879, Note_on_c, 8, 59, 0
15, 32880, Note_on_c, 8, 59, 80
15, 32939, Note_on_c, 8, 59, 0
15, 32940, Note_on_c, 8, 59, 80
15, 32999, Note_on_c, 8, 59, 0
15, 33000, Note_on_c, 8, 59, 80
15, 33059, Note_on_c, 8, 59, 0
15, 33060, Note_on_c, 8, 59, 80
15, 33119, Note_on_c, 8, 59, 0
15, 33120, Note_on_c, 8, 71, 80
15, 33179, Note_on_c, 8, 71, 0
15, 33180, Note_on_c, 8, 59, 80
15, 33239, Note_on_c, 8, 59, 0
15, 33240, Note_on_c, 8, 59, 80
15, 33299, Note_on_c, 8, 59, 0
15, 33300, Note_on_c, 8, 59, 80
15, 33359, Note_on_c, 8, 59, 0
15, 33360, Note_on_c, 8, 59, 80
15, 33419, Note_on_c, 8, 59, 0
15, 33420, Note_on_c, 8, 59, 80
15, 33479, Note_on_c, 8, 59, 0
15, 33480, Note_on_c, 8, 71, 80
15, 33509, Note_on_c, 8, 71, 0
15, 33510, Note_on_c, 8, 59, 80
15, 33539, Note_on_c, 8, 59, 0
15, 33540, Note_on_c, 8, 61, 80
15, 33569, Note_on_c, 8, 61, 0
15, 33570, Note_on_c, 8, 63, 80
15, 33599, Note_on_c, 8, 63, 0
15, 33600, Note_on_c, 8, 64, 80
15, 33629, Note_on_c, 8, 64, 0
15, 33630, Note_on_c, 8, 66, 80
15, 33659, Note_on_c, 8, 66, 0
15, 33660, Note_on_c, 8, 67, 80
15, 33689, Note_on_c, 8, 67, 0
15, 33690, Note_on_c, 8, 69, 80
15, 33719, Note_on_c, 8, 69, 0
15, 33720, Note_on_c, 8, 71, 80
15, 33749, Note_on_c, 8, 71, 0
15, 33750, Note_on_c, 8, 72, 80
15, 33779, Note_on_c, 8, 72, 0
15, 33780, Note_on_c, 8, 69, 80
15, 33809, Note_on_c, 8, 69, 0
15, 33810, Note_on_c, 8, 71, 80
15, 33839, Note_on_c, 8, 71, 0
15, 33840, Note_on_c, 8, 67, 80
15, 33899, Note_on_c, 8, 67, 0
15, 33900, Note_on_c, 8, 64, 80
15, 33959, Note_on_c, 8, 64, 0
15, 33960, Note_on_c, 8, 64, 80
15, 34019, Note_on_c, 8, 64, 0
15, 34020, Note_on_c, 8, 64, 80
15, 34079, Note_on_c, 8, 64, 0
15, 34080, Note_on_c, 8, 64, 80
15, 34139, Note_on_c, 8, 64, 0
15, 34140, Note_on_c, 8, 66, 80
15, 34169, Note_on_c, 8, 66, 0
15, 34170, Note_on_c, 8, 67, 80
15, 34199, Note_on_c, 8, 67, 0
15, 34200, Note_on_c, 8, 69, 80
15, 34259, Note_on_c, 8, 69, 0
15, 34260, Note_on_c, 8, 57, 80
15, 34319, Note_on_c, 8, 57, 0
15, 34320, Note_on_c, 8, 57, 80
15, 34379, Note_on_c, 8, 57, 0
15, 34380, Note_on_c, 8, 57, 80
15, 34439, Note_on_c, 8, 57, 0
15, 34440, Note_on_c, 8, 57, 80
15, 34499, Note_on_c, 8, 57, 0
15, 34500, Note_on_c, 8, 57, 80
15, 34559, Note_on_c, 8, 57, 0
15, 34560, Note_on_c, 8, 57, 80
15, 34619, Note_on_c, 8, 57, 0
15, 34620, Note_on_c, 8, 62, 80
15, 34679, Note_on_c, 8, 62, 0
15, 34680, Note_on_c, 8, 62, 80
15, 34739, Note_on_c, 8, 62, 0
15, 34740, Note_on_c, 8, 62, 80
15, 34799, Note_on_c, 8, 62, 0
15, 34800, Note_on_c, 8, 62, 80
15, 34859, Note_on_c, 8, 62, 0
15, 34860, Note_on_c, 8, 64, 80
15, 34889, Note_on_c, 8, 64, 0
15, 34890, Note_on_c, 8, 66, 80
15, 34919, Note_on_c, 8, 66, 0
15, 34920, Note_on_c, 8, 67, 80
15, 34979, Note_on_c, 8, 67, 0
15, 34980, Note_on_c, 8, 55, 80
15, 35039, Note_on_c, 8, 55, 0
15, 35040, Note_on_c, 8, 55, 80
15, 35099, Note_on_c, 8, 55, 0
15, 35100, Note_on_c, 8, 55, 80
15, 35159, Note_on_c, 8, 55, 0
15, 35160, Note_on_c, 8, 55, 80
15, 35219, Note_on_c, 8, 55, 0
15, 35220, Note_on_c, 8, 55, 80
15, 35279, Note_on_c, 8, 55, 0
15, 35280, Note_on_c, 8, 55, 80
15, 35339, Note_on_c, 8, 55, 0
15, 35340, Note_on_c, 8, 61, 80
15, 35399, Note_on_c, 8, 61, 0
15, 35400, Note_on_c, 8, 61, 80
15, 35459, Note_on_c, 8, 61, 0
15, 35460, Note_on_c, 8, 61, 80
15, 35519, Note_on_c, 8, 61, 0
15, 35520, Note_on_c, 8, 61, 80
15, 35579, Note_on_c, 8, 61, 0
15, 35580, Note_on_c, 8, 62, 80
15, 35609, Note_on_c, 8, 62, 0
15, 35610, Note_on_c, 8, 64, 80
15, 35639, Note_on_c, 8, 64, 0
15, 35640, Note_on_c, 8, 66, 80
15, 35699, Note_on_c, 8, 66, 0
15, 35700, Note_on_c, 8, 66, 80
15, 35759, Note_on_c, 8, 66, 0
15, 35760, Note_on_c, 8, 66, 80
15, 35819, Note_on_c, 8, 66, 0
15, 35820, Note_on_c, 8, 66, 80
15, 35879, Note_on_c, 8, 66, 0
15, 35880, Note_on_c, 8, 66, 80
15, 35939, Note_on_c, 8, 66, 0
15, 35940, Note_on_c, 8, 66, 80
15, 35999, Note_on_c, 8, 66, 0
15, 36000, Note_on_c, 8, 66, 80
15, 36059, Note_on_c, 8, 66, 0
15, 36060, Note_on_c, 8, 79, 80
15, 36089, Note_on_c, 8, 79, 0
15, 36090, Note_on_c, 8, 78, 80
15, 36119, Note_on_c, 8, 78, 0
15, 36120, Note_on_c, 8, 76, 80
15, 36149, Note_on_c, 8, 76, 0
15, 36150, Note_on_c, 8, 74, 80
15, 36179, Note_on_c, 8, 74, 0
15, 36180, Note_on_c, 8, 76, 80
15, 36209, Note_on_c, 8, 76, 0
15, 36210, Note_on_c, 8, 74, 80
15, 36239, Note_on_c, 8, 74, 0
15, 36240, Note_on_c, 8, 72, 80
15, 36269, Note_on_c, 8, 72, 0
15, 36270, Note_on_c, 8, 71, 80
15, 36299, Note_on_c, 8, 71, 0
15, 36300, Note_on_c, 8, 72, 80
15, 36329, Note_on_c, 8, 72, 0
15, 36330, Note_on_c, 8, 71, 80
15, 36359, Note_on_c, 8, 71, 0
15, 36360, Note_on_c, 8, 70, 80
15, 36479, Note_on_c, 8, 70, 0
15, 36600, Note_on_c, 8, 70, 80
15, 36659, Note_on_c, 8, 70, 0
15, 36660, Note_on_c, 8, 66, 80
15, 36719, Note_on_c, 8, 66, 0
15, 36960, Note_on_c, 8, 71, 80
15, 37019, Note_on_c, 8, 71, 0
15, 37020, Note_on_c, 8, 66, 80
15, 37079, Note_on_c, 8, 66, 0
15, 37320, Note_on_c, 8, 73, 80
15, 37379, Note_on_c, 8, 73, 0
15, 37380, Note_on_c, 8, 70, 80
15, 37439, Note_on_c, 8, 70, 0
15, 37440, Note_on_c, 8, 78, 80
15, 37499, Note_on_c, 8, 78, 0
15, 37500, Note_on_c, 8, 79, 80
15, 37529, Note_on_c, 8, 79, 0
15, 37530, Note_on_c, 8, 78, 80
15, 37559, Note_on_c, 8, 78, 0
15, 37560, Note_on_c, 8, 76, 80
15, 37589, Note_on_c, 8, 76, 0
15, 37590, Note_on_c, 8, 74, 80
15, 37619, Note_on_c, 8, 74, 0
15, 37620, Note_on_c, 8, 73, 80
15, 37649, Note_on_c, 8, 73, 0
15, 37650, Note_on_c, 8, 71, 80
15, 37679, Note_on_c, 8, 71, 0
15, 37680, Note_on_c, 8, 74, 80
15, 37709, Note_on_c, 8, 74, 0
15, 37710, Note_on_c, 8, 73, 80
15, 37739, Note_on_c, 8, 73, 0
15, 37740, Note_on_c, 8, 71, 80
15, 37769, Note_on_c, 8, 71, 0
15, 37770, Note_on_c, 8, 70, 80
15, 37799, Note_on_c, 8, 70, 0
15, 37800, Note_on_c, 8, 71, 80
15, 37919, Note_on_c, 8, 71, 0
15, 37920, Note_on_c, 8, 80, 80
15, 37979, Note_on_c, 8, 80, 0
15, 37980, Note_on_c, 8, 77, 80
15, 38039, Note_on_c, 8, 77, 0
15, 38280, Note_on_c, 8, 78, 80
15, 38339, Note_on_c, 8, 78, 0
15, 38340, Note_on_c, 8, 73, 80
15, 38399, Note_on_c, 8, 73, 0
15, 38640, Note_on_c, 8, 77, 80
15, 38699, Note_on_c, 8, 77, 0
15, 38700, Note_on_c, 8, 71, 80
15, 38759, Note_on_c, 8, 71, 0
15, 39000, Note_on_c, 8, 73, 80
15, 39059, Note_on_c, 8, 73, 0
15, 39060, Note_on_c, 8, 69, 80
15, 39119, Note_on_c, 8, 69, 0
15, 39180, Note_on_c, 8, 78, 80
15, 39209, Note_on_c, 8, 78, 0
15, 39210, Note_on_c, 8, 76, 80
15, 39239, Note_on_c, 8, 76, 0
15, 39240, Note_on_c, 8, 74, 80
15, 39269, Note_on_c, 8, 74, 0
15, 39270, Note_on_c, 8, 73, 80
15, 39299, Note_on_c, 8, 73, 0
15, 39300, Note_on_c, 8, 74, 80
15, 39329, Note_on_c, 8, 74, 0
15, 39330, Note_on_c, 8, 71, 80
15, 39359, Note_on_c, 8, 71, 0
15, 39360, Note_on_c, 8, 77, 80
15, 39419, Note_on_c, 8, 77, 0
15, 39420, Note_on_c, 8, 78, 80
15, 39479, Note_on_c, 8, 78, 0
15, 39480, Note_on_c, 8, 73, 80
15, 39539, Note_on_c, 8, 73, 0
15, 39540, Note_on_c, 8, 77, 80
15, 39599, Note_on_c, 8, 77, 0
15, 39600, Note_on_c, 8, 78, 80
15, 39959, Note_on_c, 8, 78, 0
15, 40080, Note_on_c, 8, 66, 80
15, 40140, Note_on_c, 8, 66, 0
15, 40140, Note_on_c, 8, 62, 80
15, 40200, Note_on_c, 8, 62, 0
15, 40440, Note_on_c, 8, 69, 80
15, 40500, Note_on_c, 8, 69, 0
15, 40500, Note_on_c, 8, 66, 80
15, 40560, Note_on_c, 8, 66, 0
15, 40800, Note_on_c, 8, 74, 80
15, 40860, Note_on_c, 8, 74, 0
15, 40860, Note_on_c, 8, 69, 80
15, 40920, Note_on_c, 8, 69, 0
15, 41070, Note_on_c, 8, 62, 80
15, 41100, Note_on_c, 8, 62, 0
15, 41100, Note_on_c, 8, 64, 80
15, 41130, Note_on_c, 8, 64, 0
15, 41130, Note_on_c, 8, 66, 80
15, 41160, Note_on_c, 8, 66, 0
15, 41160, Note_on_c, 8, 67, 80
15, 41190, Note_on_c, 8, 67, 0
15, 41190, Note_on_c, 8, 69, 80
15, 41220, Note_on_c, 8, 69, 0
15, 41220, Note_on_c, 8, 71, 80
15, 41250, Note_on_c, 8, 71, 0
15, 41250, Note_on_c, 8, 73, 80
15, 41280, Note_on_c, 8, 73, 0
15, 41280, Note_on_c, 8, 74, 80
15, 41310, Note_on_c, 8, 74, 0
15, 41310, Note_on_c, 8, 73, 80
15, 41340, Note_on_c, 8, 73, 0
15, 41340, Note_on_c, 8, 74, 80
15, 41370, Note_on_c, 8, 74, 0
15, 41370, Note_on_c, 8, 73, 80
15, 41400, Note_on_c, 8, 73, 0
15, 41400, Note_on_c, 8, 74, 80
15, 41429, Note_on_c, 8, 74, 0
15, 41430, Note_on_c, 8, 66, 80
15, 41459, Note_on_c, 8, 66, 0
15, 41460, Note_on_c, 8, 67, 80
15, 41489, Note_on_c, 8, 67, 0
15, 41490, Note_on_c, 8, 69, 80
15, 41519, Note_on_c, 8, 69, 0
15, 41520, Note_on_c, 8, 71, 80
15, 41549, Note_on_c, 8, 71, 0
15, 41550, Note_on_c, 8, 73, 80
15, 41579, Note_on_c, 8, 73, 0
15, 41580, Note_on_c, 8, 74, 80
15, 41609, Note_on_c, 8, 74, 0
15, 41610, Note_on_c, 8, 76, 80
15, 41639, Note_on_c, 8, 76, 0
15, 41640, Note_on_c, 8, 78, 80
15, 41669, Note_on_c, 8, 78, 0
15, 41670, Note_on_c, 8, 76, 80
15, 41699, Note_on_c, 8, 76, 0
15, 41700, Note_on_c, 8, 78, 80
15, 41729, Note_on_c, 8, 78, 0
15, 41730, Note_on_c, 8, 76, 80
15, 41759, Note_on_c, 8, 76, 0
15, 41760, Note_on_c, 8, 78, 80
15, 41789, Note_on_c, 8, 78, 0
15, 41790, Note_on_c, 8, 74, 80
15, 41819, Note_on_c, 8, 74, 0
15, 41820, Note_on_c, 8, 76, 80
15, 41849, Note_on_c, 8, 76, 0
15, 41850, Note_on_c, 8, 78, 80
15, 41879, Note_on_c, 8, 78, 0
15, 41880, Note_on_c, 8, 79, 80
15, 41909, Note_on_c, 8, 79, 0
15, 41910, Note_on_c, 8, 81, 80
15, 41939, Note_on_c, 8, 81, 0
15, 41940, Note_on_c, 8, 83, 80
15, 41969, Note_on_c, 8, 83, 0
15, 41970, Note_on_c, 8, 85, 80
15, 41999, Note_on_c, 8, 85, 0
15, 42000, Note_on_c, 8, 86, 80
15, 42029, Note_on_c, 8, 86, 0
15, 42030, Note_on_c, 8, 85, 80
15, 42059, Note_on_c, 8, 85, 0
15, 42060, Note_on_c, 8, 86, 80
15, 42089, Note_on_c, 8, 86, 0
15, 42090, Note_on_c, 8, 85, 80
15, 42119, Note_on_c, 8, 85, 0
15, 42120, Note_on_c, 8, 83, 80
15, 42149, Note_on_c, 8, 83, 0
15, 42150, Note_on_c, 8, 81, 80
15, 42179, Note_on_c, 8, 81, 0
15, 42180, Note_on_c, 8, 83, 80
15, 42209, Note_on_c, 8, 83, 0
15, 42210, Note_on_c, 8, 81, 80
15, 42239, Note_on_c, 8, 81, 0
15, 42240, Note_on_c, 8, 80, 80
15, 42269, Note_on_c, 8, 80, 0
15, 42270, Note_on_c, 8, 78, 80
15, 42299, Note_on_c, 8, 78, 0
15, 42300, Note_on_c, 8, 80, 80
15, 42329, Note_on_c, 8, 80, 0
15, 42330, Note_on_c, 8, 78, 80
15, 42359, Note_on_c, 8, 78, 0
15, 42360, Note_on_c, 8, 76, 80
15, 42389, Note_on_c, 8, 76, 0
15, 42390, Note_on_c, 8, 74, 80
15, 42419, Note_on_c, 8, 74, 0
15, 42420, Note_on_c, 8, 76, 80
15, 42449, Note_on_c, 8, 76, 0
15, 42450, Note_on_c, 8, 74, 80
15, 42479, Note_on_c, 8, 74, 0
15, 42480, Note_on_c, 8, 73, 80
15, 42509, Note_on_c, 8, 73, 0
15, 42510, Note_on_c, 8, 76, 80
15, 42539, Note_on_c, 8, 76, 0
15, 42540, Note_on_c, 8, 81, 80
15, 42569, Note_on_c, 8, 81, 0
15, 42570, Note_on_c, 8, 83, 80
15, 42599, Note_on_c, 8, 83, 0
15, 42600, Note_on_c, 8, 85, 80
15, 42629, Note_on_c, 8, 85, 0
15, 42630, Note_on_c, 8, 83, 80
15, 42659, Note_on_c, 8, 83, 0
15, 42660, Note_on_c, 8, 81, 80
15, 42689, Note_on_c, 8, 81, 0
15, 42690, Note_on_c, 8, 83, 80
15, 42719, Note_on_c, 8, 83, 0
15, 42720, Note_on_c, 8, 83, 80
15, 42809, Note_on_c, 8, 83, 0
15, 42810, Note_on_c, 8, 81, 80
15, 42839, Note_on_c, 8, 81, 0
15, 42840, Note_on_c, 8, 81, 80
15, 42869, Note_on_c, 8, 81, 0
15, 42870, Note_on_c, 8, 57, 80
15, 42899, Note_on_c, 8, 57, 0
15, 42900, Note_on_c, 8, 59, 80
15, 42929, Note_on_c, 8, 59, 0
15, 42930, Note_on_c, 8, 61, 80
15, 42959, Note_on_c, 8, 61, 0
15, 42960, Note_on_c, 8, 62, 80
15, 42989, Note_on_c, 8, 62, 0
15, 42990, Note_on_c, 8, 64, 80
15, 43019, Note_on_c, 8, 64, 0
15, 43020, Note_on_c, 8, 66, 80
15, 43049, Note_on_c, 8, 66, 0
15, 43050, Note_on_c, 8, 67, 80
15, 43079, Note_on_c, 8, 67, 0
15, 43080, Note_on_c, 8, 69, 80
15, 43109, Note_on_c, 8, 69, 0
15, 43110, Note_on_c, 8, 67, 80
15, 43139, Note_on_c, 8, 67, 0
15, 43140, Note_on_c, 8, 69, 80
15, 43169, Note_on_c, 8, 69, 0
15, 43170, Note_on_c, 8, 67, 80
15, 43199, Note_on_c, 8, 67, 0
15, 43200, Note_on_c, 8, 66, 80
15, 43259, Note_on_c, 8, 66, 0
15, 43260, Note_on_c, 8, 66, 80
15, 43319, Note_on_c, 8, 66, 0
15, 43320, Note_on_c, 8, 66, 80
15, 43379, Note_on_c, 8, 66, 0
15, 43380, Note_on_c, 8, 66, 80
15, 43439, Note_on_c, 8, 66, 0
15, 43440, Note_on_c, 8, 66, 80
15, 43499, Note_on_c, 8, 66, 0
15, 43500, Note_on_c, 8, 67, 80
15, 43529, Note_on_c, 8, 67, 0
15, 43530, Note_on_c, 8, 69, 80
15, 43559, Note_on_c, 8, 69, 0
15, 43560, Note_on_c, 8, 71, 80
15, 43589, Note_on_c, 8, 71, 0
15, 43590, Note_on_c, 8, 71, 80
15, 43619, Note_on_c, 8, 71, 0
15, 43620, Note_on_c, 8, 73, 80
15, 43649, Note_on_c, 8, 73, 0
15, 43650, Note_on_c, 8, 75, 80
15, 43679, Note_on_c, 8, 75, 0
15, 43680, Note_on_c, 8, 76, 80
15, 43709, Note_on_c, 8, 76, 0
15, 43710, Note_on_c, 8, 78, 80
15, 43739, Note_on_c, 8, 78, 0
15, 43740, Note_on_c, 8, 79, 80
15, 43769, Note_on_c, 8, 79, 0
15, 43770, Note_on_c, 8, 81, 80
15, 43799, Note_on_c, 8, 81, 0
15, 43800, Note_on_c, 8, 83, 80
15, 43829, Note_on_c, 8, 83, 0
15, 43830, Note_on_c, 8, 84, 80
15, 43859, Note_on_c, 8, 84, 0
15, 43860, Note_on_c, 8, 81, 80
15, 43889, Note_on_c, 8, 81, 0
15, 43890, Note_on_c, 8, 83, 80
15, 43919, Note_on_c, 8, 83, 0
15, 43920, Note_on_c, 8, 79, 80
15, 43979, Note_on_c, 8, 79, 0
15, 44310, Note_on_c, 8, 64, 80
15, 44339, Note_on_c, 8, 64, 0
15, 44340, Note_on_c, 8, 66, 80
15, 44369, Note_on_c, 8, 66, 0
15, 44370, Note_on_c, 8, 67, 80
15, 44399, Note_on_c, 8, 67, 0
15, 44400, Note_on_c, 8, 69, 80
15, 44429, Note_on_c, 8, 69, 0
15, 44430, Note_on_c, 8, 71, 80
15, 44459, Note_on_c, 8, 71, 0
15, 44460, Note_on_c, 8, 73, 80
15, 44489, Note_on_c, 8, 73, 0
15, 44490, Note_on_c, 8, 74, 80
15, 44519, Note_on_c, 8, 74, 0
15, 44520, Note_on_c, 8, 76, 80
15, 44549, Note_on_c, 8, 76, 0
15, 44550, Note_on_c, 8, 74, 80
15, 44579, Note_on_c, 8, 74, 0
15, 44580, Note_on_c, 8, 76, 80
15, 44609, Note_on_c, 8, 76, 0
15, 44610, Note_on_c, 8, 74, 80
15, 44639, Note_on_c, 8, 74, 0
15, 44640, Note_on_c, 8, 73, 80
15, 44669, Note_on_c, 8, 73, 0
15, 44670, Note_on_c, 8, 69, 80
15, 44699, Note_on_c, 8, 69, 0
15, 44700, Note_on_c, 8, 71, 80
15, 44729, Note_on_c, 8, 71, 0
15, 44730, Note_on_c, 8, 73, 80
15, 44759, Note_on_c, 8, 73, 0
15, 44760, Note_on_c, 8, 74, 80
15, 44789, Note_on_c, 8, 74, 0
15, 44790, Note_on_c, 8, 76, 80
15, 44819, Note_on_c, 8, 76, 0
15, 44820, Note_on_c, 8, 78, 80
15, 44849, Note_on_c, 8, 78, 0
15, 44850, Note_on_c, 8, 79, 80
15, 44879, Note_on_c, 8, 79, 0
15, 44880, Note_on_c, 8, 81, 80
15, 44909, Note_on_c, 8, 81, 0
15, 44910, Note_on_c, 8, 83, 80
15, 44939, Note_on_c, 8, 83, 0
15, 44940, Note_on_c, 8, 79, 80
15, 44969, Note_on_c, 8, 79, 0
15, 44970, Note_on_c, 8, 81, 80
15, 44999, Note_on_c, 8, 81, 0
15, 45000, Note_on_c, 8, 78, 80
15, 45029, Note_on_c, 8, 78, 0
15, 45030, Note_on_c, 8, 74, 80
15, 45059, Note_on_c, 8, 74, 0
15, 45060, Note_on_c, 8, 73, 80
15, 45089, Note_on_c, 8, 73, 0
15, 45090, Note_on_c, 8, 71, 80
15, 45119, Note_on_c, 8, 71, 0
15, 45120, Note_on_c, 8, 69, 80
15, 45149, Note_on_c, 8, 69, 0
15, 45150, Note_on_c, 8, 67, 80
15, 45179, Note_on_c, 8, 67, 0
15, 45180, Note_on_c, 8, 66, 80
15, 45209, Note_on_c, 8, 66, 0
15, 45210, Note_on_c, 8, 64, 80
15, 45239, Note_on_c, 8, 64, 0
15, 45240, Note_on_c, 8, 62, 80
15, 45299, Note_on_c, 8, 62, 0
15, 45420, Note_on_c, 8, 64, 80
15, 45479, Note_on_c, 8, 64, 0
15, 45480, Note_on_c, 8, 64, 80
15, 45539, Note_on_c, 8, 64, 0
15, 45540, Note_on_c, 8, 64, 80
15, 45599, Note_on_c, 8, 64, 0
15, 45600, Note_on_c, 8, 64, 80
15, 45659, Note_on_c, 8, 64, 0
15, 45660, Note_on_c, 8, 66, 80
15, 45689, Note_on_c, 8, 66, 0
15, 45690, Note_on_c, 8, 67, 80
15, 45719, Note_on_c, 8, 67, 0
15, 45720, Note_on_c, 8, 61, 80
15, 45779, Note_on_c, 8, 61, 0
15, 45780, Note_on_c, 8, 62, 80
15, 45839, Note_on_c, 8, 62, 0
15, 45840, Note_on_c, 8, 62, 80
15, 45899, Note_on_c, 8, 62, 0
15, 45900, Note_on_c, 8, 62, 80
15, 45959, Note_on_c, 8, 62, 0
15, 45960, Note_on_c, 8, 62, 80
15, 46019, Note_on_c, 8, 62, 0
15, 46020, Note_on_c, 8, 64, 80
15, 46049, Note_on_c, 8, 64, 0
15, 46050, Note_on_c, 8, 66, 80
15, 46079, Note_on_c, 8, 66, 0
15, 46080, Note_on_c, 8, 59, 80
15, 46139, Note_on_c, 8, 59, 0
15, 46140, Note_on_c, 8, 61, 80
15, 46199, Note_on_c, 8, 61, 0
15, 46200, Note_on_c, 8, 61, 80
15, 46259, Note_on_c, 8, 61, 0
15, 46260, Note_on_c, 8, 61, 80
15, 46319, Note_on_c, 8, 61, 0
15, 46320, Note_on_c, 8, 61, 80
15, 46379, Note_on_c, 8, 61, 0
15, 46380, Note_on_c, 8, 62, 80
15, 46409, Note_on_c, 8, 62, 0
15, 46410, Note_on_c, 8, 64, 80
15, 46439, Note_on_c, 8, 64, 0
15, 46440, Note_on_c, 8, 57, 80
15, 46499, Note_on_c, 8, 57, 0
15, 46710, Note_on_c, 8, 69, 80
15, 46739, Note_on_c, 8, 69, 0
15, 46740, Note_on_c, 8, 71, 80
15, 46769, Note_on_c, 8, 71, 0
15, 46770, Note_on_c, 8, 73, 80
15, 46799, Note_on_c, 8, 73, 0
15, 46800, Note_on_c, 8, 74, 80
15, 46829, Note_on_c, 8, 74, 0
15, 46830, Note_on_c, 8, 72, 80
15, 46859, Note_on_c, 8, 72, 0
15, 46860, Note_on_c, 8, 71, 80
15, 46889, Note_on_c, 8, 71, 0
15, 46890, Note_on_c, 8, 69, 80
15, 46919, Note_on_c, 8, 69, 0
15, 46920, Note_on_c, 8, 68, 80
15, 46979, Note_on_c, 8, 68, 0
15, 47070, Note_on_c, 8, 66, 80
15, 47099, Note_on_c, 8, 66, 0
15, 47100, Note_on_c, 8, 68, 80
15, 47129, Note_on_c, 8, 68, 0
15, 47130, Note_on_c, 8, 69, 80
15, 47159, Note_on_c, 8, 69, 0
15, 47160, Note_on_c, 8, 71, 80
15, 47189, Note_on_c, 8, 71, 0
15, 47190, Note_on_c, 8, 69, 80
15, 47219, Note_on_c, 8, 69, 0
15, 47220, Note_on_c, 8, 68, 80
15, 47249, Note_on_c, 8, 68, 0
15, 47250, Note_on_c, 8, 66, 80
15, 47279, Note_on_c, 8, 66, 0
15, 47280, Note_on_c, 8, 64, 80
15, 47339, Note_on_c, 8, 64, 0
15, 47430, Note_on_c, 8, 68, 80
15, 47459, Note_on_c, 8, 68, 0
15, 47460, Note_on_c, 8, 69, 80
15, 47489, Note_on_c, 8, 69, 0
15, 47490, Note_on_c, 8, 71, 80
15, 47519, Note_on_c, 8, 71, 0
15, 47520, Note_on_c, 8, 73, 80
15, 47579, Note_on_c, 8, 73, 0
15, 47580, Note_on_c, 8, 76, 80
15, 47639, Note_on_c, 8, 76, 0
15, 47760, Note_on_c, 8, 76, 80
15, 47819, Note_on_c, 8, 76, 0
15, 47820, Note_on_c, 8, 73, 80
15, 47879, Note_on_c, 8, 73, 0
15, 48120, Note_on_c, 8, 78, 80
15, 48179, Note_on_c, 8, 78, 0
15, 48180, Note_on_c, 8, 74, 80
15, 48239, Note_on_c, 8, 74, 0
15, 48480, Note_on_c, 8, 76, 80
15, 48539, Note_on_c, 8, 76, 0
15, 48540, Note_on_c, 8, 73, 80
15, 48599, Note_on_c, 8, 73, 0
15, 48600, Note_on_c, 8, 74, 80
15, 48629, Note_on_c, 8, 74, 0
15, 48630, Note_on_c, 8, 66, 80
15, 48659, Note_on_c, 8, 66, 0
15, 48660, Note_on_c, 8, 67, 80
15, 48689, Note_on_c, 8, 67, 0
15, 48690, Note_on_c, 8, 69, 80
15, 48719, Note_on_c, 8, 69, 0
15, 48720, Note_on_c, 8, 71, 80
15, 48749, Note_on_c, 8, 71, 0
15, 48750, Note_on_c, 8, 73, 80
15, 48779, Note_on_c, 8, 73, 0
15, 48780, Note_on_c, 8, 74, 80
15, 48809, Note_on_c, 8, 74, 0
15, 48810, Note_on_c, 8, 76, 80
15, 48839, Note_on_c, 8, 76, 0
15, 48840, Note_on_c, 8, 78, 80
15, 48869, Note_on_c, 8, 78, 0
15, 48870, Note_on_c, 8, 76, 80
15, 48899, Note_on_c, 8, 76, 0
15, 48900, Note_on_c, 8, 78, 80
15, 48929, Note_on_c, 8, 78, 0
15, 48930, Note_on_c, 8, 76, 80
15, 48959, Note_on_c, 8, 76, 0
15, 48960, Note_on_c, 8, 78, 80
15, 48989, Note_on_c, 8, 78, 0
15, 48990, Note_on_c, 8, 74, 80
15, 49019, Note_on_c, 8, 74, 0
15, 49020, Note_on_c, 8, 76, 80
15, 49049, Note_on_c, 8, 76, 0
15, 49050, Note_on_c, 8, 78, 80
15, 49079, Note_on_c, 8, 78, 0
15, 49080, Note_on_c, 8, 79, 80
15, 49109, Note_on_c, 8, 79, 0
15, 49110, Note_on_c, 8, 81, 80
15, 49139, Note_on_c, 8, 81, 0
15, 49140, Note_on_c, 8, 83, 80
15, 49169, Note_on_c, 8, 83, 0
15, 49170, Note_on_c, 8, 85, 80
15, 49199, Note_on_c, 8, 85, 0
15, 49200, Note_on_c, 8, 86, 80
15, 49229, Note_on_c, 8, 86, 0
15, 49230, Note_on_c, 8, 85, 80
15, 49259, Note_on_c, 8, 85, 0
15, 49260, Note_on_c, 8, 86, 80
15, 49289, Note_on_c, 8, 86, 0
15, 49290, Note_on_c, 8, 85, 80
15, 49319, Note_on_c, 8, 85, 0
15, 49320, Note_on_c, 8, 83, 80
15, 49349, Note_on_c, 8, 83, 0
15, 49350, Note_on_c, 8, 81, 80
15, 49379, Note_on_c, 8, 81, 0
15, 49380, Note_on_c, 8, 83, 80
15, 49409, Note_on_c, 8, 83, 0
15, 49410, Note_on_c, 8, 81, 80
15, 49439, Note_on_c, 8, 81, 0
15, 49440, Note_on_c, 8, 79, 80
15, 49469, Note_on_c, 8, 79, 0
15, 49470, Note_on_c, 8, 78, 80
15, 49499, Note_on_c, 8, 78, 0
15, 49500, Note_on_c, 8, 79, 80
15, 49529, Note_on_c, 8, 79, 0
15, 49530, Note_on_c, 8, 78, 80
15, 49559, Note_on_c, 8, 78, 0
15, 49560, Note_on_c, 8, 76, 80
15, 49589, Note_on_c, 8, 76, 0
15, 49590, Note_on_c, 8, 74, 80
15, 49619, Note_on_c, 8, 74, 0
15, 49620, Note_on_c, 8, 76, 80
15, 49649, Note_on_c, 8, 76, 0
15, 49650, Note_on_c, 8, 74, 80
15, 49679, Note_on_c, 8, 74, 0
15, 49680, Note_on_c, 8, 79, 80
15, 49739, Note_on_c, 8, 79, 0
15, 49740, Note_on_c, 8, 81, 80
15, 49769, Note_on_c, 8, 81, 0
15, 49770, Note_on_c, 8, 79, 80
15, 49799, Note_on_c, 8, 79, 0
15, 49800, Note_on_c, 8, 78, 80
15, 49829, Note_on_c, 8, 78, 0
15, 49830, Note_on_c, 8, 76, 80
15, 49859, Note_on_c, 8, 76, 0
15, 49860, Note_on_c, 8, 74, 80
15, 49889, Note_on_c, 8, 74, 0
15, 49890, Note_on_c, 8, 76, 80
15, 49919, Note_on_c, 8, 76, 0
15, 49920, Note_on_c, 8, 76, 80
15, 50009, Note_on_c, 8, 76, 0
15, 50010, Note_on_c, 8, 74, 80
15, 50039, Note_on_c, 8, 74, 0
15, 50040, Note_on_c, 8, 74, 80
15, 50159, Note_on_c, 8, 74, 0
15, 50280, Note_on_c, 8, 81, 80
15, 50339, Note_on_c, 8, 81, 0
15, 50340, Note_on_c, 8, 78, 80
15, 50399, Note_on_c, 8, 78, 0
15, 50640, Note_on_c, 8, 71, 80
15, 50699, Note_on_c, 8, 71, 0
15, 50700, Note_on_c, 8, 66, 80
15, 50759, Note_on_c, 8, 66, 0
15, 51000, Note_on_c, 8, 78, 80
15, 51059, Note_on_c, 8, 78, 0
15, 51060, Note_on_c, 8, 74, 80
15, 51119, Note_on_c, 8, 74, 0
15, 51360, Note_on_c, 8, 67, 80
15, 51419, Note_on_c, 8, 67, 0
15, 51420, Note_on_c, 8, 62, 80
15, 51479, Note_on_c, 8, 62, 0
15, 51540, Note_on_c, 8, 81, 80
15, 51569, Note_on_c, 8, 81, 0
15, 51570, Note_on_c, 8, 79, 80
15, 51599, Note_on_c, 8, 79, 0
15, 51600, Note_on_c, 8, 78, 80
15, 51629, Note_on_c, 8, 78, 0
15, 51630, Note_on_c, 8, 76, 80
15, 51659, Note_on_c, 8, 76, 0
15, 51660, Note_on_c, 8, 74, 80
15, 51689, Note_on_c, 8, 74, 0
15, 51690, Note_on_c, 8, 73, 80
15, 51719, Note_on_c, 8, 73, 0
15, 51720, Note_on_c, 8, 74, 80
15, 51749, Note_on_c, 8, 74, 0
15, 51750, Note_on_c, 8, 71, 80
15, 51779, Note_on_c, 8, 71, 0
15, 51780, Note_on_c, 8, 73, 80
15, 51809, Note_on_c, 8, 73, 0
15, 51810, Note_on_c, 8, 69, 80
15, 51839, Note_on_c, 8, 69, 0
15, 51840, Note_on_c, 8, 76, 80
15, 51959, Note_on_c, 8, 76, 0
15, 52080, Note_on_c, 8, 76, 80
15, 52139, Note_on_c, 8, 76, 0
15, 52140, Note_on_c, 8, 73, 80
15, 52199, Note_on_c, 8, 73, 0
15, 52440, Note_on_c, 8, 78, 80
15, 52499, Note_on_c, 8, 78, 0
15, 52500, Note_on_c, 8, 74, 80
15, 52559, Note_on_c, 8, 74, 0
15, 52800, Note_on_c, 8, 76, 80
15, 52859, Note_on_c, 8, 76, 0
15, 52860, Note_on_c, 8, 73, 80
15, 52919, Note_on_c, 8, 73, 0
15, 52920, Note_on_c, 8, 74, 80
15, 52949, Note_on_c, 8, 74, 0
15, 52950, Note_on_c, 8, 66, 80
15, 52979, Note_on_c, 8, 66, 0
15, 52980, Note_on_c, 8, 67, 80
15, 53009, Note_on_c, 8, 67, 0
15, 53010, Note_on_c, 8, 69, 80
15, 53039, Note_on_c, 8, 69, 0
15, 53040, Note_on_c, 8, 71, 80
15, 53069, Note_on_c, 8, 71, 0
15, 53070, Note_on_c, 8, 73, 80
15, 53099, Note_on_c, 8, 73, 0
15, 53100, Note_on_c, 8, 74, 80
15, 53129, Note_on_c, 8, 74, 0
15, 53130, Note_on_c, 8, 76, 80
15, 53159, Note_on_c, 8, 76, 0
15, 53160, Note_on_c, 8, 78, 80
15, 53189, Note_on_c, 8, 78, 0
15, 53190, Note_on_c, 8, 76, 80
15, 53219, Note_on_c, 8, 76, 0
15, 53220, Note_on_c, 8, 78, 80
15, 53249, Note_on_c, 8, 78, 0
15, 53250, Note_on_c, 8, 76, 80
15, 53279, Note_on_c, 8, 76, 0
15, 53280, Note_on_c, 8, 78, 80
15, 53309, Note_on_c, 8, 78, 0
15, 53310, Note_on_c, 8, 74, 80
15, 53339, Note_on_c, 8, 74, 0
15, 53340, Note_on_c, 8, 76, 80
15, 53369, Note_on_c, 8, 76, 0
15, 53370, Note_on_c, 8, 78, 80
15, 53399, Note_on_c, 8, 78, 0
15, 53400, Note_on_c, 8, 79, 80
15, 53429, Note_on_c, 8, 79, 0
15, 53430, Note_on_c, 8, 81, 80
15, 53459, Note_on_c, 8, 81, 0
15, 53460, Note_on_c, 8, 83, 80
15, 53489, Note_on_c, 8, 83, 0
15, 53490, Note_on_c, 8, 85, 80
15, 53519, Note_on_c, 8, 85, 0
15, 53520, Note_on_c, 8, 86, 80
15, 53549, Note_on_c, 8, 86, 0
15, 53550, Note_on_c, 8, 85, 80
15, 53579, Note_on_c, 8, 85, 0
15, 53580, Note_on_c, 8, 86, 80
15, 53609, Note_on_c, 8, 86, 0
15, 53610, Note_on_c, 8, 85, 80
15, 53639, Note_on_c, 8, 85, 0
15, 53640, Note_on_c, 8, 83, 80
15, 53669, Note_on_c, 8, 83, 0
15, 53670, Note_on_c, 8, 81, 80
15, 53699, Note_on_c, 8, 81, 0
15, 53700, Note_on_c, 8, 83, 80
15, 53729, Note_on_c, 8, 83, 0
15, 53730, Note_on_c, 8, 81, 80
15, 53759, Note_on_c, 8, 81, 0
15, 53760, Note_on_c, 8, 79, 80
15, 53789, Note_on_c, 8, 79, 0
15, 53790, Note_on_c, 8, 78, 80
15, 53819, Note_on_c, 8, 78, 0
15, 53820, Note_on_c, 8, 79, 80
15, 53849, Note_on_c, 8, 79, 0
15, 53850, Note_on_c, 8, 78, 80
15, 53879, Note_on_c, 8, 78, 0
15, 53880, Note_on_c, 8, 76, 80
15, 53909, Note_on_c, 8, 76, 0
15, 53910, Note_on_c, 8, 74, 80
15, 53939, Note_on_c, 8, 74, 0
15, 53940, Note_on_c, 8, 76, 80
15, 53969, Note_on_c, 8, 76, 0
15, 53970, Note_on_c, 8, 74, 80
15, 53999, Note_on_c, 8, 74, 0
15, 54000, Note_on_c, 8, 79, 80
15, 54059, Note_on_c, 8, 79, 0
15, 54060, Note_on_c, 8, 81, 80
15, 54089, Note_on_c, 8, 81, 0
15, 54090, Note_on_c, 8, 79, 80
15, 54119, Note_on_c, 8, 79, 0
15, 54120, Note_on_c, 8, 78, 80
15, 54149, Note_on_c, 8, 78, 0
15, 54150, Note_on_c, 8, 76, 80
15, 54179, Note_on_c, 8, 76, 0
15, 54180, Note_on_c, 8, 74, 80
15, 54209, Note_on_c, 8, 74, 0
15, 54210, Note_on_c, 8, 76, 80
15, 54239, Note_on_c, 8, 76, 0
15, 54240, Note_on_c, 8, 76, 80
15, 54329, Note_on_c, 8, 76, 0
15, 54330, Note_on_c, 8, 74, 80
15, 54359, Note_on_c, 8, 74, 0
15, 54360, Note_on_c, 8, 74, 80
15, 54479, Note_on_c, 8, 74, 0
15, 54600, Note_on_c, 8, 66, 80
15, 54659, Note_on_c, 8, 66, 0
15, 54660, Note_on_c, 8, 62, 80
15, 54719, Note_on_c, 8, 62, 0
15, 54960, Note_on_c, 8, 69, 80
15, 55019, Note_on_c, 8, 69, 0
15, 55020, Note_on_c, 8, 66, 80
15, 55079, Note_on_c, 8, 66, 0
15, 55320, Note_on_c, 8, 74, 80
15, 55379, Note_on_c, 8, 74, 0
15, 55380, Note_on_c, 8, 69, 80
15, 55439, Note_on_c, 8, 69, 0
15, 55470, Note_on_c, 8, 62, 80
15, 55499, Note_on_c, 8, 62, 0
15, 55500, Note_on_c, 8, 64, 80
15, 55529, Note_on_c, 8, 64, 0
15, 55530, Note_on_c, 8, 66, 80
15, 55559, Note_on_c, 8, 66, 0
15, 55560, Note_on_c, 8, 67, 80
15, 55589, Note_on_c, 8, 67, 0
15, 55590, Note_on_c, 8, 69, 80
15, 55619, Note_on_c, 8, 69, 0
15, 55620, Note_on_c, 8, 71, 80
15, 55649, Note_on_c, 8, 71, 0
15, 55650, Note_on_c, 8, 73, 80
15, 55679, Note_on_c, 8, 73, 0
15, 55680, Note_on_c, 8, 74, 80
15, 55709, Note_on_c, 8, 74, 0
15, 55710, Note_on_c, 8, 73, 80
15, 55739, Note_on_c, 8, 73, 0
15, 55740, Note_on_c, 8, 74, 80
15, 55769, Note_on_c, 8, 74, 0
15, 55770, Note_on_c, 8, 73, 80
15, 55799, Note_on_c, 8, 73, 0
15, 55800, Note_on_c, 8, 74, 80
15, 55829, Note_on_c, 8, 74, 0
15, 55830, Note_on_c, 8, 66, 80
15, 55859, Note_on_c, 8, 66, 0
15, 55860, Note_on_c, 8, 67, 80
15, 55889, Note_on_c, 8, 67, 0
15, 55890, Note_on_c, 8, 69, 80
15, 55919, Note_on_c, 8, 69, 0
15, 55920, Note_on_c, 8, 71, 80
15, 55949, Note_on_c, 8, 71, 0
15, 55950, Note_on_c, 8, 73, 80
15, 55979, Note_on_c, 8, 73, 0
15, 55980, Note_on_c, 8, 74, 80
15, 56009, Note_on_c, 8, 74, 0
15, 56010, Note_on_c, 8, 76, 80
15, 56039, Note_on_c, 8, 76, 0
15, 56040, Note_on_c, 8, 78, 80
15, 56069, Note_on_c, 8, 78, 0
15, 56070, Note_on_c, 8, 76, 80
15, 56099, Note_on_c, 8, 76, 0
15, 56100, Note_on_c, 8, 78, 80
15, 56129, Note_on_c, 8, 78, 0
15, 56130, Note_on_c, 8, 76, 80
15, 56159, Note_on_c, 8, 76, 0
15, 56160, Note_on_c, 8, 78, 80
15, 56189, Note_on_c, 8, 78, 0
15, 56190, Note_on_c, 8, 74, 80
15, 56219, Note_on_c, 8, 74, 0
15, 56220, Note_on_c, 8, 76, 80
15, 56249, Note_on_c, 8, 76, 0
15, 56250, Note_on_c, 8, 78, 80
15, 56279, Note_on_c, 8, 78, 0
15, 56280, Note_on_c, 8, 79, 80
15, 56309, Note_on_c, 8, 79, 0
15, 56310, Note_on_c, 8, 81, 80
15, 56339, Note_on_c, 8, 81, 0
15, 56340, Note_on_c, 8, 83, 80
15, 56369, Note_on_c, 8, 83, 0
15, 56370, Note_on_c, 8, 85, 80
15, 56399, Note_on_c, 8, 85, 0
15, 56400, Note_on_c, 8, 86, 80
15, 56429, Note_on_c, 8, 86, 0
15, 56430, Note_on_c, 8, 85, 80
15, 56459, Note_on_c, 8, 85, 0
15, 56460, Note_on_c, 8, 86, 80
15, 56489, Note_on_c, 8, 86, 0
15, 56490, Note_on_c, 8, 85, 80
15, 56519, Note_on_c, 8, 85, 0
15, 56520, Note_on_c, 8, 83, 80
15, 56549, Note_on_c, 8, 83, 0
15, 56550, Note_on_c, 8, 81, 80
15, 56579, Note_on_c, 8, 81, 0
15, 56580, Note_on_c, 8, 83, 80
15, 56609, Note_on_c, 8, 83, 0
15, 56610, Note_on_c, 8, 81, 80
15, 56639, Note_on_c, 8, 81, 0
15, 56640, Note_on_c, 8, 80, 80
15, 56669, Note_on_c, 8, 80, 0
15, 56670, Note_on_c, 8, 78, 80
15, 56699, Note_on_c, 8, 78, 0
15, 56700, Note_on_c, 8, 80, 80
15, 56729, Note_on_c, 8, 80, 0
15, 56730, Note_on_c, 8, 78, 80
15, 56759, Note_on_c, 8, 78, 0
15, 56760, Note_on_c, 8, 76, 80
15, 56789, Note_on_c, 8, 76, 0
15, 56790, Note_on_c, 8, 74, 80
15, 56819, Note_on_c, 8, 74, 0
15, 56820, Note_on_c, 8, 76, 80
15, 56849, Note_on_c, 8, 76, 0
15, 56850, Note_on_c, 8, 74, 80
15, 56879, Note_on_c, 8, 74, 0
15, 56880, Note_on_c, 8, 73, 80
15, 56909, Note_on_c, 8, 73, 0
15, 56910, Note_on_c, 8, 76, 80
15, 56939, Note_on_c, 8, 76, 0
15, 56940, Note_on_c, 8, 81, 80
15, 56969, Note_on_c, 8, 81, 0
15, 56970, Note_on_c, 8, 83, 80
15, 56999, Note_on_c, 8, 83, 0
15, 57000, Note_on_c, 8, 85, 80
15, 57029, Note_on_c, 8, 85, 0
15, 57030, Note_on_c, 8, 83, 80
15, 57059, Note_on_c, 8, 83, 0
15, 57060, Note_on_c, 8, 81, 80
15, 57089, Note_on_c, 8, 81, 0
15, 57090, Note_on_c, 8, 83, 80
15, 57119, Note_on_c, 8, 83, 0
15, 57120, Note_on_c, 8, 83, 80
15, 57209, Note_on_c, 8, 83, 0
15, 57210, Note_on_c, 8, 81, 80
15, 57239, Note_on_c, 8, 81, 0
15, 57240, Note_on_c, 8, 81, 80
15, 57359, Note_on_c, 8, 81, 0
15, 57510, Note_on_c, 8, 64, 80
15, 57539, Note_on_c, 8, 64, 0
15, 57540, Note_on_c, 8, 66, 80
15, 57569, Note_on_c, 8, 66, 0
15, 57570, Note_on_c, 8, 68, 80
15, 57599, Note_on_c, 8, 68, 0
15, 57600, Note_on_c, 8, 69, 80
15, 57629, Note_on_c, 8, 69, 0
15, 57630, Note_on_c, 8, 68, 80
15, 57659, Note_on_c, 8, 68, 0
15, 57660, Note_on_c, 8, 66, 80
15, 57689, Note_on_c, 8, 66, 0
15, 57690, Note_on_c, 8, 64, 80
15, 57719, Note_on_c, 8, 64, 0
15, 57720, Note_on_c, 8, 63, 80
15, 57779, Note_on_c, 8, 63, 0
15, 57870, Note_on_c, 8, 61, 80
15, 57899, Note_on_c, 8, 61, 0
15, 57900, Note_on_c, 8, 63, 80
15, 57929, Note_on_c, 8, 63, 0
15, 57930, Note_on_c, 8, 64, 80
15, 57959, Note_on_c, 8, 64, 0
15, 57960, Note_on_c, 8, 66, 80
15, 57989, Note_on_c, 8, 66, 0
15, 57990, Note_on_c, 8, 64, 80
15, 58019, Note_on_c, 8, 64, 0
15, 58020, Note_on_c, 8, 63, 80
15, 58049, Note_on_c, 8, 63, 0
15, 58050, Note_on_c, 8, 61, 80
15, 58079, Note_on_c, 8, 61, 0
15, 58080, Note_on_c, 8, 59, 80
15, 58139, Note_on_c, 8, 59, 0
15, 58230, Note_on_c, 8, 63, 80
15, 58259, Note_on_c, 8, 63, 0
15, 58260, Note_on_c, 8, 64, 80
15, 58289, Note_on_c, 8, 64, 0
15, 58290, Note_on_c, 8, 66, 80
15, 58319, Note_on_c, 8, 66, 0
15, 58320, Note_on_c, 8, 68, 80
15, 58379, Note_on_c, 8, 68, 0
15, 58380, Note_on_c, 8, 71, 80
15, 58439, Note_on_c, 8, 71, 0
15, 58560, Note_on_c, 8, 68, 80
15, 58619, Note_on_c, 8, 68, 0
15, 58620, Note_on_c, 8, 64, 80
15, 58679, Note_on_c, 8, 64, 0
15, 58920, Note_on_c, 8, 69, 80
15, 58979, Note_on_c, 8, 69, 0
15, 58980, Note_on_c, 8, 64, 80
15, 59039, Note_on_c, 8, 64, 0
15, 59280, Note_on_c, 8, 68, 80
15, 59339, Note_on_c, 8, 68, 0
15, 59340, Note_on_c, 8, 64, 80
15, 59399, Note_on_c, 8, 64, 0
15, 59400, Note_on_c, 8, 69, 80
15, 59429, Note_on_c, 8, 69, 0
15, 59430, Note_on_c, 8, 61, 80
15, 59459, Note_on_c, 8, 61, 0
15, 59460, Note_on_c, 8, 62, 80
15, 59489, Note_on_c, 8, 62, 0
15, 59490, Note_on_c, 8, 64, 80
15, 59519, Note_on_c, 8, 64, 0
15, 59520, Note_on_c, 8, 66, 80
15, 59549, Note_on_c, 8, 66, 0
15, 59550, Note_on_c, 8, 68, 80
15, 59579, Note_on_c, 8, 68, 0
15, 59580, Note_on_c, 8, 69, 80
15, 59609, Note_on_c, 8, 69, 0
15, 59610, Note_on_c, 8, 71, 80
15, 59639, Note_on_c, 8, 71, 0
15, 59640, Note_on_c, 8, 73, 80
15, 59669, Note_on_c, 8, 73, 0
15, 59670, Note_on_c, 8, 71, 80
15, 59699, Note_on_c, 8, 71, 0
15, 59700, Note_on_c, 8, 73, 80
15, 59729, Note_on_c, 8, 73, 0
15, 59730, Note_on_c, 8, 71, 80
15, 59759, Note_on_c, 8, 71, 0
15, 59760, Note_on_c, 8, 73, 80
15, 59789, Note_on_c, 8, 73, 0
15, 59790, Note_on_c, 8, 69, 80
15, 59819, Note_on_c, 8, 69, 0
15, 59820, Note_on_c, 8, 71, 80
15, 59849, Note_on_c, 8, 71, 0
15, 59850, Note_on_c, 8, 73, 80
15, 59879, Note_on_c, 8, 73, 0
15, 59880, Note_on_c, 8, 74, 80
15, 59909, Note_on_c, 8, 74, 0
15, 59910, Note_on_c, 8, 76, 80
15, 59939, Note_on_c, 8, 76, 0
15, 59940, Note_on_c, 8, 78, 80
15, 59969, Note_on_c, 8, 78, 0
15, 59970, Note_on_c, 8, 80, 80
15, 59999, Note_on_c, 8, 80, 0
15, 60000, Note_on_c, 8, 81, 80
15, 60029, Note_on_c, 8, 81, 0
15, 60030, Note_on_c, 8, 80, 80
15, 60059, Note_on_c, 8, 80, 0
15, 60060, Note_on_c, 8, 81, 80
15, 60089, Note_on_c, 8, 81, 0
15, 60090, Note_on_c, 8, 80, 80
15, 60119, Note_on_c, 8, 80, 0
15, 60120, Note_on_c, 8, 78, 80
15, 60149, Note_on_c, 8, 78, 0
15, 60150, Note_on_c, 8, 76, 80
15, 60179, Note_on_c, 8, 76, 0
15, 60180, Note_on_c, 8, 78, 80
15, 60209, Note_on_c, 8, 78, 0
15, 60210, Note_on_c, 8, 76, 80
15, 60239, Note_on_c, 8, 76, 0
15, 60240, Note_on_c, 8, 74, 80
15, 60269, Note_on_c, 8, 74, 0
15, 60270, Note_on_c, 8, 73, 80
15, 60299, Note_on_c, 8, 73, 0
15, 60300, Note_on_c, 8, 74, 80
15, 60329, Note_on_c, 8, 74, 0
15, 60330, Note_on_c, 8, 73, 80
15, 60359, Note_on_c, 8, 73, 0
15, 60360, Note_on_c, 8, 71, 80
15, 60389, Note_on_c, 8, 71, 0
15, 60390, Note_on_c, 8, 69, 80
15, 60419, Note_on_c, 8, 69, 0
15, 60420, Note_on_c, 8, 71, 80
15, 60449, Note_on_c, 8, 71, 0
15, 60450, Note_on_c, 8, 69, 80
15, 60479, Note_on_c, 8, 69, 0
15, 60480, Note_on_c, 8, 74, 80
15, 60539, Note_on_c, 8, 74, 0
15, 60540, Note_on_c, 8, 76, 80
15, 60569, Note_on_c, 8, 76, 0
15, 60570, Note_on_c, 8, 74, 80
15, 60599, Note_on_c, 8, 74, 0
15, 60600, Note_on_c, 8, 73, 80
15, 60629, Note_on_c, 8, 73, 0
15, 60630, Note_on_c, 8, 71, 80
15, 60659, Note_on_c, 8, 71, 0
15, 60660, Note_on_c, 8, 69, 80
15, 60689, Note_on_c, 8, 69, 0
15, 60690, Note_on_c, 8, 71, 80
15, 60719, Note_on_c, 8, 71, 0
15, 60720, Note_on_c, 8, 71, 80
15, 60809, Note_on_c, 8, 71, 0
15, 60810, Note_on_c, 8, 69, 80
15, 60839, Note_on_c, 8, 69, 0
15, 60840, Note_on_c, 8, 69, 80
15, 60869, Note_on_c, 8, 69, 0
15, 60870, Note_on_c, 8, 57, 80
15, 60899, Note_on_c, 8, 57, 0
15, 60900, Note_on_c, 8, 59, 80
15, 60929, Note_on_c, 8, 59, 0
15, 60930, Note_on_c, 8, 61, 80
15, 60959, Note_on_c, 8, 61, 0
15, 60960, Note_on_c, 8, 62, 80
15, 60989, Note_on_c, 8, 62, 0
15, 60990, Note_on_c, 8, 64, 80
15, 61019, Note_on_c, 8, 64, 0
15, 61020, Note_on_c, 8, 66, 80
15, 61049, Note_on_c, 8, 66, 0
15, 61050, Note_on_c, 8, 67, 80
15, 61079, Note_on_c, 8, 67, 0
15, 61080, Note_on_c, 8, 69, 80
15, 61109, Note_on_c, 8, 69, 0
15, 61110, Note_on_c, 8, 67, 80
15, 61139, Note_on_c, 8, 67, 0
15, 61140, Note_on_c, 8, 69, 80
15, 61169, Note_on_c, 8, 69, 0
15, 61170, Note_on_c, 8, 67, 80
15, 61199, Note_on_c, 8, 67, 0
15, 61200, Note_on_c, 8, 66, 80
15, 61259, Note_on_c, 8, 66, 0
15, 61260, Note_on_c, 8, 66, 80
15, 61319, Note_on_c, 8, 66, 0
15, 61320, Note_on_c, 8, 66, 80
15, 61379, Note_on_c, 8, 66, 0
15, 61380, Note_on_c, 8, 66, 80
15, 61439, Note_on_c, 8, 66, 0
15, 61440, Note_on_c, 8, 66, 80
15, 61499, Note_on_c, 8, 66, 0
15, 61500, Note_on_c, 8, 67, 80
15, 61529, Note_on_c, 8, 67, 0
15, 61530, Note_on_c, 8, 69, 80
15, 61559, Note_on_c, 8, 69, 0
15, 61560, Note_on_c, 8, 71, 80
15, 61589, Note_on_c, 8, 71, 0
15, 61590, Note_on_c, 8, 71, 80
15, 61619, Note_on_c, 8, 71, 0
15, 61620, Note_on_c, 8, 73, 80
15, 61649, Note_on_c, 8, 73, 0
15, 61650, Note_on_c, 8, 75, 80
15, 61679, Note_on_c, 8, 75, 0
15, 61680, Note_on_c, 8, 76, 80
15, 61709, Note_on_c, 8, 76, 0
15, 61710, Note_on_c, 8, 78, 80
15, 61739, Note_on_c, 8, 78, 0
15, 61740, Note_on_c, 8, 79, 80
15, 61769, Note_on_c, 8, 79, 0
15, 61770, Note_on_c, 8, 81, 80
15, 61799, Note_on_c, 8, 81, 0
15, 61800, Note_on_c, 8, 83, 80
15, 61829, Note_on_c, 8, 83, 0
15, 61830, Note_on_c, 8, 84, 80
15, 61859, Note_on_c, 8, 84, 0
15, 61860, Note_on_c, 8, 81, 80
15, 61889, Note_on_c, 8, 81, 0
15, 61890, Note_on_c, 8, 83, 80
15, 61919, Note_on_c, 8, 83, 0
15, 61920, Note_on_c, 8, 79, 80
15, 61979, Note_on_c, 8, 79, 0
15, 62310, Note_on_c, 8, 64, 80
15, 62339, Note_on_c, 8, 64, 0
15, 62340, Note_on_c, 8, 66, 80
15, 62369, Note_on_c, 8, 66, 0
15, 62370, Note_on_c, 8, 67, 80
15, 62399, Note_on_c, 8, 67, 0
15, 62400, Note_on_c, 8, 69, 80
15, 62429, Note_on_c, 8, 69, 0
15, 62430, Note_on_c, 8, 71, 80
15, 62459, Note_on_c, 8, 71, 0
15, 62460, Note_on_c, 8, 73, 80
15, 62489, Note_on_c, 8, 73, 0
15, 62490, Note_on_c, 8, 74, 80
15, 62519, Note_on_c, 8, 74, 0
15, 62520, Note_on_c, 8, 76, 80
15, 62549, Note_on_c, 8, 76, 0
15, 62550, Note_on_c, 8, 74, 80
15, 62579, Note_on_c, 8, 74, 0
15, 62580, Note_on_c, 8, 76, 80
15, 62609, Note_on_c, 8, 76, 0
15, 62610, Note_on_c, 8, 74, 80
15, 62639, Note_on_c, 8, 74, 0
15, 62640, Note_on_c, 8, 73, 80
15, 62669, Note_on_c, 8, 73, 0
15, 62670, Note_on_c, 8, 69, 80
15, 62699, Note_on_c, 8, 69, 0
15, 62700, Note_on_c, 8, 71, 80
15, 62729, Note_on_c, 8, 71, 0
15, 62730, Note_on_c, 8, 73, 80
15, 62759, Note_on_c, 8, 73, 0
15, 62760, Note_on_c, 8, 74, 80
15, 62789, Note_on_c, 8, 74, 0
15, 62790, Note_on_c, 8, 76, 80
15, 62819, Note_on_c, 8, 76, 0
15, 62820, Note_on_c, 8, 78, 80
15, 62849, Note_on_c, 8, 78, 0
15, 62850, Note_on_c, 8, 79, 80
15, 62879, Note_on_c, 8, 79, 0
15, 62880, Note_on_c, 8, 81, 80
15, 62909, Note_on_c, 8, 81, 0
15, 62910, Note_on_c, 8, 83, 80
15, 62939, Note_on_c, 8, 83, 0
15, 62940, Note_on_c, 8, 79, 80
15, 62969, Note_on_c, 8, 79, 0
15, 62970, Note_on_c, 8, 81, 80
15, 62999, Note_on_c, 8, 81, 0
15, 63000, Note_on_c, 8, 78, 80
15, 63029, Note_on_c, 8, 78, 0
15, 63030, Note_on_c, 8, 74, 80
15, 63059, Note_on_c, 8, 74, 0
15, 63060, Note_on_c, 8, 73, 80
15, 63089, Note_on_c, 8, 73, 0
15, 63090, Note_on_c, 8, 71, 80
15, 63119, Note_on_c, 8, 71, 0
15, 63120, Note_on_c, 8, 69, 80
15, 63149, Note_on_c, 8, 69, 0
15, 63150, Note_on_c, 8, 67, 80
15, 63179, Note_on_c, 8, 67, 0
15, 63180, Note_on_c, 8, 66, 80
15, 63209, Note_on_c, 8, 66, 0
15, 63210, Note_on_c, 8, 64, 80
15, 63239, Note_on_c, 8, 64, 0
15, 63240, Note_on_c, 8, 62, 80
15, 63299, Note_on_c, 8, 62, 0
15, 63420, Note_on_c, 8, 64, 80
15, 63479, Note_on_c, 8, 64, 0
15, 63480, Note_on_c, 8, 64, 80
15, 63539, Note_on_c, 8, 64, 0
15, 63540, Note_on_c, 8, 64, 80
15, 63599, Note_on_c, 8, 64, 0
15, 63600, Note_on_c, 8, 64, 80
15, 63659, Note_on_c, 8, 64, 0
15, 63660, Note_on_c, 8, 66, 80
15, 63689, Note_on_c, 8, 66, 0
15, 63690, Note_on_c, 8, 67, 80
15, 63719, Note_on_c, 8, 67, 0
15, 63720, Note_on_c, 8, 61, 80
15, 63779, Note_on_c, 8, 61, 0
15, 63780, Note_on_c, 8, 62, 80
15, 63839, Note_on_c, 8, 62, 0
15, 63840, Note_on_c, 8, 62, 80
15, 63899, Note_on_c, 8, 62, 0
15, 63900, Note_on_c, 8, 62, 80
15, 63959, Note_on_c, 8, 62, 0
15, 63960, Note_on_c, 8, 62, 80
15, 64019, Note_on_c, 8, 62, 0
15, 64020, Note_on_c, 8, 64, 80
15, 64049, Note_on_c, 8, 64, 0
15, 64050, Note_on_c, 8, 66, 80
15, 64079, Note_on_c, 8, 66, 0
15, 64080, Note_on_c, 8, 59, 80
15, 64139, Note_on_c, 8, 59, 0
15, 64140, Note_on_c, 8, 61, 80
15, 64199, Note_on_c, 8, 61, 0
15, 64200, Note_on_c, 8, 61, 80
15, 64259, Note_on_c, 8, 61, 0
15, 64260, Note_on_c, 8, 61, 80
15, 64319, Note_on_c, 8, 61, 0
15, 64320, Note_on_c, 8, 61, 80
15, 64379, Note_on_c, 8, 61, 0
15, 64380, Note_on_c, 8, 62, 80
15, 64409, Note_on_c, 8, 62, 0
15, 64410, Note_on_c, 8, 64, 80
15, 64439, Note_on_c, 8, 64, 0
15, 64440, Note_on_c, 8, 57, 80
15, 64499, Note_on_c, 8, 57, 0
15, 64710, Note_on_c, 8, 69, 80
15, 64739, Note_on_c, 8, 69, 0
15, 64740, Note_on_c, 8, 71, 80
15, 64769, Note_on_c, 8, 71, 0
15, 64770, Note_on_c, 8, 73, 80
15, 64799, Note_on_c, 8, 73, 0
15, 64800, Note_on_c, 8, 74, 80
15, 64829, Note_on_c, 8, 74, 0
15, 64830, Note_on_c, 8, 72, 80
15, 64859, Note_on_c, 8, 72, 0
15, 64860, Note_on_c, 8, 71, 80
15, 64889, Note_on_c, 8, 71, 0
15, 64890, Note_on_c, 8, 69, 80
15, 64919, Note_on_c, 8, 69, 0
15, 64920, Note_on_c, 8, 68, 80
15, 64979, Note_on_c, 8, 68, 0
15, 65070, Note_on_c, 8, 69, 80
15, 65099, Note_on_c, 8, 69, 0
15, 65100, Note_on_c, 8, 68, 80
15, 65129, Note_on_c, 8, 68, 0
15, 65130, Note_on_c, 8, 69, 80
15, 65159, Note_on_c, 8, 69, 0
15, 65160, Note_on_c, 8, 71, 80
15, 65189, Note_on_c, 8, 71, 0
15, 65190, Note_on_c, 8, 69, 80
15, 65219, Note_on_c, 8, 69, 0
15, 65220, Note_on_c, 8, 68, 80
15, 65249, Note_on_c, 8, 68, 0
15, 65250, Note_on_c, 8, 66, 80
15, 65279, Note_on_c, 8, 66, 0
15, 65280, Note_on_c, 8, 64, 80
15, 65339, Note_on_c, 8, 64, 0
15, 65430, Note_on_c, 8, 68, 80
15, 65459, Note_on_c, 8, 68, 0
15, 65460, Note_on_c, 8, 69, 80
15, 65489, Note_on_c, 8, 69, 0
15, 65490, Note_on_c, 8, 71, 80
15, 65519, Note_on_c, 8, 71, 0
15, 65520, Note_on_c, 8, 73, 80
15, 65579, Note_on_c, 8, 73, 0
15, 65580, Note_on_c, 8, 76, 80
15, 65639, Note_on_c, 8, 76, 0
15, 65760, Note_on_c, 8, 76, 80
15, 65819, Note_on_c, 8, 76, 0
15, 65820, Note_on_c, 8, 73, 80
15, 65879, Note_on_c, 8, 73, 0
15, 66120, Note_on_c, 8, 78, 80
15, 66179, Note_on_c, 8, 78, 0
15, 66180, Note_on_c, 8, 74, 80
15, 66239, Note_on_c, 8, 74, 0
15, 66480, Note_on_c, 8, 76, 80
15, 66539, Note_on_c, 8, 76, 0
15, 66540, Note_on_c, 8, 73, 80
15, 66599, Note_on_c, 8, 73, 0
15, 66600, Note_on_c, 8, 74, 80
15, 66630, Note_on_c, 8, 74, 0
15, 66630, Note_on_c, 8, 66, 80
15, 66660, Note_on_c, 8, 66, 0
15, 66660, Note_on_c, 8, 67, 80
15, 66690, Note_on_c, 8, 67, 0
15, 66690, Note_on_c, 8, 69, 80
15, 66720, Note_on_c, 8, 69, 0
15, 66720, Note_on_c, 8, 71, 80
15, 66750, Note_on_c, 8, 71, 0
15, 66750, Note_on_c, 8, 73, 80
15, 66780, Note_on_c, 8, 73, 0
15, 66780, Note_on_c, 8, 74, 80
15, 66810, Note_on_c, 8, 74, 0
15, 66810, Note_on_c, 8, 76, 80
15, 66840, Note_on_c, 8, 76, 0
15, 66840, Note_on_c, 8, 78, 80
15, 66870, Note_on_c, 8, 78, 0
15, 66870, Note_on_c, 8, 76, 80
15, 66900, Note_on_c, 8, 76, 0
15, 66900, Note_on_c, 8, 78, 80
15, 66930, Note_on_c, 8, 78, 0
15, 66930, Note_on_c, 8, 76, 80
15, 66960, Note_on_c, 8, 76, 0
15, 66960, Note_on_c, 8, 78, 80
15, 66990, Note_on_c, 8, 78, 0
15, 66990, Note_on_c, 8, 74, 80
15, 67020, Note_on_c, 8, 74, 0
15, 67020, Note_on_c, 8, 76, 80
15, 67050, Note_on_c, 8, 76, 0
15, 67050, Note_on_c, 8, 78, 80
15, 67080, Note_on_c, 8, 78, 0
15, 67080, Note_on_c, 8, 79, 80
15, 67110, Note_on_c, 8, 79, 0
15, 67110, Note_on_c, 8, 81, 80
15, 67140, Note_on_c, 8, 81, 0
15, 67140, Note_on_c, 8, 83, 80
15, 67170, Note_on_c, 8, 83, 0
15, 67170, Note_on_c, 8, 85, 80
15, 67200, Note_on_c, 8, 85, 0
15, 67200, Note_on_c, 8, 86, 80
15, 67230, Note_on_c, 8, 86, 0
15, 67230, Note_on_c, 8, 85, 80
15, 67260, Note_on_c, 8, 85, 0
15, 67260, Note_on_c, 8, 86, 80
15, 67290, Note_on_c, 8, 86, 0
15, 67290, Note_on_c, 8, 85, 80
15, 67320, Note_on_c, 8, 85, 0
15, 67320, Note_on_c, 8, 83, 80
15, 67350, Note_on_c, 8, 83, 0
15, 67350, Note_on_c, 8, 81, 80
15, 67380, Note_on_c, 8, 81, 0
15, 67380, Note_on_c, 8, 83, 80
15, 67410, Note_on_c, 8, 83, 0
15, 67410, Note_on_c, 8, 81, 80
15, 67440, Note_on_c, 8, 81, 0
15, 67440, Note_on_c, 8, 79, 80
15, 67470, Note_on_c, 8, 79, 0
15, 67470, Note_on_c, 8, 78, 80
15, 67500, Note_on_c, 8, 78, 0
15, 67500, Note_on_c, 8, 79, 80
15, 67530, Note_on_c, 8, 79, 0
15, 67530, Note_on_c, 8, 78, 80
15, 67560, Note_on_c, 8, 78, 0
15, 67560, Note_on_c, 8, 76, 80
15, 67590, Note_on_c, 8, 76, 0
15, 67590, Note_on_c, 8, 74, 80
15, 67620, Note_on_c, 8, 74, 0
15, 67620, Note_on_c, 8, 76, 80
15, 67650, Note_on_c, 8, 76, 0
15, 67650, Note_on_c, 8, 74, 80
15, 67680, Note_on_c, 8, 74, 0
15, 67680, Note_on_c, 8, 79, 80
15, 67739, Note_on_c, 8, 79, 0
15, 67740, Note_on_c, 8, 81, 80
15, 67769, Note_on_c, 8, 81, 0
15, 67770, Note_on_c, 8, 79, 80
15, 67799, Note_on_c, 8, 79, 0
15, 67800, Note_on_c, 8, 78, 80
15, 67829, Note_on_c, 8, 78, 0
15, 67830, Note_on_c, 8, 76, 80
15, 67859, Note_on_c, 8, 76, 0
15, 67860, Note_on_c, 8, 74, 80
15, 67889, Note_on_c, 8, 74, 0
15, 67890, Note_on_c, 8, 76, 80
15, 67919, Note_on_c, 8, 76, 0
15, 67920, Note_on_c, 8, 76, 80
15, 68009, Note_on_c, 8, 76, 0
15, 68010, Note_on_c, 8, 74, 80
15, 68039, Note_on_c, 8, 74, 0
15, 68040, Note_on_c, 8, 74, 80
15, 68159, Note_on_c, 8, 74, 0
15, 68280, Note_on_c, 8, 86, 80
15, 68339, Note_on_c, 8, 86, 0
15, 68340, Note_on_c, 8, 81, 80
15, 68399, Note_on_c, 8, 81, 0
15, 68640, Note_on_c, 8, 83, 80
15, 68699, Note_on_c, 8, 83, 0
15, 68700, Note_on_c, 8, 79, 80
15, 68759, Note_on_c, 8, 79, 0
15, 69000, Note_on_c, 8, 81, 80
15, 69059, Note_on_c, 8, 81, 0
15, 69060, Note_on_c, 8, 78, 80
15, 69119, Note_on_c, 8, 78, 0
15, 69120, Note_on_c, 8, 83, 80
15, 69149, Note_on_c, 8, 83, 0
15, 69150, Note_on_c, 8, 81, 80
15, 69179, Note_on_c, 8, 81, 0
15, 69180, Note_on_c, 8, 83, 80
15, 69209, Note_on_c, 8, 83, 0
15, 69210, Note_on_c, 8, 81, 80
15, 69239, Note_on_c, 8, 81, 0
15, 69240, Note_on_c, 8, 79, 80
15, 69269, Note_on_c, 8, 79, 0
15, 69270, Note_on_c, 8, 78, 80
15, 69299, Note_on_c, 8, 78, 0
15, 69300, Note_on_c, 8, 79, 80
15, 69329, Note_on_c, 8, 79, 0
15, 69330, Note_on_c, 8, 78, 80
15, 69359, Note_on_c, 8, 78, 0
15, 69360, Note_on_c, 8, 76, 80
15, 69389, Note_on_c, 8, 76, 0
15, 69390, Note_on_c, 8, 74, 80
15, 69419, Note_on_c, 8, 74, 0
15, 69420, Note_on_c, 8, 76, 80
15, 69449, Note_on_c, 8, 76, 0
15, 69450, Note_on_c, 8, 74, 80
15, 69479, Note_on_c, 8, 74, 0
15, 69480, Note_on_c, 8, 79, 80
15, 69539, Note_on_c, 8, 79, 0
15, 69540, Note_on_c, 8, 81, 80
15, 69569, Note_on_c, 8, 81, 0
15, 69570, Note_on_c, 8, 79, 80
15, 69599, Note_on_c, 8, 79, 0
15, 69600, Note_on_c, 8, 78, 80
15, 69629, Note_on_c, 8, 78, 0
15, 69630, Note_on_c, 8, 76, 80
15, 69659, Note_on_c, 8, 76, 0
15, 69660, Note_on_c, 8, 74, 80
15, 69689, Note_on_c, 8, 74, 0
15, 69690, Note_on_c, 8, 76, 80
15, 69719, Note_on_c, 8, 76, 0
15, 69720, Note_on_c, 8, 76, 80
15, 69809, Note_on_c, 8, 76, 0
15, 69810, Note_on_c, 8, 74, 80
15, 69839, Note_on_c, 8, 74, 0
15, 69840, Note_on_c, 8, 74, 80
15, 69959, Note_on_c, 8, 74, 0
15, 70560, Note_on_c, 8, 79, 100
15, 70680, Note_on_c, 8, 79, 0
15, 71280, Note_on_c, 8, 76, 100
15, 71400, Note_on_c, 8, 76, 0
15, 71760, Note_on_c, 8, 72, 100
15, 71880, Note_on_c, 8, 72, 0
15, 72240, Note_on_c, 8, 71, 100
15, 72360, Note_on_c, 8, 71, 0
15, 72720, Note_on_c, 8, 76, 100
15, 72840, Note_on_c, 8, 76, 0
15, 72960, Note_on_c, 8, 81, 100
15, 73080, Note_on_c, 8, 81, 0
15, 73320, Note_on_c, 8, 78, 100
15, 73440, Note_on_c, 8, 78, 0
15, 73440, Note_on_c, 8, 79, 100
15, 73560, Note_on_c, 8, 79, 0
15, 73710, Note_on_c, 8, 76, 100
15, 73740, Note_on_c, 8, 76, 0
15, 73740, Note_on_c, 8, 76, 100
15, 73770, Note_on_c, 8, 76, 0
15, 73770, Note_on_c, 8, 76, 100
15, 73800, Note_on_c, 8, 76, 0
15, 73800, Note_on_c, 8, 76, 100
15, 73860, Note_on_c, 8, 76, 0
15, 74190, Note_on_c, 8, 81, 100
15, 74220, Note_on_c, 8, 81, 0
15, 74220, Note_on_c, 8, 81, 100
15, 74250, Note_on_c, 8, 81, 0
15, 74250, Note_on_c, 8, 81, 100
15, 74280, Note_on_c, 8, 81, 0
15, 74280, Note_on_c, 8, 81, 100
15, 74340, Note_on_c, 8, 81, 0
15, 74670, Note_on_c, 8, 66, 100
15, 74700, Note_on_c, 8, 66, 0
15, 74700, Note_on_c, 8, 66, 100
15, 74730, Note_on_c, 8, 66, 0
15, 74730, Note_on_c, 8, 66, 100
15, 74760, Note_on_c, 8, 66, 0
15, 74760, Note_on_c, 8, 66, 100
15, 74820, Note_on_c, 8, 66, 0
15, 74895, Note_on_c, 8, 83, 90
15, 74909, Note_on_c, 8, 83, 0
15, 74910, Note_on_c, 8, 81, 90
15, 74924, Note_on_c, 8, 81, 0
15, 74925, Note_on_c, 8, 79, 90
15, 74939, Note_on_c, 8, 79, 0
15, 74940, Note_on_c, 8, 78, 90
15, 74954, Note_on_c, 8, 78, 0
15, 74955, Note_on_c, 8, 76, 90
15, 74969, Note_on_c, 8, 76, 0
15, 74970, Note_on_c, 8, 74, 90
15, 74984, Note_on_c, 8, 74, 0
15, 74985, Note_on_c, 8, 73, 90
15, 74999, Note_on_c, 8, 73, 0
15, 75000, Note_on_c, 8, 71, 90
15, 75014, Note_on_c, 8, 71, 0
15, 75015, Note_on_c, 8, 74, 90
15, 75029, Note_on_c, 8, 74, 0
15, 75030, Note_on_c, 8, 73, 90
15, 75044, Note_on_c, 8, 73, 0
15, 75045, Note_on_c, 8, 71, 90
15, 75059, Note_on_c, 8, 71, 0
15, 75060, Note_on_c, 8, 69, 90
15, 75074, Note_on_c, 8, 69, 0
15, 75075, Note_on_c, 8, 67, 90
15, 75089, Note_on_c, 8, 67, 0
15, 75090, Note_on_c, 8, 66, 90
15, 75104, Note_on_c, 8, 66, 0
15, 75105, Note_on_c, 8, 64, 90
15, 75119, Note_on_c, 8, 64, 0
15, 75120, Note_on_c, 8, 63, 90
15, 75179, Note_on_c, 8, 63, 0
15, 75360, Note_on_c, 8, 76, 100
15, 75420, Note_on_c, 8, 76, 0
15, 75600, Note_on_c, 8, 76, 100
15, 75720, Note_on_c, 8, 76, 0
15, 76080, Note_on_c, 8, 69, 100
15, 76200, Note_on_c, 8, 69, 0
15, 76320, Note_on_c, 8, 77, 100
15, 76440, Note_on_c, 8, 77, 0
15, 76575, Note_on_c, 8, 81, 90
15, 76589, Note_on_c, 8, 81, 0
15, 76590, Note_on_c, 8, 79, 90
15, 76604, Note_on_c, 8, 79, 0
15, 76605, Note_on_c, 8, 78, 90
15, 76619, Note_on_c, 8, 78, 0
15, 76620, Note_on_c, 8, 76, 90
15, 76634, Note_on_c, 8, 76, 0
15, 76635, Note_on_c, 8, 74, 90
15, 76649, Note_on_c, 8, 74, 0
15, 76650, Note_on_c, 8, 73, 90
15, 76664, Note_on_c, 8, 73, 0
15, 76665, Note_on_c, 8, 71, 90
15, 76679, Note_on_c, 8, 71, 0
15, 76680, Note_on_c, 8, 69, 90
15, 76694, Note_on_c, 8, 69, 0
15, 76695, Note_on_c, 8, 74, 90
15, 76709, Note_on_c, 8, 74, 0
15, 76710, Note_on_c, 8, 73, 90
15, 76724, Note_on_c, 8, 73, 0
15, 76725, Note_on_c, 8, 71, 90
15, 76739, Note_on_c, 8, 71, 0
15, 76740, Note_on_c, 8, 69, 90
15, 76754, Note_on_c, 8, 69, 0
15, 76755, Note_on_c, 8, 67, 90
15, 76769, Note_on_c, 8, 67, 0
15, 76770, Note_on_c, 8, 66, 90
15, 76784, Note_on_c, 8, 66, 0
15, 76785, Note_on_c, 8, 64, 90
15, 76799, Note_on_c, 8, 64, 0
15, 76800, Note_on_c, 8, 62, 90
15, 76814, Note_on_c, 8, 62, 0
15, 76815, Note_on_c, 8, 66, 90
15, 76829, Note_on_c, 8, 66, 0
15, 76830, Note_on_c, 8, 67, 90
15, 76844, Note_on_c, 8, 67, 0
15, 76845, Note_on_c, 8, 69, 90
15, 76859, Note_on_c, 8, 69, 0
15, 76860, Note_on_c, 8, 71, 90
15, 76874, Note_on_c, 8, 71, 0
15, 76875, Note_on_c, 8, 73, 90
15, 76889, Note_on_c, 8, 73, 0
15, 76890, Note_on_c, 8, 74, 90
15, 76904, Note_on_c, 8, 74, 0
15, 76905, Note_on_c, 8, 76, 90
15, 76919, Note_on_c, 8, 76, 0
15, 76920, Note_on_c, 8, 78, 90
15, 76934, Note_on_c, 8, 78, 0
15, 76935, Note_on_c, 8, 69, 90
15, 76949, Note_on_c, 8, 69, 0
15, 76950, Note_on_c, 8, 71, 90
15, 76964, Note_on_c, 8, 71, 0
15, 76965, Note_on_c, 8, 73, 90
15, 76979, Note_on_c, 8, 73, 0
15, 76980, Note_on_c, 8, 74, 90
15, 76994, Note_on_c, 8, 74, 0
15, 76995, Note_on_c, 8, 76, 90
15, 77009, Note_on_c, 8, 76, 0
15, 77010, Note_on_c, 8, 78, 90
15, 77024, Note_on_c, 8, 78, 0
15, 77025, Note_on_c, 8, 79, 90
15, 77039, Note_on_c, 8, 79, 0
15, 77040, Note_on_c, 8, 81, 90
15, 77159, Note_on_c, 8, 81, 0
15, 77295, Note_on_c, 8, 86, 90
15, 77309, Note_on_c, 8, 86, 0
15, 77310, Note_on_c, 8, 85, 90
15, 77324, Note_on_c, 8, 85, 0
15, 77325, Note_on_c, 8, 83, 90
15, 77339, Note_on_c, 8, 83, 0
15, 77340, Note_on_c, 8, 81, 90
15, 77354, Note_on_c, 8, 81, 0
15, 77355, Note_on_c, 8, 80, 90
15, 77369, Note_on_c, 8, 80, 0
15, 77370, Note_on_c, 8, 78, 90
15, 77384, Note_on_c, 8, 78, 0
15, 77385, Note_on_c, 8, 76, 90
15, 77399, Note_on_c, 8, 76, 0
15, 77400, Note_on_c, 8, 74, 90
15, 77414, Note_on_c, 8, 74, 0
15, 77415, Note_on_c, 8, 83, 90
15, 77429, Note_on_c, 8, 83, 0
15, 77430, Note_on_c, 8, 81, 90
15, 77444, Note_on_c, 8, 81, 0
15, 77445, Note_on_c, 8, 80, 90
15, 77459, Note_on_c, 8, 80, 0
15, 77460, Note_on_c, 8, 78, 90
15, 77474, Note_on_c, 8, 78, 0
15, 77475, Note_on_c, 8, 76, 90
15, 77489, Note_on_c, 8, 76, 0
15, 77490, Note_on_c, 8, 74, 90
15, 77504, Note_on_c, 8, 74, 0
15, 77505, Note_on_c, 8, 73, 90
15, 77519, Note_on_c, 8, 73, 0
15, 77520, Note_on_c, 8, 71, 90
15, 77580, Note_on_c, 8, 71, 0
15, 77775, Note_on_c, 8, 69, 90
15, 77789, Note_on_c, 8, 69, 0
15, 77790, Note_on_c, 8, 71, 90
15, 77804, Note_on_c, 8, 71, 0
15, 77805, Note_on_c, 8, 73, 90
15, 77819, Note_on_c, 8, 73, 0
15, 77820, Note_on_c, 8, 74, 90
15, 77834, Note_on_c, 8, 74, 0
15, 77835, Note_on_c, 8, 76, 90
15, 77849, Note_on_c, 8, 76, 0
15, 77850, Note_on_c, 8, 78, 90
15, 77864, Note_on_c, 8, 78, 0
15, 77865, Note_on_c, 8, 80, 90
15, 77879, Note_on_c, 8, 80, 0
15, 77880, Note_on_c, 8, 81, 90
15, 77894, Note_on_c, 8, 81, 0
15, 77895, Note_on_c, 8, 79, 90
15, 77909, Note_on_c, 8, 79, 0
15, 77910, Note_on_c, 8, 76, 90
15, 77924, Note_on_c, 8, 76, 0
15, 77925, Note_on_c, 8, 78, 90
15, 77939, Note_on_c, 8, 78, 0
15, 77940, Note_on_c, 8, 79, 90
15, 77954, Note_on_c, 8, 79, 0
15, 77955, Note_on_c, 8, 81, 90
15, 77969, Note_on_c, 8, 81, 0
15, 77970, Note_on_c, 8, 83, 90
15, 77984, Note_on_c, 8, 83, 0
15, 77985, Note_on_c, 8, 85, 90
15, 77999, Note_on_c, 8, 85, 0
15, 78000, Note_on_c, 8, 86, 90
15, 78059, Note_on_c, 8, 86, 0
15, 78270, Note_on_c, 8, 81, 90
15, 78284, Note_on_c, 8, 81, 0
15, 78285, Note_on_c, 8, 80, 90
15, 78299, Note_on_c, 8, 80, 0
15, 78300, Note_on_c, 8, 78, 90
15, 78314, Note_on_c, 8, 78, 0
15, 78315, Note_on_c, 8, 76, 90
15, 78329, Note_on_c, 8, 76, 0
15, 78330, Note_on_c, 8, 74, 90
15, 78344, Note_on_c, 8, 74, 0
15, 78345, Note_on_c, 8, 73, 90
15, 78359, Note_on_c, 8, 73, 0
15, 78360, Note_on_c, 8, 71, 90
15, 78374, Note_on_c, 8, 71, 0
15, 78375, Note_on_c, 8, 69, 90
15, 78389, Note_on_c, 8, 69, 0
15, 78390, Note_on_c, 8, 68, 90
15, 78404, Note_on_c, 8, 68, 0
15, 78405, Note_on_c, 8, 66, 90
15, 78419, Note_on_c, 8, 66, 0
15, 78420, Note_on_c, 8, 64, 90
15, 78434, Note_on_c, 8, 64, 0
15, 78435, Note_on_c, 8, 62, 90
15, 78449, Note_on_c, 8, 62, 0
15, 78450, Note_on_c, 8, 61, 90
15, 78464, Note_on_c, 8, 61, 0
15, 78465, Note_on_c, 8, 59, 90
15, 78479, Note_on_c, 8, 59, 0
15, 78480, Note_on_c, 8, 57, 90
15, 78509, Note_on_c, 8, 57, 0
15, 78510, Note_on_c, 8, 61, 90
15, 78524, Note_on_c, 8, 61, 0
15, 78525, Note_on_c, 8, 64, 90
15, 78539, Note_on_c, 8, 64, 0
15, 78540, Note_on_c, 8, 69, 90
15, 78569, Note_on_c, 8, 69, 0
15, 78570, Note_on_c, 8, 64, 90
15, 78584, Note_on_c, 8, 64, 0
15, 78585, Note_on_c, 8, 69, 90
15, 78599, Note_on_c, 8, 69, 0
15, 78600, Note_on_c, 8, 73, 90
15, 78629, Note_on_c, 8, 73, 0
15, 78630, Note_on_c, 8, 69, 90
15, 78644, Note_on_c, 8, 69, 0
15, 78645, Note_on_c, 8, 73, 90
15, 78659, Note_on_c, 8, 73, 0
15, 78660, Note_on_c, 8, 76, 90
15, 78689, Note_on_c, 8, 76, 0
15, 78690, Note_on_c, 8, 73, 90
15, 78704, Note_on_c, 8, 73, 0
15, 78705, Note_on_c, 8, 76, 90
15, 78719, Note_on_c, 8, 76, 0
15, 78720, Note_on_c, 8, 81, 90
15, 78840, Note_on_c, 8, 81, 0
15, 78990, Note_on_c, 8, 76, 90
15, 79019, Note_on_c, 8, 76, 0
15, 79020, Note_on_c, 8, 76, 90
15, 79049, Note_on_c, 8, 76, 0
15, 79050, Note_on_c, 8, 76, 90
15, 79079, Note_on_c, 8, 76, 0
15, 79080, Note_on_c, 8, 76, 90
15, 79139, Note_on_c, 8, 76, 0
15, 79470, Note_on_c, 8, 83, 90
15, 79499, Note_on_c, 8, 83, 0
15, 79500, Note_on_c, 8, 83, 90
15, 79529, Note_on_c, 8, 83, 0
15, 79530, Note_on_c, 8, 83, 90
15, 79559, Note_on_c, 8, 83, 0
15, 79560, Note_on_c, 8, 83, 90
15, 79589, Note_on_c, 8, 83, 0
15, 79590, Note_on_c, 8, 71, 90
15, 79619, Note_on_c, 8, 71, 0
15, 79620, Note_on_c, 8, 71, 90
15, 79649, Note_on_c, 8, 71, 0
15, 79650, Note_on_c, 8, 71, 90
15, 79679, Note_on_c, 8, 71, 0
15, 79680, Note_on_c, 8, 66, 90
15, 79739, Note_on_c, 8, 66, 0
15, 79935, Note_on_c, 8, 64, 90
15, 79949, Note_on_c, 8, 64, 0
15, 79950, Note_on_c, 8, 66, 90
15, 79964, Note_on_c, 8, 66, 0
15, 79965, Note_on_c, 8, 68, 90
15, 79979, Note_on_c, 8, 68, 0
15, 79980, Note_on_c, 8, 69, 90
15, 79994, Note_on_c, 8, 69, 0
15, 79995, Note_on_c, 8, 71, 90
15, 80009, Note_on_c, 8, 71, 0
15, 80010, Note_on_c, 8, 73, 90
15, 80024, Note_on_c, 8, 73, 0
15, 80025, Note_on_c, 8, 74, 90
15, 80039, Note_on_c, 8, 74, 0
15, 80040, Note_on_c, 8, 76, 90
15, 80054, Note_on_c, 8, 76, 0
15, 80055, Note_on_c, 8, 71, 90
15, 80069, Note_on_c, 8, 71, 0
15, 80070, Note_on_c, 8, 73, 90
15, 80084, Note_on_c, 8, 73, 0
15, 80085, Note_on_c, 8, 74, 90
15, 80099, Note_on_c, 8, 74, 0
15, 80100, Note_on_c, 8, 76, 90
15, 80114, Note_on_c, 8, 76, 0
15, 80115, Note_on_c, 8, 78, 90
15, 80129, Note_on_c, 8, 78, 0
15, 80130, Note_on_c, 8, 80, 90
15, 80144, Note_on_c, 8, 80, 0
15, 80145, Note_on_c, 8, 81, 90
15, 80159, Note_on_c, 8, 81, 0
15, 80160, Note_on_c, 8, 83, 90
15, 80219, Note_on_c, 8, 83, 0
15, 80430, Note_on_c, 8, 74, 90
15, 80444, Note_on_c, 8, 74, 0
15, 80445, Note_on_c, 8, 73, 90
15, 80459, Note_on_c, 8, 73, 0
15, 80460, Note_on_c, 8, 71, 90
15, 80474, Note_on_c, 8, 71, 0
15, 80475, Note_on_c, 8, 69, 90
15, 80489, Note_on_c, 8, 69, 0
15, 80490, Note_on_c, 8, 68, 90
15, 80504, Note_on_c, 8, 68, 0
15, 80505, Note_on_c, 8, 66, 90
15, 80519, Note_on_c, 8, 66, 0
15, 80520, Note_on_c, 8, 68, 90
15, 80579, Note_on_c, 8, 68, 0
15, 80895, Note_on_c, 8, 61, 90
15, 80909, Note_on_c, 8, 61, 0
15, 80910, Note_on_c, 8, 63, 90
15, 80924, Note_on_c, 8, 63, 0
15, 80925, Note_on_c, 8, 65, 90
15, 80939, Note_on_c, 8, 65, 0
15, 80940, Note_on_c, 8, 66, 90
15, 80954, Note_on_c, 8, 66, 0
15, 80955, Note_on_c, 8, 68, 90
15, 80969, Note_on_c, 8, 68, 0
15, 80970, Note_on_c, 8, 69, 90
15, 80984, Note_on_c, 8, 69, 0
15, 80985, Note_on_c, 8, 71, 90
15, 80999, Note_on_c, 8, 71, 0
15, 81000, Note_on_c, 8, 73, 90
15, 81059, Note_on_c, 8, 73, 0
15, 81150, Note_on_c, 8, 62, 90
15, 81179, Note_on_c, 8, 62, 0
15, 81180, Note_on_c, 8, 62, 90
15, 81209, Note_on_c, 8, 62, 0
15, 81210, Note_on_c, 8, 62, 90
15, 81239, Note_on_c, 8, 62, 0
15, 81240, Note_on_c, 8, 62, 90
15, 81299, Note_on_c, 8, 62, 0
15, 82500, Note_on_c, 8, 64, 90
15, 82559, Note_on_c, 8, 64, 0
15, 82560, Note_on_c, 8, 69, 90
15, 82619, Note_on_c, 8, 69, 0
15, 82620, Note_on_c, 8, 69, 90
15, 82679, Note_on_c, 8, 69, 0
15, 82680, Note_on_c, 8, 69, 90
15, 82739, Note_on_c, 8, 69, 0
15, 82740, Note_on_c, 8, 69, 90
15, 82799, Note_on_c, 8, 69, 0
15, 82800, Note_on_c, 8, 69, 90
15, 82859, Note_on_c, 8, 69, 0
15, 82860, Note_on_c, 8, 64, 90
15, 82889, Note_on_c, 8, 64, 0
15, 82890, Note_on_c, 8, 69, 90
15, 82919, Note_on_c, 8, 69, 0
15, 82920, Note_on_c, 8, 73, 90
15, 82949, Note_on_c, 8, 73, 0
15, 82950, Note_on_c, 8, 71, 90
15, 82979, Note_on_c, 8, 71, 0
15, 82980, Note_on_c, 8, 69, 90
15, 83009, Note_on_c, 8, 69, 0
15, 83010, Note_on_c, 8, 68, 90
15, 83039, Note_on_c, 8, 68, 0
15, 83040, Note_on_c, 8, 69, 90
15, 83099, Note_on_c, 8, 69, 0
15, 83100, Note_on_c, 8, 64, 90
15, 83129, Note_on_c, 8, 64, 0
15, 83130, Note_on_c, 8, 69, 90
15, 83159, Note_on_c, 8, 69, 0
15, 83160, Note_on_c, 8, 74, 90
15, 83189, Note_on_c, 8, 74, 0
15, 83190, Note_on_c, 8, 73, 90
15, 83219, Note_on_c, 8, 73, 0
15, 83220, Note_on_c, 8, 71, 90
15, 83249, Note_on_c, 8, 71, 0
15, 83250, Note_on_c, 8, 69, 90
15, 83279, Note_on_c, 8, 69, 0
15, 83280, Note_on_c, 8, 71, 90
15, 83339, Note_on_c, 8, 71, 0
15, 83340, Note_on_c, 8, 64, 90
15, 83369, Note_on_c, 8, 64, 0
15, 83370, Note_on_c, 8, 69, 90
15, 83399, Note_on_c, 8, 69, 0
15, 83400, Note_on_c, 8, 76, 90
15, 83429, Note_on_c, 8, 76, 0
15, 83430, Note_on_c, 8, 74, 90
15, 83459, Note_on_c, 8, 74, 0
15, 83460, Note_on_c, 8, 73, 90
15, 83489, Note_on_c, 8, 73, 0
15, 83490, Note_on_c, 8, 71, 90
15, 83519, Note_on_c, 8, 71, 0
15, 83520, Note_on_c, 8, 73, 90
15, 83579, Note_on_c, 8, 73, 0
15, 83580, Note_on_c, 8, 71, 90
15, 83609, Note_on_c, 8, 71, 0
15, 83610, Note_on_c, 8, 73, 90
15, 83639, Note_on_c, 8, 73, 0
15, 83640, Note_on_c, 8, 69, 90
15, 83699, Note_on_c, 8, 69, 0
15, 83700, Note_on_c, 8, 73, 90
15, 83759, Note_on_c, 8, 73, 0
15, 83760, Note_on_c, 8, 71, 90
15, 83819, Note_on_c, 8, 71, 0
15, 83820, Note_on_c, 8, 71, 90
15, 83879, Note_on_c, 8, 71, 0
15, 83880, Note_on_c, 8, 71, 90
15, 83939, Note_on_c, 8, 71, 0
15, 83940, Note_on_c, 8, 71, 90
15, 83999, Note_on_c, 8, 71, 0
15, 84000, Note_on_c, 8, 71, 90
15, 84059, Note_on_c, 8, 71, 0
15, 84060, Note_on_c, 8, 73, 90
15, 84089, Note_on_c, 8, 73, 0
15, 84090, Note_on_c, 8, 75, 90
15, 84119, Note_on_c, 8, 75, 0
15, 84120, Note_on_c, 8, 76, 90
15, 84149, Note_on_c, 8, 76, 0
15, 84150, Note_on_c, 8, 78, 90
15, 84179, Note_on_c, 8, 78, 0
15, 84180, Note_on_c, 8, 80, 90
15, 84209, Note_on_c, 8, 80, 0
15, 84210, Note_on_c, 8, 76, 90
15, 84239, Note_on_c, 8, 76, 0
15, 84240, Note_on_c, 8, 69, 90
15, 84299, Note_on_c, 8, 69, 0
15, 84300, Note_on_c, 8, 71, 90
15, 84329, Note_on_c, 8, 71, 0
15, 84330, Note_on_c, 8, 73, 90
15, 84359, Note_on_c, 8, 73, 0
15, 84360, Note_on_c, 8, 75, 90
15, 84389, Note_on_c, 8, 75, 0
15, 84390, Note_on_c, 8, 76, 90
15, 84419, Note_on_c, 8, 76, 0
15, 84420, Note_on_c, 8, 78, 90
15, 84449, Note_on_c, 8, 78, 0
15, 84450, Note_on_c, 8, 75, 90
15, 84479, Note_on_c, 8, 75, 0
15, 84480, Note_on_c, 8, 76, 90
15, 84539, Note_on_c, 8, 76, 0
15, 84540, Note_on_c, 8, 71, 90
15, 84599, Note_on_c, 8, 71, 0
15, 84600, Note_on_c, 8, 68, 90
15, 84659, Note_on_c, 8, 68, 0
15, 84660, Note_on_c, 8, 66, 90
15, 84689, Note_on_c, 8, 66, 0
15, 84690, Note_on_c, 8, 64, 90
15, 84719, Note_on_c, 8, 64, 0
15, 84720, Note_on_c, 8, 64, 90
15, 84839, Note_on_c, 8, 64, 0
15, 84870, Note_on_c, 8, 66, 90
15, 84899, Note_on_c, 8, 66, 0
15, 84900, Note_on_c, 8, 68, 90
15, 84929, Note_on_c, 8, 68, 0
15, 84930, Note_on_c, 8, 69, 90
15, 84959, Note_on_c, 8, 69, 0
15, 84960, Note_on_c, 8, 71, 90
15, 85019, Note_on_c, 8, 71, 0
15, 85020, Note_on_c, 8, 73, 90
15, 85079, Note_on_c, 8, 73, 0
15, 85080, Note_on_c, 8, 71, 90
15, 85139, Note_on_c, 8, 71, 0
15, 85140, Note_on_c, 8, 69, 90
15, 85199, Note_on_c, 8, 69, 0
15, 85200, Note_on_c, 8, 71, 90
15, 85259, Note_on_c, 8, 71, 0
15, 85260, Note_on_c, 8, 69, 90
15, 85289, Note_on_c, 8, 69, 0
15, 85290, Note_on_c, 8, 71, 90
15, 85319, Note_on_c, 8, 71, 0
15, 85320, Note_on_c, 8, 68, 90
15, 85349, Note_on_c, 8, 68, 0
15, 85350, Note_on_c, 8, 69, 90
15, 85379, Note_on_c, 8, 69, 0
15, 85380, Note_on_c, 8, 71, 90
15, 85409, Note_on_c, 8, 71, 0
15, 85410, Note_on_c, 8, 73, 90
15, 85439, Note_on_c, 8, 73, 0
15, 85440, Note_on_c, 8, 74, 90
15, 85499, Note_on_c, 8, 74, 0
15, 85500, Note_on_c, 8, 69, 90
15, 85529, Note_on_c, 8, 69, 0
15, 85530, Note_on_c, 8, 74, 90
15, 85559, Note_on_c, 8, 74, 0
15, 85560, Note_on_c, 8, 78, 90
15, 85589, Note_on_c, 8, 78, 0
15, 85590, Note_on_c, 8, 76, 90
15, 85619, Note_on_c, 8, 76, 0
15, 85620, Note_on_c, 8, 74, 90
15, 85649, Note_on_c, 8, 74, 0
15, 85650, Note_on_c, 8, 73, 90
15, 85679, Note_on_c, 8, 73, 0
15, 85680, Note_on_c, 8, 74, 90
15, 85739, Note_on_c, 8, 74, 0
15, 85740, Note_on_c, 8, 69, 90
15, 85769, Note_on_c, 8, 69, 0
15, 85770, Note_on_c, 8, 74, 90
15, 85799, Note_on_c, 8, 74, 0
15, 85800, Note_on_c, 8, 78, 90
15, 85829, Note_on_c, 8, 78, 0
15, 85830, Note_on_c, 8, 76, 90
15, 85859, Note_on_c, 8, 76, 0
15, 85860, Note_on_c, 8, 74, 90
15, 85889, Note_on_c, 8, 74, 0
15, 85890, Note_on_c, 8, 73, 90
15, 85919, Note_on_c, 8, 73, 0
15, 85920, Note_on_c, 8, 74, 90
15, 85979, Note_on_c, 8, 74, 0
15, 85980, Note_on_c, 8, 64, 90
15, 86009, Note_on_c, 8, 64, 0
15, 86010, Note_on_c, 8, 73, 90
15, 86039, Note_on_c, 8, 73, 0
15, 86040, Note_on_c, 8, 74, 90
15, 86069, Note_on_c, 8, 74, 0
15, 86070, Note_on_c, 8, 73, 90
15, 86099, Note_on_c, 8, 73, 0
15, 86100, Note_on_c, 8, 71, 90
15, 86129, Note_on_c, 8, 71, 0
15, 86130, Note_on_c, 8, 69, 90
15, 86159, Note_on_c, 8, 69, 0
15, 86160, Note_on_c, 8, 71, 90
15, 86219, Note_on_c, 8, 71, 0
15, 86220, Note_on_c, 8, 64, 90
15, 86249, Note_on_c, 8, 64, 0
15, 86250, Note_on_c, 8, 74, 90
15, 86279, Note_on_c, 8, 74, 0
15, 86280, Note_on_c, 8, 76, 90
15, 86309, Note_on_c, 8, 76, 0
15, 86310, Note_on_c, 8, 74, 90
15, 86339, Note_on_c, 8, 74, 0
15, 86340, Note_on_c, 8, 73, 90
15, 86369, Note_on_c, 8, 73, 0
15, 86370, Note_on_c, 8, 71, 90
15, 86399, Note_on_c, 8, 71, 0
15, 86400, Note_on_c, 8, 74, 90
15, 86429, Note_on_c, 8, 74, 0
15, 86430, Note_on_c, 8, 73, 90
15, 86459, Note_on_c, 8, 73, 0
15, 86460, Note_on_c, 8, 71, 90
15, 86489, Note_on_c, 8, 71, 0
15, 86490, Note_on_c, 8, 69, 90
15, 86519, Note_on_c, 8, 69, 0
15, 86520, Note_on_c, 8, 71, 90
15, 86579, Note_on_c, 8, 71, 0
15, 86580, Note_on_c, 8, 68, 90
15, 86639, Note_on_c, 8, 68, 0
15, 86640, Note_on_c, 8, 69, 90
15, 86699, Note_on_c, 8, 69, 0
15, 86700, Note_on_c, 8, 73, 90
15, 86729, Note_on_c, 8, 73, 0
15, 86730, Note_on_c, 8, 74, 90
15, 86759, Note_on_c, 8, 74, 0
15, 86760, Note_on_c, 8, 76, 90
15, 86819, Note_on_c, 8, 76, 0
15, 86820, Note_on_c, 8, 78, 90
15, 86849, Note_on_c, 8, 78, 0
15, 86850, Note_on_c, 8, 80, 90
15, 86879, Note_on_c, 8, 80, 0
15, 86880, Note_on_c, 8, 81, 90
15, 86939, Note_on_c, 8, 81, 0
15, 86940, Note_on_c, 8, 69, 90
15, 86999, Note_on_c, 8, 69, 0
15, 87000, Note_on_c, 8, 64, 90
15, 87059, Note_on_c, 8, 64, 0
15, 87060, Note_on_c, 8, 68, 90
15, 87119, Note_on_c, 8, 68, 0
15, 87120, Note_on_c, 8, 69, 90
15, 87299, Note_on_c, 8, 69, 0
15, 87300, Note_on_c, 8, 64, 90
15, 87359, Note_on_c, 8, 64, 0
15, 87360, Note_on_c, 8, 69, 90
15, 87419, Note_on_c, 8, 69, 0
15, 87420, Note_on_c, 8, 69, 90
15, 87479, Note_on_c, 8, 69, 0
15, 87480, Note_on_c, 8, 69, 90
15, 87539, Note_on_c, 8, 69, 0
15, 87540, Note_on_c, 8, 69, 90
15, 87599, Note_on_c, 8, 69, 0
15, 87600, Note_on_c, 8, 69, 90
15, 87659, Note_on_c, 8, 69, 0
15, 87660, Note_on_c, 8, 64, 90
15, 87689, Note_on_c, 8, 64, 0
15, 87690, Note_on_c, 8, 69, 90
15, 87719, Note_on_c, 8, 69, 0
15, 87720, Note_on_c, 8, 73, 90
15, 87749, Note_on_c, 8, 73, 0
15, 87750, Note_on_c, 8, 71, 90
15, 87779, Note_on_c, 8, 71, 0
15, 87780, Note_on_c, 8, 69, 90
15, 87809, Note_on_c, 8, 69, 0
15, 87810, Note_on_c, 8, 68, 90
15, 87839, Note_on_c, 8, 68, 0
15, 87840, Note_on_c, 8, 69, 90
15, 87899, Note_on_c, 8, 69, 0
15, 87900, Note_on_c, 8, 64, 90
15, 87929, Note_on_c, 8, 64, 0
15, 87930, Note_on_c, 8, 69, 90
15, 87959, Note_on_c, 8, 69, 0
15, 87960, Note_on_c, 8, 74, 90
15, 87989, Note_on_c, 8, 74, 0
15, 87990, Note_on_c, 8, 73, 90
15, 88019, Note_on_c, 8, 73, 0
15, 88020, Note_on_c, 8, 71, 90
15, 88049, Note_on_c, 8, 71, 0
15, 88050, Note_on_c, 8, 69, 90
15, 88079, Note_on_c, 8, 69, 0
15, 88080, Note_on_c, 8, 71, 90
15, 88139, Note_on_c, 8, 71, 0
15, 88140, Note_on_c, 8, 64, 90
15, 88169, Note_on_c, 8, 64, 0
15, 88170, Note_on_c, 8, 71, 90
15, 88199, Note_on_c, 8, 71, 0
15, 88200, Note_on_c, 8, 76, 90
15, 88229, Note_on_c, 8, 76, 0
15, 88230, Note_on_c, 8, 74, 90
15, 88259, Note_on_c, 8, 74, 0
15, 88260, Note_on_c, 8, 73, 90
15, 88289, Note_on_c, 8, 73, 0
15, 88290, Note_on_c, 8, 71, 90
15, 88319, Note_on_c, 8, 71, 0
15, 88320, Note_on_c, 8, 73, 90
15, 88379, Note_on_c, 8, 73, 0
15, 88380, Note_on_c, 8, 71, 90
15, 88409, Note_on_c, 8, 71, 0
15, 88410, Note_on_c, 8, 73, 90
15, 88439, Note_on_c, 8, 73, 0
15, 88440, Note_on_c, 8, 69, 90
15, 88469, Note_on_c, 8, 69, 0
15, 88470, Note_on_c, 8, 71, 90
15, 88499, Note_on_c, 8, 71, 0
15, 88500, Note_on_c, 8, 73, 90
15, 88529, Note_on_c, 8, 73, 0
15, 88530, Note_on_c, 8, 74, 90
15, 88559, Note_on_c, 8, 74, 0
15, 88560, Note_on_c, 8, 76, 90
15, 88619, Note_on_c, 8, 76, 0
15, 88620, Note_on_c, 8, 76, 90
15, 88679, Note_on_c, 8, 76, 0
15, 88680, Note_on_c, 8, 76, 90
15, 88739, Note_on_c, 8, 76, 0
15, 88740, Note_on_c, 8, 76, 90
15, 88799, Note_on_c, 8, 76, 0
15, 88800, Note_on_c, 8, 76, 90
15, 88859, Note_on_c, 8, 76, 0
15, 88860, Note_on_c, 8, 78, 90
15, 88889, Note_on_c, 8, 78, 0
15, 88890, Note_on_c, 8, 80, 90
15, 88919, Note_on_c, 8, 80, 0
15, 88920, Note_on_c, 8, 81, 90
15, 88949, Note_on_c, 8, 81, 0
15, 88950, Note_on_c, 8, 83, 90
15, 88979, Note_on_c, 8, 83, 0
15, 88980, Note_on_c, 8, 85, 90
15, 89009, Note_on_c, 8, 85, 0
15, 89010, Note_on_c, 8, 81, 90
15, 89039, Note_on_c, 8, 81, 0
15, 89040, Note_on_c, 8, 74, 90
15, 89099, Note_on_c, 8, 74, 0
15, 89100, Note_on_c, 8, 76, 90
15, 89129, Note_on_c, 8, 76, 0
15, 89130, Note_on_c, 8, 78, 90
15, 89159, Note_on_c, 8, 78, 0
15, 89160, Note_on_c, 8, 80, 90
15, 89189, Note_on_c, 8, 80, 0
15, 89190, Note_on_c, 8, 81, 90
15, 89219, Note_on_c, 8, 81, 0
15, 89220, Note_on_c, 8, 83, 90
15, 89249, Note_on_c, 8, 83, 0
15, 89250, Note_on_c, 8, 80, 90
15, 89279, Note_on_c, 8, 80, 0
15, 89280, Note_on_c, 8, 81, 90
15, 89339, Note_on_c, 8, 81, 0
15, 89340, Note_on_c, 8, 76, 90
15, 89399, Note_on_c, 8, 76, 0
15, 89400, Note_on_c, 8, 73, 90
15, 89459, Note_on_c, 8, 73, 0
15, 89460, Note_on_c, 8, 71, 90
15, 89489, Note_on_c, 8, 71, 0
15, 89490, Note_on_c, 8, 69, 90
15, 89519, Note_on_c, 8, 69, 0
15, 89520, Note_on_c, 8, 69, 90
15, 89549, Note_on_c, 8, 69, 0
15, 89550, Note_on_c, 8, 68, 90
15, 89579, Note_on_c, 8, 68, 0
15, 89580, Note_on_c, 8, 66, 90
15, 89609, Note_on_c, 8, 66, 0
15, 89610, Note_on_c, 8, 64, 90
15, 89639, Note_on_c, 8, 64, 0
15, 89640, Note_on_c, 8, 73, 90
15, 89669, Note_on_c, 8, 73, 0
15, 89670, Note_on_c, 8, 71, 90
15, 89699, Note_on_c, 8, 71, 0
15, 89700, Note_on_c, 8, 69, 90
15, 89729, Note_on_c, 8, 69, 0
15, 89730, Note_on_c, 8, 68, 90
15, 89759, Note_on_c, 8, 68, 0
15, 89760, Note_on_c, 8, 69, 90
15, 89819, Note_on_c, 8, 69, 0
15, 89820, Note_on_c, 8, 69, 90
15, 89879, Note_on_c, 8, 69, 0
15, 89880, Note_on_c, 8, 69, 90
15, 89939, Note_on_c, 8, 69, 0
15, 89940, Note_on_c, 8, 69, 90
15, 89999, Note_on_c, 8, 69, 0
15, 90000, Note_on_c, 8, 69, 90
15, 90059, Note_on_c, 8, 69, 0
15, 90060, Note_on_c, 8, 64, 90
15, 90089, Note_on_c, 8, 64, 0
15, 90090, Note_on_c, 8, 69, 90
15, 90119, Note_on_c, 8, 69, 0
15, 90120, Note_on_c, 8, 73, 90
15, 90149, Note_on_c, 8, 73, 0
15, 90150, Note_on_c, 8, 71, 90
15, 90179, Note_on_c, 8, 71, 0
15, 90180, Note_on_c, 8, 69, 90
15, 90209, Note_on_c, 8, 69, 0
15, 90210, Note_on_c, 8, 68, 90
15, 90239, Note_on_c, 8, 68, 0
15, 90240, Note_on_c, 8, 69, 90
15, 90299, Note_on_c, 8, 69, 0
15, 90300, Note_on_c, 8, 64, 90
15, 90329, Note_on_c, 8, 64, 0
15, 90330, Note_on_c, 8, 69, 90
15, 90359, Note_on_c, 8, 69, 0
15, 90360, Note_on_c, 8, 74, 90
15, 90389, Note_on_c, 8, 74, 0
15, 90390, Note_on_c, 8, 73, 90
15, 90419, Note_on_c, 8, 73, 0
15, 90420, Note_on_c, 8, 71, 90
15, 90449, Note_on_c, 8, 71, 0
15, 90450, Note_on_c, 8, 69, 90
15, 90479, Note_on_c, 8, 69, 0
15, 90480, Note_on_c, 8, 71, 90
15, 90539, Note_on_c, 8, 71, 0
15, 90540, Note_on_c, 8, 64, 90
15, 90569, Note_on_c, 8, 64, 0
15, 90570, Note_on_c, 8, 71, 90
15, 90599, Note_on_c, 8, 71, 0
15, 90600, Note_on_c, 8, 76, 90
15, 90629, Note_on_c, 8, 76, 0
15, 90630, Note_on_c, 8, 74, 90
15, 90659, Note_on_c, 8, 74, 0
15, 90660, Note_on_c, 8, 73, 90
15, 90689, Note_on_c, 8, 73, 0
15, 90690, Note_on_c, 8, 71, 90
15, 90719, Note_on_c, 8, 71, 0
15, 90720, Note_on_c, 8, 73, 90
15, 90779, Note_on_c, 8, 73, 0
15, 90780, Note_on_c, 8, 71, 90
15, 90809, Note_on_c, 8, 71, 0
15, 90810, Note_on_c, 8, 73, 90
15, 90839, Note_on_c, 8, 73, 0
15, 90840, Note_on_c, 8, 69, 90
15, 90899, Note_on_c, 8, 69, 0
15, 90900, Note_on_c, 8, 73, 90
15, 90959, Note_on_c, 8, 73, 0
15, 90960, Note_on_c, 8, 71, 90
15, 91019, Note_on_c, 8, 71, 0
15, 91020, Note_on_c, 8, 71, 90
15, 91079, Note_on_c, 8, 71, 0
15, 91080, Note_on_c, 8, 71, 90
15, 91139, Note_on_c, 8, 71, 0
15, 91140, Note_on_c, 8, 71, 90
15, 91199, Note_on_c, 8, 71, 0
15, 91200, Note_on_c, 8, 71, 90
15, 91259, Note_on_c, 8, 71, 0
15, 91260, Note_on_c, 8, 73, 90
15, 91289, Note_on_c, 8, 73, 0
15, 91290, Note_on_c, 8, 75, 90
15, 91319, Note_on_c, 8, 75, 0
15, 91320, Note_on_c, 8, 76, 90
15, 91349, Note_on_c, 8, 76, 0
15, 91350, Note_on_c, 8, 78, 90
15, 91379, Note_on_c, 8, 78, 0
15, 91380, Note_on_c, 8, 80, 90
15, 91409, Note_on_c, 8, 80, 0
15, 91410, Note_on_c, 8, 76, 90
15, 91439, Note_on_c, 8, 76, 0
15, 91440, Note_on_c, 8, 69, 90
15, 91499, Note_on_c, 8, 69, 0
15, 91500, Note_on_c, 8, 71, 90
15, 91529, Note_on_c, 8, 71, 0
15, 91530, Note_on_c, 8, 73, 90
15, 91559, Note_on_c, 8, 73, 0
15, 91560, Note_on_c, 8, 75, 90
15, 91589, Note_on_c, 8, 75, 0
15, 91590, Note_on_c, 8, 76, 90
15, 91619, Note_on_c, 8, 76, 0
15, 91620, Note_on_c, 8, 78, 90
15, 91649, Note_on_c, 8, 78, 0
15, 91650, Note_on_c, 8, 75, 90
15, 91679, Note_on_c, 8, 75, 0
15, 91680, Note_on_c, 8, 76, 90
15, 91739, Note_on_c, 8, 76, 0
15, 91740, Note_on_c, 8, 71, 90
15, 91799, Note_on_c, 8, 71, 0
15, 91800, Note_on_c, 8, 68, 90
15, 91859, Note_on_c, 8, 68, 0
15, 91860, Note_on_c, 8, 66, 90
15, 91889, Note_on_c, 8, 66, 0
15, 91890, Note_on_c, 8, 64, 90
15, 91919, Note_on_c, 8, 64, 0
15, 91920, Note_on_c, 8, 64, 90
15, 92039, Note_on_c, 8, 64, 0
15, 92070, Note_on_c, 8, 66, 90
15, 92099, Note_on_c, 8, 66, 0
15, 92100, Note_on_c, 8, 68, 90
15, 92129, Note_on_c, 8, 68, 0
15, 92130, Note_on_c, 8, 69, 90
15, 92159, Note_on_c, 8, 69, 0
15, 92160, Note_on_c, 8, 71, 90
15, 92219, Note_on_c, 8, 71, 0
15, 92220, Note_on_c, 8, 73, 90
15, 92279, Note_on_c, 8, 73, 0
15, 92280, Note_on_c, 8, 71, 90
15, 92339, Note_on_c, 8, 71, 0
15, 92340, Note_on_c, 8, 69, 90
15, 92399, Note_on_c, 8, 69, 0
15, 92400, Note_on_c, 8, 71, 90
15, 92459, Note_on_c, 8, 71, 0
15, 92460, Note_on_c, 8, 69, 90
15, 92489, Note_on_c, 8, 69, 0
15, 92490, Note_on_c, 8, 71, 90
15, 92519, Note_on_c, 8, 71, 0
15, 92520, Note_on_c, 8, 68, 90
15, 92579, Note_on_c, 8, 68, 0
15, 92580, Note_on_c, 8, 76, 90
15, 92639, Note_on_c, 8, 76, 0
15, 92640, Note_on_c, 8, 73, 90
15, 92759, Note_on_c, 8, 73, 0
15, 92820, Note_on_c, 8, 73, 90
15, 92879, Note_on_c, 8, 73, 0
15, 92880, Note_on_c, 8, 69, 90
15, 92999, Note_on_c, 8, 69, 0
15, 93030, Note_on_c, 8, 73, 90
15, 93059, Note_on_c, 8, 73, 0
15, 93060, Note_on_c, 8, 74, 90
15, 93089, Note_on_c, 8, 74, 0
15, 93090, Note_on_c, 8, 76, 90
15, 93119, Note_on_c, 8, 76, 0
15, 93120, Note_on_c, 8, 78, 90
15, 93179, Note_on_c, 8, 78, 0
15, 93180, Note_on_c, 8, 79, 90
15, 93239, Note_on_c, 8, 79, 0
15, 93240, Note_on_c, 8, 78, 90
15, 93299, Note_on_c, 8, 78, 0
15, 93300, Note_on_c, 8, 76, 90
15, 93359, Note_on_c, 8, 76, 0
15, 93360, Note_on_c, 8, 74, 90
15, 93419, Note_on_c, 8, 74, 0
15, 93420, Note_on_c, 8, 74, 90
15, 93449, Note_on_c, 8, 74, 0
15, 93450, Note_on_c, 8, 73, 90
15, 93479, Note_on_c, 8, 73, 0
15, 93480, Note_on_c, 8, 71, 90
15, 93539, Note_on_c, 8, 71, 0
15, 93540, Note_on_c, 8, 74, 90
15, 93569, Note_on_c, 8, 74, 0
15, 93570, Note_on_c, 8, 73, 90
15, 93599, Note_on_c, 8, 73, 0
15, 93600, Note_on_c, 8, 71, 90
15, 93659, Note_on_c, 8, 71, 0
15, 93660, Note_on_c, 8, 71, 90
15, 93689, Note_on_c, 8, 71, 0
15, 93690, Note_on_c, 8, 69, 90
15, 93719, Note_on_c, 8, 69, 0
15, 93720, Note_on_c, 8, 68, 90
15, 93779, Note_on_c, 8, 68, 0
15, 93780, Note_on_c, 8, 71, 90
15, 93809, Note_on_c, 8, 71, 0
15, 93810, Note_on_c, 8, 69, 90
15, 93839, Note_on_c, 8, 69, 0
15, 93840, Note_on_c, 8, 68, 90
15, 93959, Note_on_c, 8, 68, 0
15, 93990, Note_on_c, 8, 71, 90
15, 94019, Note_on_c, 8, 71, 0
15, 94020, Note_on_c, 8, 73, 90
15, 94049, Note_on_c, 8, 73, 0
15, 94050, Note_on_c, 8, 74, 90
15, 94079, Note_on_c, 8, 74, 0
15, 94080, Note_on_c, 8, 76, 90
15, 94139, Note_on_c, 8, 76, 0
15, 94140, Note_on_c, 8, 78, 90
15, 94199, Note_on_c, 8, 78, 0
15, 94200, Note_on_c, 8, 76, 90
15, 94259, Note_on_c, 8, 76, 0
15, 94260, Note_on_c, 8, 74, 90
15, 94319, Note_on_c, 8, 74, 0
15, 94320, Note_on_c, 8, 76, 90
15, 94379, Note_on_c, 8, 76, 0
15, 94380, Note_on_c, 8, 74, 90
15, 94409, Note_on_c, 8, 74, 0
15, 94410, Note_on_c, 8, 76, 90
15, 94439, Note_on_c, 8, 76, 0
15, 94440, Note_on_c, 8, 73, 90
15, 94499, Note_on_c, 8, 73, 0
15, 94500, Note_on_c, 8, 78, 90
15, 94559, Note_on_c, 8, 78, 0
15, 94560, Note_on_c, 8, 76, 90
15, 94619, Note_on_c, 8, 76, 0
15, 94620, Note_on_c, 8, 76, 90
15, 94679, Note_on_c, 8, 76, 0
15, 94680, Note_on_c, 8, 76, 90
15, 94739, Note_on_c, 8, 76, 0
15, 94740, Note_on_c, 8, 76, 90
15, 94799, Note_on_c, 8, 76, 0
15, 94800, Note_on_c, 8, 76, 90
15, 94859, Note_on_c, 8, 76, 0
15, 94860, Note_on_c, 8, 76, 90
15, 94919, Note_on_c, 8, 76, 0
15, 94920, Note_on_c, 8, 76, 90
15, 94979, Note_on_c, 8, 76, 0
15, 94980, Note_on_c, 8, 76, 90
15, 95039, Note_on_c, 8, 76, 0
15, 95040, Note_on_c, 8, 76, 90
15, 95099, Note_on_c, 8, 76, 0
15, 95100, Note_on_c, 8, 74, 90
15, 95129, Note_on_c, 8, 74, 0
15, 95130, Note_on_c, 8, 76, 90
15, 95159, Note_on_c, 8, 76, 0
15, 95160, Note_on_c, 8, 73, 90
15, 95219, Note_on_c, 8, 73, 0
15, 95220, Note_on_c, 8, 81, 90
15, 95279, Note_on_c, 8, 81, 0
15, 95280, Note_on_c, 8, 80, 90
15, 95399, Note_on_c, 8, 80, 0
15, 95460, Note_on_c, 8, 85, 90
15, 95519, Note_on_c, 8, 85, 0
15, 95520, Note_on_c, 8, 81, 90
15, 95579, Note_on_c, 8, 81, 0
15, 95580, Note_on_c, 8, 73, 90
15, 95609, Note_on_c, 8, 73, 0
15, 95610, Note_on_c, 8, 81, 90
15, 95639, Note_on_c, 8, 81, 0
15, 95640, Note_on_c, 8, 85, 90
15, 95669, Note_on_c, 8, 85, 0
15, 95670, Note_on_c, 8, 83, 90
15, 95699, Note_on_c, 8, 83, 0
15, 95700, Note_on_c, 8, 81, 90
15, 95729, Note_on_c, 8, 81, 0
15, 95730, Note_on_c, 8, 80, 90
15, 95759, Note_on_c, 8, 80, 0
15, 95760, Note_on_c, 8, 81, 90
15, 95819, Note_on_c, 8, 81, 0
15, 95820, Note_on_c, 8, 73, 90
15, 95849, Note_on_c, 8, 73, 0
15, 95850, Note_on_c, 8, 81, 90
15, 95879, Note_on_c, 8, 81, 0
15, 95880, Note_on_c, 8, 85, 90
15, 95909, Note_on_c, 8, 85, 0
15, 95910, Note_on_c, 8, 83, 90
15, 95939, Note_on_c, 8, 83, 0
15, 95940, Note_on_c, 8, 81, 90
15, 95969, Note_on_c, 8, 81, 0
15, 95970, Note_on_c, 8, 80, 90
15, 95999, Note_on_c, 8, 80, 0
15, 96000, Note_on_c, 8, 81, 90
15, 96059, Note_on_c, 8, 81, 0
15, 96060, Note_on_c, 8, 71, 90
15, 96089, Note_on_c, 8, 71, 0
15, 96090, Note_on_c, 8, 80, 90
15, 96119, Note_on_c, 8, 80, 0
15, 96120, Note_on_c, 8, 81, 90
15, 96149, Note_on_c, 8, 81, 0
15, 96150, Note_on_c, 8, 80, 90
15, 96179, Note_on_c, 8, 80, 0
15, 96180, Note_on_c, 8, 78, 90
15, 96209, Note_on_c, 8, 78, 0
15, 96210, Note_on_c, 8, 76, 90
15, 96239, Note_on_c, 8, 76, 0
15, 96240, Note_on_c, 8, 78, 90
15, 96299, Note_on_c, 8, 78, 0
15, 96300, Note_on_c, 8, 71, 90
15, 96329, Note_on_c, 8, 71, 0
15, 96330, Note_on_c, 8, 81, 90
15, 96359, Note_on_c, 8, 81, 0
15, 96360, Note_on_c, 8, 83, 90
15, 96389, Note_on_c, 8, 83, 0
15, 96390, Note_on_c, 8, 81, 90
15, 96419, Note_on_c, 8, 81, 0
15, 96420, Note_on_c, 8, 80, 90
15, 96449, Note_on_c, 8, 80, 0
15, 96450, Note_on_c, 8, 78, 90
15, 96479, Note_on_c, 8, 78, 0
15, 96480, Note_on_c, 8, 80, 90
15, 96539, Note_on_c, 8, 80, 0
15, 96540, Note_on_c, 8, 78, 90
15, 96569, Note_on_c, 8, 78, 0
15, 96570, Note_on_c, 8, 76, 90
15, 96599, Note_on_c, 8, 76, 0
15, 96600, Note_on_c, 8, 78, 90
15, 96659, Note_on_c, 8, 78, 0
15, 96660, Note_on_c, 8, 75, 90
15, 96719, Note_on_c, 8, 75, 0
15, 96720, Note_on_c, 8, 76, 90
15, 96749, Note_on_c, 8, 76, 0
15, 96750, Note_on_c, 8, 75, 90
15, 96779, Note_on_c, 8, 75, 0
15, 96780, Note_on_c, 8, 73, 90
15, 96809, Note_on_c, 8, 73, 0
15, 96810, Note_on_c, 8, 71, 90
15, 96839, Note_on_c, 8, 71, 0
15, 96840, Note_on_c, 8, 69, 90
15, 96869, Note_on_c, 8, 69, 0
15, 96870, Note_on_c, 8, 68, 90
15, 96899, Note_on_c, 8, 68, 0
15, 96900, Note_on_c, 8, 66, 90
15, 96929, Note_on_c, 8, 66, 0
15, 96930, Note_on_c, 8, 64, 90
15, 96959, Note_on_c, 8, 64, 0
15, 96960, Note_on_c, 8, 69, 90
15, 97019, Note_on_c, 8, 69, 0
15, 97020, Note_on_c, 8, 64, 90
15, 97049, Note_on_c, 8, 64, 0
15, 97050, Note_on_c, 8, 69, 90
15, 97079, Note_on_c, 8, 69, 0
15, 97080, Note_on_c, 8, 73, 90
15, 97109, Note_on_c, 8, 73, 0
15, 97110, Note_on_c, 8, 71, 90
15, 97139, Note_on_c, 8, 71, 0
15, 97140, Note_on_c, 8, 69, 90
15, 97169, Note_on_c, 8, 69, 0
15, 97170, Note_on_c, 8, 68, 90
15, 97199, Note_on_c, 8, 68, 0
15, 97200, Note_on_c, 8, 69, 90
15, 97259, Note_on_c, 8, 69, 0
15, 97260, Note_on_c, 8, 64, 90
15, 97289, Note_on_c, 8, 64, 0
15, 97290, Note_on_c, 8, 69, 90
15, 97319, Note_on_c, 8, 69, 0
15, 97320, Note_on_c, 8, 73, 90
15, 97349, Note_on_c, 8, 73, 0
15, 97350, Note_on_c, 8, 71, 90
15, 97379, Note_on_c, 8, 71, 0
15, 97380, Note_on_c, 8, 69, 90
15, 97409, Note_on_c, 8, 69, 0
15, 97410, Note_on_c, 8, 68, 90
15, 97439, Note_on_c, 8, 68, 0
15, 97440, Note_on_c, 8, 69, 90
15, 97499, Note_on_c, 8, 69, 0
15, 97500, Note_on_c, 8, 59, 90
15, 97529, Note_on_c, 8, 59, 0
15, 97530, Note_on_c, 8, 68, 90
15, 97559, Note_on_c, 8, 68, 0
15, 97560, Note_on_c, 8, 69, 90
15, 97589, Note_on_c, 8, 69, 0
15, 97590, Note_on_c, 8, 68, 90
15, 97619, Note_on_c, 8, 68, 0
15, 97620, Note_on_c, 8, 66, 90
15, 97649, Note_on_c, 8, 66, 0
15, 97650, Note_on_c, 8, 64, 90
15, 97679, Note_on_c, 8, 64, 0
15, 97680, Note_on_c, 8, 66, 90
15, 97739, Note_on_c, 8, 66, 0
15, 97740, Note_on_c, 8, 59, 90
15, 97769, Note_on_c, 8, 59, 0
15, 97770, Note_on_c, 8, 69, 90
15, 97799, Note_on_c, 8, 69, 0
15, 97800, Note_on_c, 8, 71, 90
15, 97829, Note_on_c, 8, 71, 0
15, 97830, Note_on_c, 8, 69, 90
15, 97859, Note_on_c, 8, 69, 0
15, 97860, Note_on_c, 8, 68, 90
15, 97889, Note_on_c, 8, 68, 0
15, 97890, Note_on_c, 8, 66, 90
15, 97919, Note_on_c, 8, 66, 0
15, 97920, Note_on_c, 8, 69, 90
15, 97949, Note_on_c, 8, 69, 0
15, 97950, Note_on_c, 8, 68, 90
15, 97979, Note_on_c, 8, 68, 0
15, 97980, Note_on_c, 8, 66, 90
15, 98009, Note_on_c, 8, 66, 0
15, 98010, Note_on_c, 8, 64, 90
15, 98039, Note_on_c, 8, 64, 0
15, 98040, Note_on_c, 8, 66, 90
15, 98099, Note_on_c, 8, 66, 0
15, 98100, Note_on_c, 8, 63, 90
15, 98159, Note_on_c, 8, 63, 0
15, 98160, Note_on_c, 8, 64, 90
15, 98219, Note_on_c, 8, 64, 0
15, 98220, Note_on_c, 8, 68, 90
15, 98249, Note_on_c, 8, 68, 0
15, 98250, Note_on_c, 8, 69, 90
15, 98279, Note_on_c, 8, 69, 0
15, 98280, Note_on_c, 8, 71, 90
15, 98339, Note_on_c, 8, 71, 0
15, 98340, Note_on_c, 8, 73, 90
15, 98369, Note_on_c, 8, 73, 0
15, 98370, Note_on_c, 8, 75, 90
15, 98399, Note_on_c, 8, 75, 0
15, 98400, Note_on_c, 8, 76, 90
15, 98459, Note_on_c, 8, 76, 0
15, 98460, Note_on_c, 8, 83, 90
15, 98519, Note_on_c, 8, 83, 0
15, 98520, Note_on_c, 8, 71, 90
15, 98579, Note_on_c, 8, 71, 0
15, 98580, Note_on_c, 8, 75, 90
15, 98639, Note_on_c, 8, 75, 0
15, 98640, Note_on_c, 8, 76, 90
15, 98759, Note_on_c, 8, 76, 0
15, 98910, Note_on_c, 8, 71, 90
15, 98939, Note_on_c, 8, 71, 0
15, 98940, Note_on_c, 8, 76, 90
15, 98969, Note_on_c, 8, 76, 0
15, 98970, Note_on_c, 8, 78, 90
15, 98999, Note_on_c, 8, 78, 0
15, 99000, Note_on_c, 8, 80, 90
15, 99029, Note_on_c, 8, 80, 0
15, 99030, Note_on_c, 8, 76, 90
15, 99059, Note_on_c, 8, 76, 0
15, 99060, Note_on_c, 8, 71, 90
15, 99089, Note_on_c, 8, 71, 0
15, 99090, Note_on_c, 8, 76, 90
15, 99119, Note_on_c, 8, 76, 0
15, 99120, Note_on_c, 8, 80, 90
15, 99179, Note_on_c, 8, 80, 0
15, 99390, Note_on_c, 8, 73, 90
15, 99419, Note_on_c, 8, 73, 0
15, 99420, Note_on_c, 8, 78, 90
15, 99449, Note_on_c, 8, 78, 0
15, 99450, Note_on_c, 8, 80, 90
15, 99479, Note_on_c, 8, 80, 0
15, 99480, Note_on_c, 8, 81, 90
15, 99509, Note_on_c, 8, 81, 0
15, 99510, Note_on_c, 8, 78, 90
15, 99539, Note_on_c, 8, 78, 0
15, 99540, Note_on_c, 8, 73, 90
15, 99569, Note_on_c, 8, 73, 0
15, 99570, Note_on_c, 8, 78, 90
15, 99599, Note_on_c, 8, 78, 0
15, 99600, Note_on_c, 8, 79, 90
15, 99629, Note_on_c, 8, 79, 0
15, 99630, Note_on_c, 8, 69, 90
15, 99659, Note_on_c, 8, 69, 0
15, 99660, Note_on_c, 8, 76, 90
15, 99689, Note_on_c, 8, 76, 0
15, 99690, Note_on_c, 8, 78, 90
15, 99719, Note_on_c, 8, 78, 0
15, 99720, Note_on_c, 8, 79, 90
15, 99749, Note_on_c, 8, 79, 0
15, 99750, Note_on_c, 8, 76, 90
15, 99779, Note_on_c, 8, 76, 0
15, 99780, Note_on_c, 8, 69, 90
15, 99809, Note_on_c, 8, 69, 0
15, 99810, Note_on_c, 8, 76, 90
15, 99839, Note_on_c, 8, 76, 0
15, 99840, Note_on_c, 8, 78, 90
15, 99869, Note_on_c, 8, 78, 0
15, 99870, Note_on_c, 8, 69, 90
15, 99899, Note_on_c, 8, 69, 0
15, 99900, Note_on_c, 8, 74, 90
15, 99929, Note_on_c, 8, 74, 0
15, 99930, Note_on_c, 8, 76, 90
15, 99959, Note_on_c, 8, 76, 0
15, 99960, Note_on_c, 8, 78, 90
15, 99989, Note_on_c, 8, 78, 0
15, 99990, Note_on_c, 8, 74, 90
15, 100019, Note_on_c, 8, 74, 0
15, 100020, Note_on_c, 8, 69, 90
15, 100049, Note_on_c, 8, 69, 0
15, 100050, Note_on_c, 8, 74, 90
15, 100079, Note_on_c, 8, 74, 0
15, 100080, Note_on_c, 8, 78, 90
15, 100109, Note_on_c, 8, 78, 0
15, 100110, Note_on_c, 8, 73, 90
15, 100139, Note_on_c, 8, 73, 0
15, 100140, Note_on_c, 8, 70, 90
15, 100169, Note_on_c, 8, 70, 0
15, 100170, Note_on_c, 8, 73, 90
15, 100199, Note_on_c, 8, 73, 0
15, 100200, Note_on_c, 8, 78, 90
15, 100229, Note_on_c, 8, 78, 0
15, 100230, Note_on_c, 8, 73, 90
15, 100259, Note_on_c, 8, 73, 0
15, 100260, Note_on_c, 8, 70, 90
15, 100289, Note_on_c, 8, 70, 0
15, 100290, Note_on_c, 8, 73, 90
15, 100319, Note_on_c, 8, 73, 0
15, 100320, Note_on_c, 8, 66, 90
15, 100379, Note_on_c, 8, 66, 0
15, 100740, Note_on_c, 8, 73, 90
15, 100799, Note_on_c, 8, 73, 0
15, 100800, Note_on_c, 8, 78, 90
15, 100875, Note_on_c, 8, 78, 0
15, 100875, Note_on_c, 8, 73, 90
15, 100889, Note_on_c, 8, 73, 0
15, 100890, Note_on_c, 8, 71, 90
15, 100904, Note_on_c, 8, 71, 0
15, 100905, Note_on_c, 8, 73, 90
15, 100919, Note_on_c, 8, 73, 0
15, 100920, Note_on_c, 8, 78, 90
15, 100995, Note_on_c, 8, 78, 0
15, 100995, Note_on_c, 8, 73, 90
15, 101009, Note_on_c, 8, 73, 0
15, 101010, Note_on_c, 8, 71, 90
15, 101024, Note_on_c, 8, 71, 0
15, 101025, Note_on_c, 8, 73, 90
15, 101039, Note_on_c, 8, 73, 0
15, 101041, Note_on_c, 8, 78, 90
15, 101116, Note_on_c, 8, 78, 0
15, 101116, Note_on_c, 8, 73, 90
15, 101130, Note_on_c, 8, 73, 0
15, 101131, Note_on_c, 8, 71, 90
15, 101145, Note_on_c, 8, 71, 0
15, 101146, Note_on_c, 8, 73, 90
15, 101160, Note_on_c, 8, 73, 0
15, 101162, Note_on_c, 8, 78, 90
15, 101237, Note_on_c, 8, 78, 0
15, 101237, Note_on_c, 8, 73, 90
15, 101251, Note_on_c, 8, 73, 0
15, 101252, Note_on_c, 8, 71, 90
15, 101266, Note_on_c, 8, 71, 0
15, 101267, Note_on_c, 8, 73, 90
15, 101281, Note_on_c, 8, 73, 0
15, 101283, Note_on_c, 8, 78, 90
15, 101358, Note_on_c, 8, 78, 0
15, 101358, Note_on_c, 8, 73, 90
15, 101372, Note_on_c, 8, 73, 0
15, 101373, Note_on_c, 8, 71, 90
15, 101387, Note_on_c, 8, 71, 0
15, 101388, Note_on_c, 8, 73, 90
15, 101402, Note_on_c, 8, 73, 0
15, 101404, Note_on_c, 8, 78, 90
15, 101479, Note_on_c, 8, 78, 0
15, 101479, Note_on_c, 8, 73, 90
15, 101493, Note_on_c, 8, 73, 0
15, 101494, Note_on_c, 8, 71, 90
15, 101508, Note_on_c, 8, 71, 0
15, 101509, Note_on_c, 8, 73, 90
15, 101520, Note_on_c, 8, 80, 90
15, 101523, Note_on_c, 8, 73, 0
15, 101595, Note_on_c, 8, 80, 0
15, 101600, Note_on_c, 8, 73, 90
15, 101614, Note_on_c, 8, 73, 0
15, 101615, Note_on_c, 8, 71, 90
15, 101629, Note_on_c, 8, 71, 0
15, 101630, Note_on_c, 8, 73, 90
15, 101640, Note_on_c, 8, 80, 90
15, 101644, Note_on_c, 8, 73, 0
15, 101715, Note_on_c, 8, 80, 0
15, 101721, Note_on_c, 8, 73, 90
15, 101735, Note_on_c, 8, 73, 0
15, 101736, Note_on_c, 8, 71, 90
15, 101750, Note_on_c, 8, 71, 0
15, 101751, Note_on_c, 8, 73, 90
15, 101760, Note_on_c, 8, 81, 90
15, 101765, Note_on_c, 8, 73, 0
15, 101835, Note_on_c, 8, 81, 0
15, 101842, Note_on_c, 8, 73, 90
15, 101856, Note_on_c, 8, 73, 0
15, 101857, Note_on_c, 8, 71, 90
15, 101871, Note_on_c, 8, 71, 0
15, 101872, Note_on_c, 8, 73, 90
15, 101880, Note_on_c, 8, 81, 90
15, 101886, Note_on_c, 8, 73, 0
15, 101955, Note_on_c, 8, 81, 0
15, 101955, Note_on_c, 8, 73, 90
15, 101969, Note_on_c, 8, 73, 0
15, 101970, Note_on_c, 8, 71, 90
15, 101984, Note_on_c, 8, 71, 0
15, 101985, Note_on_c, 8, 73, 90
15, 101999, Note_on_c, 8, 73, 0
15, 102000, Note_on_c, 8, 81, 90
15, 102014, Note_on_c, 8, 81, 0
15, 102015, Note_on_c, 8, 71, 90
15, 102029, Note_on_c, 8, 71, 0
15, 102030, Note_on_c, 8, 73, 90
15, 102044, Note_on_c, 8, 73, 0
15, 102045, Note_on_c, 8, 74, 90
15, 102059, Note_on_c, 8, 74, 0
15, 102060, Note_on_c, 8, 76, 90
15, 102074, Note_on_c, 8, 76, 0
15, 102075, Note_on_c, 8, 78, 90
15, 102089, Note_on_c, 8, 78, 0
15, 102090, Note_on_c, 8, 80, 90
15, 102104, Note_on_c, 8, 80, 0
15, 102105, Note_on_c, 8, 81, 90
15, 102119, Note_on_c, 8, 81, 0
15, 102120, Note_on_c, 8, 83, 90
15, 102134, Note_on_c, 8, 83, 0
15, 102135, Note_on_c, 8, 80, 90
15, 102149, Note_on_c, 8, 80, 0
15, 102150, Note_on_c, 8, 78, 90
15, 102164, Note_on_c, 8, 78, 0
15, 102165, Note_on_c, 8, 80, 90
15, 102179, Note_on_c, 8, 80, 0
15, 102180, Note_on_c, 8, 81, 90
15, 102194, Note_on_c, 8, 81, 0
15, 102195, Note_on_c, 8, 78, 90
15, 102209, Note_on_c, 8, 78, 0
15, 102210, Note_on_c, 8, 76, 90
15, 102224, Note_on_c, 8, 76, 0
15, 102225, Note_on_c, 8, 78, 90
15, 102239, Note_on_c, 8, 78, 0
15, 102240, Note_on_c, 8, 80, 90
15, 102315, Note_on_c, 8, 80, 0
15, 102315, Note_on_c, 8, 71, 90
15, 102329, Note_on_c, 8, 71, 0
15, 102330, Note_on_c, 8, 69, 90
15, 102344, Note_on_c, 8, 69, 0
15, 102345, Note_on_c, 8, 71, 90
15, 102359, Note_on_c, 8, 71, 0
15, 102360, Note_on_c, 8, 80, 90
15, 102435, Note_on_c, 8, 80, 0
15, 102435, Note_on_c, 8, 71, 90
15, 102449, Note_on_c, 8, 71, 0
15, 102450, Note_on_c, 8, 69, 90
15, 102464, Note_on_c, 8, 69, 0
15, 102465, Note_on_c, 8, 71, 90
15, 102479, Note_on_c, 8, 71, 0
15, 102480, Note_on_c, 8, 80, 90
15, 102494, Note_on_c, 8, 80, 0
15, 102495, Note_on_c, 8, 69, 90
15, 102509, Note_on_c, 8, 69, 0
15, 102510, Note_on_c, 8, 71, 90
15, 102524, Note_on_c, 8, 71, 0
15, 102525, Note_on_c, 8, 73, 90
15, 102539, Note_on_c, 8, 73, 0
15, 102540, Note_on_c, 8, 74, 90
15, 102554, Note_on_c, 8, 74, 0
15, 102555, Note_on_c, 8, 76, 90
15, 102569, Note_on_c, 8, 76, 0
15, 102570, Note_on_c, 8, 78, 90
15, 102584, Note_on_c, 8, 78, 0
15, 102585, Note_on_c, 8, 80, 90
15, 102599, Note_on_c, 8, 80, 0
15, 102600, Note_on_c, 8, 81, 90
15, 102614, Note_on_c, 8, 81, 0
15, 102615, Note_on_c, 8, 78, 90
15, 102629, Note_on_c, 8, 78, 0
15, 102630, Note_on_c, 8, 76, 90
15, 102644, Note_on_c, 8, 76, 0
15, 102645, Note_on_c, 8, 78, 90
15, 102659, Note_on_c, 8, 78, 0
15, 102660, Note_on_c, 8, 80, 90
15, 102674, Note_on_c, 8, 80, 0
15, 102675, Note_on_c, 8, 76, 90
15, 102689, Note_on_c, 8, 76, 0
15, 102690, Note_on_c, 8, 74, 90
15, 102704, Note_on_c, 8, 74, 0
15, 102705, Note_on_c, 8, 76, 90
15, 102719, Note_on_c, 8, 76, 0
15, 102720, Note_on_c, 8, 78, 90
15, 102795, Note_on_c, 8, 78, 0
15, 102795, Note_on_c, 8, 69, 90
15, 102809, Note_on_c, 8, 69, 0
15, 102810, Note_on_c, 8, 68, 90
15, 102824, Note_on_c, 8, 68, 0
15, 102825, Note_on_c, 8, 69, 90
15, 102839, Note_on_c, 8, 69, 0
15, 102841, Note_on_c, 8, 78, 90
15, 102915, Note_on_c, 8, 69, 90
15, 102916, Note_on_c, 8, 78, 0
15, 102929, Note_on_c, 8, 69, 0
15, 102930, Note_on_c, 8, 68, 90
15, 102944, Note_on_c, 8, 68, 0
15, 102945, Note_on_c, 8, 69, 90
15, 102959, Note_on_c, 8, 69, 0
15, 102960, Note_on_c, 8, 78, 90
15, 102974, Note_on_c, 8, 78, 0
15, 102975, Note_on_c, 8, 68, 90
15, 102989, Note_on_c, 8, 68, 0
15, 102990, Note_on_c, 8, 69, 90
15, 103004, Note_on_c, 8, 69, 0
15, 103005, Note_on_c, 8, 71, 90
15, 103019, Note_on_c, 8, 71, 0
15, 103020, Note_on_c, 8, 73, 90
15, 103034, Note_on_c, 8, 73, 0
15, 103035, Note_on_c, 8, 74, 90
15, 103049, Note_on_c, 8, 74, 0
15, 103050, Note_on_c, 8, 76, 90
15, 103064, Note_on_c, 8, 76, 0
15, 103065, Note_on_c, 8, 78, 90
15, 103079, Note_on_c, 8, 78, 0
15, 103080, Note_on_c, 8, 80, 90
15, 103094, Note_on_c, 8, 80, 0
15, 103095, Note_on_c, 8, 71, 90
15, 103109, Note_on_c, 8, 71, 0
15, 103110, Note_on_c, 8, 69, 90
15, 103124, Note_on_c, 8, 69, 0
15, 103125, Note_on_c, 8, 71, 90
15, 103139, Note_on_c, 8, 71, 0
15, 103140, Note_on_c, 8, 78, 90
15, 103154, Note_on_c, 8, 78, 0
15, 103155, Note_on_c, 8, 71, 90
15, 103169, Note_on_c, 8, 71, 0
15, 103170, Note_on_c, 8, 69, 90
15, 103184, Note_on_c, 8, 69, 0
15, 103185, Note_on_c, 8, 71, 90
15, 103199, Note_on_c, 8, 71, 0
15, 103200, Note_on_c, 8, 77, 90
15, 103259, Note_on_c, 8, 77, 0
15, 103260, Note_on_c, 8, 73, 90
15, 103319, Note_on_c, 8, 73, 0
15, 103620, Note_on_c, 8, 73, 90
15, 103649, Note_on_c, 8, 73, 0
15, 103650, Note_on_c, 8, 75, 90
15, 103679, Note_on_c, 8, 75, 0
15, 103680, Note_on_c, 8, 77, 90
15, 103739, Note_on_c, 8, 77, 0
15, 103740, Note_on_c, 8, 78, 90
15, 103799, Note_on_c, 8, 78, 0
15, 103800, Note_on_c, 8, 77, 90
15, 103859, Note_on_c, 8, 77, 0
15, 103860, Note_on_c, 8, 75, 90
15, 103919, Note_on_c, 8, 75, 0
15, 103920, Note_on_c, 8, 77, 90
15, 103979, Note_on_c, 8, 77, 0
15, 103980, Note_on_c, 8, 75, 90
15, 104009, Note_on_c, 8, 75, 0
15, 104010, Note_on_c, 8, 77, 90
15, 104039, Note_on_c, 8, 77, 0
15, 104040, Note_on_c, 8, 73, 90
15, 104099, Note_on_c, 8, 73, 0
15, 104100, Note_on_c, 8, 85, 90
15, 104159, Note_on_c, 8, 85, 0
15, 104160, Note_on_c, 8, 78, 90
15, 104219, Note_on_c, 8, 78, 0
15, 104220, Note_on_c, 8, 81, 90
15, 104249, Note_on_c, 8, 81, 0
15, 104250, Note_on_c, 8, 80, 90
15, 104279, Note_on_c, 8, 80, 0
15, 104280, Note_on_c, 8, 78, 90
15, 104339, Note_on_c, 8, 78, 0
15, 104340, Note_on_c, 8, 78, 90
15, 104399, Note_on_c, 8, 78, 0
15, 104400, Note_on_c, 8, 78, 90
15, 104459, Note_on_c, 8, 78, 0
15, 104460, Note_on_c, 8, 75, 90
15, 104489, Note_on_c, 8, 75, 0
15, 104490, Note_on_c, 8, 77, 90
15, 104519, Note_on_c, 8, 77, 0
15, 104520, Note_on_c, 8, 78, 90
15, 104579, Note_on_c, 8, 78, 0
15, 104580, Note_on_c, 8, 78, 90
15, 104639, Note_on_c, 8, 78, 0
15, 104640, Note_on_c, 8, 80, 90
15, 104699, Note_on_c, 8, 80, 0
15, 104700, Note_on_c, 8, 77, 90
15, 104729, Note_on_c, 8, 77, 0
15, 104730, Note_on_c, 8, 78, 90
15, 104759, Note_on_c, 8, 78, 0
15, 104760, Note_on_c, 8, 80, 90
15, 104819, Note_on_c, 8, 80, 0
15, 104820, Note_on_c, 8, 80, 90
15, 104879, Note_on_c, 8, 80, 0
15, 104880, Note_on_c, 8, 80, 90
15, 104939, Note_on_c, 8, 80, 0
15, 104940, Note_on_c, 8, 83, 90
15, 104969, Note_on_c, 8, 83, 0
15, 104970, Note_on_c, 8, 81, 90
15, 104999, Note_on_c, 8, 81, 0
15, 105000, Note_on_c, 8, 80, 90
15, 105059, Note_on_c, 8, 80, 0
15, 105060, Note_on_c, 8, 80, 90
15, 105119, Note_on_c, 8, 80, 0
15, 105120, Note_on_c, 8, 80, 90
15, 105149, Note_on_c, 8, 80, 0
15, 105150, Note_on_c, 8, 78, 90
15, 105179, Note_on_c, 8, 78, 0
15, 105180, Note_on_c, 8, 77, 90
15, 105209, Note_on_c, 8, 77, 0
15, 105210, Note_on_c, 8, 78, 90
15, 105239, Note_on_c, 8, 78, 0
15, 105240, Note_on_c, 8, 83, 90
15, 105299, Note_on_c, 8, 83, 0
15, 105300, Note_on_c, 8, 80, 90
15, 105359, Note_on_c, 8, 80, 0
15, 105360, Note_on_c, 8, 78, 90
15, 105419, Note_on_c, 8, 78, 0
15, 105420, Note_on_c, 8, 69, 90
15, 105449, Note_on_c, 8, 69, 0
15, 105450, Note_on_c, 8, 71, 90
15, 105479, Note_on_c, 8, 71, 0
15, 105480, Note_on_c, 8, 73, 90
15, 105539, Note_on_c, 8, 73, 0
15, 105540, Note_on_c, 8, 75, 90
15, 105569, Note_on_c, 8, 75, 0
15, 105570, Note_on_c, 8, 77, 90
15, 105599, Note_on_c, 8, 77, 0
15, 105600, Note_on_c, 8, 78, 90
15, 105659, Note_on_c, 8, 78, 0
15, 106020, Note_on_c, 8, 73, 90
15, 106079, Note_on_c, 8, 73, 0
15, 106080, Note_on_c, 8, 73, 90
15, 106139, Note_on_c, 8, 73, 0
15, 106140, Note_on_c, 8, 73, 90
15, 106199, Note_on_c, 8, 73, 0
15, 106200, Note_on_c, 8, 73, 90
15, 106259, Note_on_c, 8, 73, 0
15, 106260, Note_on_c, 8, 73, 90
15, 106319, Note_on_c, 8, 73, 0
15, 106320, Note_on_c, 8, 73, 90
15, 106379, Note_on_c, 8, 73, 0
15, 106380, Note_on_c, 8, 69, 90
15, 106409, Note_on_c, 8, 69, 0
15, 106410, Note_on_c, 8, 73, 90
15, 106439, Note_on_c, 8, 73, 0
15, 106440, Note_on_c, 8, 78, 90
15, 106469, Note_on_c, 8, 78, 0
15, 106470, Note_on_c, 8, 76, 90
15, 106499, Note_on_c, 8, 76, 0
15, 106500, Note_on_c, 8, 74, 90
15, 106529, Note_on_c, 8, 74, 0
15, 106530, Note_on_c, 8, 73, 90
15, 106559, Note_on_c, 8, 73, 0
15, 106560, Note_on_c, 8, 73, 90
15, 106619, Note_on_c, 8, 73, 0
15, 106620, Note_on_c, 8, 73, 90
15, 106679, Note_on_c, 8, 73, 0
15, 106680, Note_on_c, 8, 73, 90
15, 106739, Note_on_c, 8, 73, 0
15, 106740, Note_on_c, 8, 73, 90
15, 106799, Note_on_c, 8, 73, 0
15, 106800, Note_on_c, 8, 73, 90
15, 106859, Note_on_c, 8, 73, 0
15, 106860, Note_on_c, 8, 68, 90
15, 106889, Note_on_c, 8, 68, 0
15, 106890, Note_on_c, 8, 73, 90
15, 106919, Note_on_c, 8, 73, 0
15, 106920, Note_on_c, 8, 80, 90
15, 106949, Note_on_c, 8, 80, 0
15, 106950, Note_on_c, 8, 78, 90
15, 106979, Note_on_c, 8, 78, 0
15, 106980, Note_on_c, 8, 77, 90
15, 107009, Note_on_c, 8, 77, 0
15, 107010, Note_on_c, 8, 75, 90
15, 107039, Note_on_c, 8, 75, 0
15, 107040, Note_on_c, 8, 73, 90
15, 107099, Note_on_c, 8, 73, 0
15, 107100, Note_on_c, 8, 75, 90
15, 107129, Note_on_c, 8, 75, 0
15, 107130, Note_on_c, 8, 77, 90
15, 107159, Note_on_c, 8, 77, 0
15, 107160, Note_on_c, 8, 78, 90
15, 107189, Note_on_c, 8, 78, 0
15, 107190, Note_on_c, 8, 80, 90
15, 107219, Note_on_c, 8, 80, 0
15, 107220, Note_on_c, 8, 81, 90
15, 107249, Note_on_c, 8, 81, 0
15, 107250, Note_on_c, 8, 78, 90
15, 107279, Note_on_c, 8, 78, 0
15, 107280, Note_on_c, 8, 71, 90
15, 107339, Note_on_c, 8, 71, 0
15, 107340, Note_on_c, 8, 73, 90
15, 107369, Note_on_c, 8, 73, 0
15, 107370, Note_on_c, 8, 75, 90
15, 107399, Note_on_c, 8, 75, 0
15, 107400, Note_on_c, 8, 77, 90
15, 107429, Note_on_c, 8, 77, 0
15, 107430, Note_on_c, 8, 78, 90
15, 107459, Note_on_c, 8, 78, 0
15, 107460, Note_on_c, 8, 80, 90
15, 107489, Note_on_c, 8, 80, 0
15, 107490, Note_on_c, 8, 77, 90
15, 107519, Note_on_c, 8, 77, 0
15, 107520, Note_on_c, 8, 78, 90
15, 107579, Note_on_c, 8, 78, 0
15, 107580, Note_on_c, 8, 73, 90
15, 107639, Note_on_c, 8, 73, 0
15, 107640, Note_on_c, 8, 69, 90
15, 107699, Note_on_c, 8, 69, 0
15, 107700, Note_on_c, 8, 68, 90
15, 107729, Note_on_c, 8, 68, 0
15, 107730, Note_on_c, 8, 66, 90
15, 107759, Note_on_c, 8, 66, 0
15, 107760, Note_on_c, 8, 66, 90
15, 107789, Note_on_c, 8, 66, 0
15, 107790, Note_on_c, 8, 65, 90
15, 107819, Note_on_c, 8, 65, 0
15, 107820, Note_on_c, 8, 66, 90
15, 107849, Note_on_c, 8, 66, 0
15, 107850, Note_on_c, 8, 68, 90
15, 107879, Note_on_c, 8, 68, 0
15, 107880, Note_on_c, 8, 69, 90
15, 107909, Note_on_c, 8, 69, 0
15, 107910, Note_on_c, 8, 71, 90
15, 107939, Note_on_c, 8, 71, 0
15, 107940, Note_on_c, 8, 73, 90
15, 107969, Note_on_c, 8, 73, 0
15, 107970, Note_on_c, 8, 74, 90
15, 107999, Note_on_c, 8, 74, 0
15, 108000, Note_on_c, 8, 76, 90
15, 108059, Note_on_c, 8, 76, 0
15, 108060, Note_on_c, 8, 78, 90
15, 108119, Note_on_c, 8, 78, 0
15, 108120, Note_on_c, 8, 76, 90
15, 108179, Note_on_c, 8, 76, 0
15, 108180, Note_on_c, 8, 74, 90
15, 108239, Note_on_c, 8, 74, 0
15, 108240, Note_on_c, 8, 73, 90
15, 108299, Note_on_c, 8, 73, 0
15, 108300, Note_on_c, 8, 71, 90
15, 108329, Note_on_c, 8, 71, 0
15, 108330, Note_on_c, 8, 73, 90
15, 108359, Note_on_c, 8, 73, 0
15, 108360, Note_on_c, 8, 69, 90
15, 108419, Note_on_c, 8, 69, 0
15, 108420, Note_on_c, 8, 71, 90
15, 108479, Note_on_c, 8, 71, 0
15, 108480, Note_on_c, 8, 73, 90
15, 108539, Note_on_c, 8, 73, 0
15, 108540, Note_on_c, 8, 71, 90
15, 108569, Note_on_c, 8, 71, 0
15, 108570, Note_on_c, 8, 73, 90
15, 108599, Note_on_c, 8, 73, 0
15, 108600, Note_on_c, 8, 69, 90
15, 108659, Note_on_c, 8, 69, 0
15, 108660, Note_on_c, 8, 73, 90
15, 108719, Note_on_c, 8, 73, 0
15, 108720, Note_on_c, 8, 74, 90
15, 108779, Note_on_c, 8, 74, 0
15, 108780, Note_on_c, 8, 73, 90
15, 108809, Note_on_c, 8, 73, 0
15, 108810, Note_on_c, 8, 74, 90
15, 108839, Note_on_c, 8, 74, 0
15, 108840, Note_on_c, 8, 71, 90
15, 108899, Note_on_c, 8, 71, 0
15, 108900, Note_on_c, 8, 74, 90
15, 108959, Note_on_c, 8, 74, 0
15, 108960, Note_on_c, 8, 76, 90
15, 109019, Note_on_c, 8, 76, 0
15, 109020, Note_on_c, 8, 74, 90
15, 109049, Note_on_c, 8, 74, 0
15, 109050, Note_on_c, 8, 76, 90
15, 109079, Note_on_c, 8, 76, 0
15, 109080, Note_on_c, 8, 73, 90
15, 109139, Note_on_c, 8, 73, 0
15, 109140, Note_on_c, 8, 76, 90
15, 109199, Note_on_c, 8, 76, 0
15, 109200, Note_on_c, 8, 71, 90
15, 109259, Note_on_c, 8, 71, 0
15, 109260, Note_on_c, 8, 71, 90
15, 109319, Note_on_c, 8, 71, 0
15, 109320, Note_on_c, 8, 71, 90
15, 109379, Note_on_c, 8, 71, 0
15, 109380, Note_on_c, 8, 71, 90
15, 109439, Note_on_c, 8, 71, 0
15, 109440, Note_on_c, 8, 71, 90
15, 109499, Note_on_c, 8, 71, 0
15, 109500, Note_on_c, 8, 73, 90
15, 109529, Note_on_c, 8, 73, 0
15, 109530, Note_on_c, 8, 75, 90
15, 109559, Note_on_c, 8, 75, 0
15, 109560, Note_on_c, 8, 76, 90
15, 109589, Note_on_c, 8, 76, 0
15, 109590, Note_on_c, 8, 78, 90
15, 109619, Note_on_c, 8, 78, 0
15, 109620, Note_on_c, 8, 80, 90
15, 109649, Note_on_c, 8, 80, 0
15, 109650, Note_on_c, 8, 76, 90
15, 109679, Note_on_c, 8, 76, 0
15, 109680, Note_on_c, 8, 69, 90
15, 109739, Note_on_c, 8, 69, 0
15, 109740, Note_on_c, 8, 71, 90
15, 109769, Note_on_c, 8, 71, 0
15, 109770, Note_on_c, 8, 73, 90
15, 109799, Note_on_c, 8, 73, 0
15, 109800, Note_on_c, 8, 75, 90
15, 109829, Note_on_c, 8, 75, 0
15, 109830, Note_on_c, 8, 76, 90
15, 109859, Note_on_c, 8, 76, 0
15, 109860, Note_on_c, 8, 78, 90
15, 109889, Note_on_c, 8, 78, 0
15, 109890, Note_on_c, 8, 75, 90
15, 109919, Note_on_c, 8, 75, 0
15, 109920, Note_on_c, 8, 76, 90
15, 109979, Note_on_c, 8, 76, 0
15, 109980, Note_on_c, 8, 71, 90
15, 110039, Note_on_c, 8, 71, 0
15, 110040, Note_on_c, 8, 68, 90
15, 110099, Note_on_c, 8, 68, 0
15, 110100, Note_on_c, 8, 66, 90
15, 110129, Note_on_c, 8, 66, 0
15, 110130, Note_on_c, 8, 64, 90
15, 110159, Note_on_c, 8, 64, 0
15, 110160, Note_on_c, 8, 64, 90
15, 110760, Note_on_c, 8, 64, 0
15, 110910, Note_on_c, 8, 66, 90
15, 110939, Note_on_c, 8, 66, 0
15, 110940, Note_on_c, 8, 71, 90
15, 110969, Note_on_c, 8, 71, 0
15, 110970, Note_on_c, 8, 74, 90
15, 110999, Note_on_c, 8, 74, 0
15, 111000, Note_on_c, 8, 78, 90
15, 111029, Note_on_c, 8, 78, 0
15, 111030, Note_on_c, 8, 74, 90
15, 111059, Note_on_c, 8, 74, 0
15, 111060, Note_on_c, 8, 71, 90
15, 111089, Note_on_c, 8, 71, 0
15, 111090, Note_on_c, 8, 80, 90
15, 111119, Note_on_c, 8, 80, 0
15, 111120, Note_on_c, 8, 81, 90
15, 111149, Note_on_c, 8, 81, 0
15, 111150, Note_on_c, 8, 69, 90
15, 111179, Note_on_c, 8, 69, 0
15, 111180, Note_on_c, 8, 74, 90
15, 111209, Note_on_c, 8, 74, 0
15, 111210, Note_on_c, 8, 78, 90
15, 111239, Note_on_c, 8, 78, 0
15, 111240, Note_on_c, 8, 81, 90
15, 111269, Note_on_c, 8, 81, 0
15, 111270, Note_on_c, 8, 78, 90
15, 111299, Note_on_c, 8, 78, 0
15, 111300, Note_on_c, 8, 74, 90
15, 111329, Note_on_c, 8, 74, 0
15, 111330, Note_on_c, 8, 81, 90
15, 111359, Note_on_c, 8, 81, 0
15, 111360, Note_on_c, 8, 83, 90
15, 111389, Note_on_c, 8, 83, 0
15, 111390, Note_on_c, 8, 71, 90
15, 111419, Note_on_c, 8, 71, 0
15, 111420, Note_on_c, 8, 76, 90
15, 111449, Note_on_c, 8, 76, 0
15, 111450, Note_on_c, 8, 80, 90
15, 111479, Note_on_c, 8, 80, 0
15, 111480, Note_on_c, 8, 83, 90
15, 111509, Note_on_c, 8, 83, 0
15, 111510, Note_on_c, 8, 80, 90
15, 111539, Note_on_c, 8, 80, 0
15, 111540, Note_on_c, 8, 76, 90
15, 111569, Note_on_c, 8, 76, 0
15, 111570, Note_on_c, 8, 80, 90
15, 111599, Note_on_c, 8, 80, 0
15, 111600, Note_on_c, 8, 69, 90
15, 111629, Note_on_c, 8, 69, 0
15, 111630, Note_on_c, 8, 73, 90
15, 111659, Note_on_c, 8, 73, 0
15, 111660, Note_on_c, 8, 76, 90
15, 111689, Note_on_c, 8, 76, 0
15, 111690, Note_on_c, 8, 81, 90
15, 111719, Note_on_c, 8, 81, 0
15, 111720, Note_on_c, 8, 85, 90
15, 111749, Note_on_c, 8, 85, 0
15, 111750, Note_on_c, 8, 81, 90
15, 111779, Note_on_c, 8, 81, 0
15, 111780, Note_on_c, 8, 76, 90
15, 111809, Note_on_c, 8, 76, 0
15, 111810, Note_on_c, 8, 79, 90
15, 111839, Note_on_c, 8, 79, 0
15, 111840, Note_on_c, 8, 78, 90
15, 111899, Note_on_c, 8, 78, 0
15, 112260, Note_on_c, 8, 64, 90
15, 112319, Note_on_c, 8, 64, 0
15, 112320, Note_on_c, 8, 69, 90
15, 112379, Note_on_c, 8, 69, 0
15, 112380, Note_on_c, 8, 69, 90
15, 112439, Note_on_c, 8, 69, 0
15, 112440, Note_on_c, 8, 69, 90
15, 112499, Note_on_c, 8, 69, 0
15, 112500, Note_on_c, 8, 69, 90
15, 112559, Note_on_c, 8, 69, 0
15, 112560, Note_on_c, 8, 69, 90
15, 112619, Note_on_c, 8, 69, 0
15, 112620, Note_on_c, 8, 64, 90
15, 112649, Note_on_c, 8, 64, 0
15, 112650, Note_on_c, 8, 69, 90
15, 112679, Note_on_c, 8, 69, 0
15, 112680, Note_on_c, 8, 73, 90
15, 112709, Note_on_c, 8, 73, 0
15, 112710, Note_on_c, 8, 71, 90
15, 112739, Note_on_c, 8, 71, 0
15, 112740, Note_on_c, 8, 69, 90
15, 112769, Note_on_c, 8, 69, 0
15, 112770, Note_on_c, 8, 68, 90
15, 112799, Note_on_c, 8, 68, 0
15, 112800, Note_on_c, 8, 69, 90
15, 112859, Note_on_c, 8, 69, 0
15, 112860, Note_on_c, 8, 64, 90
15, 112889, Note_on_c, 8, 64, 0
15, 112890, Note_on_c, 8, 69, 90
15, 112919, Note_on_c, 8, 69, 0
15, 112920, Note_on_c, 8, 74, 90
15, 112949, Note_on_c, 8, 74, 0
15, 112950, Note_on_c, 8, 73, 90
15, 112979, Note_on_c, 8, 73, 0
15, 112980, Note_on_c, 8, 71, 90
15, 113009, Note_on_c, 8, 71, 0
15, 113010, Note_on_c, 8, 69, 90
15, 113039, Note_on_c, 8, 69, 0
15, 113040, Note_on_c, 8, 71, 90
15, 113099, Note_on_c, 8, 71, 0
15, 113100, Note_on_c, 8, 64, 90
15, 113129, Note_on_c, 8, 64, 0
15, 113130, Note_on_c, 8, 71, 90
15, 113159, Note_on_c, 8, 71, 0
15, 113160, Note_on_c, 8, 76, 90
15, 113189, Note_on_c, 8, 76, 0
15, 113190, Note_on_c, 8, 74, 90
15, 113219, Note_on_c, 8, 74, 0
15, 113220, Note_on_c, 8, 73, 90
15, 113249, Note_on_c, 8, 73, 0
15, 113250, Note_on_c, 8, 71, 90
15, 113279, Note_on_c, 8, 71, 0
15, 113280, Note_on_c, 8, 73, 90
15, 113339, Note_on_c, 8, 73, 0
15, 113340, Note_on_c, 8, 71, 90
15, 113369, Note_on_c, 8, 71, 0
15, 113370, Note_on_c, 8, 73, 90
15, 113399, Note_on_c, 8, 73, 0
15, 113400, Note_on_c, 8, 69, 90
15, 113429, Note_on_c, 8, 69, 0
15, 113430, Note_on_c, 8, 73, 90
15, 113459, Note_on_c, 8, 73, 0
15, 113460, Note_on_c, 8, 74, 90
15, 113489, Note_on_c, 8, 74, 0
15, 113490, Note_on_c, 8, 76, 90
15, 113519, Note_on_c, 8, 76, 0
15, 113520, Note_on_c, 8, 78, 90
15, 113595, Note_on_c, 8, 78, 0
15, 113595, Note_on_c, 8, 74, 90
15, 113609, Note_on_c, 8, 74, 0
15, 113610, Note_on_c, 8, 73, 90
15, 113624, Note_on_c, 8, 73, 0
15, 113625, Note_on_c, 8, 74, 90
15, 113639, Note_on_c, 8, 74, 0
15, 113641, Note_on_c, 8, 78, 90
15, 113715, Note_on_c, 8, 74, 90
15, 113716, Note_on_c, 8, 78, 0
15, 113729, Note_on_c, 8, 74, 0
15, 113730, Note_on_c, 8, 73, 90
15, 113744, Note_on_c, 8, 73, 0
15, 113745, Note_on_c, 8, 74, 90
15, 113759, Note_on_c, 8, 74, 0
15, 113760, Note_on_c, 8, 78, 90
15, 113774, Note_on_c, 8, 78, 0
15, 113775, Note_on_c, 8, 68, 90
15, 113789, Note_on_c, 8, 68, 0
15, 113790, Note_on_c, 8, 69, 90
15, 113804, Note_on_c, 8, 69, 0
15, 113805, Note_on_c, 8, 71, 90
15, 113819, Note_on_c, 8, 71, 0
15, 113820, Note_on_c, 8, 73, 90
15, 113834, Note_on_c, 8, 73, 0
15, 113835, Note_on_c, 8, 74, 90
15, 113849, Note_on_c, 8, 74, 0
15, 113850, Note_on_c, 8, 76, 90
15, 113864, Note_on_c, 8, 76, 0
15, 113865, Note_on_c, 8, 78, 90
15, 113879, Note_on_c, 8, 78, 0
15, 113880, Note_on_c, 8, 80, 90
15, 113894, Note_on_c, 8, 80, 0
15, 113895, Note_on_c, 8, 76, 90
15, 113909, Note_on_c, 8, 76, 0
15, 113910, Note_on_c, 8, 74, 90
15, 113924, Note_on_c, 8, 74, 0
15, 113925, Note_on_c, 8, 76, 90
15, 113939, Note_on_c, 8, 76, 0
15, 113940, Note_on_c, 8, 78, 90
15, 113954, Note_on_c, 8, 78, 0
15, 113955, Note_on_c, 8, 74, 90
15, 113969, Note_on_c, 8, 74, 0
15, 113970, Note_on_c, 8, 73, 90
15, 113984, Note_on_c, 8, 73, 0
15, 113985, Note_on_c, 8, 74, 90
15, 113999, Note_on_c, 8, 74, 0
15, 114000, Note_on_c, 8, 76, 90
15, 114075, Note_on_c, 8, 76, 0
15, 114075, Note_on_c, 8, 73, 90
15, 114089, Note_on_c, 8, 73, 0
15, 114090, Note_on_c, 8, 71, 90
15, 114104, Note_on_c, 8, 71, 0
15, 114105, Note_on_c, 8, 73, 90
15, 114119, Note_on_c, 8, 73, 0
15, 114120, Note_on_c, 8, 76, 90
15, 114195, Note_on_c, 8, 76, 0
15, 114196, Note_on_c, 8, 73, 90
15, 114210, Note_on_c, 8, 73, 0
15, 114211, Note_on_c, 8, 71, 90
15, 114225, Note_on_c, 8, 71, 0
15, 114226, Note_on_c, 8, 73, 90
15, 114240, Note_on_c, 8, 73, 0
15, 114240, Note_on_c, 8, 76, 90
15, 114254, Note_on_c, 8, 76, 0
15, 114255, Note_on_c, 8, 66, 90
15, 114269, Note_on_c, 8, 66, 0
15, 114270, Note_on_c, 8, 68, 90
15, 114284, Note_on_c, 8, 68, 0
15, 114285, Note_on_c, 8, 69, 90
15, 114299, Note_on_c, 8, 69, 0
15, 114300, Note_on_c, 8, 71, 90
15, 114314, Note_on_c, 8, 71, 0
15, 114315, Note_on_c, 8, 73, 90
15, 114329, Note_on_c, 8, 73, 0
15, 114330, Note_on_c, 8, 74, 90
15, 114344, Note_on_c, 8, 74, 0
15, 114345, Note_on_c, 8, 76, 90
15, 114359, Note_on_c, 8, 76, 0
15, 114360, Note_on_c, 8, 78, 90
15, 114374, Note_on_c, 8, 78, 0
15, 114375, Note_on_c, 8, 74, 90
15, 114389, Note_on_c, 8, 74, 0
15, 114390, Note_on_c, 8, 73, 90
15, 114404, Note_on_c, 8, 73, 0
15, 114405, Note_on_c, 8, 74, 90
15, 114419, Note_on_c, 8, 74, 0
15, 114420, Note_on_c, 8, 76, 90
15, 114434, Note_on_c, 8, 76, 0
15, 114435, Note_on_c, 8, 73, 90
15, 114449, Note_on_c, 8, 73, 0
15, 114450, Note_on_c, 8, 71, 90
15, 114464, Note_on_c, 8, 71, 0
15, 114465, Note_on_c, 8, 73, 90
15, 114479, Note_on_c, 8, 73, 0
15, 114480, Note_on_c, 8, 74, 90
15, 114555, Note_on_c, 8, 74, 0
15, 114555, Note_on_c, 8, 71, 90
15, 114569, Note_on_c, 8, 71, 0
15, 114570, Note_on_c, 8, 69, 90
15, 114584, Note_on_c, 8, 69, 0
15, 114585, Note_on_c, 8, 71, 90
15, 114599, Note_on_c, 8, 71, 0
15, 114600, Note_on_c, 8, 74, 90
15, 114675, Note_on_c, 8, 74, 0
15, 114675, Note_on_c, 8, 71, 90
15, 114689, Note_on_c, 8, 71, 0
15, 114690, Note_on_c, 8, 69, 90
15, 114704, Note_on_c, 8, 69, 0
15, 114705, Note_on_c, 8, 71, 90
15, 114719, Note_on_c, 8, 71, 0
15, 114720, Note_on_c, 8, 74, 90
15, 114734, Note_on_c, 8, 74, 0
15, 114735, Note_on_c, 8, 64, 90
15, 114749, Note_on_c, 8, 64, 0
15, 114750, Note_on_c, 8, 66, 90
15, 114764, Note_on_c, 8, 66, 0
15, 114765, Note_on_c, 8, 68, 90
15, 114779, Note_on_c, 8, 68, 0
15, 114780, Note_on_c, 8, 69, 90
15, 114794, Note_on_c, 8, 69, 0
15, 114795, Note_on_c, 8, 71, 90
15, 114809, Note_on_c, 8, 71, 0
15, 114810, Note_on_c, 8, 73, 90
15, 114824, Note_on_c, 8, 73, 0
15, 114825, Note_on_c, 8, 74, 90
15, 114839, Note_on_c, 8, 74, 0
15, 114840, Note_on_c, 8, 76, 90
15, 114854, Note_on_c, 8, 76, 0
15, 114855, Note_on_c, 8, 73, 90
15, 114869, Note_on_c, 8, 73, 0
15, 114870, Note_on_c, 8, 71, 90
15, 114884, Note_on_c, 8, 71, 0
15, 114885, Note_on_c, 8, 73, 90
15, 114899, Note_on_c, 8, 73, 0
15, 114900, Note_on_c, 8, 74, 90
15, 114914, Note_on_c, 8, 74, 0
15, 114915, Note_on_c, 8, 71, 90
15, 114929, Note_on_c, 8, 71, 0
15, 114930, Note_on_c, 8, 69, 90
15, 114944, Note_on_c, 8, 69, 0
15, 114945, Note_on_c, 8, 71, 90
15, 114959, Note_on_c, 8, 71, 0
15, 114960, Note_on_c, 8, 73, 90
15, 114974, Note_on_c, 8, 73, 0
15, 114975, Note_on_c, 8, 71, 90
15, 114989, Note_on_c, 8, 71, 0
15, 114990, Note_on_c, 8, 73, 90
15, 115004, Note_on_c, 8, 73, 0
15, 115005, Note_on_c, 8, 74, 90
15, 115019, Note_on_c, 8, 74, 0
15, 115020, Note_on_c, 8, 76, 90
15, 115034, Note_on_c, 8, 76, 0
15, 115035, Note_on_c, 8, 78, 90
15, 115049, Note_on_c, 8, 78, 0
15, 115050, Note_on_c, 8, 80, 90
15, 115064, Note_on_c, 8, 80, 0
15, 115065, Note_on_c, 8, 81, 90
15, 115079, Note_on_c, 8, 81, 0
15, 115080, Note_on_c, 8, 83, 90
15, 115094, Note_on_c, 8, 83, 0
15, 115095, Note_on_c, 8, 80, 90
15, 115109, Note_on_c, 8, 80, 0
15, 115110, Note_on_c, 8, 78, 90
15, 115124, Note_on_c, 8, 78, 0
15, 115125, Note_on_c, 8, 80, 90
15, 115139, Note_on_c, 8, 80, 0
15, 115140, Note_on_c, 8, 81, 90
15, 115154, Note_on_c, 8, 81, 0
15, 115155, Note_on_c, 8, 78, 90
15, 115169, Note_on_c, 8, 78, 0
15, 115170, Note_on_c, 8, 76, 90
15, 115184, Note_on_c, 8, 76, 0
15, 115185, Note_on_c, 8, 78, 90
15, 115199, Note_on_c, 8, 78, 0
15, 115200, Note_on_c, 8, 80, 90
15, 115214, Note_on_c, 8, 80, 0
15, 115215, Note_on_c, 8, 76, 90
15, 115229, Note_on_c, 8, 76, 0
15, 115230, Note_on_c, 8, 74, 90
15, 115244, Note_on_c, 8, 74, 0
15, 115245, Note_on_c, 8, 76, 90
15, 115259, Note_on_c, 8, 76, 0
15, 115260, Note_on_c, 8, 78, 90
15, 115274, Note_on_c, 8, 78, 0
15, 115275, Note_on_c, 8, 74, 90
15, 115289, Note_on_c, 8, 74, 0
15, 115290, Note_on_c, 8, 73, 90
15, 115304, Note_on_c, 8, 73, 0
15, 115305, Note_on_c, 8, 74, 90
15, 115319, Note_on_c, 8, 74, 0
15, 115320, Note_on_c, 8, 76, 90
15, 115334, Note_on_c, 8, 76, 0
15, 115335, Note_on_c, 8, 73, 90
15, 115349, Note_on_c, 8, 73, 0
15, 115350, Note_on_c, 8, 71, 90
15, 115364, Note_on_c, 8, 71, 0
15, 115365, Note_on_c, 8, 73, 90
15, 115379, Note_on_c, 8, 73, 0
15, 115380, Note_on_c, 8, 74, 90
15, 115394, Note_on_c, 8, 74, 0
15, 115395, Note_on_c, 8, 71, 90
15, 115409, Note_on_c, 8, 71, 0
15, 115410, Note_on_c, 8, 69, 90
15, 115424, Note_on_c, 8, 69, 0
15, 115425, Note_on_c, 8, 71, 90
15, 115439, Note_on_c, 8, 71, 0
15, 115440, Note_on_c, 8, 73, 90
15, 115469, Note_on_c, 8, 73, 0
15, 115470, Note_on_c, 8, 76, 90
15, 115499, Note_on_c, 8, 76, 0
15, 115500, Note_on_c, 8, 81, 90
15, 115559, Note_on_c, 8, 81, 0
15, 115860, Note_on_c, 8, 68, 90
15, 115889, Note_on_c, 8, 68, 0
15, 115890, Note_on_c, 8, 69, 90
15, 115919, Note_on_c, 8, 69, 0
15, 115920, Note_on_c, 8, 71, 90
15, 115979, Note_on_c, 8, 71, 0
15, 115980, Note_on_c, 8, 69, 90
15, 116039, Note_on_c, 8, 69, 0
15, 116040, Note_on_c, 8, 71, 90
15, 116099, Note_on_c, 8, 71, 0
15, 116100, Note_on_c, 8, 73, 90
15, 116159, Note_on_c, 8, 73, 0
15, 116160, Note_on_c, 8, 74, 90
15, 116219, Note_on_c, 8, 74, 0
15, 116220, Note_on_c, 8, 69, 90
15, 116249, Note_on_c, 8, 69, 0
15, 116250, Note_on_c, 8, 74, 90
15, 116279, Note_on_c, 8, 74, 0
15, 116280, Note_on_c, 8, 78, 90
15, 116309, Note_on_c, 8, 78, 0
15, 116310, Note_on_c, 8, 76, 90
15, 116339, Note_on_c, 8, 76, 0
15, 116340, Note_on_c, 8, 74, 90
15, 116369, Note_on_c, 8, 74, 0
15, 116370, Note_on_c, 8, 73, 90
15, 116399, Note_on_c, 8, 73, 0
15, 116400, Note_on_c, 8, 74, 90
15, 116459, Note_on_c, 8, 74, 0
15, 116460, Note_on_c, 8, 69, 90
15, 116489, Note_on_c, 8, 69, 0
15, 116490, Note_on_c, 8, 74, 90
15, 116519, Note_on_c, 8, 74, 0
15, 116520, Note_on_c, 8, 78, 90
15, 116549, Note_on_c, 8, 78, 0
15, 116550, Note_on_c, 8, 76, 90
15, 116579, Note_on_c, 8, 76, 0
15, 116580, Note_on_c, 8, 74, 90
15, 116609, Note_on_c, 8, 74, 0
15, 116610, Note_on_c, 8, 73, 90
15, 116639, Note_on_c, 8, 73, 0
15, 116640, Note_on_c, 8, 74, 90
15, 116699, Note_on_c, 8, 74, 0
15, 116700, Note_on_c, 8, 64, 90
15, 116729, Note_on_c, 8, 64, 0
15, 116730, Note_on_c, 8, 73, 90
15, 116759, Note_on_c, 8, 73, 0
15, 116760, Note_on_c, 8, 74, 90
15, 116789, Note_on_c, 8, 74, 0
15, 116790, Note_on_c, 8, 73, 90
15, 116819, Note_on_c, 8, 73, 0
15, 116820, Note_on_c, 8, 71, 90
15, 116849, Note_on_c, 8, 71, 0
15, 116850, Note_on_c, 8, 69, 90
15, 116879, Note_on_c, 8, 69, 0
15, 116880, Note_on_c, 8, 71, 90
15, 116939, Note_on_c, 8, 71, 0
15, 116940, Note_on_c, 8, 64, 90
15, 116969, Note_on_c, 8, 64, 0
15, 116970, Note_on_c, 8, 74, 90
15, 116999, Note_on_c, 8, 74, 0
15, 117000, Note_on_c, 8, 76, 90
15, 117029, Note_on_c, 8, 76, 0
15, 117030, Note_on_c, 8, 74, 90
15, 117059, Note_on_c, 8, 74, 0
15, 117060, Note_on_c, 8, 73, 90
15, 117089, Note_on_c, 8, 73, 0
15, 117090, Note_on_c, 8, 71, 90
15, 117119, Note_on_c, 8, 71, 0
15, 117120, Note_on_c, 8, 73, 90
15, 117179, Note_on_c, 8, 73, 0
15, 117180, Note_on_c, 8, 76, 90
15, 117239, Note_on_c, 8, 76, 0
15, 117240, Note_on_c, 8, 74, 90
15, 117269, Note_on_c, 8, 74, 0
15, 117270, Note_on_c, 8, 73, 90
15, 117299, Note_on_c, 8, 73, 0
15, 117300, Note_on_c, 8, 71, 90
15, 117329, Note_on_c, 8, 71, 0
15, 117330, Note_on_c, 8, 73, 90
15, 117359, Note_on_c, 8, 73, 0
15, 117360, Note_on_c, 8, 69, 90
15, 117419, Note_on_c, 8, 69, 0
15, 117420, Note_on_c, 8, 73, 90
15, 117449, Note_on_c, 8, 73, 0
15, 117450, Note_on_c, 8, 74, 90
15, 117479, Note_on_c, 8, 74, 0
15, 117480, Note_on_c, 8, 76, 90
15, 117539, Note_on_c, 8, 76, 0
15, 117540, Note_on_c, 8, 78, 90
15, 117569, Note_on_c, 8, 78, 0
15, 117570, Note_on_c, 8, 80, 90
15, 117599, Note_on_c, 8, 80, 0
15, 117600, Note_on_c, 8, 81, 90
15, 117659, Note_on_c, 8, 81, 0
15, 118020, Note_on_c, 8, 64, 90
15, 118079, Note_on_c, 8, 64, 0
15, 118080, Note_on_c, 8, 69, 90
15, 118139, Note_on_c, 8, 69, 0
15, 118140, Note_on_c, 8, 69, 90
15, 118199, Note_on_c, 8, 69, 0
15, 118200, Note_on_c, 8, 69, 90
15, 118259, Note_on_c, 8, 69, 0
15, 118260, Note_on_c, 8, 69, 90
15, 118319, Note_on_c, 8, 69, 0
15, 118320, Note_on_c, 8, 69, 90
15, 118379, Note_on_c, 8, 69, 0
15, 118380, Note_on_c, 8, 64, 90
15, 118409, Note_on_c, 8, 64, 0
15, 118410, Note_on_c, 8, 69, 90
15, 118439, Note_on_c, 8, 69, 0
15, 118440, Note_on_c, 8, 73, 90
15, 118469, Note_on_c, 8, 73, 0
15, 118470, Note_on_c, 8, 71, 90
15, 118499, Note_on_c, 8, 71, 0
15, 118500, Note_on_c, 8, 69, 90
15, 118529, Note_on_c, 8, 69, 0
15, 118530, Note_on_c, 8, 68, 90
15, 118559, Note_on_c, 8, 68, 0
15, 118560, Note_on_c, 8, 69, 90
15, 118619, Note_on_c, 8, 69, 0
15, 118620, Note_on_c, 8, 64, 90
15, 118649, Note_on_c, 8, 64, 0
15, 118650, Note_on_c, 8, 69, 90
15, 118679, Note_on_c, 8, 69, 0
15, 118680, Note_on_c, 8, 74, 90
15, 118709, Note_on_c, 8, 74, 0
15, 118710, Note_on_c, 8, 73, 90
15, 118739, Note_on_c, 8, 73, 0
15, 118740, Note_on_c, 8, 71, 90
15, 118769, Note_on_c, 8, 71, 0
15, 118770, Note_on_c, 8, 69, 90
15, 118799, Note_on_c, 8, 69, 0
15, 118800, Note_on_c, 8, 71, 90
15, 118859, Note_on_c, 8, 71, 0
15, 118860, Note_on_c, 8, 64, 90
15, 118889, Note_on_c, 8, 64, 0
15, 118890, Note_on_c, 8, 71, 90
15, 118919, Note_on_c, 8, 71, 0
15, 118920, Note_on_c, 8, 76, 90
15, 118949, Note_on_c, 8, 76, 0
15, 118950, Note_on_c, 8, 74, 90
15, 118979, Note_on_c, 8, 74, 0
15, 118980, Note_on_c, 8, 73, 90
15, 119009, Note_on_c, 8, 73, 0
15, 119010, Note_on_c, 8, 71, 90
15, 119039, Note_on_c, 8, 71, 0
15, 119040, Note_on_c, 8, 73, 90
15, 119099, Note_on_c, 8, 73, 0
15, 119100, Note_on_c, 8, 71, 90
15, 119129, Note_on_c, 8, 71, 0
15, 119130, Note_on_c, 8, 73, 90
15, 119159, Note_on_c, 8, 73, 0
15, 119160, Note_on_c, 8, 69, 90
15, 119219, Note_on_c, 8, 69, 0
15, 119220, Note_on_c, 8, 73, 90
15, 119279, Note_on_c, 8, 73, 0
15, 119280, Note_on_c, 8, 71, 90
15, 119339, Note_on_c, 8, 71, 0
15, 119340, Note_on_c, 8, 71, 90
15, 119399, Note_on_c, 8, 71, 0
15, 119400, Note_on_c, 8, 71, 90
15, 119459, Note_on_c, 8, 71, 0
15, 119460, Note_on_c, 8, 71, 90
15, 119519, Note_on_c, 8, 71, 0
15, 119520, Note_on_c, 8, 71, 90
15, 119579, Note_on_c, 8, 71, 0
15, 119580, Note_on_c, 8, 73, 90
15, 119609, Note_on_c, 8, 73, 0
15, 119610, Note_on_c, 8, 75, 90
15, 119639, Note_on_c, 8, 75, 0
15, 119640, Note_on_c, 8, 76, 90
15, 119669, Note_on_c, 8, 76, 0
15, 119670, Note_on_c, 8, 78, 90
15, 119699, Note_on_c, 8, 78, 0
15, 119700, Note_on_c, 8, 80, 90
15, 119729, Note_on_c, 8, 80, 0
15, 119730, Note_on_c, 8, 76, 90
15, 119759, Note_on_c, 8, 76, 0
15, 119760, Note_on_c, 8, 69, 90
15, 119819, Note_on_c, 8, 69, 0
15, 119820, Note_on_c, 8, 71, 90
15, 119849, Note_on_c, 8, 71, 0
15, 119850, Note_on_c, 8, 73, 90
15, 119879, Note_on_c, 8, 73, 0
15, 119880, Note_on_c, 8, 75, 90
15, 119909, Note_on_c, 8, 75, 0
15, 119910, Note_on_c, 8, 76, 90
15, 119939, Note_on_c, 8, 76, 0
15, 119940, Note_on_c, 8, 78, 90
15, 119969, Note_on_c, 8, 78, 0
15, 119970, Note_on_c, 8, 75, 90
15, 119999, Note_on_c, 8, 75, 0
15, 120000, Note_on_c, 8, 76, 90
15, 120059, Note_on_c, 8, 76, 0
15, 120060, Note_on_c, 8, 71, 90
15, 120119, Note_on_c, 8, 71, 0
15, 120120, Note_on_c, 8, 68, 90
15, 120179, Note_on_c, 8, 68, 0
15, 120180, Note_on_c, 8, 66, 90
15, 120209, Note_on_c, 8, 66, 0
15, 120210, Note_on_c, 8, 64, 90
15, 120239, Note_on_c, 8, 64, 0
15, 120240, Note_on_c, 8, 64, 90
15, 120359, Note_on_c, 8, 64, 0
15, 120390, Note_on_c, 8, 66, 90
15, 120419, Note_on_c, 8, 66, 0
15, 120420, Note_on_c, 8, 68, 90
15, 120449, Note_on_c, 8, 68, 0
15, 120450, Note_on_c, 8, 69, 90
15, 120479, Note_on_c, 8, 69, 0
15, 120480, Note_on_c, 8, 71, 90
15, 120539, Note_on_c, 8, 71, 0
15, 120540, Note_on_c, 8, 73, 90
15, 120599, Note_on_c, 8, 73, 0
15, 120600, Note_on_c, 8, 71, 90
15, 120659, Note_on_c, 8, 71, 0
15, 120660, Note_on_c, 8, 69, 90
15, 120719, Note_on_c, 8, 69, 0
15, 120720, Note_on_c, 8, 71, 90
15, 120779, Note_on_c, 8, 71, 0
15, 120780, Note_on_c, 8, 69, 90
15, 120809, Note_on_c, 8, 69, 0
15, 120810, Note_on_c, 8, 71, 90
15, 120839, Note_on_c, 8, 71, 0
15, 120840, Note_on_c, 8, 68, 90
15, 120869, Note_on_c, 8, 68, 0
15, 120870, Note_on_c, 8, 69, 90
15, 120899, Note_on_c, 8, 69, 0
15, 120900, Note_on_c, 8, 71, 90
15, 120929, Note_on_c, 8, 71, 0
15, 120930, Note_on_c, 8, 73, 90
15, 120959, Note_on_c, 8, 73, 0
15, 120960, Note_on_c, 8, 74, 90
15, 121019, Note_on_c, 8, 74, 0
15, 121020, Note_on_c, 8, 69, 90
15, 121049, Note_on_c, 8, 69, 0
15, 121050, Note_on_c, 8, 74, 90
15, 121079, Note_on_c, 8, 74, 0
15, 121080, Note_on_c, 8, 78, 90
15, 121109, Note_on_c, 8, 78, 0
15, 121110, Note_on_c, 8, 76, 90
15, 121139, Note_on_c, 8, 76, 0
15, 121140, Note_on_c, 8, 74, 90
15, 121169, Note_on_c, 8, 74, 0
15, 121170, Note_on_c, 8, 73, 90
15, 121199, Note_on_c, 8, 73, 0
15, 121200, Note_on_c, 8, 74, 90
15, 121259, Note_on_c, 8, 74, 0
15, 121260, Note_on_c, 8, 69, 90
15, 121289, Note_on_c, 8, 69, 0
15, 121290, Note_on_c, 8, 74, 90
15, 121319, Note_on_c, 8, 74, 0
15, 121320, Note_on_c, 8, 78, 90
15, 121349, Note_on_c, 8, 78, 0
15, 121350, Note_on_c, 8, 76, 90
15, 121379, Note_on_c, 8, 76, 0
15, 121380, Note_on_c, 8, 74, 90
15, 121409, Note_on_c, 8, 74, 0
15, 121410, Note_on_c, 8, 73, 90
15, 121439, Note_on_c, 8, 73, 0
15, 121440, Note_on_c, 8, 74, 90
15, 121499, Note_on_c, 8, 74, 0
15, 121500, Note_on_c, 8, 64, 90
15, 121529, Note_on_c, 8, 64, 0
15, 121530, Note_on_c, 8, 73, 90
15, 121559, Note_on_c, 8, 73, 0
15, 121560, Note_on_c, 8, 74, 90
15, 121589, Note_on_c, 8, 74, 0
15, 121590, Note_on_c, 8, 73, 90
15, 121619, Note_on_c, 8, 73, 0
15, 121620, Note_on_c, 8, 71, 90
15, 121649, Note_on_c, 8, 71, 0
15, 121650, Note_on_c, 8, 69, 90
15, 121679, Note_on_c, 8, 69, 0
15, 121680, Note_on_c, 8, 71, 90
15, 121739, Note_on_c, 8, 71, 0
15, 121740, Note_on_c, 8, 64, 90
15, 121769, Note_on_c, 8, 64, 0
15, 121770, Note_on_c, 8, 74, 90
15, 121799, Note_on_c, 8, 74, 0
15, 121800, Note_on_c, 8, 76, 90
15, 121829, Note_on_c, 8, 76, 0
15, 121830, Note_on_c, 8, 74, 90
15, 121859, Note_on_c, 8, 74, 0
15, 121860, Note_on_c, 8, 73, 90
15, 121889, Note_on_c, 8, 73, 0
15, 121890, Note_on_c, 8, 71, 90
15, 121919, Note_on_c, 8, 71, 0
15, 121920, Note_on_c, 8, 74, 90
15, 121949, Note_on_c, 8, 74, 0
15, 121950, Note_on_c, 8, 73, 90
15, 121979, Note_on_c, 8, 73, 0
15, 121980, Note_on_c, 8, 71, 90
15, 122009, Note_on_c, 8, 71, 0
15, 122010, Note_on_c, 8, 69, 90
15, 122039, Note_on_c, 8, 69, 0
15, 122040, Note_on_c, 8, 71, 90
15, 122099, Note_on_c, 8, 71, 0
15, 122100, Note_on_c, 8, 68, 90
15, 122159, Note_on_c, 8, 68, 0
15, 122160, Note_on_c, 8, 69, 90
15, 122219, Note_on_c, 8, 69, 0
15, 122220, Note_on_c, 8, 73, 90
15, 122249, Note_on_c, 8, 73, 0
15, 122250, Note_on_c, 8, 74, 90
15, 122279, Note_on_c, 8, 74, 0
15, 122280, Note_on_c, 8, 76, 90
15, 122339, Note_on_c, 8, 76, 0
15, 122340, Note_on_c, 8, 78, 90
15, 122369, Note_on_c, 8, 78, 0
15, 122370, Note_on_c, 8, 80, 90
15, 122399, Note_on_c, 8, 80, 0
15, 122400, Note_on_c, 8, 81, 90
15, 122459, Note_on_c, 8, 81, 0
15, 122460, Note_on_c, 8, 69, 90
15, 122519, Note_on_c, 8, 69, 0
15, 122520, Note_on_c, 8, 64, 90
15, 122579, Note_on_c, 8, 64, 0
15, 122580, Note_on_c, 8, 68, 90
15, 122639, Note_on_c, 8, 68, 0
15, 122640, Note_on_c, 8, 69, 90
15, 122759, Note_on_c, 8, 69, 0
15, 321060, Note_on_c, 8, 74, 90
15, 321299, Note_on_c, 8, 74, 0
15, 321300, Note_on_c, 8, 69, 90
15, 321539, Note_on_c, 8, 69, 0
15, 321540, Note_on_c, 8, 66, 90
15, 321659, Note_on_c, 8, 66, 0
15, 321660, Note_on_c, 8, 66, 90
15, 321719, Note_on_c, 8, 66, 0
15, 321720, Note_on_c, 8, 64, 90
15, 321779, Note_on_c, 8, 64, 0
15, 321780, Note_on_c, 8, 67, 90
15, 321899, Note_on_c, 8, 67, 0
15, 321900, Note_on_c, 8, 66, 90
15, 321959, Note_on_c, 8, 66, 0
15, 321960, Note_on_c, 8, 64, 90
15, 322019, Note_on_c, 8, 64, 0
15, 322020, Note_on_c, 8, 66, 90
15, 322139, Note_on_c, 8, 66, 0
15, 322140, Note_on_c, 8, 66, 90
15, 322199, Note_on_c, 8, 66, 0
15, 322200, Note_on_c, 8, 64, 90
15, 322259, Note_on_c, 8, 64, 0
15, 322260, Note_on_c, 8, 67, 90
15, 322379, Note_on_c, 8, 67, 0
15, 322380, Note_on_c, 8, 66, 90
15, 322439, Note_on_c, 8, 66, 0
15, 322440, Note_on_c, 8, 64, 90
15, 322499, Note_on_c, 8, 64, 0
15, 322500, Note_on_c, 8, 74, 90
15, 322739, Note_on_c, 8, 74, 0
15, 322740, Note_on_c, 8, 69, 90
15, 322979, Note_on_c, 8, 69, 0
15, 322980, Note_on_c, 8, 69, 90
15, 323099, Note_on_c, 8, 69, 0
15, 323100, Note_on_c, 8, 69, 90
15, 323159, Note_on_c, 8, 69, 0
15, 323160, Note_on_c, 8, 67, 90
15, 323219, Note_on_c, 8, 67, 0
15, 323220, Note_on_c, 8, 71, 90
15, 323339, Note_on_c, 8, 71, 0
15, 323340, Note_on_c, 8, 69, 90
15, 323399, Note_on_c, 8, 69, 0
15, 323400, Note_on_c, 8, 67, 90
15, 323459, Note_on_c, 8, 67, 0
15, 323460, Note_on_c, 8, 69, 90
15, 323579, Note_on_c, 8, 69, 0
15, 323580, Note_on_c, 8, 69, 90
15, 323639, Note_on_c, 8, 69, 0
15, 323640, Note_on_c, 8, 67, 90
15, 323699, Note_on_c, 8, 67, 0
15, 323700, Note_on_c, 8, 71, 90
15, 323819, Note_on_c, 8, 71, 0
15, 323820, Note_on_c, 8, 69, 90
15, 323879, Note_on_c, 8, 69, 0
15, 323880, Note_on_c, 8, 67, 90
15, 323939, Note_on_c, 8, 67, 0
15, 323940, Note_on_c, 8, 74, 90
15, 324179, Note_on_c, 8, 74, 0
15, 324180, Note_on_c, 8, 69, 90
15, 324419, Note_on_c, 8, 69, 0
15, 324420, Note_on_c, 8, 66, 90
15, 324539, Note_on_c, 8, 66, 0
15, 324540, Note_on_c, 8, 62, 90
15, 324659, Note_on_c, 8, 62, 0
15, 324660, Note_on_c, 8, 69, 90
15, 324779, Note_on_c, 8, 69, 0
15, 324780, Note_on_c, 8, 66, 90
15, 324899, Note_on_c, 8, 66, 0
15, 324900, Note_on_c, 8, 74, 90
15, 325019, Note_on_c, 8, 74, 0
15, 325020, Note_on_c, 8, 69, 90
15, 325139, Note_on_c, 8, 69, 0
15, 325140, Note_on_c, 8, 66, 90
15, 325259, Note_on_c, 8, 66, 0
15, 325260, Note_on_c, 8, 62, 90
15, 325379, Note_on_c, 8, 62, 0
15, 325380, Note_on_c, 8, 69, 90
15, 325499, Note_on_c, 8, 69, 0
15, 325500, Note_on_c, 8, 69, 90
15, 325559, Note_on_c, 8, 69, 0
15, 325560, Note_on_c, 8, 67, 90
15, 325619, Note_on_c, 8, 67, 0
15, 325620, Note_on_c, 8, 71, 90
15, 325739, Note_on_c, 8, 71, 0
15, 325740, Note_on_c, 8, 69, 90
15, 325799, Note_on_c, 8, 69, 0
15, 325800, Note_on_c, 8, 67, 90
15, 325859, Note_on_c, 8, 67, 0
15, 325860, Note_on_c, 8, 69, 90
15, 325979, Note_on_c, 8, 69, 0
15, 325980, Note_on_c, 8, 67, 90
15, 326039, Note_on_c, 8, 67, 0
15, 326040, Note_on_c, 8, 66, 90
15, 326099, Note_on_c, 8, 66, 0
15, 326100, Note_on_c, 8, 64, 90
15, 326339, Note_on_c, 8, 64, 0
15, 326340, Note_on_c, 8, 76, 90
15, 326579, Note_on_c, 8, 76, 0
15, 326580, Note_on_c, 8, 73, 90
15, 326819, Note_on_c, 8, 73, 0
15, 326820, Note_on_c, 8, 61, 90
15, 326939, Note_on_c, 8, 61, 0
15, 326940, Note_on_c, 8, 61, 90
15, 326999, Note_on_c, 8, 61, 0
15, 327000, Note_on_c, 8, 59, 90
15, 327059, Note_on_c, 8, 59, 0
15, 327060, Note_on_c, 8, 62, 90
15, 327179, Note_on_c, 8, 62, 0
15, 327180, Note_on_c, 8, 61, 90
15, 327239, Note_on_c, 8, 61, 0
15, 327240, Note_on_c, 8, 59, 90
15, 327299, Note_on_c, 8, 59, 0
15, 327300, Note_on_c, 8, 61, 90
15, 327419, Note_on_c, 8, 61, 0
15, 327420, Note_on_c, 8, 61, 90
15, 327479, Note_on_c, 8, 61, 0
15, 327480, Note_on_c, 8, 59, 90
15, 327539, Note_on_c, 8, 59, 0
15, 327540, Note_on_c, 8, 62, 90
15, 327659, Note_on_c, 8, 62, 0
15, 327660, Note_on_c, 8, 61, 90
15, 327719, Note_on_c, 8, 61, 0
15, 327720, Note_on_c, 8, 59, 90
15, 327779, Note_on_c, 8, 59, 0
15, 327780, Note_on_c, 8, 73, 90
15, 328019, Note_on_c, 8, 73, 0
15, 328020, Note_on_c, 8, 69, 90
15, 328259, Note_on_c, 8, 69, 0
15, 328260, Note_on_c, 8, 64, 90
15, 328379, Note_on_c, 8, 64, 0
15, 328380, Note_on_c, 8, 64, 90
15, 328439, Note_on_c, 8, 64, 0
15, 328440, Note_on_c, 8, 62, 90
15, 328499, Note_on_c, 8, 62, 0
15, 328500, Note_on_c, 8, 66, 90
15, 328619, Note_on_c, 8, 66, 0
15, 328620, Note_on_c, 8, 64, 90
15, 328679, Note_on_c, 8, 64, 0
15, 328680, Note_on_c, 8, 62, 90
15, 328739, Note_on_c, 8, 62, 0
15, 328740, Note_on_c, 8, 64, 90
15, 328859, Note_on_c, 8, 64, 0
15, 328860, Note_on_c, 8, 64, 90
15, 328919, Note_on_c, 8, 64, 0
15, 328920, Note_on_c, 8, 62, 90
15, 328979, Note_on_c, 8, 62, 0
15, 328980, Note_on_c, 8, 66, 90
15, 329099, Note_on_c, 8, 66, 0
15, 329100, Note_on_c, 8, 64, 90
15, 329159, Note_on_c, 8, 64, 0
15, 329160, Note_on_c, 8, 62, 90
15, 329219, Note_on_c, 8, 62, 0
15, 329220, Note_on_c, 8, 69, 90
15, 329459, Note_on_c, 8, 69, 0
15, 329460, Note_on_c, 8, 64, 90
15, 329699, Note_on_c, 8, 64, 0
15, 329700, Note_on_c, 8, 61, 90
15, 329819, Note_on_c, 8, 61, 0
15, 329820, Note_on_c, 8, 57, 90
15, 329939, Note_on_c, 8, 57, 0
15, 329940, Note_on_c, 8, 64, 90
15, 330059, Note_on_c, 8, 64, 0
15, 330060, Note_on_c, 8, 61, 90
15, 330179, Note_on_c, 8, 61, 0
15, 330180, Note_on_c, 8, 67, 90
15, 330299, Note_on_c, 8, 67, 0
15, 330300, Note_on_c, 8, 64, 90
15, 330419, Note_on_c, 8, 64, 0
15, 330420, Note_on_c, 8, 61, 90
15, 330539, Note_on_c, 8, 61, 0
15, 330540, Note_on_c, 8, 57, 90
15, 330659, Note_on_c, 8, 57, 0
15, 330660, Note_on_c, 8, 62, 90
15, 330719, Note_on_c, 8, 62, 0
15, 330720, Note_on_c, 8, 64, 90
15, 330779, Note_on_c, 8, 64, 0
15, 330780, Note_on_c, 8, 66, 90
15, 330839, Note_on_c, 8, 66, 0
15, 330840, Note_on_c, 8, 67, 90
15, 330899, Note_on_c, 8, 67, 0
15, 330900, Note_on_c, 8, 69, 90
15, 331019, Note_on_c, 8, 69, 0
15, 331020, Note_on_c, 8, 71, 90
15, 331079, Note_on_c, 8, 71, 0
15, 331080, Note_on_c, 8, 69, 90
15, 331139, Note_on_c, 8, 69, 0
15, 331140, Note_on_c, 8, 67, 90
15, 331199, Note_on_c, 8, 67, 0
15, 331200, Note_on_c, 8, 66, 90
15, 331259, Note_on_c, 8, 66, 0
15, 331260, Note_on_c, 8, 64, 90
15, 331319, Note_on_c, 8, 64, 0
15, 331320, Note_on_c, 8, 66, 90
15, 331379, Note_on_c, 8, 66, 0
15, 331380, Note_on_c, 8, 62, 90
15, 331619, Note_on_c, 8, 62, 0
15, 332100, Note_on_c, 8, 66, 90
15, 332219, Note_on_c, 8, 66, 0
15, 332220, Note_on_c, 8, 66, 90
15, 332279, Note_on_c, 8, 66, 0
15, 332280, Note_on_c, 8, 64, 90
15, 332339, Note_on_c, 8, 64, 0
15, 332340, Note_on_c, 8, 67, 90
15, 332459, Note_on_c, 8, 67, 0
15, 332460, Note_on_c, 8, 66, 90
15, 332519, Note_on_c, 8, 66, 0
15, 332520, Note_on_c, 8, 64, 90
15, 332579, Note_on_c, 8, 64, 0
15, 332580, Note_on_c, 8, 66, 90
15, 332699, Note_on_c, 8, 66, 0
15, 332700, Note_on_c, 8, 66, 90
15, 332759, Note_on_c, 8, 66, 0
15, 332760, Note_on_c, 8, 64, 90
15, 332819, Note_on_c, 8, 64, 0
15, 332820, Note_on_c, 8, 67, 90
15, 332939, Note_on_c, 8, 67, 0
15, 332940, Note_on_c, 8, 66, 90
15, 332999, Note_on_c, 8, 66, 0
15, 333000, Note_on_c, 8, 64, 90
15, 333059, Note_on_c, 8, 64, 0
15, 333060, Note_on_c, 8, 66, 90
15, 333299, Note_on_c, 8, 66, 0
15, 333540, Note_on_c, 8, 69, 90
15, 333659, Note_on_c, 8, 69, 0
15, 333660, Note_on_c, 8, 69, 90
15, 333719, Note_on_c, 8, 69, 0
15, 333720, Note_on_c, 8, 67, 90
15, 333779, Note_on_c, 8, 67, 0
15, 333780, Note_on_c, 8, 71, 90
15, 333899, Note_on_c, 8, 71, 0
15, 333900, Note_on_c, 8, 69, 90
15, 333959, Note_on_c, 8, 69, 0
15, 333960, Note_on_c, 8, 67, 90
15, 334019, Note_on_c, 8, 67, 0
15, 334020, Note_on_c, 8, 69, 90
15, 334139, Note_on_c, 8, 69, 0
15, 334140, Note_on_c, 8, 69, 90
15, 334199, Note_on_c, 8, 69, 0
15, 334200, Note_on_c, 8, 67, 90
15, 334259, Note_on_c, 8, 67, 0
15, 334260, Note_on_c, 8, 71, 90
15, 334379, Note_on_c, 8, 71, 0
15, 334380, Note_on_c, 8, 69, 90
15, 334439, Note_on_c, 8, 69, 0
15, 334440, Note_on_c, 8, 67, 90
15, 334499, Note_on_c, 8, 67, 0
15, 334500, Note_on_c, 8, 74, 90
15, 334739, Note_on_c, 8, 74, 0
15, 334740, Note_on_c, 8, 69, 90
15, 334979, Note_on_c, 8, 69, 0
15, 334980, Note_on_c, 8, 69, 90
15, 335099, Note_on_c, 8, 69, 0
15, 335100, Note_on_c, 8, 66, 90
15, 335219, Note_on_c, 8, 66, 0
15, 335220, Note_on_c, 8, 74, 90
15, 335339, Note_on_c, 8, 74, 0
15, 335340, Note_on_c, 8, 69, 90
15, 335459, Note_on_c, 8, 69, 0
15, 335460, Note_on_c, 8, 78, 90
15, 335579, Note_on_c, 8, 78, 0
15, 335580, Note_on_c, 8, 74, 90
15, 335699, Note_on_c, 8, 74, 0
15, 335700, Note_on_c, 8, 81, 90
15, 335819, Note_on_c, 8, 81, 0
15, 335820, Note_on_c, 8, 78, 90
15, 335939, Note_on_c, 8, 78, 0
15, 335940, Note_on_c, 8, 78, 90
15, 336059, Note_on_c, 8, 78, 0
15, 336060, Note_on_c, 8, 78, 90
15, 336119, Note_on_c, 8, 78, 0
15, 336120, Note_on_c, 8, 76, 90
15, 336179, Note_on_c, 8, 76, 0
15, 336180, Note_on_c, 8, 79, 90
15, 336299, Note_on_c, 8, 79, 0
15, 336300, Note_on_c, 8, 78, 90
15, 336359, Note_on_c, 8, 78, 0
15, 336360, Note_on_c, 8, 76, 90
15, 336419, Note_on_c, 8, 76, 0
15, 336420, Note_on_c, 8, 78, 90
15, 336539, Note_on_c, 8, 78, 0
15, 336540, Note_on_c, 8, 76, 90
15, 336599, Note_on_c, 8, 76, 0
15, 336600, Note_on_c, 8, 74, 90
15, 336659, Note_on_c, 8, 74, 0
15, 336660, Note_on_c, 8, 73, 90
15, 336899, Note_on_c, 8, 73, 0
15, 338820, Note_on_c, 8, 64, 90
15, 338939, Note_on_c, 8, 64, 0
15, 338940, Note_on_c, 8, 64, 90
15, 338999, Note_on_c, 8, 64, 0
15, 339000, Note_on_c, 8, 62, 90
15, 339059, Note_on_c, 8, 62, 0
15, 339060, Note_on_c, 8, 66, 90
15, 339179, Note_on_c, 8, 66, 0
15, 339180, Note_on_c, 8, 64, 90
15, 339239, Note_on_c, 8, 64, 0
15, 339240, Note_on_c, 8, 62, 90
15, 339299, Note_on_c, 8, 62, 0
15, 339300, Note_on_c, 8, 64, 90
15, 339419, Note_on_c, 8, 64, 0
15, 339420, Note_on_c, 8, 64, 90
15, 339479, Note_on_c, 8, 64, 0
15, 339480, Note_on_c, 8, 62, 90
15, 339539, Note_on_c, 8, 62, 0
15, 339540, Note_on_c, 8, 66, 90
15, 339659, Note_on_c, 8, 66, 0
15, 339660, Note_on_c, 8, 64, 90
15, 339719, Note_on_c, 8, 64, 0
15, 339720, Note_on_c, 8, 62, 90
15, 339779, Note_on_c, 8, 62, 0
15, 339780, Note_on_c, 8, 81, 90
15, 340019, Note_on_c, 8, 81, 0
15, 340020, Note_on_c, 8, 76, 90
15, 340259, Note_on_c, 8, 76, 0
15, 340260, Note_on_c, 8, 73, 90
15, 340379, Note_on_c, 8, 73, 0
15, 340380, Note_on_c, 8, 69, 90
15, 340499, Note_on_c, 8, 69, 0
15, 340500, Note_on_c, 8, 76, 90
15, 340619, Note_on_c, 8, 76, 0
15, 340620, Note_on_c, 8, 73, 90
15, 340739, Note_on_c, 8, 73, 0
15, 340740, Note_on_c, 8, 79, 90
15, 340859, Note_on_c, 8, 79, 0
15, 340860, Note_on_c, 8, 76, 90
15, 340979, Note_on_c, 8, 76, 0
15, 340980, Note_on_c, 8, 73, 90
15, 341099, Note_on_c, 8, 73, 0
15, 341100, Note_on_c, 8, 69, 90
15, 341219, Note_on_c, 8, 69, 0
15, 341220, Note_on_c, 8, 74, 90
15, 341279, Note_on_c, 8, 74, 0
15, 341280, Note_on_c, 8, 76, 90
15, 341339, Note_on_c, 8, 76, 0
15, 341340, Note_on_c, 8, 78, 90
15, 341399, Note_on_c, 8, 78, 0
15, 341400, Note_on_c, 8, 79, 90
15, 341459, Note_on_c, 8, 79, 0
15, 341460, Note_on_c, 8, 81, 90
15, 341579, Note_on_c, 8, 81, 0
15, 341580, Note_on_c, 8, 83, 90
15, 341639, Note_on_c, 8, 83, 0
15, 341640, Note_on_c, 8, 81, 90
15, 341699, Note_on_c, 8, 81, 0
15, 341700, Note_on_c, 8, 79, 90
15, 341759, Note_on_c, 8, 79, 0
15, 341760, Note_on_c, 8, 78, 90
15, 341819, Note_on_c, 8, 78, 0
15, 341820, Note_on_c, 8, 76, 90
15, 341879, Note_on_c, 8, 76, 0
15, 341880, Note_on_c, 8, 78, 90
15, 341939, Note_on_c, 8, 78, 0
15, 341940, Note_on_c, 8, 74, 90
15, 342179, Note_on_c, 8, 74, 0
15, 343140, Note_on_c, 8, 83, 90
15, 343379, Note_on_c, 8, 83, 0
15, 343380, Note_on_c, 8, 78, 90
15, 343619, Note_on_c, 8, 78, 0
15, 344580, Note_on_c, 8, 81, 90
15, 344819, Note_on_c, 8, 81, 0
15, 344820, Note_on_c, 8, 76, 90
15, 345059, Note_on_c, 8, 76, 0
15, 346020, Note_on_c, 8, 81, 90
15, 346259, Note_on_c, 8, 81, 0
15, 346260, Note_on_c, 8, 76, 90
15, 346619, Note_on_c, 8, 76, 0
15, 346620, Note_on_c, 8, 78, 90
15, 346739, Note_on_c, 8, 78, 0
15, 346740, Note_on_c, 8, 76, 90
15, 346859, Note_on_c, 8, 76, 0
15, 346860, Note_on_c, 8, 74, 90
15, 346979, Note_on_c, 8, 74, 0
15, 346980, Note_on_c, 8, 73, 90
15, 347219, Note_on_c, 8, 73, 0
15, 347220, Note_on_c, 8, 71, 90
15, 347279, Note_on_c, 8, 71, 0
15, 347280, Note_on_c, 8, 69, 90
15, 347339, Note_on_c, 8, 69, 0
15, 347340, Note_on_c, 8, 71, 90
15, 347459, Note_on_c, 8, 71, 0
15, 347460, Note_on_c, 8, 69, 90
15, 347699, Note_on_c, 8, 69, 0
15, 347940, Note_on_c, 8, 74, 90
15, 348179, Note_on_c, 8, 74, 0
15, 348180, Note_on_c, 8, 69, 90
15, 348419, Note_on_c, 8, 69, 0
15, 348420, Note_on_c, 8, 57, 90
15, 348539, Note_on_c, 8, 57, 0
15, 348540, Note_on_c, 8, 57, 90
15, 348659, Note_on_c, 8, 57, 0
15, 348660, Note_on_c, 8, 57, 90
15, 348779, Note_on_c, 8, 57, 0
15, 348780, Note_on_c, 8, 57, 90
15, 348899, Note_on_c, 8, 57, 0
15, 348900, Note_on_c, 8, 57, 90
15, 349019, Note_on_c, 8, 57, 0
15, 349020, Note_on_c, 8, 57, 90
15, 349139, Note_on_c, 8, 57, 0
15, 349140, Note_on_c, 8, 57, 90
15, 349259, Note_on_c, 8, 57, 0
15, 349260, Note_on_c, 8, 57, 90
15, 349379, Note_on_c, 8, 57, 0
15, 349380, Note_on_c, 8, 78, 90
15, 349619, Note_on_c, 8, 78, 0
15, 349620, Note_on_c, 8, 74, 90
15, 349859, Note_on_c, 8, 74, 0
15, 350820, Note_on_c, 8, 81, 90
15, 351059, Note_on_c, 8, 81, 0
15, 351060, Note_on_c, 8, 78, 90
15, 351299, Note_on_c, 8, 78, 0
15, 351300, Note_on_c, 8, 74, 90
15, 351419, Note_on_c, 8, 74, 0
15, 351420, Note_on_c, 8, 69, 90
15, 351539, Note_on_c, 8, 69, 0
15, 351540, Note_on_c, 8, 78, 90
15, 351659, Note_on_c, 8, 78, 0
15, 351660, Note_on_c, 8, 74, 90
15, 351779, Note_on_c, 8, 74, 0
15, 351780, Note_on_c, 8, 81, 90
15, 351899, Note_on_c, 8, 81, 0
15, 351900, Note_on_c, 8, 78, 90
15, 352019, Note_on_c, 8, 78, 0
15, 352020, Note_on_c, 8, 86, 90
15, 352139, Note_on_c, 8, 86, 0
15, 352140, Note_on_c, 8, 81, 90
15, 352259, Note_on_c, 8, 81, 0
15, 352260, Note_on_c, 8, 78, 90
15, 352379, Note_on_c, 8, 78, 0
15, 352380, Note_on_c, 8, 78, 90
15, 352439, Note_on_c, 8, 78, 0
15, 352440, Note_on_c, 8, 76, 90
15, 352499, Note_on_c, 8, 76, 0
15, 352500, Note_on_c, 8, 79, 90
15, 352619, Note_on_c, 8, 79, 0
15, 352620, Note_on_c, 8, 78, 90
15, 352679, Note_on_c, 8, 78, 0
15, 352680, Note_on_c, 8, 76, 90
15, 352739, Note_on_c, 8, 76, 0
15, 352740, Note_on_c, 8, 78, 90
15, 352859, Note_on_c, 8, 78, 0
15, 352860, Note_on_c, 8, 76, 90
15, 352919, Note_on_c, 8, 76, 0
15, 352920, Note_on_c, 8, 74, 90
15, 352979, Note_on_c, 8, 74, 0
15, 352980, Note_on_c, 8, 73, 90
15, 353219, Note_on_c, 8, 73, 0
15, 353220, Note_on_c, 8, 73, 90
15, 353459, Note_on_c, 8, 73, 0
15, 353460, Note_on_c, 8, 69, 90
15, 353699, Note_on_c, 8, 69, 0
15, 353700, Note_on_c, 8, 81, 90
15, 353819, Note_on_c, 8, 81, 0
15, 353820, Note_on_c, 8, 81, 90
15, 353879, Note_on_c, 8, 81, 0
15, 353880, Note_on_c, 8, 80, 90
15, 353939, Note_on_c, 8, 80, 0
15, 353940, Note_on_c, 8, 83, 90
15, 354059, Note_on_c, 8, 83, 0
15, 354060, Note_on_c, 8, 81, 90
15, 354119, Note_on_c, 8, 81, 0
15, 354120, Note_on_c, 8, 80, 90
15, 354179, Note_on_c, 8, 80, 0
15, 354180, Note_on_c, 8, 81, 90
15, 354299, Note_on_c, 8, 81, 0
15, 354300, Note_on_c, 8, 81, 90
15, 354359, Note_on_c, 8, 81, 0
15, 354360, Note_on_c, 8, 80, 90
15, 354419, Note_on_c, 8, 80, 0
15, 354420, Note_on_c, 8, 83, 90
15, 354539, Note_on_c, 8, 83, 0
15, 354540, Note_on_c, 8, 81, 90
15, 354599, Note_on_c, 8, 81, 0
15, 354600, Note_on_c, 8, 80, 90
15, 354659, Note_on_c, 8, 80, 0
15, 354660, Note_on_c, 8, 81, 90
15, 354899, Note_on_c, 8, 81, 0
15, 354900, Note_on_c, 8, 76, 90
15, 355139, Note_on_c, 8, 76, 0
15, 356100, Note_on_c, 8, 76, 90
15, 356339, Note_on_c, 8, 76, 0
15, 356340, Note_on_c, 8, 73, 90
15, 356579, Note_on_c, 8, 73, 0
15, 356580, Note_on_c, 8, 73, 90
15, 356699, Note_on_c, 8, 73, 0
15, 356700, Note_on_c, 8, 69, 90
15, 356819, Note_on_c, 8, 69, 0
15, 356820, Note_on_c, 8, 76, 90
15, 356939, Note_on_c, 8, 76, 0
15, 356940, Note_on_c, 8, 73, 90
15, 357059, Note_on_c, 8, 73, 0
15, 357060, Note_on_c, 8, 79, 90
15, 357179, Note_on_c, 8, 79, 0
15, 357180, Note_on_c, 8, 76, 90
15, 357299, Note_on_c, 8, 76, 0
15, 357300, Note_on_c, 8, 73, 90
15, 357419, Note_on_c, 8, 73, 0
15, 357420, Note_on_c, 8, 69, 90
15, 357539, Note_on_c, 8, 69, 0
15, 357540, Note_on_c, 8, 74, 90
15, 357599, Note_on_c, 8, 74, 0
15, 357600, Note_on_c, 8, 76, 90
15, 357659, Note_on_c, 8, 76, 0
15, 357660, Note_on_c, 8, 78, 90
15, 357719, Note_on_c, 8, 78, 0
15, 357720, Note_on_c, 8, 79, 90
15, 357779, Note_on_c, 8, 79, 0
15, 357780, Note_on_c, 8, 81, 90
15, 357899, Note_on_c, 8, 81, 0
15, 357900, Note_on_c, 8, 83, 90
15, 357959, Note_on_c, 8, 83, 0
15, 357960, Note_on_c, 8, 81, 90
15, 358019, Note_on_c, 8, 81, 0
15, 358020, Note_on_c, 8, 79, 90
15, 358079, Note_on_c, 8, 79, 0
15, 358080, Note_on_c, 8, 78, 90
15, 358139, Note_on_c, 8, 78, 0
15, 358140, Note_on_c, 8, 76, 90
15, 358199, Note_on_c, 8, 76, 0
15, 358200, Note_on_c, 8, 78, 90
15, 358259, Note_on_c, 8, 78, 0
15, 358260, Note_on_c, 8, 74, 90
15, 358499, Note_on_c, 8, 74, 0
15, 359460, Note_on_c, 8, 81, 90
15, 359699, Note_on_c, 8, 81, 0
15, 359700, Note_on_c, 8, 76, 90
15, 359939, Note_on_c, 8, 76, 0
15, 360660, Note_on_c, 8, 73, 90
15, 361139, Note_on_c, 8, 73, 0
15, 361140, Note_on_c, 8, 71, 90
15, 361379, Note_on_c, 8, 71, 0
15, 361380, Note_on_c, 8, 69, 90
15, 361619, Note_on_c, 8, 69, 0
15, 361620, Note_on_c, 8, 68, 90
15, 361859, Note_on_c, 8, 68, 0
15, 361860, Note_on_c, 8, 66, 90
15, 362099, Note_on_c, 8, 66, 0
15, 362100, Note_on_c, 8, 65, 90
15, 362339, Note_on_c, 8, 65, 0
15, 362340, Note_on_c, 8, 66, 90
15, 362459, Note_on_c, 8, 66, 0
15, 362460, Note_on_c, 8, 73, 90
15, 362579, Note_on_c, 8, 73, 0
15, 362580, Note_on_c, 8, 78, 90
15, 362699, Note_on_c, 8, 78, 0
15, 362700, Note_on_c, 8, 76, 90
15, 362819, Note_on_c, 8, 76, 0
15, 362820, Note_on_c, 8, 74, 90
15, 362939, Note_on_c, 8, 74, 0
15, 362940, Note_on_c, 8, 73, 90
15, 363059, Note_on_c, 8, 73, 0
15, 363060, Note_on_c, 8, 71, 90
15, 363179, Note_on_c, 8, 71, 0
15, 363180, Note_on_c, 8, 69, 90
15, 363239, Note_on_c, 8, 69, 0
15, 363240, Note_on_c, 8, 68, 90
15, 363299, Note_on_c, 8, 68, 0
15, 363300, Note_on_c, 8, 69, 90
15, 363539, Note_on_c, 8, 69, 0
15, 363540, Note_on_c, 8, 68, 90
15, 363779, Note_on_c, 8, 68, 0
15, 363780, Note_on_c, 8, 66, 90
15, 364019, Note_on_c, 8, 66, 0
15, 364260, Note_on_c, 8, 74, 90
15, 364499, Note_on_c, 8, 74, 0
15, 364500, Note_on_c, 8, 69, 90
15, 364739, Note_on_c, 8, 69, 0
15, 364740, Note_on_c, 8, 66, 90
15, 364859, Note_on_c, 8, 66, 0
15, 364860, Note_on_c, 8, 66, 90
15, 364919, Note_on_c, 8, 66, 0
15, 364920, Note_on_c, 8, 64, 90
15, 364979, Note_on_c, 8, 64, 0
15, 364980, Note_on_c, 8, 67, 90
15, 365099, Note_on_c, 8, 67, 0
15, 365100, Note_on_c, 8, 66, 90
15, 365159, Note_on_c, 8, 66, 0
15, 365160, Note_on_c, 8, 64, 90
15, 365219, Note_on_c, 8, 64, 0
15, 365220, Note_on_c, 8, 66, 90
15, 365339, Note_on_c, 8, 66, 0
15, 365340, Note_on_c, 8, 66, 90
15, 365399, Note_on_c, 8, 66, 0
15, 365400, Note_on_c, 8, 64, 90
15, 365459, Note_on_c, 8, 64, 0
15, 365460, Note_on_c, 8, 67, 90
15, 365579, Note_on_c, 8, 67, 0
15, 365580, Note_on_c, 8, 66, 90
15, 365639, Note_on_c, 8, 66, 0
15, 365640, Note_on_c, 8, 64, 90
15, 365699, Note_on_c, 8, 64, 0
15, 365700, Note_on_c, 8, 74, 90
15, 365939, Note_on_c, 8, 74, 0
15, 365940, Note_on_c, 8, 69, 90
15, 366179, Note_on_c, 8, 69, 0
15, 366180, Note_on_c, 8, 69, 90
15, 366299, Note_on_c, 8, 69, 0
15, 366300, Note_on_c, 8, 69, 90
15, 366359, Note_on_c, 8, 69, 0
15, 366360, Note_on_c, 8, 67, 90
15, 366419, Note_on_c, 8, 67, 0
15, 366420, Note_on_c, 8, 71, 90
15, 366539, Note_on_c, 8, 71, 0
15, 366540, Note_on_c, 8, 69, 90
15, 366599, Note_on_c, 8, 69, 0
15, 366600, Note_on_c, 8, 67, 90
15, 366659, Note_on_c, 8, 67, 0
15, 366660, Note_on_c, 8, 69, 90
15, 366779, Note_on_c, 8, 69, 0
15, 366780, Note_on_c, 8, 69, 90
15, 366839, Note_on_c, 8, 69, 0
15, 366840, Note_on_c, 8, 67, 90
15, 366899, Note_on_c, 8, 67, 0
15, 366900, Note_on_c, 8, 71, 90
15, 367019, Note_on_c, 8, 71, 0
15, 367020, Note_on_c, 8, 69, 90
15, 367079, Note_on_c, 8, 69, 0
15, 367080, Note_on_c, 8, 67, 90
15, 367139, Note_on_c, 8, 67, 0
15, 367140, Note_on_c, 8, 74, 90
15, 367379, Note_on_c, 8, 74, 0
15, 367380, Note_on_c, 8, 69, 90
15, 367619, Note_on_c, 8, 69, 0
15, 367620, Note_on_c, 8, 66, 90
15, 367739, Note_on_c, 8, 66, 0
15, 367740, Note_on_c, 8, 62, 90
15, 367859, Note_on_c, 8, 62, 0
15, 367860, Note_on_c, 8, 69, 90
15, 367979, Note_on_c, 8, 69, 0
15, 367980, Note_on_c, 8, 66, 90
15, 368099, Note_on_c, 8, 66, 0
15, 368100, Note_on_c, 8, 74, 90
15, 368219, Note_on_c, 8, 74, 0
15, 368220, Note_on_c, 8, 69, 90
15, 368339, Note_on_c, 8, 69, 0
15, 368340, Note_on_c, 8, 66, 90
15, 368459, Note_on_c, 8, 66, 0
15, 368460, Note_on_c, 8, 62, 90
15, 368579, Note_on_c, 8, 62, 0
15, 368580, Note_on_c, 8, 69, 90
15, 368699, Note_on_c, 8, 69, 0
15, 368700, Note_on_c, 8, 69, 90
15, 368759, Note_on_c, 8, 69, 0
15, 368760, Note_on_c, 8, 67, 90
15, 368819, Note_on_c, 8, 67, 0
15, 368820, Note_on_c, 8, 71, 90
15, 368939, Note_on_c, 8, 71, 0
15, 368940, Note_on_c, 8, 69, 90
15, 368999, Note_on_c, 8, 69, 0
15, 369000, Note_on_c, 8, 67, 90
15, 369059, Note_on_c, 8, 67, 0
15, 369060, Note_on_c, 8, 69, 90
15, 369179, Note_on_c, 8, 69, 0
15, 369180, Note_on_c, 8, 67, 90
15, 369239, Note_on_c, 8, 67, 0
15, 369240, Note_on_c, 8, 66, 90
15, 369299, Note_on_c, 8, 66, 0
15, 369300, Note_on_c, 8, 64, 90
15, 369539, Note_on_c, 8, 64, 0
15, 369540, Note_on_c, 8, 76, 90
15, 369779, Note_on_c, 8, 76, 0
15, 369780, Note_on_c, 8, 73, 90
15, 370019, Note_on_c, 8, 73, 0
15, 370020, Note_on_c, 8, 61, 90
15, 370139, Note_on_c, 8, 61, 0
15, 370140, Note_on_c, 8, 61, 90
15, 370199, Note_on_c, 8, 61, 0
15, 370200, Note_on_c, 8, 59, 90
15, 370259, Note_on_c, 8, 59, 0
15, 370260, Note_on_c, 8, 62, 90
15, 370379, Note_on_c, 8, 62, 0
15, 370380, Note_on_c, 8, 61, 90
15, 370439, Note_on_c, 8, 61, 0
15, 370440, Note_on_c, 8, 59, 90
15, 370499, Note_on_c, 8, 59, 0
15, 370500, Note_on_c, 8, 61, 90
15, 370619, Note_on_c, 8, 61, 0
15, 370620, Note_on_c, 8, 61, 90
15, 370679, Note_on_c, 8, 61, 0
15, 370680, Note_on_c, 8, 59, 90
15, 370739, Note_on_c, 8, 59, 0
15, 370740, Note_on_c, 8, 62, 90
15, 370859, Note_on_c, 8, 62, 0
15, 370860, Note_on_c, 8, 61, 90
15, 370919, Note_on_c, 8, 61, 0
15, 370920, Note_on_c, 8, 59, 90
15, 370979, Note_on_c, 8, 59, 0
15, 370980, Note_on_c, 8, 73, 90
15, 371219, Note_on_c, 8, 73, 0
15, 371220, Note_on_c, 8, 69, 90
15, 371459, Note_on_c, 8, 69, 0
15, 371460, Note_on_c, 8, 64, 90
15, 371579, Note_on_c, 8, 64, 0
15, 371580, Note_on_c, 8, 64, 90
15, 371639, Note_on_c, 8, 64, 0
15, 371640, Note_on_c, 8, 62, 90
15, 371699, Note_on_c, 8, 62, 0
15, 371700, Note_on_c, 8, 66, 90
15, 371819, Note_on_c, 8, 66, 0
15, 371820, Note_on_c, 8, 64, 90
15, 371879, Note_on_c, 8, 64, 0
15, 371880, Note_on_c, 8, 62, 90
15, 371939, Note_on_c, 8, 62, 0
15, 371940, Note_on_c, 8, 64, 90
15, 372059, Note_on_c, 8, 64, 0
15, 372060, Note_on_c, 8, 64, 90
15, 372119, Note_on_c, 8, 64, 0
15, 372120, Note_on_c, 8, 62, 90
15, 372179, Note_on_c, 8, 62, 0
15, 372180, Note_on_c, 8, 66, 90
15, 372299, Note_on_c, 8, 66, 0
15, 372300, Note_on_c, 8, 64, 90
15, 372359, Note_on_c, 8, 64, 0
15, 372360, Note_on_c, 8, 62, 90
15, 372419, Note_on_c, 8, 62, 0
15, 372420, Note_on_c, 8, 69, 90
15, 372659, Note_on_c, 8, 69, 0
15, 372660, Note_on_c, 8, 64, 90
15, 372899, Note_on_c, 8, 64, 0
15, 372900, Note_on_c, 8, 61, 90
15, 373019, Note_on_c, 8, 61, 0
15, 373020, Note_on_c, 8, 57, 90
15, 373139, Note_on_c, 8, 57, 0
15, 373140, Note_on_c, 8, 64, 90
15, 373259, Note_on_c, 8, 64, 0
15, 373260, Note_on_c, 8, 61, 90
15, 373379, Note_on_c, 8, 61, 0
15, 373380, Note_on_c, 8, 67, 90
15, 373499, Note_on_c, 8, 67, 0
15, 373500, Note_on_c, 8, 64, 90
15, 373619, Note_on_c, 8, 64, 0
15, 373620, Note_on_c, 8, 61, 90
15, 373739, Note_on_c, 8, 61, 0
15, 373740, Note_on_c, 8, 57, 90
15, 373859, Note_on_c, 8, 57, 0
15, 373860, Note_on_c, 8, 62, 90
15, 373919, Note_on_c, 8, 62, 0
15, 373920, Note_on_c, 8, 64, 90
15, 373979, Note_on_c, 8, 64, 0
15, 373980, Note_on_c, 8, 66, 90
15, 374039, Note_on_c, 8, 66, 0
15, 374040, Note_on_c, 8, 67, 90
15, 374099, Note_on_c, 8, 67, 0
15, 374100, Note_on_c, 8, 69, 90
15, 374219, Note_on_c, 8, 69, 0
15, 374220, Note_on_c, 8, 71, 90
15, 374279, Note_on_c, 8, 71, 0
15, 374280, Note_on_c, 8, 69, 90
15, 374339, Note_on_c, 8, 69, 0
15, 374340, Note_on_c, 8, 67, 90
15, 374399, Note_on_c, 8, 67, 0
15, 374400, Note_on_c, 8, 66, 90
15, 374459, Note_on_c, 8, 66, 0
15, 374460, Note_on_c, 8, 64, 90
15, 374519, Note_on_c, 8, 64, 0
15, 374520, Note_on_c, 8, 66, 90
15, 374579, Note_on_c, 8, 66, 0
15, 374580, Note_on_c, 8, 62, 90
15, 374819, Note_on_c, 8, 62, 0
15, 375300, Note_on_c, 8, 66, 90
15, 375419, Note_on_c, 8, 66, 0
15, 375420, Note_on_c, 8, 66, 90
15, 375479, Note_on_c, 8, 66, 0
15, 375480, Note_on_c, 8, 64, 90
15, 375539, Note_on_c, 8, 64, 0
15, 375540, Note_on_c, 8, 67, 90
15, 375659, Note_on_c, 8, 67, 0
15, 375660, Note_on_c, 8, 66, 90
15, 375719, Note_on_c, 8, 66, 0
15, 375720, Note_on_c, 8, 64, 90
15, 375779, Note_on_c, 8, 64, 0
15, 375780, Note_on_c, 8, 66, 90
15, 375899, Note_on_c, 8, 66, 0
15, 375900, Note_on_c, 8, 66, 90
15, 375959, Note_on_c, 8, 66, 0
15, 375960, Note_on_c, 8, 64, 90
15, 376019, Note_on_c, 8, 64, 0
15, 376020, Note_on_c, 8, 67, 90
15, 376139, Note_on_c, 8, 67, 0
15, 376140, Note_on_c, 8, 66, 90
15, 376199, Note_on_c, 8, 66, 0
15, 376200, Note_on_c, 8, 64, 90
15, 376259, Note_on_c, 8, 64, 0
15, 376260, Note_on_c, 8, 66, 90
15, 376499, Note_on_c, 8, 66, 0
15, 376740, Note_on_c, 8, 69, 90
15, 376859, Note_on_c, 8, 69, 0
15, 376860, Note_on_c, 8, 69, 90
15, 376919, Note_on_c, 8, 69, 0
15, 376920, Note_on_c, 8, 67, 90
15, 376979, Note_on_c, 8, 67, 0
15, 376980, Note_on_c, 8, 71, 90
15, 377099, Note_on_c, 8, 71, 0
15, 377100, Note_on_c, 8, 69, 90
15, 377159, Note_on_c, 8, 69, 0
15, 377160, Note_on_c, 8, 67, 90
15, 377219, Note_on_c, 8, 67, 0
15, 377220, Note_on_c, 8, 69, 90
15, 377339, Note_on_c, 8, 69, 0
15, 377340, Note_on_c, 8, 69, 90
15, 377399, Note_on_c, 8, 69, 0
15, 377400, Note_on_c, 8, 67, 90
15, 377459, Note_on_c, 8, 67, 0
15, 377460, Note_on_c, 8, 71, 90
15, 377579, Note_on_c, 8, 71, 0
15, 377580, Note_on_c, 8, 69, 90
15, 377639, Note_on_c, 8, 69, 0
15, 377640, Note_on_c, 8, 67, 90
15, 377699, Note_on_c, 8, 67, 0
15, 377700, Note_on_c, 8, 74, 90
15, 377939, Note_on_c, 8, 74, 0
15, 377940, Note_on_c, 8, 69, 90
15, 378179, Note_on_c, 8, 69, 0
15, 378180, Note_on_c, 8, 69, 90
15, 378299, Note_on_c, 8, 69, 0
15, 378300, Note_on_c, 8, 66, 90
15, 378419, Note_on_c, 8, 66, 0
15, 378420, Note_on_c, 8, 74, 90
15, 378539, Note_on_c, 8, 74, 0
15, 378540, Note_on_c, 8, 69, 90
15, 378659, Note_on_c, 8, 69, 0
15, 378660, Note_on_c, 8, 78, 90
15, 378779, Note_on_c, 8, 78, 0
15, 378780, Note_on_c, 8, 74, 90
15, 378899, Note_on_c, 8, 74, 0
15, 378900, Note_on_c, 8, 81, 90
15, 379019, Note_on_c, 8, 81, 0
15, 379020, Note_on_c, 8, 78, 90
15, 379139, Note_on_c, 8, 78, 0
15, 379140, Note_on_c, 8, 78, 90
15, 379259, Note_on_c, 8, 78, 0
15, 379260, Note_on_c, 8, 78, 90
15, 379319, Note_on_c, 8, 78, 0
15, 379320, Note_on_c, 8, 76, 90
15, 379379, Note_on_c, 8, 76, 0
15, 379380, Note_on_c, 8, 79, 90
15, 379499, Note_on_c, 8, 79, 0
15, 379500, Note_on_c, 8, 78, 90
15, 379559, Note_on_c, 8, 78, 0
15, 379560, Note_on_c, 8, 76, 90
15, 379619, Note_on_c, 8, 76, 0
15, 379620, Note_on_c, 8, 78, 90
15, 379739, Note_on_c, 8, 78, 0
15, 379740, Note_on_c, 8, 76, 90
15, 379799, Note_on_c, 8, 76, 0
15, 379800, Note_on_c, 8, 74, 90
15, 379859, Note_on_c, 8, 74, 0
15, 379860, Note_on_c, 8, 73, 90
15, 380099, Note_on_c, 8, 73, 0
15, 382020, Note_on_c, 8, 64, 90
15, 382139, Note_on_c, 8, 64, 0
15, 382140, Note_on_c, 8, 64, 90
15, 382199, Note_on_c, 8, 64, 0
15, 382200, Note_on_c, 8, 62, 90
15, 382259, Note_on_c, 8, 62, 0
15, 382260, Note_on_c, 8, 66, 90
15, 382379, Note_on_c, 8, 66, 0
15, 382380, Note_on_c, 8, 64, 90
15, 382439, Note_on_c, 8, 64, 0
15, 382440, Note_on_c, 8, 62, 90
15, 382499, Note_on_c, 8, 62, 0
15, 382500, Note_on_c, 8, 64, 90
15, 382619, Note_on_c, 8, 64, 0
15, 382620, Note_on_c, 8, 64, 90
15, 382679, Note_on_c, 8, 64, 0
15, 382680, Note_on_c, 8, 62, 90
15, 382739, Note_on_c, 8, 62, 0
15, 382740, Note_on_c, 8, 66, 90
15, 382859, Note_on_c, 8, 66, 0
15, 382860, Note_on_c, 8, 64, 90
15, 382919, Note_on_c, 8, 64, 0
15, 382920, Note_on_c, 8, 62, 90
15, 382979, Note_on_c, 8, 62, 0
15, 382980, Note_on_c, 8, 81, 90
15, 383219, Note_on_c, 8, 81, 0
15, 383220, Note_on_c, 8, 76, 90
15, 383459, Note_on_c, 8, 76, 0
15, 383460, Note_on_c, 8, 73, 90
15, 383579, Note_on_c, 8, 73, 0
15, 383580, Note_on_c, 8, 69, 90
15, 383699, Note_on_c, 8, 69, 0
15, 383700, Note_on_c, 8, 76, 90
15, 383819, Note_on_c, 8, 76, 0
15, 383820, Note_on_c, 8, 73, 90
15, 383939, Note_on_c, 8, 73, 0
15, 383940, Note_on_c, 8, 79, 90
15, 384059, Note_on_c, 8, 79, 0
15, 384060, Note_on_c, 8, 76, 90
15, 384179, Note_on_c, 8, 76, 0
15, 384180, Note_on_c, 8, 73, 90
15, 384299, Note_on_c, 8, 73, 0
15, 384300, Note_on_c, 8, 69, 90
15, 384419, Note_on_c, 8, 69, 0
15, 384420, Note_on_c, 8, 74, 90
15, 384479, Note_on_c, 8, 74, 0
15, 384480, Note_on_c, 8, 76, 90
15, 384539, Note_on_c, 8, 76, 0
15, 384540, Note_on_c, 8, 78, 90
15, 384599, Note_on_c, 8, 78, 0
15, 384600, Note_on_c, 8, 79, 90
15, 384659, Note_on_c, 8, 79, 0
15, 384660, Note_on_c, 8, 81, 90
15, 384779, Note_on_c, 8, 81, 0
15, 384780, Note_on_c, 8, 83, 90
15, 384839, Note_on_c, 8, 83, 0
15, 384840, Note_on_c, 8, 81, 90
15, 384899, Note_on_c, 8, 81, 0
15, 384900, Note_on_c, 8, 79, 90
15, 384959, Note_on_c, 8, 79, 0
15, 384960, Note_on_c, 8, 78, 90
15, 385019, Note_on_c, 8, 78, 0
15, 385020, Note_on_c, 8, 76, 90
15, 385079, Note_on_c, 8, 76, 0
15, 385080, Note_on_c, 8, 78, 90
15, 385139, Note_on_c, 8, 78, 0
15, 385140, Note_on_c, 8, 74, 90
15, 385379, Note_on_c, 8, 74, 0
15, 385379, End_track
16, 0, Start_track
16, 0, MIDI_port, 0
16, 0, Title_t, "violin ii"
16, 0, Program_c, 10, 48
16, 120, Note_on_c, 10, 62, 80
16, 180, Note_on_c, 10, 62, 0
16, 180, Note_on_c, 10, 57, 80
16, 240, Note_on_c, 10, 57, 0
16, 480, Note_on_c, 10, 66, 80
16, 540, Note_on_c, 10, 66, 0
16, 540, Note_on_c, 10, 62, 80
16, 600, Note_on_c, 10, 62, 0
16, 840, Note_on_c, 10, 69, 80
16, 900, Note_on_c, 10, 69, 0
16, 900, Note_on_c, 10, 66, 80
16, 960, Note_on_c, 10, 66, 0
16, 1110, Note_on_c, 10, 57, 80
16, 1140, Note_on_c, 10, 57, 0
16, 1140, Note_on_c, 10, 59, 80
16, 1170, Note_on_c, 10, 59, 0
16, 1170, Note_on_c, 10, 61, 80
16, 1200, Note_on_c, 10, 61, 0
16, 1200, Note_on_c, 10, 62, 80
16, 1230, Note_on_c, 10, 62, 0
16, 1230, Note_on_c, 10, 64, 80
16, 1260, Note_on_c, 10, 64, 0
16, 1260, Note_on_c, 10, 66, 80
16, 1290, Note_on_c, 10, 66, 0
16, 1290, Note_on_c, 10, 67, 80
16, 1320, Note_on_c, 10, 67, 0
16, 1320, Note_on_c, 10, 69, 80
16, 1350, Note_on_c, 10, 69, 0
16, 1350, Note_on_c, 10, 67, 80
16, 1380, Note_on_c, 10, 67, 0
16, 1380, Note_on_c, 10, 69, 80
16, 1410, Note_on_c, 10, 69, 0
16, 1410, Note_on_c, 10, 67, 80
16, 1440, Note_on_c, 10, 67, 0
16, 1440, Note_on_c, 10, 69, 90
16, 1469, Note_on_c, 10, 69, 0
16, 1470, Note_on_c, 10, 78, 90
16, 1499, Note_on_c, 10, 78, 0
16, 1500, Note_on_c, 10, 76, 90
16, 1529, Note_on_c, 10, 76, 0
16, 1530, Note_on_c, 10, 74, 90
16, 1559, Note_on_c, 10, 74, 0
16, 1560, Note_on_c, 10, 73, 90
16, 1589, Note_on_c, 10, 73, 0
16, 1590, Note_on_c, 10, 71, 90
16, 1619, Note_on_c, 10, 71, 0
16, 1620, Note_on_c, 10, 69, 90
16, 1649, Note_on_c, 10, 69, 0
16, 1650, Note_on_c, 10, 67, 90
16, 1679, Note_on_c, 10, 67, 0
16, 1680, Note_on_c, 10, 66, 90
16, 1739, Note_on_c, 10, 66, 0
16, 1830, Note_on_c, 10, 74, 90
16, 1859, Note_on_c, 10, 74, 0
16, 1860, Note_on_c, 10, 73, 90
16, 1889, Note_on_c, 10, 73, 0
16, 1890, Note_on_c, 10, 71, 90
16, 1919, Note_on_c, 10, 71, 0
16, 1920, Note_on_c, 10, 69, 90
16, 1949, Note_on_c, 10, 69, 0
16, 1950, Note_on_c, 10, 67, 90
16, 1979, Note_on_c, 10, 67, 0
16, 1980, Note_on_c, 10, 66, 90
16, 2009, Note_on_c, 10, 66, 0
16, 2010, Note_on_c, 10, 64, 90
16, 2039, Note_on_c, 10, 64, 0
16, 2040, Note_on_c, 10, 62, 90
16, 2099, Note_on_c, 10, 62, 0
16, 2220, Note_on_c, 10, 76, 90
16, 2249, Note_on_c, 10, 76, 0
16, 2250, Note_on_c, 10, 78, 90
16, 2279, Note_on_c, 10, 78, 0
16, 2280, Note_on_c, 10, 80, 90
16, 2309, Note_on_c, 10, 80, 0
16, 2310, Note_on_c, 10, 81, 90
16, 2339, Note_on_c, 10, 81, 0
16, 2340, Note_on_c, 10, 80, 90
16, 2369, Note_on_c, 10, 80, 0
16, 2370, Note_on_c, 10, 81, 90
16, 2399, Note_on_c, 10, 81, 0
16, 2400, Note_on_c, 10, 83, 90
16, 2429, Note_on_c, 10, 83, 0
16, 2430, Note_on_c, 10, 85, 90
16, 2459, Note_on_c, 10, 85, 0
16, 2460, Note_on_c, 10, 81, 90
16, 2489, Note_on_c, 10, 81, 0
16, 2490, Note_on_c, 10, 83, 90
16, 2519, Note_on_c, 10, 83, 0
16, 2520, Note_on_c, 10, 85, 90
16, 2549, Note_on_c, 10, 85, 0
16, 2550, Note_on_c, 10, 86, 90
16, 2579, Note_on_c, 10, 86, 0
16, 2580, Note_on_c, 10, 85, 90
16, 2609, Note_on_c, 10, 85, 0
16, 2610, Note_on_c, 10, 83, 90
16, 2639, Note_on_c, 10, 83, 0
16, 2640, Note_on_c, 10, 81, 90
16, 2669, Note_on_c, 10, 81, 0
16, 2670, Note_on_c, 10, 80, 90
16, 2699, Note_on_c, 10, 80, 0
16, 2700, Note_on_c, 10, 81, 90
16, 2729, Note_on_c, 10, 81, 0
16, 2730, Note_on_c, 10, 78, 90
16, 2759, Note_on_c, 10, 78, 0
16, 2760, Note_on_c, 10, 80, 90
16, 2849, Note_on_c, 10, 80, 0
16, 2850, Note_on_c, 10, 76, 90
16, 2879, Note_on_c, 10, 76, 0
16, 2880, Note_on_c, 10, 76, 90
16, 2909, Note_on_c, 10, 76, 0
16, 2910, Note_on_c, 10, 57, 90
16, 2939, Note_on_c, 10, 57, 0
16, 2940, Note_on_c, 10, 59, 90
16, 2969, Note_on_c, 10, 59, 0
16, 2970, Note_on_c, 10, 61, 90
16, 2999, Note_on_c, 10, 61, 0
16, 3000, Note_on_c, 10, 62, 90
16, 3029, Note_on_c, 10, 62, 0
16, 3030, Note_on_c, 10, 64, 90
16, 3059, Note_on_c, 10, 64, 0
16, 3060, Note_on_c, 10, 66, 90
16, 3089, Note_on_c, 10, 66, 0
16, 3090, Note_on_c, 10, 67, 90
16, 3119, Note_on_c, 10, 67, 0
16, 3120, Note_on_c, 10, 69, 90
16, 3149, Note_on_c, 10, 69, 0
16, 3150, Note_on_c, 10, 67, 90
16, 3179, Note_on_c, 10, 67, 0
16, 3180, Note_on_c, 10, 69, 90
16, 3209, Note_on_c, 10, 69, 0
16, 3210, Note_on_c, 10, 67, 90
16, 3239, Note_on_c, 10, 67, 0
16, 3240, Note_on_c, 10, 66, 90
16, 3299, Note_on_c, 10, 66, 0
16, 3300, Note_on_c, 10, 66, 90
16, 3359, Note_on_c, 10, 66, 0
16, 3360, Note_on_c, 10, 66, 90
16, 3419, Note_on_c, 10, 66, 0
16, 3420, Note_on_c, 10, 66, 90
16, 3479, Note_on_c, 10, 66, 0
16, 3480, Note_on_c, 10, 66, 90
16, 3539, Note_on_c, 10, 66, 0
16, 3540, Note_on_c, 10, 67, 90
16, 3569, Note_on_c, 10, 67, 0
16, 3570, Note_on_c, 10, 69, 90
16, 3599, Note_on_c, 10, 69, 0
16, 3600, Note_on_c, 10, 71, 90
16, 3629, Note_on_c, 10, 71, 0
16, 3630, Note_on_c, 10, 66, 90
16, 3659, Note_on_c, 10, 66, 0
16, 3660, Note_on_c, 10, 67, 90
16, 3689, Note_on_c, 10, 67, 0
16, 3690, Note_on_c, 10, 69, 90
16, 3719, Note_on_c, 10, 69, 0
16, 3720, Note_on_c, 10, 71, 90
16, 3749, Note_on_c, 10, 71, 0
16, 3750, Note_on_c, 10, 73, 90
16, 3779, Note_on_c, 10, 73, 0
16, 3780, Note_on_c, 10, 75, 90
16, 3809, Note_on_c, 10, 75, 0
16, 3810, Note_on_c, 10, 76, 90
16, 3839, Note_on_c, 10, 76, 0
16, 3840, Note_on_c, 10, 78, 90
16, 3869, Note_on_c, 10, 78, 0
16, 3870, Note_on_c, 10, 79, 90
16, 3899, Note_on_c, 10, 79, 0
16, 3900, Note_on_c, 10, 76, 90
16, 3929, Note_on_c, 10, 76, 0
16, 3930, Note_on_c, 10, 78, 90
16, 3959, Note_on_c, 10, 78, 0
16, 3960, Note_on_c, 10, 79, 90
16, 4019, Note_on_c, 10, 79, 0
16, 4350, Note_on_c, 10, 64, 90
16, 4379, Note_on_c, 10, 64, 0
16, 4380, Note_on_c, 10, 66, 90
16, 4409, Note_on_c, 10, 66, 0
16, 4410, Note_on_c, 10, 67, 90
16, 4439, Note_on_c, 10, 67, 0
16, 4440, Note_on_c, 10, 69, 90
16, 4469, Note_on_c, 10, 69, 0
16, 4470, Note_on_c, 10, 71, 90
16, 4499, Note_on_c, 10, 71, 0
16, 4500, Note_on_c, 10, 73, 90
16, 4529, Note_on_c, 10, 73, 0
16, 4530, Note_on_c, 10, 74, 90
16, 4559, Note_on_c, 10, 74, 0
16, 4560, Note_on_c, 10, 76, 90
16, 4589, Note_on_c, 10, 76, 0
16, 4590, Note_on_c, 10, 74, 90
16, 4619, Note_on_c, 10, 74, 0
16, 4620, Note_on_c, 10, 76, 90
16, 4649, Note_on_c, 10, 76, 0
16, 4650, Note_on_c, 10, 74, 90
16, 4679, Note_on_c, 10, 74, 0
16, 4680, Note_on_c, 10, 73, 90
16, 4709, Note_on_c, 10, 73, 0
16, 4710, Note_on_c, 10, 64, 90
16, 4739, Note_on_c, 10, 64, 0
16, 4740, Note_on_c, 10, 66, 90
16, 4769, Note_on_c, 10, 66, 0
16, 4770, Note_on_c, 10, 67, 90
16, 4799, Note_on_c, 10, 67, 0
16, 4800, Note_on_c, 10, 69, 90
16, 4829, Note_on_c, 10, 69, 0
16, 4830, Note_on_c, 10, 71, 90
16, 4859, Note_on_c, 10, 71, 0
16, 4860, Note_on_c, 10, 73, 90
16, 4889, Note_on_c, 10, 73, 0
16, 4890, Note_on_c, 10, 74, 90
16, 4919, Note_on_c, 10, 74, 0
16, 4920, Note_on_c, 10, 76, 90
16, 4949, Note_on_c, 10, 76, 0
16, 4950, Note_on_c, 10, 78, 90
16, 4979, Note_on_c, 10, 78, 0
16, 4980, Note_on_c, 10, 74, 90
16, 5009, Note_on_c, 10, 74, 0
16, 5010, Note_on_c, 10, 76, 90
16, 5039, Note_on_c, 10, 76, 0
16, 5040, Note_on_c, 10, 78, 90
16, 5069, Note_on_c, 10, 78, 0
16, 5070, Note_on_c, 10, 69, 90
16, 5099, Note_on_c, 10, 69, 0
16, 5100, Note_on_c, 10, 67, 90
16, 5129, Note_on_c, 10, 67, 0
16, 5130, Note_on_c, 10, 66, 90
16, 5159, Note_on_c, 10, 66, 0
16, 5160, Note_on_c, 10, 64, 90
16, 5189, Note_on_c, 10, 64, 0
16, 5190, Note_on_c, 10, 62, 90
16, 5219, Note_on_c, 10, 62, 0
16, 5220, Note_on_c, 10, 61, 90
16, 5249, Note_on_c, 10, 61, 0
16, 5250, Note_on_c, 10, 59, 90
16, 5279, Note_on_c, 10, 59, 0
16, 5280, Note_on_c, 10, 57, 90
16, 5339, Note_on_c, 10, 57, 0
16, 5460, Note_on_c, 10, 64, 90
16, 5519, Note_on_c, 10, 64, 0
16, 5520, Note_on_c, 10, 64, 90
16, 5579, Note_on_c, 10, 64, 0
16, 5580, Note_on_c, 10, 64, 90
16, 5639, Note_on_c, 10, 64, 0
16, 5640, Note_on_c, 10, 64, 90
16, 5699, Note_on_c, 10, 64, 0
16, 5700, Note_on_c, 10, 66, 90
16, 5729, Note_on_c, 10, 66, 0
16, 5730, Note_on_c, 10, 67, 90
16, 5759, Note_on_c, 10, 67, 0
16, 5760, Note_on_c, 10, 61, 90
16, 5819, Note_on_c, 10, 61, 0
16, 5820, Note_on_c, 10, 62, 90
16, 5879, Note_on_c, 10, 62, 0
16, 5880, Note_on_c, 10, 62, 90
16, 5939, Note_on_c, 10, 62, 0
16, 5940, Note_on_c, 10, 62, 90
16, 5999, Note_on_c, 10, 62, 0
16, 6000, Note_on_c, 10, 62, 90
16, 6059, Note_on_c, 10, 62, 0
16, 6060, Note_on_c, 10, 64, 90
16, 6089, Note_on_c, 10, 64, 0
16, 6090, Note_on_c, 10, 66, 90
16, 6119, Note_on_c, 10, 66, 0
16, 6120, Note_on_c, 10, 59, 90
16, 6179, Note_on_c, 10, 59, 0
16, 6180, Note_on_c, 10, 61, 90
16, 6239, Note_on_c, 10, 61, 0
16, 6240, Note_on_c, 10, 61, 90
16, 6299, Note_on_c, 10, 61, 0
16, 6300, Note_on_c, 10, 61, 90
16, 6359, Note_on_c, 10, 61, 0
16, 6360, Note_on_c, 10, 61, 90
16, 6419, Note_on_c, 10, 61, 0
16, 6420, Note_on_c, 10, 62, 90
16, 6449, Note_on_c, 10, 62, 0
16, 6450, Note_on_c, 10, 64, 90
16, 6479, Note_on_c, 10, 64, 0
16, 6480, Note_on_c, 10, 57, 90
16, 6539, Note_on_c, 10, 57, 0
16, 6750, Note_on_c, 10, 69, 90
16, 6779, Note_on_c, 10, 69, 0
16, 6780, Note_on_c, 10, 71, 90
16, 6809, Note_on_c, 10, 71, 0
16, 6810, Note_on_c, 10, 73, 90
16, 6839, Note_on_c, 10, 73, 0
16, 6840, Note_on_c, 10, 74, 90
16, 6869, Note_on_c, 10, 74, 0
16, 6870, Note_on_c, 10, 72, 90
16, 6899, Note_on_c, 10, 72, 0
16, 6900, Note_on_c, 10, 71, 90
16, 6929, Note_on_c, 10, 71, 0
16, 6930, Note_on_c, 10, 69, 90
16, 6959, Note_on_c, 10, 69, 0
16, 6960, Note_on_c, 10, 68, 90
16, 7019, Note_on_c, 10, 68, 0
16, 7110, Note_on_c, 10, 66, 90
16, 7139, Note_on_c, 10, 66, 0
16, 7140, Note_on_c, 10, 68, 90
16, 7169, Note_on_c, 10, 68, 0
16, 7170, Note_on_c, 10, 69, 90
16, 7199, Note_on_c, 10, 69, 0
16, 7200, Note_on_c, 10, 71, 90
16, 7229, Note_on_c, 10, 71, 0
16, 7230, Note_on_c, 10, 69, 90
16, 7259, Note_on_c, 10, 69, 0
16, 7260, Note_on_c, 10, 68, 90
16, 7289, Note_on_c, 10, 68, 0
16, 7290, Note_on_c, 10, 66, 90
16, 7319, Note_on_c, 10, 66, 0
16, 7320, Note_on_c, 10, 64, 90
16, 7379, Note_on_c, 10, 64, 0
16, 7470, Note_on_c, 10, 64, 90
16, 7499, Note_on_c, 10, 64, 0
16, 7500, Note_on_c, 10, 66, 90
16, 7529, Note_on_c, 10, 66, 0
16, 7530, Note_on_c, 10, 68, 90
16, 7559, Note_on_c, 10, 68, 0
16, 7560, Note_on_c, 10, 69, 90
16, 7619, Note_on_c, 10, 69, 0
16, 7620, Note_on_c, 10, 73, 90
16, 7679, Note_on_c, 10, 73, 0
16, 7800, Note_on_c, 10, 73, 90
16, 7859, Note_on_c, 10, 73, 0
16, 7860, Note_on_c, 10, 69, 90
16, 7919, Note_on_c, 10, 69, 0
16, 8160, Note_on_c, 10, 74, 90
16, 8219, Note_on_c, 10, 74, 0
16, 8220, Note_on_c, 10, 69, 90
16, 8279, Note_on_c, 10, 69, 0
16, 8520, Note_on_c, 10, 73, 90
16, 8579, Note_on_c, 10, 73, 0
16, 8580, Note_on_c, 10, 69, 90
16, 8639, Note_on_c, 10, 69, 0
16, 8640, Note_on_c, 10, 62, 90
16, 8670, Note_on_c, 10, 62, 0
16, 8670, Note_on_c, 10, 78, 90
16, 8700, Note_on_c, 10, 78, 0
16, 8700, Note_on_c, 10, 76, 90
16, 8730, Note_on_c, 10, 76, 0
16, 8730, Note_on_c, 10, 74, 90
16, 8760, Note_on_c, 10, 74, 0
16, 8760, Note_on_c, 10, 73, 90
16, 8790, Note_on_c, 10, 73, 0
16, 8790, Note_on_c, 10, 71, 90
16, 8820, Note_on_c, 10, 71, 0
16, 8820, Note_on_c, 10, 69, 90
16, 8850, Note_on_c, 10, 69, 0
16, 8850, Note_on_c, 10, 67, 90
16, 8880, Note_on_c, 10, 67, 0
16, 8880, Note_on_c, 10, 66, 90
16, 8940, Note_on_c, 10, 66, 0
16, 9030, Note_on_c, 10, 74, 90
16, 9059, Note_on_c, 10, 74, 0
16, 9060, Note_on_c, 10, 73, 90
16, 9089, Note_on_c, 10, 73, 0
16, 9090, Note_on_c, 10, 71, 90
16, 9119, Note_on_c, 10, 71, 0
16, 9120, Note_on_c, 10, 69, 90
16, 9149, Note_on_c, 10, 69, 0
16, 9150, Note_on_c, 10, 67, 90
16, 9179, Note_on_c, 10, 67, 0
16, 9180, Note_on_c, 10, 66, 90
16, 9209, Note_on_c, 10, 66, 0
16, 9210, Note_on_c, 10, 64, 90
16, 9239, Note_on_c, 10, 64, 0
16, 9240, Note_on_c, 10, 62, 90
16, 9299, Note_on_c, 10, 62, 0
16, 9420, Note_on_c, 10, 74, 90
16, 9479, Note_on_c, 10, 74, 0
16, 9480, Note_on_c, 10, 76, 90
16, 9509, Note_on_c, 10, 76, 0
16, 9510, Note_on_c, 10, 78, 90
16, 9539, Note_on_c, 10, 78, 0
16, 9540, Note_on_c, 10, 76, 90
16, 9569, Note_on_c, 10, 76, 0
16, 9570, Note_on_c, 10, 78, 90
16, 9599, Note_on_c, 10, 78, 0
16, 9600, Note_on_c, 10, 79, 90
16, 9629, Note_on_c, 10, 79, 0
16, 9630, Note_on_c, 10, 81, 90
16, 9659, Note_on_c, 10, 81, 0
16, 9660, Note_on_c, 10, 78, 90
16, 9689, Note_on_c, 10, 78, 0
16, 9690, Note_on_c, 10, 79, 90
16, 9719, Note_on_c, 10, 79, 0
16, 9720, Note_on_c, 10, 81, 90
16, 9749, Note_on_c, 10, 81, 0
16, 9750, Note_on_c, 10, 79, 90
16, 9779, Note_on_c, 10, 79, 0
16, 9780, Note_on_c, 10, 78, 90
16, 9809, Note_on_c, 10, 78, 0
16, 9810, Note_on_c, 10, 76, 90
16, 9839, Note_on_c, 10, 76, 0
16, 9840, Note_on_c, 10, 74, 90
16, 9869, Note_on_c, 10, 74, 0
16, 9870, Note_on_c, 10, 73, 90
16, 9899, Note_on_c, 10, 73, 0
16, 9900, Note_on_c, 10, 74, 90
16, 9929, Note_on_c, 10, 74, 0
16, 9930, Note_on_c, 10, 71, 90
16, 9959, Note_on_c, 10, 71, 0
16, 9960, Note_on_c, 10, 73, 90
16, 10049, Note_on_c, 10, 73, 0
16, 10050, Note_on_c, 10, 69, 90
16, 10079, Note_on_c, 10, 69, 0
16, 10080, Note_on_c, 10, 69, 90
16, 10199, Note_on_c, 10, 69, 0
16, 10320, Note_on_c, 10, 78, 90
16, 10379, Note_on_c, 10, 78, 0
16, 10380, Note_on_c, 10, 74, 90
16, 10439, Note_on_c, 10, 74, 0
16, 10680, Note_on_c, 10, 66, 90
16, 10739, Note_on_c, 10, 66, 0
16, 10740, Note_on_c, 10, 62, 90
16, 10799, Note_on_c, 10, 62, 0
16, 11040, Note_on_c, 10, 74, 90
16, 11099, Note_on_c, 10, 74, 0
16, 11100, Note_on_c, 10, 69, 90
16, 11159, Note_on_c, 10, 69, 0
16, 11400, Note_on_c, 10, 62, 90
16, 11459, Note_on_c, 10, 62, 0
16, 11460, Note_on_c, 10, 59, 90
16, 11519, Note_on_c, 10, 59, 0
16, 11580, Note_on_c, 10, 74, 90
16, 11639, Note_on_c, 10, 74, 0
16, 11640, Note_on_c, 10, 69, 90
16, 11669, Note_on_c, 10, 69, 0
16, 11670, Note_on_c, 10, 67, 90
16, 11699, Note_on_c, 10, 67, 0
16, 11700, Note_on_c, 10, 66, 90
16, 11729, Note_on_c, 10, 66, 0
16, 11730, Note_on_c, 10, 64, 90
16, 11759, Note_on_c, 10, 64, 0
16, 11760, Note_on_c, 10, 66, 90
16, 11789, Note_on_c, 10, 66, 0
16, 11790, Note_on_c, 10, 62, 90
16, 11819, Note_on_c, 10, 62, 0
16, 11820, Note_on_c, 10, 64, 90
16, 11849, Note_on_c, 10, 64, 0
16, 11850, Note_on_c, 10, 69, 90
16, 11879, Note_on_c, 10, 69, 0
16, 11880, Note_on_c, 10, 73, 90
16, 11999, Note_on_c, 10, 73, 0
16, 12120, Note_on_c, 10, 73, 90
16, 12179, Note_on_c, 10, 73, 0
16, 12180, Note_on_c, 10, 69, 90
16, 12239, Note_on_c, 10, 69, 0
16, 12480, Note_on_c, 10, 74, 90
16, 12539, Note_on_c, 10, 74, 0
16, 12540, Note_on_c, 10, 69, 90
16, 12599, Note_on_c, 10, 69, 0
16, 12840, Note_on_c, 10, 73, 90
16, 12899, Note_on_c, 10, 73, 0
16, 12900, Note_on_c, 10, 69, 90
16, 12959, Note_on_c, 10, 69, 0
16, 12960, Note_on_c, 10, 62, 90
16, 12989, Note_on_c, 10, 62, 0
16, 12990, Note_on_c, 10, 78, 90
16, 13019, Note_on_c, 10, 78, 0
16, 13020, Note_on_c, 10, 76, 90
16, 13049, Note_on_c, 10, 76, 0
16, 13050, Note_on_c, 10, 74, 90
16, 13079, Note_on_c, 10, 74, 0
16, 13080, Note_on_c, 10, 73, 90
16, 13109, Note_on_c, 10, 73, 0
16, 13110, Note_on_c, 10, 71, 90
16, 13139, Note_on_c, 10, 71, 0
16, 13140, Note_on_c, 10, 69, 90
16, 13169, Note_on_c, 10, 69, 0
16, 13170, Note_on_c, 10, 67, 90
16, 13199, Note_on_c, 10, 67, 0
16, 13200, Note_on_c, 10, 66, 90
16, 13259, Note_on_c, 10, 66, 0
16, 13350, Note_on_c, 10, 74, 90
16, 13379, Note_on_c, 10, 74, 0
16, 13380, Note_on_c, 10, 73, 90
16, 13409, Note_on_c, 10, 73, 0
16, 13410, Note_on_c, 10, 71, 90
16, 13439, Note_on_c, 10, 71, 0
16, 13440, Note_on_c, 10, 69, 90
16, 13469, Note_on_c, 10, 69, 0
16, 13470, Note_on_c, 10, 67, 90
16, 13499, Note_on_c, 10, 67, 0
16, 13500, Note_on_c, 10, 66, 90
16, 13529, Note_on_c, 10, 66, 0
16, 13530, Note_on_c, 10, 64, 90
16, 13559, Note_on_c, 10, 64, 0
16, 13560, Note_on_c, 10, 62, 90
16, 13619, Note_on_c, 10, 62, 0
16, 13740, Note_on_c, 10, 74, 90
16, 13799, Note_on_c, 10, 74, 0
16, 13800, Note_on_c, 10, 76, 90
16, 13829, Note_on_c, 10, 76, 0
16, 13830, Note_on_c, 10, 78, 90
16, 13859, Note_on_c, 10, 78, 0
16, 13860, Note_on_c, 10, 76, 90
16, 13889, Note_on_c, 10, 76, 0
16, 13890, Note_on_c, 10, 78, 90
16, 13919, Note_on_c, 10, 78, 0
16, 13920, Note_on_c, 10, 79, 90
16, 13949, Note_on_c, 10, 79, 0
16, 13950, Note_on_c, 10, 81, 90
16, 13979, Note_on_c, 10, 81, 0
16, 13980, Note_on_c, 10, 78, 90
16, 14009, Note_on_c, 10, 78, 0
16, 14010, Note_on_c, 10, 79, 90
16, 14039, Note_on_c, 10, 79, 0
16, 14040, Note_on_c, 10, 81, 90
16, 14069, Note_on_c, 10, 81, 0
16, 14070, Note_on_c, 10, 79, 90
16, 14099, Note_on_c, 10, 79, 0
16, 14100, Note_on_c, 10, 78, 90
16, 14129, Note_on_c, 10, 78, 0
16, 14130, Note_on_c, 10, 76, 90
16, 14159, Note_on_c, 10, 76, 0
16, 14160, Note_on_c, 10, 74, 90
16, 14189, Note_on_c, 10, 74, 0
16, 14190, Note_on_c, 10, 73, 90
16, 14219, Note_on_c, 10, 73, 0
16, 14220, Note_on_c, 10, 74, 90
16, 14249, Note_on_c, 10, 74, 0
16, 14250, Note_on_c, 10, 71, 90
16, 14279, Note_on_c, 10, 71, 0
16, 14280, Note_on_c, 10, 73, 90
16, 14369, Note_on_c, 10, 73, 0
16, 14370, Note_on_c, 10, 69, 90
16, 14399, Note_on_c, 10, 69, 0
16, 14400, Note_on_c, 10, 69, 90
16, 14519, Note_on_c, 10, 69, 0
16, 14640, Note_on_c, 10, 62, 90
16, 14699, Note_on_c, 10, 62, 0
16, 14700, Note_on_c, 10, 57, 90
16, 14759, Note_on_c, 10, 57, 0
16, 15000, Note_on_c, 10, 66, 90
16, 15059, Note_on_c, 10, 66, 0
16, 15060, Note_on_c, 10, 62, 90
16, 15119, Note_on_c, 10, 62, 0
16, 15360, Note_on_c, 10, 69, 90
16, 15419, Note_on_c, 10, 69, 0
16, 15420, Note_on_c, 10, 66, 90
16, 15479, Note_on_c, 10, 66, 0
16, 15510, Note_on_c, 10, 57, 90
16, 15539, Note_on_c, 10, 57, 0
16, 15540, Note_on_c, 10, 59, 90
16, 15569, Note_on_c, 10, 59, 0
16, 15570, Note_on_c, 10, 61, 90
16, 15599, Note_on_c, 10, 61, 0
16, 15600, Note_on_c, 10, 62, 90
16, 15629, Note_on_c, 10, 62, 0
16, 15630, Note_on_c, 10, 64, 90
16, 15659, Note_on_c, 10, 64, 0
16, 15660, Note_on_c, 10, 66, 90
16, 15689, Note_on_c, 10, 66, 0
16, 15690, Note_on_c, 10, 67, 90
16, 15719, Note_on_c, 10, 67, 0
16, 15720, Note_on_c, 10, 69, 90
16, 15749, Note_on_c, 10, 69, 0
16, 15750, Note_on_c, 10, 67, 90
16, 15779, Note_on_c, 10, 67, 0
16, 15780, Note_on_c, 10, 69, 90
16, 15809, Note_on_c, 10, 69, 0
16, 15810, Note_on_c, 10, 67, 90
16, 15839, Note_on_c, 10, 67, 0
16, 15840, Note_on_c, 10, 69, 90
16, 15869, Note_on_c, 10, 69, 0
16, 15870, Note_on_c, 10, 74, 90
16, 15899, Note_on_c, 10, 74, 0
16, 15900, Note_on_c, 10, 73, 90
16, 15929, Note_on_c, 10, 73, 0
16, 15930, Note_on_c, 10, 71, 90
16, 15959, Note_on_c, 10, 71, 0
16, 15960, Note_on_c, 10, 69, 90
16, 15989, Note_on_c, 10, 69, 0
16, 15990, Note_on_c, 10, 67, 90
16, 16019, Note_on_c, 10, 67, 0
16, 16020, Note_on_c, 10, 66, 90
16, 16049, Note_on_c, 10, 66, 0
16, 16050, Note_on_c, 10, 64, 90
16, 16079, Note_on_c, 10, 64, 0
16, 16080, Note_on_c, 10, 62, 90
16, 16139, Note_on_c, 10, 62, 0
16, 16230, Note_on_c, 10, 74, 90
16, 16259, Note_on_c, 10, 74, 0
16, 16260, Note_on_c, 10, 73, 90
16, 16289, Note_on_c, 10, 73, 0
16, 16290, Note_on_c, 10, 71, 90
16, 16319, Note_on_c, 10, 71, 0
16, 16320, Note_on_c, 10, 69, 90
16, 16349, Note_on_c, 10, 69, 0
16, 16350, Note_on_c, 10, 67, 90
16, 16379, Note_on_c, 10, 67, 0
16, 16380, Note_on_c, 10, 66, 90
16, 16409, Note_on_c, 10, 66, 0
16, 16410, Note_on_c, 10, 64, 90
16, 16439, Note_on_c, 10, 64, 0
16, 16440, Note_on_c, 10, 62, 90
16, 16499, Note_on_c, 10, 62, 0
16, 16620, Note_on_c, 10, 76, 90
16, 16649, Note_on_c, 10, 76, 0
16, 16650, Note_on_c, 10, 78, 90
16, 16679, Note_on_c, 10, 78, 0
16, 16680, Note_on_c, 10, 80, 90
16, 16709, Note_on_c, 10, 80, 0
16, 16710, Note_on_c, 10, 81, 90
16, 16739, Note_on_c, 10, 81, 0
16, 16740, Note_on_c, 10, 80, 90
16, 16769, Note_on_c, 10, 80, 0
16, 16770, Note_on_c, 10, 81, 90
16, 16799, Note_on_c, 10, 81, 0
16, 16800, Note_on_c, 10, 83, 90
16, 16829, Note_on_c, 10, 83, 0
16, 16830, Note_on_c, 10, 85, 90
16, 16859, Note_on_c, 10, 85, 0
16, 16860, Note_on_c, 10, 81, 90
16, 16889, Note_on_c, 10, 81, 0
16, 16890, Note_on_c, 10, 83, 90
16, 16919, Note_on_c, 10, 83, 0
16, 16920, Note_on_c, 10, 85, 90
16, 16949, Note_on_c, 10, 85, 0
16, 16950, Note_on_c, 10, 86, 90
16, 16979, Note_on_c, 10, 86, 0
16, 16980, Note_on_c, 10, 85, 90
16, 17009, Note_on_c, 10, 85, 0
16, 17010, Note_on_c, 10, 83, 90
16, 17039, Note_on_c, 10, 83, 0
16, 17040, Note_on_c, 10, 81, 90
16, 17069, Note_on_c, 10, 81, 0
16, 17070, Note_on_c, 10, 80, 90
16, 17099, Note_on_c, 10, 80, 0
16, 17100, Note_on_c, 10, 81, 90
16, 17129, Note_on_c, 10, 81, 0
16, 17130, Note_on_c, 10, 78, 90
16, 17159, Note_on_c, 10, 78, 0
16, 17160, Note_on_c, 10, 80, 90
16, 17249, Note_on_c, 10, 80, 0
16, 17250, Note_on_c, 10, 76, 90
16, 17279, Note_on_c, 10, 76, 0
16, 17280, Note_on_c, 10, 76, 90
16, 17399, Note_on_c, 10, 76, 0
16, 17550, Note_on_c, 10, 64, 90
16, 17579, Note_on_c, 10, 64, 0
16, 17580, Note_on_c, 10, 66, 90
16, 17609, Note_on_c, 10, 66, 0
16, 17610, Note_on_c, 10, 68, 90
16, 17639, Note_on_c, 10, 68, 0
16, 17640, Note_on_c, 10, 69, 90
16, 17669, Note_on_c, 10, 69, 0
16, 17670, Note_on_c, 10, 68, 90
16, 17699, Note_on_c, 10, 68, 0
16, 17700, Note_on_c, 10, 66, 90
16, 17729, Note_on_c, 10, 66, 0
16, 17730, Note_on_c, 10, 64, 90
16, 17759, Note_on_c, 10, 64, 0
16, 17760, Note_on_c, 10, 63, 90
16, 17819, Note_on_c, 10, 63, 0
16, 17910, Note_on_c, 10, 61, 90
16, 17939, Note_on_c, 10, 61, 0
16, 17940, Note_on_c, 10, 63, 90
16, 17969, Note_on_c, 10, 63, 0
16, 17970, Note_on_c, 10, 64, 90
16, 17999, Note_on_c, 10, 64, 0
16, 18000, Note_on_c, 10, 66, 90
16, 18029, Note_on_c, 10, 66, 0
16, 18030, Note_on_c, 10, 64, 90
16, 18059, Note_on_c, 10, 64, 0
16, 18060, Note_on_c, 10, 63, 90
16, 18089, Note_on_c, 10, 63, 0
16, 18090, Note_on_c, 10, 61, 90
16, 18119, Note_on_c, 10, 61, 0
16, 18120, Note_on_c, 10, 59, 90
16, 18179, Note_on_c, 10, 59, 0
16, 18270, Note_on_c, 10, 59, 90
16, 18299, Note_on_c, 10, 59, 0
16, 18300, Note_on_c, 10, 61, 90
16, 18329, Note_on_c, 10, 61, 0
16, 18330, Note_on_c, 10, 63, 90
16, 18359, Note_on_c, 10, 63, 0
16, 18360, Note_on_c, 10, 64, 90
16, 18419, Note_on_c, 10, 64, 0
16, 18420, Note_on_c, 10, 68, 90
16, 18479, Note_on_c, 10, 68, 0
16, 18600, Note_on_c, 10, 64, 90
16, 18659, Note_on_c, 10, 64, 0
16, 18660, Note_on_c, 10, 59, 90
16, 18719, Note_on_c, 10, 59, 0
16, 18960, Note_on_c, 10, 64, 90
16, 19019, Note_on_c, 10, 64, 0
16, 19020, Note_on_c, 10, 61, 90
16, 19079, Note_on_c, 10, 61, 0
16, 19320, Note_on_c, 10, 64, 90
16, 19379, Note_on_c, 10, 64, 0
16, 19380, Note_on_c, 10, 59, 90
16, 19439, Note_on_c, 10, 59, 0
16, 19440, Note_on_c, 10, 64, 90
16, 19469, Note_on_c, 10, 64, 0
16, 19470, Note_on_c, 10, 73, 90
16, 19499, Note_on_c, 10, 73, 0
16, 19500, Note_on_c, 10, 71, 90
16, 19529, Note_on_c, 10, 71, 0
16, 19530, Note_on_c, 10, 69, 90
16, 19559, Note_on_c, 10, 69, 0
16, 19560, Note_on_c, 10, 68, 90
16, 19589, Note_on_c, 10, 68, 0
16, 19590, Note_on_c, 10, 66, 90
16, 19619, Note_on_c, 10, 66, 0
16, 19620, Note_on_c, 10, 64, 90
16, 19649, Note_on_c, 10, 64, 0
16, 19650, Note_on_c, 10, 62, 90
16, 19679, Note_on_c, 10, 62, 0
16, 19680, Note_on_c, 10, 61, 90
16, 19739, Note_on_c, 10, 61, 0
16, 19830, Note_on_c, 10, 78, 90
16, 19859, Note_on_c, 10, 78, 0
16, 19860, Note_on_c, 10, 76, 90
16, 19889, Note_on_c, 10, 76, 0
16, 19890, Note_on_c, 10, 74, 90
16, 19919, Note_on_c, 10, 74, 0
16, 19920, Note_on_c, 10, 73, 90
16, 19949, Note_on_c, 10, 73, 0
16, 19950, Note_on_c, 10, 71, 90
16, 19979, Note_on_c, 10, 71, 0
16, 19980, Note_on_c, 10, 69, 90
16, 20009, Note_on_c, 10, 69, 0
16, 20010, Note_on_c, 10, 68, 90
16, 20039, Note_on_c, 10, 68, 0
16, 20040, Note_on_c, 10, 66, 90
16, 20099, Note_on_c, 10, 66, 0
16, 20220, Note_on_c, 10, 69, 90
16, 20279, Note_on_c, 10, 69, 0
16, 20280, Note_on_c, 10, 71, 90
16, 20309, Note_on_c, 10, 71, 0
16, 20310, Note_on_c, 10, 73, 90
16, 20339, Note_on_c, 10, 73, 0
16, 20340, Note_on_c, 10, 71, 90
16, 20369, Note_on_c, 10, 71, 0
16, 20370, Note_on_c, 10, 73, 90
16, 20399, Note_on_c, 10, 73, 0
16, 20400, Note_on_c, 10, 74, 90
16, 20429, Note_on_c, 10, 74, 0
16, 20430, Note_on_c, 10, 76, 90
16, 20459, Note_on_c, 10, 76, 0
16, 20460, Note_on_c, 10, 73, 90
16, 20489, Note_on_c, 10, 73, 0
16, 20490, Note_on_c, 10, 74, 90
16, 20519, Note_on_c, 10, 74, 0
16, 20520, Note_on_c, 10, 76, 90
16, 20549, Note_on_c, 10, 76, 0
16, 20550, Note_on_c, 10, 74, 90
16, 20579, Note_on_c, 10, 74, 0
16, 20580, Note_on_c, 10, 73, 90
16, 20609, Note_on_c, 10, 73, 0
16, 20610, Note_on_c, 10, 71, 90
16, 20639, Note_on_c, 10, 71, 0
16, 20640, Note_on_c, 10, 69, 90
16, 20669, Note_on_c, 10, 69, 0
16, 20670, Note_on_c, 10, 68, 90
16, 20699, Note_on_c, 10, 68, 0
16, 20700, Note_on_c, 10, 69, 90
16, 20729, Note_on_c, 10, 69, 0
16, 20730, Note_on_c, 10, 66, 90
16, 20759, Note_on_c, 10, 66, 0
16, 20760, Note_on_c, 10, 68, 90
16, 20849, Note_on_c, 10, 68, 0
16, 20850, Note_on_c, 10, 64, 90
16, 20879, Note_on_c, 10, 64, 0
16, 20880, Note_on_c, 10, 64, 90
16, 20909, Note_on_c, 10, 64, 0
16, 20910, Note_on_c, 10, 57, 90
16, 20939, Note_on_c, 10, 57, 0
16, 20940, Note_on_c, 10, 59, 90
16, 20969, Note_on_c, 10, 59, 0
16, 20970, Note_on_c, 10, 61, 90
16, 20999, Note_on_c, 10, 61, 0
16, 21000, Note_on_c, 10, 62, 90
16, 21029, Note_on_c, 10, 62, 0
16, 21030, Note_on_c, 10, 64, 90
16, 21059, Note_on_c, 10, 64, 0
16, 21060, Note_on_c, 10, 66, 90
16, 21089, Note_on_c, 10, 66, 0
16, 21090, Note_on_c, 10, 67, 90
16, 21119, Note_on_c, 10, 67, 0
16, 21120, Note_on_c, 10, 69, 90
16, 21149, Note_on_c, 10, 69, 0
16, 21150, Note_on_c, 10, 67, 90
16, 21179, Note_on_c, 10, 67, 0
16, 21180, Note_on_c, 10, 69, 90
16, 21209, Note_on_c, 10, 69, 0
16, 21210, Note_on_c, 10, 67, 90
16, 21239, Note_on_c, 10, 67, 0
16, 21240, Note_on_c, 10, 66, 90
16, 21299, Note_on_c, 10, 66, 0
16, 21300, Note_on_c, 10, 66, 90
16, 21359, Note_on_c, 10, 66, 0
16, 21360, Note_on_c, 10, 66, 90
16, 21419, Note_on_c, 10, 66, 0
16, 21420, Note_on_c, 10, 66, 90
16, 21479, Note_on_c, 10, 66, 0
16, 21480, Note_on_c, 10, 66, 90
16, 21539, Note_on_c, 10, 66, 0
16, 21540, Note_on_c, 10, 67, 90
16, 21569, Note_on_c, 10, 67, 0
16, 21570, Note_on_c, 10, 69, 90
16, 21599, Note_on_c, 10, 69, 0
16, 21600, Note_on_c, 10, 71, 90
16, 21629, Note_on_c, 10, 71, 0
16, 21630, Note_on_c, 10, 66, 90
16, 21659, Note_on_c, 10, 66, 0
16, 21660, Note_on_c, 10, 67, 90
16, 21689, Note_on_c, 10, 67, 0
16, 21690, Note_on_c, 10, 69, 90
16, 21719, Note_on_c, 10, 69, 0
16, 21720, Note_on_c, 10, 71, 90
16, 21749, Note_on_c, 10, 71, 0
16, 21750, Note_on_c, 10, 73, 90
16, 21779, Note_on_c, 10, 73, 0
16, 21780, Note_on_c, 10, 75, 90
16, 21809, Note_on_c, 10, 75, 0
16, 21810, Note_on_c, 10, 76, 90
16, 21839, Note_on_c, 10, 76, 0
16, 21840, Note_on_c, 10, 78, 90
16, 21869, Note_on_c, 10, 78, 0
16, 21870, Note_on_c, 10, 79, 90
16, 21899, Note_on_c, 10, 79, 0
16, 21900, Note_on_c, 10, 76, 90
16, 21929, Note_on_c, 10, 76, 0
16, 21930, Note_on_c, 10, 78, 90
16, 21959, Note_on_c, 10, 78, 0
16, 21960, Note_on_c, 10, 79, 90
16, 22019, Note_on_c, 10, 79, 0
16, 22350, Note_on_c, 10, 64, 90
16, 22379, Note_on_c, 10, 64, 0
16, 22380, Note_on_c, 10, 66, 90
16, 22409, Note_on_c, 10, 66, 0
16, 22410, Note_on_c, 10, 67, 90
16, 22439, Note_on_c, 10, 67, 0
16, 22440, Note_on_c, 10, 69, 90
16, 22469, Note_on_c, 10, 69, 0
16, 22470, Note_on_c, 10, 71, 90
16, 22499, Note_on_c, 10, 71, 0
16, 22500, Note_on_c, 10, 73, 90
16, 22529, Note_on_c, 10, 73, 0
16, 22530, Note_on_c, 10, 74, 90
16, 22559, Note_on_c, 10, 74, 0
16, 22560, Note_on_c, 10, 76, 90
16, 22589, Note_on_c, 10, 76, 0
16, 22590, Note_on_c, 10, 74, 90
16, 22619, Note_on_c, 10, 74, 0
16, 22620, Note_on_c, 10, 76, 90
16, 22649, Note_on_c, 10, 76, 0
16, 22650, Note_on_c, 10, 74, 90
16, 22679, Note_on_c, 10, 74, 0
16, 22680, Note_on_c, 10, 73, 90
16, 22709, Note_on_c, 10, 73, 0
16, 22710, Note_on_c, 10, 64, 90
16, 22739, Note_on_c, 10, 64, 0
16, 22740, Note_on_c, 10, 66, 90
16, 22769, Note_on_c, 10, 66, 0
16, 22770, Note_on_c, 10, 67, 90
16, 22799, Note_on_c, 10, 67, 0
16, 22800, Note_on_c, 10, 69, 90
16, 22829, Note_on_c, 10, 69, 0
16, 22830, Note_on_c, 10, 71, 90
16, 22859, Note_on_c, 10, 71, 0
16, 22860, Note_on_c, 10, 73, 90
16, 22889, Note_on_c, 10, 73, 0
16, 22890, Note_on_c, 10, 74, 90
16, 22919, Note_on_c, 10, 74, 0
16, 22920, Note_on_c, 10, 76, 90
16, 22949, Note_on_c, 10, 76, 0
16, 22950, Note_on_c, 10, 78, 90
16, 22979, Note_on_c, 10, 78, 0
16, 22980, Note_on_c, 10, 74, 90
16, 23009, Note_on_c, 10, 74, 0
16, 23010, Note_on_c, 10, 76, 90
16, 23039, Note_on_c, 10, 76, 0
16, 23040, Note_on_c, 10, 78, 90
16, 23069, Note_on_c, 10, 78, 0
16, 23070, Note_on_c, 10, 69, 90
16, 23099, Note_on_c, 10, 69, 0
16, 23100, Note_on_c, 10, 67, 90
16, 23129, Note_on_c, 10, 67, 0
16, 23130, Note_on_c, 10, 66, 90
16, 23159, Note_on_c, 10, 66, 0
16, 23160, Note_on_c, 10, 64, 90
16, 23189, Note_on_c, 10, 64, 0
16, 23190, Note_on_c, 10, 62, 90
16, 23219, Note_on_c, 10, 62, 0
16, 23220, Note_on_c, 10, 61, 90
16, 23249, Note_on_c, 10, 61, 0
16, 23250, Note_on_c, 10, 59, 90
16, 23279, Note_on_c, 10, 59, 0
16, 23280, Note_on_c, 10, 57, 90
16, 23339, Note_on_c, 10, 57, 0
16, 23460, Note_on_c, 10, 64, 90
16, 23519, Note_on_c, 10, 64, 0
16, 23520, Note_on_c, 10, 64, 90
16, 23579, Note_on_c, 10, 64, 0
16, 23580, Note_on_c, 10, 64, 90
16, 23639, Note_on_c, 10, 64, 0
16, 23640, Note_on_c, 10, 64, 90
16, 23699, Note_on_c, 10, 64, 0
16, 23700, Note_on_c, 10, 66, 90
16, 23729, Note_on_c, 10, 66, 0
16, 23730, Note_on_c, 10, 67, 90
16, 23759, Note_on_c, 10, 67, 0
16, 23760, Note_on_c, 10, 61, 90
16, 23819, Note_on_c, 10, 61, 0
16, 23820, Note_on_c, 10, 62, 90
16, 23879, Note_on_c, 10, 62, 0
16, 23880, Note_on_c, 10, 62, 90
16, 23939, Note_on_c, 10, 62, 0
16, 23940, Note_on_c, 10, 62, 90
16, 23999, Note_on_c, 10, 62, 0
16, 24000, Note_on_c, 10, 62, 90
16, 24059, Note_on_c, 10, 62, 0
16, 24060, Note_on_c, 10, 64, 90
16, 24089, Note_on_c, 10, 64, 0
16, 24090, Note_on_c, 10, 66, 90
16, 24119, Note_on_c, 10, 66, 0
16, 24120, Note_on_c, 10, 59, 90
16, 24179, Note_on_c, 10, 59, 0
16, 24180, Note_on_c, 10, 61, 90
16, 24239, Note_on_c, 10, 61, 0
16, 24240, Note_on_c, 10, 61, 90
16, 24299, Note_on_c, 10, 61, 0
16, 24300, Note_on_c, 10, 61, 90
16, 24359, Note_on_c, 10, 61, 0
16, 24360, Note_on_c, 10, 61, 90
16, 24419, Note_on_c, 10, 61, 0
16, 24420, Note_on_c, 10, 62, 90
16, 24449, Note_on_c, 10, 62, 0
16, 24450, Note_on_c, 10, 64, 90
16, 24479, Note_on_c, 10, 64, 0
16, 24480, Note_on_c, 10, 57, 90
16, 24539, Note_on_c, 10, 57, 0
16, 24750, Note_on_c, 10, 69, 90
16, 24779, Note_on_c, 10, 69, 0
16, 24780, Note_on_c, 10, 71, 90
16, 24809, Note_on_c, 10, 71, 0
16, 24810, Note_on_c, 10, 73, 90
16, 24839, Note_on_c, 10, 73, 0
16, 24840, Note_on_c, 10, 74, 90
16, 24869, Note_on_c, 10, 74, 0
16, 24870, Note_on_c, 10, 72, 90
16, 24899, Note_on_c, 10, 72, 0
16, 24900, Note_on_c, 10, 71, 90
16, 24929, Note_on_c, 10, 71, 0
16, 24930, Note_on_c, 10, 69, 90
16, 24959, Note_on_c, 10, 69, 0
16, 24960, Note_on_c, 10, 68, 90
16, 25019, Note_on_c, 10, 68, 0
16, 25110, Note_on_c, 10, 69, 90
16, 25139, Note_on_c, 10, 69, 0
16, 25140, Note_on_c, 10, 68, 90
16, 25169, Note_on_c, 10, 68, 0
16, 25170, Note_on_c, 10, 69, 90
16, 25199, Note_on_c, 10, 69, 0
16, 25200, Note_on_c, 10, 71, 90
16, 25229, Note_on_c, 10, 71, 0
16, 25230, Note_on_c, 10, 69, 90
16, 25259, Note_on_c, 10, 69, 0
16, 25260, Note_on_c, 10, 68, 90
16, 25289, Note_on_c, 10, 68, 0
16, 25290, Note_on_c, 10, 66, 90
16, 25319, Note_on_c, 10, 66, 0
16, 25320, Note_on_c, 10, 64, 90
16, 25379, Note_on_c, 10, 64, 0
16, 25470, Note_on_c, 10, 64, 90
16, 25499, Note_on_c, 10, 64, 0
16, 25500, Note_on_c, 10, 66, 90
16, 25529, Note_on_c, 10, 66, 0
16, 25530, Note_on_c, 10, 68, 90
16, 25559, Note_on_c, 10, 68, 0
16, 25560, Note_on_c, 10, 69, 90
16, 25619, Note_on_c, 10, 69, 0
16, 25620, Note_on_c, 10, 73, 90
16, 25679, Note_on_c, 10, 73, 0
16, 25800, Note_on_c, 10, 73, 90
16, 25859, Note_on_c, 10, 73, 0
16, 25860, Note_on_c, 10, 69, 90
16, 25919, Note_on_c, 10, 69, 0
16, 26160, Note_on_c, 10, 74, 90
16, 26219, Note_on_c, 10, 74, 0
16, 26220, Note_on_c, 10, 69, 90
16, 26279, Note_on_c, 10, 69, 0
16, 26520, Note_on_c, 10, 73, 90
16, 26579, Note_on_c, 10, 73, 0
16, 26580, Note_on_c, 10, 69, 90
16, 26639, Note_on_c, 10, 69, 0
16, 26640, Note_on_c, 10, 62, 90
16, 26669, Note_on_c, 10, 62, 0
16, 26670, Note_on_c, 10, 78, 90
16, 26699, Note_on_c, 10, 78, 0
16, 26700, Note_on_c, 10, 76, 90
16, 26729, Note_on_c, 10, 76, 0
16, 26730, Note_on_c, 10, 74, 90
16, 26759, Note_on_c, 10, 74, 0
16, 26760, Note_on_c, 10, 73, 90
16, 26789, Note_on_c, 10, 73, 0
16, 26790, Note_on_c, 10, 71, 90
16, 26819, Note_on_c, 10, 71, 0
16, 26820, Note_on_c, 10, 69, 90
16, 26849, Note_on_c, 10, 69, 0
16, 26850, Note_on_c, 10, 67, 90
16, 26879, Note_on_c, 10, 67, 0
16, 26880, Note_on_c, 10, 66, 90
16, 26939, Note_on_c, 10, 66, 0
16, 27030, Note_on_c, 10, 74, 90
16, 27059, Note_on_c, 10, 74, 0
16, 27060, Note_on_c, 10, 73, 90
16, 27089, Note_on_c, 10, 73, 0
16, 27090, Note_on_c, 10, 71, 90
16, 27119, Note_on_c, 10, 71, 0
16, 27120, Note_on_c, 10, 69, 90
16, 27149, Note_on_c, 10, 69, 0
16, 27150, Note_on_c, 10, 67, 90
16, 27179, Note_on_c, 10, 67, 0
16, 27180, Note_on_c, 10, 66, 90
16, 27209, Note_on_c, 10, 66, 0
16, 27210, Note_on_c, 10, 64, 90
16, 27239, Note_on_c, 10, 64, 0
16, 27240, Note_on_c, 10, 62, 90
16, 27299, Note_on_c, 10, 62, 0
16, 27420, Note_on_c, 10, 74, 90
16, 27479, Note_on_c, 10, 74, 0
16, 27480, Note_on_c, 10, 76, 90
16, 27509, Note_on_c, 10, 76, 0
16, 27510, Note_on_c, 10, 78, 90
16, 27539, Note_on_c, 10, 78, 0
16, 27540, Note_on_c, 10, 76, 90
16, 27569, Note_on_c, 10, 76, 0
16, 27570, Note_on_c, 10, 78, 90
16, 27599, Note_on_c, 10, 78, 0
16, 27600, Note_on_c, 10, 79, 90
16, 27629, Note_on_c, 10, 79, 0
16, 27630, Note_on_c, 10, 81, 90
16, 27659, Note_on_c, 10, 81, 0
16, 27660, Note_on_c, 10, 78, 90
16, 27689, Note_on_c, 10, 78, 0
16, 27690, Note_on_c, 10, 79, 90
16, 27719, Note_on_c, 10, 79, 0
16, 27720, Note_on_c, 10, 81, 90
16, 27749, Note_on_c, 10, 81, 0
16, 27750, Note_on_c, 10, 79, 90
16, 27779, Note_on_c, 10, 79, 0
16, 27780, Note_on_c, 10, 78, 90
16, 27809, Note_on_c, 10, 78, 0
16, 27810, Note_on_c, 10, 76, 90
16, 27839, Note_on_c, 10, 76, 0
16, 27840, Note_on_c, 10, 74, 90
16, 27869, Note_on_c, 10, 74, 0
16, 27870, Note_on_c, 10, 73, 90
16, 27899, Note_on_c, 10, 73, 0
16, 27900, Note_on_c, 10, 74, 90
16, 27929, Note_on_c, 10, 74, 0
16, 27930, Note_on_c, 10, 71, 90
16, 27959, Note_on_c, 10, 71, 0
16, 27960, Note_on_c, 10, 73, 90
16, 28049, Note_on_c, 10, 73, 0
16, 28050, Note_on_c, 10, 69, 90
16, 28079, Note_on_c, 10, 69, 0
16, 28080, Note_on_c, 10, 69, 90
16, 28199, Note_on_c, 10, 69, 0
16, 28320, Note_on_c, 10, 81, 90
16, 28379, Note_on_c, 10, 81, 0
16, 28380, Note_on_c, 10, 78, 90
16, 28439, Note_on_c, 10, 78, 0
16, 28680, Note_on_c, 10, 79, 90
16, 28739, Note_on_c, 10, 79, 0
16, 28740, Note_on_c, 10, 74, 90
16, 28799, Note_on_c, 10, 74, 0
16, 29040, Note_on_c, 10, 78, 90
16, 29099, Note_on_c, 10, 78, 0
16, 29100, Note_on_c, 10, 74, 90
16, 29159, Note_on_c, 10, 74, 0
16, 29220, Note_on_c, 10, 74, 90
16, 29279, Note_on_c, 10, 74, 0
16, 29280, Note_on_c, 10, 76, 90
16, 29309, Note_on_c, 10, 76, 0
16, 29310, Note_on_c, 10, 78, 90
16, 29339, Note_on_c, 10, 78, 0
16, 29340, Note_on_c, 10, 76, 90
16, 29369, Note_on_c, 10, 76, 0
16, 29370, Note_on_c, 10, 78, 90
16, 29399, Note_on_c, 10, 78, 0
16, 29400, Note_on_c, 10, 79, 90
16, 29429, Note_on_c, 10, 79, 0
16, 29430, Note_on_c, 10, 81, 90
16, 29459, Note_on_c, 10, 81, 0
16, 29460, Note_on_c, 10, 78, 90
16, 29489, Note_on_c, 10, 78, 0
16, 29490, Note_on_c, 10, 79, 90
16, 29519, Note_on_c, 10, 79, 0
16, 29520, Note_on_c, 10, 81, 90
16, 29549, Note_on_c, 10, 81, 0
16, 29550, Note_on_c, 10, 79, 90
16, 29579, Note_on_c, 10, 79, 0
16, 29580, Note_on_c, 10, 78, 90
16, 29609, Note_on_c, 10, 78, 0
16, 29610, Note_on_c, 10, 76, 90
16, 29639, Note_on_c, 10, 76, 0
16, 29640, Note_on_c, 10, 74, 90
16, 29669, Note_on_c, 10, 74, 0
16, 29670, Note_on_c, 10, 73, 90
16, 29699, Note_on_c, 10, 73, 0
16, 29700, Note_on_c, 10, 74, 90
16, 29729, Note_on_c, 10, 74, 0
16, 29730, Note_on_c, 10, 71, 90
16, 29759, Note_on_c, 10, 71, 0
16, 29760, Note_on_c, 10, 73, 90
16, 29849, Note_on_c, 10, 73, 0
16, 29850, Note_on_c, 10, 69, 90
16, 29879, Note_on_c, 10, 69, 0
16, 29880, Note_on_c, 10, 69, 90
16, 29999, Note_on_c, 10, 69, 0
16, 30390, Note_on_c, 10, 71, 90
16, 30419, Note_on_c, 10, 71, 0
16, 30420, Note_on_c, 10, 69, 90
16, 30449, Note_on_c, 10, 69, 0
16, 30450, Note_on_c, 10, 67, 90
16, 30479, Note_on_c, 10, 67, 0
16, 30480, Note_on_c, 10, 66, 90
16, 30509, Note_on_c, 10, 66, 0
16, 30510, Note_on_c, 10, 64, 90
16, 30539, Note_on_c, 10, 64, 0
16, 30540, Note_on_c, 10, 62, 90
16, 30569, Note_on_c, 10, 62, 0
16, 30570, Note_on_c, 10, 61, 90
16, 30599, Note_on_c, 10, 61, 0
16, 30600, Note_on_c, 10, 59, 90
16, 30629, Note_on_c, 10, 59, 0
16, 30630, Note_on_c, 10, 57, 90
16, 30659, Note_on_c, 10, 57, 0
16, 30660, Note_on_c, 10, 55, 90
16, 30689, Note_on_c, 10, 55, 0
16, 30690, Note_on_c, 10, 59, 90
16, 30719, Note_on_c, 10, 59, 0
16, 30720, Note_on_c, 10, 64, 90
16, 30779, Note_on_c, 10, 64, 0
16, 30990, Note_on_c, 10, 74, 90
16, 31019, Note_on_c, 10, 74, 0
16, 31020, Note_on_c, 10, 73, 90
16, 31049, Note_on_c, 10, 73, 0
16, 31050, Note_on_c, 10, 71, 90
16, 31079, Note_on_c, 10, 71, 0
16, 31080, Note_on_c, 10, 70, 90
16, 31109, Note_on_c, 10, 70, 0
16, 31110, Note_on_c, 10, 67, 90
16, 31139, Note_on_c, 10, 67, 0
16, 31140, Note_on_c, 10, 66, 90
16, 31169, Note_on_c, 10, 66, 0
16, 31170, Note_on_c, 10, 64, 90
16, 31199, Note_on_c, 10, 64, 0
16, 31200, Note_on_c, 10, 62, 90
16, 31259, Note_on_c, 10, 62, 0
16, 31740, Note_on_c, 10, 58, 90
16, 31799, Note_on_c, 10, 58, 0
16, 31800, Note_on_c, 10, 58, 90
16, 31859, Note_on_c, 10, 58, 0
16, 31860, Note_on_c, 10, 58, 90
16, 31919, Note_on_c, 10, 58, 0
16, 31920, Note_on_c, 10, 58, 90
16, 31979, Note_on_c, 10, 58, 0
16, 31980, Note_on_c, 10, 58, 90
16, 32009, Note_on_c, 10, 58, 0
16, 32010, Note_on_c, 10, 59, 90
16, 32039, Note_on_c, 10, 59, 0
16, 32040, Note_on_c, 10, 61, 90
16, 32099, Note_on_c, 10, 61, 0
16, 32100, Note_on_c, 10, 64, 90
16, 32129, Note_on_c, 10, 64, 0
16, 32130, Note_on_c, 10, 62, 90
16, 32159, Note_on_c, 10, 62, 0
16, 32160, Note_on_c, 10, 61, 90
16, 32219, Note_on_c, 10, 61, 0
16, 32220, Note_on_c, 10, 64, 90
16, 32249, Note_on_c, 10, 64, 0
16, 32250, Note_on_c, 10, 62, 90
16, 32279, Note_on_c, 10, 62, 0
16, 32280, Note_on_c, 10, 61, 90
16, 32339, Note_on_c, 10, 61, 0
16, 32340, Note_on_c, 10, 61, 90
16, 32399, Note_on_c, 10, 61, 0
16, 32400, Note_on_c, 10, 61, 90
16, 32519, Note_on_c, 10, 61, 0
16, 32550, Note_on_c, 10, 62, 90
16, 32579, Note_on_c, 10, 62, 0
16, 32580, Note_on_c, 10, 61, 90
16, 32609, Note_on_c, 10, 61, 0
16, 32610, Note_on_c, 10, 59, 90
16, 32639, Note_on_c, 10, 59, 0
16, 32640, Note_on_c, 10, 58, 90
16, 32669, Note_on_c, 10, 58, 0
16, 32670, Note_on_c, 10, 59, 90
16, 32699, Note_on_c, 10, 59, 0
16, 32700, Note_on_c, 10, 56, 90
16, 32729, Note_on_c, 10, 56, 0
16, 32730, Note_on_c, 10, 58, 90
16, 32759, Note_on_c, 10, 58, 0
16, 32760, Note_on_c, 10, 59, 90
16, 32879, Note_on_c, 10, 59, 0
16, 32880, Note_on_c, 10, 71, 90
16, 32939, Note_on_c, 10, 71, 0
16, 32940, Note_on_c, 10, 59, 90
16, 32999, Note_on_c, 10, 59, 0
16, 33000, Note_on_c, 10, 59, 90
16, 33059, Note_on_c, 10, 59, 0
16, 33060, Note_on_c, 10, 59, 90
16, 33119, Note_on_c, 10, 59, 0
16, 33120, Note_on_c, 10, 59, 90
16, 33179, Note_on_c, 10, 59, 0
16, 33180, Note_on_c, 10, 59, 90
16, 33239, Note_on_c, 10, 59, 0
16, 33240, Note_on_c, 10, 71, 90
16, 33299, Note_on_c, 10, 71, 0
16, 33300, Note_on_c, 10, 59, 90
16, 33359, Note_on_c, 10, 59, 0
16, 33360, Note_on_c, 10, 59, 90
16, 33419, Note_on_c, 10, 59, 0
16, 33420, Note_on_c, 10, 59, 90
16, 33479, Note_on_c, 10, 59, 0
16, 33480, Note_on_c, 10, 59, 90
16, 33509, Note_on_c, 10, 59, 0
16, 33510, Note_on_c, 10, 59, 90
16, 33539, Note_on_c, 10, 59, 0
16, 33540, Note_on_c, 10, 61, 90
16, 33569, Note_on_c, 10, 61, 0
16, 33570, Note_on_c, 10, 63, 90
16, 33599, Note_on_c, 10, 63, 0
16, 33600, Note_on_c, 10, 64, 90
16, 33629, Note_on_c, 10, 64, 0
16, 33630, Note_on_c, 10, 66, 90
16, 33659, Note_on_c, 10, 66, 0
16, 33660, Note_on_c, 10, 67, 90
16, 33689, Note_on_c, 10, 67, 0
16, 33690, Note_on_c, 10, 69, 90
16, 33719, Note_on_c, 10, 69, 0
16, 33720, Note_on_c, 10, 71, 90
16, 33749, Note_on_c, 10, 71, 0
16, 33750, Note_on_c, 10, 72, 90
16, 33779, Note_on_c, 10, 72, 0
16, 33780, Note_on_c, 10, 69, 90
16, 33809, Note_on_c, 10, 69, 0
16, 33810, Note_on_c, 10, 71, 90
16, 33839, Note_on_c, 10, 71, 0
16, 33840, Note_on_c, 10, 67, 90
16, 33899, Note_on_c, 10, 67, 0
16, 33900, Note_on_c, 10, 64, 90
16, 33959, Note_on_c, 10, 64, 0
16, 33960, Note_on_c, 10, 64, 90
16, 34019, Note_on_c, 10, 64, 0
16, 34020, Note_on_c, 10, 64, 90
16, 34079, Note_on_c, 10, 64, 0
16, 34080, Note_on_c, 10, 64, 90
16, 34139, Note_on_c, 10, 64, 0
16, 34140, Note_on_c, 10, 66, 90
16, 34169, Note_on_c, 10, 66, 0
16, 34170, Note_on_c, 10, 67, 90
16, 34199, Note_on_c, 10, 67, 0
16, 34200, Note_on_c, 10, 69, 90
16, 34259, Note_on_c, 10, 69, 0
16, 34260, Note_on_c, 10, 57, 90
16, 34319, Note_on_c, 10, 57, 0
16, 34320, Note_on_c, 10, 57, 90
16, 34379, Note_on_c, 10, 57, 0
16, 34380, Note_on_c, 10, 57, 90
16, 34439, Note_on_c, 10, 57, 0
16, 34440, Note_on_c, 10, 57, 90
16, 34499, Note_on_c, 10, 57, 0
16, 34500, Note_on_c, 10, 57, 90
16, 34559, Note_on_c, 10, 57, 0
16, 34560, Note_on_c, 10, 57, 90
16, 34619, Note_on_c, 10, 57, 0
16, 34620, Note_on_c, 10, 62, 90
16, 34679, Note_on_c, 10, 62, 0
16, 34680, Note_on_c, 10, 62, 90
16, 34739, Note_on_c, 10, 62, 0
16, 34740, Note_on_c, 10, 62, 90
16, 34799, Note_on_c, 10, 62, 0
16, 34800, Note_on_c, 10, 62, 90
16, 34859, Note_on_c, 10, 62, 0
16, 34860, Note_on_c, 10, 64, 90
16, 34889, Note_on_c, 10, 64, 0
16, 34890, Note_on_c, 10, 66, 90
16, 34919, Note_on_c, 10, 66, 0
16, 34920, Note_on_c, 10, 67, 90
16, 34979, Note_on_c, 10, 67, 0
16, 34980, Note_on_c, 10, 55, 90
16, 35039, Note_on_c, 10, 55, 0
16, 35040, Note_on_c, 10, 55, 90
16, 35099, Note_on_c, 10, 55, 0
16, 35100, Note_on_c, 10, 55, 90
16, 35159, Note_on_c, 10, 55, 0
16, 35160, Note_on_c, 10, 55, 90
16, 35219, Note_on_c, 10, 55, 0
16, 35220, Note_on_c, 10, 55, 90
16, 35279, Note_on_c, 10, 55, 0
16, 35280, Note_on_c, 10, 55, 90
16, 35339, Note_on_c, 10, 55, 0
16, 35340, Note_on_c, 10, 61, 90
16, 35399, Note_on_c, 10, 61, 0
16, 35400, Note_on_c, 10, 61, 90
16, 35459, Note_on_c, 10, 61, 0
16, 35460, Note_on_c, 10, 61, 90
16, 35519, Note_on_c, 10, 61, 0
16, 35520, Note_on_c, 10, 61, 90
16, 35579, Note_on_c, 10, 61, 0
16, 35580, Note_on_c, 10, 62, 90
16, 35609, Note_on_c, 10, 62, 0
16, 35610, Note_on_c, 10, 64, 90
16, 35639, Note_on_c, 10, 64, 0
16, 35640, Note_on_c, 10, 66, 90
16, 35699, Note_on_c, 10, 66, 0
16, 35700, Note_on_c, 10, 66, 90
16, 35759, Note_on_c, 10, 66, 0
16, 35760, Note_on_c, 10, 66, 90
16, 35819, Note_on_c, 10, 66, 0
16, 35820, Note_on_c, 10, 66, 90
16, 35879, Note_on_c, 10, 66, 0
16, 35880, Note_on_c, 10, 66, 90
16, 35939, Note_on_c, 10, 66, 0
16, 35940, Note_on_c, 10, 66, 90
16, 35999, Note_on_c, 10, 66, 0
16, 36000, Note_on_c, 10, 66, 90
16, 36059, Note_on_c, 10, 66, 0
16, 36060, Note_on_c, 10, 74, 90
16, 36089, Note_on_c, 10, 74, 0
16, 36090, Note_on_c, 10, 73, 90
16, 36119, Note_on_c, 10, 73, 0
16, 36120, Note_on_c, 10, 71, 90
16, 36149, Note_on_c, 10, 71, 0
16, 36150, Note_on_c, 10, 69, 90
16, 36179, Note_on_c, 10, 69, 0
16, 36180, Note_on_c, 10, 71, 90
16, 36209, Note_on_c, 10, 71, 0
16, 36210, Note_on_c, 10, 69, 90
16, 36239, Note_on_c, 10, 69, 0
16, 36240, Note_on_c, 10, 67, 90
16, 36269, Note_on_c, 10, 67, 0
16, 36270, Note_on_c, 10, 66, 90
16, 36299, Note_on_c, 10, 66, 0
16, 36300, Note_on_c, 10, 67, 90
16, 36329, Note_on_c, 10, 67, 0
16, 36330, Note_on_c, 10, 64, 90
16, 36359, Note_on_c, 10, 64, 0
16, 36360, Note_on_c, 10, 66, 90
16, 36479, Note_on_c, 10, 66, 0
16, 36600, Note_on_c, 10, 66, 90
16, 36659, Note_on_c, 10, 66, 0
16, 36660, Note_on_c, 10, 61, 90
16, 36719, Note_on_c, 10, 61, 0
16, 36960, Note_on_c, 10, 66, 90
16, 37019, Note_on_c, 10, 66, 0
16, 37020, Note_on_c, 10, 62, 90
16, 37079, Note_on_c, 10, 62, 0
16, 37320, Note_on_c, 10, 70, 90
16, 37379, Note_on_c, 10, 70, 0
16, 37380, Note_on_c, 10, 66, 90
16, 37439, Note_on_c, 10, 66, 0
16, 37440, Note_on_c, 10, 74, 90
16, 37499, Note_on_c, 10, 74, 0
16, 37500, Note_on_c, 10, 76, 90
16, 37529, Note_on_c, 10, 76, 0
16, 37530, Note_on_c, 10, 74, 90
16, 37559, Note_on_c, 10, 74, 0
16, 37560, Note_on_c, 10, 73, 90
16, 37589, Note_on_c, 10, 73, 0
16, 37590, Note_on_c, 10, 71, 90
16, 37619, Note_on_c, 10, 71, 0
16, 37620, Note_on_c, 10, 70, 90
16, 37649, Note_on_c, 10, 70, 0
16, 37650, Note_on_c, 10, 71, 90
16, 37679, Note_on_c, 10, 71, 0
16, 37680, Note_on_c, 10, 66, 90
16, 37739, Note_on_c, 10, 66, 0
16, 37740, Note_on_c, 10, 66, 90
16, 37799, Note_on_c, 10, 66, 0
16, 37800, Note_on_c, 10, 68, 90
16, 37919, Note_on_c, 10, 68, 0
16, 37920, Note_on_c, 10, 77, 90
16, 37979, Note_on_c, 10, 77, 0
16, 37980, Note_on_c, 10, 73, 90
16, 38039, Note_on_c, 10, 73, 0
16, 38280, Note_on_c, 10, 73, 90
16, 38339, Note_on_c, 10, 73, 0
16, 38340, Note_on_c, 10, 69, 90
16, 38399, Note_on_c, 10, 69, 0
16, 38640, Note_on_c, 10, 71, 90
16, 38699, Note_on_c, 10, 71, 0
16, 38700, Note_on_c, 10, 68, 90
16, 38759, Note_on_c, 10, 68, 0
16, 39000, Note_on_c, 10, 69, 90
16, 39059, Note_on_c, 10, 69, 0
16, 39060, Note_on_c, 10, 66, 90
16, 39119, Note_on_c, 10, 66, 0
16, 39180, Note_on_c, 10, 73, 90
16, 39239, Note_on_c, 10, 73, 0
16, 39240, Note_on_c, 10, 66, 90
16, 39299, Note_on_c, 10, 66, 0
16, 39300, Note_on_c, 10, 71, 90
16, 39329, Note_on_c, 10, 71, 0
16, 39330, Note_on_c, 10, 69, 90
16, 39359, Note_on_c, 10, 69, 0
16, 39360, Note_on_c, 10, 68, 90
16, 39419, Note_on_c, 10, 68, 0
16, 39420, Note_on_c, 10, 66, 90
16, 39479, Note_on_c, 10, 66, 0
16, 39480, Note_on_c, 10, 66, 90
16, 39539, Note_on_c, 10, 66, 0
16, 39540, Note_on_c, 10, 68, 90
16, 39599, Note_on_c, 10, 68, 0
16, 39600, Note_on_c, 10, 69, 90
16, 39959, Note_on_c, 10, 69, 0
16, 40080, Note_on_c, 10, 62, 80
16, 40140, Note_on_c, 10, 62, 0
16, 40140, Note_on_c, 10, 57, 80
16, 40200, Note_on_c, 10, 57, 0
16, 40440, Note_on_c, 10, 66, 80
16, 40500, Note_on_c, 10, 66, 0
16, 40500, Note_on_c, 10, 62, 80
16, 40560, Note_on_c, 10, 62, 0
16, 40800, Note_on_c, 10, 69, 80
16, 40860, Note_on_c, 10, 69, 0
16, 40860, Note_on_c, 10, 66, 80
16, 40920, Note_on_c, 10, 66, 0
16, 41070, Note_on_c, 10, 57, 80
16, 41100, Note_on_c, 10, 57, 0
16, 41100, Note_on_c, 10, 59, 80
16, 41130, Note_on_c, 10, 59, 0
16, 41130, Note_on_c, 10, 61, 80
16, 41160, Note_on_c, 10, 61, 0
16, 41160, Note_on_c, 10, 62, 80
16, 41190, Note_on_c, 10, 62, 0
16, 41190, Note_on_c, 10, 64, 80
16, 41220, Note_on_c, 10, 64, 0
16, 41220, Note_on_c, 10, 66, 80
16, 41250, Note_on_c, 10, 66, 0
16, 41250, Note_on_c, 10, 67, 80
16, 41280, Note_on_c, 10, 67, 0
16, 41280, Note_on_c, 10, 69, 80
16, 41310, Note_on_c, 10, 69, 0
16, 41310, Note_on_c, 10, 67, 80
16, 41340, Note_on_c, 10, 67, 0
16, 41340, Note_on_c, 10, 69, 80
16, 41370, Note_on_c, 10, 69, 0
16, 41370, Note_on_c, 10, 67, 80
16, 41400, Note_on_c, 10, 67, 0
16, 41400, Note_on_c, 10, 69, 90
16, 41429, Note_on_c, 10, 69, 0
16, 41430, Note_on_c, 10, 78, 90
16, 41459, Note_on_c, 10, 78, 0
16, 41460, Note_on_c, 10, 76, 90
16, 41489, Note_on_c, 10, 76, 0
16, 41490, Note_on_c, 10, 74, 90
16, 41519, Note_on_c, 10, 74, 0
16, 41520, Note_on_c, 10, 73, 90
16, 41549, Note_on_c, 10, 73, 0
16, 41550, Note_on_c, 10, 71, 90
16, 41579, Note_on_c, 10, 71, 0
16, 41580, Note_on_c, 10, 69, 90
16, 41609, Note_on_c, 10, 69, 0
16, 41610, Note_on_c, 10, 67, 90
16, 41639, Note_on_c, 10, 67, 0
16, 41640, Note_on_c, 10, 66, 90
16, 41699, Note_on_c, 10, 66, 0
16, 41790, Note_on_c, 10, 74, 90
16, 41819, Note_on_c, 10, 74, 0
16, 41820, Note_on_c, 10, 73, 90
16, 41849, Note_on_c, 10, 73, 0
16, 41850, Note_on_c, 10, 71, 90
16, 41879, Note_on_c, 10, 71, 0
16, 41880, Note_on_c, 10, 69, 90
16, 41909, Note_on_c, 10, 69, 0
16, 41910, Note_on_c, 10, 67, 90
16, 41939, Note_on_c, 10, 67, 0
16, 41940, Note_on_c, 10, 66, 90
16, 41969, Note_on_c, 10, 66, 0
16, 41970, Note_on_c, 10, 64, 90
16, 41999, Note_on_c, 10, 64, 0
16, 42000, Note_on_c, 10, 62, 90
16, 42059, Note_on_c, 10, 62, 0
16, 42180, Note_on_c, 10, 76, 90
16, 42209, Note_on_c, 10, 76, 0
16, 42210, Note_on_c, 10, 78, 90
16, 42239, Note_on_c, 10, 78, 0
16, 42240, Note_on_c, 10, 80, 90
16, 42269, Note_on_c, 10, 80, 0
16, 42270, Note_on_c, 10, 81, 90
16, 42299, Note_on_c, 10, 81, 0
16, 42300, Note_on_c, 10, 80, 90
16, 42329, Note_on_c, 10, 80, 0
16, 42330, Note_on_c, 10, 81, 90
16, 42359, Note_on_c, 10, 81, 0
16, 42360, Note_on_c, 10, 83, 90
16, 42389, Note_on_c, 10, 83, 0
16, 42390, Note_on_c, 10, 85, 90
16, 42419, Note_on_c, 10, 85, 0
16, 42420, Note_on_c, 10, 81, 90
16, 42449, Note_on_c, 10, 81, 0
16, 42450, Note_on_c, 10, 83, 90
16, 42479, Note_on_c, 10, 83, 0
16, 42480, Note_on_c, 10, 85, 90
16, 42509, Note_on_c, 10, 85, 0
16, 42510, Note_on_c, 10, 86, 90
16, 42539, Note_on_c, 10, 86, 0
16, 42540, Note_on_c, 10, 85, 90
16, 42569, Note_on_c, 10, 85, 0
16, 42570, Note_on_c, 10, 83, 90
16, 42599, Note_on_c, 10, 83, 0
16, 42600, Note_on_c, 10, 81, 90
16, 42629, Note_on_c, 10, 81, 0
16, 42630, Note_on_c, 10, 80, 90
16, 42659, Note_on_c, 10, 80, 0
16, 42660, Note_on_c, 10, 81, 90
16, 42689, Note_on_c, 10, 81, 0
16, 42690, Note_on_c, 10, 78, 90
16, 42719, Note_on_c, 10, 78, 0
16, 42720, Note_on_c, 10, 80, 90
16, 42809, Note_on_c, 10, 80, 0
16, 42810, Note_on_c, 10, 76, 90
16, 42839, Note_on_c, 10, 76, 0
16, 42840, Note_on_c, 10, 76, 90
16, 42869, Note_on_c, 10, 76, 0
16, 42870, Note_on_c, 10, 57, 90
16, 42899, Note_on_c, 10, 57, 0
16, 42900, Note_on_c, 10, 59, 90
16, 42929, Note_on_c, 10, 59, 0
16, 42930, Note_on_c, 10, 61, 90
16, 42959, Note_on_c, 10, 61, 0
16, 42960, Note_on_c, 10, 62, 90
16, 42989, Note_on_c, 10, 62, 0
16, 42990, Note_on_c, 10, 64, 90
16, 43019, Note_on_c, 10, 64, 0
16, 43020, Note_on_c, 10, 66, 90
16, 43049, Note_on_c, 10, 66, 0
16, 43050, Note_on_c, 10, 67, 90
16, 43079, Note_on_c, 10, 67, 0
16, 43080, Note_on_c, 10, 69, 90
16, 43109, Note_on_c, 10, 69, 0
16, 43110, Note_on_c, 10, 67, 90
16, 43139, Note_on_c, 10, 67, 0
16, 43140, Note_on_c, 10, 69, 90
16, 43169, Note_on_c, 10, 69, 0
16, 43170, Note_on_c, 10, 67, 90
16, 43199, Note_on_c, 10, 67, 0
16, 43200, Note_on_c, 10, 66, 90
16, 43259, Note_on_c, 10, 66, 0
16, 43260, Note_on_c, 10, 66, 90
16, 43319, Note_on_c, 10, 66, 0
16, 43320, Note_on_c, 10, 66, 90
16, 43379, Note_on_c, 10, 66, 0
16, 43380, Note_on_c, 10, 66, 90
16, 43439, Note_on_c, 10, 66, 0
16, 43440, Note_on_c, 10, 66, 90
16, 43499, Note_on_c, 10, 66, 0
16, 43500, Note_on_c, 10, 67, 90
16, 43529, Note_on_c, 10, 67, 0
16, 43530, Note_on_c, 10, 69, 90
16, 43559, Note_on_c, 10, 69, 0
16, 43560, Note_on_c, 10, 71, 90
16, 43589, Note_on_c, 10, 71, 0
16, 43590, Note_on_c, 10, 66, 90
16, 43619, Note_on_c, 10, 66, 0
16, 43620, Note_on_c, 10, 67, 90
16, 43649, Note_on_c, 10, 67, 0
16, 43650, Note_on_c, 10, 69, 90
16, 43679, Note_on_c, 10, 69, 0
16, 43680, Note_on_c, 10, 71, 90
16, 43709, Note_on_c, 10, 71, 0
16, 43710, Note_on_c, 10, 73, 90
16, 43739, Note_on_c, 10, 73, 0
16, 43740, Note_on_c, 10, 75, 90
16, 43769, Note_on_c, 10, 75, 0
16, 43770, Note_on_c, 10, 76, 90
16, 43799, Note_on_c, 10, 76, 0
16, 43800, Note_on_c, 10, 78, 90
16, 43829, Note_on_c, 10, 78, 0
16, 43830, Note_on_c, 10, 79, 90
16, 43859, Note_on_c, 10, 79, 0
16, 43860, Note_on_c, 10, 76, 90
16, 43889, Note_on_c, 10, 76, 0
16, 43890, Note_on_c, 10, 78, 90
16, 43919, Note_on_c, 10, 78, 0
16, 43920, Note_on_c, 10, 79, 90
16, 43979, Note_on_c, 10, 79, 0
16, 44310, Note_on_c, 10, 64, 90
16, 44339, Note_on_c, 10, 64, 0
16, 44340, Note_on_c, 10, 66, 90
16, 44369, Note_on_c, 10, 66, 0
16, 44370, Note_on_c, 10, 67, 90
16, 44399, Note_on_c, 10, 67, 0
16, 44400, Note_on_c, 10, 69, 90
16, 44429, Note_on_c, 10, 69, 0
16, 44430, Note_on_c, 10, 71, 90
16, 44459, Note_on_c, 10, 71, 0
16, 44460, Note_on_c, 10, 73, 90
16, 44489, Note_on_c, 10, 73, 0
16, 44490, Note_on_c, 10, 74, 90
16, 44519, Note_on_c, 10, 74, 0
16, 44520, Note_on_c, 10, 76, 90
16, 44549, Note_on_c, 10, 76, 0
16, 44550, Note_on_c, 10, 74, 90
16, 44579, Note_on_c, 10, 74, 0
16, 44580, Note_on_c, 10, 76, 90
16, 44609, Note_on_c, 10, 76, 0
16, 44610, Note_on_c, 10, 74, 90
16, 44639, Note_on_c, 10, 74, 0
16, 44640, Note_on_c, 10, 73, 90
16, 44669, Note_on_c, 10, 73, 0
16, 44670, Note_on_c, 10, 64, 90
16, 44699, Note_on_c, 10, 64, 0
16, 44700, Note_on_c, 10, 66, 90
16, 44729, Note_on_c, 10, 66, 0
16, 44730, Note_on_c, 10, 67, 90
16, 44759, Note_on_c, 10, 67, 0
16, 44760, Note_on_c, 10, 69, 90
16, 44789, Note_on_c, 10, 69, 0
16, 44790, Note_on_c, 10, 71, 90
16, 44819, Note_on_c, 10, 71, 0
16, 44820, Note_on_c, 10, 73, 90
16, 44849, Note_on_c, 10, 73, 0
16, 44850, Note_on_c, 10, 74, 90
16, 44879, Note_on_c, 10, 74, 0
16, 44880, Note_on_c, 10, 76, 90
16, 44909, Note_on_c, 10, 76, 0
16, 44910, Note_on_c, 10, 78, 90
16, 44939, Note_on_c, 10, 78, 0
16, 44940, Note_on_c, 10, 74, 90
16, 44969, Note_on_c, 10, 74, 0
16, 44970, Note_on_c, 10, 76, 90
16, 44999, Note_on_c, 10, 76, 0
16, 45000, Note_on_c, 10, 78, 90
16, 45029, Note_on_c, 10, 78, 0
16, 45030, Note_on_c, 10, 69, 90
16, 45059, Note_on_c, 10, 69, 0
16, 45060, Note_on_c, 10, 67, 90
16, 45089, Note_on_c, 10, 67, 0
16, 45090, Note_on_c, 10, 66, 90
16, 45119, Note_on_c, 10, 66, 0
16, 45120, Note_on_c, 10, 64, 90
16, 45149, Note_on_c, 10, 64, 0
16, 45150, Note_on_c, 10, 62, 90
16, 45179, Note_on_c, 10, 62, 0
16, 45180, Note_on_c, 10, 61, 90
16, 45209, Note_on_c, 10, 61, 0
16, 45210, Note_on_c, 10, 59, 90
16, 45239, Note_on_c, 10, 59, 0
16, 45240, Note_on_c, 10, 57, 90
16, 45299, Note_on_c, 10, 57, 0
16, 45420, Note_on_c, 10, 64, 90
16, 45479, Note_on_c, 10, 64, 0
16, 45480, Note_on_c, 10, 64, 90
16, 45539, Note_on_c, 10, 64, 0
16, 45540, Note_on_c, 10, 64, 90
16, 45599, Note_on_c, 10, 64, 0
16, 45600, Note_on_c, 10, 64, 90
16, 45659, Note_on_c, 10, 64, 0
16, 45660, Note_on_c, 10, 66, 90
16, 45689, Note_on_c, 10, 66, 0
16, 45690, Note_on_c, 10, 67, 90
16, 45719, Note_on_c, 10, 67, 0
16, 45720, Note_on_c, 10, 61, 90
16, 45779, Note_on_c, 10, 61, 0
16, 45780, Note_on_c, 10, 62, 90
16, 45839, Note_on_c, 10, 62, 0
16, 45840, Note_on_c, 10, 62, 90
16, 45899, Note_on_c, 10, 62, 0
16, 45900, Note_on_c, 10, 62, 90
16, 45959, Note_on_c, 10, 62, 0
16, 45960, Note_on_c, 10, 62, 90
16, 46019, Note_on_c, 10, 62, 0
16, 46020, Note_on_c, 10, 64, 90
16, 46049, Note_on_c, 10, 64, 0
16, 46050, Note_on_c, 10, 66, 90
16, 46079, Note_on_c, 10, 66, 0
16, 46080, Note_on_c, 10, 59, 90
16, 46139, Note_on_c, 10, 59, 0
16, 46140, Note_on_c, 10, 61, 90
16, 46199, Note_on_c, 10, 61, 0
16, 46200, Note_on_c, 10, 61, 90
16, 46259, Note_on_c, 10, 61, 0
16, 46260, Note_on_c, 10, 61, 90
16, 46319, Note_on_c, 10, 61, 0
16, 46320, Note_on_c, 10, 61, 90
16, 46379, Note_on_c, 10, 61, 0
16, 46380, Note_on_c, 10, 62, 90
16, 46409, Note_on_c, 10, 62, 0
16, 46410, Note_on_c, 10, 64, 90
16, 46439, Note_on_c, 10, 64, 0
16, 46440, Note_on_c, 10, 57, 90
16, 46499, Note_on_c, 10, 57, 0
16, 46710, Note_on_c, 10, 69, 90
16, 46739, Note_on_c, 10, 69, 0
16, 46740, Note_on_c, 10, 71, 90
16, 46769, Note_on_c, 10, 71, 0
16, 46770, Note_on_c, 10, 73, 90
16, 46799, Note_on_c, 10, 73, 0
16, 46800, Note_on_c, 10, 74, 90
16, 46829, Note_on_c, 10, 74, 0
16, 46830, Note_on_c, 10, 72, 90
16, 46859, Note_on_c, 10, 72, 0
16, 46860, Note_on_c, 10, 71, 90
16, 46889, Note_on_c, 10, 71, 0
16, 46890, Note_on_c, 10, 69, 90
16, 46919, Note_on_c, 10, 69, 0
16, 46920, Note_on_c, 10, 68, 90
16, 46979, Note_on_c, 10, 68, 0
16, 47070, Note_on_c, 10, 66, 90
16, 47099, Note_on_c, 10, 66, 0
16, 47100, Note_on_c, 10, 68, 90
16, 47129, Note_on_c, 10, 68, 0
16, 47130, Note_on_c, 10, 69, 90
16, 47159, Note_on_c, 10, 69, 0
16, 47160, Note_on_c, 10, 71, 90
16, 47189, Note_on_c, 10, 71, 0
16, 47190, Note_on_c, 10, 69, 90
16, 47219, Note_on_c, 10, 69, 0
16, 47220, Note_on_c, 10, 68, 90
16, 47249, Note_on_c, 10, 68, 0
16, 47250, Note_on_c, 10, 66, 90
16, 47279, Note_on_c, 10, 66, 0
16, 47280, Note_on_c, 10, 64, 90
16, 47339, Note_on_c, 10, 64, 0
16, 47430, Note_on_c, 10, 64, 90
16, 47459, Note_on_c, 10, 64, 0
16, 47460, Note_on_c, 10, 66, 90
16, 47489, Note_on_c, 10, 66, 0
16, 47490, Note_on_c, 10, 68, 90
16, 47519, Note_on_c, 10, 68, 0
16, 47520, Note_on_c, 10, 69, 90
16, 47579, Note_on_c, 10, 69, 0
16, 47580, Note_on_c, 10, 73, 90
16, 47639, Note_on_c, 10, 73, 0
16, 47760, Note_on_c, 10, 73, 90
16, 47819, Note_on_c, 10, 73, 0
16, 47820, Note_on_c, 10, 69, 90
16, 47879, Note_on_c, 10, 69, 0
16, 48120, Note_on_c, 10, 74, 90
16, 48179, Note_on_c, 10, 74, 0
16, 48180, Note_on_c, 10, 69, 90
16, 48239, Note_on_c, 10, 69, 0
16, 48480, Note_on_c, 10, 73, 90
16, 48539, Note_on_c, 10, 73, 0
16, 48540, Note_on_c, 10, 69, 90
16, 48599, Note_on_c, 10, 69, 0
16, 48600, Note_on_c, 10, 62, 90
16, 48630, Note_on_c, 10, 62, 0
16, 48630, Note_on_c, 10, 78, 90
16, 48660, Note_on_c, 10, 78, 0
16, 48660, Note_on_c, 10, 76, 90
16, 48690, Note_on_c, 10, 76, 0
16, 48690, Note_on_c, 10, 74, 90
16, 48720, Note_on_c, 10, 74, 0
16, 48720, Note_on_c, 10, 73, 90
16, 48750, Note_on_c, 10, 73, 0
16, 48750, Note_on_c, 10, 71, 90
16, 48780, Note_on_c, 10, 71, 0
16, 48780, Note_on_c, 10, 69, 90
16, 48810, Note_on_c, 10, 69, 0
16, 48810, Note_on_c, 10, 67, 90
16, 48840, Note_on_c, 10, 67, 0
16, 48840, Note_on_c, 10, 66, 90
16, 48900, Note_on_c, 10, 66, 0
16, 48990, Note_on_c, 10, 74, 90
16, 49019, Note_on_c, 10, 74, 0
16, 49020, Note_on_c, 10, 73, 90
16, 49049, Note_on_c, 10, 73, 0
16, 49050, Note_on_c, 10, 71, 90
16, 49079, Note_on_c, 10, 71, 0
16, 49080, Note_on_c, 10, 69, 90
16, 49109, Note_on_c, 10, 69, 0
16, 49110, Note_on_c, 10, 67, 90
16, 49139, Note_on_c, 10, 67, 0
16, 49140, Note_on_c, 10, 66, 90
16, 49169, Note_on_c, 10, 66, 0
16, 49170, Note_on_c, 10, 64, 90
16, 49199, Note_on_c, 10, 64, 0
16, 49200, Note_on_c, 10, 62, 90
16, 49259, Note_on_c, 10, 62, 0
16, 49380, Note_on_c, 10, 74, 90
16, 49439, Note_on_c, 10, 74, 0
16, 49440, Note_on_c, 10, 76, 90
16, 49469, Note_on_c, 10, 76, 0
16, 49470, Note_on_c, 10, 78, 90
16, 49499, Note_on_c, 10, 78, 0
16, 49500, Note_on_c, 10, 76, 90
16, 49529, Note_on_c, 10, 76, 0
16, 49530, Note_on_c, 10, 78, 90
16, 49559, Note_on_c, 10, 78, 0
16, 49560, Note_on_c, 10, 79, 90
16, 49589, Note_on_c, 10, 79, 0
16, 49590, Note_on_c, 10, 81, 90
16, 49619, Note_on_c, 10, 81, 0
16, 49620, Note_on_c, 10, 78, 90
16, 49649, Note_on_c, 10, 78, 0
16, 49650, Note_on_c, 10, 79, 90
16, 49679, Note_on_c, 10, 79, 0
16, 49680, Note_on_c, 10, 81, 90
16, 49709, Note_on_c, 10, 81, 0
16, 49710, Note_on_c, 10, 79, 90
16, 49739, Note_on_c, 10, 79, 0
16, 49740, Note_on_c, 10, 78, 90
16, 49769, Note_on_c, 10, 78, 0
16, 49770, Note_on_c, 10, 76, 90
16, 49799, Note_on_c, 10, 76, 0
16, 49800, Note_on_c, 10, 74, 90
16, 49829, Note_on_c, 10, 74, 0
16, 49830, Note_on_c, 10, 73, 90
16, 49859, Note_on_c, 10, 73, 0
16, 49860, Note_on_c, 10, 74, 90
16, 49889, Note_on_c, 10, 74, 0
16, 49890, Note_on_c, 10, 71, 90
16, 49919, Note_on_c, 10, 71, 0
16, 49920, Note_on_c, 10, 73, 90
16, 50009, Note_on_c, 10, 73, 0
16, 50010, Note_on_c, 10, 69, 90
16, 50039, Note_on_c, 10, 69, 0
16, 50040, Note_on_c, 10, 69, 90
16, 50159, Note_on_c, 10, 69, 0
16, 50280, Note_on_c, 10, 78, 90
16, 50339, Note_on_c, 10, 78, 0
16, 50340, Note_on_c, 10, 74, 90
16, 50399, Note_on_c, 10, 74, 0
16, 50640, Note_on_c, 10, 66, 90
16, 50699, Note_on_c, 10, 66, 0
16, 50700, Note_on_c, 10, 62, 90
16, 50759, Note_on_c, 10, 62, 0
16, 51000, Note_on_c, 10, 74, 90
16, 51059, Note_on_c, 10, 74, 0
16, 51060, Note_on_c, 10, 69, 90
16, 51119, Note_on_c, 10, 69, 0
16, 51360, Note_on_c, 10, 62, 90
16, 51419, Note_on_c, 10, 62, 0
16, 51420, Note_on_c, 10, 59, 90
16, 51479, Note_on_c, 10, 59, 0
16, 51540, Note_on_c, 10, 74, 90
16, 51599, Note_on_c, 10, 74, 0
16, 51600, Note_on_c, 10, 69, 90
16, 51629, Note_on_c, 10, 69, 0
16, 51630, Note_on_c, 10, 67, 90
16, 51659, Note_on_c, 10, 67, 0
16, 51660, Note_on_c, 10, 66, 90
16, 51689, Note_on_c, 10, 66, 0
16, 51690, Note_on_c, 10, 64, 90
16, 51719, Note_on_c, 10, 64, 0
16, 51720, Note_on_c, 10, 66, 90
16, 51749, Note_on_c, 10, 66, 0
16, 51750, Note_on_c, 10, 62, 90
16, 51779, Note_on_c, 10, 62, 0
16, 51780, Note_on_c, 10, 64, 90
16, 51809, Note_on_c, 10, 64, 0
16, 51810, Note_on_c, 10, 69, 90
16, 51839, Note_on_c, 10, 69, 0
16, 51840, Note_on_c, 10, 73, 90
16, 51959, Note_on_c, 10, 73, 0
16, 52080, Note_on_c, 10, 73, 90
16, 52139, Note_on_c, 10, 73, 0
16, 52140, Note_on_c, 10, 69, 90
16, 52199, Note_on_c, 10, 69, 0
16, 52440, Note_on_c, 10, 74, 90
16, 52499, Note_on_c, 10, 74, 0
16, 52500, Note_on_c, 10, 69, 90
16, 52559, Note_on_c, 10, 69, 0
16, 52800, Note_on_c, 10, 73, 90
16, 52859, Note_on_c, 10, 73, 0
16, 52860, Note_on_c, 10, 69, 90
16, 52919, Note_on_c, 10, 69, 0
16, 52920, Note_on_c, 10, 62, 90
16, 52949, Note_on_c, 10, 62, 0
16, 52950, Note_on_c, 10, 78, 90
16, 52979, Note_on_c, 10, 78, 0
16, 52980, Note_on_c, 10, 76, 90
16, 53009, Note_on_c, 10, 76, 0
16, 53010, Note_on_c, 10, 74, 90
16, 53039, Note_on_c, 10, 74, 0
16, 53040, Note_on_c, 10, 73, 90
16, 53069, Note_on_c, 10, 73, 0
16, 53070, Note_on_c, 10, 71, 90
16, 53099, Note_on_c, 10, 71, 0
16, 53100, Note_on_c, 10, 69, 90
16, 53129, Note_on_c, 10, 69, 0
16, 53130, Note_on_c, 10, 67, 90
16, 53159, Note_on_c, 10, 67, 0
16, 53160, Note_on_c, 10, 66, 90
16, 53219, Note_on_c, 10, 66, 0
16, 53310, Note_on_c, 10, 74, 90
16, 53339, Note_on_c, 10, 74, 0
16, 53340, Note_on_c, 10, 73, 90
16, 53369, Note_on_c, 10, 73, 0
16, 53370, Note_on_c, 10, 71, 90
16, 53399, Note_on_c, 10, 71, 0
16, 53400, Note_on_c, 10, 69, 90
16, 53429, Note_on_c, 10, 69, 0
16, 53430, Note_on_c, 10, 67, 90
16, 53459, Note_on_c, 10, 67, 0
16, 53460, Note_on_c, 10, 66, 90
16, 53489, Note_on_c, 10, 66, 0
16, 53490, Note_on_c, 10, 64, 90
16, 53519, Note_on_c, 10, 64, 0
16, 53520, Note_on_c, 10, 62, 90
16, 53579, Note_on_c, 10, 62, 0
16, 53700, Note_on_c, 10, 74, 90
16, 53759, Note_on_c, 10, 74, 0
16, 53760, Note_on_c, 10, 76, 90
16, 53789, Note_on_c, 10, 76, 0
16, 53790, Note_on_c, 10, 78, 90
16, 53819, Note_on_c, 10, 78, 0
16, 53820, Note_on_c, 10, 76, 90
16, 53849, Note_on_c, 10, 76, 0
16, 53850, Note_on_c, 10, 78, 90
16, 53879, Note_on_c, 10, 78, 0
16, 53880, Note_on_c, 10, 79, 90
16, 53909, Note_on_c, 10, 79, 0
16, 53910, Note_on_c, 10, 81, 90
16, 53939, Note_on_c, 10, 81, 0
16, 53940, Note_on_c, 10, 78, 90
16, 53969, Note_on_c, 10, 78, 0
16, 53970, Note_on_c, 10, 79, 90
16, 53999, Note_on_c, 10, 79, 0
16, 54000, Note_on_c, 10, 81, 90
16, 54029, Note_on_c, 10, 81, 0
16, 54030, Note_on_c, 10, 79, 90
16, 54059, Note_on_c, 10, 79, 0
16, 54060, Note_on_c, 10, 78, 90
16, 54089, Note_on_c, 10, 78, 0
16, 54090, Note_on_c, 10, 76, 90
16, 54119, Note_on_c, 10, 76, 0
16, 54120, Note_on_c, 10, 74, 90
16, 54149, Note_on_c, 10, 74, 0
16, 54150, Note_on_c, 10, 73, 90
16, 54179, Note_on_c, 10, 73, 0
16, 54180, Note_on_c, 10, 74, 90
16, 54209, Note_on_c, 10, 74, 0
16, 54210, Note_on_c, 10, 71, 90
16, 54239, Note_on_c, 10, 71, 0
16, 54240, Note_on_c, 10, 73, 90
16, 54329, Note_on_c, 10, 73, 0
16, 54330, Note_on_c, 10, 69, 90
16, 54359, Note_on_c, 10, 69, 0
16, 54360, Note_on_c, 10, 69, 90
16, 54479, Note_on_c, 10, 69, 0
16, 54600, Note_on_c, 10, 62, 90
16, 54659, Note_on_c, 10, 62, 0
16, 54660, Note_on_c, 10, 57, 90
16, 54719, Note_on_c, 10, 57, 0
16, 54960, Note_on_c, 10, 66, 90
16, 55019, Note_on_c, 10, 66, 0
16, 55020, Note_on_c, 10, 62, 90
16, 55079, Note_on_c, 10, 62, 0
16, 55320, Note_on_c, 10, 69, 90
16, 55379, Note_on_c, 10, 69, 0
16, 55380, Note_on_c, 10, 66, 90
16, 55439, Note_on_c, 10, 66, 0
16, 55470, Note_on_c, 10, 57, 90
16, 55499, Note_on_c, 10, 57, 0
16, 55500, Note_on_c, 10, 59, 90
16, 55529, Note_on_c, 10, 59, 0
16, 55530, Note_on_c, 10, 61, 90
16, 55559, Note_on_c, 10, 61, 0
16, 55560, Note_on_c, 10, 62, 90
16, 55589, Note_on_c, 10, 62, 0
16, 55590, Note_on_c, 10, 64, 90
16, 55619, Note_on_c, 10, 64, 0
16, 55620, Note_on_c, 10, 66, 90
16, 55649, Note_on_c, 10, 66, 0
16, 55650, Note_on_c, 10, 67, 90
16, 55679, Note_on_c, 10, 67, 0
16, 55680, Note_on_c, 10, 69, 90
16, 55709, Note_on_c, 10, 69, 0
16, 55710, Note_on_c, 10, 67, 90
16, 55739, Note_on_c, 10, 67, 0
16, 55740, Note_on_c, 10, 69, 90
16, 55769, Note_on_c, 10, 69, 0
16, 55770, Note_on_c, 10, 67, 90
16, 55799, Note_on_c, 10, 67, 0
16, 55800, Note_on_c, 10, 69, 90
16, 55829, Note_on_c, 10, 69, 0
16, 55830, Note_on_c, 10, 74, 90
16, 55859, Note_on_c, 10, 74, 0
16, 55860, Note_on_c, 10, 73, 90
16, 55889, Note_on_c, 10, 73, 0
16, 55890, Note_on_c, 10, 71, 90
16, 55919, Note_on_c, 10, 71, 0
16, 55920, Note_on_c, 10, 69, 90
16, 55949, Note_on_c, 10, 69, 0
16, 55950, Note_on_c, 10, 67, 90
16, 55979, Note_on_c, 10, 67, 0
16, 55980, Note_on_c, 10, 66, 90
16, 56009, Note_on_c, 10, 66, 0
16, 56010, Note_on_c, 10, 64, 90
16, 56039, Note_on_c, 10, 64, 0
16, 56040, Note_on_c, 10, 62, 90
16, 56099, Note_on_c, 10, 62, 0
16, 56190, Note_on_c, 10, 74, 90
16, 56219, Note_on_c, 10, 74, 0
16, 56220, Note_on_c, 10, 73, 90
16, 56249, Note_on_c, 10, 73, 0
16, 56250, Note_on_c, 10, 71, 90
16, 56279, Note_on_c, 10, 71, 0
16, 56280, Note_on_c, 10, 69, 90
16, 56309, Note_on_c, 10, 69, 0
16, 56310, Note_on_c, 10, 67, 90
16, 56339, Note_on_c, 10, 67, 0
16, 56340, Note_on_c, 10, 66, 90
16, 56369, Note_on_c, 10, 66, 0
16, 56370, Note_on_c, 10, 64, 90
16, 56399, Note_on_c, 10, 64, 0
16, 56400, Note_on_c, 10, 62, 90
16, 56459, Note_on_c, 10, 62, 0
16, 56580, Note_on_c, 10, 76, 90
16, 56609, Note_on_c, 10, 76, 0
16, 56610, Note_on_c, 10, 78, 90
16, 56639, Note_on_c, 10, 78, 0
16, 56640, Note_on_c, 10, 80, 90
16, 56669, Note_on_c, 10, 80, 0
16, 56670, Note_on_c, 10, 81, 90
16, 56699, Note_on_c, 10, 81, 0
16, 56700, Note_on_c, 10, 80, 90
16, 56729, Note_on_c, 10, 80, 0
16, 56730, Note_on_c, 10, 81, 90
16, 56759, Note_on_c, 10, 81, 0
16, 56760, Note_on_c, 10, 83, 90
16, 56789, Note_on_c, 10, 83, 0
16, 56790, Note_on_c, 10, 85, 90
16, 56819, Note_on_c, 10, 85, 0
16, 56820, Note_on_c, 10, 81, 90
16, 56849, Note_on_c, 10, 81, 0
16, 56850, Note_on_c, 10, 83, 90
16, 56879, Note_on_c, 10, 83, 0
16, 56880, Note_on_c, 10, 85, 90
16, 56909, Note_on_c, 10, 85, 0
16, 56910, Note_on_c, 10, 86, 90
16, 56939, Note_on_c, 10, 86, 0
16, 56940, Note_on_c, 10, 85, 90
16, 56969, Note_on_c, 10, 85, 0
16, 56970, Note_on_c, 10, 83, 90
16, 56999, Note_on_c, 10, 83, 0
16, 57000, Note_on_c, 10, 81, 90
16, 57029, Note_on_c, 10, 81, 0
16, 57030, Note_on_c, 10, 80, 90
16, 57059, Note_on_c, 10, 80, 0
16, 57060, Note_on_c, 10, 81, 90
16, 57089, Note_on_c, 10, 81, 0
16, 57090, Note_on_c, 10, 78, 90
16, 57119, Note_on_c, 10, 78, 0
16, 57120, Note_on_c, 10, 80, 90
16, 57209, Note_on_c, 10, 80, 0
16, 57210, Note_on_c, 10, 76, 90
16, 57239, Note_on_c, 10, 76, 0
16, 57240, Note_on_c, 10, 76, 90
16, 57359, Note_on_c, 10, 76, 0
16, 57510, Note_on_c, 10, 64, 90
16, 57539, Note_on_c, 10, 64, 0
16, 57540, Note_on_c, 10, 66, 90
16, 57569, Note_on_c, 10, 66, 0
16, 57570, Note_on_c, 10, 68, 90
16, 57599, Note_on_c, 10, 68, 0
16, 57600, Note_on_c, 10, 69, 90
16, 57629, Note_on_c, 10, 69, 0
16, 57630, Note_on_c, 10, 68, 90
16, 57659, Note_on_c, 10, 68, 0
16, 57660, Note_on_c, 10, 66, 90
16, 57689, Note_on_c, 10, 66, 0
16, 57690, Note_on_c, 10, 64, 90
16, 57719, Note_on_c, 10, 64, 0
16, 57720, Note_on_c, 10, 63, 90
16, 57779, Note_on_c, 10, 63, 0
16, 57870, Note_on_c, 10, 61, 90
16, 57899, Note_on_c, 10, 61, 0
16, 57900, Note_on_c, 10, 63, 90
16, 57929, Note_on_c, 10, 63, 0
16, 57930, Note_on_c, 10, 64, 90
16, 57959, Note_on_c, 10, 64, 0
16, 57960, Note_on_c, 10, 66, 90
16, 57989, Note_on_c, 10, 66, 0
16, 57990, Note_on_c, 10, 64, 90
16, 58019, Note_on_c, 10, 64, 0
16, 58020, Note_on_c, 10, 63, 90
16, 58049, Note_on_c, 10, 63, 0
16, 58050, Note_on_c, 10, 61, 90
16, 58079, Note_on_c, 10, 61, 0
16, 58080, Note_on_c, 10, 59, 90
16, 58139, Note_on_c, 10, 59, 0
16, 58230, Note_on_c, 10, 59, 90
16, 58259, Note_on_c, 10, 59, 0
16, 58260, Note_on_c, 10, 61, 90
16, 58289, Note_on_c, 10, 61, 0
16, 58290, Note_on_c, 10, 63, 90
16, 58319, Note_on_c, 10, 63, 0
16, 58320, Note_on_c, 10, 64, 90
16, 58379, Note_on_c, 10, 64, 0
16, 58380, Note_on_c, 10, 68, 90
16, 58439, Note_on_c, 10, 68, 0
16, 58560, Note_on_c, 10, 64, 90
16, 58619, Note_on_c, 10, 64, 0
16, 58620, Note_on_c, 10, 59, 90
16, 58679, Note_on_c, 10, 59, 0
16, 58920, Note_on_c, 10, 64, 90
16, 58979, Note_on_c, 10, 64, 0
16, 58980, Note_on_c, 10, 61, 90
16, 59039, Note_on_c, 10, 61, 0
16, 59280, Note_on_c, 10, 64, 90
16, 59339, Note_on_c, 10, 64, 0
16, 59340, Note_on_c, 10, 59, 90
16, 59399, Note_on_c, 10, 59, 0
16, 59400, Note_on_c, 10, 64, 90
16, 59429, Note_on_c, 10, 64, 0
16, 59430, Note_on_c, 10, 73, 90
16, 59459, Note_on_c, 10, 73, 0
16, 59460, Note_on_c, 10, 71, 90
16, 59489, Note_on_c, 10, 71, 0
16, 59490, Note_on_c, 10, 69, 90
16, 59519, Note_on_c, 10, 69, 0
16, 59520, Note_on_c, 10, 68, 90
16, 59549, Note_on_c, 10, 68, 0
16, 59550, Note_on_c, 10, 66, 90
16, 59579, Note_on_c, 10, 66, 0
16, 59580, Note_on_c, 10, 64, 90
16, 59609, Note_on_c, 10, 64, 0
16, 59610, Note_on_c, 10, 62, 90
16, 59639, Note_on_c, 10, 62, 0
16, 59640, Note_on_c, 10, 61, 90
16, 59699, Note_on_c, 10, 61, 0
16, 59790, Note_on_c, 10, 78, 90
16, 59819, Note_on_c, 10, 78, 0
16, 59820, Note_on_c, 10, 76, 90
16, 59849, Note_on_c, 10, 76, 0
16, 59850, Note_on_c, 10, 74, 90
16, 59879, Note_on_c, 10, 74, 0
16, 59880, Note_on_c, 10, 73, 90
16, 59909, Note_on_c, 10, 73, 0
16, 59910, Note_on_c, 10, 71, 90
16, 59939, Note_on_c, 10, 71, 0
16, 59940, Note_on_c, 10, 69, 90
16, 59969, Note_on_c, 10, 69, 0
16, 59970, Note_on_c, 10, 68, 90
16, 59999, Note_on_c, 10, 68, 0
16, 60000, Note_on_c, 10, 66, 90
16, 60059, Note_on_c, 10, 66, 0
16, 60180, Note_on_c, 10, 69, 90
16, 60239, Note_on_c, 10, 69, 0
16, 60240, Note_on_c, 10, 71, 90
16, 60269, Note_on_c, 10, 71, 0
16, 60270, Note_on_c, 10, 73, 90
16, 60299, Note_on_c, 10, 73, 0
16, 60300, Note_on_c, 10, 71, 90
16, 60329, Note_on_c, 10, 71, 0
16, 60330, Note_on_c, 10, 73, 90
16, 60359, Note_on_c, 10, 73, 0
16, 60360, Note_on_c, 10, 74, 90
16, 60389, Note_on_c, 10, 74, 0
16, 60390, Note_on_c, 10, 76, 90
16, 60419, Note_on_c, 10, 76, 0
16, 60420, Note_on_c, 10, 73, 90
16, 60449, Note_on_c, 10, 73, 0
16, 60450, Note_on_c, 10, 74, 90
16, 60479, Note_on_c, 10, 74, 0
16, 60480, Note_on_c, 10, 76, 90
16, 60509, Note_on_c, 10, 76, 0
16, 60510, Note_on_c, 10, 74, 90
16, 60539, Note_on_c, 10, 74, 0
16, 60540, Note_on_c, 10, 73, 90
16, 60569, Note_on_c, 10, 73, 0
16, 60570, Note_on_c, 10, 71, 90
16, 60599, Note_on_c, 10, 71, 0
16, 60600, Note_on_c, 10, 69, 90
16, 60629, Note_on_c, 10, 69, 0
16, 60630, Note_on_c, 10, 68, 90
16, 60659, Note_on_c, 10, 68, 0
16, 60660, Note_on_c, 10, 69, 90
16, 60689, Note_on_c, 10, 69, 0
16, 60690, Note_on_c, 10, 66, 90
16, 60719, Note_on_c, 10, 66, 0
16, 60720, Note_on_c, 10, 68, 90
16, 60809, Note_on_c, 10, 68, 0
16, 60810, Note_on_c, 10, 64, 90
16, 60839, Note_on_c, 10, 64, 0
16, 60840, Note_on_c, 10, 64, 90
16, 60869, Note_on_c, 10, 64, 0
16, 60870, Note_on_c, 10, 57, 90
16, 60899, Note_on_c, 10, 57, 0
16, 60900, Note_on_c, 10, 59, 90
16, 60929, Note_on_c, 10, 59, 0
16, 60930, Note_on_c, 10, 61, 90
16, 60959, Note_on_c, 10, 61, 0
16, 60960, Note_on_c, 10, 62, 90
16, 60989, Note_on_c, 10, 62, 0
16, 60990, Note_on_c, 10, 64, 90
16, 61019, Note_on_c, 10, 64, 0
16, 61020, Note_on_c, 10, 66, 90
16, 61049, Note_on_c, 10, 66, 0
16, 61050, Note_on_c, 10, 67, 90
16, 61079, Note_on_c, 10, 67, 0
16, 61080, Note_on_c, 10, 69, 90
16, 61109, Note_on_c, 10, 69, 0
16, 61110, Note_on_c, 10, 67, 90
16, 61139, Note_on_c, 10, 67, 0
16, 61140, Note_on_c, 10, 69, 90
16, 61169, Note_on_c, 10, 69, 0
16, 61170, Note_on_c, 10, 67, 90
16, 61199, Note_on_c, 10, 67, 0
16, 61200, Note_on_c, 10, 66, 90
16, 61259, Note_on_c, 10, 66, 0
16, 61260, Note_on_c, 10, 66, 90
16, 61319, Note_on_c, 10, 66, 0
16, 61320, Note_on_c, 10, 66, 90
16, 61379, Note_on_c, 10, 66, 0
16, 61380, Note_on_c, 10, 66, 90
16, 61439, Note_on_c, 10, 66, 0
16, 61440, Note_on_c, 10, 66, 90
16, 61499, Note_on_c, 10, 66, 0
16, 61500, Note_on_c, 10, 67, 90
16, 61529, Note_on_c, 10, 67, 0
16, 61530, Note_on_c, 10, 69, 90
16, 61559, Note_on_c, 10, 69, 0
16, 61560, Note_on_c, 10, 71, 90
16, 61589, Note_on_c, 10, 71, 0
16, 61590, Note_on_c, 10, 66, 90
16, 61619, Note_on_c, 10, 66, 0
16, 61620, Note_on_c, 10, 67, 90
16, 61649, Note_on_c, 10, 67, 0
16, 61650, Note_on_c, 10, 69, 90
16, 61679, Note_on_c, 10, 69, 0
16, 61680, Note_on_c, 10, 71, 90
16, 61709, Note_on_c, 10, 71, 0
16, 61710, Note_on_c, 10, 73, 90
16, 61739, Note_on_c, 10, 73, 0
16, 61740, Note_on_c, 10, 75, 90
16, 61769, Note_on_c, 10, 75, 0
16, 61770, Note_on_c, 10, 76, 90
16, 61799, Note_on_c, 10, 76, 0
16, 61800, Note_on_c, 10, 78, 90
16, 61829, Note_on_c, 10, 78, 0
16, 61830, Note_on_c, 10, 79, 90
16, 61859, Note_on_c, 10, 79, 0
16, 61860, Note_on_c, 10, 76, 90
16, 61889, Note_on_c, 10, 76, 0
16, 61890, Note_on_c, 10, 78, 90
16, 61919, Note_on_c, 10, 78, 0
16, 61920, Note_on_c, 10, 79, 90
16, 61979, Note_on_c, 10, 79, 0
16, 62310, Note_on_c, 10, 64, 90
16, 62339, Note_on_c, 10, 64, 0
16, 62340, Note_on_c, 10, 66, 90
16, 62369, Note_on_c, 10, 66, 0
16, 62370, Note_on_c, 10, 67, 90
16, 62399, Note_on_c, 10, 67, 0
16, 62400, Note_on_c, 10, 69, 90
16, 62429, Note_on_c, 10, 69, 0
16, 62430, Note_on_c, 10, 71, 90
16, 62459, Note_on_c, 10, 71, 0
16, 62460, Note_on_c, 10, 73, 90
16, 62489, Note_on_c, 10, 73, 0
16, 62490, Note_on_c, 10, 74, 90
16, 62519, Note_on_c, 10, 74, 0
16, 62520, Note_on_c, 10, 76, 90
16, 62549, Note_on_c, 10, 76, 0
16, 62550, Note_on_c, 10, 74, 90
16, 62579, Note_on_c, 10, 74, 0
16, 62580, Note_on_c, 10, 76, 90
16, 62609, Note_on_c, 10, 76, 0
16, 62610, Note_on_c, 10, 74, 90
16, 62639, Note_on_c, 10, 74, 0
16, 62640, Note_on_c, 10, 73, 90
16, 62669, Note_on_c, 10, 73, 0
16, 62670, Note_on_c, 10, 64, 90
16, 62699, Note_on_c, 10, 64, 0
16, 62700, Note_on_c, 10, 66, 90
16, 62729, Note_on_c, 10, 66, 0
16, 62730, Note_on_c, 10, 67, 90
16, 62759, Note_on_c, 10, 67, 0
16, 62760, Note_on_c, 10, 69, 90
16, 62789, Note_on_c, 10, 69, 0
16, 62790, Note_on_c, 10, 71, 90
16, 62819, Note_on_c, 10, 71, 0
16, 62820, Note_on_c, 10, 73, 90
16, 62849, Note_on_c, 10, 73, 0
16, 62850, Note_on_c, 10, 74, 90
16, 62879, Note_on_c, 10, 74, 0
16, 62880, Note_on_c, 10, 76, 90
16, 62909, Note_on_c, 10, 76, 0
16, 62910, Note_on_c, 10, 78, 90
16, 62939, Note_on_c, 10, 78, 0
16, 62940, Note_on_c, 10, 74, 90
16, 62969, Note_on_c, 10, 74, 0
16, 62970, Note_on_c, 10, 76, 90
16, 62999, Note_on_c, 10, 76, 0
16, 63000, Note_on_c, 10, 78, 90
16, 63029, Note_on_c, 10, 78, 0
16, 63030, Note_on_c, 10, 69, 90
16, 63059, Note_on_c, 10, 69, 0
16, 63060, Note_on_c, 10, 67, 90
16, 63089, Note_on_c, 10, 67, 0
16, 63090, Note_on_c, 10, 66, 90
16, 63119, Note_on_c, 10, 66, 0
16, 63120, Note_on_c, 10, 64, 90
16, 63149, Note_on_c, 10, 64, 0
16, 63150, Note_on_c, 10, 62, 90
16, 63179, Note_on_c, 10, 62, 0
16, 63180, Note_on_c, 10, 61, 90
16, 63209, Note_on_c, 10, 61, 0
16, 63210, Note_on_c, 10, 59, 90
16, 63239, Note_on_c, 10, 59, 0
16, 63240, Note_on_c, 10, 57, 90
16, 63299, Note_on_c, 10, 57, 0
16, 63420, Note_on_c, 10, 64, 90
16, 63479, Note_on_c, 10, 64, 0
16, 63480, Note_on_c, 10, 64, 90
16, 63539, Note_on_c, 10, 64, 0
16, 63540, Note_on_c, 10, 64, 90
16, 63599, Note_on_c, 10, 64, 0
16, 63600, Note_on_c, 10, 64, 90
16, 63659, Note_on_c, 10, 64, 0
16, 63660, Note_on_c, 10, 66, 90
16, 63689, Note_on_c, 10, 66, 0
16, 63690, Note_on_c, 10, 67, 90
16, 63719, Note_on_c, 10, 67, 0
16, 63720, Note_on_c, 10, 61, 90
16, 63779, Note_on_c, 10, 61, 0
16, 63780, Note_on_c, 10, 62, 90
16, 63839, Note_on_c, 10, 62, 0
16, 63840, Note_on_c, 10, 62, 90
16, 63899, Note_on_c, 10, 62, 0
16, 63900, Note_on_c, 10, 62, 90
16, 63959, Note_on_c, 10, 62, 0
16, 63960, Note_on_c, 10, 62, 90
16, 64019, Note_on_c, 10, 62, 0
16, 64020, Note_on_c, 10, 64, 90
16, 64049, Note_on_c, 10, 64, 0
16, 64050, Note_on_c, 10, 66, 90
16, 64079, Note_on_c, 10, 66, 0
16, 64080, Note_on_c, 10, 59, 90
16, 64139, Note_on_c, 10, 59, 0
16, 64140, Note_on_c, 10, 61, 90
16, 64199, Note_on_c, 10, 61, 0
16, 64200, Note_on_c, 10, 61, 90
16, 64259, Note_on_c, 10, 61, 0
16, 64260, Note_on_c, 10, 61, 90
16, 64319, Note_on_c, 10, 61, 0
16, 64320, Note_on_c, 10, 61, 90
16, 64379, Note_on_c, 10, 61, 0
16, 64380, Note_on_c, 10, 62, 90
16, 64409, Note_on_c, 10, 62, 0
16, 64410, Note_on_c, 10, 64, 90
16, 64439, Note_on_c, 10, 64, 0
16, 64440, Note_on_c, 10, 57, 90
16, 64499, Note_on_c, 10, 57, 0
16, 64710, Note_on_c, 10, 69, 90
16, 64739, Note_on_c, 10, 69, 0
16, 64740, Note_on_c, 10, 71, 90
16, 64769, Note_on_c, 10, 71, 0
16, 64770, Note_on_c, 10, 73, 90
16, 64799, Note_on_c, 10, 73, 0
16, 64800, Note_on_c, 10, 74, 90
16, 64829, Note_on_c, 10, 74, 0
16, 64830, Note_on_c, 10, 72, 90
16, 64859, Note_on_c, 10, 72, 0
16, 64860, Note_on_c, 10, 71, 90
16, 64889, Note_on_c, 10, 71, 0
16, 64890, Note_on_c, 10, 69, 90
16, 64919, Note_on_c, 10, 69, 0
16, 64920, Note_on_c, 10, 68, 90
16, 64979, Note_on_c, 10, 68, 0
16, 65070, Note_on_c, 10, 69, 90
16, 65099, Note_on_c, 10, 69, 0
16, 65100, Note_on_c, 10, 68, 90
16, 65129, Note_on_c, 10, 68, 0
16, 65130, Note_on_c, 10, 69, 90
16, 65159, Note_on_c, 10, 69, 0
16, 65160, Note_on_c, 10, 71, 90
16, 65189, Note_on_c, 10, 71, 0
16, 65190, Note_on_c, 10, 69, 90
16, 65219, Note_on_c, 10, 69, 0
16, 65220, Note_on_c, 10, 68, 90
16, 65249, Note_on_c, 10, 68, 0
16, 65250, Note_on_c, 10, 66, 90
16, 65279, Note_on_c, 10, 66, 0
16, 65280, Note_on_c, 10, 64, 90
16, 65339, Note_on_c, 10, 64, 0
16, 65430, Note_on_c, 10, 64, 90
16, 65459, Note_on_c, 10, 64, 0
16, 65460, Note_on_c, 10, 66, 90
16, 65489, Note_on_c, 10, 66, 0
16, 65490, Note_on_c, 10, 68, 90
16, 65519, Note_on_c, 10, 68, 0
16, 65520, Note_on_c, 10, 69, 90
16, 65579, Note_on_c, 10, 69, 0
16, 65580, Note_on_c, 10, 73, 90
16, 65639, Note_on_c, 10, 73, 0
16, 65760, Note_on_c, 10, 73, 90
16, 65819, Note_on_c, 10, 73, 0
16, 65820, Note_on_c, 10, 69, 90
16, 65879, Note_on_c, 10, 69, 0
16, 66120, Note_on_c, 10, 74, 90
16, 66179, Note_on_c, 10, 74, 0
16, 66180, Note_on_c, 10, 69, 90
16, 66239, Note_on_c, 10, 69, 0
16, 66480, Note_on_c, 10, 73, 90
16, 66539, Note_on_c, 10, 73, 0
16, 66540, Note_on_c, 10, 69, 90
16, 66599, Note_on_c, 10, 69, 0
16, 66600, Note_on_c, 10, 62, 90
16, 66629, Note_on_c, 10, 62, 0
16, 66630, Note_on_c, 10, 78, 90
16, 66659, Note_on_c, 10, 78, 0
16, 66660, Note_on_c, 10, 76, 90
16, 66689, Note_on_c, 10, 76, 0
16, 66690, Note_on_c, 10, 74, 90
16, 66719, Note_on_c, 10, 74, 0
16, 66720, Note_on_c, 10, 73, 90
16, 66749, Note_on_c, 10, 73, 0
16, 66750, Note_on_c, 10, 71, 90
16, 66779, Note_on_c, 10, 71, 0
16, 66780, Note_on_c, 10, 69, 90
16, 66809, Note_on_c, 10, 69, 0
16, 66810, Note_on_c, 10, 67, 90
16, 66839, Note_on_c, 10, 67, 0
16, 66840, Note_on_c, 10, 66, 90
16, 66899, Note_on_c, 10, 66, 0
16, 66990, Note_on_c, 10, 74, 90
16, 67019, Note_on_c, 10, 74, 0
16, 67020, Note_on_c, 10, 73, 90
16, 67049, Note_on_c, 10, 73, 0
16, 67050, Note_on_c, 10, 71, 90
16, 67079, Note_on_c, 10, 71, 0
16, 67080, Note_on_c, 10, 69, 90
16, 67109, Note_on_c, 10, 69, 0
16, 67110, Note_on_c, 10, 67, 90
16, 67139, Note_on_c, 10, 67, 0
16, 67140, Note_on_c, 10, 66, 90
16, 67169, Note_on_c, 10, 66, 0
16, 67170, Note_on_c, 10, 64, 90
16, 67199, Note_on_c, 10, 64, 0
16, 67200, Note_on_c, 10, 62, 90
16, 67259, Note_on_c, 10, 62, 0
16, 67380, Note_on_c, 10, 74, 90
16, 67439, Note_on_c, 10, 74, 0
16, 67440, Note_on_c, 10, 76, 90
16, 67469, Note_on_c, 10, 76, 0
16, 67470, Note_on_c, 10, 78, 90
16, 67499, Note_on_c, 10, 78, 0
16, 67500, Note_on_c, 10, 76, 90
16, 67529, Note_on_c, 10, 76, 0
16, 67530, Note_on_c, 10, 78, 90
16, 67559, Note_on_c, 10, 78, 0
16, 67560, Note_on_c, 10, 79, 90
16, 67589, Note_on_c, 10, 79, 0
16, 67590, Note_on_c, 10, 81, 90
16, 67619, Note_on_c, 10, 81, 0
16, 67620, Note_on_c, 10, 78, 90
16, 67649, Note_on_c, 10, 78, 0
16, 67650, Note_on_c, 10, 79, 90
16, 67679, Note_on_c, 10, 79, 0
16, 67680, Note_on_c, 10, 81, 90
16, 67709, Note_on_c, 10, 81, 0
16, 67710, Note_on_c, 10, 79, 90
16, 67739, Note_on_c, 10, 79, 0
16, 67740, Note_on_c, 10, 78, 90
16, 67769, Note_on_c, 10, 78, 0
16, 67770, Note_on_c, 10, 76, 90
16, 67799, Note_on_c, 10, 76, 0
16, 67800, Note_on_c, 10, 74, 90
16, 67829, Note_on_c, 10, 74, 0
16, 67830, Note_on_c, 10, 73, 90
16, 67859, Note_on_c, 10, 73, 0
16, 67860, Note_on_c, 10, 74, 90
16, 67889, Note_on_c, 10, 74, 0
16, 67890, Note_on_c, 10, 71, 90
16, 67919, Note_on_c, 10, 71, 0
16, 67920, Note_on_c, 10, 73, 90
16, 68009, Note_on_c, 10, 73, 0
16, 68010, Note_on_c, 10, 69, 90
16, 68039, Note_on_c, 10, 69, 0
16, 68040, Note_on_c, 10, 69, 90
16, 68159, Note_on_c, 10, 69, 0
16, 68280, Note_on_c, 10, 81, 90
16, 68339, Note_on_c, 10, 81, 0
16, 68340, Note_on_c, 10, 78, 90
16, 68399, Note_on_c, 10, 78, 0
16, 68640, Note_on_c, 10, 79, 90
16, 68699, Note_on_c, 10, 79, 0
16, 68700, Note_on_c, 10, 74, 90
16, 68759, Note_on_c, 10, 74, 0
16, 69000, Note_on_c, 10, 78, 90
16, 69059, Note_on_c, 10, 78, 0
16, 69060, Note_on_c, 10, 74, 90
16, 69119, Note_on_c, 10, 74, 0
16, 69180, Note_on_c, 10, 74, 90
16, 69239, Note_on_c, 10, 74, 0
16, 69240, Note_on_c, 10, 76, 90
16, 69269, Note_on_c, 10, 76, 0
16, 69270, Note_on_c, 10, 78, 90
16, 69299, Note_on_c, 10, 78, 0
16, 69300, Note_on_c, 10, 76, 90
16, 69329, Note_on_c, 10, 76, 0
16, 69330, Note_on_c, 10, 78, 90
16, 69359, Note_on_c, 10, 78, 0
16, 69360, Note_on_c, 10, 79, 90
16, 69389, Note_on_c, 10, 79, 0
16, 69390, Note_on_c, 10, 81, 90
16, 69419, Note_on_c, 10, 81, 0
16, 69420, Note_on_c, 10, 78, 90
16, 69449, Note_on_c, 10, 78, 0
16, 69450, Note_on_c, 10, 79, 90
16, 69479, Note_on_c, 10, 79, 0
16, 69480, Note_on_c, 10, 81, 90
16, 69509, Note_on_c, 10, 81, 0
16, 69510, Note_on_c, 10, 79, 90
16, 69539, Note_on_c, 10, 79, 0
16, 69540, Note_on_c, 10, 78, 90
16, 69569, Note_on_c, 10, 78, 0
16, 69570, Note_on_c, 10, 76, 90
16, 69599, Note_on_c, 10, 76, 0
16, 69600, Note_on_c, 10, 74, 90
16, 69629, Note_on_c, 10, 74, 0
16, 69630, Note_on_c, 10, 73, 90
16, 69659, Note_on_c, 10, 73, 0
16, 69660, Note_on_c, 10, 74, 90
16, 69689, Note_on_c, 10, 74, 0
16, 69690, Note_on_c, 10, 71, 90
16, 69719, Note_on_c, 10, 71, 0
16, 69720, Note_on_c, 10, 73, 90
16, 69809, Note_on_c, 10, 73, 0
16, 69810, Note_on_c, 10, 69, 90
16, 69839, Note_on_c, 10, 69, 0
16, 69840, Note_on_c, 10, 69, 90
16, 69959, Note_on_c, 10, 69, 0
16, 70560, Note_on_c, 10, 74, 100
16, 70680, Note_on_c, 10, 74, 0
16, 71280, Note_on_c, 10, 72, 100
16, 71400, Note_on_c, 10, 72, 0
16, 71760, Note_on_c, 10, 69, 100
16, 71880, Note_on_c, 10, 69, 0
16, 72240, Note_on_c, 10, 69, 100
16, 72360, Note_on_c, 10, 69, 0
16, 72720, Note_on_c, 10, 67, 100
16, 72840, Note_on_c, 10, 67, 0
16, 72960, Note_on_c, 10, 76, 100
16, 73080, Note_on_c, 10, 76, 0
16, 73320, Note_on_c, 10, 74, 100
16, 73440, Note_on_c, 10, 74, 0
16, 73440, Note_on_c, 10, 74, 100
16, 73560, Note_on_c, 10, 74, 0
16, 73710, Note_on_c, 10, 73, 100
16, 73740, Note_on_c, 10, 73, 0
16, 73740, Note_on_c, 10, 73, 100
16, 73770, Note_on_c, 10, 73, 0
16, 73770, Note_on_c, 10, 73, 100
16, 73800, Note_on_c, 10, 73, 0
16, 73800, Note_on_c, 10, 73, 100
16, 73860, Note_on_c, 10, 73, 0
16, 74190, Note_on_c, 10, 78, 100
16, 74220, Note_on_c, 10, 78, 0
16, 74220, Note_on_c, 10, 78, 100
16, 74250, Note_on_c, 10, 78, 0
16, 74250, Note_on_c, 10, 78, 100
16, 74280, Note_on_c, 10, 78, 0
16, 74280, Note_on_c, 10, 78, 100
16, 74340, Note_on_c, 10, 78, 0
16, 74670, Note_on_c, 10, 61, 100
16, 74700, Note_on_c, 10, 61, 0
16, 74700, Note_on_c, 10, 61, 100
16, 74730, Note_on_c, 10, 61, 0
16, 74730, Note_on_c, 10, 61, 100
16, 74760, Note_on_c, 10, 61, 0
16, 74760, Note_on_c, 10, 61, 100
16, 74820, Note_on_c, 10, 61, 0
16, 74895, Note_on_c, 10, 78, 90
16, 74909, Note_on_c, 10, 78, 0
16, 74910, Note_on_c, 10, 76, 90
16, 74924, Note_on_c, 10, 76, 0
16, 74925, Note_on_c, 10, 74, 90
16, 74939, Note_on_c, 10, 74, 0
16, 74940, Note_on_c, 10, 73, 90
16, 74954, Note_on_c, 10, 73, 0
16, 74955, Note_on_c, 10, 71, 90
16, 74969, Note_on_c, 10, 71, 0
16, 74970, Note_on_c, 10, 69, 90
16, 74984, Note_on_c, 10, 69, 0
16, 74985, Note_on_c, 10, 67, 90
16, 74999, Note_on_c, 10, 67, 0
16, 75000, Note_on_c, 10, 66, 90
16, 75014, Note_on_c, 10, 66, 0
16, 75015, Note_on_c, 10, 71, 90
16, 75029, Note_on_c, 10, 71, 0
16, 75030, Note_on_c, 10, 69, 90
16, 75044, Note_on_c, 10, 69, 0
16, 75045, Note_on_c, 10, 67, 90
16, 75059, Note_on_c, 10, 67, 0
16, 75060, Note_on_c, 10, 66, 90
16, 75074, Note_on_c, 10, 66, 0
16, 75075, Note_on_c, 10, 64, 90
16, 75089, Note_on_c, 10, 64, 0
16, 75090, Note_on_c, 10, 62, 90
16, 75104, Note_on_c, 10, 62, 0
16, 75105, Note_on_c, 10, 61, 90
16, 75119, Note_on_c, 10, 61, 0
16, 75120, Note_on_c, 10, 59, 90
16, 75179, Note_on_c, 10, 59, 0
16, 75360, Note_on_c, 10, 71, 90
16, 75419, Note_on_c, 10, 71, 0
16, 75600, Note_on_c, 10, 73, 90
16, 75719, Note_on_c, 10, 73, 0
16, 76080, Note_on_c, 10, 72, 90
16, 76199, Note_on_c, 10, 72, 0
16, 76320, Note_on_c, 10, 71, 90
16, 76439, Note_on_c, 10, 71, 0
16, 76695, Note_on_c, 10, 69, 90
16, 76709, Note_on_c, 10, 69, 0
16, 76710, Note_on_c, 10, 67, 90
16, 76724, Note_on_c, 10, 67, 0
16, 76725, Note_on_c, 10, 66, 90
16, 76739, Note_on_c, 10, 66, 0
16, 76740, Note_on_c, 10, 64, 90
16, 76754, Note_on_c, 10, 64, 0
16, 76755, Note_on_c, 10, 62, 90
16, 76769, Note_on_c, 10, 62, 0
16, 76770, Note_on_c, 10, 61, 90
16, 76784, Note_on_c, 10, 61, 0
16, 76785, Note_on_c, 10, 59, 90
16, 76799, Note_on_c, 10, 59, 0
16, 76800, Note_on_c, 10, 57, 90
16, 76829, Note_on_c, 10, 57, 0
16, 76830, Note_on_c, 10, 57, 90
16, 76859, Note_on_c, 10, 57, 0
16, 76860, Note_on_c, 10, 57, 90
16, 76889, Note_on_c, 10, 57, 0
16, 76890, Note_on_c, 10, 57, 90
16, 76919, Note_on_c, 10, 57, 0
16, 76920, Note_on_c, 10, 57, 90
16, 76949, Note_on_c, 10, 57, 0
16, 76950, Note_on_c, 10, 57, 90
16, 76979, Note_on_c, 10, 57, 0
16, 76980, Note_on_c, 10, 57, 90
16, 77009, Note_on_c, 10, 57, 0
16, 77010, Note_on_c, 10, 57, 90
16, 77039, Note_on_c, 10, 57, 0
16, 77040, Note_on_c, 10, 57, 90
16, 77159, Note_on_c, 10, 57, 0
16, 77415, Note_on_c, 10, 80, 90
16, 77429, Note_on_c, 10, 80, 0
16, 77430, Note_on_c, 10, 78, 90
16, 77444, Note_on_c, 10, 78, 0
16, 77445, Note_on_c, 10, 76, 90
16, 77459, Note_on_c, 10, 76, 0
16, 77460, Note_on_c, 10, 74, 90
16, 77474, Note_on_c, 10, 74, 0
16, 77475, Note_on_c, 10, 73, 90
16, 77489, Note_on_c, 10, 73, 0
16, 77490, Note_on_c, 10, 71, 90
16, 77504, Note_on_c, 10, 71, 0
16, 77505, Note_on_c, 10, 69, 90
16, 77519, Note_on_c, 10, 69, 0
16, 77520, Note_on_c, 10, 76, 90
16, 77579, Note_on_c, 10, 76, 0
16, 77910, Note_on_c, 10, 73, 90
16, 77924, Note_on_c, 10, 73, 0
16, 77925, Note_on_c, 10, 74, 90
16, 77939, Note_on_c, 10, 74, 0
16, 77940, Note_on_c, 10, 76, 90
16, 77954, Note_on_c, 10, 76, 0
16, 77955, Note_on_c, 10, 78, 90
16, 77969, Note_on_c, 10, 78, 0
16, 77970, Note_on_c, 10, 79, 90
16, 77984, Note_on_c, 10, 79, 0
16, 77985, Note_on_c, 10, 76, 90
16, 77999, Note_on_c, 10, 76, 0
16, 78000, Note_on_c, 10, 81, 90
16, 78059, Note_on_c, 10, 81, 0
16, 78375, Note_on_c, 10, 78, 90
16, 78389, Note_on_c, 10, 78, 0
16, 78390, Note_on_c, 10, 76, 90
16, 78404, Note_on_c, 10, 76, 0
16, 78405, Note_on_c, 10, 74, 90
16, 78419, Note_on_c, 10, 74, 0
16, 78420, Note_on_c, 10, 73, 90
16, 78434, Note_on_c, 10, 73, 0
16, 78435, Note_on_c, 10, 71, 90
16, 78449, Note_on_c, 10, 71, 0
16, 78450, Note_on_c, 10, 69, 90
16, 78464, Note_on_c, 10, 69, 0
16, 78465, Note_on_c, 10, 68, 90
16, 78479, Note_on_c, 10, 68, 0
16, 78480, Note_on_c, 10, 69, 90
16, 78509, Note_on_c, 10, 69, 0
16, 78510, Note_on_c, 10, 61, 90
16, 78524, Note_on_c, 10, 61, 0
16, 78525, Note_on_c, 10, 64, 90
16, 78539, Note_on_c, 10, 64, 0
16, 78540, Note_on_c, 10, 69, 90
16, 78569, Note_on_c, 10, 69, 0
16, 78570, Note_on_c, 10, 64, 90
16, 78584, Note_on_c, 10, 64, 0
16, 78585, Note_on_c, 10, 69, 90
16, 78599, Note_on_c, 10, 69, 0
16, 78600, Note_on_c, 10, 73, 90
16, 78629, Note_on_c, 10, 73, 0
16, 78630, Note_on_c, 10, 69, 90
16, 78644, Note_on_c, 10, 69, 0
16, 78645, Note_on_c, 10, 73, 90
16, 78659, Note_on_c, 10, 73, 0
16, 78660, Note_on_c, 10, 76, 90
16, 78689, Note_on_c, 10, 76, 0
16, 78690, Note_on_c, 10, 73, 90
16, 78704, Note_on_c, 10, 73, 0
16, 78705, Note_on_c, 10, 76, 90
16, 78719, Note_on_c, 10, 76, 0
16, 78720, Note_on_c, 10, 81, 90
16, 78839, Note_on_c, 10, 81, 0
16, 78990, Note_on_c, 10, 73, 90
16, 79019, Note_on_c, 10, 73, 0
16, 79020, Note_on_c, 10, 73, 90
16, 79049, Note_on_c, 10, 73, 0
16, 79050, Note_on_c, 10, 73, 90
16, 79079, Note_on_c, 10, 73, 0
16, 79080, Note_on_c, 10, 73, 90
16, 79139, Note_on_c, 10, 73, 0
16, 79470, Note_on_c, 10, 78, 90
16, 79499, Note_on_c, 10, 78, 0
16, 79500, Note_on_c, 10, 78, 90
16, 79529, Note_on_c, 10, 78, 0
16, 79530, Note_on_c, 10, 78, 90
16, 79559, Note_on_c, 10, 78, 0
16, 79560, Note_on_c, 10, 78, 90
16, 79589, Note_on_c, 10, 78, 0
16, 79590, Note_on_c, 10, 66, 90
16, 79619, Note_on_c, 10, 66, 0
16, 79620, Note_on_c, 10, 66, 90
16, 79649, Note_on_c, 10, 66, 0
16, 79650, Note_on_c, 10, 66, 90
16, 79679, Note_on_c, 10, 66, 0
16, 79680, Note_on_c, 10, 63, 90
16, 79739, Note_on_c, 10, 63, 0
16, 79935, Note_on_c, 10, 59, 90
16, 79949, Note_on_c, 10, 59, 0
16, 79950, Note_on_c, 10, 61, 90
16, 79964, Note_on_c, 10, 61, 0
16, 79965, Note_on_c, 10, 62, 90
16, 79979, Note_on_c, 10, 62, 0
16, 79980, Note_on_c, 10, 64, 90
16, 79994, Note_on_c, 10, 64, 0
16, 79995, Note_on_c, 10, 66, 90
16, 80009, Note_on_c, 10, 66, 0
16, 80010, Note_on_c, 10, 68, 90
16, 80024, Note_on_c, 10, 68, 0
16, 80025, Note_on_c, 10, 69, 90
16, 80039, Note_on_c, 10, 69, 0
16, 80040, Note_on_c, 10, 71, 90
16, 80099, Note_on_c, 10, 71, 0
16, 80430, Note_on_c, 10, 71, 90
16, 80444, Note_on_c, 10, 71, 0
16, 80445, Note_on_c, 10, 69, 90
16, 80459, Note_on_c, 10, 69, 0
16, 80460, Note_on_c, 10, 68, 90
16, 80474, Note_on_c, 10, 68, 0
16, 80475, Note_on_c, 10, 66, 90
16, 80489, Note_on_c, 10, 66, 0
16, 80490, Note_on_c, 10, 65, 90
16, 80504, Note_on_c, 10, 65, 0
16, 80505, Note_on_c, 10, 63, 90
16, 80519, Note_on_c, 10, 63, 0
16, 80520, Note_on_c, 10, 65, 90
16, 80579, Note_on_c, 10, 65, 0
16, 80895, Note_on_c, 10, 57, 90
16, 80909, Note_on_c, 10, 57, 0
16, 80910, Note_on_c, 10, 59, 90
16, 80924, Note_on_c, 10, 59, 0
16, 80925, Note_on_c, 10, 61, 90
16, 80939, Note_on_c, 10, 61, 0
16, 80940, Note_on_c, 10, 63, 90
16, 80954, Note_on_c, 10, 63, 0
16, 80955, Note_on_c, 10, 65, 90
16, 80969, Note_on_c, 10, 65, 0
16, 80970, Note_on_c, 10, 66, 90
16, 80984, Note_on_c, 10, 66, 0
16, 80985, Note_on_c, 10, 68, 90
16, 80999, Note_on_c, 10, 68, 0
16, 81000, Note_on_c, 10, 69, 90
16, 81059, Note_on_c, 10, 69, 0
16, 81150, Note_on_c, 10, 59, 90
16, 81179, Note_on_c, 10, 59, 0
16, 81180, Note_on_c, 10, 59, 90
16, 81209, Note_on_c, 10, 59, 0
16, 81210, Note_on_c, 10, 59, 90
16, 81239, Note_on_c, 10, 59, 0
16, 81240, Note_on_c, 10, 59, 90
16, 81299, Note_on_c, 10, 59, 0
16, 82500, Note_on_c, 10, 61, 90
16, 82529, Note_on_c, 10, 61, 0
16, 82530, Note_on_c, 10, 62, 90
16, 82559, Note_on_c, 10, 62, 0
16, 82560, Note_on_c, 10, 64, 90
16, 82619, Note_on_c, 10, 64, 0
16, 82620, Note_on_c, 10, 66, 90
16, 82679, Note_on_c, 10, 66, 0
16, 82680, Note_on_c, 10, 64, 90
16, 82739, Note_on_c, 10, 64, 0
16, 82740, Note_on_c, 10, 62, 90
16, 82799, Note_on_c, 10, 62, 0
16, 82800, Note_on_c, 10, 64, 90
16, 82859, Note_on_c, 10, 64, 0
16, 82860, Note_on_c, 10, 62, 90
16, 82889, Note_on_c, 10, 62, 0
16, 82890, Note_on_c, 10, 64, 90
16, 82919, Note_on_c, 10, 64, 0
16, 82920, Note_on_c, 10, 61, 90
16, 82979, Note_on_c, 10, 61, 0
16, 82980, Note_on_c, 10, 62, 90
16, 83039, Note_on_c, 10, 62, 0
16, 83040, Note_on_c, 10, 64, 90
16, 83099, Note_on_c, 10, 64, 0
16, 83100, Note_on_c, 10, 64, 90
16, 83159, Note_on_c, 10, 64, 0
16, 83160, Note_on_c, 10, 64, 90
16, 83219, Note_on_c, 10, 64, 0
16, 83220, Note_on_c, 10, 64, 90
16, 83279, Note_on_c, 10, 64, 0
16, 83280, Note_on_c, 10, 64, 90
16, 83339, Note_on_c, 10, 64, 0
16, 83340, Note_on_c, 10, 64, 90
16, 83399, Note_on_c, 10, 64, 0
16, 83400, Note_on_c, 10, 64, 90
16, 83459, Note_on_c, 10, 64, 0
16, 83460, Note_on_c, 10, 64, 90
16, 83519, Note_on_c, 10, 64, 0
16, 83520, Note_on_c, 10, 64, 90
16, 83579, Note_on_c, 10, 64, 0
16, 83580, Note_on_c, 10, 62, 90
16, 83609, Note_on_c, 10, 62, 0
16, 83610, Note_on_c, 10, 64, 90
16, 83639, Note_on_c, 10, 64, 0
16, 83640, Note_on_c, 10, 61, 90
16, 83669, Note_on_c, 10, 61, 0
16, 83670, Note_on_c, 10, 62, 90
16, 83699, Note_on_c, 10, 62, 0
16, 83700, Note_on_c, 10, 64, 90
16, 83729, Note_on_c, 10, 64, 0
16, 83730, Note_on_c, 10, 66, 90
16, 83759, Note_on_c, 10, 66, 0
16, 83760, Note_on_c, 10, 68, 90
16, 83819, Note_on_c, 10, 68, 0
16, 83820, Note_on_c, 10, 69, 90
16, 83879, Note_on_c, 10, 69, 0
16, 83880, Note_on_c, 10, 68, 90
16, 83939, Note_on_c, 10, 68, 0
16, 83940, Note_on_c, 10, 66, 90
16, 83999, Note_on_c, 10, 66, 0
16, 84000, Note_on_c, 10, 64, 90
16, 84059, Note_on_c, 10, 64, 0
16, 84060, Note_on_c, 10, 68, 90
16, 84089, Note_on_c, 10, 68, 0
16, 84090, Note_on_c, 10, 66, 90
16, 84119, Note_on_c, 10, 66, 0
16, 84120, Note_on_c, 10, 68, 90
16, 84179, Note_on_c, 10, 68, 0
16, 84180, Note_on_c, 10, 68, 90
16, 84239, Note_on_c, 10, 68, 0
16, 84240, Note_on_c, 10, 68, 90
16, 84299, Note_on_c, 10, 68, 0
16, 84300, Note_on_c, 10, 66, 90
16, 84329, Note_on_c, 10, 66, 0
16, 84330, Note_on_c, 10, 64, 90
16, 84359, Note_on_c, 10, 64, 0
16, 84360, Note_on_c, 10, 66, 90
16, 84419, Note_on_c, 10, 66, 0
16, 84420, Note_on_c, 10, 66, 90
16, 84479, Note_on_c, 10, 66, 0
16, 84480, Note_on_c, 10, 71, 90
16, 84539, Note_on_c, 10, 71, 0
16, 84540, Note_on_c, 10, 68, 90
16, 84599, Note_on_c, 10, 68, 0
16, 84600, Note_on_c, 10, 64, 90
16, 84659, Note_on_c, 10, 64, 0
16, 84660, Note_on_c, 10, 63, 90
16, 84719, Note_on_c, 10, 63, 0
16, 84720, Note_on_c, 10, 59, 90
16, 84839, Note_on_c, 10, 59, 0
16, 84870, Note_on_c, 10, 63, 90
16, 84899, Note_on_c, 10, 63, 0
16, 84900, Note_on_c, 10, 64, 90
16, 84929, Note_on_c, 10, 64, 0
16, 84930, Note_on_c, 10, 66, 90
16, 84959, Note_on_c, 10, 66, 0
16, 84960, Note_on_c, 10, 68, 90
16, 85019, Note_on_c, 10, 68, 0
16, 85020, Note_on_c, 10, 69, 90
16, 85079, Note_on_c, 10, 69, 0
16, 85080, Note_on_c, 10, 68, 90
16, 85139, Note_on_c, 10, 68, 0
16, 85140, Note_on_c, 10, 66, 90
16, 85199, Note_on_c, 10, 66, 0
16, 85200, Note_on_c, 10, 68, 90
16, 85259, Note_on_c, 10, 68, 0
16, 85260, Note_on_c, 10, 66, 90
16, 85289, Note_on_c, 10, 66, 0
16, 85290, Note_on_c, 10, 68, 90
16, 85319, Note_on_c, 10, 68, 0
16, 85320, Note_on_c, 10, 64, 90
16, 85379, Note_on_c, 10, 64, 0
16, 85380, Note_on_c, 10, 68, 90
16, 85439, Note_on_c, 10, 68, 0
16, 85440, Note_on_c, 10, 69, 90
16, 85499, Note_on_c, 10, 69, 0
16, 85500, Note_on_c, 10, 66, 90
16, 85529, Note_on_c, 10, 66, 0
16, 85530, Note_on_c, 10, 67, 90
16, 85559, Note_on_c, 10, 67, 0
16, 85560, Note_on_c, 10, 69, 90
16, 85619, Note_on_c, 10, 69, 0
16, 85620, Note_on_c, 10, 69, 90
16, 85679, Note_on_c, 10, 69, 0
16, 85680, Note_on_c, 10, 69, 90
16, 85739, Note_on_c, 10, 69, 0
16, 85740, Note_on_c, 10, 66, 90
16, 85769, Note_on_c, 10, 66, 0
16, 85770, Note_on_c, 10, 67, 90
16, 85799, Note_on_c, 10, 67, 0
16, 85800, Note_on_c, 10, 69, 90
16, 85859, Note_on_c, 10, 69, 0
16, 85860, Note_on_c, 10, 69, 90
16, 85919, Note_on_c, 10, 69, 0
16, 85920, Note_on_c, 10, 71, 90
16, 85979, Note_on_c, 10, 71, 0
16, 85980, Note_on_c, 10, 68, 90
16, 86009, Note_on_c, 10, 68, 0
16, 86010, Note_on_c, 10, 69, 90
16, 86039, Note_on_c, 10, 69, 0
16, 86040, Note_on_c, 10, 71, 90
16, 86099, Note_on_c, 10, 71, 0
16, 86100, Note_on_c, 10, 71, 90
16, 86159, Note_on_c, 10, 71, 0
16, 86160, Note_on_c, 10, 71, 90
16, 86219, Note_on_c, 10, 71, 0
16, 86220, Note_on_c, 10, 68, 90
16, 86249, Note_on_c, 10, 68, 0
16, 86250, Note_on_c, 10, 69, 90
16, 86279, Note_on_c, 10, 69, 0
16, 86280, Note_on_c, 10, 71, 90
16, 86339, Note_on_c, 10, 71, 0
16, 86340, Note_on_c, 10, 71, 90
16, 86399, Note_on_c, 10, 71, 0
16, 86400, Note_on_c, 10, 69, 90
16, 86459, Note_on_c, 10, 69, 0
16, 86460, Note_on_c, 10, 64, 90
16, 86519, Note_on_c, 10, 64, 0
16, 86520, Note_on_c, 10, 66, 90
16, 86579, Note_on_c, 10, 66, 0
16, 86580, Note_on_c, 10, 64, 90
16, 86639, Note_on_c, 10, 64, 0
16, 86640, Note_on_c, 10, 64, 90
16, 86699, Note_on_c, 10, 64, 0
16, 86700, Note_on_c, 10, 61, 90
16, 86729, Note_on_c, 10, 61, 0
16, 86730, Note_on_c, 10, 62, 90
16, 86759, Note_on_c, 10, 62, 0
16, 86760, Note_on_c, 10, 64, 90
16, 86819, Note_on_c, 10, 64, 0
16, 86820, Note_on_c, 10, 66, 90
16, 86849, Note_on_c, 10, 66, 0
16, 86850, Note_on_c, 10, 68, 90
16, 86879, Note_on_c, 10, 68, 0
16, 86880, Note_on_c, 10, 69, 90
16, 86939, Note_on_c, 10, 69, 0
16, 86940, Note_on_c, 10, 69, 90
16, 86999, Note_on_c, 10, 69, 0
16, 87000, Note_on_c, 10, 69, 90
16, 87059, Note_on_c, 10, 69, 0
16, 87060, Note_on_c, 10, 64, 90
16, 87119, Note_on_c, 10, 64, 0
16, 87120, Note_on_c, 10, 64, 90
16, 87299, Note_on_c, 10, 64, 0
16, 87300, Note_on_c, 10, 61, 90
16, 87329, Note_on_c, 10, 61, 0
16, 87330, Note_on_c, 10, 62, 90
16, 87359, Note_on_c, 10, 62, 0
16, 87360, Note_on_c, 10, 64, 90
16, 87419, Note_on_c, 10, 64, 0
16, 87420, Note_on_c, 10, 66, 90
16, 87479, Note_on_c, 10, 66, 0
16, 87480, Note_on_c, 10, 64, 90
16, 87539, Note_on_c, 10, 64, 0
16, 87540, Note_on_c, 10, 62, 90
16, 87599, Note_on_c, 10, 62, 0
16, 87600, Note_on_c, 10, 64, 90
16, 87659, Note_on_c, 10, 64, 0
16, 87660, Note_on_c, 10, 62, 90
16, 87689, Note_on_c, 10, 62, 0
16, 87690, Note_on_c, 10, 64, 90
16, 87719, Note_on_c, 10, 64, 0
16, 87720, Note_on_c, 10, 61, 90
16, 87779, Note_on_c, 10, 61, 0
16, 87780, Note_on_c, 10, 62, 90
16, 87839, Note_on_c, 10, 62, 0
16, 87840, Note_on_c, 10, 64, 90
16, 87899, Note_on_c, 10, 64, 0
16, 87900, Note_on_c, 10, 64, 90
16, 87959, Note_on_c, 10, 64, 0
16, 87960, Note_on_c, 10, 64, 90
16, 88019, Note_on_c, 10, 64, 0
16, 88020, Note_on_c, 10, 64, 90
16, 88079, Note_on_c, 10, 64, 0
16, 88080, Note_on_c, 10, 64, 90
16, 88139, Note_on_c, 10, 64, 0
16, 88140, Note_on_c, 10, 64, 90
16, 88199, Note_on_c, 10, 64, 0
16, 88200, Note_on_c, 10, 64, 90
16, 88259, Note_on_c, 10, 64, 0
16, 88260, Note_on_c, 10, 64, 90
16, 88319, Note_on_c, 10, 64, 0
16, 88320, Note_on_c, 10, 64, 90
16, 88379, Note_on_c, 10, 64, 0
16, 88380, Note_on_c, 10, 64, 90
16, 88439, Note_on_c, 10, 64, 0
16, 88440, Note_on_c, 10, 64, 90
16, 88469, Note_on_c, 10, 64, 0
16, 88470, Note_on_c, 10, 68, 90
16, 88499, Note_on_c, 10, 68, 0
16, 88500, Note_on_c, 10, 69, 90
16, 88529, Note_on_c, 10, 69, 0
16, 88530, Note_on_c, 10, 71, 90
16, 88559, Note_on_c, 10, 71, 0
16, 88560, Note_on_c, 10, 73, 90
16, 88619, Note_on_c, 10, 73, 0
16, 88620, Note_on_c, 10, 74, 90
16, 88679, Note_on_c, 10, 74, 0
16, 88680, Note_on_c, 10, 73, 90
16, 88739, Note_on_c, 10, 73, 0
16, 88740, Note_on_c, 10, 71, 90
16, 88799, Note_on_c, 10, 71, 0
16, 88800, Note_on_c, 10, 69, 90
16, 88859, Note_on_c, 10, 69, 0
16, 88860, Note_on_c, 10, 73, 90
16, 88889, Note_on_c, 10, 73, 0
16, 88890, Note_on_c, 10, 71, 90
16, 88919, Note_on_c, 10, 71, 0
16, 88920, Note_on_c, 10, 73, 90
16, 88979, Note_on_c, 10, 73, 0
16, 88980, Note_on_c, 10, 73, 90
16, 89039, Note_on_c, 10, 73, 0
16, 89040, Note_on_c, 10, 73, 90
16, 89099, Note_on_c, 10, 73, 0
16, 89100, Note_on_c, 10, 71, 90
16, 89129, Note_on_c, 10, 71, 0
16, 89130, Note_on_c, 10, 69, 90
16, 89159, Note_on_c, 10, 69, 0
16, 89160, Note_on_c, 10, 71, 90
16, 89219, Note_on_c, 10, 71, 0
16, 89220, Note_on_c, 10, 71, 90
16, 89279, Note_on_c, 10, 71, 0
16, 89280, Note_on_c, 10, 76, 90
16, 89339, Note_on_c, 10, 76, 0
16, 89340, Note_on_c, 10, 73, 90
16, 89399, Note_on_c, 10, 73, 0
16, 89400, Note_on_c, 10, 69, 90
16, 89459, Note_on_c, 10, 69, 0
16, 89460, Note_on_c, 10, 68, 90
16, 89519, Note_on_c, 10, 68, 0
16, 89520, Note_on_c, 10, 64, 90
16, 89639, Note_on_c, 10, 64, 0
16, 89700, Note_on_c, 10, 61, 90
16, 89729, Note_on_c, 10, 61, 0
16, 89730, Note_on_c, 10, 62, 90
16, 89759, Note_on_c, 10, 62, 0
16, 89760, Note_on_c, 10, 64, 90
16, 89819, Note_on_c, 10, 64, 0
16, 89820, Note_on_c, 10, 66, 90
16, 89879, Note_on_c, 10, 66, 0
16, 89880, Note_on_c, 10, 64, 90
16, 89939, Note_on_c, 10, 64, 0
16, 89940, Note_on_c, 10, 62, 90
16, 89999, Note_on_c, 10, 62, 0
16, 90000, Note_on_c, 10, 64, 90
16, 90059, Note_on_c, 10, 64, 0
16, 90060, Note_on_c, 10, 62, 90
16, 90089, Note_on_c, 10, 62, 0
16, 90090, Note_on_c, 10, 64, 90
16, 90119, Note_on_c, 10, 64, 0
16, 90120, Note_on_c, 10, 61, 90
16, 90179, Note_on_c, 10, 61, 0
16, 90180, Note_on_c, 10, 62, 90
16, 90239, Note_on_c, 10, 62, 0
16, 90240, Note_on_c, 10, 64, 90
16, 90299, Note_on_c, 10, 64, 0
16, 90300, Note_on_c, 10, 64, 90
16, 90359, Note_on_c, 10, 64, 0
16, 90360, Note_on_c, 10, 64, 90
16, 90419, Note_on_c, 10, 64, 0
16, 90420, Note_on_c, 10, 64, 90
16, 90479, Note_on_c, 10, 64, 0
16, 90480, Note_on_c, 10, 64, 90
16, 90539, Note_on_c, 10, 64, 0
16, 90540, Note_on_c, 10, 64, 90
16, 90599, Note_on_c, 10, 64, 0
16, 90600, Note_on_c, 10, 64, 90
16, 90659, Note_on_c, 10, 64, 0
16, 90660, Note_on_c, 10, 64, 90
16, 90719, Note_on_c, 10, 64, 0
16, 90720, Note_on_c, 10, 64, 90
16, 90779, Note_on_c, 10, 64, 0
16, 90780, Note_on_c, 10, 62, 90
16, 90809, Note_on_c, 10, 62, 0
16, 90810, Note_on_c, 10, 64, 90
16, 90839, Note_on_c, 10, 64, 0
16, 90840, Note_on_c, 10, 61, 90
16, 90869, Note_on_c, 10, 61, 0
16, 90870, Note_on_c, 10, 62, 90
16, 90899, Note_on_c, 10, 62, 0
16, 90900, Note_on_c, 10, 64, 90
16, 90929, Note_on_c, 10, 64, 0
16, 90930, Note_on_c, 10, 66, 90
16, 90959, Note_on_c, 10, 66, 0
16, 90960, Note_on_c, 10, 68, 90
16, 91019, Note_on_c, 10, 68, 0
16, 91020, Note_on_c, 10, 69, 90
16, 91079, Note_on_c, 10, 69, 0
16, 91080, Note_on_c, 10, 68, 90
16, 91139, Note_on_c, 10, 68, 0
16, 91140, Note_on_c, 10, 66, 90
16, 91199, Note_on_c, 10, 66, 0
16, 91200, Note_on_c, 10, 64, 90
16, 91229, Note_on_c, 10, 64, 0
16, 91230, Note_on_c, 10, 63, 90
16, 91259, Note_on_c, 10, 63, 0
16, 91260, Note_on_c, 10, 64, 90
16, 91289, Note_on_c, 10, 64, 0
16, 91290, Note_on_c, 10, 66, 90
16, 91319, Note_on_c, 10, 66, 0
16, 91320, Note_on_c, 10, 68, 90
16, 91379, Note_on_c, 10, 68, 0
16, 91380, Note_on_c, 10, 64, 90
16, 91439, Note_on_c, 10, 64, 0
16, 91440, Note_on_c, 10, 64, 90
16, 91469, Note_on_c, 10, 64, 0
16, 91470, Note_on_c, 10, 61, 90
16, 91499, Note_on_c, 10, 61, 0
16, 91500, Note_on_c, 10, 63, 90
16, 91529, Note_on_c, 10, 63, 0
16, 91530, Note_on_c, 10, 64, 90
16, 91559, Note_on_c, 10, 64, 0
16, 91560, Note_on_c, 10, 66, 90
16, 91619, Note_on_c, 10, 66, 0
16, 91620, Note_on_c, 10, 66, 90
16, 91679, Note_on_c, 10, 66, 0
16, 91680, Note_on_c, 10, 71, 90
16, 91739, Note_on_c, 10, 71, 0
16, 91740, Note_on_c, 10, 68, 90
16, 91799, Note_on_c, 10, 68, 0
16, 91800, Note_on_c, 10, 64, 90
16, 91859, Note_on_c, 10, 64, 0
16, 91860, Note_on_c, 10, 63, 90
16, 91919, Note_on_c, 10, 63, 0
16, 91920, Note_on_c, 10, 59, 90
16, 92039, Note_on_c, 10, 59, 0
16, 92070, Note_on_c, 10, 63, 90
16, 92099, Note_on_c, 10, 63, 0
16, 92100, Note_on_c, 10, 64, 90
16, 92129, Note_on_c, 10, 64, 0
16, 92130, Note_on_c, 10, 66, 90
16, 92159, Note_on_c, 10, 66, 0
16, 92160, Note_on_c, 10, 68, 90
16, 92219, Note_on_c, 10, 68, 0
16, 92220, Note_on_c, 10, 69, 90
16, 92279, Note_on_c, 10, 69, 0
16, 92280, Note_on_c, 10, 68, 90
16, 92339, Note_on_c, 10, 68, 0
16, 92340, Note_on_c, 10, 66, 90
16, 92399, Note_on_c, 10, 66, 0
16, 92400, Note_on_c, 10, 68, 90
16, 92459, Note_on_c, 10, 68, 0
16, 92460, Note_on_c, 10, 66, 90
16, 92489, Note_on_c, 10, 66, 0
16, 92490, Note_on_c, 10, 68, 90
16, 92519, Note_on_c, 10, 68, 0
16, 92520, Note_on_c, 10, 64, 90
16, 92579, Note_on_c, 10, 64, 0
16, 92580, Note_on_c, 10, 71, 90
16, 92639, Note_on_c, 10, 71, 0
16, 92640, Note_on_c, 10, 69, 90
16, 92759, Note_on_c, 10, 69, 0
16, 92820, Note_on_c, 10, 68, 90
16, 92879, Note_on_c, 10, 68, 0
16, 92880, Note_on_c, 10, 66, 90
16, 92999, Note_on_c, 10, 66, 0
16, 93030, Note_on_c, 10, 69, 90
16, 93059, Note_on_c, 10, 69, 0
16, 93060, Note_on_c, 10, 71, 90
16, 93089, Note_on_c, 10, 71, 0
16, 93090, Note_on_c, 10, 73, 90
16, 93119, Note_on_c, 10, 73, 0
16, 93120, Note_on_c, 10, 74, 90
16, 93149, Note_on_c, 10, 74, 0
16, 93150, Note_on_c, 10, 73, 90
16, 93179, Note_on_c, 10, 73, 0
16, 93180, Note_on_c, 10, 71, 90
16, 93209, Note_on_c, 10, 71, 0
16, 93210, Note_on_c, 10, 73, 90
16, 93239, Note_on_c, 10, 73, 0
16, 93240, Note_on_c, 10, 74, 90
16, 93269, Note_on_c, 10, 74, 0
16, 93270, Note_on_c, 10, 73, 90
16, 93299, Note_on_c, 10, 73, 0
16, 93300, Note_on_c, 10, 71, 90
16, 93329, Note_on_c, 10, 71, 0
16, 93330, Note_on_c, 10, 70, 90
16, 93359, Note_on_c, 10, 70, 0
16, 93360, Note_on_c, 10, 71, 90
16, 93479, Note_on_c, 10, 71, 0
16, 93540, Note_on_c, 10, 71, 90
16, 93599, Note_on_c, 10, 71, 0
16, 93600, Note_on_c, 10, 64, 90
16, 93719, Note_on_c, 10, 64, 0
16, 93780, Note_on_c, 10, 66, 90
16, 93839, Note_on_c, 10, 66, 0
16, 93840, Note_on_c, 10, 64, 90
16, 93959, Note_on_c, 10, 64, 0
16, 93990, Note_on_c, 10, 68, 90
16, 94019, Note_on_c, 10, 68, 0
16, 94020, Note_on_c, 10, 69, 90
16, 94049, Note_on_c, 10, 69, 0
16, 94050, Note_on_c, 10, 71, 90
16, 94079, Note_on_c, 10, 71, 0
16, 94080, Note_on_c, 10, 73, 90
16, 94139, Note_on_c, 10, 73, 0
16, 94140, Note_on_c, 10, 74, 90
16, 94199, Note_on_c, 10, 74, 0
16, 94200, Note_on_c, 10, 73, 90
16, 94259, Note_on_c, 10, 73, 0
16, 94260, Note_on_c, 10, 71, 90
16, 94319, Note_on_c, 10, 71, 0
16, 94320, Note_on_c, 10, 73, 90
16, 94379, Note_on_c, 10, 73, 0
16, 94380, Note_on_c, 10, 71, 90
16, 94409, Note_on_c, 10, 71, 0
16, 94410, Note_on_c, 10, 73, 90
16, 94439, Note_on_c, 10, 73, 0
16, 94440, Note_on_c, 10, 69, 90
16, 94499, Note_on_c, 10, 69, 0
16, 94500, Note_on_c, 10, 74, 90
16, 94559, Note_on_c, 10, 74, 0
16, 94560, Note_on_c, 10, 73, 90
16, 94619, Note_on_c, 10, 73, 0
16, 94620, Note_on_c, 10, 71, 90
16, 94649, Note_on_c, 10, 71, 0
16, 94650, Note_on_c, 10, 73, 90
16, 94679, Note_on_c, 10, 73, 0
16, 94680, Note_on_c, 10, 69, 90
16, 94739, Note_on_c, 10, 69, 0
16, 94740, Note_on_c, 10, 73, 90
16, 94799, Note_on_c, 10, 73, 0
16, 94800, Note_on_c, 10, 71, 90
16, 94859, Note_on_c, 10, 71, 0
16, 94860, Note_on_c, 10, 69, 90
16, 94889, Note_on_c, 10, 69, 0
16, 94890, Note_on_c, 10, 71, 90
16, 94919, Note_on_c, 10, 71, 0
16, 94920, Note_on_c, 10, 68, 90
16, 94979, Note_on_c, 10, 68, 0
16, 94980, Note_on_c, 10, 71, 90
16, 95039, Note_on_c, 10, 71, 0
16, 95040, Note_on_c, 10, 69, 90
16, 95099, Note_on_c, 10, 69, 0
16, 95100, Note_on_c, 10, 68, 90
16, 95159, Note_on_c, 10, 68, 0
16, 95160, Note_on_c, 10, 64, 90
16, 95219, Note_on_c, 10, 64, 0
16, 95220, Note_on_c, 10, 78, 90
16, 95279, Note_on_c, 10, 78, 0
16, 95280, Note_on_c, 10, 76, 90
16, 95399, Note_on_c, 10, 76, 0
16, 95460, Note_on_c, 10, 80, 90
16, 95519, Note_on_c, 10, 80, 0
16, 95520, Note_on_c, 10, 78, 90
16, 95549, Note_on_c, 10, 78, 0
16, 95550, Note_on_c, 10, 80, 90
16, 95579, Note_on_c, 10, 80, 0
16, 95580, Note_on_c, 10, 81, 90
16, 95609, Note_on_c, 10, 81, 0
16, 95610, Note_on_c, 10, 80, 90
16, 95639, Note_on_c, 10, 80, 0
16, 95640, Note_on_c, 10, 78, 90
16, 95699, Note_on_c, 10, 78, 0
16, 95700, Note_on_c, 10, 73, 90
16, 95729, Note_on_c, 10, 73, 0
16, 95730, Note_on_c, 10, 74, 90
16, 95759, Note_on_c, 10, 74, 0
16, 95760, Note_on_c, 10, 76, 90
16, 95789, Note_on_c, 10, 76, 0
16, 95790, Note_on_c, 10, 74, 90
16, 95819, Note_on_c, 10, 74, 0
16, 95820, Note_on_c, 10, 73, 90
16, 95849, Note_on_c, 10, 73, 0
16, 95850, Note_on_c, 10, 71, 90
16, 95879, Note_on_c, 10, 71, 0
16, 95880, Note_on_c, 10, 69, 90
16, 95939, Note_on_c, 10, 69, 0
16, 95940, Note_on_c, 10, 76, 90
16, 95999, Note_on_c, 10, 76, 0
16, 96000, Note_on_c, 10, 78, 90
16, 96029, Note_on_c, 10, 78, 0
16, 96030, Note_on_c, 10, 76, 90
16, 96059, Note_on_c, 10, 76, 0
16, 96060, Note_on_c, 10, 75, 90
16, 96089, Note_on_c, 10, 75, 0
16, 96090, Note_on_c, 10, 73, 90
16, 96119, Note_on_c, 10, 73, 0
16, 96120, Note_on_c, 10, 71, 90
16, 96179, Note_on_c, 10, 71, 0
16, 96180, Note_on_c, 10, 71, 90
16, 96239, Note_on_c, 10, 71, 0
16, 96240, Note_on_c, 10, 71, 90
16, 96269, Note_on_c, 10, 71, 0
16, 96270, Note_on_c, 10, 63, 90
16, 96299, Note_on_c, 10, 63, 0
16, 96300, Note_on_c, 10, 64, 90
16, 96329, Note_on_c, 10, 64, 0
16, 96330, Note_on_c, 10, 66, 90
16, 96359, Note_on_c, 10, 66, 0
16, 96360, Note_on_c, 10, 68, 90
16, 96389, Note_on_c, 10, 68, 0
16, 96390, Note_on_c, 10, 69, 90
16, 96419, Note_on_c, 10, 69, 0
16, 96420, Note_on_c, 10, 71, 90
16, 96449, Note_on_c, 10, 71, 0
16, 96450, Note_on_c, 10, 69, 90
16, 96479, Note_on_c, 10, 69, 0
16, 96480, Note_on_c, 10, 68, 90
16, 96539, Note_on_c, 10, 68, 0
16, 96540, Note_on_c, 10, 71, 90
16, 96599, Note_on_c, 10, 71, 0
16, 96600, Note_on_c, 10, 73, 90
16, 96659, Note_on_c, 10, 73, 0
16, 96660, Note_on_c, 10, 71, 90
16, 96719, Note_on_c, 10, 71, 0
16, 96720, Note_on_c, 10, 71, 90
16, 96839, Note_on_c, 10, 71, 0
16, 96900, Note_on_c, 10, 59, 90
16, 96959, Note_on_c, 10, 59, 0
16, 96960, Note_on_c, 10, 64, 90
16, 97019, Note_on_c, 10, 64, 0
16, 97020, Note_on_c, 10, 61, 90
16, 97049, Note_on_c, 10, 61, 0
16, 97050, Note_on_c, 10, 62, 90
16, 97079, Note_on_c, 10, 62, 0
16, 97080, Note_on_c, 10, 64, 90
16, 97139, Note_on_c, 10, 64, 0
16, 97140, Note_on_c, 10, 64, 90
16, 97199, Note_on_c, 10, 64, 0
16, 97200, Note_on_c, 10, 64, 90
16, 97259, Note_on_c, 10, 64, 0
16, 97260, Note_on_c, 10, 61, 90
16, 97289, Note_on_c, 10, 61, 0
16, 97290, Note_on_c, 10, 62, 90
16, 97319, Note_on_c, 10, 62, 0
16, 97320, Note_on_c, 10, 64, 90
16, 97379, Note_on_c, 10, 64, 0
16, 97380, Note_on_c, 10, 64, 90
16, 97439, Note_on_c, 10, 64, 0
16, 97440, Note_on_c, 10, 66, 90
16, 97499, Note_on_c, 10, 66, 0
16, 97500, Note_on_c, 10, 63, 90
16, 97529, Note_on_c, 10, 63, 0
16, 97530, Note_on_c, 10, 64, 90
16, 97559, Note_on_c, 10, 64, 0
16, 97560, Note_on_c, 10, 66, 90
16, 97619, Note_on_c, 10, 66, 0
16, 97620, Note_on_c, 10, 66, 90
16, 97679, Note_on_c, 10, 66, 0
16, 97680, Note_on_c, 10, 66, 90
16, 97739, Note_on_c, 10, 66, 0
16, 97740, Note_on_c, 10, 63, 90
16, 97769, Note_on_c, 10, 63, 0
16, 97770, Note_on_c, 10, 64, 90
16, 97799, Note_on_c, 10, 64, 0
16, 97800, Note_on_c, 10, 66, 90
16, 97859, Note_on_c, 10, 66, 0
16, 97860, Note_on_c, 10, 66, 90
16, 97919, Note_on_c, 10, 66, 0
16, 97920, Note_on_c, 10, 64, 90
16, 97979, Note_on_c, 10, 64, 0
16, 97980, Note_on_c, 10, 59, 90
16, 98039, Note_on_c, 10, 59, 0
16, 98040, Note_on_c, 10, 61, 90
16, 98099, Note_on_c, 10, 61, 0
16, 98100, Note_on_c, 10, 59, 90
16, 98159, Note_on_c, 10, 59, 0
16, 98160, Note_on_c, 10, 59, 90
16, 98219, Note_on_c, 10, 59, 0
16, 98220, Note_on_c, 10, 68, 90
16, 98249, Note_on_c, 10, 68, 0
16, 98250, Note_on_c, 10, 69, 90
16, 98279, Note_on_c, 10, 69, 0
16, 98280, Note_on_c, 10, 71, 90
16, 98339, Note_on_c, 10, 71, 0
16, 98340, Note_on_c, 10, 73, 90
16, 98369, Note_on_c, 10, 73, 0
16, 98370, Note_on_c, 10, 75, 90
16, 98399, Note_on_c, 10, 75, 0
16, 98400, Note_on_c, 10, 76, 90
16, 98459, Note_on_c, 10, 76, 0
16, 98460, Note_on_c, 10, 76, 90
16, 98519, Note_on_c, 10, 76, 0
16, 98520, Note_on_c, 10, 76, 90
16, 98579, Note_on_c, 10, 76, 0
16, 98580, Note_on_c, 10, 71, 90
16, 98639, Note_on_c, 10, 71, 0
16, 98640, Note_on_c, 10, 71, 90
16, 98759, Note_on_c, 10, 71, 0
16, 98910, Note_on_c, 10, 64, 90
16, 98939, Note_on_c, 10, 64, 0
16, 98940, Note_on_c, 10, 68, 90
16, 98969, Note_on_c, 10, 68, 0
16, 98970, Note_on_c, 10, 69, 90
16, 98999, Note_on_c, 10, 69, 0
16, 99000, Note_on_c, 10, 71, 90
16, 99029, Note_on_c, 10, 71, 0
16, 99030, Note_on_c, 10, 68, 90
16, 99059, Note_on_c, 10, 68, 0
16, 99060, Note_on_c, 10, 64, 90
16, 99089, Note_on_c, 10, 64, 0
16, 99090, Note_on_c, 10, 68, 90
16, 99119, Note_on_c, 10, 68, 0
16, 99120, Note_on_c, 10, 71, 90
16, 99179, Note_on_c, 10, 71, 0
16, 99390, Note_on_c, 10, 66, 90
16, 99419, Note_on_c, 10, 66, 0
16, 99420, Note_on_c, 10, 69, 90
16, 99449, Note_on_c, 10, 69, 0
16, 99450, Note_on_c, 10, 73, 90
16, 99479, Note_on_c, 10, 73, 0
16, 99480, Note_on_c, 10, 78, 90
16, 99509, Note_on_c, 10, 78, 0
16, 99510, Note_on_c, 10, 73, 90
16, 99539, Note_on_c, 10, 73, 0
16, 99540, Note_on_c, 10, 69, 90
16, 99569, Note_on_c, 10, 69, 0
16, 99570, Note_on_c, 10, 73, 90
16, 99599, Note_on_c, 10, 73, 0
16, 99600, Note_on_c, 10, 76, 90
16, 99629, Note_on_c, 10, 76, 0
16, 99630, Note_on_c, 10, 64, 90
16, 99659, Note_on_c, 10, 64, 0
16, 99660, Note_on_c, 10, 69, 90
16, 99689, Note_on_c, 10, 69, 0
16, 99690, Note_on_c, 10, 73, 90
16, 99719, Note_on_c, 10, 73, 0
16, 99720, Note_on_c, 10, 76, 90
16, 99749, Note_on_c, 10, 76, 0
16, 99750, Note_on_c, 10, 69, 90
16, 99779, Note_on_c, 10, 69, 0
16, 99780, Note_on_c, 10, 64, 90
16, 99809, Note_on_c, 10, 64, 0
16, 99810, Note_on_c, 10, 69, 90
16, 99839, Note_on_c, 10, 69, 0
16, 99840, Note_on_c, 10, 74, 90
16, 99869, Note_on_c, 10, 74, 0
16, 99870, Note_on_c, 10, 62, 90
16, 99899, Note_on_c, 10, 62, 0
16, 99900, Note_on_c, 10, 66, 90
16, 99929, Note_on_c, 10, 66, 0
16, 99930, Note_on_c, 10, 69, 90
16, 99959, Note_on_c, 10, 69, 0
16, 99960, Note_on_c, 10, 74, 90
16, 99989, Note_on_c, 10, 74, 0
16, 99990, Note_on_c, 10, 69, 90
16, 100019, Note_on_c, 10, 69, 0
16, 100020, Note_on_c, 10, 66, 90
16, 100049, Note_on_c, 10, 66, 0
16, 100050, Note_on_c, 10, 69, 90
16, 100079, Note_on_c, 10, 69, 0
16, 100080, Note_on_c, 10, 73, 90
16, 100109, Note_on_c, 10, 73, 0
16, 100110, Note_on_c, 10, 70, 90
16, 100139, Note_on_c, 10, 70, 0
16, 100140, Note_on_c, 10, 66, 90
16, 100169, Note_on_c, 10, 66, 0
16, 100170, Note_on_c, 10, 70, 90
16, 100199, Note_on_c, 10, 70, 0
16, 100200, Note_on_c, 10, 73, 90
16, 100229, Note_on_c, 10, 73, 0
16, 100230, Note_on_c, 10, 70, 90
16, 100259, Note_on_c, 10, 70, 0
16, 100260, Note_on_c, 10, 66, 90
16, 100289, Note_on_c, 10, 66, 0
16, 100290, Note_on_c, 10, 70, 90
16, 100319, Note_on_c, 10, 70, 0
16, 100320, Note_on_c, 10, 59, 90
16, 100379, Note_on_c, 10, 59, 0
16, 100740, Note_on_c, 10, 69, 90
16, 100769, Note_on_c, 10, 69, 0
16, 100770, Note_on_c, 10, 71, 90
16, 100799, Note_on_c, 10, 71, 0
16, 100800, Note_on_c, 10, 73, 90
16, 100859, Note_on_c, 10, 73, 0
16, 100860, Note_on_c, 10, 74, 90
16, 100919, Note_on_c, 10, 74, 0
16, 100920, Note_on_c, 10, 73, 90
16, 100979, Note_on_c, 10, 73, 0
16, 100980, Note_on_c, 10, 71, 90
16, 101039, Note_on_c, 10, 71, 0
16, 101040, Note_on_c, 10, 73, 90
16, 101099, Note_on_c, 10, 73, 0
16, 101100, Note_on_c, 10, 71, 90
16, 101129, Note_on_c, 10, 71, 0
16, 101130, Note_on_c, 10, 73, 90
16, 101159, Note_on_c, 10, 73, 0
16, 101160, Note_on_c, 10, 69, 90
16, 101219, Note_on_c, 10, 69, 0
16, 101220, Note_on_c, 10, 71, 90
16, 101279, Note_on_c, 10, 71, 0
16, 101280, Note_on_c, 10, 73, 90
16, 101309, Note_on_c, 10, 73, 0
16, 101310, Note_on_c, 10, 69, 90
16, 101339, Note_on_c, 10, 69, 0
16, 101340, Note_on_c, 10, 66, 90
16, 101429, Note_on_c, 10, 66, 0
16, 101430, Note_on_c, 10, 73, 90
16, 101459, Note_on_c, 10, 73, 0
16, 101460, Note_on_c, 10, 71, 90
16, 101489, Note_on_c, 10, 71, 0
16, 101490, Note_on_c, 10, 69, 90
16, 101519, Note_on_c, 10, 69, 0
16, 101520, Note_on_c, 10, 71, 90
16, 101549, Note_on_c, 10, 71, 0
16, 101550, Note_on_c, 10, 68, 90
16, 101579, Note_on_c, 10, 68, 0
16, 101580, Note_on_c, 10, 65, 90
16, 101669, Note_on_c, 10, 65, 0
16, 101670, Note_on_c, 10, 74, 90
16, 101699, Note_on_c, 10, 74, 0
16, 101700, Note_on_c, 10, 73, 90
16, 101729, Note_on_c, 10, 73, 0
16, 101730, Note_on_c, 10, 71, 90
16, 101759, Note_on_c, 10, 71, 0
16, 101760, Note_on_c, 10, 78, 90
16, 101789, Note_on_c, 10, 78, 0
16, 101790, Note_on_c, 10, 73, 90
16, 101819, Note_on_c, 10, 73, 0
16, 101820, Note_on_c, 10, 69, 90
16, 101909, Note_on_c, 10, 69, 0
16, 101910, Note_on_c, 10, 73, 90
16, 101939, Note_on_c, 10, 73, 0
16, 101940, Note_on_c, 10, 78, 90
16, 101969, Note_on_c, 10, 78, 0
16, 101970, Note_on_c, 10, 76, 90
16, 101999, Note_on_c, 10, 76, 0
16, 102000, Note_on_c, 10, 74, 90
16, 102059, Note_on_c, 10, 74, 0
16, 102060, Note_on_c, 10, 71, 90
16, 102119, Note_on_c, 10, 71, 0
16, 102120, Note_on_c, 10, 71, 90
16, 102179, Note_on_c, 10, 71, 0
16, 102180, Note_on_c, 10, 74, 90
16, 102239, Note_on_c, 10, 74, 0
16, 102240, Note_on_c, 10, 76, 90
16, 102269, Note_on_c, 10, 76, 0
16, 102270, Note_on_c, 10, 71, 90
16, 102299, Note_on_c, 10, 71, 0
16, 102300, Note_on_c, 10, 64, 90
16, 102389, Note_on_c, 10, 64, 0
16, 102390, Note_on_c, 10, 71, 90
16, 102419, Note_on_c, 10, 71, 0
16, 102420, Note_on_c, 10, 76, 90
16, 102449, Note_on_c, 10, 76, 0
16, 102450, Note_on_c, 10, 74, 90
16, 102479, Note_on_c, 10, 74, 0
16, 102480, Note_on_c, 10, 73, 90
16, 102539, Note_on_c, 10, 73, 0
16, 102540, Note_on_c, 10, 69, 90
16, 102599, Note_on_c, 10, 69, 0
16, 102600, Note_on_c, 10, 69, 90
16, 102659, Note_on_c, 10, 69, 0
16, 102660, Note_on_c, 10, 73, 90
16, 102719, Note_on_c, 10, 73, 0
16, 102720, Note_on_c, 10, 74, 90
16, 102749, Note_on_c, 10, 74, 0
16, 102750, Note_on_c, 10, 69, 90
16, 102779, Note_on_c, 10, 69, 0
16, 102780, Note_on_c, 10, 62, 90
16, 102869, Note_on_c, 10, 62, 0
16, 102870, Note_on_c, 10, 69, 90
16, 102899, Note_on_c, 10, 69, 0
16, 102900, Note_on_c, 10, 74, 90
16, 102929, Note_on_c, 10, 74, 0
16, 102930, Note_on_c, 10, 73, 90
16, 102959, Note_on_c, 10, 73, 0
16, 102960, Note_on_c, 10, 71, 90
16, 103019, Note_on_c, 10, 71, 0
16, 103020, Note_on_c, 10, 68, 90
16, 103079, Note_on_c, 10, 68, 0
16, 103080, Note_on_c, 10, 68, 90
16, 103139, Note_on_c, 10, 68, 0
16, 103140, Note_on_c, 10, 71, 90
16, 103199, Note_on_c, 10, 71, 0
16, 103200, Note_on_c, 10, 73, 90
16, 103259, Note_on_c, 10, 73, 0
16, 103260, Note_on_c, 10, 68, 90
16, 103319, Note_on_c, 10, 68, 0
16, 103620, Note_on_c, 10, 69, 90
16, 103679, Note_on_c, 10, 69, 0
16, 103680, Note_on_c, 10, 68, 90
16, 103739, Note_on_c, 10, 68, 0
16, 103740, Note_on_c, 10, 73, 90
16, 103799, Note_on_c, 10, 73, 0
16, 103800, Note_on_c, 10, 71, 90
16, 103859, Note_on_c, 10, 71, 0
16, 103860, Note_on_c, 10, 69, 90
16, 103919, Note_on_c, 10, 69, 0
16, 103920, Note_on_c, 10, 68, 90
16, 104039, Note_on_c, 10, 68, 0
16, 104100, Note_on_c, 10, 68, 90
16, 104159, Note_on_c, 10, 68, 0
16, 104160, Note_on_c, 10, 66, 100
16, 104280, Note_on_c, 10, 66, 0
16, 104340, Note_on_c, 10, 74, 90
16, 104399, Note_on_c, 10, 74, 0
16, 104400, Note_on_c, 10, 71, 100
16, 104520, Note_on_c, 10, 71, 0
16, 104580, Note_on_c, 10, 71, 90
16, 104639, Note_on_c, 10, 71, 0
16, 104640, Note_on_c, 10, 68, 100
16, 104760, Note_on_c, 10, 68, 0
16, 104820, Note_on_c, 10, 80, 90
16, 104879, Note_on_c, 10, 80, 0
16, 104880, Note_on_c, 10, 77, 100
16, 105000, Note_on_c, 10, 77, 0
16, 105060, Note_on_c, 10, 77, 90
16, 105119, Note_on_c, 10, 77, 0
16, 105120, Note_on_c, 10, 73, 100
16, 105240, Note_on_c, 10, 73, 0
16, 105300, Note_on_c, 10, 71, 90
16, 105359, Note_on_c, 10, 71, 0
16, 105360, Note_on_c, 10, 69, 90
16, 105419, Note_on_c, 10, 69, 0
16, 105420, Note_on_c, 10, 69, 90
16, 105450, Note_on_c, 10, 69, 0
16, 105450, Note_on_c, 10, 71, 90
16, 105480, Note_on_c, 10, 71, 0
16, 105480, Note_on_c, 10, 73, 90
16, 105539, Note_on_c, 10, 73, 0
16, 105540, Note_on_c, 10, 75, 90
16, 105570, Note_on_c, 10, 75, 0
16, 105570, Note_on_c, 10, 77, 90
16, 105600, Note_on_c, 10, 77, 0
16, 105600, Note_on_c, 10, 78, 90
16, 105659, Note_on_c, 10, 78, 0
16, 106020, Note_on_c, 10, 69, 90
16, 106049, Note_on_c, 10, 69, 0
16, 106050, Note_on_c, 10, 71, 90
16, 106079, Note_on_c, 10, 71, 0
16, 106080, Note_on_c, 10, 73, 90
16, 106139, Note_on_c, 10, 73, 0
16, 106140, Note_on_c, 10, 65, 90
16, 106199, Note_on_c, 10, 65, 0
16, 106200, Note_on_c, 10, 66, 90
16, 106259, Note_on_c, 10, 66, 0
16, 106260, Note_on_c, 10, 68, 90
16, 106319, Note_on_c, 10, 68, 0
16, 106320, Note_on_c, 10, 61, 90
16, 106439, Note_on_c, 10, 61, 0
16, 106500, Note_on_c, 10, 65, 90
16, 106529, Note_on_c, 10, 65, 0
16, 106530, Note_on_c, 10, 66, 90
16, 106559, Note_on_c, 10, 66, 0
16, 106560, Note_on_c, 10, 68, 90
16, 106619, Note_on_c, 10, 68, 0
16, 106620, Note_on_c, 10, 69, 90
16, 106679, Note_on_c, 10, 69, 0
16, 106680, Note_on_c, 10, 71, 90
16, 106739, Note_on_c, 10, 71, 0
16, 106740, Note_on_c, 10, 69, 90
16, 106799, Note_on_c, 10, 69, 0
16, 106800, Note_on_c, 10, 68, 90
16, 106919, Note_on_c, 10, 68, 0
16, 106980, Note_on_c, 10, 68, 90
16, 107039, Note_on_c, 10, 68, 0
16, 107040, Note_on_c, 10, 69, 90
16, 107099, Note_on_c, 10, 69, 0
16, 107100, Note_on_c, 10, 69, 90
16, 107129, Note_on_c, 10, 69, 0
16, 107130, Note_on_c, 10, 68, 90
16, 107159, Note_on_c, 10, 68, 0
16, 107160, Note_on_c, 10, 69, 90
16, 107219, Note_on_c, 10, 69, 0
16, 107220, Note_on_c, 10, 69, 90
16, 107279, Note_on_c, 10, 69, 0
16, 107280, Note_on_c, 10, 69, 90
16, 107339, Note_on_c, 10, 69, 0
16, 107340, Note_on_c, 10, 68, 90
16, 107369, Note_on_c, 10, 68, 0
16, 107370, Note_on_c, 10, 66, 90
16, 107399, Note_on_c, 10, 66, 0
16, 107400, Note_on_c, 10, 68, 90
16, 107459, Note_on_c, 10, 68, 0
16, 107460, Note_on_c, 10, 68, 90
16, 107519, Note_on_c, 10, 68, 0
16, 107520, Note_on_c, 10, 73, 90
16, 107579, Note_on_c, 10, 73, 0
16, 107580, Note_on_c, 10, 69, 90
16, 107639, Note_on_c, 10, 69, 0
16, 107640, Note_on_c, 10, 66, 90
16, 107699, Note_on_c, 10, 66, 0
16, 107700, Note_on_c, 10, 65, 90
16, 107759, Note_on_c, 10, 65, 0
16, 107760, Note_on_c, 10, 61, 90
16, 107879, Note_on_c, 10, 61, 0
16, 107940, Note_on_c, 10, 69, 90
16, 107999, Note_on_c, 10, 69, 0
16, 108000, Note_on_c, 10, 69, 90
16, 108119, Note_on_c, 10, 69, 0
16, 108180, Note_on_c, 10, 68, 90
16, 108239, Note_on_c, 10, 68, 0
16, 108240, Note_on_c, 10, 69, 90
16, 108299, Note_on_c, 10, 69, 0
16, 108300, Note_on_c, 10, 68, 90
16, 108329, Note_on_c, 10, 68, 0
16, 108330, Note_on_c, 10, 69, 90
16, 108359, Note_on_c, 10, 69, 0
16, 108360, Note_on_c, 10, 64, 90
16, 108419, Note_on_c, 10, 64, 0
16, 108420, Note_on_c, 10, 71, 90
16, 108479, Note_on_c, 10, 71, 0
16, 108480, Note_on_c, 10, 69, 90
16, 108539, Note_on_c, 10, 69, 0
16, 108540, Note_on_c, 10, 68, 90
16, 108569, Note_on_c, 10, 68, 0
16, 108570, Note_on_c, 10, 69, 90
16, 108599, Note_on_c, 10, 69, 0
16, 108600, Note_on_c, 10, 64, 90
16, 108659, Note_on_c, 10, 64, 0
16, 108660, Note_on_c, 10, 69, 90
16, 108719, Note_on_c, 10, 69, 0
16, 108720, Note_on_c, 10, 68, 90
16, 108779, Note_on_c, 10, 68, 0
16, 108780, Note_on_c, 10, 69, 90
16, 108809, Note_on_c, 10, 69, 0
16, 108810, Note_on_c, 10, 66, 90
16, 108839, Note_on_c, 10, 66, 0
16, 108840, Note_on_c, 10, 68, 90
16, 108899, Note_on_c, 10, 68, 0
16, 108900, Note_on_c, 10, 71, 90
16, 108959, Note_on_c, 10, 71, 0
16, 108960, Note_on_c, 10, 69, 90
16, 109019, Note_on_c, 10, 69, 0
16, 109020, Note_on_c, 10, 71, 90
16, 109079, Note_on_c, 10, 71, 0
16, 109080, Note_on_c, 10, 64, 90
16, 109139, Note_on_c, 10, 64, 0
16, 109140, Note_on_c, 10, 69, 90
16, 109199, Note_on_c, 10, 69, 0
16, 109200, Note_on_c, 10, 66, 90
16, 109259, Note_on_c, 10, 66, 0
16, 109260, Note_on_c, 10, 66, 90
16, 109319, Note_on_c, 10, 66, 0
16, 109320, Note_on_c, 10, 66, 90
16, 109379, Note_on_c, 10, 66, 0
16, 109380, Note_on_c, 10, 66, 90
16, 109439, Note_on_c, 10, 66, 0
16, 109440, Note_on_c, 10, 64, 90
16, 109469, Note_on_c, 10, 64, 0
16, 109470, Note_on_c, 10, 63, 90
16, 109499, Note_on_c, 10, 63, 0
16, 109500, Note_on_c, 10, 64, 90
16, 109529, Note_on_c, 10, 64, 0
16, 109530, Note_on_c, 10, 66, 90
16, 109559, Note_on_c, 10, 66, 0
16, 109560, Note_on_c, 10, 68, 90
16, 109619, Note_on_c, 10, 68, 0
16, 109620, Note_on_c, 10, 64, 90
16, 109679, Note_on_c, 10, 64, 0
16, 109680, Note_on_c, 10, 64, 90
16, 109709, Note_on_c, 10, 64, 0
16, 109710, Note_on_c, 10, 61, 90
16, 109739, Note_on_c, 10, 61, 0
16, 109740, Note_on_c, 10, 63, 90
16, 109769, Note_on_c, 10, 63, 0
16, 109770, Note_on_c, 10, 64, 90
16, 109799, Note_on_c, 10, 64, 0
16, 109800, Note_on_c, 10, 66, 90
16, 109859, Note_on_c, 10, 66, 0
16, 109860, Note_on_c, 10, 66, 90
16, 109919, Note_on_c, 10, 66, 0
16, 109920, Note_on_c, 10, 71, 90
16, 109979, Note_on_c, 10, 71, 0
16, 109980, Note_on_c, 10, 68, 90
16, 110039, Note_on_c, 10, 68, 0
16, 110040, Note_on_c, 10, 64, 90
16, 110099, Note_on_c, 10, 64, 0
16, 110100, Note_on_c, 10, 63, 90
16, 110159, Note_on_c, 10, 63, 0
16, 110160, Note_on_c, 10, 64, 90
16, 110399, Note_on_c, 10, 64, 0
16, 110400, Note_on_c, 10, 61, 90
16, 110759, Note_on_c, 10, 61, 0
16, 110910, Note_on_c, 10, 62, 90
16, 110939, Note_on_c, 10, 62, 0
16, 110940, Note_on_c, 10, 66, 90
16, 110969, Note_on_c, 10, 66, 0
16, 110970, Note_on_c, 10, 71, 90
16, 110999, Note_on_c, 10, 71, 0
16, 111000, Note_on_c, 10, 74, 90
16, 111029, Note_on_c, 10, 74, 0
16, 111030, Note_on_c, 10, 71, 90
16, 111059, Note_on_c, 10, 71, 0
16, 111060, Note_on_c, 10, 66, 90
16, 111089, Note_on_c, 10, 66, 0
16, 111090, Note_on_c, 10, 71, 90
16, 111119, Note_on_c, 10, 71, 0
16, 111120, Note_on_c, 10, 74, 90
16, 111149, Note_on_c, 10, 74, 0
16, 111150, Note_on_c, 10, 66, 90
16, 111179, Note_on_c, 10, 66, 0
16, 111180, Note_on_c, 10, 69, 90
16, 111209, Note_on_c, 10, 69, 0
16, 111210, Note_on_c, 10, 74, 90
16, 111239, Note_on_c, 10, 74, 0
16, 111240, Note_on_c, 10, 78, 90
16, 111269, Note_on_c, 10, 78, 0
16, 111270, Note_on_c, 10, 74, 90
16, 111299, Note_on_c, 10, 74, 0
16, 111300, Note_on_c, 10, 69, 90
16, 111329, Note_on_c, 10, 69, 0
16, 111330, Note_on_c, 10, 78, 90
16, 111359, Note_on_c, 10, 78, 0
16, 111360, Note_on_c, 10, 76, 90
16, 111389, Note_on_c, 10, 76, 0
16, 111390, Note_on_c, 10, 64, 90
16, 111419, Note_on_c, 10, 64, 0
16, 111420, Note_on_c, 10, 68, 90
16, 111449, Note_on_c, 10, 68, 0
16, 111450, Note_on_c, 10, 71, 90
16, 111479, Note_on_c, 10, 71, 0
16, 111480, Note_on_c, 10, 76, 90
16, 111509, Note_on_c, 10, 76, 0
16, 111510, Note_on_c, 10, 71, 90
16, 111539, Note_on_c, 10, 71, 0
16, 111540, Note_on_c, 10, 68, 90
16, 111569, Note_on_c, 10, 68, 0
16, 111570, Note_on_c, 10, 71, 90
16, 111599, Note_on_c, 10, 71, 0
16, 111600, Note_on_c, 10, 73, 90
16, 111629, Note_on_c, 10, 73, 0
16, 111630, Note_on_c, 10, 64, 90
16, 111659, Note_on_c, 10, 64, 0
16, 111660, Note_on_c, 10, 69, 90
16, 111689, Note_on_c, 10, 69, 0
16, 111690, Note_on_c, 10, 73, 90
16, 111719, Note_on_c, 10, 73, 0
16, 111720, Note_on_c, 10, 76, 90
16, 111749, Note_on_c, 10, 76, 0
16, 111750, Note_on_c, 10, 73, 90
16, 111779, Note_on_c, 10, 73, 0
16, 111780, Note_on_c, 10, 69, 90
16, 111809, Note_on_c, 10, 69, 0
16, 111810, Note_on_c, 10, 73, 90
16, 111839, Note_on_c, 10, 73, 0
16, 111840, Note_on_c, 10, 74, 90
16, 111899, Note_on_c, 10, 74, 0
16, 112260, Note_on_c, 10, 61, 90
16, 112289, Note_on_c, 10, 61, 0
16, 112290, Note_on_c, 10, 62, 90
16, 112319, Note_on_c, 10, 62, 0
16, 112320, Note_on_c, 10, 64, 90
16, 112379, Note_on_c, 10, 64, 0
16, 112380, Note_on_c, 10, 66, 90
16, 112439, Note_on_c, 10, 66, 0
16, 112440, Note_on_c, 10, 64, 90
16, 112499, Note_on_c, 10, 64, 0
16, 112500, Note_on_c, 10, 62, 90
16, 112559, Note_on_c, 10, 62, 0
16, 112560, Note_on_c, 10, 64, 90
16, 112619, Note_on_c, 10, 64, 0
16, 112620, Note_on_c, 10, 62, 90
16, 112649, Note_on_c, 10, 62, 0
16, 112650, Note_on_c, 10, 64, 90
16, 112679, Note_on_c, 10, 64, 0
16, 112680, Note_on_c, 10, 61, 90
16, 112739, Note_on_c, 10, 61, 0
16, 112740, Note_on_c, 10, 62, 90
16, 112799, Note_on_c, 10, 62, 0
16, 112800, Note_on_c, 10, 64, 90
16, 112919, Note_on_c, 10, 64, 0
16, 112980, Note_on_c, 10, 64, 90
16, 113039, Note_on_c, 10, 64, 0
16, 113040, Note_on_c, 10, 64, 90
16, 113159, Note_on_c, 10, 64, 0
16, 113220, Note_on_c, 10, 64, 90
16, 113279, Note_on_c, 10, 64, 0
16, 113280, Note_on_c, 10, 69, 90
16, 113339, Note_on_c, 10, 69, 0
16, 113340, Note_on_c, 10, 68, 90
16, 113369, Note_on_c, 10, 68, 0
16, 113370, Note_on_c, 10, 69, 90
16, 113399, Note_on_c, 10, 69, 0
16, 113400, Note_on_c, 10, 64, 90
16, 113459, Note_on_c, 10, 64, 0
16, 113460, Note_on_c, 10, 69, 90
16, 113519, Note_on_c, 10, 69, 0
16, 113520, Note_on_c, 10, 69, 90
16, 113609, Note_on_c, 10, 69, 0
16, 113610, Note_on_c, 10, 69, 90
16, 113639, Note_on_c, 10, 69, 0
16, 113640, Note_on_c, 10, 74, 90
16, 113729, Note_on_c, 10, 74, 0
16, 113730, Note_on_c, 10, 69, 90
16, 113759, Note_on_c, 10, 69, 0
16, 113760, Note_on_c, 10, 74, 90
16, 113849, Note_on_c, 10, 74, 0
16, 113850, Note_on_c, 10, 71, 90
16, 113879, Note_on_c, 10, 71, 0
16, 113880, Note_on_c, 10, 74, 90
16, 113969, Note_on_c, 10, 74, 0
16, 113970, Note_on_c, 10, 71, 90
16, 113999, Note_on_c, 10, 71, 0
16, 114000, Note_on_c, 10, 73, 90
16, 114089, Note_on_c, 10, 73, 0
16, 114090, Note_on_c, 10, 68, 90
16, 114119, Note_on_c, 10, 68, 0
16, 114120, Note_on_c, 10, 73, 90
16, 114209, Note_on_c, 10, 73, 0
16, 114210, Note_on_c, 10, 68, 90
16, 114239, Note_on_c, 10, 68, 0
16, 114240, Note_on_c, 10, 73, 90
16, 114329, Note_on_c, 10, 73, 0
16, 114330, Note_on_c, 10, 69, 90
16, 114359, Note_on_c, 10, 69, 0
16, 114360, Note_on_c, 10, 73, 90
16, 114449, Note_on_c, 10, 73, 0
16, 114450, Note_on_c, 10, 69, 90
16, 114479, Note_on_c, 10, 69, 0
16, 114480, Note_on_c, 10, 71, 90
16, 114569, Note_on_c, 10, 71, 0
16, 114570, Note_on_c, 10, 66, 90
16, 114599, Note_on_c, 10, 66, 0
16, 114600, Note_on_c, 10, 71, 90
16, 114689, Note_on_c, 10, 71, 0
16, 114690, Note_on_c, 10, 66, 90
16, 114719, Note_on_c, 10, 66, 0
16, 114720, Note_on_c, 10, 71, 90
16, 114809, Note_on_c, 10, 71, 0
16, 114810, Note_on_c, 10, 68, 90
16, 114839, Note_on_c, 10, 68, 0
16, 114840, Note_on_c, 10, 71, 90
16, 114929, Note_on_c, 10, 71, 0
16, 114930, Note_on_c, 10, 68, 90
16, 114959, Note_on_c, 10, 68, 0
16, 114960, Note_on_c, 10, 69, 90
16, 115049, Note_on_c, 10, 69, 0
16, 115050, Note_on_c, 10, 64, 90
16, 115079, Note_on_c, 10, 64, 0
16, 115080, Note_on_c, 10, 76, 90
16, 115169, Note_on_c, 10, 76, 0
16, 115170, Note_on_c, 10, 73, 90
16, 115199, Note_on_c, 10, 73, 0
16, 115200, Note_on_c, 10, 74, 90
16, 115289, Note_on_c, 10, 74, 0
16, 115290, Note_on_c, 10, 71, 90
16, 115319, Note_on_c, 10, 71, 0
16, 115320, Note_on_c, 10, 66, 90
16, 115409, Note_on_c, 10, 66, 0
16, 115410, Note_on_c, 10, 71, 90
16, 115439, Note_on_c, 10, 71, 0
16, 115440, Note_on_c, 10, 66, 90
16, 115469, Note_on_c, 10, 66, 0
16, 115470, Note_on_c, 10, 73, 90
16, 115499, Note_on_c, 10, 73, 0
16, 115500, Note_on_c, 10, 76, 90
16, 115560, Note_on_c, 10, 76, 0
16, 115860, Note_on_c, 10, 64, 90
16, 115889, Note_on_c, 10, 64, 0
16, 115890, Note_on_c, 10, 66, 90
16, 115919, Note_on_c, 10, 66, 0
16, 115920, Note_on_c, 10, 68, 90
16, 115979, Note_on_c, 10, 68, 0
16, 115980, Note_on_c, 10, 66, 90
16, 116039, Note_on_c, 10, 66, 0
16, 116040, Note_on_c, 10, 68, 90
16, 116099, Note_on_c, 10, 68, 0
16, 116100, Note_on_c, 10, 73, 90
16, 116159, Note_on_c, 10, 73, 0
16, 116160, Note_on_c, 10, 69, 90
16, 116219, Note_on_c, 10, 69, 0
16, 116220, Note_on_c, 10, 66, 90
16, 116249, Note_on_c, 10, 66, 0
16, 116250, Note_on_c, 10, 69, 90
16, 116279, Note_on_c, 10, 69, 0
16, 116280, Note_on_c, 10, 74, 90
16, 116339, Note_on_c, 10, 74, 0
16, 116460, Note_on_c, 10, 74, 90
16, 116489, Note_on_c, 10, 74, 0
16, 116490, Note_on_c, 10, 69, 90
16, 116519, Note_on_c, 10, 69, 0
16, 116520, Note_on_c, 10, 66, 90
16, 116579, Note_on_c, 10, 66, 0
16, 116700, Note_on_c, 10, 64, 90
16, 116729, Note_on_c, 10, 64, 0
16, 116730, Note_on_c, 10, 68, 90
16, 116759, Note_on_c, 10, 68, 0
16, 116760, Note_on_c, 10, 71, 90
16, 116819, Note_on_c, 10, 71, 0
16, 116940, Note_on_c, 10, 71, 90
16, 116969, Note_on_c, 10, 71, 0
16, 116970, Note_on_c, 10, 68, 90
16, 116999, Note_on_c, 10, 68, 0
16, 117000, Note_on_c, 10, 64, 90
16, 117059, Note_on_c, 10, 64, 0
16, 117060, Note_on_c, 10, 64, 90
16, 117119, Note_on_c, 10, 64, 0
16, 117120, Note_on_c, 10, 64, 90
16, 117179, Note_on_c, 10, 64, 0
16, 117180, Note_on_c, 10, 69, 90
16, 117239, Note_on_c, 10, 69, 0
16, 117240, Note_on_c, 10, 69, 90
16, 117299, Note_on_c, 10, 69, 0
16, 117300, Note_on_c, 10, 64, 90
16, 117359, Note_on_c, 10, 64, 0
16, 117360, Note_on_c, 10, 64, 90
16, 117419, Note_on_c, 10, 64, 0
16, 117420, Note_on_c, 10, 61, 90
16, 117449, Note_on_c, 10, 61, 0
16, 117450, Note_on_c, 10, 62, 90
16, 117479, Note_on_c, 10, 62, 0
16, 117480, Note_on_c, 10, 64, 90
16, 117539, Note_on_c, 10, 64, 0
16, 117540, Note_on_c, 10, 66, 90
16, 117569, Note_on_c, 10, 66, 0
16, 117570, Note_on_c, 10, 68, 90
16, 117599, Note_on_c, 10, 68, 0
16, 117600, Note_on_c, 10, 69, 90
16, 117659, Note_on_c, 10, 69, 0
16, 118020, Note_on_c, 10, 61, 90
16, 118049, Note_on_c, 10, 61, 0
16, 118050, Note_on_c, 10, 62, 90
16, 118079, Note_on_c, 10, 62, 0
16, 118080, Note_on_c, 10, 64, 90
16, 118139, Note_on_c, 10, 64, 0
16, 118140, Note_on_c, 10, 66, 90
16, 118199, Note_on_c, 10, 66, 0
16, 118200, Note_on_c, 10, 64, 90
16, 118259, Note_on_c, 10, 64, 0
16, 118260, Note_on_c, 10, 62, 90
16, 118319, Note_on_c, 10, 62, 0
16, 118320, Note_on_c, 10, 64, 90
16, 118379, Note_on_c, 10, 64, 0
16, 118380, Note_on_c, 10, 62, 90
16, 118409, Note_on_c, 10, 62, 0
16, 118410, Note_on_c, 10, 64, 90
16, 118439, Note_on_c, 10, 64, 0
16, 118440, Note_on_c, 10, 61, 90
16, 118499, Note_on_c, 10, 61, 0
16, 118500, Note_on_c, 10, 62, 90
16, 118559, Note_on_c, 10, 62, 0
16, 118560, Note_on_c, 10, 64, 90
16, 118619, Note_on_c, 10, 64, 0
16, 118620, Note_on_c, 10, 64, 90
16, 118679, Note_on_c, 10, 64, 0
16, 118680, Note_on_c, 10, 64, 90
16, 118739, Note_on_c, 10, 64, 0
16, 118740, Note_on_c, 10, 64, 90
16, 118799, Note_on_c, 10, 64, 0
16, 118800, Note_on_c, 10, 64, 90
16, 118859, Note_on_c, 10, 64, 0
16, 118860, Note_on_c, 10, 64, 90
16, 118919, Note_on_c, 10, 64, 0
16, 118920, Note_on_c, 10, 64, 90
16, 118979, Note_on_c, 10, 64, 0
16, 118980, Note_on_c, 10, 64, 90
16, 119039, Note_on_c, 10, 64, 0
16, 119040, Note_on_c, 10, 64, 90
16, 119099, Note_on_c, 10, 64, 0
16, 119100, Note_on_c, 10, 62, 90
16, 119129, Note_on_c, 10, 62, 0
16, 119130, Note_on_c, 10, 64, 90
16, 119159, Note_on_c, 10, 64, 0
16, 119160, Note_on_c, 10, 61, 90
16, 119189, Note_on_c, 10, 61, 0
16, 119190, Note_on_c, 10, 62, 90
16, 119219, Note_on_c, 10, 62, 0
16, 119220, Note_on_c, 10, 64, 90
16, 119249, Note_on_c, 10, 64, 0
16, 119250, Note_on_c, 10, 66, 90
16, 119279, Note_on_c, 10, 66, 0
16, 119280, Note_on_c, 10, 68, 90
16, 119339, Note_on_c, 10, 68, 0
16, 119340, Note_on_c, 10, 69, 90
16, 119399, Note_on_c, 10, 69, 0
16, 119400, Note_on_c, 10, 68, 90
16, 119459, Note_on_c, 10, 68, 0
16, 119460, Note_on_c, 10, 66, 90
16, 119519, Note_on_c, 10, 66, 0
16, 119520, Note_on_c, 10, 64, 90
16, 119579, Note_on_c, 10, 64, 0
16, 119580, Note_on_c, 10, 68, 90
16, 119609, Note_on_c, 10, 68, 0
16, 119610, Note_on_c, 10, 66, 90
16, 119639, Note_on_c, 10, 66, 0
16, 119640, Note_on_c, 10, 68, 90
16, 119699, Note_on_c, 10, 68, 0
16, 119700, Note_on_c, 10, 68, 90
16, 119759, Note_on_c, 10, 68, 0
16, 119760, Note_on_c, 10, 68, 90
16, 119819, Note_on_c, 10, 68, 0
16, 119820, Note_on_c, 10, 66, 90
16, 119849, Note_on_c, 10, 66, 0
16, 119850, Note_on_c, 10, 64, 90
16, 119879, Note_on_c, 10, 64, 0
16, 119880, Note_on_c, 10, 66, 90
16, 119939, Note_on_c, 10, 66, 0
16, 119940, Note_on_c, 10, 66, 90
16, 119999, Note_on_c, 10, 66, 0
16, 120000, Note_on_c, 10, 71, 90
16, 120059, Note_on_c, 10, 71, 0
16, 120060, Note_on_c, 10, 68, 90
16, 120119, Note_on_c, 10, 68, 0
16, 120120, Note_on_c, 10, 64, 90
16, 120179, Note_on_c, 10, 64, 0
16, 120180, Note_on_c, 10, 63, 90
16, 120239, Note_on_c, 10, 63, 0
16, 120240, Note_on_c, 10, 59, 90
16, 120359, Note_on_c, 10, 59, 0
16, 120390, Note_on_c, 10, 63, 90
16, 120419, Note_on_c, 10, 63, 0
16, 120420, Note_on_c, 10, 64, 90
16, 120449, Note_on_c, 10, 64, 0
16, 120450, Note_on_c, 10, 66, 90
16, 120479, Note_on_c, 10, 66, 0
16, 120480, Note_on_c, 10, 68, 90
16, 120539, Note_on_c, 10, 68, 0
16, 120540, Note_on_c, 10, 69, 90
16, 120599, Note_on_c, 10, 69, 0
16, 120600, Note_on_c, 10, 68, 90
16, 120659, Note_on_c, 10, 68, 0
16, 120660, Note_on_c, 10, 66, 90
16, 120719, Note_on_c, 10, 66, 0
16, 120720, Note_on_c, 10, 68, 90
16, 120779, Note_on_c, 10, 68, 0
16, 120780, Note_on_c, 10, 66, 90
16, 120809, Note_on_c, 10, 66, 0
16, 120810, Note_on_c, 10, 68, 90
16, 120839, Note_on_c, 10, 68, 0
16, 120840, Note_on_c, 10, 64, 90
16, 120899, Note_on_c, 10, 64, 0
16, 120900, Note_on_c, 10, 68, 90
16, 120959, Note_on_c, 10, 68, 0
16, 120960, Note_on_c, 10, 69, 90
16, 121019, Note_on_c, 10, 69, 0
16, 121020, Note_on_c, 10, 66, 90
16, 121049, Note_on_c, 10, 66, 0
16, 121050, Note_on_c, 10, 67, 90
16, 121079, Note_on_c, 10, 67, 0
16, 121080, Note_on_c, 10, 69, 90
16, 121139, Note_on_c, 10, 69, 0
16, 121140, Note_on_c, 10, 69, 90
16, 121199, Note_on_c, 10, 69, 0
16, 121200, Note_on_c, 10, 69, 90
16, 121259, Note_on_c, 10, 69, 0
16, 121260, Note_on_c, 10, 66, 90
16, 121289, Note_on_c, 10, 66, 0
16, 121290, Note_on_c, 10, 67, 90
16, 121319, Note_on_c, 10, 67, 0
16, 121320, Note_on_c, 10, 69, 90
16, 121379, Note_on_c, 10, 69, 0
16, 121380, Note_on_c, 10, 69, 90
16, 121439, Note_on_c, 10, 69, 0
16, 121440, Note_on_c, 10, 71, 90
16, 121499, Note_on_c, 10, 71, 0
16, 121500, Note_on_c, 10, 68, 90
16, 121529, Note_on_c, 10, 68, 0
16, 121530, Note_on_c, 10, 69, 90
16, 121559, Note_on_c, 10, 69, 0
16, 121560, Note_on_c, 10, 71, 90
16, 121619, Note_on_c, 10, 71, 0
16, 121620, Note_on_c, 10, 71, 90
16, 121679, Note_on_c, 10, 71, 0
16, 121680, Note_on_c, 10, 71, 90
16, 121739, Note_on_c, 10, 71, 0
16, 121740, Note_on_c, 10, 68, 90
16, 121769, Note_on_c, 10, 68, 0
16, 121770, Note_on_c, 10, 69, 90
16, 121799, Note_on_c, 10, 69, 0
16, 121800, Note_on_c, 10, 71, 90
16, 121859, Note_on_c, 10, 71, 0
16, 121860, Note_on_c, 10, 71, 90
16, 121919, Note_on_c, 10, 71, 0
16, 121920, Note_on_c, 10, 69, 90
16, 121979, Note_on_c, 10, 69, 0
16, 121980, Note_on_c, 10, 64, 90
16, 122039, Note_on_c, 10, 64, 0
16, 122040, Note_on_c, 10, 66, 90
16, 122099, Note_on_c, 10, 66, 0
16, 122100, Note_on_c, 10, 64, 90
16, 122159, Note_on_c, 10, 64, 0
16, 122160, Note_on_c, 10, 64, 90
16, 122219, Note_on_c, 10, 64, 0
16, 122220, Note_on_c, 10, 61, 90
16, 122249, Note_on_c, 10, 61, 0
16, 122250, Note_on_c, 10, 62, 90
16, 122279, Note_on_c, 10, 62, 0
16, 122280, Note_on_c, 10, 64, 90
16, 122339, Note_on_c, 10, 64, 0
16, 122340, Note_on_c, 10, 66, 90
16, 122369, Note_on_c, 10, 66, 0
16, 122370, Note_on_c, 10, 68, 90
16, 122399, Note_on_c, 10, 68, 0
16, 122400, Note_on_c, 10, 69, 90
16, 122459, Note_on_c, 10, 69, 0
16, 122460, Note_on_c, 10, 69, 90
16, 122519, Note_on_c, 10, 69, 0
16, 122520, Note_on_c, 10, 69, 90
16, 122579, Note_on_c, 10, 69, 0
16, 122580, Note_on_c, 10, 64, 90
16, 122639, Note_on_c, 10, 64, 0
16, 122640, Note_on_c, 10, 64, 90
16, 122759, Note_on_c, 10, 64, 0
16, 321060, Note_on_c, 10, 69, 90
16, 321299, Note_on_c, 10, 69, 0
16, 321300, Note_on_c, 10, 66, 90
16, 321539, Note_on_c, 10, 66, 0
16, 321540, Note_on_c, 10, 62, 90
16, 321659, Note_on_c, 10, 62, 0
16, 321660, Note_on_c, 10, 62, 90
16, 321719, Note_on_c, 10, 62, 0
16, 321720, Note_on_c, 10, 61, 90
16, 321779, Note_on_c, 10, 61, 0
16, 321780, Note_on_c, 10, 64, 90
16, 321899, Note_on_c, 10, 64, 0
16, 321900, Note_on_c, 10, 62, 90
16, 321959, Note_on_c, 10, 62, 0
16, 321960, Note_on_c, 10, 61, 90
16, 322019, Note_on_c, 10, 61, 0
16, 322020, Note_on_c, 10, 62, 90
16, 322139, Note_on_c, 10, 62, 0
16, 322140, Note_on_c, 10, 62, 90
16, 322199, Note_on_c, 10, 62, 0
16, 322200, Note_on_c, 10, 61, 90
16, 322259, Note_on_c, 10, 61, 0
16, 322260, Note_on_c, 10, 64, 90
16, 322379, Note_on_c, 10, 64, 0
16, 322380, Note_on_c, 10, 62, 90
16, 322439, Note_on_c, 10, 62, 0
16, 322440, Note_on_c, 10, 61, 90
16, 322499, Note_on_c, 10, 61, 0
16, 322500, Note_on_c, 10, 69, 90
16, 322739, Note_on_c, 10, 69, 0
16, 322740, Note_on_c, 10, 66, 90
16, 322979, Note_on_c, 10, 66, 0
16, 322980, Note_on_c, 10, 66, 90
16, 323099, Note_on_c, 10, 66, 0
16, 323100, Note_on_c, 10, 66, 90
16, 323159, Note_on_c, 10, 66, 0
16, 323160, Note_on_c, 10, 64, 90
16, 323219, Note_on_c, 10, 64, 0
16, 323220, Note_on_c, 10, 67, 90
16, 323339, Note_on_c, 10, 67, 0
16, 323340, Note_on_c, 10, 66, 90
16, 323399, Note_on_c, 10, 66, 0
16, 323400, Note_on_c, 10, 64, 90
16, 323459, Note_on_c, 10, 64, 0
16, 323460, Note_on_c, 10, 66, 90
16, 323579, Note_on_c, 10, 66, 0
16, 323580, Note_on_c, 10, 66, 90
16, 323639, Note_on_c, 10, 66, 0
16, 323640, Note_on_c, 10, 64, 90
16, 323699, Note_on_c, 10, 64, 0
16, 323700, Note_on_c, 10, 67, 90
16, 323819, Note_on_c, 10, 67, 0
16, 323820, Note_on_c, 10, 66, 90
16, 323879, Note_on_c, 10, 66, 0
16, 323880, Note_on_c, 10, 64, 90
16, 323939, Note_on_c, 10, 64, 0
16, 323940, Note_on_c, 10, 69, 90
16, 324179, Note_on_c, 10, 69, 0
16, 324180, Note_on_c, 10, 66, 90
16, 324419, Note_on_c, 10, 66, 0
16, 324420, Note_on_c, 10, 62, 90
16, 324539, Note_on_c, 10, 62, 0
16, 324540, Note_on_c, 10, 57, 90
16, 324659, Note_on_c, 10, 57, 0
16, 324660, Note_on_c, 10, 66, 90
16, 324779, Note_on_c, 10, 66, 0
16, 324780, Note_on_c, 10, 62, 90
16, 324899, Note_on_c, 10, 62, 0
16, 324900, Note_on_c, 10, 69, 90
16, 325019, Note_on_c, 10, 69, 0
16, 325020, Note_on_c, 10, 66, 90
16, 325139, Note_on_c, 10, 66, 0
16, 325140, Note_on_c, 10, 62, 90
16, 325259, Note_on_c, 10, 62, 0
16, 325260, Note_on_c, 10, 57, 90
16, 325379, Note_on_c, 10, 57, 0
16, 325380, Note_on_c, 10, 66, 90
16, 325499, Note_on_c, 10, 66, 0
16, 325500, Note_on_c, 10, 66, 90
16, 325559, Note_on_c, 10, 66, 0
16, 325560, Note_on_c, 10, 64, 90
16, 325619, Note_on_c, 10, 64, 0
16, 325620, Note_on_c, 10, 67, 90
16, 325739, Note_on_c, 10, 67, 0
16, 325740, Note_on_c, 10, 66, 90
16, 325799, Note_on_c, 10, 66, 0
16, 325800, Note_on_c, 10, 64, 90
16, 325859, Note_on_c, 10, 64, 0
16, 325860, Note_on_c, 10, 66, 90
16, 325979, Note_on_c, 10, 66, 0
16, 325980, Note_on_c, 10, 64, 90
16, 326039, Note_on_c, 10, 64, 0
16, 326040, Note_on_c, 10, 62, 90
16, 326099, Note_on_c, 10, 62, 0
16, 326100, Note_on_c, 10, 61, 90
16, 326339, Note_on_c, 10, 61, 0
16, 326340, Note_on_c, 10, 73, 90
16, 326579, Note_on_c, 10, 73, 0
16, 326580, Note_on_c, 10, 69, 90
16, 326819, Note_on_c, 10, 69, 0
16, 326820, Note_on_c, 10, 57, 90
16, 326939, Note_on_c, 10, 57, 0
16, 326940, Note_on_c, 10, 57, 90
16, 326999, Note_on_c, 10, 57, 0
16, 327000, Note_on_c, 10, 56, 90
16, 327059, Note_on_c, 10, 56, 0
16, 327060, Note_on_c, 10, 59, 90
16, 327179, Note_on_c, 10, 59, 0
16, 327180, Note_on_c, 10, 57, 90
16, 327239, Note_on_c, 10, 57, 0
16, 327240, Note_on_c, 10, 56, 90
16, 327299, Note_on_c, 10, 56, 0
16, 327300, Note_on_c, 10, 57, 90
16, 327419, Note_on_c, 10, 57, 0
16, 327420, Note_on_c, 10, 57, 90
16, 327479, Note_on_c, 10, 57, 0
16, 327480, Note_on_c, 10, 56, 90
16, 327539, Note_on_c, 10, 56, 0
16, 327540, Note_on_c, 10, 59, 90
16, 327659, Note_on_c, 10, 59, 0
16, 327660, Note_on_c, 10, 57, 90
16, 327719, Note_on_c, 10, 57, 0
16, 327720, Note_on_c, 10, 56, 90
16, 327779, Note_on_c, 10, 56, 0
16, 327780, Note_on_c, 10, 69, 90
16, 328019, Note_on_c, 10, 69, 0
16, 328020, Note_on_c, 10, 64, 90
16, 328259, Note_on_c, 10, 64, 0
16, 328260, Note_on_c, 10, 61, 90
16, 328379, Note_on_c, 10, 61, 0
16, 328380, Note_on_c, 10, 61, 90
16, 328439, Note_on_c, 10, 61, 0
16, 328440, Note_on_c, 10, 59, 90
16, 328499, Note_on_c, 10, 59, 0
16, 328500, Note_on_c, 10, 62, 90
16, 328619, Note_on_c, 10, 62, 0
16, 328620, Note_on_c, 10, 61, 90
16, 328679, Note_on_c, 10, 61, 0
16, 328680, Note_on_c, 10, 59, 90
16, 328739, Note_on_c, 10, 59, 0
16, 328740, Note_on_c, 10, 61, 90
16, 328859, Note_on_c, 10, 61, 0
16, 328860, Note_on_c, 10, 61, 90
16, 328919, Note_on_c, 10, 61, 0
16, 328920, Note_on_c, 10, 59, 90
16, 328979, Note_on_c, 10, 59, 0
16, 328980, Note_on_c, 10, 62, 90
16, 329099, Note_on_c, 10, 62, 0
16, 329100, Note_on_c, 10, 61, 90
16, 329159, Note_on_c, 10, 61, 0
16, 329160, Note_on_c, 10, 59, 90
16, 329219, Note_on_c, 10, 59, 0
16, 329220, Note_on_c, 10, 64, 90
16, 329459, Note_on_c, 10, 64, 0
16, 329460, Note_on_c, 10, 61, 90
16, 329699, Note_on_c, 10, 61, 0
16, 329700, Note_on_c, 10, 57, 90
16, 329819, Note_on_c, 10, 57, 0
16, 329820, Note_on_c, 10, 61, 90
16, 329939, Note_on_c, 10, 61, 0
16, 329940, Note_on_c, 10, 61, 90
16, 330059, Note_on_c, 10, 61, 0
16, 330060, Note_on_c, 10, 57, 90
16, 330179, Note_on_c, 10, 57, 0
16, 330180, Note_on_c, 10, 64, 90
16, 330299, Note_on_c, 10, 64, 0
16, 330300, Note_on_c, 10, 61, 90
16, 330419, Note_on_c, 10, 61, 0
16, 330420, Note_on_c, 10, 57, 90
16, 330539, Note_on_c, 10, 57, 0
16, 330540, Note_on_c, 10, 61, 90
16, 330659, Note_on_c, 10, 61, 0
16, 330660, Note_on_c, 10, 62, 90
16, 330779, Note_on_c, 10, 62, 0
16, 330780, Note_on_c, 10, 62, 90
16, 330899, Note_on_c, 10, 62, 0
16, 330900, Note_on_c, 10, 62, 90
16, 331019, Note_on_c, 10, 62, 0
16, 331020, Note_on_c, 10, 62, 90
16, 331139, Note_on_c, 10, 62, 0
16, 331140, Note_on_c, 10, 62, 90
16, 331259, Note_on_c, 10, 62, 0
16, 331260, Note_on_c, 10, 61, 90
16, 331379, Note_on_c, 10, 61, 0
16, 331380, Note_on_c, 10, 57, 90
16, 331619, Note_on_c, 10, 57, 0
16, 332100, Note_on_c, 10, 62, 90
16, 332219, Note_on_c, 10, 62, 0
16, 332220, Note_on_c, 10, 62, 90
16, 332279, Note_on_c, 10, 62, 0
16, 332280, Note_on_c, 10, 61, 90
16, 332339, Note_on_c, 10, 61, 0
16, 332340, Note_on_c, 10, 64, 90
16, 332459, Note_on_c, 10, 64, 0
16, 332460, Note_on_c, 10, 62, 90
16, 332519, Note_on_c, 10, 62, 0
16, 332520, Note_on_c, 10, 61, 90
16, 332579, Note_on_c, 10, 61, 0
16, 332580, Note_on_c, 10, 62, 90
16, 332699, Note_on_c, 10, 62, 0
16, 332700, Note_on_c, 10, 62, 90
16, 332759, Note_on_c, 10, 62, 0
16, 332760, Note_on_c, 10, 61, 90
16, 332819, Note_on_c, 10, 61, 0
16, 332820, Note_on_c, 10, 64, 90
16, 332939, Note_on_c, 10, 64, 0
16, 332940, Note_on_c, 10, 62, 90
16, 332999, Note_on_c, 10, 62, 0
16, 333000, Note_on_c, 10, 61, 90
16, 333059, Note_on_c, 10, 61, 0
16, 333060, Note_on_c, 10, 62, 90
16, 333299, Note_on_c, 10, 62, 0
16, 333540, Note_on_c, 10, 66, 90
16, 333659, Note_on_c, 10, 66, 0
16, 333660, Note_on_c, 10, 66, 90
16, 333719, Note_on_c, 10, 66, 0
16, 333720, Note_on_c, 10, 64, 90
16, 333779, Note_on_c, 10, 64, 0
16, 333780, Note_on_c, 10, 67, 90
16, 333899, Note_on_c, 10, 67, 0
16, 333900, Note_on_c, 10, 66, 90
16, 333959, Note_on_c, 10, 66, 0
16, 333960, Note_on_c, 10, 64, 90
16, 334019, Note_on_c, 10, 64, 0
16, 334020, Note_on_c, 10, 66, 90
16, 334139, Note_on_c, 10, 66, 0
16, 334140, Note_on_c, 10, 66, 90
16, 334199, Note_on_c, 10, 66, 0
16, 334200, Note_on_c, 10, 64, 90
16, 334259, Note_on_c, 10, 64, 0
16, 334260, Note_on_c, 10, 67, 90
16, 334379, Note_on_c, 10, 67, 0
16, 334380, Note_on_c, 10, 66, 90
16, 334439, Note_on_c, 10, 66, 0
16, 334440, Note_on_c, 10, 64, 90
16, 334499, Note_on_c, 10, 64, 0
16, 334500, Note_on_c, 10, 69, 90
16, 334739, Note_on_c, 10, 69, 0
16, 334740, Note_on_c, 10, 66, 90
16, 334979, Note_on_c, 10, 66, 0
16, 334980, Note_on_c, 10, 66, 90
16, 335099, Note_on_c, 10, 66, 0
16, 335100, Note_on_c, 10, 62, 90
16, 335219, Note_on_c, 10, 62, 0
16, 335220, Note_on_c, 10, 69, 90
16, 335339, Note_on_c, 10, 69, 0
16, 335340, Note_on_c, 10, 66, 90
16, 335459, Note_on_c, 10, 66, 0
16, 335460, Note_on_c, 10, 74, 90
16, 335579, Note_on_c, 10, 74, 0
16, 335580, Note_on_c, 10, 69, 90
16, 335699, Note_on_c, 10, 69, 0
16, 335700, Note_on_c, 10, 78, 90
16, 335819, Note_on_c, 10, 78, 0
16, 335820, Note_on_c, 10, 74, 90
16, 335939, Note_on_c, 10, 74, 0
16, 335940, Note_on_c, 10, 74, 90
16, 336059, Note_on_c, 10, 74, 0
16, 336060, Note_on_c, 10, 74, 90
16, 336179, Note_on_c, 10, 74, 0
16, 336180, Note_on_c, 10, 74, 90
16, 336299, Note_on_c, 10, 74, 0
16, 336300, Note_on_c, 10, 74, 90
16, 336419, Note_on_c, 10, 74, 0
16, 336420, Note_on_c, 10, 74, 90
16, 336539, Note_on_c, 10, 74, 0
16, 336540, Note_on_c, 10, 69, 90
16, 336659, Note_on_c, 10, 69, 0
16, 336660, Note_on_c, 10, 69, 90
16, 336899, Note_on_c, 10, 69, 0
16, 338820, Note_on_c, 10, 61, 90
16, 338939, Note_on_c, 10, 61, 0
16, 338940, Note_on_c, 10, 61, 90
16, 338999, Note_on_c, 10, 61, 0
16, 339000, Note_on_c, 10, 59, 90
16, 339059, Note_on_c, 10, 59, 0
16, 339060, Note_on_c, 10, 62, 90
16, 339179, Note_on_c, 10, 62, 0
16, 339180, Note_on_c, 10, 61, 90
16, 339239, Note_on_c, 10, 61, 0
16, 339240, Note_on_c, 10, 59, 90
16, 339299, Note_on_c, 10, 59, 0
16, 339300, Note_on_c, 10, 61, 90
16, 339419, Note_on_c, 10, 61, 0
16, 339420, Note_on_c, 10, 61, 90
16, 339479, Note_on_c, 10, 61, 0
16, 339480, Note_on_c, 10, 59, 90
16, 339539, Note_on_c, 10, 59, 0
16, 339540, Note_on_c, 10, 62, 90
16, 339659, Note_on_c, 10, 62, 0
16, 339660, Note_on_c, 10, 61, 90
16, 339719, Note_on_c, 10, 61, 0
16, 339720, Note_on_c, 10, 59, 90
16, 339779, Note_on_c, 10, 59, 0
16, 339780, Note_on_c, 10, 76, 90
16, 340019, Note_on_c, 10, 76, 0
16, 340020, Note_on_c, 10, 73, 90
16, 340259, Note_on_c, 10, 73, 0
16, 340260, Note_on_c, 10, 69, 90
16, 340379, Note_on_c, 10, 69, 0
16, 340380, Note_on_c, 10, 64, 90
16, 340499, Note_on_c, 10, 64, 0
16, 340500, Note_on_c, 10, 73, 90
16, 340619, Note_on_c, 10, 73, 0
16, 340620, Note_on_c, 10, 69, 90
16, 340739, Note_on_c, 10, 69, 0
16, 340740, Note_on_c, 10, 76, 90
16, 340859, Note_on_c, 10, 76, 0
16, 340860, Note_on_c, 10, 73, 90
16, 340979, Note_on_c, 10, 73, 0
16, 340980, Note_on_c, 10, 69, 90
16, 341099, Note_on_c, 10, 69, 0
16, 341100, Note_on_c, 10, 64, 90
16, 341219, Note_on_c, 10, 64, 0
16, 341220, Note_on_c, 10, 71, 90
16, 341339, Note_on_c, 10, 71, 0
16, 341340, Note_on_c, 10, 74, 90
16, 341459, Note_on_c, 10, 74, 0
16, 341460, Note_on_c, 10, 74, 90
16, 341579, Note_on_c, 10, 74, 0
16, 341580, Note_on_c, 10, 74, 90
16, 341699, Note_on_c, 10, 74, 0
16, 341700, Note_on_c, 10, 74, 90
16, 341819, Note_on_c, 10, 74, 0
16, 341820, Note_on_c, 10, 73, 90
16, 341939, Note_on_c, 10, 73, 0
16, 341940, Note_on_c, 10, 69, 90
16, 342179, Note_on_c, 10, 69, 0
16, 343140, Note_on_c, 10, 78, 90
16, 343379, Note_on_c, 10, 78, 0
16, 343380, Note_on_c, 10, 74, 90
16, 343619, Note_on_c, 10, 74, 0
16, 344580, Note_on_c, 10, 73, 90
16, 344819, Note_on_c, 10, 73, 0
16, 344820, Note_on_c, 10, 71, 90
16, 345059, Note_on_c, 10, 71, 0
16, 346020, Note_on_c, 10, 73, 90
16, 346259, Note_on_c, 10, 73, 0
16, 346260, Note_on_c, 10, 71, 90
16, 346379, Note_on_c, 10, 71, 0
16, 346380, Note_on_c, 10, 64, 90
16, 346499, Note_on_c, 10, 64, 0
16, 346500, Note_on_c, 10, 68, 90
16, 346619, Note_on_c, 10, 68, 0
16, 346620, Note_on_c, 10, 69, 90
16, 346739, Note_on_c, 10, 69, 0
16, 346740, Note_on_c, 10, 71, 90
16, 346859, Note_on_c, 10, 71, 0
16, 346860, Note_on_c, 10, 68, 90
16, 346979, Note_on_c, 10, 68, 0
16, 346980, Note_on_c, 10, 69, 90
16, 347219, Note_on_c, 10, 69, 0
16, 347220, Note_on_c, 10, 68, 90
16, 347459, Note_on_c, 10, 68, 0
16, 347460, Note_on_c, 10, 64, 90
16, 347699, Note_on_c, 10, 64, 0
16, 347940, Note_on_c, 10, 69, 90
16, 348179, Note_on_c, 10, 69, 0
16, 348180, Note_on_c, 10, 66, 90
16, 348419, Note_on_c, 10, 66, 0
16, 348420, Note_on_c, 10, 57, 90
16, 348539, Note_on_c, 10, 57, 0
16, 348540, Note_on_c, 10, 57, 90
16, 348659, Note_on_c, 10, 57, 0
16, 348660, Note_on_c, 10, 57, 90
16, 348779, Note_on_c, 10, 57, 0
16, 348780, Note_on_c, 10, 57, 90
16, 348899, Note_on_c, 10, 57, 0
16, 348900, Note_on_c, 10, 57, 90
16, 349019, Note_on_c, 10, 57, 0
16, 349020, Note_on_c, 10, 57, 90
16, 349139, Note_on_c, 10, 57, 0
16, 349140, Note_on_c, 10, 57, 90
16, 349259, Note_on_c, 10, 57, 0
16, 349260, Note_on_c, 10, 57, 90
16, 349379, Note_on_c, 10, 57, 0
16, 349380, Note_on_c, 10, 74, 90
16, 349619, Note_on_c, 10, 74, 0
16, 349620, Note_on_c, 10, 69, 90
16, 349859, Note_on_c, 10, 69, 0
16, 350820, Note_on_c, 10, 78, 90
16, 351059, Note_on_c, 10, 78, 0
16, 351060, Note_on_c, 10, 74, 90
16, 351299, Note_on_c, 10, 74, 0
16, 351300, Note_on_c, 10, 69, 90
16, 351419, Note_on_c, 10, 69, 0
16, 351420, Note_on_c, 10, 66, 90
16, 351539, Note_on_c, 10, 66, 0
16, 351540, Note_on_c, 10, 74, 90
16, 351659, Note_on_c, 10, 74, 0
16, 351660, Note_on_c, 10, 69, 90
16, 351779, Note_on_c, 10, 69, 0
16, 351780, Note_on_c, 10, 78, 90
16, 351899, Note_on_c, 10, 78, 0
16, 351900, Note_on_c, 10, 74, 90
16, 352019, Note_on_c, 10, 74, 0
16, 352020, Note_on_c, 10, 81, 90
16, 352139, Note_on_c, 10, 81, 0
16, 352140, Note_on_c, 10, 78, 90
16, 352259, Note_on_c, 10, 78, 0
16, 352260, Note_on_c, 10, 74, 90
16, 352379, Note_on_c, 10, 74, 0
16, 352380, Note_on_c, 10, 74, 90
16, 352499, Note_on_c, 10, 74, 0
16, 352500, Note_on_c, 10, 74, 90
16, 352619, Note_on_c, 10, 74, 0
16, 352620, Note_on_c, 10, 74, 90
16, 352739, Note_on_c, 10, 74, 0
16, 352740, Note_on_c, 10, 74, 90
16, 352859, Note_on_c, 10, 74, 0
16, 352860, Note_on_c, 10, 69, 90
16, 352979, Note_on_c, 10, 69, 0
16, 352980, Note_on_c, 10, 69, 90
16, 353219, Note_on_c, 10, 69, 0
16, 353220, Note_on_c, 10, 69, 90
16, 353459, Note_on_c, 10, 69, 0
16, 353460, Note_on_c, 10, 64, 90
16, 353699, Note_on_c, 10, 64, 0
16, 353700, Note_on_c, 10, 73, 90
16, 353819, Note_on_c, 10, 73, 0
16, 353820, Note_on_c, 10, 73, 90
16, 353879, Note_on_c, 10, 73, 0
16, 353880, Note_on_c, 10, 71, 90
16, 353939, Note_on_c, 10, 71, 0
16, 353940, Note_on_c, 10, 74, 90
16, 354059, Note_on_c, 10, 74, 0
16, 354060, Note_on_c, 10, 73, 90
16, 354119, Note_on_c, 10, 73, 0
16, 354120, Note_on_c, 10, 71, 90
16, 354179, Note_on_c, 10, 71, 0
16, 354180, Note_on_c, 10, 73, 90
16, 354299, Note_on_c, 10, 73, 0
16, 354300, Note_on_c, 10, 73, 90
16, 354359, Note_on_c, 10, 73, 0
16, 354360, Note_on_c, 10, 71, 90
16, 354419, Note_on_c, 10, 71, 0
16, 354420, Note_on_c, 10, 74, 90
16, 354539, Note_on_c, 10, 74, 0
16, 354540, Note_on_c, 10, 73, 90
16, 354599, Note_on_c, 10, 73, 0
16, 354600, Note_on_c, 10, 71, 90
16, 354659, Note_on_c, 10, 71, 0
16, 354660, Note_on_c, 10, 76, 90
16, 354899, Note_on_c, 10, 76, 0
16, 354900, Note_on_c, 10, 73, 90
16, 355139, Note_on_c, 10, 73, 0
16, 356100, Note_on_c, 10, 73, 90
16, 356339, Note_on_c, 10, 73, 0
16, 356340, Note_on_c, 10, 69, 90
16, 356579, Note_on_c, 10, 69, 0
16, 356580, Note_on_c, 10, 69, 90
16, 356699, Note_on_c, 10, 69, 0
16, 356700, Note_on_c, 10, 64, 90
16, 356819, Note_on_c, 10, 64, 0
16, 356820, Note_on_c, 10, 73, 90
16, 356939, Note_on_c, 10, 73, 0
16, 356940, Note_on_c, 10, 69, 90
16, 357059, Note_on_c, 10, 69, 0
16, 357060, Note_on_c, 10, 76, 90
16, 357179, Note_on_c, 10, 76, 0
16, 357180, Note_on_c, 10, 73, 90
16, 357299, Note_on_c, 10, 73, 0
16, 357300, Note_on_c, 10, 69, 90
16, 357419, Note_on_c, 10, 69, 0
16, 357420, Note_on_c, 10, 64, 90
16, 357539, Note_on_c, 10, 64, 0
16, 357540, Note_on_c, 10, 71, 90
16, 357659, Note_on_c, 10, 71, 0
16, 357660, Note_on_c, 10, 74, 90
16, 357779, Note_on_c, 10, 74, 0
16, 357780, Note_on_c, 10, 74, 90
16, 357899, Note_on_c, 10, 74, 0
16, 357900, Note_on_c, 10, 74, 90
16, 358019, Note_on_c, 10, 74, 0
16, 358020, Note_on_c, 10, 74, 90
16, 358139, Note_on_c, 10, 74, 0
16, 358140, Note_on_c, 10, 73, 90
16, 358259, Note_on_c, 10, 73, 0
16, 358260, Note_on_c, 10, 69, 90
16, 358499, Note_on_c, 10, 69, 0
16, 359460, Note_on_c, 10, 76, 90
16, 359699, Note_on_c, 10, 76, 0
16, 359700, Note_on_c, 10, 73, 90
16, 359939, Note_on_c, 10, 73, 0
16, 360660, Note_on_c, 10, 68, 90
16, 360899, Note_on_c, 10, 68, 0
16, 360900, Note_on_c, 10, 66, 90
16, 361139, Note_on_c, 10, 66, 0
16, 361140, Note_on_c, 10, 65, 90
16, 361379, Note_on_c, 10, 65, 0
16, 361380, Note_on_c, 10, 66, 90
16, 361619, Note_on_c, 10, 66, 0
16, 361620, Note_on_c, 10, 65, 90
16, 361859, Note_on_c, 10, 65, 0
16, 361860, Note_on_c, 10, 61, 90
16, 362099, Note_on_c, 10, 61, 0
16, 362100, Note_on_c, 10, 61, 90
16, 362339, Note_on_c, 10, 61, 0
16, 362340, Note_on_c, 10, 61, 90
16, 362579, Note_on_c, 10, 61, 0
16, 362700, Note_on_c, 10, 73, 90
16, 362819, Note_on_c, 10, 73, 0
16, 362820, Note_on_c, 10, 71, 90
16, 362939, Note_on_c, 10, 71, 0
16, 362940, Note_on_c, 10, 69, 90
16, 363059, Note_on_c, 10, 69, 0
16, 363060, Note_on_c, 10, 68, 90
16, 363179, Note_on_c, 10, 68, 0
16, 363180, Note_on_c, 10, 66, 90
16, 363299, Note_on_c, 10, 66, 0
16, 363300, Note_on_c, 10, 66, 90
16, 363539, Note_on_c, 10, 66, 0
16, 363540, Note_on_c, 10, 65, 90
16, 363779, Note_on_c, 10, 65, 0
16, 363780, Note_on_c, 10, 61, 90
16, 364019, Note_on_c, 10, 61, 0
16, 364260, Note_on_c, 10, 69, 90
16, 364499, Note_on_c, 10, 69, 0
16, 364500, Note_on_c, 10, 66, 90
16, 364739, Note_on_c, 10, 66, 0
16, 364740, Note_on_c, 10, 62, 90
16, 364859, Note_on_c, 10, 62, 0
16, 364860, Note_on_c, 10, 62, 90
16, 364919, Note_on_c, 10, 62, 0
16, 364920, Note_on_c, 10, 61, 90
16, 364979, Note_on_c, 10, 61, 0
16, 364980, Note_on_c, 10, 64, 90
16, 365099, Note_on_c, 10, 64, 0
16, 365100, Note_on_c, 10, 62, 90
16, 365159, Note_on_c, 10, 62, 0
16, 365160, Note_on_c, 10, 61, 90
16, 365219, Note_on_c, 10, 61, 0
16, 365220, Note_on_c, 10, 62, 90
16, 365339, Note_on_c, 10, 62, 0
16, 365340, Note_on_c, 10, 62, 90
16, 365399, Note_on_c, 10, 62, 0
16, 365400, Note_on_c, 10, 61, 90
16, 365459, Note_on_c, 10, 61, 0
16, 365460, Note_on_c, 10, 64, 90
16, 365579, Note_on_c, 10, 64, 0
16, 365580, Note_on_c, 10, 62, 90
16, 365639, Note_on_c, 10, 62, 0
16, 365640, Note_on_c, 10, 61, 90
16, 365699, Note_on_c, 10, 61, 0
16, 365700, Note_on_c, 10, 69, 90
16, 365939, Note_on_c, 10, 69, 0
16, 365940, Note_on_c, 10, 66, 90
16, 366179, Note_on_c, 10, 66, 0
16, 366180, Note_on_c, 10, 66, 90
16, 366299, Note_on_c, 10, 66, 0
16, 366300, Note_on_c, 10, 66, 90
16, 366359, Note_on_c, 10, 66, 0
16, 366360, Note_on_c, 10, 64, 90
16, 366419, Note_on_c, 10, 64, 0
16, 366420, Note_on_c, 10, 67, 90
16, 366539, Note_on_c, 10, 67, 0
16, 366540, Note_on_c, 10, 66, 90
16, 366599, Note_on_c, 10, 66, 0
16, 366600, Note_on_c, 10, 64, 90
16, 366659, Note_on_c, 10, 64, 0
16, 366660, Note_on_c, 10, 66, 90
16, 366779, Note_on_c, 10, 66, 0
16, 366780, Note_on_c, 10, 66, 90
16, 366839, Note_on_c, 10, 66, 0
16, 366840, Note_on_c, 10, 64, 90
16, 366899, Note_on_c, 10, 64, 0
16, 366900, Note_on_c, 10, 67, 90
16, 367019, Note_on_c, 10, 67, 0
16, 367020, Note_on_c, 10, 66, 90
16, 367079, Note_on_c, 10, 66, 0
16, 367080, Note_on_c, 10, 64, 90
16, 367139, Note_on_c, 10, 64, 0
16, 367140, Note_on_c, 10, 69, 90
16, 367379, Note_on_c, 10, 69, 0
16, 367380, Note_on_c, 10, 66, 90
16, 367619, Note_on_c, 10, 66, 0
16, 367620, Note_on_c, 10, 62, 90
16, 367739, Note_on_c, 10, 62, 0
16, 367740, Note_on_c, 10, 57, 90
16, 367859, Note_on_c, 10, 57, 0
16, 367860, Note_on_c, 10, 66, 90
16, 367979, Note_on_c, 10, 66, 0
16, 367980, Note_on_c, 10, 62, 90
16, 368099, Note_on_c, 10, 62, 0
16, 368100, Note_on_c, 10, 69, 90
16, 368219, Note_on_c, 10, 69, 0
16, 368220, Note_on_c, 10, 66, 90
16, 368339, Note_on_c, 10, 66, 0
16, 368340, Note_on_c, 10, 62, 90
16, 368459, Note_on_c, 10, 62, 0
16, 368460, Note_on_c, 10, 57, 90
16, 368579, Note_on_c, 10, 57, 0
16, 368580, Note_on_c, 10, 66, 90
16, 368699, Note_on_c, 10, 66, 0
16, 368700, Note_on_c, 10, 66, 90
16, 368759, Note_on_c, 10, 66, 0
16, 368760, Note_on_c, 10, 64, 90
16, 368819, Note_on_c, 10, 64, 0
16, 368820, Note_on_c, 10, 67, 90
16, 368939, Note_on_c, 10, 67, 0
16, 368940, Note_on_c, 10, 66, 90
16, 368999, Note_on_c, 10, 66, 0
16, 369000, Note_on_c, 10, 64, 90
16, 369059, Note_on_c, 10, 64, 0
16, 369060, Note_on_c, 10, 66, 90
16, 369179, Note_on_c, 10, 66, 0
16, 369180, Note_on_c, 10, 64, 90
16, 369239, Note_on_c, 10, 64, 0
16, 369240, Note_on_c, 10, 62, 90
16, 369299, Note_on_c, 10, 62, 0
16, 369300, Note_on_c, 10, 61, 90
16, 369539, Note_on_c, 10, 61, 0
16, 369540, Note_on_c, 10, 73, 90
16, 369779, Note_on_c, 10, 73, 0
16, 369780, Note_on_c, 10, 69, 90
16, 370019, Note_on_c, 10, 69, 0
16, 370020, Note_on_c, 10, 57, 90
16, 370139, Note_on_c, 10, 57, 0
16, 370140, Note_on_c, 10, 57, 90
16, 370199, Note_on_c, 10, 57, 0
16, 370200, Note_on_c, 10, 56, 90
16, 370259, Note_on_c, 10, 56, 0
16, 370260, Note_on_c, 10, 59, 90
16, 370379, Note_on_c, 10, 59, 0
16, 370380, Note_on_c, 10, 57, 90
16, 370439, Note_on_c, 10, 57, 0
16, 370440, Note_on_c, 10, 56, 90
16, 370499, Note_on_c, 10, 56, 0
16, 370500, Note_on_c, 10, 57, 90
16, 370619, Note_on_c, 10, 57, 0
16, 370620, Note_on_c, 10, 57, 90
16, 370679, Note_on_c, 10, 57, 0
16, 370680, Note_on_c, 10, 56, 90
16, 370739, Note_on_c, 10, 56, 0
16, 370740, Note_on_c, 10, 59, 90
16, 370859, Note_on_c, 10, 59, 0
16, 370860, Note_on_c, 10, 57, 90
16, 370919, Note_on_c, 10, 57, 0
16, 370920, Note_on_c, 10, 56, 90
16, 370979, Note_on_c, 10, 56, 0
16, 370980, Note_on_c, 10, 69, 90
16, 371219, Note_on_c, 10, 69, 0
16, 371220, Note_on_c, 10, 64, 90
16, 371459, Note_on_c, 10, 64, 0
16, 371460, Note_on_c, 10, 61, 90
16, 371579, Note_on_c, 10, 61, 0
16, 371580, Note_on_c, 10, 61, 90
16, 371639, Note_on_c, 10, 61, 0
16, 371640, Note_on_c, 10, 59, 90
16, 371699, Note_on_c, 10, 59, 0
16, 371700, Note_on_c, 10, 62, 90
16, 371819, Note_on_c, 10, 62, 0
16, 371820, Note_on_c, 10, 61, 90
16, 371879, Note_on_c, 10, 61, 0
16, 371880, Note_on_c, 10, 59, 90
16, 371939, Note_on_c, 10, 59, 0
16, 371940, Note_on_c, 10, 61, 90
16, 372059, Note_on_c, 10, 61, 0
16, 372060, Note_on_c, 10, 61, 90
16, 372119, Note_on_c, 10, 61, 0
16, 372120, Note_on_c, 10, 59, 90
16, 372179, Note_on_c, 10, 59, 0
16, 372180, Note_on_c, 10, 62, 90
16, 372299, Note_on_c, 10, 62, 0
16, 372300, Note_on_c, 10, 61, 90
16, 372359, Note_on_c, 10, 61, 0
16, 372360, Note_on_c, 10, 59, 90
16, 372419, Note_on_c, 10, 59, 0
16, 372420, Note_on_c, 10, 64, 90
16, 372659, Note_on_c, 10, 64, 0
16, 372660, Note_on_c, 10, 61, 90
16, 372899, Note_on_c, 10, 61, 0
16, 372900, Note_on_c, 10, 57, 90
16, 373019, Note_on_c, 10, 57, 0
16, 373020, Note_on_c, 10, 61, 90
16, 373139, Note_on_c, 10, 61, 0
16, 373140, Note_on_c, 10, 61, 90
16, 373259, Note_on_c, 10, 61, 0
16, 373260, Note_on_c, 10, 57, 90
16, 373379, Note_on_c, 10, 57, 0
16, 373380, Note_on_c, 10, 64, 90
16, 373499, Note_on_c, 10, 64, 0
16, 373500, Note_on_c, 10, 61, 90
16, 373619, Note_on_c, 10, 61, 0
16, 373620, Note_on_c, 10, 57, 90
16, 373739, Note_on_c, 10, 57, 0
16, 373740, Note_on_c, 10, 61, 90
16, 373859, Note_on_c, 10, 61, 0
16, 373860, Note_on_c, 10, 62, 90
16, 373979, Note_on_c, 10, 62, 0
16, 373980, Note_on_c, 10, 62, 90
16, 374099, Note_on_c, 10, 62, 0
16, 374100, Note_on_c, 10, 62, 90
16, 374219, Note_on_c, 10, 62, 0
16, 374220, Note_on_c, 10, 62, 90
16, 374339, Note_on_c, 10, 62, 0
16, 374340, Note_on_c, 10, 62, 90
16, 374459, Note_on_c, 10, 62, 0
16, 374460, Note_on_c, 10, 61, 90
16, 374579, Note_on_c, 10, 61, 0
16, 374580, Note_on_c, 10, 57, 90
16, 374819, Note_on_c, 10, 57, 0
16, 375300, Note_on_c, 10, 62, 90
16, 375419, Note_on_c, 10, 62, 0
16, 375420, Note_on_c, 10, 62, 90
16, 375479, Note_on_c, 10, 62, 0
16, 375480, Note_on_c, 10, 61, 90
16, 375539, Note_on_c, 10, 61, 0
16, 375540, Note_on_c, 10, 64, 90
16, 375659, Note_on_c, 10, 64, 0
16, 375660, Note_on_c, 10, 62, 90
16, 375719, Note_on_c, 10, 62, 0
16, 375720, Note_on_c, 10, 61, 90
16, 375779, Note_on_c, 10, 61, 0
16, 375780, Note_on_c, 10, 62, 90
16, 375899, Note_on_c, 10, 62, 0
16, 375900, Note_on_c, 10, 62, 90
16, 375959, Note_on_c, 10, 62, 0
16, 375960, Note_on_c, 10, 61, 90
16, 376019, Note_on_c, 10, 61, 0
16, 376020, Note_on_c, 10, 64, 90
16, 376139, Note_on_c, 10, 64, 0
16, 376140, Note_on_c, 10, 62, 90
16, 376199, Note_on_c, 10, 62, 0
16, 376200, Note_on_c, 10, 61, 90
16, 376259, Note_on_c, 10, 61, 0
16, 376260, Note_on_c, 10, 62, 90
16, 376499, Note_on_c, 10, 62, 0
16, 376740, Note_on_c, 10, 66, 90
16, 376859, Note_on_c, 10, 66, 0
16, 376860, Note_on_c, 10, 66, 90
16, 376919, Note_on_c, 10, 66, 0
16, 376920, Note_on_c, 10, 64, 90
16, 376979, Note_on_c, 10, 64, 0
16, 376980, Note_on_c, 10, 67, 90
16, 377099, Note_on_c, 10, 67, 0
16, 377100, Note_on_c, 10, 66, 90
16, 377159, Note_on_c, 10, 66, 0
16, 377160, Note_on_c, 10, 64, 90
16, 377219, Note_on_c, 10, 64, 0
16, 377220, Note_on_c, 10, 66, 90
16, 377339, Note_on_c, 10, 66, 0
16, 377340, Note_on_c, 10, 66, 90
16, 377399, Note_on_c, 10, 66, 0
16, 377400, Note_on_c, 10, 64, 90
16, 377459, Note_on_c, 10, 64, 0
16, 377460, Note_on_c, 10, 67, 90
16, 377579, Note_on_c, 10, 67, 0
16, 377580, Note_on_c, 10, 66, 90
16, 377639, Note_on_c, 10, 66, 0
16, 377640, Note_on_c, 10, 64, 90
16, 377699, Note_on_c, 10, 64, 0
16, 377700, Note_on_c, 10, 69, 90
16, 377939, Note_on_c, 10, 69, 0
16, 377940, Note_on_c, 10, 66, 90
16, 378179, Note_on_c, 10, 66, 0
16, 378180, Note_on_c, 10, 66, 90
16, 378299, Note_on_c, 10, 66, 0
16, 378300, Note_on_c, 10, 62, 90
16, 378419, Note_on_c, 10, 62, 0
16, 378420, Note_on_c, 10, 69, 90
16, 378539, Note_on_c, 10, 69, 0
16, 378540, Note_on_c, 10, 66, 90
16, 378659, Note_on_c, 10, 66, 0
16, 378660, Note_on_c, 10, 74, 90
16, 378779, Note_on_c, 10, 74, 0
16, 378780, Note_on_c, 10, 69, 90
16, 378899, Note_on_c, 10, 69, 0
16, 378900, Note_on_c, 10, 78, 90
16, 379019, Note_on_c, 10, 78, 0
16, 379020, Note_on_c, 10, 74, 90
16, 379139, Note_on_c, 10, 74, 0
16, 379140, Note_on_c, 10, 74, 90
16, 379259, Note_on_c, 10, 74, 0
16, 379260, Note_on_c, 10, 74, 90
16, 379379, Note_on_c, 10, 74, 0
16, 379380, Note_on_c, 10, 74, 90
16, 379499, Note_on_c, 10, 74, 0
16, 379500, Note_on_c, 10, 74, 90
16, 379619, Note_on_c, 10, 74, 0
16, 379620, Note_on_c, 10, 74, 90
16, 379739, Note_on_c, 10, 74, 0
16, 379740, Note_on_c, 10, 69, 90
16, 379859, Note_on_c, 10, 69, 0
16, 379860, Note_on_c, 10, 69, 90
16, 380099, Note_on_c, 10, 69, 0
16, 382020, Note_on_c, 10, 61, 90
16, 382139, Note_on_c, 10, 61, 0
16, 382140, Note_on_c, 10, 61, 90
16, 382199, Note_on_c, 10, 61, 0
16, 382200, Note_on_c, 10, 59, 90
16, 382259, Note_on_c, 10, 59, 0
16, 382260, Note_on_c, 10, 62, 90
16, 382379, Note_on_c, 10, 62, 0
16, 382380, Note_on_c, 10, 61, 90
16, 382439, Note_on_c, 10, 61, 0
16, 382440, Note_on_c, 10, 59, 90
16, 382499, Note_on_c, 10, 59, 0
16, 382500, Note_on_c, 10, 61, 90
16, 382619, Note_on_c, 10, 61, 0
16, 382620, Note_on_c, 10, 61, 90
16, 382679, Note_on_c, 10, 61, 0
16, 382680, Note_on_c, 10, 59, 90
16, 382739, Note_on_c, 10, 59, 0
16, 382740, Note_on_c, 10, 62, 90
16, 382859, Note_on_c, 10, 62, 0
16, 382860, Note_on_c, 10, 61, 90
16, 382919, Note_on_c, 10, 61, 0
16, 382920, Note_on_c, 10, 59, 90
16, 382979, Note_on_c, 10, 59, 0
16, 382980, Note_on_c, 10, 76, 90
16, 383219, Note_on_c, 10, 76, 0
16, 383220, Note_on_c, 10, 73, 90
16, 383459, Note_on_c, 10, 73, 0
16, 383460, Note_on_c, 10, 69, 90
16, 383579, Note_on_c, 10, 69, 0
16, 383580, Note_on_c, 10, 64, 90
16, 383699, Note_on_c, 10, 64, 0
16, 383700, Note_on_c, 10, 73, 90
16, 383819, Note_on_c, 10, 73, 0
16, 383820, Note_on_c, 10, 69, 90
16, 383939, Note_on_c, 10, 69, 0
16, 383940, Note_on_c, 10, 76, 90
16, 384059, Note_on_c, 10, 76, 0
16, 384060, Note_on_c, 10, 73, 90
16, 384179, Note_on_c, 10, 73, 0
16, 384180, Note_on_c, 10, 69, 90
16, 384299, Note_on_c, 10, 69, 0
16, 384300, Note_on_c, 10, 64, 90
16, 384419, Note_on_c, 10, 64, 0
16, 384420, Note_on_c, 10, 71, 90
16, 384539, Note_on_c, 10, 71, 0
16, 384540, Note_on_c, 10, 74, 90
16, 384659, Note_on_c, 10, 74, 0
16, 384660, Note_on_c, 10, 74, 90
16, 384779, Note_on_c, 10, 74, 0
16, 384780, Note_on_c, 10, 74, 90
16, 384899, Note_on_c, 10, 74, 0
16, 384900, Note_on_c, 10, 74, 90
16, 385019, Note_on_c, 10, 74, 0
16, 385020, Note_on_c, 10, 73, 90
16, 385139, Note_on_c, 10, 73, 0
16, 385140, Note_on_c, 10, 69, 90
16, 385379, Note_on_c, 10, 69, 0
16, 385379, End_track
17, 0, Start_track
17, 0, MIDI_port, 0
17, 0, Title_t, "viola"
17, 0, Program_c, 11, 48
17, 120, Note_on_c, 11, 57, 80
17, 180, Note_on_c, 11, 57, 0
17, 180, Note_on_c, 11, 54, 80
17, 240, Note_on_c, 11, 54, 0
17, 480, Note_on_c, 11, 62, 80
17, 540, Note_on_c, 11, 62, 0
17, 540, Note_on_c, 11, 57, 80
17, 600, Note_on_c, 11, 57, 0
17, 840, Note_on_c, 11, 66, 80
17, 900, Note_on_c, 11, 66, 0
17, 900, Note_on_c, 11, 62, 80
17, 960, Note_on_c, 11, 62, 0
17, 1110, Note_on_c, 11, 54, 80
17, 1140, Note_on_c, 11, 54, 0
17, 1140, Note_on_c, 11, 55, 80
17, 1170, Note_on_c, 11, 55, 0
17, 1170, Note_on_c, 11, 57, 80
17, 1200, Note_on_c, 11, 57, 0
17, 1200, Note_on_c, 11, 59, 80
17, 1230, Note_on_c, 11, 59, 0
17, 1230, Note_on_c, 11, 61, 80
17, 1260, Note_on_c, 11, 61, 0
17, 1260, Note_on_c, 11, 62, 80
17, 1290, Note_on_c, 11, 62, 0
17, 1290, Note_on_c, 11, 64, 80
17, 1320, Note_on_c, 11, 64, 0
17, 1320, Note_on_c, 11, 66, 80
17, 1350, Note_on_c, 11, 66, 0
17, 1350, Note_on_c, 11, 64, 80
17, 1380, Note_on_c, 11, 64, 0
17, 1380, Note_on_c, 11, 66, 80
17, 1410, Note_on_c, 11, 66, 0
17, 1410, Note_on_c, 11, 64, 80
17, 1440, Note_on_c, 11, 64, 0
17, 1440, Note_on_c, 11, 66, 90
17, 1469, Note_on_c, 11, 66, 0
17, 1470, Note_on_c, 11, 74, 90
17, 1499, Note_on_c, 11, 74, 0
17, 1500, Note_on_c, 11, 73, 90
17, 1529, Note_on_c, 11, 73, 0
17, 1530, Note_on_c, 11, 71, 90
17, 1559, Note_on_c, 11, 71, 0
17, 1560, Note_on_c, 11, 69, 90
17, 1589, Note_on_c, 11, 69, 0
17, 1590, Note_on_c, 11, 67, 90
17, 1619, Note_on_c, 11, 67, 0
17, 1620, Note_on_c, 11, 66, 90
17, 1649, Note_on_c, 11, 66, 0
17, 1650, Note_on_c, 11, 64, 90
17, 1679, Note_on_c, 11, 64, 0
17, 1680, Note_on_c, 11, 62, 90
17, 1739, Note_on_c, 11, 62, 0
17, 1830, Note_on_c, 11, 71, 90
17, 1859, Note_on_c, 11, 71, 0
17, 1860, Note_on_c, 11, 69, 90
17, 1889, Note_on_c, 11, 69, 0
17, 1890, Note_on_c, 11, 67, 90
17, 1919, Note_on_c, 11, 67, 0
17, 1920, Note_on_c, 11, 66, 90
17, 1949, Note_on_c, 11, 66, 0
17, 1950, Note_on_c, 11, 64, 90
17, 1979, Note_on_c, 11, 64, 0
17, 1980, Note_on_c, 11, 62, 90
17, 2009, Note_on_c, 11, 62, 0
17, 2010, Note_on_c, 11, 61, 90
17, 2039, Note_on_c, 11, 61, 0
17, 2040, Note_on_c, 11, 59, 90
17, 2099, Note_on_c, 11, 59, 0
17, 2220, Note_on_c, 11, 68, 90
17, 2249, Note_on_c, 11, 68, 0
17, 2250, Note_on_c, 11, 69, 90
17, 2279, Note_on_c, 11, 69, 0
17, 2280, Note_on_c, 11, 71, 90
17, 2309, Note_on_c, 11, 71, 0
17, 2310, Note_on_c, 11, 73, 90
17, 2339, Note_on_c, 11, 73, 0
17, 2340, Note_on_c, 11, 64, 90
17, 2369, Note_on_c, 11, 64, 0
17, 2370, Note_on_c, 11, 66, 90
17, 2399, Note_on_c, 11, 66, 0
17, 2400, Note_on_c, 11, 68, 90
17, 2429, Note_on_c, 11, 68, 0
17, 2430, Note_on_c, 11, 69, 90
17, 2459, Note_on_c, 11, 69, 0
17, 2460, Note_on_c, 11, 61, 90
17, 2489, Note_on_c, 11, 61, 0
17, 2490, Note_on_c, 11, 62, 90
17, 2519, Note_on_c, 11, 62, 0
17, 2520, Note_on_c, 11, 64, 90
17, 2579, Note_on_c, 11, 64, 0
17, 2580, Note_on_c, 11, 64, 90
17, 2609, Note_on_c, 11, 64, 0
17, 2610, Note_on_c, 11, 62, 90
17, 2639, Note_on_c, 11, 62, 0
17, 2640, Note_on_c, 11, 61, 90
17, 2669, Note_on_c, 11, 61, 0
17, 2670, Note_on_c, 11, 62, 90
17, 2699, Note_on_c, 11, 62, 0
17, 2700, Note_on_c, 11, 64, 90
17, 2729, Note_on_c, 11, 64, 0
17, 2730, Note_on_c, 11, 66, 90
17, 2759, Note_on_c, 11, 66, 0
17, 2760, Note_on_c, 11, 64, 90
17, 2819, Note_on_c, 11, 64, 0
17, 2820, Note_on_c, 11, 62, 90
17, 2879, Note_on_c, 11, 62, 0
17, 2880, Note_on_c, 11, 61, 90
17, 2909, Note_on_c, 11, 61, 0
17, 2910, Note_on_c, 11, 57, 90
17, 2939, Note_on_c, 11, 57, 0
17, 2940, Note_on_c, 11, 59, 90
17, 2969, Note_on_c, 11, 59, 0
17, 2970, Note_on_c, 11, 61, 90
17, 2999, Note_on_c, 11, 61, 0
17, 3000, Note_on_c, 11, 62, 90
17, 3029, Note_on_c, 11, 62, 0
17, 3030, Note_on_c, 11, 64, 90
17, 3059, Note_on_c, 11, 64, 0
17, 3060, Note_on_c, 11, 66, 90
17, 3089, Note_on_c, 11, 66, 0
17, 3090, Note_on_c, 11, 67, 90
17, 3119, Note_on_c, 11, 67, 0
17, 3120, Note_on_c, 11, 69, 90
17, 3149, Note_on_c, 11, 69, 0
17, 3150, Note_on_c, 11, 67, 90
17, 3179, Note_on_c, 11, 67, 0
17, 3180, Note_on_c, 11, 69, 90
17, 3209, Note_on_c, 11, 69, 0
17, 3210, Note_on_c, 11, 67, 90
17, 3239, Note_on_c, 11, 67, 0
17, 3240, Note_on_c, 11, 66, 90
17, 3299, Note_on_c, 11, 66, 0
17, 3300, Note_on_c, 11, 66, 90
17, 3359, Note_on_c, 11, 66, 0
17, 3360, Note_on_c, 11, 66, 90
17, 3419, Note_on_c, 11, 66, 0
17, 3420, Note_on_c, 11, 66, 90
17, 3479, Note_on_c, 11, 66, 0
17, 3480, Note_on_c, 11, 66, 90
17, 3539, Note_on_c, 11, 66, 0
17, 3540, Note_on_c, 11, 67, 90
17, 3569, Note_on_c, 11, 67, 0
17, 3570, Note_on_c, 11, 69, 90
17, 3599, Note_on_c, 11, 69, 0
17, 3600, Note_on_c, 11, 71, 90
17, 3629, Note_on_c, 11, 71, 0
17, 3630, Note_on_c, 11, 63, 90
17, 3659, Note_on_c, 11, 63, 0
17, 3660, Note_on_c, 11, 64, 90
17, 3689, Note_on_c, 11, 64, 0
17, 3690, Note_on_c, 11, 66, 90
17, 3719, Note_on_c, 11, 66, 0
17, 3720, Note_on_c, 11, 67, 90
17, 3749, Note_on_c, 11, 67, 0
17, 3750, Note_on_c, 11, 69, 90
17, 3779, Note_on_c, 11, 69, 0
17, 3780, Note_on_c, 11, 71, 90
17, 3809, Note_on_c, 11, 71, 0
17, 3810, Note_on_c, 11, 73, 90
17, 3839, Note_on_c, 11, 73, 0
17, 3840, Note_on_c, 11, 75, 90
17, 3869, Note_on_c, 11, 75, 0
17, 3870, Note_on_c, 11, 76, 90
17, 3899, Note_on_c, 11, 76, 0
17, 3900, Note_on_c, 11, 73, 90
17, 3929, Note_on_c, 11, 73, 0
17, 3930, Note_on_c, 11, 75, 90
17, 3959, Note_on_c, 11, 75, 0
17, 3960, Note_on_c, 11, 71, 90
17, 4019, Note_on_c, 11, 71, 0
17, 4350, Note_on_c, 11, 64, 90
17, 4379, Note_on_c, 11, 64, 0
17, 4380, Note_on_c, 11, 66, 90
17, 4409, Note_on_c, 11, 66, 0
17, 4410, Note_on_c, 11, 67, 90
17, 4439, Note_on_c, 11, 67, 0
17, 4440, Note_on_c, 11, 69, 90
17, 4469, Note_on_c, 11, 69, 0
17, 4470, Note_on_c, 11, 71, 90
17, 4499, Note_on_c, 11, 71, 0
17, 4500, Note_on_c, 11, 73, 90
17, 4529, Note_on_c, 11, 73, 0
17, 4530, Note_on_c, 11, 74, 90
17, 4559, Note_on_c, 11, 74, 0
17, 4560, Note_on_c, 11, 76, 90
17, 4589, Note_on_c, 11, 76, 0
17, 4590, Note_on_c, 11, 74, 90
17, 4619, Note_on_c, 11, 74, 0
17, 4620, Note_on_c, 11, 76, 90
17, 4649, Note_on_c, 11, 76, 0
17, 4650, Note_on_c, 11, 74, 90
17, 4679, Note_on_c, 11, 74, 0
17, 4680, Note_on_c, 11, 73, 90
17, 4709, Note_on_c, 11, 73, 0
17, 4710, Note_on_c, 11, 61, 90
17, 4739, Note_on_c, 11, 61, 0
17, 4740, Note_on_c, 11, 62, 90
17, 4769, Note_on_c, 11, 62, 0
17, 4770, Note_on_c, 11, 64, 90
17, 4799, Note_on_c, 11, 64, 0
17, 4800, Note_on_c, 11, 66, 90
17, 4829, Note_on_c, 11, 66, 0
17, 4830, Note_on_c, 11, 67, 90
17, 4859, Note_on_c, 11, 67, 0
17, 4860, Note_on_c, 11, 69, 90
17, 4889, Note_on_c, 11, 69, 0
17, 4890, Note_on_c, 11, 71, 90
17, 4919, Note_on_c, 11, 71, 0
17, 4920, Note_on_c, 11, 73, 90
17, 4949, Note_on_c, 11, 73, 0
17, 4950, Note_on_c, 11, 74, 90
17, 4979, Note_on_c, 11, 74, 0
17, 4980, Note_on_c, 11, 71, 90
17, 5009, Note_on_c, 11, 71, 0
17, 5010, Note_on_c, 11, 73, 90
17, 5039, Note_on_c, 11, 73, 0
17, 5040, Note_on_c, 11, 69, 90
17, 5069, Note_on_c, 11, 69, 0
17, 5070, Note_on_c, 11, 66, 90
17, 5099, Note_on_c, 11, 66, 0
17, 5100, Note_on_c, 11, 64, 90
17, 5129, Note_on_c, 11, 64, 0
17, 5130, Note_on_c, 11, 62, 90
17, 5159, Note_on_c, 11, 62, 0
17, 5160, Note_on_c, 11, 61, 90
17, 5189, Note_on_c, 11, 61, 0
17, 5190, Note_on_c, 11, 59, 90
17, 5219, Note_on_c, 11, 59, 0
17, 5220, Note_on_c, 11, 57, 90
17, 5249, Note_on_c, 11, 57, 0
17, 5250, Note_on_c, 11, 55, 90
17, 5279, Note_on_c, 11, 55, 0
17, 5280, Note_on_c, 11, 54, 90
17, 5339, Note_on_c, 11, 54, 0
17, 5460, Note_on_c, 11, 64, 90
17, 5519, Note_on_c, 11, 64, 0
17, 5520, Note_on_c, 11, 64, 90
17, 5579, Note_on_c, 11, 64, 0
17, 5580, Note_on_c, 11, 64, 90
17, 5639, Note_on_c, 11, 64, 0
17, 5640, Note_on_c, 11, 64, 90
17, 5699, Note_on_c, 11, 64, 0
17, 5700, Note_on_c, 11, 66, 90
17, 5729, Note_on_c, 11, 66, 0
17, 5730, Note_on_c, 11, 67, 90
17, 5759, Note_on_c, 11, 67, 0
17, 5760, Note_on_c, 11, 61, 90
17, 5819, Note_on_c, 11, 61, 0
17, 5820, Note_on_c, 11, 62, 90
17, 5879, Note_on_c, 11, 62, 0
17, 5880, Note_on_c, 11, 62, 90
17, 5939, Note_on_c, 11, 62, 0
17, 5940, Note_on_c, 11, 62, 90
17, 5999, Note_on_c, 11, 62, 0
17, 6000, Note_on_c, 11, 62, 90
17, 6059, Note_on_c, 11, 62, 0
17, 6060, Note_on_c, 11, 64, 90
17, 6089, Note_on_c, 11, 64, 0
17, 6090, Note_on_c, 11, 66, 90
17, 6119, Note_on_c, 11, 66, 0
17, 6120, Note_on_c, 11, 59, 90
17, 6179, Note_on_c, 11, 59, 0
17, 6180, Note_on_c, 11, 61, 90
17, 6239, Note_on_c, 11, 61, 0
17, 6240, Note_on_c, 11, 61, 90
17, 6299, Note_on_c, 11, 61, 0
17, 6300, Note_on_c, 11, 61, 90
17, 6359, Note_on_c, 11, 61, 0
17, 6360, Note_on_c, 11, 61, 90
17, 6419, Note_on_c, 11, 61, 0
17, 6420, Note_on_c, 11, 62, 90
17, 6449, Note_on_c, 11, 62, 0
17, 6450, Note_on_c, 11, 64, 90
17, 6479, Note_on_c, 11, 64, 0
17, 6480, Note_on_c, 11, 57, 90
17, 6539, Note_on_c, 11, 57, 0
17, 6750, Note_on_c, 11, 69, 90
17, 6779, Note_on_c, 11, 69, 0
17, 6780, Note_on_c, 11, 71, 90
17, 6809, Note_on_c, 11, 71, 0
17, 6810, Note_on_c, 11, 73, 90
17, 6839, Note_on_c, 11, 73, 0
17, 6840, Note_on_c, 11, 74, 90
17, 6869, Note_on_c, 11, 74, 0
17, 6870, Note_on_c, 11, 72, 90
17, 6899, Note_on_c, 11, 72, 0
17, 6900, Note_on_c, 11, 71, 90
17, 6929, Note_on_c, 11, 71, 0
17, 6930, Note_on_c, 11, 69, 90
17, 6959, Note_on_c, 11, 69, 0
17, 6960, Note_on_c, 11, 68, 90
17, 7019, Note_on_c, 11, 68, 0
17, 7110, Note_on_c, 11, 66, 90
17, 7139, Note_on_c, 11, 66, 0
17, 7140, Note_on_c, 11, 68, 90
17, 7169, Note_on_c, 11, 68, 0
17, 7170, Note_on_c, 11, 69, 90
17, 7199, Note_on_c, 11, 69, 0
17, 7200, Note_on_c, 11, 71, 90
17, 7229, Note_on_c, 11, 71, 0
17, 7230, Note_on_c, 11, 69, 90
17, 7259, Note_on_c, 11, 69, 0
17, 7260, Note_on_c, 11, 68, 90
17, 7289, Note_on_c, 11, 68, 0
17, 7290, Note_on_c, 11, 66, 90
17, 7319, Note_on_c, 11, 66, 0
17, 7320, Note_on_c, 11, 64, 90
17, 7379, Note_on_c, 11, 64, 0
17, 7470, Note_on_c, 11, 59, 90
17, 7499, Note_on_c, 11, 59, 0
17, 7500, Note_on_c, 11, 61, 90
17, 7529, Note_on_c, 11, 61, 0
17, 7530, Note_on_c, 11, 62, 90
17, 7559, Note_on_c, 11, 62, 0
17, 7560, Note_on_c, 11, 64, 90
17, 7619, Note_on_c, 11, 64, 0
17, 7620, Note_on_c, 11, 69, 90
17, 7679, Note_on_c, 11, 69, 0
17, 7800, Note_on_c, 11, 69, 90
17, 7859, Note_on_c, 11, 69, 0
17, 7860, Note_on_c, 11, 64, 90
17, 7919, Note_on_c, 11, 64, 0
17, 8160, Note_on_c, 11, 69, 90
17, 8219, Note_on_c, 11, 69, 0
17, 8220, Note_on_c, 11, 66, 90
17, 8279, Note_on_c, 11, 66, 0
17, 8520, Note_on_c, 11, 69, 90
17, 8579, Note_on_c, 11, 69, 0
17, 8580, Note_on_c, 11, 64, 90
17, 8639, Note_on_c, 11, 64, 0
17, 8640, Note_on_c, 11, 69, 90
17, 8669, Note_on_c, 11, 69, 0
17, 8670, Note_on_c, 11, 74, 90
17, 8699, Note_on_c, 11, 74, 0
17, 8700, Note_on_c, 11, 73, 90
17, 8729, Note_on_c, 11, 73, 0
17, 8730, Note_on_c, 11, 71, 90
17, 8759, Note_on_c, 11, 71, 0
17, 8760, Note_on_c, 11, 69, 90
17, 8789, Note_on_c, 11, 69, 0
17, 8790, Note_on_c, 11, 67, 90
17, 8819, Note_on_c, 11, 67, 0
17, 8820, Note_on_c, 11, 66, 90
17, 8849, Note_on_c, 11, 66, 0
17, 8850, Note_on_c, 11, 64, 90
17, 8879, Note_on_c, 11, 64, 0
17, 8880, Note_on_c, 11, 62, 90
17, 8939, Note_on_c, 11, 62, 0
17, 9030, Note_on_c, 11, 71, 90
17, 9059, Note_on_c, 11, 71, 0
17, 9060, Note_on_c, 11, 69, 90
17, 9089, Note_on_c, 11, 69, 0
17, 9090, Note_on_c, 11, 67, 90
17, 9119, Note_on_c, 11, 67, 0
17, 9120, Note_on_c, 11, 66, 90
17, 9149, Note_on_c, 11, 66, 0
17, 9150, Note_on_c, 11, 64, 90
17, 9179, Note_on_c, 11, 64, 0
17, 9180, Note_on_c, 11, 62, 90
17, 9209, Note_on_c, 11, 62, 0
17, 9210, Note_on_c, 11, 61, 90
17, 9239, Note_on_c, 11, 61, 0
17, 9240, Note_on_c, 11, 59, 90
17, 9299, Note_on_c, 11, 59, 0
17, 9420, Note_on_c, 11, 71, 90
17, 9479, Note_on_c, 11, 71, 0
17, 9480, Note_on_c, 11, 73, 90
17, 9509, Note_on_c, 11, 73, 0
17, 9510, Note_on_c, 11, 74, 90
17, 9539, Note_on_c, 11, 74, 0
17, 9540, Note_on_c, 11, 73, 90
17, 9569, Note_on_c, 11, 73, 0
17, 9570, Note_on_c, 11, 74, 90
17, 9599, Note_on_c, 11, 74, 0
17, 9600, Note_on_c, 11, 76, 90
17, 9659, Note_on_c, 11, 76, 0
17, 9660, Note_on_c, 11, 69, 90
17, 9719, Note_on_c, 11, 69, 0
17, 9720, Note_on_c, 11, 64, 90
17, 9749, Note_on_c, 11, 64, 0
17, 9750, Note_on_c, 11, 61, 90
17, 9779, Note_on_c, 11, 61, 0
17, 9780, Note_on_c, 11, 62, 90
17, 9809, Note_on_c, 11, 62, 0
17, 9810, Note_on_c, 11, 64, 90
17, 9839, Note_on_c, 11, 64, 0
17, 9840, Note_on_c, 11, 66, 90
17, 9869, Note_on_c, 11, 66, 0
17, 9870, Note_on_c, 11, 67, 90
17, 9899, Note_on_c, 11, 67, 0
17, 9900, Note_on_c, 11, 69, 90
17, 9929, Note_on_c, 11, 69, 0
17, 9930, Note_on_c, 11, 71, 90
17, 9959, Note_on_c, 11, 71, 0
17, 9960, Note_on_c, 11, 69, 90
17, 10019, Note_on_c, 11, 69, 0
17, 10020, Note_on_c, 11, 64, 90
17, 10079, Note_on_c, 11, 64, 0
17, 10080, Note_on_c, 11, 66, 90
17, 10199, Note_on_c, 11, 66, 0
17, 10320, Note_on_c, 11, 74, 90
17, 10379, Note_on_c, 11, 74, 0
17, 10380, Note_on_c, 11, 69, 90
17, 10439, Note_on_c, 11, 69, 0
17, 10680, Note_on_c, 11, 62, 90
17, 10739, Note_on_c, 11, 62, 0
17, 10740, Note_on_c, 11, 59, 90
17, 10799, Note_on_c, 11, 59, 0
17, 11040, Note_on_c, 11, 69, 90
17, 11099, Note_on_c, 11, 69, 0
17, 11100, Note_on_c, 11, 66, 90
17, 11159, Note_on_c, 11, 66, 0
17, 11400, Note_on_c, 11, 59, 90
17, 11459, Note_on_c, 11, 59, 0
17, 11460, Note_on_c, 11, 55, 90
17, 11519, Note_on_c, 11, 55, 0
17, 11580, Note_on_c, 11, 66, 90
17, 11609, Note_on_c, 11, 66, 0
17, 11610, Note_on_c, 11, 64, 90
17, 11639, Note_on_c, 11, 64, 0
17, 11640, Note_on_c, 11, 62, 90
17, 11699, Note_on_c, 11, 62, 0
17, 11700, Note_on_c, 11, 57, 90
17, 11759, Note_on_c, 11, 57, 0
17, 11760, Note_on_c, 11, 69, 90
17, 11819, Note_on_c, 11, 69, 0
17, 11820, Note_on_c, 11, 69, 90
17, 11879, Note_on_c, 11, 69, 0
17, 11880, Note_on_c, 11, 69, 90
17, 11999, Note_on_c, 11, 69, 0
17, 12120, Note_on_c, 11, 69, 90
17, 12179, Note_on_c, 11, 69, 0
17, 12180, Note_on_c, 11, 64, 90
17, 12239, Note_on_c, 11, 64, 0
17, 12480, Note_on_c, 11, 69, 90
17, 12539, Note_on_c, 11, 69, 0
17, 12540, Note_on_c, 11, 66, 90
17, 12599, Note_on_c, 11, 66, 0
17, 12840, Note_on_c, 11, 69, 90
17, 12899, Note_on_c, 11, 69, 0
17, 12900, Note_on_c, 11, 64, 90
17, 12959, Note_on_c, 11, 64, 0
17, 12960, Note_on_c, 11, 69, 90
17, 12989, Note_on_c, 11, 69, 0
17, 12990, Note_on_c, 11, 74, 90
17, 13019, Note_on_c, 11, 74, 0
17, 13020, Note_on_c, 11, 73, 90
17, 13049, Note_on_c, 11, 73, 0
17, 13050, Note_on_c, 11, 71, 90
17, 13079, Note_on_c, 11, 71, 0
17, 13080, Note_on_c, 11, 69, 90
17, 13109, Note_on_c, 11, 69, 0
17, 13110, Note_on_c, 11, 67, 90
17, 13139, Note_on_c, 11, 67, 0
17, 13140, Note_on_c, 11, 66, 90
17, 13169, Note_on_c, 11, 66, 0
17, 13170, Note_on_c, 11, 64, 90
17, 13199, Note_on_c, 11, 64, 0
17, 13200, Note_on_c, 11, 62, 90
17, 13259, Note_on_c, 11, 62, 0
17, 13350, Note_on_c, 11, 71, 90
17, 13379, Note_on_c, 11, 71, 0
17, 13380, Note_on_c, 11, 69, 90
17, 13409, Note_on_c, 11, 69, 0
17, 13410, Note_on_c, 11, 67, 90
17, 13439, Note_on_c, 11, 67, 0
17, 13440, Note_on_c, 11, 66, 90
17, 13469, Note_on_c, 11, 66, 0
17, 13470, Note_on_c, 11, 64, 90
17, 13499, Note_on_c, 11, 64, 0
17, 13500, Note_on_c, 11, 62, 90
17, 13529, Note_on_c, 11, 62, 0
17, 13530, Note_on_c, 11, 61, 90
17, 13559, Note_on_c, 11, 61, 0
17, 13560, Note_on_c, 11, 59, 90
17, 13619, Note_on_c, 11, 59, 0
17, 13740, Note_on_c, 11, 71, 90
17, 13799, Note_on_c, 11, 71, 0
17, 13800, Note_on_c, 11, 73, 90
17, 13829, Note_on_c, 11, 73, 0
17, 13830, Note_on_c, 11, 74, 90
17, 13859, Note_on_c, 11, 74, 0
17, 13860, Note_on_c, 11, 73, 90
17, 13889, Note_on_c, 11, 73, 0
17, 13890, Note_on_c, 11, 74, 90
17, 13919, Note_on_c, 11, 74, 0
17, 13920, Note_on_c, 11, 76, 90
17, 13979, Note_on_c, 11, 76, 0
17, 13980, Note_on_c, 11, 69, 90
17, 14039, Note_on_c, 11, 69, 0
17, 14040, Note_on_c, 11, 64, 90
17, 14069, Note_on_c, 11, 64, 0
17, 14070, Note_on_c, 11, 61, 90
17, 14099, Note_on_c, 11, 61, 0
17, 14100, Note_on_c, 11, 62, 90
17, 14129, Note_on_c, 11, 62, 0
17, 14130, Note_on_c, 11, 64, 90
17, 14159, Note_on_c, 11, 64, 0
17, 14160, Note_on_c, 11, 66, 90
17, 14189, Note_on_c, 11, 66, 0
17, 14190, Note_on_c, 11, 67, 90
17, 14219, Note_on_c, 11, 67, 0
17, 14220, Note_on_c, 11, 69, 90
17, 14249, Note_on_c, 11, 69, 0
17, 14250, Note_on_c, 11, 71, 90
17, 14279, Note_on_c, 11, 71, 0
17, 14280, Note_on_c, 11, 69, 90
17, 14339, Note_on_c, 11, 69, 0
17, 14340, Note_on_c, 11, 64, 90
17, 14399, Note_on_c, 11, 64, 0
17, 14400, Note_on_c, 11, 66, 90
17, 14519, Note_on_c, 11, 66, 0
17, 14640, Note_on_c, 11, 57, 90
17, 14699, Note_on_c, 11, 57, 0
17, 14700, Note_on_c, 11, 54, 90
17, 14759, Note_on_c, 11, 54, 0
17, 15000, Note_on_c, 11, 62, 90
17, 15059, Note_on_c, 11, 62, 0
17, 15060, Note_on_c, 11, 57, 90
17, 15119, Note_on_c, 11, 57, 0
17, 15360, Note_on_c, 11, 66, 90
17, 15419, Note_on_c, 11, 66, 0
17, 15420, Note_on_c, 11, 62, 90
17, 15479, Note_on_c, 11, 62, 0
17, 15510, Note_on_c, 11, 54, 90
17, 15539, Note_on_c, 11, 54, 0
17, 15540, Note_on_c, 11, 55, 90
17, 15569, Note_on_c, 11, 55, 0
17, 15570, Note_on_c, 11, 57, 90
17, 15599, Note_on_c, 11, 57, 0
17, 15600, Note_on_c, 11, 59, 90
17, 15629, Note_on_c, 11, 59, 0
17, 15630, Note_on_c, 11, 61, 90
17, 15659, Note_on_c, 11, 61, 0
17, 15660, Note_on_c, 11, 62, 90
17, 15689, Note_on_c, 11, 62, 0
17, 15690, Note_on_c, 11, 64, 90
17, 15719, Note_on_c, 11, 64, 0
17, 15720, Note_on_c, 11, 66, 90
17, 15749, Note_on_c, 11, 66, 0
17, 15750, Note_on_c, 11, 64, 90
17, 15779, Note_on_c, 11, 64, 0
17, 15780, Note_on_c, 11, 66, 90
17, 15809, Note_on_c, 11, 66, 0
17, 15810, Note_on_c, 11, 64, 90
17, 15839, Note_on_c, 11, 64, 0
17, 15840, Note_on_c, 11, 66, 90
17, 15869, Note_on_c, 11, 66, 0
17, 15870, Note_on_c, 11, 69, 90
17, 15899, Note_on_c, 11, 69, 0
17, 15900, Note_on_c, 11, 67, 90
17, 15929, Note_on_c, 11, 67, 0
17, 15930, Note_on_c, 11, 66, 90
17, 15959, Note_on_c, 11, 66, 0
17, 15960, Note_on_c, 11, 64, 90
17, 15989, Note_on_c, 11, 64, 0
17, 15990, Note_on_c, 11, 62, 90
17, 16019, Note_on_c, 11, 62, 0
17, 16020, Note_on_c, 11, 61, 90
17, 16049, Note_on_c, 11, 61, 0
17, 16050, Note_on_c, 11, 59, 90
17, 16079, Note_on_c, 11, 59, 0
17, 16080, Note_on_c, 11, 57, 90
17, 16139, Note_on_c, 11, 57, 0
17, 16230, Note_on_c, 11, 71, 90
17, 16259, Note_on_c, 11, 71, 0
17, 16260, Note_on_c, 11, 69, 90
17, 16289, Note_on_c, 11, 69, 0
17, 16290, Note_on_c, 11, 67, 90
17, 16319, Note_on_c, 11, 67, 0
17, 16320, Note_on_c, 11, 66, 90
17, 16349, Note_on_c, 11, 66, 0
17, 16350, Note_on_c, 11, 64, 90
17, 16379, Note_on_c, 11, 64, 0
17, 16380, Note_on_c, 11, 62, 90
17, 16409, Note_on_c, 11, 62, 0
17, 16410, Note_on_c, 11, 61, 90
17, 16439, Note_on_c, 11, 61, 0
17, 16440, Note_on_c, 11, 59, 90
17, 16499, Note_on_c, 11, 59, 0
17, 16620, Note_on_c, 11, 68, 90
17, 16649, Note_on_c, 11, 68, 0
17, 16650, Note_on_c, 11, 69, 90
17, 16679, Note_on_c, 11, 69, 0
17, 16680, Note_on_c, 11, 71, 90
17, 16709, Note_on_c, 11, 71, 0
17, 16710, Note_on_c, 11, 73, 90
17, 16739, Note_on_c, 11, 73, 0
17, 16740, Note_on_c, 11, 64, 90
17, 16769, Note_on_c, 11, 64, 0
17, 16770, Note_on_c, 11, 66, 90
17, 16799, Note_on_c, 11, 66, 0
17, 16800, Note_on_c, 11, 68, 90
17, 16829, Note_on_c, 11, 68, 0
17, 16830, Note_on_c, 11, 69, 90
17, 16859, Note_on_c, 11, 69, 0
17, 16860, Note_on_c, 11, 61, 90
17, 16889, Note_on_c, 11, 61, 0
17, 16890, Note_on_c, 11, 62, 90
17, 16919, Note_on_c, 11, 62, 0
17, 16920, Note_on_c, 11, 64, 90
17, 16979, Note_on_c, 11, 64, 0
17, 16980, Note_on_c, 11, 64, 90
17, 17009, Note_on_c, 11, 64, 0
17, 17010, Note_on_c, 11, 62, 90
17, 17039, Note_on_c, 11, 62, 0
17, 17040, Note_on_c, 11, 61, 90
17, 17069, Note_on_c, 11, 61, 0
17, 17070, Note_on_c, 11, 62, 90
17, 17099, Note_on_c, 11, 62, 0
17, 17100, Note_on_c, 11, 64, 90
17, 17129, Note_on_c, 11, 64, 0
17, 17130, Note_on_c, 11, 66, 90
17, 17159, Note_on_c, 11, 66, 0
17, 17160, Note_on_c, 11, 64, 80
17, 17219, Note_on_c, 11, 64, 0
17, 17220, Note_on_c, 11, 62, 80
17, 17279, Note_on_c, 11, 62, 0
17, 17280, Note_on_c, 11, 61, 90
17, 17399, Note_on_c, 11, 61, 0
17, 17550, Note_on_c, 11, 64, 90
17, 17579, Note_on_c, 11, 64, 0
17, 17580, Note_on_c, 11, 66, 90
17, 17609, Note_on_c, 11, 66, 0
17, 17610, Note_on_c, 11, 68, 90
17, 17639, Note_on_c, 11, 68, 0
17, 17640, Note_on_c, 11, 69, 90
17, 17669, Note_on_c, 11, 69, 0
17, 17670, Note_on_c, 11, 68, 90
17, 17699, Note_on_c, 11, 68, 0
17, 17700, Note_on_c, 11, 66, 90
17, 17729, Note_on_c, 11, 66, 0
17, 17730, Note_on_c, 11, 64, 90
17, 17759, Note_on_c, 11, 64, 0
17, 17760, Note_on_c, 11, 63, 90
17, 17819, Note_on_c, 11, 63, 0
17, 17910, Note_on_c, 11, 61, 90
17, 17939, Note_on_c, 11, 61, 0
17, 17940, Note_on_c, 11, 63, 90
17, 17969, Note_on_c, 11, 63, 0
17, 17970, Note_on_c, 11, 64, 90
17, 17999, Note_on_c, 11, 64, 0
17, 18000, Note_on_c, 11, 66, 90
17, 18029, Note_on_c, 11, 66, 0
17, 18030, Note_on_c, 11, 64, 90
17, 18059, Note_on_c, 11, 64, 0
17, 18060, Note_on_c, 11, 63, 90
17, 18089, Note_on_c, 11, 63, 0
17, 18090, Note_on_c, 11, 61, 90
17, 18119, Note_on_c, 11, 61, 0
17, 18120, Note_on_c, 11, 59, 90
17, 18179, Note_on_c, 11, 59, 0
17, 18270, Note_on_c, 11, 54, 90
17, 18299, Note_on_c, 11, 54, 0
17, 18300, Note_on_c, 11, 56, 90
17, 18329, Note_on_c, 11, 56, 0
17, 18330, Note_on_c, 11, 57, 90
17, 18359, Note_on_c, 11, 57, 0
17, 18360, Note_on_c, 11, 59, 90
17, 18419, Note_on_c, 11, 59, 0
17, 18420, Note_on_c, 11, 64, 90
17, 18479, Note_on_c, 11, 64, 0
17, 18600, Note_on_c, 11, 59, 90
17, 18659, Note_on_c, 11, 59, 0
17, 18660, Note_on_c, 11, 56, 90
17, 18719, Note_on_c, 11, 56, 0
17, 18960, Note_on_c, 11, 61, 90
17, 19019, Note_on_c, 11, 61, 0
17, 19020, Note_on_c, 11, 57, 90
17, 19079, Note_on_c, 11, 57, 0
17, 19320, Note_on_c, 11, 59, 90
17, 19379, Note_on_c, 11, 59, 0
17, 19380, Note_on_c, 11, 56, 90
17, 19439, Note_on_c, 11, 56, 0
17, 19440, Note_on_c, 11, 61, 90
17, 19469, Note_on_c, 11, 61, 0
17, 19470, Note_on_c, 11, 69, 90
17, 19499, Note_on_c, 11, 69, 0
17, 19500, Note_on_c, 11, 68, 90
17, 19529, Note_on_c, 11, 68, 0
17, 19530, Note_on_c, 11, 66, 90
17, 19559, Note_on_c, 11, 66, 0
17, 19560, Note_on_c, 11, 64, 90
17, 19589, Note_on_c, 11, 64, 0
17, 19590, Note_on_c, 11, 62, 90
17, 19619, Note_on_c, 11, 62, 0
17, 19620, Note_on_c, 11, 61, 90
17, 19649, Note_on_c, 11, 61, 0
17, 19650, Note_on_c, 11, 59, 90
17, 19679, Note_on_c, 11, 59, 0
17, 19680, Note_on_c, 11, 57, 90
17, 19739, Note_on_c, 11, 57, 0
17, 19830, Note_on_c, 11, 69, 90
17, 19859, Note_on_c, 11, 69, 0
17, 19860, Note_on_c, 11, 68, 90
17, 19889, Note_on_c, 11, 68, 0
17, 19890, Note_on_c, 11, 66, 90
17, 19919, Note_on_c, 11, 66, 0
17, 19920, Note_on_c, 11, 64, 90
17, 19949, Note_on_c, 11, 64, 0
17, 19950, Note_on_c, 11, 62, 90
17, 19979, Note_on_c, 11, 62, 0
17, 19980, Note_on_c, 11, 61, 90
17, 20009, Note_on_c, 11, 61, 0
17, 20010, Note_on_c, 11, 59, 90
17, 20039, Note_on_c, 11, 59, 0
17, 20040, Note_on_c, 11, 57, 90
17, 20099, Note_on_c, 11, 57, 0
17, 20220, Note_on_c, 11, 66, 90
17, 20279, Note_on_c, 11, 66, 0
17, 20280, Note_on_c, 11, 68, 90
17, 20309, Note_on_c, 11, 68, 0
17, 20310, Note_on_c, 11, 69, 90
17, 20339, Note_on_c, 11, 69, 0
17, 20340, Note_on_c, 11, 68, 90
17, 20369, Note_on_c, 11, 68, 0
17, 20370, Note_on_c, 11, 69, 90
17, 20399, Note_on_c, 11, 69, 0
17, 20400, Note_on_c, 11, 71, 90
17, 20459, Note_on_c, 11, 71, 0
17, 20460, Note_on_c, 11, 64, 90
17, 20519, Note_on_c, 11, 64, 0
17, 20520, Note_on_c, 11, 59, 90
17, 20549, Note_on_c, 11, 59, 0
17, 20550, Note_on_c, 11, 56, 90
17, 20579, Note_on_c, 11, 56, 0
17, 20580, Note_on_c, 11, 57, 90
17, 20609, Note_on_c, 11, 57, 0
17, 20610, Note_on_c, 11, 59, 90
17, 20639, Note_on_c, 11, 59, 0
17, 20640, Note_on_c, 11, 61, 90
17, 20669, Note_on_c, 11, 61, 0
17, 20670, Note_on_c, 11, 62, 90
17, 20699, Note_on_c, 11, 62, 0
17, 20700, Note_on_c, 11, 64, 90
17, 20729, Note_on_c, 11, 64, 0
17, 20730, Note_on_c, 11, 66, 90
17, 20759, Note_on_c, 11, 66, 0
17, 20760, Note_on_c, 11, 64, 90
17, 20819, Note_on_c, 11, 64, 0
17, 20820, Note_on_c, 11, 59, 90
17, 20879, Note_on_c, 11, 59, 0
17, 20880, Note_on_c, 11, 61, 90
17, 20909, Note_on_c, 11, 61, 0
17, 20910, Note_on_c, 11, 57, 90
17, 20939, Note_on_c, 11, 57, 0
17, 20940, Note_on_c, 11, 59, 90
17, 20969, Note_on_c, 11, 59, 0
17, 20970, Note_on_c, 11, 61, 90
17, 20999, Note_on_c, 11, 61, 0
17, 21000, Note_on_c, 11, 62, 90
17, 21029, Note_on_c, 11, 62, 0
17, 21030, Note_on_c, 11, 64, 90
17, 21059, Note_on_c, 11, 64, 0
17, 21060, Note_on_c, 11, 66, 90
17, 21089, Note_on_c, 11, 66, 0
17, 21090, Note_on_c, 11, 67, 90
17, 21119, Note_on_c, 11, 67, 0
17, 21120, Note_on_c, 11, 69, 90
17, 21149, Note_on_c, 11, 69, 0
17, 21150, Note_on_c, 11, 67, 90
17, 21179, Note_on_c, 11, 67, 0
17, 21180, Note_on_c, 11, 69, 90
17, 21209, Note_on_c, 11, 69, 0
17, 21210, Note_on_c, 11, 67, 90
17, 21239, Note_on_c, 11, 67, 0
17, 21240, Note_on_c, 11, 66, 90
17, 21299, Note_on_c, 11, 66, 0
17, 21300, Note_on_c, 11, 66, 90
17, 21359, Note_on_c, 11, 66, 0
17, 21360, Note_on_c, 11, 66, 90
17, 21419, Note_on_c, 11, 66, 0
17, 21420, Note_on_c, 11, 66, 90
17, 21479, Note_on_c, 11, 66, 0
17, 21480, Note_on_c, 11, 66, 90
17, 21539, Note_on_c, 11, 66, 0
17, 21540, Note_on_c, 11, 67, 90
17, 21569, Note_on_c, 11, 67, 0
17, 21570, Note_on_c, 11, 69, 90
17, 21599, Note_on_c, 11, 69, 0
17, 21600, Note_on_c, 11, 71, 90
17, 21629, Note_on_c, 11, 71, 0
17, 21630, Note_on_c, 11, 63, 90
17, 21659, Note_on_c, 11, 63, 0
17, 21660, Note_on_c, 11, 64, 90
17, 21689, Note_on_c, 11, 64, 0
17, 21690, Note_on_c, 11, 66, 90
17, 21719, Note_on_c, 11, 66, 0
17, 21720, Note_on_c, 11, 67, 90
17, 21749, Note_on_c, 11, 67, 0
17, 21750, Note_on_c, 11, 69, 90
17, 21779, Note_on_c, 11, 69, 0
17, 21780, Note_on_c, 11, 71, 90
17, 21809, Note_on_c, 11, 71, 0
17, 21810, Note_on_c, 11, 73, 90
17, 21839, Note_on_c, 11, 73, 0
17, 21840, Note_on_c, 11, 75, 90
17, 21869, Note_on_c, 11, 75, 0
17, 21870, Note_on_c, 11, 76, 90
17, 21899, Note_on_c, 11, 76, 0
17, 21900, Note_on_c, 11, 73, 90
17, 21929, Note_on_c, 11, 73, 0
17, 21930, Note_on_c, 11, 75, 90
17, 21959, Note_on_c, 11, 75, 0
17, 21960, Note_on_c, 11, 71, 90
17, 22019, Note_on_c, 11, 71, 0
17, 22350, Note_on_c, 11, 64, 90
17, 22379, Note_on_c, 11, 64, 0
17, 22380, Note_on_c, 11, 66, 90
17, 22409, Note_on_c, 11, 66, 0
17, 22410, Note_on_c, 11, 67, 90
17, 22439, Note_on_c, 11, 67, 0
17, 22440, Note_on_c, 11, 69, 90
17, 22469, Note_on_c, 11, 69, 0
17, 22470, Note_on_c, 11, 71, 90
17, 22499, Note_on_c, 11, 71, 0
17, 22500, Note_on_c, 11, 73, 90
17, 22529, Note_on_c, 11, 73, 0
17, 22530, Note_on_c, 11, 74, 90
17, 22559, Note_on_c, 11, 74, 0
17, 22560, Note_on_c, 11, 76, 90
17, 22589, Note_on_c, 11, 76, 0
17, 22590, Note_on_c, 11, 74, 90
17, 22619, Note_on_c, 11, 74, 0
17, 22620, Note_on_c, 11, 76, 90
17, 22649, Note_on_c, 11, 76, 0
17, 22650, Note_on_c, 11, 74, 90
17, 22679, Note_on_c, 11, 74, 0
17, 22680, Note_on_c, 11, 73, 90
17, 22709, Note_on_c, 11, 73, 0
17, 22710, Note_on_c, 11, 61, 90
17, 22739, Note_on_c, 11, 61, 0
17, 22740, Note_on_c, 11, 62, 90
17, 22769, Note_on_c, 11, 62, 0
17, 22770, Note_on_c, 11, 64, 90
17, 22799, Note_on_c, 11, 64, 0
17, 22800, Note_on_c, 11, 66, 90
17, 22829, Note_on_c, 11, 66, 0
17, 22830, Note_on_c, 11, 67, 90
17, 22859, Note_on_c, 11, 67, 0
17, 22860, Note_on_c, 11, 69, 90
17, 22889, Note_on_c, 11, 69, 0
17, 22890, Note_on_c, 11, 71, 90
17, 22919, Note_on_c, 11, 71, 0
17, 22920, Note_on_c, 11, 73, 90
17, 22949, Note_on_c, 11, 73, 0
17, 22950, Note_on_c, 11, 74, 90
17, 22979, Note_on_c, 11, 74, 0
17, 22980, Note_on_c, 11, 71, 90
17, 23009, Note_on_c, 11, 71, 0
17, 23010, Note_on_c, 11, 73, 90
17, 23039, Note_on_c, 11, 73, 0
17, 23040, Note_on_c, 11, 69, 90
17, 23069, Note_on_c, 11, 69, 0
17, 23070, Note_on_c, 11, 66, 90
17, 23099, Note_on_c, 11, 66, 0
17, 23100, Note_on_c, 11, 64, 90
17, 23129, Note_on_c, 11, 64, 0
17, 23130, Note_on_c, 11, 62, 90
17, 23159, Note_on_c, 11, 62, 0
17, 23160, Note_on_c, 11, 61, 90
17, 23189, Note_on_c, 11, 61, 0
17, 23190, Note_on_c, 11, 59, 90
17, 23219, Note_on_c, 11, 59, 0
17, 23220, Note_on_c, 11, 57, 90
17, 23249, Note_on_c, 11, 57, 0
17, 23250, Note_on_c, 11, 55, 90
17, 23279, Note_on_c, 11, 55, 0
17, 23280, Note_on_c, 11, 54, 90
17, 23339, Note_on_c, 11, 54, 0
17, 23460, Note_on_c, 11, 64, 90
17, 23519, Note_on_c, 11, 64, 0
17, 23520, Note_on_c, 11, 64, 90
17, 23579, Note_on_c, 11, 64, 0
17, 23580, Note_on_c, 11, 64, 90
17, 23639, Note_on_c, 11, 64, 0
17, 23640, Note_on_c, 11, 64, 90
17, 23699, Note_on_c, 11, 64, 0
17, 23700, Note_on_c, 11, 66, 90
17, 23729, Note_on_c, 11, 66, 0
17, 23730, Note_on_c, 11, 67, 90
17, 23759, Note_on_c, 11, 67, 0
17, 23760, Note_on_c, 11, 61, 90
17, 23819, Note_on_c, 11, 61, 0
17, 23820, Note_on_c, 11, 62, 90
17, 23879, Note_on_c, 11, 62, 0
17, 23880, Note_on_c, 11, 62, 90
17, 23939, Note_on_c, 11, 62, 0
17, 23940, Note_on_c, 11, 62, 90
17, 23999, Note_on_c, 11, 62, 0
17, 24000, Note_on_c, 11, 62, 90
17, 24059, Note_on_c, 11, 62, 0
17, 24060, Note_on_c, 11, 64, 90
17, 24089, Note_on_c, 11, 64, 0
17, 24090, Note_on_c, 11, 66, 90
17, 24119, Note_on_c, 11, 66, 0
17, 24120, Note_on_c, 11, 59, 90
17, 24179, Note_on_c, 11, 59, 0
17, 24180, Note_on_c, 11, 61, 90
17, 24239, Note_on_c, 11, 61, 0
17, 24240, Note_on_c, 11, 61, 90
17, 24299, Note_on_c, 11, 61, 0
17, 24300, Note_on_c, 11, 61, 90
17, 24359, Note_on_c, 11, 61, 0
17, 24360, Note_on_c, 11, 61, 90
17, 24419, Note_on_c, 11, 61, 0
17, 24420, Note_on_c, 11, 62, 90
17, 24449, Note_on_c, 11, 62, 0
17, 24450, Note_on_c, 11, 64, 90
17, 24479, Note_on_c, 11, 64, 0
17, 24480, Note_on_c, 11, 57, 90
17, 24539, Note_on_c, 11, 57, 0
17, 24750, Note_on_c, 11, 69, 90
17, 24779, Note_on_c, 11, 69, 0
17, 24780, Note_on_c, 11, 71, 90
17, 24809, Note_on_c, 11, 71, 0
17, 24810, Note_on_c, 11, 73, 90
17, 24839, Note_on_c, 11, 73, 0
17, 24840, Note_on_c, 11, 74, 90
17, 24869, Note_on_c, 11, 74, 0
17, 24870, Note_on_c, 11, 72, 90
17, 24899, Note_on_c, 11, 72, 0
17, 24900, Note_on_c, 11, 71, 90
17, 24929, Note_on_c, 11, 71, 0
17, 24930, Note_on_c, 11, 69, 90
17, 24959, Note_on_c, 11, 69, 0
17, 24960, Note_on_c, 11, 68, 90
17, 25019, Note_on_c, 11, 68, 0
17, 25110, Note_on_c, 11, 69, 90
17, 25139, Note_on_c, 11, 69, 0
17, 25140, Note_on_c, 11, 68, 90
17, 25169, Note_on_c, 11, 68, 0
17, 25170, Note_on_c, 11, 69, 90
17, 25199, Note_on_c, 11, 69, 0
17, 25200, Note_on_c, 11, 71, 90
17, 25229, Note_on_c, 11, 71, 0
17, 25230, Note_on_c, 11, 69, 90
17, 25259, Note_on_c, 11, 69, 0
17, 25260, Note_on_c, 11, 68, 90
17, 25289, Note_on_c, 11, 68, 0
17, 25290, Note_on_c, 11, 66, 90
17, 25319, Note_on_c, 11, 66, 0
17, 25320, Note_on_c, 11, 64, 90
17, 25379, Note_on_c, 11, 64, 0
17, 25470, Note_on_c, 11, 59, 90
17, 25499, Note_on_c, 11, 59, 0
17, 25500, Note_on_c, 11, 61, 90
17, 25529, Note_on_c, 11, 61, 0
17, 25530, Note_on_c, 11, 62, 90
17, 25559, Note_on_c, 11, 62, 0
17, 25560, Note_on_c, 11, 64, 90
17, 25619, Note_on_c, 11, 64, 0
17, 25620, Note_on_c, 11, 69, 90
17, 25679, Note_on_c, 11, 69, 0
17, 25800, Note_on_c, 11, 69, 90
17, 25859, Note_on_c, 11, 69, 0
17, 25860, Note_on_c, 11, 64, 90
17, 25919, Note_on_c, 11, 64, 0
17, 26160, Note_on_c, 11, 69, 90
17, 26219, Note_on_c, 11, 69, 0
17, 26220, Note_on_c, 11, 66, 90
17, 26279, Note_on_c, 11, 66, 0
17, 26520, Note_on_c, 11, 69, 90
17, 26579, Note_on_c, 11, 69, 0
17, 26580, Note_on_c, 11, 64, 90
17, 26639, Note_on_c, 11, 64, 0
17, 26640, Note_on_c, 11, 69, 90
17, 26669, Note_on_c, 11, 69, 0
17, 26670, Note_on_c, 11, 74, 90
17, 26699, Note_on_c, 11, 74, 0
17, 26700, Note_on_c, 11, 73, 90
17, 26729, Note_on_c, 11, 73, 0
17, 26730, Note_on_c, 11, 71, 90
17, 26759, Note_on_c, 11, 71, 0
17, 26760, Note_on_c, 11, 69, 90
17, 26789, Note_on_c, 11, 69, 0
17, 26790, Note_on_c, 11, 67, 90
17, 26819, Note_on_c, 11, 67, 0
17, 26820, Note_on_c, 11, 66, 90
17, 26849, Note_on_c, 11, 66, 0
17, 26850, Note_on_c, 11, 64, 90
17, 26879, Note_on_c, 11, 64, 0
17, 26880, Note_on_c, 11, 62, 90
17, 26939, Note_on_c, 11, 62, 0
17, 27030, Note_on_c, 11, 71, 90
17, 27059, Note_on_c, 11, 71, 0
17, 27060, Note_on_c, 11, 69, 90
17, 27089, Note_on_c, 11, 69, 0
17, 27090, Note_on_c, 11, 67, 90
17, 27119, Note_on_c, 11, 67, 0
17, 27120, Note_on_c, 11, 66, 90
17, 27149, Note_on_c, 11, 66, 0
17, 27150, Note_on_c, 11, 64, 90
17, 27179, Note_on_c, 11, 64, 0
17, 27180, Note_on_c, 11, 62, 90
17, 27209, Note_on_c, 11, 62, 0
17, 27210, Note_on_c, 11, 61, 90
17, 27239, Note_on_c, 11, 61, 0
17, 27240, Note_on_c, 11, 59, 90
17, 27299, Note_on_c, 11, 59, 0
17, 27420, Note_on_c, 11, 71, 90
17, 27479, Note_on_c, 11, 71, 0
17, 27480, Note_on_c, 11, 73, 90
17, 27509, Note_on_c, 11, 73, 0
17, 27510, Note_on_c, 11, 74, 90
17, 27539, Note_on_c, 11, 74, 0
17, 27540, Note_on_c, 11, 73, 90
17, 27569, Note_on_c, 11, 73, 0
17, 27570, Note_on_c, 11, 74, 90
17, 27599, Note_on_c, 11, 74, 0
17, 27600, Note_on_c, 11, 76, 90
17, 27659, Note_on_c, 11, 76, 0
17, 27660, Note_on_c, 11, 69, 90
17, 27719, Note_on_c, 11, 69, 0
17, 27720, Note_on_c, 11, 64, 90
17, 27749, Note_on_c, 11, 64, 0
17, 27750, Note_on_c, 11, 61, 90
17, 27779, Note_on_c, 11, 61, 0
17, 27780, Note_on_c, 11, 62, 90
17, 27809, Note_on_c, 11, 62, 0
17, 27810, Note_on_c, 11, 64, 90
17, 27839, Note_on_c, 11, 64, 0
17, 27840, Note_on_c, 11, 66, 90
17, 27869, Note_on_c, 11, 66, 0
17, 27870, Note_on_c, 11, 67, 90
17, 27899, Note_on_c, 11, 67, 0
17, 27900, Note_on_c, 11, 69, 90
17, 27929, Note_on_c, 11, 69, 0
17, 27930, Note_on_c, 11, 71, 90
17, 27959, Note_on_c, 11, 71, 0
17, 27960, Note_on_c, 11, 69, 80
17, 28019, Note_on_c, 11, 69, 0
17, 28020, Note_on_c, 11, 64, 80
17, 28079, Note_on_c, 11, 64, 0
17, 28080, Note_on_c, 11, 66, 90
17, 28199, Note_on_c, 11, 66, 0
17, 28320, Note_on_c, 11, 66, 90
17, 28379, Note_on_c, 11, 66, 0
17, 28380, Note_on_c, 11, 74, 90
17, 28439, Note_on_c, 11, 74, 0
17, 28680, Note_on_c, 11, 74, 90
17, 28739, Note_on_c, 11, 74, 0
17, 28740, Note_on_c, 11, 71, 90
17, 28799, Note_on_c, 11, 71, 0
17, 29040, Note_on_c, 11, 74, 90
17, 29099, Note_on_c, 11, 74, 0
17, 29100, Note_on_c, 11, 67, 90
17, 29159, Note_on_c, 11, 67, 0
17, 29220, Note_on_c, 11, 71, 90
17, 29279, Note_on_c, 11, 71, 0
17, 29280, Note_on_c, 11, 73, 90
17, 29309, Note_on_c, 11, 73, 0
17, 29310, Note_on_c, 11, 74, 90
17, 29339, Note_on_c, 11, 74, 0
17, 29340, Note_on_c, 11, 73, 90
17, 29369, Note_on_c, 11, 73, 0
17, 29370, Note_on_c, 11, 74, 90
17, 29399, Note_on_c, 11, 74, 0
17, 29400, Note_on_c, 11, 76, 90
17, 29459, Note_on_c, 11, 76, 0
17, 29460, Note_on_c, 11, 69, 90
17, 29519, Note_on_c, 11, 69, 0
17, 29520, Note_on_c, 11, 64, 90
17, 29549, Note_on_c, 11, 64, 0
17, 29550, Note_on_c, 11, 61, 90
17, 29579, Note_on_c, 11, 61, 0
17, 29580, Note_on_c, 11, 62, 90
17, 29609, Note_on_c, 11, 62, 0
17, 29610, Note_on_c, 11, 64, 90
17, 29639, Note_on_c, 11, 64, 0
17, 29640, Note_on_c, 11, 66, 90
17, 29669, Note_on_c, 11, 66, 0
17, 29670, Note_on_c, 11, 67, 90
17, 29699, Note_on_c, 11, 67, 0
17, 29700, Note_on_c, 11, 69, 90
17, 29729, Note_on_c, 11, 69, 0
17, 29730, Note_on_c, 11, 71, 90
17, 29759, Note_on_c, 11, 71, 0
17, 29760, Note_on_c, 11, 69, 90
17, 29819, Note_on_c, 11, 69, 0
17, 29820, Note_on_c, 11, 64, 90
17, 29879, Note_on_c, 11, 64, 0
17, 29880, Note_on_c, 11, 66, 90
17, 29999, Note_on_c, 11, 66, 0
17, 30390, Note_on_c, 11, 71, 90
17, 30419, Note_on_c, 11, 71, 0
17, 30420, Note_on_c, 11, 69, 90
17, 30449, Note_on_c, 11, 69, 0
17, 30450, Note_on_c, 11, 67, 90
17, 30479, Note_on_c, 11, 67, 0
17, 30480, Note_on_c, 11, 66, 90
17, 30509, Note_on_c, 11, 66, 0
17, 30510, Note_on_c, 11, 64, 90
17, 30539, Note_on_c, 11, 64, 0
17, 30540, Note_on_c, 11, 62, 90
17, 30569, Note_on_c, 11, 62, 0
17, 30570, Note_on_c, 11, 61, 90
17, 30599, Note_on_c, 11, 61, 0
17, 30600, Note_on_c, 11, 59, 90
17, 30629, Note_on_c, 11, 59, 0
17, 30630, Note_on_c, 11, 57, 90
17, 30659, Note_on_c, 11, 57, 0
17, 30660, Note_on_c, 11, 55, 90
17, 30689, Note_on_c, 11, 55, 0
17, 30690, Note_on_c, 11, 59, 90
17, 30719, Note_on_c, 11, 59, 0
17, 30720, Note_on_c, 11, 64, 90
17, 30779, Note_on_c, 11, 64, 0
17, 30990, Note_on_c, 11, 71, 90
17, 31019, Note_on_c, 11, 71, 0
17, 31020, Note_on_c, 11, 70, 90
17, 31049, Note_on_c, 11, 70, 0
17, 31050, Note_on_c, 11, 68, 90
17, 31079, Note_on_c, 11, 68, 0
17, 31080, Note_on_c, 11, 66, 90
17, 31109, Note_on_c, 11, 66, 0
17, 31110, Note_on_c, 11, 64, 90
17, 31139, Note_on_c, 11, 64, 0
17, 31140, Note_on_c, 11, 62, 90
17, 31169, Note_on_c, 11, 62, 0
17, 31170, Note_on_c, 11, 61, 90
17, 31199, Note_on_c, 11, 61, 0
17, 31200, Note_on_c, 11, 59, 90
17, 31259, Note_on_c, 11, 59, 0
17, 32430, Note_on_c, 11, 58, 90
17, 32459, Note_on_c, 11, 58, 0
17, 32460, Note_on_c, 11, 59, 90
17, 32489, Note_on_c, 11, 59, 0
17, 32490, Note_on_c, 11, 61, 90
17, 32519, Note_on_c, 11, 61, 0
17, 32520, Note_on_c, 11, 62, 90
17, 32549, Note_on_c, 11, 62, 0
17, 32550, Note_on_c, 11, 64, 90
17, 32579, Note_on_c, 11, 64, 0
17, 32580, Note_on_c, 11, 66, 90
17, 32609, Note_on_c, 11, 66, 0
17, 32610, Note_on_c, 11, 67, 90
17, 32639, Note_on_c, 11, 67, 0
17, 32640, Note_on_c, 11, 61, 90
17, 32699, Note_on_c, 11, 61, 0
17, 32700, Note_on_c, 11, 66, 90
17, 32759, Note_on_c, 11, 66, 0
17, 32760, Note_on_c, 11, 66, 90
17, 32879, Note_on_c, 11, 66, 0
17, 33000, Note_on_c, 11, 71, 90
17, 33059, Note_on_c, 11, 71, 0
17, 33060, Note_on_c, 11, 59, 90
17, 33119, Note_on_c, 11, 59, 0
17, 33120, Note_on_c, 11, 59, 90
17, 33179, Note_on_c, 11, 59, 0
17, 33180, Note_on_c, 11, 59, 90
17, 33239, Note_on_c, 11, 59, 0
17, 33240, Note_on_c, 11, 59, 90
17, 33299, Note_on_c, 11, 59, 0
17, 33300, Note_on_c, 11, 59, 90
17, 33359, Note_on_c, 11, 59, 0
17, 33360, Note_on_c, 11, 71, 90
17, 33419, Note_on_c, 11, 71, 0
17, 33420, Note_on_c, 11, 59, 90
17, 33479, Note_on_c, 11, 59, 0
17, 33480, Note_on_c, 11, 59, 90
17, 33509, Note_on_c, 11, 59, 0
17, 33510, Note_on_c, 11, 59, 90
17, 33539, Note_on_c, 11, 59, 0
17, 33540, Note_on_c, 11, 61, 90
17, 33569, Note_on_c, 11, 61, 0
17, 33570, Note_on_c, 11, 63, 90
17, 33599, Note_on_c, 11, 63, 0
17, 33600, Note_on_c, 11, 64, 90
17, 33629, Note_on_c, 11, 64, 0
17, 33630, Note_on_c, 11, 66, 90
17, 33659, Note_on_c, 11, 66, 0
17, 33660, Note_on_c, 11, 67, 90
17, 33689, Note_on_c, 11, 67, 0
17, 33690, Note_on_c, 11, 69, 90
17, 33719, Note_on_c, 11, 69, 0
17, 33720, Note_on_c, 11, 71, 90
17, 33749, Note_on_c, 11, 71, 0
17, 33750, Note_on_c, 11, 72, 90
17, 33779, Note_on_c, 11, 72, 0
17, 33780, Note_on_c, 11, 69, 90
17, 33809, Note_on_c, 11, 69, 0
17, 33810, Note_on_c, 11, 71, 90
17, 33839, Note_on_c, 11, 71, 0
17, 33840, Note_on_c, 11, 67, 90
17, 33899, Note_on_c, 11, 67, 0
17, 33900, Note_on_c, 11, 64, 90
17, 33959, Note_on_c, 11, 64, 0
17, 33960, Note_on_c, 11, 64, 90
17, 34019, Note_on_c, 11, 64, 0
17, 34020, Note_on_c, 11, 64, 90
17, 34079, Note_on_c, 11, 64, 0
17, 34080, Note_on_c, 11, 64, 90
17, 34139, Note_on_c, 11, 64, 0
17, 34140, Note_on_c, 11, 66, 90
17, 34169, Note_on_c, 11, 66, 0
17, 34170, Note_on_c, 11, 67, 90
17, 34199, Note_on_c, 11, 67, 0
17, 34200, Note_on_c, 11, 69, 90
17, 34259, Note_on_c, 11, 69, 0
17, 34260, Note_on_c, 11, 57, 90
17, 34319, Note_on_c, 11, 57, 0
17, 34320, Note_on_c, 11, 57, 90
17, 34379, Note_on_c, 11, 57, 0
17, 34380, Note_on_c, 11, 57, 90
17, 34439, Note_on_c, 11, 57, 0
17, 34440, Note_on_c, 11, 57, 90
17, 34499, Note_on_c, 11, 57, 0
17, 34500, Note_on_c, 11, 57, 90
17, 34559, Note_on_c, 11, 57, 0
17, 34560, Note_on_c, 11, 57, 90
17, 34619, Note_on_c, 11, 57, 0
17, 34620, Note_on_c, 11, 62, 90
17, 34679, Note_on_c, 11, 62, 0
17, 34680, Note_on_c, 11, 62, 90
17, 34739, Note_on_c, 11, 62, 0
17, 34740, Note_on_c, 11, 62, 90
17, 34799, Note_on_c, 11, 62, 0
17, 34800, Note_on_c, 11, 62, 90
17, 34859, Note_on_c, 11, 62, 0
17, 34860, Note_on_c, 11, 64, 90
17, 34889, Note_on_c, 11, 64, 0
17, 34890, Note_on_c, 11, 66, 90
17, 34919, Note_on_c, 11, 66, 0
17, 34920, Note_on_c, 11, 67, 90
17, 34979, Note_on_c, 11, 67, 0
17, 34980, Note_on_c, 11, 55, 90
17, 35039, Note_on_c, 11, 55, 0
17, 35040, Note_on_c, 11, 55, 90
17, 35099, Note_on_c, 11, 55, 0
17, 35100, Note_on_c, 11, 55, 90
17, 35159, Note_on_c, 11, 55, 0
17, 35160, Note_on_c, 11, 55, 90
17, 35219, Note_on_c, 11, 55, 0
17, 35220, Note_on_c, 11, 55, 90
17, 35279, Note_on_c, 11, 55, 0
17, 35280, Note_on_c, 11, 55, 90
17, 35339, Note_on_c, 11, 55, 0
17, 35340, Note_on_c, 11, 61, 90
17, 35399, Note_on_c, 11, 61, 0
17, 35400, Note_on_c, 11, 61, 90
17, 35459, Note_on_c, 11, 61, 0
17, 35460, Note_on_c, 11, 61, 90
17, 35519, Note_on_c, 11, 61, 0
17, 35520, Note_on_c, 11, 61, 90
17, 35579, Note_on_c, 11, 61, 0
17, 35580, Note_on_c, 11, 62, 90
17, 35609, Note_on_c, 11, 62, 0
17, 35610, Note_on_c, 11, 64, 90
17, 35639, Note_on_c, 11, 64, 0
17, 35640, Note_on_c, 11, 66, 90
17, 35699, Note_on_c, 11, 66, 0
17, 35700, Note_on_c, 11, 66, 90
17, 35759, Note_on_c, 11, 66, 0
17, 35760, Note_on_c, 11, 66, 90
17, 35819, Note_on_c, 11, 66, 0
17, 35820, Note_on_c, 11, 66, 90
17, 35879, Note_on_c, 11, 66, 0
17, 35880, Note_on_c, 11, 66, 90
17, 35939, Note_on_c, 11, 66, 0
17, 35940, Note_on_c, 11, 66, 90
17, 35999, Note_on_c, 11, 66, 0
17, 36000, Note_on_c, 11, 66, 90
17, 36059, Note_on_c, 11, 66, 0
17, 36060, Note_on_c, 11, 59, 90
17, 36119, Note_on_c, 11, 59, 0
17, 36120, Note_on_c, 11, 64, 90
17, 36149, Note_on_c, 11, 64, 0
17, 36150, Note_on_c, 11, 66, 90
17, 36179, Note_on_c, 11, 66, 0
17, 36180, Note_on_c, 11, 64, 90
17, 36209, Note_on_c, 11, 64, 0
17, 36210, Note_on_c, 11, 66, 90
17, 36239, Note_on_c, 11, 66, 0
17, 36240, Note_on_c, 11, 67, 90
17, 36299, Note_on_c, 11, 67, 0
17, 36300, Note_on_c, 11, 64, 90
17, 36359, Note_on_c, 11, 64, 0
17, 36360, Note_on_c, 11, 61, 90
17, 36479, Note_on_c, 11, 61, 0
17, 36600, Note_on_c, 11, 61, 90
17, 36659, Note_on_c, 11, 61, 0
17, 36660, Note_on_c, 11, 58, 90
17, 36719, Note_on_c, 11, 58, 0
17, 36960, Note_on_c, 11, 62, 90
17, 37019, Note_on_c, 11, 62, 0
17, 37020, Note_on_c, 11, 59, 90
17, 37079, Note_on_c, 11, 59, 0
17, 37320, Note_on_c, 11, 66, 90
17, 37379, Note_on_c, 11, 66, 0
17, 37380, Note_on_c, 11, 61, 90
17, 37439, Note_on_c, 11, 61, 0
17, 37440, Note_on_c, 11, 59, 90
17, 37499, Note_on_c, 11, 59, 0
17, 37500, Note_on_c, 11, 59, 90
17, 37559, Note_on_c, 11, 59, 0
17, 37560, Note_on_c, 11, 64, 90
17, 37619, Note_on_c, 11, 64, 0
17, 37620, Note_on_c, 11, 67, 90
17, 37679, Note_on_c, 11, 67, 0
17, 37680, Note_on_c, 11, 58, 90
17, 37739, Note_on_c, 11, 58, 0
17, 37740, Note_on_c, 11, 61, 90
17, 37799, Note_on_c, 11, 61, 0
17, 37800, Note_on_c, 11, 65, 90
17, 37919, Note_on_c, 11, 65, 0
17, 37920, Note_on_c, 11, 73, 90
17, 37979, Note_on_c, 11, 73, 0
17, 37980, Note_on_c, 11, 68, 90
17, 38039, Note_on_c, 11, 68, 0
17, 38280, Note_on_c, 11, 69, 90
17, 38339, Note_on_c, 11, 69, 0
17, 38340, Note_on_c, 11, 66, 90
17, 38399, Note_on_c, 11, 66, 0
17, 38640, Note_on_c, 11, 68, 90
17, 38699, Note_on_c, 11, 68, 0
17, 38700, Note_on_c, 11, 65, 90
17, 38759, Note_on_c, 11, 65, 0
17, 39000, Note_on_c, 11, 66, 90
17, 39059, Note_on_c, 11, 66, 0
17, 39060, Note_on_c, 11, 61, 90
17, 39119, Note_on_c, 11, 61, 0
17, 39180, Note_on_c, 11, 66, 90
17, 39239, Note_on_c, 11, 66, 0
17, 39240, Note_on_c, 11, 71, 90
17, 39299, Note_on_c, 11, 71, 0
17, 39300, Note_on_c, 11, 68, 90
17, 39359, Note_on_c, 11, 68, 0
17, 39360, Note_on_c, 11, 61, 90
17, 39419, Note_on_c, 11, 61, 0
17, 39420, Note_on_c, 11, 61, 90
17, 39479, Note_on_c, 11, 61, 0
17, 39480, Note_on_c, 11, 61, 90
17, 39539, Note_on_c, 11, 61, 0
17, 39540, Note_on_c, 11, 61, 90
17, 39599, Note_on_c, 11, 61, 0
17, 39600, Note_on_c, 11, 61, 90
17, 39959, Note_on_c, 11, 61, 0
17, 40080, Note_on_c, 11, 57, 80
17, 40140, Note_on_c, 11, 57, 0
17, 40140, Note_on_c, 11, 54, 80
17, 40200, Note_on_c, 11, 54, 0
17, 40440, Note_on_c, 11, 62, 80
17, 40500, Note_on_c, 11, 62, 0
17, 40500, Note_on_c, 11, 57, 80
17, 40560, Note_on_c, 11, 57, 0
17, 40800, Note_on_c, 11, 66, 80
17, 40860, Note_on_c, 11, 66, 0
17, 40860, Note_on_c, 11, 62, 80
17, 40920, Note_on_c, 11, 62, 0
17, 41070, Note_on_c, 11, 54, 80
17, 41100, Note_on_c, 11, 54, 0
17, 41100, Note_on_c, 11, 55, 80
17, 41130, Note_on_c, 11, 55, 0
17, 41130, Note_on_c, 11, 57, 80
17, 41160, Note_on_c, 11, 57, 0
17, 41160, Note_on_c, 11, 59, 80
17, 41190, Note_on_c, 11, 59, 0
17, 41190, Note_on_c, 11, 61, 80
17, 41220, Note_on_c, 11, 61, 0
17, 41220, Note_on_c, 11, 62, 80
17, 41250, Note_on_c, 11, 62, 0
17, 41250, Note_on_c, 11, 64, 80
17, 41280, Note_on_c, 11, 64, 0
17, 41280, Note_on_c, 11, 66, 80
17, 41310, Note_on_c, 11, 66, 0
17, 41310, Note_on_c, 11, 64, 80
17, 41340, Note_on_c, 11, 64, 0
17, 41340, Note_on_c, 11, 66, 80
17, 41370, Note_on_c, 11, 66, 0
17, 41370, Note_on_c, 11, 64, 80
17, 41400, Note_on_c, 11, 64, 0
17, 41400, Note_on_c, 11, 66, 90
17, 41429, Note_on_c, 11, 66, 0
17, 41430, Note_on_c, 11, 74, 90
17, 41459, Note_on_c, 11, 74, 0
17, 41460, Note_on_c, 11, 73, 90
17, 41489, Note_on_c, 11, 73, 0
17, 41490, Note_on_c, 11, 71, 90
17, 41519, Note_on_c, 11, 71, 0
17, 41520, Note_on_c, 11, 69, 90
17, 41549, Note_on_c, 11, 69, 0
17, 41550, Note_on_c, 11, 67, 90
17, 41579, Note_on_c, 11, 67, 0
17, 41580, Note_on_c, 11, 66, 90
17, 41609, Note_on_c, 11, 66, 0
17, 41610, Note_on_c, 11, 64, 90
17, 41639, Note_on_c, 11, 64, 0
17, 41640, Note_on_c, 11, 62, 90
17, 41699, Note_on_c, 11, 62, 0
17, 41790, Note_on_c, 11, 71, 90
17, 41819, Note_on_c, 11, 71, 0
17, 41820, Note_on_c, 11, 69, 90
17, 41849, Note_on_c, 11, 69, 0
17, 41850, Note_on_c, 11, 67, 90
17, 41879, Note_on_c, 11, 67, 0
17, 41880, Note_on_c, 11, 66, 90
17, 41909, Note_on_c, 11, 66, 0
17, 41910, Note_on_c, 11, 64, 90
17, 41939, Note_on_c, 11, 64, 0
17, 41940, Note_on_c, 11, 62, 90
17, 41969, Note_on_c, 11, 62, 0
17, 41970, Note_on_c, 11, 61, 90
17, 41999, Note_on_c, 11, 61, 0
17, 42000, Note_on_c, 11, 59, 90
17, 42059, Note_on_c, 11, 59, 0
17, 42180, Note_on_c, 11, 68, 90
17, 42209, Note_on_c, 11, 68, 0
17, 42210, Note_on_c, 11, 69, 90
17, 42239, Note_on_c, 11, 69, 0
17, 42240, Note_on_c, 11, 71, 90
17, 42269, Note_on_c, 11, 71, 0
17, 42270, Note_on_c, 11, 73, 90
17, 42299, Note_on_c, 11, 73, 0
17, 42300, Note_on_c, 11, 64, 90
17, 42329, Note_on_c, 11, 64, 0
17, 42330, Note_on_c, 11, 66, 90
17, 42359, Note_on_c, 11, 66, 0
17, 42360, Note_on_c, 11, 68, 90
17, 42389, Note_on_c, 11, 68, 0
17, 42390, Note_on_c, 11, 69, 90
17, 42419, Note_on_c, 11, 69, 0
17, 42420, Note_on_c, 11, 61, 90
17, 42449, Note_on_c, 11, 61, 0
17, 42450, Note_on_c, 11, 62, 90
17, 42479, Note_on_c, 11, 62, 0
17, 42480, Note_on_c, 11, 64, 90
17, 42539, Note_on_c, 11, 64, 0
17, 42540, Note_on_c, 11, 64, 90
17, 42569, Note_on_c, 11, 64, 0
17, 42570, Note_on_c, 11, 62, 90
17, 42599, Note_on_c, 11, 62, 0
17, 42600, Note_on_c, 11, 61, 90
17, 42629, Note_on_c, 11, 61, 0
17, 42630, Note_on_c, 11, 62, 90
17, 42659, Note_on_c, 11, 62, 0
17, 42660, Note_on_c, 11, 64, 90
17, 42689, Note_on_c, 11, 64, 0
17, 42690, Note_on_c, 11, 66, 90
17, 42719, Note_on_c, 11, 66, 0
17, 42720, Note_on_c, 11, 64, 90
17, 42779, Note_on_c, 11, 64, 0
17, 42780, Note_on_c, 11, 62, 90
17, 42839, Note_on_c, 11, 62, 0
17, 42840, Note_on_c, 11, 61, 90
17, 42869, Note_on_c, 11, 61, 0
17, 42870, Note_on_c, 11, 57, 90
17, 42899, Note_on_c, 11, 57, 0
17, 42900, Note_on_c, 11, 59, 90
17, 42929, Note_on_c, 11, 59, 0
17, 42930, Note_on_c, 11, 61, 90
17, 42959, Note_on_c, 11, 61, 0
17, 42960, Note_on_c, 11, 62, 90
17, 42989, Note_on_c, 11, 62, 0
17, 42990, Note_on_c, 11, 64, 90
17, 43019, Note_on_c, 11, 64, 0
17, 43020, Note_on_c, 11, 66, 90
17, 43049, Note_on_c, 11, 66, 0
17, 43050, Note_on_c, 11, 67, 90
17, 43079, Note_on_c, 11, 67, 0
17, 43080, Note_on_c, 11, 69, 90
17, 43109, Note_on_c, 11, 69, 0
17, 43110, Note_on_c, 11, 67, 90
17, 43139, Note_on_c, 11, 67, 0
17, 43140, Note_on_c, 11, 69, 90
17, 43169, Note_on_c, 11, 69, 0
17, 43170, Note_on_c, 11, 67, 90
17, 43199, Note_on_c, 11, 67, 0
17, 43200, Note_on_c, 11, 66, 90
17, 43259, Note_on_c, 11, 66, 0
17, 43260, Note_on_c, 11, 66, 90
17, 43319, Note_on_c, 11, 66, 0
17, 43320, Note_on_c, 11, 66, 90
17, 43379, Note_on_c, 11, 66, 0
17, 43380, Note_on_c, 11, 66, 90
17, 43439, Note_on_c, 11, 66, 0
17, 43440, Note_on_c, 11, 66, 90
17, 43499, Note_on_c, 11, 66, 0
17, 43500, Note_on_c, 11, 67, 90
17, 43529, Note_on_c, 11, 67, 0
17, 43530, Note_on_c, 11, 69, 90
17, 43559, Note_on_c, 11, 69, 0
17, 43560, Note_on_c, 11, 71, 90
17, 43589, Note_on_c, 11, 71, 0
17, 43590, Note_on_c, 11, 63, 90
17, 43619, Note_on_c, 11, 63, 0
17, 43620, Note_on_c, 11, 64, 90
17, 43649, Note_on_c, 11, 64, 0
17, 43650, Note_on_c, 11, 66, 90
17, 43679, Note_on_c, 11, 66, 0
17, 43680, Note_on_c, 11, 67, 90
17, 43709, Note_on_c, 11, 67, 0
17, 43710, Note_on_c, 11, 69, 90
17, 43739, Note_on_c, 11, 69, 0
17, 43740, Note_on_c, 11, 71, 90
17, 43769, Note_on_c, 11, 71, 0
17, 43770, Note_on_c, 11, 73, 90
17, 43799, Note_on_c, 11, 73, 0
17, 43800, Note_on_c, 11, 75, 90
17, 43829, Note_on_c, 11, 75, 0
17, 43830, Note_on_c, 11, 76, 90
17, 43859, Note_on_c, 11, 76, 0
17, 43860, Note_on_c, 11, 73, 90
17, 43889, Note_on_c, 11, 73, 0
17, 43890, Note_on_c, 11, 75, 90
17, 43919, Note_on_c, 11, 75, 0
17, 43920, Note_on_c, 11, 71, 90
17, 43979, Note_on_c, 11, 71, 0
17, 44310, Note_on_c, 11, 64, 90
17, 44339, Note_on_c, 11, 64, 0
17, 44340, Note_on_c, 11, 66, 90
17, 44369, Note_on_c, 11, 66, 0
17, 44370, Note_on_c, 11, 67, 90
17, 44399, Note_on_c, 11, 67, 0
17, 44400, Note_on_c, 11, 69, 90
17, 44429, Note_on_c, 11, 69, 0
17, 44430, Note_on_c, 11, 71, 90
17, 44459, Note_on_c, 11, 71, 0
17, 44460, Note_on_c, 11, 73, 90
17, 44489, Note_on_c, 11, 73, 0
17, 44490, Note_on_c, 11, 74, 90
17, 44519, Note_on_c, 11, 74, 0
17, 44520, Note_on_c, 11, 76, 90
17, 44549, Note_on_c, 11, 76, 0
17, 44550, Note_on_c, 11, 74, 90
17, 44579, Note_on_c, 11, 74, 0
17, 44580, Note_on_c, 11, 76, 90
17, 44609, Note_on_c, 11, 76, 0
17, 44610, Note_on_c, 11, 74, 90
17, 44639, Note_on_c, 11, 74, 0
17, 44640, Note_on_c, 11, 73, 90
17, 44669, Note_on_c, 11, 73, 0
17, 44670, Note_on_c, 11, 61, 90
17, 44699, Note_on_c, 11, 61, 0
17, 44700, Note_on_c, 11, 62, 90
17, 44729, Note_on_c, 11, 62, 0
17, 44730, Note_on_c, 11, 64, 90
17, 44759, Note_on_c, 11, 64, 0
17, 44760, Note_on_c, 11, 66, 90
17, 44789, Note_on_c, 11, 66, 0
17, 44790, Note_on_c, 11, 67, 90
17, 44819, Note_on_c, 11, 67, 0
17, 44820, Note_on_c, 11, 69, 90
17, 44849, Note_on_c, 11, 69, 0
17, 44850, Note_on_c, 11, 71, 90
17, 44879, Note_on_c, 11, 71, 0
17, 44880, Note_on_c, 11, 73, 90
17, 44909, Note_on_c, 11, 73, 0
17, 44910, Note_on_c, 11, 74, 90
17, 44939, Note_on_c, 11, 74, 0
17, 44940, Note_on_c, 11, 71, 90
17, 44969, Note_on_c, 11, 71, 0
17, 44970, Note_on_c, 11, 73, 90
17, 44999, Note_on_c, 11, 73, 0
17, 45000, Note_on_c, 11, 69, 90
17, 45029, Note_on_c, 11, 69, 0
17, 45030, Note_on_c, 11, 66, 90
17, 45059, Note_on_c, 11, 66, 0
17, 45060, Note_on_c, 11, 64, 90
17, 45089, Note_on_c, 11, 64, 0
17, 45090, Note_on_c, 11, 62, 90
17, 45119, Note_on_c, 11, 62, 0
17, 45120, Note_on_c, 11, 61, 90
17, 45149, Note_on_c, 11, 61, 0
17, 45150, Note_on_c, 11, 59, 90
17, 45179, Note_on_c, 11, 59, 0
17, 45180, Note_on_c, 11, 57, 90
17, 45209, Note_on_c, 11, 57, 0
17, 45210, Note_on_c, 11, 55, 90
17, 45239, Note_on_c, 11, 55, 0
17, 45240, Note_on_c, 11, 54, 90
17, 45299, Note_on_c, 11, 54, 0
17, 45420, Note_on_c, 11, 64, 90
17, 45479, Note_on_c, 11, 64, 0
17, 45480, Note_on_c, 11, 64, 90
17, 45539, Note_on_c, 11, 64, 0
17, 45540, Note_on_c, 11, 64, 90
17, 45599, Note_on_c, 11, 64, 0
17, 45600, Note_on_c, 11, 64, 90
17, 45659, Note_on_c, 11, 64, 0
17, 45660, Note_on_c, 11, 66, 90
17, 45689, Note_on_c, 11, 66, 0
17, 45690, Note_on_c, 11, 67, 90
17, 45719, Note_on_c, 11, 67, 0
17, 45720, Note_on_c, 11, 61, 90
17, 45779, Note_on_c, 11, 61, 0
17, 45780, Note_on_c, 11, 62, 90
17, 45839, Note_on_c, 11, 62, 0
17, 45840, Note_on_c, 11, 62, 90
17, 45899, Note_on_c, 11, 62, 0
17, 45900, Note_on_c, 11, 62, 90
17, 45959, Note_on_c, 11, 62, 0
17, 45960, Note_on_c, 11, 62, 90
17, 46019, Note_on_c, 11, 62, 0
17, 46020, Note_on_c, 11, 64, 90
17, 46049, Note_on_c, 11, 64, 0
17, 46050, Note_on_c, 11, 66, 90
17, 46079, Note_on_c, 11, 66, 0
17, 46080, Note_on_c, 11, 59, 90
17, 46139, Note_on_c, 11, 59, 0
17, 46140, Note_on_c, 11, 61, 90
17, 46199, Note_on_c, 11, 61, 0
17, 46200, Note_on_c, 11, 61, 90
17, 46259, Note_on_c, 11, 61, 0
17, 46260, Note_on_c, 11, 61, 90
17, 46319, Note_on_c, 11, 61, 0
17, 46320, Note_on_c, 11, 61, 90
17, 46379, Note_on_c, 11, 61, 0
17, 46380, Note_on_c, 11, 62, 90
17, 46409, Note_on_c, 11, 62, 0
17, 46410, Note_on_c, 11, 64, 90
17, 46439, Note_on_c, 11, 64, 0
17, 46440, Note_on_c, 11, 57, 90
17, 46499, Note_on_c, 11, 57, 0
17, 46710, Note_on_c, 11, 69, 90
17, 46739, Note_on_c, 11, 69, 0
17, 46740, Note_on_c, 11, 71, 90
17, 46769, Note_on_c, 11, 71, 0
17, 46770, Note_on_c, 11, 73, 90
17, 46799, Note_on_c, 11, 73, 0
17, 46800, Note_on_c, 11, 74, 90
17, 46829, Note_on_c, 11, 74, 0
17, 46830, Note_on_c, 11, 72, 90
17, 46859, Note_on_c, 11, 72, 0
17, 46860, Note_on_c, 11, 71, 90
17, 46889, Note_on_c, 11, 71, 0
17, 46890, Note_on_c, 11, 69, 90
17, 46919, Note_on_c, 11, 69, 0
17, 46920, Note_on_c, 11, 68, 90
17, 46979, Note_on_c, 11, 68, 0
17, 47070, Note_on_c, 11, 66, 90
17, 47099, Note_on_c, 11, 66, 0
17, 47100, Note_on_c, 11, 68, 90
17, 47129, Note_on_c, 11, 68, 0
17, 47130, Note_on_c, 11, 69, 90
17, 47159, Note_on_c, 11, 69, 0
17, 47160, Note_on_c, 11, 71, 90
17, 47189, Note_on_c, 11, 71, 0
17, 47190, Note_on_c, 11, 69, 90
17, 47219, Note_on_c, 11, 69, 0
17, 47220, Note_on_c, 11, 68, 90
17, 47249, Note_on_c, 11, 68, 0
17, 47250, Note_on_c, 11, 66, 90
17, 47279, Note_on_c, 11, 66, 0
17, 47280, Note_on_c, 11, 64, 90
17, 47339, Note_on_c, 11, 64, 0
17, 47430, Note_on_c, 11, 59, 90
17, 47459, Note_on_c, 11, 59, 0
17, 47460, Note_on_c, 11, 61, 90
17, 47489, Note_on_c, 11, 61, 0
17, 47490, Note_on_c, 11, 62, 90
17, 47519, Note_on_c, 11, 62, 0
17, 47520, Note_on_c, 11, 64, 90
17, 47579, Note_on_c, 11, 64, 0
17, 47580, Note_on_c, 11, 69, 90
17, 47639, Note_on_c, 11, 69, 0
17, 47760, Note_on_c, 11, 69, 90
17, 47819, Note_on_c, 11, 69, 0
17, 47820, Note_on_c, 11, 64, 90
17, 47879, Note_on_c, 11, 64, 0
17, 48120, Note_on_c, 11, 69, 90
17, 48179, Note_on_c, 11, 69, 0
17, 48180, Note_on_c, 11, 66, 90
17, 48239, Note_on_c, 11, 66, 0
17, 48480, Note_on_c, 11, 69, 90
17, 48539, Note_on_c, 11, 69, 0
17, 48540, Note_on_c, 11, 64, 90
17, 48599, Note_on_c, 11, 64, 0
17, 48600, Note_on_c, 11, 69, 90
17, 48629, Note_on_c, 11, 69, 0
17, 48630, Note_on_c, 11, 74, 90
17, 48659, Note_on_c, 11, 74, 0
17, 48660, Note_on_c, 11, 73, 90
17, 48689, Note_on_c, 11, 73, 0
17, 48690, Note_on_c, 11, 71, 90
17, 48719, Note_on_c, 11, 71, 0
17, 48720, Note_on_c, 11, 69, 90
17, 48749, Note_on_c, 11, 69, 0
17, 48750, Note_on_c, 11, 67, 90
17, 48779, Note_on_c, 11, 67, 0
17, 48780, Note_on_c, 11, 66, 90
17, 48809, Note_on_c, 11, 66, 0
17, 48810, Note_on_c, 11, 64, 90
17, 48839, Note_on_c, 11, 64, 0
17, 48840, Note_on_c, 11, 62, 90
17, 48899, Note_on_c, 11, 62, 0
17, 48990, Note_on_c, 11, 71, 90
17, 49019, Note_on_c, 11, 71, 0
17, 49020, Note_on_c, 11, 69, 90
17, 49049, Note_on_c, 11, 69, 0
17, 49050, Note_on_c, 11, 67, 90
17, 49079, Note_on_c, 11, 67, 0
17, 49080, Note_on_c, 11, 66, 90
17, 49109, Note_on_c, 11, 66, 0
17, 49110, Note_on_c, 11, 64, 90
17, 49139, Note_on_c, 11, 64, 0
17, 49140, Note_on_c, 11, 62, 90
17, 49169, Note_on_c, 11, 62, 0
17, 49170, Note_on_c, 11, 61, 90
17, 49199, Note_on_c, 11, 61, 0
17, 49200, Note_on_c, 11, 59, 90
17, 49259, Note_on_c, 11, 59, 0
17, 49380, Note_on_c, 11, 71, 90
17, 49439, Note_on_c, 11, 71, 0
17, 49440, Note_on_c, 11, 73, 90
17, 49469, Note_on_c, 11, 73, 0
17, 49470, Note_on_c, 11, 74, 90
17, 49499, Note_on_c, 11, 74, 0
17, 49500, Note_on_c, 11, 73, 90
17, 49529, Note_on_c, 11, 73, 0
17, 49530, Note_on_c, 11, 74, 90
17, 49559, Note_on_c, 11, 74, 0
17, 49560, Note_on_c, 11, 76, 90
17, 49619, Note_on_c, 11, 76, 0
17, 49620, Note_on_c, 11, 69, 90
17, 49679, Note_on_c, 11, 69, 0
17, 49680, Note_on_c, 11, 64, 90
17, 49709, Note_on_c, 11, 64, 0
17, 49710, Note_on_c, 11, 61, 90
17, 49739, Note_on_c, 11, 61, 0
17, 49740, Note_on_c, 11, 62, 90
17, 49769, Note_on_c, 11, 62, 0
17, 49770, Note_on_c, 11, 64, 90
17, 49799, Note_on_c, 11, 64, 0
17, 49800, Note_on_c, 11, 66, 90
17, 49829, Note_on_c, 11, 66, 0
17, 49830, Note_on_c, 11, 67, 90
17, 49859, Note_on_c, 11, 67, 0
17, 49860, Note_on_c, 11, 69, 90
17, 49889, Note_on_c, 11, 69, 0
17, 49890, Note_on_c, 11, 71, 90
17, 49919, Note_on_c, 11, 71, 0
17, 49920, Note_on_c, 11, 69, 90
17, 49979, Note_on_c, 11, 69, 0
17, 49980, Note_on_c, 11, 64, 90
17, 50039, Note_on_c, 11, 64, 0
17, 50040, Note_on_c, 11, 66, 90
17, 50159, Note_on_c, 11, 66, 0
17, 50280, Note_on_c, 11, 74, 90
17, 50339, Note_on_c, 11, 74, 0
17, 50340, Note_on_c, 11, 69, 90
17, 50399, Note_on_c, 11, 69, 0
17, 50640, Note_on_c, 11, 62, 90
17, 50699, Note_on_c, 11, 62, 0
17, 50700, Note_on_c, 11, 59, 90
17, 50759, Note_on_c, 11, 59, 0
17, 51000, Note_on_c, 11, 69, 90
17, 51059, Note_on_c, 11, 69, 0
17, 51060, Note_on_c, 11, 66, 90
17, 51119, Note_on_c, 11, 66, 0
17, 51360, Note_on_c, 11, 59, 90
17, 51419, Note_on_c, 11, 59, 0
17, 51420, Note_on_c, 11, 55, 90
17, 51479, Note_on_c, 11, 55, 0
17, 51540, Note_on_c, 11, 66, 90
17, 51569, Note_on_c, 11, 66, 0
17, 51570, Note_on_c, 11, 64, 90
17, 51599, Note_on_c, 11, 64, 0
17, 51600, Note_on_c, 11, 62, 90
17, 51659, Note_on_c, 11, 62, 0
17, 51660, Note_on_c, 11, 57, 90
17, 51719, Note_on_c, 11, 57, 0
17, 51720, Note_on_c, 11, 69, 90
17, 51779, Note_on_c, 11, 69, 0
17, 51780, Note_on_c, 11, 69, 90
17, 51839, Note_on_c, 11, 69, 0
17, 51840, Note_on_c, 11, 69, 90
17, 51959, Note_on_c, 11, 69, 0
17, 52080, Note_on_c, 11, 69, 90
17, 52139, Note_on_c, 11, 69, 0
17, 52140, Note_on_c, 11, 64, 90
17, 52199, Note_on_c, 11, 64, 0
17, 52440, Note_on_c, 11, 69, 90
17, 52499, Note_on_c, 11, 69, 0
17, 52500, Note_on_c, 11, 66, 90
17, 52559, Note_on_c, 11, 66, 0
17, 52800, Note_on_c, 11, 69, 90
17, 52859, Note_on_c, 11, 69, 0
17, 52860, Note_on_c, 11, 64, 90
17, 52919, Note_on_c, 11, 64, 0
17, 52920, Note_on_c, 11, 69, 90
17, 52949, Note_on_c, 11, 69, 0
17, 52950, Note_on_c, 11, 74, 90
17, 52979, Note_on_c, 11, 74, 0
17, 52980, Note_on_c, 11, 73, 90
17, 53009, Note_on_c, 11, 73, 0
17, 53010, Note_on_c, 11, 71, 90
17, 53039, Note_on_c, 11, 71, 0
17, 53040, Note_on_c, 11, 69, 90
17, 53069, Note_on_c, 11, 69, 0
17, 53070, Note_on_c, 11, 67, 90
17, 53099, Note_on_c, 11, 67, 0
17, 53100, Note_on_c, 11, 66, 90
17, 53129, Note_on_c, 11, 66, 0
17, 53130, Note_on_c, 11, 64, 90
17, 53159, Note_on_c, 11, 64, 0
17, 53160, Note_on_c, 11, 62, 90
17, 53219, Note_on_c, 11, 62, 0
17, 53310, Note_on_c, 11, 71, 90
17, 53339, Note_on_c, 11, 71, 0
17, 53340, Note_on_c, 11, 69, 90
17, 53369, Note_on_c, 11, 69, 0
17, 53370, Note_on_c, 11, 67, 90
17, 53399, Note_on_c, 11, 67, 0
17, 53400, Note_on_c, 11, 66, 90
17, 53429, Note_on_c, 11, 66, 0
17, 53430, Note_on_c, 11, 64, 90
17, 53459, Note_on_c, 11, 64, 0
17, 53460, Note_on_c, 11, 62, 90
17, 53489, Note_on_c, 11, 62, 0
17, 53490, Note_on_c, 11, 61, 90
17, 53519, Note_on_c, 11, 61, 0
17, 53520, Note_on_c, 11, 59, 90
17, 53579, Note_on_c, 11, 59, 0
17, 53700, Note_on_c, 11, 71, 90
17, 53759, Note_on_c, 11, 71, 0
17, 53760, Note_on_c, 11, 73, 90
17, 53789, Note_on_c, 11, 73, 0
17, 53790, Note_on_c, 11, 74, 90
17, 53819, Note_on_c, 11, 74, 0
17, 53820, Note_on_c, 11, 73, 90
17, 53849, Note_on_c, 11, 73, 0
17, 53850, Note_on_c, 11, 74, 90
17, 53879, Note_on_c, 11, 74, 0
17, 53880, Note_on_c, 11, 76, 90
17, 53939, Note_on_c, 11, 76, 0
17, 53940, Note_on_c, 11, 69, 90
17, 53999, Note_on_c, 11, 69, 0
17, 54000, Note_on_c, 11, 64, 90
17, 54029, Note_on_c, 11, 64, 0
17, 54030, Note_on_c, 11, 61, 90
17, 54059, Note_on_c, 11, 61, 0
17, 54060, Note_on_c, 11, 62, 90
17, 54089, Note_on_c, 11, 62, 0
17, 54090, Note_on_c, 11, 64, 90
17, 54119, Note_on_c, 11, 64, 0
17, 54120, Note_on_c, 11, 66, 90
17, 54149, Note_on_c, 11, 66, 0
17, 54150, Note_on_c, 11, 67, 90
17, 54179, Note_on_c, 11, 67, 0
17, 54180, Note_on_c, 11, 69, 90
17, 54209, Note_on_c, 11, 69, 0
17, 54210, Note_on_c, 11, 71, 90
17, 54239, Note_on_c, 11, 71, 0
17, 54240, Note_on_c, 11, 69, 90
17, 54299, Note_on_c, 11, 69, 0
17, 54300, Note_on_c, 11, 64, 90
17, 54359, Note_on_c, 11, 64, 0
17, 54360, Note_on_c, 11, 66, 90
17, 54479, Note_on_c, 11, 66, 0
17, 54600, Note_on_c, 11, 57, 90
17, 54659, Note_on_c, 11, 57, 0
17, 54660, Note_on_c, 11, 54, 90
17, 54719, Note_on_c, 11, 54, 0
17, 54960, Note_on_c, 11, 62, 90
17, 55019, Note_on_c, 11, 62, 0
17, 55020, Note_on_c, 11, 57, 90
17, 55079, Note_on_c, 11, 57, 0
17, 55320, Note_on_c, 11, 66, 90
17, 55379, Note_on_c, 11, 66, 0
17, 55380, Note_on_c, 11, 62, 90
17, 55439, Note_on_c, 11, 62, 0
17, 55470, Note_on_c, 11, 54, 90
17, 55499, Note_on_c, 11, 54, 0
17, 55500, Note_on_c, 11, 55, 90
17, 55529, Note_on_c, 11, 55, 0
17, 55530, Note_on_c, 11, 57, 90
17, 55559, Note_on_c, 11, 57, 0
17, 55560, Note_on_c, 11, 59, 90
17, 55589, Note_on_c, 11, 59, 0
17, 55590, Note_on_c, 11, 61, 90
17, 55619, Note_on_c, 11, 61, 0
17, 55620, Note_on_c, 11, 62, 90
17, 55649, Note_on_c, 11, 62, 0
17, 55650, Note_on_c, 11, 64, 90
17, 55679, Note_on_c, 11, 64, 0
17, 55680, Note_on_c, 11, 66, 90
17, 55709, Note_on_c, 11, 66, 0
17, 55710, Note_on_c, 11, 64, 90
17, 55739, Note_on_c, 11, 64, 0
17, 55740, Note_on_c, 11, 66, 90
17, 55769, Note_on_c, 11, 66, 0
17, 55770, Note_on_c, 11, 64, 90
17, 55799, Note_on_c, 11, 64, 0
17, 55800, Note_on_c, 11, 66, 90
17, 55829, Note_on_c, 11, 66, 0
17, 55830, Note_on_c, 11, 69, 90
17, 55859, Note_on_c, 11, 69, 0
17, 55860, Note_on_c, 11, 67, 90
17, 55889, Note_on_c, 11, 67, 0
17, 55890, Note_on_c, 11, 66, 90
17, 55919, Note_on_c, 11, 66, 0
17, 55920, Note_on_c, 11, 64, 90
17, 55949, Note_on_c, 11, 64, 0
17, 55950, Note_on_c, 11, 62, 90
17, 55979, Note_on_c, 11, 62, 0
17, 55980, Note_on_c, 11, 61, 90
17, 56009, Note_on_c, 11, 61, 0
17, 56010, Note_on_c, 11, 59, 90
17, 56039, Note_on_c, 11, 59, 0
17, 56040, Note_on_c, 11, 57, 90
17, 56099, Note_on_c, 11, 57, 0
17, 56190, Note_on_c, 11, 71, 90
17, 56219, Note_on_c, 11, 71, 0
17, 56220, Note_on_c, 11, 69, 90
17, 56249, Note_on_c, 11, 69, 0
17, 56250, Note_on_c, 11, 67, 90
17, 56279, Note_on_c, 11, 67, 0
17, 56280, Note_on_c, 11, 66, 90
17, 56309, Note_on_c, 11, 66, 0
17, 56310, Note_on_c, 11, 64, 90
17, 56339, Note_on_c, 11, 64, 0
17, 56340, Note_on_c, 11, 62, 90
17, 56369, Note_on_c, 11, 62, 0
17, 56370, Note_on_c, 11, 61, 90
17, 56399, Note_on_c, 11, 61, 0
17, 56400, Note_on_c, 11, 59, 90
17, 56459, Note_on_c, 11, 59, 0
17, 56580, Note_on_c, 11, 68, 90
17, 56609, Note_on_c, 11, 68, 0
17, 56610, Note_on_c, 11, 69, 90
17, 56639, Note_on_c, 11, 69, 0
17, 56640, Note_on_c, 11, 71, 90
17, 56669, Note_on_c, 11, 71, 0
17, 56670, Note_on_c, 11, 73, 90
17, 56699, Note_on_c, 11, 73, 0
17, 56700, Note_on_c, 11, 64, 90
17, 56729, Note_on_c, 11, 64, 0
17, 56730, Note_on_c, 11, 66, 90
17, 56759, Note_on_c, 11, 66, 0
17, 56760, Note_on_c, 11, 68, 90
17, 56789, Note_on_c, 11, 68, 0
17, 56790, Note_on_c, 11, 69, 90
17, 56819, Note_on_c, 11, 69, 0
17, 56820, Note_on_c, 11, 61, 90
17, 56849, Note_on_c, 11, 61, 0
17, 56850, Note_on_c, 11, 62, 90
17, 56879, Note_on_c, 11, 62, 0
17, 56880, Note_on_c, 11, 64, 90
17, 56939, Note_on_c, 11, 64, 0
17, 56940, Note_on_c, 11, 64, 90
17, 56969, Note_on_c, 11, 64, 0
17, 56970, Note_on_c, 11, 62, 90
17, 56999, Note_on_c, 11, 62, 0
17, 57000, Note_on_c, 11, 61, 90
17, 57029, Note_on_c, 11, 61, 0
17, 57030, Note_on_c, 11, 62, 90
17, 57059, Note_on_c, 11, 62, 0
17, 57060, Note_on_c, 11, 64, 90
17, 57089, Note_on_c, 11, 64, 0
17, 57090, Note_on_c, 11, 66, 90
17, 57119, Note_on_c, 11, 66, 0
17, 57120, Note_on_c, 11, 64, 80
17, 57179, Note_on_c, 11, 64, 0
17, 57180, Note_on_c, 11, 62, 80
17, 57239, Note_on_c, 11, 62, 0
17, 57240, Note_on_c, 11, 61, 90
17, 57359, Note_on_c, 11, 61, 0
17, 57510, Note_on_c, 11, 64, 90
17, 57539, Note_on_c, 11, 64, 0
17, 57540, Note_on_c, 11, 66, 90
17, 57569, Note_on_c, 11, 66, 0
17, 57570, Note_on_c, 11, 68, 90
17, 57599, Note_on_c, 11, 68, 0
17, 57600, Note_on_c, 11, 69, 90
17, 57629, Note_on_c, 11, 69, 0
17, 57630, Note_on_c, 11, 68, 90
17, 57659, Note_on_c, 11, 68, 0
17, 57660, Note_on_c, 11, 66, 90
17, 57689, Note_on_c, 11, 66, 0
17, 57690, Note_on_c, 11, 64, 90
17, 57719, Note_on_c, 11, 64, 0
17, 57720, Note_on_c, 11, 63, 90
17, 57779, Note_on_c, 11, 63, 0
17, 57870, Note_on_c, 11, 61, 90
17, 57899, Note_on_c, 11, 61, 0
17, 57900, Note_on_c, 11, 63, 90
17, 57929, Note_on_c, 11, 63, 0
17, 57930, Note_on_c, 11, 64, 90
17, 57959, Note_on_c, 11, 64, 0
17, 57960, Note_on_c, 11, 66, 90
17, 57989, Note_on_c, 11, 66, 0
17, 57990, Note_on_c, 11, 64, 90
17, 58019, Note_on_c, 11, 64, 0
17, 58020, Note_on_c, 11, 63, 90
17, 58049, Note_on_c, 11, 63, 0
17, 58050, Note_on_c, 11, 61, 90
17, 58079, Note_on_c, 11, 61, 0
17, 58080, Note_on_c, 11, 59, 90
17, 58139, Note_on_c, 11, 59, 0
17, 58230, Note_on_c, 11, 54, 90
17, 58259, Note_on_c, 11, 54, 0
17, 58260, Note_on_c, 11, 56, 90
17, 58289, Note_on_c, 11, 56, 0
17, 58290, Note_on_c, 11, 57, 90
17, 58319, Note_on_c, 11, 57, 0
17, 58320, Note_on_c, 11, 59, 90
17, 58379, Note_on_c, 11, 59, 0
17, 58380, Note_on_c, 11, 64, 90
17, 58439, Note_on_c, 11, 64, 0
17, 58560, Note_on_c, 11, 59, 90
17, 58619, Note_on_c, 11, 59, 0
17, 58620, Note_on_c, 11, 56, 90
17, 58679, Note_on_c, 11, 56, 0
17, 58920, Note_on_c, 11, 61, 90
17, 58979, Note_on_c, 11, 61, 0
17, 58980, Note_on_c, 11, 57, 90
17, 59039, Note_on_c, 11, 57, 0
17, 59280, Note_on_c, 11, 59, 90
17, 59339, Note_on_c, 11, 59, 0
17, 59340, Note_on_c, 11, 56, 90
17, 59399, Note_on_c, 11, 56, 0
17, 59400, Note_on_c, 11, 61, 90
17, 59429, Note_on_c, 11, 61, 0
17, 59430, Note_on_c, 11, 69, 90
17, 59459, Note_on_c, 11, 69, 0
17, 59460, Note_on_c, 11, 68, 90
17, 59489, Note_on_c, 11, 68, 0
17, 59490, Note_on_c, 11, 66, 90
17, 59519, Note_on_c, 11, 66, 0
17, 59520, Note_on_c, 11, 64, 90
17, 59549, Note_on_c, 11, 64, 0
17, 59550, Note_on_c, 11, 62, 90
17, 59579, Note_on_c, 11, 62, 0
17, 59580, Note_on_c, 11, 61, 90
17, 59609, Note_on_c, 11, 61, 0
17, 59610, Note_on_c, 11, 59, 90
17, 59639, Note_on_c, 11, 59, 0
17, 59640, Note_on_c, 11, 57, 90
17, 59699, Note_on_c, 11, 57, 0
17, 59790, Note_on_c, 11, 69, 90
17, 59819, Note_on_c, 11, 69, 0
17, 59820, Note_on_c, 11, 68, 90
17, 59849, Note_on_c, 11, 68, 0
17, 59850, Note_on_c, 11, 66, 90
17, 59879, Note_on_c, 11, 66, 0
17, 59880, Note_on_c, 11, 64, 90
17, 59909, Note_on_c, 11, 64, 0
17, 59910, Note_on_c, 11, 62, 90
17, 59939, Note_on_c, 11, 62, 0
17, 59940, Note_on_c, 11, 61, 90
17, 59969, Note_on_c, 11, 61, 0
17, 59970, Note_on_c, 11, 59, 90
17, 59999, Note_on_c, 11, 59, 0
17, 60000, Note_on_c, 11, 57, 90
17, 60059, Note_on_c, 11, 57, 0
17, 60180, Note_on_c, 11, 66, 90
17, 60239, Note_on_c, 11, 66, 0
17, 60240, Note_on_c, 11, 68, 90
17, 60269, Note_on_c, 11, 68, 0
17, 60270, Note_on_c, 11, 69, 90
17, 60299, Note_on_c, 11, 69, 0
17, 60300, Note_on_c, 11, 68, 90
17, 60329, Note_on_c, 11, 68, 0
17, 60330, Note_on_c, 11, 69, 90
17, 60359, Note_on_c, 11, 69, 0
17, 60360, Note_on_c, 11, 71, 90
17, 60419, Note_on_c, 11, 71, 0
17, 60420, Note_on_c, 11, 64, 90
17, 60479, Note_on_c, 11, 64, 0
17, 60480, Note_on_c, 11, 59, 90
17, 60509, Note_on_c, 11, 59, 0
17, 60510, Note_on_c, 11, 56, 90
17, 60539, Note_on_c, 11, 56, 0
17, 60540, Note_on_c, 11, 57, 90
17, 60569, Note_on_c, 11, 57, 0
17, 60570, Note_on_c, 11, 59, 90
17, 60599, Note_on_c, 11, 59, 0
17, 60600, Note_on_c, 11, 61, 90
17, 60629, Note_on_c, 11, 61, 0
17, 60630, Note_on_c, 11, 62, 90
17, 60659, Note_on_c, 11, 62, 0
17, 60660, Note_on_c, 11, 64, 90
17, 60689, Note_on_c, 11, 64, 0
17, 60690, Note_on_c, 11, 66, 90
17, 60719, Note_on_c, 11, 66, 0
17, 60720, Note_on_c, 11, 64, 90
17, 60779, Note_on_c, 11, 64, 0
17, 60780, Note_on_c, 11, 59, 90
17, 60839, Note_on_c, 11, 59, 0
17, 60840, Note_on_c, 11, 61, 90
17, 60869, Note_on_c, 11, 61, 0
17, 60870, Note_on_c, 11, 57, 90
17, 60899, Note_on_c, 11, 57, 0
17, 60900, Note_on_c, 11, 59, 90
17, 60929, Note_on_c, 11, 59, 0
17, 60930, Note_on_c, 11, 61, 90
17, 60959, Note_on_c, 11, 61, 0
17, 60960, Note_on_c, 11, 62, 90
17, 60989, Note_on_c, 11, 62, 0
17, 60990, Note_on_c, 11, 64, 90
17, 61019, Note_on_c, 11, 64, 0
17, 61020, Note_on_c, 11, 66, 90
17, 61049, Note_on_c, 11, 66, 0
17, 61050, Note_on_c, 11, 67, 90
17, 61079, Note_on_c, 11, 67, 0
17, 61080, Note_on_c, 11, 69, 90
17, 61109, Note_on_c, 11, 69, 0
17, 61110, Note_on_c, 11, 67, 90
17, 61139, Note_on_c, 11, 67, 0
17, 61140, Note_on_c, 11, 69, 90
17, 61169, Note_on_c, 11, 69, 0
17, 61170, Note_on_c, 11, 67, 90
17, 61199, Note_on_c, 11, 67, 0
17, 61200, Note_on_c, 11, 66, 90
17, 61259, Note_on_c, 11, 66, 0
17, 61260, Note_on_c, 11, 66, 90
17, 61319, Note_on_c, 11, 66, 0
17, 61320, Note_on_c, 11, 66, 90
17, 61379, Note_on_c, 11, 66, 0
17, 61380, Note_on_c, 11, 66, 90
17, 61439, Note_on_c, 11, 66, 0
17, 61440, Note_on_c, 11, 66, 90
17, 61499, Note_on_c, 11, 66, 0
17, 61500, Note_on_c, 11, 67, 90
17, 61529, Note_on_c, 11, 67, 0
17, 61530, Note_on_c, 11, 69, 90
17, 61559, Note_on_c, 11, 69, 0
17, 61560, Note_on_c, 11, 71, 90
17, 61589, Note_on_c, 11, 71, 0
17, 61590, Note_on_c, 11, 63, 90
17, 61619, Note_on_c, 11, 63, 0
17, 61620, Note_on_c, 11, 64, 90
17, 61649, Note_on_c, 11, 64, 0
17, 61650, Note_on_c, 11, 66, 90
17, 61679, Note_on_c, 11, 66, 0
17, 61680, Note_on_c, 11, 67, 90
17, 61709, Note_on_c, 11, 67, 0
17, 61710, Note_on_c, 11, 69, 90
17, 61739, Note_on_c, 11, 69, 0
17, 61740, Note_on_c, 11, 71, 90
17, 61769, Note_on_c, 11, 71, 0
17, 61770, Note_on_c, 11, 73, 90
17, 61799, Note_on_c, 11, 73, 0
17, 61800, Note_on_c, 11, 75, 90
17, 61829, Note_on_c, 11, 75, 0
17, 61830, Note_on_c, 11, 76, 90
17, 61859, Note_on_c, 11, 76, 0
17, 61860, Note_on_c, 11, 73, 90
17, 61889, Note_on_c, 11, 73, 0
17, 61890, Note_on_c, 11, 75, 90
17, 61919, Note_on_c, 11, 75, 0
17, 61920, Note_on_c, 11, 71, 90
17, 61979, Note_on_c, 11, 71, 0
17, 62310, Note_on_c, 11, 64, 90
17, 62339, Note_on_c, 11, 64, 0
17, 62340, Note_on_c, 11, 66, 90
17, 62369, Note_on_c, 11, 66, 0
17, 62370, Note_on_c, 11, 67, 90
17, 62399, Note_on_c, 11, 67, 0
17, 62400, Note_on_c, 11, 69, 90
17, 62429, Note_on_c, 11, 69, 0
17, 62430, Note_on_c, 11, 71, 90
17, 62459, Note_on_c, 11, 71, 0
17, 62460, Note_on_c, 11, 73, 90
17, 62489, Note_on_c, 11, 73, 0
17, 62490, Note_on_c, 11, 74, 90
17, 62519, Note_on_c, 11, 74, 0
17, 62520, Note_on_c, 11, 76, 90
17, 62549, Note_on_c, 11, 76, 0
17, 62550, Note_on_c, 11, 74, 90
17, 62579, Note_on_c, 11, 74, 0
17, 62580, Note_on_c, 11, 76, 90
17, 62609, Note_on_c, 11, 76, 0
17, 62610, Note_on_c, 11, 74, 90
17, 62639, Note_on_c, 11, 74, 0
17, 62640, Note_on_c, 11, 73, 90
17, 62669, Note_on_c, 11, 73, 0
17, 62670, Note_on_c, 11, 61, 90
17, 62699, Note_on_c, 11, 61, 0
17, 62700, Note_on_c, 11, 62, 90
17, 62729, Note_on_c, 11, 62, 0
17, 62730, Note_on_c, 11, 64, 90
17, 62759, Note_on_c, 11, 64, 0
17, 62760, Note_on_c, 11, 66, 90
17, 62789, Note_on_c, 11, 66, 0
17, 62790, Note_on_c, 11, 67, 90
17, 62819, Note_on_c, 11, 67, 0
17, 62820, Note_on_c, 11, 69, 90
17, 62849, Note_on_c, 11, 69, 0
17, 62850, Note_on_c, 11, 71, 90
17, 62879, Note_on_c, 11, 71, 0
17, 62880, Note_on_c, 11, 73, 90
17, 62909, Note_on_c, 11, 73, 0
17, 62910, Note_on_c, 11, 74, 90
17, 62939, Note_on_c, 11, 74, 0
17, 62940, Note_on_c, 11, 71, 90
17, 62969, Note_on_c, 11, 71, 0
17, 62970, Note_on_c, 11, 73, 90
17, 62999, Note_on_c, 11, 73, 0
17, 63000, Note_on_c, 11, 69, 90
17, 63029, Note_on_c, 11, 69, 0
17, 63030, Note_on_c, 11, 66, 90
17, 63059, Note_on_c, 11, 66, 0
17, 63060, Note_on_c, 11, 64, 90
17, 63089, Note_on_c, 11, 64, 0
17, 63090, Note_on_c, 11, 62, 90
17, 63119, Note_on_c, 11, 62, 0
17, 63120, Note_on_c, 11, 61, 90
17, 63149, Note_on_c, 11, 61, 0
17, 63150, Note_on_c, 11, 59, 90
17, 63179, Note_on_c, 11, 59, 0
17, 63180, Note_on_c, 11, 57, 90
17, 63209, Note_on_c, 11, 57, 0
17, 63210, Note_on_c, 11, 55, 90
17, 63239, Note_on_c, 11, 55, 0
17, 63240, Note_on_c, 11, 54, 90
17, 63299, Note_on_c, 11, 54, 0
17, 63420, Note_on_c, 11, 64, 90
17, 63479, Note_on_c, 11, 64, 0
17, 63480, Note_on_c, 11, 64, 90
17, 63539, Note_on_c, 11, 64, 0
17, 63540, Note_on_c, 11, 64, 90
17, 63599, Note_on_c, 11, 64, 0
17, 63600, Note_on_c, 11, 64, 90
17, 63659, Note_on_c, 11, 64, 0
17, 63660, Note_on_c, 11, 66, 90
17, 63689, Note_on_c, 11, 66, 0
17, 63690, Note_on_c, 11, 67, 90
17, 63719, Note_on_c, 11, 67, 0
17, 63720, Note_on_c, 11, 61, 90
17, 63779, Note_on_c, 11, 61, 0
17, 63780, Note_on_c, 11, 62, 90
17, 63839, Note_on_c, 11, 62, 0
17, 63840, Note_on_c, 11, 62, 90
17, 63899, Note_on_c, 11, 62, 0
17, 63900, Note_on_c, 11, 62, 90
17, 63959, Note_on_c, 11, 62, 0
17, 63960, Note_on_c, 11, 62, 90
17, 64019, Note_on_c, 11, 62, 0
17, 64020, Note_on_c, 11, 64, 90
17, 64049, Note_on_c, 11, 64, 0
17, 64050, Note_on_c, 11, 66, 90
17, 64079, Note_on_c, 11, 66, 0
17, 64080, Note_on_c, 11, 59, 90
17, 64139, Note_on_c, 11, 59, 0
17, 64140, Note_on_c, 11, 61, 90
17, 64199, Note_on_c, 11, 61, 0
17, 64200, Note_on_c, 11, 61, 90
17, 64259, Note_on_c, 11, 61, 0
17, 64260, Note_on_c, 11, 61, 90
17, 64319, Note_on_c, 11, 61, 0
17, 64320, Note_on_c, 11, 61, 90
17, 64379, Note_on_c, 11, 61, 0
17, 64380, Note_on_c, 11, 62, 90
17, 64409, Note_on_c, 11, 62, 0
17, 64410, Note_on_c, 11, 64, 90
17, 64439, Note_on_c, 11, 64, 0
17, 64440, Note_on_c, 11, 57, 90
17, 64499, Note_on_c, 11, 57, 0
17, 64710, Note_on_c, 11, 69, 90
17, 64739, Note_on_c, 11, 69, 0
17, 64740, Note_on_c, 11, 71, 90
17, 64769, Note_on_c, 11, 71, 0
17, 64770, Note_on_c, 11, 73, 90
17, 64799, Note_on_c, 11, 73, 0
17, 64800, Note_on_c, 11, 74, 90
17, 64829, Note_on_c, 11, 74, 0
17, 64830, Note_on_c, 11, 72, 90
17, 64859, Note_on_c, 11, 72, 0
17, 64860, Note_on_c, 11, 71, 90
17, 64889, Note_on_c, 11, 71, 0
17, 64890, Note_on_c, 11, 69, 90
17, 64919, Note_on_c, 11, 69, 0
17, 64920, Note_on_c, 11, 68, 90
17, 64979, Note_on_c, 11, 68, 0
17, 65070, Note_on_c, 11, 69, 90
17, 65099, Note_on_c, 11, 69, 0
17, 65100, Note_on_c, 11, 68, 90
17, 65129, Note_on_c, 11, 68, 0
17, 65130, Note_on_c, 11, 69, 90
17, 65159, Note_on_c, 11, 69, 0
17, 65160, Note_on_c, 11, 71, 90
17, 65189, Note_on_c, 11, 71, 0
17, 65190, Note_on_c, 11, 69, 90
17, 65219, Note_on_c, 11, 69, 0
17, 65220, Note_on_c, 11, 68, 90
17, 65249, Note_on_c, 11, 68, 0
17, 65250, Note_on_c, 11, 66, 90
17, 65279, Note_on_c, 11, 66, 0
17, 65280, Note_on_c, 11, 64, 90
17, 65339, Note_on_c, 11, 64, 0
17, 65430, Note_on_c, 11, 59, 90
17, 65459, Note_on_c, 11, 59, 0
17, 65460, Note_on_c, 11, 61, 90
17, 65489, Note_on_c, 11, 61, 0
17, 65490, Note_on_c, 11, 62, 90
17, 65519, Note_on_c, 11, 62, 0
17, 65520, Note_on_c, 11, 64, 90
17, 65579, Note_on_c, 11, 64, 0
17, 65580, Note_on_c, 11, 69, 90
17, 65639, Note_on_c, 11, 69, 0
17, 65760, Note_on_c, 11, 69, 90
17, 65819, Note_on_c, 11, 69, 0
17, 65820, Note_on_c, 11, 64, 90
17, 65879, Note_on_c, 11, 64, 0
17, 66120, Note_on_c, 11, 69, 90
17, 66179, Note_on_c, 11, 69, 0
17, 66180, Note_on_c, 11, 66, 90
17, 66239, Note_on_c, 11, 66, 0
17, 66480, Note_on_c, 11, 69, 90
17, 66539, Note_on_c, 11, 69, 0
17, 66540, Note_on_c, 11, 64, 90
17, 66599, Note_on_c, 11, 64, 0
17, 66600, Note_on_c, 11, 69, 90
17, 66629, Note_on_c, 11, 69, 0
17, 66630, Note_on_c, 11, 74, 90
17, 66659, Note_on_c, 11, 74, 0
17, 66660, Note_on_c, 11, 73, 90
17, 66689, Note_on_c, 11, 73, 0
17, 66690, Note_on_c, 11, 71, 90
17, 66719, Note_on_c, 11, 71, 0
17, 66720, Note_on_c, 11, 69, 90
17, 66749, Note_on_c, 11, 69, 0
17, 66750, Note_on_c, 11, 67, 90
17, 66779, Note_on_c, 11, 67, 0
17, 66780, Note_on_c, 11, 66, 90
17, 66809, Note_on_c, 11, 66, 0
17, 66810, Note_on_c, 11, 64, 90
17, 66839, Note_on_c, 11, 64, 0
17, 66840, Note_on_c, 11, 62, 90
17, 66899, Note_on_c, 11, 62, 0
17, 66990, Note_on_c, 11, 71, 90
17, 67019, Note_on_c, 11, 71, 0
17, 67020, Note_on_c, 11, 69, 90
17, 67049, Note_on_c, 11, 69, 0
17, 67050, Note_on_c, 11, 67, 90
17, 67079, Note_on_c, 11, 67, 0
17, 67080, Note_on_c, 11, 66, 90
17, 67109, Note_on_c, 11, 66, 0
17, 67110, Note_on_c, 11, 64, 90
17, 67139, Note_on_c, 11, 64, 0
17, 67140, Note_on_c, 11, 62, 90
17, 67169, Note_on_c, 11, 62, 0
17, 67170, Note_on_c, 11, 61, 90
17, 67199, Note_on_c, 11, 61, 0
17, 67200, Note_on_c, 11, 59, 90
17, 67259, Note_on_c, 11, 59, 0
17, 67380, Note_on_c, 11, 71, 90
17, 67439, Note_on_c, 11, 71, 0
17, 67440, Note_on_c, 11, 73, 90
17, 67469, Note_on_c, 11, 73, 0
17, 67470, Note_on_c, 11, 74, 90
17, 67499, Note_on_c, 11, 74, 0
17, 67500, Note_on_c, 11, 73, 90
17, 67529, Note_on_c, 11, 73, 0
17, 67530, Note_on_c, 11, 74, 90
17, 67559, Note_on_c, 11, 74, 0
17, 67560, Note_on_c, 11, 76, 90
17, 67619, Note_on_c, 11, 76, 0
17, 67620, Note_on_c, 11, 69, 90
17, 67679, Note_on_c, 11, 69, 0
17, 67680, Note_on_c, 11, 64, 90
17, 67709, Note_on_c, 11, 64, 0
17, 67710, Note_on_c, 11, 61, 90
17, 67739, Note_on_c, 11, 61, 0
17, 67740, Note_on_c, 11, 62, 90
17, 67769, Note_on_c, 11, 62, 0
17, 67770, Note_on_c, 11, 64, 90
17, 67799, Note_on_c, 11, 64, 0
17, 67800, Note_on_c, 11, 66, 90
17, 67829, Note_on_c, 11, 66, 0
17, 67830, Note_on_c, 11, 67, 90
17, 67859, Note_on_c, 11, 67, 0
17, 67860, Note_on_c, 11, 69, 90
17, 67889, Note_on_c, 11, 69, 0
17, 67890, Note_on_c, 11, 71, 90
17, 67919, Note_on_c, 11, 71, 0
17, 67920, Note_on_c, 11, 69, 80
17, 67979, Note_on_c, 11, 69, 0
17, 67980, Note_on_c, 11, 64, 80
17, 68039, Note_on_c, 11, 64, 0
17, 68040, Note_on_c, 11, 66, 90
17, 68159, Note_on_c, 11, 66, 0
17, 68280, Note_on_c, 11, 66, 90
17, 68339, Note_on_c, 11, 66, 0
17, 68340, Note_on_c, 11, 74, 90
17, 68399, Note_on_c, 11, 74, 0
17, 68640, Note_on_c, 11, 74, 90
17, 68699, Note_on_c, 11, 74, 0
17, 68700, Note_on_c, 11, 71, 90
17, 68759, Note_on_c, 11, 71, 0
17, 69000, Note_on_c, 11, 74, 90
17, 69059, Note_on_c, 11, 74, 0
17, 69060, Note_on_c, 11, 67, 90
17, 69119, Note_on_c, 11, 67, 0
17, 69180, Note_on_c, 11, 71, 90
17, 69239, Note_on_c, 11, 71, 0
17, 69240, Note_on_c, 11, 73, 90
17, 69269, Note_on_c, 11, 73, 0
17, 69270, Note_on_c, 11, 74, 90
17, 69299, Note_on_c, 11, 74, 0
17, 69300, Note_on_c, 11, 73, 90
17, 69329, Note_on_c, 11, 73, 0
17, 69330, Note_on_c, 11, 74, 90
17, 69359, Note_on_c, 11, 74, 0
17, 69360, Note_on_c, 11, 76, 90
17, 69419, Note_on_c, 11, 76, 0
17, 69420, Note_on_c, 11, 69, 90
17, 69479, Note_on_c, 11, 69, 0
17, 69480, Note_on_c, 11, 64, 90
17, 69509, Note_on_c, 11, 64, 0
17, 69510, Note_on_c, 11, 61, 90
17, 69539, Note_on_c, 11, 61, 0
17, 69540, Note_on_c, 11, 62, 90
17, 69569, Note_on_c, 11, 62, 0
17, 69570, Note_on_c, 11, 64, 90
17, 69599, Note_on_c, 11, 64, 0
17, 69600, Note_on_c, 11, 66, 90
17, 69629, Note_on_c, 11, 66, 0
17, 69630, Note_on_c, 11, 67, 90
17, 69659, Note_on_c, 11, 67, 0
17, 69660, Note_on_c, 11, 69, 90
17, 69689, Note_on_c, 11, 69, 0
17, 69690, Note_on_c, 11, 71, 90
17, 69719, Note_on_c, 11, 71, 0
17, 69720, Note_on_c, 11, 69, 90
17, 69779, Note_on_c, 11, 69, 0
17, 69780, Note_on_c, 11, 64, 90
17, 69839, Note_on_c, 11, 64, 0
17, 69840, Note_on_c, 11, 66, 90
17, 69959, Note_on_c, 11, 66, 0
17, 70560, Note_on_c, 11, 71, 100
17, 70680, Note_on_c, 11, 71, 0
17, 71280, Note_on_c, 11, 67, 100
17, 71400, Note_on_c, 11, 67, 0
17, 71760, Note_on_c, 11, 66, 100
17, 71880, Note_on_c, 11, 66, 0
17, 72240, Note_on_c, 11, 66, 100
17, 72360, Note_on_c, 11, 66, 0
17, 72720, Note_on_c, 11, 59, 100
17, 72840, Note_on_c, 11, 59, 0
17, 72960, Note_on_c, 11, 60, 100
17, 73080, Note_on_c, 11, 60, 0
17, 73320, Note_on_c, 11, 69, 100
17, 73440, Note_on_c, 11, 69, 0
17, 73440, Note_on_c, 11, 67, 100
17, 73560, Note_on_c, 11, 67, 0
17, 73710, Note_on_c, 11, 69, 100
17, 73740, Note_on_c, 11, 69, 0
17, 73740, Note_on_c, 11, 69, 100
17, 73770, Note_on_c, 11, 69, 0
17, 73770, Note_on_c, 11, 69, 100
17, 73800, Note_on_c, 11, 69, 0
17, 73800, Note_on_c, 11, 69, 100
17, 73860, Note_on_c, 11, 69, 0
17, 74190, Note_on_c, 11, 62, 100
17, 74220, Note_on_c, 11, 62, 0
17, 74220, Note_on_c, 11, 62, 100
17, 74250, Note_on_c, 11, 62, 0
17, 74250, Note_on_c, 11, 62, 100
17, 74280, Note_on_c, 11, 62, 0
17, 74280, Note_on_c, 11, 62, 100
17, 74340, Note_on_c, 11, 62, 0
17, 74670, Note_on_c, 11, 58, 100
17, 74700, Note_on_c, 11, 58, 0
17, 74700, Note_on_c, 11, 58, 100
17, 74730, Note_on_c, 11, 58, 0
17, 74730, Note_on_c, 11, 58, 100
17, 74760, Note_on_c, 11, 58, 0
17, 74760, Note_on_c, 11, 58, 100
17, 74820, Note_on_c, 11, 58, 0
17, 74895, Note_on_c, 11, 74, 90
17, 74909, Note_on_c, 11, 74, 0
17, 74910, Note_on_c, 11, 73, 90
17, 74924, Note_on_c, 11, 73, 0
17, 74925, Note_on_c, 11, 71, 90
17, 74939, Note_on_c, 11, 71, 0
17, 74940, Note_on_c, 11, 69, 90
17, 74954, Note_on_c, 11, 69, 0
17, 74955, Note_on_c, 11, 67, 90
17, 74969, Note_on_c, 11, 67, 0
17, 74970, Note_on_c, 11, 66, 90
17, 74984, Note_on_c, 11, 66, 0
17, 74985, Note_on_c, 11, 64, 90
17, 74999, Note_on_c, 11, 64, 0
17, 75000, Note_on_c, 11, 62, 90
17, 75014, Note_on_c, 11, 62, 0
17, 75015, Note_on_c, 11, 66, 90
17, 75029, Note_on_c, 11, 66, 0
17, 75030, Note_on_c, 11, 64, 90
17, 75044, Note_on_c, 11, 64, 0
17, 75045, Note_on_c, 11, 62, 90
17, 75059, Note_on_c, 11, 62, 0
17, 75060, Note_on_c, 11, 61, 90
17, 75074, Note_on_c, 11, 61, 0
17, 75075, Note_on_c, 11, 59, 90
17, 75089, Note_on_c, 11, 59, 0
17, 75090, Note_on_c, 11, 57, 90
17, 75104, Note_on_c, 11, 57, 0
17, 75105, Note_on_c, 11, 55, 90
17, 75119, Note_on_c, 11, 55, 0
17, 75120, Note_on_c, 11, 54, 90
17, 75179, Note_on_c, 11, 54, 0
17, 75360, Note_on_c, 11, 64, 90
17, 75419, Note_on_c, 11, 64, 0
17, 75600, Note_on_c, 11, 69, 90
17, 75719, Note_on_c, 11, 69, 0
17, 76080, Note_on_c, 11, 63, 90
17, 76199, Note_on_c, 11, 63, 0
17, 76320, Note_on_c, 11, 62, 90
17, 76439, Note_on_c, 11, 62, 0
17, 76695, Note_on_c, 11, 66, 90
17, 76709, Note_on_c, 11, 66, 0
17, 76710, Note_on_c, 11, 64, 90
17, 76724, Note_on_c, 11, 64, 0
17, 76725, Note_on_c, 11, 62, 90
17, 76739, Note_on_c, 11, 62, 0
17, 76740, Note_on_c, 11, 61, 90
17, 76754, Note_on_c, 11, 61, 0
17, 76755, Note_on_c, 11, 59, 90
17, 76769, Note_on_c, 11, 59, 0
17, 76770, Note_on_c, 11, 57, 90
17, 76784, Note_on_c, 11, 57, 0
17, 76785, Note_on_c, 11, 55, 90
17, 76799, Note_on_c, 11, 55, 0
17, 76800, Note_on_c, 11, 54, 90
17, 76829, Note_on_c, 11, 54, 0
17, 76830, Note_on_c, 11, 57, 90
17, 76859, Note_on_c, 11, 57, 0
17, 76860, Note_on_c, 11, 57, 90
17, 76889, Note_on_c, 11, 57, 0
17, 76890, Note_on_c, 11, 57, 90
17, 76919, Note_on_c, 11, 57, 0
17, 76920, Note_on_c, 11, 57, 90
17, 76949, Note_on_c, 11, 57, 0
17, 76950, Note_on_c, 11, 57, 90
17, 76979, Note_on_c, 11, 57, 0
17, 76980, Note_on_c, 11, 57, 90
17, 77009, Note_on_c, 11, 57, 0
17, 77010, Note_on_c, 11, 57, 90
17, 77039, Note_on_c, 11, 57, 0
17, 77040, Note_on_c, 11, 57, 90
17, 77159, Note_on_c, 11, 57, 0
17, 77415, Note_on_c, 11, 62, 90
17, 77429, Note_on_c, 11, 62, 0
17, 77430, Note_on_c, 11, 61, 90
17, 77444, Note_on_c, 11, 61, 0
17, 77445, Note_on_c, 11, 59, 90
17, 77459, Note_on_c, 11, 59, 0
17, 77460, Note_on_c, 11, 57, 90
17, 77474, Note_on_c, 11, 57, 0
17, 77475, Note_on_c, 11, 56, 90
17, 77489, Note_on_c, 11, 56, 0
17, 77490, Note_on_c, 11, 54, 90
17, 77504, Note_on_c, 11, 54, 0
17, 77505, Note_on_c, 11, 52, 90
17, 77519, Note_on_c, 11, 52, 0
17, 77520, Note_on_c, 11, 59, 90
17, 77579, Note_on_c, 11, 59, 0
17, 77910, Note_on_c, 11, 55, 90
17, 77924, Note_on_c, 11, 55, 0
17, 77925, Note_on_c, 11, 57, 90
17, 77939, Note_on_c, 11, 57, 0
17, 77940, Note_on_c, 11, 59, 90
17, 77954, Note_on_c, 11, 59, 0
17, 77955, Note_on_c, 11, 61, 90
17, 77969, Note_on_c, 11, 61, 0
17, 77970, Note_on_c, 11, 62, 90
17, 77984, Note_on_c, 11, 62, 0
17, 77985, Note_on_c, 11, 64, 90
17, 77999, Note_on_c, 11, 64, 0
17, 78000, Note_on_c, 11, 66, 90
17, 78059, Note_on_c, 11, 66, 0
17, 78375, Note_on_c, 11, 69, 90
17, 78389, Note_on_c, 11, 69, 0
17, 78390, Note_on_c, 11, 68, 90
17, 78404, Note_on_c, 11, 68, 0
17, 78405, Note_on_c, 11, 66, 90
17, 78419, Note_on_c, 11, 66, 0
17, 78420, Note_on_c, 11, 64, 90
17, 78434, Note_on_c, 11, 64, 0
17, 78435, Note_on_c, 11, 62, 90
17, 78449, Note_on_c, 11, 62, 0
17, 78450, Note_on_c, 11, 61, 90
17, 78464, Note_on_c, 11, 61, 0
17, 78465, Note_on_c, 11, 59, 90
17, 78479, Note_on_c, 11, 59, 0
17, 78480, Note_on_c, 11, 57, 90
17, 78509, Note_on_c, 11, 57, 0
17, 78510, Note_on_c, 11, 61, 90
17, 78524, Note_on_c, 11, 61, 0
17, 78525, Note_on_c, 11, 64, 90
17, 78539, Note_on_c, 11, 64, 0
17, 78540, Note_on_c, 11, 69, 90
17, 78569, Note_on_c, 11, 69, 0
17, 78570, Note_on_c, 11, 64, 90
17, 78584, Note_on_c, 11, 64, 0
17, 78585, Note_on_c, 11, 69, 90
17, 78599, Note_on_c, 11, 69, 0
17, 78600, Note_on_c, 11, 73, 90
17, 78629, Note_on_c, 11, 73, 0
17, 78630, Note_on_c, 11, 69, 90
17, 78644, Note_on_c, 11, 69, 0
17, 78645, Note_on_c, 11, 73, 90
17, 78659, Note_on_c, 11, 73, 0
17, 78660, Note_on_c, 11, 76, 90
17, 78689, Note_on_c, 11, 76, 0
17, 78690, Note_on_c, 11, 73, 90
17, 78704, Note_on_c, 11, 73, 0
17, 78705, Note_on_c, 11, 69, 90
17, 78719, Note_on_c, 11, 69, 0
17, 78720, Note_on_c, 11, 64, 90
17, 78839, Note_on_c, 11, 64, 0
17, 78990, Note_on_c, 11, 66, 90
17, 79019, Note_on_c, 11, 66, 0
17, 79020, Note_on_c, 11, 66, 90
17, 79049, Note_on_c, 11, 66, 0
17, 79050, Note_on_c, 11, 66, 90
17, 79079, Note_on_c, 11, 66, 0
17, 79080, Note_on_c, 11, 66, 90
17, 79139, Note_on_c, 11, 66, 0
17, 79470, Note_on_c, 11, 75, 90
17, 79499, Note_on_c, 11, 75, 0
17, 79500, Note_on_c, 11, 75, 90
17, 79529, Note_on_c, 11, 75, 0
17, 79530, Note_on_c, 11, 75, 90
17, 79559, Note_on_c, 11, 75, 0
17, 79560, Note_on_c, 11, 75, 90
17, 79589, Note_on_c, 11, 75, 0
17, 79590, Note_on_c, 11, 63, 90
17, 79619, Note_on_c, 11, 63, 0
17, 79620, Note_on_c, 11, 63, 90
17, 79649, Note_on_c, 11, 63, 0
17, 79650, Note_on_c, 11, 63, 90
17, 79679, Note_on_c, 11, 63, 0
17, 79680, Note_on_c, 11, 66, 90
17, 79739, Note_on_c, 11, 66, 0
17, 79935, Note_on_c, 11, 59, 90
17, 79949, Note_on_c, 11, 59, 0
17, 79950, Note_on_c, 11, 61, 90
17, 79964, Note_on_c, 11, 61, 0
17, 79965, Note_on_c, 11, 62, 90
17, 79979, Note_on_c, 11, 62, 0
17, 79980, Note_on_c, 11, 64, 90
17, 79994, Note_on_c, 11, 64, 0
17, 79995, Note_on_c, 11, 66, 90
17, 80009, Note_on_c, 11, 66, 0
17, 80010, Note_on_c, 11, 68, 90
17, 80024, Note_on_c, 11, 68, 0
17, 80025, Note_on_c, 11, 69, 90
17, 80039, Note_on_c, 11, 69, 0
17, 80040, Note_on_c, 11, 71, 90
17, 80099, Note_on_c, 11, 71, 0
17, 80430, Note_on_c, 11, 68, 90
17, 80459, Note_on_c, 11, 68, 0
17, 80460, Note_on_c, 11, 68, 90
17, 80489, Note_on_c, 11, 68, 0
17, 80490, Note_on_c, 11, 68, 90
17, 80519, Note_on_c, 11, 68, 0
17, 80520, Note_on_c, 11, 68, 90
17, 80579, Note_on_c, 11, 68, 0
17, 80910, Note_on_c, 11, 66, 90
17, 80939, Note_on_c, 11, 66, 0
17, 80940, Note_on_c, 11, 66, 90
17, 80969, Note_on_c, 11, 66, 0
17, 80970, Note_on_c, 11, 66, 90
17, 80999, Note_on_c, 11, 66, 0
17, 81000, Note_on_c, 11, 66, 90
17, 81059, Note_on_c, 11, 66, 0
17, 81150, Note_on_c, 11, 55, 90
17, 81179, Note_on_c, 11, 55, 0
17, 81180, Note_on_c, 11, 55, 90
17, 81209, Note_on_c, 11, 55, 0
17, 81210, Note_on_c, 11, 55, 90
17, 81239, Note_on_c, 11, 55, 0
17, 81240, Note_on_c, 11, 55, 90
17, 81299, Note_on_c, 11, 55, 0
17, 82500, Note_on_c, 11, 61, 90
17, 82529, Note_on_c, 11, 61, 0
17, 82530, Note_on_c, 11, 62, 90
17, 82559, Note_on_c, 11, 62, 0
17, 82560, Note_on_c, 11, 64, 90
17, 82618, Note_on_c, 11, 64, 0
17, 82620, Note_on_c, 11, 66, 90
17, 82678, Note_on_c, 11, 66, 0
17, 82680, Note_on_c, 11, 64, 90
17, 82738, Note_on_c, 11, 64, 0
17, 82740, Note_on_c, 11, 62, 90
17, 82798, Note_on_c, 11, 62, 0
17, 82800, Note_on_c, 11, 64, 90
17, 82858, Note_on_c, 11, 64, 0
17, 82860, Note_on_c, 11, 62, 90
17, 82889, Note_on_c, 11, 62, 0
17, 82890, Note_on_c, 11, 64, 90
17, 82919, Note_on_c, 11, 64, 0
17, 82920, Note_on_c, 11, 61, 90
17, 82979, Note_on_c, 11, 61, 0
17, 82980, Note_on_c, 11, 62, 90
17, 83039, Note_on_c, 11, 62, 0
17, 83040, Note_on_c, 11, 64, 90
17, 83099, Note_on_c, 11, 64, 0
17, 83100, Note_on_c, 11, 64, 90
17, 83159, Note_on_c, 11, 64, 0
17, 83160, Note_on_c, 11, 64, 90
17, 83219, Note_on_c, 11, 64, 0
17, 83220, Note_on_c, 11, 64, 90
17, 83279, Note_on_c, 11, 64, 0
17, 83280, Note_on_c, 11, 64, 90
17, 83339, Note_on_c, 11, 64, 0
17, 83340, Note_on_c, 11, 64, 90
17, 83399, Note_on_c, 11, 64, 0
17, 83400, Note_on_c, 11, 64, 90
17, 83459, Note_on_c, 11, 64, 0
17, 83460, Note_on_c, 11, 64, 90
17, 83519, Note_on_c, 11, 64, 0
17, 83520, Note_on_c, 11, 64, 90
17, 83579, Note_on_c, 11, 64, 0
17, 83580, Note_on_c, 11, 62, 90
17, 83609, Note_on_c, 11, 62, 0
17, 83610, Note_on_c, 11, 64, 90
17, 83639, Note_on_c, 11, 64, 0
17, 83640, Note_on_c, 11, 61, 90
17, 83669, Note_on_c, 11, 61, 0
17, 83670, Note_on_c, 11, 62, 90
17, 83699, Note_on_c, 11, 62, 0
17, 83700, Note_on_c, 11, 64, 90
17, 83729, Note_on_c, 11, 64, 0
17, 83730, Note_on_c, 11, 66, 90
17, 83759, Note_on_c, 11, 66, 0
17, 83760, Note_on_c, 11, 68, 90
17, 83819, Note_on_c, 11, 68, 0
17, 83820, Note_on_c, 11, 66, 90
17, 83879, Note_on_c, 11, 66, 0
17, 83880, Note_on_c, 11, 64, 90
17, 83939, Note_on_c, 11, 64, 0
17, 83940, Note_on_c, 11, 63, 90
17, 83999, Note_on_c, 11, 63, 0
17, 84000, Note_on_c, 11, 64, 90
17, 84059, Note_on_c, 11, 64, 0
17, 84060, Note_on_c, 11, 64, 90
17, 84119, Note_on_c, 11, 64, 0
17, 84120, Note_on_c, 11, 64, 90
17, 84179, Note_on_c, 11, 64, 0
17, 84180, Note_on_c, 11, 61, 90
17, 84239, Note_on_c, 11, 61, 0
17, 84240, Note_on_c, 11, 61, 90
17, 84299, Note_on_c, 11, 61, 0
17, 84300, Note_on_c, 11, 54, 90
17, 84359, Note_on_c, 11, 54, 0
17, 84360, Note_on_c, 11, 59, 90
17, 84419, Note_on_c, 11, 59, 0
17, 84420, Note_on_c, 11, 59, 90
17, 84479, Note_on_c, 11, 59, 0
17, 84480, Note_on_c, 11, 59, 90
17, 84539, Note_on_c, 11, 59, 0
17, 84540, Note_on_c, 11, 59, 90
17, 84599, Note_on_c, 11, 59, 0
17, 84600, Note_on_c, 11, 59, 90
17, 84659, Note_on_c, 11, 59, 0
17, 84660, Note_on_c, 11, 57, 90
17, 84719, Note_on_c, 11, 57, 0
17, 84720, Note_on_c, 11, 56, 90
17, 84899, Note_on_c, 11, 56, 0
17, 84900, Note_on_c, 11, 59, 90
17, 84959, Note_on_c, 11, 59, 0
17, 84960, Note_on_c, 11, 64, 90
17, 84989, Note_on_c, 11, 64, 0
17, 84990, Note_on_c, 11, 62, 90
17, 85019, Note_on_c, 11, 62, 0
17, 85020, Note_on_c, 11, 61, 90
17, 85049, Note_on_c, 11, 61, 0
17, 85050, Note_on_c, 11, 62, 90
17, 85079, Note_on_c, 11, 62, 0
17, 85080, Note_on_c, 11, 64, 90
17, 85109, Note_on_c, 11, 64, 0
17, 85110, Note_on_c, 11, 66, 90
17, 85139, Note_on_c, 11, 66, 0
17, 85140, Note_on_c, 11, 64, 90
17, 85169, Note_on_c, 11, 64, 0
17, 85170, Note_on_c, 11, 66, 90
17, 85199, Note_on_c, 11, 66, 0
17, 85200, Note_on_c, 11, 64, 90
17, 85259, Note_on_c, 11, 64, 0
17, 85260, Note_on_c, 11, 59, 90
17, 85319, Note_on_c, 11, 59, 0
17, 85320, Note_on_c, 11, 59, 90
17, 85379, Note_on_c, 11, 59, 0
17, 85380, Note_on_c, 11, 64, 90
17, 85439, Note_on_c, 11, 64, 0
17, 85440, Note_on_c, 11, 62, 90
17, 85499, Note_on_c, 11, 62, 0
17, 85500, Note_on_c, 11, 62, 90
17, 85559, Note_on_c, 11, 62, 0
17, 85560, Note_on_c, 11, 62, 90
17, 85589, Note_on_c, 11, 62, 0
17, 85590, Note_on_c, 11, 61, 90
17, 85619, Note_on_c, 11, 61, 0
17, 85620, Note_on_c, 11, 62, 90
17, 85649, Note_on_c, 11, 62, 0
17, 85650, Note_on_c, 11, 64, 90
17, 85679, Note_on_c, 11, 64, 0
17, 85680, Note_on_c, 11, 66, 90
17, 85739, Note_on_c, 11, 66, 0
17, 85740, Note_on_c, 11, 62, 90
17, 85799, Note_on_c, 11, 62, 0
17, 85800, Note_on_c, 11, 62, 90
17, 85829, Note_on_c, 11, 62, 0
17, 85830, Note_on_c, 11, 61, 90
17, 85859, Note_on_c, 11, 61, 0
17, 85860, Note_on_c, 11, 59, 90
17, 85889, Note_on_c, 11, 59, 0
17, 85890, Note_on_c, 11, 57, 90
17, 85919, Note_on_c, 11, 57, 0
17, 85920, Note_on_c, 11, 64, 90
17, 85979, Note_on_c, 11, 64, 0
17, 85980, Note_on_c, 11, 64, 90
17, 86039, Note_on_c, 11, 64, 0
17, 86040, Note_on_c, 11, 64, 90
17, 86069, Note_on_c, 11, 64, 0
17, 86070, Note_on_c, 11, 66, 90
17, 86099, Note_on_c, 11, 66, 0
17, 86100, Note_on_c, 11, 68, 90
17, 86129, Note_on_c, 11, 68, 0
17, 86130, Note_on_c, 11, 66, 90
17, 86159, Note_on_c, 11, 66, 0
17, 86160, Note_on_c, 11, 64, 90
17, 86219, Note_on_c, 11, 64, 0
17, 86220, Note_on_c, 11, 64, 90
17, 86279, Note_on_c, 11, 64, 0
17, 86280, Note_on_c, 11, 64, 90
17, 86339, Note_on_c, 11, 64, 0
17, 86340, Note_on_c, 11, 64, 90
17, 86399, Note_on_c, 11, 64, 0
17, 86400, Note_on_c, 11, 64, 90
17, 86459, Note_on_c, 11, 64, 0
17, 86460, Note_on_c, 11, 64, 90
17, 86519, Note_on_c, 11, 64, 0
17, 86520, Note_on_c, 11, 62, 90
17, 86579, Note_on_c, 11, 62, 0
17, 86580, Note_on_c, 11, 59, 90
17, 86639, Note_on_c, 11, 59, 0
17, 86640, Note_on_c, 11, 61, 90
17, 86699, Note_on_c, 11, 61, 0
17, 86700, Note_on_c, 11, 61, 90
17, 86729, Note_on_c, 11, 61, 0
17, 86730, Note_on_c, 11, 62, 90
17, 86759, Note_on_c, 11, 62, 0
17, 86760, Note_on_c, 11, 64, 90
17, 86819, Note_on_c, 11, 64, 0
17, 86820, Note_on_c, 11, 66, 90
17, 86849, Note_on_c, 11, 66, 0
17, 86850, Note_on_c, 11, 68, 90
17, 86879, Note_on_c, 11, 68, 0
17, 86880, Note_on_c, 11, 69, 90
17, 86939, Note_on_c, 11, 69, 0
17, 86940, Note_on_c, 11, 64, 90
17, 86999, Note_on_c, 11, 64, 0
17, 87000, Note_on_c, 11, 61, 90
17, 87059, Note_on_c, 11, 61, 0
17, 87060, Note_on_c, 11, 59, 90
17, 87119, Note_on_c, 11, 59, 0
17, 87120, Note_on_c, 11, 61, 90
17, 87299, Note_on_c, 11, 61, 0
17, 87300, Note_on_c, 11, 61, 90
17, 87329, Note_on_c, 11, 61, 0
17, 87330, Note_on_c, 11, 62, 90
17, 87359, Note_on_c, 11, 62, 0
17, 87360, Note_on_c, 11, 64, 90
17, 87419, Note_on_c, 11, 64, 0
17, 87420, Note_on_c, 11, 66, 90
17, 87479, Note_on_c, 11, 66, 0
17, 87480, Note_on_c, 11, 64, 90
17, 87539, Note_on_c, 11, 64, 0
17, 87540, Note_on_c, 11, 62, 90
17, 87599, Note_on_c, 11, 62, 0
17, 87600, Note_on_c, 11, 64, 90
17, 87659, Note_on_c, 11, 64, 0
17, 87660, Note_on_c, 11, 62, 90
17, 87689, Note_on_c, 11, 62, 0
17, 87690, Note_on_c, 11, 64, 90
17, 87719, Note_on_c, 11, 64, 0
17, 87720, Note_on_c, 11, 61, 90
17, 87779, Note_on_c, 11, 61, 0
17, 87780, Note_on_c, 11, 62, 90
17, 87839, Note_on_c, 11, 62, 0
17, 87840, Note_on_c, 11, 64, 90
17, 87899, Note_on_c, 11, 64, 0
17, 87900, Note_on_c, 11, 64, 90
17, 87959, Note_on_c, 11, 64, 0
17, 87960, Note_on_c, 11, 64, 90
17, 88019, Note_on_c, 11, 64, 0
17, 88020, Note_on_c, 11, 64, 90
17, 88079, Note_on_c, 11, 64, 0
17, 88080, Note_on_c, 11, 64, 90
17, 88139, Note_on_c, 11, 64, 0
17, 88140, Note_on_c, 11, 64, 90
17, 88199, Note_on_c, 11, 64, 0
17, 88200, Note_on_c, 11, 64, 90
17, 88259, Note_on_c, 11, 64, 0
17, 88260, Note_on_c, 11, 64, 90
17, 88319, Note_on_c, 11, 64, 0
17, 88320, Note_on_c, 11, 64, 90
17, 88379, Note_on_c, 11, 64, 0
17, 88380, Note_on_c, 11, 64, 90
17, 88439, Note_on_c, 11, 64, 0
17, 88440, Note_on_c, 11, 64, 90
17, 88499, Note_on_c, 11, 64, 0
17, 88500, Note_on_c, 11, 64, 90
17, 88559, Note_on_c, 11, 64, 0
17, 88560, Note_on_c, 11, 64, 90
17, 88619, Note_on_c, 11, 64, 0
17, 88620, Note_on_c, 11, 71, 90
17, 88679, Note_on_c, 11, 71, 0
17, 88680, Note_on_c, 11, 69, 90
17, 88739, Note_on_c, 11, 69, 0
17, 88740, Note_on_c, 11, 68, 90
17, 88799, Note_on_c, 11, 68, 0
17, 88800, Note_on_c, 11, 69, 90
17, 88859, Note_on_c, 11, 69, 0
17, 88860, Note_on_c, 11, 69, 90
17, 88919, Note_on_c, 11, 69, 0
17, 88920, Note_on_c, 11, 69, 90
17, 88979, Note_on_c, 11, 69, 0
17, 88980, Note_on_c, 11, 66, 90
17, 89039, Note_on_c, 11, 66, 0
17, 89040, Note_on_c, 11, 66, 90
17, 89099, Note_on_c, 11, 66, 0
17, 89100, Note_on_c, 11, 59, 90
17, 89159, Note_on_c, 11, 59, 0
17, 89160, Note_on_c, 11, 64, 90
17, 89219, Note_on_c, 11, 64, 0
17, 89220, Note_on_c, 11, 64, 90
17, 89279, Note_on_c, 11, 64, 0
17, 89280, Note_on_c, 11, 64, 90
17, 89339, Note_on_c, 11, 64, 0
17, 89340, Note_on_c, 11, 64, 90
17, 89399, Note_on_c, 11, 64, 0
17, 89400, Note_on_c, 11, 64, 90
17, 89459, Note_on_c, 11, 64, 0
17, 89460, Note_on_c, 11, 62, 90
17, 89519, Note_on_c, 11, 62, 0
17, 89520, Note_on_c, 11, 61, 90
17, 89639, Note_on_c, 11, 61, 0
17, 89700, Note_on_c, 11, 61, 90
17, 89729, Note_on_c, 11, 61, 0
17, 89730, Note_on_c, 11, 62, 90
17, 89759, Note_on_c, 11, 62, 0
17, 89760, Note_on_c, 11, 64, 90
17, 89819, Note_on_c, 11, 64, 0
17, 89820, Note_on_c, 11, 66, 90
17, 89879, Note_on_c, 11, 66, 0
17, 89880, Note_on_c, 11, 64, 90
17, 89939, Note_on_c, 11, 64, 0
17, 89940, Note_on_c, 11, 62, 90
17, 89999, Note_on_c, 11, 62, 0
17, 90000, Note_on_c, 11, 64, 90
17, 90059, Note_on_c, 11, 64, 0
17, 90060, Note_on_c, 11, 62, 90
17, 90089, Note_on_c, 11, 62, 0
17, 90090, Note_on_c, 11, 64, 90
17, 90119, Note_on_c, 11, 64, 0
17, 90120, Note_on_c, 11, 61, 90
17, 90179, Note_on_c, 11, 61, 0
17, 90180, Note_on_c, 11, 62, 90
17, 90239, Note_on_c, 11, 62, 0
17, 90240, Note_on_c, 11, 64, 90
17, 90299, Note_on_c, 11, 64, 0
17, 90300, Note_on_c, 11, 64, 90
17, 90359, Note_on_c, 11, 64, 0
17, 90360, Note_on_c, 11, 64, 90
17, 90419, Note_on_c, 11, 64, 0
17, 90420, Note_on_c, 11, 64, 90
17, 90479, Note_on_c, 11, 64, 0
17, 90480, Note_on_c, 11, 64, 90
17, 90539, Note_on_c, 11, 64, 0
17, 90540, Note_on_c, 11, 64, 90
17, 90599, Note_on_c, 11, 64, 0
17, 90600, Note_on_c, 11, 64, 90
17, 90659, Note_on_c, 11, 64, 0
17, 90660, Note_on_c, 11, 64, 90
17, 90719, Note_on_c, 11, 64, 0
17, 90720, Note_on_c, 11, 64, 90
17, 90779, Note_on_c, 11, 64, 0
17, 90780, Note_on_c, 11, 62, 90
17, 90809, Note_on_c, 11, 62, 0
17, 90810, Note_on_c, 11, 64, 90
17, 90839, Note_on_c, 11, 64, 0
17, 90840, Note_on_c, 11, 61, 90
17, 90869, Note_on_c, 11, 61, 0
17, 90870, Note_on_c, 11, 62, 90
17, 90899, Note_on_c, 11, 62, 0
17, 90900, Note_on_c, 11, 64, 90
17, 90929, Note_on_c, 11, 64, 0
17, 90930, Note_on_c, 11, 66, 90
17, 90959, Note_on_c, 11, 66, 0
17, 90960, Note_on_c, 11, 68, 90
17, 91019, Note_on_c, 11, 68, 0
17, 91020, Note_on_c, 11, 66, 90
17, 91079, Note_on_c, 11, 66, 0
17, 91080, Note_on_c, 11, 64, 90
17, 91139, Note_on_c, 11, 64, 0
17, 91140, Note_on_c, 11, 63, 90
17, 91199, Note_on_c, 11, 63, 0
17, 91200, Note_on_c, 11, 64, 90
17, 91259, Note_on_c, 11, 64, 0
17, 91260, Note_on_c, 11, 64, 90
17, 91319, Note_on_c, 11, 64, 0
17, 91320, Note_on_c, 11, 64, 90
17, 91379, Note_on_c, 11, 64, 0
17, 91380, Note_on_c, 11, 61, 90
17, 91439, Note_on_c, 11, 61, 0
17, 91440, Note_on_c, 11, 61, 90
17, 91499, Note_on_c, 11, 61, 0
17, 91500, Note_on_c, 11, 59, 90
17, 91559, Note_on_c, 11, 59, 0
17, 91560, Note_on_c, 11, 59, 90
17, 91619, Note_on_c, 11, 59, 0
17, 91620, Note_on_c, 11, 59, 90
17, 91679, Note_on_c, 11, 59, 0
17, 91680, Note_on_c, 11, 59, 90
17, 91739, Note_on_c, 11, 59, 0
17, 91740, Note_on_c, 11, 59, 90
17, 91799, Note_on_c, 11, 59, 0
17, 91800, Note_on_c, 11, 59, 90
17, 91859, Note_on_c, 11, 59, 0
17, 91860, Note_on_c, 11, 57, 90
17, 91919, Note_on_c, 11, 57, 0
17, 91920, Note_on_c, 11, 56, 90
17, 92039, Note_on_c, 11, 56, 0
17, 92070, Note_on_c, 11, 59, 90
17, 92099, Note_on_c, 11, 59, 0
17, 92100, Note_on_c, 11, 64, 90
17, 92129, Note_on_c, 11, 64, 0
17, 92130, Note_on_c, 11, 66, 90
17, 92159, Note_on_c, 11, 66, 0
17, 92160, Note_on_c, 11, 68, 90
17, 92219, Note_on_c, 11, 68, 0
17, 92220, Note_on_c, 11, 69, 90
17, 92279, Note_on_c, 11, 69, 0
17, 92280, Note_on_c, 11, 68, 90
17, 92339, Note_on_c, 11, 68, 0
17, 92340, Note_on_c, 11, 66, 90
17, 92399, Note_on_c, 11, 66, 0
17, 92400, Note_on_c, 11, 68, 90
17, 92459, Note_on_c, 11, 68, 0
17, 92460, Note_on_c, 11, 66, 90
17, 92489, Note_on_c, 11, 66, 0
17, 92490, Note_on_c, 11, 68, 90
17, 92519, Note_on_c, 11, 68, 0
17, 92520, Note_on_c, 11, 64, 90
17, 92579, Note_on_c, 11, 64, 0
17, 92580, Note_on_c, 11, 64, 90
17, 92639, Note_on_c, 11, 64, 0
17, 92640, Note_on_c, 11, 64, 90
17, 92759, Note_on_c, 11, 64, 0
17, 92820, Note_on_c, 11, 61, 90
17, 92879, Note_on_c, 11, 61, 0
17, 92880, Note_on_c, 11, 61, 90
17, 93059, Note_on_c, 11, 61, 0
17, 93060, Note_on_c, 11, 59, 90
17, 93119, Note_on_c, 11, 59, 0
17, 93120, Note_on_c, 11, 71, 90
17, 93179, Note_on_c, 11, 71, 0
17, 93180, Note_on_c, 11, 64, 90
17, 93239, Note_on_c, 11, 64, 0
17, 93240, Note_on_c, 11, 66, 90
17, 93299, Note_on_c, 11, 66, 0
17, 93300, Note_on_c, 11, 67, 90
17, 93359, Note_on_c, 11, 67, 0
17, 93360, Note_on_c, 11, 66, 90
17, 93479, Note_on_c, 11, 66, 0
17, 93540, Note_on_c, 11, 68, 90
17, 93599, Note_on_c, 11, 68, 0
17, 93600, Note_on_c, 11, 69, 90
17, 93719, Note_on_c, 11, 69, 0
17, 93780, Note_on_c, 11, 59, 90
17, 93839, Note_on_c, 11, 59, 0
17, 93840, Note_on_c, 11, 59, 90
17, 94019, Note_on_c, 11, 59, 0
17, 94020, Note_on_c, 11, 69, 90
17, 94049, Note_on_c, 11, 69, 0
17, 94050, Note_on_c, 11, 68, 90
17, 94079, Note_on_c, 11, 68, 0
17, 94080, Note_on_c, 11, 69, 90
17, 94109, Note_on_c, 11, 69, 0
17, 94110, Note_on_c, 11, 68, 90
17, 94139, Note_on_c, 11, 68, 0
17, 94140, Note_on_c, 11, 66, 90
17, 94169, Note_on_c, 11, 66, 0
17, 94170, Note_on_c, 11, 68, 90
17, 94199, Note_on_c, 11, 68, 0
17, 94200, Note_on_c, 11, 69, 90
17, 94229, Note_on_c, 11, 69, 0
17, 94230, Note_on_c, 11, 68, 90
17, 94259, Note_on_c, 11, 68, 0
17, 94260, Note_on_c, 11, 66, 90
17, 94289, Note_on_c, 11, 66, 0
17, 94290, Note_on_c, 11, 68, 90
17, 94319, Note_on_c, 11, 68, 0
17, 94320, Note_on_c, 11, 69, 90
17, 94379, Note_on_c, 11, 69, 0
17, 94380, Note_on_c, 11, 68, 90
17, 94439, Note_on_c, 11, 68, 0
17, 94440, Note_on_c, 11, 64, 90
17, 94499, Note_on_c, 11, 64, 0
17, 94500, Note_on_c, 11, 62, 90
17, 94559, Note_on_c, 11, 62, 0
17, 94560, Note_on_c, 11, 64, 90
17, 94680, Note_on_c, 11, 64, 0
17, 94740, Note_on_c, 11, 64, 90
17, 94800, Note_on_c, 11, 64, 0
17, 94800, Note_on_c, 11, 64, 90
17, 94920, Note_on_c, 11, 64, 0
17, 94980, Note_on_c, 11, 64, 90
17, 95040, Note_on_c, 11, 64, 0
17, 95040, Note_on_c, 11, 64, 90
17, 95100, Note_on_c, 11, 64, 0
17, 95100, Note_on_c, 11, 68, 90
17, 95160, Note_on_c, 11, 68, 0
17, 95160, Note_on_c, 11, 69, 90
17, 95220, Note_on_c, 11, 69, 0
17, 95220, Note_on_c, 11, 57, 90
17, 95280, Note_on_c, 11, 57, 0
17, 95280, Note_on_c, 11, 64, 90
17, 95400, Note_on_c, 11, 64, 0
17, 95460, Note_on_c, 11, 64, 90
17, 95520, Note_on_c, 11, 64, 0
17, 95520, Note_on_c, 11, 61, 90
17, 95549, Note_on_c, 11, 61, 0
17, 95550, Note_on_c, 11, 59, 90
17, 95579, Note_on_c, 11, 59, 0
17, 95580, Note_on_c, 11, 57, 90
17, 95609, Note_on_c, 11, 57, 0
17, 95610, Note_on_c, 11, 59, 90
17, 95639, Note_on_c, 11, 59, 0
17, 95640, Note_on_c, 11, 61, 90
17, 95669, Note_on_c, 11, 61, 0
17, 95670, Note_on_c, 11, 62, 90
17, 95699, Note_on_c, 11, 62, 0
17, 95700, Note_on_c, 11, 61, 90
17, 95729, Note_on_c, 11, 61, 0
17, 95730, Note_on_c, 11, 59, 90
17, 95759, Note_on_c, 11, 59, 0
17, 95760, Note_on_c, 11, 57, 90
17, 95819, Note_on_c, 11, 57, 0
17, 95820, Note_on_c, 11, 69, 90
17, 95879, Note_on_c, 11, 69, 0
17, 95880, Note_on_c, 11, 64, 90
17, 95909, Note_on_c, 11, 64, 0
17, 95910, Note_on_c, 11, 68, 90
17, 95939, Note_on_c, 11, 68, 0
17, 95940, Note_on_c, 11, 66, 90
17, 95969, Note_on_c, 11, 66, 0
17, 95970, Note_on_c, 11, 64, 90
17, 95999, Note_on_c, 11, 64, 0
17, 96000, Note_on_c, 11, 71, 90
17, 96059, Note_on_c, 11, 71, 0
17, 96060, Note_on_c, 11, 59, 90
17, 96089, Note_on_c, 11, 59, 0
17, 96090, Note_on_c, 11, 61, 90
17, 96119, Note_on_c, 11, 61, 0
17, 96120, Note_on_c, 11, 63, 90
17, 96149, Note_on_c, 11, 63, 0
17, 96150, Note_on_c, 11, 64, 90
17, 96179, Note_on_c, 11, 64, 0
17, 96180, Note_on_c, 11, 66, 90
17, 96209, Note_on_c, 11, 66, 0
17, 96210, Note_on_c, 11, 68, 90
17, 96239, Note_on_c, 11, 68, 0
17, 96240, Note_on_c, 11, 69, 90
17, 96269, Note_on_c, 11, 69, 0
17, 96270, Note_on_c, 11, 73, 90
17, 96299, Note_on_c, 11, 73, 0
17, 96300, Note_on_c, 11, 71, 90
17, 96329, Note_on_c, 11, 71, 0
17, 96330, Note_on_c, 11, 69, 90
17, 96359, Note_on_c, 11, 69, 0
17, 96360, Note_on_c, 11, 68, 90
17, 96389, Note_on_c, 11, 68, 0
17, 96390, Note_on_c, 11, 66, 90
17, 96419, Note_on_c, 11, 66, 0
17, 96420, Note_on_c, 11, 64, 90
17, 96449, Note_on_c, 11, 64, 0
17, 96450, Note_on_c, 11, 63, 90
17, 96479, Note_on_c, 11, 63, 0
17, 96480, Note_on_c, 11, 64, 90
17, 96539, Note_on_c, 11, 64, 0
17, 96540, Note_on_c, 11, 68, 90
17, 96599, Note_on_c, 11, 68, 0
17, 96600, Note_on_c, 11, 66, 90
17, 96659, Note_on_c, 11, 66, 0
17, 96660, Note_on_c, 11, 66, 90
17, 96719, Note_on_c, 11, 66, 0
17, 96720, Note_on_c, 11, 68, 90
17, 96839, Note_on_c, 11, 68, 0
17, 96900, Note_on_c, 11, 56, 90
17, 96959, Note_on_c, 11, 56, 0
17, 96960, Note_on_c, 11, 57, 90
17, 97019, Note_on_c, 11, 57, 0
17, 97020, Note_on_c, 11, 57, 90
17, 97079, Note_on_c, 11, 57, 0
17, 97080, Note_on_c, 11, 57, 90
17, 97109, Note_on_c, 11, 57, 0
17, 97110, Note_on_c, 11, 56, 90
17, 97139, Note_on_c, 11, 56, 0
17, 97140, Note_on_c, 11, 57, 90
17, 97169, Note_on_c, 11, 57, 0
17, 97170, Note_on_c, 11, 59, 90
17, 97199, Note_on_c, 11, 59, 0
17, 97200, Note_on_c, 11, 61, 90
17, 97259, Note_on_c, 11, 61, 0
17, 97260, Note_on_c, 11, 57, 90
17, 97319, Note_on_c, 11, 57, 0
17, 97320, Note_on_c, 11, 57, 90
17, 97349, Note_on_c, 11, 57, 0
17, 97350, Note_on_c, 11, 56, 90
17, 97379, Note_on_c, 11, 56, 0
17, 97380, Note_on_c, 11, 54, 90
17, 97409, Note_on_c, 11, 54, 0
17, 97410, Note_on_c, 11, 52, 90
17, 97439, Note_on_c, 11, 52, 0
17, 97440, Note_on_c, 11, 59, 90
17, 97499, Note_on_c, 11, 59, 0
17, 97500, Note_on_c, 11, 59, 90
17, 97559, Note_on_c, 11, 59, 0
17, 97560, Note_on_c, 11, 59, 90
17, 97589, Note_on_c, 11, 59, 0
17, 97590, Note_on_c, 11, 61, 90
17, 97619, Note_on_c, 11, 61, 0
17, 97620, Note_on_c, 11, 63, 90
17, 97649, Note_on_c, 11, 63, 0
17, 97650, Note_on_c, 11, 64, 90
17, 97679, Note_on_c, 11, 64, 0
17, 97680, Note_on_c, 11, 63, 90
17, 97739, Note_on_c, 11, 63, 0
17, 97740, Note_on_c, 11, 54, 90
17, 97799, Note_on_c, 11, 54, 0
17, 97800, Note_on_c, 11, 63, 90
17, 97859, Note_on_c, 11, 63, 0
17, 97860, Note_on_c, 11, 63, 90
17, 97919, Note_on_c, 11, 63, 0
17, 97920, Note_on_c, 11, 59, 90
17, 97979, Note_on_c, 11, 59, 0
17, 97980, Note_on_c, 11, 59, 90
17, 98039, Note_on_c, 11, 59, 0
17, 98040, Note_on_c, 11, 57, 90
17, 98099, Note_on_c, 11, 57, 0
17, 98100, Note_on_c, 11, 54, 90
17, 98159, Note_on_c, 11, 54, 0
17, 98160, Note_on_c, 11, 56, 90
17, 98219, Note_on_c, 11, 56, 0
17, 98220, Note_on_c, 11, 56, 90
17, 98250, Note_on_c, 11, 56, 0
17, 98250, Note_on_c, 11, 57, 90
17, 98280, Note_on_c, 11, 57, 0
17, 98280, Note_on_c, 11, 59, 90
17, 98339, Note_on_c, 11, 59, 0
17, 98340, Note_on_c, 11, 61, 90
17, 98369, Note_on_c, 11, 61, 0
17, 98370, Note_on_c, 11, 63, 90
17, 98399, Note_on_c, 11, 63, 0
17, 98400, Note_on_c, 11, 64, 90
17, 98459, Note_on_c, 11, 64, 0
17, 98460, Note_on_c, 11, 64, 90
17, 98489, Note_on_c, 11, 64, 0
17, 98490, Note_on_c, 11, 66, 90
17, 98519, Note_on_c, 11, 66, 0
17, 98520, Note_on_c, 11, 68, 90
17, 98579, Note_on_c, 11, 68, 0
17, 98580, Note_on_c, 11, 66, 90
17, 98639, Note_on_c, 11, 66, 0
17, 98640, Note_on_c, 11, 68, 90
17, 98759, Note_on_c, 11, 68, 0
17, 98910, Note_on_c, 11, 71, 90
17, 98939, Note_on_c, 11, 71, 0
17, 98940, Note_on_c, 11, 68, 90
17, 98969, Note_on_c, 11, 68, 0
17, 98970, Note_on_c, 11, 66, 90
17, 98999, Note_on_c, 11, 66, 0
17, 99000, Note_on_c, 11, 64, 90
17, 99029, Note_on_c, 11, 64, 0
17, 99030, Note_on_c, 11, 68, 90
17, 99059, Note_on_c, 11, 68, 0
17, 99060, Note_on_c, 11, 71, 90
17, 99089, Note_on_c, 11, 71, 0
17, 99090, Note_on_c, 11, 68, 90
17, 99119, Note_on_c, 11, 68, 0
17, 99120, Note_on_c, 11, 65, 90
17, 99179, Note_on_c, 11, 65, 0
17, 99390, Note_on_c, 11, 73, 90
17, 99419, Note_on_c, 11, 73, 0
17, 99420, Note_on_c, 11, 69, 90
17, 99449, Note_on_c, 11, 69, 0
17, 99450, Note_on_c, 11, 66, 90
17, 99479, Note_on_c, 11, 66, 0
17, 99480, Note_on_c, 11, 61, 90
17, 99509, Note_on_c, 11, 61, 0
17, 99510, Note_on_c, 11, 66, 90
17, 99539, Note_on_c, 11, 66, 0
17, 99540, Note_on_c, 11, 69, 90
17, 99569, Note_on_c, 11, 69, 0
17, 99570, Note_on_c, 11, 66, 90
17, 99599, Note_on_c, 11, 66, 0
17, 99600, Note_on_c, 11, 64, 90
17, 99629, Note_on_c, 11, 64, 0
17, 99630, Note_on_c, 11, 69, 90
17, 99659, Note_on_c, 11, 69, 0
17, 99660, Note_on_c, 11, 64, 90
17, 99689, Note_on_c, 11, 64, 0
17, 99690, Note_on_c, 11, 61, 90
17, 99719, Note_on_c, 11, 61, 0
17, 99720, Note_on_c, 11, 57, 90
17, 99749, Note_on_c, 11, 57, 0
17, 99750, Note_on_c, 11, 64, 90
17, 99779, Note_on_c, 11, 64, 0
17, 99780, Note_on_c, 11, 69, 90
17, 99809, Note_on_c, 11, 69, 0
17, 99810, Note_on_c, 11, 64, 90
17, 99839, Note_on_c, 11, 64, 0
17, 99840, Note_on_c, 11, 57, 90
17, 99869, Note_on_c, 11, 57, 0
17, 99870, Note_on_c, 11, 69, 90
17, 99899, Note_on_c, 11, 69, 0
17, 99900, Note_on_c, 11, 66, 90
17, 99929, Note_on_c, 11, 66, 0
17, 99930, Note_on_c, 11, 62, 90
17, 99959, Note_on_c, 11, 62, 0
17, 99960, Note_on_c, 11, 57, 90
17, 99989, Note_on_c, 11, 57, 0
17, 99990, Note_on_c, 11, 62, 90
17, 100019, Note_on_c, 11, 62, 0
17, 100020, Note_on_c, 11, 66, 90
17, 100049, Note_on_c, 11, 66, 0
17, 100050, Note_on_c, 11, 62, 90
17, 100079, Note_on_c, 11, 62, 0
17, 100080, Note_on_c, 11, 61, 90
17, 100109, Note_on_c, 11, 61, 0
17, 100110, Note_on_c, 11, 64, 90
17, 100139, Note_on_c, 11, 64, 0
17, 100140, Note_on_c, 11, 66, 90
17, 100169, Note_on_c, 11, 66, 0
17, 100170, Note_on_c, 11, 64, 90
17, 100199, Note_on_c, 11, 64, 0
17, 100200, Note_on_c, 11, 61, 90
17, 100229, Note_on_c, 11, 61, 0
17, 100230, Note_on_c, 11, 64, 90
17, 100259, Note_on_c, 11, 64, 0
17, 100260, Note_on_c, 11, 66, 90
17, 100289, Note_on_c, 11, 66, 0
17, 100290, Note_on_c, 11, 64, 90
17, 100319, Note_on_c, 11, 64, 0
17, 100320, Note_on_c, 11, 54, 90
17, 100379, Note_on_c, 11, 54, 0
17, 100740, Note_on_c, 11, 66, 90
17, 100799, Note_on_c, 11, 66, 0
17, 100800, Note_on_c, 11, 61, 90
17, 100859, Note_on_c, 11, 61, 0
17, 100860, Note_on_c, 11, 59, 90
17, 100919, Note_on_c, 11, 59, 0
17, 100920, Note_on_c, 11, 61, 90
17, 100979, Note_on_c, 11, 61, 0
17, 100980, Note_on_c, 11, 62, 90
17, 101039, Note_on_c, 11, 62, 0
17, 101040, Note_on_c, 11, 61, 90
17, 101099, Note_on_c, 11, 61, 0
17, 101100, Note_on_c, 11, 61, 90
17, 101159, Note_on_c, 11, 61, 0
17, 101160, Note_on_c, 11, 61, 90
17, 101219, Note_on_c, 11, 61, 0
17, 101220, Note_on_c, 11, 61, 90
17, 101279, Note_on_c, 11, 61, 0
17, 101280, Note_on_c, 11, 61, 90
17, 101339, Note_on_c, 11, 61, 0
17, 101340, Note_on_c, 11, 61, 90
17, 101399, Note_on_c, 11, 61, 0
17, 101400, Note_on_c, 11, 61, 90
17, 101459, Note_on_c, 11, 61, 0
17, 101460, Note_on_c, 11, 61, 90
17, 101519, Note_on_c, 11, 61, 0
17, 101520, Note_on_c, 11, 61, 90
17, 101579, Note_on_c, 11, 61, 0
17, 101580, Note_on_c, 11, 61, 90
17, 101639, Note_on_c, 11, 61, 0
17, 101640, Note_on_c, 11, 61, 90
17, 101699, Note_on_c, 11, 61, 0
17, 101700, Note_on_c, 11, 61, 90
17, 101759, Note_on_c, 11, 61, 0
17, 101760, Note_on_c, 11, 61, 90
17, 101819, Note_on_c, 11, 61, 0
17, 101820, Note_on_c, 11, 61, 90
17, 101879, Note_on_c, 11, 61, 0
17, 101880, Note_on_c, 11, 61, 90
17, 101939, Note_on_c, 11, 61, 0
17, 101940, Note_on_c, 11, 61, 90
17, 101999, Note_on_c, 11, 61, 0
17, 102000, Note_on_c, 11, 59, 90
17, 102059, Note_on_c, 11, 59, 0
17, 102060, Note_on_c, 11, 59, 90
17, 102119, Note_on_c, 11, 59, 0
17, 102120, Note_on_c, 11, 59, 90
17, 102179, Note_on_c, 11, 59, 0
17, 102180, Note_on_c, 11, 66, 90
17, 102239, Note_on_c, 11, 66, 0
17, 102240, Note_on_c, 11, 71, 90
17, 102299, Note_on_c, 11, 71, 0
17, 102300, Note_on_c, 11, 59, 90
17, 102359, Note_on_c, 11, 59, 0
17, 102360, Note_on_c, 11, 59, 90
17, 102419, Note_on_c, 11, 59, 0
17, 102420, Note_on_c, 11, 59, 90
17, 102479, Note_on_c, 11, 59, 0
17, 102480, Note_on_c, 11, 57, 90
17, 102539, Note_on_c, 11, 57, 0
17, 102540, Note_on_c, 11, 57, 90
17, 102599, Note_on_c, 11, 57, 0
17, 102600, Note_on_c, 11, 57, 90
17, 102659, Note_on_c, 11, 57, 0
17, 102660, Note_on_c, 11, 64, 90
17, 102719, Note_on_c, 11, 64, 0
17, 102720, Note_on_c, 11, 69, 90
17, 102779, Note_on_c, 11, 69, 0
17, 102780, Note_on_c, 11, 57, 90
17, 102839, Note_on_c, 11, 57, 0
17, 102840, Note_on_c, 11, 57, 90
17, 102899, Note_on_c, 11, 57, 0
17, 102900, Note_on_c, 11, 57, 90
17, 102959, Note_on_c, 11, 57, 0
17, 102960, Note_on_c, 11, 56, 90
17, 103019, Note_on_c, 11, 56, 0
17, 103020, Note_on_c, 11, 56, 90
17, 103079, Note_on_c, 11, 56, 0
17, 103080, Note_on_c, 11, 56, 90
17, 103139, Note_on_c, 11, 56, 0
17, 103140, Note_on_c, 11, 63, 90
17, 103199, Note_on_c, 11, 63, 0
17, 103200, Note_on_c, 11, 68, 90
17, 103259, Note_on_c, 11, 68, 0
17, 103260, Note_on_c, 11, 56, 90
17, 103319, Note_on_c, 11, 56, 0
17, 103620, Note_on_c, 11, 66, 90
17, 103679, Note_on_c, 11, 66, 0
17, 103680, Note_on_c, 11, 68, 90
17, 103739, Note_on_c, 11, 68, 0
17, 103740, Note_on_c, 11, 61, 90
17, 103799, Note_on_c, 11, 61, 0
17, 103800, Note_on_c, 11, 61, 90
17, 103859, Note_on_c, 11, 61, 0
17, 103860, Note_on_c, 11, 61, 90
17, 103919, Note_on_c, 11, 61, 0
17, 103920, Note_on_c, 11, 61, 90
17, 104039, Note_on_c, 11, 61, 0
17, 104100, Note_on_c, 11, 65, 90
17, 104159, Note_on_c, 11, 65, 0
17, 104160, Note_on_c, 11, 71, 90
17, 104279, Note_on_c, 11, 71, 0
17, 104340, Note_on_c, 11, 71, 90
17, 104399, Note_on_c, 11, 71, 0
17, 104400, Note_on_c, 11, 62, 90
17, 104519, Note_on_c, 11, 62, 0
17, 104580, Note_on_c, 11, 62, 90
17, 104639, Note_on_c, 11, 62, 0
17, 104640, Note_on_c, 11, 61, 90
17, 104759, Note_on_c, 11, 61, 0
17, 104820, Note_on_c, 11, 71, 90
17, 104879, Note_on_c, 11, 71, 0
17, 104880, Note_on_c, 11, 71, 90
17, 104999, Note_on_c, 11, 71, 0
17, 105060, Note_on_c, 11, 73, 90
17, 105119, Note_on_c, 11, 73, 0
17, 105120, Note_on_c, 11, 61, 90
17, 105239, Note_on_c, 11, 61, 0
17, 105300, Note_on_c, 11, 61, 90
17, 105359, Note_on_c, 11, 61, 0
17, 105360, Note_on_c, 11, 61, 90
17, 105419, Note_on_c, 11, 61, 0
17, 105420, Note_on_c, 11, 57, 90
17, 105449, Note_on_c, 11, 57, 0
17, 105450, Note_on_c, 11, 59, 90
17, 105479, Note_on_c, 11, 59, 0
17, 105480, Note_on_c, 11, 61, 90
17, 105539, Note_on_c, 11, 61, 0
17, 105540, Note_on_c, 11, 63, 90
17, 105569, Note_on_c, 11, 63, 0
17, 105570, Note_on_c, 11, 65, 90
17, 105599, Note_on_c, 11, 65, 0
17, 105600, Note_on_c, 11, 66, 90
17, 105659, Note_on_c, 11, 66, 0
17, 106020, Note_on_c, 11, 66, 90
17, 106049, Note_on_c, 11, 66, 0
17, 106050, Note_on_c, 11, 65, 90
17, 106079, Note_on_c, 11, 65, 0
17, 106080, Note_on_c, 11, 66, 90
17, 106139, Note_on_c, 11, 66, 0
17, 106140, Note_on_c, 11, 68, 90
17, 106199, Note_on_c, 11, 68, 0
17, 106200, Note_on_c, 11, 66, 90
17, 106259, Note_on_c, 11, 66, 0
17, 106260, Note_on_c, 11, 65, 90
17, 106319, Note_on_c, 11, 65, 0
17, 106320, Note_on_c, 11, 66, 90
17, 106439, Note_on_c, 11, 66, 0
17, 106500, Note_on_c, 11, 71, 90
17, 106529, Note_on_c, 11, 71, 0
17, 106530, Note_on_c, 11, 69, 90
17, 106559, Note_on_c, 11, 69, 0
17, 106560, Note_on_c, 11, 68, 90
17, 106619, Note_on_c, 11, 68, 0
17, 106620, Note_on_c, 11, 66, 90
17, 106679, Note_on_c, 11, 66, 0
17, 106680, Note_on_c, 11, 65, 90
17, 106739, Note_on_c, 11, 65, 0
17, 106740, Note_on_c, 11, 66, 90
17, 106799, Note_on_c, 11, 66, 0
17, 106800, Note_on_c, 11, 61, 90
17, 106919, Note_on_c, 11, 61, 0
17, 106980, Note_on_c, 11, 61, 90
17, 107039, Note_on_c, 11, 61, 0
17, 107040, Note_on_c, 11, 66, 90
17, 107099, Note_on_c, 11, 66, 0
17, 107100, Note_on_c, 11, 66, 90
17, 107159, Note_on_c, 11, 66, 0
17, 107160, Note_on_c, 11, 66, 90
17, 107219, Note_on_c, 11, 66, 0
17, 107220, Note_on_c, 11, 62, 90
17, 107279, Note_on_c, 11, 62, 0
17, 107280, Note_on_c, 11, 62, 90
17, 107339, Note_on_c, 11, 62, 0
17, 107340, Note_on_c, 11, 56, 90
17, 107399, Note_on_c, 11, 56, 0
17, 107400, Note_on_c, 11, 61, 90
17, 107459, Note_on_c, 11, 61, 0
17, 107460, Note_on_c, 11, 61, 90
17, 107519, Note_on_c, 11, 61, 0
17, 107520, Note_on_c, 11, 61, 90
17, 107579, Note_on_c, 11, 61, 0
17, 107580, Note_on_c, 11, 61, 90
17, 107639, Note_on_c, 11, 61, 0
17, 107640, Note_on_c, 11, 61, 90
17, 107699, Note_on_c, 11, 61, 0
17, 107700, Note_on_c, 11, 59, 90
17, 107759, Note_on_c, 11, 59, 0
17, 107760, Note_on_c, 11, 57, 90
17, 107879, Note_on_c, 11, 57, 0
17, 107940, Note_on_c, 11, 66, 90
17, 107999, Note_on_c, 11, 66, 0
17, 108000, Note_on_c, 11, 64, 90
17, 108119, Note_on_c, 11, 64, 0
17, 108180, Note_on_c, 11, 64, 90
17, 108239, Note_on_c, 11, 64, 0
17, 108240, Note_on_c, 11, 64, 90
17, 108299, Note_on_c, 11, 64, 0
17, 108300, Note_on_c, 11, 62, 90
17, 108329, Note_on_c, 11, 62, 0
17, 108330, Note_on_c, 11, 64, 90
17, 108359, Note_on_c, 11, 64, 0
17, 108360, Note_on_c, 11, 61, 90
17, 108419, Note_on_c, 11, 61, 0
17, 108420, Note_on_c, 11, 62, 90
17, 108479, Note_on_c, 11, 62, 0
17, 108480, Note_on_c, 11, 64, 90
17, 108539, Note_on_c, 11, 64, 0
17, 108540, Note_on_c, 11, 62, 90
17, 108569, Note_on_c, 11, 62, 0
17, 108570, Note_on_c, 11, 64, 90
17, 108599, Note_on_c, 11, 64, 0
17, 108600, Note_on_c, 11, 61, 90
17, 108659, Note_on_c, 11, 61, 0
17, 108660, Note_on_c, 11, 64, 90
17, 108719, Note_on_c, 11, 64, 0
17, 108720, Note_on_c, 11, 59, 90
17, 108779, Note_on_c, 11, 59, 0
17, 108780, Note_on_c, 11, 61, 90
17, 108839, Note_on_c, 11, 61, 0
17, 108840, Note_on_c, 11, 62, 90
17, 108899, Note_on_c, 11, 62, 0
17, 108900, Note_on_c, 11, 56, 90
17, 108959, Note_on_c, 11, 56, 0
17, 108960, Note_on_c, 11, 61, 90
17, 109019, Note_on_c, 11, 61, 0
17, 109020, Note_on_c, 11, 68, 90
17, 109079, Note_on_c, 11, 68, 0
17, 109080, Note_on_c, 11, 69, 90
17, 109139, Note_on_c, 11, 69, 0
17, 109140, Note_on_c, 11, 64, 90
17, 109199, Note_on_c, 11, 64, 0
17, 109200, Note_on_c, 11, 63, 90
17, 109259, Note_on_c, 11, 63, 0
17, 109260, Note_on_c, 11, 63, 90
17, 109319, Note_on_c, 11, 63, 0
17, 109320, Note_on_c, 11, 63, 90
17, 109379, Note_on_c, 11, 63, 0
17, 109380, Note_on_c, 11, 63, 90
17, 109439, Note_on_c, 11, 63, 0
17, 109440, Note_on_c, 11, 64, 90
17, 109499, Note_on_c, 11, 64, 0
17, 109500, Note_on_c, 11, 64, 90
17, 109559, Note_on_c, 11, 64, 0
17, 109560, Note_on_c, 11, 64, 90
17, 109619, Note_on_c, 11, 64, 0
17, 109620, Note_on_c, 11, 61, 90
17, 109679, Note_on_c, 11, 61, 0
17, 109680, Note_on_c, 11, 61, 90
17, 109739, Note_on_c, 11, 61, 0
17, 109740, Note_on_c, 11, 59, 90
17, 109799, Note_on_c, 11, 59, 0
17, 109800, Note_on_c, 11, 59, 90
17, 109859, Note_on_c, 11, 59, 0
17, 109860, Note_on_c, 11, 59, 90
17, 109919, Note_on_c, 11, 59, 0
17, 109920, Note_on_c, 11, 59, 90
17, 109979, Note_on_c, 11, 59, 0
17, 109980, Note_on_c, 11, 59, 90
17, 110039, Note_on_c, 11, 59, 0
17, 110040, Note_on_c, 11, 59, 90
17, 110099, Note_on_c, 11, 59, 0
17, 110100, Note_on_c, 11, 57, 90
17, 110159, Note_on_c, 11, 57, 0
17, 110160, Note_on_c, 11, 56, 90
17, 110399, Note_on_c, 11, 56, 0
17, 110400, Note_on_c, 11, 54, 90
17, 110759, Note_on_c, 11, 54, 0
17, 110910, Note_on_c, 11, 71, 90
17, 110939, Note_on_c, 11, 71, 0
17, 110940, Note_on_c, 11, 66, 90
17, 110969, Note_on_c, 11, 66, 0
17, 110970, Note_on_c, 11, 62, 90
17, 110999, Note_on_c, 11, 62, 0
17, 111000, Note_on_c, 11, 59, 90
17, 111029, Note_on_c, 11, 59, 0
17, 111030, Note_on_c, 11, 62, 90
17, 111059, Note_on_c, 11, 62, 0
17, 111060, Note_on_c, 11, 66, 90
17, 111089, Note_on_c, 11, 66, 0
17, 111090, Note_on_c, 11, 62, 90
17, 111119, Note_on_c, 11, 62, 0
17, 111120, Note_on_c, 11, 57, 90
17, 111149, Note_on_c, 11, 57, 0
17, 111150, Note_on_c, 11, 74, 90
17, 111179, Note_on_c, 11, 74, 0
17, 111180, Note_on_c, 11, 69, 90
17, 111209, Note_on_c, 11, 69, 0
17, 111210, Note_on_c, 11, 66, 90
17, 111239, Note_on_c, 11, 66, 0
17, 111240, Note_on_c, 11, 62, 90
17, 111269, Note_on_c, 11, 62, 0
17, 111270, Note_on_c, 11, 66, 90
17, 111299, Note_on_c, 11, 66, 0
17, 111300, Note_on_c, 11, 69, 90
17, 111329, Note_on_c, 11, 69, 0
17, 111330, Note_on_c, 11, 66, 90
17, 111359, Note_on_c, 11, 66, 0
17, 111360, Note_on_c, 11, 59, 90
17, 111389, Note_on_c, 11, 59, 0
17, 111390, Note_on_c, 11, 74, 90
17, 111419, Note_on_c, 11, 74, 0
17, 111420, Note_on_c, 11, 71, 90
17, 111449, Note_on_c, 11, 71, 0
17, 111450, Note_on_c, 11, 68, 90
17, 111479, Note_on_c, 11, 68, 0
17, 111480, Note_on_c, 11, 64, 90
17, 111509, Note_on_c, 11, 64, 0
17, 111510, Note_on_c, 11, 68, 90
17, 111539, Note_on_c, 11, 68, 0
17, 111540, Note_on_c, 11, 71, 90
17, 111569, Note_on_c, 11, 71, 0
17, 111570, Note_on_c, 11, 68, 90
17, 111599, Note_on_c, 11, 68, 0
17, 111600, Note_on_c, 11, 64, 90
17, 111629, Note_on_c, 11, 64, 0
17, 111630, Note_on_c, 11, 69, 90
17, 111659, Note_on_c, 11, 69, 0
17, 111660, Note_on_c, 11, 64, 90
17, 111689, Note_on_c, 11, 64, 0
17, 111690, Note_on_c, 11, 61, 90
17, 111719, Note_on_c, 11, 61, 0
17, 111720, Note_on_c, 11, 57, 90
17, 111749, Note_on_c, 11, 57, 0
17, 111750, Note_on_c, 11, 61, 90
17, 111779, Note_on_c, 11, 61, 0
17, 111780, Note_on_c, 11, 64, 90
17, 111809, Note_on_c, 11, 64, 0
17, 111810, Note_on_c, 11, 61, 90
17, 111839, Note_on_c, 11, 61, 0
17, 111840, Note_on_c, 11, 57, 90
17, 111899, Note_on_c, 11, 57, 0
17, 112260, Note_on_c, 11, 61, 90
17, 112289, Note_on_c, 11, 61, 0
17, 112290, Note_on_c, 11, 62, 90
17, 112319, Note_on_c, 11, 62, 0
17, 112320, Note_on_c, 11, 64, 90
17, 112379, Note_on_c, 11, 64, 0
17, 112380, Note_on_c, 11, 66, 90
17, 112439, Note_on_c, 11, 66, 0
17, 112440, Note_on_c, 11, 64, 90
17, 112499, Note_on_c, 11, 64, 0
17, 112500, Note_on_c, 11, 62, 90
17, 112559, Note_on_c, 11, 62, 0
17, 112560, Note_on_c, 11, 64, 90
17, 112619, Note_on_c, 11, 64, 0
17, 112620, Note_on_c, 11, 62, 90
17, 112649, Note_on_c, 11, 62, 0
17, 112650, Note_on_c, 11, 64, 90
17, 112679, Note_on_c, 11, 64, 0
17, 112680, Note_on_c, 11, 61, 90
17, 112739, Note_on_c, 11, 61, 0
17, 112740, Note_on_c, 11, 62, 90
17, 112799, Note_on_c, 11, 62, 0
17, 112800, Note_on_c, 11, 64, 90
17, 112919, Note_on_c, 11, 64, 0
17, 112980, Note_on_c, 11, 61, 90
17, 113039, Note_on_c, 11, 61, 0
17, 113040, Note_on_c, 11, 59, 90
17, 113159, Note_on_c, 11, 59, 0
17, 113220, Note_on_c, 11, 64, 90
17, 113279, Note_on_c, 11, 64, 0
17, 113280, Note_on_c, 11, 64, 90
17, 113339, Note_on_c, 11, 64, 0
17, 113340, Note_on_c, 11, 62, 90
17, 113369, Note_on_c, 11, 62, 0
17, 113370, Note_on_c, 11, 64, 90
17, 113399, Note_on_c, 11, 64, 0
17, 113400, Note_on_c, 11, 61, 90
17, 113459, Note_on_c, 11, 61, 0
17, 113460, Note_on_c, 11, 57, 90
17, 113519, Note_on_c, 11, 57, 0
17, 113520, Note_on_c, 11, 62, 90
17, 113579, Note_on_c, 11, 62, 0
17, 113580, Note_on_c, 11, 62, 90
17, 113639, Note_on_c, 11, 62, 0
17, 113640, Note_on_c, 11, 62, 90
17, 113699, Note_on_c, 11, 62, 0
17, 113700, Note_on_c, 11, 66, 90
17, 113759, Note_on_c, 11, 66, 0
17, 113760, Note_on_c, 11, 68, 90
17, 113819, Note_on_c, 11, 68, 0
17, 113820, Note_on_c, 11, 68, 90
17, 113879, Note_on_c, 11, 68, 0
17, 113880, Note_on_c, 11, 68, 90
17, 113939, Note_on_c, 11, 68, 0
17, 113940, Note_on_c, 11, 68, 90
17, 113999, Note_on_c, 11, 68, 0
17, 114000, Note_on_c, 11, 68, 90
17, 114059, Note_on_c, 11, 68, 0
17, 114060, Note_on_c, 11, 64, 90
17, 114119, Note_on_c, 11, 64, 0
17, 114120, Note_on_c, 11, 61, 90
17, 114179, Note_on_c, 11, 61, 0
17, 114180, Note_on_c, 11, 64, 90
17, 114239, Note_on_c, 11, 64, 0
17, 114240, Note_on_c, 11, 66, 90
17, 114299, Note_on_c, 11, 66, 0
17, 114300, Note_on_c, 11, 66, 90
17, 114359, Note_on_c, 11, 66, 0
17, 114360, Note_on_c, 11, 66, 90
17, 114419, Note_on_c, 11, 66, 0
17, 114420, Note_on_c, 11, 66, 90
17, 114479, Note_on_c, 11, 66, 0
17, 114480, Note_on_c, 11, 66, 90
17, 114539, Note_on_c, 11, 66, 0
17, 114540, Note_on_c, 11, 62, 90
17, 114599, Note_on_c, 11, 62, 0
17, 114600, Note_on_c, 11, 59, 90
17, 114659, Note_on_c, 11, 59, 0
17, 114660, Note_on_c, 11, 62, 90
17, 114719, Note_on_c, 11, 62, 0
17, 114720, Note_on_c, 11, 64, 90
17, 114779, Note_on_c, 11, 64, 0
17, 114780, Note_on_c, 11, 64, 90
17, 114839, Note_on_c, 11, 64, 0
17, 114840, Note_on_c, 11, 64, 90
17, 114899, Note_on_c, 11, 64, 0
17, 114900, Note_on_c, 11, 64, 90
17, 114959, Note_on_c, 11, 64, 0
17, 114960, Note_on_c, 11, 64, 90
17, 115019, Note_on_c, 11, 64, 0
17, 115020, Note_on_c, 11, 64, 90
17, 115079, Note_on_c, 11, 64, 0
17, 115080, Note_on_c, 11, 64, 90
17, 115139, Note_on_c, 11, 64, 0
17, 115140, Note_on_c, 11, 64, 90
17, 115199, Note_on_c, 11, 64, 0
17, 115200, Note_on_c, 11, 64, 90
17, 115259, Note_on_c, 11, 64, 0
17, 115260, Note_on_c, 11, 59, 90
17, 115319, Note_on_c, 11, 59, 0
17, 115320, Note_on_c, 11, 59, 90
17, 115379, Note_on_c, 11, 59, 0
17, 115380, Note_on_c, 11, 64, 90
17, 115439, Note_on_c, 11, 64, 0
17, 115440, Note_on_c, 11, 64, 90
17, 115499, Note_on_c, 11, 64, 0
17, 115500, Note_on_c, 11, 61, 90
17, 115559, Note_on_c, 11, 61, 0
17, 115860, Note_on_c, 11, 59, 90
17, 115919, Note_on_c, 11, 59, 0
17, 115920, Note_on_c, 11, 64, 90
17, 115949, Note_on_c, 11, 64, 0
17, 115950, Note_on_c, 11, 63, 90
17, 115979, Note_on_c, 11, 63, 0
17, 115980, Note_on_c, 11, 64, 90
17, 116009, Note_on_c, 11, 64, 0
17, 116010, Note_on_c, 11, 63, 90
17, 116039, Note_on_c, 11, 63, 0
17, 116040, Note_on_c, 11, 64, 90
17, 116099, Note_on_c, 11, 64, 0
17, 116100, Note_on_c, 11, 68, 90
17, 116159, Note_on_c, 11, 68, 0
17, 116160, Note_on_c, 11, 66, 90
17, 116219, Note_on_c, 11, 66, 0
17, 116220, Note_on_c, 11, 62, 90
17, 116249, Note_on_c, 11, 62, 0
17, 116250, Note_on_c, 11, 66, 90
17, 116279, Note_on_c, 11, 66, 0
17, 116280, Note_on_c, 11, 69, 90
17, 116339, Note_on_c, 11, 69, 0
17, 116460, Note_on_c, 11, 69, 90
17, 116489, Note_on_c, 11, 69, 0
17, 116490, Note_on_c, 11, 66, 90
17, 116519, Note_on_c, 11, 66, 0
17, 116520, Note_on_c, 11, 62, 90
17, 116579, Note_on_c, 11, 62, 0
17, 116700, Note_on_c, 11, 59, 90
17, 116729, Note_on_c, 11, 59, 0
17, 116730, Note_on_c, 11, 64, 90
17, 116759, Note_on_c, 11, 64, 0
17, 116760, Note_on_c, 11, 68, 90
17, 116819, Note_on_c, 11, 68, 0
17, 116940, Note_on_c, 11, 68, 90
17, 116969, Note_on_c, 11, 68, 0
17, 116970, Note_on_c, 11, 64, 90
17, 116999, Note_on_c, 11, 64, 0
17, 117000, Note_on_c, 11, 59, 90
17, 117059, Note_on_c, 11, 59, 0
17, 117060, Note_on_c, 11, 59, 90
17, 117119, Note_on_c, 11, 59, 0
17, 117120, Note_on_c, 11, 57, 90
17, 117179, Note_on_c, 11, 57, 0
17, 117180, Note_on_c, 11, 57, 90
17, 117239, Note_on_c, 11, 57, 0
17, 117240, Note_on_c, 11, 59, 90
17, 117299, Note_on_c, 11, 59, 0
17, 117300, Note_on_c, 11, 59, 90
17, 117359, Note_on_c, 11, 59, 0
17, 117360, Note_on_c, 11, 61, 90
17, 117419, Note_on_c, 11, 61, 0
17, 117420, Note_on_c, 11, 61, 90
17, 117449, Note_on_c, 11, 61, 0
17, 117450, Note_on_c, 11, 62, 90
17, 117479, Note_on_c, 11, 62, 0
17, 117480, Note_on_c, 11, 64, 90
17, 117539, Note_on_c, 11, 64, 0
17, 117540, Note_on_c, 11, 66, 90
17, 117569, Note_on_c, 11, 66, 0
17, 117570, Note_on_c, 11, 68, 90
17, 117599, Note_on_c, 11, 68, 0
17, 117600, Note_on_c, 11, 69, 90
17, 117659, Note_on_c, 11, 69, 0
17, 118020, Note_on_c, 11, 61, 90
17, 118049, Note_on_c, 11, 61, 0
17, 118050, Note_on_c, 11, 62, 90
17, 118079, Note_on_c, 11, 62, 0
17, 118080, Note_on_c, 11, 64, 90
17, 118139, Note_on_c, 11, 64, 0
17, 118140, Note_on_c, 11, 66, 90
17, 118199, Note_on_c, 11, 66, 0
17, 118200, Note_on_c, 11, 64, 90
17, 118259, Note_on_c, 11, 64, 0
17, 118260, Note_on_c, 11, 62, 90
17, 118319, Note_on_c, 11, 62, 0
17, 118320, Note_on_c, 11, 64, 90
17, 118379, Note_on_c, 11, 64, 0
17, 118380, Note_on_c, 11, 62, 90
17, 118409, Note_on_c, 11, 62, 0
17, 118410, Note_on_c, 11, 64, 90
17, 118439, Note_on_c, 11, 64, 0
17, 118440, Note_on_c, 11, 61, 90
17, 118499, Note_on_c, 11, 61, 0
17, 118500, Note_on_c, 11, 62, 90
17, 118559, Note_on_c, 11, 62, 0
17, 118560, Note_on_c, 11, 64, 90
17, 118619, Note_on_c, 11, 64, 0
17, 118620, Note_on_c, 11, 64, 90
17, 118679, Note_on_c, 11, 64, 0
17, 118680, Note_on_c, 11, 64, 90
17, 118739, Note_on_c, 11, 64, 0
17, 118740, Note_on_c, 11, 64, 90
17, 118799, Note_on_c, 11, 64, 0
17, 118800, Note_on_c, 11, 64, 90
17, 118859, Note_on_c, 11, 64, 0
17, 118860, Note_on_c, 11, 64, 90
17, 118919, Note_on_c, 11, 64, 0
17, 118920, Note_on_c, 11, 64, 90
17, 118979, Note_on_c, 11, 64, 0
17, 118980, Note_on_c, 11, 64, 90
17, 119039, Note_on_c, 11, 64, 0
17, 119040, Note_on_c, 11, 64, 90
17, 119099, Note_on_c, 11, 64, 0
17, 119100, Note_on_c, 11, 62, 90
17, 119129, Note_on_c, 11, 62, 0
17, 119130, Note_on_c, 11, 64, 90
17, 119159, Note_on_c, 11, 64, 0
17, 119160, Note_on_c, 11, 61, 90
17, 119189, Note_on_c, 11, 61, 0
17, 119190, Note_on_c, 11, 62, 90
17, 119219, Note_on_c, 11, 62, 0
17, 119220, Note_on_c, 11, 64, 90
17, 119249, Note_on_c, 11, 64, 0
17, 119250, Note_on_c, 11, 66, 90
17, 119279, Note_on_c, 11, 66, 0
17, 119280, Note_on_c, 11, 68, 90
17, 119339, Note_on_c, 11, 68, 0
17, 119340, Note_on_c, 11, 66, 90
17, 119399, Note_on_c, 11, 66, 0
17, 119400, Note_on_c, 11, 64, 90
17, 119459, Note_on_c, 11, 64, 0
17, 119460, Note_on_c, 11, 63, 90
17, 119519, Note_on_c, 11, 63, 0
17, 119520, Note_on_c, 11, 64, 90
17, 119579, Note_on_c, 11, 64, 0
17, 119580, Note_on_c, 11, 64, 90
17, 119639, Note_on_c, 11, 64, 0
17, 119640, Note_on_c, 11, 64, 90
17, 119699, Note_on_c, 11, 64, 0
17, 119700, Note_on_c, 11, 61, 90
17, 119759, Note_on_c, 11, 61, 0
17, 119760, Note_on_c, 11, 61, 90
17, 119819, Note_on_c, 11, 61, 0
17, 119820, Note_on_c, 11, 54, 90
17, 119879, Note_on_c, 11, 54, 0
17, 119880, Note_on_c, 11, 59, 90
17, 119939, Note_on_c, 11, 59, 0
17, 119940, Note_on_c, 11, 59, 90
17, 119999, Note_on_c, 11, 59, 0
17, 120000, Note_on_c, 11, 59, 90
17, 120059, Note_on_c, 11, 59, 0
17, 120060, Note_on_c, 11, 59, 90
17, 120119, Note_on_c, 11, 59, 0
17, 120120, Note_on_c, 11, 59, 90
17, 120179, Note_on_c, 11, 59, 0
17, 120180, Note_on_c, 11, 57, 90
17, 120239, Note_on_c, 11, 57, 0
17, 120240, Note_on_c, 11, 56, 90
17, 120419, Note_on_c, 11, 56, 0
17, 120420, Note_on_c, 11, 59, 90
17, 120479, Note_on_c, 11, 59, 0
17, 120480, Note_on_c, 11, 64, 90
17, 120509, Note_on_c, 11, 64, 0
17, 120510, Note_on_c, 11, 62, 90
17, 120539, Note_on_c, 11, 62, 0
17, 120540, Note_on_c, 11, 61, 90
17, 120569, Note_on_c, 11, 61, 0
17, 120570, Note_on_c, 11, 62, 90
17, 120599, Note_on_c, 11, 62, 0
17, 120600, Note_on_c, 11, 64, 90
17, 120629, Note_on_c, 11, 64, 0
17, 120630, Note_on_c, 11, 66, 90
17, 120659, Note_on_c, 11, 66, 0
17, 120660, Note_on_c, 11, 64, 90
17, 120689, Note_on_c, 11, 64, 0
17, 120690, Note_on_c, 11, 66, 90
17, 120719, Note_on_c, 11, 66, 0
17, 120720, Note_on_c, 11, 64, 90
17, 120779, Note_on_c, 11, 64, 0
17, 120780, Note_on_c, 11, 59, 90
17, 120839, Note_on_c, 11, 59, 0
17, 120840, Note_on_c, 11, 59, 90
17, 120899, Note_on_c, 11, 59, 0
17, 120900, Note_on_c, 11, 64, 90
17, 120959, Note_on_c, 11, 64, 0
17, 120960, Note_on_c, 11, 62, 90
17, 121019, Note_on_c, 11, 62, 0
17, 121020, Note_on_c, 11, 62, 90
17, 121079, Note_on_c, 11, 62, 0
17, 121080, Note_on_c, 11, 62, 90
17, 121109, Note_on_c, 11, 62, 0
17, 121110, Note_on_c, 11, 61, 90
17, 121139, Note_on_c, 11, 61, 0
17, 121140, Note_on_c, 11, 62, 90
17, 121169, Note_on_c, 11, 62, 0
17, 121170, Note_on_c, 11, 64, 90
17, 121199, Note_on_c, 11, 64, 0
17, 121200, Note_on_c, 11, 66, 90
17, 121259, Note_on_c, 11, 66, 0
17, 121260, Note_on_c, 11, 62, 90
17, 121319, Note_on_c, 11, 62, 0
17, 121320, Note_on_c, 11, 62, 90
17, 121349, Note_on_c, 11, 62, 0
17, 121350, Note_on_c, 11, 61, 90
17, 121379, Note_on_c, 11, 61, 0
17, 121380, Note_on_c, 11, 59, 90
17, 121409, Note_on_c, 11, 59, 0
17, 121410, Note_on_c, 11, 57, 90
17, 121439, Note_on_c, 11, 57, 0
17, 121440, Note_on_c, 11, 64, 90
17, 121499, Note_on_c, 11, 64, 0
17, 121500, Note_on_c, 11, 64, 90
17, 121559, Note_on_c, 11, 64, 0
17, 121560, Note_on_c, 11, 64, 90
17, 121589, Note_on_c, 11, 64, 0
17, 121590, Note_on_c, 11, 66, 90
17, 121619, Note_on_c, 11, 66, 0
17, 121620, Note_on_c, 11, 68, 90
17, 121649, Note_on_c, 11, 68, 0
17, 121650, Note_on_c, 11, 66, 90
17, 121679, Note_on_c, 11, 66, 0
17, 121680, Note_on_c, 11, 64, 90
17, 121739, Note_on_c, 11, 64, 0
17, 121740, Note_on_c, 11, 64, 90
17, 121799, Note_on_c, 11, 64, 0
17, 121800, Note_on_c, 11, 64, 90
17, 121859, Note_on_c, 11, 64, 0
17, 121860, Note_on_c, 11, 64, 90
17, 121919, Note_on_c, 11, 64, 0
17, 121920, Note_on_c, 11, 64, 90
17, 121979, Note_on_c, 11, 64, 0
17, 121980, Note_on_c, 11, 64, 90
17, 122039, Note_on_c, 11, 64, 0
17, 122040, Note_on_c, 11, 62, 90
17, 122099, Note_on_c, 11, 62, 0
17, 122100, Note_on_c, 11, 59, 90
17, 122159, Note_on_c, 11, 59, 0
17, 122160, Note_on_c, 11, 61, 90
17, 122219, Note_on_c, 11, 61, 0
17, 122220, Note_on_c, 11, 61, 90
17, 122249, Note_on_c, 11, 61, 0
17, 122250, Note_on_c, 11, 62, 90
17, 122279, Note_on_c, 11, 62, 0
17, 122280, Note_on_c, 11, 64, 90
17, 122339, Note_on_c, 11, 64, 0
17, 122340, Note_on_c, 11, 66, 90
17, 122369, Note_on_c, 11, 66, 0
17, 122370, Note_on_c, 11, 68, 90
17, 122399, Note_on_c, 11, 68, 0
17, 122400, Note_on_c, 11, 69, 90
17, 122459, Note_on_c, 11, 69, 0
17, 122460, Note_on_c, 11, 64, 90
17, 122519, Note_on_c, 11, 64, 0
17, 122520, Note_on_c, 11, 61, 90
17, 122579, Note_on_c, 11, 61, 0
17, 122580, Note_on_c, 11, 59, 90
17, 122639, Note_on_c, 11, 59, 0
17, 122640, Note_on_c, 11, 61, 90
17, 122759, Note_on_c, 11, 61, 0
17, 321060, Note_on_c, 11, 66, 90
17, 321299, Note_on_c, 11, 66, 0
17, 321300, Note_on_c, 11, 62, 90
17, 321539, Note_on_c, 11, 62, 0
17, 321540, Note_on_c, 11, 57, 90
17, 321659, Note_on_c, 11, 57, 0
17, 321660, Note_on_c, 11, 57, 90
17, 321779, Note_on_c, 11, 57, 0
17, 321780, Note_on_c, 11, 61, 90
17, 321899, Note_on_c, 11, 61, 0
17, 321900, Note_on_c, 11, 62, 90
17, 321959, Note_on_c, 11, 62, 0
17, 321960, Note_on_c, 11, 64, 90
17, 322019, Note_on_c, 11, 64, 0
17, 322020, Note_on_c, 11, 57, 90
17, 322139, Note_on_c, 11, 57, 0
17, 322140, Note_on_c, 11, 57, 90
17, 322259, Note_on_c, 11, 57, 0
17, 322260, Note_on_c, 11, 61, 90
17, 322379, Note_on_c, 11, 61, 0
17, 322380, Note_on_c, 11, 62, 90
17, 322439, Note_on_c, 11, 62, 0
17, 322440, Note_on_c, 11, 64, 90
17, 322499, Note_on_c, 11, 64, 0
17, 322500, Note_on_c, 11, 66, 90
17, 322739, Note_on_c, 11, 66, 0
17, 322740, Note_on_c, 11, 62, 90
17, 322979, Note_on_c, 11, 62, 0
17, 322980, Note_on_c, 11, 62, 90
17, 323099, Note_on_c, 11, 62, 0
17, 323100, Note_on_c, 11, 62, 90
17, 323219, Note_on_c, 11, 62, 0
17, 323220, Note_on_c, 11, 61, 90
17, 323339, Note_on_c, 11, 61, 0
17, 323340, Note_on_c, 11, 62, 90
17, 323399, Note_on_c, 11, 62, 0
17, 323400, Note_on_c, 11, 64, 90
17, 323459, Note_on_c, 11, 64, 0
17, 323460, Note_on_c, 11, 62, 90
17, 323579, Note_on_c, 11, 62, 0
17, 323580, Note_on_c, 11, 62, 90
17, 323699, Note_on_c, 11, 62, 0
17, 323700, Note_on_c, 11, 61, 90
17, 323819, Note_on_c, 11, 61, 0
17, 323820, Note_on_c, 11, 62, 90
17, 323879, Note_on_c, 11, 62, 0
17, 323880, Note_on_c, 11, 64, 90
17, 323939, Note_on_c, 11, 64, 0
17, 323940, Note_on_c, 11, 66, 90
17, 324179, Note_on_c, 11, 66, 0
17, 324180, Note_on_c, 11, 62, 90
17, 324419, Note_on_c, 11, 62, 0
17, 324420, Note_on_c, 11, 57, 90
17, 324539, Note_on_c, 11, 57, 0
17, 324540, Note_on_c, 11, 54, 90
17, 324659, Note_on_c, 11, 54, 0
17, 324660, Note_on_c, 11, 62, 90
17, 324779, Note_on_c, 11, 62, 0
17, 324780, Note_on_c, 11, 57, 90
17, 324899, Note_on_c, 11, 57, 0
17, 324900, Note_on_c, 11, 66, 90
17, 325019, Note_on_c, 11, 66, 0
17, 325020, Note_on_c, 11, 62, 90
17, 325139, Note_on_c, 11, 62, 0
17, 325140, Note_on_c, 11, 57, 90
17, 325259, Note_on_c, 11, 57, 0
17, 325260, Note_on_c, 11, 54, 90
17, 325379, Note_on_c, 11, 54, 0
17, 325380, Note_on_c, 11, 62, 90
17, 325499, Note_on_c, 11, 62, 0
17, 325500, Note_on_c, 11, 62, 90
17, 325619, Note_on_c, 11, 62, 0
17, 325620, Note_on_c, 11, 62, 90
17, 325739, Note_on_c, 11, 62, 0
17, 325740, Note_on_c, 11, 62, 90
17, 325859, Note_on_c, 11, 62, 0
17, 325860, Note_on_c, 11, 62, 90
17, 325979, Note_on_c, 11, 62, 0
17, 325980, Note_on_c, 11, 57, 90
17, 326099, Note_on_c, 11, 57, 0
17, 326100, Note_on_c, 11, 57, 90
17, 326339, Note_on_c, 11, 57, 0
17, 326340, Note_on_c, 11, 69, 90
17, 326579, Note_on_c, 11, 69, 0
17, 326580, Note_on_c, 11, 64, 90
17, 326819, Note_on_c, 11, 64, 0
17, 326820, Note_on_c, 11, 52, 90
17, 326939, Note_on_c, 11, 52, 0
17, 326940, Note_on_c, 11, 52, 90
17, 327059, Note_on_c, 11, 52, 0
17, 327060, Note_on_c, 11, 56, 90
17, 327179, Note_on_c, 11, 56, 0
17, 327180, Note_on_c, 11, 57, 90
17, 327239, Note_on_c, 11, 57, 0
17, 327240, Note_on_c, 11, 59, 90
17, 327299, Note_on_c, 11, 59, 0
17, 327300, Note_on_c, 11, 52, 90
17, 327419, Note_on_c, 11, 52, 0
17, 327420, Note_on_c, 11, 52, 90
17, 327539, Note_on_c, 11, 52, 0
17, 327540, Note_on_c, 11, 56, 90
17, 327659, Note_on_c, 11, 56, 0
17, 327660, Note_on_c, 11, 57, 90
17, 327719, Note_on_c, 11, 57, 0
17, 327720, Note_on_c, 11, 59, 90
17, 327779, Note_on_c, 11, 59, 0
17, 327780, Note_on_c, 11, 64, 90
17, 328019, Note_on_c, 11, 64, 0
17, 328020, Note_on_c, 11, 61, 90
17, 328259, Note_on_c, 11, 61, 0
17, 328260, Note_on_c, 11, 57, 90
17, 328379, Note_on_c, 11, 57, 0
17, 328380, Note_on_c, 11, 57, 90
17, 328499, Note_on_c, 11, 57, 0
17, 328500, Note_on_c, 11, 56, 90
17, 328619, Note_on_c, 11, 56, 0
17, 328620, Note_on_c, 11, 57, 90
17, 328679, Note_on_c, 11, 57, 0
17, 328680, Note_on_c, 11, 59, 90
17, 328739, Note_on_c, 11, 59, 0
17, 328740, Note_on_c, 11, 57, 90
17, 328859, Note_on_c, 11, 57, 0
17, 328860, Note_on_c, 11, 57, 90
17, 328979, Note_on_c, 11, 57, 0
17, 328980, Note_on_c, 11, 56, 90
17, 329099, Note_on_c, 11, 56, 0
17, 329100, Note_on_c, 11, 57, 90
17, 329159, Note_on_c, 11, 57, 0
17, 329160, Note_on_c, 11, 59, 90
17, 329219, Note_on_c, 11, 59, 0
17, 329220, Note_on_c, 11, 61, 90
17, 329459, Note_on_c, 11, 61, 0
17, 329460, Note_on_c, 11, 57, 90
17, 329699, Note_on_c, 11, 57, 0
17, 329700, Note_on_c, 11, 52, 90
17, 329819, Note_on_c, 11, 52, 0
17, 329820, Note_on_c, 11, 52, 90
17, 329939, Note_on_c, 11, 52, 0
17, 329940, Note_on_c, 11, 57, 90
17, 330059, Note_on_c, 11, 57, 0
17, 330060, Note_on_c, 11, 52, 90
17, 330179, Note_on_c, 11, 52, 0
17, 330180, Note_on_c, 11, 61, 90
17, 330299, Note_on_c, 11, 61, 0
17, 330300, Note_on_c, 11, 57, 90
17, 330419, Note_on_c, 11, 57, 0
17, 330420, Note_on_c, 11, 52, 90
17, 330539, Note_on_c, 11, 52, 0
17, 330540, Note_on_c, 11, 52, 90
17, 330659, Note_on_c, 11, 52, 0
17, 330660, Note_on_c, 11, 59, 90
17, 330779, Note_on_c, 11, 59, 0
17, 330780, Note_on_c, 11, 59, 90
17, 330899, Note_on_c, 11, 59, 0
17, 330900, Note_on_c, 11, 57, 90
17, 331019, Note_on_c, 11, 57, 0
17, 331020, Note_on_c, 11, 55, 90
17, 331139, Note_on_c, 11, 55, 0
17, 331140, Note_on_c, 11, 52, 90
17, 331259, Note_on_c, 11, 52, 0
17, 331260, Note_on_c, 11, 57, 90
17, 331379, Note_on_c, 11, 57, 0
17, 331380, Note_on_c, 11, 54, 90
17, 331619, Note_on_c, 11, 54, 0
17, 332100, Note_on_c, 11, 57, 90
17, 332219, Note_on_c, 11, 57, 0
17, 332220, Note_on_c, 11, 57, 90
17, 332339, Note_on_c, 11, 57, 0
17, 332340, Note_on_c, 11, 61, 90
17, 332459, Note_on_c, 11, 61, 0
17, 332460, Note_on_c, 11, 62, 90
17, 332519, Note_on_c, 11, 62, 0
17, 332520, Note_on_c, 11, 64, 90
17, 332579, Note_on_c, 11, 64, 0
17, 332580, Note_on_c, 11, 57, 90
17, 332699, Note_on_c, 11, 57, 0
17, 332700, Note_on_c, 11, 57, 90
17, 332819, Note_on_c, 11, 57, 0
17, 332820, Note_on_c, 11, 61, 90
17, 332939, Note_on_c, 11, 61, 0
17, 332940, Note_on_c, 11, 62, 90
17, 332999, Note_on_c, 11, 62, 0
17, 333000, Note_on_c, 11, 64, 90
17, 333059, Note_on_c, 11, 64, 0
17, 333060, Note_on_c, 11, 57, 90
17, 333299, Note_on_c, 11, 57, 0
17, 333540, Note_on_c, 11, 62, 90
17, 333659, Note_on_c, 11, 62, 0
17, 333660, Note_on_c, 11, 62, 90
17, 333779, Note_on_c, 11, 62, 0
17, 333780, Note_on_c, 11, 61, 90
17, 333899, Note_on_c, 11, 61, 0
17, 333900, Note_on_c, 11, 62, 90
17, 333959, Note_on_c, 11, 62, 0
17, 333960, Note_on_c, 11, 64, 90
17, 334019, Note_on_c, 11, 64, 0
17, 334020, Note_on_c, 11, 62, 90
17, 334139, Note_on_c, 11, 62, 0
17, 334140, Note_on_c, 11, 62, 90
17, 334259, Note_on_c, 11, 62, 0
17, 334260, Note_on_c, 11, 61, 90
17, 334379, Note_on_c, 11, 61, 0
17, 334380, Note_on_c, 11, 62, 90
17, 334439, Note_on_c, 11, 62, 0
17, 334440, Note_on_c, 11, 64, 90
17, 334499, Note_on_c, 11, 64, 0
17, 334500, Note_on_c, 11, 66, 90
17, 334739, Note_on_c, 11, 66, 0
17, 334740, Note_on_c, 11, 62, 90
17, 334979, Note_on_c, 11, 62, 0
17, 334980, Note_on_c, 11, 62, 90
17, 335099, Note_on_c, 11, 62, 0
17, 335100, Note_on_c, 11, 57, 90
17, 335219, Note_on_c, 11, 57, 0
17, 335220, Note_on_c, 11, 66, 90
17, 335339, Note_on_c, 11, 66, 0
17, 335340, Note_on_c, 11, 62, 90
17, 335459, Note_on_c, 11, 62, 0
17, 335460, Note_on_c, 11, 69, 90
17, 335579, Note_on_c, 11, 69, 0
17, 335580, Note_on_c, 11, 66, 90
17, 335699, Note_on_c, 11, 66, 0
17, 335700, Note_on_c, 11, 74, 90
17, 335819, Note_on_c, 11, 74, 0
17, 335820, Note_on_c, 11, 69, 90
17, 335939, Note_on_c, 11, 69, 0
17, 335940, Note_on_c, 11, 69, 90
17, 336059, Note_on_c, 11, 69, 0
17, 336060, Note_on_c, 11, 69, 90
17, 336119, Note_on_c, 11, 69, 0
17, 336120, Note_on_c, 11, 67, 90
17, 336179, Note_on_c, 11, 67, 0
17, 336180, Note_on_c, 11, 71, 90
17, 336299, Note_on_c, 11, 71, 0
17, 336300, Note_on_c, 11, 69, 90
17, 336359, Note_on_c, 11, 69, 0
17, 336360, Note_on_c, 11, 67, 90
17, 336419, Note_on_c, 11, 67, 0
17, 336420, Note_on_c, 11, 69, 90
17, 336539, Note_on_c, 11, 69, 0
17, 336540, Note_on_c, 11, 67, 90
17, 336599, Note_on_c, 11, 67, 0
17, 336600, Note_on_c, 11, 66, 90
17, 336659, Note_on_c, 11, 66, 0
17, 336660, Note_on_c, 11, 64, 90
17, 336899, Note_on_c, 11, 64, 0
17, 338820, Note_on_c, 11, 57, 90
17, 338939, Note_on_c, 11, 57, 0
17, 338940, Note_on_c, 11, 57, 90
17, 339059, Note_on_c, 11, 57, 0
17, 339060, Note_on_c, 11, 56, 90
17, 339179, Note_on_c, 11, 56, 0
17, 339180, Note_on_c, 11, 57, 90
17, 339239, Note_on_c, 11, 57, 0
17, 339240, Note_on_c, 11, 59, 90
17, 339299, Note_on_c, 11, 59, 0
17, 339300, Note_on_c, 11, 57, 90
17, 339419, Note_on_c, 11, 57, 0
17, 339420, Note_on_c, 11, 57, 90
17, 339539, Note_on_c, 11, 57, 0
17, 339540, Note_on_c, 11, 56, 90
17, 339659, Note_on_c, 11, 56, 0
17, 339660, Note_on_c, 11, 57, 90
17, 339719, Note_on_c, 11, 57, 0
17, 339720, Note_on_c, 11, 59, 90
17, 339779, Note_on_c, 11, 59, 0
17, 339780, Note_on_c, 11, 61, 90
17, 340019, Note_on_c, 11, 61, 0
17, 340020, Note_on_c, 11, 69, 90
17, 340259, Note_on_c, 11, 69, 0
17, 340260, Note_on_c, 11, 64, 90
17, 340379, Note_on_c, 11, 64, 0
17, 340380, Note_on_c, 11, 61, 90
17, 340499, Note_on_c, 11, 61, 0
17, 340500, Note_on_c, 11, 69, 90
17, 340619, Note_on_c, 11, 69, 0
17, 340620, Note_on_c, 11, 66, 90
17, 340739, Note_on_c, 11, 66, 0
17, 340740, Note_on_c, 11, 73, 90
17, 340859, Note_on_c, 11, 73, 0
17, 340860, Note_on_c, 11, 69, 90
17, 340979, Note_on_c, 11, 69, 0
17, 340980, Note_on_c, 11, 64, 90
17, 341099, Note_on_c, 11, 64, 0
17, 341100, Note_on_c, 11, 61, 90
17, 341219, Note_on_c, 11, 61, 0
17, 341220, Note_on_c, 11, 66, 90
17, 341339, Note_on_c, 11, 66, 0
17, 341340, Note_on_c, 11, 71, 90
17, 341459, Note_on_c, 11, 71, 0
17, 341460, Note_on_c, 11, 69, 90
17, 341579, Note_on_c, 11, 69, 0
17, 341580, Note_on_c, 11, 67, 90
17, 341699, Note_on_c, 11, 67, 0
17, 341700, Note_on_c, 11, 64, 90
17, 341819, Note_on_c, 11, 64, 0
17, 341820, Note_on_c, 11, 69, 90
17, 341939, Note_on_c, 11, 69, 0
17, 341940, Note_on_c, 11, 66, 90
17, 342179, Note_on_c, 11, 66, 0
17, 343140, Note_on_c, 11, 74, 90
17, 343379, Note_on_c, 11, 74, 0
17, 343380, Note_on_c, 11, 71, 90
17, 343619, Note_on_c, 11, 71, 0
17, 344580, Note_on_c, 11, 64, 90
17, 344819, Note_on_c, 11, 64, 0
17, 344820, Note_on_c, 11, 64, 90
17, 345059, Note_on_c, 11, 64, 0
17, 346020, Note_on_c, 11, 69, 90
17, 346259, Note_on_c, 11, 69, 0
17, 346260, Note_on_c, 11, 68, 90
17, 346379, Note_on_c, 11, 68, 0
17, 346380, Note_on_c, 11, 69, 90
17, 346499, Note_on_c, 11, 69, 0
17, 346500, Note_on_c, 11, 71, 90
17, 346739, Note_on_c, 11, 71, 0
17, 346740, Note_on_c, 11, 64, 90
17, 346979, Note_on_c, 11, 64, 0
17, 346980, Note_on_c, 11, 64, 90
17, 347219, Note_on_c, 11, 64, 0
17, 347220, Note_on_c, 11, 64, 90
17, 347459, Note_on_c, 11, 64, 0
17, 347460, Note_on_c, 11, 61, 90
17, 347699, Note_on_c, 11, 61, 0
17, 347940, Note_on_c, 11, 66, 90
17, 348179, Note_on_c, 11, 66, 0
17, 348180, Note_on_c, 11, 62, 90
17, 348419, Note_on_c, 11, 62, 0
17, 348420, Note_on_c, 11, 57, 90
17, 348539, Note_on_c, 11, 57, 0
17, 348540, Note_on_c, 11, 57, 90
17, 348659, Note_on_c, 11, 57, 0
17, 348660, Note_on_c, 11, 57, 90
17, 348779, Note_on_c, 11, 57, 0
17, 348780, Note_on_c, 11, 57, 90
17, 348899, Note_on_c, 11, 57, 0
17, 348900, Note_on_c, 11, 57, 90
17, 349019, Note_on_c, 11, 57, 0
17, 349020, Note_on_c, 11, 57, 90
17, 349139, Note_on_c, 11, 57, 0
17, 349140, Note_on_c, 11, 57, 90
17, 349259, Note_on_c, 11, 57, 0
17, 349260, Note_on_c, 11, 57, 90
17, 349379, Note_on_c, 11, 57, 0
17, 349380, Note_on_c, 11, 69, 90
17, 349619, Note_on_c, 11, 69, 0
17, 349620, Note_on_c, 11, 66, 90
17, 349859, Note_on_c, 11, 66, 0
17, 350820, Note_on_c, 11, 74, 90
17, 351059, Note_on_c, 11, 74, 0
17, 351060, Note_on_c, 11, 69, 90
17, 351299, Note_on_c, 11, 69, 0
17, 351300, Note_on_c, 11, 66, 90
17, 351419, Note_on_c, 11, 66, 0
17, 351420, Note_on_c, 11, 62, 90
17, 351539, Note_on_c, 11, 62, 0
17, 351540, Note_on_c, 11, 69, 90
17, 351659, Note_on_c, 11, 69, 0
17, 351660, Note_on_c, 11, 66, 90
17, 351779, Note_on_c, 11, 66, 0
17, 351780, Note_on_c, 11, 74, 90
17, 351899, Note_on_c, 11, 74, 0
17, 351900, Note_on_c, 11, 69, 90
17, 352019, Note_on_c, 11, 69, 0
17, 352020, Note_on_c, 11, 66, 90
17, 352139, Note_on_c, 11, 66, 0
17, 352140, Note_on_c, 11, 62, 90
17, 352259, Note_on_c, 11, 62, 0
17, 352260, Note_on_c, 11, 69, 90
17, 352379, Note_on_c, 11, 69, 0
17, 352380, Note_on_c, 11, 69, 90
17, 352439, Note_on_c, 11, 69, 0
17, 352440, Note_on_c, 11, 67, 90
17, 352499, Note_on_c, 11, 67, 0
17, 352500, Note_on_c, 11, 71, 90
17, 352619, Note_on_c, 11, 71, 0
17, 352620, Note_on_c, 11, 69, 90
17, 352679, Note_on_c, 11, 69, 0
17, 352680, Note_on_c, 11, 67, 90
17, 352739, Note_on_c, 11, 67, 0
17, 352740, Note_on_c, 11, 69, 90
17, 352859, Note_on_c, 11, 69, 0
17, 352860, Note_on_c, 11, 67, 90
17, 352919, Note_on_c, 11, 67, 0
17, 352920, Note_on_c, 11, 66, 90
17, 352979, Note_on_c, 11, 66, 0
17, 352980, Note_on_c, 11, 64, 90
17, 353219, Note_on_c, 11, 64, 0
17, 353220, Note_on_c, 11, 64, 90
17, 353459, Note_on_c, 11, 64, 0
17, 353460, Note_on_c, 11, 61, 90
17, 353699, Note_on_c, 11, 61, 0
17, 353700, Note_on_c, 11, 64, 90
17, 353819, Note_on_c, 11, 64, 0
17, 353820, Note_on_c, 11, 64, 90
17, 353939, Note_on_c, 11, 64, 0
17, 353940, Note_on_c, 11, 68, 90
17, 354059, Note_on_c, 11, 68, 0
17, 354060, Note_on_c, 11, 69, 90
17, 354119, Note_on_c, 11, 69, 0
17, 354120, Note_on_c, 11, 71, 90
17, 354179, Note_on_c, 11, 71, 0
17, 354180, Note_on_c, 11, 64, 90
17, 354299, Note_on_c, 11, 64, 0
17, 354300, Note_on_c, 11, 64, 90
17, 354419, Note_on_c, 11, 64, 0
17, 354420, Note_on_c, 11, 68, 90
17, 354539, Note_on_c, 11, 68, 0
17, 354540, Note_on_c, 11, 69, 90
17, 354599, Note_on_c, 11, 69, 0
17, 354600, Note_on_c, 11, 71, 90
17, 354659, Note_on_c, 11, 71, 0
17, 354660, Note_on_c, 11, 73, 90
17, 354899, Note_on_c, 11, 73, 0
17, 354900, Note_on_c, 11, 69, 90
17, 355139, Note_on_c, 11, 69, 0
17, 356100, Note_on_c, 11, 69, 90
17, 356339, Note_on_c, 11, 69, 0
17, 356340, Note_on_c, 11, 64, 90
17, 356579, Note_on_c, 11, 64, 0
17, 356580, Note_on_c, 11, 64, 90
17, 356699, Note_on_c, 11, 64, 0
17, 356700, Note_on_c, 11, 61, 90
17, 356819, Note_on_c, 11, 61, 0
17, 356820, Note_on_c, 11, 69, 90
17, 356939, Note_on_c, 11, 69, 0
17, 356940, Note_on_c, 11, 64, 90
17, 357059, Note_on_c, 11, 64, 0
17, 357060, Note_on_c, 11, 73, 90
17, 357179, Note_on_c, 11, 73, 0
17, 357180, Note_on_c, 11, 69, 90
17, 357299, Note_on_c, 11, 69, 0
17, 357300, Note_on_c, 11, 64, 90
17, 357419, Note_on_c, 11, 64, 0
17, 357420, Note_on_c, 11, 61, 90
17, 357539, Note_on_c, 11, 61, 0
17, 357540, Note_on_c, 11, 66, 90
17, 357659, Note_on_c, 11, 66, 0
17, 357660, Note_on_c, 11, 71, 90
17, 357779, Note_on_c, 11, 71, 0
17, 357780, Note_on_c, 11, 69, 90
17, 357899, Note_on_c, 11, 69, 0
17, 357900, Note_on_c, 11, 67, 90
17, 358019, Note_on_c, 11, 67, 0
17, 358020, Note_on_c, 11, 64, 90
17, 358139, Note_on_c, 11, 64, 0
17, 358140, Note_on_c, 11, 69, 90
17, 358259, Note_on_c, 11, 69, 0
17, 358260, Note_on_c, 11, 66, 90
17, 358499, Note_on_c, 11, 66, 0
17, 359460, Note_on_c, 11, 73, 90
17, 359699, Note_on_c, 11, 73, 0
17, 359700, Note_on_c, 11, 69, 90
17, 359939, Note_on_c, 11, 69, 0
17, 360660, Note_on_c, 11, 65, 90
17, 360899, Note_on_c, 11, 65, 0
17, 360900, Note_on_c, 11, 69, 90
17, 361139, Note_on_c, 11, 69, 0
17, 361140, Note_on_c, 11, 68, 90
17, 361379, Note_on_c, 11, 68, 0
17, 361380, Note_on_c, 11, 61, 90
17, 361619, Note_on_c, 11, 61, 0
17, 361620, Note_on_c, 11, 59, 90
17, 361859, Note_on_c, 11, 59, 0
17, 361860, Note_on_c, 11, 57, 90
17, 362099, Note_on_c, 11, 57, 0
17, 362100, Note_on_c, 11, 56, 90
17, 362339, Note_on_c, 11, 56, 0
17, 362340, Note_on_c, 11, 57, 90
17, 362579, Note_on_c, 11, 57, 0
17, 362700, Note_on_c, 11, 69, 90
17, 362819, Note_on_c, 11, 69, 0
17, 362820, Note_on_c, 11, 66, 90
17, 362939, Note_on_c, 11, 66, 0
17, 362940, Note_on_c, 11, 66, 90
17, 363059, Note_on_c, 11, 66, 0
17, 363060, Note_on_c, 11, 66, 90
17, 363119, Note_on_c, 11, 66, 0
17, 363120, Note_on_c, 11, 65, 90
17, 363179, Note_on_c, 11, 65, 0
17, 363180, Note_on_c, 11, 66, 90
17, 363299, Note_on_c, 11, 66, 0
17, 363300, Note_on_c, 11, 61, 90
17, 363539, Note_on_c, 11, 61, 0
17, 363540, Note_on_c, 11, 61, 90
17, 363779, Note_on_c, 11, 61, 0
17, 363780, Note_on_c, 11, 57, 90
17, 364019, Note_on_c, 11, 57, 0
17, 364260, Note_on_c, 11, 66, 90
17, 364499, Note_on_c, 11, 66, 0
17, 364500, Note_on_c, 11, 62, 90
17, 364739, Note_on_c, 11, 62, 0
17, 364740, Note_on_c, 11, 57, 90
17, 364859, Note_on_c, 11, 57, 0
17, 364860, Note_on_c, 11, 57, 90
17, 364979, Note_on_c, 11, 57, 0
17, 364980, Note_on_c, 11, 61, 90
17, 365099, Note_on_c, 11, 61, 0
17, 365100, Note_on_c, 11, 62, 90
17, 365159, Note_on_c, 11, 62, 0
17, 365160, Note_on_c, 11, 64, 90
17, 365219, Note_on_c, 11, 64, 0
17, 365220, Note_on_c, 11, 57, 90
17, 365339, Note_on_c, 11, 57, 0
17, 365340, Note_on_c, 11, 57, 90
17, 365459, Note_on_c, 11, 57, 0
17, 365460, Note_on_c, 11, 61, 90
17, 365579, Note_on_c, 11, 61, 0
17, 365580, Note_on_c, 11, 62, 90
17, 365639, Note_on_c, 11, 62, 0
17, 365640, Note_on_c, 11, 64, 90
17, 365699, Note_on_c, 11, 64, 0
17, 365700, Note_on_c, 11, 66, 90
17, 365939, Note_on_c, 11, 66, 0
17, 365940, Note_on_c, 11, 62, 90
17, 366179, Note_on_c, 11, 62, 0
17, 366180, Note_on_c, 11, 62, 90
17, 366299, Note_on_c, 11, 62, 0
17, 366300, Note_on_c, 11, 62, 90
17, 366419, Note_on_c, 11, 62, 0
17, 366420, Note_on_c, 11, 61, 90
17, 366539, Note_on_c, 11, 61, 0
17, 366540, Note_on_c, 11, 62, 90
17, 366599, Note_on_c, 11, 62, 0
17, 366600, Note_on_c, 11, 64, 90
17, 366659, Note_on_c, 11, 64, 0
17, 366660, Note_on_c, 11, 62, 90
17, 366779, Note_on_c, 11, 62, 0
17, 366780, Note_on_c, 11, 62, 90
17, 366899, Note_on_c, 11, 62, 0
17, 366900, Note_on_c, 11, 61, 90
17, 367019, Note_on_c, 11, 61, 0
17, 367020, Note_on_c, 11, 62, 90
17, 367079, Note_on_c, 11, 62, 0
17, 367080, Note_on_c, 11, 64, 90
17, 367139, Note_on_c, 11, 64, 0
17, 367140, Note_on_c, 11, 66, 90
17, 367379, Note_on_c, 11, 66, 0
17, 367380, Note_on_c, 11, 62, 90
17, 367619, Note_on_c, 11, 62, 0
17, 367620, Note_on_c, 11, 57, 90
17, 367739, Note_on_c, 11, 57, 0
17, 367740, Note_on_c, 11, 54, 90
17, 367859, Note_on_c, 11, 54, 0
17, 367860, Note_on_c, 11, 62, 90
17, 367979, Note_on_c, 11, 62, 0
17, 367980, Note_on_c, 11, 57, 90
17, 368099, Note_on_c, 11, 57, 0
17, 368100, Note_on_c, 11, 66, 90
17, 368219, Note_on_c, 11, 66, 0
17, 368220, Note_on_c, 11, 62, 90
17, 368339, Note_on_c, 11, 62, 0
17, 368340, Note_on_c, 11, 57, 90
17, 368459, Note_on_c, 11, 57, 0
17, 368460, Note_on_c, 11, 54, 90
17, 368579, Note_on_c, 11, 54, 0
17, 368580, Note_on_c, 11, 62, 90
17, 368699, Note_on_c, 11, 62, 0
17, 368700, Note_on_c, 11, 62, 90
17, 368819, Note_on_c, 11, 62, 0
17, 368820, Note_on_c, 11, 62, 90
17, 368939, Note_on_c, 11, 62, 0
17, 368940, Note_on_c, 11, 62, 90
17, 369059, Note_on_c, 11, 62, 0
17, 369060, Note_on_c, 11, 62, 90
17, 369179, Note_on_c, 11, 62, 0
17, 369180, Note_on_c, 11, 57, 90
17, 369299, Note_on_c, 11, 57, 0
17, 369300, Note_on_c, 11, 57, 90
17, 369539, Note_on_c, 11, 57, 0
17, 369540, Note_on_c, 11, 69, 90
17, 369779, Note_on_c, 11, 69, 0
17, 369780, Note_on_c, 11, 64, 90
17, 370019, Note_on_c, 11, 64, 0
17, 370020, Note_on_c, 11, 52, 90
17, 370139, Note_on_c, 11, 52, 0
17, 370140, Note_on_c, 11, 52, 90
17, 370259, Note_on_c, 11, 52, 0
17, 370260, Note_on_c, 11, 56, 90
17, 370379, Note_on_c, 11, 56, 0
17, 370380, Note_on_c, 11, 57, 90
17, 370439, Note_on_c, 11, 57, 0
17, 370440, Note_on_c, 11, 59, 90
17, 370499, Note_on_c, 11, 59, 0
17, 370500, Note_on_c, 11, 52, 90
17, 370619, Note_on_c, 11, 52, 0
17, 370620, Note_on_c, 11, 52, 90
17, 370739, Note_on_c, 11, 52, 0
17, 370740, Note_on_c, 11, 56, 90
17, 370859, Note_on_c, 11, 56, 0
17, 370860, Note_on_c, 11, 57, 90
17, 370919, Note_on_c, 11, 57, 0
17, 370920, Note_on_c, 11, 59, 90
17, 370979, Note_on_c, 11, 59, 0
17, 370980, Note_on_c, 11, 64, 90
17, 371219, Note_on_c, 11, 64, 0
17, 371220, Note_on_c, 11, 61, 90
17, 371459, Note_on_c, 11, 61, 0
17, 371460, Note_on_c, 11, 57, 90
17, 371579, Note_on_c, 11, 57, 0
17, 371580, Note_on_c, 11, 57, 90
17, 371699, Note_on_c, 11, 57, 0
17, 371700, Note_on_c, 11, 56, 90
17, 371819, Note_on_c, 11, 56, 0
17, 371820, Note_on_c, 11, 57, 90
17, 371879, Note_on_c, 11, 57, 0
17, 371880, Note_on_c, 11, 59, 90
17, 371939, Note_on_c, 11, 59, 0
17, 371940, Note_on_c, 11, 57, 90
17, 372059, Note_on_c, 11, 57, 0
17, 372060, Note_on_c, 11, 57, 90
17, 372179, Note_on_c, 11, 57, 0
17, 372180, Note_on_c, 11, 56, 90
17, 372299, Note_on_c, 11, 56, 0
17, 372300, Note_on_c, 11, 57, 90
17, 372359, Note_on_c, 11, 57, 0
17, 372360, Note_on_c, 11, 59, 90
17, 372419, Note_on_c, 11, 59, 0
17, 372420, Note_on_c, 11, 61, 90
17, 372659, Note_on_c, 11, 61, 0
17, 372660, Note_on_c, 11, 57, 90
17, 372899, Note_on_c, 11, 57, 0
17, 372900, Note_on_c, 11, 52, 90
17, 373019, Note_on_c, 11, 52, 0
17, 373020, Note_on_c, 11, 52, 90
17, 373139, Note_on_c, 11, 52, 0
17, 373140, Note_on_c, 11, 57, 90
17, 373259, Note_on_c, 11, 57, 0
17, 373260, Note_on_c, 11, 52, 90
17, 373379, Note_on_c, 11, 52, 0
17, 373380, Note_on_c, 11, 61, 90
17, 373499, Note_on_c, 11, 61, 0
17, 373500, Note_on_c, 11, 57, 90
17, 373619, Note_on_c, 11, 57, 0
17, 373620, Note_on_c, 11, 52, 90
17, 373739, Note_on_c, 11, 52, 0
17, 373740, Note_on_c, 11, 52, 90
17, 373859, Note_on_c, 11, 52, 0
17, 373860, Note_on_c, 11, 59, 90
17, 373979, Note_on_c, 11, 59, 0
17, 373980, Note_on_c, 11, 59, 90
17, 374099, Note_on_c, 11, 59, 0
17, 374100, Note_on_c, 11, 57, 90
17, 374219, Note_on_c, 11, 57, 0
17, 374220, Note_on_c, 11, 55, 90
17, 374339, Note_on_c, 11, 55, 0
17, 374340, Note_on_c, 11, 52, 90
17, 374459, Note_on_c, 11, 52, 0
17, 374460, Note_on_c, 11, 57, 90
17, 374579, Note_on_c, 11, 57, 0
17, 374580, Note_on_c, 11, 54, 90
17, 374819, Note_on_c, 11, 54, 0
17, 375300, Note_on_c, 11, 57, 90
17, 375419, Note_on_c, 11, 57, 0
17, 375420, Note_on_c, 11, 57, 90
17, 375539, Note_on_c, 11, 57, 0
17, 375540, Note_on_c, 11, 61, 90
17, 375659, Note_on_c, 11, 61, 0
17, 375660, Note_on_c, 11, 62, 90
17, 375719, Note_on_c, 11, 62, 0
17, 375720, Note_on_c, 11, 64, 90
17, 375779, Note_on_c, 11, 64, 0
17, 375780, Note_on_c, 11, 57, 90
17, 375899, Note_on_c, 11, 57, 0
17, 375900, Note_on_c, 11, 57, 90
17, 376019, Note_on_c, 11, 57, 0
17, 376020, Note_on_c, 11, 61, 90
17, 376139, Note_on_c, 11, 61, 0
17, 376140, Note_on_c, 11, 62, 90
17, 376199, Note_on_c, 11, 62, 0
17, 376200, Note_on_c, 11, 64, 90
17, 376259, Note_on_c, 11, 64, 0
17, 376260, Note_on_c, 11, 57, 90
17, 376499, Note_on_c, 11, 57, 0
17, 376740, Note_on_c, 11, 62, 90
17, 376859, Note_on_c, 11, 62, 0
17, 376860, Note_on_c, 11, 62, 90
17, 376979, Note_on_c, 11, 62, 0
17, 376980, Note_on_c, 11, 61, 90
17, 377099, Note_on_c, 11, 61, 0
17, 377100, Note_on_c, 11, 62, 90
17, 377159, Note_on_c, 11, 62, 0
17, 377160, Note_on_c, 11, 64, 90
17, 377219, Note_on_c, 11, 64, 0
17, 377220, Note_on_c, 11, 62, 90
17, 377339, Note_on_c, 11, 62, 0
17, 377340, Note_on_c, 11, 62, 90
17, 377459, Note_on_c, 11, 62, 0
17, 377460, Note_on_c, 11, 61, 90
17, 377579, Note_on_c, 11, 61, 0
17, 377580, Note_on_c, 11, 62, 90
17, 377639, Note_on_c, 11, 62, 0
17, 377640, Note_on_c, 11, 64, 90
17, 377699, Note_on_c, 11, 64, 0
17, 377700, Note_on_c, 11, 66, 90
17, 377939, Note_on_c, 11, 66, 0
17, 377940, Note_on_c, 11, 62, 90
17, 378179, Note_on_c, 11, 62, 0
17, 378180, Note_on_c, 11, 62, 90
17, 378299, Note_on_c, 11, 62, 0
17, 378300, Note_on_c, 11, 57, 90
17, 378419, Note_on_c, 11, 57, 0
17, 378420, Note_on_c, 11, 66, 90
17, 378539, Note_on_c, 11, 66, 0
17, 378540, Note_on_c, 11, 62, 90
17, 378659, Note_on_c, 11, 62, 0
17, 378660, Note_on_c, 11, 69, 90
17, 378779, Note_on_c, 11, 69, 0
17, 378780, Note_on_c, 11, 66, 90
17, 378899, Note_on_c, 11, 66, 0
17, 378900, Note_on_c, 11, 74, 90
17, 379019, Note_on_c, 11, 74, 0
17, 379020, Note_on_c, 11, 69, 90
17, 379139, Note_on_c, 11, 69, 0
17, 379140, Note_on_c, 11, 69, 90
17, 379259, Note_on_c, 11, 69, 0
17, 379260, Note_on_c, 11, 69, 90
17, 379319, Note_on_c, 11, 69, 0
17, 379320, Note_on_c, 11, 67, 90
17, 379379, Note_on_c, 11, 67, 0
17, 379380, Note_on_c, 11, 71, 90
17, 379499, Note_on_c, 11, 71, 0
17, 379500, Note_on_c, 11, 69, 90
17, 379559, Note_on_c, 11, 69, 0
17, 379560, Note_on_c, 11, 67, 90
17, 379619, Note_on_c, 11, 67, 0
17, 379620, Note_on_c, 11, 69, 90
17, 379739, Note_on_c, 11, 69, 0
17, 379740, Note_on_c, 11, 67, 90
17, 379799, Note_on_c, 11, 67, 0
17, 379800, Note_on_c, 11, 66, 90
17, 379859, Note_on_c, 11, 66, 0
17, 379860, Note_on_c, 11, 64, 90
17, 380099, Note_on_c, 11, 64, 0
17, 382020, Note_on_c, 11, 57, 90
17, 382139, Note_on_c, 11, 57, 0
17, 382140, Note_on_c, 11, 57, 90
17, 382259, Note_on_c, 11, 57, 0
17, 382260, Note_on_c, 11, 56, 90
17, 382379, Note_on_c, 11, 56, 0
17, 382380, Note_on_c, 11, 57, 90
17, 382439, Note_on_c, 11, 57, 0
17, 382440, Note_on_c, 11, 59, 90
17, 382499, Note_on_c, 11, 59, 0
17, 382500, Note_on_c, 11, 57, 90
17, 382619, Note_on_c, 11, 57, 0
17, 382620, Note_on_c, 11, 57, 90
17, 382739, Note_on_c, 11, 57, 0
17, 382740, Note_on_c, 11, 56, 90
17, 382859, Note_on_c, 11, 56, 0
17, 382860, Note_on_c, 11, 57, 90
17, 382919, Note_on_c, 11, 57, 0
17, 382920, Note_on_c, 11, 59, 90
17, 382979, Note_on_c, 11, 59, 0
17, 382980, Note_on_c, 11, 61, 90
17, 383219, Note_on_c, 11, 61, 0
17, 383220, Note_on_c, 11, 69, 90
17, 383459, Note_on_c, 11, 69, 0
17, 383460, Note_on_c, 11, 64, 90
17, 383579, Note_on_c, 11, 64, 0
17, 383580, Note_on_c, 11, 61, 90
17, 383699, Note_on_c, 11, 61, 0
17, 383700, Note_on_c, 11, 69, 90
17, 383819, Note_on_c, 11, 69, 0
17, 383820, Note_on_c, 11, 66, 90
17, 383939, Note_on_c, 11, 66, 0
17, 383940, Note_on_c, 11, 73, 90
17, 384059, Note_on_c, 11, 73, 0
17, 384060, Note_on_c, 11, 69, 90
17, 384179, Note_on_c, 11, 69, 0
17, 384180, Note_on_c, 11, 64, 90
17, 384299, Note_on_c, 11, 64, 0
17, 384300, Note_on_c, 11, 61, 90
17, 384419, Note_on_c, 11, 61, 0
17, 384420, Note_on_c, 11, 66, 90
17, 384539, Note_on_c, 11, 66, 0
17, 384540, Note_on_c, 11, 71, 90
17, 384659, Note_on_c, 11, 71, 0
17, 384660, Note_on_c, 11, 69, 90
17, 384779, Note_on_c, 11, 69, 0
17, 384780, Note_on_c, 11, 67, 90
17, 384899, Note_on_c, 11, 67, 0
17, 384900, Note_on_c, 11, 64, 90
17, 385019, Note_on_c, 11, 64, 0
17, 385020, Note_on_c, 11, 69, 90
17, 385139, Note_on_c, 11, 69, 0
17, 385140, Note_on_c, 11, 66, 90
17, 385379, Note_on_c, 11, 66, 0
17, 385379, End_track
18, 0, Start_track
18, 0, MIDI_port, 0
18, 0, Title_t, "Pallas"
18, 181560, Control_c, 12, 0, 20
18, 181560, Program_c, 12, 64
18, 181620, Note_on_c, 12, 73, 127
18, 181679, Note_on_c, 12, 73, 0
18, 181680, Note_on_c, 12, 73, 127
18, 181739, Note_on_c, 12, 73, 0
18, 181740, Note_on_c, 12, 66, 127
18, 181799, Note_on_c, 12, 66, 0
18, 181860, Note_on_c, 12, 66, 127
18, 181919, Note_on_c, 12, 66, 0
18, 181920, Note_on_c, 12, 73, 127
18, 181979, Note_on_c, 12, 73, 0
18, 181980, Note_on_c, 12, 73, 127
18, 182039, Note_on_c, 12, 73, 0
18, 182040, Note_on_c, 12, 78, 127
18, 182099, Note_on_c, 12, 78, 0
18, 182100, Note_on_c, 12, 73, 127
18, 182159, Note_on_c, 12, 73, 0
18, 182160, Note_on_c, 12, 70, 127
18, 182219, Note_on_c, 12, 70, 0
18, 182220, Note_on_c, 12, 70, 127
18, 182279, Note_on_c, 12, 70, 0
18, 182280, Note_on_c, 12, 79, 127
18, 182339, Note_on_c, 12, 79, 0
18, 182340, Note_on_c, 12, 78, 127
18, 182399, Note_on_c, 12, 78, 0
18, 182400, Note_on_c, 12, 74, 127
18, 182459, Note_on_c, 12, 74, 0
18, 182460, Note_on_c, 12, 74, 127
18, 182519, Note_on_c, 12, 74, 0
18, 182580, Note_on_c, 12, 66, 127
18, 182639, Note_on_c, 12, 66, 0
18, 182640, Note_on_c, 12, 71, 127
18, 182699, Note_on_c, 12, 71, 0
18, 182700, Note_on_c, 12, 73, 127
18, 182759, Note_on_c, 12, 73, 0
18, 182760, Note_on_c, 12, 74, 127
18, 182819, Note_on_c, 12, 74, 0
18, 182850, Note_on_c, 12, 71, 127
18, 182879, Note_on_c, 12, 71, 0
18, 182880, Note_on_c, 12, 78, 127
18, 182939, Note_on_c, 12, 78, 0
18, 182940, Note_on_c, 12, 78, 127
18, 182999, Note_on_c, 12, 78, 0
18, 183000, Note_on_c, 12, 75, 127
18, 183059, Note_on_c, 12, 75, 0
18, 183060, Note_on_c, 12, 71, 127
18, 183119, Note_on_c, 12, 71, 0
18, 183120, Note_on_c, 12, 80, 127
18, 183239, Note_on_c, 12, 80, 0
18, 183300, Note_on_c, 12, 71, 127
18, 183359, Note_on_c, 12, 71, 0
18, 183360, Note_on_c, 12, 65, 127
18, 183419, Note_on_c, 12, 65, 0
18, 183420, Note_on_c, 12, 65, 127
18, 183479, Note_on_c, 12, 65, 0
18, 183480, Note_on_c, 12, 65, 127
18, 183539, Note_on_c, 12, 65, 0
18, 183540, Note_on_c, 12, 66, 127
18, 183599, Note_on_c, 12, 66, 0
18, 183600, Note_on_c, 12, 68, 127
18, 183659, Note_on_c, 12, 68, 0
18, 183660, Note_on_c, 12, 61, 127
18, 183719, Note_on_c, 12, 61, 0
18, 183750, Note_on_c, 12, 71, 127
18, 183779, Note_on_c, 12, 71, 0
18, 183780, Note_on_c, 12, 74, 127
18, 183809, Note_on_c, 12, 74, 0
18, 183810, Note_on_c, 12, 73, 127
18, 183839, Note_on_c, 12, 73, 0
18, 183840, Note_on_c, 12, 71, 127
18, 183959, Note_on_c, 12, 71, 0
18, 183960, Note_on_c, 12, 78, 127
18, 184079, Note_on_c, 12, 78, 0
18, 184140, Note_on_c, 12, 75, 127
18, 184169, Note_on_c, 12, 75, 0
18, 184170, Note_on_c, 12, 76, 127
18, 184199, Note_on_c, 12, 76, 0
18, 184200, Note_on_c, 12, 78, 127
18, 184259, Note_on_c, 12, 78, 0
18, 184260, Note_on_c, 12, 71, 127
18, 184319, Note_on_c, 12, 71, 0
18, 184320, Note_on_c, 12, 76, 127
18, 184439, Note_on_c, 12, 76, 0
18, 184500, Note_on_c, 12, 80, 127
18, 184559, Note_on_c, 12, 80, 0
18, 184560, Note_on_c, 12, 73, 127
18, 184619, Note_on_c, 12, 73, 0
18, 184620, Note_on_c, 12, 73, 127
18, 184679, Note_on_c, 12, 73, 0
18, 184680, Note_on_c, 12, 75, 127
18, 184739, Note_on_c, 12, 75, 0
18, 184740, Note_on_c, 12, 76, 127
18, 184799, Note_on_c, 12, 76, 0
18, 184800, Note_on_c, 12, 76, 127
18, 184859, Note_on_c, 12, 76, 0
18, 184860, Note_on_c, 12, 71, 127
18, 184919, Note_on_c, 12, 71, 0
18, 190005, Control_c, 12, 0, 0
18, 190005, Program_c, 12, 64
18, 190020, Note_on_c, 12, 71, 127
18, 190079, Note_on_c, 12, 71, 0
18, 190080, Note_on_c, 12, 69, 127
18, 190109, Note_on_c, 12, 69, 0
18, 190110, Note_on_c, 12, 68, 127
18, 190139, Note_on_c, 12, 68, 0
18, 190140, Note_on_c, 12, 69, 127
18, 190169, Note_on_c, 12, 69, 0
18, 190170, Note_on_c, 12, 73, 127
18, 190199, Note_on_c, 12, 73, 0
18, 190200, Note_on_c, 12, 71, 127
18, 190259, Note_on_c, 12, 71, 0
18, 190260, Note_on_c, 12, 76, 127
18, 190319, Note_on_c, 12, 76, 0
18, 190320, Note_on_c, 12, 75, 127
18, 190379, Note_on_c, 12, 75, 0
18, 190380, Note_on_c, 12, 73, 127
18, 190439, Note_on_c, 12, 73, 0
18, 190440, Note_on_c, 12, 71, 127
18, 190499, Note_on_c, 12, 71, 0
18, 190500, Note_on_c, 12, 69, 127
18, 190559, Note_on_c, 12, 69, 0
18, 190560, Note_on_c, 12, 68, 127
18, 190619, Note_on_c, 12, 68, 0
18, 190620, Note_on_c, 12, 69, 127
18, 190649, Note_on_c, 12, 69, 0
18, 190650, Note_on_c, 12, 68, 127
18, 190679, Note_on_c, 12, 68, 0
18, 190680, Note_on_c, 12, 66, 127
18, 190709, Note_on_c, 12, 66, 0
18, 190710, Note_on_c, 12, 64, 127
18, 190739, Note_on_c, 12, 64, 0
18, 190740, Note_on_c, 12, 71, 127
18, 190979, Note_on_c, 12, 71, 0
18, 190980, Note_on_c, 12, 69, 127
18, 191039, Note_on_c, 12, 69, 0
18, 191040, Note_on_c, 12, 73, 127
18, 191159, Note_on_c, 12, 73, 0
18, 191160, Note_on_c, 12, 71, 127
18, 191219, Note_on_c, 12, 71, 0
18, 191220, Note_on_c, 12, 69, 127
18, 191279, Note_on_c, 12, 69, 0
18, 191280, Note_on_c, 12, 66, 127
18, 191399, Note_on_c, 12, 66, 0
18, 192900, Note_on_c, 12, 71, 127
18, 192959, Note_on_c, 12, 71, 0
18, 192960, Note_on_c, 12, 69, 127
18, 192989, Note_on_c, 12, 69, 0
18, 192990, Note_on_c, 12, 68, 127
18, 193019, Note_on_c, 12, 68, 0
18, 193020, Note_on_c, 12, 69, 127
18, 193049, Note_on_c, 12, 69, 0
18, 193050, Note_on_c, 12, 73, 127
18, 193079, Note_on_c, 12, 73, 0
18, 193080, Note_on_c, 12, 71, 127
18, 193139, Note_on_c, 12, 71, 0
18, 193140, Note_on_c, 12, 76, 127
18, 193199, Note_on_c, 12, 76, 0
18, 193200, Note_on_c, 12, 75, 127
18, 193259, Note_on_c, 12, 75, 0
18, 193260, Note_on_c, 12, 73, 127
18, 193289, Note_on_c, 12, 73, 0
18, 193290, Note_on_c, 12, 75, 127
18, 193319, Note_on_c, 12, 75, 0
18, 193320, Note_on_c, 12, 76, 127
18, 193379, Note_on_c, 12, 76, 0
18, 193380, Note_on_c, 12, 69, 127
18, 193439, Note_on_c, 12, 69, 0
18, 193440, Note_on_c, 12, 68, 127
18, 193499, Note_on_c, 12, 68, 0
18, 193500, Note_on_c, 12, 69, 127
18, 193529, Note_on_c, 12, 69, 0
18, 193530, Note_on_c, 12, 68, 127
18, 193559, Note_on_c, 12, 68, 0
18, 193560, Note_on_c, 12, 66, 127
18, 193589, Note_on_c, 12, 66, 0
18, 193590, Note_on_c, 12, 64, 127
18, 193619, Note_on_c, 12, 64, 0
18, 193620, Note_on_c, 12, 71, 127
18, 193859, Note_on_c, 12, 71, 0
18, 193860, Note_on_c, 12, 69, 127
18, 193919, Note_on_c, 12, 69, 0
18, 193920, Note_on_c, 12, 73, 127
18, 194039, Note_on_c, 12, 73, 0
18, 194040, Note_on_c, 12, 71, 127
18, 194099, Note_on_c, 12, 71, 0
18, 194100, Note_on_c, 12, 69, 127
18, 194159, Note_on_c, 12, 69, 0
18, 194160, Note_on_c, 12, 66, 127
18, 194279, Note_on_c, 12, 66, 0
18, 194340, Note_on_c, 12, 66, 127
18, 194399, Note_on_c, 12, 66, 0
18, 194400, Note_on_c, 12, 68, 127
18, 194459, Note_on_c, 12, 68, 0
18, 194460, Note_on_c, 12, 69, 127
18, 194519, Note_on_c, 12, 69, 0
18, 194520, Note_on_c, 12, 71, 127
18, 194579, Note_on_c, 12, 71, 0
18, 194580, Note_on_c, 12, 73, 127
18, 194639, Note_on_c, 12, 73, 0
18, 194640, Note_on_c, 12, 74, 127
18, 194759, Note_on_c, 12, 74, 0
18, 194760, Note_on_c, 12, 73, 127
18, 194819, Note_on_c, 12, 73, 0
18, 194820, Note_on_c, 12, 71, 127
18, 194879, Note_on_c, 12, 71, 0
18, 194880, Note_on_c, 12, 69, 127
18, 194939, Note_on_c, 12, 69, 0
18, 194940, Note_on_c, 12, 78, 127
18, 194999, Note_on_c, 12, 78, 0
18, 195000, Note_on_c, 12, 76, 127
18, 195059, Note_on_c, 12, 76, 0
18, 195060, Note_on_c, 12, 75, 127
18, 195119, Note_on_c, 12, 75, 0
18, 195120, Note_on_c, 12, 73, 127
18, 195149, Note_on_c, 12, 73, 0
18, 195150, Note_on_c, 12, 72, 127
18, 195179, Note_on_c, 12, 72, 0
18, 195180, Note_on_c, 12, 73, 127
18, 195239, Note_on_c, 12, 73, 0
18, 195240, Note_on_c, 12, 68, 127
18, 195719, Note_on_c, 12, 68, 0
18, 195720, Note_on_c, 12, 68, 127
18, 195779, Note_on_c, 12, 68, 0
18, 195780, Note_on_c, 12, 76, 127
18, 195839, Note_on_c, 12, 76, 0
18, 195840, Note_on_c, 12, 75, 127
18, 195899, Note_on_c, 12, 75, 0
18, 195900, Note_on_c, 12, 73, 127
18, 195959, Note_on_c, 12, 73, 0
18, 195960, Note_on_c, 12, 78, 127
18, 196019, Note_on_c, 12, 78, 0
18, 196020, Note_on_c, 12, 76, 127
18, 196079, Note_on_c, 12, 76, 0
18, 196080, Note_on_c, 12, 75, 127
18, 196139, Note_on_c, 12, 75, 0
18, 196140, Note_on_c, 12, 80, 127
18, 196199, Note_on_c, 12, 80, 0
18, 196200, Note_on_c, 12, 78, 127
18, 196229, Note_on_c, 12, 78, 0
18, 196230, Note_on_c, 12, 76, 127
18, 196259, Note_on_c, 12, 76, 0
18, 196260, Note_on_c, 12, 75, 127
18, 196289, Note_on_c, 12, 75, 0
18, 196290, Note_on_c, 12, 73, 127
18, 196319, Note_on_c, 12, 73, 0
18, 196320, Note_on_c, 12, 70, 127
18, 196439, Note_on_c, 12, 70, 0
18, 196440, Note_on_c, 12, 66, 127
18, 196499, Note_on_c, 12, 66, 0
18, 196560, Note_on_c, 12, 73, 127
18, 196619, Note_on_c, 12, 73, 0
18, 196620, Note_on_c, 12, 66, 127
18, 196679, Note_on_c, 12, 66, 0
18, 196680, Note_on_c, 12, 75, 127
18, 196799, Note_on_c, 12, 75, 0
18, 196800, Note_on_c, 12, 75, 127
18, 196859, Note_on_c, 12, 75, 0
18, 196860, Note_on_c, 12, 75, 127
18, 196919, Note_on_c, 12, 75, 0
18, 196920, Note_on_c, 12, 76, 127
18, 196949, Note_on_c, 12, 76, 0
18, 196950, Note_on_c, 12, 75, 127
18, 196979, Note_on_c, 12, 75, 0
18, 196980, Note_on_c, 12, 73, 127
18, 197009, Note_on_c, 12, 73, 0
18, 197010, Note_on_c, 12, 75, 127
18, 197039, Note_on_c, 12, 75, 0
18, 197040, Note_on_c, 12, 76, 127
18, 197279, Note_on_c, 12, 76, 0
18, 197280, Note_on_c, 12, 78, 127
18, 197309, Note_on_c, 12, 78, 0
18, 197310, Note_on_c, 12, 76, 127
18, 197339, Note_on_c, 12, 76, 0
18, 197340, Note_on_c, 12, 75, 127
18, 197369, Note_on_c, 12, 75, 0
18, 197370, Note_on_c, 12, 76, 127
18, 197399, Note_on_c, 12, 76, 0
18, 197400, Note_on_c, 12, 78, 127
18, 197459, Note_on_c, 12, 78, 0
18, 197460, Note_on_c, 12, 71, 127
18, 197519, Note_on_c, 12, 71, 0
18, 197520, Note_on_c, 12, 80, 127
18, 197579, Note_on_c, 12, 80, 0
18, 197580, Note_on_c, 12, 75, 127
18, 197639, Note_on_c, 12, 75, 0
18, 197640, Note_on_c, 12, 73, 127
18, 197669, Note_on_c, 12, 73, 0
18, 197670, Note_on_c, 12, 71, 127
18, 197699, Note_on_c, 12, 71, 0
18, 197700, Note_on_c, 12, 73, 127
18, 197759, Note_on_c, 12, 73, 0
18, 197760, Note_on_c, 12, 71, 127
18, 197879, Note_on_c, 12, 71, 0
18, 200820, Note_on_c, 12, 75, 127
18, 200849, Note_on_c, 12, 75, 0
18, 200850, Note_on_c, 12, 76, 127
18, 200879, Note_on_c, 12, 76, 0
18, 200880, Note_on_c, 12, 78, 127
18, 200939, Note_on_c, 12, 78, 0
18, 200940, Note_on_c, 12, 71, 127
18, 200999, Note_on_c, 12, 71, 0
18, 201000, Note_on_c, 12, 76, 127
18, 201119, Note_on_c, 12, 76, 0
18, 201120, Note_on_c, 12, 76, 127
18, 201179, Note_on_c, 12, 76, 0
18, 201540, Note_on_c, 12, 73, 127
18, 201569, Note_on_c, 12, 73, 0
18, 201570, Note_on_c, 12, 75, 127
18, 201599, Note_on_c, 12, 75, 0
18, 201600, Note_on_c, 12, 76, 127
18, 201659, Note_on_c, 12, 76, 0
18, 201660, Note_on_c, 12, 73, 127
18, 201719, Note_on_c, 12, 73, 0
18, 201720, Note_on_c, 12, 81, 127
18, 201779, Note_on_c, 12, 81, 0
18, 201780, Note_on_c, 12, 80, 127
18, 201839, Note_on_c, 12, 80, 0
18, 201900, Note_on_c, 12, 73, 127
18, 201959, Note_on_c, 12, 73, 0
18, 201960, Note_on_c, 12, 78, 127
18, 202019, Note_on_c, 12, 78, 0
18, 202020, Note_on_c, 12, 75, 127
18, 202079, Note_on_c, 12, 75, 0
18, 202080, Note_on_c, 12, 72, 127
18, 202259, Note_on_c, 12, 72, 0
18, 202320, Note_on_c, 12, 75, 127
18, 202379, Note_on_c, 12, 75, 0
18, 202380, Note_on_c, 12, 68, 127
18, 202439, Note_on_c, 12, 68, 0
18, 202440, Note_on_c, 12, 76, 127
18, 202559, Note_on_c, 12, 76, 0
18, 202560, Note_on_c, 12, 76, 127
18, 202619, Note_on_c, 12, 76, 0
18, 202620, Note_on_c, 12, 76, 127
18, 202649, Note_on_c, 12, 76, 0
18, 202650, Note_on_c, 12, 80, 127
18, 202679, Note_on_c, 12, 80, 0
18, 202680, Note_on_c, 12, 78, 127
18, 202739, Note_on_c, 12, 78, 0
18, 202740, Note_on_c, 12, 76, 127
18, 202799, Note_on_c, 12, 76, 0
18, 202800, Note_on_c, 12, 75, 127
18, 202979, Note_on_c, 12, 75, 0
18, 203040, Note_on_c, 12, 71, 127
18, 203099, Note_on_c, 12, 71, 0
18, 203100, Note_on_c, 12, 73, 127
18, 203159, Note_on_c, 12, 73, 0
18, 203160, Note_on_c, 12, 74, 127
18, 203219, Note_on_c, 12, 74, 0
18, 203220, Note_on_c, 12, 76, 127
18, 203279, Note_on_c, 12, 76, 0
18, 203280, Note_on_c, 12, 78, 127
18, 203399, Note_on_c, 12, 78, 0
18, 203400, Note_on_c, 12, 76, 127
18, 203459, Note_on_c, 12, 76, 0
18, 203460, Note_on_c, 12, 74, 127
18, 203519, Note_on_c, 12, 74, 0
18, 203520, Note_on_c, 12, 73, 127
18, 203579, Note_on_c, 12, 73, 0
18, 203580, Note_on_c, 12, 74, 127
18, 203639, Note_on_c, 12, 74, 0
18, 203640, Note_on_c, 12, 73, 127
18, 203699, Note_on_c, 12, 73, 0
18, 203700, Note_on_c, 12, 71, 127
18, 203759, Note_on_c, 12, 71, 0
18, 203760, Note_on_c, 12, 69, 127
18, 203789, Note_on_c, 12, 69, 0
18, 203790, Note_on_c, 12, 68, 127
18, 203819, Note_on_c, 12, 68, 0
18, 203820, Note_on_c, 12, 69, 127
18, 203879, Note_on_c, 12, 69, 0
18, 203880, Note_on_c, 12, 64, 127
18, 204359, Note_on_c, 12, 64, 0
18, 204360, Note_on_c, 12, 64, 127
18, 204419, Note_on_c, 12, 64, 0
18, 204420, Note_on_c, 12, 73, 127
18, 204479, Note_on_c, 12, 73, 0
18, 204480, Note_on_c, 12, 71, 127
18, 204539, Note_on_c, 12, 71, 0
18, 204540, Note_on_c, 12, 69, 127
18, 204599, Note_on_c, 12, 69, 0
18, 204600, Note_on_c, 12, 74, 127
18, 204659, Note_on_c, 12, 74, 0
18, 204660, Note_on_c, 12, 73, 127
18, 204719, Note_on_c, 12, 73, 0
18, 204720, Note_on_c, 12, 71, 127
18, 204779, Note_on_c, 12, 71, 0
18, 204780, Note_on_c, 12, 76, 127
18, 204839, Note_on_c, 12, 76, 0
18, 204840, Note_on_c, 12, 74, 127
18, 204869, Note_on_c, 12, 74, 0
18, 204870, Note_on_c, 12, 73, 127
18, 204899, Note_on_c, 12, 73, 0
18, 204900, Note_on_c, 12, 71, 127
18, 204929, Note_on_c, 12, 71, 0
18, 204930, Note_on_c, 12, 69, 127
18, 204959, Note_on_c, 12, 69, 0
18, 204960, Note_on_c, 12, 78, 127
18, 205020, Note_on_c, 12, 78, 0
18, 205020, Note_on_c, 12, 76, 127
18, 205080, Note_on_c, 12, 76, 0
18, 205080, Note_on_c, 12, 76, 127
18, 205140, Note_on_c, 12, 76, 0
18, 205260, Note_on_c, 12, 64, 127
18, 205320, Note_on_c, 12, 64, 0
18, 205320, Note_on_c, 12, 73, 127
18, 205439, Note_on_c, 12, 73, 0
18, 205440, Note_on_c, 12, 73, 127
18, 205499, Note_on_c, 12, 73, 0
18, 205500, Note_on_c, 12, 73, 127
18, 205559, Note_on_c, 12, 73, 0
18, 205560, Note_on_c, 12, 74, 127
18, 205589, Note_on_c, 12, 74, 0
18, 205590, Note_on_c, 12, 73, 127
18, 205619, Note_on_c, 12, 73, 0
18, 205620, Note_on_c, 12, 71, 127
18, 205649, Note_on_c, 12, 71, 0
18, 205650, Note_on_c, 12, 73, 127
18, 205679, Note_on_c, 12, 73, 0
18, 205680, Note_on_c, 12, 74, 127
18, 205919, Note_on_c, 12, 74, 0
18, 205920, Note_on_c, 12, 76, 127
18, 205949, Note_on_c, 12, 76, 0
18, 205950, Note_on_c, 12, 74, 127
18, 205979, Note_on_c, 12, 74, 0
18, 205980, Note_on_c, 12, 73, 127
18, 206009, Note_on_c, 12, 73, 0
18, 206010, Note_on_c, 12, 74, 127
18, 206039, Note_on_c, 12, 74, 0
18, 206040, Note_on_c, 12, 76, 127
18, 206099, Note_on_c, 12, 76, 0
18, 206100, Note_on_c, 12, 69, 127
18, 206159, Note_on_c, 12, 69, 0
18, 206160, Note_on_c, 12, 78, 127
18, 206219, Note_on_c, 12, 78, 0
18, 206220, Note_on_c, 12, 73, 127
18, 206279, Note_on_c, 12, 73, 0
18, 206280, Note_on_c, 12, 71, 127
18, 206309, Note_on_c, 12, 71, 0
18, 206310, Note_on_c, 12, 69, 127
18, 206339, Note_on_c, 12, 69, 0
18, 206340, Note_on_c, 12, 71, 127
18, 206399, Note_on_c, 12, 71, 0
18, 206400, Note_on_c, 12, 69, 127
18, 206519, Note_on_c, 12, 69, 0
18, 207300, Note_on_c, 12, 76, 127
18, 207329, Note_on_c, 12, 76, 0
18, 207330, Note_on_c, 12, 78, 127
18, 207359, Note_on_c, 12, 78, 0
18, 207360, Note_on_c, 12, 79, 127
18, 207419, Note_on_c, 12, 79, 0
18, 207420, Note_on_c, 12, 76, 127
18, 207479, Note_on_c, 12, 76, 0
18, 207480, Note_on_c, 12, 73, 127
18, 207599, Note_on_c, 12, 73, 0
18, 207600, Note_on_c, 12, 73, 127
18, 207659, Note_on_c, 12, 73, 0
18, 208020, Note_on_c, 12, 78, 127
18, 208049, Note_on_c, 12, 78, 0
18, 208050, Note_on_c, 12, 80, 127
18, 208079, Note_on_c, 12, 80, 0
18, 208080, Note_on_c, 12, 81, 127
18, 208139, Note_on_c, 12, 81, 0
18, 208140, Note_on_c, 12, 78, 127
18, 208199, Note_on_c, 12, 78, 0
18, 208200, Note_on_c, 12, 75, 127
18, 208319, Note_on_c, 12, 75, 0
18, 208320, Note_on_c, 12, 76, 127
18, 208379, Note_on_c, 12, 76, 0
18, 208380, Note_on_c, 12, 71, 127
18, 208439, Note_on_c, 12, 71, 0
18, 208440, Note_on_c, 12, 73, 127
18, 208469, Note_on_c, 12, 73, 0
18, 208470, Note_on_c, 12, 75, 127
18, 208499, Note_on_c, 12, 75, 0
18, 208500, Note_on_c, 12, 76, 127
18, 208529, Note_on_c, 12, 76, 0
18, 208530, Note_on_c, 12, 80, 127
18, 208559, Note_on_c, 12, 80, 0
18, 208560, Note_on_c, 12, 78, 127
18, 208739, Note_on_c, 12, 78, 0
18, 208800, Note_on_c, 12, 75, 127
18, 208859, Note_on_c, 12, 75, 0
18, 208860, Note_on_c, 12, 71, 127
18, 208919, Note_on_c, 12, 71, 0
18, 208920, Note_on_c, 12, 76, 127
18, 208979, Note_on_c, 12, 76, 0
18, 208980, Note_on_c, 12, 68, 127
18, 209039, Note_on_c, 12, 68, 0
18, 209040, Note_on_c, 12, 69, 127
18, 209099, Note_on_c, 12, 69, 0
18, 209100, Note_on_c, 12, 71, 127
18, 209129, Note_on_c, 12, 71, 0
18, 209130, Note_on_c, 12, 74, 127
18, 209159, Note_on_c, 12, 74, 0
18, 209160, Note_on_c, 12, 73, 127
18, 209219, Note_on_c, 12, 73, 0
18, 209220, Note_on_c, 12, 71, 127
18, 209279, Note_on_c, 12, 71, 0
18, 209280, Note_on_c, 12, 69, 127
18, 209459, Note_on_c, 12, 69, 0
18, 209520, Note_on_c, 12, 69, 127
18, 209579, Note_on_c, 12, 69, 0
18, 209580, Note_on_c, 12, 66, 127
18, 209639, Note_on_c, 12, 66, 0
18, 209640, Note_on_c, 12, 72, 127
18, 209699, Note_on_c, 12, 72, 0
18, 209700, Note_on_c, 12, 73, 127
18, 209759, Note_on_c, 12, 73, 0
18, 209760, Note_on_c, 12, 75, 127
18, 209879, Note_on_c, 12, 75, 0
18, 209880, Note_on_c, 12, 76, 127
18, 209939, Note_on_c, 12, 76, 0
18, 209940, Note_on_c, 12, 78, 127
18, 209999, Note_on_c, 12, 78, 0
18, 210000, Note_on_c, 12, 76, 127
18, 210059, Note_on_c, 12, 76, 0
18, 210060, Note_on_c, 12, 81, 127
18, 210119, Note_on_c, 12, 81, 0
18, 210120, Note_on_c, 12, 80, 127
18, 210179, Note_on_c, 12, 80, 0
18, 210180, Note_on_c, 12, 78, 127
18, 210239, Note_on_c, 12, 78, 0
18, 210240, Note_on_c, 12, 76, 127
18, 210269, Note_on_c, 12, 76, 0
18, 210270, Note_on_c, 12, 75, 127
18, 210299, Note_on_c, 12, 75, 0
18, 210300, Note_on_c, 12, 76, 127
18, 210359, Note_on_c, 12, 76, 0
18, 210360, Note_on_c, 12, 71, 127
18, 210839, Note_on_c, 12, 71, 0
18, 210840, Note_on_c, 12, 69, 127
18, 210899, Note_on_c, 12, 69, 0
18, 210900, Note_on_c, 12, 68, 127
18, 210959, Note_on_c, 12, 68, 0
18, 210960, Note_on_c, 12, 66, 127
18, 211019, Note_on_c, 12, 66, 0
18, 211020, Note_on_c, 12, 64, 127
18, 211079, Note_on_c, 12, 64, 0
18, 211080, Note_on_c, 12, 69, 127
18, 211109, Note_on_c, 12, 69, 0
18, 211110, Note_on_c, 12, 71, 127
18, 211139, Note_on_c, 12, 71, 0
18, 211140, Note_on_c, 12, 73, 127
18, 211199, Note_on_c, 12, 73, 0
18, 211200, Note_on_c, 12, 71, 127
18, 211259, Note_on_c, 12, 71, 0
18, 211260, Note_on_c, 12, 71, 127
18, 211289, Note_on_c, 12, 71, 0
18, 211290, Note_on_c, 12, 73, 127
18, 211319, Note_on_c, 12, 73, 0
18, 211320, Note_on_c, 12, 74, 127
18, 211379, Note_on_c, 12, 74, 0
18, 211380, Note_on_c, 12, 73, 127
18, 211439, Note_on_c, 12, 73, 0
18, 211440, Note_on_c, 12, 73, 127
18, 211499, Note_on_c, 12, 73, 0
18, 211500, Note_on_c, 12, 71, 127
18, 211559, Note_on_c, 12, 71, 0
18, 211560, Note_on_c, 12, 71, 127
18, 211619, Note_on_c, 12, 71, 0
18, 211740, Note_on_c, 12, 76, 127
18, 211799, Note_on_c, 12, 76, 0
18, 211800, Note_on_c, 12, 76, 127
18, 212039, Note_on_c, 12, 76, 0
18, 212040, Note_on_c, 12, 75, 127
18, 212069, Note_on_c, 12, 75, 0
18, 212070, Note_on_c, 12, 73, 127
18, 212099, Note_on_c, 12, 73, 0
18, 212100, Note_on_c, 12, 71, 127
18, 212129, Note_on_c, 12, 71, 0
18, 212130, Note_on_c, 12, 70, 127
18, 212159, Note_on_c, 12, 70, 0
18, 212160, Note_on_c, 12, 78, 127
18, 212219, Note_on_c, 12, 78, 0
18, 212220, Note_on_c, 12, 75, 127
18, 212279, Note_on_c, 12, 75, 0
18, 212280, Note_on_c, 12, 71, 127
18, 212339, Note_on_c, 12, 71, 0
18, 212460, Note_on_c, 12, 66, 127
18, 212519, Note_on_c, 12, 66, 0
18, 212520, Note_on_c, 12, 68, 127
18, 212579, Note_on_c, 12, 68, 0
18, 212580, Note_on_c, 12, 71, 127
18, 212639, Note_on_c, 12, 71, 0
18, 212640, Note_on_c, 12, 76, 127
18, 212699, Note_on_c, 12, 76, 0
18, 212700, Note_on_c, 12, 80, 127
18, 212759, Note_on_c, 12, 80, 0
18, 212760, Note_on_c, 12, 78, 127
18, 212819, Note_on_c, 12, 78, 0
18, 212820, Note_on_c, 12, 76, 127
18, 212879, Note_on_c, 12, 76, 0
18, 212880, Note_on_c, 12, 78, 127
18, 213119, Note_on_c, 12, 78, 0
18, 213120, Note_on_c, 12, 80, 127
18, 213149, Note_on_c, 12, 80, 0
18, 213150, Note_on_c, 12, 78, 127
18, 213179, Note_on_c, 12, 78, 0
18, 213180, Note_on_c, 12, 76, 127
18, 213209, Note_on_c, 12, 76, 0
18, 213210, Note_on_c, 12, 75, 127
18, 213239, Note_on_c, 12, 75, 0
18, 213240, Note_on_c, 12, 76, 127
18, 213269, Note_on_c, 12, 76, 0
18, 213270, Note_on_c, 12, 78, 127
18, 213299, Note_on_c, 12, 78, 0
18, 213300, Note_on_c, 12, 76, 127
18, 213329, Note_on_c, 12, 76, 0
18, 213330, Note_on_c, 12, 75, 127
18, 213359, Note_on_c, 12, 75, 0
18, 213360, Note_on_c, 12, 76, 127
18, 213389, Note_on_c, 12, 76, 0
18, 213390, Note_on_c, 12, 73, 127
18, 213419, Note_on_c, 12, 73, 0
18, 213420, Note_on_c, 12, 75, 127
18, 213599, Note_on_c, 12, 75, 0
18, 213600, Note_on_c, 12, 76, 127
18, 213779, Note_on_c, 12, 76, 0
18, 213900, Note_on_c, 12, 73, 127
18, 213959, Note_on_c, 12, 73, 0
18, 213960, Note_on_c, 12, 68, 127
18, 214019, Note_on_c, 12, 68, 0
18, 214020, Note_on_c, 12, 69, 127
18, 214079, Note_on_c, 12, 69, 0
18, 214080, Note_on_c, 12, 71, 127
18, 214199, Note_on_c, 12, 71, 0
18, 214200, Note_on_c, 12, 73, 127
18, 214259, Note_on_c, 12, 73, 0
18, 214260, Note_on_c, 12, 74, 127
18, 214319, Note_on_c, 12, 74, 0
18, 214320, Note_on_c, 12, 73, 127
18, 214379, Note_on_c, 12, 73, 0
18, 214380, Note_on_c, 12, 75, 127
18, 214439, Note_on_c, 12, 75, 0
18, 214440, Note_on_c, 12, 76, 127
18, 214499, Note_on_c, 12, 76, 0
18, 214500, Note_on_c, 12, 69, 127
18, 214559, Note_on_c, 12, 69, 0
18, 214560, Note_on_c, 12, 68, 127
18, 214589, Note_on_c, 12, 68, 0
18, 214590, Note_on_c, 12, 66, 127
18, 214619, Note_on_c, 12, 66, 0
18, 214620, Note_on_c, 12, 68, 127
18, 214679, Note_on_c, 12, 68, 0
18, 214680, Note_on_c, 12, 66, 127
18, 215100, Note_on_c, 12, 66, 0
18, 215100, Note_on_c, 12, 68, 127
18, 215159, Note_on_c, 12, 68, 0
18, 215160, Note_on_c, 12, 69, 127
18, 215219, Note_on_c, 12, 69, 0
18, 215220, Note_on_c, 12, 71, 127
18, 215279, Note_on_c, 12, 71, 0
18, 215280, Note_on_c, 12, 73, 127
18, 215339, Note_on_c, 12, 73, 0
18, 215340, Note_on_c, 12, 75, 127
18, 215399, Note_on_c, 12, 75, 0
18, 215400, Note_on_c, 12, 76, 127
18, 215459, Note_on_c, 12, 76, 0
18, 215460, Note_on_c, 12, 78, 127
18, 215519, Note_on_c, 12, 78, 0
18, 215520, Note_on_c, 12, 80, 127
18, 215579, Note_on_c, 12, 80, 0
18, 215580, Note_on_c, 12, 73, 127
18, 215609, Note_on_c, 12, 73, 0
18, 215610, Note_on_c, 12, 69, 127
18, 215639, Note_on_c, 12, 69, 0
18, 215640, Note_on_c, 12, 71, 127
18, 215669, Note_on_c, 12, 71, 0
18, 215670, Note_on_c, 12, 73, 127
18, 215699, Note_on_c, 12, 73, 0
18, 215700, Note_on_c, 12, 75, 127
18, 215729, Note_on_c, 12, 75, 0
18, 215730, Note_on_c, 12, 76, 127
18, 215759, Note_on_c, 12, 76, 0
18, 215760, Note_on_c, 12, 78, 127
18, 215789, Note_on_c, 12, 78, 0
18, 215790, Note_on_c, 12, 80, 127
18, 215819, Note_on_c, 12, 80, 0
18, 215820, Note_on_c, 12, 81, 127
18, 215849, Note_on_c, 12, 81, 0
18, 215850, Note_on_c, 12, 80, 127
18, 215879, Note_on_c, 12, 80, 0
18, 215880, Note_on_c, 12, 78, 127
18, 215909, Note_on_c, 12, 78, 0
18, 215910, Note_on_c, 12, 76, 127
18, 215939, Note_on_c, 12, 76, 0
18, 215940, Note_on_c, 12, 75, 127
18, 215969, Note_on_c, 12, 75, 0
18, 215970, Note_on_c, 12, 78, 127
18, 215999, Note_on_c, 12, 78, 0
18, 216000, Note_on_c, 12, 76, 127
18, 216029, Note_on_c, 12, 76, 0
18, 216030, Note_on_c, 12, 75, 127
18, 216059, Note_on_c, 12, 75, 0
18, 216060, Note_on_c, 12, 73, 127
18, 216089, Note_on_c, 12, 73, 0
18, 216090, Note_on_c, 12, 71, 127
18, 216119, Note_on_c, 12, 71, 0
18, 216120, Note_on_c, 12, 80, 127
18, 216179, Note_on_c, 12, 80, 0
18, 216180, Note_on_c, 12, 78, 127
18, 216209, Note_on_c, 12, 78, 0
18, 216210, Note_on_c, 12, 75, 127
18, 216239, Note_on_c, 12, 75, 0
18, 216240, Note_on_c, 12, 76, 127
18, 216269, Note_on_c, 12, 76, 0
18, 216270, Note_on_c, 12, 73, 127
18, 216299, Note_on_c, 12, 73, 0
18, 216300, Note_on_c, 12, 75, 127
18, 216419, Note_on_c, 12, 75, 0
18, 216420, Note_on_c, 12, 76, 127
18, 216479, Note_on_c, 12, 76, 0
18, 216480, Note_on_c, 12, 76, 127
18, 216659, Note_on_c, 12, 76, 0
18, 221640, Program_c, 12, 64
18, 221700, Note_on_c, 12, 78, 127
18, 221759, Note_on_c, 12, 78, 0
18, 221760, Note_on_c, 12, 78, 127
18, 221789, Note_on_c, 12, 78, 0
18, 221790, Note_on_c, 12, 73, 127
18, 221819, Note_on_c, 12, 73, 0
18, 221820, Note_on_c, 12, 73, 127
18, 221879, Note_on_c, 12, 73, 0
18, 221940, Note_on_c, 12, 66, 127
18, 221999, Note_on_c, 12, 66, 0
18, 222000, Note_on_c, 12, 76, 127
18, 222029, Note_on_c, 12, 76, 0
18, 222030, Note_on_c, 12, 76, 127
18, 222059, Note_on_c, 12, 76, 0
18, 222060, Note_on_c, 12, 79, 127
18, 222089, Note_on_c, 12, 79, 0
18, 222090, Note_on_c, 12, 76, 127
18, 222119, Note_on_c, 12, 76, 0
18, 222120, Note_on_c, 12, 73, 127
18, 222179, Note_on_c, 12, 73, 0
18, 222180, Note_on_c, 12, 78, 127
18, 222239, Note_on_c, 12, 78, 0
18, 222240, Note_on_c, 12, 74, 127
18, 222299, Note_on_c, 12, 74, 0
18, 222300, Note_on_c, 12, 74, 127
18, 222359, Note_on_c, 12, 74, 0
18, 222420, Note_on_c, 12, 78, 127
18, 222479, Note_on_c, 12, 78, 0
18, 222480, Note_on_c, 12, 74, 127
18, 222539, Note_on_c, 12, 74, 0
18, 222540, Note_on_c, 12, 74, 127
18, 222599, Note_on_c, 12, 74, 0
18, 222600, Note_on_c, 12, 73, 127
18, 222659, Note_on_c, 12, 73, 0
18, 222660, Note_on_c, 12, 71, 127
18, 222719, Note_on_c, 12, 71, 0
18, 222720, Note_on_c, 12, 80, 127
18, 222749, Note_on_c, 12, 80, 0
18, 222750, Note_on_c, 12, 80, 127
18, 222779, Note_on_c, 12, 80, 0
18, 222780, Note_on_c, 12, 80, 127
18, 222839, Note_on_c, 12, 80, 0
18, 222900, Note_on_c, 12, 68, 127
18, 222959, Note_on_c, 12, 68, 0
18, 222960, Note_on_c, 12, 73, 127
18, 223019, Note_on_c, 12, 73, 0
18, 223050, Note_on_c, 12, 73, 127
18, 223079, Note_on_c, 12, 73, 0
18, 223080, Note_on_c, 12, 65, 127
18, 223109, Note_on_c, 12, 65, 0
18, 223110, Note_on_c, 12, 65, 127
18, 223139, Note_on_c, 12, 65, 0
18, 223140, Note_on_c, 12, 65, 127
18, 223169, Note_on_c, 12, 65, 0
18, 223170, Note_on_c, 12, 66, 127
18, 223199, Note_on_c, 12, 66, 0
18, 223200, Note_on_c, 12, 68, 127
18, 223259, Note_on_c, 12, 68, 0
18, 223260, Note_on_c, 12, 61, 127
18, 223319, Note_on_c, 12, 61, 0
18, 223350, Note_on_c, 12, 61, 127
18, 223379, Note_on_c, 12, 61, 0
18, 223380, Note_on_c, 12, 68, 127
18, 223409, Note_on_c, 12, 68, 0
18, 223410, Note_on_c, 12, 69, 127
18, 223439, Note_on_c, 12, 69, 0
18, 223440, Note_on_c, 12, 71, 127
18, 223499, Note_on_c, 12, 71, 0
18, 223500, Note_on_c, 12, 71, 127
18, 223559, Note_on_c, 12, 71, 0
18, 223560, Note_on_c, 12, 74, 127
18, 223619, Note_on_c, 12, 74, 0
18, 223620, Note_on_c, 12, 73, 127
18, 223679, Note_on_c, 12, 73, 0
18, 223680, Note_on_c, 12, 69, 127
18, 223799, Note_on_c, 12, 69, 0
18, 226740, Note_on_c, 12, 74, 127
18, 226799, Note_on_c, 12, 74, 0
18, 226800, Note_on_c, 12, 71, 127
18, 226859, Note_on_c, 12, 71, 0
18, 226860, Note_on_c, 12, 71, 127
18, 226919, Note_on_c, 12, 71, 0
18, 226980, Note_on_c, 12, 79, 127
18, 227009, Note_on_c, 12, 79, 0
18, 227010, Note_on_c, 12, 74, 127
18, 227039, Note_on_c, 12, 74, 0
18, 227040, Note_on_c, 12, 76, 127
18, 227159, Note_on_c, 12, 76, 0
18, 227190, Note_on_c, 12, 76, 127
18, 227219, Note_on_c, 12, 76, 0
18, 227220, Note_on_c, 12, 76, 127
18, 227249, Note_on_c, 12, 76, 0
18, 227250, Note_on_c, 12, 72, 127
18, 227279, Note_on_c, 12, 72, 0
18, 227280, Note_on_c, 12, 69, 127
18, 227339, Note_on_c, 12, 69, 0
18, 227340, Note_on_c, 12, 69, 127
18, 227399, Note_on_c, 12, 69, 0
18, 227400, Note_on_c, 12, 74, 127
18, 227459, Note_on_c, 12, 74, 0
18, 227460, Note_on_c, 12, 69, 127
18, 227519, Note_on_c, 12, 69, 0
18, 227520, Note_on_c, 12, 71, 127
18, 227639, Note_on_c, 12, 71, 0
18, 228180, Note_on_c, 12, 71, 127
18, 228239, Note_on_c, 12, 71, 0
18, 228240, Note_on_c, 12, 74, 127
18, 228299, Note_on_c, 12, 74, 0
18, 228300, Note_on_c, 12, 74, 127
18, 228359, Note_on_c, 12, 74, 0
18, 228360, Note_on_c, 12, 77, 127
18, 228419, Note_on_c, 12, 77, 0
18, 228420, Note_on_c, 12, 76, 127
18, 228479, Note_on_c, 12, 76, 0
18, 228480, Note_on_c, 12, 72, 127
18, 228599, Note_on_c, 12, 72, 0
18, 229140, Note_on_c, 12, 69, 127
18, 229199, Note_on_c, 12, 69, 0
18, 229200, Note_on_c, 12, 76, 127
18, 229259, Note_on_c, 12, 76, 0
18, 229260, Note_on_c, 12, 76, 127
18, 229319, Note_on_c, 12, 76, 0
18, 229320, Note_on_c, 12, 81, 127
18, 229349, Note_on_c, 12, 81, 0
18, 229350, Note_on_c, 12, 76, 127
18, 229379, Note_on_c, 12, 76, 0
18, 229380, Note_on_c, 12, 79, 127
18, 229409, Note_on_c, 12, 79, 0
18, 229410, Note_on_c, 12, 78, 127
18, 229439, Note_on_c, 12, 78, 0
18, 229440, Note_on_c, 12, 78, 127
18, 229499, Note_on_c, 12, 78, 0
18, 229500, Note_on_c, 12, 78, 127
18, 229559, Note_on_c, 12, 78, 0
18, 229620, Note_on_c, 12, 78, 127
18, 229679, Note_on_c, 12, 78, 0
18, 229680, Note_on_c, 12, 73, 127
18, 229739, Note_on_c, 12, 73, 0
18, 229740, Note_on_c, 12, 73, 127
18, 229799, Note_on_c, 12, 73, 0
18, 229800, Note_on_c, 12, 79, 127
18, 229859, Note_on_c, 12, 79, 0
18, 229860, Note_on_c, 12, 78, 127
18, 229919, Note_on_c, 12, 78, 0
18, 229920, Note_on_c, 12, 74, 127
18, 230039, Note_on_c, 12, 74, 0
18, 230070, Note_on_c, 12, 71, 127
18, 230099, Note_on_c, 12, 71, 0
18, 230100, Note_on_c, 12, 70, 127
18, 230129, Note_on_c, 12, 70, 0
18, 230130, Note_on_c, 12, 71, 127
18, 230159, Note_on_c, 12, 71, 0
18, 230160, Note_on_c, 12, 79, 127
18, 230219, Note_on_c, 12, 79, 0
18, 230220, Note_on_c, 12, 78, 127
18, 230279, Note_on_c, 12, 78, 0
18, 230280, Note_on_c, 12, 76, 127
18, 230339, Note_on_c, 12, 76, 0
18, 230340, Note_on_c, 12, 74, 127
18, 230399, Note_on_c, 12, 74, 0
18, 230400, Note_on_c, 12, 73, 127
18, 230459, Note_on_c, 12, 73, 0
18, 230460, Note_on_c, 12, 71, 127
18, 230519, Note_on_c, 12, 71, 0
18, 272100, Program_c, 12, 64
18, 272160, Note_on_c, 12, 74, 127
18, 272220, Note_on_c, 12, 74, 0
18, 272220, Note_on_c, 12, 79, 127
18, 272340, Note_on_c, 12, 79, 0
18, 272880, Note_on_c, 12, 76, 127
18, 272940, Note_on_c, 12, 76, 0
18, 272940, Note_on_c, 12, 76, 127
18, 273000, Note_on_c, 12, 76, 0
18, 273000, Note_on_c, 12, 69, 127
18, 273060, Note_on_c, 12, 69, 0
18, 273060, Note_on_c, 12, 72, 127
18, 273090, Note_on_c, 12, 72, 0
18, 273090, Note_on_c, 12, 71, 127
18, 273120, Note_on_c, 12, 71, 0
18, 273120, Note_on_c, 12, 72, 127
18, 273180, Note_on_c, 12, 72, 0
18, 273180, Note_on_c, 12, 71, 127
18, 273300, Note_on_c, 12, 71, 0
18, 273360, Note_on_c, 12, 71, 127
18, 273420, Note_on_c, 12, 71, 0
18, 273420, Note_on_c, 12, 69, 127
18, 273480, Note_on_c, 12, 69, 0
18, 273480, Note_on_c, 12, 74, 127
18, 273510, Note_on_c, 12, 74, 0
18, 273510, Note_on_c, 12, 72, 127
18, 273540, Note_on_c, 12, 72, 0
18, 273540, Note_on_c, 12, 74, 127
18, 273600, Note_on_c, 12, 74, 0
18, 273600, Note_on_c, 12, 69, 127
18, 273660, Note_on_c, 12, 69, 0
18, 273660, Note_on_c, 12, 71, 127
18, 273780, Note_on_c, 12, 71, 0
18, 273840, Note_on_c, 12, 71, 127
18, 273900, Note_on_c, 12, 71, 0
18, 273900, Note_on_c, 12, 76, 127
18, 273960, Note_on_c, 12, 76, 0
18, 273960, Note_on_c, 12, 76, 127
18, 274020, Note_on_c, 12, 76, 0
18, 274020, Note_on_c, 12, 79, 127
18, 274080, Note_on_c, 12, 79, 0
18, 274080, Note_on_c, 12, 78, 127
18, 274110, Note_on_c, 12, 78, 0
18, 274110, Note_on_c, 12, 76, 127
18, 274140, Note_on_c, 12, 76, 0
18, 274140, Note_on_c, 12, 76, 127
18, 274200, Note_on_c, 12, 76, 0
18, 274200, Note_on_c, 12, 69, 127
18, 274260, Note_on_c, 12, 69, 0
18, 274260, Note_on_c, 12, 69, 127
18, 274320, Note_on_c, 12, 69, 0
18, 274320, Note_on_c, 12, 76, 127
18, 274380, Note_on_c, 12, 76, 0
18, 274380, Note_on_c, 12, 78, 127
18, 274440, Note_on_c, 12, 78, 0
18, 274440, Note_on_c, 12, 81, 127
18, 274500, Note_on_c, 12, 81, 0
18, 274500, Note_on_c, 12, 81, 127
18, 274560, Note_on_c, 12, 81, 0
18, 274560, Note_on_c, 12, 79, 127
18, 274590, Note_on_c, 12, 79, 0
18, 274590, Note_on_c, 12, 78, 127
18, 274620, Note_on_c, 12, 78, 0
18, 274620, Note_on_c, 12, 76, 127
18, 274740, Note_on_c, 12, 76, 0
18, 274800, Note_on_c, 12, 73, 127
18, 274860, Note_on_c, 12, 73, 0
18, 274860, Note_on_c, 12, 74, 127
18, 274920, Note_on_c, 12, 74, 0
18, 274920, Note_on_c, 12, 78, 127
18, 274980, Note_on_c, 12, 78, 0
18, 274980, Note_on_c, 12, 78, 127
18, 275040, Note_on_c, 12, 78, 0
18, 275040, Note_on_c, 12, 76, 127
18, 275070, Note_on_c, 12, 76, 0
18, 275070, Note_on_c, 12, 74, 127
18, 275100, Note_on_c, 12, 74, 0
18, 275100, Note_on_c, 12, 79, 127
18, 275400, Note_on_c, 12, 79, 0
18, 275400, Note_on_c, 12, 69, 127
18, 275430, Note_on_c, 12, 69, 0
18, 275430, Note_on_c, 12, 71, 127
18, 275460, Note_on_c, 12, 71, 0
18, 275460, Note_on_c, 12, 73, 127
18, 275490, Note_on_c, 12, 73, 0
18, 275490, Note_on_c, 12, 74, 127
18, 275520, Note_on_c, 12, 74, 0
18, 275520, Note_on_c, 12, 76, 127
18, 275550, Note_on_c, 12, 76, 0
18, 275550, Note_on_c, 12, 78, 127
18, 275580, Note_on_c, 12, 78, 0
18, 275580, Note_on_c, 12, 79, 127
18, 275610, Note_on_c, 12, 79, 0
18, 275610, Note_on_c, 12, 76, 127
18, 275640, Note_on_c, 12, 76, 0
18, 275640, Note_on_c, 12, 78, 127
18, 275670, Note_on_c, 12, 78, 0
18, 275670, Note_on_c, 12, 74, 127
18, 275700, Note_on_c, 12, 74, 0
18, 275700, Note_on_c, 12, 73, 127
18, 275790, Note_on_c, 12, 73, 0
18, 275790, Note_on_c, 12, 74, 127
18, 275820, Note_on_c, 12, 74, 0
18, 275820, Note_on_c, 12, 74, 127
18, 275940, Note_on_c, 12, 74, 0
18, 279060, Program_c, 12, 64
18, 279090, Note_on_c, 12, 69, 127
18, 279119, Note_on_c, 12, 69, 0
18, 279120, Note_on_c, 12, 74, 127
18, 279149, Note_on_c, 12, 74, 0
18, 279150, Note_on_c, 12, 76, 127
18, 279179, Note_on_c, 12, 76, 0
18, 279180, Note_on_c, 12, 78, 127
18, 279239, Note_on_c, 12, 78, 0
18, 279240, Note_on_c, 12, 74, 127
18, 279299, Note_on_c, 12, 74, 0
18, 279300, Note_on_c, 12, 72, 127
18, 279329, Note_on_c, 12, 72, 0
18, 279330, Note_on_c, 12, 71, 127
18, 279359, Note_on_c, 12, 71, 0
18, 279360, Note_on_c, 12, 72, 127
18, 279419, Note_on_c, 12, 72, 0
18, 279420, Note_on_c, 12, 71, 127
18, 279539, Note_on_c, 12, 71, 0
18, 279600, Note_on_c, 12, 71, 127
18, 279629, Note_on_c, 12, 71, 0
18, 279630, Note_on_c, 12, 71, 127
18, 279659, Note_on_c, 12, 71, 0
18, 279660, Note_on_c, 12, 79, 127
18, 279719, Note_on_c, 12, 79, 0
18, 279720, Note_on_c, 12, 78, 127
18, 279779, Note_on_c, 12, 78, 0
18, 279780, Note_on_c, 12, 76, 127
18, 279839, Note_on_c, 12, 76, 0
18, 279840, Note_on_c, 12, 74, 127
18, 279899, Note_on_c, 12, 74, 0
18, 279900, Note_on_c, 12, 73, 127
18, 279959, Note_on_c, 12, 73, 0
18, 279960, Note_on_c, 12, 71, 127
18, 280019, Note_on_c, 12, 71, 0
18, 316020, Program_c, 12, 64
18, 316080, Note_on_c, 12, 69, 127
18, 316139, Note_on_c, 12, 69, 0
18, 316140, Note_on_c, 12, 76, 127
18, 316199, Note_on_c, 12, 76, 0
18, 316230, Note_on_c, 12, 76, 127
18, 316259, Note_on_c, 12, 76, 0
18, 316260, Note_on_c, 12, 73, 127
18, 316319, Note_on_c, 12, 73, 0
18, 316320, Note_on_c, 12, 74, 127
18, 316379, Note_on_c, 12, 74, 0
18, 316380, Note_on_c, 12, 76, 127
18, 316439, Note_on_c, 12, 76, 0
18, 316440, Note_on_c, 12, 69, 127
18, 316499, Note_on_c, 12, 69, 0
18, 316500, Note_on_c, 12, 67, 127
18, 316559, Note_on_c, 12, 67, 0
18, 316560, Note_on_c, 12, 67, 127
18, 316619, Note_on_c, 12, 67, 0
18, 316620, Note_on_c, 12, 69, 127
18, 316679, Note_on_c, 12, 69, 0
18, 316680, Note_on_c, 12, 67, 127
18, 316739, Note_on_c, 12, 67, 0
18, 316740, Note_on_c, 12, 66, 127
18, 316859, Note_on_c, 12, 66, 0
18, 316890, Note_on_c, 12, 69, 127
18, 316919, Note_on_c, 12, 69, 0
18, 316920, Note_on_c, 12, 74, 127
18, 316949, Note_on_c, 12, 74, 0
18, 316950, Note_on_c, 12, 76, 127
18, 316979, Note_on_c, 12, 76, 0
18, 316980, Note_on_c, 12, 78, 127
18, 317039, Note_on_c, 12, 78, 0
18, 317040, Note_on_c, 12, 78, 127
18, 317099, Note_on_c, 12, 78, 0
18, 317100, Note_on_c, 12, 76, 127
18, 317159, Note_on_c, 12, 76, 0
18, 317160, Note_on_c, 12, 74, 127
18, 317219, Note_on_c, 12, 74, 0
18, 317220, Note_on_c, 12, 81, 127
18, 317279, Note_on_c, 12, 81, 0
18, 317280, Note_on_c, 12, 81, 127
18, 317339, Note_on_c, 12, 81, 0
18, 317370, Note_on_c, 12, 69, 127
18, 317399, Note_on_c, 12, 69, 0
18, 317400, Note_on_c, 12, 71, 127
18, 317429, Note_on_c, 12, 71, 0
18, 317430, Note_on_c, 12, 73, 127
18, 317459, Note_on_c, 12, 73, 0
18, 317460, Note_on_c, 12, 74, 127
18, 317519, Note_on_c, 12, 74, 0
18, 317520, Note_on_c, 12, 74, 127
18, 317579, Note_on_c, 12, 74, 0
18, 317580, Note_on_c, 12, 78, 127
18, 317639, Note_on_c, 12, 78, 0
18, 317640, Note_on_c, 12, 76, 127
18, 317699, Note_on_c, 12, 76, 0
18, 317700, Note_on_c, 12, 73, 127
18, 317819, Note_on_c, 12, 73, 0
18, 317850, Note_on_c, 12, 76, 127
18, 317879, Note_on_c, 12, 76, 0
18, 317880, Note_on_c, 12, 73, 127
18, 317909, Note_on_c, 12, 73, 0
18, 317910, Note_on_c, 12, 69, 127
18, 317939, Note_on_c, 12, 69, 0
18, 317940, Note_on_c, 12, 78, 127
18, 317999, Note_on_c, 12, 78, 0
18, 318000, Note_on_c, 12, 66, 127
18, 318059, Note_on_c, 12, 66, 0
18, 318060, Note_on_c, 12, 74, 127
18, 318119, Note_on_c, 12, 74, 0
18, 318120, Note_on_c, 12, 73, 127
18, 318179, Note_on_c, 12, 73, 0
18, 318180, Note_on_c, 12, 69, 127
18, 318239, Note_on_c, 12, 69, 0
18, 318240, Note_on_c, 12, 69, 127
18, 318299, Note_on_c, 12, 69, 0
18, 318570, Note_on_c, 12, 69, 127
18, 318599, Note_on_c, 12, 69, 0
18, 318600, Note_on_c, 12, 71, 127
18, 318629, Note_on_c, 12, 71, 0
18, 318630, Note_on_c, 12, 73, 127
18, 318659, Note_on_c, 12, 73, 0
18, 318660, Note_on_c, 12, 74, 127
18, 318689, Note_on_c, 12, 74, 0
18, 318690, Note_on_c, 12, 76, 127
18, 318719, Note_on_c, 12, 76, 0
18, 318720, Note_on_c, 12, 78, 127
18, 318749, Note_on_c, 12, 78, 0
18, 318750, Note_on_c, 12, 80, 127
18, 318779, Note_on_c, 12, 80, 0
18, 318780, Note_on_c, 12, 81, 127
18, 318839, Note_on_c, 12, 81, 0
18, 318840, Note_on_c, 12, 76, 127
18, 318869, Note_on_c, 12, 76, 0
18, 318870, Note_on_c, 12, 74, 127
18, 318899, Note_on_c, 12, 74, 0
18, 318900, Note_on_c, 12, 73, 127
18, 318959, Note_on_c, 12, 73, 0
18, 318960, Note_on_c, 12, 73, 127
18, 319019, Note_on_c, 12, 73, 0
18, 319020, Note_on_c, 12, 76, 127
18, 319079, Note_on_c, 12, 76, 0
18, 319080, Note_on_c, 12, 69, 127
18, 319139, Note_on_c, 12, 69, 0
18, 319140, Note_on_c, 12, 79, 127
18, 319199, Note_on_c, 12, 79, 0
18, 319200, Note_on_c, 12, 79, 127
18, 319259, Note_on_c, 12, 79, 0
18, 319320, Note_on_c, 12, 69, 127
18, 319379, Note_on_c, 12, 69, 0
18, 319380, Note_on_c, 12, 78, 127
18, 319499, Note_on_c, 12, 78, 0
18, 319560, Note_on_c, 12, 74, 127
18, 319619, Note_on_c, 12, 74, 0
18, 319620, Note_on_c, 12, 71, 127
18, 319634, Note_on_c, 12, 71, 0
18, 319635, Note_on_c, 12, 69, 127
18, 319649, Note_on_c, 12, 69, 0
18, 319650, Note_on_c, 12, 71, 127
18, 319679, Note_on_c, 12, 71, 0
18, 319680, Note_on_c, 12, 76, 127
18, 319709, Note_on_c, 12, 76, 0
18, 319710, Note_on_c, 12, 71, 127
18, 319739, Note_on_c, 12, 71, 0
18, 319740, Note_on_c, 12, 73, 127
18, 319754, Note_on_c, 12, 73, 0
18, 319755, Note_on_c, 12, 71, 127
18, 319769, Note_on_c, 12, 71, 0
18, 319770, Note_on_c, 12, 73, 127
18, 319799, Note_on_c, 12, 73, 0
18, 319800, Note_on_c, 12, 78, 127
18, 319829, Note_on_c, 12, 78, 0
18, 319830, Note_on_c, 12, 73, 127
18, 319859, Note_on_c, 12, 73, 0
18, 319860, Note_on_c, 12, 74, 127
18, 319874, Note_on_c, 12, 74, 0
18, 319875, Note_on_c, 12, 73, 127
18, 319889, Note_on_c, 12, 73, 0
18, 319890, Note_on_c, 12, 74, 127
18, 319919, Note_on_c, 12, 74, 0
18, 319920, Note_on_c, 12, 79, 127
18, 319949, Note_on_c, 12, 79, 0
18, 319950, Note_on_c, 12, 74, 127
18, 319979, Note_on_c, 12, 74, 0
18, 319980, Note_on_c, 12, 76, 127
18, 319994, Note_on_c, 12, 76, 0
18, 319995, Note_on_c, 12, 74, 127
18, 320009, Note_on_c, 12, 74, 0
18, 320010, Note_on_c, 12, 76, 127
18, 320039, Note_on_c, 12, 76, 0
18, 320040, Note_on_c, 12, 81, 127
18, 320069, Note_on_c, 12, 81, 0
18, 320070, Note_on_c, 12, 76, 127
18, 320099, Note_on_c, 12, 76, 0
18, 320100, Note_on_c, 12, 78, 127
18, 320159, Note_on_c, 12, 78, 0
18, 320160, Note_on_c, 12, 69, 127
18, 320219, Note_on_c, 12, 69, 0
18, 320220, Note_on_c, 12, 71, 127
18, 320279, Note_on_c, 12, 71, 0
18, 320280, Note_on_c, 12, 73, 127
18, 320309, Note_on_c, 12, 73, 0
18, 320310, Note_on_c, 12, 74, 127
18, 320339, Note_on_c, 12, 74, 0
18, 320340, Note_on_c, 12, 74, 127
18, 320399, Note_on_c, 12, 74, 0
18, 320400, Note_on_c, 12, 69, 127
18, 320459, Note_on_c, 12, 69, 0
18, 320459, End_track
19, 0, Start_track
19, 0, MIDI_port, 0
19, 0, Title_t, "Pomona"
19, 159840, Control_c, 13, 0, 10
19, 159840, Program_c, 13, 71
19, 159840, Note_on_c, 13, 69, 100
19, 159870, Note_on_c, 13, 69, 0
19, 159870, Note_on_c, 13, 71, 100
19, 159900, Note_on_c, 13, 71, 0
19, 159900, Note_on_c, 13, 73, 100
19, 160020, Note_on_c, 13, 73, 0
19, 160020, Note_on_c, 13, 71, 100
19, 160080, Note_on_c, 13, 71, 0
19, 160080, Note_on_c, 13, 69, 100
19, 160140, Note_on_c, 13, 69, 0
19, 160140, Note_on_c, 13, 68, 100
19, 160170, Note_on_c, 13, 68, 0
19, 160170, Note_on_c, 13, 66, 100
19, 160200, Note_on_c, 13, 66, 0
19, 160200, Note_on_c, 13, 68, 100
19, 160260, Note_on_c, 13, 68, 0
19, 160260, Note_on_c, 13, 65, 100
19, 160320, Note_on_c, 13, 65, 0
19, 160320, Note_on_c, 13, 66, 100
19, 160350, Note_on_c, 13, 66, 0
19, 160350, Note_on_c, 13, 65, 100
19, 160380, Note_on_c, 13, 65, 0
19, 160380, Note_on_c, 13, 66, 100
19, 160440, Note_on_c, 13, 66, 0
19, 160440, Note_on_c, 13, 61, 100
19, 160560, Note_on_c, 13, 61, 0
19, 160860, Note_on_c, 13, 69, 100
19, 160920, Note_on_c, 13, 69, 0
19, 160920, Note_on_c, 13, 74, 100
19, 160980, Note_on_c, 13, 74, 0
19, 160980, Note_on_c, 13, 73, 100
19, 161010, Note_on_c, 13, 73, 0
19, 161010, Note_on_c, 13, 71, 100
19, 161040, Note_on_c, 13, 71, 0
19, 161040, Note_on_c, 13, 73, 100
19, 161070, Note_on_c, 13, 73, 0
19, 161070, Note_on_c, 13, 71, 100
19, 161100, Note_on_c, 13, 71, 0
19, 161100, Note_on_c, 13, 69, 100
19, 161130, Note_on_c, 13, 69, 0
19, 161130, Note_on_c, 13, 68, 100
19, 161160, Note_on_c, 13, 68, 0
19, 161160, Note_on_c, 13, 69, 100
19, 161190, Note_on_c, 13, 69, 0
19, 161190, Note_on_c, 13, 68, 100
19, 161220, Note_on_c, 13, 68, 0
19, 161220, Note_on_c, 13, 66, 100
19, 161250, Note_on_c, 13, 66, 0
19, 161250, Note_on_c, 13, 64, 100
19, 161280, Note_on_c, 13, 64, 0
19, 161280, Note_on_c, 13, 73, 100
19, 161310, Note_on_c, 13, 73, 0
19, 161310, Note_on_c, 13, 71, 100
19, 161340, Note_on_c, 13, 71, 0
19, 161340, Note_on_c, 13, 73, 100
19, 161400, Note_on_c, 13, 73, 0
19, 161400, Note_on_c, 13, 69, 100
19, 161460, Note_on_c, 13, 69, 0
19, 161460, Note_on_c, 13, 64, 100
19, 161490, Note_on_c, 13, 64, 0
19, 161490, Note_on_c, 13, 66, 100
19, 161520, Note_on_c, 13, 66, 0
19, 161520, Note_on_c, 13, 67, 100
19, 161580, Note_on_c, 13, 67, 0
19, 161580, Note_on_c, 13, 64, 100
19, 161640, Note_on_c, 13, 64, 0
19, 161640, Note_on_c, 13, 70, 100
19, 161730, Note_on_c, 13, 70, 0
19, 161730, Note_on_c, 13, 71, 100
19, 161760, Note_on_c, 13, 71, 0
19, 161760, Note_on_c, 13, 71, 100
19, 161790, Note_on_c, 13, 71, 0
19, 161790, Note_on_c, 13, 73, 100
19, 161820, Note_on_c, 13, 73, 0
19, 161820, Note_on_c, 13, 74, 100
19, 161910, Note_on_c, 13, 74, 0
19, 161910, Note_on_c, 13, 71, 100
19, 161940, Note_on_c, 13, 71, 0
19, 161940, Note_on_c, 13, 73, 100
19, 161970, Note_on_c, 13, 73, 0
19, 161970, Note_on_c, 13, 68, 100
19, 162000, Note_on_c, 13, 68, 0
19, 162000, Note_on_c, 13, 69, 100
19, 162090, Note_on_c, 13, 69, 0
19, 162090, Note_on_c, 13, 66, 100
19, 162120, Note_on_c, 13, 66, 0
19, 162120, Note_on_c, 13, 71, 100
19, 162150, Note_on_c, 13, 71, 0
19, 162150, Note_on_c, 13, 69, 100
19, 162180, Note_on_c, 13, 69, 0
19, 162180, Note_on_c, 13, 68, 100
19, 162210, Note_on_c, 13, 68, 0
19, 162210, Note_on_c, 13, 69, 100
19, 162225, Note_on_c, 13, 69, 0
19, 162225, Note_on_c, 13, 66, 100
19, 162240, Note_on_c, 13, 66, 0
19, 162240, Note_on_c, 13, 65, 100
19, 162270, Note_on_c, 13, 65, 0
19, 162270, Note_on_c, 13, 66, 100
19, 162300, Note_on_c, 13, 66, 0
19, 162300, Note_on_c, 13, 68, 100
19, 162330, Note_on_c, 13, 68, 0
19, 162330, Note_on_c, 13, 65, 100
19, 162360, Note_on_c, 13, 65, 0
19, 162360, Note_on_c, 13, 61, 100
19, 162420, Note_on_c, 13, 61, 0
19, 163260, Note_on_c, 13, 73, 100
19, 163380, Note_on_c, 13, 73, 0
19, 163380, Note_on_c, 13, 71, 100
19, 163440, Note_on_c, 13, 71, 0
19, 163440, Note_on_c, 13, 69, 100
19, 163500, Note_on_c, 13, 69, 0
19, 163500, Note_on_c, 13, 68, 100
19, 163530, Note_on_c, 13, 68, 0
19, 163530, Note_on_c, 13, 66, 100
19, 163560, Note_on_c, 13, 66, 0
19, 163560, Note_on_c, 13, 68, 100
19, 163620, Note_on_c, 13, 68, 0
19, 163620, Note_on_c, 13, 65, 100
19, 163680, Note_on_c, 13, 65, 0
19, 163680, Note_on_c, 13, 66, 100
19, 163710, Note_on_c, 13, 66, 0
19, 163710, Note_on_c, 13, 61, 100
19, 163740, Note_on_c, 13, 61, 0
19, 163740, Note_on_c, 13, 66, 100
19, 163770, Note_on_c, 13, 66, 0
19, 163770, Note_on_c, 13, 69, 100
19, 163800, Note_on_c, 13, 69, 0
19, 163800, Note_on_c, 13, 68, 100
19, 163830, Note_on_c, 13, 68, 0
19, 163830, Note_on_c, 13, 66, 100
19, 163860, Note_on_c, 13, 66, 0
19, 163860, Note_on_c, 13, 65, 100
19, 163890, Note_on_c, 13, 65, 0
19, 163890, Note_on_c, 13, 66, 100
19, 163920, Note_on_c, 13, 66, 0
19, 163920, Note_on_c, 13, 68, 100
19, 163950, Note_on_c, 13, 68, 0
19, 163950, Note_on_c, 13, 61, 100
19, 163980, Note_on_c, 13, 61, 0
19, 163980, Note_on_c, 13, 68, 100
19, 164010, Note_on_c, 13, 68, 0
19, 164010, Note_on_c, 13, 71, 100
19, 164040, Note_on_c, 13, 71, 0
19, 164040, Note_on_c, 13, 69, 100
19, 164070, Note_on_c, 13, 69, 0
19, 164070, Note_on_c, 13, 68, 100
19, 164100, Note_on_c, 13, 68, 0
19, 164100, Note_on_c, 13, 66, 100
19, 164130, Note_on_c, 13, 66, 0
19, 164130, Note_on_c, 13, 68, 100
19, 164160, Note_on_c, 13, 68, 0
19, 164160, Note_on_c, 13, 69, 100
19, 164220, Note_on_c, 13, 69, 0
19, 164220, Note_on_c, 13, 66, 100
19, 164280, Note_on_c, 13, 66, 0
19, 164700, Note_on_c, 13, 61, 100
19, 164760, Note_on_c, 13, 61, 0
19, 164760, Note_on_c, 13, 69, 100
19, 164820, Note_on_c, 13, 69, 0
19, 164820, Note_on_c, 13, 68, 90
19, 164849, Note_on_c, 13, 68, 0
19, 164850, Note_on_c, 13, 66, 90
19, 164879, Note_on_c, 13, 66, 0
19, 164880, Note_on_c, 13, 64, 90
19, 164909, Note_on_c, 13, 64, 0
19, 164910, Note_on_c, 13, 63, 90
19, 164939, Note_on_c, 13, 63, 0
19, 164940, Note_on_c, 13, 68, 90
19, 165060, Note_on_c, 13, 68, 0
19, 165060, Note_on_c, 13, 66, 90
19, 165120, Note_on_c, 13, 66, 0
19, 165120, Note_on_c, 13, 64, 90
19, 165149, Note_on_c, 13, 64, 0
19, 165150, Note_on_c, 13, 63, 90
19, 165179, Note_on_c, 13, 63, 0
19, 165180, Note_on_c, 13, 61, 90
19, 165209, Note_on_c, 13, 61, 0
19, 165210, Note_on_c, 13, 63, 90
19, 165239, Note_on_c, 13, 63, 0
19, 165240, Note_on_c, 13, 64, 90
19, 165269, Note_on_c, 13, 64, 0
19, 165270, Note_on_c, 13, 66, 90
19, 165299, Note_on_c, 13, 66, 0
19, 165300, Note_on_c, 13, 68, 90
19, 165329, Note_on_c, 13, 68, 0
19, 165330, Note_on_c, 13, 69, 90
19, 165359, Note_on_c, 13, 69, 0
19, 165360, Note_on_c, 13, 71, 90
19, 165389, Note_on_c, 13, 71, 0
19, 165390, Note_on_c, 13, 73, 90
19, 165419, Note_on_c, 13, 73, 0
19, 165420, Note_on_c, 13, 74, 90
19, 165540, Note_on_c, 13, 74, 0
19, 165540, Note_on_c, 13, 73, 90
19, 165599, Note_on_c, 13, 73, 0
19, 165600, Note_on_c, 13, 71, 90
19, 165629, Note_on_c, 13, 71, 0
19, 165630, Note_on_c, 13, 69, 90
19, 165659, Note_on_c, 13, 69, 0
19, 165660, Note_on_c, 13, 68, 90
19, 165689, Note_on_c, 13, 68, 0
19, 165690, Note_on_c, 13, 66, 90
19, 165719, Note_on_c, 13, 66, 0
19, 165720, Note_on_c, 13, 75, 90
19, 165870, Note_on_c, 13, 75, 0
19, 165870, Note_on_c, 13, 72, 90
19, 165900, Note_on_c, 13, 72, 0
19, 165900, Note_on_c, 13, 73, 90
19, 165930, Note_on_c, 13, 73, 0
19, 165930, Note_on_c, 13, 69, 90
19, 165960, Note_on_c, 13, 69, 0
19, 165960, Note_on_c, 13, 66, 90
19, 166049, Note_on_c, 13, 66, 0
19, 166050, Note_on_c, 13, 68, 90
19, 166080, Note_on_c, 13, 68, 0
19, 166080, Note_on_c, 13, 68, 90
19, 166200, Note_on_c, 13, 68, 0
19, 166260, Note_on_c, 13, 75, 90
19, 166290, Note_on_c, 13, 75, 0
19, 166290, Note_on_c, 13, 66, 90
19, 166320, Note_on_c, 13, 66, 0
19, 166320, Note_on_c, 13, 64, 90
19, 166350, Note_on_c, 13, 64, 0
19, 166350, Note_on_c, 13, 63, 90
19, 166380, Note_on_c, 13, 63, 0
19, 166380, Note_on_c, 13, 64, 90
19, 166440, Note_on_c, 13, 64, 0
19, 166440, Note_on_c, 13, 73, 90
19, 166500, Note_on_c, 13, 73, 0
19, 166530, Note_on_c, 13, 69, 90
19, 166560, Note_on_c, 13, 69, 0
19, 166560, Note_on_c, 13, 66, 90
19, 166620, Note_on_c, 13, 66, 0
19, 166620, Note_on_c, 13, 59, 90
19, 166680, Note_on_c, 13, 59, 0
19, 166680, Note_on_c, 13, 66, 90
19, 166770, Note_on_c, 13, 66, 0
19, 166770, Note_on_c, 13, 68, 90
19, 166800, Note_on_c, 13, 68, 0
19, 166800, Note_on_c, 13, 69, 90
19, 166920, Note_on_c, 13, 69, 0
19, 167100, Note_on_c, 13, 68, 90
19, 167130, Note_on_c, 13, 68, 0
19, 167130, Note_on_c, 13, 66, 90
19, 167160, Note_on_c, 13, 66, 0
19, 167160, Note_on_c, 13, 68, 90
19, 167250, Note_on_c, 13, 68, 0
19, 167250, Note_on_c, 13, 69, 90
19, 167280, Note_on_c, 13, 69, 0
19, 167280, Note_on_c, 13, 71, 90
19, 167400, Note_on_c, 13, 71, 0
19, 167580, Note_on_c, 13, 73, 90
19, 167669, Note_on_c, 13, 73, 0
19, 167670, Note_on_c, 13, 74, 90
19, 167684, Note_on_c, 13, 74, 0
19, 167685, Note_on_c, 13, 76, 90
19, 167699, Note_on_c, 13, 76, 0
19, 167700, Note_on_c, 13, 73, 90
19, 167759, Note_on_c, 13, 73, 0
19, 167760, Note_on_c, 13, 70, 90
19, 167819, Note_on_c, 13, 70, 0
19, 167820, Note_on_c, 13, 68, 90
19, 167849, Note_on_c, 13, 68, 0
19, 167850, Note_on_c, 13, 66, 90
19, 167879, Note_on_c, 13, 66, 0
19, 167880, Note_on_c, 13, 71, 90
19, 167939, Note_on_c, 13, 71, 0
19, 167940, Note_on_c, 13, 73, 90
19, 167999, Note_on_c, 13, 73, 0
19, 168000, Note_on_c, 13, 74, 90
19, 168119, Note_on_c, 13, 74, 0
19, 168120, Note_on_c, 13, 74, 90
19, 168149, Note_on_c, 13, 74, 0
19, 168150, Note_on_c, 13, 73, 90
19, 168179, Note_on_c, 13, 73, 0
19, 168180, Note_on_c, 13, 73, 90
19, 168209, Note_on_c, 13, 73, 0
19, 168210, Note_on_c, 13, 71, 90
19, 168239, Note_on_c, 13, 71, 0
19, 168240, Note_on_c, 13, 71, 90
19, 168269, Note_on_c, 13, 71, 0
19, 168270, Note_on_c, 13, 69, 90
19, 168299, Note_on_c, 13, 69, 0
19, 168300, Note_on_c, 13, 69, 90
19, 168329, Note_on_c, 13, 69, 0
19, 168330, Note_on_c, 13, 67, 90
19, 168359, Note_on_c, 13, 67, 0
19, 168360, Note_on_c, 13, 67, 90
19, 168389, Note_on_c, 13, 67, 0
19, 168390, Note_on_c, 13, 66, 90
19, 168419, Note_on_c, 13, 66, 0
19, 168420, Note_on_c, 13, 66, 90
19, 168449, Note_on_c, 13, 66, 0
19, 168450, Note_on_c, 13, 64, 90
19, 168479, Note_on_c, 13, 64, 0
19, 168480, Note_on_c, 13, 64, 90
19, 168509, Note_on_c, 13, 64, 0
19, 168510, Note_on_c, 13, 74, 90
19, 168539, Note_on_c, 13, 74, 0
19, 168540, Note_on_c, 13, 73, 90
19, 168599, Note_on_c, 13, 73, 0
19, 168600, Note_on_c, 13, 72, 90
19, 168629, Note_on_c, 13, 72, 0
19, 168630, Note_on_c, 13, 71, 90
19, 168659, Note_on_c, 13, 71, 0
19, 168660, Note_on_c, 13, 71, 90
19, 168689, Note_on_c, 13, 71, 0
19, 168690, Note_on_c, 13, 69, 90
19, 168719, Note_on_c, 13, 69, 0
19, 168720, Note_on_c, 13, 69, 90
19, 168749, Note_on_c, 13, 69, 0
19, 168750, Note_on_c, 13, 67, 90
19, 168779, Note_on_c, 13, 67, 0
19, 168780, Note_on_c, 13, 67, 90
19, 168809, Note_on_c, 13, 67, 0
19, 168810, Note_on_c, 13, 66, 90
19, 168839, Note_on_c, 13, 66, 0
19, 168840, Note_on_c, 13, 66, 90
19, 168869, Note_on_c, 13, 66, 0
19, 168870, Note_on_c, 13, 64, 90
19, 168899, Note_on_c, 13, 64, 0
19, 168900, Note_on_c, 13, 64, 90
19, 168929, Note_on_c, 13, 64, 0
19, 168930, Note_on_c, 13, 62, 90
19, 168959, Note_on_c, 13, 62, 0
19, 168960, Note_on_c, 13, 62, 90
19, 168989, Note_on_c, 13, 62, 0
19, 168990, Note_on_c, 13, 72, 90
19, 169019, Note_on_c, 13, 72, 0
19, 169020, Note_on_c, 13, 71, 90
19, 169079, Note_on_c, 13, 71, 0
19, 169080, Note_on_c, 13, 76, 90
19, 169139, Note_on_c, 13, 76, 0
19, 169140, Note_on_c, 13, 72, 90
19, 169199, Note_on_c, 13, 72, 0
19, 169200, Note_on_c, 13, 69, 90
19, 169259, Note_on_c, 13, 69, 0
19, 169260, Note_on_c, 13, 69, 90
19, 169319, Note_on_c, 13, 69, 0
19, 169320, Note_on_c, 13, 69, 90
19, 169349, Note_on_c, 13, 69, 0
19, 169350, Note_on_c, 13, 71, 90
19, 169364, Note_on_c, 13, 71, 0
19, 169365, Note_on_c, 13, 72, 90
19, 169379, Note_on_c, 13, 72, 0
19, 169380, Note_on_c, 13, 71, 90
19, 169409, Note_on_c, 13, 71, 0
19, 169410, Note_on_c, 13, 69, 90
19, 169439, Note_on_c, 13, 69, 0
19, 169440, Note_on_c, 13, 71, 90
19, 169469, Note_on_c, 13, 71, 0
19, 169470, Note_on_c, 13, 67, 90
19, 169499, Note_on_c, 13, 67, 0
19, 169500, Note_on_c, 13, 64, 90
19, 169559, Note_on_c, 13, 64, 0
19, 169620, Note_on_c, 13, 70, 90
19, 169649, Note_on_c, 13, 70, 0
19, 169650, Note_on_c, 13, 71, 90
19, 169679, Note_on_c, 13, 71, 0
19, 169680, Note_on_c, 13, 73, 90
19, 169709, Note_on_c, 13, 73, 0
19, 169710, Note_on_c, 13, 66, 90
19, 169739, Note_on_c, 13, 66, 0
19, 169740, Note_on_c, 13, 74, 90
19, 169769, Note_on_c, 13, 74, 0
19, 169770, Note_on_c, 13, 73, 90
19, 169799, Note_on_c, 13, 73, 0
19, 169800, Note_on_c, 13, 70, 90
19, 169889, Note_on_c, 13, 70, 0
19, 169890, Note_on_c, 13, 71, 90
19, 169919, Note_on_c, 13, 71, 0
19, 169920, Note_on_c, 13, 71, 90
19, 170039, Note_on_c, 13, 71, 0
19, 170940, Note_on_c, 13, 66, 90
19, 171059, Note_on_c, 13, 66, 0
19, 171060, Note_on_c, 13, 71, 90
19, 171119, Note_on_c, 13, 71, 0
19, 171120, Note_on_c, 13, 68, 90
19, 171179, Note_on_c, 13, 68, 0
19, 171180, Note_on_c, 13, 66, 90
19, 171209, Note_on_c, 13, 66, 0
19, 171210, Note_on_c, 13, 64, 90
19, 171239, Note_on_c, 13, 64, 0
19, 171240, Note_on_c, 13, 69, 90
19, 171329, Note_on_c, 13, 69, 0
19, 171330, Note_on_c, 13, 71, 90
19, 171359, Note_on_c, 13, 71, 0
19, 171360, Note_on_c, 13, 73, 90
19, 171479, Note_on_c, 13, 73, 0
19, 171540, Note_on_c, 13, 73, 90
19, 171599, Note_on_c, 13, 73, 0
19, 171600, Note_on_c, 13, 73, 90
19, 171659, Note_on_c, 13, 73, 0
19, 171660, Note_on_c, 13, 66, 90
19, 171719, Note_on_c, 13, 66, 0
19, 171780, Note_on_c, 13, 68, 90
19, 171809, Note_on_c, 13, 68, 0
19, 171810, Note_on_c, 13, 69, 90
19, 171839, Note_on_c, 13, 69, 0
19, 171840, Note_on_c, 13, 71, 90
19, 171959, Note_on_c, 13, 71, 0
19, 172020, Note_on_c, 13, 71, 90
19, 172079, Note_on_c, 13, 71, 0
19, 172080, Note_on_c, 13, 71, 90
19, 172139, Note_on_c, 13, 71, 0
19, 172140, Note_on_c, 13, 65, 90
19, 172199, Note_on_c, 13, 65, 0
19, 172260, Note_on_c, 13, 66, 90
19, 172289, Note_on_c, 13, 66, 0
19, 172290, Note_on_c, 13, 68, 90
19, 172319, Note_on_c, 13, 68, 0
19, 172320, Note_on_c, 13, 69, 90
19, 172439, Note_on_c, 13, 69, 0
19, 172440, Note_on_c, 13, 73, 90
19, 172469, Note_on_c, 13, 73, 0
19, 172470, Note_on_c, 13, 71, 90
19, 172499, Note_on_c, 13, 71, 0
19, 172500, Note_on_c, 13, 71, 90
19, 172529, Note_on_c, 13, 71, 0
19, 172530, Note_on_c, 13, 70, 90
19, 172559, Note_on_c, 13, 70, 0
19, 172560, Note_on_c, 13, 70, 90
19, 172589, Note_on_c, 13, 70, 0
19, 172590, Note_on_c, 13, 67, 90
19, 172619, Note_on_c, 13, 67, 0
19, 172620, Note_on_c, 13, 67, 90
19, 172649, Note_on_c, 13, 67, 0
19, 172650, Note_on_c, 13, 66, 90
19, 172679, Note_on_c, 13, 66, 0
19, 172680, Note_on_c, 13, 66, 90
19, 172739, Note_on_c, 13, 66, 0
19, 172740, Note_on_c, 13, 76, 90
19, 172769, Note_on_c, 13, 76, 0
19, 172770, Note_on_c, 13, 74, 90
19, 172799, Note_on_c, 13, 74, 0
19, 172800, Note_on_c, 13, 74, 90
19, 172829, Note_on_c, 13, 74, 0
19, 172830, Note_on_c, 13, 73, 90
19, 172859, Note_on_c, 13, 73, 0
19, 172860, Note_on_c, 13, 73, 90
19, 172889, Note_on_c, 13, 73, 0
19, 172890, Note_on_c, 13, 71, 90
19, 172919, Note_on_c, 13, 71, 0
19, 172920, Note_on_c, 13, 71, 90
19, 172949, Note_on_c, 13, 71, 0
19, 172950, Note_on_c, 13, 69, 90
19, 172979, Note_on_c, 13, 69, 0
19, 172980, Note_on_c, 13, 69, 90
19, 173009, Note_on_c, 13, 69, 0
19, 173010, Note_on_c, 13, 68, 90
19, 173039, Note_on_c, 13, 68, 0
19, 173040, Note_on_c, 13, 68, 90
19, 173069, Note_on_c, 13, 68, 0
19, 173070, Note_on_c, 13, 66, 90
19, 173099, Note_on_c, 13, 66, 0
19, 173100, Note_on_c, 13, 66, 90
19, 173129, Note_on_c, 13, 66, 0
19, 173130, Note_on_c, 13, 64, 90
19, 173159, Note_on_c, 13, 64, 0
19, 173160, Note_on_c, 13, 64, 90
19, 173219, Note_on_c, 13, 64, 0
19, 173220, Note_on_c, 13, 74, 90
19, 173249, Note_on_c, 13, 74, 0
19, 173250, Note_on_c, 13, 73, 90
19, 173279, Note_on_c, 13, 73, 0
19, 173280, Note_on_c, 13, 73, 90
19, 173309, Note_on_c, 13, 73, 0
19, 173310, Note_on_c, 13, 71, 90
19, 173339, Note_on_c, 13, 71, 0
19, 173340, Note_on_c, 13, 71, 90
19, 173369, Note_on_c, 13, 71, 0
19, 173370, Note_on_c, 13, 69, 90
19, 173399, Note_on_c, 13, 69, 0
19, 173400, Note_on_c, 13, 69, 90
19, 173429, Note_on_c, 13, 69, 0
19, 173430, Note_on_c, 13, 68, 90
19, 173459, Note_on_c, 13, 68, 0
19, 173460, Note_on_c, 13, 68, 90
19, 173489, Note_on_c, 13, 68, 0
19, 173490, Note_on_c, 13, 66, 90
19, 173519, Note_on_c, 13, 66, 0
19, 173520, Note_on_c, 13, 66, 90
19, 173549, Note_on_c, 13, 66, 0
19, 173550, Note_on_c, 13, 64, 90
19, 173579, Note_on_c, 13, 64, 0
19, 173580, Note_on_c, 13, 64, 90
19, 173609, Note_on_c, 13, 64, 0
19, 173610, Note_on_c, 13, 62, 90
19, 173639, Note_on_c, 13, 62, 0
19, 173640, Note_on_c, 13, 62, 90
19, 173699, Note_on_c, 13, 62, 0
19, 173700, Note_on_c, 13, 73, 90
19, 173729, Note_on_c, 13, 73, 0
19, 173730, Note_on_c, 13, 71, 90
19, 173759, Note_on_c, 13, 71, 0
19, 173760, Note_on_c, 13, 71, 90
19, 173789, Note_on_c, 13, 71, 0
19, 173790, Note_on_c, 13, 69, 90
19, 173819, Note_on_c, 13, 69, 0
19, 173820, Note_on_c, 13, 69, 90
19, 173849, Note_on_c, 13, 69, 0
19, 173850, Note_on_c, 13, 68, 90
19, 173879, Note_on_c, 13, 68, 0
19, 173880, Note_on_c, 13, 68, 90
19, 173909, Note_on_c, 13, 68, 0
19, 173910, Note_on_c, 13, 66, 90
19, 173939, Note_on_c, 13, 66, 0
19, 173940, Note_on_c, 13, 66, 90
19, 173969, Note_on_c, 13, 66, 0
19, 173970, Note_on_c, 13, 65, 90
19, 173999, Note_on_c, 13, 65, 0
19, 174000, Note_on_c, 13, 65, 90
19, 174029, Note_on_c, 13, 65, 0
19, 174030, Note_on_c, 13, 63, 90
19, 174059, Note_on_c, 13, 63, 0
19, 174060, Note_on_c, 13, 63, 90
19, 174089, Note_on_c, 13, 63, 0
19, 174090, Note_on_c, 13, 61, 90
19, 174119, Note_on_c, 13, 61, 0
19, 174120, Note_on_c, 13, 61, 90
19, 174179, Note_on_c, 13, 61, 0
19, 174180, Note_on_c, 13, 71, 90
19, 174209, Note_on_c, 13, 71, 0
19, 174210, Note_on_c, 13, 69, 90
19, 174239, Note_on_c, 13, 69, 0
19, 174240, Note_on_c, 13, 69, 90
19, 174359, Note_on_c, 13, 69, 0
19, 174360, Note_on_c, 13, 66, 90
19, 174419, Note_on_c, 13, 66, 0
19, 174420, Note_on_c, 13, 69, 90
19, 174479, Note_on_c, 13, 69, 0
19, 174480, Note_on_c, 13, 69, 90
19, 174539, Note_on_c, 13, 69, 0
19, 174540, Note_on_c, 13, 63, 90
19, 174599, Note_on_c, 13, 63, 0
19, 174600, Note_on_c, 13, 63, 90
19, 174659, Note_on_c, 13, 63, 0
19, 174660, Note_on_c, 13, 71, 90
19, 174719, Note_on_c, 13, 71, 0
19, 174720, Note_on_c, 13, 71, 90
19, 174779, Note_on_c, 13, 71, 0
19, 174780, Note_on_c, 13, 65, 90
19, 174839, Note_on_c, 13, 65, 0
19, 174840, Note_on_c, 13, 65, 90
19, 174899, Note_on_c, 13, 65, 0
19, 174900, Note_on_c, 13, 73, 90
19, 174959, Note_on_c, 13, 73, 0
19, 174960, Note_on_c, 13, 73, 90
19, 174989, Note_on_c, 13, 73, 0
19, 174990, Note_on_c, 13, 71, 90
19, 175019, Note_on_c, 13, 71, 0
19, 175020, Note_on_c, 13, 74, 90
19, 175049, Note_on_c, 13, 74, 0
19, 175050, Note_on_c, 13, 73, 90
19, 175079, Note_on_c, 13, 73, 0
19, 175080, Note_on_c, 13, 65, 90
19, 175169, Note_on_c, 13, 65, 0
19, 175170, Note_on_c, 13, 66, 90
19, 175199, Note_on_c, 13, 66, 0
19, 175200, Note_on_c, 13, 66, 90
19, 175319, Note_on_c, 13, 66, 0
19, 180120, Control_c, 13, 0, 10
19, 180120, Program_c, 13, 71
19, 180180, Note_on_c, 13, 63, 90
19, 180239, Note_on_c, 13, 63, 0
19, 180240, Note_on_c, 13, 66, 90
19, 180299, Note_on_c, 13, 66, 0
19, 180300, Note_on_c, 13, 66, 90
19, 180359, Note_on_c, 13, 66, 0
19, 180420, Note_on_c, 13, 72, 90
19, 180449, Note_on_c, 13, 72, 0
19, 180450, Note_on_c, 13, 73, 90
19, 180479, Note_on_c, 13, 73, 0
19, 180480, Note_on_c, 13, 75, 90
19, 180509, Note_on_c, 13, 75, 0
19, 180510, Note_on_c, 13, 72, 90
19, 180539, Note_on_c, 13, 72, 0
19, 180540, Note_on_c, 13, 68, 90
19, 180599, Note_on_c, 13, 68, 0
19, 180660, Note_on_c, 13, 68, 90
19, 180719, Note_on_c, 13, 68, 0
19, 180720, Note_on_c, 13, 65, 90
19, 180779, Note_on_c, 13, 65, 0
19, 180780, Note_on_c, 13, 65, 90
19, 180839, Note_on_c, 13, 65, 0
19, 180840, Note_on_c, 13, 74, 90
19, 180899, Note_on_c, 13, 74, 0
19, 180900, Note_on_c, 13, 73, 90
19, 180959, Note_on_c, 13, 73, 0
19, 180960, Note_on_c, 13, 73, 90
19, 181079, Note_on_c, 13, 73, 0
19, 181140, Note_on_c, 13, 73, 90
19, 181199, Note_on_c, 13, 73, 0
19, 181200, Note_on_c, 13, 66, 90
19, 181259, Note_on_c, 13, 66, 0
19, 181260, Note_on_c, 13, 66, 90
19, 181319, Note_on_c, 13, 66, 0
19, 181320, Note_on_c, 13, 71, 90
19, 181379, Note_on_c, 13, 71, 0
19, 181380, Note_on_c, 13, 66, 90
19, 181439, Note_on_c, 13, 66, 0
19, 181440, Note_on_c, 13, 68, 90
19, 181559, Note_on_c, 13, 68, 0
19, 183960, Note_on_c, 13, 69, 90
19, 184079, Note_on_c, 13, 69, 0
19, 184140, Note_on_c, 13, 66, 90
19, 184169, Note_on_c, 13, 66, 0
19, 184170, Note_on_c, 13, 64, 90
19, 184199, Note_on_c, 13, 64, 0
19, 184200, Note_on_c, 13, 63, 90
19, 184259, Note_on_c, 13, 63, 0
19, 184260, Note_on_c, 13, 63, 90
19, 184319, Note_on_c, 13, 63, 0
19, 184320, Note_on_c, 13, 71, 90
19, 184439, Note_on_c, 13, 71, 0
19, 184500, Note_on_c, 13, 71, 90
19, 184559, Note_on_c, 13, 71, 0
19, 184560, Note_on_c, 13, 64, 90
19, 184619, Note_on_c, 13, 64, 0
19, 184620, Note_on_c, 13, 64, 90
19, 184679, Note_on_c, 13, 64, 0
19, 184680, Note_on_c, 13, 69, 90
19, 184739, Note_on_c, 13, 69, 0
19, 184740, Note_on_c, 13, 68, 90
19, 184799, Note_on_c, 13, 68, 0
19, 184800, Note_on_c, 13, 64, 90
19, 184920, Note_on_c, 13, 64, 0
19, 272340, Control_c, 13, 0, 10
19, 272340, Program_c, 13, 71
19, 272400, Note_on_c, 13, 74, 100
19, 272460, Note_on_c, 13, 74, 0
19, 272460, Note_on_c, 13, 71, 100
19, 272520, Note_on_c, 13, 71, 0
19, 272520, Note_on_c, 13, 71, 100
19, 272580, Note_on_c, 13, 71, 0
19, 272880, Note_on_c, 13, 72, 100
19, 272940, Note_on_c, 13, 72, 0
19, 272940, Note_on_c, 13, 72, 100
19, 273000, Note_on_c, 13, 72, 0
19, 273000, Note_on_c, 13, 69, 100
19, 273060, Note_on_c, 13, 69, 0
19, 273060, Note_on_c, 13, 66, 100
19, 273150, Note_on_c, 13, 66, 0
19, 273150, Note_on_c, 13, 66, 100
19, 273180, Note_on_c, 13, 66, 0
19, 273180, Note_on_c, 13, 62, 100
19, 273300, Note_on_c, 13, 62, 0
19, 273600, Note_on_c, 13, 66, 100
19, 273660, Note_on_c, 13, 66, 0
19, 273660, Note_on_c, 13, 62, 100
19, 273720, Note_on_c, 13, 62, 0
19, 273720, Note_on_c, 13, 67, 100
19, 273750, Note_on_c, 13, 67, 0
19, 273750, Note_on_c, 13, 66, 100
19, 273780, Note_on_c, 13, 66, 0
19, 273780, Note_on_c, 13, 67, 100
19, 273840, Note_on_c, 13, 67, 0
19, 273840, Note_on_c, 13, 62, 100
19, 273900, Note_on_c, 13, 62, 0
19, 273900, Note_on_c, 13, 64, 100
19, 274020, Note_on_c, 13, 64, 0
19, 274080, Note_on_c, 13, 71, 100
19, 274140, Note_on_c, 13, 71, 0
19, 274140, Note_on_c, 13, 64, 100
19, 274200, Note_on_c, 13, 64, 0
19, 274200, Note_on_c, 13, 69, 100
19, 274230, Note_on_c, 13, 69, 0
19, 274230, Note_on_c, 13, 67, 100
19, 274260, Note_on_c, 13, 67, 0
19, 274260, Note_on_c, 13, 69, 100
19, 274320, Note_on_c, 13, 69, 0
19, 274320, Note_on_c, 13, 69, 100
19, 274380, Note_on_c, 13, 69, 0
19, 274380, Note_on_c, 13, 69, 100
19, 274410, Note_on_c, 13, 69, 0
19, 274410, Note_on_c, 13, 67, 100
19, 274440, Note_on_c, 13, 67, 0
19, 274440, Note_on_c, 13, 66, 100
19, 274470, Note_on_c, 13, 66, 0
19, 274470, Note_on_c, 13, 67, 100
19, 274500, Note_on_c, 13, 67, 0
19, 274500, Note_on_c, 13, 69, 100
19, 274530, Note_on_c, 13, 69, 0
19, 274530, Note_on_c, 13, 71, 100
19, 274560, Note_on_c, 13, 71, 0
19, 274560, Note_on_c, 13, 73, 100
19, 274590, Note_on_c, 13, 73, 0
19, 274590, Note_on_c, 13, 74, 100
19, 274620, Note_on_c, 13, 74, 0
19, 274620, Note_on_c, 13, 76, 100
19, 274680, Note_on_c, 13, 76, 0
19, 274680, Note_on_c, 13, 69, 100
19, 274740, Note_on_c, 13, 69, 0
19, 274740, Note_on_c, 13, 69, 100
19, 274800, Note_on_c, 13, 69, 0
19, 274800, Note_on_c, 13, 64, 100
19, 274860, Note_on_c, 13, 64, 0
19, 274860, Note_on_c, 13, 66, 100
19, 274920, Note_on_c, 13, 66, 0
19, 274920, Note_on_c, 13, 69, 100
19, 274980, Note_on_c, 13, 69, 0
19, 274980, Note_on_c, 13, 69, 100
19, 275040, Note_on_c, 13, 69, 0
19, 275040, Note_on_c, 13, 67, 100
19, 275070, Note_on_c, 13, 67, 0
19, 275070, Note_on_c, 13, 66, 100
19, 275100, Note_on_c, 13, 66, 0
19, 275100, Note_on_c, 13, 71, 100
19, 275160, Note_on_c, 13, 71, 0
19, 275160, Note_on_c, 13, 71, 100
19, 275220, Note_on_c, 13, 71, 0
19, 275220, Note_on_c, 13, 69, 100
19, 275250, Note_on_c, 13, 69, 0
19, 275250, Note_on_c, 13, 67, 100
19, 275280, Note_on_c, 13, 67, 0
19, 275280, Note_on_c, 13, 66, 100
19, 275310, Note_on_c, 13, 66, 0
19, 275310, Note_on_c, 13, 64, 100
19, 275340, Note_on_c, 13, 64, 0
19, 275340, Note_on_c, 13, 64, 100
19, 275400, Note_on_c, 13, 64, 0
19, 275400, Note_on_c, 13, 66, 100
19, 275430, Note_on_c, 13, 66, 0
19, 275430, Note_on_c, 13, 67, 100
19, 275460, Note_on_c, 13, 67, 0
19, 275460, Note_on_c, 13, 69, 100
19, 275610, Note_on_c, 13, 69, 0
19, 275610, Note_on_c, 13, 73, 100
19, 275640, Note_on_c, 13, 73, 0
19, 275640, Note_on_c, 13, 74, 100
19, 275670, Note_on_c, 13, 74, 0
19, 275670, Note_on_c, 13, 71, 100
19, 275700, Note_on_c, 13, 71, 0
19, 275700, Note_on_c, 13, 69, 100
19, 275760, Note_on_c, 13, 69, 0
19, 275760, Note_on_c, 13, 67, 100
19, 275790, Note_on_c, 13, 67, 0
19, 275790, Note_on_c, 13, 66, 100
19, 275820, Note_on_c, 13, 66, 0
19, 275820, Note_on_c, 13, 66, 100
19, 275940, Note_on_c, 13, 66, 0
19, 278160, Note_on_c, 13, 64, 90
19, 278219, Note_on_c, 13, 64, 0
19, 278220, Note_on_c, 13, 69, 90
19, 278279, Note_on_c, 13, 69, 0
19, 278280, Note_on_c, 13, 69, 90
19, 278339, Note_on_c, 13, 69, 0
19, 278340, Note_on_c, 13, 71, 90
19, 278399, Note_on_c, 13, 71, 0
19, 278400, Note_on_c, 13, 73, 90
19, 278459, Note_on_c, 13, 73, 0
19, 278460, Note_on_c, 13, 74, 90
19, 278519, Note_on_c, 13, 74, 0
19, 278520, Note_on_c, 13, 74, 90
19, 278579, Note_on_c, 13, 74, 0
19, 278640, Note_on_c, 13, 62, 90
19, 278699, Note_on_c, 13, 62, 0
19, 278700, Note_on_c, 13, 67, 90
19, 278759, Note_on_c, 13, 67, 0
19, 278760, Note_on_c, 13, 67, 90
19, 278819, Note_on_c, 13, 67, 0
19, 278820, Note_on_c, 13, 71, 90
19, 278879, Note_on_c, 13, 71, 0
19, 278880, Note_on_c, 13, 69, 90
19, 278939, Note_on_c, 13, 69, 0
19, 278940, Note_on_c, 13, 66, 90
19, 278999, Note_on_c, 13, 66, 0
19, 279000, Note_on_c, 13, 66, 90
19, 279059, Note_on_c, 13, 66, 0
19, 280290, Control_c, 13, 0, 10
19, 280290, Program_c, 13, 71
19, 280320, Note_on_c, 13, 66, 90
19, 280379, Note_on_c, 13, 66, 0
19, 280380, Note_on_c, 13, 66, 90
19, 280439, Note_on_c, 13, 66, 0
19, 280440, Note_on_c, 13, 62, 90
19, 280469, Note_on_c, 13, 62, 0
19, 280470, Note_on_c, 13, 64, 90
19, 280499, Note_on_c, 13, 64, 0
19, 280500, Note_on_c, 13, 66, 90
19, 280559, Note_on_c, 13, 66, 0
19, 280560, Note_on_c, 13, 67, 90
19, 280619, Note_on_c, 13, 67, 0
19, 280620, Note_on_c, 13, 69, 90
19, 280679, Note_on_c, 13, 69, 0
19, 280680, Note_on_c, 13, 67, 90
19, 280709, Note_on_c, 13, 67, 0
19, 280710, Note_on_c, 13, 66, 90
19, 280739, Note_on_c, 13, 66, 0
19, 280740, Note_on_c, 13, 64, 90
19, 280799, Note_on_c, 13, 64, 0
19, 280800, Note_on_c, 13, 67, 90
19, 280829, Note_on_c, 13, 67, 0
19, 280830, Note_on_c, 13, 66, 90
19, 280859, Note_on_c, 13, 66, 0
19, 280860, Note_on_c, 13, 67, 90
19, 280919, Note_on_c, 13, 67, 0
19, 280920, Note_on_c, 13, 71, 90
19, 280949, Note_on_c, 13, 71, 0
19, 280950, Note_on_c, 13, 69, 90
19, 280979, Note_on_c, 13, 69, 0
19, 280980, Note_on_c, 13, 71, 90
19, 281039, Note_on_c, 13, 71, 0
19, 281040, Note_on_c, 13, 69, 90
19, 281099, Note_on_c, 13, 69, 0
19, 281100, Note_on_c, 13, 67, 90
19, 281159, Note_on_c, 13, 67, 0
19, 281160, Note_on_c, 13, 66, 90
19, 281219, Note_on_c, 13, 66, 0
19, 281280, Note_on_c, 13, 69, 90
19, 281339, Note_on_c, 13, 69, 0
19, 281340, Note_on_c, 13, 69, 90
19, 281399, Note_on_c, 13, 69, 0
19, 281400, Note_on_c, 13, 74, 90
19, 281429, Note_on_c, 13, 74, 0
19, 281430, Note_on_c, 13, 73, 90
19, 281459, Note_on_c, 13, 73, 0
19, 281460, Note_on_c, 13, 74, 90
19, 281519, Note_on_c, 13, 74, 0
19, 281520, Note_on_c, 13, 66, 90
19, 281579, Note_on_c, 13, 66, 0
19, 281580, Note_on_c, 13, 67, 90
19, 281609, Note_on_c, 13, 67, 0
19, 281610, Note_on_c, 13, 66, 90
19, 281639, Note_on_c, 13, 66, 0
19, 281640, Note_on_c, 13, 64, 90
19, 281669, Note_on_c, 13, 64, 0
19, 281670, Note_on_c, 13, 66, 90
19, 281699, Note_on_c, 13, 66, 0
19, 281700, Note_on_c, 13, 67, 90
19, 281729, Note_on_c, 13, 67, 0
19, 281730, Note_on_c, 13, 69, 90
19, 281759, Note_on_c, 13, 69, 0
19, 281760, Note_on_c, 13, 67, 90
19, 281789, Note_on_c, 13, 67, 0
19, 281790, Note_on_c, 13, 69, 90
19, 281819, Note_on_c, 13, 69, 0
19, 281820, Note_on_c, 13, 67, 90
19, 281849, Note_on_c, 13, 67, 0
19, 281850, Note_on_c, 13, 66, 90
19, 281879, Note_on_c, 13, 66, 0
19, 281880, Note_on_c, 13, 64, 90
19, 281909, Note_on_c, 13, 64, 0
19, 281910, Note_on_c, 13, 66, 90
19, 281939, Note_on_c, 13, 66, 0
19, 281940, Note_on_c, 13, 67, 90
19, 281969, Note_on_c, 13, 67, 0
19, 281970, Note_on_c, 13, 69, 90
19, 281999, Note_on_c, 13, 69, 0
19, 282000, Note_on_c, 13, 66, 90
19, 282029, Note_on_c, 13, 66, 0
19, 282030, Note_on_c, 13, 67, 90
19, 282059, Note_on_c, 13, 67, 0
19, 282060, Note_on_c, 13, 69, 90
19, 282089, Note_on_c, 13, 69, 0
19, 282090, Note_on_c, 13, 67, 90
19, 282119, Note_on_c, 13, 67, 0
19, 282120, Note_on_c, 13, 66, 90
19, 282149, Note_on_c, 13, 66, 0
19, 282150, Note_on_c, 13, 67, 90
19, 282179, Note_on_c, 13, 67, 0
19, 282180, Note_on_c, 13, 69, 90
19, 282209, Note_on_c, 13, 69, 0
19, 282210, Note_on_c, 13, 71, 90
19, 282239, Note_on_c, 13, 71, 0
19, 282240, Note_on_c, 13, 69, 90
19, 282269, Note_on_c, 13, 69, 0
19, 282270, Note_on_c, 13, 71, 90
19, 282299, Note_on_c, 13, 71, 0
19, 282300, Note_on_c, 13, 69, 90
19, 282329, Note_on_c, 13, 69, 0
19, 282330, Note_on_c, 13, 67, 90
19, 282359, Note_on_c, 13, 67, 0
19, 282360, Note_on_c, 13, 66, 90
19, 282389, Note_on_c, 13, 66, 0
19, 282390, Note_on_c, 13, 67, 90
19, 282419, Note_on_c, 13, 67, 0
19, 282420, Note_on_c, 13, 69, 90
19, 282449, Note_on_c, 13, 69, 0
19, 282450, Note_on_c, 13, 71, 90
19, 282479, Note_on_c, 13, 71, 0
19, 282480, Note_on_c, 13, 67, 90
19, 282509, Note_on_c, 13, 67, 0
19, 282510, Note_on_c, 13, 69, 90
19, 282539, Note_on_c, 13, 69, 0
19, 282540, Note_on_c, 13, 71, 90
19, 282569, Note_on_c, 13, 71, 0
19, 282570, Note_on_c, 13, 69, 90
19, 282599, Note_on_c, 13, 69, 0
19, 282600, Note_on_c, 13, 67, 90
19, 282629, Note_on_c, 13, 67, 0
19, 282630, Note_on_c, 13, 69, 90
19, 282659, Note_on_c, 13, 69, 0
19, 282660, Note_on_c, 13, 71, 90
19, 282719, Note_on_c, 13, 71, 0
19, 282720, Note_on_c, 13, 71, 90
19, 282779, Note_on_c, 13, 71, 0
19, 282780, Note_on_c, 13, 71, 90
19, 282809, Note_on_c, 13, 71, 0
19, 282810, Note_on_c, 13, 69, 90
19, 282839, Note_on_c, 13, 69, 0
19, 282840, Note_on_c, 13, 67, 90
19, 282869, Note_on_c, 13, 67, 0
19, 282870, Note_on_c, 13, 69, 90
19, 282899, Note_on_c, 13, 69, 0
19, 282900, Note_on_c, 13, 71, 90
19, 282959, Note_on_c, 13, 71, 0
19, 282960, Note_on_c, 13, 67, 90
19, 283019, Note_on_c, 13, 67, 0
19, 283020, Note_on_c, 13, 64, 90
19, 283109, Note_on_c, 13, 64, 0
19, 283110, Note_on_c, 13, 62, 90
19, 283139, Note_on_c, 13, 62, 0
19, 283140, Note_on_c, 13, 64, 90
19, 283199, Note_on_c, 13, 64, 0
19, 283200, Note_on_c, 13, 64, 90
19, 283259, Note_on_c, 13, 64, 0
19, 283260, Note_on_c, 13, 66, 90
19, 283319, Note_on_c, 13, 66, 0
19, 283320, Note_on_c, 13, 69, 90
19, 283349, Note_on_c, 13, 69, 0
19, 283350, Note_on_c, 13, 67, 90
19, 283379, Note_on_c, 13, 67, 0
19, 283380, Note_on_c, 13, 69, 90
19, 283439, Note_on_c, 13, 69, 0
19, 283440, Note_on_c, 13, 66, 90
19, 283499, Note_on_c, 13, 66, 0
19, 283500, Note_on_c, 13, 74, 90
19, 283559, Note_on_c, 13, 74, 0
19, 283560, Note_on_c, 13, 72, 90
19, 283589, Note_on_c, 13, 72, 0
19, 283590, Note_on_c, 13, 71, 90
19, 283619, Note_on_c, 13, 71, 0
19, 283620, Note_on_c, 13, 72, 90
19, 283679, Note_on_c, 13, 72, 0
19, 283680, Note_on_c, 13, 69, 90
19, 283739, Note_on_c, 13, 69, 0
19, 283740, Note_on_c, 13, 67, 90
19, 283859, Note_on_c, 13, 67, 0
19, 289740, Control_c, 13, 0, 10
19, 289740, Program_c, 13, 71
19, 289740, Note_on_c, 13, 62, 100
19, 289800, Note_on_c, 13, 62, 0
19, 289800, Note_on_c, 13, 64, 100
19, 289830, Note_on_c, 13, 64, 0
19, 289830, Note_on_c, 13, 66, 100
19, 289860, Note_on_c, 13, 66, 0
19, 289860, Note_on_c, 13, 67, 100
19, 289890, Note_on_c, 13, 67, 0
19, 289890, Note_on_c, 13, 69, 100
19, 289920, Note_on_c, 13, 69, 0
19, 289920, Note_on_c, 13, 71, 100
19, 289950, Note_on_c, 13, 71, 0
19, 289950, Note_on_c, 13, 72, 100
19, 289980, Note_on_c, 13, 72, 0
19, 289980, Note_on_c, 13, 71, 100
19, 290010, Note_on_c, 13, 71, 0
19, 290010, Note_on_c, 13, 67, 100
19, 290040, Note_on_c, 13, 67, 0
19, 290040, Note_on_c, 13, 69, 100
19, 290100, Note_on_c, 13, 69, 0
19, 290100, Note_on_c, 13, 67, 100
19, 290220, Note_on_c, 13, 67, 0
19, 290220, Note_on_c, 13, 62, 100
19, 290460, Note_on_c, 13, 62, 0
19, 290490, Note_on_c, 13, 67, 100
19, 290520, Note_on_c, 13, 67, 0
19, 290520, Note_on_c, 13, 66, 100
19, 290550, Note_on_c, 13, 66, 0
19, 290550, Note_on_c, 13, 67, 100
19, 290580, Note_on_c, 13, 67, 0
19, 290580, Note_on_c, 13, 69, 100
19, 290610, Note_on_c, 13, 69, 0
19, 290610, Note_on_c, 13, 67, 100
19, 290640, Note_on_c, 13, 67, 0
19, 290640, Note_on_c, 13, 66, 100
19, 290670, Note_on_c, 13, 66, 0
19, 290670, Note_on_c, 13, 67, 100
19, 290700, Note_on_c, 13, 67, 0
19, 290700, Note_on_c, 13, 72, 100
19, 290730, Note_on_c, 13, 72, 0
19, 290730, Note_on_c, 13, 69, 100
19, 290760, Note_on_c, 13, 69, 0
19, 290760, Note_on_c, 13, 71, 100
19, 290820, Note_on_c, 13, 71, 0
19, 290820, Note_on_c, 13, 71, 100
19, 290850, Note_on_c, 13, 71, 0
19, 290850, Note_on_c, 13, 67, 100
19, 290880, Note_on_c, 13, 67, 0
19, 290880, Note_on_c, 13, 69, 100
19, 290940, Note_on_c, 13, 69, 0
19, 290940, Note_on_c, 13, 69, 100
19, 291180, Note_on_c, 13, 69, 0
19, 291300, Note_on_c, 13, 74, 100
19, 291570, Note_on_c, 13, 74, 0
19, 291570, Note_on_c, 13, 72, 100
19, 291600, Note_on_c, 13, 72, 0
19, 291600, Note_on_c, 13, 71, 100
19, 291630, Note_on_c, 13, 71, 0
19, 291630, Note_on_c, 13, 69, 100
19, 291660, Note_on_c, 13, 69, 0
19, 291660, Note_on_c, 13, 71, 100
19, 291720, Note_on_c, 13, 71, 0
19, 291720, Note_on_c, 13, 67, 100
19, 291750, Note_on_c, 13, 67, 0
19, 291750, Note_on_c, 13, 66, 100
19, 291780, Note_on_c, 13, 66, 0
19, 291780, Note_on_c, 13, 67, 100
19, 291840, Note_on_c, 13, 67, 0
19, 291840, Note_on_c, 13, 62, 100
19, 291900, Note_on_c, 13, 62, 0
19, 291900, Note_on_c, 13, 64, 100
19, 291960, Note_on_c, 13, 64, 0
19, 291960, Note_on_c, 13, 64, 100
19, 291990, Note_on_c, 13, 64, 0
19, 291990, Note_on_c, 13, 62, 100
19, 292020, Note_on_c, 13, 62, 0
19, 292020, Note_on_c, 13, 64, 100
19, 292080, Note_on_c, 13, 64, 0
19, 292080, Note_on_c, 13, 67, 100
19, 292140, Note_on_c, 13, 67, 0
19, 292140, Note_on_c, 13, 65, 100
19, 292170, Note_on_c, 13, 65, 0
19, 292170, Note_on_c, 13, 64, 100
19, 292200, Note_on_c, 13, 64, 0
19, 292200, Note_on_c, 13, 62, 100
19, 292230, Note_on_c, 13, 62, 0
19, 292230, Note_on_c, 13, 60, 100
19, 292260, Note_on_c, 13, 60, 0
19, 292260, Note_on_c, 13, 62, 100
19, 292320, Note_on_c, 13, 62, 0
19, 292320, Note_on_c, 13, 67, 100
19, 292350, Note_on_c, 13, 67, 0
19, 292350, Note_on_c, 13, 66, 100
19, 292380, Note_on_c, 13, 66, 0
19, 292380, Note_on_c, 13, 67, 100
19, 292620, Note_on_c, 13, 67, 0
19, 292620, Note_on_c, 13, 66, 100
19, 292680, Note_on_c, 13, 66, 0
19, 292680, Note_on_c, 13, 64, 100
19, 292710, Note_on_c, 13, 64, 0
19, 292710, Note_on_c, 13, 62, 100
19, 292740, Note_on_c, 13, 62, 0
19, 292740, Note_on_c, 13, 74, 100
19, 292800, Note_on_c, 13, 74, 0
19, 292800, Note_on_c, 13, 76, 100
19, 292830, Note_on_c, 13, 76, 0
19, 292830, Note_on_c, 13, 74, 100
19, 292860, Note_on_c, 13, 74, 0
19, 292860, Note_on_c, 13, 72, 100
19, 292890, Note_on_c, 13, 72, 0
19, 292890, Note_on_c, 13, 71, 100
19, 292920, Note_on_c, 13, 71, 0
19, 292920, Note_on_c, 13, 69, 100
19, 292950, Note_on_c, 13, 69, 0
19, 292950, Note_on_c, 13, 67, 100
19, 292980, Note_on_c, 13, 67, 0
19, 292980, Note_on_c, 13, 72, 100
19, 293010, Note_on_c, 13, 72, 0
19, 293010, Note_on_c, 13, 69, 100
19, 293040, Note_on_c, 13, 69, 0
19, 293040, Note_on_c, 13, 71, 100
19, 293100, Note_on_c, 13, 71, 0
19, 293100, Note_on_c, 13, 69, 100
19, 293340, Note_on_c, 13, 69, 0
19, 301080, Note_on_c, 13, 62, 90
19, 301139, Note_on_c, 13, 62, 0
19, 301140, Note_on_c, 13, 62, 90
19, 301199, Note_on_c, 13, 62, 0
19, 301200, Note_on_c, 13, 64, 90
19, 301229, Note_on_c, 13, 64, 0
19, 301230, Note_on_c, 13, 66, 90
19, 301259, Note_on_c, 13, 66, 0
19, 301260, Note_on_c, 13, 67, 90
19, 301319, Note_on_c, 13, 67, 0
19, 301320, Note_on_c, 13, 71, 90
19, 301349, Note_on_c, 13, 71, 0
19, 301350, Note_on_c, 13, 69, 90
19, 301379, Note_on_c, 13, 69, 0
19, 301380, Note_on_c, 13, 67, 90
19, 301439, Note_on_c, 13, 67, 0
19, 301800, Note_on_c, 13, 67, 90
19, 301859, Note_on_c, 13, 67, 0
19, 301860, Note_on_c, 13, 67, 90
19, 301919, Note_on_c, 13, 67, 0
19, 301920, Note_on_c, 13, 69, 90
19, 301949, Note_on_c, 13, 69, 0
19, 301950, Note_on_c, 13, 71, 90
19, 301979, Note_on_c, 13, 71, 0
19, 301980, Note_on_c, 13, 72, 90
19, 302039, Note_on_c, 13, 72, 0
19, 302040, Note_on_c, 13, 72, 90
19, 302069, Note_on_c, 13, 72, 0
19, 302070, Note_on_c, 13, 71, 90
19, 302099, Note_on_c, 13, 71, 0
19, 302100, Note_on_c, 13, 69, 90
19, 302159, Note_on_c, 13, 69, 0
19, 302160, Note_on_c, 13, 72, 90
19, 302219, Note_on_c, 13, 72, 0
19, 302220, Note_on_c, 13, 72, 90
19, 302249, Note_on_c, 13, 72, 0
19, 302250, Note_on_c, 13, 71, 90
19, 302279, Note_on_c, 13, 71, 0
19, 302280, Note_on_c, 13, 69, 90
19, 302309, Note_on_c, 13, 69, 0
19, 302310, Note_on_c, 13, 68, 90
19, 302339, Note_on_c, 13, 68, 0
19, 302340, Note_on_c, 13, 69, 90
19, 302399, Note_on_c, 13, 69, 0
19, 302400, Note_on_c, 13, 71, 90
19, 302429, Note_on_c, 13, 71, 0
19, 302430, Note_on_c, 13, 68, 90
19, 302459, Note_on_c, 13, 68, 0
19, 302460, Note_on_c, 13, 69, 90
19, 302519, Note_on_c, 13, 69, 0
19, 302520, Note_on_c, 13, 72, 90
19, 302579, Note_on_c, 13, 72, 0
19, 302580, Note_on_c, 13, 74, 90
19, 302609, Note_on_c, 13, 74, 0
19, 302610, Note_on_c, 13, 72, 90
19, 302639, Note_on_c, 13, 72, 0
19, 302640, Note_on_c, 13, 71, 90
19, 302669, Note_on_c, 13, 71, 0
19, 302670, Note_on_c, 13, 69, 90
19, 302699, Note_on_c, 13, 69, 0
19, 302700, Note_on_c, 13, 74, 90
19, 302759, Note_on_c, 13, 74, 0
19, 302760, Note_on_c, 13, 74, 90
19, 302789, Note_on_c, 13, 74, 0
19, 302790, Note_on_c, 13, 72, 90
19, 302819, Note_on_c, 13, 72, 0
19, 302820, Note_on_c, 13, 71, 90
19, 302879, Note_on_c, 13, 71, 0
19, 302880, Note_on_c, 13, 71, 90
19, 302939, Note_on_c, 13, 71, 0
19, 302940, Note_on_c, 13, 72, 90
19, 302969, Note_on_c, 13, 72, 0
19, 302970, Note_on_c, 13, 71, 90
19, 302999, Note_on_c, 13, 71, 0
19, 303000, Note_on_c, 13, 69, 90
19, 303029, Note_on_c, 13, 69, 0
19, 303030, Note_on_c, 13, 68, 90
19, 303059, Note_on_c, 13, 68, 0
19, 303060, Note_on_c, 13, 72, 90
19, 303119, Note_on_c, 13, 72, 0
19, 303120, Note_on_c, 13, 72, 90
19, 303149, Note_on_c, 13, 72, 0
19, 303150, Note_on_c, 13, 71, 90
19, 303179, Note_on_c, 13, 71, 0
19, 303180, Note_on_c, 13, 69, 90
19, 303239, Note_on_c, 13, 69, 0
19, 303240, Note_on_c, 13, 72, 90
19, 303299, Note_on_c, 13, 72, 0
19, 303300, Note_on_c, 13, 71, 90
19, 303359, Note_on_c, 13, 71, 0
19, 303360, Note_on_c, 13, 72, 90
19, 303389, Note_on_c, 13, 72, 0
19, 303390, Note_on_c, 13, 69, 90
19, 303419, Note_on_c, 13, 69, 0
19, 303420, Note_on_c, 13, 71, 90
19, 303479, Note_on_c, 13, 71, 0
19, 303480, Note_on_c, 13, 67, 90
19, 303509, Note_on_c, 13, 67, 0
19, 303510, Note_on_c, 13, 69, 90
19, 303539, Note_on_c, 13, 69, 0
19, 303540, Note_on_c, 13, 71, 90
19, 303599, Note_on_c, 13, 71, 0
19, 303600, Note_on_c, 13, 64, 90
19, 303659, Note_on_c, 13, 64, 0
19, 303660, Note_on_c, 13, 69, 90
19, 303689, Note_on_c, 13, 69, 0
19, 303690, Note_on_c, 13, 67, 90
19, 303719, Note_on_c, 13, 67, 0
19, 303720, Note_on_c, 13, 66, 90
19, 303749, Note_on_c, 13, 66, 0
19, 303750, Note_on_c, 13, 64, 90
19, 303779, Note_on_c, 13, 64, 0
19, 303780, Note_on_c, 13, 63, 90
19, 303840, Note_on_c, 13, 63, 0
19, 303840, Note_on_c, 13, 64, 90
19, 303870, Note_on_c, 13, 64, 0
19, 303870, Note_on_c, 13, 61, 90
19, 303900, Note_on_c, 13, 61, 0
19, 303900, Note_on_c, 13, 63, 90
19, 304020, Note_on_c, 13, 63, 0
19, 304080, Note_on_c, 13, 63, 90
19, 304140, Note_on_c, 13, 63, 0
19, 304140, Note_on_c, 13, 64, 90
19, 304200, Note_on_c, 13, 64, 0
19, 304200, Note_on_c, 13, 71, 90
19, 304230, Note_on_c, 13, 71, 0
19, 304230, Note_on_c, 13, 69, 90
19, 304260, Note_on_c, 13, 69, 0
19, 304260, Note_on_c, 13, 71, 90
19, 304320, Note_on_c, 13, 71, 0
19, 304320, Note_on_c, 13, 64, 90
19, 304380, Note_on_c, 13, 64, 0
19, 304380, Note_on_c, 13, 66, 90
19, 304410, Note_on_c, 13, 66, 0
19, 304410, Note_on_c, 13, 64, 90
19, 304440, Note_on_c, 13, 64, 0
19, 304440, Note_on_c, 13, 63, 90
19, 304470, Note_on_c, 13, 63, 0
19, 304470, Note_on_c, 13, 64, 90
19, 304500, Note_on_c, 13, 64, 0
19, 304500, Note_on_c, 13, 66, 90
19, 304560, Note_on_c, 13, 66, 0
19, 304560, Note_on_c, 13, 71, 90
19, 304590, Note_on_c, 13, 71, 0
19, 304590, Note_on_c, 13, 69, 90
19, 304620, Note_on_c, 13, 69, 0
19, 304620, Note_on_c, 13, 71, 90
19, 304680, Note_on_c, 13, 71, 0
19, 304680, Note_on_c, 13, 66, 90
19, 304740, Note_on_c, 13, 66, 0
19, 304740, Note_on_c, 13, 69, 90
19, 304800, Note_on_c, 13, 69, 0
19, 304800, Note_on_c, 13, 67, 90
19, 304830, Note_on_c, 13, 67, 0
19, 304830, Note_on_c, 13, 66, 90
19, 304860, Note_on_c, 13, 66, 0
19, 304860, Note_on_c, 13, 67, 90
19, 304920, Note_on_c, 13, 67, 0
19, 304920, Note_on_c, 13, 67, 90
19, 304950, Note_on_c, 13, 67, 0
19, 304950, Note_on_c, 13, 66, 90
19, 304980, Note_on_c, 13, 66, 0
19, 304980, Note_on_c, 13, 64, 90
19, 305040, Note_on_c, 13, 64, 0
19, 305040, Note_on_c, 13, 67, 90
19, 305100, Note_on_c, 13, 67, 0
19, 305100, Note_on_c, 13, 67, 90
19, 305130, Note_on_c, 13, 67, 0
19, 305130, Note_on_c, 13, 66, 90
19, 305160, Note_on_c, 13, 66, 0
19, 305160, Note_on_c, 13, 64, 90
19, 305190, Note_on_c, 13, 64, 0
19, 305190, Note_on_c, 13, 63, 90
19, 305220, Note_on_c, 13, 63, 0
19, 305220, Note_on_c, 13, 64, 90
19, 305280, Note_on_c, 13, 64, 0
19, 305280, Note_on_c, 13, 66, 90
19, 305310, Note_on_c, 13, 66, 0
19, 305310, Note_on_c, 13, 63, 90
19, 305340, Note_on_c, 13, 63, 0
19, 305340, Note_on_c, 13, 64, 90
19, 305580, Note_on_c, 13, 64, 0
19, 307920, Note_on_c, 13, 64, 90
19, 307980, Note_on_c, 13, 64, 0
19, 307980, Note_on_c, 13, 69, 90
19, 308040, Note_on_c, 13, 69, 0
19, 308040, Note_on_c, 13, 71, 90
19, 308070, Note_on_c, 13, 71, 0
19, 308070, Note_on_c, 13, 72, 90
19, 308100, Note_on_c, 13, 72, 0
19, 308100, Note_on_c, 13, 72, 90
19, 308160, Note_on_c, 13, 72, 0
19, 308160, Note_on_c, 13, 66, 90
19, 308190, Note_on_c, 13, 66, 0
19, 308190, Note_on_c, 13, 64, 90
19, 308220, Note_on_c, 13, 64, 0
19, 308220, Note_on_c, 13, 66, 90
19, 308280, Note_on_c, 13, 66, 0
19, 308280, Note_on_c, 13, 69, 90
19, 308340, Note_on_c, 13, 69, 0
19, 308340, Note_on_c, 13, 74, 90
19, 308370, Note_on_c, 13, 74, 0
19, 308370, Note_on_c, 13, 72, 90
19, 308400, Note_on_c, 13, 72, 0
19, 308400, Note_on_c, 13, 74, 90
19, 308430, Note_on_c, 13, 74, 0
19, 308430, Note_on_c, 13, 72, 90
19, 308460, Note_on_c, 13, 72, 0
19, 308460, Note_on_c, 13, 71, 90
19, 308520, Note_on_c, 13, 71, 0
19, 308520, Note_on_c, 13, 71, 90
19, 308550, Note_on_c, 13, 71, 0
19, 308550, Note_on_c, 13, 69, 90
19, 308580, Note_on_c, 13, 69, 0
19, 308580, Note_on_c, 13, 67, 90
19, 308640, Note_on_c, 13, 67, 0
19, 308640, Note_on_c, 13, 71, 90
19, 308700, Note_on_c, 13, 71, 0
19, 308700, Note_on_c, 13, 72, 90
19, 308730, Note_on_c, 13, 72, 0
19, 308730, Note_on_c, 13, 71, 90
19, 308760, Note_on_c, 13, 71, 0
19, 308760, Note_on_c, 13, 69, 90
19, 308790, Note_on_c, 13, 69, 0
19, 308790, Note_on_c, 13, 67, 90
19, 308820, Note_on_c, 13, 67, 0
19, 308820, Note_on_c, 13, 66, 90
19, 308880, Note_on_c, 13, 66, 0
19, 308880, Note_on_c, 13, 67, 90
19, 308910, Note_on_c, 13, 67, 0
19, 308910, Note_on_c, 13, 64, 90
19, 308940, Note_on_c, 13, 64, 0
19, 308940, Note_on_c, 13, 66, 90
19, 309000, Note_on_c, 13, 66, 0
19, 309000, Note_on_c, 13, 62, 90
19, 309060, Note_on_c, 13, 62, 0
19, 309060, Note_on_c, 13, 62, 90
19, 309120, Note_on_c, 13, 62, 0
19, 309120, Note_on_c, 13, 64, 90
19, 309150, Note_on_c, 13, 64, 0
19, 309150, Note_on_c, 13, 66, 90
19, 309180, Note_on_c, 13, 66, 0
19, 309180, Note_on_c, 13, 67, 90
19, 309240, Note_on_c, 13, 67, 0
19, 309240, Note_on_c, 13, 71, 90
19, 309270, Note_on_c, 13, 71, 0
19, 309270, Note_on_c, 13, 69, 90
19, 309300, Note_on_c, 13, 69, 0
19, 309300, Note_on_c, 13, 67, 90
19, 309360, Note_on_c, 13, 67, 0
19, 309360, Note_on_c, 13, 62, 90
19, 309420, Note_on_c, 13, 62, 0
19, 309420, Note_on_c, 13, 62, 90
19, 309450, Note_on_c, 13, 62, 0
19, 309450, Note_on_c, 13, 64, 90
19, 309480, Note_on_c, 13, 64, 0
19, 309480, Note_on_c, 13, 66, 90
19, 309510, Note_on_c, 13, 66, 0
19, 309510, Note_on_c, 13, 67, 90
19, 309540, Note_on_c, 13, 67, 0
19, 309540, Note_on_c, 13, 69, 90
19, 309600, Note_on_c, 13, 69, 0
19, 309600, Note_on_c, 13, 72, 90
19, 309630, Note_on_c, 13, 72, 0
19, 309630, Note_on_c, 13, 71, 90
19, 309660, Note_on_c, 13, 71, 0
19, 309660, Note_on_c, 13, 69, 90
19, 309720, Note_on_c, 13, 69, 0
19, 309720, Note_on_c, 13, 62, 90
19, 309780, Note_on_c, 13, 62, 0
19, 309780, Note_on_c, 13, 69, 90
19, 309840, Note_on_c, 13, 69, 0
19, 309840, Note_on_c, 13, 71, 90
19, 309870, Note_on_c, 13, 71, 0
19, 309870, Note_on_c, 13, 72, 90
19, 309900, Note_on_c, 13, 72, 0
19, 309900, Note_on_c, 13, 74, 90
19, 309960, Note_on_c, 13, 74, 0
19, 309960, Note_on_c, 13, 71, 90
19, 309990, Note_on_c, 13, 71, 0
19, 309990, Note_on_c, 13, 72, 90
19, 310020, Note_on_c, 13, 72, 0
19, 310020, Note_on_c, 13, 74, 90
19, 310080, Note_on_c, 13, 74, 0
19, 310080, Note_on_c, 13, 67, 90
19, 310140, Note_on_c, 13, 67, 0
19, 310140, Note_on_c, 13, 71, 90
19, 310170, Note_on_c, 13, 71, 0
19, 310170, Note_on_c, 13, 69, 90
19, 310200, Note_on_c, 13, 69, 0
19, 310200, Note_on_c, 13, 67, 90
19, 310230, Note_on_c, 13, 67, 0
19, 310230, Note_on_c, 13, 66, 90
19, 310260, Note_on_c, 13, 66, 0
19, 310260, Note_on_c, 13, 67, 90
19, 310320, Note_on_c, 13, 67, 0
19, 310320, Note_on_c, 13, 69, 90
19, 310350, Note_on_c, 13, 69, 0
19, 310350, Note_on_c, 13, 66, 90
19, 310380, Note_on_c, 13, 66, 0
19, 310380, Note_on_c, 13, 67, 90
19, 310440, Note_on_c, 13, 67, 0
19, 310440, Note_on_c, 13, 62, 90
19, 310500, Note_on_c, 13, 62, 0
19, 310500, Note_on_c, 13, 62, 90
19, 310529, Note_on_c, 13, 62, 0
19, 310530, Note_on_c, 13, 64, 90
19, 310559, Note_on_c, 13, 64, 0
19, 310560, Note_on_c, 13, 62, 90
19, 310589, Note_on_c, 13, 62, 0
19, 310590, Note_on_c, 13, 64, 90
19, 310619, Note_on_c, 13, 64, 0
19, 310620, Note_on_c, 13, 62, 90
19, 310649, Note_on_c, 13, 62, 0
19, 310650, Note_on_c, 13, 67, 90
19, 310679, Note_on_c, 13, 67, 0
19, 310680, Note_on_c, 13, 66, 90
19, 310709, Note_on_c, 13, 66, 0
19, 310710, Note_on_c, 13, 64, 90
19, 310739, Note_on_c, 13, 64, 0
19, 310740, Note_on_c, 13, 62, 90
19, 310769, Note_on_c, 13, 62, 0
19, 310770, Note_on_c, 13, 64, 90
19, 310799, Note_on_c, 13, 64, 0
19, 310800, Note_on_c, 13, 62, 90
19, 310829, Note_on_c, 13, 62, 0
19, 310830, Note_on_c, 13, 64, 90
19, 310859, Note_on_c, 13, 64, 0
19, 310860, Note_on_c, 13, 62, 90
19, 310889, Note_on_c, 13, 62, 0
19, 310890, Note_on_c, 13, 64, 90
19, 310919, Note_on_c, 13, 64, 0
19, 310920, Note_on_c, 13, 62, 90
19, 310949, Note_on_c, 13, 62, 0
19, 310950, Note_on_c, 13, 64, 90
19, 310979, Note_on_c, 13, 64, 0
19, 310980, Note_on_c, 13, 62, 90
19, 311009, Note_on_c, 13, 62, 0
19, 311010, Note_on_c, 13, 67, 90
19, 311039, Note_on_c, 13, 67, 0
19, 311040, Note_on_c, 13, 66, 90
19, 311069, Note_on_c, 13, 66, 0
19, 311070, Note_on_c, 13, 64, 90
19, 311099, Note_on_c, 13, 64, 0
19, 311100, Note_on_c, 13, 62, 90
19, 311129, Note_on_c, 13, 62, 0
19, 311130, Note_on_c, 13, 64, 90
19, 311159, Note_on_c, 13, 64, 0
19, 311160, Note_on_c, 13, 66, 90
19, 311189, Note_on_c, 13, 66, 0
19, 311190, Note_on_c, 13, 67, 90
19, 311219, Note_on_c, 13, 67, 0
19, 311220, Note_on_c, 13, 69, 90
19, 311249, Note_on_c, 13, 69, 0
19, 311250, Note_on_c, 13, 71, 90
19, 311279, Note_on_c, 13, 71, 0
19, 311280, Note_on_c, 13, 72, 90
19, 311309, Note_on_c, 13, 72, 0
19, 311310, Note_on_c, 13, 69, 90
19, 311339, Note_on_c, 13, 69, 0
19, 311340, Note_on_c, 13, 74, 90
19, 311399, Note_on_c, 13, 74, 0
19, 311400, Note_on_c, 13, 71, 90
19, 311429, Note_on_c, 13, 71, 0
19, 311430, Note_on_c, 13, 69, 90
19, 311459, Note_on_c, 13, 69, 0
19, 311460, Note_on_c, 13, 67, 90
19, 311519, Note_on_c, 13, 67, 0
19, 311520, Note_on_c, 13, 71, 90
19, 311579, Note_on_c, 13, 71, 0
19, 311580, Note_on_c, 13, 71, 90
19, 311609, Note_on_c, 13, 71, 0
19, 311610, Note_on_c, 13, 69, 90
19, 311639, Note_on_c, 13, 69, 0
19, 311640, Note_on_c, 13, 67, 90
19, 311669, Note_on_c, 13, 67, 0
19, 311670, Note_on_c, 13, 66, 90
19, 311699, Note_on_c, 13, 66, 0
19, 311700, Note_on_c, 13, 67, 90
19, 311759, Note_on_c, 13, 67, 0
19, 311760, Note_on_c, 13, 69, 90
19, 311789, Note_on_c, 13, 69, 0
19, 311790, Note_on_c, 13, 66, 90
19, 311819, Note_on_c, 13, 66, 0
19, 311820, Note_on_c, 13, 67, 90
19, 312059, Note_on_c, 13, 67, 0
19, 312059, End_track
20, 0, Start_track
20, 0, MIDI_port, 0
20, 0, Title_t, "Zephyrus"
20, 123030, Control_c, 12, 0, 20
20, 123030, Program_c, 12, 57
20, 123060, Note_on_c, 12, 68, 127
20, 123119, Note_on_c, 12, 68, 0
20, 123120, Note_on_c, 12, 75, 127
20, 123179, Note_on_c, 12, 75, 0
20, 123180, Note_on_c, 12, 76, 127
20, 123239, Note_on_c, 12, 76, 0
20, 123240, Note_on_c, 12, 78, 127
20, 123329, Note_on_c, 12, 78, 0
20, 123330, Note_on_c, 12, 75, 127
20, 123359, Note_on_c, 12, 75, 0
20, 123360, Note_on_c, 12, 72, 127
20, 123420, Note_on_c, 12, 72, 0
20, 123450, Note_on_c, 12, 72, 127
20, 123479, Note_on_c, 12, 72, 0
20, 123480, Note_on_c, 12, 73, 127
20, 123539, Note_on_c, 12, 73, 0
20, 123540, Note_on_c, 12, 75, 127
20, 123599, Note_on_c, 12, 75, 0
20, 123600, Note_on_c, 12, 66, 127
20, 123659, Note_on_c, 12, 66, 0
20, 123660, Note_on_c, 12, 66, 127
20, 123719, Note_on_c, 12, 66, 0
20, 123720, Note_on_c, 12, 69, 127
20, 123779, Note_on_c, 12, 69, 0
20, 123780, Note_on_c, 12, 68, 127
20, 123839, Note_on_c, 12, 68, 0
20, 123840, Note_on_c, 12, 64, 127
20, 123899, Note_on_c, 12, 64, 0
20, 123900, Note_on_c, 12, 64, 127
20, 123959, Note_on_c, 12, 64, 0
20, 124020, Note_on_c, 12, 64, 127
20, 124079, Note_on_c, 12, 64, 0
20, 124080, Note_on_c, 12, 69, 127
20, 124139, Note_on_c, 12, 69, 0
20, 124140, Note_on_c, 12, 66, 127
20, 124199, Note_on_c, 12, 66, 0
20, 124200, Note_on_c, 12, 63, 127
20, 124259, Note_on_c, 12, 63, 0
20, 124260, Note_on_c, 12, 71, 127
20, 124319, Note_on_c, 12, 71, 0
20, 124320, Note_on_c, 12, 68, 127
20, 124379, Note_on_c, 12, 68, 0
20, 124380, Note_on_c, 12, 68, 127
20, 124439, Note_on_c, 12, 68, 0
20, 124470, Note_on_c, 12, 71, 127
20, 124499, Note_on_c, 12, 71, 0
20, 124500, Note_on_c, 12, 74, 127
20, 124529, Note_on_c, 12, 74, 0
20, 124530, Note_on_c, 12, 76, 127
20, 124559, Note_on_c, 12, 76, 0
20, 124560, Note_on_c, 12, 77, 127
20, 124619, Note_on_c, 12, 77, 0
20, 124620, Note_on_c, 12, 74, 127
20, 124679, Note_on_c, 12, 74, 0
20, 124680, Note_on_c, 12, 68, 127
20, 124739, Note_on_c, 12, 68, 0
20, 124740, Note_on_c, 12, 69, 127
20, 124799, Note_on_c, 12, 69, 0
20, 124800, Note_on_c, 12, 71, 127
20, 124859, Note_on_c, 12, 71, 0
20, 124860, Note_on_c, 12, 64, 127
20, 124919, Note_on_c, 12, 64, 0
20, 124920, Note_on_c, 12, 74, 127
20, 124949, Note_on_c, 12, 74, 0
20, 124950, Note_on_c, 12, 74, 127
20, 124979, Note_on_c, 12, 74, 0
20, 124980, Note_on_c, 12, 76, 127
20, 125009, Note_on_c, 12, 76, 0
20, 125010, Note_on_c, 12, 71, 127
20, 125039, Note_on_c, 12, 71, 0
20, 125040, Note_on_c, 12, 73, 127
20, 125099, Note_on_c, 12, 73, 0
20, 125100, Note_on_c, 12, 73, 127
20, 125159, Note_on_c, 12, 73, 0
20, 125220, Note_on_c, 12, 76, 127
20, 125279, Note_on_c, 12, 76, 0
20, 125280, Note_on_c, 12, 76, 127
20, 125309, Note_on_c, 12, 76, 0
20, 125310, Note_on_c, 12, 73, 127
20, 125339, Note_on_c, 12, 73, 0
20, 125340, Note_on_c, 12, 70, 127
20, 125399, Note_on_c, 12, 70, 0
20, 125460, Note_on_c, 12, 70, 127
20, 125489, Note_on_c, 12, 70, 0
20, 125490, Note_on_c, 12, 71, 127
20, 125519, Note_on_c, 12, 71, 0
20, 125520, Note_on_c, 12, 73, 127
20, 125579, Note_on_c, 12, 73, 0
20, 125580, Note_on_c, 12, 66, 127
20, 125639, Note_on_c, 12, 66, 0
20, 125640, Note_on_c, 12, 76, 127
20, 125699, Note_on_c, 12, 76, 0
20, 125700, Note_on_c, 12, 73, 127
20, 125759, Note_on_c, 12, 73, 0
20, 125760, Note_on_c, 12, 74, 127
20, 125879, Note_on_c, 12, 74, 0
20, 125940, Note_on_c, 12, 71, 127
20, 125999, Note_on_c, 12, 71, 0
20, 126000, Note_on_c, 12, 72, 127
20, 126059, Note_on_c, 12, 72, 0
20, 126060, Note_on_c, 12, 76, 127
20, 126119, Note_on_c, 12, 76, 0
20, 126180, Note_on_c, 12, 70, 127
20, 126209, Note_on_c, 12, 70, 0
20, 126210, Note_on_c, 12, 71, 127
20, 126239, Note_on_c, 12, 71, 0
20, 126240, Note_on_c, 12, 71, 127
20, 126299, Note_on_c, 12, 71, 0
20, 126300, Note_on_c, 12, 66, 127
20, 126359, Note_on_c, 12, 66, 0
20, 128880, Control_c, 12, 0, 20
20, 128880, Program_c, 12, 57
20, 128940, Note_on_c, 12, 78, 127
20, 128970, Note_on_c, 12, 78, 0
20, 128970, Note_on_c, 12, 76, 127
20, 129000, Note_on_c, 12, 76, 0
20, 129000, Note_on_c, 12, 78, 127
20, 129060, Note_on_c, 12, 78, 0
20, 129060, Note_on_c, 12, 66, 127
20, 129720, Note_on_c, 12, 66, 0
20, 129720, Note_on_c, 12, 66, 127
20, 129780, Note_on_c, 12, 66, 0
20, 129780, Note_on_c, 12, 71, 127
20, 129810, Note_on_c, 12, 71, 0
20, 129810, Note_on_c, 12, 73, 127
20, 129840, Note_on_c, 12, 73, 0
20, 129840, Note_on_c, 12, 74, 127
20, 129900, Note_on_c, 12, 74, 0
20, 129900, Note_on_c, 12, 73, 127
20, 129960, Note_on_c, 12, 73, 0
20, 129960, Note_on_c, 12, 71, 127
20, 130020, Note_on_c, 12, 71, 0
20, 130020, Note_on_c, 12, 66, 127
20, 130050, Note_on_c, 12, 66, 0
20, 130050, Note_on_c, 12, 64, 127
20, 130080, Note_on_c, 12, 64, 0
20, 130080, Note_on_c, 12, 66, 127
20, 130140, Note_on_c, 12, 66, 0
20, 130140, Note_on_c, 12, 73, 127
20, 130170, Note_on_c, 12, 73, 0
20, 130170, Note_on_c, 12, 74, 127
20, 130200, Note_on_c, 12, 74, 0
20, 130200, Note_on_c, 12, 76, 127
20, 130230, Note_on_c, 12, 76, 0
20, 130230, Note_on_c, 12, 73, 127
20, 130260, Note_on_c, 12, 73, 0
20, 130260, Note_on_c, 12, 74, 127
20, 130290, Note_on_c, 12, 74, 0
20, 130290, Note_on_c, 12, 71, 127
20, 130320, Note_on_c, 12, 71, 0
20, 130320, Note_on_c, 12, 73, 127
20, 130380, Note_on_c, 12, 73, 0
20, 130380, Note_on_c, 12, 66, 127
20, 130410, Note_on_c, 12, 66, 0
20, 130410, Note_on_c, 12, 64, 127
20, 130440, Note_on_c, 12, 64, 0
20, 130440, Note_on_c, 12, 66, 127
20, 130500, Note_on_c, 12, 66, 0
20, 130560, Note_on_c, 12, 78, 127
20, 130620, Note_on_c, 12, 78, 0
20, 130620, Note_on_c, 12, 74, 127
20, 130680, Note_on_c, 12, 74, 0
20, 130680, Note_on_c, 12, 71, 127
20, 130740, Note_on_c, 12, 71, 0
20, 130740, Note_on_c, 12, 79, 127
20, 130800, Note_on_c, 12, 79, 0
20, 130800, Note_on_c, 12, 76, 127
20, 130860, Note_on_c, 12, 76, 0
20, 130860, Note_on_c, 12, 70, 127
20, 130920, Note_on_c, 12, 70, 0
20, 130920, Note_on_c, 12, 69, 127
20, 130980, Note_on_c, 12, 69, 0
20, 130980, Note_on_c, 12, 69, 127
20, 131040, Note_on_c, 12, 69, 0
20, 131040, Note_on_c, 12, 69, 127
20, 131100, Note_on_c, 12, 69, 0
20, 131100, Note_on_c, 12, 73, 127
20, 131160, Note_on_c, 12, 73, 0
20, 131160, Note_on_c, 12, 74, 127
20, 131250, Note_on_c, 12, 74, 0
20, 131250, Note_on_c, 12, 75, 127
20, 131280, Note_on_c, 12, 75, 0
20, 131280, Note_on_c, 12, 76, 127
20, 131310, Note_on_c, 12, 76, 0
20, 131310, Note_on_c, 12, 78, 127
20, 131340, Note_on_c, 12, 78, 0
20, 131340, Note_on_c, 12, 79, 127
20, 131400, Note_on_c, 12, 79, 0
20, 131460, Note_on_c, 12, 78, 127
20, 131520, Note_on_c, 12, 78, 0
20, 131520, Note_on_c, 12, 81, 127
20, 131580, Note_on_c, 12, 81, 0
20, 131580, Note_on_c, 12, 79, 127
20, 131610, Note_on_c, 12, 79, 0
20, 131610, Note_on_c, 12, 78, 127
20, 131640, Note_on_c, 12, 78, 0
20, 131640, Note_on_c, 12, 76, 127
20, 131700, Note_on_c, 12, 76, 0
20, 131700, Note_on_c, 12, 74, 127
20, 131730, Note_on_c, 12, 74, 0
20, 131730, Note_on_c, 12, 73, 127
20, 131760, Note_on_c, 12, 73, 0
20, 131760, Note_on_c, 12, 70, 127
20, 131850, Note_on_c, 12, 70, 0
20, 131850, Note_on_c, 12, 68, 127
20, 131880, Note_on_c, 12, 68, 0
20, 131880, Note_on_c, 12, 66, 127
20, 131940, Note_on_c, 12, 66, 0
20, 132300, Note_on_c, 12, 78, 127
20, 132360, Note_on_c, 12, 78, 0
20, 132660, Note_on_c, 12, 76, 127
20, 132720, Note_on_c, 12, 76, 0
20, 133020, Note_on_c, 12, 78, 127
20, 133080, Note_on_c, 12, 78, 0
20, 133080, Note_on_c, 12, 76, 127
20, 133140, Note_on_c, 12, 76, 0
20, 133140, Note_on_c, 12, 74, 127
20, 133200, Note_on_c, 12, 74, 0
20, 133200, Note_on_c, 12, 73, 127
20, 133260, Note_on_c, 12, 73, 0
20, 133260, Note_on_c, 12, 71, 127
20, 133320, Note_on_c, 12, 71, 0
20, 133320, Note_on_c, 12, 69, 127
20, 133380, Note_on_c, 12, 69, 0
20, 133380, Note_on_c, 12, 68, 127
20, 133410, Note_on_c, 12, 68, 0
20, 133410, Note_on_c, 12, 69, 127
20, 133440, Note_on_c, 12, 69, 0
20, 133440, Note_on_c, 12, 71, 127
20, 133470, Note_on_c, 12, 71, 0
20, 133470, Note_on_c, 12, 68, 127
20, 133500, Note_on_c, 12, 68, 0
20, 133500, Note_on_c, 12, 69, 127
20, 133530, Note_on_c, 12, 69, 0
20, 133530, Note_on_c, 12, 66, 127
20, 133560, Note_on_c, 12, 66, 0
20, 133560, Note_on_c, 12, 65, 127
20, 133620, Note_on_c, 12, 65, 0
20, 133620, Note_on_c, 12, 77, 127
20, 133635, Note_on_c, 12, 77, 0
20, 133635, Note_on_c, 12, 78, 127
20, 133650, Note_on_c, 12, 78, 0
20, 133650, Note_on_c, 12, 80, 127
20, 133680, Note_on_c, 12, 80, 0
20, 133680, Note_on_c, 12, 71, 127
20, 133740, Note_on_c, 12, 71, 0
20, 133740, Note_on_c, 12, 69, 127
20, 133770, Note_on_c, 12, 69, 0
20, 133770, Note_on_c, 12, 71, 127
20, 133800, Note_on_c, 12, 71, 0
20, 133800, Note_on_c, 12, 73, 127
20, 133860, Note_on_c, 12, 73, 0
20, 133860, Note_on_c, 12, 66, 127
20, 133920, Note_on_c, 12, 66, 0
20, 133980, Note_on_c, 12, 81, 127
20, 134010, Note_on_c, 12, 81, 0
20, 134010, Note_on_c, 12, 80, 127
20, 134040, Note_on_c, 12, 80, 0
20, 134040, Note_on_c, 12, 81, 127
20, 134070, Note_on_c, 12, 81, 0
20, 134070, Note_on_c, 12, 78, 127
20, 134100, Note_on_c, 12, 78, 0
20, 134100, Note_on_c, 12, 77, 127
20, 134130, Note_on_c, 12, 77, 0
20, 134130, Note_on_c, 12, 78, 127
20, 134160, Note_on_c, 12, 78, 0
20, 134160, Note_on_c, 12, 80, 127
20, 134220, Note_on_c, 12, 80, 0
20, 134220, Note_on_c, 12, 73, 127
20, 134280, Note_on_c, 12, 73, 0
20, 134340, Note_on_c, 12, 80, 127
20, 134400, Note_on_c, 12, 80, 0
20, 134400, Note_on_c, 12, 71, 127
20, 134460, Note_on_c, 12, 71, 0
20, 134460, Note_on_c, 12, 69, 127
20, 134580, Note_on_c, 12, 69, 0
20, 134580, Note_on_c, 12, 69, 127
20, 134640, Note_on_c, 12, 69, 0
20, 134640, Note_on_c, 12, 69, 127
20, 134670, Note_on_c, 12, 69, 0
20, 134670, Note_on_c, 12, 66, 127
20, 134700, Note_on_c, 12, 66, 0
20, 134700, Note_on_c, 12, 65, 127
20, 134730, Note_on_c, 12, 65, 0
20, 134730, Note_on_c, 12, 66, 127
20, 134760, Note_on_c, 12, 66, 0
20, 134760, Note_on_c, 12, 74, 127
20, 134790, Note_on_c, 12, 74, 0
20, 134790, Note_on_c, 12, 71, 127
20, 134820, Note_on_c, 12, 71, 0
20, 134820, Note_on_c, 12, 68, 127
20, 134940, Note_on_c, 12, 68, 0
20, 134940, Note_on_c, 12, 68, 127
20, 135000, Note_on_c, 12, 68, 0
20, 135060, Note_on_c, 12, 81, 127
20, 135120, Note_on_c, 12, 81, 0
20, 135120, Note_on_c, 12, 77, 127
20, 135180, Note_on_c, 12, 77, 0
20, 135180, Note_on_c, 12, 78, 127
20, 135210, Note_on_c, 12, 78, 0
20, 135210, Note_on_c, 12, 70, 127
20, 135240, Note_on_c, 12, 70, 0
20, 135240, Note_on_c, 12, 71, 127
20, 135330, Note_on_c, 12, 71, 0
20, 135330, Note_on_c, 12, 74, 127
20, 135360, Note_on_c, 12, 74, 0
20, 135360, Note_on_c, 12, 73, 127
20, 135390, Note_on_c, 12, 73, 0
20, 135390, Note_on_c, 12, 69, 127
20, 135420, Note_on_c, 12, 69, 0
20, 135420, Note_on_c, 12, 66, 127
20, 135510, Note_on_c, 12, 66, 0
20, 135510, Note_on_c, 12, 69, 127
20, 135540, Note_on_c, 12, 69, 0
20, 135540, Note_on_c, 12, 74, 127
20, 135570, Note_on_c, 12, 74, 0
20, 135570, Note_on_c, 12, 73, 127
20, 135600, Note_on_c, 12, 73, 0
20, 135600, Note_on_c, 12, 71, 127
20, 135630, Note_on_c, 12, 71, 0
20, 135630, Note_on_c, 12, 69, 127
20, 135660, Note_on_c, 12, 69, 0
20, 135660, Note_on_c, 12, 68, 127
20, 135690, Note_on_c, 12, 68, 0
20, 135690, Note_on_c, 12, 69, 127
20, 135720, Note_on_c, 12, 69, 0
20, 135720, Note_on_c, 12, 66, 127
20, 135900, Note_on_c, 12, 66, 0
20, 137040, Note_on_c, 12, 73, 127
20, 137070, Note_on_c, 12, 73, 0
20, 137070, Note_on_c, 12, 71, 127
20, 137100, Note_on_c, 12, 71, 0
20, 137100, Note_on_c, 12, 73, 127
20, 137130, Note_on_c, 12, 73, 0
20, 137130, Note_on_c, 12, 69, 127
20, 137160, Note_on_c, 12, 69, 0
20, 137160, Note_on_c, 12, 76, 127
20, 137280, Note_on_c, 12, 76, 0
20, 137400, Note_on_c, 12, 76, 127
20, 137430, Note_on_c, 12, 76, 0
20, 137430, Note_on_c, 12, 74, 127
20, 137460, Note_on_c, 12, 74, 0
20, 137460, Note_on_c, 12, 76, 127
20, 137490, Note_on_c, 12, 76, 0
20, 137490, Note_on_c, 12, 73, 127
20, 137520, Note_on_c, 12, 73, 0
20, 137520, Note_on_c, 12, 81, 127
20, 137580, Note_on_c, 12, 81, 0
20, 137580, Note_on_c, 12, 78, 127
20, 137640, Note_on_c, 12, 78, 0
20, 137640, Note_on_c, 12, 76, 127
20, 137700, Note_on_c, 12, 76, 0
20, 137700, Note_on_c, 12, 75, 127
20, 137760, Note_on_c, 12, 75, 0
20, 137760, Note_on_c, 12, 76, 127
20, 137820, Note_on_c, 12, 76, 0
20, 137820, Note_on_c, 12, 78, 127
20, 137880, Note_on_c, 12, 78, 0
20, 137880, Note_on_c, 12, 79, 127
20, 137940, Note_on_c, 12, 79, 0
20, 137940, Note_on_c, 12, 76, 127
20, 138000, Note_on_c, 12, 76, 0
20, 138240, Note_on_c, 12, 78, 127
20, 138270, Note_on_c, 12, 78, 0
20, 138270, Note_on_c, 12, 79, 127
20, 138300, Note_on_c, 12, 79, 0
20, 138300, Note_on_c, 12, 81, 127
20, 138360, Note_on_c, 12, 81, 0
20, 138360, Note_on_c, 12, 79, 127
20, 138420, Note_on_c, 12, 79, 0
20, 138420, Note_on_c, 12, 78, 127
20, 138480, Note_on_c, 12, 78, 0
20, 138480, Note_on_c, 12, 75, 127
20, 138540, Note_on_c, 12, 75, 0
20, 138540, Note_on_c, 12, 71, 127
20, 138600, Note_on_c, 12, 71, 0
20, 138960, Note_on_c, 12, 79, 127
20, 139020, Note_on_c, 12, 79, 0
20, 139080, Note_on_c, 12, 79, 127
20, 139140, Note_on_c, 12, 79, 0
20, 139140, Note_on_c, 12, 79, 127
20, 139200, Note_on_c, 12, 79, 0
20, 139200, Note_on_c, 12, 69, 127
20, 139260, Note_on_c, 12, 69, 0
20, 139380, Note_on_c, 12, 78, 127
20, 139440, Note_on_c, 12, 78, 0
20, 139440, Note_on_c, 12, 78, 127
20, 139500, Note_on_c, 12, 78, 0
20, 139500, Note_on_c, 12, 78, 127
20, 139560, Note_on_c, 12, 78, 0
20, 139560, Note_on_c, 12, 67, 127
20, 139620, Note_on_c, 12, 67, 0
20, 139740, Note_on_c, 12, 69, 127
20, 139800, Note_on_c, 12, 69, 0
20, 139800, Note_on_c, 12, 72, 127
20, 139860, Note_on_c, 12, 72, 0
20, 139860, Note_on_c, 12, 71, 127
20, 139920, Note_on_c, 12, 71, 0
20, 139920, Note_on_c, 12, 75, 127
20, 139980, Note_on_c, 12, 75, 0
20, 139980, Note_on_c, 12, 76, 127
20, 140040, Note_on_c, 12, 76, 0
20, 140040, Note_on_c, 12, 77, 127
20, 140100, Note_on_c, 12, 77, 0
20, 140100, Note_on_c, 12, 76, 127
20, 140130, Note_on_c, 12, 76, 0
20, 140130, Note_on_c, 12, 75, 127
20, 140160, Note_on_c, 12, 75, 0
20, 140160, Note_on_c, 12, 76, 127
20, 140220, Note_on_c, 12, 76, 0
20, 140220, Note_on_c, 12, 76, 127
20, 140340, Note_on_c, 12, 76, 0
20, 141480, Note_on_c, 12, 76, 127
20, 141510, Note_on_c, 12, 76, 0
20, 141510, Note_on_c, 12, 78, 127
20, 141540, Note_on_c, 12, 78, 0
20, 141540, Note_on_c, 12, 79, 127
20, 141600, Note_on_c, 12, 79, 0
20, 141600, Note_on_c, 12, 76, 127
20, 141660, Note_on_c, 12, 76, 0
20, 141660, Note_on_c, 12, 78, 127
20, 141720, Note_on_c, 12, 78, 0
20, 141720, Note_on_c, 12, 71, 127
20, 141750, Note_on_c, 12, 71, 0
20, 141750, Note_on_c, 12, 70, 127
20, 141780, Note_on_c, 12, 70, 0
20, 141780, Note_on_c, 12, 71, 127
20, 141840, Note_on_c, 12, 71, 0
20, 141840, Note_on_c, 12, 73, 127
20, 141870, Note_on_c, 12, 73, 0
20, 141870, Note_on_c, 12, 74, 127
20, 141900, Note_on_c, 12, 74, 0
20, 141900, Note_on_c, 12, 76, 127
20, 141930, Note_on_c, 12, 76, 0
20, 141930, Note_on_c, 12, 73, 127
20, 141960, Note_on_c, 12, 73, 0
20, 141960, Note_on_c, 12, 74, 127
20, 141990, Note_on_c, 12, 74, 0
20, 141990, Note_on_c, 12, 71, 127
20, 142020, Note_on_c, 12, 71, 0
20, 142020, Note_on_c, 12, 73, 127
20, 142050, Note_on_c, 12, 73, 0
20, 142050, Note_on_c, 12, 66, 127
20, 142080, Note_on_c, 12, 66, 0
20, 142080, Note_on_c, 12, 70, 127
20, 142110, Note_on_c, 12, 70, 0
20, 142110, Note_on_c, 12, 73, 127
20, 142140, Note_on_c, 12, 73, 0
20, 142140, Note_on_c, 12, 78, 127
20, 142155, Note_on_c, 12, 78, 0
20, 142155, Note_on_c, 12, 79, 127
20, 142170, Note_on_c, 12, 79, 0
20, 142170, Note_on_c, 12, 76, 127
20, 142185, Note_on_c, 12, 76, 0
20, 142185, Note_on_c, 12, 78, 127
20, 142200, Note_on_c, 12, 78, 0
20, 142200, Note_on_c, 12, 74, 127
20, 142215, Note_on_c, 12, 74, 0
20, 142215, Note_on_c, 12, 76, 127
20, 142230, Note_on_c, 12, 76, 0
20, 142230, Note_on_c, 12, 73, 127
20, 142245, Note_on_c, 12, 73, 0
20, 142245, Note_on_c, 12, 74, 127
20, 142260, Note_on_c, 12, 74, 0
20, 142260, Note_on_c, 12, 71, 127
20, 142275, Note_on_c, 12, 71, 0
20, 142275, Note_on_c, 12, 74, 127
20, 142290, Note_on_c, 12, 74, 0
20, 142290, Note_on_c, 12, 73, 127
20, 142305, Note_on_c, 12, 73, 0
20, 142305, Note_on_c, 12, 74, 127
20, 142320, Note_on_c, 12, 74, 0
20, 142320, Note_on_c, 12, 76, 127
20, 142335, Note_on_c, 12, 76, 0
20, 142335, Note_on_c, 12, 73, 127
20, 142350, Note_on_c, 12, 73, 0
20, 142350, Note_on_c, 12, 71, 127
20, 142365, Note_on_c, 12, 71, 0
20, 142365, Note_on_c, 12, 73, 127
20, 142380, Note_on_c, 12, 73, 0
20, 142380, Note_on_c, 12, 74, 127
20, 142395, Note_on_c, 12, 74, 0
20, 142395, Note_on_c, 12, 76, 127
20, 142410, Note_on_c, 12, 76, 0
20, 142410, Note_on_c, 12, 73, 127
20, 142425, Note_on_c, 12, 73, 0
20, 142425, Note_on_c, 12, 74, 127
20, 142440, Note_on_c, 12, 74, 0
20, 142440, Note_on_c, 12, 71, 127
20, 142455, Note_on_c, 12, 71, 0
20, 142455, Note_on_c, 12, 74, 127
20, 142470, Note_on_c, 12, 74, 0
20, 142470, Note_on_c, 12, 73, 127
20, 142485, Note_on_c, 12, 73, 0
20, 142485, Note_on_c, 12, 74, 127
20, 142500, Note_on_c, 12, 74, 0
20, 142500, Note_on_c, 12, 78, 127
20, 142515, Note_on_c, 12, 78, 0
20, 142515, Note_on_c, 12, 74, 127
20, 142530, Note_on_c, 12, 74, 0
20, 142530, Note_on_c, 12, 73, 127
20, 142545, Note_on_c, 12, 73, 0
20, 142545, Note_on_c, 12, 74, 127
20, 142560, Note_on_c, 12, 74, 0
20, 142560, Note_on_c, 12, 76, 127
20, 142575, Note_on_c, 12, 76, 0
20, 142575, Note_on_c, 12, 78, 127
20, 142590, Note_on_c, 12, 78, 0
20, 142590, Note_on_c, 12, 74, 127
20, 142605, Note_on_c, 12, 74, 0
20, 142605, Note_on_c, 12, 76, 127
20, 142620, Note_on_c, 12, 76, 0
20, 142620, Note_on_c, 12, 73, 127
20, 142635, Note_on_c, 12, 73, 0
20, 142635, Note_on_c, 12, 76, 127
20, 142650, Note_on_c, 12, 76, 0
20, 142650, Note_on_c, 12, 74, 127
20, 142665, Note_on_c, 12, 74, 0
20, 142665, Note_on_c, 12, 76, 127
20, 142680, Note_on_c, 12, 76, 0
20, 142680, Note_on_c, 12, 78, 127
20, 142695, Note_on_c, 12, 78, 0
20, 142695, Note_on_c, 12, 74, 127
20, 142710, Note_on_c, 12, 74, 0
20, 142710, Note_on_c, 12, 73, 127
20, 142725, Note_on_c, 12, 73, 0
20, 142725, Note_on_c, 12, 74, 127
20, 142740, Note_on_c, 12, 74, 0
20, 142740, Note_on_c, 12, 76, 127
20, 142755, Note_on_c, 12, 76, 0
20, 142755, Note_on_c, 12, 78, 127
20, 142770, Note_on_c, 12, 78, 0
20, 142770, Note_on_c, 12, 74, 127
20, 142785, Note_on_c, 12, 74, 0
20, 142785, Note_on_c, 12, 76, 127
20, 142800, Note_on_c, 12, 76, 0
20, 142800, Note_on_c, 12, 73, 127
20, 142815, Note_on_c, 12, 73, 0
20, 142815, Note_on_c, 12, 79, 127
20, 142830, Note_on_c, 12, 79, 0
20, 142830, Note_on_c, 12, 78, 127
20, 142845, Note_on_c, 12, 78, 0
20, 142845, Note_on_c, 12, 76, 127
20, 142860, Note_on_c, 12, 76, 0
20, 142860, Note_on_c, 12, 74, 127
20, 142875, Note_on_c, 12, 74, 0
20, 142875, Note_on_c, 12, 73, 127
20, 142890, Note_on_c, 12, 73, 0
20, 142890, Note_on_c, 12, 71, 127
20, 142905, Note_on_c, 12, 71, 0
20, 142905, Note_on_c, 12, 70, 127
20, 142920, Note_on_c, 12, 70, 0
20, 142920, Note_on_c, 12, 71, 127
20, 142950, Note_on_c, 12, 71, 0
20, 142950, Note_on_c, 12, 66, 127
20, 142980, Note_on_c, 12, 66, 0
20, 142980, Note_on_c, 12, 78, 127
20, 143010, Note_on_c, 12, 78, 0
20, 143010, Note_on_c, 12, 76, 127
20, 143040, Note_on_c, 12, 76, 0
20, 143040, Note_on_c, 12, 78, 127
20, 143100, Note_on_c, 12, 78, 0
20, 143100, Note_on_c, 12, 66, 127
20, 143580, Note_on_c, 12, 66, 0
20, 143580, Note_on_c, 12, 66, 127
20, 143640, Note_on_c, 12, 66, 0
20, 143640, Note_on_c, 12, 71, 127
20, 143670, Note_on_c, 12, 71, 0
20, 143670, Note_on_c, 12, 73, 127
20, 143700, Note_on_c, 12, 73, 0
20, 143700, Note_on_c, 12, 74, 127
20, 143760, Note_on_c, 12, 74, 0
20, 143760, Note_on_c, 12, 73, 127
20, 143820, Note_on_c, 12, 73, 0
20, 143820, Note_on_c, 12, 71, 127
20, 143880, Note_on_c, 12, 71, 0
20, 143880, Note_on_c, 12, 66, 127
20, 143910, Note_on_c, 12, 66, 0
20, 143910, Note_on_c, 12, 64, 127
20, 143940, Note_on_c, 12, 64, 0
20, 143940, Note_on_c, 12, 66, 127
20, 144000, Note_on_c, 12, 66, 0
20, 144000, Note_on_c, 12, 73, 127
20, 144030, Note_on_c, 12, 73, 0
20, 144030, Note_on_c, 12, 74, 127
20, 144060, Note_on_c, 12, 74, 0
20, 144060, Note_on_c, 12, 76, 127
20, 144120, Note_on_c, 12, 76, 0
20, 144120, Note_on_c, 12, 74, 127
20, 144180, Note_on_c, 12, 74, 0
20, 144180, Note_on_c, 12, 73, 127
20, 144240, Note_on_c, 12, 73, 0
20, 144240, Note_on_c, 12, 66, 127
20, 144270, Note_on_c, 12, 66, 0
20, 144270, Note_on_c, 12, 64, 127
20, 144300, Note_on_c, 12, 64, 0
20, 144300, Note_on_c, 12, 66, 127
20, 144360, Note_on_c, 12, 66, 0
20, 144420, Note_on_c, 12, 78, 127
20, 144480, Note_on_c, 12, 78, 0
20, 144480, Note_on_c, 12, 74, 127
20, 144540, Note_on_c, 12, 74, 0
20, 144540, Note_on_c, 12, 71, 127
20, 144600, Note_on_c, 12, 71, 0
20, 144600, Note_on_c, 12, 79, 127
20, 144660, Note_on_c, 12, 79, 0
20, 144660, Note_on_c, 12, 76, 127
20, 144720, Note_on_c, 12, 76, 0
20, 144720, Note_on_c, 12, 70, 127
20, 144780, Note_on_c, 12, 70, 0
20, 144780, Note_on_c, 12, 69, 127
20, 144840, Note_on_c, 12, 69, 0
20, 144840, Note_on_c, 12, 69, 127
20, 144900, Note_on_c, 12, 69, 0
20, 144900, Note_on_c, 12, 69, 127
20, 144960, Note_on_c, 12, 69, 0
20, 144960, Note_on_c, 12, 74, 127
20, 144990, Note_on_c, 12, 74, 0
20, 144990, Note_on_c, 12, 73, 127
20, 145020, Note_on_c, 12, 73, 0
20, 145020, Note_on_c, 12, 74, 127
20, 145110, Note_on_c, 12, 74, 0
20, 145110, Note_on_c, 12, 75, 127
20, 145140, Note_on_c, 12, 75, 0
20, 145140, Note_on_c, 12, 76, 127
20, 145170, Note_on_c, 12, 76, 0
20, 145170, Note_on_c, 12, 78, 127
20, 145200, Note_on_c, 12, 78, 0
20, 145200, Note_on_c, 12, 79, 127
20, 145260, Note_on_c, 12, 79, 0
20, 145320, Note_on_c, 12, 78, 127
20, 145380, Note_on_c, 12, 78, 0
20, 145380, Note_on_c, 12, 81, 127
20, 145440, Note_on_c, 12, 81, 0
20, 145440, Note_on_c, 12, 79, 127
20, 145470, Note_on_c, 12, 79, 0
20, 145470, Note_on_c, 12, 78, 127
20, 145500, Note_on_c, 12, 78, 0
20, 145500, Note_on_c, 12, 76, 127
20, 145560, Note_on_c, 12, 76, 0
20, 145560, Note_on_c, 12, 74, 127
20, 145590, Note_on_c, 12, 74, 0
20, 145590, Note_on_c, 12, 73, 127
20, 145620, Note_on_c, 12, 73, 0
20, 145620, Note_on_c, 12, 70, 127
20, 145710, Note_on_c, 12, 70, 0
20, 145710, Note_on_c, 12, 68, 127
20, 145740, Note_on_c, 12, 68, 0
20, 145740, Note_on_c, 12, 66, 127
20, 145800, Note_on_c, 12, 66, 0
20, 146160, Note_on_c, 12, 74, 127
20, 146220, Note_on_c, 12, 74, 0
20, 146520, Note_on_c, 12, 73, 127
20, 146580, Note_on_c, 12, 73, 0
20, 146880, Note_on_c, 12, 71, 127
20, 146940, Note_on_c, 12, 71, 0
20, 146940, Note_on_c, 12, 81, 127
20, 147000, Note_on_c, 12, 81, 0
20, 147000, Note_on_c, 12, 79, 127
20, 147060, Note_on_c, 12, 79, 0
20, 147060, Note_on_c, 12, 78, 127
20, 147120, Note_on_c, 12, 78, 0
20, 147120, Note_on_c, 12, 76, 127
20, 147180, Note_on_c, 12, 76, 0
20, 147180, Note_on_c, 12, 74, 127
20, 147240, Note_on_c, 12, 74, 0
20, 147240, Note_on_c, 12, 73, 127
20, 147270, Note_on_c, 12, 73, 0
20, 147270, Note_on_c, 12, 74, 127
20, 147300, Note_on_c, 12, 74, 0
20, 147300, Note_on_c, 12, 76, 127
20, 147330, Note_on_c, 12, 76, 0
20, 147330, Note_on_c, 12, 73, 127
20, 147360, Note_on_c, 12, 73, 0
20, 147360, Note_on_c, 12, 74, 127
20, 147390, Note_on_c, 12, 74, 0
20, 147390, Note_on_c, 12, 71, 127
20, 147420, Note_on_c, 12, 71, 0
20, 147420, Note_on_c, 12, 70, 127
20, 147480, Note_on_c, 12, 70, 0
20, 147480, Note_on_c, 12, 73, 127
20, 147540, Note_on_c, 12, 73, 0
20, 147540, Note_on_c, 12, 64, 127
20, 147600, Note_on_c, 12, 64, 0
20, 147600, Note_on_c, 12, 62, 127
20, 147630, Note_on_c, 12, 62, 0
20, 147630, Note_on_c, 12, 64, 127
20, 147660, Note_on_c, 12, 64, 0
20, 147660, Note_on_c, 12, 66, 127
20, 147720, Note_on_c, 12, 66, 0
20, 147720, Note_on_c, 12, 66, 127
20, 147780, Note_on_c, 12, 66, 0
20, 147840, Note_on_c, 12, 74, 127
20, 147870, Note_on_c, 12, 74, 0
20, 147870, Note_on_c, 12, 73, 127
20, 147900, Note_on_c, 12, 73, 0
20, 147900, Note_on_c, 12, 74, 127
20, 147930, Note_on_c, 12, 74, 0
20, 147930, Note_on_c, 12, 71, 127
20, 147960, Note_on_c, 12, 71, 0
20, 147960, Note_on_c, 12, 70, 127
20, 147990, Note_on_c, 12, 70, 0
20, 147990, Note_on_c, 12, 71, 127
20, 148020, Note_on_c, 12, 71, 0
20, 148020, Note_on_c, 12, 73, 127
20, 148080, Note_on_c, 12, 73, 0
20, 148080, Note_on_c, 12, 66, 127
20, 148140, Note_on_c, 12, 66, 0
20, 148200, Note_on_c, 12, 73, 127
20, 148260, Note_on_c, 12, 73, 0
20, 148260, Note_on_c, 12, 66, 127
20, 148320, Note_on_c, 12, 66, 0
20, 148320, Note_on_c, 12, 74, 127
20, 148440, Note_on_c, 12, 74, 0
20, 148440, Note_on_c, 12, 74, 127
20, 148500, Note_on_c, 12, 74, 0
20, 148500, Note_on_c, 12, 74, 127
20, 148530, Note_on_c, 12, 74, 0
20, 148530, Note_on_c, 12, 71, 127
20, 148560, Note_on_c, 12, 71, 0
20, 148560, Note_on_c, 12, 70, 127
20, 148590, Note_on_c, 12, 70, 0
20, 148590, Note_on_c, 12, 71, 127
20, 148620, Note_on_c, 12, 71, 0
20, 148620, Note_on_c, 12, 79, 127
20, 148650, Note_on_c, 12, 79, 0
20, 148650, Note_on_c, 12, 76, 127
20, 148680, Note_on_c, 12, 76, 0
20, 148680, Note_on_c, 12, 73, 127
20, 148800, Note_on_c, 12, 73, 0
20, 148800, Note_on_c, 12, 73, 127
20, 148860, Note_on_c, 12, 73, 0
20, 148920, Note_on_c, 12, 74, 127
20, 148980, Note_on_c, 12, 74, 0
20, 148980, Note_on_c, 12, 70, 127
20, 149040, Note_on_c, 12, 70, 0
20, 149040, Note_on_c, 12, 71, 127
20, 149070, Note_on_c, 12, 71, 0
20, 149070, Note_on_c, 12, 75, 127
20, 149100, Note_on_c, 12, 75, 0
20, 149100, Note_on_c, 12, 76, 127
20, 149190, Note_on_c, 12, 76, 0
20, 149190, Note_on_c, 12, 79, 127
20, 149220, Note_on_c, 12, 79, 0
20, 149220, Note_on_c, 12, 78, 127
20, 149250, Note_on_c, 12, 78, 0
20, 149250, Note_on_c, 12, 74, 127
20, 149280, Note_on_c, 12, 74, 0
20, 149280, Note_on_c, 12, 71, 127
20, 149370, Note_on_c, 12, 71, 0
20, 149370, Note_on_c, 12, 74, 127
20, 149400, Note_on_c, 12, 74, 0
20, 149400, Note_on_c, 12, 67, 127
20, 149430, Note_on_c, 12, 67, 0
20, 149430, Note_on_c, 12, 66, 127
20, 149460, Note_on_c, 12, 66, 0
20, 149460, Note_on_c, 12, 71, 127
20, 149490, Note_on_c, 12, 71, 0
20, 149490, Note_on_c, 12, 70, 127
20, 149520, Note_on_c, 12, 70, 0
20, 149520, Note_on_c, 12, 74, 127
20, 149580, Note_on_c, 12, 74, 0
20, 149580, Note_on_c, 12, 71, 127
20, 149700, Note_on_c, 12, 71, 0
20, 272640, Note_on_c, 12, 62, 127
20, 272670, Note_on_c, 12, 62, 0
20, 272670, Note_on_c, 12, 55, 127
20, 272700, Note_on_c, 12, 55, 0
20, 272700, Note_on_c, 12, 64, 127
20, 272760, Note_on_c, 12, 64, 0
20, 272760, Note_on_c, 12, 64, 127
20, 272820, Note_on_c, 12, 64, 0
20, 272880, Note_on_c, 12, 64, 127
20, 272940, Note_on_c, 12, 64, 0
20, 272940, Note_on_c, 12, 66, 127
20, 273000, Note_on_c, 12, 66, 0
20, 273000, Note_on_c, 12, 66, 127
20, 273060, Note_on_c, 12, 66, 0
20, 273060, Note_on_c, 12, 69, 127
20, 273120, Note_on_c, 12, 69, 0
20, 273120, Note_on_c, 12, 62, 127
20, 273180, Note_on_c, 12, 62, 0
20, 273180, Note_on_c, 12, 67, 127
20, 273300, Note_on_c, 12, 67, 0
20, 273840, Note_on_c, 12, 62, 127
20, 273900, Note_on_c, 12, 62, 0
20, 273900, Note_on_c, 12, 59, 127
20, 273960, Note_on_c, 12, 59, 0
20, 273960, Note_on_c, 12, 64, 127
20, 273990, Note_on_c, 12, 64, 0
20, 273990, Note_on_c, 12, 62, 127
20, 274020, Note_on_c, 12, 62, 0
20, 274020, Note_on_c, 12, 64, 127
20, 274080, Note_on_c, 12, 64, 0
20, 274080, Note_on_c, 12, 59, 127
20, 274140, Note_on_c, 12, 59, 0
20, 274140, Note_on_c, 12, 61, 127
20, 274260, Note_on_c, 12, 61, 0
20, 274320, Note_on_c, 12, 61, 127
20, 274380, Note_on_c, 12, 61, 0
20, 274380, Note_on_c, 12, 62, 127
20, 274440, Note_on_c, 12, 62, 0
20, 274440, Note_on_c, 12, 66, 127
20, 274500, Note_on_c, 12, 66, 0
20, 274500, Note_on_c, 12, 66, 127
20, 274560, Note_on_c, 12, 66, 0
20, 274560, Note_on_c, 12, 64, 127
20, 274590, Note_on_c, 12, 64, 0
20, 274590, Note_on_c, 12, 62, 127
20, 274620, Note_on_c, 12, 62, 0
20, 274620, Note_on_c, 12, 61, 127
20, 274680, Note_on_c, 12, 61, 0
20, 274680, Note_on_c, 12, 64, 127
20, 274710, Note_on_c, 12, 64, 0
20, 274710, Note_on_c, 12, 62, 127
20, 274740, Note_on_c, 12, 62, 0
20, 274740, Note_on_c, 12, 64, 127
20, 274800, Note_on_c, 12, 64, 0
20, 275040, Note_on_c, 12, 57, 127
20, 275100, Note_on_c, 12, 57, 0
20, 275100, Note_on_c, 12, 59, 127
20, 275160, Note_on_c, 12, 59, 0
20, 275160, Note_on_c, 12, 64, 127
20, 275220, Note_on_c, 12, 64, 0
20, 275220, Note_on_c, 12, 64, 127
20, 275280, Note_on_c, 12, 64, 0
20, 275280, Note_on_c, 12, 62, 127
20, 275340, Note_on_c, 12, 62, 0
20, 275340, Note_on_c, 12, 61, 127
20, 275400, Note_on_c, 12, 61, 0
20, 275400, Note_on_c, 12, 62, 127
20, 275460, Note_on_c, 12, 62, 0
20, 275460, Note_on_c, 12, 64, 127
20, 275520, Note_on_c, 12, 64, 0
20, 275520, Note_on_c, 12, 57, 127
20, 275580, Note_on_c, 12, 57, 0
20, 275580, Note_on_c, 12, 69, 127
20, 275640, Note_on_c, 12, 69, 0
20, 275640, Note_on_c, 12, 67, 127
20, 275670, Note_on_c, 12, 67, 0
20, 275670, Note_on_c, 12, 66, 127
20, 275700, Note_on_c, 12, 66, 0
20, 275700, Note_on_c, 12, 64, 127
20, 275790, Note_on_c, 12, 64, 0
20, 275790, Note_on_c, 12, 62, 127
20, 275820, Note_on_c, 12, 62, 0
20, 275820, Note_on_c, 12, 62, 127
20, 275940, Note_on_c, 12, 62, 0
20, 277050, Control_c, 12, 0, 20
20, 277050, Program_c, 12, 57
20, 277080, Note_on_c, 12, 78, 127
20, 277139, Note_on_c, 12, 78, 0
20, 277140, Note_on_c, 12, 78, 127
20, 277199, Note_on_c, 12, 78, 0
20, 277200, Note_on_c, 12, 74, 127
20, 277259, Note_on_c, 12, 74, 0
20, 277260, Note_on_c, 12, 71, 127
20, 277319, Note_on_c, 12, 71, 0
20, 277320, Note_on_c, 12, 71, 127
20, 277379, Note_on_c, 12, 71, 0
20, 277380, Note_on_c, 12, 69, 127
20, 277439, Note_on_c, 12, 69, 0
20, 277440, Note_on_c, 12, 68, 127
20, 277499, Note_on_c, 12, 68, 0
20, 277500, Note_on_c, 12, 76, 127
20, 277559, Note_on_c, 12, 76, 0
20, 277560, Note_on_c, 12, 76, 127
20, 277619, Note_on_c, 12, 76, 0
20, 277650, Note_on_c, 12, 69, 127
20, 277679, Note_on_c, 12, 69, 0
20, 277680, Note_on_c, 12, 73, 127
20, 277709, Note_on_c, 12, 73, 0
20, 277710, Note_on_c, 12, 76, 127
20, 277739, Note_on_c, 12, 76, 0
20, 277740, Note_on_c, 12, 78, 127
20, 277799, Note_on_c, 12, 78, 0
20, 277800, Note_on_c, 12, 74, 127
20, 277859, Note_on_c, 12, 74, 0
20, 277860, Note_on_c, 12, 71, 127
20, 277919, Note_on_c, 12, 71, 0
20, 277920, Note_on_c, 12, 76, 127
20, 277979, Note_on_c, 12, 76, 0
20, 277980, Note_on_c, 12, 73, 127
20, 278039, Note_on_c, 12, 73, 0
20, 278040, Note_on_c, 12, 73, 127
20, 278099, Note_on_c, 12, 73, 0
20, 280320, Control_c, 12, 0, 20
20, 280320, Program_c, 12, 57
20, 280320, Note_on_c, 12, 74, 127
20, 280379, Note_on_c, 12, 74, 0
20, 280380, Note_on_c, 12, 74, 127
20, 280439, Note_on_c, 12, 74, 0
20, 280440, Note_on_c, 12, 71, 127
20, 280469, Note_on_c, 12, 71, 0
20, 280470, Note_on_c, 12, 73, 127
20, 280499, Note_on_c, 12, 73, 0
20, 280500, Note_on_c, 12, 74, 127
20, 280529, Note_on_c, 12, 74, 0
20, 280530, Note_on_c, 12, 76, 127
20, 280559, Note_on_c, 12, 76, 0
20, 280560, Note_on_c, 12, 73, 127
20, 280589, Note_on_c, 12, 73, 0
20, 280590, Note_on_c, 12, 74, 127
20, 280619, Note_on_c, 12, 74, 0
20, 280620, Note_on_c, 12, 76, 127
20, 280649, Note_on_c, 12, 76, 0
20, 280650, Note_on_c, 12, 74, 127
20, 280679, Note_on_c, 12, 74, 0
20, 280680, Note_on_c, 12, 73, 127
20, 280709, Note_on_c, 12, 73, 0
20, 280710, Note_on_c, 12, 74, 127
20, 280739, Note_on_c, 12, 74, 0
20, 280740, Note_on_c, 12, 76, 127
20, 280799, Note_on_c, 12, 76, 0
20, 280800, Note_on_c, 12, 69, 127
20, 280859, Note_on_c, 12, 69, 0
20, 280860, Note_on_c, 12, 76, 127
20, 280919, Note_on_c, 12, 76, 0
20, 280920, Note_on_c, 12, 79, 127
20, 280949, Note_on_c, 12, 79, 0
20, 280950, Note_on_c, 12, 78, 127
20, 280979, Note_on_c, 12, 78, 0
20, 280980, Note_on_c, 12, 79, 127
20, 281039, Note_on_c, 12, 79, 0
20, 281040, Note_on_c, 12, 78, 127
20, 281099, Note_on_c, 12, 78, 0
20, 281100, Note_on_c, 12, 76, 127
20, 281159, Note_on_c, 12, 76, 0
20, 281160, Note_on_c, 12, 74, 127
20, 281219, Note_on_c, 12, 74, 0
20, 281280, Note_on_c, 12, 78, 127
20, 281339, Note_on_c, 12, 78, 0
20, 281340, Note_on_c, 12, 78, 127
20, 281399, Note_on_c, 12, 78, 0
20, 281400, Note_on_c, 12, 74, 127
20, 281429, Note_on_c, 12, 74, 0
20, 281430, Note_on_c, 12, 76, 127
20, 281459, Note_on_c, 12, 76, 0
20, 281460, Note_on_c, 12, 78, 127
20, 281519, Note_on_c, 12, 78, 0
20, 281520, Note_on_c, 12, 74, 127
20, 281579, Note_on_c, 12, 74, 0
20, 281580, Note_on_c, 12, 71, 127
20, 281669, Note_on_c, 12, 71, 0
20, 281670, Note_on_c, 12, 69, 127
20, 281699, Note_on_c, 12, 69, 0
20, 281700, Note_on_c, 12, 71, 127
20, 281759, Note_on_c, 12, 71, 0
20, 281760, Note_on_c, 12, 71, 127
20, 281819, Note_on_c, 12, 71, 0
20, 281820, Note_on_c, 12, 72, 127
20, 281879, Note_on_c, 12, 72, 0
20, 281880, Note_on_c, 12, 76, 127
20, 281909, Note_on_c, 12, 76, 0
20, 281910, Note_on_c, 12, 74, 127
20, 281939, Note_on_c, 12, 74, 0
20, 281940, Note_on_c, 12, 76, 127
20, 281999, Note_on_c, 12, 76, 0
20, 282000, Note_on_c, 12, 72, 127
20, 282059, Note_on_c, 12, 72, 0
20, 282060, Note_on_c, 12, 69, 127
20, 282119, Note_on_c, 12, 69, 0
20, 282120, Note_on_c, 12, 62, 127
20, 282179, Note_on_c, 12, 62, 0
20, 282180, Note_on_c, 12, 66, 127
20, 282239, Note_on_c, 12, 66, 0
20, 282240, Note_on_c, 12, 69, 127
20, 282299, Note_on_c, 12, 69, 0
20, 282300, Note_on_c, 12, 74, 127
20, 282359, Note_on_c, 12, 74, 0
20, 282360, Note_on_c, 12, 72, 127
20, 282389, Note_on_c, 12, 72, 0
20, 282390, Note_on_c, 12, 71, 127
20, 282419, Note_on_c, 12, 71, 0
20, 282420, Note_on_c, 12, 72, 127
20, 282479, Note_on_c, 12, 72, 0
20, 282480, Note_on_c, 12, 69, 127
20, 282539, Note_on_c, 12, 69, 0
20, 282540, Note_on_c, 12, 67, 127
20, 282659, Note_on_c, 12, 67, 0
20, 282720, Note_on_c, 12, 74, 127
20, 282779, Note_on_c, 12, 74, 0
20, 282780, Note_on_c, 12, 74, 127
20, 282839, Note_on_c, 12, 74, 0
20, 282840, Note_on_c, 12, 79, 127
20, 282869, Note_on_c, 12, 79, 0
20, 282870, Note_on_c, 12, 78, 127
20, 282899, Note_on_c, 12, 78, 0
20, 282900, Note_on_c, 12, 79, 127
20, 282959, Note_on_c, 12, 79, 0
20, 282960, Note_on_c, 12, 71, 127
20, 283019, Note_on_c, 12, 71, 0
20, 283020, Note_on_c, 12, 72, 127
20, 283049, Note_on_c, 12, 72, 0
20, 283050, Note_on_c, 12, 71, 127
20, 283079, Note_on_c, 12, 71, 0
20, 283080, Note_on_c, 12, 69, 127
20, 283109, Note_on_c, 12, 69, 0
20, 283110, Note_on_c, 12, 71, 127
20, 283139, Note_on_c, 12, 71, 0
20, 283140, Note_on_c, 12, 72, 127
20, 283169, Note_on_c, 12, 72, 0
20, 283170, Note_on_c, 12, 74, 127
20, 283199, Note_on_c, 12, 74, 0
20, 283200, Note_on_c, 12, 72, 127
20, 283229, Note_on_c, 12, 72, 0
20, 283230, Note_on_c, 12, 74, 127
20, 283259, Note_on_c, 12, 74, 0
20, 283260, Note_on_c, 12, 72, 127
20, 283289, Note_on_c, 12, 72, 0
20, 283290, Note_on_c, 12, 71, 127
20, 283319, Note_on_c, 12, 71, 0
20, 283320, Note_on_c, 12, 69, 127
20, 283349, Note_on_c, 12, 69, 0
20, 283350, Note_on_c, 12, 71, 127
20, 283379, Note_on_c, 12, 71, 0
20, 283380, Note_on_c, 12, 72, 127
20, 283409, Note_on_c, 12, 72, 0
20, 283410, Note_on_c, 12, 74, 127
20, 283439, Note_on_c, 12, 74, 0
20, 283440, Note_on_c, 12, 76, 127
20, 283469, Note_on_c, 12, 76, 0
20, 283470, Note_on_c, 12, 78, 127
20, 283499, Note_on_c, 12, 78, 0
20, 283500, Note_on_c, 12, 79, 127
20, 283559, Note_on_c, 12, 79, 0
20, 283560, Note_on_c, 12, 67, 127
20, 283619, Note_on_c, 12, 67, 0
20, 283620, Note_on_c, 12, 62, 127
20, 283679, Note_on_c, 12, 62, 0
20, 283680, Note_on_c, 12, 66, 127
20, 283739, Note_on_c, 12, 66, 0
20, 283740, Note_on_c, 12, 67, 127
20, 283859, Note_on_c, 12, 67, 0
20, 294060, Control_c, 12, 0, 20
20, 294060, Program_c, 12, 57
20, 294060, Note_on_c, 12, 69, 127
20, 294120, Note_on_c, 12, 69, 0
20, 294120, Note_on_c, 12, 66, 127
20, 294150, Note_on_c, 12, 66, 0
20, 294150, Note_on_c, 12, 67, 127
20, 294180, Note_on_c, 12, 67, 0
20, 294180, Note_on_c, 12, 69, 127
20, 294240, Note_on_c, 12, 69, 0
20, 294240, Note_on_c, 12, 71, 127
20, 294270, Note_on_c, 12, 71, 0
20, 294270, Note_on_c, 12, 73, 127
20, 294300, Note_on_c, 12, 73, 0
20, 294300, Note_on_c, 12, 74, 127
20, 294330, Note_on_c, 12, 74, 0
20, 294330, Note_on_c, 12, 73, 127
20, 294360, Note_on_c, 12, 73, 0
20, 294360, Note_on_c, 12, 74, 127
20, 294420, Note_on_c, 12, 74, 0
20, 294420, Note_on_c, 12, 74, 127
20, 294450, Note_on_c, 12, 74, 0
20, 294450, Note_on_c, 12, 69, 127
20, 294480, Note_on_c, 12, 69, 0
20, 294480, Note_on_c, 12, 78, 127
20, 294540, Note_on_c, 12, 78, 0
20, 294540, Note_on_c, 12, 76, 127
20, 294780, Note_on_c, 12, 76, 0
20, 294840, Note_on_c, 12, 69, 127
20, 294869, Note_on_c, 12, 69, 0
20, 294870, Note_on_c, 12, 68, 127
20, 294899, Note_on_c, 12, 68, 0
20, 294900, Note_on_c, 12, 69, 127
20, 294929, Note_on_c, 12, 69, 0
20, 294930, Note_on_c, 12, 71, 127
20, 294959, Note_on_c, 12, 71, 0
20, 294960, Note_on_c, 12, 73, 127
20, 294989, Note_on_c, 12, 73, 0
20, 294990, Note_on_c, 12, 74, 127
20, 295019, Note_on_c, 12, 74, 0
20, 295020, Note_on_c, 12, 76, 127
20, 295049, Note_on_c, 12, 76, 0
20, 295050, Note_on_c, 12, 78, 127
20, 295079, Note_on_c, 12, 78, 0
20, 295080, Note_on_c, 12, 79, 127
20, 295139, Note_on_c, 12, 79, 0
20, 295140, Note_on_c, 12, 79, 127
20, 295169, Note_on_c, 12, 79, 0
20, 295170, Note_on_c, 12, 76, 127
20, 295199, Note_on_c, 12, 76, 0
20, 295200, Note_on_c, 12, 78, 127
20, 295259, Note_on_c, 12, 78, 0
20, 295260, Note_on_c, 12, 78, 127
20, 295499, Note_on_c, 12, 78, 0
20, 295500, Note_on_c, 12, 71, 127
20, 295559, Note_on_c, 12, 71, 0
20, 295560, Note_on_c, 12, 71, 127
20, 295589, Note_on_c, 12, 71, 0
20, 295590, Note_on_c, 12, 69, 127
20, 295619, Note_on_c, 12, 69, 0
20, 295620, Note_on_c, 12, 71, 127
20, 295679, Note_on_c, 12, 71, 0
20, 295680, Note_on_c, 12, 74, 127
20, 295739, Note_on_c, 12, 74, 0
20, 295740, Note_on_c, 12, 73, 127
20, 295769, Note_on_c, 12, 73, 0
20, 295770, Note_on_c, 12, 71, 127
20, 295799, Note_on_c, 12, 71, 0
20, 295800, Note_on_c, 12, 69, 127
20, 295829, Note_on_c, 12, 69, 0
20, 295830, Note_on_c, 12, 67, 127
20, 295859, Note_on_c, 12, 67, 0
20, 295860, Note_on_c, 12, 69, 127
20, 295919, Note_on_c, 12, 69, 0
20, 295920, Note_on_c, 12, 74, 127
20, 295949, Note_on_c, 12, 74, 0
20, 295950, Note_on_c, 12, 73, 127
20, 295979, Note_on_c, 12, 73, 0
20, 295980, Note_on_c, 12, 74, 127
20, 296219, Note_on_c, 12, 74, 0
20, 296220, Note_on_c, 12, 76, 127
20, 296279, Note_on_c, 12, 76, 0
20, 296280, Note_on_c, 12, 74, 127
20, 296309, Note_on_c, 12, 74, 0
20, 296310, Note_on_c, 12, 73, 127
20, 296339, Note_on_c, 12, 73, 0
20, 296340, Note_on_c, 12, 74, 127
20, 296399, Note_on_c, 12, 74, 0
20, 296400, Note_on_c, 12, 69, 127
20, 296459, Note_on_c, 12, 69, 0
20, 296460, Note_on_c, 12, 69, 127
20, 296519, Note_on_c, 12, 69, 0
20, 296520, Note_on_c, 12, 67, 127
20, 296579, Note_on_c, 12, 67, 0
20, 296580, Note_on_c, 12, 66, 127
20, 296609, Note_on_c, 12, 66, 0
20, 296610, Note_on_c, 12, 62, 127
20, 296639, Note_on_c, 12, 62, 0
20, 296640, Note_on_c, 12, 64, 127
20, 296699, Note_on_c, 12, 64, 0
20, 296700, Note_on_c, 12, 64, 127
20, 296819, Note_on_c, 12, 64, 0
20, 296880, Note_on_c, 12, 81, 127
20, 296939, Note_on_c, 12, 81, 0
20, 296940, Note_on_c, 12, 79, 127
20, 296999, Note_on_c, 12, 79, 0
20, 297000, Note_on_c, 12, 78, 127
20, 297059, Note_on_c, 12, 78, 0
20, 297060, Note_on_c, 12, 76, 127
20, 297119, Note_on_c, 12, 76, 0
20, 297120, Note_on_c, 12, 74, 127
20, 297179, Note_on_c, 12, 74, 0
20, 297180, Note_on_c, 12, 73, 127
20, 297239, Note_on_c, 12, 73, 0
20, 297240, Note_on_c, 12, 74, 127
20, 297269, Note_on_c, 12, 74, 0
20, 297270, Note_on_c, 12, 76, 127
20, 297299, Note_on_c, 12, 76, 0
20, 297300, Note_on_c, 12, 78, 127
20, 297359, Note_on_c, 12, 78, 0
20, 297360, Note_on_c, 12, 76, 127
20, 297419, Note_on_c, 12, 76, 0
20, 297420, Note_on_c, 12, 74, 127
20, 297479, Note_on_c, 12, 74, 0
20, 297480, Note_on_c, 12, 73, 127
20, 297539, Note_on_c, 12, 73, 0
20, 297540, Note_on_c, 12, 71, 127
20, 297599, Note_on_c, 12, 71, 0
20, 297600, Note_on_c, 12, 73, 127
20, 297629, Note_on_c, 12, 73, 0
20, 297630, Note_on_c, 12, 74, 127
20, 297659, Note_on_c, 12, 74, 0
20, 297660, Note_on_c, 12, 76, 127
20, 297719, Note_on_c, 12, 76, 0
20, 297720, Note_on_c, 12, 78, 127
20, 297749, Note_on_c, 12, 78, 0
20, 297750, Note_on_c, 12, 79, 127
20, 297779, Note_on_c, 12, 79, 0
20, 297780, Note_on_c, 12, 79, 127
20, 297809, Note_on_c, 12, 79, 0
20, 297810, Note_on_c, 12, 78, 127
20, 297839, Note_on_c, 12, 78, 0
20, 297840, Note_on_c, 12, 76, 127
20, 297869, Note_on_c, 12, 76, 0
20, 297870, Note_on_c, 12, 74, 127
20, 297899, Note_on_c, 12, 74, 0
20, 297900, Note_on_c, 12, 78, 127
20, 297959, Note_on_c, 12, 78, 0
20, 297960, Note_on_c, 12, 76, 127
20, 298019, Note_on_c, 12, 76, 0
20, 298020, Note_on_c, 12, 74, 127
20, 298049, Note_on_c, 12, 74, 0
20, 298050, Note_on_c, 12, 73, 127
20, 298079, Note_on_c, 12, 73, 0
20, 298080, Note_on_c, 12, 74, 127
20, 298139, Note_on_c, 12, 74, 0
20, 298140, Note_on_c, 12, 62, 127
20, 298379, Note_on_c, 12, 62, 0
20, 301440, Note_on_c, 12, 71, 127
20, 301499, Note_on_c, 12, 71, 0
20, 301500, Note_on_c, 12, 71, 127
20, 301559, Note_on_c, 12, 71, 0
20, 301560, Note_on_c, 12, 72, 127
20, 301590, Note_on_c, 12, 72, 0
20, 301590, Note_on_c, 12, 74, 127
20, 301620, Note_on_c, 12, 74, 0
20, 301620, Note_on_c, 12, 76, 127
20, 301679, Note_on_c, 12, 76, 0
20, 301680, Note_on_c, 12, 79, 127
20, 301710, Note_on_c, 12, 79, 0
20, 301710, Note_on_c, 12, 78, 127
20, 301740, Note_on_c, 12, 78, 0
20, 301740, Note_on_c, 12, 76, 127
20, 301799, Note_on_c, 12, 76, 0
20, 301800, Note_on_c, 12, 76, 127
20, 301859, Note_on_c, 12, 76, 0
20, 301860, Note_on_c, 12, 76, 127
20, 301890, Note_on_c, 12, 76, 0
20, 301890, Note_on_c, 12, 74, 127
20, 301920, Note_on_c, 12, 74, 0
20, 301920, Note_on_c, 12, 76, 127
20, 301950, Note_on_c, 12, 76, 0
20, 301950, Note_on_c, 12, 74, 127
20, 301980, Note_on_c, 12, 74, 0
20, 301980, Note_on_c, 12, 76, 127
20, 302039, Note_on_c, 12, 76, 0
20, 302040, Note_on_c, 12, 76, 127
20, 302069, Note_on_c, 12, 76, 0
20, 302070, Note_on_c, 12, 74, 127
20, 302099, Note_on_c, 12, 74, 0
20, 302100, Note_on_c, 12, 72, 127
20, 302159, Note_on_c, 12, 72, 0
20, 302160, Note_on_c, 12, 76, 127
20, 302219, Note_on_c, 12, 76, 0
20, 302220, Note_on_c, 12, 76, 127
20, 302249, Note_on_c, 12, 76, 0
20, 302250, Note_on_c, 12, 74, 127
20, 302279, Note_on_c, 12, 74, 0
20, 302280, Note_on_c, 12, 72, 127
20, 302309, Note_on_c, 12, 72, 0
20, 302310, Note_on_c, 12, 71, 127
20, 302339, Note_on_c, 12, 71, 0
20, 302340, Note_on_c, 12, 72, 127
20, 302399, Note_on_c, 12, 72, 0
20, 302400, Note_on_c, 12, 74, 127
20, 302429, Note_on_c, 12, 74, 0
20, 302430, Note_on_c, 12, 71, 127
20, 302459, Note_on_c, 12, 71, 0
20, 302460, Note_on_c, 12, 72, 127
20, 302519, Note_on_c, 12, 72, 0
20, 302520, Note_on_c, 12, 76, 127
20, 302579, Note_on_c, 12, 76, 0
20, 302580, Note_on_c, 12, 77, 127
20, 302609, Note_on_c, 12, 77, 0
20, 302610, Note_on_c, 12, 76, 127
20, 302639, Note_on_c, 12, 76, 0
20, 302640, Note_on_c, 12, 74, 127
20, 302669, Note_on_c, 12, 74, 0
20, 302670, Note_on_c, 12, 72, 127
20, 302699, Note_on_c, 12, 72, 0
20, 302700, Note_on_c, 12, 77, 127
20, 302759, Note_on_c, 12, 77, 0
20, 302760, Note_on_c, 12, 77, 127
20, 302789, Note_on_c, 12, 77, 0
20, 302790, Note_on_c, 12, 76, 127
20, 302819, Note_on_c, 12, 76, 0
20, 302820, Note_on_c, 12, 74, 127
20, 302879, Note_on_c, 12, 74, 0
20, 302880, Note_on_c, 12, 74, 127
20, 302939, Note_on_c, 12, 74, 0
20, 302940, Note_on_c, 12, 76, 127
20, 302969, Note_on_c, 12, 76, 0
20, 302970, Note_on_c, 12, 74, 127
20, 302999, Note_on_c, 12, 74, 0
20, 303000, Note_on_c, 12, 72, 127
20, 303029, Note_on_c, 12, 72, 0
20, 303030, Note_on_c, 12, 71, 127
20, 303059, Note_on_c, 12, 71, 0
20, 303060, Note_on_c, 12, 76, 127
20, 303119, Note_on_c, 12, 76, 0
20, 303120, Note_on_c, 12, 76, 127
20, 303149, Note_on_c, 12, 76, 0
20, 303150, Note_on_c, 12, 74, 127
20, 303179, Note_on_c, 12, 74, 0
20, 303180, Note_on_c, 12, 72, 127
20, 303239, Note_on_c, 12, 72, 0
20, 303240, Note_on_c, 12, 76, 127
20, 303299, Note_on_c, 12, 76, 0
20, 303300, Note_on_c, 12, 78, 127
20, 303359, Note_on_c, 12, 78, 0
20, 303360, Note_on_c, 12, 81, 127
20, 303389, Note_on_c, 12, 81, 0
20, 303390, Note_on_c, 12, 78, 127
20, 303419, Note_on_c, 12, 78, 0
20, 303420, Note_on_c, 12, 79, 127
20, 303479, Note_on_c, 12, 79, 0
20, 303480, Note_on_c, 12, 76, 127
20, 303509, Note_on_c, 12, 76, 0
20, 303510, Note_on_c, 12, 78, 127
20, 303539, Note_on_c, 12, 78, 0
20, 303540, Note_on_c, 12, 79, 127
20, 303599, Note_on_c, 12, 79, 0
20, 303600, Note_on_c, 12, 67, 127
20, 303659, Note_on_c, 12, 67, 0
20, 303660, Note_on_c, 12, 72, 127
20, 303689, Note_on_c, 12, 72, 0
20, 303690, Note_on_c, 12, 71, 127
20, 303719, Note_on_c, 12, 71, 0
20, 303720, Note_on_c, 12, 69, 127
20, 303749, Note_on_c, 12, 69, 0
20, 303750, Note_on_c, 12, 67, 127
20, 303779, Note_on_c, 12, 67, 0
20, 303780, Note_on_c, 12, 66, 127
20, 303840, Note_on_c, 12, 66, 0
20, 303840, Note_on_c, 12, 67, 127
20, 303870, Note_on_c, 12, 67, 0
20, 303870, Note_on_c, 12, 64, 127
20, 303900, Note_on_c, 12, 64, 0
20, 303900, Note_on_c, 12, 66, 127
20, 303960, Note_on_c, 12, 66, 0
20, 303960, Note_on_c, 12, 71, 127
20, 304020, Note_on_c, 12, 71, 0
20, 304020, Note_on_c, 12, 71, 127
20, 304049, Note_on_c, 12, 71, 0
20, 304050, Note_on_c, 12, 72, 127
20, 304079, Note_on_c, 12, 72, 0
20, 304080, Note_on_c, 12, 71, 127
20, 304109, Note_on_c, 12, 71, 0
20, 304110, Note_on_c, 12, 72, 127
20, 304139, Note_on_c, 12, 72, 0
20, 304140, Note_on_c, 12, 71, 127
20, 304169, Note_on_c, 12, 71, 0
20, 304170, Note_on_c, 12, 76, 127
20, 304199, Note_on_c, 12, 76, 0
20, 304200, Note_on_c, 12, 75, 127
20, 304229, Note_on_c, 12, 75, 0
20, 304230, Note_on_c, 12, 72, 127
20, 304259, Note_on_c, 12, 72, 0
20, 304260, Note_on_c, 12, 71, 127
20, 304289, Note_on_c, 12, 71, 0
20, 304290, Note_on_c, 12, 72, 127
20, 304319, Note_on_c, 12, 72, 0
20, 304320, Note_on_c, 12, 71, 127
20, 304349, Note_on_c, 12, 71, 0
20, 304350, Note_on_c, 12, 72, 127
20, 304379, Note_on_c, 12, 72, 0
20, 304380, Note_on_c, 12, 71, 127
20, 304409, Note_on_c, 12, 71, 0
20, 304410, Note_on_c, 12, 72, 127
20, 304439, Note_on_c, 12, 72, 0
20, 304440, Note_on_c, 12, 71, 127
20, 304469, Note_on_c, 12, 71, 0
20, 304470, Note_on_c, 12, 72, 127
20, 304499, Note_on_c, 12, 72, 0
20, 304500, Note_on_c, 12, 71, 127
20, 304529, Note_on_c, 12, 71, 0
20, 304530, Note_on_c, 12, 76, 127
20, 304559, Note_on_c, 12, 76, 0
20, 304560, Note_on_c, 12, 75, 127
20, 304589, Note_on_c, 12, 75, 0
20, 304590, Note_on_c, 12, 72, 127
20, 304619, Note_on_c, 12, 72, 0
20, 304620, Note_on_c, 12, 71, 127
20, 304649, Note_on_c, 12, 71, 0
20, 304650, Note_on_c, 12, 72, 127
20, 304679, Note_on_c, 12, 72, 0
20, 304680, Note_on_c, 12, 71, 127
20, 304709, Note_on_c, 12, 71, 0
20, 304710, Note_on_c, 12, 72, 127
20, 304739, Note_on_c, 12, 72, 0
20, 304740, Note_on_c, 12, 71, 127
20, 304769, Note_on_c, 12, 71, 0
20, 304770, Note_on_c, 12, 72, 127
20, 304799, Note_on_c, 12, 72, 0
20, 304800, Note_on_c, 12, 71, 127
20, 304829, Note_on_c, 12, 71, 0
20, 304830, Note_on_c, 12, 72, 127
20, 304859, Note_on_c, 12, 72, 0
20, 304860, Note_on_c, 12, 71, 127
20, 304920, Note_on_c, 12, 71, 0
20, 304920, Note_on_c, 12, 71, 127
20, 304950, Note_on_c, 12, 71, 0
20, 304950, Note_on_c, 12, 69, 127
20, 304980, Note_on_c, 12, 69, 0
20, 304980, Note_on_c, 12, 67, 127
20, 305040, Note_on_c, 12, 67, 0
20, 305040, Note_on_c, 12, 71, 127
20, 305100, Note_on_c, 12, 71, 0
20, 305100, Note_on_c, 12, 71, 127
20, 305130, Note_on_c, 12, 71, 0
20, 305130, Note_on_c, 12, 69, 127
20, 305160, Note_on_c, 12, 69, 0
20, 305160, Note_on_c, 12, 67, 127
20, 305190, Note_on_c, 12, 67, 0
20, 305190, Note_on_c, 12, 66, 127
20, 305220, Note_on_c, 12, 66, 0
20, 305220, Note_on_c, 12, 67, 127
20, 305280, Note_on_c, 12, 67, 0
20, 305280, Note_on_c, 12, 69, 127
20, 305310, Note_on_c, 12, 69, 0
20, 305310, Note_on_c, 12, 66, 127
20, 305340, Note_on_c, 12, 66, 0
20, 305340, Note_on_c, 12, 64, 127
20, 305580, Note_on_c, 12, 64, 0
20, 307560, Note_on_c, 12, 71, 127
20, 307620, Note_on_c, 12, 71, 0
20, 307620, Note_on_c, 12, 76, 127
20, 307680, Note_on_c, 12, 76, 0
20, 307680, Note_on_c, 12, 78, 127
20, 307710, Note_on_c, 12, 78, 0
20, 307710, Note_on_c, 12, 79, 127
20, 307740, Note_on_c, 12, 79, 0
20, 307740, Note_on_c, 12, 79, 127
20, 307800, Note_on_c, 12, 79, 0
20, 307800, Note_on_c, 12, 72, 127
20, 307830, Note_on_c, 12, 72, 0
20, 307830, Note_on_c, 12, 71, 127
20, 307860, Note_on_c, 12, 71, 0
20, 307860, Note_on_c, 12, 72, 127
20, 307920, Note_on_c, 12, 72, 0
20, 308280, Note_on_c, 12, 62, 127
20, 308340, Note_on_c, 12, 62, 0
20, 308340, Note_on_c, 12, 69, 127
20, 308400, Note_on_c, 12, 69, 0
20, 308400, Note_on_c, 12, 71, 127
20, 308430, Note_on_c, 12, 71, 0
20, 308430, Note_on_c, 12, 72, 127
20, 308460, Note_on_c, 12, 72, 0
20, 308460, Note_on_c, 12, 74, 127
20, 308520, Note_on_c, 12, 74, 0
20, 308520, Note_on_c, 12, 74, 127
20, 308550, Note_on_c, 12, 74, 0
20, 308550, Note_on_c, 12, 72, 127
20, 308580, Note_on_c, 12, 72, 0
20, 308580, Note_on_c, 12, 71, 127
20, 308640, Note_on_c, 12, 71, 0
20, 308640, Note_on_c, 12, 74, 127
20, 308700, Note_on_c, 12, 74, 0
20, 308700, Note_on_c, 12, 76, 127
20, 308730, Note_on_c, 12, 76, 0
20, 308730, Note_on_c, 12, 74, 127
20, 308760, Note_on_c, 12, 74, 0
20, 308760, Note_on_c, 12, 72, 127
20, 308790, Note_on_c, 12, 72, 0
20, 308790, Note_on_c, 12, 71, 127
20, 308820, Note_on_c, 12, 71, 0
20, 308820, Note_on_c, 12, 69, 127
20, 308880, Note_on_c, 12, 69, 0
20, 308880, Note_on_c, 12, 71, 127
20, 308910, Note_on_c, 12, 71, 0
20, 308910, Note_on_c, 12, 67, 127
20, 308940, Note_on_c, 12, 67, 0
20, 308940, Note_on_c, 12, 69, 127
20, 309000, Note_on_c, 12, 69, 0
20, 309000, Note_on_c, 12, 66, 127
20, 309060, Note_on_c, 12, 66, 0
20, 309060, Note_on_c, 12, 66, 127
20, 309120, Note_on_c, 12, 66, 0
20, 309120, Note_on_c, 12, 67, 127
20, 309150, Note_on_c, 12, 67, 0
20, 309150, Note_on_c, 12, 69, 127
20, 309180, Note_on_c, 12, 69, 0
20, 309180, Note_on_c, 12, 71, 127
20, 309240, Note_on_c, 12, 71, 0
20, 309240, Note_on_c, 12, 74, 127
20, 309270, Note_on_c, 12, 74, 0
20, 309270, Note_on_c, 12, 72, 127
20, 309300, Note_on_c, 12, 72, 0
20, 309300, Note_on_c, 12, 71, 127
20, 309360, Note_on_c, 12, 71, 0
20, 309360, Note_on_c, 12, 74, 127
20, 309420, Note_on_c, 12, 74, 0
20, 309420, Note_on_c, 12, 72, 127
20, 309450, Note_on_c, 12, 72, 0
20, 309450, Note_on_c, 12, 71, 127
20, 309480, Note_on_c, 12, 71, 0
20, 309480, Note_on_c, 12, 69, 127
20, 309510, Note_on_c, 12, 69, 0
20, 309510, Note_on_c, 12, 67, 127
20, 309540, Note_on_c, 12, 67, 0
20, 309540, Note_on_c, 12, 66, 127
20, 309600, Note_on_c, 12, 66, 0
20, 309600, Note_on_c, 12, 69, 127
20, 309630, Note_on_c, 12, 69, 0
20, 309630, Note_on_c, 12, 67, 127
20, 309660, Note_on_c, 12, 67, 0
20, 309660, Note_on_c, 12, 66, 127
20, 309720, Note_on_c, 12, 66, 0
20, 309720, Note_on_c, 12, 69, 127
20, 309780, Note_on_c, 12, 69, 0
20, 309780, Note_on_c, 12, 66, 127
20, 309840, Note_on_c, 12, 66, 0
20, 309840, Note_on_c, 12, 67, 127
20, 309870, Note_on_c, 12, 67, 0
20, 309870, Note_on_c, 12, 69, 127
20, 309900, Note_on_c, 12, 69, 0
20, 309900, Note_on_c, 12, 71, 127
20, 309960, Note_on_c, 12, 71, 0
20, 309960, Note_on_c, 12, 67, 127
20, 309990, Note_on_c, 12, 67, 0
20, 309990, Note_on_c, 12, 69, 127
20, 310020, Note_on_c, 12, 69, 0
20, 310020, Note_on_c, 12, 71, 127
20, 310080, Note_on_c, 12, 71, 0
20, 310080, Note_on_c, 12, 76, 127
20, 310140, Note_on_c, 12, 76, 0
20, 310140, Note_on_c, 12, 74, 127
20, 310170, Note_on_c, 12, 74, 0
20, 310170, Note_on_c, 12, 72, 127
20, 310200, Note_on_c, 12, 72, 0
20, 310200, Note_on_c, 12, 71, 127
20, 310230, Note_on_c, 12, 71, 0
20, 310230, Note_on_c, 12, 69, 127
20, 310260, Note_on_c, 12, 69, 0
20, 310260, Note_on_c, 12, 71, 127
20, 310320, Note_on_c, 12, 71, 0
20, 310320, Note_on_c, 12, 72, 127
20, 310350, Note_on_c, 12, 72, 0
20, 310350, Note_on_c, 12, 69, 127
20, 310380, Note_on_c, 12, 69, 0
20, 310380, Note_on_c, 12, 71, 127
20, 310500, Note_on_c, 12, 71, 0
20, 310560, Note_on_c, 12, 79, 127
20, 310619, Note_on_c, 12, 79, 0
20, 310620, Note_on_c, 12, 78, 127
20, 310679, Note_on_c, 12, 78, 0
20, 310680, Note_on_c, 12, 81, 127
20, 310709, Note_on_c, 12, 81, 0
20, 310710, Note_on_c, 12, 79, 127
20, 310739, Note_on_c, 12, 79, 0
20, 310740, Note_on_c, 12, 81, 127
20, 310799, Note_on_c, 12, 81, 0
20, 310800, Note_on_c, 12, 76, 127
20, 310859, Note_on_c, 12, 76, 0
20, 310860, Note_on_c, 12, 78, 127
20, 310889, Note_on_c, 12, 78, 0
20, 310890, Note_on_c, 12, 76, 127
20, 310919, Note_on_c, 12, 76, 0
20, 310920, Note_on_c, 12, 74, 127
20, 310949, Note_on_c, 12, 74, 0
20, 310950, Note_on_c, 12, 72, 127
20, 310979, Note_on_c, 12, 72, 0
20, 310980, Note_on_c, 12, 74, 127
20, 311039, Note_on_c, 12, 74, 0
20, 311040, Note_on_c, 12, 74, 127
20, 311069, Note_on_c, 12, 74, 0
20, 311070, Note_on_c, 12, 72, 127
20, 311099, Note_on_c, 12, 72, 0
20, 311100, Note_on_c, 12, 74, 127
20, 311159, Note_on_c, 12, 74, 0
20, 311160, Note_on_c, 12, 67, 127
20, 311219, Note_on_c, 12, 67, 0
20, 311220, Note_on_c, 12, 64, 127
20, 311279, Note_on_c, 12, 64, 0
20, 311280, Note_on_c, 12, 66, 127
20, 311309, Note_on_c, 12, 66, 0
20, 311310, Note_on_c, 12, 67, 127
20, 311339, Note_on_c, 12, 67, 0
20, 311340, Note_on_c, 12, 69, 127
20, 311399, Note_on_c, 12, 69, 0
20, 311400, Note_on_c, 12, 67, 127
20, 311429, Note_on_c, 12, 67, 0
20, 311430, Note_on_c, 12, 69, 127
20, 311459, Note_on_c, 12, 69, 0
20, 311460, Note_on_c, 12, 71, 127
20, 311489, Note_on_c, 12, 71, 0
20, 311490, Note_on_c, 12, 72, 127
20, 311519, Note_on_c, 12, 72, 0
20, 311520, Note_on_c, 12, 74, 127
20, 311579, Note_on_c, 12, 74, 0
20, 311580, Note_on_c, 12, 74, 127
20, 311609, Note_on_c, 12, 74, 0
20, 311610, Note_on_c, 12, 72, 127
20, 311639, Note_on_c, 12, 72, 0
20, 311640, Note_on_c, 12, 71, 127
20, 311669, Note_on_c, 12, 71, 0
20, 311670, Note_on_c, 12, 69, 127
20, 311699, Note_on_c, 12, 69, 0
20, 311700, Note_on_c, 12, 71, 127
20, 311759, Note_on_c, 12, 71, 0
20, 311760, Note_on_c, 12, 72, 127
20, 311789, Note_on_c, 12, 72, 0
20, 311790, Note_on_c, 12, 69, 127
20, 311819, Note_on_c, 12, 69, 0
20, 311820, Note_on_c, 12, 67, 127
20, 312059, Note_on_c, 12, 67, 0
20, 312059, End_track
21, 0, Start_track
21, 0, MIDI_port, 0
21, 0, Title_t, "Aeolus"
21, 70680, Control_c, 13, 0, 20
21, 70680, Program_c, 13, 67
21, 70740, Note_on_c, 13, 50, 100
21, 70800, Note_on_c, 13, 50, 0
21, 70800, Note_on_c, 13, 55, 100
21, 70860, Note_on_c, 13, 55, 0
21, 70890, Note_on_c, 13, 55, 100
21, 70920, Note_on_c, 13, 55, 0
21, 70920, Note_on_c, 13, 62, 100
21, 70980, Note_on_c, 13, 62, 0
21, 70980, Note_on_c, 13, 62, 100
21, 71040, Note_on_c, 13, 62, 0
21, 71040, Note_on_c, 13, 59, 100
21, 71100, Note_on_c, 13, 59, 0
21, 71100, Note_on_c, 13, 60, 100
21, 71160, Note_on_c, 13, 60, 0
21, 71160, Note_on_c, 13, 62, 100
21, 71220, Note_on_c, 13, 62, 0
21, 71220, Note_on_c, 13, 55, 100
21, 71280, Note_on_c, 13, 55, 0
21, 71280, Note_on_c, 13, 64, 100
21, 71340, Note_on_c, 13, 64, 0
21, 71370, Note_on_c, 13, 62, 100
21, 71400, Note_on_c, 13, 62, 0
21, 71400, Note_on_c, 13, 60, 100
21, 71460, Note_on_c, 13, 60, 0
21, 71460, Note_on_c, 13, 57, 100
21, 71520, Note_on_c, 13, 57, 0
21, 71520, Note_on_c, 13, 54, 100
21, 71580, Note_on_c, 13, 54, 0
21, 71580, Note_on_c, 13, 54, 100
21, 71640, Note_on_c, 13, 54, 0
21, 71640, Note_on_c, 13, 54, 100
21, 71700, Note_on_c, 13, 54, 0
21, 71700, Note_on_c, 13, 55, 100
21, 71760, Note_on_c, 13, 55, 0
21, 71760, Note_on_c, 13, 57, 100
21, 71820, Note_on_c, 13, 57, 0
21, 71820, Note_on_c, 13, 50, 100
21, 71880, Note_on_c, 13, 50, 0
21, 71910, Note_on_c, 13, 50, 100
21, 71940, Note_on_c, 13, 50, 0
21, 71940, Note_on_c, 13, 54, 100
21, 71970, Note_on_c, 13, 54, 0
21, 71970, Note_on_c, 13, 55, 100
21, 72000, Note_on_c, 13, 55, 0
21, 72000, Note_on_c, 13, 57, 100
21, 72060, Note_on_c, 13, 57, 0
21, 72060, Note_on_c, 13, 48, 100
21, 72120, Note_on_c, 13, 48, 0
21, 72120, Note_on_c, 13, 52, 100
21, 72180, Note_on_c, 13, 52, 0
21, 72180, Note_on_c, 13, 50, 100
21, 72240, Note_on_c, 13, 50, 0
21, 72240, Note_on_c, 13, 47, 100
21, 72360, Note_on_c, 13, 47, 0
21, 72390, Note_on_c, 13, 47, 100
21, 72420, Note_on_c, 13, 47, 0
21, 72420, Note_on_c, 13, 54, 100
21, 72450, Note_on_c, 13, 54, 0
21, 72450, Note_on_c, 13, 55, 100
21, 72480, Note_on_c, 13, 55, 0
21, 72480, Note_on_c, 13, 57, 100
21, 72540, Note_on_c, 13, 57, 0
21, 72540, Note_on_c, 13, 57, 100
21, 72600, Note_on_c, 13, 57, 0
21, 72600, Note_on_c, 13, 60, 100
21, 72660, Note_on_c, 13, 60, 0
21, 72660, Note_on_c, 13, 59, 100
21, 72720, Note_on_c, 13, 59, 0
21, 72720, Note_on_c, 13, 55, 100
21, 72840, Note_on_c, 13, 55, 0
21, 72900, Note_on_c, 13, 59, 100
21, 72960, Note_on_c, 13, 59, 0
21, 72960, Note_on_c, 13, 64, 100
21, 73020, Note_on_c, 13, 64, 0
21, 73020, Note_on_c, 13, 62, 100
21, 73080, Note_on_c, 13, 62, 0
21, 73080, Note_on_c, 13, 60, 100
21, 73140, Note_on_c, 13, 60, 0
21, 73140, Note_on_c, 13, 59, 100
21, 73200, Note_on_c, 13, 59, 0
21, 73200, Note_on_c, 13, 57, 100
21, 73260, Note_on_c, 13, 57, 0
21, 73260, Note_on_c, 13, 55, 100
21, 73320, Note_on_c, 13, 55, 0
21, 73500, Note_on_c, 13, 62, 100
21, 73560, Note_on_c, 13, 62, 0
21, 73560, Note_on_c, 13, 59, 100
21, 73620, Note_on_c, 13, 59, 0
21, 73620, Note_on_c, 13, 55, 100
21, 73680, Note_on_c, 13, 55, 0
21, 73680, Note_on_c, 13, 64, 100
21, 73800, Note_on_c, 13, 64, 0
21, 73860, Note_on_c, 13, 45, 100
21, 73920, Note_on_c, 13, 45, 0
21, 73920, Note_on_c, 13, 49, 100
21, 73980, Note_on_c, 13, 49, 0
21, 73980, Note_on_c, 13, 52, 100
21, 74040, Note_on_c, 13, 52, 0
21, 74040, Note_on_c, 13, 57, 100
21, 74100, Note_on_c, 13, 57, 0
21, 74100, Note_on_c, 13, 61, 100
21, 74160, Note_on_c, 13, 61, 0
21, 74160, Note_on_c, 13, 62, 100
21, 74220, Note_on_c, 13, 62, 0
21, 74220, Note_on_c, 13, 62, 100
21, 74280, Note_on_c, 13, 62, 0
21, 74340, Note_on_c, 13, 57, 100
21, 74400, Note_on_c, 13, 57, 0
21, 74400, Note_on_c, 13, 57, 100
21, 74460, Note_on_c, 13, 57, 0
21, 74460, Note_on_c, 13, 54, 100
21, 74520, Note_on_c, 13, 54, 0
21, 74520, Note_on_c, 13, 50, 100
21, 74550, Note_on_c, 13, 50, 0
21, 74550, Note_on_c, 13, 50, 100
21, 74580, Note_on_c, 13, 50, 0
21, 74580, Note_on_c, 13, 54, 100
21, 74610, Note_on_c, 13, 54, 0
21, 74610, Note_on_c, 13, 47, 100
21, 74640, Note_on_c, 13, 47, 0
21, 74640, Note_on_c, 13, 46, 100
21, 74700, Note_on_c, 13, 46, 0
21, 74730, Note_on_c, 13, 49, 100
21, 74760, Note_on_c, 13, 49, 0
21, 74760, Note_on_c, 13, 54, 100
21, 74790, Note_on_c, 13, 54, 0
21, 74790, Note_on_c, 13, 56, 100
21, 74820, Note_on_c, 13, 56, 0
21, 74820, Note_on_c, 13, 58, 100
21, 74850, Note_on_c, 13, 58, 0
21, 74850, Note_on_c, 13, 54, 100
21, 74880, Note_on_c, 13, 54, 0
21, 74880, Note_on_c, 13, 62, 100
21, 74940, Note_on_c, 13, 62, 0
21, 74940, Note_on_c, 13, 62, 100
21, 75000, Note_on_c, 13, 62, 0
21, 75300, Note_on_c, 13, 59, 100
21, 75360, Note_on_c, 13, 59, 0
21, 75360, Note_on_c, 13, 59, 100
21, 75420, Note_on_c, 13, 59, 0
21, 75420, Note_on_c, 13, 55, 100
21, 75480, Note_on_c, 13, 55, 0
21, 75480, Note_on_c, 13, 64, 100
21, 75540, Note_on_c, 13, 64, 0
21, 75540, Note_on_c, 13, 59, 100
21, 75600, Note_on_c, 13, 59, 0
21, 75600, Note_on_c, 13, 61, 90
21, 75719, Note_on_c, 13, 61, 0
21, 75780, Note_on_c, 13, 52, 100
21, 75840, Note_on_c, 13, 52, 0
21, 75840, Note_on_c, 13, 49, 100
21, 75900, Note_on_c, 13, 49, 0
21, 75900, Note_on_c, 13, 49, 100
21, 75960, Note_on_c, 13, 49, 0
21, 75960, Note_on_c, 13, 58, 100
21, 76020, Note_on_c, 13, 58, 0
21, 76020, Note_on_c, 13, 57, 100
21, 76080, Note_on_c, 13, 57, 0
21, 76080, Note_on_c, 13, 60, 90
21, 76199, Note_on_c, 13, 60, 0
21, 76260, Note_on_c, 13, 50, 100
21, 76320, Note_on_c, 13, 50, 0
21, 76320, Note_on_c, 13, 59, 100
21, 76380, Note_on_c, 13, 59, 0
21, 76380, Note_on_c, 13, 59, 100
21, 76440, Note_on_c, 13, 59, 0
21, 76440, Note_on_c, 13, 61, 100
21, 76500, Note_on_c, 13, 61, 0
21, 76500, Note_on_c, 13, 62, 100
21, 76560, Note_on_c, 13, 62, 0
21, 76560, Note_on_c, 13, 62, 100
21, 76620, Note_on_c, 13, 62, 0
21, 76620, Note_on_c, 13, 57, 100
21, 76680, Note_on_c, 13, 57, 0
21, 77100, Note_on_c, 13, 50, 100
21, 77160, Note_on_c, 13, 50, 0
21, 77160, Note_on_c, 13, 54, 100
21, 77220, Note_on_c, 13, 54, 0
21, 77220, Note_on_c, 13, 57, 100
21, 77280, Note_on_c, 13, 57, 0
21, 77280, Note_on_c, 13, 62, 100
21, 77400, Note_on_c, 13, 62, 0
21, 77460, Note_on_c, 13, 62, 100
21, 77520, Note_on_c, 13, 62, 0
21, 77520, Note_on_c, 13, 64, 100
21, 77580, Note_on_c, 13, 64, 0
21, 77580, Note_on_c, 13, 59, 100
21, 77640, Note_on_c, 13, 59, 0
21, 77640, Note_on_c, 13, 56, 100
21, 77700, Note_on_c, 13, 56, 0
21, 77700, Note_on_c, 13, 52, 100
21, 77760, Note_on_c, 13, 52, 0
21, 77760, Note_on_c, 13, 61, 100
21, 77820, Note_on_c, 13, 61, 0
21, 77820, Note_on_c, 13, 61, 100
21, 77880, Note_on_c, 13, 61, 0
21, 77910, Note_on_c, 13, 57, 100
21, 77940, Note_on_c, 13, 57, 0
21, 77940, Note_on_c, 13, 61, 100
21, 77970, Note_on_c, 13, 61, 0
21, 77970, Note_on_c, 13, 64, 100
21, 78000, Note_on_c, 13, 64, 0
21, 78000, Note_on_c, 13, 66, 100
21, 78060, Note_on_c, 13, 66, 0
21, 78060, Note_on_c, 13, 54, 100
21, 78120, Note_on_c, 13, 54, 0
21, 78120, Note_on_c, 13, 62, 100
21, 78180, Note_on_c, 13, 62, 0
21, 78180, Note_on_c, 13, 61, 100
21, 78240, Note_on_c, 13, 61, 0
21, 78240, Note_on_c, 13, 57, 100
21, 78300, Note_on_c, 13, 57, 0
21, 78300, Note_on_c, 13, 57, 100
21, 78360, Note_on_c, 13, 57, 0
21, 78780, Note_on_c, 13, 52, 100
21, 78840, Note_on_c, 13, 52, 0
21, 78840, Note_on_c, 13, 57, 100
21, 78900, Note_on_c, 13, 57, 0
21, 78900, Note_on_c, 13, 59, 100
21, 78960, Note_on_c, 13, 59, 0
21, 78960, Note_on_c, 13, 61, 100
21, 79080, Note_on_c, 13, 61, 0
21, 79110, Note_on_c, 13, 64, 100
21, 79140, Note_on_c, 13, 64, 0
21, 79140, Note_on_c, 13, 64, 100
21, 79170, Note_on_c, 13, 64, 0
21, 79170, Note_on_c, 13, 61, 100
21, 79200, Note_on_c, 13, 61, 0
21, 79200, Note_on_c, 13, 58, 100
21, 79260, Note_on_c, 13, 58, 0
21, 79260, Note_on_c, 13, 52, 100
21, 79320, Note_on_c, 13, 52, 0
21, 79320, Note_on_c, 13, 55, 100
21, 79380, Note_on_c, 13, 55, 0
21, 79380, Note_on_c, 13, 54, 100
21, 79440, Note_on_c, 13, 54, 0
21, 79440, Note_on_c, 13, 51, 100
21, 79500, Note_on_c, 13, 51, 0
21, 79500, Note_on_c, 13, 51, 100
21, 79560, Note_on_c, 13, 51, 0
21, 79590, Note_on_c, 13, 54, 100
21, 79620, Note_on_c, 13, 54, 0
21, 79620, Note_on_c, 13, 59, 100
21, 79650, Note_on_c, 13, 59, 0
21, 79650, Note_on_c, 13, 61, 100
21, 79680, Note_on_c, 13, 61, 0
21, 79680, Note_on_c, 13, 63, 100
21, 79740, Note_on_c, 13, 63, 0
21, 79740, Note_on_c, 13, 63, 100
21, 79800, Note_on_c, 13, 63, 0
21, 79800, Note_on_c, 13, 66, 100
21, 79860, Note_on_c, 13, 66, 0
21, 79860, Note_on_c, 13, 59, 100
21, 79920, Note_on_c, 13, 59, 0
21, 79920, Note_on_c, 13, 64, 100
21, 80040, Note_on_c, 13, 64, 0
21, 80070, Note_on_c, 13, 59, 100
21, 80100, Note_on_c, 13, 59, 0
21, 80100, Note_on_c, 13, 57, 100
21, 80130, Note_on_c, 13, 57, 0
21, 80130, Note_on_c, 13, 56, 100
21, 80160, Note_on_c, 13, 56, 0
21, 80160, Note_on_c, 13, 65, 100
21, 80220, Note_on_c, 13, 65, 0
21, 80220, Note_on_c, 13, 59, 100
21, 80280, Note_on_c, 13, 59, 0
21, 80280, Note_on_c, 13, 59, 100
21, 80340, Note_on_c, 13, 59, 0
21, 80340, Note_on_c, 13, 61, 100
21, 80400, Note_on_c, 13, 61, 0
21, 80400, Note_on_c, 13, 62, 100
21, 80460, Note_on_c, 13, 62, 0
21, 80460, Note_on_c, 13, 62, 100
21, 80520, Note_on_c, 13, 62, 0
21, 80580, Note_on_c, 13, 62, 100
21, 80640, Note_on_c, 13, 62, 0
21, 80640, Note_on_c, 13, 61, 100
21, 80700, Note_on_c, 13, 61, 0
21, 80700, Note_on_c, 13, 56, 100
21, 80760, Note_on_c, 13, 56, 0
21, 80760, Note_on_c, 13, 53, 100
21, 80820, Note_on_c, 13, 53, 0
21, 80820, Note_on_c, 13, 56, 100
21, 80880, Note_on_c, 13, 56, 0
21, 80880, Note_on_c, 13, 57, 100
21, 81000, Note_on_c, 13, 57, 0
21, 81060, Note_on_c, 13, 57, 100
21, 81120, Note_on_c, 13, 57, 0
21, 81120, Note_on_c, 13, 62, 100
21, 81180, Note_on_c, 13, 62, 0
21, 81180, Note_on_c, 13, 55, 100
21, 81240, Note_on_c, 13, 55, 0
21, 81300, Note_on_c, 13, 53, 100
21, 81330, Note_on_c, 13, 53, 0
21, 81330, Note_on_c, 13, 54, 100
21, 81360, Note_on_c, 13, 54, 0
21, 81360, Note_on_c, 13, 54, 100
21, 81420, Note_on_c, 13, 54, 0
21, 81420, Note_on_c, 13, 49, 100
21, 81480, Note_on_c, 13, 49, 0
21, 81480, Program_c, 13, 0
21, 87270, Control_c, 13, 0, 20
21, 87270, Program_c, 13, 67
21, 87300, Note_on_c, 13, 52, 90
21, 87359, Note_on_c, 13, 52, 0
21, 87360, Note_on_c, 13, 57, 90
21, 87419, Note_on_c, 13, 57, 0
21, 87420, Note_on_c, 13, 57, 90
21, 87479, Note_on_c, 13, 57, 0
21, 87480, Note_on_c, 13, 57, 90
21, 87539, Note_on_c, 13, 57, 0
21, 87540, Note_on_c, 13, 57, 90
21, 87599, Note_on_c, 13, 57, 0
21, 87600, Note_on_c, 13, 57, 90
21, 87659, Note_on_c, 13, 57, 0
21, 87660, Note_on_c, 13, 52, 90
21, 87689, Note_on_c, 13, 52, 0
21, 87690, Note_on_c, 13, 57, 90
21, 87719, Note_on_c, 13, 57, 0
21, 87720, Note_on_c, 13, 61, 90
21, 87749, Note_on_c, 13, 61, 0
21, 87750, Note_on_c, 13, 59, 90
21, 87779, Note_on_c, 13, 59, 0
21, 87780, Note_on_c, 13, 57, 90
21, 87809, Note_on_c, 13, 57, 0
21, 87810, Note_on_c, 13, 56, 90
21, 87839, Note_on_c, 13, 56, 0
21, 87840, Note_on_c, 13, 57, 90
21, 87899, Note_on_c, 13, 57, 0
21, 87900, Note_on_c, 13, 52, 90
21, 87929, Note_on_c, 13, 52, 0
21, 87930, Note_on_c, 13, 57, 90
21, 87959, Note_on_c, 13, 57, 0
21, 87960, Note_on_c, 13, 62, 90
21, 87989, Note_on_c, 13, 62, 0
21, 87990, Note_on_c, 13, 61, 90
21, 88019, Note_on_c, 13, 61, 0
21, 88020, Note_on_c, 13, 59, 90
21, 88049, Note_on_c, 13, 59, 0
21, 88050, Note_on_c, 13, 57, 90
21, 88079, Note_on_c, 13, 57, 0
21, 88080, Note_on_c, 13, 59, 90
21, 88139, Note_on_c, 13, 59, 0
21, 88140, Note_on_c, 13, 52, 90
21, 88169, Note_on_c, 13, 52, 0
21, 88170, Note_on_c, 13, 59, 90
21, 88199, Note_on_c, 13, 59, 0
21, 88200, Note_on_c, 13, 64, 90
21, 88229, Note_on_c, 13, 64, 0
21, 88230, Note_on_c, 13, 62, 90
21, 88259, Note_on_c, 13, 62, 0
21, 88260, Note_on_c, 13, 61, 90
21, 88289, Note_on_c, 13, 61, 0
21, 88290, Note_on_c, 13, 59, 90
21, 88319, Note_on_c, 13, 59, 0
21, 88320, Note_on_c, 13, 61, 90
21, 88379, Note_on_c, 13, 61, 0
21, 88380, Note_on_c, 13, 59, 90
21, 88409, Note_on_c, 13, 59, 0
21, 88410, Note_on_c, 13, 61, 90
21, 88439, Note_on_c, 13, 61, 0
21, 88440, Note_on_c, 13, 57, 90
21, 88499, Note_on_c, 13, 57, 0
21, 89700, Note_on_c, 13, 57, 90
21, 89729, Note_on_c, 13, 57, 0
21, 89730, Note_on_c, 13, 59, 90
21, 89759, Note_on_c, 13, 59, 0
21, 89760, Note_on_c, 13, 61, 90
21, 89820, Note_on_c, 13, 61, 0
21, 89820, Note_on_c, 13, 62, 90
21, 89880, Note_on_c, 13, 62, 0
21, 89880, Note_on_c, 13, 61, 90
21, 89940, Note_on_c, 13, 61, 0
21, 89940, Note_on_c, 13, 59, 90
21, 90000, Note_on_c, 13, 59, 0
21, 90000, Note_on_c, 13, 61, 90
21, 90060, Note_on_c, 13, 61, 0
21, 90060, Note_on_c, 13, 59, 90
21, 90089, Note_on_c, 13, 59, 0
21, 90090, Note_on_c, 13, 61, 90
21, 90119, Note_on_c, 13, 61, 0
21, 90120, Note_on_c, 13, 57, 90
21, 90180, Note_on_c, 13, 57, 0
21, 90180, Note_on_c, 13, 59, 90
21, 90240, Note_on_c, 13, 59, 0
21, 90240, Note_on_c, 13, 61, 90
21, 90300, Note_on_c, 13, 61, 0
21, 90300, Note_on_c, 13, 59, 90
21, 90329, Note_on_c, 13, 59, 0
21, 90330, Note_on_c, 13, 61, 90
21, 90359, Note_on_c, 13, 61, 0
21, 90360, Note_on_c, 13, 57, 90
21, 90420, Note_on_c, 13, 57, 0
21, 90420, Note_on_c, 13, 61, 90
21, 90480, Note_on_c, 13, 61, 0
21, 90480, Note_on_c, 13, 59, 90
21, 90540, Note_on_c, 13, 59, 0
21, 90540, Note_on_c, 13, 57, 90
21, 90569, Note_on_c, 13, 57, 0
21, 90570, Note_on_c, 13, 59, 90
21, 90599, Note_on_c, 13, 59, 0
21, 90600, Note_on_c, 13, 56, 90
21, 90660, Note_on_c, 13, 56, 0
21, 90660, Note_on_c, 13, 64, 90
21, 90720, Note_on_c, 13, 64, 0
21, 90720, Note_on_c, 13, 61, 90
21, 90780, Note_on_c, 13, 61, 0
21, 90780, Note_on_c, 13, 59, 90
21, 90809, Note_on_c, 13, 59, 0
21, 90810, Note_on_c, 13, 61, 90
21, 90839, Note_on_c, 13, 61, 0
21, 90840, Note_on_c, 13, 57, 90
21, 90900, Note_on_c, 13, 57, 0
21, 90900, Note_on_c, 13, 61, 90
21, 90960, Note_on_c, 13, 61, 0
21, 90960, Note_on_c, 13, 59, 90
21, 91020, Note_on_c, 13, 59, 0
21, 91020, Note_on_c, 13, 59, 90
21, 91080, Note_on_c, 13, 59, 0
21, 91080, Note_on_c, 13, 59, 90
21, 91140, Note_on_c, 13, 59, 0
21, 91140, Note_on_c, 13, 59, 90
21, 91200, Note_on_c, 13, 59, 0
21, 91200, Note_on_c, 13, 59, 90
21, 91229, Note_on_c, 13, 59, 0
21, 91230, Note_on_c, 13, 57, 90
21, 91259, Note_on_c, 13, 57, 0
21, 91260, Note_on_c, 13, 56, 90
21, 91289, Note_on_c, 13, 56, 0
21, 91290, Note_on_c, 13, 54, 90
21, 91319, Note_on_c, 13, 54, 0
21, 91320, Note_on_c, 13, 52, 90
21, 91349, Note_on_c, 13, 52, 0
21, 91350, Note_on_c, 13, 56, 90
21, 91379, Note_on_c, 13, 56, 0
21, 91380, Note_on_c, 13, 61, 90
21, 91409, Note_on_c, 13, 61, 0
21, 91410, Note_on_c, 13, 59, 90
21, 91439, Note_on_c, 13, 59, 0
21, 91440, Note_on_c, 13, 57, 90
21, 91469, Note_on_c, 13, 57, 0
21, 91470, Note_on_c, 13, 56, 90
21, 91499, Note_on_c, 13, 56, 0
21, 91500, Note_on_c, 13, 54, 90
21, 91529, Note_on_c, 13, 54, 0
21, 91530, Note_on_c, 13, 52, 90
21, 91559, Note_on_c, 13, 52, 0
21, 91560, Note_on_c, 13, 51, 90
21, 91589, Note_on_c, 13, 51, 0
21, 91590, Note_on_c, 13, 54, 90
21, 91619, Note_on_c, 13, 54, 0
21, 91620, Note_on_c, 13, 59, 90
21, 91649, Note_on_c, 13, 59, 0
21, 91650, Note_on_c, 13, 57, 90
21, 91679, Note_on_c, 13, 57, 0
21, 91680, Note_on_c, 13, 56, 90
21, 91709, Note_on_c, 13, 56, 0
21, 91710, Note_on_c, 13, 54, 90
21, 91739, Note_on_c, 13, 54, 0
21, 91740, Note_on_c, 13, 56, 90
21, 91769, Note_on_c, 13, 56, 0
21, 91770, Note_on_c, 13, 52, 90
21, 91799, Note_on_c, 13, 52, 0
21, 91800, Note_on_c, 13, 59, 90
21, 91859, Note_on_c, 13, 59, 0
21, 91860, Note_on_c, 13, 47, 90
21, 91919, Note_on_c, 13, 47, 0
21, 91920, Note_on_c, 13, 52, 90
21, 92039, Note_on_c, 13, 52, 0
21, 92100, Note_on_c, 13, 59, 90
21, 92159, Note_on_c, 13, 59, 0
21, 92160, Note_on_c, 13, 64, 90
21, 92219, Note_on_c, 13, 64, 0
21, 92220, Note_on_c, 13, 64, 90
21, 92279, Note_on_c, 13, 64, 0
21, 92280, Note_on_c, 13, 64, 90
21, 92339, Note_on_c, 13, 64, 0
21, 92340, Note_on_c, 13, 64, 90
21, 92399, Note_on_c, 13, 64, 0
21, 92400, Note_on_c, 13, 64, 90
21, 92429, Note_on_c, 13, 64, 0
21, 92430, Note_on_c, 13, 62, 90
21, 92459, Note_on_c, 13, 62, 0
21, 92460, Note_on_c, 13, 61, 90
21, 92489, Note_on_c, 13, 61, 0
21, 92490, Note_on_c, 13, 59, 90
21, 92519, Note_on_c, 13, 59, 0
21, 92520, Note_on_c, 13, 64, 90
21, 92549, Note_on_c, 13, 64, 0
21, 92550, Note_on_c, 13, 62, 90
21, 92579, Note_on_c, 13, 62, 0
21, 92580, Note_on_c, 13, 61, 90
21, 92609, Note_on_c, 13, 61, 0
21, 92610, Note_on_c, 13, 59, 90
21, 92639, Note_on_c, 13, 59, 0
21, 92640, Note_on_c, 13, 61, 90
21, 92669, Note_on_c, 13, 61, 0
21, 92670, Note_on_c, 13, 59, 90
21, 92699, Note_on_c, 13, 59, 0
21, 92700, Note_on_c, 13, 57, 90
21, 92729, Note_on_c, 13, 57, 0
21, 92730, Note_on_c, 13, 56, 90
21, 92759, Note_on_c, 13, 56, 0
21, 92760, Note_on_c, 13, 61, 90
21, 92789, Note_on_c, 13, 61, 0
21, 92790, Note_on_c, 13, 59, 90
21, 92819, Note_on_c, 13, 59, 0
21, 92820, Note_on_c, 13, 57, 90
21, 92849, Note_on_c, 13, 57, 0
21, 92850, Note_on_c, 13, 56, 90
21, 92879, Note_on_c, 13, 56, 0
21, 92880, Note_on_c, 13, 57, 90
21, 92939, Note_on_c, 13, 57, 0
21, 92940, Note_on_c, 13, 56, 90
21, 92969, Note_on_c, 13, 56, 0
21, 92970, Note_on_c, 13, 57, 90
21, 92999, Note_on_c, 13, 57, 0
21, 93000, Note_on_c, 13, 54, 90
21, 93059, Note_on_c, 13, 54, 0
21, 93060, Note_on_c, 13, 54, 90
21, 93119, Note_on_c, 13, 54, 0
21, 93120, Note_on_c, 13, 62, 90
21, 93179, Note_on_c, 13, 62, 0
21, 93180, Note_on_c, 13, 64, 90
21, 93239, Note_on_c, 13, 64, 0
21, 93240, Note_on_c, 13, 62, 90
21, 93299, Note_on_c, 13, 62, 0
21, 93300, Note_on_c, 13, 61, 90
21, 93359, Note_on_c, 13, 61, 0
21, 93360, Note_on_c, 13, 62, 90
21, 93389, Note_on_c, 13, 62, 0
21, 93390, Note_on_c, 13, 61, 90
21, 93419, Note_on_c, 13, 61, 0
21, 93420, Note_on_c, 13, 59, 90
21, 93449, Note_on_c, 13, 59, 0
21, 93450, Note_on_c, 13, 57, 90
21, 93479, Note_on_c, 13, 57, 0
21, 93480, Note_on_c, 13, 62, 90
21, 93509, Note_on_c, 13, 62, 0
21, 93510, Note_on_c, 13, 61, 90
21, 93539, Note_on_c, 13, 61, 0
21, 93540, Note_on_c, 13, 59, 90
21, 93569, Note_on_c, 13, 59, 0
21, 93570, Note_on_c, 13, 57, 90
21, 93599, Note_on_c, 13, 57, 0
21, 93600, Note_on_c, 13, 59, 90
21, 93629, Note_on_c, 13, 59, 0
21, 93630, Note_on_c, 13, 57, 90
21, 93659, Note_on_c, 13, 57, 0
21, 93660, Note_on_c, 13, 56, 90
21, 93689, Note_on_c, 13, 56, 0
21, 93690, Note_on_c, 13, 54, 90
21, 93719, Note_on_c, 13, 54, 0
21, 93720, Note_on_c, 13, 59, 90
21, 93749, Note_on_c, 13, 59, 0
21, 93750, Note_on_c, 13, 57, 90
21, 93779, Note_on_c, 13, 57, 0
21, 93780, Note_on_c, 13, 56, 90
21, 93809, Note_on_c, 13, 56, 0
21, 93810, Note_on_c, 13, 54, 90
21, 93839, Note_on_c, 13, 54, 0
21, 93840, Note_on_c, 13, 56, 90
21, 93899, Note_on_c, 13, 56, 0
21, 93900, Note_on_c, 13, 54, 90
21, 93929, Note_on_c, 13, 54, 0
21, 93930, Note_on_c, 13, 56, 90
21, 93959, Note_on_c, 13, 56, 0
21, 93960, Note_on_c, 13, 52, 90
21, 94019, Note_on_c, 13, 52, 0
21, 94020, Note_on_c, 13, 52, 90
21, 94079, Note_on_c, 13, 52, 0
21, 94080, Note_on_c, 13, 57, 90
21, 94139, Note_on_c, 13, 57, 0
21, 94140, Note_on_c, 13, 57, 90
21, 94199, Note_on_c, 13, 57, 0
21, 94200, Note_on_c, 13, 57, 90
21, 94259, Note_on_c, 13, 57, 0
21, 94260, Note_on_c, 13, 57, 90
21, 94319, Note_on_c, 13, 57, 0
21, 94320, Note_on_c, 13, 57, 90
21, 94379, Note_on_c, 13, 57, 0
21, 94380, Note_on_c, 13, 52, 90
21, 94409, Note_on_c, 13, 52, 0
21, 94410, Note_on_c, 13, 57, 90
21, 94439, Note_on_c, 13, 57, 0
21, 94440, Note_on_c, 13, 61, 90
21, 94469, Note_on_c, 13, 61, 0
21, 94470, Note_on_c, 13, 59, 90
21, 94499, Note_on_c, 13, 59, 0
21, 94500, Note_on_c, 13, 57, 90
21, 94529, Note_on_c, 13, 57, 0
21, 94530, Note_on_c, 13, 56, 90
21, 94559, Note_on_c, 13, 56, 0
21, 94560, Note_on_c, 13, 57, 90
21, 94619, Note_on_c, 13, 57, 0
21, 94620, Note_on_c, 13, 52, 90
21, 94649, Note_on_c, 13, 52, 0
21, 94650, Note_on_c, 13, 57, 90
21, 94679, Note_on_c, 13, 57, 0
21, 94680, Note_on_c, 13, 62, 90
21, 94709, Note_on_c, 13, 62, 0
21, 94710, Note_on_c, 13, 61, 90
21, 94739, Note_on_c, 13, 61, 0
21, 94740, Note_on_c, 13, 59, 90
21, 94769, Note_on_c, 13, 59, 0
21, 94770, Note_on_c, 13, 57, 90
21, 94799, Note_on_c, 13, 57, 0
21, 94800, Note_on_c, 13, 59, 90
21, 94859, Note_on_c, 13, 59, 0
21, 94860, Note_on_c, 13, 52, 90
21, 94889, Note_on_c, 13, 52, 0
21, 94890, Note_on_c, 13, 59, 90
21, 94919, Note_on_c, 13, 59, 0
21, 94920, Note_on_c, 13, 64, 90
21, 94949, Note_on_c, 13, 64, 0
21, 94950, Note_on_c, 13, 62, 90
21, 94979, Note_on_c, 13, 62, 0
21, 94980, Note_on_c, 13, 61, 90
21, 95009, Note_on_c, 13, 61, 0
21, 95010, Note_on_c, 13, 59, 90
21, 95039, Note_on_c, 13, 59, 0
21, 95040, Note_on_c, 13, 61, 90
21, 95099, Note_on_c, 13, 61, 0
21, 95100, Note_on_c, 13, 59, 90
21, 95129, Note_on_c, 13, 59, 0
21, 95130, Note_on_c, 13, 61, 90
21, 95159, Note_on_c, 13, 61, 0
21, 95160, Note_on_c, 13, 57, 90
21, 95219, Note_on_c, 13, 57, 0
21, 95220, Note_on_c, 13, 61, 90
21, 95279, Note_on_c, 13, 61, 0
21, 95280, Note_on_c, 13, 59, 90
21, 95339, Note_on_c, 13, 59, 0
21, 95340, Note_on_c, 13, 64, 90
21, 95369, Note_on_c, 13, 64, 0
21, 95370, Note_on_c, 13, 62, 90
21, 95399, Note_on_c, 13, 62, 0
21, 95400, Note_on_c, 13, 61, 90
21, 95429, Note_on_c, 13, 61, 0
21, 95430, Note_on_c, 13, 59, 90
21, 95459, Note_on_c, 13, 59, 0
21, 95460, Note_on_c, 13, 57, 90
21, 95489, Note_on_c, 13, 57, 0
21, 95490, Note_on_c, 13, 56, 90
21, 95519, Note_on_c, 13, 56, 0
21, 95520, Note_on_c, 13, 57, 90
21, 95579, Note_on_c, 13, 57, 0
21, 95580, Note_on_c, 13, 54, 90
21, 95639, Note_on_c, 13, 54, 0
21, 95640, Note_on_c, 13, 57, 90
21, 95699, Note_on_c, 13, 57, 0
21, 95700, Note_on_c, 13, 57, 90
21, 95759, Note_on_c, 13, 57, 0
21, 95760, Note_on_c, 13, 57, 90
21, 95789, Note_on_c, 13, 57, 0
21, 95790, Note_on_c, 13, 52, 90
21, 95819, Note_on_c, 13, 52, 0
21, 95820, Note_on_c, 13, 54, 90
21, 95849, Note_on_c, 13, 54, 0
21, 95850, Note_on_c, 13, 56, 90
21, 95879, Note_on_c, 13, 56, 0
21, 95880, Note_on_c, 13, 57, 90
21, 95909, Note_on_c, 13, 57, 0
21, 95910, Note_on_c, 13, 59, 90
21, 95939, Note_on_c, 13, 59, 0
21, 95940, Note_on_c, 13, 61, 90
21, 95969, Note_on_c, 13, 61, 0
21, 95970, Note_on_c, 13, 59, 90
21, 95999, Note_on_c, 13, 59, 0
21, 96000, Note_on_c, 13, 57, 90
21, 96029, Note_on_c, 13, 57, 0
21, 96030, Note_on_c, 13, 56, 90
21, 96059, Note_on_c, 13, 56, 0
21, 96060, Note_on_c, 13, 54, 90
21, 96089, Note_on_c, 13, 54, 0
21, 96090, Note_on_c, 13, 52, 90
21, 96119, Note_on_c, 13, 52, 0
21, 96120, Note_on_c, 13, 54, 90
21, 96149, Note_on_c, 13, 54, 0
21, 96150, Note_on_c, 13, 52, 90
21, 96179, Note_on_c, 13, 52, 0
21, 96180, Note_on_c, 13, 51, 90
21, 96209, Note_on_c, 13, 51, 0
21, 96210, Note_on_c, 13, 49, 90
21, 96239, Note_on_c, 13, 49, 0
21, 96240, Note_on_c, 13, 51, 90
21, 96269, Note_on_c, 13, 51, 0
21, 96270, Note_on_c, 13, 47, 90
21, 96299, Note_on_c, 13, 47, 0
21, 96300, Note_on_c, 13, 49, 90
21, 96329, Note_on_c, 13, 49, 0
21, 96330, Note_on_c, 13, 51, 90
21, 96359, Note_on_c, 13, 51, 0
21, 96360, Note_on_c, 13, 52, 90
21, 96389, Note_on_c, 13, 52, 0
21, 96390, Note_on_c, 13, 54, 90
21, 96419, Note_on_c, 13, 54, 0
21, 96420, Note_on_c, 13, 56, 90
21, 96449, Note_on_c, 13, 56, 0
21, 96450, Note_on_c, 13, 57, 90
21, 96479, Note_on_c, 13, 57, 0
21, 96480, Note_on_c, 13, 59, 90
21, 96539, Note_on_c, 13, 59, 0
21, 96540, Note_on_c, 13, 57, 90
21, 96569, Note_on_c, 13, 57, 0
21, 96570, Note_on_c, 13, 56, 90
21, 96599, Note_on_c, 13, 56, 0
21, 96600, Note_on_c, 13, 57, 90
21, 96659, Note_on_c, 13, 57, 0
21, 96660, Note_on_c, 13, 54, 90
21, 96719, Note_on_c, 13, 54, 0
21, 96720, Note_on_c, 13, 52, 90
21, 96839, Note_on_c, 13, 52, 0
21, 98820, Note_on_c, 13, 52, 90
21, 98879, Note_on_c, 13, 52, 0
21, 98880, Note_on_c, 13, 62, 90
21, 98939, Note_on_c, 13, 62, 0
21, 98940, Note_on_c, 13, 62, 90
21, 98999, Note_on_c, 13, 62, 0
21, 99000, Note_on_c, 13, 62, 90
21, 99059, Note_on_c, 13, 62, 0
21, 99060, Note_on_c, 13, 62, 90
21, 99119, Note_on_c, 13, 62, 0
21, 99120, Note_on_c, 13, 62, 90
21, 99179, Note_on_c, 13, 62, 0
21, 99180, Note_on_c, 13, 61, 90
21, 99209, Note_on_c, 13, 61, 0
21, 99210, Note_on_c, 13, 59, 90
21, 99239, Note_on_c, 13, 59, 0
21, 99240, Note_on_c, 13, 61, 90
21, 99299, Note_on_c, 13, 61, 0
21, 99300, Note_on_c, 13, 56, 90
21, 99359, Note_on_c, 13, 56, 0
21, 99360, Note_on_c, 13, 57, 90
21, 99960, Note_on_c, 13, 57, 0
21, 100020, Note_on_c, 13, 54, 90
21, 100079, Note_on_c, 13, 54, 0
21, 100080, Note_on_c, 13, 64, 90
21, 100139, Note_on_c, 13, 64, 0
21, 100140, Note_on_c, 13, 64, 90
21, 100199, Note_on_c, 13, 64, 0
21, 100200, Note_on_c, 13, 64, 90
21, 100259, Note_on_c, 13, 64, 0
21, 100260, Note_on_c, 13, 64, 90
21, 100319, Note_on_c, 13, 64, 0
21, 100320, Note_on_c, 13, 64, 90
21, 100349, Note_on_c, 13, 64, 0
21, 100350, Note_on_c, 13, 62, 90
21, 100379, Note_on_c, 13, 62, 0
21, 100380, Note_on_c, 13, 61, 90
21, 100409, Note_on_c, 13, 61, 0
21, 100410, Note_on_c, 13, 59, 90
21, 100439, Note_on_c, 13, 59, 0
21, 100440, Note_on_c, 13, 61, 90
21, 100499, Note_on_c, 13, 61, 0
21, 100500, Note_on_c, 13, 54, 90
21, 100559, Note_on_c, 13, 54, 0
21, 100560, Note_on_c, 13, 53, 90
21, 100679, Note_on_c, 13, 53, 0
21, 100740, Note_on_c, 13, 49, 90
21, 100799, Note_on_c, 13, 49, 0
21, 100800, Note_on_c, 13, 54, 90
21, 100859, Note_on_c, 13, 54, 0
21, 100860, Note_on_c, 13, 54, 90
21, 100919, Note_on_c, 13, 54, 0
21, 100920, Note_on_c, 13, 66, 90
21, 100979, Note_on_c, 13, 66, 0
21, 100980, Note_on_c, 13, 54, 90
21, 101039, Note_on_c, 13, 54, 0
21, 101040, Note_on_c, 13, 54, 90
21, 101099, Note_on_c, 13, 54, 0
21, 101100, Note_on_c, 13, 49, 90
21, 101129, Note_on_c, 13, 49, 0
21, 101130, Note_on_c, 13, 54, 90
21, 101159, Note_on_c, 13, 54, 0
21, 101160, Note_on_c, 13, 57, 90
21, 101189, Note_on_c, 13, 57, 0
21, 101190, Note_on_c, 13, 56, 90
21, 101219, Note_on_c, 13, 56, 0
21, 101220, Note_on_c, 13, 54, 90
21, 101249, Note_on_c, 13, 54, 0
21, 101250, Note_on_c, 13, 53, 90
21, 101279, Note_on_c, 13, 53, 0
21, 101280, Note_on_c, 13, 54, 90
21, 101339, Note_on_c, 13, 54, 0
21, 101340, Note_on_c, 13, 49, 90
21, 101369, Note_on_c, 13, 49, 0
21, 101370, Note_on_c, 13, 54, 90
21, 101399, Note_on_c, 13, 54, 0
21, 101400, Note_on_c, 13, 59, 90
21, 101429, Note_on_c, 13, 59, 0
21, 101430, Note_on_c, 13, 57, 90
21, 101459, Note_on_c, 13, 57, 0
21, 101460, Note_on_c, 13, 56, 90
21, 101489, Note_on_c, 13, 56, 0
21, 101490, Note_on_c, 13, 54, 90
21, 101519, Note_on_c, 13, 54, 0
21, 101520, Note_on_c, 13, 56, 90
21, 101579, Note_on_c, 13, 56, 0
21, 101580, Note_on_c, 13, 49, 90
21, 101609, Note_on_c, 13, 49, 0
21, 101610, Note_on_c, 13, 56, 90
21, 101639, Note_on_c, 13, 56, 0
21, 101640, Note_on_c, 13, 61, 90
21, 101669, Note_on_c, 13, 61, 0
21, 101670, Note_on_c, 13, 59, 90
21, 101699, Note_on_c, 13, 59, 0
21, 101700, Note_on_c, 13, 57, 90
21, 101729, Note_on_c, 13, 57, 0
21, 101730, Note_on_c, 13, 56, 90
21, 101759, Note_on_c, 13, 56, 0
21, 101760, Note_on_c, 13, 57, 90
21, 101819, Note_on_c, 13, 57, 0
21, 101820, Note_on_c, 13, 56, 90
21, 101849, Note_on_c, 13, 56, 0
21, 101850, Note_on_c, 13, 57, 90
21, 101879, Note_on_c, 13, 57, 0
21, 101880, Note_on_c, 13, 54, 90
21, 101939, Note_on_c, 13, 54, 0
21, 101940, Note_on_c, 13, 61, 90
21, 101999, Note_on_c, 13, 61, 0
21, 102000, Note_on_c, 13, 62, 90
21, 102059, Note_on_c, 13, 62, 0
21, 102060, Note_on_c, 13, 62, 90
21, 102119, Note_on_c, 13, 62, 0
21, 102120, Note_on_c, 13, 62, 90
21, 102179, Note_on_c, 13, 62, 0
21, 102180, Note_on_c, 13, 62, 90
21, 102239, Note_on_c, 13, 62, 0
21, 102240, Note_on_c, 13, 62, 90
21, 102299, Note_on_c, 13, 62, 0
21, 102300, Note_on_c, 13, 56, 90
21, 102329, Note_on_c, 13, 56, 0
21, 102330, Note_on_c, 13, 59, 90
21, 102359, Note_on_c, 13, 59, 0
21, 102360, Note_on_c, 13, 64, 90
21, 102389, Note_on_c, 13, 64, 0
21, 102390, Note_on_c, 13, 62, 90
21, 102419, Note_on_c, 13, 62, 0
21, 102420, Note_on_c, 13, 61, 90
21, 102449, Note_on_c, 13, 61, 0
21, 102450, Note_on_c, 13, 59, 90
21, 102479, Note_on_c, 13, 59, 0
21, 102480, Note_on_c, 13, 61, 90
21, 102569, Note_on_c, 13, 61, 0
21, 102570, Note_on_c, 13, 57, 90
21, 102599, Note_on_c, 13, 57, 0
21, 102600, Note_on_c, 13, 61, 90
21, 102689, Note_on_c, 13, 61, 0
21, 102690, Note_on_c, 13, 57, 90
21, 102719, Note_on_c, 13, 57, 0
21, 102720, Note_on_c, 13, 61, 90
21, 102779, Note_on_c, 13, 61, 0
21, 102780, Note_on_c, 13, 54, 90
21, 102809, Note_on_c, 13, 54, 0
21, 102810, Note_on_c, 13, 57, 90
21, 102839, Note_on_c, 13, 57, 0
21, 102840, Note_on_c, 13, 62, 90
21, 102869, Note_on_c, 13, 62, 0
21, 102870, Note_on_c, 13, 61, 90
21, 102899, Note_on_c, 13, 61, 0
21, 102900, Note_on_c, 13, 59, 90
21, 102929, Note_on_c, 13, 59, 0
21, 102930, Note_on_c, 13, 57, 90
21, 102959, Note_on_c, 13, 57, 0
21, 102960, Note_on_c, 13, 59, 90
21, 103049, Note_on_c, 13, 59, 0
21, 103050, Note_on_c, 13, 56, 90
21, 103079, Note_on_c, 13, 56, 0
21, 103080, Note_on_c, 13, 59, 90
21, 103169, Note_on_c, 13, 59, 0
21, 103170, Note_on_c, 13, 56, 90
21, 103199, Note_on_c, 13, 56, 0
21, 103200, Note_on_c, 13, 59, 90
21, 103259, Note_on_c, 13, 59, 0
21, 103260, Note_on_c, 13, 53, 90
21, 103289, Note_on_c, 13, 53, 0
21, 103290, Note_on_c, 13, 56, 90
21, 103319, Note_on_c, 13, 56, 0
21, 103320, Note_on_c, 13, 61, 90
21, 103349, Note_on_c, 13, 61, 0
21, 103350, Note_on_c, 13, 59, 90
21, 103379, Note_on_c, 13, 59, 0
21, 103380, Note_on_c, 13, 57, 90
21, 103409, Note_on_c, 13, 57, 0
21, 103410, Note_on_c, 13, 56, 90
21, 103439, Note_on_c, 13, 56, 0
21, 103440, Note_on_c, 13, 57, 90
21, 103499, Note_on_c, 13, 57, 0
21, 103500, Note_on_c, 13, 59, 90
21, 103529, Note_on_c, 13, 59, 0
21, 103530, Note_on_c, 13, 61, 90
21, 103559, Note_on_c, 13, 61, 0
21, 103560, Note_on_c, 13, 62, 90
21, 103619, Note_on_c, 13, 62, 0
21, 103620, Note_on_c, 13, 61, 90
21, 103679, Note_on_c, 13, 61, 0
21, 103680, Note_on_c, 13, 56, 90
21, 103739, Note_on_c, 13, 56, 0
21, 103740, Note_on_c, 13, 57, 90
21, 103799, Note_on_c, 13, 57, 0
21, 103800, Note_on_c, 13, 56, 90
21, 103859, Note_on_c, 13, 56, 0
21, 103860, Note_on_c, 13, 54, 90
21, 103919, Note_on_c, 13, 54, 0
21, 103920, Note_on_c, 13, 56, 90
21, 103979, Note_on_c, 13, 56, 0
21, 103980, Note_on_c, 13, 49, 90
21, 104009, Note_on_c, 13, 49, 0
21, 104010, Note_on_c, 13, 51, 90
21, 104039, Note_on_c, 13, 51, 0
21, 104040, Note_on_c, 13, 53, 90
21, 104069, Note_on_c, 13, 53, 0
21, 104070, Note_on_c, 13, 54, 90
21, 104099, Note_on_c, 13, 54, 0
21, 104100, Note_on_c, 13, 56, 90
21, 104129, Note_on_c, 13, 56, 0
21, 104130, Note_on_c, 13, 57, 90
21, 104159, Note_on_c, 13, 57, 0
21, 104160, Note_on_c, 13, 59, 90
21, 104219, Note_on_c, 13, 59, 0
21, 104220, Note_on_c, 13, 54, 90
21, 104249, Note_on_c, 13, 54, 0
21, 104250, Note_on_c, 13, 59, 90
21, 104279, Note_on_c, 13, 59, 0
21, 104280, Note_on_c, 13, 62, 90
21, 104309, Note_on_c, 13, 62, 0
21, 104310, Note_on_c, 13, 61, 90
21, 104339, Note_on_c, 13, 61, 0
21, 104340, Note_on_c, 13, 59, 90
21, 104369, Note_on_c, 13, 59, 0
21, 104370, Note_on_c, 13, 57, 90
21, 104399, Note_on_c, 13, 57, 0
21, 104400, Note_on_c, 13, 59, 90
21, 104459, Note_on_c, 13, 59, 0
21, 104460, Note_on_c, 13, 54, 90
21, 104489, Note_on_c, 13, 54, 0
21, 104490, Note_on_c, 13, 59, 90
21, 104519, Note_on_c, 13, 59, 0
21, 104520, Note_on_c, 13, 62, 90
21, 104549, Note_on_c, 13, 62, 0
21, 104550, Note_on_c, 13, 61, 90
21, 104579, Note_on_c, 13, 61, 0
21, 104580, Note_on_c, 13, 59, 90
21, 104609, Note_on_c, 13, 59, 0
21, 104610, Note_on_c, 13, 57, 90
21, 104639, Note_on_c, 13, 57, 0
21, 104640, Note_on_c, 13, 59, 90
21, 104699, Note_on_c, 13, 59, 0
21, 104700, Note_on_c, 13, 56, 90
21, 104729, Note_on_c, 13, 56, 0
21, 104730, Note_on_c, 13, 57, 90
21, 104759, Note_on_c, 13, 57, 0
21, 104760, Note_on_c, 13, 59, 90
21, 104789, Note_on_c, 13, 59, 0
21, 104790, Note_on_c, 13, 57, 90
21, 104819, Note_on_c, 13, 57, 0
21, 104820, Note_on_c, 13, 56, 90
21, 104849, Note_on_c, 13, 56, 0
21, 104850, Note_on_c, 13, 54, 90
21, 104879, Note_on_c, 13, 54, 0
21, 104880, Note_on_c, 13, 56, 90
21, 104939, Note_on_c, 13, 56, 0
21, 104940, Note_on_c, 13, 53, 90
21, 104969, Note_on_c, 13, 53, 0
21, 104970, Note_on_c, 13, 56, 90
21, 104999, Note_on_c, 13, 56, 0
21, 105000, Note_on_c, 13, 61, 90
21, 105029, Note_on_c, 13, 61, 0
21, 105030, Note_on_c, 13, 59, 90
21, 105059, Note_on_c, 13, 59, 0
21, 105060, Note_on_c, 13, 57, 90
21, 105089, Note_on_c, 13, 57, 0
21, 105090, Note_on_c, 13, 56, 90
21, 105119, Note_on_c, 13, 56, 0
21, 105120, Note_on_c, 13, 59, 90
21, 105149, Note_on_c, 13, 59, 0
21, 105150, Note_on_c, 13, 57, 90
21, 105179, Note_on_c, 13, 57, 0
21, 105180, Note_on_c, 13, 56, 90
21, 105209, Note_on_c, 13, 56, 0
21, 105210, Note_on_c, 13, 54, 90
21, 105239, Note_on_c, 13, 54, 0
21, 105240, Note_on_c, 13, 56, 90
21, 105299, Note_on_c, 13, 56, 0
21, 105300, Note_on_c, 13, 53, 90
21, 105359, Note_on_c, 13, 53, 0
21, 105360, Note_on_c, 13, 54, 90
21, 105419, Note_on_c, 13, 54, 0
21, 105420, Note_on_c, 13, 57, 90
21, 105449, Note_on_c, 13, 57, 0
21, 105450, Note_on_c, 13, 59, 90
21, 105479, Note_on_c, 13, 59, 0
21, 105480, Note_on_c, 13, 61, 90
21, 105539, Note_on_c, 13, 61, 0
21, 105540, Note_on_c, 13, 63, 90
21, 105569, Note_on_c, 13, 63, 0
21, 105570, Note_on_c, 13, 65, 90
21, 105599, Note_on_c, 13, 65, 0
21, 105600, Note_on_c, 13, 66, 90
21, 105659, Note_on_c, 13, 66, 0
21, 105660, Note_on_c, 13, 54, 90
21, 105719, Note_on_c, 13, 54, 0
21, 105720, Note_on_c, 13, 49, 90
21, 105779, Note_on_c, 13, 49, 0
21, 105780, Note_on_c, 13, 53, 90
21, 105839, Note_on_c, 13, 53, 0
21, 105840, Note_on_c, 13, 54, 90
21, 105959, Note_on_c, 13, 54, 0
21, 105960, Note_on_c, 13, 42, 90
21, 106019, Note_on_c, 13, 42, 0
21, 107940, Note_on_c, 13, 57, 90
21, 107969, Note_on_c, 13, 57, 0
21, 107970, Note_on_c, 13, 59, 90
21, 107999, Note_on_c, 13, 59, 0
21, 108000, Note_on_c, 13, 61, 90
21, 108059, Note_on_c, 13, 61, 0
21, 108060, Note_on_c, 13, 62, 90
21, 108119, Note_on_c, 13, 62, 0
21, 108120, Note_on_c, 13, 61, 90
21, 108179, Note_on_c, 13, 61, 0
21, 108180, Note_on_c, 13, 59, 90
21, 108239, Note_on_c, 13, 59, 0
21, 108240, Note_on_c, 13, 57, 90
21, 108299, Note_on_c, 13, 57, 0
21, 108300, Note_on_c, 13, 52, 90
21, 108329, Note_on_c, 13, 52, 0
21, 108330, Note_on_c, 13, 57, 90
21, 108359, Note_on_c, 13, 57, 0
21, 108360, Note_on_c, 13, 61, 90
21, 108389, Note_on_c, 13, 61, 0
21, 108390, Note_on_c, 13, 59, 90
21, 108419, Note_on_c, 13, 59, 0
21, 108420, Note_on_c, 13, 57, 90
21, 108449, Note_on_c, 13, 57, 0
21, 108450, Note_on_c, 13, 56, 90
21, 108479, Note_on_c, 13, 56, 0
21, 108480, Note_on_c, 13, 57, 90
21, 108539, Note_on_c, 13, 57, 0
21, 108540, Note_on_c, 13, 52, 90
21, 108569, Note_on_c, 13, 52, 0
21, 108570, Note_on_c, 13, 57, 90
21, 108599, Note_on_c, 13, 57, 0
21, 108600, Note_on_c, 13, 62, 90
21, 108629, Note_on_c, 13, 62, 0
21, 108630, Note_on_c, 13, 61, 90
21, 108659, Note_on_c, 13, 61, 0
21, 108660, Note_on_c, 13, 59, 90
21, 108689, Note_on_c, 13, 59, 0
21, 108690, Note_on_c, 13, 57, 90
21, 108719, Note_on_c, 13, 57, 0
21, 108720, Note_on_c, 13, 59, 90
21, 108779, Note_on_c, 13, 59, 0
21, 108780, Note_on_c, 13, 52, 90
21, 108809, Note_on_c, 13, 52, 0
21, 108810, Note_on_c, 13, 59, 90
21, 108839, Note_on_c, 13, 59, 0
21, 108840, Note_on_c, 13, 64, 90
21, 108869, Note_on_c, 13, 64, 0
21, 108870, Note_on_c, 13, 62, 90
21, 108899, Note_on_c, 13, 62, 0
21, 108900, Note_on_c, 13, 61, 90
21, 108929, Note_on_c, 13, 61, 0
21, 108930, Note_on_c, 13, 59, 90
21, 108959, Note_on_c, 13, 59, 0
21, 108960, Note_on_c, 13, 61, 90
21, 109019, Note_on_c, 13, 61, 0
21, 109020, Note_on_c, 13, 59, 90
21, 109049, Note_on_c, 13, 59, 0
21, 109050, Note_on_c, 13, 61, 90
21, 109079, Note_on_c, 13, 61, 0
21, 109080, Note_on_c, 13, 57, 90
21, 109139, Note_on_c, 13, 57, 0
21, 109140, Note_on_c, 13, 61, 90
21, 109199, Note_on_c, 13, 61, 0
21, 109200, Note_on_c, 13, 66, 90
21, 109259, Note_on_c, 13, 66, 0
21, 109260, Note_on_c, 13, 59, 90
21, 109319, Note_on_c, 13, 59, 0
21, 109320, Note_on_c, 13, 59, 90
21, 109379, Note_on_c, 13, 59, 0
21, 109380, Note_on_c, 13, 59, 90
21, 109439, Note_on_c, 13, 59, 0
21, 109440, Note_on_c, 13, 59, 90
21, 109469, Note_on_c, 13, 59, 0
21, 109470, Note_on_c, 13, 57, 90
21, 109499, Note_on_c, 13, 57, 0
21, 109500, Note_on_c, 13, 56, 90
21, 109529, Note_on_c, 13, 56, 0
21, 109530, Note_on_c, 13, 54, 90
21, 109559, Note_on_c, 13, 54, 0
21, 109560, Note_on_c, 13, 52, 90
21, 109589, Note_on_c, 13, 52, 0
21, 109590, Note_on_c, 13, 56, 90
21, 109619, Note_on_c, 13, 56, 0
21, 109620, Note_on_c, 13, 61, 90
21, 109649, Note_on_c, 13, 61, 0
21, 109650, Note_on_c, 13, 59, 90
21, 109679, Note_on_c, 13, 59, 0
21, 109680, Note_on_c, 13, 57, 90
21, 109709, Note_on_c, 13, 57, 0
21, 109710, Note_on_c, 13, 56, 90
21, 109739, Note_on_c, 13, 56, 0
21, 109740, Note_on_c, 13, 54, 90
21, 109769, Note_on_c, 13, 54, 0
21, 109770, Note_on_c, 13, 52, 90
21, 109799, Note_on_c, 13, 52, 0
21, 109800, Note_on_c, 13, 51, 90
21, 109829, Note_on_c, 13, 51, 0
21, 109830, Note_on_c, 13, 54, 90
21, 109859, Note_on_c, 13, 54, 0
21, 109860, Note_on_c, 13, 59, 90
21, 109889, Note_on_c, 13, 59, 0
21, 109890, Note_on_c, 13, 57, 90
21, 109919, Note_on_c, 13, 57, 0
21, 109920, Note_on_c, 13, 56, 90
21, 109949, Note_on_c, 13, 56, 0
21, 109950, Note_on_c, 13, 54, 90
21, 109979, Note_on_c, 13, 54, 0
21, 109980, Note_on_c, 13, 56, 90
21, 110009, Note_on_c, 13, 56, 0
21, 110010, Note_on_c, 13, 52, 90
21, 110039, Note_on_c, 13, 52, 0
21, 110040, Note_on_c, 13, 59, 90
21, 110099, Note_on_c, 13, 59, 0
21, 110100, Note_on_c, 13, 47, 90
21, 110159, Note_on_c, 13, 47, 0
21, 110160, Note_on_c, 13, 52, 90
21, 110279, Note_on_c, 13, 52, 0
21, 110340, Note_on_c, 13, 61, 90
21, 110399, Note_on_c, 13, 61, 0
21, 110400, Note_on_c, 13, 58, 90
21, 110459, Note_on_c, 13, 58, 0
21, 110460, Note_on_c, 13, 59, 90
21, 110519, Note_on_c, 13, 59, 0
21, 110520, Note_on_c, 13, 61, 90
21, 110579, Note_on_c, 13, 61, 0
21, 110580, Note_on_c, 13, 59, 90
21, 110639, Note_on_c, 13, 59, 0
21, 110640, Note_on_c, 13, 58, 90
21, 110699, Note_on_c, 13, 58, 0
21, 110700, Note_on_c, 13, 56, 90
21, 110729, Note_on_c, 13, 56, 0
21, 110730, Note_on_c, 13, 54, 90
21, 110759, Note_on_c, 13, 54, 0
21, 110760, Note_on_c, 13, 64, 90
21, 110819, Note_on_c, 13, 64, 0
21, 110820, Note_on_c, 13, 61, 90
21, 110879, Note_on_c, 13, 61, 0
21, 110880, Note_on_c, 13, 62, 90
21, 111480, Note_on_c, 13, 62, 0
21, 111540, Note_on_c, 13, 52, 90
21, 111599, Note_on_c, 13, 52, 0
21, 111600, Note_on_c, 13, 61, 90
21, 111659, Note_on_c, 13, 61, 0
21, 111660, Note_on_c, 13, 61, 90
21, 111719, Note_on_c, 13, 61, 0
21, 111720, Note_on_c, 13, 61, 90
21, 111779, Note_on_c, 13, 61, 0
21, 111780, Note_on_c, 13, 61, 90
21, 111839, Note_on_c, 13, 61, 0
21, 111840, Note_on_c, 13, 61, 90
21, 111899, Note_on_c, 13, 61, 0
21, 111900, Note_on_c, 13, 59, 90
21, 111929, Note_on_c, 13, 59, 0
21, 111930, Note_on_c, 13, 57, 90
21, 111959, Note_on_c, 13, 57, 0
21, 111960, Note_on_c, 13, 59, 90
21, 112019, Note_on_c, 13, 59, 0
21, 112020, Note_on_c, 13, 62, 90
21, 112079, Note_on_c, 13, 62, 0
21, 112080, Note_on_c, 13, 52, 90
21, 113400, Note_on_c, 13, 52, 0
21, 113700, Note_on_c, 13, 54, 90
21, 113759, Note_on_c, 13, 54, 0
21, 113760, Note_on_c, 13, 59, 90
21, 113819, Note_on_c, 13, 59, 0
21, 113820, Note_on_c, 13, 59, 90
21, 113879, Note_on_c, 13, 59, 0
21, 113880, Note_on_c, 13, 59, 90
21, 113939, Note_on_c, 13, 59, 0
21, 113940, Note_on_c, 13, 59, 90
21, 113999, Note_on_c, 13, 59, 0
21, 114000, Note_on_c, 13, 59, 90
21, 114059, Note_on_c, 13, 59, 0
21, 114060, Note_on_c, 13, 52, 90
21, 114089, Note_on_c, 13, 52, 0
21, 114090, Note_on_c, 13, 56, 90
21, 114119, Note_on_c, 13, 56, 0
21, 114120, Note_on_c, 13, 61, 90
21, 114149, Note_on_c, 13, 61, 0
21, 114150, Note_on_c, 13, 59, 90
21, 114179, Note_on_c, 13, 59, 0
21, 114180, Note_on_c, 13, 57, 90
21, 114209, Note_on_c, 13, 57, 0
21, 114210, Note_on_c, 13, 56, 90
21, 114239, Note_on_c, 13, 56, 0
21, 114240, Note_on_c, 13, 57, 90
21, 114329, Note_on_c, 13, 57, 0
21, 114330, Note_on_c, 13, 54, 90
21, 114359, Note_on_c, 13, 54, 0
21, 114360, Note_on_c, 13, 57, 90
21, 114449, Note_on_c, 13, 57, 0
21, 114450, Note_on_c, 13, 54, 90
21, 114479, Note_on_c, 13, 54, 0
21, 114480, Note_on_c, 13, 57, 90
21, 114539, Note_on_c, 13, 57, 0
21, 114540, Note_on_c, 13, 50, 90
21, 114569, Note_on_c, 13, 50, 0
21, 114570, Note_on_c, 13, 54, 90
21, 114599, Note_on_c, 13, 54, 0
21, 114600, Note_on_c, 13, 59, 90
21, 114629, Note_on_c, 13, 59, 0
21, 114630, Note_on_c, 13, 57, 90
21, 114659, Note_on_c, 13, 57, 0
21, 114660, Note_on_c, 13, 56, 90
21, 114689, Note_on_c, 13, 56, 0
21, 114690, Note_on_c, 13, 54, 90
21, 114719, Note_on_c, 13, 54, 0
21, 114720, Note_on_c, 13, 56, 90
21, 114809, Note_on_c, 13, 56, 0
21, 114810, Note_on_c, 13, 52, 90
21, 114839, Note_on_c, 13, 52, 0
21, 114840, Note_on_c, 13, 56, 90
21, 114929, Note_on_c, 13, 56, 0
21, 114930, Note_on_c, 13, 52, 90
21, 114959, Note_on_c, 13, 52, 0
21, 114960, Note_on_c, 13, 57, 90
21, 115019, Note_on_c, 13, 57, 0
21, 115020, Note_on_c, 13, 52, 90
21, 115049, Note_on_c, 13, 52, 0
21, 115050, Note_on_c, 13, 57, 90
21, 115079, Note_on_c, 13, 57, 0
21, 115080, Note_on_c, 13, 62, 90
21, 115109, Note_on_c, 13, 62, 0
21, 115110, Note_on_c, 13, 61, 90
21, 115139, Note_on_c, 13, 61, 0
21, 115140, Note_on_c, 13, 59, 90
21, 115169, Note_on_c, 13, 59, 0
21, 115170, Note_on_c, 13, 57, 90
21, 115199, Note_on_c, 13, 57, 0
21, 115200, Note_on_c, 13, 59, 90
21, 115289, Note_on_c, 13, 59, 0
21, 115290, Note_on_c, 13, 52, 90
21, 115319, Note_on_c, 13, 52, 0
21, 115320, Note_on_c, 13, 59, 90
21, 115409, Note_on_c, 13, 59, 0
21, 115410, Note_on_c, 13, 52, 90
21, 115439, Note_on_c, 13, 52, 0
21, 115440, Note_on_c, 13, 61, 90
21, 115499, Note_on_c, 13, 61, 0
21, 115500, Note_on_c, 13, 57, 90
21, 115529, Note_on_c, 13, 57, 0
21, 115530, Note_on_c, 13, 61, 90
21, 115559, Note_on_c, 13, 61, 0
21, 115560, Note_on_c, 13, 66, 90
21, 115589, Note_on_c, 13, 66, 0
21, 115590, Note_on_c, 13, 64, 90
21, 115619, Note_on_c, 13, 64, 0
21, 115620, Note_on_c, 13, 62, 90
21, 115649, Note_on_c, 13, 62, 0
21, 115650, Note_on_c, 13, 61, 90
21, 115679, Note_on_c, 13, 61, 0
21, 115680, Note_on_c, 13, 59, 90
21, 115739, Note_on_c, 13, 59, 0
21, 115740, Note_on_c, 13, 56, 90
21, 115769, Note_on_c, 13, 56, 0
21, 115770, Note_on_c, 13, 57, 90
21, 115799, Note_on_c, 13, 57, 0
21, 115800, Note_on_c, 13, 59, 90
21, 115859, Note_on_c, 13, 59, 0
21, 116100, Note_on_c, 13, 52, 90
21, 116159, Note_on_c, 13, 52, 0
21, 116160, Note_on_c, 13, 57, 90
21, 116219, Note_on_c, 13, 57, 0
21, 116220, Note_on_c, 13, 57, 90
21, 116279, Note_on_c, 13, 57, 0
21, 116280, Note_on_c, 13, 57, 90
21, 116339, Note_on_c, 13, 57, 0
21, 116340, Note_on_c, 13, 57, 90
21, 116399, Note_on_c, 13, 57, 0
21, 116400, Note_on_c, 13, 57, 90
21, 116459, Note_on_c, 13, 57, 0
21, 116460, Note_on_c, 13, 54, 90
21, 116489, Note_on_c, 13, 54, 0
21, 116490, Note_on_c, 13, 56, 90
21, 116519, Note_on_c, 13, 56, 0
21, 116520, Note_on_c, 13, 57, 90
21, 116579, Note_on_c, 13, 57, 0
21, 116580, Note_on_c, 13, 56, 90
21, 116609, Note_on_c, 13, 56, 0
21, 116610, Note_on_c, 13, 57, 90
21, 116639, Note_on_c, 13, 57, 0
21, 116640, Note_on_c, 13, 59, 90
21, 116699, Note_on_c, 13, 59, 0
21, 116700, Note_on_c, 13, 62, 90
21, 116729, Note_on_c, 13, 62, 0
21, 116730, Note_on_c, 13, 61, 90
21, 116759, Note_on_c, 13, 61, 0
21, 116760, Note_on_c, 13, 59, 90
21, 116819, Note_on_c, 13, 59, 0
21, 116820, Note_on_c, 13, 59, 90
21, 116879, Note_on_c, 13, 59, 0
21, 116880, Note_on_c, 13, 59, 90
21, 116939, Note_on_c, 13, 59, 0
21, 116940, Note_on_c, 13, 56, 90
21, 116969, Note_on_c, 13, 56, 0
21, 116970, Note_on_c, 13, 57, 90
21, 116999, Note_on_c, 13, 57, 0
21, 117000, Note_on_c, 13, 59, 90
21, 117059, Note_on_c, 13, 59, 0
21, 117060, Note_on_c, 13, 64, 90
21, 117119, Note_on_c, 13, 64, 0
21, 117120, Note_on_c, 13, 62, 90
21, 117149, Note_on_c, 13, 62, 0
21, 117150, Note_on_c, 13, 61, 90
21, 117179, Note_on_c, 13, 61, 0
21, 117180, Note_on_c, 13, 59, 90
21, 117209, Note_on_c, 13, 59, 0
21, 117210, Note_on_c, 13, 57, 90
21, 117239, Note_on_c, 13, 57, 0
21, 117240, Note_on_c, 13, 52, 90
21, 117299, Note_on_c, 13, 52, 0
21, 117300, Note_on_c, 13, 56, 90
21, 117359, Note_on_c, 13, 56, 0
21, 117360, Note_on_c, 13, 45, 90
21, 117419, Note_on_c, 13, 45, 0
21, 117420, Note_on_c, 13, 49, 90
21, 117449, Note_on_c, 13, 49, 0
21, 117450, Note_on_c, 13, 50, 90
21, 117479, Note_on_c, 13, 50, 0
21, 117480, Note_on_c, 13, 52, 90
21, 117539, Note_on_c, 13, 52, 0
21, 117540, Note_on_c, 13, 54, 90
21, 117569, Note_on_c, 13, 54, 0
21, 117570, Note_on_c, 13, 56, 90
21, 117599, Note_on_c, 13, 56, 0
21, 117600, Note_on_c, 13, 57, 90
21, 117659, Note_on_c, 13, 57, 0
21, 117660, Note_on_c, 13, 52, 90
21, 117719, Note_on_c, 13, 52, 0
21, 117720, Note_on_c, 13, 62, 90
21, 117749, Note_on_c, 13, 62, 0
21, 117750, Note_on_c, 13, 61, 90
21, 117779, Note_on_c, 13, 61, 0
21, 117780, Note_on_c, 13, 59, 90
21, 117809, Note_on_c, 13, 59, 0
21, 117810, Note_on_c, 13, 61, 90
21, 117839, Note_on_c, 13, 61, 0
21, 117840, Note_on_c, 13, 57, 90
21, 117959, Note_on_c, 13, 57, 0
21, 117960, Note_on_c, 13, 45, 90
21, 118019, Note_on_c, 13, 45, 0
21, 151200, Control_c, 13, 0, 20
21, 151200, Program_c, 13, 67
21, 151260, Note_on_c, 13, 57, 90
21, 151319, Note_on_c, 13, 57, 0
21, 151320, Note_on_c, 13, 59, 90
21, 151379, Note_on_c, 13, 59, 0
21, 151380, Note_on_c, 13, 55, 90
21, 151439, Note_on_c, 13, 55, 0
21, 151440, Note_on_c, 13, 52, 90
21, 151499, Note_on_c, 13, 52, 0
21, 151500, Note_on_c, 13, 54, 90
21, 151559, Note_on_c, 13, 54, 0
21, 151560, Note_on_c, 13, 55, 90
21, 151619, Note_on_c, 13, 55, 0
21, 151620, Note_on_c, 13, 54, 90
21, 151679, Note_on_c, 13, 54, 0
21, 151680, Note_on_c, 13, 54, 90
21, 151739, Note_on_c, 13, 54, 0
21, 151740, Note_on_c, 13, 54, 90
21, 151799, Note_on_c, 13, 54, 0
21, 151920, Note_on_c, 13, 62, 90
21, 151979, Note_on_c, 13, 62, 0
21, 152040, Note_on_c, 13, 54, 90
21, 152099, Note_on_c, 13, 54, 0
21, 152100, Note_on_c, 13, 55, 90
21, 152159, Note_on_c, 13, 55, 0
21, 152160, Note_on_c, 13, 57, 90
21, 152219, Note_on_c, 13, 57, 0
21, 152220, Note_on_c, 13, 57, 90
21, 152279, Note_on_c, 13, 57, 0
21, 152280, Note_on_c, 13, 54, 90
21, 152339, Note_on_c, 13, 54, 0
21, 152340, Note_on_c, 13, 50, 90
21, 152399, Note_on_c, 13, 50, 0
21, 152400, Note_on_c, 13, 59, 90
21, 152519, Note_on_c, 13, 59, 0
21, 152580, Note_on_c, 13, 52, 90
21, 152639, Note_on_c, 13, 52, 0
21, 152640, Note_on_c, 13, 59, 90
21, 152699, Note_on_c, 13, 59, 0
21, 152700, Note_on_c, 13, 59, 90
21, 152759, Note_on_c, 13, 59, 0
21, 152760, Note_on_c, 13, 64, 90
21, 152819, Note_on_c, 13, 64, 0
21, 152850, Note_on_c, 13, 59, 90
21, 152879, Note_on_c, 13, 59, 0
21, 152880, Note_on_c, 13, 56, 90
21, 152939, Note_on_c, 13, 56, 0
21, 152940, Note_on_c, 13, 52, 90
21, 152999, Note_on_c, 13, 52, 0
21, 153000, Note_on_c, 13, 62, 90
21, 153059, Note_on_c, 13, 62, 0
21, 153060, Note_on_c, 13, 61, 90
21, 153119, Note_on_c, 13, 61, 0
21, 153120, Note_on_c, 13, 61, 90
21, 153239, Note_on_c, 13, 61, 0
21, 153240, Note_on_c, 13, 57, 90
21, 153359, Note_on_c, 13, 57, 0
21, 153480, Note_on_c, 13, 49, 90
21, 153539, Note_on_c, 13, 49, 0
21, 153540, Note_on_c, 13, 50, 90
21, 153599, Note_on_c, 13, 50, 0
21, 153600, Note_on_c, 13, 52, 90
21, 153719, Note_on_c, 13, 52, 0
21, 153780, Note_on_c, 13, 45, 90
21, 153839, Note_on_c, 13, 45, 0
21, 153840, Note_on_c, 13, 52, 90
21, 153899, Note_on_c, 13, 52, 0
21, 153900, Note_on_c, 13, 52, 90
21, 153959, Note_on_c, 13, 52, 0
21, 153960, Note_on_c, 13, 57, 90
21, 154019, Note_on_c, 13, 57, 0
21, 154020, Note_on_c, 13, 49, 90
21, 154079, Note_on_c, 13, 49, 0
21, 154080, Note_on_c, 13, 50, 90
21, 154199, Note_on_c, 13, 50, 0
21, 154260, Note_on_c, 13, 50, 90
21, 154319, Note_on_c, 13, 50, 0
21, 154320, Note_on_c, 13, 57, 90
21, 154379, Note_on_c, 13, 57, 0
21, 154380, Note_on_c, 13, 59, 90
21, 154439, Note_on_c, 13, 59, 0
21, 154440, Note_on_c, 13, 60, 90
21, 154499, Note_on_c, 13, 60, 0
21, 154500, Note_on_c, 13, 62, 90
21, 154559, Note_on_c, 13, 62, 0
21, 154560, Note_on_c, 13, 59, 90
21, 154619, Note_on_c, 13, 59, 0
21, 154620, Note_on_c, 13, 59, 90
21, 154679, Note_on_c, 13, 59, 0
21, 154680, Note_on_c, 13, 61, 90
21, 154739, Note_on_c, 13, 61, 0
21, 154740, Note_on_c, 13, 62, 90
21, 154799, Note_on_c, 13, 62, 0
21, 154800, Note_on_c, 13, 62, 90
21, 154859, Note_on_c, 13, 62, 0
21, 154860, Note_on_c, 13, 57, 90
21, 154919, Note_on_c, 13, 57, 0
21, 223860, Control_c, 13, 0, 20
21, 223860, Program_c, 13, 67
21, 223860, Note_on_c, 13, 49, 90
21, 223919, Note_on_c, 13, 49, 0
21, 223920, Note_on_c, 13, 54, 90
21, 223979, Note_on_c, 13, 54, 0
21, 223980, Note_on_c, 13, 54, 90
21, 224039, Note_on_c, 13, 54, 0
21, 224040, Note_on_c, 13, 54, 90
21, 224099, Note_on_c, 13, 54, 0
21, 224100, Note_on_c, 13, 56, 90
21, 224159, Note_on_c, 13, 56, 0
21, 224160, Note_on_c, 13, 57, 90
21, 224219, Note_on_c, 13, 57, 0
21, 224220, Note_on_c, 13, 57, 90
21, 224279, Note_on_c, 13, 57, 0
21, 224280, Note_on_c, 13, 61, 90
21, 224339, Note_on_c, 13, 61, 0
21, 224340, Note_on_c, 13, 57, 90
21, 224399, Note_on_c, 13, 57, 0
21, 224400, Note_on_c, 13, 63, 90
21, 224429, Note_on_c, 13, 63, 0
21, 224430, Note_on_c, 13, 63, 90
21, 224459, Note_on_c, 13, 63, 0
21, 224460, Note_on_c, 13, 63, 90
21, 224489, Note_on_c, 13, 63, 0
21, 224490, Note_on_c, 13, 64, 90
21, 224519, Note_on_c, 13, 64, 0
21, 224520, Note_on_c, 13, 66, 90
21, 224579, Note_on_c, 13, 66, 0
21, 224580, Note_on_c, 13, 59, 90
21, 224639, Note_on_c, 13, 59, 0
21, 224640, Note_on_c, 13, 64, 90
21, 224699, Note_on_c, 13, 64, 0
21, 224700, Note_on_c, 13, 64, 90
21, 224759, Note_on_c, 13, 64, 0
21, 224820, Note_on_c, 13, 59, 90
21, 224879, Note_on_c, 13, 59, 0
21, 224880, Note_on_c, 13, 56, 90
21, 224939, Note_on_c, 13, 56, 0
21, 224940, Note_on_c, 13, 56, 90
21, 224999, Note_on_c, 13, 56, 0
21, 225000, Note_on_c, 13, 59, 90
21, 225059, Note_on_c, 13, 59, 0
21, 225060, Note_on_c, 13, 52, 90
21, 225119, Note_on_c, 13, 52, 0
21, 225120, Note_on_c, 13, 61, 90
21, 225239, Note_on_c, 13, 61, 0
21, 225300, Note_on_c, 13, 61, 90
21, 225359, Note_on_c, 13, 61, 0
21, 225360, Note_on_c, 13, 61, 90
21, 225419, Note_on_c, 13, 61, 0
21, 225420, Note_on_c, 13, 52, 90
21, 225479, Note_on_c, 13, 52, 0
21, 225480, Note_on_c, 13, 52, 90
21, 225539, Note_on_c, 13, 52, 0
21, 225540, Note_on_c, 13, 54, 90
21, 225599, Note_on_c, 13, 54, 0
21, 225600, Note_on_c, 13, 55, 90
21, 225719, Note_on_c, 13, 55, 0
21, 225750, Note_on_c, 13, 49, 90
21, 225779, Note_on_c, 13, 49, 0
21, 225780, Note_on_c, 13, 49, 90
21, 225809, Note_on_c, 13, 49, 0
21, 225810, Note_on_c, 13, 50, 90
21, 225839, Note_on_c, 13, 50, 0
21, 225840, Note_on_c, 13, 52, 90
21, 225899, Note_on_c, 13, 52, 0
21, 225900, Note_on_c, 13, 52, 90
21, 225959, Note_on_c, 13, 52, 0
21, 225960, Note_on_c, 13, 52, 90
21, 226019, Note_on_c, 13, 52, 0
21, 226020, Note_on_c, 13, 49, 90
21, 226079, Note_on_c, 13, 49, 0
21, 226080, Note_on_c, 13, 46, 90
21, 226139, Note_on_c, 13, 46, 0
21, 226140, Note_on_c, 13, 46, 90
21, 226199, Note_on_c, 13, 46, 0
21, 226230, Note_on_c, 13, 49, 90
21, 226259, Note_on_c, 13, 49, 0
21, 226260, Note_on_c, 13, 54, 90
21, 226289, Note_on_c, 13, 54, 0
21, 226290, Note_on_c, 13, 56, 90
21, 226319, Note_on_c, 13, 56, 0
21, 226320, Note_on_c, 13, 58, 90
21, 226379, Note_on_c, 13, 58, 0
21, 226380, Note_on_c, 13, 59, 90
21, 226439, Note_on_c, 13, 59, 0
21, 226440, Note_on_c, 13, 61, 90
21, 226499, Note_on_c, 13, 61, 0
21, 226500, Note_on_c, 13, 54, 90
21, 226559, Note_on_c, 13, 54, 0
21, 226560, Note_on_c, 13, 62, 90
21, 226619, Note_on_c, 13, 62, 0
21, 226620, Note_on_c, 13, 62, 90
21, 226679, Note_on_c, 13, 62, 0
21, 227700, Note_on_c, 13, 50, 90
21, 227759, Note_on_c, 13, 50, 0
21, 227760, Note_on_c, 13, 55, 90
21, 227819, Note_on_c, 13, 55, 0
21, 227820, Note_on_c, 13, 55, 90
21, 227879, Note_on_c, 13, 55, 0
21, 227940, Note_on_c, 13, 55, 90
21, 227969, Note_on_c, 13, 55, 0
21, 227970, Note_on_c, 13, 57, 90
21, 227999, Note_on_c, 13, 57, 0
21, 228000, Note_on_c, 13, 59, 90
21, 228119, Note_on_c, 13, 59, 0
21, 228660, Note_on_c, 13, 52, 90
21, 228719, Note_on_c, 13, 52, 0
21, 228720, Note_on_c, 13, 57, 90
21, 228779, Note_on_c, 13, 57, 0
21, 228780, Note_on_c, 13, 57, 90
21, 228839, Note_on_c, 13, 57, 0
21, 228900, Note_on_c, 13, 57, 90
21, 228929, Note_on_c, 13, 57, 0
21, 228930, Note_on_c, 13, 59, 90
21, 228959, Note_on_c, 13, 59, 0
21, 228960, Note_on_c, 13, 61, 90
21, 229079, Note_on_c, 13, 61, 0
21, 230820, Note_on_c, 13, 54, 90
21, 230879, Note_on_c, 13, 54, 0
21, 230880, Note_on_c, 13, 59, 90
21, 230939, Note_on_c, 13, 59, 0
21, 230940, Note_on_c, 13, 59, 90
21, 230999, Note_on_c, 13, 59, 0
21, 231060, Note_on_c, 13, 59, 90
21, 231089, Note_on_c, 13, 59, 0
21, 231090, Note_on_c, 13, 61, 90
21, 231119, Note_on_c, 13, 61, 0
21, 231120, Note_on_c, 13, 62, 90
21, 231239, Note_on_c, 13, 62, 0
21, 231270, Note_on_c, 13, 62, 90
21, 231299, Note_on_c, 13, 62, 0
21, 231300, Note_on_c, 13, 66, 90
21, 231329, Note_on_c, 13, 66, 0
21, 231330, Note_on_c, 13, 64, 90
21, 231359, Note_on_c, 13, 64, 0
21, 231360, Note_on_c, 13, 64, 90
21, 231419, Note_on_c, 13, 64, 0
21, 231420, Note_on_c, 13, 59, 90
21, 231479, Note_on_c, 13, 59, 0
21, 231480, Note_on_c, 13, 56, 90
21, 231539, Note_on_c, 13, 56, 0
21, 231540, Note_on_c, 13, 52, 90
21, 231599, Note_on_c, 13, 52, 0
21, 231600, Note_on_c, 13, 61, 90
21, 231719, Note_on_c, 13, 61, 0
21, 231780, Note_on_c, 13, 61, 90
21, 231839, Note_on_c, 13, 61, 0
21, 231840, Note_on_c, 13, 61, 90
21, 231899, Note_on_c, 13, 61, 0
21, 231900, Note_on_c, 13, 59, 90
21, 231959, Note_on_c, 13, 59, 0
21, 231960, Note_on_c, 13, 62, 90
21, 232019, Note_on_c, 13, 62, 0
21, 232020, Note_on_c, 13, 61, 90
21, 232079, Note_on_c, 13, 61, 0
21, 232080, Note_on_c, 13, 57, 90
21, 232199, Note_on_c, 13, 57, 0
21, 232260, Note_on_c, 13, 49, 90
21, 232319, Note_on_c, 13, 49, 0
21, 232320, Note_on_c, 13, 54, 90
21, 232379, Note_on_c, 13, 54, 0
21, 232380, Note_on_c, 13, 54, 90
21, 232439, Note_on_c, 13, 54, 0
21, 232440, Note_on_c, 13, 57, 90
21, 232469, Note_on_c, 13, 57, 0
21, 232470, Note_on_c, 13, 57, 90
21, 232499, Note_on_c, 13, 57, 0
21, 232500, Note_on_c, 13, 61, 90
21, 232529, Note_on_c, 13, 61, 0
21, 232530, Note_on_c, 13, 59, 90
21, 232559, Note_on_c, 13, 59, 0
21, 232560, Note_on_c, 13, 59, 90
21, 232619, Note_on_c, 13, 59, 0
21, 232620, Note_on_c, 13, 59, 90
21, 232679, Note_on_c, 13, 59, 0
21, 232740, Note_on_c, 13, 54, 90
21, 232799, Note_on_c, 13, 54, 0
21, 232800, Note_on_c, 13, 51, 90
21, 232859, Note_on_c, 13, 51, 0
21, 232860, Note_on_c, 13, 54, 90
21, 232919, Note_on_c, 13, 54, 0
21, 232920, Note_on_c, 13, 57, 90
21, 232979, Note_on_c, 13, 57, 0
21, 232980, Note_on_c, 13, 56, 90
21, 233039, Note_on_c, 13, 56, 0
21, 233040, Note_on_c, 13, 56, 90
21, 233159, Note_on_c, 13, 56, 0
21, 233190, Note_on_c, 13, 56, 90
21, 233219, Note_on_c, 13, 56, 0
21, 233220, Note_on_c, 13, 60, 90
21, 233249, Note_on_c, 13, 60, 0
21, 233250, Note_on_c, 13, 61, 90
21, 233279, Note_on_c, 13, 61, 0
21, 233280, Note_on_c, 13, 63, 90
21, 233339, Note_on_c, 13, 63, 0
21, 233340, Note_on_c, 13, 63, 90
21, 233399, Note_on_c, 13, 63, 0
21, 233400, Note_on_c, 13, 60, 90
21, 233459, Note_on_c, 13, 60, 0
21, 233460, Note_on_c, 13, 56, 90
21, 233519, Note_on_c, 13, 56, 0
21, 233520, Note_on_c, 13, 64, 90
21, 233639, Note_on_c, 13, 64, 0
21, 233700, Note_on_c, 13, 61, 90
21, 233759, Note_on_c, 13, 61, 0
21, 233760, Note_on_c, 13, 58, 90
21, 233879, Note_on_c, 13, 58, 0
21, 233940, Note_on_c, 13, 61, 90
21, 233999, Note_on_c, 13, 61, 0
21, 234000, Note_on_c, 13, 61, 90
21, 234059, Note_on_c, 13, 61, 0
21, 234060, Note_on_c, 13, 52, 90
21, 234119, Note_on_c, 13, 52, 0
21, 234120, Note_on_c, 13, 54, 90
21, 234179, Note_on_c, 13, 54, 0
21, 234180, Note_on_c, 13, 49, 90
21, 234239, Note_on_c, 13, 49, 0
21, 234240, Note_on_c, 13, 50, 90
21, 234299, Note_on_c, 13, 50, 0
21, 234300, Note_on_c, 13, 50, 90
21, 234359, Note_on_c, 13, 50, 0
21, 234420, Note_on_c, 13, 50, 90
21, 234449, Note_on_c, 13, 50, 0
21, 234450, Note_on_c, 13, 47, 90
21, 234479, Note_on_c, 13, 47, 0
21, 234480, Note_on_c, 13, 59, 90
21, 234539, Note_on_c, 13, 59, 0
21, 234600, Note_on_c, 13, 59, 90
21, 234659, Note_on_c, 13, 59, 0
21, 234660, Note_on_c, 13, 61, 90
21, 234689, Note_on_c, 13, 61, 0
21, 234690, Note_on_c, 13, 62, 90
21, 234719, Note_on_c, 13, 62, 0
21, 234720, Note_on_c, 13, 62, 90
21, 234779, Note_on_c, 13, 62, 0
21, 234780, Note_on_c, 13, 57, 90
21, 234839, Note_on_c, 13, 57, 0
21, 241200, Control_c, 13, 0, 20
21, 241200, Program_c, 13, 67
21, 241320, Note_on_c, 13, 57, 100
21, 241379, Note_on_c, 13, 57, 0
21, 241380, Note_on_c, 13, 62, 100
21, 241439, Note_on_c, 13, 62, 0
21, 241440, Note_on_c, 13, 57, 100
21, 241499, Note_on_c, 13, 57, 0
21, 241500, Note_on_c, 13, 54, 100
21, 241559, Note_on_c, 13, 54, 0
21, 241560, Note_on_c, 13, 57, 100
21, 241619, Note_on_c, 13, 57, 0
21, 241620, Note_on_c, 13, 54, 100
21, 241679, Note_on_c, 13, 54, 0
21, 241680, Note_on_c, 13, 50, 100
21, 241739, Note_on_c, 13, 50, 0
21, 241740, Note_on_c, 13, 52, 100
21, 241769, Note_on_c, 13, 52, 0
21, 241770, Note_on_c, 13, 50, 100
21, 241799, Note_on_c, 13, 50, 0
21, 241800, Note_on_c, 13, 52, 100
21, 241829, Note_on_c, 13, 52, 0
21, 241830, Note_on_c, 13, 54, 100
21, 241859, Note_on_c, 13, 54, 0
21, 241860, Note_on_c, 13, 55, 100
21, 241889, Note_on_c, 13, 55, 0
21, 241890, Note_on_c, 13, 52, 100
21, 241919, Note_on_c, 13, 52, 0
21, 241920, Note_on_c, 13, 54, 100
21, 241979, Note_on_c, 13, 54, 0
21, 241980, Note_on_c, 13, 50, 100
21, 242039, Note_on_c, 13, 50, 0
21, 242760, Note_on_c, 13, 57, 100
21, 242819, Note_on_c, 13, 57, 0
21, 242820, Note_on_c, 13, 62, 100
21, 242879, Note_on_c, 13, 62, 0
21, 242880, Note_on_c, 13, 57, 100
21, 242939, Note_on_c, 13, 57, 0
21, 242940, Note_on_c, 13, 54, 100
21, 242999, Note_on_c, 13, 54, 0
21, 243000, Note_on_c, 13, 57, 100
21, 243059, Note_on_c, 13, 57, 0
21, 243060, Note_on_c, 13, 54, 100
21, 243119, Note_on_c, 13, 54, 0
21, 243120, Note_on_c, 13, 50, 100
21, 243179, Note_on_c, 13, 50, 0
21, 243180, Note_on_c, 13, 52, 100
21, 243209, Note_on_c, 13, 52, 0
21, 243210, Note_on_c, 13, 50, 100
21, 243239, Note_on_c, 13, 50, 0
21, 243240, Note_on_c, 13, 52, 100
21, 243269, Note_on_c, 13, 52, 0
21, 243270, Note_on_c, 13, 54, 100
21, 243299, Note_on_c, 13, 54, 0
21, 243300, Note_on_c, 13, 55, 100
21, 243329, Note_on_c, 13, 55, 0
21, 243330, Note_on_c, 13, 52, 100
21, 243359, Note_on_c, 13, 52, 0
21, 243360, Note_on_c, 13, 54, 100
21, 243419, Note_on_c, 13, 54, 0
21, 243420, Note_on_c, 13, 50, 100
21, 243479, Note_on_c, 13, 50, 0
21, 243480, Note_on_c, 13, 57, 100
21, 243539, Note_on_c, 13, 57, 0
21, 243540, Note_on_c, 13, 48, 100
21, 243599, Note_on_c, 13, 48, 0
21, 243600, Note_on_c, 13, 50, 100
21, 243629, Note_on_c, 13, 50, 0
21, 243630, Note_on_c, 13, 48, 100
21, 243659, Note_on_c, 13, 48, 0
21, 243660, Note_on_c, 13, 47, 100
21, 243689, Note_on_c, 13, 47, 0
21, 243690, Note_on_c, 13, 48, 100
21, 243719, Note_on_c, 13, 48, 0
21, 243720, Note_on_c, 13, 47, 100
21, 243839, Note_on_c, 13, 47, 0
21, 243840, Note_on_c, 13, 49, 100
21, 243899, Note_on_c, 13, 49, 0
21, 243900, Note_on_c, 13, 50, 100
21, 243959, Note_on_c, 13, 50, 0
21, 243960, Note_on_c, 13, 49, 100
21, 243989, Note_on_c, 13, 49, 0
21, 243990, Note_on_c, 13, 47, 100
21, 244019, Note_on_c, 13, 47, 0
21, 244020, Note_on_c, 13, 52, 100
21, 244079, Note_on_c, 13, 52, 0
21, 244080, Note_on_c, 13, 49, 100
21, 244199, Note_on_c, 13, 49, 0
21, 244200, Note_on_c, 13, 61, 100
21, 244259, Note_on_c, 13, 61, 0
21, 244260, Note_on_c, 13, 61, 100
21, 244319, Note_on_c, 13, 61, 0
21, 244320, Note_on_c, 13, 54, 100
21, 244379, Note_on_c, 13, 54, 0
21, 244560, Note_on_c, 13, 59, 100
21, 244619, Note_on_c, 13, 59, 0
21, 244620, Note_on_c, 13, 64, 100
21, 244679, Note_on_c, 13, 64, 0
21, 244680, Note_on_c, 13, 52, 100
21, 244739, Note_on_c, 13, 52, 0
21, 244920, Note_on_c, 13, 57, 100
21, 244979, Note_on_c, 13, 57, 0
21, 244980, Note_on_c, 13, 62, 100
21, 245009, Note_on_c, 13, 62, 0
21, 245010, Note_on_c, 13, 64, 100
21, 245039, Note_on_c, 13, 64, 0
21, 245040, Note_on_c, 13, 62, 100
21, 245069, Note_on_c, 13, 62, 0
21, 245070, Note_on_c, 13, 61, 100
21, 245099, Note_on_c, 13, 61, 0
21, 245100, Note_on_c, 13, 59, 100
21, 245129, Note_on_c, 13, 59, 0
21, 245130, Note_on_c, 13, 57, 100
21, 245159, Note_on_c, 13, 57, 0
21, 245160, Note_on_c, 13, 56, 100
21, 245189, Note_on_c, 13, 56, 0
21, 245190, Note_on_c, 13, 57, 100
21, 245219, Note_on_c, 13, 57, 0
21, 245220, Note_on_c, 13, 56, 100
21, 245249, Note_on_c, 13, 56, 0
21, 245250, Note_on_c, 13, 54, 100
21, 245279, Note_on_c, 13, 54, 0
21, 245280, Note_on_c, 13, 52, 100
21, 245309, Note_on_c, 13, 52, 0
21, 245310, Note_on_c, 13, 50, 100
21, 245339, Note_on_c, 13, 50, 0
21, 245340, Note_on_c, 13, 49, 100
21, 245369, Note_on_c, 13, 49, 0
21, 245370, Note_on_c, 13, 50, 100
21, 245399, Note_on_c, 13, 50, 0
21, 245400, Note_on_c, 13, 52, 100
21, 245429, Note_on_c, 13, 52, 0
21, 245430, Note_on_c, 13, 54, 100
21, 245459, Note_on_c, 13, 54, 0
21, 245460, Note_on_c, 13, 56, 100
21, 245489, Note_on_c, 13, 56, 0
21, 245490, Note_on_c, 13, 52, 100
21, 245519, Note_on_c, 13, 52, 0
21, 245520, Note_on_c, 13, 57, 100
21, 245579, Note_on_c, 13, 57, 0
21, 245580, Note_on_c, 13, 59, 100
21, 245609, Note_on_c, 13, 59, 0
21, 245610, Note_on_c, 13, 57, 100
21, 245639, Note_on_c, 13, 57, 0
21, 245640, Note_on_c, 13, 56, 100
21, 245669, Note_on_c, 13, 56, 0
21, 245670, Note_on_c, 13, 57, 100
21, 245699, Note_on_c, 13, 57, 0
21, 245700, Note_on_c, 13, 59, 100
21, 245759, Note_on_c, 13, 59, 0
21, 245760, Note_on_c, 13, 52, 100
21, 245819, Note_on_c, 13, 52, 0
21, 246000, Note_on_c, 13, 64, 100
21, 246059, Note_on_c, 13, 64, 0
21, 246060, Note_on_c, 13, 61, 100
21, 246089, Note_on_c, 13, 61, 0
21, 246090, Note_on_c, 13, 62, 100
21, 246119, Note_on_c, 13, 62, 0
21, 246120, Note_on_c, 13, 61, 100
21, 246149, Note_on_c, 13, 61, 0
21, 246150, Note_on_c, 13, 62, 100
21, 246179, Note_on_c, 13, 62, 0
21, 246180, Note_on_c, 13, 64, 100
21, 246209, Note_on_c, 13, 64, 0
21, 246210, Note_on_c, 13, 62, 100
21, 246239, Note_on_c, 13, 62, 0
21, 246240, Note_on_c, 13, 61, 100
21, 246269, Note_on_c, 13, 61, 0
21, 246270, Note_on_c, 13, 62, 100
21, 246299, Note_on_c, 13, 62, 0
21, 246300, Note_on_c, 13, 61, 100
21, 246329, Note_on_c, 13, 61, 0
21, 246330, Note_on_c, 13, 62, 100
21, 246359, Note_on_c, 13, 62, 0
21, 246360, Note_on_c, 13, 64, 100
21, 246389, Note_on_c, 13, 64, 0
21, 246390, Note_on_c, 13, 66, 100
21, 246419, Note_on_c, 13, 66, 0
21, 246420, Note_on_c, 13, 59, 100
21, 246449, Note_on_c, 13, 59, 0
21, 246450, Note_on_c, 13, 61, 100
21, 246479, Note_on_c, 13, 61, 0
21, 246480, Note_on_c, 13, 59, 100
21, 246509, Note_on_c, 13, 59, 0
21, 246510, Note_on_c, 13, 61, 100
21, 246539, Note_on_c, 13, 61, 0
21, 246540, Note_on_c, 13, 62, 100
21, 246569, Note_on_c, 13, 62, 0
21, 246570, Note_on_c, 13, 61, 100
21, 246599, Note_on_c, 13, 61, 0
21, 246600, Note_on_c, 13, 59, 100
21, 246629, Note_on_c, 13, 59, 0
21, 246630, Note_on_c, 13, 61, 100
21, 246659, Note_on_c, 13, 61, 0
21, 246660, Note_on_c, 13, 59, 100
21, 246689, Note_on_c, 13, 59, 0
21, 246690, Note_on_c, 13, 61, 100
21, 246719, Note_on_c, 13, 61, 0
21, 246720, Note_on_c, 13, 62, 100
21, 246749, Note_on_c, 13, 62, 0
21, 246750, Note_on_c, 13, 64, 100
21, 246779, Note_on_c, 13, 64, 0
21, 246780, Note_on_c, 13, 57, 100
21, 246809, Note_on_c, 13, 57, 0
21, 246810, Note_on_c, 13, 59, 100
21, 246839, Note_on_c, 13, 59, 0
21, 246840, Note_on_c, 13, 57, 100
21, 246869, Note_on_c, 13, 57, 0
21, 246870, Note_on_c, 13, 59, 100
21, 246899, Note_on_c, 13, 59, 0
21, 246900, Note_on_c, 13, 61, 100
21, 246929, Note_on_c, 13, 61, 0
21, 246930, Note_on_c, 13, 59, 100
21, 246959, Note_on_c, 13, 59, 0
21, 246960, Note_on_c, 13, 57, 100
21, 247019, Note_on_c, 13, 57, 0
21, 247020, Note_on_c, 13, 62, 100
21, 247049, Note_on_c, 13, 62, 0
21, 247050, Note_on_c, 13, 61, 100
21, 247079, Note_on_c, 13, 61, 0
21, 247080, Note_on_c, 13, 59, 100
21, 247109, Note_on_c, 13, 59, 0
21, 247110, Note_on_c, 13, 57, 100
21, 247139, Note_on_c, 13, 57, 0
21, 247140, Note_on_c, 13, 56, 100
21, 247199, Note_on_c, 13, 56, 0
21, 247200, Note_on_c, 13, 54, 100
21, 247229, Note_on_c, 13, 54, 0
21, 247230, Note_on_c, 13, 52, 100
21, 247259, Note_on_c, 13, 52, 0
21, 247260, Note_on_c, 13, 54, 100
21, 247289, Note_on_c, 13, 54, 0
21, 247290, Note_on_c, 13, 56, 100
21, 247319, Note_on_c, 13, 56, 0
21, 247320, Note_on_c, 13, 57, 100
21, 247920, Note_on_c, 13, 57, 0
21, 247920, Note_on_c, 13, 54, 74
21, 247979, Note_on_c, 13, 54, 0
21, 247980, Note_on_c, 13, 50, 68
21, 248039, Note_on_c, 13, 50, 0
21, 248040, Note_on_c, 13, 62, 69
21, 248099, Note_on_c, 13, 62, 0
21, 248100, Note_on_c, 13, 59, 66
21, 248159, Note_on_c, 13, 59, 0
21, 248160, Note_on_c, 13, 56, 76
21, 248219, Note_on_c, 13, 56, 0
21, 248220, Note_on_c, 13, 64, 64
21, 248279, Note_on_c, 13, 64, 0
21, 248280, Note_on_c, 13, 62, 67
21, 248309, Note_on_c, 13, 62, 0
21, 248310, Note_on_c, 13, 61, 64
21, 248339, Note_on_c, 13, 61, 0
21, 248340, Note_on_c, 13, 59, 68
21, 248369, Note_on_c, 13, 59, 0
21, 248370, Note_on_c, 13, 57, 69
21, 248399, Note_on_c, 13, 57, 0
21, 248400, Note_on_c, 13, 52, 71
21, 248489, Note_on_c, 13, 52, 0
21, 248490, Note_on_c, 13, 62, 71
21, 248519, Note_on_c, 13, 62, 0
21, 248520, Note_on_c, 13, 61, 66
21, 248579, Note_on_c, 13, 61, 0
21, 248580, Note_on_c, 13, 57, 57
21, 248699, Note_on_c, 13, 57, 0
21, 250140, Note_on_c, 13, 52, 70
21, 250199, Note_on_c, 13, 52, 0
21, 250200, Note_on_c, 13, 61, 70
21, 250229, Note_on_c, 13, 61, 0
21, 250230, Note_on_c, 13, 62, 78
21, 250259, Note_on_c, 13, 62, 0
21, 250260, Note_on_c, 13, 61, 72
21, 250289, Note_on_c, 13, 61, 0
21, 250290, Note_on_c, 13, 62, 66
21, 250319, Note_on_c, 13, 62, 0
21, 250320, Note_on_c, 13, 64, 67
21, 250349, Note_on_c, 13, 64, 0
21, 250350, Note_on_c, 13, 61, 69
21, 250379, Note_on_c, 13, 61, 0
21, 250380, Note_on_c, 13, 62, 65
21, 250409, Note_on_c, 13, 62, 0
21, 250410, Note_on_c, 13, 64, 69
21, 250439, Note_on_c, 13, 64, 0
21, 250440, Note_on_c, 13, 66, 64
21, 250469, Note_on_c, 13, 66, 0
21, 250470, Note_on_c, 13, 64, 65
21, 250499, Note_on_c, 13, 64, 0
21, 250500, Note_on_c, 13, 62, 63
21, 250529, Note_on_c, 13, 62, 0
21, 250530, Note_on_c, 13, 61, 70
21, 250559, Note_on_c, 13, 61, 0
21, 250560, Note_on_c, 13, 59, 54
21, 250589, Note_on_c, 13, 59, 0
21, 250590, Note_on_c, 13, 61, 73
21, 250619, Note_on_c, 13, 61, 0
21, 250620, Note_on_c, 13, 59, 58
21, 250649, Note_on_c, 13, 59, 0
21, 250650, Note_on_c, 13, 61, 64
21, 250679, Note_on_c, 13, 61, 0
21, 250680, Note_on_c, 13, 62, 54
21, 250709, Note_on_c, 13, 62, 0
21, 250710, Note_on_c, 13, 59, 62
21, 250739, Note_on_c, 13, 59, 0
21, 250740, Note_on_c, 13, 61, 62
21, 250769, Note_on_c, 13, 61, 0
21, 250770, Note_on_c, 13, 62, 64
21, 250799, Note_on_c, 13, 62, 0
21, 250800, Note_on_c, 13, 64, 58
21, 250829, Note_on_c, 13, 64, 0
21, 250830, Note_on_c, 13, 62, 58
21, 250859, Note_on_c, 13, 62, 0
21, 250860, Note_on_c, 13, 61, 55
21, 250889, Note_on_c, 13, 61, 0
21, 250890, Note_on_c, 13, 59, 55
21, 250919, Note_on_c, 13, 59, 0
21, 250920, Note_on_c, 13, 58, 71
21, 250949, Note_on_c, 13, 58, 0
21, 250950, Note_on_c, 13, 59, 56
21, 250979, Note_on_c, 13, 59, 0
21, 250980, Note_on_c, 13, 58, 64
21, 251009, Note_on_c, 13, 58, 0
21, 251010, Note_on_c, 13, 59, 64
21, 251039, Note_on_c, 13, 59, 0
21, 251040, Note_on_c, 13, 61, 72
21, 251069, Note_on_c, 13, 61, 0
21, 251070, Note_on_c, 13, 58, 73
21, 251099, Note_on_c, 13, 58, 0
21, 251100, Note_on_c, 13, 59, 57
21, 251129, Note_on_c, 13, 59, 0
21, 251130, Note_on_c, 13, 61, 60
21, 251159, Note_on_c, 13, 61, 0
21, 251160, Note_on_c, 13, 62, 61
21, 251189, Note_on_c, 13, 62, 0
21, 251190, Note_on_c, 13, 61, 63
21, 251219, Note_on_c, 13, 61, 0
21, 251220, Note_on_c, 13, 59, 58
21, 251249, Note_on_c, 13, 59, 0
21, 251250, Note_on_c, 13, 57, 59
21, 251279, Note_on_c, 13, 57, 0
21, 251280, Note_on_c, 13, 55, 71
21, 251339, Note_on_c, 13, 55, 0
21, 251340, Note_on_c, 13, 54, 73
21, 251369, Note_on_c, 13, 54, 0
21, 251370, Note_on_c, 13, 52, 70
21, 251399, Note_on_c, 13, 52, 0
21, 251400, Note_on_c, 13, 61, 48
21, 251459, Note_on_c, 13, 61, 0
21, 251460, Note_on_c, 13, 58, 72
21, 251579, Note_on_c, 13, 58, 0
21, 251580, Note_on_c, 13, 54, 75
21, 251639, Note_on_c, 13, 54, 0
21, 251640, Note_on_c, 13, 59, 79
21, 251699, Note_on_c, 13, 59, 0
21, 251700, Note_on_c, 13, 62, 78
21, 251759, Note_on_c, 13, 62, 0
21, 251760, Note_on_c, 13, 61, 73
21, 251819, Note_on_c, 13, 61, 0
21, 251820, Note_on_c, 13, 59, 74
21, 251879, Note_on_c, 13, 59, 0
21, 251880, Note_on_c, 13, 54, 76
21, 251939, Note_on_c, 13, 54, 0
21, 252000, Note_on_c, 13, 61, 72
21, 252059, Note_on_c, 13, 61, 0
21, 252060, Note_on_c, 13, 64, 64
21, 252119, Note_on_c, 13, 64, 0
21, 252120, Note_on_c, 13, 62, 72
21, 252179, Note_on_c, 13, 62, 0
21, 252180, Note_on_c, 13, 61, 64
21, 252239, Note_on_c, 13, 61, 0
21, 252240, Note_on_c, 13, 54, 77
21, 252299, Note_on_c, 13, 54, 0
21, 252300, Note_on_c, 13, 58, 76
21, 252359, Note_on_c, 13, 58, 0
21, 252360, Note_on_c, 13, 59, 71
21, 252389, Note_on_c, 13, 59, 0
21, 252390, Note_on_c, 13, 55, 62
21, 252419, Note_on_c, 13, 55, 0
21, 252420, Note_on_c, 13, 54, 74
21, 252449, Note_on_c, 13, 54, 0
21, 252450, Note_on_c, 13, 52, 74
21, 252479, Note_on_c, 13, 52, 0
21, 252480, Note_on_c, 13, 50, 70
21, 252509, Note_on_c, 13, 50, 0
21, 252510, Note_on_c, 13, 49, 72
21, 252539, Note_on_c, 13, 49, 0
21, 252540, Note_on_c, 13, 50, 68
21, 252569, Note_on_c, 13, 50, 0
21, 252570, Note_on_c, 13, 52, 68
21, 252599, Note_on_c, 13, 52, 0
21, 252600, Note_on_c, 13, 54, 49
21, 252659, Note_on_c, 13, 54, 0
21, 252660, Note_on_c, 13, 47, 68
21, 252719, Note_on_c, 13, 47, 0
21, 252780, Note_on_c, 13, 54, 70
21, 252809, Note_on_c, 13, 54, 0
21, 252810, Note_on_c, 13, 55, 60
21, 252839, Note_on_c, 13, 55, 0
21, 252840, Note_on_c, 13, 57, 61
21, 252869, Note_on_c, 13, 57, 0
21, 252870, Note_on_c, 13, 59, 68
21, 252899, Note_on_c, 13, 59, 0
21, 252900, Note_on_c, 13, 60, 79
21, 252959, Note_on_c, 13, 60, 0
21, 252960, Note_on_c, 13, 59, 69
21, 253019, Note_on_c, 13, 59, 0
21, 253020, Note_on_c, 13, 57, 72
21, 253079, Note_on_c, 13, 57, 0
21, 253080, Note_on_c, 13, 55, 69
21, 253139, Note_on_c, 13, 55, 0
21, 253140, Note_on_c, 13, 64, 65
21, 253169, Note_on_c, 13, 64, 0
21, 253170, Note_on_c, 13, 62, 57
21, 253199, Note_on_c, 13, 62, 0
21, 253200, Note_on_c, 13, 61, 70
21, 253229, Note_on_c, 13, 61, 0
21, 253230, Note_on_c, 13, 59, 72
21, 253259, Note_on_c, 13, 59, 0
21, 253260, Note_on_c, 13, 58, 77
21, 253289, Note_on_c, 13, 58, 0
21, 253290, Note_on_c, 13, 56, 62
21, 253319, Note_on_c, 13, 56, 0
21, 253320, Note_on_c, 13, 54, 70
21, 253349, Note_on_c, 13, 54, 0
21, 253350, Note_on_c, 13, 52, 69
21, 253379, Note_on_c, 13, 52, 0
21, 253380, Note_on_c, 13, 50, 79
21, 253409, Note_on_c, 13, 50, 0
21, 253410, Note_on_c, 13, 55, 74
21, 253439, Note_on_c, 13, 55, 0
21, 253440, Note_on_c, 13, 54, 69
21, 253469, Note_on_c, 13, 54, 0
21, 253470, Note_on_c, 13, 52, 59
21, 253499, Note_on_c, 13, 52, 0
21, 253500, Note_on_c, 13, 50, 66
21, 253559, Note_on_c, 13, 50, 0
21, 253560, Note_on_c, 13, 49, 72
21, 253589, Note_on_c, 13, 49, 0
21, 253590, Note_on_c, 13, 47, 68
21, 253619, Note_on_c, 13, 47, 0
21, 253620, Note_on_c, 13, 47, 76
21, 253739, Note_on_c, 13, 47, 0
21, 255900, Note_on_c, 13, 57, 80
21, 255959, Note_on_c, 13, 57, 0
21, 255960, Note_on_c, 13, 62, 70
21, 256019, Note_on_c, 13, 62, 0
21, 256020, Note_on_c, 13, 57, 75
21, 256079, Note_on_c, 13, 57, 0
21, 256080, Note_on_c, 13, 54, 84
21, 256139, Note_on_c, 13, 54, 0
21, 256140, Note_on_c, 13, 57, 60
21, 256199, Note_on_c, 13, 57, 0
21, 256200, Note_on_c, 13, 54, 71
21, 256259, Note_on_c, 13, 54, 0
21, 256260, Note_on_c, 13, 50, 70
21, 256319, Note_on_c, 13, 50, 0
21, 256320, Note_on_c, 13, 52, 59
21, 256349, Note_on_c, 13, 52, 0
21, 256350, Note_on_c, 13, 50, 63
21, 256379, Note_on_c, 13, 50, 0
21, 256380, Note_on_c, 13, 52, 68
21, 256409, Note_on_c, 13, 52, 0
21, 256410, Note_on_c, 13, 54, 60
21, 256439, Note_on_c, 13, 54, 0
21, 256440, Note_on_c, 13, 55, 66
21, 256469, Note_on_c, 13, 55, 0
21, 256470, Note_on_c, 13, 52, 65
21, 256499, Note_on_c, 13, 52, 0
21, 256500, Note_on_c, 13, 54, 75
21, 256559, Note_on_c, 13, 54, 0
21, 256560, Note_on_c, 13, 50, 72
21, 256619, Note_on_c, 13, 50, 0
21, 258060, Note_on_c, 13, 57, 75
21, 258119, Note_on_c, 13, 57, 0
21, 258120, Note_on_c, 13, 62, 58
21, 258179, Note_on_c, 13, 62, 0
21, 258180, Note_on_c, 13, 57, 72
21, 258239, Note_on_c, 13, 57, 0
21, 258240, Note_on_c, 13, 54, 48
21, 258299, Note_on_c, 13, 54, 0
21, 258300, Note_on_c, 13, 57, 56
21, 258359, Note_on_c, 13, 57, 0
21, 258360, Note_on_c, 13, 54, 65
21, 258419, Note_on_c, 13, 54, 0
21, 258420, Note_on_c, 13, 50, 68
21, 258479, Note_on_c, 13, 50, 0
21, 258480, Note_on_c, 13, 52, 72
21, 258509, Note_on_c, 13, 52, 0
21, 258510, Note_on_c, 13, 50, 68
21, 258539, Note_on_c, 13, 50, 0
21, 258540, Note_on_c, 13, 52, 69
21, 258569, Note_on_c, 13, 52, 0
21, 258570, Note_on_c, 13, 54, 68
21, 258599, Note_on_c, 13, 54, 0
21, 258600, Note_on_c, 13, 55, 70
21, 258629, Note_on_c, 13, 55, 0
21, 258630, Note_on_c, 13, 52, 64
21, 258659, Note_on_c, 13, 52, 0
21, 258660, Note_on_c, 13, 54, 70
21, 258719, Note_on_c, 13, 54, 0
21, 258720, Note_on_c, 13, 50, 61
21, 258779, Note_on_c, 13, 50, 0
21, 258780, Note_on_c, 13, 57, 74
21, 258839, Note_on_c, 13, 57, 0
21, 258840, Note_on_c, 13, 60, 72
21, 258899, Note_on_c, 13, 60, 0
21, 258900, Note_on_c, 13, 62, 69
21, 258929, Note_on_c, 13, 62, 0
21, 258930, Note_on_c, 13, 59, 78
21, 258959, Note_on_c, 13, 59, 0
21, 258960, Note_on_c, 13, 60, 79
21, 259019, Note_on_c, 13, 60, 0
21, 259020, Note_on_c, 13, 59, 77
21, 259139, Note_on_c, 13, 59, 0
21, 259140, Note_on_c, 13, 59, 74
21, 259199, Note_on_c, 13, 59, 0
21, 259200, Note_on_c, 13, 50, 67
21, 259259, Note_on_c, 13, 50, 0
21, 259260, Note_on_c, 13, 49, 59
21, 259289, Note_on_c, 13, 49, 0
21, 259290, Note_on_c, 13, 47, 62
21, 259319, Note_on_c, 13, 47, 0
21, 259320, Note_on_c, 13, 52, 67
21, 259379, Note_on_c, 13, 52, 0
21, 259380, Note_on_c, 13, 49, 65
21, 259499, Note_on_c, 13, 49, 0
21, 259500, Note_on_c, 13, 57, 39
21, 259559, Note_on_c, 13, 57, 0
21, 259560, Note_on_c, 13, 51, 71
21, 259799, Note_on_c, 13, 51, 0
21, 259800, Note_on_c, 13, 52, 58
21, 259829, Note_on_c, 13, 52, 0
21, 259830, Note_on_c, 13, 51, 55
21, 259859, Note_on_c, 13, 51, 0
21, 259860, Note_on_c, 13, 49, 66
21, 259889, Note_on_c, 13, 49, 0
21, 259890, Note_on_c, 13, 51, 54
21, 259919, Note_on_c, 13, 51, 0
21, 259920, Note_on_c, 13, 52, 70
21, 259979, Note_on_c, 13, 52, 0
21, 260040, Note_on_c, 13, 59, 74
21, 260099, Note_on_c, 13, 59, 0
21, 260100, Note_on_c, 13, 64, 64
21, 260159, Note_on_c, 13, 64, 0
21, 260160, Note_on_c, 13, 52, 81
21, 260219, Note_on_c, 13, 52, 0
21, 260220, Note_on_c, 13, 55, 79
21, 260279, Note_on_c, 13, 55, 0
21, 260280, Note_on_c, 13, 49, 77
21, 260519, Note_on_c, 13, 49, 0
21, 260520, Note_on_c, 13, 50, 68
21, 260549, Note_on_c, 13, 50, 0
21, 260550, Note_on_c, 13, 49, 72
21, 260579, Note_on_c, 13, 49, 0
21, 260580, Note_on_c, 13, 47, 67
21, 260609, Note_on_c, 13, 47, 0
21, 260610, Note_on_c, 13, 49, 78
21, 260639, Note_on_c, 13, 49, 0
21, 260640, Note_on_c, 13, 50, 71
21, 260699, Note_on_c, 13, 50, 0
21, 260760, Note_on_c, 13, 57, 74
21, 260819, Note_on_c, 13, 57, 0
21, 260820, Note_on_c, 13, 62, 58
21, 260879, Note_on_c, 13, 62, 0
21, 260880, Note_on_c, 13, 50, 69
21, 260939, Note_on_c, 13, 50, 0
21, 261120, Note_on_c, 13, 59, 75
21, 261179, Note_on_c, 13, 59, 0
21, 261180, Note_on_c, 13, 61, 75
21, 261239, Note_on_c, 13, 61, 0
21, 261240, Note_on_c, 13, 49, 79
21, 261299, Note_on_c, 13, 49, 0
21, 261480, Note_on_c, 13, 54, 76
21, 261539, Note_on_c, 13, 54, 0
21, 261540, Note_on_c, 13, 59, 69
21, 261599, Note_on_c, 13, 59, 0
21, 261600, Note_on_c, 13, 47, 70
21, 261659, Note_on_c, 13, 47, 0
21, 261840, Note_on_c, 13, 52, 74
21, 261899, Note_on_c, 13, 52, 0
21, 261900, Note_on_c, 13, 57, 54
21, 261959, Note_on_c, 13, 57, 0
21, 261960, Note_on_c, 13, 45, 67
21, 262019, Note_on_c, 13, 45, 0
21, 262020, Note_on_c, 13, 57, 62
21, 262079, Note_on_c, 13, 57, 0
21, 262080, Note_on_c, 13, 59, 56
21, 262139, Note_on_c, 13, 59, 0
21, 262140, Note_on_c, 13, 61, 69
21, 262169, Note_on_c, 13, 61, 0
21, 262170, Note_on_c, 13, 59, 69
21, 262199, Note_on_c, 13, 59, 0
21, 262200, Note_on_c, 13, 57, 64
21, 262229, Note_on_c, 13, 57, 0
21, 262230, Note_on_c, 13, 55, 70
21, 262259, Note_on_c, 13, 55, 0
21, 262260, Note_on_c, 13, 54, 70
21, 262289, Note_on_c, 13, 54, 0
21, 262290, Note_on_c, 13, 57, 62
21, 262319, Note_on_c, 13, 57, 0
21, 262320, Note_on_c, 13, 55, 66
21, 262349, Note_on_c, 13, 55, 0
21, 262350, Note_on_c, 13, 54, 66
21, 262379, Note_on_c, 13, 54, 0
21, 262380, Note_on_c, 13, 52, 69
21, 262409, Note_on_c, 13, 52, 0
21, 262410, Note_on_c, 13, 50, 69
21, 262439, Note_on_c, 13, 50, 0
21, 262440, Note_on_c, 13, 57, 70
21, 262499, Note_on_c, 13, 57, 0
21, 262500, Note_on_c, 13, 45, 68
21, 262559, Note_on_c, 13, 45, 0
21, 262560, Note_on_c, 13, 57, 70
21, 262619, Note_on_c, 13, 57, 0
21, 262620, Note_on_c, 13, 57, 70
21, 263580, Note_on_c, 13, 57, 0
21, 263580, Note_on_c, 13, 55, 57
21, 263609, Note_on_c, 13, 55, 0
21, 263610, Note_on_c, 13, 54, 63
21, 263639, Note_on_c, 13, 54, 0
21, 263640, Note_on_c, 13, 55, 68
21, 263699, Note_on_c, 13, 55, 0
21, 263700, Note_on_c, 13, 54, 70
21, 263759, Note_on_c, 13, 54, 0
21, 263820, Note_on_c, 13, 50, 79
21, 263879, Note_on_c, 13, 50, 0
21, 263880, Note_on_c, 13, 59, 54
21, 263939, Note_on_c, 13, 59, 0
21, 263940, Note_on_c, 13, 55, 72
21, 263999, Note_on_c, 13, 55, 0
21, 264000, Note_on_c, 13, 52, 74
21, 264059, Note_on_c, 13, 52, 0
21, 264060, Note_on_c, 13, 61, 79
21, 264119, Note_on_c, 13, 61, 0
21, 264120, Note_on_c, 13, 57, 70
21, 264179, Note_on_c, 13, 57, 0
21, 264180, Note_on_c, 13, 54, 62
21, 264239, Note_on_c, 13, 54, 0
21, 264240, Note_on_c, 13, 62, 65
21, 264269, Note_on_c, 13, 62, 0
21, 264270, Note_on_c, 13, 64, 68
21, 264299, Note_on_c, 13, 64, 0
21, 264300, Note_on_c, 13, 62, 69
21, 264329, Note_on_c, 13, 62, 0
21, 264330, Note_on_c, 13, 61, 75
21, 264359, Note_on_c, 13, 61, 0
21, 264360, Note_on_c, 13, 59, 73
21, 264389, Note_on_c, 13, 59, 0
21, 264390, Note_on_c, 13, 57, 73
21, 264419, Note_on_c, 13, 57, 0
21, 264420, Note_on_c, 13, 55, 77
21, 264449, Note_on_c, 13, 55, 0
21, 264450, Note_on_c, 13, 59, 75
21, 264479, Note_on_c, 13, 59, 0
21, 264480, Note_on_c, 13, 64, 57
21, 264509, Note_on_c, 13, 64, 0
21, 264510, Note_on_c, 13, 62, 64
21, 264539, Note_on_c, 13, 62, 0
21, 264540, Note_on_c, 13, 61, 60
21, 264569, Note_on_c, 13, 61, 0
21, 264570, Note_on_c, 13, 59, 55
21, 264599, Note_on_c, 13, 59, 0
21, 264600, Note_on_c, 13, 61, 66
21, 264629, Note_on_c, 13, 61, 0
21, 264630, Note_on_c, 13, 62, 64
21, 264659, Note_on_c, 13, 62, 0
21, 264660, Note_on_c, 13, 61, 68
21, 264689, Note_on_c, 13, 61, 0
21, 264690, Note_on_c, 13, 59, 68
21, 264719, Note_on_c, 13, 59, 0
21, 264720, Note_on_c, 13, 57, 63
21, 264749, Note_on_c, 13, 57, 0
21, 264750, Note_on_c, 13, 55, 67
21, 264779, Note_on_c, 13, 55, 0
21, 264780, Note_on_c, 13, 54, 66
21, 264809, Note_on_c, 13, 54, 0
21, 264810, Note_on_c, 13, 57, 61
21, 264839, Note_on_c, 13, 57, 0
21, 264840, Note_on_c, 13, 62, 62
21, 264869, Note_on_c, 13, 62, 0
21, 264870, Note_on_c, 13, 61, 59
21, 264899, Note_on_c, 13, 61, 0
21, 264900, Note_on_c, 13, 59, 37
21, 264929, Note_on_c, 13, 59, 0
21, 264930, Note_on_c, 13, 57, 71
21, 264959, Note_on_c, 13, 57, 0
21, 264960, Note_on_c, 13, 59, 81
21, 264989, Note_on_c, 13, 59, 0
21, 264990, Note_on_c, 13, 57, 78
21, 265019, Note_on_c, 13, 57, 0
21, 265020, Note_on_c, 13, 55, 73
21, 265049, Note_on_c, 13, 55, 0
21, 265050, Note_on_c, 13, 54, 85
21, 265079, Note_on_c, 13, 54, 0
21, 265080, Note_on_c, 13, 52, 69
21, 265109, Note_on_c, 13, 52, 0
21, 265110, Note_on_c, 13, 50, 73
21, 265139, Note_on_c, 13, 50, 0
21, 265140, Note_on_c, 13, 57, 85
21, 265199, Note_on_c, 13, 57, 0
21, 265200, Note_on_c, 13, 57, 90
21, 265259, Note_on_c, 13, 57, 0
21, 265260, Note_on_c, 13, 62, 78
21, 265319, Note_on_c, 13, 62, 0
21, 265320, Note_on_c, 13, 59, 77
21, 265379, Note_on_c, 13, 59, 0
21, 265380, Note_on_c, 13, 55, 69
21, 265439, Note_on_c, 13, 55, 0
21, 265440, Note_on_c, 13, 52, 67
21, 265499, Note_on_c, 13, 52, 0
21, 265500, Note_on_c, 13, 49, 75
21, 265559, Note_on_c, 13, 49, 0
21, 265560, Note_on_c, 13, 45, 74
21, 265619, Note_on_c, 13, 45, 0
21, 265620, Note_on_c, 13, 57, 85
21, 265679, Note_on_c, 13, 57, 0
21, 265680, Note_on_c, 13, 57, 78
21, 265739, Note_on_c, 13, 57, 0
21, 265740, Note_on_c, 13, 55, 71
21, 265769, Note_on_c, 13, 55, 0
21, 265770, Note_on_c, 13, 54, 59
21, 265799, Note_on_c, 13, 54, 0
21, 265800, Note_on_c, 13, 52, 60
21, 265829, Note_on_c, 13, 52, 0
21, 265830, Note_on_c, 13, 54, 66
21, 265859, Note_on_c, 13, 54, 0
21, 265860, Note_on_c, 13, 50, 85
21, 265919, Note_on_c, 13, 50, 0
21, 265920, Note_on_c, 13, 50, 85
21, 265979, Note_on_c, 13, 50, 0
21, 265979, End_track
22, 0, Start_track
22, 0, MIDI_port, 0
22, 0, Title_t, "sopr"
22, 0, Program_c, 12, 52
22, 10020, Note_on_c, 12, 69, 127
22, 10079, Note_on_c, 12, 69, 0
22, 10080, Note_on_c, 12, 66, 127
22, 10109, Note_on_c, 12, 66, 0
22, 10110, Note_on_c, 12, 62, 127
22, 10139, Note_on_c, 12, 62, 0
22, 10140, Note_on_c, 12, 64, 127
22, 10169, Note_on_c, 12, 64, 0
22, 10170, Note_on_c, 12, 66, 127
22, 10199, Note_on_c, 12, 66, 0
22, 10200, Note_on_c, 12, 67, 127
22, 10229, Note_on_c, 12, 67, 0
22, 10230, Note_on_c, 12, 69, 127
22, 10259, Note_on_c, 12, 69, 0
22, 10260, Note_on_c, 12, 71, 127
22, 10289, Note_on_c, 12, 71, 0
22, 10290, Note_on_c, 12, 73, 127
22, 10319, Note_on_c, 12, 73, 0
22, 10320, Note_on_c, 12, 74, 127
22, 10349, Note_on_c, 12, 74, 0
22, 10350, Note_on_c, 12, 73, 127
22, 10379, Note_on_c, 12, 73, 0
22, 10380, Note_on_c, 12, 74, 127
22, 10409, Note_on_c, 12, 74, 0
22, 10410, Note_on_c, 12, 73, 127
22, 10439, Note_on_c, 12, 73, 0
22, 10440, Note_on_c, 12, 74, 127
22, 10469, Note_on_c, 12, 74, 0
22, 10470, Note_on_c, 12, 66, 127
22, 10499, Note_on_c, 12, 66, 0
22, 10500, Note_on_c, 12, 67, 127
22, 10529, Note_on_c, 12, 67, 0
22, 10530, Note_on_c, 12, 69, 127
22, 10559, Note_on_c, 12, 69, 0
22, 10560, Note_on_c, 12, 71, 127
22, 10589, Note_on_c, 12, 71, 0
22, 10590, Note_on_c, 12, 73, 127
22, 10619, Note_on_c, 12, 73, 0
22, 10620, Note_on_c, 12, 74, 127
22, 10649, Note_on_c, 12, 74, 0
22, 10650, Note_on_c, 12, 76, 127
22, 10679, Note_on_c, 12, 76, 0
22, 10680, Note_on_c, 12, 78, 127
22, 10709, Note_on_c, 12, 78, 0
22, 10710, Note_on_c, 12, 76, 127
22, 10739, Note_on_c, 12, 76, 0
22, 10740, Note_on_c, 12, 78, 127
22, 10769, Note_on_c, 12, 78, 0
22, 10770, Note_on_c, 12, 76, 127
22, 10799, Note_on_c, 12, 76, 0
22, 10800, Note_on_c, 12, 78, 127
22, 10829, Note_on_c, 12, 78, 0
22, 10830, Note_on_c, 12, 74, 127
22, 10859, Note_on_c, 12, 74, 0
22, 10860, Note_on_c, 12, 73, 127
22, 10889, Note_on_c, 12, 73, 0
22, 10890, Note_on_c, 12, 71, 127
22, 10919, Note_on_c, 12, 71, 0
22, 10920, Note_on_c, 12, 69, 127
22, 10949, Note_on_c, 12, 69, 0
22, 10950, Note_on_c, 12, 67, 127
22, 10979, Note_on_c, 12, 67, 0
22, 10980, Note_on_c, 12, 66, 127
22, 11009, Note_on_c, 12, 66, 0
22, 11010, Note_on_c, 12, 64, 127
22, 11039, Note_on_c, 12, 64, 0
22, 11040, Note_on_c, 12, 62, 127
22, 11099, Note_on_c, 12, 62, 0
22, 11100, Note_on_c, 12, 69, 127
22, 11129, Note_on_c, 12, 69, 0
22, 11130, Note_on_c, 12, 69, 127
22, 11159, Note_on_c, 12, 69, 0
22, 11160, Note_on_c, 12, 71, 127
22, 11189, Note_on_c, 12, 71, 0
22, 11190, Note_on_c, 12, 79, 127
22, 11219, Note_on_c, 12, 79, 0
22, 11220, Note_on_c, 12, 78, 127
22, 11249, Note_on_c, 12, 78, 0
22, 11250, Note_on_c, 12, 76, 127
22, 11279, Note_on_c, 12, 76, 0
22, 11280, Note_on_c, 12, 74, 127
22, 11309, Note_on_c, 12, 74, 0
22, 11310, Note_on_c, 12, 72, 127
22, 11339, Note_on_c, 12, 72, 0
22, 11340, Note_on_c, 12, 71, 127
22, 11369, Note_on_c, 12, 71, 0
22, 11370, Note_on_c, 12, 69, 127
22, 11399, Note_on_c, 12, 69, 0
22, 11400, Note_on_c, 12, 67, 127
22, 11459, Note_on_c, 12, 67, 0
22, 11460, Note_on_c, 12, 71, 127
22, 11489, Note_on_c, 12, 71, 0
22, 11490, Note_on_c, 12, 69, 127
22, 11519, Note_on_c, 12, 69, 0
22, 11520, Note_on_c, 12, 69, 127
22, 11579, Note_on_c, 12, 69, 0
22, 11580, Note_on_c, 12, 66, 127
22, 11639, Note_on_c, 12, 66, 0
22, 11700, Note_on_c, 12, 74, 127
22, 11759, Note_on_c, 12, 74, 0
22, 11760, Note_on_c, 12, 69, 127
22, 11819, Note_on_c, 12, 69, 0
22, 11820, Note_on_c, 12, 67, 127
22, 11849, Note_on_c, 12, 67, 0
22, 11850, Note_on_c, 12, 66, 127
22, 11879, Note_on_c, 12, 66, 0
22, 11880, Note_on_c, 12, 64, 127
22, 11999, Note_on_c, 12, 64, 0
22, 14340, Note_on_c, 12, 73, 127
22, 14399, Note_on_c, 12, 73, 0
22, 14400, Note_on_c, 12, 74, 127
22, 14459, Note_on_c, 12, 74, 0
22, 14460, Note_on_c, 12, 69, 127
22, 14519, Note_on_c, 12, 69, 0
22, 14700, Note_on_c, 12, 74, 127
22, 14759, Note_on_c, 12, 74, 0
22, 14760, Note_on_c, 12, 78, 127
22, 14819, Note_on_c, 12, 78, 0
22, 14820, Note_on_c, 12, 76, 127
22, 14879, Note_on_c, 12, 76, 0
22, 15060, Note_on_c, 12, 78, 127
22, 15119, Note_on_c, 12, 78, 0
22, 15120, Note_on_c, 12, 81, 127
22, 15179, Note_on_c, 12, 81, 0
22, 15180, Note_on_c, 12, 78, 127
22, 15209, Note_on_c, 12, 78, 0
22, 15210, Note_on_c, 12, 74, 127
22, 15239, Note_on_c, 12, 74, 0
22, 15240, Note_on_c, 12, 69, 127
22, 15359, Note_on_c, 12, 69, 0
22, 15420, Note_on_c, 12, 69, 127
22, 15479, Note_on_c, 12, 69, 0
22, 15480, Note_on_c, 12, 66, 127
22, 15509, Note_on_c, 12, 66, 0
22, 15510, Note_on_c, 12, 62, 127
22, 15539, Note_on_c, 12, 62, 0
22, 15540, Note_on_c, 12, 64, 127
22, 15569, Note_on_c, 12, 64, 0
22, 15570, Note_on_c, 12, 66, 127
22, 15599, Note_on_c, 12, 66, 0
22, 15600, Note_on_c, 12, 67, 127
22, 15629, Note_on_c, 12, 67, 0
22, 15630, Note_on_c, 12, 69, 127
22, 15659, Note_on_c, 12, 69, 0
22, 15660, Note_on_c, 12, 71, 127
22, 15689, Note_on_c, 12, 71, 0
22, 15690, Note_on_c, 12, 73, 127
22, 15719, Note_on_c, 12, 73, 0
22, 15720, Note_on_c, 12, 74, 127
22, 15779, Note_on_c, 12, 74, 0
22, 15780, Note_on_c, 12, 69, 127
22, 15809, Note_on_c, 12, 69, 0
22, 15810, Note_on_c, 12, 69, 127
22, 15839, Note_on_c, 12, 69, 0
22, 15840, Note_on_c, 12, 69, 127
22, 15869, Note_on_c, 12, 69, 0
22, 15870, Note_on_c, 12, 66, 127
22, 15899, Note_on_c, 12, 66, 0
22, 15900, Note_on_c, 12, 67, 127
22, 15929, Note_on_c, 12, 67, 0
22, 15930, Note_on_c, 12, 69, 127
22, 15959, Note_on_c, 12, 69, 0
22, 15960, Note_on_c, 12, 71, 127
22, 15989, Note_on_c, 12, 71, 0
22, 15990, Note_on_c, 12, 73, 127
22, 16019, Note_on_c, 12, 73, 0
22, 16020, Note_on_c, 12, 74, 127
22, 16049, Note_on_c, 12, 74, 0
22, 16050, Note_on_c, 12, 76, 127
22, 16079, Note_on_c, 12, 76, 0
22, 16080, Note_on_c, 12, 78, 127
22, 16139, Note_on_c, 12, 78, 0
22, 16140, Note_on_c, 12, 74, 127
22, 16169, Note_on_c, 12, 74, 0
22, 16170, Note_on_c, 12, 74, 127
22, 16199, Note_on_c, 12, 74, 0
22, 16200, Note_on_c, 12, 74, 127
22, 16259, Note_on_c, 12, 74, 0
22, 16260, Note_on_c, 12, 73, 127
22, 16289, Note_on_c, 12, 73, 0
22, 16290, Note_on_c, 12, 71, 127
22, 16319, Note_on_c, 12, 71, 0
22, 16320, Note_on_c, 12, 69, 127
22, 16349, Note_on_c, 12, 69, 0
22, 16350, Note_on_c, 12, 67, 127
22, 16379, Note_on_c, 12, 67, 0
22, 16380, Note_on_c, 12, 66, 127
22, 16409, Note_on_c, 12, 66, 0
22, 16410, Note_on_c, 12, 64, 127
22, 16439, Note_on_c, 12, 64, 0
22, 16440, Note_on_c, 12, 62, 127
22, 16499, Note_on_c, 12, 62, 0
22, 16500, Note_on_c, 12, 62, 127
22, 16529, Note_on_c, 12, 62, 0
22, 16530, Note_on_c, 12, 62, 127
22, 16559, Note_on_c, 12, 62, 0
22, 16560, Note_on_c, 12, 64, 127
22, 16860, Note_on_c, 12, 64, 0
22, 16860, Note_on_c, 12, 74, 127
22, 16920, Note_on_c, 12, 74, 0
22, 16920, Note_on_c, 12, 73, 127
22, 16980, Note_on_c, 12, 73, 0
22, 16980, Note_on_c, 12, 78, 127
22, 17040, Note_on_c, 12, 78, 0
22, 17040, Note_on_c, 12, 76, 127
22, 17100, Note_on_c, 12, 76, 0
22, 17100, Note_on_c, 12, 69, 127
22, 17160, Note_on_c, 12, 69, 0
22, 17160, Note_on_c, 12, 74, 127
22, 17189, Note_on_c, 12, 74, 0
22, 17190, Note_on_c, 12, 73, 127
22, 17219, Note_on_c, 12, 73, 0
22, 17220, Note_on_c, 12, 71, 127
22, 17249, Note_on_c, 12, 71, 0
22, 17250, Note_on_c, 12, 73, 127
22, 17279, Note_on_c, 12, 73, 0
22, 17280, Note_on_c, 12, 69, 127
22, 17399, Note_on_c, 12, 69, 0
22, 21060, Note_on_c, 12, 73, 127
22, 21120, Note_on_c, 12, 73, 0
22, 21120, Note_on_c, 12, 73, 127
22, 21180, Note_on_c, 12, 73, 0
22, 21180, Note_on_c, 12, 69, 127
22, 21240, Note_on_c, 12, 69, 0
22, 21300, Note_on_c, 12, 69, 127
22, 21360, Note_on_c, 12, 69, 0
22, 21360, Note_on_c, 12, 72, 127
22, 21420, Note_on_c, 12, 72, 0
22, 21420, Note_on_c, 12, 69, 127
22, 21449, Note_on_c, 12, 69, 0
22, 21450, Note_on_c, 12, 69, 127
22, 21479, Note_on_c, 12, 69, 0
22, 21480, Note_on_c, 12, 78, 127
22, 21540, Note_on_c, 12, 78, 0
22, 21540, Note_on_c, 12, 75, 127
22, 21569, Note_on_c, 12, 75, 0
22, 21570, Note_on_c, 12, 76, 127
22, 21599, Note_on_c, 12, 76, 0
22, 21600, Note_on_c, 12, 75, 127
22, 21959, Note_on_c, 12, 75, 0
22, 22020, Note_on_c, 12, 76, 127
22, 22080, Note_on_c, 12, 76, 0
22, 22080, Note_on_c, 12, 76, 127
22, 22140, Note_on_c, 12, 76, 0
22, 22140, Note_on_c, 12, 71, 127
22, 22200, Note_on_c, 12, 71, 0
22, 22260, Note_on_c, 12, 76, 127
22, 22320, Note_on_c, 12, 76, 0
22, 22320, Note_on_c, 12, 79, 127
22, 22380, Note_on_c, 12, 79, 0
22, 22380, Note_on_c, 12, 76, 127
22, 22440, Note_on_c, 12, 76, 0
22, 22500, Note_on_c, 12, 76, 127
22, 22560, Note_on_c, 12, 76, 0
22, 22560, Note_on_c, 12, 76, 127
22, 22620, Note_on_c, 12, 76, 0
22, 22620, Note_on_c, 12, 73, 127
22, 22649, Note_on_c, 12, 73, 0
22, 22650, Note_on_c, 12, 74, 127
22, 22679, Note_on_c, 12, 74, 0
22, 22680, Note_on_c, 12, 73, 127
22, 23039, Note_on_c, 12, 73, 0
22, 23220, Note_on_c, 12, 78, 127
22, 23279, Note_on_c, 12, 78, 0
22, 23280, Note_on_c, 12, 78, 127
22, 23339, Note_on_c, 12, 78, 0
22, 23340, Note_on_c, 12, 78, 127
22, 23369, Note_on_c, 12, 78, 0
22, 23370, Note_on_c, 12, 78, 127
22, 23399, Note_on_c, 12, 78, 0
22, 23400, Note_on_c, 12, 78, 127
22, 23459, Note_on_c, 12, 78, 0
22, 23460, Note_on_c, 12, 79, 127
22, 23489, Note_on_c, 12, 79, 0
22, 23490, Note_on_c, 12, 78, 127
22, 23519, Note_on_c, 12, 78, 0
22, 23520, Note_on_c, 12, 76, 127
22, 23579, Note_on_c, 12, 76, 0
22, 23580, Note_on_c, 12, 76, 127
22, 23639, Note_on_c, 12, 76, 0
22, 23640, Note_on_c, 12, 76, 127
22, 23699, Note_on_c, 12, 76, 0
22, 23700, Note_on_c, 12, 76, 127
22, 23729, Note_on_c, 12, 76, 0
22, 23730, Note_on_c, 12, 76, 127
22, 23759, Note_on_c, 12, 76, 0
22, 23760, Note_on_c, 12, 76, 127
22, 23819, Note_on_c, 12, 76, 0
22, 23820, Note_on_c, 12, 78, 127
22, 23849, Note_on_c, 12, 78, 0
22, 23850, Note_on_c, 12, 76, 127
22, 23879, Note_on_c, 12, 76, 0
22, 23880, Note_on_c, 12, 74, 127
22, 23939, Note_on_c, 12, 74, 0
22, 23940, Note_on_c, 12, 74, 127
22, 23999, Note_on_c, 12, 74, 0
22, 24000, Note_on_c, 12, 74, 127
22, 24059, Note_on_c, 12, 74, 0
22, 24060, Note_on_c, 12, 74, 127
22, 24089, Note_on_c, 12, 74, 0
22, 24090, Note_on_c, 12, 74, 127
22, 24119, Note_on_c, 12, 74, 0
22, 24120, Note_on_c, 12, 74, 127
22, 24179, Note_on_c, 12, 74, 0
22, 24180, Note_on_c, 12, 76, 127
22, 24209, Note_on_c, 12, 76, 0
22, 24210, Note_on_c, 12, 74, 127
22, 24239, Note_on_c, 12, 74, 0
22, 24240, Note_on_c, 12, 73, 127
22, 24359, Note_on_c, 12, 73, 0
22, 24420, Note_on_c, 12, 69, 127
22, 24479, Note_on_c, 12, 69, 0
22, 24480, Note_on_c, 12, 69, 127
22, 24509, Note_on_c, 12, 69, 0
22, 24510, Note_on_c, 12, 66, 127
22, 24539, Note_on_c, 12, 66, 0
22, 24540, Note_on_c, 12, 67, 127
22, 24569, Note_on_c, 12, 67, 0
22, 24570, Note_on_c, 12, 69, 127
22, 24599, Note_on_c, 12, 69, 0
22, 24600, Note_on_c, 12, 71, 127
22, 24629, Note_on_c, 12, 71, 0
22, 24630, Note_on_c, 12, 73, 127
22, 24659, Note_on_c, 12, 73, 0
22, 24660, Note_on_c, 12, 74, 127
22, 24689, Note_on_c, 12, 74, 0
22, 24690, Note_on_c, 12, 76, 127
22, 24719, Note_on_c, 12, 76, 0
22, 24720, Note_on_c, 12, 78, 127
22, 24779, Note_on_c, 12, 78, 0
22, 24780, Note_on_c, 12, 74, 127
22, 24809, Note_on_c, 12, 74, 0
22, 24810, Note_on_c, 12, 74, 127
22, 24839, Note_on_c, 12, 74, 0
22, 24840, Note_on_c, 12, 74, 127
22, 24899, Note_on_c, 12, 74, 0
22, 24900, Note_on_c, 12, 68, 127
22, 24929, Note_on_c, 12, 68, 0
22, 24930, Note_on_c, 12, 69, 127
22, 24959, Note_on_c, 12, 69, 0
22, 24960, Note_on_c, 12, 71, 127
22, 24989, Note_on_c, 12, 71, 0
22, 24990, Note_on_c, 12, 73, 127
22, 25019, Note_on_c, 12, 73, 0
22, 25020, Note_on_c, 12, 74, 127
22, 25049, Note_on_c, 12, 74, 0
22, 25050, Note_on_c, 12, 76, 127
22, 25079, Note_on_c, 12, 76, 0
22, 25080, Note_on_c, 12, 77, 127
22, 25139, Note_on_c, 12, 77, 0
22, 25140, Note_on_c, 12, 74, 127
22, 25169, Note_on_c, 12, 74, 0
22, 25170, Note_on_c, 12, 74, 127
22, 25199, Note_on_c, 12, 74, 0
22, 25200, Note_on_c, 12, 74, 127
22, 25229, Note_on_c, 12, 74, 0
22, 25230, Note_on_c, 12, 62, 127
22, 25259, Note_on_c, 12, 62, 0
22, 25260, Note_on_c, 12, 64, 127
22, 25289, Note_on_c, 12, 64, 0
22, 25290, Note_on_c, 12, 66, 127
22, 25319, Note_on_c, 12, 66, 0
22, 25320, Note_on_c, 12, 68, 127
22, 25349, Note_on_c, 12, 68, 0
22, 25350, Note_on_c, 12, 69, 127
22, 25379, Note_on_c, 12, 69, 0
22, 25380, Note_on_c, 12, 71, 127
22, 25409, Note_on_c, 12, 71, 0
22, 25410, Note_on_c, 12, 73, 127
22, 25439, Note_on_c, 12, 73, 0
22, 25440, Note_on_c, 12, 74, 127
22, 25499, Note_on_c, 12, 74, 0
22, 25500, Note_on_c, 12, 74, 127
22, 25529, Note_on_c, 12, 74, 0
22, 25530, Note_on_c, 12, 74, 127
22, 25559, Note_on_c, 12, 74, 0
22, 25560, Note_on_c, 12, 73, 127
22, 25679, Note_on_c, 12, 73, 0
22, 25740, Note_on_c, 12, 69, 127
22, 25799, Note_on_c, 12, 69, 0
22, 25800, Note_on_c, 12, 76, 127
22, 25859, Note_on_c, 12, 76, 0
22, 25860, Note_on_c, 12, 78, 127
22, 25889, Note_on_c, 12, 78, 0
22, 25890, Note_on_c, 12, 76, 127
22, 25919, Note_on_c, 12, 76, 0
22, 25920, Note_on_c, 12, 74, 127
22, 25979, Note_on_c, 12, 74, 0
22, 25980, Note_on_c, 12, 74, 127
22, 26039, Note_on_c, 12, 74, 0
22, 26100, Note_on_c, 12, 69, 127
22, 26159, Note_on_c, 12, 69, 0
22, 26160, Note_on_c, 12, 78, 127
22, 26219, Note_on_c, 12, 78, 0
22, 26220, Note_on_c, 12, 79, 127
22, 26249, Note_on_c, 12, 79, 0
22, 26250, Note_on_c, 12, 78, 127
22, 26279, Note_on_c, 12, 78, 0
22, 26280, Note_on_c, 12, 76, 127
22, 26339, Note_on_c, 12, 76, 0
22, 26340, Note_on_c, 12, 76, 127
22, 26399, Note_on_c, 12, 76, 0
22, 26460, Note_on_c, 12, 69, 127
22, 26519, Note_on_c, 12, 69, 0
22, 26520, Note_on_c, 12, 79, 127
22, 26579, Note_on_c, 12, 79, 0
22, 26580, Note_on_c, 12, 81, 127
22, 26609, Note_on_c, 12, 81, 0
22, 26610, Note_on_c, 12, 73, 127
22, 26639, Note_on_c, 12, 73, 0
22, 26640, Note_on_c, 12, 74, 127
22, 27300, Note_on_c, 12, 74, 0
22, 27300, Note_on_c, 12, 74, 127
22, 27359, Note_on_c, 12, 74, 0
22, 27360, Note_on_c, 12, 74, 127
22, 27419, Note_on_c, 12, 74, 0
22, 27420, Note_on_c, 12, 71, 127
22, 27479, Note_on_c, 12, 71, 0
22, 27480, Note_on_c, 12, 79, 127
22, 27509, Note_on_c, 12, 79, 0
22, 27510, Note_on_c, 12, 78, 127
22, 27539, Note_on_c, 12, 78, 0
22, 27540, Note_on_c, 12, 79, 127
22, 27569, Note_on_c, 12, 79, 0
22, 27570, Note_on_c, 12, 78, 127
22, 27599, Note_on_c, 12, 78, 0
22, 27600, Note_on_c, 12, 76, 127
22, 27629, Note_on_c, 12, 76, 0
22, 27630, Note_on_c, 12, 74, 127
22, 27659, Note_on_c, 12, 74, 0
22, 27660, Note_on_c, 12, 76, 127
22, 27689, Note_on_c, 12, 76, 0
22, 27690, Note_on_c, 12, 74, 127
22, 27719, Note_on_c, 12, 74, 0
22, 27720, Note_on_c, 12, 81, 127
22, 27749, Note_on_c, 12, 81, 0
22, 27750, Note_on_c, 12, 79, 127
22, 27779, Note_on_c, 12, 79, 0
22, 27780, Note_on_c, 12, 81, 127
22, 27809, Note_on_c, 12, 81, 0
22, 27810, Note_on_c, 12, 79, 127
22, 27839, Note_on_c, 12, 79, 0
22, 27840, Note_on_c, 12, 78, 127
22, 27869, Note_on_c, 12, 78, 0
22, 27870, Note_on_c, 12, 76, 127
22, 27899, Note_on_c, 12, 76, 0
22, 27900, Note_on_c, 12, 74, 127
22, 27929, Note_on_c, 12, 74, 0
22, 27930, Note_on_c, 12, 76, 127
22, 27959, Note_on_c, 12, 76, 0
22, 27960, Note_on_c, 12, 73, 127
22, 28049, Note_on_c, 12, 73, 0
22, 28050, Note_on_c, 12, 74, 127
22, 28079, Note_on_c, 12, 74, 0
22, 28080, Note_on_c, 12, 74, 127
22, 28199, Note_on_c, 12, 74, 0
22, 30060, Note_on_c, 12, 69, 127
22, 30119, Note_on_c, 12, 69, 0
22, 30120, Note_on_c, 12, 74, 127
22, 30179, Note_on_c, 12, 74, 0
22, 30180, Note_on_c, 12, 76, 127
22, 30209, Note_on_c, 12, 76, 0
22, 30210, Note_on_c, 12, 78, 127
22, 30239, Note_on_c, 12, 78, 0
22, 30240, Note_on_c, 12, 76, 127
22, 30359, Note_on_c, 12, 76, 0
22, 30780, Note_on_c, 12, 71, 127
22, 30839, Note_on_c, 12, 71, 0
22, 30840, Note_on_c, 12, 76, 127
22, 30899, Note_on_c, 12, 76, 0
22, 30900, Note_on_c, 12, 78, 127
22, 30929, Note_on_c, 12, 78, 0
22, 30930, Note_on_c, 12, 79, 127
22, 30959, Note_on_c, 12, 79, 0
22, 30960, Note_on_c, 12, 78, 127
22, 31079, Note_on_c, 12, 78, 0
22, 31140, Note_on_c, 12, 73, 127
22, 31199, Note_on_c, 12, 73, 0
22, 31200, Note_on_c, 12, 74, 127
22, 31259, Note_on_c, 12, 74, 0
22, 31260, Note_on_c, 12, 73, 127
22, 31289, Note_on_c, 12, 73, 0
22, 31290, Note_on_c, 12, 71, 127
22, 31319, Note_on_c, 12, 71, 0
22, 31320, Note_on_c, 12, 79, 127
22, 31379, Note_on_c, 12, 79, 0
22, 31380, Note_on_c, 12, 78, 127
22, 31439, Note_on_c, 12, 78, 0
22, 31440, Note_on_c, 12, 76, 127
22, 31499, Note_on_c, 12, 76, 0
22, 31500, Note_on_c, 12, 74, 127
22, 31559, Note_on_c, 12, 74, 0
22, 31560, Note_on_c, 12, 73, 127
22, 31619, Note_on_c, 12, 73, 0
22, 31620, Note_on_c, 12, 74, 127
22, 31649, Note_on_c, 12, 74, 0
22, 31650, Note_on_c, 12, 71, 127
22, 31679, Note_on_c, 12, 71, 0
22, 31680, Note_on_c, 12, 70, 127
22, 31739, Note_on_c, 12, 70, 0
22, 31740, Note_on_c, 12, 68, 127
22, 31799, Note_on_c, 12, 68, 0
22, 31800, Note_on_c, 12, 66, 127
22, 31859, Note_on_c, 12, 66, 0
22, 32580, Note_on_c, 12, 66, 127
22, 32639, Note_on_c, 12, 66, 0
22, 32640, Note_on_c, 12, 73, 127
22, 32699, Note_on_c, 12, 73, 0
22, 32700, Note_on_c, 12, 71, 127
22, 32729, Note_on_c, 12, 71, 0
22, 32730, Note_on_c, 12, 73, 127
22, 32759, Note_on_c, 12, 73, 0
22, 32760, Note_on_c, 12, 74, 127
22, 32879, Note_on_c, 12, 74, 0
22, 32940, Note_on_c, 12, 66, 127
22, 32999, Note_on_c, 12, 66, 0
22, 33000, Note_on_c, 12, 66, 127
22, 33059, Note_on_c, 12, 66, 0
22, 33060, Note_on_c, 12, 66, 127
22, 33089, Note_on_c, 12, 66, 0
22, 33090, Note_on_c, 12, 67, 127
22, 33119, Note_on_c, 12, 67, 0
22, 33120, Note_on_c, 12, 69, 127
22, 33179, Note_on_c, 12, 69, 0
22, 33180, Note_on_c, 12, 72, 127
22, 33209, Note_on_c, 12, 72, 0
22, 33210, Note_on_c, 12, 71, 127
22, 33239, Note_on_c, 12, 71, 0
22, 33240, Note_on_c, 12, 69, 127
22, 33299, Note_on_c, 12, 69, 0
22, 33300, Note_on_c, 12, 72, 127
22, 33329, Note_on_c, 12, 72, 0
22, 33330, Note_on_c, 12, 71, 127
22, 33359, Note_on_c, 12, 71, 0
22, 33360, Note_on_c, 12, 69, 127
22, 33419, Note_on_c, 12, 69, 0
22, 33420, Note_on_c, 12, 72, 127
22, 33449, Note_on_c, 12, 72, 0
22, 33450, Note_on_c, 12, 71, 127
22, 33479, Note_on_c, 12, 71, 0
22, 33480, Note_on_c, 12, 69, 127
22, 33839, Note_on_c, 12, 69, 0
22, 33840, Note_on_c, 12, 67, 127
22, 33899, Note_on_c, 12, 67, 0
22, 33900, Note_on_c, 12, 71, 127
22, 33959, Note_on_c, 12, 71, 0
22, 33960, Note_on_c, 12, 76, 127
22, 34019, Note_on_c, 12, 76, 0
22, 34020, Note_on_c, 12, 76, 127
22, 34049, Note_on_c, 12, 76, 0
22, 34050, Note_on_c, 12, 78, 127
22, 34079, Note_on_c, 12, 78, 0
22, 34080, Note_on_c, 12, 79, 127
22, 34260, Note_on_c, 12, 79, 0
22, 34260, Note_on_c, 12, 76, 127
22, 34319, Note_on_c, 12, 76, 0
22, 34320, Note_on_c, 12, 73, 127
22, 34379, Note_on_c, 12, 73, 0
22, 34380, Note_on_c, 12, 69, 127
22, 34439, Note_on_c, 12, 69, 0
22, 34440, Note_on_c, 12, 67, 127
22, 34499, Note_on_c, 12, 67, 0
22, 34500, Note_on_c, 12, 66, 127
22, 34529, Note_on_c, 12, 66, 0
22, 34530, Note_on_c, 12, 64, 127
22, 34559, Note_on_c, 12, 64, 0
22, 34560, Note_on_c, 12, 66, 127
22, 34619, Note_on_c, 12, 66, 0
22, 34620, Note_on_c, 12, 64, 127
22, 34679, Note_on_c, 12, 64, 0
22, 34680, Note_on_c, 12, 62, 127
22, 34739, Note_on_c, 12, 62, 0
22, 34740, Note_on_c, 12, 69, 127
22, 34799, Note_on_c, 12, 69, 0
22, 34800, Note_on_c, 12, 74, 127
22, 34859, Note_on_c, 12, 74, 0
22, 34860, Note_on_c, 12, 73, 127
22, 34889, Note_on_c, 12, 73, 0
22, 34890, Note_on_c, 12, 74, 127
22, 34919, Note_on_c, 12, 74, 0
22, 34920, Note_on_c, 12, 71, 127
22, 34979, Note_on_c, 12, 71, 0
22, 35340, Note_on_c, 12, 71, 127
22, 35399, Note_on_c, 12, 71, 0
22, 35400, Note_on_c, 12, 73, 127
22, 35459, Note_on_c, 12, 73, 0
22, 35460, Note_on_c, 12, 76, 127
22, 35489, Note_on_c, 12, 76, 0
22, 35490, Note_on_c, 12, 74, 127
22, 35519, Note_on_c, 12, 74, 0
22, 35520, Note_on_c, 12, 76, 127
22, 35700, Note_on_c, 12, 76, 0
22, 35700, Note_on_c, 12, 73, 127
22, 35759, Note_on_c, 12, 73, 0
22, 35760, Note_on_c, 12, 70, 127
22, 35819, Note_on_c, 12, 70, 0
22, 35820, Note_on_c, 12, 66, 127
22, 35879, Note_on_c, 12, 66, 0
22, 35880, Note_on_c, 12, 76, 127
22, 35939, Note_on_c, 12, 76, 0
22, 35940, Note_on_c, 12, 74, 127
22, 35969, Note_on_c, 12, 74, 0
22, 35970, Note_on_c, 12, 73, 127
22, 35999, Note_on_c, 12, 73, 0
22, 36000, Note_on_c, 12, 74, 127
22, 36059, Note_on_c, 12, 74, 0
22, 36060, Note_on_c, 12, 71, 127
22, 36180, Note_on_c, 12, 71, 0
22, 36180, Note_on_c, 12, 76, 127
22, 36209, Note_on_c, 12, 76, 0
22, 36210, Note_on_c, 12, 74, 127
22, 36239, Note_on_c, 12, 74, 0
22, 36240, Note_on_c, 12, 72, 127
22, 36299, Note_on_c, 12, 72, 0
22, 36300, Note_on_c, 12, 71, 127
22, 36329, Note_on_c, 12, 71, 0
22, 36330, Note_on_c, 12, 73, 127
22, 36359, Note_on_c, 12, 73, 0
22, 36360, Note_on_c, 12, 70, 127
22, 36450, Note_on_c, 12, 70, 0
22, 36450, Note_on_c, 12, 71, 127
22, 36465, Note_on_c, 12, 71, 0
22, 36465, Note_on_c, 12, 73, 127
22, 36480, Note_on_c, 12, 73, 0
22, 36480, Note_on_c, 12, 66, 127
22, 36540, Note_on_c, 12, 66, 0
22, 36540, Note_on_c, 12, 73, 127
22, 36600, Note_on_c, 12, 73, 0
22, 36600, Note_on_c, 12, 73, 127
22, 36660, Note_on_c, 12, 73, 0
22, 36660, Note_on_c, 12, 71, 127
22, 36689, Note_on_c, 12, 71, 0
22, 36690, Note_on_c, 12, 73, 127
22, 36719, Note_on_c, 12, 73, 0
22, 36720, Note_on_c, 12, 74, 127
22, 36779, Note_on_c, 12, 74, 0
22, 36780, Note_on_c, 12, 71, 127
22, 36839, Note_on_c, 12, 71, 0
22, 36840, Note_on_c, 12, 66, 127
22, 36899, Note_on_c, 12, 66, 0
22, 36900, Note_on_c, 12, 74, 127
22, 36959, Note_on_c, 12, 74, 0
22, 36960, Note_on_c, 12, 74, 127
22, 37019, Note_on_c, 12, 74, 0
22, 37020, Note_on_c, 12, 73, 127
22, 37049, Note_on_c, 12, 73, 0
22, 37050, Note_on_c, 12, 74, 127
22, 37079, Note_on_c, 12, 74, 0
22, 37080, Note_on_c, 12, 76, 127
22, 37139, Note_on_c, 12, 76, 0
22, 37140, Note_on_c, 12, 73, 127
22, 37199, Note_on_c, 12, 73, 0
22, 37200, Note_on_c, 12, 70, 127
22, 37259, Note_on_c, 12, 70, 0
22, 37260, Note_on_c, 12, 73, 127
22, 37319, Note_on_c, 12, 73, 0
22, 37320, Note_on_c, 12, 78, 127
22, 37379, Note_on_c, 12, 78, 0
22, 37380, Note_on_c, 12, 76, 127
22, 37439, Note_on_c, 12, 76, 0
22, 37440, Note_on_c, 12, 74, 127
22, 37499, Note_on_c, 12, 74, 0
22, 37500, Note_on_c, 12, 79, 127
22, 37530, Note_on_c, 12, 79, 0
22, 37530, Note_on_c, 12, 78, 127
22, 37560, Note_on_c, 12, 78, 0
22, 37560, Note_on_c, 12, 76, 127
22, 37590, Note_on_c, 12, 76, 0
22, 37590, Note_on_c, 12, 74, 127
22, 37620, Note_on_c, 12, 74, 0
22, 37620, Note_on_c, 12, 73, 127
22, 37650, Note_on_c, 12, 73, 0
22, 37650, Note_on_c, 12, 71, 127
22, 37680, Note_on_c, 12, 71, 0
22, 37680, Note_on_c, 12, 74, 127
22, 37739, Note_on_c, 12, 74, 0
22, 37740, Note_on_c, 12, 73, 127
22, 37799, Note_on_c, 12, 73, 0
22, 37800, Note_on_c, 12, 71, 127
22, 38159, Note_on_c, 12, 71, 0
22, 38160, Note_on_c, 12, 69, 127
22, 38519, Note_on_c, 12, 69, 0
22, 38520, Note_on_c, 12, 74, 127
22, 38879, Note_on_c, 12, 74, 0
22, 38880, Note_on_c, 12, 73, 127
22, 39059, Note_on_c, 12, 73, 0
22, 39060, Note_on_c, 12, 73, 127
22, 39119, Note_on_c, 12, 73, 0
22, 39120, Note_on_c, 12, 78, 127
22, 39179, Note_on_c, 12, 78, 0
22, 39180, Note_on_c, 12, 76, 127
22, 39239, Note_on_c, 12, 76, 0
22, 39240, Note_on_c, 12, 74, 127
22, 39269, Note_on_c, 12, 74, 0
22, 39270, Note_on_c, 12, 73, 127
22, 39299, Note_on_c, 12, 73, 0
22, 39300, Note_on_c, 12, 74, 127
22, 39329, Note_on_c, 12, 74, 0
22, 39330, Note_on_c, 12, 71, 127
22, 39359, Note_on_c, 12, 71, 0
22, 39360, Note_on_c, 12, 77, 127
22, 39419, Note_on_c, 12, 77, 0
22, 39420, Note_on_c, 12, 78, 127
22, 39479, Note_on_c, 12, 78, 0
22, 39480, Note_on_c, 12, 69, 127
22, 39539, Note_on_c, 12, 69, 0
22, 39540, Note_on_c, 12, 68, 127
22, 39569, Note_on_c, 12, 68, 0
22, 39570, Note_on_c, 12, 66, 127
22, 39599, Note_on_c, 12, 66, 0
22, 39600, Note_on_c, 12, 66, 127
22, 39959, Note_on_c, 12, 66, 0
22, 49980, Note_on_c, 12, 69, 127
22, 50039, Note_on_c, 12, 69, 0
22, 50040, Note_on_c, 12, 66, 127
22, 50069, Note_on_c, 12, 66, 0
22, 50070, Note_on_c, 12, 62, 127
22, 50099, Note_on_c, 12, 62, 0
22, 50100, Note_on_c, 12, 64, 127
22, 50129, Note_on_c, 12, 64, 0
22, 50130, Note_on_c, 12, 66, 127
22, 50159, Note_on_c, 12, 66, 0
22, 50160, Note_on_c, 12, 67, 127
22, 50189, Note_on_c, 12, 67, 0
22, 50190, Note_on_c, 12, 69, 127
22, 50219, Note_on_c, 12, 69, 0
22, 50220, Note_on_c, 12, 71, 127
22, 50249, Note_on_c, 12, 71, 0
22, 50250, Note_on_c, 12, 73, 127
22, 50279, Note_on_c, 12, 73, 0
22, 50280, Note_on_c, 12, 74, 127
22, 50309, Note_on_c, 12, 74, 0
22, 50310, Note_on_c, 12, 73, 127
22, 50339, Note_on_c, 12, 73, 0
22, 50340, Note_on_c, 12, 74, 127
22, 50369, Note_on_c, 12, 74, 0
22, 50370, Note_on_c, 12, 73, 127
22, 50399, Note_on_c, 12, 73, 0
22, 50400, Note_on_c, 12, 74, 127
22, 50429, Note_on_c, 12, 74, 0
22, 50430, Note_on_c, 12, 66, 127
22, 50459, Note_on_c, 12, 66, 0
22, 50460, Note_on_c, 12, 67, 127
22, 50489, Note_on_c, 12, 67, 0
22, 50490, Note_on_c, 12, 69, 127
22, 50519, Note_on_c, 12, 69, 0
22, 50520, Note_on_c, 12, 71, 127
22, 50549, Note_on_c, 12, 71, 0
22, 50550, Note_on_c, 12, 73, 127
22, 50579, Note_on_c, 12, 73, 0
22, 50580, Note_on_c, 12, 74, 127
22, 50609, Note_on_c, 12, 74, 0
22, 50610, Note_on_c, 12, 76, 127
22, 50639, Note_on_c, 12, 76, 0
22, 50640, Note_on_c, 12, 78, 127
22, 50669, Note_on_c, 12, 78, 0
22, 50670, Note_on_c, 12, 76, 127
22, 50699, Note_on_c, 12, 76, 0
22, 50700, Note_on_c, 12, 78, 127
22, 50729, Note_on_c, 12, 78, 0
22, 50730, Note_on_c, 12, 76, 127
22, 50759, Note_on_c, 12, 76, 0
22, 50760, Note_on_c, 12, 78, 127
22, 50789, Note_on_c, 12, 78, 0
22, 50790, Note_on_c, 12, 74, 127
22, 50819, Note_on_c, 12, 74, 0
22, 50820, Note_on_c, 12, 73, 127
22, 50849, Note_on_c, 12, 73, 0
22, 50850, Note_on_c, 12, 71, 127
22, 50879, Note_on_c, 12, 71, 0
22, 50880, Note_on_c, 12, 69, 127
22, 50909, Note_on_c, 12, 69, 0
22, 50910, Note_on_c, 12, 67, 127
22, 50939, Note_on_c, 12, 67, 0
22, 50940, Note_on_c, 12, 66, 127
22, 50969, Note_on_c, 12, 66, 0
22, 50970, Note_on_c, 12, 64, 127
22, 50999, Note_on_c, 12, 64, 0
22, 51000, Note_on_c, 12, 62, 127
22, 51059, Note_on_c, 12, 62, 0
22, 51060, Note_on_c, 12, 69, 127
22, 51089, Note_on_c, 12, 69, 0
22, 51090, Note_on_c, 12, 69, 127
22, 51119, Note_on_c, 12, 69, 0
22, 51120, Note_on_c, 12, 71, 127
22, 51149, Note_on_c, 12, 71, 0
22, 51150, Note_on_c, 12, 79, 127
22, 51179, Note_on_c, 12, 79, 0
22, 51180, Note_on_c, 12, 78, 127
22, 51209, Note_on_c, 12, 78, 0
22, 51210, Note_on_c, 12, 76, 127
22, 51239, Note_on_c, 12, 76, 0
22, 51240, Note_on_c, 12, 74, 127
22, 51269, Note_on_c, 12, 74, 0
22, 51270, Note_on_c, 12, 72, 127
22, 51299, Note_on_c, 12, 72, 0
22, 51300, Note_on_c, 12, 71, 127
22, 51329, Note_on_c, 12, 71, 0
22, 51330, Note_on_c, 12, 69, 127
22, 51359, Note_on_c, 12, 69, 0
22, 51360, Note_on_c, 12, 67, 127
22, 51419, Note_on_c, 12, 67, 0
22, 51420, Note_on_c, 12, 71, 127
22, 51449, Note_on_c, 12, 71, 0
22, 51450, Note_on_c, 12, 69, 127
22, 51479, Note_on_c, 12, 69, 0
22, 51480, Note_on_c, 12, 69, 127
22, 51539, Note_on_c, 12, 69, 0
22, 51540, Note_on_c, 12, 66, 127
22, 51599, Note_on_c, 12, 66, 0
22, 51660, Note_on_c, 12, 74, 127
22, 51719, Note_on_c, 12, 74, 0
22, 51720, Note_on_c, 12, 69, 127
22, 51779, Note_on_c, 12, 69, 0
22, 51780, Note_on_c, 12, 67, 127
22, 51809, Note_on_c, 12, 67, 0
22, 51810, Note_on_c, 12, 66, 127
22, 51839, Note_on_c, 12, 66, 0
22, 51840, Note_on_c, 12, 64, 127
22, 51959, Note_on_c, 12, 64, 0
22, 54300, Note_on_c, 12, 73, 127
22, 54359, Note_on_c, 12, 73, 0
22, 54360, Note_on_c, 12, 74, 127
22, 54419, Note_on_c, 12, 74, 0
22, 54420, Note_on_c, 12, 69, 127
22, 54479, Note_on_c, 12, 69, 0
22, 54660, Note_on_c, 12, 74, 127
22, 54719, Note_on_c, 12, 74, 0
22, 54720, Note_on_c, 12, 78, 127
22, 54779, Note_on_c, 12, 78, 0
22, 54780, Note_on_c, 12, 76, 127
22, 54839, Note_on_c, 12, 76, 0
22, 55020, Note_on_c, 12, 78, 127
22, 55079, Note_on_c, 12, 78, 0
22, 55080, Note_on_c, 12, 81, 127
22, 55139, Note_on_c, 12, 81, 0
22, 55140, Note_on_c, 12, 78, 127
22, 55169, Note_on_c, 12, 78, 0
22, 55170, Note_on_c, 12, 74, 127
22, 55199, Note_on_c, 12, 74, 0
22, 55200, Note_on_c, 12, 69, 127
22, 55319, Note_on_c, 12, 69, 0
22, 55380, Note_on_c, 12, 69, 127
22, 55439, Note_on_c, 12, 69, 0
22, 55440, Note_on_c, 12, 66, 127
22, 55469, Note_on_c, 12, 66, 0
22, 55470, Note_on_c, 12, 62, 127
22, 55499, Note_on_c, 12, 62, 0
22, 55500, Note_on_c, 12, 64, 127
22, 55529, Note_on_c, 12, 64, 0
22, 55530, Note_on_c, 12, 66, 127
22, 55559, Note_on_c, 12, 66, 0
22, 55560, Note_on_c, 12, 67, 127
22, 55589, Note_on_c, 12, 67, 0
22, 55590, Note_on_c, 12, 69, 127
22, 55619, Note_on_c, 12, 69, 0
22, 55620, Note_on_c, 12, 71, 127
22, 55649, Note_on_c, 12, 71, 0
22, 55650, Note_on_c, 12, 73, 127
22, 55679, Note_on_c, 12, 73, 0
22, 55680, Note_on_c, 12, 74, 127
22, 55739, Note_on_c, 12, 74, 0
22, 55740, Note_on_c, 12, 69, 127
22, 55769, Note_on_c, 12, 69, 0
22, 55770, Note_on_c, 12, 69, 127
22, 55799, Note_on_c, 12, 69, 0
22, 55800, Note_on_c, 12, 69, 127
22, 55829, Note_on_c, 12, 69, 0
22, 55830, Note_on_c, 12, 66, 127
22, 55859, Note_on_c, 12, 66, 0
22, 55860, Note_on_c, 12, 67, 127
22, 55889, Note_on_c, 12, 67, 0
22, 55890, Note_on_c, 12, 69, 127
22, 55919, Note_on_c, 12, 69, 0
22, 55920, Note_on_c, 12, 71, 127
22, 55949, Note_on_c, 12, 71, 0
22, 55950, Note_on_c, 12, 73, 127
22, 55979, Note_on_c, 12, 73, 0
22, 55980, Note_on_c, 12, 74, 127
22, 56009, Note_on_c, 12, 74, 0
22, 56010, Note_on_c, 12, 76, 127
22, 56039, Note_on_c, 12, 76, 0
22, 56040, Note_on_c, 12, 78, 127
22, 56099, Note_on_c, 12, 78, 0
22, 56100, Note_on_c, 12, 74, 127
22, 56129, Note_on_c, 12, 74, 0
22, 56130, Note_on_c, 12, 74, 127
22, 56159, Note_on_c, 12, 74, 0
22, 56160, Note_on_c, 12, 74, 127
22, 56219, Note_on_c, 12, 74, 0
22, 56220, Note_on_c, 12, 73, 127
22, 56249, Note_on_c, 12, 73, 0
22, 56250, Note_on_c, 12, 71, 127
22, 56279, Note_on_c, 12, 71, 0
22, 56280, Note_on_c, 12, 69, 127
22, 56309, Note_on_c, 12, 69, 0
22, 56310, Note_on_c, 12, 67, 127
22, 56339, Note_on_c, 12, 67, 0
22, 56340, Note_on_c, 12, 66, 127
22, 56369, Note_on_c, 12, 66, 0
22, 56370, Note_on_c, 12, 64, 127
22, 56399, Note_on_c, 12, 64, 0
22, 56400, Note_on_c, 12, 62, 127
22, 56459, Note_on_c, 12, 62, 0
22, 56460, Note_on_c, 12, 62, 127
22, 56489, Note_on_c, 12, 62, 0
22, 56490, Note_on_c, 12, 62, 127
22, 56519, Note_on_c, 12, 62, 0
22, 56520, Note_on_c, 12, 64, 127
22, 56820, Note_on_c, 12, 64, 0
22, 56820, Note_on_c, 12, 74, 127
22, 56880, Note_on_c, 12, 74, 0
22, 56880, Note_on_c, 12, 73, 127
22, 56940, Note_on_c, 12, 73, 0
22, 56940, Note_on_c, 12, 78, 127
22, 57000, Note_on_c, 12, 78, 0
22, 57000, Note_on_c, 12, 76, 127
22, 57060, Note_on_c, 12, 76, 0
22, 57060, Note_on_c, 12, 69, 127
22, 57120, Note_on_c, 12, 69, 0
22, 57120, Note_on_c, 12, 74, 127
22, 57149, Note_on_c, 12, 74, 0
22, 57150, Note_on_c, 12, 73, 127
22, 57179, Note_on_c, 12, 73, 0
22, 57180, Note_on_c, 12, 71, 127
22, 57209, Note_on_c, 12, 71, 0
22, 57210, Note_on_c, 12, 73, 127
22, 57239, Note_on_c, 12, 73, 0
22, 57240, Note_on_c, 12, 69, 127
22, 57359, Note_on_c, 12, 69, 0
22, 61020, Note_on_c, 12, 73, 127
22, 61080, Note_on_c, 12, 73, 0
22, 61080, Note_on_c, 12, 73, 127
22, 61140, Note_on_c, 12, 73, 0
22, 61140, Note_on_c, 12, 69, 127
22, 61200, Note_on_c, 12, 69, 0
22, 61260, Note_on_c, 12, 69, 127
22, 61320, Note_on_c, 12, 69, 0
22, 61320, Note_on_c, 12, 72, 127
22, 61380, Note_on_c, 12, 72, 0
22, 61380, Note_on_c, 12, 69, 127
22, 61409, Note_on_c, 12, 69, 0
22, 61410, Note_on_c, 12, 69, 127
22, 61439, Note_on_c, 12, 69, 0
22, 61440, Note_on_c, 12, 78, 127
22, 61500, Note_on_c, 12, 78, 0
22, 61500, Note_on_c, 12, 75, 127
22, 61529, Note_on_c, 12, 75, 0
22, 61530, Note_on_c, 12, 76, 127
22, 61559, Note_on_c, 12, 76, 0
22, 61560, Note_on_c, 12, 75, 127
22, 61919, Note_on_c, 12, 75, 0
22, 61980, Note_on_c, 12, 76, 127
22, 62040, Note_on_c, 12, 76, 0
22, 62040, Note_on_c, 12, 76, 127
22, 62100, Note_on_c, 12, 76, 0
22, 62100, Note_on_c, 12, 71, 127
22, 62160, Note_on_c, 12, 71, 0
22, 62220, Note_on_c, 12, 76, 127
22, 62280, Note_on_c, 12, 76, 0
22, 62280, Note_on_c, 12, 79, 127
22, 62340, Note_on_c, 12, 79, 0
22, 62340, Note_on_c, 12, 76, 127
22, 62400, Note_on_c, 12, 76, 0
22, 62460, Note_on_c, 12, 76, 127
22, 62520, Note_on_c, 12, 76, 0
22, 62520, Note_on_c, 12, 76, 127
22, 62580, Note_on_c, 12, 76, 0
22, 62580, Note_on_c, 12, 73, 127
22, 62609, Note_on_c, 12, 73, 0
22, 62610, Note_on_c, 12, 74, 127
22, 62639, Note_on_c, 12, 74, 0
22, 62640, Note_on_c, 12, 73, 127
22, 62999, Note_on_c, 12, 73, 0
22, 63180, Note_on_c, 12, 78, 127
22, 63239, Note_on_c, 12, 78, 0
22, 63240, Note_on_c, 12, 78, 127
22, 63299, Note_on_c, 12, 78, 0
22, 63300, Note_on_c, 12, 78, 127
22, 63329, Note_on_c, 12, 78, 0
22, 63330, Note_on_c, 12, 78, 127
22, 63359, Note_on_c, 12, 78, 0
22, 63360, Note_on_c, 12, 78, 127
22, 63419, Note_on_c, 12, 78, 0
22, 63420, Note_on_c, 12, 79, 127
22, 63449, Note_on_c, 12, 79, 0
22, 63450, Note_on_c, 12, 78, 127
22, 63479, Note_on_c, 12, 78, 0
22, 63480, Note_on_c, 12, 76, 127
22, 63539, Note_on_c, 12, 76, 0
22, 63540, Note_on_c, 12, 76, 127
22, 63599, Note_on_c, 12, 76, 0
22, 63600, Note_on_c, 12, 76, 127
22, 63659, Note_on_c, 12, 76, 0
22, 63660, Note_on_c, 12, 76, 127
22, 63689, Note_on_c, 12, 76, 0
22, 63690, Note_on_c, 12, 76, 127
22, 63719, Note_on_c, 12, 76, 0
22, 63720, Note_on_c, 12, 76, 127
22, 63779, Note_on_c, 12, 76, 0
22, 63780, Note_on_c, 12, 78, 127
22, 63809, Note_on_c, 12, 78, 0
22, 63810, Note_on_c, 12, 76, 127
22, 63839, Note_on_c, 12, 76, 0
22, 63840, Note_on_c, 12, 74, 127
22, 63899, Note_on_c, 12, 74, 0
22, 63900, Note_on_c, 12, 74, 127
22, 63959, Note_on_c, 12, 74, 0
22, 63960, Note_on_c, 12, 74, 127
22, 64019, Note_on_c, 12, 74, 0
22, 64020, Note_on_c, 12, 74, 127
22, 64049, Note_on_c, 12, 74, 0
22, 64050, Note_on_c, 12, 74, 127
22, 64079, Note_on_c, 12, 74, 0
22, 64080, Note_on_c, 12, 74, 127
22, 64139, Note_on_c, 12, 74, 0
22, 64140, Note_on_c, 12, 76, 127
22, 64169, Note_on_c, 12, 76, 0
22, 64170, Note_on_c, 12, 74, 127
22, 64199, Note_on_c, 12, 74, 0
22, 64200, Note_on_c, 12, 73, 127
22, 64319, Note_on_c, 12, 73, 0
22, 64380, Note_on_c, 12, 69, 127
22, 64439, Note_on_c, 12, 69, 0
22, 64440, Note_on_c, 12, 69, 127
22, 64469, Note_on_c, 12, 69, 0
22, 64470, Note_on_c, 12, 66, 127
22, 64499, Note_on_c, 12, 66, 0
22, 64500, Note_on_c, 12, 67, 127
22, 64529, Note_on_c, 12, 67, 0
22, 64530, Note_on_c, 12, 69, 127
22, 64559, Note_on_c, 12, 69, 0
22, 64560, Note_on_c, 12, 71, 127
22, 64589, Note_on_c, 12, 71, 0
22, 64590, Note_on_c, 12, 73, 127
22, 64619, Note_on_c, 12, 73, 0
22, 64620, Note_on_c, 12, 74, 127
22, 64649, Note_on_c, 12, 74, 0
22, 64650, Note_on_c, 12, 76, 127
22, 64679, Note_on_c, 12, 76, 0
22, 64680, Note_on_c, 12, 78, 127
22, 64739, Note_on_c, 12, 78, 0
22, 64740, Note_on_c, 12, 74, 127
22, 64769, Note_on_c, 12, 74, 0
22, 64770, Note_on_c, 12, 74, 127
22, 64799, Note_on_c, 12, 74, 0
22, 64800, Note_on_c, 12, 74, 127
22, 64859, Note_on_c, 12, 74, 0
22, 64860, Note_on_c, 12, 68, 127
22, 64889, Note_on_c, 12, 68, 0
22, 64890, Note_on_c, 12, 69, 127
22, 64919, Note_on_c, 12, 69, 0
22, 64920, Note_on_c, 12, 71, 127
22, 64949, Note_on_c, 12, 71, 0
22, 64950, Note_on_c, 12, 73, 127
22, 64979, Note_on_c, 12, 73, 0
22, 64980, Note_on_c, 12, 74, 127
22, 65009, Note_on_c, 12, 74, 0
22, 65010, Note_on_c, 12, 76, 127
22, 65039, Note_on_c, 12, 76, 0
22, 65040, Note_on_c, 12, 77, 127
22, 65099, Note_on_c, 12, 77, 0
22, 65100, Note_on_c, 12, 74, 127
22, 65129, Note_on_c, 12, 74, 0
22, 65130, Note_on_c, 12, 74, 127
22, 65159, Note_on_c, 12, 74, 0
22, 65160, Note_on_c, 12, 74, 127
22, 65189, Note_on_c, 12, 74, 0
22, 65190, Note_on_c, 12, 62, 127
22, 65219, Note_on_c, 12, 62, 0
22, 65220, Note_on_c, 12, 64, 127
22, 65249, Note_on_c, 12, 64, 0
22, 65250, Note_on_c, 12, 66, 127
22, 65279, Note_on_c, 12, 66, 0
22, 65280, Note_on_c, 12, 68, 127
22, 65309, Note_on_c, 12, 68, 0
22, 65310, Note_on_c, 12, 69, 127
22, 65339, Note_on_c, 12, 69, 0
22, 65340, Note_on_c, 12, 71, 127
22, 65369, Note_on_c, 12, 71, 0
22, 65370, Note_on_c, 12, 73, 127
22, 65399, Note_on_c, 12, 73, 0
22, 65400, Note_on_c, 12, 74, 127
22, 65459, Note_on_c, 12, 74, 0
22, 65460, Note_on_c, 12, 74, 127
22, 65489, Note_on_c, 12, 74, 0
22, 65490, Note_on_c, 12, 74, 127
22, 65519, Note_on_c, 12, 74, 0
22, 65520, Note_on_c, 12, 73, 127
22, 65639, Note_on_c, 12, 73, 0
22, 65700, Note_on_c, 12, 69, 127
22, 65759, Note_on_c, 12, 69, 0
22, 65760, Note_on_c, 12, 76, 127
22, 65819, Note_on_c, 12, 76, 0
22, 65820, Note_on_c, 12, 78, 127
22, 65849, Note_on_c, 12, 78, 0
22, 65850, Note_on_c, 12, 76, 127
22, 65879, Note_on_c, 12, 76, 0
22, 65880, Note_on_c, 12, 74, 127
22, 65939, Note_on_c, 12, 74, 0
22, 65940, Note_on_c, 12, 74, 127
22, 65999, Note_on_c, 12, 74, 0
22, 66060, Note_on_c, 12, 69, 127
22, 66119, Note_on_c, 12, 69, 0
22, 66120, Note_on_c, 12, 78, 127
22, 66179, Note_on_c, 12, 78, 0
22, 66180, Note_on_c, 12, 79, 127
22, 66209, Note_on_c, 12, 79, 0
22, 66210, Note_on_c, 12, 78, 127
22, 66239, Note_on_c, 12, 78, 0
22, 66240, Note_on_c, 12, 76, 127
22, 66299, Note_on_c, 12, 76, 0
22, 66300, Note_on_c, 12, 76, 127
22, 66359, Note_on_c, 12, 76, 0
22, 66420, Note_on_c, 12, 69, 127
22, 66479, Note_on_c, 12, 69, 0
22, 66480, Note_on_c, 12, 79, 127
22, 66539, Note_on_c, 12, 79, 0
22, 66540, Note_on_c, 12, 81, 127
22, 66569, Note_on_c, 12, 81, 0
22, 66570, Note_on_c, 12, 73, 127
22, 66599, Note_on_c, 12, 73, 0
22, 66600, Note_on_c, 12, 74, 127
22, 67260, Note_on_c, 12, 74, 0
22, 67260, Note_on_c, 12, 74, 127
22, 67319, Note_on_c, 12, 74, 0
22, 67320, Note_on_c, 12, 74, 127
22, 67379, Note_on_c, 12, 74, 0
22, 67380, Note_on_c, 12, 71, 127
22, 67439, Note_on_c, 12, 71, 0
22, 67440, Note_on_c, 12, 79, 127
22, 67469, Note_on_c, 12, 79, 0
22, 67470, Note_on_c, 12, 78, 127
22, 67499, Note_on_c, 12, 78, 0
22, 67500, Note_on_c, 12, 79, 127
22, 67529, Note_on_c, 12, 79, 0
22, 67530, Note_on_c, 12, 78, 127
22, 67559, Note_on_c, 12, 78, 0
22, 67560, Note_on_c, 12, 76, 127
22, 67589, Note_on_c, 12, 76, 0
22, 67590, Note_on_c, 12, 74, 127
22, 67619, Note_on_c, 12, 74, 0
22, 67620, Note_on_c, 12, 76, 127
22, 67649, Note_on_c, 12, 76, 0
22, 67650, Note_on_c, 12, 74, 127
22, 67679, Note_on_c, 12, 74, 0
22, 67680, Note_on_c, 12, 81, 127
22, 67709, Note_on_c, 12, 81, 0
22, 67710, Note_on_c, 12, 79, 127
22, 67739, Note_on_c, 12, 79, 0
22, 67740, Note_on_c, 12, 81, 127
22, 67769, Note_on_c, 12, 81, 0
22, 67770, Note_on_c, 12, 79, 127
22, 67799, Note_on_c, 12, 79, 0
22, 67800, Note_on_c, 12, 78, 127
22, 67829, Note_on_c, 12, 78, 0
22, 67830, Note_on_c, 12, 76, 127
22, 67859, Note_on_c, 12, 76, 0
22, 67860, Note_on_c, 12, 74, 127
22, 67889, Note_on_c, 12, 74, 0
22, 67890, Note_on_c, 12, 76, 127
22, 67919, Note_on_c, 12, 76, 0
22, 67920, Note_on_c, 12, 73, 127
22, 68009, Note_on_c, 12, 73, 0
22, 68010, Note_on_c, 12, 74, 127
22, 68039, Note_on_c, 12, 74, 0
22, 68040, Note_on_c, 12, 74, 127
22, 68159, Note_on_c, 12, 74, 0
22, 331620, Note_on_c, 12, 74, 127
22, 331859, Note_on_c, 12, 74, 0
22, 331860, Note_on_c, 12, 69, 127
22, 332099, Note_on_c, 12, 69, 0
22, 333060, Note_on_c, 12, 78, 127
22, 333299, Note_on_c, 12, 78, 0
22, 333300, Note_on_c, 12, 74, 127
22, 333539, Note_on_c, 12, 74, 0
22, 334500, Note_on_c, 12, 81, 127
22, 334739, Note_on_c, 12, 81, 0
22, 334740, Note_on_c, 12, 78, 127
22, 334979, Note_on_c, 12, 78, 0
22, 334980, Note_on_c, 12, 69, 127
22, 335099, Note_on_c, 12, 69, 0
22, 335100, Note_on_c, 12, 66, 127
22, 335219, Note_on_c, 12, 66, 0
22, 335220, Note_on_c, 12, 74, 127
22, 335339, Note_on_c, 12, 74, 0
22, 335340, Note_on_c, 12, 69, 127
22, 335459, Note_on_c, 12, 69, 0
22, 335460, Note_on_c, 12, 78, 127
22, 335579, Note_on_c, 12, 78, 0
22, 335580, Note_on_c, 12, 74, 127
22, 335699, Note_on_c, 12, 74, 0
22, 335700, Note_on_c, 12, 81, 127
22, 335819, Note_on_c, 12, 81, 0
22, 335820, Note_on_c, 12, 78, 127
22, 335939, Note_on_c, 12, 78, 0
22, 335940, Note_on_c, 12, 78, 127
22, 336059, Note_on_c, 12, 78, 0
22, 336060, Note_on_c, 12, 78, 127
22, 336119, Note_on_c, 12, 78, 0
22, 336120, Note_on_c, 12, 76, 127
22, 336179, Note_on_c, 12, 76, 0
22, 336180, Note_on_c, 12, 79, 127
22, 336299, Note_on_c, 12, 79, 0
22, 336300, Note_on_c, 12, 78, 127
22, 336359, Note_on_c, 12, 78, 0
22, 336360, Note_on_c, 12, 76, 127
22, 336419, Note_on_c, 12, 76, 0
22, 336420, Note_on_c, 12, 78, 127
22, 336539, Note_on_c, 12, 78, 0
22, 336540, Note_on_c, 12, 76, 127
22, 336599, Note_on_c, 12, 76, 0
22, 336600, Note_on_c, 12, 74, 127
22, 336659, Note_on_c, 12, 74, 0
22, 336660, Note_on_c, 12, 73, 127
22, 336899, Note_on_c, 12, 73, 0
22, 336900, Note_on_c, 12, 73, 127
22, 337139, Note_on_c, 12, 73, 0
22, 337140, Note_on_c, 12, 69, 127
22, 337379, Note_on_c, 12, 69, 0
22, 338340, Note_on_c, 12, 76, 127
22, 338579, Note_on_c, 12, 76, 0
22, 338580, Note_on_c, 12, 73, 127
22, 338819, Note_on_c, 12, 73, 0
22, 339780, Note_on_c, 12, 81, 127
22, 340019, Note_on_c, 12, 81, 0
22, 340020, Note_on_c, 12, 76, 127
22, 340259, Note_on_c, 12, 76, 0
22, 340260, Note_on_c, 12, 73, 127
22, 340379, Note_on_c, 12, 73, 0
22, 340380, Note_on_c, 12, 69, 127
22, 340499, Note_on_c, 12, 69, 0
22, 340500, Note_on_c, 12, 76, 127
22, 340619, Note_on_c, 12, 76, 0
22, 340620, Note_on_c, 12, 73, 127
22, 340739, Note_on_c, 12, 73, 0
22, 340740, Note_on_c, 12, 79, 127
22, 340859, Note_on_c, 12, 79, 0
22, 340860, Note_on_c, 12, 76, 127
22, 340979, Note_on_c, 12, 76, 0
22, 340980, Note_on_c, 12, 73, 127
22, 341099, Note_on_c, 12, 73, 0
22, 341100, Note_on_c, 12, 69, 127
22, 341219, Note_on_c, 12, 69, 0
22, 341220, Note_on_c, 12, 74, 127
22, 341279, Note_on_c, 12, 74, 0
22, 341280, Note_on_c, 12, 73, 127
22, 341339, Note_on_c, 12, 73, 0
22, 341340, Note_on_c, 12, 74, 127
22, 341399, Note_on_c, 12, 74, 0
22, 341400, Note_on_c, 12, 76, 127
22, 341459, Note_on_c, 12, 76, 0
22, 341460, Note_on_c, 12, 78, 127
22, 341519, Note_on_c, 12, 78, 0
22, 341520, Note_on_c, 12, 76, 127
22, 341579, Note_on_c, 12, 76, 0
22, 341580, Note_on_c, 12, 74, 127
22, 341639, Note_on_c, 12, 74, 0
22, 341640, Note_on_c, 12, 76, 127
22, 341699, Note_on_c, 12, 76, 0
22, 341700, Note_on_c, 12, 69, 127
22, 341819, Note_on_c, 12, 69, 0
22, 341820, Note_on_c, 12, 73, 127
22, 341939, Note_on_c, 12, 73, 0
22, 341940, Note_on_c, 12, 74, 127
22, 342179, Note_on_c, 12, 74, 0
22, 342180, Note_on_c, 12, 78, 127
22, 342419, Note_on_c, 12, 78, 0
22, 342420, Note_on_c, 12, 74, 127
22, 342659, Note_on_c, 12, 74, 0
22, 342660, Note_on_c, 12, 71, 127
22, 342779, Note_on_c, 12, 71, 0
22, 342780, Note_on_c, 12, 73, 127
22, 342839, Note_on_c, 12, 73, 0
22, 342840, Note_on_c, 12, 74, 127
22, 342899, Note_on_c, 12, 74, 0
22, 342900, Note_on_c, 12, 76, 127
22, 343019, Note_on_c, 12, 76, 0
22, 343020, Note_on_c, 12, 74, 127
22, 343079, Note_on_c, 12, 74, 0
22, 343080, Note_on_c, 12, 73, 127
22, 343139, Note_on_c, 12, 73, 0
22, 343140, Note_on_c, 12, 74, 127
22, 343259, Note_on_c, 12, 74, 0
22, 343260, Note_on_c, 12, 73, 127
22, 343319, Note_on_c, 12, 73, 0
22, 343320, Note_on_c, 12, 74, 127
22, 343379, Note_on_c, 12, 74, 0
22, 343380, Note_on_c, 12, 71, 127
22, 343619, Note_on_c, 12, 71, 0
22, 343620, Note_on_c, 12, 76, 127
22, 343859, Note_on_c, 12, 76, 0
22, 343860, Note_on_c, 12, 71, 127
22, 344099, Note_on_c, 12, 71, 0
22, 344100, Note_on_c, 12, 73, 127
22, 344219, Note_on_c, 12, 73, 0
22, 344220, Note_on_c, 12, 73, 127
22, 344279, Note_on_c, 12, 73, 0
22, 344280, Note_on_c, 12, 71, 127
22, 344339, Note_on_c, 12, 71, 0
22, 344340, Note_on_c, 12, 74, 127
22, 344459, Note_on_c, 12, 74, 0
22, 344460, Note_on_c, 12, 73, 127
22, 344519, Note_on_c, 12, 73, 0
22, 344520, Note_on_c, 12, 71, 127
22, 344579, Note_on_c, 12, 71, 0
22, 344580, Note_on_c, 12, 73, 127
22, 344699, Note_on_c, 12, 73, 0
22, 344700, Note_on_c, 12, 73, 127
22, 344759, Note_on_c, 12, 73, 0
22, 344760, Note_on_c, 12, 71, 127
22, 344819, Note_on_c, 12, 71, 0
22, 344820, Note_on_c, 12, 74, 127
22, 344939, Note_on_c, 12, 74, 0
22, 344940, Note_on_c, 12, 73, 127
22, 344999, Note_on_c, 12, 73, 0
22, 345000, Note_on_c, 12, 71, 127
22, 345059, Note_on_c, 12, 71, 0
22, 345060, Note_on_c, 12, 73, 127
22, 345179, Note_on_c, 12, 73, 0
22, 345180, Note_on_c, 12, 73, 127
22, 345239, Note_on_c, 12, 73, 0
22, 345240, Note_on_c, 12, 71, 127
22, 345299, Note_on_c, 12, 71, 0
22, 345300, Note_on_c, 12, 74, 127
22, 345419, Note_on_c, 12, 74, 0
22, 345420, Note_on_c, 12, 73, 127
22, 345479, Note_on_c, 12, 73, 0
22, 345480, Note_on_c, 12, 71, 127
22, 345539, Note_on_c, 12, 71, 0
22, 345540, Note_on_c, 12, 73, 127
22, 345659, Note_on_c, 12, 73, 0
22, 345660, Note_on_c, 12, 73, 127
22, 345719, Note_on_c, 12, 73, 0
22, 345720, Note_on_c, 12, 71, 127
22, 345779, Note_on_c, 12, 71, 0
22, 345780, Note_on_c, 12, 74, 127
22, 345899, Note_on_c, 12, 74, 0
22, 345900, Note_on_c, 12, 73, 127
22, 345959, Note_on_c, 12, 73, 0
22, 345960, Note_on_c, 12, 71, 127
22, 346019, Note_on_c, 12, 71, 0
22, 346020, Note_on_c, 12, 73, 127
22, 346139, Note_on_c, 12, 73, 0
22, 346140, Note_on_c, 12, 78, 127
22, 346259, Note_on_c, 12, 78, 0
22, 346260, Note_on_c, 12, 76, 127
22, 346379, Note_on_c, 12, 76, 0
22, 346380, Note_on_c, 12, 81, 127
22, 346499, Note_on_c, 12, 81, 0
22, 346500, Note_on_c, 12, 80, 127
22, 346619, Note_on_c, 12, 80, 0
22, 346620, Note_on_c, 12, 78, 127
22, 346739, Note_on_c, 12, 78, 0
22, 346740, Note_on_c, 12, 76, 127
22, 346859, Note_on_c, 12, 76, 0
22, 346860, Note_on_c, 12, 74, 127
22, 346979, Note_on_c, 12, 74, 0
22, 346980, Note_on_c, 12, 73, 127
22, 347219, Note_on_c, 12, 73, 0
22, 347220, Note_on_c, 12, 71, 127
22, 347279, Note_on_c, 12, 71, 0
22, 347280, Note_on_c, 12, 69, 127
22, 347339, Note_on_c, 12, 69, 0
22, 347340, Note_on_c, 12, 71, 127
22, 347459, Note_on_c, 12, 71, 0
22, 347460, Note_on_c, 12, 69, 127
22, 347699, Note_on_c, 12, 69, 0
22, 347940, Note_on_c, 12, 74, 127
22, 348179, Note_on_c, 12, 74, 0
22, 348180, Note_on_c, 12, 69, 127
22, 348419, Note_on_c, 12, 69, 0
22, 349380, Note_on_c, 12, 78, 127
22, 349619, Note_on_c, 12, 78, 0
22, 349620, Note_on_c, 12, 74, 127
22, 349859, Note_on_c, 12, 74, 0
22, 350820, Note_on_c, 12, 81, 127
22, 351059, Note_on_c, 12, 81, 0
22, 351060, Note_on_c, 12, 78, 127
22, 351299, Note_on_c, 12, 78, 0
22, 351300, Note_on_c, 12, 69, 127
22, 351419, Note_on_c, 12, 69, 0
22, 351420, Note_on_c, 12, 66, 127
22, 351539, Note_on_c, 12, 66, 0
22, 351540, Note_on_c, 12, 74, 127
22, 351659, Note_on_c, 12, 74, 0
22, 351660, Note_on_c, 12, 69, 127
22, 351779, Note_on_c, 12, 69, 0
22, 351780, Note_on_c, 12, 78, 127
22, 351899, Note_on_c, 12, 78, 0
22, 351900, Note_on_c, 12, 74, 127
22, 352019, Note_on_c, 12, 74, 0
22, 352020, Note_on_c, 12, 81, 127
22, 352139, Note_on_c, 12, 81, 0
22, 352140, Note_on_c, 12, 78, 127
22, 352259, Note_on_c, 12, 78, 0
22, 352260, Note_on_c, 12, 78, 127
22, 352379, Note_on_c, 12, 78, 0
22, 352380, Note_on_c, 12, 76, 127
22, 352439, Note_on_c, 12, 76, 0
22, 352440, Note_on_c, 12, 74, 127
22, 352499, Note_on_c, 12, 74, 0
22, 352500, Note_on_c, 12, 79, 127
22, 352619, Note_on_c, 12, 79, 0
22, 352620, Note_on_c, 12, 78, 127
22, 352679, Note_on_c, 12, 78, 0
22, 352680, Note_on_c, 12, 76, 127
22, 352739, Note_on_c, 12, 76, 0
22, 352740, Note_on_c, 12, 78, 127
22, 352859, Note_on_c, 12, 78, 0
22, 352860, Note_on_c, 12, 76, 127
22, 352919, Note_on_c, 12, 76, 0
22, 352920, Note_on_c, 12, 74, 127
22, 352979, Note_on_c, 12, 74, 0
22, 352980, Note_on_c, 12, 73, 127
22, 353219, Note_on_c, 12, 73, 0
22, 353220, Note_on_c, 12, 73, 127
22, 353459, Note_on_c, 12, 73, 0
22, 353460, Note_on_c, 12, 69, 127
22, 353699, Note_on_c, 12, 69, 0
22, 354660, Note_on_c, 12, 76, 127
22, 354899, Note_on_c, 12, 76, 0
22, 354900, Note_on_c, 12, 73, 127
22, 355139, Note_on_c, 12, 73, 0
22, 356100, Note_on_c, 12, 81, 127
22, 356339, Note_on_c, 12, 81, 0
22, 356340, Note_on_c, 12, 76, 127
22, 356579, Note_on_c, 12, 76, 0
22, 356580, Note_on_c, 12, 73, 127
22, 356699, Note_on_c, 12, 73, 0
22, 356700, Note_on_c, 12, 69, 127
22, 356819, Note_on_c, 12, 69, 0
22, 356820, Note_on_c, 12, 76, 127
22, 356939, Note_on_c, 12, 76, 0
22, 356940, Note_on_c, 12, 73, 127
22, 357059, Note_on_c, 12, 73, 0
22, 357060, Note_on_c, 12, 79, 127
22, 357179, Note_on_c, 12, 79, 0
22, 357180, Note_on_c, 12, 76, 127
22, 357299, Note_on_c, 12, 76, 0
22, 357300, Note_on_c, 12, 73, 127
22, 357419, Note_on_c, 12, 73, 0
22, 357420, Note_on_c, 12, 69, 127
22, 357539, Note_on_c, 12, 69, 0
22, 357540, Note_on_c, 12, 74, 127
22, 357599, Note_on_c, 12, 74, 0
22, 357600, Note_on_c, 12, 76, 127
22, 357659, Note_on_c, 12, 76, 0
22, 357660, Note_on_c, 12, 78, 127
22, 357719, Note_on_c, 12, 78, 0
22, 357720, Note_on_c, 12, 79, 127
22, 357779, Note_on_c, 12, 79, 0
22, 357780, Note_on_c, 12, 81, 127
22, 357899, Note_on_c, 12, 81, 0
22, 357900, Note_on_c, 12, 74, 127
22, 358019, Note_on_c, 12, 74, 0
22, 358020, Note_on_c, 12, 79, 127
22, 358079, Note_on_c, 12, 79, 0
22, 358080, Note_on_c, 12, 78, 127
22, 358139, Note_on_c, 12, 78, 0
22, 358140, Note_on_c, 12, 76, 127
22, 358199, Note_on_c, 12, 76, 0
22, 358200, Note_on_c, 12, 78, 127
22, 358259, Note_on_c, 12, 78, 0
22, 358260, Note_on_c, 12, 74, 127
22, 358499, Note_on_c, 12, 74, 0
22, 358500, Note_on_c, 12, 69, 127
22, 358739, Note_on_c, 12, 69, 0
22, 358740, Note_on_c, 12, 78, 127
22, 358979, Note_on_c, 12, 78, 0
22, 358980, Note_on_c, 12, 76, 127
22, 359099, Note_on_c, 12, 76, 0
22, 359100, Note_on_c, 12, 74, 127
22, 359159, Note_on_c, 12, 74, 0
22, 359160, Note_on_c, 12, 73, 127
22, 359219, Note_on_c, 12, 73, 0
22, 359220, Note_on_c, 12, 74, 127
22, 359339, Note_on_c, 12, 74, 0
22, 359340, Note_on_c, 12, 73, 127
22, 359399, Note_on_c, 12, 73, 0
22, 359400, Note_on_c, 12, 71, 127
22, 359459, Note_on_c, 12, 71, 0
22, 359460, Note_on_c, 12, 73, 127
22, 359579, Note_on_c, 12, 73, 0
22, 359580, Note_on_c, 12, 71, 127
22, 359639, Note_on_c, 12, 71, 0
22, 359640, Note_on_c, 12, 69, 127
22, 359699, Note_on_c, 12, 69, 0
22, 359700, Note_on_c, 12, 73, 127
22, 359819, Note_on_c, 12, 73, 0
22, 359820, Note_on_c, 12, 73, 127
22, 359939, Note_on_c, 12, 73, 0
22, 359940, Note_on_c, 12, 73, 127
22, 360059, Note_on_c, 12, 73, 0
22, 360060, Note_on_c, 12, 71, 127
22, 360119, Note_on_c, 12, 71, 0
22, 360120, Note_on_c, 12, 69, 127
22, 360179, Note_on_c, 12, 69, 0
22, 360180, Note_on_c, 12, 74, 127
22, 360299, Note_on_c, 12, 74, 0
22, 360300, Note_on_c, 12, 74, 127
22, 360419, Note_on_c, 12, 74, 0
22, 360420, Note_on_c, 12, 74, 127
22, 360539, Note_on_c, 12, 74, 0
22, 360540, Note_on_c, 12, 73, 127
22, 360659, Note_on_c, 12, 73, 0
22, 360780, Note_on_c, 12, 73, 127
22, 360899, Note_on_c, 12, 73, 0
22, 360900, Note_on_c, 12, 73, 127
22, 361019, Note_on_c, 12, 73, 0
22, 361020, Note_on_c, 12, 73, 127
22, 361139, Note_on_c, 12, 73, 0
22, 361140, Note_on_c, 12, 73, 127
22, 361259, Note_on_c, 12, 73, 0
22, 361260, Note_on_c, 12, 73, 127
22, 361319, Note_on_c, 12, 73, 0
22, 361320, Note_on_c, 12, 71, 127
22, 361379, Note_on_c, 12, 71, 0
22, 361380, Note_on_c, 12, 69, 127
22, 361499, Note_on_c, 12, 69, 0
22, 361500, Note_on_c, 12, 69, 127
22, 361559, Note_on_c, 12, 69, 0
22, 361560, Note_on_c, 12, 68, 127
22, 361619, Note_on_c, 12, 68, 0
22, 361620, Note_on_c, 12, 71, 127
22, 361739, Note_on_c, 12, 71, 0
22, 361740, Note_on_c, 12, 69, 127
22, 361799, Note_on_c, 12, 69, 0
22, 361800, Note_on_c, 12, 68, 127
22, 361859, Note_on_c, 12, 68, 0
22, 361860, Note_on_c, 12, 69, 127
22, 361979, Note_on_c, 12, 69, 0
22, 361980, Note_on_c, 12, 69, 127
22, 362039, Note_on_c, 12, 69, 0
22, 362040, Note_on_c, 12, 68, 127
22, 362099, Note_on_c, 12, 68, 0
22, 362100, Note_on_c, 12, 71, 127
22, 362219, Note_on_c, 12, 71, 0
22, 362220, Note_on_c, 12, 69, 127
22, 362279, Note_on_c, 12, 69, 0
22, 362280, Note_on_c, 12, 68, 127
22, 362339, Note_on_c, 12, 68, 0
22, 362340, Note_on_c, 12, 69, 127
22, 362459, Note_on_c, 12, 69, 0
22, 362460, Note_on_c, 12, 68, 127
22, 362519, Note_on_c, 12, 68, 0
22, 362520, Note_on_c, 12, 66, 127
22, 362579, Note_on_c, 12, 66, 0
22, 362580, Note_on_c, 12, 78, 127
22, 362699, Note_on_c, 12, 78, 0
22, 362700, Note_on_c, 12, 76, 127
22, 362819, Note_on_c, 12, 76, 0
22, 362820, Note_on_c, 12, 74, 127
22, 362939, Note_on_c, 12, 74, 0
22, 362940, Note_on_c, 12, 73, 127
22, 363059, Note_on_c, 12, 73, 0
22, 363060, Note_on_c, 12, 71, 127
22, 363179, Note_on_c, 12, 71, 0
22, 363180, Note_on_c, 12, 74, 127
22, 363239, Note_on_c, 12, 74, 0
22, 363240, Note_on_c, 12, 73, 127
22, 363299, Note_on_c, 12, 73, 0
22, 363300, Note_on_c, 12, 69, 127
22, 363539, Note_on_c, 12, 69, 0
22, 363540, Note_on_c, 12, 68, 127
22, 363779, Note_on_c, 12, 68, 0
22, 363780, Note_on_c, 12, 66, 127
22, 364019, Note_on_c, 12, 66, 0
22, 374820, Note_on_c, 12, 74, 127
22, 375059, Note_on_c, 12, 74, 0
22, 375060, Note_on_c, 12, 69, 127
22, 375299, Note_on_c, 12, 69, 0
22, 376260, Note_on_c, 12, 78, 127
22, 376499, Note_on_c, 12, 78, 0
22, 376500, Note_on_c, 12, 74, 127
22, 376739, Note_on_c, 12, 74, 0
22, 377700, Note_on_c, 12, 81, 127
22, 377939, Note_on_c, 12, 81, 0
22, 377940, Note_on_c, 12, 78, 127
22, 378179, Note_on_c, 12, 78, 0
22, 378180, Note_on_c, 12, 69, 127
22, 378299, Note_on_c, 12, 69, 0
22, 378300, Note_on_c, 12, 66, 127
22, 378419, Note_on_c, 12, 66, 0
22, 378420, Note_on_c, 12, 74, 127
22, 378539, Note_on_c, 12, 74, 0
22, 378540, Note_on_c, 12, 69, 127
22, 378659, Note_on_c, 12, 69, 0
22, 378660, Note_on_c, 12, 78, 127
22, 378779, Note_on_c, 12, 78, 0
22, 378780, Note_on_c, 12, 74, 127
22, 378899, Note_on_c, 12, 74, 0
22, 378900, Note_on_c, 12, 81, 127
22, 379019, Note_on_c, 12, 81, 0
22, 379020, Note_on_c, 12, 78, 127
22, 379139, Note_on_c, 12, 78, 0
22, 379140, Note_on_c, 12, 78, 127
22, 379259, Note_on_c, 12, 78, 0
22, 379260, Note_on_c, 12, 78, 127
22, 379319, Note_on_c, 12, 78, 0
22, 379320, Note_on_c, 12, 76, 127
22, 379379, Note_on_c, 12, 76, 0
22, 379380, Note_on_c, 12, 79, 127
22, 379499, Note_on_c, 12, 79, 0
22, 379500, Note_on_c, 12, 78, 127
22, 379559, Note_on_c, 12, 78, 0
22, 379560, Note_on_c, 12, 76, 127
22, 379619, Note_on_c, 12, 76, 0
22, 379620, Note_on_c, 12, 78, 127
22, 379739, Note_on_c, 12, 78, 0
22, 379740, Note_on_c, 12, 76, 127
22, 379799, Note_on_c, 12, 76, 0
22, 379800, Note_on_c, 12, 74, 127
22, 379859, Note_on_c, 12, 74, 0
22, 379860, Note_on_c, 12, 73, 127
22, 380099, Note_on_c, 12, 73, 0
22, 380100, Note_on_c, 12, 73, 127
22, 380339, Note_on_c, 12, 73, 0
22, 380340, Note_on_c, 12, 69, 127
22, 380579, Note_on_c, 12, 69, 0
22, 381540, Note_on_c, 12, 76, 127
22, 381779, Note_on_c, 12, 76, 0
22, 381780, Note_on_c, 12, 73, 127
22, 382019, Note_on_c, 12, 73, 0
22, 382980, Note_on_c, 12, 81, 127
22, 383219, Note_on_c, 12, 81, 0
22, 383220, Note_on_c, 12, 76, 127
22, 383459, Note_on_c, 12, 76, 0
22, 383460, Note_on_c, 12, 73, 127
22, 383579, Note_on_c, 12, 73, 0
22, 383580, Note_on_c, 12, 69, 127
22, 383699, Note_on_c, 12, 69, 0
22, 383700, Note_on_c, 12, 76, 127
22, 383819, Note_on_c, 12, 76, 0
22, 383820, Note_on_c, 12, 73, 127
22, 383939, Note_on_c, 12, 73, 0
22, 383940, Note_on_c, 12, 79, 127
22, 384059, Note_on_c, 12, 79, 0
22, 384060, Note_on_c, 12, 76, 127
22, 384179, Note_on_c, 12, 76, 0
22, 384180, Note_on_c, 12, 73, 127
22, 384299, Note_on_c, 12, 73, 0
22, 384300, Note_on_c, 12, 69, 127
22, 384419, Note_on_c, 12, 69, 0
22, 384420, Note_on_c, 12, 74, 127
22, 384479, Note_on_c, 12, 74, 0
22, 384480, Note_on_c, 12, 73, 127
22, 384539, Note_on_c, 12, 73, 0
22, 384540, Note_on_c, 12, 74, 127
22, 384599, Note_on_c, 12, 74, 0
22, 384600, Note_on_c, 12, 76, 127
22, 384659, Note_on_c, 12, 76, 0
22, 384660, Note_on_c, 12, 78, 127
22, 384719, Note_on_c, 12, 78, 0
22, 384720, Note_on_c, 12, 76, 127
22, 384779, Note_on_c, 12, 76, 0
22, 384780, Note_on_c, 12, 74, 127
22, 384839, Note_on_c, 12, 74, 0
22, 384840, Note_on_c, 12, 76, 127
22, 384899, Note_on_c, 12, 76, 0
22, 384900, Note_on_c, 12, 69, 127
22, 385019, Note_on_c, 12, 69, 0
22, 385020, Note_on_c, 12, 73, 127
22, 385139, Note_on_c, 12, 73, 0
22, 385140, Note_on_c, 12, 74, 127
22, 385379, Note_on_c, 12, 74, 0
22, 385379, End_track
23, 0, Start_track
23, 0, MIDI_port, 0
23, 0, Title_t, "alto"
23, 0, Program_c, 13, 52
23, 10020, Note_on_c, 13, 64, 127
23, 10079, Note_on_c, 13, 64, 0
23, 10080, Note_on_c, 13, 66, 127
23, 10139, Note_on_c, 13, 66, 0
23, 10140, Note_on_c, 13, 62, 127
23, 10199, Note_on_c, 13, 62, 0
23, 10380, Note_on_c, 13, 69, 127
23, 10439, Note_on_c, 13, 69, 0
23, 10440, Note_on_c, 13, 66, 127
23, 10469, Note_on_c, 13, 66, 0
23, 10470, Note_on_c, 13, 62, 127
23, 10499, Note_on_c, 13, 62, 0
23, 10500, Note_on_c, 13, 64, 127
23, 10529, Note_on_c, 13, 64, 0
23, 10530, Note_on_c, 13, 66, 127
23, 10559, Note_on_c, 13, 66, 0
23, 10560, Note_on_c, 13, 67, 127
23, 10589, Note_on_c, 13, 67, 0
23, 10590, Note_on_c, 13, 69, 127
23, 10619, Note_on_c, 13, 69, 0
23, 10620, Note_on_c, 13, 71, 127
23, 10649, Note_on_c, 13, 71, 0
23, 10650, Note_on_c, 13, 73, 127
23, 10679, Note_on_c, 13, 73, 0
23, 10680, Note_on_c, 13, 74, 127
23, 10709, Note_on_c, 13, 74, 0
23, 10710, Note_on_c, 13, 73, 127
23, 10739, Note_on_c, 13, 73, 0
23, 10740, Note_on_c, 13, 74, 127
23, 10769, Note_on_c, 13, 74, 0
23, 10770, Note_on_c, 13, 73, 127
23, 10799, Note_on_c, 13, 73, 0
23, 10800, Note_on_c, 13, 74, 127
23, 10829, Note_on_c, 13, 74, 0
23, 10830, Note_on_c, 13, 69, 127
23, 10859, Note_on_c, 13, 69, 0
23, 10860, Note_on_c, 13, 67, 127
23, 10889, Note_on_c, 13, 67, 0
23, 10890, Note_on_c, 13, 66, 127
23, 10919, Note_on_c, 13, 66, 0
23, 10920, Note_on_c, 13, 64, 127
23, 10949, Note_on_c, 13, 64, 0
23, 10950, Note_on_c, 13, 62, 127
23, 10979, Note_on_c, 13, 62, 0
23, 10980, Note_on_c, 13, 61, 127
23, 11009, Note_on_c, 13, 61, 0
23, 11010, Note_on_c, 13, 59, 127
23, 11039, Note_on_c, 13, 59, 0
23, 11040, Note_on_c, 13, 57, 127
23, 11099, Note_on_c, 13, 57, 0
23, 11100, Note_on_c, 13, 62, 127
23, 11129, Note_on_c, 13, 62, 0
23, 11130, Note_on_c, 13, 62, 127
23, 11159, Note_on_c, 13, 62, 0
23, 11160, Note_on_c, 13, 62, 127
23, 11189, Note_on_c, 13, 62, 0
23, 11190, Note_on_c, 13, 59, 127
23, 11219, Note_on_c, 13, 59, 0
23, 11220, Note_on_c, 13, 60, 127
23, 11249, Note_on_c, 13, 60, 0
23, 11250, Note_on_c, 13, 62, 127
23, 11279, Note_on_c, 13, 62, 0
23, 11280, Note_on_c, 13, 64, 127
23, 11309, Note_on_c, 13, 64, 0
23, 11310, Note_on_c, 13, 66, 127
23, 11339, Note_on_c, 13, 66, 0
23, 11340, Note_on_c, 13, 67, 127
23, 11369, Note_on_c, 13, 67, 0
23, 11370, Note_on_c, 13, 69, 127
23, 11399, Note_on_c, 13, 69, 0
23, 11400, Note_on_c, 13, 71, 127
23, 11429, Note_on_c, 13, 71, 0
23, 11430, Note_on_c, 13, 69, 127
23, 11459, Note_on_c, 13, 69, 0
23, 11460, Note_on_c, 13, 71, 127
23, 11489, Note_on_c, 13, 71, 0
23, 11490, Note_on_c, 13, 67, 127
23, 11519, Note_on_c, 13, 67, 0
23, 11520, Note_on_c, 13, 66, 127
23, 11579, Note_on_c, 13, 66, 0
23, 11580, Note_on_c, 13, 62, 127
23, 11639, Note_on_c, 13, 62, 0
23, 11700, Note_on_c, 13, 69, 127
23, 11759, Note_on_c, 13, 69, 0
23, 11760, Note_on_c, 13, 66, 127
23, 11819, Note_on_c, 13, 66, 0
23, 11820, Note_on_c, 13, 64, 127
23, 11849, Note_on_c, 13, 64, 0
23, 11850, Note_on_c, 13, 66, 127
23, 11879, Note_on_c, 13, 66, 0
23, 11880, Note_on_c, 13, 61, 127
23, 11999, Note_on_c, 13, 61, 0
23, 14340, Note_on_c, 13, 69, 127
23, 14399, Note_on_c, 13, 69, 0
23, 14400, Note_on_c, 13, 69, 127
23, 14459, Note_on_c, 13, 69, 0
23, 14460, Note_on_c, 13, 66, 127
23, 14519, Note_on_c, 13, 66, 0
23, 14700, Note_on_c, 13, 69, 127
23, 14759, Note_on_c, 13, 69, 0
23, 14760, Note_on_c, 13, 74, 127
23, 14819, Note_on_c, 13, 74, 0
23, 14820, Note_on_c, 13, 69, 127
23, 14879, Note_on_c, 13, 69, 0
23, 15060, Note_on_c, 13, 69, 127
23, 15119, Note_on_c, 13, 69, 0
23, 15120, Note_on_c, 13, 74, 127
23, 15179, Note_on_c, 13, 74, 0
23, 15180, Note_on_c, 13, 69, 127
23, 15209, Note_on_c, 13, 69, 0
23, 15210, Note_on_c, 13, 66, 127
23, 15239, Note_on_c, 13, 66, 0
23, 15240, Note_on_c, 13, 62, 127
23, 15359, Note_on_c, 13, 62, 0
23, 15420, Note_on_c, 13, 66, 127
23, 15479, Note_on_c, 13, 66, 0
23, 15480, Note_on_c, 13, 62, 127
23, 15509, Note_on_c, 13, 62, 0
23, 15510, Note_on_c, 13, 57, 127
23, 15539, Note_on_c, 13, 57, 0
23, 15540, Note_on_c, 13, 59, 127
23, 15569, Note_on_c, 13, 59, 0
23, 15570, Note_on_c, 13, 61, 127
23, 15599, Note_on_c, 13, 61, 0
23, 15600, Note_on_c, 13, 62, 127
23, 15629, Note_on_c, 13, 62, 0
23, 15630, Note_on_c, 13, 64, 127
23, 15659, Note_on_c, 13, 64, 0
23, 15660, Note_on_c, 13, 66, 127
23, 15689, Note_on_c, 13, 66, 0
23, 15690, Note_on_c, 13, 67, 127
23, 15719, Note_on_c, 13, 67, 0
23, 15720, Note_on_c, 13, 69, 127
23, 15779, Note_on_c, 13, 69, 0
23, 15780, Note_on_c, 13, 66, 127
23, 15809, Note_on_c, 13, 66, 0
23, 15810, Note_on_c, 13, 66, 127
23, 15839, Note_on_c, 13, 66, 0
23, 15840, Note_on_c, 13, 66, 127
23, 15869, Note_on_c, 13, 66, 0
23, 15870, Note_on_c, 13, 74, 127
23, 15899, Note_on_c, 13, 74, 0
23, 15900, Note_on_c, 13, 73, 127
23, 15929, Note_on_c, 13, 73, 0
23, 15930, Note_on_c, 13, 71, 127
23, 15959, Note_on_c, 13, 71, 0
23, 15960, Note_on_c, 13, 69, 127
23, 15989, Note_on_c, 13, 69, 0
23, 15990, Note_on_c, 13, 67, 127
23, 16019, Note_on_c, 13, 67, 0
23, 16020, Note_on_c, 13, 66, 127
23, 16049, Note_on_c, 13, 66, 0
23, 16050, Note_on_c, 13, 64, 127
23, 16079, Note_on_c, 13, 64, 0
23, 16080, Note_on_c, 13, 62, 127
23, 16139, Note_on_c, 13, 62, 0
23, 16140, Note_on_c, 13, 69, 127
23, 16169, Note_on_c, 13, 69, 0
23, 16170, Note_on_c, 13, 69, 127
23, 16199, Note_on_c, 13, 69, 0
23, 16200, Note_on_c, 13, 71, 127
23, 16259, Note_on_c, 13, 71, 0
23, 16260, Note_on_c, 13, 69, 127
23, 16289, Note_on_c, 13, 69, 0
23, 16290, Note_on_c, 13, 67, 127
23, 16319, Note_on_c, 13, 67, 0
23, 16320, Note_on_c, 13, 66, 127
23, 16349, Note_on_c, 13, 66, 0
23, 16350, Note_on_c, 13, 64, 127
23, 16379, Note_on_c, 13, 64, 0
23, 16380, Note_on_c, 13, 62, 127
23, 16409, Note_on_c, 13, 62, 0
23, 16410, Note_on_c, 13, 61, 127
23, 16439, Note_on_c, 13, 61, 0
23, 16440, Note_on_c, 13, 59, 127
23, 16499, Note_on_c, 13, 59, 0
23, 16500, Note_on_c, 13, 59, 127
23, 16529, Note_on_c, 13, 59, 0
23, 16530, Note_on_c, 13, 59, 127
23, 16559, Note_on_c, 13, 59, 0
23, 16560, Note_on_c, 13, 59, 127
23, 16860, Note_on_c, 13, 59, 0
23, 16860, Note_on_c, 13, 71, 127
23, 16920, Note_on_c, 13, 71, 0
23, 16920, Note_on_c, 13, 69, 127
23, 16979, Note_on_c, 13, 69, 0
23, 16980, Note_on_c, 13, 69, 127
23, 17039, Note_on_c, 13, 69, 0
23, 17040, Note_on_c, 13, 69, 127
23, 17069, Note_on_c, 13, 69, 0
23, 17070, Note_on_c, 13, 68, 127
23, 17099, Note_on_c, 13, 68, 0
23, 17100, Note_on_c, 13, 69, 127
23, 17129, Note_on_c, 13, 69, 0
23, 17130, Note_on_c, 13, 66, 127
23, 17159, Note_on_c, 13, 66, 0
23, 17160, Note_on_c, 13, 68, 127
23, 17249, Note_on_c, 13, 68, 0
23, 17250, Note_on_c, 13, 64, 127
23, 17279, Note_on_c, 13, 64, 0
23, 17280, Note_on_c, 13, 64, 127
23, 17399, Note_on_c, 13, 64, 0
23, 20940, Note_on_c, 13, 69, 127
23, 21000, Note_on_c, 13, 69, 0
23, 21000, Note_on_c, 13, 69, 127
23, 21060, Note_on_c, 13, 69, 0
23, 21060, Note_on_c, 13, 64, 127
23, 21120, Note_on_c, 13, 64, 0
23, 21180, Note_on_c, 13, 69, 127
23, 21240, Note_on_c, 13, 69, 0
23, 21240, Note_on_c, 13, 72, 127
23, 21300, Note_on_c, 13, 72, 0
23, 21300, Note_on_c, 13, 69, 127
23, 21360, Note_on_c, 13, 69, 0
23, 21420, Note_on_c, 13, 66, 127
23, 21480, Note_on_c, 13, 66, 0
23, 21480, Note_on_c, 13, 69, 127
23, 21540, Note_on_c, 13, 69, 0
23, 21540, Note_on_c, 13, 69, 127
23, 21569, Note_on_c, 13, 69, 0
23, 21570, Note_on_c, 13, 69, 127
23, 21599, Note_on_c, 13, 69, 0
23, 21600, Note_on_c, 13, 69, 127
23, 21840, Note_on_c, 13, 69, 0
23, 21900, Note_on_c, 13, 71, 127
23, 21960, Note_on_c, 13, 71, 0
23, 21960, Note_on_c, 13, 71, 127
23, 22020, Note_on_c, 13, 71, 0
23, 22020, Note_on_c, 13, 67, 127
23, 22080, Note_on_c, 13, 67, 0
23, 22140, Note_on_c, 13, 71, 127
23, 22200, Note_on_c, 13, 71, 0
23, 22200, Note_on_c, 13, 76, 127
23, 22260, Note_on_c, 13, 76, 0
23, 22260, Note_on_c, 13, 71, 127
23, 22320, Note_on_c, 13, 71, 0
23, 22500, Note_on_c, 13, 67, 127
23, 22560, Note_on_c, 13, 67, 0
23, 22560, Note_on_c, 13, 67, 127
23, 22620, Note_on_c, 13, 67, 0
23, 22620, Note_on_c, 13, 67, 127
23, 22649, Note_on_c, 13, 67, 0
23, 22650, Note_on_c, 13, 67, 127
23, 22679, Note_on_c, 13, 67, 0
23, 22680, Note_on_c, 13, 64, 127
23, 23039, Note_on_c, 13, 64, 0
23, 23220, Note_on_c, 13, 69, 127
23, 23279, Note_on_c, 13, 69, 0
23, 23280, Note_on_c, 13, 69, 127
23, 23339, Note_on_c, 13, 69, 0
23, 23340, Note_on_c, 13, 69, 127
23, 23369, Note_on_c, 13, 69, 0
23, 23370, Note_on_c, 13, 69, 127
23, 23399, Note_on_c, 13, 69, 0
23, 23400, Note_on_c, 13, 69, 127
23, 23459, Note_on_c, 13, 69, 0
23, 23460, Note_on_c, 13, 71, 127
23, 23489, Note_on_c, 13, 71, 0
23, 23490, Note_on_c, 13, 69, 127
23, 23519, Note_on_c, 13, 69, 0
23, 23520, Note_on_c, 13, 67, 127
23, 23579, Note_on_c, 13, 67, 0
23, 23580, Note_on_c, 13, 67, 127
23, 23639, Note_on_c, 13, 67, 0
23, 23640, Note_on_c, 13, 67, 127
23, 23699, Note_on_c, 13, 67, 0
23, 23700, Note_on_c, 13, 67, 127
23, 23729, Note_on_c, 13, 67, 0
23, 23730, Note_on_c, 13, 67, 127
23, 23759, Note_on_c, 13, 67, 0
23, 23760, Note_on_c, 13, 67, 127
23, 23819, Note_on_c, 13, 67, 0
23, 23820, Note_on_c, 13, 69, 127
23, 23849, Note_on_c, 13, 69, 0
23, 23850, Note_on_c, 13, 67, 127
23, 23879, Note_on_c, 13, 67, 0
23, 23880, Note_on_c, 13, 66, 127
23, 23939, Note_on_c, 13, 66, 0
23, 23940, Note_on_c, 13, 66, 127
23, 23999, Note_on_c, 13, 66, 0
23, 24000, Note_on_c, 13, 66, 127
23, 24059, Note_on_c, 13, 66, 0
23, 24060, Note_on_c, 13, 66, 127
23, 24089, Note_on_c, 13, 66, 0
23, 24090, Note_on_c, 13, 66, 127
23, 24119, Note_on_c, 13, 66, 0
23, 24120, Note_on_c, 13, 66, 127
23, 24179, Note_on_c, 13, 66, 0
23, 24180, Note_on_c, 13, 67, 127
23, 24209, Note_on_c, 13, 67, 0
23, 24210, Note_on_c, 13, 66, 127
23, 24239, Note_on_c, 13, 66, 0
23, 24240, Note_on_c, 13, 64, 127
23, 24359, Note_on_c, 13, 64, 0
23, 24420, Note_on_c, 13, 64, 127
23, 24479, Note_on_c, 13, 64, 0
23, 24480, Note_on_c, 13, 62, 127
23, 24539, Note_on_c, 13, 62, 0
23, 24540, Note_on_c, 13, 74, 127
23, 24599, Note_on_c, 13, 74, 0
23, 24750, Note_on_c, 13, 69, 127
23, 24779, Note_on_c, 13, 69, 0
23, 24780, Note_on_c, 13, 71, 127
23, 24809, Note_on_c, 13, 71, 0
23, 24810, Note_on_c, 13, 73, 127
23, 24839, Note_on_c, 13, 73, 0
23, 24840, Note_on_c, 13, 74, 127
23, 24869, Note_on_c, 13, 74, 0
23, 24870, Note_on_c, 13, 72, 127
23, 24899, Note_on_c, 13, 72, 0
23, 24900, Note_on_c, 13, 71, 127
23, 24929, Note_on_c, 13, 71, 0
23, 24930, Note_on_c, 13, 69, 127
23, 24959, Note_on_c, 13, 69, 0
23, 24960, Note_on_c, 13, 68, 127
23, 25019, Note_on_c, 13, 68, 0
23, 25020, Note_on_c, 13, 64, 127
23, 25049, Note_on_c, 13, 64, 0
23, 25050, Note_on_c, 13, 64, 127
23, 25079, Note_on_c, 13, 64, 0
23, 25080, Note_on_c, 13, 62, 127
23, 25109, Note_on_c, 13, 62, 0
23, 25110, Note_on_c, 13, 69, 127
23, 25139, Note_on_c, 13, 69, 0
23, 25140, Note_on_c, 13, 68, 127
23, 25169, Note_on_c, 13, 68, 0
23, 25170, Note_on_c, 13, 69, 127
23, 25199, Note_on_c, 13, 69, 0
23, 25200, Note_on_c, 13, 71, 127
23, 25229, Note_on_c, 13, 71, 0
23, 25230, Note_on_c, 13, 69, 127
23, 25259, Note_on_c, 13, 69, 0
23, 25260, Note_on_c, 13, 68, 127
23, 25289, Note_on_c, 13, 68, 0
23, 25290, Note_on_c, 13, 66, 127
23, 25319, Note_on_c, 13, 66, 0
23, 25320, Note_on_c, 13, 64, 127
23, 25379, Note_on_c, 13, 64, 0
23, 25380, Note_on_c, 13, 64, 127
23, 25409, Note_on_c, 13, 64, 0
23, 25410, Note_on_c, 13, 64, 127
23, 25439, Note_on_c, 13, 64, 0
23, 25440, Note_on_c, 13, 68, 127
23, 25499, Note_on_c, 13, 68, 0
23, 25500, Note_on_c, 13, 68, 127
23, 25529, Note_on_c, 13, 68, 0
23, 25530, Note_on_c, 13, 68, 127
23, 25559, Note_on_c, 13, 68, 0
23, 25560, Note_on_c, 13, 69, 127
23, 25679, Note_on_c, 13, 69, 0
23, 25740, Note_on_c, 13, 69, 127
23, 25799, Note_on_c, 13, 69, 0
23, 25800, Note_on_c, 13, 73, 127
23, 25859, Note_on_c, 13, 73, 0
23, 25860, Note_on_c, 13, 74, 127
23, 25889, Note_on_c, 13, 74, 0
23, 25890, Note_on_c, 13, 73, 127
23, 25919, Note_on_c, 13, 73, 0
23, 25920, Note_on_c, 13, 69, 127
23, 25979, Note_on_c, 13, 69, 0
23, 25980, Note_on_c, 13, 69, 127
23, 26039, Note_on_c, 13, 69, 0
23, 26100, Note_on_c, 13, 69, 127
23, 26159, Note_on_c, 13, 69, 0
23, 26160, Note_on_c, 13, 74, 127
23, 26219, Note_on_c, 13, 74, 0
23, 26220, Note_on_c, 13, 76, 127
23, 26249, Note_on_c, 13, 76, 0
23, 26250, Note_on_c, 13, 74, 127
23, 26279, Note_on_c, 13, 74, 0
23, 26280, Note_on_c, 13, 73, 127
23, 26339, Note_on_c, 13, 73, 0
23, 26340, Note_on_c, 13, 73, 127
23, 26399, Note_on_c, 13, 73, 0
23, 26460, Note_on_c, 13, 69, 127
23, 26519, Note_on_c, 13, 69, 0
23, 26520, Note_on_c, 13, 69, 127
23, 26579, Note_on_c, 13, 69, 0
23, 26580, Note_on_c, 13, 69, 127
23, 26609, Note_on_c, 13, 69, 0
23, 26610, Note_on_c, 13, 69, 127
23, 26639, Note_on_c, 13, 69, 0
23, 26640, Note_on_c, 13, 69, 127
23, 27300, Note_on_c, 13, 69, 0
23, 27300, Note_on_c, 13, 69, 127
23, 27359, Note_on_c, 13, 69, 0
23, 27360, Note_on_c, 13, 67, 127
23, 27419, Note_on_c, 13, 67, 0
23, 27420, Note_on_c, 13, 71, 127
23, 27479, Note_on_c, 13, 71, 0
23, 27480, Note_on_c, 13, 73, 127
23, 27509, Note_on_c, 13, 73, 0
23, 27510, Note_on_c, 13, 74, 127
23, 27539, Note_on_c, 13, 74, 0
23, 27540, Note_on_c, 13, 73, 127
23, 27569, Note_on_c, 13, 73, 0
23, 27570, Note_on_c, 13, 74, 127
23, 27599, Note_on_c, 13, 74, 0
23, 27600, Note_on_c, 13, 76, 127
23, 27659, Note_on_c, 13, 76, 0
23, 27660, Note_on_c, 13, 69, 127
23, 27719, Note_on_c, 13, 69, 0
23, 27720, Note_on_c, 13, 64, 127
23, 27749, Note_on_c, 13, 64, 0
23, 27750, Note_on_c, 13, 61, 127
23, 27779, Note_on_c, 13, 61, 0
23, 27780, Note_on_c, 13, 62, 127
23, 27809, Note_on_c, 13, 62, 0
23, 27810, Note_on_c, 13, 64, 127
23, 27839, Note_on_c, 13, 64, 0
23, 27840, Note_on_c, 13, 66, 127
23, 27869, Note_on_c, 13, 66, 0
23, 27870, Note_on_c, 13, 67, 127
23, 27899, Note_on_c, 13, 67, 0
23, 27900, Note_on_c, 13, 69, 127
23, 27929, Note_on_c, 13, 69, 0
23, 27930, Note_on_c, 13, 71, 127
23, 27959, Note_on_c, 13, 71, 0
23, 27960, Note_on_c, 13, 69, 127
23, 28019, Note_on_c, 13, 69, 0
23, 28020, Note_on_c, 13, 69, 127
23, 28079, Note_on_c, 13, 69, 0
23, 28080, Note_on_c, 13, 69, 127
23, 28199, Note_on_c, 13, 69, 0
23, 30060, Note_on_c, 13, 66, 127
23, 30119, Note_on_c, 13, 66, 0
23, 30120, Note_on_c, 13, 69, 127
23, 30179, Note_on_c, 13, 69, 0
23, 30180, Note_on_c, 13, 69, 127
23, 30209, Note_on_c, 13, 69, 0
23, 30210, Note_on_c, 13, 69, 127
23, 30239, Note_on_c, 13, 69, 0
23, 30240, Note_on_c, 13, 69, 127
23, 30359, Note_on_c, 13, 69, 0
23, 30780, Note_on_c, 13, 67, 127
23, 30839, Note_on_c, 13, 67, 0
23, 30840, Note_on_c, 13, 71, 127
23, 30899, Note_on_c, 13, 71, 0
23, 30900, Note_on_c, 13, 70, 127
23, 30929, Note_on_c, 13, 70, 0
23, 30930, Note_on_c, 13, 71, 127
23, 30959, Note_on_c, 13, 71, 0
23, 30960, Note_on_c, 13, 73, 127
23, 31079, Note_on_c, 13, 73, 0
23, 31140, Note_on_c, 13, 70, 127
23, 31199, Note_on_c, 13, 70, 0
23, 31200, Note_on_c, 13, 71, 127
23, 31259, Note_on_c, 13, 71, 0
23, 31260, Note_on_c, 13, 70, 127
23, 31289, Note_on_c, 13, 70, 0
23, 31290, Note_on_c, 13, 71, 127
23, 31319, Note_on_c, 13, 71, 0
23, 31320, Note_on_c, 13, 71, 127
23, 31379, Note_on_c, 13, 71, 0
23, 31380, Note_on_c, 13, 69, 127
23, 31439, Note_on_c, 13, 69, 0
23, 31440, Note_on_c, 13, 67, 127
23, 31499, Note_on_c, 13, 67, 0
23, 31500, Note_on_c, 13, 66, 127
23, 31559, Note_on_c, 13, 66, 0
23, 31560, Note_on_c, 13, 64, 127
23, 31619, Note_on_c, 13, 64, 0
23, 31620, Note_on_c, 13, 66, 127
23, 31649, Note_on_c, 13, 66, 0
23, 31650, Note_on_c, 13, 67, 127
23, 31679, Note_on_c, 13, 67, 0
23, 31680, Note_on_c, 13, 61, 127
23, 31799, Note_on_c, 13, 61, 0
23, 31800, Note_on_c, 13, 61, 127
23, 31859, Note_on_c, 13, 61, 0
23, 32580, Note_on_c, 13, 66, 127
23, 32639, Note_on_c, 13, 66, 0
23, 32640, Note_on_c, 13, 66, 127
23, 32699, Note_on_c, 13, 66, 0
23, 32700, Note_on_c, 13, 66, 127
23, 32729, Note_on_c, 13, 66, 0
23, 32730, Note_on_c, 13, 66, 127
23, 32759, Note_on_c, 13, 66, 0
23, 32760, Note_on_c, 13, 71, 127
23, 32879, Note_on_c, 13, 71, 0
23, 32940, Note_on_c, 13, 62, 127
23, 32999, Note_on_c, 13, 62, 0
23, 33000, Note_on_c, 13, 63, 127
23, 33059, Note_on_c, 13, 63, 0
23, 33060, Note_on_c, 13, 63, 127
23, 33089, Note_on_c, 13, 63, 0
23, 33090, Note_on_c, 13, 64, 127
23, 33119, Note_on_c, 13, 64, 0
23, 33120, Note_on_c, 13, 66, 127
23, 33179, Note_on_c, 13, 66, 0
23, 33180, Note_on_c, 13, 69, 127
23, 33209, Note_on_c, 13, 69, 0
23, 33210, Note_on_c, 13, 67, 127
23, 33239, Note_on_c, 13, 67, 0
23, 33240, Note_on_c, 13, 66, 127
23, 33299, Note_on_c, 13, 66, 0
23, 33300, Note_on_c, 13, 69, 127
23, 33329, Note_on_c, 13, 69, 0
23, 33330, Note_on_c, 13, 67, 127
23, 33359, Note_on_c, 13, 67, 0
23, 33360, Note_on_c, 13, 66, 127
23, 33419, Note_on_c, 13, 66, 0
23, 33420, Note_on_c, 13, 69, 127
23, 33449, Note_on_c, 13, 69, 0
23, 33450, Note_on_c, 13, 67, 127
23, 33479, Note_on_c, 13, 67, 0
23, 33480, Note_on_c, 13, 66, 127
23, 33659, Note_on_c, 13, 66, 0
23, 33660, Note_on_c, 13, 64, 127
23, 33719, Note_on_c, 13, 64, 0
23, 33720, Note_on_c, 13, 63, 127
23, 33779, Note_on_c, 13, 63, 0
23, 33780, Note_on_c, 13, 66, 127
23, 33839, Note_on_c, 13, 66, 0
23, 33840, Note_on_c, 13, 59, 127
23, 33899, Note_on_c, 13, 59, 0
23, 33900, Note_on_c, 13, 64, 127
23, 33959, Note_on_c, 13, 64, 0
23, 33960, Note_on_c, 13, 67, 127
23, 34019, Note_on_c, 13, 67, 0
23, 34020, Note_on_c, 13, 71, 127
23, 34049, Note_on_c, 13, 71, 0
23, 34050, Note_on_c, 13, 69, 127
23, 34079, Note_on_c, 13, 69, 0
23, 34080, Note_on_c, 13, 67, 127
23, 34139, Note_on_c, 13, 67, 0
23, 34260, Note_on_c, 13, 64, 127
23, 34319, Note_on_c, 13, 64, 0
23, 34320, Note_on_c, 13, 69, 127
23, 34379, Note_on_c, 13, 69, 0
23, 34380, Note_on_c, 13, 73, 127
23, 34409, Note_on_c, 13, 73, 0
23, 34410, Note_on_c, 13, 71, 127
23, 34439, Note_on_c, 13, 71, 0
23, 34440, Note_on_c, 13, 73, 127
23, 34499, Note_on_c, 13, 73, 0
23, 34620, Note_on_c, 13, 62, 127
23, 34679, Note_on_c, 13, 62, 0
23, 34680, Note_on_c, 13, 66, 127
23, 34739, Note_on_c, 13, 66, 0
23, 34740, Note_on_c, 13, 69, 127
23, 34769, Note_on_c, 13, 69, 0
23, 34770, Note_on_c, 13, 67, 127
23, 34799, Note_on_c, 13, 67, 0
23, 34800, Note_on_c, 13, 66, 127
23, 34859, Note_on_c, 13, 66, 0
23, 34980, Note_on_c, 13, 62, 127
23, 35039, Note_on_c, 13, 62, 0
23, 35040, Note_on_c, 13, 67, 127
23, 35099, Note_on_c, 13, 67, 0
23, 35100, Note_on_c, 13, 71, 127
23, 35129, Note_on_c, 13, 71, 0
23, 35130, Note_on_c, 13, 69, 127
23, 35159, Note_on_c, 13, 69, 0
23, 35160, Note_on_c, 13, 71, 127
23, 35219, Note_on_c, 13, 71, 0
23, 35340, Note_on_c, 13, 67, 127
23, 35399, Note_on_c, 13, 67, 0
23, 35400, Note_on_c, 13, 64, 127
23, 35459, Note_on_c, 13, 64, 0
23, 35460, Note_on_c, 13, 67, 127
23, 35489, Note_on_c, 13, 67, 0
23, 35490, Note_on_c, 13, 66, 127
23, 35519, Note_on_c, 13, 66, 0
23, 35520, Note_on_c, 13, 64, 127
23, 35579, Note_on_c, 13, 64, 0
23, 35700, Note_on_c, 13, 61, 127
23, 35759, Note_on_c, 13, 61, 0
23, 35760, Note_on_c, 13, 66, 127
23, 35819, Note_on_c, 13, 66, 0
23, 35820, Note_on_c, 13, 70, 127
23, 35849, Note_on_c, 13, 70, 0
23, 35850, Note_on_c, 13, 68, 127
23, 35879, Note_on_c, 13, 68, 0
23, 35880, Note_on_c, 13, 70, 127
23, 35939, Note_on_c, 13, 70, 0
23, 35940, Note_on_c, 13, 66, 127
23, 35969, Note_on_c, 13, 66, 0
23, 35970, Note_on_c, 13, 66, 127
23, 35999, Note_on_c, 13, 66, 0
23, 36000, Note_on_c, 13, 66, 127
23, 36059, Note_on_c, 13, 66, 0
23, 36060, Note_on_c, 13, 62, 127
23, 36119, Note_on_c, 13, 62, 0
23, 36120, Note_on_c, 13, 67, 127
23, 36299, Note_on_c, 13, 67, 0
23, 36300, Note_on_c, 13, 67, 127
23, 36329, Note_on_c, 13, 67, 0
23, 36330, Note_on_c, 13, 67, 127
23, 36359, Note_on_c, 13, 67, 0
23, 36360, Note_on_c, 13, 66, 127
23, 36479, Note_on_c, 13, 66, 0
23, 36480, Note_on_c, 13, 61, 127
23, 36539, Note_on_c, 13, 61, 0
23, 36540, Note_on_c, 13, 70, 127
23, 36599, Note_on_c, 13, 70, 0
23, 36600, Note_on_c, 13, 70, 127
23, 36659, Note_on_c, 13, 70, 0
23, 36660, Note_on_c, 13, 68, 127
23, 36689, Note_on_c, 13, 68, 0
23, 36690, Note_on_c, 13, 70, 127
23, 36719, Note_on_c, 13, 70, 0
23, 36720, Note_on_c, 13, 71, 127
23, 36779, Note_on_c, 13, 71, 0
23, 36780, Note_on_c, 13, 66, 127
23, 36839, Note_on_c, 13, 66, 0
23, 36840, Note_on_c, 13, 62, 127
23, 36899, Note_on_c, 13, 62, 0
23, 36900, Note_on_c, 13, 71, 127
23, 36959, Note_on_c, 13, 71, 0
23, 36960, Note_on_c, 13, 71, 127
23, 37019, Note_on_c, 13, 71, 0
23, 37020, Note_on_c, 13, 70, 127
23, 37049, Note_on_c, 13, 70, 0
23, 37050, Note_on_c, 13, 71, 127
23, 37079, Note_on_c, 13, 71, 0
23, 37080, Note_on_c, 13, 73, 127
23, 37139, Note_on_c, 13, 73, 0
23, 37140, Note_on_c, 13, 70, 127
23, 37199, Note_on_c, 13, 70, 0
23, 37200, Note_on_c, 13, 61, 127
23, 37259, Note_on_c, 13, 61, 0
23, 37260, Note_on_c, 13, 70, 127
23, 37319, Note_on_c, 13, 70, 0
23, 37320, Note_on_c, 13, 73, 127
23, 37379, Note_on_c, 13, 73, 0
23, 37380, Note_on_c, 13, 70, 127
23, 37439, Note_on_c, 13, 70, 0
23, 37440, Note_on_c, 13, 66, 127
23, 37499, Note_on_c, 13, 66, 0
23, 37500, Note_on_c, 13, 71, 127
23, 37619, Note_on_c, 13, 71, 0
23, 37620, Note_on_c, 13, 67, 127
23, 37679, Note_on_c, 13, 67, 0
23, 37680, Note_on_c, 13, 66, 127
23, 37739, Note_on_c, 13, 66, 0
23, 37740, Note_on_c, 13, 66, 127
23, 37799, Note_on_c, 13, 66, 0
23, 37800, Note_on_c, 13, 68, 127
23, 38159, Note_on_c, 13, 68, 0
23, 38160, Note_on_c, 13, 66, 127
23, 38519, Note_on_c, 13, 66, 0
23, 38520, Note_on_c, 13, 65, 127
23, 38879, Note_on_c, 13, 65, 0
23, 38880, Note_on_c, 13, 69, 127
23, 39059, Note_on_c, 13, 69, 0
23, 39060, Note_on_c, 13, 69, 127
23, 39119, Note_on_c, 13, 69, 0
23, 39120, Note_on_c, 13, 69, 127
23, 39179, Note_on_c, 13, 69, 0
23, 39180, Note_on_c, 13, 73, 127
23, 39239, Note_on_c, 13, 73, 0
23, 39240, Note_on_c, 13, 66, 127
23, 39299, Note_on_c, 13, 66, 0
23, 39300, Note_on_c, 13, 71, 127
23, 39329, Note_on_c, 13, 71, 0
23, 39330, Note_on_c, 13, 69, 127
23, 39359, Note_on_c, 13, 69, 0
23, 39360, Note_on_c, 13, 68, 127
23, 39419, Note_on_c, 13, 68, 0
23, 39420, Note_on_c, 13, 66, 127
23, 39479, Note_on_c, 13, 66, 0
23, 39480, Note_on_c, 13, 66, 127
23, 39539, Note_on_c, 13, 66, 0
23, 39540, Note_on_c, 13, 61, 127
23, 39599, Note_on_c, 13, 61, 0
23, 39600, Note_on_c, 13, 61, 127
23, 39959, Note_on_c, 13, 61, 0
23, 49980, Note_on_c, 13, 64, 127
23, 50039, Note_on_c, 13, 64, 0
23, 50040, Note_on_c, 13, 66, 127
23, 50099, Note_on_c, 13, 66, 0
23, 50100, Note_on_c, 13, 62, 127
23, 50159, Note_on_c, 13, 62, 0
23, 50340, Note_on_c, 13, 69, 127
23, 50399, Note_on_c, 13, 69, 0
23, 50400, Note_on_c, 13, 66, 127
23, 50429, Note_on_c, 13, 66, 0
23, 50430, Note_on_c, 13, 62, 127
23, 50459, Note_on_c, 13, 62, 0
23, 50460, Note_on_c, 13, 64, 127
23, 50489, Note_on_c, 13, 64, 0
23, 50490, Note_on_c, 13, 66, 127
23, 50519, Note_on_c, 13, 66, 0
23, 50520, Note_on_c, 13, 67, 127
23, 50549, Note_on_c, 13, 67, 0
23, 50550, Note_on_c, 13, 69, 127
23, 50579, Note_on_c, 13, 69, 0
23, 50580, Note_on_c, 13, 71, 127
23, 50609, Note_on_c, 13, 71, 0
23, 50610, Note_on_c, 13, 73, 127
23, 50639, Note_on_c, 13, 73, 0
23, 50640, Note_on_c, 13, 74, 127
23, 50669, Note_on_c, 13, 74, 0
23, 50670, Note_on_c, 13, 73, 127
23, 50699, Note_on_c, 13, 73, 0
23, 50700, Note_on_c, 13, 74, 127
23, 50729, Note_on_c, 13, 74, 0
23, 50730, Note_on_c, 13, 73, 127
23, 50759, Note_on_c, 13, 73, 0
23, 50760, Note_on_c, 13, 74, 127
23, 50789, Note_on_c, 13, 74, 0
23, 50790, Note_on_c, 13, 69, 127
23, 50819, Note_on_c, 13, 69, 0
23, 50820, Note_on_c, 13, 67, 127
23, 50849, Note_on_c, 13, 67, 0
23, 50850, Note_on_c, 13, 66, 127
23, 50879, Note_on_c, 13, 66, 0
23, 50880, Note_on_c, 13, 64, 127
23, 50909, Note_on_c, 13, 64, 0
23, 50910, Note_on_c, 13, 62, 127
23, 50939, Note_on_c, 13, 62, 0
23, 50940, Note_on_c, 13, 61, 127
23, 50969, Note_on_c, 13, 61, 0
23, 50970, Note_on_c, 13, 59, 127
23, 50999, Note_on_c, 13, 59, 0
23, 51000, Note_on_c, 13, 57, 127
23, 51059, Note_on_c, 13, 57, 0
23, 51060, Note_on_c, 13, 62, 127
23, 51089, Note_on_c, 13, 62, 0
23, 51090, Note_on_c, 13, 62, 127
23, 51119, Note_on_c, 13, 62, 0
23, 51120, Note_on_c, 13, 62, 127
23, 51149, Note_on_c, 13, 62, 0
23, 51150, Note_on_c, 13, 59, 127
23, 51179, Note_on_c, 13, 59, 0
23, 51180, Note_on_c, 13, 60, 127
23, 51209, Note_on_c, 13, 60, 0
23, 51210, Note_on_c, 13, 62, 127
23, 51239, Note_on_c, 13, 62, 0
23, 51240, Note_on_c, 13, 64, 127
23, 51269, Note_on_c, 13, 64, 0
23, 51270, Note_on_c, 13, 66, 127
23, 51299, Note_on_c, 13, 66, 0
23, 51300, Note_on_c, 13, 67, 127
23, 51329, Note_on_c, 13, 67, 0
23, 51330, Note_on_c, 13, 69, 127
23, 51359, Note_on_c, 13, 69, 0
23, 51360, Note_on_c, 13, 71, 127
23, 51389, Note_on_c, 13, 71, 0
23, 51390, Note_on_c, 13, 69, 127
23, 51419, Note_on_c, 13, 69, 0
23, 51420, Note_on_c, 13, 71, 127
23, 51449, Note_on_c, 13, 71, 0
23, 51450, Note_on_c, 13, 67, 127
23, 51479, Note_on_c, 13, 67, 0
23, 51480, Note_on_c, 13, 66, 127
23, 51539, Note_on_c, 13, 66, 0
23, 51540, Note_on_c, 13, 62, 127
23, 51599, Note_on_c, 13, 62, 0
23, 51660, Note_on_c, 13, 69, 127
23, 51719, Note_on_c, 13, 69, 0
23, 51720, Note_on_c, 13, 66, 127
23, 51779, Note_on_c, 13, 66, 0
23, 51780, Note_on_c, 13, 64, 127
23, 51809, Note_on_c, 13, 64, 0
23, 51810, Note_on_c, 13, 66, 127
23, 51839, Note_on_c, 13, 66, 0
23, 51840, Note_on_c, 13, 61, 127
23, 51959, Note_on_c, 13, 61, 0
23, 54300, Note_on_c, 13, 69, 127
23, 54359, Note_on_c, 13, 69, 0
23, 54360, Note_on_c, 13, 69, 127
23, 54419, Note_on_c, 13, 69, 0
23, 54420, Note_on_c, 13, 66, 127
23, 54479, Note_on_c, 13, 66, 0
23, 54660, Note_on_c, 13, 69, 127
23, 54719, Note_on_c, 13, 69, 0
23, 54720, Note_on_c, 13, 74, 127
23, 54779, Note_on_c, 13, 74, 0
23, 54780, Note_on_c, 13, 69, 127
23, 54839, Note_on_c, 13, 69, 0
23, 55020, Note_on_c, 13, 69, 127
23, 55079, Note_on_c, 13, 69, 0
23, 55080, Note_on_c, 13, 74, 127
23, 55139, Note_on_c, 13, 74, 0
23, 55140, Note_on_c, 13, 69, 127
23, 55169, Note_on_c, 13, 69, 0
23, 55170, Note_on_c, 13, 66, 127
23, 55199, Note_on_c, 13, 66, 0
23, 55200, Note_on_c, 13, 62, 127
23, 55319, Note_on_c, 13, 62, 0
23, 55380, Note_on_c, 13, 66, 127
23, 55439, Note_on_c, 13, 66, 0
23, 55440, Note_on_c, 13, 62, 127
23, 55469, Note_on_c, 13, 62, 0
23, 55470, Note_on_c, 13, 57, 127
23, 55499, Note_on_c, 13, 57, 0
23, 55500, Note_on_c, 13, 59, 127
23, 55529, Note_on_c, 13, 59, 0
23, 55530, Note_on_c, 13, 61, 127
23, 55559, Note_on_c, 13, 61, 0
23, 55560, Note_on_c, 13, 62, 127
23, 55589, Note_on_c, 13, 62, 0
23, 55590, Note_on_c, 13, 64, 127
23, 55619, Note_on_c, 13, 64, 0
23, 55620, Note_on_c, 13, 66, 127
23, 55649, Note_on_c, 13, 66, 0
23, 55650, Note_on_c, 13, 67, 127
23, 55679, Note_on_c, 13, 67, 0
23, 55680, Note_on_c, 13, 69, 127
23, 55739, Note_on_c, 13, 69, 0
23, 55740, Note_on_c, 13, 66, 127
23, 55769, Note_on_c, 13, 66, 0
23, 55770, Note_on_c, 13, 66, 127
23, 55799, Note_on_c, 13, 66, 0
23, 55800, Note_on_c, 13, 66, 127
23, 55829, Note_on_c, 13, 66, 0
23, 55830, Note_on_c, 13, 74, 127
23, 55859, Note_on_c, 13, 74, 0
23, 55860, Note_on_c, 13, 73, 127
23, 55889, Note_on_c, 13, 73, 0
23, 55890, Note_on_c, 13, 71, 127
23, 55919, Note_on_c, 13, 71, 0
23, 55920, Note_on_c, 13, 69, 127
23, 55949, Note_on_c, 13, 69, 0
23, 55950, Note_on_c, 13, 67, 127
23, 55979, Note_on_c, 13, 67, 0
23, 55980, Note_on_c, 13, 66, 127
23, 56009, Note_on_c, 13, 66, 0
23, 56010, Note_on_c, 13, 64, 127
23, 56039, Note_on_c, 13, 64, 0
23, 56040, Note_on_c, 13, 62, 127
23, 56099, Note_on_c, 13, 62, 0
23, 56100, Note_on_c, 13, 69, 127
23, 56129, Note_on_c, 13, 69, 0
23, 56130, Note_on_c, 13, 69, 127
23, 56159, Note_on_c, 13, 69, 0
23, 56160, Note_on_c, 13, 71, 127
23, 56219, Note_on_c, 13, 71, 0
23, 56220, Note_on_c, 13, 69, 127
23, 56249, Note_on_c, 13, 69, 0
23, 56250, Note_on_c, 13, 67, 127
23, 56279, Note_on_c, 13, 67, 0
23, 56280, Note_on_c, 13, 66, 127
23, 56309, Note_on_c, 13, 66, 0
23, 56310, Note_on_c, 13, 64, 127
23, 56339, Note_on_c, 13, 64, 0
23, 56340, Note_on_c, 13, 62, 127
23, 56369, Note_on_c, 13, 62, 0
23, 56370, Note_on_c, 13, 61, 127
23, 56399, Note_on_c, 13, 61, 0
23, 56400, Note_on_c, 13, 59, 127
23, 56459, Note_on_c, 13, 59, 0
23, 56460, Note_on_c, 13, 59, 127
23, 56489, Note_on_c, 13, 59, 0
23, 56490, Note_on_c, 13, 59, 127
23, 56519, Note_on_c, 13, 59, 0
23, 56520, Note_on_c, 13, 59, 127
23, 56820, Note_on_c, 13, 59, 0
23, 56820, Note_on_c, 13, 71, 127
23, 56880, Note_on_c, 13, 71, 0
23, 56880, Note_on_c, 13, 69, 127
23, 56939, Note_on_c, 13, 69, 0
23, 56940, Note_on_c, 13, 69, 127
23, 56999, Note_on_c, 13, 69, 0
23, 57000, Note_on_c, 13, 69, 127
23, 57029, Note_on_c, 13, 69, 0
23, 57030, Note_on_c, 13, 68, 127
23, 57059, Note_on_c, 13, 68, 0
23, 57060, Note_on_c, 13, 69, 127
23, 57089, Note_on_c, 13, 69, 0
23, 57090, Note_on_c, 13, 66, 127
23, 57119, Note_on_c, 13, 66, 0
23, 57120, Note_on_c, 13, 68, 127
23, 57209, Note_on_c, 13, 68, 0
23, 57210, Note_on_c, 13, 64, 127
23, 57239, Note_on_c, 13, 64, 0
23, 57240, Note_on_c, 13, 64, 127
23, 57359, Note_on_c, 13, 64, 0
23, 60900, Note_on_c, 13, 69, 127
23, 60960, Note_on_c, 13, 69, 0
23, 60960, Note_on_c, 13, 69, 127
23, 61020, Note_on_c, 13, 69, 0
23, 61020, Note_on_c, 13, 64, 127
23, 61080, Note_on_c, 13, 64, 0
23, 61140, Note_on_c, 13, 69, 127
23, 61200, Note_on_c, 13, 69, 0
23, 61200, Note_on_c, 13, 72, 127
23, 61260, Note_on_c, 13, 72, 0
23, 61260, Note_on_c, 13, 69, 127
23, 61320, Note_on_c, 13, 69, 0
23, 61380, Note_on_c, 13, 66, 127
23, 61440, Note_on_c, 13, 66, 0
23, 61440, Note_on_c, 13, 69, 127
23, 61500, Note_on_c, 13, 69, 0
23, 61500, Note_on_c, 13, 69, 127
23, 61529, Note_on_c, 13, 69, 0
23, 61530, Note_on_c, 13, 69, 127
23, 61559, Note_on_c, 13, 69, 0
23, 61560, Note_on_c, 13, 69, 127
23, 61800, Note_on_c, 13, 69, 0
23, 61860, Note_on_c, 13, 71, 127
23, 61920, Note_on_c, 13, 71, 0
23, 61920, Note_on_c, 13, 71, 127
23, 61980, Note_on_c, 13, 71, 0
23, 61980, Note_on_c, 13, 67, 127
23, 62040, Note_on_c, 13, 67, 0
23, 62100, Note_on_c, 13, 71, 127
23, 62160, Note_on_c, 13, 71, 0
23, 62160, Note_on_c, 13, 76, 127
23, 62220, Note_on_c, 13, 76, 0
23, 62220, Note_on_c, 13, 71, 127
23, 62280, Note_on_c, 13, 71, 0
23, 62460, Note_on_c, 13, 67, 127
23, 62520, Note_on_c, 13, 67, 0
23, 62520, Note_on_c, 13, 67, 127
23, 62580, Note_on_c, 13, 67, 0
23, 62580, Note_on_c, 13, 67, 127
23, 62609, Note_on_c, 13, 67, 0
23, 62610, Note_on_c, 13, 67, 127
23, 62639, Note_on_c, 13, 67, 0
23, 62640, Note_on_c, 13, 64, 127
23, 62999, Note_on_c, 13, 64, 0
23, 63180, Note_on_c, 13, 69, 127
23, 63239, Note_on_c, 13, 69, 0
23, 63240, Note_on_c, 13, 69, 127
23, 63299, Note_on_c, 13, 69, 0
23, 63300, Note_on_c, 13, 69, 127
23, 63329, Note_on_c, 13, 69, 0
23, 63330, Note_on_c, 13, 69, 127
23, 63359, Note_on_c, 13, 69, 0
23, 63360, Note_on_c, 13, 69, 127
23, 63419, Note_on_c, 13, 69, 0
23, 63420, Note_on_c, 13, 71, 127
23, 63449, Note_on_c, 13, 71, 0
23, 63450, Note_on_c, 13, 69, 127
23, 63479, Note_on_c, 13, 69, 0
23, 63480, Note_on_c, 13, 67, 127
23, 63539, Note_on_c, 13, 67, 0
23, 63540, Note_on_c, 13, 67, 127
23, 63599, Note_on_c, 13, 67, 0
23, 63600, Note_on_c, 13, 67, 127
23, 63659, Note_on_c, 13, 67, 0
23, 63660, Note_on_c, 13, 67, 127
23, 63689, Note_on_c, 13, 67, 0
23, 63690, Note_on_c, 13, 67, 127
23, 63719, Note_on_c, 13, 67, 0
23, 63720, Note_on_c, 13, 67, 127
23, 63779, Note_on_c, 13, 67, 0
23, 63780, Note_on_c, 13, 69, 127
23, 63809, Note_on_c, 13, 69, 0
23, 63810, Note_on_c, 13, 67, 127
23, 63839, Note_on_c, 13, 67, 0
23, 63840, Note_on_c, 13, 66, 127
23, 63899, Note_on_c, 13, 66, 0
23, 63900, Note_on_c, 13, 66, 127
23, 63959, Note_on_c, 13, 66, 0
23, 63960, Note_on_c, 13, 66, 127
23, 64019, Note_on_c, 13, 66, 0
23, 64020, Note_on_c, 13, 66, 127
23, 64049, Note_on_c, 13, 66, 0
23, 64050, Note_on_c, 13, 66, 127
23, 64079, Note_on_c, 13, 66, 0
23, 64080, Note_on_c, 13, 66, 127
23, 64139, Note_on_c, 13, 66, 0
23, 64140, Note_on_c, 13, 67, 127
23, 64169, Note_on_c, 13, 67, 0
23, 64170, Note_on_c, 13, 66, 127
23, 64199, Note_on_c, 13, 66, 0
23, 64200, Note_on_c, 13, 64, 127
23, 64319, Note_on_c, 13, 64, 0
23, 64380, Note_on_c, 13, 64, 127
23, 64439, Note_on_c, 13, 64, 0
23, 64440, Note_on_c, 13, 62, 127
23, 64499, Note_on_c, 13, 62, 0
23, 64500, Note_on_c, 13, 74, 127
23, 64559, Note_on_c, 13, 74, 0
23, 64710, Note_on_c, 13, 69, 127
23, 64739, Note_on_c, 13, 69, 0
23, 64740, Note_on_c, 13, 71, 127
23, 64769, Note_on_c, 13, 71, 0
23, 64770, Note_on_c, 13, 73, 127
23, 64799, Note_on_c, 13, 73, 0
23, 64800, Note_on_c, 13, 74, 127
23, 64829, Note_on_c, 13, 74, 0
23, 64830, Note_on_c, 13, 72, 127
23, 64859, Note_on_c, 13, 72, 0
23, 64860, Note_on_c, 13, 71, 127
23, 64889, Note_on_c, 13, 71, 0
23, 64890, Note_on_c, 13, 69, 127
23, 64919, Note_on_c, 13, 69, 0
23, 64920, Note_on_c, 13, 68, 127
23, 64979, Note_on_c, 13, 68, 0
23, 64980, Note_on_c, 13, 64, 127
23, 65009, Note_on_c, 13, 64, 0
23, 65010, Note_on_c, 13, 64, 127
23, 65039, Note_on_c, 13, 64, 0
23, 65040, Note_on_c, 13, 62, 127
23, 65069, Note_on_c, 13, 62, 0
23, 65070, Note_on_c, 13, 69, 127
23, 65099, Note_on_c, 13, 69, 0
23, 65100, Note_on_c, 13, 68, 127
23, 65129, Note_on_c, 13, 68, 0
23, 65130, Note_on_c, 13, 69, 127
23, 65159, Note_on_c, 13, 69, 0
23, 65160, Note_on_c, 13, 71, 127
23, 65189, Note_on_c, 13, 71, 0
23, 65190, Note_on_c, 13, 69, 127
23, 65219, Note_on_c, 13, 69, 0
23, 65220, Note_on_c, 13, 68, 127
23, 65249, Note_on_c, 13, 68, 0
23, 65250, Note_on_c, 13, 66, 127
23, 65279, Note_on_c, 13, 66, 0
23, 65280, Note_on_c, 13, 64, 127
23, 65339, Note_on_c, 13, 64, 0
23, 65340, Note_on_c, 13, 64, 127
23, 65369, Note_on_c, 13, 64, 0
23, 65370, Note_on_c, 13, 64, 127
23, 65399, Note_on_c, 13, 64, 0
23, 65400, Note_on_c, 13, 68, 127
23, 65459, Note_on_c, 13, 68, 0
23, 65460, Note_on_c, 13, 68, 127
23, 65489, Note_on_c, 13, 68, 0
23, 65490, Note_on_c, 13, 68, 127
23, 65519, Note_on_c, 13, 68, 0
23, 65520, Note_on_c, 13, 69, 127
23, 65639, Note_on_c, 13, 69, 0
23, 65700, Note_on_c, 13, 69, 127
23, 65759, Note_on_c, 13, 69, 0
23, 65760, Note_on_c, 13, 73, 127
23, 65819, Note_on_c, 13, 73, 0
23, 65820, Note_on_c, 13, 74, 127
23, 65849, Note_on_c, 13, 74, 0
23, 65850, Note_on_c, 13, 73, 127
23, 65879, Note_on_c, 13, 73, 0
23, 65880, Note_on_c, 13, 69, 127
23, 65939, Note_on_c, 13, 69, 0
23, 65940, Note_on_c, 13, 69, 127
23, 65999, Note_on_c, 13, 69, 0
23, 66060, Note_on_c, 13, 69, 127
23, 66119, Note_on_c, 13, 69, 0
23, 66120, Note_on_c, 13, 74, 127
23, 66179, Note_on_c, 13, 74, 0
23, 66180, Note_on_c, 13, 76, 127
23, 66209, Note_on_c, 13, 76, 0
23, 66210, Note_on_c, 13, 74, 127
23, 66239, Note_on_c, 13, 74, 0
23, 66240, Note_on_c, 13, 73, 127
23, 66299, Note_on_c, 13, 73, 0
23, 66300, Note_on_c, 13, 73, 127
23, 66359, Note_on_c, 13, 73, 0
23, 66420, Note_on_c, 13, 69, 127
23, 66479, Note_on_c, 13, 69, 0
23, 66480, Note_on_c, 13, 69, 127
23, 66539, Note_on_c, 13, 69, 0
23, 66540, Note_on_c, 13, 69, 127
23, 66569, Note_on_c, 13, 69, 0
23, 66570, Note_on_c, 13, 69, 127
23, 66599, Note_on_c, 13, 69, 0
23, 66600, Note_on_c, 13, 69, 127
23, 67260, Note_on_c, 13, 69, 0
23, 67260, Note_on_c, 13, 69, 127
23, 67319, Note_on_c, 13, 69, 0
23, 67320, Note_on_c, 13, 67, 127
23, 67379, Note_on_c, 13, 67, 0
23, 67380, Note_on_c, 13, 71, 127
23, 67439, Note_on_c, 13, 71, 0
23, 67440, Note_on_c, 13, 73, 127
23, 67469, Note_on_c, 13, 73, 0
23, 67470, Note_on_c, 13, 74, 127
23, 67499, Note_on_c, 13, 74, 0
23, 67500, Note_on_c, 13, 73, 127
23, 67529, Note_on_c, 13, 73, 0
23, 67530, Note_on_c, 13, 74, 127
23, 67559, Note_on_c, 13, 74, 0
23, 67560, Note_on_c, 13, 76, 127
23, 67619, Note_on_c, 13, 76, 0
23, 67620, Note_on_c, 13, 69, 127
23, 67679, Note_on_c, 13, 69, 0
23, 67680, Note_on_c, 13, 64, 127
23, 67709, Note_on_c, 13, 64, 0
23, 67710, Note_on_c, 13, 61, 127
23, 67739, Note_on_c, 13, 61, 0
23, 67740, Note_on_c, 13, 62, 127
23, 67769, Note_on_c, 13, 62, 0
23, 67770, Note_on_c, 13, 64, 127
23, 67799, Note_on_c, 13, 64, 0
23, 67800, Note_on_c, 13, 66, 127
23, 67829, Note_on_c, 13, 66, 0
23, 67830, Note_on_c, 13, 67, 127
23, 67859, Note_on_c, 13, 67, 0
23, 67860, Note_on_c, 13, 69, 127
23, 67889, Note_on_c, 13, 69, 0
23, 67890, Note_on_c, 13, 71, 127
23, 67919, Note_on_c, 13, 71, 0
23, 67920, Note_on_c, 13, 69, 127
23, 67979, Note_on_c, 13, 69, 0
23, 67980, Note_on_c, 13, 69, 127
23, 68039, Note_on_c, 13, 69, 0
23, 68040, Note_on_c, 13, 69, 127
23, 68159, Note_on_c, 13, 69, 0
23, 331620, Note_on_c, 13, 69, 127
23, 331859, Note_on_c, 13, 69, 0
23, 331860, Note_on_c, 13, 66, 127
23, 332099, Note_on_c, 13, 66, 0
23, 333060, Note_on_c, 13, 69, 127
23, 333299, Note_on_c, 13, 69, 0
23, 333300, Note_on_c, 13, 66, 127
23, 333539, Note_on_c, 13, 66, 0
23, 334500, Note_on_c, 13, 74, 127
23, 334739, Note_on_c, 13, 74, 0
23, 334740, Note_on_c, 13, 69, 127
23, 334979, Note_on_c, 13, 69, 0
23, 334980, Note_on_c, 13, 66, 127
23, 335099, Note_on_c, 13, 66, 0
23, 335100, Note_on_c, 13, 62, 127
23, 335219, Note_on_c, 13, 62, 0
23, 335220, Note_on_c, 13, 69, 127
23, 335339, Note_on_c, 13, 69, 0
23, 335340, Note_on_c, 13, 66, 127
23, 335459, Note_on_c, 13, 66, 0
23, 335460, Note_on_c, 13, 74, 127
23, 335579, Note_on_c, 13, 74, 0
23, 335580, Note_on_c, 13, 69, 127
23, 335699, Note_on_c, 13, 69, 0
23, 335700, Note_on_c, 13, 74, 127
23, 335819, Note_on_c, 13, 74, 0
23, 335820, Note_on_c, 13, 69, 127
23, 335939, Note_on_c, 13, 69, 0
23, 335940, Note_on_c, 13, 69, 127
23, 336059, Note_on_c, 13, 69, 0
23, 336060, Note_on_c, 13, 69, 127
23, 336119, Note_on_c, 13, 69, 0
23, 336120, Note_on_c, 13, 67, 127
23, 336179, Note_on_c, 13, 67, 0
23, 336180, Note_on_c, 13, 71, 127
23, 336299, Note_on_c, 13, 71, 0
23, 336300, Note_on_c, 13, 69, 127
23, 336359, Note_on_c, 13, 69, 0
23, 336360, Note_on_c, 13, 67, 127
23, 336419, Note_on_c, 13, 67, 0
23, 336420, Note_on_c, 13, 69, 127
23, 336539, Note_on_c, 13, 69, 0
23, 336540, Note_on_c, 13, 67, 127
23, 336599, Note_on_c, 13, 67, 0
23, 336600, Note_on_c, 13, 66, 127
23, 336659, Note_on_c, 13, 66, 0
23, 336660, Note_on_c, 13, 64, 127
23, 336899, Note_on_c, 13, 64, 0
23, 336900, Note_on_c, 13, 69, 127
23, 337139, Note_on_c, 13, 69, 0
23, 337140, Note_on_c, 13, 64, 127
23, 337379, Note_on_c, 13, 64, 0
23, 338340, Note_on_c, 13, 69, 127
23, 338579, Note_on_c, 13, 69, 0
23, 338580, Note_on_c, 13, 64, 127
23, 338819, Note_on_c, 13, 64, 0
23, 339780, Note_on_c, 13, 73, 127
23, 340019, Note_on_c, 13, 73, 0
23, 340020, Note_on_c, 13, 69, 127
23, 340259, Note_on_c, 13, 69, 0
23, 340260, Note_on_c, 13, 69, 127
23, 340379, Note_on_c, 13, 69, 0
23, 340380, Note_on_c, 13, 64, 127
23, 340499, Note_on_c, 13, 64, 0
23, 340500, Note_on_c, 13, 73, 127
23, 340619, Note_on_c, 13, 73, 0
23, 340620, Note_on_c, 13, 69, 127
23, 340739, Note_on_c, 13, 69, 0
23, 340740, Note_on_c, 13, 69, 127
23, 340859, Note_on_c, 13, 69, 0
23, 340860, Note_on_c, 13, 73, 127
23, 340979, Note_on_c, 13, 73, 0
23, 340980, Note_on_c, 13, 69, 127
23, 341099, Note_on_c, 13, 69, 0
23, 341100, Note_on_c, 13, 64, 127
23, 341219, Note_on_c, 13, 64, 0
23, 341220, Note_on_c, 13, 62, 127
23, 341279, Note_on_c, 13, 62, 0
23, 341280, Note_on_c, 13, 64, 127
23, 341339, Note_on_c, 13, 64, 0
23, 341340, Note_on_c, 13, 66, 127
23, 341399, Note_on_c, 13, 66, 0
23, 341400, Note_on_c, 13, 67, 127
23, 341459, Note_on_c, 13, 67, 0
23, 341460, Note_on_c, 13, 69, 127
23, 341579, Note_on_c, 13, 69, 0
23, 341580, Note_on_c, 13, 71, 127
23, 341639, Note_on_c, 13, 71, 0
23, 341640, Note_on_c, 13, 69, 127
23, 341699, Note_on_c, 13, 69, 0
23, 341700, Note_on_c, 13, 67, 127
23, 341759, Note_on_c, 13, 67, 0
23, 341760, Note_on_c, 13, 66, 127
23, 341819, Note_on_c, 13, 66, 0
23, 341820, Note_on_c, 13, 64, 127
23, 341879, Note_on_c, 13, 64, 0
23, 341880, Note_on_c, 13, 66, 127
23, 341939, Note_on_c, 13, 66, 0
23, 341940, Note_on_c, 13, 62, 127
23, 342179, Note_on_c, 13, 62, 0
23, 342180, Note_on_c, 13, 71, 127
23, 342419, Note_on_c, 13, 71, 0
23, 342420, Note_on_c, 13, 70, 127
23, 342659, Note_on_c, 13, 70, 0
23, 342660, Note_on_c, 13, 71, 127
23, 342779, Note_on_c, 13, 71, 0
23, 342780, Note_on_c, 13, 71, 127
23, 342899, Note_on_c, 13, 71, 0
23, 342900, Note_on_c, 13, 73, 127
23, 343019, Note_on_c, 13, 73, 0
23, 343020, Note_on_c, 13, 71, 127
23, 343079, Note_on_c, 13, 71, 0
23, 343080, Note_on_c, 13, 70, 127
23, 343139, Note_on_c, 13, 70, 0
23, 343140, Note_on_c, 13, 71, 127
23, 343379, Note_on_c, 13, 71, 0
23, 343380, Note_on_c, 13, 62, 127
23, 343619, Note_on_c, 13, 62, 0
23, 343620, Note_on_c, 13, 71, 127
23, 343859, Note_on_c, 13, 71, 0
23, 343860, Note_on_c, 13, 68, 127
23, 344099, Note_on_c, 13, 68, 0
23, 344100, Note_on_c, 13, 69, 127
23, 344219, Note_on_c, 13, 69, 0
23, 344220, Note_on_c, 13, 69, 127
23, 344279, Note_on_c, 13, 69, 0
23, 344280, Note_on_c, 13, 68, 127
23, 344339, Note_on_c, 13, 68, 0
23, 344340, Note_on_c, 13, 71, 127
23, 344459, Note_on_c, 13, 71, 0
23, 344460, Note_on_c, 13, 69, 127
23, 344519, Note_on_c, 13, 69, 0
23, 344520, Note_on_c, 13, 68, 127
23, 344579, Note_on_c, 13, 68, 0
23, 344580, Note_on_c, 13, 69, 127
23, 344699, Note_on_c, 13, 69, 0
23, 344700, Note_on_c, 13, 69, 127
23, 344759, Note_on_c, 13, 69, 0
23, 344760, Note_on_c, 13, 68, 127
23, 344819, Note_on_c, 13, 68, 0
23, 344820, Note_on_c, 13, 71, 127
23, 344939, Note_on_c, 13, 71, 0
23, 344940, Note_on_c, 13, 69, 127
23, 344999, Note_on_c, 13, 69, 0
23, 345000, Note_on_c, 13, 68, 127
23, 345059, Note_on_c, 13, 68, 0
23, 345060, Note_on_c, 13, 69, 127
23, 345179, Note_on_c, 13, 69, 0
23, 345180, Note_on_c, 13, 69, 127
23, 345239, Note_on_c, 13, 69, 0
23, 345240, Note_on_c, 13, 68, 127
23, 345299, Note_on_c, 13, 68, 0
23, 345300, Note_on_c, 13, 71, 127
23, 345419, Note_on_c, 13, 71, 0
23, 345420, Note_on_c, 13, 69, 127
23, 345479, Note_on_c, 13, 69, 0
23, 345480, Note_on_c, 13, 68, 127
23, 345539, Note_on_c, 13, 68, 0
23, 345540, Note_on_c, 13, 69, 127
23, 345659, Note_on_c, 13, 69, 0
23, 345660, Note_on_c, 13, 69, 127
23, 345719, Note_on_c, 13, 69, 0
23, 345720, Note_on_c, 13, 68, 127
23, 345779, Note_on_c, 13, 68, 0
23, 345780, Note_on_c, 13, 71, 127
23, 345899, Note_on_c, 13, 71, 0
23, 345900, Note_on_c, 13, 69, 127
23, 345959, Note_on_c, 13, 69, 0
23, 345960, Note_on_c, 13, 68, 127
23, 346019, Note_on_c, 13, 68, 0
23, 346020, Note_on_c, 13, 69, 127
23, 346139, Note_on_c, 13, 69, 0
23, 346140, Note_on_c, 13, 66, 127
23, 346259, Note_on_c, 13, 66, 0
23, 346260, Note_on_c, 13, 68, 127
23, 346379, Note_on_c, 13, 68, 0
23, 346380, Note_on_c, 13, 64, 127
23, 346499, Note_on_c, 13, 64, 0
23, 346500, Note_on_c, 13, 71, 127
23, 346739, Note_on_c, 13, 71, 0
23, 346740, Note_on_c, 13, 71, 127
23, 346979, Note_on_c, 13, 71, 0
23, 346980, Note_on_c, 13, 69, 127
23, 347219, Note_on_c, 13, 69, 0
23, 347220, Note_on_c, 13, 68, 127
23, 347459, Note_on_c, 13, 68, 0
23, 347460, Note_on_c, 13, 64, 127
23, 347699, Note_on_c, 13, 64, 0
23, 347940, Note_on_c, 13, 69, 127
23, 348179, Note_on_c, 13, 69, 0
23, 348180, Note_on_c, 13, 66, 127
23, 348419, Note_on_c, 13, 66, 0
23, 349380, Note_on_c, 13, 69, 127
23, 349619, Note_on_c, 13, 69, 0
23, 349620, Note_on_c, 13, 66, 127
23, 349859, Note_on_c, 13, 66, 0
23, 350820, Note_on_c, 13, 74, 127
23, 351059, Note_on_c, 13, 74, 0
23, 351060, Note_on_c, 13, 69, 127
23, 351299, Note_on_c, 13, 69, 0
23, 351300, Note_on_c, 13, 66, 127
23, 351419, Note_on_c, 13, 66, 0
23, 351420, Note_on_c, 13, 62, 127
23, 351539, Note_on_c, 13, 62, 0
23, 351540, Note_on_c, 13, 69, 127
23, 351659, Note_on_c, 13, 69, 0
23, 351660, Note_on_c, 13, 66, 127
23, 351779, Note_on_c, 13, 66, 0
23, 351780, Note_on_c, 13, 74, 127
23, 351899, Note_on_c, 13, 74, 0
23, 351900, Note_on_c, 13, 69, 127
23, 352019, Note_on_c, 13, 69, 0
23, 352020, Note_on_c, 13, 74, 127
23, 352139, Note_on_c, 13, 74, 0
23, 352140, Note_on_c, 13, 69, 127
23, 352259, Note_on_c, 13, 69, 0
23, 352260, Note_on_c, 13, 69, 127
23, 352379, Note_on_c, 13, 69, 0
23, 352380, Note_on_c, 13, 69, 127
23, 352439, Note_on_c, 13, 69, 0
23, 352440, Note_on_c, 13, 67, 127
23, 352499, Note_on_c, 13, 67, 0
23, 352500, Note_on_c, 13, 71, 127
23, 352619, Note_on_c, 13, 71, 0
23, 352620, Note_on_c, 13, 69, 127
23, 352679, Note_on_c, 13, 69, 0
23, 352680, Note_on_c, 13, 67, 127
23, 352739, Note_on_c, 13, 67, 0
23, 352740, Note_on_c, 13, 69, 127
23, 352859, Note_on_c, 13, 69, 0
23, 352860, Note_on_c, 13, 67, 127
23, 352919, Note_on_c, 13, 67, 0
23, 352920, Note_on_c, 13, 66, 127
23, 352979, Note_on_c, 13, 66, 0
23, 352980, Note_on_c, 13, 64, 127
23, 353219, Note_on_c, 13, 64, 0
23, 353220, Note_on_c, 13, 69, 127
23, 353459, Note_on_c, 13, 69, 0
23, 353460, Note_on_c, 13, 64, 127
23, 353699, Note_on_c, 13, 64, 0
23, 354660, Note_on_c, 13, 69, 127
23, 354899, Note_on_c, 13, 69, 0
23, 354900, Note_on_c, 13, 64, 127
23, 355139, Note_on_c, 13, 64, 0
23, 356100, Note_on_c, 13, 73, 127
23, 356339, Note_on_c, 13, 73, 0
23, 356340, Note_on_c, 13, 69, 127
23, 356579, Note_on_c, 13, 69, 0
23, 356580, Note_on_c, 13, 69, 127
23, 356699, Note_on_c, 13, 69, 0
23, 356700, Note_on_c, 13, 64, 127
23, 356819, Note_on_c, 13, 64, 0
23, 356820, Note_on_c, 13, 73, 127
23, 356939, Note_on_c, 13, 73, 0
23, 356940, Note_on_c, 13, 69, 127
23, 357059, Note_on_c, 13, 69, 0
23, 357060, Note_on_c, 13, 69, 127
23, 357179, Note_on_c, 13, 69, 0
23, 357180, Note_on_c, 13, 73, 127
23, 357299, Note_on_c, 13, 73, 0
23, 357300, Note_on_c, 13, 69, 127
23, 357419, Note_on_c, 13, 69, 0
23, 357420, Note_on_c, 13, 64, 127
23, 357539, Note_on_c, 13, 64, 0
23, 357540, Note_on_c, 13, 71, 127
23, 357659, Note_on_c, 13, 71, 0
23, 357660, Note_on_c, 13, 71, 127
23, 357779, Note_on_c, 13, 71, 0
23, 357780, Note_on_c, 13, 69, 127
23, 357899, Note_on_c, 13, 69, 0
23, 357900, Note_on_c, 13, 71, 127
23, 358019, Note_on_c, 13, 71, 0
23, 358020, Note_on_c, 13, 69, 127
23, 358139, Note_on_c, 13, 69, 0
23, 358140, Note_on_c, 13, 67, 127
23, 358199, Note_on_c, 13, 67, 0
23, 358200, Note_on_c, 13, 69, 127
23, 358259, Note_on_c, 13, 69, 0
23, 358260, Note_on_c, 13, 66, 127
23, 358499, Note_on_c, 13, 66, 0
23, 358500, Note_on_c, 13, 66, 127
23, 358739, Note_on_c, 13, 66, 0
23, 358740, Note_on_c, 13, 71, 127
23, 358979, Note_on_c, 13, 71, 0
23, 358980, Note_on_c, 13, 71, 127
23, 359099, Note_on_c, 13, 71, 0
23, 359100, Note_on_c, 13, 68, 127
23, 359219, Note_on_c, 13, 68, 0
23, 359220, Note_on_c, 13, 69, 127
23, 359339, Note_on_c, 13, 69, 0
23, 359340, Note_on_c, 13, 64, 127
23, 359459, Note_on_c, 13, 64, 0
23, 359460, Note_on_c, 13, 69, 127
23, 359579, Note_on_c, 13, 69, 0
23, 359580, Note_on_c, 13, 64, 127
23, 359699, Note_on_c, 13, 64, 0
23, 359700, Note_on_c, 13, 69, 127
23, 359819, Note_on_c, 13, 69, 0
23, 359820, Note_on_c, 13, 69, 127
23, 359939, Note_on_c, 13, 69, 0
23, 359940, Note_on_c, 13, 69, 127
23, 360059, Note_on_c, 13, 69, 0
23, 360060, Note_on_c, 13, 68, 127
23, 360119, Note_on_c, 13, 68, 0
23, 360120, Note_on_c, 13, 66, 127
23, 360179, Note_on_c, 13, 66, 0
23, 360180, Note_on_c, 13, 71, 127
23, 360299, Note_on_c, 13, 71, 0
23, 360300, Note_on_c, 13, 71, 127
23, 360419, Note_on_c, 13, 71, 0
23, 360420, Note_on_c, 13, 71, 127
23, 360539, Note_on_c, 13, 71, 0
23, 360540, Note_on_c, 13, 69, 127
23, 360659, Note_on_c, 13, 69, 0
23, 360660, Note_on_c, 13, 65, 127
23, 360779, Note_on_c, 13, 65, 0
23, 360780, Note_on_c, 13, 66, 127
23, 360839, Note_on_c, 13, 66, 0
23, 360840, Note_on_c, 13, 68, 127
23, 360899, Note_on_c, 13, 68, 0
23, 360900, Note_on_c, 13, 66, 127
23, 361019, Note_on_c, 13, 66, 0
23, 361020, Note_on_c, 13, 66, 127
23, 361079, Note_on_c, 13, 66, 0
23, 361080, Note_on_c, 13, 65, 127
23, 361139, Note_on_c, 13, 65, 0
23, 361140, Note_on_c, 13, 68, 127
23, 361259, Note_on_c, 13, 68, 0
23, 361260, Note_on_c, 13, 66, 127
23, 361319, Note_on_c, 13, 66, 0
23, 361320, Note_on_c, 13, 65, 127
23, 361379, Note_on_c, 13, 65, 0
23, 361380, Note_on_c, 13, 66, 127
23, 361499, Note_on_c, 13, 66, 0
23, 361500, Note_on_c, 13, 66, 127
23, 361559, Note_on_c, 13, 66, 0
23, 361560, Note_on_c, 13, 65, 127
23, 361619, Note_on_c, 13, 65, 0
23, 361620, Note_on_c, 13, 68, 127
23, 361739, Note_on_c, 13, 68, 0
23, 361740, Note_on_c, 13, 66, 127
23, 361799, Note_on_c, 13, 66, 0
23, 361800, Note_on_c, 13, 65, 127
23, 361859, Note_on_c, 13, 65, 0
23, 361860, Note_on_c, 13, 66, 127
23, 361979, Note_on_c, 13, 66, 0
23, 361980, Note_on_c, 13, 65, 127
23, 362099, Note_on_c, 13, 65, 0
23, 362220, Note_on_c, 13, 61, 127
23, 362339, Note_on_c, 13, 61, 0
23, 362340, Note_on_c, 13, 73, 127
23, 362459, Note_on_c, 13, 73, 0
23, 362700, Note_on_c, 13, 73, 127
23, 362819, Note_on_c, 13, 73, 0
23, 362820, Note_on_c, 13, 71, 127
23, 362939, Note_on_c, 13, 71, 0
23, 362940, Note_on_c, 13, 69, 127
23, 363059, Note_on_c, 13, 69, 0
23, 363060, Note_on_c, 13, 68, 127
23, 363179, Note_on_c, 13, 68, 0
23, 363180, Note_on_c, 13, 66, 127
23, 363299, Note_on_c, 13, 66, 0
23, 363300, Note_on_c, 13, 66, 127
23, 363539, Note_on_c, 13, 66, 0
23, 363540, Note_on_c, 13, 65, 127
23, 363779, Note_on_c, 13, 65, 0
23, 363780, Note_on_c, 13, 61, 127
23, 364019, Note_on_c, 13, 61, 0
23, 374820, Note_on_c, 13, 69, 127
23, 375059, Note_on_c, 13, 69, 0
23, 375060, Note_on_c, 13, 66, 127
23, 375299, Note_on_c, 13, 66, 0
23, 376260, Note_on_c, 13, 69, 127
23, 376499, Note_on_c, 13, 69, 0
23, 376500, Note_on_c, 13, 66, 127
23, 376739, Note_on_c, 13, 66, 0
23, 377700, Note_on_c, 13, 74, 127
23, 377939, Note_on_c, 13, 74, 0
23, 377940, Note_on_c, 13, 69, 127
23, 378179, Note_on_c, 13, 69, 0
23, 378180, Note_on_c, 13, 66, 127
23, 378299, Note_on_c, 13, 66, 0
23, 378300, Note_on_c, 13, 62, 127
23, 378419, Note_on_c, 13, 62, 0
23, 378420, Note_on_c, 13, 69, 127
23, 378539, Note_on_c, 13, 69, 0
23, 378540, Note_on_c, 13, 66, 127
23, 378659, Note_on_c, 13, 66, 0
23, 378660, Note_on_c, 13, 74, 127
23, 378779, Note_on_c, 13, 74, 0
23, 378780, Note_on_c, 13, 69, 127
23, 378899, Note_on_c, 13, 69, 0
23, 378900, Note_on_c, 13, 74, 127
23, 379019, Note_on_c, 13, 74, 0
23, 379020, Note_on_c, 13, 69, 127
23, 379139, Note_on_c, 13, 69, 0
23, 379140, Note_on_c, 13, 69, 127
23, 379259, Note_on_c, 13, 69, 0
23, 379260, Note_on_c, 13, 69, 127
23, 379319, Note_on_c, 13, 69, 0
23, 379320, Note_on_c, 13, 67, 127
23, 379379, Note_on_c, 13, 67, 0
23, 379380, Note_on_c, 13, 71, 127
23, 379499, Note_on_c, 13, 71, 0
23, 379500, Note_on_c, 13, 69, 127
23, 379559, Note_on_c, 13, 69, 0
23, 379560, Note_on_c, 13, 67, 127
23, 379619, Note_on_c, 13, 67, 0
23, 379620, Note_on_c, 13, 69, 127
23, 379739, Note_on_c, 13, 69, 0
23, 379740, Note_on_c, 13, 67, 127
23, 379799, Note_on_c, 13, 67, 0
23, 379800, Note_on_c, 13, 66, 127
23, 379859, Note_on_c, 13, 66, 0
23, 379860, Note_on_c, 13, 64, 127
23, 380099, Note_on_c, 13, 64, 0
23, 380100, Note_on_c, 13, 69, 127
23, 380339, Note_on_c, 13, 69, 0
23, 380340, Note_on_c, 13, 64, 127
23, 380579, Note_on_c, 13, 64, 0
23, 381540, Note_on_c, 13, 69, 127
23, 381779, Note_on_c, 13, 69, 0
23, 381780, Note_on_c, 13, 64, 127
23, 382019, Note_on_c, 13, 64, 0
23, 382980, Note_on_c, 13, 73, 127
23, 383219, Note_on_c, 13, 73, 0
23, 383220, Note_on_c, 13, 69, 127
23, 383459, Note_on_c, 13, 69, 0
23, 383460, Note_on_c, 13, 69, 127
23, 383579, Note_on_c, 13, 69, 0
23, 383580, Note_on_c, 13, 64, 127
23, 383699, Note_on_c, 13, 64, 0
23, 383700, Note_on_c, 13, 73, 127
23, 383819, Note_on_c, 13, 73, 0
23, 383820, Note_on_c, 13, 69, 127
23, 383939, Note_on_c, 13, 69, 0
23, 383940, Note_on_c, 13, 69, 127
23, 384059, Note_on_c, 13, 69, 0
23, 384060, Note_on_c, 13, 73, 127
23, 384179, Note_on_c, 13, 73, 0
23, 384180, Note_on_c, 13, 69, 127
23, 384299, Note_on_c, 13, 69, 0
23, 384300, Note_on_c, 13, 64, 127
23, 384419, Note_on_c, 13, 64, 0
23, 384420, Note_on_c, 13, 62, 127
23, 384479, Note_on_c, 13, 62, 0
23, 384480, Note_on_c, 13, 64, 127
23, 384539, Note_on_c, 13, 64, 0
23, 384540, Note_on_c, 13, 66, 127
23, 384599, Note_on_c, 13, 66, 0
23, 384600, Note_on_c, 13, 67, 127
23, 384659, Note_on_c, 13, 67, 0
23, 384660, Note_on_c, 13, 69, 127
23, 384779, Note_on_c, 13, 69, 0
23, 384780, Note_on_c, 13, 71, 127
23, 384839, Note_on_c, 13, 71, 0
23, 384840, Note_on_c, 13, 69, 127
23, 384899, Note_on_c, 13, 69, 0
23, 384900, Note_on_c, 13, 67, 127
23, 384959, Note_on_c, 13, 67, 0
23, 384960, Note_on_c, 13, 66, 127
23, 385019, Note_on_c, 13, 66, 0
23, 385020, Note_on_c, 13, 64, 127
23, 385079, Note_on_c, 13, 64, 0
23, 385080, Note_on_c, 13, 66, 127
23, 385139, Note_on_c, 13, 66, 0
23, 385140, Note_on_c, 13, 62, 127
23, 385379, Note_on_c, 13, 62, 0
23, 385379, End_track
24, 0, Start_track
24, 0, MIDI_port, 0
24, 0, Title_t, "tenor"
24, 0, Program_c, 12, 52
24, 10020, Note_on_c, 12, 61, 127
24, 10079, Note_on_c, 12, 61, 0
24, 10080, Note_on_c, 12, 62, 127
24, 10139, Note_on_c, 12, 62, 0
24, 10140, Note_on_c, 12, 57, 127
24, 10199, Note_on_c, 12, 57, 0
24, 10380, Note_on_c, 12, 66, 127
24, 10439, Note_on_c, 12, 66, 0
24, 10440, Note_on_c, 12, 66, 127
24, 10499, Note_on_c, 12, 66, 0
24, 10500, Note_on_c, 12, 59, 127
24, 10559, Note_on_c, 12, 59, 0
24, 10740, Note_on_c, 12, 59, 127
24, 10799, Note_on_c, 12, 59, 0
24, 10800, Note_on_c, 12, 57, 127
24, 10829, Note_on_c, 12, 57, 0
24, 10830, Note_on_c, 12, 50, 127
24, 10859, Note_on_c, 12, 50, 0
24, 10860, Note_on_c, 12, 52, 127
24, 10889, Note_on_c, 12, 52, 0
24, 10890, Note_on_c, 12, 54, 127
24, 10919, Note_on_c, 12, 54, 0
24, 10920, Note_on_c, 12, 55, 127
24, 10949, Note_on_c, 12, 55, 0
24, 10950, Note_on_c, 12, 57, 127
24, 10979, Note_on_c, 12, 57, 0
24, 10980, Note_on_c, 12, 59, 127
24, 11009, Note_on_c, 12, 59, 0
24, 11010, Note_on_c, 12, 61, 127
24, 11039, Note_on_c, 12, 61, 0
24, 11040, Note_on_c, 12, 62, 127
24, 11069, Note_on_c, 12, 62, 0
24, 11070, Note_on_c, 12, 61, 127
24, 11099, Note_on_c, 12, 61, 0
24, 11100, Note_on_c, 12, 62, 127
24, 11129, Note_on_c, 12, 62, 0
24, 11130, Note_on_c, 12, 61, 127
24, 11159, Note_on_c, 12, 61, 0
24, 11160, Note_on_c, 12, 59, 127
24, 11189, Note_on_c, 12, 59, 0
24, 11190, Note_on_c, 12, 55, 127
24, 11219, Note_on_c, 12, 55, 0
24, 11220, Note_on_c, 12, 57, 127
24, 11249, Note_on_c, 12, 57, 0
24, 11250, Note_on_c, 12, 59, 127
24, 11279, Note_on_c, 12, 59, 0
24, 11280, Note_on_c, 12, 60, 127
24, 11309, Note_on_c, 12, 60, 0
24, 11310, Note_on_c, 12, 62, 127
24, 11339, Note_on_c, 12, 62, 0
24, 11340, Note_on_c, 12, 64, 127
24, 11369, Note_on_c, 12, 64, 0
24, 11370, Note_on_c, 12, 66, 127
24, 11399, Note_on_c, 12, 66, 0
24, 11400, Note_on_c, 12, 67, 127
24, 11429, Note_on_c, 12, 67, 0
24, 11430, Note_on_c, 12, 66, 127
24, 11459, Note_on_c, 12, 66, 0
24, 11460, Note_on_c, 12, 67, 127
24, 11489, Note_on_c, 12, 67, 0
24, 11490, Note_on_c, 12, 64, 127
24, 11519, Note_on_c, 12, 64, 0
24, 11520, Note_on_c, 12, 62, 127
24, 11579, Note_on_c, 12, 62, 0
24, 11580, Note_on_c, 12, 57, 127
24, 11639, Note_on_c, 12, 57, 0
24, 11700, Note_on_c, 12, 66, 127
24, 11759, Note_on_c, 12, 66, 0
24, 11760, Note_on_c, 12, 62, 127
24, 11819, Note_on_c, 12, 62, 0
24, 11820, Note_on_c, 12, 61, 127
24, 11849, Note_on_c, 12, 61, 0
24, 11850, Note_on_c, 12, 62, 127
24, 11879, Note_on_c, 12, 62, 0
24, 11880, Note_on_c, 12, 57, 127
24, 11999, Note_on_c, 12, 57, 0
24, 14340, Note_on_c, 12, 64, 127
24, 14399, Note_on_c, 12, 64, 0
24, 14400, Note_on_c, 12, 66, 127
24, 14459, Note_on_c, 12, 66, 0
24, 14460, Note_on_c, 12, 62, 127
24, 14519, Note_on_c, 12, 62, 0
24, 14700, Note_on_c, 12, 66, 127
24, 14759, Note_on_c, 12, 66, 0
24, 14760, Note_on_c, 12, 69, 127
24, 14819, Note_on_c, 12, 69, 0
24, 14820, Note_on_c, 12, 66, 127
24, 14879, Note_on_c, 12, 66, 0
24, 15060, Note_on_c, 12, 62, 127
24, 15119, Note_on_c, 12, 62, 0
24, 15120, Note_on_c, 12, 66, 127
24, 15179, Note_on_c, 12, 66, 0
24, 15180, Note_on_c, 12, 62, 127
24, 15209, Note_on_c, 12, 62, 0
24, 15210, Note_on_c, 12, 57, 127
24, 15239, Note_on_c, 12, 57, 0
24, 15240, Note_on_c, 12, 54, 127
24, 15359, Note_on_c, 12, 54, 0
24, 15420, Note_on_c, 12, 62, 127
24, 15479, Note_on_c, 12, 62, 0
24, 15480, Note_on_c, 12, 57, 127
24, 15509, Note_on_c, 12, 57, 0
24, 15510, Note_on_c, 12, 54, 127
24, 15539, Note_on_c, 12, 54, 0
24, 15540, Note_on_c, 12, 55, 127
24, 15569, Note_on_c, 12, 55, 0
24, 15570, Note_on_c, 12, 57, 127
24, 15599, Note_on_c, 12, 57, 0
24, 15600, Note_on_c, 12, 59, 127
24, 15629, Note_on_c, 12, 59, 0
24, 15630, Note_on_c, 12, 61, 127
24, 15659, Note_on_c, 12, 61, 0
24, 15660, Note_on_c, 12, 62, 127
24, 15689, Note_on_c, 12, 62, 0
24, 15690, Note_on_c, 12, 64, 127
24, 15719, Note_on_c, 12, 64, 0
24, 15720, Note_on_c, 12, 66, 127
24, 15779, Note_on_c, 12, 66, 0
24, 15780, Note_on_c, 12, 62, 127
24, 15809, Note_on_c, 12, 62, 0
24, 15810, Note_on_c, 12, 62, 127
24, 15839, Note_on_c, 12, 62, 0
24, 15840, Note_on_c, 12, 62, 127
24, 15869, Note_on_c, 12, 62, 0
24, 15870, Note_on_c, 12, 66, 127
24, 15899, Note_on_c, 12, 66, 0
24, 15900, Note_on_c, 12, 64, 127
24, 15929, Note_on_c, 12, 64, 0
24, 15930, Note_on_c, 12, 62, 127
24, 15959, Note_on_c, 12, 62, 0
24, 15960, Note_on_c, 12, 61, 127
24, 15989, Note_on_c, 12, 61, 0
24, 15990, Note_on_c, 12, 59, 127
24, 16019, Note_on_c, 12, 59, 0
24, 16020, Note_on_c, 12, 57, 127
24, 16049, Note_on_c, 12, 57, 0
24, 16050, Note_on_c, 12, 55, 127
24, 16079, Note_on_c, 12, 55, 0
24, 16080, Note_on_c, 12, 54, 127
24, 16139, Note_on_c, 12, 54, 0
24, 16140, Note_on_c, 12, 54, 127
24, 16169, Note_on_c, 12, 54, 0
24, 16170, Note_on_c, 12, 54, 127
24, 16199, Note_on_c, 12, 54, 0
24, 16200, Note_on_c, 12, 66, 127
24, 16259, Note_on_c, 12, 66, 0
24, 16260, Note_on_c, 12, 64, 127
24, 16289, Note_on_c, 12, 64, 0
24, 16290, Note_on_c, 12, 62, 127
24, 16319, Note_on_c, 12, 62, 0
24, 16320, Note_on_c, 12, 61, 127
24, 16349, Note_on_c, 12, 61, 0
24, 16350, Note_on_c, 12, 59, 127
24, 16379, Note_on_c, 12, 59, 0
24, 16380, Note_on_c, 12, 57, 127
24, 16409, Note_on_c, 12, 57, 0
24, 16410, Note_on_c, 12, 55, 127
24, 16439, Note_on_c, 12, 55, 0
24, 16440, Note_on_c, 12, 54, 127
24, 16499, Note_on_c, 12, 54, 0
24, 16500, Note_on_c, 12, 50, 127
24, 16529, Note_on_c, 12, 50, 0
24, 16530, Note_on_c, 12, 50, 127
24, 16559, Note_on_c, 12, 50, 0
24, 16560, Note_on_c, 12, 50, 127
24, 16860, Note_on_c, 12, 50, 0
24, 16860, Note_on_c, 12, 56, 127
24, 16920, Note_on_c, 12, 56, 0
24, 16920, Note_on_c, 12, 64, 127
24, 16979, Note_on_c, 12, 64, 0
24, 16980, Note_on_c, 12, 64, 127
24, 17009, Note_on_c, 12, 64, 0
24, 17010, Note_on_c, 12, 62, 127
24, 17039, Note_on_c, 12, 62, 0
24, 17040, Note_on_c, 12, 61, 127
24, 17099, Note_on_c, 12, 61, 0
24, 17100, Note_on_c, 12, 64, 127
24, 17159, Note_on_c, 12, 64, 0
24, 17160, Note_on_c, 12, 59, 127
24, 17219, Note_on_c, 12, 59, 0
24, 17220, Note_on_c, 12, 62, 127
24, 17279, Note_on_c, 12, 62, 0
24, 17280, Note_on_c, 12, 61, 127
24, 17399, Note_on_c, 12, 61, 0
24, 20820, Note_on_c, 12, 64, 127
24, 20880, Note_on_c, 12, 64, 0
24, 20880, Note_on_c, 12, 64, 127
24, 20939, Note_on_c, 12, 64, 0
24, 20940, Note_on_c, 12, 61, 127
24, 20999, Note_on_c, 12, 61, 0
24, 21060, Note_on_c, 12, 64, 127
24, 21119, Note_on_c, 12, 64, 0
24, 21120, Note_on_c, 12, 69, 127
24, 21179, Note_on_c, 12, 69, 0
24, 21180, Note_on_c, 12, 64, 127
24, 21239, Note_on_c, 12, 64, 0
24, 21420, Note_on_c, 12, 60, 127
24, 21479, Note_on_c, 12, 60, 0
24, 21480, Note_on_c, 12, 60, 127
24, 21539, Note_on_c, 12, 60, 0
24, 21540, Note_on_c, 12, 57, 127
24, 21569, Note_on_c, 12, 57, 0
24, 21570, Note_on_c, 12, 57, 127
24, 21599, Note_on_c, 12, 57, 0
24, 21600, Note_on_c, 12, 59, 127
24, 21959, Note_on_c, 12, 59, 0
24, 22140, Note_on_c, 12, 67, 127
24, 22199, Note_on_c, 12, 67, 0
24, 22200, Note_on_c, 12, 67, 127
24, 22259, Note_on_c, 12, 67, 0
24, 22260, Note_on_c, 12, 64, 127
24, 22319, Note_on_c, 12, 64, 0
24, 22380, Note_on_c, 12, 67, 127
24, 22439, Note_on_c, 12, 67, 0
24, 22440, Note_on_c, 12, 71, 127
24, 22499, Note_on_c, 12, 71, 0
24, 22500, Note_on_c, 12, 59, 127
24, 22529, Note_on_c, 12, 59, 0
24, 22530, Note_on_c, 12, 59, 127
24, 22559, Note_on_c, 12, 59, 0
24, 22560, Note_on_c, 12, 59, 127
24, 22619, Note_on_c, 12, 59, 0
24, 22620, Note_on_c, 12, 59, 127
24, 22649, Note_on_c, 12, 59, 0
24, 22650, Note_on_c, 12, 59, 127
24, 22679, Note_on_c, 12, 59, 0
24, 22680, Note_on_c, 12, 57, 127
24, 23039, Note_on_c, 12, 57, 0
24, 23220, Note_on_c, 12, 66, 127
24, 23279, Note_on_c, 12, 66, 0
24, 23280, Note_on_c, 12, 66, 127
24, 23339, Note_on_c, 12, 66, 0
24, 23340, Note_on_c, 12, 67, 127
24, 23369, Note_on_c, 12, 67, 0
24, 23370, Note_on_c, 12, 69, 127
24, 23399, Note_on_c, 12, 69, 0
24, 23400, Note_on_c, 12, 59, 127
24, 23459, Note_on_c, 12, 59, 0
24, 23460, Note_on_c, 12, 64, 127
24, 23519, Note_on_c, 12, 64, 0
24, 23580, Note_on_c, 12, 64, 127
24, 23639, Note_on_c, 12, 64, 0
24, 23640, Note_on_c, 12, 64, 127
24, 23699, Note_on_c, 12, 64, 0
24, 23700, Note_on_c, 12, 66, 127
24, 23729, Note_on_c, 12, 66, 0
24, 23730, Note_on_c, 12, 67, 127
24, 23759, Note_on_c, 12, 67, 0
24, 23760, Note_on_c, 12, 57, 127
24, 23819, Note_on_c, 12, 57, 0
24, 23820, Note_on_c, 12, 62, 127
24, 23879, Note_on_c, 12, 62, 0
24, 23940, Note_on_c, 12, 62, 127
24, 23999, Note_on_c, 12, 62, 0
24, 24000, Note_on_c, 12, 62, 127
24, 24059, Note_on_c, 12, 62, 0
24, 24060, Note_on_c, 12, 64, 127
24, 24089, Note_on_c, 12, 64, 0
24, 24090, Note_on_c, 12, 66, 127
24, 24119, Note_on_c, 12, 66, 0
24, 24120, Note_on_c, 12, 55, 127
24, 24179, Note_on_c, 12, 55, 0
24, 24180, Note_on_c, 12, 52, 127
24, 24239, Note_on_c, 12, 52, 0
24, 24420, Note_on_c, 12, 61, 127
24, 24479, Note_on_c, 12, 61, 0
24, 24480, Note_on_c, 12, 54, 127
24, 24539, Note_on_c, 12, 54, 0
24, 24540, Note_on_c, 12, 66, 127
24, 24599, Note_on_c, 12, 66, 0
24, 24630, Note_on_c, 12, 64, 127
24, 24659, Note_on_c, 12, 64, 0
24, 24660, Note_on_c, 12, 62, 127
24, 24689, Note_on_c, 12, 62, 0
24, 24690, Note_on_c, 12, 61, 127
24, 24719, Note_on_c, 12, 61, 0
24, 24720, Note_on_c, 12, 59, 127
24, 24749, Note_on_c, 12, 59, 0
24, 24750, Note_on_c, 12, 57, 127
24, 24779, Note_on_c, 12, 57, 0
24, 24780, Note_on_c, 12, 56, 127
24, 24809, Note_on_c, 12, 56, 0
24, 24810, Note_on_c, 12, 54, 127
24, 24839, Note_on_c, 12, 54, 0
24, 24840, Note_on_c, 12, 56, 127
24, 24899, Note_on_c, 12, 56, 0
24, 24900, Note_on_c, 12, 52, 127
24, 24929, Note_on_c, 12, 52, 0
24, 24930, Note_on_c, 12, 52, 127
24, 24959, Note_on_c, 12, 52, 0
24, 24960, Note_on_c, 12, 62, 127
24, 24989, Note_on_c, 12, 62, 0
24, 24990, Note_on_c, 12, 64, 127
24, 25019, Note_on_c, 12, 64, 0
24, 25020, Note_on_c, 12, 62, 127
24, 25049, Note_on_c, 12, 62, 0
24, 25050, Note_on_c, 12, 60, 127
24, 25079, Note_on_c, 12, 60, 0
24, 25080, Note_on_c, 12, 59, 127
24, 25109, Note_on_c, 12, 59, 0
24, 25110, Note_on_c, 12, 57, 127
24, 25139, Note_on_c, 12, 57, 0
24, 25140, Note_on_c, 12, 56, 127
24, 25169, Note_on_c, 12, 56, 0
24, 25170, Note_on_c, 12, 54, 127
24, 25199, Note_on_c, 12, 54, 0
24, 25200, Note_on_c, 12, 52, 127
24, 25259, Note_on_c, 12, 52, 0
24, 25260, Note_on_c, 12, 59, 127
24, 25289, Note_on_c, 12, 59, 0
24, 25290, Note_on_c, 12, 61, 127
24, 25319, Note_on_c, 12, 61, 0
24, 25320, Note_on_c, 12, 62, 127
24, 25349, Note_on_c, 12, 62, 0
24, 25350, Note_on_c, 12, 61, 127
24, 25379, Note_on_c, 12, 61, 0
24, 25380, Note_on_c, 12, 59, 127
24, 25409, Note_on_c, 12, 59, 0
24, 25410, Note_on_c, 12, 57, 127
24, 25439, Note_on_c, 12, 57, 0
24, 25440, Note_on_c, 12, 56, 127
24, 25469, Note_on_c, 12, 56, 0
24, 25470, Note_on_c, 12, 54, 127
24, 25499, Note_on_c, 12, 54, 0
24, 25500, Note_on_c, 12, 52, 127
24, 25529, Note_on_c, 12, 52, 0
24, 25530, Note_on_c, 12, 50, 127
24, 25559, Note_on_c, 12, 50, 0
24, 25560, Note_on_c, 12, 52, 127
24, 25679, Note_on_c, 12, 52, 0
24, 25740, Note_on_c, 12, 64, 127
24, 25799, Note_on_c, 12, 64, 0
24, 25800, Note_on_c, 12, 67, 127
24, 25859, Note_on_c, 12, 67, 0
24, 25860, Note_on_c, 12, 69, 127
24, 25889, Note_on_c, 12, 69, 0
24, 25890, Note_on_c, 12, 67, 127
24, 25919, Note_on_c, 12, 67, 0
24, 25920, Note_on_c, 12, 66, 127
24, 25979, Note_on_c, 12, 66, 0
24, 25980, Note_on_c, 12, 66, 127
24, 26039, Note_on_c, 12, 66, 0
24, 26100, Note_on_c, 12, 62, 127
24, 26159, Note_on_c, 12, 62, 0
24, 26160, Note_on_c, 12, 62, 127
24, 26219, Note_on_c, 12, 62, 0
24, 26220, Note_on_c, 12, 61, 127
24, 26249, Note_on_c, 12, 61, 0
24, 26250, Note_on_c, 12, 62, 127
24, 26279, Note_on_c, 12, 62, 0
24, 26280, Note_on_c, 12, 57, 127
24, 26339, Note_on_c, 12, 57, 0
24, 26340, Note_on_c, 12, 57, 127
24, 26399, Note_on_c, 12, 57, 0
24, 26460, Note_on_c, 12, 64, 127
24, 26519, Note_on_c, 12, 64, 0
24, 26520, Note_on_c, 12, 61, 127
24, 26579, Note_on_c, 12, 61, 0
24, 26580, Note_on_c, 12, 62, 127
24, 26609, Note_on_c, 12, 62, 0
24, 26610, Note_on_c, 12, 64, 127
24, 26639, Note_on_c, 12, 64, 0
24, 26640, Note_on_c, 12, 66, 127
24, 27300, Note_on_c, 12, 66, 0
24, 27300, Note_on_c, 12, 66, 127
24, 27359, Note_on_c, 12, 66, 0
24, 27360, Note_on_c, 12, 59, 127
24, 27419, Note_on_c, 12, 59, 0
24, 27420, Note_on_c, 12, 62, 127
24, 27479, Note_on_c, 12, 62, 0
24, 27480, Note_on_c, 12, 64, 127
24, 27509, Note_on_c, 12, 64, 0
24, 27510, Note_on_c, 12, 66, 127
24, 27539, Note_on_c, 12, 66, 0
24, 27540, Note_on_c, 12, 64, 127
24, 27569, Note_on_c, 12, 64, 0
24, 27570, Note_on_c, 12, 66, 127
24, 27599, Note_on_c, 12, 66, 0
24, 27600, Note_on_c, 12, 67, 127
24, 27629, Note_on_c, 12, 67, 0
24, 27630, Note_on_c, 12, 69, 127
24, 27659, Note_on_c, 12, 69, 0
24, 27660, Note_on_c, 12, 66, 127
24, 27689, Note_on_c, 12, 66, 0
24, 27690, Note_on_c, 12, 67, 127
24, 27719, Note_on_c, 12, 67, 0
24, 27720, Note_on_c, 12, 69, 127
24, 27779, Note_on_c, 12, 69, 0
24, 27780, Note_on_c, 12, 57, 127
24, 27839, Note_on_c, 12, 57, 0
24, 27840, Note_on_c, 12, 69, 127
24, 27869, Note_on_c, 12, 69, 0
24, 27870, Note_on_c, 12, 67, 127
24, 27899, Note_on_c, 12, 67, 0
24, 27900, Note_on_c, 12, 66, 127
24, 27929, Note_on_c, 12, 66, 0
24, 27930, Note_on_c, 12, 64, 127
24, 27959, Note_on_c, 12, 64, 0
24, 27960, Note_on_c, 12, 67, 127
24, 27989, Note_on_c, 12, 67, 0
24, 27990, Note_on_c, 12, 66, 127
24, 28019, Note_on_c, 12, 66, 0
24, 28020, Note_on_c, 12, 67, 127
24, 28049, Note_on_c, 12, 67, 0
24, 28050, Note_on_c, 12, 64, 127
24, 28079, Note_on_c, 12, 64, 0
24, 28080, Note_on_c, 12, 66, 127
24, 28199, Note_on_c, 12, 66, 0
24, 30060, Note_on_c, 12, 62, 127
24, 30119, Note_on_c, 12, 62, 0
24, 30120, Note_on_c, 12, 62, 127
24, 30179, Note_on_c, 12, 62, 0
24, 30180, Note_on_c, 12, 61, 127
24, 30209, Note_on_c, 12, 61, 0
24, 30210, Note_on_c, 12, 62, 127
24, 30239, Note_on_c, 12, 62, 0
24, 30240, Note_on_c, 12, 61, 127
24, 30359, Note_on_c, 12, 61, 0
24, 30780, Note_on_c, 12, 64, 127
24, 30839, Note_on_c, 12, 64, 0
24, 30840, Note_on_c, 12, 64, 127
24, 30899, Note_on_c, 12, 64, 0
24, 30900, Note_on_c, 12, 64, 127
24, 30929, Note_on_c, 12, 64, 0
24, 30930, Note_on_c, 12, 64, 127
24, 30959, Note_on_c, 12, 64, 0
24, 30960, Note_on_c, 12, 64, 127
24, 31079, Note_on_c, 12, 64, 0
24, 31140, Note_on_c, 12, 64, 127
24, 31199, Note_on_c, 12, 64, 0
24, 31200, Note_on_c, 12, 62, 127
24, 31259, Note_on_c, 12, 62, 0
24, 31260, Note_on_c, 12, 64, 127
24, 31289, Note_on_c, 12, 64, 0
24, 31290, Note_on_c, 12, 66, 127
24, 31319, Note_on_c, 12, 66, 0
24, 31320, Note_on_c, 12, 64, 127
24, 31379, Note_on_c, 12, 64, 0
24, 31380, Note_on_c, 12, 59, 127
24, 31439, Note_on_c, 12, 59, 0
24, 31440, Note_on_c, 12, 59, 127
24, 31499, Note_on_c, 12, 59, 0
24, 31500, Note_on_c, 12, 59, 127
24, 31559, Note_on_c, 12, 59, 0
24, 31560, Note_on_c, 12, 58, 127
24, 31619, Note_on_c, 12, 58, 0
24, 31620, Note_on_c, 12, 59, 127
24, 31649, Note_on_c, 12, 59, 0
24, 31650, Note_on_c, 12, 55, 127
24, 31679, Note_on_c, 12, 55, 0
24, 31680, Note_on_c, 12, 54, 127
24, 31739, Note_on_c, 12, 54, 0
24, 31740, Note_on_c, 12, 56, 127
24, 31799, Note_on_c, 12, 56, 0
24, 31800, Note_on_c, 12, 58, 127
24, 31859, Note_on_c, 12, 58, 0
24, 32580, Note_on_c, 12, 58, 127
24, 32639, Note_on_c, 12, 58, 0
24, 32640, Note_on_c, 12, 61, 127
24, 32699, Note_on_c, 12, 61, 0
24, 32700, Note_on_c, 12, 66, 127
24, 32729, Note_on_c, 12, 66, 0
24, 32730, Note_on_c, 12, 66, 127
24, 32759, Note_on_c, 12, 66, 0
24, 32760, Note_on_c, 12, 66, 127
24, 32879, Note_on_c, 12, 66, 0
24, 32940, Note_on_c, 12, 59, 127
24, 32999, Note_on_c, 12, 59, 0
24, 33000, Note_on_c, 12, 66, 127
24, 33059, Note_on_c, 12, 66, 0
24, 33060, Note_on_c, 12, 66, 127
24, 33089, Note_on_c, 12, 66, 0
24, 33090, Note_on_c, 12, 64, 127
24, 33119, Note_on_c, 12, 64, 0
24, 33120, Note_on_c, 12, 63, 127
24, 33239, Note_on_c, 12, 63, 0
24, 33240, Note_on_c, 12, 63, 127
24, 33299, Note_on_c, 12, 63, 0
24, 33300, Note_on_c, 12, 51, 127
24, 33359, Note_on_c, 12, 51, 0
24, 33360, Note_on_c, 12, 51, 127
24, 33419, Note_on_c, 12, 51, 0
24, 33420, Note_on_c, 12, 51, 127
24, 33449, Note_on_c, 12, 51, 0
24, 33450, Note_on_c, 12, 51, 127
24, 33479, Note_on_c, 12, 51, 0
24, 33480, Note_on_c, 12, 51, 127
24, 33659, Note_on_c, 12, 51, 0
24, 33660, Note_on_c, 12, 52, 127
24, 33719, Note_on_c, 12, 52, 0
24, 33720, Note_on_c, 12, 54, 127
24, 33839, Note_on_c, 12, 54, 0
24, 33840, Note_on_c, 12, 52, 127
24, 33959, Note_on_c, 12, 52, 0
24, 34020, Note_on_c, 12, 59, 127
24, 34079, Note_on_c, 12, 59, 0
24, 34080, Note_on_c, 12, 64, 127
24, 34139, Note_on_c, 12, 64, 0
24, 34140, Note_on_c, 12, 62, 127
24, 34169, Note_on_c, 12, 62, 0
24, 34170, Note_on_c, 12, 64, 127
24, 34199, Note_on_c, 12, 64, 0
24, 34200, Note_on_c, 12, 61, 127
24, 34259, Note_on_c, 12, 61, 0
24, 34620, Note_on_c, 12, 57, 127
24, 34679, Note_on_c, 12, 57, 0
24, 34680, Note_on_c, 12, 62, 127
24, 34739, Note_on_c, 12, 62, 0
24, 34740, Note_on_c, 12, 62, 127
24, 34769, Note_on_c, 12, 62, 0
24, 34770, Note_on_c, 12, 64, 127
24, 34799, Note_on_c, 12, 64, 0
24, 34800, Note_on_c, 12, 66, 127
24, 34979, Note_on_c, 12, 66, 0
24, 34980, Note_on_c, 12, 62, 127
24, 35039, Note_on_c, 12, 62, 0
24, 35040, Note_on_c, 12, 59, 127
24, 35099, Note_on_c, 12, 59, 0
24, 35100, Note_on_c, 12, 55, 127
24, 35159, Note_on_c, 12, 55, 0
24, 35160, Note_on_c, 12, 54, 127
24, 35219, Note_on_c, 12, 54, 0
24, 35220, Note_on_c, 12, 52, 127
24, 35249, Note_on_c, 12, 52, 0
24, 35250, Note_on_c, 12, 50, 127
24, 35279, Note_on_c, 12, 50, 0
24, 35280, Note_on_c, 12, 52, 127
24, 35339, Note_on_c, 12, 52, 0
24, 35340, Note_on_c, 12, 50, 127
24, 35399, Note_on_c, 12, 50, 0
24, 35400, Note_on_c, 12, 49, 127
24, 35459, Note_on_c, 12, 49, 0
24, 35460, Note_on_c, 12, 49, 127
24, 35519, Note_on_c, 12, 49, 0
24, 35520, Note_on_c, 12, 61, 127
24, 35579, Note_on_c, 12, 61, 0
24, 35580, Note_on_c, 12, 59, 127
24, 35609, Note_on_c, 12, 59, 0
24, 35610, Note_on_c, 12, 61, 127
24, 35639, Note_on_c, 12, 61, 0
24, 35640, Note_on_c, 12, 58, 127
24, 35759, Note_on_c, 12, 58, 0
24, 35820, Note_on_c, 12, 61, 127
24, 35879, Note_on_c, 12, 61, 0
24, 35880, Note_on_c, 12, 66, 127
24, 35939, Note_on_c, 12, 66, 0
24, 35940, Note_on_c, 12, 66, 127
24, 35969, Note_on_c, 12, 66, 0
24, 35970, Note_on_c, 12, 66, 127
24, 35999, Note_on_c, 12, 66, 0
24, 36000, Note_on_c, 12, 59, 127
24, 36059, Note_on_c, 12, 59, 0
24, 36060, Note_on_c, 12, 62, 127
24, 36119, Note_on_c, 12, 62, 0
24, 36120, Note_on_c, 12, 64, 127
24, 36179, Note_on_c, 12, 64, 0
24, 36180, Note_on_c, 12, 64, 127
24, 36209, Note_on_c, 12, 64, 0
24, 36210, Note_on_c, 12, 66, 127
24, 36239, Note_on_c, 12, 66, 0
24, 36240, Note_on_c, 12, 67, 127
24, 36299, Note_on_c, 12, 67, 0
24, 36300, Note_on_c, 12, 64, 127
24, 36329, Note_on_c, 12, 64, 0
24, 36330, Note_on_c, 12, 64, 127
24, 36359, Note_on_c, 12, 64, 0
24, 36360, Note_on_c, 12, 61, 127
24, 36479, Note_on_c, 12, 61, 0
24, 36480, Note_on_c, 12, 58, 127
24, 36539, Note_on_c, 12, 58, 0
24, 36540, Note_on_c, 12, 66, 127
24, 36599, Note_on_c, 12, 66, 0
24, 36600, Note_on_c, 12, 64, 127
24, 36659, Note_on_c, 12, 64, 0
24, 36660, Note_on_c, 12, 66, 127
24, 36689, Note_on_c, 12, 66, 0
24, 36690, Note_on_c, 12, 64, 127
24, 36719, Note_on_c, 12, 64, 0
24, 36720, Note_on_c, 12, 62, 127
24, 36779, Note_on_c, 12, 62, 0
24, 36780, Note_on_c, 12, 62, 127
24, 36809, Note_on_c, 12, 62, 0
24, 36810, Note_on_c, 12, 61, 127
24, 36839, Note_on_c, 12, 61, 0
24, 36840, Note_on_c, 12, 62, 127
24, 36899, Note_on_c, 12, 62, 0
24, 36900, Note_on_c, 12, 66, 127
24, 36959, Note_on_c, 12, 66, 0
24, 36960, Note_on_c, 12, 66, 127
24, 37019, Note_on_c, 12, 66, 0
24, 37020, Note_on_c, 12, 64, 127
24, 37049, Note_on_c, 12, 64, 0
24, 37050, Note_on_c, 12, 66, 127
24, 37079, Note_on_c, 12, 66, 0
24, 37080, Note_on_c, 12, 58, 127
24, 37199, Note_on_c, 12, 58, 0
24, 37200, Note_on_c, 12, 54, 127
24, 37259, Note_on_c, 12, 54, 0
24, 37260, Note_on_c, 12, 66, 127
24, 37319, Note_on_c, 12, 66, 0
24, 37320, Note_on_c, 12, 66, 127
24, 37379, Note_on_c, 12, 66, 0
24, 37380, Note_on_c, 12, 66, 127
24, 37439, Note_on_c, 12, 66, 0
24, 37440, Note_on_c, 12, 66, 127
24, 37499, Note_on_c, 12, 66, 0
24, 37500, Note_on_c, 12, 64, 127
24, 37529, Note_on_c, 12, 64, 0
24, 37530, Note_on_c, 12, 62, 127
24, 37559, Note_on_c, 12, 62, 0
24, 37560, Note_on_c, 12, 64, 127
24, 37619, Note_on_c, 12, 64, 0
24, 37620, Note_on_c, 12, 64, 127
24, 37679, Note_on_c, 12, 64, 0
24, 37680, Note_on_c, 12, 58, 127
24, 37739, Note_on_c, 12, 58, 0
24, 37740, Note_on_c, 12, 61, 127
24, 37799, Note_on_c, 12, 61, 0
24, 37800, Note_on_c, 12, 65, 127
24, 38159, Note_on_c, 12, 65, 0
24, 38160, Note_on_c, 12, 61, 127
24, 38519, Note_on_c, 12, 61, 0
24, 38520, Note_on_c, 12, 59, 127
24, 38879, Note_on_c, 12, 59, 0
24, 38880, Note_on_c, 12, 57, 127
24, 39059, Note_on_c, 12, 57, 0
24, 39060, Note_on_c, 12, 66, 127
24, 39119, Note_on_c, 12, 66, 0
24, 39120, Note_on_c, 12, 66, 127
24, 39179, Note_on_c, 12, 66, 0
24, 39180, Note_on_c, 12, 66, 127
24, 39239, Note_on_c, 12, 66, 0
24, 39240, Note_on_c, 12, 66, 127
24, 39299, Note_on_c, 12, 66, 0
24, 39300, Note_on_c, 12, 68, 127
24, 39359, Note_on_c, 12, 68, 0
24, 39360, Note_on_c, 12, 61, 127
24, 39419, Note_on_c, 12, 61, 0
24, 39420, Note_on_c, 12, 61, 127
24, 39539, Note_on_c, 12, 61, 0
24, 39540, Note_on_c, 12, 59, 127
24, 39599, Note_on_c, 12, 59, 0
24, 39600, Note_on_c, 12, 57, 127
24, 39959, Note_on_c, 12, 57, 0
24, 49980, Note_on_c, 12, 61, 127
24, 50039, Note_on_c, 12, 61, 0
24, 50040, Note_on_c, 12, 62, 127
24, 50099, Note_on_c, 12, 62, 0
24, 50100, Note_on_c, 12, 57, 127
24, 50159, Note_on_c, 12, 57, 0
24, 50340, Note_on_c, 12, 66, 127
24, 50399, Note_on_c, 12, 66, 0
24, 50400, Note_on_c, 12, 66, 127
24, 50459, Note_on_c, 12, 66, 0
24, 50460, Note_on_c, 12, 59, 127
24, 50519, Note_on_c, 12, 59, 0
24, 50700, Note_on_c, 12, 59, 127
24, 50759, Note_on_c, 12, 59, 0
24, 50760, Note_on_c, 12, 57, 127
24, 50789, Note_on_c, 12, 57, 0
24, 50790, Note_on_c, 12, 50, 127
24, 50819, Note_on_c, 12, 50, 0
24, 50820, Note_on_c, 12, 52, 127
24, 50849, Note_on_c, 12, 52, 0
24, 50850, Note_on_c, 12, 54, 127
24, 50879, Note_on_c, 12, 54, 0
24, 50880, Note_on_c, 12, 55, 127
24, 50909, Note_on_c, 12, 55, 0
24, 50910, Note_on_c, 12, 57, 127
24, 50939, Note_on_c, 12, 57, 0
24, 50940, Note_on_c, 12, 59, 127
24, 50969, Note_on_c, 12, 59, 0
24, 50970, Note_on_c, 12, 61, 127
24, 50999, Note_on_c, 12, 61, 0
24, 51000, Note_on_c, 12, 62, 127
24, 51029, Note_on_c, 12, 62, 0
24, 51030, Note_on_c, 12, 61, 127
24, 51059, Note_on_c, 12, 61, 0
24, 51060, Note_on_c, 12, 62, 127
24, 51089, Note_on_c, 12, 62, 0
24, 51090, Note_on_c, 12, 61, 127
24, 51119, Note_on_c, 12, 61, 0
24, 51120, Note_on_c, 12, 59, 127
24, 51149, Note_on_c, 12, 59, 0
24, 51150, Note_on_c, 12, 55, 127
24, 51179, Note_on_c, 12, 55, 0
24, 51180, Note_on_c, 12, 57, 127
24, 51209, Note_on_c, 12, 57, 0
24, 51210, Note_on_c, 12, 59, 127
24, 51239, Note_on_c, 12, 59, 0
24, 51240, Note_on_c, 12, 60, 127
24, 51269, Note_on_c, 12, 60, 0
24, 51270, Note_on_c, 12, 62, 127
24, 51299, Note_on_c, 12, 62, 0
24, 51300, Note_on_c, 12, 64, 127
24, 51329, Note_on_c, 12, 64, 0
24, 51330, Note_on_c, 12, 66, 127
24, 51359, Note_on_c, 12, 66, 0
24, 51360, Note_on_c, 12, 67, 127
24, 51389, Note_on_c, 12, 67, 0
24, 51390, Note_on_c, 12, 66, 127
24, 51419, Note_on_c, 12, 66, 0
24, 51420, Note_on_c, 12, 67, 127
24, 51449, Note_on_c, 12, 67, 0
24, 51450, Note_on_c, 12, 64, 127
24, 51479, Note_on_c, 12, 64, 0
24, 51480, Note_on_c, 12, 62, 127
24, 51539, Note_on_c, 12, 62, 0
24, 51540, Note_on_c, 12, 57, 127
24, 51599, Note_on_c, 12, 57, 0
24, 51660, Note_on_c, 12, 66, 127
24, 51719, Note_on_c, 12, 66, 0
24, 51720, Note_on_c, 12, 62, 127
24, 51779, Note_on_c, 12, 62, 0
24, 51780, Note_on_c, 12, 61, 127
24, 51809, Note_on_c, 12, 61, 0
24, 51810, Note_on_c, 12, 62, 127
24, 51839, Note_on_c, 12, 62, 0
24, 51840, Note_on_c, 12, 57, 127
24, 51959, Note_on_c, 12, 57, 0
24, 54300, Note_on_c, 12, 64, 127
24, 54359, Note_on_c, 12, 64, 0
24, 54360, Note_on_c, 12, 66, 127
24, 54419, Note_on_c, 12, 66, 0
24, 54420, Note_on_c, 12, 62, 127
24, 54479, Note_on_c, 12, 62, 0
24, 54660, Note_on_c, 12, 66, 127
24, 54719, Note_on_c, 12, 66, 0
24, 54720, Note_on_c, 12, 69, 127
24, 54779, Note_on_c, 12, 69, 0
24, 54780, Note_on_c, 12, 66, 127
24, 54839, Note_on_c, 12, 66, 0
24, 55020, Note_on_c, 12, 62, 127
24, 55079, Note_on_c, 12, 62, 0
24, 55080, Note_on_c, 12, 66, 127
24, 55139, Note_on_c, 12, 66, 0
24, 55140, Note_on_c, 12, 62, 127
24, 55169, Note_on_c, 12, 62, 0
24, 55170, Note_on_c, 12, 57, 127
24, 55199, Note_on_c, 12, 57, 0
24, 55200, Note_on_c, 12, 54, 127
24, 55319, Note_on_c, 12, 54, 0
24, 55380, Note_on_c, 12, 62, 127
24, 55439, Note_on_c, 12, 62, 0
24, 55440, Note_on_c, 12, 57, 127
24, 55469, Note_on_c, 12, 57, 0
24, 55470, Note_on_c, 12, 54, 127
24, 55499, Note_on_c, 12, 54, 0
24, 55500, Note_on_c, 12, 55, 127
24, 55529, Note_on_c, 12, 55, 0
24, 55530, Note_on_c, 12, 57, 127
24, 55559, Note_on_c, 12, 57, 0
24, 55560, Note_on_c, 12, 59, 127
24, 55589, Note_on_c, 12, 59, 0
24, 55590, Note_on_c, 12, 61, 127
24, 55619, Note_on_c, 12, 61, 0
24, 55620, Note_on_c, 12, 62, 127
24, 55649, Note_on_c, 12, 62, 0
24, 55650, Note_on_c, 12, 64, 127
24, 55679, Note_on_c, 12, 64, 0
24, 55680, Note_on_c, 12, 66, 127
24, 55739, Note_on_c, 12, 66, 0
24, 55740, Note_on_c, 12, 62, 127
24, 55769, Note_on_c, 12, 62, 0
24, 55770, Note_on_c, 12, 62, 127
24, 55799, Note_on_c, 12, 62, 0
24, 55800, Note_on_c, 12, 62, 127
24, 55829, Note_on_c, 12, 62, 0
24, 55830, Note_on_c, 12, 66, 127
24, 55859, Note_on_c, 12, 66, 0
24, 55860, Note_on_c, 12, 64, 127
24, 55889, Note_on_c, 12, 64, 0
24, 55890, Note_on_c, 12, 62, 127
24, 55919, Note_on_c, 12, 62, 0
24, 55920, Note_on_c, 12, 61, 127
24, 55949, Note_on_c, 12, 61, 0
24, 55950, Note_on_c, 12, 59, 127
24, 55979, Note_on_c, 12, 59, 0
24, 55980, Note_on_c, 12, 57, 127
24, 56009, Note_on_c, 12, 57, 0
24, 56010, Note_on_c, 12, 55, 127
24, 56039, Note_on_c, 12, 55, 0
24, 56040, Note_on_c, 12, 54, 127
24, 56099, Note_on_c, 12, 54, 0
24, 56100, Note_on_c, 12, 54, 127
24, 56129, Note_on_c, 12, 54, 0
24, 56130, Note_on_c, 12, 54, 127
24, 56159, Note_on_c, 12, 54, 0
24, 56160, Note_on_c, 12, 66, 127
24, 56219, Note_on_c, 12, 66, 0
24, 56220, Note_on_c, 12, 64, 127
24, 56249, Note_on_c, 12, 64, 0
24, 56250, Note_on_c, 12, 62, 127
24, 56279, Note_on_c, 12, 62, 0
24, 56280, Note_on_c, 12, 61, 127
24, 56309, Note_on_c, 12, 61, 0
24, 56310, Note_on_c, 12, 59, 127
24, 56339, Note_on_c, 12, 59, 0
24, 56340, Note_on_c, 12, 57, 127
24, 56369, Note_on_c, 12, 57, 0
24, 56370, Note_on_c, 12, 55, 127
24, 56399, Note_on_c, 12, 55, 0
24, 56400, Note_on_c, 12, 54, 127
24, 56459, Note_on_c, 12, 54, 0
24, 56460, Note_on_c, 12, 50, 127
24, 56489, Note_on_c, 12, 50, 0
24, 56490, Note_on_c, 12, 50, 127
24, 56519, Note_on_c, 12, 50, 0
24, 56520, Note_on_c, 12, 50, 127
24, 56820, Note_on_c, 12, 50, 0
24, 56820, Note_on_c, 12, 56, 127
24, 56880, Note_on_c, 12, 56, 0
24, 56880, Note_on_c, 12, 64, 127
24, 56939, Note_on_c, 12, 64, 0
24, 56940, Note_on_c, 12, 64, 127
24, 56969, Note_on_c, 12, 64, 0
24, 56970, Note_on_c, 12, 62, 127
24, 56999, Note_on_c, 12, 62, 0
24, 57000, Note_on_c, 12, 61, 127
24, 57059, Note_on_c, 12, 61, 0
24, 57060, Note_on_c, 12, 64, 127
24, 57119, Note_on_c, 12, 64, 0
24, 57120, Note_on_c, 12, 59, 127
24, 57179, Note_on_c, 12, 59, 0
24, 57180, Note_on_c, 12, 62, 127
24, 57239, Note_on_c, 12, 62, 0
24, 57240, Note_on_c, 12, 61, 127
24, 57359, Note_on_c, 12, 61, 0
24, 60780, Note_on_c, 12, 64, 127
24, 60840, Note_on_c, 12, 64, 0
24, 60840, Note_on_c, 12, 64, 127
24, 60899, Note_on_c, 12, 64, 0
24, 60900, Note_on_c, 12, 61, 127
24, 60959, Note_on_c, 12, 61, 0
24, 61020, Note_on_c, 12, 64, 127
24, 61079, Note_on_c, 12, 64, 0
24, 61080, Note_on_c, 12, 69, 127
24, 61139, Note_on_c, 12, 69, 0
24, 61140, Note_on_c, 12, 64, 127
24, 61199, Note_on_c, 12, 64, 0
24, 61380, Note_on_c, 12, 60, 127
24, 61439, Note_on_c, 12, 60, 0
24, 61440, Note_on_c, 12, 60, 127
24, 61499, Note_on_c, 12, 60, 0
24, 61500, Note_on_c, 12, 57, 127
24, 61529, Note_on_c, 12, 57, 0
24, 61530, Note_on_c, 12, 57, 127
24, 61559, Note_on_c, 12, 57, 0
24, 61560, Note_on_c, 12, 59, 127
24, 61919, Note_on_c, 12, 59, 0
24, 62100, Note_on_c, 12, 67, 127
24, 62159, Note_on_c, 12, 67, 0
24, 62160, Note_on_c, 12, 67, 127
24, 62219, Note_on_c, 12, 67, 0
24, 62220, Note_on_c, 12, 64, 127
24, 62279, Note_on_c, 12, 64, 0
24, 62340, Note_on_c, 12, 67, 127
24, 62399, Note_on_c, 12, 67, 0
24, 62400, Note_on_c, 12, 71, 127
24, 62459, Note_on_c, 12, 71, 0
24, 62460, Note_on_c, 12, 59, 127
24, 62489, Note_on_c, 12, 59, 0
24, 62490, Note_on_c, 12, 59, 127
24, 62519, Note_on_c, 12, 59, 0
24, 62520, Note_on_c, 12, 59, 127
24, 62579, Note_on_c, 12, 59, 0
24, 62580, Note_on_c, 12, 59, 127
24, 62609, Note_on_c, 12, 59, 0
24, 62610, Note_on_c, 12, 59, 127
24, 62639, Note_on_c, 12, 59, 0
24, 62640, Note_on_c, 12, 57, 127
24, 62999, Note_on_c, 12, 57, 0
24, 63180, Note_on_c, 12, 66, 127
24, 63239, Note_on_c, 12, 66, 0
24, 63240, Note_on_c, 12, 66, 127
24, 63299, Note_on_c, 12, 66, 0
24, 63300, Note_on_c, 12, 67, 127
24, 63329, Note_on_c, 12, 67, 0
24, 63330, Note_on_c, 12, 69, 127
24, 63359, Note_on_c, 12, 69, 0
24, 63360, Note_on_c, 12, 59, 127
24, 63419, Note_on_c, 12, 59, 0
24, 63420, Note_on_c, 12, 64, 127
24, 63479, Note_on_c, 12, 64, 0
24, 63540, Note_on_c, 12, 64, 127
24, 63599, Note_on_c, 12, 64, 0
24, 63600, Note_on_c, 12, 64, 127
24, 63659, Note_on_c, 12, 64, 0
24, 63660, Note_on_c, 12, 66, 127
24, 63689, Note_on_c, 12, 66, 0
24, 63690, Note_on_c, 12, 67, 127
24, 63719, Note_on_c, 12, 67, 0
24, 63720, Note_on_c, 12, 57, 127
24, 63779, Note_on_c, 12, 57, 0
24, 63780, Note_on_c, 12, 62, 127
24, 63839, Note_on_c, 12, 62, 0
24, 63900, Note_on_c, 12, 62, 127
24, 63959, Note_on_c, 12, 62, 0
24, 63960, Note_on_c, 12, 62, 127
24, 64019, Note_on_c, 12, 62, 0
24, 64020, Note_on_c, 12, 64, 127
24, 64049, Note_on_c, 12, 64, 0
24, 64050, Note_on_c, 12, 66, 127
24, 64079, Note_on_c, 12, 66, 0
24, 64080, Note_on_c, 12, 55, 127
24, 64139, Note_on_c, 12, 55, 0
24, 64140, Note_on_c, 12, 52, 127
24, 64199, Note_on_c, 12, 52, 0
24, 64380, Note_on_c, 12, 61, 127
24, 64439, Note_on_c, 12, 61, 0
24, 64440, Note_on_c, 12, 54, 127
24, 64499, Note_on_c, 12, 54, 0
24, 64500, Note_on_c, 12, 66, 127
24, 64559, Note_on_c, 12, 66, 0
24, 64590, Note_on_c, 12, 64, 127
24, 64619, Note_on_c, 12, 64, 0
24, 64620, Note_on_c, 12, 62, 127
24, 64649, Note_on_c, 12, 62, 0
24, 64650, Note_on_c, 12, 61, 127
24, 64679, Note_on_c, 12, 61, 0
24, 64680, Note_on_c, 12, 59, 127
24, 64709, Note_on_c, 12, 59, 0
24, 64710, Note_on_c, 12, 57, 127
24, 64739, Note_on_c, 12, 57, 0
24, 64740, Note_on_c, 12, 56, 127
24, 64769, Note_on_c, 12, 56, 0
24, 64770, Note_on_c, 12, 54, 127
24, 64799, Note_on_c, 12, 54, 0
24, 64800, Note_on_c, 12, 56, 127
24, 64859, Note_on_c, 12, 56, 0
24, 64860, Note_on_c, 12, 52, 127
24, 64889, Note_on_c, 12, 52, 0
24, 64890, Note_on_c, 12, 52, 127
24, 64919, Note_on_c, 12, 52, 0
24, 64920, Note_on_c, 12, 62, 127
24, 64949, Note_on_c, 12, 62, 0
24, 64950, Note_on_c, 12, 64, 127
24, 64979, Note_on_c, 12, 64, 0
24, 64980, Note_on_c, 12, 62, 127
24, 65009, Note_on_c, 12, 62, 0
24, 65010, Note_on_c, 12, 60, 127
24, 65039, Note_on_c, 12, 60, 0
24, 65040, Note_on_c, 12, 59, 127
24, 65069, Note_on_c, 12, 59, 0
24, 65070, Note_on_c, 12, 57, 127
24, 65099, Note_on_c, 12, 57, 0
24, 65100, Note_on_c, 12, 56, 127
24, 65129, Note_on_c, 12, 56, 0
24, 65130, Note_on_c, 12, 54, 127
24, 65159, Note_on_c, 12, 54, 0
24, 65160, Note_on_c, 12, 52, 127
24, 65219, Note_on_c, 12, 52, 0
24, 65220, Note_on_c, 12, 59, 127
24, 65249, Note_on_c, 12, 59, 0
24, 65250, Note_on_c, 12, 61, 127
24, 65279, Note_on_c, 12, 61, 0
24, 65280, Note_on_c, 12, 62, 127
24, 65309, Note_on_c, 12, 62, 0
24, 65310, Note_on_c, 12, 61, 127
24, 65339, Note_on_c, 12, 61, 0
24, 65340, Note_on_c, 12, 59, 127
24, 65369, Note_on_c, 12, 59, 0
24, 65370, Note_on_c, 12, 57, 127
24, 65399, Note_on_c, 12, 57, 0
24, 65400, Note_on_c, 12, 56, 127
24, 65429, Note_on_c, 12, 56, 0
24, 65430, Note_on_c, 12, 54, 127
24, 65459, Note_on_c, 12, 54, 0
24, 65460, Note_on_c, 12, 52, 127
24, 65489, Note_on_c, 12, 52, 0
24, 65490, Note_on_c, 12, 50, 127
24, 65519, Note_on_c, 12, 50, 0
24, 65520, Note_on_c, 12, 52, 127
24, 65639, Note_on_c, 12, 52, 0
24, 65700, Note_on_c, 12, 64, 127
24, 65759, Note_on_c, 12, 64, 0
24, 65760, Note_on_c, 12, 67, 127
24, 65819, Note_on_c, 12, 67, 0
24, 65820, Note_on_c, 12, 69, 127
24, 65849, Note_on_c, 12, 69, 0
24, 65850, Note_on_c, 12, 67, 127
24, 65879, Note_on_c, 12, 67, 0
24, 65880, Note_on_c, 12, 66, 127
24, 65939, Note_on_c, 12, 66, 0
24, 65940, Note_on_c, 12, 66, 127
24, 65999, Note_on_c, 12, 66, 0
24, 66060, Note_on_c, 12, 62, 127
24, 66119, Note_on_c, 12, 62, 0
24, 66120, Note_on_c, 12, 62, 127
24, 66179, Note_on_c, 12, 62, 0
24, 66180, Note_on_c, 12, 61, 127
24, 66209, Note_on_c, 12, 61, 0
24, 66210, Note_on_c, 12, 62, 127
24, 66239, Note_on_c, 12, 62, 0
24, 66240, Note_on_c, 12, 57, 127
24, 66299, Note_on_c, 12, 57, 0
24, 66300, Note_on_c, 12, 57, 127
24, 66359, Note_on_c, 12, 57, 0
24, 66420, Note_on_c, 12, 64, 127
24, 66479, Note_on_c, 12, 64, 0
24, 66480, Note_on_c, 12, 61, 127
24, 66539, Note_on_c, 12, 61, 0
24, 66540, Note_on_c, 12, 62, 127
24, 66569, Note_on_c, 12, 62, 0
24, 66570, Note_on_c, 12, 64, 127
24, 66599, Note_on_c, 12, 64, 0
24, 66600, Note_on_c, 12, 66, 127
24, 67260, Note_on_c, 12, 66, 0
24, 67260, Note_on_c, 12, 66, 127
24, 67319, Note_on_c, 12, 66, 0
24, 67320, Note_on_c, 12, 59, 127
24, 67379, Note_on_c, 12, 59, 0
24, 67380, Note_on_c, 12, 62, 127
24, 67439, Note_on_c, 12, 62, 0
24, 67440, Note_on_c, 12, 64, 127
24, 67469, Note_on_c, 12, 64, 0
24, 67470, Note_on_c, 12, 66, 127
24, 67499, Note_on_c, 12, 66, 0
24, 67500, Note_on_c, 12, 64, 127
24, 67529, Note_on_c, 12, 64, 0
24, 67530, Note_on_c, 12, 66, 127
24, 67559, Note_on_c, 12, 66, 0
24, 67560, Note_on_c, 12, 67, 127
24, 67589, Note_on_c, 12, 67, 0
24, 67590, Note_on_c, 12, 69, 127
24, 67619, Note_on_c, 12, 69, 0
24, 67620, Note_on_c, 12, 66, 127
24, 67649, Note_on_c, 12, 66, 0
24, 67650, Note_on_c, 12, 67, 127
24, 67679, Note_on_c, 12, 67, 0
24, 67680, Note_on_c, 12, 69, 127
24, 67739, Note_on_c, 12, 69, 0
24, 67740, Note_on_c, 12, 57, 127
24, 67799, Note_on_c, 12, 57, 0
24, 67800, Note_on_c, 12, 69, 127
24, 67829, Note_on_c, 12, 69, 0
24, 67830, Note_on_c, 12, 67, 127
24, 67859, Note_on_c, 12, 67, 0
24, 67860, Note_on_c, 12, 66, 127
24, 67889, Note_on_c, 12, 66, 0
24, 67890, Note_on_c, 12, 64, 127
24, 67919, Note_on_c, 12, 64, 0
24, 67920, Note_on_c, 12, 67, 127
24, 67949, Note_on_c, 12, 67, 0
24, 67950, Note_on_c, 12, 66, 127
24, 67979, Note_on_c, 12, 66, 0
24, 67980, Note_on_c, 12, 67, 127
24, 68009, Note_on_c, 12, 67, 0
24, 68010, Note_on_c, 12, 64, 127
24, 68039, Note_on_c, 12, 64, 0
24, 68040, Note_on_c, 12, 66, 127
24, 68159, Note_on_c, 12, 66, 0
24, 331620, Note_on_c, 12, 66, 127
24, 331859, Note_on_c, 12, 66, 0
24, 331860, Note_on_c, 12, 62, 127
24, 332099, Note_on_c, 12, 62, 0
24, 333060, Note_on_c, 12, 62, 127
24, 333299, Note_on_c, 12, 62, 0
24, 333300, Note_on_c, 12, 57, 127
24, 333539, Note_on_c, 12, 57, 0
24, 334500, Note_on_c, 12, 66, 127
24, 334739, Note_on_c, 12, 66, 0
24, 334740, Note_on_c, 12, 62, 127
24, 334979, Note_on_c, 12, 62, 0
24, 334980, Note_on_c, 12, 62, 127
24, 335099, Note_on_c, 12, 62, 0
24, 335100, Note_on_c, 12, 57, 127
24, 335219, Note_on_c, 12, 57, 0
24, 335220, Note_on_c, 12, 66, 127
24, 335339, Note_on_c, 12, 66, 0
24, 335340, Note_on_c, 12, 62, 127
24, 335459, Note_on_c, 12, 62, 0
24, 335460, Note_on_c, 12, 69, 127
24, 335579, Note_on_c, 12, 69, 0
24, 335580, Note_on_c, 12, 66, 127
24, 335699, Note_on_c, 12, 66, 0
24, 335700, Note_on_c, 12, 66, 127
24, 335819, Note_on_c, 12, 66, 0
24, 335820, Note_on_c, 12, 62, 127
24, 335939, Note_on_c, 12, 62, 0
24, 335940, Note_on_c, 12, 62, 127
24, 336059, Note_on_c, 12, 62, 0
24, 336060, Note_on_c, 12, 62, 127
24, 336179, Note_on_c, 12, 62, 0
24, 336180, Note_on_c, 12, 62, 127
24, 336299, Note_on_c, 12, 62, 0
24, 336300, Note_on_c, 12, 62, 127
24, 336419, Note_on_c, 12, 62, 0
24, 336420, Note_on_c, 12, 62, 127
24, 336539, Note_on_c, 12, 62, 0
24, 336540, Note_on_c, 12, 57, 127
24, 336659, Note_on_c, 12, 57, 0
24, 336660, Note_on_c, 12, 57, 127
24, 336899, Note_on_c, 12, 57, 0
24, 336900, Note_on_c, 12, 64, 127
24, 337139, Note_on_c, 12, 64, 0
24, 337140, Note_on_c, 12, 61, 127
24, 337379, Note_on_c, 12, 61, 0
24, 338340, Note_on_c, 12, 61, 127
24, 338579, Note_on_c, 12, 61, 0
24, 338580, Note_on_c, 12, 57, 127
24, 338819, Note_on_c, 12, 57, 0
24, 339780, Note_on_c, 12, 64, 127
24, 340019, Note_on_c, 12, 64, 0
24, 340020, Note_on_c, 12, 61, 127
24, 340259, Note_on_c, 12, 61, 0
24, 340260, Note_on_c, 12, 64, 127
24, 340379, Note_on_c, 12, 64, 0
24, 340380, Note_on_c, 12, 61, 127
24, 340499, Note_on_c, 12, 61, 0
24, 340500, Note_on_c, 12, 69, 127
24, 340619, Note_on_c, 12, 69, 0
24, 340620, Note_on_c, 12, 64, 127
24, 340739, Note_on_c, 12, 64, 0
24, 340740, Note_on_c, 12, 61, 127
24, 340859, Note_on_c, 12, 61, 0
24, 340860, Note_on_c, 12, 64, 127
24, 340979, Note_on_c, 12, 64, 0
24, 340980, Note_on_c, 12, 64, 127
24, 341099, Note_on_c, 12, 64, 0
24, 341100, Note_on_c, 12, 61, 127
24, 341219, Note_on_c, 12, 61, 0
24, 341220, Note_on_c, 12, 66, 127
24, 341339, Note_on_c, 12, 66, 0
24, 341340, Note_on_c, 12, 62, 127
24, 341459, Note_on_c, 12, 62, 0
24, 341460, Note_on_c, 12, 62, 127
24, 341579, Note_on_c, 12, 62, 0
24, 341580, Note_on_c, 12, 67, 127
24, 341699, Note_on_c, 12, 67, 0
24, 341700, Note_on_c, 12, 64, 127
24, 341819, Note_on_c, 12, 64, 0
24, 341820, Note_on_c, 12, 57, 127
24, 341939, Note_on_c, 12, 57, 0
24, 341940, Note_on_c, 12, 57, 127
24, 342179, Note_on_c, 12, 57, 0
24, 342180, Note_on_c, 12, 62, 127
24, 342419, Note_on_c, 12, 62, 0
24, 342420, Note_on_c, 12, 66, 127
24, 342659, Note_on_c, 12, 66, 0
24, 342660, Note_on_c, 12, 62, 127
24, 342779, Note_on_c, 12, 62, 0
24, 342780, Note_on_c, 12, 64, 127
24, 342839, Note_on_c, 12, 64, 0
24, 342840, Note_on_c, 12, 66, 127
24, 342899, Note_on_c, 12, 66, 0
24, 342900, Note_on_c, 12, 67, 127
24, 343019, Note_on_c, 12, 67, 0
24, 343020, Note_on_c, 12, 66, 127
24, 343139, Note_on_c, 12, 66, 0
24, 343140, Note_on_c, 12, 66, 127
24, 343259, Note_on_c, 12, 66, 0
24, 343260, Note_on_c, 12, 64, 127
24, 343319, Note_on_c, 12, 64, 0
24, 343320, Note_on_c, 12, 66, 127
24, 343379, Note_on_c, 12, 66, 0
24, 343380, Note_on_c, 12, 62, 127
24, 343619, Note_on_c, 12, 62, 0
24, 343620, Note_on_c, 12, 64, 127
24, 343859, Note_on_c, 12, 64, 0
24, 343860, Note_on_c, 12, 64, 127
24, 344099, Note_on_c, 12, 64, 0
24, 344100, Note_on_c, 12, 64, 127
24, 344219, Note_on_c, 12, 64, 0
24, 344220, Note_on_c, 12, 57, 127
24, 344339, Note_on_c, 12, 57, 0
24, 344340, Note_on_c, 12, 56, 127
24, 344459, Note_on_c, 12, 56, 0
24, 344460, Note_on_c, 12, 52, 127
24, 344579, Note_on_c, 12, 52, 0
24, 344580, Note_on_c, 12, 64, 127
24, 344699, Note_on_c, 12, 64, 0
24, 344700, Note_on_c, 12, 64, 127
24, 344819, Note_on_c, 12, 64, 0
24, 344820, Note_on_c, 12, 64, 127
24, 344939, Note_on_c, 12, 64, 0
24, 344940, Note_on_c, 12, 64, 127
24, 345059, Note_on_c, 12, 64, 0
24, 345060, Note_on_c, 12, 64, 127
24, 345179, Note_on_c, 12, 64, 0
24, 345180, Note_on_c, 12, 64, 127
24, 345299, Note_on_c, 12, 64, 0
24, 345300, Note_on_c, 12, 64, 127
24, 345419, Note_on_c, 12, 64, 0
24, 345420, Note_on_c, 12, 64, 127
24, 345539, Note_on_c, 12, 64, 0
24, 345540, Note_on_c, 12, 64, 127
24, 345659, Note_on_c, 12, 64, 0
24, 345660, Note_on_c, 12, 57, 127
24, 345779, Note_on_c, 12, 57, 0
24, 345780, Note_on_c, 12, 56, 127
24, 345899, Note_on_c, 12, 56, 0
24, 345900, Note_on_c, 12, 52, 127
24, 346019, Note_on_c, 12, 52, 0
24, 346020, Note_on_c, 12, 57, 127
24, 346139, Note_on_c, 12, 57, 0
24, 346140, Note_on_c, 12, 57, 127
24, 346259, Note_on_c, 12, 57, 0
24, 346260, Note_on_c, 12, 59, 127
24, 346379, Note_on_c, 12, 59, 0
24, 346380, Note_on_c, 12, 61, 127
24, 346499, Note_on_c, 12, 61, 0
24, 346500, Note_on_c, 12, 62, 127
24, 346619, Note_on_c, 12, 62, 0
24, 346620, Note_on_c, 12, 59, 127
24, 346739, Note_on_c, 12, 59, 0
24, 346740, Note_on_c, 12, 64, 127
24, 346979, Note_on_c, 12, 64, 0
24, 346980, Note_on_c, 12, 64, 127
24, 347219, Note_on_c, 12, 64, 0
24, 347220, Note_on_c, 12, 64, 127
24, 347459, Note_on_c, 12, 64, 0
24, 347460, Note_on_c, 12, 61, 127
24, 347699, Note_on_c, 12, 61, 0
24, 347940, Note_on_c, 12, 66, 127
24, 348179, Note_on_c, 12, 66, 0
24, 348180, Note_on_c, 12, 62, 127
24, 348419, Note_on_c, 12, 62, 0
24, 349380, Note_on_c, 12, 62, 127
24, 349619, Note_on_c, 12, 62, 0
24, 349620, Note_on_c, 12, 57, 127
24, 349859, Note_on_c, 12, 57, 0
24, 350820, Note_on_c, 12, 66, 127
24, 351059, Note_on_c, 12, 66, 0
24, 351060, Note_on_c, 12, 62, 127
24, 351299, Note_on_c, 12, 62, 0
24, 351300, Note_on_c, 12, 62, 127
24, 351419, Note_on_c, 12, 62, 0
24, 351420, Note_on_c, 12, 57, 127
24, 351539, Note_on_c, 12, 57, 0
24, 351540, Note_on_c, 12, 66, 127
24, 351659, Note_on_c, 12, 66, 0
24, 351660, Note_on_c, 12, 62, 127
24, 351779, Note_on_c, 12, 62, 0
24, 351780, Note_on_c, 12, 69, 127
24, 351899, Note_on_c, 12, 69, 0
24, 351900, Note_on_c, 12, 66, 127
24, 352019, Note_on_c, 12, 66, 0
24, 352020, Note_on_c, 12, 66, 127
24, 352139, Note_on_c, 12, 66, 0
24, 352140, Note_on_c, 12, 62, 127
24, 352259, Note_on_c, 12, 62, 0
24, 352260, Note_on_c, 12, 62, 127
24, 352379, Note_on_c, 12, 62, 0
24, 352380, Note_on_c, 12, 62, 127
24, 352499, Note_on_c, 12, 62, 0
24, 352500, Note_on_c, 12, 62, 127
24, 352619, Note_on_c, 12, 62, 0
24, 352620, Note_on_c, 12, 62, 127
24, 352739, Note_on_c, 12, 62, 0
24, 352740, Note_on_c, 12, 62, 127
24, 352859, Note_on_c, 12, 62, 0
24, 352860, Note_on_c, 12, 57, 127
24, 352979, Note_on_c, 12, 57, 0
24, 352980, Note_on_c, 12, 57, 127
24, 353219, Note_on_c, 12, 57, 0
24, 353220, Note_on_c, 12, 64, 127
24, 353459, Note_on_c, 12, 64, 0
24, 353460, Note_on_c, 12, 61, 127
24, 353699, Note_on_c, 12, 61, 0
24, 354660, Note_on_c, 12, 61, 127
24, 354899, Note_on_c, 12, 61, 0
24, 354900, Note_on_c, 12, 57, 127
24, 355139, Note_on_c, 12, 57, 0
24, 356100, Note_on_c, 12, 64, 127
24, 356339, Note_on_c, 12, 64, 0
24, 356340, Note_on_c, 12, 61, 127
24, 356579, Note_on_c, 12, 61, 0
24, 356580, Note_on_c, 12, 64, 127
24, 356699, Note_on_c, 12, 64, 0
24, 356700, Note_on_c, 12, 61, 127
24, 356819, Note_on_c, 12, 61, 0
24, 356820, Note_on_c, 12, 69, 127
24, 356939, Note_on_c, 12, 69, 0
24, 356940, Note_on_c, 12, 64, 127
24, 357059, Note_on_c, 12, 64, 0
24, 357060, Note_on_c, 12, 61, 127
24, 357179, Note_on_c, 12, 61, 0
24, 357180, Note_on_c, 12, 64, 127
24, 357299, Note_on_c, 12, 64, 0
24, 357300, Note_on_c, 12, 64, 127
24, 357419, Note_on_c, 12, 64, 0
24, 357420, Note_on_c, 12, 61, 127
24, 357539, Note_on_c, 12, 61, 0
24, 357540, Note_on_c, 12, 66, 127
24, 357599, Note_on_c, 12, 66, 0
24, 357600, Note_on_c, 12, 67, 127
24, 357659, Note_on_c, 12, 67, 0
24, 357660, Note_on_c, 12, 66, 127
24, 357719, Note_on_c, 12, 66, 0
24, 357720, Note_on_c, 12, 64, 127
24, 357779, Note_on_c, 12, 64, 0
24, 357780, Note_on_c, 12, 62, 127
24, 357899, Note_on_c, 12, 62, 0
24, 357900, Note_on_c, 12, 62, 127
24, 358019, Note_on_c, 12, 62, 0
24, 358020, Note_on_c, 12, 62, 127
24, 358139, Note_on_c, 12, 62, 0
24, 358140, Note_on_c, 12, 61, 127
24, 358259, Note_on_c, 12, 61, 0
24, 358260, Note_on_c, 12, 57, 127
24, 358499, Note_on_c, 12, 57, 0
24, 358500, Note_on_c, 12, 62, 127
24, 358739, Note_on_c, 12, 62, 0
24, 358740, Note_on_c, 12, 62, 127
24, 358979, Note_on_c, 12, 62, 0
24, 358980, Note_on_c, 12, 64, 127
24, 359099, Note_on_c, 12, 64, 0
24, 359100, Note_on_c, 12, 64, 127
24, 359219, Note_on_c, 12, 64, 0
24, 359220, Note_on_c, 12, 57, 127
24, 359339, Note_on_c, 12, 57, 0
24, 359340, Note_on_c, 12, 64, 127
24, 359459, Note_on_c, 12, 64, 0
24, 359460, Note_on_c, 12, 64, 127
24, 359579, Note_on_c, 12, 64, 0
24, 359580, Note_on_c, 12, 61, 127
24, 359699, Note_on_c, 12, 61, 0
24, 359700, Note_on_c, 12, 64, 127
24, 359819, Note_on_c, 12, 64, 0
24, 359820, Note_on_c, 12, 64, 127
24, 359939, Note_on_c, 12, 64, 0
24, 359940, Note_on_c, 12, 64, 127
24, 360059, Note_on_c, 12, 64, 0
24, 360060, Note_on_c, 12, 62, 127
24, 360119, Note_on_c, 12, 62, 0
24, 360120, Note_on_c, 12, 61, 127
24, 360179, Note_on_c, 12, 61, 0
24, 360180, Note_on_c, 12, 59, 127
24, 360299, Note_on_c, 12, 59, 0
24, 360300, Note_on_c, 12, 57, 127
24, 360419, Note_on_c, 12, 57, 0
24, 360420, Note_on_c, 12, 56, 127
24, 360539, Note_on_c, 12, 56, 0
24, 360540, Note_on_c, 12, 57, 127
24, 360599, Note_on_c, 12, 57, 0
24, 360600, Note_on_c, 12, 56, 127
24, 360659, Note_on_c, 12, 56, 0
24, 360660, Note_on_c, 12, 59, 127
24, 360779, Note_on_c, 12, 59, 0
24, 360780, Note_on_c, 12, 57, 127
24, 360839, Note_on_c, 12, 57, 0
24, 360840, Note_on_c, 12, 56, 127
24, 360899, Note_on_c, 12, 56, 0
24, 360900, Note_on_c, 12, 57, 127
24, 361019, Note_on_c, 12, 57, 0
24, 361020, Note_on_c, 12, 57, 127
24, 361079, Note_on_c, 12, 57, 0
24, 361080, Note_on_c, 12, 56, 127
24, 361139, Note_on_c, 12, 56, 0
24, 361140, Note_on_c, 12, 59, 127
24, 361259, Note_on_c, 12, 59, 0
24, 361260, Note_on_c, 12, 57, 127
24, 361319, Note_on_c, 12, 57, 0
24, 361320, Note_on_c, 12, 56, 127
24, 361379, Note_on_c, 12, 56, 0
24, 361380, Note_on_c, 12, 57, 127
24, 361499, Note_on_c, 12, 57, 0
24, 361500, Note_on_c, 12, 61, 127
24, 361559, Note_on_c, 12, 61, 0
24, 361560, Note_on_c, 12, 59, 127
24, 361619, Note_on_c, 12, 59, 0
24, 361620, Note_on_c, 12, 61, 127
24, 361859, Note_on_c, 12, 61, 0
24, 361980, Note_on_c, 12, 61, 127
24, 362099, Note_on_c, 12, 61, 0
24, 362100, Note_on_c, 12, 68, 127
24, 362219, Note_on_c, 12, 68, 0
24, 362220, Note_on_c, 12, 65, 127
24, 362339, Note_on_c, 12, 65, 0
24, 362340, Note_on_c, 12, 66, 127
24, 362459, Note_on_c, 12, 66, 0
24, 362700, Note_on_c, 12, 66, 127
24, 362819, Note_on_c, 12, 66, 0
24, 362820, Note_on_c, 12, 66, 127
24, 362939, Note_on_c, 12, 66, 0
24, 362940, Note_on_c, 12, 66, 127
24, 363059, Note_on_c, 12, 66, 0
24, 363060, Note_on_c, 12, 66, 127
24, 363119, Note_on_c, 12, 66, 0
24, 363120, Note_on_c, 12, 65, 127
24, 363179, Note_on_c, 12, 65, 0
24, 363180, Note_on_c, 12, 66, 127
24, 363299, Note_on_c, 12, 66, 0
24, 363300, Note_on_c, 12, 61, 127
24, 363539, Note_on_c, 12, 61, 0
24, 363540, Note_on_c, 12, 61, 127
24, 363779, Note_on_c, 12, 61, 0
24, 363780, Note_on_c, 12, 57, 127
24, 364019, Note_on_c, 12, 57, 0
24, 374820, Note_on_c, 12, 66, 127
24, 375059, Note_on_c, 12, 66, 0
24, 375060, Note_on_c, 12, 62, 127
24, 375299, Note_on_c, 12, 62, 0
24, 376260, Note_on_c, 12, 62, 127
24, 376499, Note_on_c, 12, 62, 0
24, 376500, Note_on_c, 12, 57, 127
24, 376739, Note_on_c, 12, 57, 0
24, 377700, Note_on_c, 12, 66, 127
24, 377939, Note_on_c, 12, 66, 0
24, 377940, Note_on_c, 12, 62, 127
24, 378179, Note_on_c, 12, 62, 0
24, 378180, Note_on_c, 12, 62, 127
24, 378299, Note_on_c, 12, 62, 0
24, 378300, Note_on_c, 12, 57, 127
24, 378419, Note_on_c, 12, 57, 0
24, 378420, Note_on_c, 12, 66, 127
24, 378539, Note_on_c, 12, 66, 0
24, 378540, Note_on_c, 12, 62, 127
24, 378659, Note_on_c, 12, 62, 0
24, 378660, Note_on_c, 12, 69, 127
24, 378779, Note_on_c, 12, 69, 0
24, 378780, Note_on_c, 12, 66, 127
24, 378899, Note_on_c, 12, 66, 0
24, 378900, Note_on_c, 12, 66, 127
24, 379019, Note_on_c, 12, 66, 0
24, 379020, Note_on_c, 12, 62, 127
24, 379139, Note_on_c, 12, 62, 0
24, 379140, Note_on_c, 12, 62, 127
24, 379259, Note_on_c, 12, 62, 0
24, 379260, Note_on_c, 12, 62, 127
24, 379379, Note_on_c, 12, 62, 0
24, 379380, Note_on_c, 12, 62, 127
24, 379499, Note_on_c, 12, 62, 0
24, 379500, Note_on_c, 12, 62, 127
24, 379619, Note_on_c, 12, 62, 0
24, 379620, Note_on_c, 12, 62, 127
24, 379739, Note_on_c, 12, 62, 0
24, 379740, Note_on_c, 12, 57, 127
24, 379859, Note_on_c, 12, 57, 0
24, 379860, Note_on_c, 12, 57, 127
24, 380099, Note_on_c, 12, 57, 0
24, 380100, Note_on_c, 12, 64, 127
24, 380339, Note_on_c, 12, 64, 0
24, 380340, Note_on_c, 12, 61, 127
24, 380579, Note_on_c, 12, 61, 0
24, 381540, Note_on_c, 12, 61, 127
24, 381779, Note_on_c, 12, 61, 0
24, 381780, Note_on_c, 12, 57, 127
24, 382019, Note_on_c, 12, 57, 0
24, 382980, Note_on_c, 12, 64, 127
24, 383219, Note_on_c, 12, 64, 0
24, 383220, Note_on_c, 12, 61, 127
24, 383459, Note_on_c, 12, 61, 0
24, 383460, Note_on_c, 12, 64, 127
24, 383579, Note_on_c, 12, 64, 0
24, 383580, Note_on_c, 12, 61, 127
24, 383699, Note_on_c, 12, 61, 0
24, 383700, Note_on_c, 12, 69, 127
24, 383819, Note_on_c, 12, 69, 0
24, 383820, Note_on_c, 12, 64, 127
24, 383939, Note_on_c, 12, 64, 0
24, 383940, Note_on_c, 12, 61, 127
24, 384059, Note_on_c, 12, 61, 0
24, 384060, Note_on_c, 12, 64, 127
24, 384179, Note_on_c, 12, 64, 0
24, 384180, Note_on_c, 12, 64, 127
24, 384299, Note_on_c, 12, 64, 0
24, 384300, Note_on_c, 12, 61, 127
24, 384419, Note_on_c, 12, 61, 0
24, 384420, Note_on_c, 12, 66, 127
24, 384539, Note_on_c, 12, 66, 0
24, 384540, Note_on_c, 12, 62, 127
24, 384659, Note_on_c, 12, 62, 0
24, 384660, Note_on_c, 12, 62, 127
24, 384779, Note_on_c, 12, 62, 0
24, 384780, Note_on_c, 12, 67, 127
24, 384899, Note_on_c, 12, 67, 0
24, 384900, Note_on_c, 12, 64, 127
24, 385019, Note_on_c, 12, 64, 0
24, 385020, Note_on_c, 12, 57, 127
24, 385139, Note_on_c, 12, 57, 0
24, 385140, Note_on_c, 12, 57, 127
24, 385379, Note_on_c, 12, 57, 0
24, 385379, End_track
25, 0, Start_track
25, 0, MIDI_port, 0
25, 0, Title_t, "bajo"
25, 0, Program_c, 13, 52
25, 10020, Note_on_c, 13, 57, 127
25, 10079, Note_on_c, 13, 57, 0
25, 10080, Note_on_c, 13, 62, 127
25, 10139, Note_on_c, 13, 62, 0
25, 10140, Note_on_c, 13, 50, 127
25, 10199, Note_on_c, 13, 50, 0
25, 10380, Note_on_c, 13, 57, 127
25, 10439, Note_on_c, 13, 57, 0
25, 10440, Note_on_c, 13, 59, 127
25, 10499, Note_on_c, 13, 59, 0
25, 10500, Note_on_c, 13, 47, 127
25, 10559, Note_on_c, 13, 47, 0
25, 10740, Note_on_c, 13, 50, 127
25, 10799, Note_on_c, 13, 50, 0
25, 10800, Note_on_c, 13, 54, 127
25, 10859, Note_on_c, 13, 54, 0
25, 10860, Note_on_c, 13, 42, 127
25, 10919, Note_on_c, 13, 42, 0
25, 11100, Note_on_c, 13, 54, 127
25, 11159, Note_on_c, 13, 54, 0
25, 11160, Note_on_c, 13, 55, 127
25, 11189, Note_on_c, 13, 55, 0
25, 11190, Note_on_c, 13, 50, 127
25, 11219, Note_on_c, 13, 50, 0
25, 11220, Note_on_c, 13, 52, 127
25, 11249, Note_on_c, 13, 52, 0
25, 11250, Note_on_c, 13, 54, 127
25, 11279, Note_on_c, 13, 54, 0
25, 11280, Note_on_c, 13, 55, 127
25, 11309, Note_on_c, 13, 55, 0
25, 11310, Note_on_c, 13, 57, 127
25, 11339, Note_on_c, 13, 57, 0
25, 11340, Note_on_c, 13, 59, 127
25, 11369, Note_on_c, 13, 59, 0
25, 11370, Note_on_c, 13, 61, 127
25, 11399, Note_on_c, 13, 61, 0
25, 11400, Note_on_c, 13, 62, 127
25, 11429, Note_on_c, 13, 62, 0
25, 11430, Note_on_c, 13, 61, 127
25, 11459, Note_on_c, 13, 61, 0
25, 11460, Note_on_c, 13, 62, 127
25, 11489, Note_on_c, 13, 62, 0
25, 11490, Note_on_c, 13, 61, 127
25, 11519, Note_on_c, 13, 61, 0
25, 11520, Note_on_c, 13, 62, 127
25, 11579, Note_on_c, 13, 62, 0
25, 11580, Note_on_c, 13, 50, 127
25, 11639, Note_on_c, 13, 50, 0
25, 11700, Note_on_c, 13, 50, 127
25, 11759, Note_on_c, 13, 50, 0
25, 11760, Note_on_c, 13, 57, 127
25, 11819, Note_on_c, 13, 57, 0
25, 11820, Note_on_c, 13, 57, 127
25, 11849, Note_on_c, 13, 57, 0
25, 11850, Note_on_c, 13, 57, 127
25, 11879, Note_on_c, 13, 57, 0
25, 11880, Note_on_c, 13, 45, 127
25, 11999, Note_on_c, 13, 45, 0
25, 14340, Note_on_c, 13, 57, 127
25, 14399, Note_on_c, 13, 57, 0
25, 14400, Note_on_c, 13, 62, 127
25, 14459, Note_on_c, 13, 62, 0
25, 14460, Note_on_c, 13, 50, 127
25, 14519, Note_on_c, 13, 50, 0
25, 14700, Note_on_c, 13, 62, 127
25, 14759, Note_on_c, 13, 62, 0
25, 14760, Note_on_c, 13, 62, 127
25, 14819, Note_on_c, 13, 62, 0
25, 14820, Note_on_c, 13, 50, 127
25, 14879, Note_on_c, 13, 50, 0
25, 15060, Note_on_c, 13, 62, 127
25, 15119, Note_on_c, 13, 62, 0
25, 15120, Note_on_c, 13, 62, 127
25, 15179, Note_on_c, 13, 62, 0
25, 15180, Note_on_c, 13, 50, 127
25, 15239, Note_on_c, 13, 50, 0
25, 15300, Note_on_c, 13, 62, 127
25, 15359, Note_on_c, 13, 62, 0
25, 15360, Note_on_c, 13, 62, 127
25, 15419, Note_on_c, 13, 62, 0
25, 15420, Note_on_c, 13, 62, 127
25, 15449, Note_on_c, 13, 62, 0
25, 15450, Note_on_c, 13, 62, 127
25, 15479, Note_on_c, 13, 62, 0
25, 15480, Note_on_c, 13, 50, 127
25, 15599, Note_on_c, 13, 50, 0
25, 15780, Note_on_c, 13, 57, 127
25, 15839, Note_on_c, 13, 57, 0
25, 15840, Note_on_c, 13, 54, 127
25, 15869, Note_on_c, 13, 54, 0
25, 15870, Note_on_c, 13, 50, 127
25, 15899, Note_on_c, 13, 50, 0
25, 15900, Note_on_c, 13, 52, 127
25, 15929, Note_on_c, 13, 52, 0
25, 15930, Note_on_c, 13, 54, 127
25, 15959, Note_on_c, 13, 54, 0
25, 15960, Note_on_c, 13, 55, 127
25, 15989, Note_on_c, 13, 55, 0
25, 15990, Note_on_c, 13, 57, 127
25, 16019, Note_on_c, 13, 57, 0
25, 16020, Note_on_c, 13, 59, 127
25, 16049, Note_on_c, 13, 59, 0
25, 16050, Note_on_c, 13, 61, 127
25, 16079, Note_on_c, 13, 61, 0
25, 16080, Note_on_c, 13, 62, 127
25, 16139, Note_on_c, 13, 62, 0
25, 16140, Note_on_c, 13, 62, 127
25, 16169, Note_on_c, 13, 62, 0
25, 16170, Note_on_c, 13, 61, 127
25, 16199, Note_on_c, 13, 61, 0
25, 16200, Note_on_c, 13, 59, 127
25, 16229, Note_on_c, 13, 59, 0
25, 16230, Note_on_c, 13, 47, 127
25, 16259, Note_on_c, 13, 47, 0
25, 16260, Note_on_c, 13, 49, 127
25, 16289, Note_on_c, 13, 49, 0
25, 16290, Note_on_c, 13, 50, 127
25, 16319, Note_on_c, 13, 50, 0
25, 16320, Note_on_c, 13, 52, 127
25, 16349, Note_on_c, 13, 52, 0
25, 16350, Note_on_c, 13, 54, 127
25, 16379, Note_on_c, 13, 54, 0
25, 16380, Note_on_c, 13, 55, 127
25, 16409, Note_on_c, 13, 55, 0
25, 16410, Note_on_c, 13, 57, 127
25, 16439, Note_on_c, 13, 57, 0
25, 16440, Note_on_c, 13, 59, 127
25, 16499, Note_on_c, 13, 59, 0
25, 16500, Note_on_c, 13, 59, 127
25, 16529, Note_on_c, 13, 59, 0
25, 16530, Note_on_c, 13, 57, 127
25, 16559, Note_on_c, 13, 57, 0
25, 16560, Note_on_c, 13, 56, 127
25, 16589, Note_on_c, 13, 56, 0
25, 16590, Note_on_c, 13, 54, 127
25, 16619, Note_on_c, 13, 54, 0
25, 16620, Note_on_c, 13, 56, 127
25, 16649, Note_on_c, 13, 56, 0
25, 16650, Note_on_c, 13, 54, 127
25, 16679, Note_on_c, 13, 54, 0
25, 16680, Note_on_c, 13, 52, 127
25, 16739, Note_on_c, 13, 52, 0
25, 16740, Note_on_c, 13, 52, 127
25, 16769, Note_on_c, 13, 52, 0
25, 16770, Note_on_c, 13, 50, 127
25, 16799, Note_on_c, 13, 50, 0
25, 16800, Note_on_c, 13, 49, 127
25, 16859, Note_on_c, 13, 49, 0
25, 16860, Note_on_c, 13, 47, 127
25, 16919, Note_on_c, 13, 47, 0
25, 16920, Note_on_c, 13, 45, 127
25, 16979, Note_on_c, 13, 45, 0
25, 16980, Note_on_c, 13, 57, 127
25, 17009, Note_on_c, 13, 57, 0
25, 17010, Note_on_c, 13, 56, 127
25, 17039, Note_on_c, 13, 56, 0
25, 17040, Note_on_c, 13, 57, 127
25, 17099, Note_on_c, 13, 57, 0
25, 17100, Note_on_c, 13, 49, 127
25, 17129, Note_on_c, 13, 49, 0
25, 17130, Note_on_c, 13, 50, 127
25, 17159, Note_on_c, 13, 50, 0
25, 17160, Note_on_c, 13, 52, 127
25, 17219, Note_on_c, 13, 52, 0
25, 17220, Note_on_c, 13, 52, 127
25, 17279, Note_on_c, 13, 52, 0
25, 17280, Note_on_c, 13, 45, 127
25, 17399, Note_on_c, 13, 45, 0
25, 21180, Note_on_c, 13, 57, 127
25, 21239, Note_on_c, 13, 57, 0
25, 21240, Note_on_c, 13, 57, 127
25, 21299, Note_on_c, 13, 57, 0
25, 21300, Note_on_c, 13, 54, 127
25, 21329, Note_on_c, 13, 54, 0
25, 21330, Note_on_c, 13, 54, 127
25, 21359, Note_on_c, 13, 54, 0
25, 21360, Note_on_c, 13, 57, 127
25, 21419, Note_on_c, 13, 57, 0
25, 21420, Note_on_c, 13, 54, 127
25, 21449, Note_on_c, 13, 54, 0
25, 21450, Note_on_c, 13, 54, 127
25, 21479, Note_on_c, 13, 54, 0
25, 21480, Note_on_c, 13, 54, 127
25, 21539, Note_on_c, 13, 54, 0
25, 21540, Note_on_c, 13, 54, 127
25, 21569, Note_on_c, 13, 54, 0
25, 21570, Note_on_c, 13, 54, 127
25, 21599, Note_on_c, 13, 54, 0
25, 21600, Note_on_c, 13, 47, 127
25, 21959, Note_on_c, 13, 47, 0
25, 22260, Note_on_c, 13, 64, 127
25, 22319, Note_on_c, 13, 64, 0
25, 22320, Note_on_c, 13, 64, 127
25, 22379, Note_on_c, 13, 64, 0
25, 22380, Note_on_c, 13, 52, 127
25, 22409, Note_on_c, 13, 52, 0
25, 22410, Note_on_c, 13, 52, 127
25, 22439, Note_on_c, 13, 52, 0
25, 22440, Note_on_c, 13, 55, 127
25, 22499, Note_on_c, 13, 55, 0
25, 22500, Note_on_c, 13, 52, 127
25, 22529, Note_on_c, 13, 52, 0
25, 22530, Note_on_c, 13, 52, 127
25, 22559, Note_on_c, 13, 52, 0
25, 22560, Note_on_c, 13, 55, 127
25, 22619, Note_on_c, 13, 55, 0
25, 22620, Note_on_c, 13, 54, 127
25, 22649, Note_on_c, 13, 54, 0
25, 22650, Note_on_c, 13, 52, 127
25, 22679, Note_on_c, 13, 52, 0
25, 22680, Note_on_c, 13, 45, 127
25, 23039, Note_on_c, 13, 45, 0
25, 23220, Note_on_c, 13, 50, 127
25, 23279, Note_on_c, 13, 50, 0
25, 23280, Note_on_c, 13, 50, 127
25, 23339, Note_on_c, 13, 50, 0
25, 23340, Note_on_c, 13, 52, 127
25, 23369, Note_on_c, 13, 52, 0
25, 23370, Note_on_c, 13, 54, 127
25, 23399, Note_on_c, 13, 54, 0
25, 23400, Note_on_c, 13, 55, 127
25, 23459, Note_on_c, 13, 55, 0
25, 23460, Note_on_c, 13, 49, 127
25, 23519, Note_on_c, 13, 49, 0
25, 23580, Note_on_c, 13, 49, 127
25, 23639, Note_on_c, 13, 49, 0
25, 23640, Note_on_c, 13, 49, 127
25, 23699, Note_on_c, 13, 49, 0
25, 23700, Note_on_c, 13, 50, 127
25, 23729, Note_on_c, 13, 50, 0
25, 23730, Note_on_c, 13, 52, 127
25, 23759, Note_on_c, 13, 52, 0
25, 23760, Note_on_c, 13, 54, 127
25, 23819, Note_on_c, 13, 54, 0
25, 23820, Note_on_c, 13, 47, 127
25, 23879, Note_on_c, 13, 47, 0
25, 23940, Note_on_c, 13, 47, 127
25, 23999, Note_on_c, 13, 47, 0
25, 24000, Note_on_c, 13, 47, 127
25, 24059, Note_on_c, 13, 47, 0
25, 24060, Note_on_c, 13, 49, 127
25, 24089, Note_on_c, 13, 49, 0
25, 24090, Note_on_c, 13, 50, 127
25, 24119, Note_on_c, 13, 50, 0
25, 24120, Note_on_c, 13, 52, 127
25, 24179, Note_on_c, 13, 52, 0
25, 24180, Note_on_c, 13, 45, 127
25, 24239, Note_on_c, 13, 45, 0
25, 24420, Note_on_c, 13, 57, 127
25, 24479, Note_on_c, 13, 57, 0
25, 24480, Note_on_c, 13, 62, 127
25, 24509, Note_on_c, 13, 62, 0
25, 24510, Note_on_c, 13, 57, 127
25, 24539, Note_on_c, 13, 57, 0
25, 24540, Note_on_c, 13, 59, 127
25, 24569, Note_on_c, 13, 59, 0
25, 24570, Note_on_c, 13, 61, 127
25, 24599, Note_on_c, 13, 61, 0
25, 24600, Note_on_c, 13, 62, 127
25, 24629, Note_on_c, 13, 62, 0
25, 24630, Note_on_c, 13, 64, 127
25, 24659, Note_on_c, 13, 64, 0
25, 24660, Note_on_c, 13, 66, 127
25, 24689, Note_on_c, 13, 66, 0
25, 24690, Note_on_c, 13, 64, 127
25, 24719, Note_on_c, 13, 64, 0
25, 24720, Note_on_c, 13, 62, 127
25, 24749, Note_on_c, 13, 62, 0
25, 24750, Note_on_c, 13, 61, 127
25, 24779, Note_on_c, 13, 61, 0
25, 24780, Note_on_c, 13, 59, 127
25, 24809, Note_on_c, 13, 59, 0
25, 24810, Note_on_c, 13, 57, 127
25, 24839, Note_on_c, 13, 57, 0
25, 24840, Note_on_c, 13, 59, 127
25, 24869, Note_on_c, 13, 59, 0
25, 24870, Note_on_c, 13, 60, 127
25, 24899, Note_on_c, 13, 60, 0
25, 24900, Note_on_c, 13, 62, 127
25, 24929, Note_on_c, 13, 62, 0
25, 24930, Note_on_c, 13, 60, 127
25, 24959, Note_on_c, 13, 60, 0
25, 24960, Note_on_c, 13, 59, 127
25, 24989, Note_on_c, 13, 59, 0
25, 24990, Note_on_c, 13, 57, 127
25, 25019, Note_on_c, 13, 57, 0
25, 25020, Note_on_c, 13, 56, 127
25, 25049, Note_on_c, 13, 56, 0
25, 25050, Note_on_c, 13, 54, 127
25, 25079, Note_on_c, 13, 54, 0
25, 25080, Note_on_c, 13, 56, 127
25, 25109, Note_on_c, 13, 56, 0
25, 25110, Note_on_c, 13, 57, 127
25, 25139, Note_on_c, 13, 57, 0
25, 25140, Note_on_c, 13, 59, 127
25, 25169, Note_on_c, 13, 59, 0
25, 25170, Note_on_c, 13, 57, 127
25, 25199, Note_on_c, 13, 57, 0
25, 25200, Note_on_c, 13, 56, 127
25, 25229, Note_on_c, 13, 56, 0
25, 25230, Note_on_c, 13, 54, 127
25, 25259, Note_on_c, 13, 54, 0
25, 25260, Note_on_c, 13, 52, 127
25, 25289, Note_on_c, 13, 52, 0
25, 25290, Note_on_c, 13, 50, 127
25, 25319, Note_on_c, 13, 50, 0
25, 25320, Note_on_c, 13, 49, 127
25, 25349, Note_on_c, 13, 49, 0
25, 25350, Note_on_c, 13, 50, 127
25, 25379, Note_on_c, 13, 50, 0
25, 25380, Note_on_c, 13, 52, 127
25, 25409, Note_on_c, 13, 52, 0
25, 25410, Note_on_c, 13, 54, 127
25, 25439, Note_on_c, 13, 54, 0
25, 25440, Note_on_c, 13, 52, 127
25, 25469, Note_on_c, 13, 52, 0
25, 25470, Note_on_c, 13, 50, 127
25, 25499, Note_on_c, 13, 50, 0
25, 25500, Note_on_c, 13, 49, 127
25, 25529, Note_on_c, 13, 49, 0
25, 25530, Note_on_c, 13, 47, 127
25, 25559, Note_on_c, 13, 47, 0
25, 25560, Note_on_c, 13, 45, 127
25, 25619, Note_on_c, 13, 45, 0
25, 25620, Note_on_c, 13, 47, 127
25, 25649, Note_on_c, 13, 47, 0
25, 25650, Note_on_c, 13, 49, 127
25, 25679, Note_on_c, 13, 49, 0
25, 25680, Note_on_c, 13, 50, 127
25, 25709, Note_on_c, 13, 50, 0
25, 25710, Note_on_c, 13, 52, 127
25, 25739, Note_on_c, 13, 52, 0
25, 25740, Note_on_c, 13, 54, 127
25, 25769, Note_on_c, 13, 54, 0
25, 25770, Note_on_c, 13, 55, 127
25, 25799, Note_on_c, 13, 55, 0
25, 25800, Note_on_c, 13, 57, 127
25, 25859, Note_on_c, 13, 57, 0
25, 25860, Note_on_c, 13, 57, 127
25, 25889, Note_on_c, 13, 57, 0
25, 25890, Note_on_c, 13, 57, 127
25, 25919, Note_on_c, 13, 57, 0
25, 25920, Note_on_c, 13, 57, 127
25, 25949, Note_on_c, 13, 57, 0
25, 25950, Note_on_c, 13, 45, 127
25, 25979, Note_on_c, 13, 45, 0
25, 25980, Note_on_c, 13, 47, 127
25, 26009, Note_on_c, 13, 47, 0
25, 26010, Note_on_c, 13, 49, 127
25, 26039, Note_on_c, 13, 49, 0
25, 26040, Note_on_c, 13, 50, 127
25, 26069, Note_on_c, 13, 50, 0
25, 26070, Note_on_c, 13, 52, 127
25, 26099, Note_on_c, 13, 52, 0
25, 26100, Note_on_c, 13, 54, 127
25, 26129, Note_on_c, 13, 54, 0
25, 26130, Note_on_c, 13, 55, 127
25, 26159, Note_on_c, 13, 55, 0
25, 26160, Note_on_c, 13, 57, 127
25, 26219, Note_on_c, 13, 57, 0
25, 26220, Note_on_c, 13, 57, 127
25, 26249, Note_on_c, 13, 57, 0
25, 26250, Note_on_c, 13, 57, 127
25, 26279, Note_on_c, 13, 57, 0
25, 26280, Note_on_c, 13, 57, 127
25, 26309, Note_on_c, 13, 57, 0
25, 26310, Note_on_c, 13, 45, 127
25, 26339, Note_on_c, 13, 45, 0
25, 26340, Note_on_c, 13, 47, 127
25, 26369, Note_on_c, 13, 47, 0
25, 26370, Note_on_c, 13, 49, 127
25, 26399, Note_on_c, 13, 49, 0
25, 26400, Note_on_c, 13, 50, 127
25, 26429, Note_on_c, 13, 50, 0
25, 26430, Note_on_c, 13, 52, 127
25, 26459, Note_on_c, 13, 52, 0
25, 26460, Note_on_c, 13, 54, 127
25, 26489, Note_on_c, 13, 54, 0
25, 26490, Note_on_c, 13, 55, 127
25, 26519, Note_on_c, 13, 55, 0
25, 26520, Note_on_c, 13, 57, 127
25, 26579, Note_on_c, 13, 57, 0
25, 26580, Note_on_c, 13, 57, 127
25, 26609, Note_on_c, 13, 57, 0
25, 26610, Note_on_c, 13, 55, 127
25, 26639, Note_on_c, 13, 55, 0
25, 26640, Note_on_c, 13, 54, 127
25, 27300, Note_on_c, 13, 54, 0
25, 27300, Note_on_c, 13, 50, 127
25, 27359, Note_on_c, 13, 50, 0
25, 27360, Note_on_c, 13, 55, 127
25, 27419, Note_on_c, 13, 55, 0
25, 27420, Note_on_c, 13, 54, 127
25, 27479, Note_on_c, 13, 54, 0
25, 27480, Note_on_c, 13, 52, 127
25, 27509, Note_on_c, 13, 52, 0
25, 27510, Note_on_c, 13, 50, 127
25, 27539, Note_on_c, 13, 50, 0
25, 27540, Note_on_c, 13, 52, 127
25, 27569, Note_on_c, 13, 52, 0
25, 27570, Note_on_c, 13, 50, 127
25, 27599, Note_on_c, 13, 50, 0
25, 27600, Note_on_c, 13, 49, 127
25, 27629, Note_on_c, 13, 49, 0
25, 27630, Note_on_c, 13, 47, 127
25, 27659, Note_on_c, 13, 47, 0
25, 27660, Note_on_c, 13, 49, 127
25, 27689, Note_on_c, 13, 49, 0
25, 27690, Note_on_c, 13, 47, 127
25, 27719, Note_on_c, 13, 47, 0
25, 27720, Note_on_c, 13, 49, 127
25, 27749, Note_on_c, 13, 49, 0
25, 27750, Note_on_c, 13, 45, 127
25, 27779, Note_on_c, 13, 45, 0
25, 27780, Note_on_c, 13, 47, 127
25, 27809, Note_on_c, 13, 47, 0
25, 27810, Note_on_c, 13, 49, 127
25, 27839, Note_on_c, 13, 49, 0
25, 27840, Note_on_c, 13, 50, 127
25, 27869, Note_on_c, 13, 50, 0
25, 27870, Note_on_c, 13, 52, 127
25, 27899, Note_on_c, 13, 52, 0
25, 27900, Note_on_c, 13, 54, 127
25, 27929, Note_on_c, 13, 54, 0
25, 27930, Note_on_c, 13, 55, 127
25, 27959, Note_on_c, 13, 55, 0
25, 27960, Note_on_c, 13, 57, 127
25, 28019, Note_on_c, 13, 57, 0
25, 28020, Note_on_c, 13, 45, 127
25, 28079, Note_on_c, 13, 45, 0
25, 28080, Note_on_c, 13, 50, 127
25, 28199, Note_on_c, 13, 50, 0
25, 30060, Note_on_c, 13, 50, 127
25, 30119, Note_on_c, 13, 50, 0
25, 30120, Note_on_c, 13, 54, 127
25, 30179, Note_on_c, 13, 54, 0
25, 30180, Note_on_c, 13, 52, 127
25, 30209, Note_on_c, 13, 52, 0
25, 30210, Note_on_c, 13, 50, 127
25, 30239, Note_on_c, 13, 50, 0
25, 30240, Note_on_c, 13, 57, 127
25, 30359, Note_on_c, 13, 57, 0
25, 30780, Note_on_c, 13, 52, 127
25, 30839, Note_on_c, 13, 52, 0
25, 30840, Note_on_c, 13, 55, 127
25, 30899, Note_on_c, 13, 55, 0
25, 30900, Note_on_c, 13, 54, 127
25, 30929, Note_on_c, 13, 54, 0
25, 30930, Note_on_c, 13, 52, 127
25, 30959, Note_on_c, 13, 52, 0
25, 30960, Note_on_c, 13, 58, 127
25, 31079, Note_on_c, 13, 58, 0
25, 31140, Note_on_c, 13, 54, 127
25, 31199, Note_on_c, 13, 54, 0
25, 31200, Note_on_c, 13, 59, 127
25, 31259, Note_on_c, 13, 59, 0
25, 31260, Note_on_c, 13, 61, 127
25, 31289, Note_on_c, 13, 61, 0
25, 31290, Note_on_c, 13, 62, 127
25, 31319, Note_on_c, 13, 62, 0
25, 31320, Note_on_c, 13, 64, 127
25, 31439, Note_on_c, 13, 64, 0
25, 31440, Note_on_c, 13, 52, 127
25, 31499, Note_on_c, 13, 52, 0
25, 31500, Note_on_c, 13, 54, 127
25, 31559, Note_on_c, 13, 54, 0
25, 31560, Note_on_c, 13, 55, 127
25, 31619, Note_on_c, 13, 55, 0
25, 31620, Note_on_c, 13, 54, 127
25, 31649, Note_on_c, 13, 54, 0
25, 31650, Note_on_c, 13, 52, 127
25, 31679, Note_on_c, 13, 52, 0
25, 31680, Note_on_c, 13, 54, 127
25, 31799, Note_on_c, 13, 54, 0
25, 31800, Note_on_c, 13, 42, 127
25, 31859, Note_on_c, 13, 42, 0
25, 32580, Note_on_c, 13, 54, 127
25, 32639, Note_on_c, 13, 54, 0
25, 32640, Note_on_c, 13, 58, 127
25, 32699, Note_on_c, 13, 58, 0
25, 32700, Note_on_c, 13, 56, 127
25, 32729, Note_on_c, 13, 56, 0
25, 32730, Note_on_c, 13, 58, 127
25, 32759, Note_on_c, 13, 58, 0
25, 32760, Note_on_c, 13, 59, 127
25, 32879, Note_on_c, 13, 59, 0
25, 32940, Note_on_c, 13, 59, 127
25, 32999, Note_on_c, 13, 59, 0
25, 33000, Note_on_c, 13, 59, 127
25, 33059, Note_on_c, 13, 59, 0
25, 33060, Note_on_c, 13, 59, 127
25, 33089, Note_on_c, 13, 59, 0
25, 33090, Note_on_c, 13, 59, 127
25, 33119, Note_on_c, 13, 59, 0
25, 33120, Note_on_c, 13, 59, 127
25, 33239, Note_on_c, 13, 59, 0
25, 33240, Note_on_c, 13, 47, 127
25, 33299, Note_on_c, 13, 47, 0
25, 33300, Note_on_c, 13, 47, 127
25, 33359, Note_on_c, 13, 47, 0
25, 33360, Note_on_c, 13, 47, 127
25, 33419, Note_on_c, 13, 47, 0
25, 33420, Note_on_c, 13, 47, 127
25, 33449, Note_on_c, 13, 47, 0
25, 33450, Note_on_c, 13, 47, 127
25, 33479, Note_on_c, 13, 47, 0
25, 33480, Note_on_c, 13, 47, 127
25, 33839, Note_on_c, 13, 47, 0
25, 33840, Note_on_c, 13, 52, 127
25, 33959, Note_on_c, 13, 52, 0
25, 34140, Note_on_c, 13, 52, 127
25, 34199, Note_on_c, 13, 52, 0
25, 34200, Note_on_c, 13, 57, 127
25, 34259, Note_on_c, 13, 57, 0
25, 34260, Note_on_c, 13, 57, 127
25, 34289, Note_on_c, 13, 57, 0
25, 34290, Note_on_c, 13, 57, 127
25, 34319, Note_on_c, 13, 57, 0
25, 34320, Note_on_c, 13, 57, 127
25, 34439, Note_on_c, 13, 57, 0
25, 34860, Note_on_c, 13, 50, 127
25, 34919, Note_on_c, 13, 50, 0
25, 34920, Note_on_c, 13, 55, 127
25, 34979, Note_on_c, 13, 55, 0
25, 34980, Note_on_c, 13, 55, 127
25, 35009, Note_on_c, 13, 55, 0
25, 35010, Note_on_c, 13, 55, 127
25, 35039, Note_on_c, 13, 55, 0
25, 35040, Note_on_c, 13, 55, 127
25, 35159, Note_on_c, 13, 55, 0
25, 35580, Note_on_c, 13, 49, 127
25, 35639, Note_on_c, 13, 49, 0
25, 35640, Note_on_c, 13, 54, 127
25, 35699, Note_on_c, 13, 54, 0
25, 35700, Note_on_c, 13, 54, 127
25, 35729, Note_on_c, 13, 54, 0
25, 35730, Note_on_c, 13, 54, 127
25, 35759, Note_on_c, 13, 54, 0
25, 35760, Note_on_c, 13, 54, 127
25, 35819, Note_on_c, 13, 54, 0
25, 35940, Note_on_c, 13, 54, 127
25, 35999, Note_on_c, 13, 54, 0
25, 36000, Note_on_c, 13, 59, 127
25, 36059, Note_on_c, 13, 59, 0
25, 36060, Note_on_c, 13, 59, 127
25, 36089, Note_on_c, 13, 59, 0
25, 36090, Note_on_c, 13, 57, 127
25, 36119, Note_on_c, 13, 57, 0
25, 36120, Note_on_c, 13, 55, 127
25, 36179, Note_on_c, 13, 55, 0
25, 36180, Note_on_c, 13, 55, 127
25, 36209, Note_on_c, 13, 55, 0
25, 36210, Note_on_c, 13, 54, 127
25, 36239, Note_on_c, 13, 54, 0
25, 36240, Note_on_c, 13, 52, 127
25, 36299, Note_on_c, 13, 52, 0
25, 36300, Note_on_c, 13, 52, 127
25, 36329, Note_on_c, 13, 52, 0
25, 36330, Note_on_c, 13, 49, 127
25, 36359, Note_on_c, 13, 49, 0
25, 36360, Note_on_c, 13, 54, 127
25, 36479, Note_on_c, 13, 54, 0
25, 36480, Note_on_c, 13, 42, 127
25, 36539, Note_on_c, 13, 42, 0
25, 36540, Note_on_c, 13, 54, 127
25, 36599, Note_on_c, 13, 54, 0
25, 36600, Note_on_c, 13, 54, 127
25, 36659, Note_on_c, 13, 54, 0
25, 36660, Note_on_c, 13, 54, 127
25, 36689, Note_on_c, 13, 54, 0
25, 36690, Note_on_c, 13, 54, 127
25, 36719, Note_on_c, 13, 54, 0
25, 36720, Note_on_c, 13, 54, 127
25, 36779, Note_on_c, 13, 54, 0
25, 36780, Note_on_c, 13, 59, 127
25, 36809, Note_on_c, 13, 59, 0
25, 36810, Note_on_c, 13, 58, 127
25, 36839, Note_on_c, 13, 58, 0
25, 36840, Note_on_c, 13, 59, 127
25, 36899, Note_on_c, 13, 59, 0
25, 36900, Note_on_c, 13, 54, 127
25, 36959, Note_on_c, 13, 54, 0
25, 36960, Note_on_c, 13, 54, 127
25, 37019, Note_on_c, 13, 54, 0
25, 37020, Note_on_c, 13, 54, 127
25, 37049, Note_on_c, 13, 54, 0
25, 37050, Note_on_c, 13, 54, 127
25, 37079, Note_on_c, 13, 54, 0
25, 37080, Note_on_c, 13, 54, 127
25, 37199, Note_on_c, 13, 54, 0
25, 37200, Note_on_c, 13, 42, 127
25, 37259, Note_on_c, 13, 42, 0
25, 37260, Note_on_c, 13, 54, 127
25, 37319, Note_on_c, 13, 54, 0
25, 37320, Note_on_c, 13, 58, 127
25, 37379, Note_on_c, 13, 58, 0
25, 37380, Note_on_c, 13, 61, 127
25, 37439, Note_on_c, 13, 61, 0
25, 37440, Note_on_c, 13, 59, 127
25, 37529, Note_on_c, 13, 59, 0
25, 37530, Note_on_c, 13, 57, 127
25, 37559, Note_on_c, 13, 57, 0
25, 37560, Note_on_c, 13, 55, 127
25, 37619, Note_on_c, 13, 55, 0
25, 37620, Note_on_c, 13, 52, 127
25, 37679, Note_on_c, 13, 52, 0
25, 37680, Note_on_c, 13, 54, 127
25, 37739, Note_on_c, 13, 54, 0
25, 37740, Note_on_c, 13, 54, 127
25, 37799, Note_on_c, 13, 54, 0
25, 37800, Note_on_c, 13, 49, 127
25, 38700, Note_on_c, 13, 49, 0
25, 38700, Note_on_c, 13, 49, 127
25, 38759, Note_on_c, 13, 49, 0
25, 38760, Note_on_c, 13, 51, 127
25, 38819, Note_on_c, 13, 51, 0
25, 38820, Note_on_c, 13, 53, 127
25, 38879, Note_on_c, 13, 53, 0
25, 38880, Note_on_c, 13, 54, 127
25, 38939, Note_on_c, 13, 54, 0
25, 38940, Note_on_c, 13, 56, 127
25, 38999, Note_on_c, 13, 56, 0
25, 39000, Note_on_c, 13, 54, 127
25, 39059, Note_on_c, 13, 54, 0
25, 39060, Note_on_c, 13, 52, 127
25, 39119, Note_on_c, 13, 52, 0
25, 39120, Note_on_c, 13, 50, 127
25, 39179, Note_on_c, 13, 50, 0
25, 39180, Note_on_c, 13, 49, 127
25, 39239, Note_on_c, 13, 49, 0
25, 39240, Note_on_c, 13, 47, 127
25, 39419, Note_on_c, 13, 47, 0
25, 39420, Note_on_c, 13, 45, 127
25, 39449, Note_on_c, 13, 45, 0
25, 39450, Note_on_c, 13, 47, 127
25, 39479, Note_on_c, 13, 47, 0
25, 39480, Note_on_c, 13, 49, 127
25, 39539, Note_on_c, 13, 49, 0
25, 39540, Note_on_c, 13, 49, 127
25, 39599, Note_on_c, 13, 49, 0
25, 39600, Note_on_c, 13, 42, 127
25, 39959, Note_on_c, 13, 42, 0
25, 49980, Note_on_c, 13, 57, 127
25, 50039, Note_on_c, 13, 57, 0
25, 50040, Note_on_c, 13, 62, 127
25, 50099, Note_on_c, 13, 62, 0
25, 50100, Note_on_c, 13, 50, 127
25, 50159, Note_on_c, 13, 50, 0
25, 50340, Note_on_c, 13, 57, 127
25, 50399, Note_on_c, 13, 57, 0
25, 50400, Note_on_c, 13, 59, 127
25, 50459, Note_on_c, 13, 59, 0
25, 50460, Note_on_c, 13, 47, 127
25, 50519, Note_on_c, 13, 47, 0
25, 50700, Note_on_c, 13, 50, 127
25, 50759, Note_on_c, 13, 50, 0
25, 50760, Note_on_c, 13, 54, 127
25, 50819, Note_on_c, 13, 54, 0
25, 50820, Note_on_c, 13, 42, 127
25, 50879, Note_on_c, 13, 42, 0
25, 51060, Note_on_c, 13, 54, 127
25, 51119, Note_on_c, 13, 54, 0
25, 51120, Note_on_c, 13, 55, 127
25, 51149, Note_on_c, 13, 55, 0
25, 51150, Note_on_c, 13, 50, 127
25, 51179, Note_on_c, 13, 50, 0
25, 51180, Note_on_c, 13, 52, 127
25, 51209, Note_on_c, 13, 52, 0
25, 51210, Note_on_c, 13, 54, 127
25, 51239, Note_on_c, 13, 54, 0
25, 51240, Note_on_c, 13, 55, 127
25, 51269, Note_on_c, 13, 55, 0
25, 51270, Note_on_c, 13, 57, 127
25, 51299, Note_on_c, 13, 57, 0
25, 51300, Note_on_c, 13, 59, 127
25, 51329, Note_on_c, 13, 59, 0
25, 51330, Note_on_c, 13, 61, 127
25, 51359, Note_on_c, 13, 61, 0
25, 51360, Note_on_c, 13, 62, 127
25, 51389, Note_on_c, 13, 62, 0
25, 51390, Note_on_c, 13, 61, 127
25, 51419, Note_on_c, 13, 61, 0
25, 51420, Note_on_c, 13, 62, 127
25, 51449, Note_on_c, 13, 62, 0
25, 51450, Note_on_c, 13, 61, 127
25, 51479, Note_on_c, 13, 61, 0
25, 51480, Note_on_c, 13, 62, 127
25, 51539, Note_on_c, 13, 62, 0
25, 51540, Note_on_c, 13, 50, 127
25, 51599, Note_on_c, 13, 50, 0
25, 51660, Note_on_c, 13, 50, 127
25, 51719, Note_on_c, 13, 50, 0
25, 51720, Note_on_c, 13, 57, 127
25, 51779, Note_on_c, 13, 57, 0
25, 51780, Note_on_c, 13, 57, 127
25, 51809, Note_on_c, 13, 57, 0
25, 51810, Note_on_c, 13, 57, 127
25, 51839, Note_on_c, 13, 57, 0
25, 51840, Note_on_c, 13, 45, 127
25, 51959, Note_on_c, 13, 45, 0
25, 54300, Note_on_c, 13, 57, 127
25, 54359, Note_on_c, 13, 57, 0
25, 54360, Note_on_c, 13, 62, 127
25, 54419, Note_on_c, 13, 62, 0
25, 54420, Note_on_c, 13, 50, 127
25, 54479, Note_on_c, 13, 50, 0
25, 54660, Note_on_c, 13, 62, 127
25, 54719, Note_on_c, 13, 62, 0
25, 54720, Note_on_c, 13, 62, 127
25, 54779, Note_on_c, 13, 62, 0
25, 54780, Note_on_c, 13, 50, 127
25, 54839, Note_on_c, 13, 50, 0
25, 55020, Note_on_c, 13, 62, 127
25, 55079, Note_on_c, 13, 62, 0
25, 55080, Note_on_c, 13, 62, 127
25, 55139, Note_on_c, 13, 62, 0
25, 55140, Note_on_c, 13, 50, 127
25, 55199, Note_on_c, 13, 50, 0
25, 55260, Note_on_c, 13, 62, 127
25, 55319, Note_on_c, 13, 62, 0
25, 55320, Note_on_c, 13, 62, 127
25, 55379, Note_on_c, 13, 62, 0
25, 55380, Note_on_c, 13, 62, 127
25, 55409, Note_on_c, 13, 62, 0
25, 55410, Note_on_c, 13, 62, 127
25, 55439, Note_on_c, 13, 62, 0
25, 55440, Note_on_c, 13, 50, 127
25, 55559, Note_on_c, 13, 50, 0
25, 55740, Note_on_c, 13, 57, 127
25, 55799, Note_on_c, 13, 57, 0
25, 55800, Note_on_c, 13, 54, 127
25, 55829, Note_on_c, 13, 54, 0
25, 55830, Note_on_c, 13, 50, 127
25, 55859, Note_on_c, 13, 50, 0
25, 55860, Note_on_c, 13, 52, 127
25, 55889, Note_on_c, 13, 52, 0
25, 55890, Note_on_c, 13, 54, 127
25, 55919, Note_on_c, 13, 54, 0
25, 55920, Note_on_c, 13, 55, 127
25, 55949, Note_on_c, 13, 55, 0
25, 55950, Note_on_c, 13, 57, 127
25, 55979, Note_on_c, 13, 57, 0
25, 55980, Note_on_c, 13, 59, 127
25, 56009, Note_on_c, 13, 59, 0
25, 56010, Note_on_c, 13, 61, 127
25, 56039, Note_on_c, 13, 61, 0
25, 56040, Note_on_c, 13, 62, 127
25, 56099, Note_on_c, 13, 62, 0
25, 56100, Note_on_c, 13, 62, 127
25, 56129, Note_on_c, 13, 62, 0
25, 56130, Note_on_c, 13, 61, 127
25, 56159, Note_on_c, 13, 61, 0
25, 56160, Note_on_c, 13, 59, 127
25, 56189, Note_on_c, 13, 59, 0
25, 56190, Note_on_c, 13, 47, 127
25, 56219, Note_on_c, 13, 47, 0
25, 56220, Note_on_c, 13, 49, 127
25, 56249, Note_on_c, 13, 49, 0
25, 56250, Note_on_c, 13, 50, 127
25, 56279, Note_on_c, 13, 50, 0
25, 56280, Note_on_c, 13, 52, 127
25, 56309, Note_on_c, 13, 52, 0
25, 56310, Note_on_c, 13, 54, 127
25, 56339, Note_on_c, 13, 54, 0
25, 56340, Note_on_c, 13, 55, 127
25, 56369, Note_on_c, 13, 55, 0
25, 56370, Note_on_c, 13, 57, 127
25, 56399, Note_on_c, 13, 57, 0
25, 56400, Note_on_c, 13, 59, 127
25, 56459, Note_on_c, 13, 59, 0
25, 56460, Note_on_c, 13, 59, 127
25, 56489, Note_on_c, 13, 59, 0
25, 56490, Note_on_c, 13, 57, 127
25, 56519, Note_on_c, 13, 57, 0
25, 56520, Note_on_c, 13, 56, 127
25, 56549, Note_on_c, 13, 56, 0
25, 56550, Note_on_c, 13, 54, 127
25, 56579, Note_on_c, 13, 54, 0
25, 56580, Note_on_c, 13, 56, 127
25, 56609, Note_on_c, 13, 56, 0
25, 56610, Note_on_c, 13, 54, 127
25, 56639, Note_on_c, 13, 54, 0
25, 56640, Note_on_c, 13, 52, 127
25, 56699, Note_on_c, 13, 52, 0
25, 56700, Note_on_c, 13, 52, 127
25, 56729, Note_on_c, 13, 52, 0
25, 56730, Note_on_c, 13, 50, 127
25, 56759, Note_on_c, 13, 50, 0
25, 56760, Note_on_c, 13, 49, 127
25, 56819, Note_on_c, 13, 49, 0
25, 56820, Note_on_c, 13, 47, 127
25, 56879, Note_on_c, 13, 47, 0
25, 56880, Note_on_c, 13, 45, 127
25, 56939, Note_on_c, 13, 45, 0
25, 56940, Note_on_c, 13, 57, 127
25, 56969, Note_on_c, 13, 57, 0
25, 56970, Note_on_c, 13, 56, 127
25, 56999, Note_on_c, 13, 56, 0
25, 57000, Note_on_c, 13, 57, 127
25, 57059, Note_on_c, 13, 57, 0
25, 57060, Note_on_c, 13, 49, 127
25, 57089, Note_on_c, 13, 49, 0
25, 57090, Note_on_c, 13, 50, 127
25, 57119, Note_on_c, 13, 50, 0
25, 57120, Note_on_c, 13, 52, 127
25, 57179, Note_on_c, 13, 52, 0
25, 57180, Note_on_c, 13, 52, 127
25, 57239, Note_on_c, 13, 52, 0
25, 57240, Note_on_c, 13, 45, 127
25, 57359, Note_on_c, 13, 45, 0
25, 61140, Note_on_c, 13, 57, 127
25, 61199, Note_on_c, 13, 57, 0
25, 61200, Note_on_c, 13, 57, 127
25, 61259, Note_on_c, 13, 57, 0
25, 61260, Note_on_c, 13, 54, 127
25, 61289, Note_on_c, 13, 54, 0
25, 61290, Note_on_c, 13, 54, 127
25, 61319, Note_on_c, 13, 54, 0
25, 61320, Note_on_c, 13, 57, 127
25, 61379, Note_on_c, 13, 57, 0
25, 61380, Note_on_c, 13, 54, 127
25, 61409, Note_on_c, 13, 54, 0
25, 61410, Note_on_c, 13, 54, 127
25, 61439, Note_on_c, 13, 54, 0
25, 61440, Note_on_c, 13, 54, 127
25, 61499, Note_on_c, 13, 54, 0
25, 61500, Note_on_c, 13, 54, 127
25, 61529, Note_on_c, 13, 54, 0
25, 61530, Note_on_c, 13, 54, 127
25, 61559, Note_on_c, 13, 54, 0
25, 61560, Note_on_c, 13, 47, 127
25, 61919, Note_on_c, 13, 47, 0
25, 62220, Note_on_c, 13, 64, 127
25, 62279, Note_on_c, 13, 64, 0
25, 62280, Note_on_c, 13, 64, 127
25, 62339, Note_on_c, 13, 64, 0
25, 62340, Note_on_c, 13, 52, 127
25, 62369, Note_on_c, 13, 52, 0
25, 62370, Note_on_c, 13, 52, 127
25, 62399, Note_on_c, 13, 52, 0
25, 62400, Note_on_c, 13, 55, 127
25, 62459, Note_on_c, 13, 55, 0
25, 62460, Note_on_c, 13, 52, 127
25, 62489, Note_on_c, 13, 52, 0
25, 62490, Note_on_c, 13, 52, 127
25, 62519, Note_on_c, 13, 52, 0
25, 62520, Note_on_c, 13, 55, 127
25, 62579, Note_on_c, 13, 55, 0
25, 62580, Note_on_c, 13, 54, 127
25, 62609, Note_on_c, 13, 54, 0
25, 62610, Note_on_c, 13, 52, 127
25, 62639, Note_on_c, 13, 52, 0
25, 62640, Note_on_c, 13, 45, 127
25, 62999, Note_on_c, 13, 45, 0
25, 63180, Note_on_c, 13, 50, 127
25, 63239, Note_on_c, 13, 50, 0
25, 63240, Note_on_c, 13, 50, 127
25, 63299, Note_on_c, 13, 50, 0
25, 63300, Note_on_c, 13, 52, 127
25, 63329, Note_on_c, 13, 52, 0
25, 63330, Note_on_c, 13, 54, 127
25, 63359, Note_on_c, 13, 54, 0
25, 63360, Note_on_c, 13, 55, 127
25, 63419, Note_on_c, 13, 55, 0
25, 63420, Note_on_c, 13, 49, 127
25, 63479, Note_on_c, 13, 49, 0
25, 63540, Note_on_c, 13, 49, 127
25, 63599, Note_on_c, 13, 49, 0
25, 63600, Note_on_c, 13, 49, 127
25, 63659, Note_on_c, 13, 49, 0
25, 63660, Note_on_c, 13, 50, 127
25, 63689, Note_on_c, 13, 50, 0
25, 63690, Note_on_c, 13, 52, 127
25, 63719, Note_on_c, 13, 52, 0
25, 63720, Note_on_c, 13, 54, 127
25, 63779, Note_on_c, 13, 54, 0
25, 63780, Note_on_c, 13, 47, 127
25, 63839, Note_on_c, 13, 47, 0
25, 63900, Note_on_c, 13, 47, 127
25, 63959, Note_on_c, 13, 47, 0
25, 63960, Note_on_c, 13, 47, 127
25, 64019, Note_on_c, 13, 47, 0
25, 64020, Note_on_c, 13, 49, 127
25, 64049, Note_on_c, 13, 49, 0
25, 64050, Note_on_c, 13, 50, 127
25, 64079, Note_on_c, 13, 50, 0
25, 64080, Note_on_c, 13, 52, 127
25, 64139, Note_on_c, 13, 52, 0
25, 64140, Note_on_c, 13, 45, 127
25, 64199, Note_on_c, 13, 45, 0
25, 64380, Note_on_c, 13, 57, 127
25, 64439, Note_on_c, 13, 57, 0
25, 64440, Note_on_c, 13, 62, 127
25, 64469, Note_on_c, 13, 62, 0
25, 64470, Note_on_c, 13, 57, 127
25, 64499, Note_on_c, 13, 57, 0
25, 64500, Note_on_c, 13, 59, 127
25, 64529, Note_on_c, 13, 59, 0
25, 64530, Note_on_c, 13, 61, 127
25, 64559, Note_on_c, 13, 61, 0
25, 64560, Note_on_c, 13, 62, 127
25, 64589, Note_on_c, 13, 62, 0
25, 64590, Note_on_c, 13, 64, 127
25, 64619, Note_on_c, 13, 64, 0
25, 64620, Note_on_c, 13, 66, 127
25, 64649, Note_on_c, 13, 66, 0
25, 64650, Note_on_c, 13, 64, 127
25, 64679, Note_on_c, 13, 64, 0
25, 64680, Note_on_c, 13, 62, 127
25, 64709, Note_on_c, 13, 62, 0
25, 64710, Note_on_c, 13, 61, 127
25, 64739, Note_on_c, 13, 61, 0
25, 64740, Note_on_c, 13, 59, 127
25, 64769, Note_on_c, 13, 59, 0
25, 64770, Note_on_c, 13, 57, 127
25, 64799, Note_on_c, 13, 57, 0
25, 64800, Note_on_c, 13, 59, 127
25, 64829, Note_on_c, 13, 59, 0
25, 64830, Note_on_c, 13, 60, 127
25, 64859, Note_on_c, 13, 60, 0
25, 64860, Note_on_c, 13, 62, 127
25, 64889, Note_on_c, 13, 62, 0
25, 64890, Note_on_c, 13, 60, 127
25, 64919, Note_on_c, 13, 60, 0
25, 64920, Note_on_c, 13, 59, 127
25, 64949, Note_on_c, 13, 59, 0
25, 64950, Note_on_c, 13, 57, 127
25, 64979, Note_on_c, 13, 57, 0
25, 64980, Note_on_c, 13, 56, 127
25, 65009, Note_on_c, 13, 56, 0
25, 65010, Note_on_c, 13, 54, 127
25, 65039, Note_on_c, 13, 54, 0
25, 65040, Note_on_c, 13, 56, 127
25, 65069, Note_on_c, 13, 56, 0
25, 65070, Note_on_c, 13, 57, 127
25, 65099, Note_on_c, 13, 57, 0
25, 65100, Note_on_c, 13, 59, 127
25, 65129, Note_on_c, 13, 59, 0
25, 65130, Note_on_c, 13, 57, 127
25, 65159, Note_on_c, 13, 57, 0
25, 65160, Note_on_c, 13, 56, 127
25, 65189, Note_on_c, 13, 56, 0
25, 65190, Note_on_c, 13, 54, 127
25, 65219, Note_on_c, 13, 54, 0
25, 65220, Note_on_c, 13, 52, 127
25, 65249, Note_on_c, 13, 52, 0
25, 65250, Note_on_c, 13, 50, 127
25, 65279, Note_on_c, 13, 50, 0
25, 65280, Note_on_c, 13, 49, 127
25, 65309, Note_on_c, 13, 49, 0
25, 65310, Note_on_c, 13, 50, 127
25, 65339, Note_on_c, 13, 50, 0
25, 65340, Note_on_c, 13, 52, 127
25, 65369, Note_on_c, 13, 52, 0
25, 65370, Note_on_c, 13, 54, 127
25, 65399, Note_on_c, 13, 54, 0
25, 65400, Note_on_c, 13, 52, 127
25, 65429, Note_on_c, 13, 52, 0
25, 65430, Note_on_c, 13, 50, 127
25, 65459, Note_on_c, 13, 50, 0
25, 65460, Note_on_c, 13, 49, 127
25, 65489, Note_on_c, 13, 49, 0
25, 65490, Note_on_c, 13, 47, 127
25, 65519, Note_on_c, 13, 47, 0
25, 65520, Note_on_c, 13, 45, 127
25, 65579, Note_on_c, 13, 45, 0
25, 65580, Note_on_c, 13, 47, 127
25, 65609, Note_on_c, 13, 47, 0
25, 65610, Note_on_c, 13, 49, 127
25, 65639, Note_on_c, 13, 49, 0
25, 65640, Note_on_c, 13, 50, 127
25, 65669, Note_on_c, 13, 50, 0
25, 65670, Note_on_c, 13, 52, 127
25, 65699, Note_on_c, 13, 52, 0
25, 65700, Note_on_c, 13, 54, 127
25, 65729, Note_on_c, 13, 54, 0
25, 65730, Note_on_c, 13, 55, 127
25, 65759, Note_on_c, 13, 55, 0
25, 65760, Note_on_c, 13, 57, 127
25, 65819, Note_on_c, 13, 57, 0
25, 65820, Note_on_c, 13, 57, 127
25, 65849, Note_on_c, 13, 57, 0
25, 65850, Note_on_c, 13, 57, 127
25, 65879, Note_on_c, 13, 57, 0
25, 65880, Note_on_c, 13, 57, 127
25, 65909, Note_on_c, 13, 57, 0
25, 65910, Note_on_c, 13, 45, 127
25, 65939, Note_on_c, 13, 45, 0
25, 65940, Note_on_c, 13, 47, 127
25, 65969, Note_on_c, 13, 47, 0
25, 65970, Note_on_c, 13, 49, 127
25, 65999, Note_on_c, 13, 49, 0
25, 66000, Note_on_c, 13, 50, 127
25, 66029, Note_on_c, 13, 50, 0
25, 66030, Note_on_c, 13, 52, 127
25, 66059, Note_on_c, 13, 52, 0
25, 66060, Note_on_c, 13, 54, 127
25, 66089, Note_on_c, 13, 54, 0
25, 66090, Note_on_c, 13, 55, 127
25, 66119, Note_on_c, 13, 55, 0
25, 66120, Note_on_c, 13, 57, 127
25, 66179, Note_on_c, 13, 57, 0
25, 66180, Note_on_c, 13, 57, 127
25, 66209, Note_on_c, 13, 57, 0
25, 66210, Note_on_c, 13, 57, 127
25, 66239, Note_on_c, 13, 57, 0
25, 66240, Note_on_c, 13, 57, 127
25, 66269, Note_on_c, 13, 57, 0
25, 66270, Note_on_c, 13, 45, 127
25, 66299, Note_on_c, 13, 45, 0
25, 66300, Note_on_c, 13, 47, 127
25, 66329, Note_on_c, 13, 47, 0
25, 66330, Note_on_c, 13, 49, 127
25, 66359, Note_on_c, 13, 49, 0
25, 66360, Note_on_c, 13, 50, 127
25, 66389, Note_on_c, 13, 50, 0
25, 66390, Note_on_c, 13, 52, 127
25, 66419, Note_on_c, 13, 52, 0
25, 66420, Note_on_c, 13, 54, 127
25, 66449, Note_on_c, 13, 54, 0
25, 66450, Note_on_c, 13, 55, 127
25, 66479, Note_on_c, 13, 55, 0
25, 66480, Note_on_c, 13, 57, 127
25, 66539, Note_on_c, 13, 57, 0
25, 66540, Note_on_c, 13, 57, 127
25, 66569, Note_on_c, 13, 57, 0
25, 66570, Note_on_c, 13, 55, 127
25, 66599, Note_on_c, 13, 55, 0
25, 66600, Note_on_c, 13, 54, 127
25, 67260, Note_on_c, 13, 54, 0
25, 67260, Note_on_c, 13, 50, 127
25, 67319, Note_on_c, 13, 50, 0
25, 67320, Note_on_c, 13, 55, 127
25, 67379, Note_on_c, 13, 55, 0
25, 67380, Note_on_c, 13, 54, 127
25, 67439, Note_on_c, 13, 54, 0
25, 67440, Note_on_c, 13, 52, 127
25, 67469, Note_on_c, 13, 52, 0
25, 67470, Note_on_c, 13, 50, 127
25, 67499, Note_on_c, 13, 50, 0
25, 67500, Note_on_c, 13, 52, 127
25, 67529, Note_on_c, 13, 52, 0
25, 67530, Note_on_c, 13, 50, 127
25, 67559, Note_on_c, 13, 50, 0
25, 67560, Note_on_c, 13, 49, 127
25, 67589, Note_on_c, 13, 49, 0
25, 67590, Note_on_c, 13, 47, 127
25, 67619, Note_on_c, 13, 47, 0
25, 67620, Note_on_c, 13, 49, 127
25, 67649, Note_on_c, 13, 49, 0
25, 67650, Note_on_c, 13, 47, 127
25, 67679, Note_on_c, 13, 47, 0
25, 67680, Note_on_c, 13, 49, 127
25, 67709, Note_on_c, 13, 49, 0
25, 67710, Note_on_c, 13, 45, 127
25, 67739, Note_on_c, 13, 45, 0
25, 67740, Note_on_c, 13, 47, 127
25, 67769, Note_on_c, 13, 47, 0
25, 67770, Note_on_c, 13, 49, 127
25, 67799, Note_on_c, 13, 49, 0
25, 67800, Note_on_c, 13, 50, 127
25, 67829, Note_on_c, 13, 50, 0
25, 67830, Note_on_c, 13, 52, 127
25, 67859, Note_on_c, 13, 52, 0
25, 67860, Note_on_c, 13, 54, 127
25, 67889, Note_on_c, 13, 54, 0
25, 67890, Note_on_c, 13, 55, 127
25, 67919, Note_on_c, 13, 55, 0
25, 67920, Note_on_c, 13, 57, 127
25, 67979, Note_on_c, 13, 57, 0
25, 67980, Note_on_c, 13, 45, 127
25, 68039, Note_on_c, 13, 45, 0
25, 68040, Note_on_c, 13, 50, 127
25, 68159, Note_on_c, 13, 50, 0
25, 331620, Note_on_c, 13, 62, 127
25, 331859, Note_on_c, 13, 62, 0
25, 331860, Note_on_c, 13, 50, 127
25, 332099, Note_on_c, 13, 50, 0
25, 333060, Note_on_c, 13, 62, 127
25, 333299, Note_on_c, 13, 62, 0
25, 333300, Note_on_c, 13, 50, 127
25, 333539, Note_on_c, 13, 50, 0
25, 334500, Note_on_c, 13, 62, 127
25, 334739, Note_on_c, 13, 62, 0
25, 334740, Note_on_c, 13, 50, 127
25, 334979, Note_on_c, 13, 50, 0
25, 334980, Note_on_c, 13, 50, 127
25, 335099, Note_on_c, 13, 50, 0
25, 335100, Note_on_c, 13, 54, 127
25, 335219, Note_on_c, 13, 54, 0
25, 335220, Note_on_c, 13, 54, 127
25, 335339, Note_on_c, 13, 54, 0
25, 335340, Note_on_c, 13, 57, 127
25, 335459, Note_on_c, 13, 57, 0
25, 335460, Note_on_c, 13, 57, 127
25, 335579, Note_on_c, 13, 57, 0
25, 335580, Note_on_c, 13, 62, 127
25, 335699, Note_on_c, 13, 62, 0
25, 335700, Note_on_c, 13, 62, 127
25, 335819, Note_on_c, 13, 62, 0
25, 335820, Note_on_c, 13, 50, 127
25, 335939, Note_on_c, 13, 50, 0
25, 335940, Note_on_c, 13, 62, 127
25, 336059, Note_on_c, 13, 62, 0
25, 336060, Note_on_c, 13, 62, 127
25, 336179, Note_on_c, 13, 62, 0
25, 336180, Note_on_c, 13, 55, 127
25, 336299, Note_on_c, 13, 55, 0
25, 336300, Note_on_c, 13, 55, 127
25, 336419, Note_on_c, 13, 55, 0
25, 336420, Note_on_c, 13, 50, 127
25, 336479, Note_on_c, 13, 50, 0
25, 336480, Note_on_c, 13, 52, 127
25, 336539, Note_on_c, 13, 52, 0
25, 336540, Note_on_c, 13, 54, 127
25, 336599, Note_on_c, 13, 54, 0
25, 336600, Note_on_c, 13, 55, 127
25, 336659, Note_on_c, 13, 55, 0
25, 336660, Note_on_c, 13, 57, 127
25, 336899, Note_on_c, 13, 57, 0
25, 336900, Note_on_c, 13, 57, 127
25, 337139, Note_on_c, 13, 57, 0
25, 337140, Note_on_c, 13, 45, 127
25, 337379, Note_on_c, 13, 45, 0
25, 338340, Note_on_c, 13, 57, 127
25, 338579, Note_on_c, 13, 57, 0
25, 338580, Note_on_c, 13, 45, 127
25, 338819, Note_on_c, 13, 45, 0
25, 339780, Note_on_c, 13, 57, 127
25, 340019, Note_on_c, 13, 57, 0
25, 340020, Note_on_c, 13, 45, 127
25, 340259, Note_on_c, 13, 45, 0
25, 340260, Note_on_c, 13, 45, 127
25, 340379, Note_on_c, 13, 45, 0
25, 340380, Note_on_c, 13, 49, 127
25, 340499, Note_on_c, 13, 49, 0
25, 340500, Note_on_c, 13, 49, 127
25, 340619, Note_on_c, 13, 49, 0
25, 340620, Note_on_c, 13, 52, 127
25, 340739, Note_on_c, 13, 52, 0
25, 340740, Note_on_c, 13, 52, 127
25, 340859, Note_on_c, 13, 52, 0
25, 340860, Note_on_c, 13, 57, 127
25, 340979, Note_on_c, 13, 57, 0
25, 340980, Note_on_c, 13, 57, 127
25, 341099, Note_on_c, 13, 57, 0
25, 341100, Note_on_c, 13, 45, 127
25, 341219, Note_on_c, 13, 45, 0
25, 341220, Note_on_c, 13, 59, 127
25, 341339, Note_on_c, 13, 59, 0
25, 341340, Note_on_c, 13, 57, 127
25, 341399, Note_on_c, 13, 57, 0
25, 341400, Note_on_c, 13, 55, 127
25, 341459, Note_on_c, 13, 55, 0
25, 341460, Note_on_c, 13, 54, 127
25, 341579, Note_on_c, 13, 54, 0
25, 341580, Note_on_c, 13, 55, 127
25, 341699, Note_on_c, 13, 55, 0
25, 341700, Note_on_c, 13, 57, 127
25, 341819, Note_on_c, 13, 57, 0
25, 341820, Note_on_c, 13, 45, 127
25, 341939, Note_on_c, 13, 45, 0
25, 341940, Note_on_c, 13, 50, 127
25, 342179, Note_on_c, 13, 50, 0
25, 342180, Note_on_c, 13, 59, 127
25, 342419, Note_on_c, 13, 59, 0
25, 342420, Note_on_c, 13, 54, 127
25, 342659, Note_on_c, 13, 54, 0
25, 342660, Note_on_c, 13, 55, 127
25, 342779, Note_on_c, 13, 55, 0
25, 342780, Note_on_c, 13, 54, 127
25, 342899, Note_on_c, 13, 54, 0
25, 342900, Note_on_c, 13, 52, 127
25, 343019, Note_on_c, 13, 52, 0
25, 343020, Note_on_c, 13, 54, 127
25, 343139, Note_on_c, 13, 54, 0
25, 343140, Note_on_c, 13, 59, 127
25, 343259, Note_on_c, 13, 59, 0
25, 343260, Note_on_c, 13, 47, 127
25, 343379, Note_on_c, 13, 47, 0
25, 343380, Note_on_c, 13, 59, 127
25, 343499, Note_on_c, 13, 59, 0
25, 343500, Note_on_c, 13, 57, 127
25, 343619, Note_on_c, 13, 57, 0
25, 343620, Note_on_c, 13, 56, 127
25, 343739, Note_on_c, 13, 56, 0
25, 343740, Note_on_c, 13, 54, 127
25, 343859, Note_on_c, 13, 54, 0
25, 343860, Note_on_c, 13, 56, 127
25, 343979, Note_on_c, 13, 56, 0
25, 343980, Note_on_c, 13, 52, 127
25, 344099, Note_on_c, 13, 52, 0
25, 344100, Note_on_c, 13, 57, 127
25, 344339, Note_on_c, 13, 57, 0
25, 344340, Note_on_c, 13, 52, 127
25, 344579, Note_on_c, 13, 52, 0
25, 344820, Note_on_c, 13, 56, 127
25, 344939, Note_on_c, 13, 56, 0
25, 344940, Note_on_c, 13, 52, 127
25, 345059, Note_on_c, 13, 52, 0
25, 345060, Note_on_c, 13, 57, 127
25, 345179, Note_on_c, 13, 57, 0
25, 345180, Note_on_c, 13, 52, 127
25, 345299, Note_on_c, 13, 52, 0
25, 345300, Note_on_c, 13, 56, 127
25, 345419, Note_on_c, 13, 56, 0
25, 345420, Note_on_c, 13, 52, 127
25, 345539, Note_on_c, 13, 52, 0
25, 345540, Note_on_c, 13, 57, 127
25, 345779, Note_on_c, 13, 57, 0
25, 345780, Note_on_c, 13, 52, 127
25, 346019, Note_on_c, 13, 52, 0
25, 346140, Note_on_c, 13, 57, 127
25, 346259, Note_on_c, 13, 57, 0
25, 346260, Note_on_c, 13, 62, 127
25, 346379, Note_on_c, 13, 62, 0
25, 346380, Note_on_c, 13, 61, 127
25, 346499, Note_on_c, 13, 61, 0
25, 346500, Note_on_c, 13, 59, 127
25, 346619, Note_on_c, 13, 59, 0
25, 346620, Note_on_c, 13, 57, 127
25, 346739, Note_on_c, 13, 57, 0
25, 346740, Note_on_c, 13, 56, 127
25, 346859, Note_on_c, 13, 56, 0
25, 346860, Note_on_c, 13, 52, 127
25, 346979, Note_on_c, 13, 52, 0
25, 346980, Note_on_c, 13, 57, 127
25, 347219, Note_on_c, 13, 57, 0
25, 347220, Note_on_c, 13, 52, 127
25, 347459, Note_on_c, 13, 52, 0
25, 347460, Note_on_c, 13, 45, 127
25, 347699, Note_on_c, 13, 45, 0
25, 347940, Note_on_c, 13, 62, 127
25, 348179, Note_on_c, 13, 62, 0
25, 348180, Note_on_c, 13, 50, 127
25, 348419, Note_on_c, 13, 50, 0
25, 349380, Note_on_c, 13, 62, 127
25, 349619, Note_on_c, 13, 62, 0
25, 349620, Note_on_c, 13, 50, 127
25, 349859, Note_on_c, 13, 50, 0
25, 350820, Note_on_c, 13, 62, 127
25, 351059, Note_on_c, 13, 62, 0
25, 351060, Note_on_c, 13, 50, 127
25, 351299, Note_on_c, 13, 50, 0
25, 351300, Note_on_c, 13, 50, 127
25, 351419, Note_on_c, 13, 50, 0
25, 351420, Note_on_c, 13, 54, 127
25, 351539, Note_on_c, 13, 54, 0
25, 351540, Note_on_c, 13, 54, 127
25, 351659, Note_on_c, 13, 54, 0
25, 351660, Note_on_c, 13, 57, 127
25, 351779, Note_on_c, 13, 57, 0
25, 351780, Note_on_c, 13, 57, 127
25, 351899, Note_on_c, 13, 57, 0
25, 351900, Note_on_c, 13, 62, 127
25, 352019, Note_on_c, 13, 62, 0
25, 352020, Note_on_c, 13, 62, 127
25, 352139, Note_on_c, 13, 62, 0
25, 352140, Note_on_c, 13, 50, 127
25, 352259, Note_on_c, 13, 50, 0
25, 352260, Note_on_c, 13, 62, 127
25, 352379, Note_on_c, 13, 62, 0
25, 352380, Note_on_c, 13, 62, 127
25, 352499, Note_on_c, 13, 62, 0
25, 352500, Note_on_c, 13, 55, 127
25, 352619, Note_on_c, 13, 55, 0
25, 352620, Note_on_c, 13, 55, 127
25, 352739, Note_on_c, 13, 55, 0
25, 352740, Note_on_c, 13, 50, 127
25, 352799, Note_on_c, 13, 50, 0
25, 352800, Note_on_c, 13, 52, 127
25, 352859, Note_on_c, 13, 52, 0
25, 352860, Note_on_c, 13, 54, 127
25, 352919, Note_on_c, 13, 54, 0
25, 352920, Note_on_c, 13, 55, 127
25, 352979, Note_on_c, 13, 55, 0
25, 352980, Note_on_c, 13, 57, 127
25, 353219, Note_on_c, 13, 57, 0
25, 353220, Note_on_c, 13, 57, 127
25, 353459, Note_on_c, 13, 57, 0
25, 353460, Note_on_c, 13, 45, 127
25, 353699, Note_on_c, 13, 45, 0
25, 354660, Note_on_c, 13, 57, 127
25, 354899, Note_on_c, 13, 57, 0
25, 354900, Note_on_c, 13, 45, 127
25, 355139, Note_on_c, 13, 45, 0
25, 356100, Note_on_c, 13, 57, 127
25, 356339, Note_on_c, 13, 57, 0
25, 356340, Note_on_c, 13, 45, 127
25, 356579, Note_on_c, 13, 45, 0
25, 356580, Note_on_c, 13, 45, 127
25, 356699, Note_on_c, 13, 45, 0
25, 356700, Note_on_c, 13, 49, 127
25, 356819, Note_on_c, 13, 49, 0
25, 356820, Note_on_c, 13, 49, 127
25, 356939, Note_on_c, 13, 49, 0
25, 356940, Note_on_c, 13, 52, 127
25, 357059, Note_on_c, 13, 52, 0
25, 357060, Note_on_c, 13, 52, 127
25, 357179, Note_on_c, 13, 52, 0
25, 357180, Note_on_c, 13, 57, 127
25, 357299, Note_on_c, 13, 57, 0
25, 357300, Note_on_c, 13, 57, 127
25, 357419, Note_on_c, 13, 57, 0
25, 357420, Note_on_c, 13, 45, 127
25, 357539, Note_on_c, 13, 45, 0
25, 357540, Note_on_c, 13, 59, 127
25, 357659, Note_on_c, 13, 59, 0
25, 357660, Note_on_c, 13, 57, 127
25, 357719, Note_on_c, 13, 57, 0
25, 357720, Note_on_c, 13, 55, 127
25, 357779, Note_on_c, 13, 55, 0
25, 357780, Note_on_c, 13, 54, 127
25, 357899, Note_on_c, 13, 54, 0
25, 357900, Note_on_c, 13, 55, 127
25, 358019, Note_on_c, 13, 55, 0
25, 358020, Note_on_c, 13, 57, 127
25, 358139, Note_on_c, 13, 57, 0
25, 358140, Note_on_c, 13, 45, 127
25, 358259, Note_on_c, 13, 45, 0
25, 358260, Note_on_c, 13, 50, 127
25, 358499, Note_on_c, 13, 50, 0
25, 358500, Note_on_c, 13, 62, 127
25, 358619, Note_on_c, 13, 62, 0
25, 358620, Note_on_c, 13, 61, 127
25, 358739, Note_on_c, 13, 61, 0
25, 358740, Note_on_c, 13, 59, 127
25, 358859, Note_on_c, 13, 59, 0
25, 358860, Note_on_c, 13, 57, 127
25, 358979, Note_on_c, 13, 57, 0
25, 358980, Note_on_c, 13, 56, 127
25, 359099, Note_on_c, 13, 56, 0
25, 359100, Note_on_c, 13, 52, 127
25, 359219, Note_on_c, 13, 52, 0
25, 359220, Note_on_c, 13, 54, 127
25, 359339, Note_on_c, 13, 54, 0
25, 359340, Note_on_c, 13, 56, 127
25, 359459, Note_on_c, 13, 56, 0
25, 359460, Note_on_c, 13, 57, 127
25, 359699, Note_on_c, 13, 57, 0
25, 359700, Note_on_c, 13, 45, 127
25, 359939, Note_on_c, 13, 45, 0
25, 359940, Note_on_c, 13, 59, 127
25, 360179, Note_on_c, 13, 59, 0
25, 360180, Note_on_c, 13, 56, 127
25, 360419, Note_on_c, 13, 56, 0
25, 360420, Note_on_c, 13, 53, 127
25, 360539, Note_on_c, 13, 53, 0
25, 360540, Note_on_c, 13, 54, 127
25, 360599, Note_on_c, 13, 54, 0
25, 360600, Note_on_c, 13, 53, 127
25, 360659, Note_on_c, 13, 53, 0
25, 360660, Note_on_c, 13, 56, 127
25, 360779, Note_on_c, 13, 56, 0
25, 360780, Note_on_c, 13, 54, 127
25, 360839, Note_on_c, 13, 54, 0
25, 360840, Note_on_c, 13, 53, 127
25, 360899, Note_on_c, 13, 53, 0
25, 360900, Note_on_c, 13, 54, 127
25, 361019, Note_on_c, 13, 54, 0
25, 361020, Note_on_c, 13, 49, 127
25, 361139, Note_on_c, 13, 49, 0
25, 361140, Note_on_c, 13, 53, 127
25, 361259, Note_on_c, 13, 53, 0
25, 361260, Note_on_c, 13, 49, 127
25, 361379, Note_on_c, 13, 49, 0
25, 361380, Note_on_c, 13, 54, 127
25, 361499, Note_on_c, 13, 54, 0
25, 361500, Note_on_c, 13, 49, 127
25, 361619, Note_on_c, 13, 49, 0
25, 361620, Note_on_c, 13, 53, 127
25, 361739, Note_on_c, 13, 53, 0
25, 361740, Note_on_c, 13, 49, 127
25, 361859, Note_on_c, 13, 49, 0
25, 361860, Note_on_c, 13, 54, 127
25, 361979, Note_on_c, 13, 54, 0
25, 361980, Note_on_c, 13, 49, 127
25, 362099, Note_on_c, 13, 49, 0
25, 362220, Note_on_c, 13, 49, 127
25, 362339, Note_on_c, 13, 49, 0
25, 362340, Note_on_c, 13, 54, 127
25, 362459, Note_on_c, 13, 54, 0
25, 362700, Note_on_c, 13, 54, 127
25, 362819, Note_on_c, 13, 54, 0
25, 362820, Note_on_c, 13, 59, 127
25, 362939, Note_on_c, 13, 59, 0
25, 362940, Note_on_c, 13, 61, 127
25, 363059, Note_on_c, 13, 61, 0
25, 363060, Note_on_c, 13, 62, 127
25, 363179, Note_on_c, 13, 62, 0
25, 363180, Note_on_c, 13, 59, 127
25, 363299, Note_on_c, 13, 59, 0
25, 363300, Note_on_c, 13, 61, 127
25, 363539, Note_on_c, 13, 61, 0
25, 363540, Note_on_c, 13, 49, 127
25, 363779, Note_on_c, 13, 49, 0
25, 363780, Note_on_c, 13, 54, 127
25, 364019, Note_on_c, 13, 54, 0
25, 374820, Note_on_c, 13, 62, 127
25, 375059, Note_on_c, 13, 62, 0
25, 375060, Note_on_c, 13, 50, 127
25, 375299, Note_on_c, 13, 50, 0
25, 376260, Note_on_c, 13, 62, 127
25, 376499, Note_on_c, 13, 62, 0
25, 376500, Note_on_c, 13, 50, 127
25, 376739, Note_on_c, 13, 50, 0
25, 377700, Note_on_c, 13, 62, 127
25, 377939, Note_on_c, 13, 62, 0
25, 377940, Note_on_c, 13, 50, 127
25, 378179, Note_on_c, 13, 50, 0
25, 378180, Note_on_c, 13, 50, 127
25, 378299, Note_on_c, 13, 50, 0
25, 378300, Note_on_c, 13, 54, 127
25, 378419, Note_on_c, 13, 54, 0
25, 378420, Note_on_c, 13, 54, 127
25, 378539, Note_on_c, 13, 54, 0
25, 378540, Note_on_c, 13, 57, 127
25, 378659, Note_on_c, 13, 57, 0
25, 378660, Note_on_c, 13, 57, 127
25, 378779, Note_on_c, 13, 57, 0
25, 378780, Note_on_c, 13, 62, 127
25, 378899, Note_on_c, 13, 62, 0
25, 378900, Note_on_c, 13, 62, 127
25, 379019, Note_on_c, 13, 62, 0
25, 379020, Note_on_c, 13, 50, 127
25, 379139, Note_on_c, 13, 50, 0
25, 379140, Note_on_c, 13, 62, 127
25, 379259, Note_on_c, 13, 62, 0
25, 379260, Note_on_c, 13, 62, 127
25, 379379, Note_on_c, 13, 62, 0
25, 379380, Note_on_c, 13, 55, 127
25, 379499, Note_on_c, 13, 55, 0
25, 379500, Note_on_c, 13, 55, 127
25, 379619, Note_on_c, 13, 55, 0
25, 379620, Note_on_c, 13, 50, 127
25, 379679, Note_on_c, 13, 50, 0
25, 379680, Note_on_c, 13, 52, 127
25, 379739, Note_on_c, 13, 52, 0
25, 379740, Note_on_c, 13, 54, 127
25, 379799, Note_on_c, 13, 54, 0
25, 379800, Note_on_c, 13, 55, 127
25, 379859, Note_on_c, 13, 55, 0
25, 379860, Note_on_c, 13, 57, 127
25, 380099, Note_on_c, 13, 57, 0
25, 380100, Note_on_c, 13, 57, 127
25, 380339, Note_on_c, 13, 57, 0
25, 380340, Note_on_c, 13, 45, 127
25, 380579, Note_on_c, 13, 45, 0
25, 381540, Note_on_c, 13, 57, 127
25, 381779, Note_on_c, 13, 57, 0
25, 381780, Note_on_c, 13, 45, 127
25, 382019, Note_on_c, 13, 45, 0
25, 382980, Note_on_c, 13, 57, 127
25, 383219, Note_on_c, 13, 57, 0
25, 383220, Note_on_c, 13, 45, 127
25, 383459, Note_on_c, 13, 45, 0
25, 383460, Note_on_c, 13, 45, 127
25, 383579, Note_on_c, 13, 45, 0
25, 383580, Note_on_c, 13, 49, 127
25, 383699, Note_on_c, 13, 49, 0
25, 383700, Note_on_c, 13, 49, 127
25, 383819, Note_on_c, 13, 49, 0
25, 383820, Note_on_c, 13, 52, 127
25, 383939, Note_on_c, 13, 52, 0
25, 383940, Note_on_c, 13, 52, 127
25, 384059, Note_on_c, 13, 52, 0
25, 384060, Note_on_c, 13, 57, 127
25, 384179, Note_on_c, 13, 57, 0
25, 384180, Note_on_c, 13, 57, 127
25, 384299, Note_on_c, 13, 57, 0
25, 384300, Note_on_c, 13, 45, 127
25, 384419, Note_on_c, 13, 45, 0
25, 384420, Note_on_c, 13, 59, 127
25, 384539, Note_on_c, 13, 59, 0
25, 384540, Note_on_c, 13, 57, 127
25, 384599, Note_on_c, 13, 57, 0
25, 384600, Note_on_c, 13, 55, 127
25, 384659, Note_on_c, 13, 55, 0
25, 384660, Note_on_c, 13, 54, 127
25, 384779, Note_on_c, 13, 54, 0
25, 384780, Note_on_c, 13, 55, 127
25, 384899, Note_on_c, 13, 55, 0
25, 384900, Note_on_c, 13, 57, 127
25, 385019, Note_on_c, 13, 57, 0
25, 385020, Note_on_c, 13, 45, 127
25, 385139, Note_on_c, 13, 45, 0
25, 385140, Note_on_c, 13, 50, 127
25, 385379, Note_on_c, 13, 50, 0
25, 385379, End_track
26, 0, Start_track
26, 0, MIDI_port, 0
26, 0, Title_t, "cello"
26, 0, Program_c, 14, 42
26, 0, Note_on_c, 14, 50, 80
26, 60, Note_on_c, 14, 50, 0
26, 60, Note_on_c, 14, 38, 80
26, 120, Note_on_c, 14, 38, 0
26, 120, Note_on_c, 14, 38, 80
26, 180, Note_on_c, 14, 38, 0
26, 180, Note_on_c, 14, 38, 80
26, 240, Note_on_c, 14, 38, 0
26, 240, Note_on_c, 14, 38, 80
26, 300, Note_on_c, 14, 38, 0
26, 300, Note_on_c, 14, 38, 80
26, 360, Note_on_c, 14, 38, 0
26, 360, Note_on_c, 14, 50, 80
26, 420, Note_on_c, 14, 50, 0
26, 420, Note_on_c, 14, 38, 80
26, 480, Note_on_c, 14, 38, 0
26, 480, Note_on_c, 14, 38, 80
26, 540, Note_on_c, 14, 38, 0
26, 540, Note_on_c, 14, 38, 80
26, 600, Note_on_c, 14, 38, 0
26, 600, Note_on_c, 14, 38, 80
26, 660, Note_on_c, 14, 38, 0
26, 660, Note_on_c, 14, 38, 80
26, 720, Note_on_c, 14, 38, 0
26, 720, Note_on_c, 14, 50, 80
26, 780, Note_on_c, 14, 50, 0
26, 780, Note_on_c, 14, 38, 80
26, 840, Note_on_c, 14, 38, 0
26, 840, Note_on_c, 14, 38, 80
26, 900, Note_on_c, 14, 38, 0
26, 900, Note_on_c, 14, 38, 80
26, 960, Note_on_c, 14, 38, 0
26, 960, Note_on_c, 14, 38, 80
26, 1020, Note_on_c, 14, 38, 0
26, 1020, Note_on_c, 14, 38, 80
26, 1080, Note_on_c, 14, 38, 0
26, 1080, Note_on_c, 14, 50, 80
26, 1140, Note_on_c, 14, 50, 0
26, 1140, Note_on_c, 14, 38, 80
26, 1200, Note_on_c, 14, 38, 0
26, 1200, Note_on_c, 14, 38, 80
26, 1260, Note_on_c, 14, 38, 0
26, 1260, Note_on_c, 14, 38, 80
26, 1320, Note_on_c, 14, 38, 0
26, 1320, Note_on_c, 14, 38, 80
26, 1380, Note_on_c, 14, 38, 0
26, 1380, Note_on_c, 14, 38, 80
26, 1440, Note_on_c, 14, 38, 0
26, 1470, Note_on_c, 14, 50, 80
26, 1499, Note_on_c, 14, 50, 0
26, 1500, Note_on_c, 14, 52, 80
26, 1529, Note_on_c, 14, 52, 0
26, 1530, Note_on_c, 14, 54, 80
26, 1559, Note_on_c, 14, 54, 0
26, 1560, Note_on_c, 14, 55, 80
26, 1589, Note_on_c, 14, 55, 0
26, 1590, Note_on_c, 14, 57, 80
26, 1619, Note_on_c, 14, 57, 0
26, 1620, Note_on_c, 14, 59, 80
26, 1649, Note_on_c, 14, 59, 0
26, 1650, Note_on_c, 14, 61, 80
26, 1679, Note_on_c, 14, 61, 0
26, 1680, Note_on_c, 14, 62, 80
26, 1709, Note_on_c, 14, 62, 0
26, 1710, Note_on_c, 14, 61, 80
26, 1739, Note_on_c, 14, 61, 0
26, 1740, Note_on_c, 14, 62, 80
26, 1769, Note_on_c, 14, 62, 0
26, 1770, Note_on_c, 14, 61, 80
26, 1799, Note_on_c, 14, 61, 0
26, 1800, Note_on_c, 14, 59, 80
26, 1829, Note_on_c, 14, 59, 0
26, 1830, Note_on_c, 14, 47, 80
26, 1859, Note_on_c, 14, 47, 0
26, 1860, Note_on_c, 14, 49, 80
26, 1889, Note_on_c, 14, 49, 0
26, 1890, Note_on_c, 14, 50, 80
26, 1919, Note_on_c, 14, 50, 0
26, 1920, Note_on_c, 14, 52, 80
26, 1949, Note_on_c, 14, 52, 0
26, 1950, Note_on_c, 14, 54, 80
26, 1979, Note_on_c, 14, 54, 0
26, 1980, Note_on_c, 14, 55, 80
26, 2009, Note_on_c, 14, 55, 0
26, 2010, Note_on_c, 14, 57, 80
26, 2039, Note_on_c, 14, 57, 0
26, 2040, Note_on_c, 14, 59, 80
26, 2069, Note_on_c, 14, 59, 0
26, 2070, Note_on_c, 14, 57, 80
26, 2099, Note_on_c, 14, 57, 0
26, 2100, Note_on_c, 14, 59, 80
26, 2129, Note_on_c, 14, 59, 0
26, 2130, Note_on_c, 14, 57, 80
26, 2159, Note_on_c, 14, 57, 0
26, 2160, Note_on_c, 14, 56, 80
26, 2189, Note_on_c, 14, 56, 0
26, 2190, Note_on_c, 14, 54, 80
26, 2219, Note_on_c, 14, 54, 0
26, 2220, Note_on_c, 14, 56, 80
26, 2249, Note_on_c, 14, 56, 0
26, 2250, Note_on_c, 14, 54, 80
26, 2279, Note_on_c, 14, 54, 0
26, 2280, Note_on_c, 14, 52, 80
26, 2309, Note_on_c, 14, 52, 0
26, 2310, Note_on_c, 14, 50, 80
26, 2339, Note_on_c, 14, 50, 0
26, 2340, Note_on_c, 14, 52, 80
26, 2369, Note_on_c, 14, 52, 0
26, 2370, Note_on_c, 14, 50, 80
26, 2399, Note_on_c, 14, 50, 0
26, 2400, Note_on_c, 14, 49, 80
26, 2429, Note_on_c, 14, 49, 0
26, 2430, Note_on_c, 14, 47, 80
26, 2459, Note_on_c, 14, 47, 0
26, 2460, Note_on_c, 14, 49, 80
26, 2489, Note_on_c, 14, 49, 0
26, 2490, Note_on_c, 14, 47, 80
26, 2519, Note_on_c, 14, 47, 0
26, 2520, Note_on_c, 14, 45, 80
26, 2549, Note_on_c, 14, 45, 0
26, 2550, Note_on_c, 14, 40, 80
26, 2579, Note_on_c, 14, 40, 0
26, 2580, Note_on_c, 14, 42, 80
26, 2609, Note_on_c, 14, 42, 0
26, 2610, Note_on_c, 14, 44, 80
26, 2639, Note_on_c, 14, 44, 0
26, 2640, Note_on_c, 14, 45, 80
26, 2669, Note_on_c, 14, 45, 0
26, 2670, Note_on_c, 14, 47, 80
26, 2699, Note_on_c, 14, 47, 0
26, 2700, Note_on_c, 14, 49, 80
26, 2729, Note_on_c, 14, 49, 0
26, 2730, Note_on_c, 14, 50, 80
26, 2759, Note_on_c, 14, 50, 0
26, 2760, Note_on_c, 14, 52, 80
26, 2789, Note_on_c, 14, 52, 0
26, 2790, Note_on_c, 14, 50, 80
26, 2819, Note_on_c, 14, 50, 0
26, 2820, Note_on_c, 14, 52, 80
26, 2849, Note_on_c, 14, 52, 0
26, 2850, Note_on_c, 14, 40, 80
26, 2879, Note_on_c, 14, 40, 0
26, 2880, Note_on_c, 14, 45, 80
26, 2999, Note_on_c, 14, 45, 0
26, 3630, Note_on_c, 14, 59, 80
26, 3659, Note_on_c, 14, 59, 0
26, 3660, Note_on_c, 14, 57, 80
26, 3689, Note_on_c, 14, 57, 0
26, 3690, Note_on_c, 14, 55, 80
26, 3719, Note_on_c, 14, 55, 0
26, 3720, Note_on_c, 14, 54, 80
26, 3749, Note_on_c, 14, 54, 0
26, 3750, Note_on_c, 14, 52, 80
26, 3779, Note_on_c, 14, 52, 0
26, 3780, Note_on_c, 14, 51, 80
26, 3809, Note_on_c, 14, 51, 0
26, 3810, Note_on_c, 14, 49, 80
26, 3839, Note_on_c, 14, 49, 0
26, 3840, Note_on_c, 14, 47, 80
26, 3869, Note_on_c, 14, 47, 0
26, 3870, Note_on_c, 14, 45, 80
26, 3899, Note_on_c, 14, 45, 0
26, 3900, Note_on_c, 14, 43, 80
26, 3929, Note_on_c, 14, 43, 0
26, 3930, Note_on_c, 14, 42, 80
26, 3959, Note_on_c, 14, 42, 0
26, 3960, Note_on_c, 14, 40, 80
26, 4079, Note_on_c, 14, 40, 0
26, 4710, Note_on_c, 14, 57, 80
26, 4739, Note_on_c, 14, 57, 0
26, 4740, Note_on_c, 14, 55, 80
26, 4769, Note_on_c, 14, 55, 0
26, 4770, Note_on_c, 14, 54, 80
26, 4799, Note_on_c, 14, 54, 0
26, 4800, Note_on_c, 14, 52, 80
26, 4829, Note_on_c, 14, 52, 0
26, 4830, Note_on_c, 14, 50, 80
26, 4859, Note_on_c, 14, 50, 0
26, 4860, Note_on_c, 14, 49, 80
26, 4889, Note_on_c, 14, 49, 0
26, 4890, Note_on_c, 14, 47, 80
26, 4919, Note_on_c, 14, 47, 0
26, 4920, Note_on_c, 14, 45, 80
26, 4949, Note_on_c, 14, 45, 0
26, 4950, Note_on_c, 14, 43, 80
26, 4979, Note_on_c, 14, 43, 0
26, 4980, Note_on_c, 14, 42, 80
26, 5009, Note_on_c, 14, 42, 0
26, 5010, Note_on_c, 14, 40, 80
26, 5039, Note_on_c, 14, 40, 0
26, 5040, Note_on_c, 14, 38, 80
26, 5099, Note_on_c, 14, 38, 0
26, 5100, Note_on_c, 14, 50, 80
26, 5159, Note_on_c, 14, 50, 0
26, 5160, Note_on_c, 14, 50, 80
26, 5219, Note_on_c, 14, 50, 0
26, 5220, Note_on_c, 14, 50, 80
26, 5279, Note_on_c, 14, 50, 0
26, 5280, Note_on_c, 14, 50, 80
26, 5339, Note_on_c, 14, 50, 0
26, 5340, Note_on_c, 14, 52, 80
26, 5369, Note_on_c, 14, 52, 0
26, 5370, Note_on_c, 14, 54, 80
26, 5399, Note_on_c, 14, 54, 0
26, 5400, Note_on_c, 14, 55, 80
26, 5459, Note_on_c, 14, 55, 0
26, 5460, Note_on_c, 14, 49, 80
26, 5519, Note_on_c, 14, 49, 0
26, 5520, Note_on_c, 14, 49, 80
26, 5579, Note_on_c, 14, 49, 0
26, 5580, Note_on_c, 14, 49, 80
26, 5639, Note_on_c, 14, 49, 0
26, 5640, Note_on_c, 14, 49, 80
26, 5699, Note_on_c, 14, 49, 0
26, 5700, Note_on_c, 14, 50, 80
26, 5729, Note_on_c, 14, 50, 0
26, 5730, Note_on_c, 14, 52, 80
26, 5759, Note_on_c, 14, 52, 0
26, 5760, Note_on_c, 14, 54, 80
26, 5819, Note_on_c, 14, 54, 0
26, 5820, Note_on_c, 14, 47, 80
26, 5879, Note_on_c, 14, 47, 0
26, 5880, Note_on_c, 14, 47, 80
26, 5939, Note_on_c, 14, 47, 0
26, 5940, Note_on_c, 14, 47, 80
26, 5999, Note_on_c, 14, 47, 0
26, 6000, Note_on_c, 14, 47, 80
26, 6059, Note_on_c, 14, 47, 0
26, 6060, Note_on_c, 14, 49, 80
26, 6089, Note_on_c, 14, 49, 0
26, 6090, Note_on_c, 14, 50, 80
26, 6119, Note_on_c, 14, 50, 0
26, 6120, Note_on_c, 14, 52, 80
26, 6179, Note_on_c, 14, 52, 0
26, 6180, Note_on_c, 14, 45, 80
26, 6239, Note_on_c, 14, 45, 0
26, 6240, Note_on_c, 14, 45, 80
26, 6299, Note_on_c, 14, 45, 0
26, 6300, Note_on_c, 14, 45, 80
26, 6359, Note_on_c, 14, 45, 0
26, 6360, Note_on_c, 14, 45, 80
26, 6419, Note_on_c, 14, 45, 0
26, 6420, Note_on_c, 14, 47, 80
26, 6449, Note_on_c, 14, 47, 0
26, 6450, Note_on_c, 14, 49, 80
26, 6479, Note_on_c, 14, 49, 0
26, 6480, Note_on_c, 14, 50, 80
26, 6509, Note_on_c, 14, 50, 0
26, 6510, Note_on_c, 14, 57, 80
26, 6539, Note_on_c, 14, 57, 0
26, 6540, Note_on_c, 14, 59, 80
26, 6569, Note_on_c, 14, 59, 0
26, 6570, Note_on_c, 14, 61, 80
26, 6599, Note_on_c, 14, 61, 0
26, 6600, Note_on_c, 14, 62, 80
26, 6629, Note_on_c, 14, 62, 0
26, 6630, Note_on_c, 14, 64, 80
26, 6659, Note_on_c, 14, 64, 0
26, 6660, Note_on_c, 14, 66, 80
26, 6689, Note_on_c, 14, 66, 0
26, 6690, Note_on_c, 14, 64, 80
26, 6719, Note_on_c, 14, 64, 0
26, 6720, Note_on_c, 14, 62, 80
26, 6749, Note_on_c, 14, 62, 0
26, 6750, Note_on_c, 14, 61, 80
26, 6779, Note_on_c, 14, 61, 0
26, 6780, Note_on_c, 14, 59, 80
26, 6809, Note_on_c, 14, 59, 0
26, 6810, Note_on_c, 14, 57, 80
26, 6839, Note_on_c, 14, 57, 0
26, 6840, Note_on_c, 14, 59, 80
26, 6869, Note_on_c, 14, 59, 0
26, 6870, Note_on_c, 14, 60, 80
26, 6899, Note_on_c, 14, 60, 0
26, 6900, Note_on_c, 14, 62, 80
26, 6929, Note_on_c, 14, 62, 0
26, 6930, Note_on_c, 14, 60, 80
26, 6959, Note_on_c, 14, 60, 0
26, 6960, Note_on_c, 14, 59, 80
26, 6989, Note_on_c, 14, 59, 0
26, 6990, Note_on_c, 14, 57, 80
26, 7019, Note_on_c, 14, 57, 0
26, 7020, Note_on_c, 14, 56, 80
26, 7049, Note_on_c, 14, 56, 0
26, 7050, Note_on_c, 14, 54, 80
26, 7079, Note_on_c, 14, 54, 0
26, 7080, Note_on_c, 14, 56, 80
26, 7109, Note_on_c, 14, 56, 0
26, 7110, Note_on_c, 14, 57, 80
26, 7139, Note_on_c, 14, 57, 0
26, 7140, Note_on_c, 14, 59, 80
26, 7169, Note_on_c, 14, 59, 0
26, 7170, Note_on_c, 14, 57, 80
26, 7199, Note_on_c, 14, 57, 0
26, 7200, Note_on_c, 14, 56, 80
26, 7229, Note_on_c, 14, 56, 0
26, 7230, Note_on_c, 14, 54, 80
26, 7259, Note_on_c, 14, 54, 0
26, 7260, Note_on_c, 14, 52, 80
26, 7289, Note_on_c, 14, 52, 0
26, 7290, Note_on_c, 14, 50, 80
26, 7319, Note_on_c, 14, 50, 0
26, 7320, Note_on_c, 14, 52, 80
26, 7349, Note_on_c, 14, 52, 0
26, 7350, Note_on_c, 14, 54, 80
26, 7379, Note_on_c, 14, 54, 0
26, 7380, Note_on_c, 14, 56, 80
26, 7409, Note_on_c, 14, 56, 0
26, 7410, Note_on_c, 14, 54, 80
26, 7439, Note_on_c, 14, 54, 0
26, 7440, Note_on_c, 14, 52, 80
26, 7469, Note_on_c, 14, 52, 0
26, 7470, Note_on_c, 14, 50, 80
26, 7499, Note_on_c, 14, 50, 0
26, 7500, Note_on_c, 14, 49, 80
26, 7529, Note_on_c, 14, 49, 0
26, 7530, Note_on_c, 14, 47, 80
26, 7559, Note_on_c, 14, 47, 0
26, 7560, Note_on_c, 14, 45, 80
26, 7589, Note_on_c, 14, 45, 0
26, 7590, Note_on_c, 14, 45, 80
26, 7619, Note_on_c, 14, 45, 0
26, 7620, Note_on_c, 14, 47, 80
26, 7649, Note_on_c, 14, 47, 0
26, 7650, Note_on_c, 14, 49, 80
26, 7679, Note_on_c, 14, 49, 0
26, 7680, Note_on_c, 14, 50, 80
26, 7709, Note_on_c, 14, 50, 0
26, 7710, Note_on_c, 14, 52, 80
26, 7739, Note_on_c, 14, 52, 0
26, 7740, Note_on_c, 14, 54, 80
26, 7769, Note_on_c, 14, 54, 0
26, 7770, Note_on_c, 14, 55, 80
26, 7799, Note_on_c, 14, 55, 0
26, 7800, Note_on_c, 14, 57, 80
26, 7829, Note_on_c, 14, 57, 0
26, 7830, Note_on_c, 14, 55, 80
26, 7859, Note_on_c, 14, 55, 0
26, 7860, Note_on_c, 14, 57, 80
26, 7889, Note_on_c, 14, 57, 0
26, 7890, Note_on_c, 14, 55, 80
26, 7919, Note_on_c, 14, 55, 0
26, 7920, Note_on_c, 14, 57, 80
26, 7949, Note_on_c, 14, 57, 0
26, 7950, Note_on_c, 14, 45, 80
26, 7979, Note_on_c, 14, 45, 0
26, 7980, Note_on_c, 14, 47, 80
26, 8009, Note_on_c, 14, 47, 0
26, 8010, Note_on_c, 14, 49, 80
26, 8039, Note_on_c, 14, 49, 0
26, 8040, Note_on_c, 14, 50, 80
26, 8069, Note_on_c, 14, 50, 0
26, 8070, Note_on_c, 14, 52, 80
26, 8099, Note_on_c, 14, 52, 0
26, 8100, Note_on_c, 14, 54, 80
26, 8129, Note_on_c, 14, 54, 0
26, 8130, Note_on_c, 14, 55, 80
26, 8159, Note_on_c, 14, 55, 0
26, 8160, Note_on_c, 14, 57, 80
26, 8189, Note_on_c, 14, 57, 0
26, 8190, Note_on_c, 14, 55, 80
26, 8219, Note_on_c, 14, 55, 0
26, 8220, Note_on_c, 14, 57, 80
26, 8249, Note_on_c, 14, 57, 0
26, 8250, Note_on_c, 14, 55, 80
26, 8279, Note_on_c, 14, 55, 0
26, 8280, Note_on_c, 14, 57, 80
26, 8309, Note_on_c, 14, 57, 0
26, 8310, Note_on_c, 14, 45, 80
26, 8339, Note_on_c, 14, 45, 0
26, 8340, Note_on_c, 14, 47, 80
26, 8369, Note_on_c, 14, 47, 0
26, 8370, Note_on_c, 14, 49, 80
26, 8399, Note_on_c, 14, 49, 0
26, 8400, Note_on_c, 14, 50, 80
26, 8429, Note_on_c, 14, 50, 0
26, 8430, Note_on_c, 14, 52, 80
26, 8459, Note_on_c, 14, 52, 0
26, 8460, Note_on_c, 14, 54, 80
26, 8489, Note_on_c, 14, 54, 0
26, 8490, Note_on_c, 14, 55, 80
26, 8519, Note_on_c, 14, 55, 0
26, 8520, Note_on_c, 14, 57, 80
26, 8549, Note_on_c, 14, 57, 0
26, 8550, Note_on_c, 14, 55, 80
26, 8579, Note_on_c, 14, 55, 0
26, 8580, Note_on_c, 14, 57, 80
26, 8609, Note_on_c, 14, 57, 0
26, 8610, Note_on_c, 14, 55, 80
26, 8639, Note_on_c, 14, 55, 0
26, 8640, Note_on_c, 14, 54, 80
26, 8669, Note_on_c, 14, 54, 0
26, 8670, Note_on_c, 14, 50, 80
26, 8699, Note_on_c, 14, 50, 0
26, 8700, Note_on_c, 14, 52, 80
26, 8729, Note_on_c, 14, 52, 0
26, 8730, Note_on_c, 14, 54, 80
26, 8759, Note_on_c, 14, 54, 0
26, 8760, Note_on_c, 14, 55, 80
26, 8789, Note_on_c, 14, 55, 0
26, 8790, Note_on_c, 14, 57, 80
26, 8819, Note_on_c, 14, 57, 0
26, 8820, Note_on_c, 14, 59, 80
26, 8849, Note_on_c, 14, 59, 0
26, 8850, Note_on_c, 14, 61, 80
26, 8879, Note_on_c, 14, 61, 0
26, 8880, Note_on_c, 14, 62, 80
26, 8909, Note_on_c, 14, 62, 0
26, 8910, Note_on_c, 14, 61, 80
26, 8939, Note_on_c, 14, 61, 0
26, 8940, Note_on_c, 14, 62, 80
26, 8969, Note_on_c, 14, 62, 0
26, 8970, Note_on_c, 14, 61, 80
26, 8999, Note_on_c, 14, 61, 0
26, 9000, Note_on_c, 14, 59, 80
26, 9029, Note_on_c, 14, 59, 0
26, 9030, Note_on_c, 14, 47, 80
26, 9059, Note_on_c, 14, 47, 0
26, 9060, Note_on_c, 14, 49, 80
26, 9089, Note_on_c, 14, 49, 0
26, 9090, Note_on_c, 14, 50, 80
26, 9119, Note_on_c, 14, 50, 0
26, 9120, Note_on_c, 14, 52, 80
26, 9149, Note_on_c, 14, 52, 0
26, 9150, Note_on_c, 14, 54, 80
26, 9179, Note_on_c, 14, 54, 0
26, 9180, Note_on_c, 14, 55, 80
26, 9209, Note_on_c, 14, 55, 0
26, 9210, Note_on_c, 14, 57, 80
26, 9239, Note_on_c, 14, 57, 0
26, 9240, Note_on_c, 14, 59, 80
26, 9269, Note_on_c, 14, 59, 0
26, 9270, Note_on_c, 14, 57, 80
26, 9299, Note_on_c, 14, 57, 0
26, 9300, Note_on_c, 14, 59, 80
26, 9329, Note_on_c, 14, 59, 0
26, 9330, Note_on_c, 14, 57, 80
26, 9359, Note_on_c, 14, 57, 0
26, 9360, Note_on_c, 14, 55, 80
26, 9389, Note_on_c, 14, 55, 0
26, 9390, Note_on_c, 14, 54, 80
26, 9419, Note_on_c, 14, 54, 0
26, 9420, Note_on_c, 14, 55, 80
26, 9449, Note_on_c, 14, 55, 0
26, 9450, Note_on_c, 14, 54, 80
26, 9479, Note_on_c, 14, 54, 0
26, 9480, Note_on_c, 14, 52, 80
26, 9509, Note_on_c, 14, 52, 0
26, 9510, Note_on_c, 14, 50, 80
26, 9539, Note_on_c, 14, 50, 0
26, 9540, Note_on_c, 14, 52, 80
26, 9569, Note_on_c, 14, 52, 0
26, 9570, Note_on_c, 14, 50, 80
26, 9599, Note_on_c, 14, 50, 0
26, 9600, Note_on_c, 14, 49, 80
26, 9629, Note_on_c, 14, 49, 0
26, 9630, Note_on_c, 14, 47, 80
26, 9659, Note_on_c, 14, 47, 0
26, 9660, Note_on_c, 14, 49, 80
26, 9689, Note_on_c, 14, 49, 0
26, 9690, Note_on_c, 14, 47, 80
26, 9719, Note_on_c, 14, 47, 0
26, 9720, Note_on_c, 14, 49, 80
26, 9749, Note_on_c, 14, 49, 0
26, 9750, Note_on_c, 14, 45, 80
26, 9779, Note_on_c, 14, 45, 0
26, 9780, Note_on_c, 14, 47, 80
26, 9809, Note_on_c, 14, 47, 0
26, 9810, Note_on_c, 14, 49, 80
26, 9839, Note_on_c, 14, 49, 0
26, 9840, Note_on_c, 14, 50, 80
26, 9869, Note_on_c, 14, 50, 0
26, 9870, Note_on_c, 14, 52, 80
26, 9899, Note_on_c, 14, 52, 0
26, 9900, Note_on_c, 14, 54, 80
26, 9929, Note_on_c, 14, 54, 0
26, 9930, Note_on_c, 14, 55, 80
26, 9959, Note_on_c, 14, 55, 0
26, 9960, Note_on_c, 14, 57, 80
26, 10019, Note_on_c, 14, 57, 0
26, 10020, Note_on_c, 14, 45, 80
26, 10079, Note_on_c, 14, 45, 0
26, 10080, Note_on_c, 14, 50, 80
26, 10109, Note_on_c, 14, 50, 0
26, 10110, Note_on_c, 14, 62, 80
26, 10139, Note_on_c, 14, 62, 0
26, 10140, Note_on_c, 14, 61, 80
26, 10169, Note_on_c, 14, 61, 0
26, 10170, Note_on_c, 14, 59, 80
26, 10199, Note_on_c, 14, 59, 0
26, 10200, Note_on_c, 14, 57, 80
26, 10229, Note_on_c, 14, 57, 0
26, 10230, Note_on_c, 14, 55, 80
26, 10259, Note_on_c, 14, 55, 0
26, 10260, Note_on_c, 14, 54, 80
26, 10289, Note_on_c, 14, 54, 0
26, 10290, Note_on_c, 14, 52, 80
26, 10319, Note_on_c, 14, 52, 0
26, 10320, Note_on_c, 14, 50, 80
26, 10379, Note_on_c, 14, 50, 0
26, 10470, Note_on_c, 14, 59, 80
26, 10499, Note_on_c, 14, 59, 0
26, 10500, Note_on_c, 14, 57, 80
26, 10529, Note_on_c, 14, 57, 0
26, 10530, Note_on_c, 14, 55, 80
26, 10559, Note_on_c, 14, 55, 0
26, 10560, Note_on_c, 14, 54, 80
26, 10589, Note_on_c, 14, 54, 0
26, 10590, Note_on_c, 14, 52, 80
26, 10619, Note_on_c, 14, 52, 0
26, 10620, Note_on_c, 14, 50, 80
26, 10649, Note_on_c, 14, 50, 0
26, 10650, Note_on_c, 14, 49, 80
26, 10679, Note_on_c, 14, 49, 0
26, 10680, Note_on_c, 14, 47, 80
26, 10739, Note_on_c, 14, 47, 0
26, 10830, Note_on_c, 14, 54, 80
26, 10859, Note_on_c, 14, 54, 0
26, 10860, Note_on_c, 14, 52, 80
26, 10889, Note_on_c, 14, 52, 0
26, 10890, Note_on_c, 14, 50, 80
26, 10919, Note_on_c, 14, 50, 0
26, 10920, Note_on_c, 14, 49, 80
26, 10949, Note_on_c, 14, 49, 0
26, 10950, Note_on_c, 14, 47, 80
26, 10979, Note_on_c, 14, 47, 0
26, 10980, Note_on_c, 14, 45, 80
26, 11009, Note_on_c, 14, 45, 0
26, 11010, Note_on_c, 14, 43, 80
26, 11039, Note_on_c, 14, 43, 0
26, 11040, Note_on_c, 14, 42, 80
26, 11099, Note_on_c, 14, 42, 0
26, 11190, Note_on_c, 14, 38, 80
26, 11219, Note_on_c, 14, 38, 0
26, 11220, Note_on_c, 14, 40, 80
26, 11249, Note_on_c, 14, 40, 0
26, 11250, Note_on_c, 14, 42, 80
26, 11279, Note_on_c, 14, 42, 0
26, 11280, Note_on_c, 14, 43, 80
26, 11309, Note_on_c, 14, 43, 0
26, 11310, Note_on_c, 14, 45, 80
26, 11339, Note_on_c, 14, 45, 0
26, 11340, Note_on_c, 14, 47, 80
26, 11369, Note_on_c, 14, 47, 0
26, 11370, Note_on_c, 14, 49, 80
26, 11399, Note_on_c, 14, 49, 0
26, 11400, Note_on_c, 14, 50, 80
26, 11429, Note_on_c, 14, 50, 0
26, 11430, Note_on_c, 14, 49, 80
26, 11459, Note_on_c, 14, 49, 0
26, 11460, Note_on_c, 14, 50, 80
26, 11489, Note_on_c, 14, 50, 0
26, 11490, Note_on_c, 14, 49, 80
26, 11519, Note_on_c, 14, 49, 0
26, 11520, Note_on_c, 14, 50, 80
26, 11549, Note_on_c, 14, 50, 0
26, 11550, Note_on_c, 14, 45, 80
26, 11579, Note_on_c, 14, 45, 0
26, 11580, Note_on_c, 14, 47, 80
26, 11609, Note_on_c, 14, 47, 0
26, 11610, Note_on_c, 14, 49, 80
26, 11639, Note_on_c, 14, 49, 0
26, 11640, Note_on_c, 14, 50, 80
26, 11669, Note_on_c, 14, 50, 0
26, 11670, Note_on_c, 14, 52, 80
26, 11699, Note_on_c, 14, 52, 0
26, 11700, Note_on_c, 14, 54, 80
26, 11729, Note_on_c, 14, 54, 0
26, 11730, Note_on_c, 14, 55, 80
26, 11759, Note_on_c, 14, 55, 0
26, 11760, Note_on_c, 14, 57, 80
26, 11789, Note_on_c, 14, 57, 0
26, 11790, Note_on_c, 14, 56, 80
26, 11819, Note_on_c, 14, 56, 0
26, 11820, Note_on_c, 14, 57, 80
26, 11849, Note_on_c, 14, 57, 0
26, 11850, Note_on_c, 14, 56, 80
26, 11879, Note_on_c, 14, 56, 0
26, 11880, Note_on_c, 14, 57, 80
26, 11909, Note_on_c, 14, 57, 0
26, 11910, Note_on_c, 14, 45, 80
26, 11939, Note_on_c, 14, 45, 0
26, 11940, Note_on_c, 14, 47, 80
26, 11969, Note_on_c, 14, 47, 0
26, 11970, Note_on_c, 14, 49, 80
26, 11999, Note_on_c, 14, 49, 0
26, 12000, Note_on_c, 14, 50, 80
26, 12029, Note_on_c, 14, 50, 0
26, 12030, Note_on_c, 14, 52, 80
26, 12059, Note_on_c, 14, 52, 0
26, 12060, Note_on_c, 14, 54, 80
26, 12089, Note_on_c, 14, 54, 0
26, 12090, Note_on_c, 14, 55, 80
26, 12119, Note_on_c, 14, 55, 0
26, 12120, Note_on_c, 14, 57, 80
26, 12149, Note_on_c, 14, 57, 0
26, 12150, Note_on_c, 14, 56, 80
26, 12179, Note_on_c, 14, 56, 0
26, 12180, Note_on_c, 14, 57, 80
26, 12209, Note_on_c, 14, 57, 0
26, 12210, Note_on_c, 14, 56, 80
26, 12239, Note_on_c, 14, 56, 0
26, 12240, Note_on_c, 14, 57, 80
26, 12269, Note_on_c, 14, 57, 0
26, 12270, Note_on_c, 14, 45, 80
26, 12299, Note_on_c, 14, 45, 0
26, 12300, Note_on_c, 14, 47, 80
26, 12329, Note_on_c, 14, 47, 0
26, 12330, Note_on_c, 14, 49, 80
26, 12359, Note_on_c, 14, 49, 0
26, 12360, Note_on_c, 14, 50, 80
26, 12389, Note_on_c, 14, 50, 0
26, 12390, Note_on_c, 14, 52, 80
26, 12419, Note_on_c, 14, 52, 0
26, 12420, Note_on_c, 14, 54, 80
26, 12449, Note_on_c, 14, 54, 0
26, 12450, Note_on_c, 14, 55, 80
26, 12479, Note_on_c, 14, 55, 0
26, 12480, Note_on_c, 14, 57, 80
26, 12509, Note_on_c, 14, 57, 0
26, 12510, Note_on_c, 14, 56, 80
26, 12539, Note_on_c, 14, 56, 0
26, 12540, Note_on_c, 14, 57, 80
26, 12569, Note_on_c, 14, 57, 0
26, 12570, Note_on_c, 14, 56, 80
26, 12599, Note_on_c, 14, 56, 0
26, 12600, Note_on_c, 14, 57, 80
26, 12629, Note_on_c, 14, 57, 0
26, 12630, Note_on_c, 14, 45, 80
26, 12659, Note_on_c, 14, 45, 0
26, 12660, Note_on_c, 14, 47, 80
26, 12689, Note_on_c, 14, 47, 0
26, 12690, Note_on_c, 14, 49, 80
26, 12719, Note_on_c, 14, 49, 0
26, 12720, Note_on_c, 14, 50, 80
26, 12749, Note_on_c, 14, 50, 0
26, 12750, Note_on_c, 14, 52, 80
26, 12779, Note_on_c, 14, 52, 0
26, 12780, Note_on_c, 14, 54, 80
26, 12809, Note_on_c, 14, 54, 0
26, 12810, Note_on_c, 14, 55, 80
26, 12839, Note_on_c, 14, 55, 0
26, 12840, Note_on_c, 14, 57, 80
26, 12869, Note_on_c, 14, 57, 0
26, 12870, Note_on_c, 14, 56, 80
26, 12899, Note_on_c, 14, 56, 0
26, 12900, Note_on_c, 14, 57, 80
26, 12929, Note_on_c, 14, 57, 0
26, 12930, Note_on_c, 14, 55, 80
26, 12959, Note_on_c, 14, 55, 0
26, 12960, Note_on_c, 14, 54, 80
26, 12989, Note_on_c, 14, 54, 0
26, 12990, Note_on_c, 14, 50, 80
26, 13019, Note_on_c, 14, 50, 0
26, 13020, Note_on_c, 14, 52, 80
26, 13049, Note_on_c, 14, 52, 0
26, 13050, Note_on_c, 14, 54, 80
26, 13079, Note_on_c, 14, 54, 0
26, 13080, Note_on_c, 14, 55, 80
26, 13109, Note_on_c, 14, 55, 0
26, 13110, Note_on_c, 14, 57, 80
26, 13139, Note_on_c, 14, 57, 0
26, 13140, Note_on_c, 14, 59, 80
26, 13169, Note_on_c, 14, 59, 0
26, 13170, Note_on_c, 14, 61, 80
26, 13199, Note_on_c, 14, 61, 0
26, 13200, Note_on_c, 14, 62, 80
26, 13229, Note_on_c, 14, 62, 0
26, 13230, Note_on_c, 14, 61, 80
26, 13259, Note_on_c, 14, 61, 0
26, 13260, Note_on_c, 14, 62, 80
26, 13289, Note_on_c, 14, 62, 0
26, 13290, Note_on_c, 14, 61, 80
26, 13319, Note_on_c, 14, 61, 0
26, 13320, Note_on_c, 14, 59, 80
26, 13349, Note_on_c, 14, 59, 0
26, 13350, Note_on_c, 14, 47, 80
26, 13379, Note_on_c, 14, 47, 0
26, 13380, Note_on_c, 14, 49, 80
26, 13409, Note_on_c, 14, 49, 0
26, 13410, Note_on_c, 14, 50, 80
26, 13439, Note_on_c, 14, 50, 0
26, 13440, Note_on_c, 14, 52, 80
26, 13469, Note_on_c, 14, 52, 0
26, 13470, Note_on_c, 14, 54, 80
26, 13499, Note_on_c, 14, 54, 0
26, 13500, Note_on_c, 14, 55, 80
26, 13529, Note_on_c, 14, 55, 0
26, 13530, Note_on_c, 14, 57, 80
26, 13559, Note_on_c, 14, 57, 0
26, 13560, Note_on_c, 14, 59, 80
26, 13589, Note_on_c, 14, 59, 0
26, 13590, Note_on_c, 14, 57, 80
26, 13619, Note_on_c, 14, 57, 0
26, 13620, Note_on_c, 14, 59, 80
26, 13649, Note_on_c, 14, 59, 0
26, 13650, Note_on_c, 14, 57, 80
26, 13679, Note_on_c, 14, 57, 0
26, 13680, Note_on_c, 14, 55, 80
26, 13709, Note_on_c, 14, 55, 0
26, 13710, Note_on_c, 14, 54, 80
26, 13739, Note_on_c, 14, 54, 0
26, 13740, Note_on_c, 14, 55, 80
26, 13769, Note_on_c, 14, 55, 0
26, 13770, Note_on_c, 14, 54, 80
26, 13799, Note_on_c, 14, 54, 0
26, 13800, Note_on_c, 14, 52, 80
26, 13829, Note_on_c, 14, 52, 0
26, 13830, Note_on_c, 14, 50, 80
26, 13859, Note_on_c, 14, 50, 0
26, 13860, Note_on_c, 14, 52, 80
26, 13889, Note_on_c, 14, 52, 0
26, 13890, Note_on_c, 14, 50, 80
26, 13919, Note_on_c, 14, 50, 0
26, 13920, Note_on_c, 14, 49, 80
26, 13949, Note_on_c, 14, 49, 0
26, 13950, Note_on_c, 14, 47, 80
26, 13979, Note_on_c, 14, 47, 0
26, 13980, Note_on_c, 14, 49, 80
26, 14009, Note_on_c, 14, 49, 0
26, 14010, Note_on_c, 14, 47, 80
26, 14039, Note_on_c, 14, 47, 0
26, 14040, Note_on_c, 14, 49, 80
26, 14069, Note_on_c, 14, 49, 0
26, 14070, Note_on_c, 14, 45, 80
26, 14099, Note_on_c, 14, 45, 0
26, 14100, Note_on_c, 14, 47, 80
26, 14129, Note_on_c, 14, 47, 0
26, 14130, Note_on_c, 14, 49, 80
26, 14159, Note_on_c, 14, 49, 0
26, 14160, Note_on_c, 14, 50, 80
26, 14189, Note_on_c, 14, 50, 0
26, 14190, Note_on_c, 14, 52, 80
26, 14219, Note_on_c, 14, 52, 0
26, 14220, Note_on_c, 14, 54, 80
26, 14249, Note_on_c, 14, 54, 0
26, 14250, Note_on_c, 14, 55, 80
26, 14279, Note_on_c, 14, 55, 0
26, 14280, Note_on_c, 14, 57, 80
26, 14339, Note_on_c, 14, 57, 0
26, 14340, Note_on_c, 14, 45, 80
26, 14399, Note_on_c, 14, 45, 0
26, 14400, Note_on_c, 14, 50, 80
26, 14459, Note_on_c, 14, 50, 0
26, 14460, Note_on_c, 14, 38, 80
26, 14519, Note_on_c, 14, 38, 0
26, 14520, Note_on_c, 14, 38, 80
26, 14579, Note_on_c, 14, 38, 0
26, 14580, Note_on_c, 14, 38, 80
26, 14639, Note_on_c, 14, 38, 0
26, 14640, Note_on_c, 14, 38, 80
26, 14699, Note_on_c, 14, 38, 0
26, 14700, Note_on_c, 14, 38, 80
26, 14759, Note_on_c, 14, 38, 0
26, 14760, Note_on_c, 14, 50, 80
26, 14819, Note_on_c, 14, 50, 0
26, 14820, Note_on_c, 14, 38, 80
26, 14879, Note_on_c, 14, 38, 0
26, 14880, Note_on_c, 14, 38, 80
26, 14939, Note_on_c, 14, 38, 0
26, 14940, Note_on_c, 14, 38, 80
26, 14999, Note_on_c, 14, 38, 0
26, 15000, Note_on_c, 14, 38, 80
26, 15059, Note_on_c, 14, 38, 0
26, 15060, Note_on_c, 14, 38, 80
26, 15119, Note_on_c, 14, 38, 0
26, 15120, Note_on_c, 14, 50, 80
26, 15179, Note_on_c, 14, 50, 0
26, 15180, Note_on_c, 14, 38, 80
26, 15239, Note_on_c, 14, 38, 0
26, 15240, Note_on_c, 14, 38, 80
26, 15299, Note_on_c, 14, 38, 0
26, 15300, Note_on_c, 14, 38, 80
26, 15359, Note_on_c, 14, 38, 0
26, 15360, Note_on_c, 14, 38, 80
26, 15419, Note_on_c, 14, 38, 0
26, 15420, Note_on_c, 14, 38, 80
26, 15479, Note_on_c, 14, 38, 0
26, 15480, Note_on_c, 14, 50, 80
26, 15539, Note_on_c, 14, 50, 0
26, 15540, Note_on_c, 14, 38, 80
26, 15599, Note_on_c, 14, 38, 0
26, 15600, Note_on_c, 14, 38, 80
26, 15659, Note_on_c, 14, 38, 0
26, 15660, Note_on_c, 14, 38, 80
26, 15719, Note_on_c, 14, 38, 0
26, 15720, Note_on_c, 14, 38, 80
26, 15779, Note_on_c, 14, 38, 0
26, 15780, Note_on_c, 14, 38, 80
26, 15839, Note_on_c, 14, 38, 0
26, 15870, Note_on_c, 14, 50, 80
26, 15899, Note_on_c, 14, 50, 0
26, 15900, Note_on_c, 14, 52, 80
26, 15929, Note_on_c, 14, 52, 0
26, 15930, Note_on_c, 14, 54, 80
26, 15959, Note_on_c, 14, 54, 0
26, 15960, Note_on_c, 14, 55, 80
26, 15989, Note_on_c, 14, 55, 0
26, 15990, Note_on_c, 14, 57, 80
26, 16019, Note_on_c, 14, 57, 0
26, 16020, Note_on_c, 14, 59, 80
26, 16049, Note_on_c, 14, 59, 0
26, 16050, Note_on_c, 14, 61, 80
26, 16079, Note_on_c, 14, 61, 0
26, 16080, Note_on_c, 14, 62, 80
26, 16109, Note_on_c, 14, 62, 0
26, 16110, Note_on_c, 14, 61, 80
26, 16139, Note_on_c, 14, 61, 0
26, 16140, Note_on_c, 14, 62, 80
26, 16169, Note_on_c, 14, 62, 0
26, 16170, Note_on_c, 14, 61, 80
26, 16199, Note_on_c, 14, 61, 0
26, 16200, Note_on_c, 14, 59, 80
26, 16229, Note_on_c, 14, 59, 0
26, 16230, Note_on_c, 14, 47, 80
26, 16259, Note_on_c, 14, 47, 0
26, 16260, Note_on_c, 14, 49, 80
26, 16289, Note_on_c, 14, 49, 0
26, 16290, Note_on_c, 14, 50, 80
26, 16319, Note_on_c, 14, 50, 0
26, 16320, Note_on_c, 14, 52, 80
26, 16349, Note_on_c, 14, 52, 0
26, 16350, Note_on_c, 14, 54, 80
26, 16379, Note_on_c, 14, 54, 0
26, 16380, Note_on_c, 14, 55, 80
26, 16409, Note_on_c, 14, 55, 0
26, 16410, Note_on_c, 14, 57, 80
26, 16439, Note_on_c, 14, 57, 0
26, 16440, Note_on_c, 14, 59, 80
26, 16469, Note_on_c, 14, 59, 0
26, 16470, Note_on_c, 14, 57, 80
26, 16499, Note_on_c, 14, 57, 0
26, 16500, Note_on_c, 14, 59, 80
26, 16529, Note_on_c, 14, 59, 0
26, 16530, Note_on_c, 14, 57, 80
26, 16559, Note_on_c, 14, 57, 0
26, 16560, Note_on_c, 14, 56, 80
26, 16589, Note_on_c, 14, 56, 0
26, 16590, Note_on_c, 14, 54, 80
26, 16619, Note_on_c, 14, 54, 0
26, 16620, Note_on_c, 14, 56, 80
26, 16649, Note_on_c, 14, 56, 0
26, 16650, Note_on_c, 14, 54, 80
26, 16679, Note_on_c, 14, 54, 0
26, 16680, Note_on_c, 14, 52, 80
26, 16709, Note_on_c, 14, 52, 0
26, 16710, Note_on_c, 14, 50, 80
26, 16739, Note_on_c, 14, 50, 0
26, 16740, Note_on_c, 14, 52, 80
26, 16769, Note_on_c, 14, 52, 0
26, 16770, Note_on_c, 14, 50, 80
26, 16799, Note_on_c, 14, 50, 0
26, 16800, Note_on_c, 14, 49, 80
26, 16829, Note_on_c, 14, 49, 0
26, 16830, Note_on_c, 14, 47, 80
26, 16859, Note_on_c, 14, 47, 0
26, 16860, Note_on_c, 14, 49, 80
26, 16889, Note_on_c, 14, 49, 0
26, 16890, Note_on_c, 14, 47, 80
26, 16919, Note_on_c, 14, 47, 0
26, 16920, Note_on_c, 14, 45, 80
26, 16949, Note_on_c, 14, 45, 0
26, 16950, Note_on_c, 14, 40, 80
26, 16979, Note_on_c, 14, 40, 0
26, 16980, Note_on_c, 14, 42, 80
26, 17009, Note_on_c, 14, 42, 0
26, 17010, Note_on_c, 14, 44, 80
26, 17039, Note_on_c, 14, 44, 0
26, 17040, Note_on_c, 14, 45, 80
26, 17069, Note_on_c, 14, 45, 0
26, 17070, Note_on_c, 14, 47, 80
26, 17099, Note_on_c, 14, 47, 0
26, 17100, Note_on_c, 14, 49, 80
26, 17129, Note_on_c, 14, 49, 0
26, 17130, Note_on_c, 14, 50, 80
26, 17159, Note_on_c, 14, 50, 0
26, 17160, Note_on_c, 14, 52, 80
26, 17219, Note_on_c, 14, 52, 0
26, 17220, Note_on_c, 14, 40, 80
26, 17279, Note_on_c, 14, 40, 0
26, 17280, Note_on_c, 14, 45, 80
26, 17309, Note_on_c, 14, 45, 0
26, 17310, Note_on_c, 14, 52, 80
26, 17339, Note_on_c, 14, 52, 0
26, 17340, Note_on_c, 14, 54, 80
26, 17369, Note_on_c, 14, 54, 0
26, 17370, Note_on_c, 14, 56, 80
26, 17399, Note_on_c, 14, 56, 0
26, 17400, Note_on_c, 14, 57, 80
26, 17429, Note_on_c, 14, 57, 0
26, 17430, Note_on_c, 14, 59, 80
26, 17459, Note_on_c, 14, 59, 0
26, 17460, Note_on_c, 14, 61, 80
26, 17489, Note_on_c, 14, 61, 0
26, 17490, Note_on_c, 14, 59, 80
26, 17519, Note_on_c, 14, 59, 0
26, 17520, Note_on_c, 14, 57, 80
26, 17549, Note_on_c, 14, 57, 0
26, 17550, Note_on_c, 14, 56, 80
26, 17579, Note_on_c, 14, 56, 0
26, 17580, Note_on_c, 14, 54, 80
26, 17609, Note_on_c, 14, 54, 0
26, 17610, Note_on_c, 14, 52, 80
26, 17639, Note_on_c, 14, 52, 0
26, 17640, Note_on_c, 14, 54, 80
26, 17669, Note_on_c, 14, 54, 0
26, 17670, Note_on_c, 14, 56, 80
26, 17699, Note_on_c, 14, 56, 0
26, 17700, Note_on_c, 14, 57, 80
26, 17729, Note_on_c, 14, 57, 0
26, 17730, Note_on_c, 14, 56, 80
26, 17759, Note_on_c, 14, 56, 0
26, 17760, Note_on_c, 14, 54, 80
26, 17789, Note_on_c, 14, 54, 0
26, 17790, Note_on_c, 14, 52, 80
26, 17819, Note_on_c, 14, 52, 0
26, 17820, Note_on_c, 14, 51, 80
26, 17849, Note_on_c, 14, 51, 0
26, 17850, Note_on_c, 14, 49, 80
26, 17879, Note_on_c, 14, 49, 0
26, 17880, Note_on_c, 14, 51, 80
26, 17909, Note_on_c, 14, 51, 0
26, 17910, Note_on_c, 14, 52, 80
26, 17939, Note_on_c, 14, 52, 0
26, 17940, Note_on_c, 14, 54, 80
26, 17969, Note_on_c, 14, 54, 0
26, 17970, Note_on_c, 14, 52, 80
26, 17999, Note_on_c, 14, 52, 0
26, 18000, Note_on_c, 14, 51, 80
26, 18029, Note_on_c, 14, 51, 0
26, 18030, Note_on_c, 14, 49, 80
26, 18059, Note_on_c, 14, 49, 0
26, 18060, Note_on_c, 14, 47, 80
26, 18089, Note_on_c, 14, 47, 0
26, 18090, Note_on_c, 14, 45, 80
26, 18119, Note_on_c, 14, 45, 0
26, 18120, Note_on_c, 14, 47, 80
26, 18149, Note_on_c, 14, 47, 0
26, 18150, Note_on_c, 14, 49, 80
26, 18179, Note_on_c, 14, 49, 0
26, 18180, Note_on_c, 14, 51, 80
26, 18209, Note_on_c, 14, 51, 0
26, 18210, Note_on_c, 14, 49, 80
26, 18239, Note_on_c, 14, 49, 0
26, 18240, Note_on_c, 14, 47, 80
26, 18269, Note_on_c, 14, 47, 0
26, 18270, Note_on_c, 14, 45, 80
26, 18299, Note_on_c, 14, 45, 0
26, 18300, Note_on_c, 14, 44, 80
26, 18329, Note_on_c, 14, 44, 0
26, 18330, Note_on_c, 14, 42, 80
26, 18359, Note_on_c, 14, 42, 0
26, 18360, Note_on_c, 14, 40, 80
26, 18389, Note_on_c, 14, 40, 0
26, 18390, Note_on_c, 14, 40, 80
26, 18419, Note_on_c, 14, 40, 0
26, 18420, Note_on_c, 14, 42, 80
26, 18449, Note_on_c, 14, 42, 0
26, 18450, Note_on_c, 14, 44, 80
26, 18479, Note_on_c, 14, 44, 0
26, 18480, Note_on_c, 14, 45, 80
26, 18509, Note_on_c, 14, 45, 0
26, 18510, Note_on_c, 14, 47, 80
26, 18539, Note_on_c, 14, 47, 0
26, 18540, Note_on_c, 14, 49, 80
26, 18569, Note_on_c, 14, 49, 0
26, 18570, Note_on_c, 14, 50, 80
26, 18599, Note_on_c, 14, 50, 0
26, 18600, Note_on_c, 14, 52, 80
26, 18629, Note_on_c, 14, 52, 0
26, 18630, Note_on_c, 14, 50, 80
26, 18659, Note_on_c, 14, 50, 0
26, 18660, Note_on_c, 14, 52, 80
26, 18689, Note_on_c, 14, 52, 0
26, 18690, Note_on_c, 14, 50, 80
26, 18719, Note_on_c, 14, 50, 0
26, 18720, Note_on_c, 14, 52, 80
26, 18749, Note_on_c, 14, 52, 0
26, 18750, Note_on_c, 14, 40, 80
26, 18779, Note_on_c, 14, 40, 0
26, 18780, Note_on_c, 14, 42, 80
26, 18809, Note_on_c, 14, 42, 0
26, 18810, Note_on_c, 14, 44, 80
26, 18839, Note_on_c, 14, 44, 0
26, 18840, Note_on_c, 14, 45, 80
26, 18869, Note_on_c, 14, 45, 0
26, 18870, Note_on_c, 14, 47, 80
26, 18899, Note_on_c, 14, 47, 0
26, 18900, Note_on_c, 14, 49, 80
26, 18929, Note_on_c, 14, 49, 0
26, 18930, Note_on_c, 14, 50, 80
26, 18959, Note_on_c, 14, 50, 0
26, 18960, Note_on_c, 14, 52, 80
26, 18989, Note_on_c, 14, 52, 0
26, 18990, Note_on_c, 14, 50, 80
26, 19019, Note_on_c, 14, 50, 0
26, 19020, Note_on_c, 14, 52, 80
26, 19049, Note_on_c, 14, 52, 0
26, 19050, Note_on_c, 14, 50, 80
26, 19079, Note_on_c, 14, 50, 0
26, 19080, Note_on_c, 14, 52, 80
26, 19109, Note_on_c, 14, 52, 0
26, 19110, Note_on_c, 14, 40, 80
26, 19139, Note_on_c, 14, 40, 0
26, 19140, Note_on_c, 14, 42, 80
26, 19169, Note_on_c, 14, 42, 0
26, 19170, Note_on_c, 14, 44, 80
26, 19199, Note_on_c, 14, 44, 0
26, 19200, Note_on_c, 14, 45, 80
26, 19229, Note_on_c, 14, 45, 0
26, 19230, Note_on_c, 14, 47, 80
26, 19259, Note_on_c, 14, 47, 0
26, 19260, Note_on_c, 14, 49, 80
26, 19289, Note_on_c, 14, 49, 0
26, 19290, Note_on_c, 14, 50, 80
26, 19319, Note_on_c, 14, 50, 0
26, 19320, Note_on_c, 14, 52, 80
26, 19349, Note_on_c, 14, 52, 0
26, 19350, Note_on_c, 14, 50, 80
26, 19379, Note_on_c, 14, 50, 0
26, 19380, Note_on_c, 14, 52, 80
26, 19409, Note_on_c, 14, 52, 0
26, 19410, Note_on_c, 14, 50, 80
26, 19439, Note_on_c, 14, 50, 0
26, 19440, Note_on_c, 14, 49, 80
26, 19469, Note_on_c, 14, 49, 0
26, 19470, Note_on_c, 14, 45, 80
26, 19499, Note_on_c, 14, 45, 0
26, 19500, Note_on_c, 14, 47, 80
26, 19529, Note_on_c, 14, 47, 0
26, 19530, Note_on_c, 14, 49, 80
26, 19559, Note_on_c, 14, 49, 0
26, 19560, Note_on_c, 14, 50, 80
26, 19589, Note_on_c, 14, 50, 0
26, 19590, Note_on_c, 14, 52, 80
26, 19619, Note_on_c, 14, 52, 0
26, 19620, Note_on_c, 14, 54, 80
26, 19649, Note_on_c, 14, 54, 0
26, 19650, Note_on_c, 14, 56, 80
26, 19679, Note_on_c, 14, 56, 0
26, 19680, Note_on_c, 14, 57, 80
26, 19709, Note_on_c, 14, 57, 0
26, 19710, Note_on_c, 14, 56, 80
26, 19739, Note_on_c, 14, 56, 0
26, 19740, Note_on_c, 14, 57, 80
26, 19769, Note_on_c, 14, 57, 0
26, 19770, Note_on_c, 14, 56, 80
26, 19799, Note_on_c, 14, 56, 0
26, 19800, Note_on_c, 14, 54, 80
26, 19829, Note_on_c, 14, 54, 0
26, 19830, Note_on_c, 14, 42, 80
26, 19859, Note_on_c, 14, 42, 0
26, 19860, Note_on_c, 14, 44, 80
26, 19889, Note_on_c, 14, 44, 0
26, 19890, Note_on_c, 14, 45, 80
26, 19919, Note_on_c, 14, 45, 0
26, 19920, Note_on_c, 14, 47, 80
26, 19949, Note_on_c, 14, 47, 0
26, 19950, Note_on_c, 14, 49, 80
26, 19979, Note_on_c, 14, 49, 0
26, 19980, Note_on_c, 14, 50, 80
26, 20009, Note_on_c, 14, 50, 0
26, 20010, Note_on_c, 14, 52, 80
26, 20039, Note_on_c, 14, 52, 0
26, 20040, Note_on_c, 14, 54, 80
26, 20069, Note_on_c, 14, 54, 0
26, 20070, Note_on_c, 14, 52, 80
26, 20099, Note_on_c, 14, 52, 0
26, 20100, Note_on_c, 14, 54, 80
26, 20129, Note_on_c, 14, 54, 0
26, 20130, Note_on_c, 14, 52, 80
26, 20159, Note_on_c, 14, 52, 0
26, 20160, Note_on_c, 14, 50, 80
26, 20189, Note_on_c, 14, 50, 0
26, 20190, Note_on_c, 14, 49, 80
26, 20219, Note_on_c, 14, 49, 0
26, 20220, Note_on_c, 14, 50, 80
26, 20249, Note_on_c, 14, 50, 0
26, 20250, Note_on_c, 14, 49, 80
26, 20279, Note_on_c, 14, 49, 0
26, 20280, Note_on_c, 14, 47, 80
26, 20309, Note_on_c, 14, 47, 0
26, 20310, Note_on_c, 14, 45, 80
26, 20339, Note_on_c, 14, 45, 0
26, 20340, Note_on_c, 14, 47, 80
26, 20369, Note_on_c, 14, 47, 0
26, 20370, Note_on_c, 14, 45, 80
26, 20399, Note_on_c, 14, 45, 0
26, 20400, Note_on_c, 14, 44, 80
26, 20429, Note_on_c, 14, 44, 0
26, 20430, Note_on_c, 14, 42, 80
26, 20459, Note_on_c, 14, 42, 0
26, 20460, Note_on_c, 14, 44, 80
26, 20489, Note_on_c, 14, 44, 0
26, 20490, Note_on_c, 14, 42, 80
26, 20519, Note_on_c, 14, 42, 0
26, 20520, Note_on_c, 14, 44, 80
26, 20549, Note_on_c, 14, 44, 0
26, 20550, Note_on_c, 14, 40, 80
26, 20579, Note_on_c, 14, 40, 0
26, 20580, Note_on_c, 14, 42, 80
26, 20609, Note_on_c, 14, 42, 0
26, 20610, Note_on_c, 14, 44, 80
26, 20639, Note_on_c, 14, 44, 0
26, 20640, Note_on_c, 14, 45, 80
26, 20669, Note_on_c, 14, 45, 0
26, 20670, Note_on_c, 14, 47, 80
26, 20699, Note_on_c, 14, 47, 0
26, 20700, Note_on_c, 14, 49, 80
26, 20729, Note_on_c, 14, 49, 0
26, 20730, Note_on_c, 14, 50, 80
26, 20759, Note_on_c, 14, 50, 0
26, 20760, Note_on_c, 14, 52, 80
26, 20819, Note_on_c, 14, 52, 0
26, 20820, Note_on_c, 14, 40, 80
26, 20879, Note_on_c, 14, 40, 0
26, 20880, Note_on_c, 14, 45, 80
26, 20999, Note_on_c, 14, 45, 0
26, 21630, Note_on_c, 14, 59, 80
26, 21659, Note_on_c, 14, 59, 0
26, 21660, Note_on_c, 14, 57, 80
26, 21689, Note_on_c, 14, 57, 0
26, 21690, Note_on_c, 14, 55, 80
26, 21719, Note_on_c, 14, 55, 0
26, 21720, Note_on_c, 14, 54, 80
26, 21749, Note_on_c, 14, 54, 0
26, 21750, Note_on_c, 14, 52, 80
26, 21779, Note_on_c, 14, 52, 0
26, 21780, Note_on_c, 14, 51, 80
26, 21809, Note_on_c, 14, 51, 0
26, 21810, Note_on_c, 14, 49, 80
26, 21839, Note_on_c, 14, 49, 0
26, 21840, Note_on_c, 14, 47, 80
26, 21869, Note_on_c, 14, 47, 0
26, 21870, Note_on_c, 14, 45, 80
26, 21899, Note_on_c, 14, 45, 0
26, 21900, Note_on_c, 14, 43, 80
26, 21929, Note_on_c, 14, 43, 0
26, 21930, Note_on_c, 14, 42, 80
26, 21959, Note_on_c, 14, 42, 0
26, 21960, Note_on_c, 14, 40, 80
26, 22079, Note_on_c, 14, 40, 0
26, 22710, Note_on_c, 14, 57, 80
26, 22739, Note_on_c, 14, 57, 0
26, 22740, Note_on_c, 14, 55, 80
26, 22769, Note_on_c, 14, 55, 0
26, 22770, Note_on_c, 14, 54, 80
26, 22799, Note_on_c, 14, 54, 0
26, 22800, Note_on_c, 14, 52, 80
26, 22829, Note_on_c, 14, 52, 0
26, 22830, Note_on_c, 14, 50, 80
26, 22859, Note_on_c, 14, 50, 0
26, 22860, Note_on_c, 14, 49, 80
26, 22889, Note_on_c, 14, 49, 0
26, 22890, Note_on_c, 14, 47, 80
26, 22919, Note_on_c, 14, 47, 0
26, 22920, Note_on_c, 14, 45, 80
26, 22949, Note_on_c, 14, 45, 0
26, 22950, Note_on_c, 14, 43, 80
26, 22979, Note_on_c, 14, 43, 0
26, 22980, Note_on_c, 14, 42, 80
26, 23009, Note_on_c, 14, 42, 0
26, 23010, Note_on_c, 14, 40, 80
26, 23039, Note_on_c, 14, 40, 0
26, 23040, Note_on_c, 14, 38, 80
26, 23099, Note_on_c, 14, 38, 0
26, 23100, Note_on_c, 14, 50, 80
26, 23159, Note_on_c, 14, 50, 0
26, 23160, Note_on_c, 14, 50, 80
26, 23219, Note_on_c, 14, 50, 0
26, 23220, Note_on_c, 14, 50, 80
26, 23279, Note_on_c, 14, 50, 0
26, 23280, Note_on_c, 14, 50, 80
26, 23339, Note_on_c, 14, 50, 0
26, 23340, Note_on_c, 14, 52, 80
26, 23369, Note_on_c, 14, 52, 0
26, 23370, Note_on_c, 14, 54, 80
26, 23399, Note_on_c, 14, 54, 0
26, 23400, Note_on_c, 14, 55, 80
26, 23459, Note_on_c, 14, 55, 0
26, 23460, Note_on_c, 14, 49, 80
26, 23519, Note_on_c, 14, 49, 0
26, 23520, Note_on_c, 14, 49, 80
26, 23579, Note_on_c, 14, 49, 0
26, 23580, Note_on_c, 14, 49, 80
26, 23639, Note_on_c, 14, 49, 0
26, 23640, Note_on_c, 14, 49, 80
26, 23699, Note_on_c, 14, 49, 0
26, 23700, Note_on_c, 14, 50, 80
26, 23729, Note_on_c, 14, 50, 0
26, 23730, Note_on_c, 14, 52, 80
26, 23759, Note_on_c, 14, 52, 0
26, 23760, Note_on_c, 14, 54, 80
26, 23819, Note_on_c, 14, 54, 0
26, 23820, Note_on_c, 14, 47, 80
26, 23879, Note_on_c, 14, 47, 0
26, 23880, Note_on_c, 14, 47, 80
26, 23939, Note_on_c, 14, 47, 0
26, 23940, Note_on_c, 14, 47, 80
26, 23999, Note_on_c, 14, 47, 0
26, 24000, Note_on_c, 14, 47, 80
26, 24059, Note_on_c, 14, 47, 0
26, 24060, Note_on_c, 14, 49, 80
26, 24089, Note_on_c, 14, 49, 0
26, 24090, Note_on_c, 14, 50, 80
26, 24119, Note_on_c, 14, 50, 0
26, 24120, Note_on_c, 14, 52, 80
26, 24179, Note_on_c, 14, 52, 0
26, 24180, Note_on_c, 14, 45, 80
26, 24239, Note_on_c, 14, 45, 0
26, 24240, Note_on_c, 14, 45, 80
26, 24299, Note_on_c, 14, 45, 0
26, 24300, Note_on_c, 14, 45, 80
26, 24359, Note_on_c, 14, 45, 0
26, 24360, Note_on_c, 14, 45, 80
26, 24419, Note_on_c, 14, 45, 0
26, 24420, Note_on_c, 14, 47, 80
26, 24449, Note_on_c, 14, 47, 0
26, 24450, Note_on_c, 14, 49, 80
26, 24479, Note_on_c, 14, 49, 0
26, 24480, Note_on_c, 14, 50, 80
26, 24509, Note_on_c, 14, 50, 0
26, 24510, Note_on_c, 14, 57, 80
26, 24539, Note_on_c, 14, 57, 0
26, 24540, Note_on_c, 14, 59, 80
26, 24569, Note_on_c, 14, 59, 0
26, 24570, Note_on_c, 14, 61, 80
26, 24599, Note_on_c, 14, 61, 0
26, 24600, Note_on_c, 14, 62, 80
26, 24629, Note_on_c, 14, 62, 0
26, 24630, Note_on_c, 14, 64, 80
26, 24659, Note_on_c, 14, 64, 0
26, 24660, Note_on_c, 14, 66, 80
26, 24689, Note_on_c, 14, 66, 0
26, 24690, Note_on_c, 14, 64, 80
26, 24719, Note_on_c, 14, 64, 0
26, 24720, Note_on_c, 14, 62, 80
26, 24749, Note_on_c, 14, 62, 0
26, 24750, Note_on_c, 14, 61, 80
26, 24779, Note_on_c, 14, 61, 0
26, 24780, Note_on_c, 14, 59, 80
26, 24809, Note_on_c, 14, 59, 0
26, 24810, Note_on_c, 14, 57, 80
26, 24839, Note_on_c, 14, 57, 0
26, 24840, Note_on_c, 14, 59, 80
26, 24869, Note_on_c, 14, 59, 0
26, 24870, Note_on_c, 14, 60, 80
26, 24899, Note_on_c, 14, 60, 0
26, 24900, Note_on_c, 14, 62, 80
26, 24929, Note_on_c, 14, 62, 0
26, 24930, Note_on_c, 14, 60, 80
26, 24959, Note_on_c, 14, 60, 0
26, 24960, Note_on_c, 14, 59, 80
26, 24989, Note_on_c, 14, 59, 0
26, 24990, Note_on_c, 14, 57, 80
26, 25019, Note_on_c, 14, 57, 0
26, 25020, Note_on_c, 14, 56, 80
26, 25049, Note_on_c, 14, 56, 0
26, 25050, Note_on_c, 14, 54, 80
26, 25079, Note_on_c, 14, 54, 0
26, 25080, Note_on_c, 14, 56, 80
26, 25109, Note_on_c, 14, 56, 0
26, 25110, Note_on_c, 14, 57, 80
26, 25139, Note_on_c, 14, 57, 0
26, 25140, Note_on_c, 14, 59, 80
26, 25169, Note_on_c, 14, 59, 0
26, 25170, Note_on_c, 14, 57, 80
26, 25199, Note_on_c, 14, 57, 0
26, 25200, Note_on_c, 14, 56, 80
26, 25229, Note_on_c, 14, 56, 0
26, 25230, Note_on_c, 14, 54, 80
26, 25259, Note_on_c, 14, 54, 0
26, 25260, Note_on_c, 14, 52, 80
26, 25289, Note_on_c, 14, 52, 0
26, 25290, Note_on_c, 14, 50, 80
26, 25319, Note_on_c, 14, 50, 0
26, 25320, Note_on_c, 14, 52, 80
26, 25349, Note_on_c, 14, 52, 0
26, 25350, Note_on_c, 14, 54, 80
26, 25379, Note_on_c, 14, 54, 0
26, 25380, Note_on_c, 14, 56, 80
26, 25409, Note_on_c, 14, 56, 0
26, 25410, Note_on_c, 14, 54, 80
26, 25439, Note_on_c, 14, 54, 0
26, 25440, Note_on_c, 14, 52, 80
26, 25469, Note_on_c, 14, 52, 0
26, 25470, Note_on_c, 14, 50, 80
26, 25499, Note_on_c, 14, 50, 0
26, 25500, Note_on_c, 14, 49, 80
26, 25529, Note_on_c, 14, 49, 0
26, 25530, Note_on_c, 14, 47, 80
26, 25559, Note_on_c, 14, 47, 0
26, 25560, Note_on_c, 14, 45, 80
26, 25589, Note_on_c, 14, 45, 0
26, 25590, Note_on_c, 14, 45, 80
26, 25619, Note_on_c, 14, 45, 0
26, 25620, Note_on_c, 14, 47, 80
26, 25649, Note_on_c, 14, 47, 0
26, 25650, Note_on_c, 14, 49, 80
26, 25679, Note_on_c, 14, 49, 0
26, 25680, Note_on_c, 14, 50, 80
26, 25709, Note_on_c, 14, 50, 0
26, 25710, Note_on_c, 14, 52, 80
26, 25739, Note_on_c, 14, 52, 0
26, 25740, Note_on_c, 14, 54, 80
26, 25769, Note_on_c, 14, 54, 0
26, 25770, Note_on_c, 14, 55, 80
26, 25799, Note_on_c, 14, 55, 0
26, 25800, Note_on_c, 14, 57, 80
26, 25829, Note_on_c, 14, 57, 0
26, 25830, Note_on_c, 14, 55, 80
26, 25859, Note_on_c, 14, 55, 0
26, 25860, Note_on_c, 14, 57, 80
26, 25889, Note_on_c, 14, 57, 0
26, 25890, Note_on_c, 14, 55, 80
26, 25919, Note_on_c, 14, 55, 0
26, 25920, Note_on_c, 14, 57, 80
26, 25949, Note_on_c, 14, 57, 0
26, 25950, Note_on_c, 14, 45, 80
26, 25979, Note_on_c, 14, 45, 0
26, 25980, Note_on_c, 14, 47, 80
26, 26009, Note_on_c, 14, 47, 0
26, 26010, Note_on_c, 14, 49, 80
26, 26039, Note_on_c, 14, 49, 0
26, 26040, Note_on_c, 14, 50, 80
26, 26069, Note_on_c, 14, 50, 0
26, 26070, Note_on_c, 14, 52, 80
26, 26099, Note_on_c, 14, 52, 0
26, 26100, Note_on_c, 14, 54, 80
26, 26129, Note_on_c, 14, 54, 0
26, 26130, Note_on_c, 14, 55, 80
26, 26159, Note_on_c, 14, 55, 0
26, 26160, Note_on_c, 14, 57, 80
26, 26189, Note_on_c, 14, 57, 0
26, 26190, Note_on_c, 14, 55, 80
26, 26219, Note_on_c, 14, 55, 0
26, 26220, Note_on_c, 14, 57, 80
26, 26249, Note_on_c, 14, 57, 0
26, 26250, Note_on_c, 14, 55, 80
26, 26279, Note_on_c, 14, 55, 0
26, 26280, Note_on_c, 14, 57, 80
26, 26309, Note_on_c, 14, 57, 0
26, 26310, Note_on_c, 14, 45, 80
26, 26339, Note_on_c, 14, 45, 0
26, 26340, Note_on_c, 14, 47, 80
26, 26369, Note_on_c, 14, 47, 0
26, 26370, Note_on_c, 14, 49, 80
26, 26399, Note_on_c, 14, 49, 0
26, 26400, Note_on_c, 14, 50, 80
26, 26429, Note_on_c, 14, 50, 0
26, 26430, Note_on_c, 14, 52, 80
26, 26459, Note_on_c, 14, 52, 0
26, 26460, Note_on_c, 14, 54, 80
26, 26489, Note_on_c, 14, 54, 0
26, 26490, Note_on_c, 14, 55, 80
26, 26519, Note_on_c, 14, 55, 0
26, 26520, Note_on_c, 14, 57, 80
26, 26549, Note_on_c, 14, 57, 0
26, 26550, Note_on_c, 14, 55, 80
26, 26579, Note_on_c, 14, 55, 0
26, 26580, Note_on_c, 14, 57, 80
26, 26609, Note_on_c, 14, 57, 0
26, 26610, Note_on_c, 14, 55, 80
26, 26639, Note_on_c, 14, 55, 0
26, 26640, Note_on_c, 14, 54, 80
26, 26669, Note_on_c, 14, 54, 0
26, 26670, Note_on_c, 14, 50, 80
26, 26699, Note_on_c, 14, 50, 0
26, 26700, Note_on_c, 14, 52, 80
26, 26729, Note_on_c, 14, 52, 0
26, 26730, Note_on_c, 14, 54, 80
26, 26759, Note_on_c, 14, 54, 0
26, 26760, Note_on_c, 14, 55, 80
26, 26789, Note_on_c, 14, 55, 0
26, 26790, Note_on_c, 14, 57, 80
26, 26819, Note_on_c, 14, 57, 0
26, 26820, Note_on_c, 14, 59, 80
26, 26849, Note_on_c, 14, 59, 0
26, 26850, Note_on_c, 14, 61, 80
26, 26879, Note_on_c, 14, 61, 0
26, 26880, Note_on_c, 14, 62, 80
26, 26909, Note_on_c, 14, 62, 0
26, 26910, Note_on_c, 14, 61, 80
26, 26939, Note_on_c, 14, 61, 0
26, 26940, Note_on_c, 14, 62, 80
26, 26969, Note_on_c, 14, 62, 0
26, 26970, Note_on_c, 14, 61, 80
26, 26999, Note_on_c, 14, 61, 0
26, 27000, Note_on_c, 14, 59, 80
26, 27029, Note_on_c, 14, 59, 0
26, 27030, Note_on_c, 14, 47, 80
26, 27059, Note_on_c, 14, 47, 0
26, 27060, Note_on_c, 14, 49, 80
26, 27089, Note_on_c, 14, 49, 0
26, 27090, Note_on_c, 14, 50, 80
26, 27119, Note_on_c, 14, 50, 0
26, 27120, Note_on_c, 14, 52, 80
26, 27149, Note_on_c, 14, 52, 0
26, 27150, Note_on_c, 14, 54, 80
26, 27179, Note_on_c, 14, 54, 0
26, 27180, Note_on_c, 14, 55, 80
26, 27209, Note_on_c, 14, 55, 0
26, 27210, Note_on_c, 14, 57, 80
26, 27239, Note_on_c, 14, 57, 0
26, 27240, Note_on_c, 14, 59, 80
26, 27269, Note_on_c, 14, 59, 0
26, 27270, Note_on_c, 14, 57, 80
26, 27299, Note_on_c, 14, 57, 0
26, 27300, Note_on_c, 14, 59, 80
26, 27329, Note_on_c, 14, 59, 0
26, 27330, Note_on_c, 14, 57, 80
26, 27359, Note_on_c, 14, 57, 0
26, 27360, Note_on_c, 14, 55, 80
26, 27389, Note_on_c, 14, 55, 0
26, 27390, Note_on_c, 14, 54, 80
26, 27419, Note_on_c, 14, 54, 0
26, 27420, Note_on_c, 14, 55, 80
26, 27449, Note_on_c, 14, 55, 0
26, 27450, Note_on_c, 14, 54, 80
26, 27479, Note_on_c, 14, 54, 0
26, 27480, Note_on_c, 14, 52, 80
26, 27509, Note_on_c, 14, 52, 0
26, 27510, Note_on_c, 14, 50, 80
26, 27539, Note_on_c, 14, 50, 0
26, 27540, Note_on_c, 14, 52, 80
26, 27569, Note_on_c, 14, 52, 0
26, 27570, Note_on_c, 14, 50, 80
26, 27599, Note_on_c, 14, 50, 0
26, 27600, Note_on_c, 14, 49, 80
26, 27629, Note_on_c, 14, 49, 0
26, 27630, Note_on_c, 14, 47, 80
26, 27659, Note_on_c, 14, 47, 0
26, 27660, Note_on_c, 14, 49, 80
26, 27689, Note_on_c, 14, 49, 0
26, 27690, Note_on_c, 14, 47, 80
26, 27719, Note_on_c, 14, 47, 0
26, 27720, Note_on_c, 14, 49, 80
26, 27749, Note_on_c, 14, 49, 0
26, 27750, Note_on_c, 14, 45, 80
26, 27779, Note_on_c, 14, 45, 0
26, 27780, Note_on_c, 14, 47, 80
26, 27809, Note_on_c, 14, 47, 0
26, 27810, Note_on_c, 14, 49, 80
26, 27839, Note_on_c, 14, 49, 0
26, 27840, Note_on_c, 14, 50, 80
26, 27869, Note_on_c, 14, 50, 0
26, 27870, Note_on_c, 14, 52, 80
26, 27899, Note_on_c, 14, 52, 0
26, 27900, Note_on_c, 14, 54, 80
26, 27929, Note_on_c, 14, 54, 0
26, 27930, Note_on_c, 14, 55, 80
26, 27959, Note_on_c, 14, 55, 0
26, 27960, Note_on_c, 14, 57, 80
26, 28019, Note_on_c, 14, 57, 0
26, 28020, Note_on_c, 14, 45, 80
26, 28079, Note_on_c, 14, 45, 0
26, 28080, Note_on_c, 14, 50, 80
26, 28109, Note_on_c, 14, 50, 0
26, 28110, Note_on_c, 14, 38, 80
26, 28139, Note_on_c, 14, 38, 0
26, 28140, Note_on_c, 14, 40, 80
26, 28169, Note_on_c, 14, 40, 0
26, 28170, Note_on_c, 14, 42, 80
26, 28199, Note_on_c, 14, 42, 0
26, 28200, Note_on_c, 14, 43, 80
26, 28229, Note_on_c, 14, 43, 0
26, 28230, Note_on_c, 14, 45, 80
26, 28259, Note_on_c, 14, 45, 0
26, 28260, Note_on_c, 14, 47, 80
26, 28289, Note_on_c, 14, 47, 0
26, 28290, Note_on_c, 14, 49, 80
26, 28319, Note_on_c, 14, 49, 0
26, 28320, Note_on_c, 14, 50, 80
26, 28349, Note_on_c, 14, 50, 0
26, 28350, Note_on_c, 14, 49, 80
26, 28379, Note_on_c, 14, 49, 0
26, 28380, Note_on_c, 14, 50, 80
26, 28409, Note_on_c, 14, 50, 0
26, 28410, Note_on_c, 14, 49, 80
26, 28439, Note_on_c, 14, 49, 0
26, 28440, Note_on_c, 14, 50, 80
26, 28469, Note_on_c, 14, 50, 0
26, 28470, Note_on_c, 14, 38, 80
26, 28499, Note_on_c, 14, 38, 0
26, 28500, Note_on_c, 14, 40, 80
26, 28529, Note_on_c, 14, 40, 0
26, 28530, Note_on_c, 14, 42, 80
26, 28559, Note_on_c, 14, 42, 0
26, 28560, Note_on_c, 14, 43, 80
26, 28589, Note_on_c, 14, 43, 0
26, 28590, Note_on_c, 14, 45, 80
26, 28619, Note_on_c, 14, 45, 0
26, 28620, Note_on_c, 14, 47, 80
26, 28649, Note_on_c, 14, 47, 0
26, 28650, Note_on_c, 14, 49, 80
26, 28679, Note_on_c, 14, 49, 0
26, 28680, Note_on_c, 14, 50, 80
26, 28709, Note_on_c, 14, 50, 0
26, 28710, Note_on_c, 14, 49, 80
26, 28739, Note_on_c, 14, 49, 0
26, 28740, Note_on_c, 14, 50, 80
26, 28769, Note_on_c, 14, 50, 0
26, 28770, Note_on_c, 14, 49, 80
26, 28799, Note_on_c, 14, 49, 0
26, 28800, Note_on_c, 14, 50, 80
26, 28829, Note_on_c, 14, 50, 0
26, 28830, Note_on_c, 14, 38, 80
26, 28859, Note_on_c, 14, 38, 0
26, 28860, Note_on_c, 14, 40, 80
26, 28889, Note_on_c, 14, 40, 0
26, 28890, Note_on_c, 14, 42, 80
26, 28919, Note_on_c, 14, 42, 0
26, 28920, Note_on_c, 14, 43, 80
26, 28949, Note_on_c, 14, 43, 0
26, 28950, Note_on_c, 14, 45, 80
26, 28979, Note_on_c, 14, 45, 0
26, 28980, Note_on_c, 14, 47, 80
26, 29009, Note_on_c, 14, 47, 0
26, 29010, Note_on_c, 14, 49, 80
26, 29039, Note_on_c, 14, 49, 0
26, 29040, Note_on_c, 14, 50, 80
26, 29069, Note_on_c, 14, 50, 0
26, 29070, Note_on_c, 14, 52, 80
26, 29099, Note_on_c, 14, 52, 0
26, 29100, Note_on_c, 14, 54, 80
26, 29129, Note_on_c, 14, 54, 0
26, 29130, Note_on_c, 14, 50, 80
26, 29159, Note_on_c, 14, 50, 0
26, 29160, Note_on_c, 14, 55, 80
26, 29189, Note_on_c, 14, 55, 0
26, 29190, Note_on_c, 14, 54, 80
26, 29219, Note_on_c, 14, 54, 0
26, 29220, Note_on_c, 14, 55, 80
26, 29249, Note_on_c, 14, 55, 0
26, 29250, Note_on_c, 14, 54, 80
26, 29279, Note_on_c, 14, 54, 0
26, 29280, Note_on_c, 14, 52, 80
26, 29309, Note_on_c, 14, 52, 0
26, 29310, Note_on_c, 14, 50, 80
26, 29339, Note_on_c, 14, 50, 0
26, 29340, Note_on_c, 14, 52, 80
26, 29369, Note_on_c, 14, 52, 0
26, 29370, Note_on_c, 14, 50, 80
26, 29399, Note_on_c, 14, 50, 0
26, 29400, Note_on_c, 14, 49, 80
26, 29429, Note_on_c, 14, 49, 0
26, 29430, Note_on_c, 14, 47, 80
26, 29459, Note_on_c, 14, 47, 0
26, 29460, Note_on_c, 14, 49, 80
26, 29489, Note_on_c, 14, 49, 0
26, 29490, Note_on_c, 14, 47, 80
26, 29519, Note_on_c, 14, 47, 0
26, 29520, Note_on_c, 14, 49, 80
26, 29549, Note_on_c, 14, 49, 0
26, 29550, Note_on_c, 14, 45, 80
26, 29579, Note_on_c, 14, 45, 0
26, 29580, Note_on_c, 14, 47, 80
26, 29609, Note_on_c, 14, 47, 0
26, 29610, Note_on_c, 14, 49, 80
26, 29639, Note_on_c, 14, 49, 0
26, 29640, Note_on_c, 14, 50, 80
26, 29669, Note_on_c, 14, 50, 0
26, 29670, Note_on_c, 14, 52, 80
26, 29699, Note_on_c, 14, 52, 0
26, 29700, Note_on_c, 14, 54, 80
26, 29729, Note_on_c, 14, 54, 0
26, 29730, Note_on_c, 14, 55, 80
26, 29759, Note_on_c, 14, 55, 0
26, 29760, Note_on_c, 14, 57, 80
26, 29819, Note_on_c, 14, 57, 0
26, 29820, Note_on_c, 14, 45, 80
26, 29879, Note_on_c, 14, 45, 0
26, 29880, Note_on_c, 14, 50, 80
26, 29939, Note_on_c, 14, 50, 0
26, 29940, Note_on_c, 14, 38, 80
26, 29999, Note_on_c, 14, 38, 0
26, 30000, Note_on_c, 14, 38, 80
26, 30059, Note_on_c, 14, 38, 0
26, 30060, Note_on_c, 14, 50, 80
26, 30119, Note_on_c, 14, 50, 0
26, 30120, Note_on_c, 14, 54, 80
26, 30179, Note_on_c, 14, 54, 0
26, 30180, Note_on_c, 14, 52, 80
26, 30209, Note_on_c, 14, 52, 0
26, 30210, Note_on_c, 14, 50, 80
26, 30239, Note_on_c, 14, 50, 0
26, 30240, Note_on_c, 14, 57, 80
26, 30269, Note_on_c, 14, 57, 0
26, 30270, Note_on_c, 14, 45, 80
26, 30299, Note_on_c, 14, 45, 0
26, 30300, Note_on_c, 14, 47, 80
26, 30329, Note_on_c, 14, 47, 0
26, 30330, Note_on_c, 14, 49, 80
26, 30359, Note_on_c, 14, 49, 0
26, 30360, Note_on_c, 14, 50, 80
26, 30389, Note_on_c, 14, 50, 0
26, 30390, Note_on_c, 14, 52, 80
26, 30419, Note_on_c, 14, 52, 0
26, 30420, Note_on_c, 14, 54, 80
26, 30449, Note_on_c, 14, 54, 0
26, 30450, Note_on_c, 14, 55, 80
26, 30479, Note_on_c, 14, 55, 0
26, 30480, Note_on_c, 14, 57, 80
26, 30509, Note_on_c, 14, 57, 0
26, 30510, Note_on_c, 14, 59, 80
26, 30539, Note_on_c, 14, 59, 0
26, 30540, Note_on_c, 14, 61, 80
26, 30569, Note_on_c, 14, 61, 0
26, 30570, Note_on_c, 14, 62, 80
26, 30599, Note_on_c, 14, 62, 0
26, 30600, Note_on_c, 14, 64, 80
26, 30659, Note_on_c, 14, 64, 0
26, 30660, Note_on_c, 14, 40, 80
26, 30719, Note_on_c, 14, 40, 0
26, 30720, Note_on_c, 14, 40, 80
26, 30779, Note_on_c, 14, 40, 0
26, 30780, Note_on_c, 14, 52, 80
26, 30839, Note_on_c, 14, 52, 0
26, 30840, Note_on_c, 14, 55, 80
26, 30899, Note_on_c, 14, 55, 0
26, 30900, Note_on_c, 14, 54, 80
26, 30929, Note_on_c, 14, 54, 0
26, 30930, Note_on_c, 14, 52, 80
26, 30959, Note_on_c, 14, 52, 0
26, 30960, Note_on_c, 14, 58, 80
26, 30989, Note_on_c, 14, 58, 0
26, 30990, Note_on_c, 14, 59, 80
26, 31019, Note_on_c, 14, 59, 0
26, 31020, Note_on_c, 14, 58, 80
26, 31049, Note_on_c, 14, 58, 0
26, 31050, Note_on_c, 14, 56, 80
26, 31079, Note_on_c, 14, 56, 0
26, 31080, Note_on_c, 14, 54, 80
26, 31109, Note_on_c, 14, 54, 0
26, 31110, Note_on_c, 14, 52, 80
26, 31139, Note_on_c, 14, 52, 0
26, 31140, Note_on_c, 14, 50, 80
26, 31169, Note_on_c, 14, 50, 0
26, 31170, Note_on_c, 14, 49, 80
26, 31199, Note_on_c, 14, 49, 0
26, 31200, Note_on_c, 14, 47, 80
26, 31229, Note_on_c, 14, 47, 0
26, 31230, Note_on_c, 14, 45, 80
26, 31259, Note_on_c, 14, 45, 0
26, 31260, Note_on_c, 14, 43, 80
26, 31289, Note_on_c, 14, 43, 0
26, 31290, Note_on_c, 14, 42, 80
26, 31319, Note_on_c, 14, 42, 0
26, 31320, Note_on_c, 14, 40, 80
26, 31379, Note_on_c, 14, 40, 0
26, 31380, Note_on_c, 14, 52, 80
26, 31439, Note_on_c, 14, 52, 0
26, 31440, Note_on_c, 14, 52, 80
26, 31499, Note_on_c, 14, 52, 0
26, 31500, Note_on_c, 14, 54, 80
26, 31559, Note_on_c, 14, 54, 0
26, 31560, Note_on_c, 14, 55, 80
26, 31619, Note_on_c, 14, 55, 0
26, 31620, Note_on_c, 14, 54, 80
26, 31649, Note_on_c, 14, 54, 0
26, 31650, Note_on_c, 14, 52, 80
26, 31679, Note_on_c, 14, 52, 0
26, 31680, Note_on_c, 14, 54, 80
26, 31739, Note_on_c, 14, 54, 0
26, 31740, Note_on_c, 14, 42, 80
26, 31799, Note_on_c, 14, 42, 0
26, 31800, Note_on_c, 14, 42, 80
26, 31859, Note_on_c, 14, 42, 0
26, 31860, Note_on_c, 14, 42, 80
26, 31919, Note_on_c, 14, 42, 0
26, 31920, Note_on_c, 14, 42, 80
26, 31979, Note_on_c, 14, 42, 0
26, 31980, Note_on_c, 14, 42, 80
26, 32039, Note_on_c, 14, 42, 0
26, 32040, Note_on_c, 14, 54, 80
26, 32099, Note_on_c, 14, 54, 0
26, 32100, Note_on_c, 14, 42, 80
26, 32159, Note_on_c, 14, 42, 0
26, 32160, Note_on_c, 14, 42, 80
26, 32219, Note_on_c, 14, 42, 0
26, 32220, Note_on_c, 14, 42, 80
26, 32279, Note_on_c, 14, 42, 0
26, 32280, Note_on_c, 14, 42, 80
26, 32339, Note_on_c, 14, 42, 0
26, 32340, Note_on_c, 14, 42, 80
26, 32399, Note_on_c, 14, 42, 0
26, 32400, Note_on_c, 14, 42, 80
26, 32429, Note_on_c, 14, 42, 0
26, 32430, Note_on_c, 14, 66, 80
26, 32459, Note_on_c, 14, 66, 0
26, 32460, Note_on_c, 14, 64, 80
26, 32489, Note_on_c, 14, 64, 0
26, 32490, Note_on_c, 14, 62, 80
26, 32519, Note_on_c, 14, 62, 0
26, 32520, Note_on_c, 14, 61, 80
26, 32549, Note_on_c, 14, 61, 0
26, 32550, Note_on_c, 14, 59, 80
26, 32579, Note_on_c, 14, 59, 0
26, 32580, Note_on_c, 14, 58, 80
26, 32609, Note_on_c, 14, 58, 0
26, 32610, Note_on_c, 14, 56, 80
26, 32639, Note_on_c, 14, 56, 0
26, 32640, Note_on_c, 14, 54, 80
26, 32669, Note_on_c, 14, 54, 0
26, 32670, Note_on_c, 14, 52, 80
26, 32699, Note_on_c, 14, 52, 0
26, 32700, Note_on_c, 14, 50, 80
26, 32729, Note_on_c, 14, 50, 0
26, 32730, Note_on_c, 14, 49, 80
26, 32759, Note_on_c, 14, 49, 0
26, 32760, Note_on_c, 14, 47, 80
26, 32879, Note_on_c, 14, 47, 0
26, 33510, Note_on_c, 14, 59, 80
26, 33539, Note_on_c, 14, 59, 0
26, 33540, Note_on_c, 14, 57, 80
26, 33569, Note_on_c, 14, 57, 0
26, 33570, Note_on_c, 14, 55, 80
26, 33599, Note_on_c, 14, 55, 0
26, 33600, Note_on_c, 14, 54, 80
26, 33629, Note_on_c, 14, 54, 0
26, 33630, Note_on_c, 14, 52, 80
26, 33659, Note_on_c, 14, 52, 0
26, 33660, Note_on_c, 14, 51, 80
26, 33689, Note_on_c, 14, 51, 0
26, 33690, Note_on_c, 14, 49, 80
26, 33719, Note_on_c, 14, 49, 0
26, 33720, Note_on_c, 14, 47, 80
26, 33749, Note_on_c, 14, 47, 0
26, 33750, Note_on_c, 14, 45, 80
26, 33779, Note_on_c, 14, 45, 0
26, 33780, Note_on_c, 14, 43, 80
26, 33809, Note_on_c, 14, 43, 0
26, 33810, Note_on_c, 14, 42, 80
26, 33839, Note_on_c, 14, 42, 0
26, 33840, Note_on_c, 14, 40, 80
26, 33959, Note_on_c, 14, 40, 0
26, 34260, Note_on_c, 14, 45, 80
26, 34319, Note_on_c, 14, 45, 0
26, 34320, Note_on_c, 14, 45, 80
26, 34379, Note_on_c, 14, 45, 0
26, 34380, Note_on_c, 14, 45, 80
26, 34439, Note_on_c, 14, 45, 0
26, 34440, Note_on_c, 14, 45, 80
26, 34499, Note_on_c, 14, 45, 0
26, 34500, Note_on_c, 14, 47, 80
26, 34529, Note_on_c, 14, 47, 0
26, 34530, Note_on_c, 14, 49, 80
26, 34559, Note_on_c, 14, 49, 0
26, 34560, Note_on_c, 14, 50, 80
26, 34619, Note_on_c, 14, 50, 0
26, 34620, Note_on_c, 14, 38, 80
26, 34679, Note_on_c, 14, 38, 0
26, 34980, Note_on_c, 14, 43, 80
26, 35039, Note_on_c, 14, 43, 0
26, 35040, Note_on_c, 14, 43, 80
26, 35099, Note_on_c, 14, 43, 0
26, 35100, Note_on_c, 14, 43, 80
26, 35159, Note_on_c, 14, 43, 0
26, 35160, Note_on_c, 14, 43, 80
26, 35219, Note_on_c, 14, 43, 0
26, 35220, Note_on_c, 14, 45, 80
26, 35249, Note_on_c, 14, 45, 0
26, 35250, Note_on_c, 14, 47, 80
26, 35279, Note_on_c, 14, 47, 0
26, 35280, Note_on_c, 14, 49, 80
26, 35339, Note_on_c, 14, 49, 0
26, 35340, Note_on_c, 14, 37, 80
26, 35399, Note_on_c, 14, 37, 0
26, 35700, Note_on_c, 14, 42, 80
26, 35759, Note_on_c, 14, 42, 0
26, 35760, Note_on_c, 14, 42, 80
26, 35819, Note_on_c, 14, 42, 0
26, 35820, Note_on_c, 14, 42, 80
26, 35879, Note_on_c, 14, 42, 0
26, 35880, Note_on_c, 14, 42, 80
26, 35939, Note_on_c, 14, 42, 0
26, 35940, Note_on_c, 14, 44, 80
26, 35969, Note_on_c, 14, 44, 0
26, 35970, Note_on_c, 14, 46, 80
26, 35999, Note_on_c, 14, 46, 0
26, 36000, Note_on_c, 14, 47, 80
26, 36059, Note_on_c, 14, 47, 0
26, 36060, Note_on_c, 14, 59, 80
26, 36089, Note_on_c, 14, 59, 0
26, 36090, Note_on_c, 14, 57, 80
26, 36119, Note_on_c, 14, 57, 0
26, 36120, Note_on_c, 14, 55, 80
26, 36149, Note_on_c, 14, 55, 0
26, 36150, Note_on_c, 14, 54, 80
26, 36179, Note_on_c, 14, 54, 0
26, 36180, Note_on_c, 14, 55, 80
26, 36209, Note_on_c, 14, 55, 0
26, 36210, Note_on_c, 14, 54, 80
26, 36239, Note_on_c, 14, 54, 0
26, 36240, Note_on_c, 14, 52, 80
26, 36269, Note_on_c, 14, 52, 0
26, 36270, Note_on_c, 14, 50, 80
26, 36299, Note_on_c, 14, 50, 0
26, 36300, Note_on_c, 14, 52, 80
26, 36329, Note_on_c, 14, 52, 0
26, 36330, Note_on_c, 14, 49, 80
26, 36359, Note_on_c, 14, 49, 0
26, 36360, Note_on_c, 14, 54, 80
26, 36389, Note_on_c, 14, 54, 0
26, 36390, Note_on_c, 14, 42, 80
26, 36419, Note_on_c, 14, 42, 0
26, 36420, Note_on_c, 14, 44, 80
26, 36449, Note_on_c, 14, 44, 0
26, 36450, Note_on_c, 14, 46, 80
26, 36479, Note_on_c, 14, 46, 0
26, 36480, Note_on_c, 14, 47, 80
26, 36509, Note_on_c, 14, 47, 0
26, 36510, Note_on_c, 14, 49, 80
26, 36539, Note_on_c, 14, 49, 0
26, 36540, Note_on_c, 14, 50, 80
26, 36569, Note_on_c, 14, 50, 0
26, 36570, Note_on_c, 14, 52, 80
26, 36599, Note_on_c, 14, 52, 0
26, 36600, Note_on_c, 14, 54, 80
26, 36629, Note_on_c, 14, 54, 0
26, 36630, Note_on_c, 14, 52, 80
26, 36659, Note_on_c, 14, 52, 0
26, 36660, Note_on_c, 14, 54, 80
26, 36689, Note_on_c, 14, 54, 0
26, 36690, Note_on_c, 14, 52, 80
26, 36719, Note_on_c, 14, 52, 0
26, 36720, Note_on_c, 14, 54, 80
26, 36749, Note_on_c, 14, 54, 0
26, 36750, Note_on_c, 14, 42, 80
26, 36779, Note_on_c, 14, 42, 0
26, 36780, Note_on_c, 14, 44, 80
26, 36809, Note_on_c, 14, 44, 0
26, 36810, Note_on_c, 14, 46, 80
26, 36839, Note_on_c, 14, 46, 0
26, 36840, Note_on_c, 14, 47, 80
26, 36869, Note_on_c, 14, 47, 0
26, 36870, Note_on_c, 14, 49, 80
26, 36899, Note_on_c, 14, 49, 0
26, 36900, Note_on_c, 14, 50, 80
26, 36929, Note_on_c, 14, 50, 0
26, 36930, Note_on_c, 14, 52, 80
26, 36959, Note_on_c, 14, 52, 0
26, 36960, Note_on_c, 14, 54, 80
26, 36989, Note_on_c, 14, 54, 0
26, 36990, Note_on_c, 14, 52, 80
26, 37019, Note_on_c, 14, 52, 0
26, 37020, Note_on_c, 14, 54, 80
26, 37049, Note_on_c, 14, 54, 0
26, 37050, Note_on_c, 14, 52, 80
26, 37079, Note_on_c, 14, 52, 0
26, 37080, Note_on_c, 14, 54, 80
26, 37109, Note_on_c, 14, 54, 0
26, 37110, Note_on_c, 14, 42, 80
26, 37139, Note_on_c, 14, 42, 0
26, 37140, Note_on_c, 14, 44, 80
26, 37169, Note_on_c, 14, 44, 0
26, 37170, Note_on_c, 14, 46, 80
26, 37199, Note_on_c, 14, 46, 0
26, 37200, Note_on_c, 14, 47, 80
26, 37229, Note_on_c, 14, 47, 0
26, 37230, Note_on_c, 14, 49, 80
26, 37259, Note_on_c, 14, 49, 0
26, 37260, Note_on_c, 14, 50, 80
26, 37289, Note_on_c, 14, 50, 0
26, 37290, Note_on_c, 14, 52, 80
26, 37319, Note_on_c, 14, 52, 0
26, 37320, Note_on_c, 14, 54, 80
26, 37349, Note_on_c, 14, 54, 0
26, 37350, Note_on_c, 14, 56, 80
26, 37379, Note_on_c, 14, 56, 0
26, 37380, Note_on_c, 14, 58, 80
26, 37409, Note_on_c, 14, 58, 0
26, 37410, Note_on_c, 14, 54, 80
26, 37439, Note_on_c, 14, 54, 0
26, 37440, Note_on_c, 14, 59, 80
26, 37469, Note_on_c, 14, 59, 0
26, 37470, Note_on_c, 14, 50, 80
26, 37499, Note_on_c, 14, 50, 0
26, 37500, Note_on_c, 14, 52, 80
26, 37529, Note_on_c, 14, 52, 0
26, 37530, Note_on_c, 14, 54, 80
26, 37559, Note_on_c, 14, 54, 0
26, 37560, Note_on_c, 14, 55, 80
26, 37589, Note_on_c, 14, 55, 0
26, 37590, Note_on_c, 14, 54, 80
26, 37619, Note_on_c, 14, 54, 0
26, 37620, Note_on_c, 14, 55, 80
26, 37649, Note_on_c, 14, 55, 0
26, 37650, Note_on_c, 14, 52, 80
26, 37679, Note_on_c, 14, 52, 0
26, 37680, Note_on_c, 14, 54, 80
26, 37739, Note_on_c, 14, 54, 0
26, 37740, Note_on_c, 14, 42, 80
26, 37799, Note_on_c, 14, 42, 0
26, 37830, Note_on_c, 14, 49, 80
26, 37859, Note_on_c, 14, 49, 0
26, 37860, Note_on_c, 14, 51, 80
26, 37889, Note_on_c, 14, 51, 0
26, 37890, Note_on_c, 14, 53, 80
26, 37919, Note_on_c, 14, 53, 0
26, 37920, Note_on_c, 14, 54, 80
26, 37949, Note_on_c, 14, 54, 0
26, 37950, Note_on_c, 14, 56, 80
26, 37979, Note_on_c, 14, 56, 0
26, 37980, Note_on_c, 14, 57, 80
26, 38009, Note_on_c, 14, 57, 0
26, 38010, Note_on_c, 14, 59, 80
26, 38039, Note_on_c, 14, 59, 0
26, 38040, Note_on_c, 14, 61, 80
26, 38069, Note_on_c, 14, 61, 0
26, 38070, Note_on_c, 14, 59, 80
26, 38099, Note_on_c, 14, 59, 0
26, 38100, Note_on_c, 14, 61, 80
26, 38129, Note_on_c, 14, 61, 0
26, 38130, Note_on_c, 14, 59, 80
26, 38159, Note_on_c, 14, 59, 0
26, 38160, Note_on_c, 14, 61, 80
26, 38189, Note_on_c, 14, 61, 0
26, 38190, Note_on_c, 14, 49, 80
26, 38219, Note_on_c, 14, 49, 0
26, 38220, Note_on_c, 14, 51, 80
26, 38249, Note_on_c, 14, 51, 0
26, 38250, Note_on_c, 14, 53, 80
26, 38279, Note_on_c, 14, 53, 0
26, 38280, Note_on_c, 14, 54, 80
26, 38309, Note_on_c, 14, 54, 0
26, 38310, Note_on_c, 14, 56, 80
26, 38339, Note_on_c, 14, 56, 0
26, 38340, Note_on_c, 14, 57, 80
26, 38369, Note_on_c, 14, 57, 0
26, 38370, Note_on_c, 14, 59, 80
26, 38399, Note_on_c, 14, 59, 0
26, 38400, Note_on_c, 14, 61, 80
26, 38429, Note_on_c, 14, 61, 0
26, 38430, Note_on_c, 14, 59, 80
26, 38459, Note_on_c, 14, 59, 0
26, 38460, Note_on_c, 14, 61, 80
26, 38489, Note_on_c, 14, 61, 0
26, 38490, Note_on_c, 14, 59, 80
26, 38519, Note_on_c, 14, 59, 0
26, 38520, Note_on_c, 14, 61, 80
26, 38549, Note_on_c, 14, 61, 0
26, 38550, Note_on_c, 14, 49, 80
26, 38579, Note_on_c, 14, 49, 0
26, 38580, Note_on_c, 14, 51, 80
26, 38609, Note_on_c, 14, 51, 0
26, 38610, Note_on_c, 14, 53, 80
26, 38639, Note_on_c, 14, 53, 0
26, 38640, Note_on_c, 14, 54, 80
26, 38669, Note_on_c, 14, 54, 0
26, 38670, Note_on_c, 14, 56, 80
26, 38699, Note_on_c, 14, 56, 0
26, 38700, Note_on_c, 14, 57, 80
26, 38729, Note_on_c, 14, 57, 0
26, 38730, Note_on_c, 14, 59, 80
26, 38759, Note_on_c, 14, 59, 0
26, 38760, Note_on_c, 14, 61, 80
26, 38789, Note_on_c, 14, 61, 0
26, 38790, Note_on_c, 14, 59, 80
26, 38819, Note_on_c, 14, 59, 0
26, 38820, Note_on_c, 14, 61, 80
26, 38849, Note_on_c, 14, 61, 0
26, 38850, Note_on_c, 14, 59, 80
26, 38879, Note_on_c, 14, 59, 0
26, 38880, Note_on_c, 14, 57, 80
26, 38909, Note_on_c, 14, 57, 0
26, 38910, Note_on_c, 14, 56, 80
26, 38939, Note_on_c, 14, 56, 0
26, 38940, Note_on_c, 14, 57, 80
26, 38969, Note_on_c, 14, 57, 0
26, 38970, Note_on_c, 14, 56, 80
26, 38999, Note_on_c, 14, 56, 0
26, 39000, Note_on_c, 14, 54, 80
26, 39029, Note_on_c, 14, 54, 0
26, 39030, Note_on_c, 14, 52, 80
26, 39059, Note_on_c, 14, 52, 0
26, 39060, Note_on_c, 14, 54, 80
26, 39089, Note_on_c, 14, 54, 0
26, 39090, Note_on_c, 14, 52, 80
26, 39119, Note_on_c, 14, 52, 0
26, 39120, Note_on_c, 14, 50, 80
26, 39149, Note_on_c, 14, 50, 0
26, 39150, Note_on_c, 14, 49, 80
26, 39179, Note_on_c, 14, 49, 0
26, 39180, Note_on_c, 14, 50, 80
26, 39209, Note_on_c, 14, 50, 0
26, 39210, Note_on_c, 14, 49, 80
26, 39239, Note_on_c, 14, 49, 0
26, 39240, Note_on_c, 14, 47, 80
26, 39419, Note_on_c, 14, 47, 0
26, 39420, Note_on_c, 14, 45, 80
26, 39449, Note_on_c, 14, 45, 0
26, 39450, Note_on_c, 14, 47, 80
26, 39479, Note_on_c, 14, 47, 0
26, 39480, Note_on_c, 14, 49, 80
26, 39539, Note_on_c, 14, 49, 0
26, 39540, Note_on_c, 14, 37, 80
26, 39599, Note_on_c, 14, 37, 0
26, 39600, Note_on_c, 14, 42, 80
26, 39959, Note_on_c, 14, 42, 0
26, 39960, Note_on_c, 14, 50, 80
26, 40020, Note_on_c, 14, 50, 0
26, 40020, Note_on_c, 14, 38, 80
26, 40080, Note_on_c, 14, 38, 0
26, 40080, Note_on_c, 14, 38, 80
26, 40140, Note_on_c, 14, 38, 0
26, 40140, Note_on_c, 14, 38, 80
26, 40200, Note_on_c, 14, 38, 0
26, 40200, Note_on_c, 14, 38, 80
26, 40260, Note_on_c, 14, 38, 0
26, 40260, Note_on_c, 14, 38, 80
26, 40320, Note_on_c, 14, 38, 0
26, 40320, Note_on_c, 14, 50, 80
26, 40380, Note_on_c, 14, 50, 0
26, 40380, Note_on_c, 14, 38, 80
26, 40440, Note_on_c, 14, 38, 0
26, 40440, Note_on_c, 14, 38, 80
26, 40500, Note_on_c, 14, 38, 0
26, 40500, Note_on_c, 14, 38, 80
26, 40560, Note_on_c, 14, 38, 0
26, 40560, Note_on_c, 14, 38, 80
26, 40620, Note_on_c, 14, 38, 0
26, 40620, Note_on_c, 14, 38, 80
26, 40680, Note_on_c, 14, 38, 0
26, 40680, Note_on_c, 14, 50, 80
26, 40740, Note_on_c, 14, 50, 0
26, 40740, Note_on_c, 14, 38, 80
26, 40800, Note_on_c, 14, 38, 0
26, 40800, Note_on_c, 14, 38, 80
26, 40860, Note_on_c, 14, 38, 0
26, 40860, Note_on_c, 14, 38, 80
26, 40920, Note_on_c, 14, 38, 0
26, 40920, Note_on_c, 14, 38, 80
26, 40980, Note_on_c, 14, 38, 0
26, 40980, Note_on_c, 14, 38, 80
26, 41040, Note_on_c, 14, 38, 0
26, 41040, Note_on_c, 14, 50, 80
26, 41100, Note_on_c, 14, 50, 0
26, 41100, Note_on_c, 14, 38, 80
26, 41160, Note_on_c, 14, 38, 0
26, 41160, Note_on_c, 14, 38, 80
26, 41220, Note_on_c, 14, 38, 0
26, 41220, Note_on_c, 14, 38, 80
26, 41280, Note_on_c, 14, 38, 0
26, 41280, Note_on_c, 14, 38, 80
26, 41340, Note_on_c, 14, 38, 0
26, 41340, Note_on_c, 14, 38, 80
26, 41400, Note_on_c, 14, 38, 0
26, 41430, Note_on_c, 14, 50, 80
26, 41459, Note_on_c, 14, 50, 0
26, 41460, Note_on_c, 14, 52, 80
26, 41489, Note_on_c, 14, 52, 0
26, 41490, Note_on_c, 14, 54, 80
26, 41519, Note_on_c, 14, 54, 0
26, 41520, Note_on_c, 14, 55, 80
26, 41549, Note_on_c, 14, 55, 0
26, 41550, Note_on_c, 14, 57, 80
26, 41579, Note_on_c, 14, 57, 0
26, 41580, Note_on_c, 14, 59, 80
26, 41609, Note_on_c, 14, 59, 0
26, 41610, Note_on_c, 14, 61, 80
26, 41639, Note_on_c, 14, 61, 0
26, 41640, Note_on_c, 14, 62, 80
26, 41669, Note_on_c, 14, 62, 0
26, 41670, Note_on_c, 14, 61, 80
26, 41699, Note_on_c, 14, 61, 0
26, 41700, Note_on_c, 14, 62, 80
26, 41729, Note_on_c, 14, 62, 0
26, 41730, Note_on_c, 14, 61, 80
26, 41759, Note_on_c, 14, 61, 0
26, 41760, Note_on_c, 14, 59, 80
26, 41789, Note_on_c, 14, 59, 0
26, 41790, Note_on_c, 14, 47, 80
26, 41819, Note_on_c, 14, 47, 0
26, 41820, Note_on_c, 14, 49, 80
26, 41849, Note_on_c, 14, 49, 0
26, 41850, Note_on_c, 14, 50, 80
26, 41879, Note_on_c, 14, 50, 0
26, 41880, Note_on_c, 14, 52, 80
26, 41909, Note_on_c, 14, 52, 0
26, 41910, Note_on_c, 14, 54, 80
26, 41939, Note_on_c, 14, 54, 0
26, 41940, Note_on_c, 14, 55, 80
26, 41969, Note_on_c, 14, 55, 0
26, 41970, Note_on_c, 14, 57, 80
26, 41999, Note_on_c, 14, 57, 0
26, 42000, Note_on_c, 14, 59, 80
26, 42029, Note_on_c, 14, 59, 0
26, 42030, Note_on_c, 14, 57, 80
26, 42059, Note_on_c, 14, 57, 0
26, 42060, Note_on_c, 14, 59, 80
26, 42089, Note_on_c, 14, 59, 0
26, 42090, Note_on_c, 14, 57, 80
26, 42119, Note_on_c, 14, 57, 0
26, 42120, Note_on_c, 14, 56, 80
26, 42149, Note_on_c, 14, 56, 0
26, 42150, Note_on_c, 14, 54, 80
26, 42179, Note_on_c, 14, 54, 0
26, 42180, Note_on_c, 14, 56, 80
26, 42209, Note_on_c, 14, 56, 0
26, 42210, Note_on_c, 14, 54, 80
26, 42239, Note_on_c, 14, 54, 0
26, 42240, Note_on_c, 14, 52, 80
26, 42269, Note_on_c, 14, 52, 0
26, 42270, Note_on_c, 14, 50, 80
26, 42299, Note_on_c, 14, 50, 0
26, 42300, Note_on_c, 14, 52, 80
26, 42329, Note_on_c, 14, 52, 0
26, 42330, Note_on_c, 14, 50, 80
26, 42359, Note_on_c, 14, 50, 0
26, 42360, Note_on_c, 14, 49, 80
26, 42389, Note_on_c, 14, 49, 0
26, 42390, Note_on_c, 14, 47, 80
26, 42419, Note_on_c, 14, 47, 0
26, 42420, Note_on_c, 14, 49, 80
26, 42449, Note_on_c, 14, 49, 0
26, 42450, Note_on_c, 14, 47, 80
26, 42479, Note_on_c, 14, 47, 0
26, 42480, Note_on_c, 14, 45, 80
26, 42509, Note_on_c, 14, 45, 0
26, 42510, Note_on_c, 14, 40, 80
26, 42539, Note_on_c, 14, 40, 0
26, 42540, Note_on_c, 14, 42, 80
26, 42569, Note_on_c, 14, 42, 0
26, 42570, Note_on_c, 14, 44, 80
26, 42599, Note_on_c, 14, 44, 0
26, 42600, Note_on_c, 14, 45, 80
26, 42629, Note_on_c, 14, 45, 0
26, 42630, Note_on_c, 14, 47, 80
26, 42659, Note_on_c, 14, 47, 0
26, 42660, Note_on_c, 14, 49, 80
26, 42689, Note_on_c, 14, 49, 0
26, 42690, Note_on_c, 14, 50, 80
26, 42719, Note_on_c, 14, 50, 0
26, 42720, Note_on_c, 14, 52, 80
26, 42749, Note_on_c, 14, 52, 0
26, 42750, Note_on_c, 14, 50, 80
26, 42779, Note_on_c, 14, 50, 0
26, 42780, Note_on_c, 14, 52, 80
26, 42809, Note_on_c, 14, 52, 0
26, 42810, Note_on_c, 14, 40, 80
26, 42839, Note_on_c, 14, 40, 0
26, 42840, Note_on_c, 14, 45, 80
26, 42959, Note_on_c, 14, 45, 0
26, 43590, Note_on_c, 14, 59, 80
26, 43619, Note_on_c, 14, 59, 0
26, 43620, Note_on_c, 14, 57, 80
26, 43649, Note_on_c, 14, 57, 0
26, 43650, Note_on_c, 14, 55, 80
26, 43679, Note_on_c, 14, 55, 0
26, 43680, Note_on_c, 14, 54, 80
26, 43709, Note_on_c, 14, 54, 0
26, 43710, Note_on_c, 14, 52, 80
26, 43739, Note_on_c, 14, 52, 0
26, 43740, Note_on_c, 14, 51, 80
26, 43769, Note_on_c, 14, 51, 0
26, 43770, Note_on_c, 14, 49, 80
26, 43799, Note_on_c, 14, 49, 0
26, 43800, Note_on_c, 14, 47, 80
26, 43829, Note_on_c, 14, 47, 0
26, 43830, Note_on_c, 14, 45, 80
26, 43859, Note_on_c, 14, 45, 0
26, 43860, Note_on_c, 14, 43, 80
26, 43889, Note_on_c, 14, 43, 0
26, 43890, Note_on_c, 14, 42, 80
26, 43919, Note_on_c, 14, 42, 0
26, 43920, Note_on_c, 14, 40, 80
26, 44039, Note_on_c, 14, 40, 0
26, 44670, Note_on_c, 14, 57, 80
26, 44699, Note_on_c, 14, 57, 0
26, 44700, Note_on_c, 14, 55, 80
26, 44729, Note_on_c, 14, 55, 0
26, 44730, Note_on_c, 14, 54, 80
26, 44759, Note_on_c, 14, 54, 0
26, 44760, Note_on_c, 14, 52, 80
26, 44789, Note_on_c, 14, 52, 0
26, 44790, Note_on_c, 14, 50, 80
26, 44819, Note_on_c, 14, 50, 0
26, 44820, Note_on_c, 14, 49, 80
26, 44849, Note_on_c, 14, 49, 0
26, 44850, Note_on_c, 14, 47, 80
26, 44879, Note_on_c, 14, 47, 0
26, 44880, Note_on_c, 14, 45, 80
26, 44909, Note_on_c, 14, 45, 0
26, 44910, Note_on_c, 14, 43, 80
26, 44939, Note_on_c, 14, 43, 0
26, 44940, Note_on_c, 14, 42, 80
26, 44969, Note_on_c, 14, 42, 0
26, 44970, Note_on_c, 14, 40, 80
26, 44999, Note_on_c, 14, 40, 0
26, 45000, Note_on_c, 14, 38, 80
26, 45059, Note_on_c, 14, 38, 0
26, 45060, Note_on_c, 14, 50, 80
26, 45119, Note_on_c, 14, 50, 0
26, 45120, Note_on_c, 14, 50, 80
26, 45179, Note_on_c, 14, 50, 0
26, 45180, Note_on_c, 14, 50, 80
26, 45239, Note_on_c, 14, 50, 0
26, 45240, Note_on_c, 14, 50, 80
26, 45299, Note_on_c, 14, 50, 0
26, 45300, Note_on_c, 14, 52, 80
26, 45329, Note_on_c, 14, 52, 0
26, 45330, Note_on_c, 14, 54, 80
26, 45359, Note_on_c, 14, 54, 0
26, 45360, Note_on_c, 14, 55, 80
26, 45419, Note_on_c, 14, 55, 0
26, 45420, Note_on_c, 14, 49, 80
26, 45479, Note_on_c, 14, 49, 0
26, 45480, Note_on_c, 14, 49, 80
26, 45539, Note_on_c, 14, 49, 0
26, 45540, Note_on_c, 14, 49, 80
26, 45599, Note_on_c, 14, 49, 0
26, 45600, Note_on_c, 14, 49, 80
26, 45659, Note_on_c, 14, 49, 0
26, 45660, Note_on_c, 14, 50, 80
26, 45689, Note_on_c, 14, 50, 0
26, 45690, Note_on_c, 14, 52, 80
26, 45719, Note_on_c, 14, 52, 0
26, 45720, Note_on_c, 14, 54, 80
26, 45779, Note_on_c, 14, 54, 0
26, 45780, Note_on_c, 14, 47, 80
26, 45839, Note_on_c, 14, 47, 0
26, 45840, Note_on_c, 14, 47, 80
26, 45899, Note_on_c, 14, 47, 0
26, 45900, Note_on_c, 14, 47, 80
26, 45959, Note_on_c, 14, 47, 0
26, 45960, Note_on_c, 14, 47, 80
26, 46019, Note_on_c, 14, 47, 0
26, 46020, Note_on_c, 14, 49, 80
26, 46049, Note_on_c, 14, 49, 0
26, 46050, Note_on_c, 14, 50, 80
26, 46079, Note_on_c, 14, 50, 0
26, 46080, Note_on_c, 14, 52, 80
26, 46139, Note_on_c, 14, 52, 0
26, 46140, Note_on_c, 14, 45, 80
26, 46199, Note_on_c, 14, 45, 0
26, 46200, Note_on_c, 14, 45, 80
26, 46259, Note_on_c, 14, 45, 0
26, 46260, Note_on_c, 14, 45, 80
26, 46319, Note_on_c, 14, 45, 0
26, 46320, Note_on_c, 14, 45, 80
26, 46379, Note_on_c, 14, 45, 0
26, 46380, Note_on_c, 14, 47, 80
26, 46409, Note_on_c, 14, 47, 0
26, 46410, Note_on_c, 14, 49, 80
26, 46439, Note_on_c, 14, 49, 0
26, 46440, Note_on_c, 14, 50, 80
26, 46469, Note_on_c, 14, 50, 0
26, 46470, Note_on_c, 14, 57, 80
26, 46499, Note_on_c, 14, 57, 0
26, 46500, Note_on_c, 14, 59, 80
26, 46529, Note_on_c, 14, 59, 0
26, 46530, Note_on_c, 14, 61, 80
26, 46559, Note_on_c, 14, 61, 0
26, 46560, Note_on_c, 14, 62, 80
26, 46589, Note_on_c, 14, 62, 0
26, 46590, Note_on_c, 14, 64, 80
26, 46619, Note_on_c, 14, 64, 0
26, 46620, Note_on_c, 14, 66, 80
26, 46649, Note_on_c, 14, 66, 0
26, 46650, Note_on_c, 14, 64, 80
26, 46679, Note_on_c, 14, 64, 0
26, 46680, Note_on_c, 14, 62, 80
26, 46709, Note_on_c, 14, 62, 0
26, 46710, Note_on_c, 14, 61, 80
26, 46739, Note_on_c, 14, 61, 0
26, 46740, Note_on_c, 14, 59, 80
26, 46769, Note_on_c, 14, 59, 0
26, 46770, Note_on_c, 14, 57, 80
26, 46799, Note_on_c, 14, 57, 0
26, 46800, Note_on_c, 14, 59, 80
26, 46829, Note_on_c, 14, 59, 0
26, 46830, Note_on_c, 14, 60, 80
26, 46859, Note_on_c, 14, 60, 0
26, 46860, Note_on_c, 14, 62, 80
26, 46889, Note_on_c, 14, 62, 0
26, 46890, Note_on_c, 14, 60, 80
26, 46919, Note_on_c, 14, 60, 0
26, 46920, Note_on_c, 14, 59, 80
26, 46949, Note_on_c, 14, 59, 0
26, 46950, Note_on_c, 14, 57, 80
26, 46979, Note_on_c, 14, 57, 0
26, 46980, Note_on_c, 14, 56, 80
26, 47009, Note_on_c, 14, 56, 0
26, 47010, Note_on_c, 14, 54, 80
26, 47039, Note_on_c, 14, 54, 0
26, 47040, Note_on_c, 14, 56, 80
26, 47069, Note_on_c, 14, 56, 0
26, 47070, Note_on_c, 14, 57, 80
26, 47099, Note_on_c, 14, 57, 0
26, 47100, Note_on_c, 14, 59, 80
26, 47129, Note_on_c, 14, 59, 0
26, 47130, Note_on_c, 14, 57, 80
26, 47159, Note_on_c, 14, 57, 0
26, 47160, Note_on_c, 14, 56, 80
26, 47189, Note_on_c, 14, 56, 0
26, 47190, Note_on_c, 14, 54, 80
26, 47219, Note_on_c, 14, 54, 0
26, 47220, Note_on_c, 14, 52, 80
26, 47249, Note_on_c, 14, 52, 0
26, 47250, Note_on_c, 14, 50, 80
26, 47279, Note_on_c, 14, 50, 0
26, 47280, Note_on_c, 14, 52, 80
26, 47309, Note_on_c, 14, 52, 0
26, 47310, Note_on_c, 14, 54, 80
26, 47339, Note_on_c, 14, 54, 0
26, 47340, Note_on_c, 14, 56, 80
26, 47369, Note_on_c, 14, 56, 0
26, 47370, Note_on_c, 14, 54, 80
26, 47399, Note_on_c, 14, 54, 0
26, 47400, Note_on_c, 14, 52, 80
26, 47429, Note_on_c, 14, 52, 0
26, 47430, Note_on_c, 14, 50, 80
26, 47459, Note_on_c, 14, 50, 0
26, 47460, Note_on_c, 14, 49, 80
26, 47489, Note_on_c, 14, 49, 0
26, 47490, Note_on_c, 14, 47, 80
26, 47519, Note_on_c, 14, 47, 0
26, 47520, Note_on_c, 14, 45, 80
26, 47549, Note_on_c, 14, 45, 0
26, 47550, Note_on_c, 14, 45, 80
26, 47579, Note_on_c, 14, 45, 0
26, 47580, Note_on_c, 14, 47, 80
26, 47609, Note_on_c, 14, 47, 0
26, 47610, Note_on_c, 14, 49, 80
26, 47639, Note_on_c, 14, 49, 0
26, 47640, Note_on_c, 14, 50, 80
26, 47669, Note_on_c, 14, 50, 0
26, 47670, Note_on_c, 14, 52, 80
26, 47699, Note_on_c, 14, 52, 0
26, 47700, Note_on_c, 14, 54, 80
26, 47729, Note_on_c, 14, 54, 0
26, 47730, Note_on_c, 14, 55, 80
26, 47759, Note_on_c, 14, 55, 0
26, 47760, Note_on_c, 14, 57, 80
26, 47789, Note_on_c, 14, 57, 0
26, 47790, Note_on_c, 14, 55, 80
26, 47819, Note_on_c, 14, 55, 0
26, 47820, Note_on_c, 14, 57, 80
26, 47849, Note_on_c, 14, 57, 0
26, 47850, Note_on_c, 14, 55, 80
26, 47879, Note_on_c, 14, 55, 0
26, 47880, Note_on_c, 14, 57, 80
26, 47909, Note_on_c, 14, 57, 0
26, 47910, Note_on_c, 14, 45, 80
26, 47939, Note_on_c, 14, 45, 0
26, 47940, Note_on_c, 14, 47, 80
26, 47969, Note_on_c, 14, 47, 0
26, 47970, Note_on_c, 14, 49, 80
26, 47999, Note_on_c, 14, 49, 0
26, 48000, Note_on_c, 14, 50, 80
26, 48029, Note_on_c, 14, 50, 0
26, 48030, Note_on_c, 14, 52, 80
26, 48059, Note_on_c, 14, 52, 0
26, 48060, Note_on_c, 14, 54, 80
26, 48089, Note_on_c, 14, 54, 0
26, 48090, Note_on_c, 14, 55, 80
26, 48119, Note_on_c, 14, 55, 0
26, 48120, Note_on_c, 14, 57, 80
26, 48149, Note_on_c, 14, 57, 0
26, 48150, Note_on_c, 14, 55, 80
26, 48179, Note_on_c, 14, 55, 0
26, 48180, Note_on_c, 14, 57, 80
26, 48209, Note_on_c, 14, 57, 0
26, 48210, Note_on_c, 14, 55, 80
26, 48239, Note_on_c, 14, 55, 0
26, 48240, Note_on_c, 14, 57, 80
26, 48269, Note_on_c, 14, 57, 0
26, 48270, Note_on_c, 14, 45, 80
26, 48299, Note_on_c, 14, 45, 0
26, 48300, Note_on_c, 14, 47, 80
26, 48329, Note_on_c, 14, 47, 0
26, 48330, Note_on_c, 14, 49, 80
26, 48359, Note_on_c, 14, 49, 0
26, 48360, Note_on_c, 14, 50, 80
26, 48389, Note_on_c, 14, 50, 0
26, 48390, Note_on_c, 14, 52, 80
26, 48419, Note_on_c, 14, 52, 0
26, 48420, Note_on_c, 14, 54, 80
26, 48449, Note_on_c, 14, 54, 0
26, 48450, Note_on_c, 14, 55, 80
26, 48479, Note_on_c, 14, 55, 0
26, 48480, Note_on_c, 14, 57, 80
26, 48509, Note_on_c, 14, 57, 0
26, 48510, Note_on_c, 14, 55, 80
26, 48539, Note_on_c, 14, 55, 0
26, 48540, Note_on_c, 14, 57, 80
26, 48569, Note_on_c, 14, 57, 0
26, 48570, Note_on_c, 14, 55, 80
26, 48599, Note_on_c, 14, 55, 0
26, 48600, Note_on_c, 14, 54, 80
26, 48629, Note_on_c, 14, 54, 0
26, 48630, Note_on_c, 14, 50, 80
26, 48659, Note_on_c, 14, 50, 0
26, 48660, Note_on_c, 14, 52, 80
26, 48689, Note_on_c, 14, 52, 0
26, 48690, Note_on_c, 14, 54, 80
26, 48719, Note_on_c, 14, 54, 0
26, 48720, Note_on_c, 14, 55, 80
26, 48749, Note_on_c, 14, 55, 0
26, 48750, Note_on_c, 14, 57, 80
26, 48779, Note_on_c, 14, 57, 0
26, 48780, Note_on_c, 14, 59, 80
26, 48809, Note_on_c, 14, 59, 0
26, 48810, Note_on_c, 14, 61, 80
26, 48839, Note_on_c, 14, 61, 0
26, 48840, Note_on_c, 14, 62, 80
26, 48869, Note_on_c, 14, 62, 0
26, 48870, Note_on_c, 14, 61, 80
26, 48899, Note_on_c, 14, 61, 0
26, 48900, Note_on_c, 14, 62, 80
26, 48929, Note_on_c, 14, 62, 0
26, 48930, Note_on_c, 14, 61, 80
26, 48959, Note_on_c, 14, 61, 0
26, 48960, Note_on_c, 14, 59, 80
26, 48989, Note_on_c, 14, 59, 0
26, 48990, Note_on_c, 14, 47, 80
26, 49019, Note_on_c, 14, 47, 0
26, 49020, Note_on_c, 14, 49, 80
26, 49049, Note_on_c, 14, 49, 0
26, 49050, Note_on_c, 14, 50, 80
26, 49079, Note_on_c, 14, 50, 0
26, 49080, Note_on_c, 14, 52, 80
26, 49109, Note_on_c, 14, 52, 0
26, 49110, Note_on_c, 14, 54, 80
26, 49139, Note_on_c, 14, 54, 0
26, 49140, Note_on_c, 14, 55, 80
26, 49169, Note_on_c, 14, 55, 0
26, 49170, Note_on_c, 14, 57, 80
26, 49199, Note_on_c, 14, 57, 0
26, 49200, Note_on_c, 14, 59, 80
26, 49229, Note_on_c, 14, 59, 0
26, 49230, Note_on_c, 14, 57, 80
26, 49259, Note_on_c, 14, 57, 0
26, 49260, Note_on_c, 14, 59, 80
26, 49289, Note_on_c, 14, 59, 0
26, 49290, Note_on_c, 14, 57, 80
26, 49319, Note_on_c, 14, 57, 0
26, 49320, Note_on_c, 14, 55, 80
26, 49349, Note_on_c, 14, 55, 0
26, 49350, Note_on_c, 14, 54, 80
26, 49379, Note_on_c, 14, 54, 0
26, 49380, Note_on_c, 14, 55, 80
26, 49409, Note_on_c, 14, 55, 0
26, 49410, Note_on_c, 14, 54, 80
26, 49439, Note_on_c, 14, 54, 0
26, 49440, Note_on_c, 14, 52, 80
26, 49469, Note_on_c, 14, 52, 0
26, 49470, Note_on_c, 14, 50, 80
26, 49499, Note_on_c, 14, 50, 0
26, 49500, Note_on_c, 14, 52, 80
26, 49529, Note_on_c, 14, 52, 0
26, 49530, Note_on_c, 14, 50, 80
26, 49559, Note_on_c, 14, 50, 0
26, 49560, Note_on_c, 14, 49, 80
26, 49589, Note_on_c, 14, 49, 0
26, 49590, Note_on_c, 14, 47, 80
26, 49619, Note_on_c, 14, 47, 0
26, 49620, Note_on_c, 14, 49, 80
26, 49649, Note_on_c, 14, 49, 0
26, 49650, Note_on_c, 14, 47, 80
26, 49679, Note_on_c, 14, 47, 0
26, 49680, Note_on_c, 14, 49, 80
26, 49709, Note_on_c, 14, 49, 0
26, 49710, Note_on_c, 14, 45, 80
26, 49739, Note_on_c, 14, 45, 0
26, 49740, Note_on_c, 14, 47, 80
26, 49769, Note_on_c, 14, 47, 0
26, 49770, Note_on_c, 14, 49, 80
26, 49799, Note_on_c, 14, 49, 0
26, 49800, Note_on_c, 14, 50, 80
26, 49829, Note_on_c, 14, 50, 0
26, 49830, Note_on_c, 14, 52, 80
26, 49859, Note_on_c, 14, 52, 0
26, 49860, Note_on_c, 14, 54, 80
26, 49889, Note_on_c, 14, 54, 0
26, 49890, Note_on_c, 14, 55, 80
26, 49919, Note_on_c, 14, 55, 0
26, 49920, Note_on_c, 14, 57, 80
26, 49979, Note_on_c, 14, 57, 0
26, 49980, Note_on_c, 14, 45, 80
26, 50039, Note_on_c, 14, 45, 0
26, 50040, Note_on_c, 14, 50, 80
26, 50069, Note_on_c, 14, 50, 0
26, 50070, Note_on_c, 14, 62, 80
26, 50099, Note_on_c, 14, 62, 0
26, 50100, Note_on_c, 14, 61, 80
26, 50129, Note_on_c, 14, 61, 0
26, 50130, Note_on_c, 14, 59, 80
26, 50159, Note_on_c, 14, 59, 0
26, 50160, Note_on_c, 14, 57, 80
26, 50189, Note_on_c, 14, 57, 0
26, 50190, Note_on_c, 14, 55, 80
26, 50219, Note_on_c, 14, 55, 0
26, 50220, Note_on_c, 14, 54, 80
26, 50249, Note_on_c, 14, 54, 0
26, 50250, Note_on_c, 14, 52, 80
26, 50279, Note_on_c, 14, 52, 0
26, 50280, Note_on_c, 14, 50, 80
26, 50339, Note_on_c, 14, 50, 0
26, 50430, Note_on_c, 14, 59, 80
26, 50459, Note_on_c, 14, 59, 0
26, 50460, Note_on_c, 14, 57, 80
26, 50489, Note_on_c, 14, 57, 0
26, 50490, Note_on_c, 14, 55, 80
26, 50519, Note_on_c, 14, 55, 0
26, 50520, Note_on_c, 14, 54, 80
26, 50549, Note_on_c, 14, 54, 0
26, 50550, Note_on_c, 14, 52, 80
26, 50579, Note_on_c, 14, 52, 0
26, 50580, Note_on_c, 14, 50, 80
26, 50609, Note_on_c, 14, 50, 0
26, 50610, Note_on_c, 14, 49, 80
26, 50639, Note_on_c, 14, 49, 0
26, 50640, Note_on_c, 14, 47, 80
26, 50699, Note_on_c, 14, 47, 0
26, 50790, Note_on_c, 14, 54, 80
26, 50819, Note_on_c, 14, 54, 0
26, 50820, Note_on_c, 14, 52, 80
26, 50849, Note_on_c, 14, 52, 0
26, 50850, Note_on_c, 14, 50, 80
26, 50879, Note_on_c, 14, 50, 0
26, 50880, Note_on_c, 14, 49, 80
26, 50909, Note_on_c, 14, 49, 0
26, 50910, Note_on_c, 14, 47, 80
26, 50939, Note_on_c, 14, 47, 0
26, 50940, Note_on_c, 14, 45, 80
26, 50969, Note_on_c, 14, 45, 0
26, 50970, Note_on_c, 14, 43, 80
26, 50999, Note_on_c, 14, 43, 0
26, 51000, Note_on_c, 14, 42, 80
26, 51059, Note_on_c, 14, 42, 0
26, 51150, Note_on_c, 14, 38, 80
26, 51179, Note_on_c, 14, 38, 0
26, 51180, Note_on_c, 14, 40, 80
26, 51209, Note_on_c, 14, 40, 0
26, 51210, Note_on_c, 14, 42, 80
26, 51239, Note_on_c, 14, 42, 0
26, 51240, Note_on_c, 14, 43, 80
26, 51269, Note_on_c, 14, 43, 0
26, 51270, Note_on_c, 14, 45, 80
26, 51299, Note_on_c, 14, 45, 0
26, 51300, Note_on_c, 14, 47, 80
26, 51329, Note_on_c, 14, 47, 0
26, 51330, Note_on_c, 14, 49, 80
26, 51359, Note_on_c, 14, 49, 0
26, 51360, Note_on_c, 14, 50, 80
26, 51389, Note_on_c, 14, 50, 0
26, 51390, Note_on_c, 14, 49, 80
26, 51419, Note_on_c, 14, 49, 0
26, 51420, Note_on_c, 14, 50, 80
26, 51449, Note_on_c, 14, 50, 0
26, 51450, Note_on_c, 14, 49, 80
26, 51479, Note_on_c, 14, 49, 0
26, 51480, Note_on_c, 14, 50, 80
26, 51509, Note_on_c, 14, 50, 0
26, 51510, Note_on_c, 14, 45, 80
26, 51539, Note_on_c, 14, 45, 0
26, 51540, Note_on_c, 14, 47, 80
26, 51569, Note_on_c, 14, 47, 0
26, 51570, Note_on_c, 14, 49, 80
26, 51599, Note_on_c, 14, 49, 0
26, 51600, Note_on_c, 14, 50, 80
26, 51629, Note_on_c, 14, 50, 0
26, 51630, Note_on_c, 14, 52, 80
26, 51659, Note_on_c, 14, 52, 0
26, 51660, Note_on_c, 14, 54, 80
26, 51689, Note_on_c, 14, 54, 0
26, 51690, Note_on_c, 14, 55, 80
26, 51719, Note_on_c, 14, 55, 0
26, 51720, Note_on_c, 14, 57, 80
26, 51749, Note_on_c, 14, 57, 0
26, 51750, Note_on_c, 14, 56, 80
26, 51779, Note_on_c, 14, 56, 0
26, 51780, Note_on_c, 14, 57, 80
26, 51809, Note_on_c, 14, 57, 0
26, 51810, Note_on_c, 14, 56, 80
26, 51839, Note_on_c, 14, 56, 0
26, 51840, Note_on_c, 14, 57, 80
26, 51869, Note_on_c, 14, 57, 0
26, 51870, Note_on_c, 14, 45, 80
26, 51899, Note_on_c, 14, 45, 0
26, 51900, Note_on_c, 14, 47, 80
26, 51929, Note_on_c, 14, 47, 0
26, 51930, Note_on_c, 14, 49, 80
26, 51959, Note_on_c, 14, 49, 0
26, 51960, Note_on_c, 14, 50, 80
26, 51989, Note_on_c, 14, 50, 0
26, 51990, Note_on_c, 14, 52, 80
26, 52019, Note_on_c, 14, 52, 0
26, 52020, Note_on_c, 14, 54, 80
26, 52049, Note_on_c, 14, 54, 0
26, 52050, Note_on_c, 14, 55, 80
26, 52079, Note_on_c, 14, 55, 0
26, 52080, Note_on_c, 14, 57, 80
26, 52109, Note_on_c, 14, 57, 0
26, 52110, Note_on_c, 14, 56, 80
26, 52139, Note_on_c, 14, 56, 0
26, 52140, Note_on_c, 14, 57, 80
26, 52169, Note_on_c, 14, 57, 0
26, 52170, Note_on_c, 14, 56, 80
26, 52199, Note_on_c, 14, 56, 0
26, 52200, Note_on_c, 14, 57, 80
26, 52229, Note_on_c, 14, 57, 0
26, 52230, Note_on_c, 14, 45, 80
26, 52259, Note_on_c, 14, 45, 0
26, 52260, Note_on_c, 14, 47, 80
26, 52289, Note_on_c, 14, 47, 0
26, 52290, Note_on_c, 14, 49, 80
26, 52319, Note_on_c, 14, 49, 0
26, 52320, Note_on_c, 14, 50, 80
26, 52349, Note_on_c, 14, 50, 0
26, 52350, Note_on_c, 14, 52, 80
26, 52379, Note_on_c, 14, 52, 0
26, 52380, Note_on_c, 14, 54, 80
26, 52409, Note_on_c, 14, 54, 0
26, 52410, Note_on_c, 14, 55, 80
26, 52439, Note_on_c, 14, 55, 0
26, 52440, Note_on_c, 14, 57, 80
26, 52469, Note_on_c, 14, 57, 0
26, 52470, Note_on_c, 14, 56, 80
26, 52499, Note_on_c, 14, 56, 0
26, 52500, Note_on_c, 14, 57, 80
26, 52529, Note_on_c, 14, 57, 0
26, 52530, Note_on_c, 14, 56, 80
26, 52559, Note_on_c, 14, 56, 0
26, 52560, Note_on_c, 14, 57, 80
26, 52589, Note_on_c, 14, 57, 0
26, 52590, Note_on_c, 14, 45, 80
26, 52619, Note_on_c, 14, 45, 0
26, 52620, Note_on_c, 14, 47, 80
26, 52649, Note_on_c, 14, 47, 0
26, 52650, Note_on_c, 14, 49, 80
26, 52679, Note_on_c, 14, 49, 0
26, 52680, Note_on_c, 14, 50, 80
26, 52709, Note_on_c, 14, 50, 0
26, 52710, Note_on_c, 14, 52, 80
26, 52739, Note_on_c, 14, 52, 0
26, 52740, Note_on_c, 14, 54, 80
26, 52769, Note_on_c, 14, 54, 0
26, 52770, Note_on_c, 14, 55, 80
26, 52799, Note_on_c, 14, 55, 0
26, 52800, Note_on_c, 14, 57, 80
26, 52829, Note_on_c, 14, 57, 0
26, 52830, Note_on_c, 14, 56, 80
26, 52859, Note_on_c, 14, 56, 0
26, 52860, Note_on_c, 14, 57, 80
26, 52889, Note_on_c, 14, 57, 0
26, 52890, Note_on_c, 14, 55, 80
26, 52919, Note_on_c, 14, 55, 0
26, 52920, Note_on_c, 14, 54, 80
26, 52949, Note_on_c, 14, 54, 0
26, 52950, Note_on_c, 14, 50, 80
26, 52979, Note_on_c, 14, 50, 0
26, 52980, Note_on_c, 14, 52, 80
26, 53009, Note_on_c, 14, 52, 0
26, 53010, Note_on_c, 14, 54, 80
26, 53039, Note_on_c, 14, 54, 0
26, 53040, Note_on_c, 14, 55, 80
26, 53069, Note_on_c, 14, 55, 0
26, 53070, Note_on_c, 14, 57, 80
26, 53099, Note_on_c, 14, 57, 0
26, 53100, Note_on_c, 14, 59, 80
26, 53129, Note_on_c, 14, 59, 0
26, 53130, Note_on_c, 14, 61, 80
26, 53159, Note_on_c, 14, 61, 0
26, 53160, Note_on_c, 14, 62, 80
26, 53189, Note_on_c, 14, 62, 0
26, 53190, Note_on_c, 14, 61, 80
26, 53219, Note_on_c, 14, 61, 0
26, 53220, Note_on_c, 14, 62, 80
26, 53249, Note_on_c, 14, 62, 0
26, 53250, Note_on_c, 14, 61, 80
26, 53279, Note_on_c, 14, 61, 0
26, 53280, Note_on_c, 14, 59, 80
26, 53309, Note_on_c, 14, 59, 0
26, 53310, Note_on_c, 14, 47, 80
26, 53339, Note_on_c, 14, 47, 0
26, 53340, Note_on_c, 14, 49, 80
26, 53369, Note_on_c, 14, 49, 0
26, 53370, Note_on_c, 14, 50, 80
26, 53399, Note_on_c, 14, 50, 0
26, 53400, Note_on_c, 14, 52, 80
26, 53429, Note_on_c, 14, 52, 0
26, 53430, Note_on_c, 14, 54, 80
26, 53459, Note_on_c, 14, 54, 0
26, 53460, Note_on_c, 14, 55, 80
26, 53489, Note_on_c, 14, 55, 0
26, 53490, Note_on_c, 14, 57, 80
26, 53519, Note_on_c, 14, 57, 0
26, 53520, Note_on_c, 14, 59, 80
26, 53549, Note_on_c, 14, 59, 0
26, 53550, Note_on_c, 14, 57, 80
26, 53579, Note_on_c, 14, 57, 0
26, 53580, Note_on_c, 14, 59, 80
26, 53609, Note_on_c, 14, 59, 0
26, 53610, Note_on_c, 14, 57, 80
26, 53639, Note_on_c, 14, 57, 0
26, 53640, Note_on_c, 14, 55, 80
26, 53669, Note_on_c, 14, 55, 0
26, 53670, Note_on_c, 14, 54, 80
26, 53699, Note_on_c, 14, 54, 0
26, 53700, Note_on_c, 14, 55, 80
26, 53729, Note_on_c, 14, 55, 0
26, 53730, Note_on_c, 14, 54, 80
26, 53759, Note_on_c, 14, 54, 0
26, 53760, Note_on_c, 14, 52, 80
26, 53789, Note_on_c, 14, 52, 0
26, 53790, Note_on_c, 14, 50, 80
26, 53819, Note_on_c, 14, 50, 0
26, 53820, Note_on_c, 14, 52, 80
26, 53849, Note_on_c, 14, 52, 0
26, 53850, Note_on_c, 14, 50, 80
26, 53879, Note_on_c, 14, 50, 0
26, 53880, Note_on_c, 14, 49, 80
26, 53909, Note_on_c, 14, 49, 0
26, 53910, Note_on_c, 14, 47, 80
26, 53939, Note_on_c, 14, 47, 0
26, 53940, Note_on_c, 14, 49, 80
26, 53969, Note_on_c, 14, 49, 0
26, 53970, Note_on_c, 14, 47, 80
26, 53999, Note_on_c, 14, 47, 0
26, 54000, Note_on_c, 14, 49, 80
26, 54029, Note_on_c, 14, 49, 0
26, 54030, Note_on_c, 14, 45, 80
26, 54059, Note_on_c, 14, 45, 0
26, 54060, Note_on_c, 14, 47, 80
26, 54089, Note_on_c, 14, 47, 0
26, 54090, Note_on_c, 14, 49, 80
26, 54119, Note_on_c, 14, 49, 0
26, 54120, Note_on_c, 14, 50, 80
26, 54149, Note_on_c, 14, 50, 0
26, 54150, Note_on_c, 14, 52, 80
26, 54179, Note_on_c, 14, 52, 0
26, 54180, Note_on_c, 14, 54, 80
26, 54209, Note_on_c, 14, 54, 0
26, 54210, Note_on_c, 14, 55, 80
26, 54239, Note_on_c, 14, 55, 0
26, 54240, Note_on_c, 14, 57, 80
26, 54299, Note_on_c, 14, 57, 0
26, 54300, Note_on_c, 14, 45, 80
26, 54359, Note_on_c, 14, 45, 0
26, 54360, Note_on_c, 14, 50, 80
26, 54419, Note_on_c, 14, 50, 0
26, 54420, Note_on_c, 14, 38, 80
26, 54479, Note_on_c, 14, 38, 0
26, 54480, Note_on_c, 14, 38, 80
26, 54539, Note_on_c, 14, 38, 0
26, 54540, Note_on_c, 14, 38, 80
26, 54599, Note_on_c, 14, 38, 0
26, 54600, Note_on_c, 14, 38, 80
26, 54659, Note_on_c, 14, 38, 0
26, 54660, Note_on_c, 14, 38, 80
26, 54719, Note_on_c, 14, 38, 0
26, 54720, Note_on_c, 14, 50, 80
26, 54779, Note_on_c, 14, 50, 0
26, 54780, Note_on_c, 14, 38, 80
26, 54839, Note_on_c, 14, 38, 0
26, 54840, Note_on_c, 14, 38, 80
26, 54899, Note_on_c, 14, 38, 0
26, 54900, Note_on_c, 14, 38, 80
26, 54959, Note_on_c, 14, 38, 0
26, 54960, Note_on_c, 14, 38, 80
26, 55019, Note_on_c, 14, 38, 0
26, 55020, Note_on_c, 14, 38, 80
26, 55079, Note_on_c, 14, 38, 0
26, 55080, Note_on_c, 14, 50, 80
26, 55139, Note_on_c, 14, 50, 0
26, 55140, Note_on_c, 14, 38, 80
26, 55199, Note_on_c, 14, 38, 0
26, 55200, Note_on_c, 14, 38, 80
26, 55259, Note_on_c, 14, 38, 0
26, 55260, Note_on_c, 14, 38, 80
26, 55319, Note_on_c, 14, 38, 0
26, 55320, Note_on_c, 14, 38, 80
26, 55379, Note_on_c, 14, 38, 0
26, 55380, Note_on_c, 14, 38, 80
26, 55439, Note_on_c, 14, 38, 0
26, 55440, Note_on_c, 14, 50, 80
26, 55499, Note_on_c, 14, 50, 0
26, 55500, Note_on_c, 14, 38, 80
26, 55559, Note_on_c, 14, 38, 0
26, 55560, Note_on_c, 14, 38, 80
26, 55619, Note_on_c, 14, 38, 0
26, 55620, Note_on_c, 14, 38, 80
26, 55679, Note_on_c, 14, 38, 0
26, 55680, Note_on_c, 14, 38, 80
26, 55739, Note_on_c, 14, 38, 0
26, 55740, Note_on_c, 14, 38, 80
26, 55799, Note_on_c, 14, 38, 0
26, 55830, Note_on_c, 14, 50, 80
26, 55859, Note_on_c, 14, 50, 0
26, 55860, Note_on_c, 14, 52, 80
26, 55889, Note_on_c, 14, 52, 0
26, 55890, Note_on_c, 14, 54, 80
26, 55919, Note_on_c, 14, 54, 0
26, 55920, Note_on_c, 14, 55, 80
26, 55949, Note_on_c, 14, 55, 0
26, 55950, Note_on_c, 14, 57, 80
26, 55979, Note_on_c, 14, 57, 0
26, 55980, Note_on_c, 14, 59, 80
26, 56009, Note_on_c, 14, 59, 0
26, 56010, Note_on_c, 14, 61, 80
26, 56039, Note_on_c, 14, 61, 0
26, 56040, Note_on_c, 14, 62, 80
26, 56069, Note_on_c, 14, 62, 0
26, 56070, Note_on_c, 14, 61, 80
26, 56099, Note_on_c, 14, 61, 0
26, 56100, Note_on_c, 14, 62, 80
26, 56129, Note_on_c, 14, 62, 0
26, 56130, Note_on_c, 14, 61, 80
26, 56159, Note_on_c, 14, 61, 0
26, 56160, Note_on_c, 14, 59, 80
26, 56189, Note_on_c, 14, 59, 0
26, 56190, Note_on_c, 14, 47, 80
26, 56219, Note_on_c, 14, 47, 0
26, 56220, Note_on_c, 14, 49, 80
26, 56249, Note_on_c, 14, 49, 0
26, 56250, Note_on_c, 14, 50, 80
26, 56279, Note_on_c, 14, 50, 0
26, 56280, Note_on_c, 14, 52, 80
26, 56309, Note_on_c, 14, 52, 0
26, 56310, Note_on_c, 14, 54, 80
26, 56339, Note_on_c, 14, 54, 0
26, 56340, Note_on_c, 14, 55, 80
26, 56369, Note_on_c, 14, 55, 0
26, 56370, Note_on_c, 14, 57, 80
26, 56399, Note_on_c, 14, 57, 0
26, 56400, Note_on_c, 14, 59, 80
26, 56429, Note_on_c, 14, 59, 0
26, 56430, Note_on_c, 14, 57, 80
26, 56459, Note_on_c, 14, 57, 0
26, 56460, Note_on_c, 14, 59, 80
26, 56489, Note_on_c, 14, 59, 0
26, 56490, Note_on_c, 14, 57, 80
26, 56519, Note_on_c, 14, 57, 0
26, 56520, Note_on_c, 14, 56, 80
26, 56549, Note_on_c, 14, 56, 0
26, 56550, Note_on_c, 14, 54, 80
26, 56579, Note_on_c, 14, 54, 0
26, 56580, Note_on_c, 14, 56, 80
26, 56609, Note_on_c, 14, 56, 0
26, 56610, Note_on_c, 14, 54, 80
26, 56639, Note_on_c, 14, 54, 0
26, 56640, Note_on_c, 14, 52, 80
26, 56669, Note_on_c, 14, 52, 0
26, 56670, Note_on_c, 14, 50, 80
26, 56699, Note_on_c, 14, 50, 0
26, 56700, Note_on_c, 14, 52, 80
26, 56729, Note_on_c, 14, 52, 0
26, 56730, Note_on_c, 14, 50, 80
26, 56759, Note_on_c, 14, 50, 0
26, 56760, Note_on_c, 14, 49, 80
26, 56789, Note_on_c, 14, 49, 0
26, 56790, Note_on_c, 14, 47, 80
26, 56819, Note_on_c, 14, 47, 0
26, 56820, Note_on_c, 14, 49, 80
26, 56849, Note_on_c, 14, 49, 0
26, 56850, Note_on_c, 14, 47, 80
26, 56879, Note_on_c, 14, 47, 0
26, 56880, Note_on_c, 14, 45, 80
26, 56909, Note_on_c, 14, 45, 0
26, 56910, Note_on_c, 14, 40, 80
26, 56939, Note_on_c, 14, 40, 0
26, 56940, Note_on_c, 14, 42, 80
26, 56969, Note_on_c, 14, 42, 0
26, 56970, Note_on_c, 14, 44, 80
26, 56999, Note_on_c, 14, 44, 0
26, 57000, Note_on_c, 14, 45, 80
26, 57029, Note_on_c, 14, 45, 0
26, 57030, Note_on_c, 14, 47, 80
26, 57059, Note_on_c, 14, 47, 0
26, 57060, Note_on_c, 14, 49, 80
26, 57089, Note_on_c, 14, 49, 0
26, 57090, Note_on_c, 14, 50, 80
26, 57119, Note_on_c, 14, 50, 0
26, 57120, Note_on_c, 14, 52, 80
26, 57179, Note_on_c, 14, 52, 0
26, 57180, Note_on_c, 14, 40, 80
26, 57239, Note_on_c, 14, 40, 0
26, 57240, Note_on_c, 14, 45, 80
26, 57269, Note_on_c, 14, 45, 0
26, 57270, Note_on_c, 14, 52, 80
26, 57299, Note_on_c, 14, 52, 0
26, 57300, Note_on_c, 14, 54, 80
26, 57329, Note_on_c, 14, 54, 0
26, 57330, Note_on_c, 14, 56, 80
26, 57359, Note_on_c, 14, 56, 0
26, 57360, Note_on_c, 14, 57, 80
26, 57389, Note_on_c, 14, 57, 0
26, 57390, Note_on_c, 14, 59, 80
26, 57419, Note_on_c, 14, 59, 0
26, 57420, Note_on_c, 14, 61, 80
26, 57449, Note_on_c, 14, 61, 0
26, 57450, Note_on_c, 14, 59, 80
26, 57479, Note_on_c, 14, 59, 0
26, 57480, Note_on_c, 14, 57, 80
26, 57509, Note_on_c, 14, 57, 0
26, 57510, Note_on_c, 14, 56, 80
26, 57539, Note_on_c, 14, 56, 0
26, 57540, Note_on_c, 14, 54, 80
26, 57569, Note_on_c, 14, 54, 0
26, 57570, Note_on_c, 14, 52, 80
26, 57599, Note_on_c, 14, 52, 0
26, 57600, Note_on_c, 14, 54, 80
26, 57629, Note_on_c, 14, 54, 0
26, 57630, Note_on_c, 14, 56, 80
26, 57659, Note_on_c, 14, 56, 0
26, 57660, Note_on_c, 14, 57, 80
26, 57689, Note_on_c, 14, 57, 0
26, 57690, Note_on_c, 14, 56, 80
26, 57719, Note_on_c, 14, 56, 0
26, 57720, Note_on_c, 14, 54, 80
26, 57749, Note_on_c, 14, 54, 0
26, 57750, Note_on_c, 14, 52, 80
26, 57779, Note_on_c, 14, 52, 0
26, 57780, Note_on_c, 14, 51, 80
26, 57809, Note_on_c, 14, 51, 0
26, 57810, Note_on_c, 14, 49, 80
26, 57839, Note_on_c, 14, 49, 0
26, 57840, Note_on_c, 14, 51, 80
26, 57869, Note_on_c, 14, 51, 0
26, 57870, Note_on_c, 14, 52, 80
26, 57899, Note_on_c, 14, 52, 0
26, 57900, Note_on_c, 14, 54, 80
26, 57929, Note_on_c, 14, 54, 0
26, 57930, Note_on_c, 14, 52, 80
26, 57959, Note_on_c, 14, 52, 0
26, 57960, Note_on_c, 14, 51, 80
26, 57989, Note_on_c, 14, 51, 0
26, 57990, Note_on_c, 14, 49, 80
26, 58019, Note_on_c, 14, 49, 0
26, 58020, Note_on_c, 14, 47, 80
26, 58049, Note_on_c, 14, 47, 0
26, 58050, Note_on_c, 14, 45, 80
26, 58079, Note_on_c, 14, 45, 0
26, 58080, Note_on_c, 14, 47, 80
26, 58109, Note_on_c, 14, 47, 0
26, 58110, Note_on_c, 14, 49, 80
26, 58139, Note_on_c, 14, 49, 0
26, 58140, Note_on_c, 14, 51, 80
26, 58169, Note_on_c, 14, 51, 0
26, 58170, Note_on_c, 14, 49, 80
26, 58199, Note_on_c, 14, 49, 0
26, 58200, Note_on_c, 14, 47, 80
26, 58229, Note_on_c, 14, 47, 0
26, 58230, Note_on_c, 14, 45, 80
26, 58259, Note_on_c, 14, 45, 0
26, 58260, Note_on_c, 14, 44, 80
26, 58289, Note_on_c, 14, 44, 0
26, 58290, Note_on_c, 14, 42, 80
26, 58319, Note_on_c, 14, 42, 0
26, 58320, Note_on_c, 14, 40, 80
26, 58349, Note_on_c, 14, 40, 0
26, 58350, Note_on_c, 14, 40, 80
26, 58379, Note_on_c, 14, 40, 0
26, 58380, Note_on_c, 14, 42, 80
26, 58409, Note_on_c, 14, 42, 0
26, 58410, Note_on_c, 14, 44, 80
26, 58439, Note_on_c, 14, 44, 0
26, 58440, Note_on_c, 14, 45, 80
26, 58469, Note_on_c, 14, 45, 0
26, 58470, Note_on_c, 14, 47, 80
26, 58499, Note_on_c, 14, 47, 0
26, 58500, Note_on_c, 14, 49, 80
26, 58529, Note_on_c, 14, 49, 0
26, 58530, Note_on_c, 14, 50, 80
26, 58559, Note_on_c, 14, 50, 0
26, 58560, Note_on_c, 14, 52, 80
26, 58589, Note_on_c, 14, 52, 0
26, 58590, Note_on_c, 14, 50, 80
26, 58619, Note_on_c, 14, 50, 0
26, 58620, Note_on_c, 14, 52, 80
26, 58649, Note_on_c, 14, 52, 0
26, 58650, Note_on_c, 14, 50, 80
26, 58679, Note_on_c, 14, 50, 0
26, 58680, Note_on_c, 14, 52, 80
26, 58709, Note_on_c, 14, 52, 0
26, 58710, Note_on_c, 14, 40, 80
26, 58739, Note_on_c, 14, 40, 0
26, 58740, Note_on_c, 14, 42, 80
26, 58769, Note_on_c, 14, 42, 0
26, 58770, Note_on_c, 14, 44, 80
26, 58799, Note_on_c, 14, 44, 0
26, 58800, Note_on_c, 14, 45, 80
26, 58829, Note_on_c, 14, 45, 0
26, 58830, Note_on_c, 14, 47, 80
26, 58859, Note_on_c, 14, 47, 0
26, 58860, Note_on_c, 14, 49, 80
26, 58889, Note_on_c, 14, 49, 0
26, 58890, Note_on_c, 14, 50, 80
26, 58919, Note_on_c, 14, 50, 0
26, 58920, Note_on_c, 14, 52, 80
26, 58949, Note_on_c, 14, 52, 0
26, 58950, Note_on_c, 14, 50, 80
26, 58979, Note_on_c, 14, 50, 0
26, 58980, Note_on_c, 14, 52, 80
26, 59009, Note_on_c, 14, 52, 0
26, 59010, Note_on_c, 14, 50, 80
26, 59039, Note_on_c, 14, 50, 0
26, 59040, Note_on_c, 14, 52, 80
26, 59069, Note_on_c, 14, 52, 0
26, 59070, Note_on_c, 14, 40, 80
26, 59099, Note_on_c, 14, 40, 0
26, 59100, Note_on_c, 14, 42, 80
26, 59129, Note_on_c, 14, 42, 0
26, 59130, Note_on_c, 14, 44, 80
26, 59159, Note_on_c, 14, 44, 0
26, 59160, Note_on_c, 14, 45, 80
26, 59189, Note_on_c, 14, 45, 0
26, 59190, Note_on_c, 14, 47, 80
26, 59219, Note_on_c, 14, 47, 0
26, 59220, Note_on_c, 14, 49, 80
26, 59249, Note_on_c, 14, 49, 0
26, 59250, Note_on_c, 14, 50, 80
26, 59279, Note_on_c, 14, 50, 0
26, 59280, Note_on_c, 14, 52, 80
26, 59309, Note_on_c, 14, 52, 0
26, 59310, Note_on_c, 14, 50, 80
26, 59339, Note_on_c, 14, 50, 0
26, 59340, Note_on_c, 14, 52, 80
26, 59369, Note_on_c, 14, 52, 0
26, 59370, Note_on_c, 14, 50, 80
26, 59399, Note_on_c, 14, 50, 0
26, 59400, Note_on_c, 14, 49, 80
26, 59429, Note_on_c, 14, 49, 0
26, 59430, Note_on_c, 14, 45, 80
26, 59459, Note_on_c, 14, 45, 0
26, 59460, Note_on_c, 14, 47, 80
26, 59489, Note_on_c, 14, 47, 0
26, 59490, Note_on_c, 14, 49, 80
26, 59519, Note_on_c, 14, 49, 0
26, 59520, Note_on_c, 14, 50, 80
26, 59549, Note_on_c, 14, 50, 0
26, 59550, Note_on_c, 14, 52, 80
26, 59579, Note_on_c, 14, 52, 0
26, 59580, Note_on_c, 14, 54, 80
26, 59609, Note_on_c, 14, 54, 0
26, 59610, Note_on_c, 14, 56, 80
26, 59639, Note_on_c, 14, 56, 0
26, 59640, Note_on_c, 14, 57, 80
26, 59669, Note_on_c, 14, 57, 0
26, 59670, Note_on_c, 14, 56, 80
26, 59699, Note_on_c, 14, 56, 0
26, 59700, Note_on_c, 14, 57, 80
26, 59729, Note_on_c, 14, 57, 0
26, 59730, Note_on_c, 14, 56, 80
26, 59759, Note_on_c, 14, 56, 0
26, 59760, Note_on_c, 14, 54, 80
26, 59789, Note_on_c, 14, 54, 0
26, 59790, Note_on_c, 14, 42, 80
26, 59819, Note_on_c, 14, 42, 0
26, 59820, Note_on_c, 14, 44, 80
26, 59849, Note_on_c, 14, 44, 0
26, 59850, Note_on_c, 14, 45, 80
26, 59879, Note_on_c, 14, 45, 0
26, 59880, Note_on_c, 14, 47, 80
26, 59909, Note_on_c, 14, 47, 0
26, 59910, Note_on_c, 14, 49, 80
26, 59939, Note_on_c, 14, 49, 0
26, 59940, Note_on_c, 14, 50, 80
26, 59969, Note_on_c, 14, 50, 0
26, 59970, Note_on_c, 14, 52, 80
26, 59999, Note_on_c, 14, 52, 0
26, 60000, Note_on_c, 14, 54, 80
26, 60029, Note_on_c, 14, 54, 0
26, 60030, Note_on_c, 14, 52, 80
26, 60059, Note_on_c, 14, 52, 0
26, 60060, Note_on_c, 14, 54, 80
26, 60089, Note_on_c, 14, 54, 0
26, 60090, Note_on_c, 14, 52, 80
26, 60119, Note_on_c, 14, 52, 0
26, 60120, Note_on_c, 14, 50, 80
26, 60149, Note_on_c, 14, 50, 0
26, 60150, Note_on_c, 14, 49, 80
26, 60179, Note_on_c, 14, 49, 0
26, 60180, Note_on_c, 14, 50, 80
26, 60209, Note_on_c, 14, 50, 0
26, 60210, Note_on_c, 14, 49, 80
26, 60239, Note_on_c, 14, 49, 0
26, 60240, Note_on_c, 14, 47, 80
26, 60269, Note_on_c, 14, 47, 0
26, 60270, Note_on_c, 14, 45, 80
26, 60299, Note_on_c, 14, 45, 0
26, 60300, Note_on_c, 14, 47, 80
26, 60329, Note_on_c, 14, 47, 0
26, 60330, Note_on_c, 14, 45, 80
26, 60359, Note_on_c, 14, 45, 0
26, 60360, Note_on_c, 14, 44, 80
26, 60389, Note_on_c, 14, 44, 0
26, 60390, Note_on_c, 14, 42, 80
26, 60419, Note_on_c, 14, 42, 0
26, 60420, Note_on_c, 14, 44, 80
26, 60449, Note_on_c, 14, 44, 0
26, 60450, Note_on_c, 14, 42, 80
26, 60479, Note_on_c, 14, 42, 0
26, 60480, Note_on_c, 14, 44, 80
26, 60509, Note_on_c, 14, 44, 0
26, 60510, Note_on_c, 14, 40, 80
26, 60539, Note_on_c, 14, 40, 0
26, 60540, Note_on_c, 14, 42, 80
26, 60569, Note_on_c, 14, 42, 0
26, 60570, Note_on_c, 14, 44, 80
26, 60599, Note_on_c, 14, 44, 0
26, 60600, Note_on_c, 14, 45, 80
26, 60629, Note_on_c, 14, 45, 0
26, 60630, Note_on_c, 14, 47, 80
26, 60659, Note_on_c, 14, 47, 0
26, 60660, Note_on_c, 14, 49, 80
26, 60689, Note_on_c, 14, 49, 0
26, 60690, Note_on_c, 14, 50, 80
26, 60719, Note_on_c, 14, 50, 0
26, 60720, Note_on_c, 14, 52, 80
26, 60779, Note_on_c, 14, 52, 0
26, 60780, Note_on_c, 14, 40, 80
26, 60839, Note_on_c, 14, 40, 0
26, 60840, Note_on_c, 14, 45, 80
26, 60959, Note_on_c, 14, 45, 0
26, 61590, Note_on_c, 14, 59, 80
26, 61619, Note_on_c, 14, 59, 0
26, 61620, Note_on_c, 14, 57, 80
26, 61649, Note_on_c, 14, 57, 0
26, 61650, Note_on_c, 14, 55, 80
26, 61679, Note_on_c, 14, 55, 0
26, 61680, Note_on_c, 14, 54, 80
26, 61709, Note_on_c, 14, 54, 0
26, 61710, Note_on_c, 14, 52, 80
26, 61739, Note_on_c, 14, 52, 0
26, 61740, Note_on_c, 14, 51, 80
26, 61769, Note_on_c, 14, 51, 0
26, 61770, Note_on_c, 14, 49, 80
26, 61799, Note_on_c, 14, 49, 0
26, 61800, Note_on_c, 14, 47, 80
26, 61829, Note_on_c, 14, 47, 0
26, 61830, Note_on_c, 14, 45, 80
26, 61859, Note_on_c, 14, 45, 0
26, 61860, Note_on_c, 14, 43, 80
26, 61889, Note_on_c, 14, 43, 0
26, 61890, Note_on_c, 14, 42, 80
26, 61919, Note_on_c, 14, 42, 0
26, 61920, Note_on_c, 14, 40, 80
26, 62039, Note_on_c, 14, 40, 0
26, 62670, Note_on_c, 14, 57, 80
26, 62699, Note_on_c, 14, 57, 0
26, 62700, Note_on_c, 14, 55, 80
26, 62729, Note_on_c, 14, 55, 0
26, 62730, Note_on_c, 14, 54, 80
26, 62759, Note_on_c, 14, 54, 0
26, 62760, Note_on_c, 14, 52, 80
26, 62789, Note_on_c, 14, 52, 0
26, 62790, Note_on_c, 14, 50, 80
26, 62819, Note_on_c, 14, 50, 0
26, 62820, Note_on_c, 14, 49, 80
26, 62849, Note_on_c, 14, 49, 0
26, 62850, Note_on_c, 14, 47, 80
26, 62879, Note_on_c, 14, 47, 0
26, 62880, Note_on_c, 14, 45, 80
26, 62909, Note_on_c, 14, 45, 0
26, 62910, Note_on_c, 14, 43, 80
26, 62939, Note_on_c, 14, 43, 0
26, 62940, Note_on_c, 14, 42, 80
26, 62969, Note_on_c, 14, 42, 0
26, 62970, Note_on_c, 14, 40, 80
26, 62999, Note_on_c, 14, 40, 0
26, 63000, Note_on_c, 14, 38, 80
26, 63059, Note_on_c, 14, 38, 0
26, 63060, Note_on_c, 14, 50, 80
26, 63119, Note_on_c, 14, 50, 0
26, 63120, Note_on_c, 14, 50, 80
26, 63179, Note_on_c, 14, 50, 0
26, 63180, Note_on_c, 14, 50, 80
26, 63239, Note_on_c, 14, 50, 0
26, 63240, Note_on_c, 14, 50, 80
26, 63299, Note_on_c, 14, 50, 0
26, 63300, Note_on_c, 14, 52, 80
26, 63329, Note_on_c, 14, 52, 0
26, 63330, Note_on_c, 14, 54, 80
26, 63359, Note_on_c, 14, 54, 0
26, 63360, Note_on_c, 14, 55, 80
26, 63419, Note_on_c, 14, 55, 0
26, 63420, Note_on_c, 14, 49, 80
26, 63479, Note_on_c, 14, 49, 0
26, 63480, Note_on_c, 14, 49, 80
26, 63539, Note_on_c, 14, 49, 0
26, 63540, Note_on_c, 14, 49, 80
26, 63599, Note_on_c, 14, 49, 0
26, 63600, Note_on_c, 14, 49, 80
26, 63659, Note_on_c, 14, 49, 0
26, 63660, Note_on_c, 14, 50, 80
26, 63689, Note_on_c, 14, 50, 0
26, 63690, Note_on_c, 14, 52, 80
26, 63719, Note_on_c, 14, 52, 0
26, 63720, Note_on_c, 14, 54, 80
26, 63779, Note_on_c, 14, 54, 0
26, 63780, Note_on_c, 14, 47, 80
26, 63839, Note_on_c, 14, 47, 0
26, 63840, Note_on_c, 14, 47, 80
26, 63899, Note_on_c, 14, 47, 0
26, 63900, Note_on_c, 14, 47, 80
26, 63959, Note_on_c, 14, 47, 0
26, 63960, Note_on_c, 14, 47, 80
26, 64019, Note_on_c, 14, 47, 0
26, 64020, Note_on_c, 14, 49, 80
26, 64049, Note_on_c, 14, 49, 0
26, 64050, Note_on_c, 14, 50, 80
26, 64079, Note_on_c, 14, 50, 0
26, 64080, Note_on_c, 14, 52, 80
26, 64139, Note_on_c, 14, 52, 0
26, 64140, Note_on_c, 14, 45, 80
26, 64199, Note_on_c, 14, 45, 0
26, 64200, Note_on_c, 14, 45, 80
26, 64259, Note_on_c, 14, 45, 0
26, 64260, Note_on_c, 14, 45, 80
26, 64319, Note_on_c, 14, 45, 0
26, 64320, Note_on_c, 14, 45, 80
26, 64379, Note_on_c, 14, 45, 0
26, 64380, Note_on_c, 14, 47, 80
26, 64409, Note_on_c, 14, 47, 0
26, 64410, Note_on_c, 14, 49, 80
26, 64439, Note_on_c, 14, 49, 0
26, 64440, Note_on_c, 14, 50, 80
26, 64469, Note_on_c, 14, 50, 0
26, 64470, Note_on_c, 14, 57, 80
26, 64499, Note_on_c, 14, 57, 0
26, 64500, Note_on_c, 14, 59, 80
26, 64529, Note_on_c, 14, 59, 0
26, 64530, Note_on_c, 14, 61, 80
26, 64559, Note_on_c, 14, 61, 0
26, 64560, Note_on_c, 14, 62, 80
26, 64589, Note_on_c, 14, 62, 0
26, 64590, Note_on_c, 14, 64, 80
26, 64619, Note_on_c, 14, 64, 0
26, 64620, Note_on_c, 14, 66, 80
26, 64649, Note_on_c, 14, 66, 0
26, 64650, Note_on_c, 14, 64, 80
26, 64679, Note_on_c, 14, 64, 0
26, 64680, Note_on_c, 14, 62, 80
26, 64709, Note_on_c, 14, 62, 0
26, 64710, Note_on_c, 14, 61, 80
26, 64739, Note_on_c, 14, 61, 0
26, 64740, Note_on_c, 14, 59, 80
26, 64769, Note_on_c, 14, 59, 0
26, 64770, Note_on_c, 14, 57, 80
26, 64799, Note_on_c, 14, 57, 0
26, 64800, Note_on_c, 14, 59, 80
26, 64829, Note_on_c, 14, 59, 0
26, 64830, Note_on_c, 14, 60, 80
26, 64859, Note_on_c, 14, 60, 0
26, 64860, Note_on_c, 14, 62, 80
26, 64889, Note_on_c, 14, 62, 0
26, 64890, Note_on_c, 14, 60, 80
26, 64919, Note_on_c, 14, 60, 0
26, 64920, Note_on_c, 14, 59, 80
26, 64949, Note_on_c, 14, 59, 0
26, 64950, Note_on_c, 14, 57, 80
26, 64979, Note_on_c, 14, 57, 0
26, 64980, Note_on_c, 14, 56, 80
26, 65009, Note_on_c, 14, 56, 0
26, 65010, Note_on_c, 14, 54, 80
26, 65039, Note_on_c, 14, 54, 0
26, 65040, Note_on_c, 14, 56, 80
26, 65069, Note_on_c, 14, 56, 0
26, 65070, Note_on_c, 14, 57, 80
26, 65099, Note_on_c, 14, 57, 0
26, 65100, Note_on_c, 14, 59, 80
26, 65129, Note_on_c, 14, 59, 0
26, 65130, Note_on_c, 14, 57, 80
26, 65159, Note_on_c, 14, 57, 0
26, 65160, Note_on_c, 14, 56, 80
26, 65189, Note_on_c, 14, 56, 0
26, 65190, Note_on_c, 14, 54, 80
26, 65219, Note_on_c, 14, 54, 0
26, 65220, Note_on_c, 14, 52, 80
26, 65249, Note_on_c, 14, 52, 0
26, 65250, Note_on_c, 14, 50, 80
26, 65279, Note_on_c, 14, 50, 0
26, 65280, Note_on_c, 14, 52, 80
26, 65309, Note_on_c, 14, 52, 0
26, 65310, Note_on_c, 14, 54, 80
26, 65339, Note_on_c, 14, 54, 0
26, 65340, Note_on_c, 14, 56, 80
26, 65369, Note_on_c, 14, 56, 0
26, 65370, Note_on_c, 14, 54, 80
26, 65399, Note_on_c, 14, 54, 0
26, 65400, Note_on_c, 14, 52, 80
26, 65429, Note_on_c, 14, 52, 0
26, 65430, Note_on_c, 14, 50, 80
26, 65459, Note_on_c, 14, 50, 0
26, 65460, Note_on_c, 14, 49, 80
26, 65489, Note_on_c, 14, 49, 0
26, 65490, Note_on_c, 14, 47, 80
26, 65519, Note_on_c, 14, 47, 0
26, 65520, Note_on_c, 14, 45, 80
26, 65549, Note_on_c, 14, 45, 0
26, 65550, Note_on_c, 14, 45, 80
26, 65579, Note_on_c, 14, 45, 0
26, 65580, Note_on_c, 14, 47, 80
26, 65609, Note_on_c, 14, 47, 0
26, 65610, Note_on_c, 14, 49, 80
26, 65639, Note_on_c, 14, 49, 0
26, 65640, Note_on_c, 14, 50, 80
26, 65669, Note_on_c, 14, 50, 0
26, 65670, Note_on_c, 14, 52, 80
26, 65699, Note_on_c, 14, 52, 0
26, 65700, Note_on_c, 14, 54, 80
26, 65729, Note_on_c, 14, 54, 0
26, 65730, Note_on_c, 14, 55, 80
26, 65759, Note_on_c, 14, 55, 0
26, 65760, Note_on_c, 14, 57, 80
26, 65789, Note_on_c, 14, 57, 0
26, 65790, Note_on_c, 14, 55, 80
26, 65819, Note_on_c, 14, 55, 0
26, 65820, Note_on_c, 14, 57, 80
26, 65849, Note_on_c, 14, 57, 0
26, 65850, Note_on_c, 14, 55, 80
26, 65879, Note_on_c, 14, 55, 0
26, 65880, Note_on_c, 14, 57, 80
26, 65909, Note_on_c, 14, 57, 0
26, 65910, Note_on_c, 14, 45, 80
26, 65939, Note_on_c, 14, 45, 0
26, 65940, Note_on_c, 14, 47, 80
26, 65969, Note_on_c, 14, 47, 0
26, 65970, Note_on_c, 14, 49, 80
26, 65999, Note_on_c, 14, 49, 0
26, 66000, Note_on_c, 14, 50, 80
26, 66029, Note_on_c, 14, 50, 0
26, 66030, Note_on_c, 14, 52, 80
26, 66059, Note_on_c, 14, 52, 0
26, 66060, Note_on_c, 14, 54, 80
26, 66089, Note_on_c, 14, 54, 0
26, 66090, Note_on_c, 14, 55, 80
26, 66119, Note_on_c, 14, 55, 0
26, 66120, Note_on_c, 14, 57, 80
26, 66149, Note_on_c, 14, 57, 0
26, 66150, Note_on_c, 14, 55, 80
26, 66179, Note_on_c, 14, 55, 0
26, 66180, Note_on_c, 14, 57, 80
26, 66209, Note_on_c, 14, 57, 0
26, 66210, Note_on_c, 14, 55, 80
26, 66239, Note_on_c, 14, 55, 0
26, 66240, Note_on_c, 14, 57, 80
26, 66269, Note_on_c, 14, 57, 0
26, 66270, Note_on_c, 14, 45, 80
26, 66299, Note_on_c, 14, 45, 0
26, 66300, Note_on_c, 14, 47, 80
26, 66329, Note_on_c, 14, 47, 0
26, 66330, Note_on_c, 14, 49, 80
26, 66359, Note_on_c, 14, 49, 0
26, 66360, Note_on_c, 14, 50, 80
26, 66389, Note_on_c, 14, 50, 0
26, 66390, Note_on_c, 14, 52, 80
26, 66419, Note_on_c, 14, 52, 0
26, 66420, Note_on_c, 14, 54, 80
26, 66449, Note_on_c, 14, 54, 0
26, 66450, Note_on_c, 14, 55, 80
26, 66479, Note_on_c, 14, 55, 0
26, 66480, Note_on_c, 14, 57, 80
26, 66509, Note_on_c, 14, 57, 0
26, 66510, Note_on_c, 14, 55, 80
26, 66539, Note_on_c, 14, 55, 0
26, 66540, Note_on_c, 14, 57, 80
26, 66569, Note_on_c, 14, 57, 0
26, 66570, Note_on_c, 14, 55, 80
26, 66599, Note_on_c, 14, 55, 0
26, 66600, Note_on_c, 14, 54, 80
26, 66629, Note_on_c, 14, 54, 0
26, 66630, Note_on_c, 14, 50, 80
26, 66659, Note_on_c, 14, 50, 0
26, 66660, Note_on_c, 14, 52, 80
26, 66689, Note_on_c, 14, 52, 0
26, 66690, Note_on_c, 14, 54, 80
26, 66719, Note_on_c, 14, 54, 0
26, 66720, Note_on_c, 14, 55, 80
26, 66749, Note_on_c, 14, 55, 0
26, 66750, Note_on_c, 14, 57, 80
26, 66779, Note_on_c, 14, 57, 0
26, 66780, Note_on_c, 14, 59, 80
26, 66809, Note_on_c, 14, 59, 0
26, 66810, Note_on_c, 14, 61, 80
26, 66839, Note_on_c, 14, 61, 0
26, 66840, Note_on_c, 14, 62, 80
26, 66869, Note_on_c, 14, 62, 0
26, 66870, Note_on_c, 14, 61, 80
26, 66899, Note_on_c, 14, 61, 0
26, 66900, Note_on_c, 14, 62, 80
26, 66929, Note_on_c, 14, 62, 0
26, 66930, Note_on_c, 14, 61, 80
26, 66959, Note_on_c, 14, 61, 0
26, 66960, Note_on_c, 14, 59, 80
26, 66989, Note_on_c, 14, 59, 0
26, 66990, Note_on_c, 14, 47, 80
26, 67019, Note_on_c, 14, 47, 0
26, 67020, Note_on_c, 14, 49, 80
26, 67049, Note_on_c, 14, 49, 0
26, 67050, Note_on_c, 14, 50, 80
26, 67079, Note_on_c, 14, 50, 0
26, 67080, Note_on_c, 14, 52, 80
26, 67109, Note_on_c, 14, 52, 0
26, 67110, Note_on_c, 14, 54, 80
26, 67139, Note_on_c, 14, 54, 0
26, 67140, Note_on_c, 14, 55, 80
26, 67169, Note_on_c, 14, 55, 0
26, 67170, Note_on_c, 14, 57, 80
26, 67199, Note_on_c, 14, 57, 0
26, 67200, Note_on_c, 14, 59, 80
26, 67229, Note_on_c, 14, 59, 0
26, 67230, Note_on_c, 14, 57, 80
26, 67259, Note_on_c, 14, 57, 0
26, 67260, Note_on_c, 14, 59, 80
26, 67289, Note_on_c, 14, 59, 0
26, 67290, Note_on_c, 14, 57, 80
26, 67319, Note_on_c, 14, 57, 0
26, 67320, Note_on_c, 14, 55, 80
26, 67349, Note_on_c, 14, 55, 0
26, 67350, Note_on_c, 14, 54, 80
26, 67379, Note_on_c, 14, 54, 0
26, 67380, Note_on_c, 14, 55, 80
26, 67409, Note_on_c, 14, 55, 0
26, 67410, Note_on_c, 14, 54, 80
26, 67439, Note_on_c, 14, 54, 0
26, 67440, Note_on_c, 14, 52, 80
26, 67469, Note_on_c, 14, 52, 0
26, 67470, Note_on_c, 14, 50, 80
26, 67499, Note_on_c, 14, 50, 0
26, 67500, Note_on_c, 14, 52, 80
26, 67529, Note_on_c, 14, 52, 0
26, 67530, Note_on_c, 14, 50, 80
26, 67559, Note_on_c, 14, 50, 0
26, 67560, Note_on_c, 14, 49, 80
26, 67589, Note_on_c, 14, 49, 0
26, 67590, Note_on_c, 14, 47, 80
26, 67619, Note_on_c, 14, 47, 0
26, 67620, Note_on_c, 14, 49, 80
26, 67649, Note_on_c, 14, 49, 0
26, 67650, Note_on_c, 14, 47, 80
26, 67679, Note_on_c, 14, 47, 0
26, 67680, Note_on_c, 14, 49, 80
26, 67709, Note_on_c, 14, 49, 0
26, 67710, Note_on_c, 14, 45, 80
26, 67739, Note_on_c, 14, 45, 0
26, 67740, Note_on_c, 14, 47, 80
26, 67769, Note_on_c, 14, 47, 0
26, 67770, Note_on_c, 14, 49, 80
26, 67799, Note_on_c, 14, 49, 0
26, 67800, Note_on_c, 14, 50, 80
26, 67829, Note_on_c, 14, 50, 0
26, 67830, Note_on_c, 14, 52, 80
26, 67859, Note_on_c, 14, 52, 0
26, 67860, Note_on_c, 14, 54, 80
26, 67889, Note_on_c, 14, 54, 0
26, 67890, Note_on_c, 14, 55, 80
26, 67919, Note_on_c, 14, 55, 0
26, 67920, Note_on_c, 14, 57, 80
26, 67979, Note_on_c, 14, 57, 0
26, 67980, Note_on_c, 14, 45, 80
26, 68039, Note_on_c, 14, 45, 0
26, 68040, Note_on_c, 14, 50, 80
26, 68069, Note_on_c, 14, 50, 0
26, 68070, Note_on_c, 14, 38, 80
26, 68099, Note_on_c, 14, 38, 0
26, 68100, Note_on_c, 14, 40, 80
26, 68129, Note_on_c, 14, 40, 0
26, 68130, Note_on_c, 14, 42, 80
26, 68159, Note_on_c, 14, 42, 0
26, 68160, Note_on_c, 14, 43, 80
26, 68189, Note_on_c, 14, 43, 0
26, 68190, Note_on_c, 14, 45, 80
26, 68219, Note_on_c, 14, 45, 0
26, 68220, Note_on_c, 14, 47, 80
26, 68249, Note_on_c, 14, 47, 0
26, 68250, Note_on_c, 14, 49, 80
26, 68279, Note_on_c, 14, 49, 0
26, 68280, Note_on_c, 14, 50, 80
26, 68309, Note_on_c, 14, 50, 0
26, 68310, Note_on_c, 14, 49, 80
26, 68339, Note_on_c, 14, 49, 0
26, 68340, Note_on_c, 14, 50, 80
26, 68369, Note_on_c, 14, 50, 0
26, 68370, Note_on_c, 14, 49, 80
26, 68399, Note_on_c, 14, 49, 0
26, 68400, Note_on_c, 14, 50, 80
26, 68429, Note_on_c, 14, 50, 0
26, 68430, Note_on_c, 14, 38, 80
26, 68459, Note_on_c, 14, 38, 0
26, 68460, Note_on_c, 14, 40, 80
26, 68489, Note_on_c, 14, 40, 0
26, 68490, Note_on_c, 14, 42, 80
26, 68519, Note_on_c, 14, 42, 0
26, 68520, Note_on_c, 14, 43, 80
26, 68549, Note_on_c, 14, 43, 0
26, 68550, Note_on_c, 14, 45, 80
26, 68579, Note_on_c, 14, 45, 0
26, 68580, Note_on_c, 14, 47, 80
26, 68609, Note_on_c, 14, 47, 0
26, 68610, Note_on_c, 14, 49, 80
26, 68639, Note_on_c, 14, 49, 0
26, 68640, Note_on_c, 14, 50, 80
26, 68669, Note_on_c, 14, 50, 0
26, 68670, Note_on_c, 14, 49, 80
26, 68699, Note_on_c, 14, 49, 0
26, 68700, Note_on_c, 14, 50, 80
26, 68729, Note_on_c, 14, 50, 0
26, 68730, Note_on_c, 14, 49, 80
26, 68759, Note_on_c, 14, 49, 0
26, 68760, Note_on_c, 14, 50, 80
26, 68789, Note_on_c, 14, 50, 0
26, 68790, Note_on_c, 14, 38, 80
26, 68819, Note_on_c, 14, 38, 0
26, 68820, Note_on_c, 14, 40, 80
26, 68849, Note_on_c, 14, 40, 0
26, 68850, Note_on_c, 14, 42, 80
26, 68879, Note_on_c, 14, 42, 0
26, 68880, Note_on_c, 14, 43, 80
26, 68909, Note_on_c, 14, 43, 0
26, 68910, Note_on_c, 14, 45, 80
26, 68939, Note_on_c, 14, 45, 0
26, 68940, Note_on_c, 14, 47, 80
26, 68969, Note_on_c, 14, 47, 0
26, 68970, Note_on_c, 14, 49, 80
26, 68999, Note_on_c, 14, 49, 0
26, 69000, Note_on_c, 14, 50, 80
26, 69029, Note_on_c, 14, 50, 0
26, 69030, Note_on_c, 14, 52, 80
26, 69059, Note_on_c, 14, 52, 0
26, 69060, Note_on_c, 14, 54, 80
26, 69089, Note_on_c, 14, 54, 0
26, 69090, Note_on_c, 14, 50, 80
26, 69119, Note_on_c, 14, 50, 0
26, 69120, Note_on_c, 14, 55, 80
26, 69149, Note_on_c, 14, 55, 0
26, 69150, Note_on_c, 14, 54, 80
26, 69179, Note_on_c, 14, 54, 0
26, 69180, Note_on_c, 14, 55, 80
26, 69209, Note_on_c, 14, 55, 0
26, 69210, Note_on_c, 14, 54, 80
26, 69239, Note_on_c, 14, 54, 0
26, 69240, Note_on_c, 14, 52, 80
26, 69269, Note_on_c, 14, 52, 0
26, 69270, Note_on_c, 14, 50, 80
26, 69299, Note_on_c, 14, 50, 0
26, 69300, Note_on_c, 14, 52, 80
26, 69329, Note_on_c, 14, 52, 0
26, 69330, Note_on_c, 14, 50, 80
26, 69359, Note_on_c, 14, 50, 0
26, 69360, Note_on_c, 14, 49, 80
26, 69389, Note_on_c, 14, 49, 0
26, 69390, Note_on_c, 14, 47, 80
26, 69419, Note_on_c, 14, 47, 0
26, 69420, Note_on_c, 14, 49, 80
26, 69449, Note_on_c, 14, 49, 0
26, 69450, Note_on_c, 14, 47, 80
26, 69479, Note_on_c, 14, 47, 0
26, 69480, Note_on_c, 14, 49, 80
26, 69509, Note_on_c, 14, 49, 0
26, 69510, Note_on_c, 14, 45, 80
26, 69539, Note_on_c, 14, 45, 0
26, 69540, Note_on_c, 14, 47, 80
26, 69569, Note_on_c, 14, 47, 0
26, 69570, Note_on_c, 14, 49, 80
26, 69599, Note_on_c, 14, 49, 0
26, 69600, Note_on_c, 14, 50, 80
26, 69629, Note_on_c, 14, 50, 0
26, 69630, Note_on_c, 14, 52, 80
26, 69659, Note_on_c, 14, 52, 0
26, 69660, Note_on_c, 14, 54, 80
26, 69689, Note_on_c, 14, 54, 0
26, 69690, Note_on_c, 14, 55, 80
26, 69719, Note_on_c, 14, 55, 0
26, 69720, Note_on_c, 14, 57, 80
26, 69779, Note_on_c, 14, 57, 0
26, 69780, Note_on_c, 14, 45, 80
26, 69839, Note_on_c, 14, 45, 0
26, 69840, Note_on_c, 14, 50, 80
26, 69960, Note_on_c, 14, 50, 0
26, 70560, Note_on_c, 14, 43, 100
26, 70680, Note_on_c, 14, 43, 0
26, 71280, Note_on_c, 14, 43, 100
26, 71400, Note_on_c, 14, 43, 0
26, 71760, Note_on_c, 14, 43, 100
26, 71880, Note_on_c, 14, 43, 0
26, 72240, Note_on_c, 14, 39, 100
26, 72360, Note_on_c, 14, 39, 0
26, 72720, Note_on_c, 14, 40, 100
26, 72840, Note_on_c, 14, 40, 0
26, 72960, Note_on_c, 14, 36, 100
26, 73080, Note_on_c, 14, 36, 0
26, 73320, Note_on_c, 14, 38, 100
26, 73440, Note_on_c, 14, 38, 0
26, 73440, Note_on_c, 14, 43, 100
26, 73560, Note_on_c, 14, 43, 0
26, 73710, Note_on_c, 14, 43, 100
26, 73740, Note_on_c, 14, 43, 0
26, 73740, Note_on_c, 14, 43, 100
26, 73770, Note_on_c, 14, 43, 0
26, 73770, Note_on_c, 14, 43, 100
26, 73800, Note_on_c, 14, 43, 0
26, 73800, Note_on_c, 14, 43, 100
26, 73920, Note_on_c, 14, 43, 0
26, 74190, Note_on_c, 14, 42, 100
26, 74220, Note_on_c, 14, 42, 0
26, 74220, Note_on_c, 14, 42, 100
26, 74250, Note_on_c, 14, 42, 0
26, 74250, Note_on_c, 14, 42, 100
26, 74280, Note_on_c, 14, 42, 0
26, 74280, Note_on_c, 14, 42, 100
26, 74400, Note_on_c, 14, 42, 0
26, 74670, Note_on_c, 14, 40, 100
26, 74700, Note_on_c, 14, 40, 0
26, 74700, Note_on_c, 14, 40, 100
26, 74730, Note_on_c, 14, 40, 0
26, 74730, Note_on_c, 14, 40, 100
26, 74760, Note_on_c, 14, 40, 0
26, 74760, Note_on_c, 14, 40, 100
26, 74880, Note_on_c, 14, 40, 0
26, 74910, Note_on_c, 14, 59, 90
26, 74939, Note_on_c, 14, 59, 0
26, 74940, Note_on_c, 14, 59, 90
26, 74969, Note_on_c, 14, 59, 0
26, 74970, Note_on_c, 14, 47, 90
26, 74999, Note_on_c, 14, 47, 0
26, 75000, Note_on_c, 14, 47, 90
26, 75029, Note_on_c, 14, 47, 0
26, 75030, Note_on_c, 14, 59, 90
26, 75059, Note_on_c, 14, 59, 0
26, 75060, Note_on_c, 14, 59, 90
26, 75089, Note_on_c, 14, 59, 0
26, 75090, Note_on_c, 14, 47, 90
26, 75119, Note_on_c, 14, 47, 0
26, 75120, Note_on_c, 14, 47, 90
26, 75134, Note_on_c, 14, 47, 0
26, 75135, Note_on_c, 14, 59, 90
26, 75149, Note_on_c, 14, 59, 0
26, 75150, Note_on_c, 14, 57, 90
26, 75164, Note_on_c, 14, 57, 0
26, 75165, Note_on_c, 14, 55, 90
26, 75179, Note_on_c, 14, 55, 0
26, 75180, Note_on_c, 14, 54, 90
26, 75194, Note_on_c, 14, 54, 0
26, 75195, Note_on_c, 14, 52, 90
26, 75209, Note_on_c, 14, 52, 0
26, 75210, Note_on_c, 14, 51, 90
26, 75224, Note_on_c, 14, 51, 0
26, 75225, Note_on_c, 14, 49, 90
26, 75239, Note_on_c, 14, 49, 0
26, 75240, Note_on_c, 14, 47, 90
26, 75254, Note_on_c, 14, 47, 0
26, 75255, Note_on_c, 14, 55, 90
26, 75269, Note_on_c, 14, 55, 0
26, 75270, Note_on_c, 14, 54, 90
26, 75284, Note_on_c, 14, 54, 0
26, 75285, Note_on_c, 14, 52, 90
26, 75299, Note_on_c, 14, 52, 0
26, 75300, Note_on_c, 14, 51, 90
26, 75314, Note_on_c, 14, 51, 0
26, 75315, Note_on_c, 14, 49, 90
26, 75329, Note_on_c, 14, 49, 0
26, 75330, Note_on_c, 14, 47, 90
26, 75344, Note_on_c, 14, 47, 0
26, 75345, Note_on_c, 14, 45, 90
26, 75359, Note_on_c, 14, 45, 0
26, 75360, Note_on_c, 14, 44, 90
26, 75479, Note_on_c, 14, 44, 0
26, 75600, Note_on_c, 14, 43, 90
26, 75719, Note_on_c, 14, 43, 0
26, 76080, Note_on_c, 14, 42, 90
26, 76199, Note_on_c, 14, 42, 0
26, 76320, Note_on_c, 14, 44, 90
26, 76439, Note_on_c, 14, 44, 0
26, 76590, Note_on_c, 14, 57, 90
26, 76619, Note_on_c, 14, 57, 0
26, 76620, Note_on_c, 14, 57, 90
26, 76649, Note_on_c, 14, 57, 0
26, 76650, Note_on_c, 14, 45, 90
26, 76679, Note_on_c, 14, 45, 0
26, 76680, Note_on_c, 14, 45, 90
26, 76709, Note_on_c, 14, 45, 0
26, 76710, Note_on_c, 14, 57, 90
26, 76739, Note_on_c, 14, 57, 0
26, 76740, Note_on_c, 14, 57, 90
26, 76769, Note_on_c, 14, 57, 0
26, 76770, Note_on_c, 14, 45, 90
26, 76799, Note_on_c, 14, 45, 0
26, 76800, Note_on_c, 14, 50, 90
26, 76814, Note_on_c, 14, 50, 0
26, 76815, Note_on_c, 14, 38, 90
26, 76829, Note_on_c, 14, 38, 0
26, 76830, Note_on_c, 14, 40, 90
26, 76844, Note_on_c, 14, 40, 0
26, 76845, Note_on_c, 14, 42, 90
26, 76859, Note_on_c, 14, 42, 0
26, 76860, Note_on_c, 14, 43, 90
26, 76874, Note_on_c, 14, 43, 0
26, 76875, Note_on_c, 14, 45, 90
26, 76889, Note_on_c, 14, 45, 0
26, 76890, Note_on_c, 14, 47, 90
26, 76904, Note_on_c, 14, 47, 0
26, 76905, Note_on_c, 14, 49, 90
26, 76919, Note_on_c, 14, 49, 0
26, 76920, Note_on_c, 14, 50, 90
26, 76934, Note_on_c, 14, 50, 0
26, 76935, Note_on_c, 14, 49, 90
26, 76949, Note_on_c, 14, 49, 0
26, 76950, Note_on_c, 14, 50, 90
26, 76964, Note_on_c, 14, 50, 0
26, 76965, Note_on_c, 14, 52, 90
26, 76979, Note_on_c, 14, 52, 0
26, 76980, Note_on_c, 14, 54, 90
26, 76994, Note_on_c, 14, 54, 0
26, 76995, Note_on_c, 14, 55, 90
26, 77009, Note_on_c, 14, 55, 0
26, 77010, Note_on_c, 14, 57, 90
26, 77024, Note_on_c, 14, 57, 0
26, 77025, Note_on_c, 14, 59, 90
26, 77039, Note_on_c, 14, 59, 0
26, 77040, Note_on_c, 14, 60, 90
26, 77159, Note_on_c, 14, 60, 0
26, 77310, Note_on_c, 14, 59, 90
26, 77339, Note_on_c, 14, 59, 0
26, 77340, Note_on_c, 14, 59, 90
26, 77369, Note_on_c, 14, 59, 0
26, 77370, Note_on_c, 14, 59, 90
26, 77399, Note_on_c, 14, 59, 0
26, 77400, Note_on_c, 14, 59, 90
26, 77429, Note_on_c, 14, 59, 0
26, 77430, Note_on_c, 14, 59, 90
26, 77459, Note_on_c, 14, 59, 0
26, 77460, Note_on_c, 14, 57, 90
26, 77489, Note_on_c, 14, 57, 0
26, 77490, Note_on_c, 14, 57, 90
26, 77519, Note_on_c, 14, 57, 0
26, 77520, Note_on_c, 14, 56, 90
26, 77639, Note_on_c, 14, 56, 0
26, 77775, Note_on_c, 14, 57, 90
26, 77789, Note_on_c, 14, 57, 0
26, 77790, Note_on_c, 14, 56, 90
26, 77804, Note_on_c, 14, 56, 0
26, 77805, Note_on_c, 14, 54, 90
26, 77819, Note_on_c, 14, 54, 0
26, 77820, Note_on_c, 14, 52, 90
26, 77834, Note_on_c, 14, 52, 0
26, 77835, Note_on_c, 14, 50, 90
26, 77849, Note_on_c, 14, 50, 0
26, 77850, Note_on_c, 14, 49, 90
26, 77864, Note_on_c, 14, 49, 0
26, 77865, Note_on_c, 14, 47, 90
26, 77879, Note_on_c, 14, 47, 0
26, 77880, Note_on_c, 14, 45, 90
26, 77894, Note_on_c, 14, 45, 0
26, 77895, Note_on_c, 14, 47, 90
26, 77909, Note_on_c, 14, 47, 0
26, 77910, Note_on_c, 14, 49, 90
26, 77924, Note_on_c, 14, 49, 0
26, 77925, Note_on_c, 14, 47, 90
26, 77939, Note_on_c, 14, 47, 0
26, 77940, Note_on_c, 14, 45, 90
26, 77954, Note_on_c, 14, 45, 0
26, 77955, Note_on_c, 14, 43, 90
26, 77969, Note_on_c, 14, 43, 0
26, 77970, Note_on_c, 14, 42, 90
26, 77984, Note_on_c, 14, 42, 0
26, 77985, Note_on_c, 14, 40, 90
26, 77999, Note_on_c, 14, 40, 0
26, 78000, Note_on_c, 14, 38, 90
26, 78119, Note_on_c, 14, 38, 0
26, 78255, Note_on_c, 14, 40, 90
26, 78269, Note_on_c, 14, 40, 0
26, 78270, Note_on_c, 14, 42, 90
26, 78284, Note_on_c, 14, 42, 0
26, 78285, Note_on_c, 14, 44, 90
26, 78299, Note_on_c, 14, 44, 0
26, 78300, Note_on_c, 14, 45, 90
26, 78314, Note_on_c, 14, 45, 0
26, 78315, Note_on_c, 14, 47, 90
26, 78329, Note_on_c, 14, 47, 0
26, 78330, Note_on_c, 14, 49, 90
26, 78344, Note_on_c, 14, 49, 0
26, 78345, Note_on_c, 14, 50, 90
26, 78359, Note_on_c, 14, 50, 0
26, 78360, Note_on_c, 14, 52, 90
26, 78374, Note_on_c, 14, 52, 0
26, 78375, Note_on_c, 14, 54, 90
26, 78389, Note_on_c, 14, 54, 0
26, 78390, Note_on_c, 14, 56, 90
26, 78404, Note_on_c, 14, 56, 0
26, 78405, Note_on_c, 14, 57, 90
26, 78419, Note_on_c, 14, 57, 0
26, 78420, Note_on_c, 14, 59, 90
26, 78434, Note_on_c, 14, 59, 0
26, 78435, Note_on_c, 14, 61, 90
26, 78449, Note_on_c, 14, 61, 0
26, 78450, Note_on_c, 14, 62, 90
26, 78464, Note_on_c, 14, 62, 0
26, 78465, Note_on_c, 14, 64, 90
26, 78479, Note_on_c, 14, 64, 0
26, 78480, Note_on_c, 14, 57, 90
26, 78509, Note_on_c, 14, 57, 0
26, 78510, Note_on_c, 14, 64, 90
26, 78524, Note_on_c, 14, 64, 0
26, 78525, Note_on_c, 14, 61, 90
26, 78539, Note_on_c, 14, 61, 0
26, 78540, Note_on_c, 14, 57, 90
26, 78569, Note_on_c, 14, 57, 0
26, 78570, Note_on_c, 14, 61, 90
26, 78584, Note_on_c, 14, 61, 0
26, 78585, Note_on_c, 14, 57, 90
26, 78599, Note_on_c, 14, 57, 0
26, 78600, Note_on_c, 14, 52, 90
26, 78629, Note_on_c, 14, 52, 0
26, 78630, Note_on_c, 14, 57, 90
26, 78644, Note_on_c, 14, 57, 0
26, 78645, Note_on_c, 14, 52, 90
26, 78659, Note_on_c, 14, 52, 0
26, 78660, Note_on_c, 14, 49, 90
26, 78689, Note_on_c, 14, 49, 0
26, 78690, Note_on_c, 14, 52, 90
26, 78704, Note_on_c, 14, 52, 0
26, 78705, Note_on_c, 14, 49, 90
26, 78719, Note_on_c, 14, 49, 0
26, 78720, Note_on_c, 14, 45, 90
26, 78839, Note_on_c, 14, 45, 0
26, 78990, Note_on_c, 14, 46, 90
26, 79019, Note_on_c, 14, 46, 0
26, 79020, Note_on_c, 14, 46, 90
26, 79049, Note_on_c, 14, 46, 0
26, 79050, Note_on_c, 14, 46, 90
26, 79079, Note_on_c, 14, 46, 0
26, 79080, Note_on_c, 14, 46, 90
26, 79199, Note_on_c, 14, 46, 0
26, 79470, Note_on_c, 14, 45, 90
26, 79499, Note_on_c, 14, 45, 0
26, 79500, Note_on_c, 14, 45, 90
26, 79529, Note_on_c, 14, 45, 0
26, 79530, Note_on_c, 14, 45, 90
26, 79559, Note_on_c, 14, 45, 0
26, 79560, Note_on_c, 14, 45, 90
26, 79589, Note_on_c, 14, 45, 0
26, 79590, Note_on_c, 14, 45, 90
26, 79619, Note_on_c, 14, 45, 0
26, 79620, Note_on_c, 14, 45, 90
26, 79649, Note_on_c, 14, 45, 0
26, 79650, Note_on_c, 14, 45, 90
26, 79679, Note_on_c, 14, 45, 0
26, 79680, Note_on_c, 14, 45, 90
26, 79799, Note_on_c, 14, 45, 0
26, 79935, Note_on_c, 14, 44, 90
26, 79949, Note_on_c, 14, 44, 0
26, 79950, Note_on_c, 14, 45, 90
26, 79964, Note_on_c, 14, 45, 0
26, 79965, Note_on_c, 14, 47, 90
26, 79979, Note_on_c, 14, 47, 0
26, 79980, Note_on_c, 14, 49, 90
26, 79994, Note_on_c, 14, 49, 0
26, 79995, Note_on_c, 14, 50, 90
26, 80009, Note_on_c, 14, 50, 0
26, 80010, Note_on_c, 14, 52, 90
26, 80024, Note_on_c, 14, 52, 0
26, 80025, Note_on_c, 14, 54, 90
26, 80039, Note_on_c, 14, 54, 0
26, 80040, Note_on_c, 14, 56, 90
26, 80099, Note_on_c, 14, 56, 0
26, 80430, Note_on_c, 14, 53, 90
26, 80459, Note_on_c, 14, 53, 0
26, 80460, Note_on_c, 14, 53, 90
26, 80489, Note_on_c, 14, 53, 0
26, 80490, Note_on_c, 14, 53, 90
26, 80519, Note_on_c, 14, 53, 0
26, 80520, Note_on_c, 14, 53, 90
26, 80579, Note_on_c, 14, 53, 0
26, 80910, Note_on_c, 14, 54, 90
26, 80939, Note_on_c, 14, 54, 0
26, 80940, Note_on_c, 14, 54, 90
26, 80969, Note_on_c, 14, 54, 0
26, 80970, Note_on_c, 14, 54, 90
26, 80999, Note_on_c, 14, 54, 0
26, 81000, Note_on_c, 14, 54, 90
26, 81059, Note_on_c, 14, 54, 0
26, 81150, Note_on_c, 14, 47, 90
26, 81179, Note_on_c, 14, 47, 0
26, 81180, Note_on_c, 14, 47, 90
26, 81209, Note_on_c, 14, 47, 0
26, 81210, Note_on_c, 14, 47, 90
26, 81239, Note_on_c, 14, 47, 0
26, 81240, Note_on_c, 14, 47, 90
26, 81299, Note_on_c, 14, 47, 0
26, 81390, Note_on_c, 14, 49, 90
26, 81419, Note_on_c, 14, 49, 0
26, 81420, Note_on_c, 14, 49, 90
26, 81449, Note_on_c, 14, 49, 0
26, 81450, Note_on_c, 14, 37, 90
26, 81479, Note_on_c, 14, 37, 0
26, 81480, Note_on_c, 14, 37, 90
26, 81509, Note_on_c, 14, 37, 0
26, 81510, Note_on_c, 14, 49, 90
26, 81539, Note_on_c, 14, 49, 0
26, 81540, Note_on_c, 14, 49, 90
26, 81569, Note_on_c, 14, 49, 0
26, 81570, Note_on_c, 14, 37, 90
26, 81599, Note_on_c, 14, 37, 0
26, 81600, Note_on_c, 14, 42, 90
26, 81840, Note_on_c, 14, 42, 0
26, 82500, Note_on_c, 14, 57, 90
26, 82529, Note_on_c, 14, 57, 0
26, 82530, Note_on_c, 14, 59, 90
26, 82559, Note_on_c, 14, 59, 0
26, 82560, Note_on_c, 14, 61, 90
26, 82619, Note_on_c, 14, 61, 0
26, 82620, Note_on_c, 14, 62, 90
26, 82679, Note_on_c, 14, 62, 0
26, 82680, Note_on_c, 14, 61, 90
26, 82739, Note_on_c, 14, 61, 0
26, 82740, Note_on_c, 14, 59, 90
26, 82799, Note_on_c, 14, 59, 0
26, 82800, Note_on_c, 14, 61, 90
26, 82859, Note_on_c, 14, 61, 0
26, 82860, Note_on_c, 14, 59, 90
26, 82889, Note_on_c, 14, 59, 0
26, 82890, Note_on_c, 14, 61, 90
26, 82919, Note_on_c, 14, 61, 0
26, 82920, Note_on_c, 14, 57, 90
26, 82979, Note_on_c, 14, 57, 0
26, 82980, Note_on_c, 14, 59, 90
26, 83039, Note_on_c, 14, 59, 0
26, 83040, Note_on_c, 14, 61, 90
26, 83099, Note_on_c, 14, 61, 0
26, 83100, Note_on_c, 14, 59, 90
26, 83129, Note_on_c, 14, 59, 0
26, 83130, Note_on_c, 14, 61, 90
26, 83159, Note_on_c, 14, 61, 0
26, 83160, Note_on_c, 14, 57, 90
26, 83219, Note_on_c, 14, 57, 0
26, 83220, Note_on_c, 14, 61, 90
26, 83279, Note_on_c, 14, 61, 0
26, 83280, Note_on_c, 14, 56, 90
26, 83339, Note_on_c, 14, 56, 0
26, 83340, Note_on_c, 14, 54, 90
26, 83369, Note_on_c, 14, 54, 0
26, 83370, Note_on_c, 14, 56, 90
26, 83399, Note_on_c, 14, 56, 0
26, 83400, Note_on_c, 14, 52, 90
26, 83459, Note_on_c, 14, 52, 0
26, 83460, Note_on_c, 14, 56, 90
26, 83519, Note_on_c, 14, 56, 0
26, 83520, Note_on_c, 14, 57, 90
26, 83579, Note_on_c, 14, 57, 0
26, 83580, Note_on_c, 14, 52, 90
26, 83639, Note_on_c, 14, 52, 0
26, 83640, Note_on_c, 14, 45, 90
26, 83699, Note_on_c, 14, 45, 0
26, 83700, Note_on_c, 14, 57, 90
26, 83759, Note_on_c, 14, 57, 0
26, 83760, Note_on_c, 14, 52, 90
26, 83819, Note_on_c, 14, 52, 0
26, 83820, Note_on_c, 14, 51, 90
26, 83879, Note_on_c, 14, 51, 0
26, 83880, Note_on_c, 14, 52, 90
26, 83939, Note_on_c, 14, 52, 0
26, 83940, Note_on_c, 14, 54, 90
26, 83999, Note_on_c, 14, 54, 0
26, 84000, Note_on_c, 14, 56, 90
26, 84029, Note_on_c, 14, 56, 0
26, 84030, Note_on_c, 14, 54, 90
26, 84059, Note_on_c, 14, 54, 0
26, 84060, Note_on_c, 14, 52, 90
26, 84089, Note_on_c, 14, 52, 0
26, 84090, Note_on_c, 14, 51, 90
26, 84119, Note_on_c, 14, 51, 0
26, 84120, Note_on_c, 14, 49, 90
26, 84179, Note_on_c, 14, 49, 0
26, 84180, Note_on_c, 14, 52, 90
26, 84239, Note_on_c, 14, 52, 0
26, 84240, Note_on_c, 14, 54, 90
26, 84269, Note_on_c, 14, 54, 0
26, 84270, Note_on_c, 14, 52, 90
26, 84299, Note_on_c, 14, 52, 0
26, 84300, Note_on_c, 14, 51, 90
26, 84329, Note_on_c, 14, 51, 0
26, 84330, Note_on_c, 14, 49, 90
26, 84359, Note_on_c, 14, 49, 0
26, 84360, Note_on_c, 14, 47, 90
26, 84419, Note_on_c, 14, 47, 0
26, 84420, Note_on_c, 14, 57, 90
26, 84479, Note_on_c, 14, 57, 0
26, 84480, Note_on_c, 14, 56, 90
26, 84539, Note_on_c, 14, 56, 0
26, 84540, Note_on_c, 14, 52, 90
26, 84599, Note_on_c, 14, 52, 0
26, 84600, Note_on_c, 14, 59, 90
26, 84659, Note_on_c, 14, 59, 0
26, 84660, Note_on_c, 14, 47, 90
26, 84719, Note_on_c, 14, 47, 0
26, 84720, Note_on_c, 14, 52, 90
26, 84779, Note_on_c, 14, 52, 0
26, 84780, Note_on_c, 14, 51, 90
26, 84809, Note_on_c, 14, 51, 0
26, 84810, Note_on_c, 14, 49, 90
26, 84839, Note_on_c, 14, 49, 0
26, 84840, Note_on_c, 14, 47, 90
26, 84869, Note_on_c, 14, 47, 0
26, 84870, Note_on_c, 14, 45, 90
26, 84899, Note_on_c, 14, 45, 0
26, 84900, Note_on_c, 14, 44, 90
26, 84929, Note_on_c, 14, 44, 0
26, 84930, Note_on_c, 14, 42, 90
26, 84959, Note_on_c, 14, 42, 0
26, 84960, Note_on_c, 14, 40, 90
26, 85019, Note_on_c, 14, 40, 0
26, 85020, Note_on_c, 14, 40, 90
26, 85079, Note_on_c, 14, 40, 0
26, 85080, Note_on_c, 14, 40, 90
26, 85139, Note_on_c, 14, 40, 0
26, 85140, Note_on_c, 14, 40, 90
26, 85199, Note_on_c, 14, 40, 0
26, 85200, Note_on_c, 14, 40, 90
26, 85259, Note_on_c, 14, 40, 0
26, 85260, Note_on_c, 14, 40, 90
26, 85319, Note_on_c, 14, 40, 0
26, 85320, Note_on_c, 14, 40, 90
26, 85379, Note_on_c, 14, 40, 0
26, 85380, Note_on_c, 14, 40, 90
26, 85439, Note_on_c, 14, 40, 0
26, 85440, Note_on_c, 14, 42, 90
26, 85499, Note_on_c, 14, 42, 0
26, 85500, Note_on_c, 14, 42, 90
26, 85559, Note_on_c, 14, 42, 0
26, 85560, Note_on_c, 14, 42, 90
26, 85619, Note_on_c, 14, 42, 0
26, 85620, Note_on_c, 14, 42, 90
26, 85679, Note_on_c, 14, 42, 0
26, 85680, Note_on_c, 14, 42, 90
26, 85739, Note_on_c, 14, 42, 0
26, 85740, Note_on_c, 14, 42, 90
26, 85799, Note_on_c, 14, 42, 0
26, 85800, Note_on_c, 14, 42, 90
26, 85859, Note_on_c, 14, 42, 0
26, 85860, Note_on_c, 14, 42, 90
26, 85919, Note_on_c, 14, 42, 0
26, 85920, Note_on_c, 14, 44, 90
26, 85979, Note_on_c, 14, 44, 0
26, 85980, Note_on_c, 14, 44, 90
26, 86039, Note_on_c, 14, 44, 0
26, 86040, Note_on_c, 14, 44, 90
26, 86099, Note_on_c, 14, 44, 0
26, 86100, Note_on_c, 14, 44, 90
26, 86159, Note_on_c, 14, 44, 0
26, 86160, Note_on_c, 14, 44, 90
26, 86219, Note_on_c, 14, 44, 0
26, 86220, Note_on_c, 14, 44, 90
26, 86279, Note_on_c, 14, 44, 0
26, 86280, Note_on_c, 14, 44, 90
26, 86339, Note_on_c, 14, 44, 0
26, 86340, Note_on_c, 14, 44, 90
26, 86399, Note_on_c, 14, 44, 0
26, 86400, Note_on_c, 14, 45, 90
26, 86459, Note_on_c, 14, 45, 0
26, 86460, Note_on_c, 14, 49, 90
26, 86519, Note_on_c, 14, 49, 0
26, 86520, Note_on_c, 14, 50, 90
26, 86579, Note_on_c, 14, 50, 0
26, 86580, Note_on_c, 14, 52, 90
26, 86639, Note_on_c, 14, 52, 0
26, 86640, Note_on_c, 14, 45, 90
26, 86699, Note_on_c, 14, 45, 0
26, 86700, Note_on_c, 14, 49, 90
26, 86729, Note_on_c, 14, 49, 0
26, 86730, Note_on_c, 14, 50, 90
26, 86759, Note_on_c, 14, 50, 0
26, 86760, Note_on_c, 14, 52, 90
26, 86819, Note_on_c, 14, 52, 0
26, 86820, Note_on_c, 14, 54, 90
26, 86849, Note_on_c, 14, 54, 0
26, 86850, Note_on_c, 14, 56, 90
26, 86879, Note_on_c, 14, 56, 0
26, 86880, Note_on_c, 14, 57, 90
26, 86939, Note_on_c, 14, 57, 0
26, 86940, Note_on_c, 14, 49, 90
26, 86969, Note_on_c, 14, 49, 0
26, 86970, Note_on_c, 14, 50, 90
26, 86999, Note_on_c, 14, 50, 0
26, 87000, Note_on_c, 14, 52, 90
26, 87059, Note_on_c, 14, 52, 0
26, 87060, Note_on_c, 14, 40, 90
26, 87119, Note_on_c, 14, 40, 0
26, 87120, Note_on_c, 14, 45, 90
26, 87179, Note_on_c, 14, 45, 0
26, 87180, Note_on_c, 14, 49, 90
26, 87209, Note_on_c, 14, 49, 0
26, 87210, Note_on_c, 14, 52, 90
26, 87239, Note_on_c, 14, 52, 0
26, 87240, Note_on_c, 14, 57, 90
26, 87299, Note_on_c, 14, 57, 0
26, 87300, Note_on_c, 14, 57, 90
26, 87329, Note_on_c, 14, 57, 0
26, 87330, Note_on_c, 14, 59, 90
26, 87359, Note_on_c, 14, 59, 0
26, 87360, Note_on_c, 14, 61, 90
26, 87419, Note_on_c, 14, 61, 0
26, 87420, Note_on_c, 14, 62, 90
26, 87479, Note_on_c, 14, 62, 0
26, 87480, Note_on_c, 14, 61, 90
26, 87539, Note_on_c, 14, 61, 0
26, 87540, Note_on_c, 14, 59, 90
26, 87599, Note_on_c, 14, 59, 0
26, 87600, Note_on_c, 14, 61, 90
26, 87659, Note_on_c, 14, 61, 0
26, 87660, Note_on_c, 14, 59, 90
26, 87689, Note_on_c, 14, 59, 0
26, 87690, Note_on_c, 14, 61, 90
26, 87719, Note_on_c, 14, 61, 0
26, 87720, Note_on_c, 14, 57, 90
26, 87779, Note_on_c, 14, 57, 0
26, 87780, Note_on_c, 14, 59, 90
26, 87839, Note_on_c, 14, 59, 0
26, 87840, Note_on_c, 14, 61, 90
26, 87899, Note_on_c, 14, 61, 0
26, 87900, Note_on_c, 14, 59, 90
26, 87929, Note_on_c, 14, 59, 0
26, 87930, Note_on_c, 14, 61, 90
26, 87959, Note_on_c, 14, 61, 0
26, 87960, Note_on_c, 14, 57, 90
26, 88019, Note_on_c, 14, 57, 0
26, 88020, Note_on_c, 14, 61, 90
26, 88079, Note_on_c, 14, 61, 0
26, 88080, Note_on_c, 14, 56, 90
26, 88139, Note_on_c, 14, 56, 0
26, 88140, Note_on_c, 14, 54, 90
26, 88169, Note_on_c, 14, 54, 0
26, 88170, Note_on_c, 14, 56, 90
26, 88199, Note_on_c, 14, 56, 0
26, 88200, Note_on_c, 14, 52, 90
26, 88259, Note_on_c, 14, 52, 0
26, 88260, Note_on_c, 14, 56, 90
26, 88319, Note_on_c, 14, 56, 0
26, 88320, Note_on_c, 14, 57, 90
26, 88379, Note_on_c, 14, 57, 0
26, 88380, Note_on_c, 14, 52, 90
26, 88439, Note_on_c, 14, 52, 0
26, 88440, Note_on_c, 14, 49, 90
26, 88499, Note_on_c, 14, 49, 0
26, 88500, Note_on_c, 14, 52, 90
26, 88559, Note_on_c, 14, 52, 0
26, 88560, Note_on_c, 14, 57, 90
26, 88619, Note_on_c, 14, 57, 0
26, 88620, Note_on_c, 14, 56, 90
26, 88679, Note_on_c, 14, 56, 0
26, 88680, Note_on_c, 14, 57, 90
26, 88739, Note_on_c, 14, 57, 0
26, 88740, Note_on_c, 14, 59, 90
26, 88799, Note_on_c, 14, 59, 0
26, 88800, Note_on_c, 14, 61, 90
26, 88829, Note_on_c, 14, 61, 0
26, 88830, Note_on_c, 14, 59, 90
26, 88859, Note_on_c, 14, 59, 0
26, 88860, Note_on_c, 14, 57, 90
26, 88889, Note_on_c, 14, 57, 0
26, 88890, Note_on_c, 14, 56, 90
26, 88919, Note_on_c, 14, 56, 0
26, 88920, Note_on_c, 14, 54, 90
26, 88979, Note_on_c, 14, 54, 0
26, 88980, Note_on_c, 14, 57, 90
26, 89039, Note_on_c, 14, 57, 0
26, 89040, Note_on_c, 14, 59, 90
26, 89069, Note_on_c, 14, 59, 0
26, 89070, Note_on_c, 14, 57, 90
26, 89099, Note_on_c, 14, 57, 0
26, 89100, Note_on_c, 14, 56, 90
26, 89129, Note_on_c, 14, 56, 0
26, 89130, Note_on_c, 14, 54, 90
26, 89159, Note_on_c, 14, 54, 0
26, 89160, Note_on_c, 14, 52, 90
26, 89219, Note_on_c, 14, 52, 0
26, 89220, Note_on_c, 14, 62, 90
26, 89279, Note_on_c, 14, 62, 0
26, 89280, Note_on_c, 14, 61, 90
26, 89339, Note_on_c, 14, 61, 0
26, 89340, Note_on_c, 14, 57, 90
26, 89399, Note_on_c, 14, 57, 0
26, 89400, Note_on_c, 14, 64, 90
26, 89459, Note_on_c, 14, 64, 0
26, 89460, Note_on_c, 14, 52, 90
26, 89519, Note_on_c, 14, 52, 0
26, 89520, Note_on_c, 14, 57, 90
26, 89579, Note_on_c, 14, 57, 0
26, 89580, Note_on_c, 14, 56, 90
26, 89610, Note_on_c, 14, 56, 0
26, 89610, Note_on_c, 14, 54, 90
26, 89640, Note_on_c, 14, 54, 0
26, 89640, Note_on_c, 14, 52, 90
26, 89670, Note_on_c, 14, 52, 0
26, 89670, Note_on_c, 14, 50, 90
26, 89700, Note_on_c, 14, 50, 0
26, 89700, Note_on_c, 14, 49, 90
26, 89730, Note_on_c, 14, 49, 0
26, 89730, Note_on_c, 14, 47, 90
26, 89760, Note_on_c, 14, 47, 0
26, 89760, Note_on_c, 14, 45, 90
26, 89819, Note_on_c, 14, 45, 0
26, 89820, Note_on_c, 14, 57, 90
26, 89849, Note_on_c, 14, 57, 0
26, 89850, Note_on_c, 14, 56, 90
26, 89879, Note_on_c, 14, 56, 0
26, 89880, Note_on_c, 14, 57, 90
26, 89939, Note_on_c, 14, 57, 0
26, 90420, Note_on_c, 14, 57, 90
26, 90479, Note_on_c, 14, 57, 0
26, 90480, Note_on_c, 14, 56, 90
26, 90539, Note_on_c, 14, 56, 0
26, 90540, Note_on_c, 14, 54, 90
26, 90569, Note_on_c, 14, 54, 0
26, 90570, Note_on_c, 14, 56, 90
26, 90599, Note_on_c, 14, 56, 0
26, 90600, Note_on_c, 14, 52, 90
26, 90659, Note_on_c, 14, 52, 0
26, 90660, Note_on_c, 14, 56, 90
26, 90719, Note_on_c, 14, 56, 0
26, 90720, Note_on_c, 14, 57, 90
26, 90779, Note_on_c, 14, 57, 0
26, 90780, Note_on_c, 14, 52, 90
26, 90839, Note_on_c, 14, 52, 0
26, 90840, Note_on_c, 14, 45, 90
26, 90899, Note_on_c, 14, 45, 0
26, 90900, Note_on_c, 14, 57, 90
26, 90959, Note_on_c, 14, 57, 0
26, 90960, Note_on_c, 14, 52, 90
26, 91019, Note_on_c, 14, 52, 0
26, 91020, Note_on_c, 14, 51, 90
26, 91079, Note_on_c, 14, 51, 0
26, 91080, Note_on_c, 14, 52, 90
26, 91139, Note_on_c, 14, 52, 0
26, 91140, Note_on_c, 14, 54, 90
26, 91199, Note_on_c, 14, 54, 0
26, 91200, Note_on_c, 14, 56, 90
26, 91230, Note_on_c, 14, 56, 0
26, 91230, Note_on_c, 14, 54, 90
26, 91260, Note_on_c, 14, 54, 0
26, 91260, Note_on_c, 14, 52, 90
26, 91290, Note_on_c, 14, 52, 0
26, 91290, Note_on_c, 14, 51, 90
26, 91320, Note_on_c, 14, 51, 0
26, 91320, Note_on_c, 14, 49, 90
26, 91379, Note_on_c, 14, 49, 0
26, 91380, Note_on_c, 14, 52, 90
26, 91439, Note_on_c, 14, 52, 0
26, 91440, Note_on_c, 14, 54, 90
26, 91469, Note_on_c, 14, 54, 0
26, 91470, Note_on_c, 14, 52, 90
26, 91499, Note_on_c, 14, 52, 0
26, 91500, Note_on_c, 14, 51, 90
26, 91529, Note_on_c, 14, 51, 0
26, 91530, Note_on_c, 14, 49, 90
26, 91559, Note_on_c, 14, 49, 0
26, 91560, Note_on_c, 14, 47, 90
26, 91619, Note_on_c, 14, 47, 0
26, 91620, Note_on_c, 14, 57, 90
26, 91679, Note_on_c, 14, 57, 0
26, 91680, Note_on_c, 14, 56, 90
26, 91739, Note_on_c, 14, 56, 0
26, 91740, Note_on_c, 14, 52, 90
26, 91799, Note_on_c, 14, 52, 0
26, 91800, Note_on_c, 14, 59, 90
26, 91859, Note_on_c, 14, 59, 0
26, 91860, Note_on_c, 14, 47, 90
26, 91919, Note_on_c, 14, 47, 0
26, 91920, Note_on_c, 14, 52, 90
26, 91979, Note_on_c, 14, 52, 0
26, 91980, Note_on_c, 14, 51, 90
26, 92009, Note_on_c, 14, 51, 0
26, 92010, Note_on_c, 14, 49, 90
26, 92039, Note_on_c, 14, 49, 0
26, 92040, Note_on_c, 14, 47, 90
26, 92069, Note_on_c, 14, 47, 0
26, 92070, Note_on_c, 14, 45, 90
26, 92099, Note_on_c, 14, 45, 0
26, 92100, Note_on_c, 14, 44, 90
26, 92129, Note_on_c, 14, 44, 0
26, 92130, Note_on_c, 14, 42, 90
26, 92159, Note_on_c, 14, 42, 0
26, 92160, Note_on_c, 14, 40, 90
26, 92219, Note_on_c, 14, 40, 0
26, 92220, Note_on_c, 14, 52, 90
26, 92249, Note_on_c, 14, 52, 0
26, 92250, Note_on_c, 14, 51, 90
26, 92279, Note_on_c, 14, 51, 0
26, 92280, Note_on_c, 14, 52, 90
26, 92339, Note_on_c, 14, 52, 0
26, 92460, Note_on_c, 14, 49, 90
26, 92489, Note_on_c, 14, 49, 0
26, 92490, Note_on_c, 14, 50, 90
26, 92519, Note_on_c, 14, 50, 0
26, 92520, Note_on_c, 14, 52, 90
26, 92579, Note_on_c, 14, 52, 0
26, 92580, Note_on_c, 14, 54, 90
26, 92609, Note_on_c, 14, 54, 0
26, 92610, Note_on_c, 14, 56, 90
26, 92639, Note_on_c, 14, 56, 0
26, 92640, Note_on_c, 14, 57, 90
26, 92699, Note_on_c, 14, 57, 0
26, 92700, Note_on_c, 14, 45, 90
26, 92729, Note_on_c, 14, 45, 0
26, 92730, Note_on_c, 14, 47, 90
26, 92759, Note_on_c, 14, 47, 0
26, 92760, Note_on_c, 14, 49, 90
26, 92819, Note_on_c, 14, 49, 0
26, 92820, Note_on_c, 14, 51, 90
26, 92849, Note_on_c, 14, 51, 0
26, 92850, Note_on_c, 14, 53, 90
26, 92879, Note_on_c, 14, 53, 0
26, 92880, Note_on_c, 14, 54, 90
26, 92939, Note_on_c, 14, 54, 0
26, 92940, Note_on_c, 14, 42, 90
26, 92999, Note_on_c, 14, 42, 0
26, 93000, Note_on_c, 14, 54, 90
26, 93029, Note_on_c, 14, 54, 0
26, 93030, Note_on_c, 14, 52, 90
26, 93059, Note_on_c, 14, 52, 0
26, 93060, Note_on_c, 14, 50, 90
26, 93089, Note_on_c, 14, 50, 0
26, 93090, Note_on_c, 14, 49, 90
26, 93119, Note_on_c, 14, 49, 0
26, 93120, Note_on_c, 14, 47, 90
26, 93179, Note_on_c, 14, 47, 0
26, 93180, Note_on_c, 14, 47, 90
26, 93239, Note_on_c, 14, 47, 0
26, 93240, Note_on_c, 14, 47, 90
26, 93299, Note_on_c, 14, 47, 0
26, 93300, Note_on_c, 14, 47, 90
26, 93359, Note_on_c, 14, 47, 0
26, 93360, Note_on_c, 14, 47, 90
26, 93419, Note_on_c, 14, 47, 0
26, 93420, Note_on_c, 14, 47, 90
26, 93449, Note_on_c, 14, 47, 0
26, 93450, Note_on_c, 14, 49, 90
26, 93479, Note_on_c, 14, 49, 0
26, 93480, Note_on_c, 14, 50, 90
26, 93539, Note_on_c, 14, 50, 0
26, 93540, Note_on_c, 14, 52, 90
26, 93569, Note_on_c, 14, 52, 0
26, 93570, Note_on_c, 14, 54, 90
26, 93599, Note_on_c, 14, 54, 0
26, 93600, Note_on_c, 14, 56, 90
26, 93659, Note_on_c, 14, 56, 0
26, 93660, Note_on_c, 14, 44, 90
26, 93689, Note_on_c, 14, 44, 0
26, 93690, Note_on_c, 14, 45, 90
26, 93719, Note_on_c, 14, 45, 0
26, 93720, Note_on_c, 14, 47, 90
26, 93779, Note_on_c, 14, 47, 0
26, 93780, Note_on_c, 14, 49, 90
26, 93809, Note_on_c, 14, 49, 0
26, 93810, Note_on_c, 14, 51, 90
26, 93839, Note_on_c, 14, 51, 0
26, 93840, Note_on_c, 14, 52, 90
26, 93899, Note_on_c, 14, 52, 0
26, 93900, Note_on_c, 14, 40, 90
26, 93959, Note_on_c, 14, 40, 0
26, 93960, Note_on_c, 14, 52, 90
26, 93989, Note_on_c, 14, 52, 0
26, 93990, Note_on_c, 14, 50, 90
26, 94019, Note_on_c, 14, 50, 0
26, 94020, Note_on_c, 14, 49, 90
26, 94049, Note_on_c, 14, 49, 0
26, 94050, Note_on_c, 14, 47, 90
26, 94079, Note_on_c, 14, 47, 0
26, 94080, Note_on_c, 14, 45, 90
26, 94139, Note_on_c, 14, 45, 0
26, 94140, Note_on_c, 14, 45, 90
26, 94199, Note_on_c, 14, 45, 0
26, 94200, Note_on_c, 14, 45, 90
26, 94259, Note_on_c, 14, 45, 0
26, 94260, Note_on_c, 14, 45, 90
26, 94319, Note_on_c, 14, 45, 0
26, 94320, Note_on_c, 14, 45, 90
26, 94379, Note_on_c, 14, 45, 0
26, 94380, Note_on_c, 14, 45, 90
26, 94439, Note_on_c, 14, 45, 0
26, 94440, Note_on_c, 14, 45, 90
26, 94499, Note_on_c, 14, 45, 0
26, 94500, Note_on_c, 14, 45, 90
26, 94559, Note_on_c, 14, 45, 0
26, 94560, Note_on_c, 14, 45, 90
26, 94619, Note_on_c, 14, 45, 0
26, 94620, Note_on_c, 14, 44, 90
26, 94649, Note_on_c, 14, 44, 0
26, 94650, Note_on_c, 14, 45, 90
26, 94679, Note_on_c, 14, 45, 0
26, 94680, Note_on_c, 14, 42, 90
26, 94739, Note_on_c, 14, 42, 0
26, 94740, Note_on_c, 14, 45, 90
26, 94799, Note_on_c, 14, 45, 0
26, 94800, Note_on_c, 14, 44, 90
26, 94859, Note_on_c, 14, 44, 0
26, 94860, Note_on_c, 14, 42, 90
26, 94889, Note_on_c, 14, 42, 0
26, 94890, Note_on_c, 14, 44, 90
26, 94919, Note_on_c, 14, 44, 0
26, 94920, Note_on_c, 14, 40, 90
26, 94979, Note_on_c, 14, 40, 0
26, 94980, Note_on_c, 14, 44, 90
26, 95039, Note_on_c, 14, 44, 0
26, 95040, Note_on_c, 14, 45, 90
26, 95099, Note_on_c, 14, 45, 0
26, 95100, Note_on_c, 14, 47, 90
26, 95159, Note_on_c, 14, 47, 0
26, 95160, Note_on_c, 14, 49, 90
26, 95219, Note_on_c, 14, 49, 0
26, 95220, Note_on_c, 14, 50, 90
26, 95279, Note_on_c, 14, 50, 0
26, 95280, Note_on_c, 14, 52, 90
26, 95339, Note_on_c, 14, 52, 0
26, 95340, Note_on_c, 14, 49, 90
26, 95399, Note_on_c, 14, 49, 0
26, 95400, Note_on_c, 14, 50, 90
26, 95459, Note_on_c, 14, 50, 0
26, 95460, Note_on_c, 14, 52, 90
26, 95519, Note_on_c, 14, 52, 0
26, 95520, Note_on_c, 14, 54, 90
26, 95579, Note_on_c, 14, 54, 0
26, 95580, Note_on_c, 14, 54, 90
26, 95639, Note_on_c, 14, 54, 0
26, 95640, Note_on_c, 14, 54, 90
26, 95699, Note_on_c, 14, 54, 0
26, 95700, Note_on_c, 14, 54, 90
26, 95759, Note_on_c, 14, 54, 0
26, 95760, Note_on_c, 14, 49, 90
26, 95819, Note_on_c, 14, 49, 0
26, 95820, Note_on_c, 14, 49, 90
26, 95879, Note_on_c, 14, 49, 0
26, 95880, Note_on_c, 14, 49, 90
26, 95939, Note_on_c, 14, 49, 0
26, 95940, Note_on_c, 14, 49, 90
26, 95999, Note_on_c, 14, 49, 0
26, 96000, Note_on_c, 14, 51, 90
26, 96059, Note_on_c, 14, 51, 0
26, 96060, Note_on_c, 14, 51, 90
26, 96119, Note_on_c, 14, 51, 0
26, 96120, Note_on_c, 14, 51, 90
26, 96179, Note_on_c, 14, 51, 0
26, 96180, Note_on_c, 14, 51, 90
26, 96239, Note_on_c, 14, 51, 0
26, 96240, Note_on_c, 14, 47, 90
26, 96299, Note_on_c, 14, 47, 0
26, 96300, Note_on_c, 14, 47, 90
26, 96359, Note_on_c, 14, 47, 0
26, 96360, Note_on_c, 14, 47, 90
26, 96419, Note_on_c, 14, 47, 0
26, 96420, Note_on_c, 14, 47, 90
26, 96479, Note_on_c, 14, 47, 0
26, 96480, Note_on_c, 14, 52, 90
26, 96539, Note_on_c, 14, 52, 0
26, 96540, Note_on_c, 14, 44, 90
26, 96599, Note_on_c, 14, 44, 0
26, 96600, Note_on_c, 14, 45, 90
26, 96659, Note_on_c, 14, 45, 0
26, 96660, Note_on_c, 14, 47, 90
26, 96719, Note_on_c, 14, 47, 0
26, 96720, Note_on_c, 14, 40, 90
26, 96749, Note_on_c, 14, 40, 0
26, 96750, Note_on_c, 14, 42, 90
26, 96779, Note_on_c, 14, 42, 0
26, 96780, Note_on_c, 14, 44, 90
26, 96809, Note_on_c, 14, 44, 0
26, 96810, Note_on_c, 14, 45, 90
26, 96839, Note_on_c, 14, 45, 0
26, 96840, Note_on_c, 14, 47, 90
26, 96869, Note_on_c, 14, 47, 0
26, 96870, Note_on_c, 14, 49, 90
26, 96899, Note_on_c, 14, 49, 0
26, 96900, Note_on_c, 14, 51, 90
26, 96929, Note_on_c, 14, 51, 0
26, 96930, Note_on_c, 14, 52, 90
26, 96959, Note_on_c, 14, 52, 0
26, 96960, Note_on_c, 14, 49, 90
26, 97019, Note_on_c, 14, 49, 0
26, 97020, Note_on_c, 14, 49, 90
26, 97079, Note_on_c, 14, 49, 0
26, 97080, Note_on_c, 14, 49, 90
26, 97139, Note_on_c, 14, 49, 0
26, 97140, Note_on_c, 14, 49, 90
26, 97199, Note_on_c, 14, 49, 0
26, 97200, Note_on_c, 14, 54, 90
26, 97259, Note_on_c, 14, 54, 0
26, 97260, Note_on_c, 14, 54, 90
26, 97319, Note_on_c, 14, 54, 0
26, 97320, Note_on_c, 14, 54, 90
26, 97379, Note_on_c, 14, 54, 0
26, 97380, Note_on_c, 14, 54, 90
26, 97439, Note_on_c, 14, 54, 0
26, 97440, Note_on_c, 14, 51, 90
26, 97499, Note_on_c, 14, 51, 0
26, 97500, Note_on_c, 14, 51, 90
26, 97559, Note_on_c, 14, 51, 0
26, 97560, Note_on_c, 14, 51, 90
26, 97619, Note_on_c, 14, 51, 0
26, 97620, Note_on_c, 14, 51, 90
26, 97679, Note_on_c, 14, 51, 0
26, 97680, Note_on_c, 14, 47, 90
26, 97739, Note_on_c, 14, 47, 0
26, 97740, Note_on_c, 14, 47, 90
26, 97799, Note_on_c, 14, 47, 0
26, 97800, Note_on_c, 14, 47, 90
26, 97859, Note_on_c, 14, 47, 0
26, 97860, Note_on_c, 14, 47, 90
26, 97919, Note_on_c, 14, 47, 0
26, 97920, Note_on_c, 14, 52, 90
26, 97979, Note_on_c, 14, 52, 0
26, 97980, Note_on_c, 14, 44, 90
26, 98039, Note_on_c, 14, 44, 0
26, 98040, Note_on_c, 14, 45, 90
26, 98099, Note_on_c, 14, 45, 0
26, 98100, Note_on_c, 14, 47, 90
26, 98159, Note_on_c, 14, 47, 0
26, 98160, Note_on_c, 14, 40, 90
26, 98219, Note_on_c, 14, 40, 0
26, 98220, Note_on_c, 14, 44, 90
26, 98249, Note_on_c, 14, 44, 0
26, 98250, Note_on_c, 14, 45, 90
26, 98279, Note_on_c, 14, 45, 0
26, 98280, Note_on_c, 14, 47, 90
26, 98339, Note_on_c, 14, 47, 0
26, 98340, Note_on_c, 14, 49, 90
26, 98369, Note_on_c, 14, 49, 0
26, 98370, Note_on_c, 14, 51, 90
26, 98399, Note_on_c, 14, 51, 0
26, 98400, Note_on_c, 14, 52, 90
26, 98459, Note_on_c, 14, 52, 0
26, 98460, Note_on_c, 14, 54, 90
26, 98489, Note_on_c, 14, 54, 0
26, 98490, Note_on_c, 14, 56, 90
26, 98519, Note_on_c, 14, 56, 0
26, 98520, Note_on_c, 14, 59, 90
26, 98579, Note_on_c, 14, 59, 0
26, 98580, Note_on_c, 14, 47, 90
26, 98639, Note_on_c, 14, 47, 0
26, 98640, Note_on_c, 14, 52, 90
26, 98699, Note_on_c, 14, 52, 0
26, 98700, Note_on_c, 14, 51, 90
26, 98729, Note_on_c, 14, 51, 0
26, 98730, Note_on_c, 14, 49, 90
26, 98759, Note_on_c, 14, 49, 0
26, 98760, Note_on_c, 14, 47, 90
26, 98789, Note_on_c, 14, 47, 0
26, 98790, Note_on_c, 14, 45, 90
26, 98819, Note_on_c, 14, 45, 0
26, 98820, Note_on_c, 14, 44, 90
26, 98849, Note_on_c, 14, 44, 0
26, 98850, Note_on_c, 14, 42, 90
26, 98879, Note_on_c, 14, 42, 0
26, 98880, Note_on_c, 14, 40, 90
26, 98939, Note_on_c, 14, 40, 0
26, 98940, Note_on_c, 14, 40, 90
26, 98999, Note_on_c, 14, 40, 0
26, 99000, Note_on_c, 14, 40, 90
26, 99059, Note_on_c, 14, 40, 0
26, 99060, Note_on_c, 14, 40, 90
26, 99119, Note_on_c, 14, 40, 0
26, 99120, Note_on_c, 14, 41, 90
26, 99179, Note_on_c, 14, 41, 0
26, 99180, Note_on_c, 14, 41, 90
26, 99239, Note_on_c, 14, 41, 0
26, 99240, Note_on_c, 14, 41, 90
26, 99299, Note_on_c, 14, 41, 0
26, 99300, Note_on_c, 14, 41, 90
26, 99359, Note_on_c, 14, 41, 0
26, 99360, Note_on_c, 14, 42, 90
26, 99419, Note_on_c, 14, 42, 0
26, 99420, Note_on_c, 14, 42, 90
26, 99479, Note_on_c, 14, 42, 0
26, 99480, Note_on_c, 14, 42, 90
26, 99539, Note_on_c, 14, 42, 0
26, 99540, Note_on_c, 14, 42, 90
26, 99599, Note_on_c, 14, 42, 0
26, 99600, Note_on_c, 14, 49, 90
26, 99659, Note_on_c, 14, 49, 0
26, 99660, Note_on_c, 14, 49, 90
26, 99719, Note_on_c, 14, 49, 0
26, 99720, Note_on_c, 14, 49, 90
26, 99779, Note_on_c, 14, 49, 0
26, 99780, Note_on_c, 14, 49, 90
26, 99839, Note_on_c, 14, 49, 0
26, 99840, Note_on_c, 14, 50, 90
26, 99899, Note_on_c, 14, 50, 0
26, 99900, Note_on_c, 14, 50, 90
26, 99959, Note_on_c, 14, 50, 0
26, 99960, Note_on_c, 14, 50, 90
26, 100019, Note_on_c, 14, 50, 0
26, 100020, Note_on_c, 14, 50, 90
26, 100079, Note_on_c, 14, 50, 0
26, 100080, Note_on_c, 14, 46, 90
26, 100139, Note_on_c, 14, 46, 0
26, 100140, Note_on_c, 14, 46, 90
26, 100199, Note_on_c, 14, 46, 0
26, 100200, Note_on_c, 14, 46, 90
26, 100259, Note_on_c, 14, 46, 0
26, 100260, Note_on_c, 14, 46, 90
26, 100319, Note_on_c, 14, 46, 0
26, 100320, Note_on_c, 14, 47, 90
26, 100379, Note_on_c, 14, 47, 0
26, 100380, Note_on_c, 14, 45, 90
26, 100409, Note_on_c, 14, 45, 0
26, 100410, Note_on_c, 14, 44, 90
26, 100439, Note_on_c, 14, 44, 0
26, 100440, Note_on_c, 14, 45, 90
26, 100499, Note_on_c, 14, 45, 0
26, 100500, Note_on_c, 14, 47, 90
26, 100559, Note_on_c, 14, 47, 0
26, 100560, Note_on_c, 14, 49, 90
26, 100619, Note_on_c, 14, 49, 0
26, 100620, Note_on_c, 14, 51, 90
26, 100649, Note_on_c, 14, 51, 0
26, 100650, Note_on_c, 14, 53, 90
26, 100679, Note_on_c, 14, 53, 0
26, 100680, Note_on_c, 14, 54, 90
26, 100709, Note_on_c, 14, 54, 0
26, 100710, Note_on_c, 14, 53, 90
26, 100739, Note_on_c, 14, 53, 0
26, 100740, Note_on_c, 14, 54, 90
26, 100769, Note_on_c, 14, 54, 0
26, 100770, Note_on_c, 14, 56, 90
26, 100799, Note_on_c, 14, 56, 0
26, 100800, Note_on_c, 14, 57, 90
26, 100859, Note_on_c, 14, 57, 0
26, 100860, Note_on_c, 14, 59, 90
26, 100919, Note_on_c, 14, 59, 0
26, 100920, Note_on_c, 14, 57, 90
26, 100979, Note_on_c, 14, 57, 0
26, 100980, Note_on_c, 14, 56, 90
26, 101039, Note_on_c, 14, 56, 0
26, 101040, Note_on_c, 14, 57, 90
26, 101099, Note_on_c, 14, 57, 0
26, 101100, Note_on_c, 14, 56, 90
26, 101129, Note_on_c, 14, 56, 0
26, 101130, Note_on_c, 14, 57, 90
26, 101159, Note_on_c, 14, 57, 0
26, 101160, Note_on_c, 14, 54, 90
26, 101219, Note_on_c, 14, 54, 0
26, 101220, Note_on_c, 14, 56, 90
26, 101279, Note_on_c, 14, 56, 0
26, 101280, Note_on_c, 14, 57, 90
26, 101339, Note_on_c, 14, 57, 0
26, 101340, Note_on_c, 14, 56, 90
26, 101369, Note_on_c, 14, 56, 0
26, 101370, Note_on_c, 14, 57, 90
26, 101399, Note_on_c, 14, 57, 0
26, 101400, Note_on_c, 14, 54, 90
26, 101459, Note_on_c, 14, 54, 0
26, 101460, Note_on_c, 14, 57, 90
26, 101519, Note_on_c, 14, 57, 0
26, 101520, Note_on_c, 14, 53, 90
26, 101579, Note_on_c, 14, 53, 0
26, 101580, Note_on_c, 14, 51, 90
26, 101609, Note_on_c, 14, 51, 0
26, 101610, Note_on_c, 14, 53, 90
26, 101639, Note_on_c, 14, 53, 0
26, 101640, Note_on_c, 14, 49, 90
26, 101699, Note_on_c, 14, 49, 0
26, 101700, Note_on_c, 14, 53, 90
26, 101759, Note_on_c, 14, 53, 0
26, 101760, Note_on_c, 14, 54, 90
26, 101819, Note_on_c, 14, 54, 0
26, 101820, Note_on_c, 14, 49, 90
26, 101879, Note_on_c, 14, 49, 0
26, 101880, Note_on_c, 14, 42, 90
26, 101939, Note_on_c, 14, 42, 0
26, 101940, Note_on_c, 14, 45, 90
26, 101999, Note_on_c, 14, 45, 0
26, 102000, Note_on_c, 14, 47, 90
26, 102059, Note_on_c, 14, 47, 0
26, 102060, Note_on_c, 14, 59, 90
26, 102089, Note_on_c, 14, 59, 0
26, 102090, Note_on_c, 14, 57, 90
26, 102119, Note_on_c, 14, 57, 0
26, 102120, Note_on_c, 14, 56, 90
26, 102179, Note_on_c, 14, 56, 0
26, 102180, Note_on_c, 14, 54, 90
26, 102239, Note_on_c, 14, 54, 0
26, 102240, Note_on_c, 14, 52, 90
26, 102299, Note_on_c, 14, 52, 0
26, 102300, Note_on_c, 14, 40, 90
26, 102359, Note_on_c, 14, 40, 0
26, 102360, Note_on_c, 14, 40, 90
26, 102419, Note_on_c, 14, 40, 0
26, 102420, Note_on_c, 14, 40, 90
26, 102479, Note_on_c, 14, 40, 0
26, 102480, Note_on_c, 14, 45, 90
26, 102539, Note_on_c, 14, 45, 0
26, 102540, Note_on_c, 14, 57, 90
26, 102569, Note_on_c, 14, 57, 0
26, 102570, Note_on_c, 14, 56, 90
26, 102599, Note_on_c, 14, 56, 0
26, 102600, Note_on_c, 14, 54, 90
26, 102659, Note_on_c, 14, 54, 0
26, 102660, Note_on_c, 14, 52, 90
26, 102719, Note_on_c, 14, 52, 0
26, 102720, Note_on_c, 14, 50, 90
26, 102779, Note_on_c, 14, 50, 0
26, 102780, Note_on_c, 14, 38, 90
26, 102839, Note_on_c, 14, 38, 0
26, 102840, Note_on_c, 14, 38, 90
26, 102899, Note_on_c, 14, 38, 0
26, 102900, Note_on_c, 14, 38, 90
26, 102959, Note_on_c, 14, 38, 0
26, 102960, Note_on_c, 14, 43, 90
26, 103019, Note_on_c, 14, 43, 0
26, 103020, Note_on_c, 14, 56, 90
26, 103049, Note_on_c, 14, 56, 0
26, 103050, Note_on_c, 14, 54, 90
26, 103079, Note_on_c, 14, 54, 0
26, 103080, Note_on_c, 14, 53, 90
26, 103139, Note_on_c, 14, 53, 0
26, 103140, Note_on_c, 14, 51, 90
26, 103199, Note_on_c, 14, 51, 0
26, 103200, Note_on_c, 14, 49, 90
26, 103259, Note_on_c, 14, 49, 0
26, 103260, Note_on_c, 14, 37, 90
26, 103319, Note_on_c, 14, 37, 0
26, 103320, Note_on_c, 14, 37, 90
26, 103379, Note_on_c, 14, 37, 0
26, 103380, Note_on_c, 14, 37, 90
26, 103439, Note_on_c, 14, 37, 0
26, 103440, Note_on_c, 14, 42, 90
26, 103469, Note_on_c, 14, 42, 0
26, 103470, Note_on_c, 14, 54, 90
26, 103499, Note_on_c, 14, 54, 0
26, 103500, Note_on_c, 14, 56, 90
26, 103529, Note_on_c, 14, 56, 0
26, 103530, Note_on_c, 14, 57, 90
26, 103559, Note_on_c, 14, 57, 0
26, 103560, Note_on_c, 14, 59, 90
26, 103589, Note_on_c, 14, 59, 0
26, 103590, Note_on_c, 14, 56, 90
26, 103619, Note_on_c, 14, 56, 0
26, 103620, Note_on_c, 14, 57, 90
26, 103649, Note_on_c, 14, 57, 0
26, 103650, Note_on_c, 14, 59, 90
26, 103679, Note_on_c, 14, 59, 0
26, 103680, Note_on_c, 14, 61, 90
26, 103739, Note_on_c, 14, 61, 0
26, 103740, Note_on_c, 14, 49, 90
26, 103799, Note_on_c, 14, 49, 0
26, 103800, Note_on_c, 14, 49, 90
26, 103859, Note_on_c, 14, 49, 0
26, 103860, Note_on_c, 14, 49, 90
26, 103919, Note_on_c, 14, 49, 0
26, 103920, Note_on_c, 14, 49, 90
26, 103979, Note_on_c, 14, 49, 0
26, 103980, Note_on_c, 14, 49, 90
26, 104039, Note_on_c, 14, 49, 0
26, 104040, Note_on_c, 14, 49, 90
26, 104099, Note_on_c, 14, 49, 0
26, 104100, Note_on_c, 14, 49, 90
26, 104159, Note_on_c, 14, 49, 0
26, 104160, Note_on_c, 14, 50, 90
26, 104219, Note_on_c, 14, 50, 0
26, 104220, Note_on_c, 14, 50, 90
26, 104279, Note_on_c, 14, 50, 0
26, 104280, Note_on_c, 14, 50, 90
26, 104339, Note_on_c, 14, 50, 0
26, 104340, Note_on_c, 14, 50, 90
26, 104399, Note_on_c, 14, 50, 0
26, 104400, Note_on_c, 14, 44, 90
26, 104459, Note_on_c, 14, 44, 0
26, 104460, Note_on_c, 14, 44, 90
26, 104519, Note_on_c, 14, 44, 0
26, 104520, Note_on_c, 14, 44, 90
26, 104579, Note_on_c, 14, 44, 0
26, 104580, Note_on_c, 14, 44, 90
26, 104639, Note_on_c, 14, 44, 0
26, 104640, Note_on_c, 14, 41, 90
26, 104699, Note_on_c, 14, 41, 0
26, 104700, Note_on_c, 14, 41, 90
26, 104759, Note_on_c, 14, 41, 0
26, 104760, Note_on_c, 14, 41, 90
26, 104819, Note_on_c, 14, 41, 0
26, 104820, Note_on_c, 14, 41, 90
26, 104879, Note_on_c, 14, 41, 0
26, 104880, Note_on_c, 14, 37, 90
26, 104939, Note_on_c, 14, 37, 0
26, 104940, Note_on_c, 14, 37, 90
26, 104999, Note_on_c, 14, 37, 0
26, 105000, Note_on_c, 14, 37, 90
26, 105059, Note_on_c, 14, 37, 0
26, 105060, Note_on_c, 14, 37, 90
26, 105119, Note_on_c, 14, 37, 0
26, 105120, Note_on_c, 14, 42, 90
26, 105179, Note_on_c, 14, 42, 0
26, 105180, Note_on_c, 14, 50, 90
26, 105239, Note_on_c, 14, 50, 0
26, 105240, Note_on_c, 14, 47, 90
26, 105299, Note_on_c, 14, 47, 0
26, 105300, Note_on_c, 14, 49, 90
26, 105359, Note_on_c, 14, 49, 0
26, 105360, Note_on_c, 14, 42, 90
26, 105419, Note_on_c, 14, 42, 0
26, 105420, Note_on_c, 14, 45, 90
26, 105449, Note_on_c, 14, 45, 0
26, 105450, Note_on_c, 14, 47, 90
26, 105479, Note_on_c, 14, 47, 0
26, 105480, Note_on_c, 14, 49, 90
26, 105539, Note_on_c, 14, 49, 0
26, 105540, Note_on_c, 14, 51, 90
26, 105569, Note_on_c, 14, 51, 0
26, 105570, Note_on_c, 14, 53, 90
26, 105599, Note_on_c, 14, 53, 0
26, 105600, Note_on_c, 14, 54, 90
26, 105659, Note_on_c, 14, 54, 0
26, 105660, Note_on_c, 14, 45, 90
26, 105689, Note_on_c, 14, 45, 0
26, 105690, Note_on_c, 14, 47, 90
26, 105719, Note_on_c, 14, 47, 0
26, 105720, Note_on_c, 14, 49, 90
26, 105779, Note_on_c, 14, 49, 0
26, 105780, Note_on_c, 14, 37, 90
26, 105839, Note_on_c, 14, 37, 0
26, 105840, Note_on_c, 14, 42, 90
26, 105899, Note_on_c, 14, 42, 0
26, 105900, Note_on_c, 14, 45, 90
26, 105929, Note_on_c, 14, 45, 0
26, 105930, Note_on_c, 14, 49, 90
26, 105959, Note_on_c, 14, 49, 0
26, 105960, Note_on_c, 14, 54, 90
26, 106019, Note_on_c, 14, 54, 0
26, 106020, Note_on_c, 14, 54, 90
26, 106049, Note_on_c, 14, 54, 0
26, 106050, Note_on_c, 14, 56, 90
26, 106079, Note_on_c, 14, 56, 0
26, 106080, Note_on_c, 14, 57, 90
26, 106139, Note_on_c, 14, 57, 0
26, 106140, Note_on_c, 14, 59, 90
26, 106199, Note_on_c, 14, 59, 0
26, 106200, Note_on_c, 14, 57, 90
26, 106259, Note_on_c, 14, 57, 0
26, 106260, Note_on_c, 14, 56, 90
26, 106319, Note_on_c, 14, 56, 0
26, 106320, Note_on_c, 14, 57, 90
26, 106379, Note_on_c, 14, 57, 0
26, 106380, Note_on_c, 14, 56, 90
26, 106409, Note_on_c, 14, 56, 0
26, 106410, Note_on_c, 14, 57, 90
26, 106439, Note_on_c, 14, 57, 0
26, 106440, Note_on_c, 14, 54, 90
26, 106499, Note_on_c, 14, 54, 0
26, 106500, Note_on_c, 14, 56, 90
26, 106529, Note_on_c, 14, 56, 0
26, 106530, Note_on_c, 14, 57, 90
26, 106559, Note_on_c, 14, 57, 0
26, 106560, Note_on_c, 14, 59, 90
26, 106619, Note_on_c, 14, 59, 0
26, 106620, Note_on_c, 14, 57, 90
26, 106679, Note_on_c, 14, 57, 0
26, 106680, Note_on_c, 14, 56, 90
26, 106739, Note_on_c, 14, 56, 0
26, 106740, Note_on_c, 14, 54, 90
26, 106799, Note_on_c, 14, 54, 0
26, 106800, Note_on_c, 14, 53, 90
26, 106859, Note_on_c, 14, 53, 0
26, 106860, Note_on_c, 14, 51, 90
26, 106889, Note_on_c, 14, 51, 0
26, 106890, Note_on_c, 14, 53, 90
26, 106919, Note_on_c, 14, 53, 0
26, 106920, Note_on_c, 14, 49, 90
26, 106979, Note_on_c, 14, 49, 0
26, 106980, Note_on_c, 14, 61, 90
26, 107009, Note_on_c, 14, 61, 0
26, 107010, Note_on_c, 14, 59, 90
26, 107039, Note_on_c, 14, 59, 0
26, 107040, Note_on_c, 14, 57, 90
26, 107069, Note_on_c, 14, 57, 0
26, 107070, Note_on_c, 14, 56, 90
26, 107099, Note_on_c, 14, 56, 0
26, 107100, Note_on_c, 14, 54, 90
26, 107129, Note_on_c, 14, 54, 0
26, 107130, Note_on_c, 14, 52, 90
26, 107159, Note_on_c, 14, 52, 0
26, 107160, Note_on_c, 14, 50, 90
26, 107219, Note_on_c, 14, 50, 0
26, 107220, Note_on_c, 14, 54, 90
26, 107279, Note_on_c, 14, 54, 0
26, 107280, Note_on_c, 14, 56, 90
26, 107309, Note_on_c, 14, 56, 0
26, 107310, Note_on_c, 14, 54, 90
26, 107339, Note_on_c, 14, 54, 0
26, 107340, Note_on_c, 14, 53, 90
26, 107369, Note_on_c, 14, 53, 0
26, 107370, Note_on_c, 14, 51, 90
26, 107399, Note_on_c, 14, 51, 0
26, 107400, Note_on_c, 14, 49, 90
26, 107459, Note_on_c, 14, 49, 0
26, 107460, Note_on_c, 14, 59, 90
26, 107519, Note_on_c, 14, 59, 0
26, 107520, Note_on_c, 14, 57, 90
26, 107579, Note_on_c, 14, 57, 0
26, 107580, Note_on_c, 14, 54, 90
26, 107639, Note_on_c, 14, 54, 0
26, 107640, Note_on_c, 14, 61, 90
26, 107699, Note_on_c, 14, 61, 0
26, 107700, Note_on_c, 14, 49, 90
26, 107759, Note_on_c, 14, 49, 0
26, 107760, Note_on_c, 14, 54, 90
26, 107819, Note_on_c, 14, 54, 0
26, 107820, Note_on_c, 14, 49, 90
26, 107879, Note_on_c, 14, 49, 0
26, 107880, Note_on_c, 14, 42, 90
26, 107939, Note_on_c, 14, 42, 0
26, 107940, Note_on_c, 14, 54, 90
26, 107999, Note_on_c, 14, 54, 0
26, 108000, Note_on_c, 14, 49, 90
26, 108119, Note_on_c, 14, 49, 0
26, 108180, Note_on_c, 14, 52, 90
26, 108239, Note_on_c, 14, 52, 0
26, 108240, Note_on_c, 14, 45, 90
26, 108299, Note_on_c, 14, 45, 0
26, 108300, Note_on_c, 14, 45, 90
26, 108359, Note_on_c, 14, 45, 0
26, 108360, Note_on_c, 14, 45, 90
26, 108419, Note_on_c, 14, 45, 0
26, 108420, Note_on_c, 14, 45, 90
26, 108479, Note_on_c, 14, 45, 0
26, 108480, Note_on_c, 14, 45, 90
26, 108539, Note_on_c, 14, 45, 0
26, 108540, Note_on_c, 14, 45, 90
26, 108599, Note_on_c, 14, 45, 0
26, 108600, Note_on_c, 14, 45, 90
26, 108659, Note_on_c, 14, 45, 0
26, 108660, Note_on_c, 14, 45, 90
26, 108719, Note_on_c, 14, 45, 0
26, 108720, Note_on_c, 14, 45, 90
26, 108779, Note_on_c, 14, 45, 0
26, 108780, Note_on_c, 14, 45, 90
26, 108839, Note_on_c, 14, 45, 0
26, 108840, Note_on_c, 14, 45, 90
26, 108899, Note_on_c, 14, 45, 0
26, 108900, Note_on_c, 14, 45, 90
26, 108959, Note_on_c, 14, 45, 0
26, 108960, Note_on_c, 14, 45, 90
26, 109019, Note_on_c, 14, 45, 0
26, 109020, Note_on_c, 14, 45, 90
26, 109079, Note_on_c, 14, 45, 0
26, 109080, Note_on_c, 14, 45, 90
26, 109139, Note_on_c, 14, 45, 0
26, 109140, Note_on_c, 14, 45, 90
26, 109199, Note_on_c, 14, 45, 0
26, 109200, Note_on_c, 14, 45, 90
26, 109259, Note_on_c, 14, 45, 0
26, 109260, Note_on_c, 14, 57, 90
26, 109289, Note_on_c, 14, 57, 0
26, 109290, Note_on_c, 14, 56, 90
26, 109319, Note_on_c, 14, 56, 0
26, 109320, Note_on_c, 14, 57, 90
26, 109349, Note_on_c, 14, 57, 0
26, 109350, Note_on_c, 14, 61, 90
26, 109379, Note_on_c, 14, 61, 0
26, 109380, Note_on_c, 14, 59, 90
26, 109409, Note_on_c, 14, 59, 0
26, 109410, Note_on_c, 14, 57, 90
26, 109439, Note_on_c, 14, 57, 0
26, 109440, Note_on_c, 14, 56, 90
26, 109469, Note_on_c, 14, 56, 0
26, 109470, Note_on_c, 14, 54, 90
26, 109499, Note_on_c, 14, 54, 0
26, 109500, Note_on_c, 14, 52, 90
26, 109529, Note_on_c, 14, 52, 0
26, 109530, Note_on_c, 14, 51, 90
26, 109559, Note_on_c, 14, 51, 0
26, 109560, Note_on_c, 14, 49, 90
26, 109619, Note_on_c, 14, 49, 0
26, 109620, Note_on_c, 14, 52, 90
26, 109679, Note_on_c, 14, 52, 0
26, 109680, Note_on_c, 14, 54, 90
26, 109709, Note_on_c, 14, 54, 0
26, 109710, Note_on_c, 14, 52, 90
26, 109739, Note_on_c, 14, 52, 0
26, 109740, Note_on_c, 14, 51, 90
26, 109769, Note_on_c, 14, 51, 0
26, 109770, Note_on_c, 14, 49, 90
26, 109799, Note_on_c, 14, 49, 0
26, 109800, Note_on_c, 14, 47, 90
26, 109859, Note_on_c, 14, 47, 0
26, 109860, Note_on_c, 14, 57, 90
26, 109919, Note_on_c, 14, 57, 0
26, 109920, Note_on_c, 14, 56, 90
26, 109979, Note_on_c, 14, 56, 0
26, 109980, Note_on_c, 14, 52, 90
26, 110039, Note_on_c, 14, 52, 0
26, 110040, Note_on_c, 14, 59, 90
26, 110099, Note_on_c, 14, 59, 0
26, 110100, Note_on_c, 14, 47, 90
26, 110159, Note_on_c, 14, 47, 0
26, 110160, Note_on_c, 14, 52, 90
26, 110219, Note_on_c, 14, 52, 0
26, 110220, Note_on_c, 14, 56, 90
26, 110249, Note_on_c, 14, 56, 0
26, 110250, Note_on_c, 14, 54, 90
26, 110279, Note_on_c, 14, 54, 0
26, 110280, Note_on_c, 14, 52, 90
26, 110339, Note_on_c, 14, 52, 0
26, 110340, Note_on_c, 14, 49, 90
26, 110399, Note_on_c, 14, 49, 0
26, 110400, Note_on_c, 14, 54, 90
26, 110459, Note_on_c, 14, 54, 0
26, 110460, Note_on_c, 14, 56, 90
26, 110519, Note_on_c, 14, 56, 0
26, 110520, Note_on_c, 14, 58, 90
26, 110579, Note_on_c, 14, 58, 0
26, 110580, Note_on_c, 14, 56, 90
26, 110639, Note_on_c, 14, 56, 0
26, 110640, Note_on_c, 14, 54, 90
26, 110699, Note_on_c, 14, 54, 0
26, 110700, Note_on_c, 14, 56, 90
26, 110759, Note_on_c, 14, 56, 0
26, 110760, Note_on_c, 14, 58, 90
26, 110819, Note_on_c, 14, 58, 0
26, 110820, Note_on_c, 14, 54, 90
26, 110879, Note_on_c, 14, 54, 0
26, 110880, Note_on_c, 14, 47, 90
26, 110939, Note_on_c, 14, 47, 0
26, 110940, Note_on_c, 14, 47, 90
26, 110999, Note_on_c, 14, 47, 0
26, 111000, Note_on_c, 14, 47, 90
26, 111059, Note_on_c, 14, 47, 0
26, 111060, Note_on_c, 14, 47, 90
26, 111119, Note_on_c, 14, 47, 0
26, 111120, Note_on_c, 14, 42, 90
26, 111179, Note_on_c, 14, 42, 0
26, 111180, Note_on_c, 14, 42, 90
26, 111239, Note_on_c, 14, 42, 0
26, 111240, Note_on_c, 14, 42, 90
26, 111299, Note_on_c, 14, 42, 0
26, 111300, Note_on_c, 14, 42, 90
26, 111359, Note_on_c, 14, 42, 0
26, 111360, Note_on_c, 14, 44, 90
26, 111419, Note_on_c, 14, 44, 0
26, 111420, Note_on_c, 14, 44, 90
26, 111479, Note_on_c, 14, 44, 0
26, 111480, Note_on_c, 14, 44, 90
26, 111539, Note_on_c, 14, 44, 0
26, 111540, Note_on_c, 14, 44, 90
26, 111599, Note_on_c, 14, 44, 0
26, 111600, Note_on_c, 14, 45, 90
26, 111659, Note_on_c, 14, 45, 0
26, 111660, Note_on_c, 14, 45, 90
26, 111719, Note_on_c, 14, 45, 0
26, 111720, Note_on_c, 14, 45, 90
26, 111779, Note_on_c, 14, 45, 0
26, 111780, Note_on_c, 14, 45, 90
26, 111839, Note_on_c, 14, 45, 0
26, 111840, Note_on_c, 14, 50, 90
26, 111899, Note_on_c, 14, 50, 0
26, 111900, Note_on_c, 14, 50, 90
26, 111959, Note_on_c, 14, 50, 0
26, 111960, Note_on_c, 14, 50, 90
26, 112019, Note_on_c, 14, 50, 0
26, 112020, Note_on_c, 14, 50, 90
26, 112079, Note_on_c, 14, 50, 0
26, 112080, Note_on_c, 14, 50, 90
26, 112139, Note_on_c, 14, 50, 0
26, 112140, Note_on_c, 14, 52, 90
26, 112169, Note_on_c, 14, 52, 0
26, 112170, Note_on_c, 14, 50, 90
26, 112199, Note_on_c, 14, 50, 0
26, 112200, Note_on_c, 14, 49, 90
26, 112229, Note_on_c, 14, 49, 0
26, 112230, Note_on_c, 14, 47, 90
26, 112259, Note_on_c, 14, 47, 0
26, 112260, Note_on_c, 14, 45, 90
26, 112289, Note_on_c, 14, 45, 0
26, 112290, Note_on_c, 14, 47, 90
26, 112319, Note_on_c, 14, 47, 0
26, 112320, Note_on_c, 14, 49, 90
26, 112379, Note_on_c, 14, 49, 0
26, 112380, Note_on_c, 14, 50, 90
26, 112439, Note_on_c, 14, 50, 0
26, 112440, Note_on_c, 14, 49, 90
26, 112499, Note_on_c, 14, 49, 0
26, 112500, Note_on_c, 14, 47, 90
26, 112559, Note_on_c, 14, 47, 0
26, 112560, Note_on_c, 14, 49, 90
26, 112619, Note_on_c, 14, 49, 0
26, 112620, Note_on_c, 14, 47, 90
26, 112649, Note_on_c, 14, 47, 0
26, 112650, Note_on_c, 14, 49, 90
26, 112679, Note_on_c, 14, 49, 0
26, 112680, Note_on_c, 14, 45, 90
26, 112739, Note_on_c, 14, 45, 0
26, 112740, Note_on_c, 14, 47, 90
26, 112799, Note_on_c, 14, 47, 0
26, 112800, Note_on_c, 14, 49, 90
26, 112859, Note_on_c, 14, 49, 0
26, 112860, Note_on_c, 14, 47, 90
26, 112889, Note_on_c, 14, 47, 0
26, 112890, Note_on_c, 14, 49, 90
26, 112919, Note_on_c, 14, 49, 0
26, 112920, Note_on_c, 14, 45, 90
26, 112979, Note_on_c, 14, 45, 0
26, 112980, Note_on_c, 14, 57, 90
26, 113039, Note_on_c, 14, 57, 0
26, 113040, Note_on_c, 14, 56, 90
26, 113099, Note_on_c, 14, 56, 0
26, 113100, Note_on_c, 14, 54, 90
26, 113129, Note_on_c, 14, 54, 0
26, 113130, Note_on_c, 14, 56, 90
26, 113159, Note_on_c, 14, 56, 0
26, 113160, Note_on_c, 14, 52, 90
26, 113219, Note_on_c, 14, 52, 0
26, 113220, Note_on_c, 14, 56, 90
26, 113279, Note_on_c, 14, 56, 0
26, 113280, Note_on_c, 14, 57, 90
26, 113339, Note_on_c, 14, 57, 0
26, 113340, Note_on_c, 14, 52, 90
26, 113399, Note_on_c, 14, 52, 0
26, 113400, Note_on_c, 14, 45, 90
26, 113459, Note_on_c, 14, 45, 0
26, 113460, Note_on_c, 14, 49, 90
26, 113519, Note_on_c, 14, 49, 0
26, 113520, Note_on_c, 14, 50, 90
26, 113579, Note_on_c, 14, 50, 0
26, 113580, Note_on_c, 14, 62, 90
26, 113609, Note_on_c, 14, 62, 0
26, 113610, Note_on_c, 14, 61, 90
26, 113639, Note_on_c, 14, 61, 0
26, 113640, Note_on_c, 14, 59, 90
26, 113699, Note_on_c, 14, 59, 0
26, 113700, Note_on_c, 14, 57, 90
26, 113759, Note_on_c, 14, 57, 0
26, 113760, Note_on_c, 14, 56, 90
26, 113819, Note_on_c, 14, 56, 0
26, 113820, Note_on_c, 14, 44, 90
26, 113879, Note_on_c, 14, 44, 0
26, 113880, Note_on_c, 14, 44, 90
26, 113939, Note_on_c, 14, 44, 0
26, 113940, Note_on_c, 14, 44, 90
26, 113999, Note_on_c, 14, 44, 0
26, 114000, Note_on_c, 14, 49, 90
26, 114059, Note_on_c, 14, 49, 0
26, 114060, Note_on_c, 14, 61, 90
26, 114089, Note_on_c, 14, 61, 0
26, 114090, Note_on_c, 14, 59, 90
26, 114119, Note_on_c, 14, 59, 0
26, 114120, Note_on_c, 14, 57, 90
26, 114179, Note_on_c, 14, 57, 0
26, 114180, Note_on_c, 14, 56, 90
26, 114239, Note_on_c, 14, 56, 0
26, 114240, Note_on_c, 14, 54, 90
26, 114299, Note_on_c, 14, 54, 0
26, 114300, Note_on_c, 14, 42, 90
26, 114359, Note_on_c, 14, 42, 0
26, 114360, Note_on_c, 14, 42, 90
26, 114419, Note_on_c, 14, 42, 0
26, 114420, Note_on_c, 14, 42, 90
26, 114479, Note_on_c, 14, 42, 0
26, 114480, Note_on_c, 14, 47, 90
26, 114539, Note_on_c, 14, 47, 0
26, 114540, Note_on_c, 14, 59, 90
26, 114569, Note_on_c, 14, 59, 0
26, 114570, Note_on_c, 14, 57, 90
26, 114599, Note_on_c, 14, 57, 0
26, 114600, Note_on_c, 14, 56, 90
26, 114659, Note_on_c, 14, 56, 0
26, 114660, Note_on_c, 14, 54, 90
26, 114719, Note_on_c, 14, 54, 0
26, 114720, Note_on_c, 14, 52, 90
26, 114779, Note_on_c, 14, 52, 0
26, 114780, Note_on_c, 14, 40, 90
26, 114839, Note_on_c, 14, 40, 0
26, 114840, Note_on_c, 14, 40, 90
26, 114899, Note_on_c, 14, 40, 0
26, 114900, Note_on_c, 14, 40, 90
26, 114959, Note_on_c, 14, 40, 0
26, 114960, Note_on_c, 14, 52, 90
26, 115019, Note_on_c, 14, 52, 0
26, 115020, Note_on_c, 14, 40, 90
26, 115079, Note_on_c, 14, 40, 0
26, 115080, Note_on_c, 14, 40, 90
26, 115139, Note_on_c, 14, 40, 0
26, 115140, Note_on_c, 14, 40, 90
26, 115199, Note_on_c, 14, 40, 0
26, 115200, Note_on_c, 14, 52, 90
26, 115259, Note_on_c, 14, 52, 0
26, 115260, Note_on_c, 14, 40, 90
26, 115319, Note_on_c, 14, 40, 0
26, 115320, Note_on_c, 14, 40, 90
26, 115379, Note_on_c, 14, 40, 0
26, 115380, Note_on_c, 14, 42, 90
26, 115409, Note_on_c, 14, 42, 0
26, 115410, Note_on_c, 14, 44, 90
26, 115439, Note_on_c, 14, 44, 0
26, 115440, Note_on_c, 14, 45, 90
26, 115469, Note_on_c, 14, 45, 0
26, 115470, Note_on_c, 14, 47, 90
26, 115499, Note_on_c, 14, 47, 0
26, 115500, Note_on_c, 14, 49, 90
26, 115529, Note_on_c, 14, 49, 0
26, 115530, Note_on_c, 14, 45, 90
26, 115559, Note_on_c, 14, 45, 0
26, 115560, Note_on_c, 14, 50, 90
26, 115589, Note_on_c, 14, 50, 0
26, 115590, Note_on_c, 14, 52, 90
26, 115619, Note_on_c, 14, 52, 0
26, 115620, Note_on_c, 14, 54, 90
26, 115649, Note_on_c, 14, 54, 0
26, 115650, Note_on_c, 14, 50, 90
26, 115679, Note_on_c, 14, 50, 0
26, 115680, Note_on_c, 14, 52, 90
26, 115739, Note_on_c, 14, 52, 0
26, 115740, Note_on_c, 14, 50, 90
26, 115769, Note_on_c, 14, 50, 0
26, 115770, Note_on_c, 14, 49, 90
26, 115799, Note_on_c, 14, 49, 0
26, 115800, Note_on_c, 14, 47, 90
26, 115829, Note_on_c, 14, 47, 0
26, 115830, Note_on_c, 14, 45, 90
26, 115859, Note_on_c, 14, 45, 0
26, 115860, Note_on_c, 14, 44, 90
26, 115889, Note_on_c, 14, 44, 0
26, 115890, Note_on_c, 14, 42, 90
26, 115919, Note_on_c, 14, 42, 0
26, 115920, Note_on_c, 14, 40, 90
26, 115979, Note_on_c, 14, 40, 0
26, 115980, Note_on_c, 14, 40, 90
26, 116039, Note_on_c, 14, 40, 0
26, 116040, Note_on_c, 14, 40, 90
26, 116099, Note_on_c, 14, 40, 0
26, 116100, Note_on_c, 14, 40, 90
26, 116159, Note_on_c, 14, 40, 0
26, 116160, Note_on_c, 14, 42, 90
26, 116219, Note_on_c, 14, 42, 0
26, 116220, Note_on_c, 14, 42, 90
26, 116279, Note_on_c, 14, 42, 0
26, 116280, Note_on_c, 14, 42, 90
26, 116339, Note_on_c, 14, 42, 0
26, 116340, Note_on_c, 14, 42, 90
26, 116399, Note_on_c, 14, 42, 0
26, 116400, Note_on_c, 14, 42, 90
26, 116459, Note_on_c, 14, 42, 0
26, 116460, Note_on_c, 14, 42, 90
26, 116519, Note_on_c, 14, 42, 0
26, 116520, Note_on_c, 14, 42, 90
26, 116579, Note_on_c, 14, 42, 0
26, 116580, Note_on_c, 14, 42, 90
26, 116639, Note_on_c, 14, 42, 0
26, 116640, Note_on_c, 14, 44, 90
26, 116699, Note_on_c, 14, 44, 0
26, 116700, Note_on_c, 14, 44, 90
26, 116759, Note_on_c, 14, 44, 0
26, 116760, Note_on_c, 14, 44, 90
26, 116819, Note_on_c, 14, 44, 0
26, 116820, Note_on_c, 14, 44, 90
26, 116879, Note_on_c, 14, 44, 0
26, 116880, Note_on_c, 14, 44, 90
26, 116939, Note_on_c, 14, 44, 0
26, 116940, Note_on_c, 14, 44, 90
26, 116999, Note_on_c, 14, 44, 0
26, 117000, Note_on_c, 14, 44, 90
26, 117059, Note_on_c, 14, 44, 0
26, 117060, Note_on_c, 14, 44, 90
26, 117119, Note_on_c, 14, 44, 0
26, 117120, Note_on_c, 14, 45, 90
26, 117179, Note_on_c, 14, 45, 0
26, 117180, Note_on_c, 14, 49, 90
26, 117209, Note_on_c, 14, 49, 0
26, 117210, Note_on_c, 14, 50, 90
26, 117239, Note_on_c, 14, 50, 0
26, 117240, Note_on_c, 14, 52, 90
26, 117299, Note_on_c, 14, 52, 0
26, 117300, Note_on_c, 14, 40, 90
26, 117359, Note_on_c, 14, 40, 0
26, 117360, Note_on_c, 14, 45, 90
26, 117419, Note_on_c, 14, 45, 0
26, 117420, Note_on_c, 14, 49, 90
26, 117449, Note_on_c, 14, 49, 0
26, 117450, Note_on_c, 14, 50, 90
26, 117479, Note_on_c, 14, 50, 0
26, 117480, Note_on_c, 14, 52, 90
26, 117539, Note_on_c, 14, 52, 0
26, 117540, Note_on_c, 14, 54, 90
26, 117569, Note_on_c, 14, 54, 0
26, 117570, Note_on_c, 14, 56, 90
26, 117599, Note_on_c, 14, 56, 0
26, 117600, Note_on_c, 14, 57, 90
26, 117659, Note_on_c, 14, 57, 0
26, 117660, Note_on_c, 14, 49, 90
26, 117689, Note_on_c, 14, 49, 0
26, 117690, Note_on_c, 14, 50, 90
26, 117719, Note_on_c, 14, 50, 0
26, 117720, Note_on_c, 14, 52, 90
26, 117779, Note_on_c, 14, 52, 0
26, 117780, Note_on_c, 14, 40, 90
26, 117839, Note_on_c, 14, 40, 0
26, 117840, Note_on_c, 14, 45, 90
26, 118019, Note_on_c, 14, 45, 0
26, 118020, Note_on_c, 14, 57, 90
26, 118049, Note_on_c, 14, 57, 0
26, 118050, Note_on_c, 14, 59, 90
26, 118079, Note_on_c, 14, 59, 0
26, 118080, Note_on_c, 14, 61, 90
26, 118139, Note_on_c, 14, 61, 0
26, 118140, Note_on_c, 14, 62, 90
26, 118199, Note_on_c, 14, 62, 0
26, 118200, Note_on_c, 14, 61, 90
26, 118259, Note_on_c, 14, 61, 0
26, 118260, Note_on_c, 14, 59, 90
26, 118319, Note_on_c, 14, 59, 0
26, 118320, Note_on_c, 14, 61, 90
26, 118379, Note_on_c, 14, 61, 0
26, 118380, Note_on_c, 14, 59, 90
26, 118409, Note_on_c, 14, 59, 0
26, 118410, Note_on_c, 14, 61, 90
26, 118439, Note_on_c, 14, 61, 0
26, 118440, Note_on_c, 14, 57, 90
26, 118499, Note_on_c, 14, 57, 0
26, 118500, Note_on_c, 14, 59, 90
26, 118559, Note_on_c, 14, 59, 0
26, 118560, Note_on_c, 14, 61, 90
26, 118619, Note_on_c, 14, 61, 0
26, 118620, Note_on_c, 14, 59, 90
26, 118649, Note_on_c, 14, 59, 0
26, 118650, Note_on_c, 14, 61, 90
26, 118679, Note_on_c, 14, 61, 0
26, 118680, Note_on_c, 14, 57, 90
26, 118739, Note_on_c, 14, 57, 0
26, 118740, Note_on_c, 14, 61, 90
26, 118799, Note_on_c, 14, 61, 0
26, 118800, Note_on_c, 14, 56, 90
26, 118859, Note_on_c, 14, 56, 0
26, 118860, Note_on_c, 14, 54, 90
26, 118889, Note_on_c, 14, 54, 0
26, 118890, Note_on_c, 14, 56, 90
26, 118919, Note_on_c, 14, 56, 0
26, 118920, Note_on_c, 14, 52, 90
26, 118979, Note_on_c, 14, 52, 0
26, 118980, Note_on_c, 14, 56, 90
26, 119039, Note_on_c, 14, 56, 0
26, 119040, Note_on_c, 14, 57, 90
26, 119099, Note_on_c, 14, 57, 0
26, 119100, Note_on_c, 14, 52, 90
26, 119159, Note_on_c, 14, 52, 0
26, 119160, Note_on_c, 14, 45, 90
26, 119219, Note_on_c, 14, 45, 0
26, 119220, Note_on_c, 14, 57, 90
26, 119279, Note_on_c, 14, 57, 0
26, 119280, Note_on_c, 14, 52, 90
26, 119339, Note_on_c, 14, 52, 0
26, 119340, Note_on_c, 14, 51, 90
26, 119399, Note_on_c, 14, 51, 0
26, 119400, Note_on_c, 14, 52, 90
26, 119459, Note_on_c, 14, 52, 0
26, 119460, Note_on_c, 14, 54, 90
26, 119519, Note_on_c, 14, 54, 0
26, 119520, Note_on_c, 14, 56, 90
26, 119549, Note_on_c, 14, 56, 0
26, 119550, Note_on_c, 14, 54, 90
26, 119579, Note_on_c, 14, 54, 0
26, 119580, Note_on_c, 14, 52, 90
26, 119609, Note_on_c, 14, 52, 0
26, 119610, Note_on_c, 14, 51, 90
26, 119639, Note_on_c, 14, 51, 0
26, 119640, Note_on_c, 14, 49, 90
26, 119699, Note_on_c, 14, 49, 0
26, 119700, Note_on_c, 14, 52, 90
26, 119759, Note_on_c, 14, 52, 0
26, 119760, Note_on_c, 14, 54, 90
26, 119789, Note_on_c, 14, 54, 0
26, 119790, Note_on_c, 14, 52, 90
26, 119819, Note_on_c, 14, 52, 0
26, 119820, Note_on_c, 14, 51, 90
26, 119849, Note_on_c, 14, 51, 0
26, 119850, Note_on_c, 14, 49, 90
26, 119879, Note_on_c, 14, 49, 0
26, 119880, Note_on_c, 14, 47, 90
26, 119939, Note_on_c, 14, 47, 0
26, 119940, Note_on_c, 14, 57, 90
26, 119999, Note_on_c, 14, 57, 0
26, 120000, Note_on_c, 14, 56, 90
26, 120059, Note_on_c, 14, 56, 0
26, 120060, Note_on_c, 14, 52, 90
26, 120119, Note_on_c, 14, 52, 0
26, 120120, Note_on_c, 14, 59, 90
26, 120179, Note_on_c, 14, 59, 0
26, 120180, Note_on_c, 14, 47, 90
26, 120239, Note_on_c, 14, 47, 0
26, 120240, Note_on_c, 14, 52, 90
26, 120299, Note_on_c, 14, 52, 0
26, 120300, Note_on_c, 14, 51, 90
26, 120329, Note_on_c, 14, 51, 0
26, 120330, Note_on_c, 14, 49, 90
26, 120359, Note_on_c, 14, 49, 0
26, 120360, Note_on_c, 14, 47, 90
26, 120389, Note_on_c, 14, 47, 0
26, 120390, Note_on_c, 14, 45, 90
26, 120419, Note_on_c, 14, 45, 0
26, 120420, Note_on_c, 14, 44, 90
26, 120449, Note_on_c, 14, 44, 0
26, 120450, Note_on_c, 14, 42, 90
26, 120479, Note_on_c, 14, 42, 0
26, 120480, Note_on_c, 14, 40, 90
26, 120539, Note_on_c, 14, 40, 0
26, 120540, Note_on_c, 14, 40, 90
26, 120599, Note_on_c, 14, 40, 0
26, 120600, Note_on_c, 14, 40, 90
26, 120659, Note_on_c, 14, 40, 0
26, 120660, Note_on_c, 14, 40, 90
26, 120719, Note_on_c, 14, 40, 0
26, 120720, Note_on_c, 14, 40, 90
26, 120779, Note_on_c, 14, 40, 0
26, 120780, Note_on_c, 14, 40, 90
26, 120839, Note_on_c, 14, 40, 0
26, 120840, Note_on_c, 14, 40, 90
26, 120899, Note_on_c, 14, 40, 0
26, 120900, Note_on_c, 14, 40, 90
26, 120959, Note_on_c, 14, 40, 0
26, 120960, Note_on_c, 14, 42, 90
26, 121019, Note_on_c, 14, 42, 0
26, 121020, Note_on_c, 14, 42, 90
26, 121079, Note_on_c, 14, 42, 0
26, 121080, Note_on_c, 14, 42, 90
26, 121139, Note_on_c, 14, 42, 0
26, 121140, Note_on_c, 14, 42, 90
26, 121199, Note_on_c, 14, 42, 0
26, 121200, Note_on_c, 14, 42, 90
26, 121259, Note_on_c, 14, 42, 0
26, 121260, Note_on_c, 14, 42, 90
26, 121319, Note_on_c, 14, 42, 0
26, 121320, Note_on_c, 14, 42, 90
26, 121379, Note_on_c, 14, 42, 0
26, 121380, Note_on_c, 14, 42, 90
26, 121439, Note_on_c, 14, 42, 0
26, 121440, Note_on_c, 14, 44, 90
26, 121499, Note_on_c, 14, 44, 0
26, 121500, Note_on_c, 14, 44, 90
26, 121559, Note_on_c, 14, 44, 0
26, 121560, Note_on_c, 14, 44, 90
26, 121619, Note_on_c, 14, 44, 0
26, 121620, Note_on_c, 14, 44, 90
26, 121679, Note_on_c, 14, 44, 0
26, 121680, Note_on_c, 14, 44, 90
26, 121739, Note_on_c, 14, 44, 0
26, 121740, Note_on_c, 14, 44, 90
26, 121799, Note_on_c, 14, 44, 0
26, 121800, Note_on_c, 14, 44, 90
26, 121859, Note_on_c, 14, 44, 0
26, 121860, Note_on_c, 14, 44, 90
26, 121919, Note_on_c, 14, 44, 0
26, 121920, Note_on_c, 14, 45, 90
26, 121979, Note_on_c, 14, 45, 0
26, 121980, Note_on_c, 14, 49, 90
26, 122039, Note_on_c, 14, 49, 0
26, 122040, Note_on_c, 14, 50, 90
26, 122099, Note_on_c, 14, 50, 0
26, 122100, Note_on_c, 14, 52, 90
26, 122159, Note_on_c, 14, 52, 0
26, 122160, Note_on_c, 14, 45, 90
26, 122219, Note_on_c, 14, 45, 0
26, 122220, Note_on_c, 14, 49, 90
26, 122249, Note_on_c, 14, 49, 0
26, 122250, Note_on_c, 14, 50, 90
26, 122279, Note_on_c, 14, 50, 0
26, 122280, Note_on_c, 14, 52, 90
26, 122339, Note_on_c, 14, 52, 0
26, 122340, Note_on_c, 14, 54, 90
26, 122369, Note_on_c, 14, 54, 0
26, 122370, Note_on_c, 14, 56, 90
26, 122399, Note_on_c, 14, 56, 0
26, 122400, Note_on_c, 14, 57, 90
26, 122459, Note_on_c, 14, 57, 0
26, 122460, Note_on_c, 14, 49, 90
26, 122489, Note_on_c, 14, 49, 0
26, 122490, Note_on_c, 14, 50, 90
26, 122519, Note_on_c, 14, 50, 0
26, 122520, Note_on_c, 14, 52, 90
26, 122579, Note_on_c, 14, 52, 0
26, 122580, Note_on_c, 14, 40, 90
26, 122639, Note_on_c, 14, 40, 0
26, 122640, Note_on_c, 14, 45, 90
26, 122699, Note_on_c, 14, 45, 0
26, 122880, Note_on_c, 14, 48, 100
26, 123840, Note_on_c, 14, 48, 0
26, 123840, Note_on_c, 14, 49, 100
26, 124080, Note_on_c, 14, 49, 0
26, 124080, Note_on_c, 14, 42, 100
26, 124320, Note_on_c, 14, 42, 0
26, 124320, Note_on_c, 14, 40, 100
26, 124560, Note_on_c, 14, 40, 0
26, 124560, Note_on_c, 14, 47, 100
26, 124800, Note_on_c, 14, 47, 0
26, 124800, Note_on_c, 14, 44, 100
26, 125040, Note_on_c, 14, 44, 0
26, 125040, Note_on_c, 14, 43, 100
26, 125280, Note_on_c, 14, 43, 0
26, 125280, Note_on_c, 14, 42, 100
26, 125760, Note_on_c, 14, 42, 0
26, 125760, Note_on_c, 14, 47, 100
26, 125880, Note_on_c, 14, 47, 0
26, 125880, Note_on_c, 14, 50, 100
26, 126000, Note_on_c, 14, 50, 0
26, 126000, Note_on_c, 14, 52, 100
26, 126120, Note_on_c, 14, 52, 0
26, 126120, Note_on_c, 14, 55, 100
26, 126240, Note_on_c, 14, 55, 0
26, 126360, Note_on_c, 14, 54, 100
26, 126480, Note_on_c, 14, 54, 0
26, 126480, Note_on_c, 14, 47, 100
26, 126720, Note_on_c, 14, 47, 0
26, 126900, Note_on_c, 14, 50, 100
26, 126960, Note_on_c, 14, 50, 0
26, 126960, Note_on_c, 14, 47, 100
26, 127020, Note_on_c, 14, 47, 0
26, 127020, Note_on_c, 14, 52, 100
26, 127080, Note_on_c, 14, 52, 0
26, 127080, Note_on_c, 14, 50, 100
26, 127140, Note_on_c, 14, 50, 0
26, 127140, Note_on_c, 14, 49, 100
26, 127200, Note_on_c, 14, 49, 0
26, 127200, Note_on_c, 14, 47, 100
26, 127260, Note_on_c, 14, 47, 0
26, 127260, Note_on_c, 14, 46, 100
26, 127320, Note_on_c, 14, 46, 0
26, 127320, Note_on_c, 14, 42, 100
26, 127380, Note_on_c, 14, 42, 0
26, 127380, Note_on_c, 14, 47, 100
26, 127440, Note_on_c, 14, 47, 0
26, 127440, Note_on_c, 14, 42, 100
26, 127500, Note_on_c, 14, 42, 0
26, 127500, Note_on_c, 14, 54, 100
26, 127560, Note_on_c, 14, 54, 0
26, 127560, Note_on_c, 14, 58, 100
26, 127620, Note_on_c, 14, 58, 0
26, 127620, Note_on_c, 14, 59, 100
26, 127680, Note_on_c, 14, 59, 0
26, 127680, Note_on_c, 14, 47, 100
26, 127740, Note_on_c, 14, 47, 0
26, 127740, Note_on_c, 14, 50, 100
26, 127800, Note_on_c, 14, 50, 0
26, 127800, Note_on_c, 14, 52, 100
26, 127860, Note_on_c, 14, 52, 0
26, 127860, Note_on_c, 14, 55, 100
26, 127920, Note_on_c, 14, 55, 0
26, 127920, Note_on_c, 14, 52, 100
26, 127980, Note_on_c, 14, 52, 0
26, 127980, Note_on_c, 14, 57, 100
26, 128040, Note_on_c, 14, 57, 0
26, 128040, Note_on_c, 14, 45, 100
26, 128100, Note_on_c, 14, 45, 0
26, 128100, Note_on_c, 14, 49, 100
26, 128160, Note_on_c, 14, 49, 0
26, 128160, Note_on_c, 14, 50, 100
26, 128220, Note_on_c, 14, 50, 0
26, 128220, Note_on_c, 14, 54, 100
26, 128280, Note_on_c, 14, 54, 0
26, 128280, Note_on_c, 14, 50, 100
26, 128340, Note_on_c, 14, 50, 0
26, 128340, Note_on_c, 14, 55, 100
26, 128400, Note_on_c, 14, 55, 0
26, 128400, Note_on_c, 14, 52, 100
26, 128460, Note_on_c, 14, 52, 0
26, 128460, Note_on_c, 14, 49, 100
26, 128520, Note_on_c, 14, 49, 0
26, 128520, Note_on_c, 14, 54, 100
26, 128580, Note_on_c, 14, 54, 0
26, 128580, Note_on_c, 14, 50, 100
26, 128640, Note_on_c, 14, 50, 0
26, 128640, Note_on_c, 14, 47, 100
26, 128700, Note_on_c, 14, 47, 0
26, 128700, Note_on_c, 14, 52, 100
26, 128760, Note_on_c, 14, 52, 0
26, 128760, Note_on_c, 14, 49, 100
26, 128820, Note_on_c, 14, 49, 0
26, 128820, Note_on_c, 14, 54, 100
26, 128880, Note_on_c, 14, 54, 0
26, 128880, Note_on_c, 14, 47, 100
26, 128940, Note_on_c, 14, 47, 0
26, 128940, Note_on_c, 14, 50, 100
26, 129000, Note_on_c, 14, 50, 0
26, 129000, Note_on_c, 14, 54, 100
26, 129060, Note_on_c, 14, 54, 0
26, 129060, Note_on_c, 14, 50, 100
26, 129120, Note_on_c, 14, 50, 0
26, 129120, Note_on_c, 14, 47, 100
26, 129180, Note_on_c, 14, 47, 0
26, 129180, Note_on_c, 14, 52, 100
26, 129240, Note_on_c, 14, 52, 0
26, 129240, Note_on_c, 14, 50, 100
26, 129300, Note_on_c, 14, 50, 0
26, 129300, Note_on_c, 14, 49, 100
26, 129360, Note_on_c, 14, 49, 0
26, 129360, Note_on_c, 14, 47, 100
26, 129420, Note_on_c, 14, 47, 0
26, 129420, Note_on_c, 14, 52, 100
26, 129480, Note_on_c, 14, 52, 0
26, 129480, Note_on_c, 14, 46, 100
26, 129540, Note_on_c, 14, 46, 0
26, 129540, Note_on_c, 14, 47, 100
26, 129600, Note_on_c, 14, 47, 0
26, 129600, Note_on_c, 14, 42, 100
26, 129660, Note_on_c, 14, 42, 0
26, 129660, Note_on_c, 14, 54, 100
26, 129720, Note_on_c, 14, 54, 0
26, 129720, Note_on_c, 14, 52, 100
26, 129780, Note_on_c, 14, 52, 0
26, 129780, Note_on_c, 14, 50, 100
26, 129840, Note_on_c, 14, 50, 0
26, 129840, Note_on_c, 14, 47, 100
26, 129900, Note_on_c, 14, 47, 0
26, 129900, Note_on_c, 14, 52, 100
26, 129960, Note_on_c, 14, 52, 0
26, 129960, Note_on_c, 14, 50, 100
26, 130020, Note_on_c, 14, 50, 0
26, 130020, Note_on_c, 14, 49, 100
26, 130080, Note_on_c, 14, 49, 0
26, 130080, Note_on_c, 14, 47, 100
26, 130140, Note_on_c, 14, 47, 0
26, 130140, Note_on_c, 14, 52, 100
26, 130200, Note_on_c, 14, 52, 0
26, 130200, Note_on_c, 14, 46, 100
26, 130260, Note_on_c, 14, 46, 0
26, 130260, Note_on_c, 14, 47, 100
26, 130320, Note_on_c, 14, 47, 0
26, 130320, Note_on_c, 14, 42, 100
26, 130380, Note_on_c, 14, 42, 0
26, 130380, Note_on_c, 14, 44, 100
26, 130440, Note_on_c, 14, 44, 0
26, 130440, Note_on_c, 14, 46, 100
26, 130500, Note_on_c, 14, 46, 0
26, 130500, Note_on_c, 14, 47, 100
26, 130560, Note_on_c, 14, 47, 0
26, 130560, Note_on_c, 14, 59, 100
26, 130620, Note_on_c, 14, 59, 0
26, 130680, Note_on_c, 14, 52, 100
26, 130740, Note_on_c, 14, 52, 0
26, 130740, Note_on_c, 14, 40, 100
26, 130800, Note_on_c, 14, 40, 0
26, 130860, Note_on_c, 14, 45, 100
26, 130920, Note_on_c, 14, 45, 0
26, 130920, Note_on_c, 14, 57, 100
26, 130980, Note_on_c, 14, 57, 0
26, 131040, Note_on_c, 14, 50, 100
26, 131100, Note_on_c, 14, 50, 0
26, 131100, Note_on_c, 14, 38, 100
26, 131160, Note_on_c, 14, 38, 0
26, 131220, Note_on_c, 14, 55, 100
26, 131280, Note_on_c, 14, 55, 0
26, 131280, Note_on_c, 14, 52, 100
26, 131340, Note_on_c, 14, 52, 0
26, 131340, Note_on_c, 14, 49, 100
26, 131400, Note_on_c, 14, 49, 0
26, 131400, Note_on_c, 14, 54, 100
26, 131460, Note_on_c, 14, 54, 0
26, 131460, Note_on_c, 14, 50, 100
26, 131520, Note_on_c, 14, 50, 0
26, 131520, Note_on_c, 14, 47, 100
26, 131580, Note_on_c, 14, 47, 0
26, 131580, Note_on_c, 14, 52, 100
26, 131640, Note_on_c, 14, 52, 0
26, 131640, Note_on_c, 14, 54, 100
26, 131700, Note_on_c, 14, 54, 0
26, 131700, Note_on_c, 14, 55, 100
26, 131760, Note_on_c, 14, 55, 0
26, 131760, Note_on_c, 14, 54, 100
26, 131820, Note_on_c, 14, 54, 0
26, 131820, Note_on_c, 14, 42, 100
26, 131880, Note_on_c, 14, 42, 0
26, 132300, Note_on_c, 14, 54, 100
26, 132360, Note_on_c, 14, 54, 0
26, 132360, Note_on_c, 14, 58, 100
26, 132420, Note_on_c, 14, 58, 0
26, 132420, Note_on_c, 14, 54, 100
26, 132480, Note_on_c, 14, 54, 0
26, 132480, Note_on_c, 14, 59, 100
26, 132540, Note_on_c, 14, 59, 0
26, 132540, Note_on_c, 14, 62, 100
26, 132600, Note_on_c, 14, 62, 0
26, 132600, Note_on_c, 14, 59, 100
26, 132660, Note_on_c, 14, 59, 0
26, 132660, Note_on_c, 14, 52, 100
26, 132720, Note_on_c, 14, 52, 0
26, 132720, Note_on_c, 14, 56, 100
26, 132780, Note_on_c, 14, 56, 0
26, 132780, Note_on_c, 14, 52, 100
26, 132840, Note_on_c, 14, 52, 0
26, 132840, Note_on_c, 14, 57, 100
26, 132900, Note_on_c, 14, 57, 0
26, 132900, Note_on_c, 14, 61, 100
26, 132960, Note_on_c, 14, 61, 0
26, 132960, Note_on_c, 14, 57, 100
26, 133020, Note_on_c, 14, 57, 0
26, 133020, Note_on_c, 14, 50, 100
26, 133080, Note_on_c, 14, 50, 0
26, 133080, Note_on_c, 14, 54, 100
26, 133140, Note_on_c, 14, 54, 0
26, 133140, Note_on_c, 14, 47, 100
26, 133200, Note_on_c, 14, 47, 0
26, 133200, Note_on_c, 14, 42, 100
26, 133260, Note_on_c, 14, 42, 0
26, 133260, Note_on_c, 14, 44, 100
26, 133320, Note_on_c, 14, 44, 0
26, 133320, Note_on_c, 14, 45, 100
26, 133380, Note_on_c, 14, 45, 0
26, 133380, Note_on_c, 14, 47, 100
26, 133440, Note_on_c, 14, 47, 0
26, 133440, Note_on_c, 14, 41, 100
26, 133500, Note_on_c, 14, 41, 0
26, 133500, Note_on_c, 14, 42, 100
26, 133560, Note_on_c, 14, 42, 0
26, 133560, Note_on_c, 14, 37, 100
26, 133590, Note_on_c, 14, 37, 0
26, 133590, Note_on_c, 14, 44, 100
26, 133620, Note_on_c, 14, 44, 0
26, 133620, Note_on_c, 14, 49, 100
26, 133650, Note_on_c, 14, 49, 0
26, 133650, Note_on_c, 14, 51, 100
26, 133680, Note_on_c, 14, 51, 0
26, 133680, Note_on_c, 14, 53, 100
26, 133710, Note_on_c, 14, 53, 0
26, 133710, Note_on_c, 14, 49, 100
26, 133740, Note_on_c, 14, 49, 0
26, 133740, Note_on_c, 14, 54, 100
26, 133800, Note_on_c, 14, 54, 0
26, 133800, Note_on_c, 14, 42, 100
26, 133860, Note_on_c, 14, 42, 0
26, 133860, Note_on_c, 14, 44, 100
26, 133920, Note_on_c, 14, 44, 0
26, 133920, Note_on_c, 14, 45, 100
26, 133980, Note_on_c, 14, 45, 0
26, 133980, Note_on_c, 14, 44, 100
26, 134040, Note_on_c, 14, 44, 0
26, 134040, Note_on_c, 14, 42, 100
26, 134100, Note_on_c, 14, 42, 0
26, 134100, Note_on_c, 14, 49, 100
26, 134160, Note_on_c, 14, 49, 0
26, 134160, Note_on_c, 14, 41, 100
26, 134220, Note_on_c, 14, 41, 0
26, 134220, Note_on_c, 14, 42, 100
26, 134280, Note_on_c, 14, 42, 0
26, 134280, Note_on_c, 14, 49, 100
26, 134340, Note_on_c, 14, 49, 0
26, 134340, Note_on_c, 14, 51, 100
26, 134400, Note_on_c, 14, 51, 0
26, 134400, Note_on_c, 14, 53, 100
26, 134460, Note_on_c, 14, 53, 0
26, 134460, Note_on_c, 14, 54, 100
26, 134520, Note_on_c, 14, 54, 0
26, 134520, Note_on_c, 14, 42, 100
26, 134580, Note_on_c, 14, 42, 0
26, 134580, Note_on_c, 14, 45, 100
26, 134640, Note_on_c, 14, 45, 0
26, 134640, Note_on_c, 14, 47, 100
26, 134700, Note_on_c, 14, 47, 0
26, 134700, Note_on_c, 14, 50, 100
26, 134760, Note_on_c, 14, 50, 0
26, 134760, Note_on_c, 14, 47, 100
26, 134820, Note_on_c, 14, 47, 0
26, 134820, Note_on_c, 14, 52, 100
26, 134880, Note_on_c, 14, 52, 0
26, 134880, Note_on_c, 14, 40, 100
26, 134940, Note_on_c, 14, 40, 0
26, 134940, Note_on_c, 14, 44, 100
26, 135000, Note_on_c, 14, 44, 0
26, 135000, Note_on_c, 14, 45, 100
26, 135060, Note_on_c, 14, 45, 0
26, 135060, Note_on_c, 14, 49, 100
26, 135120, Note_on_c, 14, 49, 0
26, 135120, Note_on_c, 14, 45, 100
26, 135180, Note_on_c, 14, 45, 0
26, 135180, Note_on_c, 14, 50, 100
26, 135240, Note_on_c, 14, 50, 0
26, 135240, Note_on_c, 14, 47, 100
26, 135300, Note_on_c, 14, 47, 0
26, 135300, Note_on_c, 14, 44, 100
26, 135360, Note_on_c, 14, 44, 0
26, 135360, Note_on_c, 14, 49, 100
26, 135420, Note_on_c, 14, 49, 0
26, 135420, Note_on_c, 14, 45, 100
26, 135480, Note_on_c, 14, 45, 0
26, 135480, Note_on_c, 14, 42, 100
26, 135540, Note_on_c, 14, 42, 0
26, 135540, Note_on_c, 14, 47, 100
26, 135600, Note_on_c, 14, 47, 0
26, 135600, Note_on_c, 14, 44, 100
26, 135660, Note_on_c, 14, 44, 0
26, 135660, Note_on_c, 14, 49, 100
26, 135720, Note_on_c, 14, 49, 0
26, 135720, Note_on_c, 14, 42, 100
26, 135840, Note_on_c, 14, 42, 0
26, 135840, Note_on_c, 14, 44, 100
26, 135900, Note_on_c, 14, 44, 0
26, 135900, Note_on_c, 14, 46, 100
26, 135960, Note_on_c, 14, 46, 0
26, 135960, Note_on_c, 14, 47, 100
26, 136020, Note_on_c, 14, 47, 0
26, 136020, Note_on_c, 14, 49, 100
26, 136080, Note_on_c, 14, 49, 0
26, 136080, Note_on_c, 14, 50, 100
26, 136110, Note_on_c, 14, 50, 0
26, 136110, Note_on_c, 14, 52, 100
26, 136140, Note_on_c, 14, 52, 0
26, 136140, Note_on_c, 14, 54, 100
26, 136200, Note_on_c, 14, 54, 0
26, 136200, Note_on_c, 14, 52, 100
26, 136260, Note_on_c, 14, 52, 0
26, 136260, Note_on_c, 14, 50, 100
26, 136320, Note_on_c, 14, 50, 0
26, 136320, Note_on_c, 14, 49, 100
26, 136350, Note_on_c, 14, 49, 0
26, 136350, Note_on_c, 14, 44, 100
26, 136380, Note_on_c, 14, 44, 0
26, 136380, Note_on_c, 14, 46, 100
26, 136410, Note_on_c, 14, 46, 0
26, 136410, Note_on_c, 14, 42, 100
26, 136440, Note_on_c, 14, 42, 0
26, 136440, Note_on_c, 14, 38, 100
26, 136500, Note_on_c, 14, 38, 0
26, 136500, Note_on_c, 14, 47, 100
26, 136560, Note_on_c, 14, 47, 0
26, 136560, Note_on_c, 14, 44, 100
26, 136620, Note_on_c, 14, 44, 0
26, 136620, Note_on_c, 14, 49, 100
26, 136680, Note_on_c, 14, 49, 0
26, 136680, Note_on_c, 14, 45, 100
26, 136740, Note_on_c, 14, 45, 0
26, 136740, Note_on_c, 14, 42, 100
26, 136800, Note_on_c, 14, 42, 0
26, 136800, Note_on_c, 14, 47, 100
26, 136860, Note_on_c, 14, 47, 0
26, 136860, Note_on_c, 14, 44, 100
26, 136920, Note_on_c, 14, 44, 0
26, 136920, Note_on_c, 14, 49, 100
26, 136980, Note_on_c, 14, 49, 0
26, 136980, Note_on_c, 14, 42, 100
26, 137100, Note_on_c, 14, 42, 0
26, 137220, Note_on_c, 14, 56, 100
26, 137250, Note_on_c, 14, 56, 0
26, 137250, Note_on_c, 14, 54, 100
26, 137280, Note_on_c, 14, 54, 0
26, 137280, Note_on_c, 14, 56, 100
26, 137310, Note_on_c, 14, 56, 0
26, 137310, Note_on_c, 14, 52, 100
26, 137340, Note_on_c, 14, 52, 0
26, 137340, Note_on_c, 14, 57, 100
26, 137460, Note_on_c, 14, 57, 0
26, 137580, Note_on_c, 14, 57, 100
26, 137610, Note_on_c, 14, 57, 0
26, 137610, Note_on_c, 14, 55, 100
26, 137640, Note_on_c, 14, 55, 0
26, 137640, Note_on_c, 14, 57, 100
26, 137670, Note_on_c, 14, 57, 0
26, 137670, Note_on_c, 14, 54, 100
26, 137700, Note_on_c, 14, 54, 0
26, 137700, Note_on_c, 14, 59, 100
26, 137730, Note_on_c, 14, 59, 0
26, 137730, Note_on_c, 14, 57, 100
26, 137760, Note_on_c, 14, 57, 0
26, 137760, Note_on_c, 14, 55, 100
26, 137790, Note_on_c, 14, 55, 0
26, 137790, Note_on_c, 14, 54, 100
26, 137820, Note_on_c, 14, 54, 0
26, 137820, Note_on_c, 14, 52, 100
26, 137850, Note_on_c, 14, 52, 0
26, 137850, Note_on_c, 14, 51, 100
26, 137880, Note_on_c, 14, 51, 0
26, 137880, Note_on_c, 14, 52, 100
26, 137940, Note_on_c, 14, 52, 0
26, 137940, Note_on_c, 14, 47, 100
26, 137970, Note_on_c, 14, 47, 0
26, 137970, Note_on_c, 14, 43, 100
26, 138000, Note_on_c, 14, 43, 0
26, 138000, Note_on_c, 14, 45, 100
26, 138030, Note_on_c, 14, 45, 0
26, 138030, Note_on_c, 14, 42, 100
26, 138060, Note_on_c, 14, 42, 0
26, 138060, Note_on_c, 14, 43, 100
26, 138120, Note_on_c, 14, 43, 0
26, 138120, Note_on_c, 14, 40, 100
26, 138180, Note_on_c, 14, 40, 0
26, 138180, Note_on_c, 14, 38, 100
26, 138240, Note_on_c, 14, 38, 0
26, 138240, Note_on_c, 14, 36, 100
26, 138300, Note_on_c, 14, 36, 0
26, 138300, Note_on_c, 14, 48, 100
26, 138360, Note_on_c, 14, 48, 0
26, 138360, Note_on_c, 14, 45, 100
26, 138420, Note_on_c, 14, 45, 0
26, 138420, Note_on_c, 14, 47, 100
26, 138480, Note_on_c, 14, 47, 0
26, 138480, Note_on_c, 14, 59, 100
26, 138510, Note_on_c, 14, 59, 0
26, 138510, Note_on_c, 14, 55, 100
26, 138540, Note_on_c, 14, 55, 0
26, 138540, Note_on_c, 14, 57, 100
26, 138570, Note_on_c, 14, 57, 0
26, 138570, Note_on_c, 14, 54, 100
26, 138600, Note_on_c, 14, 54, 0
26, 138600, Note_on_c, 14, 55, 100
26, 138660, Note_on_c, 14, 55, 0
26, 138660, Note_on_c, 14, 51, 100
26, 138720, Note_on_c, 14, 51, 0
26, 138720, Note_on_c, 14, 52, 100
26, 138780, Note_on_c, 14, 52, 0
26, 138780, Note_on_c, 14, 47, 100
26, 138900, Note_on_c, 14, 47, 0
26, 138960, Note_on_c, 14, 52, 100
26, 139020, Note_on_c, 14, 52, 0
26, 139020, Note_on_c, 14, 40, 100
26, 139080, Note_on_c, 14, 40, 0
26, 139080, Note_on_c, 14, 43, 100
26, 139140, Note_on_c, 14, 43, 0
26, 139140, Note_on_c, 14, 45, 100
26, 139200, Note_on_c, 14, 45, 0
26, 139200, Note_on_c, 14, 48, 100
26, 139260, Note_on_c, 14, 48, 0
26, 139260, Note_on_c, 14, 45, 100
26, 139320, Note_on_c, 14, 45, 0
26, 139320, Note_on_c, 14, 50, 100
26, 139380, Note_on_c, 14, 50, 0
26, 139380, Note_on_c, 14, 38, 100
26, 139440, Note_on_c, 14, 38, 0
26, 139440, Note_on_c, 14, 42, 100
26, 139500, Note_on_c, 14, 42, 0
26, 139500, Note_on_c, 14, 43, 100
26, 139560, Note_on_c, 14, 43, 0
26, 139560, Note_on_c, 14, 47, 100
26, 139620, Note_on_c, 14, 47, 0
26, 139620, Note_on_c, 14, 43, 100
26, 139680, Note_on_c, 14, 43, 0
26, 139680, Note_on_c, 14, 48, 100
26, 139740, Note_on_c, 14, 48, 0
26, 139740, Note_on_c, 14, 45, 100
26, 139800, Note_on_c, 14, 45, 0
26, 139800, Note_on_c, 14, 42, 100
26, 139860, Note_on_c, 14, 42, 0
26, 139860, Note_on_c, 14, 47, 100
26, 139920, Note_on_c, 14, 47, 0
26, 139920, Note_on_c, 14, 43, 100
26, 139980, Note_on_c, 14, 43, 0
26, 139980, Note_on_c, 14, 40, 100
26, 140040, Note_on_c, 14, 40, 0
26, 140040, Note_on_c, 14, 45, 100
26, 140100, Note_on_c, 14, 45, 0
26, 140100, Note_on_c, 14, 42, 100
26, 140160, Note_on_c, 14, 42, 0
26, 140160, Note_on_c, 14, 47, 100
26, 140220, Note_on_c, 14, 47, 0
26, 140220, Note_on_c, 14, 40, 100
26, 140280, Note_on_c, 14, 40, 0
26, 140280, Note_on_c, 14, 52, 100
26, 140340, Note_on_c, 14, 52, 0
26, 140340, Note_on_c, 14, 47, 100
26, 140400, Note_on_c, 14, 47, 0
26, 140400, Note_on_c, 14, 43, 100
26, 140460, Note_on_c, 14, 43, 0
26, 140460, Note_on_c, 14, 42, 100
26, 140520, Note_on_c, 14, 42, 0
26, 140520, Note_on_c, 14, 40, 100
26, 140580, Note_on_c, 14, 40, 0
26, 140580, Note_on_c, 14, 39, 100
26, 140640, Note_on_c, 14, 39, 0
26, 140640, Note_on_c, 14, 51, 100
26, 140700, Note_on_c, 14, 51, 0
26, 140700, Note_on_c, 14, 52, 100
26, 140760, Note_on_c, 14, 52, 0
26, 140760, Note_on_c, 14, 47, 100
26, 140820, Note_on_c, 14, 47, 0
26, 140820, Note_on_c, 14, 45, 100
26, 140880, Note_on_c, 14, 45, 0
26, 140880, Note_on_c, 14, 43, 100
26, 140940, Note_on_c, 14, 43, 0
26, 140940, Note_on_c, 14, 48, 100
26, 141000, Note_on_c, 14, 48, 0
26, 141000, Note_on_c, 14, 45, 100
26, 141060, Note_on_c, 14, 45, 0
26, 141060, Note_on_c, 14, 42, 100
26, 141120, Note_on_c, 14, 42, 0
26, 141120, Note_on_c, 14, 47, 100
26, 141180, Note_on_c, 14, 47, 0
26, 141180, Note_on_c, 14, 43, 100
26, 141240, Note_on_c, 14, 43, 0
26, 141240, Note_on_c, 14, 40, 100
26, 141300, Note_on_c, 14, 40, 0
26, 141300, Note_on_c, 14, 45, 100
26, 141360, Note_on_c, 14, 45, 0
26, 141360, Note_on_c, 14, 42, 100
26, 141420, Note_on_c, 14, 42, 0
26, 141420, Note_on_c, 14, 47, 100
26, 141480, Note_on_c, 14, 47, 0
26, 141480, Note_on_c, 14, 40, 100
26, 141540, Note_on_c, 14, 40, 0
26, 141540, Note_on_c, 14, 52, 100
26, 141570, Note_on_c, 14, 52, 0
26, 141570, Note_on_c, 14, 50, 100
26, 141600, Note_on_c, 14, 50, 0
26, 141600, Note_on_c, 14, 52, 100
26, 141720, Note_on_c, 14, 52, 0
26, 141720, Note_on_c, 14, 50, 100
26, 141750, Note_on_c, 14, 50, 0
26, 141750, Note_on_c, 14, 49, 100
26, 141780, Note_on_c, 14, 49, 0
26, 141780, Note_on_c, 14, 50, 100
26, 141810, Note_on_c, 14, 50, 0
26, 141810, Note_on_c, 14, 47, 100
26, 141840, Note_on_c, 14, 47, 0
26, 141840, Note_on_c, 14, 55, 100
26, 141900, Note_on_c, 14, 55, 0
26, 141900, Note_on_c, 14, 46, 100
26, 141960, Note_on_c, 14, 46, 0
26, 141960, Note_on_c, 14, 47, 100
26, 142020, Note_on_c, 14, 47, 0
26, 142020, Note_on_c, 14, 42, 100
26, 142080, Note_on_c, 14, 42, 0
26, 142080, Note_on_c, 14, 54, 100
26, 142110, Note_on_c, 14, 54, 0
26, 142110, Note_on_c, 14, 56, 100
26, 142140, Note_on_c, 14, 56, 0
26, 142140, Note_on_c, 14, 58, 100
26, 142170, Note_on_c, 14, 58, 0
26, 142170, Note_on_c, 14, 54, 100
26, 142200, Note_on_c, 14, 54, 0
26, 142200, Note_on_c, 14, 59, 100
26, 142230, Note_on_c, 14, 59, 0
26, 142230, Note_on_c, 14, 61, 100
26, 142260, Note_on_c, 14, 61, 0
26, 142260, Note_on_c, 14, 62, 100
26, 142320, Note_on_c, 14, 62, 0
26, 142320, Note_on_c, 14, 61, 100
26, 142380, Note_on_c, 14, 61, 0
26, 142380, Note_on_c, 14, 59, 100
26, 142440, Note_on_c, 14, 59, 0
26, 142440, Note_on_c, 14, 54, 100
26, 142470, Note_on_c, 14, 54, 0
26, 142470, Note_on_c, 14, 52, 100
26, 142500, Note_on_c, 14, 52, 0
26, 142500, Note_on_c, 14, 54, 100
26, 142560, Note_on_c, 14, 54, 0
26, 142560, Note_on_c, 14, 61, 100
26, 142590, Note_on_c, 14, 61, 0
26, 142590, Note_on_c, 14, 62, 100
26, 142620, Note_on_c, 14, 62, 0
26, 142620, Note_on_c, 14, 64, 100
26, 142680, Note_on_c, 14, 64, 0
26, 142680, Note_on_c, 14, 62, 100
26, 142740, Note_on_c, 14, 62, 0
26, 142740, Note_on_c, 14, 61, 100
26, 142800, Note_on_c, 14, 61, 0
26, 142800, Note_on_c, 14, 54, 100
26, 142830, Note_on_c, 14, 54, 0
26, 142830, Note_on_c, 14, 52, 100
26, 142860, Note_on_c, 14, 52, 0
26, 142860, Note_on_c, 14, 54, 100
26, 142920, Note_on_c, 14, 54, 0
26, 142920, Note_on_c, 14, 50, 100
26, 142980, Note_on_c, 14, 50, 0
26, 142980, Note_on_c, 14, 47, 100
26, 143040, Note_on_c, 14, 47, 0
26, 143040, Note_on_c, 14, 52, 100
26, 143100, Note_on_c, 14, 52, 0
26, 143100, Note_on_c, 14, 50, 100
26, 143160, Note_on_c, 14, 50, 0
26, 143160, Note_on_c, 14, 49, 100
26, 143220, Note_on_c, 14, 49, 0
26, 143220, Note_on_c, 14, 47, 100
26, 143280, Note_on_c, 14, 47, 0
26, 143280, Note_on_c, 14, 52, 100
26, 143340, Note_on_c, 14, 52, 0
26, 143340, Note_on_c, 14, 46, 100
26, 143400, Note_on_c, 14, 46, 0
26, 143400, Note_on_c, 14, 47, 100
26, 143460, Note_on_c, 14, 47, 0
26, 143460, Note_on_c, 14, 42, 100
26, 143520, Note_on_c, 14, 42, 0
26, 143520, Note_on_c, 14, 54, 100
26, 143580, Note_on_c, 14, 54, 0
26, 143580, Note_on_c, 14, 52, 100
26, 143640, Note_on_c, 14, 52, 0
26, 143640, Note_on_c, 14, 50, 100
26, 143700, Note_on_c, 14, 50, 0
26, 143700, Note_on_c, 14, 47, 100
26, 143760, Note_on_c, 14, 47, 0
26, 143760, Note_on_c, 14, 52, 100
26, 143820, Note_on_c, 14, 52, 0
26, 143820, Note_on_c, 14, 50, 100
26, 143880, Note_on_c, 14, 50, 0
26, 143880, Note_on_c, 14, 49, 100
26, 143940, Note_on_c, 14, 49, 0
26, 143940, Note_on_c, 14, 47, 100
26, 144000, Note_on_c, 14, 47, 0
26, 144000, Note_on_c, 14, 52, 100
26, 144060, Note_on_c, 14, 52, 0
26, 144060, Note_on_c, 14, 46, 100
26, 144120, Note_on_c, 14, 46, 0
26, 144120, Note_on_c, 14, 47, 100
26, 144180, Note_on_c, 14, 47, 0
26, 144180, Note_on_c, 14, 42, 100
26, 144240, Note_on_c, 14, 42, 0
26, 144240, Note_on_c, 14, 44, 100
26, 144300, Note_on_c, 14, 44, 0
26, 144300, Note_on_c, 14, 44, 100
26, 144360, Note_on_c, 14, 44, 0
26, 144360, Note_on_c, 14, 47, 100
26, 144420, Note_on_c, 14, 47, 0
26, 144420, Note_on_c, 14, 59, 100
26, 144480, Note_on_c, 14, 59, 0
26, 144540, Note_on_c, 14, 52, 100
26, 144600, Note_on_c, 14, 52, 0
26, 144600, Note_on_c, 14, 40, 100
26, 144660, Note_on_c, 14, 40, 0
26, 144720, Note_on_c, 14, 45, 100
26, 144780, Note_on_c, 14, 45, 0
26, 144780, Note_on_c, 14, 57, 100
26, 144840, Note_on_c, 14, 57, 0
26, 144900, Note_on_c, 14, 50, 100
26, 144960, Note_on_c, 14, 50, 0
26, 144960, Note_on_c, 14, 38, 100
26, 145020, Note_on_c, 14, 38, 0
26, 145080, Note_on_c, 14, 55, 100
26, 145140, Note_on_c, 14, 55, 0
26, 145140, Note_on_c, 14, 52, 100
26, 145200, Note_on_c, 14, 52, 0
26, 145200, Note_on_c, 14, 49, 100
26, 145260, Note_on_c, 14, 49, 0
26, 145260, Note_on_c, 14, 54, 100
26, 145320, Note_on_c, 14, 54, 0
26, 145320, Note_on_c, 14, 50, 100
26, 145380, Note_on_c, 14, 50, 0
26, 145380, Note_on_c, 14, 47, 100
26, 145440, Note_on_c, 14, 47, 0
26, 145440, Note_on_c, 14, 52, 100
26, 145500, Note_on_c, 14, 52, 0
26, 145500, Note_on_c, 14, 54, 100
26, 145560, Note_on_c, 14, 54, 0
26, 145560, Note_on_c, 14, 55, 100
26, 145620, Note_on_c, 14, 55, 0
26, 145620, Note_on_c, 14, 54, 100
26, 145680, Note_on_c, 14, 54, 0
26, 145680, Note_on_c, 14, 42, 100
26, 145740, Note_on_c, 14, 42, 0
26, 146160, Note_on_c, 14, 47, 100
26, 146220, Note_on_c, 14, 47, 0
26, 146220, Note_on_c, 14, 50, 100
26, 146280, Note_on_c, 14, 50, 0
26, 146280, Note_on_c, 14, 47, 100
26, 146340, Note_on_c, 14, 47, 0
26, 146340, Note_on_c, 14, 52, 100
26, 146400, Note_on_c, 14, 52, 0
26, 146400, Note_on_c, 14, 55, 100
26, 146460, Note_on_c, 14, 55, 0
26, 146460, Note_on_c, 14, 52, 100
26, 146520, Note_on_c, 14, 52, 0
26, 146520, Note_on_c, 14, 45, 100
26, 146580, Note_on_c, 14, 45, 0
26, 146580, Note_on_c, 14, 49, 100
26, 146640, Note_on_c, 14, 49, 0
26, 146640, Note_on_c, 14, 45, 100
26, 146700, Note_on_c, 14, 45, 0
26, 146700, Note_on_c, 14, 50, 100
26, 146760, Note_on_c, 14, 50, 0
26, 146760, Note_on_c, 14, 54, 100
26, 146820, Note_on_c, 14, 54, 0
26, 146820, Note_on_c, 14, 50, 100
26, 146880, Note_on_c, 14, 50, 0
26, 146880, Note_on_c, 14, 43, 100
26, 146940, Note_on_c, 14, 43, 0
26, 146940, Note_on_c, 14, 47, 100
26, 147000, Note_on_c, 14, 47, 0
26, 147000, Note_on_c, 14, 40, 100
26, 147060, Note_on_c, 14, 40, 0
26, 147060, Note_on_c, 14, 47, 100
26, 147120, Note_on_c, 14, 47, 0
26, 147120, Note_on_c, 14, 49, 100
26, 147180, Note_on_c, 14, 49, 0
26, 147180, Note_on_c, 14, 50, 100
26, 147240, Note_on_c, 14, 50, 0
26, 147240, Note_on_c, 14, 52, 100
26, 147300, Note_on_c, 14, 52, 0
26, 147300, Note_on_c, 14, 46, 100
26, 147360, Note_on_c, 14, 46, 0
26, 147360, Note_on_c, 14, 47, 100
26, 147420, Note_on_c, 14, 47, 0
26, 147420, Note_on_c, 14, 42, 100
26, 147450, Note_on_c, 14, 42, 0
26, 147450, Note_on_c, 14, 40, 100
26, 147480, Note_on_c, 14, 40, 0
26, 147480, Note_on_c, 14, 42, 100
26, 147510, Note_on_c, 14, 42, 0
26, 147510, Note_on_c, 14, 44, 100
26, 147540, Note_on_c, 14, 44, 0
26, 147540, Note_on_c, 14, 45, 100
26, 147570, Note_on_c, 14, 45, 0
26, 147570, Note_on_c, 14, 42, 100
26, 147600, Note_on_c, 14, 42, 0
26, 147600, Note_on_c, 14, 47, 100
26, 147660, Note_on_c, 14, 47, 0
26, 147660, Note_on_c, 14, 59, 100
26, 147720, Note_on_c, 14, 59, 0
26, 147720, Note_on_c, 14, 52, 100
26, 147780, Note_on_c, 14, 52, 0
26, 147780, Note_on_c, 14, 50, 100
26, 147840, Note_on_c, 14, 50, 0
26, 147840, Note_on_c, 14, 49, 100
26, 147900, Note_on_c, 14, 49, 0
26, 147900, Note_on_c, 14, 47, 100
26, 147960, Note_on_c, 14, 47, 0
26, 147960, Note_on_c, 14, 54, 100
26, 148020, Note_on_c, 14, 54, 0
26, 148020, Note_on_c, 14, 46, 100
26, 148080, Note_on_c, 14, 46, 0
26, 148080, Note_on_c, 14, 47, 100
26, 148140, Note_on_c, 14, 47, 0
26, 148140, Note_on_c, 14, 42, 100
26, 148200, Note_on_c, 14, 42, 0
26, 148200, Note_on_c, 14, 44, 100
26, 148260, Note_on_c, 14, 44, 0
26, 148260, Note_on_c, 14, 46, 100
26, 148320, Note_on_c, 14, 46, 0
26, 148320, Note_on_c, 14, 47, 100
26, 148380, Note_on_c, 14, 47, 0
26, 148380, Note_on_c, 14, 59, 100
26, 148440, Note_on_c, 14, 59, 0
26, 148440, Note_on_c, 14, 50, 100
26, 148500, Note_on_c, 14, 50, 0
26, 148500, Note_on_c, 14, 52, 100
26, 148560, Note_on_c, 14, 52, 0
26, 148560, Note_on_c, 14, 55, 100
26, 148620, Note_on_c, 14, 55, 0
26, 148620, Note_on_c, 14, 52, 100
26, 148680, Note_on_c, 14, 52, 0
26, 148680, Note_on_c, 14, 45, 100
26, 148740, Note_on_c, 14, 45, 0
26, 148740, Note_on_c, 14, 57, 100
26, 148800, Note_on_c, 14, 57, 0
26, 148800, Note_on_c, 14, 49, 100
26, 148860, Note_on_c, 14, 49, 0
26, 148860, Note_on_c, 14, 50, 100
26, 148920, Note_on_c, 14, 50, 0
26, 148920, Note_on_c, 14, 54, 100
26, 148980, Note_on_c, 14, 54, 0
26, 148980, Note_on_c, 14, 50, 100
26, 149040, Note_on_c, 14, 50, 0
26, 149040, Note_on_c, 14, 55, 100
26, 149100, Note_on_c, 14, 55, 0
26, 149100, Note_on_c, 14, 52, 100
26, 149160, Note_on_c, 14, 52, 0
26, 149160, Note_on_c, 14, 49, 100
26, 149220, Note_on_c, 14, 49, 0
26, 149220, Note_on_c, 14, 54, 100
26, 149280, Note_on_c, 14, 54, 0
26, 149280, Note_on_c, 14, 50, 100
26, 149340, Note_on_c, 14, 50, 0
26, 149340, Note_on_c, 14, 47, 100
26, 149400, Note_on_c, 14, 47, 0
26, 149400, Note_on_c, 14, 52, 100
26, 149460, Note_on_c, 14, 52, 0
26, 149460, Note_on_c, 14, 49, 100
26, 149520, Note_on_c, 14, 49, 0
26, 149520, Note_on_c, 14, 54, 100
26, 149580, Note_on_c, 14, 54, 0
26, 149580, Note_on_c, 14, 47, 100
26, 149700, Note_on_c, 14, 47, 0
26, 149700, Note_on_c, 14, 49, 100
26, 149760, Note_on_c, 14, 49, 0
26, 149760, Note_on_c, 14, 51, 100
26, 149820, Note_on_c, 14, 51, 0
26, 149820, Note_on_c, 14, 52, 100
26, 149880, Note_on_c, 14, 52, 0
26, 149880, Note_on_c, 14, 54, 100
26, 149940, Note_on_c, 14, 54, 0
26, 149940, Note_on_c, 14, 55, 100
26, 149970, Note_on_c, 14, 55, 0
26, 149970, Note_on_c, 14, 57, 100
26, 150000, Note_on_c, 14, 57, 0
26, 150000, Note_on_c, 14, 59, 100
26, 150060, Note_on_c, 14, 59, 0
26, 150060, Note_on_c, 14, 57, 100
26, 150120, Note_on_c, 14, 57, 0
26, 150120, Note_on_c, 14, 55, 100
26, 150180, Note_on_c, 14, 55, 0
26, 150180, Note_on_c, 14, 54, 100
26, 150210, Note_on_c, 14, 54, 0
26, 150210, Note_on_c, 14, 49, 100
26, 150240, Note_on_c, 14, 49, 0
26, 150240, Note_on_c, 14, 51, 100
26, 150270, Note_on_c, 14, 51, 0
26, 150270, Note_on_c, 14, 47, 100
26, 150300, Note_on_c, 14, 47, 0
26, 150300, Note_on_c, 14, 43, 100
26, 150360, Note_on_c, 14, 43, 0
26, 150360, Note_on_c, 14, 52, 100
26, 150420, Note_on_c, 14, 52, 0
26, 150420, Note_on_c, 14, 49, 100
26, 150480, Note_on_c, 14, 49, 0
26, 150480, Note_on_c, 14, 42, 100
26, 150540, Note_on_c, 14, 42, 0
26, 150540, Note_on_c, 14, 50, 100
26, 150600, Note_on_c, 14, 50, 0
26, 150600, Note_on_c, 14, 47, 100
26, 150660, Note_on_c, 14, 47, 0
26, 150660, Note_on_c, 14, 40, 100
26, 150720, Note_on_c, 14, 40, 0
26, 150720, Note_on_c, 14, 49, 100
26, 150780, Note_on_c, 14, 49, 0
26, 150780, Note_on_c, 14, 54, 100
26, 150840, Note_on_c, 14, 54, 0
26, 150840, Note_on_c, 14, 47, 100
26, 151020, Note_on_c, 14, 47, 0
26, 151200, Note_on_c, 14, 49, 100
26, 151680, Note_on_c, 14, 49, 0
26, 151680, Note_on_c, 14, 50, 100
26, 152400, Note_on_c, 14, 50, 0
26, 152400, Note_on_c, 14, 44, 100
26, 153120, Note_on_c, 14, 44, 0
26, 153120, Note_on_c, 14, 45, 100
26, 153360, Note_on_c, 14, 45, 0
26, 153360, Note_on_c, 14, 43, 100
26, 154080, Note_on_c, 14, 43, 0
26, 154080, Note_on_c, 14, 42, 100
26, 154560, Note_on_c, 14, 42, 0
26, 154560, Note_on_c, 14, 43, 100
26, 154800, Note_on_c, 14, 43, 0
26, 154920, Note_on_c, 14, 45, 100
26, 155040, Note_on_c, 14, 45, 0
26, 155040, Note_on_c, 14, 38, 100
26, 155280, Note_on_c, 14, 38, 0
26, 155520, Note_on_c, 14, 42, 100
26, 155580, Note_on_c, 14, 42, 0
26, 155580, Note_on_c, 14, 54, 100
26, 155640, Note_on_c, 14, 54, 0
26, 155640, Note_on_c, 14, 53, 100
26, 155700, Note_on_c, 14, 53, 0
26, 155700, Note_on_c, 14, 49, 100
26, 155760, Note_on_c, 14, 49, 0
26, 155760, Note_on_c, 14, 54, 100
26, 155820, Note_on_c, 14, 54, 0
26, 155820, Note_on_c, 14, 50, 100
26, 155880, Note_on_c, 14, 50, 0
26, 155880, Note_on_c, 14, 47, 100
26, 155940, Note_on_c, 14, 47, 0
26, 155940, Note_on_c, 14, 49, 100
26, 156000, Note_on_c, 14, 49, 0
26, 156000, Note_on_c, 14, 42, 100
26, 156120, Note_on_c, 14, 42, 0
26, 156180, Note_on_c, 14, 54, 100
26, 156240, Note_on_c, 14, 54, 0
26, 156240, Note_on_c, 14, 53, 100
26, 156360, Note_on_c, 14, 53, 0
26, 156420, Note_on_c, 14, 49, 100
26, 156480, Note_on_c, 14, 49, 0
26, 156480, Note_on_c, 14, 42, 100
26, 156540, Note_on_c, 14, 42, 0
26, 156540, Note_on_c, 14, 54, 100
26, 156600, Note_on_c, 14, 54, 0
26, 156600, Note_on_c, 14, 56, 100
26, 156660, Note_on_c, 14, 56, 0
26, 156660, Note_on_c, 14, 57, 100
26, 156720, Note_on_c, 14, 57, 0
26, 156720, Note_on_c, 14, 56, 100
26, 156780, Note_on_c, 14, 56, 0
26, 156780, Note_on_c, 14, 54, 100
26, 156840, Note_on_c, 14, 54, 0
26, 156840, Note_on_c, 14, 56, 100
26, 156900, Note_on_c, 14, 56, 0
26, 156900, Note_on_c, 14, 52, 100
26, 156960, Note_on_c, 14, 52, 0
26, 156960, Note_on_c, 14, 57, 100
26, 157020, Note_on_c, 14, 57, 0
26, 157020, Note_on_c, 14, 59, 100
26, 157080, Note_on_c, 14, 59, 0
26, 157080, Note_on_c, 14, 61, 100
26, 157140, Note_on_c, 14, 61, 0
26, 157140, Note_on_c, 14, 59, 100
26, 157200, Note_on_c, 14, 59, 0
26, 157200, Note_on_c, 14, 58, 100
26, 157260, Note_on_c, 14, 58, 0
26, 157260, Note_on_c, 14, 59, 100
26, 157320, Note_on_c, 14, 59, 0
26, 157320, Note_on_c, 14, 61, 100
26, 157380, Note_on_c, 14, 61, 0
26, 157380, Note_on_c, 14, 58, 100
26, 157440, Note_on_c, 14, 58, 0
26, 157440, Note_on_c, 14, 59, 100
26, 157500, Note_on_c, 14, 59, 0
26, 157500, Note_on_c, 14, 56, 100
26, 157560, Note_on_c, 14, 56, 0
26, 157560, Note_on_c, 14, 53, 100
26, 157620, Note_on_c, 14, 53, 0
26, 157620, Note_on_c, 14, 49, 100
26, 157680, Note_on_c, 14, 49, 0
26, 157680, Note_on_c, 14, 54, 100
26, 157740, Note_on_c, 14, 54, 0
26, 157740, Note_on_c, 14, 57, 100
26, 157800, Note_on_c, 14, 57, 0
26, 157800, Note_on_c, 14, 50, 100
26, 157920, Note_on_c, 14, 50, 0
26, 157920, Note_on_c, 14, 49, 100
26, 157980, Note_on_c, 14, 49, 0
26, 157980, Note_on_c, 14, 51, 100
26, 158040, Note_on_c, 14, 51, 0
26, 158040, Note_on_c, 14, 53, 100
26, 158100, Note_on_c, 14, 53, 0
26, 158100, Note_on_c, 14, 49, 100
26, 158160, Note_on_c, 14, 49, 0
26, 158160, Note_on_c, 14, 54, 100
26, 158280, Note_on_c, 14, 54, 0
26, 158340, Note_on_c, 14, 42, 100
26, 158400, Note_on_c, 14, 42, 0
26, 158400, Note_on_c, 14, 47, 100
26, 158460, Note_on_c, 14, 47, 0
26, 158460, Note_on_c, 14, 49, 100
26, 158520, Note_on_c, 14, 49, 0
26, 158520, Note_on_c, 14, 50, 100
26, 158580, Note_on_c, 14, 50, 0
26, 158580, Note_on_c, 14, 47, 100
26, 158640, Note_on_c, 14, 47, 0
26, 158640, Note_on_c, 14, 53, 100
26, 158760, Note_on_c, 14, 53, 0
26, 158820, Note_on_c, 14, 49, 100
26, 158880, Note_on_c, 14, 49, 0
26, 158880, Note_on_c, 14, 54, 100
26, 158940, Note_on_c, 14, 54, 0
26, 158940, Note_on_c, 14, 56, 100
26, 159000, Note_on_c, 14, 56, 0
26, 159000, Note_on_c, 14, 57, 100
26, 159060, Note_on_c, 14, 57, 0
26, 159060, Note_on_c, 14, 54, 100
26, 159120, Note_on_c, 14, 54, 0
26, 159120, Note_on_c, 14, 56, 100
26, 159240, Note_on_c, 14, 56, 0
26, 159300, Note_on_c, 14, 44, 100
26, 159360, Note_on_c, 14, 44, 0
26, 159360, Note_on_c, 14, 49, 100
26, 159480, Note_on_c, 14, 49, 0
26, 159540, Note_on_c, 14, 53, 100
26, 159600, Note_on_c, 14, 53, 0
26, 159600, Note_on_c, 14, 54, 100
26, 159660, Note_on_c, 14, 54, 0
26, 159660, Note_on_c, 14, 45, 100
26, 159720, Note_on_c, 14, 45, 0
26, 159720, Note_on_c, 14, 47, 100
26, 159780, Note_on_c, 14, 47, 0
26, 159780, Note_on_c, 14, 49, 100
26, 159840, Note_on_c, 14, 49, 0
26, 159840, Note_on_c, 14, 42, 100
26, 159900, Note_on_c, 14, 42, 0
26, 159900, Note_on_c, 14, 54, 100
26, 159960, Note_on_c, 14, 54, 0
26, 159960, Note_on_c, 14, 53, 100
26, 160020, Note_on_c, 14, 53, 0
26, 160020, Note_on_c, 14, 49, 100
26, 160080, Note_on_c, 14, 49, 0
26, 160080, Note_on_c, 14, 54, 100
26, 160140, Note_on_c, 14, 54, 0
26, 160140, Note_on_c, 14, 50, 100
26, 160200, Note_on_c, 14, 50, 0
26, 160200, Note_on_c, 14, 47, 100
26, 160260, Note_on_c, 14, 47, 0
26, 160260, Note_on_c, 14, 49, 100
26, 160320, Note_on_c, 14, 49, 0
26, 160320, Note_on_c, 14, 42, 100
26, 160440, Note_on_c, 14, 42, 0
26, 160500, Note_on_c, 14, 54, 100
26, 160560, Note_on_c, 14, 54, 0
26, 160560, Note_on_c, 14, 53, 100
26, 160680, Note_on_c, 14, 53, 0
26, 160740, Note_on_c, 14, 49, 100
26, 160800, Note_on_c, 14, 49, 0
26, 160800, Note_on_c, 14, 42, 100
26, 160920, Note_on_c, 14, 42, 0
26, 160980, Note_on_c, 14, 54, 100
26, 161040, Note_on_c, 14, 54, 0
26, 161040, Note_on_c, 14, 56, 100
26, 161100, Note_on_c, 14, 56, 0
26, 161100, Note_on_c, 14, 52, 100
26, 161160, Note_on_c, 14, 52, 0
26, 161160, Note_on_c, 14, 54, 100
26, 161220, Note_on_c, 14, 54, 0
26, 161220, Note_on_c, 14, 56, 100
26, 161280, Note_on_c, 14, 56, 0
26, 161280, Note_on_c, 14, 57, 100
26, 161400, Note_on_c, 14, 57, 0
26, 161460, Note_on_c, 14, 57, 90
26, 161519, Note_on_c, 14, 57, 0
26, 161520, Note_on_c, 14, 58, 90
26, 161579, Note_on_c, 14, 58, 0
26, 161580, Note_on_c, 14, 59, 90
26, 161639, Note_on_c, 14, 59, 0
26, 161640, Note_on_c, 14, 61, 90
26, 161699, Note_on_c, 14, 61, 0
26, 161700, Note_on_c, 14, 54, 90
26, 161759, Note_on_c, 14, 54, 0
26, 161760, Note_on_c, 14, 59, 90
26, 161819, Note_on_c, 14, 59, 0
26, 161820, Note_on_c, 14, 56, 90
26, 161879, Note_on_c, 14, 56, 0
26, 161880, Note_on_c, 14, 53, 90
26, 161939, Note_on_c, 14, 53, 0
26, 161940, Note_on_c, 14, 49, 90
26, 161999, Note_on_c, 14, 49, 0
26, 162000, Note_on_c, 14, 54, 90
26, 162059, Note_on_c, 14, 54, 0
26, 162060, Note_on_c, 14, 57, 90
26, 162119, Note_on_c, 14, 57, 0
26, 162120, Note_on_c, 14, 50, 90
26, 162239, Note_on_c, 14, 50, 0
26, 162240, Note_on_c, 14, 49, 90
26, 162299, Note_on_c, 14, 49, 0
26, 162300, Note_on_c, 14, 51, 90
26, 162359, Note_on_c, 14, 51, 0
26, 162360, Note_on_c, 14, 53, 90
26, 162419, Note_on_c, 14, 53, 0
26, 162420, Note_on_c, 14, 49, 90
26, 162479, Note_on_c, 14, 49, 0
26, 162480, Note_on_c, 14, 54, 90
26, 162599, Note_on_c, 14, 54, 0
26, 162660, Note_on_c, 14, 54, 90
26, 162719, Note_on_c, 14, 54, 0
26, 162720, Note_on_c, 14, 47, 90
26, 162779, Note_on_c, 14, 47, 0
26, 162780, Note_on_c, 14, 49, 90
26, 162839, Note_on_c, 14, 49, 0
26, 162840, Note_on_c, 14, 50, 90
26, 162899, Note_on_c, 14, 50, 0
26, 162900, Note_on_c, 14, 47, 90
26, 162959, Note_on_c, 14, 47, 0
26, 162960, Note_on_c, 14, 52, 90
26, 163079, Note_on_c, 14, 52, 0
26, 163140, Note_on_c, 14, 52, 90
26, 163199, Note_on_c, 14, 52, 0
26, 163200, Note_on_c, 14, 45, 90
26, 163259, Note_on_c, 14, 45, 0
26, 163260, Note_on_c, 14, 47, 90
26, 163319, Note_on_c, 14, 47, 0
26, 163320, Note_on_c, 14, 49, 90
26, 163379, Note_on_c, 14, 49, 0
26, 163380, Note_on_c, 14, 37, 90
26, 163439, Note_on_c, 14, 37, 0
26, 163440, Note_on_c, 14, 42, 90
26, 163499, Note_on_c, 14, 42, 0
26, 163500, Note_on_c, 14, 45, 90
26, 163559, Note_on_c, 14, 45, 0
26, 163560, Note_on_c, 14, 47, 90
26, 163619, Note_on_c, 14, 47, 0
26, 163620, Note_on_c, 14, 49, 90
26, 163679, Note_on_c, 14, 49, 0
26, 163680, Note_on_c, 14, 42, 90
26, 163799, Note_on_c, 14, 42, 0
26, 163860, Note_on_c, 14, 54, 90
26, 163979, Note_on_c, 14, 54, 0
26, 163980, Note_on_c, 14, 53, 90
26, 164039, Note_on_c, 14, 53, 0
26, 164100, Note_on_c, 14, 49, 90
26, 164159, Note_on_c, 14, 49, 0
26, 164160, Note_on_c, 14, 54, 90
26, 164219, Note_on_c, 14, 54, 0
26, 164220, Note_on_c, 14, 52, 90
26, 164279, Note_on_c, 14, 52, 0
26, 164280, Note_on_c, 14, 50, 90
26, 164339, Note_on_c, 14, 50, 0
26, 164340, Note_on_c, 14, 47, 90
26, 164399, Note_on_c, 14, 47, 0
26, 164400, Note_on_c, 14, 44, 90
26, 164459, Note_on_c, 14, 44, 0
26, 164460, Note_on_c, 14, 53, 90
26, 164519, Note_on_c, 14, 53, 0
26, 164520, Note_on_c, 14, 49, 90
26, 164579, Note_on_c, 14, 49, 0
26, 164580, Note_on_c, 14, 53, 90
26, 164639, Note_on_c, 14, 53, 0
26, 164640, Note_on_c, 14, 54, 90
26, 164699, Note_on_c, 14, 54, 0
26, 164700, Note_on_c, 14, 52, 90
26, 164759, Note_on_c, 14, 52, 0
26, 164760, Note_on_c, 14, 51, 90
26, 164819, Note_on_c, 14, 51, 0
26, 164820, Note_on_c, 14, 49, 90
26, 164879, Note_on_c, 14, 49, 0
26, 164880, Note_on_c, 14, 48, 90
26, 164939, Note_on_c, 14, 48, 0
26, 164940, Note_on_c, 14, 44, 90
26, 164999, Note_on_c, 14, 44, 0
26, 165000, Note_on_c, 14, 46, 90
26, 165059, Note_on_c, 14, 46, 0
26, 165060, Note_on_c, 14, 48, 90
26, 165119, Note_on_c, 14, 48, 0
26, 165120, Note_on_c, 14, 49, 90
26, 165239, Note_on_c, 14, 49, 0
26, 165300, Note_on_c, 14, 47, 90
26, 165329, Note_on_c, 14, 47, 0
26, 165330, Note_on_c, 14, 45, 90
26, 165359, Note_on_c, 14, 45, 0
26, 165360, Note_on_c, 14, 44, 90
26, 165389, Note_on_c, 14, 44, 0
26, 165390, Note_on_c, 14, 42, 90
26, 165419, Note_on_c, 14, 42, 0
26, 165420, Note_on_c, 14, 41, 90
26, 165449, Note_on_c, 14, 41, 0
26, 165450, Note_on_c, 14, 42, 90
26, 165479, Note_on_c, 14, 42, 0
26, 165480, Note_on_c, 14, 37, 90
26, 165539, Note_on_c, 14, 37, 0
26, 165540, Note_on_c, 14, 49, 90
26, 165599, Note_on_c, 14, 49, 0
26, 165600, Note_on_c, 14, 54, 90
26, 165659, Note_on_c, 14, 54, 0
26, 165660, Note_on_c, 14, 51, 90
26, 165719, Note_on_c, 14, 51, 0
26, 165720, Note_on_c, 14, 48, 90
26, 165779, Note_on_c, 14, 48, 0
26, 165780, Note_on_c, 14, 44, 90
26, 165839, Note_on_c, 14, 44, 0
26, 165840, Note_on_c, 14, 49, 90
26, 165899, Note_on_c, 14, 49, 0
26, 165900, Note_on_c, 14, 53, 90
26, 165959, Note_on_c, 14, 53, 0
26, 165960, Note_on_c, 14, 45, 90
26, 166079, Note_on_c, 14, 45, 0
26, 166080, Note_on_c, 14, 44, 90
26, 166139, Note_on_c, 14, 44, 0
26, 166140, Note_on_c, 14, 46, 90
26, 166199, Note_on_c, 14, 46, 0
26, 166200, Note_on_c, 14, 48, 90
26, 166259, Note_on_c, 14, 48, 0
26, 166260, Note_on_c, 14, 44, 90
26, 166319, Note_on_c, 14, 44, 0
26, 166320, Note_on_c, 14, 49, 90
26, 166379, Note_on_c, 14, 49, 0
26, 166380, Note_on_c, 14, 51, 90
26, 166439, Note_on_c, 14, 51, 0
26, 166440, Note_on_c, 14, 52, 90
26, 166499, Note_on_c, 14, 52, 0
26, 166500, Note_on_c, 14, 49, 90
26, 166559, Note_on_c, 14, 49, 0
26, 166560, Note_on_c, 14, 51, 90
26, 166589, Note_on_c, 14, 51, 0
26, 166590, Note_on_c, 14, 59, 90
26, 166619, Note_on_c, 14, 59, 0
26, 166620, Note_on_c, 14, 57, 90
26, 166649, Note_on_c, 14, 57, 0
26, 166650, Note_on_c, 14, 52, 90
26, 166679, Note_on_c, 14, 52, 0
26, 166680, Note_on_c, 14, 51, 90
26, 166709, Note_on_c, 14, 51, 0
26, 166710, Note_on_c, 14, 59, 90
26, 166739, Note_on_c, 14, 59, 0
26, 166740, Note_on_c, 14, 57, 90
26, 166769, Note_on_c, 14, 57, 0
26, 166770, Note_on_c, 14, 52, 90
26, 166799, Note_on_c, 14, 52, 0
26, 166800, Note_on_c, 14, 51, 90
26, 166859, Note_on_c, 14, 51, 0
26, 166860, Note_on_c, 14, 47, 90
26, 166919, Note_on_c, 14, 47, 0
26, 166920, Note_on_c, 14, 49, 90
26, 166979, Note_on_c, 14, 49, 0
26, 166980, Note_on_c, 14, 51, 90
26, 167039, Note_on_c, 14, 51, 0
26, 167040, Note_on_c, 14, 52, 90
26, 167069, Note_on_c, 14, 52, 0
26, 167070, Note_on_c, 14, 61, 90
26, 167099, Note_on_c, 14, 61, 0
26, 167100, Note_on_c, 14, 59, 90
26, 167129, Note_on_c, 14, 59, 0
26, 167130, Note_on_c, 14, 51, 90
26, 167159, Note_on_c, 14, 51, 0
26, 167160, Note_on_c, 14, 52, 90
26, 167189, Note_on_c, 14, 52, 0
26, 167190, Note_on_c, 14, 61, 90
26, 167219, Note_on_c, 14, 61, 0
26, 167220, Note_on_c, 14, 59, 90
26, 167249, Note_on_c, 14, 59, 0
26, 167250, Note_on_c, 14, 54, 90
26, 167279, Note_on_c, 14, 54, 0
26, 167280, Note_on_c, 14, 53, 90
26, 167339, Note_on_c, 14, 53, 0
26, 167340, Note_on_c, 14, 49, 90
26, 167399, Note_on_c, 14, 49, 0
26, 167400, Note_on_c, 14, 51, 90
26, 167459, Note_on_c, 14, 51, 0
26, 167460, Note_on_c, 14, 53, 90
26, 167519, Note_on_c, 14, 53, 0
26, 167520, Note_on_c, 14, 42, 90
26, 167549, Note_on_c, 14, 42, 0
26, 167550, Note_on_c, 14, 54, 90
26, 167579, Note_on_c, 14, 54, 0
26, 167580, Note_on_c, 14, 52, 90
26, 167609, Note_on_c, 14, 52, 0
26, 167610, Note_on_c, 14, 42, 90
26, 167639, Note_on_c, 14, 42, 0
26, 167640, Note_on_c, 14, 43, 90
26, 167669, Note_on_c, 14, 43, 0
26, 167670, Note_on_c, 14, 54, 90
26, 167699, Note_on_c, 14, 54, 0
26, 167700, Note_on_c, 14, 52, 90
26, 167729, Note_on_c, 14, 52, 0
26, 167730, Note_on_c, 14, 43, 90
26, 167759, Note_on_c, 14, 43, 0
26, 167760, Note_on_c, 14, 42, 90
26, 167819, Note_on_c, 14, 42, 0
26, 167820, Note_on_c, 14, 52, 90
26, 167879, Note_on_c, 14, 52, 0
26, 167880, Note_on_c, 14, 50, 90
26, 167939, Note_on_c, 14, 50, 0
26, 167940, Note_on_c, 14, 49, 90
26, 167999, Note_on_c, 14, 49, 0
26, 168000, Note_on_c, 14, 47, 90
26, 168059, Note_on_c, 14, 47, 0
26, 168060, Note_on_c, 14, 54, 90
26, 168119, Note_on_c, 14, 54, 0
26, 168120, Note_on_c, 14, 59, 90
26, 168179, Note_on_c, 14, 59, 0
26, 168180, Note_on_c, 14, 57, 90
26, 168239, Note_on_c, 14, 57, 0
26, 168240, Note_on_c, 14, 55, 90
26, 168299, Note_on_c, 14, 55, 0
26, 168300, Note_on_c, 14, 54, 90
26, 168359, Note_on_c, 14, 54, 0
26, 168360, Note_on_c, 14, 52, 90
26, 168419, Note_on_c, 14, 52, 0
26, 168420, Note_on_c, 14, 54, 90
26, 168449, Note_on_c, 14, 54, 0
26, 168450, Note_on_c, 14, 55, 90
26, 168479, Note_on_c, 14, 55, 0
26, 168480, Note_on_c, 14, 57, 90
26, 168539, Note_on_c, 14, 57, 0
26, 168540, Note_on_c, 14, 45, 90
26, 168599, Note_on_c, 14, 45, 0
26, 168600, Note_on_c, 14, 57, 90
26, 168659, Note_on_c, 14, 57, 0
26, 168660, Note_on_c, 14, 55, 90
26, 168719, Note_on_c, 14, 55, 0
26, 168720, Note_on_c, 14, 54, 90
26, 168779, Note_on_c, 14, 54, 0
26, 168780, Note_on_c, 14, 52, 90
26, 168839, Note_on_c, 14, 52, 0
26, 168840, Note_on_c, 14, 50, 90
26, 168899, Note_on_c, 14, 50, 0
26, 168900, Note_on_c, 14, 52, 90
26, 168929, Note_on_c, 14, 52, 0
26, 168930, Note_on_c, 14, 54, 90
26, 168959, Note_on_c, 14, 54, 0
26, 168960, Note_on_c, 14, 55, 90
26, 169019, Note_on_c, 14, 55, 0
26, 169020, Note_on_c, 14, 43, 90
26, 169079, Note_on_c, 14, 43, 0
26, 169140, Note_on_c, 14, 57, 90
26, 169199, Note_on_c, 14, 57, 0
26, 169200, Note_on_c, 14, 54, 90
26, 169319, Note_on_c, 14, 54, 0
26, 169380, Note_on_c, 14, 59, 90
26, 169439, Note_on_c, 14, 59, 0
26, 169440, Note_on_c, 14, 52, 90
26, 169499, Note_on_c, 14, 52, 0
26, 169500, Note_on_c, 14, 50, 90
26, 169559, Note_on_c, 14, 50, 0
26, 169560, Note_on_c, 14, 49, 90
26, 169619, Note_on_c, 14, 49, 0
26, 169620, Note_on_c, 14, 52, 90
26, 169679, Note_on_c, 14, 52, 0
26, 169680, Note_on_c, 14, 46, 90
26, 169739, Note_on_c, 14, 46, 0
26, 169740, Note_on_c, 14, 47, 90
26, 169799, Note_on_c, 14, 47, 0
26, 169800, Note_on_c, 14, 54, 90
26, 169859, Note_on_c, 14, 54, 0
26, 169860, Note_on_c, 14, 42, 90
26, 169919, Note_on_c, 14, 42, 0
26, 169920, Note_on_c, 14, 47, 90
26, 170039, Note_on_c, 14, 47, 0
26, 170100, Note_on_c, 14, 59, 90
26, 170159, Note_on_c, 14, 59, 0
26, 170160, Note_on_c, 14, 58, 90
26, 170279, Note_on_c, 14, 58, 0
26, 170340, Note_on_c, 14, 54, 90
26, 170399, Note_on_c, 14, 54, 0
26, 170400, Note_on_c, 14, 59, 90
26, 170459, Note_on_c, 14, 59, 0
26, 170460, Note_on_c, 14, 47, 90
26, 170519, Note_on_c, 14, 47, 0
26, 170520, Note_on_c, 14, 49, 90
26, 170579, Note_on_c, 14, 49, 0
26, 170580, Note_on_c, 14, 50, 90
26, 170639, Note_on_c, 14, 50, 0
26, 170640, Note_on_c, 14, 49, 90
26, 170699, Note_on_c, 14, 49, 0
26, 170700, Note_on_c, 14, 47, 90
26, 170759, Note_on_c, 14, 47, 0
26, 170760, Note_on_c, 14, 49, 90
26, 170819, Note_on_c, 14, 49, 0
26, 170820, Note_on_c, 14, 45, 90
26, 170879, Note_on_c, 14, 45, 0
26, 170880, Note_on_c, 14, 50, 90
26, 170939, Note_on_c, 14, 50, 0
26, 170940, Note_on_c, 14, 49, 90
26, 170999, Note_on_c, 14, 49, 0
26, 171000, Note_on_c, 14, 50, 90
26, 171059, Note_on_c, 14, 50, 0
26, 171060, Note_on_c, 14, 47, 90
26, 171119, Note_on_c, 14, 47, 0
26, 171120, Note_on_c, 14, 52, 90
26, 171179, Note_on_c, 14, 52, 0
26, 171180, Note_on_c, 14, 50, 90
26, 171239, Note_on_c, 14, 50, 0
26, 171240, Note_on_c, 14, 49, 90
26, 171299, Note_on_c, 14, 49, 0
26, 171300, Note_on_c, 14, 47, 90
26, 171359, Note_on_c, 14, 47, 0
26, 171360, Note_on_c, 14, 45, 90
26, 171419, Note_on_c, 14, 45, 0
26, 171420, Note_on_c, 14, 47, 90
26, 171479, Note_on_c, 14, 47, 0
26, 171480, Note_on_c, 14, 49, 90
26, 171539, Note_on_c, 14, 49, 0
26, 171540, Note_on_c, 14, 45, 90
26, 171599, Note_on_c, 14, 45, 0
26, 171600, Note_on_c, 14, 50, 90
26, 171659, Note_on_c, 14, 50, 0
26, 171660, Note_on_c, 14, 49, 90
26, 171719, Note_on_c, 14, 49, 0
26, 171720, Note_on_c, 14, 47, 90
26, 171779, Note_on_c, 14, 47, 0
26, 171780, Note_on_c, 14, 45, 90
26, 171839, Note_on_c, 14, 45, 0
26, 171840, Note_on_c, 14, 44, 90
26, 171899, Note_on_c, 14, 44, 0
26, 171900, Note_on_c, 14, 45, 90
26, 171959, Note_on_c, 14, 45, 0
26, 171960, Note_on_c, 14, 47, 90
26, 172019, Note_on_c, 14, 47, 0
26, 172020, Note_on_c, 14, 44, 90
26, 172079, Note_on_c, 14, 44, 0
26, 172080, Note_on_c, 14, 49, 90
26, 172139, Note_on_c, 14, 49, 0
26, 172140, Note_on_c, 14, 47, 90
26, 172199, Note_on_c, 14, 47, 0
26, 172200, Note_on_c, 14, 45, 90
26, 172259, Note_on_c, 14, 45, 0
26, 172260, Note_on_c, 14, 44, 90
26, 172319, Note_on_c, 14, 44, 0
26, 172320, Note_on_c, 14, 42, 90
26, 172439, Note_on_c, 14, 42, 0
26, 172680, Note_on_c, 14, 54, 90
26, 172739, Note_on_c, 14, 54, 0
26, 172740, Note_on_c, 14, 46, 90
26, 172799, Note_on_c, 14, 46, 0
26, 172800, Note_on_c, 14, 47, 90
26, 172859, Note_on_c, 14, 47, 0
26, 172860, Note_on_c, 14, 54, 90
26, 172919, Note_on_c, 14, 54, 0
26, 172920, Note_on_c, 14, 59, 90
26, 172979, Note_on_c, 14, 59, 0
26, 173160, Note_on_c, 14, 52, 90
26, 173219, Note_on_c, 14, 52, 0
26, 173220, Note_on_c, 14, 44, 90
26, 173279, Note_on_c, 14, 44, 0
26, 173280, Note_on_c, 14, 45, 90
26, 173339, Note_on_c, 14, 45, 0
26, 173340, Note_on_c, 14, 52, 90
26, 173399, Note_on_c, 14, 52, 0
26, 173400, Note_on_c, 14, 57, 90
26, 173459, Note_on_c, 14, 57, 0
26, 173640, Note_on_c, 14, 50, 90
26, 173699, Note_on_c, 14, 50, 0
26, 173700, Note_on_c, 14, 42, 90
26, 173759, Note_on_c, 14, 42, 0
26, 173760, Note_on_c, 14, 44, 90
26, 173879, Note_on_c, 14, 44, 0
26, 173940, Note_on_c, 14, 45, 90
26, 173999, Note_on_c, 14, 45, 0
26, 174000, Note_on_c, 14, 47, 90
26, 174059, Note_on_c, 14, 47, 0
26, 174060, Note_on_c, 14, 48, 90
26, 174119, Note_on_c, 14, 48, 0
26, 174120, Note_on_c, 14, 49, 90
26, 174179, Note_on_c, 14, 49, 0
26, 174180, Note_on_c, 14, 41, 90
26, 174239, Note_on_c, 14, 41, 0
26, 174240, Note_on_c, 14, 42, 90
26, 174299, Note_on_c, 14, 42, 0
26, 174300, Note_on_c, 14, 44, 90
26, 174359, Note_on_c, 14, 44, 0
26, 174360, Note_on_c, 14, 45, 90
26, 174419, Note_on_c, 14, 45, 0
26, 174420, Note_on_c, 14, 42, 90
26, 174479, Note_on_c, 14, 42, 0
26, 174480, Note_on_c, 14, 44, 90
26, 174599, Note_on_c, 14, 44, 0
26, 174660, Note_on_c, 14, 56, 90
26, 174719, Note_on_c, 14, 56, 0
26, 174720, Note_on_c, 14, 49, 90
26, 174839, Note_on_c, 14, 49, 0
26, 174900, Note_on_c, 14, 45, 90
26, 174959, Note_on_c, 14, 45, 0
26, 174960, Note_on_c, 14, 50, 90
26, 175019, Note_on_c, 14, 50, 0
26, 175020, Note_on_c, 14, 47, 90
26, 175079, Note_on_c, 14, 47, 0
26, 175080, Note_on_c, 14, 49, 90
26, 175139, Note_on_c, 14, 49, 0
26, 175140, Note_on_c, 14, 37, 90
26, 175199, Note_on_c, 14, 37, 0
26, 175200, Note_on_c, 14, 42, 90
26, 175259, Note_on_c, 14, 42, 0
26, 175260, Note_on_c, 14, 54, 90
26, 175319, Note_on_c, 14, 54, 0
26, 175320, Note_on_c, 14, 53, 90
26, 175379, Note_on_c, 14, 53, 0
26, 175380, Note_on_c, 14, 49, 90
26, 175439, Note_on_c, 14, 49, 0
26, 175440, Note_on_c, 14, 54, 90
26, 175499, Note_on_c, 14, 54, 0
26, 175500, Note_on_c, 14, 50, 90
26, 175559, Note_on_c, 14, 50, 0
26, 175560, Note_on_c, 14, 47, 90
26, 175619, Note_on_c, 14, 47, 0
26, 175620, Note_on_c, 14, 49, 90
26, 175679, Note_on_c, 14, 49, 0
26, 175680, Note_on_c, 14, 42, 90
26, 175799, Note_on_c, 14, 42, 0
26, 175860, Note_on_c, 14, 54, 90
26, 175919, Note_on_c, 14, 54, 0
26, 175920, Note_on_c, 14, 53, 90
26, 176039, Note_on_c, 14, 53, 0
26, 176100, Note_on_c, 14, 49, 90
26, 176159, Note_on_c, 14, 49, 0
26, 176160, Note_on_c, 14, 42, 90
26, 176219, Note_on_c, 14, 42, 0
26, 176220, Note_on_c, 14, 54, 90
26, 176279, Note_on_c, 14, 54, 0
26, 176280, Note_on_c, 14, 56, 90
26, 176339, Note_on_c, 14, 56, 0
26, 176340, Note_on_c, 14, 57, 90
26, 176399, Note_on_c, 14, 57, 0
26, 176400, Note_on_c, 14, 56, 90
26, 176459, Note_on_c, 14, 56, 0
26, 176460, Note_on_c, 14, 54, 90
26, 176519, Note_on_c, 14, 54, 0
26, 176520, Note_on_c, 14, 56, 90
26, 176579, Note_on_c, 14, 56, 0
26, 176580, Note_on_c, 14, 52, 90
26, 176639, Note_on_c, 14, 52, 0
26, 176640, Note_on_c, 14, 57, 90
26, 176699, Note_on_c, 14, 57, 0
26, 176700, Note_on_c, 14, 59, 90
26, 176759, Note_on_c, 14, 59, 0
26, 176760, Note_on_c, 14, 61, 90
26, 176819, Note_on_c, 14, 61, 0
26, 176820, Note_on_c, 14, 59, 90
26, 176879, Note_on_c, 14, 59, 0
26, 176880, Note_on_c, 14, 58, 90
26, 176939, Note_on_c, 14, 58, 0
26, 176940, Note_on_c, 14, 59, 90
26, 176999, Note_on_c, 14, 59, 0
26, 177000, Note_on_c, 14, 61, 90
26, 177059, Note_on_c, 14, 61, 0
26, 177060, Note_on_c, 14, 58, 90
26, 177119, Note_on_c, 14, 58, 0
26, 177120, Note_on_c, 14, 59, 90
26, 177179, Note_on_c, 14, 59, 0
26, 177180, Note_on_c, 14, 56, 90
26, 177239, Note_on_c, 14, 56, 0
26, 177240, Note_on_c, 14, 53, 90
26, 177299, Note_on_c, 14, 53, 0
26, 177300, Note_on_c, 14, 49, 90
26, 177359, Note_on_c, 14, 49, 0
26, 177360, Note_on_c, 14, 54, 90
26, 177419, Note_on_c, 14, 54, 0
26, 177420, Note_on_c, 14, 57, 90
26, 177479, Note_on_c, 14, 57, 0
26, 177480, Note_on_c, 14, 50, 90
26, 177599, Note_on_c, 14, 50, 0
26, 177600, Note_on_c, 14, 49, 90
26, 177659, Note_on_c, 14, 49, 0
26, 177660, Note_on_c, 14, 51, 90
26, 177719, Note_on_c, 14, 51, 0
26, 177720, Note_on_c, 14, 53, 90
26, 177779, Note_on_c, 14, 53, 0
26, 177780, Note_on_c, 14, 49, 90
26, 177839, Note_on_c, 14, 49, 0
26, 177840, Note_on_c, 14, 54, 90
26, 177959, Note_on_c, 14, 54, 0
26, 178020, Note_on_c, 14, 42, 90
26, 178079, Note_on_c, 14, 42, 0
26, 178080, Note_on_c, 14, 47, 90
26, 178139, Note_on_c, 14, 47, 0
26, 178140, Note_on_c, 14, 49, 90
26, 178199, Note_on_c, 14, 49, 0
26, 178200, Note_on_c, 14, 50, 90
26, 178259, Note_on_c, 14, 50, 0
26, 178260, Note_on_c, 14, 47, 90
26, 178319, Note_on_c, 14, 47, 0
26, 178320, Note_on_c, 14, 53, 90
26, 178439, Note_on_c, 14, 53, 0
26, 178500, Note_on_c, 14, 49, 90
26, 178559, Note_on_c, 14, 49, 0
26, 178560, Note_on_c, 14, 54, 90
26, 178619, Note_on_c, 14, 54, 0
26, 178620, Note_on_c, 14, 56, 90
26, 178679, Note_on_c, 14, 56, 0
26, 178680, Note_on_c, 14, 57, 90
26, 178739, Note_on_c, 14, 57, 0
26, 178740, Note_on_c, 14, 54, 90
26, 178799, Note_on_c, 14, 54, 0
26, 178800, Note_on_c, 14, 56, 90
26, 178919, Note_on_c, 14, 56, 0
26, 178980, Note_on_c, 14, 44, 90
26, 179039, Note_on_c, 14, 44, 0
26, 179040, Note_on_c, 14, 49, 90
26, 179159, Note_on_c, 14, 49, 0
26, 179220, Note_on_c, 14, 53, 90
26, 179279, Note_on_c, 14, 53, 0
26, 179280, Note_on_c, 14, 54, 90
26, 179339, Note_on_c, 14, 54, 0
26, 179340, Note_on_c, 14, 45, 90
26, 179399, Note_on_c, 14, 45, 0
26, 179400, Note_on_c, 14, 47, 90
26, 179459, Note_on_c, 14, 47, 0
26, 179460, Note_on_c, 14, 49, 90
26, 179519, Note_on_c, 14, 49, 0
26, 179520, Note_on_c, 14, 42, 90
26, 179639, Note_on_c, 14, 42, 0
26, 180000, Note_on_c, 14, 51, 100
26, 180480, Note_on_c, 14, 51, 0
26, 180480, Note_on_c, 14, 48, 100
26, 180720, Note_on_c, 14, 48, 0
26, 180720, Note_on_c, 14, 47, 100
26, 180960, Note_on_c, 14, 47, 0
26, 180960, Note_on_c, 14, 45, 100
26, 181200, Note_on_c, 14, 45, 0
26, 181200, Note_on_c, 14, 50, 100
26, 181440, Note_on_c, 14, 50, 0
26, 181440, Note_on_c, 14, 49, 100
26, 181680, Note_on_c, 14, 49, 0
26, 181680, Note_on_c, 14, 46, 100
26, 182400, Note_on_c, 14, 46, 0
26, 182400, Note_on_c, 14, 47, 100
26, 183600, Note_on_c, 14, 47, 0
26, 183600, Note_on_c, 14, 41, 100
26, 183840, Note_on_c, 14, 41, 0
26, 183840, Note_on_c, 14, 42, 100
26, 184080, Note_on_c, 14, 42, 0
26, 184080, Note_on_c, 14, 45, 100
26, 184320, Note_on_c, 14, 45, 0
26, 184320, Note_on_c, 14, 44, 100
26, 184560, Note_on_c, 14, 44, 0
26, 184560, Note_on_c, 14, 45, 100
26, 184800, Note_on_c, 14, 45, 0
26, 184920, Note_on_c, 14, 47, 100
26, 185040, Note_on_c, 14, 47, 0
26, 185040, Note_on_c, 14, 40, 100
26, 185280, Note_on_c, 14, 40, 0
26, 185520, Note_on_c, 14, 40, 90
26, 185579, Note_on_c, 14, 40, 0
26, 185580, Note_on_c, 14, 44, 90
26, 185639, Note_on_c, 14, 44, 0
26, 185640, Note_on_c, 14, 47, 90
26, 185699, Note_on_c, 14, 47, 0
26, 185700, Note_on_c, 14, 52, 90
26, 185939, Note_on_c, 14, 52, 0
26, 185940, Note_on_c, 14, 51, 90
26, 185999, Note_on_c, 14, 51, 0
26, 186000, Note_on_c, 14, 49, 90
26, 186059, Note_on_c, 14, 49, 0
26, 186060, Note_on_c, 14, 47, 90
26, 186179, Note_on_c, 14, 47, 0
26, 186180, Note_on_c, 14, 45, 90
26, 186239, Note_on_c, 14, 45, 0
26, 186240, Note_on_c, 14, 47, 90
26, 186299, Note_on_c, 14, 47, 0
26, 186300, Note_on_c, 14, 49, 90
26, 186359, Note_on_c, 14, 49, 0
26, 186360, Note_on_c, 14, 51, 90
26, 186419, Note_on_c, 14, 51, 0
26, 186420, Note_on_c, 14, 52, 90
26, 186479, Note_on_c, 14, 52, 0
26, 186480, Note_on_c, 14, 56, 90
26, 186539, Note_on_c, 14, 56, 0
26, 186540, Note_on_c, 14, 52, 90
26, 186599, Note_on_c, 14, 52, 0
26, 186600, Note_on_c, 14, 57, 90
26, 186839, Note_on_c, 14, 57, 0
26, 186840, Note_on_c, 14, 54, 90
26, 186899, Note_on_c, 14, 54, 0
26, 186900, Note_on_c, 14, 51, 90
26, 186959, Note_on_c, 14, 51, 0
26, 186960, Note_on_c, 14, 56, 90
26, 187199, Note_on_c, 14, 56, 0
26, 187200, Note_on_c, 14, 52, 90
26, 187259, Note_on_c, 14, 52, 0
26, 187260, Note_on_c, 14, 49, 90
26, 187319, Note_on_c, 14, 49, 0
26, 187320, Note_on_c, 14, 54, 90
26, 187559, Note_on_c, 14, 54, 0
26, 187560, Note_on_c, 14, 51, 90
26, 187619, Note_on_c, 14, 51, 0
26, 187620, Note_on_c, 14, 47, 90
26, 187679, Note_on_c, 14, 47, 0
26, 187680, Note_on_c, 14, 52, 90
26, 187919, Note_on_c, 14, 52, 0
26, 187920, Note_on_c, 14, 40, 90
26, 187979, Note_on_c, 14, 40, 0
26, 187980, Note_on_c, 14, 44, 90
26, 188039, Note_on_c, 14, 44, 0
26, 188040, Note_on_c, 14, 45, 90
26, 188279, Note_on_c, 14, 45, 0
26, 188280, Note_on_c, 14, 49, 90
26, 188339, Note_on_c, 14, 49, 0
26, 188340, Note_on_c, 14, 42, 90
26, 188399, Note_on_c, 14, 42, 0
26, 188400, Note_on_c, 14, 47, 90
26, 188639, Note_on_c, 14, 47, 0
26, 188640, Note_on_c, 14, 51, 90
26, 188699, Note_on_c, 14, 51, 0
26, 188700, Note_on_c, 14, 54, 90
26, 188759, Note_on_c, 14, 54, 0
26, 188760, Note_on_c, 14, 47, 90
26, 188999, Note_on_c, 14, 47, 0
26, 189000, Note_on_c, 14, 52, 90
26, 189059, Note_on_c, 14, 52, 0
26, 189060, Note_on_c, 14, 56, 90
26, 189119, Note_on_c, 14, 56, 0
26, 189120, Note_on_c, 14, 47, 90
26, 189359, Note_on_c, 14, 47, 0
26, 189360, Note_on_c, 14, 54, 90
26, 189419, Note_on_c, 14, 54, 0
26, 189420, Note_on_c, 14, 59, 90
26, 189479, Note_on_c, 14, 59, 0
26, 189480, Note_on_c, 14, 52, 90
26, 189539, Note_on_c, 14, 52, 0
26, 189540, Note_on_c, 14, 56, 90
26, 189599, Note_on_c, 14, 56, 0
26, 189600, Note_on_c, 14, 57, 90
26, 189659, Note_on_c, 14, 57, 0
26, 189660, Note_on_c, 14, 59, 90
26, 189779, Note_on_c, 14, 59, 0
26, 189780, Note_on_c, 14, 47, 90
26, 189839, Note_on_c, 14, 47, 0
26, 189840, Note_on_c, 14, 40, 90
26, 189899, Note_on_c, 14, 40, 0
26, 189900, Note_on_c, 14, 44, 90
26, 189959, Note_on_c, 14, 44, 0
26, 189960, Note_on_c, 14, 47, 90
26, 190019, Note_on_c, 14, 47, 0
26, 190020, Note_on_c, 14, 52, 90
26, 190139, Note_on_c, 14, 52, 0
26, 190140, Note_on_c, 14, 54, 90
26, 190199, Note_on_c, 14, 54, 0
26, 190200, Note_on_c, 14, 56, 90
26, 190259, Note_on_c, 14, 56, 0
26, 190260, Note_on_c, 14, 52, 90
26, 190289, Note_on_c, 14, 52, 0
26, 190290, Note_on_c, 14, 51, 90
26, 190319, Note_on_c, 14, 51, 0
26, 190320, Note_on_c, 14, 52, 90
26, 190349, Note_on_c, 14, 52, 0
26, 190350, Note_on_c, 14, 56, 90
26, 190379, Note_on_c, 14, 56, 0
26, 190380, Note_on_c, 14, 57, 90
26, 190439, Note_on_c, 14, 57, 0
26, 190440, Note_on_c, 14, 56, 90
26, 190499, Note_on_c, 14, 56, 0
26, 190500, Note_on_c, 14, 54, 90
26, 190559, Note_on_c, 14, 54, 0
26, 190560, Note_on_c, 14, 52, 90
26, 190619, Note_on_c, 14, 52, 0
26, 190620, Note_on_c, 14, 47, 90
26, 190679, Note_on_c, 14, 47, 0
26, 190680, Note_on_c, 14, 44, 90
26, 190739, Note_on_c, 14, 44, 0
26, 190740, Note_on_c, 14, 40, 90
26, 191040, Note_on_c, 14, 40, 0
26, 191040, Note_on_c, 14, 51, 90
26, 191099, Note_on_c, 14, 51, 0
26, 191100, Note_on_c, 14, 52, 90
26, 191219, Note_on_c, 14, 52, 0
26, 191220, Note_on_c, 14, 45, 90
26, 191279, Note_on_c, 14, 45, 0
26, 191280, Note_on_c, 14, 47, 90
26, 191339, Note_on_c, 14, 47, 0
26, 191340, Note_on_c, 14, 51, 90
26, 191399, Note_on_c, 14, 51, 0
26, 191400, Note_on_c, 14, 54, 90
26, 191459, Note_on_c, 14, 54, 0
26, 191460, Note_on_c, 14, 59, 90
26, 191519, Note_on_c, 14, 59, 0
26, 191520, Note_on_c, 14, 54, 90
26, 191579, Note_on_c, 14, 54, 0
26, 191580, Note_on_c, 14, 51, 90
26, 191639, Note_on_c, 14, 51, 0
26, 191640, Note_on_c, 14, 47, 90
26, 191879, Note_on_c, 14, 47, 0
26, 191880, Note_on_c, 14, 52, 90
26, 191939, Note_on_c, 14, 52, 0
26, 191940, Note_on_c, 14, 56, 90
26, 191999, Note_on_c, 14, 56, 0
26, 192000, Note_on_c, 14, 47, 90
26, 192239, Note_on_c, 14, 47, 0
26, 192240, Note_on_c, 14, 54, 90
26, 192299, Note_on_c, 14, 54, 0
26, 192300, Note_on_c, 14, 59, 90
26, 192359, Note_on_c, 14, 59, 0
26, 192360, Note_on_c, 14, 52, 90
26, 192419, Note_on_c, 14, 52, 0
26, 192420, Note_on_c, 14, 56, 90
26, 192479, Note_on_c, 14, 56, 0
26, 192480, Note_on_c, 14, 57, 90
26, 192539, Note_on_c, 14, 57, 0
26, 192540, Note_on_c, 14, 59, 90
26, 192659, Note_on_c, 14, 59, 0
26, 192660, Note_on_c, 14, 47, 90
26, 192719, Note_on_c, 14, 47, 0
26, 192720, Note_on_c, 14, 52, 90
26, 192779, Note_on_c, 14, 52, 0
26, 192780, Note_on_c, 14, 47, 90
26, 192839, Note_on_c, 14, 47, 0
26, 192840, Note_on_c, 14, 44, 90
26, 192899, Note_on_c, 14, 44, 0
26, 192900, Note_on_c, 14, 40, 100
26, 193500, Note_on_c, 14, 40, 0
26, 193500, Note_on_c, 14, 44, 90
26, 193559, Note_on_c, 14, 44, 0
26, 193560, Note_on_c, 14, 47, 90
26, 193619, Note_on_c, 14, 47, 0
26, 193620, Note_on_c, 14, 52, 90
26, 193679, Note_on_c, 14, 52, 0
26, 193680, Note_on_c, 14, 56, 90
26, 193739, Note_on_c, 14, 56, 0
26, 193740, Note_on_c, 14, 54, 90
26, 193799, Note_on_c, 14, 54, 0
26, 193800, Note_on_c, 14, 52, 90
26, 193919, Note_on_c, 14, 52, 0
26, 193920, Note_on_c, 14, 51, 90
26, 193979, Note_on_c, 14, 51, 0
26, 193980, Note_on_c, 14, 52, 90
26, 194099, Note_on_c, 14, 52, 0
26, 194100, Note_on_c, 14, 45, 90
26, 194159, Note_on_c, 14, 45, 0
26, 194160, Note_on_c, 14, 47, 90
26, 194219, Note_on_c, 14, 47, 0
26, 194220, Note_on_c, 14, 51, 90
26, 194279, Note_on_c, 14, 51, 0
26, 194280, Note_on_c, 14, 54, 90
26, 194339, Note_on_c, 14, 54, 0
26, 194340, Note_on_c, 14, 59, 90
26, 194459, Note_on_c, 14, 59, 0
26, 194460, Note_on_c, 14, 57, 90
26, 194519, Note_on_c, 14, 57, 0
26, 194520, Note_on_c, 14, 56, 90
26, 194639, Note_on_c, 14, 56, 0
26, 194640, Note_on_c, 14, 54, 90
26, 194699, Note_on_c, 14, 54, 0
26, 194700, Note_on_c, 14, 53, 90
26, 194819, Note_on_c, 14, 53, 0
26, 194820, Note_on_c, 14, 49, 90
26, 194879, Note_on_c, 14, 49, 0
26, 194880, Note_on_c, 14, 54, 90
26, 194999, Note_on_c, 14, 54, 0
26, 195000, Note_on_c, 14, 56, 90
26, 195059, Note_on_c, 14, 56, 0
26, 195060, Note_on_c, 14, 57, 90
26, 195179, Note_on_c, 14, 57, 0
26, 195180, Note_on_c, 14, 54, 90
26, 195239, Note_on_c, 14, 54, 0
26, 195240, Note_on_c, 14, 47, 90
26, 195299, Note_on_c, 14, 47, 0
26, 195300, Note_on_c, 14, 48, 90
26, 195359, Note_on_c, 14, 48, 0
26, 195360, Note_on_c, 14, 48, 90
26, 195419, Note_on_c, 14, 48, 0
26, 195420, Note_on_c, 14, 44, 90
26, 195479, Note_on_c, 14, 44, 0
26, 195480, Note_on_c, 14, 44, 90
26, 195539, Note_on_c, 14, 44, 0
26, 195540, Note_on_c, 14, 44, 90
26, 195599, Note_on_c, 14, 44, 0
26, 195600, Note_on_c, 14, 49, 90
26, 195719, Note_on_c, 14, 49, 0
26, 195720, Note_on_c, 14, 47, 90
26, 195779, Note_on_c, 14, 47, 0
26, 195780, Note_on_c, 14, 46, 90
26, 195839, Note_on_c, 14, 46, 0
26, 195840, Note_on_c, 14, 54, 90
26, 195899, Note_on_c, 14, 54, 0
26, 195900, Note_on_c, 14, 52, 90
26, 195959, Note_on_c, 14, 52, 0
26, 195960, Note_on_c, 14, 51, 90
26, 196019, Note_on_c, 14, 51, 0
26, 196020, Note_on_c, 14, 56, 90
26, 196079, Note_on_c, 14, 56, 0
26, 196080, Note_on_c, 14, 54, 90
26, 196139, Note_on_c, 14, 54, 0
26, 196140, Note_on_c, 14, 52, 90
26, 196199, Note_on_c, 14, 52, 0
26, 196200, Note_on_c, 14, 49, 90
26, 196259, Note_on_c, 14, 49, 0
26, 196260, Note_on_c, 14, 52, 90
26, 196319, Note_on_c, 14, 52, 0
26, 196320, Note_on_c, 14, 54, 90
26, 196379, Note_on_c, 14, 54, 0
26, 196380, Note_on_c, 14, 49, 90
26, 196439, Note_on_c, 14, 49, 0
26, 196440, Note_on_c, 14, 46, 90
26, 196499, Note_on_c, 14, 46, 0
26, 196500, Note_on_c, 14, 42, 90
26, 196559, Note_on_c, 14, 42, 0
26, 196560, Note_on_c, 14, 46, 90
26, 196619, Note_on_c, 14, 46, 0
26, 196620, Note_on_c, 14, 49, 90
26, 196679, Note_on_c, 14, 49, 0
26, 196680, Note_on_c, 14, 42, 90
26, 196919, Note_on_c, 14, 42, 0
26, 196920, Note_on_c, 14, 47, 90
26, 196979, Note_on_c, 14, 47, 0
26, 196980, Note_on_c, 14, 51, 90
26, 197039, Note_on_c, 14, 51, 0
26, 197040, Note_on_c, 14, 42, 90
26, 197279, Note_on_c, 14, 42, 0
26, 197280, Note_on_c, 14, 49, 90
26, 197339, Note_on_c, 14, 49, 0
26, 197340, Note_on_c, 14, 52, 90
26, 197399, Note_on_c, 14, 52, 0
26, 197400, Note_on_c, 14, 51, 90
26, 197519, Note_on_c, 14, 51, 0
26, 197520, Note_on_c, 14, 52, 90
26, 197579, Note_on_c, 14, 52, 0
26, 197580, Note_on_c, 14, 54, 90
26, 197699, Note_on_c, 14, 54, 0
26, 197700, Note_on_c, 14, 42, 90
26, 197759, Note_on_c, 14, 42, 0
26, 197760, Note_on_c, 14, 47, 90
26, 197819, Note_on_c, 14, 47, 0
26, 197820, Note_on_c, 14, 51, 90
26, 197879, Note_on_c, 14, 51, 0
26, 197880, Note_on_c, 14, 54, 90
26, 197939, Note_on_c, 14, 54, 0
26, 197940, Note_on_c, 14, 59, 90
26, 198179, Note_on_c, 14, 59, 0
26, 198180, Note_on_c, 14, 58, 90
26, 198239, Note_on_c, 14, 58, 0
26, 198240, Note_on_c, 14, 56, 90
26, 198299, Note_on_c, 14, 56, 0
26, 198300, Note_on_c, 14, 54, 90
26, 198419, Note_on_c, 14, 54, 0
26, 198420, Note_on_c, 14, 52, 90
26, 198479, Note_on_c, 14, 52, 0
26, 198480, Note_on_c, 14, 54, 90
26, 198539, Note_on_c, 14, 54, 0
26, 198540, Note_on_c, 14, 56, 90
26, 198599, Note_on_c, 14, 56, 0
26, 198600, Note_on_c, 14, 58, 90
26, 198659, Note_on_c, 14, 58, 0
26, 198660, Note_on_c, 14, 59, 90
26, 198719, Note_on_c, 14, 59, 0
26, 198720, Note_on_c, 14, 63, 90
26, 198779, Note_on_c, 14, 63, 0
26, 198780, Note_on_c, 14, 59, 90
26, 198839, Note_on_c, 14, 59, 0
26, 198840, Note_on_c, 14, 52, 90
26, 199079, Note_on_c, 14, 52, 0
26, 199080, Note_on_c, 14, 61, 90
26, 199139, Note_on_c, 14, 61, 0
26, 199140, Note_on_c, 14, 58, 90
26, 199199, Note_on_c, 14, 58, 0
26, 199200, Note_on_c, 14, 51, 90
26, 199439, Note_on_c, 14, 51, 0
26, 199440, Note_on_c, 14, 59, 90
26, 199499, Note_on_c, 14, 59, 0
26, 199500, Note_on_c, 14, 56, 90
26, 199559, Note_on_c, 14, 56, 0
26, 199560, Note_on_c, 14, 49, 90
26, 199799, Note_on_c, 14, 49, 0
26, 199800, Note_on_c, 14, 58, 90
26, 199859, Note_on_c, 14, 58, 0
26, 199860, Note_on_c, 14, 54, 90
26, 199919, Note_on_c, 14, 54, 0
26, 199920, Note_on_c, 14, 47, 90
26, 199979, Note_on_c, 14, 47, 0
26, 199980, Note_on_c, 14, 54, 90
26, 200039, Note_on_c, 14, 54, 0
26, 200040, Note_on_c, 14, 56, 90
26, 200099, Note_on_c, 14, 56, 0
26, 200100, Note_on_c, 14, 58, 90
26, 200159, Note_on_c, 14, 58, 0
26, 200160, Note_on_c, 14, 59, 90
26, 200219, Note_on_c, 14, 59, 0
26, 200220, Note_on_c, 14, 61, 90
26, 200279, Note_on_c, 14, 61, 0
26, 200280, Note_on_c, 14, 63, 90
26, 200339, Note_on_c, 14, 63, 0
26, 200340, Note_on_c, 14, 51, 90
26, 200399, Note_on_c, 14, 51, 0
26, 200400, Note_on_c, 14, 52, 90
26, 200459, Note_on_c, 14, 52, 0
26, 200460, Note_on_c, 14, 54, 90
26, 200579, Note_on_c, 14, 54, 0
26, 200580, Note_on_c, 14, 42, 90
26, 200639, Note_on_c, 14, 42, 0
26, 200640, Note_on_c, 14, 47, 90
26, 200699, Note_on_c, 14, 47, 0
26, 200700, Note_on_c, 14, 51, 90
26, 200759, Note_on_c, 14, 51, 0
26, 200760, Note_on_c, 14, 54, 90
26, 200819, Note_on_c, 14, 54, 0
26, 200820, Note_on_c, 14, 59, 90
26, 200939, Note_on_c, 14, 59, 0
26, 200940, Note_on_c, 14, 57, 90
26, 200999, Note_on_c, 14, 57, 0
26, 201000, Note_on_c, 14, 56, 90
26, 201059, Note_on_c, 14, 56, 0
26, 201060, Note_on_c, 14, 59, 90
26, 201119, Note_on_c, 14, 59, 0
26, 201120, Note_on_c, 14, 56, 90
26, 201179, Note_on_c, 14, 56, 0
26, 201180, Note_on_c, 14, 52, 90
26, 201239, Note_on_c, 14, 52, 0
26, 201240, Note_on_c, 14, 56, 90
26, 201299, Note_on_c, 14, 56, 0
26, 201300, Note_on_c, 14, 52, 90
26, 201359, Note_on_c, 14, 52, 0
26, 201360, Note_on_c, 14, 45, 90
26, 201419, Note_on_c, 14, 45, 0
26, 201420, Note_on_c, 14, 49, 90
26, 201479, Note_on_c, 14, 49, 0
26, 201480, Note_on_c, 14, 52, 90
26, 201539, Note_on_c, 14, 52, 0
26, 201540, Note_on_c, 14, 57, 90
26, 201659, Note_on_c, 14, 57, 0
26, 201660, Note_on_c, 14, 56, 90
26, 201719, Note_on_c, 14, 56, 0
26, 201720, Note_on_c, 14, 54, 90
26, 201839, Note_on_c, 14, 54, 0
26, 201840, Note_on_c, 14, 52, 90
26, 201899, Note_on_c, 14, 52, 0
26, 201900, Note_on_c, 14, 57, 90
26, 202019, Note_on_c, 14, 57, 0
26, 202020, Note_on_c, 14, 54, 90
26, 202079, Note_on_c, 14, 54, 0
26, 202080, Note_on_c, 14, 56, 90
26, 202140, Note_on_c, 14, 56, 0
26, 202140, Note_on_c, 14, 51, 90
26, 202199, Note_on_c, 14, 51, 0
26, 202200, Note_on_c, 14, 48, 90
26, 202260, Note_on_c, 14, 48, 0
26, 202260, Note_on_c, 14, 44, 90
26, 202380, Note_on_c, 14, 44, 0
26, 202380, Note_on_c, 14, 48, 90
26, 202440, Note_on_c, 14, 48, 0
26, 202440, Note_on_c, 14, 49, 90
26, 202499, Note_on_c, 14, 49, 0
26, 202500, Note_on_c, 14, 52, 90
26, 202559, Note_on_c, 14, 52, 0
26, 202560, Note_on_c, 14, 56, 90
26, 202619, Note_on_c, 14, 56, 0
26, 202620, Note_on_c, 14, 61, 90
26, 202679, Note_on_c, 14, 61, 0
26, 202680, Note_on_c, 14, 58, 90
26, 202739, Note_on_c, 14, 58, 0
26, 202740, Note_on_c, 14, 54, 90
26, 202799, Note_on_c, 14, 54, 0
26, 202800, Note_on_c, 14, 47, 90
26, 202859, Note_on_c, 14, 47, 0
26, 202860, Note_on_c, 14, 51, 90
26, 202919, Note_on_c, 14, 51, 0
26, 202920, Note_on_c, 14, 54, 90
26, 202979, Note_on_c, 14, 54, 0
26, 202980, Note_on_c, 14, 59, 90
26, 203099, Note_on_c, 14, 59, 0
26, 203100, Note_on_c, 14, 57, 90
26, 203159, Note_on_c, 14, 57, 0
26, 203160, Note_on_c, 14, 56, 90
26, 203279, Note_on_c, 14, 56, 0
26, 203280, Note_on_c, 14, 54, 90
26, 203339, Note_on_c, 14, 54, 0
26, 203340, Note_on_c, 14, 56, 90
26, 203459, Note_on_c, 14, 56, 0
26, 203460, Note_on_c, 14, 52, 90
26, 203519, Note_on_c, 14, 52, 0
26, 203520, Note_on_c, 14, 45, 90
26, 203579, Note_on_c, 14, 45, 0
26, 203580, Note_on_c, 14, 54, 90
26, 203639, Note_on_c, 14, 54, 0
26, 203640, Note_on_c, 14, 52, 90
26, 203699, Note_on_c, 14, 52, 0
26, 203700, Note_on_c, 14, 50, 90
26, 203759, Note_on_c, 14, 50, 0
26, 203760, Note_on_c, 14, 52, 90
26, 203819, Note_on_c, 14, 52, 0
26, 203820, Note_on_c, 14, 54, 90
26, 203879, Note_on_c, 14, 54, 0
26, 203880, Note_on_c, 14, 44, 90
26, 203939, Note_on_c, 14, 44, 0
26, 203940, Note_on_c, 14, 44, 90
26, 203999, Note_on_c, 14, 44, 0
26, 204000, Note_on_c, 14, 44, 90
26, 204059, Note_on_c, 14, 44, 0
26, 204060, Note_on_c, 14, 40, 90
26, 204119, Note_on_c, 14, 40, 0
26, 204120, Note_on_c, 14, 40, 90
26, 204179, Note_on_c, 14, 40, 0
26, 204180, Note_on_c, 14, 40, 90
26, 204239, Note_on_c, 14, 40, 0
26, 204240, Note_on_c, 14, 45, 90
26, 204299, Note_on_c, 14, 45, 0
26, 204300, Note_on_c, 14, 49, 90
26, 204359, Note_on_c, 14, 49, 0
26, 204360, Note_on_c, 14, 52, 90
26, 204419, Note_on_c, 14, 52, 0
26, 204420, Note_on_c, 14, 57, 90
26, 204539, Note_on_c, 14, 57, 0
26, 204540, Note_on_c, 14, 56, 90
26, 204599, Note_on_c, 14, 56, 0
26, 204600, Note_on_c, 14, 54, 90
26, 204659, Note_on_c, 14, 54, 0
26, 204660, Note_on_c, 14, 52, 90
26, 204719, Note_on_c, 14, 52, 0
26, 204720, Note_on_c, 14, 50, 90
26, 204779, Note_on_c, 14, 50, 0
26, 204780, Note_on_c, 14, 49, 90
26, 204839, Note_on_c, 14, 49, 0
26, 204840, Note_on_c, 14, 47, 90
26, 204899, Note_on_c, 14, 47, 0
26, 204900, Note_on_c, 14, 49, 90
26, 204959, Note_on_c, 14, 49, 0
26, 204960, Note_on_c, 14, 50, 90
26, 205199, Note_on_c, 14, 50, 0
26, 205200, Note_on_c, 14, 47, 90
26, 205259, Note_on_c, 14, 47, 0
26, 205260, Note_on_c, 14, 44, 90
26, 205319, Note_on_c, 14, 44, 0
26, 205320, Note_on_c, 14, 40, 90
26, 205559, Note_on_c, 14, 40, 0
26, 205560, Note_on_c, 14, 45, 90
26, 205619, Note_on_c, 14, 45, 0
26, 205620, Note_on_c, 14, 49, 90
26, 205679, Note_on_c, 14, 49, 0
26, 205680, Note_on_c, 14, 40, 90
26, 205919, Note_on_c, 14, 40, 0
26, 205920, Note_on_c, 14, 47, 90
26, 205979, Note_on_c, 14, 47, 0
26, 205980, Note_on_c, 14, 50, 90
26, 206039, Note_on_c, 14, 50, 0
26, 206040, Note_on_c, 14, 49, 90
26, 206159, Note_on_c, 14, 49, 0
26, 206160, Note_on_c, 14, 50, 90
26, 206219, Note_on_c, 14, 50, 0
26, 206220, Note_on_c, 14, 52, 90
26, 206339, Note_on_c, 14, 52, 0
26, 206340, Note_on_c, 14, 40, 90
26, 206399, Note_on_c, 14, 40, 0
26, 206400, Note_on_c, 14, 45, 90
26, 206459, Note_on_c, 14, 45, 0
26, 206460, Note_on_c, 14, 49, 90
26, 206519, Note_on_c, 14, 49, 0
26, 206520, Note_on_c, 14, 52, 90
26, 206579, Note_on_c, 14, 52, 0
26, 206580, Note_on_c, 14, 57, 90
26, 206819, Note_on_c, 14, 57, 0
26, 206820, Note_on_c, 14, 56, 90
26, 206879, Note_on_c, 14, 56, 0
26, 206880, Note_on_c, 14, 54, 90
26, 206939, Note_on_c, 14, 54, 0
26, 206940, Note_on_c, 14, 52, 90
26, 207059, Note_on_c, 14, 52, 0
26, 207060, Note_on_c, 14, 50, 90
26, 207119, Note_on_c, 14, 50, 0
26, 207120, Note_on_c, 14, 52, 90
26, 207179, Note_on_c, 14, 52, 0
26, 207180, Note_on_c, 14, 56, 90
26, 207239, Note_on_c, 14, 56, 0
26, 207240, Note_on_c, 14, 59, 90
26, 207299, Note_on_c, 14, 59, 0
26, 207300, Note_on_c, 14, 56, 90
26, 207359, Note_on_c, 14, 56, 0
26, 207360, Note_on_c, 14, 52, 90
26, 207419, Note_on_c, 14, 52, 0
26, 207420, Note_on_c, 14, 56, 90
26, 207479, Note_on_c, 14, 56, 0
26, 207480, Note_on_c, 14, 57, 90
26, 207539, Note_on_c, 14, 57, 0
26, 207540, Note_on_c, 14, 56, 90
26, 207599, Note_on_c, 14, 56, 0
26, 207600, Note_on_c, 14, 54, 90
26, 207659, Note_on_c, 14, 54, 0
26, 207660, Note_on_c, 14, 53, 90
26, 207719, Note_on_c, 14, 53, 0
26, 207720, Note_on_c, 14, 49, 90
26, 207779, Note_on_c, 14, 49, 0
26, 207780, Note_on_c, 14, 53, 90
26, 207839, Note_on_c, 14, 53, 0
26, 207840, Note_on_c, 14, 54, 90
26, 207899, Note_on_c, 14, 54, 0
26, 207900, Note_on_c, 14, 57, 90
26, 207959, Note_on_c, 14, 57, 0
26, 207960, Note_on_c, 14, 61, 90
26, 208019, Note_on_c, 14, 61, 0
26, 208020, Note_on_c, 14, 57, 90
26, 208079, Note_on_c, 14, 57, 0
26, 208080, Note_on_c, 14, 54, 90
26, 208139, Note_on_c, 14, 54, 0
26, 208140, Note_on_c, 14, 57, 90
26, 208199, Note_on_c, 14, 57, 0
26, 208200, Note_on_c, 14, 59, 90
26, 208259, Note_on_c, 14, 59, 0
26, 208260, Note_on_c, 14, 57, 90
26, 208319, Note_on_c, 14, 57, 0
26, 208320, Note_on_c, 14, 56, 90
26, 208379, Note_on_c, 14, 56, 0
26, 208380, Note_on_c, 14, 57, 90
26, 208439, Note_on_c, 14, 57, 0
26, 208440, Note_on_c, 14, 56, 90
26, 208499, Note_on_c, 14, 56, 0
26, 208500, Note_on_c, 14, 52, 90
26, 208559, Note_on_c, 14, 52, 0
26, 208560, Note_on_c, 14, 47, 90
26, 208619, Note_on_c, 14, 47, 0
26, 208620, Note_on_c, 14, 51, 90
26, 208679, Note_on_c, 14, 51, 0
26, 208680, Note_on_c, 14, 54, 90
26, 208739, Note_on_c, 14, 54, 0
26, 208740, Note_on_c, 14, 59, 90
26, 208859, Note_on_c, 14, 59, 0
26, 208860, Note_on_c, 14, 57, 90
26, 208919, Note_on_c, 14, 57, 0
26, 208920, Note_on_c, 14, 56, 90
26, 209039, Note_on_c, 14, 56, 0
26, 209040, Note_on_c, 14, 54, 90
26, 209099, Note_on_c, 14, 54, 0
26, 209100, Note_on_c, 14, 53, 90
26, 209219, Note_on_c, 14, 53, 0
26, 209220, Note_on_c, 14, 49, 90
26, 209279, Note_on_c, 14, 49, 0
26, 209280, Note_on_c, 14, 54, 90
26, 209339, Note_on_c, 14, 54, 0
26, 209340, Note_on_c, 14, 49, 90
26, 209399, Note_on_c, 14, 49, 0
26, 209400, Note_on_c, 14, 45, 90
26, 209459, Note_on_c, 14, 45, 0
26, 209460, Note_on_c, 14, 42, 90
26, 209579, Note_on_c, 14, 42, 0
26, 209580, Note_on_c, 14, 45, 90
26, 209699, Note_on_c, 14, 45, 0
26, 209700, Note_on_c, 14, 44, 90
26, 209759, Note_on_c, 14, 44, 0
26, 209760, Note_on_c, 14, 42, 90
26, 209819, Note_on_c, 14, 42, 0
26, 209820, Note_on_c, 14, 40, 90
26, 209939, Note_on_c, 14, 40, 0
26, 209940, Note_on_c, 14, 39, 90
26, 209999, Note_on_c, 14, 39, 0
26, 210000, Note_on_c, 14, 37, 90
26, 210059, Note_on_c, 14, 37, 0
26, 210060, Note_on_c, 14, 49, 90
26, 210119, Note_on_c, 14, 49, 0
26, 210120, Note_on_c, 14, 47, 90
26, 210179, Note_on_c, 14, 47, 0
26, 210180, Note_on_c, 14, 45, 90
26, 210239, Note_on_c, 14, 45, 0
26, 210240, Note_on_c, 14, 44, 90
26, 210269, Note_on_c, 14, 44, 0
26, 210270, Note_on_c, 14, 42, 90
26, 210299, Note_on_c, 14, 42, 0
26, 210300, Note_on_c, 14, 44, 90
26, 210359, Note_on_c, 14, 44, 0
26, 210360, Note_on_c, 14, 39, 90
26, 210419, Note_on_c, 14, 39, 0
26, 210420, Note_on_c, 14, 39, 90
26, 210479, Note_on_c, 14, 39, 0
26, 210480, Note_on_c, 14, 39, 90
26, 210539, Note_on_c, 14, 39, 0
26, 210540, Note_on_c, 14, 47, 90
26, 210599, Note_on_c, 14, 47, 0
26, 210600, Note_on_c, 14, 47, 90
26, 210659, Note_on_c, 14, 47, 0
26, 210660, Note_on_c, 14, 47, 90
26, 210719, Note_on_c, 14, 47, 0
26, 210720, Note_on_c, 14, 52, 90
26, 211019, Note_on_c, 14, 52, 0
26, 211020, Note_on_c, 14, 50, 90
26, 211079, Note_on_c, 14, 50, 0
26, 211080, Note_on_c, 14, 49, 90
26, 211139, Note_on_c, 14, 49, 0
26, 211140, Note_on_c, 14, 52, 90
26, 211199, Note_on_c, 14, 52, 0
26, 211200, Note_on_c, 14, 57, 90
26, 211259, Note_on_c, 14, 57, 0
26, 211260, Note_on_c, 14, 56, 90
26, 211319, Note_on_c, 14, 56, 0
26, 211320, Note_on_c, 14, 54, 90
26, 211379, Note_on_c, 14, 54, 0
26, 211380, Note_on_c, 14, 52, 90
26, 211439, Note_on_c, 14, 52, 0
26, 211440, Note_on_c, 14, 57, 90
26, 211499, Note_on_c, 14, 57, 0
26, 211500, Note_on_c, 14, 56, 90
26, 211559, Note_on_c, 14, 56, 0
26, 211560, Note_on_c, 14, 54, 90
26, 211619, Note_on_c, 14, 54, 0
26, 211620, Note_on_c, 14, 56, 90
26, 211679, Note_on_c, 14, 56, 0
26, 211680, Note_on_c, 14, 54, 90
26, 211739, Note_on_c, 14, 54, 0
26, 211740, Note_on_c, 14, 52, 90
26, 211799, Note_on_c, 14, 52, 0
26, 211800, Note_on_c, 14, 57, 90
26, 211859, Note_on_c, 14, 57, 0
26, 211860, Note_on_c, 14, 61, 90
26, 211919, Note_on_c, 14, 61, 0
26, 211920, Note_on_c, 14, 59, 90
26, 211979, Note_on_c, 14, 59, 0
26, 211980, Note_on_c, 14, 58, 90
26, 212039, Note_on_c, 14, 58, 0
26, 212040, Note_on_c, 14, 56, 90
26, 212099, Note_on_c, 14, 56, 0
26, 212100, Note_on_c, 14, 54, 90
26, 212159, Note_on_c, 14, 54, 0
26, 212160, Note_on_c, 14, 59, 90
26, 212399, Note_on_c, 14, 59, 0
26, 212400, Note_on_c, 14, 54, 90
26, 212459, Note_on_c, 14, 54, 0
26, 212460, Note_on_c, 14, 51, 90
26, 212519, Note_on_c, 14, 51, 0
26, 212520, Note_on_c, 14, 47, 90
26, 212579, Note_on_c, 14, 47, 0
26, 212580, Note_on_c, 14, 52, 90
26, 212639, Note_on_c, 14, 52, 0
26, 212640, Note_on_c, 14, 56, 90
26, 212699, Note_on_c, 14, 56, 0
26, 212700, Note_on_c, 14, 47, 90
26, 212759, Note_on_c, 14, 47, 0
26, 212760, Note_on_c, 14, 52, 90
26, 212819, Note_on_c, 14, 52, 0
26, 212820, Note_on_c, 14, 56, 90
26, 212879, Note_on_c, 14, 56, 0
26, 212880, Note_on_c, 14, 47, 90
26, 212939, Note_on_c, 14, 47, 0
26, 212940, Note_on_c, 14, 51, 90
26, 212999, Note_on_c, 14, 51, 0
26, 213000, Note_on_c, 14, 54, 90
26, 213059, Note_on_c, 14, 54, 0
26, 213060, Note_on_c, 14, 47, 90
26, 213119, Note_on_c, 14, 47, 0
26, 213120, Note_on_c, 14, 54, 90
26, 213179, Note_on_c, 14, 54, 0
26, 213180, Note_on_c, 14, 57, 90
26, 213239, Note_on_c, 14, 57, 0
26, 213240, Note_on_c, 14, 56, 90
26, 213299, Note_on_c, 14, 56, 0
26, 213300, Note_on_c, 14, 61, 90
26, 213359, Note_on_c, 14, 61, 0
26, 213360, Note_on_c, 14, 57, 90
26, 213419, Note_on_c, 14, 57, 0
26, 213420, Note_on_c, 14, 59, 90
26, 213539, Note_on_c, 14, 59, 0
26, 213540, Note_on_c, 14, 47, 90
26, 213599, Note_on_c, 14, 47, 0
26, 213600, Note_on_c, 14, 40, 90
26, 213839, Note_on_c, 14, 40, 0
26, 213840, Note_on_c, 14, 44, 90
26, 213899, Note_on_c, 14, 44, 0
26, 213900, Note_on_c, 14, 47, 90
26, 213959, Note_on_c, 14, 47, 0
26, 213960, Note_on_c, 14, 50, 90
26, 214079, Note_on_c, 14, 50, 0
26, 214080, Note_on_c, 14, 47, 90
26, 214139, Note_on_c, 14, 47, 0
26, 214140, Note_on_c, 14, 44, 90
26, 214259, Note_on_c, 14, 44, 0
26, 214260, Note_on_c, 14, 40, 90
26, 214319, Note_on_c, 14, 40, 0
26, 214320, Note_on_c, 14, 45, 90
26, 214439, Note_on_c, 14, 45, 0
26, 214440, Note_on_c, 14, 47, 90
26, 214499, Note_on_c, 14, 47, 0
26, 214500, Note_on_c, 14, 49, 90
26, 214619, Note_on_c, 14, 49, 0
26, 214620, Note_on_c, 14, 47, 90
26, 214679, Note_on_c, 14, 47, 0
26, 214680, Note_on_c, 14, 46, 90
26, 214799, Note_on_c, 14, 46, 0
26, 214800, Note_on_c, 14, 49, 90
26, 214859, Note_on_c, 14, 49, 0
26, 214860, Note_on_c, 14, 46, 90
26, 214919, Note_on_c, 14, 46, 0
26, 214920, Note_on_c, 14, 42, 90
26, 214979, Note_on_c, 14, 42, 0
26, 214980, Note_on_c, 14, 46, 90
26, 215039, Note_on_c, 14, 46, 0
26, 215040, Note_on_c, 14, 47, 90
26, 215159, Note_on_c, 14, 47, 0
26, 215160, Note_on_c, 14, 45, 90
26, 215219, Note_on_c, 14, 45, 0
26, 215220, Note_on_c, 14, 44, 90
26, 215339, Note_on_c, 14, 44, 0
26, 215340, Note_on_c, 14, 42, 90
26, 215399, Note_on_c, 14, 42, 0
26, 215400, Note_on_c, 14, 44, 90
26, 215519, Note_on_c, 14, 44, 0
26, 215520, Note_on_c, 14, 40, 90
26, 215579, Note_on_c, 14, 40, 0
26, 215580, Note_on_c, 14, 45, 90
26, 215699, Note_on_c, 14, 45, 0
26, 215700, Note_on_c, 14, 44, 90
26, 215759, Note_on_c, 14, 44, 0
26, 215760, Note_on_c, 14, 45, 90
26, 215819, Note_on_c, 14, 45, 0
26, 215820, Note_on_c, 14, 42, 90
26, 215879, Note_on_c, 14, 42, 0
26, 215880, Note_on_c, 14, 45, 90
26, 215939, Note_on_c, 14, 45, 0
26, 215940, Note_on_c, 14, 47, 90
26, 215999, Note_on_c, 14, 47, 0
26, 216000, Note_on_c, 14, 49, 90
26, 216059, Note_on_c, 14, 49, 0
26, 216060, Note_on_c, 14, 51, 90
26, 216119, Note_on_c, 14, 51, 0
26, 216120, Note_on_c, 14, 52, 90
26, 216179, Note_on_c, 14, 52, 0
26, 216180, Note_on_c, 14, 57, 90
26, 216239, Note_on_c, 14, 57, 0
26, 216240, Note_on_c, 14, 54, 90
26, 216299, Note_on_c, 14, 54, 0
26, 216300, Note_on_c, 14, 59, 90
26, 216419, Note_on_c, 14, 59, 0
26, 216420, Note_on_c, 14, 47, 90
26, 216479, Note_on_c, 14, 47, 0
26, 216480, Note_on_c, 14, 40, 90
26, 216539, Note_on_c, 14, 40, 0
26, 216540, Note_on_c, 14, 44, 90
26, 216599, Note_on_c, 14, 44, 0
26, 216600, Note_on_c, 14, 47, 90
26, 216659, Note_on_c, 14, 47, 0
26, 216660, Note_on_c, 14, 52, 90
26, 216899, Note_on_c, 14, 52, 0
26, 216900, Note_on_c, 14, 51, 90
26, 216959, Note_on_c, 14, 51, 0
26, 216960, Note_on_c, 14, 49, 90
26, 217019, Note_on_c, 14, 49, 0
26, 217020, Note_on_c, 14, 47, 90
26, 217139, Note_on_c, 14, 47, 0
26, 217140, Note_on_c, 14, 45, 90
26, 217199, Note_on_c, 14, 45, 0
26, 217200, Note_on_c, 14, 47, 90
26, 217259, Note_on_c, 14, 47, 0
26, 217260, Note_on_c, 14, 49, 90
26, 217319, Note_on_c, 14, 49, 0
26, 217320, Note_on_c, 14, 51, 90
26, 217379, Note_on_c, 14, 51, 0
26, 217380, Note_on_c, 14, 52, 90
26, 217439, Note_on_c, 14, 52, 0
26, 217440, Note_on_c, 14, 56, 90
26, 217499, Note_on_c, 14, 56, 0
26, 217500, Note_on_c, 14, 52, 90
26, 217559, Note_on_c, 14, 52, 0
26, 217560, Note_on_c, 14, 57, 90
26, 217799, Note_on_c, 14, 57, 0
26, 217800, Note_on_c, 14, 54, 90
26, 217859, Note_on_c, 14, 54, 0
26, 217860, Note_on_c, 14, 51, 90
26, 217919, Note_on_c, 14, 51, 0
26, 217920, Note_on_c, 14, 56, 90
26, 218159, Note_on_c, 14, 56, 0
26, 218160, Note_on_c, 14, 52, 90
26, 218219, Note_on_c, 14, 52, 0
26, 218220, Note_on_c, 14, 49, 90
26, 218279, Note_on_c, 14, 49, 0
26, 218280, Note_on_c, 14, 54, 90
26, 218519, Note_on_c, 14, 54, 0
26, 218520, Note_on_c, 14, 51, 90
26, 218579, Note_on_c, 14, 51, 0
26, 218580, Note_on_c, 14, 47, 90
26, 218639, Note_on_c, 14, 47, 0
26, 218640, Note_on_c, 14, 52, 90
26, 218879, Note_on_c, 14, 52, 0
26, 218880, Note_on_c, 14, 40, 90
26, 218939, Note_on_c, 14, 40, 0
26, 218940, Note_on_c, 14, 44, 90
26, 218999, Note_on_c, 14, 44, 0
26, 219000, Note_on_c, 14, 45, 90
26, 219239, Note_on_c, 14, 45, 0
26, 219240, Note_on_c, 14, 49, 90
26, 219299, Note_on_c, 14, 49, 0
26, 219300, Note_on_c, 14, 42, 90
26, 219359, Note_on_c, 14, 42, 0
26, 219360, Note_on_c, 14, 47, 90
26, 219599, Note_on_c, 14, 47, 0
26, 219600, Note_on_c, 14, 51, 90
26, 219659, Note_on_c, 14, 51, 0
26, 219660, Note_on_c, 14, 54, 90
26, 219719, Note_on_c, 14, 54, 0
26, 219720, Note_on_c, 14, 47, 90
26, 219959, Note_on_c, 14, 47, 0
26, 219960, Note_on_c, 14, 52, 90
26, 220019, Note_on_c, 14, 52, 0
26, 220020, Note_on_c, 14, 56, 90
26, 220079, Note_on_c, 14, 56, 0
26, 220080, Note_on_c, 14, 47, 90
26, 220319, Note_on_c, 14, 47, 0
26, 220320, Note_on_c, 14, 54, 90
26, 220379, Note_on_c, 14, 54, 0
26, 220380, Note_on_c, 14, 59, 90
26, 220439, Note_on_c, 14, 59, 0
26, 220440, Note_on_c, 14, 52, 90
26, 220499, Note_on_c, 14, 52, 0
26, 220500, Note_on_c, 14, 56, 90
26, 220559, Note_on_c, 14, 56, 0
26, 220560, Note_on_c, 14, 57, 90
26, 220619, Note_on_c, 14, 57, 0
26, 220620, Note_on_c, 14, 59, 90
26, 220739, Note_on_c, 14, 59, 0
26, 220740, Note_on_c, 14, 47, 90
26, 220799, Note_on_c, 14, 47, 0
26, 220800, Note_on_c, 14, 40, 90
26, 220859, Note_on_c, 14, 40, 0
26, 220860, Note_on_c, 14, 44, 90
26, 220919, Note_on_c, 14, 44, 0
26, 220920, Note_on_c, 14, 47, 90
26, 220979, Note_on_c, 14, 47, 0
26, 220980, Note_on_c, 14, 52, 90
26, 221099, Note_on_c, 14, 52, 0
26, 235560, Note_on_c, 14, 50, 100
26, 235620, Note_on_c, 14, 50, 0
26, 235620, Note_on_c, 14, 38, 100
26, 235680, Note_on_c, 14, 38, 0
26, 235680, Note_on_c, 14, 50, 100
26, 235740, Note_on_c, 14, 50, 0
26, 235740, Note_on_c, 14, 38, 100
26, 235800, Note_on_c, 14, 38, 0
26, 235800, Note_on_c, 14, 38, 100
26, 235860, Note_on_c, 14, 38, 0
26, 235860, Note_on_c, 14, 50, 100
26, 235920, Note_on_c, 14, 50, 0
26, 235920, Note_on_c, 14, 38, 100
26, 235980, Note_on_c, 14, 38, 0
26, 235980, Note_on_c, 14, 38, 100
26, 236040, Note_on_c, 14, 38, 0
26, 236040, Note_on_c, 14, 50, 100
26, 236100, Note_on_c, 14, 50, 0
26, 236100, Note_on_c, 14, 38, 100
26, 236160, Note_on_c, 14, 38, 0
26, 236160, Note_on_c, 14, 38, 100
26, 236220, Note_on_c, 14, 38, 0
26, 236220, Note_on_c, 14, 50, 100
26, 236280, Note_on_c, 14, 50, 0
26, 236280, Note_on_c, 14, 38, 100
26, 236340, Note_on_c, 14, 38, 0
26, 236340, Note_on_c, 14, 38, 100
26, 236370, Note_on_c, 14, 38, 0
26, 236370, Note_on_c, 14, 40, 100
26, 236400, Note_on_c, 14, 40, 0
26, 236400, Note_on_c, 14, 42, 100
26, 236430, Note_on_c, 14, 42, 0
26, 236430, Note_on_c, 14, 43, 100
26, 236460, Note_on_c, 14, 43, 0
26, 236460, Note_on_c, 14, 45, 100
26, 236490, Note_on_c, 14, 45, 0
26, 236490, Note_on_c, 14, 43, 100
26, 236520, Note_on_c, 14, 43, 0
26, 236520, Note_on_c, 14, 42, 100
26, 236550, Note_on_c, 14, 42, 0
26, 236550, Note_on_c, 14, 40, 100
26, 236580, Note_on_c, 14, 40, 0
26, 236580, Note_on_c, 14, 38, 100
26, 236610, Note_on_c, 14, 38, 0
26, 236610, Note_on_c, 14, 40, 100
26, 236640, Note_on_c, 14, 40, 0
26, 236640, Note_on_c, 14, 42, 100
26, 236670, Note_on_c, 14, 42, 0
26, 236670, Note_on_c, 14, 43, 100
26, 236700, Note_on_c, 14, 43, 0
26, 236700, Note_on_c, 14, 45, 100
26, 236760, Note_on_c, 14, 45, 0
26, 236760, Note_on_c, 14, 45, 100
26, 236790, Note_on_c, 14, 45, 0
26, 236790, Note_on_c, 14, 45, 100
26, 236820, Note_on_c, 14, 45, 0
26, 236820, Note_on_c, 14, 45, 100
26, 236850, Note_on_c, 14, 45, 0
26, 236850, Note_on_c, 14, 45, 100
26, 236880, Note_on_c, 14, 45, 0
26, 236880, Note_on_c, 14, 45, 100
26, 236940, Note_on_c, 14, 45, 0
26, 236940, Note_on_c, 14, 57, 100
26, 237000, Note_on_c, 14, 57, 0
26, 237000, Note_on_c, 14, 61, 100
26, 237060, Note_on_c, 14, 61, 0
26, 237060, Note_on_c, 14, 54, 100
26, 237120, Note_on_c, 14, 54, 0
26, 237120, Note_on_c, 14, 57, 100
26, 237180, Note_on_c, 14, 57, 0
26, 237180, Note_on_c, 14, 54, 100
26, 237240, Note_on_c, 14, 54, 0
26, 237240, Note_on_c, 14, 51, 100
26, 237300, Note_on_c, 14, 51, 0
26, 237300, Note_on_c, 14, 47, 100
26, 237360, Note_on_c, 14, 47, 0
26, 237360, Note_on_c, 14, 51, 100
26, 237420, Note_on_c, 14, 51, 0
26, 237420, Note_on_c, 14, 52, 100
26, 237480, Note_on_c, 14, 52, 0
26, 237480, Note_on_c, 14, 64, 100
26, 237540, Note_on_c, 14, 64, 0
26, 237540, Note_on_c, 14, 52, 100
26, 237600, Note_on_c, 14, 52, 0
26, 237600, Note_on_c, 14, 52, 100
26, 237660, Note_on_c, 14, 52, 0
26, 237660, Note_on_c, 14, 64, 100
26, 237720, Note_on_c, 14, 64, 0
26, 237720, Note_on_c, 14, 52, 100
26, 237780, Note_on_c, 14, 52, 0
26, 237780, Note_on_c, 14, 52, 100
26, 237840, Note_on_c, 14, 52, 0
26, 237840, Note_on_c, 14, 55, 100
26, 237900, Note_on_c, 14, 55, 0
26, 237900, Note_on_c, 14, 47, 100
26, 237960, Note_on_c, 14, 47, 0
26, 237960, Note_on_c, 14, 49, 100
26, 238020, Note_on_c, 14, 49, 0
26, 238020, Note_on_c, 14, 52, 100
26, 238080, Note_on_c, 14, 52, 0
26, 238080, Note_on_c, 14, 45, 100
26, 238140, Note_on_c, 14, 45, 0
26, 238140, Note_on_c, 14, 50, 100
26, 238199, Note_on_c, 14, 50, 0
26, 238200, Note_on_c, 14, 62, 100
26, 238259, Note_on_c, 14, 62, 0
26, 238260, Note_on_c, 14, 50, 100
26, 238319, Note_on_c, 14, 50, 0
26, 238320, Note_on_c, 14, 50, 100
26, 238379, Note_on_c, 14, 50, 0
26, 238380, Note_on_c, 14, 62, 100
26, 238439, Note_on_c, 14, 62, 0
26, 238440, Note_on_c, 14, 50, 100
26, 238499, Note_on_c, 14, 50, 0
26, 238500, Note_on_c, 14, 45, 100
26, 238529, Note_on_c, 14, 45, 0
26, 238530, Note_on_c, 14, 57, 100
26, 238559, Note_on_c, 14, 57, 0
26, 238560, Note_on_c, 14, 55, 100
26, 238589, Note_on_c, 14, 55, 0
26, 238590, Note_on_c, 14, 54, 100
26, 238619, Note_on_c, 14, 54, 0
26, 238620, Note_on_c, 14, 52, 100
26, 238649, Note_on_c, 14, 52, 0
26, 238650, Note_on_c, 14, 50, 100
26, 238679, Note_on_c, 14, 50, 0
26, 238680, Note_on_c, 14, 49, 100
26, 238739, Note_on_c, 14, 49, 0
26, 238740, Note_on_c, 14, 61, 100
26, 238799, Note_on_c, 14, 61, 0
26, 238800, Note_on_c, 14, 49, 100
26, 238859, Note_on_c, 14, 49, 0
26, 238860, Note_on_c, 14, 42, 100
26, 238889, Note_on_c, 14, 42, 0
26, 238890, Note_on_c, 14, 55, 100
26, 238919, Note_on_c, 14, 55, 0
26, 238920, Note_on_c, 14, 54, 100
26, 238949, Note_on_c, 14, 54, 0
26, 238950, Note_on_c, 14, 52, 100
26, 238979, Note_on_c, 14, 52, 0
26, 238980, Note_on_c, 14, 50, 100
26, 239009, Note_on_c, 14, 50, 0
26, 239010, Note_on_c, 14, 49, 100
26, 239039, Note_on_c, 14, 49, 0
26, 239040, Note_on_c, 14, 47, 100
26, 239099, Note_on_c, 14, 47, 0
26, 239100, Note_on_c, 14, 59, 100
26, 239159, Note_on_c, 14, 59, 0
26, 239160, Note_on_c, 14, 47, 100
26, 239219, Note_on_c, 14, 47, 0
26, 239220, Note_on_c, 14, 40, 100
26, 239249, Note_on_c, 14, 40, 0
26, 239250, Note_on_c, 14, 54, 100
26, 239279, Note_on_c, 14, 54, 0
26, 239280, Note_on_c, 14, 52, 100
26, 239309, Note_on_c, 14, 52, 0
26, 239310, Note_on_c, 14, 50, 100
26, 239339, Note_on_c, 14, 50, 0
26, 239340, Note_on_c, 14, 49, 100
26, 239369, Note_on_c, 14, 49, 0
26, 239370, Note_on_c, 14, 47, 100
26, 239399, Note_on_c, 14, 47, 0
26, 239400, Note_on_c, 14, 45, 100
26, 239459, Note_on_c, 14, 45, 0
26, 239460, Note_on_c, 14, 57, 100
26, 239519, Note_on_c, 14, 57, 0
26, 239520, Note_on_c, 14, 45, 100
26, 239579, Note_on_c, 14, 45, 0
26, 239580, Note_on_c, 14, 38, 100
26, 239609, Note_on_c, 14, 38, 0
26, 239610, Note_on_c, 14, 50, 100
26, 239639, Note_on_c, 14, 50, 0
26, 239640, Note_on_c, 14, 49, 100
26, 239669, Note_on_c, 14, 49, 0
26, 239670, Note_on_c, 14, 47, 100
26, 239699, Note_on_c, 14, 47, 0
26, 239700, Note_on_c, 14, 45, 100
26, 239729, Note_on_c, 14, 45, 0
26, 239730, Note_on_c, 14, 43, 100
26, 239759, Note_on_c, 14, 43, 0
26, 239760, Note_on_c, 14, 42, 100
26, 239789, Note_on_c, 14, 42, 0
26, 239790, Note_on_c, 14, 45, 100
26, 239819, Note_on_c, 14, 45, 0
26, 239820, Note_on_c, 14, 43, 100
26, 239849, Note_on_c, 14, 43, 0
26, 239850, Note_on_c, 14, 42, 100
26, 239879, Note_on_c, 14, 42, 0
26, 239880, Note_on_c, 14, 40, 100
26, 239909, Note_on_c, 14, 40, 0
26, 239910, Note_on_c, 14, 38, 100
26, 239939, Note_on_c, 14, 38, 0
26, 239940, Note_on_c, 14, 45, 100
26, 239999, Note_on_c, 14, 45, 0
26, 240000, Note_on_c, 14, 57, 100
26, 240059, Note_on_c, 14, 57, 0
26, 240060, Note_on_c, 14, 45, 100
26, 240119, Note_on_c, 14, 45, 0
26, 240120, Note_on_c, 14, 45, 100
26, 240179, Note_on_c, 14, 45, 0
26, 240180, Note_on_c, 14, 57, 100
26, 240239, Note_on_c, 14, 57, 0
26, 240240, Note_on_c, 14, 45, 100
26, 240299, Note_on_c, 14, 45, 0
26, 240300, Note_on_c, 14, 45, 100
26, 240359, Note_on_c, 14, 45, 0
26, 240360, Note_on_c, 14, 57, 100
26, 240419, Note_on_c, 14, 57, 0
26, 240420, Note_on_c, 14, 45, 100
26, 240479, Note_on_c, 14, 45, 0
26, 240480, Note_on_c, 14, 45, 100
26, 240539, Note_on_c, 14, 45, 0
26, 240540, Note_on_c, 14, 57, 100
26, 240599, Note_on_c, 14, 57, 0
26, 240600, Note_on_c, 14, 45, 100
26, 240659, Note_on_c, 14, 45, 0
26, 240660, Note_on_c, 14, 45, 100
26, 240719, Note_on_c, 14, 45, 0
26, 240720, Note_on_c, 14, 57, 100
26, 240779, Note_on_c, 14, 57, 0
26, 240780, Note_on_c, 14, 45, 100
26, 240839, Note_on_c, 14, 45, 0
26, 240840, Note_on_c, 14, 45, 100
26, 240899, Note_on_c, 14, 45, 0
26, 240900, Note_on_c, 14, 49, 100
26, 240959, Note_on_c, 14, 49, 0
26, 240960, Note_on_c, 14, 50, 100
26, 241019, Note_on_c, 14, 50, 0
26, 241020, Note_on_c, 14, 42, 100
26, 241079, Note_on_c, 14, 42, 0
26, 241080, Note_on_c, 14, 45, 100
26, 241139, Note_on_c, 14, 45, 0
26, 241140, Note_on_c, 14, 45, 100
26, 241199, Note_on_c, 14, 45, 0
26, 241200, Note_on_c, 14, 38, 100
26, 241229, Note_on_c, 14, 38, 0
26, 241230, Note_on_c, 14, 45, 100
26, 241259, Note_on_c, 14, 45, 0
26, 241260, Note_on_c, 14, 50, 100
26, 241289, Note_on_c, 14, 50, 0
26, 241290, Note_on_c, 14, 49, 100
26, 241319, Note_on_c, 14, 49, 0
26, 241320, Note_on_c, 14, 50, 100
26, 241349, Note_on_c, 14, 50, 0
26, 241350, Note_on_c, 14, 52, 100
26, 241379, Note_on_c, 14, 52, 0
26, 241380, Note_on_c, 14, 54, 100
26, 241409, Note_on_c, 14, 54, 0
26, 241410, Note_on_c, 14, 52, 100
26, 241439, Note_on_c, 14, 52, 0
26, 241440, Note_on_c, 14, 54, 100
26, 241469, Note_on_c, 14, 54, 0
26, 241470, Note_on_c, 14, 55, 100
26, 241499, Note_on_c, 14, 55, 0
26, 241500, Note_on_c, 14, 57, 100
26, 241529, Note_on_c, 14, 57, 0
26, 241530, Note_on_c, 14, 55, 100
26, 241559, Note_on_c, 14, 55, 0
26, 241560, Note_on_c, 14, 54, 100
26, 241589, Note_on_c, 14, 54, 0
26, 241590, Note_on_c, 14, 55, 100
26, 241619, Note_on_c, 14, 55, 0
26, 241620, Note_on_c, 14, 54, 100
26, 241649, Note_on_c, 14, 54, 0
26, 241650, Note_on_c, 14, 55, 100
26, 241679, Note_on_c, 14, 55, 0
26, 241680, Note_on_c, 14, 57, 100
26, 241709, Note_on_c, 14, 57, 0
26, 241710, Note_on_c, 14, 54, 100
26, 241739, Note_on_c, 14, 54, 0
26, 241740, Note_on_c, 14, 55, 100
26, 241799, Note_on_c, 14, 55, 0
26, 241800, Note_on_c, 14, 52, 100
26, 241859, Note_on_c, 14, 52, 0
26, 241860, Note_on_c, 14, 57, 100
26, 241919, Note_on_c, 14, 57, 0
26, 241920, Note_on_c, 14, 50, 100
26, 241949, Note_on_c, 14, 50, 0
26, 241950, Note_on_c, 14, 52, 100
26, 241979, Note_on_c, 14, 52, 0
26, 241980, Note_on_c, 14, 50, 100
26, 242009, Note_on_c, 14, 50, 0
26, 242010, Note_on_c, 14, 52, 100
26, 242039, Note_on_c, 14, 52, 0
26, 242040, Note_on_c, 14, 54, 100
26, 242069, Note_on_c, 14, 54, 0
26, 242070, Note_on_c, 14, 52, 100
26, 242099, Note_on_c, 14, 52, 0
26, 242100, Note_on_c, 14, 50, 100
26, 242129, Note_on_c, 14, 50, 0
26, 242130, Note_on_c, 14, 49, 100
26, 242159, Note_on_c, 14, 49, 0
26, 242160, Note_on_c, 14, 50, 100
26, 242219, Note_on_c, 14, 50, 0
26, 242220, Note_on_c, 14, 38, 100
26, 242279, Note_on_c, 14, 38, 0
26, 242280, Note_on_c, 14, 38, 100
26, 242339, Note_on_c, 14, 38, 0
26, 242340, Note_on_c, 14, 50, 100
26, 242399, Note_on_c, 14, 50, 0
26, 242400, Note_on_c, 14, 38, 100
26, 242459, Note_on_c, 14, 38, 0
26, 242460, Note_on_c, 14, 38, 100
26, 242519, Note_on_c, 14, 38, 0
26, 242520, Note_on_c, 14, 50, 100
26, 242579, Note_on_c, 14, 50, 0
26, 242580, Note_on_c, 14, 38, 100
26, 242639, Note_on_c, 14, 38, 0
26, 242640, Note_on_c, 14, 38, 100
26, 242699, Note_on_c, 14, 38, 0
26, 242700, Note_on_c, 14, 50, 100
26, 242759, Note_on_c, 14, 50, 0
26, 242760, Note_on_c, 14, 38, 100
26, 242819, Note_on_c, 14, 38, 0
26, 242820, Note_on_c, 14, 50, 100
26, 242849, Note_on_c, 14, 50, 0
26, 242850, Note_on_c, 14, 52, 100
26, 242879, Note_on_c, 14, 52, 0
26, 242880, Note_on_c, 14, 54, 100
26, 242909, Note_on_c, 14, 54, 0
26, 242910, Note_on_c, 14, 55, 100
26, 242939, Note_on_c, 14, 55, 0
26, 242940, Note_on_c, 14, 57, 100
26, 242969, Note_on_c, 14, 57, 0
26, 242970, Note_on_c, 14, 55, 100
26, 242999, Note_on_c, 14, 55, 0
26, 243000, Note_on_c, 14, 54, 100
26, 243029, Note_on_c, 14, 54, 0
26, 243030, Note_on_c, 14, 55, 100
26, 243059, Note_on_c, 14, 55, 0
26, 243060, Note_on_c, 14, 54, 100
26, 243089, Note_on_c, 14, 54, 0
26, 243090, Note_on_c, 14, 55, 100
26, 243119, Note_on_c, 14, 55, 0
26, 243120, Note_on_c, 14, 57, 100
26, 243149, Note_on_c, 14, 57, 0
26, 243150, Note_on_c, 14, 54, 100
26, 243179, Note_on_c, 14, 54, 0
26, 243180, Note_on_c, 14, 55, 100
26, 243239, Note_on_c, 14, 55, 0
26, 243240, Note_on_c, 14, 52, 100
26, 243299, Note_on_c, 14, 52, 0
26, 243300, Note_on_c, 14, 57, 100
26, 243359, Note_on_c, 14, 57, 0
26, 243360, Note_on_c, 14, 50, 100
26, 243389, Note_on_c, 14, 50, 0
26, 243390, Note_on_c, 14, 52, 100
26, 243419, Note_on_c, 14, 52, 0
26, 243420, Note_on_c, 14, 50, 100
26, 243449, Note_on_c, 14, 50, 0
26, 243450, Note_on_c, 14, 52, 100
26, 243479, Note_on_c, 14, 52, 0
26, 243480, Note_on_c, 14, 54, 100
26, 243509, Note_on_c, 14, 54, 0
26, 243510, Note_on_c, 14, 52, 100
26, 243539, Note_on_c, 14, 52, 0
26, 243540, Note_on_c, 14, 50, 100
26, 243569, Note_on_c, 14, 50, 0
26, 243570, Note_on_c, 14, 52, 100
26, 243599, Note_on_c, 14, 52, 0
26, 243600, Note_on_c, 14, 50, 100
26, 243629, Note_on_c, 14, 50, 0
26, 243630, Note_on_c, 14, 52, 100
26, 243659, Note_on_c, 14, 52, 0
26, 243660, Note_on_c, 14, 54, 100
26, 243689, Note_on_c, 14, 54, 0
26, 243690, Note_on_c, 14, 50, 100
26, 243719, Note_on_c, 14, 50, 0
26, 243720, Note_on_c, 14, 55, 100
26, 243749, Note_on_c, 14, 55, 0
26, 243750, Note_on_c, 14, 54, 100
26, 243779, Note_on_c, 14, 54, 0
26, 243780, Note_on_c, 14, 55, 100
26, 243809, Note_on_c, 14, 55, 0
26, 243810, Note_on_c, 14, 57, 100
26, 243839, Note_on_c, 14, 57, 0
26, 243840, Note_on_c, 14, 55, 100
26, 243869, Note_on_c, 14, 55, 0
26, 243870, Note_on_c, 14, 54, 100
26, 243899, Note_on_c, 14, 54, 0
26, 243900, Note_on_c, 14, 52, 100
26, 243929, Note_on_c, 14, 52, 0
26, 243930, Note_on_c, 14, 54, 100
26, 243959, Note_on_c, 14, 54, 0
26, 243960, Note_on_c, 14, 52, 100
26, 243989, Note_on_c, 14, 52, 0
26, 243990, Note_on_c, 14, 54, 100
26, 244019, Note_on_c, 14, 54, 0
26, 244020, Note_on_c, 14, 56, 100
26, 244049, Note_on_c, 14, 56, 0
26, 244050, Note_on_c, 14, 52, 100
26, 244079, Note_on_c, 14, 52, 0
26, 244080, Note_on_c, 14, 57, 100
26, 244109, Note_on_c, 14, 57, 0
26, 244110, Note_on_c, 14, 59, 100
26, 244139, Note_on_c, 14, 59, 0
26, 244140, Note_on_c, 14, 57, 100
26, 244169, Note_on_c, 14, 57, 0
26, 244170, Note_on_c, 14, 56, 100
26, 244199, Note_on_c, 14, 56, 0
26, 244200, Note_on_c, 14, 54, 100
26, 244229, Note_on_c, 14, 54, 0
26, 244230, Note_on_c, 14, 52, 100
26, 244259, Note_on_c, 14, 52, 0
26, 244260, Note_on_c, 14, 50, 100
26, 244289, Note_on_c, 14, 50, 0
26, 244290, Note_on_c, 14, 52, 100
26, 244319, Note_on_c, 14, 52, 0
26, 244320, Note_on_c, 14, 50, 100
26, 244349, Note_on_c, 14, 50, 0
26, 244350, Note_on_c, 14, 49, 100
26, 244379, Note_on_c, 14, 49, 0
26, 244380, Note_on_c, 14, 47, 100
26, 244409, Note_on_c, 14, 47, 0
26, 244410, Note_on_c, 14, 45, 100
26, 244439, Note_on_c, 14, 45, 0
26, 244440, Note_on_c, 14, 44, 100
26, 244469, Note_on_c, 14, 44, 0
26, 244470, Note_on_c, 14, 57, 100
26, 244499, Note_on_c, 14, 57, 0
26, 244500, Note_on_c, 14, 56, 100
26, 244529, Note_on_c, 14, 56, 0
26, 244530, Note_on_c, 14, 54, 100
26, 244559, Note_on_c, 14, 54, 0
26, 244560, Note_on_c, 14, 52, 100
26, 244589, Note_on_c, 14, 52, 0
26, 244590, Note_on_c, 14, 50, 100
26, 244619, Note_on_c, 14, 50, 0
26, 244620, Note_on_c, 14, 49, 100
26, 244649, Note_on_c, 14, 49, 0
26, 244650, Note_on_c, 14, 50, 100
26, 244679, Note_on_c, 14, 50, 0
26, 244680, Note_on_c, 14, 49, 100
26, 244709, Note_on_c, 14, 49, 0
26, 244710, Note_on_c, 14, 47, 100
26, 244739, Note_on_c, 14, 47, 0
26, 244740, Note_on_c, 14, 45, 100
26, 244769, Note_on_c, 14, 45, 0
26, 244770, Note_on_c, 14, 44, 100
26, 244799, Note_on_c, 14, 44, 0
26, 244800, Note_on_c, 14, 42, 100
26, 244829, Note_on_c, 14, 42, 0
26, 244830, Note_on_c, 14, 56, 100
26, 244859, Note_on_c, 14, 56, 0
26, 244860, Note_on_c, 14, 54, 100
26, 244889, Note_on_c, 14, 54, 0
26, 244890, Note_on_c, 14, 52, 100
26, 244919, Note_on_c, 14, 52, 0
26, 244920, Note_on_c, 14, 50, 100
26, 244949, Note_on_c, 14, 50, 0
26, 244950, Note_on_c, 14, 49, 100
26, 244979, Note_on_c, 14, 49, 0
26, 244980, Note_on_c, 14, 47, 100
26, 245009, Note_on_c, 14, 47, 0
26, 245010, Note_on_c, 14, 49, 100
26, 245039, Note_on_c, 14, 49, 0
26, 245040, Note_on_c, 14, 47, 100
26, 245069, Note_on_c, 14, 47, 0
26, 245070, Note_on_c, 14, 45, 100
26, 245099, Note_on_c, 14, 45, 0
26, 245100, Note_on_c, 14, 44, 100
26, 245129, Note_on_c, 14, 44, 0
26, 245130, Note_on_c, 14, 42, 100
26, 245159, Note_on_c, 14, 42, 0
26, 245160, Note_on_c, 14, 40, 100
26, 245189, Note_on_c, 14, 40, 0
26, 245190, Note_on_c, 14, 54, 100
26, 245219, Note_on_c, 14, 54, 0
26, 245220, Note_on_c, 14, 52, 100
26, 245249, Note_on_c, 14, 52, 0
26, 245250, Note_on_c, 14, 50, 100
26, 245279, Note_on_c, 14, 50, 0
26, 245280, Note_on_c, 14, 49, 100
26, 245309, Note_on_c, 14, 49, 0
26, 245310, Note_on_c, 14, 47, 100
26, 245339, Note_on_c, 14, 47, 0
26, 245340, Note_on_c, 14, 45, 100
26, 245369, Note_on_c, 14, 45, 0
26, 245370, Note_on_c, 14, 57, 100
26, 245399, Note_on_c, 14, 57, 0
26, 245400, Note_on_c, 14, 56, 100
26, 245429, Note_on_c, 14, 56, 0
26, 245430, Note_on_c, 14, 54, 100
26, 245459, Note_on_c, 14, 54, 0
26, 245460, Note_on_c, 14, 52, 100
26, 245489, Note_on_c, 14, 52, 0
26, 245490, Note_on_c, 14, 50, 100
26, 245519, Note_on_c, 14, 50, 0
26, 245520, Note_on_c, 14, 49, 100
26, 245549, Note_on_c, 14, 49, 0
26, 245550, Note_on_c, 14, 52, 100
26, 245579, Note_on_c, 14, 52, 0
26, 245580, Note_on_c, 14, 50, 100
26, 245609, Note_on_c, 14, 50, 0
26, 245610, Note_on_c, 14, 49, 100
26, 245639, Note_on_c, 14, 49, 0
26, 245640, Note_on_c, 14, 47, 100
26, 245669, Note_on_c, 14, 47, 0
26, 245670, Note_on_c, 14, 45, 100
26, 245699, Note_on_c, 14, 45, 0
26, 245700, Note_on_c, 14, 40, 100
26, 245759, Note_on_c, 14, 40, 0
26, 245760, Note_on_c, 14, 52, 100
26, 245819, Note_on_c, 14, 52, 0
26, 245820, Note_on_c, 14, 40, 100
26, 245879, Note_on_c, 14, 40, 0
26, 245880, Note_on_c, 14, 40, 100
26, 245939, Note_on_c, 14, 40, 0
26, 245940, Note_on_c, 14, 52, 100
26, 245999, Note_on_c, 14, 52, 0
26, 246000, Note_on_c, 14, 40, 100
26, 246059, Note_on_c, 14, 40, 0
26, 246060, Note_on_c, 14, 40, 100
26, 246119, Note_on_c, 14, 40, 0
26, 246120, Note_on_c, 14, 52, 100
26, 246179, Note_on_c, 14, 52, 0
26, 246180, Note_on_c, 14, 40, 100
26, 246239, Note_on_c, 14, 40, 0
26, 246240, Note_on_c, 14, 40, 100
26, 246299, Note_on_c, 14, 40, 0
26, 246300, Note_on_c, 14, 52, 100
26, 246359, Note_on_c, 14, 52, 0
26, 246360, Note_on_c, 14, 40, 100
26, 246419, Note_on_c, 14, 40, 0
26, 246420, Note_on_c, 14, 40, 100
26, 246479, Note_on_c, 14, 40, 0
26, 246480, Note_on_c, 14, 52, 100
26, 246539, Note_on_c, 14, 52, 0
26, 246540, Note_on_c, 14, 40, 100
26, 246599, Note_on_c, 14, 40, 0
26, 246600, Note_on_c, 14, 40, 100
26, 246659, Note_on_c, 14, 40, 0
26, 246660, Note_on_c, 14, 52, 100
26, 246719, Note_on_c, 14, 52, 0
26, 246720, Note_on_c, 14, 50, 100
26, 246779, Note_on_c, 14, 50, 0
26, 246780, Note_on_c, 14, 49, 100
26, 246809, Note_on_c, 14, 49, 0
26, 246810, Note_on_c, 14, 50, 100
26, 246839, Note_on_c, 14, 50, 0
26, 246840, Note_on_c, 14, 49, 100
26, 246869, Note_on_c, 14, 49, 0
26, 246870, Note_on_c, 14, 50, 100
26, 246899, Note_on_c, 14, 50, 0
26, 246900, Note_on_c, 14, 52, 100
26, 246929, Note_on_c, 14, 52, 0
26, 246930, Note_on_c, 14, 50, 100
26, 246959, Note_on_c, 14, 50, 0
26, 246960, Note_on_c, 14, 49, 100
26, 247019, Note_on_c, 14, 49, 0
26, 247020, Note_on_c, 14, 54, 100
26, 247079, Note_on_c, 14, 54, 0
26, 247080, Note_on_c, 14, 50, 100
26, 247139, Note_on_c, 14, 50, 0
26, 247140, Note_on_c, 14, 52, 100
26, 247199, Note_on_c, 14, 52, 0
26, 247200, Note_on_c, 14, 40, 100
26, 247259, Note_on_c, 14, 40, 0
26, 247260, Note_on_c, 14, 52, 100
26, 247319, Note_on_c, 14, 52, 0
26, 247320, Note_on_c, 14, 49, 100
26, 247379, Note_on_c, 14, 49, 0
26, 247380, Note_on_c, 14, 49, 100
26, 247439, Note_on_c, 14, 49, 0
26, 247440, Note_on_c, 14, 49, 100
26, 247499, Note_on_c, 14, 49, 0
26, 247500, Note_on_c, 14, 49, 100
26, 247559, Note_on_c, 14, 49, 0
26, 247560, Note_on_c, 14, 49, 100
26, 247619, Note_on_c, 14, 49, 0
26, 247620, Note_on_c, 14, 49, 100
26, 247679, Note_on_c, 14, 49, 0
26, 247680, Note_on_c, 14, 50, 100
26, 247739, Note_on_c, 14, 50, 0
26, 247740, Note_on_c, 14, 50, 100
26, 247799, Note_on_c, 14, 50, 0
26, 247800, Note_on_c, 14, 50, 100
26, 247859, Note_on_c, 14, 50, 0
26, 247860, Note_on_c, 14, 50, 100
26, 247919, Note_on_c, 14, 50, 0
26, 247920, Note_on_c, 14, 50, 100
26, 247979, Note_on_c, 14, 50, 0
26, 247980, Note_on_c, 14, 50, 100
26, 248039, Note_on_c, 14, 50, 0
26, 248040, Note_on_c, 14, 47, 100
26, 248099, Note_on_c, 14, 47, 0
26, 248100, Note_on_c, 14, 47, 100
26, 248159, Note_on_c, 14, 47, 0
26, 248160, Note_on_c, 14, 47, 100
26, 248219, Note_on_c, 14, 47, 0
26, 248220, Note_on_c, 14, 45, 100
26, 248279, Note_on_c, 14, 45, 0
26, 248280, Note_on_c, 14, 49, 100
26, 248339, Note_on_c, 14, 49, 0
26, 248340, Note_on_c, 14, 50, 100
26, 248399, Note_on_c, 14, 50, 0
26, 248400, Note_on_c, 14, 52, 100
26, 248459, Note_on_c, 14, 52, 0
26, 248460, Note_on_c, 14, 50, 100
26, 248519, Note_on_c, 14, 50, 0
26, 248520, Note_on_c, 14, 52, 100
26, 248579, Note_on_c, 14, 52, 0
26, 248580, Note_on_c, 14, 45, 100
26, 248609, Note_on_c, 14, 45, 0
26, 248610, Note_on_c, 14, 57, 100
26, 248639, Note_on_c, 14, 57, 0
26, 248640, Note_on_c, 14, 56, 100
26, 248669, Note_on_c, 14, 56, 0
26, 248670, Note_on_c, 14, 54, 100
26, 248699, Note_on_c, 14, 54, 0
26, 248700, Note_on_c, 14, 52, 100
26, 248729, Note_on_c, 14, 52, 0
26, 248730, Note_on_c, 14, 50, 100
26, 248759, Note_on_c, 14, 50, 0
26, 248760, Note_on_c, 14, 49, 100
26, 248819, Note_on_c, 14, 49, 0
26, 248820, Note_on_c, 14, 47, 100
26, 248879, Note_on_c, 14, 47, 0
26, 248880, Note_on_c, 14, 45, 100
26, 248939, Note_on_c, 14, 45, 0
26, 248940, Note_on_c, 14, 49, 100
26, 248999, Note_on_c, 14, 49, 0
26, 249000, Note_on_c, 14, 47, 100
26, 249059, Note_on_c, 14, 47, 0
26, 249060, Note_on_c, 14, 45, 100
26, 249119, Note_on_c, 14, 45, 0
26, 249120, Note_on_c, 14, 40, 100
26, 249179, Note_on_c, 14, 40, 0
26, 249180, Note_on_c, 14, 52, 100
26, 249239, Note_on_c, 14, 52, 0
26, 249240, Note_on_c, 14, 40, 100
26, 249299, Note_on_c, 14, 40, 0
26, 249300, Note_on_c, 14, 40, 100
26, 249359, Note_on_c, 14, 40, 0
26, 249360, Note_on_c, 14, 52, 100
26, 249419, Note_on_c, 14, 52, 0
26, 249420, Note_on_c, 14, 40, 100
26, 249479, Note_on_c, 14, 40, 0
26, 249480, Note_on_c, 14, 45, 100
26, 249539, Note_on_c, 14, 45, 0
26, 249540, Note_on_c, 14, 50, 100
26, 249599, Note_on_c, 14, 50, 0
26, 249600, Note_on_c, 14, 47, 100
26, 249659, Note_on_c, 14, 47, 0
26, 249660, Note_on_c, 14, 52, 100
26, 249719, Note_on_c, 14, 52, 0
26, 249720, Note_on_c, 14, 40, 100
26, 249779, Note_on_c, 14, 40, 0
26, 249780, Note_on_c, 14, 52, 100
26, 249839, Note_on_c, 14, 52, 0
26, 249840, Note_on_c, 14, 57, 100
26, 249899, Note_on_c, 14, 57, 0
26, 249900, Note_on_c, 14, 50, 100
26, 249959, Note_on_c, 14, 50, 0
26, 249960, Note_on_c, 14, 52, 100
26, 250019, Note_on_c, 14, 52, 0
26, 250020, Note_on_c, 14, 45, 100
26, 250049, Note_on_c, 14, 45, 0
26, 250050, Note_on_c, 14, 47, 100
26, 250079, Note_on_c, 14, 47, 0
26, 250080, Note_on_c, 14, 45, 100
26, 250109, Note_on_c, 14, 45, 0
26, 250110, Note_on_c, 14, 47, 100
26, 250139, Note_on_c, 14, 47, 0
26, 250140, Note_on_c, 14, 49, 100
26, 250169, Note_on_c, 14, 49, 0
26, 250170, Note_on_c, 14, 47, 100
26, 250199, Note_on_c, 14, 47, 0
26, 250200, Note_on_c, 14, 45, 100
26, 250259, Note_on_c, 14, 45, 0
26, 250260, Note_on_c, 14, 57, 100
26, 250319, Note_on_c, 14, 57, 0
26, 250320, Note_on_c, 14, 55, 100
26, 250379, Note_on_c, 14, 55, 0
26, 250380, Note_on_c, 14, 54, 100
26, 250439, Note_on_c, 14, 54, 0
26, 250440, Note_on_c, 14, 52, 100
26, 250499, Note_on_c, 14, 52, 0
26, 250500, Note_on_c, 14, 54, 100
26, 250559, Note_on_c, 14, 54, 0
26, 250560, Note_on_c, 14, 43, 100
26, 250619, Note_on_c, 14, 43, 0
26, 250620, Note_on_c, 14, 55, 100
26, 250679, Note_on_c, 14, 55, 0
26, 250680, Note_on_c, 14, 54, 100
26, 250739, Note_on_c, 14, 54, 0
26, 250740, Note_on_c, 14, 52, 100
26, 250799, Note_on_c, 14, 52, 0
26, 250800, Note_on_c, 14, 49, 100
26, 250859, Note_on_c, 14, 49, 0
26, 250860, Note_on_c, 14, 52, 100
26, 250919, Note_on_c, 14, 52, 0
26, 250920, Note_on_c, 14, 42, 100
26, 250979, Note_on_c, 14, 42, 0
26, 250980, Note_on_c, 14, 54, 100
26, 251039, Note_on_c, 14, 54, 0
26, 251040, Note_on_c, 14, 52, 100
26, 251099, Note_on_c, 14, 52, 0
26, 251100, Note_on_c, 14, 50, 100
26, 251159, Note_on_c, 14, 50, 0
26, 251160, Note_on_c, 14, 47, 100
26, 251219, Note_on_c, 14, 47, 0
26, 251220, Note_on_c, 14, 50, 100
26, 251279, Note_on_c, 14, 50, 0
26, 251280, Note_on_c, 14, 40, 100
26, 251339, Note_on_c, 14, 40, 0
26, 251340, Note_on_c, 14, 42, 100
26, 251399, Note_on_c, 14, 42, 0
26, 251400, Note_on_c, 14, 43, 100
26, 251459, Note_on_c, 14, 43, 0
26, 251460, Note_on_c, 14, 42, 100
26, 251519, Note_on_c, 14, 42, 0
26, 251520, Note_on_c, 14, 42, 100
26, 251579, Note_on_c, 14, 42, 0
26, 251580, Note_on_c, 14, 42, 100
26, 251639, Note_on_c, 14, 42, 0
26, 251640, Note_on_c, 14, 42, 100
26, 251699, Note_on_c, 14, 42, 0
26, 251700, Note_on_c, 14, 42, 100
26, 251759, Note_on_c, 14, 42, 0
26, 251760, Note_on_c, 14, 42, 100
26, 251819, Note_on_c, 14, 42, 0
26, 251820, Note_on_c, 14, 42, 100
26, 251879, Note_on_c, 14, 42, 0
26, 251880, Note_on_c, 14, 42, 100
26, 251939, Note_on_c, 14, 42, 0
26, 251940, Note_on_c, 14, 42, 100
26, 251999, Note_on_c, 14, 42, 0
26, 252000, Note_on_c, 14, 42, 100
26, 252059, Note_on_c, 14, 42, 0
26, 252060, Note_on_c, 14, 42, 100
26, 252119, Note_on_c, 14, 42, 0
26, 252120, Note_on_c, 14, 42, 100
26, 252179, Note_on_c, 14, 42, 0
26, 252180, Note_on_c, 14, 42, 100
26, 252239, Note_on_c, 14, 42, 0
26, 252240, Note_on_c, 14, 54, 100
26, 252299, Note_on_c, 14, 54, 0
26, 252300, Note_on_c, 14, 52, 100
26, 252359, Note_on_c, 14, 52, 0
26, 252360, Note_on_c, 14, 50, 100
26, 252389, Note_on_c, 14, 50, 0
26, 252390, Note_on_c, 14, 52, 100
26, 252419, Note_on_c, 14, 52, 0
26, 252420, Note_on_c, 14, 50, 100
26, 252449, Note_on_c, 14, 50, 0
26, 252450, Note_on_c, 14, 52, 100
26, 252479, Note_on_c, 14, 52, 0
26, 252480, Note_on_c, 14, 54, 100
26, 252509, Note_on_c, 14, 54, 0
26, 252510, Note_on_c, 14, 52, 100
26, 252539, Note_on_c, 14, 52, 0
26, 252540, Note_on_c, 14, 50, 100
26, 252569, Note_on_c, 14, 50, 0
26, 252570, Note_on_c, 14, 52, 100
26, 252599, Note_on_c, 14, 52, 0
26, 252600, Note_on_c, 14, 50, 100
26, 252629, Note_on_c, 14, 50, 0
26, 252630, Note_on_c, 14, 52, 100
26, 252659, Note_on_c, 14, 52, 0
26, 252660, Note_on_c, 14, 54, 100
26, 252689, Note_on_c, 14, 54, 0
26, 252690, Note_on_c, 14, 50, 100
26, 252719, Note_on_c, 14, 50, 0
26, 252720, Note_on_c, 14, 51, 100
26, 252749, Note_on_c, 14, 51, 0
26, 252750, Note_on_c, 14, 52, 100
26, 252779, Note_on_c, 14, 52, 0
26, 252780, Note_on_c, 14, 51, 100
26, 252809, Note_on_c, 14, 51, 0
26, 252810, Note_on_c, 14, 52, 100
26, 252839, Note_on_c, 14, 52, 0
26, 252840, Note_on_c, 14, 54, 100
26, 252869, Note_on_c, 14, 54, 0
26, 252870, Note_on_c, 14, 52, 100
26, 252899, Note_on_c, 14, 52, 0
26, 252900, Note_on_c, 14, 51, 100
26, 252929, Note_on_c, 14, 51, 0
26, 252930, Note_on_c, 14, 52, 100
26, 252959, Note_on_c, 14, 52, 0
26, 252960, Note_on_c, 14, 51, 100
26, 252989, Note_on_c, 14, 51, 0
26, 252990, Note_on_c, 14, 52, 100
26, 253019, Note_on_c, 14, 52, 0
26, 253020, Note_on_c, 14, 54, 100
26, 253049, Note_on_c, 14, 54, 0
26, 253050, Note_on_c, 14, 51, 100
26, 253079, Note_on_c, 14, 51, 0
26, 253080, Note_on_c, 14, 52, 100
26, 253109, Note_on_c, 14, 52, 0
26, 253110, Note_on_c, 14, 54, 100
26, 253139, Note_on_c, 14, 54, 0
26, 253140, Note_on_c, 14, 52, 100
26, 253169, Note_on_c, 14, 52, 0
26, 253170, Note_on_c, 14, 54, 100
26, 253199, Note_on_c, 14, 54, 0
26, 253200, Note_on_c, 14, 55, 100
26, 253229, Note_on_c, 14, 55, 0
26, 253230, Note_on_c, 14, 52, 100
26, 253259, Note_on_c, 14, 52, 0
26, 253260, Note_on_c, 14, 54, 100
26, 253319, Note_on_c, 14, 54, 0
26, 253320, Note_on_c, 14, 46, 100
26, 253379, Note_on_c, 14, 46, 0
26, 253380, Note_on_c, 14, 47, 100
26, 253439, Note_on_c, 14, 47, 0
26, 253440, Note_on_c, 14, 40, 100
26, 253499, Note_on_c, 14, 40, 0
26, 253500, Note_on_c, 14, 42, 100
26, 253559, Note_on_c, 14, 42, 0
26, 253560, Note_on_c, 14, 42, 100
26, 253619, Note_on_c, 14, 42, 0
26, 253620, Note_on_c, 14, 47, 100
26, 253649, Note_on_c, 14, 47, 0
26, 253650, Note_on_c, 14, 49, 100
26, 253679, Note_on_c, 14, 49, 0
26, 253680, Note_on_c, 14, 47, 100
26, 253709, Note_on_c, 14, 47, 0
26, 253710, Note_on_c, 14, 49, 100
26, 253739, Note_on_c, 14, 49, 0
26, 253740, Note_on_c, 14, 50, 100
26, 253769, Note_on_c, 14, 50, 0
26, 253770, Note_on_c, 14, 49, 100
26, 253799, Note_on_c, 14, 49, 0
26, 253800, Note_on_c, 14, 47, 100
26, 253829, Note_on_c, 14, 47, 0
26, 253830, Note_on_c, 14, 49, 100
26, 253859, Note_on_c, 14, 49, 0
26, 253860, Note_on_c, 14, 47, 100
26, 253889, Note_on_c, 14, 47, 0
26, 253890, Note_on_c, 14, 49, 100
26, 253919, Note_on_c, 14, 49, 0
26, 253920, Note_on_c, 14, 51, 100
26, 253949, Note_on_c, 14, 51, 0
26, 253950, Note_on_c, 14, 49, 100
26, 253979, Note_on_c, 14, 49, 0
26, 253980, Note_on_c, 14, 47, 100
26, 254009, Note_on_c, 14, 47, 0
26, 254010, Note_on_c, 14, 49, 100
26, 254039, Note_on_c, 14, 49, 0
26, 254040, Note_on_c, 14, 47, 100
26, 254069, Note_on_c, 14, 47, 0
26, 254070, Note_on_c, 14, 49, 100
26, 254099, Note_on_c, 14, 49, 0
26, 254100, Note_on_c, 14, 51, 100
26, 254129, Note_on_c, 14, 51, 0
26, 254130, Note_on_c, 14, 47, 100
26, 254159, Note_on_c, 14, 47, 0
26, 254160, Note_on_c, 14, 52, 100
26, 254219, Note_on_c, 14, 52, 0
26, 254220, Note_on_c, 14, 47, 100
26, 254279, Note_on_c, 14, 47, 0
26, 254280, Note_on_c, 14, 43, 100
26, 254339, Note_on_c, 14, 43, 0
26, 254340, Note_on_c, 14, 47, 100
26, 254399, Note_on_c, 14, 47, 0
26, 254400, Note_on_c, 14, 43, 100
26, 254459, Note_on_c, 14, 43, 0
26, 254460, Note_on_c, 14, 40, 100
26, 254519, Note_on_c, 14, 40, 0
26, 254520, Note_on_c, 14, 45, 100
26, 254549, Note_on_c, 14, 45, 0
26, 254550, Note_on_c, 14, 47, 100
26, 254579, Note_on_c, 14, 47, 0
26, 254580, Note_on_c, 14, 45, 100
26, 254609, Note_on_c, 14, 45, 0
26, 254610, Note_on_c, 14, 47, 100
26, 254639, Note_on_c, 14, 47, 0
26, 254640, Note_on_c, 14, 49, 100
26, 254669, Note_on_c, 14, 49, 0
26, 254670, Note_on_c, 14, 47, 100
26, 254699, Note_on_c, 14, 47, 0
26, 254700, Note_on_c, 14, 45, 100
26, 254729, Note_on_c, 14, 45, 0
26, 254730, Note_on_c, 14, 47, 100
26, 254759, Note_on_c, 14, 47, 0
26, 254760, Note_on_c, 14, 45, 100
26, 254789, Note_on_c, 14, 45, 0
26, 254790, Note_on_c, 14, 47, 100
26, 254819, Note_on_c, 14, 47, 0
26, 254820, Note_on_c, 14, 49, 100
26, 254849, Note_on_c, 14, 49, 0
26, 254850, Note_on_c, 14, 45, 100
26, 254879, Note_on_c, 14, 45, 0
26, 254880, Note_on_c, 14, 50, 100
26, 254939, Note_on_c, 14, 50, 0
26, 254940, Note_on_c, 14, 45, 100
26, 254999, Note_on_c, 14, 45, 0
26, 255000, Note_on_c, 14, 42, 100
26, 255059, Note_on_c, 14, 42, 0
26, 255060, Note_on_c, 14, 45, 100
26, 255119, Note_on_c, 14, 45, 0
26, 255120, Note_on_c, 14, 42, 100
26, 255179, Note_on_c, 14, 42, 0
26, 255180, Note_on_c, 14, 38, 100
26, 255239, Note_on_c, 14, 38, 0
26, 255240, Note_on_c, 14, 38, 100
26, 255299, Note_on_c, 14, 38, 0
26, 255300, Note_on_c, 14, 50, 100
26, 255359, Note_on_c, 14, 50, 0
26, 255360, Note_on_c, 14, 38, 100
26, 255419, Note_on_c, 14, 38, 0
26, 255420, Note_on_c, 14, 38, 100
26, 255479, Note_on_c, 14, 38, 0
26, 255480, Note_on_c, 14, 50, 100
26, 255539, Note_on_c, 14, 50, 0
26, 255540, Note_on_c, 14, 38, 100
26, 255599, Note_on_c, 14, 38, 0
26, 255600, Note_on_c, 14, 38, 100
26, 255659, Note_on_c, 14, 38, 0
26, 255660, Note_on_c, 14, 50, 100
26, 255719, Note_on_c, 14, 50, 0
26, 255720, Note_on_c, 14, 38, 100
26, 255779, Note_on_c, 14, 38, 0
26, 255780, Note_on_c, 14, 38, 100
26, 255839, Note_on_c, 14, 38, 0
26, 255840, Note_on_c, 14, 50, 100
26, 255899, Note_on_c, 14, 50, 0
26, 255900, Note_on_c, 14, 38, 100
26, 255959, Note_on_c, 14, 38, 0
26, 255960, Note_on_c, 14, 50, 100
26, 255989, Note_on_c, 14, 50, 0
26, 255990, Note_on_c, 14, 52, 100
26, 256019, Note_on_c, 14, 52, 0
26, 256020, Note_on_c, 14, 50, 100
26, 256049, Note_on_c, 14, 50, 0
26, 256050, Note_on_c, 14, 52, 100
26, 256079, Note_on_c, 14, 52, 0
26, 256080, Note_on_c, 14, 54, 100
26, 256109, Note_on_c, 14, 54, 0
26, 256110, Note_on_c, 14, 52, 100
26, 256139, Note_on_c, 14, 52, 0
26, 256140, Note_on_c, 14, 50, 100
26, 256169, Note_on_c, 14, 50, 0
26, 256170, Note_on_c, 14, 52, 100
26, 256199, Note_on_c, 14, 52, 0
26, 256200, Note_on_c, 14, 50, 100
26, 256229, Note_on_c, 14, 50, 0
26, 256230, Note_on_c, 14, 52, 100
26, 256259, Note_on_c, 14, 52, 0
26, 256260, Note_on_c, 14, 54, 100
26, 256289, Note_on_c, 14, 54, 0
26, 256290, Note_on_c, 14, 50, 100
26, 256319, Note_on_c, 14, 50, 0
26, 256320, Note_on_c, 14, 55, 100
26, 256379, Note_on_c, 14, 55, 0
26, 256380, Note_on_c, 14, 52, 100
26, 256439, Note_on_c, 14, 52, 0
26, 256440, Note_on_c, 14, 57, 100
26, 256499, Note_on_c, 14, 57, 0
26, 256500, Note_on_c, 14, 50, 100
26, 256559, Note_on_c, 14, 50, 0
26, 256560, Note_on_c, 14, 49, 100
26, 256619, Note_on_c, 14, 49, 0
26, 256620, Note_on_c, 14, 47, 100
26, 256679, Note_on_c, 14, 47, 0
26, 256680, Note_on_c, 14, 45, 100
26, 256739, Note_on_c, 14, 45, 0
26, 256740, Note_on_c, 14, 57, 100
26, 256799, Note_on_c, 14, 57, 0
26, 256800, Note_on_c, 14, 45, 100
26, 256859, Note_on_c, 14, 45, 0
26, 256860, Note_on_c, 14, 45, 100
26, 256919, Note_on_c, 14, 45, 0
26, 256920, Note_on_c, 14, 57, 100
26, 256979, Note_on_c, 14, 57, 0
26, 256980, Note_on_c, 14, 45, 100
26, 257039, Note_on_c, 14, 45, 0
26, 257040, Note_on_c, 14, 45, 100
26, 257099, Note_on_c, 14, 45, 0
26, 257100, Note_on_c, 14, 57, 100
26, 257159, Note_on_c, 14, 57, 0
26, 257160, Note_on_c, 14, 45, 100
26, 257219, Note_on_c, 14, 45, 0
26, 257220, Note_on_c, 14, 45, 100
26, 257279, Note_on_c, 14, 45, 0
26, 257280, Note_on_c, 14, 57, 100
26, 257339, Note_on_c, 14, 57, 0
26, 257340, Note_on_c, 14, 45, 100
26, 257399, Note_on_c, 14, 45, 0
26, 257400, Note_on_c, 14, 45, 100
26, 257459, Note_on_c, 14, 45, 0
26, 257460, Note_on_c, 14, 57, 100
26, 257519, Note_on_c, 14, 57, 0
26, 257520, Note_on_c, 14, 45, 100
26, 257579, Note_on_c, 14, 45, 0
26, 257580, Note_on_c, 14, 45, 100
26, 257639, Note_on_c, 14, 45, 0
26, 257640, Note_on_c, 14, 49, 100
26, 257699, Note_on_c, 14, 49, 0
26, 257700, Note_on_c, 14, 50, 100
26, 257759, Note_on_c, 14, 50, 0
26, 257760, Note_on_c, 14, 42, 100
26, 257819, Note_on_c, 14, 42, 0
26, 257820, Note_on_c, 14, 45, 100
26, 257879, Note_on_c, 14, 45, 0
26, 257880, Note_on_c, 14, 45, 100
26, 257939, Note_on_c, 14, 45, 0
26, 257940, Note_on_c, 14, 38, 100
26, 257999, Note_on_c, 14, 38, 0
26, 258000, Note_on_c, 14, 50, 100
26, 258059, Note_on_c, 14, 50, 0
26, 258060, Note_on_c, 14, 38, 100
26, 258119, Note_on_c, 14, 38, 0
26, 258120, Note_on_c, 14, 50, 100
26, 258149, Note_on_c, 14, 50, 0
26, 258150, Note_on_c, 14, 52, 100
26, 258179, Note_on_c, 14, 52, 0
26, 258180, Note_on_c, 14, 54, 100
26, 258209, Note_on_c, 14, 54, 0
26, 258210, Note_on_c, 14, 55, 100
26, 258239, Note_on_c, 14, 55, 0
26, 258240, Note_on_c, 14, 57, 100
26, 258269, Note_on_c, 14, 57, 0
26, 258270, Note_on_c, 14, 55, 100
26, 258299, Note_on_c, 14, 55, 0
26, 258300, Note_on_c, 14, 54, 100
26, 258329, Note_on_c, 14, 54, 0
26, 258330, Note_on_c, 14, 55, 100
26, 258359, Note_on_c, 14, 55, 0
26, 258360, Note_on_c, 14, 54, 100
26, 258389, Note_on_c, 14, 54, 0
26, 258390, Note_on_c, 14, 55, 100
26, 258419, Note_on_c, 14, 55, 0
26, 258420, Note_on_c, 14, 57, 100
26, 258449, Note_on_c, 14, 57, 0
26, 258450, Note_on_c, 14, 54, 100
26, 258479, Note_on_c, 14, 54, 0
26, 258480, Note_on_c, 14, 55, 100
26, 258539, Note_on_c, 14, 55, 0
26, 258540, Note_on_c, 14, 52, 100
26, 258599, Note_on_c, 14, 52, 0
26, 258600, Note_on_c, 14, 57, 100
26, 258659, Note_on_c, 14, 57, 0
26, 258660, Note_on_c, 14, 50, 100
26, 258689, Note_on_c, 14, 50, 0
26, 258690, Note_on_c, 14, 52, 100
26, 258719, Note_on_c, 14, 52, 0
26, 258720, Note_on_c, 14, 50, 100
26, 258749, Note_on_c, 14, 50, 0
26, 258750, Note_on_c, 14, 52, 100
26, 258779, Note_on_c, 14, 52, 0
26, 258780, Note_on_c, 14, 54, 100
26, 258809, Note_on_c, 14, 54, 0
26, 258810, Note_on_c, 14, 52, 100
26, 258839, Note_on_c, 14, 52, 0
26, 258840, Note_on_c, 14, 50, 100
26, 258869, Note_on_c, 14, 50, 0
26, 258870, Note_on_c, 14, 52, 100
26, 258899, Note_on_c, 14, 52, 0
26, 258900, Note_on_c, 14, 50, 100
26, 258929, Note_on_c, 14, 50, 0
26, 258930, Note_on_c, 14, 52, 100
26, 258959, Note_on_c, 14, 52, 0
26, 258960, Note_on_c, 14, 54, 100
26, 258989, Note_on_c, 14, 54, 0
26, 258990, Note_on_c, 14, 50, 100
26, 259019, Note_on_c, 14, 50, 0
26, 259020, Note_on_c, 14, 55, 100
26, 259049, Note_on_c, 14, 55, 0
26, 259050, Note_on_c, 14, 54, 100
26, 259079, Note_on_c, 14, 54, 0
26, 259080, Note_on_c, 14, 55, 100
26, 259109, Note_on_c, 14, 55, 0
26, 259110, Note_on_c, 14, 57, 100
26, 259139, Note_on_c, 14, 57, 0
26, 259140, Note_on_c, 14, 55, 100
26, 259169, Note_on_c, 14, 55, 0
26, 259170, Note_on_c, 14, 54, 100
26, 259199, Note_on_c, 14, 54, 0
26, 259200, Note_on_c, 14, 52, 100
26, 259229, Note_on_c, 14, 52, 0
26, 259230, Note_on_c, 14, 54, 100
26, 259259, Note_on_c, 14, 54, 0
26, 259260, Note_on_c, 14, 52, 100
26, 259289, Note_on_c, 14, 52, 0
26, 259290, Note_on_c, 14, 54, 100
26, 259319, Note_on_c, 14, 54, 0
26, 259320, Note_on_c, 14, 56, 100
26, 259349, Note_on_c, 14, 56, 0
26, 259350, Note_on_c, 14, 52, 100
26, 259379, Note_on_c, 14, 52, 0
26, 259380, Note_on_c, 14, 57, 100
26, 259409, Note_on_c, 14, 57, 0
26, 259410, Note_on_c, 14, 59, 100
26, 259439, Note_on_c, 14, 59, 0
26, 259440, Note_on_c, 14, 57, 100
26, 259469, Note_on_c, 14, 57, 0
26, 259470, Note_on_c, 14, 59, 100
26, 259499, Note_on_c, 14, 59, 0
26, 259500, Note_on_c, 14, 61, 100
26, 259529, Note_on_c, 14, 61, 0
26, 259530, Note_on_c, 14, 57, 100
26, 259559, Note_on_c, 14, 57, 0
26, 259560, Note_on_c, 14, 54, 100
26, 259619, Note_on_c, 14, 54, 0
26, 259620, Note_on_c, 14, 57, 100
26, 259679, Note_on_c, 14, 57, 0
26, 259680, Note_on_c, 14, 54, 100
26, 259739, Note_on_c, 14, 54, 0
26, 259740, Note_on_c, 14, 51, 100
26, 259799, Note_on_c, 14, 51, 0
26, 259800, Note_on_c, 14, 47, 100
26, 259859, Note_on_c, 14, 47, 0
26, 259860, Note_on_c, 14, 51, 100
26, 259919, Note_on_c, 14, 51, 0
26, 259920, Note_on_c, 14, 52, 100
26, 259979, Note_on_c, 14, 52, 0
26, 259980, Note_on_c, 14, 64, 100
26, 260039, Note_on_c, 14, 64, 0
26, 260040, Note_on_c, 14, 52, 100
26, 260099, Note_on_c, 14, 52, 0
26, 260100, Note_on_c, 14, 52, 100
26, 260159, Note_on_c, 14, 52, 0
26, 260160, Note_on_c, 14, 64, 100
26, 260219, Note_on_c, 14, 64, 0
26, 260220, Note_on_c, 14, 52, 100
26, 260279, Note_on_c, 14, 52, 0
26, 260280, Note_on_c, 14, 52, 100
26, 260339, Note_on_c, 14, 52, 0
26, 260340, Note_on_c, 14, 55, 100
26, 260399, Note_on_c, 14, 55, 0
26, 260400, Note_on_c, 14, 49, 100
26, 260459, Note_on_c, 14, 49, 0
26, 260460, Note_on_c, 14, 49, 100
26, 260519, Note_on_c, 14, 49, 0
26, 260520, Note_on_c, 14, 52, 100
26, 260579, Note_on_c, 14, 52, 0
26, 260580, Note_on_c, 14, 45, 100
26, 260639, Note_on_c, 14, 45, 0
26, 260640, Note_on_c, 14, 50, 100
26, 260699, Note_on_c, 14, 50, 0
26, 260700, Note_on_c, 14, 62, 100
26, 260759, Note_on_c, 14, 62, 0
26, 260760, Note_on_c, 14, 50, 100
26, 260819, Note_on_c, 14, 50, 0
26, 260820, Note_on_c, 14, 50, 100
26, 260879, Note_on_c, 14, 50, 0
26, 260880, Note_on_c, 14, 62, 100
26, 260939, Note_on_c, 14, 62, 0
26, 260940, Note_on_c, 14, 50, 100
26, 260999, Note_on_c, 14, 50, 0
26, 261000, Note_on_c, 14, 43, 100
26, 261029, Note_on_c, 14, 43, 0
26, 261030, Note_on_c, 14, 57, 100
26, 261059, Note_on_c, 14, 57, 0
26, 261060, Note_on_c, 14, 55, 100
26, 261089, Note_on_c, 14, 55, 0
26, 261090, Note_on_c, 14, 54, 100
26, 261119, Note_on_c, 14, 54, 0
26, 261120, Note_on_c, 14, 52, 100
26, 261149, Note_on_c, 14, 52, 0
26, 261150, Note_on_c, 14, 50, 100
26, 261179, Note_on_c, 14, 50, 0
26, 261180, Note_on_c, 14, 49, 100
26, 261239, Note_on_c, 14, 49, 0
26, 261240, Note_on_c, 14, 61, 100
26, 261299, Note_on_c, 14, 61, 0
26, 261300, Note_on_c, 14, 49, 100
26, 261359, Note_on_c, 14, 49, 0
26, 261360, Note_on_c, 14, 42, 100
26, 261389, Note_on_c, 14, 42, 0
26, 261390, Note_on_c, 14, 55, 100
26, 261419, Note_on_c, 14, 55, 0
26, 261420, Note_on_c, 14, 54, 100
26, 261449, Note_on_c, 14, 54, 0
26, 261450, Note_on_c, 14, 52, 100
26, 261479, Note_on_c, 14, 52, 0
26, 261480, Note_on_c, 14, 50, 100
26, 261509, Note_on_c, 14, 50, 0
26, 261510, Note_on_c, 14, 49, 100
26, 261539, Note_on_c, 14, 49, 0
26, 261540, Note_on_c, 14, 47, 100
26, 261599, Note_on_c, 14, 47, 0
26, 261600, Note_on_c, 14, 59, 100
26, 261659, Note_on_c, 14, 59, 0
26, 261660, Note_on_c, 14, 47, 100
26, 261719, Note_on_c, 14, 47, 0
26, 261720, Note_on_c, 14, 40, 100
26, 261749, Note_on_c, 14, 40, 0
26, 261750, Note_on_c, 14, 54, 100
26, 261779, Note_on_c, 14, 54, 0
26, 261780, Note_on_c, 14, 52, 100
26, 261809, Note_on_c, 14, 52, 0
26, 261810, Note_on_c, 14, 50, 100
26, 261839, Note_on_c, 14, 50, 0
26, 261840, Note_on_c, 14, 49, 100
26, 261869, Note_on_c, 14, 49, 0
26, 261870, Note_on_c, 14, 47, 100
26, 261899, Note_on_c, 14, 47, 0
26, 261900, Note_on_c, 14, 45, 100
26, 261959, Note_on_c, 14, 45, 0
26, 261960, Note_on_c, 14, 57, 100
26, 262019, Note_on_c, 14, 57, 0
26, 262020, Note_on_c, 14, 45, 100
26, 262079, Note_on_c, 14, 45, 0
26, 262080, Note_on_c, 14, 38, 100
26, 262109, Note_on_c, 14, 38, 0
26, 262110, Note_on_c, 14, 50, 100
26, 262139, Note_on_c, 14, 50, 0
26, 262140, Note_on_c, 14, 49, 100
26, 262169, Note_on_c, 14, 49, 0
26, 262170, Note_on_c, 14, 47, 100
26, 262199, Note_on_c, 14, 47, 0
26, 262200, Note_on_c, 14, 45, 100
26, 262229, Note_on_c, 14, 45, 0
26, 262230, Note_on_c, 14, 43, 100
26, 262259, Note_on_c, 14, 43, 0
26, 262260, Note_on_c, 14, 42, 100
26, 262289, Note_on_c, 14, 42, 0
26, 262290, Note_on_c, 14, 45, 100
26, 262319, Note_on_c, 14, 45, 0
26, 262320, Note_on_c, 14, 43, 100
26, 262349, Note_on_c, 14, 43, 0
26, 262350, Note_on_c, 14, 42, 100
26, 262379, Note_on_c, 14, 42, 0
26, 262380, Note_on_c, 14, 40, 100
26, 262409, Note_on_c, 14, 40, 0
26, 262410, Note_on_c, 14, 38, 100
26, 262439, Note_on_c, 14, 38, 0
26, 262440, Note_on_c, 14, 45, 100
26, 262499, Note_on_c, 14, 45, 0
26, 262500, Note_on_c, 14, 57, 100
26, 262559, Note_on_c, 14, 57, 0
26, 262560, Note_on_c, 14, 45, 100
26, 262619, Note_on_c, 14, 45, 0
26, 262620, Note_on_c, 14, 45, 100
26, 262679, Note_on_c, 14, 45, 0
26, 262680, Note_on_c, 14, 57, 100
26, 262739, Note_on_c, 14, 57, 0
26, 262740, Note_on_c, 14, 45, 100
26, 262799, Note_on_c, 14, 45, 0
26, 262800, Note_on_c, 14, 45, 100
26, 262859, Note_on_c, 14, 45, 0
26, 262860, Note_on_c, 14, 57, 100
26, 262919, Note_on_c, 14, 57, 0
26, 262920, Note_on_c, 14, 45, 100
26, 262979, Note_on_c, 14, 45, 0
26, 262980, Note_on_c, 14, 45, 100
26, 263039, Note_on_c, 14, 45, 0
26, 263040, Note_on_c, 14, 57, 100
26, 263099, Note_on_c, 14, 57, 0
26, 263100, Note_on_c, 14, 45, 100
26, 263159, Note_on_c, 14, 45, 0
26, 263160, Note_on_c, 14, 45, 100
26, 263219, Note_on_c, 14, 45, 0
26, 263220, Note_on_c, 14, 57, 100
26, 263279, Note_on_c, 14, 57, 0
26, 263280, Note_on_c, 14, 45, 100
26, 263339, Note_on_c, 14, 45, 0
26, 263340, Note_on_c, 14, 45, 100
26, 263399, Note_on_c, 14, 45, 0
26, 263400, Note_on_c, 14, 49, 100
26, 263459, Note_on_c, 14, 49, 0
26, 263460, Note_on_c, 14, 50, 100
26, 263519, Note_on_c, 14, 50, 0
26, 263520, Note_on_c, 14, 42, 100
26, 263579, Note_on_c, 14, 42, 0
26, 263580, Note_on_c, 14, 45, 100
26, 263639, Note_on_c, 14, 45, 0
26, 263640, Note_on_c, 14, 45, 100
26, 263699, Note_on_c, 14, 45, 0
26, 263700, Note_on_c, 14, 50, 100
26, 263729, Note_on_c, 14, 50, 0
26, 263730, Note_on_c, 14, 52, 100
26, 263759, Note_on_c, 14, 52, 0
26, 263760, Note_on_c, 14, 50, 100
26, 263789, Note_on_c, 14, 50, 0
26, 263790, Note_on_c, 14, 49, 100
26, 263819, Note_on_c, 14, 49, 0
26, 263820, Note_on_c, 14, 47, 100
26, 263849, Note_on_c, 14, 47, 0
26, 263850, Note_on_c, 14, 45, 100
26, 263879, Note_on_c, 14, 45, 0
26, 263880, Note_on_c, 14, 43, 100
26, 263909, Note_on_c, 14, 43, 0
26, 263910, Note_on_c, 14, 54, 100
26, 263939, Note_on_c, 14, 54, 0
26, 263940, Note_on_c, 14, 52, 100
26, 263969, Note_on_c, 14, 52, 0
26, 263970, Note_on_c, 14, 50, 100
26, 263999, Note_on_c, 14, 50, 0
26, 264000, Note_on_c, 14, 49, 100
26, 264029, Note_on_c, 14, 49, 0
26, 264030, Note_on_c, 14, 47, 100
26, 264059, Note_on_c, 14, 47, 0
26, 264060, Note_on_c, 14, 45, 100
26, 264089, Note_on_c, 14, 45, 0
26, 264090, Note_on_c, 14, 55, 100
26, 264119, Note_on_c, 14, 55, 0
26, 264120, Note_on_c, 14, 54, 100
26, 264149, Note_on_c, 14, 54, 0
26, 264150, Note_on_c, 14, 52, 100
26, 264179, Note_on_c, 14, 52, 0
26, 264180, Note_on_c, 14, 50, 100
26, 264209, Note_on_c, 14, 50, 0
26, 264210, Note_on_c, 14, 49, 100
26, 264239, Note_on_c, 14, 49, 0
26, 264240, Note_on_c, 14, 47, 100
26, 264299, Note_on_c, 14, 47, 0
26, 264300, Note_on_c, 14, 49, 100
26, 264359, Note_on_c, 14, 49, 0
26, 264360, Note_on_c, 14, 50, 100
26, 264419, Note_on_c, 14, 50, 0
26, 264420, Note_on_c, 14, 52, 100
26, 264479, Note_on_c, 14, 52, 0
26, 264480, Note_on_c, 14, 54, 100
26, 264539, Note_on_c, 14, 54, 0
26, 264540, Note_on_c, 14, 55, 100
26, 264599, Note_on_c, 14, 55, 0
26, 264600, Note_on_c, 14, 57, 100
26, 264659, Note_on_c, 14, 57, 0
26, 264660, Note_on_c, 14, 59, 100
26, 264719, Note_on_c, 14, 59, 0
26, 264720, Note_on_c, 14, 61, 100
26, 264779, Note_on_c, 14, 61, 0
26, 264780, Note_on_c, 14, 62, 100
26, 264839, Note_on_c, 14, 62, 0
26, 264840, Note_on_c, 14, 64, 100
26, 264899, Note_on_c, 14, 64, 0
26, 264900, Note_on_c, 14, 66, 100
26, 264959, Note_on_c, 14, 66, 0
26, 264960, Note_on_c, 14, 67, 100
26, 264989, Note_on_c, 14, 67, 0
26, 264990, Note_on_c, 14, 66, 100
26, 265019, Note_on_c, 14, 66, 0
26, 265020, Note_on_c, 14, 64, 100
26, 265049, Note_on_c, 14, 64, 0
26, 265050, Note_on_c, 14, 62, 100
26, 265079, Note_on_c, 14, 62, 0
26, 265080, Note_on_c, 14, 61, 100
26, 265109, Note_on_c, 14, 61, 0
26, 265110, Note_on_c, 14, 59, 100
26, 265139, Note_on_c, 14, 59, 0
26, 265140, Note_on_c, 14, 61, 100
26, 265169, Note_on_c, 14, 61, 0
26, 265170, Note_on_c, 14, 59, 100
26, 265199, Note_on_c, 14, 59, 0
26, 265200, Note_on_c, 14, 57, 100
26, 265229, Note_on_c, 14, 57, 0
26, 265230, Note_on_c, 14, 55, 100
26, 265259, Note_on_c, 14, 55, 0
26, 265260, Note_on_c, 14, 54, 100
26, 265289, Note_on_c, 14, 54, 0
26, 265290, Note_on_c, 14, 57, 100
26, 265319, Note_on_c, 14, 57, 0
26, 265320, Note_on_c, 14, 55, 100
26, 265349, Note_on_c, 14, 55, 0
26, 265350, Note_on_c, 14, 54, 100
26, 265379, Note_on_c, 14, 54, 0
26, 265380, Note_on_c, 14, 52, 100
26, 265409, Note_on_c, 14, 52, 0
26, 265410, Note_on_c, 14, 50, 100
26, 265439, Note_on_c, 14, 50, 0
26, 265440, Note_on_c, 14, 49, 100
26, 265469, Note_on_c, 14, 49, 0
26, 265470, Note_on_c, 14, 47, 100
26, 265499, Note_on_c, 14, 47, 0
26, 265500, Note_on_c, 14, 45, 100
26, 265529, Note_on_c, 14, 45, 0
26, 265530, Note_on_c, 14, 43, 100
26, 265559, Note_on_c, 14, 43, 0
26, 265560, Note_on_c, 14, 42, 100
26, 265589, Note_on_c, 14, 42, 0
26, 265590, Note_on_c, 14, 40, 100
26, 265619, Note_on_c, 14, 40, 0
26, 265620, Note_on_c, 14, 38, 100
26, 265649, Note_on_c, 14, 38, 0
26, 265650, Note_on_c, 14, 40, 100
26, 265679, Note_on_c, 14, 40, 0
26, 265680, Note_on_c, 14, 42, 100
26, 265709, Note_on_c, 14, 42, 0
26, 265710, Note_on_c, 14, 43, 100
26, 265739, Note_on_c, 14, 43, 0
26, 265740, Note_on_c, 14, 45, 100
26, 265799, Note_on_c, 14, 45, 0
26, 265800, Note_on_c, 14, 57, 100
26, 265859, Note_on_c, 14, 57, 0
26, 265980, Note_on_c, 14, 50, 100
26, 266040, Note_on_c, 14, 50, 0
26, 266040, Note_on_c, 14, 38, 100
26, 266100, Note_on_c, 14, 38, 0
26, 266100, Note_on_c, 14, 50, 100
26, 266160, Note_on_c, 14, 50, 0
26, 266160, Note_on_c, 14, 38, 100
26, 266220, Note_on_c, 14, 38, 0
26, 266220, Note_on_c, 14, 38, 100
26, 266280, Note_on_c, 14, 38, 0
26, 266280, Note_on_c, 14, 50, 100
26, 266340, Note_on_c, 14, 50, 0
26, 266340, Note_on_c, 14, 38, 100
26, 266400, Note_on_c, 14, 38, 0
26, 266400, Note_on_c, 14, 38, 100
26, 266460, Note_on_c, 14, 38, 0
26, 266460, Note_on_c, 14, 50, 100
26, 266520, Note_on_c, 14, 50, 0
26, 266520, Note_on_c, 14, 38, 100
26, 266580, Note_on_c, 14, 38, 0
26, 266580, Note_on_c, 14, 38, 100
26, 266640, Note_on_c, 14, 38, 0
26, 266640, Note_on_c, 14, 50, 100
26, 266700, Note_on_c, 14, 50, 0
26, 266700, Note_on_c, 14, 38, 100
26, 266760, Note_on_c, 14, 38, 0
26, 266760, Note_on_c, 14, 38, 100
26, 266790, Note_on_c, 14, 38, 0
26, 266790, Note_on_c, 14, 40, 100
26, 266820, Note_on_c, 14, 40, 0
26, 266820, Note_on_c, 14, 42, 100
26, 266850, Note_on_c, 14, 42, 0
26, 266850, Note_on_c, 14, 43, 100
26, 266880, Note_on_c, 14, 43, 0
26, 266880, Note_on_c, 14, 45, 100
26, 266910, Note_on_c, 14, 45, 0
26, 266910, Note_on_c, 14, 43, 100
26, 266940, Note_on_c, 14, 43, 0
26, 266940, Note_on_c, 14, 42, 100
26, 266970, Note_on_c, 14, 42, 0
26, 266970, Note_on_c, 14, 40, 100
26, 267000, Note_on_c, 14, 40, 0
26, 267000, Note_on_c, 14, 38, 100
26, 267030, Note_on_c, 14, 38, 0
26, 267030, Note_on_c, 14, 40, 100
26, 267060, Note_on_c, 14, 40, 0
26, 267060, Note_on_c, 14, 42, 100
26, 267090, Note_on_c, 14, 42, 0
26, 267090, Note_on_c, 14, 43, 100
26, 267120, Note_on_c, 14, 43, 0
26, 267120, Note_on_c, 14, 45, 100
26, 267180, Note_on_c, 14, 45, 0
26, 267180, Note_on_c, 14, 45, 100
26, 267210, Note_on_c, 14, 45, 0
26, 267210, Note_on_c, 14, 45, 100
26, 267240, Note_on_c, 14, 45, 0
26, 267240, Note_on_c, 14, 45, 100
26, 267270, Note_on_c, 14, 45, 0
26, 267270, Note_on_c, 14, 45, 100
26, 267300, Note_on_c, 14, 45, 0
26, 267300, Note_on_c, 14, 45, 100
26, 267360, Note_on_c, 14, 45, 0
26, 267360, Note_on_c, 14, 57, 100
26, 267420, Note_on_c, 14, 57, 0
26, 267420, Note_on_c, 14, 61, 100
26, 267480, Note_on_c, 14, 61, 0
26, 267480, Note_on_c, 14, 54, 100
26, 267540, Note_on_c, 14, 54, 0
26, 267540, Note_on_c, 14, 57, 100
26, 267600, Note_on_c, 14, 57, 0
26, 267600, Note_on_c, 14, 54, 100
26, 267660, Note_on_c, 14, 54, 0
26, 267660, Note_on_c, 14, 51, 100
26, 267720, Note_on_c, 14, 51, 0
26, 267720, Note_on_c, 14, 47, 100
26, 267780, Note_on_c, 14, 47, 0
26, 267780, Note_on_c, 14, 51, 100
26, 267840, Note_on_c, 14, 51, 0
26, 267840, Note_on_c, 14, 52, 100
26, 267900, Note_on_c, 14, 52, 0
26, 267900, Note_on_c, 14, 64, 100
26, 267960, Note_on_c, 14, 64, 0
26, 267960, Note_on_c, 14, 52, 100
26, 268020, Note_on_c, 14, 52, 0
26, 268020, Note_on_c, 14, 52, 100
26, 268080, Note_on_c, 14, 52, 0
26, 268080, Note_on_c, 14, 64, 100
26, 268140, Note_on_c, 14, 64, 0
26, 268140, Note_on_c, 14, 52, 100
26, 268200, Note_on_c, 14, 52, 0
26, 268200, Note_on_c, 14, 52, 100
26, 268260, Note_on_c, 14, 52, 0
26, 268260, Note_on_c, 14, 55, 100
26, 268320, Note_on_c, 14, 55, 0
26, 268320, Note_on_c, 14, 47, 100
26, 268380, Note_on_c, 14, 47, 0
26, 268380, Note_on_c, 14, 49, 100
26, 268440, Note_on_c, 14, 49, 0
26, 268440, Note_on_c, 14, 52, 100
26, 268500, Note_on_c, 14, 52, 0
26, 268500, Note_on_c, 14, 45, 100
26, 268560, Note_on_c, 14, 45, 0
26, 268560, Note_on_c, 14, 50, 100
26, 268619, Note_on_c, 14, 50, 0
26, 268620, Note_on_c, 14, 62, 100
26, 268679, Note_on_c, 14, 62, 0
26, 268680, Note_on_c, 14, 50, 100
26, 268739, Note_on_c, 14, 50, 0
26, 268740, Note_on_c, 14, 50, 100
26, 268799, Note_on_c, 14, 50, 0
26, 268800, Note_on_c, 14, 62, 100
26, 268859, Note_on_c, 14, 62, 0
26, 268860, Note_on_c, 14, 50, 100
26, 268919, Note_on_c, 14, 50, 0
26, 268920, Note_on_c, 14, 45, 100
26, 268949, Note_on_c, 14, 45, 0
26, 268950, Note_on_c, 14, 57, 100
26, 268979, Note_on_c, 14, 57, 0
26, 268980, Note_on_c, 14, 55, 100
26, 269009, Note_on_c, 14, 55, 0
26, 269010, Note_on_c, 14, 54, 100
26, 269039, Note_on_c, 14, 54, 0
26, 269040, Note_on_c, 14, 52, 100
26, 269069, Note_on_c, 14, 52, 0
26, 269070, Note_on_c, 14, 50, 100
26, 269099, Note_on_c, 14, 50, 0
26, 269100, Note_on_c, 14, 49, 100
26, 269159, Note_on_c, 14, 49, 0
26, 269160, Note_on_c, 14, 61, 100
26, 269219, Note_on_c, 14, 61, 0
26, 269220, Note_on_c, 14, 49, 100
26, 269279, Note_on_c, 14, 49, 0
26, 269280, Note_on_c, 14, 42, 100
26, 269309, Note_on_c, 14, 42, 0
26, 269310, Note_on_c, 14, 55, 100
26, 269339, Note_on_c, 14, 55, 0
26, 269340, Note_on_c, 14, 54, 100
26, 269369, Note_on_c, 14, 54, 0
26, 269370, Note_on_c, 14, 52, 100
26, 269399, Note_on_c, 14, 52, 0
26, 269400, Note_on_c, 14, 50, 100
26, 269429, Note_on_c, 14, 50, 0
26, 269430, Note_on_c, 14, 49, 100
26, 269459, Note_on_c, 14, 49, 0
26, 269460, Note_on_c, 14, 47, 100
26, 269519, Note_on_c, 14, 47, 0
26, 269520, Note_on_c, 14, 59, 100
26, 269579, Note_on_c, 14, 59, 0
26, 269580, Note_on_c, 14, 47, 100
26, 269639, Note_on_c, 14, 47, 0
26, 269640, Note_on_c, 14, 40, 100
26, 269669, Note_on_c, 14, 40, 0
26, 269670, Note_on_c, 14, 54, 100
26, 269699, Note_on_c, 14, 54, 0
26, 269700, Note_on_c, 14, 52, 100
26, 269729, Note_on_c, 14, 52, 0
26, 269730, Note_on_c, 14, 50, 100
26, 269759, Note_on_c, 14, 50, 0
26, 269760, Note_on_c, 14, 49, 100
26, 269789, Note_on_c, 14, 49, 0
26, 269790, Note_on_c, 14, 47, 100
26, 269819, Note_on_c, 14, 47, 0
26, 269820, Note_on_c, 14, 45, 100
26, 269879, Note_on_c, 14, 45, 0
26, 269880, Note_on_c, 14, 57, 100
26, 269939, Note_on_c, 14, 57, 0
26, 269940, Note_on_c, 14, 45, 100
26, 269999, Note_on_c, 14, 45, 0
26, 270000, Note_on_c, 14, 38, 100
26, 270029, Note_on_c, 14, 38, 0
26, 270030, Note_on_c, 14, 50, 100
26, 270059, Note_on_c, 14, 50, 0
26, 270060, Note_on_c, 14, 49, 100
26, 270089, Note_on_c, 14, 49, 0
26, 270090, Note_on_c, 14, 47, 100
26, 270119, Note_on_c, 14, 47, 0
26, 270120, Note_on_c, 14, 45, 100
26, 270149, Note_on_c, 14, 45, 0
26, 270150, Note_on_c, 14, 43, 100
26, 270179, Note_on_c, 14, 43, 0
26, 270180, Note_on_c, 14, 42, 100
26, 270209, Note_on_c, 14, 42, 0
26, 270210, Note_on_c, 14, 45, 100
26, 270239, Note_on_c, 14, 45, 0
26, 270240, Note_on_c, 14, 43, 100
26, 270269, Note_on_c, 14, 43, 0
26, 270270, Note_on_c, 14, 42, 100
26, 270299, Note_on_c, 14, 42, 0
26, 270300, Note_on_c, 14, 40, 100
26, 270329, Note_on_c, 14, 40, 0
26, 270330, Note_on_c, 14, 38, 100
26, 270359, Note_on_c, 14, 38, 0
26, 270360, Note_on_c, 14, 45, 100
26, 270419, Note_on_c, 14, 45, 0
26, 270420, Note_on_c, 14, 57, 100
26, 270479, Note_on_c, 14, 57, 0
26, 270480, Note_on_c, 14, 45, 100
26, 270539, Note_on_c, 14, 45, 0
26, 270540, Note_on_c, 14, 45, 100
26, 270599, Note_on_c, 14, 45, 0
26, 270600, Note_on_c, 14, 57, 100
26, 270659, Note_on_c, 14, 57, 0
26, 270660, Note_on_c, 14, 45, 100
26, 270719, Note_on_c, 14, 45, 0
26, 270720, Note_on_c, 14, 45, 100
26, 270779, Note_on_c, 14, 45, 0
26, 270780, Note_on_c, 14, 57, 100
26, 270839, Note_on_c, 14, 57, 0
26, 270840, Note_on_c, 14, 45, 100
26, 270899, Note_on_c, 14, 45, 0
26, 270900, Note_on_c, 14, 45, 100
26, 270959, Note_on_c, 14, 45, 0
26, 270960, Note_on_c, 14, 57, 100
26, 271019, Note_on_c, 14, 57, 0
26, 271020, Note_on_c, 14, 45, 100
26, 271079, Note_on_c, 14, 45, 0
26, 271080, Note_on_c, 14, 45, 100
26, 271139, Note_on_c, 14, 45, 0
26, 271140, Note_on_c, 14, 57, 100
26, 271199, Note_on_c, 14, 57, 0
26, 271200, Note_on_c, 14, 45, 100
26, 271259, Note_on_c, 14, 45, 0
26, 271260, Note_on_c, 14, 45, 100
26, 271319, Note_on_c, 14, 45, 0
26, 271320, Note_on_c, 14, 49, 100
26, 271379, Note_on_c, 14, 49, 0
26, 271380, Note_on_c, 14, 50, 100
26, 271439, Note_on_c, 14, 50, 0
26, 271440, Note_on_c, 14, 42, 100
26, 271499, Note_on_c, 14, 42, 0
26, 271500, Note_on_c, 14, 45, 100
26, 271559, Note_on_c, 14, 45, 0
26, 271560, Note_on_c, 14, 45, 100
26, 271619, Note_on_c, 14, 45, 0
26, 271620, Note_on_c, 14, 38, 90
26, 271739, Note_on_c, 14, 38, 0
26, 271980, Control_c, 14, 0, 100
26, 271980, Control_c, 14, 0, 100
26, 271980, Program_c, 14, 42
26, 271980, Note_on_c, 14, 55, 90
26, 272039, Note_on_c, 14, 55, 0
26, 272040, Note_on_c, 14, 59, 90
26, 272069, Note_on_c, 14, 59, 0
26, 272070, Note_on_c, 14, 57, 90
26, 272099, Note_on_c, 14, 57, 0
26, 272100, Note_on_c, 14, 55, 90
26, 272159, Note_on_c, 14, 55, 0
26, 272160, Note_on_c, 14, 55, 90
26, 272219, Note_on_c, 14, 55, 0
26, 272220, Note_on_c, 14, 55, 90
26, 272279, Note_on_c, 14, 55, 0
26, 272280, Note_on_c, 14, 50, 90
26, 272339, Note_on_c, 14, 50, 0
26, 272340, Note_on_c, 14, 55, 90
26, 272399, Note_on_c, 14, 55, 0
26, 272400, Note_on_c, 14, 55, 90
26, 272459, Note_on_c, 14, 55, 0
26, 272460, Note_on_c, 14, 55, 90
26, 272519, Note_on_c, 14, 55, 0
26, 272520, Note_on_c, 14, 59, 90
26, 272549, Note_on_c, 14, 59, 0
26, 272550, Note_on_c, 14, 57, 90
26, 272579, Note_on_c, 14, 57, 0
26, 272580, Note_on_c, 14, 55, 90
26, 272639, Note_on_c, 14, 55, 0
26, 272640, Note_on_c, 14, 55, 90
26, 272699, Note_on_c, 14, 55, 0
26, 272700, Note_on_c, 14, 55, 90
26, 272759, Note_on_c, 14, 55, 0
26, 272760, Note_on_c, 14, 48, 90
26, 272819, Note_on_c, 14, 48, 0
26, 272820, Note_on_c, 14, 55, 90
26, 272879, Note_on_c, 14, 55, 0
26, 272880, Note_on_c, 14, 55, 90
26, 272939, Note_on_c, 14, 55, 0
26, 272940, Note_on_c, 14, 57, 90
26, 272969, Note_on_c, 14, 57, 0
26, 272970, Note_on_c, 14, 55, 90
26, 272999, Note_on_c, 14, 55, 0
26, 273000, Note_on_c, 14, 54, 90
26, 273029, Note_on_c, 14, 54, 0
26, 273030, Note_on_c, 14, 52, 90
26, 273059, Note_on_c, 14, 52, 0
26, 273060, Note_on_c, 14, 50, 90
26, 273089, Note_on_c, 14, 50, 0
26, 273090, Note_on_c, 14, 48, 90
26, 273119, Note_on_c, 14, 48, 0
26, 273120, Note_on_c, 14, 47, 90
26, 273149, Note_on_c, 14, 47, 0
26, 273150, Note_on_c, 14, 45, 90
26, 273179, Note_on_c, 14, 45, 0
26, 273180, Note_on_c, 14, 43, 90
26, 273209, Note_on_c, 14, 43, 0
26, 273210, Note_on_c, 14, 38, 90
26, 273239, Note_on_c, 14, 38, 0
26, 273240, Note_on_c, 14, 40, 90
26, 273269, Note_on_c, 14, 40, 0
26, 273270, Note_on_c, 14, 42, 90
26, 273299, Note_on_c, 14, 42, 0
26, 273300, Note_on_c, 14, 43, 90
26, 273329, Note_on_c, 14, 43, 0
26, 273330, Note_on_c, 14, 45, 90
26, 273359, Note_on_c, 14, 45, 0
26, 273360, Note_on_c, 14, 47, 90
26, 273389, Note_on_c, 14, 47, 0
26, 273390, Note_on_c, 14, 48, 90
26, 273419, Note_on_c, 14, 48, 0
26, 273420, Note_on_c, 14, 50, 90
26, 273449, Note_on_c, 14, 50, 0
26, 273450, Note_on_c, 14, 48, 90
26, 273479, Note_on_c, 14, 48, 0
26, 273480, Note_on_c, 14, 50, 90
26, 273509, Note_on_c, 14, 50, 0
26, 273510, Note_on_c, 14, 52, 90
26, 273539, Note_on_c, 14, 52, 0
26, 273540, Note_on_c, 14, 54, 90
26, 273569, Note_on_c, 14, 54, 0
26, 273570, Note_on_c, 14, 52, 90
26, 273599, Note_on_c, 14, 52, 0
26, 273600, Note_on_c, 14, 54, 90
26, 273629, Note_on_c, 14, 54, 0
26, 273630, Note_on_c, 14, 50, 90
26, 273659, Note_on_c, 14, 50, 0
26, 273660, Note_on_c, 14, 55, 90
26, 273689, Note_on_c, 14, 55, 0
26, 273690, Note_on_c, 14, 54, 90
26, 273719, Note_on_c, 14, 54, 0
26, 273720, Note_on_c, 14, 55, 90
26, 273749, Note_on_c, 14, 55, 0
26, 273750, Note_on_c, 14, 57, 90
26, 273779, Note_on_c, 14, 57, 0
26, 273780, Note_on_c, 14, 59, 90
26, 273809, Note_on_c, 14, 59, 0
26, 273810, Note_on_c, 14, 60, 90
26, 273839, Note_on_c, 14, 60, 0
26, 273840, Note_on_c, 14, 59, 90
26, 273869, Note_on_c, 14, 59, 0
26, 273870, Note_on_c, 14, 57, 90
26, 273899, Note_on_c, 14, 57, 0
26, 273900, Note_on_c, 14, 55, 90
26, 273929, Note_on_c, 14, 55, 0
26, 273930, Note_on_c, 14, 57, 90
26, 273959, Note_on_c, 14, 57, 0
26, 273960, Note_on_c, 14, 55, 90
26, 273989, Note_on_c, 14, 55, 0
26, 273990, Note_on_c, 14, 54, 90
26, 274019, Note_on_c, 14, 54, 0
26, 274020, Note_on_c, 14, 52, 90
26, 274049, Note_on_c, 14, 52, 0
26, 274050, Note_on_c, 14, 54, 90
26, 274079, Note_on_c, 14, 54, 0
26, 274080, Note_on_c, 14, 55, 90
26, 274109, Note_on_c, 14, 55, 0
26, 274110, Note_on_c, 14, 52, 90
26, 274139, Note_on_c, 14, 52, 0
26, 274140, Note_on_c, 14, 57, 90
26, 274199, Note_on_c, 14, 57, 0
26, 274200, Note_on_c, 14, 61, 90
26, 274229, Note_on_c, 14, 61, 0
26, 274230, Note_on_c, 14, 59, 90
26, 274259, Note_on_c, 14, 59, 0
26, 274260, Note_on_c, 14, 57, 90
26, 274319, Note_on_c, 14, 57, 0
26, 274320, Note_on_c, 14, 57, 90
26, 274379, Note_on_c, 14, 57, 0
26, 274380, Note_on_c, 14, 57, 90
26, 274439, Note_on_c, 14, 57, 0
26, 274440, Note_on_c, 14, 50, 90
26, 274499, Note_on_c, 14, 50, 0
26, 274500, Note_on_c, 14, 57, 90
26, 274559, Note_on_c, 14, 57, 0
26, 274560, Note_on_c, 14, 57, 90
26, 274619, Note_on_c, 14, 57, 0
26, 274620, Note_on_c, 14, 57, 90
26, 274679, Note_on_c, 14, 57, 0
26, 274680, Note_on_c, 14, 61, 90
26, 274709, Note_on_c, 14, 61, 0
26, 274710, Note_on_c, 14, 59, 90
26, 274739, Note_on_c, 14, 59, 0
26, 274740, Note_on_c, 14, 57, 90
26, 274799, Note_on_c, 14, 57, 0
26, 274800, Note_on_c, 14, 57, 90
26, 274859, Note_on_c, 14, 57, 0
26, 274860, Note_on_c, 14, 57, 90
26, 274919, Note_on_c, 14, 57, 0
26, 274920, Note_on_c, 14, 50, 90
26, 274979, Note_on_c, 14, 50, 0
26, 274980, Note_on_c, 14, 50, 90
26, 275039, Note_on_c, 14, 50, 0
26, 275040, Note_on_c, 14, 54, 90
26, 275099, Note_on_c, 14, 54, 0
26, 275100, Note_on_c, 14, 52, 90
26, 275159, Note_on_c, 14, 52, 0
26, 275160, Note_on_c, 14, 55, 90
26, 275189, Note_on_c, 14, 55, 0
26, 275190, Note_on_c, 14, 54, 90
26, 275219, Note_on_c, 14, 54, 0
26, 275220, Note_on_c, 14, 52, 90
26, 275279, Note_on_c, 14, 52, 0
26, 275280, Note_on_c, 14, 52, 90
26, 275339, Note_on_c, 14, 52, 0
26, 275340, Note_on_c, 14, 52, 90
26, 275399, Note_on_c, 14, 52, 0
26, 275400, Note_on_c, 14, 45, 90
26, 275459, Note_on_c, 14, 45, 0
26, 275460, Note_on_c, 14, 45, 90
26, 275519, Note_on_c, 14, 45, 0
26, 275520, Note_on_c, 14, 49, 90
26, 275579, Note_on_c, 14, 49, 0
26, 275580, Note_on_c, 14, 50, 90
26, 275639, Note_on_c, 14, 50, 0
26, 275640, Note_on_c, 14, 55, 90
26, 275699, Note_on_c, 14, 55, 0
26, 275700, Note_on_c, 14, 57, 90
26, 275759, Note_on_c, 14, 57, 0
26, 275760, Note_on_c, 14, 45, 90
26, 275819, Note_on_c, 14, 45, 0
26, 275820, Note_on_c, 14, 50, 90
26, 275879, Note_on_c, 14, 50, 0
26, 275880, Note_on_c, 14, 54, 90
26, 275909, Note_on_c, 14, 54, 0
26, 275910, Note_on_c, 14, 52, 90
26, 275939, Note_on_c, 14, 52, 0
26, 275940, Note_on_c, 14, 50, 90
26, 275999, Note_on_c, 14, 50, 0
26, 276000, Note_on_c, 14, 50, 90
26, 276059, Note_on_c, 14, 50, 0
26, 276060, Note_on_c, 14, 50, 90
26, 276119, Note_on_c, 14, 50, 0
26, 276120, Note_on_c, 14, 45, 90
26, 276179, Note_on_c, 14, 45, 0
26, 276180, Note_on_c, 14, 50, 90
26, 276239, Note_on_c, 14, 50, 0
26, 276240, Note_on_c, 14, 50, 90
26, 276299, Note_on_c, 14, 50, 0
26, 276300, Note_on_c, 14, 50, 90
26, 276359, Note_on_c, 14, 50, 0
26, 276360, Note_on_c, 14, 54, 90
26, 276389, Note_on_c, 14, 54, 0
26, 276390, Note_on_c, 14, 52, 90
26, 276419, Note_on_c, 14, 52, 0
26, 276420, Note_on_c, 14, 50, 90
26, 276479, Note_on_c, 14, 50, 0
26, 276480, Note_on_c, 14, 50, 90
26, 276539, Note_on_c, 14, 50, 0
26, 276540, Note_on_c, 14, 52, 90
26, 276569, Note_on_c, 14, 52, 0
26, 276570, Note_on_c, 14, 45, 90
26, 276599, Note_on_c, 14, 45, 0
26, 276600, Note_on_c, 14, 47, 90
26, 276629, Note_on_c, 14, 47, 0
26, 276630, Note_on_c, 14, 49, 90
26, 276659, Note_on_c, 14, 49, 0
26, 276660, Note_on_c, 14, 50, 90
26, 276689, Note_on_c, 14, 50, 0
26, 276690, Note_on_c, 14, 52, 90
26, 276719, Note_on_c, 14, 52, 0
26, 276720, Note_on_c, 14, 54, 90
26, 276749, Note_on_c, 14, 54, 0
26, 276750, Note_on_c, 14, 55, 90
26, 276779, Note_on_c, 14, 55, 0
26, 276780, Note_on_c, 14, 57, 90
26, 276809, Note_on_c, 14, 57, 0
26, 276810, Note_on_c, 14, 55, 90
26, 276839, Note_on_c, 14, 55, 0
26, 276840, Note_on_c, 14, 54, 90
26, 276869, Note_on_c, 14, 54, 0
26, 276870, Note_on_c, 14, 55, 90
26, 276899, Note_on_c, 14, 55, 0
26, 276900, Note_on_c, 14, 57, 90
26, 276959, Note_on_c, 14, 57, 0
26, 276960, Note_on_c, 14, 45, 90
26, 277019, Note_on_c, 14, 45, 0
26, 277020, Note_on_c, 14, 50, 90
26, 277620, Note_on_c, 14, 50, 0
26, 277620, Note_on_c, 14, 49, 90
26, 277739, Note_on_c, 14, 49, 0
26, 277740, Note_on_c, 14, 47, 90
26, 277979, Note_on_c, 14, 47, 0
26, 277980, Note_on_c, 14, 45, 90
26, 278459, Note_on_c, 14, 45, 0
26, 278460, Note_on_c, 14, 42, 90
26, 278699, Note_on_c, 14, 42, 0
26, 278700, Note_on_c, 14, 40, 90
26, 278939, Note_on_c, 14, 40, 0
26, 278940, Note_on_c, 14, 38, 90
26, 279419, Note_on_c, 14, 38, 0
26, 279420, Note_on_c, 14, 39, 90
26, 279659, Note_on_c, 14, 39, 0
26, 279660, Note_on_c, 14, 40, 90
26, 279779, Note_on_c, 14, 40, 0
26, 279780, Note_on_c, 14, 43, 90
26, 279899, Note_on_c, 14, 43, 0
26, 280020, Note_on_c, 14, 42, 90
26, 280139, Note_on_c, 14, 42, 0
26, 280140, Note_on_c, 14, 47, 90
26, 280199, Note_on_c, 14, 47, 0
26, 280200, Note_on_c, 14, 50, 90
26, 280229, Note_on_c, 14, 50, 0
26, 280230, Note_on_c, 14, 49, 90
26, 280259, Note_on_c, 14, 49, 0
26, 280260, Note_on_c, 14, 47, 90
26, 280319, Note_on_c, 14, 47, 0
26, 280320, Note_on_c, 14, 47, 90
26, 280379, Note_on_c, 14, 47, 0
26, 280380, Note_on_c, 14, 47, 90
26, 280439, Note_on_c, 14, 47, 0
26, 280440, Note_on_c, 14, 42, 90
26, 280499, Note_on_c, 14, 42, 0
26, 280500, Note_on_c, 14, 47, 90
26, 280559, Note_on_c, 14, 47, 0
26, 280560, Note_on_c, 14, 47, 90
26, 280619, Note_on_c, 14, 47, 0
26, 280620, Note_on_c, 14, 49, 90
26, 280679, Note_on_c, 14, 49, 0
26, 280680, Note_on_c, 14, 52, 90
26, 280710, Note_on_c, 14, 52, 0
26, 280710, Note_on_c, 14, 50, 90
26, 280740, Note_on_c, 14, 50, 0
26, 280740, Note_on_c, 14, 49, 90
26, 280799, Note_on_c, 14, 49, 0
26, 280800, Note_on_c, 14, 49, 90
26, 280859, Note_on_c, 14, 49, 0
26, 280860, Note_on_c, 14, 49, 90
26, 280919, Note_on_c, 14, 49, 0
26, 280920, Note_on_c, 14, 45, 90
26, 280979, Note_on_c, 14, 45, 0
26, 280980, Note_on_c, 14, 49, 90
26, 281039, Note_on_c, 14, 49, 0
26, 281040, Note_on_c, 14, 49, 90
26, 281099, Note_on_c, 14, 49, 0
26, 281100, Note_on_c, 14, 50, 90
26, 281159, Note_on_c, 14, 50, 0
26, 281160, Note_on_c, 14, 54, 90
26, 281189, Note_on_c, 14, 54, 0
26, 281190, Note_on_c, 14, 52, 90
26, 281219, Note_on_c, 14, 52, 0
26, 281220, Note_on_c, 14, 50, 90
26, 281279, Note_on_c, 14, 50, 0
26, 281280, Note_on_c, 14, 50, 90
26, 281339, Note_on_c, 14, 50, 0
26, 281340, Note_on_c, 14, 50, 90
26, 281399, Note_on_c, 14, 50, 0
26, 281400, Note_on_c, 14, 45, 90
26, 281459, Note_on_c, 14, 45, 0
26, 281460, Note_on_c, 14, 50, 90
26, 281519, Note_on_c, 14, 50, 0
26, 281520, Note_on_c, 14, 50, 90
26, 281579, Note_on_c, 14, 50, 0
26, 281580, Note_on_c, 14, 52, 90
26, 281639, Note_on_c, 14, 52, 0
26, 281640, Note_on_c, 14, 55, 90
26, 281669, Note_on_c, 14, 55, 0
26, 281670, Note_on_c, 14, 54, 90
26, 281699, Note_on_c, 14, 54, 0
26, 281700, Note_on_c, 14, 52, 90
26, 281759, Note_on_c, 14, 52, 0
26, 281760, Note_on_c, 14, 52, 90
26, 281819, Note_on_c, 14, 52, 0
26, 281820, Note_on_c, 14, 52, 90
26, 281879, Note_on_c, 14, 52, 0
26, 281880, Note_on_c, 14, 45, 90
26, 281939, Note_on_c, 14, 45, 0
26, 281940, Note_on_c, 14, 52, 90
26, 281999, Note_on_c, 14, 52, 0
26, 282000, Note_on_c, 14, 52, 90
26, 282059, Note_on_c, 14, 52, 0
26, 282060, Note_on_c, 14, 54, 90
26, 282119, Note_on_c, 14, 54, 0
26, 282120, Note_on_c, 14, 57, 90
26, 282149, Note_on_c, 14, 57, 0
26, 282150, Note_on_c, 14, 55, 90
26, 282179, Note_on_c, 14, 55, 0
26, 282180, Note_on_c, 14, 54, 90
26, 282239, Note_on_c, 14, 54, 0
26, 282240, Note_on_c, 14, 54, 90
26, 282299, Note_on_c, 14, 54, 0
26, 282300, Note_on_c, 14, 54, 90
26, 282359, Note_on_c, 14, 54, 0
26, 282360, Note_on_c, 14, 50, 90
26, 282419, Note_on_c, 14, 50, 0
26, 282420, Note_on_c, 14, 54, 90
26, 282479, Note_on_c, 14, 54, 0
26, 282480, Note_on_c, 14, 54, 90
26, 282539, Note_on_c, 14, 54, 0
26, 282540, Note_on_c, 14, 55, 90
26, 282599, Note_on_c, 14, 55, 0
26, 282600, Note_on_c, 14, 59, 90
26, 282629, Note_on_c, 14, 59, 0
26, 282630, Note_on_c, 14, 57, 90
26, 282659, Note_on_c, 14, 57, 0
26, 282660, Note_on_c, 14, 55, 90
26, 282719, Note_on_c, 14, 55, 0
26, 282720, Note_on_c, 14, 55, 90
26, 282779, Note_on_c, 14, 55, 0
26, 282780, Note_on_c, 14, 55, 90
26, 282839, Note_on_c, 14, 55, 0
26, 282840, Note_on_c, 14, 50, 90
26, 282899, Note_on_c, 14, 50, 0
26, 282900, Note_on_c, 14, 55, 90
26, 282959, Note_on_c, 14, 55, 0
26, 282960, Note_on_c, 14, 55, 90
26, 283019, Note_on_c, 14, 55, 0
26, 283020, Note_on_c, 14, 57, 90
26, 283079, Note_on_c, 14, 57, 0
26, 283080, Note_on_c, 14, 60, 90
26, 283109, Note_on_c, 14, 60, 0
26, 283110, Note_on_c, 14, 59, 90
26, 283139, Note_on_c, 14, 59, 0
26, 283140, Note_on_c, 14, 57, 90
26, 283199, Note_on_c, 14, 57, 0
26, 283200, Note_on_c, 14, 57, 90
26, 283259, Note_on_c, 14, 57, 0
26, 283260, Note_on_c, 14, 57, 90
26, 283319, Note_on_c, 14, 57, 0
26, 283320, Note_on_c, 14, 50, 90
26, 283379, Note_on_c, 14, 50, 0
26, 283380, Note_on_c, 14, 57, 90
26, 283439, Note_on_c, 14, 57, 0
26, 283440, Note_on_c, 14, 57, 90
26, 283499, Note_on_c, 14, 57, 0
26, 283500, Note_on_c, 14, 59, 90
26, 283559, Note_on_c, 14, 59, 0
26, 283560, Note_on_c, 14, 57, 90
26, 283589, Note_on_c, 14, 57, 0
26, 283590, Note_on_c, 14, 55, 90
26, 283619, Note_on_c, 14, 55, 0
26, 283620, Note_on_c, 14, 62, 90
26, 283679, Note_on_c, 14, 62, 0
26, 283680, Note_on_c, 14, 50, 90
26, 283739, Note_on_c, 14, 50, 0
26, 283740, Note_on_c, 14, 55, 90
26, 283799, Note_on_c, 14, 55, 0
26, 283800, Note_on_c, 14, 59, 90
26, 283829, Note_on_c, 14, 59, 0
26, 283830, Note_on_c, 14, 57, 90
26, 283859, Note_on_c, 14, 57, 0
26, 283860, Note_on_c, 14, 55, 90
26, 283919, Note_on_c, 14, 55, 0
26, 283920, Note_on_c, 14, 55, 90
26, 283979, Note_on_c, 14, 55, 0
26, 283980, Note_on_c, 14, 55, 90
26, 284039, Note_on_c, 14, 55, 0
26, 284040, Note_on_c, 14, 50, 90
26, 284099, Note_on_c, 14, 50, 0
26, 284100, Note_on_c, 14, 55, 90
26, 284159, Note_on_c, 14, 55, 0
26, 284160, Note_on_c, 14, 55, 90
26, 284219, Note_on_c, 14, 55, 0
26, 284220, Note_on_c, 14, 57, 90
26, 284279, Note_on_c, 14, 57, 0
26, 284280, Note_on_c, 14, 60, 90
26, 284309, Note_on_c, 14, 60, 0
26, 284310, Note_on_c, 14, 59, 90
26, 284339, Note_on_c, 14, 59, 0
26, 284340, Note_on_c, 14, 57, 90
26, 284399, Note_on_c, 14, 57, 0
26, 284400, Note_on_c, 14, 57, 90
26, 284459, Note_on_c, 14, 57, 0
26, 284460, Note_on_c, 14, 57, 90
26, 284489, Note_on_c, 14, 57, 0
26, 284490, Note_on_c, 14, 50, 90
26, 284519, Note_on_c, 14, 50, 0
26, 284520, Note_on_c, 14, 52, 90
26, 284549, Note_on_c, 14, 52, 0
26, 284550, Note_on_c, 14, 54, 90
26, 284579, Note_on_c, 14, 54, 0
26, 284580, Note_on_c, 14, 55, 90
26, 284609, Note_on_c, 14, 55, 0
26, 284610, Note_on_c, 14, 57, 90
26, 284639, Note_on_c, 14, 57, 0
26, 284640, Note_on_c, 14, 59, 90
26, 284669, Note_on_c, 14, 59, 0
26, 284670, Note_on_c, 14, 60, 90
26, 284699, Note_on_c, 14, 60, 0
26, 284700, Note_on_c, 14, 62, 90
26, 284729, Note_on_c, 14, 62, 0
26, 284730, Note_on_c, 14, 60, 90
26, 284759, Note_on_c, 14, 60, 0
26, 284760, Note_on_c, 14, 59, 90
26, 284789, Note_on_c, 14, 59, 0
26, 284790, Note_on_c, 14, 60, 90
26, 284819, Note_on_c, 14, 60, 0
26, 284820, Note_on_c, 14, 62, 90
26, 284879, Note_on_c, 14, 62, 0
26, 284880, Note_on_c, 14, 50, 90
26, 284939, Note_on_c, 14, 50, 0
26, 284940, Note_on_c, 14, 43, 90
26, 285179, Note_on_c, 14, 43, 0
26, 285420, Control_c, 14, 0, 101
26, 285420, Control_c, 14, 0, 101
26, 285420, Program_c, 14, 42
26, 285420, Note_on_c, 14, 43, 100
26, 285480, Note_on_c, 14, 43, 0
26, 285480, Note_on_c, 14, 55, 100
26, 285510, Note_on_c, 14, 55, 0
26, 285510, Note_on_c, 14, 54, 100
26, 285540, Note_on_c, 14, 54, 0
26, 285540, Note_on_c, 14, 55, 100
26, 285600, Note_on_c, 14, 55, 0
26, 285600, Note_on_c, 14, 59, 100
26, 285630, Note_on_c, 14, 59, 0
26, 285630, Note_on_c, 14, 57, 100
26, 285660, Note_on_c, 14, 57, 0
26, 285660, Note_on_c, 14, 55, 100
26, 285720, Note_on_c, 14, 55, 0
26, 285720, Note_on_c, 14, 50, 100
26, 285780, Note_on_c, 14, 50, 0
26, 285780, Note_on_c, 14, 47, 100
26, 285840, Note_on_c, 14, 47, 0
26, 285840, Note_on_c, 14, 43, 100
26, 285870, Note_on_c, 14, 43, 0
26, 285870, Note_on_c, 14, 45, 100
26, 285900, Note_on_c, 14, 45, 0
26, 285900, Note_on_c, 14, 47, 100
26, 285960, Note_on_c, 14, 47, 0
26, 285960, Note_on_c, 14, 50, 100
26, 286020, Note_on_c, 14, 50, 0
26, 286020, Note_on_c, 14, 55, 100
26, 286200, Note_on_c, 14, 55, 0
26, 286200, Note_on_c, 14, 60, 100
26, 286230, Note_on_c, 14, 60, 0
26, 286230, Note_on_c, 14, 59, 100
26, 286260, Note_on_c, 14, 59, 0
26, 286260, Note_on_c, 14, 60, 100
26, 286320, Note_on_c, 14, 60, 0
26, 286320, Note_on_c, 14, 55, 100
26, 286380, Note_on_c, 14, 55, 0
26, 286380, Note_on_c, 14, 55, 100
26, 286440, Note_on_c, 14, 55, 0
26, 286440, Note_on_c, 14, 55, 100
26, 286500, Note_on_c, 14, 55, 0
26, 286500, Note_on_c, 14, 55, 100
26, 286560, Note_on_c, 14, 55, 0
26, 286560, Note_on_c, 14, 59, 100
26, 286590, Note_on_c, 14, 59, 0
26, 286590, Note_on_c, 14, 57, 100
26, 286620, Note_on_c, 14, 57, 0
26, 286620, Note_on_c, 14, 59, 100
26, 286680, Note_on_c, 14, 59, 0
26, 286680, Note_on_c, 14, 52, 100
26, 286740, Note_on_c, 14, 52, 0
26, 286740, Note_on_c, 14, 52, 100
26, 286800, Note_on_c, 14, 52, 0
26, 286800, Note_on_c, 14, 52, 100
26, 286860, Note_on_c, 14, 52, 0
26, 286860, Note_on_c, 14, 52, 100
26, 286920, Note_on_c, 14, 52, 0
26, 286920, Note_on_c, 14, 57, 100
26, 286950, Note_on_c, 14, 57, 0
26, 286950, Note_on_c, 14, 55, 100
26, 286980, Note_on_c, 14, 55, 0
26, 286980, Note_on_c, 14, 57, 100
26, 287040, Note_on_c, 14, 57, 0
26, 287040, Note_on_c, 14, 54, 100
26, 287100, Note_on_c, 14, 54, 0
26, 287100, Note_on_c, 14, 50, 100
26, 287160, Note_on_c, 14, 50, 0
26, 287160, Note_on_c, 14, 54, 100
26, 287220, Note_on_c, 14, 54, 0
26, 287220, Note_on_c, 14, 55, 100
26, 287280, Note_on_c, 14, 55, 0
26, 287280, Note_on_c, 14, 43, 100
26, 287340, Note_on_c, 14, 43, 0
26, 287340, Note_on_c, 14, 55, 100
26, 287400, Note_on_c, 14, 55, 0
26, 287400, Note_on_c, 14, 59, 100
26, 287430, Note_on_c, 14, 59, 0
26, 287430, Note_on_c, 14, 57, 100
26, 287460, Note_on_c, 14, 57, 0
26, 287460, Note_on_c, 14, 55, 100
26, 287520, Note_on_c, 14, 55, 0
26, 287520, Note_on_c, 14, 54, 100
26, 287580, Note_on_c, 14, 54, 0
26, 287580, Note_on_c, 14, 52, 100
26, 287640, Note_on_c, 14, 52, 0
26, 287640, Note_on_c, 14, 40, 100
26, 287700, Note_on_c, 14, 40, 0
26, 287700, Note_on_c, 14, 52, 100
26, 287760, Note_on_c, 14, 52, 0
26, 287760, Note_on_c, 14, 55, 100
26, 287790, Note_on_c, 14, 55, 0
26, 287790, Note_on_c, 14, 54, 100
26, 287820, Note_on_c, 14, 54, 0
26, 287820, Note_on_c, 14, 52, 100
26, 287880, Note_on_c, 14, 52, 0
26, 287880, Note_on_c, 14, 55, 100
26, 287940, Note_on_c, 14, 55, 0
26, 287940, Note_on_c, 14, 57, 100
26, 288000, Note_on_c, 14, 57, 0
26, 288000, Note_on_c, 14, 45, 100
26, 288060, Note_on_c, 14, 45, 0
26, 288060, Note_on_c, 14, 57, 100
26, 288120, Note_on_c, 14, 57, 0
26, 288120, Note_on_c, 14, 61, 100
26, 288150, Note_on_c, 14, 61, 0
26, 288150, Note_on_c, 14, 57, 100
26, 288180, Note_on_c, 14, 57, 0
26, 288180, Note_on_c, 14, 54, 100
26, 288240, Note_on_c, 14, 54, 0
26, 288240, Note_on_c, 14, 57, 100
26, 288300, Note_on_c, 14, 57, 0
26, 288300, Note_on_c, 14, 59, 100
26, 288360, Note_on_c, 14, 59, 0
26, 288360, Note_on_c, 14, 47, 100
26, 288420, Note_on_c, 14, 47, 0
26, 288420, Note_on_c, 14, 45, 100
26, 288480, Note_on_c, 14, 45, 0
26, 288480, Note_on_c, 14, 57, 100
26, 288540, Note_on_c, 14, 57, 0
26, 288540, Note_on_c, 14, 55, 100
26, 288600, Note_on_c, 14, 55, 0
26, 288600, Note_on_c, 14, 43, 100
26, 288660, Note_on_c, 14, 43, 0
26, 288660, Note_on_c, 14, 43, 100
26, 288720, Note_on_c, 14, 43, 0
26, 288720, Note_on_c, 14, 55, 100
26, 288750, Note_on_c, 14, 55, 0
26, 288750, Note_on_c, 14, 54, 100
26, 288780, Note_on_c, 14, 54, 0
26, 288780, Note_on_c, 14, 55, 100
26, 288840, Note_on_c, 14, 55, 0
26, 288840, Note_on_c, 14, 52, 100
26, 288900, Note_on_c, 14, 52, 0
26, 288900, Note_on_c, 14, 49, 100
26, 288960, Note_on_c, 14, 49, 0
26, 288960, Note_on_c, 14, 45, 100
26, 289020, Note_on_c, 14, 45, 0
26, 289020, Note_on_c, 14, 50, 100
26, 289080, Note_on_c, 14, 50, 0
26, 289080, Note_on_c, 14, 62, 100
26, 289110, Note_on_c, 14, 62, 0
26, 289110, Note_on_c, 14, 61, 100
26, 289140, Note_on_c, 14, 61, 0
26, 289140, Note_on_c, 14, 62, 100
26, 289200, Note_on_c, 14, 62, 0
26, 289200, Note_on_c, 14, 55, 100
26, 289260, Note_on_c, 14, 55, 0
26, 289260, Note_on_c, 14, 57, 100
26, 289320, Note_on_c, 14, 57, 0
26, 289320, Note_on_c, 14, 45, 100
26, 289380, Note_on_c, 14, 45, 0
26, 289380, Note_on_c, 14, 50, 100
26, 289440, Note_on_c, 14, 50, 0
26, 289440, Note_on_c, 14, 38, 100
26, 289500, Note_on_c, 14, 38, 0
26, 289500, Note_on_c, 14, 50, 100
26, 289560, Note_on_c, 14, 50, 0
26, 289560, Note_on_c, 14, 54, 100
26, 289590, Note_on_c, 14, 54, 0
26, 289590, Note_on_c, 14, 52, 100
26, 289620, Note_on_c, 14, 52, 0
26, 289620, Note_on_c, 14, 50, 100
26, 289680, Note_on_c, 14, 50, 0
26, 289680, Note_on_c, 14, 52, 100
26, 289710, Note_on_c, 14, 52, 0
26, 289710, Note_on_c, 14, 54, 100
26, 289740, Note_on_c, 14, 54, 0
26, 289740, Note_on_c, 14, 55, 100
26, 289800, Note_on_c, 14, 55, 0
26, 289800, Note_on_c, 14, 43, 100
26, 289860, Note_on_c, 14, 43, 0
26, 289860, Note_on_c, 14, 43, 100
26, 289920, Note_on_c, 14, 43, 0
26, 289920, Note_on_c, 14, 55, 100
26, 289950, Note_on_c, 14, 55, 0
26, 289950, Note_on_c, 14, 54, 100
26, 289980, Note_on_c, 14, 54, 0
26, 289980, Note_on_c, 14, 55, 100
26, 290040, Note_on_c, 14, 55, 0
26, 290040, Note_on_c, 14, 50, 100
26, 290100, Note_on_c, 14, 50, 0
26, 290100, Note_on_c, 14, 47, 100
26, 290160, Note_on_c, 14, 47, 0
26, 290160, Note_on_c, 14, 43, 100
26, 290190, Note_on_c, 14, 43, 0
26, 290190, Note_on_c, 14, 42, 100
26, 290220, Note_on_c, 14, 42, 0
26, 290220, Note_on_c, 14, 43, 100
26, 290280, Note_on_c, 14, 43, 0
26, 290280, Note_on_c, 14, 45, 100
26, 290340, Note_on_c, 14, 45, 0
26, 290340, Note_on_c, 14, 47, 100
26, 290400, Note_on_c, 14, 47, 0
26, 290400, Note_on_c, 14, 50, 100
26, 290430, Note_on_c, 14, 50, 0
26, 290430, Note_on_c, 14, 48, 100
26, 290460, Note_on_c, 14, 48, 0
26, 290460, Note_on_c, 14, 47, 100
26, 290520, Note_on_c, 14, 47, 0
26, 290520, Note_on_c, 14, 45, 100
26, 290550, Note_on_c, 14, 45, 0
26, 290550, Note_on_c, 14, 47, 100
26, 290580, Note_on_c, 14, 47, 0
26, 290580, Note_on_c, 14, 48, 100
26, 290640, Note_on_c, 14, 48, 0
26, 290640, Note_on_c, 14, 45, 100
26, 290700, Note_on_c, 14, 45, 0
26, 290700, Note_on_c, 14, 42, 100
26, 290760, Note_on_c, 14, 42, 0
26, 290760, Note_on_c, 14, 43, 100
26, 290820, Note_on_c, 14, 43, 0
26, 290820, Note_on_c, 14, 38, 100
26, 290880, Note_on_c, 14, 38, 0
26, 290880, Note_on_c, 14, 50, 100
26, 290940, Note_on_c, 14, 50, 0
26, 290940, Note_on_c, 14, 54, 100
26, 291000, Note_on_c, 14, 54, 0
26, 291000, Note_on_c, 14, 57, 100
26, 291060, Note_on_c, 14, 57, 0
26, 291060, Note_on_c, 14, 54, 100
26, 291120, Note_on_c, 14, 54, 0
26, 291120, Note_on_c, 14, 50, 100
26, 291180, Note_on_c, 14, 50, 0
26, 291180, Note_on_c, 14, 55, 100
26, 291239, Note_on_c, 14, 55, 0
26, 291240, Note_on_c, 14, 50, 100
26, 291299, Note_on_c, 14, 50, 0
26, 291300, Note_on_c, 14, 55, 100
26, 291359, Note_on_c, 14, 55, 0
26, 291360, Note_on_c, 14, 59, 100
26, 291389, Note_on_c, 14, 59, 0
26, 291390, Note_on_c, 14, 57, 100
26, 291419, Note_on_c, 14, 57, 0
26, 291420, Note_on_c, 14, 55, 100
26, 291479, Note_on_c, 14, 55, 0
26, 291480, Note_on_c, 14, 50, 100
26, 291539, Note_on_c, 14, 50, 0
26, 291540, Note_on_c, 14, 47, 100
26, 291599, Note_on_c, 14, 47, 0
26, 291600, Note_on_c, 14, 43, 100
26, 291659, Note_on_c, 14, 43, 0
26, 291660, Note_on_c, 14, 47, 100
26, 291719, Note_on_c, 14, 47, 0
26, 291720, Note_on_c, 14, 50, 100
26, 291779, Note_on_c, 14, 50, 0
26, 291780, Note_on_c, 14, 55, 100
26, 291839, Note_on_c, 14, 55, 0
26, 291840, Note_on_c, 14, 57, 100
26, 291869, Note_on_c, 14, 57, 0
26, 291870, Note_on_c, 14, 59, 100
26, 291899, Note_on_c, 14, 59, 0
26, 291900, Note_on_c, 14, 60, 100
26, 291959, Note_on_c, 14, 60, 0
26, 291960, Note_on_c, 14, 60, 100
26, 291989, Note_on_c, 14, 60, 0
26, 291990, Note_on_c, 14, 59, 100
26, 292019, Note_on_c, 14, 59, 0
26, 292020, Note_on_c, 14, 60, 100
26, 292079, Note_on_c, 14, 60, 0
26, 292080, Note_on_c, 14, 55, 100
26, 292139, Note_on_c, 14, 55, 0
26, 292140, Note_on_c, 14, 55, 100
26, 292199, Note_on_c, 14, 55, 0
26, 292200, Note_on_c, 14, 60, 100
26, 292259, Note_on_c, 14, 60, 0
26, 292260, Note_on_c, 14, 59, 100
26, 292319, Note_on_c, 14, 59, 0
26, 292320, Note_on_c, 14, 59, 100
26, 292349, Note_on_c, 14, 59, 0
26, 292350, Note_on_c, 14, 57, 100
26, 292379, Note_on_c, 14, 57, 0
26, 292380, Note_on_c, 14, 59, 100
26, 292439, Note_on_c, 14, 59, 0
26, 292440, Note_on_c, 14, 55, 100
26, 292499, Note_on_c, 14, 55, 0
26, 292500, Note_on_c, 14, 55, 100
26, 292559, Note_on_c, 14, 55, 0
26, 292560, Note_on_c, 14, 59, 100
26, 292619, Note_on_c, 14, 59, 0
26, 292620, Note_on_c, 14, 57, 100
26, 292679, Note_on_c, 14, 57, 0
26, 292680, Note_on_c, 14, 60, 100
26, 292739, Note_on_c, 14, 60, 0
26, 292740, Note_on_c, 14, 59, 100
26, 292799, Note_on_c, 14, 59, 0
26, 292800, Note_on_c, 14, 55, 100
26, 292859, Note_on_c, 14, 55, 0
26, 292860, Note_on_c, 14, 54, 100
26, 292919, Note_on_c, 14, 54, 0
26, 292920, Note_on_c, 14, 55, 100
26, 292979, Note_on_c, 14, 55, 0
26, 292980, Note_on_c, 14, 50, 100
26, 293039, Note_on_c, 14, 50, 0
26, 293040, Note_on_c, 14, 38, 100
26, 293099, Note_on_c, 14, 38, 0
26, 293100, Note_on_c, 14, 38, 100
26, 293159, Note_on_c, 14, 38, 0
26, 293160, Note_on_c, 14, 50, 100
26, 293189, Note_on_c, 14, 50, 0
26, 293190, Note_on_c, 14, 49, 100
26, 293219, Note_on_c, 14, 49, 0
26, 293220, Note_on_c, 14, 50, 100
26, 293279, Note_on_c, 14, 50, 0
26, 293280, Note_on_c, 14, 55, 100
26, 293339, Note_on_c, 14, 55, 0
26, 293340, Note_on_c, 14, 54, 100
26, 293399, Note_on_c, 14, 54, 0
26, 293400, Note_on_c, 14, 57, 100
26, 293429, Note_on_c, 14, 57, 0
26, 293430, Note_on_c, 14, 55, 100
26, 293459, Note_on_c, 14, 55, 0
26, 293460, Note_on_c, 14, 57, 100
26, 293519, Note_on_c, 14, 57, 0
26, 293520, Note_on_c, 14, 54, 100
26, 293579, Note_on_c, 14, 54, 0
26, 293580, Note_on_c, 14, 54, 100
26, 293639, Note_on_c, 14, 54, 0
26, 293640, Note_on_c, 14, 57, 100
26, 293699, Note_on_c, 14, 57, 0
26, 293700, Note_on_c, 14, 50, 100
26, 293759, Note_on_c, 14, 50, 0
26, 293760, Note_on_c, 14, 54, 100
26, 293789, Note_on_c, 14, 54, 0
26, 293790, Note_on_c, 14, 52, 100
26, 293819, Note_on_c, 14, 52, 0
26, 293820, Note_on_c, 14, 54, 100
26, 293879, Note_on_c, 14, 54, 0
26, 293880, Note_on_c, 14, 50, 100
26, 293939, Note_on_c, 14, 50, 0
26, 293940, Note_on_c, 14, 50, 100
26, 293999, Note_on_c, 14, 50, 0
26, 294000, Note_on_c, 14, 54, 100
26, 294059, Note_on_c, 14, 54, 0
26, 294060, Note_on_c, 14, 50, 100
26, 294119, Note_on_c, 14, 50, 0
26, 294120, Note_on_c, 14, 52, 100
26, 294179, Note_on_c, 14, 52, 0
26, 294180, Note_on_c, 14, 54, 100
26, 294239, Note_on_c, 14, 54, 0
26, 294240, Note_on_c, 14, 55, 100
26, 294299, Note_on_c, 14, 55, 0
26, 294300, Note_on_c, 14, 54, 100
26, 294359, Note_on_c, 14, 54, 0
26, 294360, Note_on_c, 14, 52, 100
26, 294419, Note_on_c, 14, 52, 0
26, 294420, Note_on_c, 14, 54, 100
26, 294479, Note_on_c, 14, 54, 0
26, 294480, Note_on_c, 14, 50, 100
26, 294539, Note_on_c, 14, 50, 0
26, 294540, Note_on_c, 14, 49, 100
26, 294599, Note_on_c, 14, 49, 0
26, 294600, Note_on_c, 14, 52, 100
26, 294629, Note_on_c, 14, 52, 0
26, 294630, Note_on_c, 14, 50, 100
26, 294659, Note_on_c, 14, 50, 0
26, 294660, Note_on_c, 14, 52, 100
26, 294719, Note_on_c, 14, 52, 0
26, 294720, Note_on_c, 14, 49, 100
26, 294779, Note_on_c, 14, 49, 0
26, 294780, Note_on_c, 14, 45, 100
26, 294839, Note_on_c, 14, 45, 0
26, 294840, Note_on_c, 14, 49, 100
26, 294869, Note_on_c, 14, 49, 0
26, 294870, Note_on_c, 14, 47, 100
26, 294899, Note_on_c, 14, 47, 0
26, 294900, Note_on_c, 14, 49, 100
26, 294959, Note_on_c, 14, 49, 0
26, 294960, Note_on_c, 14, 52, 100
26, 295019, Note_on_c, 14, 52, 0
26, 295020, Note_on_c, 14, 49, 100
26, 295079, Note_on_c, 14, 49, 0
26, 295080, Note_on_c, 14, 45, 100
26, 295139, Note_on_c, 14, 45, 0
26, 295140, Note_on_c, 14, 50, 100
26, 295199, Note_on_c, 14, 50, 0
26, 295200, Note_on_c, 14, 38, 100
26, 295259, Note_on_c, 14, 38, 0
26, 295260, Note_on_c, 14, 38, 100
26, 295319, Note_on_c, 14, 38, 0
26, 295320, Note_on_c, 14, 45, 100
26, 295379, Note_on_c, 14, 45, 0
26, 295380, Note_on_c, 14, 50, 100
26, 295439, Note_on_c, 14, 50, 0
26, 295440, Note_on_c, 14, 52, 100
26, 295469, Note_on_c, 14, 52, 0
26, 295470, Note_on_c, 14, 54, 100
26, 295499, Note_on_c, 14, 54, 0
26, 295500, Note_on_c, 14, 55, 100
26, 295559, Note_on_c, 14, 55, 0
26, 295560, Note_on_c, 14, 55, 100
26, 295589, Note_on_c, 14, 55, 0
26, 295590, Note_on_c, 14, 54, 100
26, 295619, Note_on_c, 14, 54, 0
26, 295620, Note_on_c, 14, 55, 100
26, 295679, Note_on_c, 14, 55, 0
26, 295680, Note_on_c, 14, 54, 100
26, 295739, Note_on_c, 14, 54, 0
26, 295740, Note_on_c, 14, 52, 100
26, 295799, Note_on_c, 14, 52, 0
26, 295800, Note_on_c, 14, 55, 100
26, 295859, Note_on_c, 14, 55, 0
26, 295860, Note_on_c, 14, 54, 100
26, 295919, Note_on_c, 14, 54, 0
26, 295920, Note_on_c, 14, 54, 100
26, 295949, Note_on_c, 14, 54, 0
26, 295950, Note_on_c, 14, 52, 100
26, 295979, Note_on_c, 14, 52, 0
26, 295980, Note_on_c, 14, 54, 100
26, 296039, Note_on_c, 14, 54, 0
26, 296040, Note_on_c, 14, 52, 100
26, 296099, Note_on_c, 14, 52, 0
26, 296100, Note_on_c, 14, 50, 100
26, 296159, Note_on_c, 14, 50, 0
26, 296160, Note_on_c, 14, 54, 100
26, 296219, Note_on_c, 14, 54, 0
26, 296220, Note_on_c, 14, 49, 100
26, 296279, Note_on_c, 14, 49, 0
26, 296280, Note_on_c, 14, 45, 100
26, 296339, Note_on_c, 14, 45, 0
26, 296340, Note_on_c, 14, 47, 100
26, 296399, Note_on_c, 14, 47, 0
26, 296400, Note_on_c, 14, 49, 100
26, 296459, Note_on_c, 14, 49, 0
26, 296460, Note_on_c, 14, 50, 100
26, 296519, Note_on_c, 14, 50, 0
26, 296520, Note_on_c, 14, 43, 100
26, 296579, Note_on_c, 14, 43, 0
26, 296580, Note_on_c, 14, 45, 100
26, 296639, Note_on_c, 14, 45, 0
26, 296640, Note_on_c, 14, 57, 100
26, 296669, Note_on_c, 14, 57, 0
26, 296670, Note_on_c, 14, 55, 100
26, 296699, Note_on_c, 14, 55, 0
26, 296700, Note_on_c, 14, 57, 100
26, 296759, Note_on_c, 14, 57, 0
26, 296760, Note_on_c, 14, 55, 100
26, 296819, Note_on_c, 14, 55, 0
26, 296820, Note_on_c, 14, 54, 100
26, 296879, Note_on_c, 14, 54, 0
26, 296880, Note_on_c, 14, 50, 100
26, 296939, Note_on_c, 14, 50, 0
26, 296940, Note_on_c, 14, 59, 100
26, 296999, Note_on_c, 14, 59, 0
26, 297000, Note_on_c, 14, 57, 100
26, 297059, Note_on_c, 14, 57, 0
26, 297060, Note_on_c, 14, 55, 100
26, 297119, Note_on_c, 14, 55, 0
26, 297120, Note_on_c, 14, 59, 100
26, 297179, Note_on_c, 14, 59, 0
26, 297180, Note_on_c, 14, 57, 100
26, 297239, Note_on_c, 14, 57, 0
26, 297240, Note_on_c, 14, 59, 100
26, 297269, Note_on_c, 14, 59, 0
26, 297270, Note_on_c, 14, 61, 100
26, 297299, Note_on_c, 14, 61, 0
26, 297300, Note_on_c, 14, 62, 100
26, 297359, Note_on_c, 14, 62, 0
26, 297360, Note_on_c, 14, 61, 100
26, 297419, Note_on_c, 14, 61, 0
26, 297420, Note_on_c, 14, 59, 100
26, 297479, Note_on_c, 14, 59, 0
26, 297480, Note_on_c, 14, 61, 100
26, 297509, Note_on_c, 14, 61, 0
26, 297510, Note_on_c, 14, 62, 100
26, 297539, Note_on_c, 14, 62, 0
26, 297540, Note_on_c, 14, 64, 100
26, 297599, Note_on_c, 14, 64, 0
26, 297600, Note_on_c, 14, 62, 100
26, 297659, Note_on_c, 14, 62, 0
26, 297660, Note_on_c, 14, 61, 100
26, 297719, Note_on_c, 14, 61, 0
26, 297720, Note_on_c, 14, 57, 100
26, 297779, Note_on_c, 14, 57, 0
26, 297780, Note_on_c, 14, 62, 100
26, 297839, Note_on_c, 14, 62, 0
26, 297840, Note_on_c, 14, 55, 100
26, 297899, Note_on_c, 14, 55, 0
26, 297900, Note_on_c, 14, 57, 100
26, 297959, Note_on_c, 14, 57, 0
26, 297960, Note_on_c, 14, 45, 100
26, 298019, Note_on_c, 14, 45, 0
26, 298020, Note_on_c, 14, 50, 100
26, 298079, Note_on_c, 14, 50, 0
26, 298080, Note_on_c, 14, 38, 100
26, 298139, Note_on_c, 14, 38, 0
26, 298140, Note_on_c, 14, 50, 100
26, 298199, Note_on_c, 14, 50, 0
26, 298200, Note_on_c, 14, 52, 100
26, 298259, Note_on_c, 14, 52, 0
26, 298260, Note_on_c, 14, 54, 100
26, 298319, Note_on_c, 14, 54, 0
26, 298320, Note_on_c, 14, 50, 100
26, 298379, Note_on_c, 14, 50, 0
26, 298380, Note_on_c, 14, 50, 100
26, 298439, Note_on_c, 14, 50, 0
26, 298440, Note_on_c, 14, 55, 100
26, 298469, Note_on_c, 14, 55, 0
26, 298470, Note_on_c, 14, 54, 100
26, 298499, Note_on_c, 14, 54, 0
26, 298500, Note_on_c, 14, 55, 100
26, 298559, Note_on_c, 14, 55, 0
26, 298560, Note_on_c, 14, 50, 100
26, 298619, Note_on_c, 14, 50, 0
26, 298620, Note_on_c, 14, 50, 100
26, 298679, Note_on_c, 14, 50, 0
26, 298680, Note_on_c, 14, 50, 100
26, 298739, Note_on_c, 14, 50, 0
26, 298740, Note_on_c, 14, 50, 100
26, 298799, Note_on_c, 14, 50, 0
26, 298800, Note_on_c, 14, 54, 100
26, 298829, Note_on_c, 14, 54, 0
26, 298830, Note_on_c, 14, 52, 100
26, 298859, Note_on_c, 14, 52, 0
26, 298860, Note_on_c, 14, 54, 100
26, 298919, Note_on_c, 14, 54, 0
26, 298920, Note_on_c, 14, 47, 100
26, 298979, Note_on_c, 14, 47, 0
26, 298980, Note_on_c, 14, 47, 100
26, 299039, Note_on_c, 14, 47, 0
26, 299040, Note_on_c, 14, 47, 100
26, 299099, Note_on_c, 14, 47, 0
26, 299100, Note_on_c, 14, 47, 100
26, 299159, Note_on_c, 14, 47, 0
26, 299160, Note_on_c, 14, 52, 100
26, 299189, Note_on_c, 14, 52, 0
26, 299190, Note_on_c, 14, 50, 100
26, 299219, Note_on_c, 14, 50, 0
26, 299220, Note_on_c, 14, 52, 100
26, 299279, Note_on_c, 14, 52, 0
26, 299280, Note_on_c, 14, 49, 100
26, 299339, Note_on_c, 14, 49, 0
26, 299340, Note_on_c, 14, 45, 100
26, 299399, Note_on_c, 14, 45, 0
26, 299400, Note_on_c, 14, 49, 100
26, 299459, Note_on_c, 14, 49, 0
26, 299460, Note_on_c, 14, 50, 100
26, 299519, Note_on_c, 14, 50, 0
26, 299520, Note_on_c, 14, 38, 100
26, 299579, Note_on_c, 14, 38, 0
26, 299580, Note_on_c, 14, 50, 100
26, 299639, Note_on_c, 14, 50, 0
26, 299640, Note_on_c, 14, 54, 100
26, 299669, Note_on_c, 14, 54, 0
26, 299670, Note_on_c, 14, 52, 100
26, 299699, Note_on_c, 14, 52, 0
26, 299700, Note_on_c, 14, 50, 100
26, 299759, Note_on_c, 14, 50, 0
26, 299760, Note_on_c, 14, 49, 100
26, 299819, Note_on_c, 14, 49, 0
26, 299820, Note_on_c, 14, 47, 100
26, 299879, Note_on_c, 14, 47, 0
26, 299880, Note_on_c, 14, 59, 100
26, 299939, Note_on_c, 14, 59, 0
26, 299940, Note_on_c, 14, 57, 100
26, 299999, Note_on_c, 14, 57, 0
26, 300000, Note_on_c, 14, 45, 100
26, 300059, Note_on_c, 14, 45, 0
26, 300060, Note_on_c, 14, 43, 100
26, 300119, Note_on_c, 14, 43, 0
26, 300120, Note_on_c, 14, 55, 100
26, 300179, Note_on_c, 14, 55, 0
26, 300180, Note_on_c, 14, 55, 100
26, 300239, Note_on_c, 14, 55, 0
26, 300240, Note_on_c, 14, 49, 100
26, 300269, Note_on_c, 14, 49, 0
26, 300270, Note_on_c, 14, 47, 100
26, 300299, Note_on_c, 14, 47, 0
26, 300300, Note_on_c, 14, 49, 100
26, 300359, Note_on_c, 14, 49, 0
26, 300360, Note_on_c, 14, 52, 100
26, 300419, Note_on_c, 14, 52, 0
26, 300420, Note_on_c, 14, 45, 100
26, 300479, Note_on_c, 14, 45, 0
26, 300480, Note_on_c, 14, 49, 100
26, 300539, Note_on_c, 14, 49, 0
26, 300540, Note_on_c, 14, 50, 100
26, 300599, Note_on_c, 14, 50, 0
26, 300600, Note_on_c, 14, 62, 100
26, 300629, Note_on_c, 14, 62, 0
26, 300630, Note_on_c, 14, 61, 100
26, 300659, Note_on_c, 14, 61, 0
26, 300660, Note_on_c, 14, 62, 100
26, 300719, Note_on_c, 14, 62, 0
26, 300720, Note_on_c, 14, 55, 100
26, 300779, Note_on_c, 14, 55, 0
26, 300780, Note_on_c, 14, 57, 100
26, 300839, Note_on_c, 14, 57, 0
26, 300840, Note_on_c, 14, 45, 100
26, 300899, Note_on_c, 14, 45, 0
26, 300900, Note_on_c, 14, 50, 100
26, 300959, Note_on_c, 14, 50, 0
26, 300960, Note_on_c, 14, 38, 100
26, 301019, Note_on_c, 14, 38, 0
26, 301020, Note_on_c, 14, 38, 100
26, 301079, Note_on_c, 14, 38, 0
26, 301080, Note_on_c, 14, 50, 100
26, 301109, Note_on_c, 14, 50, 0
26, 301110, Note_on_c, 14, 52, 100
26, 301139, Note_on_c, 14, 52, 0
26, 301140, Note_on_c, 14, 54, 100
26, 301199, Note_on_c, 14, 54, 0
26, 301200, Note_on_c, 14, 50, 100
26, 301259, Note_on_c, 14, 50, 0
26, 301260, Note_on_c, 14, 47, 100
26, 301319, Note_on_c, 14, 47, 0
26, 301320, Note_on_c, 14, 43, 100
26, 301349, Note_on_c, 14, 43, 0
26, 301350, Note_on_c, 14, 45, 100
26, 301379, Note_on_c, 14, 45, 0
26, 301380, Note_on_c, 14, 47, 100
26, 301439, Note_on_c, 14, 47, 0
26, 301440, Note_on_c, 14, 50, 100
26, 301499, Note_on_c, 14, 50, 0
26, 301500, Note_on_c, 14, 55, 100
26, 301559, Note_on_c, 14, 55, 0
26, 301560, Note_on_c, 14, 57, 100
26, 301589, Note_on_c, 14, 57, 0
26, 301590, Note_on_c, 14, 59, 100
26, 301619, Note_on_c, 14, 59, 0
26, 301620, Note_on_c, 14, 60, 100
26, 301679, Note_on_c, 14, 60, 0
26, 301680, Note_on_c, 14, 48, 100
26, 301739, Note_on_c, 14, 48, 0
26, 301740, Note_on_c, 14, 48, 100
26, 301799, Note_on_c, 14, 48, 0
26, 301800, Note_on_c, 14, 60, 100
26, 301829, Note_on_c, 14, 60, 0
26, 301830, Note_on_c, 14, 62, 100
26, 301859, Note_on_c, 14, 62, 0
26, 301860, Note_on_c, 14, 60, 100
26, 301919, Note_on_c, 14, 60, 0
26, 301920, Note_on_c, 14, 59, 100
26, 301979, Note_on_c, 14, 59, 0
26, 301980, Note_on_c, 14, 57, 100
26, 302039, Note_on_c, 14, 57, 0
26, 302040, Note_on_c, 14, 52, 100
26, 302099, Note_on_c, 14, 52, 0
26, 302100, Note_on_c, 14, 53, 100
26, 302159, Note_on_c, 14, 53, 0
26, 302160, Note_on_c, 14, 48, 100
26, 302219, Note_on_c, 14, 48, 0
26, 302220, Note_on_c, 14, 50, 100
26, 302279, Note_on_c, 14, 50, 0
26, 302280, Note_on_c, 14, 52, 100
26, 302339, Note_on_c, 14, 52, 0
26, 302340, Note_on_c, 14, 45, 100
26, 302399, Note_on_c, 14, 45, 0
26, 302400, Note_on_c, 14, 57, 100
26, 302459, Note_on_c, 14, 57, 0
26, 302460, Note_on_c, 14, 57, 100
26, 302519, Note_on_c, 14, 57, 0
26, 302520, Note_on_c, 14, 45, 100
26, 302549, Note_on_c, 14, 45, 0
26, 302550, Note_on_c, 14, 44, 100
26, 302579, Note_on_c, 14, 44, 0
26, 302580, Note_on_c, 14, 45, 100
26, 302639, Note_on_c, 14, 45, 0
26, 302760, Note_on_c, 14, 57, 100
26, 302819, Note_on_c, 14, 57, 0
26, 302820, Note_on_c, 14, 57, 100
26, 302879, Note_on_c, 14, 57, 0
26, 302880, Note_on_c, 14, 45, 100
26, 302909, Note_on_c, 14, 45, 0
26, 302910, Note_on_c, 14, 44, 100
26, 302939, Note_on_c, 14, 44, 0
26, 302940, Note_on_c, 14, 45, 100
26, 302999, Note_on_c, 14, 45, 0
26, 303120, Note_on_c, 14, 57, 100
26, 303149, Note_on_c, 14, 57, 0
26, 303150, Note_on_c, 14, 56, 100
26, 303179, Note_on_c, 14, 56, 0
26, 303180, Note_on_c, 14, 57, 100
26, 303239, Note_on_c, 14, 57, 0
26, 303240, Note_on_c, 14, 45, 100
26, 303299, Note_on_c, 14, 45, 0
26, 303300, Note_on_c, 14, 50, 100
26, 303359, Note_on_c, 14, 50, 0
26, 303360, Note_on_c, 14, 38, 100
26, 303419, Note_on_c, 14, 38, 0
26, 303420, Note_on_c, 14, 43, 100
26, 303479, Note_on_c, 14, 43, 0
26, 303480, Note_on_c, 14, 55, 100
26, 303509, Note_on_c, 14, 55, 0
26, 303510, Note_on_c, 14, 54, 100
26, 303539, Note_on_c, 14, 54, 0
26, 303540, Note_on_c, 14, 52, 100
26, 303599, Note_on_c, 14, 52, 0
26, 303600, Note_on_c, 14, 60, 100
26, 303659, Note_on_c, 14, 60, 0
26, 303660, Note_on_c, 14, 54, 100
26, 303719, Note_on_c, 14, 54, 0
26, 303720, Note_on_c, 14, 57, 100
26, 303779, Note_on_c, 14, 57, 0
26, 303780, Note_on_c, 14, 59, 100
26, 303839, Note_on_c, 14, 59, 0
26, 303840, Note_on_c, 14, 47, 100
26, 303899, Note_on_c, 14, 47, 0
26, 303900, Note_on_c, 14, 47, 100
26, 303959, Note_on_c, 14, 47, 0
26, 303960, Note_on_c, 14, 59, 100
26, 303989, Note_on_c, 14, 59, 0
26, 303990, Note_on_c, 14, 57, 100
26, 304019, Note_on_c, 14, 57, 0
26, 304020, Note_on_c, 14, 59, 100
26, 304079, Note_on_c, 14, 59, 0
26, 304080, Note_on_c, 14, 54, 100
26, 304139, Note_on_c, 14, 54, 0
26, 304140, Note_on_c, 14, 55, 100
26, 304199, Note_on_c, 14, 55, 0
26, 304200, Note_on_c, 14, 47, 100
26, 304259, Note_on_c, 14, 47, 0
26, 304260, Note_on_c, 14, 47, 100
26, 304319, Note_on_c, 14, 47, 0
26, 304320, Note_on_c, 14, 55, 100
26, 304349, Note_on_c, 14, 55, 0
26, 304350, Note_on_c, 14, 54, 100
26, 304379, Note_on_c, 14, 54, 0
26, 304380, Note_on_c, 14, 55, 100
26, 304439, Note_on_c, 14, 55, 0
26, 304440, Note_on_c, 14, 52, 100
26, 304499, Note_on_c, 14, 52, 0
26, 304500, Note_on_c, 14, 51, 100
26, 304559, Note_on_c, 14, 51, 0
26, 304560, Note_on_c, 14, 45, 100
26, 304619, Note_on_c, 14, 45, 0
26, 304620, Note_on_c, 14, 45, 100
26, 304679, Note_on_c, 14, 45, 0
26, 304680, Note_on_c, 14, 51, 100
26, 304709, Note_on_c, 14, 51, 0
26, 304710, Note_on_c, 14, 49, 100
26, 304739, Note_on_c, 14, 49, 0
26, 304740, Note_on_c, 14, 51, 100
26, 304799, Note_on_c, 14, 51, 0
26, 304800, Note_on_c, 14, 47, 100
26, 304859, Note_on_c, 14, 47, 0
26, 304860, Note_on_c, 14, 52, 100
26, 304919, Note_on_c, 14, 52, 0
26, 304920, Note_on_c, 14, 47, 100
26, 304979, Note_on_c, 14, 47, 0
26, 304980, Note_on_c, 14, 48, 100
26, 305039, Note_on_c, 14, 48, 0
26, 305040, Note_on_c, 14, 43, 100
26, 305099, Note_on_c, 14, 43, 0
26, 305100, Note_on_c, 14, 45, 100
26, 305159, Note_on_c, 14, 45, 0
26, 305160, Note_on_c, 14, 47, 100
26, 305219, Note_on_c, 14, 47, 0
26, 305220, Note_on_c, 14, 40, 100
26, 305279, Note_on_c, 14, 40, 0
26, 305280, Note_on_c, 14, 52, 100
26, 305339, Note_on_c, 14, 52, 0
26, 305340, Note_on_c, 14, 52, 100
26, 305399, Note_on_c, 14, 52, 0
26, 305400, Note_on_c, 14, 59, 100
26, 305429, Note_on_c, 14, 59, 0
26, 305430, Note_on_c, 14, 57, 100
26, 305459, Note_on_c, 14, 57, 0
26, 305460, Note_on_c, 14, 59, 100
26, 305519, Note_on_c, 14, 59, 0
26, 305520, Note_on_c, 14, 55, 100
26, 305579, Note_on_c, 14, 55, 0
26, 305580, Note_on_c, 14, 52, 100
26, 305639, Note_on_c, 14, 52, 0
26, 305640, Note_on_c, 14, 57, 100
26, 305669, Note_on_c, 14, 57, 0
26, 305670, Note_on_c, 14, 56, 100
26, 305699, Note_on_c, 14, 56, 0
26, 305700, Note_on_c, 14, 57, 100
26, 305759, Note_on_c, 14, 57, 0
26, 305760, Note_on_c, 14, 52, 100
26, 305819, Note_on_c, 14, 52, 0
26, 305820, Note_on_c, 14, 52, 100
26, 305879, Note_on_c, 14, 52, 0
26, 305880, Note_on_c, 14, 52, 100
26, 305939, Note_on_c, 14, 52, 0
26, 305940, Note_on_c, 14, 52, 100
26, 305999, Note_on_c, 14, 52, 0
26, 306000, Note_on_c, 14, 55, 100
26, 306029, Note_on_c, 14, 55, 0
26, 306030, Note_on_c, 14, 54, 100
26, 306059, Note_on_c, 14, 54, 0
26, 306060, Note_on_c, 14, 55, 100
26, 306119, Note_on_c, 14, 55, 0
26, 306120, Note_on_c, 14, 52, 100
26, 306179, Note_on_c, 14, 52, 0
26, 306180, Note_on_c, 14, 52, 100
26, 306239, Note_on_c, 14, 52, 0
26, 306240, Note_on_c, 14, 52, 100
26, 306299, Note_on_c, 14, 52, 0
26, 306300, Note_on_c, 14, 52, 100
26, 306359, Note_on_c, 14, 52, 0
26, 306360, Note_on_c, 14, 54, 100
26, 306389, Note_on_c, 14, 54, 0
26, 306390, Note_on_c, 14, 52, 100
26, 306419, Note_on_c, 14, 52, 0
26, 306420, Note_on_c, 14, 54, 100
26, 306479, Note_on_c, 14, 54, 0
26, 306480, Note_on_c, 14, 51, 100
26, 306539, Note_on_c, 14, 51, 0
26, 306540, Note_on_c, 14, 47, 100
26, 306599, Note_on_c, 14, 47, 0
26, 306600, Note_on_c, 14, 51, 100
26, 306659, Note_on_c, 14, 51, 0
26, 306660, Note_on_c, 14, 52, 100
26, 306719, Note_on_c, 14, 52, 0
26, 306720, Note_on_c, 14, 40, 100
26, 306779, Note_on_c, 14, 40, 0
26, 306780, Note_on_c, 14, 38, 100
26, 306839, Note_on_c, 14, 38, 0
26, 306840, Note_on_c, 14, 50, 100
26, 306899, Note_on_c, 14, 50, 0
26, 306900, Note_on_c, 14, 48, 100
26, 306959, Note_on_c, 14, 48, 0
26, 306960, Note_on_c, 14, 45, 100
26, 307019, Note_on_c, 14, 45, 0
26, 307020, Note_on_c, 14, 57, 100
26, 307079, Note_on_c, 14, 57, 0
26, 307080, Note_on_c, 14, 55, 100
26, 307109, Note_on_c, 14, 55, 0
26, 307110, Note_on_c, 14, 54, 100
26, 307139, Note_on_c, 14, 54, 0
26, 307140, Note_on_c, 14, 55, 100
26, 307199, Note_on_c, 14, 55, 0
26, 307200, Note_on_c, 14, 52, 100
26, 307259, Note_on_c, 14, 52, 0
26, 307260, Note_on_c, 14, 59, 100
26, 307319, Note_on_c, 14, 59, 0
26, 307320, Note_on_c, 14, 47, 100
26, 307379, Note_on_c, 14, 47, 0
26, 307380, Note_on_c, 14, 52, 100
26, 307439, Note_on_c, 14, 52, 0
26, 307440, Note_on_c, 14, 40, 100
26, 307499, Note_on_c, 14, 40, 0
26, 307500, Note_on_c, 14, 40, 100
26, 307559, Note_on_c, 14, 40, 0
26, 307560, Note_on_c, 14, 52, 100
26, 307589, Note_on_c, 14, 52, 0
26, 307590, Note_on_c, 14, 54, 100
26, 307619, Note_on_c, 14, 54, 0
26, 307620, Note_on_c, 14, 55, 100
26, 307679, Note_on_c, 14, 55, 0
26, 307680, Note_on_c, 14, 52, 100
26, 307739, Note_on_c, 14, 52, 0
26, 307740, Note_on_c, 14, 57, 100
26, 307799, Note_on_c, 14, 57, 0
26, 307800, Note_on_c, 14, 45, 100
26, 307859, Note_on_c, 14, 45, 0
26, 307860, Note_on_c, 14, 45, 100
26, 307919, Note_on_c, 14, 45, 0
26, 307920, Note_on_c, 14, 57, 100
26, 307949, Note_on_c, 14, 57, 0
26, 307950, Note_on_c, 14, 59, 100
26, 307979, Note_on_c, 14, 59, 0
26, 307980, Note_on_c, 14, 60, 100
26, 308039, Note_on_c, 14, 60, 0
26, 308040, Note_on_c, 14, 57, 100
26, 308099, Note_on_c, 14, 57, 0
26, 308100, Note_on_c, 14, 62, 100
26, 308159, Note_on_c, 14, 62, 0
26, 308160, Note_on_c, 14, 50, 100
26, 308219, Note_on_c, 14, 50, 0
26, 308220, Note_on_c, 14, 48, 100
26, 308279, Note_on_c, 14, 48, 0
26, 308280, Note_on_c, 14, 60, 100
26, 308339, Note_on_c, 14, 60, 0
26, 308340, Note_on_c, 14, 54, 100
26, 308399, Note_on_c, 14, 54, 0
26, 308400, Note_on_c, 14, 50, 100
26, 308459, Note_on_c, 14, 50, 0
26, 308460, Note_on_c, 14, 43, 100
26, 308519, Note_on_c, 14, 43, 0
26, 308520, Note_on_c, 14, 50, 100
26, 308579, Note_on_c, 14, 50, 0
26, 308580, Note_on_c, 14, 55, 100
26, 308639, Note_on_c, 14, 55, 0
26, 308640, Note_on_c, 14, 43, 100
26, 308699, Note_on_c, 14, 43, 0
26, 308700, Note_on_c, 14, 42, 100
26, 308759, Note_on_c, 14, 42, 0
26, 308760, Note_on_c, 14, 43, 100
26, 308819, Note_on_c, 14, 43, 0
26, 308820, Note_on_c, 14, 50, 100
26, 308879, Note_on_c, 14, 50, 0
26, 308880, Note_on_c, 14, 38, 100
26, 308939, Note_on_c, 14, 38, 0
26, 308940, Note_on_c, 14, 38, 100
26, 308999, Note_on_c, 14, 38, 0
26, 309000, Note_on_c, 14, 50, 100
26, 309029, Note_on_c, 14, 50, 0
26, 309030, Note_on_c, 14, 52, 100
26, 309059, Note_on_c, 14, 52, 0
26, 309060, Note_on_c, 14, 50, 100
26, 309119, Note_on_c, 14, 50, 0
26, 309120, Note_on_c, 14, 48, 100
26, 309179, Note_on_c, 14, 48, 0
26, 309180, Note_on_c, 14, 47, 100
26, 309239, Note_on_c, 14, 47, 0
26, 309240, Note_on_c, 14, 38, 100
26, 309299, Note_on_c, 14, 38, 0
26, 309300, Note_on_c, 14, 38, 100
26, 309359, Note_on_c, 14, 38, 0
26, 309360, Note_on_c, 14, 48, 100
26, 309389, Note_on_c, 14, 48, 0
26, 309390, Note_on_c, 14, 47, 100
26, 309419, Note_on_c, 14, 47, 0
26, 309420, Note_on_c, 14, 45, 100
26, 309479, Note_on_c, 14, 45, 0
26, 309480, Note_on_c, 14, 43, 100
26, 309539, Note_on_c, 14, 43, 0
26, 309540, Note_on_c, 14, 50, 100
26, 309599, Note_on_c, 14, 50, 0
26, 309600, Note_on_c, 14, 38, 100
26, 309659, Note_on_c, 14, 38, 0
26, 309660, Note_on_c, 14, 38, 100
26, 309719, Note_on_c, 14, 38, 0
26, 309720, Note_on_c, 14, 54, 100
26, 309749, Note_on_c, 14, 54, 0
26, 309750, Note_on_c, 14, 52, 100
26, 309779, Note_on_c, 14, 52, 0
26, 309780, Note_on_c, 14, 50, 100
26, 309839, Note_on_c, 14, 50, 0
26, 309840, Note_on_c, 14, 48, 100
26, 309899, Note_on_c, 14, 48, 0
26, 309900, Note_on_c, 14, 47, 100
26, 309959, Note_on_c, 14, 47, 0
26, 309960, Note_on_c, 14, 52, 100
26, 310019, Note_on_c, 14, 52, 0
26, 310020, Note_on_c, 14, 50, 100
26, 310079, Note_on_c, 14, 50, 0
26, 310080, Note_on_c, 14, 48, 100
26, 310139, Note_on_c, 14, 48, 0
26, 310140, Note_on_c, 14, 50, 100
26, 310199, Note_on_c, 14, 50, 0
26, 310200, Note_on_c, 14, 38, 100
26, 310259, Note_on_c, 14, 38, 0
26, 310260, Note_on_c, 14, 43, 100
26, 310319, Note_on_c, 14, 43, 0
26, 310320, Note_on_c, 14, 55, 100
26, 310379, Note_on_c, 14, 55, 0
26, 310380, Note_on_c, 14, 55, 100
26, 310439, Note_on_c, 14, 55, 0
26, 310440, Note_on_c, 14, 43, 100
26, 310499, Note_on_c, 14, 43, 0
26, 310500, Note_on_c, 14, 42, 100
26, 310559, Note_on_c, 14, 42, 0
26, 310560, Note_on_c, 14, 43, 100
26, 310619, Note_on_c, 14, 43, 0
26, 310620, Note_on_c, 14, 50, 100
26, 310679, Note_on_c, 14, 50, 0
26, 310680, Note_on_c, 14, 38, 100
26, 310739, Note_on_c, 14, 38, 0
26, 310740, Note_on_c, 14, 38, 100
26, 310799, Note_on_c, 14, 38, 0
26, 310800, Note_on_c, 14, 54, 100
26, 310829, Note_on_c, 14, 54, 0
26, 310830, Note_on_c, 14, 52, 100
26, 310859, Note_on_c, 14, 52, 0
26, 310860, Note_on_c, 14, 54, 100
26, 310919, Note_on_c, 14, 54, 0
26, 310920, Note_on_c, 14, 50, 100
26, 310979, Note_on_c, 14, 50, 0
26, 310980, Note_on_c, 14, 55, 100
26, 311039, Note_on_c, 14, 55, 0
26, 311040, Note_on_c, 14, 43, 100
26, 311099, Note_on_c, 14, 43, 0
26, 311100, Note_on_c, 14, 43, 100
26, 311159, Note_on_c, 14, 43, 0
26, 311160, Note_on_c, 14, 45, 100
26, 311189, Note_on_c, 14, 45, 0
26, 311190, Note_on_c, 14, 47, 100
26, 311219, Note_on_c, 14, 47, 0
26, 311220, Note_on_c, 14, 48, 100
26, 311279, Note_on_c, 14, 48, 0
26, 311280, Note_on_c, 14, 45, 100
26, 311339, Note_on_c, 14, 45, 0
26, 311340, Note_on_c, 14, 42, 100
26, 311399, Note_on_c, 14, 42, 0
26, 311400, Note_on_c, 14, 43, 100
26, 311429, Note_on_c, 14, 43, 0
26, 311430, Note_on_c, 14, 42, 100
26, 311459, Note_on_c, 14, 42, 0
26, 311460, Note_on_c, 14, 40, 100
26, 311519, Note_on_c, 14, 40, 0
26, 311520, Note_on_c, 14, 47, 100
26, 311579, Note_on_c, 14, 47, 0
26, 311580, Note_on_c, 14, 48, 100
26, 311639, Note_on_c, 14, 48, 0
26, 311640, Note_on_c, 14, 50, 100
26, 311699, Note_on_c, 14, 50, 0
26, 311700, Note_on_c, 14, 55, 100
26, 311759, Note_on_c, 14, 55, 0
26, 311760, Note_on_c, 14, 43, 100
26, 311819, Note_on_c, 14, 43, 0
26, 311820, Note_on_c, 14, 43, 100
26, 311879, Note_on_c, 14, 43, 0
26, 311880, Note_on_c, 14, 55, 100
26, 311909, Note_on_c, 14, 55, 0
26, 311910, Note_on_c, 14, 54, 100
26, 311939, Note_on_c, 14, 54, 0
26, 311940, Note_on_c, 14, 55, 100
26, 311999, Note_on_c, 14, 55, 0
26, 312000, Note_on_c, 14, 57, 100
26, 312029, Note_on_c, 14, 57, 0
26, 312030, Note_on_c, 14, 59, 100
26, 312059, Note_on_c, 14, 59, 0
26, 312060, Note_on_c, 14, 60, 100
26, 312119, Note_on_c, 14, 60, 0
26, 312120, Note_on_c, 14, 55, 100
26, 312149, Note_on_c, 14, 55, 0
26, 312150, Note_on_c, 14, 54, 100
26, 312179, Note_on_c, 14, 54, 0
26, 312180, Note_on_c, 14, 55, 100
26, 312239, Note_on_c, 14, 55, 0
26, 312240, Note_on_c, 14, 60, 100
26, 312299, Note_on_c, 14, 60, 0
26, 312300, Note_on_c, 14, 60, 100
26, 312359, Note_on_c, 14, 60, 0
26, 312360, Note_on_c, 14, 59, 100
26, 312389, Note_on_c, 14, 59, 0
26, 312390, Note_on_c, 14, 57, 100
26, 312419, Note_on_c, 14, 57, 0
26, 312420, Note_on_c, 14, 59, 100
26, 312479, Note_on_c, 14, 59, 0
26, 312480, Note_on_c, 14, 55, 100
26, 312539, Note_on_c, 14, 55, 0
26, 312540, Note_on_c, 14, 52, 100
26, 312599, Note_on_c, 14, 52, 0
26, 312600, Note_on_c, 14, 52, 100
26, 312629, Note_on_c, 14, 52, 0
26, 312630, Note_on_c, 14, 50, 100
26, 312659, Note_on_c, 14, 50, 0
26, 312660, Note_on_c, 14, 52, 100
26, 312719, Note_on_c, 14, 52, 0
26, 312720, Note_on_c, 14, 54, 100
26, 312749, Note_on_c, 14, 54, 0
26, 312750, Note_on_c, 14, 55, 100
26, 312779, Note_on_c, 14, 55, 0
26, 312780, Note_on_c, 14, 57, 100
26, 312839, Note_on_c, 14, 57, 0
26, 312840, Note_on_c, 14, 55, 100
26, 312899, Note_on_c, 14, 55, 0
26, 312900, Note_on_c, 14, 54, 100
26, 312959, Note_on_c, 14, 54, 0
26, 312960, Note_on_c, 14, 50, 100
26, 313019, Note_on_c, 14, 50, 0
26, 313020, Note_on_c, 14, 52, 100
26, 313079, Note_on_c, 14, 52, 0
26, 313080, Note_on_c, 14, 54, 100
26, 313139, Note_on_c, 14, 54, 0
26, 313140, Note_on_c, 14, 55, 100
26, 313199, Note_on_c, 14, 55, 0
26, 313200, Note_on_c, 14, 43, 100
26, 313259, Note_on_c, 14, 43, 0
26, 313260, Note_on_c, 14, 43, 100
26, 313319, Note_on_c, 14, 43, 0
26, 313320, Note_on_c, 14, 55, 100
26, 313349, Note_on_c, 14, 55, 0
26, 313350, Note_on_c, 14, 53, 100
26, 313379, Note_on_c, 14, 53, 0
26, 313380, Note_on_c, 14, 52, 100
26, 313439, Note_on_c, 14, 52, 0
26, 313440, Note_on_c, 14, 50, 100
26, 313499, Note_on_c, 14, 50, 0
26, 313500, Note_on_c, 14, 48, 100
26, 313559, Note_on_c, 14, 48, 0
26, 313560, Note_on_c, 14, 36, 100
26, 313619, Note_on_c, 14, 36, 0
26, 313620, Note_on_c, 14, 36, 100
26, 313679, Note_on_c, 14, 36, 0
26, 313680, Note_on_c, 14, 57, 100
26, 313709, Note_on_c, 14, 57, 0
26, 313710, Note_on_c, 14, 55, 100
26, 313739, Note_on_c, 14, 55, 0
26, 313740, Note_on_c, 14, 54, 100
26, 313799, Note_on_c, 14, 54, 0
26, 313800, Note_on_c, 14, 52, 100
26, 313859, Note_on_c, 14, 52, 0
26, 313860, Note_on_c, 14, 50, 100
26, 313919, Note_on_c, 14, 50, 0
26, 313920, Note_on_c, 14, 38, 100
26, 313979, Note_on_c, 14, 38, 0
26, 313980, Note_on_c, 14, 38, 100
26, 314039, Note_on_c, 14, 38, 0
26, 314040, Note_on_c, 14, 59, 100
26, 314069, Note_on_c, 14, 59, 0
26, 314070, Note_on_c, 14, 57, 100
26, 314099, Note_on_c, 14, 57, 0
26, 314100, Note_on_c, 14, 55, 100
26, 314159, Note_on_c, 14, 55, 0
26, 314160, Note_on_c, 14, 54, 100
26, 314219, Note_on_c, 14, 54, 0
26, 314220, Note_on_c, 14, 52, 100
26, 314279, Note_on_c, 14, 52, 0
26, 314280, Note_on_c, 14, 40, 100
26, 314339, Note_on_c, 14, 40, 0
26, 314340, Note_on_c, 14, 38, 100
26, 314399, Note_on_c, 14, 38, 0
26, 314400, Note_on_c, 14, 50, 100
26, 314459, Note_on_c, 14, 50, 0
26, 314460, Note_on_c, 14, 48, 100
26, 314519, Note_on_c, 14, 48, 0
26, 314520, Note_on_c, 14, 36, 100
26, 314579, Note_on_c, 14, 36, 0
26, 314580, Note_on_c, 14, 36, 100
26, 314639, Note_on_c, 14, 36, 0
26, 314640, Note_on_c, 14, 60, 100
26, 314669, Note_on_c, 14, 60, 0
26, 314670, Note_on_c, 14, 59, 100
26, 314699, Note_on_c, 14, 59, 0
26, 314700, Note_on_c, 14, 60, 100
26, 314759, Note_on_c, 14, 60, 0
26, 314760, Note_on_c, 14, 57, 100
26, 314819, Note_on_c, 14, 57, 0
26, 314820, Note_on_c, 14, 54, 100
26, 314879, Note_on_c, 14, 54, 0
26, 314880, Note_on_c, 14, 50, 100
26, 314939, Note_on_c, 14, 50, 0
26, 314940, Note_on_c, 14, 55, 100
26, 314999, Note_on_c, 14, 55, 0
26, 315000, Note_on_c, 14, 43, 100
26, 315029, Note_on_c, 14, 43, 0
26, 315030, Note_on_c, 14, 42, 100
26, 315059, Note_on_c, 14, 42, 0
26, 315060, Note_on_c, 14, 43, 100
26, 315119, Note_on_c, 14, 43, 0
26, 315120, Note_on_c, 14, 48, 100
26, 315179, Note_on_c, 14, 48, 0
26, 315180, Note_on_c, 14, 50, 100
26, 315239, Note_on_c, 14, 50, 0
26, 315240, Note_on_c, 14, 38, 100
26, 315299, Note_on_c, 14, 38, 0
26, 315300, Note_on_c, 14, 43, 100
26, 315659, Note_on_c, 14, 43, 0
26, 316020, Note_on_c, 14, 45, 100
26, 316740, Note_on_c, 14, 45, 0
26, 316740, Note_on_c, 14, 50, 100
26, 317220, Note_on_c, 14, 50, 0
26, 317220, Note_on_c, 14, 54, 100
26, 317460, Note_on_c, 14, 54, 0
26, 317460, Note_on_c, 14, 47, 100
26, 317580, Note_on_c, 14, 47, 0
26, 317580, Note_on_c, 14, 44, 100
26, 317700, Note_on_c, 14, 44, 0
26, 317700, Note_on_c, 14, 45, 100
26, 317820, Note_on_c, 14, 45, 0
26, 317820, Note_on_c, 14, 48, 100
26, 317940, Note_on_c, 14, 48, 0
26, 317940, Note_on_c, 14, 50, 100
26, 318060, Note_on_c, 14, 50, 0
26, 318060, Note_on_c, 14, 54, 100
26, 318180, Note_on_c, 14, 54, 0
26, 318300, Note_on_c, 14, 52, 100
26, 318420, Note_on_c, 14, 52, 0
26, 318420, Note_on_c, 14, 45, 100
26, 319170, Note_on_c, 14, 45, 0
26, 319170, Note_on_c, 14, 47, 90
26, 319199, Note_on_c, 14, 47, 0
26, 319200, Note_on_c, 14, 49, 90
26, 319229, Note_on_c, 14, 49, 0
26, 319230, Note_on_c, 14, 50, 90
26, 319259, Note_on_c, 14, 50, 0
26, 319260, Note_on_c, 14, 52, 90
26, 319289, Note_on_c, 14, 52, 0
26, 319290, Note_on_c, 14, 54, 90
26, 319319, Note_on_c, 14, 54, 0
26, 319320, Note_on_c, 14, 55, 90
26, 319349, Note_on_c, 14, 55, 0
26, 319350, Note_on_c, 14, 57, 90
26, 319379, Note_on_c, 14, 57, 0
26, 319380, Note_on_c, 14, 50, 90
26, 319409, Note_on_c, 14, 50, 0
26, 319410, Note_on_c, 14, 52, 90
26, 319439, Note_on_c, 14, 52, 0
26, 319440, Note_on_c, 14, 54, 90
26, 319469, Note_on_c, 14, 54, 0
26, 319470, Note_on_c, 14, 55, 90
26, 319499, Note_on_c, 14, 55, 0
26, 319500, Note_on_c, 14, 57, 90
26, 319529, Note_on_c, 14, 57, 0
26, 319530, Note_on_c, 14, 59, 90
26, 319559, Note_on_c, 14, 59, 0
26, 319560, Note_on_c, 14, 61, 90
26, 319589, Note_on_c, 14, 61, 0
26, 319590, Note_on_c, 14, 62, 90
26, 319619, Note_on_c, 14, 62, 0
26, 319620, Note_on_c, 14, 55, 90
26, 319679, Note_on_c, 14, 55, 0
26, 319680, Note_on_c, 14, 52, 90
26, 319709, Note_on_c, 14, 52, 0
26, 319710, Note_on_c, 14, 55, 90
26, 319739, Note_on_c, 14, 55, 0
26, 319740, Note_on_c, 14, 57, 90
26, 319799, Note_on_c, 14, 57, 0
26, 319800, Note_on_c, 14, 54, 90
26, 319829, Note_on_c, 14, 54, 0
26, 319830, Note_on_c, 14, 57, 90
26, 319859, Note_on_c, 14, 57, 0
26, 319860, Note_on_c, 14, 59, 90
26, 319919, Note_on_c, 14, 59, 0
26, 319920, Note_on_c, 14, 55, 90
26, 319949, Note_on_c, 14, 55, 0
26, 319950, Note_on_c, 14, 59, 90
26, 319979, Note_on_c, 14, 59, 0
26, 319980, Note_on_c, 14, 61, 90
26, 320039, Note_on_c, 14, 61, 0
26, 320040, Note_on_c, 14, 57, 90
26, 320069, Note_on_c, 14, 57, 0
26, 320070, Note_on_c, 14, 61, 90
26, 320099, Note_on_c, 14, 61, 0
26, 320100, Note_on_c, 14, 62, 90
26, 320159, Note_on_c, 14, 62, 0
26, 320220, Note_on_c, 14, 56, 90
26, 320279, Note_on_c, 14, 56, 0
26, 320460, Note_on_c, 14, 57, 90
26, 320579, Note_on_c, 14, 57, 0
26, 320580, Note_on_c, 14, 50, 90
26, 320819, Note_on_c, 14, 50, 0
26, 321060, Note_on_c, 14, 50, 90
26, 321299, Note_on_c, 14, 50, 0
26, 321300, Note_on_c, 14, 38, 90
26, 321539, Note_on_c, 14, 38, 0
26, 322500, Note_on_c, 14, 50, 90
26, 322739, Note_on_c, 14, 50, 0
26, 322740, Note_on_c, 14, 38, 90
26, 322979, Note_on_c, 14, 38, 0
26, 323940, Note_on_c, 14, 50, 90
26, 324179, Note_on_c, 14, 50, 0
26, 324180, Note_on_c, 14, 38, 90
26, 324419, Note_on_c, 14, 38, 0
26, 324420, Note_on_c, 14, 50, 90
26, 324539, Note_on_c, 14, 50, 0
26, 324540, Note_on_c, 14, 38, 90
26, 324659, Note_on_c, 14, 38, 0
26, 324660, Note_on_c, 14, 38, 90
26, 324779, Note_on_c, 14, 38, 0
26, 324780, Note_on_c, 14, 50, 90
26, 324899, Note_on_c, 14, 50, 0
26, 324900, Note_on_c, 14, 50, 90
26, 325019, Note_on_c, 14, 50, 0
26, 325020, Note_on_c, 14, 38, 90
26, 325139, Note_on_c, 14, 38, 0
26, 325140, Note_on_c, 14, 38, 90
26, 325259, Note_on_c, 14, 38, 0
26, 325260, Note_on_c, 14, 50, 90
26, 325379, Note_on_c, 14, 50, 0
26, 325380, Note_on_c, 14, 50, 90
26, 325499, Note_on_c, 14, 50, 0
26, 325500, Note_on_c, 14, 50, 90
26, 325619, Note_on_c, 14, 50, 0
26, 325620, Note_on_c, 14, 43, 90
26, 325739, Note_on_c, 14, 43, 0
26, 325740, Note_on_c, 14, 43, 90
26, 325859, Note_on_c, 14, 43, 0
26, 325860, Note_on_c, 14, 50, 90
26, 325919, Note_on_c, 14, 50, 0
26, 325920, Note_on_c, 14, 52, 90
26, 325979, Note_on_c, 14, 52, 0
26, 325980, Note_on_c, 14, 54, 90
26, 326039, Note_on_c, 14, 54, 0
26, 326040, Note_on_c, 14, 55, 90
26, 326099, Note_on_c, 14, 55, 0
26, 326100, Note_on_c, 14, 57, 90
26, 326159, Note_on_c, 14, 57, 0
26, 326160, Note_on_c, 14, 56, 90
26, 326219, Note_on_c, 14, 56, 0
26, 326220, Note_on_c, 14, 57, 90
26, 326279, Note_on_c, 14, 57, 0
26, 326280, Note_on_c, 14, 56, 90
26, 326339, Note_on_c, 14, 56, 0
26, 326340, Note_on_c, 14, 57, 90
26, 326579, Note_on_c, 14, 57, 0
26, 326580, Note_on_c, 14, 45, 90
26, 326819, Note_on_c, 14, 45, 0
26, 327780, Note_on_c, 14, 57, 90
26, 328019, Note_on_c, 14, 57, 0
26, 328020, Note_on_c, 14, 45, 90
26, 328259, Note_on_c, 14, 45, 0
26, 329220, Note_on_c, 14, 57, 90
26, 329459, Note_on_c, 14, 57, 0
26, 329460, Note_on_c, 14, 45, 90
26, 329699, Note_on_c, 14, 45, 0
26, 329700, Note_on_c, 14, 45, 90
26, 329819, Note_on_c, 14, 45, 0
26, 329820, Note_on_c, 14, 57, 90
26, 329939, Note_on_c, 14, 57, 0
26, 329940, Note_on_c, 14, 57, 90
26, 330059, Note_on_c, 14, 57, 0
26, 330060, Note_on_c, 14, 45, 90
26, 330179, Note_on_c, 14, 45, 0
26, 330180, Note_on_c, 14, 45, 90
26, 330299, Note_on_c, 14, 45, 0
26, 330300, Note_on_c, 14, 57, 90
26, 330419, Note_on_c, 14, 57, 0
26, 330420, Note_on_c, 14, 57, 90
26, 330539, Note_on_c, 14, 57, 0
26, 330540, Note_on_c, 14, 45, 90
26, 330659, Note_on_c, 14, 45, 0
26, 330660, Note_on_c, 14, 47, 90
26, 330779, Note_on_c, 14, 47, 0
26, 330780, Note_on_c, 14, 45, 90
26, 330839, Note_on_c, 14, 45, 0
26, 330840, Note_on_c, 14, 43, 90
26, 330899, Note_on_c, 14, 43, 0
26, 330900, Note_on_c, 14, 42, 90
26, 331019, Note_on_c, 14, 42, 0
26, 331020, Note_on_c, 14, 43, 90
26, 331139, Note_on_c, 14, 43, 0
26, 331140, Note_on_c, 14, 45, 90
26, 331259, Note_on_c, 14, 45, 0
26, 331260, Note_on_c, 14, 45, 90
26, 331379, Note_on_c, 14, 45, 0
26, 331380, Note_on_c, 14, 38, 90
26, 331619, Note_on_c, 14, 38, 0
26, 331620, Note_on_c, 14, 50, 90
26, 331859, Note_on_c, 14, 50, 0
26, 331860, Note_on_c, 14, 38, 90
26, 332099, Note_on_c, 14, 38, 0
26, 333060, Note_on_c, 14, 50, 90
26, 333299, Note_on_c, 14, 50, 0
26, 333300, Note_on_c, 14, 38, 90
26, 333539, Note_on_c, 14, 38, 0
26, 334500, Note_on_c, 14, 50, 90
26, 334739, Note_on_c, 14, 50, 0
26, 334740, Note_on_c, 14, 38, 90
26, 334979, Note_on_c, 14, 38, 0
26, 334980, Note_on_c, 14, 50, 90
26, 335099, Note_on_c, 14, 50, 0
26, 335100, Note_on_c, 14, 38, 90
26, 335219, Note_on_c, 14, 38, 0
26, 335220, Note_on_c, 14, 38, 90
26, 335339, Note_on_c, 14, 38, 0
26, 335340, Note_on_c, 14, 50, 90
26, 335459, Note_on_c, 14, 50, 0
26, 335460, Note_on_c, 14, 50, 90
26, 335579, Note_on_c, 14, 50, 0
26, 335580, Note_on_c, 14, 38, 90
26, 335699, Note_on_c, 14, 38, 0
26, 335700, Note_on_c, 14, 38, 90
26, 335819, Note_on_c, 14, 38, 0
26, 335820, Note_on_c, 14, 50, 90
26, 335939, Note_on_c, 14, 50, 0
26, 335940, Note_on_c, 14, 50, 90
26, 336059, Note_on_c, 14, 50, 0
26, 336060, Note_on_c, 14, 50, 90
26, 336179, Note_on_c, 14, 50, 0
26, 336180, Note_on_c, 14, 43, 90
26, 336299, Note_on_c, 14, 43, 0
26, 336300, Note_on_c, 14, 43, 90
26, 336419, Note_on_c, 14, 43, 0
26, 336420, Note_on_c, 14, 50, 90
26, 336479, Note_on_c, 14, 50, 0
26, 336480, Note_on_c, 14, 52, 90
26, 336539, Note_on_c, 14, 52, 0
26, 336540, Note_on_c, 14, 54, 90
26, 336599, Note_on_c, 14, 54, 0
26, 336600, Note_on_c, 14, 55, 90
26, 336659, Note_on_c, 14, 55, 0
26, 336660, Note_on_c, 14, 57, 90
26, 336719, Note_on_c, 14, 57, 0
26, 336720, Note_on_c, 14, 56, 90
26, 336779, Note_on_c, 14, 56, 0
26, 336780, Note_on_c, 14, 57, 90
26, 336839, Note_on_c, 14, 57, 0
26, 336840, Note_on_c, 14, 56, 90
26, 336899, Note_on_c, 14, 56, 0
26, 336900, Note_on_c, 14, 57, 90
26, 337139, Note_on_c, 14, 57, 0
26, 337140, Note_on_c, 14, 45, 90
26, 337379, Note_on_c, 14, 45, 0
26, 338340, Note_on_c, 14, 57, 90
26, 338579, Note_on_c, 14, 57, 0
26, 338580, Note_on_c, 14, 45, 90
26, 338819, Note_on_c, 14, 45, 0
26, 339780, Note_on_c, 14, 57, 90
26, 340019, Note_on_c, 14, 57, 0
26, 340020, Note_on_c, 14, 45, 90
26, 340259, Note_on_c, 14, 45, 0
26, 340260, Note_on_c, 14, 45, 90
26, 340379, Note_on_c, 14, 45, 0
26, 340380, Note_on_c, 14, 57, 90
26, 340499, Note_on_c, 14, 57, 0
26, 340500, Note_on_c, 14, 57, 90
26, 340619, Note_on_c, 14, 57, 0
26, 340620, Note_on_c, 14, 45, 90
26, 340739, Note_on_c, 14, 45, 0
26, 340740, Note_on_c, 14, 45, 90
26, 340859, Note_on_c, 14, 45, 0
26, 340860, Note_on_c, 14, 57, 90
26, 340979, Note_on_c, 14, 57, 0
26, 340980, Note_on_c, 14, 57, 90
26, 341099, Note_on_c, 14, 57, 0
26, 341100, Note_on_c, 14, 45, 90
26, 341219, Note_on_c, 14, 45, 0
26, 341220, Note_on_c, 14, 47, 90
26, 341339, Note_on_c, 14, 47, 0
26, 341340, Note_on_c, 14, 45, 90
26, 341399, Note_on_c, 14, 45, 0
26, 341400, Note_on_c, 14, 43, 90
26, 341459, Note_on_c, 14, 43, 0
26, 341460, Note_on_c, 14, 42, 90
26, 341579, Note_on_c, 14, 42, 0
26, 341580, Note_on_c, 14, 43, 90
26, 341699, Note_on_c, 14, 43, 0
26, 341700, Note_on_c, 14, 45, 90
26, 341819, Note_on_c, 14, 45, 0
26, 341820, Note_on_c, 14, 45, 90
26, 341939, Note_on_c, 14, 45, 0
26, 341940, Note_on_c, 14, 38, 90
26, 342179, Note_on_c, 14, 38, 0
26, 342180, Note_on_c, 14, 59, 90
26, 342419, Note_on_c, 14, 59, 0
26, 342420, Note_on_c, 14, 54, 90
26, 342659, Note_on_c, 14, 54, 0
26, 342660, Note_on_c, 14, 55, 90
26, 342779, Note_on_c, 14, 55, 0
26, 342780, Note_on_c, 14, 54, 90
26, 342899, Note_on_c, 14, 54, 0
26, 342900, Note_on_c, 14, 52, 90
26, 343019, Note_on_c, 14, 52, 0
26, 343020, Note_on_c, 14, 54, 90
26, 343139, Note_on_c, 14, 54, 0
26, 343140, Note_on_c, 14, 59, 90
26, 343259, Note_on_c, 14, 59, 0
26, 343260, Note_on_c, 14, 47, 90
26, 343379, Note_on_c, 14, 47, 0
26, 343380, Note_on_c, 14, 59, 90
26, 343499, Note_on_c, 14, 59, 0
26, 343500, Note_on_c, 14, 57, 90
26, 343619, Note_on_c, 14, 57, 0
26, 343620, Note_on_c, 14, 56, 90
26, 343739, Note_on_c, 14, 56, 0
26, 343740, Note_on_c, 14, 54, 90
26, 343859, Note_on_c, 14, 54, 0
26, 343860, Note_on_c, 14, 56, 90
26, 343979, Note_on_c, 14, 56, 0
26, 343980, Note_on_c, 14, 52, 90
26, 344099, Note_on_c, 14, 52, 0
26, 344100, Note_on_c, 14, 57, 90
26, 344339, Note_on_c, 14, 57, 0
26, 344340, Note_on_c, 14, 52, 90
26, 344579, Note_on_c, 14, 52, 0
26, 344580, Note_on_c, 14, 45, 90
26, 344699, Note_on_c, 14, 45, 0
26, 344700, Note_on_c, 14, 57, 90
26, 344819, Note_on_c, 14, 57, 0
26, 344820, Note_on_c, 14, 56, 90
26, 344939, Note_on_c, 14, 56, 0
26, 344940, Note_on_c, 14, 52, 90
26, 345059, Note_on_c, 14, 52, 0
26, 345060, Note_on_c, 14, 57, 90
26, 345179, Note_on_c, 14, 57, 0
26, 345180, Note_on_c, 14, 52, 90
26, 345299, Note_on_c, 14, 52, 0
26, 345300, Note_on_c, 14, 56, 90
26, 345419, Note_on_c, 14, 56, 0
26, 345420, Note_on_c, 14, 52, 90
26, 345539, Note_on_c, 14, 52, 0
26, 345540, Note_on_c, 14, 57, 90
26, 345779, Note_on_c, 14, 57, 0
26, 345780, Note_on_c, 14, 52, 90
26, 346019, Note_on_c, 14, 52, 0
26, 346020, Note_on_c, 14, 45, 90
26, 346139, Note_on_c, 14, 45, 0
26, 346140, Note_on_c, 14, 50, 90
26, 346259, Note_on_c, 14, 50, 0
26, 346260, Note_on_c, 14, 62, 90
26, 346379, Note_on_c, 14, 62, 0
26, 346380, Note_on_c, 14, 61, 90
26, 346499, Note_on_c, 14, 61, 0
26, 346500, Note_on_c, 14, 59, 90
26, 346619, Note_on_c, 14, 59, 0
26, 346620, Note_on_c, 14, 57, 90
26, 346739, Note_on_c, 14, 57, 0
26, 346740, Note_on_c, 14, 56, 90
26, 346859, Note_on_c, 14, 56, 0
26, 346860, Note_on_c, 14, 52, 90
26, 346979, Note_on_c, 14, 52, 0
26, 346980, Note_on_c, 14, 57, 90
26, 347219, Note_on_c, 14, 57, 0
26, 347220, Note_on_c, 14, 52, 90
26, 347459, Note_on_c, 14, 52, 0
26, 347460, Note_on_c, 14, 45, 90
26, 347579, Note_on_c, 14, 45, 0
26, 347580, Note_on_c, 14, 52, 90
26, 347699, Note_on_c, 14, 52, 0
26, 347700, Note_on_c, 14, 49, 90
26, 347819, Note_on_c, 14, 49, 0
26, 347820, Note_on_c, 14, 45, 90
26, 347939, Note_on_c, 14, 45, 0
26, 347940, Note_on_c, 14, 50, 90
26, 348179, Note_on_c, 14, 50, 0
26, 348180, Note_on_c, 14, 38, 90
26, 348419, Note_on_c, 14, 38, 0
26, 349380, Note_on_c, 14, 50, 90
26, 349619, Note_on_c, 14, 50, 0
26, 349620, Note_on_c, 14, 38, 90
26, 349859, Note_on_c, 14, 38, 0
26, 349860, Note_on_c, 14, 50, 90
26, 349979, Note_on_c, 14, 50, 0
26, 349980, Note_on_c, 14, 50, 90
26, 350099, Note_on_c, 14, 50, 0
26, 350100, Note_on_c, 14, 50, 90
26, 350219, Note_on_c, 14, 50, 0
26, 350220, Note_on_c, 14, 50, 90
26, 350339, Note_on_c, 14, 50, 0
26, 350340, Note_on_c, 14, 50, 90
26, 350459, Note_on_c, 14, 50, 0
26, 350460, Note_on_c, 14, 50, 90
26, 350579, Note_on_c, 14, 50, 0
26, 350580, Note_on_c, 14, 50, 90
26, 350699, Note_on_c, 14, 50, 0
26, 350700, Note_on_c, 14, 50, 90
26, 350819, Note_on_c, 14, 50, 0
26, 350820, Note_on_c, 14, 50, 90
26, 351059, Note_on_c, 14, 50, 0
26, 351060, Note_on_c, 14, 38, 90
26, 351299, Note_on_c, 14, 38, 0
26, 351300, Note_on_c, 14, 50, 90
26, 351419, Note_on_c, 14, 50, 0
26, 351420, Note_on_c, 14, 38, 90
26, 351539, Note_on_c, 14, 38, 0
26, 351540, Note_on_c, 14, 38, 90
26, 351659, Note_on_c, 14, 38, 0
26, 351660, Note_on_c, 14, 50, 90
26, 351779, Note_on_c, 14, 50, 0
26, 351780, Note_on_c, 14, 50, 90
26, 351899, Note_on_c, 14, 50, 0
26, 351900, Note_on_c, 14, 38, 90
26, 352019, Note_on_c, 14, 38, 0
26, 352020, Note_on_c, 14, 38, 90
26, 352139, Note_on_c, 14, 38, 0
26, 352140, Note_on_c, 14, 50, 90
26, 352259, Note_on_c, 14, 50, 0
26, 352260, Note_on_c, 14, 50, 90
26, 352379, Note_on_c, 14, 50, 0
26, 352380, Note_on_c, 14, 50, 90
26, 352499, Note_on_c, 14, 50, 0
26, 352500, Note_on_c, 14, 43, 90
26, 352619, Note_on_c, 14, 43, 0
26, 352620, Note_on_c, 14, 43, 90
26, 352739, Note_on_c, 14, 43, 0
26, 352740, Note_on_c, 14, 50, 90
26, 352799, Note_on_c, 14, 50, 0
26, 352800, Note_on_c, 14, 52, 90
26, 352859, Note_on_c, 14, 52, 0
26, 352860, Note_on_c, 14, 54, 90
26, 352919, Note_on_c, 14, 54, 0
26, 352920, Note_on_c, 14, 55, 90
26, 352979, Note_on_c, 14, 55, 0
26, 352980, Note_on_c, 14, 57, 90
26, 353039, Note_on_c, 14, 57, 0
26, 353040, Note_on_c, 14, 56, 90
26, 353099, Note_on_c, 14, 56, 0
26, 353100, Note_on_c, 14, 57, 90
26, 353159, Note_on_c, 14, 57, 0
26, 353160, Note_on_c, 14, 56, 90
26, 353219, Note_on_c, 14, 56, 0
26, 353220, Note_on_c, 14, 57, 90
26, 353459, Note_on_c, 14, 57, 0
26, 353460, Note_on_c, 14, 45, 90
26, 353699, Note_on_c, 14, 45, 0
26, 354660, Note_on_c, 14, 57, 90
26, 354899, Note_on_c, 14, 57, 0
26, 354900, Note_on_c, 14, 45, 90
26, 355139, Note_on_c, 14, 45, 0
26, 355140, Note_on_c, 14, 45, 90
26, 355259, Note_on_c, 14, 45, 0
26, 355260, Note_on_c, 14, 45, 90
26, 355379, Note_on_c, 14, 45, 0
26, 355380, Note_on_c, 14, 45, 90
26, 355499, Note_on_c, 14, 45, 0
26, 355500, Note_on_c, 14, 45, 90
26, 355619, Note_on_c, 14, 45, 0
26, 355620, Note_on_c, 14, 45, 90
26, 355739, Note_on_c, 14, 45, 0
26, 355740, Note_on_c, 14, 45, 90
26, 355859, Note_on_c, 14, 45, 0
26, 355860, Note_on_c, 14, 45, 90
26, 355979, Note_on_c, 14, 45, 0
26, 355980, Note_on_c, 14, 45, 90
26, 356099, Note_on_c, 14, 45, 0
26, 356100, Note_on_c, 14, 57, 90
26, 356339, Note_on_c, 14, 57, 0
26, 356340, Note_on_c, 14, 45, 90
26, 356579, Note_on_c, 14, 45, 0
26, 356580, Note_on_c, 14, 45, 90
26, 356699, Note_on_c, 14, 45, 0
26, 356700, Note_on_c, 14, 57, 90
26, 356819, Note_on_c, 14, 57, 0
26, 356820, Note_on_c, 14, 57, 90
26, 356939, Note_on_c, 14, 57, 0
26, 356940, Note_on_c, 14, 45, 90
26, 357059, Note_on_c, 14, 45, 0
26, 357060, Note_on_c, 14, 45, 90
26, 357179, Note_on_c, 14, 45, 0
26, 357180, Note_on_c, 14, 57, 90
26, 357299, Note_on_c, 14, 57, 0
26, 357300, Note_on_c, 14, 57, 90
26, 357419, Note_on_c, 14, 57, 0
26, 357420, Note_on_c, 14, 45, 90
26, 357539, Note_on_c, 14, 45, 0
26, 357540, Note_on_c, 14, 47, 90
26, 357659, Note_on_c, 14, 47, 0
26, 357660, Note_on_c, 14, 45, 90
26, 357719, Note_on_c, 14, 45, 0
26, 357720, Note_on_c, 14, 43, 90
26, 357779, Note_on_c, 14, 43, 0
26, 357780, Note_on_c, 14, 42, 90
26, 357899, Note_on_c, 14, 42, 0
26, 357900, Note_on_c, 14, 43, 90
26, 358019, Note_on_c, 14, 43, 0
26, 358020, Note_on_c, 14, 45, 90
26, 358139, Note_on_c, 14, 45, 0
26, 358140, Note_on_c, 14, 45, 90
26, 358259, Note_on_c, 14, 45, 0
26, 358260, Note_on_c, 14, 38, 90
26, 358499, Note_on_c, 14, 38, 0
26, 358500, Note_on_c, 14, 50, 90
26, 358619, Note_on_c, 14, 50, 0
26, 358620, Note_on_c, 14, 49, 90
26, 358739, Note_on_c, 14, 49, 0
26, 358740, Note_on_c, 14, 47, 90
26, 358859, Note_on_c, 14, 47, 0
26, 358860, Note_on_c, 14, 45, 90
26, 358979, Note_on_c, 14, 45, 0
26, 358980, Note_on_c, 14, 56, 90
26, 359099, Note_on_c, 14, 56, 0
26, 359100, Note_on_c, 14, 52, 90
26, 359219, Note_on_c, 14, 52, 0
26, 359220, Note_on_c, 14, 54, 90
26, 359339, Note_on_c, 14, 54, 0
26, 359340, Note_on_c, 14, 56, 90
26, 359459, Note_on_c, 14, 56, 0
26, 359460, Note_on_c, 14, 57, 90
26, 359699, Note_on_c, 14, 57, 0
26, 359700, Note_on_c, 14, 45, 90
26, 359939, Note_on_c, 14, 45, 0
26, 359940, Note_on_c, 14, 47, 90
26, 360179, Note_on_c, 14, 47, 0
26, 360180, Note_on_c, 14, 44, 90
26, 360419, Note_on_c, 14, 44, 0
26, 360420, Note_on_c, 14, 41, 90
26, 360539, Note_on_c, 14, 41, 0
26, 360540, Note_on_c, 14, 37, 90
26, 360659, Note_on_c, 14, 37, 0
26, 360660, Note_on_c, 14, 49, 90
26, 360779, Note_on_c, 14, 49, 0
26, 360780, Note_on_c, 14, 49, 90
26, 360899, Note_on_c, 14, 49, 0
26, 360900, Note_on_c, 14, 49, 90
26, 361019, Note_on_c, 14, 49, 0
26, 361020, Note_on_c, 14, 49, 90
26, 361139, Note_on_c, 14, 49, 0
26, 361140, Note_on_c, 14, 49, 90
26, 361259, Note_on_c, 14, 49, 0
26, 361260, Note_on_c, 14, 49, 90
26, 361379, Note_on_c, 14, 49, 0
26, 361380, Note_on_c, 14, 49, 90
26, 361499, Note_on_c, 14, 49, 0
26, 361500, Note_on_c, 14, 49, 90
26, 361619, Note_on_c, 14, 49, 0
26, 361620, Note_on_c, 14, 49, 90
26, 361739, Note_on_c, 14, 49, 0
26, 361740, Note_on_c, 14, 49, 90
26, 361859, Note_on_c, 14, 49, 0
26, 361860, Note_on_c, 14, 49, 90
26, 361979, Note_on_c, 14, 49, 0
26, 361980, Note_on_c, 14, 49, 90
26, 362099, Note_on_c, 14, 49, 0
26, 362100, Note_on_c, 14, 53, 90
26, 362219, Note_on_c, 14, 53, 0
26, 362220, Note_on_c, 14, 49, 90
26, 362339, Note_on_c, 14, 49, 0
26, 362340, Note_on_c, 14, 54, 90
26, 362459, Note_on_c, 14, 54, 0
26, 362460, Note_on_c, 14, 42, 90
26, 362579, Note_on_c, 14, 42, 0
26, 362580, Note_on_c, 14, 45, 90
26, 362699, Note_on_c, 14, 45, 0
26, 362700, Note_on_c, 14, 42, 90
26, 362819, Note_on_c, 14, 42, 0
26, 362820, Note_on_c, 14, 47, 90
26, 362939, Note_on_c, 14, 47, 0
26, 362940, Note_on_c, 14, 49, 90
26, 363059, Note_on_c, 14, 49, 0
26, 363060, Note_on_c, 14, 50, 90
26, 363179, Note_on_c, 14, 50, 0
26, 363180, Note_on_c, 14, 47, 90
26, 363299, Note_on_c, 14, 47, 0
26, 363300, Note_on_c, 14, 49, 90
26, 363539, Note_on_c, 14, 49, 0
26, 363540, Note_on_c, 14, 37, 90
26, 363779, Note_on_c, 14, 37, 0
26, 363780, Note_on_c, 14, 42, 90
26, 363899, Note_on_c, 14, 42, 0
26, 363900, Note_on_c, 14, 57, 90
26, 363959, Note_on_c, 14, 57, 0
26, 363960, Note_on_c, 14, 55, 90
26, 364019, Note_on_c, 14, 55, 0
26, 364020, Note_on_c, 14, 54, 90
26, 364079, Note_on_c, 14, 54, 0
26, 364080, Note_on_c, 14, 55, 90
26, 364139, Note_on_c, 14, 55, 0
26, 364140, Note_on_c, 14, 52, 90
26, 364199, Note_on_c, 14, 52, 0
26, 364200, Note_on_c, 14, 54, 90
26, 364259, Note_on_c, 14, 54, 0
26, 364260, Note_on_c, 14, 50, 90
26, 364499, Note_on_c, 14, 50, 0
26, 364500, Note_on_c, 14, 38, 90
26, 364739, Note_on_c, 14, 38, 0
26, 365700, Note_on_c, 14, 50, 90
26, 365939, Note_on_c, 14, 50, 0
26, 365940, Note_on_c, 14, 38, 90
26, 366179, Note_on_c, 14, 38, 0
26, 367140, Note_on_c, 14, 50, 90
26, 367379, Note_on_c, 14, 50, 0
26, 367380, Note_on_c, 14, 38, 90
26, 367619, Note_on_c, 14, 38, 0
26, 367620, Note_on_c, 14, 50, 90
26, 367739, Note_on_c, 14, 50, 0
26, 367740, Note_on_c, 14, 38, 90
26, 367859, Note_on_c, 14, 38, 0
26, 367860, Note_on_c, 14, 38, 90
26, 367979, Note_on_c, 14, 38, 0
26, 367980, Note_on_c, 14, 50, 90
26, 368099, Note_on_c, 14, 50, 0
26, 368100, Note_on_c, 14, 50, 90
26, 368219, Note_on_c, 14, 50, 0
26, 368220, Note_on_c, 14, 38, 90
26, 368339, Note_on_c, 14, 38, 0
26, 368340, Note_on_c, 14, 38, 90
26, 368459, Note_on_c, 14, 38, 0
26, 368460, Note_on_c, 14, 50, 90
26, 368579, Note_on_c, 14, 50, 0
26, 368580, Note_on_c, 14, 50, 90
26, 368699, Note_on_c, 14, 50, 0
26, 368700, Note_on_c, 14, 50, 90
26, 368819, Note_on_c, 14, 50, 0
26, 368820, Note_on_c, 14, 43, 90
26, 368939, Note_on_c, 14, 43, 0
26, 368940, Note_on_c, 14, 43, 90
26, 369059, Note_on_c, 14, 43, 0
26, 369060, Note_on_c, 14, 50, 90
26, 369119, Note_on_c, 14, 50, 0
26, 369120, Note_on_c, 14, 52, 90
26, 369179, Note_on_c, 14, 52, 0
26, 369180, Note_on_c, 14, 54, 90
26, 369239, Note_on_c, 14, 54, 0
26, 369240, Note_on_c, 14, 55, 90
26, 369299, Note_on_c, 14, 55, 0
26, 369300, Note_on_c, 14, 57, 90
26, 369359, Note_on_c, 14, 57, 0
26, 369360, Note_on_c, 14, 56, 90
26, 369419, Note_on_c, 14, 56, 0
26, 369420, Note_on_c, 14, 57, 90
26, 369479, Note_on_c, 14, 57, 0
26, 369480, Note_on_c, 14, 56, 90
26, 369539, Note_on_c, 14, 56, 0
26, 369540, Note_on_c, 14, 57, 90
26, 369779, Note_on_c, 14, 57, 0
26, 369780, Note_on_c, 14, 45, 90
26, 370019, Note_on_c, 14, 45, 0
26, 370980, Note_on_c, 14, 57, 90
26, 371219, Note_on_c, 14, 57, 0
26, 371220, Note_on_c, 14, 45, 90
26, 371459, Note_on_c, 14, 45, 0
26, 372420, Note_on_c, 14, 57, 90
26, 372659, Note_on_c, 14, 57, 0
26, 372660, Note_on_c, 14, 45, 90
26, 372899, Note_on_c, 14, 45, 0
26, 372900, Note_on_c, 14, 45, 90
26, 373019, Note_on_c, 14, 45, 0
26, 373020, Note_on_c, 14, 57, 90
26, 373139, Note_on_c, 14, 57, 0
26, 373140, Note_on_c, 14, 57, 90
26, 373259, Note_on_c, 14, 57, 0
26, 373260, Note_on_c, 14, 45, 90
26, 373379, Note_on_c, 14, 45, 0
26, 373380, Note_on_c, 14, 45, 90
26, 373499, Note_on_c, 14, 45, 0
26, 373500, Note_on_c, 14, 57, 90
26, 373619, Note_on_c, 14, 57, 0
26, 373620, Note_on_c, 14, 57, 90
26, 373739, Note_on_c, 14, 57, 0
26, 373740, Note_on_c, 14, 45, 90
26, 373859, Note_on_c, 14, 45, 0
26, 373860, Note_on_c, 14, 47, 90
26, 373979, Note_on_c, 14, 47, 0
26, 373980, Note_on_c, 14, 45, 90
26, 374039, Note_on_c, 14, 45, 0
26, 374040, Note_on_c, 14, 43, 90
26, 374099, Note_on_c, 14, 43, 0
26, 374100, Note_on_c, 14, 42, 90
26, 374219, Note_on_c, 14, 42, 0
26, 374220, Note_on_c, 14, 43, 90
26, 374339, Note_on_c, 14, 43, 0
26, 374340, Note_on_c, 14, 45, 90
26, 374459, Note_on_c, 14, 45, 0
26, 374460, Note_on_c, 14, 45, 90
26, 374579, Note_on_c, 14, 45, 0
26, 374580, Note_on_c, 14, 38, 90
26, 374819, Note_on_c, 14, 38, 0
26, 374820, Note_on_c, 14, 50, 90
26, 375059, Note_on_c, 14, 50, 0
26, 375060, Note_on_c, 14, 38, 90
26, 375299, Note_on_c, 14, 38, 0
26, 376260, Note_on_c, 14, 50, 90
26, 376499, Note_on_c, 14, 50, 0
26, 376500, Note_on_c, 14, 38, 90
26, 376739, Note_on_c, 14, 38, 0
26, 377700, Note_on_c, 14, 50, 90
26, 377939, Note_on_c, 14, 50, 0
26, 377940, Note_on_c, 14, 38, 90
26, 378179, Note_on_c, 14, 38, 0
26, 378180, Note_on_c, 14, 50, 90
26, 378299, Note_on_c, 14, 50, 0
26, 378300, Note_on_c, 14, 38, 90
26, 378419, Note_on_c, 14, 38, 0
26, 378420, Note_on_c, 14, 38, 90
26, 378539, Note_on_c, 14, 38, 0
26, 378540, Note_on_c, 14, 50, 90
26, 378659, Note_on_c, 14, 50, 0
26, 378660, Note_on_c, 14, 50, 90
26, 378779, Note_on_c, 14, 50, 0
26, 378780, Note_on_c, 14, 38, 90
26, 378899, Note_on_c, 14, 38, 0
26, 378900, Note_on_c, 14, 38, 90
26, 379019, Note_on_c, 14, 38, 0
26, 379020, Note_on_c, 14, 50, 90
26, 379139, Note_on_c, 14, 50, 0
26, 379140, Note_on_c, 14, 50, 90
26, 379259, Note_on_c, 14, 50, 0
26, 379260, Note_on_c, 14, 50, 90
26, 379379, Note_on_c, 14, 50, 0
26, 379380, Note_on_c, 14, 43, 90
26, 379499, Note_on_c, 14, 43, 0
26, 379500, Note_on_c, 14, 43, 90
26, 379619, Note_on_c, 14, 43, 0
26, 379620, Note_on_c, 14, 50, 90
26, 379679, Note_on_c, 14, 50, 0
26, 379680, Note_on_c, 14, 52, 90
26, 379739, Note_on_c, 14, 52, 0
26, 379740, Note_on_c, 14, 54, 90
26, 379799, Note_on_c, 14, 54, 0
26, 379800, Note_on_c, 14, 55, 90
26, 379859, Note_on_c, 14, 55, 0
26, 379860, Note_on_c, 14, 57, 90
26, 379919, Note_on_c, 14, 57, 0
26, 379920, Note_on_c, 14, 56, 90
26, 379979, Note_on_c, 14, 56, 0
26, 379980, Note_on_c, 14, 57, 90
26, 380039, Note_on_c, 14, 57, 0
26, 380040, Note_on_c, 14, 56, 90
26, 380099, Note_on_c, 14, 56, 0
26, 380100, Note_on_c, 14, 57, 90
26, 380339, Note_on_c, 14, 57, 0
26, 380340, Note_on_c, 14, 45, 90
26, 380579, Note_on_c, 14, 45, 0
26, 381540, Note_on_c, 14, 57, 90
26, 381779, Note_on_c, 14, 57, 0
26, 381780, Note_on_c, 14, 45, 90
26, 382019, Note_on_c, 14, 45, 0
26, 382980, Note_on_c, 14, 57, 90
26, 383219, Note_on_c, 14, 57, 0
26, 383220, Note_on_c, 14, 45, 90
26, 383459, Note_on_c, 14, 45, 0
26, 383460, Note_on_c, 14, 45, 90
26, 383579, Note_on_c, 14, 45, 0
26, 383580, Note_on_c, 14, 57, 90
26, 383699, Note_on_c, 14, 57, 0
26, 383700, Note_on_c, 14, 57, 90
26, 383819, Note_on_c, 14, 57, 0
26, 383820, Note_on_c, 14, 45, 90
26, 383939, Note_on_c, 14, 45, 0
26, 383940, Note_on_c, 14, 45, 90
26, 384059, Note_on_c, 14, 45, 0
26, 384060, Note_on_c, 14, 57, 90
26, 384179, Note_on_c, 14, 57, 0
26, 384180, Note_on_c, 14, 57, 90
26, 384299, Note_on_c, 14, 57, 0
26, 384300, Note_on_c, 14, 45, 90
26, 384419, Note_on_c, 14, 45, 0
26, 384420, Note_on_c, 14, 47, 90
26, 384539, Note_on_c, 14, 47, 0
26, 384540, Note_on_c, 14, 45, 90
26, 384599, Note_on_c, 14, 45, 0
26, 384600, Note_on_c, 14, 43, 90
26, 384659, Note_on_c, 14, 43, 0
26, 384660, Note_on_c, 14, 42, 90
26, 384779, Note_on_c, 14, 42, 0
26, 384780, Note_on_c, 14, 43, 90
26, 384899, Note_on_c, 14, 43, 0
26, 384900, Note_on_c, 14, 45, 90
26, 385019, Note_on_c, 14, 45, 0
26, 385020, Note_on_c, 14, 45, 90
26, 385139, Note_on_c, 14, 45, 0
26, 385140, Note_on_c, 14, 38, 90
26, 385379, Note_on_c, 14, 38, 0
26, 385379, End_track
27, 0, Start_track
27, 0, MIDI_port, 0
27, 0, Title_t, "Continuo H"
27, 0, Program_c, 15, 6
27, 82500, Note_on_c, 15, 61, 90
27, 82529, Note_on_c, 15, 61, 0
27, 82530, Note_on_c, 15, 62, 90
27, 82559, Note_on_c, 15, 62, 0
27, 82560, Note_on_c, 15, 64, 90
27, 82618, Note_on_c, 15, 64, 0
27, 82620, Note_on_c, 15, 66, 90
27, 82679, Note_on_c, 15, 66, 0
27, 82680, Note_on_c, 15, 64, 90
27, 82739, Note_on_c, 15, 64, 0
27, 82740, Note_on_c, 15, 62, 90
27, 82799, Note_on_c, 15, 62, 0
27, 82800, Note_on_c, 15, 64, 90
27, 82859, Note_on_c, 15, 64, 0
27, 82860, Note_on_c, 15, 62, 90
27, 82889, Note_on_c, 15, 62, 0
27, 82890, Note_on_c, 15, 64, 90
27, 82919, Note_on_c, 15, 64, 0
27, 82920, Note_on_c, 15, 76, 90
27, 82920, Note_on_c, 15, 61, 90
27, 82949, Note_on_c, 15, 76, 0
27, 82950, Note_on_c, 15, 74, 90
27, 82979, Note_on_c, 15, 74, 0
27, 82979, Note_on_c, 15, 61, 0
27, 82980, Note_on_c, 15, 73, 90
27, 82980, Note_on_c, 15, 62, 90
27, 83009, Note_on_c, 15, 73, 0
27, 83010, Note_on_c, 15, 71, 90
27, 83039, Note_on_c, 15, 71, 0
27, 83039, Note_on_c, 15, 62, 0
27, 83040, Note_on_c, 15, 69, 90
27, 83040, Note_on_c, 15, 64, 90
27, 83099, Note_on_c, 15, 64, 0
27, 83099, Note_on_c, 15, 69, 0
27, 83100, Note_on_c, 15, 64, 90
27, 83159, Note_on_c, 15, 64, 0
27, 83160, Note_on_c, 15, 71, 90
27, 83160, Note_on_c, 15, 64, 90
27, 83189, Note_on_c, 15, 71, 0
27, 83190, Note_on_c, 15, 69, 90
27, 83219, Note_on_c, 15, 69, 0
27, 83219, Note_on_c, 15, 64, 0
27, 83220, Note_on_c, 15, 68, 90
27, 83220, Note_on_c, 15, 64, 90
27, 83249, Note_on_c, 15, 68, 0
27, 83250, Note_on_c, 15, 66, 90
27, 83279, Note_on_c, 15, 66, 0
27, 83279, Note_on_c, 15, 64, 0
27, 83280, Note_on_c, 15, 68, 90
27, 83280, Note_on_c, 15, 64, 90
27, 83339, Note_on_c, 15, 64, 0
27, 83339, Note_on_c, 15, 68, 0
27, 83340, Note_on_c, 15, 64, 90
27, 83399, Note_on_c, 15, 64, 0
27, 83400, Note_on_c, 15, 73, 90
27, 83400, Note_on_c, 15, 64, 90
27, 83429, Note_on_c, 15, 73, 0
27, 83430, Note_on_c, 15, 71, 90
27, 83459, Note_on_c, 15, 71, 0
27, 83459, Note_on_c, 15, 64, 0
27, 83460, Note_on_c, 15, 69, 90
27, 83460, Note_on_c, 15, 64, 90
27, 83489, Note_on_c, 15, 69, 0
27, 83490, Note_on_c, 15, 68, 90
27, 83519, Note_on_c, 15, 68, 0
27, 83519, Note_on_c, 15, 64, 0
27, 83520, Note_on_c, 15, 64, 90
27, 83579, Note_on_c, 15, 64, 0
27, 83580, Note_on_c, 15, 62, 90
27, 83609, Note_on_c, 15, 62, 0
27, 83610, Note_on_c, 15, 64, 90
27, 83639, Note_on_c, 15, 64, 0
27, 83640, Note_on_c, 15, 61, 90
27, 83669, Note_on_c, 15, 61, 0
27, 83670, Note_on_c, 15, 62, 90
27, 83699, Note_on_c, 15, 62, 0
27, 83700, Note_on_c, 15, 64, 90
27, 83729, Note_on_c, 15, 64, 0
27, 83730, Note_on_c, 15, 66, 90
27, 83759, Note_on_c, 15, 66, 0
27, 83760, Note_on_c, 15, 68, 90
27, 83819, Note_on_c, 15, 68, 0
27, 83820, Note_on_c, 15, 66, 90
27, 83820, Note_on_c, 15, 69, 90
27, 83879, Note_on_c, 15, 69, 0
27, 83879, Note_on_c, 15, 66, 0
27, 83880, Note_on_c, 15, 64, 90
27, 83880, Note_on_c, 15, 68, 90
27, 83939, Note_on_c, 15, 68, 0
27, 83939, Note_on_c, 15, 64, 0
27, 83940, Note_on_c, 15, 63, 90
27, 83940, Note_on_c, 15, 66, 90
27, 83999, Note_on_c, 15, 66, 0
27, 83999, Note_on_c, 15, 63, 0
27, 84000, Note_on_c, 15, 64, 90
27, 84059, Note_on_c, 15, 64, 0
27, 84060, Note_on_c, 15, 64, 90
27, 84060, Note_on_c, 15, 68, 90
27, 84089, Note_on_c, 15, 68, 0
27, 84090, Note_on_c, 15, 66, 90
27, 84119, Note_on_c, 15, 66, 0
27, 84119, Note_on_c, 15, 64, 0
27, 84120, Note_on_c, 15, 64, 90
27, 84120, Note_on_c, 15, 68, 90
27, 84179, Note_on_c, 15, 68, 0
27, 84179, Note_on_c, 15, 64, 0
27, 84180, Note_on_c, 15, 61, 90
27, 84180, Note_on_c, 15, 68, 90
27, 84239, Note_on_c, 15, 68, 0
27, 84239, Note_on_c, 15, 61, 0
27, 84240, Note_on_c, 15, 61, 90
27, 84240, Note_on_c, 15, 68, 90
27, 84299, Note_on_c, 15, 68, 0
27, 84299, Note_on_c, 15, 61, 0
27, 84300, Note_on_c, 15, 69, 90
27, 84300, Note_on_c, 15, 66, 90
27, 84329, Note_on_c, 15, 66, 0
27, 84330, Note_on_c, 15, 64, 90
27, 84359, Note_on_c, 15, 64, 0
27, 84359, Note_on_c, 15, 69, 0
27, 84360, Note_on_c, 15, 59, 90
27, 84360, Note_on_c, 15, 66, 90
27, 84419, Note_on_c, 15, 66, 0
27, 84419, Note_on_c, 15, 59, 0
27, 84420, Note_on_c, 15, 59, 90
27, 84420, Note_on_c, 15, 66, 90
27, 84479, Note_on_c, 15, 66, 0
27, 84479, Note_on_c, 15, 59, 0
27, 84480, Note_on_c, 15, 59, 90
27, 84480, Note_on_c, 15, 71, 90
27, 84539, Note_on_c, 15, 71, 0
27, 84539, Note_on_c, 15, 59, 0
27, 84540, Note_on_c, 15, 59, 90
27, 84540, Note_on_c, 15, 68, 90
27, 84599, Note_on_c, 15, 68, 0
27, 84599, Note_on_c, 15, 59, 0
27, 84600, Note_on_c, 15, 59, 90
27, 84600, Note_on_c, 15, 64, 90
27, 84659, Note_on_c, 15, 64, 0
27, 84659, Note_on_c, 15, 59, 0
27, 84660, Note_on_c, 15, 57, 90
27, 84660, Note_on_c, 15, 63, 90
27, 84719, Note_on_c, 15, 63, 0
27, 84719, Note_on_c, 15, 57, 0
27, 84720, Note_on_c, 15, 59, 90
27, 84720, Note_on_c, 15, 64, 90
27, 84839, Note_on_c, 15, 64, 0
27, 84870, Note_on_c, 15, 63, 90
27, 84899, Note_on_c, 15, 63, 0
27, 84899, Note_on_c, 15, 59, 0
27, 84900, Note_on_c, 15, 59, 90
27, 84900, Note_on_c, 15, 64, 90
27, 84929, Note_on_c, 15, 64, 0
27, 84930, Note_on_c, 15, 66, 90
27, 84959, Note_on_c, 15, 66, 0
27, 84959, Note_on_c, 15, 59, 0
27, 84960, Note_on_c, 15, 64, 90
27, 84960, Note_on_c, 15, 68, 90
27, 84989, Note_on_c, 15, 64, 0
27, 84990, Note_on_c, 15, 62, 90
27, 85019, Note_on_c, 15, 62, 0
27, 85019, Note_on_c, 15, 68, 0
27, 85020, Note_on_c, 15, 61, 90
27, 85020, Note_on_c, 15, 69, 90
27, 85049, Note_on_c, 15, 61, 0
27, 85050, Note_on_c, 15, 62, 90
27, 85079, Note_on_c, 15, 62, 0
27, 85079, Note_on_c, 15, 69, 0
27, 85080, Note_on_c, 15, 64, 90
27, 85080, Note_on_c, 15, 68, 90
27, 85109, Note_on_c, 15, 64, 0
27, 85110, Note_on_c, 15, 66, 90
27, 85139, Note_on_c, 15, 66, 0
27, 85139, Note_on_c, 15, 68, 0
27, 85140, Note_on_c, 15, 64, 90
27, 85140, Note_on_c, 15, 66, 90
27, 85169, Note_on_c, 15, 64, 0
27, 85170, Note_on_c, 15, 66, 90
27, 85199, Note_on_c, 15, 66, 0
27, 85199, Note_on_c, 15, 66, 0
27, 85200, Note_on_c, 15, 64, 90
27, 85200, Note_on_c, 15, 68, 90
27, 85259, Note_on_c, 15, 68, 0
27, 85259, Note_on_c, 15, 64, 0
27, 85260, Note_on_c, 15, 59, 90
27, 85260, Note_on_c, 15, 66, 90
27, 85289, Note_on_c, 15, 66, 0
27, 85290, Note_on_c, 15, 68, 90
27, 85319, Note_on_c, 15, 68, 0
27, 85319, Note_on_c, 15, 59, 0
27, 85320, Note_on_c, 15, 59, 90
27, 85320, Note_on_c, 15, 64, 90
27, 85379, Note_on_c, 15, 64, 0
27, 85379, Note_on_c, 15, 59, 0
27, 85380, Note_on_c, 15, 64, 90
27, 85380, Note_on_c, 15, 68, 90
27, 85439, Note_on_c, 15, 68, 0
27, 85439, Note_on_c, 15, 64, 0
27, 85440, Note_on_c, 15, 62, 90
27, 85440, Note_on_c, 15, 69, 90
27, 85499, Note_on_c, 15, 69, 0
27, 85499, Note_on_c, 15, 62, 0
27, 85500, Note_on_c, 15, 62, 90
27, 85500, Note_on_c, 15, 66, 90
27, 85529, Note_on_c, 15, 66, 0
27, 85530, Note_on_c, 15, 67, 90
27, 85559, Note_on_c, 15, 67, 0
27, 85559, Note_on_c, 15, 62, 0
27, 85560, Note_on_c, 15, 74, 90
27, 85560, Note_on_c, 15, 69, 90
27, 85589, Note_on_c, 15, 74, 0
27, 85590, Note_on_c, 15, 73, 90
27, 85619, Note_on_c, 15, 73, 0
27, 85619, Note_on_c, 15, 69, 0
27, 85620, Note_on_c, 15, 71, 90
27, 85620, Note_on_c, 15, 69, 90
27, 85649, Note_on_c, 15, 71, 0
27, 85650, Note_on_c, 15, 73, 90
27, 85679, Note_on_c, 15, 73, 0
27, 85679, Note_on_c, 15, 69, 0
27, 85680, Note_on_c, 15, 74, 90
27, 85680, Note_on_c, 15, 66, 90
27, 85680, Note_on_c, 15, 69, 90
27, 85739, Note_on_c, 15, 69, 0
27, 85739, Note_on_c, 15, 66, 0
27, 85739, Note_on_c, 15, 74, 0
27, 85740, Note_on_c, 15, 62, 90
27, 85740, Note_on_c, 15, 66, 90
27, 85769, Note_on_c, 15, 66, 0
27, 85770, Note_on_c, 15, 67, 90
27, 85799, Note_on_c, 15, 67, 0
27, 85799, Note_on_c, 15, 62, 0
27, 85800, Note_on_c, 15, 74, 90
27, 85800, Note_on_c, 15, 69, 90
27, 85829, Note_on_c, 15, 74, 0
27, 85830, Note_on_c, 15, 73, 90
27, 85859, Note_on_c, 15, 73, 0
27, 85859, Note_on_c, 15, 69, 0
27, 85860, Note_on_c, 15, 71, 90
27, 85860, Note_on_c, 15, 69, 90
27, 85889, Note_on_c, 15, 71, 0
27, 85890, Note_on_c, 15, 69, 90
27, 85919, Note_on_c, 15, 69, 0
27, 85919, Note_on_c, 15, 69, 0
27, 85920, Note_on_c, 15, 64, 90
27, 85920, Note_on_c, 15, 71, 90
27, 85979, Note_on_c, 15, 71, 0
27, 85979, Note_on_c, 15, 64, 0
27, 85980, Note_on_c, 15, 64, 90
27, 85980, Note_on_c, 15, 68, 90
27, 86009, Note_on_c, 15, 68, 0
27, 86010, Note_on_c, 15, 69, 90
27, 86039, Note_on_c, 15, 69, 0
27, 86039, Note_on_c, 15, 64, 0
27, 86040, Note_on_c, 15, 64, 90
27, 86040, Note_on_c, 15, 71, 90
27, 86069, Note_on_c, 15, 64, 0
27, 86070, Note_on_c, 15, 66, 90
27, 86099, Note_on_c, 15, 66, 0
27, 86099, Note_on_c, 15, 71, 0
27, 86100, Note_on_c, 15, 68, 90
27, 86100, Note_on_c, 15, 71, 90
27, 86129, Note_on_c, 15, 68, 0
27, 86130, Note_on_c, 15, 66, 90
27, 86159, Note_on_c, 15, 66, 0
27, 86159, Note_on_c, 15, 71, 0
27, 86160, Note_on_c, 15, 64, 90
27, 86160, Note_on_c, 15, 71, 90
27, 86219, Note_on_c, 15, 71, 0
27, 86219, Note_on_c, 15, 64, 0
27, 86220, Note_on_c, 15, 64, 90
27, 86220, Note_on_c, 15, 68, 90
27, 86249, Note_on_c, 15, 68, 0
27, 86250, Note_on_c, 15, 69, 90
27, 86279, Note_on_c, 15, 69, 0
27, 86279, Note_on_c, 15, 64, 0
27, 86280, Note_on_c, 15, 64, 90
27, 86280, Note_on_c, 15, 71, 90
27, 86339, Note_on_c, 15, 71, 0
27, 86339, Note_on_c, 15, 64, 0
27, 86340, Note_on_c, 15, 64, 90
27, 86340, Note_on_c, 15, 71, 90
27, 86399, Note_on_c, 15, 71, 0
27, 86399, Note_on_c, 15, 64, 0
27, 86400, Note_on_c, 15, 64, 90
27, 86400, Note_on_c, 15, 69, 90
27, 86459, Note_on_c, 15, 69, 0
27, 86459, Note_on_c, 15, 64, 0
27, 86460, Note_on_c, 15, 64, 90
27, 86519, Note_on_c, 15, 64, 0
27, 86520, Note_on_c, 15, 62, 90
27, 86520, Note_on_c, 15, 66, 90
27, 86579, Note_on_c, 15, 66, 0
27, 86579, Note_on_c, 15, 62, 0
27, 86580, Note_on_c, 15, 59, 90
27, 86580, Note_on_c, 15, 64, 90
27, 86639, Note_on_c, 15, 64, 0
27, 86639, Note_on_c, 15, 59, 0
27, 86640, Note_on_c, 15, 61, 90
27, 86640, Note_on_c, 15, 64, 90
27, 86699, Note_on_c, 15, 64, 0
27, 86699, Note_on_c, 15, 61, 0
27, 86700, Note_on_c, 15, 61, 90
27, 86729, Note_on_c, 15, 61, 0
27, 86730, Note_on_c, 15, 62, 90
27, 86759, Note_on_c, 15, 62, 0
27, 86760, Note_on_c, 15, 64, 90
27, 86819, Note_on_c, 15, 64, 0
27, 86820, Note_on_c, 15, 66, 90
27, 86849, Note_on_c, 15, 66, 0
27, 86850, Note_on_c, 15, 68, 90
27, 86879, Note_on_c, 15, 68, 0
27, 86880, Note_on_c, 15, 69, 90
27, 86939, Note_on_c, 15, 69, 0
27, 86940, Note_on_c, 15, 64, 90
27, 86940, Note_on_c, 15, 69, 90
27, 86999, Note_on_c, 15, 69, 0
27, 86999, Note_on_c, 15, 64, 0
27, 87000, Note_on_c, 15, 61, 90
27, 87000, Note_on_c, 15, 69, 90
27, 87059, Note_on_c, 15, 69, 0
27, 87059, Note_on_c, 15, 61, 0
27, 87060, Note_on_c, 15, 59, 90
27, 87060, Note_on_c, 15, 64, 90
27, 87119, Note_on_c, 15, 64, 0
27, 87119, Note_on_c, 15, 59, 0
27, 87120, Note_on_c, 15, 61, 90
27, 87120, Note_on_c, 15, 64, 90
27, 87299, Note_on_c, 15, 64, 0
27, 87299, Note_on_c, 15, 61, 0
27, 87300, Note_on_c, 15, 61, 90
27, 87329, Note_on_c, 15, 61, 0
27, 87330, Note_on_c, 15, 62, 90
27, 87359, Note_on_c, 15, 62, 0
27, 87360, Note_on_c, 15, 64, 90
27, 87419, Note_on_c, 15, 64, 0
27, 87420, Note_on_c, 15, 66, 90
27, 87479, Note_on_c, 15, 66, 0
27, 87480, Note_on_c, 15, 64, 90
27, 87539, Note_on_c, 15, 64, 0
27, 87540, Note_on_c, 15, 62, 90
27, 87599, Note_on_c, 15, 62, 0
27, 87600, Note_on_c, 15, 64, 90
27, 87659, Note_on_c, 15, 64, 0
27, 87660, Note_on_c, 15, 62, 90
27, 87689, Note_on_c, 15, 62, 0
27, 87690, Note_on_c, 15, 64, 90
27, 87719, Note_on_c, 15, 64, 0
27, 87720, Note_on_c, 15, 61, 90
27, 87779, Note_on_c, 15, 61, 0
27, 87780, Note_on_c, 15, 62, 90
27, 87839, Note_on_c, 15, 62, 0
27, 87840, Note_on_c, 15, 64, 90
27, 87899, Note_on_c, 15, 64, 0
27, 87900, Note_on_c, 15, 64, 90
27, 87959, Note_on_c, 15, 64, 0
27, 87960, Note_on_c, 15, 64, 90
27, 88019, Note_on_c, 15, 64, 0
27, 88020, Note_on_c, 15, 64, 90
27, 88079, Note_on_c, 15, 64, 0
27, 88080, Note_on_c, 15, 64, 90
27, 88139, Note_on_c, 15, 64, 0
27, 88140, Note_on_c, 15, 64, 90
27, 88199, Note_on_c, 15, 64, 0
27, 88200, Note_on_c, 15, 64, 90
27, 88259, Note_on_c, 15, 64, 0
27, 88260, Note_on_c, 15, 64, 90
27, 88319, Note_on_c, 15, 64, 0
27, 88320, Note_on_c, 15, 64, 90
27, 88379, Note_on_c, 15, 64, 0
27, 88380, Note_on_c, 15, 64, 90
27, 88439, Note_on_c, 15, 64, 0
27, 88440, Note_on_c, 15, 64, 90
27, 88470, Note_on_c, 15, 68, 90
27, 88499, Note_on_c, 15, 68, 0
27, 88499, Note_on_c, 15, 64, 0
27, 88500, Note_on_c, 15, 64, 90
27, 88500, Note_on_c, 15, 69, 90
27, 88529, Note_on_c, 15, 69, 0
27, 88530, Note_on_c, 15, 71, 90
27, 88559, Note_on_c, 15, 71, 0
27, 88559, Note_on_c, 15, 64, 0
27, 88560, Note_on_c, 15, 64, 90
27, 88560, Note_on_c, 15, 73, 90
27, 88619, Note_on_c, 15, 73, 0
27, 88619, Note_on_c, 15, 64, 0
27, 88620, Note_on_c, 15, 71, 90
27, 88620, Note_on_c, 15, 74, 90
27, 88679, Note_on_c, 15, 74, 0
27, 88679, Note_on_c, 15, 71, 0
27, 88680, Note_on_c, 15, 69, 90
27, 88680, Note_on_c, 15, 73, 90
27, 88739, Note_on_c, 15, 73, 0
27, 88739, Note_on_c, 15, 69, 0
27, 88740, Note_on_c, 15, 68, 90
27, 88740, Note_on_c, 15, 71, 90
27, 88799, Note_on_c, 15, 71, 0
27, 88799, Note_on_c, 15, 68, 0
27, 88800, Note_on_c, 15, 69, 90
27, 88859, Note_on_c, 15, 69, 0
27, 88860, Note_on_c, 15, 69, 90
27, 88860, Note_on_c, 15, 73, 90
27, 88889, Note_on_c, 15, 73, 0
27, 88890, Note_on_c, 15, 71, 90
27, 88919, Note_on_c, 15, 71, 0
27, 88919, Note_on_c, 15, 69, 0
27, 88920, Note_on_c, 15, 69, 90
27, 88920, Note_on_c, 15, 73, 90
27, 88979, Note_on_c, 15, 73, 0
27, 88979, Note_on_c, 15, 69, 0
27, 88980, Note_on_c, 15, 66, 90
27, 88980, Note_on_c, 15, 73, 90
27, 89039, Note_on_c, 15, 73, 0
27, 89039, Note_on_c, 15, 66, 0
27, 89040, Note_on_c, 15, 66, 90
27, 89040, Note_on_c, 15, 73, 90
27, 89099, Note_on_c, 15, 73, 0
27, 89099, Note_on_c, 15, 66, 0
27, 89100, Note_on_c, 15, 59, 90
27, 89100, Note_on_c, 15, 71, 90
27, 89129, Note_on_c, 15, 71, 0
27, 89130, Note_on_c, 15, 69, 90
27, 89159, Note_on_c, 15, 69, 0
27, 89159, Note_on_c, 15, 59, 0
27, 89160, Note_on_c, 15, 64, 90
27, 89160, Note_on_c, 15, 71, 90
27, 89219, Note_on_c, 15, 71, 0
27, 89219, Note_on_c, 15, 64, 0
27, 89220, Note_on_c, 15, 64, 90
27, 89220, Note_on_c, 15, 71, 90
27, 89279, Note_on_c, 15, 71, 0
27, 89279, Note_on_c, 15, 64, 0
27, 89280, Note_on_c, 15, 64, 90
27, 89280, Note_on_c, 15, 76, 90
27, 89339, Note_on_c, 15, 76, 0
27, 89339, Note_on_c, 15, 64, 0
27, 89340, Note_on_c, 15, 64, 90
27, 89340, Note_on_c, 15, 73, 90
27, 89399, Note_on_c, 15, 73, 0
27, 89399, Note_on_c, 15, 64, 0
27, 89400, Note_on_c, 15, 64, 90
27, 89400, Note_on_c, 15, 69, 90
27, 89459, Note_on_c, 15, 69, 0
27, 89459, Note_on_c, 15, 64, 0
27, 89460, Note_on_c, 15, 62, 90
27, 89460, Note_on_c, 15, 68, 90
27, 89519, Note_on_c, 15, 68, 0
27, 89519, Note_on_c, 15, 62, 0
27, 89520, Note_on_c, 15, 61, 90
27, 89520, Note_on_c, 15, 64, 90
27, 89639, Note_on_c, 15, 64, 0
27, 89639, Note_on_c, 15, 61, 0
27, 89700, Note_on_c, 15, 61, 90
27, 89729, Note_on_c, 15, 61, 0
27, 89730, Note_on_c, 15, 62, 90
27, 89759, Note_on_c, 15, 62, 0
27, 89760, Note_on_c, 15, 64, 90
27, 89819, Note_on_c, 15, 64, 0
27, 89820, Note_on_c, 15, 66, 90
27, 89879, Note_on_c, 15, 66, 0
27, 89880, Note_on_c, 15, 64, 90
27, 89939, Note_on_c, 15, 64, 0
27, 89940, Note_on_c, 15, 62, 90
27, 89999, Note_on_c, 15, 62, 0
27, 90000, Note_on_c, 15, 64, 90
27, 90059, Note_on_c, 15, 64, 0
27, 90060, Note_on_c, 15, 62, 90
27, 90089, Note_on_c, 15, 62, 0
27, 90090, Note_on_c, 15, 64, 90
27, 90119, Note_on_c, 15, 64, 0
27, 90120, Note_on_c, 15, 61, 90
27, 90179, Note_on_c, 15, 61, 0
27, 90180, Note_on_c, 15, 62, 90
27, 90239, Note_on_c, 15, 62, 0
27, 90240, Note_on_c, 15, 64, 90
27, 90299, Note_on_c, 15, 64, 0
27, 90300, Note_on_c, 15, 64, 90
27, 90359, Note_on_c, 15, 64, 0
27, 90360, Note_on_c, 15, 64, 90
27, 90419, Note_on_c, 15, 64, 0
27, 90420, Note_on_c, 15, 64, 90
27, 90479, Note_on_c, 15, 64, 0
27, 90480, Note_on_c, 15, 64, 90
27, 90539, Note_on_c, 15, 64, 0
27, 90540, Note_on_c, 15, 64, 90
27, 90599, Note_on_c, 15, 64, 0
27, 90600, Note_on_c, 15, 64, 90
27, 90659, Note_on_c, 15, 64, 0
27, 90660, Note_on_c, 15, 64, 90
27, 90719, Note_on_c, 15, 64, 0
27, 90720, Note_on_c, 15, 64, 90
27, 90779, Note_on_c, 15, 64, 0
27, 90780, Note_on_c, 15, 62, 90
27, 90809, Note_on_c, 15, 62, 0
27, 90810, Note_on_c, 15, 64, 90
27, 90839, Note_on_c, 15, 64, 0
27, 90840, Note_on_c, 15, 61, 90
27, 90869, Note_on_c, 15, 61, 0
27, 90870, Note_on_c, 15, 62, 90
27, 90899, Note_on_c, 15, 62, 0
27, 90900, Note_on_c, 15, 64, 90
27, 90929, Note_on_c, 15, 64, 0
27, 90930, Note_on_c, 15, 66, 90
27, 90959, Note_on_c, 15, 66, 0
27, 90960, Note_on_c, 15, 68, 90
27, 91019, Note_on_c, 15, 68, 0
27, 91020, Note_on_c, 15, 66, 90
27, 91020, Note_on_c, 15, 69, 90
27, 91079, Note_on_c, 15, 69, 0
27, 91079, Note_on_c, 15, 66, 0
27, 91080, Note_on_c, 15, 64, 90
27, 91080, Note_on_c, 15, 68, 90
27, 91139, Note_on_c, 15, 68, 0
27, 91139, Note_on_c, 15, 64, 0
27, 91140, Note_on_c, 15, 63, 90
27, 91140, Note_on_c, 15, 66, 90
27, 91199, Note_on_c, 15, 66, 0
27, 91199, Note_on_c, 15, 63, 0
27, 91200, Note_on_c, 15, 64, 90
27, 91230, Note_on_c, 15, 63, 90
27, 91259, Note_on_c, 15, 63, 0
27, 91259, Note_on_c, 15, 64, 0
27, 91260, Note_on_c, 15, 64, 90
27, 91260, Note_on_c, 15, 64, 90
27, 91289, Note_on_c, 15, 64, 0
27, 91290, Note_on_c, 15, 66, 90
27, 91319, Note_on_c, 15, 66, 0
27, 91319, Note_on_c, 15, 64, 0
27, 91320, Note_on_c, 15, 64, 90
27, 91320, Note_on_c, 15, 68, 90
27, 91379, Note_on_c, 15, 68, 0
27, 91379, Note_on_c, 15, 64, 0
27, 91380, Note_on_c, 15, 61, 90
27, 91380, Note_on_c, 15, 64, 90
27, 91439, Note_on_c, 15, 64, 0
27, 91439, Note_on_c, 15, 61, 0
27, 91440, Note_on_c, 15, 61, 90
27, 91440, Note_on_c, 15, 64, 90
27, 91469, Note_on_c, 15, 64, 0
27, 91470, Note_on_c, 15, 61, 90
27, 91499, Note_on_c, 15, 61, 0
27, 91499, Note_on_c, 15, 61, 0
27, 91500, Note_on_c, 15, 59, 90
27, 91500, Note_on_c, 15, 63, 90
27, 91529, Note_on_c, 15, 63, 0
27, 91530, Note_on_c, 15, 64, 90
27, 91559, Note_on_c, 15, 64, 0
27, 91559, Note_on_c, 15, 59, 0
27, 91560, Note_on_c, 15, 59, 90
27, 91560, Note_on_c, 15, 66, 90
27, 91619, Note_on_c, 15, 66, 0
27, 91619, Note_on_c, 15, 59, 0
27, 91620, Note_on_c, 15, 59, 90
27, 91620, Note_on_c, 15, 66, 90
27, 91679, Note_on_c, 15, 66, 0
27, 91679, Note_on_c, 15, 59, 0
27, 91680, Note_on_c, 15, 59, 90
27, 91680, Note_on_c, 15, 71, 90
27, 91739, Note_on_c, 15, 71, 0
27, 91739, Note_on_c, 15, 59, 0
27, 91740, Note_on_c, 15, 59, 90
27, 91740, Note_on_c, 15, 68, 90
27, 91799, Note_on_c, 15, 68, 0
27, 91799, Note_on_c, 15, 59, 0
27, 91800, Note_on_c, 15, 59, 90
27, 91800, Note_on_c, 15, 64, 90
27, 91859, Note_on_c, 15, 64, 0
27, 91859, Note_on_c, 15, 59, 0
27, 91860, Note_on_c, 15, 57, 90
27, 91860, Note_on_c, 15, 63, 90
27, 91919, Note_on_c, 15, 63, 0
27, 91919, Note_on_c, 15, 57, 0
27, 91920, Note_on_c, 15, 56, 90
27, 91920, Note_on_c, 15, 59, 90
27, 92039, Note_on_c, 15, 59, 0
27, 92039, Note_on_c, 15, 56, 0
27, 92070, Note_on_c, 15, 59, 90
27, 92070, Note_on_c, 15, 63, 90
27, 92099, Note_on_c, 15, 63, 0
27, 92099, Note_on_c, 15, 59, 0
27, 92100, Note_on_c, 15, 64, 90
27, 92129, Note_on_c, 15, 64, 0
27, 92130, Note_on_c, 15, 66, 90
27, 92159, Note_on_c, 15, 66, 0
27, 92160, Note_on_c, 15, 68, 90
27, 92219, Note_on_c, 15, 68, 0
27, 92220, Note_on_c, 15, 69, 90
27, 92279, Note_on_c, 15, 69, 0
27, 92280, Note_on_c, 15, 68, 90
27, 92339, Note_on_c, 15, 68, 0
27, 92340, Note_on_c, 15, 66, 90
27, 92399, Note_on_c, 15, 66, 0
27, 92400, Note_on_c, 15, 68, 90
27, 92459, Note_on_c, 15, 68, 0
27, 92460, Note_on_c, 15, 66, 90
27, 92489, Note_on_c, 15, 66, 0
27, 92490, Note_on_c, 15, 68, 90
27, 92519, Note_on_c, 15, 68, 0
27, 92520, Note_on_c, 15, 64, 90
27, 92579, Note_on_c, 15, 64, 0
27, 92580, Note_on_c, 15, 64, 90
27, 92580, Note_on_c, 15, 71, 90
27, 92639, Note_on_c, 15, 71, 0
27, 92639, Note_on_c, 15, 64, 0
27, 92640, Note_on_c, 15, 64, 90
27, 92640, Note_on_c, 15, 69, 90
27, 92759, Note_on_c, 15, 69, 0
27, 92759, Note_on_c, 15, 64, 0
27, 92820, Note_on_c, 15, 61, 90
27, 92820, Note_on_c, 15, 68, 90
27, 92879, Note_on_c, 15, 68, 0
27, 92879, Note_on_c, 15, 61, 0
27, 92880, Note_on_c, 15, 61, 90
27, 92880, Note_on_c, 15, 66, 90
27, 92999, Note_on_c, 15, 66, 0
27, 93030, Note_on_c, 15, 69, 90
27, 93059, Note_on_c, 15, 69, 0
27, 93059, Note_on_c, 15, 61, 0
27, 93060, Note_on_c, 15, 59, 90
27, 93060, Note_on_c, 15, 71, 90
27, 93089, Note_on_c, 15, 71, 0
27, 93090, Note_on_c, 15, 73, 90
27, 93119, Note_on_c, 15, 73, 0
27, 93119, Note_on_c, 15, 59, 0
27, 93120, Note_on_c, 15, 71, 90
27, 93120, Note_on_c, 15, 74, 90
27, 93149, Note_on_c, 15, 74, 0
27, 93150, Note_on_c, 15, 73, 90
27, 93179, Note_on_c, 15, 73, 0
27, 93179, Note_on_c, 15, 71, 0
27, 93180, Note_on_c, 15, 64, 90
27, 93180, Note_on_c, 15, 71, 90
27, 93209, Note_on_c, 15, 71, 0
27, 93210, Note_on_c, 15, 73, 90
27, 93239, Note_on_c, 15, 73, 0
27, 93239, Note_on_c, 15, 64, 0
27, 93240, Note_on_c, 15, 66, 90
27, 93240, Note_on_c, 15, 74, 90
27, 93269, Note_on_c, 15, 74, 0
27, 93270, Note_on_c, 15, 73, 90
27, 93299, Note_on_c, 15, 73, 0
27, 93299, Note_on_c, 15, 66, 0
27, 93300, Note_on_c, 15, 67, 90
27, 93300, Note_on_c, 15, 71, 90
27, 93329, Note_on_c, 15, 71, 0
27, 93330, Note_on_c, 15, 70, 90
27, 93359, Note_on_c, 15, 70, 0
27, 93359, Note_on_c, 15, 67, 0
27, 93360, Note_on_c, 15, 66, 90
27, 93360, Note_on_c, 15, 71, 90
27, 93479, Note_on_c, 15, 71, 0
27, 93479, Note_on_c, 15, 66, 0
27, 93540, Note_on_c, 15, 68, 90
27, 93540, Note_on_c, 15, 71, 90
27, 93599, Note_on_c, 15, 71, 0
27, 93599, Note_on_c, 15, 68, 0
27, 93600, Note_on_c, 15, 69, 90
27, 93600, Note_on_c, 15, 64, 90
27, 93719, Note_on_c, 15, 64, 0
27, 93719, Note_on_c, 15, 69, 0
27, 93780, Note_on_c, 15, 59, 90
27, 93780, Note_on_c, 15, 66, 90
27, 93839, Note_on_c, 15, 66, 0
27, 93839, Note_on_c, 15, 59, 0
27, 93840, Note_on_c, 15, 59, 90
27, 93840, Note_on_c, 15, 64, 90
27, 93959, Note_on_c, 15, 64, 0
27, 93990, Note_on_c, 15, 68, 90
27, 94019, Note_on_c, 15, 68, 0
27, 94019, Note_on_c, 15, 59, 0
27, 94020, Note_on_c, 15, 69, 90
27, 94049, Note_on_c, 15, 69, 0
27, 94050, Note_on_c, 15, 68, 90
27, 94050, Note_on_c, 15, 71, 90
27, 94079, Note_on_c, 15, 71, 0
27, 94079, Note_on_c, 15, 68, 0
27, 94080, Note_on_c, 15, 69, 90
27, 94080, Note_on_c, 15, 73, 90
27, 94109, Note_on_c, 15, 69, 0
27, 94110, Note_on_c, 15, 68, 90
27, 94139, Note_on_c, 15, 68, 0
27, 94139, Note_on_c, 15, 73, 0
27, 94140, Note_on_c, 15, 66, 90
27, 94140, Note_on_c, 15, 74, 90
27, 94169, Note_on_c, 15, 66, 0
27, 94170, Note_on_c, 15, 68, 90
27, 94199, Note_on_c, 15, 68, 0
27, 94199, Note_on_c, 15, 74, 0
27, 94200, Note_on_c, 15, 69, 90
27, 94200, Note_on_c, 15, 73, 90
27, 94229, Note_on_c, 15, 69, 0
27, 94230, Note_on_c, 15, 68, 90
27, 94259, Note_on_c, 15, 68, 0
27, 94259, Note_on_c, 15, 73, 0
27, 94260, Note_on_c, 15, 66, 90
27, 94260, Note_on_c, 15, 71, 90
27, 94289, Note_on_c, 15, 66, 0
27, 94290, Note_on_c, 15, 68, 90
27, 94319, Note_on_c, 15, 68, 0
27, 94319, Note_on_c, 15, 71, 0
27, 94320, Note_on_c, 15, 69, 90
27, 94320, Note_on_c, 15, 73, 90
27, 94379, Note_on_c, 15, 73, 0
27, 94379, Note_on_c, 15, 69, 0
27, 94380, Note_on_c, 15, 68, 90
27, 94380, Note_on_c, 15, 71, 90
27, 94409, Note_on_c, 15, 71, 0
27, 94410, Note_on_c, 15, 73, 90
27, 94439, Note_on_c, 15, 73, 0
27, 94439, Note_on_c, 15, 68, 0
27, 94440, Note_on_c, 15, 64, 90
27, 94440, Note_on_c, 15, 69, 90
27, 94499, Note_on_c, 15, 69, 0
27, 94499, Note_on_c, 15, 64, 0
27, 94500, Note_on_c, 15, 62, 90
27, 94500, Note_on_c, 15, 74, 90
27, 94559, Note_on_c, 15, 74, 0
27, 94559, Note_on_c, 15, 62, 0
27, 94560, Note_on_c, 15, 64, 90
27, 94560, Note_on_c, 15, 73, 90
27, 94619, Note_on_c, 15, 73, 0
27, 94620, Note_on_c, 15, 71, 90
27, 94649, Note_on_c, 15, 71, 0
27, 94650, Note_on_c, 15, 73, 90
27, 94679, Note_on_c, 15, 73, 0
27, 94680, Note_on_c, 15, 64, 0
27, 94680, Note_on_c, 15, 69, 90
27, 94739, Note_on_c, 15, 69, 0
27, 94740, Note_on_c, 15, 64, 90
27, 94740, Note_on_c, 15, 73, 90
27, 94799, Note_on_c, 15, 73, 0
27, 94800, Note_on_c, 15, 64, 0
27, 94800, Note_on_c, 15, 64, 90
27, 94800, Note_on_c, 15, 71, 90
27, 94859, Note_on_c, 15, 71, 0
27, 94860, Note_on_c, 15, 69, 90
27, 94889, Note_on_c, 15, 69, 0
27, 94890, Note_on_c, 15, 71, 90
27, 94919, Note_on_c, 15, 71, 0
27, 94920, Note_on_c, 15, 64, 0
27, 94920, Note_on_c, 15, 68, 90
27, 94979, Note_on_c, 15, 68, 0
27, 94980, Note_on_c, 15, 64, 90
27, 94980, Note_on_c, 15, 71, 90
27, 95039, Note_on_c, 15, 71, 0
27, 95040, Note_on_c, 15, 64, 0
27, 95040, Note_on_c, 15, 64, 90
27, 95040, Note_on_c, 15, 69, 90
27, 95099, Note_on_c, 15, 69, 0
27, 95100, Note_on_c, 15, 64, 0
27, 95100, Note_on_c, 15, 68, 90
27, 95160, Note_on_c, 15, 68, 0
27, 95160, Note_on_c, 15, 76, 90
27, 95160, Note_on_c, 15, 69, 90
27, 95219, Note_on_c, 15, 76, 0
27, 95220, Note_on_c, 15, 69, 0
27, 95220, Note_on_c, 15, 69, 90
27, 95220, Note_on_c, 15, 78, 90
27, 95279, Note_on_c, 15, 78, 0
27, 95280, Note_on_c, 15, 69, 0
27, 95280, Note_on_c, 15, 64, 90
27, 95280, Note_on_c, 15, 76, 90
27, 95399, Note_on_c, 15, 76, 0
27, 95400, Note_on_c, 15, 64, 0
27, 95460, Note_on_c, 15, 76, 90
27, 95460, Note_on_c, 15, 80, 90
27, 95519, Note_on_c, 15, 80, 0
27, 95520, Note_on_c, 15, 76, 0
27, 95520, Note_on_c, 15, 73, 90
27, 95520, Note_on_c, 15, 78, 90
27, 95549, Note_on_c, 15, 78, 0
27, 95549, Note_on_c, 15, 73, 0
27, 95550, Note_on_c, 15, 71, 90
27, 95550, Note_on_c, 15, 80, 90
27, 95579, Note_on_c, 15, 80, 0
27, 95579, Note_on_c, 15, 71, 0
27, 95580, Note_on_c, 15, 69, 90
27, 95580, Note_on_c, 15, 81, 90
27, 95609, Note_on_c, 15, 81, 0
27, 95609, Note_on_c, 15, 69, 0
27, 95610, Note_on_c, 15, 71, 90
27, 95610, Note_on_c, 15, 80, 90
27, 95639, Note_on_c, 15, 80, 0
27, 95639, Note_on_c, 15, 71, 0
27, 95640, Note_on_c, 15, 73, 90
27, 95640, Note_on_c, 15, 78, 90
27, 95669, Note_on_c, 15, 73, 0
27, 95670, Note_on_c, 15, 74, 90
27, 95699, Note_on_c, 15, 74, 0
27, 95699, Note_on_c, 15, 78, 0
27, 95700, Note_on_c, 15, 73, 90
27, 95729, Note_on_c, 15, 73, 0
27, 95730, Note_on_c, 15, 71, 90
27, 95730, Note_on_c, 15, 74, 90
27, 95759, Note_on_c, 15, 74, 0
27, 95759, Note_on_c, 15, 71, 0
27, 95760, Note_on_c, 15, 69, 90
27, 95760, Note_on_c, 15, 76, 90
27, 95789, Note_on_c, 15, 76, 0
27, 95790, Note_on_c, 15, 74, 90
27, 95819, Note_on_c, 15, 74, 0
27, 95819, Note_on_c, 15, 69, 0
27, 95820, Note_on_c, 15, 69, 90
27, 95820, Note_on_c, 15, 73, 90
27, 95849, Note_on_c, 15, 73, 0
27, 95850, Note_on_c, 15, 71, 90
27, 95879, Note_on_c, 15, 71, 0
27, 95879, Note_on_c, 15, 69, 0
27, 95880, Note_on_c, 15, 64, 90
27, 95880, Note_on_c, 15, 69, 90
27, 95909, Note_on_c, 15, 64, 0
27, 95910, Note_on_c, 15, 68, 90
27, 95939, Note_on_c, 15, 68, 0
27, 95939, Note_on_c, 15, 69, 0
27, 95940, Note_on_c, 15, 66, 90
27, 95940, Note_on_c, 15, 76, 90
27, 95969, Note_on_c, 15, 66, 0
27, 95970, Note_on_c, 15, 64, 90
27, 95999, Note_on_c, 15, 64, 0
27, 95999, Note_on_c, 15, 76, 0
27, 96000, Note_on_c, 15, 71, 90
27, 96000, Note_on_c, 15, 78, 90
27, 96029, Note_on_c, 15, 78, 0
27, 96030, Note_on_c, 15, 76, 90
27, 96059, Note_on_c, 15, 76, 0
27, 96059, Note_on_c, 15, 71, 0
27, 96060, Note_on_c, 15, 59, 90
27, 96060, Note_on_c, 15, 75, 90
27, 96089, Note_on_c, 15, 75, 0
27, 96089, Note_on_c, 15, 59, 0
27, 96090, Note_on_c, 15, 61, 90
27, 96090, Note_on_c, 15, 73, 90
27, 96119, Note_on_c, 15, 73, 0
27, 96119, Note_on_c, 15, 61, 0
27, 96120, Note_on_c, 15, 63, 90
27, 96120, Note_on_c, 15, 71, 90
27, 96149, Note_on_c, 15, 63, 0
27, 96150, Note_on_c, 15, 64, 90
27, 96179, Note_on_c, 15, 64, 0
27, 96179, Note_on_c, 15, 71, 0
27, 96180, Note_on_c, 15, 66, 90
27, 96180, Note_on_c, 15, 71, 90
27, 96209, Note_on_c, 15, 66, 0
27, 96210, Note_on_c, 15, 68, 90
27, 96239, Note_on_c, 15, 68, 0
27, 96239, Note_on_c, 15, 71, 0
27, 96240, Note_on_c, 15, 69, 90
27, 96240, Note_on_c, 15, 71, 90
27, 96269, Note_on_c, 15, 71, 0
27, 96269, Note_on_c, 15, 69, 0
27, 96270, Note_on_c, 15, 73, 90
27, 96270, Note_on_c, 15, 63, 90
27, 96299, Note_on_c, 15, 63, 0
27, 96299, Note_on_c, 15, 73, 0
27, 96300, Note_on_c, 15, 71, 90
27, 96300, Note_on_c, 15, 64, 90
27, 96329, Note_on_c, 15, 64, 0
27, 96329, Note_on_c, 15, 71, 0
27, 96330, Note_on_c, 15, 69, 90
27, 96330, Note_on_c, 15, 66, 90
27, 96359, Note_on_c, 15, 66, 0
27, 96359, Note_on_c, 15, 69, 0
27, 96360, Note_on_c, 15, 68, 90
27, 96360, Note_on_c, 15, 68, 90
27, 96389, Note_on_c, 15, 68, 0
27, 96389, Note_on_c, 15, 68, 0
27, 96390, Note_on_c, 15, 66, 90
27, 96390, Note_on_c, 15, 69, 90
27, 96419, Note_on_c, 15, 69, 0
27, 96419, Note_on_c, 15, 66, 0
27, 96420, Note_on_c, 15, 64, 90
27, 96420, Note_on_c, 15, 71, 90
27, 96449, Note_on_c, 15, 71, 0
27, 96449, Note_on_c, 15, 64, 0
27, 96450, Note_on_c, 15, 63, 90
27, 96450, Note_on_c, 15, 69, 90
27, 96479, Note_on_c, 15, 69, 0
27, 96479, Note_on_c, 15, 63, 0
27, 96480, Note_on_c, 15, 64, 90
27, 96480, Note_on_c, 15, 68, 90
27, 96539, Note_on_c, 15, 68, 0
27, 96539, Note_on_c, 15, 64, 0
27, 96540, Note_on_c, 15, 68, 90
27, 96540, Note_on_c, 15, 71, 90
27, 96599, Note_on_c, 15, 71, 0
27, 96599, Note_on_c, 15, 68, 0
27, 96600, Note_on_c, 15, 66, 90
27, 96600, Note_on_c, 15, 73, 90
27, 96659, Note_on_c, 15, 73, 0
27, 96659, Note_on_c, 15, 66, 0
27, 96660, Note_on_c, 15, 66, 90
27, 96660, Note_on_c, 15, 71, 90
27, 96719, Note_on_c, 15, 71, 0
27, 96719, Note_on_c, 15, 66, 0
27, 96720, Note_on_c, 15, 68, 90
27, 96720, Note_on_c, 15, 71, 90
27, 96839, Note_on_c, 15, 71, 0
27, 96839, Note_on_c, 15, 68, 0
27, 96900, Note_on_c, 15, 56, 90
27, 96900, Note_on_c, 15, 59, 90
27, 96959, Note_on_c, 15, 59, 0
27, 96959, Note_on_c, 15, 56, 0
27, 96960, Note_on_c, 15, 57, 90
27, 96960, Note_on_c, 15, 64, 90
27, 97019, Note_on_c, 15, 64, 0
27, 97019, Note_on_c, 15, 57, 0
27, 97020, Note_on_c, 15, 57, 90
27, 97020, Note_on_c, 15, 61, 90
27, 97049, Note_on_c, 15, 61, 0
27, 97050, Note_on_c, 15, 62, 90
27, 97079, Note_on_c, 15, 62, 0
27, 97079, Note_on_c, 15, 57, 0
27, 97080, Note_on_c, 15, 57, 90
27, 97080, Note_on_c, 15, 64, 90
27, 97109, Note_on_c, 15, 57, 0
27, 97110, Note_on_c, 15, 56, 90
27, 97139, Note_on_c, 15, 56, 0
27, 97139, Note_on_c, 15, 64, 0
27, 97140, Note_on_c, 15, 57, 90
27, 97140, Note_on_c, 15, 64, 90
27, 97169, Note_on_c, 15, 57, 0
27, 97170, Note_on_c, 15, 59, 90
27, 97199, Note_on_c, 15, 59, 0
27, 97199, Note_on_c, 15, 64, 0
27, 97200, Note_on_c, 15, 61, 90
27, 97200, Note_on_c, 15, 64, 90
27, 97259, Note_on_c, 15, 64, 0
27, 97259, Note_on_c, 15, 61, 0
27, 97260, Note_on_c, 15, 57, 90
27, 97260, Note_on_c, 15, 61, 90
27, 97289, Note_on_c, 15, 61, 0
27, 97290, Note_on_c, 15, 62, 90
27, 97319, Note_on_c, 15, 62, 0
27, 97319, Note_on_c, 15, 57, 0
27, 97320, Note_on_c, 15, 57, 90
27, 97320, Note_on_c, 15, 64, 90
27, 97349, Note_on_c, 15, 57, 0
27, 97350, Note_on_c, 15, 56, 90
27, 97379, Note_on_c, 15, 56, 0
27, 97379, Note_on_c, 15, 64, 0
27, 97380, Note_on_c, 15, 54, 90
27, 97380, Note_on_c, 15, 64, 90
27, 97409, Note_on_c, 15, 54, 0
27, 97410, Note_on_c, 15, 52, 90
27, 97439, Note_on_c, 15, 52, 0
27, 97439, Note_on_c, 15, 64, 0
27, 97440, Note_on_c, 15, 59, 90
27, 97440, Note_on_c, 15, 66, 90
27, 97499, Note_on_c, 15, 66, 0
27, 97499, Note_on_c, 15, 59, 0
27, 97500, Note_on_c, 15, 59, 90
27, 97500, Note_on_c, 15, 63, 90
27, 97529, Note_on_c, 15, 63, 0
27, 97530, Note_on_c, 15, 64, 90
27, 97559, Note_on_c, 15, 64, 0
27, 97559, Note_on_c, 15, 59, 0
27, 97560, Note_on_c, 15, 59, 90
27, 97560, Note_on_c, 15, 66, 90
27, 97589, Note_on_c, 15, 59, 0
27, 97590, Note_on_c, 15, 61, 90
27, 97619, Note_on_c, 15, 61, 0
27, 97619, Note_on_c, 15, 66, 0
27, 97620, Note_on_c, 15, 63, 90
27, 97620, Note_on_c, 15, 66, 90
27, 97649, Note_on_c, 15, 63, 0
27, 97650, Note_on_c, 15, 64, 90
27, 97679, Note_on_c, 15, 64, 0
27, 97679, Note_on_c, 15, 66, 0
27, 97680, Note_on_c, 15, 63, 90
27, 97680, Note_on_c, 15, 66, 90
27, 97739, Note_on_c, 15, 66, 0
27, 97739, Note_on_c, 15, 63, 0
27, 97740, Note_on_c, 15, 54, 90
27, 97740, Note_on_c, 15, 63, 90
27, 97769, Note_on_c, 15, 63, 0
27, 97770, Note_on_c, 15, 64, 90
27, 97799, Note_on_c, 15, 64, 0
27, 97799, Note_on_c, 15, 54, 0
27, 97800, Note_on_c, 15, 63, 90
27, 97800, Note_on_c, 15, 66, 90
27, 97859, Note_on_c, 15, 66, 0
27, 97859, Note_on_c, 15, 63, 0
27, 97860, Note_on_c, 15, 63, 90
27, 97860, Note_on_c, 15, 66, 90
27, 97919, Note_on_c, 15, 66, 0
27, 97919, Note_on_c, 15, 63, 0
27, 97920, Note_on_c, 15, 59, 90
27, 97920, Note_on_c, 15, 64, 90
27, 97979, Note_on_c, 15, 64, 0
27, 97979, Note_on_c, 15, 59, 0
27, 97980, Note_on_c, 15, 59, 90
27, 98039, Note_on_c, 15, 59, 0
27, 98040, Note_on_c, 15, 57, 90
27, 98040, Note_on_c, 15, 61, 90
27, 98099, Note_on_c, 15, 61, 0
27, 98099, Note_on_c, 15, 57, 0
27, 98100, Note_on_c, 15, 54, 90
27, 98100, Note_on_c, 15, 59, 90
27, 98159, Note_on_c, 15, 59, 0
27, 98159, Note_on_c, 15, 54, 0
27, 98160, Note_on_c, 15, 56, 90
27, 98160, Note_on_c, 15, 59, 90
27, 98219, Note_on_c, 15, 59, 0
27, 98219, Note_on_c, 15, 56, 0
27, 98220, Note_on_c, 15, 56, 90
27, 98220, Note_on_c, 15, 68, 90
27, 98249, Note_on_c, 15, 68, 0
27, 98250, Note_on_c, 15, 56, 0
27, 98250, Note_on_c, 15, 57, 90
27, 98250, Note_on_c, 15, 69, 90
27, 98279, Note_on_c, 15, 69, 0
27, 98280, Note_on_c, 15, 57, 0
27, 98280, Note_on_c, 15, 59, 90
27, 98280, Note_on_c, 15, 71, 90
27, 98339, Note_on_c, 15, 71, 0
27, 98339, Note_on_c, 15, 59, 0
27, 98340, Note_on_c, 15, 61, 90
27, 98340, Note_on_c, 15, 73, 90
27, 98369, Note_on_c, 15, 73, 0
27, 98369, Note_on_c, 15, 61, 0
27, 98370, Note_on_c, 15, 63, 90
27, 98370, Note_on_c, 15, 75, 90
27, 98399, Note_on_c, 15, 75, 0
27, 98399, Note_on_c, 15, 63, 0
27, 98400, Note_on_c, 15, 64, 90
27, 98400, Note_on_c, 15, 76, 90
27, 98459, Note_on_c, 15, 76, 0
27, 98459, Note_on_c, 15, 64, 0
27, 98460, Note_on_c, 15, 64, 90
27, 98460, Note_on_c, 15, 76, 90
27, 98489, Note_on_c, 15, 64, 0
27, 98490, Note_on_c, 15, 66, 90
27, 98519, Note_on_c, 15, 66, 0
27, 98519, Note_on_c, 15, 76, 0
27, 98520, Note_on_c, 15, 68, 90
27, 98520, Note_on_c, 15, 76, 90
27, 98579, Note_on_c, 15, 76, 0
27, 98579, Note_on_c, 15, 68, 0
27, 98580, Note_on_c, 15, 66, 90
27, 98580, Note_on_c, 15, 71, 90
27, 98639, Note_on_c, 15, 71, 0
27, 98639, Note_on_c, 15, 66, 0
27, 98640, Note_on_c, 15, 68, 90
27, 98640, Note_on_c, 15, 71, 90
27, 98759, Note_on_c, 15, 71, 0
27, 98759, Note_on_c, 15, 68, 0
27, 98910, Note_on_c, 15, 71, 90
27, 98910, Note_on_c, 15, 64, 90
27, 98939, Note_on_c, 15, 64, 0
27, 98939, Note_on_c, 15, 71, 0
27, 98940, Note_on_c, 15, 68, 90
27, 98969, Note_on_c, 15, 68, 0
27, 98970, Note_on_c, 15, 66, 90
27, 98970, Note_on_c, 15, 69, 90
27, 98999, Note_on_c, 15, 69, 0
27, 98999, Note_on_c, 15, 66, 0
27, 99000, Note_on_c, 15, 64, 90
27, 99000, Note_on_c, 15, 71, 90
27, 99029, Note_on_c, 15, 71, 0
27, 99029, Note_on_c, 15, 64, 0
27, 99030, Note_on_c, 15, 68, 90
27, 99059, Note_on_c, 15, 68, 0
27, 99060, Note_on_c, 15, 71, 90
27, 99060, Note_on_c, 15, 64, 90
27, 99089, Note_on_c, 15, 64, 0
27, 99089, Note_on_c, 15, 71, 0
27, 99090, Note_on_c, 15, 68, 90
27, 99119, Note_on_c, 15, 68, 0
27, 99120, Note_on_c, 15, 65, 90
27, 99120, Note_on_c, 15, 71, 90
27, 99179, Note_on_c, 15, 71, 0
27, 99179, Note_on_c, 15, 65, 0
27, 99390, Note_on_c, 15, 73, 90
27, 99390, Note_on_c, 15, 66, 90
27, 99419, Note_on_c, 15, 66, 0
27, 99419, Note_on_c, 15, 73, 0
27, 99420, Note_on_c, 15, 69, 90
27, 99449, Note_on_c, 15, 69, 0
27, 99450, Note_on_c, 15, 66, 90
27, 99450, Note_on_c, 15, 73, 90
27, 99479, Note_on_c, 15, 73, 0
27, 99479, Note_on_c, 15, 66, 0
27, 99480, Note_on_c, 15, 73, 90
27, 99480, Note_on_c, 15, 78, 90
27, 99509, Note_on_c, 15, 78, 0
27, 99509, Note_on_c, 15, 73, 0
27, 99510, Note_on_c, 15, 66, 90
27, 99510, Note_on_c, 15, 73, 90
27, 99539, Note_on_c, 15, 73, 0
27, 99539, Note_on_c, 15, 66, 0
27, 99540, Note_on_c, 15, 69, 90
27, 99569, Note_on_c, 15, 69, 0
27, 99570, Note_on_c, 15, 66, 90
27, 99570, Note_on_c, 15, 73, 90
27, 99599, Note_on_c, 15, 73, 0
27, 99599, Note_on_c, 15, 66, 0
27, 99600, Note_on_c, 15, 64, 90
27, 99600, Note_on_c, 15, 76, 90
27, 99629, Note_on_c, 15, 76, 0
27, 99629, Note_on_c, 15, 64, 0
27, 99630, Note_on_c, 15, 69, 90
27, 99630, Note_on_c, 15, 64, 90
27, 99659, Note_on_c, 15, 64, 0
27, 99659, Note_on_c, 15, 69, 0
27, 99660, Note_on_c, 15, 64, 90
27, 99660, Note_on_c, 15, 69, 90
27, 99689, Note_on_c, 15, 69, 0
27, 99689, Note_on_c, 15, 64, 0
27, 99690, Note_on_c, 15, 61, 90
27, 99690, Note_on_c, 15, 73, 90
27, 99719, Note_on_c, 15, 73, 0
27, 99719, Note_on_c, 15, 61, 0
27, 99720, Note_on_c, 15, 69, 90
27, 99720, Note_on_c, 15, 76, 90
27, 99749, Note_on_c, 15, 76, 0
27, 99749, Note_on_c, 15, 69, 0
27, 99750, Note_on_c, 15, 64, 90
27, 99750, Note_on_c, 15, 69, 90
27, 99779, Note_on_c, 15, 69, 0
27, 99779, Note_on_c, 15, 64, 0
27, 99780, Note_on_c, 15, 69, 90
27, 99780, Note_on_c, 15, 64, 90
27, 99809, Note_on_c, 15, 64, 0
27, 99809, Note_on_c, 15, 69, 0
27, 99810, Note_on_c, 15, 76, 90
27, 99810, Note_on_c, 15, 69, 90
27, 99839, Note_on_c, 15, 69, 0
27, 99839, Note_on_c, 15, 76, 0
27, 99840, Note_on_c, 15, 69, 90
27, 99840, Note_on_c, 15, 74, 90
27, 99869, Note_on_c, 15, 74, 0
27, 99869, Note_on_c, 15, 69, 0
27, 99870, Note_on_c, 15, 69, 90
27, 99870, Note_on_c, 15, 62, 90
27, 99899, Note_on_c, 15, 62, 0
27, 99899, Note_on_c, 15, 69, 0
27, 99900, Note_on_c, 15, 66, 90
27, 99929, Note_on_c, 15, 66, 0
27, 99930, Note_on_c, 15, 62, 90
27, 99930, Note_on_c, 15, 69, 90
27, 99959, Note_on_c, 15, 69, 0
27, 99959, Note_on_c, 15, 62, 0
27, 99960, Note_on_c, 15, 69, 90
27, 99960, Note_on_c, 15, 74, 90
27, 99989, Note_on_c, 15, 74, 0
27, 99989, Note_on_c, 15, 69, 0
27, 99990, Note_on_c, 15, 62, 90
27, 99990, Note_on_c, 15, 69, 90
27, 100019, Note_on_c, 15, 69, 0
27, 100019, Note_on_c, 15, 62, 0
27, 100020, Note_on_c, 15, 66, 90
27, 100049, Note_on_c, 15, 66, 0
27, 100050, Note_on_c, 15, 62, 90
27, 100050, Note_on_c, 15, 69, 90
27, 100079, Note_on_c, 15, 69, 0
27, 100079, Note_on_c, 15, 62, 0
27, 100080, Note_on_c, 15, 61, 90
27, 100080, Note_on_c, 15, 73, 90
27, 100109, Note_on_c, 15, 73, 0
27, 100109, Note_on_c, 15, 61, 0
27, 100110, Note_on_c, 15, 64, 90
27, 100110, Note_on_c, 15, 70, 90
27, 100139, Note_on_c, 15, 70, 0
27, 100139, Note_on_c, 15, 64, 0
27, 100140, Note_on_c, 15, 66, 90
27, 100169, Note_on_c, 15, 66, 0
27, 100170, Note_on_c, 15, 64, 90
27, 100170, Note_on_c, 15, 70, 90
27, 100199, Note_on_c, 15, 70, 0
27, 100199, Note_on_c, 15, 64, 0
27, 100200, Note_on_c, 15, 61, 90
27, 100200, Note_on_c, 15, 73, 90
27, 100229, Note_on_c, 15, 73, 0
27, 100229, Note_on_c, 15, 61, 0
27, 100230, Note_on_c, 15, 64, 90
27, 100230, Note_on_c, 15, 70, 90
27, 100259, Note_on_c, 15, 70, 0
27, 100259, Note_on_c, 15, 64, 0
27, 100260, Note_on_c, 15, 66, 90
27, 100289, Note_on_c, 15, 66, 0
27, 100290, Note_on_c, 15, 64, 90
27, 100290, Note_on_c, 15, 70, 90
27, 100319, Note_on_c, 15, 70, 0
27, 100319, Note_on_c, 15, 64, 0
27, 100320, Note_on_c, 15, 66, 90
27, 100320, Note_on_c, 15, 71, 90
27, 100379, Note_on_c, 15, 71, 0
27, 100379, Note_on_c, 15, 66, 0
27, 100740, Note_on_c, 15, 66, 90
27, 100740, Note_on_c, 15, 69, 90
27, 100769, Note_on_c, 15, 69, 0
27, 100770, Note_on_c, 15, 71, 90
27, 100799, Note_on_c, 15, 71, 0
27, 100799, Note_on_c, 15, 66, 0
27, 100800, Note_on_c, 15, 61, 90
27, 100800, Note_on_c, 15, 73, 90
27, 100859, Note_on_c, 15, 73, 0
27, 100859, Note_on_c, 15, 61, 0
27, 100860, Note_on_c, 15, 59, 90
27, 100860, Note_on_c, 15, 74, 90
27, 100919, Note_on_c, 15, 74, 0
27, 100919, Note_on_c, 15, 59, 0
27, 100920, Note_on_c, 15, 61, 90
27, 100920, Note_on_c, 15, 73, 90
27, 100979, Note_on_c, 15, 73, 0
27, 100979, Note_on_c, 15, 61, 0
27, 100980, Note_on_c, 15, 62, 90
27, 100980, Note_on_c, 15, 71, 90
27, 101039, Note_on_c, 15, 71, 0
27, 101039, Note_on_c, 15, 62, 0
27, 101040, Note_on_c, 15, 61, 90
27, 101040, Note_on_c, 15, 73, 90
27, 101099, Note_on_c, 15, 73, 0
27, 101099, Note_on_c, 15, 61, 0
27, 101100, Note_on_c, 15, 61, 90
27, 101100, Note_on_c, 15, 71, 90
27, 101129, Note_on_c, 15, 71, 0
27, 101130, Note_on_c, 15, 73, 90
27, 101159, Note_on_c, 15, 73, 0
27, 101159, Note_on_c, 15, 61, 0
27, 101160, Note_on_c, 15, 61, 90
27, 101160, Note_on_c, 15, 69, 90
27, 101219, Note_on_c, 15, 69, 0
27, 101219, Note_on_c, 15, 61, 0
27, 101220, Note_on_c, 15, 61, 90
27, 101220, Note_on_c, 15, 71, 90
27, 101279, Note_on_c, 15, 71, 0
27, 101279, Note_on_c, 15, 61, 0
27, 101280, Note_on_c, 15, 61, 90
27, 101280, Note_on_c, 15, 73, 90
27, 101309, Note_on_c, 15, 73, 0
27, 101310, Note_on_c, 15, 69, 90
27, 101339, Note_on_c, 15, 69, 0
27, 101339, Note_on_c, 15, 61, 0
27, 101340, Note_on_c, 15, 61, 90
27, 101340, Note_on_c, 15, 66, 90
27, 101399, Note_on_c, 15, 61, 0
27, 101400, Note_on_c, 15, 61, 90
27, 101429, Note_on_c, 15, 66, 0
27, 101430, Note_on_c, 15, 73, 90
27, 101459, Note_on_c, 15, 73, 0
27, 101459, Note_on_c, 15, 61, 0
27, 101460, Note_on_c, 15, 61, 90
27, 101460, Note_on_c, 15, 71, 90
27, 101489, Note_on_c, 15, 71, 0
27, 101490, Note_on_c, 15, 69, 90
27, 101519, Note_on_c, 15, 69, 0
27, 101519, Note_on_c, 15, 61, 0
27, 101520, Note_on_c, 15, 61, 90
27, 101520, Note_on_c, 15, 71, 90
27, 101549, Note_on_c, 15, 71, 0
27, 101550, Note_on_c, 15, 68, 90
27, 101579, Note_on_c, 15, 68, 0
27, 101579, Note_on_c, 15, 61, 0
27, 101580, Note_on_c, 15, 61, 90
27, 101580, Note_on_c, 15, 65, 90
27, 101639, Note_on_c, 15, 61, 0
27, 101640, Note_on_c, 15, 61, 90
27, 101669, Note_on_c, 15, 65, 0
27, 101670, Note_on_c, 15, 74, 90
27, 101699, Note_on_c, 15, 74, 0
27, 101699, Note_on_c, 15, 61, 0
27, 101700, Note_on_c, 15, 61, 90
27, 101700, Note_on_c, 15, 73, 90
27, 101729, Note_on_c, 15, 73, 0
27, 101730, Note_on_c, 15, 71, 90
27, 101759, Note_on_c, 15, 71, 0
27, 101759, Note_on_c, 15, 61, 0
27, 101760, Note_on_c, 15, 61, 90
27, 101760, Note_on_c, 15, 78, 90
27, 101789, Note_on_c, 15, 78, 0
27, 101790, Note_on_c, 15, 73, 90
27, 101819, Note_on_c, 15, 73, 0
27, 101819, Note_on_c, 15, 61, 0
27, 101820, Note_on_c, 15, 61, 90
27, 101820, Note_on_c, 15, 69, 90
27, 101879, Note_on_c, 15, 61, 0
27, 101880, Note_on_c, 15, 61, 90
27, 101909, Note_on_c, 15, 69, 0
27, 101910, Note_on_c, 15, 73, 90
27, 101939, Note_on_c, 15, 73, 0
27, 101939, Note_on_c, 15, 61, 0
27, 101940, Note_on_c, 15, 61, 90
27, 101940, Note_on_c, 15, 78, 90
27, 101969, Note_on_c, 15, 78, 0
27, 101970, Note_on_c, 15, 76, 90
27, 101999, Note_on_c, 15, 76, 0
27, 101999, Note_on_c, 15, 61, 0
27, 102000, Note_on_c, 15, 59, 90
27, 102000, Note_on_c, 15, 74, 90
27, 102059, Note_on_c, 15, 74, 0
27, 102059, Note_on_c, 15, 59, 0
27, 102060, Note_on_c, 15, 59, 90
27, 102060, Note_on_c, 15, 71, 90
27, 102119, Note_on_c, 15, 71, 0
27, 102119, Note_on_c, 15, 59, 0
27, 102120, Note_on_c, 15, 59, 90
27, 102120, Note_on_c, 15, 71, 90
27, 102179, Note_on_c, 15, 71, 0
27, 102179, Note_on_c, 15, 59, 0
27, 102180, Note_on_c, 15, 66, 90
27, 102180, Note_on_c, 15, 74, 90
27, 102239, Note_on_c, 15, 74, 0
27, 102239, Note_on_c, 15, 66, 0
27, 102240, Note_on_c, 15, 71, 90
27, 102240, Note_on_c, 15, 76, 90
27, 102269, Note_on_c, 15, 76, 0
27, 102270, Note_on_c, 15, 71, 90
27, 102299, Note_on_c, 15, 71, 0
27, 102299, Note_on_c, 15, 71, 0
27, 102300, Note_on_c, 15, 59, 90
27, 102300, Note_on_c, 15, 64, 90
27, 102359, Note_on_c, 15, 59, 0
27, 102360, Note_on_c, 15, 59, 90
27, 102389, Note_on_c, 15, 64, 0
27, 102390, Note_on_c, 15, 71, 90
27, 102419, Note_on_c, 15, 71, 0
27, 102419, Note_on_c, 15, 59, 0
27, 102420, Note_on_c, 15, 59, 90
27, 102420, Note_on_c, 15, 76, 90
27, 102449, Note_on_c, 15, 76, 0
27, 102450, Note_on_c, 15, 74, 90
27, 102479, Note_on_c, 15, 74, 0
27, 102479, Note_on_c, 15, 59, 0
27, 102480, Note_on_c, 15, 57, 90
27, 102480, Note_on_c, 15, 73, 90
27, 102539, Note_on_c, 15, 73, 0
27, 102539, Note_on_c, 15, 57, 0
27, 102540, Note_on_c, 15, 57, 90
27, 102540, Note_on_c, 15, 69, 90
27, 102599, Note_on_c, 15, 69, 0
27, 102599, Note_on_c, 15, 57, 0
27, 102600, Note_on_c, 15, 57, 90
27, 102600, Note_on_c, 15, 69, 90
27, 102659, Note_on_c, 15, 69, 0
27, 102659, Note_on_c, 15, 57, 0
27, 102660, Note_on_c, 15, 64, 90
27, 102660, Note_on_c, 15, 73, 90
27, 102719, Note_on_c, 15, 73, 0
27, 102719, Note_on_c, 15, 64, 0
27, 102720, Note_on_c, 15, 69, 90
27, 102720, Note_on_c, 15, 74, 90
27, 102749, Note_on_c, 15, 74, 0
27, 102750, Note_on_c, 15, 69, 90
27, 102779, Note_on_c, 15, 69, 0
27, 102779, Note_on_c, 15, 69, 0
27, 102780, Note_on_c, 15, 57, 90
27, 102780, Note_on_c, 15, 62, 90
27, 102839, Note_on_c, 15, 57, 0
27, 102840, Note_on_c, 15, 57, 90
27, 102869, Note_on_c, 15, 62, 0
27, 102870, Note_on_c, 15, 69, 90
27, 102899, Note_on_c, 15, 69, 0
27, 102899, Note_on_c, 15, 57, 0
27, 102900, Note_on_c, 15, 57, 90
27, 102900, Note_on_c, 15, 74, 90
27, 102929, Note_on_c, 15, 74, 0
27, 102930, Note_on_c, 15, 73, 90
27, 102959, Note_on_c, 15, 73, 0
27, 102959, Note_on_c, 15, 57, 0
27, 102960, Note_on_c, 15, 56, 90
27, 102960, Note_on_c, 15, 71, 90
27, 103019, Note_on_c, 15, 71, 0
27, 103019, Note_on_c, 15, 56, 0
27, 103020, Note_on_c, 15, 56, 90
27, 103020, Note_on_c, 15, 68, 90
27, 103079, Note_on_c, 15, 68, 0
27, 103079, Note_on_c, 15, 56, 0
27, 103080, Note_on_c, 15, 56, 90
27, 103080, Note_on_c, 15, 68, 90
27, 103139, Note_on_c, 15, 68, 0
27, 103139, Note_on_c, 15, 56, 0
27, 103140, Note_on_c, 15, 63, 90
27, 103140, Note_on_c, 15, 71, 90
27, 103199, Note_on_c, 15, 71, 0
27, 103199, Note_on_c, 15, 63, 0
27, 103200, Note_on_c, 15, 68, 90
27, 103200, Note_on_c, 15, 73, 90
27, 103259, Note_on_c, 15, 73, 0
27, 103259, Note_on_c, 15, 68, 0
27, 103260, Note_on_c, 15, 56, 90
27, 103260, Note_on_c, 15, 68, 90
27, 103319, Note_on_c, 15, 68, 0
27, 103319, Note_on_c, 15, 56, 0
27, 103620, Note_on_c, 15, 66, 90
27, 103620, Note_on_c, 15, 69, 90
27, 103679, Note_on_c, 15, 69, 0
27, 103679, Note_on_c, 15, 66, 0
27, 103680, Note_on_c, 15, 68, 90
27, 103739, Note_on_c, 15, 68, 0
27, 103740, Note_on_c, 15, 61, 90
27, 103740, Note_on_c, 15, 73, 90
27, 103799, Note_on_c, 15, 73, 0
27, 103799, Note_on_c, 15, 61, 0
27, 103800, Note_on_c, 15, 61, 90
27, 103800, Note_on_c, 15, 71, 90
27, 103859, Note_on_c, 15, 71, 0
27, 103859, Note_on_c, 15, 61, 0
27, 103860, Note_on_c, 15, 61, 90
27, 103860, Note_on_c, 15, 69, 90
27, 103919, Note_on_c, 15, 69, 0
27, 103919, Note_on_c, 15, 61, 0
27, 103920, Note_on_c, 15, 61, 90
27, 103920, Note_on_c, 15, 68, 90
27, 104039, Note_on_c, 15, 68, 0
27, 104039, Note_on_c, 15, 61, 0
27, 104100, Note_on_c, 15, 65, 90
27, 104100, Note_on_c, 15, 68, 90
27, 104159, Note_on_c, 15, 68, 0
27, 104159, Note_on_c, 15, 65, 0
27, 104160, Note_on_c, 15, 71, 90
27, 104160, Note_on_c, 15, 66, 100
27, 104279, Note_on_c, 15, 71, 0
27, 104280, Note_on_c, 15, 66, 0
27, 104340, Note_on_c, 15, 71, 90
27, 104340, Note_on_c, 15, 74, 90
27, 104399, Note_on_c, 15, 74, 0
27, 104399, Note_on_c, 15, 71, 0
27, 104400, Note_on_c, 15, 74, 90
27, 104400, Note_on_c, 15, 71, 100
27, 104519, Note_on_c, 15, 74, 0
27, 104520, Note_on_c, 15, 71, 0
27, 104580, Note_on_c, 15, 62, 90
27, 104580, Note_on_c, 15, 71, 90
27, 104639, Note_on_c, 15, 71, 0
27, 104639, Note_on_c, 15, 62, 0
27, 104640, Note_on_c, 15, 61, 90
27, 104640, Note_on_c, 15, 68, 100
27, 104759, Note_on_c, 15, 61, 0
27, 104760, Note_on_c, 15, 68, 0
27, 104820, Note_on_c, 15, 71, 90
27, 104820, Note_on_c, 15, 80, 90
27, 104879, Note_on_c, 15, 80, 0
27, 104879, Note_on_c, 15, 71, 0
27, 104880, Note_on_c, 15, 71, 90
27, 104880, Note_on_c, 15, 77, 100
27, 104999, Note_on_c, 15, 71, 0
27, 105000, Note_on_c, 15, 77, 0
27, 105060, Note_on_c, 15, 73, 90
27, 105060, Note_on_c, 15, 77, 90
27, 105119, Note_on_c, 15, 77, 0
27, 105119, Note_on_c, 15, 73, 0
27, 105120, Note_on_c, 15, 61, 90
27, 105120, Note_on_c, 15, 73, 100
27, 105239, Note_on_c, 15, 61, 0
27, 105240, Note_on_c, 15, 73, 0
27, 105300, Note_on_c, 15, 61, 90
27, 105300, Note_on_c, 15, 71, 90
27, 105359, Note_on_c, 15, 71, 0
27, 105359, Note_on_c, 15, 61, 0
27, 105360, Note_on_c, 15, 61, 90
27, 105360, Note_on_c, 15, 69, 90
27, 105419, Note_on_c, 15, 69, 0
27, 105419, Note_on_c, 15, 61, 0
27, 105420, Note_on_c, 15, 57, 90
27, 105420, Note_on_c, 15, 69, 90
27, 105449, Note_on_c, 15, 57, 0
27, 105450, Note_on_c, 15, 69, 0
27, 105450, Note_on_c, 15, 59, 90
27, 105450, Note_on_c, 15, 71, 90
27, 105479, Note_on_c, 15, 59, 0
27, 105480, Note_on_c, 15, 71, 0
27, 105480, Note_on_c, 15, 61, 90
27, 105480, Note_on_c, 15, 73, 90
27, 105539, Note_on_c, 15, 73, 0
27, 105539, Note_on_c, 15, 61, 0
27, 105540, Note_on_c, 15, 63, 90
27, 105540, Note_on_c, 15, 75, 90
27, 105569, Note_on_c, 15, 63, 0
27, 105570, Note_on_c, 15, 75, 0
27, 105570, Note_on_c, 15, 65, 90
27, 105570, Note_on_c, 15, 77, 90
27, 105599, Note_on_c, 15, 65, 0
27, 105600, Note_on_c, 15, 77, 0
27, 105600, Note_on_c, 15, 66, 90
27, 105600, Note_on_c, 15, 78, 90
27, 105659, Note_on_c, 15, 78, 0
27, 105659, Note_on_c, 15, 66, 0
27, 106020, Note_on_c, 15, 66, 90
27, 106020, Note_on_c, 15, 69, 90
27, 106049, Note_on_c, 15, 69, 0
27, 106049, Note_on_c, 15, 66, 0
27, 106050, Note_on_c, 15, 65, 90
27, 106050, Note_on_c, 15, 71, 90
27, 106079, Note_on_c, 15, 71, 0
27, 106079, Note_on_c, 15, 65, 0
27, 106080, Note_on_c, 15, 66, 90
27, 106080, Note_on_c, 15, 73, 90
27, 106139, Note_on_c, 15, 73, 0
27, 106139, Note_on_c, 15, 66, 0
27, 106140, Note_on_c, 15, 68, 90
27, 106140, Note_on_c, 15, 65, 90
27, 106199, Note_on_c, 15, 65, 0
27, 106199, Note_on_c, 15, 68, 0
27, 106200, Note_on_c, 15, 66, 90
27, 106259, Note_on_c, 15, 66, 0
27, 106260, Note_on_c, 15, 65, 90
27, 106260, Note_on_c, 15, 68, 90
27, 106319, Note_on_c, 15, 68, 0
27, 106319, Note_on_c, 15, 65, 0
27, 106320, Note_on_c, 15, 66, 90
27, 106320, Note_on_c, 15, 61, 90
27, 106439, Note_on_c, 15, 61, 0
27, 106439, Note_on_c, 15, 66, 0
27, 106500, Note_on_c, 15, 71, 90
27, 106500, Note_on_c, 15, 65, 90
27, 106529, Note_on_c, 15, 65, 0
27, 106529, Note_on_c, 15, 71, 0
27, 106530, Note_on_c, 15, 69, 90
27, 106530, Note_on_c, 15, 66, 90
27, 106559, Note_on_c, 15, 66, 0
27, 106559, Note_on_c, 15, 69, 0
27, 106560, Note_on_c, 15, 68, 90
27, 106619, Note_on_c, 15, 68, 0
27, 106620, Note_on_c, 15, 66, 90
27, 106620, Note_on_c, 15, 69, 90
27, 106679, Note_on_c, 15, 69, 0
27, 106679, Note_on_c, 15, 66, 0
27, 106680, Note_on_c, 15, 65, 90
27, 106680, Note_on_c, 15, 71, 90
27, 106739, Note_on_c, 15, 71, 0
27, 106739, Note_on_c, 15, 65, 0
27, 106740, Note_on_c, 15, 66, 90
27, 106740, Note_on_c, 15, 69, 90
27, 106799, Note_on_c, 15, 69, 0
27, 106799, Note_on_c, 15, 66, 0
27, 106800, Note_on_c, 15, 61, 90
27, 106800, Note_on_c, 15, 68, 90
27, 106919, Note_on_c, 15, 68, 0
27, 106919, Note_on_c, 15, 61, 0
27, 106980, Note_on_c, 15, 61, 90
27, 106980, Note_on_c, 15, 68, 90
27, 107039, Note_on_c, 15, 68, 0
27, 107039, Note_on_c, 15, 61, 0
27, 107040, Note_on_c, 15, 66, 90
27, 107040, Note_on_c, 15, 69, 90
27, 107099, Note_on_c, 15, 69, 0
27, 107099, Note_on_c, 15, 66, 0
27, 107100, Note_on_c, 15, 66, 90
27, 107100, Note_on_c, 15, 69, 90
27, 107129, Note_on_c, 15, 69, 0
27, 107130, Note_on_c, 15, 68, 90
27, 107159, Note_on_c, 15, 68, 0
27, 107159, Note_on_c, 15, 66, 0
27, 107160, Note_on_c, 15, 66, 90
27, 107160, Note_on_c, 15, 69, 90
27, 107219, Note_on_c, 15, 69, 0
27, 107219, Note_on_c, 15, 66, 0
27, 107220, Note_on_c, 15, 62, 90
27, 107220, Note_on_c, 15, 69, 90
27, 107279, Note_on_c, 15, 69, 0
27, 107279, Note_on_c, 15, 62, 0
27, 107280, Note_on_c, 15, 62, 90
27, 107280, Note_on_c, 15, 69, 90
27, 107339, Note_on_c, 15, 69, 0
27, 107339, Note_on_c, 15, 62, 0
27, 107340, Note_on_c, 15, 56, 90
27, 107340, Note_on_c, 15, 68, 90
27, 107369, Note_on_c, 15, 68, 0
27, 107370, Note_on_c, 15, 66, 90
27, 107399, Note_on_c, 15, 66, 0
27, 107399, Note_on_c, 15, 56, 0
27, 107400, Note_on_c, 15, 61, 90
27, 107400, Note_on_c, 15, 68, 90
27, 107459, Note_on_c, 15, 68, 0
27, 107459, Note_on_c, 15, 61, 0
27, 107460, Note_on_c, 15, 61, 90
27, 107460, Note_on_c, 15, 68, 90
27, 107519, Note_on_c, 15, 68, 0
27, 107519, Note_on_c, 15, 61, 0
27, 107520, Note_on_c, 15, 61, 90
27, 107520, Note_on_c, 15, 73, 90
27, 107579, Note_on_c, 15, 73, 0
27, 107579, Note_on_c, 15, 61, 0
27, 107580, Note_on_c, 15, 61, 90
27, 107580, Note_on_c, 15, 69, 90
27, 107639, Note_on_c, 15, 69, 0
27, 107639, Note_on_c, 15, 61, 0
27, 107640, Note_on_c, 15, 61, 90
27, 107640, Note_on_c, 15, 66, 90
27, 107699, Note_on_c, 15, 66, 0
27, 107699, Note_on_c, 15, 61, 0
27, 107700, Note_on_c, 15, 59, 90
27, 107700, Note_on_c, 15, 65, 90
27, 107759, Note_on_c, 15, 65, 0
27, 107759, Note_on_c, 15, 59, 0
27, 107760, Note_on_c, 15, 57, 90
27, 107760, Note_on_c, 15, 61, 90
27, 107879, Note_on_c, 15, 61, 0
27, 107879, Note_on_c, 15, 57, 0
27, 107940, Note_on_c, 15, 66, 90
27, 107940, Note_on_c, 15, 69, 90
27, 107999, Note_on_c, 15, 69, 0
27, 107999, Note_on_c, 15, 66, 0
27, 108000, Note_on_c, 15, 64, 90
27, 108000, Note_on_c, 15, 69, 90
27, 108119, Note_on_c, 15, 69, 0
27, 108119, Note_on_c, 15, 64, 0
27, 108180, Note_on_c, 15, 64, 90
27, 108180, Note_on_c, 15, 68, 90
27, 108239, Note_on_c, 15, 68, 0
27, 108239, Note_on_c, 15, 64, 0
27, 108240, Note_on_c, 15, 64, 90
27, 108240, Note_on_c, 15, 69, 90
27, 108299, Note_on_c, 15, 69, 0
27, 108299, Note_on_c, 15, 64, 0
27, 108300, Note_on_c, 15, 62, 90
27, 108300, Note_on_c, 15, 68, 90
27, 108329, Note_on_c, 15, 68, 0
27, 108329, Note_on_c, 15, 62, 0
27, 108330, Note_on_c, 15, 64, 90
27, 108330, Note_on_c, 15, 69, 90
27, 108359, Note_on_c, 15, 69, 0
27, 108359, Note_on_c, 15, 64, 0
27, 108360, Note_on_c, 15, 61, 90
27, 108360, Note_on_c, 15, 64, 90
27, 108419, Note_on_c, 15, 64, 0
27, 108419, Note_on_c, 15, 61, 0
27, 108420, Note_on_c, 15, 62, 90
27, 108420, Note_on_c, 15, 71, 90
27, 108479, Note_on_c, 15, 71, 0
27, 108479, Note_on_c, 15, 62, 0
27, 108480, Note_on_c, 15, 64, 90
27, 108480, Note_on_c, 15, 69, 90
27, 108539, Note_on_c, 15, 69, 0
27, 108539, Note_on_c, 15, 64, 0
27, 108540, Note_on_c, 15, 62, 90
27, 108540, Note_on_c, 15, 68, 90
27, 108569, Note_on_c, 15, 68, 0
27, 108569, Note_on_c, 15, 62, 0
27, 108570, Note_on_c, 15, 64, 90
27, 108570, Note_on_c, 15, 69, 90
27, 108599, Note_on_c, 15, 69, 0
27, 108599, Note_on_c, 15, 64, 0
27, 108600, Note_on_c, 15, 61, 90
27, 108600, Note_on_c, 15, 64, 90
27, 108659, Note_on_c, 15, 64, 0
27, 108659, Note_on_c, 15, 61, 0
27, 108660, Note_on_c, 15, 64, 90
27, 108660, Note_on_c, 15, 69, 90
27, 108719, Note_on_c, 15, 69, 0
27, 108719, Note_on_c, 15, 64, 0
27, 108720, Note_on_c, 15, 59, 90
27, 108720, Note_on_c, 15, 68, 90
27, 108779, Note_on_c, 15, 68, 0
27, 108779, Note_on_c, 15, 59, 0
27, 108780, Note_on_c, 15, 61, 90
27, 108780, Note_on_c, 15, 69, 90
27, 108809, Note_on_c, 15, 69, 0
27, 108810, Note_on_c, 15, 66, 90
27, 108839, Note_on_c, 15, 66, 0
27, 108839, Note_on_c, 15, 61, 0
27, 108840, Note_on_c, 15, 62, 90
27, 108840, Note_on_c, 15, 68, 90
27, 108899, Note_on_c, 15, 68, 0
27, 108899, Note_on_c, 15, 62, 0
27, 108900, Note_on_c, 15, 56, 90
27, 108900, Note_on_c, 15, 71, 90
27, 108959, Note_on_c, 15, 71, 0
27, 108959, Note_on_c, 15, 56, 0
27, 108960, Note_on_c, 15, 61, 90
27, 108960, Note_on_c, 15, 69, 90
27, 109019, Note_on_c, 15, 69, 0
27, 109019, Note_on_c, 15, 61, 0
27, 109020, Note_on_c, 15, 68, 90
27, 109020, Note_on_c, 15, 71, 90
27, 109079, Note_on_c, 15, 71, 0
27, 109079, Note_on_c, 15, 68, 0
27, 109080, Note_on_c, 15, 69, 90
27, 109080, Note_on_c, 15, 64, 90
27, 109139, Note_on_c, 15, 64, 0
27, 109139, Note_on_c, 15, 69, 0
27, 109140, Note_on_c, 15, 64, 90
27, 109140, Note_on_c, 15, 69, 90
27, 109199, Note_on_c, 15, 69, 0
27, 109199, Note_on_c, 15, 64, 0
27, 109200, Note_on_c, 15, 63, 90
27, 109200, Note_on_c, 15, 66, 90
27, 109259, Note_on_c, 15, 66, 0
27, 109259, Note_on_c, 15, 63, 0
27, 109260, Note_on_c, 15, 63, 90
27, 109260, Note_on_c, 15, 66, 90
27, 109319, Note_on_c, 15, 66, 0
27, 109319, Note_on_c, 15, 63, 0
27, 109320, Note_on_c, 15, 63, 90
27, 109320, Note_on_c, 15, 66, 90
27, 109379, Note_on_c, 15, 66, 0
27, 109379, Note_on_c, 15, 63, 0
27, 109380, Note_on_c, 15, 63, 90
27, 109380, Note_on_c, 15, 66, 90
27, 109439, Note_on_c, 15, 66, 0
27, 109439, Note_on_c, 15, 63, 0
27, 109440, Note_on_c, 15, 64, 90
27, 109469, Note_on_c, 15, 64, 0
27, 109470, Note_on_c, 15, 63, 90
27, 109499, Note_on_c, 15, 63, 0
27, 109500, Note_on_c, 15, 64, 90
27, 109529, Note_on_c, 15, 64, 0
27, 109530, Note_on_c, 15, 66, 90
27, 109559, Note_on_c, 15, 66, 0
27, 109560, Note_on_c, 15, 64, 90
27, 109560, Note_on_c, 15, 68, 90
27, 109619, Note_on_c, 15, 68, 0
27, 109619, Note_on_c, 15, 64, 0
27, 109620, Note_on_c, 15, 61, 90
27, 109620, Note_on_c, 15, 64, 90
27, 109679, Note_on_c, 15, 64, 0
27, 109679, Note_on_c, 15, 61, 0
27, 109680, Note_on_c, 15, 61, 90
27, 109680, Note_on_c, 15, 64, 90
27, 109709, Note_on_c, 15, 64, 0
27, 109710, Note_on_c, 15, 61, 90
27, 109739, Note_on_c, 15, 61, 0
27, 109739, Note_on_c, 15, 61, 0
27, 109740, Note_on_c, 15, 59, 90
27, 109740, Note_on_c, 15, 63, 90
27, 109769, Note_on_c, 15, 63, 0
27, 109770, Note_on_c, 15, 64, 90
27, 109799, Note_on_c, 15, 64, 0
27, 109799, Note_on_c, 15, 59, 0
27, 109800, Note_on_c, 15, 59, 90
27, 109800, Note_on_c, 15, 66, 90
27, 109859, Note_on_c, 15, 66, 0
27, 109859, Note_on_c, 15, 59, 0
27, 109860, Note_on_c, 15, 59, 90
27, 109860, Note_on_c, 15, 66, 90
27, 109919, Note_on_c, 15, 66, 0
27, 109919, Note_on_c, 15, 59, 0
27, 109920, Note_on_c, 15, 59, 90
27, 109920, Note_on_c, 15, 71, 90
27, 109979, Note_on_c, 15, 71, 0
27, 109979, Note_on_c, 15, 59, 0
27, 109980, Note_on_c, 15, 59, 90
27, 109980, Note_on_c, 15, 68, 90
27, 110039, Note_on_c, 15, 68, 0
27, 110039, Note_on_c, 15, 59, 0
27, 110040, Note_on_c, 15, 59, 90
27, 110040, Note_on_c, 15, 64, 90
27, 110099, Note_on_c, 15, 64, 0
27, 110099, Note_on_c, 15, 59, 0
27, 110100, Note_on_c, 15, 57, 90
27, 110100, Note_on_c, 15, 63, 90
27, 110159, Note_on_c, 15, 63, 0
27, 110159, Note_on_c, 15, 57, 0
27, 110160, Note_on_c, 15, 56, 90
27, 110160, Note_on_c, 15, 64, 90
27, 110399, Note_on_c, 15, 64, 0
27, 110399, Note_on_c, 15, 56, 0
27, 110400, Note_on_c, 15, 54, 90
27, 110400, Note_on_c, 15, 61, 90
27, 110759, Note_on_c, 15, 61, 0
27, 110759, Note_on_c, 15, 54, 0
27, 110910, Note_on_c, 15, 71, 90
27, 110910, Note_on_c, 15, 62, 90
27, 110939, Note_on_c, 15, 62, 0
27, 110939, Note_on_c, 15, 71, 0
27, 110940, Note_on_c, 15, 66, 90
27, 110969, Note_on_c, 15, 66, 0
27, 110970, Note_on_c, 15, 62, 90
27, 110970, Note_on_c, 15, 71, 90
27, 110999, Note_on_c, 15, 71, 0
27, 110999, Note_on_c, 15, 62, 0
27, 111000, Note_on_c, 15, 71, 90
27, 111000, Note_on_c, 15, 74, 90
27, 111029, Note_on_c, 15, 74, 0
27, 111029, Note_on_c, 15, 71, 0
27, 111030, Note_on_c, 15, 62, 90
27, 111030, Note_on_c, 15, 71, 90
27, 111059, Note_on_c, 15, 71, 0
27, 111059, Note_on_c, 15, 62, 0
27, 111060, Note_on_c, 15, 66, 90
27, 111089, Note_on_c, 15, 66, 0
27, 111090, Note_on_c, 15, 62, 90
27, 111090, Note_on_c, 15, 71, 90
27, 111119, Note_on_c, 15, 71, 0
27, 111119, Note_on_c, 15, 62, 0
27, 111120, Note_on_c, 15, 69, 90
27, 111120, Note_on_c, 15, 74, 90
27, 111149, Note_on_c, 15, 74, 0
27, 111149, Note_on_c, 15, 69, 0
27, 111150, Note_on_c, 15, 74, 90
27, 111150, Note_on_c, 15, 66, 90
27, 111179, Note_on_c, 15, 66, 0
27, 111179, Note_on_c, 15, 74, 0
27, 111180, Note_on_c, 15, 69, 90
27, 111209, Note_on_c, 15, 69, 0
27, 111210, Note_on_c, 15, 66, 90
27, 111210, Note_on_c, 15, 74, 90
27, 111239, Note_on_c, 15, 74, 0
27, 111239, Note_on_c, 15, 66, 0
27, 111240, Note_on_c, 15, 74, 90
27, 111240, Note_on_c, 15, 78, 90
27, 111269, Note_on_c, 15, 78, 0
27, 111269, Note_on_c, 15, 74, 0
27, 111270, Note_on_c, 15, 66, 90
27, 111270, Note_on_c, 15, 74, 90
27, 111299, Note_on_c, 15, 74, 0
27, 111299, Note_on_c, 15, 66, 0
27, 111300, Note_on_c, 15, 69, 90
27, 111329, Note_on_c, 15, 69, 0
27, 111330, Note_on_c, 15, 66, 90
27, 111330, Note_on_c, 15, 78, 90
27, 111359, Note_on_c, 15, 78, 0
27, 111359, Note_on_c, 15, 66, 0
27, 111360, Note_on_c, 15, 71, 90
27, 111360, Note_on_c, 15, 76, 90
27, 111389, Note_on_c, 15, 76, 0
27, 111389, Note_on_c, 15, 71, 0
27, 111390, Note_on_c, 15, 74, 90
27, 111390, Note_on_c, 15, 64, 90
27, 111419, Note_on_c, 15, 64, 0
27, 111419, Note_on_c, 15, 74, 0
27, 111420, Note_on_c, 15, 71, 90
27, 111420, Note_on_c, 15, 68, 90
27, 111449, Note_on_c, 15, 68, 0
27, 111449, Note_on_c, 15, 71, 0
27, 111450, Note_on_c, 15, 68, 90
27, 111450, Note_on_c, 15, 71, 90
27, 111479, Note_on_c, 15, 71, 0
27, 111479, Note_on_c, 15, 68, 0
27, 111480, Note_on_c, 15, 64, 90
27, 111480, Note_on_c, 15, 76, 90
27, 111509, Note_on_c, 15, 76, 0
27, 111509, Note_on_c, 15, 64, 0
27, 111510, Note_on_c, 15, 68, 90
27, 111510, Note_on_c, 15, 71, 90
27, 111539, Note_on_c, 15, 71, 0
27, 111539, Note_on_c, 15, 68, 0
27, 111540, Note_on_c, 15, 71, 90
27, 111540, Note_on_c, 15, 68, 90
27, 111569, Note_on_c, 15, 68, 0
27, 111569, Note_on_c, 15, 71, 0
27, 111570, Note_on_c, 15, 68, 90
27, 111570, Note_on_c, 15, 71, 90
27, 111599, Note_on_c, 15, 71, 0
27, 111599, Note_on_c, 15, 68, 0
27, 111600, Note_on_c, 15, 64, 90
27, 111600, Note_on_c, 15, 73, 90
27, 111629, Note_on_c, 15, 73, 0
27, 111629, Note_on_c, 15, 64, 0
27, 111630, Note_on_c, 15, 69, 90
27, 111630, Note_on_c, 15, 64, 90
27, 111659, Note_on_c, 15, 64, 0
27, 111659, Note_on_c, 15, 69, 0
27, 111660, Note_on_c, 15, 64, 90
27, 111660, Note_on_c, 15, 69, 90
27, 111689, Note_on_c, 15, 69, 0
27, 111689, Note_on_c, 15, 64, 0
27, 111690, Note_on_c, 15, 61, 90
27, 111690, Note_on_c, 15, 73, 90
27, 111719, Note_on_c, 15, 73, 0
27, 111719, Note_on_c, 15, 61, 0
27, 111720, Note_on_c, 15, 69, 90
27, 111720, Note_on_c, 15, 76, 90
27, 111749, Note_on_c, 15, 76, 0
27, 111749, Note_on_c, 15, 69, 0
27, 111750, Note_on_c, 15, 61, 90
27, 111750, Note_on_c, 15, 73, 90
27, 111779, Note_on_c, 15, 73, 0
27, 111779, Note_on_c, 15, 61, 0
27, 111780, Note_on_c, 15, 64, 90
27, 111780, Note_on_c, 15, 69, 90
27, 111809, Note_on_c, 15, 69, 0
27, 111809, Note_on_c, 15, 64, 0
27, 111810, Note_on_c, 15, 61, 90
27, 111810, Note_on_c, 15, 73, 90
27, 111839, Note_on_c, 15, 73, 0
27, 111839, Note_on_c, 15, 61, 0
27, 111840, Note_on_c, 15, 69, 90
27, 111840, Note_on_c, 15, 74, 90
27, 111899, Note_on_c, 15, 74, 0
27, 111899, Note_on_c, 15, 69, 0
27, 112260, Note_on_c, 15, 61, 90
27, 112289, Note_on_c, 15, 61, 0
27, 112290, Note_on_c, 15, 62, 90
27, 112319, Note_on_c, 15, 62, 0
27, 112320, Note_on_c, 15, 64, 90
27, 112379, Note_on_c, 15, 64, 0
27, 112380, Note_on_c, 15, 66, 90
27, 112439, Note_on_c, 15, 66, 0
27, 112440, Note_on_c, 15, 64, 90
27, 112499, Note_on_c, 15, 64, 0
27, 112500, Note_on_c, 15, 62, 90
27, 112559, Note_on_c, 15, 62, 0
27, 112560, Note_on_c, 15, 64, 90
27, 112619, Note_on_c, 15, 64, 0
27, 112620, Note_on_c, 15, 62, 90
27, 112649, Note_on_c, 15, 62, 0
27, 112650, Note_on_c, 15, 64, 90
27, 112679, Note_on_c, 15, 64, 0
27, 112680, Note_on_c, 15, 61, 90
27, 112739, Note_on_c, 15, 61, 0
27, 112740, Note_on_c, 15, 62, 90
27, 112799, Note_on_c, 15, 62, 0
27, 112800, Note_on_c, 15, 64, 90
27, 112919, Note_on_c, 15, 64, 0
27, 112980, Note_on_c, 15, 61, 90
27, 112980, Note_on_c, 15, 64, 90
27, 113039, Note_on_c, 15, 64, 0
27, 113039, Note_on_c, 15, 61, 0
27, 113040, Note_on_c, 15, 59, 90
27, 113040, Note_on_c, 15, 64, 90
27, 113159, Note_on_c, 15, 64, 0
27, 113159, Note_on_c, 15, 59, 0
27, 113220, Note_on_c, 15, 64, 90
27, 113279, Note_on_c, 15, 64, 0
27, 113280, Note_on_c, 15, 64, 90
27, 113280, Note_on_c, 15, 69, 90
27, 113339, Note_on_c, 15, 69, 0
27, 113339, Note_on_c, 15, 64, 0
27, 113340, Note_on_c, 15, 62, 90
27, 113340, Note_on_c, 15, 68, 90
27, 113369, Note_on_c, 15, 68, 0
27, 113369, Note_on_c, 15, 62, 0
27, 113370, Note_on_c, 15, 64, 90
27, 113370, Note_on_c, 15, 69, 90
27, 113399, Note_on_c, 15, 69, 0
27, 113399, Note_on_c, 15, 64, 0
27, 113400, Note_on_c, 15, 61, 90
27, 113400, Note_on_c, 15, 64, 90
27, 113459, Note_on_c, 15, 64, 0
27, 113459, Note_on_c, 15, 61, 0
27, 113460, Note_on_c, 15, 57, 90
27, 113460, Note_on_c, 15, 69, 90
27, 113519, Note_on_c, 15, 69, 0
27, 113519, Note_on_c, 15, 57, 0
27, 113520, Note_on_c, 15, 62, 90
27, 113520, Note_on_c, 15, 69, 90
27, 113579, Note_on_c, 15, 62, 0
27, 113580, Note_on_c, 15, 62, 90
27, 113609, Note_on_c, 15, 69, 0
27, 113610, Note_on_c, 15, 69, 90
27, 113639, Note_on_c, 15, 69, 0
27, 113639, Note_on_c, 15, 62, 0
27, 113640, Note_on_c, 15, 62, 90
27, 113640, Note_on_c, 15, 74, 90
27, 113699, Note_on_c, 15, 62, 0
27, 113700, Note_on_c, 15, 66, 90
27, 113729, Note_on_c, 15, 74, 0
27, 113730, Note_on_c, 15, 69, 90
27, 113759, Note_on_c, 15, 69, 0
27, 113759, Note_on_c, 15, 66, 0
27, 113760, Note_on_c, 15, 68, 90
27, 113760, Note_on_c, 15, 74, 90
27, 113819, Note_on_c, 15, 68, 0
27, 113820, Note_on_c, 15, 68, 90
27, 113849, Note_on_c, 15, 74, 0
27, 113850, Note_on_c, 15, 71, 90
27, 113879, Note_on_c, 15, 71, 0
27, 113879, Note_on_c, 15, 68, 0
27, 113880, Note_on_c, 15, 68, 90
27, 113880, Note_on_c, 15, 74, 90
27, 113939, Note_on_c, 15, 68, 0
27, 113940, Note_on_c, 15, 68, 90
27, 113969, Note_on_c, 15, 74, 0
27, 113970, Note_on_c, 15, 71, 90
27, 113999, Note_on_c, 15, 71, 0
27, 113999, Note_on_c, 15, 68, 0
27, 114000, Note_on_c, 15, 68, 90
27, 114000, Note_on_c, 15, 73, 90
27, 114059, Note_on_c, 15, 68, 0
27, 114060, Note_on_c, 15, 64, 90
27, 114089, Note_on_c, 15, 73, 0
27, 114090, Note_on_c, 15, 68, 90
27, 114119, Note_on_c, 15, 68, 0
27, 114119, Note_on_c, 15, 64, 0
27, 114120, Note_on_c, 15, 61, 90
27, 114120, Note_on_c, 15, 73, 90
27, 114179, Note_on_c, 15, 61, 0
27, 114180, Note_on_c, 15, 64, 90
27, 114209, Note_on_c, 15, 73, 0
27, 114210, Note_on_c, 15, 68, 90
27, 114239, Note_on_c, 15, 68, 0
27, 114239, Note_on_c, 15, 64, 0
27, 114240, Note_on_c, 15, 66, 90
27, 114240, Note_on_c, 15, 73, 90
27, 114299, Note_on_c, 15, 66, 0
27, 114300, Note_on_c, 15, 66, 90
27, 114329, Note_on_c, 15, 73, 0
27, 114330, Note_on_c, 15, 69, 90
27, 114359, Note_on_c, 15, 69, 0
27, 114359, Note_on_c, 15, 66, 0
27, 114360, Note_on_c, 15, 66, 90
27, 114360, Note_on_c, 15, 73, 90
27, 114419, Note_on_c, 15, 66, 0
27, 114420, Note_on_c, 15, 66, 90
27, 114449, Note_on_c, 15, 73, 0
27, 114450, Note_on_c, 15, 69, 90
27, 114479, Note_on_c, 15, 69, 0
27, 114479, Note_on_c, 15, 66, 0
27, 114480, Note_on_c, 15, 66, 90
27, 114480, Note_on_c, 15, 71, 90
27, 114539, Note_on_c, 15, 66, 0
27, 114540, Note_on_c, 15, 62, 90
27, 114569, Note_on_c, 15, 71, 0
27, 114570, Note_on_c, 15, 66, 90
27, 114599, Note_on_c, 15, 66, 0
27, 114599, Note_on_c, 15, 62, 0
27, 114600, Note_on_c, 15, 59, 90
27, 114600, Note_on_c, 15, 71, 90
27, 114659, Note_on_c, 15, 59, 0
27, 114660, Note_on_c, 15, 62, 90
27, 114689, Note_on_c, 15, 71, 0
27, 114690, Note_on_c, 15, 66, 90
27, 114719, Note_on_c, 15, 66, 0
27, 114719, Note_on_c, 15, 62, 0
27, 114720, Note_on_c, 15, 64, 90
27, 114720, Note_on_c, 15, 71, 90
27, 114779, Note_on_c, 15, 64, 0
27, 114780, Note_on_c, 15, 64, 90
27, 114809, Note_on_c, 15, 71, 0
27, 114810, Note_on_c, 15, 68, 90
27, 114839, Note_on_c, 15, 68, 0
27, 114839, Note_on_c, 15, 64, 0
27, 114840, Note_on_c, 15, 64, 90
27, 114840, Note_on_c, 15, 71, 90
27, 114899, Note_on_c, 15, 64, 0
27, 114900, Note_on_c, 15, 64, 90
27, 114929, Note_on_c, 15, 71, 0
27, 114930, Note_on_c, 15, 68, 90
27, 114959, Note_on_c, 15, 68, 0
27, 114959, Note_on_c, 15, 64, 0
27, 114960, Note_on_c, 15, 64, 90
27, 114960, Note_on_c, 15, 69, 90
27, 115019, Note_on_c, 15, 64, 0
27, 115020, Note_on_c, 15, 64, 90
27, 115049, Note_on_c, 15, 69, 0
27, 115050, Note_on_c, 15, 64, 90
27, 115079, Note_on_c, 15, 64, 0
27, 115079, Note_on_c, 15, 64, 0
27, 115080, Note_on_c, 15, 64, 90
27, 115080, Note_on_c, 15, 76, 90
27, 115139, Note_on_c, 15, 64, 0
27, 115140, Note_on_c, 15, 64, 90
27, 115169, Note_on_c, 15, 76, 0
27, 115170, Note_on_c, 15, 73, 90
27, 115199, Note_on_c, 15, 73, 0
27, 115199, Note_on_c, 15, 64, 0
27, 115200, Note_on_c, 15, 64, 90
27, 115200, Note_on_c, 15, 74, 90
27, 115259, Note_on_c, 15, 64, 0
27, 115260, Note_on_c, 15, 59, 90
27, 115289, Note_on_c, 15, 74, 0
27, 115290, Note_on_c, 15, 71, 90
27, 115319, Note_on_c, 15, 71, 0
27, 115319, Note_on_c, 15, 59, 0
27, 115320, Note_on_c, 15, 59, 90
27, 115320, Note_on_c, 15, 66, 90
27, 115379, Note_on_c, 15, 59, 0
27, 115380, Note_on_c, 15, 64, 90
27, 115409, Note_on_c, 15, 66, 0
27, 115410, Note_on_c, 15, 71, 90
27, 115439, Note_on_c, 15, 71, 0
27, 115439, Note_on_c, 15, 64, 0
27, 115440, Note_on_c, 15, 64, 90
27, 115440, Note_on_c, 15, 66, 90
27, 115469, Note_on_c, 15, 66, 0
27, 115470, Note_on_c, 15, 73, 90
27, 115499, Note_on_c, 15, 73, 0
27, 115499, Note_on_c, 15, 64, 0
27, 115500, Note_on_c, 15, 61, 90
27, 115500, Note_on_c, 15, 76, 90
27, 115559, Note_on_c, 15, 61, 0
27, 115560, Note_on_c, 15, 76, 0
27, 115860, Note_on_c, 15, 59, 90
27, 115860, Note_on_c, 15, 64, 90
27, 115889, Note_on_c, 15, 64, 0
27, 115890, Note_on_c, 15, 66, 90
27, 115919, Note_on_c, 15, 66, 0
27, 115919, Note_on_c, 15, 59, 0
27, 115920, Note_on_c, 15, 64, 90
27, 115920, Note_on_c, 15, 68, 90
27, 115949, Note_on_c, 15, 64, 0
27, 115950, Note_on_c, 15, 63, 90
27, 115979, Note_on_c, 15, 63, 0
27, 115979, Note_on_c, 15, 68, 0
27, 115980, Note_on_c, 15, 64, 90
27, 115980, Note_on_c, 15, 66, 90
27, 116009, Note_on_c, 15, 64, 0
27, 116010, Note_on_c, 15, 63, 90
27, 116039, Note_on_c, 15, 63, 0
27, 116039, Note_on_c, 15, 66, 0
27, 116040, Note_on_c, 15, 64, 90
27, 116040, Note_on_c, 15, 68, 90
27, 116099, Note_on_c, 15, 68, 0
27, 116099, Note_on_c, 15, 64, 0
27, 116100, Note_on_c, 15, 68, 90
27, 116100, Note_on_c, 15, 73, 90
27, 116159, Note_on_c, 15, 73, 0
27, 116159, Note_on_c, 15, 68, 0
27, 116160, Note_on_c, 15, 66, 90
27, 116160, Note_on_c, 15, 69, 90
27, 116219, Note_on_c, 15, 69, 0
27, 116219, Note_on_c, 15, 66, 0
27, 116220, Note_on_c, 15, 62, 90
27, 116220, Note_on_c, 15, 66, 90
27, 116249, Note_on_c, 15, 66, 0
27, 116249, Note_on_c, 15, 62, 0
27, 116250, Note_on_c, 15, 66, 90
27, 116250, Note_on_c, 15, 69, 90
27, 116279, Note_on_c, 15, 69, 0
27, 116279, Note_on_c, 15, 66, 0
27, 116280, Note_on_c, 15, 69, 90
27, 116280, Note_on_c, 15, 74, 90
27, 116339, Note_on_c, 15, 74, 0
27, 116339, Note_on_c, 15, 69, 0
27, 116460, Note_on_c, 15, 69, 90
27, 116460, Note_on_c, 15, 74, 90
27, 116489, Note_on_c, 15, 74, 0
27, 116489, Note_on_c, 15, 69, 0
27, 116490, Note_on_c, 15, 66, 90
27, 116490, Note_on_c, 15, 69, 90
27, 116519, Note_on_c, 15, 69, 0
27, 116519, Note_on_c, 15, 66, 0
27, 116520, Note_on_c, 15, 62, 90
27, 116520, Note_on_c, 15, 66, 90
27, 116579, Note_on_c, 15, 66, 0
27, 116579, Note_on_c, 15, 62, 0
27, 116700, Note_on_c, 15, 59, 90
27, 116700, Note_on_c, 15, 64, 90
27, 116729, Note_on_c, 15, 64, 0
27, 116729, Note_on_c, 15, 59, 0
27, 116730, Note_on_c, 15, 64, 90
27, 116730, Note_on_c, 15, 68, 90
27, 116759, Note_on_c, 15, 68, 0
27, 116759, Note_on_c, 15, 64, 0
27, 116760, Note_on_c, 15, 68, 90
27, 116760, Note_on_c, 15, 71, 90
27, 116819, Note_on_c, 15, 71, 0
27, 116819, Note_on_c, 15, 68, 0
27, 116940, Note_on_c, 15, 68, 90
27, 116940, Note_on_c, 15, 71, 90
27, 116969, Note_on_c, 15, 71, 0
27, 116969, Note_on_c, 15, 68, 0
27, 116970, Note_on_c, 15, 64, 90
27, 116970, Note_on_c, 15, 68, 90
27, 116999, Note_on_c, 15, 68, 0
27, 116999, Note_on_c, 15, 64, 0
27, 117000, Note_on_c, 15, 59, 90
27, 117000, Note_on_c, 15, 64, 90
27, 117059, Note_on_c, 15, 64, 0
27, 117059, Note_on_c, 15, 59, 0
27, 117060, Note_on_c, 15, 59, 90
27, 117060, Note_on_c, 15, 64, 90
27, 117119, Note_on_c, 15, 64, 0
27, 117119, Note_on_c, 15, 59, 0
27, 117120, Note_on_c, 15, 57, 90
27, 117120, Note_on_c, 15, 64, 90
27, 117179, Note_on_c, 15, 64, 0
27, 117179, Note_on_c, 15, 57, 0
27, 117180, Note_on_c, 15, 57, 90
27, 117180, Note_on_c, 15, 69, 90
27, 117239, Note_on_c, 15, 69, 0
27, 117239, Note_on_c, 15, 57, 0
27, 117240, Note_on_c, 15, 59, 90
27, 117240, Note_on_c, 15, 69, 90
27, 117299, Note_on_c, 15, 69, 0
27, 117299, Note_on_c, 15, 59, 0
27, 117300, Note_on_c, 15, 59, 90
27, 117300, Note_on_c, 15, 64, 90
27, 117359, Note_on_c, 15, 64, 0
27, 117359, Note_on_c, 15, 59, 0
27, 117360, Note_on_c, 15, 61, 90
27, 117360, Note_on_c, 15, 64, 90
27, 117419, Note_on_c, 15, 64, 0
27, 117419, Note_on_c, 15, 61, 0
27, 117420, Note_on_c, 15, 61, 90
27, 117449, Note_on_c, 15, 61, 0
27, 117450, Note_on_c, 15, 62, 90
27, 117479, Note_on_c, 15, 62, 0
27, 117480, Note_on_c, 15, 64, 90
27, 117539, Note_on_c, 15, 64, 0
27, 117540, Note_on_c, 15, 66, 90
27, 117569, Note_on_c, 15, 66, 0
27, 117570, Note_on_c, 15, 68, 90
27, 117599, Note_on_c, 15, 68, 0
27, 117600, Note_on_c, 15, 69, 90
27, 117659, Note_on_c, 15, 69, 0
27, 118020, Note_on_c, 15, 61, 90
27, 118049, Note_on_c, 15, 61, 0
27, 118050, Note_on_c, 15, 62, 90
27, 118079, Note_on_c, 15, 62, 0
27, 118080, Note_on_c, 15, 64, 90
27, 118139, Note_on_c, 15, 64, 0
27, 118140, Note_on_c, 15, 66, 90
27, 118199, Note_on_c, 15, 66, 0
27, 118200, Note_on_c, 15, 64, 90
27, 118259, Note_on_c, 15, 64, 0
27, 118260, Note_on_c, 15, 62, 90
27, 118319, Note_on_c, 15, 62, 0
27, 118320, Note_on_c, 15, 64, 90
27, 118379, Note_on_c, 15, 64, 0
27, 118380, Note_on_c, 15, 62, 90
27, 118409, Note_on_c, 15, 62, 0
27, 118410, Note_on_c, 15, 64, 90
27, 118439, Note_on_c, 15, 64, 0
27, 118440, Note_on_c, 15, 76, 90
27, 118440, Note_on_c, 15, 61, 90
27, 118469, Note_on_c, 15, 76, 0
27, 118470, Note_on_c, 15, 74, 90
27, 118499, Note_on_c, 15, 74, 0
27, 118499, Note_on_c, 15, 61, 0
27, 118500, Note_on_c, 15, 73, 90
27, 118500, Note_on_c, 15, 62, 90
27, 118529, Note_on_c, 15, 73, 0
27, 118530, Note_on_c, 15, 71, 90
27, 118559, Note_on_c, 15, 71, 0
27, 118559, Note_on_c, 15, 62, 0
27, 118560, Note_on_c, 15, 73, 90
27, 118560, Note_on_c, 15, 64, 90
27, 118619, Note_on_c, 15, 64, 0
27, 118619, Note_on_c, 15, 73, 0
27, 118620, Note_on_c, 15, 64, 90
27, 118679, Note_on_c, 15, 64, 0
27, 118680, Note_on_c, 15, 71, 90
27, 118680, Note_on_c, 15, 64, 90
27, 118709, Note_on_c, 15, 71, 0
27, 118710, Note_on_c, 15, 69, 90
27, 118739, Note_on_c, 15, 69, 0
27, 118739, Note_on_c, 15, 64, 0
27, 118740, Note_on_c, 15, 68, 90
27, 118740, Note_on_c, 15, 64, 90
27, 118769, Note_on_c, 15, 68, 0
27, 118770, Note_on_c, 15, 66, 90
27, 118799, Note_on_c, 15, 66, 0
27, 118799, Note_on_c, 15, 64, 0
27, 118800, Note_on_c, 15, 64, 90
27, 118859, Note_on_c, 15, 64, 0
27, 118860, Note_on_c, 15, 64, 90
27, 118919, Note_on_c, 15, 64, 0
27, 118920, Note_on_c, 15, 73, 90
27, 118920, Note_on_c, 15, 64, 90
27, 118949, Note_on_c, 15, 73, 0
27, 118950, Note_on_c, 15, 71, 90
27, 118979, Note_on_c, 15, 71, 0
27, 118979, Note_on_c, 15, 64, 0
27, 118980, Note_on_c, 15, 69, 90
27, 118980, Note_on_c, 15, 64, 90
27, 119009, Note_on_c, 15, 69, 0
27, 119010, Note_on_c, 15, 68, 90
27, 119039, Note_on_c, 15, 68, 0
27, 119039, Note_on_c, 15, 64, 0
27, 119040, Note_on_c, 15, 64, 90
27, 119099, Note_on_c, 15, 64, 0
27, 119100, Note_on_c, 15, 62, 90
27, 119129, Note_on_c, 15, 62, 0
27, 119130, Note_on_c, 15, 64, 90
27, 119159, Note_on_c, 15, 64, 0
27, 119160, Note_on_c, 15, 61, 90
27, 119189, Note_on_c, 15, 61, 0
27, 119190, Note_on_c, 15, 62, 90
27, 119219, Note_on_c, 15, 62, 0
27, 119220, Note_on_c, 15, 64, 90
27, 119249, Note_on_c, 15, 64, 0
27, 119250, Note_on_c, 15, 66, 90
27, 119279, Note_on_c, 15, 66, 0
27, 119280, Note_on_c, 15, 68, 90
27, 119339, Note_on_c, 15, 68, 0
27, 119340, Note_on_c, 15, 66, 90
27, 119340, Note_on_c, 15, 69, 90
27, 119399, Note_on_c, 15, 69, 0
27, 119399, Note_on_c, 15, 66, 0
27, 119400, Note_on_c, 15, 64, 90
27, 119400, Note_on_c, 15, 68, 90
27, 119459, Note_on_c, 15, 68, 0
27, 119459, Note_on_c, 15, 64, 0
27, 119460, Note_on_c, 15, 63, 90
27, 119460, Note_on_c, 15, 66, 90
27, 119519, Note_on_c, 15, 66, 0
27, 119519, Note_on_c, 15, 63, 0
27, 119520, Note_on_c, 15, 64, 90
27, 119579, Note_on_c, 15, 64, 0
27, 119580, Note_on_c, 15, 64, 90
27, 119580, Note_on_c, 15, 68, 90
27, 119609, Note_on_c, 15, 68, 0
27, 119610, Note_on_c, 15, 66, 90
27, 119639, Note_on_c, 15, 66, 0
27, 119639, Note_on_c, 15, 64, 0
27, 119640, Note_on_c, 15, 64, 90
27, 119640, Note_on_c, 15, 68, 90
27, 119699, Note_on_c, 15, 68, 0
27, 119699, Note_on_c, 15, 64, 0
27, 119700, Note_on_c, 15, 61, 90
27, 119700, Note_on_c, 15, 68, 90
27, 119759, Note_on_c, 15, 68, 0
27, 119759, Note_on_c, 15, 61, 0
27, 119760, Note_on_c, 15, 61, 90
27, 119760, Note_on_c, 15, 68, 90
27, 119819, Note_on_c, 15, 68, 0
27, 119819, Note_on_c, 15, 61, 0
27, 119820, Note_on_c, 15, 69, 90
27, 119820, Note_on_c, 15, 66, 90
27, 119849, Note_on_c, 15, 66, 0
27, 119850, Note_on_c, 15, 64, 90
27, 119879, Note_on_c, 15, 64, 0
27, 119879, Note_on_c, 15, 69, 0
27, 119880, Note_on_c, 15, 59, 90
27, 119880, Note_on_c, 15, 66, 90
27, 119939, Note_on_c, 15, 66, 0
27, 119939, Note_on_c, 15, 59, 0
27, 119940, Note_on_c, 15, 59, 90
27, 119940, Note_on_c, 15, 66, 90
27, 119999, Note_on_c, 15, 66, 0
27, 119999, Note_on_c, 15, 59, 0
27, 120000, Note_on_c, 15, 59, 90
27, 120000, Note_on_c, 15, 71, 90
27, 120059, Note_on_c, 15, 71, 0
27, 120059, Note_on_c, 15, 59, 0
27, 120060, Note_on_c, 15, 59, 90
27, 120060, Note_on_c, 15, 68, 90
27, 120119, Note_on_c, 15, 68, 0
27, 120119, Note_on_c, 15, 59, 0
27, 120120, Note_on_c, 15, 59, 90
27, 120120, Note_on_c, 15, 64, 90
27, 120179, Note_on_c, 15, 64, 0
27, 120179, Note_on_c, 15, 59, 0
27, 120180, Note_on_c, 15, 57, 90
27, 120180, Note_on_c, 15, 63, 90
27, 120239, Note_on_c, 15, 63, 0
27, 120239, Note_on_c, 15, 57, 0
27, 120240, Note_on_c, 15, 56, 90
27, 120240, Note_on_c, 15, 59, 90
27, 120359, Note_on_c, 15, 59, 0
27, 120390, Note_on_c, 15, 63, 90
27, 120419, Note_on_c, 15, 63, 0
27, 120419, Note_on_c, 15, 56, 0
27, 120420, Note_on_c, 15, 59, 90
27, 120420, Note_on_c, 15, 64, 90
27, 120449, Note_on_c, 15, 64, 0
27, 120450, Note_on_c, 15, 66, 90
27, 120479, Note_on_c, 15, 66, 0
27, 120479, Note_on_c, 15, 59, 0
27, 120480, Note_on_c, 15, 64, 90
27, 120480, Note_on_c, 15, 68, 90
27, 120509, Note_on_c, 15, 64, 0
27, 120510, Note_on_c, 15, 62, 90
27, 120539, Note_on_c, 15, 62, 0
27, 120539, Note_on_c, 15, 68, 0
27, 120540, Note_on_c, 15, 61, 90
27, 120540, Note_on_c, 15, 69, 90
27, 120569, Note_on_c, 15, 61, 0
27, 120570, Note_on_c, 15, 62, 90
27, 120599, Note_on_c, 15, 62, 0
27, 120599, Note_on_c, 15, 69, 0
27, 120600, Note_on_c, 15, 64, 90
27, 120600, Note_on_c, 15, 68, 90
27, 120629, Note_on_c, 15, 64, 0
27, 120630, Note_on_c, 15, 66, 90
27, 120659, Note_on_c, 15, 66, 0
27, 120659, Note_on_c, 15, 68, 0
27, 120660, Note_on_c, 15, 64, 90
27, 120660, Note_on_c, 15, 66, 90
27, 120689, Note_on_c, 15, 64, 0
27, 120690, Note_on_c, 15, 66, 90
27, 120719, Note_on_c, 15, 66, 0
27, 120719, Note_on_c, 15, 66, 0
27, 120720, Note_on_c, 15, 64, 90
27, 120720, Note_on_c, 15, 68, 90
27, 120779, Note_on_c, 15, 68, 0
27, 120779, Note_on_c, 15, 64, 0
27, 120780, Note_on_c, 15, 59, 90
27, 120780, Note_on_c, 15, 66, 90
27, 120809, Note_on_c, 15, 66, 0
27, 120810, Note_on_c, 15, 68, 90
27, 120839, Note_on_c, 15, 68, 0
27, 120839, Note_on_c, 15, 59, 0
27, 120840, Note_on_c, 15, 59, 90
27, 120840, Note_on_c, 15, 64, 90
27, 120899, Note_on_c, 15, 64, 0
27, 120899, Note_on_c, 15, 59, 0
27, 120900, Note_on_c, 15, 64, 90
27, 120900, Note_on_c, 15, 68, 90
27, 120959, Note_on_c, 15, 68, 0
27, 120959, Note_on_c, 15, 64, 0
27, 120960, Note_on_c, 15, 62, 90
27, 120960, Note_on_c, 15, 69, 90
27, 121019, Note_on_c, 15, 69, 0
27, 121019, Note_on_c, 15, 62, 0
27, 121020, Note_on_c, 15, 62, 90
27, 121020, Note_on_c, 15, 66, 90
27, 121049, Note_on_c, 15, 66, 0
27, 121050, Note_on_c, 15, 67, 90
27, 121079, Note_on_c, 15, 67, 0
27, 121079, Note_on_c, 15, 62, 0
27, 121080, Note_on_c, 15, 62, 90
27, 121080, Note_on_c, 15, 69, 90
27, 121109, Note_on_c, 15, 62, 0
27, 121110, Note_on_c, 15, 61, 90
27, 121139, Note_on_c, 15, 61, 0
27, 121139, Note_on_c, 15, 69, 0
27, 121140, Note_on_c, 15, 62, 90
27, 121140, Note_on_c, 15, 69, 90
27, 121169, Note_on_c, 15, 62, 0
27, 121170, Note_on_c, 15, 64, 90
27, 121199, Note_on_c, 15, 64, 0
27, 121199, Note_on_c, 15, 69, 0
27, 121200, Note_on_c, 15, 66, 90
27, 121200, Note_on_c, 15, 69, 90
27, 121259, Note_on_c, 15, 69, 0
27, 121259, Note_on_c, 15, 66, 0
27, 121260, Note_on_c, 15, 62, 90
27, 121260, Note_on_c, 15, 66, 90
27, 121289, Note_on_c, 15, 66, 0
27, 121290, Note_on_c, 15, 67, 90
27, 121319, Note_on_c, 15, 67, 0
27, 121319, Note_on_c, 15, 62, 0
27, 121320, Note_on_c, 15, 74, 90
27, 121320, Note_on_c, 15, 69, 90
27, 121349, Note_on_c, 15, 74, 0
27, 121350, Note_on_c, 15, 61, 90
27, 121379, Note_on_c, 15, 61, 0
27, 121379, Note_on_c, 15, 69, 0
27, 121380, Note_on_c, 15, 59, 90
27, 121380, Note_on_c, 15, 69, 90
27, 121409, Note_on_c, 15, 59, 0
27, 121410, Note_on_c, 15, 57, 90
27, 121439, Note_on_c, 15, 57, 0
27, 121439, Note_on_c, 15, 69, 0
27, 121440, Note_on_c, 15, 64, 90
27, 121440, Note_on_c, 15, 71, 90
27, 121499, Note_on_c, 15, 71, 0
27, 121499, Note_on_c, 15, 64, 0
27, 121500, Note_on_c, 15, 64, 90
27, 121500, Note_on_c, 15, 68, 90
27, 121529, Note_on_c, 15, 68, 0
27, 121530, Note_on_c, 15, 69, 90
27, 121559, Note_on_c, 15, 69, 0
27, 121559, Note_on_c, 15, 64, 0
27, 121560, Note_on_c, 15, 64, 90
27, 121560, Note_on_c, 15, 71, 90
27, 121589, Note_on_c, 15, 64, 0
27, 121590, Note_on_c, 15, 66, 90
27, 121619, Note_on_c, 15, 66, 0
27, 121619, Note_on_c, 15, 71, 0
27, 121620, Note_on_c, 15, 68, 90
27, 121620, Note_on_c, 15, 71, 90
27, 121649, Note_on_c, 15, 68, 0
27, 121650, Note_on_c, 15, 66, 90
27, 121679, Note_on_c, 15, 66, 0
27, 121679, Note_on_c, 15, 71, 0
27, 121680, Note_on_c, 15, 64, 90
27, 121680, Note_on_c, 15, 71, 90
27, 121739, Note_on_c, 15, 71, 0
27, 121739, Note_on_c, 15, 64, 0
27, 121740, Note_on_c, 15, 64, 90
27, 121740, Note_on_c, 15, 68, 90
27, 121769, Note_on_c, 15, 68, 0
27, 121770, Note_on_c, 15, 69, 90
27, 121799, Note_on_c, 15, 69, 0
27, 121799, Note_on_c, 15, 64, 0
27, 121800, Note_on_c, 15, 64, 90
27, 121800, Note_on_c, 15, 71, 90
27, 121859, Note_on_c, 15, 71, 0
27, 121859, Note_on_c, 15, 64, 0
27, 121860, Note_on_c, 15, 64, 90
27, 121860, Note_on_c, 15, 71, 90
27, 121919, Note_on_c, 15, 71, 0
27, 121919, Note_on_c, 15, 64, 0
27, 121920, Note_on_c, 15, 64, 90
27, 121920, Note_on_c, 15, 69, 90
27, 121979, Note_on_c, 15, 69, 0
27, 121979, Note_on_c, 15, 64, 0
27, 121980, Note_on_c, 15, 64, 90
27, 122039, Note_on_c, 15, 64, 0
27, 122040, Note_on_c, 15, 62, 90
27, 122040, Note_on_c, 15, 66, 90
27, 122099, Note_on_c, 15, 66, 0
27, 122099, Note_on_c, 15, 62, 0
27, 122100, Note_on_c, 15, 59, 90
27, 122100, Note_on_c, 15, 64, 90
27, 122159, Note_on_c, 15, 64, 0
27, 122159, Note_on_c, 15, 59, 0
27, 122160, Note_on_c, 15, 61, 90
27, 122160, Note_on_c, 15, 64, 90
27, 122219, Note_on_c, 15, 64, 0
27, 122219, Note_on_c, 15, 61, 0
27, 122220, Note_on_c, 15, 61, 90
27, 122249, Note_on_c, 15, 61, 0
27, 122250, Note_on_c, 15, 62, 90
27, 122279, Note_on_c, 15, 62, 0
27, 122280, Note_on_c, 15, 64, 90
27, 122339, Note_on_c, 15, 64, 0
27, 122340, Note_on_c, 15, 66, 90
27, 122369, Note_on_c, 15, 66, 0
27, 122370, Note_on_c, 15, 68, 90
27, 122399, Note_on_c, 15, 68, 0
27, 122400, Note_on_c, 15, 69, 90
27, 122459, Note_on_c, 15, 69, 0
27, 122460, Note_on_c, 15, 64, 90
27, 122460, Note_on_c, 15, 69, 90
27, 122519, Note_on_c, 15, 69, 0
27, 122519, Note_on_c, 15, 64, 0
27, 122520, Note_on_c, 15, 61, 90
27, 122520, Note_on_c, 15, 69, 90
27, 122579, Note_on_c, 15, 69, 0
27, 122579, Note_on_c, 15, 61, 0
27, 122580, Note_on_c, 15, 59, 90
27, 122580, Note_on_c, 15, 64, 90
27, 122639, Note_on_c, 15, 64, 0
27, 122639, Note_on_c, 15, 59, 0
27, 122640, Note_on_c, 15, 61, 90
27, 122640, Note_on_c, 15, 64, 90
27, 122759, Note_on_c, 15, 64, 0
27, 122759, Note_on_c, 15, 61, 0
27, 122880, Note_on_c, 15, 63, 100
27, 122880, Note_on_c, 15, 68, 100
27, 123840, Note_on_c, 15, 68, 0
27, 123840, Note_on_c, 15, 63, 0
27, 123840, Note_on_c, 15, 68, 100
27, 123840, Note_on_c, 15, 64, 100
27, 124080, Note_on_c, 15, 64, 0
27, 124080, Note_on_c, 15, 68, 0
27, 124080, Note_on_c, 15, 66, 100
27, 124080, Note_on_c, 15, 69, 100
27, 124320, Note_on_c, 15, 69, 0
27, 124320, Note_on_c, 15, 66, 0
27, 124320, Note_on_c, 15, 71, 100
27, 124320, Note_on_c, 15, 68, 100
27, 124560, Note_on_c, 15, 68, 0
27, 124560, Note_on_c, 15, 71, 0
27, 124560, Note_on_c, 15, 74, 100
27, 124560, Note_on_c, 15, 65, 100
27, 124800, Note_on_c, 15, 65, 0
27, 124800, Note_on_c, 15, 74, 0
27, 124800, Note_on_c, 15, 68, 100
27, 124800, Note_on_c, 15, 64, 100
27, 124800, Note_on_c, 15, 71, 100
27, 125040, Note_on_c, 15, 71, 0
27, 125040, Note_on_c, 15, 64, 0
27, 125040, Note_on_c, 15, 68, 0
27, 125040, Note_on_c, 15, 64, 100
27, 125040, Note_on_c, 15, 67, 100
27, 125040, Note_on_c, 15, 73, 100
27, 125280, Note_on_c, 15, 73, 0
27, 125280, Note_on_c, 15, 67, 0
27, 125280, Note_on_c, 15, 64, 0
27, 125280, Note_on_c, 15, 64, 100
27, 125280, Note_on_c, 15, 66, 100
27, 125280, Note_on_c, 15, 70, 100
27, 125760, Note_on_c, 15, 70, 0
27, 125760, Note_on_c, 15, 66, 0
27, 125760, Note_on_c, 15, 64, 0
27, 125760, Note_on_c, 15, 74, 100
27, 125760, Note_on_c, 15, 71, 100
27, 125880, Note_on_c, 15, 71, 0
27, 125880, Note_on_c, 15, 74, 0
27, 125880, Note_on_c, 15, 71, 100
27, 125880, Note_on_c, 15, 66, 100
27, 126000, Note_on_c, 15, 66, 0
27, 126000, Note_on_c, 15, 71, 0
27, 126000, Note_on_c, 15, 67, 100
27, 126000, Note_on_c, 15, 72, 100
27, 126120, Note_on_c, 15, 72, 0
27, 126120, Note_on_c, 15, 67, 0
27, 126120, Note_on_c, 15, 67, 100
27, 126120, Note_on_c, 15, 71, 100
27, 126240, Note_on_c, 15, 71, 0
27, 126240, Note_on_c, 15, 67, 0
27, 126360, Note_on_c, 15, 70, 100
27, 126360, Note_on_c, 15, 66, 100
27, 126360, Note_on_c, 15, 73, 100
27, 126480, Note_on_c, 15, 73, 0
27, 126480, Note_on_c, 15, 66, 0
27, 126480, Note_on_c, 15, 70, 0
27, 126480, Note_on_c, 15, 62, 100
27, 126480, Note_on_c, 15, 66, 100
27, 126480, Note_on_c, 15, 71, 100
27, 126720, Note_on_c, 15, 71, 0
27, 126720, Note_on_c, 15, 66, 0
27, 126720, Note_on_c, 15, 62, 0
27, 141480, Note_on_c, 15, 64, 100
27, 141480, Note_on_c, 15, 67, 100
27, 141540, Note_on_c, 15, 67, 0
27, 141540, Note_on_c, 15, 64, 0
27, 141600, Note_on_c, 15, 67, 100
27, 141600, Note_on_c, 15, 64, 100
27, 141660, Note_on_c, 15, 64, 0
27, 141660, Note_on_c, 15, 67, 0
27, 141660, Note_on_c, 15, 62, 100
27, 141660, Note_on_c, 15, 66, 100
27, 141660, Note_on_c, 15, 71, 100
27, 141780, Note_on_c, 15, 71, 0
27, 141780, Note_on_c, 15, 66, 0
27, 141780, Note_on_c, 15, 62, 0
27, 141840, Note_on_c, 15, 67, 100
27, 141840, Note_on_c, 15, 64, 100
27, 141840, Note_on_c, 15, 61, 100
27, 141960, Note_on_c, 15, 61, 0
27, 141960, Note_on_c, 15, 64, 0
27, 141960, Note_on_c, 15, 67, 0
27, 141960, Note_on_c, 15, 62, 100
27, 141960, Note_on_c, 15, 66, 100
27, 141960, Note_on_c, 15, 71, 100
27, 142020, Note_on_c, 15, 71, 0
27, 142020, Note_on_c, 15, 66, 0
27, 142020, Note_on_c, 15, 62, 0
27, 142020, Note_on_c, 15, 61, 100
27, 142020, Note_on_c, 15, 66, 100
27, 142020, Note_on_c, 15, 70, 100
27, 142140, Note_on_c, 15, 70, 0
27, 142140, Note_on_c, 15, 66, 0
27, 142140, Note_on_c, 15, 61, 0
27, 142140, Note_on_c, 15, 73, 100
27, 142140, Note_on_c, 15, 70, 100
27, 142200, Note_on_c, 15, 70, 0
27, 142200, Note_on_c, 15, 73, 0
27, 142200, Note_on_c, 15, 74, 100
27, 142200, Note_on_c, 15, 71, 100
27, 142260, Note_on_c, 15, 71, 0
27, 142260, Note_on_c, 15, 74, 0
27, 142260, Note_on_c, 15, 71, 100
27, 142260, Note_on_c, 15, 66, 100
27, 142320, Note_on_c, 15, 66, 0
27, 142320, Note_on_c, 15, 71, 0
27, 142320, Note_on_c, 15, 76, 100
27, 142320, Note_on_c, 15, 67, 100
27, 142320, Note_on_c, 15, 73, 100
27, 142380, Note_on_c, 15, 73, 0
27, 142380, Note_on_c, 15, 67, 0
27, 142380, Note_on_c, 15, 76, 0
27, 142380, Note_on_c, 15, 71, 100
27, 142380, Note_on_c, 15, 74, 100
27, 142440, Note_on_c, 15, 74, 0
27, 142440, Note_on_c, 15, 71, 0
27, 142440, Note_on_c, 15, 66, 100
27, 142440, Note_on_c, 15, 62, 100
27, 142440, Note_on_c, 15, 71, 100
27, 142560, Note_on_c, 15, 71, 0
27, 142560, Note_on_c, 15, 62, 0
27, 142560, Note_on_c, 15, 66, 0
27, 142560, Note_on_c, 15, 64, 100
27, 142560, Note_on_c, 15, 67, 100
27, 142560, Note_on_c, 15, 73, 100
27, 142620, Note_on_c, 15, 73, 0
27, 142620, Note_on_c, 15, 67, 0
27, 142620, Note_on_c, 15, 64, 0
27, 142620, Note_on_c, 15, 73, 100
27, 142620, Note_on_c, 15, 76, 100
27, 142680, Note_on_c, 15, 76, 0
27, 142680, Note_on_c, 15, 73, 0
27, 142680, Note_on_c, 15, 71, 100
27, 142680, Note_on_c, 15, 74, 100
27, 142740, Note_on_c, 15, 74, 0
27, 142740, Note_on_c, 15, 71, 0
27, 142740, Note_on_c, 15, 64, 100
27, 142740, Note_on_c, 15, 67, 100
27, 142740, Note_on_c, 15, 73, 100
27, 142800, Note_on_c, 15, 73, 0
27, 142800, Note_on_c, 15, 67, 0
27, 142800, Note_on_c, 15, 64, 0
27, 142800, Note_on_c, 15, 70, 100
27, 142830, Note_on_c, 15, 70, 0
27, 142830, Note_on_c, 15, 68, 100
27, 142860, Note_on_c, 15, 68, 0
27, 142860, Note_on_c, 15, 70, 100
27, 142860, Note_on_c, 15, 66, 100
27, 142920, Note_on_c, 15, 66, 0
27, 142920, Note_on_c, 15, 70, 0
27, 142920, Note_on_c, 15, 62, 100
27, 142920, Note_on_c, 15, 66, 100
27, 143040, Note_on_c, 15, 66, 0
27, 143040, Note_on_c, 15, 62, 0
27, 151200, Note_on_c, 15, 73, 100
27, 151200, Note_on_c, 15, 69, 100
27, 151200, Note_on_c, 15, 64, 100
27, 151680, Note_on_c, 15, 64, 0
27, 151680, Note_on_c, 15, 69, 0
27, 151680, Note_on_c, 15, 73, 0
27, 151680, Note_on_c, 15, 66, 100
27, 151680, Note_on_c, 15, 69, 100
27, 151680, Note_on_c, 15, 74, 100
27, 152400, Note_on_c, 15, 74, 0
27, 152400, Note_on_c, 15, 69, 0
27, 152400, Note_on_c, 15, 66, 0
27, 152400, Note_on_c, 15, 71, 100
27, 152400, Note_on_c, 15, 64, 100
27, 152400, Note_on_c, 15, 68, 100
27, 153120, Note_on_c, 15, 68, 0
27, 153120, Note_on_c, 15, 64, 0
27, 153120, Note_on_c, 15, 71, 0
27, 153120, Note_on_c, 15, 61, 100
27, 153120, Note_on_c, 15, 64, 100
27, 153120, Note_on_c, 15, 69, 100
27, 153360, Note_on_c, 15, 69, 0
27, 153360, Note_on_c, 15, 64, 0
27, 153360, Note_on_c, 15, 61, 0
27, 153360, Note_on_c, 15, 69, 100
27, 153360, Note_on_c, 15, 64, 100
27, 153360, Note_on_c, 15, 61, 100
27, 154080, Note_on_c, 15, 61, 0
27, 154080, Note_on_c, 15, 64, 0
27, 154080, Note_on_c, 15, 69, 0
27, 154080, Note_on_c, 15, 62, 100
27, 154080, Note_on_c, 15, 69, 100
27, 154080, Note_on_c, 15, 66, 100
27, 154560, Note_on_c, 15, 66, 0
27, 154560, Note_on_c, 15, 69, 0
27, 154560, Note_on_c, 15, 62, 0
27, 154560, Note_on_c, 15, 62, 100
27, 154560, Note_on_c, 15, 59, 100
27, 154560, Note_on_c, 15, 67, 100
27, 154800, Note_on_c, 15, 67, 0
27, 154800, Note_on_c, 15, 59, 0
27, 154800, Note_on_c, 15, 62, 0
27, 154920, Note_on_c, 15, 69, 90
27, 154920, Note_on_c, 15, 61, 100
27, 154920, Note_on_c, 15, 64, 100
27, 154979, Note_on_c, 15, 69, 0
27, 154980, Note_on_c, 15, 67, 90
27, 155039, Note_on_c, 15, 67, 0
27, 155040, Note_on_c, 15, 64, 0
27, 155040, Note_on_c, 15, 61, 0
27, 155040, Note_on_c, 15, 62, 100
27, 155040, Note_on_c, 15, 66, 100
27, 155280, Note_on_c, 15, 66, 0
27, 155280, Note_on_c, 15, 62, 0
27, 155520, Note_on_c, 15, 61, 100
27, 155520, Note_on_c, 15, 66, 100
27, 155520, Note_on_c, 15, 69, 100
27, 155640, Note_on_c, 15, 69, 0
27, 155640, Note_on_c, 15, 66, 0
27, 155640, Note_on_c, 15, 61, 0
27, 155700, Note_on_c, 15, 65, 100
27, 155700, Note_on_c, 15, 68, 100
27, 155760, Note_on_c, 15, 68, 0
27, 155760, Note_on_c, 15, 65, 0
27, 155760, Note_on_c, 15, 66, 100
27, 155760, Note_on_c, 15, 69, 100
27, 155820, Note_on_c, 15, 69, 0
27, 155820, Note_on_c, 15, 66, 0
27, 155820, Note_on_c, 15, 71, 100
27, 155880, Note_on_c, 15, 71, 0
27, 155880, Note_on_c, 15, 68, 100
27, 155910, Note_on_c, 15, 68, 0
27, 155910, Note_on_c, 15, 66, 100
27, 155940, Note_on_c, 15, 66, 0
27, 155940, Note_on_c, 15, 68, 100
27, 156000, Note_on_c, 15, 68, 0
27, 156000, Note_on_c, 15, 69, 100
27, 156000, Note_on_c, 15, 61, 100
27, 156000, Note_on_c, 15, 66, 100
27, 156120, Note_on_c, 15, 66, 0
27, 156120, Note_on_c, 15, 61, 0
27, 156120, Note_on_c, 15, 69, 0
27, 156180, Note_on_c, 15, 69, 100
27, 156180, Note_on_c, 15, 66, 100
27, 156240, Note_on_c, 15, 66, 0
27, 156240, Note_on_c, 15, 69, 0
27, 156240, Note_on_c, 15, 65, 100
27, 156240, Note_on_c, 15, 68, 100
27, 156360, Note_on_c, 15, 68, 0
27, 156360, Note_on_c, 15, 65, 0
27, 156420, Note_on_c, 15, 61, 100
27, 156420, Note_on_c, 15, 65, 100
27, 156480, Note_on_c, 15, 65, 0
27, 156480, Note_on_c, 15, 61, 0
27, 156480, Note_on_c, 15, 61, 100
27, 156480, Note_on_c, 15, 66, 100
27, 156600, Note_on_c, 15, 66, 0
27, 156600, Note_on_c, 15, 61, 0
27, 180000, Note_on_c, 15, 63, 100
27, 180000, Note_on_c, 15, 72, 100
27, 180000, Note_on_c, 15, 66, 100
27, 180480, Note_on_c, 15, 66, 0
27, 180480, Note_on_c, 15, 72, 0
27, 180480, Note_on_c, 15, 63, 0
27, 180480, Note_on_c, 15, 68, 100
27, 180480, Note_on_c, 15, 63, 100
27, 180720, Note_on_c, 15, 63, 0
27, 180720, Note_on_c, 15, 68, 0
27, 180720, Note_on_c, 15, 62, 100
27, 180720, Note_on_c, 15, 65, 100
27, 180960, Note_on_c, 15, 65, 0
27, 180960, Note_on_c, 15, 62, 0
27, 180960, Note_on_c, 15, 61, 100
27, 180960, Note_on_c, 15, 64, 100
27, 180960, Note_on_c, 15, 69, 100
27, 181200, Note_on_c, 15, 69, 0
27, 181200, Note_on_c, 15, 64, 0
27, 181200, Note_on_c, 15, 61, 0
27, 181200, Note_on_c, 15, 71, 100
27, 181200, Note_on_c, 15, 62, 100
27, 181200, Note_on_c, 15, 66, 100
27, 181440, Note_on_c, 15, 66, 0
27, 181440, Note_on_c, 15, 62, 0
27, 181440, Note_on_c, 15, 71, 0
27, 181440, Note_on_c, 15, 65, 100
27, 181440, Note_on_c, 15, 68, 100
27, 181440, Note_on_c, 15, 73, 100
27, 181680, Note_on_c, 15, 73, 0
27, 181680, Note_on_c, 15, 68, 0
27, 181680, Note_on_c, 15, 65, 0
27, 181680, Note_on_c, 15, 70, 100
27, 181680, Note_on_c, 15, 61, 100
27, 181680, Note_on_c, 15, 66, 100
27, 182400, Note_on_c, 15, 66, 0
27, 182400, Note_on_c, 15, 61, 0
27, 182400, Note_on_c, 15, 70, 0
27, 182400, Note_on_c, 15, 71, 100
27, 182400, Note_on_c, 15, 66, 100
27, 182400, Note_on_c, 15, 62, 100
27, 183600, Note_on_c, 15, 62, 0
27, 183600, Note_on_c, 15, 66, 0
27, 183600, Note_on_c, 15, 71, 0
27, 183600, Note_on_c, 15, 61, 100
27, 183600, Note_on_c, 15, 65, 100
27, 183600, Note_on_c, 15, 68, 100
27, 183840, Note_on_c, 15, 68, 0
27, 183840, Note_on_c, 15, 65, 0
27, 183840, Note_on_c, 15, 61, 0
27, 183840, Note_on_c, 15, 69, 100
27, 183840, Note_on_c, 15, 66, 100
27, 183840, Note_on_c, 15, 71, 100
27, 184080, Note_on_c, 15, 71, 0
27, 184080, Note_on_c, 15, 66, 0
27, 184080, Note_on_c, 15, 69, 0
27, 184080, Note_on_c, 15, 71, 100
27, 184080, Note_on_c, 15, 63, 100
27, 184320, Note_on_c, 15, 63, 0
27, 184320, Note_on_c, 15, 71, 0
27, 184320, Note_on_c, 15, 71, 100
27, 184320, Note_on_c, 15, 64, 100
27, 184320, Note_on_c, 15, 68, 100
27, 184560, Note_on_c, 15, 68, 0
27, 184560, Note_on_c, 15, 64, 0
27, 184560, Note_on_c, 15, 71, 0
27, 184560, Note_on_c, 15, 69, 100
27, 184560, Note_on_c, 15, 61, 100
27, 184560, Note_on_c, 15, 64, 100
27, 184800, Note_on_c, 15, 64, 0
27, 184800, Note_on_c, 15, 61, 0
27, 184800, Note_on_c, 15, 69, 0
27, 184920, Note_on_c, 15, 71, 100
27, 184920, Note_on_c, 15, 66, 100
27, 184920, Note_on_c, 15, 63, 100
27, 184980, Note_on_c, 15, 71, 0
27, 184980, Note_on_c, 15, 69, 100
27, 185040, Note_on_c, 15, 69, 0
27, 185040, Note_on_c, 15, 63, 0
27, 185040, Note_on_c, 15, 66, 0
27, 185040, Note_on_c, 15, 59, 100
27, 185040, Note_on_c, 15, 64, 100
27, 185040, Note_on_c, 15, 68, 100
27, 185280, Note_on_c, 15, 68, 0
27, 185280, Note_on_c, 15, 64, 0
27, 185280, Note_on_c, 15, 59, 0
27, 185700, Note_on_c, 15, 64, 90
27, 185759, Note_on_c, 15, 64, 0
27, 185760, Note_on_c, 15, 68, 90
27, 185819, Note_on_c, 15, 68, 0
27, 185820, Note_on_c, 15, 71, 90
27, 185879, Note_on_c, 15, 71, 0
27, 185880, Note_on_c, 15, 76, 90
27, 186090, Note_on_c, 15, 76, 0
27, 186090, Note_on_c, 15, 75, 90
27, 186120, Note_on_c, 15, 75, 0
27, 186120, Note_on_c, 15, 73, 90
27, 186150, Note_on_c, 15, 73, 0
27, 186150, Note_on_c, 15, 71, 90
27, 186180, Note_on_c, 15, 71, 0
27, 186180, Note_on_c, 15, 69, 90
27, 186210, Note_on_c, 15, 69, 0
27, 186210, Note_on_c, 15, 68, 90
27, 186240, Note_on_c, 15, 68, 0
27, 186240, Note_on_c, 15, 66, 90
27, 186299, Note_on_c, 15, 66, 0
27, 186300, Note_on_c, 15, 64, 90
27, 186359, Note_on_c, 15, 64, 0
27, 186360, Note_on_c, 15, 63, 90
27, 186419, Note_on_c, 15, 63, 0
27, 186420, Note_on_c, 15, 68, 90
27, 186479, Note_on_c, 15, 68, 0
27, 186480, Note_on_c, 15, 71, 90
27, 186539, Note_on_c, 15, 71, 0
27, 186540, Note_on_c, 15, 68, 90
27, 186599, Note_on_c, 15, 68, 0
27, 186600, Note_on_c, 15, 64, 90
27, 186660, Note_on_c, 15, 69, 90
27, 186720, Note_on_c, 15, 73, 90
27, 186839, Note_on_c, 15, 64, 0
27, 186840, Note_on_c, 15, 73, 0
27, 186840, Note_on_c, 15, 69, 0
27, 186840, Note_on_c, 15, 69, 90
27, 186870, Note_on_c, 15, 69, 0
27, 186870, Note_on_c, 15, 68, 90
27, 186900, Note_on_c, 15, 68, 0
27, 186900, Note_on_c, 15, 66, 90
27, 186930, Note_on_c, 15, 66, 0
27, 186930, Note_on_c, 15, 64, 90
27, 186960, Note_on_c, 15, 64, 0
27, 186960, Note_on_c, 15, 63, 90
27, 187020, Note_on_c, 15, 68, 90
27, 187080, Note_on_c, 15, 71, 90
27, 187199, Note_on_c, 15, 63, 0
27, 187200, Note_on_c, 15, 71, 0
27, 187200, Note_on_c, 15, 68, 0
27, 187200, Note_on_c, 15, 68, 90
27, 187230, Note_on_c, 15, 68, 0
27, 187230, Note_on_c, 15, 66, 90
27, 187260, Note_on_c, 15, 66, 0
27, 187260, Note_on_c, 15, 64, 90
27, 187290, Note_on_c, 15, 64, 0
27, 187290, Note_on_c, 15, 63, 90
27, 187320, Note_on_c, 15, 63, 0
27, 187320, Note_on_c, 15, 61, 90
27, 187380, Note_on_c, 15, 66, 90
27, 187440, Note_on_c, 15, 69, 90
27, 187559, Note_on_c, 15, 61, 0
27, 187560, Note_on_c, 15, 69, 0
27, 187560, Note_on_c, 15, 66, 0
27, 187560, Note_on_c, 15, 63, 90
27, 187619, Note_on_c, 15, 63, 0
27, 187620, Note_on_c, 15, 66, 90
27, 187679, Note_on_c, 15, 66, 0
27, 187680, Note_on_c, 15, 68, 90
27, 187680, Note_on_c, 15, 64, 90
27, 187919, Note_on_c, 15, 64, 0
27, 187919, Note_on_c, 15, 68, 0
27, 187920, Note_on_c, 15, 68, 90
27, 187979, Note_on_c, 15, 68, 0
27, 187980, Note_on_c, 15, 71, 90
27, 188039, Note_on_c, 15, 71, 0
27, 188040, Note_on_c, 15, 69, 90
27, 188040, Note_on_c, 15, 64, 90
27, 188279, Note_on_c, 15, 64, 0
27, 188279, Note_on_c, 15, 69, 0
27, 188280, Note_on_c, 15, 70, 90
27, 188339, Note_on_c, 15, 70, 0
27, 188340, Note_on_c, 15, 73, 90
27, 188399, Note_on_c, 15, 73, 0
27, 188400, Note_on_c, 15, 63, 90
27, 188460, Note_on_c, 15, 66, 90
27, 188520, Note_on_c, 15, 71, 90
27, 188639, Note_on_c, 15, 63, 0
27, 188640, Note_on_c, 15, 71, 0
27, 188640, Note_on_c, 15, 66, 0
27, 188760, Note_on_c, 15, 64, 90
27, 188820, Note_on_c, 15, 68, 90
27, 188880, Note_on_c, 15, 71, 90
27, 188999, Note_on_c, 15, 64, 0
27, 189000, Note_on_c, 15, 71, 0
27, 189000, Note_on_c, 15, 68, 0
27, 189120, Note_on_c, 15, 63, 90
27, 189180, Note_on_c, 15, 66, 90
27, 189240, Note_on_c, 15, 71, 90
27, 189359, Note_on_c, 15, 63, 0
27, 189360, Note_on_c, 15, 71, 0
27, 189360, Note_on_c, 15, 66, 0
27, 189480, Note_on_c, 15, 68, 90
27, 189539, Note_on_c, 15, 68, 0
27, 189540, Note_on_c, 15, 64, 90
27, 189599, Note_on_c, 15, 64, 0
27, 189600, Note_on_c, 15, 73, 90
27, 189659, Note_on_c, 15, 73, 0
27, 189660, Note_on_c, 15, 68, 90
27, 189660, Note_on_c, 15, 71, 90
27, 189779, Note_on_c, 15, 71, 0
27, 189779, Note_on_c, 15, 68, 0
27, 189780, Note_on_c, 15, 66, 90
27, 189780, Note_on_c, 15, 69, 90
27, 189839, Note_on_c, 15, 69, 0
27, 189839, Note_on_c, 15, 66, 0
27, 189840, Note_on_c, 15, 64, 90
27, 189840, Note_on_c, 15, 68, 90
27, 190020, Note_on_c, 15, 68, 0
27, 190020, Note_on_c, 15, 64, 0
27, 190020, Note_on_c, 15, 64, 90
27, 190080, Note_on_c, 15, 64, 0
27, 190080, Note_on_c, 15, 68, 90
27, 190140, Note_on_c, 15, 68, 0
27, 190140, Note_on_c, 15, 69, 90
27, 190200, Note_on_c, 15, 69, 0
27, 190200, Note_on_c, 15, 64, 90
27, 190200, Note_on_c, 15, 68, 90
27, 190260, Note_on_c, 15, 68, 0
27, 190260, Note_on_c, 15, 64, 0
27, 190260, Note_on_c, 15, 68, 90
27, 190290, Note_on_c, 15, 68, 0
27, 190290, Note_on_c, 15, 69, 90
27, 190320, Note_on_c, 15, 69, 0
27, 190320, Note_on_c, 15, 68, 90
27, 190350, Note_on_c, 15, 68, 0
27, 190350, Note_on_c, 15, 66, 90
27, 190380, Note_on_c, 15, 66, 0
27, 190380, Note_on_c, 15, 64, 90
27, 190439, Note_on_c, 15, 64, 0
27, 190440, Note_on_c, 15, 68, 90
27, 190499, Note_on_c, 15, 68, 0
27, 190500, Note_on_c, 15, 69, 90
27, 190559, Note_on_c, 15, 69, 0
27, 190560, Note_on_c, 15, 71, 90
27, 190560, Note_on_c, 15, 64, 90
27, 190560, Note_on_c, 15, 68, 90
27, 190740, Note_on_c, 15, 68, 0
27, 190740, Note_on_c, 15, 64, 0
27, 190740, Note_on_c, 15, 71, 0
27, 190740, Note_on_c, 15, 64, 90
27, 190740, Note_on_c, 15, 68, 90
27, 191040, Note_on_c, 15, 68, 0
27, 191040, Note_on_c, 15, 64, 0
27, 191040, Note_on_c, 15, 66, 90
27, 191040, Note_on_c, 15, 69, 90
27, 191099, Note_on_c, 15, 69, 0
27, 191099, Note_on_c, 15, 66, 0
27, 191100, Note_on_c, 15, 64, 90
27, 191100, Note_on_c, 15, 68, 90
27, 191219, Note_on_c, 15, 68, 0
27, 191219, Note_on_c, 15, 64, 0
27, 191220, Note_on_c, 15, 73, 90
27, 191220, Note_on_c, 15, 69, 90
27, 191220, Note_on_c, 15, 66, 90
27, 191279, Note_on_c, 15, 66, 0
27, 191279, Note_on_c, 15, 69, 0
27, 191279, Note_on_c, 15, 73, 0
27, 191280, Note_on_c, 15, 66, 90
27, 191280, Note_on_c, 15, 71, 90
27, 191460, Note_on_c, 15, 71, 0
27, 191460, Note_on_c, 15, 66, 0
27, 191460, Note_on_c, 15, 63, 90
27, 191460, Note_on_c, 15, 66, 90
27, 191640, Note_on_c, 15, 66, 0
27, 191640, Note_on_c, 15, 63, 0
27, 191700, Note_on_c, 15, 64, 90
27, 191760, Note_on_c, 15, 68, 90
27, 191820, Note_on_c, 15, 71, 90
27, 191939, Note_on_c, 15, 64, 0
27, 191940, Note_on_c, 15, 71, 0
27, 191940, Note_on_c, 15, 68, 0
27, 192060, Note_on_c, 15, 66, 90
27, 192120, Note_on_c, 15, 69, 90
27, 192180, Note_on_c, 15, 75, 90
27, 192299, Note_on_c, 15, 66, 0
27, 192300, Note_on_c, 15, 75, 0
27, 192300, Note_on_c, 15, 69, 0
27, 192360, Note_on_c, 15, 68, 90
27, 192360, Note_on_c, 15, 71, 90
27, 192480, Note_on_c, 15, 71, 0
27, 192480, Note_on_c, 15, 68, 0
27, 192480, Note_on_c, 15, 69, 90
27, 192480, Note_on_c, 15, 73, 90
27, 192539, Note_on_c, 15, 73, 0
27, 192539, Note_on_c, 15, 69, 0
27, 192540, Note_on_c, 15, 63, 90
27, 192540, Note_on_c, 15, 66, 90
27, 192540, Note_on_c, 15, 71, 90
27, 192659, Note_on_c, 15, 71, 0
27, 192659, Note_on_c, 15, 66, 0
27, 192659, Note_on_c, 15, 63, 0
27, 192660, Note_on_c, 15, 66, 90
27, 192660, Note_on_c, 15, 69, 90
27, 192660, Note_on_c, 15, 63, 90
27, 192719, Note_on_c, 15, 63, 0
27, 192719, Note_on_c, 15, 69, 0
27, 192719, Note_on_c, 15, 66, 0
27, 192720, Note_on_c, 15, 64, 90
27, 192720, Note_on_c, 15, 68, 90
27, 192900, Note_on_c, 15, 68, 0
27, 192900, Note_on_c, 15, 64, 0
27, 192960, Note_on_c, 15, 59, 100
27, 193020, Note_on_c, 15, 64, 100
27, 193080, Note_on_c, 15, 68, 100
27, 193560, Note_on_c, 15, 59, 0
27, 193620, Note_on_c, 15, 68, 0
27, 193620, Note_on_c, 15, 64, 0
27, 193620, Note_on_c, 15, 68, 90
27, 193679, Note_on_c, 15, 68, 0
27, 193680, Note_on_c, 15, 71, 90
27, 193739, Note_on_c, 15, 71, 0
27, 193740, Note_on_c, 15, 68, 90
27, 193799, Note_on_c, 15, 68, 0
27, 193800, Note_on_c, 15, 64, 90
27, 193800, Note_on_c, 15, 68, 90
27, 193919, Note_on_c, 15, 68, 0
27, 193919, Note_on_c, 15, 64, 0
27, 193920, Note_on_c, 15, 69, 90
27, 193920, Note_on_c, 15, 66, 90
27, 193979, Note_on_c, 15, 66, 0
27, 193979, Note_on_c, 15, 69, 0
27, 193980, Note_on_c, 15, 68, 90
27, 193980, Note_on_c, 15, 71, 90
27, 194099, Note_on_c, 15, 71, 0
27, 194099, Note_on_c, 15, 68, 0
27, 194100, Note_on_c, 15, 66, 90
27, 194100, Note_on_c, 15, 69, 90
27, 194159, Note_on_c, 15, 69, 0
27, 194159, Note_on_c, 15, 66, 0
27, 194160, Note_on_c, 15, 63, 90
27, 194160, Note_on_c, 15, 69, 90
27, 194340, Note_on_c, 15, 69, 0
27, 194340, Note_on_c, 15, 63, 0
27, 221520, Note_on_c, 15, 61, 90
27, 221520, Note_on_c, 15, 66, 90
27, 221520, Note_on_c, 15, 70, 90
27, 222239, Note_on_c, 15, 70, 0
27, 222239, Note_on_c, 15, 66, 0
27, 222239, Note_on_c, 15, 61, 0
27, 222240, Note_on_c, 15, 71, 90
27, 222240, Note_on_c, 15, 66, 90
27, 222240, Note_on_c, 15, 62, 90
27, 222719, Note_on_c, 15, 62, 0
27, 222719, Note_on_c, 15, 66, 0
27, 222719, Note_on_c, 15, 71, 0
27, 222720, Note_on_c, 15, 71, 90
27, 222720, Note_on_c, 15, 68, 90
27, 223680, Note_on_c, 15, 68, 0
27, 223680, Note_on_c, 15, 71, 0
27, 223680, Note_on_c, 15, 73, 90
27, 223680, Note_on_c, 15, 69, 90
27, 224640, Note_on_c, 15, 69, 0
27, 224640, Note_on_c, 15, 73, 0
27, 224640, Note_on_c, 15, 64, 90
27, 224640, Note_on_c, 15, 71, 90
27, 225120, Note_on_c, 15, 71, 0
27, 225120, Note_on_c, 15, 64, 0
27, 225120, Note_on_c, 15, 70, 90
27, 225120, Note_on_c, 15, 64, 90
27, 225120, Note_on_c, 15, 73, 90
27, 226560, Note_on_c, 15, 73, 0
27, 226560, Note_on_c, 15, 64, 0
27, 226560, Note_on_c, 15, 70, 0
27, 226560, Note_on_c, 15, 71, 90
27, 226560, Note_on_c, 15, 66, 90
27, 226560, Note_on_c, 15, 62, 90
27, 226800, Note_on_c, 15, 62, 0
27, 226800, Note_on_c, 15, 66, 0
27, 226800, Note_on_c, 15, 71, 0
27, 226800, Note_on_c, 15, 62, 90
27, 226800, Note_on_c, 15, 67, 90
27, 226800, Note_on_c, 15, 71, 90
27, 227040, Note_on_c, 15, 71, 0
27, 227040, Note_on_c, 15, 67, 0
27, 227040, Note_on_c, 15, 62, 0
27, 227040, Note_on_c, 15, 72, 90
27, 227040, Note_on_c, 15, 64, 90
27, 227040, Note_on_c, 15, 67, 90
27, 227280, Note_on_c, 15, 67, 0
27, 227280, Note_on_c, 15, 64, 0
27, 227280, Note_on_c, 15, 72, 0
27, 227280, Note_on_c, 15, 69, 90
27, 227280, Note_on_c, 15, 66, 90
27, 227280, Note_on_c, 15, 72, 90
27, 227520, Note_on_c, 15, 72, 0
27, 227520, Note_on_c, 15, 66, 0
27, 227520, Note_on_c, 15, 69, 0
27, 227520, Note_on_c, 15, 62, 90
27, 227520, Note_on_c, 15, 71, 90
27, 227520, Note_on_c, 15, 67, 90
27, 228000, Note_on_c, 15, 67, 0
27, 228000, Note_on_c, 15, 71, 0
27, 228000, Note_on_c, 15, 62, 0
27, 228000, Note_on_c, 15, 71, 100
27, 228000, Note_on_c, 15, 68, 100
27, 228000, Note_on_c, 15, 64, 100
27, 228480, Note_on_c, 15, 64, 0
27, 228480, Note_on_c, 15, 68, 0
27, 228480, Note_on_c, 15, 71, 0
27, 228480, Note_on_c, 15, 60, 90
27, 228480, Note_on_c, 15, 64, 90
27, 228480, Note_on_c, 15, 69, 90
27, 228960, Note_on_c, 15, 69, 0
27, 228960, Note_on_c, 15, 64, 0
27, 228960, Note_on_c, 15, 60, 0
27, 228960, Note_on_c, 15, 67, 90
27, 228960, Note_on_c, 15, 73, 90
27, 228960, Note_on_c, 15, 64, 90
27, 229440, Note_on_c, 15, 64, 0
27, 229440, Note_on_c, 15, 73, 0
27, 229440, Note_on_c, 15, 67, 0
27, 229440, Note_on_c, 15, 62, 90
27, 229440, Note_on_c, 15, 66, 90
27, 229440, Note_on_c, 15, 69, 90
27, 229679, Note_on_c, 15, 69, 0
27, 229679, Note_on_c, 15, 66, 0
27, 229679, Note_on_c, 15, 62, 0
27, 229680, Note_on_c, 15, 70, 90
27, 229680, Note_on_c, 15, 66, 90
27, 229680, Note_on_c, 15, 73, 90
27, 229919, Note_on_c, 15, 73, 0
27, 229919, Note_on_c, 15, 66, 0
27, 229919, Note_on_c, 15, 70, 0
27, 229920, Note_on_c, 15, 71, 90
27, 229920, Note_on_c, 15, 62, 90
27, 229920, Note_on_c, 15, 66, 90
27, 230039, Note_on_c, 15, 66, 0
27, 230039, Note_on_c, 15, 62, 0
27, 230039, Note_on_c, 15, 71, 0
27, 230040, Note_on_c, 15, 62, 90
27, 230040, Note_on_c, 15, 66, 90
27, 230040, Note_on_c, 15, 69, 90
27, 230040, Note_on_c, 15, 71, 90
27, 230159, Note_on_c, 15, 71, 0
27, 230159, Note_on_c, 15, 62, 0
27, 230159, Note_on_c, 15, 66, 0
27, 230159, Note_on_c, 15, 69, 0
27, 230160, Note_on_c, 15, 64, 90
27, 230160, Note_on_c, 15, 67, 90
27, 230160, Note_on_c, 15, 71, 90
27, 230399, Note_on_c, 15, 71, 0
27, 230399, Note_on_c, 15, 67, 0
27, 230399, Note_on_c, 15, 64, 0
27, 230520, Note_on_c, 15, 64, 90
27, 230520, Note_on_c, 15, 73, 90
27, 230520, Note_on_c, 15, 66, 90
27, 230580, Note_on_c, 15, 73, 0
27, 230580, Note_on_c, 15, 64, 0
27, 230580, Note_on_c, 15, 70, 90
27, 230580, Note_on_c, 15, 61, 90
27, 230639, Note_on_c, 15, 66, 0
27, 230640, Note_on_c, 15, 61, 0
27, 230640, Note_on_c, 15, 70, 0
27, 230640, Note_on_c, 15, 66, 90
27, 230640, Note_on_c, 15, 59, 90
27, 230640, Note_on_c, 15, 71, 90
27, 231119, Note_on_c, 15, 71, 0
27, 231119, Note_on_c, 15, 59, 0
27, 231119, Note_on_c, 15, 66, 0
27, 231120, Note_on_c, 15, 74, 90
27, 231120, Note_on_c, 15, 66, 90
27, 231120, Note_on_c, 15, 69, 90
27, 231359, Note_on_c, 15, 69, 0
27, 231359, Note_on_c, 15, 66, 0
27, 231359, Note_on_c, 15, 74, 0
27, 231360, Note_on_c, 15, 71, 90
27, 231360, Note_on_c, 15, 68, 90
27, 231360, Note_on_c, 15, 64, 90
27, 231599, Note_on_c, 15, 64, 0
27, 231599, Note_on_c, 15, 68, 0
27, 231599, Note_on_c, 15, 71, 0
27, 231600, Note_on_c, 15, 61, 90
27, 231600, Note_on_c, 15, 69, 90
27, 231839, Note_on_c, 15, 69, 0
27, 231839, Note_on_c, 15, 61, 0
27, 231840, Note_on_c, 15, 68, 90
27, 231840, Note_on_c, 15, 73, 90
27, 232079, Note_on_c, 15, 73, 0
27, 232079, Note_on_c, 15, 68, 0
27, 232080, Note_on_c, 15, 66, 90
27, 232080, Note_on_c, 15, 69, 90
27, 232080, Note_on_c, 15, 73, 90
27, 232559, Note_on_c, 15, 73, 0
27, 232559, Note_on_c, 15, 69, 0
27, 232559, Note_on_c, 15, 66, 0
27, 232560, Note_on_c, 15, 71, 90
27, 232560, Note_on_c, 15, 66, 90
27, 232560, Note_on_c, 15, 69, 90
27, 233039, Note_on_c, 15, 69, 0
27, 233039, Note_on_c, 15, 66, 0
27, 233039, Note_on_c, 15, 71, 0
27, 233040, Note_on_c, 15, 72, 90
27, 233040, Note_on_c, 15, 68, 90
27, 233040, Note_on_c, 15, 63, 90
27, 233519, Note_on_c, 15, 63, 0
27, 233519, Note_on_c, 15, 68, 0
27, 233519, Note_on_c, 15, 72, 0
27, 233520, Note_on_c, 15, 68, 90
27, 233520, Note_on_c, 15, 64, 90
27, 233759, Note_on_c, 15, 64, 0
27, 233759, Note_on_c, 15, 68, 0
27, 233760, Note_on_c, 15, 64, 90
27, 233760, Note_on_c, 15, 70, 90
27, 233999, Note_on_c, 15, 70, 0
27, 233999, Note_on_c, 15, 64, 0
27, 234000, Note_on_c, 15, 64, 90
27, 234000, Note_on_c, 15, 73, 90
27, 234000, Note_on_c, 15, 70, 90
27, 234239, Note_on_c, 15, 70, 0
27, 234239, Note_on_c, 15, 73, 0
27, 234239, Note_on_c, 15, 64, 0
27, 234240, Note_on_c, 15, 62, 90
27, 234240, Note_on_c, 15, 66, 90
27, 234240, Note_on_c, 15, 71, 90
27, 234479, Note_on_c, 15, 71, 0
27, 234479, Note_on_c, 15, 66, 0
27, 234479, Note_on_c, 15, 62, 0
27, 234480, Note_on_c, 15, 74, 90
27, 234480, Note_on_c, 15, 64, 90
27, 234480, Note_on_c, 15, 71, 90
27, 234719, Note_on_c, 15, 71, 0
27, 234719, Note_on_c, 15, 64, 0
27, 234719, Note_on_c, 15, 74, 0
27, 234840, Note_on_c, 15, 69, 90
27, 234840, Note_on_c, 15, 61, 90
27, 234840, Note_on_c, 15, 64, 90
27, 234840, Note_on_c, 15, 73, 90
27, 234900, Note_on_c, 15, 69, 0
27, 234900, Note_on_c, 15, 67, 90
27, 234959, Note_on_c, 15, 61, 0
27, 234959, Note_on_c, 15, 73, 0
27, 234959, Note_on_c, 15, 64, 0
27, 234960, Note_on_c, 15, 67, 0
27, 234960, Note_on_c, 15, 62, 90
27, 234960, Note_on_c, 15, 66, 90
27, 235199, Note_on_c, 15, 66, 0
27, 235199, Note_on_c, 15, 62, 0
27, 271980, Note_on_c, 15, 71, 90
27, 271980, Note_on_c, 15, 62, 90
27, 271980, Note_on_c, 15, 67, 90
27, 272039, Note_on_c, 15, 67, 0
27, 272039, Note_on_c, 15, 62, 0
27, 272039, Note_on_c, 15, 71, 0
27, 272040, Note_on_c, 15, 71, 90
27, 272040, Note_on_c, 15, 74, 90
27, 272069, Note_on_c, 15, 74, 0
27, 272069, Note_on_c, 15, 71, 0
27, 272070, Note_on_c, 15, 72, 90
27, 272099, Note_on_c, 15, 72, 0
27, 272100, Note_on_c, 15, 67, 90
27, 272100, Note_on_c, 15, 71, 90
27, 272159, Note_on_c, 15, 71, 0
27, 272159, Note_on_c, 15, 67, 0
27, 272160, Note_on_c, 15, 67, 90
27, 272160, Note_on_c, 15, 71, 90
27, 272219, Note_on_c, 15, 71, 0
27, 272219, Note_on_c, 15, 67, 0
27, 272220, Note_on_c, 15, 67, 90
27, 272220, Note_on_c, 15, 71, 90
27, 272279, Note_on_c, 15, 71, 0
27, 272279, Note_on_c, 15, 67, 0
27, 272280, Note_on_c, 15, 62, 90
27, 272339, Note_on_c, 15, 62, 0
27, 272340, Note_on_c, 15, 67, 90
27, 272340, Note_on_c, 15, 71, 90
27, 272399, Note_on_c, 15, 71, 0
27, 272399, Note_on_c, 15, 67, 0
27, 272400, Note_on_c, 15, 67, 90
27, 272400, Note_on_c, 15, 71, 90
27, 272459, Note_on_c, 15, 71, 0
27, 272459, Note_on_c, 15, 67, 0
27, 272460, Note_on_c, 15, 67, 90
27, 272460, Note_on_c, 15, 71, 90
27, 272519, Note_on_c, 15, 71, 0
27, 272519, Note_on_c, 15, 67, 0
27, 272520, Note_on_c, 15, 71, 90
27, 272520, Note_on_c, 15, 74, 90
27, 272549, Note_on_c, 15, 74, 0
27, 272549, Note_on_c, 15, 71, 0
27, 272550, Note_on_c, 15, 72, 90
27, 272579, Note_on_c, 15, 72, 0
27, 272580, Note_on_c, 15, 67, 90
27, 272580, Note_on_c, 15, 71, 90
27, 272639, Note_on_c, 15, 71, 0
27, 272639, Note_on_c, 15, 67, 0
27, 272640, Note_on_c, 15, 67, 90
27, 272640, Note_on_c, 15, 71, 90
27, 272699, Note_on_c, 15, 71, 0
27, 272699, Note_on_c, 15, 67, 0
27, 272700, Note_on_c, 15, 67, 90
27, 272700, Note_on_c, 15, 71, 90
27, 272759, Note_on_c, 15, 71, 0
27, 272759, Note_on_c, 15, 67, 0
27, 272760, Note_on_c, 15, 60, 90
27, 272760, Note_on_c, 15, 64, 90
27, 272819, Note_on_c, 15, 64, 0
27, 272819, Note_on_c, 15, 60, 0
27, 272820, Note_on_c, 15, 64, 90
27, 272820, Note_on_c, 15, 72, 90
27, 272879, Note_on_c, 15, 72, 0
27, 272879, Note_on_c, 15, 64, 0
27, 272880, Note_on_c, 15, 64, 90
27, 272880, Note_on_c, 15, 72, 90
27, 272939, Note_on_c, 15, 72, 0
27, 272939, Note_on_c, 15, 64, 0
27, 272940, Note_on_c, 15, 64, 90
27, 272940, Note_on_c, 15, 66, 90
27, 272940, Note_on_c, 15, 72, 90
27, 273060, Note_on_c, 15, 72, 0
27, 273060, Note_on_c, 15, 66, 0
27, 273060, Note_on_c, 15, 64, 0
27, 273060, Note_on_c, 15, 66, 90
27, 273060, Note_on_c, 15, 69, 90
27, 273060, Note_on_c, 15, 72, 90
27, 273180, Note_on_c, 15, 72, 0
27, 273180, Note_on_c, 15, 69, 0
27, 273180, Note_on_c, 15, 66, 0
27, 273180, Note_on_c, 15, 62, 90
27, 273180, Note_on_c, 15, 67, 90
27, 273180, Note_on_c, 15, 71, 90
27, 273300, Note_on_c, 15, 71, 0
27, 273300, Note_on_c, 15, 67, 0
27, 273300, Note_on_c, 15, 62, 0
27, 273360, Note_on_c, 15, 67, 90
27, 273360, Note_on_c, 15, 71, 90
27, 273420, Note_on_c, 15, 71, 0
27, 273420, Note_on_c, 15, 67, 0
27, 273420, Note_on_c, 15, 66, 90
27, 273420, Note_on_c, 15, 69, 90
27, 273600, Note_on_c, 15, 69, 0
27, 273600, Note_on_c, 15, 66, 0
27, 273600, Note_on_c, 15, 69, 90
27, 273600, Note_on_c, 15, 66, 90
27, 273660, Note_on_c, 15, 66, 0
27, 273660, Note_on_c, 15, 69, 0
27, 273660, Note_on_c, 15, 67, 90
27, 273660, Note_on_c, 15, 71, 90
27, 273840, Note_on_c, 15, 71, 0
27, 273840, Note_on_c, 15, 67, 0
27, 273840, Note_on_c, 15, 62, 90
27, 273840, Note_on_c, 15, 67, 90
27, 273840, Note_on_c, 15, 71, 90
27, 273900, Note_on_c, 15, 71, 0
27, 273900, Note_on_c, 15, 67, 0
27, 273900, Note_on_c, 15, 62, 0
27, 273900, Note_on_c, 15, 64, 90
27, 273900, Note_on_c, 15, 67, 90
27, 273900, Note_on_c, 15, 71, 90
27, 274080, Note_on_c, 15, 71, 0
27, 274080, Note_on_c, 15, 67, 0
27, 274080, Note_on_c, 15, 64, 0
27, 274080, Note_on_c, 15, 71, 90
27, 274080, Note_on_c, 15, 67, 90
27, 274080, Note_on_c, 15, 62, 90
27, 274140, Note_on_c, 15, 62, 0
27, 274140, Note_on_c, 15, 67, 0
27, 274140, Note_on_c, 15, 71, 0
27, 274140, Note_on_c, 15, 73, 90
27, 274140, Note_on_c, 15, 64, 90
27, 274140, Note_on_c, 15, 69, 90
27, 274320, Note_on_c, 15, 69, 0
27, 274320, Note_on_c, 15, 64, 0
27, 274320, Note_on_c, 15, 73, 0
27, 274320, Note_on_c, 15, 69, 90
27, 274320, Note_on_c, 15, 73, 90
27, 274379, Note_on_c, 15, 73, 0
27, 274379, Note_on_c, 15, 69, 0
27, 274380, Note_on_c, 15, 74, 90
27, 274380, Note_on_c, 15, 69, 90
27, 274439, Note_on_c, 15, 69, 0
27, 274439, Note_on_c, 15, 74, 0
27, 274440, Note_on_c, 15, 62, 90
27, 274499, Note_on_c, 15, 62, 0
27, 274500, Note_on_c, 15, 62, 90
27, 274559, Note_on_c, 15, 62, 0
27, 274560, Note_on_c, 15, 67, 90
27, 274560, Note_on_c, 15, 73, 90
27, 274619, Note_on_c, 15, 73, 0
27, 274619, Note_on_c, 15, 67, 0
27, 274620, Note_on_c, 15, 69, 90
27, 274620, Note_on_c, 15, 73, 90
27, 274679, Note_on_c, 15, 73, 0
27, 274679, Note_on_c, 15, 69, 0
27, 274680, Note_on_c, 15, 64, 90
27, 274739, Note_on_c, 15, 64, 0
27, 274740, Note_on_c, 15, 64, 90
27, 274799, Note_on_c, 15, 64, 0
27, 274800, Note_on_c, 15, 64, 90
27, 274800, Note_on_c, 15, 69, 90
27, 274859, Note_on_c, 15, 69, 0
27, 274859, Note_on_c, 15, 64, 0
27, 274860, Note_on_c, 15, 62, 90
27, 274860, Note_on_c, 15, 69, 90
27, 274919, Note_on_c, 15, 69, 0
27, 274919, Note_on_c, 15, 62, 0
27, 274920, Note_on_c, 15, 57, 90
27, 274979, Note_on_c, 15, 57, 0
27, 274980, Note_on_c, 15, 57, 90
27, 275039, Note_on_c, 15, 57, 0
27, 275040, Note_on_c, 15, 69, 90
27, 275040, Note_on_c, 15, 64, 90
27, 275099, Note_on_c, 15, 64, 0
27, 275099, Note_on_c, 15, 69, 0
27, 275100, Note_on_c, 15, 64, 90
27, 275100, Note_on_c, 15, 67, 90
27, 275159, Note_on_c, 15, 67, 0
27, 275159, Note_on_c, 15, 64, 0
27, 275160, Note_on_c, 15, 64, 90
27, 275189, Note_on_c, 15, 64, 0
27, 275190, Note_on_c, 15, 62, 90
27, 275219, Note_on_c, 15, 62, 0
27, 275220, Note_on_c, 15, 67, 90
27, 275220, Note_on_c, 15, 64, 90
27, 275279, Note_on_c, 15, 64, 0
27, 275279, Note_on_c, 15, 67, 0
27, 275280, Note_on_c, 15, 67, 90
27, 275280, Note_on_c, 15, 64, 90
27, 275339, Note_on_c, 15, 64, 0
27, 275339, Note_on_c, 15, 67, 0
27, 275340, Note_on_c, 15, 67, 90
27, 275340, Note_on_c, 15, 73, 90
27, 275399, Note_on_c, 15, 73, 0
27, 275399, Note_on_c, 15, 67, 0
27, 275460, Note_on_c, 15, 69, 90
27, 275460, Note_on_c, 15, 73, 90
27, 275519, Note_on_c, 15, 73, 0
27, 275519, Note_on_c, 15, 69, 0
27, 275580, Note_on_c, 15, 69, 90
27, 275580, Note_on_c, 15, 74, 90
27, 275639, Note_on_c, 15, 74, 0
27, 275639, Note_on_c, 15, 69, 0
27, 275700, Note_on_c, 15, 69, 90
27, 275700, Note_on_c, 15, 64, 90
27, 275700, Note_on_c, 15, 73, 90
27, 275759, Note_on_c, 15, 73, 0
27, 275759, Note_on_c, 15, 64, 0
27, 275759, Note_on_c, 15, 69, 0
27, 275760, Note_on_c, 15, 67, 90
27, 275819, Note_on_c, 15, 67, 0
27, 275820, Note_on_c, 15, 62, 90
27, 275820, Note_on_c, 15, 69, 90
27, 275820, Note_on_c, 15, 66, 90
27, 275879, Note_on_c, 15, 66, 0
27, 275879, Note_on_c, 15, 69, 0
27, 275879, Note_on_c, 15, 62, 0
27, 275880, Note_on_c, 15, 69, 90
27, 275909, Note_on_c, 15, 69, 0
27, 275910, Note_on_c, 15, 67, 90
27, 275939, Note_on_c, 15, 67, 0
27, 275940, Note_on_c, 15, 62, 90
27, 275940, Note_on_c, 15, 66, 90
27, 275999, Note_on_c, 15, 66, 0
27, 275999, Note_on_c, 15, 62, 0
27, 276000, Note_on_c, 15, 62, 90
27, 276000, Note_on_c, 15, 66, 90
27, 276059, Note_on_c, 15, 66, 0
27, 276059, Note_on_c, 15, 62, 0
27, 276060, Note_on_c, 15, 62, 90
27, 276060, Note_on_c, 15, 66, 90
27, 276119, Note_on_c, 15, 66, 0
27, 276119, Note_on_c, 15, 62, 0
27, 276120, Note_on_c, 15, 57, 90
27, 276179, Note_on_c, 15, 57, 0
27, 276180, Note_on_c, 15, 69, 90
27, 276180, Note_on_c, 15, 66, 90
27, 276239, Note_on_c, 15, 66, 0
27, 276239, Note_on_c, 15, 69, 0
27, 276240, Note_on_c, 15, 66, 90
27, 276240, Note_on_c, 15, 69, 90
27, 276299, Note_on_c, 15, 69, 0
27, 276299, Note_on_c, 15, 66, 0
27, 276300, Note_on_c, 15, 66, 90
27, 276300, Note_on_c, 15, 69, 90
27, 276359, Note_on_c, 15, 69, 0
27, 276359, Note_on_c, 15, 66, 0
27, 276360, Note_on_c, 15, 69, 90
27, 276389, Note_on_c, 15, 69, 0
27, 276390, Note_on_c, 15, 67, 90
27, 276419, Note_on_c, 15, 67, 0
27, 276420, Note_on_c, 15, 66, 90
27, 276420, Note_on_c, 15, 69, 90
27, 276479, Note_on_c, 15, 69, 0
27, 276479, Note_on_c, 15, 66, 0
27, 276480, Note_on_c, 15, 62, 90
27, 276480, Note_on_c, 15, 66, 90
27, 276539, Note_on_c, 15, 66, 0
27, 276539, Note_on_c, 15, 62, 0
27, 276540, Note_on_c, 15, 67, 90
27, 276540, Note_on_c, 15, 64, 90
27, 276660, Note_on_c, 15, 64, 0
27, 276660, Note_on_c, 15, 67, 0
27, 276660, Note_on_c, 15, 64, 90
27, 276660, Note_on_c, 15, 67, 90
27, 276780, Note_on_c, 15, 67, 0
27, 276780, Note_on_c, 15, 64, 0
27, 276780, Note_on_c, 15, 64, 90
27, 276780, Note_on_c, 15, 69, 90
27, 276900, Note_on_c, 15, 69, 0
27, 276900, Note_on_c, 15, 64, 0
27, 276900, Note_on_c, 15, 69, 90
27, 276900, Note_on_c, 15, 66, 90
27, 276959, Note_on_c, 15, 69, 0
27, 276960, Note_on_c, 15, 67, 90
27, 277019, Note_on_c, 15, 67, 0
27, 277020, Note_on_c, 15, 66, 0
27, 277020, Note_on_c, 15, 69, 90
27, 277020, Note_on_c, 15, 62, 90
27, 277020, Note_on_c, 15, 66, 90
27, 277620, Note_on_c, 15, 66, 0
27, 277620, Note_on_c, 15, 62, 0
27, 277620, Note_on_c, 15, 69, 0
27, 277620, Note_on_c, 15, 64, 90
27, 277620, Note_on_c, 15, 61, 90
27, 277620, Note_on_c, 15, 69, 90
27, 277739, Note_on_c, 15, 69, 0
27, 277739, Note_on_c, 15, 61, 0
27, 277739, Note_on_c, 15, 64, 0
27, 277740, Note_on_c, 15, 62, 90
27, 277740, Note_on_c, 15, 66, 90
27, 277979, Note_on_c, 15, 66, 0
27, 277979, Note_on_c, 15, 62, 0
27, 277980, Note_on_c, 15, 61, 90
27, 277980, Note_on_c, 15, 64, 90
27, 277980, Note_on_c, 15, 69, 90
27, 278459, Note_on_c, 15, 69, 0
27, 278459, Note_on_c, 15, 64, 0
27, 278459, Note_on_c, 15, 61, 0
27, 278460, Note_on_c, 15, 62, 90
27, 278460, Note_on_c, 15, 66, 90
27, 278460, Note_on_c, 15, 69, 90
27, 278699, Note_on_c, 15, 69, 0
27, 278699, Note_on_c, 15, 66, 0
27, 278699, Note_on_c, 15, 62, 0
27, 278700, Note_on_c, 15, 64, 90
27, 278700, Note_on_c, 15, 59, 90
27, 278700, Note_on_c, 15, 67, 90
27, 278939, Note_on_c, 15, 67, 0
27, 278939, Note_on_c, 15, 59, 0
27, 278939, Note_on_c, 15, 64, 0
27, 278940, Note_on_c, 15, 62, 90
27, 278940, Note_on_c, 15, 66, 90
27, 279419, Note_on_c, 15, 66, 0
27, 279419, Note_on_c, 15, 62, 0
27, 279420, Note_on_c, 15, 66, 90
27, 279420, Note_on_c, 15, 63, 90
27, 279420, Note_on_c, 15, 71, 90
27, 279659, Note_on_c, 15, 71, 0
27, 279659, Note_on_c, 15, 63, 0
27, 279659, Note_on_c, 15, 66, 0
27, 279660, Note_on_c, 15, 67, 90
27, 279660, Note_on_c, 15, 71, 90
27, 279779, Note_on_c, 15, 71, 0
27, 279779, Note_on_c, 15, 67, 0
27, 279780, Note_on_c, 15, 62, 90
27, 279780, Note_on_c, 15, 71, 90
27, 279899, Note_on_c, 15, 71, 0
27, 279899, Note_on_c, 15, 62, 0
27, 280020, Note_on_c, 15, 70, 90
27, 280020, Note_on_c, 15, 66, 90
27, 280020, Note_on_c, 15, 73, 90
27, 280080, Note_on_c, 15, 66, 0
27, 280080, Note_on_c, 15, 64, 90
27, 280139, Note_on_c, 15, 73, 0
27, 280139, Note_on_c, 15, 70, 0
27, 280140, Note_on_c, 15, 64, 0
27, 280140, Note_on_c, 15, 66, 90
27, 280140, Note_on_c, 15, 62, 90
27, 280199, Note_on_c, 15, 62, 0
27, 280199, Note_on_c, 15, 66, 0
27, 280200, Note_on_c, 15, 66, 90
27, 280229, Note_on_c, 15, 66, 0
27, 280230, Note_on_c, 15, 64, 90
27, 280259, Note_on_c, 15, 64, 0
27, 280260, Note_on_c, 15, 71, 90
27, 280260, Note_on_c, 15, 66, 90
27, 280319, Note_on_c, 15, 66, 0
27, 280319, Note_on_c, 15, 71, 0
27, 280320, Note_on_c, 15, 66, 90
27, 280320, Note_on_c, 15, 71, 90
27, 280379, Note_on_c, 15, 71, 0
27, 280379, Note_on_c, 15, 66, 0
27, 280380, Note_on_c, 15, 66, 90
27, 280380, Note_on_c, 15, 71, 90
27, 280439, Note_on_c, 15, 71, 0
27, 280439, Note_on_c, 15, 66, 0
27, 280440, Note_on_c, 15, 62, 90
27, 280499, Note_on_c, 15, 62, 0
27, 280500, Note_on_c, 15, 66, 90
27, 280500, Note_on_c, 15, 71, 90
27, 280559, Note_on_c, 15, 71, 0
27, 280559, Note_on_c, 15, 66, 0
27, 280560, Note_on_c, 15, 66, 90
27, 280560, Note_on_c, 15, 71, 90
27, 280619, Note_on_c, 15, 71, 0
27, 280619, Note_on_c, 15, 66, 0
27, 280620, Note_on_c, 15, 73, 90
27, 280620, Note_on_c, 15, 64, 90
27, 280679, Note_on_c, 15, 64, 0
27, 280679, Note_on_c, 15, 73, 0
27, 280680, Note_on_c, 15, 67, 90
27, 280710, Note_on_c, 15, 67, 0
27, 280710, Note_on_c, 15, 66, 90
27, 280740, Note_on_c, 15, 66, 0
27, 280740, Note_on_c, 15, 73, 90
27, 280740, Note_on_c, 15, 64, 90
27, 280799, Note_on_c, 15, 64, 0
27, 280799, Note_on_c, 15, 73, 0
27, 280800, Note_on_c, 15, 64, 90
27, 280800, Note_on_c, 15, 73, 90
27, 280859, Note_on_c, 15, 73, 0
27, 280859, Note_on_c, 15, 64, 0
27, 280860, Note_on_c, 15, 64, 90
27, 280860, Note_on_c, 15, 73, 90
27, 280919, Note_on_c, 15, 73, 0
27, 280919, Note_on_c, 15, 64, 0
27, 280920, Note_on_c, 15, 61, 90
27, 280979, Note_on_c, 15, 61, 0
27, 280980, Note_on_c, 15, 64, 90
27, 280980, Note_on_c, 15, 73, 90
27, 281039, Note_on_c, 15, 73, 0
27, 281039, Note_on_c, 15, 64, 0
27, 281040, Note_on_c, 15, 64, 90
27, 281040, Note_on_c, 15, 73, 90
27, 281099, Note_on_c, 15, 73, 0
27, 281099, Note_on_c, 15, 64, 0
27, 281100, Note_on_c, 15, 66, 90
27, 281100, Note_on_c, 15, 74, 90
27, 281159, Note_on_c, 15, 74, 0
27, 281159, Note_on_c, 15, 66, 0
27, 281160, Note_on_c, 15, 69, 90
27, 281189, Note_on_c, 15, 69, 0
27, 281190, Note_on_c, 15, 67, 90
27, 281219, Note_on_c, 15, 67, 0
27, 281220, Note_on_c, 15, 74, 90
27, 281220, Note_on_c, 15, 66, 90
27, 281279, Note_on_c, 15, 66, 0
27, 281279, Note_on_c, 15, 74, 0
27, 281280, Note_on_c, 15, 66, 90
27, 281280, Note_on_c, 15, 74, 90
27, 281339, Note_on_c, 15, 74, 0
27, 281339, Note_on_c, 15, 66, 0
27, 281340, Note_on_c, 15, 66, 90
27, 281340, Note_on_c, 15, 74, 90
27, 281399, Note_on_c, 15, 74, 0
27, 281399, Note_on_c, 15, 66, 0
27, 281400, Note_on_c, 15, 62, 90
27, 281459, Note_on_c, 15, 62, 0
27, 281460, Note_on_c, 15, 66, 90
27, 281460, Note_on_c, 15, 74, 90
27, 281519, Note_on_c, 15, 74, 0
27, 281519, Note_on_c, 15, 66, 0
27, 281520, Note_on_c, 15, 66, 90
27, 281520, Note_on_c, 15, 74, 90
27, 281579, Note_on_c, 15, 74, 0
27, 281579, Note_on_c, 15, 66, 0
27, 281580, Note_on_c, 15, 67, 90
27, 281580, Note_on_c, 15, 71, 90
27, 281639, Note_on_c, 15, 71, 0
27, 281639, Note_on_c, 15, 67, 0
27, 281640, Note_on_c, 15, 71, 90
27, 281669, Note_on_c, 15, 71, 0
27, 281670, Note_on_c, 15, 69, 90
27, 281699, Note_on_c, 15, 69, 0
27, 281700, Note_on_c, 15, 67, 90
27, 281700, Note_on_c, 15, 71, 90
27, 281759, Note_on_c, 15, 71, 0
27, 281759, Note_on_c, 15, 67, 0
27, 281760, Note_on_c, 15, 67, 90
27, 281760, Note_on_c, 15, 71, 90
27, 281819, Note_on_c, 15, 71, 0
27, 281819, Note_on_c, 15, 67, 0
27, 281820, Note_on_c, 15, 72, 90
27, 281820, Note_on_c, 15, 67, 90
27, 281879, Note_on_c, 15, 67, 0
27, 281879, Note_on_c, 15, 72, 0
27, 281880, Note_on_c, 15, 64, 90
27, 281939, Note_on_c, 15, 64, 0
27, 281940, Note_on_c, 15, 67, 90
27, 281940, Note_on_c, 15, 72, 90
27, 281999, Note_on_c, 15, 72, 0
27, 281999, Note_on_c, 15, 67, 0
27, 282000, Note_on_c, 15, 66, 90
27, 282000, Note_on_c, 15, 72, 90
27, 282059, Note_on_c, 15, 72, 0
27, 282059, Note_on_c, 15, 66, 0
27, 282060, Note_on_c, 15, 74, 90
27, 282060, Note_on_c, 15, 66, 90
27, 282119, Note_on_c, 15, 66, 0
27, 282119, Note_on_c, 15, 74, 0
27, 282120, Note_on_c, 15, 66, 90
27, 282149, Note_on_c, 15, 66, 0
27, 282150, Note_on_c, 15, 64, 90
27, 282179, Note_on_c, 15, 64, 0
27, 282180, Note_on_c, 15, 74, 90
27, 282180, Note_on_c, 15, 66, 90
27, 282239, Note_on_c, 15, 66, 0
27, 282239, Note_on_c, 15, 74, 0
27, 282240, Note_on_c, 15, 66, 90
27, 282240, Note_on_c, 15, 74, 90
27, 282299, Note_on_c, 15, 74, 0
27, 282299, Note_on_c, 15, 66, 0
27, 282300, Note_on_c, 15, 66, 90
27, 282300, Note_on_c, 15, 74, 90
27, 282359, Note_on_c, 15, 74, 0
27, 282359, Note_on_c, 15, 66, 0
27, 282360, Note_on_c, 15, 69, 90
27, 282360, Note_on_c, 15, 72, 90
27, 282419, Note_on_c, 15, 72, 0
27, 282419, Note_on_c, 15, 69, 0
27, 282420, Note_on_c, 15, 69, 90
27, 282420, Note_on_c, 15, 72, 90
27, 282479, Note_on_c, 15, 72, 0
27, 282479, Note_on_c, 15, 69, 0
27, 282480, Note_on_c, 15, 69, 90
27, 282480, Note_on_c, 15, 72, 90
27, 282539, Note_on_c, 15, 72, 0
27, 282539, Note_on_c, 15, 69, 0
27, 282540, Note_on_c, 15, 71, 90
27, 282540, Note_on_c, 15, 67, 90
27, 282599, Note_on_c, 15, 67, 0
27, 282599, Note_on_c, 15, 71, 0
27, 282600, Note_on_c, 15, 67, 90
27, 282629, Note_on_c, 15, 67, 0
27, 282630, Note_on_c, 15, 66, 90
27, 282659, Note_on_c, 15, 66, 0
27, 282660, Note_on_c, 15, 71, 90
27, 282660, Note_on_c, 15, 67, 90
27, 282719, Note_on_c, 15, 67, 0
27, 282719, Note_on_c, 15, 71, 0
27, 282720, Note_on_c, 15, 67, 90
27, 282720, Note_on_c, 15, 71, 90
27, 282779, Note_on_c, 15, 71, 0
27, 282779, Note_on_c, 15, 67, 0
27, 282780, Note_on_c, 15, 67, 90
27, 282780, Note_on_c, 15, 71, 90
27, 282839, Note_on_c, 15, 71, 0
27, 282839, Note_on_c, 15, 67, 0
27, 282840, Note_on_c, 15, 62, 90
27, 282899, Note_on_c, 15, 62, 0
27, 282900, Note_on_c, 15, 67, 90
27, 282900, Note_on_c, 15, 71, 90
27, 282959, Note_on_c, 15, 71, 0
27, 282959, Note_on_c, 15, 67, 0
27, 282960, Note_on_c, 15, 67, 90
27, 282960, Note_on_c, 15, 71, 90
27, 283019, Note_on_c, 15, 71, 0
27, 283019, Note_on_c, 15, 67, 0
27, 283020, Note_on_c, 15, 72, 90
27, 283020, Note_on_c, 15, 69, 90
27, 283079, Note_on_c, 15, 69, 0
27, 283079, Note_on_c, 15, 72, 0
27, 283080, Note_on_c, 15, 69, 90
27, 283109, Note_on_c, 15, 69, 0
27, 283110, Note_on_c, 15, 67, 90
27, 283139, Note_on_c, 15, 67, 0
27, 283140, Note_on_c, 15, 69, 90
27, 283140, Note_on_c, 15, 72, 90
27, 283199, Note_on_c, 15, 72, 0
27, 283199, Note_on_c, 15, 69, 0
27, 283200, Note_on_c, 15, 69, 90
27, 283200, Note_on_c, 15, 72, 90
27, 283259, Note_on_c, 15, 72, 0
27, 283259, Note_on_c, 15, 69, 0
27, 283260, Note_on_c, 15, 69, 90
27, 283260, Note_on_c, 15, 72, 90
27, 283319, Note_on_c, 15, 72, 0
27, 283319, Note_on_c, 15, 69, 0
27, 283320, Note_on_c, 15, 66, 90
27, 283379, Note_on_c, 15, 66, 0
27, 283380, Note_on_c, 15, 66, 90
27, 283380, Note_on_c, 15, 69, 90
27, 283439, Note_on_c, 15, 69, 0
27, 283439, Note_on_c, 15, 66, 0
27, 283440, Note_on_c, 15, 66, 90
27, 283440, Note_on_c, 15, 69, 90
27, 283499, Note_on_c, 15, 69, 0
27, 283499, Note_on_c, 15, 66, 0
27, 283500, Note_on_c, 15, 71, 90
27, 283500, Note_on_c, 15, 67, 90
27, 283559, Note_on_c, 15, 67, 0
27, 283559, Note_on_c, 15, 71, 0
27, 283560, Note_on_c, 15, 72, 90
27, 283589, Note_on_c, 15, 72, 0
27, 283590, Note_on_c, 15, 71, 90
27, 283619, Note_on_c, 15, 71, 0
27, 283620, Note_on_c, 15, 69, 90
27, 283679, Note_on_c, 15, 69, 0
27, 283680, Note_on_c, 15, 72, 90
27, 283739, Note_on_c, 15, 72, 0
27, 283740, Note_on_c, 15, 71, 90
27, 283740, Note_on_c, 15, 74, 90
27, 283799, Note_on_c, 15, 74, 0
27, 283799, Note_on_c, 15, 71, 0
27, 283800, Note_on_c, 15, 67, 90
27, 283829, Note_on_c, 15, 67, 0
27, 283830, Note_on_c, 15, 66, 90
27, 283859, Note_on_c, 15, 66, 0
27, 283860, Note_on_c, 15, 71, 90
27, 283860, Note_on_c, 15, 67, 90
27, 283919, Note_on_c, 15, 67, 0
27, 283919, Note_on_c, 15, 71, 0
27, 283920, Note_on_c, 15, 71, 90
27, 283920, Note_on_c, 15, 74, 90
27, 283979, Note_on_c, 15, 74, 0
27, 283979, Note_on_c, 15, 71, 0
27, 283980, Note_on_c, 15, 71, 90
27, 283980, Note_on_c, 15, 74, 90
27, 284039, Note_on_c, 15, 74, 0
27, 284039, Note_on_c, 15, 71, 0
27, 284040, Note_on_c, 15, 71, 90
27, 284099, Note_on_c, 15, 71, 0
27, 284100, Note_on_c, 15, 71, 90
27, 284100, Note_on_c, 15, 74, 90
27, 284159, Note_on_c, 15, 74, 0
27, 284159, Note_on_c, 15, 71, 0
27, 284160, Note_on_c, 15, 71, 90
27, 284160, Note_on_c, 15, 74, 90
27, 284219, Note_on_c, 15, 74, 0
27, 284219, Note_on_c, 15, 71, 0
27, 284220, Note_on_c, 15, 72, 90
27, 284220, Note_on_c, 15, 76, 90
27, 284279, Note_on_c, 15, 76, 0
27, 284279, Note_on_c, 15, 72, 0
27, 284280, Note_on_c, 15, 69, 90
27, 284309, Note_on_c, 15, 69, 0
27, 284310, Note_on_c, 15, 67, 90
27, 284339, Note_on_c, 15, 67, 0
27, 284340, Note_on_c, 15, 72, 90
27, 284369, Note_on_c, 15, 72, 0
27, 284370, Note_on_c, 15, 71, 90
27, 284399, Note_on_c, 15, 71, 0
27, 284400, Note_on_c, 15, 69, 90
27, 284429, Note_on_c, 15, 69, 0
27, 284430, Note_on_c, 15, 67, 90
27, 284459, Note_on_c, 15, 67, 0
27, 284460, Note_on_c, 15, 69, 90
27, 284460, Note_on_c, 15, 60, 90
27, 284460, Note_on_c, 15, 64, 90
27, 284580, Note_on_c, 15, 64, 0
27, 284580, Note_on_c, 15, 60, 0
27, 284580, Note_on_c, 15, 69, 0
27, 284610, Note_on_c, 15, 72, 90
27, 284639, Note_on_c, 15, 72, 0
27, 284640, Note_on_c, 15, 71, 90
27, 284669, Note_on_c, 15, 71, 0
27, 284670, Note_on_c, 15, 69, 90
27, 284699, Note_on_c, 15, 69, 0
27, 284700, Note_on_c, 15, 66, 90
27, 284700, Note_on_c, 15, 69, 90
27, 284820, Note_on_c, 15, 69, 0
27, 284820, Note_on_c, 15, 66, 0
27, 284820, Note_on_c, 15, 74, 90
27, 284820, Note_on_c, 15, 66, 90
27, 284820, Note_on_c, 15, 69, 90
27, 284880, Note_on_c, 15, 74, 0
27, 284880, Note_on_c, 15, 72, 90
27, 284940, Note_on_c, 15, 72, 0
27, 284940, Note_on_c, 15, 69, 0
27, 284940, Note_on_c, 15, 66, 0
27, 284940, Note_on_c, 15, 62, 90
27, 284940, Note_on_c, 15, 67, 90
27, 284940, Note_on_c, 15, 71, 90
27, 285179, Note_on_c, 15, 71, 0
27, 285179, Note_on_c, 15, 67, 0
27, 285179, Note_on_c, 15, 62, 0
27, 285420, Note_on_c, 15, 62, 100
27, 285420, Note_on_c, 15, 67, 100
27, 285420, Note_on_c, 15, 71, 100
27, 285480, Note_on_c, 15, 71, 0
27, 285480, Note_on_c, 15, 67, 0
27, 285480, Note_on_c, 15, 62, 0
27, 285480, Note_on_c, 15, 71, 100
27, 285510, Note_on_c, 15, 71, 0
27, 285510, Note_on_c, 15, 69, 100
27, 285540, Note_on_c, 15, 69, 0
27, 285540, Note_on_c, 15, 71, 100
27, 285600, Note_on_c, 15, 71, 0
27, 285600, Note_on_c, 15, 74, 100
27, 285630, Note_on_c, 15, 74, 0
27, 285630, Note_on_c, 15, 72, 100
27, 285660, Note_on_c, 15, 72, 0
27, 285660, Note_on_c, 15, 71, 100
27, 285720, Note_on_c, 15, 71, 0
27, 285720, Note_on_c, 15, 72, 100
27, 285720, Note_on_c, 15, 67, 100
27, 285780, Note_on_c, 15, 67, 0
27, 285780, Note_on_c, 15, 72, 0
27, 285780, Note_on_c, 15, 67, 100
27, 285780, Note_on_c, 15, 71, 100
27, 285780, Note_on_c, 15, 74, 100
27, 285840, Note_on_c, 15, 74, 0
27, 285840, Note_on_c, 15, 71, 0
27, 285840, Note_on_c, 15, 67, 0
27, 285840, Note_on_c, 15, 74, 100
27, 285870, Note_on_c, 15, 74, 0
27, 285870, Note_on_c, 15, 72, 100
27, 285900, Note_on_c, 15, 72, 0
27, 285900, Note_on_c, 15, 74, 100
27, 285960, Note_on_c, 15, 74, 0
27, 285960, Note_on_c, 15, 71, 100
27, 286020, Note_on_c, 15, 71, 0
27, 286020, Note_on_c, 15, 67, 100
27, 286080, Note_on_c, 15, 67, 0
27, 286080, Note_on_c, 15, 71, 100
27, 286140, Note_on_c, 15, 71, 0
27, 286140, Note_on_c, 15, 67, 100
27, 286140, Note_on_c, 15, 60, 100
27, 286140, Note_on_c, 15, 72, 100
27, 286200, Note_on_c, 15, 72, 0
27, 286200, Note_on_c, 15, 60, 0
27, 286200, Note_on_c, 15, 67, 0
27, 286200, Note_on_c, 15, 67, 100
27, 286230, Note_on_c, 15, 67, 0
27, 286230, Note_on_c, 15, 66, 100
27, 286260, Note_on_c, 15, 66, 0
27, 286260, Note_on_c, 15, 64, 100
27, 286320, Note_on_c, 15, 64, 0
27, 286320, Note_on_c, 15, 55, 100
27, 286320, Note_on_c, 15, 60, 100
27, 286350, Note_on_c, 15, 60, 0
27, 286350, Note_on_c, 15, 64, 100
27, 286380, Note_on_c, 15, 64, 0
27, 286380, Note_on_c, 15, 55, 0
27, 286380, Note_on_c, 15, 55, 100
27, 286380, Note_on_c, 15, 62, 100
27, 286410, Note_on_c, 15, 62, 0
27, 286410, Note_on_c, 15, 60, 100
27, 286440, Note_on_c, 15, 60, 0
27, 286440, Note_on_c, 15, 55, 0
27, 286440, Note_on_c, 15, 55, 100
27, 286440, Note_on_c, 15, 59, 100
27, 286470, Note_on_c, 15, 59, 0
27, 286470, Note_on_c, 15, 57, 100
27, 286500, Note_on_c, 15, 57, 0
27, 286500, Note_on_c, 15, 55, 0
27, 286500, Note_on_c, 15, 67, 100
27, 286500, Note_on_c, 15, 59, 100
27, 286560, Note_on_c, 15, 59, 0
27, 286560, Note_on_c, 15, 67, 0
27, 286560, Note_on_c, 15, 67, 100
27, 286590, Note_on_c, 15, 67, 0
27, 286590, Note_on_c, 15, 66, 100
27, 286620, Note_on_c, 15, 66, 0
27, 286620, Note_on_c, 15, 64, 100
27, 286650, Note_on_c, 15, 64, 0
27, 286650, Note_on_c, 15, 62, 100
27, 286680, Note_on_c, 15, 62, 0
27, 286680, Note_on_c, 15, 60, 100
27, 286710, Note_on_c, 15, 60, 0
27, 286710, Note_on_c, 15, 59, 100
27, 286740, Note_on_c, 15, 59, 0
27, 286740, Note_on_c, 15, 60, 100
27, 286770, Note_on_c, 15, 60, 0
27, 286770, Note_on_c, 15, 62, 100
27, 286800, Note_on_c, 15, 62, 0
27, 286800, Note_on_c, 15, 60, 100
27, 286830, Note_on_c, 15, 60, 0
27, 286830, Note_on_c, 15, 62, 100
27, 286860, Note_on_c, 15, 62, 0
27, 286860, Note_on_c, 15, 64, 100
27, 286920, Note_on_c, 15, 64, 0
27, 286920, Note_on_c, 15, 69, 100
27, 286950, Note_on_c, 15, 69, 0
27, 286950, Note_on_c, 15, 67, 100
27, 286980, Note_on_c, 15, 67, 0
27, 286980, Note_on_c, 15, 69, 100
27, 286980, Note_on_c, 15, 66, 100
27, 287010, Note_on_c, 15, 69, 0
27, 287010, Note_on_c, 15, 71, 100
27, 287040, Note_on_c, 15, 71, 0
27, 287040, Note_on_c, 15, 66, 0
27, 287040, Note_on_c, 15, 72, 100
27, 287040, Note_on_c, 15, 66, 100
27, 287070, Note_on_c, 15, 72, 0
27, 287070, Note_on_c, 15, 71, 100
27, 287100, Note_on_c, 15, 71, 0
27, 287100, Note_on_c, 15, 66, 0
27, 287100, Note_on_c, 15, 69, 100
27, 287100, Note_on_c, 15, 66, 100
27, 287130, Note_on_c, 15, 69, 0
27, 287130, Note_on_c, 15, 67, 100
27, 287160, Note_on_c, 15, 67, 0
27, 287160, Note_on_c, 15, 66, 0
27, 287160, Note_on_c, 15, 66, 100
27, 287190, Note_on_c, 15, 66, 0
27, 287190, Note_on_c, 15, 64, 100
27, 287220, Note_on_c, 15, 64, 0
27, 287220, Note_on_c, 15, 69, 100
27, 287220, Note_on_c, 15, 62, 100
27, 287250, Note_on_c, 15, 69, 0
27, 287250, Note_on_c, 15, 66, 100
27, 287280, Note_on_c, 15, 66, 0
27, 287280, Note_on_c, 15, 62, 0
27, 287280, Note_on_c, 15, 62, 100
27, 287280, Note_on_c, 15, 67, 100
27, 287340, Note_on_c, 15, 67, 0
27, 287340, Note_on_c, 15, 62, 0
27, 287340, End_track
28, 0, Start_track
28, 0, MIDI_port, 0
28, 0, Title_t, "Continuo L"
28, 0, Program_c, 15, 6
28, 0, Note_on_c, 15, 50, 80
28, 60, Note_on_c, 15, 50, 0
28, 60, Note_on_c, 15, 38, 80
28, 120, Note_on_c, 15, 38, 0
28, 120, Note_on_c, 15, 38, 80
28, 180, Note_on_c, 15, 38, 0
28, 180, Note_on_c, 15, 38, 80
28, 240, Note_on_c, 15, 38, 0
28, 240, Note_on_c, 15, 38, 80
28, 300, Note_on_c, 15, 38, 0
28, 300, Note_on_c, 15, 38, 80
28, 360, Note_on_c, 15, 38, 0
28, 360, Note_on_c, 15, 50, 80
28, 420, Note_on_c, 15, 50, 0
28, 420, Note_on_c, 15, 38, 80
28, 480, Note_on_c, 15, 38, 0
28, 480, Note_on_c, 15, 38, 80
28, 540, Note_on_c, 15, 38, 0
28, 540, Note_on_c, 15, 38, 80
28, 600, Note_on_c, 15, 38, 0
28, 600, Note_on_c, 15, 38, 80
28, 660, Note_on_c, 15, 38, 0
28, 660, Note_on_c, 15, 38, 80
28, 720, Note_on_c, 15, 38, 0
28, 720, Note_on_c, 15, 50, 80
28, 780, Note_on_c, 15, 50, 0
28, 780, Note_on_c, 15, 38, 80
28, 840, Note_on_c, 15, 38, 0
28, 840, Note_on_c, 15, 38, 80
28, 900, Note_on_c, 15, 38, 0
28, 900, Note_on_c, 15, 38, 80
28, 960, Note_on_c, 15, 38, 0
28, 960, Note_on_c, 15, 38, 80
28, 1020, Note_on_c, 15, 38, 0
28, 1020, Note_on_c, 15, 38, 80
28, 1080, Note_on_c, 15, 38, 0
28, 1080, Note_on_c, 15, 50, 80
28, 1140, Note_on_c, 15, 50, 0
28, 1140, Note_on_c, 15, 38, 80
28, 1200, Note_on_c, 15, 38, 0
28, 1200, Note_on_c, 15, 38, 80
28, 1260, Note_on_c, 15, 38, 0
28, 1260, Note_on_c, 15, 38, 80
28, 1320, Note_on_c, 15, 38, 0
28, 1320, Note_on_c, 15, 38, 80
28, 1380, Note_on_c, 15, 38, 0
28, 1380, Note_on_c, 15, 38, 80
28, 1440, Note_on_c, 15, 38, 0
28, 1470, Note_on_c, 15, 50, 80
28, 1499, Note_on_c, 15, 50, 0
28, 1500, Note_on_c, 15, 52, 80
28, 1529, Note_on_c, 15, 52, 0
28, 1530, Note_on_c, 15, 54, 80
28, 1559, Note_on_c, 15, 54, 0
28, 1560, Note_on_c, 15, 55, 80
28, 1589, Note_on_c, 15, 55, 0
28, 1590, Note_on_c, 15, 57, 80
28, 1619, Note_on_c, 15, 57, 0
28, 1620, Note_on_c, 15, 59, 80
28, 1649, Note_on_c, 15, 59, 0
28, 1650, Note_on_c, 15, 61, 80
28, 1679, Note_on_c, 15, 61, 0
28, 1680, Note_on_c, 15, 62, 80
28, 1709, Note_on_c, 15, 62, 0
28, 1710, Note_on_c, 15, 61, 80
28, 1739, Note_on_c, 15, 61, 0
28, 1740, Note_on_c, 15, 62, 80
28, 1769, Note_on_c, 15, 62, 0
28, 1770, Note_on_c, 15, 61, 80
28, 1799, Note_on_c, 15, 61, 0
28, 1800, Note_on_c, 15, 59, 80
28, 1829, Note_on_c, 15, 59, 0
28, 1830, Note_on_c, 15, 47, 80
28, 1859, Note_on_c, 15, 47, 0
28, 1860, Note_on_c, 15, 49, 80
28, 1889, Note_on_c, 15, 49, 0
28, 1890, Note_on_c, 15, 50, 80
28, 1919, Note_on_c, 15, 50, 0
28, 1920, Note_on_c, 15, 52, 80
28, 1949, Note_on_c, 15, 52, 0
28, 1950, Note_on_c, 15, 54, 80
28, 1979, Note_on_c, 15, 54, 0
28, 1980, Note_on_c, 15, 55, 80
28, 2009, Note_on_c, 15, 55, 0
28, 2010, Note_on_c, 15, 57, 80
28, 2039, Note_on_c, 15, 57, 0
28, 2040, Note_on_c, 15, 59, 80
28, 2069, Note_on_c, 15, 59, 0
28, 2070, Note_on_c, 15, 57, 80
28, 2099, Note_on_c, 15, 57, 0
28, 2100, Note_on_c, 15, 59, 80
28, 2129, Note_on_c, 15, 59, 0
28, 2130, Note_on_c, 15, 57, 80
28, 2159, Note_on_c, 15, 57, 0
28, 2160, Note_on_c, 15, 56, 80
28, 2189, Note_on_c, 15, 56, 0
28, 2190, Note_on_c, 15, 54, 80
28, 2219, Note_on_c, 15, 54, 0
28, 2220, Note_on_c, 15, 56, 80
28, 2249, Note_on_c, 15, 56, 0
28, 2250, Note_on_c, 15, 54, 80
28, 2279, Note_on_c, 15, 54, 0
28, 2280, Note_on_c, 15, 52, 80
28, 2309, Note_on_c, 15, 52, 0
28, 2310, Note_on_c, 15, 50, 80
28, 2339, Note_on_c, 15, 50, 0
28, 2340, Note_on_c, 15, 52, 80
28, 2369, Note_on_c, 15, 52, 0
28, 2370, Note_on_c, 15, 50, 80
28, 2399, Note_on_c, 15, 50, 0
28, 2400, Note_on_c, 15, 49, 80
28, 2429, Note_on_c, 15, 49, 0
28, 2430, Note_on_c, 15, 47, 80
28, 2459, Note_on_c, 15, 47, 0
28, 2460, Note_on_c, 15, 49, 80
28, 2489, Note_on_c, 15, 49, 0
28, 2490, Note_on_c, 15, 47, 80
28, 2519, Note_on_c, 15, 47, 0
28, 2520, Note_on_c, 15, 45, 80
28, 2549, Note_on_c, 15, 45, 0
28, 2550, Note_on_c, 15, 40, 80
28, 2579, Note_on_c, 15, 40, 0
28, 2580, Note_on_c, 15, 42, 80
28, 2609, Note_on_c, 15, 42, 0
28, 2610, Note_on_c, 15, 44, 80
28, 2639, Note_on_c, 15, 44, 0
28, 2640, Note_on_c, 15, 45, 80
28, 2669, Note_on_c, 15, 45, 0
28, 2670, Note_on_c, 15, 47, 80
28, 2699, Note_on_c, 15, 47, 0
28, 2700, Note_on_c, 15, 49, 80
28, 2729, Note_on_c, 15, 49, 0
28, 2730, Note_on_c, 15, 50, 80
28, 2759, Note_on_c, 15, 50, 0
28, 2760, Note_on_c, 15, 52, 80
28, 2789, Note_on_c, 15, 52, 0
28, 2790, Note_on_c, 15, 50, 80
28, 2819, Note_on_c, 15, 50, 0
28, 2820, Note_on_c, 15, 52, 80
28, 2849, Note_on_c, 15, 52, 0
28, 2850, Note_on_c, 15, 40, 80
28, 2879, Note_on_c, 15, 40, 0
28, 2880, Note_on_c, 15, 45, 80
28, 2999, Note_on_c, 15, 45, 0
28, 3630, Note_on_c, 15, 59, 80
28, 3659, Note_on_c, 15, 59, 0
28, 3660, Note_on_c, 15, 57, 80
28, 3689, Note_on_c, 15, 57, 0
28, 3690, Note_on_c, 15, 55, 80
28, 3719, Note_on_c, 15, 55, 0
28, 3720, Note_on_c, 15, 54, 80
28, 3749, Note_on_c, 15, 54, 0
28, 3750, Note_on_c, 15, 52, 80
28, 3779, Note_on_c, 15, 52, 0
28, 3780, Note_on_c, 15, 51, 80
28, 3809, Note_on_c, 15, 51, 0
28, 3810, Note_on_c, 15, 49, 80
28, 3839, Note_on_c, 15, 49, 0
28, 3840, Note_on_c, 15, 47, 80
28, 3869, Note_on_c, 15, 47, 0
28, 3870, Note_on_c, 15, 45, 80
28, 3899, Note_on_c, 15, 45, 0
28, 3900, Note_on_c, 15, 43, 80
28, 3929, Note_on_c, 15, 43, 0
28, 3930, Note_on_c, 15, 42, 80
28, 3959, Note_on_c, 15, 42, 0
28, 3960, Note_on_c, 15, 40, 80
28, 4079, Note_on_c, 15, 40, 0
28, 4710, Note_on_c, 15, 57, 80
28, 4739, Note_on_c, 15, 57, 0
28, 4740, Note_on_c, 15, 55, 80
28, 4769, Note_on_c, 15, 55, 0
28, 4770, Note_on_c, 15, 54, 80
28, 4799, Note_on_c, 15, 54, 0
28, 4800, Note_on_c, 15, 52, 80
28, 4829, Note_on_c, 15, 52, 0
28, 4830, Note_on_c, 15, 50, 80
28, 4859, Note_on_c, 15, 50, 0
28, 4860, Note_on_c, 15, 49, 80
28, 4889, Note_on_c, 15, 49, 0
28, 4890, Note_on_c, 15, 47, 80
28, 4919, Note_on_c, 15, 47, 0
28, 4920, Note_on_c, 15, 45, 80
28, 4949, Note_on_c, 15, 45, 0
28, 4950, Note_on_c, 15, 43, 80
28, 4979, Note_on_c, 15, 43, 0
28, 4980, Note_on_c, 15, 42, 80
28, 5009, Note_on_c, 15, 42, 0
28, 5010, Note_on_c, 15, 40, 80
28, 5039, Note_on_c, 15, 40, 0
28, 5040, Note_on_c, 15, 38, 80
28, 5099, Note_on_c, 15, 38, 0
28, 5100, Note_on_c, 15, 50, 80
28, 5159, Note_on_c, 15, 50, 0
28, 5160, Note_on_c, 15, 50, 80
28, 5219, Note_on_c, 15, 50, 0
28, 5220, Note_on_c, 15, 50, 80
28, 5279, Note_on_c, 15, 50, 0
28, 5280, Note_on_c, 15, 50, 80
28, 5339, Note_on_c, 15, 50, 0
28, 5340, Note_on_c, 15, 52, 80
28, 5369, Note_on_c, 15, 52, 0
28, 5370, Note_on_c, 15, 54, 80
28, 5399, Note_on_c, 15, 54, 0
28, 5400, Note_on_c, 15, 55, 80
28, 5459, Note_on_c, 15, 55, 0
28, 5460, Note_on_c, 15, 49, 80
28, 5519, Note_on_c, 15, 49, 0
28, 5520, Note_on_c, 15, 49, 80
28, 5579, Note_on_c, 15, 49, 0
28, 5580, Note_on_c, 15, 49, 80
28, 5639, Note_on_c, 15, 49, 0
28, 5640, Note_on_c, 15, 49, 80
28, 5699, Note_on_c, 15, 49, 0
28, 5700, Note_on_c, 15, 50, 80
28, 5729, Note_on_c, 15, 50, 0
28, 5730, Note_on_c, 15, 52, 80
28, 5759, Note_on_c, 15, 52, 0
28, 5760, Note_on_c, 15, 54, 80
28, 5819, Note_on_c, 15, 54, 0
28, 5820, Note_on_c, 15, 47, 80
28, 5879, Note_on_c, 15, 47, 0
28, 5880, Note_on_c, 15, 47, 80
28, 5939, Note_on_c, 15, 47, 0
28, 5940, Note_on_c, 15, 47, 80
28, 5999, Note_on_c, 15, 47, 0
28, 6000, Note_on_c, 15, 47, 80
28, 6059, Note_on_c, 15, 47, 0
28, 6060, Note_on_c, 15, 49, 80
28, 6089, Note_on_c, 15, 49, 0
28, 6090, Note_on_c, 15, 50, 80
28, 6119, Note_on_c, 15, 50, 0
28, 6120, Note_on_c, 15, 52, 80
28, 6179, Note_on_c, 15, 52, 0
28, 6180, Note_on_c, 15, 45, 80
28, 6239, Note_on_c, 15, 45, 0
28, 6240, Note_on_c, 15, 45, 80
28, 6299, Note_on_c, 15, 45, 0
28, 6300, Note_on_c, 15, 45, 80
28, 6359, Note_on_c, 15, 45, 0
28, 6360, Note_on_c, 15, 45, 80
28, 6419, Note_on_c, 15, 45, 0
28, 6420, Note_on_c, 15, 47, 80
28, 6449, Note_on_c, 15, 47, 0
28, 6450, Note_on_c, 15, 49, 80
28, 6479, Note_on_c, 15, 49, 0
28, 6480, Note_on_c, 15, 50, 80
28, 6509, Note_on_c, 15, 50, 0
28, 6510, Note_on_c, 15, 57, 80
28, 6539, Note_on_c, 15, 57, 0
28, 6540, Note_on_c, 15, 59, 80
28, 6569, Note_on_c, 15, 59, 0
28, 6570, Note_on_c, 15, 61, 80
28, 6599, Note_on_c, 15, 61, 0
28, 6600, Note_on_c, 15, 62, 80
28, 6629, Note_on_c, 15, 62, 0
28, 6630, Note_on_c, 15, 64, 80
28, 6659, Note_on_c, 15, 64, 0
28, 6660, Note_on_c, 15, 66, 80
28, 6689, Note_on_c, 15, 66, 0
28, 6690, Note_on_c, 15, 64, 80
28, 6719, Note_on_c, 15, 64, 0
28, 6720, Note_on_c, 15, 62, 80
28, 6749, Note_on_c, 15, 62, 0
28, 6750, Note_on_c, 15, 61, 80
28, 6779, Note_on_c, 15, 61, 0
28, 6780, Note_on_c, 15, 59, 80
28, 6809, Note_on_c, 15, 59, 0
28, 6810, Note_on_c, 15, 57, 80
28, 6839, Note_on_c, 15, 57, 0
28, 6840, Note_on_c, 15, 59, 80
28, 6869, Note_on_c, 15, 59, 0
28, 6870, Note_on_c, 15, 60, 80
28, 6899, Note_on_c, 15, 60, 0
28, 6900, Note_on_c, 15, 62, 80
28, 6929, Note_on_c, 15, 62, 0
28, 6930, Note_on_c, 15, 60, 80
28, 6959, Note_on_c, 15, 60, 0
28, 6960, Note_on_c, 15, 59, 80
28, 6989, Note_on_c, 15, 59, 0
28, 6990, Note_on_c, 15, 57, 80
28, 7019, Note_on_c, 15, 57, 0
28, 7020, Note_on_c, 15, 56, 80
28, 7049, Note_on_c, 15, 56, 0
28, 7050, Note_on_c, 15, 54, 80
28, 7079, Note_on_c, 15, 54, 0
28, 7080, Note_on_c, 15, 56, 80
28, 7109, Note_on_c, 15, 56, 0
28, 7110, Note_on_c, 15, 57, 80
28, 7139, Note_on_c, 15, 57, 0
28, 7140, Note_on_c, 15, 59, 80
28, 7169, Note_on_c, 15, 59, 0
28, 7170, Note_on_c, 15, 57, 80
28, 7199, Note_on_c, 15, 57, 0
28, 7200, Note_on_c, 15, 56, 80
28, 7229, Note_on_c, 15, 56, 0
28, 7230, Note_on_c, 15, 54, 80
28, 7259, Note_on_c, 15, 54, 0
28, 7260, Note_on_c, 15, 52, 80
28, 7289, Note_on_c, 15, 52, 0
28, 7290, Note_on_c, 15, 50, 80
28, 7319, Note_on_c, 15, 50, 0
28, 7320, Note_on_c, 15, 52, 80
28, 7349, Note_on_c, 15, 52, 0
28, 7350, Note_on_c, 15, 54, 80
28, 7379, Note_on_c, 15, 54, 0
28, 7380, Note_on_c, 15, 56, 80
28, 7409, Note_on_c, 15, 56, 0
28, 7410, Note_on_c, 15, 54, 80
28, 7439, Note_on_c, 15, 54, 0
28, 7440, Note_on_c, 15, 52, 80
28, 7469, Note_on_c, 15, 52, 0
28, 7470, Note_on_c, 15, 50, 80
28, 7499, Note_on_c, 15, 50, 0
28, 7500, Note_on_c, 15, 49, 80
28, 7529, Note_on_c, 15, 49, 0
28, 7530, Note_on_c, 15, 47, 80
28, 7559, Note_on_c, 15, 47, 0
28, 7560, Note_on_c, 15, 45, 80
28, 7589, Note_on_c, 15, 45, 0
28, 7590, Note_on_c, 15, 45, 80
28, 7619, Note_on_c, 15, 45, 0
28, 7620, Note_on_c, 15, 47, 80
28, 7649, Note_on_c, 15, 47, 0
28, 7650, Note_on_c, 15, 49, 80
28, 7679, Note_on_c, 15, 49, 0
28, 7680, Note_on_c, 15, 50, 80
28, 7709, Note_on_c, 15, 50, 0
28, 7710, Note_on_c, 15, 52, 80
28, 7739, Note_on_c, 15, 52, 0
28, 7740, Note_on_c, 15, 54, 80
28, 7769, Note_on_c, 15, 54, 0
28, 7770, Note_on_c, 15, 55, 80
28, 7799, Note_on_c, 15, 55, 0
28, 7800, Note_on_c, 15, 57, 80
28, 7829, Note_on_c, 15, 57, 0
28, 7830, Note_on_c, 15, 55, 80
28, 7859, Note_on_c, 15, 55, 0
28, 7860, Note_on_c, 15, 57, 80
28, 7889, Note_on_c, 15, 57, 0
28, 7890, Note_on_c, 15, 55, 80
28, 7919, Note_on_c, 15, 55, 0
28, 7920, Note_on_c, 15, 57, 80
28, 7949, Note_on_c, 15, 57, 0
28, 7950, Note_on_c, 15, 45, 80
28, 7979, Note_on_c, 15, 45, 0
28, 7980, Note_on_c, 15, 47, 80
28, 8009, Note_on_c, 15, 47, 0
28, 8010, Note_on_c, 15, 49, 80
28, 8039, Note_on_c, 15, 49, 0
28, 8040, Note_on_c, 15, 50, 80
28, 8069, Note_on_c, 15, 50, 0
28, 8070, Note_on_c, 15, 52, 80
28, 8099, Note_on_c, 15, 52, 0
28, 8100, Note_on_c, 15, 54, 80
28, 8129, Note_on_c, 15, 54, 0
28, 8130, Note_on_c, 15, 55, 80
28, 8159, Note_on_c, 15, 55, 0
28, 8160, Note_on_c, 15, 57, 80
28, 8189, Note_on_c, 15, 57, 0
28, 8190, Note_on_c, 15, 55, 80
28, 8219, Note_on_c, 15, 55, 0
28, 8220, Note_on_c, 15, 57, 80
28, 8249, Note_on_c, 15, 57, 0
28, 8250, Note_on_c, 15, 55, 80
28, 8279, Note_on_c, 15, 55, 0
28, 8280, Note_on_c, 15, 57, 80
28, 8309, Note_on_c, 15, 57, 0
28, 8310, Note_on_c, 15, 45, 80
28, 8339, Note_on_c, 15, 45, 0
28, 8340, Note_on_c, 15, 47, 80
28, 8369, Note_on_c, 15, 47, 0
28, 8370, Note_on_c, 15, 49, 80
28, 8399, Note_on_c, 15, 49, 0
28, 8400, Note_on_c, 15, 50, 80
28, 8429, Note_on_c, 15, 50, 0
28, 8430, Note_on_c, 15, 52, 80
28, 8459, Note_on_c, 15, 52, 0
28, 8460, Note_on_c, 15, 54, 80
28, 8489, Note_on_c, 15, 54, 0
28, 8490, Note_on_c, 15, 55, 80
28, 8519, Note_on_c, 15, 55, 0
28, 8520, Note_on_c, 15, 57, 80
28, 8549, Note_on_c, 15, 57, 0
28, 8550, Note_on_c, 15, 55, 80
28, 8579, Note_on_c, 15, 55, 0
28, 8580, Note_on_c, 15, 57, 80
28, 8609, Note_on_c, 15, 57, 0
28, 8610, Note_on_c, 15, 55, 80
28, 8639, Note_on_c, 15, 55, 0
28, 8640, Note_on_c, 15, 54, 80
28, 8669, Note_on_c, 15, 54, 0
28, 8670, Note_on_c, 15, 50, 80
28, 8699, Note_on_c, 15, 50, 0
28, 8700, Note_on_c, 15, 52, 80
28, 8729, Note_on_c, 15, 52, 0
28, 8730, Note_on_c, 15, 54, 80
28, 8759, Note_on_c, 15, 54, 0
28, 8760, Note_on_c, 15, 55, 80
28, 8789, Note_on_c, 15, 55, 0
28, 8790, Note_on_c, 15, 57, 80
28, 8819, Note_on_c, 15, 57, 0
28, 8820, Note_on_c, 15, 59, 80
28, 8849, Note_on_c, 15, 59, 0
28, 8850, Note_on_c, 15, 61, 80
28, 8879, Note_on_c, 15, 61, 0
28, 8880, Note_on_c, 15, 62, 80
28, 8909, Note_on_c, 15, 62, 0
28, 8910, Note_on_c, 15, 61, 80
28, 8939, Note_on_c, 15, 61, 0
28, 8940, Note_on_c, 15, 62, 80
28, 8969, Note_on_c, 15, 62, 0
28, 8970, Note_on_c, 15, 61, 80
28, 8999, Note_on_c, 15, 61, 0
28, 9000, Note_on_c, 15, 59, 80
28, 9029, Note_on_c, 15, 59, 0
28, 9030, Note_on_c, 15, 47, 80
28, 9059, Note_on_c, 15, 47, 0
28, 9060, Note_on_c, 15, 49, 80
28, 9089, Note_on_c, 15, 49, 0
28, 9090, Note_on_c, 15, 50, 80
28, 9119, Note_on_c, 15, 50, 0
28, 9120, Note_on_c, 15, 52, 80
28, 9149, Note_on_c, 15, 52, 0
28, 9150, Note_on_c, 15, 54, 80
28, 9179, Note_on_c, 15, 54, 0
28, 9180, Note_on_c, 15, 55, 80
28, 9209, Note_on_c, 15, 55, 0
28, 9210, Note_on_c, 15, 57, 80
28, 9239, Note_on_c, 15, 57, 0
28, 9240, Note_on_c, 15, 59, 80
28, 9269, Note_on_c, 15, 59, 0
28, 9270, Note_on_c, 15, 57, 80
28, 9299, Note_on_c, 15, 57, 0
28, 9300, Note_on_c, 15, 59, 80
28, 9329, Note_on_c, 15, 59, 0
28, 9330, Note_on_c, 15, 57, 80
28, 9359, Note_on_c, 15, 57, 0
28, 9360, Note_on_c, 15, 55, 80
28, 9389, Note_on_c, 15, 55, 0
28, 9390, Note_on_c, 15, 54, 80
28, 9419, Note_on_c, 15, 54, 0
28, 9420, Note_on_c, 15, 55, 80
28, 9449, Note_on_c, 15, 55, 0
28, 9450, Note_on_c, 15, 54, 80
28, 9479, Note_on_c, 15, 54, 0
28, 9480, Note_on_c, 15, 52, 80
28, 9509, Note_on_c, 15, 52, 0
28, 9510, Note_on_c, 15, 50, 80
28, 9539, Note_on_c, 15, 50, 0
28, 9540, Note_on_c, 15, 52, 80
28, 9569, Note_on_c, 15, 52, 0
28, 9570, Note_on_c, 15, 50, 80
28, 9599, Note_on_c, 15, 50, 0
28, 9600, Note_on_c, 15, 49, 80
28, 9629, Note_on_c, 15, 49, 0
28, 9630, Note_on_c, 15, 47, 80
28, 9659, Note_on_c, 15, 47, 0
28, 9660, Note_on_c, 15, 49, 80
28, 9689, Note_on_c, 15, 49, 0
28, 9690, Note_on_c, 15, 47, 80
28, 9719, Note_on_c, 15, 47, 0
28, 9720, Note_on_c, 15, 49, 80
28, 9749, Note_on_c, 15, 49, 0
28, 9750, Note_on_c, 15, 45, 80
28, 9779, Note_on_c, 15, 45, 0
28, 9780, Note_on_c, 15, 47, 80
28, 9809, Note_on_c, 15, 47, 0
28, 9810, Note_on_c, 15, 49, 80
28, 9839, Note_on_c, 15, 49, 0
28, 9840, Note_on_c, 15, 50, 80
28, 9869, Note_on_c, 15, 50, 0
28, 9870, Note_on_c, 15, 52, 80
28, 9899, Note_on_c, 15, 52, 0
28, 9900, Note_on_c, 15, 54, 80
28, 9929, Note_on_c, 15, 54, 0
28, 9930, Note_on_c, 15, 55, 80
28, 9959, Note_on_c, 15, 55, 0
28, 9960, Note_on_c, 15, 57, 80
28, 10019, Note_on_c, 15, 57, 0
28, 10020, Note_on_c, 15, 45, 80
28, 10079, Note_on_c, 15, 45, 0
28, 10080, Note_on_c, 15, 50, 80
28, 10109, Note_on_c, 15, 50, 0
28, 10110, Note_on_c, 15, 62, 80
28, 10139, Note_on_c, 15, 62, 0
28, 10140, Note_on_c, 15, 61, 80
28, 10169, Note_on_c, 15, 61, 0
28, 10170, Note_on_c, 15, 59, 80
28, 10199, Note_on_c, 15, 59, 0
28, 10200, Note_on_c, 15, 57, 80
28, 10229, Note_on_c, 15, 57, 0
28, 10230, Note_on_c, 15, 55, 80
28, 10259, Note_on_c, 15, 55, 0
28, 10260, Note_on_c, 15, 54, 80
28, 10289, Note_on_c, 15, 54, 0
28, 10290, Note_on_c, 15, 52, 80
28, 10319, Note_on_c, 15, 52, 0
28, 10320, Note_on_c, 15, 50, 80
28, 10379, Note_on_c, 15, 50, 0
28, 10470, Note_on_c, 15, 59, 80
28, 10499, Note_on_c, 15, 59, 0
28, 10500, Note_on_c, 15, 57, 80
28, 10529, Note_on_c, 15, 57, 0
28, 10530, Note_on_c, 15, 55, 80
28, 10559, Note_on_c, 15, 55, 0
28, 10560, Note_on_c, 15, 54, 80
28, 10589, Note_on_c, 15, 54, 0
28, 10590, Note_on_c, 15, 52, 80
28, 10619, Note_on_c, 15, 52, 0
28, 10620, Note_on_c, 15, 50, 80
28, 10649, Note_on_c, 15, 50, 0
28, 10650, Note_on_c, 15, 49, 80
28, 10679, Note_on_c, 15, 49, 0
28, 10680, Note_on_c, 15, 47, 80
28, 10739, Note_on_c, 15, 47, 0
28, 10830, Note_on_c, 15, 54, 80
28, 10859, Note_on_c, 15, 54, 0
28, 10860, Note_on_c, 15, 52, 80
28, 10889, Note_on_c, 15, 52, 0
28, 10890, Note_on_c, 15, 50, 80
28, 10919, Note_on_c, 15, 50, 0
28, 10920, Note_on_c, 15, 49, 80
28, 10949, Note_on_c, 15, 49, 0
28, 10950, Note_on_c, 15, 47, 80
28, 10979, Note_on_c, 15, 47, 0
28, 10980, Note_on_c, 15, 45, 80
28, 11009, Note_on_c, 15, 45, 0
28, 11010, Note_on_c, 15, 43, 80
28, 11039, Note_on_c, 15, 43, 0
28, 11040, Note_on_c, 15, 42, 80
28, 11099, Note_on_c, 15, 42, 0
28, 11190, Note_on_c, 15, 38, 80
28, 11219, Note_on_c, 15, 38, 0
28, 11220, Note_on_c, 15, 40, 80
28, 11249, Note_on_c, 15, 40, 0
28, 11250, Note_on_c, 15, 42, 80
28, 11279, Note_on_c, 15, 42, 0
28, 11280, Note_on_c, 15, 43, 80
28, 11309, Note_on_c, 15, 43, 0
28, 11310, Note_on_c, 15, 45, 80
28, 11339, Note_on_c, 15, 45, 0
28, 11340, Note_on_c, 15, 47, 80
28, 11369, Note_on_c, 15, 47, 0
28, 11370, Note_on_c, 15, 49, 80
28, 11399, Note_on_c, 15, 49, 0
28, 11400, Note_on_c, 15, 50, 80
28, 11429, Note_on_c, 15, 50, 0
28, 11430, Note_on_c, 15, 49, 80
28, 11459, Note_on_c, 15, 49, 0
28, 11460, Note_on_c, 15, 50, 80
28, 11489, Note_on_c, 15, 50, 0
28, 11490, Note_on_c, 15, 49, 80
28, 11519, Note_on_c, 15, 49, 0
28, 11520, Note_on_c, 15, 50, 80
28, 11549, Note_on_c, 15, 50, 0
28, 11550, Note_on_c, 15, 45, 80
28, 11579, Note_on_c, 15, 45, 0
28, 11580, Note_on_c, 15, 47, 80
28, 11609, Note_on_c, 15, 47, 0
28, 11610, Note_on_c, 15, 49, 80
28, 11639, Note_on_c, 15, 49, 0
28, 11640, Note_on_c, 15, 50, 80
28, 11669, Note_on_c, 15, 50, 0
28, 11670, Note_on_c, 15, 52, 80
28, 11699, Note_on_c, 15, 52, 0
28, 11700, Note_on_c, 15, 54, 80
28, 11729, Note_on_c, 15, 54, 0
28, 11730, Note_on_c, 15, 55, 80
28, 11759, Note_on_c, 15, 55, 0
28, 11760, Note_on_c, 15, 57, 80
28, 11789, Note_on_c, 15, 57, 0
28, 11790, Note_on_c, 15, 56, 80
28, 11819, Note_on_c, 15, 56, 0
28, 11820, Note_on_c, 15, 57, 80
28, 11849, Note_on_c, 15, 57, 0
28, 11850, Note_on_c, 15, 56, 80
28, 11879, Note_on_c, 15, 56, 0
28, 11880, Note_on_c, 15, 57, 80
28, 11909, Note_on_c, 15, 57, 0
28, 11910, Note_on_c, 15, 45, 80
28, 11939, Note_on_c, 15, 45, 0
28, 11940, Note_on_c, 15, 47, 80
28, 11969, Note_on_c, 15, 47, 0
28, 11970, Note_on_c, 15, 49, 80
28, 11999, Note_on_c, 15, 49, 0
28, 12000, Note_on_c, 15, 50, 80
28, 12029, Note_on_c, 15, 50, 0
28, 12030, Note_on_c, 15, 52, 80
28, 12059, Note_on_c, 15, 52, 0
28, 12060, Note_on_c, 15, 54, 80
28, 12089, Note_on_c, 15, 54, 0
28, 12090, Note_on_c, 15, 55, 80
28, 12119, Note_on_c, 15, 55, 0
28, 12120, Note_on_c, 15, 57, 80
28, 12149, Note_on_c, 15, 57, 0
28, 12150, Note_on_c, 15, 56, 80
28, 12179, Note_on_c, 15, 56, 0
28, 12180, Note_on_c, 15, 57, 80
28, 12209, Note_on_c, 15, 57, 0
28, 12210, Note_on_c, 15, 56, 80
28, 12239, Note_on_c, 15, 56, 0
28, 12240, Note_on_c, 15, 57, 80
28, 12269, Note_on_c, 15, 57, 0
28, 12270, Note_on_c, 15, 45, 80
28, 12299, Note_on_c, 15, 45, 0
28, 12300, Note_on_c, 15, 47, 80
28, 12329, Note_on_c, 15, 47, 0
28, 12330, Note_on_c, 15, 49, 80
28, 12359, Note_on_c, 15, 49, 0
28, 12360, Note_on_c, 15, 50, 80
28, 12389, Note_on_c, 15, 50, 0
28, 12390, Note_on_c, 15, 52, 80
28, 12419, Note_on_c, 15, 52, 0
28, 12420, Note_on_c, 15, 54, 80
28, 12449, Note_on_c, 15, 54, 0
28, 12450, Note_on_c, 15, 55, 80
28, 12479, Note_on_c, 15, 55, 0
28, 12480, Note_on_c, 15, 57, 80
28, 12509, Note_on_c, 15, 57, 0
28, 12510, Note_on_c, 15, 56, 80
28, 12539, Note_on_c, 15, 56, 0
28, 12540, Note_on_c, 15, 57, 80
28, 12569, Note_on_c, 15, 57, 0
28, 12570, Note_on_c, 15, 56, 80
28, 12599, Note_on_c, 15, 56, 0
28, 12600, Note_on_c, 15, 57, 80
28, 12629, Note_on_c, 15, 57, 0
28, 12630, Note_on_c, 15, 45, 80
28, 12659, Note_on_c, 15, 45, 0
28, 12660, Note_on_c, 15, 47, 80
28, 12689, Note_on_c, 15, 47, 0
28, 12690, Note_on_c, 15, 49, 80
28, 12719, Note_on_c, 15, 49, 0
28, 12720, Note_on_c, 15, 50, 80
28, 12749, Note_on_c, 15, 50, 0
28, 12750, Note_on_c, 15, 52, 80
28, 12779, Note_on_c, 15, 52, 0
28, 12780, Note_on_c, 15, 54, 80
28, 12809, Note_on_c, 15, 54, 0
28, 12810, Note_on_c, 15, 55, 80
28, 12839, Note_on_c, 15, 55, 0
28, 12840, Note_on_c, 15, 57, 80
28, 12869, Note_on_c, 15, 57, 0
28, 12870, Note_on_c, 15, 56, 80
28, 12899, Note_on_c, 15, 56, 0
28, 12900, Note_on_c, 15, 57, 80
28, 12929, Note_on_c, 15, 57, 0
28, 12930, Note_on_c, 15, 55, 80
28, 12959, Note_on_c, 15, 55, 0
28, 12960, Note_on_c, 15, 54, 80
28, 12989, Note_on_c, 15, 54, 0
28, 12990, Note_on_c, 15, 50, 80
28, 13019, Note_on_c, 15, 50, 0
28, 13020, Note_on_c, 15, 52, 80
28, 13049, Note_on_c, 15, 52, 0
28, 13050, Note_on_c, 15, 54, 80
28, 13079, Note_on_c, 15, 54, 0
28, 13080, Note_on_c, 15, 55, 80
28, 13109, Note_on_c, 15, 55, 0
28, 13110, Note_on_c, 15, 57, 80
28, 13139, Note_on_c, 15, 57, 0
28, 13140, Note_on_c, 15, 59, 80
28, 13169, Note_on_c, 15, 59, 0
28, 13170, Note_on_c, 15, 61, 80
28, 13199, Note_on_c, 15, 61, 0
28, 13200, Note_on_c, 15, 62, 80
28, 13229, Note_on_c, 15, 62, 0
28, 13230, Note_on_c, 15, 61, 80
28, 13259, Note_on_c, 15, 61, 0
28, 13260, Note_on_c, 15, 62, 80
28, 13289, Note_on_c, 15, 62, 0
28, 13290, Note_on_c, 15, 61, 80
28, 13319, Note_on_c, 15, 61, 0
28, 13320, Note_on_c, 15, 59, 80
28, 13349, Note_on_c, 15, 59, 0
28, 13350, Note_on_c, 15, 47, 80
28, 13379, Note_on_c, 15, 47, 0
28, 13380, Note_on_c, 15, 49, 80
28, 13409, Note_on_c, 15, 49, 0
28, 13410, Note_on_c, 15, 50, 80
28, 13439, Note_on_c, 15, 50, 0
28, 13440, Note_on_c, 15, 52, 80
28, 13469, Note_on_c, 15, 52, 0
28, 13470, Note_on_c, 15, 54, 80
28, 13499, Note_on_c, 15, 54, 0
28, 13500, Note_on_c, 15, 55, 80
28, 13529, Note_on_c, 15, 55, 0
28, 13530, Note_on_c, 15, 57, 80
28, 13559, Note_on_c, 15, 57, 0
28, 13560, Note_on_c, 15, 59, 80
28, 13589, Note_on_c, 15, 59, 0
28, 13590, Note_on_c, 15, 57, 80
28, 13619, Note_on_c, 15, 57, 0
28, 13620, Note_on_c, 15, 59, 80
28, 13649, Note_on_c, 15, 59, 0
28, 13650, Note_on_c, 15, 57, 80
28, 13679, Note_on_c, 15, 57, 0
28, 13680, Note_on_c, 15, 55, 80
28, 13709, Note_on_c, 15, 55, 0
28, 13710, Note_on_c, 15, 54, 80
28, 13739, Note_on_c, 15, 54, 0
28, 13740, Note_on_c, 15, 55, 80
28, 13769, Note_on_c, 15, 55, 0
28, 13770, Note_on_c, 15, 54, 80
28, 13799, Note_on_c, 15, 54, 0
28, 13800, Note_on_c, 15, 52, 80
28, 13829, Note_on_c, 15, 52, 0
28, 13830, Note_on_c, 15, 50, 80
28, 13859, Note_on_c, 15, 50, 0
28, 13860, Note_on_c, 15, 52, 80
28, 13889, Note_on_c, 15, 52, 0
28, 13890, Note_on_c, 15, 50, 80
28, 13919, Note_on_c, 15, 50, 0
28, 13920, Note_on_c, 15, 49, 80
28, 13949, Note_on_c, 15, 49, 0
28, 13950, Note_on_c, 15, 47, 80
28, 13979, Note_on_c, 15, 47, 0
28, 13980, Note_on_c, 15, 49, 80
28, 14009, Note_on_c, 15, 49, 0
28, 14010, Note_on_c, 15, 47, 80
28, 14039, Note_on_c, 15, 47, 0
28, 14040, Note_on_c, 15, 49, 80
28, 14069, Note_on_c, 15, 49, 0
28, 14070, Note_on_c, 15, 45, 80
28, 14099, Note_on_c, 15, 45, 0
28, 14100, Note_on_c, 15, 47, 80
28, 14129, Note_on_c, 15, 47, 0
28, 14130, Note_on_c, 15, 49, 80
28, 14159, Note_on_c, 15, 49, 0
28, 14160, Note_on_c, 15, 50, 80
28, 14189, Note_on_c, 15, 50, 0
28, 14190, Note_on_c, 15, 52, 80
28, 14219, Note_on_c, 15, 52, 0
28, 14220, Note_on_c, 15, 54, 80
28, 14249, Note_on_c, 15, 54, 0
28, 14250, Note_on_c, 15, 55, 80
28, 14279, Note_on_c, 15, 55, 0
28, 14280, Note_on_c, 15, 57, 80
28, 14339, Note_on_c, 15, 57, 0
28, 14340, Note_on_c, 15, 45, 80
28, 14399, Note_on_c, 15, 45, 0
28, 14400, Note_on_c, 15, 50, 80
28, 14459, Note_on_c, 15, 50, 0
28, 14460, Note_on_c, 15, 38, 80
28, 14519, Note_on_c, 15, 38, 0
28, 14520, Note_on_c, 15, 38, 80
28, 14579, Note_on_c, 15, 38, 0
28, 14580, Note_on_c, 15, 38, 80
28, 14639, Note_on_c, 15, 38, 0
28, 14640, Note_on_c, 15, 38, 80
28, 14699, Note_on_c, 15, 38, 0
28, 14700, Note_on_c, 15, 38, 80
28, 14759, Note_on_c, 15, 38, 0
28, 14760, Note_on_c, 15, 50, 80
28, 14819, Note_on_c, 15, 50, 0
28, 14820, Note_on_c, 15, 38, 80
28, 14879, Note_on_c, 15, 38, 0
28, 14880, Note_on_c, 15, 38, 80
28, 14939, Note_on_c, 15, 38, 0
28, 14940, Note_on_c, 15, 38, 80
28, 14999, Note_on_c, 15, 38, 0
28, 15000, Note_on_c, 15, 38, 80
28, 15059, Note_on_c, 15, 38, 0
28, 15060, Note_on_c, 15, 38, 80
28, 15119, Note_on_c, 15, 38, 0
28, 15120, Note_on_c, 15, 50, 80
28, 15179, Note_on_c, 15, 50, 0
28, 15180, Note_on_c, 15, 38, 80
28, 15239, Note_on_c, 15, 38, 0
28, 15240, Note_on_c, 15, 38, 80
28, 15299, Note_on_c, 15, 38, 0
28, 15300, Note_on_c, 15, 38, 80
28, 15359, Note_on_c, 15, 38, 0
28, 15360, Note_on_c, 15, 38, 80
28, 15419, Note_on_c, 15, 38, 0
28, 15420, Note_on_c, 15, 38, 80
28, 15479, Note_on_c, 15, 38, 0
28, 15480, Note_on_c, 15, 50, 80
28, 15539, Note_on_c, 15, 50, 0
28, 15540, Note_on_c, 15, 38, 80
28, 15599, Note_on_c, 15, 38, 0
28, 15600, Note_on_c, 15, 38, 80
28, 15659, Note_on_c, 15, 38, 0
28, 15660, Note_on_c, 15, 38, 80
28, 15719, Note_on_c, 15, 38, 0
28, 15720, Note_on_c, 15, 38, 80
28, 15779, Note_on_c, 15, 38, 0
28, 15780, Note_on_c, 15, 38, 80
28, 15839, Note_on_c, 15, 38, 0
28, 15870, Note_on_c, 15, 50, 80
28, 15899, Note_on_c, 15, 50, 0
28, 15900, Note_on_c, 15, 52, 80
28, 15929, Note_on_c, 15, 52, 0
28, 15930, Note_on_c, 15, 54, 80
28, 15959, Note_on_c, 15, 54, 0
28, 15960, Note_on_c, 15, 55, 80
28, 15989, Note_on_c, 15, 55, 0
28, 15990, Note_on_c, 15, 57, 80
28, 16019, Note_on_c, 15, 57, 0
28, 16020, Note_on_c, 15, 59, 80
28, 16049, Note_on_c, 15, 59, 0
28, 16050, Note_on_c, 15, 61, 80
28, 16079, Note_on_c, 15, 61, 0
28, 16080, Note_on_c, 15, 62, 80
28, 16109, Note_on_c, 15, 62, 0
28, 16110, Note_on_c, 15, 61, 80
28, 16139, Note_on_c, 15, 61, 0
28, 16140, Note_on_c, 15, 62, 80
28, 16169, Note_on_c, 15, 62, 0
28, 16170, Note_on_c, 15, 61, 80
28, 16199, Note_on_c, 15, 61, 0
28, 16200, Note_on_c, 15, 59, 80
28, 16229, Note_on_c, 15, 59, 0
28, 16230, Note_on_c, 15, 47, 80
28, 16259, Note_on_c, 15, 47, 0
28, 16260, Note_on_c, 15, 49, 80
28, 16289, Note_on_c, 15, 49, 0
28, 16290, Note_on_c, 15, 50, 80
28, 16319, Note_on_c, 15, 50, 0
28, 16320, Note_on_c, 15, 52, 80
28, 16349, Note_on_c, 15, 52, 0
28, 16350, Note_on_c, 15, 54, 80
28, 16379, Note_on_c, 15, 54, 0
28, 16380, Note_on_c, 15, 55, 80
28, 16409, Note_on_c, 15, 55, 0
28, 16410, Note_on_c, 15, 57, 80
28, 16439, Note_on_c, 15, 57, 0
28, 16440, Note_on_c, 15, 59, 80
28, 16469, Note_on_c, 15, 59, 0
28, 16470, Note_on_c, 15, 57, 80
28, 16499, Note_on_c, 15, 57, 0
28, 16500, Note_on_c, 15, 59, 80
28, 16529, Note_on_c, 15, 59, 0
28, 16530, Note_on_c, 15, 57, 80
28, 16559, Note_on_c, 15, 57, 0
28, 16560, Note_on_c, 15, 56, 80
28, 16589, Note_on_c, 15, 56, 0
28, 16590, Note_on_c, 15, 54, 80
28, 16619, Note_on_c, 15, 54, 0
28, 16620, Note_on_c, 15, 56, 80
28, 16649, Note_on_c, 15, 56, 0
28, 16650, Note_on_c, 15, 54, 80
28, 16679, Note_on_c, 15, 54, 0
28, 16680, Note_on_c, 15, 52, 80
28, 16709, Note_on_c, 15, 52, 0
28, 16710, Note_on_c, 15, 50, 80
28, 16739, Note_on_c, 15, 50, 0
28, 16740, Note_on_c, 15, 52, 80
28, 16769, Note_on_c, 15, 52, 0
28, 16770, Note_on_c, 15, 50, 80
28, 16799, Note_on_c, 15, 50, 0
28, 16800, Note_on_c, 15, 49, 80
28, 16829, Note_on_c, 15, 49, 0
28, 16830, Note_on_c, 15, 47, 80
28, 16859, Note_on_c, 15, 47, 0
28, 16860, Note_on_c, 15, 49, 80
28, 16889, Note_on_c, 15, 49, 0
28, 16890, Note_on_c, 15, 47, 80
28, 16919, Note_on_c, 15, 47, 0
28, 16920, Note_on_c, 15, 45, 80
28, 16949, Note_on_c, 15, 45, 0
28, 16950, Note_on_c, 15, 40, 80
28, 16979, Note_on_c, 15, 40, 0
28, 16980, Note_on_c, 15, 42, 80
28, 17009, Note_on_c, 15, 42, 0
28, 17010, Note_on_c, 15, 44, 80
28, 17039, Note_on_c, 15, 44, 0
28, 17040, Note_on_c, 15, 45, 80
28, 17069, Note_on_c, 15, 45, 0
28, 17070, Note_on_c, 15, 47, 80
28, 17099, Note_on_c, 15, 47, 0
28, 17100, Note_on_c, 15, 49, 80
28, 17129, Note_on_c, 15, 49, 0
28, 17130, Note_on_c, 15, 50, 80
28, 17159, Note_on_c, 15, 50, 0
28, 17160, Note_on_c, 15, 52, 80
28, 17219, Note_on_c, 15, 52, 0
28, 17220, Note_on_c, 15, 40, 80
28, 17279, Note_on_c, 15, 40, 0
28, 17280, Note_on_c, 15, 45, 80
28, 17309, Note_on_c, 15, 45, 0
28, 17310, Note_on_c, 15, 52, 80
28, 17339, Note_on_c, 15, 52, 0
28, 17340, Note_on_c, 15, 54, 80
28, 17369, Note_on_c, 15, 54, 0
28, 17370, Note_on_c, 15, 56, 80
28, 17399, Note_on_c, 15, 56, 0
28, 17400, Note_on_c, 15, 57, 80
28, 17429, Note_on_c, 15, 57, 0
28, 17430, Note_on_c, 15, 59, 80
28, 17459, Note_on_c, 15, 59, 0
28, 17460, Note_on_c, 15, 61, 80
28, 17489, Note_on_c, 15, 61, 0
28, 17490, Note_on_c, 15, 59, 80
28, 17519, Note_on_c, 15, 59, 0
28, 17520, Note_on_c, 15, 57, 80
28, 17549, Note_on_c, 15, 57, 0
28, 17550, Note_on_c, 15, 56, 80
28, 17579, Note_on_c, 15, 56, 0
28, 17580, Note_on_c, 15, 54, 80
28, 17609, Note_on_c, 15, 54, 0
28, 17610, Note_on_c, 15, 52, 80
28, 17639, Note_on_c, 15, 52, 0
28, 17640, Note_on_c, 15, 54, 80
28, 17669, Note_on_c, 15, 54, 0
28, 17670, Note_on_c, 15, 56, 80
28, 17699, Note_on_c, 15, 56, 0
28, 17700, Note_on_c, 15, 57, 80
28, 17729, Note_on_c, 15, 57, 0
28, 17730, Note_on_c, 15, 56, 80
28, 17759, Note_on_c, 15, 56, 0
28, 17760, Note_on_c, 15, 54, 80
28, 17789, Note_on_c, 15, 54, 0
28, 17790, Note_on_c, 15, 52, 80
28, 17819, Note_on_c, 15, 52, 0
28, 17820, Note_on_c, 15, 51, 80
28, 17849, Note_on_c, 15, 51, 0
28, 17850, Note_on_c, 15, 49, 80
28, 17879, Note_on_c, 15, 49, 0
28, 17880, Note_on_c, 15, 51, 80
28, 17909, Note_on_c, 15, 51, 0
28, 17910, Note_on_c, 15, 52, 80
28, 17939, Note_on_c, 15, 52, 0
28, 17940, Note_on_c, 15, 54, 80
28, 17969, Note_on_c, 15, 54, 0
28, 17970, Note_on_c, 15, 52, 80
28, 17999, Note_on_c, 15, 52, 0
28, 18000, Note_on_c, 15, 51, 80
28, 18029, Note_on_c, 15, 51, 0
28, 18030, Note_on_c, 15, 49, 80
28, 18059, Note_on_c, 15, 49, 0
28, 18060, Note_on_c, 15, 47, 80
28, 18089, Note_on_c, 15, 47, 0
28, 18090, Note_on_c, 15, 45, 80
28, 18119, Note_on_c, 15, 45, 0
28, 18120, Note_on_c, 15, 47, 80
28, 18149, Note_on_c, 15, 47, 0
28, 18150, Note_on_c, 15, 49, 80
28, 18179, Note_on_c, 15, 49, 0
28, 18180, Note_on_c, 15, 51, 80
28, 18209, Note_on_c, 15, 51, 0
28, 18210, Note_on_c, 15, 49, 80
28, 18239, Note_on_c, 15, 49, 0
28, 18240, Note_on_c, 15, 47, 80
28, 18269, Note_on_c, 15, 47, 0
28, 18270, Note_on_c, 15, 45, 80
28, 18299, Note_on_c, 15, 45, 0
28, 18300, Note_on_c, 15, 44, 80
28, 18329, Note_on_c, 15, 44, 0
28, 18330, Note_on_c, 15, 42, 80
28, 18359, Note_on_c, 15, 42, 0
28, 18360, Note_on_c, 15, 40, 80
28, 18389, Note_on_c, 15, 40, 0
28, 18390, Note_on_c, 15, 40, 80
28, 18419, Note_on_c, 15, 40, 0
28, 18420, Note_on_c, 15, 42, 80
28, 18449, Note_on_c, 15, 42, 0
28, 18450, Note_on_c, 15, 44, 80
28, 18479, Note_on_c, 15, 44, 0
28, 18480, Note_on_c, 15, 45, 80
28, 18509, Note_on_c, 15, 45, 0
28, 18510, Note_on_c, 15, 47, 80
28, 18539, Note_on_c, 15, 47, 0
28, 18540, Note_on_c, 15, 49, 80
28, 18569, Note_on_c, 15, 49, 0
28, 18570, Note_on_c, 15, 50, 80
28, 18599, Note_on_c, 15, 50, 0
28, 18600, Note_on_c, 15, 52, 80
28, 18629, Note_on_c, 15, 52, 0
28, 18630, Note_on_c, 15, 50, 80
28, 18659, Note_on_c, 15, 50, 0
28, 18660, Note_on_c, 15, 52, 80
28, 18689, Note_on_c, 15, 52, 0
28, 18690, Note_on_c, 15, 50, 80
28, 18719, Note_on_c, 15, 50, 0
28, 18720, Note_on_c, 15, 52, 80
28, 18749, Note_on_c, 15, 52, 0
28, 18750, Note_on_c, 15, 40, 80
28, 18779, Note_on_c, 15, 40, 0
28, 18780, Note_on_c, 15, 42, 80
28, 18809, Note_on_c, 15, 42, 0
28, 18810, Note_on_c, 15, 44, 80
28, 18839, Note_on_c, 15, 44, 0
28, 18840, Note_on_c, 15, 45, 80
28, 18869, Note_on_c, 15, 45, 0
28, 18870, Note_on_c, 15, 47, 80
28, 18899, Note_on_c, 15, 47, 0
28, 18900, Note_on_c, 15, 49, 80
28, 18929, Note_on_c, 15, 49, 0
28, 18930, Note_on_c, 15, 50, 80
28, 18959, Note_on_c, 15, 50, 0
28, 18960, Note_on_c, 15, 52, 80
28, 18989, Note_on_c, 15, 52, 0
28, 18990, Note_on_c, 15, 50, 80
28, 19019, Note_on_c, 15, 50, 0
28, 19020, Note_on_c, 15, 52, 80
28, 19049, Note_on_c, 15, 52, 0
28, 19050, Note_on_c, 15, 50, 80
28, 19079, Note_on_c, 15, 50, 0
28, 19080, Note_on_c, 15, 52, 80
28, 19109, Note_on_c, 15, 52, 0
28, 19110, Note_on_c, 15, 40, 80
28, 19139, Note_on_c, 15, 40, 0
28, 19140, Note_on_c, 15, 42, 80
28, 19169, Note_on_c, 15, 42, 0
28, 19170, Note_on_c, 15, 44, 80
28, 19199, Note_on_c, 15, 44, 0
28, 19200, Note_on_c, 15, 45, 80
28, 19229, Note_on_c, 15, 45, 0
28, 19230, Note_on_c, 15, 47, 80
28, 19259, Note_on_c, 15, 47, 0
28, 19260, Note_on_c, 15, 49, 80
28, 19289, Note_on_c, 15, 49, 0
28, 19290, Note_on_c, 15, 50, 80
28, 19319, Note_on_c, 15, 50, 0
28, 19320, Note_on_c, 15, 52, 80
28, 19349, Note_on_c, 15, 52, 0
28, 19350, Note_on_c, 15, 50, 80
28, 19379, Note_on_c, 15, 50, 0
28, 19380, Note_on_c, 15, 52, 80
28, 19409, Note_on_c, 15, 52, 0
28, 19410, Note_on_c, 15, 50, 80
28, 19439, Note_on_c, 15, 50, 0
28, 19440, Note_on_c, 15, 49, 80
28, 19469, Note_on_c, 15, 49, 0
28, 19470, Note_on_c, 15, 45, 80
28, 19499, Note_on_c, 15, 45, 0
28, 19500, Note_on_c, 15, 47, 80
28, 19529, Note_on_c, 15, 47, 0
28, 19530, Note_on_c, 15, 49, 80
28, 19559, Note_on_c, 15, 49, 0
28, 19560, Note_on_c, 15, 50, 80
28, 19589, Note_on_c, 15, 50, 0
28, 19590, Note_on_c, 15, 52, 80
28, 19619, Note_on_c, 15, 52, 0
28, 19620, Note_on_c, 15, 54, 80
28, 19649, Note_on_c, 15, 54, 0
28, 19650, Note_on_c, 15, 56, 80
28, 19679, Note_on_c, 15, 56, 0
28, 19680, Note_on_c, 15, 57, 80
28, 19709, Note_on_c, 15, 57, 0
28, 19710, Note_on_c, 15, 56, 80
28, 19739, Note_on_c, 15, 56, 0
28, 19740, Note_on_c, 15, 57, 80
28, 19769, Note_on_c, 15, 57, 0
28, 19770, Note_on_c, 15, 56, 80
28, 19799, Note_on_c, 15, 56, 0
28, 19800, Note_on_c, 15, 54, 80
28, 19829, Note_on_c, 15, 54, 0
28, 19830, Note_on_c, 15, 42, 80
28, 19859, Note_on_c, 15, 42, 0
28, 19860, Note_on_c, 15, 44, 80
28, 19889, Note_on_c, 15, 44, 0
28, 19890, Note_on_c, 15, 45, 80
28, 19919, Note_on_c, 15, 45, 0
28, 19920, Note_on_c, 15, 47, 80
28, 19949, Note_on_c, 15, 47, 0
28, 19950, Note_on_c, 15, 49, 80
28, 19979, Note_on_c, 15, 49, 0
28, 19980, Note_on_c, 15, 50, 80
28, 20009, Note_on_c, 15, 50, 0
28, 20010, Note_on_c, 15, 52, 80
28, 20039, Note_on_c, 15, 52, 0
28, 20040, Note_on_c, 15, 54, 80
28, 20069, Note_on_c, 15, 54, 0
28, 20070, Note_on_c, 15, 52, 80
28, 20099, Note_on_c, 15, 52, 0
28, 20100, Note_on_c, 15, 54, 80
28, 20129, Note_on_c, 15, 54, 0
28, 20130, Note_on_c, 15, 52, 80
28, 20159, Note_on_c, 15, 52, 0
28, 20160, Note_on_c, 15, 50, 80
28, 20189, Note_on_c, 15, 50, 0
28, 20190, Note_on_c, 15, 49, 80
28, 20219, Note_on_c, 15, 49, 0
28, 20220, Note_on_c, 15, 50, 80
28, 20249, Note_on_c, 15, 50, 0
28, 20250, Note_on_c, 15, 49, 80
28, 20279, Note_on_c, 15, 49, 0
28, 20280, Note_on_c, 15, 47, 80
28, 20309, Note_on_c, 15, 47, 0
28, 20310, Note_on_c, 15, 45, 80
28, 20339, Note_on_c, 15, 45, 0
28, 20340, Note_on_c, 15, 47, 80
28, 20369, Note_on_c, 15, 47, 0
28, 20370, Note_on_c, 15, 45, 80
28, 20399, Note_on_c, 15, 45, 0
28, 20400, Note_on_c, 15, 44, 80
28, 20429, Note_on_c, 15, 44, 0
28, 20430, Note_on_c, 15, 42, 80
28, 20459, Note_on_c, 15, 42, 0
28, 20460, Note_on_c, 15, 44, 80
28, 20489, Note_on_c, 15, 44, 0
28, 20490, Note_on_c, 15, 42, 80
28, 20519, Note_on_c, 15, 42, 0
28, 20520, Note_on_c, 15, 44, 80
28, 20549, Note_on_c, 15, 44, 0
28, 20550, Note_on_c, 15, 40, 80
28, 20579, Note_on_c, 15, 40, 0
28, 20580, Note_on_c, 15, 42, 80
28, 20609, Note_on_c, 15, 42, 0
28, 20610, Note_on_c, 15, 44, 80
28, 20639, Note_on_c, 15, 44, 0
28, 20640, Note_on_c, 15, 45, 80
28, 20669, Note_on_c, 15, 45, 0
28, 20670, Note_on_c, 15, 47, 80
28, 20699, Note_on_c, 15, 47, 0
28, 20700, Note_on_c, 15, 49, 80
28, 20729, Note_on_c, 15, 49, 0
28, 20730, Note_on_c, 15, 50, 80
28, 20759, Note_on_c, 15, 50, 0
28, 20760, Note_on_c, 15, 52, 80
28, 20819, Note_on_c, 15, 52, 0
28, 20820, Note_on_c, 15, 40, 80
28, 20879, Note_on_c, 15, 40, 0
28, 20880, Note_on_c, 15, 45, 80
28, 20999, Note_on_c, 15, 45, 0
28, 21630, Note_on_c, 15, 59, 80
28, 21659, Note_on_c, 15, 59, 0
28, 21660, Note_on_c, 15, 57, 80
28, 21689, Note_on_c, 15, 57, 0
28, 21690, Note_on_c, 15, 55, 80
28, 21719, Note_on_c, 15, 55, 0
28, 21720, Note_on_c, 15, 54, 80
28, 21749, Note_on_c, 15, 54, 0
28, 21750, Note_on_c, 15, 52, 80
28, 21779, Note_on_c, 15, 52, 0
28, 21780, Note_on_c, 15, 51, 80
28, 21809, Note_on_c, 15, 51, 0
28, 21810, Note_on_c, 15, 49, 80
28, 21839, Note_on_c, 15, 49, 0
28, 21840, Note_on_c, 15, 47, 80
28, 21869, Note_on_c, 15, 47, 0
28, 21870, Note_on_c, 15, 45, 80
28, 21899, Note_on_c, 15, 45, 0
28, 21900, Note_on_c, 15, 43, 80
28, 21929, Note_on_c, 15, 43, 0
28, 21930, Note_on_c, 15, 42, 80
28, 21959, Note_on_c, 15, 42, 0
28, 21960, Note_on_c, 15, 40, 80
28, 22079, Note_on_c, 15, 40, 0
28, 22710, Note_on_c, 15, 57, 80
28, 22739, Note_on_c, 15, 57, 0
28, 22740, Note_on_c, 15, 55, 80
28, 22769, Note_on_c, 15, 55, 0
28, 22770, Note_on_c, 15, 54, 80
28, 22799, Note_on_c, 15, 54, 0
28, 22800, Note_on_c, 15, 52, 80
28, 22829, Note_on_c, 15, 52, 0
28, 22830, Note_on_c, 15, 50, 80
28, 22859, Note_on_c, 15, 50, 0
28, 22860, Note_on_c, 15, 49, 80
28, 22889, Note_on_c, 15, 49, 0
28, 22890, Note_on_c, 15, 47, 80
28, 22919, Note_on_c, 15, 47, 0
28, 22920, Note_on_c, 15, 45, 80
28, 22949, Note_on_c, 15, 45, 0
28, 22950, Note_on_c, 15, 43, 80
28, 22979, Note_on_c, 15, 43, 0
28, 22980, Note_on_c, 15, 42, 80
28, 23009, Note_on_c, 15, 42, 0
28, 23010, Note_on_c, 15, 40, 80
28, 23039, Note_on_c, 15, 40, 0
28, 23040, Note_on_c, 15, 38, 80
28, 23099, Note_on_c, 15, 38, 0
28, 23100, Note_on_c, 15, 50, 80
28, 23159, Note_on_c, 15, 50, 0
28, 23160, Note_on_c, 15, 50, 80
28, 23219, Note_on_c, 15, 50, 0
28, 23220, Note_on_c, 15, 50, 80
28, 23279, Note_on_c, 15, 50, 0
28, 23280, Note_on_c, 15, 50, 80
28, 23339, Note_on_c, 15, 50, 0
28, 23340, Note_on_c, 15, 52, 80
28, 23369, Note_on_c, 15, 52, 0
28, 23370, Note_on_c, 15, 54, 80
28, 23399, Note_on_c, 15, 54, 0
28, 23400, Note_on_c, 15, 55, 80
28, 23459, Note_on_c, 15, 55, 0
28, 23460, Note_on_c, 15, 49, 80
28, 23519, Note_on_c, 15, 49, 0
28, 23520, Note_on_c, 15, 49, 80
28, 23579, Note_on_c, 15, 49, 0
28, 23580, Note_on_c, 15, 49, 80
28, 23639, Note_on_c, 15, 49, 0
28, 23640, Note_on_c, 15, 49, 80
28, 23699, Note_on_c, 15, 49, 0
28, 23700, Note_on_c, 15, 50, 80
28, 23729, Note_on_c, 15, 50, 0
28, 23730, Note_on_c, 15, 52, 80
28, 23759, Note_on_c, 15, 52, 0
28, 23760, Note_on_c, 15, 54, 80
28, 23819, Note_on_c, 15, 54, 0
28, 23820, Note_on_c, 15, 47, 80
28, 23879, Note_on_c, 15, 47, 0
28, 23880, Note_on_c, 15, 47, 80
28, 23939, Note_on_c, 15, 47, 0
28, 23940, Note_on_c, 15, 47, 80
28, 23999, Note_on_c, 15, 47, 0
28, 24000, Note_on_c, 15, 47, 80
28, 24059, Note_on_c, 15, 47, 0
28, 24060, Note_on_c, 15, 49, 80
28, 24089, Note_on_c, 15, 49, 0
28, 24090, Note_on_c, 15, 50, 80
28, 24119, Note_on_c, 15, 50, 0
28, 24120, Note_on_c, 15, 52, 80
28, 24179, Note_on_c, 15, 52, 0
28, 24180, Note_on_c, 15, 45, 80
28, 24239, Note_on_c, 15, 45, 0
28, 24240, Note_on_c, 15, 45, 80
28, 24299, Note_on_c, 15, 45, 0
28, 24300, Note_on_c, 15, 45, 80
28, 24359, Note_on_c, 15, 45, 0
28, 24360, Note_on_c, 15, 45, 80
28, 24419, Note_on_c, 15, 45, 0
28, 24420, Note_on_c, 15, 47, 80
28, 24449, Note_on_c, 15, 47, 0
28, 24450, Note_on_c, 15, 49, 80
28, 24479, Note_on_c, 15, 49, 0
28, 24480, Note_on_c, 15, 50, 80
28, 24509, Note_on_c, 15, 50, 0
28, 24510, Note_on_c, 15, 57, 80
28, 24539, Note_on_c, 15, 57, 0
28, 24540, Note_on_c, 15, 59, 80
28, 24569, Note_on_c, 15, 59, 0
28, 24570, Note_on_c, 15, 61, 80
28, 24599, Note_on_c, 15, 61, 0
28, 24600, Note_on_c, 15, 62, 80
28, 24629, Note_on_c, 15, 62, 0
28, 24630, Note_on_c, 15, 64, 80
28, 24659, Note_on_c, 15, 64, 0
28, 24660, Note_on_c, 15, 66, 80
28, 24689, Note_on_c, 15, 66, 0
28, 24690, Note_on_c, 15, 64, 80
28, 24719, Note_on_c, 15, 64, 0
28, 24720, Note_on_c, 15, 62, 80
28, 24749, Note_on_c, 15, 62, 0
28, 24750, Note_on_c, 15, 61, 80
28, 24779, Note_on_c, 15, 61, 0
28, 24780, Note_on_c, 15, 59, 80
28, 24809, Note_on_c, 15, 59, 0
28, 24810, Note_on_c, 15, 57, 80
28, 24839, Note_on_c, 15, 57, 0
28, 24840, Note_on_c, 15, 59, 80
28, 24869, Note_on_c, 15, 59, 0
28, 24870, Note_on_c, 15, 60, 80
28, 24899, Note_on_c, 15, 60, 0
28, 24900, Note_on_c, 15, 62, 80
28, 24929, Note_on_c, 15, 62, 0
28, 24930, Note_on_c, 15, 60, 80
28, 24959, Note_on_c, 15, 60, 0
28, 24960, Note_on_c, 15, 59, 80
28, 24989, Note_on_c, 15, 59, 0
28, 24990, Note_on_c, 15, 57, 80
28, 25019, Note_on_c, 15, 57, 0
28, 25020, Note_on_c, 15, 56, 80
28, 25049, Note_on_c, 15, 56, 0
28, 25050, Note_on_c, 15, 54, 80
28, 25079, Note_on_c, 15, 54, 0
28, 25080, Note_on_c, 15, 56, 80
28, 25109, Note_on_c, 15, 56, 0
28, 25110, Note_on_c, 15, 57, 80
28, 25139, Note_on_c, 15, 57, 0
28, 25140, Note_on_c, 15, 59, 80
28, 25169, Note_on_c, 15, 59, 0
28, 25170, Note_on_c, 15, 57, 80
28, 25199, Note_on_c, 15, 57, 0
28, 25200, Note_on_c, 15, 56, 80
28, 25229, Note_on_c, 15, 56, 0
28, 25230, Note_on_c, 15, 54, 80
28, 25259, Note_on_c, 15, 54, 0
28, 25260, Note_on_c, 15, 52, 80
28, 25289, Note_on_c, 15, 52, 0
28, 25290, Note_on_c, 15, 50, 80
28, 25319, Note_on_c, 15, 50, 0
28, 25320, Note_on_c, 15, 52, 80
28, 25349, Note_on_c, 15, 52, 0
28, 25350, Note_on_c, 15, 54, 80
28, 25379, Note_on_c, 15, 54, 0
28, 25380, Note_on_c, 15, 56, 80
28, 25409, Note_on_c, 15, 56, 0
28, 25410, Note_on_c, 15, 54, 80
28, 25439, Note_on_c, 15, 54, 0
28, 25440, Note_on_c, 15, 52, 80
28, 25469, Note_on_c, 15, 52, 0
28, 25470, Note_on_c, 15, 50, 80
28, 25499, Note_on_c, 15, 50, 0
28, 25500, Note_on_c, 15, 49, 80
28, 25529, Note_on_c, 15, 49, 0
28, 25530, Note_on_c, 15, 47, 80
28, 25559, Note_on_c, 15, 47, 0
28, 25560, Note_on_c, 15, 45, 80
28, 25589, Note_on_c, 15, 45, 0
28, 25590, Note_on_c, 15, 45, 80
28, 25619, Note_on_c, 15, 45, 0
28, 25620, Note_on_c, 15, 47, 80
28, 25649, Note_on_c, 15, 47, 0
28, 25650, Note_on_c, 15, 49, 80
28, 25679, Note_on_c, 15, 49, 0
28, 25680, Note_on_c, 15, 50, 80
28, 25709, Note_on_c, 15, 50, 0
28, 25710, Note_on_c, 15, 52, 80
28, 25739, Note_on_c, 15, 52, 0
28, 25740, Note_on_c, 15, 54, 80
28, 25769, Note_on_c, 15, 54, 0
28, 25770, Note_on_c, 15, 55, 80
28, 25799, Note_on_c, 15, 55, 0
28, 25800, Note_on_c, 15, 57, 80
28, 25829, Note_on_c, 15, 57, 0
28, 25830, Note_on_c, 15, 55, 80
28, 25859, Note_on_c, 15, 55, 0
28, 25860, Note_on_c, 15, 57, 80
28, 25889, Note_on_c, 15, 57, 0
28, 25890, Note_on_c, 15, 55, 80
28, 25919, Note_on_c, 15, 55, 0
28, 25920, Note_on_c, 15, 57, 80
28, 25949, Note_on_c, 15, 57, 0
28, 25950, Note_on_c, 15, 45, 80
28, 25979, Note_on_c, 15, 45, 0
28, 25980, Note_on_c, 15, 47, 80
28, 26009, Note_on_c, 15, 47, 0
28, 26010, Note_on_c, 15, 49, 80
28, 26039, Note_on_c, 15, 49, 0
28, 26040, Note_on_c, 15, 50, 80
28, 26069, Note_on_c, 15, 50, 0
28, 26070, Note_on_c, 15, 52, 80
28, 26099, Note_on_c, 15, 52, 0
28, 26100, Note_on_c, 15, 54, 80
28, 26129, Note_on_c, 15, 54, 0
28, 26130, Note_on_c, 15, 55, 80
28, 26159, Note_on_c, 15, 55, 0
28, 26160, Note_on_c, 15, 57, 80
28, 26189, Note_on_c, 15, 57, 0
28, 26190, Note_on_c, 15, 55, 80
28, 26219, Note_on_c, 15, 55, 0
28, 26220, Note_on_c, 15, 57, 80
28, 26249, Note_on_c, 15, 57, 0
28, 26250, Note_on_c, 15, 55, 80
28, 26279, Note_on_c, 15, 55, 0
28, 26280, Note_on_c, 15, 57, 80
28, 26309, Note_on_c, 15, 57, 0
28, 26310, Note_on_c, 15, 45, 80
28, 26339, Note_on_c, 15, 45, 0
28, 26340, Note_on_c, 15, 47, 80
28, 26369, Note_on_c, 15, 47, 0
28, 26370, Note_on_c, 15, 49, 80
28, 26399, Note_on_c, 15, 49, 0
28, 26400, Note_on_c, 15, 50, 80
28, 26429, Note_on_c, 15, 50, 0
28, 26430, Note_on_c, 15, 52, 80
28, 26459, Note_on_c, 15, 52, 0
28, 26460, Note_on_c, 15, 54, 80
28, 26489, Note_on_c, 15, 54, 0
28, 26490, Note_on_c, 15, 55, 80
28, 26519, Note_on_c, 15, 55, 0
28, 26520, Note_on_c, 15, 57, 80
28, 26549, Note_on_c, 15, 57, 0
28, 26550, Note_on_c, 15, 55, 80
28, 26579, Note_on_c, 15, 55, 0
28, 26580, Note_on_c, 15, 57, 80
28, 26609, Note_on_c, 15, 57, 0
28, 26610, Note_on_c, 15, 55, 80
28, 26639, Note_on_c, 15, 55, 0
28, 26640, Note_on_c, 15, 54, 80
28, 26669, Note_on_c, 15, 54, 0
28, 26670, Note_on_c, 15, 50, 80
28, 26699, Note_on_c, 15, 50, 0
28, 26700, Note_on_c, 15, 52, 80
28, 26729, Note_on_c, 15, 52, 0
28, 26730, Note_on_c, 15, 54, 80
28, 26759, Note_on_c, 15, 54, 0
28, 26760, Note_on_c, 15, 55, 80
28, 26789, Note_on_c, 15, 55, 0
28, 26790, Note_on_c, 15, 57, 80
28, 26819, Note_on_c, 15, 57, 0
28, 26820, Note_on_c, 15, 59, 80
28, 26849, Note_on_c, 15, 59, 0
28, 26850, Note_on_c, 15, 61, 80
28, 26879, Note_on_c, 15, 61, 0
28, 26880, Note_on_c, 15, 62, 80
28, 26909, Note_on_c, 15, 62, 0
28, 26910, Note_on_c, 15, 61, 80
28, 26939, Note_on_c, 15, 61, 0
28, 26940, Note_on_c, 15, 62, 80
28, 26969, Note_on_c, 15, 62, 0
28, 26970, Note_on_c, 15, 61, 80
28, 26999, Note_on_c, 15, 61, 0
28, 27000, Note_on_c, 15, 59, 80
28, 27029, Note_on_c, 15, 59, 0
28, 27030, Note_on_c, 15, 47, 80
28, 27059, Note_on_c, 15, 47, 0
28, 27060, Note_on_c, 15, 49, 80
28, 27089, Note_on_c, 15, 49, 0
28, 27090, Note_on_c, 15, 50, 80
28, 27119, Note_on_c, 15, 50, 0
28, 27120, Note_on_c, 15, 52, 80
28, 27149, Note_on_c, 15, 52, 0
28, 27150, Note_on_c, 15, 54, 80
28, 27179, Note_on_c, 15, 54, 0
28, 27180, Note_on_c, 15, 55, 80
28, 27209, Note_on_c, 15, 55, 0
28, 27210, Note_on_c, 15, 57, 80
28, 27239, Note_on_c, 15, 57, 0
28, 27240, Note_on_c, 15, 59, 80
28, 27269, Note_on_c, 15, 59, 0
28, 27270, Note_on_c, 15, 57, 80
28, 27299, Note_on_c, 15, 57, 0
28, 27300, Note_on_c, 15, 59, 80
28, 27329, Note_on_c, 15, 59, 0
28, 27330, Note_on_c, 15, 57, 80
28, 27359, Note_on_c, 15, 57, 0
28, 27360, Note_on_c, 15, 55, 80
28, 27389, Note_on_c, 15, 55, 0
28, 27390, Note_on_c, 15, 54, 80
28, 27419, Note_on_c, 15, 54, 0
28, 27420, Note_on_c, 15, 55, 80
28, 27449, Note_on_c, 15, 55, 0
28, 27450, Note_on_c, 15, 54, 80
28, 27479, Note_on_c, 15, 54, 0
28, 27480, Note_on_c, 15, 52, 80
28, 27509, Note_on_c, 15, 52, 0
28, 27510, Note_on_c, 15, 50, 80
28, 27539, Note_on_c, 15, 50, 0
28, 27540, Note_on_c, 15, 52, 80
28, 27569, Note_on_c, 15, 52, 0
28, 27570, Note_on_c, 15, 50, 80
28, 27599, Note_on_c, 15, 50, 0
28, 27600, Note_on_c, 15, 49, 80
28, 27629, Note_on_c, 15, 49, 0
28, 27630, Note_on_c, 15, 47, 80
28, 27659, Note_on_c, 15, 47, 0
28, 27660, Note_on_c, 15, 49, 80
28, 27689, Note_on_c, 15, 49, 0
28, 27690, Note_on_c, 15, 47, 80
28, 27719, Note_on_c, 15, 47, 0
28, 27720, Note_on_c, 15, 49, 80
28, 27749, Note_on_c, 15, 49, 0
28, 27750, Note_on_c, 15, 45, 80
28, 27779, Note_on_c, 15, 45, 0
28, 27780, Note_on_c, 15, 47, 80
28, 27809, Note_on_c, 15, 47, 0
28, 27810, Note_on_c, 15, 49, 80
28, 27839, Note_on_c, 15, 49, 0
28, 27840, Note_on_c, 15, 50, 80
28, 27869, Note_on_c, 15, 50, 0
28, 27870, Note_on_c, 15, 52, 80
28, 27899, Note_on_c, 15, 52, 0
28, 27900, Note_on_c, 15, 54, 80
28, 27929, Note_on_c, 15, 54, 0
28, 27930, Note_on_c, 15, 55, 80
28, 27959, Note_on_c, 15, 55, 0
28, 27960, Note_on_c, 15, 57, 80
28, 28019, Note_on_c, 15, 57, 0
28, 28020, Note_on_c, 15, 45, 80
28, 28079, Note_on_c, 15, 45, 0
28, 28080, Note_on_c, 15, 50, 80
28, 28109, Note_on_c, 15, 50, 0
28, 28110, Note_on_c, 15, 38, 80
28, 28139, Note_on_c, 15, 38, 0
28, 28140, Note_on_c, 15, 40, 80
28, 28169, Note_on_c, 15, 40, 0
28, 28170, Note_on_c, 15, 42, 80
28, 28199, Note_on_c, 15, 42, 0
28, 28200, Note_on_c, 15, 43, 80
28, 28229, Note_on_c, 15, 43, 0
28, 28230, Note_on_c, 15, 45, 80
28, 28259, Note_on_c, 15, 45, 0
28, 28260, Note_on_c, 15, 47, 80
28, 28289, Note_on_c, 15, 47, 0
28, 28290, Note_on_c, 15, 49, 80
28, 28319, Note_on_c, 15, 49, 0
28, 28320, Note_on_c, 15, 50, 80
28, 28349, Note_on_c, 15, 50, 0
28, 28350, Note_on_c, 15, 49, 80
28, 28379, Note_on_c, 15, 49, 0
28, 28380, Note_on_c, 15, 50, 80
28, 28409, Note_on_c, 15, 50, 0
28, 28410, Note_on_c, 15, 49, 80
28, 28439, Note_on_c, 15, 49, 0
28, 28440, Note_on_c, 15, 50, 80
28, 28469, Note_on_c, 15, 50, 0
28, 28470, Note_on_c, 15, 38, 80
28, 28499, Note_on_c, 15, 38, 0
28, 28500, Note_on_c, 15, 40, 80
28, 28529, Note_on_c, 15, 40, 0
28, 28530, Note_on_c, 15, 42, 80
28, 28559, Note_on_c, 15, 42, 0
28, 28560, Note_on_c, 15, 43, 80
28, 28589, Note_on_c, 15, 43, 0
28, 28590, Note_on_c, 15, 45, 80
28, 28619, Note_on_c, 15, 45, 0
28, 28620, Note_on_c, 15, 47, 80
28, 28649, Note_on_c, 15, 47, 0
28, 28650, Note_on_c, 15, 49, 80
28, 28679, Note_on_c, 15, 49, 0
28, 28680, Note_on_c, 15, 50, 80
28, 28709, Note_on_c, 15, 50, 0
28, 28710, Note_on_c, 15, 49, 80
28, 28739, Note_on_c, 15, 49, 0
28, 28740, Note_on_c, 15, 50, 80
28, 28769, Note_on_c, 15, 50, 0
28, 28770, Note_on_c, 15, 49, 80
28, 28799, Note_on_c, 15, 49, 0
28, 28800, Note_on_c, 15, 50, 80
28, 28829, Note_on_c, 15, 50, 0
28, 28830, Note_on_c, 15, 38, 80
28, 28859, Note_on_c, 15, 38, 0
28, 28860, Note_on_c, 15, 40, 80
28, 28889, Note_on_c, 15, 40, 0
28, 28890, Note_on_c, 15, 42, 80
28, 28919, Note_on_c, 15, 42, 0
28, 28920, Note_on_c, 15, 43, 80
28, 28949, Note_on_c, 15, 43, 0
28, 28950, Note_on_c, 15, 45, 80
28, 28979, Note_on_c, 15, 45, 0
28, 28980, Note_on_c, 15, 47, 80
28, 29009, Note_on_c, 15, 47, 0
28, 29010, Note_on_c, 15, 49, 80
28, 29039, Note_on_c, 15, 49, 0
28, 29040, Note_on_c, 15, 50, 80
28, 29069, Note_on_c, 15, 50, 0
28, 29070, Note_on_c, 15, 52, 80
28, 29099, Note_on_c, 15, 52, 0
28, 29100, Note_on_c, 15, 54, 80
28, 29129, Note_on_c, 15, 54, 0
28, 29130, Note_on_c, 15, 50, 80
28, 29159, Note_on_c, 15, 50, 0
28, 29160, Note_on_c, 15, 55, 80
28, 29189, Note_on_c, 15, 55, 0
28, 29190, Note_on_c, 15, 54, 80
28, 29219, Note_on_c, 15, 54, 0
28, 29220, Note_on_c, 15, 55, 80
28, 29249, Note_on_c, 15, 55, 0
28, 29250, Note_on_c, 15, 54, 80
28, 29279, Note_on_c, 15, 54, 0
28, 29280, Note_on_c, 15, 52, 80
28, 29309, Note_on_c, 15, 52, 0
28, 29310, Note_on_c, 15, 50, 80
28, 29339, Note_on_c, 15, 50, 0
28, 29340, Note_on_c, 15, 52, 80
28, 29369, Note_on_c, 15, 52, 0
28, 29370, Note_on_c, 15, 50, 80
28, 29399, Note_on_c, 15, 50, 0
28, 29400, Note_on_c, 15, 49, 80
28, 29429, Note_on_c, 15, 49, 0
28, 29430, Note_on_c, 15, 47, 80
28, 29459, Note_on_c, 15, 47, 0
28, 29460, Note_on_c, 15, 49, 80
28, 29489, Note_on_c, 15, 49, 0
28, 29490, Note_on_c, 15, 47, 80
28, 29519, Note_on_c, 15, 47, 0
28, 29520, Note_on_c, 15, 49, 80
28, 29549, Note_on_c, 15, 49, 0
28, 29550, Note_on_c, 15, 45, 80
28, 29579, Note_on_c, 15, 45, 0
28, 29580, Note_on_c, 15, 47, 80
28, 29609, Note_on_c, 15, 47, 0
28, 29610, Note_on_c, 15, 49, 80
28, 29639, Note_on_c, 15, 49, 0
28, 29640, Note_on_c, 15, 50, 80
28, 29669, Note_on_c, 15, 50, 0
28, 29670, Note_on_c, 15, 52, 80
28, 29699, Note_on_c, 15, 52, 0
28, 29700, Note_on_c, 15, 54, 80
28, 29729, Note_on_c, 15, 54, 0
28, 29730, Note_on_c, 15, 55, 80
28, 29759, Note_on_c, 15, 55, 0
28, 29760, Note_on_c, 15, 57, 80
28, 29819, Note_on_c, 15, 57, 0
28, 29820, Note_on_c, 15, 45, 80
28, 29879, Note_on_c, 15, 45, 0
28, 29880, Note_on_c, 15, 50, 80
28, 29939, Note_on_c, 15, 50, 0
28, 29940, Note_on_c, 15, 38, 80
28, 29999, Note_on_c, 15, 38, 0
28, 30000, Note_on_c, 15, 38, 80
28, 30059, Note_on_c, 15, 38, 0
28, 30060, Note_on_c, 15, 50, 80
28, 30119, Note_on_c, 15, 50, 0
28, 30120, Note_on_c, 15, 54, 80
28, 30179, Note_on_c, 15, 54, 0
28, 30180, Note_on_c, 15, 52, 80
28, 30209, Note_on_c, 15, 52, 0
28, 30210, Note_on_c, 15, 50, 80
28, 30239, Note_on_c, 15, 50, 0
28, 30240, Note_on_c, 15, 57, 80
28, 30269, Note_on_c, 15, 57, 0
28, 30270, Note_on_c, 15, 45, 80
28, 30299, Note_on_c, 15, 45, 0
28, 30300, Note_on_c, 15, 47, 80
28, 30329, Note_on_c, 15, 47, 0
28, 30330, Note_on_c, 15, 49, 80
28, 30359, Note_on_c, 15, 49, 0
28, 30360, Note_on_c, 15, 50, 80
28, 30389, Note_on_c, 15, 50, 0
28, 30390, Note_on_c, 15, 52, 80
28, 30419, Note_on_c, 15, 52, 0
28, 30420, Note_on_c, 15, 54, 80
28, 30449, Note_on_c, 15, 54, 0
28, 30450, Note_on_c, 15, 55, 80
28, 30479, Note_on_c, 15, 55, 0
28, 30480, Note_on_c, 15, 57, 80
28, 30509, Note_on_c, 15, 57, 0
28, 30510, Note_on_c, 15, 59, 80
28, 30539, Note_on_c, 15, 59, 0
28, 30540, Note_on_c, 15, 61, 80
28, 30569, Note_on_c, 15, 61, 0
28, 30570, Note_on_c, 15, 62, 80
28, 30599, Note_on_c, 15, 62, 0
28, 30600, Note_on_c, 15, 64, 80
28, 30659, Note_on_c, 15, 64, 0
28, 30660, Note_on_c, 15, 40, 80
28, 30719, Note_on_c, 15, 40, 0
28, 30720, Note_on_c, 15, 40, 80
28, 30779, Note_on_c, 15, 40, 0
28, 30780, Note_on_c, 15, 52, 80
28, 30839, Note_on_c, 15, 52, 0
28, 30840, Note_on_c, 15, 55, 80
28, 30899, Note_on_c, 15, 55, 0
28, 30900, Note_on_c, 15, 54, 80
28, 30929, Note_on_c, 15, 54, 0
28, 30930, Note_on_c, 15, 52, 80
28, 30959, Note_on_c, 15, 52, 0
28, 30960, Note_on_c, 15, 58, 80
28, 30989, Note_on_c, 15, 58, 0
28, 30990, Note_on_c, 15, 59, 80
28, 31019, Note_on_c, 15, 59, 0
28, 31020, Note_on_c, 15, 58, 80
28, 31049, Note_on_c, 15, 58, 0
28, 31050, Note_on_c, 15, 56, 80
28, 31079, Note_on_c, 15, 56, 0
28, 31080, Note_on_c, 15, 54, 80
28, 31109, Note_on_c, 15, 54, 0
28, 31110, Note_on_c, 15, 52, 80
28, 31139, Note_on_c, 15, 52, 0
28, 31140, Note_on_c, 15, 50, 80
28, 31169, Note_on_c, 15, 50, 0
28, 31170, Note_on_c, 15, 49, 80
28, 31199, Note_on_c, 15, 49, 0
28, 31200, Note_on_c, 15, 47, 80
28, 31229, Note_on_c, 15, 47, 0
28, 31230, Note_on_c, 15, 45, 80
28, 31259, Note_on_c, 15, 45, 0
28, 31260, Note_on_c, 15, 43, 80
28, 31289, Note_on_c, 15, 43, 0
28, 31290, Note_on_c, 15, 42, 80
28, 31319, Note_on_c, 15, 42, 0
28, 31320, Note_on_c, 15, 40, 80
28, 31379, Note_on_c, 15, 40, 0
28, 31380, Note_on_c, 15, 52, 80
28, 31439, Note_on_c, 15, 52, 0
28, 31440, Note_on_c, 15, 52, 80
28, 31499, Note_on_c, 15, 52, 0
28, 31500, Note_on_c, 15, 54, 80
28, 31559, Note_on_c, 15, 54, 0
28, 31560, Note_on_c, 15, 55, 80
28, 31619, Note_on_c, 15, 55, 0
28, 31620, Note_on_c, 15, 54, 80
28, 31649, Note_on_c, 15, 54, 0
28, 31650, Note_on_c, 15, 52, 80
28, 31679, Note_on_c, 15, 52, 0
28, 31680, Note_on_c, 15, 54, 80
28, 31739, Note_on_c, 15, 54, 0
28, 31740, Note_on_c, 15, 42, 80
28, 31799, Note_on_c, 15, 42, 0
28, 31800, Note_on_c, 15, 42, 80
28, 31859, Note_on_c, 15, 42, 0
28, 31860, Note_on_c, 15, 42, 80
28, 31919, Note_on_c, 15, 42, 0
28, 31920, Note_on_c, 15, 42, 80
28, 31979, Note_on_c, 15, 42, 0
28, 31980, Note_on_c, 15, 42, 80
28, 32039, Note_on_c, 15, 42, 0
28, 32040, Note_on_c, 15, 54, 80
28, 32099, Note_on_c, 15, 54, 0
28, 32100, Note_on_c, 15, 42, 80
28, 32159, Note_on_c, 15, 42, 0
28, 32160, Note_on_c, 15, 42, 80
28, 32219, Note_on_c, 15, 42, 0
28, 32220, Note_on_c, 15, 42, 80
28, 32279, Note_on_c, 15, 42, 0
28, 32280, Note_on_c, 15, 42, 80
28, 32339, Note_on_c, 15, 42, 0
28, 32340, Note_on_c, 15, 42, 80
28, 32399, Note_on_c, 15, 42, 0
28, 32400, Note_on_c, 15, 42, 80
28, 32429, Note_on_c, 15, 42, 0
28, 32430, Note_on_c, 15, 66, 80
28, 32459, Note_on_c, 15, 66, 0
28, 32460, Note_on_c, 15, 64, 80
28, 32489, Note_on_c, 15, 64, 0
28, 32490, Note_on_c, 15, 62, 80
28, 32519, Note_on_c, 15, 62, 0
28, 32520, Note_on_c, 15, 61, 80
28, 32549, Note_on_c, 15, 61, 0
28, 32550, Note_on_c, 15, 59, 80
28, 32579, Note_on_c, 15, 59, 0
28, 32580, Note_on_c, 15, 58, 80
28, 32609, Note_on_c, 15, 58, 0
28, 32610, Note_on_c, 15, 56, 80
28, 32639, Note_on_c, 15, 56, 0
28, 32640, Note_on_c, 15, 54, 80
28, 32669, Note_on_c, 15, 54, 0
28, 32670, Note_on_c, 15, 52, 80
28, 32699, Note_on_c, 15, 52, 0
28, 32700, Note_on_c, 15, 50, 80
28, 32729, Note_on_c, 15, 50, 0
28, 32730, Note_on_c, 15, 49, 80
28, 32759, Note_on_c, 15, 49, 0
28, 32760, Note_on_c, 15, 47, 80
28, 32879, Note_on_c, 15, 47, 0
28, 33510, Note_on_c, 15, 59, 80
28, 33539, Note_on_c, 15, 59, 0
28, 33540, Note_on_c, 15, 57, 80
28, 33569, Note_on_c, 15, 57, 0
28, 33570, Note_on_c, 15, 55, 80
28, 33599, Note_on_c, 15, 55, 0
28, 33600, Note_on_c, 15, 54, 80
28, 33629, Note_on_c, 15, 54, 0
28, 33630, Note_on_c, 15, 52, 80
28, 33659, Note_on_c, 15, 52, 0
28, 33660, Note_on_c, 15, 51, 80
28, 33689, Note_on_c, 15, 51, 0
28, 33690, Note_on_c, 15, 49, 80
28, 33719, Note_on_c, 15, 49, 0
28, 33720, Note_on_c, 15, 47, 80
28, 33749, Note_on_c, 15, 47, 0
28, 33750, Note_on_c, 15, 45, 80
28, 33779, Note_on_c, 15, 45, 0
28, 33780, Note_on_c, 15, 43, 80
28, 33809, Note_on_c, 15, 43, 0
28, 33810, Note_on_c, 15, 42, 80
28, 33839, Note_on_c, 15, 42, 0
28, 33840, Note_on_c, 15, 40, 80
28, 33959, Note_on_c, 15, 40, 0
28, 34260, Note_on_c, 15, 45, 80
28, 34319, Note_on_c, 15, 45, 0
28, 34320, Note_on_c, 15, 45, 80
28, 34379, Note_on_c, 15, 45, 0
28, 34380, Note_on_c, 15, 45, 80
28, 34439, Note_on_c, 15, 45, 0
28, 34440, Note_on_c, 15, 45, 80
28, 34499, Note_on_c, 15, 45, 0
28, 34500, Note_on_c, 15, 47, 80
28, 34529, Note_on_c, 15, 47, 0
28, 34530, Note_on_c, 15, 49, 80
28, 34559, Note_on_c, 15, 49, 0
28, 34560, Note_on_c, 15, 50, 80
28, 34619, Note_on_c, 15, 50, 0
28, 34620, Note_on_c, 15, 38, 80
28, 34679, Note_on_c, 15, 38, 0
28, 34980, Note_on_c, 15, 43, 80
28, 35039, Note_on_c, 15, 43, 0
28, 35040, Note_on_c, 15, 43, 80
28, 35099, Note_on_c, 15, 43, 0
28, 35100, Note_on_c, 15, 43, 80
28, 35159, Note_on_c, 15, 43, 0
28, 35160, Note_on_c, 15, 43, 80
28, 35219, Note_on_c, 15, 43, 0
28, 35220, Note_on_c, 15, 45, 80
28, 35249, Note_on_c, 15, 45, 0
28, 35250, Note_on_c, 15, 47, 80
28, 35279, Note_on_c, 15, 47, 0
28, 35280, Note_on_c, 15, 49, 80
28, 35339, Note_on_c, 15, 49, 0
28, 35340, Note_on_c, 15, 37, 80
28, 35399, Note_on_c, 15, 37, 0
28, 35700, Note_on_c, 15, 42, 80
28, 35759, Note_on_c, 15, 42, 0
28, 35760, Note_on_c, 15, 42, 80
28, 35819, Note_on_c, 15, 42, 0
28, 35820, Note_on_c, 15, 42, 80
28, 35879, Note_on_c, 15, 42, 0
28, 35880, Note_on_c, 15, 42, 80
28, 35939, Note_on_c, 15, 42, 0
28, 35940, Note_on_c, 15, 44, 80
28, 35969, Note_on_c, 15, 44, 0
28, 35970, Note_on_c, 15, 46, 80
28, 35999, Note_on_c, 15, 46, 0
28, 36000, Note_on_c, 15, 47, 80
28, 36059, Note_on_c, 15, 47, 0
28, 36060, Note_on_c, 15, 59, 80
28, 36089, Note_on_c, 15, 59, 0
28, 36090, Note_on_c, 15, 57, 80
28, 36119, Note_on_c, 15, 57, 0
28, 36120, Note_on_c, 15, 55, 80
28, 36149, Note_on_c, 15, 55, 0
28, 36150, Note_on_c, 15, 54, 80
28, 36179, Note_on_c, 15, 54, 0
28, 36180, Note_on_c, 15, 55, 80
28, 36209, Note_on_c, 15, 55, 0
28, 36210, Note_on_c, 15, 54, 80
28, 36239, Note_on_c, 15, 54, 0
28, 36240, Note_on_c, 15, 52, 80
28, 36269, Note_on_c, 15, 52, 0
28, 36270, Note_on_c, 15, 50, 80
28, 36299, Note_on_c, 15, 50, 0
28, 36300, Note_on_c, 15, 52, 80
28, 36329, Note_on_c, 15, 52, 0
28, 36330, Note_on_c, 15, 49, 80
28, 36359, Note_on_c, 15, 49, 0
28, 36360, Note_on_c, 15, 54, 80
28, 36389, Note_on_c, 15, 54, 0
28, 36390, Note_on_c, 15, 42, 80
28, 36419, Note_on_c, 15, 42, 0
28, 36420, Note_on_c, 15, 44, 80
28, 36449, Note_on_c, 15, 44, 0
28, 36450, Note_on_c, 15, 46, 80
28, 36479, Note_on_c, 15, 46, 0
28, 36480, Note_on_c, 15, 47, 80
28, 36509, Note_on_c, 15, 47, 0
28, 36510, Note_on_c, 15, 49, 80
28, 36539, Note_on_c, 15, 49, 0
28, 36540, Note_on_c, 15, 50, 80
28, 36569, Note_on_c, 15, 50, 0
28, 36570, Note_on_c, 15, 52, 80
28, 36599, Note_on_c, 15, 52, 0
28, 36600, Note_on_c, 15, 54, 80
28, 36629, Note_on_c, 15, 54, 0
28, 36630, Note_on_c, 15, 52, 80
28, 36659, Note_on_c, 15, 52, 0
28, 36660, Note_on_c, 15, 54, 80
28, 36689, Note_on_c, 15, 54, 0
28, 36690, Note_on_c, 15, 52, 80
28, 36719, Note_on_c, 15, 52, 0
28, 36720, Note_on_c, 15, 54, 80
28, 36749, Note_on_c, 15, 54, 0
28, 36750, Note_on_c, 15, 42, 80
28, 36779, Note_on_c, 15, 42, 0
28, 36780, Note_on_c, 15, 44, 80
28, 36809, Note_on_c, 15, 44, 0
28, 36810, Note_on_c, 15, 46, 80
28, 36839, Note_on_c, 15, 46, 0
28, 36840, Note_on_c, 15, 47, 80
28, 36869, Note_on_c, 15, 47, 0
28, 36870, Note_on_c, 15, 49, 80
28, 36899, Note_on_c, 15, 49, 0
28, 36900, Note_on_c, 15, 50, 80
28, 36929, Note_on_c, 15, 50, 0
28, 36930, Note_on_c, 15, 52, 80
28, 36959, Note_on_c, 15, 52, 0
28, 36960, Note_on_c, 15, 54, 80
28, 36989, Note_on_c, 15, 54, 0
28, 36990, Note_on_c, 15, 52, 80
28, 37019, Note_on_c, 15, 52, 0
28, 37020, Note_on_c, 15, 54, 80
28, 37049, Note_on_c, 15, 54, 0
28, 37050, Note_on_c, 15, 52, 80
28, 37079, Note_on_c, 15, 52, 0
28, 37080, Note_on_c, 15, 54, 80
28, 37109, Note_on_c, 15, 54, 0
28, 37110, Note_on_c, 15, 42, 80
28, 37139, Note_on_c, 15, 42, 0
28, 37140, Note_on_c, 15, 44, 80
28, 37169, Note_on_c, 15, 44, 0
28, 37170, Note_on_c, 15, 46, 80
28, 37199, Note_on_c, 15, 46, 0
28, 37200, Note_on_c, 15, 47, 80
28, 37229, Note_on_c, 15, 47, 0
28, 37230, Note_on_c, 15, 49, 80
28, 37259, Note_on_c, 15, 49, 0
28, 37260, Note_on_c, 15, 50, 80
28, 37289, Note_on_c, 15, 50, 0
28, 37290, Note_on_c, 15, 52, 80
28, 37319, Note_on_c, 15, 52, 0
28, 37320, Note_on_c, 15, 54, 80
28, 37349, Note_on_c, 15, 54, 0
28, 37350, Note_on_c, 15, 56, 80
28, 37379, Note_on_c, 15, 56, 0
28, 37380, Note_on_c, 15, 58, 80
28, 37409, Note_on_c, 15, 58, 0
28, 37410, Note_on_c, 15, 54, 80
28, 37439, Note_on_c, 15, 54, 0
28, 37440, Note_on_c, 15, 59, 80
28, 37469, Note_on_c, 15, 59, 0
28, 37470, Note_on_c, 15, 50, 80
28, 37499, Note_on_c, 15, 50, 0
28, 37500, Note_on_c, 15, 52, 80
28, 37529, Note_on_c, 15, 52, 0
28, 37530, Note_on_c, 15, 54, 80
28, 37559, Note_on_c, 15, 54, 0
28, 37560, Note_on_c, 15, 55, 80
28, 37589, Note_on_c, 15, 55, 0
28, 37590, Note_on_c, 15, 54, 80
28, 37619, Note_on_c, 15, 54, 0
28, 37620, Note_on_c, 15, 55, 80
28, 37649, Note_on_c, 15, 55, 0
28, 37650, Note_on_c, 15, 52, 80
28, 37679, Note_on_c, 15, 52, 0
28, 37680, Note_on_c, 15, 54, 80
28, 37739, Note_on_c, 15, 54, 0
28, 37740, Note_on_c, 15, 42, 80
28, 37799, Note_on_c, 15, 42, 0
28, 37830, Note_on_c, 15, 49, 80
28, 37859, Note_on_c, 15, 49, 0
28, 37860, Note_on_c, 15, 51, 80
28, 37889, Note_on_c, 15, 51, 0
28, 37890, Note_on_c, 15, 53, 80
28, 37919, Note_on_c, 15, 53, 0
28, 37920, Note_on_c, 15, 54, 80
28, 37949, Note_on_c, 15, 54, 0
28, 37950, Note_on_c, 15, 56, 80
28, 37979, Note_on_c, 15, 56, 0
28, 37980, Note_on_c, 15, 57, 80
28, 38009, Note_on_c, 15, 57, 0
28, 38010, Note_on_c, 15, 59, 80
28, 38039, Note_on_c, 15, 59, 0
28, 38040, Note_on_c, 15, 61, 80
28, 38069, Note_on_c, 15, 61, 0
28, 38070, Note_on_c, 15, 59, 80
28, 38099, Note_on_c, 15, 59, 0
28, 38100, Note_on_c, 15, 61, 80
28, 38129, Note_on_c, 15, 61, 0
28, 38130, Note_on_c, 15, 59, 80
28, 38159, Note_on_c, 15, 59, 0
28, 38160, Note_on_c, 15, 61, 80
28, 38189, Note_on_c, 15, 61, 0
28, 38190, Note_on_c, 15, 49, 80
28, 38219, Note_on_c, 15, 49, 0
28, 38220, Note_on_c, 15, 51, 80
28, 38249, Note_on_c, 15, 51, 0
28, 38250, Note_on_c, 15, 53, 80
28, 38279, Note_on_c, 15, 53, 0
28, 38280, Note_on_c, 15, 54, 80
28, 38309, Note_on_c, 15, 54, 0
28, 38310, Note_on_c, 15, 56, 80
28, 38339, Note_on_c, 15, 56, 0
28, 38340, Note_on_c, 15, 57, 80
28, 38369, Note_on_c, 15, 57, 0
28, 38370, Note_on_c, 15, 59, 80
28, 38399, Note_on_c, 15, 59, 0
28, 38400, Note_on_c, 15, 61, 80
28, 38429, Note_on_c, 15, 61, 0
28, 38430, Note_on_c, 15, 59, 80
28, 38459, Note_on_c, 15, 59, 0
28, 38460, Note_on_c, 15, 61, 80
28, 38489, Note_on_c, 15, 61, 0
28, 38490, Note_on_c, 15, 59, 80
28, 38519, Note_on_c, 15, 59, 0
28, 38520, Note_on_c, 15, 61, 80
28, 38549, Note_on_c, 15, 61, 0
28, 38550, Note_on_c, 15, 49, 80
28, 38579, Note_on_c, 15, 49, 0
28, 38580, Note_on_c, 15, 51, 80
28, 38609, Note_on_c, 15, 51, 0
28, 38610, Note_on_c, 15, 53, 80
28, 38639, Note_on_c, 15, 53, 0
28, 38640, Note_on_c, 15, 54, 80
28, 38669, Note_on_c, 15, 54, 0
28, 38670, Note_on_c, 15, 56, 80
28, 38699, Note_on_c, 15, 56, 0
28, 38700, Note_on_c, 15, 57, 80
28, 38729, Note_on_c, 15, 57, 0
28, 38730, Note_on_c, 15, 59, 80
28, 38759, Note_on_c, 15, 59, 0
28, 38760, Note_on_c, 15, 61, 80
28, 38789, Note_on_c, 15, 61, 0
28, 38790, Note_on_c, 15, 59, 80
28, 38819, Note_on_c, 15, 59, 0
28, 38820, Note_on_c, 15, 61, 80
28, 38849, Note_on_c, 15, 61, 0
28, 38850, Note_on_c, 15, 59, 80
28, 38879, Note_on_c, 15, 59, 0
28, 38880, Note_on_c, 15, 57, 80
28, 38909, Note_on_c, 15, 57, 0
28, 38910, Note_on_c, 15, 56, 80
28, 38939, Note_on_c, 15, 56, 0
28, 38940, Note_on_c, 15, 57, 80
28, 38969, Note_on_c, 15, 57, 0
28, 38970, Note_on_c, 15, 56, 80
28, 38999, Note_on_c, 15, 56, 0
28, 39000, Note_on_c, 15, 54, 80
28, 39029, Note_on_c, 15, 54, 0
28, 39030, Note_on_c, 15, 52, 80
28, 39059, Note_on_c, 15, 52, 0
28, 39060, Note_on_c, 15, 54, 80
28, 39089, Note_on_c, 15, 54, 0
28, 39090, Note_on_c, 15, 52, 80
28, 39119, Note_on_c, 15, 52, 0
28, 39120, Note_on_c, 15, 50, 80
28, 39149, Note_on_c, 15, 50, 0
28, 39150, Note_on_c, 15, 49, 80
28, 39179, Note_on_c, 15, 49, 0
28, 39180, Note_on_c, 15, 50, 80
28, 39209, Note_on_c, 15, 50, 0
28, 39210, Note_on_c, 15, 49, 80
28, 39239, Note_on_c, 15, 49, 0
28, 39240, Note_on_c, 15, 47, 80
28, 39419, Note_on_c, 15, 47, 0
28, 39420, Note_on_c, 15, 45, 80
28, 39449, Note_on_c, 15, 45, 0
28, 39450, Note_on_c, 15, 47, 80
28, 39479, Note_on_c, 15, 47, 0
28, 39480, Note_on_c, 15, 49, 80
28, 39539, Note_on_c, 15, 49, 0
28, 39540, Note_on_c, 15, 37, 80
28, 39599, Note_on_c, 15, 37, 0
28, 39600, Note_on_c, 15, 42, 80
28, 39959, Note_on_c, 15, 42, 0
28, 39960, Note_on_c, 15, 50, 80
28, 40020, Note_on_c, 15, 50, 0
28, 40020, Note_on_c, 15, 38, 80
28, 40080, Note_on_c, 15, 38, 0
28, 40080, Note_on_c, 15, 38, 80
28, 40140, Note_on_c, 15, 38, 0
28, 40140, Note_on_c, 15, 38, 80
28, 40200, Note_on_c, 15, 38, 0
28, 40200, Note_on_c, 15, 38, 80
28, 40260, Note_on_c, 15, 38, 0
28, 40260, Note_on_c, 15, 38, 80
28, 40320, Note_on_c, 15, 38, 0
28, 40320, Note_on_c, 15, 50, 80
28, 40380, Note_on_c, 15, 50, 0
28, 40380, Note_on_c, 15, 38, 80
28, 40440, Note_on_c, 15, 38, 0
28, 40440, Note_on_c, 15, 38, 80
28, 40500, Note_on_c, 15, 38, 0
28, 40500, Note_on_c, 15, 38, 80
28, 40560, Note_on_c, 15, 38, 0
28, 40560, Note_on_c, 15, 38, 80
28, 40620, Note_on_c, 15, 38, 0
28, 40620, Note_on_c, 15, 38, 80
28, 40680, Note_on_c, 15, 38, 0
28, 40680, Note_on_c, 15, 50, 80
28, 40740, Note_on_c, 15, 50, 0
28, 40740, Note_on_c, 15, 38, 80
28, 40800, Note_on_c, 15, 38, 0
28, 40800, Note_on_c, 15, 38, 80
28, 40860, Note_on_c, 15, 38, 0
28, 40860, Note_on_c, 15, 38, 80
28, 40920, Note_on_c, 15, 38, 0
28, 40920, Note_on_c, 15, 38, 80
28, 40980, Note_on_c, 15, 38, 0
28, 40980, Note_on_c, 15, 38, 80
28, 41040, Note_on_c, 15, 38, 0
28, 41040, Note_on_c, 15, 50, 80
28, 41100, Note_on_c, 15, 50, 0
28, 41100, Note_on_c, 15, 38, 80
28, 41160, Note_on_c, 15, 38, 0
28, 41160, Note_on_c, 15, 38, 80
28, 41220, Note_on_c, 15, 38, 0
28, 41220, Note_on_c, 15, 38, 80
28, 41280, Note_on_c, 15, 38, 0
28, 41280, Note_on_c, 15, 38, 80
28, 41340, Note_on_c, 15, 38, 0
28, 41340, Note_on_c, 15, 38, 80
28, 41400, Note_on_c, 15, 38, 0
28, 41430, Note_on_c, 15, 50, 80
28, 41459, Note_on_c, 15, 50, 0
28, 41460, Note_on_c, 15, 52, 80
28, 41489, Note_on_c, 15, 52, 0
28, 41490, Note_on_c, 15, 54, 80
28, 41519, Note_on_c, 15, 54, 0
28, 41520, Note_on_c, 15, 55, 80
28, 41549, Note_on_c, 15, 55, 0
28, 41550, Note_on_c, 15, 57, 80
28, 41579, Note_on_c, 15, 57, 0
28, 41580, Note_on_c, 15, 59, 80
28, 41609, Note_on_c, 15, 59, 0
28, 41610, Note_on_c, 15, 61, 80
28, 41639, Note_on_c, 15, 61, 0
28, 41640, Note_on_c, 15, 62, 80
28, 41669, Note_on_c, 15, 62, 0
28, 41670, Note_on_c, 15, 61, 80
28, 41699, Note_on_c, 15, 61, 0
28, 41700, Note_on_c, 15, 62, 80
28, 41729, Note_on_c, 15, 62, 0
28, 41730, Note_on_c, 15, 61, 80
28, 41759, Note_on_c, 15, 61, 0
28, 41760, Note_on_c, 15, 59, 80
28, 41789, Note_on_c, 15, 59, 0
28, 41790, Note_on_c, 15, 47, 80
28, 41819, Note_on_c, 15, 47, 0
28, 41820, Note_on_c, 15, 49, 80
28, 41849, Note_on_c, 15, 49, 0
28, 41850, Note_on_c, 15, 50, 80
28, 41879, Note_on_c, 15, 50, 0
28, 41880, Note_on_c, 15, 52, 80
28, 41909, Note_on_c, 15, 52, 0
28, 41910, Note_on_c, 15, 54, 80
28, 41939, Note_on_c, 15, 54, 0
28, 41940, Note_on_c, 15, 55, 80
28, 41969, Note_on_c, 15, 55, 0
28, 41970, Note_on_c, 15, 57, 80
28, 41999, Note_on_c, 15, 57, 0
28, 42000, Note_on_c, 15, 59, 80
28, 42029, Note_on_c, 15, 59, 0
28, 42030, Note_on_c, 15, 57, 80
28, 42059, Note_on_c, 15, 57, 0
28, 42060, Note_on_c, 15, 59, 80
28, 42089, Note_on_c, 15, 59, 0
28, 42090, Note_on_c, 15, 57, 80
28, 42119, Note_on_c, 15, 57, 0
28, 42120, Note_on_c, 15, 56, 80
28, 42149, Note_on_c, 15, 56, 0
28, 42150, Note_on_c, 15, 54, 80
28, 42179, Note_on_c, 15, 54, 0
28, 42180, Note_on_c, 15, 56, 80
28, 42209, Note_on_c, 15, 56, 0
28, 42210, Note_on_c, 15, 54, 80
28, 42239, Note_on_c, 15, 54, 0
28, 42240, Note_on_c, 15, 52, 80
28, 42269, Note_on_c, 15, 52, 0
28, 42270, Note_on_c, 15, 50, 80
28, 42299, Note_on_c, 15, 50, 0
28, 42300, Note_on_c, 15, 52, 80
28, 42329, Note_on_c, 15, 52, 0
28, 42330, Note_on_c, 15, 50, 80
28, 42359, Note_on_c, 15, 50, 0
28, 42360, Note_on_c, 15, 49, 80
28, 42389, Note_on_c, 15, 49, 0
28, 42390, Note_on_c, 15, 47, 80
28, 42419, Note_on_c, 15, 47, 0
28, 42420, Note_on_c, 15, 49, 80
28, 42449, Note_on_c, 15, 49, 0
28, 42450, Note_on_c, 15, 47, 80
28, 42479, Note_on_c, 15, 47, 0
28, 42480, Note_on_c, 15, 45, 80
28, 42509, Note_on_c, 15, 45, 0
28, 42510, Note_on_c, 15, 40, 80
28, 42539, Note_on_c, 15, 40, 0
28, 42540, Note_on_c, 15, 42, 80
28, 42569, Note_on_c, 15, 42, 0
28, 42570, Note_on_c, 15, 44, 80
28, 42599, Note_on_c, 15, 44, 0
28, 42600, Note_on_c, 15, 45, 80
28, 42629, Note_on_c, 15, 45, 0
28, 42630, Note_on_c, 15, 47, 80
28, 42659, Note_on_c, 15, 47, 0
28, 42660, Note_on_c, 15, 49, 80
28, 42689, Note_on_c, 15, 49, 0
28, 42690, Note_on_c, 15, 50, 80
28, 42719, Note_on_c, 15, 50, 0
28, 42720, Note_on_c, 15, 52, 80
28, 42749, Note_on_c, 15, 52, 0
28, 42750, Note_on_c, 15, 50, 80
28, 42779, Note_on_c, 15, 50, 0
28, 42780, Note_on_c, 15, 52, 80
28, 42809, Note_on_c, 15, 52, 0
28, 42810, Note_on_c, 15, 40, 80
28, 42839, Note_on_c, 15, 40, 0
28, 42840, Note_on_c, 15, 45, 80
28, 42959, Note_on_c, 15, 45, 0
28, 43590, Note_on_c, 15, 59, 80
28, 43619, Note_on_c, 15, 59, 0
28, 43620, Note_on_c, 15, 57, 80
28, 43649, Note_on_c, 15, 57, 0
28, 43650, Note_on_c, 15, 55, 80
28, 43679, Note_on_c, 15, 55, 0
28, 43680, Note_on_c, 15, 54, 80
28, 43709, Note_on_c, 15, 54, 0
28, 43710, Note_on_c, 15, 52, 80
28, 43739, Note_on_c, 15, 52, 0
28, 43740, Note_on_c, 15, 51, 80
28, 43769, Note_on_c, 15, 51, 0
28, 43770, Note_on_c, 15, 49, 80
28, 43799, Note_on_c, 15, 49, 0
28, 43800, Note_on_c, 15, 47, 80
28, 43829, Note_on_c, 15, 47, 0
28, 43830, Note_on_c, 15, 45, 80
28, 43859, Note_on_c, 15, 45, 0
28, 43860, Note_on_c, 15, 43, 80
28, 43889, Note_on_c, 15, 43, 0
28, 43890, Note_on_c, 15, 42, 80
28, 43919, Note_on_c, 15, 42, 0
28, 43920, Note_on_c, 15, 40, 80
28, 44039, Note_on_c, 15, 40, 0
28, 44670, Note_on_c, 15, 57, 80
28, 44699, Note_on_c, 15, 57, 0
28, 44700, Note_on_c, 15, 55, 80
28, 44729, Note_on_c, 15, 55, 0
28, 44730, Note_on_c, 15, 54, 80
28, 44759, Note_on_c, 15, 54, 0
28, 44760, Note_on_c, 15, 52, 80
28, 44789, Note_on_c, 15, 52, 0
28, 44790, Note_on_c, 15, 50, 80
28, 44819, Note_on_c, 15, 50, 0
28, 44820, Note_on_c, 15, 49, 80
28, 44849, Note_on_c, 15, 49, 0
28, 44850, Note_on_c, 15, 47, 80
28, 44879, Note_on_c, 15, 47, 0
28, 44880, Note_on_c, 15, 45, 80
28, 44909, Note_on_c, 15, 45, 0
28, 44910, Note_on_c, 15, 43, 80
28, 44939, Note_on_c, 15, 43, 0
28, 44940, Note_on_c, 15, 42, 80
28, 44969, Note_on_c, 15, 42, 0
28, 44970, Note_on_c, 15, 40, 80
28, 44999, Note_on_c, 15, 40, 0
28, 45000, Note_on_c, 15, 38, 80
28, 45059, Note_on_c, 15, 38, 0
28, 45060, Note_on_c, 15, 50, 80
28, 45119, Note_on_c, 15, 50, 0
28, 45120, Note_on_c, 15, 50, 80
28, 45179, Note_on_c, 15, 50, 0
28, 45180, Note_on_c, 15, 50, 80
28, 45239, Note_on_c, 15, 50, 0
28, 45240, Note_on_c, 15, 50, 80
28, 45299, Note_on_c, 15, 50, 0
28, 45300, Note_on_c, 15, 52, 80
28, 45329, Note_on_c, 15, 52, 0
28, 45330, Note_on_c, 15, 54, 80
28, 45359, Note_on_c, 15, 54, 0
28, 45360, Note_on_c, 15, 55, 80
28, 45419, Note_on_c, 15, 55, 0
28, 45420, Note_on_c, 15, 49, 80
28, 45479, Note_on_c, 15, 49, 0
28, 45480, Note_on_c, 15, 49, 80
28, 45539, Note_on_c, 15, 49, 0
28, 45540, Note_on_c, 15, 49, 80
28, 45599, Note_on_c, 15, 49, 0
28, 45600, Note_on_c, 15, 49, 80
28, 45659, Note_on_c, 15, 49, 0
28, 45660, Note_on_c, 15, 50, 80
28, 45689, Note_on_c, 15, 50, 0
28, 45690, Note_on_c, 15, 52, 80
28, 45719, Note_on_c, 15, 52, 0
28, 45720, Note_on_c, 15, 54, 80
28, 45779, Note_on_c, 15, 54, 0
28, 45780, Note_on_c, 15, 47, 80
28, 45839, Note_on_c, 15, 47, 0
28, 45840, Note_on_c, 15, 47, 80
28, 45899, Note_on_c, 15, 47, 0
28, 45900, Note_on_c, 15, 47, 80
28, 45959, Note_on_c, 15, 47, 0
28, 45960, Note_on_c, 15, 47, 80
28, 46019, Note_on_c, 15, 47, 0
28, 46020, Note_on_c, 15, 49, 80
28, 46049, Note_on_c, 15, 49, 0
28, 46050, Note_on_c, 15, 50, 80
28, 46079, Note_on_c, 15, 50, 0
28, 46080, Note_on_c, 15, 52, 80
28, 46139, Note_on_c, 15, 52, 0
28, 46140, Note_on_c, 15, 45, 80
28, 46199, Note_on_c, 15, 45, 0
28, 46200, Note_on_c, 15, 45, 80
28, 46259, Note_on_c, 15, 45, 0
28, 46260, Note_on_c, 15, 45, 80
28, 46319, Note_on_c, 15, 45, 0
28, 46320, Note_on_c, 15, 45, 80
28, 46379, Note_on_c, 15, 45, 0
28, 46380, Note_on_c, 15, 47, 80
28, 46409, Note_on_c, 15, 47, 0
28, 46410, Note_on_c, 15, 49, 80
28, 46439, Note_on_c, 15, 49, 0
28, 46440, Note_on_c, 15, 50, 80
28, 46469, Note_on_c, 15, 50, 0
28, 46470, Note_on_c, 15, 57, 80
28, 46499, Note_on_c, 15, 57, 0
28, 46500, Note_on_c, 15, 59, 80
28, 46529, Note_on_c, 15, 59, 0
28, 46530, Note_on_c, 15, 61, 80
28, 46559, Note_on_c, 15, 61, 0
28, 46560, Note_on_c, 15, 62, 80
28, 46589, Note_on_c, 15, 62, 0
28, 46590, Note_on_c, 15, 64, 80
28, 46619, Note_on_c, 15, 64, 0
28, 46620, Note_on_c, 15, 66, 80
28, 46649, Note_on_c, 15, 66, 0
28, 46650, Note_on_c, 15, 64, 80
28, 46679, Note_on_c, 15, 64, 0
28, 46680, Note_on_c, 15, 62, 80
28, 46709, Note_on_c, 15, 62, 0
28, 46710, Note_on_c, 15, 61, 80
28, 46739, Note_on_c, 15, 61, 0
28, 46740, Note_on_c, 15, 59, 80
28, 46769, Note_on_c, 15, 59, 0
28, 46770, Note_on_c, 15, 57, 80
28, 46799, Note_on_c, 15, 57, 0
28, 46800, Note_on_c, 15, 59, 80
28, 46829, Note_on_c, 15, 59, 0
28, 46830, Note_on_c, 15, 60, 80
28, 46859, Note_on_c, 15, 60, 0
28, 46860, Note_on_c, 15, 62, 80
28, 46889, Note_on_c, 15, 62, 0
28, 46890, Note_on_c, 15, 60, 80
28, 46919, Note_on_c, 15, 60, 0
28, 46920, Note_on_c, 15, 59, 80
28, 46949, Note_on_c, 15, 59, 0
28, 46950, Note_on_c, 15, 57, 80
28, 46979, Note_on_c, 15, 57, 0
28, 46980, Note_on_c, 15, 56, 80
28, 47009, Note_on_c, 15, 56, 0
28, 47010, Note_on_c, 15, 54, 80
28, 47039, Note_on_c, 15, 54, 0
28, 47040, Note_on_c, 15, 56, 80
28, 47069, Note_on_c, 15, 56, 0
28, 47070, Note_on_c, 15, 57, 80
28, 47099, Note_on_c, 15, 57, 0
28, 47100, Note_on_c, 15, 59, 80
28, 47129, Note_on_c, 15, 59, 0
28, 47130, Note_on_c, 15, 57, 80
28, 47159, Note_on_c, 15, 57, 0
28, 47160, Note_on_c, 15, 56, 80
28, 47189, Note_on_c, 15, 56, 0
28, 47190, Note_on_c, 15, 54, 80
28, 47219, Note_on_c, 15, 54, 0
28, 47220, Note_on_c, 15, 52, 80
28, 47249, Note_on_c, 15, 52, 0
28, 47250, Note_on_c, 15, 50, 80
28, 47279, Note_on_c, 15, 50, 0
28, 47280, Note_on_c, 15, 52, 80
28, 47309, Note_on_c, 15, 52, 0
28, 47310, Note_on_c, 15, 54, 80
28, 47339, Note_on_c, 15, 54, 0
28, 47340, Note_on_c, 15, 56, 80
28, 47369, Note_on_c, 15, 56, 0
28, 47370, Note_on_c, 15, 54, 80
28, 47399, Note_on_c, 15, 54, 0
28, 47400, Note_on_c, 15, 52, 80
28, 47429, Note_on_c, 15, 52, 0
28, 47430, Note_on_c, 15, 50, 80
28, 47459, Note_on_c, 15, 50, 0
28, 47460, Note_on_c, 15, 49, 80
28, 47489, Note_on_c, 15, 49, 0
28, 47490, Note_on_c, 15, 47, 80
28, 47519, Note_on_c, 15, 47, 0
28, 47520, Note_on_c, 15, 45, 80
28, 47549, Note_on_c, 15, 45, 0
28, 47550, Note_on_c, 15, 45, 80
28, 47579, Note_on_c, 15, 45, 0
28, 47580, Note_on_c, 15, 47, 80
28, 47609, Note_on_c, 15, 47, 0
28, 47610, Note_on_c, 15, 49, 80
28, 47639, Note_on_c, 15, 49, 0
28, 47640, Note_on_c, 15, 50, 80
28, 47669, Note_on_c, 15, 50, 0
28, 47670, Note_on_c, 15, 52, 80
28, 47699, Note_on_c, 15, 52, 0
28, 47700, Note_on_c, 15, 54, 80
28, 47729, Note_on_c, 15, 54, 0
28, 47730, Note_on_c, 15, 55, 80
28, 47759, Note_on_c, 15, 55, 0
28, 47760, Note_on_c, 15, 57, 80
28, 47789, Note_on_c, 15, 57, 0
28, 47790, Note_on_c, 15, 55, 80
28, 47819, Note_on_c, 15, 55, 0
28, 47820, Note_on_c, 15, 57, 80
28, 47849, Note_on_c, 15, 57, 0
28, 47850, Note_on_c, 15, 55, 80
28, 47879, Note_on_c, 15, 55, 0
28, 47880, Note_on_c, 15, 57, 80
28, 47909, Note_on_c, 15, 57, 0
28, 47910, Note_on_c, 15, 45, 80
28, 47939, Note_on_c, 15, 45, 0
28, 47940, Note_on_c, 15, 47, 80
28, 47969, Note_on_c, 15, 47, 0
28, 47970, Note_on_c, 15, 49, 80
28, 47999, Note_on_c, 15, 49, 0
28, 48000, Note_on_c, 15, 50, 80
28, 48029, Note_on_c, 15, 50, 0
28, 48030, Note_on_c, 15, 52, 80
28, 48059, Note_on_c, 15, 52, 0
28, 48060, Note_on_c, 15, 54, 80
28, 48089, Note_on_c, 15, 54, 0
28, 48090, Note_on_c, 15, 55, 80
28, 48119, Note_on_c, 15, 55, 0
28, 48120, Note_on_c, 15, 57, 80
28, 48149, Note_on_c, 15, 57, 0
28, 48150, Note_on_c, 15, 55, 80
28, 48179, Note_on_c, 15, 55, 0
28, 48180, Note_on_c, 15, 57, 80
28, 48209, Note_on_c, 15, 57, 0
28, 48210, Note_on_c, 15, 55, 80
28, 48239, Note_on_c, 15, 55, 0
28, 48240, Note_on_c, 15, 57, 80
28, 48269, Note_on_c, 15, 57, 0
28, 48270, Note_on_c, 15, 45, 80
28, 48299, Note_on_c, 15, 45, 0
28, 48300, Note_on_c, 15, 47, 80
28, 48329, Note_on_c, 15, 47, 0
28, 48330, Note_on_c, 15, 49, 80
28, 48359, Note_on_c, 15, 49, 0
28, 48360, Note_on_c, 15, 50, 80
28, 48389, Note_on_c, 15, 50, 0
28, 48390, Note_on_c, 15, 52, 80
28, 48419, Note_on_c, 15, 52, 0
28, 48420, Note_on_c, 15, 54, 80
28, 48449, Note_on_c, 15, 54, 0
28, 48450, Note_on_c, 15, 55, 80
28, 48479, Note_on_c, 15, 55, 0
28, 48480, Note_on_c, 15, 57, 80
28, 48509, Note_on_c, 15, 57, 0
28, 48510, Note_on_c, 15, 55, 80
28, 48539, Note_on_c, 15, 55, 0
28, 48540, Note_on_c, 15, 57, 80
28, 48569, Note_on_c, 15, 57, 0
28, 48570, Note_on_c, 15, 55, 80
28, 48599, Note_on_c, 15, 55, 0
28, 48600, Note_on_c, 15, 54, 80
28, 48629, Note_on_c, 15, 54, 0
28, 48630, Note_on_c, 15, 50, 80
28, 48659, Note_on_c, 15, 50, 0
28, 48660, Note_on_c, 15, 52, 80
28, 48689, Note_on_c, 15, 52, 0
28, 48690, Note_on_c, 15, 54, 80
28, 48719, Note_on_c, 15, 54, 0
28, 48720, Note_on_c, 15, 55, 80
28, 48749, Note_on_c, 15, 55, 0
28, 48750, Note_on_c, 15, 57, 80
28, 48779, Note_on_c, 15, 57, 0
28, 48780, Note_on_c, 15, 59, 80
28, 48809, Note_on_c, 15, 59, 0
28, 48810, Note_on_c, 15, 61, 80
28, 48839, Note_on_c, 15, 61, 0
28, 48840, Note_on_c, 15, 62, 80
28, 48869, Note_on_c, 15, 62, 0
28, 48870, Note_on_c, 15, 61, 80
28, 48899, Note_on_c, 15, 61, 0
28, 48900, Note_on_c, 15, 62, 80
28, 48929, Note_on_c, 15, 62, 0
28, 48930, Note_on_c, 15, 61, 80
28, 48959, Note_on_c, 15, 61, 0
28, 48960, Note_on_c, 15, 59, 80
28, 48989, Note_on_c, 15, 59, 0
28, 48990, Note_on_c, 15, 47, 80
28, 49019, Note_on_c, 15, 47, 0
28, 49020, Note_on_c, 15, 49, 80
28, 49049, Note_on_c, 15, 49, 0
28, 49050, Note_on_c, 15, 50, 80
28, 49079, Note_on_c, 15, 50, 0
28, 49080, Note_on_c, 15, 52, 80
28, 49109, Note_on_c, 15, 52, 0
28, 49110, Note_on_c, 15, 54, 80
28, 49139, Note_on_c, 15, 54, 0
28, 49140, Note_on_c, 15, 55, 80
28, 49169, Note_on_c, 15, 55, 0
28, 49170, Note_on_c, 15, 57, 80
28, 49199, Note_on_c, 15, 57, 0
28, 49200, Note_on_c, 15, 59, 80
28, 49229, Note_on_c, 15, 59, 0
28, 49230, Note_on_c, 15, 57, 80
28, 49259, Note_on_c, 15, 57, 0
28, 49260, Note_on_c, 15, 59, 80
28, 49289, Note_on_c, 15, 59, 0
28, 49290, Note_on_c, 15, 57, 80
28, 49319, Note_on_c, 15, 57, 0
28, 49320, Note_on_c, 15, 55, 80
28, 49349, Note_on_c, 15, 55, 0
28, 49350, Note_on_c, 15, 54, 80
28, 49379, Note_on_c, 15, 54, 0
28, 49380, Note_on_c, 15, 55, 80
28, 49409, Note_on_c, 15, 55, 0
28, 49410, Note_on_c, 15, 54, 80
28, 49439, Note_on_c, 15, 54, 0
28, 49440, Note_on_c, 15, 52, 80
28, 49469, Note_on_c, 15, 52, 0
28, 49470, Note_on_c, 15, 50, 80
28, 49499, Note_on_c, 15, 50, 0
28, 49500, Note_on_c, 15, 52, 80
28, 49529, Note_on_c, 15, 52, 0
28, 49530, Note_on_c, 15, 50, 80
28, 49559, Note_on_c, 15, 50, 0
28, 49560, Note_on_c, 15, 49, 80
28, 49589, Note_on_c, 15, 49, 0
28, 49590, Note_on_c, 15, 47, 80
28, 49619, Note_on_c, 15, 47, 0
28, 49620, Note_on_c, 15, 49, 80
28, 49649, Note_on_c, 15, 49, 0
28, 49650, Note_on_c, 15, 47, 80
28, 49679, Note_on_c, 15, 47, 0
28, 49680, Note_on_c, 15, 49, 80
28, 49709, Note_on_c, 15, 49, 0
28, 49710, Note_on_c, 15, 45, 80
28, 49739, Note_on_c, 15, 45, 0
28, 49740, Note_on_c, 15, 47, 80
28, 49769, Note_on_c, 15, 47, 0
28, 49770, Note_on_c, 15, 49, 80
28, 49799, Note_on_c, 15, 49, 0
28, 49800, Note_on_c, 15, 50, 80
28, 49829, Note_on_c, 15, 50, 0
28, 49830, Note_on_c, 15, 52, 80
28, 49859, Note_on_c, 15, 52, 0
28, 49860, Note_on_c, 15, 54, 80
28, 49889, Note_on_c, 15, 54, 0
28, 49890, Note_on_c, 15, 55, 80
28, 49919, Note_on_c, 15, 55, 0
28, 49920, Note_on_c, 15, 57, 80
28, 49979, Note_on_c, 15, 57, 0
28, 49980, Note_on_c, 15, 45, 80
28, 50039, Note_on_c, 15, 45, 0
28, 50040, Note_on_c, 15, 50, 80
28, 50069, Note_on_c, 15, 50, 0
28, 50070, Note_on_c, 15, 62, 80
28, 50099, Note_on_c, 15, 62, 0
28, 50100, Note_on_c, 15, 61, 80
28, 50129, Note_on_c, 15, 61, 0
28, 50130, Note_on_c, 15, 59, 80
28, 50159, Note_on_c, 15, 59, 0
28, 50160, Note_on_c, 15, 57, 80
28, 50189, Note_on_c, 15, 57, 0
28, 50190, Note_on_c, 15, 55, 80
28, 50219, Note_on_c, 15, 55, 0
28, 50220, Note_on_c, 15, 54, 80
28, 50249, Note_on_c, 15, 54, 0
28, 50250, Note_on_c, 15, 52, 80
28, 50279, Note_on_c, 15, 52, 0
28, 50280, Note_on_c, 15, 50, 80
28, 50339, Note_on_c, 15, 50, 0
28, 50430, Note_on_c, 15, 59, 80
28, 50459, Note_on_c, 15, 59, 0
28, 50460, Note_on_c, 15, 57, 80
28, 50489, Note_on_c, 15, 57, 0
28, 50490, Note_on_c, 15, 55, 80
28, 50519, Note_on_c, 15, 55, 0
28, 50520, Note_on_c, 15, 54, 80
28, 50549, Note_on_c, 15, 54, 0
28, 50550, Note_on_c, 15, 52, 80
28, 50579, Note_on_c, 15, 52, 0
28, 50580, Note_on_c, 15, 50, 80
28, 50609, Note_on_c, 15, 50, 0
28, 50610, Note_on_c, 15, 49, 80
28, 50639, Note_on_c, 15, 49, 0
28, 50640, Note_on_c, 15, 47, 80
28, 50699, Note_on_c, 15, 47, 0
28, 50790, Note_on_c, 15, 54, 80
28, 50819, Note_on_c, 15, 54, 0
28, 50820, Note_on_c, 15, 52, 80
28, 50849, Note_on_c, 15, 52, 0
28, 50850, Note_on_c, 15, 50, 80
28, 50879, Note_on_c, 15, 50, 0
28, 50880, Note_on_c, 15, 49, 80
28, 50909, Note_on_c, 15, 49, 0
28, 50910, Note_on_c, 15, 47, 80
28, 50939, Note_on_c, 15, 47, 0
28, 50940, Note_on_c, 15, 45, 80
28, 50969, Note_on_c, 15, 45, 0
28, 50970, Note_on_c, 15, 43, 80
28, 50999, Note_on_c, 15, 43, 0
28, 51000, Note_on_c, 15, 42, 80
28, 51059, Note_on_c, 15, 42, 0
28, 51150, Note_on_c, 15, 38, 80
28, 51179, Note_on_c, 15, 38, 0
28, 51180, Note_on_c, 15, 40, 80
28, 51209, Note_on_c, 15, 40, 0
28, 51210, Note_on_c, 15, 42, 80
28, 51239, Note_on_c, 15, 42, 0
28, 51240, Note_on_c, 15, 43, 80
28, 51269, Note_on_c, 15, 43, 0
28, 51270, Note_on_c, 15, 45, 80
28, 51299, Note_on_c, 15, 45, 0
28, 51300, Note_on_c, 15, 47, 80
28, 51329, Note_on_c, 15, 47, 0
28, 51330, Note_on_c, 15, 49, 80
28, 51359, Note_on_c, 15, 49, 0
28, 51360, Note_on_c, 15, 50, 80
28, 51389, Note_on_c, 15, 50, 0
28, 51390, Note_on_c, 15, 49, 80
28, 51419, Note_on_c, 15, 49, 0
28, 51420, Note_on_c, 15, 50, 80
28, 51449, Note_on_c, 15, 50, 0
28, 51450, Note_on_c, 15, 49, 80
28, 51479, Note_on_c, 15, 49, 0
28, 51480, Note_on_c, 15, 50, 80
28, 51509, Note_on_c, 15, 50, 0
28, 51510, Note_on_c, 15, 45, 80
28, 51539, Note_on_c, 15, 45, 0
28, 51540, Note_on_c, 15, 47, 80
28, 51569, Note_on_c, 15, 47, 0
28, 51570, Note_on_c, 15, 49, 80
28, 51599, Note_on_c, 15, 49, 0
28, 51600, Note_on_c, 15, 50, 80
28, 51629, Note_on_c, 15, 50, 0
28, 51630, Note_on_c, 15, 52, 80
28, 51659, Note_on_c, 15, 52, 0
28, 51660, Note_on_c, 15, 54, 80
28, 51689, Note_on_c, 15, 54, 0
28, 51690, Note_on_c, 15, 55, 80
28, 51719, Note_on_c, 15, 55, 0
28, 51720, Note_on_c, 15, 57, 80
28, 51749, Note_on_c, 15, 57, 0
28, 51750, Note_on_c, 15, 56, 80
28, 51779, Note_on_c, 15, 56, 0
28, 51780, Note_on_c, 15, 57, 80
28, 51809, Note_on_c, 15, 57, 0
28, 51810, Note_on_c, 15, 56, 80
28, 51839, Note_on_c, 15, 56, 0
28, 51840, Note_on_c, 15, 57, 80
28, 51869, Note_on_c, 15, 57, 0
28, 51870, Note_on_c, 15, 45, 80
28, 51899, Note_on_c, 15, 45, 0
28, 51900, Note_on_c, 15, 47, 80
28, 51929, Note_on_c, 15, 47, 0
28, 51930, Note_on_c, 15, 49, 80
28, 51959, Note_on_c, 15, 49, 0
28, 51960, Note_on_c, 15, 50, 80
28, 51989, Note_on_c, 15, 50, 0
28, 51990, Note_on_c, 15, 52, 80
28, 52019, Note_on_c, 15, 52, 0
28, 52020, Note_on_c, 15, 54, 80
28, 52049, Note_on_c, 15, 54, 0
28, 52050, Note_on_c, 15, 55, 80
28, 52079, Note_on_c, 15, 55, 0
28, 52080, Note_on_c, 15, 57, 80
28, 52109, Note_on_c, 15, 57, 0
28, 52110, Note_on_c, 15, 56, 80
28, 52139, Note_on_c, 15, 56, 0
28, 52140, Note_on_c, 15, 57, 80
28, 52169, Note_on_c, 15, 57, 0
28, 52170, Note_on_c, 15, 56, 80
28, 52199, Note_on_c, 15, 56, 0
28, 52200, Note_on_c, 15, 57, 80
28, 52229, Note_on_c, 15, 57, 0
28, 52230, Note_on_c, 15, 45, 80
28, 52259, Note_on_c, 15, 45, 0
28, 52260, Note_on_c, 15, 47, 80
28, 52289, Note_on_c, 15, 47, 0
28, 52290, Note_on_c, 15, 49, 80
28, 52319, Note_on_c, 15, 49, 0
28, 52320, Note_on_c, 15, 50, 80
28, 52349, Note_on_c, 15, 50, 0
28, 52350, Note_on_c, 15, 52, 80
28, 52379, Note_on_c, 15, 52, 0
28, 52380, Note_on_c, 15, 54, 80
28, 52409, Note_on_c, 15, 54, 0
28, 52410, Note_on_c, 15, 55, 80
28, 52439, Note_on_c, 15, 55, 0
28, 52440, Note_on_c, 15, 57, 80
28, 52469, Note_on_c, 15, 57, 0
28, 52470, Note_on_c, 15, 56, 80
28, 52499, Note_on_c, 15, 56, 0
28, 52500, Note_on_c, 15, 57, 80
28, 52529, Note_on_c, 15, 57, 0
28, 52530, Note_on_c, 15, 56, 80
28, 52559, Note_on_c, 15, 56, 0
28, 52560, Note_on_c, 15, 57, 80
28, 52589, Note_on_c, 15, 57, 0
28, 52590, Note_on_c, 15, 45, 80
28, 52619, Note_on_c, 15, 45, 0
28, 52620, Note_on_c, 15, 47, 80
28, 52649, Note_on_c, 15, 47, 0
28, 52650, Note_on_c, 15, 49, 80
28, 52679, Note_on_c, 15, 49, 0
28, 52680, Note_on_c, 15, 50, 80
28, 52709, Note_on_c, 15, 50, 0
28, 52710, Note_on_c, 15, 52, 80
28, 52739, Note_on_c, 15, 52, 0
28, 52740, Note_on_c, 15, 54, 80
28, 52769, Note_on_c, 15, 54, 0
28, 52770, Note_on_c, 15, 55, 80
28, 52799, Note_on_c, 15, 55, 0
28, 52800, Note_on_c, 15, 57, 80
28, 52829, Note_on_c, 15, 57, 0
28, 52830, Note_on_c, 15, 56, 80
28, 52859, Note_on_c, 15, 56, 0
28, 52860, Note_on_c, 15, 57, 80
28, 52889, Note_on_c, 15, 57, 0
28, 52890, Note_on_c, 15, 55, 80
28, 52919, Note_on_c, 15, 55, 0
28, 52920, Note_on_c, 15, 54, 80
28, 52949, Note_on_c, 15, 54, 0
28, 52950, Note_on_c, 15, 50, 80
28, 52979, Note_on_c, 15, 50, 0
28, 52980, Note_on_c, 15, 52, 80
28, 53009, Note_on_c, 15, 52, 0
28, 53010, Note_on_c, 15, 54, 80
28, 53039, Note_on_c, 15, 54, 0
28, 53040, Note_on_c, 15, 55, 80
28, 53069, Note_on_c, 15, 55, 0
28, 53070, Note_on_c, 15, 57, 80
28, 53099, Note_on_c, 15, 57, 0
28, 53100, Note_on_c, 15, 59, 80
28, 53129, Note_on_c, 15, 59, 0
28, 53130, Note_on_c, 15, 61, 80
28, 53159, Note_on_c, 15, 61, 0
28, 53160, Note_on_c, 15, 62, 80
28, 53189, Note_on_c, 15, 62, 0
28, 53190, Note_on_c, 15, 61, 80
28, 53219, Note_on_c, 15, 61, 0
28, 53220, Note_on_c, 15, 62, 80
28, 53249, Note_on_c, 15, 62, 0
28, 53250, Note_on_c, 15, 61, 80
28, 53279, Note_on_c, 15, 61, 0
28, 53280, Note_on_c, 15, 59, 80
28, 53309, Note_on_c, 15, 59, 0
28, 53310, Note_on_c, 15, 47, 80
28, 53339, Note_on_c, 15, 47, 0
28, 53340, Note_on_c, 15, 49, 80
28, 53369, Note_on_c, 15, 49, 0
28, 53370, Note_on_c, 15, 50, 80
28, 53399, Note_on_c, 15, 50, 0
28, 53400, Note_on_c, 15, 52, 80
28, 53429, Note_on_c, 15, 52, 0
28, 53430, Note_on_c, 15, 54, 80
28, 53459, Note_on_c, 15, 54, 0
28, 53460, Note_on_c, 15, 55, 80
28, 53489, Note_on_c, 15, 55, 0
28, 53490, Note_on_c, 15, 57, 80
28, 53519, Note_on_c, 15, 57, 0
28, 53520, Note_on_c, 15, 59, 80
28, 53549, Note_on_c, 15, 59, 0
28, 53550, Note_on_c, 15, 57, 80
28, 53579, Note_on_c, 15, 57, 0
28, 53580, Note_on_c, 15, 59, 80
28, 53609, Note_on_c, 15, 59, 0
28, 53610, Note_on_c, 15, 57, 80
28, 53639, Note_on_c, 15, 57, 0
28, 53640, Note_on_c, 15, 55, 80
28, 53669, Note_on_c, 15, 55, 0
28, 53670, Note_on_c, 15, 54, 80
28, 53699, Note_on_c, 15, 54, 0
28, 53700, Note_on_c, 15, 55, 80
28, 53729, Note_on_c, 15, 55, 0
28, 53730, Note_on_c, 15, 54, 80
28, 53759, Note_on_c, 15, 54, 0
28, 53760, Note_on_c, 15, 52, 80
28, 53789, Note_on_c, 15, 52, 0
28, 53790, Note_on_c, 15, 50, 80
28, 53819, Note_on_c, 15, 50, 0
28, 53820, Note_on_c, 15, 52, 80
28, 53849, Note_on_c, 15, 52, 0
28, 53850, Note_on_c, 15, 50, 80
28, 53879, Note_on_c, 15, 50, 0
28, 53880, Note_on_c, 15, 49, 80
28, 53909, Note_on_c, 15, 49, 0
28, 53910, Note_on_c, 15, 47, 80
28, 53939, Note_on_c, 15, 47, 0
28, 53940, Note_on_c, 15, 49, 80
28, 53969, Note_on_c, 15, 49, 0
28, 53970, Note_on_c, 15, 47, 80
28, 53999, Note_on_c, 15, 47, 0
28, 54000, Note_on_c, 15, 49, 80
28, 54029, Note_on_c, 15, 49, 0
28, 54030, Note_on_c, 15, 45, 80
28, 54059, Note_on_c, 15, 45, 0
28, 54060, Note_on_c, 15, 47, 80
28, 54089, Note_on_c, 15, 47, 0
28, 54090, Note_on_c, 15, 49, 80
28, 54119, Note_on_c, 15, 49, 0
28, 54120, Note_on_c, 15, 50, 80
28, 54149, Note_on_c, 15, 50, 0
28, 54150, Note_on_c, 15, 52, 80
28, 54179, Note_on_c, 15, 52, 0
28, 54180, Note_on_c, 15, 54, 80
28, 54209, Note_on_c, 15, 54, 0
28, 54210, Note_on_c, 15, 55, 80
28, 54239, Note_on_c, 15, 55, 0
28, 54240, Note_on_c, 15, 57, 80
28, 54299, Note_on_c, 15, 57, 0
28, 54300, Note_on_c, 15, 45, 80
28, 54359, Note_on_c, 15, 45, 0
28, 54360, Note_on_c, 15, 50, 80
28, 54419, Note_on_c, 15, 50, 0
28, 54420, Note_on_c, 15, 38, 80
28, 54479, Note_on_c, 15, 38, 0
28, 54480, Note_on_c, 15, 38, 80
28, 54539, Note_on_c, 15, 38, 0
28, 54540, Note_on_c, 15, 38, 80
28, 54599, Note_on_c, 15, 38, 0
28, 54600, Note_on_c, 15, 38, 80
28, 54659, Note_on_c, 15, 38, 0
28, 54660, Note_on_c, 15, 38, 80
28, 54719, Note_on_c, 15, 38, 0
28, 54720, Note_on_c, 15, 50, 80
28, 54779, Note_on_c, 15, 50, 0
28, 54780, Note_on_c, 15, 38, 80
28, 54839, Note_on_c, 15, 38, 0
28, 54840, Note_on_c, 15, 38, 80
28, 54899, Note_on_c, 15, 38, 0
28, 54900, Note_on_c, 15, 38, 80
28, 54959, Note_on_c, 15, 38, 0
28, 54960, Note_on_c, 15, 38, 80
28, 55019, Note_on_c, 15, 38, 0
28, 55020, Note_on_c, 15, 38, 80
28, 55079, Note_on_c, 15, 38, 0
28, 55080, Note_on_c, 15, 50, 80
28, 55139, Note_on_c, 15, 50, 0
28, 55140, Note_on_c, 15, 38, 80
28, 55199, Note_on_c, 15, 38, 0
28, 55200, Note_on_c, 15, 38, 80
28, 55259, Note_on_c, 15, 38, 0
28, 55260, Note_on_c, 15, 38, 80
28, 55319, Note_on_c, 15, 38, 0
28, 55320, Note_on_c, 15, 38, 80
28, 55379, Note_on_c, 15, 38, 0
28, 55380, Note_on_c, 15, 38, 80
28, 55439, Note_on_c, 15, 38, 0
28, 55440, Note_on_c, 15, 50, 80
28, 55499, Note_on_c, 15, 50, 0
28, 55500, Note_on_c, 15, 38, 80
28, 55559, Note_on_c, 15, 38, 0
28, 55560, Note_on_c, 15, 38, 80
28, 55619, Note_on_c, 15, 38, 0
28, 55620, Note_on_c, 15, 38, 80
28, 55679, Note_on_c, 15, 38, 0
28, 55680, Note_on_c, 15, 38, 80
28, 55739, Note_on_c, 15, 38, 0
28, 55740, Note_on_c, 15, 38, 80
28, 55799, Note_on_c, 15, 38, 0
28, 55830, Note_on_c, 15, 50, 80
28, 55859, Note_on_c, 15, 50, 0
28, 55860, Note_on_c, 15, 52, 80
28, 55889, Note_on_c, 15, 52, 0
28, 55890, Note_on_c, 15, 54, 80
28, 55919, Note_on_c, 15, 54, 0
28, 55920, Note_on_c, 15, 55, 80
28, 55949, Note_on_c, 15, 55, 0
28, 55950, Note_on_c, 15, 57, 80
28, 55979, Note_on_c, 15, 57, 0
28, 55980, Note_on_c, 15, 59, 80
28, 56009, Note_on_c, 15, 59, 0
28, 56010, Note_on_c, 15, 61, 80
28, 56039, Note_on_c, 15, 61, 0
28, 56040, Note_on_c, 15, 62, 80
28, 56069, Note_on_c, 15, 62, 0
28, 56070, Note_on_c, 15, 61, 80
28, 56099, Note_on_c, 15, 61, 0
28, 56100, Note_on_c, 15, 62, 80
28, 56129, Note_on_c, 15, 62, 0
28, 56130, Note_on_c, 15, 61, 80
28, 56159, Note_on_c, 15, 61, 0
28, 56160, Note_on_c, 15, 59, 80
28, 56189, Note_on_c, 15, 59, 0
28, 56190, Note_on_c, 15, 47, 80
28, 56219, Note_on_c, 15, 47, 0
28, 56220, Note_on_c, 15, 49, 80
28, 56249, Note_on_c, 15, 49, 0
28, 56250, Note_on_c, 15, 50, 80
28, 56279, Note_on_c, 15, 50, 0
28, 56280, Note_on_c, 15, 52, 80
28, 56309, Note_on_c, 15, 52, 0
28, 56310, Note_on_c, 15, 54, 80
28, 56339, Note_on_c, 15, 54, 0
28, 56340, Note_on_c, 15, 55, 80
28, 56369, Note_on_c, 15, 55, 0
28, 56370, Note_on_c, 15, 57, 80
28, 56399, Note_on_c, 15, 57, 0
28, 56400, Note_on_c, 15, 59, 80
28, 56429, Note_on_c, 15, 59, 0
28, 56430, Note_on_c, 15, 57, 80
28, 56459, Note_on_c, 15, 57, 0
28, 56460, Note_on_c, 15, 59, 80
28, 56489, Note_on_c, 15, 59, 0
28, 56490, Note_on_c, 15, 57, 80
28, 56519, Note_on_c, 15, 57, 0
28, 56520, Note_on_c, 15, 56, 80
28, 56549, Note_on_c, 15, 56, 0
28, 56550, Note_on_c, 15, 54, 80
28, 56579, Note_on_c, 15, 54, 0
28, 56580, Note_on_c, 15, 56, 80
28, 56609, Note_on_c, 15, 56, 0
28, 56610, Note_on_c, 15, 54, 80
28, 56639, Note_on_c, 15, 54, 0
28, 56640, Note_on_c, 15, 52, 80
28, 56669, Note_on_c, 15, 52, 0
28, 56670, Note_on_c, 15, 50, 80
28, 56699, Note_on_c, 15, 50, 0
28, 56700, Note_on_c, 15, 52, 80
28, 56729, Note_on_c, 15, 52, 0
28, 56730, Note_on_c, 15, 50, 80
28, 56759, Note_on_c, 15, 50, 0
28, 56760, Note_on_c, 15, 49, 80
28, 56789, Note_on_c, 15, 49, 0
28, 56790, Note_on_c, 15, 47, 80
28, 56819, Note_on_c, 15, 47, 0
28, 56820, Note_on_c, 15, 49, 80
28, 56849, Note_on_c, 15, 49, 0
28, 56850, Note_on_c, 15, 47, 80
28, 56879, Note_on_c, 15, 47, 0
28, 56880, Note_on_c, 15, 45, 80
28, 56909, Note_on_c, 15, 45, 0
28, 56910, Note_on_c, 15, 40, 80
28, 56939, Note_on_c, 15, 40, 0
28, 56940, Note_on_c, 15, 42, 80
28, 56969, Note_on_c, 15, 42, 0
28, 56970, Note_on_c, 15, 44, 80
28, 56999, Note_on_c, 15, 44, 0
28, 57000, Note_on_c, 15, 45, 80
28, 57029, Note_on_c, 15, 45, 0
28, 57030, Note_on_c, 15, 47, 80
28, 57059, Note_on_c, 15, 47, 0
28, 57060, Note_on_c, 15, 49, 80
28, 57089, Note_on_c, 15, 49, 0
28, 57090, Note_on_c, 15, 50, 80
28, 57119, Note_on_c, 15, 50, 0
28, 57120, Note_on_c, 15, 52, 80
28, 57179, Note_on_c, 15, 52, 0
28, 57180, Note_on_c, 15, 40, 80
28, 57239, Note_on_c, 15, 40, 0
28, 57240, Note_on_c, 15, 45, 80
28, 57269, Note_on_c, 15, 45, 0
28, 57270, Note_on_c, 15, 52, 80
28, 57299, Note_on_c, 15, 52, 0
28, 57300, Note_on_c, 15, 54, 80
28, 57329, Note_on_c, 15, 54, 0
28, 57330, Note_on_c, 15, 56, 80
28, 57359, Note_on_c, 15, 56, 0
28, 57360, Note_on_c, 15, 57, 80
28, 57389, Note_on_c, 15, 57, 0
28, 57390, Note_on_c, 15, 59, 80
28, 57419, Note_on_c, 15, 59, 0
28, 57420, Note_on_c, 15, 61, 80
28, 57449, Note_on_c, 15, 61, 0
28, 57450, Note_on_c, 15, 59, 80
28, 57479, Note_on_c, 15, 59, 0
28, 57480, Note_on_c, 15, 57, 80
28, 57509, Note_on_c, 15, 57, 0
28, 57510, Note_on_c, 15, 56, 80
28, 57539, Note_on_c, 15, 56, 0
28, 57540, Note_on_c, 15, 54, 80
28, 57569, Note_on_c, 15, 54, 0
28, 57570, Note_on_c, 15, 52, 80
28, 57599, Note_on_c, 15, 52, 0
28, 57600, Note_on_c, 15, 54, 80
28, 57629, Note_on_c, 15, 54, 0
28, 57630, Note_on_c, 15, 56, 80
28, 57659, Note_on_c, 15, 56, 0
28, 57660, Note_on_c, 15, 57, 80
28, 57689, Note_on_c, 15, 57, 0
28, 57690, Note_on_c, 15, 56, 80
28, 57719, Note_on_c, 15, 56, 0
28, 57720, Note_on_c, 15, 54, 80
28, 57749, Note_on_c, 15, 54, 0
28, 57750, Note_on_c, 15, 52, 80
28, 57779, Note_on_c, 15, 52, 0
28, 57780, Note_on_c, 15, 51, 80
28, 57809, Note_on_c, 15, 51, 0
28, 57810, Note_on_c, 15, 49, 80
28, 57839, Note_on_c, 15, 49, 0
28, 57840, Note_on_c, 15, 51, 80
28, 57869, Note_on_c, 15, 51, 0
28, 57870, Note_on_c, 15, 52, 80
28, 57899, Note_on_c, 15, 52, 0
28, 57900, Note_on_c, 15, 54, 80
28, 57929, Note_on_c, 15, 54, 0
28, 57930, Note_on_c, 15, 52, 80
28, 57959, Note_on_c, 15, 52, 0
28, 57960, Note_on_c, 15, 51, 80
28, 57989, Note_on_c, 15, 51, 0
28, 57990, Note_on_c, 15, 49, 80
28, 58019, Note_on_c, 15, 49, 0
28, 58020, Note_on_c, 15, 47, 80
28, 58049, Note_on_c, 15, 47, 0
28, 58050, Note_on_c, 15, 45, 80
28, 58079, Note_on_c, 15, 45, 0
28, 58080, Note_on_c, 15, 47, 80
28, 58109, Note_on_c, 15, 47, 0
28, 58110, Note_on_c, 15, 49, 80
28, 58139, Note_on_c, 15, 49, 0
28, 58140, Note_on_c, 15, 51, 80
28, 58169, Note_on_c, 15, 51, 0
28, 58170, Note_on_c, 15, 49, 80
28, 58199, Note_on_c, 15, 49, 0
28, 58200, Note_on_c, 15, 47, 80
28, 58229, Note_on_c, 15, 47, 0
28, 58230, Note_on_c, 15, 45, 80
28, 58259, Note_on_c, 15, 45, 0
28, 58260, Note_on_c, 15, 44, 80
28, 58289, Note_on_c, 15, 44, 0
28, 58290, Note_on_c, 15, 42, 80
28, 58319, Note_on_c, 15, 42, 0
28, 58320, Note_on_c, 15, 40, 80
28, 58349, Note_on_c, 15, 40, 0
28, 58350, Note_on_c, 15, 40, 80
28, 58379, Note_on_c, 15, 40, 0
28, 58380, Note_on_c, 15, 42, 80
28, 58409, Note_on_c, 15, 42, 0
28, 58410, Note_on_c, 15, 44, 80
28, 58439, Note_on_c, 15, 44, 0
28, 58440, Note_on_c, 15, 45, 80
28, 58469, Note_on_c, 15, 45, 0
28, 58470, Note_on_c, 15, 47, 80
28, 58499, Note_on_c, 15, 47, 0
28, 58500, Note_on_c, 15, 49, 80
28, 58529, Note_on_c, 15, 49, 0
28, 58530, Note_on_c, 15, 50, 80
28, 58559, Note_on_c, 15, 50, 0
28, 58560, Note_on_c, 15, 52, 80
28, 58589, Note_on_c, 15, 52, 0
28, 58590, Note_on_c, 15, 50, 80
28, 58619, Note_on_c, 15, 50, 0
28, 58620, Note_on_c, 15, 52, 80
28, 58649, Note_on_c, 15, 52, 0
28, 58650, Note_on_c, 15, 50, 80
28, 58679, Note_on_c, 15, 50, 0
28, 58680, Note_on_c, 15, 52, 80
28, 58709, Note_on_c, 15, 52, 0
28, 58710, Note_on_c, 15, 40, 80
28, 58739, Note_on_c, 15, 40, 0
28, 58740, Note_on_c, 15, 42, 80
28, 58769, Note_on_c, 15, 42, 0
28, 58770, Note_on_c, 15, 44, 80
28, 58799, Note_on_c, 15, 44, 0
28, 58800, Note_on_c, 15, 45, 80
28, 58829, Note_on_c, 15, 45, 0
28, 58830, Note_on_c, 15, 47, 80
28, 58859, Note_on_c, 15, 47, 0
28, 58860, Note_on_c, 15, 49, 80
28, 58889, Note_on_c, 15, 49, 0
28, 58890, Note_on_c, 15, 50, 80
28, 58919, Note_on_c, 15, 50, 0
28, 58920, Note_on_c, 15, 52, 80
28, 58949, Note_on_c, 15, 52, 0
28, 58950, Note_on_c, 15, 50, 80
28, 58979, Note_on_c, 15, 50, 0
28, 58980, Note_on_c, 15, 52, 80
28, 59009, Note_on_c, 15, 52, 0
28, 59010, Note_on_c, 15, 50, 80
28, 59039, Note_on_c, 15, 50, 0
28, 59040, Note_on_c, 15, 52, 80
28, 59069, Note_on_c, 15, 52, 0
28, 59070, Note_on_c, 15, 40, 80
28, 59099, Note_on_c, 15, 40, 0
28, 59100, Note_on_c, 15, 42, 80
28, 59129, Note_on_c, 15, 42, 0
28, 59130, Note_on_c, 15, 44, 80
28, 59159, Note_on_c, 15, 44, 0
28, 59160, Note_on_c, 15, 45, 80
28, 59189, Note_on_c, 15, 45, 0
28, 59190, Note_on_c, 15, 47, 80
28, 59219, Note_on_c, 15, 47, 0
28, 59220, Note_on_c, 15, 49, 80
28, 59249, Note_on_c, 15, 49, 0
28, 59250, Note_on_c, 15, 50, 80
28, 59279, Note_on_c, 15, 50, 0
28, 59280, Note_on_c, 15, 52, 80
28, 59309, Note_on_c, 15, 52, 0
28, 59310, Note_on_c, 15, 50, 80
28, 59339, Note_on_c, 15, 50, 0
28, 59340, Note_on_c, 15, 52, 80
28, 59369, Note_on_c, 15, 52, 0
28, 59370, Note_on_c, 15, 50, 80
28, 59399, Note_on_c, 15, 50, 0
28, 59400, Note_on_c, 15, 49, 80
28, 59429, Note_on_c, 15, 49, 0
28, 59430, Note_on_c, 15, 45, 80
28, 59459, Note_on_c, 15, 45, 0
28, 59460, Note_on_c, 15, 47, 80
28, 59489, Note_on_c, 15, 47, 0
28, 59490, Note_on_c, 15, 49, 80
28, 59519, Note_on_c, 15, 49, 0
28, 59520, Note_on_c, 15, 50, 80
28, 59549, Note_on_c, 15, 50, 0
28, 59550, Note_on_c, 15, 52, 80
28, 59579, Note_on_c, 15, 52, 0
28, 59580, Note_on_c, 15, 54, 80
28, 59609, Note_on_c, 15, 54, 0
28, 59610, Note_on_c, 15, 56, 80
28, 59639, Note_on_c, 15, 56, 0
28, 59640, Note_on_c, 15, 57, 80
28, 59669, Note_on_c, 15, 57, 0
28, 59670, Note_on_c, 15, 56, 80
28, 59699, Note_on_c, 15, 56, 0
28, 59700, Note_on_c, 15, 57, 80
28, 59729, Note_on_c, 15, 57, 0
28, 59730, Note_on_c, 15, 56, 80
28, 59759, Note_on_c, 15, 56, 0
28, 59760, Note_on_c, 15, 54, 80
28, 59789, Note_on_c, 15, 54, 0
28, 59790, Note_on_c, 15, 42, 80
28, 59819, Note_on_c, 15, 42, 0
28, 59820, Note_on_c, 15, 44, 80
28, 59849, Note_on_c, 15, 44, 0
28, 59850, Note_on_c, 15, 45, 80
28, 59879, Note_on_c, 15, 45, 0
28, 59880, Note_on_c, 15, 47, 80
28, 59909, Note_on_c, 15, 47, 0
28, 59910, Note_on_c, 15, 49, 80
28, 59939, Note_on_c, 15, 49, 0
28, 59940, Note_on_c, 15, 50, 80
28, 59969, Note_on_c, 15, 50, 0
28, 59970, Note_on_c, 15, 52, 80
28, 59999, Note_on_c, 15, 52, 0
28, 60000, Note_on_c, 15, 54, 80
28, 60029, Note_on_c, 15, 54, 0
28, 60030, Note_on_c, 15, 52, 80
28, 60059, Note_on_c, 15, 52, 0
28, 60060, Note_on_c, 15, 54, 80
28, 60089, Note_on_c, 15, 54, 0
28, 60090, Note_on_c, 15, 52, 80
28, 60119, Note_on_c, 15, 52, 0
28, 60120, Note_on_c, 15, 50, 80
28, 60149, Note_on_c, 15, 50, 0
28, 60150, Note_on_c, 15, 49, 80
28, 60179, Note_on_c, 15, 49, 0
28, 60180, Note_on_c, 15, 50, 80
28, 60209, Note_on_c, 15, 50, 0
28, 60210, Note_on_c, 15, 49, 80
28, 60239, Note_on_c, 15, 49, 0
28, 60240, Note_on_c, 15, 47, 80
28, 60269, Note_on_c, 15, 47, 0
28, 60270, Note_on_c, 15, 45, 80
28, 60299, Note_on_c, 15, 45, 0
28, 60300, Note_on_c, 15, 47, 80
28, 60329, Note_on_c, 15, 47, 0
28, 60330, Note_on_c, 15, 45, 80
28, 60359, Note_on_c, 15, 45, 0
28, 60360, Note_on_c, 15, 44, 80
28, 60389, Note_on_c, 15, 44, 0
28, 60390, Note_on_c, 15, 42, 80
28, 60419, Note_on_c, 15, 42, 0
28, 60420, Note_on_c, 15, 44, 80
28, 60449, Note_on_c, 15, 44, 0
28, 60450, Note_on_c, 15, 42, 80
28, 60479, Note_on_c, 15, 42, 0
28, 60480, Note_on_c, 15, 44, 80
28, 60509, Note_on_c, 15, 44, 0
28, 60510, Note_on_c, 15, 40, 80
28, 60539, Note_on_c, 15, 40, 0
28, 60540, Note_on_c, 15, 42, 80
28, 60569, Note_on_c, 15, 42, 0
28, 60570, Note_on_c, 15, 44, 80
28, 60599, Note_on_c, 15, 44, 0
28, 60600, Note_on_c, 15, 45, 80
28, 60629, Note_on_c, 15, 45, 0
28, 60630, Note_on_c, 15, 47, 80
28, 60659, Note_on_c, 15, 47, 0
28, 60660, Note_on_c, 15, 49, 80
28, 60689, Note_on_c, 15, 49, 0
28, 60690, Note_on_c, 15, 50, 80
28, 60719, Note_on_c, 15, 50, 0
28, 60720, Note_on_c, 15, 52, 80
28, 60779, Note_on_c, 15, 52, 0
28, 60780, Note_on_c, 15, 40, 80
28, 60839, Note_on_c, 15, 40, 0
28, 60840, Note_on_c, 15, 45, 80
28, 60959, Note_on_c, 15, 45, 0
28, 61590, Note_on_c, 15, 59, 80
28, 61619, Note_on_c, 15, 59, 0
28, 61620, Note_on_c, 15, 57, 80
28, 61649, Note_on_c, 15, 57, 0
28, 61650, Note_on_c, 15, 55, 80
28, 61679, Note_on_c, 15, 55, 0
28, 61680, Note_on_c, 15, 54, 80
28, 61709, Note_on_c, 15, 54, 0
28, 61710, Note_on_c, 15, 52, 80
28, 61739, Note_on_c, 15, 52, 0
28, 61740, Note_on_c, 15, 51, 80
28, 61769, Note_on_c, 15, 51, 0
28, 61770, Note_on_c, 15, 49, 80
28, 61799, Note_on_c, 15, 49, 0
28, 61800, Note_on_c, 15, 47, 80
28, 61829, Note_on_c, 15, 47, 0
28, 61830, Note_on_c, 15, 45, 80
28, 61859, Note_on_c, 15, 45, 0
28, 61860, Note_on_c, 15, 43, 80
28, 61889, Note_on_c, 15, 43, 0
28, 61890, Note_on_c, 15, 42, 80
28, 61919, Note_on_c, 15, 42, 0
28, 61920, Note_on_c, 15, 40, 80
28, 62039, Note_on_c, 15, 40, 0
28, 62670, Note_on_c, 15, 57, 80
28, 62699, Note_on_c, 15, 57, 0
28, 62700, Note_on_c, 15, 55, 80
28, 62729, Note_on_c, 15, 55, 0
28, 62730, Note_on_c, 15, 54, 80
28, 62759, Note_on_c, 15, 54, 0
28, 62760, Note_on_c, 15, 52, 80
28, 62789, Note_on_c, 15, 52, 0
28, 62790, Note_on_c, 15, 50, 80
28, 62819, Note_on_c, 15, 50, 0
28, 62820, Note_on_c, 15, 49, 80
28, 62849, Note_on_c, 15, 49, 0
28, 62850, Note_on_c, 15, 47, 80
28, 62879, Note_on_c, 15, 47, 0
28, 62880, Note_on_c, 15, 45, 80
28, 62909, Note_on_c, 15, 45, 0
28, 62910, Note_on_c, 15, 43, 80
28, 62939, Note_on_c, 15, 43, 0
28, 62940, Note_on_c, 15, 42, 80
28, 62969, Note_on_c, 15, 42, 0
28, 62970, Note_on_c, 15, 40, 80
28, 62999, Note_on_c, 15, 40, 0
28, 63000, Note_on_c, 15, 38, 80
28, 63059, Note_on_c, 15, 38, 0
28, 63060, Note_on_c, 15, 50, 80
28, 63119, Note_on_c, 15, 50, 0
28, 63120, Note_on_c, 15, 50, 80
28, 63179, Note_on_c, 15, 50, 0
28, 63180, Note_on_c, 15, 50, 80
28, 63239, Note_on_c, 15, 50, 0
28, 63240, Note_on_c, 15, 50, 80
28, 63299, Note_on_c, 15, 50, 0
28, 63300, Note_on_c, 15, 52, 80
28, 63329, Note_on_c, 15, 52, 0
28, 63330, Note_on_c, 15, 54, 80
28, 63359, Note_on_c, 15, 54, 0
28, 63360, Note_on_c, 15, 55, 80
28, 63419, Note_on_c, 15, 55, 0
28, 63420, Note_on_c, 15, 49, 80
28, 63479, Note_on_c, 15, 49, 0
28, 63480, Note_on_c, 15, 49, 80
28, 63539, Note_on_c, 15, 49, 0
28, 63540, Note_on_c, 15, 49, 80
28, 63599, Note_on_c, 15, 49, 0
28, 63600, Note_on_c, 15, 49, 80
28, 63659, Note_on_c, 15, 49, 0
28, 63660, Note_on_c, 15, 50, 80
28, 63689, Note_on_c, 15, 50, 0
28, 63690, Note_on_c, 15, 52, 80
28, 63719, Note_on_c, 15, 52, 0
28, 63720, Note_on_c, 15, 54, 80
28, 63779, Note_on_c, 15, 54, 0
28, 63780, Note_on_c, 15, 47, 80
28, 63839, Note_on_c, 15, 47, 0
28, 63840, Note_on_c, 15, 47, 80
28, 63899, Note_on_c, 15, 47, 0
28, 63900, Note_on_c, 15, 47, 80
28, 63959, Note_on_c, 15, 47, 0
28, 63960, Note_on_c, 15, 47, 80
28, 64019, Note_on_c, 15, 47, 0
28, 64020, Note_on_c, 15, 49, 80
28, 64049, Note_on_c, 15, 49, 0
28, 64050, Note_on_c, 15, 50, 80
28, 64079, Note_on_c, 15, 50, 0
28, 64080, Note_on_c, 15, 52, 80
28, 64139, Note_on_c, 15, 52, 0
28, 64140, Note_on_c, 15, 45, 80
28, 64199, Note_on_c, 15, 45, 0
28, 64200, Note_on_c, 15, 45, 80
28, 64259, Note_on_c, 15, 45, 0
28, 64260, Note_on_c, 15, 45, 80
28, 64319, Note_on_c, 15, 45, 0
28, 64320, Note_on_c, 15, 45, 80
28, 64379, Note_on_c, 15, 45, 0
28, 64380, Note_on_c, 15, 47, 80
28, 64409, Note_on_c, 15, 47, 0
28, 64410, Note_on_c, 15, 49, 80
28, 64439, Note_on_c, 15, 49, 0
28, 64440, Note_on_c, 15, 50, 80
28, 64469, Note_on_c, 15, 50, 0
28, 64470, Note_on_c, 15, 57, 80
28, 64499, Note_on_c, 15, 57, 0
28, 64500, Note_on_c, 15, 59, 80
28, 64529, Note_on_c, 15, 59, 0
28, 64530, Note_on_c, 15, 61, 80
28, 64559, Note_on_c, 15, 61, 0
28, 64560, Note_on_c, 15, 62, 80
28, 64589, Note_on_c, 15, 62, 0
28, 64590, Note_on_c, 15, 64, 80
28, 64619, Note_on_c, 15, 64, 0
28, 64620, Note_on_c, 15, 66, 80
28, 64649, Note_on_c, 15, 66, 0
28, 64650, Note_on_c, 15, 64, 80
28, 64679, Note_on_c, 15, 64, 0
28, 64680, Note_on_c, 15, 62, 80
28, 64709, Note_on_c, 15, 62, 0
28, 64710, Note_on_c, 15, 61, 80
28, 64739, Note_on_c, 15, 61, 0
28, 64740, Note_on_c, 15, 59, 80
28, 64769, Note_on_c, 15, 59, 0
28, 64770, Note_on_c, 15, 57, 80
28, 64799, Note_on_c, 15, 57, 0
28, 64800, Note_on_c, 15, 59, 80
28, 64829, Note_on_c, 15, 59, 0
28, 64830, Note_on_c, 15, 60, 80
28, 64859, Note_on_c, 15, 60, 0
28, 64860, Note_on_c, 15, 62, 80
28, 64889, Note_on_c, 15, 62, 0
28, 64890, Note_on_c, 15, 60, 80
28, 64919, Note_on_c, 15, 60, 0
28, 64920, Note_on_c, 15, 59, 80
28, 64949, Note_on_c, 15, 59, 0
28, 64950, Note_on_c, 15, 57, 80
28, 64979, Note_on_c, 15, 57, 0
28, 64980, Note_on_c, 15, 56, 80
28, 65009, Note_on_c, 15, 56, 0
28, 65010, Note_on_c, 15, 54, 80
28, 65039, Note_on_c, 15, 54, 0
28, 65040, Note_on_c, 15, 56, 80
28, 65069, Note_on_c, 15, 56, 0
28, 65070, Note_on_c, 15, 57, 80
28, 65099, Note_on_c, 15, 57, 0
28, 65100, Note_on_c, 15, 59, 80
28, 65129, Note_on_c, 15, 59, 0
28, 65130, Note_on_c, 15, 57, 80
28, 65159, Note_on_c, 15, 57, 0
28, 65160, Note_on_c, 15, 56, 80
28, 65189, Note_on_c, 15, 56, 0
28, 65190, Note_on_c, 15, 54, 80
28, 65219, Note_on_c, 15, 54, 0
28, 65220, Note_on_c, 15, 52, 80
28, 65249, Note_on_c, 15, 52, 0
28, 65250, Note_on_c, 15, 50, 80
28, 65279, Note_on_c, 15, 50, 0
28, 65280, Note_on_c, 15, 52, 80
28, 65309, Note_on_c, 15, 52, 0
28, 65310, Note_on_c, 15, 54, 80
28, 65339, Note_on_c, 15, 54, 0
28, 65340, Note_on_c, 15, 56, 80
28, 65369, Note_on_c, 15, 56, 0
28, 65370, Note_on_c, 15, 54, 80
28, 65399, Note_on_c, 15, 54, 0
28, 65400, Note_on_c, 15, 52, 80
28, 65429, Note_on_c, 15, 52, 0
28, 65430, Note_on_c, 15, 50, 80
28, 65459, Note_on_c, 15, 50, 0
28, 65460, Note_on_c, 15, 49, 80
28, 65489, Note_on_c, 15, 49, 0
28, 65490, Note_on_c, 15, 47, 80
28, 65519, Note_on_c, 15, 47, 0
28, 65520, Note_on_c, 15, 45, 80
28, 65549, Note_on_c, 15, 45, 0
28, 65550, Note_on_c, 15, 45, 80
28, 65579, Note_on_c, 15, 45, 0
28, 65580, Note_on_c, 15, 47, 80
28, 65609, Note_on_c, 15, 47, 0
28, 65610, Note_on_c, 15, 49, 80
28, 65639, Note_on_c, 15, 49, 0
28, 65640, Note_on_c, 15, 50, 80
28, 65669, Note_on_c, 15, 50, 0
28, 65670, Note_on_c, 15, 52, 80
28, 65699, Note_on_c, 15, 52, 0
28, 65700, Note_on_c, 15, 54, 80
28, 65729, Note_on_c, 15, 54, 0
28, 65730, Note_on_c, 15, 55, 80
28, 65759, Note_on_c, 15, 55, 0
28, 65760, Note_on_c, 15, 57, 80
28, 65789, Note_on_c, 15, 57, 0
28, 65790, Note_on_c, 15, 55, 80
28, 65819, Note_on_c, 15, 55, 0
28, 65820, Note_on_c, 15, 57, 80
28, 65849, Note_on_c, 15, 57, 0
28, 65850, Note_on_c, 15, 55, 80
28, 65879, Note_on_c, 15, 55, 0
28, 65880, Note_on_c, 15, 57, 80
28, 65909, Note_on_c, 15, 57, 0
28, 65910, Note_on_c, 15, 45, 80
28, 65939, Note_on_c, 15, 45, 0
28, 65940, Note_on_c, 15, 47, 80
28, 65969, Note_on_c, 15, 47, 0
28, 65970, Note_on_c, 15, 49, 80
28, 65999, Note_on_c, 15, 49, 0
28, 66000, Note_on_c, 15, 50, 80
28, 66029, Note_on_c, 15, 50, 0
28, 66030, Note_on_c, 15, 52, 80
28, 66059, Note_on_c, 15, 52, 0
28, 66060, Note_on_c, 15, 54, 80
28, 66089, Note_on_c, 15, 54, 0
28, 66090, Note_on_c, 15, 55, 80
28, 66119, Note_on_c, 15, 55, 0
28, 66120, Note_on_c, 15, 57, 80
28, 66149, Note_on_c, 15, 57, 0
28, 66150, Note_on_c, 15, 55, 80
28, 66179, Note_on_c, 15, 55, 0
28, 66180, Note_on_c, 15, 57, 80
28, 66209, Note_on_c, 15, 57, 0
28, 66210, Note_on_c, 15, 55, 80
28, 66239, Note_on_c, 15, 55, 0
28, 66240, Note_on_c, 15, 57, 80
28, 66269, Note_on_c, 15, 57, 0
28, 66270, Note_on_c, 15, 45, 80
28, 66299, Note_on_c, 15, 45, 0
28, 66300, Note_on_c, 15, 47, 80
28, 66329, Note_on_c, 15, 47, 0
28, 66330, Note_on_c, 15, 49, 80
28, 66359, Note_on_c, 15, 49, 0
28, 66360, Note_on_c, 15, 50, 80
28, 66389, Note_on_c, 15, 50, 0
28, 66390, Note_on_c, 15, 52, 80
28, 66419, Note_on_c, 15, 52, 0
28, 66420, Note_on_c, 15, 54, 80
28, 66449, Note_on_c, 15, 54, 0
28, 66450, Note_on_c, 15, 55, 80
28, 66479, Note_on_c, 15, 55, 0
28, 66480, Note_on_c, 15, 57, 80
28, 66509, Note_on_c, 15, 57, 0
28, 66510, Note_on_c, 15, 55, 80
28, 66539, Note_on_c, 15, 55, 0
28, 66540, Note_on_c, 15, 57, 80
28, 66569, Note_on_c, 15, 57, 0
28, 66570, Note_on_c, 15, 55, 80
28, 66599, Note_on_c, 15, 55, 0
28, 66600, Note_on_c, 15, 54, 80
28, 66629, Note_on_c, 15, 54, 0
28, 66630, Note_on_c, 15, 50, 80
28, 66659, Note_on_c, 15, 50, 0
28, 66660, Note_on_c, 15, 52, 80
28, 66689, Note_on_c, 15, 52, 0
28, 66690, Note_on_c, 15, 54, 80
28, 66719, Note_on_c, 15, 54, 0
28, 66720, Note_on_c, 15, 55, 80
28, 66749, Note_on_c, 15, 55, 0
28, 66750, Note_on_c, 15, 57, 80
28, 66779, Note_on_c, 15, 57, 0
28, 66780, Note_on_c, 15, 59, 80
28, 66809, Note_on_c, 15, 59, 0
28, 66810, Note_on_c, 15, 61, 80
28, 66839, Note_on_c, 15, 61, 0
28, 66840, Note_on_c, 15, 62, 80
28, 66869, Note_on_c, 15, 62, 0
28, 66870, Note_on_c, 15, 61, 80
28, 66899, Note_on_c, 15, 61, 0
28, 66900, Note_on_c, 15, 62, 80
28, 66929, Note_on_c, 15, 62, 0
28, 66930, Note_on_c, 15, 61, 80
28, 66959, Note_on_c, 15, 61, 0
28, 66960, Note_on_c, 15, 59, 80
28, 66989, Note_on_c, 15, 59, 0
28, 66990, Note_on_c, 15, 47, 80
28, 67019, Note_on_c, 15, 47, 0
28, 67020, Note_on_c, 15, 49, 80
28, 67049, Note_on_c, 15, 49, 0
28, 67050, Note_on_c, 15, 50, 80
28, 67079, Note_on_c, 15, 50, 0
28, 67080, Note_on_c, 15, 52, 80
28, 67109, Note_on_c, 15, 52, 0
28, 67110, Note_on_c, 15, 54, 80
28, 67139, Note_on_c, 15, 54, 0
28, 67140, Note_on_c, 15, 55, 80
28, 67169, Note_on_c, 15, 55, 0
28, 67170, Note_on_c, 15, 57, 80
28, 67199, Note_on_c, 15, 57, 0
28, 67200, Note_on_c, 15, 59, 80
28, 67229, Note_on_c, 15, 59, 0
28, 67230, Note_on_c, 15, 57, 80
28, 67259, Note_on_c, 15, 57, 0
28, 67260, Note_on_c, 15, 59, 80
28, 67289, Note_on_c, 15, 59, 0
28, 67290, Note_on_c, 15, 57, 80
28, 67319, Note_on_c, 15, 57, 0
28, 67320, Note_on_c, 15, 55, 80
28, 67349, Note_on_c, 15, 55, 0
28, 67350, Note_on_c, 15, 54, 80
28, 67379, Note_on_c, 15, 54, 0
28, 67380, Note_on_c, 15, 55, 80
28, 67409, Note_on_c, 15, 55, 0
28, 67410, Note_on_c, 15, 54, 80
28, 67439, Note_on_c, 15, 54, 0
28, 67440, Note_on_c, 15, 52, 80
28, 67469, Note_on_c, 15, 52, 0
28, 67470, Note_on_c, 15, 50, 80
28, 67499, Note_on_c, 15, 50, 0
28, 67500, Note_on_c, 15, 52, 80
28, 67529, Note_on_c, 15, 52, 0
28, 67530, Note_on_c, 15, 50, 80
28, 67559, Note_on_c, 15, 50, 0
28, 67560, Note_on_c, 15, 49, 80
28, 67589, Note_on_c, 15, 49, 0
28, 67590, Note_on_c, 15, 47, 80
28, 67619, Note_on_c, 15, 47, 0
28, 67620, Note_on_c, 15, 49, 80
28, 67649, Note_on_c, 15, 49, 0
28, 67650, Note_on_c, 15, 47, 80
28, 67679, Note_on_c, 15, 47, 0
28, 67680, Note_on_c, 15, 49, 80
28, 67709, Note_on_c, 15, 49, 0
28, 67710, Note_on_c, 15, 45, 80
28, 67739, Note_on_c, 15, 45, 0
28, 67740, Note_on_c, 15, 47, 80
28, 67769, Note_on_c, 15, 47, 0
28, 67770, Note_on_c, 15, 49, 80
28, 67799, Note_on_c, 15, 49, 0
28, 67800, Note_on_c, 15, 50, 80
28, 67829, Note_on_c, 15, 50, 0
28, 67830, Note_on_c, 15, 52, 80
28, 67859, Note_on_c, 15, 52, 0
28, 67860, Note_on_c, 15, 54, 80
28, 67889, Note_on_c, 15, 54, 0
28, 67890, Note_on_c, 15, 55, 80
28, 67919, Note_on_c, 15, 55, 0
28, 67920, Note_on_c, 15, 57, 80
28, 67979, Note_on_c, 15, 57, 0
28, 67980, Note_on_c, 15, 45, 80
28, 68039, Note_on_c, 15, 45, 0
28, 68040, Note_on_c, 15, 50, 80
28, 68069, Note_on_c, 15, 50, 0
28, 68070, Note_on_c, 15, 38, 80
28, 68099, Note_on_c, 15, 38, 0
28, 68100, Note_on_c, 15, 40, 80
28, 68129, Note_on_c, 15, 40, 0
28, 68130, Note_on_c, 15, 42, 80
28, 68159, Note_on_c, 15, 42, 0
28, 68160, Note_on_c, 15, 43, 80
28, 68189, Note_on_c, 15, 43, 0
28, 68190, Note_on_c, 15, 45, 80
28, 68219, Note_on_c, 15, 45, 0
28, 68220, Note_on_c, 15, 47, 80
28, 68249, Note_on_c, 15, 47, 0
28, 68250, Note_on_c, 15, 49, 80
28, 68279, Note_on_c, 15, 49, 0
28, 68280, Note_on_c, 15, 50, 80
28, 68309, Note_on_c, 15, 50, 0
28, 68310, Note_on_c, 15, 49, 80
28, 68339, Note_on_c, 15, 49, 0
28, 68340, Note_on_c, 15, 50, 80
28, 68369, Note_on_c, 15, 50, 0
28, 68370, Note_on_c, 15, 49, 80
28, 68399, Note_on_c, 15, 49, 0
28, 68400, Note_on_c, 15, 50, 80
28, 68429, Note_on_c, 15, 50, 0
28, 68430, Note_on_c, 15, 38, 80
28, 68459, Note_on_c, 15, 38, 0
28, 68460, Note_on_c, 15, 40, 80
28, 68489, Note_on_c, 15, 40, 0
28, 68490, Note_on_c, 15, 42, 80
28, 68519, Note_on_c, 15, 42, 0
28, 68520, Note_on_c, 15, 43, 80
28, 68549, Note_on_c, 15, 43, 0
28, 68550, Note_on_c, 15, 45, 80
28, 68579, Note_on_c, 15, 45, 0
28, 68580, Note_on_c, 15, 47, 80
28, 68609, Note_on_c, 15, 47, 0
28, 68610, Note_on_c, 15, 49, 80
28, 68639, Note_on_c, 15, 49, 0
28, 68640, Note_on_c, 15, 50, 80
28, 68669, Note_on_c, 15, 50, 0
28, 68670, Note_on_c, 15, 49, 80
28, 68699, Note_on_c, 15, 49, 0
28, 68700, Note_on_c, 15, 50, 80
28, 68729, Note_on_c, 15, 50, 0
28, 68730, Note_on_c, 15, 49, 80
28, 68759, Note_on_c, 15, 49, 0
28, 68760, Note_on_c, 15, 50, 80
28, 68789, Note_on_c, 15, 50, 0
28, 68790, Note_on_c, 15, 38, 80
28, 68819, Note_on_c, 15, 38, 0
28, 68820, Note_on_c, 15, 40, 80
28, 68849, Note_on_c, 15, 40, 0
28, 68850, Note_on_c, 15, 42, 80
28, 68879, Note_on_c, 15, 42, 0
28, 68880, Note_on_c, 15, 43, 80
28, 68909, Note_on_c, 15, 43, 0
28, 68910, Note_on_c, 15, 45, 80
28, 68939, Note_on_c, 15, 45, 0
28, 68940, Note_on_c, 15, 47, 80
28, 68969, Note_on_c, 15, 47, 0
28, 68970, Note_on_c, 15, 49, 80
28, 68999, Note_on_c, 15, 49, 0
28, 69000, Note_on_c, 15, 50, 80
28, 69029, Note_on_c, 15, 50, 0
28, 69030, Note_on_c, 15, 52, 80
28, 69059, Note_on_c, 15, 52, 0
28, 69060, Note_on_c, 15, 54, 80
28, 69089, Note_on_c, 15, 54, 0
28, 69090, Note_on_c, 15, 50, 80
28, 69119, Note_on_c, 15, 50, 0
28, 69120, Note_on_c, 15, 55, 80
28, 69149, Note_on_c, 15, 55, 0
28, 69150, Note_on_c, 15, 54, 80
28, 69179, Note_on_c, 15, 54, 0
28, 69180, Note_on_c, 15, 55, 80
28, 69209, Note_on_c, 15, 55, 0
28, 69210, Note_on_c, 15, 54, 80
28, 69239, Note_on_c, 15, 54, 0
28, 69240, Note_on_c, 15, 52, 80
28, 69269, Note_on_c, 15, 52, 0
28, 69270, Note_on_c, 15, 50, 80
28, 69299, Note_on_c, 15, 50, 0
28, 69300, Note_on_c, 15, 52, 80
28, 69329, Note_on_c, 15, 52, 0
28, 69330, Note_on_c, 15, 50, 80
28, 69359, Note_on_c, 15, 50, 0
28, 69360, Note_on_c, 15, 49, 80
28, 69389, Note_on_c, 15, 49, 0
28, 69390, Note_on_c, 15, 47, 80
28, 69419, Note_on_c, 15, 47, 0
28, 69420, Note_on_c, 15, 49, 80
28, 69449, Note_on_c, 15, 49, 0
28, 69450, Note_on_c, 15, 47, 80
28, 69479, Note_on_c, 15, 47, 0
28, 69480, Note_on_c, 15, 49, 80
28, 69509, Note_on_c, 15, 49, 0
28, 69510, Note_on_c, 15, 45, 80
28, 69539, Note_on_c, 15, 45, 0
28, 69540, Note_on_c, 15, 47, 80
28, 69569, Note_on_c, 15, 47, 0
28, 69570, Note_on_c, 15, 49, 80
28, 69599, Note_on_c, 15, 49, 0
28, 69600, Note_on_c, 15, 50, 80
28, 69629, Note_on_c, 15, 50, 0
28, 69630, Note_on_c, 15, 52, 80
28, 69659, Note_on_c, 15, 52, 0
28, 69660, Note_on_c, 15, 54, 80
28, 69689, Note_on_c, 15, 54, 0
28, 69690, Note_on_c, 15, 55, 80
28, 69719, Note_on_c, 15, 55, 0
28, 69720, Note_on_c, 15, 57, 80
28, 69779, Note_on_c, 15, 57, 0
28, 69780, Note_on_c, 15, 45, 80
28, 69839, Note_on_c, 15, 45, 0
28, 69840, Note_on_c, 15, 50, 80
28, 69960, Note_on_c, 15, 50, 0
28, 70560, Note_on_c, 15, 43, 100
28, 70680, Note_on_c, 15, 43, 0
28, 71280, Note_on_c, 15, 43, 100
28, 71400, Note_on_c, 15, 43, 0
28, 71760, Note_on_c, 15, 43, 100
28, 71880, Note_on_c, 15, 43, 0
28, 72240, Note_on_c, 15, 39, 100
28, 72360, Note_on_c, 15, 39, 0
28, 72720, Note_on_c, 15, 40, 100
28, 72840, Note_on_c, 15, 40, 0
28, 72960, Note_on_c, 15, 36, 100
28, 73080, Note_on_c, 15, 36, 0
28, 73320, Note_on_c, 15, 38, 100
28, 73440, Note_on_c, 15, 38, 0
28, 73440, Note_on_c, 15, 43, 100
28, 73560, Note_on_c, 15, 43, 0
28, 73710, Note_on_c, 15, 43, 100
28, 73740, Note_on_c, 15, 43, 0
28, 73740, Note_on_c, 15, 43, 100
28, 73770, Note_on_c, 15, 43, 0
28, 73770, Note_on_c, 15, 43, 100
28, 73800, Note_on_c, 15, 43, 0
28, 73800, Note_on_c, 15, 43, 100
28, 73920, Note_on_c, 15, 43, 0
28, 74190, Note_on_c, 15, 42, 100
28, 74220, Note_on_c, 15, 42, 0
28, 74220, Note_on_c, 15, 42, 100
28, 74250, Note_on_c, 15, 42, 0
28, 74250, Note_on_c, 15, 42, 100
28, 74280, Note_on_c, 15, 42, 0
28, 74280, Note_on_c, 15, 42, 100
28, 74400, Note_on_c, 15, 42, 0
28, 74670, Note_on_c, 15, 40, 100
28, 74700, Note_on_c, 15, 40, 0
28, 74700, Note_on_c, 15, 40, 100
28, 74730, Note_on_c, 15, 40, 0
28, 74730, Note_on_c, 15, 40, 100
28, 74760, Note_on_c, 15, 40, 0
28, 74760, Note_on_c, 15, 40, 100
28, 74880, Note_on_c, 15, 40, 0
28, 74910, Note_on_c, 15, 59, 90
28, 74939, Note_on_c, 15, 59, 0
28, 74940, Note_on_c, 15, 59, 90
28, 74969, Note_on_c, 15, 59, 0
28, 74970, Note_on_c, 15, 47, 90
28, 74999, Note_on_c, 15, 47, 0
28, 75000, Note_on_c, 15, 47, 90
28, 75029, Note_on_c, 15, 47, 0
28, 75030, Note_on_c, 15, 59, 90
28, 75059, Note_on_c, 15, 59, 0
28, 75060, Note_on_c, 15, 59, 90
28, 75089, Note_on_c, 15, 59, 0
28, 75090, Note_on_c, 15, 47, 90
28, 75119, Note_on_c, 15, 47, 0
28, 75120, Note_on_c, 15, 47, 90
28, 75134, Note_on_c, 15, 47, 0
28, 75135, Note_on_c, 15, 59, 90
28, 75149, Note_on_c, 15, 59, 0
28, 75150, Note_on_c, 15, 57, 90
28, 75164, Note_on_c, 15, 57, 0
28, 75165, Note_on_c, 15, 55, 90
28, 75179, Note_on_c, 15, 55, 0
28, 75180, Note_on_c, 15, 54, 90
28, 75194, Note_on_c, 15, 54, 0
28, 75195, Note_on_c, 15, 52, 90
28, 75209, Note_on_c, 15, 52, 0
28, 75210, Note_on_c, 15, 51, 90
28, 75224, Note_on_c, 15, 51, 0
28, 75225, Note_on_c, 15, 49, 90
28, 75239, Note_on_c, 15, 49, 0
28, 75240, Note_on_c, 15, 47, 90
28, 75254, Note_on_c, 15, 47, 0
28, 75255, Note_on_c, 15, 55, 90
28, 75269, Note_on_c, 15, 55, 0
28, 75270, Note_on_c, 15, 54, 90
28, 75284, Note_on_c, 15, 54, 0
28, 75285, Note_on_c, 15, 52, 90
28, 75299, Note_on_c, 15, 52, 0
28, 75300, Note_on_c, 15, 51, 90
28, 75314, Note_on_c, 15, 51, 0
28, 75315, Note_on_c, 15, 49, 90
28, 75329, Note_on_c, 15, 49, 0
28, 75330, Note_on_c, 15, 47, 90
28, 75344, Note_on_c, 15, 47, 0
28, 75345, Note_on_c, 15, 45, 90
28, 75359, Note_on_c, 15, 45, 0
28, 75360, Note_on_c, 15, 44, 90
28, 75479, Note_on_c, 15, 44, 0
28, 75600, Note_on_c, 15, 43, 90
28, 75719, Note_on_c, 15, 43, 0
28, 76080, Note_on_c, 15, 42, 90
28, 76199, Note_on_c, 15, 42, 0
28, 76320, Note_on_c, 15, 44, 90
28, 76439, Note_on_c, 15, 44, 0
28, 76590, Note_on_c, 15, 57, 90
28, 76619, Note_on_c, 15, 57, 0
28, 76620, Note_on_c, 15, 57, 90
28, 76649, Note_on_c, 15, 57, 0
28, 76650, Note_on_c, 15, 45, 90
28, 76679, Note_on_c, 15, 45, 0
28, 76680, Note_on_c, 15, 45, 90
28, 76709, Note_on_c, 15, 45, 0
28, 76710, Note_on_c, 15, 57, 90
28, 76739, Note_on_c, 15, 57, 0
28, 76740, Note_on_c, 15, 57, 90
28, 76769, Note_on_c, 15, 57, 0
28, 76770, Note_on_c, 15, 45, 90
28, 76799, Note_on_c, 15, 45, 0
28, 76800, Note_on_c, 15, 50, 90
28, 76814, Note_on_c, 15, 50, 0
28, 76815, Note_on_c, 15, 38, 90
28, 76829, Note_on_c, 15, 38, 0
28, 76830, Note_on_c, 15, 40, 90
28, 76844, Note_on_c, 15, 40, 0
28, 76845, Note_on_c, 15, 42, 90
28, 76859, Note_on_c, 15, 42, 0
28, 76860, Note_on_c, 15, 43, 90
28, 76874, Note_on_c, 15, 43, 0
28, 76875, Note_on_c, 15, 45, 90
28, 76889, Note_on_c, 15, 45, 0
28, 76890, Note_on_c, 15, 47, 90
28, 76904, Note_on_c, 15, 47, 0
28, 76905, Note_on_c, 15, 49, 90
28, 76919, Note_on_c, 15, 49, 0
28, 76920, Note_on_c, 15, 50, 90
28, 76934, Note_on_c, 15, 50, 0
28, 76935, Note_on_c, 15, 49, 90
28, 76949, Note_on_c, 15, 49, 0
28, 76950, Note_on_c, 15, 50, 90
28, 76964, Note_on_c, 15, 50, 0
28, 76965, Note_on_c, 15, 52, 90
28, 76979, Note_on_c, 15, 52, 0
28, 76980, Note_on_c, 15, 54, 90
28, 76994, Note_on_c, 15, 54, 0
28, 76995, Note_on_c, 15, 55, 90
28, 77009, Note_on_c, 15, 55, 0
28, 77010, Note_on_c, 15, 57, 90
28, 77024, Note_on_c, 15, 57, 0
28, 77025, Note_on_c, 15, 59, 90
28, 77039, Note_on_c, 15, 59, 0
28, 77040, Note_on_c, 15, 60, 90
28, 77159, Note_on_c, 15, 60, 0
28, 77310, Note_on_c, 15, 59, 90
28, 77339, Note_on_c, 15, 59, 0
28, 77340, Note_on_c, 15, 59, 90
28, 77369, Note_on_c, 15, 59, 0
28, 77370, Note_on_c, 15, 59, 90
28, 77399, Note_on_c, 15, 59, 0
28, 77400, Note_on_c, 15, 59, 90
28, 77429, Note_on_c, 15, 59, 0
28, 77430, Note_on_c, 15, 59, 90
28, 77459, Note_on_c, 15, 59, 0
28, 77460, Note_on_c, 15, 57, 90
28, 77489, Note_on_c, 15, 57, 0
28, 77490, Note_on_c, 15, 57, 90
28, 77519, Note_on_c, 15, 57, 0
28, 77520, Note_on_c, 15, 56, 90
28, 77639, Note_on_c, 15, 56, 0
28, 77775, Note_on_c, 15, 57, 90
28, 77789, Note_on_c, 15, 57, 0
28, 77790, Note_on_c, 15, 56, 90
28, 77804, Note_on_c, 15, 56, 0
28, 77805, Note_on_c, 15, 54, 90
28, 77819, Note_on_c, 15, 54, 0
28, 77820, Note_on_c, 15, 52, 90
28, 77834, Note_on_c, 15, 52, 0
28, 77835, Note_on_c, 15, 50, 90
28, 77849, Note_on_c, 15, 50, 0
28, 77850, Note_on_c, 15, 49, 90
28, 77864, Note_on_c, 15, 49, 0
28, 77865, Note_on_c, 15, 47, 90
28, 77879, Note_on_c, 15, 47, 0
28, 77880, Note_on_c, 15, 45, 90
28, 77894, Note_on_c, 15, 45, 0
28, 77895, Note_on_c, 15, 47, 90
28, 77909, Note_on_c, 15, 47, 0
28, 77910, Note_on_c, 15, 49, 90
28, 77924, Note_on_c, 15, 49, 0
28, 77925, Note_on_c, 15, 47, 90
28, 77939, Note_on_c, 15, 47, 0
28, 77940, Note_on_c, 15, 45, 90
28, 77954, Note_on_c, 15, 45, 0
28, 77955, Note_on_c, 15, 43, 90
28, 77969, Note_on_c, 15, 43, 0
28, 77970, Note_on_c, 15, 42, 90
28, 77984, Note_on_c, 15, 42, 0
28, 77985, Note_on_c, 15, 40, 90
28, 77999, Note_on_c, 15, 40, 0
28, 78000, Note_on_c, 15, 38, 90
28, 78119, Note_on_c, 15, 38, 0
28, 78255, Note_on_c, 15, 40, 90
28, 78269, Note_on_c, 15, 40, 0
28, 78270, Note_on_c, 15, 42, 90
28, 78284, Note_on_c, 15, 42, 0
28, 78285, Note_on_c, 15, 44, 90
28, 78299, Note_on_c, 15, 44, 0
28, 78300, Note_on_c, 15, 45, 90
28, 78314, Note_on_c, 15, 45, 0
28, 78315, Note_on_c, 15, 47, 90
28, 78329, Note_on_c, 15, 47, 0
28, 78330, Note_on_c, 15, 49, 90
28, 78344, Note_on_c, 15, 49, 0
28, 78345, Note_on_c, 15, 50, 90
28, 78359, Note_on_c, 15, 50, 0
28, 78360, Note_on_c, 15, 52, 90
28, 78374, Note_on_c, 15, 52, 0
28, 78375, Note_on_c, 15, 54, 90
28, 78389, Note_on_c, 15, 54, 0
28, 78390, Note_on_c, 15, 56, 90
28, 78404, Note_on_c, 15, 56, 0
28, 78405, Note_on_c, 15, 57, 90
28, 78419, Note_on_c, 15, 57, 0
28, 78420, Note_on_c, 15, 59, 90
28, 78434, Note_on_c, 15, 59, 0
28, 78435, Note_on_c, 15, 61, 90
28, 78449, Note_on_c, 15, 61, 0
28, 78450, Note_on_c, 15, 62, 90
28, 78464, Note_on_c, 15, 62, 0
28, 78465, Note_on_c, 15, 64, 90
28, 78479, Note_on_c, 15, 64, 0
28, 78480, Note_on_c, 15, 57, 90
28, 78509, Note_on_c, 15, 57, 0
28, 78510, Note_on_c, 15, 64, 90
28, 78524, Note_on_c, 15, 64, 0
28, 78525, Note_on_c, 15, 61, 90
28, 78539, Note_on_c, 15, 61, 0
28, 78540, Note_on_c, 15, 57, 90
28, 78569, Note_on_c, 15, 57, 0
28, 78570, Note_on_c, 15, 61, 90
28, 78584, Note_on_c, 15, 61, 0
28, 78585, Note_on_c, 15, 57, 90
28, 78599, Note_on_c, 15, 57, 0
28, 78600, Note_on_c, 15, 52, 90
28, 78629, Note_on_c, 15, 52, 0
28, 78630, Note_on_c, 15, 57, 90
28, 78644, Note_on_c, 15, 57, 0
28, 78645, Note_on_c, 15, 52, 90
28, 78659, Note_on_c, 15, 52, 0
28, 78660, Note_on_c, 15, 49, 90
28, 78689, Note_on_c, 15, 49, 0
28, 78690, Note_on_c, 15, 52, 90
28, 78704, Note_on_c, 15, 52, 0
28, 78705, Note_on_c, 15, 49, 90
28, 78719, Note_on_c, 15, 49, 0
28, 78720, Note_on_c, 15, 45, 90
28, 78839, Note_on_c, 15, 45, 0
28, 78990, Note_on_c, 15, 46, 90
28, 79019, Note_on_c, 15, 46, 0
28, 79020, Note_on_c, 15, 46, 90
28, 79049, Note_on_c, 15, 46, 0
28, 79050, Note_on_c, 15, 46, 90
28, 79079, Note_on_c, 15, 46, 0
28, 79080, Note_on_c, 15, 46, 90
28, 79199, Note_on_c, 15, 46, 0
28, 79470, Note_on_c, 15, 45, 90
28, 79499, Note_on_c, 15, 45, 0
28, 79500, Note_on_c, 15, 45, 90
28, 79529, Note_on_c, 15, 45, 0
28, 79530, Note_on_c, 15, 45, 90
28, 79559, Note_on_c, 15, 45, 0
28, 79560, Note_on_c, 15, 45, 90
28, 79589, Note_on_c, 15, 45, 0
28, 79590, Note_on_c, 15, 45, 90
28, 79619, Note_on_c, 15, 45, 0
28, 79620, Note_on_c, 15, 45, 90
28, 79649, Note_on_c, 15, 45, 0
28, 79650, Note_on_c, 15, 45, 90
28, 79679, Note_on_c, 15, 45, 0
28, 79680, Note_on_c, 15, 45, 90
28, 79799, Note_on_c, 15, 45, 0
28, 79935, Note_on_c, 15, 44, 90
28, 79949, Note_on_c, 15, 44, 0
28, 79950, Note_on_c, 15, 45, 90
28, 79964, Note_on_c, 15, 45, 0
28, 79965, Note_on_c, 15, 47, 90
28, 79979, Note_on_c, 15, 47, 0
28, 79980, Note_on_c, 15, 49, 90
28, 79994, Note_on_c, 15, 49, 0
28, 79995, Note_on_c, 15, 50, 90
28, 80009, Note_on_c, 15, 50, 0
28, 80010, Note_on_c, 15, 52, 90
28, 80024, Note_on_c, 15, 52, 0
28, 80025, Note_on_c, 15, 54, 90
28, 80039, Note_on_c, 15, 54, 0
28, 80040, Note_on_c, 15, 56, 90
28, 80099, Note_on_c, 15, 56, 0
28, 80430, Note_on_c, 15, 53, 90
28, 80459, Note_on_c, 15, 53, 0
28, 80460, Note_on_c, 15, 53, 90
28, 80489, Note_on_c, 15, 53, 0
28, 80490, Note_on_c, 15, 53, 90
28, 80519, Note_on_c, 15, 53, 0
28, 80520, Note_on_c, 15, 53, 90
28, 80579, Note_on_c, 15, 53, 0
28, 80910, Note_on_c, 15, 54, 90
28, 80939, Note_on_c, 15, 54, 0
28, 80940, Note_on_c, 15, 54, 90
28, 80969, Note_on_c, 15, 54, 0
28, 80970, Note_on_c, 15, 54, 90
28, 80999, Note_on_c, 15, 54, 0
28, 81000, Note_on_c, 15, 54, 90
28, 81059, Note_on_c, 15, 54, 0
28, 81150, Note_on_c, 15, 47, 90
28, 81179, Note_on_c, 15, 47, 0
28, 81180, Note_on_c, 15, 47, 90
28, 81209, Note_on_c, 15, 47, 0
28, 81210, Note_on_c, 15, 47, 90
28, 81239, Note_on_c, 15, 47, 0
28, 81240, Note_on_c, 15, 47, 90
28, 81299, Note_on_c, 15, 47, 0
28, 81390, Note_on_c, 15, 49, 90
28, 81419, Note_on_c, 15, 49, 0
28, 81420, Note_on_c, 15, 49, 90
28, 81449, Note_on_c, 15, 49, 0
28, 81450, Note_on_c, 15, 37, 90
28, 81479, Note_on_c, 15, 37, 0
28, 81480, Note_on_c, 15, 37, 90
28, 81509, Note_on_c, 15, 37, 0
28, 81510, Note_on_c, 15, 49, 90
28, 81539, Note_on_c, 15, 49, 0
28, 81540, Note_on_c, 15, 49, 90
28, 81569, Note_on_c, 15, 49, 0
28, 81570, Note_on_c, 15, 37, 90
28, 81599, Note_on_c, 15, 37, 0
28, 82500, Note_on_c, 15, 57, 90
28, 82529, Note_on_c, 15, 57, 0
28, 82530, Note_on_c, 15, 59, 90
28, 82559, Note_on_c, 15, 59, 0
28, 82560, Note_on_c, 15, 61, 90
28, 82619, Note_on_c, 15, 61, 0
28, 82620, Note_on_c, 15, 62, 90
28, 82679, Note_on_c, 15, 62, 0
28, 82680, Note_on_c, 15, 61, 90
28, 82739, Note_on_c, 15, 61, 0
28, 82740, Note_on_c, 15, 59, 90
28, 82799, Note_on_c, 15, 59, 0
28, 82800, Note_on_c, 15, 61, 90
28, 82859, Note_on_c, 15, 61, 0
28, 82860, Note_on_c, 15, 59, 90
28, 82889, Note_on_c, 15, 59, 0
28, 82890, Note_on_c, 15, 61, 90
28, 82919, Note_on_c, 15, 61, 0
28, 82920, Note_on_c, 15, 57, 90
28, 82979, Note_on_c, 15, 57, 0
28, 82980, Note_on_c, 15, 59, 90
28, 83039, Note_on_c, 15, 59, 0
28, 83040, Note_on_c, 15, 61, 90
28, 83099, Note_on_c, 15, 61, 0
28, 83100, Note_on_c, 15, 59, 90
28, 83129, Note_on_c, 15, 59, 0
28, 83130, Note_on_c, 15, 61, 90
28, 83159, Note_on_c, 15, 61, 0
28, 83160, Note_on_c, 15, 57, 90
28, 83219, Note_on_c, 15, 57, 0
28, 83220, Note_on_c, 15, 61, 90
28, 83279, Note_on_c, 15, 61, 0
28, 83280, Note_on_c, 15, 56, 90
28, 83339, Note_on_c, 15, 56, 0
28, 83340, Note_on_c, 15, 54, 90
28, 83369, Note_on_c, 15, 54, 0
28, 83370, Note_on_c, 15, 56, 90
28, 83399, Note_on_c, 15, 56, 0
28, 83400, Note_on_c, 15, 52, 90
28, 83459, Note_on_c, 15, 52, 0
28, 83460, Note_on_c, 15, 56, 90
28, 83519, Note_on_c, 15, 56, 0
28, 83520, Note_on_c, 15, 57, 90
28, 83579, Note_on_c, 15, 57, 0
28, 83580, Note_on_c, 15, 52, 90
28, 83639, Note_on_c, 15, 52, 0
28, 83640, Note_on_c, 15, 45, 90
28, 83699, Note_on_c, 15, 45, 0
28, 83700, Note_on_c, 15, 57, 90
28, 83759, Note_on_c, 15, 57, 0
28, 83760, Note_on_c, 15, 52, 90
28, 83819, Note_on_c, 15, 52, 0
28, 83820, Note_on_c, 15, 51, 90
28, 83879, Note_on_c, 15, 51, 0
28, 83880, Note_on_c, 15, 52, 90
28, 83939, Note_on_c, 15, 52, 0
28, 83940, Note_on_c, 15, 54, 90
28, 83999, Note_on_c, 15, 54, 0
28, 84000, Note_on_c, 15, 56, 90
28, 84029, Note_on_c, 15, 56, 0
28, 84030, Note_on_c, 15, 54, 90
28, 84059, Note_on_c, 15, 54, 0
28, 84060, Note_on_c, 15, 52, 90
28, 84089, Note_on_c, 15, 52, 0
28, 84090, Note_on_c, 15, 51, 90
28, 84119, Note_on_c, 15, 51, 0
28, 84120, Note_on_c, 15, 49, 90
28, 84179, Note_on_c, 15, 49, 0
28, 84180, Note_on_c, 15, 52, 90
28, 84239, Note_on_c, 15, 52, 0
28, 84240, Note_on_c, 15, 54, 90
28, 84269, Note_on_c, 15, 54, 0
28, 84270, Note_on_c, 15, 52, 90
28, 84299, Note_on_c, 15, 52, 0
28, 84300, Note_on_c, 15, 51, 90
28, 84329, Note_on_c, 15, 51, 0
28, 84330, Note_on_c, 15, 49, 90
28, 84359, Note_on_c, 15, 49, 0
28, 84360, Note_on_c, 15, 47, 90
28, 84419, Note_on_c, 15, 47, 0
28, 84420, Note_on_c, 15, 57, 90
28, 84479, Note_on_c, 15, 57, 0
28, 84480, Note_on_c, 15, 56, 90
28, 84539, Note_on_c, 15, 56, 0
28, 84540, Note_on_c, 15, 52, 90
28, 84599, Note_on_c, 15, 52, 0
28, 84600, Note_on_c, 15, 59, 90
28, 84659, Note_on_c, 15, 59, 0
28, 84660, Note_on_c, 15, 47, 90
28, 84719, Note_on_c, 15, 47, 0
28, 84720, Note_on_c, 15, 52, 90
28, 84779, Note_on_c, 15, 52, 0
28, 84780, Note_on_c, 15, 51, 90
28, 84809, Note_on_c, 15, 51, 0
28, 84810, Note_on_c, 15, 49, 90
28, 84839, Note_on_c, 15, 49, 0
28, 84840, Note_on_c, 15, 47, 90
28, 84869, Note_on_c, 15, 47, 0
28, 84870, Note_on_c, 15, 45, 90
28, 84899, Note_on_c, 15, 45, 0
28, 84900, Note_on_c, 15, 44, 90
28, 84929, Note_on_c, 15, 44, 0
28, 84930, Note_on_c, 15, 42, 90
28, 84959, Note_on_c, 15, 42, 0
28, 84960, Note_on_c, 15, 40, 90
28, 85019, Note_on_c, 15, 40, 0
28, 85020, Note_on_c, 15, 40, 90
28, 85079, Note_on_c, 15, 40, 0
28, 85080, Note_on_c, 15, 40, 90
28, 85139, Note_on_c, 15, 40, 0
28, 85140, Note_on_c, 15, 40, 90
28, 85199, Note_on_c, 15, 40, 0
28, 85200, Note_on_c, 15, 40, 90
28, 85259, Note_on_c, 15, 40, 0
28, 85260, Note_on_c, 15, 40, 90
28, 85319, Note_on_c, 15, 40, 0
28, 85320, Note_on_c, 15, 40, 90
28, 85379, Note_on_c, 15, 40, 0
28, 85380, Note_on_c, 15, 40, 90
28, 85439, Note_on_c, 15, 40, 0
28, 85440, Note_on_c, 15, 42, 90
28, 85499, Note_on_c, 15, 42, 0
28, 85500, Note_on_c, 15, 42, 90
28, 85559, Note_on_c, 15, 42, 0
28, 85560, Note_on_c, 15, 42, 90
28, 85619, Note_on_c, 15, 42, 0
28, 85620, Note_on_c, 15, 42, 90
28, 85679, Note_on_c, 15, 42, 0
28, 85680, Note_on_c, 15, 42, 90
28, 85739, Note_on_c, 15, 42, 0
28, 85740, Note_on_c, 15, 42, 90
28, 85799, Note_on_c, 15, 42, 0
28, 85800, Note_on_c, 15, 42, 90
28, 85859, Note_on_c, 15, 42, 0
28, 85860, Note_on_c, 15, 42, 90
28, 85919, Note_on_c, 15, 42, 0
28, 85920, Note_on_c, 15, 44, 90
28, 85979, Note_on_c, 15, 44, 0
28, 85980, Note_on_c, 15, 44, 90
28, 86039, Note_on_c, 15, 44, 0
28, 86040, Note_on_c, 15, 44, 90
28, 86099, Note_on_c, 15, 44, 0
28, 86100, Note_on_c, 15, 44, 90
28, 86159, Note_on_c, 15, 44, 0
28, 86160, Note_on_c, 15, 44, 90
28, 86219, Note_on_c, 15, 44, 0
28, 86220, Note_on_c, 15, 44, 90
28, 86279, Note_on_c, 15, 44, 0
28, 86280, Note_on_c, 15, 44, 90
28, 86339, Note_on_c, 15, 44, 0
28, 86340, Note_on_c, 15, 44, 90
28, 86399, Note_on_c, 15, 44, 0
28, 86400, Note_on_c, 15, 45, 90
28, 86459, Note_on_c, 15, 45, 0
28, 86460, Note_on_c, 15, 49, 90
28, 86519, Note_on_c, 15, 49, 0
28, 86520, Note_on_c, 15, 50, 90
28, 86579, Note_on_c, 15, 50, 0
28, 86580, Note_on_c, 15, 52, 90
28, 86639, Note_on_c, 15, 52, 0
28, 86640, Note_on_c, 15, 45, 90
28, 86699, Note_on_c, 15, 45, 0
28, 86700, Note_on_c, 15, 49, 90
28, 86729, Note_on_c, 15, 49, 0
28, 86730, Note_on_c, 15, 50, 90
28, 86759, Note_on_c, 15, 50, 0
28, 86760, Note_on_c, 15, 52, 90
28, 86819, Note_on_c, 15, 52, 0
28, 86820, Note_on_c, 15, 54, 90
28, 86849, Note_on_c, 15, 54, 0
28, 86850, Note_on_c, 15, 56, 90
28, 86879, Note_on_c, 15, 56, 0
28, 86880, Note_on_c, 15, 57, 90
28, 86939, Note_on_c, 15, 57, 0
28, 86940, Note_on_c, 15, 49, 90
28, 86969, Note_on_c, 15, 49, 0
28, 86970, Note_on_c, 15, 50, 90
28, 86999, Note_on_c, 15, 50, 0
28, 87000, Note_on_c, 15, 52, 90
28, 87059, Note_on_c, 15, 52, 0
28, 87060, Note_on_c, 15, 40, 90
28, 87119, Note_on_c, 15, 40, 0
28, 87120, Note_on_c, 15, 45, 90
28, 87179, Note_on_c, 15, 45, 0
28, 87180, Note_on_c, 15, 49, 90
28, 87209, Note_on_c, 15, 49, 0
28, 87210, Note_on_c, 15, 52, 90
28, 87239, Note_on_c, 15, 52, 0
28, 87240, Note_on_c, 15, 57, 90
28, 87299, Note_on_c, 15, 57, 0
28, 87300, Note_on_c, 15, 57, 90
28, 87329, Note_on_c, 15, 57, 0
28, 87330, Note_on_c, 15, 59, 90
28, 87359, Note_on_c, 15, 59, 0
28, 87360, Note_on_c, 15, 61, 90
28, 87419, Note_on_c, 15, 61, 0
28, 87420, Note_on_c, 15, 62, 90
28, 87479, Note_on_c, 15, 62, 0
28, 87480, Note_on_c, 15, 61, 90
28, 87539, Note_on_c, 15, 61, 0
28, 87540, Note_on_c, 15, 59, 90
28, 87599, Note_on_c, 15, 59, 0
28, 87600, Note_on_c, 15, 61, 90
28, 87659, Note_on_c, 15, 61, 0
28, 87660, Note_on_c, 15, 59, 90
28, 87689, Note_on_c, 15, 59, 0
28, 87690, Note_on_c, 15, 61, 90
28, 87719, Note_on_c, 15, 61, 0
28, 87720, Note_on_c, 15, 57, 90
28, 87779, Note_on_c, 15, 57, 0
28, 87780, Note_on_c, 15, 59, 90
28, 87839, Note_on_c, 15, 59, 0
28, 87840, Note_on_c, 15, 61, 90
28, 87899, Note_on_c, 15, 61, 0
28, 87900, Note_on_c, 15, 59, 90
28, 87929, Note_on_c, 15, 59, 0
28, 87930, Note_on_c, 15, 61, 90
28, 87959, Note_on_c, 15, 61, 0
28, 87960, Note_on_c, 15, 57, 90
28, 88019, Note_on_c, 15, 57, 0
28, 88020, Note_on_c, 15, 61, 90
28, 88079, Note_on_c, 15, 61, 0
28, 88080, Note_on_c, 15, 56, 90
28, 88139, Note_on_c, 15, 56, 0
28, 88140, Note_on_c, 15, 54, 90
28, 88169, Note_on_c, 15, 54, 0
28, 88170, Note_on_c, 15, 56, 90
28, 88199, Note_on_c, 15, 56, 0
28, 88200, Note_on_c, 15, 52, 90
28, 88259, Note_on_c, 15, 52, 0
28, 88260, Note_on_c, 15, 56, 90
28, 88319, Note_on_c, 15, 56, 0
28, 88320, Note_on_c, 15, 57, 90
28, 88379, Note_on_c, 15, 57, 0
28, 88380, Note_on_c, 15, 52, 90
28, 88439, Note_on_c, 15, 52, 0
28, 88440, Note_on_c, 15, 49, 90
28, 88499, Note_on_c, 15, 49, 0
28, 88500, Note_on_c, 15, 52, 90
28, 88559, Note_on_c, 15, 52, 0
28, 88560, Note_on_c, 15, 57, 90
28, 88619, Note_on_c, 15, 57, 0
28, 88620, Note_on_c, 15, 56, 90
28, 88679, Note_on_c, 15, 56, 0
28, 88680, Note_on_c, 15, 57, 90
28, 88739, Note_on_c, 15, 57, 0
28, 88740, Note_on_c, 15, 59, 90
28, 88799, Note_on_c, 15, 59, 0
28, 88800, Note_on_c, 15, 61, 90
28, 88829, Note_on_c, 15, 61, 0
28, 88830, Note_on_c, 15, 59, 90
28, 88859, Note_on_c, 15, 59, 0
28, 88860, Note_on_c, 15, 57, 90
28, 88889, Note_on_c, 15, 57, 0
28, 88890, Note_on_c, 15, 56, 90
28, 88919, Note_on_c, 15, 56, 0
28, 88920, Note_on_c, 15, 54, 90
28, 88979, Note_on_c, 15, 54, 0
28, 88980, Note_on_c, 15, 57, 90
28, 89039, Note_on_c, 15, 57, 0
28, 89040, Note_on_c, 15, 59, 90
28, 89069, Note_on_c, 15, 59, 0
28, 89070, Note_on_c, 15, 57, 90
28, 89099, Note_on_c, 15, 57, 0
28, 89100, Note_on_c, 15, 56, 90
28, 89129, Note_on_c, 15, 56, 0
28, 89130, Note_on_c, 15, 54, 90
28, 89159, Note_on_c, 15, 54, 0
28, 89160, Note_on_c, 15, 52, 90
28, 89219, Note_on_c, 15, 52, 0
28, 89220, Note_on_c, 15, 62, 90
28, 89279, Note_on_c, 15, 62, 0
28, 89280, Note_on_c, 15, 61, 90
28, 89339, Note_on_c, 15, 61, 0
28, 89340, Note_on_c, 15, 57, 90
28, 89399, Note_on_c, 15, 57, 0
28, 89400, Note_on_c, 15, 64, 90
28, 89459, Note_on_c, 15, 64, 0
28, 89460, Note_on_c, 15, 52, 90
28, 89519, Note_on_c, 15, 52, 0
28, 89520, Note_on_c, 15, 57, 90
28, 89579, Note_on_c, 15, 57, 0
28, 89580, Note_on_c, 15, 56, 90
28, 89610, Note_on_c, 15, 56, 0
28, 89610, Note_on_c, 15, 54, 90
28, 89640, Note_on_c, 15, 54, 0
28, 89640, Note_on_c, 15, 52, 90
28, 89670, Note_on_c, 15, 52, 0
28, 89670, Note_on_c, 15, 50, 90
28, 89700, Note_on_c, 15, 50, 0
28, 89700, Note_on_c, 15, 49, 90
28, 89730, Note_on_c, 15, 49, 0
28, 89730, Note_on_c, 15, 47, 90
28, 89760, Note_on_c, 15, 47, 0
28, 89760, Note_on_c, 15, 45, 90
28, 89819, Note_on_c, 15, 45, 0
28, 89820, Note_on_c, 15, 57, 90
28, 89849, Note_on_c, 15, 57, 0
28, 89850, Note_on_c, 15, 56, 90
28, 89879, Note_on_c, 15, 56, 0
28, 89880, Note_on_c, 15, 57, 90
28, 89939, Note_on_c, 15, 57, 0
28, 90420, Note_on_c, 15, 57, 90
28, 90479, Note_on_c, 15, 57, 0
28, 90480, Note_on_c, 15, 56, 90
28, 90539, Note_on_c, 15, 56, 0
28, 90540, Note_on_c, 15, 54, 90
28, 90569, Note_on_c, 15, 54, 0
28, 90570, Note_on_c, 15, 56, 90
28, 90599, Note_on_c, 15, 56, 0
28, 90600, Note_on_c, 15, 52, 90
28, 90659, Note_on_c, 15, 52, 0
28, 90660, Note_on_c, 15, 56, 90
28, 90719, Note_on_c, 15, 56, 0
28, 90720, Note_on_c, 15, 57, 90
28, 90779, Note_on_c, 15, 57, 0
28, 90780, Note_on_c, 15, 52, 90
28, 90839, Note_on_c, 15, 52, 0
28, 90840, Note_on_c, 15, 45, 90
28, 90899, Note_on_c, 15, 45, 0
28, 90900, Note_on_c, 15, 57, 90
28, 90959, Note_on_c, 15, 57, 0
28, 90960, Note_on_c, 15, 52, 90
28, 91019, Note_on_c, 15, 52, 0
28, 91020, Note_on_c, 15, 51, 90
28, 91079, Note_on_c, 15, 51, 0
28, 91080, Note_on_c, 15, 52, 90
28, 91139, Note_on_c, 15, 52, 0
28, 91140, Note_on_c, 15, 54, 90
28, 91199, Note_on_c, 15, 54, 0
28, 91200, Note_on_c, 15, 56, 90
28, 91230, Note_on_c, 15, 56, 0
28, 91230, Note_on_c, 15, 54, 90
28, 91260, Note_on_c, 15, 54, 0
28, 91260, Note_on_c, 15, 52, 90
28, 91290, Note_on_c, 15, 52, 0
28, 91290, Note_on_c, 15, 51, 90
28, 91320, Note_on_c, 15, 51, 0
28, 91320, Note_on_c, 15, 49, 90
28, 91379, Note_on_c, 15, 49, 0
28, 91380, Note_on_c, 15, 52, 90
28, 91439, Note_on_c, 15, 52, 0
28, 91440, Note_on_c, 15, 54, 90
28, 91469, Note_on_c, 15, 54, 0
28, 91470, Note_on_c, 15, 52, 90
28, 91499, Note_on_c, 15, 52, 0
28, 91500, Note_on_c, 15, 51, 90
28, 91529, Note_on_c, 15, 51, 0
28, 91530, Note_on_c, 15, 49, 90
28, 91559, Note_on_c, 15, 49, 0
28, 91560, Note_on_c, 15, 47, 90
28, 91619, Note_on_c, 15, 47, 0
28, 91620, Note_on_c, 15, 57, 90
28, 91679, Note_on_c, 15, 57, 0
28, 91680, Note_on_c, 15, 56, 90
28, 91739, Note_on_c, 15, 56, 0
28, 91740, Note_on_c, 15, 52, 90
28, 91799, Note_on_c, 15, 52, 0
28, 91800, Note_on_c, 15, 59, 90
28, 91859, Note_on_c, 15, 59, 0
28, 91860, Note_on_c, 15, 47, 90
28, 91919, Note_on_c, 15, 47, 0
28, 91920, Note_on_c, 15, 52, 90
28, 91979, Note_on_c, 15, 52, 0
28, 91980, Note_on_c, 15, 51, 90
28, 92009, Note_on_c, 15, 51, 0
28, 92010, Note_on_c, 15, 49, 90
28, 92039, Note_on_c, 15, 49, 0
28, 92040, Note_on_c, 15, 47, 90
28, 92069, Note_on_c, 15, 47, 0
28, 92070, Note_on_c, 15, 45, 90
28, 92099, Note_on_c, 15, 45, 0
28, 92100, Note_on_c, 15, 44, 90
28, 92129, Note_on_c, 15, 44, 0
28, 92130, Note_on_c, 15, 42, 90
28, 92159, Note_on_c, 15, 42, 0
28, 92160, Note_on_c, 15, 40, 90
28, 92219, Note_on_c, 15, 40, 0
28, 92220, Note_on_c, 15, 52, 90
28, 92249, Note_on_c, 15, 52, 0
28, 92250, Note_on_c, 15, 51, 90
28, 92279, Note_on_c, 15, 51, 0
28, 92280, Note_on_c, 15, 52, 90
28, 92339, Note_on_c, 15, 52, 0
28, 92460, Note_on_c, 15, 49, 90
28, 92489, Note_on_c, 15, 49, 0
28, 92490, Note_on_c, 15, 50, 90
28, 92519, Note_on_c, 15, 50, 0
28, 92520, Note_on_c, 15, 52, 90
28, 92579, Note_on_c, 15, 52, 0
28, 92580, Note_on_c, 15, 54, 90
28, 92609, Note_on_c, 15, 54, 0
28, 92610, Note_on_c, 15, 56, 90
28, 92639, Note_on_c, 15, 56, 0
28, 92640, Note_on_c, 15, 57, 90
28, 92699, Note_on_c, 15, 57, 0
28, 92700, Note_on_c, 15, 45, 90
28, 92729, Note_on_c, 15, 45, 0
28, 92730, Note_on_c, 15, 47, 90
28, 92759, Note_on_c, 15, 47, 0
28, 92760, Note_on_c, 15, 49, 90
28, 92819, Note_on_c, 15, 49, 0
28, 92820, Note_on_c, 15, 51, 90
28, 92849, Note_on_c, 15, 51, 0
28, 92850, Note_on_c, 15, 53, 90
28, 92879, Note_on_c, 15, 53, 0
28, 92880, Note_on_c, 15, 54, 90
28, 92939, Note_on_c, 15, 54, 0
28, 92940, Note_on_c, 15, 42, 90
28, 92999, Note_on_c, 15, 42, 0
28, 93000, Note_on_c, 15, 54, 90
28, 93029, Note_on_c, 15, 54, 0
28, 93030, Note_on_c, 15, 52, 90
28, 93059, Note_on_c, 15, 52, 0
28, 93060, Note_on_c, 15, 50, 90
28, 93089, Note_on_c, 15, 50, 0
28, 93090, Note_on_c, 15, 49, 90
28, 93119, Note_on_c, 15, 49, 0
28, 93120, Note_on_c, 15, 47, 90
28, 93179, Note_on_c, 15, 47, 0
28, 93180, Note_on_c, 15, 47, 90
28, 93239, Note_on_c, 15, 47, 0
28, 93240, Note_on_c, 15, 47, 90
28, 93299, Note_on_c, 15, 47, 0
28, 93300, Note_on_c, 15, 47, 90
28, 93359, Note_on_c, 15, 47, 0
28, 93360, Note_on_c, 15, 47, 90
28, 93419, Note_on_c, 15, 47, 0
28, 93420, Note_on_c, 15, 47, 90
28, 93449, Note_on_c, 15, 47, 0
28, 93450, Note_on_c, 15, 49, 90
28, 93479, Note_on_c, 15, 49, 0
28, 93480, Note_on_c, 15, 50, 90
28, 93539, Note_on_c, 15, 50, 0
28, 93540, Note_on_c, 15, 52, 90
28, 93569, Note_on_c, 15, 52, 0
28, 93570, Note_on_c, 15, 54, 90
28, 93599, Note_on_c, 15, 54, 0
28, 93600, Note_on_c, 15, 56, 90
28, 93659, Note_on_c, 15, 56, 0
28, 93660, Note_on_c, 15, 44, 90
28, 93689, Note_on_c, 15, 44, 0
28, 93690, Note_on_c, 15, 45, 90
28, 93719, Note_on_c, 15, 45, 0
28, 93720, Note_on_c, 15, 47, 90
28, 93779, Note_on_c, 15, 47, 0
28, 93780, Note_on_c, 15, 49, 90
28, 93809, Note_on_c, 15, 49, 0
28, 93810, Note_on_c, 15, 51, 90
28, 93839, Note_on_c, 15, 51, 0
28, 93840, Note_on_c, 15, 52, 90
28, 93899, Note_on_c, 15, 52, 0
28, 93900, Note_on_c, 15, 40, 90
28, 93959, Note_on_c, 15, 40, 0
28, 93960, Note_on_c, 15, 52, 90
28, 93989, Note_on_c, 15, 52, 0
28, 93990, Note_on_c, 15, 50, 90
28, 94019, Note_on_c, 15, 50, 0
28, 94020, Note_on_c, 15, 49, 90
28, 94049, Note_on_c, 15, 49, 0
28, 94050, Note_on_c, 15, 47, 90
28, 94079, Note_on_c, 15, 47, 0
28, 94080, Note_on_c, 15, 45, 90
28, 94139, Note_on_c, 15, 45, 0
28, 94140, Note_on_c, 15, 45, 90
28, 94199, Note_on_c, 15, 45, 0
28, 94200, Note_on_c, 15, 45, 90
28, 94259, Note_on_c, 15, 45, 0
28, 94260, Note_on_c, 15, 45, 90
28, 94319, Note_on_c, 15, 45, 0
28, 94320, Note_on_c, 15, 45, 90
28, 94379, Note_on_c, 15, 45, 0
28, 94380, Note_on_c, 15, 45, 90
28, 94439, Note_on_c, 15, 45, 0
28, 94440, Note_on_c, 15, 45, 90
28, 94499, Note_on_c, 15, 45, 0
28, 94500, Note_on_c, 15, 45, 90
28, 94559, Note_on_c, 15, 45, 0
28, 94560, Note_on_c, 15, 45, 90
28, 94619, Note_on_c, 15, 45, 0
28, 94620, Note_on_c, 15, 44, 90
28, 94649, Note_on_c, 15, 44, 0
28, 94650, Note_on_c, 15, 45, 90
28, 94679, Note_on_c, 15, 45, 0
28, 94680, Note_on_c, 15, 42, 90
28, 94739, Note_on_c, 15, 42, 0
28, 94740, Note_on_c, 15, 45, 90
28, 94799, Note_on_c, 15, 45, 0
28, 94800, Note_on_c, 15, 44, 90
28, 94859, Note_on_c, 15, 44, 0
28, 94860, Note_on_c, 15, 42, 90
28, 94889, Note_on_c, 15, 42, 0
28, 94890, Note_on_c, 15, 44, 90
28, 94919, Note_on_c, 15, 44, 0
28, 94920, Note_on_c, 15, 40, 90
28, 94979, Note_on_c, 15, 40, 0
28, 94980, Note_on_c, 15, 44, 90
28, 95039, Note_on_c, 15, 44, 0
28, 95040, Note_on_c, 15, 45, 90
28, 95099, Note_on_c, 15, 45, 0
28, 95100, Note_on_c, 15, 47, 90
28, 95159, Note_on_c, 15, 47, 0
28, 95160, Note_on_c, 15, 49, 90
28, 95219, Note_on_c, 15, 49, 0
28, 95220, Note_on_c, 15, 50, 90
28, 95279, Note_on_c, 15, 50, 0
28, 95280, Note_on_c, 15, 52, 90
28, 95339, Note_on_c, 15, 52, 0
28, 95340, Note_on_c, 15, 49, 90
28, 95399, Note_on_c, 15, 49, 0
28, 95400, Note_on_c, 15, 50, 90
28, 95459, Note_on_c, 15, 50, 0
28, 95460, Note_on_c, 15, 52, 90
28, 95519, Note_on_c, 15, 52, 0
28, 95520, Note_on_c, 15, 54, 90
28, 95579, Note_on_c, 15, 54, 0
28, 95580, Note_on_c, 15, 54, 90
28, 95639, Note_on_c, 15, 54, 0
28, 95640, Note_on_c, 15, 54, 90
28, 95699, Note_on_c, 15, 54, 0
28, 95700, Note_on_c, 15, 54, 90
28, 95759, Note_on_c, 15, 54, 0
28, 95760, Note_on_c, 15, 49, 90
28, 95819, Note_on_c, 15, 49, 0
28, 95820, Note_on_c, 15, 49, 90
28, 95879, Note_on_c, 15, 49, 0
28, 95880, Note_on_c, 15, 49, 90
28, 95939, Note_on_c, 15, 49, 0
28, 95940, Note_on_c, 15, 49, 90
28, 95999, Note_on_c, 15, 49, 0
28, 96000, Note_on_c, 15, 51, 90
28, 96059, Note_on_c, 15, 51, 0
28, 96060, Note_on_c, 15, 51, 90
28, 96119, Note_on_c, 15, 51, 0
28, 96120, Note_on_c, 15, 51, 90
28, 96179, Note_on_c, 15, 51, 0
28, 96180, Note_on_c, 15, 51, 90
28, 96239, Note_on_c, 15, 51, 0
28, 96240, Note_on_c, 15, 47, 90
28, 96299, Note_on_c, 15, 47, 0
28, 96300, Note_on_c, 15, 47, 90
28, 96359, Note_on_c, 15, 47, 0
28, 96360, Note_on_c, 15, 47, 90
28, 96419, Note_on_c, 15, 47, 0
28, 96420, Note_on_c, 15, 47, 90
28, 96479, Note_on_c, 15, 47, 0
28, 96480, Note_on_c, 15, 52, 90
28, 96539, Note_on_c, 15, 52, 0
28, 96540, Note_on_c, 15, 44, 90
28, 96599, Note_on_c, 15, 44, 0
28, 96600, Note_on_c, 15, 45, 90
28, 96659, Note_on_c, 15, 45, 0
28, 96660, Note_on_c, 15, 47, 90
28, 96719, Note_on_c, 15, 47, 0
28, 96720, Note_on_c, 15, 40, 90
28, 96749, Note_on_c, 15, 40, 0
28, 96750, Note_on_c, 15, 42, 90
28, 96779, Note_on_c, 15, 42, 0
28, 96780, Note_on_c, 15, 44, 90
28, 96809, Note_on_c, 15, 44, 0
28, 96810, Note_on_c, 15, 45, 90
28, 96839, Note_on_c, 15, 45, 0
28, 96840, Note_on_c, 15, 47, 90
28, 96869, Note_on_c, 15, 47, 0
28, 96870, Note_on_c, 15, 49, 90
28, 96899, Note_on_c, 15, 49, 0
28, 96900, Note_on_c, 15, 51, 90
28, 96929, Note_on_c, 15, 51, 0
28, 96930, Note_on_c, 15, 52, 90
28, 96959, Note_on_c, 15, 52, 0
28, 96960, Note_on_c, 15, 49, 90
28, 97019, Note_on_c, 15, 49, 0
28, 97020, Note_on_c, 15, 49, 90
28, 97079, Note_on_c, 15, 49, 0
28, 97080, Note_on_c, 15, 49, 90
28, 97139, Note_on_c, 15, 49, 0
28, 97140, Note_on_c, 15, 49, 90
28, 97199, Note_on_c, 15, 49, 0
28, 97200, Note_on_c, 15, 54, 90
28, 97259, Note_on_c, 15, 54, 0
28, 97260, Note_on_c, 15, 54, 90
28, 97319, Note_on_c, 15, 54, 0
28, 97320, Note_on_c, 15, 54, 90
28, 97379, Note_on_c, 15, 54, 0
28, 97380, Note_on_c, 15, 54, 90
28, 97439, Note_on_c, 15, 54, 0
28, 97440, Note_on_c, 15, 51, 90
28, 97499, Note_on_c, 15, 51, 0
28, 97500, Note_on_c, 15, 51, 90
28, 97559, Note_on_c, 15, 51, 0
28, 97560, Note_on_c, 15, 51, 90
28, 97619, Note_on_c, 15, 51, 0
28, 97620, Note_on_c, 15, 51, 90
28, 97679, Note_on_c, 15, 51, 0
28, 97680, Note_on_c, 15, 47, 90
28, 97739, Note_on_c, 15, 47, 0
28, 97740, Note_on_c, 15, 47, 90
28, 97799, Note_on_c, 15, 47, 0
28, 97800, Note_on_c, 15, 47, 90
28, 97859, Note_on_c, 15, 47, 0
28, 97860, Note_on_c, 15, 47, 90
28, 97919, Note_on_c, 15, 47, 0
28, 97920, Note_on_c, 15, 52, 90
28, 97979, Note_on_c, 15, 52, 0
28, 97980, Note_on_c, 15, 44, 90
28, 98039, Note_on_c, 15, 44, 0
28, 98040, Note_on_c, 15, 45, 90
28, 98099, Note_on_c, 15, 45, 0
28, 98100, Note_on_c, 15, 47, 90
28, 98159, Note_on_c, 15, 47, 0
28, 98160, Note_on_c, 15, 40, 90
28, 98219, Note_on_c, 15, 40, 0
28, 98220, Note_on_c, 15, 44, 90
28, 98249, Note_on_c, 15, 44, 0
28, 98250, Note_on_c, 15, 45, 90
28, 98279, Note_on_c, 15, 45, 0
28, 98280, Note_on_c, 15, 47, 90
28, 98339, Note_on_c, 15, 47, 0
28, 98340, Note_on_c, 15, 49, 90
28, 98369, Note_on_c, 15, 49, 0
28, 98370, Note_on_c, 15, 51, 90
28, 98399, Note_on_c, 15, 51, 0
28, 98400, Note_on_c, 15, 52, 90
28, 98459, Note_on_c, 15, 52, 0
28, 98460, Note_on_c, 15, 54, 90
28, 98489, Note_on_c, 15, 54, 0
28, 98490, Note_on_c, 15, 56, 90
28, 98519, Note_on_c, 15, 56, 0
28, 98520, Note_on_c, 15, 59, 90
28, 98579, Note_on_c, 15, 59, 0
28, 98580, Note_on_c, 15, 47, 90
28, 98639, Note_on_c, 15, 47, 0
28, 98640, Note_on_c, 15, 52, 90
28, 98699, Note_on_c, 15, 52, 0
28, 98700, Note_on_c, 15, 51, 90
28, 98729, Note_on_c, 15, 51, 0
28, 98730, Note_on_c, 15, 49, 90
28, 98759, Note_on_c, 15, 49, 0
28, 98760, Note_on_c, 15, 47, 90
28, 98789, Note_on_c, 15, 47, 0
28, 98790, Note_on_c, 15, 45, 90
28, 98819, Note_on_c, 15, 45, 0
28, 98820, Note_on_c, 15, 44, 90
28, 98849, Note_on_c, 15, 44, 0
28, 98850, Note_on_c, 15, 42, 90
28, 98879, Note_on_c, 15, 42, 0
28, 98880, Note_on_c, 15, 40, 90
28, 98939, Note_on_c, 15, 40, 0
28, 98940, Note_on_c, 15, 40, 90
28, 98999, Note_on_c, 15, 40, 0
28, 99000, Note_on_c, 15, 40, 90
28, 99059, Note_on_c, 15, 40, 0
28, 99060, Note_on_c, 15, 40, 90
28, 99119, Note_on_c, 15, 40, 0
28, 99120, Note_on_c, 15, 41, 90
28, 99179, Note_on_c, 15, 41, 0
28, 99180, Note_on_c, 15, 41, 90
28, 99239, Note_on_c, 15, 41, 0
28, 99240, Note_on_c, 15, 41, 90
28, 99299, Note_on_c, 15, 41, 0
28, 99300, Note_on_c, 15, 41, 90
28, 99359, Note_on_c, 15, 41, 0
28, 99360, Note_on_c, 15, 42, 90
28, 99419, Note_on_c, 15, 42, 0
28, 99420, Note_on_c, 15, 42, 90
28, 99479, Note_on_c, 15, 42, 0
28, 99480, Note_on_c, 15, 42, 90
28, 99539, Note_on_c, 15, 42, 0
28, 99540, Note_on_c, 15, 42, 90
28, 99599, Note_on_c, 15, 42, 0
28, 99600, Note_on_c, 15, 49, 90
28, 99659, Note_on_c, 15, 49, 0
28, 99660, Note_on_c, 15, 49, 90
28, 99719, Note_on_c, 15, 49, 0
28, 99720, Note_on_c, 15, 49, 90
28, 99779, Note_on_c, 15, 49, 0
28, 99780, Note_on_c, 15, 49, 90
28, 99839, Note_on_c, 15, 49, 0
28, 99840, Note_on_c, 15, 50, 90
28, 99899, Note_on_c, 15, 50, 0
28, 99900, Note_on_c, 15, 50, 90
28, 99959, Note_on_c, 15, 50, 0
28, 99960, Note_on_c, 15, 50, 90
28, 100019, Note_on_c, 15, 50, 0
28, 100020, Note_on_c, 15, 50, 90
28, 100079, Note_on_c, 15, 50, 0
28, 100080, Note_on_c, 15, 46, 90
28, 100139, Note_on_c, 15, 46, 0
28, 100140, Note_on_c, 15, 46, 90
28, 100199, Note_on_c, 15, 46, 0
28, 100200, Note_on_c, 15, 46, 90
28, 100259, Note_on_c, 15, 46, 0
28, 100260, Note_on_c, 15, 46, 90
28, 100319, Note_on_c, 15, 46, 0
28, 100320, Note_on_c, 15, 47, 90
28, 100379, Note_on_c, 15, 47, 0
28, 100380, Note_on_c, 15, 45, 90
28, 100409, Note_on_c, 15, 45, 0
28, 100410, Note_on_c, 15, 44, 90
28, 100439, Note_on_c, 15, 44, 0
28, 100440, Note_on_c, 15, 45, 90
28, 100499, Note_on_c, 15, 45, 0
28, 100500, Note_on_c, 15, 47, 90
28, 100559, Note_on_c, 15, 47, 0
28, 100560, Note_on_c, 15, 49, 90
28, 100619, Note_on_c, 15, 49, 0
28, 100620, Note_on_c, 15, 51, 90
28, 100649, Note_on_c, 15, 51, 0
28, 100650, Note_on_c, 15, 53, 90
28, 100679, Note_on_c, 15, 53, 0
28, 100680, Note_on_c, 15, 54, 90
28, 100709, Note_on_c, 15, 54, 0
28, 100710, Note_on_c, 15, 53, 90
28, 100739, Note_on_c, 15, 53, 0
28, 100740, Note_on_c, 15, 54, 90
28, 100769, Note_on_c, 15, 54, 0
28, 100770, Note_on_c, 15, 56, 90
28, 100799, Note_on_c, 15, 56, 0
28, 100800, Note_on_c, 15, 57, 90
28, 100859, Note_on_c, 15, 57, 0
28, 100860, Note_on_c, 15, 59, 90
28, 100919, Note_on_c, 15, 59, 0
28, 100920, Note_on_c, 15, 57, 90
28, 100979, Note_on_c, 15, 57, 0
28, 100980, Note_on_c, 15, 56, 90
28, 101039, Note_on_c, 15, 56, 0
28, 101040, Note_on_c, 15, 57, 90
28, 101099, Note_on_c, 15, 57, 0
28, 101100, Note_on_c, 15, 56, 90
28, 101129, Note_on_c, 15, 56, 0
28, 101130, Note_on_c, 15, 57, 90
28, 101159, Note_on_c, 15, 57, 0
28, 101160, Note_on_c, 15, 54, 90
28, 101219, Note_on_c, 15, 54, 0
28, 101220, Note_on_c, 15, 56, 90
28, 101279, Note_on_c, 15, 56, 0
28, 101280, Note_on_c, 15, 57, 90
28, 101339, Note_on_c, 15, 57, 0
28, 101340, Note_on_c, 15, 56, 90
28, 101369, Note_on_c, 15, 56, 0
28, 101370, Note_on_c, 15, 57, 90
28, 101399, Note_on_c, 15, 57, 0
28, 101400, Note_on_c, 15, 54, 90
28, 101459, Note_on_c, 15, 54, 0
28, 101460, Note_on_c, 15, 57, 90
28, 101519, Note_on_c, 15, 57, 0
28, 101520, Note_on_c, 15, 53, 90
28, 101579, Note_on_c, 15, 53, 0
28, 101580, Note_on_c, 15, 51, 90
28, 101609, Note_on_c, 15, 51, 0
28, 101610, Note_on_c, 15, 53, 90
28, 101639, Note_on_c, 15, 53, 0
28, 101640, Note_on_c, 15, 49, 90
28, 101699, Note_on_c, 15, 49, 0
28, 101700, Note_on_c, 15, 53, 90
28, 101759, Note_on_c, 15, 53, 0
28, 101760, Note_on_c, 15, 54, 90
28, 101819, Note_on_c, 15, 54, 0
28, 101820, Note_on_c, 15, 49, 90
28, 101879, Note_on_c, 15, 49, 0
28, 101880, Note_on_c, 15, 42, 90
28, 101939, Note_on_c, 15, 42, 0
28, 101940, Note_on_c, 15, 45, 90
28, 101999, Note_on_c, 15, 45, 0
28, 102000, Note_on_c, 15, 47, 90
28, 102059, Note_on_c, 15, 47, 0
28, 102060, Note_on_c, 15, 59, 90
28, 102089, Note_on_c, 15, 59, 0
28, 102090, Note_on_c, 15, 57, 90
28, 102119, Note_on_c, 15, 57, 0
28, 102120, Note_on_c, 15, 56, 90
28, 102179, Note_on_c, 15, 56, 0
28, 102180, Note_on_c, 15, 54, 90
28, 102239, Note_on_c, 15, 54, 0
28, 102240, Note_on_c, 15, 52, 90
28, 102299, Note_on_c, 15, 52, 0
28, 102300, Note_on_c, 15, 40, 90
28, 102359, Note_on_c, 15, 40, 0
28, 102360, Note_on_c, 15, 40, 90
28, 102419, Note_on_c, 15, 40, 0
28, 102420, Note_on_c, 15, 40, 90
28, 102479, Note_on_c, 15, 40, 0
28, 102480, Note_on_c, 15, 45, 90
28, 102539, Note_on_c, 15, 45, 0
28, 102540, Note_on_c, 15, 57, 90
28, 102569, Note_on_c, 15, 57, 0
28, 102570, Note_on_c, 15, 56, 90
28, 102599, Note_on_c, 15, 56, 0
28, 102600, Note_on_c, 15, 54, 90
28, 102659, Note_on_c, 15, 54, 0
28, 102660, Note_on_c, 15, 52, 90
28, 102719, Note_on_c, 15, 52, 0
28, 102720, Note_on_c, 15, 50, 90
28, 102779, Note_on_c, 15, 50, 0
28, 102780, Note_on_c, 15, 38, 90
28, 102839, Note_on_c, 15, 38, 0
28, 102840, Note_on_c, 15, 38, 90
28, 102899, Note_on_c, 15, 38, 0
28, 102900, Note_on_c, 15, 38, 90
28, 102959, Note_on_c, 15, 38, 0
28, 102960, Note_on_c, 15, 44, 90
28, 103019, Note_on_c, 15, 44, 0
28, 103020, Note_on_c, 15, 56, 90
28, 103049, Note_on_c, 15, 56, 0
28, 103050, Note_on_c, 15, 54, 90
28, 103079, Note_on_c, 15, 54, 0
28, 103080, Note_on_c, 15, 53, 90
28, 103139, Note_on_c, 15, 53, 0
28, 103140, Note_on_c, 15, 51, 90
28, 103199, Note_on_c, 15, 51, 0
28, 103200, Note_on_c, 15, 49, 90
28, 103259, Note_on_c, 15, 49, 0
28, 103260, Note_on_c, 15, 37, 90
28, 103319, Note_on_c, 15, 37, 0
28, 103320, Note_on_c, 15, 37, 90
28, 103379, Note_on_c, 15, 37, 0
28, 103380, Note_on_c, 15, 37, 90
28, 103439, Note_on_c, 15, 37, 0
28, 103440, Note_on_c, 15, 42, 90
28, 103469, Note_on_c, 15, 42, 0
28, 103470, Note_on_c, 15, 54, 90
28, 103499, Note_on_c, 15, 54, 0
28, 103500, Note_on_c, 15, 56, 90
28, 103529, Note_on_c, 15, 56, 0
28, 103530, Note_on_c, 15, 57, 90
28, 103559, Note_on_c, 15, 57, 0
28, 103560, Note_on_c, 15, 59, 90
28, 103589, Note_on_c, 15, 59, 0
28, 103590, Note_on_c, 15, 56, 90
28, 103619, Note_on_c, 15, 56, 0
28, 103620, Note_on_c, 15, 57, 90
28, 103649, Note_on_c, 15, 57, 0
28, 103650, Note_on_c, 15, 59, 90
28, 103679, Note_on_c, 15, 59, 0
28, 103680, Note_on_c, 15, 61, 90
28, 103739, Note_on_c, 15, 61, 0
28, 103740, Note_on_c, 15, 49, 90
28, 103799, Note_on_c, 15, 49, 0
28, 103800, Note_on_c, 15, 49, 90
28, 103859, Note_on_c, 15, 49, 0
28, 103860, Note_on_c, 15, 49, 90
28, 103919, Note_on_c, 15, 49, 0
28, 103920, Note_on_c, 15, 49, 90
28, 103979, Note_on_c, 15, 49, 0
28, 103980, Note_on_c, 15, 49, 90
28, 104039, Note_on_c, 15, 49, 0
28, 104040, Note_on_c, 15, 49, 90
28, 104099, Note_on_c, 15, 49, 0
28, 104100, Note_on_c, 15, 49, 90
28, 104159, Note_on_c, 15, 49, 0
28, 104160, Note_on_c, 15, 50, 90
28, 104219, Note_on_c, 15, 50, 0
28, 104220, Note_on_c, 15, 50, 90
28, 104279, Note_on_c, 15, 50, 0
28, 104280, Note_on_c, 15, 50, 90
28, 104339, Note_on_c, 15, 50, 0
28, 104340, Note_on_c, 15, 50, 90
28, 104399, Note_on_c, 15, 50, 0
28, 104400, Note_on_c, 15, 44, 90
28, 104459, Note_on_c, 15, 44, 0
28, 104460, Note_on_c, 15, 44, 90
28, 104519, Note_on_c, 15, 44, 0
28, 104520, Note_on_c, 15, 44, 90
28, 104579, Note_on_c, 15, 44, 0
28, 104580, Note_on_c, 15, 44, 90
28, 104639, Note_on_c, 15, 44, 0
28, 104640, Note_on_c, 15, 41, 90
28, 104699, Note_on_c, 15, 41, 0
28, 104700, Note_on_c, 15, 41, 90
28, 104759, Note_on_c, 15, 41, 0
28, 104760, Note_on_c, 15, 41, 90
28, 104819, Note_on_c, 15, 41, 0
28, 104820, Note_on_c, 15, 41, 90
28, 104879, Note_on_c, 15, 41, 0
28, 104880, Note_on_c, 15, 37, 90
28, 104939, Note_on_c, 15, 37, 0
28, 104940, Note_on_c, 15, 37, 90
28, 104999, Note_on_c, 15, 37, 0
28, 105000, Note_on_c, 15, 37, 90
28, 105059, Note_on_c, 15, 37, 0
28, 105060, Note_on_c, 15, 37, 90
28, 105119, Note_on_c, 15, 37, 0
28, 105120, Note_on_c, 15, 42, 90
28, 105179, Note_on_c, 15, 42, 0
28, 105180, Note_on_c, 15, 50, 90
28, 105239, Note_on_c, 15, 50, 0
28, 105240, Note_on_c, 15, 47, 90
28, 105299, Note_on_c, 15, 47, 0
28, 105300, Note_on_c, 15, 49, 90
28, 105359, Note_on_c, 15, 49, 0
28, 105360, Note_on_c, 15, 42, 90
28, 105419, Note_on_c, 15, 42, 0
28, 105420, Note_on_c, 15, 45, 90
28, 105449, Note_on_c, 15, 45, 0
28, 105450, Note_on_c, 15, 47, 90
28, 105479, Note_on_c, 15, 47, 0
28, 105480, Note_on_c, 15, 49, 90
28, 105539, Note_on_c, 15, 49, 0
28, 105540, Note_on_c, 15, 51, 90
28, 105569, Note_on_c, 15, 51, 0
28, 105570, Note_on_c, 15, 53, 90
28, 105599, Note_on_c, 15, 53, 0
28, 105600, Note_on_c, 15, 54, 90
28, 105659, Note_on_c, 15, 54, 0
28, 105660, Note_on_c, 15, 45, 90
28, 105689, Note_on_c, 15, 45, 0
28, 105690, Note_on_c, 15, 47, 90
28, 105719, Note_on_c, 15, 47, 0
28, 105720, Note_on_c, 15, 49, 90
28, 105779, Note_on_c, 15, 49, 0
28, 105780, Note_on_c, 15, 37, 90
28, 105839, Note_on_c, 15, 37, 0
28, 105840, Note_on_c, 15, 42, 90
28, 105899, Note_on_c, 15, 42, 0
28, 105900, Note_on_c, 15, 45, 90
28, 105929, Note_on_c, 15, 45, 0
28, 105930, Note_on_c, 15, 49, 90
28, 105959, Note_on_c, 15, 49, 0
28, 105960, Note_on_c, 15, 54, 90
28, 106019, Note_on_c, 15, 54, 0
28, 106020, Note_on_c, 15, 54, 90
28, 106049, Note_on_c, 15, 54, 0
28, 106050, Note_on_c, 15, 56, 90
28, 106079, Note_on_c, 15, 56, 0
28, 106080, Note_on_c, 15, 57, 90
28, 106139, Note_on_c, 15, 57, 0
28, 106140, Note_on_c, 15, 59, 90
28, 106199, Note_on_c, 15, 59, 0
28, 106200, Note_on_c, 15, 57, 90
28, 106259, Note_on_c, 15, 57, 0
28, 106260, Note_on_c, 15, 56, 90
28, 106319, Note_on_c, 15, 56, 0
28, 106320, Note_on_c, 15, 57, 90
28, 106379, Note_on_c, 15, 57, 0
28, 106380, Note_on_c, 15, 56, 90
28, 106409, Note_on_c, 15, 56, 0
28, 106410, Note_on_c, 15, 57, 90
28, 106439, Note_on_c, 15, 57, 0
28, 106440, Note_on_c, 15, 54, 90
28, 106499, Note_on_c, 15, 54, 0
28, 106500, Note_on_c, 15, 56, 90
28, 106529, Note_on_c, 15, 56, 0
28, 106530, Note_on_c, 15, 57, 90
28, 106559, Note_on_c, 15, 57, 0
28, 106560, Note_on_c, 15, 59, 90
28, 106619, Note_on_c, 15, 59, 0
28, 106620, Note_on_c, 15, 57, 90
28, 106679, Note_on_c, 15, 57, 0
28, 106680, Note_on_c, 15, 56, 90
28, 106739, Note_on_c, 15, 56, 0
28, 106740, Note_on_c, 15, 54, 90
28, 106799, Note_on_c, 15, 54, 0
28, 106800, Note_on_c, 15, 53, 90
28, 106859, Note_on_c, 15, 53, 0
28, 106860, Note_on_c, 15, 51, 90
28, 106889, Note_on_c, 15, 51, 0
28, 106890, Note_on_c, 15, 53, 90
28, 106919, Note_on_c, 15, 53, 0
28, 106920, Note_on_c, 15, 49, 90
28, 106979, Note_on_c, 15, 49, 0
28, 106980, Note_on_c, 15, 61, 90
28, 107009, Note_on_c, 15, 61, 0
28, 107010, Note_on_c, 15, 59, 90
28, 107039, Note_on_c, 15, 59, 0
28, 107040, Note_on_c, 15, 57, 90
28, 107069, Note_on_c, 15, 57, 0
28, 107070, Note_on_c, 15, 56, 90
28, 107099, Note_on_c, 15, 56, 0
28, 107100, Note_on_c, 15, 54, 90
28, 107129, Note_on_c, 15, 54, 0
28, 107130, Note_on_c, 15, 52, 90
28, 107159, Note_on_c, 15, 52, 0
28, 107160, Note_on_c, 15, 50, 90
28, 107219, Note_on_c, 15, 50, 0
28, 107220, Note_on_c, 15, 54, 90
28, 107279, Note_on_c, 15, 54, 0
28, 107280, Note_on_c, 15, 56, 90
28, 107309, Note_on_c, 15, 56, 0
28, 107310, Note_on_c, 15, 54, 90
28, 107339, Note_on_c, 15, 54, 0
28, 107340, Note_on_c, 15, 53, 90
28, 107369, Note_on_c, 15, 53, 0
28, 107370, Note_on_c, 15, 51, 90
28, 107399, Note_on_c, 15, 51, 0
28, 107400, Note_on_c, 15, 49, 90
28, 107459, Note_on_c, 15, 49, 0
28, 107460, Note_on_c, 15, 59, 90
28, 107519, Note_on_c, 15, 59, 0
28, 107520, Note_on_c, 15, 57, 90
28, 107579, Note_on_c, 15, 57, 0
28, 107580, Note_on_c, 15, 54, 90
28, 107639, Note_on_c, 15, 54, 0
28, 107640, Note_on_c, 15, 61, 90
28, 107699, Note_on_c, 15, 61, 0
28, 107700, Note_on_c, 15, 49, 90
28, 107759, Note_on_c, 15, 49, 0
28, 107760, Note_on_c, 15, 54, 90
28, 107819, Note_on_c, 15, 54, 0
28, 107820, Note_on_c, 15, 49, 90
28, 107879, Note_on_c, 15, 49, 0
28, 107880, Note_on_c, 15, 42, 90
28, 107939, Note_on_c, 15, 42, 0
28, 107940, Note_on_c, 15, 54, 90
28, 107999, Note_on_c, 15, 54, 0
28, 108000, Note_on_c, 15, 49, 90
28, 108119, Note_on_c, 15, 49, 0
28, 108180, Note_on_c, 15, 52, 90
28, 108239, Note_on_c, 15, 52, 0
28, 108240, Note_on_c, 15, 45, 90
28, 108299, Note_on_c, 15, 45, 0
28, 108300, Note_on_c, 15, 45, 90
28, 108359, Note_on_c, 15, 45, 0
28, 108360, Note_on_c, 15, 45, 90
28, 108419, Note_on_c, 15, 45, 0
28, 108420, Note_on_c, 15, 45, 90
28, 108479, Note_on_c, 15, 45, 0
28, 108480, Note_on_c, 15, 45, 90
28, 108539, Note_on_c, 15, 45, 0
28, 108540, Note_on_c, 15, 45, 90
28, 108599, Note_on_c, 15, 45, 0
28, 108600, Note_on_c, 15, 45, 90
28, 108659, Note_on_c, 15, 45, 0
28, 108660, Note_on_c, 15, 45, 90
28, 108719, Note_on_c, 15, 45, 0
28, 108720, Note_on_c, 15, 45, 90
28, 108779, Note_on_c, 15, 45, 0
28, 108780, Note_on_c, 15, 45, 90
28, 108839, Note_on_c, 15, 45, 0
28, 108840, Note_on_c, 15, 45, 90
28, 108899, Note_on_c, 15, 45, 0
28, 108900, Note_on_c, 15, 45, 90
28, 108959, Note_on_c, 15, 45, 0
28, 108960, Note_on_c, 15, 45, 90
28, 109019, Note_on_c, 15, 45, 0
28, 109020, Note_on_c, 15, 45, 90
28, 109079, Note_on_c, 15, 45, 0
28, 109080, Note_on_c, 15, 45, 90
28, 109139, Note_on_c, 15, 45, 0
28, 109140, Note_on_c, 15, 45, 90
28, 109199, Note_on_c, 15, 45, 0
28, 109200, Note_on_c, 15, 45, 90
28, 109259, Note_on_c, 15, 45, 0
28, 109260, Note_on_c, 15, 57, 90
28, 109289, Note_on_c, 15, 57, 0
28, 109290, Note_on_c, 15, 56, 90
28, 109319, Note_on_c, 15, 56, 0
28, 109320, Note_on_c, 15, 57, 90
28, 109349, Note_on_c, 15, 57, 0
28, 109350, Note_on_c, 15, 61, 90
28, 109379, Note_on_c, 15, 61, 0
28, 109380, Note_on_c, 15, 59, 90
28, 109409, Note_on_c, 15, 59, 0
28, 109410, Note_on_c, 15, 57, 90
28, 109439, Note_on_c, 15, 57, 0
28, 109440, Note_on_c, 15, 56, 90
28, 109469, Note_on_c, 15, 56, 0
28, 109470, Note_on_c, 15, 54, 90
28, 109499, Note_on_c, 15, 54, 0
28, 109500, Note_on_c, 15, 52, 90
28, 109529, Note_on_c, 15, 52, 0
28, 109530, Note_on_c, 15, 51, 90
28, 109559, Note_on_c, 15, 51, 0
28, 109560, Note_on_c, 15, 49, 90
28, 109619, Note_on_c, 15, 49, 0
28, 109620, Note_on_c, 15, 52, 90
28, 109679, Note_on_c, 15, 52, 0
28, 109680, Note_on_c, 15, 54, 90
28, 109709, Note_on_c, 15, 54, 0
28, 109710, Note_on_c, 15, 52, 90
28, 109739, Note_on_c, 15, 52, 0
28, 109740, Note_on_c, 15, 51, 90
28, 109769, Note_on_c, 15, 51, 0
28, 109770, Note_on_c, 15, 49, 90
28, 109799, Note_on_c, 15, 49, 0
28, 109800, Note_on_c, 15, 47, 90
28, 109859, Note_on_c, 15, 47, 0
28, 109860, Note_on_c, 15, 57, 90
28, 109919, Note_on_c, 15, 57, 0
28, 109920, Note_on_c, 15, 56, 90
28, 109979, Note_on_c, 15, 56, 0
28, 109980, Note_on_c, 15, 52, 90
28, 110039, Note_on_c, 15, 52, 0
28, 110040, Note_on_c, 15, 59, 90
28, 110099, Note_on_c, 15, 59, 0
28, 110100, Note_on_c, 15, 47, 90
28, 110159, Note_on_c, 15, 47, 0
28, 110160, Note_on_c, 15, 52, 90
28, 110219, Note_on_c, 15, 52, 0
28, 110220, Note_on_c, 15, 56, 90
28, 110249, Note_on_c, 15, 56, 0
28, 110250, Note_on_c, 15, 54, 90
28, 110279, Note_on_c, 15, 54, 0
28, 110280, Note_on_c, 15, 52, 90
28, 110339, Note_on_c, 15, 52, 0
28, 110340, Note_on_c, 15, 49, 90
28, 110399, Note_on_c, 15, 49, 0
28, 110400, Note_on_c, 15, 54, 90
28, 110459, Note_on_c, 15, 54, 0
28, 110460, Note_on_c, 15, 56, 90
28, 110519, Note_on_c, 15, 56, 0
28, 110520, Note_on_c, 15, 58, 90
28, 110579, Note_on_c, 15, 58, 0
28, 110580, Note_on_c, 15, 56, 90
28, 110639, Note_on_c, 15, 56, 0
28, 110640, Note_on_c, 15, 54, 90
28, 110699, Note_on_c, 15, 54, 0
28, 110700, Note_on_c, 15, 56, 90
28, 110759, Note_on_c, 15, 56, 0
28, 110760, Note_on_c, 15, 58, 90
28, 110819, Note_on_c, 15, 58, 0
28, 110820, Note_on_c, 15, 54, 90
28, 110879, Note_on_c, 15, 54, 0
28, 110880, Note_on_c, 15, 47, 90
28, 110939, Note_on_c, 15, 47, 0
28, 110940, Note_on_c, 15, 47, 90
28, 110999, Note_on_c, 15, 47, 0
28, 111000, Note_on_c, 15, 47, 90
28, 111059, Note_on_c, 15, 47, 0
28, 111060, Note_on_c, 15, 47, 90
28, 111119, Note_on_c, 15, 47, 0
28, 111120, Note_on_c, 15, 42, 90
28, 111179, Note_on_c, 15, 42, 0
28, 111180, Note_on_c, 15, 42, 90
28, 111239, Note_on_c, 15, 42, 0
28, 111240, Note_on_c, 15, 42, 90
28, 111299, Note_on_c, 15, 42, 0
28, 111300, Note_on_c, 15, 42, 90
28, 111359, Note_on_c, 15, 42, 0
28, 111360, Note_on_c, 15, 44, 90
28, 111419, Note_on_c, 15, 44, 0
28, 111420, Note_on_c, 15, 44, 90
28, 111479, Note_on_c, 15, 44, 0
28, 111480, Note_on_c, 15, 44, 90
28, 111539, Note_on_c, 15, 44, 0
28, 111540, Note_on_c, 15, 44, 90
28, 111599, Note_on_c, 15, 44, 0
28, 111600, Note_on_c, 15, 45, 90
28, 111659, Note_on_c, 15, 45, 0
28, 111660, Note_on_c, 15, 45, 90
28, 111719, Note_on_c, 15, 45, 0
28, 111720, Note_on_c, 15, 45, 90
28, 111779, Note_on_c, 15, 45, 0
28, 111780, Note_on_c, 15, 45, 90
28, 111839, Note_on_c, 15, 45, 0
28, 111840, Note_on_c, 15, 50, 90
28, 111899, Note_on_c, 15, 50, 0
28, 111900, Note_on_c, 15, 50, 90
28, 111959, Note_on_c, 15, 50, 0
28, 111960, Note_on_c, 15, 50, 90
28, 112019, Note_on_c, 15, 50, 0
28, 112020, Note_on_c, 15, 50, 90
28, 112079, Note_on_c, 15, 50, 0
28, 112080, Note_on_c, 15, 50, 90
28, 112139, Note_on_c, 15, 50, 0
28, 112140, Note_on_c, 15, 52, 90
28, 112169, Note_on_c, 15, 52, 0
28, 112170, Note_on_c, 15, 50, 90
28, 112199, Note_on_c, 15, 50, 0
28, 112200, Note_on_c, 15, 49, 90
28, 112229, Note_on_c, 15, 49, 0
28, 112230, Note_on_c, 15, 47, 90
28, 112259, Note_on_c, 15, 47, 0
28, 112260, Note_on_c, 15, 45, 90
28, 112289, Note_on_c, 15, 45, 0
28, 112290, Note_on_c, 15, 47, 90
28, 112319, Note_on_c, 15, 47, 0
28, 112320, Note_on_c, 15, 49, 90
28, 112379, Note_on_c, 15, 49, 0
28, 112380, Note_on_c, 15, 50, 90
28, 112439, Note_on_c, 15, 50, 0
28, 112440, Note_on_c, 15, 49, 90
28, 112499, Note_on_c, 15, 49, 0
28, 112500, Note_on_c, 15, 47, 90
28, 112559, Note_on_c, 15, 47, 0
28, 112560, Note_on_c, 15, 49, 90
28, 112619, Note_on_c, 15, 49, 0
28, 112620, Note_on_c, 15, 47, 90
28, 112649, Note_on_c, 15, 47, 0
28, 112650, Note_on_c, 15, 49, 90
28, 112679, Note_on_c, 15, 49, 0
28, 112680, Note_on_c, 15, 45, 90
28, 112739, Note_on_c, 15, 45, 0
28, 112740, Note_on_c, 15, 47, 90
28, 112799, Note_on_c, 15, 47, 0
28, 112800, Note_on_c, 15, 49, 90
28, 112859, Note_on_c, 15, 49, 0
28, 112860, Note_on_c, 15, 47, 90
28, 112889, Note_on_c, 15, 47, 0
28, 112890, Note_on_c, 15, 49, 90
28, 112919, Note_on_c, 15, 49, 0
28, 112920, Note_on_c, 15, 45, 90
28, 112979, Note_on_c, 15, 45, 0
28, 112980, Note_on_c, 15, 57, 90
28, 113039, Note_on_c, 15, 57, 0
28, 113040, Note_on_c, 15, 56, 90
28, 113099, Note_on_c, 15, 56, 0
28, 113100, Note_on_c, 15, 54, 90
28, 113129, Note_on_c, 15, 54, 0
28, 113130, Note_on_c, 15, 56, 90
28, 113159, Note_on_c, 15, 56, 0
28, 113160, Note_on_c, 15, 52, 90
28, 113219, Note_on_c, 15, 52, 0
28, 113220, Note_on_c, 15, 56, 90
28, 113279, Note_on_c, 15, 56, 0
28, 113280, Note_on_c, 15, 57, 90
28, 113339, Note_on_c, 15, 57, 0
28, 113340, Note_on_c, 15, 52, 90
28, 113399, Note_on_c, 15, 52, 0
28, 113400, Note_on_c, 15, 45, 90
28, 113459, Note_on_c, 15, 45, 0
28, 113460, Note_on_c, 15, 49, 90
28, 113519, Note_on_c, 15, 49, 0
28, 113520, Note_on_c, 15, 50, 90
28, 113579, Note_on_c, 15, 50, 0
28, 113580, Note_on_c, 15, 62, 90
28, 113609, Note_on_c, 15, 62, 0
28, 113610, Note_on_c, 15, 61, 90
28, 113639, Note_on_c, 15, 61, 0
28, 113640, Note_on_c, 15, 59, 90
28, 113699, Note_on_c, 15, 59, 0
28, 113700, Note_on_c, 15, 57, 90
28, 113759, Note_on_c, 15, 57, 0
28, 113760, Note_on_c, 15, 56, 90
28, 113819, Note_on_c, 15, 56, 0
28, 113820, Note_on_c, 15, 44, 90
28, 113879, Note_on_c, 15, 44, 0
28, 113880, Note_on_c, 15, 44, 90
28, 113939, Note_on_c, 15, 44, 0
28, 113940, Note_on_c, 15, 44, 90
28, 113999, Note_on_c, 15, 44, 0
28, 114000, Note_on_c, 15, 49, 90
28, 114059, Note_on_c, 15, 49, 0
28, 114060, Note_on_c, 15, 61, 90
28, 114089, Note_on_c, 15, 61, 0
28, 114090, Note_on_c, 15, 59, 90
28, 114119, Note_on_c, 15, 59, 0
28, 114120, Note_on_c, 15, 57, 90
28, 114179, Note_on_c, 15, 57, 0
28, 114180, Note_on_c, 15, 56, 90
28, 114239, Note_on_c, 15, 56, 0
28, 114240, Note_on_c, 15, 54, 90
28, 114299, Note_on_c, 15, 54, 0
28, 114300, Note_on_c, 15, 42, 90
28, 114359, Note_on_c, 15, 42, 0
28, 114360, Note_on_c, 15, 42, 90
28, 114419, Note_on_c, 15, 42, 0
28, 114420, Note_on_c, 15, 42, 90
28, 114479, Note_on_c, 15, 42, 0
28, 114480, Note_on_c, 15, 47, 90
28, 114539, Note_on_c, 15, 47, 0
28, 114540, Note_on_c, 15, 59, 90
28, 114569, Note_on_c, 15, 59, 0
28, 114570, Note_on_c, 15, 57, 90
28, 114599, Note_on_c, 15, 57, 0
28, 114600, Note_on_c, 15, 56, 90
28, 114659, Note_on_c, 15, 56, 0
28, 114660, Note_on_c, 15, 54, 90
28, 114719, Note_on_c, 15, 54, 0
28, 114720, Note_on_c, 15, 52, 90
28, 114779, Note_on_c, 15, 52, 0
28, 114780, Note_on_c, 15, 40, 90
28, 114839, Note_on_c, 15, 40, 0
28, 114840, Note_on_c, 15, 40, 90
28, 114899, Note_on_c, 15, 40, 0
28, 114900, Note_on_c, 15, 40, 90
28, 114959, Note_on_c, 15, 40, 0
28, 114960, Note_on_c, 15, 52, 90
28, 115019, Note_on_c, 15, 52, 0
28, 115020, Note_on_c, 15, 40, 90
28, 115079, Note_on_c, 15, 40, 0
28, 115080, Note_on_c, 15, 40, 90
28, 115139, Note_on_c, 15, 40, 0
28, 115140, Note_on_c, 15, 40, 90
28, 115199, Note_on_c, 15, 40, 0
28, 115200, Note_on_c, 15, 52, 90
28, 115259, Note_on_c, 15, 52, 0
28, 115260, Note_on_c, 15, 40, 90
28, 115319, Note_on_c, 15, 40, 0
28, 115320, Note_on_c, 15, 40, 90
28, 115379, Note_on_c, 15, 40, 0
28, 115380, Note_on_c, 15, 42, 90
28, 115409, Note_on_c, 15, 42, 0
28, 115410, Note_on_c, 15, 44, 90
28, 115439, Note_on_c, 15, 44, 0
28, 115440, Note_on_c, 15, 45, 90
28, 115469, Note_on_c, 15, 45, 0
28, 115470, Note_on_c, 15, 47, 90
28, 115499, Note_on_c, 15, 47, 0
28, 115500, Note_on_c, 15, 49, 90
28, 115529, Note_on_c, 15, 49, 0
28, 115530, Note_on_c, 15, 45, 90
28, 115559, Note_on_c, 15, 45, 0
28, 115560, Note_on_c, 15, 50, 90
28, 115589, Note_on_c, 15, 50, 0
28, 115590, Note_on_c, 15, 52, 90
28, 115619, Note_on_c, 15, 52, 0
28, 115620, Note_on_c, 15, 54, 90
28, 115649, Note_on_c, 15, 54, 0
28, 115650, Note_on_c, 15, 50, 90
28, 115679, Note_on_c, 15, 50, 0
28, 115680, Note_on_c, 15, 52, 90
28, 115739, Note_on_c, 15, 52, 0
28, 115740, Note_on_c, 15, 50, 90
28, 115769, Note_on_c, 15, 50, 0
28, 115770, Note_on_c, 15, 49, 90
28, 115799, Note_on_c, 15, 49, 0
28, 115800, Note_on_c, 15, 47, 90
28, 115829, Note_on_c, 15, 47, 0
28, 115830, Note_on_c, 15, 45, 90
28, 115859, Note_on_c, 15, 45, 0
28, 115860, Note_on_c, 15, 44, 90
28, 115889, Note_on_c, 15, 44, 0
28, 115890, Note_on_c, 15, 42, 90
28, 115919, Note_on_c, 15, 42, 0
28, 115920, Note_on_c, 15, 40, 90
28, 115979, Note_on_c, 15, 40, 0
28, 115980, Note_on_c, 15, 40, 90
28, 116039, Note_on_c, 15, 40, 0
28, 116040, Note_on_c, 15, 40, 90
28, 116099, Note_on_c, 15, 40, 0
28, 116100, Note_on_c, 15, 40, 90
28, 116159, Note_on_c, 15, 40, 0
28, 116160, Note_on_c, 15, 42, 90
28, 116219, Note_on_c, 15, 42, 0
28, 116220, Note_on_c, 15, 42, 90
28, 116279, Note_on_c, 15, 42, 0
28, 116280, Note_on_c, 15, 42, 90
28, 116339, Note_on_c, 15, 42, 0
28, 116340, Note_on_c, 15, 42, 90
28, 116399, Note_on_c, 15, 42, 0
28, 116400, Note_on_c, 15, 42, 90
28, 116459, Note_on_c, 15, 42, 0
28, 116460, Note_on_c, 15, 42, 90
28, 116519, Note_on_c, 15, 42, 0
28, 116520, Note_on_c, 15, 42, 90
28, 116579, Note_on_c, 15, 42, 0
28, 116580, Note_on_c, 15, 42, 90
28, 116639, Note_on_c, 15, 42, 0
28, 116640, Note_on_c, 15, 44, 90
28, 116699, Note_on_c, 15, 44, 0
28, 116700, Note_on_c, 15, 44, 90
28, 116759, Note_on_c, 15, 44, 0
28, 116760, Note_on_c, 15, 44, 90
28, 116819, Note_on_c, 15, 44, 0
28, 116820, Note_on_c, 15, 44, 90
28, 116879, Note_on_c, 15, 44, 0
28, 116880, Note_on_c, 15, 44, 90
28, 116939, Note_on_c, 15, 44, 0
28, 116940, Note_on_c, 15, 44, 90
28, 116999, Note_on_c, 15, 44, 0
28, 117000, Note_on_c, 15, 44, 90
28, 117059, Note_on_c, 15, 44, 0
28, 117060, Note_on_c, 15, 44, 90
28, 117119, Note_on_c, 15, 44, 0
28, 117120, Note_on_c, 15, 45, 90
28, 117179, Note_on_c, 15, 45, 0
28, 117180, Note_on_c, 15, 49, 90
28, 117209, Note_on_c, 15, 49, 0
28, 117210, Note_on_c, 15, 50, 90
28, 117239, Note_on_c, 15, 50, 0
28, 117240, Note_on_c, 15, 52, 90
28, 117299, Note_on_c, 15, 52, 0
28, 117300, Note_on_c, 15, 40, 90
28, 117359, Note_on_c, 15, 40, 0
28, 117360, Note_on_c, 15, 45, 90
28, 117419, Note_on_c, 15, 45, 0
28, 117420, Note_on_c, 15, 49, 90
28, 117449, Note_on_c, 15, 49, 0
28, 117450, Note_on_c, 15, 50, 90
28, 117479, Note_on_c, 15, 50, 0
28, 117480, Note_on_c, 15, 52, 90
28, 117539, Note_on_c, 15, 52, 0
28, 117540, Note_on_c, 15, 54, 90
28, 117569, Note_on_c, 15, 54, 0
28, 117570, Note_on_c, 15, 56, 90
28, 117599, Note_on_c, 15, 56, 0
28, 117600, Note_on_c, 15, 57, 90
28, 117659, Note_on_c, 15, 57, 0
28, 117660, Note_on_c, 15, 49, 90
28, 117689, Note_on_c, 15, 49, 0
28, 117690, Note_on_c, 15, 50, 90
28, 117719, Note_on_c, 15, 50, 0
28, 117720, Note_on_c, 15, 52, 90
28, 117779, Note_on_c, 15, 52, 0
28, 117780, Note_on_c, 15, 40, 90
28, 117839, Note_on_c, 15, 40, 0
28, 117840, Note_on_c, 15, 45, 90
28, 118019, Note_on_c, 15, 45, 0
28, 118020, Note_on_c, 15, 57, 90
28, 118049, Note_on_c, 15, 57, 0
28, 118050, Note_on_c, 15, 59, 90
28, 118079, Note_on_c, 15, 59, 0
28, 118080, Note_on_c, 15, 61, 90
28, 118139, Note_on_c, 15, 61, 0
28, 118140, Note_on_c, 15, 62, 90
28, 118199, Note_on_c, 15, 62, 0
28, 118200, Note_on_c, 15, 61, 90
28, 118259, Note_on_c, 15, 61, 0
28, 118260, Note_on_c, 15, 59, 90
28, 118319, Note_on_c, 15, 59, 0
28, 118320, Note_on_c, 15, 61, 90
28, 118379, Note_on_c, 15, 61, 0
28, 118380, Note_on_c, 15, 59, 90
28, 118409, Note_on_c, 15, 59, 0
28, 118410, Note_on_c, 15, 61, 90
28, 118439, Note_on_c, 15, 61, 0
28, 118440, Note_on_c, 15, 57, 90
28, 118499, Note_on_c, 15, 57, 0
28, 118500, Note_on_c, 15, 59, 90
28, 118559, Note_on_c, 15, 59, 0
28, 118560, Note_on_c, 15, 61, 90
28, 118619, Note_on_c, 15, 61, 0
28, 118620, Note_on_c, 15, 59, 90
28, 118649, Note_on_c, 15, 59, 0
28, 118650, Note_on_c, 15, 61, 90
28, 118679, Note_on_c, 15, 61, 0
28, 118680, Note_on_c, 15, 57, 90
28, 118739, Note_on_c, 15, 57, 0
28, 118740, Note_on_c, 15, 61, 90
28, 118799, Note_on_c, 15, 61, 0
28, 118800, Note_on_c, 15, 56, 90
28, 118859, Note_on_c, 15, 56, 0
28, 118860, Note_on_c, 15, 54, 90
28, 118889, Note_on_c, 15, 54, 0
28, 118890, Note_on_c, 15, 56, 90
28, 118919, Note_on_c, 15, 56, 0
28, 118920, Note_on_c, 15, 52, 90
28, 118979, Note_on_c, 15, 52, 0
28, 118980, Note_on_c, 15, 56, 90
28, 119039, Note_on_c, 15, 56, 0
28, 119040, Note_on_c, 15, 57, 90
28, 119099, Note_on_c, 15, 57, 0
28, 119100, Note_on_c, 15, 52, 90
28, 119159, Note_on_c, 15, 52, 0
28, 119160, Note_on_c, 15, 45, 90
28, 119219, Note_on_c, 15, 45, 0
28, 119220, Note_on_c, 15, 57, 90
28, 119279, Note_on_c, 15, 57, 0
28, 119280, Note_on_c, 15, 52, 90
28, 119339, Note_on_c, 15, 52, 0
28, 119340, Note_on_c, 15, 51, 90
28, 119399, Note_on_c, 15, 51, 0
28, 119400, Note_on_c, 15, 52, 90
28, 119459, Note_on_c, 15, 52, 0
28, 119460, Note_on_c, 15, 54, 90
28, 119519, Note_on_c, 15, 54, 0
28, 119520, Note_on_c, 15, 56, 90
28, 119549, Note_on_c, 15, 56, 0
28, 119550, Note_on_c, 15, 54, 90
28, 119579, Note_on_c, 15, 54, 0
28, 119580, Note_on_c, 15, 52, 90
28, 119609, Note_on_c, 15, 52, 0
28, 119610, Note_on_c, 15, 51, 90
28, 119639, Note_on_c, 15, 51, 0
28, 119640, Note_on_c, 15, 49, 90
28, 119699, Note_on_c, 15, 49, 0
28, 119700, Note_on_c, 15, 52, 90
28, 119759, Note_on_c, 15, 52, 0
28, 119760, Note_on_c, 15, 54, 90
28, 119789, Note_on_c, 15, 54, 0
28, 119790, Note_on_c, 15, 52, 90
28, 119819, Note_on_c, 15, 52, 0
28, 119820, Note_on_c, 15, 51, 90
28, 119849, Note_on_c, 15, 51, 0
28, 119850, Note_on_c, 15, 49, 90
28, 119879, Note_on_c, 15, 49, 0
28, 119880, Note_on_c, 15, 47, 90
28, 119939, Note_on_c, 15, 47, 0
28, 119940, Note_on_c, 15, 57, 90
28, 119999, Note_on_c, 15, 57, 0
28, 120000, Note_on_c, 15, 56, 90
28, 120059, Note_on_c, 15, 56, 0
28, 120060, Note_on_c, 15, 52, 90
28, 120119, Note_on_c, 15, 52, 0
28, 120120, Note_on_c, 15, 59, 90
28, 120179, Note_on_c, 15, 59, 0
28, 120180, Note_on_c, 15, 47, 90
28, 120239, Note_on_c, 15, 47, 0
28, 120240, Note_on_c, 15, 52, 90
28, 120299, Note_on_c, 15, 52, 0
28, 120300, Note_on_c, 15, 51, 90
28, 120329, Note_on_c, 15, 51, 0
28, 120330, Note_on_c, 15, 49, 90
28, 120359, Note_on_c, 15, 49, 0
28, 120360, Note_on_c, 15, 47, 90
28, 120389, Note_on_c, 15, 47, 0
28, 120390, Note_on_c, 15, 45, 90
28, 120419, Note_on_c, 15, 45, 0
28, 120420, Note_on_c, 15, 44, 90
28, 120449, Note_on_c, 15, 44, 0
28, 120450, Note_on_c, 15, 42, 90
28, 120479, Note_on_c, 15, 42, 0
28, 120480, Note_on_c, 15, 40, 90
28, 120539, Note_on_c, 15, 40, 0
28, 120540, Note_on_c, 15, 40, 90
28, 120599, Note_on_c, 15, 40, 0
28, 120600, Note_on_c, 15, 40, 90
28, 120659, Note_on_c, 15, 40, 0
28, 120660, Note_on_c, 15, 40, 90
28, 120719, Note_on_c, 15, 40, 0
28, 120720, Note_on_c, 15, 40, 90
28, 120779, Note_on_c, 15, 40, 0
28, 120780, Note_on_c, 15, 40, 90
28, 120839, Note_on_c, 15, 40, 0
28, 120840, Note_on_c, 15, 40, 90
28, 120899, Note_on_c, 15, 40, 0
28, 120900, Note_on_c, 15, 40, 90
28, 120959, Note_on_c, 15, 40, 0
28, 120960, Note_on_c, 15, 42, 90
28, 121019, Note_on_c, 15, 42, 0
28, 121020, Note_on_c, 15, 42, 90
28, 121079, Note_on_c, 15, 42, 0
28, 121080, Note_on_c, 15, 42, 90
28, 121139, Note_on_c, 15, 42, 0
28, 121140, Note_on_c, 15, 42, 90
28, 121199, Note_on_c, 15, 42, 0
28, 121200, Note_on_c, 15, 42, 90
28, 121259, Note_on_c, 15, 42, 0
28, 121260, Note_on_c, 15, 42, 90
28, 121319, Note_on_c, 15, 42, 0
28, 121320, Note_on_c, 15, 42, 90
28, 121379, Note_on_c, 15, 42, 0
28, 121380, Note_on_c, 15, 42, 90
28, 121439, Note_on_c, 15, 42, 0
28, 121440, Note_on_c, 15, 44, 90
28, 121499, Note_on_c, 15, 44, 0
28, 121500, Note_on_c, 15, 44, 90
28, 121559, Note_on_c, 15, 44, 0
28, 121560, Note_on_c, 15, 44, 90
28, 121619, Note_on_c, 15, 44, 0
28, 121620, Note_on_c, 15, 44, 90
28, 121679, Note_on_c, 15, 44, 0
28, 121680, Note_on_c, 15, 44, 90
28, 121739, Note_on_c, 15, 44, 0
28, 121740, Note_on_c, 15, 44, 90
28, 121799, Note_on_c, 15, 44, 0
28, 121800, Note_on_c, 15, 44, 90
28, 121859, Note_on_c, 15, 44, 0
28, 121860, Note_on_c, 15, 44, 90
28, 121919, Note_on_c, 15, 44, 0
28, 121920, Note_on_c, 15, 45, 90
28, 121979, Note_on_c, 15, 45, 0
28, 121980, Note_on_c, 15, 49, 90
28, 122039, Note_on_c, 15, 49, 0
28, 122040, Note_on_c, 15, 50, 90
28, 122099, Note_on_c, 15, 50, 0
28, 122100, Note_on_c, 15, 52, 90
28, 122159, Note_on_c, 15, 52, 0
28, 122160, Note_on_c, 15, 45, 90
28, 122219, Note_on_c, 15, 45, 0
28, 122220, Note_on_c, 15, 49, 90
28, 122249, Note_on_c, 15, 49, 0
28, 122250, Note_on_c, 15, 50, 90
28, 122279, Note_on_c, 15, 50, 0
28, 122280, Note_on_c, 15, 52, 90
28, 122339, Note_on_c, 15, 52, 0
28, 122340, Note_on_c, 15, 54, 90
28, 122369, Note_on_c, 15, 54, 0
28, 122370, Note_on_c, 15, 56, 90
28, 122399, Note_on_c, 15, 56, 0
28, 122400, Note_on_c, 15, 57, 90
28, 122459, Note_on_c, 15, 57, 0
28, 122460, Note_on_c, 15, 49, 90
28, 122489, Note_on_c, 15, 49, 0
28, 122490, Note_on_c, 15, 50, 90
28, 122519, Note_on_c, 15, 50, 0
28, 122520, Note_on_c, 15, 52, 90
28, 122579, Note_on_c, 15, 52, 0
28, 122580, Note_on_c, 15, 40, 90
28, 122639, Note_on_c, 15, 40, 0
28, 122640, Note_on_c, 15, 45, 90
28, 122699, Note_on_c, 15, 45, 0
28, 122880, Note_on_c, 15, 48, 100
28, 123840, Note_on_c, 15, 48, 0
28, 123840, Note_on_c, 15, 49, 100
28, 124080, Note_on_c, 15, 49, 0
28, 124080, Note_on_c, 15, 42, 100
28, 124320, Note_on_c, 15, 42, 0
28, 124320, Note_on_c, 15, 40, 100
28, 124560, Note_on_c, 15, 40, 0
28, 124560, Note_on_c, 15, 47, 100
28, 124800, Note_on_c, 15, 47, 0
28, 124800, Note_on_c, 15, 44, 100
28, 125040, Note_on_c, 15, 44, 0
28, 125040, Note_on_c, 15, 43, 100
28, 125280, Note_on_c, 15, 43, 0
28, 125280, Note_on_c, 15, 42, 100
28, 125760, Note_on_c, 15, 42, 0
28, 125760, Note_on_c, 15, 47, 100
28, 125880, Note_on_c, 15, 47, 0
28, 125880, Note_on_c, 15, 50, 100
28, 126000, Note_on_c, 15, 50, 0
28, 126000, Note_on_c, 15, 52, 100
28, 126120, Note_on_c, 15, 52, 0
28, 126120, Note_on_c, 15, 55, 100
28, 126240, Note_on_c, 15, 55, 0
28, 126360, Note_on_c, 15, 54, 100
28, 126480, Note_on_c, 15, 54, 0
28, 126480, Note_on_c, 15, 47, 100
28, 126720, Note_on_c, 15, 47, 0
28, 126900, Note_on_c, 15, 50, 100
28, 126960, Note_on_c, 15, 50, 0
28, 126960, Note_on_c, 15, 47, 100
28, 127020, Note_on_c, 15, 47, 0
28, 127020, Note_on_c, 15, 52, 100
28, 127080, Note_on_c, 15, 52, 0
28, 127080, Note_on_c, 15, 50, 100
28, 127140, Note_on_c, 15, 50, 0
28, 127140, Note_on_c, 15, 49, 100
28, 127200, Note_on_c, 15, 49, 0
28, 127200, Note_on_c, 15, 47, 100
28, 127260, Note_on_c, 15, 47, 0
28, 127260, Note_on_c, 15, 46, 100
28, 127320, Note_on_c, 15, 46, 0
28, 127320, Note_on_c, 15, 42, 100
28, 127380, Note_on_c, 15, 42, 0
28, 127380, Note_on_c, 15, 47, 100
28, 127440, Note_on_c, 15, 47, 0
28, 127440, Note_on_c, 15, 42, 100
28, 127500, Note_on_c, 15, 42, 0
28, 127500, Note_on_c, 15, 54, 100
28, 127560, Note_on_c, 15, 54, 0
28, 127560, Note_on_c, 15, 58, 100
28, 127620, Note_on_c, 15, 58, 0
28, 127620, Note_on_c, 15, 59, 100
28, 127680, Note_on_c, 15, 59, 0
28, 127680, Note_on_c, 15, 47, 100
28, 127740, Note_on_c, 15, 47, 0
28, 127740, Note_on_c, 15, 50, 100
28, 127800, Note_on_c, 15, 50, 0
28, 127800, Note_on_c, 15, 52, 100
28, 127860, Note_on_c, 15, 52, 0
28, 127860, Note_on_c, 15, 55, 100
28, 127920, Note_on_c, 15, 55, 0
28, 127920, Note_on_c, 15, 52, 100
28, 127980, Note_on_c, 15, 52, 0
28, 127980, Note_on_c, 15, 57, 100
28, 128040, Note_on_c, 15, 57, 0
28, 128040, Note_on_c, 15, 45, 100
28, 128100, Note_on_c, 15, 45, 0
28, 128100, Note_on_c, 15, 49, 100
28, 128160, Note_on_c, 15, 49, 0
28, 128160, Note_on_c, 15, 50, 100
28, 128220, Note_on_c, 15, 50, 0
28, 128220, Note_on_c, 15, 54, 100
28, 128280, Note_on_c, 15, 54, 0
28, 128280, Note_on_c, 15, 50, 100
28, 128340, Note_on_c, 15, 50, 0
28, 128340, Note_on_c, 15, 55, 100
28, 128400, Note_on_c, 15, 55, 0
28, 128400, Note_on_c, 15, 52, 100
28, 128460, Note_on_c, 15, 52, 0
28, 128460, Note_on_c, 15, 49, 100
28, 128520, Note_on_c, 15, 49, 0
28, 128520, Note_on_c, 15, 54, 100
28, 128580, Note_on_c, 15, 54, 0
28, 128580, Note_on_c, 15, 50, 100
28, 128640, Note_on_c, 15, 50, 0
28, 128640, Note_on_c, 15, 47, 100
28, 128700, Note_on_c, 15, 47, 0
28, 128700, Note_on_c, 15, 52, 100
28, 128760, Note_on_c, 15, 52, 0
28, 128760, Note_on_c, 15, 49, 100
28, 128820, Note_on_c, 15, 49, 0
28, 128820, Note_on_c, 15, 54, 100
28, 128880, Note_on_c, 15, 54, 0
28, 128880, Note_on_c, 15, 47, 100
28, 128940, Note_on_c, 15, 47, 0
28, 128940, Note_on_c, 15, 50, 100
28, 129000, Note_on_c, 15, 50, 0
28, 129000, Note_on_c, 15, 54, 100
28, 129060, Note_on_c, 15, 54, 0
28, 129060, Note_on_c, 15, 50, 100
28, 129120, Note_on_c, 15, 50, 0
28, 129120, Note_on_c, 15, 47, 100
28, 129180, Note_on_c, 15, 47, 0
28, 129180, Note_on_c, 15, 52, 100
28, 129240, Note_on_c, 15, 52, 0
28, 129240, Note_on_c, 15, 50, 100
28, 129300, Note_on_c, 15, 50, 0
28, 129300, Note_on_c, 15, 49, 100
28, 129360, Note_on_c, 15, 49, 0
28, 129360, Note_on_c, 15, 47, 100
28, 129420, Note_on_c, 15, 47, 0
28, 129420, Note_on_c, 15, 52, 100
28, 129480, Note_on_c, 15, 52, 0
28, 129480, Note_on_c, 15, 46, 100
28, 129540, Note_on_c, 15, 46, 0
28, 129540, Note_on_c, 15, 47, 100
28, 129600, Note_on_c, 15, 47, 0
28, 129600, Note_on_c, 15, 42, 100
28, 129660, Note_on_c, 15, 42, 0
28, 129660, Note_on_c, 15, 54, 100
28, 129720, Note_on_c, 15, 54, 0
28, 129720, Note_on_c, 15, 52, 100
28, 129780, Note_on_c, 15, 52, 0
28, 129780, Note_on_c, 15, 50, 100
28, 129840, Note_on_c, 15, 50, 0
28, 129840, Note_on_c, 15, 47, 100
28, 129900, Note_on_c, 15, 47, 0
28, 129900, Note_on_c, 15, 52, 100
28, 129960, Note_on_c, 15, 52, 0
28, 129960, Note_on_c, 15, 50, 100
28, 130020, Note_on_c, 15, 50, 0
28, 130020, Note_on_c, 15, 49, 100
28, 130080, Note_on_c, 15, 49, 0
28, 130080, Note_on_c, 15, 47, 100
28, 130140, Note_on_c, 15, 47, 0
28, 130140, Note_on_c, 15, 52, 100
28, 130200, Note_on_c, 15, 52, 0
28, 130200, Note_on_c, 15, 46, 100
28, 130260, Note_on_c, 15, 46, 0
28, 130260, Note_on_c, 15, 47, 100
28, 130320, Note_on_c, 15, 47, 0
28, 130320, Note_on_c, 15, 42, 100
28, 130380, Note_on_c, 15, 42, 0
28, 130380, Note_on_c, 15, 44, 100
28, 130440, Note_on_c, 15, 44, 0
28, 130440, Note_on_c, 15, 46, 100
28, 130500, Note_on_c, 15, 46, 0
28, 130500, Note_on_c, 15, 47, 100
28, 130560, Note_on_c, 15, 47, 0
28, 130560, Note_on_c, 15, 59, 100
28, 130620, Note_on_c, 15, 59, 0
28, 130680, Note_on_c, 15, 52, 100
28, 130740, Note_on_c, 15, 52, 0
28, 130740, Note_on_c, 15, 40, 100
28, 130800, Note_on_c, 15, 40, 0
28, 130860, Note_on_c, 15, 45, 100
28, 130920, Note_on_c, 15, 45, 0
28, 130920, Note_on_c, 15, 57, 100
28, 130980, Note_on_c, 15, 57, 0
28, 131040, Note_on_c, 15, 50, 100
28, 131100, Note_on_c, 15, 50, 0
28, 131100, Note_on_c, 15, 38, 100
28, 131160, Note_on_c, 15, 38, 0
28, 131220, Note_on_c, 15, 55, 100
28, 131280, Note_on_c, 15, 55, 0
28, 131280, Note_on_c, 15, 52, 100
28, 131340, Note_on_c, 15, 52, 0
28, 131340, Note_on_c, 15, 49, 100
28, 131400, Note_on_c, 15, 49, 0
28, 131400, Note_on_c, 15, 54, 100
28, 131460, Note_on_c, 15, 54, 0
28, 131460, Note_on_c, 15, 50, 100
28, 131520, Note_on_c, 15, 50, 0
28, 131520, Note_on_c, 15, 47, 100
28, 131580, Note_on_c, 15, 47, 0
28, 131580, Note_on_c, 15, 52, 100
28, 131640, Note_on_c, 15, 52, 0
28, 131640, Note_on_c, 15, 54, 100
28, 131700, Note_on_c, 15, 54, 0
28, 131700, Note_on_c, 15, 55, 100
28, 131760, Note_on_c, 15, 55, 0
28, 131760, Note_on_c, 15, 54, 100
28, 131820, Note_on_c, 15, 54, 0
28, 131820, Note_on_c, 15, 42, 100
28, 131880, Note_on_c, 15, 42, 0
28, 132300, Note_on_c, 15, 54, 100
28, 132360, Note_on_c, 15, 54, 0
28, 132360, Note_on_c, 15, 58, 100
28, 132420, Note_on_c, 15, 58, 0
28, 132420, Note_on_c, 15, 54, 100
28, 132480, Note_on_c, 15, 54, 0
28, 132480, Note_on_c, 15, 59, 100
28, 132540, Note_on_c, 15, 59, 0
28, 132540, Note_on_c, 15, 62, 100
28, 132600, Note_on_c, 15, 62, 0
28, 132600, Note_on_c, 15, 59, 100
28, 132660, Note_on_c, 15, 59, 0
28, 132660, Note_on_c, 15, 52, 100
28, 132720, Note_on_c, 15, 52, 0
28, 132720, Note_on_c, 15, 56, 100
28, 132780, Note_on_c, 15, 56, 0
28, 132780, Note_on_c, 15, 52, 100
28, 132840, Note_on_c, 15, 52, 0
28, 132840, Note_on_c, 15, 57, 100
28, 132900, Note_on_c, 15, 57, 0
28, 132900, Note_on_c, 15, 61, 100
28, 132960, Note_on_c, 15, 61, 0
28, 132960, Note_on_c, 15, 57, 100
28, 133020, Note_on_c, 15, 57, 0
28, 133020, Note_on_c, 15, 50, 100
28, 133080, Note_on_c, 15, 50, 0
28, 133080, Note_on_c, 15, 54, 100
28, 133140, Note_on_c, 15, 54, 0
28, 133140, Note_on_c, 15, 47, 100
28, 133200, Note_on_c, 15, 47, 0
28, 133200, Note_on_c, 15, 42, 100
28, 133260, Note_on_c, 15, 42, 0
28, 133260, Note_on_c, 15, 44, 100
28, 133320, Note_on_c, 15, 44, 0
28, 133320, Note_on_c, 15, 45, 100
28, 133380, Note_on_c, 15, 45, 0
28, 133380, Note_on_c, 15, 47, 100
28, 133440, Note_on_c, 15, 47, 0
28, 133440, Note_on_c, 15, 41, 100
28, 133500, Note_on_c, 15, 41, 0
28, 133500, Note_on_c, 15, 42, 100
28, 133560, Note_on_c, 15, 42, 0
28, 133560, Note_on_c, 15, 37, 100
28, 133590, Note_on_c, 15, 37, 0
28, 133590, Note_on_c, 15, 44, 100
28, 133620, Note_on_c, 15, 44, 0
28, 133620, Note_on_c, 15, 49, 100
28, 133650, Note_on_c, 15, 49, 0
28, 133650, Note_on_c, 15, 51, 100
28, 133680, Note_on_c, 15, 51, 0
28, 133680, Note_on_c, 15, 53, 100
28, 133710, Note_on_c, 15, 53, 0
28, 133710, Note_on_c, 15, 49, 100
28, 133740, Note_on_c, 15, 49, 0
28, 133740, Note_on_c, 15, 54, 100
28, 133800, Note_on_c, 15, 54, 0
28, 133800, Note_on_c, 15, 42, 100
28, 133860, Note_on_c, 15, 42, 0
28, 133860, Note_on_c, 15, 44, 100
28, 133920, Note_on_c, 15, 44, 0
28, 133920, Note_on_c, 15, 45, 100
28, 133980, Note_on_c, 15, 45, 0
28, 133980, Note_on_c, 15, 44, 100
28, 134040, Note_on_c, 15, 44, 0
28, 134040, Note_on_c, 15, 42, 100
28, 134100, Note_on_c, 15, 42, 0
28, 134100, Note_on_c, 15, 49, 100
28, 134160, Note_on_c, 15, 49, 0
28, 134160, Note_on_c, 15, 41, 100
28, 134220, Note_on_c, 15, 41, 0
28, 134220, Note_on_c, 15, 42, 100
28, 134280, Note_on_c, 15, 42, 0
28, 134280, Note_on_c, 15, 49, 100
28, 134340, Note_on_c, 15, 49, 0
28, 134340, Note_on_c, 15, 51, 100
28, 134400, Note_on_c, 15, 51, 0
28, 134400, Note_on_c, 15, 53, 100
28, 134460, Note_on_c, 15, 53, 0
28, 134460, Note_on_c, 15, 54, 100
28, 134520, Note_on_c, 15, 54, 0
28, 134520, Note_on_c, 15, 42, 100
28, 134580, Note_on_c, 15, 42, 0
28, 134580, Note_on_c, 15, 45, 100
28, 134640, Note_on_c, 15, 45, 0
28, 134640, Note_on_c, 15, 47, 100
28, 134700, Note_on_c, 15, 47, 0
28, 134700, Note_on_c, 15, 50, 100
28, 134760, Note_on_c, 15, 50, 0
28, 134760, Note_on_c, 15, 47, 100
28, 134820, Note_on_c, 15, 47, 0
28, 134820, Note_on_c, 15, 52, 100
28, 134880, Note_on_c, 15, 52, 0
28, 134880, Note_on_c, 15, 40, 100
28, 134940, Note_on_c, 15, 40, 0
28, 134940, Note_on_c, 15, 44, 100
28, 135000, Note_on_c, 15, 44, 0
28, 135000, Note_on_c, 15, 45, 100
28, 135060, Note_on_c, 15, 45, 0
28, 135060, Note_on_c, 15, 49, 100
28, 135120, Note_on_c, 15, 49, 0
28, 135120, Note_on_c, 15, 45, 100
28, 135180, Note_on_c, 15, 45, 0
28, 135180, Note_on_c, 15, 50, 100
28, 135240, Note_on_c, 15, 50, 0
28, 135240, Note_on_c, 15, 47, 100
28, 135300, Note_on_c, 15, 47, 0
28, 135300, Note_on_c, 15, 44, 100
28, 135360, Note_on_c, 15, 44, 0
28, 135360, Note_on_c, 15, 49, 100
28, 135420, Note_on_c, 15, 49, 0
28, 135420, Note_on_c, 15, 45, 100
28, 135480, Note_on_c, 15, 45, 0
28, 135480, Note_on_c, 15, 42, 100
28, 135540, Note_on_c, 15, 42, 0
28, 135540, Note_on_c, 15, 47, 100
28, 135600, Note_on_c, 15, 47, 0
28, 135600, Note_on_c, 15, 44, 100
28, 135660, Note_on_c, 15, 44, 0
28, 135660, Note_on_c, 15, 49, 100
28, 135720, Note_on_c, 15, 49, 0
28, 135720, Note_on_c, 15, 42, 100
28, 135840, Note_on_c, 15, 42, 0
28, 135840, Note_on_c, 15, 44, 100
28, 135900, Note_on_c, 15, 44, 0
28, 135900, Note_on_c, 15, 46, 100
28, 135960, Note_on_c, 15, 46, 0
28, 135960, Note_on_c, 15, 47, 100
28, 136020, Note_on_c, 15, 47, 0
28, 136020, Note_on_c, 15, 49, 100
28, 136080, Note_on_c, 15, 49, 0
28, 136080, Note_on_c, 15, 50, 100
28, 136110, Note_on_c, 15, 50, 0
28, 136110, Note_on_c, 15, 52, 100
28, 136140, Note_on_c, 15, 52, 0
28, 136140, Note_on_c, 15, 54, 100
28, 136200, Note_on_c, 15, 54, 0
28, 136200, Note_on_c, 15, 52, 100
28, 136260, Note_on_c, 15, 52, 0
28, 136260, Note_on_c, 15, 50, 100
28, 136320, Note_on_c, 15, 50, 0
28, 136320, Note_on_c, 15, 49, 100
28, 136350, Note_on_c, 15, 49, 0
28, 136350, Note_on_c, 15, 44, 100
28, 136380, Note_on_c, 15, 44, 0
28, 136380, Note_on_c, 15, 46, 100
28, 136410, Note_on_c, 15, 46, 0
28, 136410, Note_on_c, 15, 42, 100
28, 136440, Note_on_c, 15, 42, 0
28, 136440, Note_on_c, 15, 38, 100
28, 136500, Note_on_c, 15, 38, 0
28, 136500, Note_on_c, 15, 47, 100
28, 136560, Note_on_c, 15, 47, 0
28, 136560, Note_on_c, 15, 44, 100
28, 136620, Note_on_c, 15, 44, 0
28, 136620, Note_on_c, 15, 49, 100
28, 136680, Note_on_c, 15, 49, 0
28, 136680, Note_on_c, 15, 45, 100
28, 136740, Note_on_c, 15, 45, 0
28, 136740, Note_on_c, 15, 42, 100
28, 136800, Note_on_c, 15, 42, 0
28, 136800, Note_on_c, 15, 47, 100
28, 136860, Note_on_c, 15, 47, 0
28, 136860, Note_on_c, 15, 44, 100
28, 136920, Note_on_c, 15, 44, 0
28, 136920, Note_on_c, 15, 49, 100
28, 136980, Note_on_c, 15, 49, 0
28, 136980, Note_on_c, 15, 42, 100
28, 137100, Note_on_c, 15, 42, 0
28, 137220, Note_on_c, 15, 56, 100
28, 137250, Note_on_c, 15, 56, 0
28, 137250, Note_on_c, 15, 54, 100
28, 137280, Note_on_c, 15, 54, 0
28, 137280, Note_on_c, 15, 56, 100
28, 137310, Note_on_c, 15, 56, 0
28, 137310, Note_on_c, 15, 52, 100
28, 137340, Note_on_c, 15, 52, 0
28, 137340, Note_on_c, 15, 57, 100
28, 137460, Note_on_c, 15, 57, 0
28, 137580, Note_on_c, 15, 57, 100
28, 137610, Note_on_c, 15, 57, 0
28, 137610, Note_on_c, 15, 55, 100
28, 137640, Note_on_c, 15, 55, 0
28, 137640, Note_on_c, 15, 57, 100
28, 137670, Note_on_c, 15, 57, 0
28, 137670, Note_on_c, 15, 54, 100
28, 137700, Note_on_c, 15, 54, 0
28, 137700, Note_on_c, 15, 59, 100
28, 137730, Note_on_c, 15, 59, 0
28, 137730, Note_on_c, 15, 57, 100
28, 137760, Note_on_c, 15, 57, 0
28, 137760, Note_on_c, 15, 55, 100
28, 137790, Note_on_c, 15, 55, 0
28, 137790, Note_on_c, 15, 54, 100
28, 137820, Note_on_c, 15, 54, 0
28, 137820, Note_on_c, 15, 52, 100
28, 137850, Note_on_c, 15, 52, 0
28, 137850, Note_on_c, 15, 51, 100
28, 137880, Note_on_c, 15, 51, 0
28, 137880, Note_on_c, 15, 52, 100
28, 137940, Note_on_c, 15, 52, 0
28, 137940, Note_on_c, 15, 47, 100
28, 137970, Note_on_c, 15, 47, 0
28, 137970, Note_on_c, 15, 43, 100
28, 138000, Note_on_c, 15, 43, 0
28, 138000, Note_on_c, 15, 45, 100
28, 138030, Note_on_c, 15, 45, 0
28, 138030, Note_on_c, 15, 42, 100
28, 138060, Note_on_c, 15, 42, 0
28, 138060, Note_on_c, 15, 43, 100
28, 138120, Note_on_c, 15, 43, 0
28, 138120, Note_on_c, 15, 40, 100
28, 138180, Note_on_c, 15, 40, 0
28, 138180, Note_on_c, 15, 38, 100
28, 138240, Note_on_c, 15, 38, 0
28, 138240, Note_on_c, 15, 36, 100
28, 138300, Note_on_c, 15, 36, 0
28, 138300, Note_on_c, 15, 48, 100
28, 138360, Note_on_c, 15, 48, 0
28, 138360, Note_on_c, 15, 45, 100
28, 138420, Note_on_c, 15, 45, 0
28, 138420, Note_on_c, 15, 47, 100
28, 138480, Note_on_c, 15, 47, 0
28, 138480, Note_on_c, 15, 59, 100
28, 138510, Note_on_c, 15, 59, 0
28, 138510, Note_on_c, 15, 55, 100
28, 138540, Note_on_c, 15, 55, 0
28, 138540, Note_on_c, 15, 57, 100
28, 138570, Note_on_c, 15, 57, 0
28, 138570, Note_on_c, 15, 54, 100
28, 138600, Note_on_c, 15, 54, 0
28, 138600, Note_on_c, 15, 55, 100
28, 138660, Note_on_c, 15, 55, 0
28, 138660, Note_on_c, 15, 51, 100
28, 138720, Note_on_c, 15, 51, 0
28, 138720, Note_on_c, 15, 52, 100
28, 138780, Note_on_c, 15, 52, 0
28, 138780, Note_on_c, 15, 47, 100
28, 138900, Note_on_c, 15, 47, 0
28, 138960, Note_on_c, 15, 52, 100
28, 139020, Note_on_c, 15, 52, 0
28, 139020, Note_on_c, 15, 40, 100
28, 139080, Note_on_c, 15, 40, 0
28, 139080, Note_on_c, 15, 43, 100
28, 139140, Note_on_c, 15, 43, 0
28, 139140, Note_on_c, 15, 45, 100
28, 139200, Note_on_c, 15, 45, 0
28, 139200, Note_on_c, 15, 48, 100
28, 139260, Note_on_c, 15, 48, 0
28, 139260, Note_on_c, 15, 45, 100
28, 139320, Note_on_c, 15, 45, 0
28, 139320, Note_on_c, 15, 50, 100
28, 139380, Note_on_c, 15, 50, 0
28, 139380, Note_on_c, 15, 38, 100
28, 139440, Note_on_c, 15, 38, 0
28, 139440, Note_on_c, 15, 42, 100
28, 139500, Note_on_c, 15, 42, 0
28, 139500, Note_on_c, 15, 43, 100
28, 139560, Note_on_c, 15, 43, 0
28, 139560, Note_on_c, 15, 47, 100
28, 139620, Note_on_c, 15, 47, 0
28, 139620, Note_on_c, 15, 43, 100
28, 139680, Note_on_c, 15, 43, 0
28, 139680, Note_on_c, 15, 48, 100
28, 139740, Note_on_c, 15, 48, 0
28, 139740, Note_on_c, 15, 45, 100
28, 139800, Note_on_c, 15, 45, 0
28, 139800, Note_on_c, 15, 42, 100
28, 139860, Note_on_c, 15, 42, 0
28, 139860, Note_on_c, 15, 47, 100
28, 139920, Note_on_c, 15, 47, 0
28, 139920, Note_on_c, 15, 43, 100
28, 139980, Note_on_c, 15, 43, 0
28, 139980, Note_on_c, 15, 40, 100
28, 140040, Note_on_c, 15, 40, 0
28, 140040, Note_on_c, 15, 45, 100
28, 140100, Note_on_c, 15, 45, 0
28, 140100, Note_on_c, 15, 42, 100
28, 140160, Note_on_c, 15, 42, 0
28, 140160, Note_on_c, 15, 47, 100
28, 140220, Note_on_c, 15, 47, 0
28, 140220, Note_on_c, 15, 40, 100
28, 140280, Note_on_c, 15, 40, 0
28, 140280, Note_on_c, 15, 52, 100
28, 140340, Note_on_c, 15, 52, 0
28, 140340, Note_on_c, 15, 47, 100
28, 140400, Note_on_c, 15, 47, 0
28, 140400, Note_on_c, 15, 43, 100
28, 140460, Note_on_c, 15, 43, 0
28, 140460, Note_on_c, 15, 42, 100
28, 140520, Note_on_c, 15, 42, 0
28, 140520, Note_on_c, 15, 40, 100
28, 140580, Note_on_c, 15, 40, 0
28, 140580, Note_on_c, 15, 39, 100
28, 140640, Note_on_c, 15, 39, 0
28, 140640, Note_on_c, 15, 51, 100
28, 140700, Note_on_c, 15, 51, 0
28, 140700, Note_on_c, 15, 52, 100
28, 140760, Note_on_c, 15, 52, 0
28, 140760, Note_on_c, 15, 47, 100
28, 140820, Note_on_c, 15, 47, 0
28, 140820, Note_on_c, 15, 45, 100
28, 140880, Note_on_c, 15, 45, 0
28, 140880, Note_on_c, 15, 43, 100
28, 140940, Note_on_c, 15, 43, 0
28, 140940, Note_on_c, 15, 48, 100
28, 141000, Note_on_c, 15, 48, 0
28, 141000, Note_on_c, 15, 45, 100
28, 141060, Note_on_c, 15, 45, 0
28, 141060, Note_on_c, 15, 42, 100
28, 141120, Note_on_c, 15, 42, 0
28, 141120, Note_on_c, 15, 47, 100
28, 141180, Note_on_c, 15, 47, 0
28, 141180, Note_on_c, 15, 43, 100
28, 141240, Note_on_c, 15, 43, 0
28, 141240, Note_on_c, 15, 40, 100
28, 141300, Note_on_c, 15, 40, 0
28, 141300, Note_on_c, 15, 45, 100
28, 141360, Note_on_c, 15, 45, 0
28, 141360, Note_on_c, 15, 42, 100
28, 141420, Note_on_c, 15, 42, 0
28, 141420, Note_on_c, 15, 47, 100
28, 141480, Note_on_c, 15, 47, 0
28, 141480, Note_on_c, 15, 40, 100
28, 141540, Note_on_c, 15, 40, 0
28, 141540, Note_on_c, 15, 52, 100
28, 141570, Note_on_c, 15, 52, 0
28, 141570, Note_on_c, 15, 50, 100
28, 141600, Note_on_c, 15, 50, 0
28, 141600, Note_on_c, 15, 52, 100
28, 141720, Note_on_c, 15, 52, 0
28, 141720, Note_on_c, 15, 50, 100
28, 141750, Note_on_c, 15, 50, 0
28, 141750, Note_on_c, 15, 49, 100
28, 141780, Note_on_c, 15, 49, 0
28, 141780, Note_on_c, 15, 50, 100
28, 141810, Note_on_c, 15, 50, 0
28, 141810, Note_on_c, 15, 47, 100
28, 141840, Note_on_c, 15, 47, 0
28, 141840, Note_on_c, 15, 55, 100
28, 141900, Note_on_c, 15, 55, 0
28, 141900, Note_on_c, 15, 46, 100
28, 141960, Note_on_c, 15, 46, 0
28, 141960, Note_on_c, 15, 47, 100
28, 142020, Note_on_c, 15, 47, 0
28, 142020, Note_on_c, 15, 42, 100
28, 142080, Note_on_c, 15, 42, 0
28, 142080, Note_on_c, 15, 54, 100
28, 142110, Note_on_c, 15, 54, 0
28, 142110, Note_on_c, 15, 56, 100
28, 142140, Note_on_c, 15, 56, 0
28, 142140, Note_on_c, 15, 58, 100
28, 142170, Note_on_c, 15, 58, 0
28, 142170, Note_on_c, 15, 54, 100
28, 142200, Note_on_c, 15, 54, 0
28, 142200, Note_on_c, 15, 59, 100
28, 142230, Note_on_c, 15, 59, 0
28, 142230, Note_on_c, 15, 61, 100
28, 142260, Note_on_c, 15, 61, 0
28, 142260, Note_on_c, 15, 62, 100
28, 142320, Note_on_c, 15, 62, 0
28, 142320, Note_on_c, 15, 61, 100
28, 142380, Note_on_c, 15, 61, 0
28, 142380, Note_on_c, 15, 59, 100
28, 142440, Note_on_c, 15, 59, 0
28, 142440, Note_on_c, 15, 54, 100
28, 142470, Note_on_c, 15, 54, 0
28, 142470, Note_on_c, 15, 52, 100
28, 142500, Note_on_c, 15, 52, 0
28, 142500, Note_on_c, 15, 54, 100
28, 142560, Note_on_c, 15, 54, 0
28, 142560, Note_on_c, 15, 61, 100
28, 142590, Note_on_c, 15, 61, 0
28, 142590, Note_on_c, 15, 62, 100
28, 142620, Note_on_c, 15, 62, 0
28, 142620, Note_on_c, 15, 64, 100
28, 142680, Note_on_c, 15, 64, 0
28, 142680, Note_on_c, 15, 62, 100
28, 142740, Note_on_c, 15, 62, 0
28, 142740, Note_on_c, 15, 61, 100
28, 142800, Note_on_c, 15, 61, 0
28, 142800, Note_on_c, 15, 54, 100
28, 142830, Note_on_c, 15, 54, 0
28, 142830, Note_on_c, 15, 52, 100
28, 142860, Note_on_c, 15, 52, 0
28, 142860, Note_on_c, 15, 54, 100
28, 142920, Note_on_c, 15, 54, 0
28, 142920, Note_on_c, 15, 50, 100
28, 142980, Note_on_c, 15, 50, 0
28, 142980, Note_on_c, 15, 47, 100
28, 143040, Note_on_c, 15, 47, 0
28, 143040, Note_on_c, 15, 52, 100
28, 143100, Note_on_c, 15, 52, 0
28, 143100, Note_on_c, 15, 50, 100
28, 143160, Note_on_c, 15, 50, 0
28, 143160, Note_on_c, 15, 49, 100
28, 143220, Note_on_c, 15, 49, 0
28, 143220, Note_on_c, 15, 47, 100
28, 143280, Note_on_c, 15, 47, 0
28, 143280, Note_on_c, 15, 52, 100
28, 143340, Note_on_c, 15, 52, 0
28, 143340, Note_on_c, 15, 46, 100
28, 143400, Note_on_c, 15, 46, 0
28, 143400, Note_on_c, 15, 47, 100
28, 143460, Note_on_c, 15, 47, 0
28, 143460, Note_on_c, 15, 42, 100
28, 143520, Note_on_c, 15, 42, 0
28, 143520, Note_on_c, 15, 54, 100
28, 143580, Note_on_c, 15, 54, 0
28, 143580, Note_on_c, 15, 52, 100
28, 143640, Note_on_c, 15, 52, 0
28, 143640, Note_on_c, 15, 50, 100
28, 143700, Note_on_c, 15, 50, 0
28, 143700, Note_on_c, 15, 47, 100
28, 143760, Note_on_c, 15, 47, 0
28, 143760, Note_on_c, 15, 52, 100
28, 143820, Note_on_c, 15, 52, 0
28, 143820, Note_on_c, 15, 50, 100
28, 143880, Note_on_c, 15, 50, 0
28, 143880, Note_on_c, 15, 49, 100
28, 143940, Note_on_c, 15, 49, 0
28, 143940, Note_on_c, 15, 47, 100
28, 144000, Note_on_c, 15, 47, 0
28, 144000, Note_on_c, 15, 52, 100
28, 144060, Note_on_c, 15, 52, 0
28, 144060, Note_on_c, 15, 46, 100
28, 144120, Note_on_c, 15, 46, 0
28, 144120, Note_on_c, 15, 47, 100
28, 144180, Note_on_c, 15, 47, 0
28, 144180, Note_on_c, 15, 42, 100
28, 144240, Note_on_c, 15, 42, 0
28, 144240, Note_on_c, 15, 44, 100
28, 144300, Note_on_c, 15, 44, 0
28, 144300, Note_on_c, 15, 44, 100
28, 144360, Note_on_c, 15, 44, 0
28, 144360, Note_on_c, 15, 47, 100
28, 144420, Note_on_c, 15, 47, 0
28, 144420, Note_on_c, 15, 59, 100
28, 144480, Note_on_c, 15, 59, 0
28, 144540, Note_on_c, 15, 52, 100
28, 144600, Note_on_c, 15, 52, 0
28, 144600, Note_on_c, 15, 40, 100
28, 144660, Note_on_c, 15, 40, 0
28, 144720, Note_on_c, 15, 45, 100
28, 144780, Note_on_c, 15, 45, 0
28, 144780, Note_on_c, 15, 57, 100
28, 144840, Note_on_c, 15, 57, 0
28, 144900, Note_on_c, 15, 50, 100
28, 144960, Note_on_c, 15, 50, 0
28, 144960, Note_on_c, 15, 38, 100
28, 145020, Note_on_c, 15, 38, 0
28, 145080, Note_on_c, 15, 55, 100
28, 145140, Note_on_c, 15, 55, 0
28, 145140, Note_on_c, 15, 52, 100
28, 145200, Note_on_c, 15, 52, 0
28, 145200, Note_on_c, 15, 49, 100
28, 145260, Note_on_c, 15, 49, 0
28, 145260, Note_on_c, 15, 54, 100
28, 145320, Note_on_c, 15, 54, 0
28, 145320, Note_on_c, 15, 50, 100
28, 145380, Note_on_c, 15, 50, 0
28, 145380, Note_on_c, 15, 47, 100
28, 145440, Note_on_c, 15, 47, 0
28, 145440, Note_on_c, 15, 52, 100
28, 145500, Note_on_c, 15, 52, 0
28, 145500, Note_on_c, 15, 54, 100
28, 145560, Note_on_c, 15, 54, 0
28, 145560, Note_on_c, 15, 55, 100
28, 145620, Note_on_c, 15, 55, 0
28, 145620, Note_on_c, 15, 54, 100
28, 145680, Note_on_c, 15, 54, 0
28, 145680, Note_on_c, 15, 42, 100
28, 145740, Note_on_c, 15, 42, 0
28, 146160, Note_on_c, 15, 47, 100
28, 146220, Note_on_c, 15, 47, 0
28, 146220, Note_on_c, 15, 50, 100
28, 146280, Note_on_c, 15, 50, 0
28, 146280, Note_on_c, 15, 47, 100
28, 146340, Note_on_c, 15, 47, 0
28, 146340, Note_on_c, 15, 52, 100
28, 146400, Note_on_c, 15, 52, 0
28, 146400, Note_on_c, 15, 55, 100
28, 146460, Note_on_c, 15, 55, 0
28, 146460, Note_on_c, 15, 52, 100
28, 146520, Note_on_c, 15, 52, 0
28, 146520, Note_on_c, 15, 45, 100
28, 146580, Note_on_c, 15, 45, 0
28, 146580, Note_on_c, 15, 49, 100
28, 146640, Note_on_c, 15, 49, 0
28, 146640, Note_on_c, 15, 45, 100
28, 146700, Note_on_c, 15, 45, 0
28, 146700, Note_on_c, 15, 50, 100
28, 146760, Note_on_c, 15, 50, 0
28, 146760, Note_on_c, 15, 54, 100
28, 146820, Note_on_c, 15, 54, 0
28, 146820, Note_on_c, 15, 50, 100
28, 146880, Note_on_c, 15, 50, 0
28, 146880, Note_on_c, 15, 43, 100
28, 146940, Note_on_c, 15, 43, 0
28, 146940, Note_on_c, 15, 47, 100
28, 147000, Note_on_c, 15, 47, 0
28, 147000, Note_on_c, 15, 40, 100
28, 147060, Note_on_c, 15, 40, 0
28, 147060, Note_on_c, 15, 47, 100
28, 147120, Note_on_c, 15, 47, 0
28, 147120, Note_on_c, 15, 49, 100
28, 147180, Note_on_c, 15, 49, 0
28, 147180, Note_on_c, 15, 50, 100
28, 147240, Note_on_c, 15, 50, 0
28, 147240, Note_on_c, 15, 52, 100
28, 147300, Note_on_c, 15, 52, 0
28, 147300, Note_on_c, 15, 46, 100
28, 147360, Note_on_c, 15, 46, 0
28, 147360, Note_on_c, 15, 47, 100
28, 147420, Note_on_c, 15, 47, 0
28, 147420, Note_on_c, 15, 42, 100
28, 147450, Note_on_c, 15, 42, 0
28, 147450, Note_on_c, 15, 40, 100
28, 147480, Note_on_c, 15, 40, 0
28, 147480, Note_on_c, 15, 42, 100
28, 147510, Note_on_c, 15, 42, 0
28, 147510, Note_on_c, 15, 44, 100
28, 147540, Note_on_c, 15, 44, 0
28, 147540, Note_on_c, 15, 45, 100
28, 147570, Note_on_c, 15, 45, 0
28, 147570, Note_on_c, 15, 42, 100
28, 147600, Note_on_c, 15, 42, 0
28, 147600, Note_on_c, 15, 47, 100
28, 147660, Note_on_c, 15, 47, 0
28, 147660, Note_on_c, 15, 59, 100
28, 147720, Note_on_c, 15, 59, 0
28, 147720, Note_on_c, 15, 52, 100
28, 147780, Note_on_c, 15, 52, 0
28, 147780, Note_on_c, 15, 50, 100
28, 147840, Note_on_c, 15, 50, 0
28, 147840, Note_on_c, 15, 49, 100
28, 147900, Note_on_c, 15, 49, 0
28, 147900, Note_on_c, 15, 47, 100
28, 147960, Note_on_c, 15, 47, 0
28, 147960, Note_on_c, 15, 54, 100
28, 148020, Note_on_c, 15, 54, 0
28, 148020, Note_on_c, 15, 46, 100
28, 148080, Note_on_c, 15, 46, 0
28, 148080, Note_on_c, 15, 47, 100
28, 148140, Note_on_c, 15, 47, 0
28, 148140, Note_on_c, 15, 42, 100
28, 148200, Note_on_c, 15, 42, 0
28, 148200, Note_on_c, 15, 44, 100
28, 148260, Note_on_c, 15, 44, 0
28, 148260, Note_on_c, 15, 46, 100
28, 148320, Note_on_c, 15, 46, 0
28, 148320, Note_on_c, 15, 47, 100
28, 148380, Note_on_c, 15, 47, 0
28, 148380, Note_on_c, 15, 59, 100
28, 148440, Note_on_c, 15, 59, 0
28, 148440, Note_on_c, 15, 50, 100
28, 148500, Note_on_c, 15, 50, 0
28, 148500, Note_on_c, 15, 52, 100
28, 148560, Note_on_c, 15, 52, 0
28, 148560, Note_on_c, 15, 55, 100
28, 148620, Note_on_c, 15, 55, 0
28, 148620, Note_on_c, 15, 52, 100
28, 148680, Note_on_c, 15, 52, 0
28, 148680, Note_on_c, 15, 45, 100
28, 148740, Note_on_c, 15, 45, 0
28, 148740, Note_on_c, 15, 57, 100
28, 148800, Note_on_c, 15, 57, 0
28, 148800, Note_on_c, 15, 49, 100
28, 148860, Note_on_c, 15, 49, 0
28, 148860, Note_on_c, 15, 50, 100
28, 148920, Note_on_c, 15, 50, 0
28, 148920, Note_on_c, 15, 54, 100
28, 148980, Note_on_c, 15, 54, 0
28, 148980, Note_on_c, 15, 50, 100
28, 149040, Note_on_c, 15, 50, 0
28, 149040, Note_on_c, 15, 55, 100
28, 149100, Note_on_c, 15, 55, 0
28, 149100, Note_on_c, 15, 52, 100
28, 149160, Note_on_c, 15, 52, 0
28, 149160, Note_on_c, 15, 49, 100
28, 149220, Note_on_c, 15, 49, 0
28, 149220, Note_on_c, 15, 54, 100
28, 149280, Note_on_c, 15, 54, 0
28, 149280, Note_on_c, 15, 50, 100
28, 149340, Note_on_c, 15, 50, 0
28, 149340, Note_on_c, 15, 47, 100
28, 149400, Note_on_c, 15, 47, 0
28, 149400, Note_on_c, 15, 52, 100
28, 149460, Note_on_c, 15, 52, 0
28, 149460, Note_on_c, 15, 49, 100
28, 149520, Note_on_c, 15, 49, 0
28, 149520, Note_on_c, 15, 54, 100
28, 149580, Note_on_c, 15, 54, 0
28, 149580, Note_on_c, 15, 47, 100
28, 149700, Note_on_c, 15, 47, 0
28, 149700, Note_on_c, 15, 49, 100
28, 149760, Note_on_c, 15, 49, 0
28, 149760, Note_on_c, 15, 51, 100
28, 149820, Note_on_c, 15, 51, 0
28, 149820, Note_on_c, 15, 52, 100
28, 149880, Note_on_c, 15, 52, 0
28, 149880, Note_on_c, 15, 54, 100
28, 149940, Note_on_c, 15, 54, 0
28, 149940, Note_on_c, 15, 55, 100
28, 149970, Note_on_c, 15, 55, 0
28, 149970, Note_on_c, 15, 57, 100
28, 150000, Note_on_c, 15, 57, 0
28, 150000, Note_on_c, 15, 59, 100
28, 150060, Note_on_c, 15, 59, 0
28, 150060, Note_on_c, 15, 57, 100
28, 150120, Note_on_c, 15, 57, 0
28, 150120, Note_on_c, 15, 55, 100
28, 150180, Note_on_c, 15, 55, 0
28, 150180, Note_on_c, 15, 54, 100
28, 150210, Note_on_c, 15, 54, 0
28, 150210, Note_on_c, 15, 49, 100
28, 150240, Note_on_c, 15, 49, 0
28, 150240, Note_on_c, 15, 51, 100
28, 150270, Note_on_c, 15, 51, 0
28, 150270, Note_on_c, 15, 47, 100
28, 150300, Note_on_c, 15, 47, 0
28, 150300, Note_on_c, 15, 43, 100
28, 150360, Note_on_c, 15, 43, 0
28, 150360, Note_on_c, 15, 52, 100
28, 150420, Note_on_c, 15, 52, 0
28, 150420, Note_on_c, 15, 49, 100
28, 150480, Note_on_c, 15, 49, 0
28, 150480, Note_on_c, 15, 42, 100
28, 150540, Note_on_c, 15, 42, 0
28, 150540, Note_on_c, 15, 50, 100
28, 150600, Note_on_c, 15, 50, 0
28, 150600, Note_on_c, 15, 47, 100
28, 150660, Note_on_c, 15, 47, 0
28, 150660, Note_on_c, 15, 40, 100
28, 150720, Note_on_c, 15, 40, 0
28, 150720, Note_on_c, 15, 49, 100
28, 150780, Note_on_c, 15, 49, 0
28, 150780, Note_on_c, 15, 54, 100
28, 150840, Note_on_c, 15, 54, 0
28, 150840, Note_on_c, 15, 47, 100
28, 151020, Note_on_c, 15, 47, 0
28, 151200, Note_on_c, 15, 49, 100
28, 151680, Note_on_c, 15, 49, 0
28, 151680, Note_on_c, 15, 50, 100
28, 152400, Note_on_c, 15, 50, 0
28, 152400, Note_on_c, 15, 44, 100
28, 153120, Note_on_c, 15, 44, 0
28, 153120, Note_on_c, 15, 45, 100
28, 153360, Note_on_c, 15, 45, 0
28, 153360, Note_on_c, 15, 43, 100
28, 154080, Note_on_c, 15, 43, 0
28, 154080, Note_on_c, 15, 42, 100
28, 154560, Note_on_c, 15, 42, 0
28, 154560, Note_on_c, 15, 43, 100
28, 154800, Note_on_c, 15, 43, 0
28, 154920, Note_on_c, 15, 45, 100
28, 155040, Note_on_c, 15, 45, 0
28, 155040, Note_on_c, 15, 38, 100
28, 155280, Note_on_c, 15, 38, 0
28, 155520, Note_on_c, 15, 42, 100
28, 155580, Note_on_c, 15, 42, 0
28, 155580, Note_on_c, 15, 54, 100
28, 155640, Note_on_c, 15, 54, 0
28, 155640, Note_on_c, 15, 53, 100
28, 155700, Note_on_c, 15, 53, 0
28, 155700, Note_on_c, 15, 49, 100
28, 155760, Note_on_c, 15, 49, 0
28, 155760, Note_on_c, 15, 54, 100
28, 155820, Note_on_c, 15, 54, 0
28, 155820, Note_on_c, 15, 50, 100
28, 155880, Note_on_c, 15, 50, 0
28, 155880, Note_on_c, 15, 47, 100
28, 155940, Note_on_c, 15, 47, 0
28, 155940, Note_on_c, 15, 49, 100
28, 156000, Note_on_c, 15, 49, 0
28, 156000, Note_on_c, 15, 42, 100
28, 156120, Note_on_c, 15, 42, 0
28, 156180, Note_on_c, 15, 54, 100
28, 156240, Note_on_c, 15, 54, 0
28, 156240, Note_on_c, 15, 53, 100
28, 156360, Note_on_c, 15, 53, 0
28, 156420, Note_on_c, 15, 49, 100
28, 156480, Note_on_c, 15, 49, 0
28, 156480, Note_on_c, 15, 42, 100
28, 156540, Note_on_c, 15, 42, 0
28, 156540, Note_on_c, 15, 54, 100
28, 156600, Note_on_c, 15, 54, 0
28, 156600, Note_on_c, 15, 56, 100
28, 156660, Note_on_c, 15, 56, 0
28, 156660, Note_on_c, 15, 57, 100
28, 156720, Note_on_c, 15, 57, 0
28, 156720, Note_on_c, 15, 56, 100
28, 156780, Note_on_c, 15, 56, 0
28, 156780, Note_on_c, 15, 54, 100
28, 156840, Note_on_c, 15, 54, 0
28, 156840, Note_on_c, 15, 56, 100
28, 156900, Note_on_c, 15, 56, 0
28, 156900, Note_on_c, 15, 52, 100
28, 156960, Note_on_c, 15, 52, 0
28, 156960, Note_on_c, 15, 57, 100
28, 157020, Note_on_c, 15, 57, 0
28, 157020, Note_on_c, 15, 59, 100
28, 157080, Note_on_c, 15, 59, 0
28, 157080, Note_on_c, 15, 61, 100
28, 157140, Note_on_c, 15, 61, 0
28, 157140, Note_on_c, 15, 59, 100
28, 157200, Note_on_c, 15, 59, 0
28, 157200, Note_on_c, 15, 58, 100
28, 157260, Note_on_c, 15, 58, 0
28, 157260, Note_on_c, 15, 59, 100
28, 157320, Note_on_c, 15, 59, 0
28, 157320, Note_on_c, 15, 61, 100
28, 157380, Note_on_c, 15, 61, 0
28, 157380, Note_on_c, 15, 58, 100
28, 157440, Note_on_c, 15, 58, 0
28, 157440, Note_on_c, 15, 59, 100
28, 157500, Note_on_c, 15, 59, 0
28, 157500, Note_on_c, 15, 56, 100
28, 157560, Note_on_c, 15, 56, 0
28, 157560, Note_on_c, 15, 53, 100
28, 157620, Note_on_c, 15, 53, 0
28, 157620, Note_on_c, 15, 49, 100
28, 157680, Note_on_c, 15, 49, 0
28, 157680, Note_on_c, 15, 54, 100
28, 157740, Note_on_c, 15, 54, 0
28, 157740, Note_on_c, 15, 57, 100
28, 157800, Note_on_c, 15, 57, 0
28, 157800, Note_on_c, 15, 50, 100
28, 157920, Note_on_c, 15, 50, 0
28, 157920, Note_on_c, 15, 49, 100
28, 157980, Note_on_c, 15, 49, 0
28, 157980, Note_on_c, 15, 51, 100
28, 158040, Note_on_c, 15, 51, 0
28, 158040, Note_on_c, 15, 53, 100
28, 158100, Note_on_c, 15, 53, 0
28, 158100, Note_on_c, 15, 49, 100
28, 158160, Note_on_c, 15, 49, 0
28, 158160, Note_on_c, 15, 54, 100
28, 158280, Note_on_c, 15, 54, 0
28, 158340, Note_on_c, 15, 42, 100
28, 158400, Note_on_c, 15, 42, 0
28, 158400, Note_on_c, 15, 47, 100
28, 158460, Note_on_c, 15, 47, 0
28, 158460, Note_on_c, 15, 49, 100
28, 158520, Note_on_c, 15, 49, 0
28, 158520, Note_on_c, 15, 50, 100
28, 158580, Note_on_c, 15, 50, 0
28, 158580, Note_on_c, 15, 47, 100
28, 158640, Note_on_c, 15, 47, 0
28, 158640, Note_on_c, 15, 53, 100
28, 158760, Note_on_c, 15, 53, 0
28, 158820, Note_on_c, 15, 49, 100
28, 158880, Note_on_c, 15, 49, 0
28, 158880, Note_on_c, 15, 54, 100
28, 158940, Note_on_c, 15, 54, 0
28, 158940, Note_on_c, 15, 56, 100
28, 159000, Note_on_c, 15, 56, 0
28, 159000, Note_on_c, 15, 57, 100
28, 159060, Note_on_c, 15, 57, 0
28, 159060, Note_on_c, 15, 54, 100
28, 159120, Note_on_c, 15, 54, 0
28, 159120, Note_on_c, 15, 56, 100
28, 159240, Note_on_c, 15, 56, 0
28, 159300, Note_on_c, 15, 44, 100
28, 159360, Note_on_c, 15, 44, 0
28, 159360, Note_on_c, 15, 49, 100
28, 159480, Note_on_c, 15, 49, 0
28, 159540, Note_on_c, 15, 53, 100
28, 159600, Note_on_c, 15, 53, 0
28, 159600, Note_on_c, 15, 54, 100
28, 159660, Note_on_c, 15, 54, 0
28, 159660, Note_on_c, 15, 45, 100
28, 159720, Note_on_c, 15, 45, 0
28, 159720, Note_on_c, 15, 47, 100
28, 159780, Note_on_c, 15, 47, 0
28, 159780, Note_on_c, 15, 49, 100
28, 159840, Note_on_c, 15, 49, 0
28, 159840, Note_on_c, 15, 42, 100
28, 159900, Note_on_c, 15, 42, 0
28, 159900, Note_on_c, 15, 54, 100
28, 159960, Note_on_c, 15, 54, 0
28, 159960, Note_on_c, 15, 53, 100
28, 160020, Note_on_c, 15, 53, 0
28, 160020, Note_on_c, 15, 49, 100
28, 160080, Note_on_c, 15, 49, 0
28, 160080, Note_on_c, 15, 54, 100
28, 160140, Note_on_c, 15, 54, 0
28, 160140, Note_on_c, 15, 50, 100
28, 160200, Note_on_c, 15, 50, 0
28, 160200, Note_on_c, 15, 47, 100
28, 160260, Note_on_c, 15, 47, 0
28, 160260, Note_on_c, 15, 49, 100
28, 160320, Note_on_c, 15, 49, 0
28, 160320, Note_on_c, 15, 42, 100
28, 160440, Note_on_c, 15, 42, 0
28, 160500, Note_on_c, 15, 54, 100
28, 160560, Note_on_c, 15, 54, 0
28, 160560, Note_on_c, 15, 53, 100
28, 160680, Note_on_c, 15, 53, 0
28, 160740, Note_on_c, 15, 49, 100
28, 160800, Note_on_c, 15, 49, 0
28, 160800, Note_on_c, 15, 42, 100
28, 160920, Note_on_c, 15, 42, 0
28, 160980, Note_on_c, 15, 54, 100
28, 161040, Note_on_c, 15, 54, 0
28, 161040, Note_on_c, 15, 56, 100
28, 161100, Note_on_c, 15, 56, 0
28, 161100, Note_on_c, 15, 52, 100
28, 161160, Note_on_c, 15, 52, 0
28, 161160, Note_on_c, 15, 54, 100
28, 161220, Note_on_c, 15, 54, 0
28, 161220, Note_on_c, 15, 56, 100
28, 161280, Note_on_c, 15, 56, 0
28, 161280, Note_on_c, 15, 57, 100
28, 161400, Note_on_c, 15, 57, 0
28, 161460, Note_on_c, 15, 57, 90
28, 161519, Note_on_c, 15, 57, 0
28, 161520, Note_on_c, 15, 58, 90
28, 161579, Note_on_c, 15, 58, 0
28, 161580, Note_on_c, 15, 59, 90
28, 161639, Note_on_c, 15, 59, 0
28, 161640, Note_on_c, 15, 61, 90
28, 161699, Note_on_c, 15, 61, 0
28, 161700, Note_on_c, 15, 54, 90
28, 161759, Note_on_c, 15, 54, 0
28, 161760, Note_on_c, 15, 59, 90
28, 161819, Note_on_c, 15, 59, 0
28, 161820, Note_on_c, 15, 56, 90
28, 161879, Note_on_c, 15, 56, 0
28, 161880, Note_on_c, 15, 53, 90
28, 161939, Note_on_c, 15, 53, 0
28, 161940, Note_on_c, 15, 49, 90
28, 161999, Note_on_c, 15, 49, 0
28, 162000, Note_on_c, 15, 54, 90
28, 162059, Note_on_c, 15, 54, 0
28, 162060, Note_on_c, 15, 57, 90
28, 162119, Note_on_c, 15, 57, 0
28, 162120, Note_on_c, 15, 50, 90
28, 162239, Note_on_c, 15, 50, 0
28, 162240, Note_on_c, 15, 49, 90
28, 162299, Note_on_c, 15, 49, 0
28, 162300, Note_on_c, 15, 51, 90
28, 162359, Note_on_c, 15, 51, 0
28, 162360, Note_on_c, 15, 53, 90
28, 162419, Note_on_c, 15, 53, 0
28, 162420, Note_on_c, 15, 49, 90
28, 162479, Note_on_c, 15, 49, 0
28, 162480, Note_on_c, 15, 54, 90
28, 162599, Note_on_c, 15, 54, 0
28, 162660, Note_on_c, 15, 54, 90
28, 162719, Note_on_c, 15, 54, 0
28, 162720, Note_on_c, 15, 47, 90
28, 162779, Note_on_c, 15, 47, 0
28, 162780, Note_on_c, 15, 49, 90
28, 162839, Note_on_c, 15, 49, 0
28, 162840, Note_on_c, 15, 50, 90
28, 162899, Note_on_c, 15, 50, 0
28, 162900, Note_on_c, 15, 47, 90
28, 162959, Note_on_c, 15, 47, 0
28, 162960, Note_on_c, 15, 52, 90
28, 163079, Note_on_c, 15, 52, 0
28, 163140, Note_on_c, 15, 52, 90
28, 163199, Note_on_c, 15, 52, 0
28, 163200, Note_on_c, 15, 45, 90
28, 163259, Note_on_c, 15, 45, 0
28, 163260, Note_on_c, 15, 47, 90
28, 163319, Note_on_c, 15, 47, 0
28, 163320, Note_on_c, 15, 49, 90
28, 163379, Note_on_c, 15, 49, 0
28, 163380, Note_on_c, 15, 37, 90
28, 163439, Note_on_c, 15, 37, 0
28, 163440, Note_on_c, 15, 42, 90
28, 163499, Note_on_c, 15, 42, 0
28, 163500, Note_on_c, 15, 45, 90
28, 163559, Note_on_c, 15, 45, 0
28, 163560, Note_on_c, 15, 47, 90
28, 163619, Note_on_c, 15, 47, 0
28, 163620, Note_on_c, 15, 49, 90
28, 163679, Note_on_c, 15, 49, 0
28, 163680, Note_on_c, 15, 42, 90
28, 163799, Note_on_c, 15, 42, 0
28, 163860, Note_on_c, 15, 54, 90
28, 163979, Note_on_c, 15, 54, 0
28, 163980, Note_on_c, 15, 53, 90
28, 164039, Note_on_c, 15, 53, 0
28, 164100, Note_on_c, 15, 49, 90
28, 164159, Note_on_c, 15, 49, 0
28, 164160, Note_on_c, 15, 54, 90
28, 164219, Note_on_c, 15, 54, 0
28, 164220, Note_on_c, 15, 52, 90
28, 164279, Note_on_c, 15, 52, 0
28, 164280, Note_on_c, 15, 50, 90
28, 164339, Note_on_c, 15, 50, 0
28, 164340, Note_on_c, 15, 47, 90
28, 164399, Note_on_c, 15, 47, 0
28, 164400, Note_on_c, 15, 44, 90
28, 164459, Note_on_c, 15, 44, 0
28, 164460, Note_on_c, 15, 53, 90
28, 164519, Note_on_c, 15, 53, 0
28, 164520, Note_on_c, 15, 49, 90
28, 164579, Note_on_c, 15, 49, 0
28, 164580, Note_on_c, 15, 53, 90
28, 164639, Note_on_c, 15, 53, 0
28, 164640, Note_on_c, 15, 54, 90
28, 164699, Note_on_c, 15, 54, 0
28, 164700, Note_on_c, 15, 52, 90
28, 164759, Note_on_c, 15, 52, 0
28, 164760, Note_on_c, 15, 51, 90
28, 164819, Note_on_c, 15, 51, 0
28, 164820, Note_on_c, 15, 49, 90
28, 164879, Note_on_c, 15, 49, 0
28, 164880, Note_on_c, 15, 48, 90
28, 164939, Note_on_c, 15, 48, 0
28, 164940, Note_on_c, 15, 44, 90
28, 164999, Note_on_c, 15, 44, 0
28, 165000, Note_on_c, 15, 46, 90
28, 165059, Note_on_c, 15, 46, 0
28, 165060, Note_on_c, 15, 48, 90
28, 165119, Note_on_c, 15, 48, 0
28, 165120, Note_on_c, 15, 49, 90
28, 165239, Note_on_c, 15, 49, 0
28, 165300, Note_on_c, 15, 47, 90
28, 165329, Note_on_c, 15, 47, 0
28, 165330, Note_on_c, 15, 45, 90
28, 165359, Note_on_c, 15, 45, 0
28, 165360, Note_on_c, 15, 44, 90
28, 165389, Note_on_c, 15, 44, 0
28, 165390, Note_on_c, 15, 42, 90
28, 165419, Note_on_c, 15, 42, 0
28, 165420, Note_on_c, 15, 41, 90
28, 165449, Note_on_c, 15, 41, 0
28, 165450, Note_on_c, 15, 42, 90
28, 165479, Note_on_c, 15, 42, 0
28, 165480, Note_on_c, 15, 37, 90
28, 165539, Note_on_c, 15, 37, 0
28, 165540, Note_on_c, 15, 49, 90
28, 165599, Note_on_c, 15, 49, 0
28, 165600, Note_on_c, 15, 54, 90
28, 165659, Note_on_c, 15, 54, 0
28, 165660, Note_on_c, 15, 51, 90
28, 165719, Note_on_c, 15, 51, 0
28, 165720, Note_on_c, 15, 48, 90
28, 165779, Note_on_c, 15, 48, 0
28, 165780, Note_on_c, 15, 44, 90
28, 165839, Note_on_c, 15, 44, 0
28, 165840, Note_on_c, 15, 49, 90
28, 165899, Note_on_c, 15, 49, 0
28, 165900, Note_on_c, 15, 53, 90
28, 165959, Note_on_c, 15, 53, 0
28, 165960, Note_on_c, 15, 45, 90
28, 166079, Note_on_c, 15, 45, 0
28, 166080, Note_on_c, 15, 44, 90
28, 166139, Note_on_c, 15, 44, 0
28, 166140, Note_on_c, 15, 46, 90
28, 166199, Note_on_c, 15, 46, 0
28, 166200, Note_on_c, 15, 48, 90
28, 166259, Note_on_c, 15, 48, 0
28, 166260, Note_on_c, 15, 44, 90
28, 166319, Note_on_c, 15, 44, 0
28, 166320, Note_on_c, 15, 49, 90
28, 166379, Note_on_c, 15, 49, 0
28, 166380, Note_on_c, 15, 51, 90
28, 166439, Note_on_c, 15, 51, 0
28, 166440, Note_on_c, 15, 52, 90
28, 166499, Note_on_c, 15, 52, 0
28, 166500, Note_on_c, 15, 49, 90
28, 166559, Note_on_c, 15, 49, 0
28, 166560, Note_on_c, 15, 51, 90
28, 166589, Note_on_c, 15, 51, 0
28, 166590, Note_on_c, 15, 59, 90
28, 166619, Note_on_c, 15, 59, 0
28, 166620, Note_on_c, 15, 57, 90
28, 166649, Note_on_c, 15, 57, 0
28, 166650, Note_on_c, 15, 52, 90
28, 166679, Note_on_c, 15, 52, 0
28, 166680, Note_on_c, 15, 51, 90
28, 166709, Note_on_c, 15, 51, 0
28, 166710, Note_on_c, 15, 59, 90
28, 166739, Note_on_c, 15, 59, 0
28, 166740, Note_on_c, 15, 57, 90
28, 166769, Note_on_c, 15, 57, 0
28, 166770, Note_on_c, 15, 52, 90
28, 166799, Note_on_c, 15, 52, 0
28, 166800, Note_on_c, 15, 51, 90
28, 166859, Note_on_c, 15, 51, 0
28, 166860, Note_on_c, 15, 47, 90
28, 166919, Note_on_c, 15, 47, 0
28, 166920, Note_on_c, 15, 49, 90
28, 166979, Note_on_c, 15, 49, 0
28, 166980, Note_on_c, 15, 51, 90
28, 167039, Note_on_c, 15, 51, 0
28, 167040, Note_on_c, 15, 52, 90
28, 167069, Note_on_c, 15, 52, 0
28, 167070, Note_on_c, 15, 61, 90
28, 167099, Note_on_c, 15, 61, 0
28, 167100, Note_on_c, 15, 59, 90
28, 167129, Note_on_c, 15, 59, 0
28, 167130, Note_on_c, 15, 51, 90
28, 167159, Note_on_c, 15, 51, 0
28, 167160, Note_on_c, 15, 52, 90
28, 167189, Note_on_c, 15, 52, 0
28, 167190, Note_on_c, 15, 61, 90
28, 167219, Note_on_c, 15, 61, 0
28, 167220, Note_on_c, 15, 59, 90
28, 167249, Note_on_c, 15, 59, 0
28, 167250, Note_on_c, 15, 54, 90
28, 167279, Note_on_c, 15, 54, 0
28, 167280, Note_on_c, 15, 53, 90
28, 167339, Note_on_c, 15, 53, 0
28, 167340, Note_on_c, 15, 49, 90
28, 167399, Note_on_c, 15, 49, 0
28, 167400, Note_on_c, 15, 51, 90
28, 167459, Note_on_c, 15, 51, 0
28, 167460, Note_on_c, 15, 53, 90
28, 167519, Note_on_c, 15, 53, 0
28, 167520, Note_on_c, 15, 42, 90
28, 167549, Note_on_c, 15, 42, 0
28, 167550, Note_on_c, 15, 54, 90
28, 167579, Note_on_c, 15, 54, 0
28, 167580, Note_on_c, 15, 52, 90
28, 167609, Note_on_c, 15, 52, 0
28, 167610, Note_on_c, 15, 42, 90
28, 167639, Note_on_c, 15, 42, 0
28, 167640, Note_on_c, 15, 43, 90
28, 167669, Note_on_c, 15, 43, 0
28, 167670, Note_on_c, 15, 54, 90
28, 167699, Note_on_c, 15, 54, 0
28, 167700, Note_on_c, 15, 52, 90
28, 167729, Note_on_c, 15, 52, 0
28, 167730, Note_on_c, 15, 43, 90
28, 167759, Note_on_c, 15, 43, 0
28, 167760, Note_on_c, 15, 42, 90
28, 167819, Note_on_c, 15, 42, 0
28, 167820, Note_on_c, 15, 52, 90
28, 167879, Note_on_c, 15, 52, 0
28, 167880, Note_on_c, 15, 50, 90
28, 167939, Note_on_c, 15, 50, 0
28, 167940, Note_on_c, 15, 49, 90
28, 167999, Note_on_c, 15, 49, 0
28, 168000, Note_on_c, 15, 47, 90
28, 168059, Note_on_c, 15, 47, 0
28, 168060, Note_on_c, 15, 54, 90
28, 168119, Note_on_c, 15, 54, 0
28, 168120, Note_on_c, 15, 59, 90
28, 168179, Note_on_c, 15, 59, 0
28, 168180, Note_on_c, 15, 57, 90
28, 168239, Note_on_c, 15, 57, 0
28, 168240, Note_on_c, 15, 55, 90
28, 168299, Note_on_c, 15, 55, 0
28, 168300, Note_on_c, 15, 54, 90
28, 168359, Note_on_c, 15, 54, 0
28, 168360, Note_on_c, 15, 52, 90
28, 168419, Note_on_c, 15, 52, 0
28, 168420, Note_on_c, 15, 54, 90
28, 168449, Note_on_c, 15, 54, 0
28, 168450, Note_on_c, 15, 55, 90
28, 168479, Note_on_c, 15, 55, 0
28, 168480, Note_on_c, 15, 57, 90
28, 168539, Note_on_c, 15, 57, 0
28, 168540, Note_on_c, 15, 45, 90
28, 168599, Note_on_c, 15, 45, 0
28, 168600, Note_on_c, 15, 57, 90
28, 168659, Note_on_c, 15, 57, 0
28, 168660, Note_on_c, 15, 55, 90
28, 168719, Note_on_c, 15, 55, 0
28, 168720, Note_on_c, 15, 54, 90
28, 168779, Note_on_c, 15, 54, 0
28, 168780, Note_on_c, 15, 52, 90
28, 168839, Note_on_c, 15, 52, 0
28, 168840, Note_on_c, 15, 50, 90
28, 168899, Note_on_c, 15, 50, 0
28, 168900, Note_on_c, 15, 52, 90
28, 168929, Note_on_c, 15, 52, 0
28, 168930, Note_on_c, 15, 54, 90
28, 168959, Note_on_c, 15, 54, 0
28, 168960, Note_on_c, 15, 55, 90
28, 169019, Note_on_c, 15, 55, 0
28, 169020, Note_on_c, 15, 43, 90
28, 169079, Note_on_c, 15, 43, 0
28, 169140, Note_on_c, 15, 57, 90
28, 169199, Note_on_c, 15, 57, 0
28, 169200, Note_on_c, 15, 54, 90
28, 169319, Note_on_c, 15, 54, 0
28, 169380, Note_on_c, 15, 59, 90
28, 169439, Note_on_c, 15, 59, 0
28, 169440, Note_on_c, 15, 52, 90
28, 169499, Note_on_c, 15, 52, 0
28, 169500, Note_on_c, 15, 50, 90
28, 169559, Note_on_c, 15, 50, 0
28, 169560, Note_on_c, 15, 49, 90
28, 169619, Note_on_c, 15, 49, 0
28, 169620, Note_on_c, 15, 52, 90
28, 169679, Note_on_c, 15, 52, 0
28, 169680, Note_on_c, 15, 46, 90
28, 169739, Note_on_c, 15, 46, 0
28, 169740, Note_on_c, 15, 47, 90
28, 169799, Note_on_c, 15, 47, 0
28, 169800, Note_on_c, 15, 54, 90
28, 169859, Note_on_c, 15, 54, 0
28, 169860, Note_on_c, 15, 42, 90
28, 169919, Note_on_c, 15, 42, 0
28, 169920, Note_on_c, 15, 47, 90
28, 170039, Note_on_c, 15, 47, 0
28, 170100, Note_on_c, 15, 59, 90
28, 170159, Note_on_c, 15, 59, 0
28, 170160, Note_on_c, 15, 58, 90
28, 170279, Note_on_c, 15, 58, 0
28, 170340, Note_on_c, 15, 54, 90
28, 170399, Note_on_c, 15, 54, 0
28, 170400, Note_on_c, 15, 59, 90
28, 170459, Note_on_c, 15, 59, 0
28, 170460, Note_on_c, 15, 47, 90
28, 170519, Note_on_c, 15, 47, 0
28, 170520, Note_on_c, 15, 49, 90
28, 170579, Note_on_c, 15, 49, 0
28, 170580, Note_on_c, 15, 50, 90
28, 170639, Note_on_c, 15, 50, 0
28, 170640, Note_on_c, 15, 49, 90
28, 170699, Note_on_c, 15, 49, 0
28, 170700, Note_on_c, 15, 47, 90
28, 170759, Note_on_c, 15, 47, 0
28, 170760, Note_on_c, 15, 49, 90
28, 170819, Note_on_c, 15, 49, 0
28, 170820, Note_on_c, 15, 45, 90
28, 170879, Note_on_c, 15, 45, 0
28, 170880, Note_on_c, 15, 50, 90
28, 170939, Note_on_c, 15, 50, 0
28, 170940, Note_on_c, 15, 49, 90
28, 170999, Note_on_c, 15, 49, 0
28, 171000, Note_on_c, 15, 50, 90
28, 171059, Note_on_c, 15, 50, 0
28, 171060, Note_on_c, 15, 47, 90
28, 171119, Note_on_c, 15, 47, 0
28, 171120, Note_on_c, 15, 52, 90
28, 171179, Note_on_c, 15, 52, 0
28, 171180, Note_on_c, 15, 50, 90
28, 171239, Note_on_c, 15, 50, 0
28, 171240, Note_on_c, 15, 49, 90
28, 171299, Note_on_c, 15, 49, 0
28, 171300, Note_on_c, 15, 47, 90
28, 171359, Note_on_c, 15, 47, 0
28, 171360, Note_on_c, 15, 45, 90
28, 171419, Note_on_c, 15, 45, 0
28, 171420, Note_on_c, 15, 47, 90
28, 171479, Note_on_c, 15, 47, 0
28, 171480, Note_on_c, 15, 49, 90
28, 171539, Note_on_c, 15, 49, 0
28, 171540, Note_on_c, 15, 45, 90
28, 171599, Note_on_c, 15, 45, 0
28, 171600, Note_on_c, 15, 50, 90
28, 171659, Note_on_c, 15, 50, 0
28, 171660, Note_on_c, 15, 49, 90
28, 171719, Note_on_c, 15, 49, 0
28, 171720, Note_on_c, 15, 47, 90
28, 171779, Note_on_c, 15, 47, 0
28, 171780, Note_on_c, 15, 45, 90
28, 171839, Note_on_c, 15, 45, 0
28, 171840, Note_on_c, 15, 44, 90
28, 171899, Note_on_c, 15, 44, 0
28, 171900, Note_on_c, 15, 45, 90
28, 171959, Note_on_c, 15, 45, 0
28, 171960, Note_on_c, 15, 47, 90
28, 172019, Note_on_c, 15, 47, 0
28, 172020, Note_on_c, 15, 44, 90
28, 172079, Note_on_c, 15, 44, 0
28, 172080, Note_on_c, 15, 49, 90
28, 172139, Note_on_c, 15, 49, 0
28, 172140, Note_on_c, 15, 47, 90
28, 172199, Note_on_c, 15, 47, 0
28, 172200, Note_on_c, 15, 45, 90
28, 172259, Note_on_c, 15, 45, 0
28, 172260, Note_on_c, 15, 44, 90
28, 172319, Note_on_c, 15, 44, 0
28, 172320, Note_on_c, 15, 42, 90
28, 172439, Note_on_c, 15, 42, 0
28, 172680, Note_on_c, 15, 54, 90
28, 172739, Note_on_c, 15, 54, 0
28, 172740, Note_on_c, 15, 46, 90
28, 172799, Note_on_c, 15, 46, 0
28, 172800, Note_on_c, 15, 47, 90
28, 172859, Note_on_c, 15, 47, 0
28, 172860, Note_on_c, 15, 54, 90
28, 172919, Note_on_c, 15, 54, 0
28, 172920, Note_on_c, 15, 59, 90
28, 172979, Note_on_c, 15, 59, 0
28, 173160, Note_on_c, 15, 52, 90
28, 173219, Note_on_c, 15, 52, 0
28, 173220, Note_on_c, 15, 44, 90
28, 173279, Note_on_c, 15, 44, 0
28, 173280, Note_on_c, 15, 45, 90
28, 173339, Note_on_c, 15, 45, 0
28, 173340, Note_on_c, 15, 52, 90
28, 173399, Note_on_c, 15, 52, 0
28, 173400, Note_on_c, 15, 57, 90
28, 173459, Note_on_c, 15, 57, 0
28, 173640, Note_on_c, 15, 50, 90
28, 173699, Note_on_c, 15, 50, 0
28, 173700, Note_on_c, 15, 42, 90
28, 173759, Note_on_c, 15, 42, 0
28, 173760, Note_on_c, 15, 44, 90
28, 173879, Note_on_c, 15, 44, 0
28, 173940, Note_on_c, 15, 45, 90
28, 173999, Note_on_c, 15, 45, 0
28, 174000, Note_on_c, 15, 47, 90
28, 174059, Note_on_c, 15, 47, 0
28, 174060, Note_on_c, 15, 48, 90
28, 174119, Note_on_c, 15, 48, 0
28, 174120, Note_on_c, 15, 49, 90
28, 174179, Note_on_c, 15, 49, 0
28, 174180, Note_on_c, 15, 41, 90
28, 174239, Note_on_c, 15, 41, 0
28, 174240, Note_on_c, 15, 42, 90
28, 174299, Note_on_c, 15, 42, 0
28, 174300, Note_on_c, 15, 44, 90
28, 174359, Note_on_c, 15, 44, 0
28, 174360, Note_on_c, 15, 45, 90
28, 174419, Note_on_c, 15, 45, 0
28, 174420, Note_on_c, 15, 42, 90
28, 174479, Note_on_c, 15, 42, 0
28, 174480, Note_on_c, 15, 44, 90
28, 174599, Note_on_c, 15, 44, 0
28, 174660, Note_on_c, 15, 56, 90
28, 174719, Note_on_c, 15, 56, 0
28, 174720, Note_on_c, 15, 49, 90
28, 174839, Note_on_c, 15, 49, 0
28, 174900, Note_on_c, 15, 45, 90
28, 174959, Note_on_c, 15, 45, 0
28, 174960, Note_on_c, 15, 50, 90
28, 175019, Note_on_c, 15, 50, 0
28, 175020, Note_on_c, 15, 47, 90
28, 175079, Note_on_c, 15, 47, 0
28, 175080, Note_on_c, 15, 49, 90
28, 175139, Note_on_c, 15, 49, 0
28, 175140, Note_on_c, 15, 37, 90
28, 175199, Note_on_c, 15, 37, 0
28, 175200, Note_on_c, 15, 42, 90
28, 175259, Note_on_c, 15, 42, 0
28, 175260, Note_on_c, 15, 54, 90
28, 175319, Note_on_c, 15, 54, 0
28, 175320, Note_on_c, 15, 53, 90
28, 175379, Note_on_c, 15, 53, 0
28, 175380, Note_on_c, 15, 49, 90
28, 175439, Note_on_c, 15, 49, 0
28, 175440, Note_on_c, 15, 54, 90
28, 175499, Note_on_c, 15, 54, 0
28, 175500, Note_on_c, 15, 50, 90
28, 175559, Note_on_c, 15, 50, 0
28, 175560, Note_on_c, 15, 47, 90
28, 175619, Note_on_c, 15, 47, 0
28, 175620, Note_on_c, 15, 49, 90
28, 175679, Note_on_c, 15, 49, 0
28, 175680, Note_on_c, 15, 42, 90
28, 175799, Note_on_c, 15, 42, 0
28, 175860, Note_on_c, 15, 54, 90
28, 175919, Note_on_c, 15, 54, 0
28, 175920, Note_on_c, 15, 53, 90
28, 176039, Note_on_c, 15, 53, 0
28, 176100, Note_on_c, 15, 49, 90
28, 176159, Note_on_c, 15, 49, 0
28, 176160, Note_on_c, 15, 42, 90
28, 176219, Note_on_c, 15, 42, 0
28, 176220, Note_on_c, 15, 54, 90
28, 176279, Note_on_c, 15, 54, 0
28, 176280, Note_on_c, 15, 56, 90
28, 176339, Note_on_c, 15, 56, 0
28, 176340, Note_on_c, 15, 57, 90
28, 176399, Note_on_c, 15, 57, 0
28, 176400, Note_on_c, 15, 56, 90
28, 176459, Note_on_c, 15, 56, 0
28, 176460, Note_on_c, 15, 54, 90
28, 176519, Note_on_c, 15, 54, 0
28, 176520, Note_on_c, 15, 56, 90
28, 176579, Note_on_c, 15, 56, 0
28, 176580, Note_on_c, 15, 52, 90
28, 176639, Note_on_c, 15, 52, 0
28, 176640, Note_on_c, 15, 57, 90
28, 176699, Note_on_c, 15, 57, 0
28, 176700, Note_on_c, 15, 59, 90
28, 176759, Note_on_c, 15, 59, 0
28, 176760, Note_on_c, 15, 61, 90
28, 176819, Note_on_c, 15, 61, 0
28, 176820, Note_on_c, 15, 59, 90
28, 176879, Note_on_c, 15, 59, 0
28, 176880, Note_on_c, 15, 58, 90
28, 176939, Note_on_c, 15, 58, 0
28, 176940, Note_on_c, 15, 59, 90
28, 176999, Note_on_c, 15, 59, 0
28, 177000, Note_on_c, 15, 61, 90
28, 177059, Note_on_c, 15, 61, 0
28, 177060, Note_on_c, 15, 58, 90
28, 177119, Note_on_c, 15, 58, 0
28, 177120, Note_on_c, 15, 59, 90
28, 177179, Note_on_c, 15, 59, 0
28, 177180, Note_on_c, 15, 56, 90
28, 177239, Note_on_c, 15, 56, 0
28, 177240, Note_on_c, 15, 53, 90
28, 177299, Note_on_c, 15, 53, 0
28, 177300, Note_on_c, 15, 49, 90
28, 177359, Note_on_c, 15, 49, 0
28, 177360, Note_on_c, 15, 54, 90
28, 177419, Note_on_c, 15, 54, 0
28, 177420, Note_on_c, 15, 57, 90
28, 177479, Note_on_c, 15, 57, 0
28, 177480, Note_on_c, 15, 50, 90
28, 177599, Note_on_c, 15, 50, 0
28, 177600, Note_on_c, 15, 49, 90
28, 177659, Note_on_c, 15, 49, 0
28, 177660, Note_on_c, 15, 51, 90
28, 177719, Note_on_c, 15, 51, 0
28, 177720, Note_on_c, 15, 53, 90
28, 177779, Note_on_c, 15, 53, 0
28, 177780, Note_on_c, 15, 49, 90
28, 177839, Note_on_c, 15, 49, 0
28, 177840, Note_on_c, 15, 54, 90
28, 177959, Note_on_c, 15, 54, 0
28, 178020, Note_on_c, 15, 42, 90
28, 178079, Note_on_c, 15, 42, 0
28, 178080, Note_on_c, 15, 47, 90
28, 178139, Note_on_c, 15, 47, 0
28, 178140, Note_on_c, 15, 49, 90
28, 178199, Note_on_c, 15, 49, 0
28, 178200, Note_on_c, 15, 50, 90
28, 178259, Note_on_c, 15, 50, 0
28, 178260, Note_on_c, 15, 47, 90
28, 178319, Note_on_c, 15, 47, 0
28, 178320, Note_on_c, 15, 53, 90
28, 178439, Note_on_c, 15, 53, 0
28, 178500, Note_on_c, 15, 49, 90
28, 178559, Note_on_c, 15, 49, 0
28, 178560, Note_on_c, 15, 54, 90
28, 178619, Note_on_c, 15, 54, 0
28, 178620, Note_on_c, 15, 56, 90
28, 178679, Note_on_c, 15, 56, 0
28, 178680, Note_on_c, 15, 57, 90
28, 178739, Note_on_c, 15, 57, 0
28, 178740, Note_on_c, 15, 54, 90
28, 178799, Note_on_c, 15, 54, 0
28, 178800, Note_on_c, 15, 56, 90
28, 178919, Note_on_c, 15, 56, 0
28, 178980, Note_on_c, 15, 44, 90
28, 179039, Note_on_c, 15, 44, 0
28, 179040, Note_on_c, 15, 49, 90
28, 179159, Note_on_c, 15, 49, 0
28, 179220, Note_on_c, 15, 53, 90
28, 179279, Note_on_c, 15, 53, 0
28, 179280, Note_on_c, 15, 54, 90
28, 179339, Note_on_c, 15, 54, 0
28, 179340, Note_on_c, 15, 45, 90
28, 179399, Note_on_c, 15, 45, 0
28, 179400, Note_on_c, 15, 47, 90
28, 179459, Note_on_c, 15, 47, 0
28, 179460, Note_on_c, 15, 49, 90
28, 179519, Note_on_c, 15, 49, 0
28, 179520, Note_on_c, 15, 42, 90
28, 179639, Note_on_c, 15, 42, 0
28, 180000, Note_on_c, 15, 51, 100
28, 180480, Note_on_c, 15, 51, 0
28, 180480, Note_on_c, 15, 48, 100
28, 180720, Note_on_c, 15, 48, 0
28, 180720, Note_on_c, 15, 47, 100
28, 180960, Note_on_c, 15, 47, 0
28, 180960, Note_on_c, 15, 45, 100
28, 181200, Note_on_c, 15, 45, 0
28, 181200, Note_on_c, 15, 50, 100
28, 181440, Note_on_c, 15, 50, 0
28, 181440, Note_on_c, 15, 49, 100
28, 181680, Note_on_c, 15, 49, 0
28, 181680, Note_on_c, 15, 46, 100
28, 182400, Note_on_c, 15, 46, 0
28, 182400, Note_on_c, 15, 47, 100
28, 183600, Note_on_c, 15, 47, 0
28, 183600, Note_on_c, 15, 41, 100
28, 183840, Note_on_c, 15, 41, 0
28, 183840, Note_on_c, 15, 42, 100
28, 184080, Note_on_c, 15, 42, 0
28, 184080, Note_on_c, 15, 45, 100
28, 184320, Note_on_c, 15, 45, 0
28, 184320, Note_on_c, 15, 44, 100
28, 184560, Note_on_c, 15, 44, 0
28, 184560, Note_on_c, 15, 45, 100
28, 184800, Note_on_c, 15, 45, 0
28, 184920, Note_on_c, 15, 47, 100
28, 185040, Note_on_c, 15, 47, 0
28, 185040, Note_on_c, 15, 40, 100
28, 185280, Note_on_c, 15, 40, 0
28, 185520, Note_on_c, 15, 40, 90
28, 185579, Note_on_c, 15, 40, 0
28, 185580, Note_on_c, 15, 44, 90
28, 185639, Note_on_c, 15, 44, 0
28, 185640, Note_on_c, 15, 47, 90
28, 185699, Note_on_c, 15, 47, 0
28, 185700, Note_on_c, 15, 52, 90
28, 185939, Note_on_c, 15, 52, 0
28, 185940, Note_on_c, 15, 51, 90
28, 185999, Note_on_c, 15, 51, 0
28, 186000, Note_on_c, 15, 49, 90
28, 186059, Note_on_c, 15, 49, 0
28, 186060, Note_on_c, 15, 47, 90
28, 186179, Note_on_c, 15, 47, 0
28, 186180, Note_on_c, 15, 45, 90
28, 186239, Note_on_c, 15, 45, 0
28, 186240, Note_on_c, 15, 47, 90
28, 186299, Note_on_c, 15, 47, 0
28, 186300, Note_on_c, 15, 49, 90
28, 186359, Note_on_c, 15, 49, 0
28, 186360, Note_on_c, 15, 51, 90
28, 186419, Note_on_c, 15, 51, 0
28, 186420, Note_on_c, 15, 52, 90
28, 186479, Note_on_c, 15, 52, 0
28, 186480, Note_on_c, 15, 56, 90
28, 186539, Note_on_c, 15, 56, 0
28, 186540, Note_on_c, 15, 52, 90
28, 186599, Note_on_c, 15, 52, 0
28, 186600, Note_on_c, 15, 57, 90
28, 186839, Note_on_c, 15, 57, 0
28, 186840, Note_on_c, 15, 54, 90
28, 186899, Note_on_c, 15, 54, 0
28, 186900, Note_on_c, 15, 51, 90
28, 186959, Note_on_c, 15, 51, 0
28, 186960, Note_on_c, 15, 56, 90
28, 187199, Note_on_c, 15, 56, 0
28, 187200, Note_on_c, 15, 52, 90
28, 187259, Note_on_c, 15, 52, 0
28, 187260, Note_on_c, 15, 49, 90
28, 187319, Note_on_c, 15, 49, 0
28, 187320, Note_on_c, 15, 54, 90
28, 187559, Note_on_c, 15, 54, 0
28, 187560, Note_on_c, 15, 51, 90
28, 187619, Note_on_c, 15, 51, 0
28, 187620, Note_on_c, 15, 47, 90
28, 187679, Note_on_c, 15, 47, 0
28, 187680, Note_on_c, 15, 52, 90
28, 187919, Note_on_c, 15, 52, 0
28, 187920, Note_on_c, 15, 40, 90
28, 187979, Note_on_c, 15, 40, 0
28, 187980, Note_on_c, 15, 44, 90
28, 188039, Note_on_c, 15, 44, 0
28, 188040, Note_on_c, 15, 45, 90
28, 188279, Note_on_c, 15, 45, 0
28, 188280, Note_on_c, 15, 49, 90
28, 188339, Note_on_c, 15, 49, 0
28, 188340, Note_on_c, 15, 42, 90
28, 188399, Note_on_c, 15, 42, 0
28, 188400, Note_on_c, 15, 47, 90
28, 188639, Note_on_c, 15, 47, 0
28, 188640, Note_on_c, 15, 51, 90
28, 188699, Note_on_c, 15, 51, 0
28, 188700, Note_on_c, 15, 54, 90
28, 188759, Note_on_c, 15, 54, 0
28, 188760, Note_on_c, 15, 47, 90
28, 188999, Note_on_c, 15, 47, 0
28, 189000, Note_on_c, 15, 52, 90
28, 189059, Note_on_c, 15, 52, 0
28, 189060, Note_on_c, 15, 56, 90
28, 189119, Note_on_c, 15, 56, 0
28, 189120, Note_on_c, 15, 47, 90
28, 189359, Note_on_c, 15, 47, 0
28, 189360, Note_on_c, 15, 54, 90
28, 189419, Note_on_c, 15, 54, 0
28, 189420, Note_on_c, 15, 59, 90
28, 189479, Note_on_c, 15, 59, 0
28, 189480, Note_on_c, 15, 52, 90
28, 189539, Note_on_c, 15, 52, 0
28, 189540, Note_on_c, 15, 56, 90
28, 189599, Note_on_c, 15, 56, 0
28, 189600, Note_on_c, 15, 57, 90
28, 189659, Note_on_c, 15, 57, 0
28, 189660, Note_on_c, 15, 59, 90
28, 189779, Note_on_c, 15, 59, 0
28, 189780, Note_on_c, 15, 47, 90
28, 189839, Note_on_c, 15, 47, 0
28, 189840, Note_on_c, 15, 40, 90
28, 189899, Note_on_c, 15, 40, 0
28, 189900, Note_on_c, 15, 44, 90
28, 189959, Note_on_c, 15, 44, 0
28, 189960, Note_on_c, 15, 47, 90
28, 190019, Note_on_c, 15, 47, 0
28, 190020, Note_on_c, 15, 52, 90
28, 190139, Note_on_c, 15, 52, 0
28, 190140, Note_on_c, 15, 54, 90
28, 190199, Note_on_c, 15, 54, 0
28, 190200, Note_on_c, 15, 56, 90
28, 190259, Note_on_c, 15, 56, 0
28, 190260, Note_on_c, 15, 52, 90
28, 190289, Note_on_c, 15, 52, 0
28, 190290, Note_on_c, 15, 51, 90
28, 190319, Note_on_c, 15, 51, 0
28, 190320, Note_on_c, 15, 52, 90
28, 190349, Note_on_c, 15, 52, 0
28, 190350, Note_on_c, 15, 56, 90
28, 190379, Note_on_c, 15, 56, 0
28, 190380, Note_on_c, 15, 57, 90
28, 190439, Note_on_c, 15, 57, 0
28, 190440, Note_on_c, 15, 56, 90
28, 190499, Note_on_c, 15, 56, 0
28, 190500, Note_on_c, 15, 54, 90
28, 190559, Note_on_c, 15, 54, 0
28, 190560, Note_on_c, 15, 52, 90
28, 190619, Note_on_c, 15, 52, 0
28, 190620, Note_on_c, 15, 47, 90
28, 190679, Note_on_c, 15, 47, 0
28, 190680, Note_on_c, 15, 44, 90
28, 190739, Note_on_c, 15, 44, 0
28, 190740, Note_on_c, 15, 40, 90
28, 191040, Note_on_c, 15, 40, 0
28, 191040, Note_on_c, 15, 51, 90
28, 191099, Note_on_c, 15, 51, 0
28, 191100, Note_on_c, 15, 52, 90
28, 191219, Note_on_c, 15, 52, 0
28, 191220, Note_on_c, 15, 45, 90
28, 191279, Note_on_c, 15, 45, 0
28, 191280, Note_on_c, 15, 47, 90
28, 191339, Note_on_c, 15, 47, 0
28, 191340, Note_on_c, 15, 51, 90
28, 191399, Note_on_c, 15, 51, 0
28, 191400, Note_on_c, 15, 54, 90
28, 191459, Note_on_c, 15, 54, 0
28, 191460, Note_on_c, 15, 59, 90
28, 191519, Note_on_c, 15, 59, 0
28, 191520, Note_on_c, 15, 54, 90
28, 191579, Note_on_c, 15, 54, 0
28, 191580, Note_on_c, 15, 51, 90
28, 191639, Note_on_c, 15, 51, 0
28, 191640, Note_on_c, 15, 47, 90
28, 191879, Note_on_c, 15, 47, 0
28, 191880, Note_on_c, 15, 52, 90
28, 191939, Note_on_c, 15, 52, 0
28, 191940, Note_on_c, 15, 56, 90
28, 191999, Note_on_c, 15, 56, 0
28, 192000, Note_on_c, 15, 47, 90
28, 192239, Note_on_c, 15, 47, 0
28, 192240, Note_on_c, 15, 54, 90
28, 192299, Note_on_c, 15, 54, 0
28, 192300, Note_on_c, 15, 59, 90
28, 192359, Note_on_c, 15, 59, 0
28, 192360, Note_on_c, 15, 52, 90
28, 192419, Note_on_c, 15, 52, 0
28, 192420, Note_on_c, 15, 56, 90
28, 192479, Note_on_c, 15, 56, 0
28, 192480, Note_on_c, 15, 57, 90
28, 192539, Note_on_c, 15, 57, 0
28, 192540, Note_on_c, 15, 59, 90
28, 192659, Note_on_c, 15, 59, 0
28, 192660, Note_on_c, 15, 47, 90
28, 192719, Note_on_c, 15, 47, 0
28, 192720, Note_on_c, 15, 52, 90
28, 192779, Note_on_c, 15, 52, 0
28, 192780, Note_on_c, 15, 47, 90
28, 192839, Note_on_c, 15, 47, 0
28, 192840, Note_on_c, 15, 44, 90
28, 192899, Note_on_c, 15, 44, 0
28, 192900, Note_on_c, 15, 40, 100
28, 193500, Note_on_c, 15, 40, 0
28, 193500, Note_on_c, 15, 44, 90
28, 193559, Note_on_c, 15, 44, 0
28, 193560, Note_on_c, 15, 47, 90
28, 193619, Note_on_c, 15, 47, 0
28, 193620, Note_on_c, 15, 52, 90
28, 193679, Note_on_c, 15, 52, 0
28, 193680, Note_on_c, 15, 56, 90
28, 193739, Note_on_c, 15, 56, 0
28, 193740, Note_on_c, 15, 54, 90
28, 193799, Note_on_c, 15, 54, 0
28, 193800, Note_on_c, 15, 52, 90
28, 193919, Note_on_c, 15, 52, 0
28, 193920, Note_on_c, 15, 51, 90
28, 193979, Note_on_c, 15, 51, 0
28, 193980, Note_on_c, 15, 52, 90
28, 194099, Note_on_c, 15, 52, 0
28, 194100, Note_on_c, 15, 45, 90
28, 194159, Note_on_c, 15, 45, 0
28, 194160, Note_on_c, 15, 47, 90
28, 194219, Note_on_c, 15, 47, 0
28, 194220, Note_on_c, 15, 51, 90
28, 194279, Note_on_c, 15, 51, 0
28, 194280, Note_on_c, 15, 54, 90
28, 194339, Note_on_c, 15, 54, 0
28, 194340, Note_on_c, 15, 59, 90
28, 194459, Note_on_c, 15, 59, 0
28, 194460, Note_on_c, 15, 57, 90
28, 194519, Note_on_c, 15, 57, 0
28, 194520, Note_on_c, 15, 56, 90
28, 194639, Note_on_c, 15, 56, 0
28, 194640, Note_on_c, 15, 54, 90
28, 194699, Note_on_c, 15, 54, 0
28, 194700, Note_on_c, 15, 53, 90
28, 194819, Note_on_c, 15, 53, 0
28, 194820, Note_on_c, 15, 49, 90
28, 194879, Note_on_c, 15, 49, 0
28, 194880, Note_on_c, 15, 54, 90
28, 194999, Note_on_c, 15, 54, 0
28, 195000, Note_on_c, 15, 56, 90
28, 195059, Note_on_c, 15, 56, 0
28, 195060, Note_on_c, 15, 57, 90
28, 195179, Note_on_c, 15, 57, 0
28, 195180, Note_on_c, 15, 54, 90
28, 195239, Note_on_c, 15, 54, 0
28, 195240, Note_on_c, 15, 47, 90
28, 195299, Note_on_c, 15, 47, 0
28, 195300, Note_on_c, 15, 48, 90
28, 195359, Note_on_c, 15, 48, 0
28, 195360, Note_on_c, 15, 48, 90
28, 195419, Note_on_c, 15, 48, 0
28, 195420, Note_on_c, 15, 44, 90
28, 195479, Note_on_c, 15, 44, 0
28, 195480, Note_on_c, 15, 44, 90
28, 195539, Note_on_c, 15, 44, 0
28, 195540, Note_on_c, 15, 44, 90
28, 195599, Note_on_c, 15, 44, 0
28, 195600, Note_on_c, 15, 49, 90
28, 195719, Note_on_c, 15, 49, 0
28, 195720, Note_on_c, 15, 47, 90
28, 195779, Note_on_c, 15, 47, 0
28, 195780, Note_on_c, 15, 46, 90
28, 195839, Note_on_c, 15, 46, 0
28, 195840, Note_on_c, 15, 54, 90
28, 195899, Note_on_c, 15, 54, 0
28, 195900, Note_on_c, 15, 52, 90
28, 195959, Note_on_c, 15, 52, 0
28, 195960, Note_on_c, 15, 51, 90
28, 196019, Note_on_c, 15, 51, 0
28, 196020, Note_on_c, 15, 56, 90
28, 196079, Note_on_c, 15, 56, 0
28, 196080, Note_on_c, 15, 54, 90
28, 196139, Note_on_c, 15, 54, 0
28, 196140, Note_on_c, 15, 52, 90
28, 196199, Note_on_c, 15, 52, 0
28, 196200, Note_on_c, 15, 49, 90
28, 196259, Note_on_c, 15, 49, 0
28, 196260, Note_on_c, 15, 52, 90
28, 196319, Note_on_c, 15, 52, 0
28, 196320, Note_on_c, 15, 54, 90
28, 196379, Note_on_c, 15, 54, 0
28, 196380, Note_on_c, 15, 49, 90
28, 196439, Note_on_c, 15, 49, 0
28, 196440, Note_on_c, 15, 46, 90
28, 196499, Note_on_c, 15, 46, 0
28, 196500, Note_on_c, 15, 42, 90
28, 196559, Note_on_c, 15, 42, 0
28, 196560, Note_on_c, 15, 46, 90
28, 196619, Note_on_c, 15, 46, 0
28, 196620, Note_on_c, 15, 49, 90
28, 196679, Note_on_c, 15, 49, 0
28, 196680, Note_on_c, 15, 42, 90
28, 196919, Note_on_c, 15, 42, 0
28, 196920, Note_on_c, 15, 47, 90
28, 196979, Note_on_c, 15, 47, 0
28, 196980, Note_on_c, 15, 51, 90
28, 197039, Note_on_c, 15, 51, 0
28, 197040, Note_on_c, 15, 42, 90
28, 197279, Note_on_c, 15, 42, 0
28, 197280, Note_on_c, 15, 49, 90
28, 197339, Note_on_c, 15, 49, 0
28, 197340, Note_on_c, 15, 52, 90
28, 197399, Note_on_c, 15, 52, 0
28, 197400, Note_on_c, 15, 51, 90
28, 197519, Note_on_c, 15, 51, 0
28, 197520, Note_on_c, 15, 52, 90
28, 197579, Note_on_c, 15, 52, 0
28, 197580, Note_on_c, 15, 54, 90
28, 197699, Note_on_c, 15, 54, 0
28, 197700, Note_on_c, 15, 42, 90
28, 197759, Note_on_c, 15, 42, 0
28, 197760, Note_on_c, 15, 47, 90
28, 197819, Note_on_c, 15, 47, 0
28, 197820, Note_on_c, 15, 51, 90
28, 197879, Note_on_c, 15, 51, 0
28, 197880, Note_on_c, 15, 54, 90
28, 197939, Note_on_c, 15, 54, 0
28, 197940, Note_on_c, 15, 59, 90
28, 198179, Note_on_c, 15, 59, 0
28, 198180, Note_on_c, 15, 58, 90
28, 198239, Note_on_c, 15, 58, 0
28, 198240, Note_on_c, 15, 56, 90
28, 198299, Note_on_c, 15, 56, 0
28, 198300, Note_on_c, 15, 54, 90
28, 198419, Note_on_c, 15, 54, 0
28, 198420, Note_on_c, 15, 52, 90
28, 198479, Note_on_c, 15, 52, 0
28, 198480, Note_on_c, 15, 54, 90
28, 198539, Note_on_c, 15, 54, 0
28, 198540, Note_on_c, 15, 56, 90
28, 198599, Note_on_c, 15, 56, 0
28, 198600, Note_on_c, 15, 58, 90
28, 198659, Note_on_c, 15, 58, 0
28, 198660, Note_on_c, 15, 59, 90
28, 198719, Note_on_c, 15, 59, 0
28, 198720, Note_on_c, 15, 63, 90
28, 198779, Note_on_c, 15, 63, 0
28, 198780, Note_on_c, 15, 59, 90
28, 198839, Note_on_c, 15, 59, 0
28, 198840, Note_on_c, 15, 52, 90
28, 199079, Note_on_c, 15, 52, 0
28, 199080, Note_on_c, 15, 61, 90
28, 199139, Note_on_c, 15, 61, 0
28, 199140, Note_on_c, 15, 58, 90
28, 199199, Note_on_c, 15, 58, 0
28, 199200, Note_on_c, 15, 51, 90
28, 199439, Note_on_c, 15, 51, 0
28, 199440, Note_on_c, 15, 59, 90
28, 199499, Note_on_c, 15, 59, 0
28, 199500, Note_on_c, 15, 56, 90
28, 199559, Note_on_c, 15, 56, 0
28, 199560, Note_on_c, 15, 49, 90
28, 199799, Note_on_c, 15, 49, 0
28, 199800, Note_on_c, 15, 58, 90
28, 199859, Note_on_c, 15, 58, 0
28, 199860, Note_on_c, 15, 54, 90
28, 199919, Note_on_c, 15, 54, 0
28, 199920, Note_on_c, 15, 47, 90
28, 199979, Note_on_c, 15, 47, 0
28, 199980, Note_on_c, 15, 54, 90
28, 200039, Note_on_c, 15, 54, 0
28, 200040, Note_on_c, 15, 56, 90
28, 200099, Note_on_c, 15, 56, 0
28, 200100, Note_on_c, 15, 58, 90
28, 200159, Note_on_c, 15, 58, 0
28, 200160, Note_on_c, 15, 59, 90
28, 200219, Note_on_c, 15, 59, 0
28, 200220, Note_on_c, 15, 61, 90
28, 200279, Note_on_c, 15, 61, 0
28, 200280, Note_on_c, 15, 63, 90
28, 200339, Note_on_c, 15, 63, 0
28, 200340, Note_on_c, 15, 51, 90
28, 200399, Note_on_c, 15, 51, 0
28, 200400, Note_on_c, 15, 52, 90
28, 200459, Note_on_c, 15, 52, 0
28, 200460, Note_on_c, 15, 54, 90
28, 200579, Note_on_c, 15, 54, 0
28, 200580, Note_on_c, 15, 42, 90
28, 200639, Note_on_c, 15, 42, 0
28, 200640, Note_on_c, 15, 47, 90
28, 200699, Note_on_c, 15, 47, 0
28, 200700, Note_on_c, 15, 51, 90
28, 200759, Note_on_c, 15, 51, 0
28, 200760, Note_on_c, 15, 54, 90
28, 200819, Note_on_c, 15, 54, 0
28, 200820, Note_on_c, 15, 59, 90
28, 200939, Note_on_c, 15, 59, 0
28, 200940, Note_on_c, 15, 57, 90
28, 200999, Note_on_c, 15, 57, 0
28, 201000, Note_on_c, 15, 56, 90
28, 201059, Note_on_c, 15, 56, 0
28, 201060, Note_on_c, 15, 59, 90
28, 201119, Note_on_c, 15, 59, 0
28, 201120, Note_on_c, 15, 56, 90
28, 201179, Note_on_c, 15, 56, 0
28, 201180, Note_on_c, 15, 52, 90
28, 201239, Note_on_c, 15, 52, 0
28, 201240, Note_on_c, 15, 56, 90
28, 201299, Note_on_c, 15, 56, 0
28, 201300, Note_on_c, 15, 52, 90
28, 201359, Note_on_c, 15, 52, 0
28, 201360, Note_on_c, 15, 45, 90
28, 201419, Note_on_c, 15, 45, 0
28, 201420, Note_on_c, 15, 49, 90
28, 201479, Note_on_c, 15, 49, 0
28, 201480, Note_on_c, 15, 52, 90
28, 201539, Note_on_c, 15, 52, 0
28, 201540, Note_on_c, 15, 57, 90
28, 201659, Note_on_c, 15, 57, 0
28, 201660, Note_on_c, 15, 56, 90
28, 201719, Note_on_c, 15, 56, 0
28, 201720, Note_on_c, 15, 54, 90
28, 201839, Note_on_c, 15, 54, 0
28, 201840, Note_on_c, 15, 52, 90
28, 201899, Note_on_c, 15, 52, 0
28, 201900, Note_on_c, 15, 57, 90
28, 202019, Note_on_c, 15, 57, 0
28, 202020, Note_on_c, 15, 54, 90
28, 202079, Note_on_c, 15, 54, 0
28, 202080, Note_on_c, 15, 56, 90
28, 202140, Note_on_c, 15, 56, 0
28, 202140, Note_on_c, 15, 51, 90
28, 202199, Note_on_c, 15, 51, 0
28, 202200, Note_on_c, 15, 48, 90
28, 202260, Note_on_c, 15, 48, 0
28, 202260, Note_on_c, 15, 44, 90
28, 202380, Note_on_c, 15, 44, 0
28, 202380, Note_on_c, 15, 48, 90
28, 202440, Note_on_c, 15, 48, 0
28, 202440, Note_on_c, 15, 49, 90
28, 202499, Note_on_c, 15, 49, 0
28, 202500, Note_on_c, 15, 52, 90
28, 202559, Note_on_c, 15, 52, 0
28, 202560, Note_on_c, 15, 56, 90
28, 202619, Note_on_c, 15, 56, 0
28, 202620, Note_on_c, 15, 61, 90
28, 202679, Note_on_c, 15, 61, 0
28, 202680, Note_on_c, 15, 58, 90
28, 202739, Note_on_c, 15, 58, 0
28, 202740, Note_on_c, 15, 54, 90
28, 202799, Note_on_c, 15, 54, 0
28, 202800, Note_on_c, 15, 47, 90
28, 202859, Note_on_c, 15, 47, 0
28, 202860, Note_on_c, 15, 51, 90
28, 202919, Note_on_c, 15, 51, 0
28, 202920, Note_on_c, 15, 54, 90
28, 202979, Note_on_c, 15, 54, 0
28, 202980, Note_on_c, 15, 59, 90
28, 203099, Note_on_c, 15, 59, 0
28, 203100, Note_on_c, 15, 57, 90
28, 203159, Note_on_c, 15, 57, 0
28, 203160, Note_on_c, 15, 56, 90
28, 203279, Note_on_c, 15, 56, 0
28, 203280, Note_on_c, 15, 54, 90
28, 203339, Note_on_c, 15, 54, 0
28, 203340, Note_on_c, 15, 56, 90
28, 203459, Note_on_c, 15, 56, 0
28, 203460, Note_on_c, 15, 52, 90
28, 203519, Note_on_c, 15, 52, 0
28, 203520, Note_on_c, 15, 45, 90
28, 203579, Note_on_c, 15, 45, 0
28, 203580, Note_on_c, 15, 54, 90
28, 203639, Note_on_c, 15, 54, 0
28, 203640, Note_on_c, 15, 52, 90
28, 203699, Note_on_c, 15, 52, 0
28, 203700, Note_on_c, 15, 50, 90
28, 203759, Note_on_c, 15, 50, 0
28, 203760, Note_on_c, 15, 52, 90
28, 203819, Note_on_c, 15, 52, 0
28, 203820, Note_on_c, 15, 54, 90
28, 203879, Note_on_c, 15, 54, 0
28, 203880, Note_on_c, 15, 44, 90
28, 203939, Note_on_c, 15, 44, 0
28, 203940, Note_on_c, 15, 44, 90
28, 203999, Note_on_c, 15, 44, 0
28, 204000, Note_on_c, 15, 44, 90
28, 204059, Note_on_c, 15, 44, 0
28, 204060, Note_on_c, 15, 40, 90
28, 204119, Note_on_c, 15, 40, 0
28, 204120, Note_on_c, 15, 40, 90
28, 204179, Note_on_c, 15, 40, 0
28, 204180, Note_on_c, 15, 40, 90
28, 204239, Note_on_c, 15, 40, 0
28, 204240, Note_on_c, 15, 45, 90
28, 204299, Note_on_c, 15, 45, 0
28, 204300, Note_on_c, 15, 49, 90
28, 204359, Note_on_c, 15, 49, 0
28, 204360, Note_on_c, 15, 52, 90
28, 204419, Note_on_c, 15, 52, 0
28, 204420, Note_on_c, 15, 57, 90
28, 204539, Note_on_c, 15, 57, 0
28, 204540, Note_on_c, 15, 56, 90
28, 204599, Note_on_c, 15, 56, 0
28, 204600, Note_on_c, 15, 54, 90
28, 204659, Note_on_c, 15, 54, 0
28, 204660, Note_on_c, 15, 52, 90
28, 204719, Note_on_c, 15, 52, 0
28, 204720, Note_on_c, 15, 50, 90
28, 204779, Note_on_c, 15, 50, 0
28, 204780, Note_on_c, 15, 49, 90
28, 204839, Note_on_c, 15, 49, 0
28, 204840, Note_on_c, 15, 47, 90
28, 204899, Note_on_c, 15, 47, 0
28, 204900, Note_on_c, 15, 49, 90
28, 204959, Note_on_c, 15, 49, 0
28, 204960, Note_on_c, 15, 50, 90
28, 205199, Note_on_c, 15, 50, 0
28, 205200, Note_on_c, 15, 47, 90
28, 205259, Note_on_c, 15, 47, 0
28, 205260, Note_on_c, 15, 44, 90
28, 205319, Note_on_c, 15, 44, 0
28, 205320, Note_on_c, 15, 40, 90
28, 205559, Note_on_c, 15, 40, 0
28, 205560, Note_on_c, 15, 45, 90
28, 205619, Note_on_c, 15, 45, 0
28, 205620, Note_on_c, 15, 49, 90
28, 205679, Note_on_c, 15, 49, 0
28, 205680, Note_on_c, 15, 40, 90
28, 205919, Note_on_c, 15, 40, 0
28, 205920, Note_on_c, 15, 47, 90
28, 205979, Note_on_c, 15, 47, 0
28, 205980, Note_on_c, 15, 50, 90
28, 206039, Note_on_c, 15, 50, 0
28, 206040, Note_on_c, 15, 49, 90
28, 206159, Note_on_c, 15, 49, 0
28, 206160, Note_on_c, 15, 50, 90
28, 206219, Note_on_c, 15, 50, 0
28, 206220, Note_on_c, 15, 52, 90
28, 206339, Note_on_c, 15, 52, 0
28, 206340, Note_on_c, 15, 40, 90
28, 206399, Note_on_c, 15, 40, 0
28, 206400, Note_on_c, 15, 45, 90
28, 206459, Note_on_c, 15, 45, 0
28, 206460, Note_on_c, 15, 49, 90
28, 206519, Note_on_c, 15, 49, 0
28, 206520, Note_on_c, 15, 52, 90
28, 206579, Note_on_c, 15, 52, 0
28, 206580, Note_on_c, 15, 57, 90
28, 206819, Note_on_c, 15, 57, 0
28, 206820, Note_on_c, 15, 56, 90
28, 206879, Note_on_c, 15, 56, 0
28, 206880, Note_on_c, 15, 54, 90
28, 206939, Note_on_c, 15, 54, 0
28, 206940, Note_on_c, 15, 52, 90
28, 207059, Note_on_c, 15, 52, 0
28, 207060, Note_on_c, 15, 50, 90
28, 207119, Note_on_c, 15, 50, 0
28, 207120, Note_on_c, 15, 52, 90
28, 207179, Note_on_c, 15, 52, 0
28, 207180, Note_on_c, 15, 56, 90
28, 207239, Note_on_c, 15, 56, 0
28, 207240, Note_on_c, 15, 59, 90
28, 207299, Note_on_c, 15, 59, 0
28, 207300, Note_on_c, 15, 56, 90
28, 207359, Note_on_c, 15, 56, 0
28, 207360, Note_on_c, 15, 52, 90
28, 207419, Note_on_c, 15, 52, 0
28, 207420, Note_on_c, 15, 56, 90
28, 207479, Note_on_c, 15, 56, 0
28, 207480, Note_on_c, 15, 57, 90
28, 207539, Note_on_c, 15, 57, 0
28, 207540, Note_on_c, 15, 56, 90
28, 207599, Note_on_c, 15, 56, 0
28, 207600, Note_on_c, 15, 54, 90
28, 207659, Note_on_c, 15, 54, 0
28, 207660, Note_on_c, 15, 53, 90
28, 207719, Note_on_c, 15, 53, 0
28, 207720, Note_on_c, 15, 49, 90
28, 207779, Note_on_c, 15, 49, 0
28, 207780, Note_on_c, 15, 53, 90
28, 207839, Note_on_c, 15, 53, 0
28, 207840, Note_on_c, 15, 54, 90
28, 207899, Note_on_c, 15, 54, 0
28, 207900, Note_on_c, 15, 57, 90
28, 207959, Note_on_c, 15, 57, 0
28, 207960, Note_on_c, 15, 61, 90
28, 208019, Note_on_c, 15, 61, 0
28, 208020, Note_on_c, 15, 57, 90
28, 208079, Note_on_c, 15, 57, 0
28, 208080, Note_on_c, 15, 54, 90
28, 208139, Note_on_c, 15, 54, 0
28, 208140, Note_on_c, 15, 57, 90
28, 208199, Note_on_c, 15, 57, 0
28, 208200, Note_on_c, 15, 59, 90
28, 208259, Note_on_c, 15, 59, 0
28, 208260, Note_on_c, 15, 57, 90
28, 208319, Note_on_c, 15, 57, 0
28, 208320, Note_on_c, 15, 56, 90
28, 208379, Note_on_c, 15, 56, 0
28, 208380, Note_on_c, 15, 57, 90
28, 208439, Note_on_c, 15, 57, 0
28, 208440, Note_on_c, 15, 56, 90
28, 208499, Note_on_c, 15, 56, 0
28, 208500, Note_on_c, 15, 52, 90
28, 208559, Note_on_c, 15, 52, 0
28, 208560, Note_on_c, 15, 47, 90
28, 208619, Note_on_c, 15, 47, 0
28, 208620, Note_on_c, 15, 51, 90
28, 208679, Note_on_c, 15, 51, 0
28, 208680, Note_on_c, 15, 54, 90
28, 208739, Note_on_c, 15, 54, 0
28, 208740, Note_on_c, 15, 59, 90
28, 208859, Note_on_c, 15, 59, 0
28, 208860, Note_on_c, 15, 57, 90
28, 208919, Note_on_c, 15, 57, 0
28, 208920, Note_on_c, 15, 56, 90
28, 209039, Note_on_c, 15, 56, 0
28, 209040, Note_on_c, 15, 54, 90
28, 209099, Note_on_c, 15, 54, 0
28, 209100, Note_on_c, 15, 53, 90
28, 209219, Note_on_c, 15, 53, 0
28, 209220, Note_on_c, 15, 49, 90
28, 209279, Note_on_c, 15, 49, 0
28, 209280, Note_on_c, 15, 54, 90
28, 209339, Note_on_c, 15, 54, 0
28, 209340, Note_on_c, 15, 49, 90
28, 209399, Note_on_c, 15, 49, 0
28, 209400, Note_on_c, 15, 45, 90
28, 209459, Note_on_c, 15, 45, 0
28, 209460, Note_on_c, 15, 42, 90
28, 209579, Note_on_c, 15, 42, 0
28, 209580, Note_on_c, 15, 45, 90
28, 209699, Note_on_c, 15, 45, 0
28, 209700, Note_on_c, 15, 44, 90
28, 209759, Note_on_c, 15, 44, 0
28, 209760, Note_on_c, 15, 42, 90
28, 209819, Note_on_c, 15, 42, 0
28, 209820, Note_on_c, 15, 40, 90
28, 209939, Note_on_c, 15, 40, 0
28, 209940, Note_on_c, 15, 39, 90
28, 209999, Note_on_c, 15, 39, 0
28, 210000, Note_on_c, 15, 37, 90
28, 210059, Note_on_c, 15, 37, 0
28, 210060, Note_on_c, 15, 49, 90
28, 210119, Note_on_c, 15, 49, 0
28, 210120, Note_on_c, 15, 47, 90
28, 210179, Note_on_c, 15, 47, 0
28, 210180, Note_on_c, 15, 45, 90
28, 210239, Note_on_c, 15, 45, 0
28, 210240, Note_on_c, 15, 44, 90
28, 210269, Note_on_c, 15, 44, 0
28, 210270, Note_on_c, 15, 42, 90
28, 210299, Note_on_c, 15, 42, 0
28, 210300, Note_on_c, 15, 44, 90
28, 210359, Note_on_c, 15, 44, 0
28, 210360, Note_on_c, 15, 39, 90
28, 210419, Note_on_c, 15, 39, 0
28, 210420, Note_on_c, 15, 39, 90
28, 210479, Note_on_c, 15, 39, 0
28, 210480, Note_on_c, 15, 39, 90
28, 210539, Note_on_c, 15, 39, 0
28, 210540, Note_on_c, 15, 47, 90
28, 210599, Note_on_c, 15, 47, 0
28, 210600, Note_on_c, 15, 47, 90
28, 210659, Note_on_c, 15, 47, 0
28, 210660, Note_on_c, 15, 47, 90
28, 210719, Note_on_c, 15, 47, 0
28, 210720, Note_on_c, 15, 52, 90
28, 211019, Note_on_c, 15, 52, 0
28, 211020, Note_on_c, 15, 50, 90
28, 211079, Note_on_c, 15, 50, 0
28, 211080, Note_on_c, 15, 49, 90
28, 211139, Note_on_c, 15, 49, 0
28, 211140, Note_on_c, 15, 52, 90
28, 211199, Note_on_c, 15, 52, 0
28, 211200, Note_on_c, 15, 57, 90
28, 211259, Note_on_c, 15, 57, 0
28, 211260, Note_on_c, 15, 56, 90
28, 211319, Note_on_c, 15, 56, 0
28, 211320, Note_on_c, 15, 54, 90
28, 211379, Note_on_c, 15, 54, 0
28, 211380, Note_on_c, 15, 52, 90
28, 211439, Note_on_c, 15, 52, 0
28, 211440, Note_on_c, 15, 57, 90
28, 211499, Note_on_c, 15, 57, 0
28, 211500, Note_on_c, 15, 56, 90
28, 211559, Note_on_c, 15, 56, 0
28, 211560, Note_on_c, 15, 54, 90
28, 211619, Note_on_c, 15, 54, 0
28, 211620, Note_on_c, 15, 56, 90
28, 211679, Note_on_c, 15, 56, 0
28, 211680, Note_on_c, 15, 54, 90
28, 211739, Note_on_c, 15, 54, 0
28, 211740, Note_on_c, 15, 52, 90
28, 211799, Note_on_c, 15, 52, 0
28, 211800, Note_on_c, 15, 57, 90
28, 211859, Note_on_c, 15, 57, 0
28, 211860, Note_on_c, 15, 61, 90
28, 211919, Note_on_c, 15, 61, 0
28, 211920, Note_on_c, 15, 59, 90
28, 211979, Note_on_c, 15, 59, 0
28, 211980, Note_on_c, 15, 58, 90
28, 212039, Note_on_c, 15, 58, 0
28, 212040, Note_on_c, 15, 56, 90
28, 212099, Note_on_c, 15, 56, 0
28, 212100, Note_on_c, 15, 54, 90
28, 212159, Note_on_c, 15, 54, 0
28, 212160, Note_on_c, 15, 59, 90
28, 212399, Note_on_c, 15, 59, 0
28, 212400, Note_on_c, 15, 54, 90
28, 212459, Note_on_c, 15, 54, 0
28, 212460, Note_on_c, 15, 51, 90
28, 212519, Note_on_c, 15, 51, 0
28, 212520, Note_on_c, 15, 47, 90
28, 212579, Note_on_c, 15, 47, 0
28, 212580, Note_on_c, 15, 52, 90
28, 212639, Note_on_c, 15, 52, 0
28, 212640, Note_on_c, 15, 56, 90
28, 212699, Note_on_c, 15, 56, 0
28, 212700, Note_on_c, 15, 47, 90
28, 212759, Note_on_c, 15, 47, 0
28, 212760, Note_on_c, 15, 52, 90
28, 212819, Note_on_c, 15, 52, 0
28, 212820, Note_on_c, 15, 56, 90
28, 212879, Note_on_c, 15, 56, 0
28, 212880, Note_on_c, 15, 47, 90
28, 212939, Note_on_c, 15, 47, 0
28, 212940, Note_on_c, 15, 51, 90
28, 212999, Note_on_c, 15, 51, 0
28, 213000, Note_on_c, 15, 54, 90
28, 213059, Note_on_c, 15, 54, 0
28, 213060, Note_on_c, 15, 47, 90
28, 213119, Note_on_c, 15, 47, 0
28, 213120, Note_on_c, 15, 54, 90
28, 213179, Note_on_c, 15, 54, 0
28, 213180, Note_on_c, 15, 57, 90
28, 213239, Note_on_c, 15, 57, 0
28, 213240, Note_on_c, 15, 56, 90
28, 213299, Note_on_c, 15, 56, 0
28, 213300, Note_on_c, 15, 61, 90
28, 213359, Note_on_c, 15, 61, 0
28, 213360, Note_on_c, 15, 57, 90
28, 213419, Note_on_c, 15, 57, 0
28, 213420, Note_on_c, 15, 59, 90
28, 213539, Note_on_c, 15, 59, 0
28, 213540, Note_on_c, 15, 47, 90
28, 213599, Note_on_c, 15, 47, 0
28, 213600, Note_on_c, 15, 40, 90
28, 213839, Note_on_c, 15, 40, 0
28, 213840, Note_on_c, 15, 44, 90
28, 213899, Note_on_c, 15, 44, 0
28, 213900, Note_on_c, 15, 47, 90
28, 213959, Note_on_c, 15, 47, 0
28, 213960, Note_on_c, 15, 50, 90
28, 214079, Note_on_c, 15, 50, 0
28, 214080, Note_on_c, 15, 47, 90
28, 214139, Note_on_c, 15, 47, 0
28, 214140, Note_on_c, 15, 44, 90
28, 214259, Note_on_c, 15, 44, 0
28, 214260, Note_on_c, 15, 40, 90
28, 214319, Note_on_c, 15, 40, 0
28, 214320, Note_on_c, 15, 45, 90
28, 214439, Note_on_c, 15, 45, 0
28, 214440, Note_on_c, 15, 47, 90
28, 214499, Note_on_c, 15, 47, 0
28, 214500, Note_on_c, 15, 49, 90
28, 214619, Note_on_c, 15, 49, 0
28, 214620, Note_on_c, 15, 47, 90
28, 214679, Note_on_c, 15, 47, 0
28, 214680, Note_on_c, 15, 46, 90
28, 214799, Note_on_c, 15, 46, 0
28, 214800, Note_on_c, 15, 49, 90
28, 214859, Note_on_c, 15, 49, 0
28, 214860, Note_on_c, 15, 46, 90
28, 214919, Note_on_c, 15, 46, 0
28, 214920, Note_on_c, 15, 42, 90
28, 214979, Note_on_c, 15, 42, 0
28, 214980, Note_on_c, 15, 46, 90
28, 215039, Note_on_c, 15, 46, 0
28, 215040, Note_on_c, 15, 47, 90
28, 215159, Note_on_c, 15, 47, 0
28, 215160, Note_on_c, 15, 45, 90
28, 215219, Note_on_c, 15, 45, 0
28, 215220, Note_on_c, 15, 44, 90
28, 215339, Note_on_c, 15, 44, 0
28, 215340, Note_on_c, 15, 42, 90
28, 215399, Note_on_c, 15, 42, 0
28, 215400, Note_on_c, 15, 44, 90
28, 215519, Note_on_c, 15, 44, 0
28, 215520, Note_on_c, 15, 40, 90
28, 215579, Note_on_c, 15, 40, 0
28, 215580, Note_on_c, 15, 45, 90
28, 215699, Note_on_c, 15, 45, 0
28, 215700, Note_on_c, 15, 44, 90
28, 215759, Note_on_c, 15, 44, 0
28, 215760, Note_on_c, 15, 45, 90
28, 215819, Note_on_c, 15, 45, 0
28, 215820, Note_on_c, 15, 42, 90
28, 215879, Note_on_c, 15, 42, 0
28, 215880, Note_on_c, 15, 45, 90
28, 215939, Note_on_c, 15, 45, 0
28, 215940, Note_on_c, 15, 47, 90
28, 215999, Note_on_c, 15, 47, 0
28, 216000, Note_on_c, 15, 49, 90
28, 216059, Note_on_c, 15, 49, 0
28, 216060, Note_on_c, 15, 51, 90
28, 216119, Note_on_c, 15, 51, 0
28, 216120, Note_on_c, 15, 52, 90
28, 216179, Note_on_c, 15, 52, 0
28, 216180, Note_on_c, 15, 57, 90
28, 216239, Note_on_c, 15, 57, 0
28, 216240, Note_on_c, 15, 54, 90
28, 216299, Note_on_c, 15, 54, 0
28, 216300, Note_on_c, 15, 59, 90
28, 216419, Note_on_c, 15, 59, 0
28, 216420, Note_on_c, 15, 47, 90
28, 216479, Note_on_c, 15, 47, 0
28, 216480, Note_on_c, 15, 40, 90
28, 216539, Note_on_c, 15, 40, 0
28, 216540, Note_on_c, 15, 44, 90
28, 216599, Note_on_c, 15, 44, 0
28, 216600, Note_on_c, 15, 47, 90
28, 216659, Note_on_c, 15, 47, 0
28, 216660, Note_on_c, 15, 52, 90
28, 216899, Note_on_c, 15, 52, 0
28, 216900, Note_on_c, 15, 51, 90
28, 216959, Note_on_c, 15, 51, 0
28, 216960, Note_on_c, 15, 49, 90
28, 217019, Note_on_c, 15, 49, 0
28, 217020, Note_on_c, 15, 47, 90
28, 217139, Note_on_c, 15, 47, 0
28, 217140, Note_on_c, 15, 45, 90
28, 217199, Note_on_c, 15, 45, 0
28, 217200, Note_on_c, 15, 47, 90
28, 217259, Note_on_c, 15, 47, 0
28, 217260, Note_on_c, 15, 49, 90
28, 217319, Note_on_c, 15, 49, 0
28, 217320, Note_on_c, 15, 51, 90
28, 217379, Note_on_c, 15, 51, 0
28, 217380, Note_on_c, 15, 52, 90
28, 217439, Note_on_c, 15, 52, 0
28, 217440, Note_on_c, 15, 56, 90
28, 217499, Note_on_c, 15, 56, 0
28, 217500, Note_on_c, 15, 52, 90
28, 217559, Note_on_c, 15, 52, 0
28, 217560, Note_on_c, 15, 57, 90
28, 217799, Note_on_c, 15, 57, 0
28, 217800, Note_on_c, 15, 54, 90
28, 217859, Note_on_c, 15, 54, 0
28, 217860, Note_on_c, 15, 51, 90
28, 217919, Note_on_c, 15, 51, 0
28, 217920, Note_on_c, 15, 56, 90
28, 218159, Note_on_c, 15, 56, 0
28, 218160, Note_on_c, 15, 52, 90
28, 218219, Note_on_c, 15, 52, 0
28, 218220, Note_on_c, 15, 49, 90
28, 218279, Note_on_c, 15, 49, 0
28, 218280, Note_on_c, 15, 54, 90
28, 218519, Note_on_c, 15, 54, 0
28, 218520, Note_on_c, 15, 51, 90
28, 218579, Note_on_c, 15, 51, 0
28, 218580, Note_on_c, 15, 47, 90
28, 218639, Note_on_c, 15, 47, 0
28, 218640, Note_on_c, 15, 52, 90
28, 218879, Note_on_c, 15, 52, 0
28, 218880, Note_on_c, 15, 40, 90
28, 218939, Note_on_c, 15, 40, 0
28, 218940, Note_on_c, 15, 44, 90
28, 218999, Note_on_c, 15, 44, 0
28, 219000, Note_on_c, 15, 45, 90
28, 219239, Note_on_c, 15, 45, 0
28, 219240, Note_on_c, 15, 49, 90
28, 219299, Note_on_c, 15, 49, 0
28, 219300, Note_on_c, 15, 42, 90
28, 219359, Note_on_c, 15, 42, 0
28, 219360, Note_on_c, 15, 47, 90
28, 219599, Note_on_c, 15, 47, 0
28, 219600, Note_on_c, 15, 51, 90
28, 219659, Note_on_c, 15, 51, 0
28, 219660, Note_on_c, 15, 54, 90
28, 219719, Note_on_c, 15, 54, 0
28, 219720, Note_on_c, 15, 47, 90
28, 219959, Note_on_c, 15, 47, 0
28, 219960, Note_on_c, 15, 52, 90
28, 220019, Note_on_c, 15, 52, 0
28, 220020, Note_on_c, 15, 56, 90
28, 220079, Note_on_c, 15, 56, 0
28, 220080, Note_on_c, 15, 47, 90
28, 220319, Note_on_c, 15, 47, 0
28, 220320, Note_on_c, 15, 54, 90
28, 220379, Note_on_c, 15, 54, 0
28, 220380, Note_on_c, 15, 59, 90
28, 220439, Note_on_c, 15, 59, 0
28, 220440, Note_on_c, 15, 52, 90
28, 220499, Note_on_c, 15, 52, 0
28, 220500, Note_on_c, 15, 56, 90
28, 220559, Note_on_c, 15, 56, 0
28, 220560, Note_on_c, 15, 57, 90
28, 220619, Note_on_c, 15, 57, 0
28, 220620, Note_on_c, 15, 59, 90
28, 220739, Note_on_c, 15, 59, 0
28, 220740, Note_on_c, 15, 47, 90
28, 220799, Note_on_c, 15, 47, 0
28, 220800, Note_on_c, 15, 40, 90
28, 220859, Note_on_c, 15, 40, 0
28, 220860, Note_on_c, 15, 44, 90
28, 220919, Note_on_c, 15, 44, 0
28, 220920, Note_on_c, 15, 47, 90
28, 220979, Note_on_c, 15, 47, 0
28, 220980, Note_on_c, 15, 52, 90
28, 221099, Note_on_c, 15, 52, 0
28, 221520, Note_on_c, 15, 46, 90
28, 222239, Note_on_c, 15, 46, 0
28, 222240, Note_on_c, 15, 47, 90
28, 222719, Note_on_c, 15, 47, 0
28, 222720, Note_on_c, 15, 53, 90
28, 223680, Note_on_c, 15, 53, 0
28, 223680, Note_on_c, 15, 54, 90
28, 224640, Note_on_c, 15, 54, 0
28, 224640, Note_on_c, 15, 56, 90
28, 225120, Note_on_c, 15, 56, 0
28, 225120, Note_on_c, 15, 46, 90
28, 226560, Note_on_c, 15, 46, 0
28, 226560, Note_on_c, 15, 47, 90
28, 226800, Note_on_c, 15, 47, 0
28, 226800, Note_on_c, 15, 43, 90
28, 228000, Note_on_c, 15, 43, 0
28, 228000, Note_on_c, 15, 44, 90
28, 228480, Note_on_c, 15, 44, 0
28, 228480, Note_on_c, 15, 45, 90
28, 228960, Note_on_c, 15, 45, 0
28, 228960, Note_on_c, 15, 43, 90
28, 229440, Note_on_c, 15, 43, 0
28, 229440, Note_on_c, 15, 50, 90
28, 229679, Note_on_c, 15, 50, 0
28, 229680, Note_on_c, 15, 46, 90
28, 229919, Note_on_c, 15, 46, 0
28, 229920, Note_on_c, 15, 47, 90
28, 230039, Note_on_c, 15, 47, 0
28, 230040, Note_on_c, 15, 50, 90
28, 230159, Note_on_c, 15, 50, 0
28, 230160, Note_on_c, 15, 52, 90
28, 230399, Note_on_c, 15, 52, 0
28, 230520, Note_on_c, 15, 54, 90
28, 230639, Note_on_c, 15, 54, 0
28, 230640, Note_on_c, 15, 47, 90
28, 231119, Note_on_c, 15, 47, 0
28, 231120, Note_on_c, 15, 42, 90
28, 231359, Note_on_c, 15, 42, 0
28, 231360, Note_on_c, 15, 44, 90
28, 231599, Note_on_c, 15, 44, 0
28, 231600, Note_on_c, 15, 45, 90
28, 231839, Note_on_c, 15, 45, 0
28, 231840, Note_on_c, 15, 41, 90
28, 232079, Note_on_c, 15, 41, 0
28, 232080, Note_on_c, 15, 42, 90
28, 232559, Note_on_c, 15, 42, 0
28, 232560, Note_on_c, 15, 39, 90
28, 233039, Note_on_c, 15, 39, 0
28, 233040, Note_on_c, 15, 48, 90
28, 233519, Note_on_c, 15, 48, 0
28, 233520, Note_on_c, 15, 49, 90
28, 233759, Note_on_c, 15, 49, 0
28, 233760, Note_on_c, 15, 42, 90
28, 233999, Note_on_c, 15, 42, 0
28, 234000, Note_on_c, 15, 46, 90
28, 234239, Note_on_c, 15, 46, 0
28, 234240, Note_on_c, 15, 47, 90
28, 234479, Note_on_c, 15, 47, 0
28, 234480, Note_on_c, 15, 44, 90
28, 234719, Note_on_c, 15, 44, 0
28, 234840, Note_on_c, 15, 45, 90
28, 234959, Note_on_c, 15, 45, 0
28, 234960, Note_on_c, 15, 38, 90
28, 235199, Note_on_c, 15, 38, 0
28, 235560, Note_on_c, 15, 50, 100
28, 235620, Note_on_c, 15, 50, 0
28, 235620, Note_on_c, 15, 38, 100
28, 235680, Note_on_c, 15, 38, 0
28, 235680, Note_on_c, 15, 50, 100
28, 235740, Note_on_c, 15, 50, 0
28, 235740, Note_on_c, 15, 38, 100
28, 235800, Note_on_c, 15, 38, 0
28, 235800, Note_on_c, 15, 38, 100
28, 235860, Note_on_c, 15, 38, 0
28, 235860, Note_on_c, 15, 50, 100
28, 235920, Note_on_c, 15, 50, 0
28, 235920, Note_on_c, 15, 38, 100
28, 235980, Note_on_c, 15, 38, 0
28, 235980, Note_on_c, 15, 38, 100
28, 236040, Note_on_c, 15, 38, 0
28, 236040, Note_on_c, 15, 50, 100
28, 236100, Note_on_c, 15, 50, 0
28, 236100, Note_on_c, 15, 38, 100
28, 236160, Note_on_c, 15, 38, 0
28, 236160, Note_on_c, 15, 38, 100
28, 236220, Note_on_c, 15, 38, 0
28, 236220, Note_on_c, 15, 50, 100
28, 236280, Note_on_c, 15, 50, 0
28, 236280, Note_on_c, 15, 38, 100
28, 236340, Note_on_c, 15, 38, 0
28, 236340, Note_on_c, 15, 38, 100
28, 236370, Note_on_c, 15, 38, 0
28, 236370, Note_on_c, 15, 40, 100
28, 236400, Note_on_c, 15, 40, 0
28, 236400, Note_on_c, 15, 42, 100
28, 236430, Note_on_c, 15, 42, 0
28, 236430, Note_on_c, 15, 43, 100
28, 236460, Note_on_c, 15, 43, 0
28, 236460, Note_on_c, 15, 45, 100
28, 236490, Note_on_c, 15, 45, 0
28, 236490, Note_on_c, 15, 43, 100
28, 236520, Note_on_c, 15, 43, 0
28, 236520, Note_on_c, 15, 42, 100
28, 236550, Note_on_c, 15, 42, 0
28, 236550, Note_on_c, 15, 40, 100
28, 236580, Note_on_c, 15, 40, 0
28, 236580, Note_on_c, 15, 38, 100
28, 236610, Note_on_c, 15, 38, 0
28, 236610, Note_on_c, 15, 40, 100
28, 236640, Note_on_c, 15, 40, 0
28, 236640, Note_on_c, 15, 42, 100
28, 236670, Note_on_c, 15, 42, 0
28, 236670, Note_on_c, 15, 43, 100
28, 236700, Note_on_c, 15, 43, 0
28, 236700, Note_on_c, 15, 45, 100
28, 236760, Note_on_c, 15, 45, 0
28, 236760, Note_on_c, 15, 45, 100
28, 236790, Note_on_c, 15, 45, 0
28, 236790, Note_on_c, 15, 45, 100
28, 236820, Note_on_c, 15, 45, 0
28, 236820, Note_on_c, 15, 45, 100
28, 236850, Note_on_c, 15, 45, 0
28, 236850, Note_on_c, 15, 45, 100
28, 236880, Note_on_c, 15, 45, 0
28, 236880, Note_on_c, 15, 45, 100
28, 236940, Note_on_c, 15, 45, 0
28, 236940, Note_on_c, 15, 57, 100
28, 237000, Note_on_c, 15, 57, 0
28, 237000, Note_on_c, 15, 61, 100
28, 237060, Note_on_c, 15, 61, 0
28, 237060, Note_on_c, 15, 54, 100
28, 237120, Note_on_c, 15, 54, 0
28, 237120, Note_on_c, 15, 57, 100
28, 237180, Note_on_c, 15, 57, 0
28, 237180, Note_on_c, 15, 54, 100
28, 237240, Note_on_c, 15, 54, 0
28, 237240, Note_on_c, 15, 51, 100
28, 237300, Note_on_c, 15, 51, 0
28, 237300, Note_on_c, 15, 47, 100
28, 237360, Note_on_c, 15, 47, 0
28, 237360, Note_on_c, 15, 51, 100
28, 237420, Note_on_c, 15, 51, 0
28, 237420, Note_on_c, 15, 52, 100
28, 237480, Note_on_c, 15, 52, 0
28, 237480, Note_on_c, 15, 64, 100
28, 237540, Note_on_c, 15, 64, 0
28, 237540, Note_on_c, 15, 52, 100
28, 237600, Note_on_c, 15, 52, 0
28, 237600, Note_on_c, 15, 52, 100
28, 237660, Note_on_c, 15, 52, 0
28, 237660, Note_on_c, 15, 64, 100
28, 237720, Note_on_c, 15, 64, 0
28, 237720, Note_on_c, 15, 52, 100
28, 237780, Note_on_c, 15, 52, 0
28, 237780, Note_on_c, 15, 52, 100
28, 237840, Note_on_c, 15, 52, 0
28, 237840, Note_on_c, 15, 55, 100
28, 237900, Note_on_c, 15, 55, 0
28, 237900, Note_on_c, 15, 47, 100
28, 237960, Note_on_c, 15, 47, 0
28, 237960, Note_on_c, 15, 49, 100
28, 238020, Note_on_c, 15, 49, 0
28, 238020, Note_on_c, 15, 52, 100
28, 238080, Note_on_c, 15, 52, 0
28, 238080, Note_on_c, 15, 45, 100
28, 238140, Note_on_c, 15, 45, 0
28, 238140, Note_on_c, 15, 50, 100
28, 238199, Note_on_c, 15, 50, 0
28, 238200, Note_on_c, 15, 62, 100
28, 238259, Note_on_c, 15, 62, 0
28, 238260, Note_on_c, 15, 50, 100
28, 238319, Note_on_c, 15, 50, 0
28, 238320, Note_on_c, 15, 50, 100
28, 238379, Note_on_c, 15, 50, 0
28, 238380, Note_on_c, 15, 62, 100
28, 238439, Note_on_c, 15, 62, 0
28, 238440, Note_on_c, 15, 50, 100
28, 238499, Note_on_c, 15, 50, 0
28, 238500, Note_on_c, 15, 45, 100
28, 238529, Note_on_c, 15, 45, 0
28, 238530, Note_on_c, 15, 57, 100
28, 238559, Note_on_c, 15, 57, 0
28, 238560, Note_on_c, 15, 55, 100
28, 238589, Note_on_c, 15, 55, 0
28, 238590, Note_on_c, 15, 54, 100
28, 238619, Note_on_c, 15, 54, 0
28, 238620, Note_on_c, 15, 52, 100
28, 238649, Note_on_c, 15, 52, 0
28, 238650, Note_on_c, 15, 50, 100
28, 238679, Note_on_c, 15, 50, 0
28, 238680, Note_on_c, 15, 49, 100
28, 238739, Note_on_c, 15, 49, 0
28, 238740, Note_on_c, 15, 61, 100
28, 238799, Note_on_c, 15, 61, 0
28, 238800, Note_on_c, 15, 49, 100
28, 238859, Note_on_c, 15, 49, 0
28, 238860, Note_on_c, 15, 42, 100
28, 238889, Note_on_c, 15, 42, 0
28, 238890, Note_on_c, 15, 55, 100
28, 238919, Note_on_c, 15, 55, 0
28, 238920, Note_on_c, 15, 54, 100
28, 238949, Note_on_c, 15, 54, 0
28, 238950, Note_on_c, 15, 52, 100
28, 238979, Note_on_c, 15, 52, 0
28, 238980, Note_on_c, 15, 50, 100
28, 239009, Note_on_c, 15, 50, 0
28, 239010, Note_on_c, 15, 49, 100
28, 239039, Note_on_c, 15, 49, 0
28, 239040, Note_on_c, 15, 47, 100
28, 239099, Note_on_c, 15, 47, 0
28, 239100, Note_on_c, 15, 59, 100
28, 239159, Note_on_c, 15, 59, 0
28, 239160, Note_on_c, 15, 47, 100
28, 239219, Note_on_c, 15, 47, 0
28, 239220, Note_on_c, 15, 40, 100
28, 239249, Note_on_c, 15, 40, 0
28, 239250, Note_on_c, 15, 54, 100
28, 239279, Note_on_c, 15, 54, 0
28, 239280, Note_on_c, 15, 52, 100
28, 239309, Note_on_c, 15, 52, 0
28, 239310, Note_on_c, 15, 50, 100
28, 239339, Note_on_c, 15, 50, 0
28, 239340, Note_on_c, 15, 49, 100
28, 239369, Note_on_c, 15, 49, 0
28, 239370, Note_on_c, 15, 47, 100
28, 239399, Note_on_c, 15, 47, 0
28, 239400, Note_on_c, 15, 45, 100
28, 239459, Note_on_c, 15, 45, 0
28, 239460, Note_on_c, 15, 57, 100
28, 239519, Note_on_c, 15, 57, 0
28, 239520, Note_on_c, 15, 45, 100
28, 239579, Note_on_c, 15, 45, 0
28, 239580, Note_on_c, 15, 38, 100
28, 239609, Note_on_c, 15, 38, 0
28, 239610, Note_on_c, 15, 50, 100
28, 239639, Note_on_c, 15, 50, 0
28, 239640, Note_on_c, 15, 49, 100
28, 239669, Note_on_c, 15, 49, 0
28, 239670, Note_on_c, 15, 47, 100
28, 239699, Note_on_c, 15, 47, 0
28, 239700, Note_on_c, 15, 45, 100
28, 239729, Note_on_c, 15, 45, 0
28, 239730, Note_on_c, 15, 43, 100
28, 239759, Note_on_c, 15, 43, 0
28, 239760, Note_on_c, 15, 42, 100
28, 239789, Note_on_c, 15, 42, 0
28, 239790, Note_on_c, 15, 45, 100
28, 239819, Note_on_c, 15, 45, 0
28, 239820, Note_on_c, 15, 43, 100
28, 239849, Note_on_c, 15, 43, 0
28, 239850, Note_on_c, 15, 42, 100
28, 239879, Note_on_c, 15, 42, 0
28, 239880, Note_on_c, 15, 40, 100
28, 239909, Note_on_c, 15, 40, 0
28, 239910, Note_on_c, 15, 38, 100
28, 239939, Note_on_c, 15, 38, 0
28, 239940, Note_on_c, 15, 45, 100
28, 239999, Note_on_c, 15, 45, 0
28, 240000, Note_on_c, 15, 57, 100
28, 240059, Note_on_c, 15, 57, 0
28, 240060, Note_on_c, 15, 45, 100
28, 240119, Note_on_c, 15, 45, 0
28, 240120, Note_on_c, 15, 45, 100
28, 240179, Note_on_c, 15, 45, 0
28, 240180, Note_on_c, 15, 57, 100
28, 240239, Note_on_c, 15, 57, 0
28, 240240, Note_on_c, 15, 45, 100
28, 240299, Note_on_c, 15, 45, 0
28, 240300, Note_on_c, 15, 45, 100
28, 240359, Note_on_c, 15, 45, 0
28, 240360, Note_on_c, 15, 57, 100
28, 240419, Note_on_c, 15, 57, 0
28, 240420, Note_on_c, 15, 45, 100
28, 240479, Note_on_c, 15, 45, 0
28, 240480, Note_on_c, 15, 45, 100
28, 240539, Note_on_c, 15, 45, 0
28, 240540, Note_on_c, 15, 57, 100
28, 240599, Note_on_c, 15, 57, 0
28, 240600, Note_on_c, 15, 45, 100
28, 240659, Note_on_c, 15, 45, 0
28, 240660, Note_on_c, 15, 45, 100
28, 240719, Note_on_c, 15, 45, 0
28, 240720, Note_on_c, 15, 57, 100
28, 240779, Note_on_c, 15, 57, 0
28, 240780, Note_on_c, 15, 45, 100
28, 240839, Note_on_c, 15, 45, 0
28, 240840, Note_on_c, 15, 45, 100
28, 240899, Note_on_c, 15, 45, 0
28, 240900, Note_on_c, 15, 49, 100
28, 240959, Note_on_c, 15, 49, 0
28, 240960, Note_on_c, 15, 50, 100
28, 241019, Note_on_c, 15, 50, 0
28, 241020, Note_on_c, 15, 42, 100
28, 241079, Note_on_c, 15, 42, 0
28, 241080, Note_on_c, 15, 45, 100
28, 241139, Note_on_c, 15, 45, 0
28, 241140, Note_on_c, 15, 45, 100
28, 241199, Note_on_c, 15, 45, 0
28, 241200, Note_on_c, 15, 38, 100
28, 241229, Note_on_c, 15, 38, 0
28, 241230, Note_on_c, 15, 45, 100
28, 241259, Note_on_c, 15, 45, 0
28, 241260, Note_on_c, 15, 50, 100
28, 241289, Note_on_c, 15, 50, 0
28, 241290, Note_on_c, 15, 49, 100
28, 241319, Note_on_c, 15, 49, 0
28, 241320, Note_on_c, 15, 50, 100
28, 241349, Note_on_c, 15, 50, 0
28, 241350, Note_on_c, 15, 52, 100
28, 241379, Note_on_c, 15, 52, 0
28, 241380, Note_on_c, 15, 54, 100
28, 241409, Note_on_c, 15, 54, 0
28, 241410, Note_on_c, 15, 52, 100
28, 241439, Note_on_c, 15, 52, 0
28, 241440, Note_on_c, 15, 54, 100
28, 241469, Note_on_c, 15, 54, 0
28, 241470, Note_on_c, 15, 55, 100
28, 241499, Note_on_c, 15, 55, 0
28, 241500, Note_on_c, 15, 57, 100
28, 241529, Note_on_c, 15, 57, 0
28, 241530, Note_on_c, 15, 55, 100
28, 241559, Note_on_c, 15, 55, 0
28, 241560, Note_on_c, 15, 54, 100
28, 241589, Note_on_c, 15, 54, 0
28, 241590, Note_on_c, 15, 55, 100
28, 241619, Note_on_c, 15, 55, 0
28, 241620, Note_on_c, 15, 54, 100
28, 241649, Note_on_c, 15, 54, 0
28, 241650, Note_on_c, 15, 55, 100
28, 241679, Note_on_c, 15, 55, 0
28, 241680, Note_on_c, 15, 57, 100
28, 241709, Note_on_c, 15, 57, 0
28, 241710, Note_on_c, 15, 54, 100
28, 241739, Note_on_c, 15, 54, 0
28, 241740, Note_on_c, 15, 55, 100
28, 241799, Note_on_c, 15, 55, 0
28, 241800, Note_on_c, 15, 52, 100
28, 241859, Note_on_c, 15, 52, 0
28, 241860, Note_on_c, 15, 57, 100
28, 241919, Note_on_c, 15, 57, 0
28, 241920, Note_on_c, 15, 50, 100
28, 241949, Note_on_c, 15, 50, 0
28, 241950, Note_on_c, 15, 52, 100
28, 241979, Note_on_c, 15, 52, 0
28, 241980, Note_on_c, 15, 50, 100
28, 242009, Note_on_c, 15, 50, 0
28, 242010, Note_on_c, 15, 52, 100
28, 242039, Note_on_c, 15, 52, 0
28, 242040, Note_on_c, 15, 54, 100
28, 242069, Note_on_c, 15, 54, 0
28, 242070, Note_on_c, 15, 52, 100
28, 242099, Note_on_c, 15, 52, 0
28, 242100, Note_on_c, 15, 50, 100
28, 242129, Note_on_c, 15, 50, 0
28, 242130, Note_on_c, 15, 49, 100
28, 242159, Note_on_c, 15, 49, 0
28, 242160, Note_on_c, 15, 50, 100
28, 242219, Note_on_c, 15, 50, 0
28, 242220, Note_on_c, 15, 38, 100
28, 242279, Note_on_c, 15, 38, 0
28, 242280, Note_on_c, 15, 38, 100
28, 242339, Note_on_c, 15, 38, 0
28, 242340, Note_on_c, 15, 50, 100
28, 242399, Note_on_c, 15, 50, 0
28, 242400, Note_on_c, 15, 38, 100
28, 242459, Note_on_c, 15, 38, 0
28, 242460, Note_on_c, 15, 38, 100
28, 242519, Note_on_c, 15, 38, 0
28, 242520, Note_on_c, 15, 50, 100
28, 242579, Note_on_c, 15, 50, 0
28, 242580, Note_on_c, 15, 38, 100
28, 242639, Note_on_c, 15, 38, 0
28, 242640, Note_on_c, 15, 38, 100
28, 242699, Note_on_c, 15, 38, 0
28, 242700, Note_on_c, 15, 50, 100
28, 242759, Note_on_c, 15, 50, 0
28, 242760, Note_on_c, 15, 38, 100
28, 242819, Note_on_c, 15, 38, 0
28, 242820, Note_on_c, 15, 50, 100
28, 242849, Note_on_c, 15, 50, 0
28, 242850, Note_on_c, 15, 52, 100
28, 242879, Note_on_c, 15, 52, 0
28, 242880, Note_on_c, 15, 54, 100
28, 242909, Note_on_c, 15, 54, 0
28, 242910, Note_on_c, 15, 55, 100
28, 242939, Note_on_c, 15, 55, 0
28, 242940, Note_on_c, 15, 57, 100
28, 242969, Note_on_c, 15, 57, 0
28, 242970, Note_on_c, 15, 55, 100
28, 242999, Note_on_c, 15, 55, 0
28, 243000, Note_on_c, 15, 54, 100
28, 243029, Note_on_c, 15, 54, 0
28, 243030, Note_on_c, 15, 55, 100
28, 243059, Note_on_c, 15, 55, 0
28, 243060, Note_on_c, 15, 54, 100
28, 243089, Note_on_c, 15, 54, 0
28, 243090, Note_on_c, 15, 55, 100
28, 243119, Note_on_c, 15, 55, 0
28, 243120, Note_on_c, 15, 57, 100
28, 243149, Note_on_c, 15, 57, 0
28, 243150, Note_on_c, 15, 54, 100
28, 243179, Note_on_c, 15, 54, 0
28, 243180, Note_on_c, 15, 55, 100
28, 243239, Note_on_c, 15, 55, 0
28, 243240, Note_on_c, 15, 52, 100
28, 243299, Note_on_c, 15, 52, 0
28, 243300, Note_on_c, 15, 57, 100
28, 243359, Note_on_c, 15, 57, 0
28, 243360, Note_on_c, 15, 50, 100
28, 243389, Note_on_c, 15, 50, 0
28, 243390, Note_on_c, 15, 52, 100
28, 243419, Note_on_c, 15, 52, 0
28, 243420, Note_on_c, 15, 50, 100
28, 243449, Note_on_c, 15, 50, 0
28, 243450, Note_on_c, 15, 52, 100
28, 243479, Note_on_c, 15, 52, 0
28, 243480, Note_on_c, 15, 54, 100
28, 243509, Note_on_c, 15, 54, 0
28, 243510, Note_on_c, 15, 52, 100
28, 243539, Note_on_c, 15, 52, 0
28, 243540, Note_on_c, 15, 50, 100
28, 243569, Note_on_c, 15, 50, 0
28, 243570, Note_on_c, 15, 52, 100
28, 243599, Note_on_c, 15, 52, 0
28, 243600, Note_on_c, 15, 50, 100
28, 243629, Note_on_c, 15, 50, 0
28, 243630, Note_on_c, 15, 52, 100
28, 243659, Note_on_c, 15, 52, 0
28, 243660, Note_on_c, 15, 54, 100
28, 243689, Note_on_c, 15, 54, 0
28, 243690, Note_on_c, 15, 50, 100
28, 243719, Note_on_c, 15, 50, 0
28, 243720, Note_on_c, 15, 55, 100
28, 243749, Note_on_c, 15, 55, 0
28, 243750, Note_on_c, 15, 54, 100
28, 243779, Note_on_c, 15, 54, 0
28, 243780, Note_on_c, 15, 55, 100
28, 243809, Note_on_c, 15, 55, 0
28, 243810, Note_on_c, 15, 57, 100
28, 243839, Note_on_c, 15, 57, 0
28, 243840, Note_on_c, 15, 55, 100
28, 243869, Note_on_c, 15, 55, 0
28, 243870, Note_on_c, 15, 54, 100
28, 243899, Note_on_c, 15, 54, 0
28, 243900, Note_on_c, 15, 52, 100
28, 243929, Note_on_c, 15, 52, 0
28, 243930, Note_on_c, 15, 54, 100
28, 243959, Note_on_c, 15, 54, 0
28, 243960, Note_on_c, 15, 52, 100
28, 243989, Note_on_c, 15, 52, 0
28, 243990, Note_on_c, 15, 54, 100
28, 244019, Note_on_c, 15, 54, 0
28, 244020, Note_on_c, 15, 56, 100
28, 244049, Note_on_c, 15, 56, 0
28, 244050, Note_on_c, 15, 52, 100
28, 244079, Note_on_c, 15, 52, 0
28, 244080, Note_on_c, 15, 57, 100
28, 244109, Note_on_c, 15, 57, 0
28, 244110, Note_on_c, 15, 59, 100
28, 244139, Note_on_c, 15, 59, 0
28, 244140, Note_on_c, 15, 57, 100
28, 244169, Note_on_c, 15, 57, 0
28, 244170, Note_on_c, 15, 56, 100
28, 244199, Note_on_c, 15, 56, 0
28, 244200, Note_on_c, 15, 54, 100
28, 244229, Note_on_c, 15, 54, 0
28, 244230, Note_on_c, 15, 52, 100
28, 244259, Note_on_c, 15, 52, 0
28, 244260, Note_on_c, 15, 50, 100
28, 244289, Note_on_c, 15, 50, 0
28, 244290, Note_on_c, 15, 52, 100
28, 244319, Note_on_c, 15, 52, 0
28, 244320, Note_on_c, 15, 50, 100
28, 244349, Note_on_c, 15, 50, 0
28, 244350, Note_on_c, 15, 49, 100
28, 244379, Note_on_c, 15, 49, 0
28, 244380, Note_on_c, 15, 47, 100
28, 244409, Note_on_c, 15, 47, 0
28, 244410, Note_on_c, 15, 45, 100
28, 244439, Note_on_c, 15, 45, 0
28, 244440, Note_on_c, 15, 44, 100
28, 244469, Note_on_c, 15, 44, 0
28, 244470, Note_on_c, 15, 57, 100
28, 244499, Note_on_c, 15, 57, 0
28, 244500, Note_on_c, 15, 56, 100
28, 244529, Note_on_c, 15, 56, 0
28, 244530, Note_on_c, 15, 54, 100
28, 244559, Note_on_c, 15, 54, 0
28, 244560, Note_on_c, 15, 52, 100
28, 244589, Note_on_c, 15, 52, 0
28, 244590, Note_on_c, 15, 50, 100
28, 244619, Note_on_c, 15, 50, 0
28, 244620, Note_on_c, 15, 49, 100
28, 244649, Note_on_c, 15, 49, 0
28, 244650, Note_on_c, 15, 50, 100
28, 244679, Note_on_c, 15, 50, 0
28, 244680, Note_on_c, 15, 49, 100
28, 244709, Note_on_c, 15, 49, 0
28, 244710, Note_on_c, 15, 47, 100
28, 244739, Note_on_c, 15, 47, 0
28, 244740, Note_on_c, 15, 45, 100
28, 244769, Note_on_c, 15, 45, 0
28, 244770, Note_on_c, 15, 44, 100
28, 244799, Note_on_c, 15, 44, 0
28, 244800, Note_on_c, 15, 42, 100
28, 244829, Note_on_c, 15, 42, 0
28, 244830, Note_on_c, 15, 56, 100
28, 244859, Note_on_c, 15, 56, 0
28, 244860, Note_on_c, 15, 54, 100
28, 244889, Note_on_c, 15, 54, 0
28, 244890, Note_on_c, 15, 52, 100
28, 244919, Note_on_c, 15, 52, 0
28, 244920, Note_on_c, 15, 50, 100
28, 244949, Note_on_c, 15, 50, 0
28, 244950, Note_on_c, 15, 49, 100
28, 244979, Note_on_c, 15, 49, 0
28, 244980, Note_on_c, 15, 47, 100
28, 245009, Note_on_c, 15, 47, 0
28, 245010, Note_on_c, 15, 49, 100
28, 245039, Note_on_c, 15, 49, 0
28, 245040, Note_on_c, 15, 47, 100
28, 245069, Note_on_c, 15, 47, 0
28, 245070, Note_on_c, 15, 45, 100
28, 245099, Note_on_c, 15, 45, 0
28, 245100, Note_on_c, 15, 44, 100
28, 245129, Note_on_c, 15, 44, 0
28, 245130, Note_on_c, 15, 42, 100
28, 245159, Note_on_c, 15, 42, 0
28, 245160, Note_on_c, 15, 40, 100
28, 245189, Note_on_c, 15, 40, 0
28, 245190, Note_on_c, 15, 54, 100
28, 245219, Note_on_c, 15, 54, 0
28, 245220, Note_on_c, 15, 52, 100
28, 245249, Note_on_c, 15, 52, 0
28, 245250, Note_on_c, 15, 50, 100
28, 245279, Note_on_c, 15, 50, 0
28, 245280, Note_on_c, 15, 49, 100
28, 245309, Note_on_c, 15, 49, 0
28, 245310, Note_on_c, 15, 47, 100
28, 245339, Note_on_c, 15, 47, 0
28, 245340, Note_on_c, 15, 45, 100
28, 245369, Note_on_c, 15, 45, 0
28, 245370, Note_on_c, 15, 57, 100
28, 245399, Note_on_c, 15, 57, 0
28, 245400, Note_on_c, 15, 56, 100
28, 245429, Note_on_c, 15, 56, 0
28, 245430, Note_on_c, 15, 54, 100
28, 245459, Note_on_c, 15, 54, 0
28, 245460, Note_on_c, 15, 52, 100
28, 245489, Note_on_c, 15, 52, 0
28, 245490, Note_on_c, 15, 50, 100
28, 245519, Note_on_c, 15, 50, 0
28, 245520, Note_on_c, 15, 49, 100
28, 245549, Note_on_c, 15, 49, 0
28, 245550, Note_on_c, 15, 52, 100
28, 245579, Note_on_c, 15, 52, 0
28, 245580, Note_on_c, 15, 50, 100
28, 245609, Note_on_c, 15, 50, 0
28, 245610, Note_on_c, 15, 49, 100
28, 245639, Note_on_c, 15, 49, 0
28, 245640, Note_on_c, 15, 47, 100
28, 245669, Note_on_c, 15, 47, 0
28, 245670, Note_on_c, 15, 45, 100
28, 245699, Note_on_c, 15, 45, 0
28, 245700, Note_on_c, 15, 40, 100
28, 245759, Note_on_c, 15, 40, 0
28, 245760, Note_on_c, 15, 52, 100
28, 245819, Note_on_c, 15, 52, 0
28, 245820, Note_on_c, 15, 40, 100
28, 245879, Note_on_c, 15, 40, 0
28, 245880, Note_on_c, 15, 40, 100
28, 245939, Note_on_c, 15, 40, 0
28, 245940, Note_on_c, 15, 52, 100
28, 245999, Note_on_c, 15, 52, 0
28, 246000, Note_on_c, 15, 40, 100
28, 246059, Note_on_c, 15, 40, 0
28, 246060, Note_on_c, 15, 40, 100
28, 246119, Note_on_c, 15, 40, 0
28, 246120, Note_on_c, 15, 52, 100
28, 246179, Note_on_c, 15, 52, 0
28, 246180, Note_on_c, 15, 40, 100
28, 246239, Note_on_c, 15, 40, 0
28, 246240, Note_on_c, 15, 40, 100
28, 246299, Note_on_c, 15, 40, 0
28, 246300, Note_on_c, 15, 52, 100
28, 246359, Note_on_c, 15, 52, 0
28, 246360, Note_on_c, 15, 40, 100
28, 246419, Note_on_c, 15, 40, 0
28, 246420, Note_on_c, 15, 40, 100
28, 246479, Note_on_c, 15, 40, 0
28, 246480, Note_on_c, 15, 52, 100
28, 246539, Note_on_c, 15, 52, 0
28, 246540, Note_on_c, 15, 40, 100
28, 246599, Note_on_c, 15, 40, 0
28, 246600, Note_on_c, 15, 40, 100
28, 246659, Note_on_c, 15, 40, 0
28, 246660, Note_on_c, 15, 52, 100
28, 246719, Note_on_c, 15, 52, 0
28, 246720, Note_on_c, 15, 50, 100
28, 246779, Note_on_c, 15, 50, 0
28, 246780, Note_on_c, 15, 49, 100
28, 246809, Note_on_c, 15, 49, 0
28, 246810, Note_on_c, 15, 50, 100
28, 246839, Note_on_c, 15, 50, 0
28, 246840, Note_on_c, 15, 49, 100
28, 246869, Note_on_c, 15, 49, 0
28, 246870, Note_on_c, 15, 50, 100
28, 246899, Note_on_c, 15, 50, 0
28, 246900, Note_on_c, 15, 52, 100
28, 246929, Note_on_c, 15, 52, 0
28, 246930, Note_on_c, 15, 50, 100
28, 246959, Note_on_c, 15, 50, 0
28, 246960, Note_on_c, 15, 49, 100
28, 247019, Note_on_c, 15, 49, 0
28, 247020, Note_on_c, 15, 54, 100
28, 247079, Note_on_c, 15, 54, 0
28, 247080, Note_on_c, 15, 50, 100
28, 247139, Note_on_c, 15, 50, 0
28, 247140, Note_on_c, 15, 52, 100
28, 247199, Note_on_c, 15, 52, 0
28, 247200, Note_on_c, 15, 40, 100
28, 247259, Note_on_c, 15, 40, 0
28, 247260, Note_on_c, 15, 52, 100
28, 247319, Note_on_c, 15, 52, 0
28, 247320, Note_on_c, 15, 49, 100
28, 247379, Note_on_c, 15, 49, 0
28, 247380, Note_on_c, 15, 49, 100
28, 247439, Note_on_c, 15, 49, 0
28, 247440, Note_on_c, 15, 49, 100
28, 247499, Note_on_c, 15, 49, 0
28, 247500, Note_on_c, 15, 49, 100
28, 247559, Note_on_c, 15, 49, 0
28, 247560, Note_on_c, 15, 49, 100
28, 247619, Note_on_c, 15, 49, 0
28, 247620, Note_on_c, 15, 49, 100
28, 247679, Note_on_c, 15, 49, 0
28, 247680, Note_on_c, 15, 50, 100
28, 247739, Note_on_c, 15, 50, 0
28, 247740, Note_on_c, 15, 50, 100
28, 247799, Note_on_c, 15, 50, 0
28, 247800, Note_on_c, 15, 50, 100
28, 247859, Note_on_c, 15, 50, 0
28, 247860, Note_on_c, 15, 50, 100
28, 247919, Note_on_c, 15, 50, 0
28, 247920, Note_on_c, 15, 50, 100
28, 247979, Note_on_c, 15, 50, 0
28, 247980, Note_on_c, 15, 50, 100
28, 248039, Note_on_c, 15, 50, 0
28, 248040, Note_on_c, 15, 47, 100
28, 248099, Note_on_c, 15, 47, 0
28, 248100, Note_on_c, 15, 47, 100
28, 248159, Note_on_c, 15, 47, 0
28, 248160, Note_on_c, 15, 47, 100
28, 248219, Note_on_c, 15, 47, 0
28, 248220, Note_on_c, 15, 45, 100
28, 248279, Note_on_c, 15, 45, 0
28, 248280, Note_on_c, 15, 49, 100
28, 248339, Note_on_c, 15, 49, 0
28, 248340, Note_on_c, 15, 50, 100
28, 248399, Note_on_c, 15, 50, 0
28, 248400, Note_on_c, 15, 52, 100
28, 248459, Note_on_c, 15, 52, 0
28, 248460, Note_on_c, 15, 50, 100
28, 248519, Note_on_c, 15, 50, 0
28, 248520, Note_on_c, 15, 52, 100
28, 248579, Note_on_c, 15, 52, 0
28, 248580, Note_on_c, 15, 45, 100
28, 248609, Note_on_c, 15, 45, 0
28, 248610, Note_on_c, 15, 57, 100
28, 248639, Note_on_c, 15, 57, 0
28, 248640, Note_on_c, 15, 56, 100
28, 248669, Note_on_c, 15, 56, 0
28, 248670, Note_on_c, 15, 54, 100
28, 248699, Note_on_c, 15, 54, 0
28, 248700, Note_on_c, 15, 52, 100
28, 248729, Note_on_c, 15, 52, 0
28, 248730, Note_on_c, 15, 50, 100
28, 248759, Note_on_c, 15, 50, 0
28, 248760, Note_on_c, 15, 49, 100
28, 248819, Note_on_c, 15, 49, 0
28, 248820, Note_on_c, 15, 47, 100
28, 248879, Note_on_c, 15, 47, 0
28, 248880, Note_on_c, 15, 45, 100
28, 248939, Note_on_c, 15, 45, 0
28, 248940, Note_on_c, 15, 49, 100
28, 248999, Note_on_c, 15, 49, 0
28, 249000, Note_on_c, 15, 47, 100
28, 249059, Note_on_c, 15, 47, 0
28, 249060, Note_on_c, 15, 45, 100
28, 249119, Note_on_c, 15, 45, 0
28, 249120, Note_on_c, 15, 40, 100
28, 249179, Note_on_c, 15, 40, 0
28, 249180, Note_on_c, 15, 52, 100
28, 249239, Note_on_c, 15, 52, 0
28, 249240, Note_on_c, 15, 40, 100
28, 249299, Note_on_c, 15, 40, 0
28, 249300, Note_on_c, 15, 40, 100
28, 249359, Note_on_c, 15, 40, 0
28, 249360, Note_on_c, 15, 52, 100
28, 249419, Note_on_c, 15, 52, 0
28, 249420, Note_on_c, 15, 40, 100
28, 249479, Note_on_c, 15, 40, 0
28, 249480, Note_on_c, 15, 45, 100
28, 249539, Note_on_c, 15, 45, 0
28, 249540, Note_on_c, 15, 50, 100
28, 249599, Note_on_c, 15, 50, 0
28, 249600, Note_on_c, 15, 47, 100
28, 249659, Note_on_c, 15, 47, 0
28, 249660, Note_on_c, 15, 52, 100
28, 249719, Note_on_c, 15, 52, 0
28, 249720, Note_on_c, 15, 40, 100
28, 249779, Note_on_c, 15, 40, 0
28, 249780, Note_on_c, 15, 52, 100
28, 249839, Note_on_c, 15, 52, 0
28, 249840, Note_on_c, 15, 57, 100
28, 249899, Note_on_c, 15, 57, 0
28, 249900, Note_on_c, 15, 50, 100
28, 249959, Note_on_c, 15, 50, 0
28, 249960, Note_on_c, 15, 52, 100
28, 250019, Note_on_c, 15, 52, 0
28, 250020, Note_on_c, 15, 45, 100
28, 250049, Note_on_c, 15, 45, 0
28, 250050, Note_on_c, 15, 47, 100
28, 250079, Note_on_c, 15, 47, 0
28, 250080, Note_on_c, 15, 45, 100
28, 250109, Note_on_c, 15, 45, 0
28, 250110, Note_on_c, 15, 47, 100
28, 250139, Note_on_c, 15, 47, 0
28, 250140, Note_on_c, 15, 49, 100
28, 250169, Note_on_c, 15, 49, 0
28, 250170, Note_on_c, 15, 47, 100
28, 250199, Note_on_c, 15, 47, 0
28, 250200, Note_on_c, 15, 45, 100
28, 250259, Note_on_c, 15, 45, 0
28, 250260, Note_on_c, 15, 57, 100
28, 250319, Note_on_c, 15, 57, 0
28, 250320, Note_on_c, 15, 55, 100
28, 250379, Note_on_c, 15, 55, 0
28, 250380, Note_on_c, 15, 54, 100
28, 250439, Note_on_c, 15, 54, 0
28, 250440, Note_on_c, 15, 52, 100
28, 250499, Note_on_c, 15, 52, 0
28, 250500, Note_on_c, 15, 54, 100
28, 250559, Note_on_c, 15, 54, 0
28, 250560, Note_on_c, 15, 43, 100
28, 250619, Note_on_c, 15, 43, 0
28, 250620, Note_on_c, 15, 55, 100
28, 250679, Note_on_c, 15, 55, 0
28, 250680, Note_on_c, 15, 54, 100
28, 250739, Note_on_c, 15, 54, 0
28, 250740, Note_on_c, 15, 52, 100
28, 250799, Note_on_c, 15, 52, 0
28, 250800, Note_on_c, 15, 49, 100
28, 250859, Note_on_c, 15, 49, 0
28, 250860, Note_on_c, 15, 52, 100
28, 250919, Note_on_c, 15, 52, 0
28, 250920, Note_on_c, 15, 42, 100
28, 250979, Note_on_c, 15, 42, 0
28, 250980, Note_on_c, 15, 54, 100
28, 251039, Note_on_c, 15, 54, 0
28, 251040, Note_on_c, 15, 52, 100
28, 251099, Note_on_c, 15, 52, 0
28, 251100, Note_on_c, 15, 50, 100
28, 251159, Note_on_c, 15, 50, 0
28, 251160, Note_on_c, 15, 47, 100
28, 251219, Note_on_c, 15, 47, 0
28, 251220, Note_on_c, 15, 50, 100
28, 251279, Note_on_c, 15, 50, 0
28, 251280, Note_on_c, 15, 40, 100
28, 251339, Note_on_c, 15, 40, 0
28, 251340, Note_on_c, 15, 42, 100
28, 251399, Note_on_c, 15, 42, 0
28, 251400, Note_on_c, 15, 43, 100
28, 251459, Note_on_c, 15, 43, 0
28, 251460, Note_on_c, 15, 42, 100
28, 251519, Note_on_c, 15, 42, 0
28, 251520, Note_on_c, 15, 42, 100
28, 251579, Note_on_c, 15, 42, 0
28, 251580, Note_on_c, 15, 42, 100
28, 251639, Note_on_c, 15, 42, 0
28, 251640, Note_on_c, 15, 42, 100
28, 251699, Note_on_c, 15, 42, 0
28, 251700, Note_on_c, 15, 42, 100
28, 251759, Note_on_c, 15, 42, 0
28, 251760, Note_on_c, 15, 42, 100
28, 251819, Note_on_c, 15, 42, 0
28, 251820, Note_on_c, 15, 42, 100
28, 251879, Note_on_c, 15, 42, 0
28, 251880, Note_on_c, 15, 42, 100
28, 251939, Note_on_c, 15, 42, 0
28, 251940, Note_on_c, 15, 42, 100
28, 251999, Note_on_c, 15, 42, 0
28, 252000, Note_on_c, 15, 42, 100
28, 252059, Note_on_c, 15, 42, 0
28, 252060, Note_on_c, 15, 42, 100
28, 252119, Note_on_c, 15, 42, 0
28, 252120, Note_on_c, 15, 42, 100
28, 252179, Note_on_c, 15, 42, 0
28, 252180, Note_on_c, 15, 42, 100
28, 252239, Note_on_c, 15, 42, 0
28, 252240, Note_on_c, 15, 54, 100
28, 252299, Note_on_c, 15, 54, 0
28, 252300, Note_on_c, 15, 52, 100
28, 252359, Note_on_c, 15, 52, 0
28, 252360, Note_on_c, 15, 50, 100
28, 252389, Note_on_c, 15, 50, 0
28, 252390, Note_on_c, 15, 52, 100
28, 252419, Note_on_c, 15, 52, 0
28, 252420, Note_on_c, 15, 50, 100
28, 252449, Note_on_c, 15, 50, 0
28, 252450, Note_on_c, 15, 52, 100
28, 252479, Note_on_c, 15, 52, 0
28, 252480, Note_on_c, 15, 54, 100
28, 252509, Note_on_c, 15, 54, 0
28, 252510, Note_on_c, 15, 52, 100
28, 252539, Note_on_c, 15, 52, 0
28, 252540, Note_on_c, 15, 50, 100
28, 252569, Note_on_c, 15, 50, 0
28, 252570, Note_on_c, 15, 52, 100
28, 252599, Note_on_c, 15, 52, 0
28, 252600, Note_on_c, 15, 50, 100
28, 252629, Note_on_c, 15, 50, 0
28, 252630, Note_on_c, 15, 52, 100
28, 252659, Note_on_c, 15, 52, 0
28, 252660, Note_on_c, 15, 54, 100
28, 252689, Note_on_c, 15, 54, 0
28, 252690, Note_on_c, 15, 50, 100
28, 252719, Note_on_c, 15, 50, 0
28, 252720, Note_on_c, 15, 51, 100
28, 252749, Note_on_c, 15, 51, 0
28, 252750, Note_on_c, 15, 52, 100
28, 252779, Note_on_c, 15, 52, 0
28, 252780, Note_on_c, 15, 51, 100
28, 252809, Note_on_c, 15, 51, 0
28, 252810, Note_on_c, 15, 52, 100
28, 252839, Note_on_c, 15, 52, 0
28, 252840, Note_on_c, 15, 54, 100
28, 252869, Note_on_c, 15, 54, 0
28, 252870, Note_on_c, 15, 52, 100
28, 252899, Note_on_c, 15, 52, 0
28, 252900, Note_on_c, 15, 51, 100
28, 252929, Note_on_c, 15, 51, 0
28, 252930, Note_on_c, 15, 52, 100
28, 252959, Note_on_c, 15, 52, 0
28, 252960, Note_on_c, 15, 51, 100
28, 252989, Note_on_c, 15, 51, 0
28, 252990, Note_on_c, 15, 52, 100
28, 253019, Note_on_c, 15, 52, 0
28, 253020, Note_on_c, 15, 54, 100
28, 253049, Note_on_c, 15, 54, 0
28, 253050, Note_on_c, 15, 51, 100
28, 253079, Note_on_c, 15, 51, 0
28, 253080, Note_on_c, 15, 52, 100
28, 253109, Note_on_c, 15, 52, 0
28, 253110, Note_on_c, 15, 54, 100
28, 253139, Note_on_c, 15, 54, 0
28, 253140, Note_on_c, 15, 52, 100
28, 253169, Note_on_c, 15, 52, 0
28, 253170, Note_on_c, 15, 54, 100
28, 253199, Note_on_c, 15, 54, 0
28, 253200, Note_on_c, 15, 55, 100
28, 253229, Note_on_c, 15, 55, 0
28, 253230, Note_on_c, 15, 52, 100
28, 253259, Note_on_c, 15, 52, 0
28, 253260, Note_on_c, 15, 54, 100
28, 253319, Note_on_c, 15, 54, 0
28, 253320, Note_on_c, 15, 46, 100
28, 253379, Note_on_c, 15, 46, 0
28, 253380, Note_on_c, 15, 47, 100
28, 253439, Note_on_c, 15, 47, 0
28, 253440, Note_on_c, 15, 40, 100
28, 253499, Note_on_c, 15, 40, 0
28, 253500, Note_on_c, 15, 42, 100
28, 253559, Note_on_c, 15, 42, 0
28, 253560, Note_on_c, 15, 42, 100
28, 253619, Note_on_c, 15, 42, 0
28, 253620, Note_on_c, 15, 47, 100
28, 253649, Note_on_c, 15, 47, 0
28, 253650, Note_on_c, 15, 49, 100
28, 253679, Note_on_c, 15, 49, 0
28, 253680, Note_on_c, 15, 47, 100
28, 253709, Note_on_c, 15, 47, 0
28, 253710, Note_on_c, 15, 49, 100
28, 253739, Note_on_c, 15, 49, 0
28, 253740, Note_on_c, 15, 50, 100
28, 253769, Note_on_c, 15, 50, 0
28, 253770, Note_on_c, 15, 49, 100
28, 253799, Note_on_c, 15, 49, 0
28, 253800, Note_on_c, 15, 47, 100
28, 253829, Note_on_c, 15, 47, 0
28, 253830, Note_on_c, 15, 49, 100
28, 253859, Note_on_c, 15, 49, 0
28, 253860, Note_on_c, 15, 47, 100
28, 253889, Note_on_c, 15, 47, 0
28, 253890, Note_on_c, 15, 49, 100
28, 253919, Note_on_c, 15, 49, 0
28, 253920, Note_on_c, 15, 51, 100
28, 253949, Note_on_c, 15, 51, 0
28, 253950, Note_on_c, 15, 49, 100
28, 253979, Note_on_c, 15, 49, 0
28, 253980, Note_on_c, 15, 47, 100
28, 254009, Note_on_c, 15, 47, 0
28, 254010, Note_on_c, 15, 49, 100
28, 254039, Note_on_c, 15, 49, 0
28, 254040, Note_on_c, 15, 47, 100
28, 254069, Note_on_c, 15, 47, 0
28, 254070, Note_on_c, 15, 49, 100
28, 254099, Note_on_c, 15, 49, 0
28, 254100, Note_on_c, 15, 51, 100
28, 254129, Note_on_c, 15, 51, 0
28, 254130, Note_on_c, 15, 47, 100
28, 254159, Note_on_c, 15, 47, 0
28, 254160, Note_on_c, 15, 52, 100
28, 254219, Note_on_c, 15, 52, 0
28, 254220, Note_on_c, 15, 47, 100
28, 254279, Note_on_c, 15, 47, 0
28, 254280, Note_on_c, 15, 43, 100
28, 254339, Note_on_c, 15, 43, 0
28, 254340, Note_on_c, 15, 47, 100
28, 254399, Note_on_c, 15, 47, 0
28, 254400, Note_on_c, 15, 43, 100
28, 254459, Note_on_c, 15, 43, 0
28, 254460, Note_on_c, 15, 40, 100
28, 254519, Note_on_c, 15, 40, 0
28, 254520, Note_on_c, 15, 45, 100
28, 254549, Note_on_c, 15, 45, 0
28, 254550, Note_on_c, 15, 47, 100
28, 254579, Note_on_c, 15, 47, 0
28, 254580, Note_on_c, 15, 45, 100
28, 254609, Note_on_c, 15, 45, 0
28, 254610, Note_on_c, 15, 47, 100
28, 254639, Note_on_c, 15, 47, 0
28, 254640, Note_on_c, 15, 49, 100
28, 254669, Note_on_c, 15, 49, 0
28, 254670, Note_on_c, 15, 47, 100
28, 254699, Note_on_c, 15, 47, 0
28, 254700, Note_on_c, 15, 45, 100
28, 254729, Note_on_c, 15, 45, 0
28, 254730, Note_on_c, 15, 47, 100
28, 254759, Note_on_c, 15, 47, 0
28, 254760, Note_on_c, 15, 45, 100
28, 254789, Note_on_c, 15, 45, 0
28, 254790, Note_on_c, 15, 47, 100
28, 254819, Note_on_c, 15, 47, 0
28, 254820, Note_on_c, 15, 49, 100
28, 254849, Note_on_c, 15, 49, 0
28, 254850, Note_on_c, 15, 45, 100
28, 254879, Note_on_c, 15, 45, 0
28, 254880, Note_on_c, 15, 50, 100
28, 254939, Note_on_c, 15, 50, 0
28, 254940, Note_on_c, 15, 45, 100
28, 254999, Note_on_c, 15, 45, 0
28, 255000, Note_on_c, 15, 42, 100
28, 255059, Note_on_c, 15, 42, 0
28, 255060, Note_on_c, 15, 45, 100
28, 255119, Note_on_c, 15, 45, 0
28, 255120, Note_on_c, 15, 42, 100
28, 255179, Note_on_c, 15, 42, 0
28, 255180, Note_on_c, 15, 38, 100
28, 255239, Note_on_c, 15, 38, 0
28, 255240, Note_on_c, 15, 38, 100
28, 255299, Note_on_c, 15, 38, 0
28, 255300, Note_on_c, 15, 50, 100
28, 255359, Note_on_c, 15, 50, 0
28, 255360, Note_on_c, 15, 38, 100
28, 255419, Note_on_c, 15, 38, 0
28, 255420, Note_on_c, 15, 38, 100
28, 255479, Note_on_c, 15, 38, 0
28, 255480, Note_on_c, 15, 50, 100
28, 255539, Note_on_c, 15, 50, 0
28, 255540, Note_on_c, 15, 38, 100
28, 255599, Note_on_c, 15, 38, 0
28, 255600, Note_on_c, 15, 38, 100
28, 255659, Note_on_c, 15, 38, 0
28, 255660, Note_on_c, 15, 50, 100
28, 255719, Note_on_c, 15, 50, 0
28, 255720, Note_on_c, 15, 38, 100
28, 255779, Note_on_c, 15, 38, 0
28, 255780, Note_on_c, 15, 38, 100
28, 255839, Note_on_c, 15, 38, 0
28, 255840, Note_on_c, 15, 50, 100
28, 255899, Note_on_c, 15, 50, 0
28, 255900, Note_on_c, 15, 38, 100
28, 255959, Note_on_c, 15, 38, 0
28, 255960, Note_on_c, 15, 50, 100
28, 255989, Note_on_c, 15, 50, 0
28, 255990, Note_on_c, 15, 52, 100
28, 256019, Note_on_c, 15, 52, 0
28, 256020, Note_on_c, 15, 50, 100
28, 256049, Note_on_c, 15, 50, 0
28, 256050, Note_on_c, 15, 52, 100
28, 256079, Note_on_c, 15, 52, 0
28, 256080, Note_on_c, 15, 54, 100
28, 256109, Note_on_c, 15, 54, 0
28, 256110, Note_on_c, 15, 52, 100
28, 256139, Note_on_c, 15, 52, 0
28, 256140, Note_on_c, 15, 50, 100
28, 256169, Note_on_c, 15, 50, 0
28, 256170, Note_on_c, 15, 52, 100
28, 256199, Note_on_c, 15, 52, 0
28, 256200, Note_on_c, 15, 50, 100
28, 256229, Note_on_c, 15, 50, 0
28, 256230, Note_on_c, 15, 52, 100
28, 256259, Note_on_c, 15, 52, 0
28, 256260, Note_on_c, 15, 54, 100
28, 256289, Note_on_c, 15, 54, 0
28, 256290, Note_on_c, 15, 50, 100
28, 256319, Note_on_c, 15, 50, 0
28, 256320, Note_on_c, 15, 55, 100
28, 256379, Note_on_c, 15, 55, 0
28, 256380, Note_on_c, 15, 52, 100
28, 256439, Note_on_c, 15, 52, 0
28, 256440, Note_on_c, 15, 57, 100
28, 256499, Note_on_c, 15, 57, 0
28, 256500, Note_on_c, 15, 50, 100
28, 256559, Note_on_c, 15, 50, 0
28, 256560, Note_on_c, 15, 49, 100
28, 256619, Note_on_c, 15, 49, 0
28, 256620, Note_on_c, 15, 47, 100
28, 256679, Note_on_c, 15, 47, 0
28, 256680, Note_on_c, 15, 45, 100
28, 256739, Note_on_c, 15, 45, 0
28, 256740, Note_on_c, 15, 57, 100
28, 256799, Note_on_c, 15, 57, 0
28, 256800, Note_on_c, 15, 45, 100
28, 256859, Note_on_c, 15, 45, 0
28, 256860, Note_on_c, 15, 45, 100
28, 256919, Note_on_c, 15, 45, 0
28, 256920, Note_on_c, 15, 57, 100
28, 256979, Note_on_c, 15, 57, 0
28, 256980, Note_on_c, 15, 45, 100
28, 257039, Note_on_c, 15, 45, 0
28, 257040, Note_on_c, 15, 45, 100
28, 257099, Note_on_c, 15, 45, 0
28, 257100, Note_on_c, 15, 57, 100
28, 257159, Note_on_c, 15, 57, 0
28, 257160, Note_on_c, 15, 45, 100
28, 257219, Note_on_c, 15, 45, 0
28, 257220, Note_on_c, 15, 45, 100
28, 257279, Note_on_c, 15, 45, 0
28, 257280, Note_on_c, 15, 57, 100
28, 257339, Note_on_c, 15, 57, 0
28, 257340, Note_on_c, 15, 45, 100
28, 257399, Note_on_c, 15, 45, 0
28, 257400, Note_on_c, 15, 45, 100
28, 257459, Note_on_c, 15, 45, 0
28, 257460, Note_on_c, 15, 57, 100
28, 257519, Note_on_c, 15, 57, 0
28, 257520, Note_on_c, 15, 45, 100
28, 257579, Note_on_c, 15, 45, 0
28, 257580, Note_on_c, 15, 45, 100
28, 257639, Note_on_c, 15, 45, 0
28, 257640, Note_on_c, 15, 49, 100
28, 257699, Note_on_c, 15, 49, 0
28, 257700, Note_on_c, 15, 50, 100
28, 257759, Note_on_c, 15, 50, 0
28, 257760, Note_on_c, 15, 42, 100
28, 257819, Note_on_c, 15, 42, 0
28, 257820, Note_on_c, 15, 45, 100
28, 257879, Note_on_c, 15, 45, 0
28, 257880, Note_on_c, 15, 45, 100
28, 257939, Note_on_c, 15, 45, 0
28, 257940, Note_on_c, 15, 38, 100
28, 257999, Note_on_c, 15, 38, 0
28, 258000, Note_on_c, 15, 50, 100
28, 258059, Note_on_c, 15, 50, 0
28, 258060, Note_on_c, 15, 38, 100
28, 258119, Note_on_c, 15, 38, 0
28, 258120, Note_on_c, 15, 50, 100
28, 258149, Note_on_c, 15, 50, 0
28, 258150, Note_on_c, 15, 52, 100
28, 258179, Note_on_c, 15, 52, 0
28, 258180, Note_on_c, 15, 54, 100
28, 258209, Note_on_c, 15, 54, 0
28, 258210, Note_on_c, 15, 55, 100
28, 258239, Note_on_c, 15, 55, 0
28, 258240, Note_on_c, 15, 57, 100
28, 258269, Note_on_c, 15, 57, 0
28, 258270, Note_on_c, 15, 55, 100
28, 258299, Note_on_c, 15, 55, 0
28, 258300, Note_on_c, 15, 54, 100
28, 258329, Note_on_c, 15, 54, 0
28, 258330, Note_on_c, 15, 55, 100
28, 258359, Note_on_c, 15, 55, 0
28, 258360, Note_on_c, 15, 54, 100
28, 258389, Note_on_c, 15, 54, 0
28, 258390, Note_on_c, 15, 55, 100
28, 258419, Note_on_c, 15, 55, 0
28, 258420, Note_on_c, 15, 57, 100
28, 258449, Note_on_c, 15, 57, 0
28, 258450, Note_on_c, 15, 54, 100
28, 258479, Note_on_c, 15, 54, 0
28, 258480, Note_on_c, 15, 55, 100
28, 258539, Note_on_c, 15, 55, 0
28, 258540, Note_on_c, 15, 52, 100
28, 258599, Note_on_c, 15, 52, 0
28, 258600, Note_on_c, 15, 57, 100
28, 258659, Note_on_c, 15, 57, 0
28, 258660, Note_on_c, 15, 50, 100
28, 258689, Note_on_c, 15, 50, 0
28, 258690, Note_on_c, 15, 52, 100
28, 258719, Note_on_c, 15, 52, 0
28, 258720, Note_on_c, 15, 50, 100
28, 258749, Note_on_c, 15, 50, 0
28, 258750, Note_on_c, 15, 52, 100
28, 258779, Note_on_c, 15, 52, 0
28, 258780, Note_on_c, 15, 54, 100
28, 258809, Note_on_c, 15, 54, 0
28, 258810, Note_on_c, 15, 52, 100
28, 258839, Note_on_c, 15, 52, 0
28, 258840, Note_on_c, 15, 50, 100
28, 258869, Note_on_c, 15, 50, 0
28, 258870, Note_on_c, 15, 52, 100
28, 258899, Note_on_c, 15, 52, 0
28, 258900, Note_on_c, 15, 50, 100
28, 258929, Note_on_c, 15, 50, 0
28, 258930, Note_on_c, 15, 52, 100
28, 258959, Note_on_c, 15, 52, 0
28, 258960, Note_on_c, 15, 54, 100
28, 258989, Note_on_c, 15, 54, 0
28, 258990, Note_on_c, 15, 50, 100
28, 259019, Note_on_c, 15, 50, 0
28, 259020, Note_on_c, 15, 55, 100
28, 259049, Note_on_c, 15, 55, 0
28, 259050, Note_on_c, 15, 54, 100
28, 259079, Note_on_c, 15, 54, 0
28, 259080, Note_on_c, 15, 55, 100
28, 259109, Note_on_c, 15, 55, 0
28, 259110, Note_on_c, 15, 57, 100
28, 259139, Note_on_c, 15, 57, 0
28, 259140, Note_on_c, 15, 55, 100
28, 259169, Note_on_c, 15, 55, 0
28, 259170, Note_on_c, 15, 54, 100
28, 259199, Note_on_c, 15, 54, 0
28, 259200, Note_on_c, 15, 52, 100
28, 259229, Note_on_c, 15, 52, 0
28, 259230, Note_on_c, 15, 54, 100
28, 259259, Note_on_c, 15, 54, 0
28, 259260, Note_on_c, 15, 52, 100
28, 259289, Note_on_c, 15, 52, 0
28, 259290, Note_on_c, 15, 54, 100
28, 259319, Note_on_c, 15, 54, 0
28, 259320, Note_on_c, 15, 56, 100
28, 259349, Note_on_c, 15, 56, 0
28, 259350, Note_on_c, 15, 52, 100
28, 259379, Note_on_c, 15, 52, 0
28, 259380, Note_on_c, 15, 57, 100
28, 259409, Note_on_c, 15, 57, 0
28, 259410, Note_on_c, 15, 59, 100
28, 259439, Note_on_c, 15, 59, 0
28, 259440, Note_on_c, 15, 57, 100
28, 259469, Note_on_c, 15, 57, 0
28, 259470, Note_on_c, 15, 59, 100
28, 259499, Note_on_c, 15, 59, 0
28, 259500, Note_on_c, 15, 61, 100
28, 259529, Note_on_c, 15, 61, 0
28, 259530, Note_on_c, 15, 57, 100
28, 259559, Note_on_c, 15, 57, 0
28, 259560, Note_on_c, 15, 54, 100
28, 259619, Note_on_c, 15, 54, 0
28, 259620, Note_on_c, 15, 57, 100
28, 259679, Note_on_c, 15, 57, 0
28, 259680, Note_on_c, 15, 54, 100
28, 259739, Note_on_c, 15, 54, 0
28, 259740, Note_on_c, 15, 51, 100
28, 259799, Note_on_c, 15, 51, 0
28, 259800, Note_on_c, 15, 47, 100
28, 259859, Note_on_c, 15, 47, 0
28, 259860, Note_on_c, 15, 51, 100
28, 259919, Note_on_c, 15, 51, 0
28, 259920, Note_on_c, 15, 52, 100
28, 259979, Note_on_c, 15, 52, 0
28, 259980, Note_on_c, 15, 64, 100
28, 260039, Note_on_c, 15, 64, 0
28, 260040, Note_on_c, 15, 52, 100
28, 260099, Note_on_c, 15, 52, 0
28, 260100, Note_on_c, 15, 52, 100
28, 260159, Note_on_c, 15, 52, 0
28, 260160, Note_on_c, 15, 64, 100
28, 260219, Note_on_c, 15, 64, 0
28, 260220, Note_on_c, 15, 52, 100
28, 260279, Note_on_c, 15, 52, 0
28, 260280, Note_on_c, 15, 52, 100
28, 260339, Note_on_c, 15, 52, 0
28, 260340, Note_on_c, 15, 55, 100
28, 260399, Note_on_c, 15, 55, 0
28, 260400, Note_on_c, 15, 49, 100
28, 260459, Note_on_c, 15, 49, 0
28, 260460, Note_on_c, 15, 49, 100
28, 260519, Note_on_c, 15, 49, 0
28, 260520, Note_on_c, 15, 52, 100
28, 260579, Note_on_c, 15, 52, 0
28, 260580, Note_on_c, 15, 45, 100
28, 260639, Note_on_c, 15, 45, 0
28, 260640, Note_on_c, 15, 50, 100
28, 260699, Note_on_c, 15, 50, 0
28, 260700, Note_on_c, 15, 62, 100
28, 260759, Note_on_c, 15, 62, 0
28, 260760, Note_on_c, 15, 50, 100
28, 260819, Note_on_c, 15, 50, 0
28, 260820, Note_on_c, 15, 50, 100
28, 260879, Note_on_c, 15, 50, 0
28, 260880, Note_on_c, 15, 62, 100
28, 260939, Note_on_c, 15, 62, 0
28, 260940, Note_on_c, 15, 50, 100
28, 260999, Note_on_c, 15, 50, 0
28, 261000, Note_on_c, 15, 43, 100
28, 261029, Note_on_c, 15, 43, 0
28, 261030, Note_on_c, 15, 57, 100
28, 261059, Note_on_c, 15, 57, 0
28, 261060, Note_on_c, 15, 55, 100
28, 261089, Note_on_c, 15, 55, 0
28, 261090, Note_on_c, 15, 54, 100
28, 261119, Note_on_c, 15, 54, 0
28, 261120, Note_on_c, 15, 52, 100
28, 261149, Note_on_c, 15, 52, 0
28, 261150, Note_on_c, 15, 50, 100
28, 261179, Note_on_c, 15, 50, 0
28, 261180, Note_on_c, 15, 49, 100
28, 261239, Note_on_c, 15, 49, 0
28, 261240, Note_on_c, 15, 61, 100
28, 261299, Note_on_c, 15, 61, 0
28, 261300, Note_on_c, 15, 49, 100
28, 261359, Note_on_c, 15, 49, 0
28, 261360, Note_on_c, 15, 42, 100
28, 261389, Note_on_c, 15, 42, 0
28, 261390, Note_on_c, 15, 55, 100
28, 261419, Note_on_c, 15, 55, 0
28, 261420, Note_on_c, 15, 54, 100
28, 261449, Note_on_c, 15, 54, 0
28, 261450, Note_on_c, 15, 52, 100
28, 261479, Note_on_c, 15, 52, 0
28, 261480, Note_on_c, 15, 50, 100
28, 261509, Note_on_c, 15, 50, 0
28, 261510, Note_on_c, 15, 49, 100
28, 261539, Note_on_c, 15, 49, 0
28, 261540, Note_on_c, 15, 47, 100
28, 261599, Note_on_c, 15, 47, 0
28, 261600, Note_on_c, 15, 59, 100
28, 261659, Note_on_c, 15, 59, 0
28, 261660, Note_on_c, 15, 47, 100
28, 261719, Note_on_c, 15, 47, 0
28, 261720, Note_on_c, 15, 40, 100
28, 261749, Note_on_c, 15, 40, 0
28, 261750, Note_on_c, 15, 54, 100
28, 261779, Note_on_c, 15, 54, 0
28, 261780, Note_on_c, 15, 52, 100
28, 261809, Note_on_c, 15, 52, 0
28, 261810, Note_on_c, 15, 50, 100
28, 261839, Note_on_c, 15, 50, 0
28, 261840, Note_on_c, 15, 49, 100
28, 261869, Note_on_c, 15, 49, 0
28, 261870, Note_on_c, 15, 47, 100
28, 261899, Note_on_c, 15, 47, 0
28, 261900, Note_on_c, 15, 45, 100
28, 261959, Note_on_c, 15, 45, 0
28, 261960, Note_on_c, 15, 57, 100
28, 262019, Note_on_c, 15, 57, 0
28, 262020, Note_on_c, 15, 45, 100
28, 262079, Note_on_c, 15, 45, 0
28, 262080, Note_on_c, 15, 38, 100
28, 262109, Note_on_c, 15, 38, 0
28, 262110, Note_on_c, 15, 50, 100
28, 262139, Note_on_c, 15, 50, 0
28, 262140, Note_on_c, 15, 49, 100
28, 262169, Note_on_c, 15, 49, 0
28, 262170, Note_on_c, 15, 47, 100
28, 262199, Note_on_c, 15, 47, 0
28, 262200, Note_on_c, 15, 45, 100
28, 262229, Note_on_c, 15, 45, 0
28, 262230, Note_on_c, 15, 43, 100
28, 262259, Note_on_c, 15, 43, 0
28, 262260, Note_on_c, 15, 42, 100
28, 262289, Note_on_c, 15, 42, 0
28, 262290, Note_on_c, 15, 45, 100
28, 262319, Note_on_c, 15, 45, 0
28, 262320, Note_on_c, 15, 43, 100
28, 262349, Note_on_c, 15, 43, 0
28, 262350, Note_on_c, 15, 42, 100
28, 262379, Note_on_c, 15, 42, 0
28, 262380, Note_on_c, 15, 40, 100
28, 262409, Note_on_c, 15, 40, 0
28, 262410, Note_on_c, 15, 38, 100
28, 262439, Note_on_c, 15, 38, 0
28, 262440, Note_on_c, 15, 45, 100
28, 262499, Note_on_c, 15, 45, 0
28, 262500, Note_on_c, 15, 57, 100
28, 262559, Note_on_c, 15, 57, 0
28, 262560, Note_on_c, 15, 45, 100
28, 262619, Note_on_c, 15, 45, 0
28, 262620, Note_on_c, 15, 45, 100
28, 262679, Note_on_c, 15, 45, 0
28, 262680, Note_on_c, 15, 57, 100
28, 262739, Note_on_c, 15, 57, 0
28, 262740, Note_on_c, 15, 45, 100
28, 262799, Note_on_c, 15, 45, 0
28, 262800, Note_on_c, 15, 45, 100
28, 262859, Note_on_c, 15, 45, 0
28, 262860, Note_on_c, 15, 57, 100
28, 262919, Note_on_c, 15, 57, 0
28, 262920, Note_on_c, 15, 45, 100
28, 262979, Note_on_c, 15, 45, 0
28, 262980, Note_on_c, 15, 45, 100
28, 263039, Note_on_c, 15, 45, 0
28, 263040, Note_on_c, 15, 57, 100
28, 263099, Note_on_c, 15, 57, 0
28, 263100, Note_on_c, 15, 45, 100
28, 263159, Note_on_c, 15, 45, 0
28, 263160, Note_on_c, 15, 45, 100
28, 263219, Note_on_c, 15, 45, 0
28, 263220, Note_on_c, 15, 57, 100
28, 263279, Note_on_c, 15, 57, 0
28, 263280, Note_on_c, 15, 45, 100
28, 263339, Note_on_c, 15, 45, 0
28, 263340, Note_on_c, 15, 45, 100
28, 263399, Note_on_c, 15, 45, 0
28, 263400, Note_on_c, 15, 49, 100
28, 263459, Note_on_c, 15, 49, 0
28, 263460, Note_on_c, 15, 50, 100
28, 263519, Note_on_c, 15, 50, 0
28, 263520, Note_on_c, 15, 42, 100
28, 263579, Note_on_c, 15, 42, 0
28, 263580, Note_on_c, 15, 45, 100
28, 263639, Note_on_c, 15, 45, 0
28, 263640, Note_on_c, 15, 45, 100
28, 263699, Note_on_c, 15, 45, 0
28, 263700, Note_on_c, 15, 50, 100
28, 263729, Note_on_c, 15, 50, 0
28, 263730, Note_on_c, 15, 52, 100
28, 263759, Note_on_c, 15, 52, 0
28, 263760, Note_on_c, 15, 50, 100
28, 263789, Note_on_c, 15, 50, 0
28, 263790, Note_on_c, 15, 49, 100
28, 263819, Note_on_c, 15, 49, 0
28, 263820, Note_on_c, 15, 47, 100
28, 263849, Note_on_c, 15, 47, 0
28, 263850, Note_on_c, 15, 45, 100
28, 263879, Note_on_c, 15, 45, 0
28, 263880, Note_on_c, 15, 43, 100
28, 263909, Note_on_c, 15, 43, 0
28, 263910, Note_on_c, 15, 54, 100
28, 263939, Note_on_c, 15, 54, 0
28, 263940, Note_on_c, 15, 52, 100
28, 263969, Note_on_c, 15, 52, 0
28, 263970, Note_on_c, 15, 50, 100
28, 263999, Note_on_c, 15, 50, 0
28, 264000, Note_on_c, 15, 49, 100
28, 264029, Note_on_c, 15, 49, 0
28, 264030, Note_on_c, 15, 47, 100
28, 264059, Note_on_c, 15, 47, 0
28, 264060, Note_on_c, 15, 45, 100
28, 264089, Note_on_c, 15, 45, 0
28, 264090, Note_on_c, 15, 55, 100
28, 264119, Note_on_c, 15, 55, 0
28, 264120, Note_on_c, 15, 54, 100
28, 264149, Note_on_c, 15, 54, 0
28, 264150, Note_on_c, 15, 52, 100
28, 264179, Note_on_c, 15, 52, 0
28, 264180, Note_on_c, 15, 50, 100
28, 264209, Note_on_c, 15, 50, 0
28, 264210, Note_on_c, 15, 49, 100
28, 264239, Note_on_c, 15, 49, 0
28, 264240, Note_on_c, 15, 47, 100
28, 264299, Note_on_c, 15, 47, 0
28, 264300, Note_on_c, 15, 49, 100
28, 264359, Note_on_c, 15, 49, 0
28, 264360, Note_on_c, 15, 50, 100
28, 264419, Note_on_c, 15, 50, 0
28, 264420, Note_on_c, 15, 52, 100
28, 264479, Note_on_c, 15, 52, 0
28, 264480, Note_on_c, 15, 54, 100
28, 264539, Note_on_c, 15, 54, 0
28, 264540, Note_on_c, 15, 55, 100
28, 264599, Note_on_c, 15, 55, 0
28, 264600, Note_on_c, 15, 57, 100
28, 264659, Note_on_c, 15, 57, 0
28, 264660, Note_on_c, 15, 59, 100
28, 264719, Note_on_c, 15, 59, 0
28, 264720, Note_on_c, 15, 61, 100
28, 264779, Note_on_c, 15, 61, 0
28, 264780, Note_on_c, 15, 62, 100
28, 264839, Note_on_c, 15, 62, 0
28, 264840, Note_on_c, 15, 64, 100
28, 264899, Note_on_c, 15, 64, 0
28, 264900, Note_on_c, 15, 66, 100
28, 264959, Note_on_c, 15, 66, 0
28, 264960, Note_on_c, 15, 67, 100
28, 264989, Note_on_c, 15, 67, 0
28, 264990, Note_on_c, 15, 66, 100
28, 265019, Note_on_c, 15, 66, 0
28, 265020, Note_on_c, 15, 64, 100
28, 265049, Note_on_c, 15, 64, 0
28, 265050, Note_on_c, 15, 62, 100
28, 265079, Note_on_c, 15, 62, 0
28, 265080, Note_on_c, 15, 61, 100
28, 265109, Note_on_c, 15, 61, 0
28, 265110, Note_on_c, 15, 59, 100
28, 265139, Note_on_c, 15, 59, 0
28, 265140, Note_on_c, 15, 61, 100
28, 265169, Note_on_c, 15, 61, 0
28, 265170, Note_on_c, 15, 59, 100
28, 265199, Note_on_c, 15, 59, 0
28, 265200, Note_on_c, 15, 57, 100
28, 265229, Note_on_c, 15, 57, 0
28, 265230, Note_on_c, 15, 55, 100
28, 265259, Note_on_c, 15, 55, 0
28, 265260, Note_on_c, 15, 54, 100
28, 265289, Note_on_c, 15, 54, 0
28, 265290, Note_on_c, 15, 57, 100
28, 265319, Note_on_c, 15, 57, 0
28, 265320, Note_on_c, 15, 55, 100
28, 265349, Note_on_c, 15, 55, 0
28, 265350, Note_on_c, 15, 54, 100
28, 265379, Note_on_c, 15, 54, 0
28, 265380, Note_on_c, 15, 52, 100
28, 265409, Note_on_c, 15, 52, 0
28, 265410, Note_on_c, 15, 50, 100
28, 265439, Note_on_c, 15, 50, 0
28, 265440, Note_on_c, 15, 49, 100
28, 265469, Note_on_c, 15, 49, 0
28, 265470, Note_on_c, 15, 47, 100
28, 265499, Note_on_c, 15, 47, 0
28, 265500, Note_on_c, 15, 45, 100
28, 265529, Note_on_c, 15, 45, 0
28, 265530, Note_on_c, 15, 43, 100
28, 265559, Note_on_c, 15, 43, 0
28, 265560, Note_on_c, 15, 42, 100
28, 265589, Note_on_c, 15, 42, 0
28, 265590, Note_on_c, 15, 40, 100
28, 265619, Note_on_c, 15, 40, 0
28, 265620, Note_on_c, 15, 38, 100
28, 265649, Note_on_c, 15, 38, 0
28, 265650, Note_on_c, 15, 40, 100
28, 265679, Note_on_c, 15, 40, 0
28, 265680, Note_on_c, 15, 42, 100
28, 265709, Note_on_c, 15, 42, 0
28, 265710, Note_on_c, 15, 43, 100
28, 265739, Note_on_c, 15, 43, 0
28, 265740, Note_on_c, 15, 45, 100
28, 265799, Note_on_c, 15, 45, 0
28, 265800, Note_on_c, 15, 57, 100
28, 265859, Note_on_c, 15, 57, 0
28, 265980, Note_on_c, 15, 50, 100
28, 266040, Note_on_c, 15, 50, 0
28, 266040, Note_on_c, 15, 38, 100
28, 266100, Note_on_c, 15, 38, 0
28, 266100, Note_on_c, 15, 50, 100
28, 266160, Note_on_c, 15, 50, 0
28, 266160, Note_on_c, 15, 38, 100
28, 266220, Note_on_c, 15, 38, 0
28, 266220, Note_on_c, 15, 38, 100
28, 266280, Note_on_c, 15, 38, 0
28, 266280, Note_on_c, 15, 50, 100
28, 266340, Note_on_c, 15, 50, 0
28, 266340, Note_on_c, 15, 38, 100
28, 266400, Note_on_c, 15, 38, 0
28, 266400, Note_on_c, 15, 38, 100
28, 266460, Note_on_c, 15, 38, 0
28, 266460, Note_on_c, 15, 50, 100
28, 266520, Note_on_c, 15, 50, 0
28, 266520, Note_on_c, 15, 38, 100
28, 266580, Note_on_c, 15, 38, 0
28, 266580, Note_on_c, 15, 38, 100
28, 266640, Note_on_c, 15, 38, 0
28, 266640, Note_on_c, 15, 50, 100
28, 266700, Note_on_c, 15, 50, 0
28, 266700, Note_on_c, 15, 38, 100
28, 266760, Note_on_c, 15, 38, 0
28, 266760, Note_on_c, 15, 38, 100
28, 266790, Note_on_c, 15, 38, 0
28, 266790, Note_on_c, 15, 40, 100
28, 266820, Note_on_c, 15, 40, 0
28, 266820, Note_on_c, 15, 42, 100
28, 266850, Note_on_c, 15, 42, 0
28, 266850, Note_on_c, 15, 43, 100
28, 266880, Note_on_c, 15, 43, 0
28, 266880, Note_on_c, 15, 45, 100
28, 266910, Note_on_c, 15, 45, 0
28, 266910, Note_on_c, 15, 43, 100
28, 266940, Note_on_c, 15, 43, 0
28, 266940, Note_on_c, 15, 42, 100
28, 266970, Note_on_c, 15, 42, 0
28, 266970, Note_on_c, 15, 40, 100
28, 267000, Note_on_c, 15, 40, 0
28, 267000, Note_on_c, 15, 38, 100
28, 267030, Note_on_c, 15, 38, 0
28, 267030, Note_on_c, 15, 40, 100
28, 267060, Note_on_c, 15, 40, 0
28, 267060, Note_on_c, 15, 42, 100
28, 267090, Note_on_c, 15, 42, 0
28, 267090, Note_on_c, 15, 43, 100
28, 267120, Note_on_c, 15, 43, 0
28, 267120, Note_on_c, 15, 45, 100
28, 267180, Note_on_c, 15, 45, 0
28, 267180, Note_on_c, 15, 45, 100
28, 267210, Note_on_c, 15, 45, 0
28, 267210, Note_on_c, 15, 45, 100
28, 267240, Note_on_c, 15, 45, 0
28, 267240, Note_on_c, 15, 45, 100
28, 267270, Note_on_c, 15, 45, 0
28, 267270, Note_on_c, 15, 45, 100
28, 267300, Note_on_c, 15, 45, 0
28, 267300, Note_on_c, 15, 45, 100
28, 267360, Note_on_c, 15, 45, 0
28, 267360, Note_on_c, 15, 57, 100
28, 267420, Note_on_c, 15, 57, 0
28, 267420, Note_on_c, 15, 61, 100
28, 267480, Note_on_c, 15, 61, 0
28, 267480, Note_on_c, 15, 54, 100
28, 267540, Note_on_c, 15, 54, 0
28, 267540, Note_on_c, 15, 57, 100
28, 267600, Note_on_c, 15, 57, 0
28, 267600, Note_on_c, 15, 54, 100
28, 267660, Note_on_c, 15, 54, 0
28, 267660, Note_on_c, 15, 51, 100
28, 267720, Note_on_c, 15, 51, 0
28, 267720, Note_on_c, 15, 47, 100
28, 267780, Note_on_c, 15, 47, 0
28, 267780, Note_on_c, 15, 51, 100
28, 267840, Note_on_c, 15, 51, 0
28, 267840, Note_on_c, 15, 52, 100
28, 267900, Note_on_c, 15, 52, 0
28, 267900, Note_on_c, 15, 64, 100
28, 267960, Note_on_c, 15, 64, 0
28, 267960, Note_on_c, 15, 52, 100
28, 268020, Note_on_c, 15, 52, 0
28, 268020, Note_on_c, 15, 52, 100
28, 268080, Note_on_c, 15, 52, 0
28, 268080, Note_on_c, 15, 64, 100
28, 268140, Note_on_c, 15, 64, 0
28, 268140, Note_on_c, 15, 52, 100
28, 268200, Note_on_c, 15, 52, 0
28, 268200, Note_on_c, 15, 52, 100
28, 268260, Note_on_c, 15, 52, 0
28, 268260, Note_on_c, 15, 55, 100
28, 268320, Note_on_c, 15, 55, 0
28, 268320, Note_on_c, 15, 47, 100
28, 268380, Note_on_c, 15, 47, 0
28, 268380, Note_on_c, 15, 49, 100
28, 268440, Note_on_c, 15, 49, 0
28, 268440, Note_on_c, 15, 52, 100
28, 268500, Note_on_c, 15, 52, 0
28, 268500, Note_on_c, 15, 45, 100
28, 268560, Note_on_c, 15, 45, 0
28, 268560, Note_on_c, 15, 50, 100
28, 268619, Note_on_c, 15, 50, 0
28, 268620, Note_on_c, 15, 62, 100
28, 268679, Note_on_c, 15, 62, 0
28, 268680, Note_on_c, 15, 50, 100
28, 268739, Note_on_c, 15, 50, 0
28, 268740, Note_on_c, 15, 50, 100
28, 268799, Note_on_c, 15, 50, 0
28, 268800, Note_on_c, 15, 62, 100
28, 268859, Note_on_c, 15, 62, 0
28, 268860, Note_on_c, 15, 50, 100
28, 268919, Note_on_c, 15, 50, 0
28, 268920, Note_on_c, 15, 45, 100
28, 268949, Note_on_c, 15, 45, 0
28, 268950, Note_on_c, 15, 57, 100
28, 268979, Note_on_c, 15, 57, 0
28, 268980, Note_on_c, 15, 55, 100
28, 269009, Note_on_c, 15, 55, 0
28, 269010, Note_on_c, 15, 54, 100
28, 269039, Note_on_c, 15, 54, 0
28, 269040, Note_on_c, 15, 52, 100
28, 269069, Note_on_c, 15, 52, 0
28, 269070, Note_on_c, 15, 50, 100
28, 269099, Note_on_c, 15, 50, 0
28, 269100, Note_on_c, 15, 49, 100
28, 269159, Note_on_c, 15, 49, 0
28, 269160, Note_on_c, 15, 61, 100
28, 269219, Note_on_c, 15, 61, 0
28, 269220, Note_on_c, 15, 49, 100
28, 269279, Note_on_c, 15, 49, 0
28, 269280, Note_on_c, 15, 42, 100
28, 269309, Note_on_c, 15, 42, 0
28, 269310, Note_on_c, 15, 55, 100
28, 269339, Note_on_c, 15, 55, 0
28, 269340, Note_on_c, 15, 54, 100
28, 269369, Note_on_c, 15, 54, 0
28, 269370, Note_on_c, 15, 52, 100
28, 269399, Note_on_c, 15, 52, 0
28, 269400, Note_on_c, 15, 50, 100
28, 269429, Note_on_c, 15, 50, 0
28, 269430, Note_on_c, 15, 49, 100
28, 269459, Note_on_c, 15, 49, 0
28, 269460, Note_on_c, 15, 47, 100
28, 269519, Note_on_c, 15, 47, 0
28, 269520, Note_on_c, 15, 59, 100
28, 269579, Note_on_c, 15, 59, 0
28, 269580, Note_on_c, 15, 47, 100
28, 269639, Note_on_c, 15, 47, 0
28, 269640, Note_on_c, 15, 40, 100
28, 269669, Note_on_c, 15, 40, 0
28, 269670, Note_on_c, 15, 54, 100
28, 269699, Note_on_c, 15, 54, 0
28, 269700, Note_on_c, 15, 52, 100
28, 269729, Note_on_c, 15, 52, 0
28, 269730, Note_on_c, 15, 50, 100
28, 269759, Note_on_c, 15, 50, 0
28, 269760, Note_on_c, 15, 49, 100
28, 269789, Note_on_c, 15, 49, 0
28, 269790, Note_on_c, 15, 47, 100
28, 269819, Note_on_c, 15, 47, 0
28, 269820, Note_on_c, 15, 45, 100
28, 269879, Note_on_c, 15, 45, 0
28, 269880, Note_on_c, 15, 57, 100
28, 269939, Note_on_c, 15, 57, 0
28, 269940, Note_on_c, 15, 45, 100
28, 269999, Note_on_c, 15, 45, 0
28, 270000, Note_on_c, 15, 38, 100
28, 270029, Note_on_c, 15, 38, 0
28, 270030, Note_on_c, 15, 50, 100
28, 270059, Note_on_c, 15, 50, 0
28, 270060, Note_on_c, 15, 49, 100
28, 270089, Note_on_c, 15, 49, 0
28, 270090, Note_on_c, 15, 47, 100
28, 270119, Note_on_c, 15, 47, 0
28, 270120, Note_on_c, 15, 45, 100
28, 270149, Note_on_c, 15, 45, 0
28, 270150, Note_on_c, 15, 43, 100
28, 270179, Note_on_c, 15, 43, 0
28, 270180, Note_on_c, 15, 42, 100
28, 270209, Note_on_c, 15, 42, 0
28, 270210, Note_on_c, 15, 45, 100
28, 270239, Note_on_c, 15, 45, 0
28, 270240, Note_on_c, 15, 43, 100
28, 270269, Note_on_c, 15, 43, 0
28, 270270, Note_on_c, 15, 42, 100
28, 270299, Note_on_c, 15, 42, 0
28, 270300, Note_on_c, 15, 40, 100
28, 270329, Note_on_c, 15, 40, 0
28, 270330, Note_on_c, 15, 38, 100
28, 270359, Note_on_c, 15, 38, 0
28, 270360, Note_on_c, 15, 45, 100
28, 270419, Note_on_c, 15, 45, 0
28, 270420, Note_on_c, 15, 57, 100
28, 270479, Note_on_c, 15, 57, 0
28, 270480, Note_on_c, 15, 45, 100
28, 270539, Note_on_c, 15, 45, 0
28, 270540, Note_on_c, 15, 45, 100
28, 270599, Note_on_c, 15, 45, 0
28, 270600, Note_on_c, 15, 57, 100
28, 270659, Note_on_c, 15, 57, 0
28, 270660, Note_on_c, 15, 45, 100
28, 270719, Note_on_c, 15, 45, 0
28, 270720, Note_on_c, 15, 45, 100
28, 270779, Note_on_c, 15, 45, 0
28, 270780, Note_on_c, 15, 57, 100
28, 270839, Note_on_c, 15, 57, 0
28, 270840, Note_on_c, 15, 45, 100
28, 270899, Note_on_c, 15, 45, 0
28, 270900, Note_on_c, 15, 45, 100
28, 270959, Note_on_c, 15, 45, 0
28, 270960, Note_on_c, 15, 57, 100
28, 271019, Note_on_c, 15, 57, 0
28, 271020, Note_on_c, 15, 45, 100
28, 271079, Note_on_c, 15, 45, 0
28, 271080, Note_on_c, 15, 45, 100
28, 271139, Note_on_c, 15, 45, 0
28, 271140, Note_on_c, 15, 57, 100
28, 271199, Note_on_c, 15, 57, 0
28, 271200, Note_on_c, 15, 45, 100
28, 271259, Note_on_c, 15, 45, 0
28, 271260, Note_on_c, 15, 45, 100
28, 271319, Note_on_c, 15, 45, 0
28, 271320, Note_on_c, 15, 49, 100
28, 271379, Note_on_c, 15, 49, 0
28, 271380, Note_on_c, 15, 50, 100
28, 271439, Note_on_c, 15, 50, 0
28, 271440, Note_on_c, 15, 42, 100
28, 271499, Note_on_c, 15, 42, 0
28, 271500, Note_on_c, 15, 45, 100
28, 271559, Note_on_c, 15, 45, 0
28, 271560, Note_on_c, 15, 45, 100
28, 271619, Note_on_c, 15, 45, 0
28, 271620, Note_on_c, 15, 38, 90
28, 271739, Note_on_c, 15, 38, 0
28, 271980, Note_on_c, 15, 55, 90
28, 272039, Note_on_c, 15, 55, 0
28, 272040, Note_on_c, 15, 59, 90
28, 272069, Note_on_c, 15, 59, 0
28, 272070, Note_on_c, 15, 57, 90
28, 272099, Note_on_c, 15, 57, 0
28, 272100, Note_on_c, 15, 55, 90
28, 272159, Note_on_c, 15, 55, 0
28, 272160, Note_on_c, 15, 55, 90
28, 272219, Note_on_c, 15, 55, 0
28, 272220, Note_on_c, 15, 55, 90
28, 272279, Note_on_c, 15, 55, 0
28, 272280, Note_on_c, 15, 50, 90
28, 272339, Note_on_c, 15, 50, 0
28, 272340, Note_on_c, 15, 55, 90
28, 272399, Note_on_c, 15, 55, 0
28, 272400, Note_on_c, 15, 55, 90
28, 272459, Note_on_c, 15, 55, 0
28, 272460, Note_on_c, 15, 55, 90
28, 272519, Note_on_c, 15, 55, 0
28, 272520, Note_on_c, 15, 59, 90
28, 272549, Note_on_c, 15, 59, 0
28, 272550, Note_on_c, 15, 57, 90
28, 272579, Note_on_c, 15, 57, 0
28, 272580, Note_on_c, 15, 55, 90
28, 272639, Note_on_c, 15, 55, 0
28, 272640, Note_on_c, 15, 55, 90
28, 272699, Note_on_c, 15, 55, 0
28, 272700, Note_on_c, 15, 55, 90
28, 272759, Note_on_c, 15, 55, 0
28, 272760, Note_on_c, 15, 48, 90
28, 272819, Note_on_c, 15, 48, 0
28, 272820, Note_on_c, 15, 55, 90
28, 272879, Note_on_c, 15, 55, 0
28, 272880, Note_on_c, 15, 55, 90
28, 272939, Note_on_c, 15, 55, 0
28, 272940, Note_on_c, 15, 57, 90
28, 272969, Note_on_c, 15, 57, 0
28, 272970, Note_on_c, 15, 55, 90
28, 272999, Note_on_c, 15, 55, 0
28, 273000, Note_on_c, 15, 54, 90
28, 273029, Note_on_c, 15, 54, 0
28, 273030, Note_on_c, 15, 52, 90
28, 273059, Note_on_c, 15, 52, 0
28, 273060, Note_on_c, 15, 50, 90
28, 273089, Note_on_c, 15, 50, 0
28, 273090, Note_on_c, 15, 48, 90
28, 273119, Note_on_c, 15, 48, 0
28, 273120, Note_on_c, 15, 47, 90
28, 273149, Note_on_c, 15, 47, 0
28, 273150, Note_on_c, 15, 45, 90
28, 273179, Note_on_c, 15, 45, 0
28, 273180, Note_on_c, 15, 43, 90
28, 273209, Note_on_c, 15, 43, 0
28, 273210, Note_on_c, 15, 38, 90
28, 273239, Note_on_c, 15, 38, 0
28, 273240, Note_on_c, 15, 40, 90
28, 273269, Note_on_c, 15, 40, 0
28, 273270, Note_on_c, 15, 42, 90
28, 273299, Note_on_c, 15, 42, 0
28, 273300, Note_on_c, 15, 43, 90
28, 273329, Note_on_c, 15, 43, 0
28, 273330, Note_on_c, 15, 45, 90
28, 273359, Note_on_c, 15, 45, 0
28, 273360, Note_on_c, 15, 47, 90
28, 273389, Note_on_c, 15, 47, 0
28, 273390, Note_on_c, 15, 48, 90
28, 273419, Note_on_c, 15, 48, 0
28, 273420, Note_on_c, 15, 50, 90
28, 273449, Note_on_c, 15, 50, 0
28, 273450, Note_on_c, 15, 48, 90
28, 273479, Note_on_c, 15, 48, 0
28, 273480, Note_on_c, 15, 50, 90
28, 273509, Note_on_c, 15, 50, 0
28, 273510, Note_on_c, 15, 52, 90
28, 273539, Note_on_c, 15, 52, 0
28, 273540, Note_on_c, 15, 54, 90
28, 273569, Note_on_c, 15, 54, 0
28, 273570, Note_on_c, 15, 52, 90
28, 273599, Note_on_c, 15, 52, 0
28, 273600, Note_on_c, 15, 54, 90
28, 273629, Note_on_c, 15, 54, 0
28, 273630, Note_on_c, 15, 50, 90
28, 273659, Note_on_c, 15, 50, 0
28, 273660, Note_on_c, 15, 55, 90
28, 273689, Note_on_c, 15, 55, 0
28, 273690, Note_on_c, 15, 54, 90
28, 273719, Note_on_c, 15, 54, 0
28, 273720, Note_on_c, 15, 55, 90
28, 273749, Note_on_c, 15, 55, 0
28, 273750, Note_on_c, 15, 57, 90
28, 273779, Note_on_c, 15, 57, 0
28, 273780, Note_on_c, 15, 59, 90
28, 273809, Note_on_c, 15, 59, 0
28, 273810, Note_on_c, 15, 60, 90
28, 273839, Note_on_c, 15, 60, 0
28, 273840, Note_on_c, 15, 59, 90
28, 273869, Note_on_c, 15, 59, 0
28, 273870, Note_on_c, 15, 57, 90
28, 273899, Note_on_c, 15, 57, 0
28, 273900, Note_on_c, 15, 55, 90
28, 273929, Note_on_c, 15, 55, 0
28, 273930, Note_on_c, 15, 57, 90
28, 273959, Note_on_c, 15, 57, 0
28, 273960, Note_on_c, 15, 55, 90
28, 273989, Note_on_c, 15, 55, 0
28, 273990, Note_on_c, 15, 54, 90
28, 274019, Note_on_c, 15, 54, 0
28, 274020, Note_on_c, 15, 52, 90
28, 274049, Note_on_c, 15, 52, 0
28, 274050, Note_on_c, 15, 54, 90
28, 274079, Note_on_c, 15, 54, 0
28, 274080, Note_on_c, 15, 55, 90
28, 274109, Note_on_c, 15, 55, 0
28, 274110, Note_on_c, 15, 52, 90
28, 274139, Note_on_c, 15, 52, 0
28, 274140, Note_on_c, 15, 57, 90
28, 274199, Note_on_c, 15, 57, 0
28, 274200, Note_on_c, 15, 61, 90
28, 274229, Note_on_c, 15, 61, 0
28, 274230, Note_on_c, 15, 59, 90
28, 274259, Note_on_c, 15, 59, 0
28, 274260, Note_on_c, 15, 57, 90
28, 274319, Note_on_c, 15, 57, 0
28, 274320, Note_on_c, 15, 57, 90
28, 274379, Note_on_c, 15, 57, 0
28, 274380, Note_on_c, 15, 57, 90
28, 274439, Note_on_c, 15, 57, 0
28, 274440, Note_on_c, 15, 50, 90
28, 274499, Note_on_c, 15, 50, 0
28, 274500, Note_on_c, 15, 57, 90
28, 274559, Note_on_c, 15, 57, 0
28, 274560, Note_on_c, 15, 57, 90
28, 274619, Note_on_c, 15, 57, 0
28, 274620, Note_on_c, 15, 57, 90
28, 274679, Note_on_c, 15, 57, 0
28, 274680, Note_on_c, 15, 61, 90
28, 274709, Note_on_c, 15, 61, 0
28, 274710, Note_on_c, 15, 59, 90
28, 274739, Note_on_c, 15, 59, 0
28, 274740, Note_on_c, 15, 57, 90
28, 274799, Note_on_c, 15, 57, 0
28, 274800, Note_on_c, 15, 57, 90
28, 274859, Note_on_c, 15, 57, 0
28, 274860, Note_on_c, 15, 57, 90
28, 274919, Note_on_c, 15, 57, 0
28, 274920, Note_on_c, 15, 50, 90
28, 274979, Note_on_c, 15, 50, 0
28, 274980, Note_on_c, 15, 50, 90
28, 275039, Note_on_c, 15, 50, 0
28, 275040, Note_on_c, 15, 54, 90
28, 275099, Note_on_c, 15, 54, 0
28, 275100, Note_on_c, 15, 52, 90
28, 275159, Note_on_c, 15, 52, 0
28, 275160, Note_on_c, 15, 55, 90
28, 275189, Note_on_c, 15, 55, 0
28, 275190, Note_on_c, 15, 54, 90
28, 275219, Note_on_c, 15, 54, 0
28, 275220, Note_on_c, 15, 52, 90
28, 275279, Note_on_c, 15, 52, 0
28, 275280, Note_on_c, 15, 52, 90
28, 275339, Note_on_c, 15, 52, 0
28, 275340, Note_on_c, 15, 52, 90
28, 275399, Note_on_c, 15, 52, 0
28, 275400, Note_on_c, 15, 45, 90
28, 275459, Note_on_c, 15, 45, 0
28, 275460, Note_on_c, 15, 45, 90
28, 275519, Note_on_c, 15, 45, 0
28, 275520, Note_on_c, 15, 49, 90
28, 275579, Note_on_c, 15, 49, 0
28, 275580, Note_on_c, 15, 50, 90
28, 275639, Note_on_c, 15, 50, 0
28, 275640, Note_on_c, 15, 55, 90
28, 275699, Note_on_c, 15, 55, 0
28, 275700, Note_on_c, 15, 57, 90
28, 275759, Note_on_c, 15, 57, 0
28, 275760, Note_on_c, 15, 45, 90
28, 275819, Note_on_c, 15, 45, 0
28, 275820, Note_on_c, 15, 50, 90
28, 275879, Note_on_c, 15, 50, 0
28, 275880, Note_on_c, 15, 54, 90
28, 275909, Note_on_c, 15, 54, 0
28, 275910, Note_on_c, 15, 52, 90
28, 275939, Note_on_c, 15, 52, 0
28, 275940, Note_on_c, 15, 50, 90
28, 275999, Note_on_c, 15, 50, 0
28, 276000, Note_on_c, 15, 50, 90
28, 276059, Note_on_c, 15, 50, 0
28, 276060, Note_on_c, 15, 50, 90
28, 276119, Note_on_c, 15, 50, 0
28, 276120, Note_on_c, 15, 45, 90
28, 276179, Note_on_c, 15, 45, 0
28, 276180, Note_on_c, 15, 50, 90
28, 276239, Note_on_c, 15, 50, 0
28, 276240, Note_on_c, 15, 50, 90
28, 276299, Note_on_c, 15, 50, 0
28, 276300, Note_on_c, 15, 50, 90
28, 276359, Note_on_c, 15, 50, 0
28, 276360, Note_on_c, 15, 54, 90
28, 276389, Note_on_c, 15, 54, 0
28, 276390, Note_on_c, 15, 52, 90
28, 276419, Note_on_c, 15, 52, 0
28, 276420, Note_on_c, 15, 50, 90
28, 276479, Note_on_c, 15, 50, 0
28, 276480, Note_on_c, 15, 50, 90
28, 276539, Note_on_c, 15, 50, 0
28, 276540, Note_on_c, 15, 52, 90
28, 276569, Note_on_c, 15, 52, 0
28, 276570, Note_on_c, 15, 45, 90
28, 276599, Note_on_c, 15, 45, 0
28, 276600, Note_on_c, 15, 47, 90
28, 276629, Note_on_c, 15, 47, 0
28, 276630, Note_on_c, 15, 49, 90
28, 276659, Note_on_c, 15, 49, 0
28, 276660, Note_on_c, 15, 50, 90
28, 276689, Note_on_c, 15, 50, 0
28, 276690, Note_on_c, 15, 52, 90
28, 276719, Note_on_c, 15, 52, 0
28, 276720, Note_on_c, 15, 54, 90
28, 276749, Note_on_c, 15, 54, 0
28, 276750, Note_on_c, 15, 55, 90
28, 276779, Note_on_c, 15, 55, 0
28, 276780, Note_on_c, 15, 57, 90
28, 276809, Note_on_c, 15, 57, 0
28, 276810, Note_on_c, 15, 55, 90
28, 276839, Note_on_c, 15, 55, 0
28, 276840, Note_on_c, 15, 54, 90
28, 276869, Note_on_c, 15, 54, 0
28, 276870, Note_on_c, 15, 55, 90
28, 276899, Note_on_c, 15, 55, 0
28, 276900, Note_on_c, 15, 57, 90
28, 276959, Note_on_c, 15, 57, 0
28, 276960, Note_on_c, 15, 45, 90
28, 277019, Note_on_c, 15, 45, 0
28, 277020, Note_on_c, 15, 50, 90
28, 277620, Note_on_c, 15, 50, 0
28, 277620, Note_on_c, 15, 49, 90
28, 277739, Note_on_c, 15, 49, 0
28, 277740, Note_on_c, 15, 47, 90
28, 277979, Note_on_c, 15, 47, 0
28, 277980, Note_on_c, 15, 45, 90
28, 278459, Note_on_c, 15, 45, 0
28, 278460, Note_on_c, 15, 42, 90
28, 278699, Note_on_c, 15, 42, 0
28, 278700, Note_on_c, 15, 40, 90
28, 278939, Note_on_c, 15, 40, 0
28, 278940, Note_on_c, 15, 38, 90
28, 279419, Note_on_c, 15, 38, 0
28, 279420, Note_on_c, 15, 39, 90
28, 279659, Note_on_c, 15, 39, 0
28, 279660, Note_on_c, 15, 40, 90
28, 279779, Note_on_c, 15, 40, 0
28, 279780, Note_on_c, 15, 43, 90
28, 279899, Note_on_c, 15, 43, 0
28, 280020, Note_on_c, 15, 42, 90
28, 280139, Note_on_c, 15, 42, 0
28, 280140, Note_on_c, 15, 47, 90
28, 280199, Note_on_c, 15, 47, 0
28, 280200, Note_on_c, 15, 50, 90
28, 280229, Note_on_c, 15, 50, 0
28, 280230, Note_on_c, 15, 49, 90
28, 280259, Note_on_c, 15, 49, 0
28, 280260, Note_on_c, 15, 47, 90
28, 280319, Note_on_c, 15, 47, 0
28, 280320, Note_on_c, 15, 47, 90
28, 280379, Note_on_c, 15, 47, 0
28, 280380, Note_on_c, 15, 47, 90
28, 280439, Note_on_c, 15, 47, 0
28, 280440, Note_on_c, 15, 42, 90
28, 280499, Note_on_c, 15, 42, 0
28, 280500, Note_on_c, 15, 47, 90
28, 280559, Note_on_c, 15, 47, 0
28, 280560, Note_on_c, 15, 47, 90
28, 280619, Note_on_c, 15, 47, 0
28, 280620, Note_on_c, 15, 49, 90
28, 280679, Note_on_c, 15, 49, 0
28, 280680, Note_on_c, 15, 52, 90
28, 280710, Note_on_c, 15, 52, 0
28, 280710, Note_on_c, 15, 50, 90
28, 280740, Note_on_c, 15, 50, 0
28, 280740, Note_on_c, 15, 49, 90
28, 280799, Note_on_c, 15, 49, 0
28, 280800, Note_on_c, 15, 49, 90
28, 280859, Note_on_c, 15, 49, 0
28, 280860, Note_on_c, 15, 49, 90
28, 280919, Note_on_c, 15, 49, 0
28, 280920, Note_on_c, 15, 45, 90
28, 280979, Note_on_c, 15, 45, 0
28, 280980, Note_on_c, 15, 49, 90
28, 281039, Note_on_c, 15, 49, 0
28, 281040, Note_on_c, 15, 49, 90
28, 281099, Note_on_c, 15, 49, 0
28, 281100, Note_on_c, 15, 50, 90
28, 281159, Note_on_c, 15, 50, 0
28, 281160, Note_on_c, 15, 54, 90
28, 281189, Note_on_c, 15, 54, 0
28, 281190, Note_on_c, 15, 52, 90
28, 281219, Note_on_c, 15, 52, 0
28, 281220, Note_on_c, 15, 50, 90
28, 281279, Note_on_c, 15, 50, 0
28, 281280, Note_on_c, 15, 50, 90
28, 281339, Note_on_c, 15, 50, 0
28, 281340, Note_on_c, 15, 50, 90
28, 281399, Note_on_c, 15, 50, 0
28, 281400, Note_on_c, 15, 45, 90
28, 281459, Note_on_c, 15, 45, 0
28, 281460, Note_on_c, 15, 50, 90
28, 281519, Note_on_c, 15, 50, 0
28, 281520, Note_on_c, 15, 50, 90
28, 281579, Note_on_c, 15, 50, 0
28, 281580, Note_on_c, 15, 52, 90
28, 281639, Note_on_c, 15, 52, 0
28, 281640, Note_on_c, 15, 55, 90
28, 281669, Note_on_c, 15, 55, 0
28, 281670, Note_on_c, 15, 54, 90
28, 281699, Note_on_c, 15, 54, 0
28, 281700, Note_on_c, 15, 52, 90
28, 281759, Note_on_c, 15, 52, 0
28, 281760, Note_on_c, 15, 52, 90
28, 281819, Note_on_c, 15, 52, 0
28, 281820, Note_on_c, 15, 52, 90
28, 281879, Note_on_c, 15, 52, 0
28, 281880, Note_on_c, 15, 45, 90
28, 281939, Note_on_c, 15, 45, 0
28, 281940, Note_on_c, 15, 52, 90
28, 281999, Note_on_c, 15, 52, 0
28, 282000, Note_on_c, 15, 52, 90
28, 282059, Note_on_c, 15, 52, 0
28, 282060, Note_on_c, 15, 54, 90
28, 282119, Note_on_c, 15, 54, 0
28, 282120, Note_on_c, 15, 57, 90
28, 282149, Note_on_c, 15, 57, 0
28, 282150, Note_on_c, 15, 55, 90
28, 282179, Note_on_c, 15, 55, 0
28, 282180, Note_on_c, 15, 54, 90
28, 282239, Note_on_c, 15, 54, 0
28, 282240, Note_on_c, 15, 54, 90
28, 282299, Note_on_c, 15, 54, 0
28, 282300, Note_on_c, 15, 54, 90
28, 282359, Note_on_c, 15, 54, 0
28, 282360, Note_on_c, 15, 50, 90
28, 282419, Note_on_c, 15, 50, 0
28, 282420, Note_on_c, 15, 54, 90
28, 282479, Note_on_c, 15, 54, 0
28, 282480, Note_on_c, 15, 54, 90
28, 282539, Note_on_c, 15, 54, 0
28, 282540, Note_on_c, 15, 55, 90
28, 282599, Note_on_c, 15, 55, 0
28, 282600, Note_on_c, 15, 59, 90
28, 282629, Note_on_c, 15, 59, 0
28, 282630, Note_on_c, 15, 57, 90
28, 282659, Note_on_c, 15, 57, 0
28, 282660, Note_on_c, 15, 55, 90
28, 282719, Note_on_c, 15, 55, 0
28, 282720, Note_on_c, 15, 55, 90
28, 282779, Note_on_c, 15, 55, 0
28, 282780, Note_on_c, 15, 55, 90
28, 282839, Note_on_c, 15, 55, 0
28, 282840, Note_on_c, 15, 50, 90
28, 282899, Note_on_c, 15, 50, 0
28, 282900, Note_on_c, 15, 55, 90
28, 282959, Note_on_c, 15, 55, 0
28, 282960, Note_on_c, 15, 55, 90
28, 283019, Note_on_c, 15, 55, 0
28, 283020, Note_on_c, 15, 57, 90
28, 283079, Note_on_c, 15, 57, 0
28, 283080, Note_on_c, 15, 60, 90
28, 283109, Note_on_c, 15, 60, 0
28, 283110, Note_on_c, 15, 59, 90
28, 283139, Note_on_c, 15, 59, 0
28, 283140, Note_on_c, 15, 57, 90
28, 283199, Note_on_c, 15, 57, 0
28, 283200, Note_on_c, 15, 57, 90
28, 283259, Note_on_c, 15, 57, 0
28, 283260, Note_on_c, 15, 57, 90
28, 283319, Note_on_c, 15, 57, 0
28, 283320, Note_on_c, 15, 50, 90
28, 283379, Note_on_c, 15, 50, 0
28, 283380, Note_on_c, 15, 57, 90
28, 283439, Note_on_c, 15, 57, 0
28, 283440, Note_on_c, 15, 57, 90
28, 283499, Note_on_c, 15, 57, 0
28, 283500, Note_on_c, 15, 59, 90
28, 283559, Note_on_c, 15, 59, 0
28, 283560, Note_on_c, 15, 57, 90
28, 283589, Note_on_c, 15, 57, 0
28, 283590, Note_on_c, 15, 55, 90
28, 283619, Note_on_c, 15, 55, 0
28, 283620, Note_on_c, 15, 62, 90
28, 283679, Note_on_c, 15, 62, 0
28, 283680, Note_on_c, 15, 50, 90
28, 283739, Note_on_c, 15, 50, 0
28, 283740, Note_on_c, 15, 55, 90
28, 283799, Note_on_c, 15, 55, 0
28, 283800, Note_on_c, 15, 59, 90
28, 283829, Note_on_c, 15, 59, 0
28, 283830, Note_on_c, 15, 57, 90
28, 283859, Note_on_c, 15, 57, 0
28, 283860, Note_on_c, 15, 55, 90
28, 283919, Note_on_c, 15, 55, 0
28, 283920, Note_on_c, 15, 55, 90
28, 283979, Note_on_c, 15, 55, 0
28, 283980, Note_on_c, 15, 55, 90
28, 284039, Note_on_c, 15, 55, 0
28, 284040, Note_on_c, 15, 50, 90
28, 284099, Note_on_c, 15, 50, 0
28, 284100, Note_on_c, 15, 55, 90
28, 284159, Note_on_c, 15, 55, 0
28, 284160, Note_on_c, 15, 55, 90
28, 284219, Note_on_c, 15, 55, 0
28, 284220, Note_on_c, 15, 57, 90
28, 284279, Note_on_c, 15, 57, 0
28, 284280, Note_on_c, 15, 60, 90
28, 284309, Note_on_c, 15, 60, 0
28, 284310, Note_on_c, 15, 59, 90
28, 284339, Note_on_c, 15, 59, 0
28, 284340, Note_on_c, 15, 57, 90
28, 284399, Note_on_c, 15, 57, 0
28, 284400, Note_on_c, 15, 57, 90
28, 284459, Note_on_c, 15, 57, 0
28, 284460, Note_on_c, 15, 57, 90
28, 284489, Note_on_c, 15, 57, 0
28, 284490, Note_on_c, 15, 50, 90
28, 284519, Note_on_c, 15, 50, 0
28, 284520, Note_on_c, 15, 52, 90
28, 284549, Note_on_c, 15, 52, 0
28, 284550, Note_on_c, 15, 54, 90
28, 284579, Note_on_c, 15, 54, 0
28, 284580, Note_on_c, 15, 55, 90
28, 284609, Note_on_c, 15, 55, 0
28, 284610, Note_on_c, 15, 57, 90
28, 284639, Note_on_c, 15, 57, 0
28, 284640, Note_on_c, 15, 59, 90
28, 284669, Note_on_c, 15, 59, 0
28, 284670, Note_on_c, 15, 60, 90
28, 284699, Note_on_c, 15, 60, 0
28, 284700, Note_on_c, 15, 62, 90
28, 284729, Note_on_c, 15, 62, 0
28, 284730, Note_on_c, 15, 60, 90
28, 284759, Note_on_c, 15, 60, 0
28, 284760, Note_on_c, 15, 59, 90
28, 284789, Note_on_c, 15, 59, 0
28, 284790, Note_on_c, 15, 60, 90
28, 284819, Note_on_c, 15, 60, 0
28, 284820, Note_on_c, 15, 62, 90
28, 284879, Note_on_c, 15, 62, 0
28, 284880, Note_on_c, 15, 50, 90
28, 284939, Note_on_c, 15, 50, 0
28, 284940, Note_on_c, 15, 43, 90
28, 285179, Note_on_c, 15, 43, 0
28, 285420, Note_on_c, 15, 43, 100
28, 285480, Note_on_c, 15, 43, 0
28, 285480, Note_on_c, 15, 55, 100
28, 285510, Note_on_c, 15, 55, 0
28, 285510, Note_on_c, 15, 54, 100
28, 285540, Note_on_c, 15, 54, 0
28, 285540, Note_on_c, 15, 55, 100
28, 285600, Note_on_c, 15, 55, 0
28, 285600, Note_on_c, 15, 59, 100
28, 285630, Note_on_c, 15, 59, 0
28, 285630, Note_on_c, 15, 57, 100
28, 285660, Note_on_c, 15, 57, 0
28, 285660, Note_on_c, 15, 55, 100
28, 285720, Note_on_c, 15, 55, 0
28, 285720, Note_on_c, 15, 50, 100
28, 285780, Note_on_c, 15, 50, 0
28, 285780, Note_on_c, 15, 47, 100
28, 285840, Note_on_c, 15, 47, 0
28, 285840, Note_on_c, 15, 43, 100
28, 285870, Note_on_c, 15, 43, 0
28, 285870, Note_on_c, 15, 45, 100
28, 285900, Note_on_c, 15, 45, 0
28, 285900, Note_on_c, 15, 47, 100
28, 285960, Note_on_c, 15, 47, 0
28, 285960, Note_on_c, 15, 50, 100
28, 286020, Note_on_c, 15, 50, 0
28, 286020, Note_on_c, 15, 55, 100
28, 286200, Note_on_c, 15, 55, 0
28, 286200, Note_on_c, 15, 60, 100
28, 286230, Note_on_c, 15, 60, 0
28, 286230, Note_on_c, 15, 59, 100
28, 286260, Note_on_c, 15, 59, 0
28, 286260, Note_on_c, 15, 60, 100
28, 286320, Note_on_c, 15, 60, 0
28, 286320, Note_on_c, 15, 55, 100
28, 286380, Note_on_c, 15, 55, 0
28, 286380, Note_on_c, 15, 55, 100
28, 286440, Note_on_c, 15, 55, 0
28, 286440, Note_on_c, 15, 55, 100
28, 286500, Note_on_c, 15, 55, 0
28, 286500, Note_on_c, 15, 55, 100
28, 286560, Note_on_c, 15, 55, 0
28, 286560, Note_on_c, 15, 59, 100
28, 286590, Note_on_c, 15, 59, 0
28, 286590, Note_on_c, 15, 57, 100
28, 286620, Note_on_c, 15, 57, 0
28, 286620, Note_on_c, 15, 59, 100
28, 286680, Note_on_c, 15, 59, 0
28, 286680, Note_on_c, 15, 52, 100
28, 286740, Note_on_c, 15, 52, 0
28, 286740, Note_on_c, 15, 52, 100
28, 286800, Note_on_c, 15, 52, 0
28, 286800, Note_on_c, 15, 52, 100
28, 286860, Note_on_c, 15, 52, 0
28, 286860, Note_on_c, 15, 52, 100
28, 286920, Note_on_c, 15, 52, 0
28, 286920, Note_on_c, 15, 57, 100
28, 286950, Note_on_c, 15, 57, 0
28, 286950, Note_on_c, 15, 55, 100
28, 286980, Note_on_c, 15, 55, 0
28, 286980, Note_on_c, 15, 57, 100
28, 287040, Note_on_c, 15, 57, 0
28, 287040, Note_on_c, 15, 54, 100
28, 287100, Note_on_c, 15, 54, 0
28, 287100, Note_on_c, 15, 50, 100
28, 287160, Note_on_c, 15, 50, 0
28, 287160, Note_on_c, 15, 54, 100
28, 287220, Note_on_c, 15, 54, 0
28, 287220, Note_on_c, 15, 55, 100
28, 287280, Note_on_c, 15, 55, 0
28, 287280, Note_on_c, 15, 43, 100
28, 287340, Note_on_c, 15, 43, 0
28, 287340, Note_on_c, 15, 55, 100
28, 287400, Note_on_c, 15, 55, 0
28, 287400, Note_on_c, 15, 59, 100
28, 287430, Note_on_c, 15, 59, 0
28, 287430, Note_on_c, 15, 57, 100
28, 287460, Note_on_c, 15, 57, 0
28, 287460, Note_on_c, 15, 55, 100
28, 287520, Note_on_c, 15, 55, 0
28, 287520, Note_on_c, 15, 54, 100
28, 287580, Note_on_c, 15, 54, 0
28, 287580, Note_on_c, 15, 52, 100
28, 287640, Note_on_c, 15, 52, 0
28, 287640, Note_on_c, 15, 40, 100
28, 287700, Note_on_c, 15, 40, 0
28, 287700, Note_on_c, 15, 52, 100
28, 287760, Note_on_c, 15, 52, 0
28, 287760, Note_on_c, 15, 55, 100
28, 287790, Note_on_c, 15, 55, 0
28, 287790, Note_on_c, 15, 54, 100
28, 287820, Note_on_c, 15, 54, 0
28, 287820, Note_on_c, 15, 52, 100
28, 287880, Note_on_c, 15, 52, 0
28, 287880, Note_on_c, 15, 55, 100
28, 287940, Note_on_c, 15, 55, 0
28, 287940, Note_on_c, 15, 57, 100
28, 288000, Note_on_c, 15, 57, 0
28, 288000, Note_on_c, 15, 45, 100
28, 288060, Note_on_c, 15, 45, 0
28, 288060, Note_on_c, 15, 57, 100
28, 288120, Note_on_c, 15, 57, 0
28, 288120, Note_on_c, 15, 61, 100
28, 288150, Note_on_c, 15, 61, 0
28, 288150, Note_on_c, 15, 57, 100
28, 288180, Note_on_c, 15, 57, 0
28, 288180, Note_on_c, 15, 54, 100
28, 288240, Note_on_c, 15, 54, 0
28, 288240, Note_on_c, 15, 57, 100
28, 288300, Note_on_c, 15, 57, 0
28, 288300, Note_on_c, 15, 59, 100
28, 288360, Note_on_c, 15, 59, 0
28, 288360, Note_on_c, 15, 47, 100
28, 288420, Note_on_c, 15, 47, 0
28, 288420, Note_on_c, 15, 45, 100
28, 288480, Note_on_c, 15, 45, 0
28, 288480, Note_on_c, 15, 57, 100
28, 288540, Note_on_c, 15, 57, 0
28, 288540, Note_on_c, 15, 55, 100
28, 288600, Note_on_c, 15, 55, 0
28, 288600, Note_on_c, 15, 43, 100
28, 288660, Note_on_c, 15, 43, 0
28, 288660, Note_on_c, 15, 43, 100
28, 288720, Note_on_c, 15, 43, 0
28, 288720, Note_on_c, 15, 55, 100
28, 288750, Note_on_c, 15, 55, 0
28, 288750, Note_on_c, 15, 54, 100
28, 288780, Note_on_c, 15, 54, 0
28, 288780, Note_on_c, 15, 55, 100
28, 288840, Note_on_c, 15, 55, 0
28, 288840, Note_on_c, 15, 52, 100
28, 288900, Note_on_c, 15, 52, 0
28, 288900, Note_on_c, 15, 49, 100
28, 288960, Note_on_c, 15, 49, 0
28, 288960, Note_on_c, 15, 45, 100
28, 289020, Note_on_c, 15, 45, 0
28, 289020, Note_on_c, 15, 50, 100
28, 289080, Note_on_c, 15, 50, 0
28, 289080, Note_on_c, 15, 62, 100
28, 289110, Note_on_c, 15, 62, 0
28, 289110, Note_on_c, 15, 61, 100
28, 289140, Note_on_c, 15, 61, 0
28, 289140, Note_on_c, 15, 62, 100
28, 289200, Note_on_c, 15, 62, 0
28, 289200, Note_on_c, 15, 55, 100
28, 289260, Note_on_c, 15, 55, 0
28, 289260, Note_on_c, 15, 57, 100
28, 289320, Note_on_c, 15, 57, 0
28, 289320, Note_on_c, 15, 45, 100
28, 289380, Note_on_c, 15, 45, 0
28, 289380, Note_on_c, 15, 50, 100
28, 289440, Note_on_c, 15, 50, 0
28, 289440, Note_on_c, 15, 38, 100
28, 289500, Note_on_c, 15, 38, 0
28, 289500, Note_on_c, 15, 50, 100
28, 289560, Note_on_c, 15, 50, 0
28, 289560, Note_on_c, 15, 54, 100
28, 289590, Note_on_c, 15, 54, 0
28, 289590, Note_on_c, 15, 52, 100
28, 289620, Note_on_c, 15, 52, 0
28, 289620, Note_on_c, 15, 50, 100
28, 289680, Note_on_c, 15, 50, 0
28, 289680, Note_on_c, 15, 52, 100
28, 289710, Note_on_c, 15, 52, 0
28, 289710, Note_on_c, 15, 54, 100
28, 289740, Note_on_c, 15, 54, 0
28, 289740, Note_on_c, 15, 55, 100
28, 289800, Note_on_c, 15, 55, 0
28, 289800, Note_on_c, 15, 43, 100
28, 289860, Note_on_c, 15, 43, 0
28, 289860, Note_on_c, 15, 43, 100
28, 289920, Note_on_c, 15, 43, 0
28, 289920, Note_on_c, 15, 55, 100
28, 289950, Note_on_c, 15, 55, 0
28, 289950, Note_on_c, 15, 54, 100
28, 289980, Note_on_c, 15, 54, 0
28, 289980, Note_on_c, 15, 55, 100
28, 290040, Note_on_c, 15, 55, 0
28, 290040, Note_on_c, 15, 50, 100
28, 290100, Note_on_c, 15, 50, 0
28, 290100, Note_on_c, 15, 47, 100
28, 290160, Note_on_c, 15, 47, 0
28, 290160, Note_on_c, 15, 43, 100
28, 290190, Note_on_c, 15, 43, 0
28, 290190, Note_on_c, 15, 42, 100
28, 290220, Note_on_c, 15, 42, 0
28, 290220, Note_on_c, 15, 43, 100
28, 290280, Note_on_c, 15, 43, 0
28, 290280, Note_on_c, 15, 45, 100
28, 290340, Note_on_c, 15, 45, 0
28, 290340, Note_on_c, 15, 47, 100
28, 290400, Note_on_c, 15, 47, 0
28, 290400, Note_on_c, 15, 50, 100
28, 290430, Note_on_c, 15, 50, 0
28, 290430, Note_on_c, 15, 48, 100
28, 290460, Note_on_c, 15, 48, 0
28, 290460, Note_on_c, 15, 47, 100
28, 290520, Note_on_c, 15, 47, 0
28, 290520, Note_on_c, 15, 45, 100
28, 290550, Note_on_c, 15, 45, 0
28, 290550, Note_on_c, 15, 47, 100
28, 290580, Note_on_c, 15, 47, 0
28, 290580, Note_on_c, 15, 48, 100
28, 290640, Note_on_c, 15, 48, 0
28, 290640, Note_on_c, 15, 45, 100
28, 290700, Note_on_c, 15, 45, 0
28, 290700, Note_on_c, 15, 42, 100
28, 290760, Note_on_c, 15, 42, 0
28, 290760, Note_on_c, 15, 43, 100
28, 290820, Note_on_c, 15, 43, 0
28, 290820, Note_on_c, 15, 38, 100
28, 290880, Note_on_c, 15, 38, 0
28, 290880, Note_on_c, 15, 50, 100
28, 290940, Note_on_c, 15, 50, 0
28, 290940, Note_on_c, 15, 54, 100
28, 291000, Note_on_c, 15, 54, 0
28, 291000, Note_on_c, 15, 57, 100
28, 291060, Note_on_c, 15, 57, 0
28, 291060, Note_on_c, 15, 54, 100
28, 291120, Note_on_c, 15, 54, 0
28, 291120, Note_on_c, 15, 50, 100
28, 291180, Note_on_c, 15, 50, 0
28, 291180, Note_on_c, 15, 55, 100
28, 291239, Note_on_c, 15, 55, 0
28, 291240, Note_on_c, 15, 50, 100
28, 291299, Note_on_c, 15, 50, 0
28, 291300, Note_on_c, 15, 55, 100
28, 291359, Note_on_c, 15, 55, 0
28, 291360, Note_on_c, 15, 59, 100
28, 291389, Note_on_c, 15, 59, 0
28, 291390, Note_on_c, 15, 57, 100
28, 291419, Note_on_c, 15, 57, 0
28, 291420, Note_on_c, 15, 55, 100
28, 291479, Note_on_c, 15, 55, 0
28, 291480, Note_on_c, 15, 50, 100
28, 291539, Note_on_c, 15, 50, 0
28, 291540, Note_on_c, 15, 47, 100
28, 291599, Note_on_c, 15, 47, 0
28, 291600, Note_on_c, 15, 43, 100
28, 291659, Note_on_c, 15, 43, 0
28, 291660, Note_on_c, 15, 47, 100
28, 291719, Note_on_c, 15, 47, 0
28, 291720, Note_on_c, 15, 50, 100
28, 291779, Note_on_c, 15, 50, 0
28, 291780, Note_on_c, 15, 55, 100
28, 291839, Note_on_c, 15, 55, 0
28, 291840, Note_on_c, 15, 57, 100
28, 291869, Note_on_c, 15, 57, 0
28, 291870, Note_on_c, 15, 59, 100
28, 291899, Note_on_c, 15, 59, 0
28, 291900, Note_on_c, 15, 60, 100
28, 291959, Note_on_c, 15, 60, 0
28, 291960, Note_on_c, 15, 60, 100
28, 291989, Note_on_c, 15, 60, 0
28, 291990, Note_on_c, 15, 59, 100
28, 292019, Note_on_c, 15, 59, 0
28, 292020, Note_on_c, 15, 60, 100
28, 292079, Note_on_c, 15, 60, 0
28, 292080, Note_on_c, 15, 55, 100
28, 292139, Note_on_c, 15, 55, 0
28, 292140, Note_on_c, 15, 55, 100
28, 292199, Note_on_c, 15, 55, 0
28, 292200, Note_on_c, 15, 60, 100
28, 292259, Note_on_c, 15, 60, 0
28, 292260, Note_on_c, 15, 59, 100
28, 292319, Note_on_c, 15, 59, 0
28, 292320, Note_on_c, 15, 59, 100
28, 292349, Note_on_c, 15, 59, 0
28, 292350, Note_on_c, 15, 57, 100
28, 292379, Note_on_c, 15, 57, 0
28, 292380, Note_on_c, 15, 59, 100
28, 292439, Note_on_c, 15, 59, 0
28, 292440, Note_on_c, 15, 55, 100
28, 292499, Note_on_c, 15, 55, 0
28, 292500, Note_on_c, 15, 55, 100
28, 292559, Note_on_c, 15, 55, 0
28, 292560, Note_on_c, 15, 59, 100
28, 292619, Note_on_c, 15, 59, 0
28, 292620, Note_on_c, 15, 57, 100
28, 292679, Note_on_c, 15, 57, 0
28, 292680, Note_on_c, 15, 60, 100
28, 292739, Note_on_c, 15, 60, 0
28, 292740, Note_on_c, 15, 59, 100
28, 292799, Note_on_c, 15, 59, 0
28, 292800, Note_on_c, 15, 55, 100
28, 292859, Note_on_c, 15, 55, 0
28, 292860, Note_on_c, 15, 54, 100
28, 292919, Note_on_c, 15, 54, 0
28, 292920, Note_on_c, 15, 55, 100
28, 292979, Note_on_c, 15, 55, 0
28, 292980, Note_on_c, 15, 50, 100
28, 293039, Note_on_c, 15, 50, 0
28, 293040, Note_on_c, 15, 38, 100
28, 293099, Note_on_c, 15, 38, 0
28, 293100, Note_on_c, 15, 38, 100
28, 293159, Note_on_c, 15, 38, 0
28, 293160, Note_on_c, 15, 50, 100
28, 293189, Note_on_c, 15, 50, 0
28, 293190, Note_on_c, 15, 49, 100
28, 293219, Note_on_c, 15, 49, 0
28, 293220, Note_on_c, 15, 50, 100
28, 293279, Note_on_c, 15, 50, 0
28, 293280, Note_on_c, 15, 55, 100
28, 293339, Note_on_c, 15, 55, 0
28, 293340, Note_on_c, 15, 54, 100
28, 293399, Note_on_c, 15, 54, 0
28, 293400, Note_on_c, 15, 57, 100
28, 293429, Note_on_c, 15, 57, 0
28, 293430, Note_on_c, 15, 55, 100
28, 293459, Note_on_c, 15, 55, 0
28, 293460, Note_on_c, 15, 57, 100
28, 293519, Note_on_c, 15, 57, 0
28, 293520, Note_on_c, 15, 54, 100
28, 293579, Note_on_c, 15, 54, 0
28, 293580, Note_on_c, 15, 54, 100
28, 293639, Note_on_c, 15, 54, 0
28, 293640, Note_on_c, 15, 57, 100
28, 293699, Note_on_c, 15, 57, 0
28, 293700, Note_on_c, 15, 50, 100
28, 293759, Note_on_c, 15, 50, 0
28, 293760, Note_on_c, 15, 54, 100
28, 293789, Note_on_c, 15, 54, 0
28, 293790, Note_on_c, 15, 52, 100
28, 293819, Note_on_c, 15, 52, 0
28, 293820, Note_on_c, 15, 54, 100
28, 293879, Note_on_c, 15, 54, 0
28, 293880, Note_on_c, 15, 50, 100
28, 293939, Note_on_c, 15, 50, 0
28, 293940, Note_on_c, 15, 50, 100
28, 293999, Note_on_c, 15, 50, 0
28, 294000, Note_on_c, 15, 54, 100
28, 294059, Note_on_c, 15, 54, 0
28, 294060, Note_on_c, 15, 50, 100
28, 294119, Note_on_c, 15, 50, 0
28, 294120, Note_on_c, 15, 52, 100
28, 294179, Note_on_c, 15, 52, 0
28, 294180, Note_on_c, 15, 54, 100
28, 294239, Note_on_c, 15, 54, 0
28, 294240, Note_on_c, 15, 55, 100
28, 294299, Note_on_c, 15, 55, 0
28, 294300, Note_on_c, 15, 54, 100
28, 294359, Note_on_c, 15, 54, 0
28, 294360, Note_on_c, 15, 52, 100
28, 294419, Note_on_c, 15, 52, 0
28, 294420, Note_on_c, 15, 54, 100
28, 294479, Note_on_c, 15, 54, 0
28, 294480, Note_on_c, 15, 50, 100
28, 294539, Note_on_c, 15, 50, 0
28, 294540, Note_on_c, 15, 49, 100
28, 294599, Note_on_c, 15, 49, 0
28, 294600, Note_on_c, 15, 52, 100
28, 294629, Note_on_c, 15, 52, 0
28, 294630, Note_on_c, 15, 50, 100
28, 294659, Note_on_c, 15, 50, 0
28, 294660, Note_on_c, 15, 52, 100
28, 294719, Note_on_c, 15, 52, 0
28, 294720, Note_on_c, 15, 49, 100
28, 294779, Note_on_c, 15, 49, 0
28, 294780, Note_on_c, 15, 45, 100
28, 294839, Note_on_c, 15, 45, 0
28, 294840, Note_on_c, 15, 49, 100
28, 294869, Note_on_c, 15, 49, 0
28, 294870, Note_on_c, 15, 47, 100
28, 294899, Note_on_c, 15, 47, 0
28, 294900, Note_on_c, 15, 49, 100
28, 294959, Note_on_c, 15, 49, 0
28, 294960, Note_on_c, 15, 52, 100
28, 295019, Note_on_c, 15, 52, 0
28, 295020, Note_on_c, 15, 49, 100
28, 295079, Note_on_c, 15, 49, 0
28, 295080, Note_on_c, 15, 45, 100
28, 295139, Note_on_c, 15, 45, 0
28, 295140, Note_on_c, 15, 50, 100
28, 295199, Note_on_c, 15, 50, 0
28, 295200, Note_on_c, 15, 38, 100
28, 295259, Note_on_c, 15, 38, 0
28, 295260, Note_on_c, 15, 38, 100
28, 295319, Note_on_c, 15, 38, 0
28, 295320, Note_on_c, 15, 45, 100
28, 295379, Note_on_c, 15, 45, 0
28, 295380, Note_on_c, 15, 50, 100
28, 295439, Note_on_c, 15, 50, 0
28, 295440, Note_on_c, 15, 52, 100
28, 295469, Note_on_c, 15, 52, 0
28, 295470, Note_on_c, 15, 54, 100
28, 295499, Note_on_c, 15, 54, 0
28, 295500, Note_on_c, 15, 55, 100
28, 295559, Note_on_c, 15, 55, 0
28, 295560, Note_on_c, 15, 55, 100
28, 295589, Note_on_c, 15, 55, 0
28, 295590, Note_on_c, 15, 54, 100
28, 295619, Note_on_c, 15, 54, 0
28, 295620, Note_on_c, 15, 55, 100
28, 295679, Note_on_c, 15, 55, 0
28, 295680, Note_on_c, 15, 54, 100
28, 295739, Note_on_c, 15, 54, 0
28, 295740, Note_on_c, 15, 52, 100
28, 295799, Note_on_c, 15, 52, 0
28, 295800, Note_on_c, 15, 55, 100
28, 295859, Note_on_c, 15, 55, 0
28, 295860, Note_on_c, 15, 54, 100
28, 295919, Note_on_c, 15, 54, 0
28, 295920, Note_on_c, 15, 54, 100
28, 295949, Note_on_c, 15, 54, 0
28, 295950, Note_on_c, 15, 52, 100
28, 295979, Note_on_c, 15, 52, 0
28, 295980, Note_on_c, 15, 54, 100
28, 296039, Note_on_c, 15, 54, 0
28, 296040, Note_on_c, 15, 52, 100
28, 296099, Note_on_c, 15, 52, 0
28, 296100, Note_on_c, 15, 50, 100
28, 296159, Note_on_c, 15, 50, 0
28, 296160, Note_on_c, 15, 54, 100
28, 296219, Note_on_c, 15, 54, 0
28, 296220, Note_on_c, 15, 49, 100
28, 296279, Note_on_c, 15, 49, 0
28, 296280, Note_on_c, 15, 45, 100
28, 296339, Note_on_c, 15, 45, 0
28, 296340, Note_on_c, 15, 47, 100
28, 296399, Note_on_c, 15, 47, 0
28, 296400, Note_on_c, 15, 49, 100
28, 296459, Note_on_c, 15, 49, 0
28, 296460, Note_on_c, 15, 50, 100
28, 296519, Note_on_c, 15, 50, 0
28, 296520, Note_on_c, 15, 43, 100
28, 296579, Note_on_c, 15, 43, 0
28, 296580, Note_on_c, 15, 45, 100
28, 296639, Note_on_c, 15, 45, 0
28, 296640, Note_on_c, 15, 57, 100
28, 296669, Note_on_c, 15, 57, 0
28, 296670, Note_on_c, 15, 55, 100
28, 296699, Note_on_c, 15, 55, 0
28, 296700, Note_on_c, 15, 57, 100
28, 296759, Note_on_c, 15, 57, 0
28, 296760, Note_on_c, 15, 55, 100
28, 296819, Note_on_c, 15, 55, 0
28, 296820, Note_on_c, 15, 54, 100
28, 296879, Note_on_c, 15, 54, 0
28, 296880, Note_on_c, 15, 50, 100
28, 296939, Note_on_c, 15, 50, 0
28, 296940, Note_on_c, 15, 59, 100
28, 296999, Note_on_c, 15, 59, 0
28, 297000, Note_on_c, 15, 57, 100
28, 297059, Note_on_c, 15, 57, 0
28, 297060, Note_on_c, 15, 55, 100
28, 297119, Note_on_c, 15, 55, 0
28, 297120, Note_on_c, 15, 59, 100
28, 297179, Note_on_c, 15, 59, 0
28, 297180, Note_on_c, 15, 57, 100
28, 297239, Note_on_c, 15, 57, 0
28, 297240, Note_on_c, 15, 59, 100
28, 297269, Note_on_c, 15, 59, 0
28, 297270, Note_on_c, 15, 61, 100
28, 297299, Note_on_c, 15, 61, 0
28, 297300, Note_on_c, 15, 62, 100
28, 297359, Note_on_c, 15, 62, 0
28, 297360, Note_on_c, 15, 61, 100
28, 297419, Note_on_c, 15, 61, 0
28, 297420, Note_on_c, 15, 59, 100
28, 297479, Note_on_c, 15, 59, 0
28, 297480, Note_on_c, 15, 61, 100
28, 297509, Note_on_c, 15, 61, 0
28, 297510, Note_on_c, 15, 62, 100
28, 297539, Note_on_c, 15, 62, 0
28, 297540, Note_on_c, 15, 64, 100
28, 297599, Note_on_c, 15, 64, 0
28, 297600, Note_on_c, 15, 62, 100
28, 297659, Note_on_c, 15, 62, 0
28, 297660, Note_on_c, 15, 61, 100
28, 297719, Note_on_c, 15, 61, 0
28, 297720, Note_on_c, 15, 57, 100
28, 297779, Note_on_c, 15, 57, 0
28, 297780, Note_on_c, 15, 62, 100
28, 297839, Note_on_c, 15, 62, 0
28, 297840, Note_on_c, 15, 55, 100
28, 297899, Note_on_c, 15, 55, 0
28, 297900, Note_on_c, 15, 57, 100
28, 297959, Note_on_c, 15, 57, 0
28, 297960, Note_on_c, 15, 45, 100
28, 298019, Note_on_c, 15, 45, 0
28, 298020, Note_on_c, 15, 50, 100
28, 298079, Note_on_c, 15, 50, 0
28, 298080, Note_on_c, 15, 38, 100
28, 298139, Note_on_c, 15, 38, 0
28, 298140, Note_on_c, 15, 50, 100
28, 298199, Note_on_c, 15, 50, 0
28, 298200, Note_on_c, 15, 52, 100
28, 298259, Note_on_c, 15, 52, 0
28, 298260, Note_on_c, 15, 54, 100
28, 298319, Note_on_c, 15, 54, 0
28, 298320, Note_on_c, 15, 50, 100
28, 298379, Note_on_c, 15, 50, 0
28, 298380, Note_on_c, 15, 50, 100
28, 298439, Note_on_c, 15, 50, 0
28, 298440, Note_on_c, 15, 55, 100
28, 298469, Note_on_c, 15, 55, 0
28, 298470, Note_on_c, 15, 54, 100
28, 298499, Note_on_c, 15, 54, 0
28, 298500, Note_on_c, 15, 55, 100
28, 298559, Note_on_c, 15, 55, 0
28, 298560, Note_on_c, 15, 50, 100
28, 298619, Note_on_c, 15, 50, 0
28, 298620, Note_on_c, 15, 50, 100
28, 298679, Note_on_c, 15, 50, 0
28, 298680, Note_on_c, 15, 50, 100
28, 298739, Note_on_c, 15, 50, 0
28, 298740, Note_on_c, 15, 50, 100
28, 298799, Note_on_c, 15, 50, 0
28, 298800, Note_on_c, 15, 54, 100
28, 298829, Note_on_c, 15, 54, 0
28, 298830, Note_on_c, 15, 52, 100
28, 298859, Note_on_c, 15, 52, 0
28, 298860, Note_on_c, 15, 54, 100
28, 298919, Note_on_c, 15, 54, 0
28, 298920, Note_on_c, 15, 47, 100
28, 298979, Note_on_c, 15, 47, 0
28, 298980, Note_on_c, 15, 47, 100
28, 299039, Note_on_c, 15, 47, 0
28, 299040, Note_on_c, 15, 47, 100
28, 299099, Note_on_c, 15, 47, 0
28, 299100, Note_on_c, 15, 47, 100
28, 299159, Note_on_c, 15, 47, 0
28, 299160, Note_on_c, 15, 52, 100
28, 299189, Note_on_c, 15, 52, 0
28, 299190, Note_on_c, 15, 50, 100
28, 299219, Note_on_c, 15, 50, 0
28, 299220, Note_on_c, 15, 52, 100
28, 299279, Note_on_c, 15, 52, 0
28, 299280, Note_on_c, 15, 49, 100
28, 299339, Note_on_c, 15, 49, 0
28, 299340, Note_on_c, 15, 45, 100
28, 299399, Note_on_c, 15, 45, 0
28, 299400, Note_on_c, 15, 49, 100
28, 299459, Note_on_c, 15, 49, 0
28, 299460, Note_on_c, 15, 50, 100
28, 299519, Note_on_c, 15, 50, 0
28, 299520, Note_on_c, 15, 38, 100
28, 299579, Note_on_c, 15, 38, 0
28, 299580, Note_on_c, 15, 50, 100
28, 299639, Note_on_c, 15, 50, 0
28, 299640, Note_on_c, 15, 54, 100
28, 299669, Note_on_c, 15, 54, 0
28, 299670, Note_on_c, 15, 52, 100
28, 299699, Note_on_c, 15, 52, 0
28, 299700, Note_on_c, 15, 50, 100
28, 299759, Note_on_c, 15, 50, 0
28, 299760, Note_on_c, 15, 49, 100
28, 299819, Note_on_c, 15, 49, 0
28, 299820, Note_on_c, 15, 47, 100
28, 299879, Note_on_c, 15, 47, 0
28, 299880, Note_on_c, 15, 59, 100
28, 299939, Note_on_c, 15, 59, 0
28, 299940, Note_on_c, 15, 57, 100
28, 299999, Note_on_c, 15, 57, 0
28, 300000, Note_on_c, 15, 45, 100
28, 300059, Note_on_c, 15, 45, 0
28, 300060, Note_on_c, 15, 43, 100
28, 300119, Note_on_c, 15, 43, 0
28, 300120, Note_on_c, 15, 55, 100
28, 300179, Note_on_c, 15, 55, 0
28, 300180, Note_on_c, 15, 55, 100
28, 300239, Note_on_c, 15, 55, 0
28, 300240, Note_on_c, 15, 49, 100
28, 300269, Note_on_c, 15, 49, 0
28, 300270, Note_on_c, 15, 47, 100
28, 300299, Note_on_c, 15, 47, 0
28, 300300, Note_on_c, 15, 49, 100
28, 300359, Note_on_c, 15, 49, 0
28, 300360, Note_on_c, 15, 52, 100
28, 300419, Note_on_c, 15, 52, 0
28, 300420, Note_on_c, 15, 45, 100
28, 300479, Note_on_c, 15, 45, 0
28, 300480, Note_on_c, 15, 49, 100
28, 300539, Note_on_c, 15, 49, 0
28, 300540, Note_on_c, 15, 50, 100
28, 300599, Note_on_c, 15, 50, 0
28, 300600, Note_on_c, 15, 62, 100
28, 300629, Note_on_c, 15, 62, 0
28, 300630, Note_on_c, 15, 61, 100
28, 300659, Note_on_c, 15, 61, 0
28, 300660, Note_on_c, 15, 62, 100
28, 300719, Note_on_c, 15, 62, 0
28, 300720, Note_on_c, 15, 55, 100
28, 300779, Note_on_c, 15, 55, 0
28, 300780, Note_on_c, 15, 57, 100
28, 300839, Note_on_c, 15, 57, 0
28, 300840, Note_on_c, 15, 45, 100
28, 300899, Note_on_c, 15, 45, 0
28, 300900, Note_on_c, 15, 50, 100
28, 300959, Note_on_c, 15, 50, 0
28, 300960, Note_on_c, 15, 38, 100
28, 301019, Note_on_c, 15, 38, 0
28, 301020, Note_on_c, 15, 38, 100
28, 301079, Note_on_c, 15, 38, 0
28, 301080, Note_on_c, 15, 50, 100
28, 301109, Note_on_c, 15, 50, 0
28, 301110, Note_on_c, 15, 52, 100
28, 301139, Note_on_c, 15, 52, 0
28, 301140, Note_on_c, 15, 54, 100
28, 301199, Note_on_c, 15, 54, 0
28, 301200, Note_on_c, 15, 50, 100
28, 301259, Note_on_c, 15, 50, 0
28, 301260, Note_on_c, 15, 47, 100
28, 301319, Note_on_c, 15, 47, 0
28, 301320, Note_on_c, 15, 43, 100
28, 301349, Note_on_c, 15, 43, 0
28, 301350, Note_on_c, 15, 45, 100
28, 301379, Note_on_c, 15, 45, 0
28, 301380, Note_on_c, 15, 47, 100
28, 301439, Note_on_c, 15, 47, 0
28, 301440, Note_on_c, 15, 50, 100
28, 301499, Note_on_c, 15, 50, 0
28, 301500, Note_on_c, 15, 55, 100
28, 301559, Note_on_c, 15, 55, 0
28, 301560, Note_on_c, 15, 57, 100
28, 301589, Note_on_c, 15, 57, 0
28, 301590, Note_on_c, 15, 59, 100
28, 301619, Note_on_c, 15, 59, 0
28, 301620, Note_on_c, 15, 60, 100
28, 301679, Note_on_c, 15, 60, 0
28, 301680, Note_on_c, 15, 48, 100
28, 301739, Note_on_c, 15, 48, 0
28, 301740, Note_on_c, 15, 48, 100
28, 301799, Note_on_c, 15, 48, 0
28, 301800, Note_on_c, 15, 60, 100
28, 301829, Note_on_c, 15, 60, 0
28, 301830, Note_on_c, 15, 62, 100
28, 301859, Note_on_c, 15, 62, 0
28, 301860, Note_on_c, 15, 60, 100
28, 301919, Note_on_c, 15, 60, 0
28, 301920, Note_on_c, 15, 59, 100
28, 301979, Note_on_c, 15, 59, 0
28, 301980, Note_on_c, 15, 57, 100
28, 302039, Note_on_c, 15, 57, 0
28, 302040, Note_on_c, 15, 52, 100
28, 302099, Note_on_c, 15, 52, 0
28, 302100, Note_on_c, 15, 53, 100
28, 302159, Note_on_c, 15, 53, 0
28, 302160, Note_on_c, 15, 48, 100
28, 302219, Note_on_c, 15, 48, 0
28, 302220, Note_on_c, 15, 50, 100
28, 302279, Note_on_c, 15, 50, 0
28, 302280, Note_on_c, 15, 52, 100
28, 302339, Note_on_c, 15, 52, 0
28, 302340, Note_on_c, 15, 45, 100
28, 302399, Note_on_c, 15, 45, 0
28, 302400, Note_on_c, 15, 57, 100
28, 302459, Note_on_c, 15, 57, 0
28, 302460, Note_on_c, 15, 57, 100
28, 302519, Note_on_c, 15, 57, 0
28, 302520, Note_on_c, 15, 45, 100
28, 302549, Note_on_c, 15, 45, 0
28, 302550, Note_on_c, 15, 44, 100
28, 302579, Note_on_c, 15, 44, 0
28, 302580, Note_on_c, 15, 45, 100
28, 302639, Note_on_c, 15, 45, 0
28, 302760, Note_on_c, 15, 57, 100
28, 302819, Note_on_c, 15, 57, 0
28, 302820, Note_on_c, 15, 57, 100
28, 302879, Note_on_c, 15, 57, 0
28, 302880, Note_on_c, 15, 45, 100
28, 302909, Note_on_c, 15, 45, 0
28, 302910, Note_on_c, 15, 44, 100
28, 302939, Note_on_c, 15, 44, 0
28, 302940, Note_on_c, 15, 45, 100
28, 302999, Note_on_c, 15, 45, 0
28, 303120, Note_on_c, 15, 57, 100
28, 303149, Note_on_c, 15, 57, 0
28, 303150, Note_on_c, 15, 56, 100
28, 303179, Note_on_c, 15, 56, 0
28, 303180, Note_on_c, 15, 57, 100
28, 303239, Note_on_c, 15, 57, 0
28, 303240, Note_on_c, 15, 45, 100
28, 303299, Note_on_c, 15, 45, 0
28, 303300, Note_on_c, 15, 50, 100
28, 303359, Note_on_c, 15, 50, 0
28, 303360, Note_on_c, 15, 38, 100
28, 303419, Note_on_c, 15, 38, 0
28, 303420, Note_on_c, 15, 43, 100
28, 303479, Note_on_c, 15, 43, 0
28, 303480, Note_on_c, 15, 55, 100
28, 303509, Note_on_c, 15, 55, 0
28, 303510, Note_on_c, 15, 54, 100
28, 303539, Note_on_c, 15, 54, 0
28, 303540, Note_on_c, 15, 52, 100
28, 303599, Note_on_c, 15, 52, 0
28, 303600, Note_on_c, 15, 60, 100
28, 303659, Note_on_c, 15, 60, 0
28, 303660, Note_on_c, 15, 54, 100
28, 303719, Note_on_c, 15, 54, 0
28, 303720, Note_on_c, 15, 57, 100
28, 303779, Note_on_c, 15, 57, 0
28, 303780, Note_on_c, 15, 59, 100
28, 303839, Note_on_c, 15, 59, 0
28, 303840, Note_on_c, 15, 47, 100
28, 303899, Note_on_c, 15, 47, 0
28, 303900, Note_on_c, 15, 47, 100
28, 303959, Note_on_c, 15, 47, 0
28, 303960, Note_on_c, 15, 59, 100
28, 303989, Note_on_c, 15, 59, 0
28, 303990, Note_on_c, 15, 57, 100
28, 304019, Note_on_c, 15, 57, 0
28, 304020, Note_on_c, 15, 59, 100
28, 304079, Note_on_c, 15, 59, 0
28, 304080, Note_on_c, 15, 54, 100
28, 304139, Note_on_c, 15, 54, 0
28, 304140, Note_on_c, 15, 55, 100
28, 304199, Note_on_c, 15, 55, 0
28, 304200, Note_on_c, 15, 47, 100
28, 304259, Note_on_c, 15, 47, 0
28, 304260, Note_on_c, 15, 47, 100
28, 304319, Note_on_c, 15, 47, 0
28, 304320, Note_on_c, 15, 55, 100
28, 304349, Note_on_c, 15, 55, 0
28, 304350, Note_on_c, 15, 54, 100
28, 304379, Note_on_c, 15, 54, 0
28, 304380, Note_on_c, 15, 55, 100
28, 304439, Note_on_c, 15, 55, 0
28, 304440, Note_on_c, 15, 52, 100
28, 304499, Note_on_c, 15, 52, 0
28, 304500, Note_on_c, 15, 51, 100
28, 304559, Note_on_c, 15, 51, 0
28, 304560, Note_on_c, 15, 45, 100
28, 304619, Note_on_c, 15, 45, 0
28, 304620, Note_on_c, 15, 45, 100
28, 304679, Note_on_c, 15, 45, 0
28, 304680, Note_on_c, 15, 51, 100
28, 304709, Note_on_c, 15, 51, 0
28, 304710, Note_on_c, 15, 49, 100
28, 304739, Note_on_c, 15, 49, 0
28, 304740, Note_on_c, 15, 51, 100
28, 304799, Note_on_c, 15, 51, 0
28, 304800, Note_on_c, 15, 47, 100
28, 304859, Note_on_c, 15, 47, 0
28, 304860, Note_on_c, 15, 52, 100
28, 304919, Note_on_c, 15, 52, 0
28, 304920, Note_on_c, 15, 47, 100
28, 304979, Note_on_c, 15, 47, 0
28, 304980, Note_on_c, 15, 48, 100
28, 305039, Note_on_c, 15, 48, 0
28, 305040, Note_on_c, 15, 43, 100
28, 305099, Note_on_c, 15, 43, 0
28, 305100, Note_on_c, 15, 45, 100
28, 305159, Note_on_c, 15, 45, 0
28, 305160, Note_on_c, 15, 47, 100
28, 305219, Note_on_c, 15, 47, 0
28, 305220, Note_on_c, 15, 40, 100
28, 305279, Note_on_c, 15, 40, 0
28, 305280, Note_on_c, 15, 52, 100
28, 305339, Note_on_c, 15, 52, 0
28, 305340, Note_on_c, 15, 52, 100
28, 305399, Note_on_c, 15, 52, 0
28, 305400, Note_on_c, 15, 59, 100
28, 305429, Note_on_c, 15, 59, 0
28, 305430, Note_on_c, 15, 57, 100
28, 305459, Note_on_c, 15, 57, 0
28, 305460, Note_on_c, 15, 59, 100
28, 305519, Note_on_c, 15, 59, 0
28, 305520, Note_on_c, 15, 55, 100
28, 305579, Note_on_c, 15, 55, 0
28, 305580, Note_on_c, 15, 52, 100
28, 305639, Note_on_c, 15, 52, 0
28, 305640, Note_on_c, 15, 57, 100
28, 305669, Note_on_c, 15, 57, 0
28, 305670, Note_on_c, 15, 56, 100
28, 305699, Note_on_c, 15, 56, 0
28, 305700, Note_on_c, 15, 57, 100
28, 305759, Note_on_c, 15, 57, 0
28, 305760, Note_on_c, 15, 52, 100
28, 305819, Note_on_c, 15, 52, 0
28, 305820, Note_on_c, 15, 52, 100
28, 305879, Note_on_c, 15, 52, 0
28, 305880, Note_on_c, 15, 52, 100
28, 305939, Note_on_c, 15, 52, 0
28, 305940, Note_on_c, 15, 52, 100
28, 305999, Note_on_c, 15, 52, 0
28, 306000, Note_on_c, 15, 55, 100
28, 306029, Note_on_c, 15, 55, 0
28, 306030, Note_on_c, 15, 54, 100
28, 306059, Note_on_c, 15, 54, 0
28, 306060, Note_on_c, 15, 55, 100
28, 306119, Note_on_c, 15, 55, 0
28, 306120, Note_on_c, 15, 52, 100
28, 306179, Note_on_c, 15, 52, 0
28, 306180, Note_on_c, 15, 52, 100
28, 306239, Note_on_c, 15, 52, 0
28, 306240, Note_on_c, 15, 52, 100
28, 306299, Note_on_c, 15, 52, 0
28, 306300, Note_on_c, 15, 52, 100
28, 306359, Note_on_c, 15, 52, 0
28, 306360, Note_on_c, 15, 54, 100
28, 306389, Note_on_c, 15, 54, 0
28, 306390, Note_on_c, 15, 52, 100
28, 306419, Note_on_c, 15, 52, 0
28, 306420, Note_on_c, 15, 54, 100
28, 306479, Note_on_c, 15, 54, 0
28, 306480, Note_on_c, 15, 51, 100
28, 306539, Note_on_c, 15, 51, 0
28, 306540, Note_on_c, 15, 47, 100
28, 306599, Note_on_c, 15, 47, 0
28, 306600, Note_on_c, 15, 51, 100
28, 306659, Note_on_c, 15, 51, 0
28, 306660, Note_on_c, 15, 52, 100
28, 306719, Note_on_c, 15, 52, 0
28, 306720, Note_on_c, 15, 40, 100
28, 306779, Note_on_c, 15, 40, 0
28, 306780, Note_on_c, 15, 38, 100
28, 306839, Note_on_c, 15, 38, 0
28, 306840, Note_on_c, 15, 50, 100
28, 306899, Note_on_c, 15, 50, 0
28, 306900, Note_on_c, 15, 48, 100
28, 306959, Note_on_c, 15, 48, 0
28, 306960, Note_on_c, 15, 45, 100
28, 307019, Note_on_c, 15, 45, 0
28, 307020, Note_on_c, 15, 57, 100
28, 307079, Note_on_c, 15, 57, 0
28, 307080, Note_on_c, 15, 55, 100
28, 307109, Note_on_c, 15, 55, 0
28, 307110, Note_on_c, 15, 54, 100
28, 307139, Note_on_c, 15, 54, 0
28, 307140, Note_on_c, 15, 55, 100
28, 307199, Note_on_c, 15, 55, 0
28, 307200, Note_on_c, 15, 52, 100
28, 307259, Note_on_c, 15, 52, 0
28, 307260, Note_on_c, 15, 59, 100
28, 307319, Note_on_c, 15, 59, 0
28, 307320, Note_on_c, 15, 47, 100
28, 307379, Note_on_c, 15, 47, 0
28, 307380, Note_on_c, 15, 52, 100
28, 307439, Note_on_c, 15, 52, 0
28, 307440, Note_on_c, 15, 40, 100
28, 307499, Note_on_c, 15, 40, 0
28, 307500, Note_on_c, 15, 40, 100
28, 307559, Note_on_c, 15, 40, 0
28, 307560, Note_on_c, 15, 52, 100
28, 307589, Note_on_c, 15, 52, 0
28, 307590, Note_on_c, 15, 54, 100
28, 307619, Note_on_c, 15, 54, 0
28, 307620, Note_on_c, 15, 55, 100
28, 307679, Note_on_c, 15, 55, 0
28, 307680, Note_on_c, 15, 52, 100
28, 307739, Note_on_c, 15, 52, 0
28, 307740, Note_on_c, 15, 57, 100
28, 307799, Note_on_c, 15, 57, 0
28, 307800, Note_on_c, 15, 45, 100
28, 307859, Note_on_c, 15, 45, 0
28, 307860, Note_on_c, 15, 45, 100
28, 307919, Note_on_c, 15, 45, 0
28, 307920, Note_on_c, 15, 57, 100
28, 307949, Note_on_c, 15, 57, 0
28, 307950, Note_on_c, 15, 59, 100
28, 307979, Note_on_c, 15, 59, 0
28, 307980, Note_on_c, 15, 60, 100
28, 308039, Note_on_c, 15, 60, 0
28, 308040, Note_on_c, 15, 57, 100
28, 308099, Note_on_c, 15, 57, 0
28, 308100, Note_on_c, 15, 62, 100
28, 308159, Note_on_c, 15, 62, 0
28, 308160, Note_on_c, 15, 50, 100
28, 308219, Note_on_c, 15, 50, 0
28, 308220, Note_on_c, 15, 48, 100
28, 308279, Note_on_c, 15, 48, 0
28, 308280, Note_on_c, 15, 60, 100
28, 308339, Note_on_c, 15, 60, 0
28, 308340, Note_on_c, 15, 54, 100
28, 308399, Note_on_c, 15, 54, 0
28, 308400, Note_on_c, 15, 50, 100
28, 308459, Note_on_c, 15, 50, 0
28, 308460, Note_on_c, 15, 43, 100
28, 308519, Note_on_c, 15, 43, 0
28, 308520, Note_on_c, 15, 50, 100
28, 308579, Note_on_c, 15, 50, 0
28, 308580, Note_on_c, 15, 55, 100
28, 308639, Note_on_c, 15, 55, 0
28, 308640, Note_on_c, 15, 43, 100
28, 308699, Note_on_c, 15, 43, 0
28, 308700, Note_on_c, 15, 42, 100
28, 308759, Note_on_c, 15, 42, 0
28, 308760, Note_on_c, 15, 43, 100
28, 308819, Note_on_c, 15, 43, 0
28, 308820, Note_on_c, 15, 50, 100
28, 308879, Note_on_c, 15, 50, 0
28, 308880, Note_on_c, 15, 38, 100
28, 308939, Note_on_c, 15, 38, 0
28, 308940, Note_on_c, 15, 38, 100
28, 308999, Note_on_c, 15, 38, 0
28, 309000, Note_on_c, 15, 50, 100
28, 309029, Note_on_c, 15, 50, 0
28, 309030, Note_on_c, 15, 52, 100
28, 309059, Note_on_c, 15, 52, 0
28, 309060, Note_on_c, 15, 50, 100
28, 309119, Note_on_c, 15, 50, 0
28, 309120, Note_on_c, 15, 48, 100
28, 309179, Note_on_c, 15, 48, 0
28, 309180, Note_on_c, 15, 47, 100
28, 309239, Note_on_c, 15, 47, 0
28, 309240, Note_on_c, 15, 38, 100
28, 309299, Note_on_c, 15, 38, 0
28, 309300, Note_on_c, 15, 38, 100
28, 309359, Note_on_c, 15, 38, 0
28, 309360, Note_on_c, 15, 48, 100
28, 309389, Note_on_c, 15, 48, 0
28, 309390, Note_on_c, 15, 47, 100
28, 309419, Note_on_c, 15, 47, 0
28, 309420, Note_on_c, 15, 45, 100
28, 309479, Note_on_c, 15, 45, 0
28, 309480, Note_on_c, 15, 43, 100
28, 309539, Note_on_c, 15, 43, 0
28, 309540, Note_on_c, 15, 50, 100
28, 309599, Note_on_c, 15, 50, 0
28, 309600, Note_on_c, 15, 38, 100
28, 309659, Note_on_c, 15, 38, 0
28, 309660, Note_on_c, 15, 38, 100
28, 309719, Note_on_c, 15, 38, 0
28, 309720, Note_on_c, 15, 54, 100
28, 309749, Note_on_c, 15, 54, 0
28, 309750, Note_on_c, 15, 52, 100
28, 309779, Note_on_c, 15, 52, 0
28, 309780, Note_on_c, 15, 50, 100
28, 309839, Note_on_c, 15, 50, 0
28, 309840, Note_on_c, 15, 48, 100
28, 309899, Note_on_c, 15, 48, 0
28, 309900, Note_on_c, 15, 47, 100
28, 309959, Note_on_c, 15, 47, 0
28, 309960, Note_on_c, 15, 52, 100
28, 310019, Note_on_c, 15, 52, 0
28, 310020, Note_on_c, 15, 50, 100
28, 310079, Note_on_c, 15, 50, 0
28, 310080, Note_on_c, 15, 48, 100
28, 310139, Note_on_c, 15, 48, 0
28, 310140, Note_on_c, 15, 50, 100
28, 310199, Note_on_c, 15, 50, 0
28, 310200, Note_on_c, 15, 38, 100
28, 310259, Note_on_c, 15, 38, 0
28, 310260, Note_on_c, 15, 43, 100
28, 310319, Note_on_c, 15, 43, 0
28, 310320, Note_on_c, 15, 55, 100
28, 310379, Note_on_c, 15, 55, 0
28, 310380, Note_on_c, 15, 55, 100
28, 310439, Note_on_c, 15, 55, 0
28, 310440, Note_on_c, 15, 43, 100
28, 310499, Note_on_c, 15, 43, 0
28, 310500, Note_on_c, 15, 42, 100
28, 310559, Note_on_c, 15, 42, 0
28, 310560, Note_on_c, 15, 43, 100
28, 310619, Note_on_c, 15, 43, 0
28, 310620, Note_on_c, 15, 50, 100
28, 310679, Note_on_c, 15, 50, 0
28, 310680, Note_on_c, 15, 38, 100
28, 310739, Note_on_c, 15, 38, 0
28, 310740, Note_on_c, 15, 38, 100
28, 310799, Note_on_c, 15, 38, 0
28, 310800, Note_on_c, 15, 54, 100
28, 310829, Note_on_c, 15, 54, 0
28, 310830, Note_on_c, 15, 52, 100
28, 310859, Note_on_c, 15, 52, 0
28, 310860, Note_on_c, 15, 54, 100
28, 310919, Note_on_c, 15, 54, 0
28, 310920, Note_on_c, 15, 50, 100
28, 310979, Note_on_c, 15, 50, 0
28, 310980, Note_on_c, 15, 55, 100
28, 311039, Note_on_c, 15, 55, 0
28, 311040, Note_on_c, 15, 43, 100
28, 311099, Note_on_c, 15, 43, 0
28, 311100, Note_on_c, 15, 43, 100
28, 311159, Note_on_c, 15, 43, 0
28, 311160, Note_on_c, 15, 45, 100
28, 311189, Note_on_c, 15, 45, 0
28, 311190, Note_on_c, 15, 47, 100
28, 311219, Note_on_c, 15, 47, 0
28, 311220, Note_on_c, 15, 48, 100
28, 311279, Note_on_c, 15, 48, 0
28, 311280, Note_on_c, 15, 45, 100
28, 311339, Note_on_c, 15, 45, 0
28, 311340, Note_on_c, 15, 42, 100
28, 311399, Note_on_c, 15, 42, 0
28, 311400, Note_on_c, 15, 43, 100
28, 311429, Note_on_c, 15, 43, 0
28, 311430, Note_on_c, 15, 42, 100
28, 311459, Note_on_c, 15, 42, 0
28, 311460, Note_on_c, 15, 40, 100
28, 311519, Note_on_c, 15, 40, 0
28, 311520, Note_on_c, 15, 47, 100
28, 311579, Note_on_c, 15, 47, 0
28, 311580, Note_on_c, 15, 48, 100
28, 311639, Note_on_c, 15, 48, 0
28, 311640, Note_on_c, 15, 50, 100
28, 311699, Note_on_c, 15, 50, 0
28, 311700, Note_on_c, 15, 55, 100
28, 311759, Note_on_c, 15, 55, 0
28, 311760, Note_on_c, 15, 43, 100
28, 311819, Note_on_c, 15, 43, 0
28, 311820, Note_on_c, 15, 43, 100
28, 311879, Note_on_c, 15, 43, 0
28, 311880, Note_on_c, 15, 55, 100
28, 311909, Note_on_c, 15, 55, 0
28, 311910, Note_on_c, 15, 54, 100
28, 311939, Note_on_c, 15, 54, 0
28, 311940, Note_on_c, 15, 55, 100
28, 311999, Note_on_c, 15, 55, 0
28, 312000, Note_on_c, 15, 57, 100
28, 312029, Note_on_c, 15, 57, 0
28, 312030, Note_on_c, 15, 59, 100
28, 312059, Note_on_c, 15, 59, 0
28, 312060, Note_on_c, 15, 60, 100
28, 312119, Note_on_c, 15, 60, 0
28, 312120, Note_on_c, 15, 55, 100
28, 312149, Note_on_c, 15, 55, 0
28, 312150, Note_on_c, 15, 54, 100
28, 312179, Note_on_c, 15, 54, 0
28, 312180, Note_on_c, 15, 55, 100
28, 312239, Note_on_c, 15, 55, 0
28, 312240, Note_on_c, 15, 60, 100
28, 312299, Note_on_c, 15, 60, 0
28, 312300, Note_on_c, 15, 60, 100
28, 312359, Note_on_c, 15, 60, 0
28, 312360, Note_on_c, 15, 59, 100
28, 312389, Note_on_c, 15, 59, 0
28, 312390, Note_on_c, 15, 57, 100
28, 312419, Note_on_c, 15, 57, 0
28, 312420, Note_on_c, 15, 59, 100
28, 312479, Note_on_c, 15, 59, 0
28, 312480, Note_on_c, 15, 55, 100
28, 312539, Note_on_c, 15, 55, 0
28, 312540, Note_on_c, 15, 52, 100
28, 312599, Note_on_c, 15, 52, 0
28, 312600, Note_on_c, 15, 52, 100
28, 312629, Note_on_c, 15, 52, 0
28, 312630, Note_on_c, 15, 50, 100
28, 312659, Note_on_c, 15, 50, 0
28, 312660, Note_on_c, 15, 52, 100
28, 312719, Note_on_c, 15, 52, 0
28, 312720, Note_on_c, 15, 54, 100
28, 312749, Note_on_c, 15, 54, 0
28, 312750, Note_on_c, 15, 55, 100
28, 312779, Note_on_c, 15, 55, 0
28, 312780, Note_on_c, 15, 57, 100
28, 312839, Note_on_c, 15, 57, 0
28, 312840, Note_on_c, 15, 55, 100
28, 312899, Note_on_c, 15, 55, 0
28, 312900, Note_on_c, 15, 54, 100
28, 312959, Note_on_c, 15, 54, 0
28, 312960, Note_on_c, 15, 50, 100
28, 313019, Note_on_c, 15, 50, 0
28, 313020, Note_on_c, 15, 52, 100
28, 313079, Note_on_c, 15, 52, 0
28, 313080, Note_on_c, 15, 54, 100
28, 313139, Note_on_c, 15, 54, 0
28, 313140, Note_on_c, 15, 55, 100
28, 313199, Note_on_c, 15, 55, 0
28, 313200, Note_on_c, 15, 43, 100
28, 313259, Note_on_c, 15, 43, 0
28, 313260, Note_on_c, 15, 43, 100
28, 313319, Note_on_c, 15, 43, 0
28, 313320, Note_on_c, 15, 55, 100
28, 313349, Note_on_c, 15, 55, 0
28, 313350, Note_on_c, 15, 53, 100
28, 313379, Note_on_c, 15, 53, 0
28, 313380, Note_on_c, 15, 52, 100
28, 313439, Note_on_c, 15, 52, 0
28, 313440, Note_on_c, 15, 50, 100
28, 313499, Note_on_c, 15, 50, 0
28, 313500, Note_on_c, 15, 48, 100
28, 313559, Note_on_c, 15, 48, 0
28, 313560, Note_on_c, 15, 36, 100
28, 313619, Note_on_c, 15, 36, 0
28, 313620, Note_on_c, 15, 36, 100
28, 313679, Note_on_c, 15, 36, 0
28, 313680, Note_on_c, 15, 57, 100
28, 313709, Note_on_c, 15, 57, 0
28, 313710, Note_on_c, 15, 55, 100
28, 313739, Note_on_c, 15, 55, 0
28, 313740, Note_on_c, 15, 54, 100
28, 313799, Note_on_c, 15, 54, 0
28, 313800, Note_on_c, 15, 52, 100
28, 313859, Note_on_c, 15, 52, 0
28, 313860, Note_on_c, 15, 50, 100
28, 313919, Note_on_c, 15, 50, 0
28, 313920, Note_on_c, 15, 38, 100
28, 313979, Note_on_c, 15, 38, 0
28, 313980, Note_on_c, 15, 38, 100
28, 314039, Note_on_c, 15, 38, 0
28, 314040, Note_on_c, 15, 59, 100
28, 314069, Note_on_c, 15, 59, 0
28, 314070, Note_on_c, 15, 57, 100
28, 314099, Note_on_c, 15, 57, 0
28, 314100, Note_on_c, 15, 55, 100
28, 314159, Note_on_c, 15, 55, 0
28, 314160, Note_on_c, 15, 54, 100
28, 314219, Note_on_c, 15, 54, 0
28, 314220, Note_on_c, 15, 52, 100
28, 314279, Note_on_c, 15, 52, 0
28, 314280, Note_on_c, 15, 40, 100
28, 314339, Note_on_c, 15, 40, 0
28, 314340, Note_on_c, 15, 38, 100
28, 314399, Note_on_c, 15, 38, 0
28, 314400, Note_on_c, 15, 50, 100
28, 314459, Note_on_c, 15, 50, 0
28, 314460, Note_on_c, 15, 48, 100
28, 314519, Note_on_c, 15, 48, 0
28, 314520, Note_on_c, 15, 36, 100
28, 314579, Note_on_c, 15, 36, 0
28, 314580, Note_on_c, 15, 36, 100
28, 314639, Note_on_c, 15, 36, 0
28, 314640, Note_on_c, 15, 60, 100
28, 314669, Note_on_c, 15, 60, 0
28, 314670, Note_on_c, 15, 59, 100
28, 314699, Note_on_c, 15, 59, 0
28, 314700, Note_on_c, 15, 60, 100
28, 314759, Note_on_c, 15, 60, 0
28, 314760, Note_on_c, 15, 57, 100
28, 314819, Note_on_c, 15, 57, 0
28, 314820, Note_on_c, 15, 54, 100
28, 314879, Note_on_c, 15, 54, 0
28, 314880, Note_on_c, 15, 50, 100
28, 314939, Note_on_c, 15, 50, 0
28, 314940, Note_on_c, 15, 55, 100
28, 314999, Note_on_c, 15, 55, 0
28, 315000, Note_on_c, 15, 43, 100
28, 315029, Note_on_c, 15, 43, 0
28, 315030, Note_on_c, 15, 42, 100
28, 315059, Note_on_c, 15, 42, 0
28, 315060, Note_on_c, 15, 43, 100
28, 315119, Note_on_c, 15, 43, 0
28, 315120, Note_on_c, 15, 48, 100
28, 315179, Note_on_c, 15, 48, 0
28, 315180, Note_on_c, 15, 50, 100
28, 315239, Note_on_c, 15, 50, 0
28, 315240, Note_on_c, 15, 38, 100
28, 315299, Note_on_c, 15, 38, 0
28, 315300, Note_on_c, 15, 43, 100
28, 315659, Note_on_c, 15, 43, 0
28, 316020, Note_on_c, 15, 45, 100
28, 316740, Note_on_c, 15, 45, 0
28, 316740, Note_on_c, 15, 50, 100
28, 317220, Note_on_c, 15, 50, 0
28, 317220, Note_on_c, 15, 54, 100
28, 317460, Note_on_c, 15, 54, 0
28, 317460, Note_on_c, 15, 47, 100
28, 317580, Note_on_c, 15, 47, 0
28, 317580, Note_on_c, 15, 44, 100
28, 317700, Note_on_c, 15, 44, 0
28, 317700, Note_on_c, 15, 45, 100
28, 317820, Note_on_c, 15, 45, 0
28, 317820, Note_on_c, 15, 48, 100
28, 317940, Note_on_c, 15, 48, 0
28, 317940, Note_on_c, 15, 50, 100
28, 318060, Note_on_c, 15, 50, 0
28, 318060, Note_on_c, 15, 54, 100
28, 318180, Note_on_c, 15, 54, 0
28, 318300, Note_on_c, 15, 52, 100
28, 318420, Note_on_c, 15, 52, 0
28, 318420, Note_on_c, 15, 45, 100
28, 319170, Note_on_c, 15, 45, 0
28, 319170, Note_on_c, 15, 47, 90
28, 319199, Note_on_c, 15, 47, 0
28, 319200, Note_on_c, 15, 49, 90
28, 319229, Note_on_c, 15, 49, 0
28, 319230, Note_on_c, 15, 50, 90
28, 319259, Note_on_c, 15, 50, 0
28, 319260, Note_on_c, 15, 52, 90
28, 319289, Note_on_c, 15, 52, 0
28, 319290, Note_on_c, 15, 54, 90
28, 319319, Note_on_c, 15, 54, 0
28, 319320, Note_on_c, 15, 55, 90
28, 319349, Note_on_c, 15, 55, 0
28, 319350, Note_on_c, 15, 57, 90
28, 319379, Note_on_c, 15, 57, 0
28, 319380, Note_on_c, 15, 50, 90
28, 319409, Note_on_c, 15, 50, 0
28, 319410, Note_on_c, 15, 52, 90
28, 319439, Note_on_c, 15, 52, 0
28, 319440, Note_on_c, 15, 54, 90
28, 319469, Note_on_c, 15, 54, 0
28, 319470, Note_on_c, 15, 55, 90
28, 319499, Note_on_c, 15, 55, 0
28, 319500, Note_on_c, 15, 57, 90
28, 319529, Note_on_c, 15, 57, 0
28, 319530, Note_on_c, 15, 59, 90
28, 319559, Note_on_c, 15, 59, 0
28, 319560, Note_on_c, 15, 61, 90
28, 319589, Note_on_c, 15, 61, 0
28, 319590, Note_on_c, 15, 62, 90
28, 319619, Note_on_c, 15, 62, 0
28, 319620, Note_on_c, 15, 55, 90
28, 319679, Note_on_c, 15, 55, 0
28, 319680, Note_on_c, 15, 52, 90
28, 319709, Note_on_c, 15, 52, 0
28, 319710, Note_on_c, 15, 55, 90
28, 319739, Note_on_c, 15, 55, 0
28, 319740, Note_on_c, 15, 57, 90
28, 319799, Note_on_c, 15, 57, 0
28, 319800, Note_on_c, 15, 54, 90
28, 319829, Note_on_c, 15, 54, 0
28, 319830, Note_on_c, 15, 57, 90
28, 319859, Note_on_c, 15, 57, 0
28, 319860, Note_on_c, 15, 59, 90
28, 319919, Note_on_c, 15, 59, 0
28, 319920, Note_on_c, 15, 55, 90
28, 319949, Note_on_c, 15, 55, 0
28, 319950, Note_on_c, 15, 59, 90
28, 319979, Note_on_c, 15, 59, 0
28, 319980, Note_on_c, 15, 61, 90
28, 320039, Note_on_c, 15, 61, 0
28, 320040, Note_on_c, 15, 57, 90
28, 320069, Note_on_c, 15, 57, 0
28, 320070, Note_on_c, 15, 61, 90
28, 320099, Note_on_c, 15, 61, 0
28, 320100, Note_on_c, 15, 62, 90
28, 320159, Note_on_c, 15, 62, 0
28, 320220, Note_on_c, 15, 56, 90
28, 320279, Note_on_c, 15, 56, 0
28, 320460, Note_on_c, 15, 57, 90
28, 320579, Note_on_c, 15, 57, 0
28, 320580, Note_on_c, 15, 50, 90
28, 320819, Note_on_c, 15, 50, 0
28, 321060, Note_on_c, 15, 50, 90
28, 321299, Note_on_c, 15, 50, 0
28, 321300, Note_on_c, 15, 38, 90
28, 321539, Note_on_c, 15, 38, 0
28, 322500, Note_on_c, 15, 50, 90
28, 322739, Note_on_c, 15, 50, 0
28, 322740, Note_on_c, 15, 38, 90
28, 322979, Note_on_c, 15, 38, 0
28, 323940, Note_on_c, 15, 50, 90
28, 324179, Note_on_c, 15, 50, 0
28, 324180, Note_on_c, 15, 38, 90
28, 324419, Note_on_c, 15, 38, 0
28, 324420, Note_on_c, 15, 50, 90
28, 324539, Note_on_c, 15, 50, 0
28, 324540, Note_on_c, 15, 38, 90
28, 324659, Note_on_c, 15, 38, 0
28, 324660, Note_on_c, 15, 38, 90
28, 324779, Note_on_c, 15, 38, 0
28, 324780, Note_on_c, 15, 50, 90
28, 324899, Note_on_c, 15, 50, 0
28, 324900, Note_on_c, 15, 50, 90
28, 325019, Note_on_c, 15, 50, 0
28, 325020, Note_on_c, 15, 38, 90
28, 325139, Note_on_c, 15, 38, 0
28, 325140, Note_on_c, 15, 38, 90
28, 325259, Note_on_c, 15, 38, 0
28, 325260, Note_on_c, 15, 50, 90
28, 325379, Note_on_c, 15, 50, 0
28, 325380, Note_on_c, 15, 50, 90
28, 325499, Note_on_c, 15, 50, 0
28, 325500, Note_on_c, 15, 50, 90
28, 325619, Note_on_c, 15, 50, 0
28, 325620, Note_on_c, 15, 43, 90
28, 325739, Note_on_c, 15, 43, 0
28, 325740, Note_on_c, 15, 43, 90
28, 325859, Note_on_c, 15, 43, 0
28, 325860, Note_on_c, 15, 50, 90
28, 325919, Note_on_c, 15, 50, 0
28, 325920, Note_on_c, 15, 52, 90
28, 325979, Note_on_c, 15, 52, 0
28, 325980, Note_on_c, 15, 54, 90
28, 326039, Note_on_c, 15, 54, 0
28, 326040, Note_on_c, 15, 55, 90
28, 326099, Note_on_c, 15, 55, 0
28, 326100, Note_on_c, 15, 57, 90
28, 326159, Note_on_c, 15, 57, 0
28, 326160, Note_on_c, 15, 56, 90
28, 326219, Note_on_c, 15, 56, 0
28, 326220, Note_on_c, 15, 57, 90
28, 326279, Note_on_c, 15, 57, 0
28, 326280, Note_on_c, 15, 56, 90
28, 326339, Note_on_c, 15, 56, 0
28, 326340, Note_on_c, 15, 57, 90
28, 326579, Note_on_c, 15, 57, 0
28, 326580, Note_on_c, 15, 45, 90
28, 326819, Note_on_c, 15, 45, 0
28, 327780, Note_on_c, 15, 57, 90
28, 328019, Note_on_c, 15, 57, 0
28, 328020, Note_on_c, 15, 45, 90
28, 328259, Note_on_c, 15, 45, 0
28, 329220, Note_on_c, 15, 57, 90
28, 329459, Note_on_c, 15, 57, 0
28, 329460, Note_on_c, 15, 45, 90
28, 329699, Note_on_c, 15, 45, 0
28, 329700, Note_on_c, 15, 45, 90
28, 329819, Note_on_c, 15, 45, 0
28, 329820, Note_on_c, 15, 57, 90
28, 329939, Note_on_c, 15, 57, 0
28, 329940, Note_on_c, 15, 57, 90
28, 330059, Note_on_c, 15, 57, 0
28, 330060, Note_on_c, 15, 45, 90
28, 330179, Note_on_c, 15, 45, 0
28, 330180, Note_on_c, 15, 45, 90
28, 330299, Note_on_c, 15, 45, 0
28, 330300, Note_on_c, 15, 57, 90
28, 330419, Note_on_c, 15, 57, 0
28, 330420, Note_on_c, 15, 57, 90
28, 330539, Note_on_c, 15, 57, 0
28, 330540, Note_on_c, 15, 45, 90
28, 330659, Note_on_c, 15, 45, 0
28, 330660, Note_on_c, 15, 47, 90
28, 330779, Note_on_c, 15, 47, 0
28, 330780, Note_on_c, 15, 45, 90
28, 330839, Note_on_c, 15, 45, 0
28, 330840, Note_on_c, 15, 43, 90
28, 330899, Note_on_c, 15, 43, 0
28, 330900, Note_on_c, 15, 42, 90
28, 331019, Note_on_c, 15, 42, 0
28, 331020, Note_on_c, 15, 43, 90
28, 331139, Note_on_c, 15, 43, 0
28, 331140, Note_on_c, 15, 45, 90
28, 331259, Note_on_c, 15, 45, 0
28, 331260, Note_on_c, 15, 45, 90
28, 331379, Note_on_c, 15, 45, 0
28, 331380, Note_on_c, 15, 38, 90
28, 331619, Note_on_c, 15, 38, 0
28, 331620, Note_on_c, 15, 50, 90
28, 331859, Note_on_c, 15, 50, 0
28, 331860, Note_on_c, 15, 38, 90
28, 332099, Note_on_c, 15, 38, 0
28, 333060, Note_on_c, 15, 50, 90
28, 333299, Note_on_c, 15, 50, 0
28, 333300, Note_on_c, 15, 38, 90
28, 333539, Note_on_c, 15, 38, 0
28, 334500, Note_on_c, 15, 50, 90
28, 334739, Note_on_c, 15, 50, 0
28, 334740, Note_on_c, 15, 38, 90
28, 334979, Note_on_c, 15, 38, 0
28, 334980, Note_on_c, 15, 50, 90
28, 335099, Note_on_c, 15, 50, 0
28, 335100, Note_on_c, 15, 38, 90
28, 335219, Note_on_c, 15, 38, 0
28, 335220, Note_on_c, 15, 38, 90
28, 335339, Note_on_c, 15, 38, 0
28, 335340, Note_on_c, 15, 50, 90
28, 335459, Note_on_c, 15, 50, 0
28, 335460, Note_on_c, 15, 50, 90
28, 335579, Note_on_c, 15, 50, 0
28, 335580, Note_on_c, 15, 38, 90
28, 335699, Note_on_c, 15, 38, 0
28, 335700, Note_on_c, 15, 38, 90
28, 335819, Note_on_c, 15, 38, 0
28, 335820, Note_on_c, 15, 50, 90
28, 335939, Note_on_c, 15, 50, 0
28, 335940, Note_on_c, 15, 50, 90
28, 336059, Note_on_c, 15, 50, 0
28, 336060, Note_on_c, 15, 50, 90
28, 336179, Note_on_c, 15, 50, 0
28, 336180, Note_on_c, 15, 43, 90
28, 336299, Note_on_c, 15, 43, 0
28, 336300, Note_on_c, 15, 43, 90
28, 336419, Note_on_c, 15, 43, 0
28, 336420, Note_on_c, 15, 50, 90
28, 336479, Note_on_c, 15, 50, 0
28, 336480, Note_on_c, 15, 52, 90
28, 336539, Note_on_c, 15, 52, 0
28, 336540, Note_on_c, 15, 54, 90
28, 336599, Note_on_c, 15, 54, 0
28, 336600, Note_on_c, 15, 55, 90
28, 336659, Note_on_c, 15, 55, 0
28, 336660, Note_on_c, 15, 57, 90
28, 336719, Note_on_c, 15, 57, 0
28, 336720, Note_on_c, 15, 56, 90
28, 336779, Note_on_c, 15, 56, 0
28, 336780, Note_on_c, 15, 57, 90
28, 336839, Note_on_c, 15, 57, 0
28, 336840, Note_on_c, 15, 56, 90
28, 336899, Note_on_c, 15, 56, 0
28, 336900, Note_on_c, 15, 57, 90
28, 337139, Note_on_c, 15, 57, 0
28, 337140, Note_on_c, 15, 45, 90
28, 337379, Note_on_c, 15, 45, 0
28, 338340, Note_on_c, 15, 57, 90
28, 338579, Note_on_c, 15, 57, 0
28, 338580, Note_on_c, 15, 45, 90
28, 338819, Note_on_c, 15, 45, 0
28, 339780, Note_on_c, 15, 57, 90
28, 340019, Note_on_c, 15, 57, 0
28, 340020, Note_on_c, 15, 45, 90
28, 340259, Note_on_c, 15, 45, 0
28, 340260, Note_on_c, 15, 45, 90
28, 340379, Note_on_c, 15, 45, 0
28, 340380, Note_on_c, 15, 57, 90
28, 340499, Note_on_c, 15, 57, 0
28, 340500, Note_on_c, 15, 57, 90
28, 340619, Note_on_c, 15, 57, 0
28, 340620, Note_on_c, 15, 45, 90
28, 340739, Note_on_c, 15, 45, 0
28, 340740, Note_on_c, 15, 45, 90
28, 340859, Note_on_c, 15, 45, 0
28, 340860, Note_on_c, 15, 57, 90
28, 340979, Note_on_c, 15, 57, 0
28, 340980, Note_on_c, 15, 57, 90
28, 341099, Note_on_c, 15, 57, 0
28, 341100, Note_on_c, 15, 45, 90
28, 341219, Note_on_c, 15, 45, 0
28, 341220, Note_on_c, 15, 47, 90
28, 341339, Note_on_c, 15, 47, 0
28, 341340, Note_on_c, 15, 45, 90
28, 341399, Note_on_c, 15, 45, 0
28, 341400, Note_on_c, 15, 43, 90
28, 341459, Note_on_c, 15, 43, 0
28, 341460, Note_on_c, 15, 42, 90
28, 341579, Note_on_c, 15, 42, 0
28, 341580, Note_on_c, 15, 43, 90
28, 341699, Note_on_c, 15, 43, 0
28, 341700, Note_on_c, 15, 45, 90
28, 341819, Note_on_c, 15, 45, 0
28, 341820, Note_on_c, 15, 45, 90
28, 341939, Note_on_c, 15, 45, 0
28, 341940, Note_on_c, 15, 38, 90
28, 342179, Note_on_c, 15, 38, 0
28, 342180, Note_on_c, 15, 59, 90
28, 342419, Note_on_c, 15, 59, 0
28, 342420, Note_on_c, 15, 54, 90
28, 342659, Note_on_c, 15, 54, 0
28, 342660, Note_on_c, 15, 55, 90
28, 342779, Note_on_c, 15, 55, 0
28, 342780, Note_on_c, 15, 54, 90
28, 342899, Note_on_c, 15, 54, 0
28, 342900, Note_on_c, 15, 52, 90
28, 343019, Note_on_c, 15, 52, 0
28, 343020, Note_on_c, 15, 54, 90
28, 343139, Note_on_c, 15, 54, 0
28, 343140, Note_on_c, 15, 59, 90
28, 343259, Note_on_c, 15, 59, 0
28, 343260, Note_on_c, 15, 47, 90
28, 343379, Note_on_c, 15, 47, 0
28, 343380, Note_on_c, 15, 59, 90
28, 343499, Note_on_c, 15, 59, 0
28, 343500, Note_on_c, 15, 57, 90
28, 343619, Note_on_c, 15, 57, 0
28, 343620, Note_on_c, 15, 56, 90
28, 343739, Note_on_c, 15, 56, 0
28, 343740, Note_on_c, 15, 54, 90
28, 343859, Note_on_c, 15, 54, 0
28, 343860, Note_on_c, 15, 56, 90
28, 343979, Note_on_c, 15, 56, 0
28, 343980, Note_on_c, 15, 52, 90
28, 344099, Note_on_c, 15, 52, 0
28, 344100, Note_on_c, 15, 57, 90
28, 344339, Note_on_c, 15, 57, 0
28, 344340, Note_on_c, 15, 52, 90
28, 344579, Note_on_c, 15, 52, 0
28, 344580, Note_on_c, 15, 45, 90
28, 344699, Note_on_c, 15, 45, 0
28, 344700, Note_on_c, 15, 57, 90
28, 344819, Note_on_c, 15, 57, 0
28, 344820, Note_on_c, 15, 56, 90
28, 344939, Note_on_c, 15, 56, 0
28, 344940, Note_on_c, 15, 52, 90
28, 345059, Note_on_c, 15, 52, 0
28, 345060, Note_on_c, 15, 57, 90
28, 345179, Note_on_c, 15, 57, 0
28, 345180, Note_on_c, 15, 52, 90
28, 345299, Note_on_c, 15, 52, 0
28, 345300, Note_on_c, 15, 56, 90
28, 345419, Note_on_c, 15, 56, 0
28, 345420, Note_on_c, 15, 52, 90
28, 345539, Note_on_c, 15, 52, 0
28, 345540, Note_on_c, 15, 57, 90
28, 345779, Note_on_c, 15, 57, 0
28, 345780, Note_on_c, 15, 52, 90
28, 346019, Note_on_c, 15, 52, 0
28, 346020, Note_on_c, 15, 45, 90
28, 346139, Note_on_c, 15, 45, 0
28, 346140, Note_on_c, 15, 50, 90
28, 346259, Note_on_c, 15, 50, 0
28, 346260, Note_on_c, 15, 62, 90
28, 346379, Note_on_c, 15, 62, 0
28, 346380, Note_on_c, 15, 61, 90
28, 346499, Note_on_c, 15, 61, 0
28, 346500, Note_on_c, 15, 59, 90
28, 346619, Note_on_c, 15, 59, 0
28, 346620, Note_on_c, 15, 57, 90
28, 346739, Note_on_c, 15, 57, 0
28, 346740, Note_on_c, 15, 56, 90
28, 346859, Note_on_c, 15, 56, 0
28, 346860, Note_on_c, 15, 52, 90
28, 346979, Note_on_c, 15, 52, 0
28, 346980, Note_on_c, 15, 57, 90
28, 347219, Note_on_c, 15, 57, 0
28, 347220, Note_on_c, 15, 52, 90
28, 347459, Note_on_c, 15, 52, 0
28, 347460, Note_on_c, 15, 45, 90
28, 347579, Note_on_c, 15, 45, 0
28, 347580, Note_on_c, 15, 52, 90
28, 347699, Note_on_c, 15, 52, 0
28, 347700, Note_on_c, 15, 49, 90
28, 347819, Note_on_c, 15, 49, 0
28, 347820, Note_on_c, 15, 45, 90
28, 347939, Note_on_c, 15, 45, 0
28, 347940, Note_on_c, 15, 50, 90
28, 348179, Note_on_c, 15, 50, 0
28, 348180, Note_on_c, 15, 38, 90
28, 348419, Note_on_c, 15, 38, 0
28, 349380, Note_on_c, 15, 50, 90
28, 349619, Note_on_c, 15, 50, 0
28, 349620, Note_on_c, 15, 38, 90
28, 349859, Note_on_c, 15, 38, 0
28, 349860, Note_on_c, 15, 50, 90
28, 349979, Note_on_c, 15, 50, 0
28, 349980, Note_on_c, 15, 50, 90
28, 350099, Note_on_c, 15, 50, 0
28, 350100, Note_on_c, 15, 50, 90
28, 350219, Note_on_c, 15, 50, 0
28, 350220, Note_on_c, 15, 50, 90
28, 350339, Note_on_c, 15, 50, 0
28, 350340, Note_on_c, 15, 50, 90
28, 350459, Note_on_c, 15, 50, 0
28, 350460, Note_on_c, 15, 50, 90
28, 350579, Note_on_c, 15, 50, 0
28, 350580, Note_on_c, 15, 50, 90
28, 350699, Note_on_c, 15, 50, 0
28, 350700, Note_on_c, 15, 50, 90
28, 350819, Note_on_c, 15, 50, 0
28, 350820, Note_on_c, 15, 50, 90
28, 351059, Note_on_c, 15, 50, 0
28, 351060, Note_on_c, 15, 38, 90
28, 351299, Note_on_c, 15, 38, 0
28, 351300, Note_on_c, 15, 50, 90
28, 351419, Note_on_c, 15, 50, 0
28, 351420, Note_on_c, 15, 38, 90
28, 351539, Note_on_c, 15, 38, 0
28, 351540, Note_on_c, 15, 38, 90
28, 351659, Note_on_c, 15, 38, 0
28, 351660, Note_on_c, 15, 50, 90
28, 351779, Note_on_c, 15, 50, 0
28, 351780, Note_on_c, 15, 50, 90
28, 351899, Note_on_c, 15, 50, 0
28, 351900, Note_on_c, 15, 38, 90
28, 352019, Note_on_c, 15, 38, 0
28, 352020, Note_on_c, 15, 38, 90
28, 352139, Note_on_c, 15, 38, 0
28, 352140, Note_on_c, 15, 50, 90
28, 352259, Note_on_c, 15, 50, 0
28, 352260, Note_on_c, 15, 50, 90
28, 352379, Note_on_c, 15, 50, 0
28, 352380, Note_on_c, 15, 50, 90
28, 352499, Note_on_c, 15, 50, 0
28, 352500, Note_on_c, 15, 43, 90
28, 352619, Note_on_c, 15, 43, 0
28, 352620, Note_on_c, 15, 43, 90
28, 352739, Note_on_c, 15, 43, 0
28, 352740, Note_on_c, 15, 50, 90
28, 352799, Note_on_c, 15, 50, 0
28, 352800, Note_on_c, 15, 52, 90
28, 352859, Note_on_c, 15, 52, 0
28, 352860, Note_on_c, 15, 54, 90
28, 352919, Note_on_c, 15, 54, 0
28, 352920, Note_on_c, 15, 55, 90
28, 352979, Note_on_c, 15, 55, 0
28, 352980, Note_on_c, 15, 57, 90
28, 353039, Note_on_c, 15, 57, 0
28, 353040, Note_on_c, 15, 56, 90
28, 353099, Note_on_c, 15, 56, 0
28, 353100, Note_on_c, 15, 57, 90
28, 353159, Note_on_c, 15, 57, 0
28, 353160, Note_on_c, 15, 56, 90
28, 353219, Note_on_c, 15, 56, 0
28, 353220, Note_on_c, 15, 57, 90
28, 353459, Note_on_c, 15, 57, 0
28, 353460, Note_on_c, 15, 45, 90
28, 353699, Note_on_c, 15, 45, 0
28, 354660, Note_on_c, 15, 57, 90
28, 354899, Note_on_c, 15, 57, 0
28, 354900, Note_on_c, 15, 45, 90
28, 355139, Note_on_c, 15, 45, 0
28, 355140, Note_on_c, 15, 45, 90
28, 355259, Note_on_c, 15, 45, 0
28, 355260, Note_on_c, 15, 45, 90
28, 355379, Note_on_c, 15, 45, 0
28, 355380, Note_on_c, 15, 45, 90
28, 355499, Note_on_c, 15, 45, 0
28, 355500, Note_on_c, 15, 45, 90
28, 355619, Note_on_c, 15, 45, 0
28, 355620, Note_on_c, 15, 45, 90
28, 355739, Note_on_c, 15, 45, 0
28, 355740, Note_on_c, 15, 45, 90
28, 355859, Note_on_c, 15, 45, 0
28, 355860, Note_on_c, 15, 45, 90
28, 355979, Note_on_c, 15, 45, 0
28, 355980, Note_on_c, 15, 45, 90
28, 356099, Note_on_c, 15, 45, 0
28, 356100, Note_on_c, 15, 57, 90
28, 356339, Note_on_c, 15, 57, 0
28, 356340, Note_on_c, 15, 45, 90
28, 356579, Note_on_c, 15, 45, 0
28, 356580, Note_on_c, 15, 45, 90
28, 356699, Note_on_c, 15, 45, 0
28, 356700, Note_on_c, 15, 57, 90
28, 356819, Note_on_c, 15, 57, 0
28, 356820, Note_on_c, 15, 57, 90
28, 356939, Note_on_c, 15, 57, 0
28, 356940, Note_on_c, 15, 45, 90
28, 357059, Note_on_c, 15, 45, 0
28, 357060, Note_on_c, 15, 45, 90
28, 357179, Note_on_c, 15, 45, 0
28, 357180, Note_on_c, 15, 57, 90
28, 357299, Note_on_c, 15, 57, 0
28, 357300, Note_on_c, 15, 57, 90
28, 357419, Note_on_c, 15, 57, 0
28, 357420, Note_on_c, 15, 45, 90
28, 357539, Note_on_c, 15, 45, 0
28, 357540, Note_on_c, 15, 47, 90
28, 357659, Note_on_c, 15, 47, 0
28, 357660, Note_on_c, 15, 45, 90
28, 357719, Note_on_c, 15, 45, 0
28, 357720, Note_on_c, 15, 43, 90
28, 357779, Note_on_c, 15, 43, 0
28, 357780, Note_on_c, 15, 42, 90
28, 357899, Note_on_c, 15, 42, 0
28, 357900, Note_on_c, 15, 43, 90
28, 358019, Note_on_c, 15, 43, 0
28, 358020, Note_on_c, 15, 45, 90
28, 358139, Note_on_c, 15, 45, 0
28, 358140, Note_on_c, 15, 45, 90
28, 358259, Note_on_c, 15, 45, 0
28, 358260, Note_on_c, 15, 38, 90
28, 358499, Note_on_c, 15, 38, 0
28, 358500, Note_on_c, 15, 50, 90
28, 358619, Note_on_c, 15, 50, 0
28, 358620, Note_on_c, 15, 49, 90
28, 358739, Note_on_c, 15, 49, 0
28, 358740, Note_on_c, 15, 47, 90
28, 358859, Note_on_c, 15, 47, 0
28, 358860, Note_on_c, 15, 45, 90
28, 358979, Note_on_c, 15, 45, 0
28, 358980, Note_on_c, 15, 56, 90
28, 359099, Note_on_c, 15, 56, 0
28, 359100, Note_on_c, 15, 52, 90
28, 359219, Note_on_c, 15, 52, 0
28, 359220, Note_on_c, 15, 54, 90
28, 359339, Note_on_c, 15, 54, 0
28, 359340, Note_on_c, 15, 56, 90
28, 359459, Note_on_c, 15, 56, 0
28, 359460, Note_on_c, 15, 57, 90
28, 359699, Note_on_c, 15, 57, 0
28, 359700, Note_on_c, 15, 45, 90
28, 359939, Note_on_c, 15, 45, 0
28, 359940, Note_on_c, 15, 47, 90
28, 360179, Note_on_c, 15, 47, 0
28, 360180, Note_on_c, 15, 44, 90
28, 360419, Note_on_c, 15, 44, 0
28, 360420, Note_on_c, 15, 41, 90
28, 360539, Note_on_c, 15, 41, 0
28, 360540, Note_on_c, 15, 37, 90
28, 360659, Note_on_c, 15, 37, 0
28, 360660, Note_on_c, 15, 49, 90
28, 360779, Note_on_c, 15, 49, 0
28, 360780, Note_on_c, 15, 49, 90
28, 360899, Note_on_c, 15, 49, 0
28, 360900, Note_on_c, 15, 49, 90
28, 361019, Note_on_c, 15, 49, 0
28, 361020, Note_on_c, 15, 49, 90
28, 361139, Note_on_c, 15, 49, 0
28, 361140, Note_on_c, 15, 49, 90
28, 361259, Note_on_c, 15, 49, 0
28, 361260, Note_on_c, 15, 49, 90
28, 361379, Note_on_c, 15, 49, 0
28, 361380, Note_on_c, 15, 49, 90
28, 361499, Note_on_c, 15, 49, 0
28, 361500, Note_on_c, 15, 49, 90
28, 361619, Note_on_c, 15, 49, 0
28, 361620, Note_on_c, 15, 49, 90
28, 361739, Note_on_c, 15, 49, 0
28, 361740, Note_on_c, 15, 49, 90
28, 361859, Note_on_c, 15, 49, 0
28, 361860, Note_on_c, 15, 49, 90
28, 361979, Note_on_c, 15, 49, 0
28, 361980, Note_on_c, 15, 49, 90
28, 362099, Note_on_c, 15, 49, 0
28, 362100, Note_on_c, 15, 53, 90
28, 362219, Note_on_c, 15, 53, 0
28, 362220, Note_on_c, 15, 49, 90
28, 362339, Note_on_c, 15, 49, 0
28, 362340, Note_on_c, 15, 54, 90
28, 362459, Note_on_c, 15, 54, 0
28, 362460, Note_on_c, 15, 42, 90
28, 362579, Note_on_c, 15, 42, 0
28, 362580, Note_on_c, 15, 45, 90
28, 362699, Note_on_c, 15, 45, 0
28, 362700, Note_on_c, 15, 42, 90
28, 362819, Note_on_c, 15, 42, 0
28, 362820, Note_on_c, 15, 47, 90
28, 362939, Note_on_c, 15, 47, 0
28, 362940, Note_on_c, 15, 49, 90
28, 363059, Note_on_c, 15, 49, 0
28, 363060, Note_on_c, 15, 50, 90
28, 363179, Note_on_c, 15, 50, 0
28, 363180, Note_on_c, 15, 47, 90
28, 363299, Note_on_c, 15, 47, 0
28, 363300, Note_on_c, 15, 49, 90
28, 363539, Note_on_c, 15, 49, 0
28, 363540, Note_on_c, 15, 37, 90
28, 363779, Note_on_c, 15, 37, 0
28, 363780, Note_on_c, 15, 42, 90
28, 363899, Note_on_c, 15, 42, 0
28, 363900, Note_on_c, 15, 57, 90
28, 363959, Note_on_c, 15, 57, 0
28, 363960, Note_on_c, 15, 55, 90
28, 364019, Note_on_c, 15, 55, 0
28, 364020, Note_on_c, 15, 54, 90
28, 364079, Note_on_c, 15, 54, 0
28, 364080, Note_on_c, 15, 55, 90
28, 364139, Note_on_c, 15, 55, 0
28, 364140, Note_on_c, 15, 52, 90
28, 364199, Note_on_c, 15, 52, 0
28, 364200, Note_on_c, 15, 54, 90
28, 364259, Note_on_c, 15, 54, 0
28, 364260, Note_on_c, 15, 50, 90
28, 364499, Note_on_c, 15, 50, 0
28, 364500, Note_on_c, 15, 38, 90
28, 364739, Note_on_c, 15, 38, 0
28, 365700, Note_on_c, 15, 50, 90
28, 365939, Note_on_c, 15, 50, 0
28, 365940, Note_on_c, 15, 38, 90
28, 366179, Note_on_c, 15, 38, 0
28, 367140, Note_on_c, 15, 50, 90
28, 367379, Note_on_c, 15, 50, 0
28, 367380, Note_on_c, 15, 38, 90
28, 367619, Note_on_c, 15, 38, 0
28, 367620, Note_on_c, 15, 50, 90
28, 367739, Note_on_c, 15, 50, 0
28, 367740, Note_on_c, 15, 38, 90
28, 367859, Note_on_c, 15, 38, 0
28, 367860, Note_on_c, 15, 38, 90
28, 367979, Note_on_c, 15, 38, 0
28, 367980, Note_on_c, 15, 50, 90
28, 368099, Note_on_c, 15, 50, 0
28, 368100, Note_on_c, 15, 50, 90
28, 368219, Note_on_c, 15, 50, 0
28, 368220, Note_on_c, 15, 38, 90
28, 368339, Note_on_c, 15, 38, 0
28, 368340, Note_on_c, 15, 38, 90
28, 368459, Note_on_c, 15, 38, 0
28, 368460, Note_on_c, 15, 50, 90
28, 368579, Note_on_c, 15, 50, 0
28, 368580, Note_on_c, 15, 50, 90
28, 368699, Note_on_c, 15, 50, 0
28, 368700, Note_on_c, 15, 50, 90
28, 368819, Note_on_c, 15, 50, 0
28, 368820, Note_on_c, 15, 43, 90
28, 368939, Note_on_c, 15, 43, 0
28, 368940, Note_on_c, 15, 43, 90
28, 369059, Note_on_c, 15, 43, 0
28, 369060, Note_on_c, 15, 50, 90
28, 369119, Note_on_c, 15, 50, 0
28, 369120, Note_on_c, 15, 52, 90
28, 369179, Note_on_c, 15, 52, 0
28, 369180, Note_on_c, 15, 54, 90
28, 369239, Note_on_c, 15, 54, 0
28, 369240, Note_on_c, 15, 55, 90
28, 369299, Note_on_c, 15, 55, 0
28, 369300, Note_on_c, 15, 57, 90
28, 369359, Note_on_c, 15, 57, 0
28, 369360, Note_on_c, 15, 56, 90
28, 369419, Note_on_c, 15, 56, 0
28, 369420, Note_on_c, 15, 57, 90
28, 369479, Note_on_c, 15, 57, 0
28, 369480, Note_on_c, 15, 56, 90
28, 369539, Note_on_c, 15, 56, 0
28, 369540, Note_on_c, 15, 57, 90
28, 369779, Note_on_c, 15, 57, 0
28, 369780, Note_on_c, 15, 45, 90
28, 370019, Note_on_c, 15, 45, 0
28, 370980, Note_on_c, 15, 57, 90
28, 371219, Note_on_c, 15, 57, 0
28, 371220, Note_on_c, 15, 45, 90
28, 371459, Note_on_c, 15, 45, 0
28, 372420, Note_on_c, 15, 57, 90
28, 372659, Note_on_c, 15, 57, 0
28, 372660, Note_on_c, 15, 45, 90
28, 372899, Note_on_c, 15, 45, 0
28, 372900, Note_on_c, 15, 45, 90
28, 373019, Note_on_c, 15, 45, 0
28, 373020, Note_on_c, 15, 57, 90
28, 373139, Note_on_c, 15, 57, 0
28, 373140, Note_on_c, 15, 57, 90
28, 373259, Note_on_c, 15, 57, 0
28, 373260, Note_on_c, 15, 45, 90
28, 373379, Note_on_c, 15, 45, 0
28, 373380, Note_on_c, 15, 45, 90
28, 373499, Note_on_c, 15, 45, 0
28, 373500, Note_on_c, 15, 57, 90
28, 373619, Note_on_c, 15, 57, 0
28, 373620, Note_on_c, 15, 57, 90
28, 373739, Note_on_c, 15, 57, 0
28, 373740, Note_on_c, 15, 45, 90
28, 373859, Note_on_c, 15, 45, 0
28, 373860, Note_on_c, 15, 47, 90
28, 373979, Note_on_c, 15, 47, 0
28, 373980, Note_on_c, 15, 45, 90
28, 374039, Note_on_c, 15, 45, 0
28, 374040, Note_on_c, 15, 43, 90
28, 374099, Note_on_c, 15, 43, 0
28, 374100, Note_on_c, 15, 42, 90
28, 374219, Note_on_c, 15, 42, 0
28, 374220, Note_on_c, 15, 43, 90
28, 374339, Note_on_c, 15, 43, 0
28, 374340, Note_on_c, 15, 45, 90
28, 374459, Note_on_c, 15, 45, 0
28, 374460, Note_on_c, 15, 45, 90
28, 374579, Note_on_c, 15, 45, 0
28, 374580, Note_on_c, 15, 38, 90
28, 374819, Note_on_c, 15, 38, 0
28, 374820, Note_on_c, 15, 50, 90
28, 375059, Note_on_c, 15, 50, 0
28, 375060, Note_on_c, 15, 38, 90
28, 375299, Note_on_c, 15, 38, 0
28, 376260, Note_on_c, 15, 50, 90
28, 376499, Note_on_c, 15, 50, 0
28, 376500, Note_on_c, 15, 38, 90
28, 376739, Note_on_c, 15, 38, 0
28, 377700, Note_on_c, 15, 50, 90
28, 377939, Note_on_c, 15, 50, 0
28, 377940, Note_on_c, 15, 38, 90
28, 378179, Note_on_c, 15, 38, 0
28, 378180, Note_on_c, 15, 50, 90
28, 378299, Note_on_c, 15, 50, 0
28, 378300, Note_on_c, 15, 38, 90
28, 378419, Note_on_c, 15, 38, 0
28, 378420, Note_on_c, 15, 38, 90
28, 378539, Note_on_c, 15, 38, 0
28, 378540, Note_on_c, 15, 50, 90
28, 378659, Note_on_c, 15, 50, 0
28, 378660, Note_on_c, 15, 50, 90
28, 378779, Note_on_c, 15, 50, 0
28, 378780, Note_on_c, 15, 38, 90
28, 378899, Note_on_c, 15, 38, 0
28, 378900, Note_on_c, 15, 38, 90
28, 379019, Note_on_c, 15, 38, 0
28, 379020, Note_on_c, 15, 50, 90
28, 379139, Note_on_c, 15, 50, 0
28, 379140, Note_on_c, 15, 50, 90
28, 379259, Note_on_c, 15, 50, 0
28, 379260, Note_on_c, 15, 50, 90
28, 379379, Note_on_c, 15, 50, 0
28, 379380, Note_on_c, 15, 43, 90
28, 379499, Note_on_c, 15, 43, 0
28, 379500, Note_on_c, 15, 43, 90
28, 379619, Note_on_c, 15, 43, 0
28, 379620, Note_on_c, 15, 50, 90
28, 379679, Note_on_c, 15, 50, 0
28, 379680, Note_on_c, 15, 52, 90
28, 379739, Note_on_c, 15, 52, 0
28, 379740, Note_on_c, 15, 54, 90
28, 379799, Note_on_c, 15, 54, 0
28, 379800, Note_on_c, 15, 55, 90
28, 379859, Note_on_c, 15, 55, 0
28, 379860, Note_on_c, 15, 57, 90
28, 379919, Note_on_c, 15, 57, 0
28, 379920, Note_on_c, 15, 56, 90
28, 379979, Note_on_c, 15, 56, 0
28, 379980, Note_on_c, 15, 57, 90
28, 380039, Note_on_c, 15, 57, 0
28, 380040, Note_on_c, 15, 56, 90
28, 380099, Note_on_c, 15, 56, 0
28, 380100, Note_on_c, 15, 57, 90
28, 380339, Note_on_c, 15, 57, 0
28, 380340, Note_on_c, 15, 45, 90
28, 380579, Note_on_c, 15, 45, 0
28, 381540, Note_on_c, 15, 57, 90
28, 381779, Note_on_c, 15, 57, 0
28, 381780, Note_on_c, 15, 45, 90
28, 382019, Note_on_c, 15, 45, 0
28, 382980, Note_on_c, 15, 57, 90
28, 383219, Note_on_c, 15, 57, 0
28, 383220, Note_on_c, 15, 45, 90
28, 383459, Note_on_c, 15, 45, 0
28, 383460, Note_on_c, 15, 45, 90
28, 383579, Note_on_c, 15, 45, 0
28, 383580, Note_on_c, 15, 57, 90
28, 383699, Note_on_c, 15, 57, 0
28, 383700, Note_on_c, 15, 57, 90
28, 383819, Note_on_c, 15, 57, 0
28, 383820, Note_on_c, 15, 45, 90
28, 383939, Note_on_c, 15, 45, 0
28, 383940, Note_on_c, 15, 45, 90
28, 384059, Note_on_c, 15, 45, 0
28, 384060, Note_on_c, 15, 57, 90
28, 384179, Note_on_c, 15, 57, 0
28, 384180, Note_on_c, 15, 57, 90
28, 384299, Note_on_c, 15, 57, 0
28, 384300, Note_on_c, 15, 45, 90
28, 384419, Note_on_c, 15, 45, 0
28, 384420, Note_on_c, 15, 47, 90
28, 384539, Note_on_c, 15, 47, 0
28, 384540, Note_on_c, 15, 45, 90
28, 384599, Note_on_c, 15, 45, 0
28, 384600, Note_on_c, 15, 43, 90
28, 384659, Note_on_c, 15, 43, 0
28, 384660, Note_on_c, 15, 42, 90
28, 384779, Note_on_c, 15, 42, 0
28, 384780, Note_on_c, 15, 43, 90
28, 384899, Note_on_c, 15, 43, 0
28, 384900, Note_on_c, 15, 45, 90
28, 385019, Note_on_c, 15, 45, 0
28, 385020, Note_on_c, 15, 45, 90
28, 385139, Note_on_c, 15, 45, 0
28, 385140, Note_on_c, 15, 38, 90
28, 385379, Note_on_c, 15, 38, 0
28, 385379, End_track
29, 0, Start_track
29, 0, MIDI_port, 0
29, 0, Title_t, "J.S.BACH"
29, 0, End_track
30, 0, Start_track
30, 0, MIDI_port, 0
30, 0, Title_t, "BWV 205"
30, 0, End_track
31, 0, Start_track
31, 0, MIDI_port, 0
31, 0, Title_t, "CANTATA BWV 205"
31, 0, End_track
32, 0, Start_track
32, 0, MIDI_port, 0
32, 0, Title_t, "Zerreisset, zerspreget, zertrmmert die Gruft"
32, 0, End_track
33, 0, Start_track
33, 0, MIDI_port, 0
33, 0, Title_t, "SECUENCED BY "
33, 0, End_track
34, 0, Start_track
34, 0, MIDI_port, 0
34, 0, Title_t, "MARCELO COPIA M"
34, 0, End_track
35, 0, Start_track
35, 0, MIDI_port, 0
35, 0, Title_t, "mcopia@entelchile.net"
35, 0, End_track
0, 0, End_of_file
